<svg width="800" height="235.81" enable-background="new 0 0 1260 720" version="1.0" viewBox="0 0 800 235.81" xml:space="preserve" xmlns="http://www.w3.org/2000/svg"><defs><clipPath id="clipPath6327"><path d="m311.53 18.343h228.47v24.475h-228.47z"/></clipPath><clipPath id="clipPath9297"><path d="m-4.9437-18.069h231.73v26.294h-231.73z"/></clipPath><clipPath id="clipPath9309"><path d="m-7.4917-18.951h231.73v26.294h-231.73z"/></clipPath><clipPath id="clipPath9285"><path d="m-9.6089-17.463h231.73v26.294h-231.73z"/></clipPath><clipPath id="clipPath9267"><path d="m-9.0631-16.765h231.73v26.294h-231.73z"/></clipPath><clipPath id="clipPath9303"><path d="m-14.312-8.764h231.73v26.294h-231.73z"/></clipPath><clipPath id="clipPath9315"><path d="m-20.752-11.812h231.73v26.294h-231.73z"/></clipPath><clipPath id="clipPath9183"><path d="m-27.945-10.218h231.73v26.294h-231.73z"/></clipPath><clipPath id="clipPath9261"><path d="m-34.243-13.909h231.73v26.294h-231.73z"/></clipPath><clipPath id="clipPath9249"><path d="m-43.26-13.909h231.73v26.294h-231.73z"/></clipPath><clipPath id="clipPath9189"><path d="m-49.069-9.5187h231.73v26.294h-231.73z"/></clipPath><clipPath id="clipPath9195"><path d="m-55.367-13.909h231.73v26.294h-231.73z"/></clipPath><clipPath id="clipPath9273"><path d="m-37.329-15.858h231.73v26.294h-231.73z"/></clipPath><clipPath id="clipPath9201"><path d="m-36.196-13.909h231.73v26.294h-231.73z"/></clipPath><clipPath id="clipPath9237"><path d="m-57.412-13.909h231.73v26.294h-231.73z"/></clipPath><clipPath id="clipPath9279"><path d="m-58.545-15.858h231.73v26.294h-231.73z"/></clipPath></defs><link rel="stylesheet" type="text/css"/><link rel="stylesheet" type="text/css"/><style lang="en" type="text/css"/><style lang="en" type="text/css"/>



<g transform="matrix(14.47 0 0 -14.47 -4507.9 579.68)"><g clip-path="url(#clipPath6327)"><g transform="translate(317.91 38.841)"><path d="m0 0c1.005-0.606 2.787-1.611 2.966-3.225 0.194-1.741-1.774-3.056-2.837-3.74-0.903-0.58-2.709-1.805-4.514-1.29-1.806 0.517-1.999 3.676-1.999 4.708s-4e-3 3.878 1.676 4.579c1.548 0.644 3.903-0.547 4.708-1.032" fill="#f46c63"/></g></g><path transform="translate(313.21 35.502)" d="m0 0c0.077-0.088 0.189-0.132 0.337-0.132 0.137 0 0.244 0.044 0.321 0.132 0.049 0.049 0.083 0.123 0.102 0.222 0.02 0.099 0.018 0.196-4e-3 0.292s-0.068 0.181-0.14 0.255c-0.071 0.073-0.172 0.11-0.304 0.11l-0.201-0.045-0.111-0.094c-0.082-0.099-0.123-0.225-0.123-0.378 0-0.154 0.041-0.274 0.123-0.362m1.126 0.978c0.181-0.241 0.271-0.589 0.271-1.044 0-0.487-0.099-0.863-0.296-1.126-0.197-0.257-0.482-0.386-0.855-0.386-0.263 0-0.468 0.063-0.616 0.189l-0.148 0.148-0.074 0.214c0 0.109 0.066 0.164 0.197 0.164h0.354c0.011-0.093 0.047-0.162 0.107-0.205 0.065-0.044 0.15-0.066 0.255-0.066 0.136 0 0.249 0.063 0.337 0.189 0.076 0.131 0.12 0.317 0.131 0.559-0.06-0.061-0.14-0.113-0.238-0.156-0.077-0.028-0.181-0.041-0.313-0.041-0.29 0-0.52 0.082-0.69 0.246-0.164 0.164-0.247 0.389-0.247 0.674 0 0.455 0.19 0.759 0.567 0.913 0.138 0.06 0.285 0.09 0.444 0.09 0.357 0 0.628-0.121 0.814-0.362" clip-path="url(#clipPath9297)" fill="#fff"/><path transform="translate(315.76 36.384)" d="m0 0c-0.131 0-0.232-0.034-0.303-0.102-0.07-0.068-0.106-0.148-0.106-0.241 0-0.098 0.031-0.179 0.094-0.241 0.063-0.063 0.168-0.094 0.315-0.094 0.142 0 0.245 0.031 0.311 0.094 0.065 0.062 0.098 0.143 0.098 0.241 0 0.093-0.036 0.173-0.106 0.241-0.072 0.068-0.172 0.102-0.303 0.102m0.073-1.978h0.017l0.245 0.106c0.082 0.082 0.123 0.188 0.123 0.319l-0.065 0.229c-0.082 0.136-0.211 0.204-0.385 0.204h-8e-3c-0.185 0-0.316-0.068-0.393-0.204-0.037-0.055-0.056-0.131-0.056-0.229 0-0.131 0.04-0.237 0.122-0.319 0.06-0.065 0.142-0.101 0.245-0.106h0.016l0.058-8e-3h0.024l0.057 8e-3m-0.057-0.466h-0.024c-0.327 0-0.58 0.074-0.76 0.221-0.175 0.147-0.262 0.365-0.262 0.654 0 0.152 0.027 0.28 0.082 0.384 0.06 0.109 0.163 0.204 0.31 0.286l0.025 8e-3 -0.02 4e-3 -0.013 0.013c-0.093 0.049-0.169 0.119-0.229 0.212-0.06 0.098-0.089 0.218-0.089 0.36 0 0.141 0.04 0.272 0.122 0.392l0.09 0.115 0.02 0.016 0.021 0.016c0.076 0.06 0.17 0.111 0.282 0.152 0.111 0.04 0.244 0.061 0.396 0.061l0.033 8e-3h8e-3l0.025-8e-3c0.152 0 0.285-0.021 0.396-0.061 0.112-0.041 0.206-0.092 0.282-0.152l0.041-0.032 0.098-0.115c0.082-0.12 0.122-0.251 0.119-0.392-3e-3 -0.142-0.035-0.262-0.094-0.36-0.055-0.093-0.131-0.163-0.229-0.212l-0.025-0.017 0.025-8e-3c0.141-0.082 0.245-0.177 0.311-0.286 0.059-0.115 0.089-0.243 0.089-0.384 0-0.284-0.092-0.502-0.278-0.654-0.18-0.147-0.43-0.221-0.752-0.221" clip-path="url(#clipPath9309)" fill="#fff"/><path transform="translate(317.88 34.896)" d="m0 0c0-0.16 0.041-0.289 0.124-0.387 0.077-0.094 0.189-0.141 0.338-0.141 0.142 0 0.25 0.047 0.321 0.141 0.077 0.093 0.115 0.222 0.115 0.387 0 0.154-0.041 0.272-0.123 0.355-0.077 0.082-0.187 0.123-0.33 0.123-0.137 0-0.247-0.041-0.33-0.123-0.077-0.088-0.115-0.207-0.115-0.355m-8e-3 0.742c0.06 0.06 0.14 0.11 0.239 0.148 0.115 0.039 0.22 0.058 0.313 0.058 0.28 0 0.511-0.085 0.692-0.256 0.171-0.181 0.256-0.406 0.256-0.675 0-0.297-0.094-0.542-0.28-0.734-0.187-0.176-0.437-0.264-0.75-0.264-0.358 0-0.627 0.115-0.808 0.346-0.176 0.231-0.264 0.58-0.264 1.047 0 0.5 0.096 0.879 0.288 1.138 0.198 0.264 0.481 0.396 0.85 0.396 0.258 0 0.467-0.066 0.626-0.198 0.154-0.138 0.242-0.316 0.264-0.536h-0.429l-0.128 0.049-0.094 0.107-0.116 0.083-0.189 0.041c-0.143 0-0.256-0.063-0.338-0.19-0.083-0.12-0.127-0.307-0.132-0.56" clip-path="url(#clipPath9285)" fill="#fff"/><path transform="translate(317.33 34.198)" d="m0 0c0 0.142-0.115 0.258-0.258 0.258-0.142 0-0.258-0.116-0.258-0.258s0.116-0.258 0.258-0.258c0.143 0 0.258 0.116 0.258 0.258" clip-path="url(#clipPath9267)" fill="#fff"/><path transform="translate(322.58 26.197)" d="m0 0h1.398c-0.205-0.783-0.597-1.38-1.174-1.79-0.578-0.429-1.305-0.643-2.181-0.643-1.063 0-1.892 0.345-2.489 1.035-0.597 0.671-0.895 1.631-0.895 2.88 0 1.192 0.289 2.125 0.867 2.796 0.597 0.689 1.426 1.034 2.489 1.034 1.118 0 1.985-0.335 2.6-1.006 0.336-0.411 0.578-0.886 0.727-1.426h-1.957c-0.094 0.186-0.187 0.325-0.28 0.419-0.242 0.261-0.587 0.392-1.034 0.392-0.411 0-0.746-0.131-1.007-0.392-0.336-0.373-0.503-0.988-0.503-1.845 0-0.858 0.167-1.464 0.503-1.818 0.242-0.298 0.606-0.447 1.091-0.447 0.316 0 0.587 0.065 0.81 0.196l0.154 0.098 0.154 0.153c0.037 0.056 0.112 0.131 0.224 0.224s0.279 0.14 0.503 0.14" clip-path="url(#clipPath9303)" fill="#41bab5"/><path transform="translate(329.02 29.245)" d="m0 0c-0.28 0.391-0.662 0.587-1.146 0.587-0.523 0-0.923-0.186-1.203-0.559-0.279-0.373-0.419-0.886-0.419-1.538v-3.83h-1.902v9.618h0.951c0.261 0 0.485-0.093 0.671-0.279 0.186-0.187 0.28-0.411 0.28-0.672v-2.209c0.336 0.56 0.811 0.914 1.426 1.063s1.202 0.112 1.761-0.112c0.522-0.223 0.96-0.578 1.315-1.062 0.354-0.485 0.531-1.156 0.531-2.014v-4.333h-1.873v3.858c0 0.279-0.024 0.536-0.07 0.769-0.047 0.233-0.154 0.471-0.322 0.713" clip-path="url(#clipPath9315)" fill="#41bab5"/><path transform="translate(336.21 27.651)" d="m0 0c-0.261-0.131-0.625-0.252-1.09-0.363l-0.643-0.14c-0.336-0.094-0.578-0.215-0.727-0.364-0.131-0.205-0.196-0.41-0.196-0.615 0-0.279 0.084-0.503 0.251-0.671 0.168-0.149 0.41-0.224 0.727-0.224 0.522 0 0.932 0.149 1.231 0.448 0.298 0.298 0.447 0.708 0.447 1.23zm0.447-3.439c-0.391-0.205-0.806-0.331-1.244-0.377-0.438-0.047-0.825-0.07-1.16-0.07-0.671 0-1.258 0.181-1.762 0.545-0.503 0.363-0.755 0.964-0.755 1.803 0 0.783 0.229 1.343 0.686 1.678 0.456 0.335 1.039 0.559 1.747 0.671 0.093 0 0.205 0.014 0.336 0.042 0.13 0.028 0.279 0.051 0.447 0.07 0.82 0.112 1.23 0.354 1.23 0.727 0 0.28-0.145 0.461-0.433 0.545-0.289 0.084-0.555 0.126-0.797 0.126-0.261 0-0.494-0.038-0.699-0.112-0.206-0.075-0.354-0.215-0.448-0.419h-1.873c0.074 0.577 0.335 1.053 0.783 1.425 0.503 0.429 1.221 0.644 2.153 0.644 1.044 0 1.827-0.178 2.349-0.531 0.54-0.374 0.811-0.895 0.811-1.566v-2.545c0-0.746-0.136-1.328-0.406-1.747-0.27-0.42-0.592-0.723-0.965-0.909" clip-path="url(#clipPath9183)" fill="#41bab5"/><path transform="translate(342.51 31.342)" d="m0 0c-0.503 0-0.992-0.066-1.468-0.196-0.475-0.13-0.89-0.335-1.244-0.615-0.373-0.298-0.667-0.694-0.881-1.188s-0.321-1.105-0.321-1.832v-3.607h1.957v3.831c0 0.559 0.13 0.969 0.391 1.23s0.662 0.392 1.203 0.392h0.643v1.985h-0.14z" clip-path="url(#clipPath9261)" fill="#41bab5"/><path transform="translate(351.53 31.342)" d="m0 0c-0.447 0-0.746-0.224-0.894-0.671l-1.315-4.558-1.482 5.229h-2.069l2.601-7.438h1.985l2.628 7.438z" clip-path="url(#clipPath9249)" fill="#41bab5"/><path transform="translate(357.34 26.952)" d="m0 0c0-0.522-0.149-0.932-0.448-1.23-0.298-0.299-0.708-0.448-1.23-0.448-0.317 0-0.559 0.075-0.727 0.224-0.168 0.168-0.251 0.392-0.251 0.671 0 0.205 0.065 0.41 0.195 0.615 0.149 0.149 0.392 0.27 0.727 0.364l0.644 0.14c0.465 0.111 0.829 0.232 1.09 0.363zm1.007 4.027c-0.522 0.353-1.305 0.531-2.349 0.531-0.932 0-1.65-0.215-2.153-0.644-0.448-0.372-0.709-0.848-0.783-1.425h1.873c0.093 0.204 0.242 0.344 0.448 0.419 0.205 0.074 0.437 0.112 0.699 0.112 0.242 0 0.507-0.042 0.797-0.126 0.288-0.084 0.433-0.265 0.433-0.545 0-0.373-0.41-0.615-1.23-0.727-0.168-0.019-0.317-0.042-0.448-0.07-0.13-0.028-0.242-0.042-0.335-0.042-0.709-0.112-1.291-0.336-1.748-0.671-0.457-0.336-0.685-0.895-0.685-1.678 0-0.839 0.252-1.44 0.755-1.803 0.504-0.364 1.091-0.545 1.762-0.545 0.335 0 0.722 0.023 1.16 0.069 0.438 0.047 0.853 0.173 1.244 0.378 0.373 0.186 0.695 0.489 0.965 0.909 0.27 0.419 0.405 1.001 0.405 1.747v2.545c0 0.671-0.27 1.192-0.81 1.566" clip-path="url(#clipPath9189)" fill="#41bab5"/><path transform="translate(363.64 31.342)" d="m0 0c-0.504 0-0.993-0.066-1.468-0.196s-0.89-0.335-1.244-0.615c-0.374-0.298-0.667-0.694-0.881-1.188-0.215-0.494-0.322-1.105-0.322-1.832v-3.607h1.957v3.831c0 0.559 0.131 0.969 0.392 1.23s0.662 0.392 1.202 0.392h0.644v1.985h-0.14z" clip-path="url(#clipPath9195)" fill="#41bab5"/><path transform="translate(345.6 33.291)" d="m0 0c0 0.641-0.52 1.161-1.161 1.161s-1.16-0.52-1.16-1.161 0.519-1.161 1.16-1.161 1.161 0.52 1.161 1.161" clip-path="url(#clipPath9273)" fill="#41bab5"/><path transform="translate(344.46 31.342)" d="m0 0h-1.007v-7.438h1.958v6.487c0 0.261-0.094 0.485-0.28 0.671s-0.41 0.28-0.671 0.28" clip-path="url(#clipPath9201)" fill="#41bab5"/><path transform="translate(365.68 31.342)" d="m0 0h-1.007v-7.438h1.958v6.487c0 0.261-0.094 0.485-0.28 0.671s-0.41 0.28-0.671 0.28" clip-path="url(#clipPath9237)" fill="#41bab5"/><path transform="translate(366.81 33.291)" d="m0 0c0 0.641-0.52 1.161-1.161 1.161s-1.16-0.52-1.16-1.161 0.519-1.161 1.16-1.161 1.161 0.52 1.161 1.161" clip-path="url(#clipPath9279)" fill="#41bab5"/></g></svg>
