<svg width="800" height="295.95" enable-background="new 0 0 1691.9 625.9" version="1.1" viewBox="0 0 800 295.95" xml:space="preserve" xmlns="http://www.w3.org/2000/svg">
<g transform="scale(.47284)">
	<path d="m833.8 0v72.4c33.9 73.2 52.9 154.7 52.9 240.7s-19 167.6-52.9 240.8v71.1l858.1 0.9v-625z"/>
	<path d="m625.6 312.9c0 172.8-140.1 312.8-312.8 312.8s-312.8-140-312.8-312.8 140.1-312.8 312.8-312.8c172.8 0 312.8 140 312.8 312.8"/>
	<path d="m380.4 339.6c0 45.4-30.9 83.3-79.8 83.3-46.9 0-80.3-38.4-80.3-84.3v-1c0-45.9 30.9-83.8 79.3-83.8 47.4 0 80.8 38.4 80.8 84.8zm10.7-131.3v23.9c-24-19.5-55.2-31.2-90.6-31.2-80.8 0-140.7 62.3-140.7 137.7v1c0 74.8 59.4 136.2 139.7 136.2 35.8 0 67.4-12.1 91.6-32v24.4h60.8v-260z" fill="#fff"/>
	<path d="m280 101.5c-7.9-8.5-14.7-14.4-20.6-18-6.4-3.8-13.1-5.8-19.8-5.8-8.8 0-16.3 3.1-22.2 9.1s-8.9 13.5-8.9 22.3c0 7.1 2.3 13.5 6.8 18.9 4.2 5 10.5 10.2 20.1 14.3 14.8 6.4 60.6 22.3 60.6 22.3h42.4z" fill="#fff"/>
	<polygon points="1214.3 367.7 1090.2 367.7 1090.2 468.4 1033 468.4 1033 208.3 1231 208.3 1231 260.3 1090.2 260.3 1090.2 315.7 1214.3 315.7" fill="#fff"/>
	<polygon points="1396 409.7 1323.5 299.7 1323.5 468.4 1267.4 468.4 1267.4 208.3 1329.1 208.3 1397.5 318.3 1465.8 208.3 1527.5 208.3 1527.5 468.4 1470.7 468.4 1470.7 298.6 1397.5 409.7" fill="#fff"/>
</g>
</svg>
