<svg width="800" height="357.91" version="1.1" viewBox="0 0 800 357.91" xml:space="preserve" xmlns="http://www.w3.org/2000/svg"><defs><clipPath id="n"><path d="m-3.049e-6 1.8311e-4h720v405h-720z" clip-rule="evenodd"/></clipPath><clipPath id="ap"><path d="m0 0h889.04v398.14h-889.04z"/></clipPath></defs><g transform="matrix(1.3333 0 0 -1.3333 1.7131e-5 357.91)"><g transform="matrix(6.3218 0 0 6.3218 -3769.6 -2129.4)"><g clip-path="url(#n)"><g transform="matrix(1.3183 0 0 .59 596.28 336.84)"><g transform="scale(.080986 .18084)"><g clip-path="url(#ap)"><path d="m36.365 2.4401-0.749 0.2495-0.5 0.4992-0.249 0.7486v20.962l-27.971-22.209-0.7492-0.2495-0.4995 0.2495-0.7492 0.4992-0.2498 0.7486v63.885l0.2498 0.748 0.7492 0.499 0.7492 0.25 0.4995-0.25 27.971-22.209v20.962l0.249 0.748 0.5 0.499 0.749 0.25 0.749-0.25 40.458-32.191 0.499-0.499v-0.999l-0.499-0.499-40.458-32.191h-0.499z" fill="#fff"/><path d="m123.52 24.151-0.25-2.745 0.25-2.246 0.5-1.497 1-1.248 1-0.998 1.25-0.499 1-0.25h1l1.5 0.25 1.24 0.249 1.5 0.749 1 0.748 1 1.248 0.75 0.998 1 2.496v1.247l-0.25 0.999-0.75 0.998-1 0.998-1.75 0.998-2.24 1.248-6 2.745-2 0.749-2.24 1.247-2.75 1.747-2.25 1.997-1.25 1.247-1 1.498-0.75 1.497-0.74 1.497-0.5 1.997-0.25 1.996v1.996l0.25 2.496 0.74 2.495 0.75 2.496 1.25 2.246 1.25 1.996 1.5 1.997 1.75 1.746 1.75 1.498 1.99 1.497 2 1.248 2 0.998 2.25 0.998 2.25 0.749 2.24 0.748 2.25 0.25 2.25 0.249 2.25 0.25 3.74-0.25 3.75-0.748 1.75-0.749 1.99-0.749 1.5-0.998 1.75-0.998 2.5-2.994 1-1.747 1-1.997 0.5-2.246 0.24-2.495v-2.745l-0.24-2.995h-17.74v3.244l-0.5 0.999-0.5 0.998-0.99 0.748-1.25 0.5-1.75 0.249h-1.25l-1.25-0.249-1-0.5-1-0.748-1-0.749-0.74-0.998-0.5-0.998-0.5-1.248v-0.998l0.25-0.998 0.5-0.999 0.99-0.748 1.75-1.248 2.25-1.248 6.99-3.244 4-2.246 3-2.246 2.49-2.246 1-1.247 0.75-1.248 1-2.496 0.5-2.495v-2.995l-0.25-2.745-1-4.242-0.75-1.996-1-1.997-1-1.996-1.24-1.747-1.5-1.7467-1.5-1.7469-2-1.4973-2-1.2477-2-1.2478-2.49-0.9981-5.5-1.4973-3.24-0.24957-3.25-0.24954-3.25 0.24954-2.99 0.24957-2.75 0.74863-2.25 0.74869-2.25 0.9981-1.74 1.2478-1.75 1.2477-1.25 1.7469-1 1.7468-1 1.7472-0.5 1.996-0.5 2.246v4.492l0.25 2.495 0.5 2.496z" fill="#fff"/><path d="m196.7 55.095h-13.74l3 15.472h45.2l-3-15.472h-13.73l-9.99-53.903h-17.73z" fill="#fff"/><path d="m257.13 70.567h39.21l-2.75-15.472h-21.72l-2-10.731h20.98l-2.75-15.721h-20.98l-2.25-11.979h21.48l-2.75-15.472h-39.45z" fill="#fff"/><path d="m325.56 70.567h17.73l-12.98-69.375h-17.74z" fill="#fff"/><path d="m374.76 70.567h39.46l-3-15.472h-21.73l-1.99-10.731h20.97l-2.74-15.721h-20.98l-2.25-11.979h21.73l-3-15.472h-39.46z" fill="#fff"/><path d="m443.19 70.567h26.72l3.49-0.25 3-0.499 2.75-0.499 2.25-0.749 1.99-0.748 1.75-0.999 1.5-1.247 1.75-1.747 1.25-1.996 1-2.246 0.75-2.246 0.5-2.496 0.24-2.495-0.24-2.745-0.25-2.995-1-3.743-1.5-3.244-1.5-2.995-2-2.495-2.25-2.496-2.74-1.996-2.75-1.747-2.5-1.248 9.49-25.454h-18.23l-11.99 33.44h6.25l2.99 0.499 2.5 0.499 2.25 0.998 1.75 1.248 1.75 1.996 1.24 2.496 0.5 1.248 0.25 1.497 0.25 1.248v1.247l-0.25 1.248-0.25 0.998-0.5 0.998-0.49 0.999-0.5 0.748-0.75 0.499-1.5 0.999-1.75 0.499-2 0.249-1.75 0.25h-6.49l-9.99-53.903h-17.98z" fill="#fff"/><path d="m510.62 1.1924 12.73 69.375h23.98l4.74-44.669 20.98 44.669h23.97l-12.98-69.375h-16.48l10.23 51.906-24.72-51.906h-11.74l-5.24 51.906-9.24-51.906z" fill="#fff"/><path d="m629.24 1.1924h-19.23l40.46 69.375h15.23l13.99-69.375h-19.48l-1.5 9.9816h-24.23zm24.22 48.413-11.98-24.456h15.23z" fill="#fff"/><path d="m718.4 70.567h26.72l3.49-0.25 3-0.499 2.75-0.499 2.5-0.749 1.99-0.748 1.5-0.999 1.5-1.247 1.75-1.747 1.25-1.996 1.25-2.246 0.75-2.246 0.25-2.496 0.24-2.495-0.24-2.745-0.25-2.995-1-3.743-1.5-3.244-1.5-2.995-1.75-2.495-2.5-2.496-2.74-1.996-2.5-1.747-2.75-1.248 9.74-25.454h-18.48l-11.99 33.44h6.25l2.99 0.499 2.75 0.499 2 0.998 2 1.248 1.5 1.996 1.24 2.496 0.5 1.248 0.5 1.497v3.743l-0.5 0.998-0.25 0.998-0.5 0.999-0.74 0.748-0.75 0.499-1.5 0.999-1.75 0.499-1.75 0.249-2 0.25h-6.49l-9.99-53.903h-17.73z" fill="#fff"/><path d="m800.56 70.567h17.73l-5.74-31.194 25.72 31.194h18.48l-29.22-34.438 18.73-34.937h-21.48l-13.73 29.946-5.5-29.946h-17.73z" fill="#fff"/><path d="m109.54 159.16 21.97 0.99h0.75l1.5 0.25 1.5 0.5 2.5 2 1.25 1.5 0.75 1.49 0.75 1.75 0.49 2 15.49 89.09 30.72 1.99 1.99-0.25 1-0.25 0.75-0.5 0.5-0.5 0.75-0.74 0.75-1.5 0.5-2 0.25-1.99-0.25-1.5v-0.25l-0.25-1.75-14.98-84.34 2.74-3 30.72 1.25 22.48 124.77 0.25 2.75v2.24l-0.25 2.25-0.75 2-1 1.99-1.25 1.75-1.75 1.5-2 1.24-2.49 0.75-1.25 0.25h-1.5l-84.16-6.74h-0.25l-1.5-0.25-1.5-0.74-1.5-1-1.25-1.25-0.99-1.25-1-1.74-0.5-1.75-0.5-2-21.98-125.77z"/><path d="m426.2 171.88 25.98 1h0.75l1.99 0.5 1.75 0.5 1.5 1 1.5 1.25 1.5 1.49 1 1.75 0.75 2 0.5 1.99 18.73 97.33 36.46 2.49h1.25l0.99-0.25 1-0.25 1-0.5 1.5-1.24 1.25-1.5 0.5-2.25 0.25-2.49v-1.75l-0.25-0.25-0.25-1.75-17.98-92.33 3.24-3.24 36.97 1.49 26.72 136.51v0.25l0.25 1.49v1.5l0.25 3-0.25 2.74-1 2.5-0.5 0.99-0.75 1.25-1 0.75-1 1-1 0.75-1.25 0.75-1.24 0.5-1.5 0.24-1.75 0.5h-3.5l-100.64-7.98h-0.25l-2-0.25-1.75-0.75-1.75-1-1.24-1.5-1.5-1.49-1-1.75-0.75-2-0.5-2.24-25.97-137.25z"/><path d="m565.06 177.37 28.22 1.25h0.75l2 0.25 1.99 0.75 1.75 1 1.5 1.25 1.5 1.49 2 4 0.5 1.99 19.97 101.07 39.46 2.49h2.5l1.25-0.5 1-0.49 0.75-0.5 1.5-1.5 0.5-1 0.49-2.24 0.25-2.25v-2h-0.25l-0.25-1.99-19.22-95.83 3.24-3.49 39.71 1.49 28.97 142 0.25 1.74v1.5l0.25 2v1.74l-0.25 1.75-0.5 1.5-0.75 1.5-0.75 1.24-1 1.25-1.25 1-1 1-1.24 0.75-2.75 1.24-2.75 0.5-2.75 0.25h0.25-1.24l-108.14-8.73h-0.25l-2.25-0.25-1.75-0.75-1.74-1.25-1.75-1.25-1.25-1.74-1.25-1.75-0.75-2.25-0.5-1.99v-0.25l-28.22-142.49z"/><path d="m237.65 164.4 24.23 0.99h0.25l1.5 0.25 1.74 0.5 1.25 1 1.5 1 1 1.25 1 1.74 0.75 1.5 0.5 2 16.98 92.83 6.49 0.5 1.75 0.25 3 1.5 1.5 1.24 1 1.5 0.99 1.5 0.75 1.99 0.5 1.75 0.25 0.25 5.5 30.45-2.75 3.24-11.24-1 8.24 45.17 1.25 1.75 1 1.99 1 2 0.75 2 0.75 2.24 0.5 2.25 0.25 2.49v4.5l-0.25 1.99-0.5 2.25-0.5 1.99-0.75 2-0.75 1.75-1 1.74-1 1.75-2.5 3-1.24 1.49-1.5 1-1.5 1.25-3.5 1.5-1.75 0.49-0.25 0.25h-0.74l-2.5 0.25h-2.25l-2-0.25-2-0.49-1.99-1-1.75-0.75-1.75-1.25-1.5-1.5-1.5-1.49-1.49-1.5-1.25-2-1.25-1.74-1-2.25-0.75-2-0.5-2.24-0.5-2.25-0.5-2.49v-2.5l0.25-2.99 0.25-2.75 0.75-2.49 1-2.5-4.25-24.46-5.24-28.94-14.24-1.25-6.99-39.18 2.75-2.99 10.74 0.74-17.73-97.57z"/><path d="m10.392 155.41 78.418 3h0.499l1.249 0.25 1.498 0.5 1.249 0.99 1.249 1 0.999 1.25 0.749 1.5 0.749 1.49 0.25 1.75 19.479 112.05 0.5 2.99v2.75l-0.25 2.49-0.75 2.25-1.25 2-1.5 1.74-1.99 1-2.25 1-2.5 0.25h-1.25l-13.484-1.25-65.181-5.24h-0.749l-1.499-0.5-1.248-0.5-1.249-1-0.999-1.24-0.999-1.25-0.749-1.75-0.499-1.5-0.5-1.99-4.495-27.45 2.247-2.75 63.184 4.25 0.999-0.25 0.25-1-0.25-1.25-0.999-5.99-60.187-3.74-0.249-0.25h-0.25l-1.499-0.25-1.498-0.5-1.249-1-1.248-1-0.999-1.49-0.75-1.5-0.749-1.75-0.25-1.99-10.239-60.65-0.24973-2.24v-0.5l0.24973-2.5 0.74922-2.49 1.2487-2 1.2487-1.99 1.7481-1.5 1.7482-1.25 1.7481-0.75zm24.974 42.93v0.74l2.997 17.47 36.462 2.25-3.497-19.97-34.963-1.74h-0.749z"/><path d="m873.48 356.55-1.5-0.25h-0.49l-116.88-9.23-2.25-0.5-2-0.75-2-1-1.74-1.5-1.5-1.74-1-1.75-1-2.25-0.5-2.24-27.47-133.76v-1.75l0.25-3.24 0.75-2.75 1.25-2.74 0.75-1.25 1-1 0.99-1 1.25-0.99 1.25-0.75 1.5-0.75 3-1 1.75-0.25h1.99l19.73 0.75 96.65 3.99h0.5l4 1 1.74 1 1.5 1.25 1.5 1.49 1.25 1.75 1 1.75 0.75 1.99v0.25l7.74 36.94-3.75 3.74-91.15-4.74-1.75-0.25h-2l-0.75 0.25-0.25 0.5-0.25 0.75v1.24l1.5 7.24 90.41 4.99h1l2.24 0.25 2 0.75 1.75 1 1.75 1.5 1.5 1.49 1.25 1.75 0.99 2 0.5 1.99 0.25 0.25 15.99 75.61 0.5 3.5v3.74l-0.25 1.75-0.5 1.5-0.75 1.49-3 3.75-1.25 0.99-1.25 1-2.74 1.25-1.5 0.5-1.5 0.25-1.25 0.25zm-39.46-53.65-0.25-1.5-4.49-21.46-53.69-3.25 4.74 24.21 52.2 3.49 1.24-0.25z"/><path d="m852.26 165.39h-1l-843.61-28.94-0.999-0.25-0.9989-0.25-0.999-0.5-0.7492-0.75-0.4994-0.75-0.4995-1-0.4995-0.99v-26.21l0.2498-2.49 0.4994-1.75 0.999-1.5 0.9989-1.244 1.2487-0.749 1.2487-0.499 1.2487-0.25h1.2489l844.86 19.212 2 0.5 1 0.5 0.75 0.75 0.5 0.75 1 2v35.68l-0.25 2.5-0.75 1.74-1 1.75-1.25 1-1.5 1-1.25 0.5-1.25 0.24z"/><path d="m296.09 184.86-0.25-1.5-0.25-1.49 0.5-4 0.5-2.49 1.25-2.5 0.75-1 0.75-1.24 1-0.75 1.25-1 1.24-0.75 1.75-0.5 1.75-0.25 2-0.25h0.25l15.48 0.75 77.67 2.99h0.25l1.5 0.5 1.75 0.5 1.25 1 1.49 1 1 1.5 1 1.49 0.75 1.5 0.5 1.75 0.25 0.25 5.99 32.94-2.99 3.24-75.92-3.74h-0.75l-0.25 1.25v0.99l1.25 6.49 72.42 4h0.75l1.75 0.5 1.5 0.49 1.49 1 1.5 1 2 3 1 1.74 0.5 1.75v0.5l12.74 67.38 0.25 1.49 0.25 1.75v2.99l-0.25 1.25-0.5 1.5-0.5 1.25-0.75 1.25-1.75 2.24-2 1.75-2.25 1.25-2.24 0.74-1.25 0.25h-2.25l-93.9-7.48-1.75-0.25-1.75-0.75-1.5-1-1.24-1.25-1.25-1.49-1-1.75-0.75-2-0.5-1.99zm94.9 88.09-0.25-1.25-3.49-18.96-43.21-2.75 4 21.46 41.7 3 1-0.25z"/><path d="m222.17 304.89-84.16-6.74h-0.25l-1.5-0.25-1.5-0.74-1.5-1-1.25-1.25-0.99-1.25-1-1.74-0.5-1.75-0.5-2-21.98-125.77 21.98 1 0.5-0.25 1.75 0.25 1.49 0.75 1.25 0.75 1.25 1.24 1 1.25 1 1.75 0.75 1.74 0.25 2 15.73 88.84 30.47 2h2l1.75-0.75 1.49-1 1.25-1.25 1-1.5 1-1.99 0.5-2 0.25-2.24-0.25-1.5v-0.25l-0.25-1.75-14.98-84.34 30.96 1.49 22.23 124.53 0.25 2.99-0.25 2.25-0.5 1.99-0.75 2-1.25 1.5-1.5 1.25-1.49 0.99-1.75 0.5z" fill="#e30613"/><path d="m560.56 331.59-100.64-7.98h-0.25l-2-0.25-1.75-0.75-1.75-1-1.24-1.5-1.5-1.49-1-1.75-0.75-2-0.5-2.24-25.97-137.25 25.97 1h0.75l1.75 0.24 2 0.75 1.49 1 1.5 1.25 1.25 1.5 1 1.74 1 1.75 0.5 2.25 18.48 97.07 36.71 2.5h2l2-0.75 1.99-1 1.5-1.5 1.5-1.75 1-1.99 0.5-2.25 0.25-2.49-0.25-1.5 0.25-0.25h-0.25l-0.25-2-17.98-92.08 36.96 1.5 26.72 136.5 0.25 1.5v1.5l-0.25 2.49-0.5 2.5-1 1.99-1.5 1.75-1.74 1.5-1.75 0.99-2.25 0.5z" fill="#e30613"/><path d="m709.91 343.57h-0.25l-108.14-8.73h-0.25l-2.25-0.25-1.75-0.75-1.99-1.25-1.5-1.25-1.25-1.74-1.25-1.75-0.75-2.25-0.5-1.99v-0.25l-28.22-142.49 27.97 1.24h1l2 0.25 1.75 0.75 1.99 1 1.5 1.25 1.25 1.5 1.25 1.99 0.75 2 0.5 2 20.23 100.81 39.21 2.75h2.49l2-0.75 2-1 1.75-1.5 1.5-1.74 1-2.25 0.74-2.25 0.25-2.49-0.25-1.75v-0.25l-0.25-1.99-19.22-95.83 39.7 1.75 28.72 141.74 0.25 1.75v1.49l-0.25 2.75-0.5 2.25-1.25 2.24-1.49 1.75-1.75 1.5-2 0.99-2.25 0.5z" fill="#e30613"/><path d="m307.33 311.63-14.73-1.25 8.99 48.41 1.24 2 1 1.75 1 1.99 1.5 4.5 0.5 2.24 0.25 2.25v4.74l-0.5 2.49-0.5 2.25-0.5 2-1 1.99-1 2-1 1.75-1.24 1.49-1.5 1.5-1.5 1-1.75 1.25-1.75 0.75-1.75 0.49-1.74 0.5-2 0.25-2-0.25-2.25-0.25-1.75-0.49-1.99-0.75-1.75-1-1.75-1.25-1.5-1.5-1.5-1.49-1.49-1.5-1.25-2-1.25-1.74-1-2.25-0.75-2-0.5-2.24-0.5-2.25-0.5-2.49v-2.5l0.25-2.74 0.25-3 0.75-2.49 1-2.5-4.25-24.46-5.24-28.94-14.24-1.25-6.99-39.18 13.99 1-18.23-100.82 24.22 1h0.25l1.5 0.25 1.75 0.5 1.25 0.75 1.49 1.24 1 1.25 1 1.75 0.75 1.5 0.5 1.99 16.98 92.83 6.5 0.5 1.74 0.25 1.5 0.5 1.5 1 1.5 1.25 1 1.5 1 1.49 0.75 1.75 0.5 2v0.25z" fill="#e30613"/><path d="m106.54 295.66h-1l-13.484-1.25-65.181-4.99v-0.25h-0.749l-1.499-0.25-1.248-0.75-1.249-1-0.999-1.24-0.999-1.25-0.749-1.75-0.499-1.5-0.5-1.99-4.495-27.2 62.933 4.24h0.25l0.5-0.25h0.749l0.499-0.5 0.5-0.5 0.749-1.25 0.5-1.74-0.25-1.25-0.999-5.99-60.187-3.74-0.249-0.25h-0.25l-1.499-0.25-1.498-0.5-1.249-1-1.248-1-0.999-1.49-0.75-1.5-0.749-1.75-0.25-1.99-10.239-60.65-0.24973-2.24 0.24973-2 0.49948-1.99 0.74924-2 0.9989-1.5 1.2487-1.25 1.2487-0.99 1.7481-0.5h1.9979l77.669 2.99h0.499l1.249 0.5 1.498 0.5 1.249 0.75 1.248 1 0.999 1.24 0.75 1.5 0.749 1.5 0.25 1.75 19.476 112.04 0.25 1.5v3.49l-0.5 2-0.75 1.75-0.99 1.49-1.25 1.25-1.25 1-1.5 0.75zm-35.212-96.83-34.963-1.74h-0.749l-0.5 0.25-0.749 0.25-0.499 0.5-0.5 1.49-0.499 1.75 0.25 0.75 2.747 17.47 39.458 2.24z" fill="#e30613"/><path d="m421.46 320.61h-0.25l-93.9-7.48-1.75-0.25-1.75-0.75-1.5-1-1.24-1.25-1.25-1.49-1-1.75-0.75-2-0.5-1.99-21.48-117.79-0.25-1.5-0.25-1.49 0.25-2.5 0.5-2 1-1.99 1.25-1.75 3-2.5 1.99-0.49 2-0.25v0.25l15.73 0.49 77.42 3.25h0.25l1.75 0.25 3 1.5 1.25 1.24 1 1.25 0.99 1.5 0.75 1.75 0.5 1.74h0.25l6 32.94-75.92-3.74h-0.75l-0.75 0.25-0.5 0.5-0.75 0.5-0.5 0.75-0.25 0.74-0.25 0.75v2l1.25 6.49 72.17 3.99h0.75l3.5 1 1.25 1 1.5 1.24 0.99 1.25 1 1.5 1 1.75 0.5 1.99v0.25l12.74 67.38 0.25 1.5 0.25 1.74-0.25 2.25-0.75 2.25-1 1.99-1.25 1.75-1.5 1.5-1.74 0.75-2 0.74zm-34.21-67.87-46.71-3 4.75 24.96 41.46 2.99h0.99l0.75-0.25 0.75-0.5 0.5-0.5 0.5-0.74 0.5-0.75 0.25-1v-1l-0.25-1.25z" fill="#e30613"/><path d="m871.98 356.3h-0.25l-117.12-9.23-2.25-0.5-2-0.75-2-1-1.74-1.5-1.5-1.74-1.25-1.75-0.75-2.25-0.75-2.24-26.72-131.76-0.25-1.5-0.25-1.75 0.25-2.74 0.75-2.25 1.25-2.25 1.25-1.74 1.99-1.75 2-1 2.25-0.75h2.75l19.48 0.75 96.39 4h0.5l2 0.25 2 0.74 1.75 1 1.75 1.25 1.24 1.5 1.25 1.74 1 1.75 0.75 2v0.25l7.74 36.93-94.9-4.99-1 0.25-0.74 0.25-1 0.25-0.75 0.75-0.5 0.74-0.5 0.75-0.25 1v2.25l1.5 7.23 90.15 5h0.5l0.5 0.24 2.25 0.25 2 0.75 1.74 1 1.75 1.25 1.5 1.75 1.25 1.74 1 1.75 0.5 2.25 0.25 0.24 15.98 75.62 0.25 1.74 0.25 1.75-0.25 2.75-1 2.49-1 2.25-1.75 1.74-1.99 1.5-2 1.25-2.5 0.5zm-42.7-76.11-58.19-3.75 5.74 27.95 51.95 3.5h1l1-0.25 1-0.5 0.75-0.5 0.5-0.75 0.5-1 0.24-1 0.25-0.99-0.25-1.5z" fill="#e30613"/><path d="m856.5 125.72v-1l-1-2-0.5-0.75-0.75-0.75-1-0.49-0.99-0.25-1-0.25-843.61-19.97h-0.999l-0.9989 0.5-0.999 0.25-0.7492 0.75-0.4994 0.75-0.999 2v27.45l0.4995 0.99 0.4995 1 0.4994 0.75 0.7492 0.75 0.999 0.5 1.9979 0.5 843.61 28.94h1l0.99-0.24 1-0.5 0.75-0.5 0.5-0.75 0.5-1 0.5-2z" fill="#e30613"/></g></g></g></g></g></g></svg>
