<svg width="800" height="147.8" enable-background="new 0 0 145 26.789" space="preserve" version="1.1" viewBox="0 0 800 147.8" xmlns="http://www.w3.org/2000/svg">
 <link href="" rel="stylesheet" type="text/css"/>
 <style type="text/css"/>
 <g transform="scale(5.5172)" display="none" fill="#fff">
  <path d="m25.893 8.694v3.449c1.133 0.095 2.078 0.142 2.93 0.142 1.842 0 2.93-0.235 3.354-0.378 0.048-0.331 0.095-0.896 0.095-1.464s-0.047-1.134-0.095-1.466c-0.9-0.236-3.118-0.802-6.284-0.283z" display="inline"/>
  <path d="m0 0v17.717h36.615l3.781-17.717zm11.907 8.505c-3.685 0.047-5.718 0.662-6.425 0.898v4.299h-1.465v-5.292s2.269-1.37 7.938-1.417zm10.631 4.535s-0.945 0.803-4.629 0.803c-2.033 0-4.349-0.283-4.349-0.283v-9.637h1.465v3.26c0.851-0.143 1.701-0.188 2.457-0.188 3.401 0 5.056 0.945 5.056 0.945s0.379 0.473 0.379 2.504c-0.049 2.077-0.379 2.596-0.379 2.596zm10.866 0s-0.944 0.803-4.631 0.803c-2.03 0-4.346-0.283-4.346-0.283v-9.637h1.463v3.26c0.853-0.143 1.7-0.188 2.457-0.188 3.401 0 5.057 0.945 5.057 0.945s0.378 0.473 0.378 2.504c0 2.077-0.378 2.596-0.378 2.596z" display="inline"/>
  <path d="m15.025 8.694v3.449c1.134 0.095 2.078 0.142 2.931 0.142 1.842 0 2.928-0.235 3.354-0.378 0.047-0.331 0.094-0.896 0.094-1.464s-0.047-1.134-0.094-1.466c-0.899-0.236-3.165-0.802-6.285-0.283z" display="inline"/>
 </g>
 <g transform="scale(5.5172)">
  <path d="M 0,17.718 H 36.618 L 40.35,0 H 0 Z" fill="#e31818"/>
  <path d="m11.907 8.505c-3.685 0.047-5.718 0.662-6.425 0.898v4.299h-1.465v-5.292s2.269-1.37 7.938-1.417zm10.961 1.891c0 2.125-0.33 2.599-0.33 2.599s-0.945 0.804-4.631 0.804c-2.031 0-4.347-0.285-4.347-0.285v-9.59h1.463v3.26c0.853-0.143 1.701-0.188 2.457-0.188 3.401 0 5.058 0.945 5.058 0.945s0.33 0.422 0.33 2.455m10.914 0c0 2.125-0.33 2.599-0.33 2.599s-0.945 0.804-4.632 0.804c-2.03 0-4.346-0.285-4.346-0.285v-9.59h1.463v3.26c0.853-0.143 1.701-0.188 2.457-0.188 3.401 0 5.056 0.945 5.056 0.945s0.332 0.422 0.332 2.455m-1.512 0.093c0-0.567-0.047-1.135-0.094-1.464-0.852-0.284-3.117-0.851-6.283-0.331v3.449c1.133 0.095 2.078 0.142 2.93 0.142 1.842-1e-3 2.881-0.235 3.353-0.331 0.047-0.331 0.094-0.898 0.094-1.465zm-10.961 1.465c0.047-0.331 0.094-0.898 0.094-1.465s-0.047-1.135-0.094-1.464c-0.852-0.284-3.117-0.851-6.283-0.331v3.449c1.135 0.095 2.078 0.142 2.93 0.142 1.841-1e-3 2.88-0.235 3.353-0.331" fill="#fff"/>
 </g>
 <g fill="#e31818" stroke-width="5.5172">
  <path d="m800 54.483c0-18.505-14.852-32.066-37.793-32.066-6.7862 0-14.345 1.3021-20.85 4.6952-10.174 5.9972-16.166 15.382-16.166 33.103 0 5.7379 1.3021 13.032 3.3821 17.992 3.6234 7.3292 9.0096 12.846 15.134 15.895 4.7007 2.091 10.174 3.6414 16.938 3.6414h35.454v-14.599h-36.226c-13.815-1.3021-16.436-9.3848-16.436-15.117h56.563zm-57.081-0.25931c0.25931-7.8179 5.2028-13.297 13.556-14.852 3.7421-0.74807 9.5601-0.56466 12.772 0 8.6124 1.8207 12.254 7.2938 12.524 14.852z"/>
  <path d="m541.93 54.483c0-18.505-14.852-32.066-37.793-32.066-6.7862 0-14.345 1.3021-20.85 4.6952-10.174 5.9972-16.166 15.382-16.166 33.103 0 5.7379 1.3021 13.032 3.3821 17.992 3.6234 7.3292 9.0096 12.846 15.134 15.895 4.7007 2.091 10.174 3.6414 16.938 3.6414h35.454v-14.599h-36.226c-13.815-1.3021-16.436-9.3848-16.436-15.117h56.563zm-57.081-0.25931c0.25931-7.8179 5.2028-13.297 13.556-14.852 3.7421-0.74807 9.5601-0.56466 12.772 0 8.6124 1.8207 12.254 7.2938 12.524 14.852z"/>
  <path d="m553.66 57.617v40.403h18.268v-40.673c0-12.519 7.2938-17.468 19.029-17.468 11.724 0 19.018 4.9434 19.018 17.468v40.397h18.257v-40.397c0-27.36-21.12-35.183-37.274-35.183-15.917 0-37.297 7.8124-37.297 35.454z"/>
  <path d="m334.97 57.617v40.403h18.257v-40.673c0-12.519 7.2938-17.468 19.029-17.468 11.724 0 19.018 4.9434 19.018 17.468v40.397h18.246v-40.397c0-27.36-21.114-35.183-37.274-35.183-15.906 0-37.274 7.8124-37.274 35.454z"/>
  <path d="m640.46 57.617v40.403h18.257v-40.673c0-12.519 7.2938-17.468 19.029-17.468 11.724 0 19.018 4.9434 19.018 17.468v40.397h18.257v-40.397c-0.25931-27.36-21.379-35.183-37.274-35.183-15.906 0-37.286 7.8124-37.286 35.454z"/>
  <path d="m440.27 62.83v-21.379h12.265v-15.636c-9.1255 0-12.265-2.6152-12.265-9.9034v-15.906h-18.505v64.646c0 16.679 5.2028 33.379 32.574 33.379h6.5324v-15.117c-14.869-0.01655-20.601-6.2676-20.601-20.083z"/>
  <path d="m322.98 97.754v-40.397c0-26.847-21.12-35.194-37.015-35.454v17.986c11.724 0 18.505 4.9434 18.505 17.462v0.26483h-45.103v-0.26483c0-12.519 7.0345-17.462 18.51-17.462v-17.727c-15.912 0.26483-37.021 8.3476-37.021 35.459v40.403h18.251v-25.032h45.357v25.032z"/>
 </g>
 <g transform="scale(5.5172)" fill="#585856">
  <path d="m101.53 26.695-2.125-3.071c-0.145-0.188-0.332-0.473-0.426-0.614v3.733h-1.137v-5.67h1.137l2.078 2.977c0.143 0.189 0.33 0.475 0.426 0.614v-3.638h1.135v5.67z"/>
  <path d="m111.27 24.238h1.654v-1.087h-1.654v-0.992h2.883v-1.134h-4.065v5.67h4.159v-1.087h-2.977z"/>
  <path d="m119.25 26.695-2.127-3.071c-0.141-0.188-0.33-0.473-0.424-0.614v3.733h-1.133v-5.67h1.086l2.078 2.977c0.143 0.189 0.33 0.475 0.426 0.614v-3.638h1.135v5.67z"/>
  <path d="m130.21 26.789c-1.416 0-2.361-0.896-2.361-2.551v-3.166h1.184v3.166c0 0.896 0.424 1.465 1.18 1.465s1.182-0.567 1.182-1.465v-3.166h1.184v3.166c-5e-3 1.607-0.857 2.551-2.369 2.551z"/>
  <path d="m142.59 26.742c-1.512 0-2.551-1.134-2.551-2.93 0-1.7 1.039-2.931 2.598-2.931 1.184 0 1.795 0.521 2.223 1.417l-1.086 0.428c-0.236-0.428-0.475-0.758-1.137-0.758-0.85 0-1.369 0.758-1.369 1.797 0 1.037 0.521 1.796 1.369 1.796 0.805 0 1.088-0.378 1.137-0.853h-0.945v-1.04h2.078v0.756c0 1.515-0.948 2.318-2.317 2.318"/>
  <path d="m138.95 22.82c0-1.181-0.898-1.795-1.984-1.795h-2.691v5.67h1.182v-2.032h1.182l1.039 2.032h1.322l-1.133-2.174c0.753-0.283 1.083-0.85 1.083-1.701m-1.987 0.756h-1.512v-1.464h1.512c0.521 0 0.854 0.188 0.854 0.708-0.049 0.521-0.332 0.756-0.854 0.756z"/>
  <path d="m94.731 21.025h-1.137l-2.221 5.67h1.229l0.475-1.276h2.125l0.473 1.276h1.275zm-1.231 3.355 0.379-1.039c0.094-0.331 0.236-0.662 0.283-0.896 0.047 0.188 0.188 0.565 0.283 0.896l0.379 1.039z"/>
  <path d="m83.768 23.624c0.381-0.234 0.615-0.614 0.615-1.087 0-0.992-0.709-1.512-1.844-1.512h-2.646v5.67h2.646c1.229 0 2.08-0.614 2.08-1.843-0.046-0.614-0.376-0.992-0.851-1.228m-2.738-1.512h1.465c0.52 0 0.707 0.188 0.707 0.52s-0.188 0.521-0.66 0.521h-1.512zm1.556 3.496h-1.559v-1.465h1.559c0.568 0 0.854 0.234 0.854 0.709-0.049 0.473-0.285 0.756-0.854 0.756"/>
  <path d="m90.667 22.82c0-1.181-0.898-1.795-1.984-1.795h-2.691v5.67h1.182v-2.032h1.182l1.039 2.032h1.322l-1.135-2.174c0.708-0.283 1.085-0.85 1.085-1.701m-2.032 0.756h-1.512v-1.464h1.512c0.521 0 0.852 0.188 0.852 0.708s-0.285 0.756-0.852 0.756z"/>
  <path d="m106.12 21.025h-1.795v5.67h1.746c1.512 0 2.977-0.853 2.977-2.835-0.047-2.031-1.276-2.835-2.928-2.835m-0.662 4.583v-3.449h0.613c1.229 0 1.748 0.567 1.748 1.748 0 0.992-0.567 1.701-1.795 1.701z"/>
  <path d="m125.91 23.624c0.379-0.234 0.615-0.614 0.615-1.087 0-0.992-0.709-1.512-1.846-1.512h-2.645v5.67h2.645c1.23 0 2.08-0.614 2.08-1.843-0.047-0.614-0.377-0.992-0.849-1.228m-2.788-1.512h1.463c0.521 0 0.709 0.188 0.709 0.52s-0.188 0.521-0.66 0.521h-1.561zm0 3.496v-1.465h1.559c0.566 0 0.852 0.234 0.852 0.709 0 0.473-0.286 0.756-0.852 0.756z"/>
 </g>
</svg>
