<?xml version="1.0" encoding="UTF-8"?>
<svg id="Ebene_1" width="288.35" height="158.85" version="1.1" viewBox="0 0 288.35 158.85" xmlns="http://www.w3.org/2000/svg" xmlns:cc="http://creativecommons.org/ns#" xmlns:dc="http://purl.org/dc/elements/1.1/" xmlns:rdf="http://www.w3.org/1999/02/22-rdf-syntax-ns#" xmlns:xlink="http://www.w3.org/1999/xlink">
 <metadata id="metadata25">
  <rdf:RDF>
   <cc:Work rdf:about="">
    <dc:format>image/svg+xml</dc:format>
    <dc:type rdf:resource="http://purl.org/dc/dcmitype/StillImage"/>
    <dc:title/>
   </cc:Work>
  </rdf:RDF>
 </metadata>
 <defs id="defs23">
  <clipPath id="SVGID_3_">
   <use id="use9" width="100%" height="100%" overflow="visible" xlink:href="#SVGID_2_"/>
  </clipPath>
 </defs>
 <style id="style2">.st0{fill:#FFD51F;} .st1{clip-path:url(#SVGID_3_);fill:#004898;} .st2{fill:none;stroke:#FFFFFF;stroke-width:3.454;stroke-miterlimit:10;} .st3{fill:#FFFFFF;} .st4{fill:#004898;}</style>
 <path id="path4" class="st0" d="m286.63 145.03v-131.3c-30.9-5-85.1-12-143.9-12-58.3 0-110.9 7-141 11.9v131.4c30.8 5 85.1 12.1 144 12.1 56.8 0 110.3-7.1 140.9-12.1" fill="#ffd51f"/>
 <path id="path4-5" class="st0" d="m286.63 13.827v65.6h-284.9v-65.6c30.8-5 85.1-12.1 144-12.1 56.8 0 110.3 7.1 140.9 12.1" fill="#004898"/>
 <path id="SVGID_1_" class="st2" d="m142.73 1.727c-58.3 0-110.9 7-141 11.9v131.4c30.8 5 85.1 12.1 144 12.1 56.8 0 110.2-7.1 140.9-12v-131.4c-30.9-5-85.1-12-143.9-12z" fill="none" stroke="#fff" stroke-miterlimit="10" stroke-width="3.454"/>
 <path id="path15" class="st3" d="m245.43 43.227c0-3.5 2.3-5.3 6.8-5.3 4.6 0 6.9 1.7 6.9 5.3v1h-13.6v-1zm22.2 1.8c0-10-5.1-15-15.2-15-10.7 0-16.1 5.2-16.1 15.6v5.5c0 10.6 5.7 15.2 18.1 15.2 3.4 0 6.2-0.3 8.4-0.9 3-0.8 3.7-1.5 3.7-4.5v-0.8c0-3.3-0.7-3.9-3.7-3.3s-5.8 1-8.4 1c-6.4 0-9.1-1.7-9.1-5.3v-1h17.7c3.3 0 4.2-0.7 4.5-3.8 0.1-0.8 0.1-1.7 0.1-2.7m-59.7-0.9c0-3.9 1.4-5.5 6.7-5.5s6.6 1.6 6.6 5.5v17.6c0 3.1 0.8 3.9 3.9 3.9h1.3c3.1 0 3.9-0.8 3.9-3.9v-17.6c0-9.4-4.8-14-15.7-14-10.5 0-15.8 4.8-15.8 14v17.6c0 3.1 0.8 3.9 3.9 3.9h1.3c3.1 0 3.9-0.8 3.9-3.9zm-38.3 0c0-3.9 1.4-5.5 6.7-5.5s6.6 1.6 6.6 5.5v17.6c0 3.1 0.8 3.9 3.9 3.9h1.3c3.1 0 3.9-0.8 3.9-3.9v-17.6c0-9.4-4.8-14-15.7-14-10.5 0-15.8 4.8-15.8 14v17.6c0 3.1 0.8 3.9 3.9 3.9h1.3c3.1 0 3.9-0.8 3.9-3.9zm-37.4-0.9c0-3.5 2.3-5.3 6.8-5.3 4.6 0 6.9 1.7 6.9 5.3v1h-13.6zm22.3 1.8c0-10-5.1-15-15.2-15-10.7 0-16.1 5.2-16.1 15.6v5.5c0 10.6 5.7 15.2 18.1 15.2 3.4 0 6.2-0.3 8.5-0.9 3-0.8 3.7-1.5 3.7-4.5v-0.8c0-3.3-0.7-3.9-3.7-3.3s-5.8 1-8.4 1c-6.4 0-9.1-1.7-9.1-5.3v-1h17.6c3.3 0 4.2-0.7 4.5-3.8 0-0.8 0.1-1.7 0.1-2.7m-63.3-9c0 2.8 0.7 3.5 3.5 3.5h2.8v13.6c0 8.8 4.4 13.2 13.4 13.2 2 0 3.7-0.1 4.8-0.4 3-0.6 3.8-1.8 3.8-4.9v-0.8c0-3-0.7-3.4-3.8-2.8-1.4 0.3-3 0.4-4.8 0.4-2.9 0-4.4-1.5-4.4-4.6v-13.8h7.9c3.1 0 3.9-0.8 3.9-3.9v-0.8c0-3.1-0.8-3.9-3.9-3.9h-7.9v-5.4c0-3-0.6-3.6-3.6-3.6h-0.4c-3 0-3.8 0.7-4.2 3.5l-0.8 5.5-2.8 0.6c-2.7 0.6-3.4 1.4-3.4 4.2v0.4zm-25.5 8.1c0-3.9 1.4-5.5 6.7-5.5s6.6 1.6 6.6 5.5v17.6c0 3.1 0.8 3.9 3.9 3.9h1.3c3.1 0 3.9-0.8 3.9-3.9v-17.6c0-9.4-4.8-14-15.7-14-10.5 0-15.8 4.8-15.8 14v17.6c0 3.1 0.8 3.9 3.9 3.9h1.3c3.1 0 3.9-0.8 3.9-3.9zm-24.1 10.6c-0.3 3.7-2.6 4.2-6.2 4.1-3.4 0.1-5.6-0.3-5.9-3.6 0-2.6 1.7-3.8 4.9-3.8h7.1v3.3zm9-12.7c0-8.6-5.9-11.9-16.8-11.9-2 0-3.9 0.1-5.6 0.3-3 0.5-3.7 1.2-3.7 4.2v0.3c0 3 0.8 3.7 3.9 3.3 2.1-0.3 4.1-0.4 6-0.4 4.8 0 7.2 0.9 7.2 4.2v2.6h-7c-9.4 0-14.1 3.6-14.1 10.8 0 7.3 4.6 10.9 15 10.9 10.5 0 15-3.7 15-11.2v-13.1z" fill="#fff"/>
 <path id="path17" class="st4" d="m225.63 114.53c0-4 1.4-5.6 6.8-5.6s6.7 1.6 6.7 5.6v17.9c0 3.2 0.8 4 4 4h1.3c3.2 0 4-0.8 4-4v-17.9c0-9.6-4.9-14.3-16-14.3-10.7 0-16.1 4.9-16.1 14.3v17.9c0 3.2 0.8 4 4 4h1.3c3.2 0 4-0.8 4-4zm-23.7-0.7c0-3.5 1.1-4.9 5.4-4.9h0.8c2.9 0.2 3.6-0.3 3.6-3.4v-0.8c0-3.3-0.8-4.5-3.6-4.5h-0.8c-9.6 0-14.7 4.4-14.7 12.8v19.3c0 3.2 0.8 4 4 4h1.3c3.2 0 4-0.8 4-4zm-38.5-0.2c0-3.6 2.3-5.4 6.9-5.4 4.7 0 7 1.8 7 5.4v1.1h-13.9zm22.6 1.9c0-10.2-5.2-15.2-15.5-15.2-10.9 0-16.4 5.3-16.4 15.9v5.6c0 10.8 5.8 15.5 18.4 15.5 3.5 0 6.3-0.3 8.6-0.9 3.1-0.8 3.7-1.5 3.7-4.6v-0.8c0-3.3-0.7-4-3.7-3.4-3.1 0.6-5.9 1-8.5 1-6.5 0-9.2-1.7-9.2-5.4v-1.1h17.9c3.3 0 4.2-0.7 4.6-3.9 0.1-0.8 0.1-1.7 0.1-2.7m-61.2-10.5c-0.8-3.1-1.6-3.9-4.8-3.9h-1.6c-3.2 0-3.7 0.8-3.1 3.9l5.2 22.4c1.6 6.8 3.4 9.9 9.2 9.9 1.3 0 2.3-0.1 2.9-0.3-0.9 4-3.5 6.4-7.7 7.3-2.9 0.6-3.5 1.4-2.7 4.4l0.1 0.4c0.6 3.3 1.4 3.7 4.7 3.2 7.6-1.1 12.9-5.5 15.2-16l7.2-31.4c0.6-3.1 0.1-3.9-3.1-3.9h-1.6c-3.2 0-4 0.8-4.8 3.9l-4.7 21.3c-0.6 2.3-1.3 3-2.6 3-2 0-2.8-0.4-3.3-3zm-24 20.4c-0.4 3.8-2.7 4.2-6.3 4.2-3.5 0.1-5.7-0.3-6-3.7 0-2.6 1.7-3.9 5-3.9h7.3zm9.2-13c0-8.8-6-12.1-17.1-12.1-2 0-4 0.1-5.7 0.4-3 0.5-3.8 1.3-3.8 4.3v0.3c0 3.1 0.8 3.8 4 3.3 2.1-0.3 4.2-0.4 6.1-0.4 4.9 0 7.3 0.9 7.3 4.3v2.7h-7.1c-9.5 0-14.3 3.7-14.3 11 0 7.4 4.7 11.2 15.3 11.2 10.7 0 15.3-3.7 15.3-11.4zm-45 9.2c0 5-1.4 7-7.6 7-6 0-7.7-2.1-7.7-7v-5.6c0-4.9 1.7-7 7.7-7s7.6 2.1 7.6 7zm-24.5 0.2c0 10.5 6.7 15.5 16.8 15.5 11.2 0 16.9-5.2 16.9-15.5v-5.6c0-10.2-5.2-15.9-14.8-15.9-4.4 0-7.7 1.3-9.7 4v-13.3c0-3.2-0.8-4-4-4h-1.3c-3.2 0-4 0.8-4 4v30.8z" fill="#004898"/>
</svg>
