<svg version="1.0" viewBox="0 0 566.93 140.31" xmlns="http://www.w3.org/2000/svg">
 <path d="m459.15 112.62c-7.0541 0-12.013 5.646-12.013 13.848 0 8.5089 4.6248 13.848 11.679 13.848 6.2332 0 10.845-3.9241 10.845-10.845v-3.5037h-9.6768v5.0053h4.3379c-0.31393 2.3425-1.6484 4.1711-5.3389 4.171-4.0509 0-6.34-3.7105-6.34-8.6758 0-5.0119 2.2958-8.5089 6.34-8.5089 2.9298 0 4.171 1.5016 5.1721 3.5037l5.1721-2.169c-1.7685-4.1577-4.6716-6.6737-10.177-6.6737zm-291.97 0.33369v27.028h12.179c5.7727 5e-5 9.6768-3.0032 9.6768-8.6758-1e-4 -2.9632-1.6751-5.052-3.8374-6.0063 1.7752-1.0811 2.8363-2.8563 2.8363-5.1721 1.6e-4 -4.6181-3.2701-7.1742-8.5089-7.1742zm27.362 0v27.028h5.3389v-9.6768h5.5058l4.8384 9.6768h6.1732l-5.1721-10.511c3.4303-1.3414 5.1721-3.9575 5.1721-8.0084 6e-5 -5.7394-4.2645-8.5089-9.3432-8.5089zm35.037 0-10.344 27.028h5.8395l2.1689-6.0063h9.8437l2.169 6.0063h5.8395l-10.177-27.028zm21.356 0v27.028h5.3389v-11.846c0-1.4949-0.16657-5.0053-0.16657-6.0063 0.34009 0.70073 1.1879 2.1689 1.8353 3.17l10.011 14.682h4.8384v-27.028h-5.339v17.351c-0.34703-0.69406-1.1745-2.0022-1.8353-3.0032l-9.51-14.348zm29.531 0v27.028h8.0084c6.9338 5e-5 13.848-4.0376 13.848-13.514 5e-5 -9.857-5.8194-13.514-13.514-13.514zm28.029 0v27.028h19.187v-5.3389h-13.848v-6.5068h7.6747v-5.1721h-7.6747v-4.6716h13.347v-5.3389zm25.026 0v27.028h5.339v-11.846c0-1.4949-0.16711-5.0053-0.16658-6.0063 0.34703 0.70073 1.1814 2.1689 1.8353 3.17l10.011 14.682h4.8384v-27.028h-5.3389v17.351c-0.34703-0.69406-1.1747-2.0022-1.8353-3.0032l-9.51-14.348zm29.531 0v27.028h12.179c5.7726 5e-5 9.6768-3.0032 9.6768-8.6758 1.1e-4 -2.9632-1.6818-5.052-3.8374-6.0063 1.7684-1.0811 2.8363-2.8563 2.8363-5.1721 0-4.6181-3.2768-7.1742-8.509-7.1742zm27.863 0v15.183c0 7.8549 4.3512 12.179 10.845 12.179 6.8672 0 11.012-4.5248 11.012-12.346v-15.016h-5.3389v15.183c0 4.3112-2.2357 7.0074-5.6726 7.0074-3.4236 0-5.5057-2.8564-5.5058-7.1742v-15.016zm29.364 0v27.028h5.339v-9.6768h5.5058l4.8384 9.6768h6.1732l-5.1721-10.511c3.4236-1.3414 5.1721-3.9575 5.1721-8.0084 5e-5 -5.7394-4.2645-8.5089-9.3432-8.5089zm-247.76 5.0053h6.8405c2.3559 5e-5 3.17 0.80084 3.17 2.5026-6e-5 1.5015-0.77415 2.6695-3.0032 2.6695h-7.0074zm195.71 0h6.8405c2.3426 5e-5 3.3368 0.80084 3.3368 2.5026 0 1.5015-0.77415 2.6695-3.0032 2.6695h-7.1742zm-168.34 0.33368h7.0074c2.3893-5e-5 3.8374 0.90762 3.8374 3.3368 1.1e-4 2.3491-1.3347 3.5037-3.8374 3.5037h-7.0074zm85.924 0h2.8363c5.686-5e-5 8.0084 2.6695 8.0084 8.1753-6e-5 4.9319-2.5093 8.1753-8.1753 8.1753h-2.6695zm139.81 0h7.0074c2.3958-5e-5 4.0042 0.90762 4.0042 3.3368 1.1e-4 2.3491-1.4949 3.5037-4.0042 3.5037h-7.0074zm-193.54 1.5016c0.26695 1.001 0.79417 2.5894 1.3347 4.171l1.8353 4.8384h-6.1732l1.6684-4.8384c0.54056-1.5816 1.0678-3.17 1.3347-4.171zm-59.563 8.0084h7.0074c2.616 0 4.0042 1.1946 4.0042 3.5037-6e-5 2.1156-1.3881 3.5037-4.0042 3.5037h-7.0074zm195.71 0h7.1742c2.6228 0 3.8374 1.1946 3.8374 3.5037 1.1e-4 2.1156-1.2146 3.5037-3.8374 3.5037h-7.1742z" fill="#524537"/>
 <path d="m503.7 1.6824e-5v30.198c-1.6e-4 5.3e-5 7.6681 0.83421 14.182 0.83421 11.879 0 14.849-2.5026 14.849-2.5026-6e-5 -5.3e-5 1.1679-1.5817 1.1679-8.1753-1.6e-4 -6.4001-1.1679-7.8416-1.1679-7.8416 0-5.3e-5 -5.3656-2.8363-16.351-2.8363-2.3692 0.021356-5.032 0.11372-7.8416 0.50026v-10.177zm33.035 0v30.198c0 5.3e-5 7.668 0.83421 14.182 0.83421 11.879 0 15.016-2.5026 15.016-2.5026-1.1e-4 -5.3e-5 1.001-1.5817 1.001-8.1753 1e-4 -6.4001-1.1679-7.8416-1.1679-7.8416-5e-5 -5.3e-5 -5.3656-2.8363-16.351-2.8363-2.3625 0.021356-5.032 0.11372-7.8416 0.50026v-10.177zm-383.4 9.0095v57.227c-1.6e-4 14.775 4.6382 29.364 28.864 29.364 0.032-5.3e-5 5.6726 0 5.6726 0v-13.181c-13.154 5.3e-5 -18.019-5.3923-18.019-17.685v-19.02h10.845v-13.848c-8.015 5.3e-5 -10.845-2.3692-10.845-8.8426v-14.015zm347.2 0.66737c-18.353 0.10037-25.527 4.5047-25.527 4.5047v16.517h4.8384v-13.347c2.3025-0.7742 8.6758-2.6761 20.688-2.8363zm15.016 4.6716c6.4812-0.1228 11.063 1.0027 13.181 1.6684 0.12012 1.0477 0.33368 2.8964 0.33368 4.6716-5e-5 1.7552-0.0481 3.457-0.16657 4.5047-1.5216 0.41377-4.9986 1.1612-11.012 1.1679-2.6426 0.0053-5.6726-0.18686-9.3432-0.50026v-10.845c2.541-0.38227 4.847-0.62647 7.0074-0.66737zm33.035 0c6.479-0.1228 11.22 1.0027 13.347 1.6684 0.11318 1.0477 0.33368 2.8964 0.33368 4.6716-5e-5 1.7552-0.21356 3.457-0.33368 4.5047-1.5218 0.41377-4.9986 1.1612-11.012 1.1679-2.636 0.0053-5.6793-0.18686-9.3432-0.50026v-10.845c2.5426-0.38227 4.8477-0.62647 7.0074-0.66737zm-515.71 14.182c-14.108 0.2269-32.868 7.4812-32.868 31.366v35.704h16.351v-22.19h40.042v22.19h16.351v-35.704c1.06e-4 -23.885-18.76-31.139-32.868-31.366v15.85c10.344 0 16.517 4.5248 16.517 15.516v0.16658h-40.042v-0.16658c-1.07e-4 -10.991 6.1665-15.516 16.517-15.516zm79.917 0c-14.202 0-33.035 7.0874-33.035 31.366v35.704h16.351v-35.704c1.07e-4 -10.991 6.3333-15.516 16.684-15.516 10.344 0 16.851 4.5248 16.851 15.516v35.704h16.184v-35.704c6e-5 -24.279-18.833-31.366-33.035-31.366zm179.86 0c-14.202 0-33.035 7.0874-33.035 31.366v35.704h16.351v-35.704c1.1e-4 -10.991 6.3333-15.516 16.684-15.516 10.338 0 16.851 4.5248 16.851 15.516v35.704h16.184v-35.704c-1.1e-4 -24.279-18.84-31.366-33.035-31.366zm72.576 0c-14.202 0-33.035 7.0874-33.035 31.366v35.704h16.351v-35.704c-1e-4 -10.991 6.34-15.516 16.684-15.516s16.851 4.5248 16.851 15.516v35.704h16.184v-35.704c-1.6e-4 -24.279-18.833-31.366-33.035-31.366zm-144.15 0.16658c-5.9528-5.3e-5 -12.84 1.2013-18.686 4.171-9.0028 5.3522-14.348 13.488-14.348 29.197-1e-4 5.152 1.1612 11.692 3.0032 16.017l0.50026 1.1679c2.5428 5.2989 6.627 10.091 12.68 13.014 4.0642 1.9621 8.9761 3.0032 15.016 3.0032h31.366v-12.847h-27.362c-6e-5 -5.3e-5 -3.6705-0.08649-4.6716-0.16658-12.186-1.2079-14.589-8.262-14.682-13.347h50.053v-12.013c0-16.397-12.526-28.196-32.868-28.196zm215.73 0.16658c-5.9596 0-12.84 1.2013-18.686 4.171-9.0028 5.3523-14.348 13.654-14.348 29.364 5e-5 5.1521 1.1612 11.532 3.0032 15.85l0.50026 1.3347c2.5428 5.2988 6.627 9.9171 12.68 12.847 4.0642 1.9621 8.9761 3.17 15.016 3.17h31.366v-13.014h-27.362c-5e-5 0-3.6705 0.08008-4.6716 0-12.186-1.2147-14.589-8.4289-14.682-13.514h50.053v-11.846c0-16.397-12.533-28.363-32.868-28.363zm-218.23 14.182c0.67404-0.04805 1.3281 0.02669 2.6695 0 2.3225-0.05339 4.1644 0.10037 6.0063 0.50026 7.688 1.6751 10.838 6.2666 11.012 13.014h-34.536c0.12707-6.8673 4.765-11.746 12.179-13.014 1.2813-0.21676 1.9954-0.45274 2.6695-0.50026zm218.4 0.16658c2.3225-0.05339 4.1644 0.10037 6.0063 0.50026 7.688 1.675 10.838 6.4268 11.012 13.181h-34.536c0.13348-6.8739 4.765-11.913 12.179-13.181 2.5626-0.43352 2.6561-0.44687 5.339-0.50026z" fill="#b5121b"/>
</svg>
