<svg width="800" height="440.71" clip-rule="evenodd" fill-rule="evenodd" stroke-miterlimit="10" version="1.1" viewBox="0 0 800 440.71" xml:space="preserve" xmlns="http://www.w3.org/2000/svg"><link rel="stylesheet" type="text/css"/><link rel="stylesheet" type="text/css"/><style lang="en" type="text/css"/><style lang="en" type="text/css"/>
    <path d="m795.21 402.55v-364.38c-85.632-13.798-236.04-33.385-399.25-33.385-161.88 0-307.67 19.285-391.16 33.063v364.6c85.572 13.798 236.14 33.466 399.56 33.466 157.57 0 305.86-19.567 390.86-33.365" fill="#ff9800" fill-rule="nonzero" stroke-width="2.0172"/><path d="m796.06 220.45v-184.58l-200.72-20.172-202.73-10.086-192.65 8.069-194.66 22.19v184.58z" fill="#004895" fill-rule="nonzero" stroke-width="2.0172"/><path d="m395.94 4.375e-6c-162.24 0-308.25 19.32-391.92 33.127l-4.0117 0.66211v372.74l4.0273 0.65039c85.737 13.825 236.52 33.527 400.32 33.527 157.96 0 306.46-19.603 391.63-33.428l4.0234-0.6543v-372.53l-4.0293-0.64844c-85.799-13.825-236.42-33.447-400.04-33.447zm0 9.582c160.51 0 308.42 18.971 394.48 32.703v356.16c-85.41 13.731-231.18 32.68-386.07 32.68-160.68 0-308.76-19.051-394.77-32.785v-356.39c83.887-13.701 227.25-32.367 386.35-32.367z" clip-rule="nonzero" color="#000000" fill="#fff" fill-rule="nonzero" style="-inkscape-stroke:none"/><path d="m140.35 116.61c0-23.824-16.34-33.063-46.397-33.063-5.2065 0.0061-10.407 0.32881-15.573 0.96828-8.2707 1.3516-10.369 3.4697-10.369 11.72v0.76655c0 8.4523 2.2997 10.389 10.752 9.0373 5.5434-0.75041 11.129-1.1357 16.723-1.1498 13.253 0 19.991 2.5014 19.991 11.72v7.3024h-19.426c-25.942 0-38.993 9.9854-38.993 29.976s12.668 30.259 41.697 30.259c29.028 0 41.697-10.086 41.697-30.945zm-24.974 35.443c-0.96828 10.369-7.3024 11.518-17.106 11.337-9.4205 0.18155-15.573-0.78673-16.34-10.086 0-7.1007 4.6195-10.57 13.637-10.57h19.809zm67.053-29.593c0-10.772 3.8529-15.19 18.639-15.19 14.786 0 18.155 4.4178 18.155 15.19v48.797c0 8.654 2.1181 10.772 10.752 10.772h3.6512c8.654 0 10.772-2.1181 10.772-10.772v-48.878c0-26.224-13.455-38.832-43.431-38.832-29.028 0-43.815 13.455-43.815 38.832v48.797c0 8.654 2.0172 10.772 10.752 10.772h3.6512c8.654 0 10.772-2.1181 10.772-10.772zm70.604-22.492c0 7.6857 2.0172 9.6021 9.6223 9.6021h7.6857v37.864c0 24.409 12.285 36.694 37.077 36.694 4.5126 0.10288 9.0252-0.28242 13.455-1.1498 8.2707-1.7348 10.57-4.9826 10.57-13.637v-2.0172c0-8.4523-1.9164-9.4206-10.57-7.8673-4.4359 0.82102-8.9425 1.2063-13.455 1.1498-8.069 0-12.103-4.2362-12.103-12.87v-38.247h21.907c8.654 0 10.752-2.0172 10.752-10.752v-2.1181c0-8.6338-2.0172-10.752-10.752-10.752h-21.806v-14.988c0-8.2707-1.7348-10.086-10.086-10.086h-1.1498c-8.2707 0-10.57 2.0172-11.539 9.8038l-2.2997 15.19-7.8874 1.7147c-7.484 1.5533-9.4205 3.8529-9.4205 11.539zm175.5 25.175c0-27.677-14.026-41.515-42.08-41.515-29.775 0-44.763 14.423-44.763 43.25v15.371c0 29.391 15.755 42.08 50.149 42.08 7.8895 0.19971 15.771-0.64148 23.44-2.5014 8.4523-2.1181 10.086-4.0345 10.086-12.487v-2.0172c0-9.0373-2.0172-10.954-10.086-9.2188-7.6434 1.6743-15.436 2.574-23.259 2.6829-17.671 0-25.175-4.5993-25.175-14.605v-2.8847h48.817c9.0373 0 11.539-1.9164 12.487-10.55 0.20173-2.3198 0.38328-4.8212 0.38328-7.5042zm-61.687-5.0835c0-9.8038 6.3543-14.605 18.841-14.605s19.023 4.801 19.023 14.605v2.8847h-37.823zm103.77 2.5014c0-10.772 3.8529-15.19 18.639-15.19 14.786 0 18.155 4.4178 18.155 15.19v48.797c0 8.654 2.1181 10.772 10.772 10.772h3.6512c8.6338 0 10.752-2.1181 10.752-10.772v-48.979c0-26.224-13.455-38.832-43.431-38.832-29.008 0-43.815 13.455-43.815 38.832v48.797c0 8.654 2.1181 10.772 10.772 10.772h3.6512c8.654 0 10.752-2.1181 10.752-10.772zm106.07 0c0-10.772 3.8529-15.19 18.66-15.19 14.807 0 18.155 4.4178 18.155 15.19v48.797c0 8.654 2.0172 10.772 10.772 10.772h3.6512c8.6338 0 10.752-2.1181 10.752-10.772v-48.979c0-26.224-13.455-38.832-43.411-38.832-29.028 0-43.815 13.455-43.815 38.832v48.797c0 8.654 2.0172 10.772 10.752 10.772h3.6512c8.654 0 10.752-2.1181 10.752-10.772zm165.84 2.6829c0-27.677-14.026-41.515-42.08-41.515-29.795 0-44.783 14.423-44.783 43.25v15.371c0 29.391 15.775 42.08 50.169 42.08 7.8894 0.19567 15.771-0.64351 23.44-2.5014 8.4523-2.1181 10.086-4.0345 10.086-12.487v-2.0172c0-9.0373-2.0172-10.954-10.086-9.2188-7.6434 1.6743-15.436 2.574-23.259 2.6829-17.671 0-25.175-4.5993-25.175-14.605v-2.8847h48.797c9.0373 0 11.518-1.9164 12.487-10.55 0.20172-2.3198 0.38328-4.8212 0.38328-7.5042zm-61.708-5.0835c0-9.8038 6.3543-14.605 18.841-14.605s19.023 4.801 19.023 14.605v2.8847h-37.803z" fill="#fff" fill-rule="nonzero" stroke-width="2.0172"/><g fill="#004895" fill-rule="nonzero" stroke-width="2.0172"><path d="m302.42 376.27h4.1959c9.4609 0 11.498-2.0172 11.498-11.498v-56.14c0-29.855-15.593-43.754-49.08-43.754-32.397 0-49.503 15.129-49.503 43.754v56.14c0 9.4609 2.0172 11.498 11.498 11.498h4.1959c9.4609 0 11.498-2.0172 11.498-11.498v-56.14c0-11.619 3.6512-18.337 22.311-18.337s21.887 6.4552 21.887 18.337v56.14c0 9.4609 2.0172 11.498 11.498 11.498"/><path d="m389.06 264.87h-2.3602c-29.492 0-45.085 13.596-45.085 39.336v60.517c0 9.4609 2.0172 11.498 11.498 11.498h4.1959c9.4609 0 11.498-2.0172 11.498-11.498v-58.298c0-10.227 2.925-16.138 17.893-16.138h2.4409c4.1959 0.32276 7.0402 0.2219 8.5128-1.17s1.876-3.7117 1.876-8.5531v-2.4409c0-10.086-2.5216-13.253-10.389-13.253"/><path d="m574.97 267.54h-12.507c-7.6655 0-9.0373 7.4235-10.913 17.732-0.36311 1.8962-0.72621 3.9135-1.1498 5.9509l-12.103 59.368c-0.90776 3.8933-2.219 5.3457-4.8414 5.3457-4.559 0-5.3054-4.0345-5.4466-7.1612l-6.7578-55.918c-0.9481-7.9278-2.9048-24.429-24.51-25.296h-0.2219c-21.786 0.76655-23.824 17.954-24.691 25.296v0.34294l-6.6367 55.636c-0.14121 3.0057-0.88759 7.1007-5.4466 7.1007-2.6224 0-4.0345-1.4524-4.8414-5.3255l-12.103-59.388c-0.42362-2.0172-0.78673-4.0345-1.1498-6.0517-1.876-10.288-3.2478-17.711-10.913-17.711h-12.507c-0.75244-0.0645-1.5089 0.0484-2.2089 0.32881-0.69998 0.2804-1.3253 0.72016-1.8256 1.285-2.9048 3.5907-0.92793 12.588 0.96828 21.262 0.32276 1.4928 0.64552 2.9855 0.94811 4.438l11.599 56.987c4.9221 19.527 14.484 27.152 34.091 27.152 16.642 0 27.314-11.801 29.21-33.244 2.0172-21.887 5.5273-52.448 5.5273-52.448s3.7521 32.074 5.5878 52.953c1.8962 21.423 12.507 32.821 29.149 32.821 19.608 0 29.169-7.6252 34.112-27.192l11.72-56.886c0.30259-1.4524 0.62535-2.9452 0.94811-4.438 1.8962-8.6943 3.8731-17.671 0.96828-21.262-0.50028-0.56483-1.1256-1.0046-1.8256-1.285-0.69999-0.2804-1.4564-0.39337-2.2089-0.32881"/></g>
</svg>
