<svg width="800" height="328.72" version="1.1" viewBox="0 0 800 328.72" xmlns="http://www.w3.org/2000/svg">
 <path d="m658.82 0.0092751h-517.65c-77.969 0-141.17 63.258-141.17 141.28 0 78.029 63.208 141.28 141.17 141.28h554.46c39.739-0.0485 77.644 16.711 104.37 46.14v-187.42c0-37.472-14.869-73.413-41.347-99.915-26.478-26.499-62.39-41.381-99.835-41.381z" fill="#d21423" stroke-width="6.6221"/>
 <g transform="translate(-.11282 268.83)" fill="#fff">
  <polygon transform="matrix(6.6221 0 0 -6.6221 .053225 60.055)" points="13.915 20.684 16.56 16.399 16.499 20.684 18.164 20.684 18.164 13.868 16.652 13.868 14.018 18.016 14.079 13.868 12.414 13.868 12.414 20.684"/>
  <polygon transform="matrix(6.6221 0 0 -6.6221 .053225 60.055)" points="21.258 13.867 21.258 20.684 22.993 20.684 22.993 13.867"/>
  <polygon transform="matrix(6.6221 0 0 -6.6221 .053225 60.055)" points="26.089 13.861 26.089 20.684 29.876 20.684 29.876 19.151 27.752 19.151 27.752 18.093 29.804 18.093 29.804 16.559 27.752 16.559 27.752 15.394 29.876 15.394 29.876 13.861"/>
  <path d="m217.38-76.918h15.22c8.8624 0 13.666 1.6878 18.055 6.4219 3.8638 4.2943 5.9222 9.9173 5.7444 15.692 0 14.008-8.3114 23.011-21.235 23.011h-17.784v-45.125zm16.412 34.987c7.179 0 11.087-4.3315 11.087-12.245 0-7.9128-4.0018-12.588-11.027-12.588h-4.9977v24.833h4.9377z" stroke-width="6.6221"/>
  <polygon transform="matrix(6.6221 0 0 -6.6221 .053225 60.055)" points="41.518 13.861 41.518 20.684 45.299 20.684 45.299 19.151 43.175 19.151 43.175 18.093 45.227 18.093 45.227 16.559 43.175 16.559 43.175 15.394 45.299 15.394 45.299 13.861"/>
  <path d="m319.54-76.918h14.265c7.4605 0 10.817 0.74731 13.859 3.2567 3.5785 3.0834 5.6103 7.5936 5.5513 12.317 0 7.4671-4.3842 13.067-11.218 14.216l12.232 15.366h-13.171l-10.445-14.618v14.618h-11.028v-45.154h-0.0437zm15.085 22.668c4.7304 0 7.5804-2.3761 7.5804-6.2877 0-3.9126-2.5673-6.2259-7.4612-6.2259h-4.1911v12.514h4.0721z" stroke-width="6.6221"/>
  <path d="m389.48-63.792c-0.40144-3.1053-1.6238-4.4066-4.1321-4.4066-2.0546-0.10854-3.8115 1.4689-3.9238 3.5252 0 1.4946 0.88081 2.7779 2.9098 3.9269 0.2968 0.20085 0.61639 0.36077 0.95504 0.47977l1.8206 0.88054 1.8206 0.80346 1.8948 0.80724c7.3678 3.4509 10.445 7.1691 10.445 12.799 0 8.8697-5.8195 14.079-15.759 14.079-9.9352 0-16.412-5.5519-16.412-14.35v-1.4908h11.564c0 3.7184 1.8206 6.0907 4.7295 6.0907 1.1595 0.04106 2.2896-0.38653 3.1286-1.1862 0.84372-0.80346 1.3308-1.9078 1.3488-3.0682 0-2.1086-1.4934-3.6584-4.8036-5.0055-7.0307-2.774-8.2525-3.3871-10.623-5.2834-2.8023-2.2685-4.444-5.6671-4.4784-9.2743 0-7.5863 6.8936-13.44 15.755-13.44 4.6258-0.12569 9.0736 1.7782 12.177 5.2139 2.029 2.3723 2.7757 4.5961 2.983 8.8684h-11.429l0.0298 0.03046z" stroke-width="6.6221"/>
  <path d="m429.84-38.33-2.36 6.5666h-12.369l18.055-45.14h9.1326l17.903 45.14h-12.459l-2.2373-6.5666h-15.665zm12.651-9.1405-4.7447-15.425-4.7295 15.425h9.4743z" stroke-width="6.6221"/>
  <path d="m517.52-48.621c-2.4751 10.487-11.886 17.853-22.651 17.723-8.5048 0.27508-16.486-4.0792-20.863-11.383-4.3737-7.3036-4.4517-16.402-0.20449-23.776 4.25-7.3777 12.158-11.87 20.662-11.744 7.2936-0.17516 14.239 3.1158 18.727 8.8723 2.2068 2.6398 3.6974 5.8089 4.329 9.1962h-12.043c-1.5638-4.756-6.0231-7.9578-11.027-7.9128-6.7592 0-11.935 5.7489-11.935 13.201 0 7.4479 5.2802 13.439 12.101 13.439 4.8046 0 8.4571-2.5694 10.891-7.5711h12.042l-0.0298-0.04503z" stroke-width="6.6221"/>
  <polygon transform="matrix(6.6221 0 0 -6.6221 .053225 60.055)" points="80.98 13.868 80.98 20.684 82.718 20.684 82.718 18.129 84.944 18.129 84.944 20.684 86.681 20.684 86.681 13.868 84.944 13.868 84.944 16.596 82.718 16.596 82.718 13.868"/>
  <path d="m611.98-63.792c-0.40521-3.1053-1.6123-4.4066-4.1207-4.4066-2.0546-0.10854-3.8125 1.4689-3.9237 3.5252 0 1.4946 0.88081 2.7779 2.9098 3.9269 0.29296 0.20085 0.60877 0.36077 0.93981 0.47977l1.8359 0.88054 1.8206 0.80346 1.8948 0.80724c7.3718 3.4509 10.444 7.1691 10.444 12.799 0 8.8697-5.8186 14.079-15.758 14.079-9.9352 0-16.412-5.5519-16.412-14.35v-1.4908h11.563c0 3.7184 1.8206 6.0907 4.7304 6.0907 1.1633 0.04106 2.2886-0.38653 3.1323-1.1862 0.83995-0.80346 1.3269-1.9078 1.345-3.0682 0-2.1086-1.4934-3.6584-4.8046-5.0055-7.0254-2.774-8.2518-3.3871-10.623-5.2834-2.8014-2.2685-4.4403-5.6671-4.4774-9.2743 0-7.5863 6.8923-13.44 15.759-13.44 4.622-0.12569 9.0697 1.7782 12.173 5.2139 2.0318 2.3723 2.7757 4.5961 2.9868 8.8684h-11.429l0.0146 0.03046z" stroke-width="6.6221"/>
  <polygon transform="matrix(6.6221 0 0 -6.6221 .053225 60.055)" points="96.983 13.861 96.983 20.684 100.77 20.684 100.77 19.151 98.646 19.151 98.646 18.093 100.7 18.093 100.7 16.559 98.646 16.559 98.646 15.394 100.77 15.394 100.77 13.861"/>
  <polygon transform="matrix(6.6221 0 0 -6.6221 .053225 60.055)" points="105.21 20.684 107.86 16.399 107.8 20.684 109.46 20.684 109.46 13.868 107.95 13.868 105.31 18.016 105.38 13.868 103.71 13.868 103.71 20.684"/>
  <path d="m82.26-174.95v73.168h27.41v-40.108l24.887-2.9863v43.169h26.99v-100.03c-8.9511-5.0312-21.755-8.3737-38.914-8.3737-27.615 0-40.374 11.301-40.374 35.163zm52.298-13.228v25.834l-24.887 2.9863v-15.592c0-9.8398 3.9684-15.291 13.592-15.291 5.655 0 8.3717 0.56832 11.295 2.0629z" stroke-width="6.6221"/>
  <path d="m222.84-210.12c-17.159 0-29.845 3.3423-38.914 8.3737v99.915h26.99v-86.353c2.983-1.4946 5.655-2.0934 11.295-2.0934 9.6233 0 13.592 5.4367 13.592 15.291v73.168h27.41v-73.168c0-23.832-12.775-35.133-40.374-35.133z" stroke-width="6.6221"/>
  <path d="m316.55-134.08v-52.861l12.578-1.4946v-22.04l-12.578 1.4946v-25.491l-25.471 3.6137v25.116l-10.965 1.3613v21.952l10.965-1.3613v52.637c0 19.89 10.044 32.448 28.455 32.448 6.2828 0 11.935-1.6698 13.592-2.9863v-19.411c-1.8168 0.64731-3.7269 1.0005-5.655 1.0452-5.6997 0-10.921-3.5546-10.921-14.022z" stroke-width="6.6221"/>
  <path d="m387.65-210.12c-26.767 0-42.254 23.353-42.254 55.965 0 35.434 15.906 56.564 45.599 56.564 15.056 0 26.14-3.2243 33.259-8.0479l-6.0602-18.336c-4.3994 2.6141-12.128 5.6299-23.632 5.6299-13.428 0-20.503-7.8538-22.175-23.55l55.43-6.646c2.0327-38.242-11.713-61.58-40.167-61.58zm-16.947 51.32c-0.21211-19.113 6.2799-32.374 16.323-32.374 10.04 0 14.22 10.452 14.22 28.793l-30.543 3.5813z" stroke-width="6.6221"/>
  <path d="m486.38-210.12c-17.159 0-29.841 3.3423-38.914 8.3737v99.915h26.99v-86.353c2.9878-1.4946 5.655-2.0934 11.295-2.0934 9.6233 0 13.592 5.4367 13.592 15.291v73.168h27.411v-73.168c-0.0152-23.832-12.771-35.133-40.375-35.133z" stroke-width="6.6221"/>
  <path d="m588-210.12c-17.159 0-29.841 3.3423-38.91 8.3737v99.915h26.975v-86.353c2.9839-1.4946 5.6559-2.0934 11.295-2.0934 9.6246 0 13.592 5.4367 13.592 15.291v73.168h27.411v-73.168c0.0291-23.832-12.73-35.133-40.364-35.133z" stroke-width="6.6221"/>
  <path d="m690.08-210.12c-26.787 0-42.258 23.353-42.258 55.965 0 35.434 15.892 56.564 45.599 56.564 15.056 0 26.14-3.2243 33.259-8.0479l-6.0716-18.336c-4.3889 2.6141-12.132 5.6299-23.636 5.6299-13.428 0-20.503-7.8538-22.172-23.55l55.431-6.646c2.1031-38.242-11.715-61.58-40.152-61.58zm-16.951 51.32c-0.2086-19.113 6.279-32.374 16.308-32.374 10.025 0 14.22 10.452 14.22 28.793l-30.527 3.5813z" stroke-width="6.6221"/>
 </g>
</svg>
