<?xml version="1.0" encoding="UTF-8"?>
<!-- Created with Inkscape (http://www.inkscape.org/) -->
<svg id="svg11206" width="566.93" height="184.72" version="1.0" xmlns="http://www.w3.org/2000/svg" xmlns:cc="http://creativecommons.org/ns#" xmlns:dc="http://purl.org/dc/elements/1.1/" xmlns:rdf="http://www.w3.org/1999/02/22-rdf-syntax-ns#">
 <metadata id="metadata12">
  <rdf:RDF>
   <cc:Work rdf:about="">
    <dc:format>image/svg+xml</dc:format>
    <dc:type rdf:resource="http://purl.org/dc/dcmitype/StillImage"/>
    <dc:title/>
   </cc:Work>
  </rdf:RDF>
 </metadata>
 <g id="layer1" transform="translate(-17.717 -17.711)">
  <g id="g11218" transform="translate(421.18 -402.29)" fill-rule="evenodd">
   <path id="_47579232" d="m146.17 493.92h-318.86l13.787-70.248 0.74197-3.6694h-209.06l-0.48082 2.4711-35.119 178.98-0.64134 3.2691h209.05l0.41917-2.0891 2.4899-12.678h337.68c9.5209 0 17.291-7.3634 17.291-16.387l1e-3 -63.268c0-9.0439-7.773-16.385-17.292-16.385z" fill="#fff"/>
   <polygon id="_47193512" transform="matrix(3.5433e-5 0 0 3.5433e-5 -421.18 402.28)" points="6254760 5551280 7212150 673450 1666030 673450 708680 5551280" fill="#e52165"/>
   <path id="_47379816" d="m-173.88 500.13-16.409 83.603h242.24v-83.603zm320.05 0h-88.218v83.603h88.218c6.1097 0 11.074-4.5592 11.074-10.166v-63.268c0-5.6076-4.966-10.168-11.074-10.169z" fill="#003d7f"/>
   <path id="_46931632" d="m127.13 541.88c6.5087-2.2539 11.181-7.4558 11.181-15.19 1e-3 -1.9382-0.9776-6.643-4.54-9.6708-2.3435-1.9942-5.7402-4.3568-16.683-4.6315-2.2716-0.0574-9.1552 0.20374-9.1552 0.20374v0.38693c1.9566 1.4935 4.039 3.9508 5.0542 6.7713 1.0368-0.0213 2.6224-0.10842 4.1719-0.0188 4.4142 0.22111 6.312 1.0527 8.3062 2.6022 1.9952 1.5683 3.0614 4.2668 3.0426 6.6816 0 3.3187-1.5832 6.7755-6.3829 8.7307-3.892 1.5856-8.5794 1.9364-8.5794 1.9364v1.2203s2.8017 1.327 5.6076 5.0542c2.4389 3.1943 16.48 23.883 16.48 23.883l11.609-1e-3s-18.748-26.13-20.111-27.958zm-37.174 19.983s-5.4429 1e-3 -6.4967 1e-3v-42.185c0.09496 0 2.9193-0.0376 4.6726-0.0376 7.2709 0 11.291 3.746 11.405 8.9157 0.07087 3.1178-0.85039 6.1228-4.0447 8.3381-2.6167 1.7904-6.2369 2.3435-6.2369 2.3435v1.3447s5.0372 0.76216 7.583 1.9619c4.7448 2.21 6.1657 5.665 6.2033 10.13 0.0578 7.0285-6.755 9.1885-13.086 9.1874zm11.609-22.899c4.488-2.6408 7.346-6.5154 7.346-12.312 1e-3 -6.182-3.6709-14.358-19.044-14.358-7.437-1e-3 -15.706 0.27851-15.706 0.27851v57.266h13.121c16.683 0 25.485-6.1448 25.485-17.772 0-6.9226-4.3381-11.495-11.202-13.102zm-85.945 24.468h-8.2687l9.7097-48.334h8.2672zm-16.276 0h-8.2683l9.6853-48.334h8.2874zm-20.969-27.351c-4.2991 0-7.0685 3.971-8.3062 8.2697 7.6259-0.25689 11.609-1.8429 11.646-5.349 0.01843-1.8656-1.2189-2.9193-3.3403-2.9207zm-9.2824 13.899c-0.07228 0.73949-0.22358 1.8645-0.23846 2.5877-0.01878 3.7644 1.4184 4.8894 5.9772 4.8894 3.1755-1e-3 6.5718-0.72319 9.6332-1.974l-0.06945 6.4942c-3.6578 1.3847-7.9767 2.104-12.332 2.104-8.3583-3e-3 -11.627-3.8356-11.533-11.108 0.12862-13.769 8.5617-23.108 18.842-23.108 8.1415 0 10.612 4.0394 10.555 8.0075-0.0698 7.8789-7.9324 11.723-20.834 12.107zm-13.952-2.2525c-0.90248 4.5039-2.306 11.724-3.0104 15.707l-8.0784-1e-3c0.36815-1.9899 1.181-5.0354 3.0224-10.204l-0.12579-0.0723c-3.0483 5.9046-7.6592 11.001-13.934 11.001-6.3694-1e-3 -8.2538-4.5039-6.9977-10.928l4.6166-22.699h8.2874l-4.1907 20.651c-0.77528 4.0217-0.20374 5.6852 1.9176 5.6852 4.4504 0 10.503-10.319 12.033-18.015l1.6781-8.3222h8.2672zm-39.422-10.669h7.7528l1.4035-6.5289h-7.824l2.3815-11.867-8.6411 1.733-2.0087 10.134-12.884-0.0376-13.05 13.469 5.7976-28.862h-8.2687l-9.7271 48.334h8.286l3.3403-16.498 6.7939 16.498h9.9843l-8.5472-17.749 8.3622-8.6436 8.5645 0.0188-3.1404 15.763c-1.5831 7.8977 0.35362 11.259 7.4409 11.259 2.0463-3e-3 4.5723-0.33095 6.7511-0.8504l0.86917-6.7716c-1.1998 0.2746-2.4576 0.47834-4.0968 0.47834-2.7106-3e-3 -3.2503-1.0676-2.475-5.0372zm-59.663-0.51555c-7.6256 0-11.221 8.8806-11.296 15.764-0.0376 3.2439 0.81283 4.5592 2.4708 4.5592 4.6928 0 10.706-10.777 12.11-17.736l0.42591-2.1214c-1.0726-0.26114-2.2553-0.46347-3.7098-0.46595zm6.789 26.889h-8.1911c0.60803-2.5806 1.6381-5.9046 3.2063-10.459h-0.12721c-2.6933 4.8118-7.3474 11.184-13.882 11.184-5.0343-1e-3 -7.7099-3.2517-7.639-10.263 0.13252-12.46 6.9212-23.973 21.356-23.973 3.9869-1e-3 7.9512 0.2746 11.646 0.99637-3.0657 15.298-4.8763 23.827-6.3694 32.514zm-115.77-23.44c-0.47693 6.1097 3.2503 10.874 10.243 10.874 11.094-1e-3 17.201-11.018 19.082-19.915 1.7716-8.3023 0.1846-19.985-9.3026-19.985-6.6976 0-12.232 3.3403-15.317 9.596l-21.02-0.5733 14.065-60.181h62.877l-4.0404 18.953h-42.688l-6.0371 22.864c6.2554-4.224 12.237-5.5325 19.229-5.5325 18.072-1e-3 28.537 12.956 23.736 36.617-4.2977 21.259-23.089 33.715-43.924 33.715-17.642-1e-3 -31.726-7.0296-28.475-26.43zm-64.207-37.905c9.4674 0 15.557-3.9295 17.348-12.381 1.8106-8.455-2.6036-12.403-12.086-12.403h-15.798l-5.2593 24.784zm-7.824 45.492c8.1025 0 17.234-2.6717 19.063-13.987 1.8096-11.278-7.2532-14.008-14.949-14.008l-15.445-1e-3 -5.6516 27.997zm-42.891 17.496 21.317-105.27h37.646c21.242-0.0188 35.954 6.9548 32.259 27.275-2.1015 11.57-12.161 19.526-23.401 23.033l-0.0709 0.29729c12.677 2.767 20.651 11.94 17.368 27.388-4.4504 20.852-28.055 27.275-46.4 27.275z" fill="#fff"/>
  </g>
 </g>
</svg>
