<?xml version="1.0" encoding="UTF-8"?>
<!-- Created with Inkscape (http://www.inkscape.org/) -->
<svg id="svg4497" width="566.93" height="214.38" version="1.0" xmlns="http://www.w3.org/2000/svg" xmlns:cc="http://creativecommons.org/ns#" xmlns:dc="http://purl.org/dc/elements/1.1/" xmlns:rdf="http://www.w3.org/1999/02/22-rdf-syntax-ns#">
 <metadata id="metadata12">
  <rdf:RDF>
   <cc:Work rdf:about="">
    <dc:format>image/svg+xml</dc:format>
    <dc:type rdf:resource="http://purl.org/dc/dcmitype/StillImage"/>
    <dc:title/>
   </cc:Work>
  </rdf:RDF>
 </metadata>
 <g id="layer1" transform="translate(-518.46 -18.718)">
  <g id="g4567" transform="matrix(9.2392 0 0 9.2392 -4108 -1757)">
   <path id="path687" d="m559.94 201.46h-30.255l1.7288-8.8075 0.0888-0.46h-26.201l-0.0625 0.3125-4.4012 22.432-0.09 0.45875h26.202l0.06-0.31 0.3125-1.5912h32.618c1.195 0 2.1688-0.92125 2.1688-2.0538v-7.93c0-1.1312-0.97375-2.0512-2.1688-2.0512" fill="#fff"/>
   <path id="path691" d="m529.53 202.22-2.0625 10.5h20.656v-10.5zm19.344 0v10.5h11.062c0.76627 0 1.4062-0.57875 1.4062-1.2812v-7.9375c-3e-5 -0.70126-0.64-1.2812-1.4062-1.2812z" fill="#003c7f"/>
   <path id="path699" d="m505.94 192.96-4.2512 21.662h24.632l4.25-21.662z" fill="#e30061"/>
   <path id="path703" d="m507.91 197.19-2.6875 13.188h4.8438c2.2962 0 5.2863-0.79375 5.8438-3.4062 0.41-1.9388-0.59877-3.09-2.1875-3.4375v-0.03125c1.41-0.44 2.6762-1.455 2.9375-2.9062 0.46125-2.5475-1.37-3.4088-4.0312-3.4062zm11.438 0-1.75 7.5312 2.625 0.0625c0.38625-0.78375 1.065-1.1875 1.9062-1.1875 1.1875 0 1.4088 1.4562 1.1875 2.5-0.23875 1.1138-1.0187 2.5-2.4062 2.5-0.87875 0-1.3412-0.60999-1.2812-1.375h-2.7188c-0.40625 2.4312 1.3825 3.3125 3.5938 3.3125 2.6138 0 4.9588-1.5538 5.5-4.2188 0.6-2.9662-0.70248-4.5938-2.9688-4.5938-0.875 0-1.62 0.15876-2.4062 0.6875l0.75-2.8438h5.3438l0.5-2.375zm-9.0938 2.1875h2c1.185 0 1.7237 0.505 1.5 1.5625-0.225 1.0612-0.96876 1.5313-2.1562 1.5312h-2zm42.625 4.375c-0.9325 0-1.9688 0.0312-1.9688 0.0312v7.1875h1.6562c2.0925-1e-5 3.1875-0.76125 3.1875-2.2188 0-0.87-0.55-1.4562-1.4062-1.6562 0.55997-0.33 0.9375-0.805 0.9375-1.5312 2e-5 -0.775-0.48-1.8125-2.4062-1.8125zm2.2812 0.0312v0.0625c0.24249 0.18625 0.4975 0.485 0.625 0.84375 0.13124-5e-3 0.33625-0.0112 0.53125 0 0.55124 0.0275 0.78375 0.14875 1.0312 0.34375 0.25124 0.19625 0.3775 0.50625 0.375 0.8125-1e-3 0.41501-0.18 0.8475-0.78125 1.0938-0.48747 0.19999-1.0938 0.25-1.0938 0.25v0.15625c-2e-5 1e-5 0.36625 0.15875 0.71875 0.625 0.30249 0.4025 2.0625 3 2.0625 3h1.4375s-2.3275-3.2725-2.5-3.5c0.81878-0.28374 1.4062-0.9375 1.4062-1.9062 3e-5 -0.24124-0.15-0.8375-0.59375-1.2188-0.29375-0.25-0.72-0.53-2.0938-0.5625-0.28375-9e-3 -1.125 0-1.125 0zm-18.562 0.0312-1.2812 6.1876h1.0625l1.2812-6.1875zm-27.406 0.84375h1.9375c0.965 0 2.1037 0.37 1.875 1.7812-0.2275 1.42-1.39 1.75-2.4062 1.75h-2.125zm42.906 0.0312h0.5625c0.91125 0 1.4238 0.44875 1.4375 1.0938 9e-3 0.39375-0.1 0.785-0.5 1.0625-0.32624 0.2275-0.78125 0.28125-0.78125 0.28125v0.1875c1e-5 0 0.61875 0.10125 0.9375 0.25 0.59622 0.27874 0.77625 0.69 0.78125 1.25 4e-3 0.88125-0.83125 1.1562-1.625 1.1562h-0.8125zm-18.344 1.0314c-0.62135 0.125-1.1248 0.68-1.5 1.4062h-0.0312c0.22125-0.65125 0.33251-0.98249 0.40625-1.3125h-1.0312c-0.0937 0.5325-0.24752 1.2725-0.40625 2l-0.75 3.5938h1.0624l0.28125-1.3438c0.17625 0.025 0.31628 0.0312 0.46875 0.0312 1.8475 0 2.7213-1.4675 2.75-3.0625 0.015-0.89875-0.32251-1.3125-0.96875-1.3125-0.0933 0-0.19249-0.0179-0.28125 0zm10.719 0c-1.2125 0-1.83 0.57126-1.8438 1.3438-0.0175 0.99125 1.0725 1.12 1.0625 1.6875-6e-3 0.305-0.28628 0.5-0.71875 0.5-0.2125 0-0.43126-0.0575-0.625-0.125l-0.21875 0.90625c0.21125 0.0337 0.46999 0.0625 0.75 0.0625 1.3125 0 1.925-0.7325 1.9375-1.4375 0.0163-0.9325-1.07-1.1713-1.0625-1.6875 4e-3 -0.27 0.21373-0.4375 0.65625-0.4375 0.185 0 0.37751 1e-3 0.5625 0.0625l0.21875-0.8125c-0.2125-0.0437-0.44749-0.0625-0.71875-0.0625zm-6.0625 0.0937-0.59375 2.9062c-0.1675 0.82125 0.0638 1.375 0.875 1.375 0.80375 0 1.3875-0.65126 1.7812-1.4062l0.0312 0.0312c-0.24 0.66125-0.36 1.0263-0.40625 1.2812h1.0312c0.0925-0.5075 0.28501-1.425 0.40625-2l0.4688-2.1874h-1.0625l-0.21875 1.0625c-0.2025 0.98375-0.99499 2.2812-1.5625 2.2812-0.27 0-0.35253-0.2025-0.25-0.71875l0.5625-2.625zm-4.8125 0.8125c0.20625 0 0.31999 0.1775 0.3125 0.59375-0.0163 0.88-0.50249 2.0312-1.4688 2.0312-0.1525 0-0.33499-0.05-0.46875-0.0937l0.0625-0.25c0.185-0.87375 0.96124-2.2813 1.5625-2.2812z" fill="#fff"/>
  </g>
 </g>
</svg>
