<svg width="800" height="125.37" version="1.1" viewBox="0 0 800 125.37" xml:space="preserve" xmlns="http://www.w3.org/2000/svg"><g transform="matrix(1.3333 0 0 -1.3333 -627.51 146.31)"><path d="m883.94 15.704h13.776v13.776h-13.776z" fill="#e3000f"/><g transform="matrix(6.2307 0 0 6.2307 554.09 50.372)"><path d="m0 0v2.396c0 0.936-0.34 1.753-1.01 2.429s-1.489 1.018-2.436 1.018h-7.305c-0.205 0-0.547 0.097-0.547 0.745v1.394c0 0.451-0.176 0.451-0.251 0.451h-1.594c-0.075 0-0.251 0-0.251-0.451v-7.984c0-0.92 0.335-1.699 0.996-2.314 0.664-0.618 1.488-0.932 2.449-0.932h6.504c0.961 0 1.785 0.314 2.449 0.932 0.661 0.615 0.996 1.395 0.996 2.316m-2.097-1e-3c0-0.422-0.131-0.788-0.39-1.087-0.264-0.305-0.586-0.46-0.955-0.46h-6.51c-0.37 0-0.692 0.155-0.956 0.46-0.259 0.299-0.39 0.664-0.39 1.087v3.399c0 0.348 0.199 0.547 0.547 0.547h7.309c0.369 0 0.691-0.155 0.955-0.46 0.259-0.299 0.39-0.664 0.39-1.087z" fill="#e3000f"/></g><g transform="matrix(6.2307 0 0 6.2307 786.44 81.326)"><path d="m0 0c-0.743 0.616-1.907 0.929-3.458 0.929h-2.772c-1.447 0-2.51-0.319-3.161-0.947-0.653-0.623-0.984-1.563-0.984-2.792v-1.793c0-1.304 0.344-2.262 1.024-2.848 0.678-0.579 1.77-0.873 3.245-0.873h2.756c2.976 0 4.485 0.935 4.485 2.778v0.368h-0.177l-1.461-3e-3h-0.169l-8e-3 -0.168c-0.025-0.515-0.183-0.874-0.484-1.097-0.305-0.226-0.873-0.34-1.688-0.34h-2.416c-1.272 0-2.153 0.171-2.618 0.507-0.447 0.328-0.674 0.914-0.674 1.742v0.396h9.695v1.132c0 1.378-0.382 2.39-1.135 3.009m-8.55-2.602c0.026 0.53 0.159 0.996 0.409 1.381 0.268 0.405 1.011 0.611 2.209 0.611h2.565c1.808 0 2.687-0.541 2.687-1.653v-0.339z"/></g><g transform="matrix(6.2307 0 0 6.2307 626.21 82.601)"><path d="m0 0c-0.69 0.491-1.867 0.729-3.598 0.729h-2.449c-1.385 0-2.331-0.192-2.892-0.588-0.573-0.404-0.864-1.011-0.864-1.805v-0.617h1.815v0.393c0 0.401 0.113 0.671 0.345 0.826 0.173 0.115 0.603 0.253 1.671 0.253h2.4c1.135 0 1.903-0.117 2.282-0.348 0.357-0.216 0.53-0.62 0.53-1.235v-1.188c-0.5 0.509-1.425 0.768-2.77 0.768h-2.565c-1.691 0-2.768-0.182-3.291-0.557-0.533-0.376-0.804-1.008-0.804-1.879v-0.515c0-0.92 0.233-1.619 0.691-2.077 0.459-0.454 1.199-0.683 2.2-0.683h3.844c0.876 0 1.511 0.059 1.941 0.181 0.29 0.082 0.539 0.254 0.754 0.495v-0.543h1.815v5.788c0 1.234-0.355 2.11-1.055 2.602m-8.375-5.53c0 0.463 0.131 0.764 0.401 0.92 0.205 0.118 0.703 0.259 1.912 0.259h2.391c1.154 0 1.948-0.093 2.36-0.276 0.376-0.162 0.551-0.444 0.551-0.887v-0.366c0-0.417-0.191-0.684-0.601-0.842-0.453-0.174-1.336-0.263-2.625-0.263h-2.483c-0.7 0-1.206 0.09-1.503 0.267-0.271 0.161-0.403 0.449-0.403 0.88z"/></g><g transform="matrix(6.2307 0 0 6.2307 927.45 108.67)"><path d="m0 0c-2.029 0-3.058-1.062-3.058-3.157v-9.549h1.816v7.449h4.117v1.538h-4.117v0.879c0 0.888 0.45 1.301 1.416 1.301l2.523 3e-3h0.178v1.536z"/></g><g transform="matrix(6.2307 0 0 6.2307 1064 80.989)"><path d="m0 0c-0.687 0.548-1.66 0.826-2.89 0.826h-1.876c-1.572 0-2.648-0.471-3.214-1.393-0.515 0.922-1.442 1.393-2.77 1.393h-2.398c-1.198 0-2.07-0.289-2.611-0.85v0.717h-1.727v-8.987h1.815v5.6c0 0.669 0.197 1.154 0.603 1.481 0.411 0.332 1.048 0.501 1.893 0.501h1.486c1.108 0 1.853-0.214 2.215-0.636 0.235-0.28 0.355-0.795 0.355-1.529v-5.417h1.816v5.243c0 0.794 0.178 1.375 0.529 1.726 0.406 0.407 1.157 0.613 2.232 0.613h0.788c1.029 0 1.772-0.116 2.209-0.345 0.535-0.27 0.793-0.767 0.793-1.521v-5.716h1.815v5.93c0 1.015-0.358 1.811-1.063 2.364"/></g><g transform="matrix(6.2307 0 0 6.2307 849.09 86.27)"><path d="m0 0h-2.174c-1.154-0.017-1.962-0.157-2.473-0.427-0.343-0.18-0.639-0.461-0.893-0.824v1.118h-1.727v-8.987h1.815v5.151c0 0.949 0.265 1.594 0.788 1.917 0.55 0.341 1.605 0.514 3.136 0.514h0.581c1.081 0 1.864-0.135 2.327-0.401 0.431-0.247 0.65-0.779 0.65-1.581v-5.6h1.815v5.996c0 2.073-1.293 3.124-3.845 3.124"/></g><g transform="matrix(6.2307 0 0 6.2307 641.34 62.959)"><path d="m0 0v-1.436c0-1.459 0.399-2.487 1.186-3.057 0.768-0.557 1.9-0.839 3.365-0.839h2.251c1.47 0 2.607 0.283 3.379 0.842 0.789 0.572 1.19 1.604 1.19 3.069v0.936h7e-3v7.992h-1.815v-4.403c-0.177 0.215-0.395 0.387-0.664 0.503-0.469 0.208-1.116 0.314-1.924 0.314h-2.091c-1.986 0-3.267-0.301-3.916-0.921-0.642-0.613-0.968-1.622-0.968-3m1.815 0.109c0 0.866 0.189 1.466 0.561 1.784 0.38 0.325 1.087 0.489 2.101 0.489h2.134c1.1 0 1.88-0.167 2.317-0.497 0.399-0.295 0.608-0.867 0.63-1.694-2e-3 -0.02-6e-3 -0.038-6e-3 -0.06v-1.619c0-0.911-0.204-1.527-0.606-1.83-0.417-0.314-1.066-0.473-1.929-0.473h-1.212v-2e-3h-1.469c-0.859 0-1.504 0.158-1.919 0.47-0.4 0.302-0.602 0.914-0.602 1.82z"/></g></g></svg>
