<?xml version="1.0" encoding="UTF-8"?>
<!-- Generator: Adobe Illustrator 21.1.0, SVG Export Plug-In . SVG Version: 6.00 Build 0)  -->
<svg id="Logo" width="339.5" height="134.5" version="1.1" viewBox="0 0 339.5 134.5" xml:space="preserve" xmlns="http://www.w3.org/2000/svg" xmlns:cc="http://creativecommons.org/ns#" xmlns:dc="http://purl.org/dc/elements/1.1/" xmlns:rdf="http://www.w3.org/1999/02/22-rdf-syntax-ns#"><metadata id="metadata45"><rdf:RDF><cc:Work rdf:about=""><dc:format>image/svg+xml</dc:format><dc:type rdf:resource="http://purl.org/dc/dcmitype/StillImage"/><dc:title/></cc:Work></rdf:RDF></metadata>
<style id="style2" type="text/css">
	.st0{fill:#FFFFFF;}
	.st1{fill:#023B7E;}
	.st2{fill:#00A0D5;}
</style>
<g id="g36" transform="translate(-96.4,-33)">
	<path id="path4" class="st0" d="m432.2 90.7c-2-2.7-8.4-10.7-23.2-27.5-9.2-10.4-17.5-19.6-23.5-26l-0.2-0.3c-2.5-2.6-5.6-3.9-9.2-3.9-3.7 0-6.8 1.3-9.2 3.9-2.8 2.9-10.4 11.2-23.8 26.3-3.5 4-6.5 7.4-9.1 10.5h-227.9c-5.4 0-9.7 4.2-9.7 9.3v35.8c0 5.1 4.4 9.3 9.7 9.3h228.9c2.4 2.7 5 5.8 8 9.2 13.8 15.7 21.7 24 23.7 26.2 2.5 2.7 5.6 4 9.3 4s6.8-1.3 9.2-3.9l0.2-0.2c3.5-3.7 11.1-11.9 23.5-26.1 14.8-16.8 21.2-24.8 23.2-27.5 1.4-1.9 3.8-5 3.8-9.5 0.1-4.6-2.2-7.7-3.7-9.6z" fill="#fff"/>
	<path id="path6" class="st1" d="m99.9 82.9v35.8c0 3.2 2.8 5.8 6.2 5.8h50v-47.4h-50c-3.4 0-6.2 2.6-6.2 5.8z" fill="#023b7e"/>
	<g id="g16">
		<path id="path8" class="st0" d="m139 100.8c3.7-1.3 6.3-4.2 6.3-8.6 0-1.1-0.6-3.8-2.6-5.5-1.3-1.1-3.3-2.5-9.5-2.6-1.3 0-5.2 0.1-5.2 0.1v0.2c1.1 0.8 2.3 2.2 2.9 3.8 0.6 0 1.5-0.1 2.4 0 2.5 0.1 3.6 0.6 4.7 1.5s1.7 2.4 1.7 3.8c0 1.9-0.9 3.8-3.6 4.9-2.2 0.9-4.9 1.1-4.9 1.1v0.7s1.6 0.8 3.2 2.9c1.4 1.8 9.3 13.5 9.3 13.5h6.6c0.1 0-10.5-14.8-11.3-15.8z" fill="#fff"/>
		<g id="g14">
			<g id="g12">
				<path id="path10" class="st0" d="m124.5 99.1c2.5-1.5 4.2-3.7 4.2-7 0-3.5-2.1-8.1-10.8-8.1-4.2 0-8.9 0.2-8.9 0.2v32.4h7.4c9.5 0 14.5-3.5 14.5-10.1 0-3.9-2.5-6.5-6.4-7.4zm-6.6 13h-3.7v-23.9h2.7c4.1 0 6.4 2.1 6.5 5 0 1.8-0.5 3.5-2.3 4.7-1.5 1-3.5 1.3-3.5 1.3v0.8s2.9 0.4 4.3 1.1c2.7 1.3 3.5 3.2 3.5 5.7 0 4.1-3.9 5.3-7.5 5.3z" fill="#fff"/>
			</g>
		</g>
	</g>
	<path id="path18" class="st1" d="m159.5 124.5h172.5c-7.2-8.4-10.8-13-12.2-14.8-1.4-1.9-3.8-5-3.8-9.5s2.4-7.6 3.8-9.5c1.3-1.8 4.6-5.9 11.1-13.6h-171.4z" fill="#023b7e"/>
	<g id="g32" fill="#fff">
		<path id="path20" class="st0" d="m183.6 111.9c-1.6 0-4.3 0-7.4-0.1v-22.8c2.2 0 5.4-0.1 8.4-0.1 5.9 0 8.3 2.2 8.3 5.6 0 2.3-1.4 4.2-3.7 5.1 2.8 0.7 4.1 2.7 4.1 5.1-0.1 3.3-2.1 7.2-9.7 7.2zm0.1-19.6h-2.7v6.2h1.8c3.1 0 5.1-1.1 5.1-3.4-0.1-1.6-1-2.8-4.2-2.8zm-0.7 9.3h-2v6.7c0.7 0.1 1.6 0.2 2.7 0.2 3.2 0 4.6-1.5 4.6-3.6-0.1-2.4-2.2-3.3-5.3-3.3z"/>
		<path id="path22" class="st0" d="m212.6 111.9-1.6-4.4h-9.5l-1.7 4.4h-4.7l8.6-22.8h5.6l8.6 22.8h-5.3zm-5.2-14.3c-0.4-1.2-0.9-2.5-1.2-3.6-0.3 1.1-0.7 2.4-1.1 3.6l-2.5 6.4h7.2z"/>
		<path id="path24" class="st0" d="m228.8 104.2v7.6h-4.8v-7.6l-8-15.2h5.2l3.4 6.5c0.7 1.3 1.3 2.7 1.8 4.2 0.6-1.6 1.4-3.1 2.1-4.4l3.3-6.3h4.9z"/>
		<path id="path26" class="st0" d="m239.8 111.9v-22.9h13.4v3.7h-8.7v5.6h8.3v3.6h-8.3v6.1h8.7v3.8h-13.4z"/>
		<path id="path28" class="st0" d="m270.4 111.9-6.5-9.4h-0.2v9.4h-4.7v-22.9c1.7-0.1 4.7-0.1 7.5-0.1 5.4 0 8.6 2.1 8.6 6.3 0 3.7-2.6 6-6.2 6.5 0.5 0.6 1.1 1.5 1.8 2.5l5.7 7.6zm-4.7-19.3c-0.8 0-1.4 0-2 0.1v6.6c0.7 0 1.5 0.1 2.2 0.1 2.5 0 4.1-1.4 4.1-3.6 0-2.1-1.6-3.2-4.3-3.2z"/>
		<path id="path30" class="st0" d="m295.1 111.9-7.9-12.4c-0.9-1.4-1.7-3-2.3-4.3 0.1 1.3 0.1 2.7 0.1 4.8v11.9h-4.6v-22.9h6.3l7.7 12.2c0.9 1.4 1.8 2.9 2.5 4.5-0.1-1.4-0.1-3.6-0.1-6.6v-10h4.6v22.8h-6.3z"/>
	</g>
	<path id="path34" class="st2" d="m429.5 107.6c1.3-1.7 3.1-4.1 3.1-7.4s-1.8-5.7-3.1-7.4c-2-2.6-8.3-10.6-23.1-27.3-9.1-10.4-17.5-19.6-23.4-25.9 0 0-0.2-0.3-0.2-0.2-0.7-0.7-2.7-2.8-6.7-2.8s-6 2.1-6.8 2.9c-2.7 2.8-10.3 11-23.6 26.1-14.9 16.9-21.1 24.8-23.1 27.3-1.3 1.7-3.1 4.1-3.1 7.4s1.8 5.7 3.1 7.4c2 2.6 8.2 10.5 23.1 27.3 13.8 15.7 21.6 24 23.7 26.2 0.7 0.7 2.7 2.8 6.7 2.8s6-2.1 6.7-2.8l0.2-0.2c3.4-3.7 11.1-11.9 23.5-26 14.6-16.8 20.9-24.7 23-27.4z" fill="#00a0d5"/>
</g>
<path id="path38" class="st0" d="m287.2 35.6c-0.9 0-3.2 0.4-5.3 0.7-4 0.7-16.4 2.9-16.4 2.9l0.5 11.3 9.6-0.2-6.2 51 16 0.2 7.1-58.7s0.9-7.2-5.3-7.2z" fill="#fff"/>
</svg>
