<svg id="b" version="1.1" viewBox="0 0 518.55 407.68" xmlns="http://www.w3.org/2000/svg">
 <g id="e" transform="matrix(1.5918 0 0 1.5918 -238.41 -563.63)" fill="#c71414" stroke-width="3.7223">
  <path id="f" d="m324.76 407.61c-7e-3 1.9654-0.61045 3.9456-2.3674 5.4829-1.7532 1.541-4.7868 2.7135-9.8118 2.7135h-10.113v-16.218h9.663c4.5076 0 7.7051 0.91568 9.7114 2.3413 1.9988 1.4368 2.9034 3.324 2.9182 5.6802"/>
  <path id="g" d="m316.57 388.19c1.8835-1.3549 2.7917-3.2756 2.8029-6.1529-7e-3 -1.9765-0.57323-3.6701-1.9951-4.932-1.4256-1.2656-3.8451-2.1626-7.7534-2.1626h-7.1542v15.369h4.9096c4.2508 0 7.2956-0.75562 9.1902-2.1217"/>
  <path id="h" d="m335.67 408.8c0.026-7.4966-4.9655-13.195-12.957-15.384 2.1589-1.1018 3.8637-2.4492 5.1144-4.0908 1.6676-2.2036 2.4679-4.9022 2.4567-8.0512 0.0112-3.8637-1.5112-7.8056-4.7756-10.757-3.2681-2.948-8.2262-4.8575-14.993-4.8538h-18.689v59.429h21.935c7.8242 0 13.318-2.1217 16.854-5.267 3.5399-3.1304 5.0585-7.2398 5.0548-11.025m20.833 27.809h-87.685v-82.515h87.685z"/>
  <path id="i" d="m215.54 388.19c1.8797-1.3549 2.7917-3.2756 2.8066-6.1529-4e-3 -1.9765-0.57323-3.6701-1.9951-4.932-1.4293-1.2656-3.8488-2.1626-7.7609-2.1626h-7.1467v15.369h4.9096c4.2471 0 7.2919-0.75562 9.1865-2.1217"/>
  <path id="j" d="m220.81 401.93c-2.0026-1.4256-5.2037-2.3413-9.7076-2.3413h-9.663v16.218h10.113c5.025 0 8.0512-1.1725 9.8081-2.7135 1.7569-1.5373 2.3636-3.5175 2.3674-5.4829-0.0149-2.3562-0.9194-4.2434-2.9182-5.6802"/>
  <path id="k" d="m234.64 408.8c0.026-7.4966-4.9729-13.195-12.953-15.384 2.1515-1.1018 3.8563-2.4492 5.1032-4.0908 1.675-2.2036 2.4678-4.9022 2.4641-8.0512 4e-3 -3.8637-1.515-7.8056-4.7794-10.757-3.2644-2.948-8.2225-4.8575-14.99-4.8538h-18.693v59.429h21.935c7.8279 0 13.318-2.1217 16.854-5.267 3.5361-3.1304 5.066-7.2398 5.0585-11.025m20.833 27.809h-87.681v-82.515h87.681z"/>
  <path id="l" d="m440.13 409.18-1.407 0.85984c-6.7894 4.1466-14.174 6.3688-20.882 6.365-14.36-0.0558-23.815-8.5649-23.852-20.945 0.0149-12.116 9.89-21.083 23.487-21.113 6.9271 4e-3 13.199 1.7941 20.655 5.8812l1.3698 0.7519v-11.059l-0.58812-0.23078c-8.4048-3.3165-14.915-4.7943-21.343-4.7905-9.9421-4e-3 -18.567 3.2793-24.712 8.8478-6.1417 5.5722-9.7932 13.437-9.7858 22.471 4e-3 6.2943 2.5981 13.668 8.1592 19.523 5.5424 5.8551 14.085 10.121 25.799 10.117h0.041c9.7151 0 16.452-2.1626 22.542-5.1665l0.5174-0.25311zm17.413 27.426h-87.681v-82.515h87.681z"/>
 </g>
 <g id="m" transform="matrix(11.823 0 0 11.823 -1395.3 140.24)" fill="#c71414">
  <path id="n" d="m124.9 21.17s0-0.06-0.12-0.17l-1.16-1.16c-0.14-0.14-0.31-0.08-0.35-0.03l-1.18 1.14c-0.03 0.06-0.04 0.13-0.04 0.21s0.02 0.15 0.05 0.22l1.17 1.12c0.08 0.08 0.15 0.09 0.19 0.09s0.1-0.01 0.18-0.09l1.14-1.14c0.05-0.04 0.12-0.12 0.12-0.19z"/>
  <path id="o" d="m123.45 22.6c-0.04 0-0.11-0.01-0.19-0.09l-1.17-1.12c-0.03-0.06-0.05-0.14-0.05-0.22s0.02-0.15 0.04-0.21l1.18-1.14c0.04-0.05 0.21-0.11 0.35 0.03l1.16 1.16c0.11 0.11 0.12 0.17 0.12 0.17 0 0.07-0.06 0.15-0.12 0.2l-1.14 1.14c-0.07 0.07-0.14 0.08-0.18 0.08zm3.47-2.77c-0.07-0.07-0.13-0.07-0.17-0.07-0.07 0-0.12 0.02-0.17 0.08l-1.14 1.15s-0.02 0.05-0.02 0.18c0 0.18 0.03 0.22 0.03 0.22l1.14 1.14c0.08 0.08 0.14 0.09 0.17 0.09 0.05 0 0.09-0.01 0.14-0.07l1.19-1.17c0.02-0.02 0.06-0.06 0.06-0.2 0-0.1-0.04-0.15-0.06-0.18z"/>
  <path id="p" d="m128.09 21.36-1.19 1.17c-0.05 0.06-0.09 0.07-0.14 0.07-0.04 0-0.09-0.01-0.17-0.09l-1.14-1.14s-0.03-0.04-0.03-0.22c0-0.12 0.02-0.18 0.02-0.18l1.14-1.15c0.05-0.05 0.11-0.08 0.17-0.08 0.04 0 0.1 0.01 0.17 0.07l1.17 1.15c0.03 0.03 0.06 0.07 0.06 0.18 0 0.16-0.05 0.2-0.06 0.22zm10.77-17.15c-0.05-0.09-0.08-0.15-0.11-0.18l-2.49 2.15c0.96 1.21 1.44 2.45 1.44 3.69 0 0.09 0 0.22-0.02 0.39l-0.01 0.24h-11.72c0.01 0.09 0.05 0.23 0.09 0.44l0.09 0.39c0.05 0.22 0.08 0.36 0.09 0.42l0.17 0.69c0.1 0.44 0.19 0.57 0.23 0.61 0.14 0.15 0.32 0.21 0.57 0.21h2.13l-0.15 0.36c-0.27 0.62-0.68 1.13-1.24 1.49-0.89 0.59-1.91 0.89-3.03 0.89-1.69 0-3.06-0.73-4.06-2.17-0.74-1.04-1.24-2.31-1.49-3.76-0.02-0.1-0.03-0.17-0.05-0.22-0.05 0.09-0.17 0.32-0.46 0.91l-0.2 0.44c-0.27 0.55-0.47 0.99-0.62 1.33 0.35 1.86 1.13 3.35 2.32 4.44 1.28 1.18 3.01 1.77 5.12 1.77 2.2 0 3.95-0.64 5.21-1.9 0.91-0.91 1.47-2.04 1.68-3.36l0.03-0.22h8.14c0.08-0.7 0.12-1.47 0.12-2.27 0-1.24-0.18-2.5-0.55-3.73-0.33-1.17-0.75-2.2-1.23-3.05z"/>
  <path id="q" d="m140.53 13.27h-8.14l-0.03 0.22c-0.21 1.32-0.77 2.45-1.68 3.36-1.26 1.26-3.01 1.9-5.21 1.9-2.11 0-3.83-0.6-5.12-1.77-1.19-1.09-1.97-2.58-2.32-4.44 0.15-0.34 0.36-0.78 0.62-1.33l0.2-0.44c0.29-0.59 0.41-0.82 0.46-0.91 0.02 0.05 0.03 0.12 0.05 0.22 0.25 1.45 0.75 2.72 1.49 3.76 1.01 1.44 2.37 2.17 4.06 2.17 1.12 0 2.14-0.3 3.03-0.89 0.56-0.36 0.97-0.87 1.24-1.49l0.15-0.36h-2.13c-0.25 0-0.43-0.07-0.57-0.21-0.04-0.04-0.13-0.17-0.23-0.61l-0.17-0.69c-0.01-0.06-0.04-0.2-0.09-0.42l-0.09-0.39c-0.05-0.21-0.08-0.35-0.09-0.44h11.72l0.01-0.24c0.01-0.17 0.02-0.3 0.02-0.39 0-1.24-0.48-2.48-1.44-3.69l2.49-2.15c0.03 0.03 0.06 0.09 0.11 0.18 0.48 0.86 0.9 1.89 1.24 3.06 0.36 1.24 0.55 2.49 0.55 3.73-0.01 0.79-0.05 1.55-0.13 2.26zm-3.39 2.87c-0.07-0.07-0.14-0.1-0.19-0.1s-0.12 0.04-0.19 0.11l-1.14 1.1c-0.01 0.01-0.07 0.07-0.07 0.23s0.06 0.22 0.07 0.23l1.12 1.09c0.13 0.12 0.29 0.08 0.4-0.01l1.13-1.09c0.04-0.04 0.1-0.11 0.1-0.25 0-0.05-0.01-0.12-0.09-0.2z"/>
  <path id="r" d="m138.28 17.7-1.13 1.09c-0.11 0.09-0.27 0.13-0.4 0.01l-1.12-1.09c-0.02-0.02-0.07-0.08-0.07-0.23 0-0.16 0.06-0.21 0.07-0.23l1.14-1.1c0.07-0.07 0.14-0.11 0.19-0.11s0.12 0.04 0.19 0.1l1.14 1.1c0.08 0.08 0.09 0.14 0.09 0.2 0 0.15-0.06 0.22-0.1 0.26zm17.85-7.55c-0.25-0.17-0.47-0.39-0.63-0.66-0.26-0.39-0.4-0.85-0.4-1.37 0-0.71 0.33-1.34 0.98-1.85 0.67-0.54 1.6-0.81 2.76-0.81 0.45 0 0.81 0.03 1.08 0.07v-1.16c-1.15-0.29-2.2-0.44-3.15-0.44-1.35 0-2.44 0.41-3.26 1.23-0.87 0.85-1.29 1.88-1.29 3.16 0 0.62 0.13 1.23 0.39 1.81l0.16 0.36-5.16-0.01-0.03-0.22c-0.27-1.72-0.75-3.45-1.43-5.16-0.01-0.02-0.02-0.03-0.02-0.05l-0.05 0.05-2.2 2.03c-0.08 0.07-0.11 0.13-0.11 0.21 0 0.09 0.04 0.26 0.21 0.56 0.28 0.49 0.55 1.15 0.79 1.96 0.29 0.98 0.43 1.76 0.43 2.41 0 1.14-0.29 2.06-0.85 2.74-0.75 0.91-1.95 1.4-3.58 1.48-0.14 0.01-0.23 0.02-0.28 0.04 0.04 0.08 0.15 0.24 0.44 0.52l1.75 1.71c3.26-0.47 4.92-2.35 5.07-5.73l0.03-0.65 0.42 0.49c0.2 0.23 0.46 0.36 0.79 0.38l0.2 0.01h12.35c0.34 0 0.34-0.11 0.34-0.18v-2.58h-4.69c-0.36 0-0.7-0.12-1.06-0.35z"/>
  <path id="s" d="m161.88 10.69v2.39c0 0.08 0 0.18-0.34 0.18h-12.35l-0.2-0.01c-0.33-0.02-0.59-0.15-0.79-0.38l-0.42-0.49-0.03 0.65c-0.15 3.38-1.81 5.26-5.07 5.73l-1.75-1.71c-0.29-0.28-0.4-0.44-0.44-0.52 0.05-0.01 0.14-0.03 0.28-0.04 1.62-0.08 2.83-0.58 3.58-1.48 0.56-0.68 0.85-1.6 0.85-2.74 0-0.65-0.14-1.43-0.43-2.41-0.24-0.81-0.5-1.47-0.79-1.96-0.17-0.3-0.21-0.47-0.21-0.56 0-0.08 0.03-0.14 0.11-0.21l2.2-2.03 0.05-0.05c0.01 0.01 0.01 0.03 0.02 0.05 0.68 1.71 1.16 3.44 1.43 5.16l0.03 0.22 5.16 0.01-0.16-0.36c-0.26-0.58-0.39-1.19-0.39-1.81 0-1.28 0.42-2.31 1.29-3.16 0.81-0.82 1.91-1.23 3.26-1.23 0.94 0 2 0.15 3.15 0.44v1.16c-0.26-0.05-0.63-0.07-1.08-0.07-1.16 0-2.09 0.27-2.76 0.81-0.65 0.52-0.98 1.14-0.98 1.85 0 0.52 0.13 0.98 0.4 1.37 0.17 0.27 0.38 0.49 0.63 0.66 0.35 0.23 0.7 0.34 1.05 0.34h4.69c0.01 0.08 0.01 0.14 0.01 0.2z"/>
 </g>
</svg>
