<svg width="800" height="224.92" data-name="Ebene 1" version="1.1" viewBox="0 0 800 224.92" xmlns="http://www.w3.org/2000/svg">
 <g transform="matrix(1.2852 0 0 1.2852 0 6.3077e-6)" fill="#78b925" stroke-width="3.9471">
  <path class="cls-5" d="m87.783 107.44c0-28.498 12.946-52.891 31.577-63.153h-64.574v128.71h69.824c-21.235-7.8941-36.826-34.3-36.826-65.561"/>
  <path d="m0 0h44.128v173h-44.128z"/>
 </g>
 <g transform="matrix(5.7268 0 0 5.7268 86.097 727.73)" fill="#fff" style="shape-inside:url(#rect2344);white-space:pre" aria-label="beats">
  <path d="m28.265-109.08q4.08 0 6.92 3 2.88 3 2.88 7.64 0 4.68-2.88 7.68-2.84 2.96-6.92 2.96-3.8 0-6.24-2.2v1.6h-6.4v-28.8h6.4v10.32q2.44-2.2 6.24-2.2zm-1.32 15.84q2.12 0 3.48-1.44t1.36-3.76q0-2.28-1.36-3.72-1.36-1.48-3.48-1.48-2 0-3.48 1.48-1.44 1.48-1.44 3.72 0 2.28 1.44 3.76 1.48 1.44 3.48 1.44z"/>
  <path d="m61.065-98.44v1.64h-14.72q0.4 1.8 1.56 2.84t2.76 1.04q3 0 4.28-2.32l5.68 1.16q-1.28 3.12-3.88 4.72-2.56 1.56-6.08 1.56-4.44 0-7.52-2.96-3.08-3-3.08-7.68 0-4.64 3.08-7.64t7.56-3q4.36 0 7.32 2.92t3.04 7.72zm-10.36-5.44q-1.4 0-2.6 0.84t-1.64 2.32h8.28q-0.44-1.56-1.52-2.36t-2.52-0.8z"/>
  <path d="m85.505-108.48v20.08h-6.4v-1.6q-2.44 2.2-6.24 2.2-4.08 0-6.96-2.96-2.84-3-2.84-7.68 0-4.64 2.84-7.64 2.88-3 6.96-3 3.8 0 6.24 2.2v-1.6zm-11.32 15.24q2 0 3.44-1.44 1.48-1.48 1.48-3.76 0-2.24-1.48-3.72-1.44-1.48-3.44-1.48-2.12 0-3.48 1.48-1.36 1.44-1.36 3.72 0 2.32 1.36 3.76t3.48 1.44z"/>
  <path d="m103.54-94.32 1.48 5.04q-2.76 1.48-5.48 1.48-3.8 0-5.92-2.04-2.08-2.04-2.08-5.96v-7.6h-3.64v-5.08h3.64v-5.92h6.4v5.92h5.92v5.08h-5.92v6.96q0 2.92 2.68 2.92 1.52 0 2.92-0.8z"/>
  <path d="m106.1-93.64 6.24-1.28q0.4 2.36 3.56 2.36 1.2 0 1.88-0.44 0.72-0.48 0.72-1.16 0-1.12-2-1.48l-4.08-0.8q-5.84-1.08-5.84-5.84 0-3.08 2.4-4.92 2.4-1.88 6.24-1.88 3.68 0 6.08 1.56 2.44 1.56 3.04 4.2l-5.84 1.16q-0.16-1-1.08-1.68-0.88-0.68-2.28-0.68-1.2 0-1.76 0.48-0.52 0.44-0.52 1.08 0 1.08 1.52 1.4l4.72 0.96q2.76 0.6 4.16 2.2 1.4 1.56 1.4 3.84 0 3.24-2.52 5t-6.6 1.76q-3.8 0-6.4-1.44-2.56-1.48-3.04-4.4z"/>
 </g>
</svg>
