<svg width="800" height="800" enable-background="new 0 0 66 66" version="1.0" viewBox="0 0 800 800" xml:space="preserve" xmlns="http://www.w3.org/2000/svg">
<g transform="matrix(12.121 0 0 12.121 -.75152 0)">
	<rect x=".062" width="66" height="66" fill="#1d284b"/>
	<path d="m15.798 26.724h-3.391v-3.497h3.627c1.371 0 2.03 0.604 2.03 1.709-1e-3 1.448-1.053 1.788-2.266 1.788m-3.407-9.836h3.067c1.183 0 1.975 0.342 1.975 1.29 0 1.21-0.765 1.553-1.975 1.553h-3.067zm38.644-4.469-2.684 11.047h-0.051l-2.681-11.047h-22.14v11.039c-0.562-1.426-1.697-2.236-2.897-2.649 1.398-0.762 2.318-1.785 2.318-3.681 0-1.921-1.052-4.708-5.998-4.708h-10.282v18.774h10.652c2.68 0 5.292-1.293 6.208-3.769v3.769h5.782v-7.151h5.285v-4.313h-5.299v-2.843h8.141v14.306h5.469v-12.041h0.055l3.258 12.042h4.312l3.259-12.042h0.057v12.042h5.47v-18.775z" fill="#fff"/>
	<g fill="#fff">
		<path d="m6.563 33.365h2.891c0.726 0 1.391 0.104 1.998 0.308 0.591 0.204 1.076 0.55 1.448 1.043 0.364 0.482 0.546 1.13 0.546 1.935 0 0.613-0.121 1.146-0.359 1.598-0.241 0.461-0.568 0.802-0.977 1.025v0.043c0.235 0.119 0.455 0.276 0.657 0.479 0.194 0.194 0.368 0.426 0.521 0.697 0.144 0.257 0.257 0.549 0.34 0.871 0.078 0.332 0.117 0.678 0.117 1.043 0 1.048-0.305 1.889-0.916 2.525-0.615 0.643-1.542 0.963-2.788 0.963h-3.478zm2.53 2.455v2.535h0.64c0.391 0 0.688-0.117 0.885-0.348 0.2-0.218 0.299-0.533 0.299-0.951 0-0.441-0.125-0.763-0.375-0.953-0.252-0.188-0.55-0.283-0.899-0.283zm0 4.998v2.615h0.673c0.966 0 1.45-0.429 1.45-1.281 0-0.535-0.129-0.893-0.388-1.066-0.256-0.178-0.619-0.268-1.095-0.268z"/>
		<path d="m22.178 33.365v8.188c0 0.946-0.18 1.771-0.541 2.471-0.36 0.709-0.856 1.244-1.491 1.604-0.637 0.371-1.368 0.558-2.192 0.558-0.77 0-1.447-0.158-2.023-0.477-0.583-0.316-1.034-0.807-1.352-1.464-0.326-0.658-0.486-1.484-0.486-2.476v-8.405h2.419v7.522c0 0.488 0.044 0.912 0.133 1.266 0.093 0.369 0.247 0.658 0.471 0.865 0.216 0.217 0.517 0.326 0.902 0.326 0.717 0 1.187-0.268 1.414-0.804 0.223-0.544 0.333-1.313 0.333-2.322v-6.854z"/>
		<path d="m27.517 36.68c-0.286-0.35-0.539-0.592-0.756-0.736-0.23-0.151-0.499-0.228-0.803-0.228-0.226 0-0.439 0.089-0.638 0.272-0.209 0.184-0.312 0.424-0.312 0.727 0 0.422 0.227 0.758 0.681 1.004 0.462 0.252 0.936 0.498 1.42 0.733 0.49 0.247 0.915 0.64 1.274 1.173 0.357 0.545 0.534 1.338 0.534 2.385 0 1.344-0.317 2.371-0.949 3.092-0.629 0.726-1.431 1.084-2.406 1.084-0.564 0-1.111-0.123-1.636-0.371-0.531-0.244-1-0.615-1.401-1.11l1.301-2.369c0.417 0.672 0.965 1.006 1.646 1.006 0.271 0 0.533-0.097 0.781-0.289 0.245-0.188 0.37-0.465 0.37-0.829 0-0.433-0.228-0.772-0.687-1.025-0.206-0.111-0.439-0.24-0.709-0.379l-0.36-0.187-0.367-0.195c-0.493-0.258-0.917-0.649-1.268-1.176-0.352-0.516-0.528-1.291-0.528-2.318 0-0.791 0.152-1.479 0.458-2.067 0.295-0.582 0.691-1.028 1.185-1.342 0.48-0.306 0.995-0.459 1.547-0.459 0.509 0 1.007 0.123 1.497 0.371 0.5 0.259 0.936 0.619 1.311 1.078z"/>
		<path d="m29.267 34.452 2.413-1.339v12.784l-2.413-8e-3z"/>
		<path d="m40.387 45.904-5.527-5.98 0.01 5.945h-2.43v-12.68l5.533 5.961v-5.785l2.414 0.02z"/>
		<path d="m45.959 45.896h-4.906v-12.53h5.389v2.659h-2.977v2.173h2.494v2.64h-2.494v2.419h2.494z"/>
		<path d="m51.602 36.68c-0.289-0.35-0.541-0.592-0.758-0.736-0.23-0.151-0.498-0.228-0.805-0.228-0.227 0-0.439 0.089-0.639 0.272-0.207 0.184-0.312 0.424-0.312 0.727 0 0.422 0.228 0.758 0.681 1.004 0.463 0.252 0.936 0.498 1.42 0.733 0.49 0.247 0.916 0.64 1.276 1.173 0.357 0.545 0.535 1.338 0.535 2.385 0 1.344-0.316 2.371-0.949 3.092-0.631 0.726-1.432 1.084-2.406 1.084-0.562 0-1.11-0.123-1.635-0.371-0.533-0.244-1-0.615-1.404-1.11l1.306-2.369c0.416 0.672 0.965 1.006 1.646 1.006 0.271 0 0.53-0.097 0.782-0.289 0.246-0.188 0.365-0.465 0.365-0.829 0-0.433-0.228-0.772-0.685-1.025-0.203-0.111-0.44-0.24-0.709-0.379l-0.36-0.187-0.365-0.194c-0.496-0.258-0.918-0.648-1.271-1.177-0.354-0.516-0.526-1.29-0.526-2.317 0-0.789 0.149-1.479 0.458-2.068 0.298-0.582 0.691-1.029 1.186-1.341 0.481-0.307 0.998-0.459 1.549-0.459 0.506 0 1.006 0.123 1.494 0.371 0.502 0.259 0.938 0.617 1.311 1.076z"/>
		<path d="m57.916 36.68c-0.285-0.35-0.537-0.592-0.755-0.736-0.229-0.151-0.499-0.228-0.806-0.228-0.227 0-0.438 0.089-0.635 0.272-0.209 0.184-0.314 0.424-0.314 0.727 0 0.422 0.229 0.758 0.68 1.004 0.466 0.252 0.939 0.498 1.424 0.733 0.489 0.247 0.914 0.64 1.273 1.173 0.354 0.545 0.533 1.338 0.533 2.385 0 1.344-0.314 2.371-0.95 3.092-0.628 0.726-1.431 1.084-2.403 1.084-0.566 0-1.111-0.123-1.639-0.371-0.533-0.244-1-0.615-1.398-1.11l1.301-2.369c0.418 0.672 0.967 1.006 1.646 1.006 0.272 0 0.532-0.097 0.782-0.289 0.246-0.188 0.371-0.465 0.371-0.829 0-0.433-0.231-0.772-0.688-1.025-0.205-0.111-0.44-0.24-0.707-0.379l-0.358-0.187-0.373-0.197c-0.496-0.258-0.918-0.647-1.271-1.176-0.353-0.516-0.526-1.291-0.526-2.318 0-0.789 0.151-1.479 0.457-2.067 0.299-0.582 0.691-1.028 1.187-1.341 0.483-0.307 0.999-0.459 1.546-0.459 0.51 0 1.008 0.123 1.501 0.371 0.497 0.259 0.935 0.618 1.308 1.077z"/>
	</g>
				<path d="m52.423 45.779c-0.019 0-7.243 5.93-7.243 5.93l-7.041-4.547-8.096 5.502-6.775-2.67-17.289 10.576v0.074h4.386l13.262-7.779 6.692 2.804 7.807-5.325 7.144 4.609 9.498-7.901c-1.475-0.433-1.717-0.659-2.345-1.273z" fill="#dca271"/>
</g>
</svg>
