<svg width="758.75" height="306.75" enable-background="new 120.672 348.584 758.754 306.754" version="1.1" viewBox="120.67 348.58 758.75 306.75" xml:space="preserve" xmlns="http://www.w3.org/2000/svg">
		<path d="m192.33 570.95 1.458 75.363c0.115 5.003 3.28 9.021 8.784 9.021h22.372c5.504 0 8.669-4.018 8.777-9.021l1.46-75.363z" fill="#505050"/>
		<path d="m238.25 485.12c21.896 0 26.378-42.202 27.21-63.536 0.203-5.187 0-9.135 0-10.955 0-9.277 0-62.042-33.147-62.042h-37.357c-33.155 0-32.864 52.764-32.864 62.042 0 2.049-0.291 4.787 0 10.955 1.024 21.862 5.69 63.536 26.92 63.536z" fill="#ecc81a"/>
		<path d="m306.84 574.97v-81.212c0-5.714-4.666-10.387-10.387-10.387h-165.39c-5.715 0-10.387 4.673-10.387 10.387v81.212h186.17z" fill="#fed208"/>
		<g transform="translate(-.004 -.003)" fill="#010101">
			<path d="m162.95 559.76h-23.024v-56.936h19.589c9.714 0 15.912 6.45 15.912 14.239 0 5.775-2.512 10.131-6.779 12.052 6.363 1.507 11.556 6.612 11.556 14.314-8e-3 9.8-6.378 16.331-17.254 16.331zm-6.117-47.05h-4.354v13.227h4.354c3.608 0 6.621-3.017 6.621-6.612 0-3.686-3.013-6.615-6.621-6.615zm3.608 23.519h-7.956v13.721h7.956c3.77 0 6.947-3.09 6.947-6.852 0-3.691-3.177-6.869-6.947-6.869z"/>
			<path d="m220.54 559.76-19.597-35.501v35.501h-12.553v-56.936h12.553l19.597 35.501v-35.501h12.544v56.936z"/>
			<path d="m258.04 559.76h-12.565v-56.936h21.355c9.209 0 17.405 7.45 17.405 18.257 0 9.637-5.775 15.992-12.97 17.744l16.323 20.929h-15.904l-13.572-20.347h-0.081v20.353zm0-47.05v16.831h6.694c3.685 0 7.532-3.023 7.532-8.46 0-5.193-3.847-8.371-7.532-8.371z"/>
		</g>
	<g transform="translate(-.004 -.003)" fill="#010101"><path d="m370.77 559.76-19.612-35.538v35.538h-12.573v-56.995h12.573l19.612 35.538v-35.538h12.573v56.995z"/><path d="m393.4 559.76v-56.995h12.573v56.995z"/><path d="m449.05 559.76h-33.023v-56.995h33.023v11.399h-20.451v11.313h19.613v11.399h-19.613v11.482h20.451z"/><path d="m504.95 502.76v34.784c0 15.17-8.717 23.049-23.552 23.049-14.836 0-23.553-7.879-23.553-23.049v-34.784h12.572v32.939c0 7.879 2.431 12.321 10.98 12.321 8.633 0 10.979-4.442 10.979-12.321v-32.939z"/><path d="m573.76 559.76h-14.919l-11.817-39.979-11.902 39.979h-14.919l-11.063-56.995h13.83l6.705 39.311 11.147-39.311h12.319l11.148 39.311 6.705-39.311h13.829z"/><path d="m622.54 544.17c0-11.063-32.94-3.938-32.94-24.978 0-11.734 10.896-17.267 21.289-17.267 11.734 0 22.296 5.196 22.716 18.188h-12.154c-0.671-5.95-4.107-7.879-10.395-7.879-3.521 0-8.466 1.677-8.466 5.95 0 10.143 32.94 2.851 32.94 24.56 0 13.41-11.986 18.354-23.638 18.354-12.571 0-24.055-6.201-24.139-20.115h12.74c0.335 6.79 5.699 9.891 11.9 9.891 3.944 1e-3 10.147-1.592 10.147-6.704z"/><path d="m655.64 559.76h-12.571v-56.995h21.375c9.22 0 17.434 7.46 17.434 18.271 0 9.64-5.783 16.01-12.991 17.77l16.345 20.954h-15.926l-13.577-20.367h-0.084v20.367zm0-47.105v16.847h6.705c3.688 0 7.544-3.018 7.544-8.466 0-5.196-3.854-8.381-7.544-8.381z"/><path d="m728.06 559.76-4.105-11.481h-21.709l-4.107 11.481h-13.494l23.135-56.995h10.645l23.133 56.995zm-15.003-42.076-7.208 20.284h14.416z"/><path d="m763.93 502.76c16.094 0 28.33 12.404 28.33 28.497s-12.152 28.498-28.33 28.498h-16.931v-56.995zm-0.754 45.428c9.64 0 16.26-7.46 16.26-16.933 0-9.471-6.536-16.847-16.26-16.847h-3.771v33.778z"/><path d="m800.22 559.76v-56.995h12.572v56.995z"/><path d="m850.09 560.6c-15.758 0-29.336-13.578-29.336-29.336 0-15.757 13.578-29.335 29.336-29.335s29.336 13.578 29.336 29.335c0 15.758-13.578 29.336-29.336 29.336zm0-46.183c-8.801 0-16.764 7.963-16.764 16.764s7.963 16.848 16.764 16.848 16.764-8.047 16.764-16.848-7.963-16.764-16.764-16.764z"/></g>
</svg>
