<svg id="a" version="1.0" viewBox="0 0 499.54 499.54" xmlns="http://www.w3.org/2000/svg">
 <polygon id="b" transform="matrix(25.906 0 0 25.906 -4502 -6094.2)" points="173.92 235.39 192.92 235.39 192.92 254.38 173.92 254.38" fill="#fff" stroke="#000" stroke-width=".285"/>
 <polygon id="c" transform="matrix(25.906 0 0 25.906 -4502 -6094.2)" points="178.74 252.2 178.74 252.2 178.74 249.81 179.34 249.81 179.34 251.67 180.12 251.67 180.12 252.2" fill="#c90119"/>
 <path id="d" d="m215.6 439.14-3.8211-10.811h-23.906l-3.9403 10.811h-15.471l22.976-61.881h18.194l22.857 61.881zm-12.86-36.527c-1.0777-2.8522-2.2849-6.4246-2.9792-9.1681h-0.12695c-0.70464 2.7434-1.6632 5.9584-2.7331 8.8287l-5.4635 14.979h16.642z" fill="#c90119"/>
 <path id="e" d="m253.45 440.46c-3.9221 0-8.7018-0.59582-12.129-1.4455l0.57511-13.562c3.575 1.443 8.2251 2.2745 13.098 2.2745 5.1164 0 9.4038-2.3833 9.4038-7.0256 0-9.4064-24.895-4.1605-24.895-24.393 0-12.147 9.1862-20.235 26.201-20.235 3.3444 0 7.8598 0.46631 11.316 0.95074l-0.47667 12.849c-3.3444-0.95075-7.8598-1.544-11.424-1.544-6.5412 0-9.2743 2.4947-9.2743 6.3055 0 8.8106 25.351 5.119 25.351 24.147 0 12.987-10.481 21.678-27.745 21.678z" fill="#c90119"/>
 <path id="f" d="m306.09 440.46c-3.9377 0-8.681-0.59582-12.137-1.4455l0.59324-13.562c3.5646 1.443 8.2173 2.2745 13.088 2.2745 5.1268 0 9.4038-2.3833 9.4038-7.0256 0-9.4064-24.875-4.1605-24.875-24.393 0-12.147 9.1655-20.235 26.183-20.235 3.3341 0 7.8598 0.46631 11.305 0.95074l-0.45853 12.849c-3.3444-0.95075-7.8676-1.544-11.443-1.544-6.5412 0-9.2924 2.4947-9.2924 6.3055 0 8.8106 25.359 5.119 25.359 24.147 0 12.987-10.463 21.678-27.727 21.678z" fill="#c90119"/>
 <polygon id="g" transform="matrix(25.906 0 0 25.906 -4502 -6094.2)" points="187.84 249.81 187.84 252.2 187.24 252.2 187.24 249.81" fill="#c90119"/>
 <polygon id="h" transform="matrix(25.906 0 0 25.906 -4502 -6094.2)" points="189.17 250.83 189.96 249.81 190.68 249.81 189.77 250.96 190.74 252.2 189.96 252.2 189.96 252.2 189.17 251.11 189.17 252.2 188.58 252.2 188.58 249.81 189.17 249.81" fill="#c90119"/>
 <polygon id="i" transform="matrix(25.906 0 0 25.906 -4502 -6094.2)" points="176.71 250.83 177.5 249.81 178.22 249.81 177.3 250.96 178.28 252.2 177.5 252.2 177.5 252.2 176.71 251.11 176.71 252.2 176.12 252.2 176.12 249.81 176.71 249.81" fill="#c90119"/>
 <path id="j" d="m191.59 332.98h-19.01v-123.48c0.2461 0 8.536-0.25649 13.691-0.10103 22.883 0.71244 32.442 9.8623 32.771 24.95 0.20207 9.1577-1.5621 18.059-10.51 25.206-7.5023 5.9583-18.999 7.1914-18.999 7.1914v3.9766s14.87 1.9093 22.199 5.6734c13.792 7.0826 18.16 16.598 18.16 29.649 0 19.849-19.795 26.932-38.302 26.932zm34.025-67.026c13.059-7.7303 21.092-19.629 21.092-36.563 0-21.341-13.562-40.872-58.552-40.872-21.779 0-42.809 0.23831-42.809 0.23831v167.58h38.403c48.82 0 74.611-18.005 74.611-52.055 0-20.261-12.712-33.678-32.745-38.33z"/>
 <path id="k" d="m300.78 274.33c21.266-7.4013 33.356-23.222 33.595-44.441 0.0829-5.694-2.202-19.046-12.593-27.911-6.8728-5.8599-18.297-12.987-50.319-13.774-6.6345-0.16323-26.258 0.57769-26.258 0.57769s-8e-3 1.1036 0.0648 1.1788c5.7019 4.4143 11.735 11.497 14.66 19.813 3.0698-0.1088 7.694-0.36528 12.264-0.1088 12.867 0.67614 19.227 2.8315 25.033 7.4013 5.8107 4.5802 8.8546 12.43 8.909 19.559 0.0829 10.546-4.9713 20.616-19.017 26.346-11.378 4.6242-25.553 5.0827-25.553 5.0827v3.5361s8.2354 3.9299 16.461 14.805c7.0904 9.3753 48.208 69.912 48.208 69.912h33.996s-55.428-76.64-59.449-81.976z"/>
</svg>
