<svg class="css-vpekky" width="800" height="800" aria-label="BR24 Logo" role="img" version="1.1" viewBox="0 0 800 800" xmlns="http://www.w3.org/2000/svg">
 <path d="m0 0h800v800h-800z" fill="#292d3b" stroke-width="7.9864"/>
 <path d="m0 734.11h800v65.887h-800z" fill="#0b9fd8" stroke-width="7.9864"/>
 <path d="m392.85 253.98c38.813-13.417 66.527-44.324 66.527-90.246 0-11.5-5.8301-39.453-26.993-57.422-13.976-11.9-34.102-25.956-99.191-27.473-13.417-0.31935-54.308 1.1181-54.308 1.1181v2.316c11.58 8.8649 23.958 23.399 29.949 40.332 6.2294-0.23967 15.653-0.71879 24.918-0.23967 26.116 1.4376 37.536 6.3093 49.277 15.494 11.82 9.2641 18.209 25.238 18.129 39.692-0.08 19.726-9.4239 40.172-38.016 51.832-23.081 9.4239-51.032 11.5-51.032 11.5v7.1878s16.692 7.9864 33.462 30.109c14.376 19.008 97.914 142 97.914 142h69.003c0.0797 0-111.49-155.42-119.64-166.2zm-151.66-17.331c26.515-15.653 43.527-38.734 43.527-73.075 0-36.738-21.804-85.294-113.17-85.294-44.245 0-93.36 1.6772-93.36 1.6772v340.31h77.946c99.112 0 151.58-36.578 151.58-105.66 0-41.289-25.875-68.524-66.527-77.946zm-69.082 136.09h-38.653v-250.7c0.47918 0 17.331-0.23967 27.793-0.23967 43.128 0 67.086 22.282 67.726 52.95 0.39932 18.608-5.1113 36.418-24.039 49.516-15.494 10.702-37.058 13.896-37.058 13.896v8.0664s29.868 4.4723 45.122 11.58c28.273 13.178 36.657 33.703 36.898 60.218 0.23967 41.929-40.172 54.707-77.788 54.707z" fill="#fff" stroke-width="22.337"/>
 <path d="m509.69 244.3v-26.515l24.758-27.953c7.1878-7.9864 13.098-15.094 17.65-21.324 4.5519-6.2299 8.2259-11.74 10.941-16.532 2.7153-4.7918 4.5523-9.1844 5.5106-13.018s1.4376-7.5071 1.4376-10.941c0-6.5488-1.9965-12.06-5.9101-16.452-3.9133-4.392-9.9031-6.6286-17.89-6.6286-5.2711 0-10.622 0.87853-16.053 2.7153-5.5106 1.8369-10.382 3.9933-14.615 6.6286l-4.6321-28.433c5.5906-2.7953 11.9-5.0314 19.167-6.8684 7.1878-1.757 15.414-2.7153 24.758-2.7153 8.3059 0 15.653 1.198 21.964 3.6738 6.3093 2.4758 11.5 5.7501 15.733 9.9032 4.1528 4.1528 7.2676 9.1044 9.3441 14.695 2.0765 5.6703 3.0348 11.66 3.0348 18.049 0 5.4308-0.71876 10.862-2.2362 16.452-1.4376 5.5906-3.8335 11.341-7.0281 17.41s-7.2676 12.459-12.139 19.247-10.782 14.136-17.65 21.964l-14.695 17.171v0.23968c8.7052-0.47919 17.81-0.79866 27.392-0.87853 9.5836-0.0797 19.965-0.0797 31.308-0.0797v30.188zm216.68-39.453v39.532h-30.907v-39.532h-67.246l-4.3926-24.999 62.773-101.11h39.771v97.434h24.758v28.672zm-30.427-95.996h-0.23968l-41.449 68.204c2.6355-0.15968 5.91-0.31935 9.9829-0.39935 3.9931-0.0797 7.9864-0.0797 12.06-0.0797h19.726v-67.726z" fill="#fff" stroke-width="7.9864"/>
 <g transform="scale(3.2653)" fill="#0b9fd8">
  <path d="m22.945 149h6.5311v44.4h-6.5311z" stroke-width=".31491"/>
  <path d="m105.66 162.57c-4.6156 0-6.4747 0.81234-9.4284 3.3678-3.1311 3.029-4.8009 7.0384-4.8009 11.997 0.0249 5.5322 1.0499 10.493 5.5423 13.783 2.5595 1.6523 5.423 2.2915 9.2572 2.2855 1.4878-8e-3 2.9752-0.1436 4.4481-0.38194 2.0167-0.32637 4.0057-0.84633 5.9291-1.5001l-0.78726-4.8871c-2.0217 0.66443-4.0938 1.1935-6.2132 1.4171-1.072 0.11047-2.2651 0.19011-3.3766 0.15377-1.8988-0.0621-3.6967-0.46234-5.2421-1.6244-2.3744-1.8611-2.919-4.9859-2.919-7.9472h19.332c0.0912-1.4574 0.162-2.9479 0.162-4.4277 0-3.2334-0.95798-6.493-3.1573-8.8708-2.2955-2.4907-4.5331-3.365-8.7455-3.365zm-1.1877 4.8374c1.7553 0 3.1456 0.36545 4.3251 1.283 1.8107 1.4518 2.2865 3.9113 2.2708 6.1157l-12.946-1.2e-4h-6.3e-4c3.1e-4 0 3.1e-4 -4e-3 6.3e-4 -4e-3 -0.0151-2.2032 0.46061-4.6602 2.2702-6.1113 1.0835-0.84286 2.4103-1.283 4.0796-1.283z" stroke-width=".31491"/>
  <g transform="matrix(.31491 0 0 .31491 51.125 -272.23)">
   <path d="m-1.4311 1352.7a13.292 13.026 0 0 1-13.292 13.026 13.292 13.026 0 0 1-13.292-13.026 13.292 13.026 0 0 1 13.292-13.026 13.292 13.026 0 0 1 13.292 13.026z" stop-color="#000000" stroke-linecap="round" stroke-linejoin="round" stroke-width="9.7903" style="paint-order:markers stroke fill"/>
   <path d="m-25.055 1382.6h20.739v95.986h-20.739z" stroke-width=".99996"/>
  </g>
  <path d="m58.069 163.17 10.637 30.228h7.6806l10.82-30.228h-6.8571l-5.5798 16.348c-1.057 2.952-1.6948 5.3393-1.9134 7.1617h-0.21896c-0.2186-1.8222-0.85583-4.2096-1.9128-7.1617l-5.5804-16.348z" stroke-width=".31491"/>
 </g>
</svg>
