<?xml version="1.0" encoding="UTF-8"?>
<!-- Created with Inkscape (http://www.inkscape.org/) -->
<svg id="svg3814" width="566.93" height="156.83" version="1.0" xmlns="http://www.w3.org/2000/svg" xmlns:cc="http://creativecommons.org/ns#" xmlns:dc="http://purl.org/dc/elements/1.1/" xmlns:rdf="http://www.w3.org/1999/02/22-rdf-syntax-ns#">
 <metadata id="metadata11">
  <rdf:RDF>
   <cc:Work rdf:about="">
    <dc:format>image/svg+xml</dc:format>
    <dc:type rdf:resource="http://purl.org/dc/dcmitype/StillImage"/>
    <dc:title/>
   </cc:Work>
  </rdf:RDF>
 </metadata>
 <path id="path3805" d="m181.14 27.147c0-1.5406 0.68598-2.3372 1.5346-3.0313l3.2967-2.8619c0.58323-0.53079 1.4301-0.90709 2.1239-0.90709h1.5931c0.53114 0 0.90744 0.16299 1.2249 0.42839l2.329 1.8064c0.42838 0.31748 0.69413 1.114 0.69413 2.1175v9.0269c0 1.0098-0.0524 2.2348-0.63354 2.7135l-2.2348 1.8585c-0.36992 0.31784-0.84862 0.47232-1.5931 0.47232h-1.9106c-0.53114 0-1.3277-0.73772-1.9694-1.2689l-2.9204-2.5002c-1.3273-1.1144-1.5346-1.7476-1.5346-3.3991zm0-18.902c0-1.7539-0.3763-3.5036-2.5501-3.5036-2.1763 0-2.5526 1.7497-2.5526 3.5036v32.067c0 1.7561 0.3763 3.5539 2.5526 3.5539 2.0193 0 2.5501-1.7479 2.5501-3.3909v-0.32598l1.1668 1.1225c1.4297 1.3273 2.868 2.5944 4.9334 2.5944h3.297c1.2749 0 2.7656-0.79654 3.9823-1.7979l1.7539-1.4907c2.013-1.7561 2.7595-3.1858 2.7595-5.8932v-10.25c0-2.7071-0.74657-4.1372-2.7595-5.8932l-1.7539-1.4822c-1.2774-1.0619-2.4417-1.806-3.7694-1.806h-3.6645c-2.3393 0-3.3491 1.1119-5.0446 2.8159l-0.90106 0.90106zm-14.424 95.35c0-26.424 21.424-47.847 47.848-47.847 26.432 0 47.856 21.424 47.856 47.847 0 26.431-21.424 47.856-47.856 47.856-26.424 0-47.848-21.426-47.848-47.856zm101.5 0c0-26.424 21.424-47.847 47.848-47.847 26.432 0 47.856 21.424 47.856 47.847 0 26.431-21.424 47.856-47.856 47.856-26.424 0-47.848-21.426-47.848-47.856zm101.5 0c0-26.424 21.424-47.847 47.854-47.847 26.424 0 47.85 21.424 47.85 47.847 0 26.431-21.426 47.856-47.85 47.856-26.431 0-47.854-21.426-47.854-47.856zm101.5 0c0-26.424 21.426-47.847 47.856-47.847 26.433 0 47.856 21.424 47.856 47.847 0 26.431-21.424 47.856-47.856 47.856-26.43 0-47.856-21.426-47.856-47.856zm-231.69-79.502c0-1.5112 0.43477-1.8875 1.0828-2.3747l1.777-1.2961c0.86315-0.59173 1.6746-0.59173 2.6486-0.59173h1.6221c0.81106 0 1.8354 0.05244 2.4775 0.6502l1.9984 1.7249c0.70228 0.6502 0.6502 1.4528 0.6502 2.4268v3.4661h-12.257zm13.871 19.979c1.5134 0 3.5621-0.32421 3.5621-2.5965 0-2.2117-1.8354-2.588-3.5621-2.588h-8.3622c-1.7266 0-2.751-0.21331-3.4597-0.9659l-1.2901-1.4088c-0.3763-0.3763-0.75863-1.0244-0.75863-1.5116v-1.7267h13.871c3.077 0 3.5621-0.86138 3.5621-3.8257v-4.4926c0-2.8619-0.32421-4.8604-2.6989-6.7482l-2.1008-1.6661c-1.9988-1.6221-3.1861-1.896-5.7157-1.896h-2.0066c-2.1012 0-3.2885 0.05846-5.7157 2.1614l-1.8354 1.5637c-2.1614 1.8354-2.5377 3.4579-2.5377 6.2089v10.319c0 2.8013 0.59775 3.9887 2.6486 5.8241l2.2117 1.94c1.6161 1.4092 2.4771 1.4092 4.6389 1.4092zm59.464-19.979c0-1.5112 0.42874-1.8875 1.0768-2.3747l1.777-1.2961c0.86315-0.59173 1.6742-0.59173 2.6486-0.59173h1.6221c0.81106 0 1.8354 0.05244 2.4856 0.6502l1.9903 1.7249c0.70016 0.6502 0.6502 1.4528 0.6502 2.4268v3.4661h-12.251zm13.873 19.979c1.5031 0 3.5539-0.32421 3.5539-2.5965 0-2.2117-1.8294-2.588-3.5539-2.588h-8.3704c-1.727 0-2.7514-0.21331-3.4515-0.9659l-1.2983-1.4088c-0.3763-0.3763-0.7526-1.0244-0.7526-1.5116v-1.7267h13.873c3.0752 0 3.5539-0.86138 3.5539-3.8257v-4.4926c0-2.8619-0.31783-4.8604-2.6926-6.7482l-2.1093-1.6661c-1.9903-1.6221-3.1776-1.896-5.7157-1.896h-2.0048c-2.103 0-3.2903 0.05846-5.7154 2.1614l-1.8376 1.5637c-2.1533 1.8354-2.536 3.4579-2.536 6.2089v10.319c0 2.8013 0.59811 3.9887 2.6468 5.8241l2.2139 1.94c1.6136 1.4092 2.4771 1.4092 4.6389 1.4092zm-110.68-19.218v14.019c0.10453 0 2.6259 0.0081 2.7305 0.0081 1.5782 0.07335 3.1043 0.57508 3.1043 2.5944 0 2.0884-1.7266 2.5441-3.1858 2.6047-0.13394 0.0064-2.678 0-2.8098 0h-7.7223c-1.5197 0-3.577-0.32598-3.577-2.6047 0-2.2263 1.8439-2.6026 3.577-2.6026h2.678v-18.982h-2.5756c-1.5176 0-3.5748-0.32634-3.5748-2.605 0-2.2199 1.8418-2.6026 3.5748-2.6026h5.4815c0.35327 0 0.60413 0.07299 0.77315 0.19842 1.1289 0.4787 1.497 1.7624 1.5261 3.0837l1.2774-1.0559c1.4676-1.1937 2.9852-2.2263 4.6159-2.2263l4.2041-0.0085c1.7915 0 3.583 0.3763 3.583 2.605 0 2.2263-1.7915 2.6026-3.583 2.6026h-2.3747l-0.63567 0.0085c-0.98044 0-1.6806 0.49323-2.6026 1.2522zm54.479-7.5678c1.1937-0.90709 2.5002-1.7685 3.4221-1.7685h3.7315c1.94 0 3.1486 0.55169 4.6764 1.9169 0.24272 0.21331 0.45603 0.43476 0.64807 0.65658 1.4007-0.92197 4.0557-2.5735 5.5903-2.5735h3.74c1.9378 0 3.1482 0.55169 4.6743 1.9169 2.2578 2.0193 2.1533 4.269 2.2578 7.11l-0.067 15.656c0.0521 1.8585-0.20693 3.8799-2.4626 3.8799-2.0509 0-2.4126-1.7476-2.4647-3.5036v-15.317c-0.1024-3.2297-0.36815-4.4922-3.414-4.4922h-1.6806c-0.52477 0-1.0559 0.16902-1.5786 0.49536l-2.9874 1.9984v16.948c0.0524 1.8585-0.16299 3.8714-2.4187 3.8714-2.0509 0-2.5296-1.7476-2.5816-3.5036l8e-3 -15.317c-0.10453-3.2297-0.36992-4.4922-3.4158-4.4922h-1.681c-0.52263 0-1.0534 0.16902-1.5782 0.49536l-2.4272 2.1448v17.059c0 1.8-0.3678 3.6145-2.5211 3.6145-2.1533 0-2.515-1.8082-2.515-3.606v-22.812c0-1.9106 0.46417-3.0228 2.5214-3.0164 1.896 0.01453 2.4856 0.88618 2.5232 2.6401zm73.425 0.26575c1.4591-0.82594 3.9823-2.0342 5.4563-2.0342h3.7754c1.963 0 3.1858 0.55169 4.7204 1.9169 2.2868 2.0193 2.1823 4.269 2.2868 7.11l-0.0145 15.597c0.0503 1.8648-0.21543 3.9384-2.5002 3.9384-2.0739 0-2.4941-1.8-2.5441-3.5561l0.0145-15.265c-0.10452-3.2297-0.36992-4.4922-3.4515-4.4922h-1.6972c-0.53114 0-1.0623 0.16902-1.5931 0.49536l-4.4465 2.2638v16.887c0 1.8081-0.3763 3.606-2.5526 3.606-2.1742 0-2.5441-1.7979-2.5441-3.606v-22.751c0-1.9106 0.5602-3.0228 2.5441-3.0228 1.8082 0 2.515 1.1498 2.5462 2.9122z" fill="#fff" fill-rule="evenodd" stroke-width="3.543e-5"/>
 <path id="path3807" d="m78.417 20.945c-31.742 0-57.472 25.73-57.472 57.472 0 28.165 20.259 51.594 46.999 56.513v-56.521h20.945v56.521c26.742-4.9252 46.993-28.356 46.993-56.513 0-31.742-25.724-57.472-57.464-57.472zm0-20.945c43.305 0 78.417 35.104 78.417 78.417 0 43.305-35.112 78.417-78.417 78.417-43.313 0-78.417-35.112-78.417-78.417 0-43.313 35.104-78.417 78.417-78.417z" fill="#ffcb04" fill-rule="evenodd" stroke-width="3.543e-5"/>
 <path id="path3809" d="m518.78 96.013v28.438c0.21295 0 5.3245 8e-3 5.5375 0.023 3.2092 0.14634 6.2926 1.158 6.2926 5.2576 0 4.2268-3.4972 5.1637-6.4534 5.2891-0.27993 6e-3 -5.4354 0-5.7008 0h-15.664c-3.0834 0-7.2645-0.66508-7.2645-5.2891 0-4.5135 3.7378-5.2806 7.2645-5.2806h5.4209v-38.503h-5.214c-3.0834 0-7.2645-0.66472-7.2645-5.2887 0-4.5135 3.7463-5.2788 7.2645-5.2788h11.12c0.71681 0 1.2249 0.14634 1.5637 0.40571 2.2868 0.98043 3.0313 3.577 3.0983 6.2529l2.5962-2.1451c2.9707-2.4208 6.0541-4.5135 9.3593-4.5135l8.5316-0.01665c3.6354 0 7.2645 0.76748 7.2645 5.2806 0 4.5135-3.6291 5.2891-7.2645 5.2891h-4.8146l-1.2983 0.01453c-1.9839 0-3.4157 0.98894-5.2806 2.5296zm-113.73-2.0339c0-3.0919 0.88441-3.8569 2.2057-4.8543l3.6436-2.6465c1.7624-1.2104 3.414-1.2104 5.3979-1.2104h3.3176c1.6537 0 3.7481 0.11091 5.0758 1.3213l4.0766 3.533c1.4319 1.3188 1.321 2.9704 1.321 4.9628v6.3928h-25.038zm28.35 40.134c3.0834 0 7.2709-0.66472 7.2709-5.2951 0-4.522-3.7463-5.2891-7.2709-5.2891h-17.102c-3.5249 0-5.6193-0.44114-7.0576-1.9839l-2.6405-2.8683c-0.7735-0.77351-1.5491-2.0944-1.5491-3.0898v-3.5245h28.35c6.2841 0 7.2709-1.7624 7.2709-7.8332v-8.4876c0-5.8408-0.65657-9.9195-5.5088-13.785l-4.3002-3.414c-4.0783-3.3052-6.5034-3.8569-11.688-3.8569h-4.0868c-4.2984 0-6.7252 0.11055-11.688 4.4107l-3.746 3.1925c-4.4111 3.7545-5.1846 7.0576-5.1846 12.685v20.391c0 5.7384 1.2083 8.1634 5.406 11.909l4.5198 3.9678c3.3048 2.8704 5.0673 2.8704 9.4762 2.8704zm-111.01-51.847c0-6.2235-1.7476-7.3233-7.7581-7.3233h-7.1911c-3.5036 0-7.2124 0.76748-7.2124 5.2515 0 4.5865 4.1517 5.243 7.2124 5.243h4.4546v37.922h-8.3055c-3.4951 0-7.2124 0.7611-7.2124 5.243 0 4.5886 4.152 5.2452 7.2124 5.2452h26.669c3.0607 0 7.2124-0.65658 7.2124-5.2452 0-4.4819-3.7169-5.243-7.2124-5.243h-7.8686zm-107.83 40.652-15.192-34.855v-5.36c0-3.7109-0.64985-7.7602-5.3536-7.7602-3.7106 0-5.1342 2.9498-5.1342 6.3429v7.4275c0 1.7539 0.43689 2.6256 1.2019 4.2626l15.629 34.316c0.98043 2.1823 2.8389 6.5558 5.4645 6.5558h6.7691c2.6256 0 4.4841-4.3735 5.4645-6.5558l15.629-34.316c0.76712-1.637 1.2019-2.5087 1.2019-4.2626v-7.4275c0-3.3931-1.4152-6.3429-5.1321-6.3429-4.6995 0-5.3557 4.0493-5.3557 7.7602v5.36z" fill-rule="evenodd" stroke-width="3.543e-5"/>
</svg>
