<?xml version="1.0" encoding="UTF-8"?>
<!-- Generator: Adobe Illustrator 23.0.1, SVG Export Plug-In . SVG Version: 6.00 Build 0)  -->
<svg id="Ebene_1" width="114.7" height="30" xmlns:cc="http://creativecommons.org/ns#" xmlns:dc="http://purl.org/dc/elements/1.1/" xmlns:rdf="http://www.w3.org/1999/02/22-rdf-syntax-ns#" space="preserve" version="1.1" viewBox="0 0 114.7 30" xmlns="http://www.w3.org/2000/svg">
 <metadata id="metadata107">
  <rdf:RDF>
   <cc:Work rdf:about="">
    <dc:format>image/svg+xml</dc:format>
    <dc:type rdf:resource="http://purl.org/dc/dcmitype/StillImage"/>
    <dc:title/>
   </cc:Work>
  </rdf:RDF>
 </metadata>
 <link id="dark-mode" href="" rel="stylesheet" type="text/css"/>
 <style id="dark-mode-custom-style" type="text/css"/>
 <style id="style2" type="text/css">.st0{fill-rule:evenodd;clip-rule:evenodd;fill:#1D1D1B;}
	.st1{fill-rule:evenodd;clip-rule:evenodd;fill:#FFFFFF;}
	.st2{fill-rule:evenodd;clip-rule:evenodd;}
	.st3{fill-rule:evenodd;clip-rule:evenodd;fill:#090908;}
	.st4{fill:#181716;}</style>
 <g id="g44" transform="translate(-2,-19.5)" fill="#fff">
  <path id="path22" d="m17 23.5c-6.1 0-11 4.9-11 11 0 5.4 3.9 9.9 9 10.8v-10.8h4v10.8c5.1-0.9 9-5.4 9-10.8 0-6.1-5-11-11-11m0-4c8.3 0 15 6.7 15 15s-6.7 15-15 15-15-6.7-15-15 6.7-15 15-15"/>
  <polygon id="polygon24" points="80.2 21.3 80.2 25.3 79.8 24.9 76.4 21.3 75.4 21.3 75.4 26.7 76.4 26.7 76.4 22.7 76.8 23.1 80.3 26.7 81.2 26.7 81.2 21.3"/>
  <polygon id="polygon26" points="69.7 25.9 69.7 24.4 72.7 24.4 72.7 23.5 69.7 23.5 69.7 22.1 73.6 22.1 73.6 21.3 68.7 21.3 68.7 26.7 73.6 26.7 73.6 25.9"/>
  <polygon id="polygon28" points="65 21.3 62.9 25 62.6 25.5 62.4 25 60.2 21.3 58.8 21.3 58.8 26.7 59.8 26.7 59.8 22.4 60.1 22.9 62.3 26.7 62.8 26.7 65.1 22.9 65.4 22.4 65.4 26.7 66.4 26.7 66.4 21.3"/>
  <polygon id="polygon30" points="53.1 25.9 53.1 24.4 56.1 24.4 56.1 23.5 53.1 23.5 53.1 22.1 57 22.1 57 21.3 52 21.3 52 26.7 57 26.7 57 25.9"/>
  <path id="path32" d="m50 25.8v-0.5c0-0.6-0.2-1.1-1.3-1.2 1.1-0.2 1.4-0.8 1.4-1.4 0-0.8-0.7-1.5-2.4-1.5h-3v5.5h1v-2.2h1.9c1 0 1.2 0.2 1.3 0.8v0.6c0 0.5 0.2 0.9 0.4 0.9h0.9c-0.1-0.4-0.2-0.6-0.2-1m-4.3-2v-1.6h2.1c0.9 0 1.2 0.4 1.2 0.8s-0.4 0.8-1.1 0.8z"/>
  <path id="path34" d="m41.7 24c0.8-0.2 1.1-0.7 1.1-1.2v-0.1c0-0.8-0.7-1.4-2.1-1.4h-3.3v5.5h3.3c1.4 0 2.1-0.6 2.1-1.5v-0.1c0.1-0.5-0.3-1-1.1-1.2m-3.2-1.9h2.3c0.8 0 1 0.3 1 0.8 0 0.4-0.3 0.8-1.1 0.8h-2.3v-1.6zm3.3 3.1c0 0.4-0.3 0.8-1 0.8h-2.3v-1.5h2.3c0.7-0.1 1 0.2 1 0.7z"/>
  <polygon id="polygon36" points="48.7 36.6 42.9 30.1 37.5 30.1 37.5 46.7 43.4 46.7 43.4 38.9 44.5 40.2 50.3 46.7 55.8 46.7 55.8 30.1 49.8 30.1 49.8 37.9"/>
  <polygon id="polygon38" points="75.7 46.7 75.7 42.1 66.2 42.1 66.2 39.9 73.6 39.9 73.6 36.6 66.2 36.6 66.2 34.3 75.7 34.3 75.7 30.1 59.9 30.1 59.9 46.7"/>
  <polygon id="polygon40" points="84.8 30.1 77.5 30.1 83.6 38.5 77.5 46.7 84.2 46.7 87.6 42.3 90.7 46.7 98 46.7 91.9 38.3 98.1 30.1 91.3 30.1 88 34.5"/>
  <polygon id="polygon42" points="104.5 35 104.5 46.7 111 46.7 111 35 116.7 35 116.7 30.1 98.7 30.1 98.7 35"/>
 </g>
</svg>
