<svg data-name="Ebene 1" version="1.1" viewBox="0 0 90 30" xmlns="http://www.w3.org/2000/svg">
 <path d="m86.2 9.2h3.8v-3.7h-3.8zm0.1 18.4h3.7v-15.5h-3.8zm-11.4-9.1c0-2 0.8-4.1 2.8-4.1s2.6 1.4 2.6 4.1zm8 5.4a6.1 6.1 0 0 1-4 1.2c-2.9 0-3.9-1.6-3.9-4.2h8.9v-0.7c0-6.3-2.9-8.3-6.2-8.3s-6.4 3.6-6.4 8.2 2.2 7.7 7.1 7.7a11.5 11.5 0 0 0 4.6-1zm-20.6 3.7h4l4.1-15.5h-3.6l-2.5 12h-0.1l-2.5-12h-4.2l-2.6 12h-0.1l-2.5-12h-3.8l4.2 15.5h4.1l2.7-12h0.1zm-25.6 0h10.5v-2.9h-6.7l6.5-9.4v-3.2h-10.1v2.8h6.4l-6.6 9.4z"/>
 <g stroke="#000" stroke-miterlimit="10" stroke-width=".5">
  <path d="m68.1 9.2h0.9v-3.2c0-1 0.4-1.4 1.1-1.4s0.9 0.4 0.9 1.2v3.4h0.9v-3.7c0-1.2-0.6-1.7-1.6-1.7a1.4 1.4 0 0 0-1.3 0.9v-0.8h-1v1.1z"/>
  <path d="m65.9 6.4c0-1.6-0.7-2.5-1.9-2.5s-2 1-2 2.7 0.7 2.7 2.1 2.7c0.54924 0.023477 1.0966-0.079146 1.6-0.3v-0.8c-0.35475 0.24287-0.77048 0.38144-1.2 0.4-1 0-1.4-0.6-1.4-1.8h2.8zm-3-0.2c0-1.2 0.5-1.7 1.1-1.7s1 0.6 1 1.7z"/>
  <path d="m53.7 9.2h0.9v-3.3c0-1 0.4-1.4 1-1.4s0.8 0.3 0.8 1v3.7h0.9v-3.3c0-1 0.4-1.4 1-1.4s0.8 0.3 0.8 1v3.7h0.9v-3.7c0-1.2-0.6-1.7-1.5-1.7a1.4 1.4 0 0 0-1.3 0.8 1.4 1.4 0 0 0-2.6 0v-0.7h-0.8v1.1z"/>
  <path d="m51.5 6.4c0-1.6-0.7-2.5-1.9-2.5s-2.1 1.1-2.1 2.7 0.7 2.7 2.1 2.7c0.54924 0.023477 1.0966-0.079146 1.6-0.3v-0.8c-0.35475 0.24287-0.77048 0.38144-1.2 0.4-1 0-1.4-0.6-1.4-1.8h2.9zm-3-0.2c0-1.2 0.5-1.7 1.1-1.7s1 0.6 1 1.7z"/>
  <path d="m43.1 9.2h0.9v-2.8c0-1.2 0.5-1.7 1.2-1.7h0.3v-0.9a1.4 1.4 0 0 0-1.5 0.9v-0.8h-0.8v1.1z"/>
  <path d="m39.1 3.8a1.5 1.5 0 0 0-1.4 0.8v-3.2h-0.9v7.8h0.8v-0.8a1.5 1.5 0 0 0 1.4 0.9c1.1 0 1.8-0.9 1.8-2.7s-0.6-2.8-1.7-2.8zm-0.2 4.8c-0.8 0-1.2-0.7-1.2-2s0.4-2 1.2-2 1.2 0.7 1.2 2-0.4 2-1.2 2z"/>
 </g>
 <path d="m15 4a11 11 0 0 0-2 21.8v-10.8h4v10.8a11 11 0 0 0-2-21.8m0-4a15 15 0 1 1-15 15 15 15 0 0 1 15-15" fill="#544693"/>
</svg>
