<svg width="800mm" height="277.34mm" version="1.1" viewBox="0 0 800 277.34" xmlns="http://www.w3.org/2000/svg">
 <g transform="translate(31.643 123.44)">
  <path d="m768.36-123.19h-183.31l-31.51 235.82h183.31z" fill="#00a983" stroke-width="2.5008"/>
  <g transform="matrix(2.5008 0 0 2.5008 328.72 -976.2)" fill="#003560">
   <path d="m-8.3 380.5h-13.4v-11.5h13.4c3.1 0 5.7 2.7 5.7 5.7 0.1 3.2-2.6 5.8-5.7 5.8m36.3-5.7c0-13.6-11.2-24.8-24.9-24.8h-55.4v76.4h30.6v-36.5l15.3 36.5h32.5l-12.3-29.2c8.4-4 14.2-12.5 14.2-22.4"/>
   <path d="m-100.1 407.4h-13.4v-11.5h13.4c3.1 0 5.7 2.7 5.7 5.7 0.1 3.1-2.6 5.8-5.7 5.8m-13.3-38.3h11.5c3.1 0 5.7 2.7 5.7 5.7 0 3.1-2.7 5.7-5.7 5.7h-11.5zm39.8 16.6c5.8-3.3 9.8-9.5 9.8-16.6 0-10.5-8.6-19.1-19.1-19.1h-61.1v76.4h63c11.6 0 21-9.4 21-21 0.1-8.9-5.6-16.7-13.6-19.7"/>
   <path d="m109.3 380.5h-41.8v-7.6h42.7l3.1-23h-76.4v76.5h30.6v-22.9h38.7z"/>
  </g>
  <g transform="matrix(2.5008 0 0 2.5008 328.72 -976.2)" fill="#00a983">
   <path d="m-134.8 451.7-3.2-5.7h-2.6v5.7h-3.5v-16.3h7.6c3.4 0 5.5 2.2 5.5 5.3 0 2.9-1.8 4.4-3.6 4.9l3.7 6.1h-3.9m0.3-11c0-1.4-1-2.2-2.4-2.2h-3.7v4.4h3.7c1.3-0.1 2.4-0.9 2.4-2.2"/>
   <path d="m-115.5 451.7-1-2.8h-6.9l-1 2.8h-3.9l6.2-16.3h4.4l6.2 16.3h-4m-4.6-12.8-2.6 7h5.1l-2.5-7"/>
   <path d="m-108.9 451.7v-16.3h6.4c5.1 0 8.6 3.3 8.6 8.1 0 5-3.6 8.1-8.6 8.1zm11.5-8.2c0-2.9-1.8-5.1-5.1-5.1h-3v10.2h3c3.2 0 5.1-2.3 5.1-5.1"/>
   <path d="m-90 451.7v-16.3h3.5v16.3h-3.5"/>
   <path d="m-82.9 443.5c0-4.9 3.6-8.4 8.5-8.4s8.5 3.5 8.5 8.4-3.6 8.4-8.5 8.4c-4.9 0.1-8.5-3.4-8.5-8.4m13.4 0c0-3.1-1.9-5.4-5-5.4s-5 2.3-5 5.4c0 3 1.9 5.4 5 5.4s5-2.3 5-5.4"/>
  </g>
  <path d="m734.1-100.93-73.023 53.517 22.257 33.01 38.012-30.259-19.506 135.04h37.985l25.562-191.31z" fill="#fff" stroke-width="2.5008"/>
 </g>
</svg>
