<svg version="1.1" viewBox="0 0 800 725.11" xml:space="preserve" xmlns="http://www.w3.org/2000/svg"><defs><linearGradient id="q" x2="1" gradientTransform="matrix(204.04 -437.56 -437.56 -204.04 238.93 417.99)" gradientUnits="userSpaceOnUse"><stop stop-color="#e42a18" offset="0"/><stop stop-color="#cd0048" offset=".4"/><stop stop-color="#622181" offset="1"/></linearGradient><linearGradient id="p" x2="1" gradientTransform="matrix(179.08 -384.04 -384.04 -179.08 -21.146 324.55)" gradientUnits="userSpaceOnUse"><stop stop-color="#e42a18" offset="0"/><stop stop-color="#cd0048" offset=".4"/><stop stop-color="#622181" offset="1"/></linearGradient><radialGradient id="g" cx="0" cy="0" r="1" gradientTransform="matrix(80.101 0 0 -96.079 35.599 359.16)" gradientUnits="userSpaceOnUse"><stop stop-color="#fff" stop-opacity=".48" offset="0"/><stop stop-color="#fff" stop-opacity="0" offset="1"/></radialGradient><linearGradient id="o" x2="1" gradientTransform="matrix(86.617 -237.98 -237.98 -86.617 16.454 262.45)" gradientUnits="userSpaceOnUse"><stop stop-color="#1a171b" stop-opacity=".55" offset="0"/><stop stop-color="#1a171b" stop-opacity="0" offset="1"/></linearGradient><linearGradient id="n" x2="1" gradientTransform="matrix(203.77 -436.99 -436.99 -203.77 254.13 424.41)" gradientUnits="userSpaceOnUse"><stop stop-color="#e42a18" offset="0"/><stop stop-color="#cd0048" offset=".4"/><stop stop-color="#622181" offset="1"/></linearGradient><linearGradient id="m" x2="1" gradientTransform="matrix(206.01 -441.79 -441.79 -206.01 428.9 509.01)" gradientUnits="userSpaceOnUse"><stop stop-color="#e42a18" offset="0"/><stop stop-color="#cd0048" offset=".4"/><stop stop-color="#622181" offset="1"/></linearGradient><linearGradient id="l" x2="1" gradientTransform="matrix(203.13 -435.62 -435.62 -203.13 430.83 505.31)" gradientUnits="userSpaceOnUse"><stop stop-color="#e42a18" offset="0"/><stop stop-color="#cd0048" offset=".4"/><stop stop-color="#622181" offset="1"/></linearGradient><radialGradient id="f" cx="0" cy="0" r="1" gradientTransform="matrix(-62.062 -59.486 -33.542 34.994 346.6 344.23)" gradientUnits="userSpaceOnUse"><stop stop-color="#fff" stop-opacity=".14" offset="0"/><stop stop-color="#fff" stop-opacity="0" offset="1"/></radialGradient><radialGradient id="e" cx="0" cy="0" r="1" gradientTransform="matrix(-73.527 -70.475 -39.738 41.459 345.43 344.23)" gradientUnits="userSpaceOnUse"><stop stop-color="#fff" stop-opacity=".48" offset="0"/><stop stop-color="#fff" stop-opacity="0" offset="1"/></radialGradient><linearGradient id="k" x2="1" gradientTransform="matrix(42.333 -41.632 -41.632 -42.333 343.27 277.1)" gradientUnits="userSpaceOnUse"><stop stop-color="#1a171b" offset="0"/><stop stop-color="#1a171b" stop-opacity="0" offset="1"/></linearGradient><linearGradient id="j" x2="1" gradientTransform="matrix(.21899 -.46963 -.46963 -.21899 221.96 346.53)" gradientUnits="userSpaceOnUse"><stop stop-color="#e42a18" offset="0"/><stop stop-color="#cd0048" offset=".4"/><stop stop-color="#622181" offset="1"/></linearGradient><linearGradient id="i" x2="1" gradientTransform="matrix(106.78 -117.45 -117.45 -106.78 225.95 387.08)" gradientUnits="userSpaceOnUse"><stop stop-color="#1a171b" stop-opacity=".55" offset="0"/><stop stop-color="#1a171b" stop-opacity="0" offset="1"/></linearGradient><linearGradient id="h" x2="1" gradientTransform="matrix(78.262 -167.83 -167.83 -78.262 326.87 298.68)" gradientUnits="userSpaceOnUse"><stop stop-color="#1a171b" stop-opacity="0" offset="0"/><stop stop-color="#1a171b" stop-opacity=".55" offset="1"/></linearGradient><radialGradient id="d" cx="0" cy="0" r="1" gradientTransform="matrix(194.28 126.94 44.965 -68.819 163.33 390.13)" gradientUnits="userSpaceOnUse"><stop stop-color="#fff" stop-opacity=".6" offset="0"/><stop stop-color="#fff" stop-opacity="0" offset="1"/></radialGradient><radialGradient id="c" cx="2.2204e-16" cy="1.1102e-16" r="1" gradientTransform="matrix(104.92 0 0 -87.394 134.94 -74.834)" gradientUnits="userSpaceOnUse"><stop stop-color="#fff" stop-opacity=".3" offset="0"/><stop stop-color="#fff" stop-opacity="0" offset="1"/></radialGradient><radialGradient id="b" cx="0" cy="0" r="1" gradientTransform="matrix(86.84 0 0 -86.363 385.14 63.436)" gradientUnits="userSpaceOnUse"><stop stop-color="#fff" stop-opacity=".3" offset="0"/><stop stop-color="#fff" stop-opacity="0" offset="1"/></radialGradient><radialGradient id="a" cx="0" cy="0" r="1" gradientTransform="matrix(48.047 0 0 -47.783 469.09 32.107)" gradientUnits="userSpaceOnUse"><stop stop-color="#fff" stop-opacity=".25" offset="0"/><stop stop-color="#fff" stop-opacity="0" offset="1"/></radialGradient></defs><g transform="matrix(1.3333 0 0 -1.3333 56.387 627.24)">
<path d="m557.71 436.47c0-18.722-15.233-33.946-33.991-33.946h-172.48c-18.731 0-33.937 15.224-33.937 33.946 0 18.749 15.206 33.955 33.937 33.955h172.48c18.758 0 33.991-15.206 33.991-33.955" fill="#622181"/><path d="m351.83 420.29c5.9879 0 8.6472 3.5785 10.718 3.5785 1.1958 0 1.9811-0.89238 1.9811-2.3024 0-2.5076-5.6666-5.5685-12.699-5.5685-11.592 0-17.562 9.9769-17.562 20.364 0 10.423 5.9701 20.364 17.821 20.364 7.0945 0 11.592-3.8462 11.592-5.863 0-1.3118-0.77637-2.3737-2.0346-2.3737-2.2399 0-3.3643 3.9533-9.5574 3.9533-8.8882 0-12.529-8.433-12.529-16.081 0-7.6388 3.7748-16.072 12.27-16.072" fill="#fff"/><path d="m384.84 450.97h-0.12493l-7.7013-21.64h15.528zm-11.931-33.099c-0.3748-1.0709-1.0798-1.874-2.4094-1.874-1.3029 0-2.3827 0.80315-2.3827 2.0971 0 0.66036 0.5265 1.9543 0.69606 2.4719l12.422 33.116c0.60683 1.7402 1.642 3.043 3.5428 3.043 1.9276 0 2.9181-1.3029 3.5249-3.043l12.44-33.116c0.17848-0.51758 0.68714-1.8115 0.68714-2.4719 0-1.294-1.0798-2.0971-2.3559-2.0971-1.3564 0-2.0346 0.80315-2.4451 1.874l-2.579 7.1748h-18.562z" fill="#fff"/><path d="m412.18 420.62h7.0855c9.3254 0 12.797 7.8084 12.797 15.974 0 8.1832-3.7034 15.51-13.145 15.51h-6.7375zm-4.9527 33.063c0 1.4992 0.77638 2.6772 2.6325 2.6772h9.7448c11.896 0 17.758-9.2094 17.758-19.766 0-11.994-6.3538-20.257-17.089-20.257h-10.414c-1.8562 0-2.6325 1.1958-2.6325 2.7307z" fill="#fff"/><path d="m449.01 420.96h11.913c1.401 0 2.4273-0.73176 2.4273-2.3113 0-1.5706-1.0262-2.3113-2.4273-2.3113h-14.216c-1.8651 0-2.6415 1.1958-2.6415 2.7218v34.625c0 1.4992 0.77637 2.6772 2.6415 2.6772h14.216c1.401 0 2.4273-0.71391 2.4273-2.3024 0-1.5617-1.0262-2.2845-2.4273-2.2845h-11.913v-13.109h10.842c1.4189 0 2.4273-0.72283 2.4273-2.3024 0-1.5706-1.0084-2.3113-2.4273-2.3113h-10.842z" fill="#fff"/><path d="m475.67 418.65c0-1.6063-0.94593-2.6504-2.4719-2.6504-1.526 0-2.4719 1.0441-2.4719 2.6504v35.151c0 1.9543 0.66929 2.927 2.222 2.927 1.4814 0 2.1506-0.6336 3.516-2.6058l20.221-29.074h0.12493v29.011c0 1.6598 0.95485 2.6682 2.4719 2.6682 1.5081 0 2.4719-1.0084 2.4719-2.6682v-35.115c0-1.999-0.65144-2.9449-2.2399-2.9449-1.4724 0-2.1596 0.63359-3.4982 2.5879l-20.239 29.065h-0.10709z" fill="#fff"/><path d="m523.99 450.97h-0.12493l-7.7013-21.64h15.519zm-11.913-33.099c-0.41942-1.0709-1.0887-1.874-2.4273-1.874-1.3118 0-2.3648 0.80315-2.3648 2.0971 0 0.66036 0.51759 1.9543 0.68714 2.4719l12.422 33.116c0.62467 1.7402 1.6152 3.043 3.5517 3.043 1.9097 0 2.9002-1.3029 3.5249-3.043l12.413-33.116c0.1874-0.51758 0.69606-1.8115 0.69606-2.4719 0-1.294-1.0887-2.0971-2.3738-2.0971-1.3386 0-2.0257 0.80315-2.4005 1.874l-2.6147 7.1748h-18.535z" fill="#fff"/><path d="m200.49 398.65c-60.53-16.946-77.272-83.054-79.467-138.09-2.4719-61.432 9.0309-123.68 31.528-180.86 20.418-51.776 51.901-107.35 101.51-136.53 31.216-18.339 68.598-21.096 100.88-3.5874 30.493 16.473 50.777 47.466 55.301 81.475l0.28557 2.4541 0.17847 1.6063c4.1139 41.023-59.808 47.261-63.645 6.2199l-0.16955-1.6152-0.0803-0.7853c-2.4094-19.65-18.419-39.417-39.756-39.042-24.094 0.4105-45.065 23.952-58.549 41.398-32.751 42.388-52.222 95.539-62.048 147.65-4.7653 25.353-7.1748 51.223-6.6036 77.022 0.48189 23.345 2.0168 49.376 14.144 70.025 27.798 47.412 95.467 3.3108 123.02-21.712-29.02-39.586-35.044-90.051-20.034-136.29l1.2493-3.6498 1.2404-3.4535c12.752-34.053 45.931-68.955 85.749-52.499 40.443 16.768 46.27 68.482 40.818 106.12l-0.58005 3.7123-0.61575 3.5785c-5.6934 31.153-20.302 60.29-39.033 85.678 25.638 16.179 60.53 23.122 87.909 6.9606 26.95-15.956 36.499-48.43 41.282-77.334 5.4525-32.822 3.7748-66.786-4.3816-99.055-7.4246-29.226-20.382-61.289-43.941-81.412l-0.11601-0.11601c-6.9874-5.9968-7.1212-16.991-0.33018-23.157 7.1569-6.4966 16.072-4.1853 22.774 1.4457 18.49 15.501 32.01 36.507 42.147 58.139 21.176 45.003 29.038 96.44 23.782 145.74 0 0.0535-9e-3 0.10709-0.0178 0.16063 9e-3 -0.0535 0.0178-0.0982 0.0178-0.12493-4.8724 45.048-21.658 91.425-63.663 114.6-42.772 23.559-96.03 14.43-135.29-11.833-32.661 31.474-79.315 61.048-126.67 61.057-9.6288 0-19.267-1.2226-28.833-3.8908m163.82-244.99c-9.7716 0.74961-16.625 16.875-19.615 24.38l-0.99054 2.6504-0.91024 2.463c-9.7805 28.244-8.9238 59.013 5.8005 85.392 11.86-16.937 21.426-35.954 25.54-56.301l0.57112-2.7842 0.46404-2.7218c2.1417-12.957 2.9538-27.021-1.0352-39.729-1.3297-4.3995-3.8373-11.048-8.4866-13.1-0.44619-0.16063-0.66928-0.24987-1.1601-0.24987h-0.17847m190.63 85.035m-180.32-70.133m179.88 74.229v9e-3 -9e-3m0-9e-3v9e-3 -9e-3m0-0.0268v0.0268-0.0268m0-0.0179v0.0179-0.0179m9e-3 -0.0268c0 9e-3 0 0.0179-9e-3 0.0268 9e-3 -9e-3 9e-3 -0.0178 9e-3 -0.0268m0-0.0178v0.0178-0.0178m0.0178-0.16063c-9e-3 0.0625-0.0178 0.11601-0.0178 0.16063 0-0.0446 9e-3 -0.0982 0.0178-0.16063m0-0.0357v0.0357-0.0357m9e-3 -0.0625c0 0.0179 0 0.0446-9e-3 0.0625 9e-3 -0.0178 9e-3 -0.0446 9e-3 -0.0625m0-0.0179v0.0179-0.0179m0.0268-0.20525c-9e-3 0.0714-0.0179 0.14279-0.0268 0.20525 9e-3 -0.0625 0.0178-0.13385 0.0268-0.20525m9e-3 -0.0892c-9e-3 0.0268-9e-3 0.0625-9e-3 0.0892 0-0.0268 0-0.0625 9e-3 -0.0892m0.0446-0.4105c-0.0179 0.16063-0.0357 0.29449-0.0446 0.4105 9e-3 -0.12494 0.0268-0.2588 0.0446-0.4105m0-0.0535v0.0535-0.0535m9e-3 -0.0803c0 0.0268 0 0.0535-9e-3 0.0803 9e-3 -0.0268 9e-3 -0.0536 9e-3 -0.0803m0.0268-0.17848c-9e-3 0.0536-0.0178 0.11601-0.0268 0.17848 9e-3 -0.0625 0.0178-0.11601 0.0268-0.17848m0.0179-0.20524c-9e-3 0.0714-0.0179 0.14278-0.0179 0.20524 0-0.0714 9e-3 -0.13385 0.0179-0.20524m0.0178-0.16063c-9e-3 0.0535-9e-3 0.10708-0.0178 0.16063 9e-3 -0.0536 9e-3 -0.10709 0.0178-0.16063m0-0.0357v0.0357-0.0357m0.0446-0.34803c-0.0178 0.11601-0.0268 0.23202-0.0446 0.34803 0.0179-0.11601 0.0268-0.22309 0.0446-0.34803m0-0.0535v0.0535-0.0535m9e-3 -0.10709c0 0.0357 0 0.0714-9e-3 0.10709 9e-3 -0.0357 9e-3 -0.0714 9e-3 -0.10709m0.0179-0.0892c-9e-3 0.0357-9e-3 0.0625-0.0179 0.0892 9e-3 -0.0268 9e-3 -0.0535 0.0179-0.0892m9e-3 -0.12493c0 0.0446-9e-3 0.0803-9e-3 0.12493 0-0.0446 9e-3 -0.0803 9e-3 -0.12493m0.0268-0.23202c-9e-3 0.0803-0.0179 0.1517-0.0268 0.23202 9e-3 -0.0803 0.0178-0.16063 0.0268-0.23202m9e-3 -0.0892c0 0.0268-9e-3 0.0625-9e-3 0.0892 0-0.0268 9e-3 -0.0625 9e-3 -0.0892m0.0357-0.29449c-0.0178 0.0982-0.0268 0.19633-0.0357 0.29449 9e-3 -0.10709 0.0178-0.20525 0.0357-0.29449m0-0.0803v0.0803-0.0803m0.0178-0.11601c-9e-3 0.0357-9e-3 0.0803-0.0178 0.11601 9e-3 -0.0357 9e-3 -0.0803 0.0178-0.11601m0.0268-0.27664c-9e-3 0.0803-0.0178 0.17848-0.0268 0.27664 9e-3 -0.0892 0.0178-0.1874 0.0268-0.27664m0.0178-0.11601c-9e-3 0.0357-9e-3 0.0803-0.0178 0.11601 9e-3 -0.0446 9e-3 -0.0803 0.0178-0.11601m0-0.0178v0.0178-0.0178m0.0178-0.17847c-9e-3 0.0625-0.0178 0.12493-0.0178 0.17847 9e-3 -0.0625 9e-3 -0.12493 0.0178-0.17847m0-0.0357v0.0357-0.0357" fill="url(#q)"/><path d="m18.764 331.76-0.31234-1.5706c-1.1779-5.8987-2.2042-11.833-3.0877-17.758-9.8698-47.885-28.565-94.878-55.551-135.76l-0.16955-0.24987c-3.7659-5.7023-1.8383-13.636 4.1139-17 5.854-3.3197 11.253-0.821 16 2.9716 12.476 9.9412 23.443 21.756 33.063 34.446 8.1564-84.179 34.58-168.06 74.345-242.72l3.052-5.6666c9.1023-16.438 25.933-27.78 44.958-18.553 16.643 8.0225 22.997 29.11 13.511 44.923-0.72284 1.2136-1.6866 2.8824-2.5612 4.4262l-2.6593 4.8278c-54.685 100.34-91.568 222.6-74.443 337.32l0.0089 0.0892c3.8462 18.758-11.351 30.136-26.129 30.127-10.816 0-21.417-6.095-24.139-19.856" fill="url(#p)"/><path d="m65.275 305.01c0.90131 3.0252 1.8919 6.2021 2.7932 9.3879 0.31234 2.347 0.61575 4.685 0.95485 6.9963l0.01785 0.0892c0.19632 1.0173 0.33911 1.9811 0.42834 2.9181 0 0 0.01785 0.0446 0.03569 0.0536v0.0982c0.46404 5.0777-0.62467 10.004-2.927 14.251-0.0357 0.0982-0.09816 0.17847-0.12493 0.27664-0.12493 0.20524-0.23202 0.35695-0.33911 0.55327-7.1569 11.235-23.657 15.224-35.294 9.0934-6.0504-3.5695-10.575-9.5753-12.056-16.964l-0.31234-1.5706c-1.1779-5.9076-2.2042-11.842-3.0966-17.767-0.13386-0.64252-0.24987-1.2672-0.38373-1.8919-0.33018-1.5974-0.73176-3.2215-1.0887-4.8367-0.26772-1.169-0.51758-2.3559-0.79422-3.5338-0.27664-1.2047-0.58005-2.3916-0.85669-3.6052-2.9716-12.235-6.5144-24.371-10.637-36.329 14.912-4.2656 26.995-8.5758 39.863-12.172 2.7039 5.8719 20.052 42.397 23.818 54.953" fill="url(#g)"/><path d="m86.433 120.81c-12.752 35.785-24.228 71.221-26.763 154.18-0.02677 1.2136-0.23202 2.338-1.3653 2.5522-1.526 0.2231-3.2661-2.5611-7.1569-11.762-9.4236-22.381-20.266-44.236-34.544-63.957-1.2315-1.6777-2.5076-3.3464-3.7837-4.9884 0.26772-2.8289 0.5622-5.6309 0.87454-8.4241 0.02677-0.16063 0.06247-0.33018 0.06247-0.49974 2.222-19.641 5.4257-39.078 9.5753-58.291 7.0945-32.599 16.554-64.511 28.19-95.619 3.0609-8.1921 6.2645-16.348 9.6288-24.442 17.098 5.0063 42.058 16.5 58.094 23.104-12.832 28.324-23.987 57.88-32.813 88.15" fill="url(#o)"/><path d="m374.13 167.01c-0.79423-2.6772-0.38373-1.3386 0.0268 0 0.24094 0.77638 0.47296 1.5528 0.46404 1.5528 0 0-0.13386-0.41942-0.49081-1.5528" fill="url(#n)"/><path d="m554.94 238.73c-0.0178 0.11601-0.0357 0.23202-0.0625 0.34803 0-0.11601 0.0357-0.24094 0.0625-0.34803m0.0179-0.27664c0 0.0714 0 0.15171-0.0179 0.23202v0.0446c9e-3 -0.0892 9e-3 -0.17848 0.0179-0.27664" fill="url(#m)"/><path d="m554.87 239.07c0-0.12493 0.0446-0.26772 0.0625-0.39265-0.0892 0.87454-0.13386 1.2493-0.13386 1.2493s0.0268-0.32126 0.0714-0.85669" fill="url(#l)"/><path d="m221.11 346.13c0.24987 0.0446 0.91023 0.16063 1.9276 0.33018-0.65144-0.0982-1.294-0.20525-1.9276-0.33018" fill="url(#j)"/><path d="m184.89 303.16c2.0346 8.0225 4.926 15.76 9.0934 22.836 12.012 20.427 31.394 23.862 51.794 19.124 16.83 14.055 31.421 28.69 43.316 43.156-28.066 12.868-58.746 18.695-88.605 10.378-54.864-15.34-73.747-71.123-78.458-122.4 19.579 5.631 40.996 14.698 62.86 26.905" fill="url(#d)"/><path d="m310.65 294.8c4.1853 6.6483 10.021 14.778 17.839 23.175-42.754 31.207-94.468 30.243-105.35 28.512 31.805 4.81 73.64-23.862 93.879-42.21-2.2577-3.1055-4.3638-6.2645-6.3627-9.4771" fill="url(#i)"/><path d="m76.894-25.776c3.3107-6.7643 6.7286-13.493 10.28-20.114l3.043-5.6577c9.1113-16.447 25.933-27.78 44.949-18.553 16.652 8.0225 22.997 29.11 13.529 44.923-0.74068 1.2136-1.6955 2.8824-2.579 4.4262l-2.6504 4.8278c-5.2472 9.6199-10.316 19.445-15.197 29.431-0.77638 0.02677-1.5706 0.04462-2.3291 0.04462-22.452 0-41.585-16.348-49.045-39.327" fill="url(#c)"/><path d="m347.05 31.345-0.16955-1.6241-0.0803-0.7853c-1.6509-13.457-9.6913-26.959-21.435-34.009 9.4147-16.09 25.326-26.682 43.361-26.682 8.906 0 17.277 2.5968 24.612 7.1212 8.8525 13.689 14.715 29.333 16.893 45.69l0.28557 2.4541 0.17847 1.6063c4.1139 41.023-59.808 47.261-63.645 6.2288" fill="url(#b)"/><path d="m497.11 98.944c-7.4514-16.116-17.286-31.082-30.43-42.308l-0.11601-0.12493c-6.9874-5.9879-7.1123-16.982-0.33018-23.148 7.148-6.4966 16.072-4.1853 22.774 1.4457 14.992 12.565 26.718 28.753 36.052 45.949-7.3443 9.138-17.018 15.635-27.95 18.187" fill="url(#a)"/><path d="m348.6 268.55c11.851-16.937 21.417-35.954 25.54-56.301l0.57113-2.7753 0.45511-2.7307c2.1417-12.948 2.9538-27.021-1.0262-39.729-1.3386-4.4084-3.8462-11.048-8.4955-13.1 9.6556 3.1858 50.438 46.529-6.2199 129.5-7.3265-8.4955-10.825-14.867-10.825-14.867" fill="url(#h)"/><path d="m407.09 363.5c-2.115-0.46404-4.2478-0.98162-6.3538-1.5884-13.662-3.8194-25.62-9.0577-36.097-15.063-0.19632-0.13386-0.38372-0.24095-0.58897-0.35696-1.5081-0.88346-2.9984-1.7758-4.4441-2.7128-0.3748-0.23202-0.74068-0.45512-1.1066-0.68714-24.639-15.786-39.881-35.454-48.251-48.921-3.3108-5.4614-6.2556-11.057-8.79-16.804l38.613-29.484c1.9811 7.1034 4.801 14.019 8.5223 20.668 0 0 5.5328 10.129 17.339 21.881 11.833 11.735 19.882 17.045 19.882 17.045 15.474 9.7805 34.339 16.179 52.927 16.134z" fill="url(#f)"/><path d="m407.09 363.5c-2.115-0.46404-4.2478-0.98162-6.3538-1.5884-13.662-3.8194-25.62-9.0577-36.097-15.063-0.19632-0.13386-0.38372-0.24095-0.58897-0.35696-1.5081-0.88346-2.9984-1.7758-4.4441-2.7128-0.3748-0.23202-0.74068-0.45512-1.1066-0.68714-24.639-15.786-39.881-35.454-48.251-48.921-3.3108-5.4614-6.2556-11.057-8.79-16.804l38.613-29.484c1.9811 7.1034 4.801 14.019 8.5223 20.668 0 0 5.5328 10.129 17.339 21.881 11.833 11.735 19.882 17.045 19.882 17.045 15.474 9.7805 34.339 16.179 52.927 16.134z" fill="url(#e)"/><path d="m343.59 258.1c9e-3 0.10709 0.0625 0.19632 0.10709 0.29449-0.0446-0.0982-0.0982-0.1874-0.10709-0.29449" fill="#009b4c"/><path d="m394.28 312.28c0.31233 0.16063 0.62467 0.33911 0.94593 0.49974-0.32126-0.16063-0.6336-0.33911-0.94593-0.49974" fill="#009b4c"/><path d="m397.51 313.91c0.19632 0.0982 0.43727 0.16955 0.62467 0.27664-0.1874-0.10709-0.42835-0.17848-0.62467-0.27664" fill="#009b4c"/><path d="m345.98 263.54c-0.12493-0.25879-0.23202-0.49974-0.34803-0.77637 0.11601 0.27663 0.2231 0.51758 0.34803 0.77637" fill="#009b4c"/><path d="m308.2 290.65c0.60682 1.0709 1.2136 2.115 1.8383 3.1234-0.62467-1.0084-1.2315-2.0525-1.8383-3.1234" fill="#009b4c"/><path d="m305.85 286.41c0.60682 1.1244 1.2315 2.2667 1.8562 3.3732-0.62467-1.1066-1.2493-2.2488-1.8562-3.3732" fill="#009b4c"/><path d="m303.63 281.99c0.57113 1.2404 1.2136 2.4808 1.8472 3.7123-0.6336-1.2404-1.2761-2.4719-1.8472-3.7123" fill="#009b4c"/><path d="m421.44 321.88c-0.0446-9e-3 -0.0892-9e-3 -0.10709-9e-3 0.0179 0 0.0625 0 0.10709 9e-3" fill="#009b4c"/><path d="m411.3 319.27c-0.16063-0.0446-0.33018-0.10709-0.49081-0.13386 0.16063 0.0268 0.33018 0.0892 0.49081 0.13386" fill="#009b4c"/><path d="m424.72 322.46c0.0446 0.0446 0.12493 0.0446 0.21417 0.0625-0.0892-0.0178-0.16955-0.0625-0.21417-0.0625" fill="#009b4c"/><path d="m391.35 310.75c0.34803 0.16955 0.66036 0.35695 0.98162 0.50866-0.32126-0.15171-0.63359-0.33911-0.98162-0.50866" fill="#009b4c"/><path d="m408.12 318.26c-0.2231-0.0982-0.43727-0.1874-0.66929-0.26772 0.23202 0.0803 0.44619 0.16956 0.66929 0.26772" fill="#009b4c"/><path d="m388.52 309.13c0.29449 0.1874 0.58897 0.33911 0.85669 0.51758-0.26772-0.17847-0.5622-0.33018-0.85669-0.51758" fill="#009b4c"/><path d="m404.87 317.03c-0.1874-0.0625-0.3748-0.13386-0.5622-0.17848 0.1874 0.0446 0.3748 0.11601 0.5622 0.17848" fill="#009b4c"/><path d="m374.71 209.47 0.45511-2.7307c1.8205-10.932 2.6593-22.658 0.49081-33.723l51.981 23.702c-0.2231 6.1218-0.79422 12.145-1.5974 17.785l-0.58005 3.7123-0.61575 3.5785c-5.6934 31.153-20.302 60.29-39.024 85.678 0 0-8.0493-5.3097-19.882-17.045-11.806-11.753-17.339-21.881-17.339-21.881 11.851-16.937 21.417-35.954 25.54-56.301z" fill="url(#k)"/><path d="m302.01 278.43c0.42834 1.0262 0.88346 2.0793 1.41 3.1234-0.52651-1.0441-0.99055-2.0614-1.4724-3.1234z" fill="#009b4c"/>
</g></svg>
