<svg width="800" height="335.03" version="1.1" viewBox="0 0 639.99 268.03" xmlns="http://www.w3.org/2000/svg">
 <g transform="matrix(1.5754 0 0 1.5754 4.0569 .00093312)" fill="#fff" stroke-width=".42618">
  <path d="m85.344 0.19783c3.5842-0.60944 7.6371 0.14064 10.211 2.8682 0.87793 1.0825 1.7431 2.5699 1.1294 3.9805-0.40487 1.2146-1.9008 1.4192-2.9875 1.189-1.5556-0.60518-1.9817-2.5102-3.3796-3.337-1.2231-0.65632-2.7062-0.93333-4.0402-0.46454-2.5358 0.6691-4.0317 3.2645-4.3257 5.7279-0.22588 2.54-0.14916 5.3954 1.5513 7.4624 1.7559 2.1607 5.5915 2.8 7.488 0.48584 1.0697-1.0314 1.7005-3.0514 3.4904-2.8767 1.0697-0.05114 2.0755 0.65632 2.4207 1.6621 0.07671 2.7872-2.1991 4.9863-4.6155 5.9793-2.1948 1.0058-4.6795 0.93334-7.0234 0.69894-3.5756-0.48158-6.9126-2.979-7.9056-6.5206-1.2317-4.0913-1.1209-8.8944 1.2871-12.555 1.4788-2.3184 4.0104-3.8399 6.6996-4.3002z"/>
  <path d="m128.97 1.5744c0.40487-1.4788 2.182-1.5087 3.435-1.4618 1.1507-0.080974 2.4761 0.31964 2.898 1.5087 2.1394 5.7193 4.1297 11.498 6.235 17.23 0.37504 1.0271 0.79696 2.1096 0.57108 3.2219-0.65205 1.7303-3.3412 2.165-4.4536 0.69894-0.69467-1.368-1.0228-2.8895-1.645-4.2916-2.7276 0.03409-5.4594 0.01705-8.1869 0.0085-0.51994 1.4234-0.93333 2.8938-1.5811 4.2703-1.01 1.3851-3.7078 1.189-4.3513-0.47306-0.31963-1.0527 0.0213-2.1437 0.39635-3.1282 2.263-5.8472 4.3939-11.746 6.6825-17.584m3.0472 4.6155c-0.92907 2.817-1.8496 5.6341-2.8256 8.4341h5.5276c-0.94186-2.8-1.7814-5.6298-2.702-8.4341z"/>
  <path d="m260.74 2.4054c-4e-3 -2.0712 2.5912-2.6253 4.1979-2.1479 1.0953 0.23866 1.6706 1.27 2.2119 2.1522 2.7616 4.5942 5.6938 9.0862 8.4213 13.697 0.11933-4.7008-0.0341-9.4101 0.0767-14.111 0.0213-1.7857 2.3824-2.2886 3.7248-1.6195 0.98874 0.3793 1.2785 1.53 1.2146 2.4932-0.017 5.9623 9e-3 11.925-9e-3 17.883 9e-3 1.1592-0.58387 2.4122-1.7729 2.7318-1.3723 0.28128-3.2091 0.37078-4.0274-1.0186-3.0856-4.7604-6.0645-9.5933-9.1202-14.371 0 4.5005 0.0383 9.0052-9e-3 13.51-0.0298 2.4335-4.0274 2.7957-4.8244 0.67336-0.2003-0.92055-0.12359-1.8709-0.13637-2.8043 0.0469-5.6895-0.0554-11.379 0.0511-17.069z"/>
  <path d="m313.51 2.3586c0.32389-1.0228 0.93333-2.1778 2.1692-2.1863 1.5854-0.13212 3.8697-0.32816 4.5346 1.5215 2.1863 5.86 4.2277 11.771 6.3799 17.644 0.32816 0.91629 0.68615 1.969 0.30259 2.9236-0.77991 1.807-3.8569 1.905-4.5985 0.02557-0.51994-1.2444-0.88646-2.5443-1.3808-3.7973-2.7276 0.01279-5.4508 0.0085-8.1741 0.0043-0.60091 1.4703-0.993 3.0301-1.726 4.4408-1.01 0.97169-2.9321 1.0015-3.8995-0.04262-0.6478-0.93334-0.44749-2.1863-0.14064-3.2049 2.165-5.7833 4.3854-11.545 6.5333-17.328m3.4009 3.8782c-0.9589 2.8-1.8581 5.6171-2.8298 8.4128 1.8368-0.04262 3.6779-0.02983 5.519-0.01705-0.91629-2.7915-1.7942-5.6-2.6892-8.3957z"/>
  <path d="m169.58 0.90103c1.7303-0.66058 3.6396-0.22161 5.4508-0.34094 3.4009-0.089498 7.1939-0.14064 9.9769 2.1437 3.0301 2.4633 3.6396 6.7038 3.4393 10.377-0.17473 3.3967-1.6621 6.9382-4.7306 8.6813-3.6694 2.0883-8.0548 1.3808-12.091 1.4874-1.3894 0.11507-3.06-0.51994-3.2177-2.0968-0.11933-5.8046 0-11.622-0.0554-17.431-0.0384-1.0228 0.13638-2.3994 1.2274-2.8213m4.1126 4.0402c0.0213 4.6539-0.0597 9.312 0.0384 13.966 1.9519-0.10654 3.9592 0.19178 5.8685-0.31964 2.5741-0.9035 3.4222-3.8484 3.5373-6.3117 4e-3 -2.2502-0.31111-4.867-2.1565-6.3927-2.1096-1.5726-4.867-0.74155-7.2877-0.94186z"/>
  <path d="m215.78 3.7479c-0.0469-1.4064 0.63075-3.0557 2.2374-3.1537 4.1297-0.09376 8.2679 0.004262 12.402-0.04688 0.96317 0.025571 2.1906-0.089498 2.8512 0.78417 0.56682 0.92481 0.5242 2.3866-0.43044 3.0514-0.74156 0.39635-1.6024 0.38356-2.4122 0.39209-3.1495-0.021309-6.2947-0.012785-9.4399-0.00852 9e-3 1.5769 9e-3 3.1537-4e-3 4.7306 2.8724 0.04688 5.7449-0.034094 8.6174 0.034094 0.84383 0.11933 2.084 0.098021 2.4164 1.0868 0.32816 1.0058 0.23014 2.7403-1.1336 2.8511-3.2901 0.15342-6.593 0.01278-9.8874 0.05967-4e-3 1.8454-0.0128 3.6907 9e-3 5.5361 3.4222 0.0085 6.8487 0 10.271 0 0.84384 0.01279 1.9434 0.01279 2.3738 0.89924 0.24718 0.75008 0.27701 1.5897-0.017 2.3312-0.61796 0.89498-1.7772 0.94186-2.7616 0.96317-3.6992 0.01705-7.3942 0-11.093 0.0085-1.0441-0.0554-2.2289 0.06393-3.0855-0.65206-0.87367-0.78417-0.86515-2.0627-0.93334-3.1409 0.0213-5.242-0.0256-10.488 0.0213-15.726z"/>
 </g>
 <g transform="matrix(8 0 0 8 -1409 -1940.1)" fill="#fff">
  <g transform="matrix(.80002 0 0 .80002 152.13 199.22)" fill="#fff" fill-rule="evenodd">
   <path d="m65.834 95.999 27.716-1e-3c1.0051 0 1.8206-0.80494 1.8206-1.7979v-2.234c0-0.993-0.81546-1.7979-1.8206-1.7979h-23.636v-6.7516h20.429c1.0051 0 1.8206-0.80391 1.8206-1.7969v-2.235c0-0.993-0.81546-1.7969-1.8206-1.7969h-20.429v-6.7526h23.637c1.0051 0 1.8206-0.80494 1.8206-1.7979v-2.235c0-0.99197-0.81546-1.7979-1.8206-1.7979h-27.717c-1.0041 0-1.8185 1.0023-1.8185 2.2371v26.521c1e-3 1.2348 0.81546 2.2371 1.8185 2.2371zm33.989 0h2.2587c1.0052 0 1.8206-0.80391 1.8206-1.7969v-23.366h16.159c1.8783 0.0072 3.3989 1.5158 3.3989 3.3768 0 0.962-0.40824 1.831-1.0608 2.4458l-15.348 13.327c-0.81013 0.63501-1.2838 1.6082-1.2845 2.639 0 1.8641 1.5278 3.3748 3.4134 3.3748l19.004-1e-3c1.0031 0 1.8165-0.80494 1.8165-1.7979v-2.234c-3e-3 -0.47977-0.1961-0.93867-0.53678-1.2757-0.34069-0.33702-0.80104-0.52452-1.2797-0.52122l-12.939 0.20253 10.567-8.9339 0.16083-0.12813c2.0701-1.6894 3.3866-4.2417 3.3866-7.0977 0-5.0559-4.1257-9.1592-9.2277-9.2047h-20.308c-0.47902-0.0037-0.93989 0.18352-1.281 0.5206-0.34113 0.33708-0.53452 0.7963-0.53751 1.2764v27.398c0 0.99197 0.81339 1.7959 1.8185 1.7959zm-68.005-0.0093 20.308-1e-3c5.103-0.04547 9.2288-4.1487 9.2288-9.2046s-4.1237-9.1623-9.2566-9.2057l-12.799 0.0031c-1.8773-0.0083-3.4-1.5179-3.4-3.3758 0-1.8599 1.5206-3.3696 3.4-3.3758h20.236c1.0041 0 1.8196-0.80494 1.8196-1.7979v-2.234c0-0.993-0.81546-1.7979-1.8196-1.7979l-20.308 1e-3c-5.103 0.044465-9.2267 4.1487-9.2267 9.2047 0 5.057 4.1237 9.1612 9.2556 9.2046l12.799-0.0031c1.8783 0.0093 3.4 1.519 3.4 3.3768 0 1.8599-1.5216 3.3696-3.4 3.3758h-20.237c-1.0041 0-1.8175 0.80494-1.8175 1.7979v2.234c0 0.993 0.81339 1.7979 1.8175 1.7979z" fill="#fff" fill-rule="nonzero"/>
  </g>
 </g>
</svg>
