<svg width="700.04pt" height="628pt" version="1.1" viewBox="0 0 700.04 628" xmlns="http://www.w3.org/2000/svg">
 <g fill="#fbfcfd">
  <path d="m511.15 0.79023c5.98-1.65 12.91-0.81 17.67 3.41 12.73 11.55 24.26 24.95 31.12 40.88 6.86 15.7 8.55 33.44 5.56 50.27-4 22.86-17.31 43.9-36.16 57.42-6.39 3.9-14.54 3.45-21.47 1.39-4.79-1.29-8.34-4.89-12.04-7.96-21.48-18.16-42.42-36.99-64.18-54.83-4.27-3.71-8.24-9.24-6.71-15.2 1.66-6.49 7.55-10.39 12.32-14.53 20.94-18.35 41.24-37.45 62.62-55.3 3.21-2.78 7.2-4.48 11.27-5.55z"/>
  <path d="m239.37 1.9502c39.83-4.26 80.88 4.4 115.79 24 10.39 5.89 20.22 12.81 28.99 20.92 3.58 3.4 7.55 6.92 9.01 11.82 1.32 4.66-1.12 9.32-4.19 12.69-4.18 4.49-8.66 8.72-13.58 12.39-15.61 13.72-31.18 27.5-46.75 41.27-2.72 2.57-5.81 5.38-9.84 5.16-4.0896 0-9.51-5.86-14.27-8.76-25.92-17.23-62.01-17.72-88.11-0.59-14.4 9.2-25.72 23.17-31.52 39.26-6.19 16.92-6.16 36 0.04 52.91 5.77 15.91 16.94 29.75 31.14 38.93 16.3 10.63 36.62 15.06 55.84 11.82 12.07-2.08 23.88-6.41 34.02-13.36 3.03-1.96 5.37-4.8 8.43-6.7 4.12-2.17 9.22-0.47 12.39 2.63 21.92 19.42 43.94 38.73 65.83 58.18 4.3 3.6 3.35 10.44-0.43 14.05-23.32 22.81-52.72 39.32-84.29 47.48-39.53 10.29-82.36 7.57-120.17-7.93-45.49-18.37-83.23-55.24-102.12-100.58-14.23-33.64-17.92-71.59-10.67-107.38 6.57-32.93 22.54-63.87 45.35-88.49 30.72-33.48 73.91-55.1 119.11-59.72z"/>
  <path d="m513.29 215.86c5.52-1.02 11.6 0.24 15.8 4.11 12.49 11.4 23.83 24.55 30.66 40.18 7.48 16.87 8.98 36.13 5.08 54.1-4.32 20.03-15.79 38.37-31.73 51.21-2.94 2.55-6.32 4.77-10.26 5.3-7.94 1.24-16.88-0.13-23.01-5.67-23-19.29-45.29-39.42-68.49-58.47-4.02-3.6-7.72-8.81-6.5-14.5 1.45-6.59 7.36-10.59 12.17-14.73 20.96-18.36 41.27-37.48 62.67-55.36 3.81-3.32 8.68-5.24 13.61-6.17z"/>
  <g transform="translate(-262.19 -97.79)">
   <path d="m302.96 540.57c15.804-2.9158 32.974 2.3317 44.1 14.009 1.8842 1.8748 1.5592 5.191-0.4428 6.8539-3.4199 2.8829-7.0282 5.5349-10.505 8.3471-1.2106 0.99393-2.6144 1.9832-4.2678 1.8324-2.0915-5e-3 -3.6177-1.611-5.1911-2.7604-5.1675-4.0464-12.036-5.5632-18.48-4.654-7.7348 1.0693-14.786 5.9918-18.593 12.789-2.7227 4.7906-3.8344 10.5-2.9865 15.95 0.98921 6.967 5.1015 13.397 10.943 17.302 7.8619 5.3889 18.908 5.827 27.043 0.77725 2.0632-1.2295 3.8014-3.1561 6.2509-3.613 1.9784-0.39568 3.7543 0.83378 5.1769 2.0585 3.2833 2.8358 6.656 5.5726 9.9252 8.4319 1.9266 1.7099 2.2187 4.9602 0.32974 6.8115-12.483 12.728-32.272 17.278-49.193 11.918-10.943-3.3398-20.599-10.655-26.827-20.246-8.6533-12.978-10.434-30.143-4.8613-44.68 5.9824-15.964 20.722-28.32 37.576-31.127z" stroke-width=".47106"/>
   <path d="m387.07 546.78c0.75842-2.4448 2.9865-4.4656 5.6197-4.4986 5.1628-0.0612 10.33-9e-3 15.493-0.0283 1.936-0.0518 3.9428 0.64535 5.1911 2.1716 1.2624 1.6016 1.7476 3.6318 2.426 5.5161 9.082 25.936 18.164 51.873 27.255 77.809 0.70659 1.9973 1.6817 4.2678 0.77723 6.3593-0.82904 1.936-3.2173 2.2705-5.078 2.3035-4.7059-9e-3 -9.4212 0.0849-14.127-0.0518-2.4448-0.0471-4.72-1.6393-5.5396-3.9475-1.4556-4.0935-2.8264-8.2152-4.1924-12.337-9.2516-0.0192-18.503 0.0237-27.755-0.0235-1.1399 2.7133-1.936 5.549-2.9488 8.3095-0.81964 2.2846-1.3095 4.9037-3.2409 6.5571-1.4179 1.2954-3.4434 1.498-5.2758 1.5027-4.2395-4e-3 -8.4743 0.0149-12.714-4e-3 -1.644-0.0471-3.58-0.21194-4.6917-1.5922-1.2295-1.4462-0.92329-3.5424-0.32976-5.1958 9.7226-27.613 19.403-55.241 29.13-82.85m13.656 26.704c-2.4919 8.6015-5.2476 17.128-7.8337 25.701 5.5255 4e-3 11.046 4e-3 16.572 0-2.8734-8.578-5.582-17.227-8.7381-25.701z" stroke-width=".47106"/>
   <path d="m458.38 547.63c-0.13178-2.3082 1.2483-4.7907 3.6648-5.1958 2.9017-0.37213 5.8458-0.0848 8.7664-0.16957 2.3365 0.0942 4.7483-0.29206 7.0329 0.37684 2.0821 0.6218 3.6554 2.2752 4.8048 4.0605 9.4871 13.891 19.177 27.646 28.57 41.604 0.31562-13.708-0.0518-27.411 0.20257-41.114-0.0755-2.4825 1.8889-4.8048 4.4232-4.8754 4.15-0.14132 8.3047 0 12.459-0.0612 1.6958 0.0188 3.5518-0.15545 5.0356 0.83377 1.6817 1.0363 2.2234 3.1655 2.1904 5.0215-0.0149 27.481-9e-3 54.963-4e-3 82.449 0.0192 1.7618-0.44749 3.7308-1.9502 4.8236-1.5262 1.0882-3.4905 1.0316-5.2805 1.0552-3.1325-0.0281-6.2651 0.0235-9.3929-0.0234-1.8466-0.0149-3.7402-0.48048-5.2099-1.6298-1.3661-1.0222-2.2658-2.5013-3.2079-3.8862-9.3364-13.708-18.729-27.373-28.051-41.09 0.0612 13.279 4e-3 26.563 0.0284 39.847-0.0377 1.7712 0.0612 3.8108-1.2907 5.1675-1.1541 1.3472-3.043 1.5592-4.7012 1.6016-3.7685 0.0235-7.5322-9e-3 -11.296 0.0149-1.757-0.0192-3.6837-0.0565-5.1298-1.1965-1.3378-1.1258-1.7241-2.9724-1.677-4.6399 0.0192-27.661 0-55.316 0.0149-82.972z" stroke-width=".47106"/>
   <path d="m582.7 544.63c1.1494-1.5639 3.0854-2.4024 5.0074-2.3694l15.017-5e-3c1.5828-0.0141 3.2126 0.40511 4.4327 1.4603 1.286 1.041 1.8748 2.6426 2.4165 4.15 9.553 27.335 19.139 54.657 28.692 81.988 0.50876 1.4509 0.75371 3.1561-0.0896 4.5363-0.95625 1.6676-3.076 1.9785-4.8236 2.0208-4.2395 0.0377-8.479 0-12.714 0.0192-1.7288-0.0235-3.6083-0.14137-5.0168-1.2483-1.2483-0.89973-1.9408-2.3223-2.4024-3.7449-1.286-3.7873-2.5531-7.5793-3.8721-11.357-9.2846-4e-3 -18.564-9e-3 -27.844 0-1.286 3.8156-2.572 7.6311-3.8909 11.433-0.55583 1.7052-1.6251 3.3398-3.2691 4.1547-1.7194 0.84318-3.679 0.7584-5.5349 0.76781-3.9946-0.0424-7.9844 0.0377-11.974-0.0377-1.7759-0.0192-3.7732-0.62179-4.6164-2.327-0.38157-1.3048-0.28263-2.7227 0.0802-4.0228 9.3976-26.747 18.79-53.498 28.188-80.249 0.62649-1.7618 1.1117-3.6272 2.214-5.1675m12.554 28.866c-2.6144 8.5685-5.2334 17.132-7.9091 25.682 5.5444 0.0192 11.089 0.0149 16.633 4e-3 -2.9159-8.5591-5.648-17.184-8.724-25.687z" stroke-width=".47106"/>
   <path d="m654.05 543.89c1.0175-1.2342 2.6944-1.644 4.2395-1.6299 13.354 0 26.714-5e-3 40.068 0 7.0188 0.0518 14.122 2.4542 19.37 7.193 4.2584 4.0228 6.9905 9.4777 8.2247 15.168 2.2658 9.407 0.69716 19.883-4.9226 27.854-2.393 3.0524-5.2099 6.0814-8.9548 7.4144 4.1453 9.7933 8.3377 19.568 12.502 29.356 0.68305 1.5592 1.3143 3.5046 0.38157 5.0968-0.84791 1.5828-2.8169 2.0114-4.4609 2.0114-5.045-0.0284-10.09 0.0281-15.135-0.0284-2.7086-0.0849-4.9414-2.1339-5.8364-4.5928-3.6696-9.6096-7.4144-19.186-11.009-28.824-3.8438-0.0565-7.683-9e-3 -11.522-0.0284 0 8.9171-9e-3 17.83 4e-3 26.747 0.0518 1.8984-0.13177 4.0228-1.5545 5.4454-1.1965 1.0834-2.9064 1.319-4.4562 1.286-4.2348-0.0235-8.4696-4e-3 -12.7-4e-3 -1.7146-9e-3 -3.6978-0.52288-4.6022-2.1198-1.1211-1.8089-0.84318-4.0134-0.86674-6.0343 4e-3 -26.685 9e-3 -53.376-4e-3 -80.061-0.0192-1.4885 0.25909-3.0713 1.2342-4.2489m22.945 21.57c4e-3 5.2523-0.0192 10.5 9e-3 15.752 6.0296-9e-3 12.059 0.0188 18.089-0.0141 1.9926-0.24966 4.0699-0.65006 5.6339-2.0161 3.759-2.897 3.8108-9.3646 0.0659-12.285-1.7288-1.3896-4.0699-1.4885-6.1897-1.4461-5.8694 0.0236-11.739 0-17.608 9e-3z" stroke-width=".47106"/>
   <path d="m750.4 542.29c3.9993-0.0989 8.008 5e-3 12.012-0.0424 1.7099 0.0188 3.58-0.16016 5.1204 0.76782 1.6063 0.91856 2.2093 2.8923 2.1998 4.6446-4e-3 26.695-4e-3 53.39 0 80.084-0.0802 2.1574 0.36272 4.5127-0.81493 6.4629-0.98924 1.7665-3.2173 2.1951-5.078 2.2046-4.0699 0.0192-8.1446 0.0235-12.215 0-1.8607-0.0331-4.0935-0.4004-5.111-2.1528-1.1211-1.6393-0.82906-3.6931-0.85732-5.5585 0.0149-27.152-4e-3 -54.308 9e-3 -81.46-0.11301-2.6144 2.0774-5.0121 4.7341-4.9508z" stroke-width=".47106"/>
   <path d="m816.82 544.63c1.1494-1.5639 3.0854-2.4024 5.0073-2.3694l15.017-5e-3c1.5828-0.0141 3.2126 0.40511 4.4327 1.4603 1.286 1.041 1.8748 2.6426 2.4165 4.15 9.553 27.335 19.139 54.657 28.692 81.988 0.50876 1.4509 0.75371 3.1561-0.0896 4.5363-0.95625 1.6676-3.076 1.9785-4.8236 2.0208-4.2395 0.0377-8.479 0-12.714 0.0192-1.7288-0.0235-3.6083-0.14137-5.0168-1.2483-1.2483-0.89973-1.9408-2.3223-2.4024-3.7449-1.286-3.7873-2.5531-7.5793-3.8721-11.357-9.2845-4e-3 -18.564-9e-3 -27.844 0-1.286 3.8156-2.572 7.6311-3.8909 11.433-0.55584 1.7052-1.6251 3.3398-3.2691 4.1547-1.7194 0.84318-3.679 0.7584-5.5349 0.76781-3.9946-0.0424-7.9844 0.0377-11.974-0.0377-1.7759-0.0192-3.7732-0.62179-4.6164-2.327-0.38157-1.3048-0.28265-2.7227 0.0802-4.0228 9.3976-26.747 18.79-53.498 28.188-80.249 0.6265-1.7618 1.1117-3.6272 2.214-5.1675m12.554 28.866c-2.6144 8.5685-5.2334 17.132-7.9091 25.682 5.5444 0.0192 11.089 0.0149 16.633 4e-3 -2.9159-8.5591-5.648-17.184-8.724-25.687z" stroke-width=".47106"/>
   <path d="m894.47 550.97c8.1031-6.4579 18.651-9.0564 28.861-9.1025 11.301 0.26135 22.956 2.8214 32.189 9.6483 2.2063 1.6375 1.845 4.9895 0.2679 6.9499-2.7446 3.6748-5.1893 7.5957-8.1876 11.063-1.8298 2.0988-4.9433 1.4914-7.0038 0.10753-5.4816-3.1751-11.678-5.1663-18.059-5.1279-4.5052 0.18443-9.9406 0.8995-12.516 5.1125-1.2455 1.8297-0.6535 4.2438 1.1303 5.4738 3.9515 2.8138 8.9254 3.4058 13.554 4.4206 8.2183 1.8759 16.514 4.0054 23.986 8.0185 4.0055 2.1603 7.688 5.1586 9.9559 9.1717 4.3976 7.2651 4.3899 16.437 1.8837 24.355-3.014 8.5874-10.817 14.769-19.358 17.352-11.678 3.498-24.186 2.6524-35.964 0.11519-6.6345-1.6529-13.015-4.2591-18.95-7.6418-1.8068-1.0148-3.6825-2.9522-3.1291-5.2047 0.9378-3.0521 3.4597-5.2201 5.2738-7.7418 2.2683-2.5832 3.9978-5.7121 6.7578-7.8186 2.5908-1.7144 5.4277 0.23838 7.7266 1.5222 7.311 4.3591 15.914 6.135 24.355 5.9889 3.2906-0.39209 7.042-0.37674 9.6022-2.8138 1.8914-1.5607 2.2909-4.828 0.4382-6.5655-1.891-1.9373-4.4742-2.9291-6.9422-3.8824-6.8037-2.2757-14.038-2.9214-20.827-5.2586-6.8805-2.2295-13.8-5.1432-19.097-10.217-4.897-4.9357-6.6728-12.232-6.1195-19.02 0.1149-7.4804 4.3747-14.392 10.171-18.905z" stroke-width=".76879"/>
  </g>
  <path d="m282.43 555.33c7.8015-0.10794 15.7 2.1292 22.048 6.7341 7.7277 5.4452 13.264 14.025 14.768 23.376 1.7147 9.3743-0.48831 19.436-6.0527 27.18-4.4402 6.3196-11.004 11.078-18.311 13.548-7.2281 2.3904-15.194 2.4359-22.462 0.17605-8.0911-2.6005-15.251-8.0514-19.81-15.228-5.3203-8.2501-6.8817-18.737-4.5083-28.231 1.6637-6.9952 5.6098-13.372 10.953-18.164 6.2969-5.8767 14.808-9.0791 23.376-9.3914m-2.8049 18.198c-7.8186 1.6069-14.059 8.6135-14.774 16.557-0.59052 6.5638 2.6686 13.36 8.182 16.994 4.5651 3.0945 10.567 4.0995 15.83 2.3507 5.0875-1.499 9.38-5.3827 11.498-10.226 3.0718-6.8192 1.4876-15.404-3.8781-20.628-4.3323-4.3436-10.845-6.3707-16.858-5.0477z" stroke-width=".5678"/>
  <path d="m9.2714 558.32c0.74866-0.90809 1.9825-1.2096 3.1194-1.1992 9.8261 0 19.656-3e-3 29.482 0 5.1643 0.0381 10.391 1.8058 14.252 5.2926 3.1332 2.96 5.1435 6.9736 6.0516 11.16 1.6672 6.9216 0.51297 14.63-3.622 20.494-1.7607 2.246-3.8334 4.4746-6.5888 5.4555 3.0501 7.2058 6.1348 14.398 9.1987 21.6 0.50258 1.1472 0.96702 2.5787 0.28075 3.7502-0.62388 1.1646-2.0727 1.48-3.2823 1.48-3.7121-0.0209-7.4242 0.0207-11.136-0.0209-1.9929-0.0624-3.6358-1.5701-4.2944-3.3793-2.7-7.0706-5.4555-14.117-8.1-21.208-2.8282-0.0416-5.653-6e-3 -8.4778-0.0209 0 6.5611-6e-3 13.119 3e-3 19.68 0.0381 1.3968-0.097 2.96-1.1438 4.0067-0.88037 0.79717-2.1385 0.97047-3.2788 0.94621-3.1159-0.0173-6.2319-3e-3 -9.3443-3e-3 -1.2616-6e-3 -2.7208-0.38472-3.3863-1.5597-0.82491-1.3309-0.62041-2.953-0.63774-4.4399 3e-3 -19.635 6e-3 -39.273-3e-3 -58.908-0.0141-1.0953 0.19064-2.2598 0.90809-3.1263m16.883 15.871c3e-3 3.8646-0.0141 7.7257 6e-3 11.59 4.4365-6e-3 8.8729 0.0141 13.309-0.011 1.4661-0.1837 2.9946-0.47831 4.1453-1.4834 2.7658-2.1316 2.804-6.8904 0.0485-9.0393-1.272-1.0225-2.9946-1.0953-4.5543-1.0641-4.3186 0.0173-8.6372 0-12.956 6e-3z" stroke-width=".3466"/>
  <path d="m93.091 558.86c0.84547-1.1504 2.2696-1.7671 3.6833-1.7429l11.046-3e-3c1.1642-0.011 2.3631 0.29799 3.2606 1.0741 0.94594 0.76578 1.3791 1.9439 1.7775 3.0527 7.027 20.107 14.078 40.204 21.105 60.308 0.37423 1.0672 0.55441 2.3216-0.0659 3.3368-0.7034 1.2266-2.2626 1.4553-3.5482 1.4865-3.1185 0.0278-6.237 0-9.352 0.0141-1.2716-0.0172-2.6542-0.10399-3.6902-0.91823-0.91822-0.66181-1.4276-1.7082-1.7671-2.7547-0.94594-2.7858-1.878-5.5752-2.8482-8.3541-6.8295-3e-3 -13.656-6e-3 -20.482 0-0.94594 2.8066-1.8919 5.6133-2.8621 8.4095-0.40886 1.2543-1.1954 2.4567-2.4047 3.0561-1.2647 0.62022-2.7062 0.55786-4.0714 0.56478-2.9383-0.0312-5.8731 0.0278-8.808-0.0278-1.3063-0.0141-2.7754-0.45737-3.3957-1.7117-0.28067-0.9598-0.20789-2.0028 0.059-2.9591 6.9126-19.674 13.822-39.352 20.734-59.03 0.46084-1.2959 0.81773-2.668 1.6285-3.8011m9.2342 21.233c-1.9231 6.3028-3.8496 12.602-5.8177 18.891 4.0783 0.0141 8.1566 0.011 12.235 3e-3 -2.1448-6.2959-4.1545-12.64-6.4172-18.895z" stroke-width=".3465"/>
  <path d="m151.84 557.12c-1.1108-2e-3 -2.2175 0.039-3.312 0.24034v-2e-3c-1.8715 0.16446-3.0861 2.0471-2.8989 3.8335-0.018 20.422-0.0231 40.844 0 61.26-0.18714 1.8771 1.2704 3.7938 3.2212 3.7938h24.968c16.86-0.91 30.801-16.447 31.251-33.097 1.01-17.59-13.27-35.239-31.22-36.029l-22.009-2e-5zm18.925 17.72c2.6916 0.0611 5.3304 0.37683 7.7334 1.7389 6.54 3.41 10.03 11.44 8.5005 18.59-1.18 6.15-6.0597 11.519-12.16 13.069-1.4977 0.28303-3.0105 0.38072-4.5302 0.38072h-6.9938c7e-3 -11.259 0.0113-22.518 0.0117-33.779z"/>
  <path d="m219.35 557.34c2.1916-0.40312 4.4344-0.16474 6.6544-0.22154 2.0894 0.0398 4.2811-0.22154 6.2854 0.53938 1.5274 0.72109 1.9702 2.538 1.8794 4.0881-0.0231 20.264 0.0231 40.528-0.0231 60.787 0.12491 2.0156-1.5671 3.9291-3.6281 3.8098-3.6168 0.018-7.2392 0.0738-10.845-0.0342-1.9532 0-3.4124-1.9191-3.225-3.7985-0.0231-20.44-0.018-40.886 0-61.332-0.18736-1.7885 1.0277-3.6736 2.9014-3.8382z" stroke-width=".56778"/>
 </g>
 <g transform="translate(-262.19 -97.79)">
  <path d="m656.41 206.58c7.6-2.27 15.97 0.24 22.28 4.7 22.29 18.32 43.33 38.09 65.15 56.95 5 4.18 11.23 8.67 11.7 15.77 0.25 7.24-5.86 12.35-11.08 16.38-22.13 18.17-43.48 37.27-65.55 55.53-4.14 3.53-9.62 5-14.94 5.43-5.13 0.32-10.64-0.3-14.9-3.42-16.26-11.96-28.49-29.4-33.84-48.9-4.19-15.53-4.37-32.27 0.04-47.77 4.96-17.47 15.84-32.65 28.69-45.23 3.75-3.58 7.3-7.87 12.45-9.44z" fill="#ff6219"/>
 </g>
</svg>
