<svg enable-background="new 0 0 202 164" version="1.1" viewBox="0 0 800 639.8" xml:space="preserve" xmlns="http://www.w3.org/2000/svg">
<g transform="matrix(4.2623 0 0 4.2623 -25.007 -39.026)">
	<path d="m117.48 49.72c-5.453-13.697-18.89-13.17-18.89-13.17-11.055 0-20.019 8.962-20.019 20.02 0 11.056 8.964 20.018 20.019 20.018 0 0 13.437 0.526 18.89-13.17l-9.222-4.214c-2.365 7.665-9.668 7.376-9.668 7.376-5.528 0-10.009-4.481-10.009-10.009 0-5.529 4.48-10.011 10.009-10.011 0 0 7.303-0.288 9.668 7.375z" fill="#f60"/>
	<path d="m93.584 9.156h10.009v22.654s-5.004-1.196-10.009 0z" fill="#f60"/>
	<path d="m103.59 103.98h-10.009v-22.652s5.005 1.196 10.009 0z" fill="#f60"/>
	<path d="m51.178 61.574v-10.01h22.652s-1.196 5.005 0 10.01z" fill="#f60"/>
	<path d="m146 51.564v10.01h-22.653s1.197-5.004 0-10.01z" fill="#f60"/>
	<path d="m128.58 19.504 7.075 7.078-16.016 16.019s-2.692-4.386-7.078-7.079z" fill="#f60"/>
	<path d="m68.604 93.635-7.079-7.079 16.019-16.018s2.693 4.384 7.079 7.077z" fill="#f60"/>
	<path d="m61.524 26.582 7.079-7.078 16.019 16.018s-4.386 2.693-7.079 7.079z" fill="#f60"/>
	<path d="m135.65 86.556-7.075 7.079-16.019-16.02s4.386-2.693 7.078-7.077z" fill="#f60"/>
	<path d="m18.783 126.31 2.231-0.451c-0.932-4.155-3.362-6.303-7.093-6.303-2.092 0-3.983 0.82-5.367 2.318-1.783 1.921-2.687 4.551-2.687 7.856 0 6.387 3.137 10.201 8.054 10.201 3.73 0 6.218-2.204 7.151-6.387l-2.178-0.481c-0.765 3.195-2.459 4.833-4.974 4.833-3.278 0-5.454-2.966-5.454-8.166s2.204-8.169 5.454-8.169c2.488 1e-3 4.241 1.669 4.863 4.749z" fill="#fff"/>
	<path d="m31.922 132.22v0.763c0 2.827-2.035 5.116-4.578 5.116-1.894 0-3.024-1.046-3.024-2.629 0-2.147 2.006-3.306 5.905-3.306 0.538 0 1.102 0 1.697 0.056zm0.339 7.348h2.177c-0.312-0.904-0.396-1.866-0.396-2.969v-6.217c0-3.928-1.583-5.736-5.368-5.736-3.591 0-5.709 1.355-6.304 3.955l2.064 0.312c0.396-1.724 1.667-2.517 3.87-2.517 2.459 0 3.618 1.074 3.618 3.252v0.904c-0.423-0.029-0.849-0.029-1.243-0.029-5.795 0-8.734 1.696-8.734 4.975 0 2.544 2.008 4.408 4.976 4.408 2.204 0 4.012-1.131 5.002-3.08-1e-3 0.988 0.111 1.922 0.338 2.742z" clip-rule="evenodd" fill="#fff" fill-rule="evenodd"/>
	<path d="m36.86 139.57h2.119v-8.027c0-3.023 1.865-5.086 4.184-5.086 1.894 0 2.995 1.326 2.995 3.729v9.384h2.091v-9.186c0-3.787-1.639-5.736-4.719-5.736-2.006 0-3.505 0.988-4.691 3.082v-2.686h-1.979z" fill="#fff"/>
	<path d="m60.18 132.22v0.763c0 2.827-2.034 5.116-4.578 5.116-1.894 0-3.023-1.046-3.023-2.629 0-2.147 2.007-3.306 5.906-3.306 0.536 0 1.102 0 1.695 0.056zm0.339 7.348h2.176c-0.312-0.904-0.396-1.866-0.396-2.969v-6.217c0-3.928-1.58-5.736-5.368-5.736-3.59 0-5.708 1.355-6.303 3.955l2.064 0.312c0.395-1.724 1.668-2.517 3.871-2.517 2.459 0 3.617 1.074 3.617 3.252v0.904c-0.424-0.029-0.848-0.029-1.243-0.029-5.793 0-8.731 1.696-8.731 4.975 0 2.544 2.007 4.408 4.973 4.408 2.204 0 4.014-1.131 5.002-3.08-1e-3 0.988 0.111 1.922 0.338 2.742z" clip-rule="evenodd" fill="#fff" fill-rule="evenodd"/>
	<polygon points="65.205 139.57 67.353 139.57 67.353 119.95 65.205 119.95" fill="#fff"/>
	<path d="m69.706 133.94c0.934 3.787 4.183 5.991 9.158 5.991 2.684 0 4.943-0.819 6.555-2.316 1.243-1.16 1.921-2.714 1.921-4.353 0-1.752-0.648-3.194-1.893-4.184-1.525-1.215-3.307-1.525-5.228-2.006-2.319-0.564-3.589-0.621-3.589-1.78 0-0.763 0.819-1.413 2.006-1.413 1.611 0 2.571 0.566 3.165 1.979l5.001-1.441c-1.242-3.193-3.928-4.917-7.771-4.917-5.229 0-8.423 2.771-8.423 6.499 0 3.222 2.15 4.806 6.587 5.936 2.6 0.677 3.983 0.621 3.983 2.062 0 0.764-0.82 1.358-2.204 1.358-2.118 0-3.334-0.821-3.759-2.459z" fill="#fff"/>
	<path d="m103.13 125.04h-5.567v8.93c0 1.355-0.564 2.062-1.525 2.062-0.934 0-1.33-0.678-1.33-2.036v-8.956h-5.565v9.551c0 3.674 1.301 5.369 4.691 5.369 1.922 0 3.334-0.848 4.126-2.459v2.064h5.171v-14.525z" clip-rule="evenodd" fill="#fff" fill-rule="evenodd"/>
	<path d="m105.77 139.57h5.538v-7.01c0-1.922 0.933-2.855 2.826-2.855 0.255 0 0.622 0.03 1.049 0.115v-5.088c-0.257-0.029-0.51-0.057-0.764-0.057-2.064 0-3.308 1.102-3.789 3.307v-2.938h-4.86z" fill="#fff"/>
	<path d="m126.09 124.14c1.639 0 2.46 0.62 2.46 1.92 0 1.074-0.905 1.922-2.375 1.922h-2.854v-3.842zm-8.732 15.429h5.963v-7.434h2.061l2.911 7.434h6.443l-3.533-8.564c2.207-0.791 3.421-2.655 3.421-5.312 0-3.844-2.572-5.738-7.686-5.738h-9.58z" clip-rule="evenodd" fill="#f60" fill-rule="evenodd"/>
	<path d="m145.51 132.61v1.61c0 1.471-0.848 2.29-2.202 2.29-1.105 0-1.642-0.452-1.642-1.411 0-1.273 1.328-2.205 3.844-2.489zm0.425 6.954h5.512c-0.312-0.621-0.453-1.5-0.453-2.658v-6.641c0-4.013-1.922-5.623-6.98-5.623-4.438 0-7.038 1.471-7.828 4.551l5.201 0.506c0.084-1.017 0.959-1.723 2.26-1.723 1.242 0 1.864 0.48 1.864 1.582v0.453c-6.444 0.197-9.693 2.092-9.693 5.566 0 2.686 1.923 4.408 5.201 4.408 2.148 0 3.729-0.875 4.634-2.486 0.055 0.792 0.14 1.471 0.282 2.065z" clip-rule="evenodd" fill="#f60" fill-rule="evenodd"/>
	<path d="m162.29 130.16v4.127c0 1.131-0.705 1.921-1.61 1.921-1.327 0-1.837-1.243-1.837-3.785 0-2.743 0.51-4.101 1.753-4.101 1.128 0 1.694 0.623 1.694 1.838zm5.566-10.203h-5.566v6.332c-0.962-1.131-2.062-1.639-3.478-1.639-3.476 0-5.85 2.854-5.85 7.688 0 4.803 2.233 7.629 5.711 7.629 1.724 0 2.996-0.734 3.897-2.205l0.03 1.811h5.255v-19.616z" clip-rule="evenodd" fill="#f60" fill-rule="evenodd"/>
	<path d="m170.23 123.88h5.766v-3.93h-5.766zm0 15.685h5.766v-14.525h-5.766z" clip-rule="evenodd" fill="#f60" fill-rule="evenodd"/>
	<path d="m185.7 139.96c4.721 0 7.858-3.08 7.858-7.659 0-4.606-3.138-7.657-7.858-7.657-4.691 0-7.855 3.051-7.855 7.657 0 4.579 3.164 7.659 7.855 7.659zm0-3.646c-1.384 0-1.949-1.301-1.949-4.014 0-2.712 0.565-4.013 1.949-4.013 1.356 0 1.952 1.301 1.952 4.013 0 2.714-0.595 4.014-1.952 4.014z" clip-rule="evenodd" fill="#f60" fill-rule="evenodd"/>
	<path d="m125.44 154.04 1.961-6.185 1.995 6.185zm-2.992 4.972h1.435l1.157-3.756h4.755l1.215 3.756h1.523l-4.115-12.591h-1.797z" clip-rule="evenodd" fill="#fff" fill-rule="evenodd"/>
	<path d="m133.36 159.01h1.36v-5.152c0-1.941 1.196-3.265 2.685-3.265 1.216 0 1.923 0.852 1.923 2.394v6.023h1.343v-5.896c0-2.432-1.052-3.683-3.031-3.683-1.286 0-2.248 0.635-3.012 1.977v-1.723h-1.268z" clip-rule="evenodd" fill="#fff" fill-rule="evenodd"/>
	<path d="m148.35 153.56v1.434c0 1.833-1.107 2.994-2.431 2.994-1.471 0-2.433-1.325-2.433-3.646 0-2.359 0.998-3.684 2.413-3.684 1.47 0 2.451 1.09 2.451 2.902zm1.34-7.147h-1.341v4.716c-0.636-1.087-1.578-1.668-2.704-1.668-2.068 0-3.684 1.905-3.684 4.935 0 2.956 1.58 4.827 3.594 4.827 1.232 0 2.249-0.709 2.884-2.07v1.852h1.251z" clip-rule="evenodd" fill="#fff" fill-rule="evenodd"/>
	<path d="m157.49 154.29v0.489c0 1.815-1.309 3.284-2.941 3.284-1.216 0-1.941-0.67-1.941-1.688 0-1.379 1.29-2.123 3.793-2.123 0.345 1e-3 0.708 1e-3 1.089 0.038zm0.218 4.717h1.396c-0.199-0.581-0.253-1.197-0.253-1.905v-3.99c0-2.521-1.017-3.683-3.448-3.683-2.304 0-3.663 0.869-4.045 2.539l1.324 0.2c0.255-1.106 1.071-1.616 2.485-1.616 1.579 0 2.323 0.689 2.323 2.088v0.58c-0.271-0.019-0.546-0.019-0.799-0.019-3.722 0-5.606 1.089-5.606 3.194 0 1.633 1.289 2.83 3.194 2.83 1.415 0 2.576-0.726 3.211-1.979 0 0.637 0.071 1.234 0.218 1.761z" clip-rule="evenodd" fill="#fff" fill-rule="evenodd"/>
	<polygon points="160.76 159.01 162.13 159.01 162.13 146.42 160.76 146.42" fill="#fff"/>
	<path d="m171.44 149.68h-1.345v5.15c0 1.941-1.215 3.266-2.703 3.266-1.216 0-1.923-0.834-1.923-2.393v-6.023h-1.343v5.895c0 2.432 1.052 3.684 3.031 3.684 1.286 0 2.248-0.636 3.012-1.977v1.723h1.271z" clip-rule="evenodd" fill="#fff" fill-rule="evenodd"/>
	<path d="m179.02 152.95 1.308-0.198c-0.311-2.124-1.578-3.32-3.357-3.32-2.467 0-4.173 1.922-4.173 4.916 0 3.029 1.615 4.916 3.954 4.916 1.889 0 3.215-1.162 3.576-3.247l-1.253-0.237c-0.289 1.471-1.142 2.287-2.269 2.287-1.469 0-2.503-1.379-2.503-3.719 0-2.377 1.088-3.755 2.542-3.755 1.088 0 1.995 0.87 2.175 2.357z" fill="#fff"/>
	<path d="m181.18 148.45h0.942l2.486-3.082h-1.578zm0.526 10.561h1.379v-9.324h-1.379z" clip-rule="evenodd" fill="#fff" fill-rule="evenodd"/>
	<path d="m190.92 154.29v0.489c0 1.815-1.306 3.284-2.938 3.284-1.215 0-1.939-0.67-1.939-1.688 0-1.379 1.285-2.123 3.79-2.123 0.344 1e-3 0.706 1e-3 1.087 0.038zm0.218 4.717h1.396c-0.199-0.581-0.254-1.197-0.254-1.905v-3.99c0-2.521-1.014-3.683-3.445-3.683-2.306 0-3.666 0.869-4.048 2.539l1.326 0.2c0.253-1.106 1.07-1.616 2.485-1.616 1.578 0 2.321 0.689 2.321 2.088v0.58c-0.271-0.019-0.545-0.019-0.799-0.019-3.717 0-5.605 1.089-5.605 3.194 0 1.633 1.288 2.83 3.194 2.83 1.414 0 2.576-0.726 3.21-1.979 1e-3 0.637 0.074 1.234 0.219 1.761z" clip-rule="evenodd" fill="#fff" fill-rule="evenodd"/>
</g>
</svg>
