<svg enable-background="new 0 0 202 164" version="1.1" viewBox="0 0 800 709.14" xml:space="preserve" xmlns="http://www.w3.org/2000/svg">
<g transform="matrix(5.2416 0 0 5.2416 -118.64 -85.266)">
	<path d="m118.25 58.575c-5.69-14.284-19.702-13.737-19.702-13.737-11.532 0-20.878 9.35-20.878 20.88 0 11.531 9.346 20.879 20.878 20.879 0 0 14.012 0.551 19.702-13.737l-9.617-4.395c-2.47 7.993-10.085 7.692-10.085 7.692-5.764 0-10.438-4.673-10.438-10.439s4.674-10.439 10.438-10.439c0 0 7.615-0.301 10.085 7.691z" fill="#ef3e33"/>
	<path d="m93.33 16.267h10.438v23.627s-5.22-1.248-10.438 0z" fill="#ef3e33"/>
	<path d="m103.77 115.17h-10.438v-23.626s5.218 1.246 10.438 0z" fill="#ef3e33"/>
	<path d="m49.098 70.938v-10.44h23.625s-1.245 5.22 0 10.44z" fill="#ef3e33"/>
	<path d="m148 60.499v10.44h-23.627s1.248-5.22 0-10.44z" fill="#ef3e33"/>
	<path d="m129.82 27.061 7.383 7.382-16.706 16.705s-2.809-4.572-7.383-7.381z" fill="#ef3e33"/>
	<path d="m67.271 104.38-7.379-7.383 16.704-16.707s2.81 4.574 7.384 7.383z" fill="#ef3e33"/>
	<path d="m59.893 34.443 7.379-7.382 16.708 16.706s-4.574 2.81-7.384 7.381z" fill="#ef3e33"/>
	<path d="m137.21 96.994-7.383 7.383-16.706-16.707s4.574-2.809 7.383-7.383z" fill="#ef3e33"/>
	<path d="m35.938 137.04 2.3-0.465c-0.96-4.28-3.465-6.493-7.308-6.493-2.153 0-4.104 0.845-5.532 2.387-1.832 1.981-2.764 4.687-2.764 8.093 0 6.579 3.229 10.511 8.296 10.511 3.843 0 6.405-2.271 7.366-6.58l-2.242-0.494c-0.786 3.288-2.533 4.978-5.124 4.978-3.378 0-5.617-3.058-5.617-8.414 0-5.357 2.271-8.412 5.617-8.412 2.56-2e-3 4.368 1.714 5.008 4.889z" fill="#fff"/>
	<path d="m49.799 143.12v0.784c0 2.912-2.097 5.271-4.719 5.271-1.95 0-3.112-1.076-3.112-2.708 0-2.212 2.067-3.406 6.083-3.406 0.553-1e-3 1.137-1e-3 1.748 0.059zm0.348 7.567h2.242c-0.322-0.932-0.409-1.92-0.409-3.057v-6.403c0-4.046-1.631-5.908-5.529-5.908-3.697 0-5.881 1.396-6.492 4.074l2.124 0.318c0.407-1.775 1.719-2.59 3.986-2.59 2.535 0 3.729 1.107 3.729 3.349v0.932c-0.436-0.029-0.875-0.029-1.282-0.029-5.968 0-8.994 1.747-8.994 5.123 0 2.621 2.064 4.541 5.122 4.541 2.271 0 4.134-1.163 5.154-3.172 1e-3 1.018 0.115 1.979 0.349 2.822z" clip-rule="evenodd" fill="#fff" fill-rule="evenodd"/>
	<path d="m55.267 150.69h2.185v-8.269c0-3.113 1.919-5.237 4.307-5.237 1.951 0 3.085 1.368 3.085 3.842v9.664h2.155v-9.46c0-3.901-1.688-5.908-4.862-5.908-2.067 0-3.607 1.018-4.832 3.172v-2.767h-2.037v14.963z" fill="#fff"/>
	<path d="m79.658 143.12v0.784c0 2.912-2.096 5.271-4.715 5.271-1.951 0-3.115-1.076-3.115-2.708 0-2.212 2.067-3.406 6.085-3.406 0.551-1e-3 1.135-1e-3 1.745 0.059zm0.351 7.567h2.241c-0.318-0.932-0.409-1.92-0.409-3.057v-6.403c0-4.046-1.631-5.908-5.53-5.908-3.699 0-5.881 1.396-6.491 4.074l2.126 0.318c0.407-1.775 1.718-2.59 3.986-2.59 2.532 0 3.727 1.107 3.727 3.349v0.932c-0.438-0.029-0.874-0.029-1.279-0.029-5.969 0-8.996 1.747-8.996 5.123 0 2.621 2.067 4.541 5.123 4.541 2.27 0 4.135-1.163 5.152-3.172-1e-3 1.018 0.114 1.979 0.35 2.822z" clip-rule="evenodd" fill="#fff" fill-rule="evenodd"/>
	<path d="m85.215 130.49v20.203h2.211v-20.203z" fill="#fff"/>
	<path d="m104.09 143.52v-4.54h-6.608v-3.348h8.414v-4.718h-14.615v20.205h6.201v-7.599z" fill="#ef3e33"/>
	<path d="m106.95 134.96h5.939v-4.048h-5.939zm0 16.157h5.939v-14.964h-5.939z" clip-rule="evenodd" fill="#ef3e33" fill-rule="evenodd"/>
	<path d="m120.9 141.81v-0.233c0-1.456 0.814-2.329 2.094-2.329 1.34 0 2.127 0.873 2.127 2.476v0.087h-4.221zm10.162 4.395-5.591-0.35c-0.232 1.194-1.019 1.834-2.24 1.834-1.546 0-2.39-0.961-2.39-2.708v-0.174h10.249c0.029-0.379 0.058-0.727 0.058-1.048 0-4.6-3.262-7.975-8.296-7.975-2.33 0-4.222 0.697-5.651 2.035-1.626 1.545-2.529 3.552-2.529 5.881 0 2.414 1.104 4.717 2.999 6.202 1.426 1.105 3.23 1.657 5.442 1.657 4.075 2e-3 6.927-1.977 7.949-5.354z" clip-rule="evenodd" fill="#ef3e33" fill-rule="evenodd"/>
	<path d="m131.65 146.75c0.815 3.001 3.491 4.66 7.744 4.66 4.687 0 7.539-2.3 7.539-5.356 0-1.252-0.465-2.329-1.369-3.145-1.106-0.989-2.416-1.192-4.019-1.483-2.764-0.496-4.13-0.379-4.13-1.312 0-0.609 0.549-0.932 1.656-0.932 1.371 0 2.244 0.38 2.768 1.312l4.481-0.787c-0.989-2.59-3.405-4.015-6.958-4.015-4.425 0-6.985 2.209-6.985 5.18 0 1.281 0.612 2.503 1.659 3.319 1.312 1.019 2.764 1.251 4.426 1.541 2.066 0.377 3.259 0.205 3.259 1.106 0 0.583-0.728 1.021-2.095 1.021-1.922 0-2.999-0.583-3.261-1.688z" fill="#ef3e33"/>
	<path d="m149.32 146.7c0 3.289 1.716 4.83 5.27 4.83 1.105 0 2.272-0.145 3.465-0.405v-4.162c-0.673 0.174-1.192 0.261-1.603 0.261-1.017 0-1.396-0.379-1.396-1.339v-5.939h2.822v-3.784h-2.822v-4.832l-5.124 0.263-0.38 4.569h-2.503v3.784h2.271z" fill="#ef3e33"/>
	<path d="m169.14 143.96v1.66c0 1.515-0.871 2.358-2.269 2.358-1.136 0-1.688-0.465-1.688-1.456 0-1.308 1.369-2.272 3.957-2.562zm0.438 7.163h5.677c-0.32-0.641-0.466-1.543-0.466-2.735v-6.842c0-4.135-1.98-5.795-7.191-5.795-4.568 0-7.245 1.516-8.062 4.688l5.355 0.524c0.089-1.049 0.992-1.777 2.329-1.777 1.281 0 1.92 0.495 1.92 1.631v0.465c-6.636 0.205-9.983 2.155-9.983 5.735 0 2.766 1.979 4.541 5.357 4.541 2.21 0 3.841-0.901 4.773-2.562 0.058 0.816 0.147 1.516 0.291 2.127z" clip-rule="evenodd" fill="#ef3e33" fill-rule="evenodd"/>
</g>
</svg>
