<svg enable-background="new 0 0 435.05 140.023" version="1.1" viewBox="0 0 433 136.41" xml:space="preserve" xmlns="http://www.w3.org/2000/svg" xmlns:xlink="http://www.w3.org/1999/xlink"><defs>
	<linearGradient id="a" x1="1.1064" x2="136.96" y1="70.31" y2="70.31" gradientTransform="translate(-1.106,-2.38)" gradientUnits="userSpaceOnUse">
		<stop stop-color="#C6362E" offset="0"/>
		<stop stop-color="#DB8F1B" offset="1"/>
	</linearGradient>
</defs>
<rect x="-1.138" y="-1.227" width="433.05" height="140.02" clip-rule="evenodd" display="none" fill="#9c6" fill-rule="evenodd"/><path d="m0 67.927c0-37.515 30.412-67.927 67.928-67.927s67.927 30.412 67.927 67.927c0 37.517-30.411 67.932-67.927 67.932s-67.928-30.415-67.928-67.932z" display="none" fill="#fff"/><path d="m0 67.927c0-37.515 30.412-67.927 67.928-67.927s67.927 30.412 67.927 67.927c0 37.517-30.411 67.932-67.927 67.932s-67.928-30.415-67.928-67.932z" fill="url(#a)"/><path d="m6.205 77.965 57.697-32.007v64.231z" fill="#fff"/><g transform="translate(-1.106,-2.38)">
		<defs>
			<polygon id="g" points="72.508 138.17 119.38 138.17 119.38 112.68 112.79 112.68 112.79 47.842 74.389 47.842 74.389 72.394 80.055 72.394 80.055 112.68 72.508 112.68"/>
		</defs>
		<clipPath id="f">
			<use width="100%" height="100%" overflow="visible" xlink:href="#g"/>
		</clipPath>
		<path d="m1.106 70.307c0-37.515 30.412-67.927 67.928-67.927s67.927 30.412 67.927 67.927c0 37.517-30.411 67.932-67.927 67.932s-67.928-30.415-67.928-67.932z" clip-path="url(#f)" fill="#fff"/>
	</g><g transform="translate(-1.106,-2.38)">
		<defs>
			<path id="e" d="m77.536 21.4c0-9.035 7.894-16.364 17.627-16.364 9.735 0 17.628 7.33 17.628 16.364 0 9.043-7.893 16.37-17.628 16.37-9.733 1e-3 -17.627-7.327-17.627-16.37z"/>
		</defs>
		<clipPath id="d">
			<use width="100%" height="100%" overflow="visible" xlink:href="#e"/>
		</clipPath>
		<path d="m1.106 70.307c0-37.515 30.412-67.927 67.928-67.927s67.927 30.412 67.927 67.927c0 37.517-30.411 67.932-67.927 67.932s-67.928-30.415-67.928-67.932z" clip-path="url(#d)" fill="#fff"/>
	</g><g transform="translate(-1.106,-2.38)" fill="#fff">
		<path d="m190.12 44.089h-5.759v1.729c-2.717-1.416-5.043-2.038-7.924-2.038-7.648 0-13.245 4.564-13.245 10.771 0 6.651 5.928 10.995 14.959 10.995 6.044 0 10.365-2.172 12.69-6.338l-6.48-2.307c-1.497 2.172-4.044 3.454-6.649 3.454-3.717 0-5.934-2.21-5.934-5.851 0-3.277 2.385-5.408 6.154-5.408 2.881 0 5.096 1.201 6.429 3.508h5.759z"/>
		<path d="m223 60.227h-4.212v-8.6c0-5.585-3.712-8.025-12.299-8.025-6.597 0-10.585 1.552-12.691 4.963l6.758 0.935c1.5-1.157 2.828-1.64 4.769-1.64 2.993 0 4.985 1.507 4.985 3.681v1.149c-2.106-0.576-3.543-0.932-5.928-0.932-6.26 0-10.751 2.971-10.751 7.047 0 3.769 4.104 6.561 9.586 6.561 2.552 0 4.66-0.575 7.093-1.947v1.64h12.69zm-12.691-2.928v1.73c-2.217 1.594-3.543 2.172-5.207 2.172-1.938 0-3.438-1.199-3.438-2.795 0-1.506 1.61-2.613 3.827-2.613 1.275 0 2.771 0.443 4.818 1.506z" clip-rule="evenodd" fill-rule="evenodd"/>
		<path d="m223.58 48.922h3.325v11.432c0 3.729 3.6 5.012 6.927 5.012 2.049 0 4.154-0.354 6.262-1.064v-4.518c-1.166 0.308-1.663 0.399-2.553 0.399-1.77 0-2.16-0.358-2.16-2.173v-9.087h4.712v-4.833h-4.712v-8.068l-8.477 4.788v3.279h-3.325v4.833z"/>
		<path d="m271.97 60.227h-4.209v-8.6c0-5.585-3.715-8.025-12.3-8.025-6.594 0-10.586 1.552-12.692 4.963l6.759 0.935c1.498-1.157 2.828-1.64 4.768-1.64 2.99 0 4.985 1.507 4.985 3.681v1.149c-2.106-0.576-3.548-0.932-5.928-0.932-6.262 0-10.75 2.971-10.75 7.047 0 3.769 4.103 6.561 9.587 6.561 2.547 0 4.653-0.575 7.091-1.947v1.64h12.69v-4.832zm-12.69-2.928v1.73c-2.217 1.594-3.548 2.172-5.207 2.172-1.941 0-3.438-1.199-3.438-2.795 0-1.506 1.61-2.613 3.822-2.613 1.275 0 2.773 0.443 4.823 1.506z" clip-rule="evenodd" fill-rule="evenodd"/>
		<polygon points="286.01 34.958 273.49 34.958 273.49 39.787 277.53 39.787 277.53 60.227 273.49 60.227 273.49 65.06 289.78 65.06 289.78 60.227 286.01 60.227"/>
		<path d="m322.53 60.227h-4.045v-16.138h-11.968v4.833h3.487v9.44c-1.661 0.976-3.153 1.508-4.483 1.508-1.941 0-2.545-0.664-2.545-2.703v-13.078h-12.304v4.833h3.824v9.925c0 4.041 3.046 6.519 8.037 6.519 2.492 0 4.924-0.665 7.472-2.085v1.779h12.526v-4.833z" clip-rule="evenodd" fill-rule="evenodd"/>
		<path d="m325.34 48.922h4.043v11.304h-4.043v4.833h16.011v-4.833h-3.489v-9.444c1.548-0.884 3.155-1.373 4.598-1.373 1.554 0 2.44 0.661 2.44 2.348v13.303h12.3v-4.833h-3.823v-9.31c0-5.631-4.487-7.137-7.982-7.137-2.658 0-4.819 0.664-7.533 2.263v-1.953h-12.522z" clip-rule="evenodd" fill-rule="evenodd"/>
		<polygon points="387.21 44.089 373.92 44.089 373.92 48.922 376.74 48.922 372.08 58.314 367.71 48.922 370.25 48.922 370.25 44.089 355.07 44.089 355.07 48.922 358.89 48.922 368.37 65.896 366.65 69.624 361.66 69.624 361.66 74.454 370.81 74.454 383.39 48.922 387.21 48.922"/>
		<path d="m416.75 60.227h-4.211v-8.6c0-5.585-3.708-8.025-12.299-8.025-6.596 0-10.582 1.552-12.69 4.963l6.757 0.935c1.5-1.157 2.832-1.64 4.764-1.64 2.996 0 4.989 1.507 4.989 3.681v1.149c-2.106-0.576-3.541-0.932-5.926-0.932-6.268 0-10.75 2.971-10.75 7.047 0 3.769 4.101 6.561 9.581 6.561 2.551 0 4.657-0.575 7.095-1.947v1.64h12.69zm-12.69-2.928v1.73c-2.219 1.594-3.541 2.172-5.204 2.172-1.939 0-3.439-1.199-3.439-2.795 0-1.506 1.607-2.613 3.826-2.613 1.276 0 2.77 0.443 4.817 1.506z" clip-rule="evenodd" fill-rule="evenodd"/>
		<path d="m155.97 85.397h3.57v11.307h-3.57v4.829h15.056v-4.829h-3.572v-16.138h-11.484zm7.603-14.445c-2.379 0-4.242 1.594-4.242 3.628 0 2.04 1.863 3.68 4.242 3.68 2.38 0 4.293-1.64 4.293-3.68 0-2.034-1.912-3.628-4.293-3.628z" clip-rule="evenodd" fill-rule="evenodd"/>
		<path d="m173.86 85.397h3.781v11.307h-3.781v4.829h14.952v-4.829h-3.259v-9.442c1.451-0.886 2.951-1.374 4.293-1.374 1.454 0 2.281 0.665 2.281 2.347v13.297h11.485v-4.829h-3.573v-9.308c0-5.631-4.187-7.136-7.445-7.136-2.487 0-4.505 0.665-7.041 2.259v-1.953h-11.692v4.832z" clip-rule="evenodd" fill-rule="evenodd"/>
		<path d="m221.05 96.704h-3.777v-11.307h3.777v-4.831h-3.777v-2.258c0-1.997 0.621-2.924 1.812-2.924 1.086 0 1.395 0.618 1.965 2.258l5.948-3.812c-1.707-1.955-4.395-2.926-8.122-2.926-6.982 0-9.517 3.987-9.517 7.887v1.775h-3.365v4.831h3.365v11.307h-3.365v4.829h15.057v-4.829z"/>
		<path d="m250.21 91.028c0-7.045-5.745-10.95-12.884-10.95-6.622 0-12.829 3.59-12.829 10.95 0 6.96 5.588 10.994 12.829 10.994 7.658 0 12.884-4.387 12.884-10.994zm-8.019 0c0 3.679-1.762 5.809-4.866 5.809-3 0-4.81-2.13-4.81-5.673 0-3.768 1.705-5.896 4.81-5.896 3.104 0 4.866 2.128 4.866 5.76z" clip-rule="evenodd" fill-rule="evenodd"/>
		<path d="m270.75 96.704h-4.756v-2.216c0-4.254 1.705-7.893 8.019-7.893h0.929v-6.335h-1.14c-4.032 0-7.085 1.991-8.534 5.628h-0.105v-5.322h-11.223v4.831h4.14v11.307h-4.554v4.829h17.225v-4.829z"/>
		<path d="m278.83 85.397h4.549v11.307h-4.549v4.829h16.861v-4.829h-4.398v-9.308c2.327-1.02 3.831-1.421 5.585-1.421 2.228 0 3.157 0.976 3.157 3.37v12.188h12.312v-4.829h-4.4v-9.308c2.021-0.933 3.833-1.421 5.542-1.421 2.224 0 3.208 1.063 3.208 3.37v12.188h12.777v-4.829h-4.865v-9.532c0-5.317-3.929-6.912-8.381-6.912-3.412 0-6.157 0.838-9.67 2.879-1.552-1.861-4.249-2.879-7.505-2.879-2.534 0-4.914 0.619-7.76 2.036v-1.729h-12.463z" clip-rule="evenodd" fill-rule="evenodd"/>
		<path d="m358.49 96.704h-3.929v-8.601c0-5.584-3.467-8.025-11.487-8.025-6.153 0-9.881 1.55-11.844 4.967l6.308 0.929c1.4-1.154 2.64-1.64 4.448-1.64 2.796 0 4.66 1.508 4.66 3.679v1.154c-1.965-0.575-3.314-0.932-5.538-0.932-5.846 0-10.036 2.975-10.036 7.048 0 3.767 3.829 6.563 8.946 6.563 2.381 0 4.344-0.578 6.627-1.952v1.638h11.844v-4.828zm-11.845-2.926v1.729c-2.071 1.596-3.314 2.172-4.867 2.172-1.809 0-3.203-1.197-3.203-2.791 0-1.507 1.496-2.616 3.567-2.616 1.189 0 2.59 0.44 4.503 1.506z" clip-rule="evenodd" fill-rule="evenodd"/>
		<path d="m385.91 80.566h-5.381v1.729c-2.534-1.417-4.707-2.036-7.401-2.036-7.136 0-12.363 4.561-12.363 10.768 0 6.651 5.536 10.994 13.97 10.994 5.638 0 9.673-2.17 11.846-6.341l-6.051-2.3c-1.402 2.168-3.781 3.456-6.208 3.456-3.469 0-5.538-2.219-5.538-5.853 0-3.28 2.224-5.407 5.745-5.407 2.688 0 4.756 1.2 6.001 3.504h5.381v-8.514z"/>
		<path d="m390.4 85.397h3.572v11.307h-3.572v4.829h15.054v-4.829h-3.569v-16.138h-11.485zm7.607-14.445c-2.385 0-4.239 1.594-4.239 3.628 0 2.04 1.854 3.68 4.239 3.68 2.379 0 4.293-1.64 4.293-3.68 0-2.034-1.914-3.628-4.293-3.628z" clip-rule="evenodd" fill-rule="evenodd"/>
		<path d="m416.1 77.861h4.034l9.31-6.865h-9.31zm18.004 13.167c0-7.045-5.745-10.95-12.886-10.95-6.62 0-12.827 3.59-12.827 10.95 0 6.96 5.59 10.994 12.827 10.994 7.657 0 12.886-4.387 12.886-10.994zm-8.018 0c0 3.679-1.761 5.809-4.868 5.809-2.998 0-4.806-2.13-4.806-5.673 0-3.768 1.707-5.896 4.806-5.896 3.107 0 4.868 2.128 4.868 5.76z" clip-rule="evenodd" fill-rule="evenodd"/>
	</g><g transform="translate(-1.106,-2.38)">
		<defs>
			<circle id="c" cx="69.496" cy="71.165" r="67.621"/>
		</defs>
		<clipPath id="b">
			<use width="100%" height="100%" overflow="visible" xlink:href="#c"/>
		</clipPath>
		<path d="m137.12 144.93a67.621 67.621 0 0 1-67.621 67.621 67.621 67.621 0 0 1-67.621-67.621 67.621 67.621 0 0 1 67.621-67.621 67.621 67.621 0 0 1 67.621 67.621z" clip-path="url(#b)" fill="#fff" opacity=".15"/>
	</g>
</svg>
