<svg enable-background="new 0 0 400 200" version="1.1" viewBox="0 0 388.22 155.77" xml:space="preserve" xmlns="http://www.w3.org/2000/svg">
<g transform="translate(-5.892,-22.116)" fill="#fcbf00"><path d="m11.45 96.053h116.69c2.515 0 4.553 1.799 4.553 4.018 0 2.218-2.038 4.017-4.553 4.017h-116.69c-2.516 0-4.554-1.799-4.554-4.017s2.039-4.018 4.554-4.018z"/><path d="m272.87 96.053h116.69c2.512 0 4.55 1.799 4.55 4.018 0 2.218-2.038 4.017-4.55 4.017h-116.69c-2.512 0-4.55-1.799-4.55-4.017 0-2.219 2.038-4.018 4.55-4.018z"/></g><path d="m106.22 98.925 98.396-44.552-0.058 27.293 75.066-26.089s1.147-0.215 1.525 0.595c0.364 0.77-0.269 1.55-0.269 1.55l-95.813 43.295v-26.249l-77.782 27.542s-1.092 0.263-1.704-1.223c-0.489-1.194 0.639-2.162 0.639-2.162z" fill="#e40520"/><g transform="translate(-5.892,-22.116)" fill="#485358"><path d="m41.104 24.005c-3.532-1.219-7.43-1.889-11.208-1.889-13.462 0-24.004 10.723-24.004 24.125 0 13.098 10.237 23.271 23.334 23.271 2.985 0 9.2-0.548 11.878-1.83l0.488-17.176c-2.681 2.618-5.726 4.264-9.564 4.264-4.995 0-9.321-3.899-9.321-8.956 0-4.996 4.081-8.953 9.077-8.953 3.776 0 7.127 2.131 9.808 4.629z"/><path d="m61.585 63.055h12.612l1.522 5.727h17.666l-16.386-45.935h-18.458l-15.962 45.934h17.666zm2.987-10.905 3.046-14.01h0.608c0.306 1.949 0.609 3.958 1.096 5.909l1.95 8.101z" clip-rule="evenodd" fill-rule="evenodd"/><polygon points="123.15 22.847 88.06 22.847 88.06 37.773 97.261 37.345 97.261 68.781 113.95 68.781 113.95 37.345 123.15 37.773"/><path d="m136.75 63.055h12.61l1.523 5.727h17.668l-16.387-45.934h-18.461l-15.962 45.934h17.669zm2.984-10.905 3.045-14.01h0.611c0.305 1.949 0.607 3.958 1.097 5.909l1.95 8.101z" clip-rule="evenodd" fill-rule="evenodd"/><polygon points="171.27 68.781 201.97 68.781 201.97 54.039 187.96 54.039 187.96 22.847 171.27 22.847"/><path d="m231.35 22.847v25.587c0 3.592-0.123 6.762-4.567 6.762-4.447 0-4.57-3.169-4.57-6.762v-25.587h-16.691v27.169c0 13.404 8.403 19.496 21.261 19.496 12.854 0 21.257-6.091 21.257-19.496v-27.169z"/><path d="m254.41 68.781h15.958v-14.924c0-3.049-0.486-6.033-1.032-9.198h0.484l14.685 24.122h15.958v-45.934h-15.958v13.769c0 3.9 0.729 7.858 1.399 11.696h-0.486l-14.988-25.465h-16.02z" clip-rule="evenodd" fill-rule="evenodd"/><path d="m302.75 22.847 16.026 26.137v19.797h16.323v-19.797l15.722-26.137h-18.765l-3.291 7.677c-0.61 1.4-1.033 2.863-1.524 4.327h-0.486l-5.116-12.004z"/><path d="m362.12 63.055h12.609l1.522 5.727h17.671l-16.389-45.934h-18.461l-15.963 45.934h17.667zm2.983-10.905 3.046-14.01h0.609c0.308 1.949 0.611 3.958 1.098 5.909l1.949 8.101z" clip-rule="evenodd" fill-rule="evenodd"/></g><g transform="translate(-5.892,-22.116)" fill="#485358"><path d="m89.424 177.16h16.339v-14.755h0.304l7.317 14.755h19.265l-9.998-14.939c-0.914-1.339-1.951-2.072-2.804-2.744v-0.364c6.217-2.073 8.902-5 8.902-11.949 0-11.582-8.781-15.973-19.146-15.973h-20.18v45.969zm16.339-33.409h1.281c2.865 0 5.365 0.425 5.365 3.961 0 3.413-2.744 3.843-5.488 3.843h-1.158z" clip-rule="evenodd" fill-rule="evenodd"/><path d="m151.52 120.4 8.704 8.062 5.708-2.992-5.564-7.644zm1.798 51.026h12.619l1.525 5.733h17.679l-16.4-45.97h-18.472l-15.972 45.97h17.679zm2.989-10.911 3.047-14.022h0.61c0.305 1.951 0.609 3.964 1.098 5.913l1.947 8.109z" clip-rule="evenodd" fill-rule="evenodd"/><path d="m187.34 177.16h21.155c13.475 0 23.104-8.659 23.104-22.313 0-16.89-11.824-23.656-27.248-23.656h-17.012v45.969zm16.704-31.581h1.036c6.1 0 9.817 2.743 9.817 9.205 0 6.037-4.27 8.596-9.817 8.596h-1.036z" clip-rule="evenodd" fill-rule="evenodd"/><polygon points="253.67 131.19 236.96 131.19 236.96 177.16 253.67 177.16"/><path d="m283.77 130.46c-13.965 0-25.426 9.388-25.426 23.835 0 14.754 11.403 23.593 25.426 23.593 14.021 0 25.424-8.838 25.424-23.593 0-14.448-11.464-23.835-25.424-23.835zm0 15.118c5.304 0 8.596 4.084 8.596 8.961 0 5.245-3.534 8.84-8.596 8.84-5.06 0-8.597-3.595-8.597-8.84 1e-3 -4.877 3.292-8.961 8.597-8.961z" clip-rule="evenodd" fill-rule="evenodd"/></g>
</svg>
