<svg width="1062.9pt" height="247.1pt" version="1.1" viewBox="0 0 1062.9 247.1" xmlns="http://www.w3.org/2000/svg">
 <path d="m656.64 32.267c25.07-23.76 60.76-34.38 94.85-31.92 28.76 1.8 57.54 12.33 78.9 32l-46.59 58.27c-14.81-20.28-47.21-23.48-66.13-7.26-11.16 9.52-16.52 24.43-16.66 38.84-0.58 14.92 5.04 30.24 16.22 40.34 15.08 13.6 39.9 14.78 56.08 2.43 4-2.89 7.52-6.42 10.47-10.37l46.61 57.81c-12.37 12.91-28.14 22.27-44.95 28.14-18.27 6.24-37.88 7.45-57.02 6-23.28-2.36-46.12-10.96-64.42-25.68-25.65-20.42-41.69-52.04-43.98-84.65-1.58-17.71 0.02-35.77 5.11-52.83 6.05-19.28 16.73-37.25 31.51-51.12z"/>
 <path d="m215.91 6.422h75.605v79.495h61.775v-79.495h76.03v233.76h-76.03v-88.465h-61.775v88.465h-75.605z"/>
 <path d="m442.23 6.422h167.79v59.165c-9.2-5.49-18.44-10.94-27.95-15.88-5.7901-3.1459-13.503-0.50854-16.648 5.0478-2.2997 4.247-0.94903 11.135 2.1485 13.462l20.408 14.424c1.6588 1.1324 1.6737 1.2313-0.31219 1.2313h-86.226c-6.5456 0-11.28 4.6749-11.28 9.48 0 4.9768 4.83 9.59 10.35 9.48h52c3.0145 0 6.35 1.245 5.55 4.375-0.85 1.57-2.2518 2.25-4.38 2.25h-64.21c-6.33-0.12-13.95 3.91-14.16 10.94 0 5.7309 6.69 9.27 12.24 9.14l62.97-0.58c2.9982 0 7.86-0.46365 7.86 3.27 0 1.4109-2.3341 3.46-4.37 3.46l-58.52-0.08c-5.6012 0-12.48 3.8894-12.48 9.59 0 5.1336 5.4504 10.131 12.48 10.21l64.1-0.81c2.3543 0 5.76 0.30299 5.76 3.65 0 2.8303-2.7901 3.3456-4.97 3.41l-44.79 0.05c-5.49-0.29-11.64 4.6-10.47 10.5 1.06 4.13 4.8 8.1 9.34 7.8h95.56v60.175h-167.79z"/>
 <path d="m835.23 6.422h73.46v86.855l60.69-86.855h89.34l-84.81 107.45 88.94 126.3h-93.2l-60.96-93.115v93.115h-73.46z"/>
 <path d="m37.204 32.267c25.07-23.76 60.76-34.38 94.85-31.92 28.76 1.8 57.54 12.33 78.9 32l-46.59 58.27c-14.81-20.28-47.21-23.48-66.13-7.26-11.16 9.52-16.52 24.43-16.66 38.84-0.57999 14.92 5.04 30.24 16.22 40.34 15.08 13.6 39.9 14.78 56.08 2.43 4-2.89 7.52-6.42 10.47-10.37l46.61 57.81c-12.37 12.91-28.14 22.27-44.95 28.14-18.27 6.24-37.88 7.45-57.02 6-23.28-2.36-46.12-10.96-64.42-25.68-25.65-20.42-41.69-52.04-43.98-84.65-1.58-17.71 0.02-35.77 5.11-52.83 6.05-19.28 16.73-37.25 31.51-51.12z"/>
</svg>
