<svg width="800" height="152.64" version="1.1" viewBox="0 0 800 152.64" xml:space="preserve" xmlns="http://www.w3.org/2000/svg"><g transform="matrix(1.3333 0 0 -1.3333 -51.256 629.77)"><g fill="#fff"><g transform="matrix(4.5919 0 0 4.5919 404.14 463)"><path d="m0 0c0.121-0.264 0.347-0.36 0.472-0.385 0.129-0.019 0.378-0.034 0.593 0.219 0.15 0.184 0.107 0.473-0.073 0.621s-0.45 0.125-0.603-0.057c-0.108-0.132-0.123-0.315-0.056-0.457-0.087 0.023-0.226 0.165-0.23 0.418-5e-3 0.287 0.18 0.732 0.444 1.302 0.063 0.138 0.12 0.261 0.177 0.372 1.044-0.068 1.852-0.944 1.818-1.987-0.035-1.069-0.934-1.907-2.01-1.872-1.075 0.034-1.92 0.928-1.887 1.995 0.03 0.845 0.602 1.547 1.375 1.783-0.018-0.111-0.036-0.228-0.06-0.36-0.202-1.143-0.018-1.466 0.04-1.592" fill="#fff"/></g><g transform="matrix(4.5919 0 0 4.5919 78.878 357.95)"><path d="m0 0c-5.009 0-8.806 3.206-8.806 9.619 0 6.412 3.797 9.617 8.806 9.617 2.746 0 4.484-0.687 6.541-2.784l-1.978-1.756c-1.494 1.564-2.665 2.098-4.563 2.098-1.939 0-3.556-0.726-4.606-2.137-0.928-1.22-1.291-2.67-1.291-5.038 0-2.369 0.363-3.816 1.291-5.038 1.05-1.411 2.667-2.135 4.606-2.135 1.898 0 3.069 0.569 4.563 2.135l1.978-1.792c-2.057-2.101-3.795-2.789-6.541-2.789" fill="#fff"/></g><g transform="matrix(4.5919 0 0 4.5919 186.75 446.31)"><path d="m0 0c-3.076 0-5-0.609-6.693-2.787l1.885-1.714c1.117 1.565 2.346 2.137 4.769 2.137 3.462 0 4.847-1.375 4.847-4.122v-1.795h-5.693c-4.231 0-6.538-2.136-6.538-5.419 0-1.487 0.5-2.899 1.422-3.816 1.193-1.22 2.732-1.717 5.348-1.717 2.539 0 3.923 0.497 5.461 2.025v-0.666c0-0.466 0.24-0.881 0.6-1.132 0.224-0.151 0.495-0.239 0.787-0.239 0.29 0 0.559 0.088 0.783 0.239 0.362 0.251 0.601 0.666 0.601 1.132v11.617c0 4.081-2.501 6.257-7.579 6.257m3.847-15.608c-1.192-1.146-2.615-1.258-4.231-1.258-3 0-4.346 1.03-4.346 3.207 0 2.174 1.383 3.32 4.231 3.32h5.307v-2.023c0-1.565-0.307-2.636-0.961-3.246" fill="#fff"/></g><g transform="matrix(4.5919 0 0 4.5919 268.59 357.94)"><path d="m0 0c-3.193 0-5.694 0.726-7.771 2.708l1.847 1.832c1.502-1.565 3.539-2.175 5.886-2.175 3.115 0 5.037 1.107 5.037 3.32 0 1.64-0.958 2.557-3.152 2.745l-3.115 0.269c-3.695 0.308-5.656 1.946-5.656 5.04 0 3.432 2.923 5.497 6.961 5.497 2.695 0 5.118-0.651 6.811-2.028l-1.807-1.79c-1.348 1.027-3.078 1.486-5.041 1.486-2.77 0-4.233-1.182-4.233-3.09 0-1.603 0.924-2.558 3.31-2.748l3.039-0.266c3.309-0.306 5.578-1.567 5.578-5.076 0-3.628-3.116-5.724-7.694-5.724" fill="#fff"/></g><g transform="matrix(4.5919 0 0 4.5919 348.32 357.95)"><path d="m0 0c-3.195 0-5.693 0.727-7.774 2.71l1.847 1.834c1.502-1.565 3.541-2.176 5.887-2.176 3.117 0 5.04 1.108 5.04 3.321 0 1.639-0.964 2.556-3.155 2.746l-3.116 0.265c-3.693 0.308-5.654 1.948-5.654 5.041 0 3.434 2.925 5.495 6.962 5.495 2.693 0 5.3-0.648 6.993-2.022l-1.991-1.797c-1.348 1.035-3.08 1.491-5.039 1.491-2.77 0-4.231-1.18-4.231-3.093 0-1.601 0.922-2.555 3.307-2.746l3.038-0.266c3.307-0.308 5.76-1.564 5.76-5.078 0-3.623-3.298-5.725-7.874-5.725" fill="#fff"/></g><g transform="matrix(4.5919 0 0 4.5919 400.49 445.24)"><path d="m0 0v-17.634c0-0.474 0.247-0.9 0.621-1.143 0.219-0.148 0.481-0.232 0.765-0.232 0.283 0 0.545 0.084 0.766 0.232 0.372 0.243 0.619 0.669 0.619 1.143v17.634z" fill="#fff"/></g><g transform="matrix(4.5919 0 0 4.5919 469.35 357.95)"><path d="m0 0c-5.01 0-8.806 3.206-8.806 9.619 0 6.412 3.796 9.617 8.806 9.617 2.745 0 4.482-0.687 6.543-2.784l-1.981-1.756c-1.494 1.564-2.665 2.098-4.562 2.098-1.939 0-3.557-0.726-4.607-2.137-0.929-1.22-1.29-2.67-1.29-5.038 0-2.369 0.361-3.816 1.29-5.038 1.05-1.411 2.668-2.135 4.607-2.135 1.897 0 3.068 0.569 4.562 2.135l1.981-1.792c-2.061-2.101-3.798-2.789-6.543-2.789" fill="#fff"/></g><g transform="matrix(4.5919 0 0 4.5919 125.68 468.46)"><path d="m0 0v-22.715c0-0.423 0.192-0.801 0.495-1.051 0.242-0.201 0.552-0.322 0.89-0.322s0.648 0.121 0.889 0.322c0.303 0.25 0.496 0.628 0.496 1.051v22.715z" fill="#fff"/></g></g><g transform="matrix(4.5919 0 0 4.5919 617.19 468.41)"><path d="m0 0v-21.671c0-1.29 1.054-2.335 2.352-2.335 1.301 0 2.276 1.045 2.276 2.335v21.671z" fill="#ed1c24"/></g><g transform="matrix(4.5919 0 0 4.5919 589.52 438.46)"><path d="m0 0c-0.604 0.518-1.332 0.933-2.165 1.227-0.925 0.326-1.98 0.503-3.141 0.503-2.124 0-4.168-0.688-5.647-2.066-0.028-0.025-0.056-0.05-0.083-0.077v1.918h-4.244l1e-3 -0.011v-16.797c0-1.205 0.986-2.182 2.2-2.182 1.215 0 2.126 0.977 2.126 2.182v9.347l2e-3 0.017c0 2.932 2.037 4.248 4.457 4.248 2.391 0 4.285-1.248 4.329-4.145v-9.464c0-0.022 0-0.045 1e-3 -0.067 0.034-1.175 1.007-2.118 2.2-2.118 1.216 0 2.13 0.978 2.13 2.185v9.924c0 2.143-0.51 3.948-2.166 5.376" fill="#ed1c24"/></g></g></svg>
