<svg width="800" height="82.015" version="1.1" viewBox="0 0 800 82.015" xml:space="preserve" xmlns="http://www.w3.org/2000/svg"><defs><clipPath id="clipPath180"><path d="m22.804 538.22h385.26v39.497h-385.26z"/></clipPath></defs><g transform="matrix(1.3333 0 0 -1.3333 -30.406 800.59)"><g transform="matrix(1.586 0 0 1.586 -13.364 -315.84)" clip-path="url(#clipPath180)"><g transform="translate(37.738 545.83)"><path d="m0 0c2.584 0 4.909 1.292 6.976 3.876l4.599-5.168c-3.583-3.721-7.459-5.581-11.627-5.581s-7.691 1.318-10.567 3.953c-2.877 2.636-4.315 6.08-4.315 10.336 0 4.254 1.455 7.716 4.366 10.386s6.365 4.005 10.361 4.005c1.998 0 4.022-0.413 6.072-1.24s3.85-2.05 5.401-3.669l-4.031-5.271c-0.897 1.067-1.99 1.894-3.282 2.48s-2.576 0.879-3.85 0.879c-2.033 0-3.781-0.664-5.245-1.99s-2.196-3.17-2.196-5.529c0-2.36 0.732-4.194 2.196-5.503 1.464-1.31 3.178-1.964 5.142-1.964"/></g><g transform="translate(94.642 554.88)"><path d="m0 0v-15.503h-7.751v27.802h7.751v-3.101c2.343 2.377 4.978 3.566 7.906 3.566s5.383-1.033 7.364-3.1c1.981-2.068 2.972-4.824 2.972-8.269v-16.898h-7.751v15.71c0 4.271-1.569 6.408-4.703 6.408-1.551 0-2.903-0.561-4.057-1.68-1.154-1.12-1.731-2.764-1.731-4.935"/></g><g transform="translate(133.24 545.83)"><path d="m0 0c2.584 0 4.909 1.292 6.976 3.876l4.599-5.168c-3.583-3.721-7.459-5.581-11.627-5.581-4.169 0-7.692 1.318-10.568 3.953-2.877 2.636-4.315 6.08-4.315 10.336 0 4.254 1.455 7.716 4.367 10.386 2.911 2.67 6.364 4.005 10.361 4.005 1.998 0 4.022-0.413 6.072-1.24 2.049-0.827 3.85-2.05 5.4-3.669l-4.031-5.271c-0.896 1.067-1.99 1.894-3.281 2.48-1.292 0.586-2.576 0.879-3.85 0.879-2.033 0-3.781-0.664-5.245-1.99-1.465-1.326-2.196-3.17-2.196-5.529 0-2.36 0.731-4.194 2.196-5.503 1.464-1.31 3.178-1.964 5.142-1.964"/></g><g transform="translate(196.25 560.35)"><path d="m0 0c-2.308 0-4.031-0.819-5.168-2.455-1.136-1.636-1.705-3.798-1.705-6.485v-12.041h-7.751v27.802h7.751v-3.669c0.999 1.137 2.248 2.101 3.747 2.894 1.498 0.792 3.023 1.206 4.573 1.24l0.052-7.286z"/></g><g transform="translate(203.13 575.49)"><path d="m0 0h7.803v-8.32h6.718v-5.581h-6.718v-12.454c0-1.068 0.275-1.904 0.827-2.506 0.551-0.603 1.206-0.905 1.964-0.905 1.447 0 2.669 0.654 3.668 1.964l2.894-5.426c-2.411-2.205-4.953-3.307-7.622-3.307s-4.926 0.878-6.77 2.635c-1.843 1.758-2.764 4.152-2.764 7.184z"/></g><g transform="translate(225.25 539.63)"><path d="m0 0h23.672v5.946h-14.574l13.799 15.65v5.692h-21.915v-5.894h12.452l-13.434-15.339z"/></g><g transform="translate(293.8 554.88)"><path d="m0 0v-15.503h-7.751v27.802h7.751v-3.101c2.342 2.377 4.978 3.566 7.906 3.566 2.929 0 5.383-1.033 7.365-3.1 1.98-2.068 2.971-4.824 2.971-8.269v-16.898h-7.751v15.71c0 4.271-1.569 6.408-4.703 6.408-1.551 0-2.903-0.561-4.057-1.68-1.155-1.12-1.731-2.764-1.731-4.935"/></g><g transform="translate(325.17 553.22)"><path d="m0 0c0-2.24 0.672-4.074 2.015-5.503 1.344-1.43 2.911-2.145 4.703-2.145 1.791 0 3.315 0.715 4.573 2.145 1.257 1.429 1.887 3.272 1.887 5.529 0 2.256-0.63 4.134-1.887 5.633-1.258 1.498-2.799 2.248-4.625 2.248s-3.394-0.759-4.702-2.274c-1.31-1.517-1.964-3.394-1.964-5.633m4.883-14.262c-3.29 0-6.227 1.395-8.811 4.185-2.584 2.791-3.876 6.253-3.876 10.387s1.258 7.519 3.773 10.154c2.514 2.636 5.461 3.954 8.837 3.954s6.132-1.189 8.268-3.566v13.643h7.751v-38.344h-7.751v3.669c-2.171-2.722-4.901-4.082-8.191-4.082"/></g><g transform="translate(399.6 560.35)"><path d="m0 0c-2.309 0-4.032-0.819-5.168-2.455-1.137-1.636-1.705-3.798-1.705-6.485v-12.041h-7.752v27.802h7.752v-3.669c0.999 1.137 2.248 2.101 3.746 2.894 1.499 0.792 3.023 1.206 4.573 1.24l0.053-7.286z"/></g><g transform="translate(162.86 545.37)"><path d="m0 0c-1.688 0-3.204 0.482-4.547 1.447-0.146 0.102-0.285 0.213-0.42 0.329-0.074 0.062-0.144 0.127-0.214 0.192-0.024 0.022-0.048 0.044-0.072 0.067-0.538 0.509-0.952 1.079-1.241 1.712-1.774 3.45-1.118 8.664 1.998 10.722 1.275 0.93 2.679 1.395 4.213 1.395 1.532 0 2.833-0.448 3.901-1.343 1.067-0.896 1.687-2.17 1.86-3.824 0.079-0.756 0.085-1.973 0.069-3.075h7.786v1.68c0 4.03-1.336 7.2-4.005 9.508-2.671 2.308-5.917 3.462-9.741 3.462s-7.14-1.291-9.947-3.875c-2.809-2.584-4.213-6.064-4.213-10.439s1.378-7.864 4.135-10.464c2.756-2.602 6.243-3.902 10.464-3.902 4.22 0 7.898 1.481 11.033 4.444l-4.341 4.703c-1.757-1.827-3.997-2.739-6.718-2.739"/></g><g transform="translate(267.43 545.37)"><path d="m0 0c-1.688 0-3.204 0.482-4.548 1.447-0.145 0.102-0.285 0.213-0.419 0.329-0.075 0.062-0.144 0.127-0.214 0.192-0.024 0.022-0.049 0.044-0.072 0.067-0.538 0.509-0.953 1.079-1.241 1.712-1.774 3.45-1.118 8.664 1.998 10.722 1.274 0.93 2.678 1.395 4.212 1.395 1.532 0 2.833-0.448 3.902-1.343 1.067-0.896 1.687-2.17 1.86-3.824 0.079-0.756 0.085-1.973 0.069-3.075h7.786v1.68c0 4.03-1.336 7.2-4.006 9.508s-5.916 3.462-9.74 3.462-7.14-1.291-9.948-3.875c-2.809-2.584-4.212-6.064-4.212-10.439s1.378-7.864 4.134-10.464c2.756-2.602 6.244-3.902 10.465-3.902 4.219 0 7.897 1.481 11.033 4.444l-4.342 4.703c-1.756-1.827-3.996-2.739-6.717-2.739"/></g><g transform="translate(366.12 545.37)"><path d="m0 0c-1.688 0-3.204 0.482-4.547 1.447-0.146 0.102-0.285 0.213-0.42 0.329-0.075 0.062-0.144 0.127-0.214 0.192-0.024 0.022-0.048 0.044-0.072 0.067-0.538 0.509-0.952 1.079-1.241 1.712-1.774 3.45-1.118 8.664 1.998 10.722 1.274 0.93 2.678 1.395 4.212 1.395 1.533 0 2.834-0.448 3.902-1.343 1.067-0.896 1.687-2.17 1.86-3.824 0.079-0.756 0.085-1.973 0.069-3.075h7.786v1.68c0 4.03-1.336 7.2-4.005 9.508-2.671 2.308-5.917 3.462-9.741 3.462s-7.14-1.291-9.947-3.875c-2.809-2.584-4.213-6.064-4.213-10.439s1.378-7.864 4.135-10.464c2.756-2.602 6.243-3.902 10.464-3.902 4.22 0 7.898 1.481 11.033 4.444l-4.341 4.703c-1.757-1.827-3.997-2.739-6.718-2.739"/></g><g transform="translate(77.167 542.84)"><path d="m0 0c-2.756-2.602-6.244-3.901-10.464-3.901s-7.898 1.48-11.033 4.443l4.341 4.703c1.757-1.826 3.996-2.739 6.718-2.739 1.688 0 3.203 0.482 4.547 1.447 0.146 0.102 0.285 0.214 0.42 0.329 0.075 0.063 0.144 0.128 0.214 0.192 0.024 0.023 0.048 0.044 0.072 0.067 0.538 0.509 0.952 1.079 1.241 1.712 1.774 3.45 1.118 8.664-1.999 10.723-1.274 0.93-2.678 1.395-4.211 1.395s-2.834-0.448-3.902-1.344c-1.067-0.896-1.687-2.17-1.86-3.824-0.079-0.755-0.086-1.973-0.07-3.074h-7.785v1.679c0 4.031 1.335 7.2 4.005 9.508s5.917 3.463 9.741 3.463 7.14-1.292 9.948-3.876 4.211-6.064 4.211-10.439-1.377-7.863-4.134-10.464"/></g></g></g></svg>
