<svg width="256.89pt" height="63.373pt" version="1.1" viewBox="0 0 256.89 63.373" xmlns="http://www.w3.org/2000/svg">
 <g transform="matrix(.80209 0 0 .80209 47.409 154.22)" fill="#c82423" stroke-width="1px" aria-label="CRÓNICAS">
  <path d="m-37.271-136.25q-3.0664 1.4844-8.0078 1.4844-6.4453 0-10.137-3.7891-3.6914-3.7891-3.6914-10.098 0-6.7188 4.1406-10.898 4.1602-4.1797 10.781-4.1797 4.1016 0 6.9141 1.0352v6.0742q-2.8125-1.6797-6.4062-1.6797-3.9453 0-6.3672 2.4805t-2.4219 6.7188q0 4.0625 2.2852 6.4844 2.2852 2.4024 6.1523 2.4024 3.6914 0 6.7578-1.7969z"/>
  <path d="m-8.8535-135.25h-7.2461l-4.3555-7.207q-0.48828-0.82031-0.9375-1.4648t-0.91797-1.0938q-0.44922-0.46875-0.95703-0.70313-0.48828-0.2539-1.0742-0.2539h-1.6992v10.723h-6.3086v-28.008h10q10.195 0 10.195 7.6172 0 1.4648-0.44922 2.7148-0.44922 1.2305-1.2695 2.2266-0.82031 0.99609-1.9922 1.7188-1.1523 0.72265-2.5781 1.1328v0.0781q0.625 0.19532 1.2109 0.64453 0.58594 0.42969 1.1328 1.0156t1.0352 1.2695q0.50781 0.66406 0.91797 1.3086zm-17.188-23.281v7.793h2.7344q2.0312 0 3.2617-1.1719 1.25-1.1914 1.25-2.9492 0-3.6719-4.3945-3.6719z"/>
  <path d="m5.1895-134.76q-6.0156 0-9.8047-3.9062-3.7891-3.9258-3.7891-10.215 0-6.6406 3.8477-10.742 3.8477-4.1016 10.195-4.1016 5.9961 0 9.6875 3.9258 3.7109 3.9258 3.7109 10.352 0 6.6016-3.8477 10.645-3.8281 4.043-10 4.043zm0.27344-23.535q-3.3203 0-5.2734 2.5-1.9531 2.4805-1.9531 6.582 0 4.1602 1.9531 6.582 1.9531 2.4219 5.1172 2.4219 3.2617 0 5.1758-2.3438 1.9141-2.3633 1.9141-6.543 0-4.3555-1.8555-6.7774t-5.0781-2.4219zm6.3672-13.867-6.1133 6.3086h-4.4531l5.0781-6.3086z"/>
  <path d="m48.861-135.25h-6.3672l-11.543-17.598q-1.0156-1.543-1.4062-2.3242h-0.07813q0.15625 1.4844 0.15625 4.5312v15.391h-5.957v-28.008h6.7969l11.113 17.051q0.76172 1.1524 1.4062 2.2852h0.07813q-0.15625-0.97656-0.15625-3.8477v-15.488h5.957z"/>
  <path d="m61.615-135.25h-6.3086v-28.008h6.3086z"/>
  <path d="m88.041-136.25q-3.0664 1.4844-8.0078 1.4844-6.4453 0-10.137-3.7891-3.6914-3.7891-3.6914-10.098 0-6.7188 4.1406-10.898 4.1602-4.1797 10.781-4.1797 4.1016 0 6.9141 1.0352v6.0742q-2.8125-1.6797-6.4062-1.6797-3.9453 0-6.3672 2.4805t-2.4219 6.7188q0 4.0625 2.2852 6.4844 2.2852 2.4024 6.1523 2.4024 3.6914 0 6.7578-1.7969z"/>
  <path d="m117.59-135.25h-6.875l-1.9922-6.2305h-9.9609l-1.9727 6.2305h-6.8359l10.195-28.008h7.4805zm-10.312-11.074-3.0078-9.4141q-0.33203-1.0547-0.46875-2.5195h-0.15625q-0.0977 1.2305-0.48828 2.4414l-3.0469 9.4922z"/>
  <path d="m119.8-136.33v-6.25q1.6992 1.4258 3.6914 2.1484 1.9922 0.70313 4.0234 0.70313 1.1914 0 2.0703-0.21485 0.89844-0.21484 1.4844-0.58593 0.60547-0.39063 0.89844-0.89844 0.29297-0.52734 0.29297-1.1328 0-0.82032-0.46875-1.4648t-1.2891-1.1914q-0.80078-0.54688-1.9141-1.0547t-2.4023-1.0352q-3.2812-1.3672-4.9024-3.3398-1.6016-1.9727-1.6016-4.7656 0-2.1875 0.87891-3.75 0.8789-1.582 2.3828-2.5976 1.5234-1.0156 3.5156-1.4844 1.9922-0.48828 4.2188-0.48828 2.1875 0 3.8672 0.27344 1.6992 0.25391 3.125 0.80078v5.8398q-0.70312-0.48828-1.543-0.85937-0.82031-0.37109-1.6992-0.60547-0.8789-0.25391-1.7578-0.37109-0.85937-0.11719-1.6406-0.11719-1.0742 0-1.9531 0.21484-0.8789 0.19532-1.4844 0.56641t-0.9375 0.89844q-0.33203 0.50781-0.33203 1.1523 0 0.70313 0.37109 1.2695 0.37109 0.54688 1.0547 1.0547 0.68359 0.48828 1.6602 0.97656 0.97657 0.46875 2.207 0.97656 1.6797 0.70313 3.0078 1.5039 1.3476 0.78125 2.3047 1.7773 0.95704 0.9961 1.4648 2.2852 0.50781 1.2695 0.50781 2.9688 0 2.3438-0.89844 3.9453-0.8789 1.582-2.4023 2.5781-1.5234 0.97656-3.5547 1.4062-2.0117 0.42969-4.2578 0.42969-2.3047 0-4.3945-0.39063-2.0703-0.39062-3.5938-1.1719z"/>
 </g>
 <g transform="matrix(.8027 0 0 .8027 -70.723 166.24)" fill="#fff" stroke-width="1px" aria-label="RADIO">
  <path d="m314.32-150.13-3.7305-8.2031q-1.1524-2.5391-2.3047-3.3984-1.1523-0.8789-2.8906-0.8789h-3.4766v12.48h-1.9336v-28.008h7.7734q3.7109 0 5.8203 2.0117 2.1289 1.9922 2.1289 5.2734 0 3.0273-1.7383 5.0586t-4.8633 2.6172v0.0781q1.6602 0.66406 3.2422 4.043l4.1602 8.9258zm-12.402-26.23v11.992h4.8242q3.2031 0 5.0781-1.6797 1.8945-1.6797 1.8945-4.6094 0-2.6758-1.6992-4.1797-1.6992-1.5234-4.8633-1.5234z"/>
  <path d="m340.41-150.13-3.2031-8.7109h-12.148l-3.2031 8.7109h-2.1289l10.566-28.008h1.8359l10.449 28.008zm-8.5938-23.438q-0.21485-0.58594-0.35157-1.1524-0.13672-0.48828-0.29297-0.97656h-0.0781q-0.33203 1.2891-0.64453 2.0898l-4.707 12.988h10.801z"/>
  <path d="m347.32-150.13v-28.008h7.0117q6.9726 0 10.605 3.4766 3.6328 3.4766 3.6328 10.137 0 6.4062-3.9062 10.41-3.8867 3.9844-10.742 3.9844zm1.9336-26.23v24.473h4.3945q6.2305 0 9.5703-3.2226 3.3398-3.2422 3.3398-9.3359 0-11.914-12.52-11.914z"/>
  <path d="m374.28-150.13v-28.008h1.9336v28.008z"/>
  <path d="m394.94-149.64q-5.9375 0-9.4727-3.9453-3.5156-3.9453-3.5156-10.254 0-6.6992 3.6133-10.723 3.6328-4.043 9.9023-4.043 5.6641 0 9.1602 3.8867 3.5156 3.8672 3.5156 10.156 0 6.9531-3.5938 10.938-3.5938 3.9844-9.6094 3.9844zm0.19531-27.207q-4.8828 0-8.0469 3.5352-3.1445 3.5352-3.1445 9.2578 0 5.7812 2.9883 9.2188 2.9883 3.418 7.9688 3.418 5.1953 0 8.2227-3.3789 3.0273-3.3984 3.0273-9.4531 0-5.9375-2.9688-9.2578-2.9492-3.3398-8.0469-3.3398z"/>
 </g>
 <g transform="matrix(.46172 0 0 .46172 75.181 90.526)" fill="#7d7d7d" stroke-width="1px" aria-label="105.5 FM">
  <path d="m224.18-59.296h-3.5156v-22.402q-1.2695 1.2109-3.3398 2.4219-2.0508 1.2109-3.6914 1.8164v-3.3984q2.9492-1.3867 5.1562-3.3594t3.125-3.8281h2.2656z"/>
  <path d="m233.2-73.417q0-5.0781 1.0352-8.1641 1.0547-3.1055 3.1055-4.7852 2.0703-1.6797 5.1953-1.6797 2.3047 0 4.043 0.9375 1.7383 0.91797 2.8711 2.6758 1.1328 1.7383 1.7774 4.2578 0.64453 2.5 0.64453 6.7578 0 5.0391-1.0352 8.1445-1.0352 3.0859-3.1055 4.7852-2.0508 1.6797-5.1953 1.6797-4.1406 0-6.5039-2.9688-2.832-3.5742-2.832-11.641zm3.6133 0q0 7.0508 1.6406 9.3945 1.6602 2.3242 4.082 2.3242 2.4219 0 4.0625-2.3438 1.6602-2.3438 1.6602-9.375 0-7.0703-1.6602-9.3945-1.6406-2.3242-4.1016-2.3242-2.4219 0-3.8672 2.0508-1.8164 2.6172-1.8164 9.668z"/>
  <path d="m255.47-66.796 3.6914-0.3125q0.41015 2.6953 1.8945 4.0625 1.5039 1.3477 3.6133 1.3477 2.5391 0 4.2969-1.9141t1.7578-5.0781q0-3.0078-1.6992-4.7461-1.6797-1.7383-4.4141-1.7383-1.6992 0-3.0664 0.78125-1.3672 0.76172-2.1484 1.9922l-3.3008-0.42969 2.7734-14.707h14.238v3.3594h-11.426l-1.543 7.6953q2.5781-1.7969 5.4102-1.7969 3.75 0 6.3281 2.5977t2.5781 6.6797q0 3.8867-2.2656 6.7188-2.7539 3.4766-7.5195 3.4766-3.9062 0-6.3867-2.1875-2.4609-2.1875-2.8125-5.8008z"/>
  <path d="m279.71-59.296v-4.0039h4.0039v4.0039z"/>
  <path d="m288.83-66.796 3.6914-0.3125q0.41016 2.6953 1.8945 4.0625 1.5039 1.3477 3.6133 1.3477 2.5391 0 4.2969-1.9141t1.7578-5.0781q0-3.0078-1.6992-4.7461-1.6797-1.7383-4.4141-1.7383-1.6992 0-3.0664 0.78125-1.3672 0.76172-2.1484 1.9922l-3.3008-0.42969 2.7734-14.707h14.238v3.3594h-11.426l-1.543 7.6953q2.5781-1.7969 5.4102-1.7969 3.75 0 6.3281 2.5977t2.5781 6.6797q0 3.8867-2.2656 6.7188-2.7539 3.4766-7.5195 3.4766-3.9062 0-6.3867-2.1875-2.4609-2.1875-2.8125-5.8008z"/>
  <path d="m323.81-59.296v-28.633h19.316v3.3789h-15.527v8.8672h13.438v3.3789h-13.438v13.008z"/>
  <path d="m347.95-59.296v-28.633h5.7031l6.7774 20.273q0.9375 2.832 1.3672 4.2383 0.48829-1.5625 1.5234-4.5898l6.8555-19.922h5.0977v28.633h-3.6524v-23.965l-8.3203 23.965h-3.418l-8.2812-24.375v24.375z"/>
 </g>
 <g transform="translate(-93.178 -62.152)" fill="#c82423">
  <path transform="scale(.75)" d="m431.55 82.869c-13.807-1.1e-5 -25 11.193-25 25 0 1.3623 0.11454 2.6969 0.32422 4h4.0664c-0.25412-1.2969-0.39257-2.6329-0.39257-4 0-11.527 9.4731-21 21-21 11.527-5.1e-5 21 9.4731 21 21 0 1.3671-0.13846 2.703-0.39258 4h4.0723c0.20967-1.3031 0.32227-2.6378 0.32227-4 0-13.807-11.193-25-25-25z" style="paint-order:stroke fill markers"/>
  <path transform="scale(.75)" d="m431.55 92.869c-8.2843-7e-6 -15 6.7157-15 15 0 1.3879 0.20384 2.7243 0.55664 4h3.166c-0.45796-1.2577-0.72265-2.6015-0.72265-4 0-6.5326 5.4673-12 12-12 6.5327-2.7e-5 12 5.4673 12 12 0 1.3985-0.26274 2.7423-0.72071 4h3.1641c0.35285-1.2758 0.55664-2.612 0.55664-4 0-8.2843-6.7157-15-15-15z" style="paint-order:stroke fill markers"/>
  <path d="m326.66 80.901a3 3 0 0 1-3 3 3 3 0 0 1-3-3 3 3 0 0 1 3-3 3 3 0 0 1 3 3z" style="paint-order:stroke fill markers"/>
 </g>
</svg>
