<svg version="1.1" viewBox="0 0 206.94 66.281" xml:space="preserve" xmlns="http://www.w3.org/2000/svg"><g transform="matrix(1.3333 0 0 -1.3333 1043.2 1540)"><g transform="translate(-461.97 389.73)" fill="#fff"><g fill-rule="evenodd"><path d="m-265.32 747.73c0 2.49 0.945 3.956 2.837 4.394 0.6 0.161 1.303 0.253 2.11 0.276 1.615 0 2.825-0.253 3.633-0.761 0.853-0.554 1.407-1.268 1.66-2.145 0.046-0.162 0.093-0.3 0.138-0.415 0.024-0.093 0.035-0.196 0.035-0.311 0-0.185-0.058-0.358-0.173-0.519-0.207-0.3-0.507-0.45-0.899-0.45-0.415 0-0.75 0.334-1.003 1.003-0.3 0.738-0.727 1.245-1.28 1.522-0.462 0.254-1.05 0.381-1.765 0.381h-0.346c-2.145-0.116-3.217-1.049-3.217-2.802v-2.734c0-1.314 0.738-2.11 2.213-2.386 0.693-0.138 1.235-0.208 1.626-0.208h0.381c0.485 0.07 1.015 0.231 1.592 0.484 0.853 0.369 1.407 0.554 1.66 0.554h0.069c0.254-0.046 0.404-0.266 0.451-0.658 0-0.668-0.52-1.187-1.557-1.557-0.254-0.069-0.773-0.173-1.557-0.311-0.416-0.069-0.958-0.103-1.627-0.103-1.845 0-3.205 0.414-4.082 1.245-0.599 0.554-0.899 1.349-0.899 2.387z"/><path d="m-253.47 751.12c0 0.807 0.185 1.234 0.553 1.28h0.312c0.3 0 0.495-0.046 0.588-0.138 0.185-0.184 0.277-0.565 0.277-1.142v-5.293c0-1.385 0.599-2.329 1.799-2.837 0.415-0.184 0.933-0.277 1.556-0.277 0.923 0 1.592 0.173 2.007 0.519 0.576 0.484 0.865 1.222 0.865 2.215l0.034 5.673c0 0.807 0.174 1.234 0.52 1.28h0.345c0.277 0 0.462-0.046 0.554-0.138 0.208-0.208 0.312-0.588 0.312-1.142l-0.035-8.822c0-0.83-0.185-1.268-0.554-1.314h-0.312c-0.184 0-0.391 0.057-0.622 0.172s-0.438 0.173-0.623 0.173h-0.034c-0.139 0-0.484-0.058-1.038-0.173-0.553-0.115-1.027-0.172-1.419-0.172-2.49 0-4.071 1.014-4.739 3.043-0.23 0.647-0.346 1.396-0.346 2.25z"/><path d="m-239.93 748.25 0.033-3.149c0-0.945 0.3-1.625 0.9-2.041 0.415-0.299 1.038-0.45 1.868-0.45h2.215c0.461 0 0.795 0.104 1.003 0.312 0.208 0.23 0.312 0.588 0.312 1.072l0.103 5.432c0 0.853-0.334 1.28-1.003 1.28h-2.076c-1.061 0-1.845-0.15-2.353-0.45-0.669-0.369-1.002-1.038-1.002-2.006m6.261-8.062c0 0.532-0.231 0.797-0.692 0.797h-2.353c-1.198 0-2.052 0.069-2.56 0.207-1.568 0.461-2.352 1.799-2.352 4.013v3.079c0 1.43 0.346 2.457 1.038 3.079 0.646 0.576 1.545 0.9 2.698 0.969 0.692 0.046 1.43 0.069 2.214 0.069h2.388c0.53 0 0.91-0.046 1.141-0.138 0.392-0.208 0.588-0.588 0.588-1.142v-10.136c0-2.099-0.392-3.495-1.176-4.187-0.669-0.599-1.649-0.899-2.941-0.899h-2.767c-0.508 0-0.935 0.15-1.28 0.451-0.185 0.183-0.277 0.345-0.277 0.483 0 0.093 0.058 0.185 0.173 0.277 0.185 0.162 0.496 0.242 0.934 0.242h2.802c1.615 0 2.422 0.946 2.422 2.836"/><path d="m-224.51 745.83c-1.176-0.046-1.96-0.185-2.353-0.416-0.461-0.23-0.692-0.633-0.692-1.21s0.208-0.98 0.623-1.211c0.392-0.23 1.014-0.346 1.868-0.346h0.45c1.5 0 2.422 0.334 2.767 1.003 0.092 0.184 0.138 0.369 0.138 0.554 0 0.577-0.195 0.98-0.587 1.21-0.439 0.277-1.176 0.416-2.214 0.416m-4.775-1.695c0 1.706 0.728 2.733 2.18 3.079 0.669 0.138 1.441 0.207 2.318 0.207h2.179c0.6 0 0.899 0.427 0.899 1.28 0 0.784-0.483 1.349-1.452 1.696-0.324 0.115-0.692 0.172-1.106 0.172-1.108-0.069-1.904-0.426-2.388-1.072-0.162-0.184-0.312-0.393-0.45-0.623-0.115-0.207-0.323-0.346-0.622-0.416-0.093-0.045-0.185-0.068-0.278-0.068-0.138 0-0.276 0.034-0.415 0.104-0.322 0.161-0.484 0.577-0.484 1.245 0 0.761 0.45 1.395 1.349 1.903 0.877 0.485 1.926 0.726 3.149 0.726h0.311c1.337 0 2.422-0.392 3.252-1.176 0.692-0.692 1.038-1.545 1.038-2.56v-5.363c0-0.184 0.08-0.438 0.242-0.761 0.138-0.276 0.208-0.53 0.208-0.761 0-0.23-0.173-0.415-0.519-0.553-0.185-0.046-0.346-0.069-0.485-0.069-0.138 0-0.276 0.023-0.415 0.069-0.507 0.23-0.853 0.346-1.038 0.346-0.161 0-0.277-0.023-0.345-0.069-0.047-0.047-0.104-0.081-0.174-0.104-0.069-0.023-0.15-0.058-0.242-0.104-0.046-0.046-0.299-0.115-0.761-0.207-0.277-0.046-0.761-0.069-1.453-0.069h-0.623c-0.369 0-0.865 0.057-1.488 0.172-0.807 0.139-1.441 0.52-1.902 1.142-0.323 0.462-0.485 1.072-0.485 1.834"/><path d="m-209.22 743.62c0.437 0 0.715-0.173 0.83-0.519 0-0.323-0.138-0.634-0.415-0.935-0.555-0.529-1.384-0.899-2.491-1.106-0.323-0.046-0.693-0.069-1.108-0.069-1.753 0-2.928 0.669-3.528 2.006-0.208 0.485-0.311 1.096-0.311 1.834v5.258c0 0.231-0.081 0.404-0.243 0.519-0.046 0.047-0.104 0.07-0.172 0.07-0.808 0-1.234 0.161-1.281 0.484v0.38c0 0.3 0.047 0.496 0.139 0.589 0.184 0.184 0.565 0.277 1.142 0.277 0.184 0 0.323 0.138 0.415 0.415 0.023 0.069 0.035 0.138 0.035 0.207l-0.035 2.837c0 0.807 0.196 1.222 0.587 1.245 0.093 0.024 0.185 0.035 0.278 0.035 0.299 0 0.506-0.058 0.622-0.173 0.161-0.161 0.242-0.53 0.242-1.107v-2.941c0-0.184 0.046-0.322 0.139-0.415 0.092-0.069 0.253-0.103 0.484-0.103h2.629c0.785 0 1.211-0.185 1.28-0.555 0.024-0.091 0.034-0.195 0.034-0.311 0-0.276-0.057-0.473-0.171-0.588-0.186-0.185-0.566-0.276-1.143-0.276h-2.629c-0.231 0-0.392-0.046-0.484-0.139-0.093-0.068-0.139-0.219-0.139-0.45v-5.258c0-0.715 0.219-1.257 0.658-1.627 0.323-0.253 0.807-0.414 1.452-0.483 0.116-0.023 0.243-0.035 0.381-0.035 0.646 0 1.268 0.196 1.868 0.588 0.278 0.161 0.588 0.277 0.935 0.346"/><path d="m-203.95 744.86c0.53 0 0.98-0.196 1.35-0.588 0.391-0.369 0.588-0.818 0.588-1.349s-0.197-0.992-0.588-1.384c-0.37-0.369-0.82-0.553-1.35-0.553-0.531 0-0.993 0.184-1.384 0.553-0.369 0.392-0.554 0.853-0.554 1.384s0.185 0.98 0.554 1.349c0.391 0.392 0.853 0.588 1.384 0.588"/><path d="m-198.73 747.73c0 2.49 0.946 3.956 2.837 4.394 0.6 0.161 1.304 0.253 2.111 0.276 1.615 0 2.825-0.253 3.633-0.761 0.852-0.554 1.406-1.268 1.659-2.145 0.047-0.162 0.094-0.3 0.139-0.415 0.023-0.093 0.035-0.196 0.035-0.311 0-0.185-0.058-0.358-0.174-0.519-0.207-0.3-0.507-0.45-0.898-0.45-0.416 0-0.75 0.334-1.004 1.003-0.3 0.738-0.727 1.245-1.28 1.522-0.461 0.254-1.049 0.381-1.764 0.381h-0.346c-2.145-0.116-3.218-1.049-3.218-2.802v-2.734c0-1.314 0.738-2.11 2.214-2.386 0.692-0.138 1.234-0.208 1.626-0.208h0.38c0.486 0.07 1.016 0.231 1.592 0.484 0.854 0.369 1.407 0.554 1.66 0.554h0.07c0.253-0.046 0.403-0.266 0.45-0.658 0-0.668-0.52-1.187-1.557-1.557-0.254-0.069-0.772-0.173-1.557-0.311-0.416-0.069-0.957-0.103-1.626-0.103-1.845 0-3.205 0.414-4.082 1.245-0.6 0.554-0.9 1.349-0.9 2.387z"/><path d="m-181.86 745.83c-1.177-0.046-1.96-0.185-2.352-0.416-0.462-0.23-0.692-0.633-0.692-1.21s0.208-0.98 0.622-1.211c0.392-0.23 1.014-0.346 1.868-0.346h0.45c1.5 0 2.422 0.334 2.768 1.003 0.092 0.184 0.139 0.369 0.139 0.554 0 0.577-0.197 0.98-0.588 1.21-0.439 0.277-1.177 0.416-2.215 0.416m-4.774-1.695c0 1.706 0.727 2.733 2.18 3.079 0.669 0.138 1.44 0.207 2.317 0.207h2.179c0.601 0 0.901 0.427 0.901 1.28 0 0.784-0.485 1.349-1.454 1.696-0.322 0.115-0.692 0.172-1.106 0.172-1.108-0.069-1.903-0.426-2.388-1.072-0.162-0.184-0.312-0.393-0.449-0.623-0.116-0.207-0.324-0.346-0.623-0.416-0.092-0.045-0.185-0.068-0.278-0.068-0.137 0-0.276 0.034-0.414 0.104-0.323 0.161-0.485 0.577-0.485 1.245 0 0.761 0.45 1.395 1.35 1.903 0.877 0.485 1.926 0.726 3.148 0.726h0.312c1.337 0 2.42-0.392 3.251-1.176 0.692-0.692 1.038-1.545 1.038-2.56v-5.363c0-0.184 0.081-0.438 0.242-0.761 0.138-0.276 0.208-0.53 0.208-0.761 0-0.23-0.173-0.415-0.519-0.553-0.184-0.046-0.346-0.069-0.485-0.069-0.138 0-0.276 0.023-0.414 0.069-0.508 0.23-0.854 0.346-1.038 0.346-0.161 0-0.277-0.023-0.347-0.069-0.045-0.047-0.103-0.081-0.172-0.104-0.07-0.023-0.15-0.058-0.242-0.104-0.046-0.046-0.3-0.115-0.761-0.207-0.277-0.046-0.761-0.069-1.454-0.069h-0.622c-0.37 0-0.866 0.057-1.488 0.172-0.807 0.139-1.443 0.52-1.903 1.142-0.323 0.462-0.484 1.072-0.484 1.834"/><path d="m-166.07 743.62c0.438 0 0.715-0.173 0.831-0.519 0-0.323-0.14-0.634-0.416-0.935-0.553-0.529-1.384-0.899-2.491-1.106-0.322-0.046-0.692-0.069-1.107-0.069-1.753 0-2.928 0.669-3.528 2.006-0.209 0.485-0.312 1.096-0.312 1.834v5.258c0 0.231-0.081 0.404-0.242 0.519-0.047 0.047-0.104 0.07-0.173 0.07-0.807 0-1.234 0.161-1.28 0.484v0.38c0 0.3 0.046 0.496 0.138 0.589 0.184 0.184 0.565 0.277 1.142 0.277 0.184 0 0.323 0.138 0.415 0.415 0.023 0.069 0.035 0.138 0.035 0.207l-0.035 2.837c0 0.807 0.196 1.222 0.588 1.245 0.093 0.024 0.184 0.035 0.277 0.035 0.3 0 0.508-0.058 0.623-0.173 0.161-0.161 0.243-0.53 0.243-1.107v-2.941c0-0.184 0.045-0.322 0.137-0.415 0.093-0.069 0.254-0.103 0.485-0.103h2.629c0.784 0 1.211-0.185 1.28-0.555 0.023-0.091 0.035-0.195 0.035-0.311 0-0.276-0.058-0.473-0.173-0.588-0.185-0.185-0.566-0.276-1.142-0.276h-2.629c-0.231 0-0.392-0.046-0.485-0.139-0.092-0.068-0.137-0.219-0.137-0.45v-5.258c0-0.715 0.218-1.257 0.656-1.627 0.323-0.253 0.807-0.414 1.453-0.483 0.116-0.023 0.243-0.035 0.381-0.035 0.645 0 1.269 0.196 1.868 0.588 0.277 0.161 0.588 0.277 0.934 0.346"/></g><path d="m-295.59 755.69c-8.421 0-15.248-6.827-15.248-15.248s6.827-15.248 15.248-15.248c2.673 0 5.186 0.689 7.371 1.896 0.408-3.575 3.034-6.478 6.469-7.298-3.956-2.657-8.717-4.206-13.84-4.206-13.728 0-24.855 11.128-24.855 24.856s11.127 24.855 24.855 24.855 24.855-11.127 24.855-24.855c0-2.971-0.521-5.82-1.476-8.46-1.418 2.728-4.269 4.593-7.556 4.593-0.369 0-0.732-0.024-1.088-0.069 0.334 1.255 0.513 2.575 0.513 3.936 0 8.421-6.827 15.248-15.248 15.248"/><path d="m-284.67 728.07c0 2.71 2.197 4.906 4.908 4.906 2.71 0 4.906-2.196 4.906-4.906s-2.196-4.908-4.906-4.908c-2.711 0-4.908 2.198-4.908 4.908"/></g><g transform="translate(-461.97 389.73)" fill="#5a8a3d"><path d="m-253.52 726.77v2.079c0 0.301-0.123 0.531-0.37 0.692-0.194 0.118-0.451 0.177-0.774 0.177-0.988 0-1.589-0.305-1.804-0.918-0.065-0.215-0.097-0.456-0.097-0.725v-0.194c0-0.193 0.011-0.413 0.032-0.66 0.118-0.891 0.672-1.337 1.659-1.337 0.624 0 1.038 0.161 1.241 0.484 0.075 0.107 0.113 0.241 0.113 0.402m0.403-1.644c-0.15 0-0.285 0.07-0.403 0.21l-0.499-0.161c-0.15-0.032-0.322-0.049-0.516-0.049h-0.499l-0.467 0.033c-0.924 0.064-1.504 0.483-1.74 1.257-0.129 0.396-0.194 0.896-0.194 1.498 0 0.988 0.269 1.691 0.806 2.11 0.365 0.279 0.913 0.419 1.643 0.419 0.763 0 1.209-0.048 1.337-0.145 0.022-0.01 0.043-0.016 0.065-0.016 0.043 0 0.064 0.032 0.064 0.097v1.676c0 0.376 0.081 0.569 0.242 0.58 0.053 0.01 0.107 0.016 0.161 0.016 0.139 0 0.236-0.027 0.29-0.081 0.076-0.075 0.113-0.247 0.113-0.515v-6.316c0-0.365-0.08-0.564-0.242-0.596-0.053-0.011-0.107-0.017-0.161-0.017" fill-rule="evenodd"/><path d="m-251.09 725.12c-0.375 0-0.574 0.086-0.595 0.258v0.145c0 0.15 0.021 0.246 0.064 0.289 0.097 0.076 0.274 0.114 0.531 0.114h0.549c0.192 0 0.306 0.016 0.338 0.048 0.043 0.043 0.065 0.161 0.065 0.354v2.82c0 0.139-0.087 0.258-0.258 0.354-0.054 0.033-0.103 0.049-0.145 0.049-0.473 0-0.726 0.081-0.757 0.242-0.012 0.053-0.017 0.107-0.017 0.16 0 0.162 0.113 0.28 0.339 0.355 0.074 0.032 0.166 0.048 0.274 0.048h0.757c0.387 0 0.59-0.134 0.612-0.403v-3.625c0-0.193 0.016-0.306 0.048-0.337 0.032-0.044 0.15-0.065 0.354-0.065h0.339c0.387 0 0.59-0.086 0.612-0.259v-0.144c0-0.151-0.022-0.247-0.064-0.29-0.097-0.075-0.279-0.113-0.548-0.113zm1.273 7.218c0.204 0 0.355-0.097 0.452-0.29 0.021-0.064 0.032-0.129 0.032-0.193 0-0.205-0.097-0.355-0.29-0.452-0.065-0.021-0.129-0.032-0.194-0.032-0.139 0-0.257 0.049-0.354 0.145-0.086 0.086-0.128 0.199-0.128 0.339 0 0.129 0.042 0.246 0.128 0.354 0.085 0.086 0.204 0.129 0.354 0.129" fill-rule="evenodd"/><path d="m-245.1 727.38c-0.548-0.021-0.913-0.086-1.096-0.193-0.215-0.108-0.322-0.295-0.322-0.564s0.097-0.457 0.29-0.564c0.183-0.108 0.473-0.161 0.87-0.161h0.21c0.698 0 1.128 0.155 1.289 0.467 0.042 0.085 0.064 0.172 0.064 0.258 0 0.269-0.091 0.456-0.274 0.564-0.204 0.129-0.548 0.193-1.031 0.193m-2.223-0.79c0 0.795 0.338 1.273 1.015 1.435 0.311 0.063 0.671 0.096 1.079 0.096h1.015c0.28 0 0.419 0.198 0.419 0.596 0 0.365-0.225 0.628-0.677 0.789-0.15 0.054-0.322 0.081-0.515 0.081-0.516-0.032-0.886-0.199-1.112-0.499-0.075-0.086-0.145-0.183-0.209-0.29-0.054-0.097-0.151-0.161-0.29-0.194-0.044-0.021-0.086-0.033-0.13-0.033-0.064 0-0.128 0.017-0.192 0.049-0.151 0.076-0.227 0.269-0.227 0.581 0 0.354 0.21 0.649 0.629 0.886 0.408 0.225 0.897 0.338 1.466 0.338h0.145c0.623 0 1.128-0.183 1.515-0.548 0.322-0.322 0.483-0.719 0.483-1.193v-2.496c0-0.086 0.038-0.205 0.113-0.354 0.064-0.13 0.097-0.248 0.097-0.355s-0.081-0.194-0.242-0.258c-0.086-0.022-0.161-0.032-0.225-0.032-0.065 0-0.13 0.01-0.194 0.032-0.236 0.107-0.398 0.161-0.483 0.161-0.075 0-0.13-0.01-0.161-0.032-0.022-0.022-0.049-0.038-0.081-0.048-0.032-0.011-0.07-0.027-0.113-0.048-0.021-0.022-0.139-0.055-0.355-0.097-0.128-0.022-0.354-0.033-0.676-0.033h-0.29c-0.172 0-0.403 0.027-0.693 0.081-0.376 0.065-0.671 0.241-0.886 0.531-0.15 0.215-0.225 0.5-0.225 0.854" fill-rule="evenodd"/><path d="m-240.98 725.93c0.215 0 0.322 0.113 0.322 0.338v3.029c0 0.14-0.058 0.242-0.177 0.306-0.043 0.021-0.091 0.033-0.145 0.033-0.279 0-0.467 0.086-0.564 0.258-0.021 0.042-0.032 0.091-0.032 0.144 0 0.14 0.021 0.232 0.064 0.274 0.086 0.086 0.264 0.129 0.532 0.129 0.226 0 0.51-0.032 0.854-0.096 0.065-0.012 0.134-0.017 0.209-0.017 0.033 0 0.253 0.039 0.661 0.113 0.182 0.032 0.488 0.049 0.919 0.049 0.343 0 0.644-0.102 0.901-0.307 0.27-0.204 0.403-0.429 0.403-0.676v-0.274c0.011-0.022 0.016-0.043 0.016-0.065 0-0.172-0.048-0.317-0.144-0.434-0.044-0.065-0.124-0.103-0.242-0.114-0.172 0-0.333 0.13-0.483 0.388-0.162 0.279-0.318 0.466-0.468 0.563-0.161 0.097-0.316 0.145-0.467 0.145-0.419 0-0.725-0.145-0.918-0.435-0.075-0.107-0.113-0.236-0.113-0.386v-2.627c0-0.14 0.038-0.231 0.113-0.273 0.097-0.044 0.343-0.065 0.741-0.065 0.386 0 0.591-0.086 0.612-0.258v-0.144c0-0.14-0.021-0.232-0.064-0.274-0.087-0.087-0.269-0.13-0.548-0.13h-1.982c-0.376 0-0.575 0.086-0.596 0.258v0.146c0 0.139 0.021 0.23 0.064 0.273 0.086 0.086 0.264 0.129 0.532 0.129" fill-rule="evenodd"/><path d="m-236.05 725.12c-0.375 0-0.574 0.086-0.595 0.258v0.145c0 0.15 0.021 0.246 0.064 0.289 0.096 0.076 0.274 0.114 0.531 0.114h0.548c0.194 0 0.306 0.016 0.338 0.048 0.043 0.043 0.065 0.161 0.065 0.354v2.82c0 0.139-0.086 0.258-0.258 0.354-0.053 0.033-0.102 0.049-0.145 0.049-0.472 0-0.725 0.081-0.757 0.242-0.01 0.053-0.016 0.107-0.016 0.16 0 0.162 0.112 0.28 0.338 0.355 0.075 0.032 0.167 0.048 0.274 0.048h0.757c0.387 0 0.591-0.134 0.613-0.403v-3.625c0-0.193 0.015-0.306 0.048-0.337 0.032-0.044 0.151-0.065 0.355-0.065h0.338c0.386 0 0.59-0.086 0.612-0.259v-0.144c0-0.151-0.022-0.247-0.065-0.29-0.096-0.075-0.278-0.113-0.547-0.113zm1.273 7.218c0.205 0 0.355-0.097 0.451-0.29 0.022-0.064 0.033-0.129 0.033-0.193 0-0.205-0.097-0.355-0.291-0.452-0.064-0.021-0.129-0.032-0.193-0.032-0.14 0-0.257 0.049-0.354 0.145-0.086 0.086-0.129 0.199-0.129 0.339 0 0.129 0.043 0.246 0.129 0.354 0.086 0.086 0.205 0.129 0.354 0.129" fill-rule="evenodd"/><path d="m-265.83 728.06c0 1.918 1.555 3.474 3.474 3.474 1.917 0 3.473-1.556 3.473-3.474s-1.556-3.473-3.473-3.473c-1.919 0-3.474 1.555-3.474 3.473"/></g><g transform="translate(-461.97 389.73)" fill="#e62e38"><path d="m-212.65 726.35c0.204 0 0.333-0.08 0.387-0.241 0-0.151-0.065-0.296-0.194-0.436-0.258-0.246-0.645-0.418-1.16-0.514-0.151-0.022-0.322-0.033-0.515-0.033-0.817 0-1.364 0.311-1.644 0.934-0.097 0.226-0.145 0.511-0.145 0.854v2.449c0 0.108-0.038 0.188-0.113 0.242-0.021 0.021-0.048 0.033-0.08 0.033-0.376 0-0.575 0.074-0.596 0.225v0.177c0 0.14 0.021 0.231 0.064 0.274 0.086 0.086 0.264 0.129 0.532 0.129 0.086 0 0.151 0.064 0.193 0.193 0.011 0.032 0.017 0.065 0.017 0.096l-0.017 1.322c0 0.376 0.092 0.569 0.274 0.58 0.043 0.01 0.086 0.016 0.129 0.016 0.139 0 0.236-0.027 0.29-0.081 0.076-0.074 0.113-0.246 0.113-0.515v-1.37c0-0.085 0.021-0.15 0.065-0.193 0.043-0.032 0.117-0.048 0.225-0.048h1.225c0.364 0 0.563-0.087 0.596-0.258 0.01-0.043 0.015-0.092 0.015-0.145 0-0.129-0.027-0.22-0.079-0.274-0.087-0.086-0.264-0.128-0.532-0.128h-1.225c-0.108 0-0.182-0.022-0.225-0.065-0.044-0.033-0.065-0.102-0.065-0.21v-2.449c0-0.333 0.102-0.585 0.306-0.757 0.151-0.118 0.375-0.193 0.677-0.225 0.054-0.011 0.113-0.017 0.177-0.017 0.301 0 0.591 0.092 0.869 0.274 0.13 0.076 0.275 0.129 0.436 0.161" fill-rule="evenodd"/><path d="m-211.84 730.02c0 0.301 0.102 0.451 0.306 0.451 0.215 0 0.366-0.113 0.451-0.339l1.628-3.383 1.498 3.11c0.097 0.236 0.161 0.37 0.194 0.403 0.074 0.118 0.171 0.177 0.29 0.177 0.139 0 0.226-0.075 0.258-0.226 0.01-0.032 0.016-0.069 0.016-0.112 0-0.129-0.038-0.301-0.113-0.516-0.011-0.054-0.022-0.102-0.033-0.145l-1.611-3.802c-0.129-0.344-0.343-0.516-0.644-0.516s-0.516 0.183-0.644 0.547l-0.097 0.259-1.29 3.157c-0.139 0.344-0.209 0.656-0.209 0.935" fill-rule="evenodd"/><path d="m-224.85 728.06c0 1.918 1.556 3.474 3.474 3.474s3.473-1.556 3.473-3.474-1.555-3.473-3.473-3.473-3.474 1.555-3.474 3.473"/></g><g transform="translate(-461.97 389.73)" fill="#62439a"><path d="m-190.56 725.93c0.215 0 0.322 0.113 0.322 0.338v3.029c0 0.14-0.059 0.242-0.177 0.306-0.043 0.021-0.091 0.033-0.145 0.033-0.28 0-0.467 0.086-0.564 0.258-0.021 0.042-0.032 0.091-0.032 0.144 0 0.14 0.021 0.232 0.064 0.274 0.086 0.086 0.263 0.129 0.532 0.129 0.225 0 0.51-0.032 0.854-0.096 0.064-0.012 0.134-0.017 0.209-0.017 0.033 0 0.253 0.039 0.661 0.113 0.183 0.032 0.488 0.049 0.918 0.049 0.343 0 0.645-0.102 0.902-0.307 0.269-0.204 0.403-0.429 0.403-0.676v-0.274c0.011-0.022 0.016-0.043 0.016-0.065 0-0.172-0.048-0.317-0.145-0.434-0.043-0.065-0.123-0.103-0.242-0.114-0.172 0-0.333 0.13-0.482 0.388-0.162 0.279-0.318 0.466-0.469 0.563-0.16 0.097-0.316 0.145-0.466 0.145-0.419 0-0.725-0.145-0.919-0.435-0.074-0.107-0.113-0.236-0.113-0.386v-2.627c0-0.14 0.039-0.231 0.113-0.273 0.097-0.044 0.344-0.065 0.742-0.065 0.386 0 0.591-0.086 0.612-0.258v-0.144c0-0.14-0.021-0.232-0.064-0.274-0.087-0.087-0.269-0.13-0.548-0.13h-1.982c-0.376 0-0.575 0.086-0.596 0.258v0.146c0 0.139 0.021 0.23 0.064 0.273 0.086 0.086 0.263 0.129 0.532 0.129" fill-rule="evenodd"/><path d="m-183.65 727.38c-0.548-0.021-0.913-0.086-1.096-0.193-0.215-0.108-0.321-0.295-0.321-0.564s0.096-0.457 0.29-0.564c0.182-0.108 0.472-0.161 0.87-0.161h0.209c0.698 0 1.128 0.155 1.288 0.467 0.044 0.085 0.066 0.172 0.066 0.258 0 0.269-0.093 0.456-0.275 0.564-0.203 0.129-0.548 0.193-1.031 0.193m-2.224-0.79c0 0.795 0.339 1.273 1.016 1.435 0.312 0.063 0.671 0.096 1.079 0.096h1.015c0.28 0 0.42 0.198 0.42 0.596 0 0.365-0.226 0.628-0.677 0.789-0.151 0.054-0.322 0.081-0.516 0.081-0.516-0.032-0.886-0.199-1.112-0.499-0.075-0.086-0.145-0.183-0.209-0.29-0.054-0.097-0.15-0.161-0.29-0.194-0.043-0.021-0.086-0.033-0.129-0.033-0.064 0-0.129 0.017-0.193 0.049-0.15 0.076-0.225 0.269-0.225 0.581 0 0.354 0.209 0.649 0.628 0.886 0.408 0.225 0.896 0.338 1.466 0.338h0.145c0.621 0 1.127-0.183 1.514-0.548 0.322-0.322 0.484-0.719 0.484-1.193v-2.496c0-0.086 0.037-0.205 0.113-0.354 0.064-0.13 0.096-0.248 0.096-0.355s-0.08-0.194-0.241-0.258c-0.087-0.022-0.162-0.032-0.226-0.032s-0.129 0.01-0.193 0.032c-0.237 0.107-0.398 0.161-0.484 0.161-0.075 0-0.129-0.01-0.161-0.032-0.022-0.022-0.048-0.038-0.081-0.048-0.032-0.011-0.07-0.027-0.112-0.048-0.022-0.022-0.14-0.055-0.355-0.097-0.129-0.022-0.354-0.033-0.677-0.033h-0.29c-0.171 0-0.403 0.027-0.692 0.081-0.376 0.065-0.672 0.241-0.887 0.531-0.15 0.215-0.226 0.5-0.226 0.854m3.255 4.689c0.022-0.053 0.032-0.113 0.032-0.177 0-0.054-0.01-0.108-0.032-0.161-0.032-0.097-0.128-0.146-0.289-0.146-0.109 0.022-0.221 0.06-0.339 0.113-0.215 0.118-0.57 0.355-1.063 0.709-0.226 0.161-0.36 0.318-0.403 0.467-0.011 0.087-0.017 0.161-0.017 0.226s6e-3 0.118 0.017 0.161c0.043 0.129 0.129 0.205 0.258 0.226 0.043 0.011 0.085 0.016 0.128 0.016 0.151 0 0.296-0.043 0.435-0.129 0.151-0.086 0.484-0.398 0.999-0.934 0.14-0.14 0.232-0.264 0.274-0.371" fill-rule="evenodd"/><path d="m-176.33 726.77v2.079c0 0.301-0.124 0.531-0.371 0.692-0.193 0.118-0.451 0.177-0.773 0.177-0.988 0-1.59-0.305-1.804-0.918-0.066-0.215-0.097-0.456-0.097-0.725v-0.194c0-0.193 0.01-0.413 0.031-0.66 0.119-0.891 0.672-1.337 1.66-1.337 0.624 0 1.038 0.161 1.241 0.484 0.075 0.107 0.113 0.241 0.113 0.402m0.402-1.644c-0.151 0-0.284 0.07-0.402 0.21l-0.5-0.161c-0.15-0.032-0.322-0.049-0.516-0.049h-0.499l-0.467 0.033c-0.923 0.064-1.503 0.483-1.74 1.257-0.128 0.396-0.193 0.896-0.193 1.498 0 0.988 0.268 1.691 0.805 2.11 0.366 0.279 0.913 0.419 1.644 0.419 0.762 0 1.208-0.048 1.337-0.145 0.022-0.01 0.043-0.016 0.065-0.016 0.043 0 0.064 0.032 0.064 0.097v1.676c0 0.376 0.081 0.569 0.241 0.58 0.054 0.01 0.108 0.016 0.161 0.016 0.14 0 0.237-0.027 0.291-0.081 0.075-0.075 0.112-0.247 0.112-0.515v-6.316c0-0.365-0.08-0.564-0.242-0.596-0.053-0.011-0.106-0.017-0.161-0.017" fill-rule="evenodd"/><path d="m-173.9 725.12c-0.376 0-0.575 0.086-0.597 0.258v0.145c0 0.15 0.022 0.246 0.065 0.289 0.097 0.076 0.274 0.114 0.532 0.114h0.547c0.194 0 0.307 0.016 0.339 0.048 0.043 0.043 0.064 0.161 0.064 0.354v2.82c0 0.139-0.086 0.258-0.257 0.354-0.054 0.033-0.103 0.049-0.146 0.049-0.472 0-0.725 0.081-0.756 0.242-0.011 0.053-0.017 0.107-0.017 0.16 0 0.162 0.113 0.28 0.339 0.355 0.075 0.032 0.166 0.048 0.273 0.048h0.758c0.386 0 0.591-0.134 0.611-0.403v-3.625c0-0.193 0.017-0.306 0.05-0.337 0.031-0.044 0.149-0.065 0.354-0.065h0.338c0.387 0 0.59-0.086 0.613-0.259v-0.144c0-0.151-0.023-0.247-0.065-0.29-0.097-0.075-0.28-0.113-0.548-0.113zm1.272 7.218c0.205 0 0.355-0.097 0.452-0.29 0.021-0.064 0.031-0.129 0.031-0.193 0-0.205-0.096-0.355-0.289-0.452-0.064-0.021-0.129-0.032-0.194-0.032-0.14 0-0.257 0.049-0.354 0.145-0.086 0.086-0.129 0.199-0.129 0.339 0 0.129 0.043 0.246 0.129 0.354 0.086 0.086 0.205 0.129 0.354 0.129" fill-rule="evenodd"/><path d="m-166.42 727.46v0.661c0 0.547-0.091 0.929-0.273 1.144-0.205 0.246-0.565 0.371-1.08 0.371h-0.113c-0.579 0-0.977-0.13-1.193-0.388-0.172-0.203-0.257-0.58-0.257-1.127v-0.661c0-0.568 0.097-0.961 0.291-1.176 0.214-0.236 0.601-0.354 1.159-0.354 0.57 0 0.956 0.113 1.159 0.338 0.205 0.226 0.307 0.624 0.307 1.192m0.806 0.613v-0.564c0-0.753-0.086-1.284-0.258-1.595-0.139-0.247-0.317-0.425-0.532-0.532-0.323-0.161-0.73-0.242-1.224-0.242h-0.258c-0.688 0-1.181 0.07-1.482 0.21-0.236 0.117-0.408 0.284-0.516 0.499-0.171 0.333-0.257 0.886-0.257 1.66v0.564c0 0.945 0.166 1.584 0.499 1.917 0.301 0.301 0.795 0.451 1.482 0.451h0.274c0.849 0 1.439-0.156 1.773-0.467 0.333-0.323 0.499-0.956 0.499-1.901" fill-rule="evenodd"/><path d="m-199.49 728.06c0 1.918 1.555 3.474 3.473 3.474 1.919 0 3.473-1.556 3.473-3.474s-1.554-3.473-3.473-3.473c-1.918 0-3.473 1.555-3.473 3.473"/></g></g></svg>
