<svg width="800" height="462.31" clip-rule="evenodd" fill-rule="evenodd" stroke-linejoin="round" stroke-miterlimit="1.4142" version="1.1" viewBox="0 0 800 462.31" xml:space="preserve" xmlns="http://www.w3.org/2000/svg"><link rel="stylesheet" type="text/css"/><link rel="stylesheet" type="text/css"/><style lang="en" type="text/css"/><style lang="en" type="text/css"/><g transform="matrix(4.5325 0 0 4.5325 7.7616e-6 -3349.5)" fill-rule="nonzero"><rect y="739" width="61" height="61" fill="#e2e778" stroke-width="1.0894"/><g transform="matrix(.11914 0 0 .11914 0 739)" fill="#03050b" stroke-width="9.1436"><path d="m121.19 446.36h-45.846v-58.218h45.846c17.199 0 29.561 5.7331 33.795 18.388 0.90522 3.3283 1.4996 6.9492 1.4996 10.872 0 19.604-13.277 28.958-35.294 28.958zm-45.846-143.59h43.734c17.803 0 31.975 7.5343 31.975 25.639 0 16.587-11.155 25.648-31.975 25.648h-43.734zm78.123 68.778v-3.6208c25.054-5.1296 40.424-19.302 40.424-43.743 0-22.63-11.155-40.424-30.165-50.071-10.552-5.4312-24.432-8.1469-42.838-8.1469h-89.297v217.2h95.332c17.803 0 33.795-3.9318 45.261-10.561 18.095-10.561 28.949-28.967 28.949-51.579 0-5.1296-0.5943-9.9666-2.103-14.493-6.3365-22.018-26.251-33.173-45.563-34.984z"/><path d="m443.07 411.98c0 22.621-7.8544 41.329-29.872 41.329-19.604 0-27.449-11.768-27.449-31.683v-92.305h-40.717v94.125c0 39.51 16.879 63.045 51.278 63.045 22.32 0 35.587-11.768 45.855-26.544h2.7156v23.225h38.915v-153.85h-40.726z"/><path d="m279.27 361.89h-3.0174v-32.57h-38.915v113.13h-24.139v40.726h40.735v-40.726h24.139v-35.907c0-27.147 13.871-41.933 42.527-41.933h9.354v-38.614h-4.517c-24.743 0-37.727 13.889-46.166 35.898z"/><path d="m148.34 120.26-27.147-4.2335c-22.631-3.6117-31.674-9.0522-33.191-21.716-0.29258-1.5087-0.29258-3.0082-0.29258-4.5261 0-16.897 14.173-25.95 38.001-25.95 25.346 0 39.519 11.768 40.433 33.493h43.743c-1.2161-41.933-31.674-69.08-83.262-69.08-48.873 0-82.055 26.242-82.055 64.252v1.8104c0.59434 37.407 25.639 55.209 65.167 61.244l30.165 4.5261c12.06 1.8104 20.82 5.4222 25.931 11.457h-24.13c3.6209 4.5352 5.4405 9.6557 5.4405 17.199 0 19.311-19.622 27.148-41.942 27.148-31.975 0-44.045-14.785-46.459-38.614h-44.338c0.89608 45.554 32.881 74.21 92.616 74.21 53.701 0 83.555-26.846 83.555-62.744 0-6.3365-0.60344-11.768-1.5087-17.199h24.13c-6.0256-29.26-28.354-45.544-64.856-51.278z"/><path d="m302.79 199.59v-28.053h-21.113v-47.053h28.656v-30.174h-28.656v-39.217h-40.726v39.217h-22.63v30.174h22.63v47.053h21.113v29.863c0 29.872 12.984 46.77 45.855 46.77h23.527v-34.691h-15.38c-10.259 0-13.277-3.9318-13.277-13.889z"/><path d="m443.06 94.307v82.658c0 22.621-7.8361 41.329-29.863 41.329-19.604 0-27.449-11.768-27.449-31.674v-92.314h-40.726v94.125c0 39.519 16.888 63.045 51.287 63.045 22.32 0 35.596-11.768 45.855-26.544h2.7156v23.234h38.915v-153.86z"/></g></g><g transform="matrix(1.713 0 0 1.713 133.17 310.26)" stroke-width=".78948"><path d="m364.96 31.055c6.3158 0 9.7895 3.8684 10.895 10.579h-22.263c1.2632-6.7105 5.0526-10.579 11.368-10.579m24.237 19.658c0.079-1.6579 0.079-3.2368 0.079-4.8158 0-14.763-9.3948-24.947-24.237-24.947-14.526 0-25.026 11.211-25.026 26.132 0 14.763 10.737 26.132 24.947 26.132 12.868 0 20.921-6.3158 23.447-15.79h-12.79c-1.5 3.1579-4.1053 5.6053-10.421 5.6053-6.7895 0-10.974-4.5-12-12.237zm-95.053 21.395h43.421v-10.579h-16.184c-4.1053 0-7.579 0.1579-11.605 0.78948l-0.1579-0.94737c3.6316-2.5263 7.5-6.3948 10.421-9.7895l16.263-18.868v-10.579h-41.053v10.579h14.684c3.5526 0 7.579-0.1579 11.132-0.78948l0.3158 0.94737c-3.4737 2.4474-7.579 6.5526-10.421 9.7895l-16.816 19.026zm-28.658-9.3948c-8.3684 0-12.553-5.5263-12.553-15.632 0-10.026 4.1842-15.632 12.553-15.632 8.1316 0 12.395 5.6053 12.395 15.632 0 10.105-4.2632 15.632-12.395 15.632m0 10.5c15.237 0 25.737-11.132 25.737-26.132s-10.5-26.132-25.737-26.132-25.895 11.132-25.895 26.132 10.658 26.132 25.895 26.132m-44.053-1.1053h13.263v-70.658h-13.263zm-19.184-24.947h-12.79c0 9.5526-4.0263 15.237-12 15.237-7.8158 0-11.842-5.3684-11.842-15.237h12.79c0-10.026 4.0263-15.395 11.842-15.395 7.9737 0 12 5.6842 12 15.395m0-45.711v27.316h-0.71052c-3.5526-5.2105-8.9211-7.7369-14.763-7.7369-13.026 0-21.79 11.132-21.79 26.211h-12.79c0 14.842 8.7632 26.053 21.79 26.053 6.3158 0 11.763-3.1579 15.237-8.8421h0.78947v7.7369h12.632v-24.947h12.79v-45.79zm-66.632 57.395h-9.7895v14.132c0 3.2368-0.94737 4.5-4.3421 4.5h-4.5v11.29h7.4211c10.5 0 14.605-5.3684 14.605-14.921v-15h9.8684v-36.79h-13.263zm0-44.132h13.263v-13.263h-13.263zm-18.632 21.079h-9.8684v36.316h13.263v-36.316h9.7895v-13.737h-13.184zm0-21.079h13.263v-13.263h-13.263zm-59.605-13.263v12.237h20.921v58.421h14.211v-58.421h20.842v-12.237z" clip-path="url(#SVGID_2_)"/><path d="m19.838 31.055c6.3158 0 9.7895 3.8684 10.895 10.579h-22.263c1.2632-6.7105 5.0526-10.579 11.368-10.579m24.237 19.658c0.07903-1.6579 0.07903-3.2368 0.07903-4.8158 0-14.763-9.3948-24.947-24.237-24.947-14.526 0-25.026 11.211-25.026 26.132 0 14.763 10.737 26.132 24.947 26.132 12.868 0 20.921-6.3158 23.447-15.79h-12.79c-1.5 3.1579-4.1053 5.6053-10.421 5.6053-6.7895 0-10.974-4.5-12-12.237h36zm-78.079-3.5526c-2.3684 8.1316-8.3684 12.632-18.553 12.632h-10.974v-12.632h9.7895v-33.474h10.974c13.658 0 19.895 8.0526 19.895 23.053 0 3.9474-0.39475 7.3421-1.3421 10.421zm-7.4211-45.711h-26.526v45.79h-9.7895v24.868h26.526c16.658 0 28.5-9.4737 32.132-24.947h9.7895c0.78948-3.2368 1.1842-6.7105 1.1842-10.421 0.079027-21.158-13.026-35.29-33.316-35.29" clip-path="url(#SVGID_4_)"/></g></svg>
