<svg width="800" height="965.07" version="1.1" viewBox="0 0 800 965.07" xmlns="http://www.w3.org/2000/svg">
 <g transform="matrix(8.0002 0 0 8.0002 -.032001 -.048001)">
  <path d="m4e-3 100h99.997v-99.994h-99.997z" fill="#198aff"/>
  <path d="m82.002 44.304h-59.999v12.904h59.999zm-59.999-6.519h54.341v-8.315h-54.341zm0-14.228h39.457v-5.552h-39.457zm50.542 40.174h-50.546v7.61h50.546zm-11.088 18.274h-39.458v-4.755h39.458z" fill="#fff"/>
 </g>
 <g transform="translate(0 865.07)" stroke-width="1.411">
  <path d="m0 100h800v-141.09h-800z" fill="#198aff"/>
  <path d="m735.01-7.5363h10.986v42.851l16.974-20.881h11.975l-18.421 21.787 19.969 25.689h-12.707l-17.789-23.33v23.33h-10.986zm-56.101 21.97h10.986v7.5359c2.2646-4.6294 7.5303-8.5363 15.34-8.5363 9.5268 0 16.242 5.5408 16.242 18.611v29.866h-10.98v-28.864c0-7.1733-2.9066-10.438-9.4422-10.438-6.1772 0-11.159 3.8082-11.159 11.344v27.958h-10.986zm-56.28 30.408v-30.408h10.98v29.139c0 7.1719 2.9912 10.437 9.3476 10.437 5.8978 0 11.07-3.8068 11.07-11.343v-28.233h10.984v47.476h-10.984v-7.4414c-2.3549 4.6294-7.3469 8.3515-15.062 8.3515-9.3476 0-16.336-5.3546-16.336-17.978m-30.916-22.149h-6.4467v-8.2583h6.4467v-6.3507c0-10.443 5.8033-16.072 15.972-16.072 2.6343 0 4.2667 0.27373 6.2675 0.91007v8.5321c-1.2699-0.45291-3.0011-0.8113-4.9934-0.8113-4.4544 0-6.2661 2.9024-6.2661 6.9885v6.8036h10.801v8.2583h-10.801v39.218h-10.98zm-26.511 15.708v-0.72665c0-10.443-4.8128-15.614-12.807-15.614-8.0777 0-12.792 5.6297-12.792 15.887v0.72242c0 10.443 5.2615 15.434 12.344 15.434 7.6248 0 13.255-5.0865 13.255-15.704m-36.858 0.54322v-0.72664c0-15.162 8.985-24.784 21.334-24.784 7.7151 0 12.528 3.5443 15.162 8.2626v-29.232h10.984v69.446h-10.984v-7.9846c-2.544 4.7197-8.6266 8.8947-15.615 8.8947-11.896 0-20.881-8.446-20.881-23.876m-53.01-24.51h10.98v7.5359c2.2688-4.6294 7.5359-8.5363 15.34-8.5363 9.5324 0 16.251 5.5408 16.251 18.611v29.866h-10.984v-28.864c0-7.1733-2.908-10.438-9.4421-10.438-6.173 0-11.165 3.8082-11.165 11.344v27.958h-10.98zm-24.604 23.967v-0.72665c0-10.531-4.9031-15.614-12.26-15.614-7.5359 0-12.433 5.6297-12.433 15.887v0.72242c0 10.443 5.2657 15.434 11.886 15.434 7.0887 0 12.807-5.0865 12.807-15.704m-35.953 0.54322v-0.72664c0-15.162 9.5367-24.784 20.97-24.784 7.2622 0 11.897 3.4498 14.619 8.1737v-7.1733h10.986v47.476h-10.986v-7.8054c-2.6328 4.6294-8.5307 8.7155-15.072 8.7155-11.075 0-20.517-8.446-20.517-23.876m-22.145-46.48h10.986v69.446h-10.986zm-56.385 0h10.996v29.506c2.2646-4.6294 7.5303-8.5363 15.34-8.5363 9.5324 0 16.247 5.5408 16.247 18.611v29.866h-10.986v-28.864c0-7.1733-2.9023-10.438-9.4379-10.438-6.1715 0-11.164 3.8082-11.164 11.344v27.958h-10.996zm-56.28 46.301v-0.72664c0-15.068 10.706-24.604 23.961-24.604 10.533 0 20.428 4.7182 21.698 17.795h-10.623c-0.90584-6.3564-5.0809-8.9892-10.89-8.9892-7.536 0-12.892 5.8089-12.892 15.614v0.72665c0 10.349 5.0823 15.794 13.16 15.794 5.8146 0 10.807-3.4498 11.439-10.165h10.08c-0.81695 10.891-9.0795 18.611-21.971 18.611-13.613 0-23.961-8.8947-23.961-24.055m-46.212 8.3472h10.348c0.54745 4.8128 2.9969 7.6305 9.4422 7.6305 5.9034 0 8.5321-2.091 8.5321-6.0826 0-3.9027-3.1761-5.356-10.165-6.5356-12.528-2.0008-17.157-5.5394-17.157-14.434 0-9.5381 8.8947-14.256 17.789-14.256 9.7159 0 17.431 3.6332 18.611 14.345h-10.163c-0.91149-4.3556-3.3595-6.3564-8.4474-6.3564-4.7182 0-7.5303 2.2702-7.5303 5.6297 0 3.454 2.2688 4.8085 9.8005 6.0826 11.169 1.727 17.795 4.4445 17.795 14.524 0 9.6171-6.8093 15.161-18.97 15.161-12.26 0-19.428-5.6283-19.885-15.708m-27.919 1.5478v-25.967h-6.3521v-8.2583h6.3521v-10.443h10.986v10.443h10.437v8.2583h-10.437v24.967c0 4.1764 1.9951 6.0869 5.4449 6.0869 2.1799 0 3.8124-0.27796 5.356-0.91572v8.7155c-1.7228 0.63776-4.0819 1.1796-7.4414 1.1796-9.4421 0-14.345-5.0809-14.345-14.066m-57.6-3.8181v-30.408h10.984v29.139c0 7.1719 2.9969 10.437 9.3532 10.437 5.8978 0 11.07-3.8068 11.07-11.343v-28.233h10.986v47.476h-10.986v-7.4414c-2.3591 4.6294-7.3525 8.3515-15.068 8.3515-9.3476 0-16.34-5.3546-16.34-17.978m-21.15-11.616c-0.54745-8.1695-4.7239-11.803-11.533-11.803-6.6245 0-11.069 4.4502-12.164 11.803zm-35.131 5.4449v-0.72242c0-14.708 10.076-24.514 23.598-24.514 11.803 0 22.424 6.9885 22.424 23.967v3.1761h-34.767c0.36263 8.9892 4.9031 14.072 13.071 14.072 6.6301 0 10.078-2.6286 10.895-7.2622h10.622c-1.5436 9.9854-9.627 15.434-21.787 15.434-13.981 0-24.057-9.1684-24.057-24.15m-42.487 13.707c14.524 0 21.517-8.3515 21.517-22.692v-0.72663c0-13.981-6.3564-22.423-21.607-22.423h-6.9885v45.842zm-19.154-55.375h19.701c22.602 0 33.582 12.892 33.582 31.776v0.81695c0 18.88-10.98 32.314-33.767 32.314h-19.516z" fill="#fff"/>
 </g>
</svg>
