<svg enable-background="new 0 0 1000 360" version="1.1" viewBox="0 0 942.04 315.22" xml:space="preserve" xmlns="http://www.w3.org/2000/svg">
<g transform="translate(-28.661 -22.584)">
		<path transform="matrix(.9962 -.087155 .087155 .9962 -14.544 14.94)" d="m40.5 32.8h246.7v282.5h-246.7z" fill="#121117"/>
	<path d="m290.3 55.3h246.7v282.5h-246.7z" fill="#dd1d27"/>
	<path d="m155.6 73.7c64.1-5.6 96.7 24.5 102.8 95 3.2 36.1-4.6 63-23.7 81.2-18.1 17.2-36.5 20.8-60.6 22.9l-81.5 7.2-17.4-199.3zm-40 32.8 12.3 141 44.2-3.9c37.2-3.3 52.4-26.1 48.1-75.3-4.3-48.8-23.3-69-60.5-65.8z" fill="#fff"/>
	<path d="m371.4 178.7h85.3v-81.1h38v200h-38v-83.6h-85.3v83.6h-38v-200h38z" fill="#fff"/>
	<path d="m970.7 220.8c0-40.2-23.4-78.5-84.3-78.5s-84.2 38.3-84.2 78.5 23.4 75.5 84.2 75.5h63.7v-29h-63.7c-27.2 0-40.7-12.6-45-31.9h128.1c0.8-4.9 1.2-9.7 1.2-14.6zm-129.2-14.6c4.2-19.3 17.7-34.8 44.9-34.8s40.7 15.6 45 34.8z" fill="#121117"/>
	<path d="m700.6 145.8h-29v-42.3h-37.8v160.7c0 17.7 13 32.7 44.9 32.7h21.9c60.9 0 84.3-35.3 84.3-75.5s-23.4-75.6-84.3-75.6zm0 122.1h-11.8c-11.8 0-17.2-5.5-17.2-10.9v-82.1h29c33.9 0 46.5 21.1 46.5 46.5s-12.6 46.5-46.5 46.5z" fill="#121117"/>
	<path d="m578 266.1h34.4v30h-34.4z" fill="#121117"/>
</g>
<g transform="translate(-28.661 -22.584)" display="none">
	<g display="inline" fill="#231f20">
		<path d="m96.3 425.2 5.7 64.2 11.7-1.1 1.4 16.1-30.9 2.8-7.2-80.4z"/>
		<path d="m112.6 423.8 32-2.9 1.4 16.1-12.8 1.1 1.4 15.2 12-1.1 1.4 15.3-12 1.1 1.6 17.6 14-1.2 1.4 16.1-33.3 3z"/>
		<path d="m194.3 441-17.8 1.6-0.5-5.9c-0.2-2.8-0.6-4.5-1.2-5.3-0.5-0.7-1.3-1-2.4-0.9-1.2 0.1-2 0.7-2.5 1.8s-0.7 2.7-0.5 4.7c0.2 2.7 0.8 4.7 1.6 6s2.7 2.8 5.9 4.4c9.1 4.8 14.9 8.8 17.4 12.2 2.5 3.3 4.2 9 4.9 16.8 0.5 5.7 0.3 10-0.7 12.8s-3.2 5.3-6.5 7.5c-3.4 2.2-7.4 3.4-12.1 3.9-5.2 0.5-9.6-0.2-13.5-2-3.8-1.8-6.5-4.3-7.9-7.5s-2.4-7.8-2.9-13.8l-0.5-5.3 17.8-1.6 0.9 9.8c0.3 3 0.7 4.9 1.3 5.8 0.6 0.8 1.5 1.2 2.8 1.1s2.2-0.8 2.7-1.9 0.7-2.8 0.5-5c-0.4-4.7-1.3-7.8-2.6-9.1s-4.6-3.5-9.7-6.5-8.5-5.2-10.2-6.6-3.2-3.4-4.4-6.1c-1.3-2.7-2.1-6.1-2.5-10.4-0.5-6.2-0.2-10.7 1-13.7s3.3-5.4 6.4-7.3 6.9-3 11.5-3.4c5-0.4 9.3 0.1 13 1.5s6.2 3.4 7.6 6 2.4 7 2.9 13.4z"/>
		<path d="m259.1 435.2-17.8 1.6-0.5-5.9c-0.2-2.8-0.6-4.5-1.2-5.3-0.5-0.7-1.3-1-2.4-0.9-1.2 0.1-2 0.7-2.5 1.8s-0.7 2.7-0.5 4.7c0.2 2.7 0.8 4.7 1.6 6s2.7 2.8 5.9 4.4c9.1 4.8 14.9 8.8 17.4 12.2 2.5 3.3 4.2 9 4.9 16.8 0.5 5.7 0.3 10-0.7 12.8s-3.2 5.3-6.5 7.5c-3.4 2.2-7.4 3.4-12.1 3.9-5.1 0.5-9.6-0.2-13.5-2-3.8-1.8-6.5-4.3-7.9-7.5s-2.4-7.8-2.9-13.8l-0.5-5.3 17.8-1.6 0.9 9.8c0.3 3 0.7 4.9 1.3 5.8 0.6 0.8 1.5 1.2 2.8 1.1s2.2-0.7 2.7-1.9 0.7-2.8 0.5-5c-0.4-4.7-1.3-7.8-2.6-9.1s-4.6-3.5-9.7-6.5-8.5-5.2-10.2-6.6-3.2-3.4-4.4-6.1c-1.3-2.7-2.1-6.1-2.5-10.4-0.6-6.2-0.2-10.7 1-13.7s3.3-5.4 6.4-7.3 6.9-3 11.5-3.4c5-0.4 9.3 0.1 13 1.5s6.2 3.4 7.6 6 2.4 7 2.9 13.4z"/>
		<path d="m264.6 410.2 19.3-1.7c5.2-0.5 9.3-0.4 12.2 0.3 2.9 0.6 5.1 1.7 6.7 3.3s2.7 3.5 3.4 5.9 1.3 6 1.7 11.1l0.6 7c0.5 5.1 0.3 8.9-0.5 11.3s-2.4 4.4-4.9 5.9-5.8 2.4-10 2.8l-5.1 0.5 2.9 32.4-19.2 1.7zm20.4 12.1 1.8 20.4c0.5 0 1 0 1.4-0.1 1.7-0.1 2.9-0.7 3.5-1.7s0.8-3 0.5-6l-0.6-6.6c-0.2-2.8-0.8-4.5-1.6-5.3-0.9-0.7-2.5-1-5-0.7z"/>
		<path d="m359.5 449.2c0.7 8.1 1.1 13.8 1 17.2s-0.9 6.6-2.5 9.5c-1.6 3-3.9 5.3-6.9 7.1s-6.6 2.8-10.7 3.2c-4 0.4-7.6 0-10.8-1.2-3.3-1.1-6-3-8.2-5.7-2.2-2.6-3.6-5.6-4.2-8.9-0.7-3.3-1.4-9.1-2.1-17.3l-1.2-13.8c-0.7-8.1-1.1-13.8-1-17.2s0.9-6.6 2.5-9.5 3.9-5.3 6.9-7.1 6.6-2.8 10.7-3.2c4-0.4 7.6 0 10.8 1.2 3.3 1.1 6 3 8.2 5.7 2.2 2.6 3.6 5.6 4.2 8.9 0.7 3.3 1.4 9 2.1 17.3zm-21.6-24.7c-0.3-3.7-0.7-6.1-1.2-7.1s-1.3-1.5-2.5-1.4c-1 0.1-1.7 0.6-2.2 1.5s-0.5 3.4-0.1 7.5l3.3 37.6c0.4 4.7 0.8 7.5 1.3 8.6 0.4 1.1 1.3 1.5 2.6 1.4s2.1-0.8 2.3-2.1 0.2-4.3-0.3-9z"/>
		<path d="m362.5 401.5 13.6-1.2c9.1-0.8 15.2-1 18.5-0.5s6.1 2.2 8.4 5.1 3.8 7.9 4.4 14.7c0.6 6.3 0.2 10.5-1 12.8s-3.9 3.8-8.1 4.6c3.9 0.7 6.6 1.8 8 3.4 1.5 1.6 2.4 3.1 2.9 4.5 0.4 1.4 1 5.4 1.5 11.9l1.9 21.2-17.8 1.6-2.4-26.7c-0.4-4.3-0.9-6.9-1.6-7.9s-2.4-1.3-5-1.1l3.2 36.2-19.2 1.7zm20.5 12 1.6 17.9c2.1-0.2 3.6-0.7 4.4-1.4s1-2.9 0.7-6.4l-0.4-4.4c-0.2-2.5-0.8-4.2-1.7-4.9-0.8-0.7-2.4-1-4.6-0.8z"/>
		<path d="m451.6 393.6 1.4 16.1-11.4 1 5.7 64.2-19.2 1.7-5.7-64.2-11.4 1-1.4-16.1z"/>
		<path d="m498.8 413.9-17.8 1.6-0.5-5.9c-0.2-2.8-0.6-4.5-1.2-5.3-0.5-0.7-1.3-1-2.4-0.9-1.2 0.1-2 0.7-2.5 1.8s-0.7 2.7-0.5 4.7c0.2 2.7 0.8 4.7 1.6 6s2.7 2.8 5.9 4.4c9.1 4.8 14.9 8.8 17.4 12.2s4.2 9 4.9 16.8c0.5 5.7 0.3 10-0.7 12.8s-3.2 5.3-6.6 7.5c-3.4 2.1-7.4 3.4-12.1 3.9-5.1 0.5-9.6-0.2-13.5-2-3.8-1.8-6.5-4.3-7.9-7.5s-2.4-7.8-2.9-13.8l-0.5-5.3 17.8-1.6 0.9 9.8c0.3 3 0.7 4.9 1.3 5.8 0.6 0.8 1.5 1.2 2.8 1.1s2.2-0.8 2.7-1.9 0.7-2.8 0.5-5c-0.4-4.7-1.3-7.8-2.6-9.1s-4.6-3.5-9.7-6.5-8.5-5.2-10.2-6.6-3.2-3.4-4.4-6.1c-1.3-2.7-2.1-6.1-2.5-10.4-0.5-6.2-0.2-10.7 1-13.7s3.3-5.4 6.4-7.3 6.9-3 11.5-3.4c5-0.4 9.3 0.1 13 1.5s6.2 3.4 7.6 6 2.4 7 2.9 13.4z"/>
	</g>
	<g display="inline">
			<polygon points="29.8 -107.5 485.1 -148 530.6 374.7 75.3 415.2" fill="#231f20"/>
	</g>
	<path d="m452.8 116.6c-5.3-59-26.7-105.7-61.7-135-32.1-26.8-74.9-38.7-123.6-34.3l-152.4 13.4 32.5 371.9c12-1.1 152.4-13.3 152.4-13.3 27.6-2.5 52.2-9.5 73.1-20.8 19.9-10.8 36.6-25.6 49.4-43.9 24.8-35.3 35.3-83 30.3-138zm-101.1 101.8c-14.8 19.5-37 31.6-62.4 33.9l-67 5.9-20.8-237.2 52.1-4.6c36.5-3.3 63.5 2.8 82.6 18.7 20.8 17.3 32.3 46 36.3 90.3 3.4 38.4-3.8 70.5-20.8 93z" display="inline" fill="#fff"/>
	<g display="inline">
		<rect x="513.7" y="-83.9" width="457" height="524.4" fill="#ec1c24"/>
	</g>
	<path d="m592.1-9.7h82.5v142.3h135.1v-142.3h82.5v374.4h-82.5v-161h-135v161h-82.5v-374.4z" display="inline" fill="#fff"/>
</g>
</svg>
