<svg enable-background="new 0 0 800 325.9" version="1.1" viewBox="0 0 800 325.9" xml:space="preserve" xmlns="http://www.w3.org/2000/svg">

<g fill="#141414"><circle cx="744.1" cy="102.3" r="55.9"/><path d="m708.1 180.7c-2.2-16.9-14.3-30.3-27.7-38.6l11.7-32.9 3-7.8c1.3-5.6-1.3-10.8-6.1-12.6l-7.8-2.6c-12.1-3.9-33.8-8.2-58.9-4.8-22.1 2.6-40.3 9.5-52 20.4-3.9 3.5-7.4 6.9-10.4 10.4-3.9 4.3-6.5 1.3-6.5-0.4l-0.4-3-1.3-7.8c-0.9-5.6-5.6-9.1-11.3-8.7l-7.8 1.3-47.2 6.1-13.4 1.3-13 1.3-8.7-12.6-4.8-7.8c5.2-6.9 6.5-15.6 5.6-23.4-2.6-19.5-19.9-39.9-53.3-35.1-9.5 1.3-21.7 7.8-27.7 15.6 0.9-2.6 1.3-5.6 1.3-8.7 0-16.9-13.4-30.3-30.3-30.3-9.5 0-18.6 4.8-24.3 11.7-3.7 4.9-4.8 10-5.2 14.7-11.3-5.2-30.3-9.5-48.5-7.4l-31.2 4-7.8 1.3c-5.6 0.9-9.1 5.6-8.7 11.3l1.3 7.8 5.2 43.3c0.4 3.9-2.2 7.4-6.5 8.2l-49.4 6.5-3.9 0.4c-3.5 0.4-6.1 2.2-7.4 5.2l-1.7 3.9-27.3 49.8c-1.3 2.2-4.3 3-6.5 0.9l-39-42.9-3-3c-2.2-2.2-5.2-3.5-8.7-3l-52 6.5-7.8 1.3c-5.6 0.9-9.1 5.6-8.7 11.3l1.3 7.8 20.4 165.5 1.3 7.8c0.9 5.6 5.6 9.1 11.3 8.7l7.8-1.3 48.5-6.1 7.8-1.3c5.6-0.9 9.1-5.6 8.7-11.3l-1.3-7.8-4.8-39 3 3c3.9 3.9 14.3 15.2 32.9 13 18.2-2.2 25.6-15.6 28.2-20.8l1.7-3.9 4.8 39 1.3 7.8c0.9 5.6 5.6 9.1 11.3 8.7l7.8-1.3 49.8-6.1 7.8-1.3c5.6-0.9 9.1-5.6 8.7-11.3l-1.3-7.8-0.4-4.3c-0.4-1.7 2.2-3 3.5-1.3l4.3 4.3c13.9 12.6 31.6 18.2 51.6 15.6 13.4-1.3 25.6-6.9 34.7-14.7 9.1 5.6 20.4 7.8 33.4 6.5 16.9-2.2 30.8-9.1 39.9-19.5l1.3-1.3c11.3 9.1 26 12.6 43.3 10.8 15.2-1.7 27.7-6.5 36.8-14.7 9.1 5.6 20.4 7.8 32.9 6.5 13.4-1.3 25.1-6.5 34.2-13.9 12.6 3.5 33.8 7.8 60.7 4.3 23-3 41.6-10 54.6-20.8 15.6-12 22.9-30.2 20.3-50.6z"/>
<path d="m550.39 279.51h13.867l4.3335 18.201c0.8667 3.0334 1.3 6.9336 1.3 9.1004h0.43335c0.43336-1.7334 1.3001-5.6336 1.7334-9.1004l4.7668-18.201h12.134l4.7668 18.201c0.86671 3.0334 1.3001 6.9336 1.7334 9.1004h0.43334c0.43335-1.7334 0.8667-5.6336 1.3001-9.1004l4.3335-18.201h12.134l-11.267 45.502h-11.267l-6.0669-20.801c-0.8667-3.0334-1.3-6.5002-1.7334-8.2336-0.43335 1.3-1.3 5.2002-1.7334 8.2336l-6.0669 20.801h-13z" stroke-width="4.3335"/><path d="m619.73 279.51h16.034c17.767 0 26.001 9.1004 26.001 22.101s-8.667 23.401-26.434 23.401h-15.601zm16.901 35.101c7.8003 0 11.7-4.3335 11.7-12.567 0-8.667-3.9002-11.7-11.7-11.7h-3.9001v24.701z" stroke-width="4.3335"/><path d="m668.7 279.51h18.201c11.7 0 18.201 4.7668 18.201 13.867 0 6.5002-5.2002 11.7-9.1003 12.567l6.9336 8.2336c2.1668 2.1668 3.9002 3.4668 5.6336 3.9002v6.0669c-1.3001 0.8667-3.4668 1.7334-6.5003 1.7334-3.4668 0-6.0669-1.3-8.2336-3.9002l-10.4-13.434h-1.3v16.467h-13zm18.201 19.501c3.9002 0 5.6336-1.7334 5.6336-5.2002s-1.7334-5.2002-6.0669-5.2002h-4.7668v9.967z" stroke-width="4.3335"/></g><g fill="#fff"><g fill="#fff"><g stroke-width="4.3335"><path d="m234.91 39.435 31.201-3.9002c34.235-3.9002 52.435 11.267 55.469 35.968 3.0334 25.134-10.834 46.802-45.502 51.135l-30.334 3.9002zm40.735 63.269c15.167-1.7334 21.668-11.267 19.501-27.301-1.7334-16.467-9.967-22.101-26.001-20.367l-6.5002 0.8667 6.0669 47.668z"/><path d="m328.95 30.768c-0.86671-6.9336 3.9002-13.434 11.7-14.301 7.8003-1.3 14.301 3.9002 15.167 11.267 0.86669 6.9336-3.9002 13.867-11.7 14.301s-14.301-4.3335-15.167-11.267zm9.5337 65.869-6.0669-48.102 23.401-3.0334 5.2002 42.035c0.8667 6.0669 4.7668 6.5002 8.2336 6.5002l1.3 11.7c-3.0334 3.4668-7.8003 6.0669-14.301 6.5002-11.7 2.6001-16.467-5.2002-17.767-15.601z"/><path d="m374.88 76.703c-2.6001-21.668 11.7-35.535 29.901-38.135 19.934-2.6001 31.635 6.9336 32.935 19.501s-8.667 19.501-25.568 21.668l-11.7 1.3c3.4668 6.9336 9.1004 8.667 15.601 7.8003 8.667-1.3 12.134-3.4668 15.601-5.2002l8.667 13.434c-4.7668 3.4668-10.4 7.367-24.701 9.1004-22.968 3.0334-38.135-7.8003-40.735-29.468zm22.968-9.1004 9.5337-1.3c5.2002-0.8667 7.8003-3.0334 7.367-6.5002s-3.9002-5.2002-8.667-4.7668c-4.3335 0.43335-8.2336 3.0334-8.2336 12.567z"/></g><path d="m18.67 136.94 48.535-6.0669 56.769 61.536c1.3 1.3 3.9002 1.3 4.7668-0.8667l40.302-73.67 49.835-6.0669 20.367 166.41-50.269 6.0669-10.834-86.67c-0.43336-3.4668-3.0335-3.9002-4.3335-1.3l-25.134 46.368c-3.0334 5.6336-6.5003 10.834-14.734 11.7-8.2336 0.8667-13-3.4668-17.334-7.8003l-35.535-39.002c-1.7334-1.7334-4.3335-0.8667-3.9002 2.6001l10.834 86.67-49.402 5.6336zm236.18 74.97c-5.6336-45.935 22.968-72.803 63.702-77.57 30.334-3.9002 53.735-0.43335 63.269 3.0334l9.1004 76.703c1.3 11.7 9.1004 13.434 16.467 13.434l3.0334 23.401c-5.6336 6.5002-15.167 11.7-28.168 13.434-17.767 2.1668-27.734-5.2002-32.935-16.901-4.7668 13.867-18.201 23.401-35.535 25.568-28.168 2.6001-52.869-13.434-58.936-61.102zm87.97-3.0334-4.7668-38.568c-2.6001-0.8667-8.2336-1.3-14.734-0.43335-12.134 1.3-21.668 11.7-18.634 35.968 2.6001 22.101 11.267 29.468 23.834 27.734 9.967-0.8667 16.034-9.1004 14.301-24.701zm78.003 5.2002-10.834-87.97 46.802-5.6336 9.5337 79.303c1.3 10.4 6.9336 13.867 16.034 12.567 8.667-1.3 16.467-5.6336 14.734-17.767l-9.5337-78.003 47.235-6.0669 10.4 83.637c1.3 11.7 9.1003 13.434 16.467 13.434l3.0334 23.401c-5.6336 6.5002-15.167 11.7-28.168 13.434-17.767 2.1668-27.734-5.2002-32.935-16.901-5.6336 14.301-15.601 22.968-37.268 25.568-28.601 3.9002-42.468-14.301-45.502-39.002zm154.27 16.034 10.4-32.935c11.7 3.0334 26.434 6.5002 42.902 4.3335 13.434-1.3 16.901-3.9002 16.467-9.1004-0.8667-5.6336-10.834-6.5002-25.134-7.367-21.234-1.3-47.669-6.5002-51.135-37.268-3.4668-27.301 16.901-44.202 54.169-48.969 24.268-3.0334 45.068 1.3 53.302 3.9002l-12.134 32.935c-7.8003-1.7334-24.701-5.6336-35.535-3.9002-9.1003 1.3-14.734 2.6001-14.301 8.2336 0.8667 6.5002 13.867 6.5002 30.768 8.667 22.101 2.1668 42.902 8.2336 45.935 34.235 3.9002 29.901-20.801 47.668-58.936 52.435-26.868 3.0334-45.068-2.1668-56.769-5.2002z" stroke-width="4.3335"/><path d="m744.1 54.602c-26.001 0-47.235 21.234-47.235 47.235s21.234 47.235 47.235 47.235 47.235-21.234 47.235-47.235-21.234-47.235-47.235-47.235zm0 86.67c-21.234 0-39.002-17.334-39.002-39.002s17.334-39.002 39.002-39.002c21.234 0 39.002 17.334 39.002 39.002s-17.767 39.002-39.002 39.002z" stroke-width="4.3335"/><polygon transform="matrix(4.3335 0 0 4.3335 .036415 .8667)" points="169.2 28.9 175.2 26.7 175.2 17.7 166.2 21 166.2 23.2 169.2 22.1"/></g></g>
</svg>
