<svg width="800" height="501.8" version="1.1" viewBox="0 0 800 501.8" xml:space="preserve" xmlns="http://www.w3.org/2000/svg"><defs><clipPath id="clipPath668"><path d="m152 9.992h85.04v46.811h-85.04z"/></clipPath><clipPath id="clipPath676"><path d="m137.23 73.947h114.58v-81.098h-114.58z"/></clipPath><clipPath id="clipPath680"><path d="m137.37-7.016h114.31v80.826h-114.31z"/></clipPath><clipPath id="clipPath684"><path d="m177.43 49.422h34.199v-34.2h-34.199z"/></clipPath><clipPath id="clipPath688"><path d="m177.43 15.222h34.2v34.2h-34.2z"/></clipPath></defs><g transform="matrix(1.3333 0 0 -1.3333 -5.9491e-5 501.8)"><g transform="matrix(11.004 0 0 11.004 -1840.7 -167.5)"><g clip-path="url(#clipPath668)"><g clip-path="url(#clipPath676)"><g clip-path="url(#clipPath680)"><g transform="translate(204.84 49.422)"><path d="m0 0c9.364 0 16.954-7.656 16.954-17.1s-7.59-17.1-16.954-17.1-17.002 7.044-17.002 17.072c0 9.966 7.638 17.128 17.002 17.128" fill="#8a8b8b"/></g><g transform="translate(184.37 49.422)"><path d="m0 0c9.444 0 16.73-7.395 16.902-17.136 0.168-9.511-7.458-17.064-16.902-17.064s-17.1 7.656-17.1 17.1 7.656 17.1 17.1 17.1" fill="#ba0011"/></g><g clip-path="url(#clipPath684)" opacity=".2"><g clip-path="url(#clipPath688)"><g transform="translate(194.53 49.422)"><path d="m0 0c9.444 0 17.1-7.656 17.1-17.1s-7.656-17.1-17.1-17.1-17.1 7.656-17.1 17.1 7.656 17.1 17.1 17.1" fill="#141413"/></g></g></g><g transform="translate(201.39 32.303)"><path d="m0 0c1.36-0.481 2.377-1.196 3.052-2.143 0.675-0.95 1.013-2.153 1.013-3.61 0-2.381-0.978-4.31-2.934-5.786-1.956-1.477-4.545-2.215-7.768-2.215-3.613 0-6.365 0.806-8.256 2.419-1.891 1.614-2.863 3.981-2.914 7.104h9.415c0-0.651 0.13-1.148 0.39-1.493s0.637-0.517 1.131-0.517c0.468 0 0.851 0.156 1.15 0.468s0.448 0.716 0.448 1.21c0 0.651-0.224 1.142-0.672 1.473-0.449 0.332-1.108 0.498-1.979 0.498h-0.051v5.184h0.051c0.871 0 1.53 0.166 1.979 0.498 0.448 0.331 0.672 0.822 0.672 1.473 0 0.494-0.149 0.898-0.448 1.21s-0.682 0.468-1.15 0.468c-0.494 0-0.871-0.172-1.131-0.517s-0.39-0.842-0.39-1.493h-9.415c0.051 3.123 1.023 5.49 2.914 7.103s4.643 2.42 8.256 2.42c3.223 0 5.812-0.738 7.768-2.215 1.956-1.476 2.934-3.405 2.934-5.786 0-1.457-0.338-2.66-1.013-3.61-0.675-0.948-1.692-1.662-3.052-2.143" fill="#fff"/></g><g transform="translate(209 34.61)"><path d="m0 0v-1.893h1.562v-0.839h-1.562v-2.722h-0.894v6.302h2.673v-0.848z" fill="#fff"/></g><g transform="translate(214.47 29.156)"><path d="m0 0v3.805l-0.894-2.656h-0.452l-0.894 2.656v-3.805h-0.894v6.302h0.837l1.196-3.354 1.167 3.354h0.828v-6.302z" fill="#fff"/></g><g transform="translate(188.8 29.823)"><path d="m0 0c-0.132-0.214-0.308-0.387-0.527-0.519-0.22-0.132-0.458-0.198-0.715-0.198-0.264 0-0.513 0.067-0.749 0.203-0.235 0.135-0.4 0.289-0.494 0.462s-0.155 0.324-0.183 0.453c-0.029 0.129-0.043 0.269-0.043 0.42v4.814h0.894v-4.815c0-0.082 7e-3 -0.153 0.019-0.212 0.013-0.06 0.061-0.147 0.146-0.26s0.224-0.17 0.419-0.17c0.182 0 0.319 0.066 0.409 0.198 0.091 0.133 0.137 0.28 0.137 0.444v4.815h0.894v-4.814c0-0.151-0.016-0.294-0.047-0.429-0.031-0.136-0.085-0.266-0.16-0.392" fill="#fff"/></g><g transform="translate(185.86 29.153)"><path d="m0 0-1.402 6.305h-0.871l-1.313-6.305h0.955l0.252 1.357h1.162l0.253-1.357zm-1.383 2.196h-0.847l0.423 2.242z" fill="#fff"/></g><g transform="translate(179.77 32.993)"><path d="m0 0v-3.837h-0.894v6.302h0.847l1.393-3.821v3.821h0.894v-6.302h-0.837z" fill="#fff"/></g><g transform="translate(178.2 30.717)"><path d="m0 0v3.204c0 0.201-0.025 0.387-0.075 0.556-0.051 0.17-0.143 0.336-0.278 0.5-0.135 0.163-0.304 0.292-0.508 0.386s-0.422 0.142-0.654 0.142c-0.239 0-0.468-0.059-0.688-0.175-0.219-0.116-0.401-0.275-0.546-0.476-0.1-0.144-0.171-0.289-0.211-0.433-0.041-0.145-0.061-0.311-0.061-0.5v-3.204c0-0.157 9e-3 -0.294 0.028-0.41s0.076-0.27 0.174-0.462c0.097-0.191 0.27-0.363 0.518-0.513 0.247-0.151 0.519-0.226 0.814-0.226 0.257 0 0.495 0.062 0.715 0.188s0.386 0.277 0.499 0.452c0.113 0.176 0.187 0.335 0.221 0.476 0.034 0.142 0.052 0.307 0.052 0.495m-0.894-9e-3c0-0.101-6e-3 -0.183-0.019-0.245-0.013-0.063-0.039-0.129-0.08-0.198-0.041-0.07-0.107-0.131-0.198-0.184s-0.193-0.08-0.306-0.08c-0.219 0-0.375 0.064-0.465 0.193-0.092 0.129-0.142 0.231-0.151 0.306-9e-3 0.076-0.014 0.145-0.014 0.208v3.204c0 0.05 6e-3 0.113 0.019 0.188 0.012 0.076 0.039 0.15 0.08 0.222 0.04 0.072 0.113 0.138 0.216 0.198 0.104 0.059 0.209 0.089 0.315 0.089 0.201 0 0.364-0.084 0.49-0.254 0.056-0.069 0.089-0.129 0.099-0.179 9e-3 -0.051 0.014-0.139 0.014-0.264z" fill="#fff"/></g><g transform="translate(174.56 30.713)"><path d="m0 0v3.28c0 0.403-0.146 0.748-0.438 1.035-0.291 0.287-0.638 0.43-1.04 0.43h-1.421v-6.305h1.393c0.446 0 0.808 0.147 1.087 0.44s0.419 0.666 0.419 1.12m-0.894-2e-3c0-0.479-0.225-0.719-0.676-0.719h-0.435v4.618h0.463c0.179 0 0.332-0.059 0.458-0.175 0.127-0.117 0.19-0.264 0.19-0.44z" fill="#fff"/></g></g></g></g></g></g></svg>
