<svg width="561.04" height="800" version="1.1" viewBox="0 0 2934.2 4171.5" xmlns="http://www.w3.org/2000/svg">
 <path class="st1" d="m1422.8 763.21c-245.34 0-376.95 69.272-548.4 206.08-158.17 125.84-295.56 414.47-241.87 659.81 106.22 484.32 515.5 655.77 834.14 655.77 21.936 0 43.295-0.5773 64.654-2.3091 278.24-21.359 629.79-199.73 744.67-542.05 47.336-139.7 44.449-264.39 21.359-367.14 6.3499 78.508-0.5773 166.83-32.904 258.04-105.06 296.14-331.35 452.57-654.62 452.57-51.376 0-106.22-4.0408-162.21-12.122-172.02-24.245-310.57-96.403-413.32-214.74-93.517-107.95-118.92-212.43-121.23-223.98-1.1545-5.7726-2.3091-10.968-3.4636-16.163-1.7318-8.0816-3.4636-16.741-5.1954-25.4-8.0817-39.254-10.968-83.126-8.659-137.97 6.3499-108.53 31.172-174.91 77.93-266.7 16.163-31.749 109.68-170.29 239.56-223.98 63.499-25.977 136.23-40.408 204.35-40.408 80.24 0 142.58 13.854 207.81 47.336 162.21 81.971 209.55 225.71 214.16 273.62l2.8864 27.131-487.21-2.8863 13.854-34.058c30.595-73.89 78.508-133.92 140.85-176.07-10.391-0.5773-20.204-1.1545-30.595-1.1545-76.199 0-150.09 18.472-219.36 55.994-66.962 35.79-118.34 83.703-157.02 147.2l-0.5773 1.1545c-33.481 48.49-50.222 106.79-50.799 173.18-1.1546 251.69 179.53 506.26 586.5 508.57h2.8863c238.41 0 408.12-146.05 479.71-300.18l-230.91-1.1545c-45.604 104.48-151.24 176.64-263.23 176.64h-1.7318c-160.48-1.1545-281.7-135.08-294.4-326.15-2.8864-40.986 6.9271-75.621 15.586-106.22l5.1954-18.472 812.21 4.6181c-9.2362-51.376-38.677-177.22-124.11-303.64-136.23-201.46-342.89-304.22-614.21-304.79z" fill="#ac162c" stroke-width="5.7726"/>
 <g transform="matrix(5.7726 0 0 5.7726 -20.94 -1.085)" fill="#4fb1c7">
  <path class="st0" d="m494.9 235.8-21.7-71.4c-0.5-1.8-1.9-3.3-3.6-4-4.4-1.9-9.1-3.2-14-3.9-3.9-11.9-15.9-43.6-40.4-75.6-40.8-52.9-97.1-80.9-162.7-80.9-65.7 0-122 28-162.8 81-26.7 34.6-38.4 69-41.3 78.2-4.7 1.2-9.2 2.9-13.4 5.2-1.6 0.9-2.8 2.5-3.2 4.3l-14.5 73.2c-0.4 1.8 0.1 3.7 1.3 5.2 6.4 8.1 15.1 14.4 25.4 17.8 1.7 0.6 3.7 0.4 5.2-0.5 1.6-0.9 2.7-2.5 3-4.3l5.3-26.6 14.5-72.2c4.2-12.1 15.3-39.7 36.4-66.9 36.8-47.4 85.2-71.4 144.1-71.4 58.8 0 107.3 24 144.1 71.4 19.1 24.6 30 49.6 35 63.1l2.1 7.1v0.3l28.1 92.6c0.5 1.7 1.8 3.2 3.5 3.9s3.6 0.8 5.3 0c9.9-4.4 17.9-11.6 23.5-20.2 1-1.6 1.3-3.6 0.8-5.4z"/>
  <path class="st0" d="m425.5 162.5c-2.3-7.7-10.4-12-18.1-9.7l-3.7 1.1c-7.7 2.3-12 10.4-9.7 18.1l30.8 101.4c2.3 7.6 10.4 12 18.1 9.7l3.7-1.1c7.7-2.3 12-10.4 9.7-18.1zm-325.8-9.3-3.8-0.7c-7.9-1.6-15.5 3.5-17 11.4l-20.6 103.9c-1.6 7.8 3.5 15.5 11.4 17l3.8 0.7c7.8 1.6 15.5-3.5 17-11.4l20.6-103.9c1.6-7.8-3.5-15.4-11.4-17z"/>
  <path class="st0" d="m11.227 568.7h17.2v-104.3h-17.2v-23.1h61.8v22.6h-18.8v51l50.6-51h-17.2v-22.6h66.3v23.1h-16.2l-42.1 41.4 38.4 62.9h19.9v23.1h-36.1l-41.9-68.6-21.7 21.3v24.2h18.8v23.1h-61.8zm157.5 0h18.3v-104.3h-18.3v-23.1h62.4v23.1h-18.3v104.3h18.3v23.1h-62.4zm81.1 0h17.2v-104.3h-17.2v-23.1h56.9c54.4 0 86.7 28.4 86.7 73.9 0 46-30.4 76.6-89.4 76.6h-54.2zm57.8 0c38.9 0 59-21 59-53.3 0-32.9-23.3-51-60.8-51h-13v104.3zm97.5-9.2c0-10.8 6.4-17.9 15.8-17.9 10.1 0 16.5 7.6 16.5 14.9 0 3.7-0.7 6.4-2.1 9.2 5.5 3.9 13.9 6.4 23.8 6.4 16.5 0 27-7.3 27-20.4 0-12.3-12.6-18.3-27.7-23.6-27.9-10.1-47.6-19-47.6-46.9 0-24 19.4-42.8 49.9-42.8 28.1 0 49.9 14.4 49.9 32.5 0 10.7-6.6 16.9-15.3 16.9-10.5 0-16.5-7.8-16.5-15.3 0-3.7 0.7-5.3 1.6-7.1-4.1-2.5-10.5-4.6-19.9-4.6-14.9 0-23.6 7.6-23.6 18.5 0 12.3 12.6 17.8 27.7 23.3 27 9.6 47.3 19 47.3 46.9 0 28.6-22.2 44.8-53.1 44.8-29.7 0.2-53.7-16.5-53.7-34.8zm-401.5 146.5h12.5v-75.7h-12.5v-16.8h42.4c25.1 0 43 10.8 43 33.1 0 14.1-8.6 24.9-20.6 29.7l16.8 29.7h12.4v16.8h-25.2l-21.9-41.5c-2.3 0.2-4.5 0.3-6.6 0.3-3.5 0-6.6 0-9-0.2v24.6h13.6v16.8h-44.9zm65.9-58.8c0-11.5-9.5-17-24.6-17h-10.1v35.1c2 0.2 4.7 0.3 10.6 0.3 14.2 0.1 24.1-6.9 24.1-18.4zm33.1 58.8h9.5l27.2-75.9h-12v-16.6h61.8v16.6h-12l27.2 75.9h9.5v16.8h-42v-16.6h12.6l-6.1-17.9h-40.9l-6.1 17.9h13.3v16.6h-42zm70.6-33.3-15.3-43-15.3 43zm49 33.3h12.4v-75.7h-12.5v-16.8h41.4c39.5 0 62.9 20.6 62.9 53.6 0 33.4-22.1 55.6-64.9 55.6h-39.4v-16.7zm42 0c28.2 0 42.8-15.3 42.8-38.7 0-23.9-16.9-37-44.2-37h-9.5v75.7zm76.1 0h13.3v-75.7h-13.3v-16.8h45.3v16.8h-13.3v75.7h13.3v16.8h-45.3zm59.1-37.8c0-32.1 23.3-56.6 56.5-56.6 33.1 0 55.6 24.8 55.6 56.6 0 32.1-23.3 56.6-56.5 56.6-33 0-55.6-24.7-55.6-56.6zm92.7 0c0-22.8-15.5-39.2-36.5-39.2-21.3 0-36.7 16.3-36.7 39.2 0 22.7 15.4 39.2 36.7 39.2 21 0 36.5-16.3 36.5-39.2z"/>
 </g>
</svg>
