<svg version="1.1" viewBox="0 0 637.98 267.46" xmlns="http://www.w3.org/2000/svg">
 <path d="m555.55 0.00211c-10.255 0.0734-20.546 2.0595-30.264 6.0152-21.186 8.624-37.905 25.878-45.905 47.362-2.3617 6.3426-4.245 14.647-4.7639 21.022l-0.18771 2.3596h17.59c15.782 0 17.622-0.0501 17.778-0.45583 0.0954-0.24884 0.1698-4.7857 0.1698-10.082 1e-3 -9.0403 0.0399-9.6887 0.56308-10.547 1.2387-2.0315 0.50321-1.9395 16.634-1.9395 14.265 0 14.526 0.0113 15.32 0.59884 1.181 0.87383 1.6826 2.6371 1.1887 4.1651-0.21374 0.66146-0.74015 1.4555-1.1887 1.7876-0.77985 0.57736-1.2044 0.60368-12.585 0.74185l-11.78 0.14301-0.0358 7.2397c-0.0217 3.9826 0.0189 7.4898 0.0983 7.7939 0.13858 0.52973 0.47699 0.55415 8.0978 0.55415h7.9548l0.87594 0.73291c1.7656 1.4857 1.7353 4.3401-0.0626 5.6756-0.76225 0.56622-1.252 0.60674-8.8664 0.74185l-8.062 0.14301-0.28602 26.028h-7.7224l-0.28602-26.028h-35.466l0.0715 2.0021c0.55023 14.776 5.9465 30.466 14.757 42.902 13.444 18.978 34.814 31.724 57.248 34.152 1.5731 0.17029 3.3106 0.36373 3.8612 0.42902 1.7581 0.20854 13.501-0.0963 15.874-0.41115 6.5092-0.86359 14.625-2.961 20.584-5.327 4.1231-1.6369 9.9945-4.7416 14.167-7.4811 29.347-19.27 43.089-54.489 34.554-88.557-4.9774-19.867-17.135-36.949-34.42-48.363-13.586-8.9715-29.506-13.512-45.503-13.398zm3.173 52.993c1.0608-5.7e-4 2.1556 0.23367 3.2087 0.72397 2.0691 0.96336 3.7487 2.7491 9.6709 10.297 2.8314 3.6085 5.4795 6.9393 5.8812 7.4006l0.72395 0.83123 5.8544-7.3917c7.3307-9.2654 7.9292-9.9121 10.162-11.012 1.6114-0.79341 2.0197-0.87863 3.8076-0.77761 1.6506 0.0933 2.2233 0.26073 3.2355 0.9653 0.67539 0.47012 1.4819 1.3668 1.7965 1.9932 0.55973 1.1142 0.57203 1.7143 0.57203 27.6v26.456l-3.7182 0.0804c-3.2443 0.0703-3.7611 0.0192-4.0757-0.41115-0.28238-0.38617-0.35752-5.2801-0.35752-22.631v-22.139l-3.0747 3.7808c-9.5796 11.786-12.32 15.03-12.996 15.409-0.57158 0.32081-1.0043 0.35878-1.8323 0.15194-1.2233-0.30563-1.743-0.87528-11.092-12.397-3.0866-3.8038-5.5056-6.5517-5.6488-6.4085-0.13771 0.13771-0.28146 10.223-0.32176 22.407l-0.0715 22.157-3.7361 0.0804c-2.0538 0.0437-3.8235-0.0159-3.9327-0.12513-0.33174-0.33178-0.23638-51.869 0.0983-53.074 0.68374-2.4621 3.1346-3.9673 5.8454-3.9684z" fill="#097359"/>
 <path d="m49.791 22.772c-7.4981 0.0264-9.9702 0.13214-11.771 0.36645-9.3409 1.2152-17.569 5.2406-24.579 12.013-6.3152 6.1001-10.509 13.523-12.352 21.871-1.049 4.7503-1.176 8.8854-1.0457 33.634 0.1189 22.592 0.15524 23.891 0.72398 26.885 1.9796 10.422 5.8828 18.248 12.46 24.973 6.987 7.1445 15.758 11.33 25.875 12.343 1.9658 0.19692 29.116 0.29496 80.728 0.29496 69.438 0 77.769 0.0492 77.769 0.43796 0 0.23945-0.51369 1.4544-1.1441 2.7082-2.4124 4.7979-3.9276 9.6221-4.5762 14.587-0.21993 1.6832-0.28519 10.658-0.21451 29.173 0.10123 26.52 0.11187 26.766 0.75079 29.602 1.8524 8.2235 5.067 14.943 9.9211 20.736 7.2792 8.6875 16.507 13.602 28.155 14.989 1.9141 0.22803 8.4532-0.095 11.012-0.54521 18.623-3.2776 32.953-19.916 34.733-40.328 0.41264-4.7334 0.40574-48.133-9e-3 -52.466-1.6252-16.982-13.361-31.862-29.308-37.164-5.7572-1.9143-4.4333-1.8284-31.444-2.0289-27.056-0.20087-25.855-0.12826-30.067-2.02-5.3282-2.393-9.6232-7.0417-11.566-12.531-1.4376-4.0625-1.4548-4.5389-1.3496-32.793 0.0976-26.219 0.094-26.32 0.72397-28.315 2.0199-6.3969 5.8538-11.031 11.369-13.747 4.887-2.4066 2.6729-2.2428 32.722-2.3417 28.946-0.0953 29.085-0.0967 32.91 1.448 6.4805 2.6176 11.642 8.3843 13.791 15.4 0.63922 2.0861 0.64467 2.2185 0.79548 26.984l0.15195 24.883 42.312 0.28602 0.20558 0.71503c0.10891 0.39327 0.45885 2.2934 0.78654 4.2187 1.3641 8.0146 4.9578 15.713 10.154 21.782 5.8985 6.8893 13.891 11.479 23.543 13.523 3.076 0.65149 3.1101 0.65893 32.802 0.74185 28.519 0.0797 29.856 0.0604 33.035-0.48265 9.3688-1.6005 17.194-5.8762 24.159-13.201 7.3072-7.6851 11.752-17.553 12.746-28.298 0.38417-4.1538 0.39059-43.956 9e-3 -47.907-0.75679-7.8355-3.0538-14.298-7.4006-20.799-6.397-9.5666-16.434-16.316-28.056-18.868l-3.0032-0.6614h-60.349l-2.9048 0.64353c-1.5963 0.35364-4.22 1.0998-5.8365 1.6625-12.9 4.4901-23.271 15.002-27.565 27.931-1.9847 5.9767-1.9646 5.6941-2.0736 22.247-0.0544 8.2587-0.16101 15.303-0.24132 15.659l-0.14301 0.65247-10.94-0.0805-10.931-0.0715-0.16982-15.588c-0.18768-17.403-0.21443-17.685-2.4311-24.07-5.0802-14.632-17.74-25.641-32.749-28.476-2.4636-0.46541-5.1065-0.50946-31.578-0.50946-32.01 0-30.807-0.064-37.039 1.9127-15.542 4.93-26.512 18.544-28.592 35.466-0.23302 1.8954-0.30619 10.698-0.23238 30.407 0.10326 27.579 0.10873 27.76 0.75078 30.604 0.8296 3.6737 2.1079 7.39 3.5484 10.359 0.62811 1.2946 1.066 2.5495 0.97423 2.7886-0.14849 0.38694-6.5027 0.43796-57.793 0.43796-38.64 0-58.331-0.10274-59.777-0.30389-7.4884-1.0416-13.592-5.49-17.045-12.424-1.6457-3.3053-2.4875-6.3242-2.7886-9.9926-0.11709-1.4265-0.15016-13.339-0.0715-26.474l0.14301-23.882 0.7776-2.2881c2.3884-7.0118 7.928-12.478 15.32-15.123l2.4937-0.89379h57.203l2.3149 0.79547c6.5124 2.237 12.747 8.2835 15.257 14.792 2.5738 6.674 2.21 13.17-1.1172 19.878-3.2284 6.5084-8.5809 11.354-14.882 13.478-1.473 0.49657-3.2495 0.54297-28.029 0.67928l-26.456 0.14301v20.021h26.885c29.994 0 28.751 0.0752 34.795-2.0289 11.083-3.8576 20.376-12.388 25.84-23.712 5.2798-10.942 6.1212-22.637 2.4222-33.678-2.4553-7.3287-6.3979-13.503-12.2-19.109-5.9304-5.7295-12.225-9.1607-20.539-11.19-2.547-0.62176-2.8694-0.62474-30.836-0.72398-9.0587-0.0322-15.37-0.0516-19.869-0.0358zm337.69 20.307c10.692 3e-3 15.925 0.0841 16.893 0.25026 9.5408 1.6388 17.636 9.4158 19.789 19.011 0.30552 1.3617 0.38433 6.5299 0.38433 25.026 0 20.645-0.0564 23.544-0.47371 25.321-2.3001 9.7957-9.2744 17.126-18.367 19.306-2.2201 0.53222-3.5316 0.55602-30.21 0.53628-22.043-0.0164-28.246-0.10249-29.602-0.40221-8.778-1.9394-14.823-7.8111-17.366-16.875-0.6395-2.2784-0.6484-2.394-0.73292-26.823-0.082-23.713-0.0623-24.607 0.49159-26.939 1.9974-8.4102 8.3176-15.011 16.911-17.652l2.1272-0.65247 27.6-0.0894c4.8218-0.0156 8.9939-0.019 12.558-0.0179zm-153.12 112.07c1.3991 4e-3 2.7703 0.14442 4.0221 0.42008 8.3237 1.833 15.132 8.5222 17.304 17 0.51377 2.0054 0.5472 3.5128 0.54522 28.029-2e-3 24.972-0.0263 26.002-0.58098 28.315-1.9994 8.3404-7.877 14.883-15.579 17.349-2.2518 0.72095-6.9355 1.154-8.7234 0.80442-9.2862-1.8155-15.517-7.5955-18.502-17.152l-0.79548-2.5473-0.0894-25.741c-0.0746-22.656-0.0261-26.009 0.3754-27.994 1.6219-8.0151 7.5107-14.759 15.23-17.42 2.0498-0.70654 4.4609-1.0703 6.7928-1.0636z" fill="#464448"/>
</svg>
