<svg width="800" height="251.98" version="1.1" viewBox="0 0 800 251.98" xmlns="http://www.w3.org/2000/svg">
 <g transform="matrix(1.1229 0 0 1.1229 -2.3716e-6 -2.5288e-5)" fill="#00a763" stroke-width="3.5188">
  <path d="m143.99 105.56c7.3895-8.8674 7.2839-21.781 7.2839-21.781-0.35188-19.459-16.327-35.188-35.962-35.188l-13.196-0.03519h-0.1056c-5.0319 0-9.1137 4.0818-9.1137 9.1489 0 5.0319 4.0818 9.1137 9.1137 9.1137h7.284c13.899 0.03519 20.374 5.243 20.867 16.925-0.49264 11.718-7.0024 16.961-20.972 16.961h-18.298c-1.4075 0-2.9206 0.14075-4.2929 0.52782-2.9558 0.84451-5.4541 2.815-5.4541 7.1432v0.52782c0 2.4984 1.0205 4.5392 3.3781 7.4247 0 0 41.663 47.082 47.117 53.204 1.865 2.3928 4.7504 3.9059 8.0229 3.9059 5.6301 0 10.205-4.5744 10.205-10.205 0-2.7095-1.0556-5.1375-2.7799-6.9672l-30.895-34.449c-1.7594-1.9705-5.6653-4.7856-5.6653-4.7856l10.873-0.52782c0.0352 0.0704 13.794-0.38706 22.591-10.943z"/>
  <path d="m180.09 93.495c5.806 0 10.556-4.7152 10.556-10.556v-16.081h33.218c5.0319 0 9.1489-4.0818 9.1489-9.1137s-4.0818-9.1489-9.1489-9.1489h-45.181c-5.0319 0-9.1137 4.0818-9.1137 9.1489v25.23c-0.0352 5.806 4.68 10.521 10.521 10.521z"/>
  <path d="m63.62 48.595h-54.471c-5.0319 0-9.1489 4.0818-9.1489 9.1137v20.62c0 5.8412 4.7152 10.556 10.556 10.556 5.8412 0 10.556-4.7152 10.556-10.556v-11.471h42.507c5.0319 0 9.1137-4.0818 9.1137-9.1489 0.03519-5.0319-4.0466-9.1137-9.1137-9.1137z"/>
  <path d="m223.83 100.74h-18.298c-19.846 0-35.997 16.081-35.997 35.821v26.391c0 5.806 4.7152 10.556 10.556 10.556 5.806 0 10.521-4.7152 10.521-10.521h0.0352v-27.693c0-9.0081 7.3895-16.327 16.503-16.327l16.714 0.0352c5.0319 0 9.1489-4.0818 9.1489-9.1489-0.0352-5.0319-4.117-9.1137-9.1841-9.1137z"/>
  <path d="m63.655 154.16s-0.03519 0 0 0h-26.004c-9.0785 0-16.503-7.3191-16.503-16.327v-18.826h33.358c5.0319 0 9.1137-4.0818 9.1137-9.1489 0-5.0319-4.0818-9.1489-9.1137-9.1489h-43.95c-5.806 0-10.556 4.7152-10.556 10.521v25.3c0 19.776 16.151 35.857 35.997 35.857h27.623c5.0319 0 9.1489-4.0818 9.1489-9.1489 0-4.9967-4.0818-9.0785-9.1137-9.0785z"/>
  <path d="m430.38 61.825v-9.8526c0-34.977-19.705-51.973-60.594-51.973h-44.337c-9.8526 0-16.011 6.1579-16.011 16.011v147.79c0 5.1726 3.4484 8.6211 8.6211 8.6211h13.055c5.1726 0 8.6211-3.4484 8.6211-8.6211v-50.002h30.051c40.888 0 60.594-16.996 60.594-51.973zm-30.543 1.7242c0 17.735-8.8674 25.371-30.051 25.371h-30.051v-64.042h30.051c20.937 0 30.051 7.6358 30.051 25.371z"/>
  <path d="m564.87 124.64v-28.326c0-32.514-20.444-50.495-57.145-50.495-36.455 0-56.899 17.981-56.899 50.495v28.326c0 32.514 20.444 50.495 57.145 50.495 36.455 0 56.899-17.981 56.899-50.495zm-30.051 2.9558c0 15.764-9.36 24.139-26.848 24.139-17.735 0-27.095-8.3748-27.095-24.139v-34.238c0-15.764 9.36-24.139 26.848-24.139 17.735 0 27.095 8.3748 27.095 24.139z"/>
  <path d="m600.1 81.284v131.04c0 7.3895 4.68 12.069 12.069 12.069h5.419c7.3895 0 12.07-4.68 12.07-12.069v-47.785c7.3895 6.8969 17.981 10.592 31.036 10.592 31.036 0 51.726-20.198 51.726-51.48v-26.356c0-31.282-20.937-51.48-52.712-51.48-17.735 0-30.79 5.9116-38.425 17.242l-12.562-12.562c-4.68-4.68-10.592-5.1726-15.272-0.49263l-4.9263 4.9263c-4.68 4.68-4.1874 10.592 0.49264 15.272zm29.558 13.301c0-16.257 9.1137-25.371 26.356-25.371 17.242 0 26.356 9.1137 26.356 25.371v31.775c0 16.257-9.1137 25.371-26.356 25.371-17.242 0-26.356-9.1137-26.356-25.371z"/>
 </g>
</svg>
