<svg version="1.1" viewBox="0 0 236.23 69.183" xml:space="preserve" xmlns="http://www.w3.org/2000/svg"><defs><clipPath id="b"><path d="M 0,67.05 H 177.17 V 0 H 0 Z"/></clipPath><clipPath id="a"><path d="m0 38.58h45.35v-22.73h-45.35z"/></clipPath></defs><g transform="matrix(1.3333 0 0 -1.3333 0 89.4)"><g clip-path="url(#b)"><g transform="translate(71.61,16.26)"><path d="m0 0c-0.06 2.43-0.13 4.8-0.19 7.23-0.06 2.62-0.06 5.25-0.06 7.8h3.07c6.53 0 13.44 0.9 17.34 7 1.655 2.666 2.48 5.764 2.37 8.9 0 6.21-2.43 9.15-4.54 10.88-4.53 3.58-10.16 3.32-15.41 3.26l-5.63-0.06c-2.69-0.06-5.44-0.06-8.13-0.13l-0.43-0.39c0.32-6.59 0.45-13.18 0.45-19.78 0-8.32-0.19-16.58-0.38-24.84l0.38-0.38c2 0.06 4 0.19 6 0.19 1.66 0.06 3.27 0 4.86 0zm-0.19 23c-0.06 4.74-0.06 9.47-0.06 14.21 1 0 1.92 0.06 2.82 0.06 2.62 0 5.89-0.13 7.55-2.69 0.702-1.249 1.048-2.668 1-4.1 0.044-1.47-0.301-2.926-1-4.22-1.21-2-3.2-3.14-7.75-3.26h-2.54zm26-23.55c3.58 0.12 7.17 0.19 10.69 0.19l0.45 0.45c-0.26 5.05-0.39 10.18-0.45 15.36-0.13 6.08-0.25 12.23-0.25 18.37 0 5.5 0.19 11 0.38 16.45l-0.45 0.52c-3.65-0.64-7.3-1.22-10.88-1.73l-0.32-0.38 0.38-5c0.26-4.1 0.32-8.13 0.39-12.22 0.06-5.25 0.13-10.43 0.13-15.62s-0.13-10.65-0.39-15.9zm48.7 0.64c-0.13 2-0.26 4.16-0.32 6.21-0.13 3.33-0.07 6.59-0.07 9.86 0 5.76 0 11.46 0.13 17.22l-0.45 0.58-10.41-0.54-0.38-0.38c0.19-3.58 0.25-7.17 0.32-10.82 0.07-4.35 0.13-8.71 0-13.06-1.47-1.15-2.81-2.11-4.73-2.11-1.421-0.086-2.785 0.573-3.6 1.74-0.829 1.573-1.206 3.345-1.09 5.12-0.06 2.18 0 4.42 0.06 6.6l0.2 12.93-0.52 0.58c-3.52-0.253-7.04-0.447-10.56-0.58l-0.38-0.38 0.19-2.75c0.06-1.41 0.06-2.81 0.13-4.16 0.06-2.24 0.06-4.48 0.06-6.72v-7.42c-0.066-1.937 0.129-3.875 0.58-5.76 0.414-1.341 1.065-2.597 1.92-3.71 2.084-2.434 5.181-3.76 8.38-3.59 3.546 0.055 6.945 1.423 9.54 3.84v-2.82l0.38-0.45c1.86 0.06 3.71 0.19 5.57 0.19 1.54 0.06 3.14 0 4.67 0zm4.8 1c3.445-1.523 7.184-2.268 10.95-2.18 7.36 0 11.2 2.3 13.31 5.06 1.325 1.846 2.026 4.068 2 6.34 0.156 3.178-1.318 6.216-3.91 8.06-1.421 0.965-2.974 1.719-4.61 2.24l-3.14 1.18c-1.66 0.64-2.56 0.9-3.27 1.67-0.396 0.383-0.605 0.92-0.57 1.47 0 1.6 1.34 3 4.35 3 2.904-0.016 5.728-0.959 8.06-2.69l0.64 0.19c0.13 2.3 0.39 4.61 0.64 7l-0.37 0.36c-0.77 0.26-1.54 0.51-2.3 0.7-2.61 0.56-5.27 0.858-7.94 0.89-7.1 0-10.62-2.49-12.41-5.25-1.056-1.665-1.612-3.598-1.6-5.57-0.069-3.074 1.387-5.983 3.89-7.77 1.36-0.931 2.845-1.665 4.41-2.18l2.5-0.9c1.41-0.51 3.46-1.09 4.23-2.69 0.135-0.349 0.219-0.717 0.25-1.09 0-1.79-1.54-3.39-5-3.39-2.721 0.056-5.376 0.851-7.68 2.3-0.592 0.374-1.148 0.803-1.66 1.28l-0.64-0.26c-0.05-1.07-0.05-2.32-0.13-3.48s-0.19-2.5-0.32-3.71z" fill="#f9ba00"/></g><g clip-path="url(#a)" opacity=".5"><g transform="translate(45.35,15.85)"><path d="m0 0v22.68h-15.06c-0.408 0-0.815-0.023-1.22-0.07l-0.11 0.07h-22.87v0.05h-6.09v-22.73z" fill="#f9ba00"/></g></g><g transform="translate(45.35,38.53)"><path d="m0 0v22.68h-45.35v-22.68h6v0.08c0.08 1.75 0.1 3.51 0.1 5.28v3.94c0 1.35 0 2.69-0.13 4l0.03 0.14h8.37l0.1-0.11c-0.06-0.74-0.11-1.47-0.13-2.21l-0.11-0.11c-1.64 0-3.26 0.06-4.88 0.06v-3c1.54 0 3.07 0 4.59 0.08l0.11-0.13c-0.05-0.74-0.05-1.44-0.05-2.17l-0.11-0.11h-4.46v-3.33h3c0.72 0 1.45 0.06 2.17 0.1l0.1-0.13c-0.06-0.78-0.1-1.54-0.13-2.32l-0.13-0.1h6.94l-0.08 0.08c0.08 2.61 0 5.22 0 7.83 0 1.81 0 3.64-0.13 5.43l0.11 0.11h3.81c1.33 0 2.71-0.13 3.64-1.24 0.525-0.645 0.802-1.458 0.78-2.29 0.03-0.957-0.331-1.885-1-2.57-0.761-0.666-1.713-1.072-2.72-1.16l1.41-1.83c0.7-0.93 1.43-1.87 2.15-2.8l1.14-1.49-0.06-0.15h2.11l-0.08 0.08c0.06 2.69 0 5.37 0 8 0 1.75 0 3.49-0.11 5.22l0.08 0.34h7.26l0.1-0.1c0-0.31-0.06-0.61-0.08-0.93l-0.13-0.1-2.13 0.08h-3.8v-5.13h0.84c1.37 0 2.71 0 4.1 0.1l0.11-0.11c0-0.31-0.06-0.59-0.08-0.88l-0.11-0.11h-4.75c0-2.08 0-4.13 0.13-6.23l-0.1-0.1h11.56zm-22.78 12.4v-5.32h1.47c1.37 0 3.26 0.13 4 1.58 0.195 0.391 0.295 0.823 0.29 1.26 8e-3 0.527-0.138 1.045-0.42 1.49-0.67 1-2 1.07-3.11 1.07-0.74 0-1.49 0-2.21-0.06m0.05-9.9c0-0.82 0-1.64 0.08-2.46l-0.1-0.1h6.33l-0.09 0.06c-0.36 0.53-0.72 1-1.11 1.56s-1 1.26-1.43 1.89-0.76 1-1.16 1.58c-0.27 0.34-0.53 0.69-0.84 1h-1.73c0-1.2 0.02-2.38 0.06-3.54" fill="#f9ba00"/></g></g></g></svg>
