<svg width="800" height="183.06" version="1.1" viewBox="0 0 800 183.06" xmlns="http://www.w3.org/2000/svg">
 <g transform="matrix(3.622 0 0 3.622 -177.19 -174.69)">
  <path d="m89.84 79c2.1-2.52 2.07-6.19 2.07-6.19-0.1-5.53-4.64-10-10.22-10l-3.75-0.01h-0.03c-1.43 0-2.59 1.16-2.59 2.6 0 1.43 1.16 2.59 2.59 2.59h2.07c3.95 0.01 5.79 1.49 5.93 4.81-0.14 3.33-1.99 4.82-5.96 4.82h-5.2c-0.4 0-0.83 0.04-1.22 0.15-0.84 0.24-1.55 0.8-1.55 2.03v0.15c0 0.71 0.29 1.29 0.96 2.11 0 0 11.84 13.38 13.39 15.12 0.53 0.68 1.35 1.11 2.28 1.11 1.6 0 2.9-1.3 2.9-2.9 0-0.77-0.3-1.46-0.79-1.98l-8.78-9.79c-0.5-0.56-1.61-1.36-1.61-1.36l3.09-0.15c0.01 0.02 3.92-0.11 6.42-3.11z"/>
  <path d="m100.1 75.57c1.65 0 3-1.34 3-3v-4.57h9.44c1.43 0 2.6-1.16 2.6-2.59s-1.16-2.6-2.6-2.6h-12.84c-1.43 0-2.59 1.16-2.59 2.6v7.17c-0.01 1.65 1.33 2.99 2.99 2.99z"/>
  <path d="m67 62.81h-15.48c-1.43 0-2.6 1.16-2.6 2.59v5.86c0 1.66 1.34 3 3 3s3-1.34 3-3v-3.26h12.08c1.43 0 2.59-1.16 2.59-2.6 0.01-1.43-1.15-2.59-2.59-2.59z"/>
  <path d="m112.53 77.63h-5.2c-5.64 0-10.23 4.57-10.23 10.18v7.5c0 1.65 1.34 3 3 3 1.65 0 2.99-1.34 2.99-2.99h0.01v-7.87c0-2.56 2.1-4.64 4.69-4.64l4.75 0.01c1.43 0 2.6-1.16 2.6-2.6-0.01-1.43-1.17-2.59-2.61-2.59z"/>
  <path d="m67.01 92.81s-0.01 0 0 0h-7.39c-2.58 0-4.69-2.08-4.69-4.64v-5.35h9.48c1.43 0 2.59-1.16 2.59-2.6 0-1.43-1.16-2.6-2.59-2.6h-12.49c-1.65 0-3 1.34-3 2.99v7.19c0 5.62 4.59 10.19 10.23 10.19h7.85c1.43 0 2.6-1.16 2.6-2.6 0-1.42-1.16-2.58-2.59-2.58z"/>
  <path d="m171.23 66.57v-2.8c0-9.94-5.6-14.77-17.22-14.77h-12.6c-2.8 0-4.55 1.75-4.55 4.55v42c0 1.47 0.98 2.45 2.45 2.45h3.71c1.47 0 2.45-0.98 2.45-2.45v-14.21h8.54c11.62 0 17.22-4.83 17.22-14.77zm-8.68 0.49c0 5.04-2.52 7.21-8.54 7.21h-8.54v-18.2h8.54c5.95 0 8.54 2.17 8.54 7.21z"/>
  <path d="m188.94 98h3.36c1.26 0 2.03-0.77 2.03-2.1v-2.94c0-1.19-0.77-1.89-1.89-1.89h-2.8c-1.54 0-2.1-0.63-2.1-2.38v-37.03c0-2.1-1.33-3.43-3.43-3.43h-1.54c-2.1 0-3.43 1.33-3.43 3.43v37.52c0 6.23 2.31 8.82 9.8 8.82z"/>
  <path d="m230.94 88.69v-23.45c0-1.47-0.98-2.45-2.45-2.45h-3.5c-1.47 0-2.45 0.98-2.45 2.45v19.32c0 4.83-2.45 7.35-7.07 7.35s-7-2.59-7-7.35v-19.32c0-1.47-0.98-2.45-2.45-2.45h-3.5c-1.47 0-2.45 0.98-2.45 2.45v19.32c0 9.1 5.74 14.21 14.42 14.21 4.69 0 8.26-1.68 10.43-4.9l3.57 3.57c1.33 1.33 3.01 1.47 4.34 0.14l1.4-1.4c1.33-1.33 1.19-3.01-0.14-4.34z"/>
  <path d="m260.62 77.35-9.03-1.12c-2.24-0.28-3.29-1.05-3.29-3.22v-0.7c0-2.73 2.03-3.99 6.65-3.99 4.48 0 6.51 1.19 6.51 3.71v0.35c0 0.77 0.49 1.19 1.26 1.19h5.04c0.77 0 1.33-0.56 1.33-1.4v-0.35c0-6.51-4.76-9.8-14.14-9.8-9.24 0-14.42 4.06-14.42 11.2v0.56c0 5.81 2.66 8.68 9.31 9.52l9.03 1.12c2.17 0.28 3.15 1.05 3.15 3.15v0.84c0 2.66-2.31 4.06-6.79 4.06-4.9 0-7.07-1.19-7.07-3.78v-0.42c0-0.77-0.42-1.19-1.19-1.19h-5.04c-0.84 0-1.4 0.49-1.4 1.33v0.49c0 6.58 4.9 9.87 14.7 9.87 9.24 0 14.56-4.13 14.56-11.2v-0.77c0-5.74-2.59-8.61-9.17-9.45z"/>
 </g>
</svg>
