<svg id="c" version="1.1" viewBox="0 0 223.08 81.638" xml:space="preserve" xmlns="http://www.w3.org/2000/svg"><defs id="d"><clipPath id="b"><path id="e" d="M 0,67.05 H 167.35 V 0 H 0 Z"/></clipPath><clipPath id="a"><path id="f" d="m0 38.58h45.35v-22.73h-45.35z"/></clipPath></defs><g id="g" transform="matrix(1.3333 0 0 -1.3333 0 81.705)"><g id="h"><g id="i" clip-path="url(#b)"><g id="j"><g id="k"><g id="l" clip-path="url(#a)" opacity=".5"><g id="m" transform="translate(45.35,15.85)"><path id="n" d="m0 0v22.68h-15.06c-0.408 0-0.815-0.023-1.22-0.07l-0.11 0.07h-22.87v0.05h-6.09v-22.73z" fill="#49aa55"/></g></g></g></g><g id="o" transform="translate(45.35,38.53)"><path id="p" d="m0 0v22.68h-45.35v-22.68h6v0.08c0.08 1.75 0.1 3.51 0.1 5.28v3.94c0 1.35 0 2.69-0.13 4l0.03 0.14h8.37l0.1-0.11c-0.06-0.74-0.11-1.47-0.13-2.21l-0.11-0.11c-1.64 0-3.26 0.06-4.88 0.06v-3c1.54 0 3.07 0 4.59 0.08l0.11-0.13c-0.05-0.74-0.05-1.44-0.05-2.17l-0.11-0.11h-4.46v-3.33h3c0.72 0 1.45 0.06 2.17 0.1l0.1-0.13c-0.06-0.78-0.1-1.54-0.13-2.32l-0.13-0.1h6.94l-0.08 0.08c0.08 2.61 0 5.22 0 7.83 0 1.81 0 3.64-0.13 5.43l0.11 0.11h3.81c1.33 0 2.71-0.13 3.64-1.24 0.525-0.645 0.802-1.458 0.78-2.29 0.03-0.957-0.331-1.885-1-2.57-0.761-0.666-1.713-1.072-2.72-1.16l1.41-1.83c0.7-0.93 1.43-1.87 2.15-2.8l1.14-1.49-0.06-0.15h2.11l-0.08 0.08c0.06 2.69 0 5.37 0 8 0 1.75 0 3.49-0.11 5.22l0.08 0.34h7.26l0.1-0.1c0-0.31-0.06-0.61-0.08-0.93l-0.13-0.1-2.13 0.08h-3.8v-5.13h0.84c1.37 0 2.71 0 4.1 0.1l0.11-0.11c0-0.31-0.06-0.59-0.08-0.88l-0.11-0.11h-4.75c0-2.08 0-4.13 0.13-6.23l-0.1-0.1h11.56zm-22.78 12.4v-5.32h1.47c1.37 0 3.26 0.13 4 1.58 0.195 0.391 0.295 0.823 0.29 1.26 8e-3 0.527-0.138 1.045-0.42 1.49-0.67 1-2 1.07-3.11 1.07-0.74 0-1.49 0-2.21-0.06m0.05-9.9c0-0.82 0-1.64 0.08-2.46l-0.1-0.1h6.33l-0.09 0.06c-0.36 0.53-0.72 1-1.11 1.56s-1 1.26-1.43 1.89-0.76 1-1.16 1.58c-0.27 0.34-0.53 0.69-0.84 1h-1.73c0-1.2 0.02-2.38 0.06-3.54" fill="#49aa55"/></g><g id="q" transform="translate(146 .52)"><path id="r" d="m0 0c-0.19 5.06-0.32 10.11-0.45 15.23h1.34c3.39 0 15.42 0.25 19.33 12 0.744 2.162 1.112 4.434 1.09 6.72 0 6.65-2.62 10.56-4.61 12.54-2.261 2.385-5.414 3.718-8.7 3.68-3.135 0-6.179-1.057-8.64-3l0.06 2.62-0.51 0.58c-1.6-0.38-3.2-0.77-4.8-1-1.92-0.38-3.84-0.64-5.76-0.89l-0.38-0.38c0.25-2.94 0.45-5.82 0.64-8.7 0.25-6.14 0.25-12.22 0.25-18.37 0-7-0.06-14.14-0.25-21.18l0.29-0.32 5 0.19c1.92 0 3.91 0 5.76-0.06zm-0.41 22.33c0 6.21-0.07 12.42-0.07 18.69 1.132 0.836 2.503 1.284 3.91 1.28 1.466 1e-3 2.884-0.52 4-1.47 2.75-2.62 2.69-7.1 2.69-7.87 0-4.54-1.47-8.7-6.27-10.11-1.395-0.393-2.842-0.565-4.29-0.51" fill="#49aa55"/></g><g id="s" transform="translate(71.65,16.32)"><path id="t" d="m0 0c-0.06 2.43-0.13 4.8-0.19 7.22-0.06 2.62-0.06 5.24-0.06 7.8h3.07c6.52 0 13.42 0.89 17.32 7 1.654 2.659 2.479 5.75 2.37 8.88 0 6.2-2.43 9.14-4.54 10.86-4.55 3.49-10.18 3.23-15.42 3.17l-5.62-0.06c-2.68-0.07-5.43-0.07-8.12-0.14l-0.46-0.38c0.32-6.58 0.45-13.17 0.45-19.75 0-8.31-0.19-16.55-0.38-24.8l0.38-0.38c2 0.06 4 0.19 6 0.19 1.66 0.07 3.26 0 4.86 0zm-0.19 22.94c-0.06 4.73-0.06 9.46-0.06 14.19 1 0 1.92 0.06 2.81 0.06 2.62 0 5.88-0.13 7.54-2.69 0.703-1.245 1.049-2.661 1-4.09 0.045-1.47-0.3-2.926-1-4.22-1.21-2-3.2-3.13-7.73-3.26h-2.56z" fill="#49aa55"/></g><g id="u" transform="translate(109.06,38.33)"><path id="v" d="m0 0c-0.047 0.227 0.098 0.45 0.325 0.497 0.13 0.027 0.266-9e-3 0.365-0.097l8.92-5.15c0.218-0.079 0.331-0.32 0.252-0.538-0.042-0.117-0.135-0.21-0.252-0.252l-8.92-5.15c-0.173-0.154-0.439-0.138-0.593 0.035-0.088 0.1-0.124 0.235-0.097 0.365z" fill="#49aa55"/></g><g id="w" transform="translate(112.64,23.58)"><path id="x" d="m0 0c-5.346 0-9.68 4.334-9.68 9.68s4.334 9.68 9.68 9.68 9.68-4.334 9.68-9.68-4.334-9.68-9.68-9.68m0 27.47c-9.886 0-17.9-8.014-17.9-17.9s8.014-17.9 17.9-17.9 17.9 8.014 17.9 17.9v0.01c0 9.88-8.01 17.89-17.89 17.89h-0.01" fill="#49aa55"/></g></g></g></g></svg>
