<svg class="header-logo" width="800" height="171.36" version="1.1" viewBox="0 0 800 171.36" xmlns="http://www.w3.org/2000/svg">
 <defs>
  <linearGradient id="Degradado_sin_nombre_12" x1="1.75" x2="643.72" y1="143.36" y2="-28.66" gradientTransform="scale(1.2273)" gradientUnits="userSpaceOnUse">
   <stop stop-color="#f60" offset="0"/>
   <stop stop-color="#ff3d3d" offset=".68"/>
   <stop stop-color="#ff2d55" offset="1"/>
  </linearGradient>
 </defs>
 <path d="m246.95 2.0127v29.455h-32.523v36.327h25.564v29.995h-25.564v41.052h34.094v30.056h-63.929v-166.89zm12.555 128.08c0 27.81 12.346 41.273 34.094 41.273h7.3636c21.526 0 34.536-13.5 34.536-41.273v-128.08h-30.682v129.21c0 6.9464-2.4546 10.309-7.1796 10.309-4.9091 0-7.3636-3.3627-7.3636-10.309v-129.21h-30.682zm119.56-102.28h6.7255c6.0628 0 7.3637 2.2459 7.3637 9.4255v22.656c0 7.8423-2.2459 10.088-8.3087 10.088h-5.8296zm0 69.758h6.2959c6.0505 0 7.8546 2.025 7.8546 9.8182v48.723c0 7.3637 1.1168 11.045 2.6877 12.788h29.835v-1.1168c-1.1291-2.025-2.4546-5.1668-2.4546-12.346v-56.737c0-12.346-8.0755-17.955-12.788-19.747 5.6087-2.4546 13.23-8.5173 13.23-22.422v-26.693c0-17.943-9.1923-27.822-27.356-27.822h-47.127v166.91h29.823zm103.85 34.094c0 5.1668-1.5709 9.8182-7.6214 9.8182-6.2837 0-8.2964-4.7005-8.2964-9.8182v-91.518c0-7.3637 2.0127-10.984 8.0755-10.984 5.1546 0 7.8423 3.5836 7.8423 11.045zm31.185-89.272c0-25.564-9.4255-42.39-35.665-42.39h-6.7377c-25.773 0-35.886 16.826-35.886 42.623v88.143c0 26.239 12.567 40.598 36.119 40.598h6.7009c22.435 0 35.444-16.151 35.444-40.598zm43.077-14.58h5.6087c6.9586 0 7.6214 3.8168 7.6214 9.8182v27.871c0 5.1546-0.66273 9.4132-7.6214 9.4132h-5.6087zm14.126 74.25c20.864 0 29.16-13.009 29.16-33.652v-33.419c0-20.631-5.3755-32.977-30.682-32.977h-42.451v166.91h29.847v-66.862zm67.071-47.103 6.2836 57.191h-12.125zm12.334 113.94h28.939l-22.656-166.91h-35.444l-21.085 166.91h26.46l2.7-28.043h17.943zm37.702-56.921h19.636v-46.931h16.556v-19.87h-16.556v-23.944h22.471v-19.219h-42.12zm88.965-109.96-7.5355 55.583-7.5477-55.583h-24.239v109.96h17.182v-65.046l9.9041 65.046h7.3636l9.7568-65.046v65.046h17.734v-109.96zm-777.38 165.92h152.64v-26.337h-152.64zm0-34.523h69.059v-26.35h-69.059zm0-35.431h109.01v-26.35h-109.01zm0-34.523h69.059v-26.35h-69.059zm0-35.088h152.64v-26.35h-152.64z" fill="url(#Degradado_sin_nombre_12)" stroke-width="1.2273"/>
</svg>
