<svg width="3243.2pt" height="1443.1pt" version="1.1" viewBox="0 0 3243.2 1443.1" xmlns="http://www.w3.org/2000/svg">
 <g transform="translate(-191.01 -105.99)" fill="#ecc41c">
  <path d="m1265.3 109.66c1.71-1.05 2.52-3.7 4.77-3.64 7.63-0.07 15.26 0.02 22.9-0.02-0.26 2.43 0.56 5.19-0.49 7.41-3.11 2.84-5.25 7.83-10.11 7.57-0.91 1.63-2.03 3.18-4.04 3.29-0.6-1.12-1.17-2.25-1.71-3.38-2.39-0.08-4.85 0.32-7.17-0.3-1.46-1.65-2.76-3.44-4.54-4.76 0.03-2.05-0.38-4.22 0.39-6.17z"/>
  <path d="m1239.2 132.17c1.09-0.94 1.88-2.2 3.08-3.05 4.47-0.1 8.96-0.17 13.44 0.06 0.29 0.28 0.87 0.86 1.16 1.14 0.25 3.19 0.01 6.4 0.12 9.6-1.1 0.68-2.2 1.35-3.27 2.03 0.07 1.57 0.14 3.14 0.22 4.71-4.77 3.89-8.53 8.88-12.6 13.47 0.25 1.51 0.81 3.37-0.59 4.52-1.53 0.5-3.11 0.73-4.64 1.12-2.55 2.35-5.08 5-4.35 8.78-1.73 1.02-3.09 2.46-4.09 4.18-1.4 0.11-2.77 0.22-4.13 0.37-2.9 4.42-7.23 7.68-10.08 12.14 0.55 4.23-3.64 6.35-5.83 9.33-1.21 1.87-3.21 2.41-5.28 2.69-2.23 2.15-4.05 4.72-6.41 6.75-1.88 1.26-0.9 3.76-1.16 5.63-2.88 1.79-4.68 4.72-7.07 7.04-2.37 2.63-5.09 4.98-6.94 8.03-1.55 0.08-3.09 0.18-4.61 0.32-0.19 1.85-0.3 3.71-0.37 5.57-3.18 2.44-6.79 5.59-6.05 10.04-2.73 2.48-6.38 5.03-6.05 9.17-0.04 2.71-3.63 2.11-5.37 3.14-1.76 1.03-0.53 3.07-0.55 4.65-1.2 1.14-3.3 1.74-3.59 3.53-0.06 3.13 0.47 6.25 0.26 9.38-0.56 1.66-2.11 2.63-3.31 3.77-0.15 1.42-0.16 2.87-0.47 4.27-3.54 3.84-7.01 7.74-10.51 11.61-1.67 1.35-1.26 3.61-1.42 5.49-3.01 2.71-5.71 5.72-8.35 8.76-2.06 2.25-0.19 5.42-0.51 8.11-3.6 2.95-6.18 6.91-9.75 9.87-0.22 1.61-0.03 3.32-0.61 4.86-2.77 3.04-5.64 5.99-8.29 9.13-0.44 2.06-0.18 4.42-2.07 5.82-1.75 1.36-1.25 3.69-1.34 5.6-0.96 0.54-1.92 1.07-2.87 1.59-0.08 1.73-0.13 3.47-0.17 5.22-3.06 2.5-7.07 5.5-6.08 9.99-3.22 2.94-7.62 6.12-6.89 11.04-1 0.77-1.99 1.53-2.96 2.3 0.04 2.59 0.08 5.19 0.05 7.79-2.01 1.77-4.01 3.57-5.69 5.65-0.28 2.77-0.31 5.72-3.32 6.92-0.08 2.73-0.01 5.47-0.07 8.2-2.32 1.54-3.86 3.89-5.98 5.64-0.03 1.5-0.04 3-0.02 4.51-1.07 0.74-2.14 1.47-3.19 2.21 0.16 4.91 0.32 9.83 0.1 14.74-0.72 1.14-2.01 1.74-2.96 2.63-0.04 1.47-0.05 2.94-0.05 4.41-4.55 3.88-8.06 8.82-12.63 12.67-0.21 1.64 0.01 3.37-0.57 4.94-1.47 1.32-2.73 2.84-3.77 4.51-1.64 0.02-3.27 0.05-4.87 0.09-0.02 4.18-0.07 8.37 0 12.56-1.01 0.58-1.99 1.17-2.96 1.78-0.01 1.19-0.05 2.38-0.13 3.57-1.21 3.88-7.42 5.83-6.2 10.56 0.14 1.39 0.21 2.79 0.27 4.2-1.26 1.17-2.51 2.34-3.75 3.53 0.19 1.18 0.39 2.37 0.57 3.57-1.17 0.89-2.38 1.73-3.55 2.62 0.07 1.5 0.18 3 0.26 4.51-1.14 0.81-2.25 1.63-3.35 2.46-0.08 1.44-0.05 2.9-0.28 4.35-0.84 1.3-2.39 2.09-2.88 3.6 0.19 3.95 0.87 7.87 0.71 11.85 0.25 2.41-2.24 3.61-3.6 5.18 0.18 1.16 0.39 2.32 0.59 3.49-1.23 1.16-2.48 2.29-3.73 3.42 1.04 5.59 0.84 11.4-0.18 16.99 1.78 0.94 3.78 1.21 5.78 1.33 1.48 2.3 3.34 4.32 4.8 6.64 1.34 0.09 2.7 0.21 4.06 0.34 1.12 2.46 3.33 3.87 6.04 3.34 0.74 1.06 1.45 2.14 2.15 3.26 1.4 0.09 2.81 0.16 4.25 0.23 1.54 2.52 3.94 4.34 5.55 6.82 1.54 0.05 3.09 0.1 4.66 0.15 0.3 3.39-1.28 7.65 1.71 10.21 1.85 2.27 3.92 4.37 5.67 6.73 2.35 0.08 4.71 0.06 7.08 0.09 0.85 1.34 1.8 2.63 2.79 3.9 4.73 0.17 9.45-0.18 14.16-0.72 2.28-0.44 3.42 2.32 3 4.19-0.46 2.96-0.48 5.96-0.48 8.95-1.51 1.2-2.93 2.57-3.31 4.55 1.7 0.04 3.42 0.07 5.15 0.1 0.92 1.32 1.81 2.73 3.26 3.6 1.14-1.21 1.52-4.21 3.71-3.61 0.62 0.85 1.21 1.73 1.76 2.66 3.82-0.18 5.84 3.3 8.41 5.52 0 2.57-0.05 5.14-0.1 7.72 1.94 1.25 3.32 3.07 4.53 5.02 2.1 0.03 4.2 0.03 6.32 0.06 1.24 1.26 2.45 2.86 4.42 2.92 2.5 0.02 3.27 2.74 4.73 4.3 0.87-1.43 1.72-2.86 2.6-4.28 1.37 0.01 2.76 0.03 4.17 0.05 2.88 4.21 6.43 8.07 10.34 11.34 0.11 2.71-0.41 5.5 0.31 8.15 1.28 1.58 2.74 3.01 4.07 4.56 4.16 0.02 8.33 0.02 12.5-0.01 0.69 0.7 1.4 1.41 2.12 2.13-0.31 1.11-0.62 2.23-0.89 3.36 2.39 2.12 4.51 4.52 6.87 6.69-0.02 2.93-0.08 5.86 0 8.81 5.03 0.04 10.07-0.06 15.11-0.01 1.98-0.33 3.01 1.65 4.53 2.54 1.57 0.61 3.67 0.45 4.72 2.05 1.07 1.09-0.09 2.67-0.18 3.95 1.23 1.19 2.47 2.39 3.71 3.6-0.88 2.98 1.17 4.97 2.85 7.1-0.07 2.61 0.56 4.99 3.24 5.98-0.04 1.55-0.06 3.09-0.08 4.65 1.82 1.23 3.21 2.94 4.4 4.8 2.75-0.92 4.47 1.35 6.29 2.99 1.97 0.67 4.13 0.26 6.2 0.36 1.43 1.98 3.53 3.03 5.94 3.33 1.83 1.48 3.1 3.58 5.16 4.86-0.6 2.89 0.47 5.5 3.03 7.01 0.17 1.93-0.57 4.42 1.41 5.66 3.59 0.25 7.2-0.01 10.81 0.07-0.02 0.63-0.06 1.91-0.08 2.55-1.12 0.75-2.23 1.51-3.31 2.28-0.18 2.71 0.92 5.08 3.29 6.5-0.05 3.98 0.02 7.96-0.06 11.95-0.12 2.04-0.16 4.11 0.08 6.16l0.07 0.79c-1.03 0.94-2.03 1.9-3.03 2.85 0.78 2.78 1.01 5.74 0.01 8.51-3.59 0.05-7.19-0.26-10.74 0.14-2.05 0.97-1.43 3.28-1.52 5.11 0 2.53 0.04 5.08 0.08 7.63-1.06 0.77-2.11 1.54-3.14 2.33-0.1 3.64 1.42 8.5-2.87 10.32-0.07 1.77-0.14 3.55-0.25 5.33-1.95 0.07-3.89 0.12-5.82 0.2-0.59-1.07-1.16-2.13-1.73-3.17-3.3 0.01-6.6 0-9.88 0.03-0.87 0.95-1.3 2.41-2.51 2.99-5.63 0.24-11.27-0.06-16.9 0.11-0.58-1.06-1.14-2.1-1.7-3.13-9.96 0.02-19.92 0.01-29.87 0.07-1.64 0.28-2.69-1-3.75-1.95-0.01-1.64 1.25-3.76-0.57-4.81-1.33-0.33-2.68-0.32-4-0.42-5.9-7.49-12.56-14.34-19.02-21.34-0.94-2.17-0.03-5.07-2.33-6.57-1.53-2.28-4.09-2.8-6.49-3.55-4.34-4.12-7.95-8.94-11.99-13.35-2.17-0.01-4.33 0-6.48 0.02-1.15-1.57-2.57-2.89-3.95-4.21-1.07-1.15-0.52-2.85-0.79-4.24-1.27-1.87-2.73-3.61-3.9-5.54-3.47-0.03-6.93-0.02-10.38 0.01-2.55-3.55-5.8-6.54-8.23-10.17-5.28 0.17-10.55 0.06-15.82 0.12-5.38-6.31-10.99-12.41-16.68-18.44-0.87-1.67-0.27-3.73-0.47-5.53-2.55-0.06-5.09-0.09-7.63-0.17-3.49-4.22-7.09-8.43-11.24-12-0.03-2.94 0.03-5.89-0.02-8.82-1.56-0.03-3.09-0.06-4.63-0.09-0.8-1.24-1.69-2.41-2.61-3.53-1.01 1.41-1.99 2.84-3.04 4.21-1.49-2.1-2.97-4.32-5.77-4.52-3.05-0.26-1.82-3.9-2.14-5.91-4.37 0.27-7.24-3.24-9.51-6.43-0.5-2.12-0.1-4.29 0.27-6.39-1.78-1.65-3.44-3.41-4.91-5.31-3.29-0.01-6.57 0.05-9.85-0.03-0.53-1.77-0.77-3.61-1.25-5.38-4.03-5.02-8.57-9.62-12.7-14.56-1.49-0.81-3.23-0.89-4.83-1.26 0.48-3.41-1.58-5.74-3.7-8.04 0.14-3.98-2.68-7.58-6.58-8.4-2.21-0.31-2.84-3.05-5.04-3.31-3-0.52-4.53-3.39-6.77-5.12-0.05-1.59-0.09-3.17-0.11-4.75-5.1-0.26-9.7-4.57-9.98-9.69-2.64-4.06-6.72-7.07-9.64-10.98-1.99-1.12-4.52-0.38-6.66-1.13-3.5-3.85-6.67-8.03-10.62-11.45-0.14-1.74 0.17-3.62-0.74-5.19-2.17-0.74-4.95-0.37-6.23-2.66-2.12-1.57-2.23-4.07-2.5-6.45-1.96-2.51-4.31-4.68-6.63-6.84 0.07-2.14 0.51-4.26 0.52-6.4-0.77-2.2-2.78-3.69-4.36-5.3-1.61-0.51-3.32-0.58-4.95-0.99 1.02-5.43-3.58-10.99-9.22-10.17-0.03-2.86 0.18-5.72-0.06-8.56-1.05-1.59-3.25-1.14-4.84-1.45-2.1-3.5-5.65-5.75-7.97-9.05-0.33-2.12 1.05-4.2 0.54-6.26-1.56-1.89-3.34-3.58-4.68-5.63-3.27 0.08-6.55 0.3-9.8 0.05-0.28-0.27-0.83-0.81-1.1-1.07-0.26-5.26 0.06-10.53-0.08-15.79-1.97-0.35-4.59 0.68-5.93-1.23-0.27-2.58-0.07-5.17 0-7.75-1-0.79-1.99-1.57-2.98-2.34 0.8-4.08-2.6-6.49-4.56-9.54-1.75-0.15-3.49-0.29-5.21-0.52 0.14-3.11-0.34-6.28-3.28-7.97 0.02-2.91 0.13-5.81 0.03-8.71-1.66-0.02-3.3-0.04-4.94-0.05-1.65-3.27-4.83-5.3-6.91-8.19-0.06-2.78-0.68-5.44-3.22-6.97-0.39-2.88 1.16-6.62-1.38-8.73-2.13-0.31-4.28-0.15-6.41-0.14-1.5-1.62-3.17-3.06-4.86-4.46-0.54-2.82-0.13-5.72-0.11-8.56-1.64-0.46-3.3-0.82-4.92-1.29-2.13-1.9-3.81-4.23-5.8-6.24-1.95-1.06-4.53 0.29-6.29-1.02-1.04-0.71-1.89-1.78-3.15-2.07-1.24 1.09-2.29 2.38-3.33 3.66-2.28 3.32-5.06 6.42-9.29 6.94-1.9 3.56-0.45 7.96-0.87 11.87-1.75 1.52-3.36 3.18-4.9 4.89-2.03-0.12-4.51-1.57-6.16 0.23-2.24 2.12-4.24 4.48-6.3 6.78-1.54 1.28-0.84 3.37-0.89 5.09-4.11 3.53-7.63 7.76-10.89 12.07-2.19 0-4.37-0.04-6.54-0.1-1.26 1.68-2.79 3.12-4.18 4.68-0.31 1.42-0.21 2.89-0.26 4.35-2.35 2.04-4.26 4.65-7.55 5.12-2.22 1.85-4.56 3.48-7.49 3.9-0.34 2.34-0.62 4.87-2.48 6.56-1.69 1.66-1.25 4.23-1.72 6.37-2.45 0.13-4.91 0.03-7.35 0.25-1.53 0.88-1.34 2.7-1.58 4.2 1.17 0.83 2.34 1.68 3.52 2.54 0.2 2.97-2.49 4.35-4.41 6.07-1.05 1.13-2.69 0.75-4.05 0.97-2.24 2.61-4.64 5.28-4 9-2.74 2.37-5.3 5.03-9.2 5.09-0.14 2.58 0.39 5.18 0.08 7.75-1.31 1.98-3.21 3.48-4.7 5.33-2.08 0.18-4.48-0.58-6.32 0.57-3.88 3.49-8.72 5.61-13.46 7.66-1.77 1.84-3.19 4.09-5.34 5.53-2.32 0.43-4.66 0.74-7.01 0.98 0.31 4.05-2.48 6.72-5.04 9.38-2.42 0.14-4.91-0.05-6.22-2.38-1.28-0.06-2.55-0.13-3.81-0.2-0.2 4.1-1.11 8.14-0.9 12.28-2.33 1.4-5.07 1.16-7.67 1.05-4.63 4.83-9.25 9.68-13.47 14.88-1.55 3.83-0.4 8.17-0.69 12.22-1.53 0.03-3.05 0.07-4.57 0.13-1.97 2.21-4.17 4.26-5.68 6.84-3.35 0.61-6.75 0.84-10.15 0.75-1.18 1.46-2.49 2.82-3.95 4-0.05 1.47-0.1 2.94-0.14 4.42-2.83 2.34-5.09 5.24-7.62 7.88-1.21 0.03-2.41 0.08-3.6 0.15-2.21 0.14-4.41 0.34-6.61 0.52-0.28 1.75-0.56 3.5-0.82 5.26-1.05 0.92-2.11 1.85-3.13 2.81 0.05 1.61 0.09 3.22 0.06 4.85-3.19 0.27-6.41 1.09-7.85 4.27-3.42 0.47-6.84 1.05-10.3 0.85-0.01 1.47-0.04 2.96-0.07 4.45-1.78 1.38-3.29 3.05-4.88 4.64-2.12 1.32-4.73 0.78-7.1 0.92-1.87 2.19-4.48 4.17-3.94 7.4-3.18 6.86-11.98 7.54-17.14 12.48-4.51 1.41-7.54 5.01-10.32 8.6-1.56 2.63-5.23 1.78-7 4.16-1.87 2.23-5.06 1.15-7.58 1.39-1.23 1.43-2.52 2.8-3.75 4.23-0.95 4.57 1.19 10.65-3.14 13.83-2.71 2.97-5.76 5.69-7.92 9.12-5.34 0.89-10.77 0.83-16.17 0.8-1.23 1.37-2.57 2.66-3.76 4.08-0.42 1.75-0.68 3.53-0.98 5.32-2.65 0.96-5.48 0.48-8.22 0.62-1.03-0.09-2.32 0.31-3.11-0.55-0.78-0.82-1.52-1.67-2.25-2.51-4.36 2.66-10.36 4.65-11.12 10.52-0.14 0.6-0.42 1.81-0.57 2.42-2.87 0.52-5.67 1.48-7.39 4-1.34-0.03-2.68-0.04-4.01-0.04-4.08-0.91-6.77 2.48-10.14 3.9-2.93 0.07-5.84-0.52-8.77-0.23 1.46 2.03 3.2 4.03 3.63 6.58 0 1.63 0.05 3.28-0.27 4.89-1.38 1.82-3.04 3.41-4.65 5.03-6.55 0.54-13.18 0.1-19.75 0.17l-0.15 0.72c-1.27 2.82 0.89 5.03 2.5 7.12 0.55 1.61 0.27 3.36 0.34 5.04-3.2 2.19-5.58 5.28-8.07 8.18-3.56 0.05-7.18-0.43-10.69 0.24-2.67 0.44-4.1 3.58-6.93 3.39-3.31 0.09-6.63 0.04-9.94 0.07-4.69-0.08-9.39 0.02-14.08 0.08 1.19 1.73 2.36 3.47 3.25 5.39 0.08 0.83 0.26 2.49 0.35 3.32-1.69 0.97-3.57 1.48-5.51 1.48-0.72 0.94-1.47 1.87-2.23 2.79-3.38 1.07-7.63-1.05-10.53 1.15-1.58 1.71-3.08 3.51-4.57 5.3l-0.6 0.73c-4.22 0.13-8.44-0.14-12.65 0.1-1.51 0.72-2.25 2.42-3.36 3.62-2.94-0.01-5.88 0-8.82 0-1.83 2.1-4.13 3.77-7.06 3.54-1.1 2.96-3.86 3.15-6.61 2.88-1.36-2.42-3.47-4.27-5.16-6.43-3.79 0.09-7.57-0.09-11.35-0.07-1.66-0.21-2.47 1.49-3.55 2.41-0.99 1.33-2.83 0.92-4.25 1.26-0.61 1.06-1.23 2.12-1.85 3.19-1.83-0.3-2.81-1.83-3.79-3.23-4.47 0.56-6.46-3.99-9.11-6.69-1.85-1.01-4.16-0.29-6.18-0.71-2.54-2.09-4.3-4.97-6.52-7.37-0.95 1.18-1.82 2.42-2.6 3.73-1.73-0.17-3.97 0.59-5.08-1.19-0.22-8.46 0.03-16.93-0.09-25.39-1-0.55-1.99-1.08-2.98-1.61-0.05-1.79-0.12-3.57-0.24-5.34-0.7-0.22-2.11-0.66-2.81-0.88-0.12-3.45-0.13-6.91-0.08-10.36 2.91 0.03 5.83 0.03 8.74-0.02 0.39 2.29-0.61 6.19 2.38 6.96 1.58 0.57 4.06-0.25 4.01-2.16 0.1-8.16 0.01-16.33-0.01-24.49 1.7-1.09 3.13-2.49 4.18-4.2 1.59-0.08 3.19-0.14 4.78-0.2 0.05-0.79 0.16-2.38 0.21-3.17-1.92-0.63-3.91-0.98-5.88-1.37 0.06-2.99-1.47-6.93 0.88-9.24 2.4-0.2 4.81-0.09 7.22-0.07 2.19 3.69 7.88 4.42 10.77 1.21 1.57-1.55 3.97-1.42 5.91-2.27-0.03-3.91-0.23-7.83 0-11.73 1.9-2.38 5.52-0.78 8.18-1.24 0.78 1.3 1.65 2.54 2.58 3.75 0.92-1.19 1.8-2.4 2.59-3.66 1.4-0.06 2.79-0.12 4.19-0.17 0.81-1.3 1.62-2.59 2.45-3.87 2.26 0.04 4.52 0.05 6.79 0.1 0.78-1.07 1.56-2.13 2.36-3.17 1.34 0.02 2.69 0.04 4.03 0.06 1.49 2.7 3.92 4.68 5.73 7.16 4.01 0.7 5.21-3.74 7.93-5.69-0.76-3.32-1.21-6.77-0.66-10.15 2.23-2.57 4.51-5.94 8.36-5.57 1.54-4.22 6.36-2.5 9.82-2.77 1.56 2.31 3.49 4.32 5.3 6.44 1.01 0.06 2.02 0.13 3.03 0.22 1.86-2.18 3.94-4.19 5.52-6.59 1.55-0.08 3.11-0.14 4.67-0.19 0.71-2 0.78-4.11 0.8-6.2 1.02-0.66 2.05-1.31 3.07-1.97 0.21-1.69-0.18-3.54 0.58-5.09 2.28-2.56 4.83-4.88 6.88-7.63 1.35 0 2.7 0 4.05 0.02 1.49 2.64 3.74 4.72 5.73 6.99 0.7 0.02 2.1 0.08 2.8 0.11 1.46-2.5 3.61-4.42 6.63-4.49 3.25-2.86 5.81-6.39 8.69-9.6 3.21-0.01 6.42 0.02 9.63 0.02 4.65-5.21 8.91-10.79 14.09-15.49-0.24-1.13-0.48-2.25-0.71-3.36 1.75-1.68 3.39-3.47 4.87-5.38 2.69-0.19 5.06 0.52 6.11 3.23 2.16 0.05 4.34 0.16 6.51 0.01 1.33-0.47 1.63-2.1 2.51-3.07 2.69 0.03 5.38 0.06 8.08 0.02 0.14-2.32-1.48-3.62-3.3-4.63-0.96-4.12 2.5-6.82 5.17-9.3 4.74-0.19 9.49 0.09 14.23-0.09-0.55-1.88-2-3.17-3.44-4.36-0.02-1.54-0.03-3.07-0.07-4.6 2.77-2.36 4.84-5.38 7.34-8.01 3.18-0.04 6.36 0 9.55 0 1.53-1.95 3.24-3.75 5.07-5.41-0.28-1.19-0.57-2.37-0.84-3.55 1.51-1.53 3.46-2.13 5.57-2.17 0.97-1.36 1.76-3.1 3.67-3.16 0.72 2.64 2.86 4.2 5.62 3.76 2.36-3.52 5.21-7.87 10.05-7.43 0.06-1.64 0.11-3.27 0.17-4.89 1.69-1.5 3.3-3.11 4.38-5.11 2.37-0.04 4.75-0.02 7.12-0.09 2-3.13 4.85-5.56 7.18-8.42 0.48-2.49 0.16-5.05 0.17-7.56 1.77-1.33 3.16-3.05 4.32-4.92 2.14 0 4.29 0.13 6.44-0.04 1.37-0.38 1.64-2.09 2.52-3.04 2.4-0.05 4.89 0.34 7.24-0.28 0.91-1.21 1.76-2.45 2.67-3.66 3.25 0.11 6.5 0.19 9.76 0.22 1.96-2.86 4.32-5.41 6.9-7.72 0.23-1.63-0.07-3.41 0.66-4.92 4.42-4.76 8.99-9.44 13-14.54 1.36-0.09 2.74-0.17 4.12-0.25 0.79-1.27 1.61-2.51 2.49-3.72 1.53-0.12 3.06-0.28 4.59-0.46 0.19-1.79 0.33-3.58 0.44-5.37 3.8-2.13 5.17-7.5 9.78-8.25 3.53-1.14 5.92-4.79 5.26-8.56 1.2-0.78 2.35-1.65 3.46-2.56-1.53-1.36-3.86-2.21-3.83-4.58 1.82-1.07 3.46-2.4 4.74-4.09 3.32-0.62 6.76-0.11 10.14-0.27 1.49-2.5 3.18-5.01 5.63-6.66 1.59-0.45 3.22-0.81 4.8-1.35-0.12-3.89-0.06-7.79-0.08-11.69 2.37-1.45 3.66-4.57 6.75-4.54 1.99-0.19 2.81-2.26 3.74-3.73 2.9-0.03 6.02 0.51 8.62-1.15-0.37-1.27-0.76-2.53-1.12-3.79 1.72-1.9 4.18-2.32 6.62-2.58 0.23-1.8 0.36-3.61 0.43-5.41 0.94-0.56 1.9-1.1 2.88-1.62 0.04-1.86 0.06-3.72 0.11-5.57 2.46-0.86 5.07-0.72 7.65-0.88 1.42-0.25 1.64-2.06 2.52-2.99 1.6-0.03 3.21-0.06 4.84-0.1 0.01-3.9 0.01-7.79-0.03-11.69 1.22-1.22 2.45-2.43 3.7-3.62-0.25-1.18-0.52-2.36-0.76-3.53 1.9-2.3 5.28-1.71 7.2-3.92 1.09-1.41 2.96-1.16 4.53-1.43 1.23-2.78 3.76-4.27 6.8-3.94 0.52-0.95 1.06-1.89 1.62-2.81 1.43-0.02 2.86-0.06 4.3-0.1 0.86-2.81 3.4-3.91 6.09-4.22 2.84-2.34 4.76-5.56 7.5-8-0.06-2.83-1.4-6.38 1.19-8.5 2.83-2.37 4.49-5.94 7.69-7.81 0.06-1.82 0.1-3.64 0.15-5.46 3.52-1.26 7.28-0.48 10.92-0.47 3.03-3.48 6.05-6.97 9.06-10.46 2.56-0.32 6.04 1.09 7.82-1.37 0.43-5.15-0.06-10.34 0.24-15.5 2.49-0.13 4.99-0.14 7.5-0.22 1.81-2.23 3.83-4.52 7-4.14 2.26-2.89 4.68-5.67 7.34-8.21-0.56-2.03-1.23-4.13-0.8-6.25 0.85-1.6 2.35-2.63 3.75-3.7-0.48-1.82-0.52-3.69 0.33-5.42 2.47-0.18 4.94-0.17 7.42-0.25 1.19-2.4 3.47-3.32 6.06-3.15 1.89-3.14 4.92-5.31 7.11-8.22 0.46-2.75 0.15-5.56 0.33-8.34 1.91-0.7 3.91-1.11 5.93-1.45 0.05-1.83 0.06-3.67 0.15-5.49 2.58-1.49 5.61-1.1 8.47-1.2 0.94 1.22 1.81 2.48 2.62 3.79 1.4 0.07 2.8 0.12 4.22 0.18 0.72 1.14 1.47 2.28 2.29 3.38 1.95-0.18 3.91-0.3 5.88-0.43 1.16 1.46 2.24 2.99 3.32 4.52 1.13-1.43 2.14-2.94 3.16-4.45 3.54 0.39 7.22-0.33 10.66 0.8 0.03 1.98 0.1 3.96 0.23 5.93 0.73 0.08 2.17 0.23 2.9 0.31 0.02-2.08 0.03-4.16 0.06-6.24 1.49-0.41 3.01-0.71 4.55-0.95 1.03 1.22 2.03 2.47 2.95 3.79 1.36 0.14 2.72 0.27 4.1 0.38 4.39 5.37 9.1 10.57 14.2 15.29-0.25 1.18-0.53 2.35-0.81 3.52 1.21 1.13 2.43 2.25 3.68 3.35-0.01 1.47-0.01 2.93 0.01 4.4 0.96 0.66 1.93 1.31 2.92 1.96-0.02 1.38-0.09 2.77 0.02 4.16 1.78 3.05 4.96 5.01 6.73 8.11 1.69 0.16 3.4 0.31 5.11 0.53 0.56 3.02-0.14 6.17 0.57 9.15 1.71 2.04 3.64 3.89 5.73 5.55-0.01 3.09-0.45 6.34 1 9.23 2.27-0.04 4.56-0.13 6.84-0.23 1.72 2.32 3.52 4.62 5.67 6.57 1.78 0.47 3.61 0.8 5.36 1.43 0.14 3.96 0.11 7.91-0.03 11.87 1.99 1.38 2.99 4.48 5.72 4.47 2.94 0.04 4.27 3.21 6.42 4.76-0.28 4.9 0.54 9.74 0.7 14.63 2.6 1.36 3.21 4.03 3.61 6.69 2.81 4.18 6.28 7.89 9.5 11.77 2.94 1.08 6.23 0.03 9.32 0.18 1.41 1.76 2.85 3.53 4.79 4.77-0.69 4.43 2.84 7.72 6.09 10.11 0.03 2.74-0.03 5.49 0.04 8.24 1.16 1.04 3.04 1.68 3 3.54 0.07 3.23 2.77 5.19 4.4 7.7 4.02-0.56 5.81 3.21 8.42 5.45-0.51 2.89 0.63 5.44 3.09 7.02-0.01 2.43-0.05 4.85 0 7.28 4.05 1.6 3.41 6.19 3.97 9.72 5.44 7.37 11.56 14.25 17.61 21.11 0.47 2.51 0.15 5.09 0.29 7.63 2.72 0.44 5.53 1.14 6.72 3.93 1.69 0.15 3.39 0.34 5.1 0.63 0.31 1.93-0.02 4.03 0.79 5.86 1.31 1.52 2.66 3.01 3.95 4.57 2.2 0.02 4.42 0.01 6.64-0.01 1.19 1.52 2.51 2.94 3.96 4.24 0.01 2.04 0.01 4.09 0.08 6.14 1.44-0.25 2.62-1.08 3.36-2.36 2.28-3.54 6.97-5.99 5.93-10.85 0.98-0.74 1.99-1.47 3-2.2-0.07-2.63-0.09-5.26-0.12-7.88 0.97-0.84 1.96-1.67 2.95-2.5 0.04-1.5 0.07-3 0.11-4.49 0.99-0.8 2.01-1.57 3.02-2.35-0.06-3.82 0-7.64-0.04-11.46 4.17-3.25 7.3-7.63 11.03-11.38 1.79-1.38 1.04-3.8 1.08-5.72 1.23-0.88 2.51-1.71 3.77-2.57-0.26-1.19-0.54-2.38-0.81-3.55 3.28-3.46 6.51-6.97 9.63-10.58 0.35-1.41 0.28-2.88 0.39-4.31 4.12-2.13 2.75-6.98 2.9-10.75 0.98-0.57 1.98-1.14 2.97-1.72 0.01-1.5 0.04-2.99 0.08-4.47 0.96-1.14 2.68-1.92 2.9-3.52 0.22-3.54 0.04-7.09 0-10.63 0.98-0.57 1.98-1.12 3.01-1.65 0.03-1.78 0.04-3.57 0.05-5.35 0.94-0.55 1.91-1.09 2.9-1.61 0.07-1.71 0.14-3.42 0.26-5.11 1.06-0.89 2.5-1.48 3.16-2.77 0.03-2.13-0.46-4.25-0.26-6.37 0.51-1.81 2.31-2.59 3.68-3.66-0.23-1.16-0.48-2.3-0.7-3.45 2.3-2.42 4.7-4.78 6.72-7.45 0.26-1.42 0.2-2.88 0.26-4.32 0.98-0.54 1.97-1.09 2.96-1.65-0.01-2.81-0.05-5.62 0-8.42 3.46-2.36 5.61-6.11 8.87-8.72 0.09-1.82 0.16-3.64 0.29-5.45 1.84-0.57 3.74-0.9 5.66-1.17 0.42-1.96-0.61-4.73 1.54-5.88 1.98-0.5 4.07-0.82 5.66-2.26-0.61-2.09-1.33-4.24-0.91-6.44 1.11-1.41 2.46-2.6 3.8-3.81-0.21-1.13-0.41-2.25-0.58-3.37 2.44-2.02 4.29-4.57 3.77-7.92 3.33-2.49 5.37-6.3 8.78-8.72 0.06-1.71 0.11-3.42 0.15-5.12 0.97-0.57 1.95-1.14 2.93-1.73 0-1.51 0.02-3.02 0.06-4.53 2.56-1.55 3.39-4.18 3.04-7.06 0.96-0.77 1.94-1.52 2.93-2.28-0.02-1.53 0-3.06 0.04-4.58 2.96-2.6 7.22-5.52 6.08-10.03 3.54-3 5.97-7.16 9.78-9.84-0.1-1.57-0.21-3.14-0.24-4.7 1.09-0.67 2.18-1.34 3.29-2.01-0.1-1.57-0.18-3.13-0.23-4.68 3.1-2.3 5.25-5.59 8.01-8.26 1.78-1.34 1.11-3.75 1.31-5.67 2.1-1.68 3.74-3.84 5.81-5.57 0.1-1.73 0.17-3.45 0.25-5.18 0.92-0.58 1.85-1.16 2.81-1.73 0.05-1.84 0.11-3.67 0.25-5.49 1.98-0.57 4.03-0.87 6.1-1.09-0.06-1.59-0.14-3.18-0.2-4.77 1.09-0.98 2.19-1.96 3.31-2.93-0.13-1.35-0.26-2.7-0.35-4.05 2.06-1.35 3.91-2.99 5.15-5.16 1.49-0.15 2.98-0.31 4.49-0.51 0.47-2.14-0.54-5.07 1.61-6.47 1.37-0.23 2.79-0.22 4.21-0.27 0.5-0.94 1.03-1.87 1.59-2.79 4.35 0.86 6.41-3.41 8.95-6.06 7.34-8.36 14.94-16.49 22.2-24.92 1.48-0.14 2.96-0.29 4.46-0.46 0.17-1.81 0.28-3.61 0.39-5.42 5.01-4.49 9.44-9.67 13.5-15.03 1.33-0.13 2.67-0.25 4.04-0.35 2.51-2.91 5.03-5.81 7.58-8.7 1.1-1.62 3.23-1.37 4.87-2.05z"/>
  <path d="m746.36 274.21c2.88-0.03 5.87-0.31 8.6 0.82-0.14 2.12 0.3 4.36-0.36 6.42-2.74 2.31-4.95 5.16-7.47 7.68-2.13 0.7-4.47 0.5-6.67 0.35-2.32-0.8-2.57-3.91-2.04-5.95 2.45-3.27 5.77-5.82 7.94-9.32z"/>
  <path d="m824.78 282.1c1.33-0.59 2.74-0.96 4.22-0.92l-0.19 1.16c0.02 0.62 0.07 1.86 0.09 2.48l0.27 1.11c-0.74-0.04-2.2-0.12-2.94-0.16-1.49-0.46-0.97-2.52-1.45-3.67z"/>
  <path d="m2246.7 508.96c0.82-1.92 2.19 0.7 1.27 1.67l-0.85 0.04c-0.11-0.43-0.31-1.28-0.42-1.71z"/>
  <path d="m2248.1 511.55c0.25 2.86 0.51 5.72 0.76 8.6-0.63-2.83-0.63-5.74-0.76-8.6z"/>
  <path d="m2245.9 517c-0.33-1.07-0.13-2.03 0.6-2.89 1.13 1.26 0.93 2.22-0.6 2.89z"/>
  <path d="m2455.3 517.78c0.04-0.13 0.14-0.38 0.19-0.5-0.05 0.12-0.15 0.37-0.19 0.5z"/>
  <path d="m2457.4 520.93c-1.2-1.3-0.99-2.23 0.65-2.8 0.24 1.03 0.03 1.97-0.65 2.8z"/>
  <path d="m2244.9 522.78c-0.33-1.32 0.06-2.6 0.75-3.72 1.12 0.81 0.92 3.81-0.75 3.72z"/>
  <path d="m2249.1 522.77c0.3 3.12 0.51 6.25 0.76 9.39-0.7-3.08-0.64-6.26-0.76-9.39z"/>
  <path d="m2456.3 528.94c-1.09-1.15-1.05-4.5 0.81-4.66 0.27 1.61-0.15 3.2-0.81 4.66z"/>
  <path d="m2243.9 529.89c-0.31-1.04-0.11-1.98 0.6-2.8 1.18 1.27 0.98 2.2-0.6 2.8z"/>
  <path d="m2449.9 530.91c0.21-0.48 0.61-1.45 0.81-1.93l0.5 0.76-0.42 0.99z"/>
  <path d="m2455.5 533.9c-1.21-1.26-1.02-2.23 0.58-2.9 0.26 1.05 0.07 2.02-0.58 2.9z"/>
  <path d="m2447.9 535.91c0.21-0.48 0.62-1.44 0.82-1.93l0.49 0.76-0.42 0.99z"/>
  <path d="m2250.1 534.77c0.31 3.12 0.49 6.25 0.72 9.38-0.64-3.08-0.6-6.25-0.72-9.38z"/>
  <path d="m2454.5 540.89c-1.34-0.75-1.06-3.72 0.65-3.68 0.24 1.27-0.02 2.56-0.65 3.68z"/>
  <path d="m2241.9 542.79c-0.33-1.58 0.07-3.13 0.73-4.56 1.06 1.04 1.14 4.55-0.73 4.56z"/>
  <path d="m2445.9 540.92c0.2-0.48 0.61-1.44 0.81-1.93l0.5 0.77-0.42 0.99z"/>
  <path d="m2453.5 546.92c-1.21-1.28-1.01-2.24 0.6-2.85 0.26 1.04 0.06 2-0.6 2.85z"/>
  <path d="m2240.9 549c-0.31-1.07-0.1-2.04 0.63-2.9 1.11 1.27 0.91 2.24-0.63 2.9z"/>
  <path d="m2251.5 549.22c0.57 1.76 0.91 3.62 0.64 5.49-2.02-0.2-1.74-4.22-0.64-5.49z"/>
  <path d="m2452.4 554.77c-1.14-1.05-1.17-4.53 0.75-4.54 0.26 1.56-0.13 3.11-0.75 4.54z"/>
  <path d="m2239.9 555.81c-0.33-1.64 0.12-3.24 0.79-4.72 0.94 1.14 1.08 4.61-0.79 4.72z"/>
  <path d="m2238.9 561.88c-0.31-1.05-0.1-1.99 0.63-2.82 1.14 1.29 0.93 2.23-0.63 2.82z"/>
  <path d="m2436.9 563.89c0.21-0.48 0.62-1.44 0.83-1.91l0.48 0.76-0.42 0.98z"/>
  <path d="m2434.9 568.89c0.21-0.48 0.64-1.44 0.85-1.92l0.48 0.77-0.44 0.98z"/>
  <path d="m2236.9 574.93c-0.32-1.04-0.12-1.99 0.57-2.83 1.18 1.27 0.99 2.21-0.57 2.83z"/>
  <path d="m2432.9 573.89c0.21-0.48 0.64-1.44 0.85-1.92l0.48 0.77-0.44 0.98z"/>
  <path d="m2430.9 578.92c0.2-0.48 0.61-1.45 0.82-1.93l0.49 0.76-0.42 0.99z"/>
  <path d="m2235.9 581.75c-0.3-1.27-0.03-2.55 0.66-3.63 1.27 0.69 1 3.72-0.66 3.63z"/>
  <path d="m2428.9 583.91c0.21-0.48 0.62-1.44 0.83-1.92l0.49 0.76-0.43 0.99z"/>
  <path d="m2411.9 626.92c0.2-0.48 0.61-1.44 0.81-1.93l0.5 0.76-0.42 0.99z"/>
  <path d="m2331.9 629.27c1.89-0.04 1.78 3.54 0.6 4.49-0.6-1.43-0.92-2.96-0.6-4.49z"/>
  <path d="m2409.9 631.91c0.21-0.49 0.62-1.45 0.83-1.93l0.49 0.77-0.43 0.99z"/>
  <path d="m2334.2 636.37 0.87-0.23c-0.17 0.5-0.51 1.5-0.68 1.99l-0.53-0.74z"/>
  <path d="m582.54 660.75c1.34 1.32 1.91 3.59 3.69 4.33 6.12 0.19 12.26 0.05 18.4 0.01 0.73-1.52 1.55-2.99 2.4-4.44 1.82 1.93 3.5 4.01 5.6 5.67-1.1 1.79-2.63 3.22-4.07 4.73 1.86 0.85 3.9 1.18 5.95 1.2 0.56 1.01 1.13 2.02 1.72 3.04 2.73 0.41 5.16-0.42 6.11-3.19 2.44 0.05 4.88 0.05 7.33 0 0.58 0.92 1.17 1.85 1.79 2.77 2.33 0.68 4.83 0.24 7.23 0.29 1.07 1.73 2.17 3.52 4.08 4.46 0 2.36 0.11 4.79 1.31 6.92 2.28-2.31 3.74-5.35 6.06-7.58 0.35 0.07 1.05 0.2 1.41 0.27 2.33 2.8 4.7 5.58 7.16 8.28 0.22 1.34 0.2 2.71 0.09 4.08-1.22 1.93-3.76 1.04-5.64 1.38-0.54 1.36-1.07 2.73-1.59 4.11 1.32 1.47 2.71 2.89 4.13 4.29-0.32 2.1-0.22 4.2 1.38 5.81 1.86-0.35 3.74-0.7 5.62-1.01 1.21 1.23 2.34 2.56 3.66 3.7 3.43 0.68 6.98 0.14 10.46 0.27 1.55 3.17 0.53 6.87-2.93 8.16-0.04 1.56-0.08 3.12-0.13 4.7 1.71 1.02 3.72 1.14 5.67 1.31 1.17 1.89 2.83 3.38 4.35 4.99-0.15 2.1-0.18 4.21-0.06 6.32-2.8 2.09-3.87 5.24-3.02 8.65 2.31 0.01 4.64 0.02 6.98-0.02 1.6 1.82 3.28 3.59 5.13 5.18 0 1.34-0.01 2.7 0 4.07-2.23 1.57-3.5 3.83-3.35 6.6 1.07 0.78 2.16 1.56 3.25 2.36 0.22 3.72-0.38 7.54 0.32 11.22 5.09 5.42 9.66 11.3 14.63 16.83 1.08 2.98-0.26 5.77-2.25 7.96 0.16 4.67 0.32 9.38 0.26 14.09-1.2 1.14-2.38 2.3-3.56 3.47 0.22 1.16 0.44 2.34 0.65 3.53-4.11 2.55-6.5 6.97-10.22 10.02 1.32 1.11 3.37 1.83 3.68 3.77 0.21 3.62 0.53 8.17-3.49 9.88-0.02 7.37 0.01 14.74 0 22.12-1.03 0.56-2.04 1.13-3.03 1.73 0.01 1.52 0.01 3.04 0.03 4.57-1.19 0.77-2.4 1.52-3.57 2.31 2.21 2.99 7.35 4.58 6.61 8.98-0.07 9.26-0.04 18.53-0.02 27.8-3.03-0.06-6.06-0.08-9.08-0.04-0.03 1.73-0.05 3.49-0.06 5.25 1.03 0.55 2.07 1.11 3.13 1.67-0.07 3.24-0.07 6.48-0.02 9.73-1.09 0.57-2.17 1.15-3.23 1.76-0.52 2.83 1.34 4.55 3.11 6.38 0.3 4.03-0.02 8.09 0.14 12.14-1.05 0.73-2.11 1.46-3.15 2.22 0.08 2.92 0.12 5.85 0.03 8.78-2.38 1.18-4.95 0.81-7.39 0.1-0.45 0.46-1.34 1.37-1.78 1.83 0.06 1.35 0.14 2.71 0.23 4.09-1.18 0.87-2.37 1.74-3.53 2.65 0.25 2.18 0.35 4.39-0.15 6.56 1.21 1.19 2.43 2.37 3.67 3.56-0.06 2.98-0.02 5.98-0.2 8.97-1.72 0.18-3.46 0.2-5.14 0.57-1.52 1.34-2.96 2.81-4.24 4.4-0.54 1.6-0.33 3.33-0.43 5-1 0.56-2 1.14-2.97 1.75 0.06 3.86 0 7.74 0.09 11.61-1.71 1.37-3.08 3.07-4.19 4.95-2.65-0.07-5.29-0.09-7.93-0.04-0.04 1.87-0.05 3.76-0.04 5.66-0.99 0.58-1.97 1.19-2.93 1.82-0.04 1.45 0.02 2.93-0.21 4.39-1.5 1.8-3.1 3.54-4.87 5.08-2.29 0.21-4.59 0.04-6.86-0.02-0.99 3.09-0.67 6.88-3.98 8.62-0.02 1.47-0.04 2.95-0.05 4.44-1.05 0.71-2.1 1.42-3.13 2.16 0.12 2.58 0.16 5.18 0.13 7.78-3.42 2.77-5.82 6.52-9.12 9.4 0.03 1.52 0.04 3.06 0.06 4.6-1.66 1.09-3.04 2.5-4.12 4.17-4.45-0.03-8.91-0.01-13.35 0-1.01 1.57-2.03 3.14-3.18 4.63-1.17-1.55-2.2-3.18-3.2-4.8-0.64 0.1-1.92 0.31-2.56 0.41-3.18 3.57-6.22 7.27-9.6 10.67-2.19-0.03-4.38-0.04-6.56-0.05-0.6 1.01-1.18 2.04-1.74 3.08-1.43 0-2.85 0.02-4.26 0.07-0.8 1.3-1.57 2.62-2.37 3.94-2.65-0.2-5.39 0.26-7.98-0.39-0.81-2.09-0.36-4.41-0.47-6.58-1.52-0.09-3.03-0.16-4.54-0.22-1.93 2.47-4.14 4.71-6.08 7.19-2.77-0.08-5.73 0.33-8.19-1.22-0.07-1.92-0.11-3.85-0.16-5.75-1.55-0.08-3.08-0.13-4.61-0.19-0.78-1.37-1.59-2.72-2.4-4.04-1.04 1.35-2.05 2.73-2.98 4.17-1.31 0-2.61 0.02-3.91 0.07-5.31-7.59-12.33-13.8-18.07-21.05-1.35-1.39-2.5-3.17-4.41-3.81-3.11-0.27-6.24 0.09-9.34-0.34-0.23-2.08-0.34-4.16-0.71-6.2-1.49-0.26-2.98-0.43-4.44-0.75-1.31-1.41-2.57-2.87-3.97-4.17-0.61-2.07-0.11-4.28-0.28-6.38 0.21-2.07-1.86-3.15-3.01-4.49 0.02-3.79-0.02-7.57 0.04-11.35-1.05-0.61-2.1-1.19-3.15-1.74 0.03-1.63-0.04-3.27 0.22-4.86 1.05-0.9 2.15-1.71 3.22-2.55-0.36-0.57-1.1-1.7-1.46-2.27-3.66 0.05-7.31 0.05-10.95 0.07-0.71-2.73-0.62-5.57-0.5-8.34 2.13-3.02 5.24-5.26 7.01-8.55-1.17-2.5-4.11-4.15-4.19-7.07 0.14-2.53-2.09-4.03-3.48-5.8-2.94-3.09-5.1-6.94-8.62-9.43-0.22-1.62 0.36-3.59-0.9-4.87-2.7-3.05-5.34-6.16-8.29-8.96 0.08-3.82 0.06-7.63 0.02-11.44 2.95-1 4.11-4.3 2.63-6.95-3.96-4.17-7.96-8.33-11.61-12.74-0.1-4.83-0.1-9.66 0-14.48 1.05-1.87 2.98-3.12 4.15-4.95 1.68-0.03 3.36-0.06 5.05-0.1-0.38-4.13-5.03-6.67-8.89-6.77-0.49-1.93-1.38-4.09-0.14-5.92 1.24-1.54 2.7-2.88 4.06-4.3 1.07-0.04 2.15-0.07 3.23-0.08 1.02 1.73 2.12 3.94 4.57 3.3 0.04-3.01-0.04-6.01-0.02-9 1.73-1.59 3.39-3.26 5.03-4.93 1.54 0.26 3.87 0.62 4.21-1.48-0.18-5.09-0.11-10.18-0.12-15.27-2.64-0.1-5.28 0-7.92 0.03-0.87-1.26-1.7-2.53-2.55-3.78-1.56-0.08-3.12-0.15-4.68-0.22-0.04-4.46 0.05-8.92-0.04-13.37 0.76-0.13 2.28-0.38 3.03-0.5 0.02-1.85 0.03-3.68 0.06-5.5 3.39-2.82 5.91-6.48 9.19-9.4 0.54-2.98-0.69-5.46-3.58-6.5 0.36-1.78 1.85-2.77 3.21-3.78 0.13-1.74 0.25-3.47 0.46-5.19 1.68-0.24 3.36-0.4 5.05-0.57 1.14-2 2.85-3.55 4.34-5.27-0.16-5.06-1.77-10.5 0.4-15.36 1.47-0.08 2.95-0.16 4.43-0.23 1.77-2.39 4.17-4.26 5.62-6.89 2.18 0.03 4.37 0.15 6.56-0.01 2.63-2.15 4.59-5.14 4.58-8.65 2.11-1.86 3.23-4.3 2.84-7.14 3.64-3.05 6.55-6.85 10.02-10.09-1.38-0.86-2.77-1.67-4.14-2.51 0.09-3.17-0.45-6.51 1.04-9.44 1.96-0.27 4.46 0.37 5.74-1.56-0.05-1.24-0.16-2.47-0.33-3.68 0.44-0.48 1.3-1.44 1.74-1.92 1.11-0.02 2.24-0.03 3.37-0.04 0.84 1.32 1.63 2.67 2.47 4.02 2.21-0.03 4.42-0.03 6.64-0.01 0.84-1.3 1.67-2.59 2.48-3.89 1.41-0.06 2.84-0.12 4.26-0.18 0.54-1.01 1.09-2 1.67-2.97 4.45 0.1 8.91 0.07 13.37 0.03 0.95 1.33 1.83 2.77 3.31 3.62 1.39-2.87 5.22-4.89 4.22-8.51 0-1.58-2.1-1.8-3.03-2.71 0.03-6.39 0.03-12.79-0.01-19.17 1.02-0.81 2.05-1.6 3.09-2.39-0.07-3.6-0.07-7.2-0.03-10.8-1.02-0.6-2.03-1.17-3.04-1.73-0.01-2.02-0.02-4.03-0.01-6.03 1.74-1.15 3.18-2.62 4.33-4.35 1.29 0.04 2.6 0.03 3.88 0.27 1.35 1.79 2.79 3.5 4.44 5.03 0.03 1.62 0.05 3.25 0.09 4.9 1.97-0.28 4.93 0.92 5.92-1.45-0.57-4.7-1.02-9.53-0.28-14.21 2.19-2.24 4.52-4.39 6.42-6.91 0.12-2.09-0.91-4.1-0.59-6.18 1.44-1.75 3.1-3.3 4.31-5.23 1.39-0.1 2.79-0.19 4.2-0.26 0.88-1.44 1.75-2.88 2.7-4.27m3.15 153.85c-1.36-0.01-2.72-0.01-4.06 0.01-0.02 1.66-0.01 3.34-0.01 5.01-3.36 3.01-6.29 6.45-9.53 9.58 0.16 1.39 0.34 2.78 0.52 4.19-1.29 0.95-2.59 1.87-3.88 2.82 0.23 1.21 0.48 2.43 0.74 3.65-1.81 1.69-3.48 3.53-4.85 5.6-4.64-0.79-6.8 3.87-9.6 6.63-2.58 2.44-0.97 6.33-1.34 9.46-2.82 1.97-4.97 4.69-7.2 7.27 0.49 0.68 1.46 2.05 1.94 2.73l0.89-0.12c0.61 1.68 4.19 1.49 5.43 0.29 1.68 1.51 3.24 3.16 5.01 4.59-0.26 2.35 0.89 5.47-1.4 7.09-1.06 0.98-1.92 2.14-2.78 3.3-2.29-0.02-4.57-0.05-6.84-0.15-1.41 1.92-2.88 3.81-4.57 5.5 0.6 3.14 0.43 6.34 0.46 9.52-1.35 1.44-2.74 2.89-3.47 4.78 2.55 0.03 5.12 0 7.68-0.02 0.89-1.32 1.79-2.62 2.74-3.88 3.21 0.01 6.41 0.15 9.62 0.27 0.9 1.2 1.75 2.43 2.62 3.67 8.94-0.25 17.9 0.07 26.84-0.2-1.35-1.64-2.93-3.06-4.17-4.77-1.22-4 3.35-5.98 4.84-9.1 1.62-0.03 3.26-0.06 4.9-0.07 0.02-1.95 0.04-3.89 0.06-5.82 1.66-1.08 3.05-2.47 4.11-4.14 1.63-0.04 3.25-0.06 4.89-0.06 0.03-2.79 0.03-5.57 0.12-8.35-2.17-1.63-3.85-3.8-6.11-5.3-0.02-1.96-0.03-3.93-0.04-5.87-2.88-0.53-6.72 1.19-8.94-1.1-0.28-3.43-0.04-6.86-0.06-10.28 1.5-0.05 3.02-0.1 4.54-0.13 2.58-2.67 4.77-5.71 7.57-8.16-0.04-1.58-0.06-3.13-0.1-4.68 1.06-0.77 2.14-1.49 3.21-2.24-0.1-1.63-0.15-3.24-0.22-4.85 0.98-0.55 1.97-1.08 2.97-1.6-0.83-3.78 2.03-6.12 4.23-8.66-0.41-1.33-0.89-2.62-1.43-3.87-1.45 1.35-2.42 3.1-3.49 4.75-1.09-1.26-2.09-2.6-2.95-4.02-1.36-0.13-2.72-0.24-4.07-0.32-1.15-1.84-2.84-3.24-4.1-4.95-0.17-1.65-0.11-3.31-0.12-4.95-1.52-0.05-3.03-0.1-4.53-0.13-1.7 2.62-4.08 4.69-6.07 7.08z"/>
  <path d="m1596.9 672.75c-0.3-1.57 0.1-3.1 0.75-4.52 1.08 1.02 1.15 4.59-0.75 4.52z"/>
  <path d="m2392.9 674.92c0.2-0.48 0.61-1.44 0.81-1.92l0.5 0.76-0.42 0.99z"/>
  <path d="m2390.9 679.92c0.2-0.49 0.61-1.45 0.81-1.93l0.5 0.76-0.42 0.99z"/>
  <path d="m2219.9 684.89c-0.3-1.04-0.11-1.97 0.59-2.8 1.18 1.26 0.99 2.2-0.59 2.8z"/>
  <path d="m2388.9 684.92c0.21-0.48 0.63-1.44 0.84-1.92l0.49 0.77-0.43 0.99z"/>
  <path d="m2517.9 688.75c-0.32-1.57 0.09-3.1 0.75-4.52 1.06 1.02 1.13 4.59-0.75 4.52z"/>
  <path d="m2695.9 688.88c-0.31-1.04-0.1-1.97 0.61-2.79 1.16 1.28 0.96 2.21-0.61 2.79z"/>
  <path d="m2217.9 697.89c-0.29-1.04-0.09-1.97 0.6-2.8 1.18 1.27 0.99 2.21-0.6 2.8z"/>
  <path d="m2693.9 701.88c-0.31-1.04-0.11-1.97 0.6-2.79 1.17 1.28 0.97 2.21-0.6 2.79z"/>
  <path d="m2514.9 707.88c-0.31-1.03-0.11-1.96 0.6-2.79 1.17 1.28 0.97 2.21-0.6 2.79z"/>
  <path d="m2215.9 710.75c-0.31-1.57 0.09-3.1 0.75-4.52 1.07 1.02 1.14 4.59-0.75 4.52z"/>
  <path d="m2691.9 714.88c-0.31-1.03-0.11-1.97 0.59-2.8 1.18 1.27 0.98 2.2-0.59 2.8z"/>
  <path d="m2512.9 720.88c-0.31-1.04-0.1-1.97 0.61-2.79 1.17 1.27 0.96 2.21-0.61 2.79z"/>
  <path d="m2373.9 722.92c0.21-0.48 0.62-1.44 0.83-1.92l0.49 0.76-0.43 0.98z"/>
  <path d="m2689.9 727.75c-0.32-1.57 0.09-3.11 0.74-4.52 1.07 1.02 1.14 4.59-0.74 4.52z"/>
  <path d="m1967.4 725.22c0.97 1.27 0.94 2.93 0.72 4.45-1.82 0-1.76-3.43-0.72-4.45z"/>
  <path d="m2371.9 727.92c0.2-0.48 0.61-1.45 0.81-1.93l0.5 0.76-0.42 0.99z"/>
  <path d="m2212.9 729.88c-0.3-1.04-0.1-1.97 0.6-2.79 1.18 1.27 0.98 2.2-0.6 2.79z"/>
  <path d="m1843.9 730.25c0.18-0.52 0.54-1.56 0.72-2.07l0.51 0.71c-0.31 0.34-0.92 1.02-1.23 1.36z"/>
  <path d="m1843.6 731.49c0.04-0.12 0.12-0.36 0.17-0.48-0.05 0.12-0.13 0.36-0.17 0.48z"/>
  <path d="m2369.9 732.92c0.21-0.48 0.63-1.44 0.84-1.92l0.49 0.77-0.43 0.98z"/>
  <path d="m2510.9 733.88c-0.31-1.04-0.1-1.97 0.61-2.79 1.16 1.27 0.96 2.21-0.61 2.79z"/>
  <path d="m3034.9 738.76c-0.31-1.58 0.11-3.12 0.73-4.55 1.08 1.01 1.16 4.6-0.73 4.55z"/>
  <path d="m1840.8 737.27c0.18-0.52 0.56-1.55 0.75-2.07l0.49 0.72c-0.31 0.34-0.93 1.02-1.24 1.35z"/>
  <path d="m2687.9 740.8c-0.34-1.59 0.07-3.14 0.74-4.57 1.05 1.05 1.12 4.55-0.74 4.57z"/>
  <path d="m920.29 737.17c3.12 0.05 6.26 0.06 9.39 0 2.35 4.04 6.38 6.72 8.78 10.72 1.75 0.38 4.22-0.31 5.33 1.52 0.55 2.89-1.61 6.43 0.96 8.73 2.6 2.78 5 5.79 7.95 8.23 0.1 1.42-0.04 2.89 0.41 4.28 2.69 3.38 5.46 6.72 8.72 9.58 0.01 1.53 0.03 3.06 0.06 4.61 0.97 0.58 1.97 1.15 2.98 1.72 0.25 3.27-1.12 7.36 1.8 9.8 1.49 1.75 3.38 3.19 4.67 5.13 0.22 1.53 0.26 3.1 0.42 4.67 1.44 0.24 2.98 0.19 4.37 0.77 2.66 2.72 4.8 5.92 7.68 8.45 0.01 6.21-0.21 12.43 0.06 18.64 0.66 4.19 0.8 8.42 0.77 12.66-1.48 1.65-4 2.83-4.12 5.29 0.92 1.8 2.66 3.01 4.06 4.44 0.04 4.48 0.15 8.99-0.41 13.45 0.57 1.67 2.31 2.47 3.52 3.64 0.01 2.5-0.24 5-0.81 7.45 1.27 0.78 2.56 1.57 3.85 2.39l-0.04 2.32c-1.27 0.79-2.54 1.58-3.8 2.38 0.6 2.46 0.81 4.99 0.82 7.53-1.2 0.85-2.4 1.69-3.58 2.56 0.1 1.36 0.24 2.74 0.34 4.12-1.24 0.97-2.53 1.88-3.62 3.04-0.81 2.67 1.57 5.7-0.36 8.13-1.89 1.94-3.78 3.89-5.81 5.7-0.03 2.73 0.01 5.47 0.02 8.21-1.05 0.55-2.07 1.12-3.08 1.71 0.1 5.18-0.01 10.38 0.1 15.57-1.08 0.71-2.16 1.41-3.21 2.16 0.29 6.17 0.06 12.36 0.16 18.54-1.04 0.57-2.07 1.15-3.08 1.76 0.07 3.85-0.02 7.71 0.12 11.57-1.07 0.71-2.16 1.41-3.22 2.13 0.09 2.6 0.14 5.21 0.16 7.83-2.34 2.06-4.36 4.45-6.67 6.54 0.22 1.19 0.46 2.4 0.7 3.62-1.32 1.16-2.63 2.31-3.94 3.47 1.41 5.67 0.58 11.56 0.84 17.34-1.22 1.2-2.73 2.14-3.69 3.58-0.25 1.38-0.23 2.8-0.28 4.23-2.79 2.43-6.35 5.18-6.01 9.28 0.15 1.65-1.8 1.98-2.8 2.76-0.1 1.97-0.19 3.96-0.35 5.94-1.68 0.24-3.46 0.02-5.03 0.68-1.3 1.3-2.55 2.64-3.89 3.89 0.04 1.58 0.08 3.18 0.15 4.78-1.1 0.64-2.19 1.28-3.27 1.94 0.04 2.62 0.21 5.23 0.25 7.86-1.2 1.16-2.38 2.33-3.56 3.51 0.62 3.49 0.62 7.06 0.43 10.6-1.73 2.32-4.8 1.73-7.2 1.13 0.03-2.23 0.04-4.47-0.03-6.68-2.48 0.8-3.92 3.12-5.43 5.08-0.27 1.74-0.3 3.52-0.44 5.29-1.93 0.12-3.87 0.17-5.79 0.24-0.03 2.95 0.03 5.9 0.03 8.86-3.49 2.65-5.99 6.32-9.16 9.31 0.05 2.55 0.1 5.11 0.12 7.68-1.81 1.55-3.32 3.4-5.05 5.03-2.28 0.21-4.57 0.04-6.84-0.04-1.44 2.54-1.06 5.48-1.02 8.28 1.83 1.24 4.33 2.66 3.89 5.31 0.48 3.25-0.16 6.51-3.13 8.36-1.44 2.68-4.83 1.61-6.68 3.61-0.19 1.47-0.16 2.98-0.16 4.49-0.87 0.58-1.72 1.2-2.54 1.85-0.89 1.79-0.09 3.97-0.88 5.82-4.52 1.09-9.38-0.28-13.96 0.62-1.46 1.4-2.82 2.91-4.25 4.36 0.22 1.82 0.29 3.67-0.18 5.48-3.08-0.02-6.16 0.01-9.23-0.14-0.16-2.39-0.27-4.81-1.41-6.96-1.65 0.02-3.3 0.06-4.93 0.13 0.49 2.53 3.54 3.78 3.46 6.43 0.75 3.3-2.8 4.96-4.16 7.54-0.48 0.01-1.43 0.04-1.91 0.05-0.58-1.23-1.16-2.45-1.75-3.65-0.96 1.1-1.83 2.28-2.63 3.51-0.46 0.05-1.37 0.15-1.83 0.19-0.76-1.13-1.47-2.26-2.21-3.35-2.19 0.15-4.38 0.14-6.55 0.06-0.46 1.41-0.87 2.85-1.2 4.32 1.45 0.85 2.93 1.71 4.37 2.62-0.29 1.09-0.62 2.19-0.98 3.28-1.83-0.05-3.65-0.06-5.46-0.03-3.26-5.16-8.55-8.68-11.56-14-4.48-0.1-8.97 0.15-13.44-0.07-2.29-2.16-0.6-5.95-0.96-8.77-1.91-1.6-3.23-3.91-5.48-5.05-3.11 0.1-6.98-1.1-9.43 1.36-1.2 0.69-0.82 2.25-0.74 3.4 0.37 2.43-3.38 3.01-4.64 1.35-1.42-1.91-4.12-3.4-4-6.01-0.01-5.58 0.04-11.16 0.04-16.73-1.03-0.6-2.06-1.17-3.09-1.71 0.06-4.02 0.03-8.03 0.08-12.04 0.98-0.79 1.96-1.58 2.95-2.36-0.32-0.63-0.95-1.9-1.27-2.53-2.24 2.31-4.5 4.62-6.29 7.31-1.47-0.01-2.92-0.01-4.37 0.01-1.76-3.48 0.48-7.18-0.23-10.8-0.09-1.54-0.83-3.06-0.46-4.57 1.13-1.4 2.76-2.26 4.1-3.44-3.73-3.23-6.88-7.03-10.41-10.45 0.01-2.41-0.1-4.81 0.08-7.2 1.74-2.07 5.02-0.9 7.18-2.46-2.37-2.56-4.54-5.33-7.35-7.42 0.08-2.16 0.43-4.28 0.57-6.41-0.47-1.73-2.13-2.54-3.42-3.54-0.17-3.82 0.14-7.64-0.02-11.45-0.7-1.2-2.1-1.68-3.1-2.52-0.01-1.44-0.02-2.86-0.03-4.27 1.15-0.78 2.32-1.52 3.5-2.25-0.53-1.1-1.07-2.17-1.62-3.22-2.16 0.57-4.36 0.97-6.58 1.06-1.18-1.92-2.55-3.72-4.34-5.09 0.08-2.77 0.08-5.54 0.03-8.29 1-0.57 2.01-1.14 3.01-1.71 0.02-1.75 0.05-3.48 0.1-5.21 0.99-0.61 1.98-1.22 2.98-1.82 0.01-2.81-0.05-5.62-0.03-8.41 1.12-1 3.33-1.5 3.04-3.4 0.03-6.04 0-12.07-0.03-18.1-1.99-0.07-3.96-0.11-5.93-0.23-0.03-0.59-0.1-1.76-0.13-2.35 1.99-1.84 4.06-3.58 5.99-5.48 0.84-2.13-1.98-2.62-3.23-3.48 0.08-1.96 1.87-2.71 3.31-3.64 0-3.79 0.05-7.59-0.06-11.38 1.05-0.76 2.15-1.46 3.22-2.2-0.33-9.6 0.02-19.22-0.21-28.82 1.08-0.75 2.19-1.47 3.29-2.2-0.09-2.58-0.23-5.14-0.26-7.71 1.4-1.43 3.23-2.61 4.01-4.51 0.06-2.48-2.07-4.1-3.95-5.28-0.03-3.77 0-7.53-0.06-11.29 0.97-0.75 2.17-1.25 2.98-2.2 0.59-1.92 0.21-3.98 0.79-5.9 2-0.27 4.72 0.64 5.95-1.5 0.27-1.78 0.26-3.57 0.37-5.35 1.87-0.39 4.5 0.41 5.58-1.66 0.22-1.43 0.27-2.87 0.53-4.28 1.66-2.09 3.75-3.77 5.46-5.81 0.45-2.03-0.09-4.53 1.91-5.85 3.1-2.36 1.13-6.52-1.59-8.23 0-3.74 0.02-7.47-0.03-11.2 1.01-0.81 2.04-1.6 3.08-2.38-0.04-2.9-0.1-5.79 0.08-8.68 2.51-0.17 5.03-0.17 7.56-0.2 1.23-1.29 1.63-4.11 3.8-3.95 1.04 1.28 1.78 2.77 2.63 4.2 1.67-0.25 3.3-0.69 4.88-1.29-0.16-6.77 0.22-13.55-0.33-20.31-0.21-2.97 2.98-4.47 4.53-6.58 2.26 0 4.53 0.01 6.8 0.1 1.01-1.87 1.08-3.99 1.03-6.05 0.95-0.57 1.91-1.11 2.89-1.62 0.05-1.75 0.09-3.49 0.13-5.21 1.72-1.09 3.11-2.53 4.18-4.24 2.19-0.01 4.38 0 6.59 0.01 1.79-2.37 4.16-4.29 5.59-6.93 1.4-0.07 2.8-0.14 4.22-0.19 1.99-3.65 5.34-6.21 7.87-9.43 1.58-1.69 2.88-3.7 4.91-4.9 0.7 1.26 1.4 2.54 2.08 3.84 3.16 0.48 6.41 0.7 9.56-0.07 1.77-1.6 3.35-3.38 4.98-5.11-1.38-1.2-2.81-2.35-3.92-3.8-0.44-1.57 0.3-3.08 1.08-4.38 2.66-1.05 5.65-0.22 8.44-0.2 0.07 2.01 0.14 4.02 0.26 6.04 2.45 0.93 5.06 1.23 7.68 1.16 1.4-2.7 3.74-4.65 5.66-6.94 1.66-0.32 3.32-0.65 4.95-1.16-0.06-1.58-0.1-3.14-0.13-4.71 2.54-2.3 4.63-5.57 8.43-5.61 2.18-1.92 4.18-4.08 5.68-6.58 5.41-0.15 10.92 0.49 16.27-0.29 1.99-2.15 3.86-4.42 5.71-6.71m-40.05 104.7c-1.54 1.42-2.94 2.99-4.49 4.41-0.1 1.62-0.15 3.26-0.23 4.91-2.1 1.4-3.91 3.2-5.53 5.14-0.7 1.61-0.3 3.46-0.4 5.19-2.65 1.09-3.55 3.5-3.02 6.22-2.32 2.36-5.46 4.28-6.4 7.63 2.5-0.06 5.07 0.25 7.56-0.25 2.13-2.09 4.1-4.35 5.68-6.87 1.71 0.29 4.04-0.59 5.2 1.13 0.28 3.35 0.13 6.73-0.1 10.09-1.94 0.15-3.88 0.22-5.81 0.3-0.04 1.93-0.05 3.88-0.03 5.83-3.04 1.09-3.36 4.06-3.18 6.89-3.91 2.5-6.3 6.56-9.55 9.76 0.2 1.11 0.43 2.23 0.65 3.37-3.58 3.5-7.19 6.97-10.51 10.72 1.99 0.68 4.22-0.11 6.16 0.6 2.18 3.27 0.15 7.24 0.41 10.86-2.13-0.07-4.26-0.09-6.39-0.05 0.03-3.37 0.03-6.73 0.08-10.08-1.53-0.03-3.06-0.05-4.58-0.07-1.25 1.89-2.92 3.47-4.1 5.4-0.15 2.53 0 5.07 0.06 7.62-1.08 0.7-2.16 1.42-3.22 2.16 0.29 4.39-0.02 8.8 0.17 13.2 1.16 1.95 2.87 3.52 4.13 5.43 5.12-0.14 10.24-0.15 15.37-0.03 1-1.42 2.05-2.8 3.21-4.08 1.07 0.01 2.15 0.03 3.23 0.04 1.16 1.27 2.19 2.64 3.21 4.04 3.01-0.15 6.03-0.12 9.06-0.12 0.8-1.33 1.6-2.66 2.46-3.94 1.43-0.02 2.87-0.03 4.33-0.04 0.87 1.36 1.69 2.76 2.55 4.17 3.44 0.29 5.23-3.12 7.08-5.44 0.16-3.28-0.13-6.56 0.02-9.82-0.2-1.84 1.92-2.37 2.99-3.39 0.05-2.76-0.01-5.51 0.06-8.25 2.88-1.98 5.78-4.29 7.31-7.51-2.49-2.48-4.33-5.63-7.39-7.47 0.01-1.69 0.02-3.37 0.02-5.05 2.41-1.74 3.89-4.23 3.03-7.25 1.27-0.83 2.57-1.62 3.86-2.43-0.61-2.71-0.15-5.55-0.96-8.2-2.48-0.04-5.03 0.41-7.44-0.22-1.71-2.2-4.65-3.67-4.8-6.72 1.12-0.6 2.25-1.19 3.38-1.78-0.12-6 0.07-11.99 0.01-17.98-2.39-2.31-6.11-0.84-9.09-1.23 0-4.37 0.01-8.74 0-13.11 1.49-0.95 3.01-2.08 3.46-3.9-2.52-0.03-5.05-0.27-7.52 0.17z"/>
  <path d="m1840.5 738.48c0.04-0.12 0.12-0.35 0.16-0.47-0.04 0.12-0.12 0.35-0.16 0.47z"/>
  <path d="m2210.9 742.88c-0.3-1.04-0.1-1.97 0.6-2.8 1.18 1.28 0.98 2.21-0.6 2.8z"/>
  <path d="m1837.8 744.27c0.19-0.52 0.57-1.55 0.76-2.07l0.5 0.73c-0.32 0.33-0.94 1.01-1.26 1.34z"/>
  <path d="m2508.9 746.89c-0.31-1.04-0.11-1.97 0.58-2.8 1.19 1.26 0.99 2.19-0.58 2.8z"/>
  <path d="m2686.9 746.88c-0.31-1.05-0.1-1.99 0.63-2.81 1.14 1.28 0.93 2.22-0.63 2.81z"/>
  <path d="m1837.5 745.48c0.04-0.11 0.12-0.35 0.16-0.46-0.04 0.11-0.12 0.35-0.16 0.46z"/>
  <path d="m1834.8 751.27c0.19-0.52 0.58-1.55 0.77-2.07l0.49 0.73c-0.31 0.33-0.94 1-1.26 1.34z"/>
  <path d="m1583.9 756.74c-0.31-1.57 0.1-3.1 0.75-4.51 1.09 1.01 1.14 4.56-0.75 4.51z"/>
  <path d="m1834.5 752.46c0.04-0.11 0.12-0.34 0.17-0.46-0.05 0.12-0.13 0.35-0.17 0.46z"/>
  <path d="m2208.9 755.88c-0.3-1.04-0.1-1.97 0.6-2.79 1.18 1.27 0.98 2.2-0.6 2.79z"/>
  <path d="m696.16 755.14c1.88-0.01 3.77-0.01 5.67 0 0.01 3.28 0.01 6.57 0.03 9.87-1.72 0.61-3.54 0.73-5.34 0.67-0.8-3.44-1.72-7.13-0.36-10.54z"/>
  <path d="m3031.9 757.88c-0.32-1.04-0.12-1.97 0.6-2.79 1.17 1.27 0.97 2.2-0.6 2.79z"/>
  <path d="m2506.9 759.89c-0.29-1.04-0.1-1.97 0.59-2.8 1.19 1.27 0.99 2.2-0.59 2.8z"/>
  <path d="m2684.9 759.88c-0.31-1.04-0.11-1.97 0.6-2.79 1.17 1.27 0.97 2.2-0.6 2.79z"/>
  <path d="m486.35 758.25c2.54-0.19 5.1-0.06 7.65-0.09 1.07 3.44 1.4 7.4-0.11 10.76-1.5-0.05-2.99-0.07-4.48-0.07-1.12-1.74-2.55-3.19-4.29-4.28 0.28-2.1-0.91-4.95 1.23-6.32z"/>
  <path d="m844.08 762.07c2.36-1.46 4.95-0.76 6.81 1.14-0.03 1.48-0.03 2.97-0.03 4.47-0.49 0.4-1.46 1.2-1.95 1.6-1.38-1.77-2.85-3.45-4.72-4.68-0.03-0.63-0.08-1.9-0.11-2.53z"/>
  <path d="m2356.9 765.92c0.21-0.48 0.61-1.44 0.81-1.92l0.5 0.76-0.42 0.98z"/>
  <path d="m2206.9 768.88c-0.3-1.03-0.11-1.97 0.58-2.8 1.19 1.27 1 2.2-0.58 2.8z"/>
  <path d="m2504.9 772.75c-0.32-1.57 0.09-3.11 0.75-4.52 1.06 1.02 1.13 4.58-0.75 4.52z"/>
  <path d="m3029.9 770.88c-0.32-1.04-0.12-1.97 0.6-2.79 1.16 1.27 0.96 2.2-0.6 2.79z"/>
  <path d="m2354.9 770.92c0.2-0.48 0.61-1.45 0.81-1.93l0.5 0.76-0.42 0.99z"/>
  <path d="m2682.9 772.88c-0.31-1.04-0.11-1.97 0.61-2.79 1.16 1.27 0.96 2.21-0.61 2.79z"/>
  <path d="m2352.9 775.9c0.21-0.48 0.62-1.44 0.83-1.92l0.49 0.77-0.43 0.98z"/>
  <path d="m2204.9 781.74c-0.41-1.57 0.16-3.09 0.77-4.5 1.03 1.03 1.12 4.57-0.77 4.5z"/>
  <path d="m974.56 789.54c1.36-0.19 2.74-0.35 4.13-0.47 1.61 1.85 3.3 3.66 5.14 5.31-0.02 2.78-0.03 5.58-0.04 8.38-1.43 0.39-2.83 1.08-4.33 0.94-1.78-1.69-3.17-3.77-5.26-5.11 0.01-3.03-0.14-6.06 0.36-9.05z"/>
  <path d="m353.88 799.45c0.86-2.64 2.97-3.9 5.69-3.23 1.88 1.49 3.07 3.76 5.08 5.19-0.22 1.06-0.45 2.14-0.66 3.23 2.89 1.8 2.98 4.98 3.46 8 1.18 1.71 2.73 0.34 3.6-0.86 0.44-2.45-1.18-4.85-0.61-7.22 1.38-1.42 2.81-2.77 4.14-4.22 1.31-0.28 2.64-0.25 3.97-0.3 1.36 1.49 2.84 2.88 4.15 4.42 0.28 1.76 0.17 3.54 0.2 5.33-2.09 0.32-4.21 0.52-6.24 1.12-0.84 4.09 2.28 6.81 4.39 9.83 1.28-1.4 2.48-2.87 3.85-4.17 0.77 1.17 1.53 2.37 2.3 3.57 1.57 0.04 3.14 0.1 4.72 0.17-0.03 1.07-0.05 2.15-0.07 3.23-1.7 1.07-3.11 2.48-4.19 4.19-1.61 0.02-3.22 0.05-4.83 0.09-0.02 2.65-0.04 5.31-0.01 7.97 1.33 1.1 3.01 2.01 3.77 3.67 0.22 2.12-0.09 4.26-0.08 6.4 1.23 1.92 2.63 3.74 3.81 5.71 2.09-2 3.89-4.28 5.87-6.38 1.91-0.81 2.38 1.64 3.29 2.77 1.82 0.2 3.75 0.17 5.4 1.1-0.24 3.85 0.06 7.72-0.18 11.59-1.42 1.68-4.07 1.35-6.01 2.15-0.02 11.8 0.14 23.61-0.12 35.41 1.03 0.71 2.07 1.41 3.12 2.14-0.31 2.91-0.06 6 3.13 7.09-0.04 0.95-0.07 1.92-0.09 2.9-1.03 0.56-2.04 1.15-3.05 1.75 0.07 4.57 0.02 9.14 0.04 13.71 0.93 0.63 1.86 1.28 2.78 1.97 0.53 2.78 0.19 5.63 0.12 8.44 1.04 0.72 2.1 1.44 3.16 2.18-0.04 4.35 0.02 8.71-0.06 13.07-3.15 2.51-6.95 5.65-6.07 10.17-1.01 0.79-2.02 1.58-3.02 2.38 0 2.49 0.3 5.02-0.12 7.51-0.96 1.78-3.01 3.18-2.85 5.42-0.05 4.98 0.07 9.97-0.03 14.96 1.03 0.56 2.07 1.12 3.12 1.7-0.06 1.98-0.05 3.98 0.02 5.98-1.08 0.73-2.16 1.47-3.23 2.23 0 0.85-0.01 2.55-0.01 3.4 1.06 0.72 2.14 1.44 3.21 2.19-0.09 8.47-0.02 16.96-0.06 25.44 1.03 0.79 2.07 1.61 3.09 2.45-0.11 6.21 0 12.42-0.09 18.63 1.01 0.57 2.04 1.14 3.07 1.71-0.03 12.46-0.02 24.92-0.03 37.38-0.15 2.62 3.11 3.62 3.47 6.12-0.62 7.56-0.82 15.24 0.18 22.78-0.76 2.66-3.49 4.26-4.78 6.71-0.67-0.03-2.03-0.09-2.71-0.12-1.12-0.06-2.23-0.1-3.34-0.14-1.33 2.88-2.59 5.8-4.09 8.61 0.71 0.84 1.42 1.68 2.16 2.53 1.46 1.72 4.03 1.51 6.04 2.13-0.02 3.18 0.41 6.43-0.17 9.59-1.1 0.94-2.24 1.84-3.34 2.81 1.2 0.74 2.43 1.49 3.64 2.27-0.07 3.03-0.05 6.08-0.09 9.13-2.29 1.53-3.9 3.82-6.13 5.43 0.03 1.47 0.07 2.96 0.11 4.46 1.65 0.03 3.3 0.08 4.95 0.15 1.15 1.79 2.49 3.46 4.13 4.86-0.07 6.16 0.08 12.32-0.04 18.48 0.18 1.83-1.91 2.35-2.98 3.41-0.05 2.7 0 5.42-0.01 8.14-1.03 0.55-2.06 1.13-3.08 1.73 0.06 5.95 0.08 11.9 0 17.85 1.02 0.56 2.06 1.13 3.1 1.7-0.03 1.98-0.01 3.96 0.05 5.96-1.22 0.8-2.45 1.58-3.66 2.41 1.2 0.81 2.43 1.62 3.65 2.44-0.05 1.95-0.06 3.92-0.03 5.9-1.08 0.57-2.16 1.16-3.22 1.78-0.51 5.37 5.54 7.74 7.67 12.08 1.53 0.02 3.07 0.05 4.61 0.09 1.03 2.4 1 5.01-0.01 7.42-2.54-0.01-5.08-0.03-7.62 0.02-2.4 3.18-5.23 6-7.81 9.04-0.93 1.18-1.8 2.42-2.66 3.66 1.09 0.02 2.19 0.06 3.29 0.12 1.91 0.25 2.88 2.46 4.27 3.66 1.47 0.06 2.94 0.13 4.42 0.23 0.05 2.04 0.19 4.09 0 6.15-1.4 1.63-2.94 3.17-4.1 5.02-1.65 0-3.29 0.01-4.93 0.04-0.03 1.89-0.03 3.79-0.01 5.7 1.75-0.03 3.51-0.04 5.28-0.04 0.14-0.79 0.43-2.37 0.58-3.15 1.09 0.01 2.19 0.03 3.29 0.07-0.01 1.1 0 2.21 0.01 3.34-2.3 0.96-3.61 2.82-3.29 5.38 1.08 0.79 2.17 1.6 3.25 2.44-0.03 3.35 0.08 6.72-0.25 10.07-1.94 0.14-3.89 0.2-5.82 0.28-0.05 5.06 0.03 10.13-0.06 15.19 1.02 0.56 2.05 1.13 3.09 1.7-0.01 5.36-0.05 10.73 0.05 16.1-1.71 1.4-3.07 3.14-4.2 5.04-2.05-0.13-4.23 0.05-6.06-1.06 0.25-3.44 0.53-7.14-1.44-10.15-0.93 4.8-0.75 9.75 0.16 14.55 0.36 2.32 0.54 5.02-1.66 6.54-1.83 1.35-2.38 3.44-2.13 5.64 2.05 0.37 4.08 0.83 6.11 1.34 0.08 1.94 0.12 3.89 0.17 5.86-3.62 2.74-6.2 6.54-9.41 9.72 0.57 7.07 0.19 14.18 0.25 21.28-2.34 1.72-4.07 4.07-6.18 6.05 0.38 8.11-1.19 16.17-0.52 24.28 1.36 2.06 4.02 1.29 6.1 1.53 0.48 1.67 0.88 3.41 0.65 5.18-2.99 4.07-7.07 7.3-9.84 11.5-0.19 3.41-0.02 6.84-0.05 10.27 1.64 0.01 3.29 0.05 4.94 0.08 1.33 2.23 3.36 3.91 4.85 6.04 0.16 4.06 0.58 8.3-0.7 12.25-1.54-0.01-3.08 0.02-4.61 0.07-1.33 1.87-2.97 3.5-4.37 5.33-0.17 1.51-0.14 3.04-0.16 4.59-0.46 0.07-1.36 0.21-1.82 0.28-2.2 0.33-4.42 0.55-6.62 0.82 0.16 2.42 0.96 4.71 2.09 6.86 0.7 1.53 0.33 3.29 0.42 4.94-1.63 1.48-2.85 3.31-4.19 5.06-1.86 0.49-2.64-1.78-3.74-2.8-1.51-1.9-2-4.3-2.37-6.61-0.48 2.35-0.74 4.99-2.51 6.8-1.35 1.14-3.17 1.43-4.79 2.01-0.23-1.64-0.43-3.24-0.59-4.85-0.6 1.77-1.27 3.55-1.79 5.38-0.67 1.91 0.98 3.58 1.5 5.34-0.51 2.85-4.11 1.21-6.12 1.87-2.84 0.28-5.68 0.61-8.52 0.87-0.23 1.04-0.47 2.11-0.71 3.19-0.14 0.64-0.42 1.94-0.56 2.58-2.49 0.18-4.99 0.21-7.47 0.17-1.12 1.1-1.7 3.49-3.64 3.16-3.14-2.6-5.44-6.1-5.85-10.23-2.2 0.08-4.41 0.09-6.61 0.01-1.97 2.55-3.55 5.55-6.26 7.42-1.73-2.74-3.84-5.2-5.58-7.91-1.2 1.12-2.21 2.46-3.52 3.5-2.81 0.92-4.46-2.17-6.14-3.82-1.64-1.27-1.07-3.48-1.26-5.25 1.07-0.88 2.24-1.63 3.17-2.64-0.15-1.1-0.55-2.11-1.19-3.03-1.35 0.35-2.7 0.73-4.05 1.12-0.92-3.03-0.88-6.34-3.61-8.45-0.61-6.26-0.01-12.63-0.26-18.92 1.03-0.57 2.05-1.13 3.07-1.69-0.13-2.8 0.4-5.69-0.29-8.4-0.92-0.64-1.83-1.24-2.76-1.81 0.01-9.69 0.04-19.39-0.02-29.08 1.02-0.58 2.02-1.2 2.97-1.86 0.58-2.25-3.11-2.7-2.95-4.83 0.03-3.46-0.24-6.95 0.18-10.37 3.72-2.56 2.89-7.07 2.8-10.97l3.09-1.68c-0.05-2.64-0.05-5.27 0.04-7.89-1.04-0.79-2.07-1.56-3.1-2.31 0.07-2.71-0.28-5.47 0.21-8.13 2.14-1.86 2.99-4.31 3.06-7.08 3.12-2.99 5.46-6.73 8.88-9.36-0.13-3.87-0.03-7.72-0.13-11.56 1.03-0.59 2.06-1.17 3.08-1.74-0.03-10.56 0.06-21.12-0.02-31.67-1.69-2.32-4.7-5.2-2.38-8.14 4.24-3.12 1.83-8.9 2.35-13.35 1.73-1 4.46-2.36 2.97-4.74-2.26-0.94-2.88 1.58-3.74 3.09-1.72 0.08-3.44 0.1-5.16 0.07-0.06-2.91-0.22-5.81 0.01-8.7 1.45-1.66 4.11-1.29 6.04-2.18-0.12-3.94-0.03-7.88-0.13-11.8 4.68-1.6 2.92-6.85 3.23-10.61-1.07-0.69-2.15-1.36-3.21-2.04 0.12-3.79-0.13-7.58 0.1-11.35 2.03-2.47 5.91-0.72 8.73-1.2 1.16-2.37 1.29-4.92-0.03-7.24-1.54-0.06-3.07-0.1-4.61-0.13-1.13-1.9-2.85-3.31-4.12-5.06-0.15-2.45-0.04-4.9-0.04-7.33 1.75-1.13 3.21-2.6 4.24-4.41-1.09-2.06-2.54-3.88-4.24-5.45 0.06-6.8-0.02-13.59 0.03-20.38-0.12-1.78 1.98-2.35 2.99-3.4 0.05-9.94 0.03-19.87 0.06-29.81 0.19-1.8-1.73-2.67-2.88-3.62-0.12-1.84-0.25-3.68-0.49-5.48-0.14-1.15-0.28-2.29-0.43-3.41-2.15 0.01-4.31 0.02-6.46 0.05-0.97 3.75-4.21 6.61-4.57 10.52-0.35 3.01 1.35 6.83-1.08 9.24-1.58 0.51-3.2 0.84-4.81 1.24-0.27 0.63-0.81 1.89-1.08 2.52 0.42 0.54 1.26 1.63 1.69 2.17 3.81-0.52 6.09 2.84 8.46 5.23 0.15 1.15 0.19 2.48-1.03 3.11-3.6 0.23-7.22 0.07-10.82 0.01-0.74 1.06-1.46 2.15-2.2 3.24-1.41-0.07-2.82-0.1-4.22-0.11-1.26-1.55-2.71-3.96-5.07-2.97-1.38 1.16-2.55 2.54-3.83 3.82 0 2.14 0.07 4.3-0.2 6.45-1.21 2.66-3.5 4.7-5.65 6.61-6.63 0.17-13.28-0.05-19.92 0.08-0.05 1.52-0.12 3.06-0.18 4.61 1.08 0.7 2.16 1.4 3.25 2.14-0.02 2.05 0.05 4.12-0.15 6.19-1.16 1.72-3.5 0.83-5.22 1.15-0.87-1.47-1.73-2.94-2.62-4.36-1.91 2.6-3.96 5.11-6.2 7.45-1.42-0.48-4.31 0.14-4.32-2.02 0.34-4.48-3.67-7.32-6.63-10 1.08-2.09 2.71-3.81 3.96-5.77-2.18-3.71-5.66-6.41-7.93-10.04-1.42-0.17-2.84-0.32-4.25-0.47-1.98-5.82-1.38-12.31-0.41-18.28-2.39-2.14-4.11-4.96-6.82-6.74-0.04-2.76 0.21-5.54-0.14-8.27-2.2-2.56-6.07-0.97-9.01-1.36-0.01-3.27-0.01-6.52 0.01-9.77 4.61 0.05 9.22 0.03 13.83 0.02 0.65-0.8 1.31-1.58 1.97-2.35-1.07-5.44-0.6-11.03-0.19-16.51-0.67-3.23-4.92-1.48-6.38-3.62-0.2-4.76-0.15-9.54-0.03-14.3 1.71-2.32 5.1-0.84 7.57-1.22 0.74-0.82 1.48-1.63 2.23-2.41-0.42-2.07-0.78-4.15-0.96-6.23 1.32-1.25 2.71-2.43 3.82-3.87 0.63-2.13-0.46-4.27-0.79-6.35 1.2-1.33 2.55-2.5 3.95-3.59 0.09-6.55 0.11-13.1 0.04-19.64 0.53-2.56-3.35-2.65-3.06-5.05-0.18-1.74 2.07-2.25 3.04-3.28 0.03-8.59 0.14-17.18-0.03-25.76 0.06-2.13-1.2-4.55 0.36-6.39 0.88-0.64 1.78-1.25 2.7-1.83 0-7.88 0.13-15.76-0.04-23.62-1.13-3.79-6.64-5.26-6.22-9.78 2.05-0.38 4.88 0.65 6.12-1.56 0.36-2.43 0.11-4.89 0.16-7.33 1.21-1.13 2.4-2.28 3.54-3.47-1.19-0.79-2.38-1.53-3.57-2.28 0.04-2.8-0.13-5.59 0.12-8.37 1.56-1.52 4.09-1.26 6.02-2.15-0.13-3.94-0.05-7.88-0.12-11.8 0.94-0.9 2.68-1.16 2.99-2.55 0.21-2.48 0.03-4.96 0.04-7.44 1.99-1.83 4-3.65 5.72-5.74 0.77-2.7 0.17-5.58 0.26-8.33 0.49-0.4 1.45-1.18 1.94-1.57 1 1.55 2.07 3.07 3.17 4.58 2.03 0.07 3.57-1.06 4.86-2.5-0.27-1.15-0.55-2.27-0.79-3.4 2-1.41 3.48-3.34 4.99-5.23 2.51 0.03 5.03 0.08 7.53-0.26 0.38-2.84 0.32-5.69 0.34-8.53 1.93-1.93 3.68-4.03 5.81-5.73 0.09-1.44 0.13-2.88 0.31-4.28 1.35-1.75 2.9-3.34 4.05-5.22 3.5 0.04 6.99 0 10.49 0.04 0.57-1.05 1.13-2.1 1.69-3.14 2.77 0.06 5.55 0.06 8.32 0.09 0.54 3.2-1.37 7.51 1.4 9.87 2.15 0.31 4.34 0.13 6.51 0.1 0.76 1.21 1.51 2.44 2.27 3.68 1.03-0.61 2.06-1.23 3.08-1.85-1.73-6.87-0.65-14.09-0.74-21.1-1.16-0.81-2.35-1.58-3.51-2.36 0.17-1.94 1.83-2.86 3.3-3.82 0.03-1.47 0.04-2.94 0.05-4.39 1.06-0.74 2.13-1.45 3.19-2.16-0.23-3.69-0.01-7.38-0.13-11.05-1.12-1.74-2.62-3.2-3.76-4.91-4.18 0.46-6.73-3-8.93-6.02 2.76-1.94 5.44-4.19 7.12-7.15-1.19-0.78-2.4-1.53-3.59-2.29 0.12-9.5 0.09-19 0.03-28.49 1.69-1.4 3.13-3.05 4.28-4.91 1.58-0.07 3.16-0.13 4.75-0.16 0.05-1.9 0.09-3.79 0.15-5.67 2.74-1.87 4.29-6.08 8.23-5.01 0.71-1.03 1.4-2.08 2.07-3.12 1.37-0.06 2.75-0.13 4.14-0.19 1.56-2.54 3.77-4.57 5.61-6.89 4.27 0.06 8.54-0.02 12.8 0.24 0.72-1.06 1.42-2.12 2.15-3.15 3.16 0.39 5.32-1.81 7.09-4.08 3.16 0.08 6.32 0.15 9.48 0.17z"/>
  <path d="m1097.1 813.11c0.61 0.03 1.83 0.07 2.44 0.09 0.77 0.75 1.56 1.5 2.36 2.25-0.26 2.91-1.2 5.86 0.04 8.69 2.27 0.01 4.56 0.12 6.86-0.02 1.63-0.84 2.29-2.84 3.56-4.13 1.52 0.18 3.05 0.46 4.51 1-0.02 2.91-0.3 5.85 0.08 8.76 2.94 2.78 7.72 0.9 11.46 1.38 0.56 1.01 1.14 2.02 1.75 3.04 1.51 0.01 3.03 0.05 4.56 0.09 1.49 2.69 0.99 5.73 0.15 8.54 1.4 1.18 2.85 2.32 4.33 3.44-1.31 1.4-2.77 2.65-4.17 3.94 0.83 3.75 0.64 7.62 0.71 11.44-1.09 0.73-2.18 1.45-3.24 2.2l0.08 3.28c2.38 2.51 6.08 4.59 6.39 8.35-1.16 0.79-2.32 1.56-3.45 2.37 0.3 8.03 0.1 16.07 0.1 24.11 1.01 0.57 2.04 1.14 3.09 1.71-0.12 4.31 0.2 8.65-0.11 12.96-1.78 2.06-3.88 3.82-5.9 5.63-0.06 1.7-0.08 3.4-0.06 5.12-1.04 0.56-2.06 1.13-3.06 1.73 0.07 3.84-0.01 7.69 0.11 11.54-1.05 0.81-2.09 1.62-3.12 2.44 0.03 2.35 0.02 4.71-0.08 7.08 1.6 1.25 3.03 2.71 4.24 4.36 1.5-0.07 3.01-0.13 4.53-0.18 0-2.98-0.06-5.94-0.01-8.91 1.55-1.21 2.94-2.61 4.16-4.15 3.39-0.17 6.88 0.4 10.23-0.32 1.52-1.29 2.94-2.73 4.17-4.31 0.4-1.67 0.38-3.4 0.59-5.08 4.81 0.36 7.63-3.84 9.94-7.41 1.33-0.01 2.67-0.01 4.03 0.01 0.86 1.2 1.38 3.09 3.03 3.46 1.78 0.17 3.58 0.14 5.38 0.27 1.7-1.74 3.5-3.38 5.08-5.23 0.65-3.74-0.08-7.56 0.32-11.31 2.72-2.46 7.11-0.55 10.54-1.18 0.95 1.18 1.89 2.39 2.78 3.65 1.32 0.15 2.66 0.29 4.02 0.44 1.2 1.92 3 3.3 4.76 4.71-2.01 1.68-3.73 3.67-5.75 5.35-0.67-1.08-1.34-2.15-2.01-3.19-2.84-0.77-5.84-0.35-8.73-0.3 0.03 0.77 0.09 2.31 0.13 3.08 3.18-0.27 5.79 0.97 7.87 3.33 6.56 1.26 8.9 8.51 13.99 12.15 0 2.56-0.05 5.12-0.09 7.69 0.99 0.73 2 1.46 3.01 2.23-0.01 2.04 0.11 4.15 1.17 5.98 2.24-0.08 4.49-0.22 6.75-0.02 1.9 1.21 1.02 3.7 1.29 5.58 0.95 0.58 1.93 1.15 2.93 1.73-0.01 1 0 2.01 0.02 3.04-1.53 0.12-3.03 0.24-4.52 0.39-1.79 4.1-7.88 6.19-6.89 11.28 0.27 7.32 0.06 14.65 0 21.98 2.06 0.07 4.18 0.17 6.12 1 0.07 5.43 0 10.85 0.06 16.28-2.56 1.37-3.64 4.95-6.77 5.1-2.71 0.2-4.15 2.91-5.93 4.62-0.57 4.56-0.11 9.21-0.22 13.81-0.27 2.66 1.31 5.67-0.43 8.07-0.85 0.71-1.72 1.41-2.58 2.1-0.03 3.68-0.03 7.36-0.03 11.05 1.62 0.04 3.27 0.01 4.92 0.22 2.62 1.9 2.09 5.53 0.92 8.16-1.62-0.02-3.23-0.01-4.82 0.03-0.86-1.68-1.99-3.33-4.04-3.45-0.06 2-0.03 4.03 0.01 6.05-1.26 0.41-2.46 0.94-3.6 1.58 1.97 2.09 4.11 4.02 6.27 5.92 0.9 4.39 0.13 9.03 0.34 13.53-1.04 0.55-2.06 1.12-3.06 1.71 0.09 3.84 0.02 7.7 0.1 11.56-1.07 0.73-2.15 1.44-3.19 2.19 0.17 13.81 0.25 27.62 0.01 41.43 1.04 0.72 2.1 1.43 3.18 2.17-0.04 3.43-0.03 6.86-0.06 10.3-3.02 0.01-6.03-0.02-9.03 0-0.04 5.28-0.04 10.57 0.02 15.86-4.19 2.3-3.03 7.16-2.96 11.13-1 0.53-2 1.07-2.98 1.62-0.21 1.61 0.18 3.4-0.56 4.91-0.98 1.72-3.13 1.33-4.77 1.6-1.05-1.44-2.05-2.88-3.06-4.3-2.48 4.51-8.34 7.26-7.86 13.01-1.69 2.13-3.81 3.88-5.79 5.74-0.05 1.75-0.05 3.5-0.02 5.28-3.08-0.23-5.89 1.03-7.64 3.58-2.43 1.7-0.46 5.3-2.79 7.05-1.26 1.1-2.14 2.71-3.64 3.46-3.18 0.23-6.36 0.01-9.52 0.07-0.8 1.33-1.47 2.77-2.47 3.99-2.22 0.38-2.58-2.64-3.7-3.94-1.61-0.04-3.21-0.08-4.79-0.1-0.4-1.81-0.33-3.65-0.15-5.47-2.3-2.11-4.36-4.45-6.66-6.54 0.17-1.26 0.37-2.5 0.59-3.73-1.18-0.74-2.36-1.46-3.51-2.18 0-0.7 0.01-2.11 0.02-2.81 0.42-3.09-2.79-4.7-4.42-6.81-1.16 1.74-2.43 3.41-3.88 4.91 1.16 1.13 2.35 2.28 3.54 3.44-0.13 2.35-0.13 4.72-0.05 7.1-1.69 1.83-4.64 3.47-3.89 6.41 1 5.23 0.41 10.48-0.08 15.72 2.36-0.42 3.41-2.71 4.74-4.41 3.34 0.67 5.62 3.2 8.29 5.1-0.12 4.09 0.12 8.19-0.07 12.28-1.23 1.39-3.29 1.84-5.07 1.77-3.04-2-3.98-6.75-8-7.15 0.24 3.23 1.19 6.45 0.79 9.73 0.06 1.54-1.05 3.23-0.25 4.71 1.94 2.44 4.09 4.75 6.55 6.69-0.03 2.68 0.16 5.38-0.12 8.06-1.33 1.67-2.84 3.19-4.4 4.64-1.79 0.68-3.71 0.98-5.48 1.67 0.11 2.44 0.12 4.91 0.01 7.37 1.75 0.89 3.7 1.23 5.67 1.33 0.59 0.9 1.2 1.81 1.84 2.72 2.15-0.11 4.16 0.47 5.66 2.11-0.12 2.24-0.3 4.49-0.71 6.72 1.14 1.17 2.35 2.3 3.6 3.41-0.06 2.69-0.07 5.4 0 8.12-1.17 1.1-2.31 2.24-3.42 3.42 0.37 2.43 0.42 4.9 0.32 7.37-1.22 0.91-2.44 1.8-3.65 2.72 0.95 4.22 0.97 8.67 0.1 12.91 1.14 1.23 2.37 2.38 3.65 3.51-0.22 1.85 0.42 3.98-0.54 5.67-1.56 0.99-3.63 0.35-5.39 0.58-0.83-1.76-2-3.51-4.16-3.41-0.85 3.51 1.49 6.02 4.03 8.02-0.08 3.66-0.04 7.33-0.06 11.01-1.27 0.97-2.56 1.9-3.82 2.87 1.33 2.98-0.3 5.62-3.01 7 0.15 9.15-0.37 18.37 0.24 27.48 3.17 3.25 6.32 6.54 9.18 10.09 0.87 1.16 0.3 2.77 0.5 4.15-0.13 4.29 0.29 8.65-0.68 12.88 1.21 1.19 2.43 2.39 3.67 3.59-1.02 2.99 0.73 5.31 3.04 7.04-0.01 1.35-0.01 2.71 0 4.09-4.63 4.08-7.99 9.33-12.59 13.45 2.61 2.54 5.38 5.01 7.11 8.29 3.2 0.08 7.15-0.93 9.08 2.42 2.98 1.62 2.48 4.99 2.49 7.89-1.1 0.7-2.19 1.41-3.25 2.18 0.31 10.59 0.02 21.2 0.15 31.81-2.34 2-4.47 4.22-6.59 6.44 1.2 0.77 2.43 1.55 3.67 2.35-0.07 1.7-0.04 3.42-0.21 5.14-0.59 1.79-2.89 1.07-4.29 1.2-2.19 0.14-2.84-2.47-4.23-3.64-1.24 1.81-2.63 3.52-3.91 5.31-0.65 1.67-0.35 3.54-0.49 5.32-4.61-0.14-9.22 0.04-13.82-0.15-1.62 2.52-3.97 4.47-5.51 7.06-2.36 0.01-4.71-0.02-7.05 0.06-1.08 1.3-1.95 2.91-3.55 3.66-3.83-0.51-7.69-0.81-11.56-0.62-0.59 0.96-1.19 1.93-1.79 2.91-3.19 0.77-6.53 0.23-9.76 0.22-0.21-0.71-0.62-2.12-0.83-2.83-1.74-0.2-3.47-0.37-5.18-0.6 0.15-3.1-0.58-6.02-3.04-8.05-1.21-2.63-6.16-1.24-6.07-4.65 0.27-3.48-2.78-5.64-4.37-8.35-0.53 0.45-1.59 1.36-2.12 1.81-0.06 1.87-0.13 3.75-0.22 5.64-1.48-0.01-2.94-0.01-4.38 0.01-2.02-3.15-4.64-5.93-7.76-8 1.12-2.25 3.08-3.87 4.76-5.67 2.15 0 4.31 0.13 6.47-0.12 3.19-2.15 1.27-6.85-1.68-8.31-0.25-2.86 1.08-6.38-1.25-8.6-2.36-2.57-3.99-5.83-6.86-7.87-1.83 2.86-4 5.47-6.04 8.19-0.58-0.94-1.15-1.86-1.71-2.76 1.02-3.64 0.86-7.43 0.8-11.15 1.03-0.58 2.06-1.15 3.09-1.73-0.05-1.52-0.06-3.01-0.07-4.49-2.29-1.09-4.29-3.47-3.27-6.09 0.33-1.75 2.02-2.51 3.24-3.54 0.25-3.71 0.64-7.8-2.77-10.21-0.48-14.45-0.02-28.98-0.2-43.47 0.29-2.87-3.75-3.89-3.42-6.77 0.54-3.77 0.51-7.59-0.08-11.34-0.19-2.13 2.01-3.15 3.47-4.18 0.06-5.06 0.05-10.12 0.01-15.18 0.99-0.57 1.99-1.14 3-1.7 0-1.78 0.02-3.55 0.05-5.3 1-0.57 2.01-1.14 3.03-1.7-0.03-3.9-0.03-7.79 0-11.67-1.03-0.6-2.06-1.17-3.08-1.71 0.05-4.05 0.04-8.09 0-12.12 1.19-0.79 2.4-1.56 3.61-2.33-0.75-1.56-2.22-2.42-3.55-3.37-0.05-1.47-0.09-2.92-0.12-4.36-0.92-0.64-1.81-1.29-2.68-1.93-0.56-2.96-0.16-6.01-0.24-8.99 1.03-0.76 2.09-1.49 3.15-2.23-0.17-2.6-0.15-5.2-0.18-7.78-1.04-0.54-2.05-1.08-3.05-1.62 0.01-0.61 0.03-1.83 0.03-2.44 0.99-0.57 1.99-1.11 3.01-1.62 0.1-3.85 0.05-7.68 0.07-11.51-1.02-0.6-2.03-1.18-3.04-1.72 0.02-14.81 0.04-29.61 0.01-44.41 0.14-2.44-2.34-3.68-3.69-5.33 1.12-5.17 0.55-10.49 0.69-15.73 0.14-3.28-0.88-6.56-0.07-9.79 2.91-0.49 6.88 1.25 8.95-1.43 0.41-3.82 0.06-7.67 0.15-11.5-1-0.56-1.98-1.11-2.95-1.64 0.18-2.83-0.11-5.85-3.06-7.09-0.04-3.98-0.01-7.95-0.03-11.92 1.27-0.77 2.46-1.64 3.62-2.56-1.54-1.34-3.65-2.32-3.92-4.54 1.31-0.84 2.63-1.67 3.94-2.52-1.17-0.95-2.37-1.83-3.61-2.61-0.03-13.34 0.03-26.67-0.04-40 1-0.56 2.01-1.12 3.03-1.66 0.03-8.52-0.01-17.03 0.03-25.55-1.03-0.59-2.05-1.16-3.07-1.7 0.04-2.98 0.04-5.96-0.01-8.93 1.05-0.58 2.11-1.15 3.17-1.73-0.1-1.5-0.01-3-0.36-4.43-1.55-1.78-3.28-3.39-4.89-5.09-1.88 0.16-3.75 0.35-5.61 0.53-0.74-0.74-1.47-1.47-2.19-2.17 0.12-2.86 0.14-5.71 0.05-8.55-0.39-1.38 0.5-3.26 2.12-3 1.75 0.06 3.51 0.14 5.27-0.07l0.86-0.09c0.85 1.22 1.67 2.48 2.52 3.75 2.39-3.22 5.41-5.89 7.84-9.08 0.67-1.78 0.85-4.52-1.13-5.53-2.52-0.42-5.1-0.16-7.63-0.22-0.33-1.8-0.99-3.79 0.25-5.4 1.9-2.28 4.14-4.23 6.19-6.36-0.45-0.57-1.35-1.71-1.8-2.29-2.47 0.46-4.93 1.03-7.44 1.03-0.11-1.12-0.21-2.22-0.29-3.31 1.04-0.57 2.09-1.14 3.15-1.7-0.12-2.48 0.27-5.03-0.31-7.44-1.24-1.77-3.44-3.01-3.75-5.28 1.12-3.61 4.56-5.61 6.79-8.45 0.62-7.4 0.03-14.89 0.27-22.32 1.51-0.12 3.07-0.13 4.6-0.39 2.4-1.42 0.38-5.01 2.63-6.57 2-1.43 1.85-3.9 1.85-6.09 1.01-0.72 2.06-1.41 3.1-2.11-0.09-1.84-0.14-3.67-0.18-5.49-3.02-0.28-6.1 0.23-9.03-0.68-0.02-1.88-0.03-3.75-0.03-5.61 0.91-0.61 1.83-1.22 2.75-1.83 0.72-2.65 0.17-5.47 0.3-8.17 1.75-1.61 3.28-3.44 5.17-4.87 1.28-0.23 2.59-0.26 3.9-0.37-0.02-3.91 0.01-7.81-0.04-11.7 1.13-1.14 2.26-2.27 3.38-3.43-0.29-2.41-0.21-4.81-0.17-7.22-1.29-0.86-2.56-1.75-3.76-2.7 2.41-2.48 4.83-4.96 7.33-7.35-1.11-5.18-0.68-10.52-0.62-15.76-0.09-1.73 0.95-3.63-0.08-5.19-0.89-1.21-2.02-2.2-3.06-3.23 0.02-2.41 0.02-4.81-0.03-7.21 1.41-0.98 3.03-1.86 3.65-3.58-0.53-3.69-0.93-7.45-0.21-11.14 0.76-2.41-1.72-3.91-3.41-5.02 0.01-4.74 0.02-9.47-0.01-14.19 1.27-1.41 3.09-2.56 3.58-4.5-0.17-2.12-0.97-4.28-0.37-6.37 1.6-1.6 3.2-3.2 4.65-4.95 2.22 0.23 4.45 0.47 6.71 0.59 0.44-0.59 1.33-1.75 1.78-2.33-1.32-1.32-3.56-1.98-3.76-4.06-0.74-2.53 1.51-4.45 2.9-6.23 1.19-2.28 4.11-1.24 6.17-1.51 0 1.76 0.87 3.75-0.2 5.38-1.17 1.46-2.48 2.84-3.17 4.61 1.82 0.1 3.67 0.16 5.53 0.22 0.73-1.01 1.46-2.01 2.23-2.99 1.72-0.19 3.42-0.53 5.04-1.2-0.05-2.6-0.25-5.19 0-7.77 1-1.97 2.98-3.26 4.15-5.16 2.39-0.03 4.8 0 7.22-0.08 1.4-2.68 3.64-4.73 5.67-6.91 2.12-0.02 4.25-0.03 6.39-0.07 1.1-1.36 2.24-2.69 3.42-3.99z"/>
  <path d="m1124.1 819.78c1.72 1.75 3.36 3.59 5.19 5.26-0.45 0.98-0.93 1.95-1.42 2.92-1.6-0.45-3.19-0.89-4.78-1.26-0.06-2.36-0.18-4.79 1.01-6.92z"/>
  <path d="m707.39 828.41c0.77-1.71 2.74-1 4.2-1.15 0.16 2.59 0.53 5.37-0.77 7.76-1.18-0.35-2.8-0.13-3.42-1.43-0.18-1.73-0.18-3.47-0.01-5.18z"/>
  <path d="m442.21 845.14c1.45-0.45 2.91-1.12 4.48-0.94 1.02 0.76 1.13 2.05 1.39 3.21-2.1 1.3-3.67 3.18-5.23 5.06-1.7-2.24-2.02-4.86-0.64-7.33z"/>
  <path d="m439.4 858.34c2.15-1.01 2.59 2.04 2.7 3.52-0.71 0-2.12 0.02-2.83 0.03-0.39-0.52-1.15-1.55-1.54-2.07 0.42-0.37 1.25-1.11 1.67-1.48z"/>
  <path d="m1138.5 865.73c2.31-2.05 4.71-4.31 8.08-3.66 1.61 1.88 3.56 3.5 4.81 5.69-2.14 1.4-3.72 3.41-5.29 5.39-1.04-1.13-1.79-2.57-3.08-3.39-1.52-0.21-3.05-0.25-4.55-0.36-0.08-1.23-0.28-2.47 0.03-3.67z"/>
  <path d="m255.91 866.46c0.48-0.37 1.45-1.12 1.93-1.5 0.75 1.3 1.49 2.62 2.2 3.96-0.7 1.28-1.39 2.56-2.11 3.85-1.48-0.53-2.08-1.52-1.81-2.96-0.01-0.4-0.01-1.21-0.02-1.61-0.04-0.43-0.14-1.3-0.19-1.74z"/>
  <path d="m695.25 872.41c0.5-0.3 1.48-0.89 1.97-1.19 1 0.89 1.97 1.8 2.95 2.75-1.02 1.05-2.06 2.1-3.1 3.14-0.45-0.38-1.36-1.14-1.81-1.52-0.01-1.07-0.01-2.13-0.01-3.18z"/>
  <path d="m888.48 896.23c1.69 0 3.39-0.06 5.09 0.12 1.95 1.41 0.8 4.19 1.15 6.24-2.94 1.5-4.54 4.42-6.77 6.7 0.21 1.11 0.46 2.23 0.71 3.37-0.72 0.67-1.41 1.35-2.09 2.05-1.74-0.26-4 0.59-5.21-1.06-0.24-3.09-0.24-6.2-0.03-9.27 2.2-2.87 4.97-5.25 7.15-8.15z"/>
  <path d="m3127.6 950.49c21.79-7.16 44.56-11.05 67.4-12.45 13.36-0.04 26.73-0.14 40.11 0.06 11.4 1.04 22.83 2.15 34.11 4.38 0.13 0.02 0.37 0.07 0.5 0.1 2.83 0.62 5.68 1.28 8.57 1.91 0.13 0.03 0.41 0.1 0.54 0.13 0.82 0.2 2.46 0.61 3.28 0.81 0.14 0.04 0.41 0.11 0.54 0.15 20.83 5.48 41.05 14.37 58.04 27.75 7.01 5.26 12.92 11.77 19.04 18 4.97 6 9.56 12.33 13.63 18.99 0.06 0.11 0.18 0.32 0.25 0.42 10.46 18.13 16.84 38.47 19.38 59.2 3.45 25.51 1.7 51.43-2.38 76.76-6.37 39.44-18.56 78.94-42.39 111.5-23.42 32.81-57.05 58.11-94.84 72.02-24.75 9.08-51.04 13.43-77.31 14.54-24.17 0.61-48.46-0.17-72.26-4.68-18.82-3.56-37.4-9.32-54.08-18.85-32.55-18.16-55.29-50.98-65.08-86.54-0.03-0.11-0.1-0.35-0.14-0.47-0.74-2.48-1.36-4.98-1.83-7.48-0.03-0.16-0.1-0.47-0.13-0.63-0.36-1.48-0.66-2.95-0.89-4.41-0.03-0.13-0.08-0.4-0.11-0.53-2.03-9.6-2.44-19.39-3.36-29.11 0.15-8.47-0.57-17.01 0.53-25.42 2.87-46.14 14.57-92.72 39.78-131.96 0.08-0.12 0.24-0.37 0.32-0.49 0.4-0.62 1.21-1.85 1.62-2.47 0.07-0.11 0.23-0.35 0.3-0.46 0.42-0.62 1.26-1.86 1.67-2.48 0.08-0.11 0.23-0.32 0.3-0.43 11.16-15.78 24.27-30.22 39.47-42.19 18.4-15.31 39.95-26.5 62.4-34.62 0.14-0.06 0.42-0.16 0.56-0.21 0.48-0.16 1.43-0.49 1.91-0.66 0.14-0.04 0.41-0.14 0.55-0.18m34.77 88.11c-0.13 0.07-0.39 0.2-0.53 0.26l-0.57 0.29c-0.13 0.06-0.38 0.19-0.51 0.25-10.85 5.28-20.13 13.31-27.97 22.39-7.64 9.39-13.04 20.36-17.45 31.57-7.12 19.32-10.81 39.74-12.92 60.16-0.97 5.5-0.33 11.13-1.22 16.65-0.79 6.29 0.63 12.54 0.63 18.84 1.01 14.08 4.85 28.32 13.28 39.85 12.19 16.86 33.62 24.8 53.94 24.38 21.59 0.84 43.86-5.63 60.33-19.92 4.49-4.52 9.47-8.68 12.99-14.05 13.53-19.46 19.74-42.84 24.22-65.81 2.62-14.69 4.87-29.52 4.77-44.47 0.31-13.07-1.02-26.33-5.53-38.67-6.33-18.58-22.8-32.76-41.72-37.47-20.41-4.96-42.75-3.62-61.74 5.75z"/>
  <path d="m1521.1 946.17c-0.05-1.54 1.62-2.25 2.95-1.97 67.98 0.06 135.95 0.01 203.93 0.03 5.68 0.07 11.42-0.39 17.05 0.7 13.98-0.14 27.85 1.49 41.68 3.42 11.58 2.17 23.41 4.42 33.93 9.99 9.43 4.44 18 10.9 24.65 18.95 0.07 0.09 0.21 0.27 0.28 0.35 4.08 5.18 7.86 10.67 10.67 16.66 0.06 0.14 0.18 0.4 0.24 0.54 9.88 20.62 10.08 44.48 5.77 66.55-2.68 14.75-8.01 28.99-15.73 41.84-0.07 0.11-0.21 0.34-0.28 0.45-11.25 17.83-26.95 32.76-45.14 43.4-14.61 8.66-31.03 13.64-47.53 17.27 9.35 3.57 18.94 7.03 27.09 12.97 5.96 4.01 9.92 10.13 14.21 15.75 6.5 9.68 13.42 19.24 17.86 30.1 14.17 37.46 28.39 74.89 42.61 112.33 7.86-15.46 16.38-30.56 24.03-46.14 4.62-9.59 10.11-18.71 14.66-28.33 4.54-9.64 10.05-18.75 14.66-28.34 3.53-6.79 6.63-13.81 10.62-20.35 4.18-8.19 8.26-16.44 12.43-24.64 6.06-10.49 11.03-21.56 16.68-32.28 4.54-7.67 8.18-15.83 12.3-23.72 2.91-6.28 6.69-12.09 9.63-18.36 3.99-7.66 7.5-15.59 11.96-23 5.61-10.75 10.61-21.82 16.69-32.32 4.12-8.22 8.25-16.44 12.4-24.64 4.92-8.3 8.87-17.13 13.32-25.68 2.83-6.04 6.52-11.62 9.3-17.69 6.77-14.07 14.58-27.59 21.33-41.67 0.88-1.57 1.68-4.03 3.8-4.1 43.88-0.07 87.76 0.06 131.64-0.06 6.77 25.85 12.62 51.95 18.96 77.91 24.81 103.86 49.71 207.7 74.51 311.55 0.41 1.62 0.65 3.29 0.87 4.97h-86.15c-13.97-0.12-27.96 0.41-41.88-0.65-2.75-15.39-5.04-30.86-7.68-46.26-0.86-6.02-2.27-11.96-2.56-18.03-44.97-0.14-89.94 0-134.9-0.07-1.56 0.14-3.28-0.37-4.63 0.5-8.83 20.86-18.05 41.56-26.92 62.41-0.4 1.1-1.4 2.21-2.66 2.1-84.92 0-169.85 0.03-254.77-0.02-2.33-0.27-5.98 0.29-6.39-2.85-0.05-0.12-0.14-0.37-0.19-0.49-15.28-38.19-30.88-76.26-46.18-114.44-3.73-8.96-7.45-18.02-12.87-26.1-4.73-7.7-13.22-12.29-21.73-14.53-7.64-2.32-15.71-1.22-23.56-1.44-7.24 52.53-14.52 105.08-21.83 157.6 0.02 1.77-1.82 2.48-3.33 2.29-27.31-0.05-54.61 0.01-81.92-0.03-12.73 0.29-25.41-0.99-38.14-0.64 18.1-130.59 36.14-261.2 54.26-391.79m112.33 77.95c-3.48 26.44-7.39 52.82-10.87 79.26 16.81-0.02 33.61-0.03 50.42 0.01 11.01 0.24 21.69-2.88 32.44-4.81 14.13-2.17 26.18-12.9 31.11-26.14 2.88-7.1 3.11-14.85 2.49-22.38-1.25-7.88-5.75-15.43-12.98-19.15-10.07-5.25-21.74-6.16-32.9-6.38-6.02-0.89-12.11-0.43-18.16-0.53-13.85 0.07-27.7-0.15-41.55 0.12m425.03 136.14c-0.04 0.11-0.13 0.32-0.17 0.42-1.18 2.88-2.78 5.56-3.76 8.52-0.06 0.14-0.18 0.42-0.23 0.56-2.85 5.8-5.32 11.76-7.97 17.64 28.69-0.05 57.38-0.05 86.07-0.04-7.71-46.66-15.94-93.24-23.67-139.9-16.87 37.55-33.52 75.2-50.27 112.8z"/>
  <path d="m2380.1 946.17c-0.07-1.54 1.61-2.25 2.95-1.97 57.31 0.06 114.62 0.01 171.93 0.03 7.68 0.26 15.45-0.66 23.07 0.68 16.22 0.17 32.41 2.51 48.13 6.53 0.12 0.04 0.37 0.11 0.49 0.15 23.77 6.44 45.76 19.76 61.63 38.68 0.07 0.1 0.21 0.28 0.28 0.37 1.15 1.6 2.49 3.09 3.72 4.69 0.06 0.08 0.19 0.26 0.26 0.35 3.22 4.51 6.25 9.18 8.91 14.06 0.07 0.12 0.2 0.37 0.27 0.49l0.33 0.6c0.07 0.13 0.22 0.39 0.29 0.52 10.92 20.83 16.39 44.25 17.55 67.66 2.12 22.92-0.02 45.99-3.39 68.7-3.79 23.85-8.81 47.69-17.65 70.24-6.57 17.42-16.49 33.39-27.8 48.11-12.87 16.43-28.46 30.68-45.95 42.05-14.65 9.7-31 16.9-48.17 20.72-18.37 4.41-37.03 7.93-55.91 9.03-6.38-0.17-12.68 0.94-19.05 0.74-50.02-0.03-100.04 0.01-150.06-0.02-8.69-0.65-17.39-0.62-26.09-0.62 18.1-130.59 36.14-261.19 54.26-391.79m110.67 87.68c-1.76 9.29-2.61 18.74-4.04 28.09-8.68 62.1-17.09 124.23-25.89 186.31 20.73-0.34 41.61 1.13 62.19-1.99 11.9-1.54 23.85-5.22 33.31-12.87 6.28-4.38 10.79-10.69 15.25-16.81 12.99-19.56 17.21-43.23 21.13-65.96 1.62-11.48 3.48-22.97 3.63-34.59 0.86-7.01 0.98-14.16 0.05-21.17-0.39-9.97-2.16-19.98-5.99-29.22-4.57-10.75-13.79-19.11-24.37-23.77-11.89-5.5-25.11-7.07-38.03-7.95-12.42-0.14-24.83 0-37.24-0.07z"/>
  <path d="m2813.3 945.37c0.6-1.02 1.51-1.41 2.74-1.17 40.01 0.06 80.02 0.01 120.03 0.03-2.06 20.68-5.4 41.27-8.09 61.91-14.75 106.28-29.43 212.58-44.16 318.87-0.61 4.01-0.87 8.1-1.78 12.07-0.2 1.42-2.03 1.58-3.13 1.55-26.98-0.05-53.95 0.01-80.92-0.03-13.04 0.29-26.03-0.94-39.07-0.67 3.55-22.73 6.4-45.58 9.64-68.36 13.33-96.03 26.56-192.08 39.93-288.11 1.45-12.05 3.53-24.03 4.81-36.09z"/>
  <path d="m602.29 1081.2c0.3-2.98 4.28-1.83 6.33-1.8 1.85 0.93 0.69 2.94 0.29 4.4-2.21-0.36-7.06 1.06-6.62-2.6z"/>
  <path d="m1200.5 1110.5c2.06-0.17 4.13-0.23 6.22-0.31 0.01 2.53 0.02 5.06 0.03 7.6-2.16-0.08-4.3-0.11-6.44-0.13-0.04-2.4-0.04-4.79 0.19-7.16z"/>
  <path d="m579.28 1183.1c3.34 0.22 6.75-0.33 10.05 0.32 1.41 1.77 2.9 3.49 4.56 5.06-0.12 2.09-0.49 4.16-0.92 6.22 3.19 2.93 5.64 6.53 8.6 9.68 1.55-2.77 3.68-5.11 5.86-7.38 3.54-0.23 7.51 2.65 7.66 6.34-1.1 0.58-2.19 1.18-3.26 1.81-0.04 1.28-0.07 2.57-0.1 3.88 4.67 4.06 8.09 9.39 12.86 13.37-0.02 1.14 0 2.29 0.05 3.46 3.82 5.87 9.52 10.29 13.54 16.01 3.45-0.51 5.6 2.12 7.52 4.55 0.34 2.12 0.22 4.29 0.19 6.44 0.28 2.43-3.55 3.51-2.05 6.05 1.48 0.28 3.01 0.3 4.53 0.41 1.95 3.08 4.82 5.39 7.13 8.17 0.37 2.11 0.02 4.28 0.18 6.43 2.08 3.39 5.14 6.06 7.51 9.27 1.2 0 2.41 0.02 3.62 0.05 0.59-1.06 1.17-2.11 1.74-3.16 3.73 0.06 7.47 0.04 11.21-0.02-0.76 4.16 2.26 6.94 4.67 9.84 1.08 0.32 2.19 0.43 3.35 0.32 1.46-0.78 1.83-2.78 3.42-3.36 1.94-0.11 3.88-0.04 5.83-0.17 2.12 2.04 4.33 4.08 5.77 6.7 9.32-0.05 18.72 0.87 28-0.21 1.86 1.49 3.15 4.67 6.02 3.97 1.39-0.18 1.89-1.76 2.85-2.57 3.54-4.15 7.41-7.99 10.99-12.09 1.24-1.53 0.02-3.93 1.56-5.35 2.11-2.22 3.96-4.69 6.16-6.81 2.04-1.78 4.97-0.81 7.42-1.26 2.59-2.07 0.91-5.94 1.31-8.8-0.94-0.65-1.84-1.3-2.73-1.95-0.59-2.94-0.16-5.98-0.28-8.94 0.99-0.57 1.99-1.12 3-1.66 0-1.9 0.03-3.79 0.09-5.66 1.46-0.01 2.94 0 4.42 0.02 0.97 1.33 1.86 2.8 3.37 3.63 0.75-1.18 1.49-2.34 2.26-3.48 4.03 0.63 6.03-3.16 8.33-5.72 2.2-2.92 5.25-5.14 7.03-8.38 7.48 0.02 14.96-0.03 22.44 0.04 1.45-1.69 2.74-4.83 5.49-3.9 1.85 1.24 2.96 3.99 5.49 3.85 2.54 0.1 5.08-0.01 7.63 0 2.48 2.31 4.81 4.78 4.6 8.42 1.98 1.9 2.89 4.27 3.03 7.01 1.43 1.91 2.9 3.81 4.21 5.84 1.24-1.27 2.28-2.72 3.15-4.25 1.24-0.01 2.48-0.01 3.74 0.01 1.13 1.95 2.78 3.52 4.24 5.23 0.24 1.4 0.23 2.83 0.34 4.27 4.07 1.68 2.87 6.38 2.69 9.88-1.36 1.61-2.74 3.23-3.91 5-1.77 0.16-3.48 0.59-5.1 1.27 0.17 6.27 0 12.55 0.11 18.83-1.07 0.73-2.14 1.47-3.19 2.23 0.04 1.37 0.1 2.75 0.16 4.15 0.75 0.16 2.25 0.48 3 0.64-0.02 1.2-0.01 2.42 0.02 3.66-1.05 0.55-2.08 1.13-3.09 1.73 0.09 4.2 0.03 8.41 0.07 12.63-1.63-0.04-3.25-0.06-4.86-0.08-1.29 1.88-3.06 3.42-4.22 5.4-0.15 2.52-0.01 5.06 0.06 7.6-1.07 0.71-2.15 1.41-3.21 2.15 0.1 2.62 0.14 5.25 0.21 7.89-1.08 0.71-2.16 1.43-3.21 2.18 0.07 2.88 0.15 5.78 0.07 8.69-1.72 0.59-3.5 0.98-5.24 1.51-2.73 2.16-4.82 5.01-7.48 7.27-0.23 1.58 0.2 3.37-0.59 4.84-2.22 2.53-4.68 4.85-6.7 7.56-2.12 0-4.24-0.01-6.35 0.03-1.74 2.85-4.49 4.37-7.82 4.39 0.05 1.45 0.14 2.93 0.24 4.42-0.36 0.43-1.09 1.28-1.45 1.71-1.95 0.27-3.92 0.57-5.63 1.61 0.48 3.96 2.29 8.7-0.39 12.22-3.35 1.15-7.2 0.24-10.73 0.45-1.73-2.55-3.77-4.87-5.43-7.45-3.17 3.21-5.76 6.92-8.8 10.25-3.23 0.84-6.69-0.19-9.94 0.54-2.18 1.99-4.13 4.23-5.6 6.81-2.46-0.08-4.91-0.08-7.36 0.01-0.79-1.28-1.54-2.57-2.3-3.83-0.54 0.28-1.62 0.83-2.16 1.11 0.39 1.76 0.71 3.56 0.85 5.4-1.81 0.24-3.63 0.39-5.44 0.51-0.69 1.17-1.37 2.36-2.05 3.56-1.33 0.1-2.66 0.19-3.98 0.31-0.65 0.91-1.31 1.82-1.98 2.73-2.98 0.47-6.03 0.14-9.02 0.22-0.59-2.74-0.64-5.56-0.45-8.32 0.77-1.89 2.64-2.96 3.95-4.41-1.49-0.72-3.01-1.64-4.72-1.23-6.93 0.9-14 0.81-20.93 0.01-1.64 0.74-2.43 2.4-3.4 3.81-2.73-0.47-4.95 0.72-6.17 3.18-1.39-0.01-2.77 0.01-4.15 0.05-1.44-1.67-3.14-3.06-4.96-4.28 0.33-2.15 0.7-4.36-0.17-6.42-1.27 1.02-2.24 2.33-3.1 3.71l-0.69-0.06c-2-0.23-4.02-0.22-6.01-0.04-0.5 0.03-1.51 0.1-2.02 0.13-0.08-3.39-0.02-6.78-0.03-10.16-1.57-0.04-3.14-0.08-4.69-0.12-0.6 1.92-0.87 3.93-1.28 5.91-1.41 1.99-2.86 4.07-4.89 5.49-0.9-1.42-1.75-2.86-2.58-4.29-2.41-0.03-4.82-0.01-7.23-0.01-1.49-2.64-3.88-4.57-5.5-7.1-2.3 0.07-4.6 0.11-6.9 0.2-0.56-1.02-1.11-2.03-1.63-3.03-1.43-0.07-2.85-0.13-4.27-0.15-0.83-1.25-1.65-2.49-2.49-3.7-5.7 0.79-7.07-6.15-11.47-8.27-0.23-2.01 0.72-4.7-1.52-5.79-4.15-0.26-8.31-0.04-12.47-0.06-1.11-1.68-2.51-3.1-4.18-4.2-0.03-2.82 0.03-5.64 0.05-8.45-1-0.6-1.99-1.17-2.97-1.73-0.16-1.62 0.26-3.41-0.55-4.86-1.23-1.21-3-2.12-3.36-3.93-0.24-1.93 0.55-3.77 1.04-5.58-0.43-0.68-1.29-2.04-1.72-2.73-0.88 1.4-1.72 2.85-2.5 4.33-2.32-0.02-4.63-0.01-6.93 0.1-1.11-1.32-2.14-2.7-3.13-4.07-3.58 0.13-7.17 0.17-10.74-0.08-0.34-3.83-0.03-7.68-0.18-11.5-0.99-2.1-3.04-3.49-4.43-5.31-2.08-0.08-4.15-0.14-6.22-0.23-2.21-2.86-4.53-5.66-7.21-8.1-0.67-6.52-0.46-13.15-1.13-19.66-1.47-0.05-2.94-0.08-4.4-0.11-1.03 1.16-1.55 3.6-3.53 3.2-0.64-0.94-1.23-1.89-1.78-2.85-2.24-0.11-5.08 0.18-5.73-2.57 1.42-0.9 2.86-1.76 4.29-2.63-2.17-2.6-4.55-4.99-7.04-7.24 0.06-1.35 0.04-2.69 0.32-3.97 2.35-2.47 5.08-4.72 6.81-7.67 0.16-2.56-2.09-4.09-3.97-5.29 0.19-5.79-0.56-11.68 0.7-17.39-1.25-1.23-2.5-2.44-3.76-3.62 0.03-2.91 0.1-5.81-0.02-8.7-1.97-0.38-4.72 0.76-5.93-1.33-0.17-1.39-0.13-2.78-0.13-4.14 2.67-2.45 5.28-5 7.2-8.09 2.13-0.11 4.31-0.3 6.15-1.51-1.43-3.19-5.57-1.38-7.19-4.12-0.26-2.74-0.08-5.49 0.3-8.19 1.72-0.25 3.46-0.39 5.22-0.46 0.58-0.95 1.15-1.89 1.72-2.83 1.33-0.14 2.66-0.29 4-0.45 0.87-1.38 1.77-2.73 2.7-4.05 2.61 2.53 3.78 7.59 7.96 7.64 0.01-2.02 0.16-4.04-0.18-6.02-0.93-0.69-1.88-1.31-2.86-1.88 0.05-2.67-0.24-5.37 0.19-8 1.2-1.53 2.38-3.07 3.68-4.5 1.98-1.19 4.43-0.61 6.63-0.66 2.48 1.4 0.99 4.76 2.26 6.96 2.57-0.16 5.21 0.24 7.75-0.34 2.08-2.09 4.02-4.31 5.67-6.75 2.24 0.19 4.49 0.35 6.75 0.39 0.73-1.17 1.47-2.33 2.22-3.46z"/>
  <path d="m598.94 1189.9c1.45-2.58 3.42-4.8 5.07-7.24 1.58 1.56 3.21 3.09 4.68 4.78 0.28 1.72 0.2 3.47 0.26 5.23-2.55 0.49-5.1 0.99-7.69 1.24-0.8-1.34-1.55-2.68-2.32-4.01z"/>
  <path d="m197.28 1208.3c1.41-2.26 6.38-1.51 5.6 1.74-0.16 3.61 0.86 7.26 0.02 10.84-1.89-0.28-4.44 0.73-5.65-1.22-0.16-3.79-0.2-7.59 0.03-11.36z"/>
  <path d="m1116.3 1231.4c2.42-1.11 5.05-1.1 7.45 0.09-0.25 1.37 0.41 3.34-1.16 4.12-1.39 0.11-2.77 0.09-4.14 0.13-0.71-0.71-1.41-1.4-2.1-2.07-0.01-0.57-0.04-1.71-0.05-2.27z"/>
  <path d="m417.09 1252.1c0.7 0 2.11-0.02 2.81-0.02-0.01 1.23-0.02 2.49-0.01 3.75-0.69-0.02-2.06-0.06-2.75-0.08-0.02-1.23-0.03-2.45-0.05-3.65z"/>
  <path d="m754.75 1259.1c1.96 0.29 4.78-0.89 5.98 1.28 0.17 1.4 0.16 2.83 0.21 4.27-0.51 0.39-1.54 1.17-2.05 1.56-1.46-2.33-4.39-4.06-4.14-7.11z"/>
  <path d="m860.44 1272.3c0.6-0.04 1.81-0.12 2.41-0.15 0.92 1.98 0.81 4.2 0.88 6.36-0.76 0.71-1.51 1.45-2.24 2.2-1.88-0.04-3.79-0.15-5.52-0.93 0.05-3.23 2.95-4.96 4.47-7.48z"/>
  <path d="m1117.4 1379.4c1.69-0.17 3.41-0.17 5.13-0.02 1.25 0.77 1 2.33 1.09 3.61-0.03 3.22 0.1 6.45-0.08 9.68-1.67 2.49-5.49 2.41-7.18 0-0.15-4.08-0.15-8.17 0-12.24 0.26-0.26 0.78-0.78 1.04-1.03z"/>
  <path d="m392.08 1393.2c1.25 0.01 2.5 0.02 3.76 0.05-0.1 1.4-0.2 2.81-0.34 4.24-1.16 0.09-2.31 0.18-3.46 0.29-0.51-1.53-0.82-3.12 0.04-4.58z"/>
  <path d="m387.76 1420.8c1.72-0.86 3.54 0.06 5.22 0.56-0.32 3.61-3.59 6.48-6.76 7.78-1.06-2.64-2.24-7.45 1.54-8.34z"/>
  <path d="m268.16 1478.7c0.6-2.69-1.6-8.05 2.18-8.51 0.58-0.01 1.75-0.04 2.33-0.05l0.78-0.16c2.29 2.96 4.6 5.97 7.52 8.36 0.43 3.58-2.73 5.72-4.34 8.53-1.51 0.01-3.02 0.02-4.52 0.09-1.09-1.78-0.8-3.9-0.84-5.86-1.04-0.82-2.08-1.62-3.11-2.4z"/>
  <path d="m308.35 1532.4c0.72-1.11 2.18-1.01 3.3-1.34 1.08 2.5 1.17 5.2 0.12 7.75-1.18-0.01-2.36 0-3.53 0.03-0.01-2.16-0.13-4.31 0.11-6.44z"/>
  <path d="m1040.4 1539.2c1.77-0.18 3.57-0.03 5.37 0.09 0.03 1.82 0.04 3.66 0.02 5.52-1.68 0.65-4.23 1.98-5.53 0.02-1.49-1.42-1.65-4.4 0.14-5.63z"/>
 </g>
 <g transform="translate(-191.01 -105.99)" fill="#214486">
  <path d="m1530 418.97c87.37 0.1 174.73-0.05 262.1 0.08-2.32 9.95-3.09 20.16-4.97 30.2-2.46 16.17-5.07 32.33-7.43 48.52-51.86-0.19-103.73-0.08-155.59-0.07-2.72 21.15-6.53 42.17-9.52 63.29 44.18 0.04 88.36-0.03 132.53 0.03-3.71 24.66-7.67 49.31-11.39 73.98-44.21 0.02-88.43-0.04-132.65 0.03-2.02 11.03-2.94 22.28-5.47 33.2-0.65 1.42-1.05 2.95-0.75 4.52-0.68 10.09-3.05 20.04-4.25 30.09-1.79 10.93-3.38 21.9-5.11 32.84-1.06 5.5-1.26 11.17-2.89 16.55-0.65 1.41-1.06 2.94-0.75 4.51 0.13 4.56-1.22 9-1.78 13.5-0.49 4.63-1.46 9.19-2.29 13.77-35.52-0.02-71.04-0.01-106.56 0 6.27-39.16 12.15-78.38 18.26-117.57 12.48-79.65 24.71-159.31 36.97-238.98 0.73-2.8 0.37-5.79 1.54-8.49z"/>
  <path d="m1897.4 418.99c28.86 0.02 57.72 0.01 86.58 0.01 9.86 0.13 19.74-0.27 29.6 0.21 1.48 11.35 4.62 22.4 6.41 33.71 22 110.34 43.55 220.77 65.64 331.09-37.13-0.03-74.26 0.02-111.38-0.03-1.33-15-3.75-29.89-5.32-44.88-0.37-3.13-1.28-6.25-0.85-9.43 0.22-1.52 0.25-3.18-0.72-4.45-0.22-0.36-0.65-1.09-0.87-1.45-39.85 0.13-79.71 0.05-119.57 0.04-0.76 1.47-1.42 3-2.35 4.37-0.18 0.51-0.54 1.55-0.72 2.07l-0.15 0.76c-0.05 0.12-0.13 0.36-0.17 0.48-0.55 1.29-1.2 2.53-1.95 3.71-0.19 0.52-0.57 1.55-0.75 2.07l-0.17 0.74c-0.04 0.12-0.12 0.35-0.16 0.47-0.53 1.3-1.17 2.54-1.92 3.72-0.19 0.52-0.57 1.55-0.76 2.07l-0.15 0.75c-0.04 0.11-0.12 0.35-0.16 0.46-0.53 1.3-1.18 2.54-1.92 3.72-0.19 0.52-0.58 1.55-0.77 2.07l-0.18 0.73c-0.05 0.12-0.13 0.35-0.17 0.46-4.59 10.49-9.05 21.04-13.62 31.54-36.21-0.02-72.43 0.03-108.64-0.02 1.89-4.8 5.02-8.95 7.13-13.64 9.84-19.49 19.44-39.12 29.48-58.51 10.13-19.34 19.74-38.96 29.57-58.46 10.22-18.7 19.24-38.03 29.01-56.97 13.77-26.39 26.94-53.09 40.34-79.68 4.49-7.4 7.91-15.38 11.94-23.04 10.51-21.08 21.06-42.14 31.99-62.99 1.9-3.9 3.98-7.72 5.73-11.7m41.97 95.97c-2.03 3.62-3.29 7.6-5.16 11.3-17.37 39.61-34.97 79.14-52.36 118.74 25.08 0.34 50.15-1.42 75.24-0.29-5.1-33.54-8.94-67.26-13.7-100.85-1.3-9.64-2.14-19.36-4.02-28.9z"/>
  <path d="m2174.2 418.99c46.6 0.02 93.2 0.02 139.79 0-0.16 2.74 0.26 5.44 0.85 8.11 0.05 9.02 1.66 17.91 2.15 26.89 4.77 53.33 9.26 106.69 13.97 159.99 0.02 5.11 1.51 10.14 0.97 15.29-0.32 1.53 0 3.06 0.6 4.49 0.57 1.8 0.34 3.75 0.54 5.64 0.33-0.32 1.01-0.95 1.34-1.27 0.17-0.49 0.51-1.49 0.68-1.99 3.89-11.46 8.9-22.6 13.19-33.95 20.95-52.47 41.63-105.04 62.4-157.57 3.32-8.52 6.79-16.98 9.93-25.57 46.53-0.08 93.06-0.11 139.59 0.02-3.69 20.36-6.41 40.91-9.77 61.35-9.88 64.09-19.84 128.17-29.76 192.26-0.98 3.8-0.55 7.86-2 11.55-0.66 1.42-1.07 2.95-0.75 4.52-0.1 5.5-1.35 10.95-2.37 16.34-0.71 0.83-0.91 1.76-0.6 2.79 0.18 3.44-0.66 6.87-1.39 10.21-0.71 0.82-0.92 1.75-0.61 2.79 0.19 3.44-0.75 6.85-1.39 10.21-0.71 0.82-0.92 1.75-0.61 2.79 0.16 3.44-0.73 6.85-1.42 10.21-0.69 0.83-0.89 1.76-0.58 2.8 0.16 3.44-0.73 6.85-1.42 10.2-0.69 0.83-0.88 1.76-0.59 2.8 0.15 2.82-0.36 5.67-1.27 8.34-0.66 1.41-1.07 2.95-0.75 4.52 0.26 3.8-1.09 7.47-1.29 11.25-28.9-0.01-57.79 0.01-86.68-0.01 0.84-9.4 2.81-18.68 4.11-28.03 9.72-63.21 19.52-126.42 29.35-189.64 0.95-3.8 0.52-7.86 2-11.55 0.62-1.43 1.01-2.98 0.75-4.54 0.09-0.83 0.27-2.48 0.36-3.31 0.66-0.85 0.86-1.81 0.6-2.85 0.09-0.8 0.28-2.39 0.38-3.18 0.63-1.12 0.89-2.41 0.65-3.68 0.1-0.82 0.29-2.48 0.39-3.31 0.65-0.88 0.84-1.85 0.58-2.9 0.06-0.52 0.19-1.55 0.25-2.06 0.66-1.46 1.08-3.05 0.81-4.66 0.08-0.84 0.24-2.51 0.31-3.35 0.68-0.83 0.89-1.77 0.65-2.8-0.01-0.45-0.01-1.34-0.01-1.79 0.32-2.9 0.87-5.76 1.39-8.63-0.76 1.6-1.46 3.21-2.06 4.86-0.69 1.56-1.34 3.12-1.9 4.71-0.05 0.12-0.15 0.37-0.19 0.5-1.51 3.75-2.74 7.63-4.61 11.2-0.2 0.48-0.6 1.45-0.81 1.93-0.04 1.14-0.44 2.16-1.18 3.07-0.2 0.49-0.61 1.45-0.82 1.93-0.05 1.14-0.44 2.16-1.17 3.08-0.2 0.49-0.61 1.45-0.81 1.93-2.3 7.14-5.31 14.13-8.22 21.06-0.21 0.47-0.62 1.43-0.83 1.91-0.04 1.13-0.42 2.16-1.14 3.08-0.21 0.48-0.64 1.44-0.85 1.92-0.05 1.13-0.44 2.16-1.15 3.08-0.21 0.48-0.64 1.44-0.85 1.92-0.03 1.15-0.41 2.18-1.15 3.1-0.21 0.48-0.62 1.45-0.82 1.93-0.05 1.13-0.44 2.15-1.17 3.07-0.21 0.48-0.62 1.44-0.83 1.92-3.39 10.26-7.96 20.18-11.71 30.35-1.56 3.55-2.65 7.32-4.48 10.73-0.2 0.49-0.61 1.45-0.81 1.93-0.05 1.13-0.44 2.15-1.17 3.06-0.21 0.48-0.62 1.44-0.83 1.93-4.92 13.82-10.61 27.49-16.19 41.09-0.2 0.48-0.61 1.44-0.81 1.92-0.05 1.13-0.44 2.16-1.19 3.07-0.2 0.48-0.61 1.44-0.81 1.93-0.06 1.12-0.44 2.15-1.15 3.08-0.21 0.48-0.63 1.44-0.84 1.92-4.25 12.17-9.33 24.13-14.19 36.08-0.21 0.48-0.62 1.44-0.83 1.92-0.04 1.13-0.43 2.15-1.18 3.07-0.2 0.48-0.61 1.45-0.81 1.93-0.06 1.12-0.44 2.15-1.15 3.08-0.21 0.48-0.63 1.44-0.84 1.92-3.6 10.49-7.99 20.8-12.21 31.08-0.2 0.48-0.6 1.44-0.81 1.92-0.04 1.13-0.43 2.15-1.18 3.07-0.2 0.48-0.61 1.45-0.81 1.93-0.05 1.12-0.44 2.14-1.17 3.06-0.21 0.48-0.62 1.44-0.83 1.92-0.53 2.83-1.9 5.47-3.04 8.11-26.25-0.02-52.49-0.01-78.73 0-0.58-14.32-2.65-28.51-3.3-42.83-1.01-3.93-0.66-8.01-1-12-1.21-4.99-0.49-10.18-1.63-15.17 0.07-6.37-1.43-12.58-1.28-18.96-0.87-3.91-0.85-7.91-1.08-11.88-1.06-4.21-0.53-8.58-1.16-12.83-1.07-4.47-0.19-9.15-1.31-13.61-2.33-30.82-5.33-61.57-7.67-92.39-0.64-3.17-0.82-6.42-0.61-9.63 0.27-1.87-0.07-3.73-0.64-5.49-0.47-1.66-0.52-3.38-0.67-5.07-0.23-3.13-0.41-6.26-0.72-9.38-0.06-0.65-0.19-1.96-0.25-2.61-0.25-3.14-0.46-6.27-0.76-9.39-0.06-0.66-0.19-1.97-0.25-2.62-0.25-2.88-0.51-5.74-0.76-8.6l-0.06-0.92c0.92-0.97-0.45-3.59-1.27-1.67 0.11 0.43 0.31 1.28 0.42 1.71-0.16 0.86-0.47 2.58-0.63 3.44-0.73 0.86-0.93 1.82-0.6 2.89-0.07 0.51-0.2 1.54-0.26 2.06-0.69 1.12-1.08 2.4-0.75 3.72 0.2 1.48 0.06 2.92-0.41 4.31-0.71 0.82-0.91 1.76-0.6 2.8 0.2 2.82-0.38 5.67-1.28 8.34-0.66 1.43-1.06 2.98-0.73 4.56-0.09 0.83-0.26 2.48-0.34 3.31-0.73 0.86-0.94 1.83-0.63 2.9-0.06 0.53-0.17 1.57-0.23 2.09-0.67 1.48-1.12 3.08-0.79 4.72-0.09 0.81-0.27 2.44-0.36 3.25-0.73 0.83-0.94 1.77-0.63 2.82 0.13 3.43-0.48 6.92-1.42 10.22-0.69 0.84-0.89 1.79-0.57 2.83-0.1 0.8-0.28 2.39-0.37 3.19-0.69 1.08-0.96 2.36-0.66 3.63-4.72 33.45-10.18 66.93-15.39 100.34-0.7 0.83-0.89 1.76-0.59 2.8 0.17 3.44-0.73 6.85-1.41 10.2-0.69 0.83-0.89 1.76-0.6 2.8 0.16 2.82-0.35 5.67-1.27 8.34-0.66 1.42-1.06 2.95-0.75 4.52-0.16 5.49-1.25 10.97-2.37 16.34-0.7 0.82-0.9 1.75-0.6 2.79 0.18 3.44-0.64 6.87-1.4 10.2-0.7 0.83-0.9 1.76-0.6 2.8 0.18 3.44-0.7 6.86-1.4 10.21-0.7 0.82-0.9 1.75-0.6 2.79 0.16 3.44-0.73 6.85-1.42 10.2-0.69 0.83-0.88 1.77-0.58 2.8 0.19 2.83-0.37 5.69-1.28 8.36-0.61 1.41-1.18 2.93-0.77 4.5 0.06 0.54 0.18 1.63 0.24 2.17-29.08 0.19-58.16 0.06-87.23 0.07 18.62-121.7 37.97-243.29 56.29-364.99z"/>
  <path d="m2631.2 418.99c35.65 0.05 71.3-0.06 106.95 0.06-7.05 42.93-13.42 86-20.19 128.99-6.64 43.04-13.37 86.05-19.96 129.1-0.34 3-0.67 6.03-1.49 8.95-0.71 0.82-0.92 1.75-0.61 2.79 0.15 3.44-0.57 6.88-1.4 10.21-0.71 0.82-0.91 1.75-0.6 2.79 0.16 3.44-0.73 6.85-1.41 10.2-0.7 0.83-0.9 1.77-0.59 2.8 0.19 2.83-0.37 5.68-1.29 8.35-0.65 1.41-1.06 2.95-0.74 4.52 0.16 2.87-0.3 5.77-1.25 8.48-0.67 1.43-1.08 2.98-0.74 4.57-0.09 0.82-0.27 2.45-0.35 3.27-0.73 0.82-0.94 1.76-0.63 2.81 0.18 3.44-0.71 6.86-1.4 10.21-0.71 0.82-0.91 1.75-0.6 2.79 0.19 3.44-0.75 6.85-1.39 10.21-0.72 0.82-0.92 1.75-0.61 2.79 0.27 3.75-1.09 7.38-1.31 11.11-35.57-0.03-71.14 0.11-106.71-0.07 3.48-19.21 6-38.63 9.18-57.91 12.57-81.69 25.4-163.35 37.95-245.04 2.92-20.68 6.76-41.26 9.19-61.98z"/>
  <path d="m2813.2 418.99c35.5 0.02 71 0.01 106.5 0-13.53 84.95-26.41 170.07-39.7 255.08-0.88 6.66-1.8 13.33-3.1 19.93 55.1 0.01 110.19-0.03 165.29 0.02-2.35 13.36-3.8 26.9-6.54 40.19-0.62 1.43-1.04 2.97-0.73 4.55-0.09 5.5-1.38 10.94-2.37 16.33-0.72 0.82-0.92 1.75-0.6 2.79 0.18 3.44-0.71 6.86-1.4 10.21-0.72 0.82-0.92 1.75-0.6 2.79 0.04 4.42-1.05 8.81-1.92 13.14-90.37-0.06-180.75 0.02-271.12-0.04 18.61-121.7 37.97-243.29 56.29-364.99z"/>
  <path d="m3060.7 419.05c39.32-0.13 78.65 0 117.97-0.06 16.79 40.77 33.29 81.68 49.87 122.54 12.4-16.35 24.03-33.31 36.11-49.91 17.06-24.31 34.86-48.12 51.64-72.61 39.32-0.03 78.63 0 117.95-0.01-10.31 12.18-19.66 25.15-29.72 37.54-43.53 55.77-87.19 111.44-130.8 167.15-2.25 3.14-5.54 5.83-6.26 9.79-6.46 41.87-12.95 83.75-19.44 125.62-1.44 8.29-2.26 16.71-4.15 24.92-35.33-0.05-70.66 0.01-105.98-0.04 7.53-50.35 15.53-100.67 23.24-151.01 0.17-3.77-2.29-7.02-3.72-10.35-14.13-29.27-27.76-58.77-41.93-88.01-3.34-8.42-8.08-16.19-11.47-24.58-14.66-30.22-28.64-60.75-43.31-90.98z"/>
 </g>
</svg>
