<svg width="800" height="157.31" version="1.1" viewBox="0 0 800 157.31" xml:space="preserve" xmlns="http://www.w3.org/2000/svg">
<rect width="539.95" height="157.31" fill="#e74011" stroke-width=".8206"/>
<path d="m41.44 52.436h41.44v12.309h-26.998v7.2212h26.505v12.227h-26.505v20.515h-14.443zm65.484 31.183h25.192v-11.981h-25.192v-6.9751h25.767v-12.227h-40.127v52.354h40.62v-12.227h-26.259zm37.747 21.171h14.771v-52.354h-14.771zm42.015-21.171h25.356v-11.981h-25.356v-6.9751h25.767v-12.227h-40.127v52.354h40.62v-12.227h-26.259zm71.884 1.2309 10.504 19.94h-16.33l-8.5342-17.643h-5.8262v17.643h-14.278v-52.354h23.387c12.227 0 20.433 4.6774 20.433 17.068 0 7.8777-3.6106 12.719-9.3548 15.345zm-5.0056-14.935c0-3.2824-1.8053-5.5801-6.3186-5.5801h-8.7804v11.406h8.5342c4.6774 0 6.5648-2.1336 6.5648-5.8262zm69.751-8.6983c-1.2309 7.3854-2.6259 16.494-3.1183 22.731-0.57441-6.1545-2.2156-15.181-3.8568-22.648l-1.8053-8.8624h-13.376l-1.8053 8.8624c-1.6412 7.4674-3.2824 16.494-3.8568 22.648-0.49235-6.2365-1.9694-15.345-3.1183-22.731l-1.395-8.7804h-14.935l12.473 52.354h13.212l2.3797-11.406c1.7233-8.0418 3.2824-17.889 3.6106-21.664 0.32824 3.7748 1.8874 13.622 3.6106 21.664l2.3797 11.406h13.376l12.473-52.354h-14.771zm40.127 22.402h25.439v-11.981h-25.439v-6.9751h25.767v-12.227h-40.127v52.354h40.62v-12.227h-26.259zm72.295 1.2309 10.504 19.94h-16.248l-8.5342-17.643h-5.8262v17.643h-14.278v-52.354h23.387c12.227 0 20.433 4.6774 20.433 17.068 0 7.8777-3.6927 12.719-9.4369 15.345zm-5.0056-14.935c0-3.2824-1.8053-5.5801-6.4007-5.5801h-8.7804v11.406h8.5342c4.7595 0 6.6468-2.1336 6.6468-5.8262zm56.211 7.4674 17.15-24.946h-17.643l-10.75 19.858h-3.6106s0.24617-9.3548 0.24617-13.704v-6.1545h-14.771v52.354h14.771v-17.643h4.6774l11.652 17.643h17.233z" fill="#fff" stroke-width=".8206"/>
<g transform="matrix(.8206 0 0 .8206 0 2.2139e-6)" fill="#fff">
	<path d="m720 127.4-10.5-21.7h-7.2v21.7h-17.5v-64.4h28.8c3.7 0 7.2 0.4 10.3 1.1 3.1 0.8 5.8 2 8 3.6 2.2 1.7 3.9 3.8 5.1 6.5s1.8 5.9 1.8 9.7c0 4.8-1 8.8-3.1 11.9s-4.9 5.4-8.5 7l12.9 24.6h-20.1zm-0.9-47.9c-1.2-1.3-3.2-1.9-6.1-1.9h-10.8v14.1h10.5c3 0 5.1-0.6 6.3-1.8s1.9-3 1.9-5.3c0-2.2-0.6-3.8-1.8-5.1z"/>
	<path d="m790.9 127.4-3.5-11.3h-19.4l-3.5 11.3h-19.1l23.4-64.4h18l23.4 64.4zm-9.1-29.7c-0.6-2.1-1-3.9-1.5-5.4-0.4-1.5-0.8-2.9-1.2-4.1-0.3-1.2-0.6-2.3-0.9-3.4-0.2-1-0.5-2.1-0.6-3.2-0.2 1.1-0.4 2.2-0.6 3.2s-0.5 2.2-0.9 3.4c-0.3 1.2-0.7 2.6-1.2 4.1-0.4 1.5-0.9 3.3-1.5 5.3l-1.2 4.2h10.8z"/>
	<path d="m872.8 110.2c-1.5 4.1-3.7 7.5-6.6 10s-6.6 4.4-10.9 5.5-9.3 1.7-15 1.7h-20.9v-64.4h22.5c5 0 9.6 0.5 13.7 1.6 4.1 1 7.6 2.8 10.4 5.3 2.9 2.5 5.1 5.8 6.6 9.8 1.6 4 2.3 9.1 2.3 15.2 0.1 6-0.6 11.1-2.1 15.3zm-16.9-22.7c-0.5-2.1-1.4-3.9-2.5-5.2-1.2-1.3-2.7-2.3-4.6-3-1.9-0.6-4.2-1-7-1h-4.4v33.9h3.9c2.8 0 5.1-0.3 7.1-0.9s3.6-1.5 4.8-2.9c1.3-1.3 2.2-3.1 2.7-5.2 0.6-2.2 0.8-4.9 0.8-8 0-3-0.2-5.6-0.8-7.7z"/>
	<path d="m886.3 127.4v-64.4h18.2v64.4z"/>
	<path d="m972.7 109.3c-1.5 4.1-3.5 7.6-6.2 10.4-2.6 2.8-5.8 5-9.5 6.4-3.7 1.5-7.7 2.2-12.1 2.2s-8.4-0.7-12-2.2c-3.7-1.4-6.8-3.6-9.4-6.3-2.6-2.8-4.7-6.3-6.1-10.4s-2.2-8.9-2.2-14.2 0.7-10.1 2.2-14.2 3.5-7.6 6.2-10.4c2.6-2.8 5.8-5 9.5-6.4 3.7-1.5 7.7-2.2 12.1-2.2s8.4 0.7 12 2.2c3.6 1.4 6.8 3.6 9.4 6.3 2.6 2.8 4.6 6.3 6.1 10.4s2.2 8.9 2.2 14.2-0.7 10.1-2.2 14.2zm-19.2-27.2c-2-3-4.8-4.5-8.4-4.5s-6.4 1.5-8.3 4.4-2.9 7.3-2.9 13.2c0 5.8 1 10.2 3 13.2s4.8 4.5 8.4 4.5 6.4-1.5 8.3-4.4 2.9-7.3 2.9-13.2c0-5.8-1-10.2-3-13.2z"/>
</g>
</svg>
