<svg width="800" height="800" version="1.1" viewBox="0 0 800 800" xml:space="preserve" xmlns="http://www.w3.org/2000/svg"><link rel="stylesheet" type="text/css"/><link rel="stylesheet" type="text/css"/><style lang="en" type="text/css"/><style lang="en" type="text/css"/><g transform="matrix(1.3333 0 0 -1.3333 -601.43 964.75)"><path d="m451.07 123.56h600v600h-600z" fill="#762b84"/><path d="m863.06 303.49c0-5.8684-0.94959-11.39-8.8-11.39-4.4867 0-6.4713 2.7608-6.4713 5.9538 0 4.3134 2.7608 6.6446 10.267 6.6446h5.0042zm12.081-7.5942v18.726c0 10.697-6.5567 15.357-18.464 15.445-12.262 0-17.472-5.1675-18.836-11.98l11.415-2.3438c0.51751 3.2783 1.7258 5.4363 6.9009 5.4363 5.7829 0 6.9034-3.1075 6.9034-6.2979v-2.6754h-6.3834c-13.116 0-21.228-4.7454-21.228-14.927 0-6.9034 4.4867-13.98 15.274-13.98 7.9384 0 10.958 2.9342 12.596 5.4363 0-1.1204 0.25875-3.5371 0.60542-4.3988h11.82c-0.25875 1.035-0.60291 7.2475-0.60291 11.561m119.38 15.703c-0.088 5.1775-2.1579 9.5788-8.1971 9.5788-5.8684 0-8.2851-4.0571-8.8025-9.5788zm-17.258-7.5917c0-5.6096 2.8488-11.046 8.9734-11.046 5.1775 0 6.6446 2.0725 7.853 4.7454h12.34c-1.555-5.4338-6.4713-14.41-20.451-14.41-14.754 0-21.14 10.96-21.14 22.695 0 14.063 7.1621 24.074 21.572 24.074 15.274 0 20.537-11.131 20.537-22.263 0-1.5525 0-2.5021-0.1734-3.7958h-29.51m-13.445-5.2629c-1.4671-7.4209-6.73-15.447-20.017-15.447-13.892 0-21.054 9.5788-21.054 23.039 0 13.201 8.0238 23.73 21.657 23.73 15.013 0 19.24-10.873 19.414-15.877h-11.993c-0.77626 3.625-2.8488 6.1246-7.6796 6.1246-5.695 0-8.888-4.9163-8.888-13.545 0-9.5788 3.4517-13.892 8.8-13.892 4.3159 0 6.5592 2.5021 7.6796 5.8684h12.081m-83.697 18.982c0 3.7958 0 7.9384-0.0854 11.302h11.993c0.25875-1.2058 0.4321-4.3134 0.51751-5.6925 1.4671 2.7608 5.0921 6.73 12.943 6.73 8.9759 0 14.756-6.1271 14.756-17.344v-28.387h-12.34v27.006c0 5.0921-1.6379 8.7146-7.1596 8.7146-5.2654 0-8.1996-2.9342-8.1996-10.87v-24.85h-12.425v33.391m-69.802-0.86166c0 4.4867 0 8.3679-0.088 12.164h12.166c0.17334-1.035 0.34668-5.4338 0.34668-7.8504 1.9846 5.0896 6.73 8.8 14.322 8.888v-11.822c-8.9734 0.25873-14.322-2.1554-14.322-14.41v-19.499h-12.425v32.53m-20.572-32.53v35.376h-3.6326v9.3175h3.6326v3.8838c0 9.2321 4.5746 15.274 14.239 15.274 1.9846 0 4.5721-0.17333 5.695-0.51749v-9.7521c-0.69083 0.0878-1.6404 0.17334-2.59 0.17334-3.6225 0-5.0042-1.2938-5.0042-6.1271v-2.9342h6.303v-9.3175h-6.303v-35.376h-12.34m192.35-60.038c-0.16832 10.358-4.3133 19.16-16.394 19.16-11.732 0-16.563-8.1167-17.6-19.16zm-34.512-15.183c0-11.219 5.695-22.089 17.949-22.089 10.353 0 13.287 4.14 15.701 9.4909h24.679c-3.1075-10.87-12.943-28.819-40.898-28.819-29.51 0-42.279 21.918-42.279 45.387 0 28.126 14.322 48.148 43.141 48.148 30.543 0 41.069-22.263 41.069-44.525 0-3.105 0-5.0017-0.3442-7.5917h-59.018m-78.989 25.714c0 8.9708 0 16.738-0.17335 24.33h24.333c0.34416-2.0725 0.68832-10.875 0.68832-15.701 3.9692 10.177 13.46 17.598 28.648 17.773v-23.642c-17.947 0.5175-28.648-4.3159-28.648-28.819v-39.001h-24.848v65.059m-13.525-39.174c0-8.4534 0-17.949 0.16831-25.885h-24.157c-0.34667 2.4167-0.51751 7.2475-0.69083 10.353-5.3509-8.9734-13.113-12.425-24.677-12.425-18.12 0-29.683 11.046-29.683 33.133v58.329h24.679v-53.323c0-9.8376 3.1075-17.949 13.804-17.949 11.217 0 15.877 6.0442 15.877 23.644v47.628h24.679v-63.504m-141 63.504h13.804v24.159h24.679v-24.159h17.6v-18.635h-17.6v-44.179c0-6.73 2.07-9.32 9.4884-9.32 1.3817 0 3.7958 0 5.5242 0.17584v-16.914c-4.8334-1.7233-11.563-1.7233-16.568-1.7233-17.427 0-23.124 9.315-23.124 25.018v46.942h-13.804v18.635m-8.0991 29.505v-118.89h-25.712v118.89h25.712m-42.654-93.01c0-8.4534 0-17.949 0.17334-25.885h-24.159c-0.34416 2.4167-0.52002 7.2475-0.69084 10.353-5.3509-8.9734-13.113-12.425-24.677-12.425-18.12 0-29.681 11.046-29.681 33.133v58.329h24.677v-53.323c0-9.8376 3.1075-17.949 13.804-17.949 11.217 0 15.877 6.0442 15.877 23.644v47.628h24.677v-63.504m-85.966 2.9342c-2.9342-14.842-13.46-30.892-40.033-30.892-27.787 0-42.109 19.155-42.109 46.075 0 26.403 16.05 47.459 43.314 47.459 30.028 0 38.481-21.745 38.828-31.753h-23.986c-1.555 7.25-5.695 12.252-15.359 12.252-11.39 0-17.773-9.835-17.773-27.091 0-19.16 6.9009-27.787 17.603-27.787 8.6267 0 13.113 5.0067 15.357 11.737h24.159" fill="#fff"/><path d="m938.96 525.56c-37.544 0-67.979 28.877-67.979 64.497 0 4.3711 0.46224 8.6393 1.3365 12.767h38.398c-1.9469-3.8662-3.0372-8.1946-3.0372-12.767 0-16.392 14.005-29.678 31.281-29.678 3.8486 0 7.5364 0.66071 10.943 1.869v-35.851c-3.5622-0.54764-7.2174-0.83654-10.943-0.83654m66.383 50.569h-38.757c2.3313 4.1526 3.6552 8.893 3.6552 13.927 0 16.392-14.005 29.678-31.281 29.678-3.2331 0-6.3507-0.46473-9.2849-1.3289v61.017h33.658v-29.146c25.501-9.2974 43.606-32.751 43.606-60.221 0-4.7831-0.5552-9.4406-1.5952-13.927" fill="#d6badc"/></g></svg>
