<svg width="800" height="800" version="1.1" viewBox="0 0 800 800" xml:space="preserve" xmlns="http://www.w3.org/2000/svg"><link rel="stylesheet" type="text/css"/><link rel="stylesheet" type="text/css"/><style lang="en" type="text/css"/><style lang="en" type="text/css"/><g transform="matrix(1.3333 0 0 -1.3333 -693.84 941.48)"><path d="m520.38 106.11h600v600h-600z" fill="#a90042"/><path d="m930.69 269.35c0-5.8684-0.94958-11.39-8.8-11.39-4.4867 0-6.4713 2.7608-6.4713 5.9538 0 4.3133 2.7608 6.6446 10.267 6.6446h5.0042zm12.081-7.5942v18.726c0 10.699-6.5592 15.357-18.464 15.445-12.262 0-17.472-5.1675-18.836-11.98l11.415-2.3438c0.5175 3.2783 1.7258 5.4363 6.9009 5.4363 5.783 0 6.9034-3.1075 6.9034-6.2979v-2.6754h-6.3833c-13.116 0-21.228-4.7454-21.228-14.927 0-6.9034 4.4867-13.98 15.274-13.98 7.9384 0 10.958 2.9342 12.596 5.4363 0-1.1204 0.25876-3.5371 0.60543-4.3988h11.82c-0.25875 1.035-0.60291 7.2475-0.60291 11.561m119.38 15.703c-0.088 5.1775-2.1579 9.5788-8.1971 9.5788-5.8684 0-8.285-4.0546-8.8025-9.5788zm-17.258-7.5917c0-5.6096 2.8488-11.046 8.9759-11.046 5.175 0 6.6421 2.0725 7.8504 4.7454h12.34c-1.555-5.4338-6.4713-14.41-20.451-14.41-14.754 0-21.14 10.96-21.14 22.695 0 14.063 7.1621 24.074 21.572 24.074 15.274 0 20.537-11.131 20.537-22.263 0-1.5525 0-2.5021-0.1734-3.7959h-29.51m-13.445-5.2654c-1.4671-7.4184-6.73-15.445-20.017-15.445-13.892 0-21.054 9.5788-21.054 23.039 0 13.204 8.0238 23.73 21.657 23.73 15.013 0 19.24-10.873 19.414-15.877h-11.993c-0.7763 3.6225-2.8488 6.1271-7.6797 6.1271-5.695 0-8.8879-4.9188-8.8879-13.548 0-9.5788 3.4517-13.892 8.8-13.892 4.3159 0 6.5592 2.5021 7.6796 5.8658h12.081m-83.697 18.984c0 3.7984 0 7.9384-0.0854 11.302h11.993c0.25873-1.2058 0.43208-4.3134 0.51749-5.6925 1.4671 2.7608 5.0921 6.73 12.943 6.73 8.9759 0 14.756-6.1271 14.756-17.344v-28.387h-12.34v27.006c0 5.0921-1.6379 8.7146-7.1596 8.7146-5.2654 0-8.1996-2.9317-8.1996-10.87v-24.85h-12.425v33.391m-69.802-0.86166c0 4.4867 0 8.3679-0.088 12.164h12.166c0.17334-1.035 0.34669-5.4338 0.34669-7.8504 1.9846 5.0896 6.73 8.8 14.324 8.888v-11.822c-8.9759 0.25874-14.324-2.1579-14.324-14.41v-19.499h-12.425v32.53m-20.572-32.53v35.376h-3.6326v9.3175h3.6326v3.8838c0 9.2321 4.5746 15.274 14.239 15.274 1.9846 0 4.5721-0.17333 5.695-0.51749v-9.7521c-0.69083 0.088-1.6404 0.17334-2.59 0.17334-3.6225 0-5.0042-1.2938-5.0042-6.1271v-2.9342h6.303v-9.3175h-6.303v-35.376h-12.34m196.78-53.443c-0.1382 8.5086-3.5421 15.736-13.468 15.736-9.6416 0-13.611-6.6622-14.46-15.736zm-28.355-12.475c0-9.2171 4.6777-18.148 14.744-18.148 8.5112 0 10.918 3.404 12.905 7.7977h20.273c-2.5549-8.9307-10.631-23.677-33.602-23.677-24.242 0-34.735 18.005-34.735 37.285 0 23.114 11.769 39.556 35.446 39.556 25.096 0 33.741-18.286 33.741-36.577 0-2.5498 0-4.1124-0.2814-6.2376h-48.489m-27.942-11.056c0-6.9486 0-14.744 0.1432-21.27h-19.848c-0.28639 1.9896-0.42456 5.9538-0.56775 8.5086-4.3937-7.3731-10.775-10.209-20.273-10.209-14.887 0-24.39 9.0739-24.39 27.222v47.924h20.278v-43.812c0-8.0816 2.5498-14.744 11.342-14.744 9.212 0 13.043 4.9615 13.043 19.419v39.137h20.273v-52.175m-110.66-6.6672c12.478 0 15.317 8.9357 15.317 22.26 0 14.179-2.8387 21.974-14.887 21.974-10.918 0-15.879-9.0738-15.879-22.26 0-13.038 4.8183-21.974 15.45-21.974zm15.03-6.8054c-4.1124-6.6622-10.631-9.4984-20.414-9.4984-16.304 0-30.912 12.191-30.912 37.715 0 23.677 14.184 39.127 32.613 39.127 11.624 0 17.012-4.8183 18.713-8.6443 0.1432 1.8389 0.42455 5.1022 0.71093 6.9486h19.14c0-6.2452-0.1432-13.473-0.1432-20.135v-81.383h-19.708v35.871m-79.349 65.647h20.414v-73.445h-20.414zm0 11.903v18.148h20.414v-18.148h-20.414m-52.062-63.228c1.5575-5.9588 6.3758-9.2171 13.892-9.2171 7.5163 0 10.207 2.6955 10.207 7.235 0 4.6726-3.1201 6.519-13.611 9.0713-23.961 5.9538-27.787 13.324-27.787 23.677 0 10.775 7.5163 22.255 29.633 22.255 22.255 0 29.912-12.191 30.48-22.112h-19.281c-0.71093 2.693-2.5548 7.7952-12.053 7.7952-6.6622 0-8.9307-2.9769-8.9307-6.2376 0-3.6878 2.2685-5.3911 14.179-8.2248 24.529-5.6724 28.068-14.035 28.068-24.81 0-12.196-9.3552-23.252-31.615-23.252-22.398 0-31.472 10.775-33.173 23.82h19.992m-26.684-0.84911c0-6.9486 0-14.744 0.1432-21.27h-19.848c-0.28639 1.9896-0.42957 5.9538-0.56775 8.5086-4.3988-7.3731-10.775-10.209-20.278-10.209-14.882 0-24.38 9.0739-24.38 27.222v47.924h20.273v-43.812c0-8.0816 2.5498-14.744 11.342-14.744 9.2171 0 13.043 4.9615 13.043 19.419v39.137h20.273v-52.175m-181.15 33.173c0 6.3808 0 12.618-0.1432 19.002h19.424c0.28136-1.8464 0.71093-5.9588 0.85413-8.7925 3.6828 5.3885 9.6366 10.488 20.416 10.488 10.488 0 16.304-5.5292 18.854-11.199 4.3937 5.9563 10.636 11.199 22.682 11.199 12.764 0 23.252-7.9409 23.252-26.935v-48.206h-19.848v45.651c0 6.6672-2.4117 13.186-10.775 13.186-8.5086 0-11.91-5.6699-11.91-16.869v-41.968h-19.987v44.945c0 7.5113-1.8439 13.754-10.493 13.754-8.2273 0-12.191-5.1097-12.191-17.723v-40.976h-20.135v54.443" fill="#fff"/><path d="m1006.6 508.11c-37.544 0-67.979 28.877-67.979 64.497 0 4.3711 0.46224 8.6393 1.3365 12.767h38.396c-1.9444-3.8687-3.0347-8.1946-3.0347-12.767 0-16.392 14.005-29.678 31.281-29.678 3.8486 0 7.5365 0.66322 10.943 1.869v-35.851c-3.5622-0.54765-7.2174-0.83655-10.943-0.83655m66.383 50.569h-38.757c2.3312 4.1526 3.6526 8.893 3.6526 13.927 0 16.392-14.003 29.678-31.279 29.678-3.2331 0-6.3507-0.46474-9.2848-1.3289v61.017h33.658v-29.146c25.501-9.2974 43.603-32.751 43.603-60.221 0-4.7831-0.5527-9.4406-1.5927-13.927" fill="#e8a9ca"/></g></svg>
