<svg width="800" height="310.6" space="preserve" version="1.0" viewBox="0 0 800 310.6" xmlns="http://www.w3.org/2000/svg">
 <polygon class="st0" transform="matrix(3.6805,0,0,3.6805,0,-1.2149e-5)" points="217.36 24.81 100.62 0 91.47 43.04 100.44 43.04 95.49 66.3 148.04 66.3 144.19 84.39 207.55 70.93" fill="#fe0"/>
 <path d="m472.61 105.92h47.736c12.366 0 21.899 3.202 28.634 9.5693 6.7353 6.3673 8.4652 17.188 5.2263 32.425-1.9139 8.9436-5.1159 16.415-9.6061 22.377-4.4902 5.9992-9.9005 10.637-16.268 13.912l7.3978 59.771h-35.112l-4.9319-52.852h-8.87l-11.226 52.852h-32.352zm32.057 59.992c4.7478 0 8.3915-1.3986 10.968-4.2326 2.5764-2.834 4.4534-7.0666 5.668-12.735 1.2146-5.668 1.141-9.8637-0.18403-12.624-1.325-2.7604-4.2326-4.159-8.686-4.159h-13.029l-7.177 33.713h12.44z" stroke-width="3.6805"/>
 <path d="m638.38 134.74h-28.009l6.1096-28.782h88.958l-6.1096 28.782h-28.009l-23.224 109.27h-32.94z" stroke-width="3.6805"/>
 <path d="m687.41 219.17 42.988-55.612c3.9749-5.1159 8.3179-10.673 13.029-16.673 4.6742-5.9624 8.4283-10.6 11.226-13.912-3.7173 0.11042-8.1707 0.22083-13.397 0.29444-5.1895 0.0736-10.195 0.11042-14.906 0.11042h-17.961l5.8152-27.42h82.627l-5.2999 24.843-42.878 55.428c-4.0118 5.2631-8.3547 10.894-13.066 16.857-4.711 5.9992-8.4284 10.637-11.226 13.912 3.7173-0.11042 8.1339-0.22083 13.287-0.29444 5.1527-0.0736 10.085-0.11042 14.796-0.11042h20.905l-5.8152 27.42h-85.424z" stroke-width="3.6805"/>
 <polygon transform="matrix(3.6805,0,0,3.6805,0,-1.2149e-5)" points="148.04 66.3 156.01 28.78 165.07 28.78 157.09 66.3"/>
 <path d="m394.62 42.878h10.011l-8.8332 41.479h-10.011z" stroke-width="3.6805"/>
 <path d="m415.86 51.527h-8.4283l1.8402-8.6492h26.72l-1.8402 8.6492h-8.4284l-6.993 32.83h-9.9005z" stroke-width="3.6805"/>
 <path d="m440.52 42.878h10.011l-5.4471 10.821h-7.4346z" stroke-width="3.6805"/>
 <path d="m443.5 77.806 8.0603-6.1096c1.0305 1.6562 2.0243 2.9076 3.018 3.7541 0.99374 0.84652 1.9875 1.2882 2.9444 1.2882 1.0305 0 1.9507-0.25764 2.7236-0.84652 0.77291-0.55208 1.2882-1.3986 1.5458-2.5027 0.25764-1.141 0.14722-2.1347-0.29444-2.9812s-1.693-1.8034-3.8277-2.7972c-3.7173-1.8034-6.22-3.6805-7.545-5.5576-1.2882-1.9139-1.5826-4.4534-0.92013-7.6922 0.36805-1.693 0.99374-3.2756 1.9139-4.7478 0.92013-1.4722 2.0243-2.7236 3.3493-3.8277s2.8708-1.9507 4.6006-2.5764c1.7298-0.62568 3.6069-0.95693 5.5576-0.95693 3.202 0 5.6312 0.55208 7.2874 1.693 1.6562 1.141 3.0916 2.7604 4.343 4.8951l-8.1707 6.1832c-1.0674-1.693-1.9139-2.8708-2.5764-3.4965s-1.6194-0.95693-2.9444-0.95693c-0.95693 0-1.7298 0.29444-2.3923 0.92012-0.62568 0.62568-1.0305 1.2882-1.2146 2.0611-0.22083 1.1042-0.0736 2.0243 0.47846 2.7972 0.55208 0.7361 1.7666 1.5826 3.6805 2.5027 3.7541 1.8034 6.2937 3.7541 7.5818 5.8152 1.2882 2.0611 1.5826 4.7846 0.84652 8.2443-0.40486 1.9507-1.141 3.6805-2.1347 5.1895-1.0305 1.509-2.2083 2.7972-3.6437 3.8277-1.3986 1.0305-2.9812 1.8034-4.7478 2.3555s-3.6069 0.84652-5.5576 0.84652c-3.202 0-5.7048-0.62568-7.545-1.9139-1.693-1.3986-3.202-3.1652-4.4166-5.4103z" stroke-width="3.6805"/>
 <g fill="#e31818">
  <path class="st1" d="m380.82 105.92h82.848l-6.036 28.413h-49.908l-5.1159 24.07h32.536l-5.9992 28.193h-32.536l-12.219 57.416h-32.94z" stroke-width="3.6805"/>
  <polygon class="st1" transform="matrix(3.6805,0,0,3.6805,0,-1.2149e-5)" points="85.43 28.78 0 28.78 0 66.3 77.46 66.3"/>
 </g>
 <path class="st2" d="m92.785 172.28c-28.892 0.40486-44.424 5.0423-49.981 6.9562v33.64h-11.704v-41.516s17.556-10.784 61.685-11.005zm85.388 14.796c0 16.452-2.6868 20.39-2.6868 20.39s-7.3978 6.1832-35.958 6.1832c-15.642 0-34.008-2.3555-34.008-2.3555v-74.972h11.483v25.211c6.7353-0.95693 13.36-1.3618 19.065-1.3986 26.426 0 39.345 7.361 39.345 7.361s2.7604 3.6069 2.7604 19.58m84.799 0c0 16.452-2.6868 20.39-2.6868 20.39s-7.3978 6.1832-35.958 6.1832c-15.679 0-34.008-2.3555-34.008-2.3555v-74.972h11.483v25.211c6.7353-0.95693 13.36-1.3618 19.065-1.3986 26.389 0 39.345 7.361 39.345 7.361s2.7604 3.6069 2.7604 19.58m-12.182 11.814c0.29444-2.6132 0.62568-6.8825 0.62568-11.299s-0.51527-8.7228-0.80971-11.336c-6.8089-2.2083-24.402-6.4777-48.84-2.65v26.831c8.7964 0.80971 16.341 1.2882 22.709 1.2882 14.464-0.0368 22.672-1.8034 26.316-2.834m-84.799 0c0.29444-2.6132 0.66249-6.8825 0.66249-11.299s-0.51527-8.7228-0.80971-11.336c-6.8089-2.2083-24.402-6.4777-48.84-2.65v26.831c8.8332 0.80971 16.341 1.2882 22.709 1.2882 14.428-0.0368 22.635-1.8034 26.279-2.834" fill="#fff" stroke-width="3.6805"/>
</svg>
