<svg class="logo-svg-content" width="800" height="480.01" aria-labelledby="svg-title" preserveAspectRatio="xMinYmin meet" version="1.1" viewBox="0 0 800 480.01" xmlns="http://www.w3.org/2000/svg">
 <g transform="matrix(.74076 0 0 .74076 0 -1.062e-5)" fill="#ff0078">
  <path d="m646 510.7-0.37-418.45 191.13-40.62c37.73 74 73.91 151.93 98.75 207.29l3.42-0.72c-5.39-31-6.29-105.08-6.78-174.53l0.17-52.36 147.32-31.31v418.53l-181.64 38.61c-28-58.86-80.59-174.9-107.66-235.14l-2.84 0.6c5.93 47.49 6.17 124.13 6.13 196.67l0.26 60z"/>
  <path d="m408.07 142.75-0.07 268.66c-0.16 24.41 8 45.87 35.84 39.94 31.85-6.77 31.08-32.76 32.42-54.45l0.08-268.67 150.73-32-0.28 242.56c-0.72 119.65-31.66 183.89-175.57 214.48-135.94 28.89-193-21.4-193.13-136.71l0.39-242z"/>
  <path d="m0 229.49 239.82-51v111.07l-105.82 22.44v54l105.78-22.5v98.91l-105.78 22.59v154.52l-134 28.48z"/>
 </g>
 <g transform="matrix(.74076 0 0 .74076 0 -1.062e-5)" fill="#0050ff">
  <path d="m678.27 575.36 0.15 29.33-32.23 6.85-0.19-82.32 48-10.22c19.59-4.17 31 2.88 33.6 15 2.38 11.19-3.15 19.85-13.41 25 6.1 1.74 12.35 6.38 12.3 21 0 4.92 0.22 10.37 1.27 14.24l-31.22 6.63c-1.54-2.83-2.31-8.63-2.23-17.07 0.13-8.21-1.06-11.59-8.78-10zm0-18.36 9.07-1.93c6-1.28 8.35-5.28 7.42-9.65-0.83-3.91-3.52-5.56-8-4.61l-8.5 1.81z"/>
  <path d="m772.05 572.39-3.3 13.1-33.69 7.16 26-87.88 43.43-9.23 28.39 76.32-32.58 6.92-3.52-11.65zm18.46-25.45c-1.9-6.15-5.11-18-7.13-25.27l-0.78 0.16c-1.06 7.71-3.4 19.79-5.08 27.87z"/>
  <path d="m840.65 487.85 41.19-8.75c27.31-5.81 44 8.2 47.76 26 6.28 29.55-12.77 48.92-42.2 55.18l-46.68 9.92zm33 54.63 8.62-1.83c12.54-2.66 14.88-16.38 12.31-28.47-2-9.63-5.64-13.89-14.82-11.94l-6.26 1.33z"/>
  <path d="m973.73 459.56 0.08 82.34-32.91 7-0.07-82.34z"/>
  <path d="m1078.7 472.35c5.71 26.86-7.65 51-42.79 58.46-32.35 6.88-46.62-8-50.43-25.9-5-23.28 4.5-50.91 41.66-58.8 31.86-6.78 47.8 8.55 51.56 26.24zm-58.08 26.73c1.45 6.83 4.76 13 12.37 11.41 13.1-2.78 12.55-24.07 10.27-34.82-1.58-7.39-5.33-11.85-12.5-10.33-12.2 2.59-12.25 23.78-10.14 33.74z"/>
 </g>
</svg>
