<svg width="800" height="521" version="1.1" viewBox="0 0 800 521" xml:space="preserve" xmlns="http://www.w3.org/2000/svg">
<path d="m146.43 394.17c0 2.4121-0.50251 4.9246-1.005 7.3367l-3.9196 20.603c-0.50251 2.9146-1.5075 6.4322-2.4121 9.3467-2.01 5.9296-6.8342 10.854-12.764 12.764-4.4221 1.5075-8.8442 2.9146-13.266 3.4171 4.9246 0 9.3467 2.01 13.266 5.4271 2.9146 3.4171 3.9196 7.3367 3.9196 11.759 0 1.5075 0 2.9146-0.50252 4.9246 0 1.5075-0.50251 3.4171-0.50251 5.4271l-6.8342 45.729h-44.221l7.8392-52.563c0-0.50251 0-1.5075 0.50251-2.01v-1.5075c0.50252-2.01-0.50251-3.9196-2.01-4.9246-2.4121-1.005-4.9246-1.5075-7.3367-1.5075h-20.1l-13.266 62.111h-43.819l30.955-145.93h92.864c6.4322-0.50251 12.261 1.5075 17.186 5.4271 3.5176 3.8191 5.4271 8.7437 5.4271 14.171zm-76.583 3.4171-7.8392 37.789h32.462l7.8392-37.789zm158.69 122.91 1.005-32.462h-38.794l-12.764 32.462h-41.307l55.578-128.74c1.5075-3.4171 2.9146-6.4322 4.9246-9.3467 1.5075-2.0101 3.4171-3.9196 5.9296-4.9246 2.4121-1.005 4.9246-2.01 7.3367-2.01 2.9146-0.50251 5.9296-0.50251 9.8492-0.50251h29.95c3.4171 0 6.8342 0 9.8492 0.50251 2.01 0 4.4221 1.005 5.9296 2.01 1.5075 1.5075 2.9146 2.9146 3.4171 4.9246 0.50251 2.9146 1.005 6.4322 1.005 9.3467l1.005 128.74zm-3.9196-119.9-24.523 60.905h30.955l1.5075-60.905zm210.35-7.9397c0 1.5075 0 2.4121-0.50251 3.9196 0 1.5075-0.50251 2.9146-0.50251 4.4221l-19.196 91.457c-1.005 3.4171-2.01 6.4322-2.9146 9.3467-1.5075 3.4171-3.4171 6.4322-5.9296 8.8442-2.9146 2.9146-5.9296 4.9246-9.8492 6.4322-4.4221 2.01-9.3467 2.9146-14.271 2.4121h-94.372l30.955-145.93h93.367c2.9146 0 5.9296 0 8.3417 0.50252 2.4121 0.50251 5.4271 1.5075 7.3367 2.9146 2.01 1.5075 3.9196 3.4171 5.4271 5.4271 1.608 3.9196 2.5126 7.3367 2.1106 10.251zm-78.191 6.4322-20.603 96.281h33.869l20.603-96.281zm120.9 121.41h-41.809l30.955-145.93h41.809zm174.47-126.33c0 2.4121-0.50251 4.9246-1.005 7.3367l-20.1 93.367c-1.005 7.3367-4.9246 14.271-10.352 19.196-5.4271 4.4221-12.261 6.4322-19.698 6.4322-5.9296 0-11.256 0.50251-16.181 0.50251h-39.698c-4.9246 0-10.352-0.50251-16.181-0.50251-5.4271 0-10.352-2.01-14.271-5.9296-3.9196-3.9196-5.4271-9.3467-5.4271-14.774 0-2.4121 0.50251-4.9246 1.005-6.8342l20.1-94.372c1.005-6.8342 4.4221-12.764 9.8492-17.688 4.9246-3.9196 11.256-6.4322 18.191-6.4322 6.4322 0 11.759-0.50252 17.186-0.50252h29.447l11.759 0.50252c4.9246 0 10.352 0.50251 15.678 0.50251 4.9246 0 10.352 2.01 14.271 4.9246 3.9196 3.4171 5.9296 8.8442 5.4271 14.271zm-78.191 5.4271-20.603 96.281h33.869l20.603-96.281z" clip-rule="evenodd" fill="#0c60ca" fill-rule="evenodd" stroke-width="1.005"/><g transform="matrix(1.005 0 0 1.005 19.022 -48.241)">
			<path d="m658.9 424.6-5.9 27.9c53.3 10.8 91.9 57.7 91.9 112h28.4c0.5-68.1-47.9-126.7-114.4-139.9z" fill="#0c60ca"/>
			<path d="m647.7 480.8-5.4 27.9c26.9 5.4 46 28.8 46 55.7h28.4c-0.1-40.6-28.9-75.8-69-83.6z" fill="#247def"/>
			<path d="m636.4 536.5-5.4 27.9h28.4c0-13.7-9.3-25.4-23-27.9z" fill="#4596ff"/>
		</g><g transform="matrix(1.005 0 0 1.005 -114.54 -125.42)" clip-rule="evenodd" fill-rule="evenodd"><path d="m325.66 150.29h-66.5l-20.5 96.3h29.3l12.2-56.2h41.6l-11.7 56.7c-1 3.9-2.4 7.8-4.9 11.2-2 2.9-4.4 5.4-7.3 7.3-2.4 2-5.4 2.9-8.8 3.9-2.9 1-5.4 1-8.3 1.5-4.9 0-9.3 0.5-13.7 0.5h-36.7c-4.9 0-9.8-0.5-15.2-0.5s-10.3-2-14.2-5.4c-3.9-3.9-5.9-9.3-5.4-14.7v-3.4c0-1 0.5-2 0.5-3.4l19.1-90c1-8.3 4.9-15.6 11.2-21.5 6.4-4.9 13.7-7.3 21.5-6.8h83.1zm149.2-4.9c0 2.4-0.5 4.9-1 7.3l-3.9 20.5c-0.5 2.9-1.5 6.4-2.4 9.3-2 5.9-6.8 10.8-12.7 12.7-4.4 1.5-8.8 2.9-13.2 3.4 4.9 0 9.3 2 13.2 4.9 2.9 3.4 3.9 7.3 3.9 11.7 0 1.5 0 2.9-0.5 4.9 0 1.5-0.5 3.4-0.5 5.4l-6.8 45.5h-44l8.3-52.3c0-0.5 0-1.5 0.5-2v-1.5c0.5-2-0.5-3.9-2-4.9-2.4-1-4.9-1.5-7.3-1.5h-20l-13.2 61.6h-43.5l30.8-145.2h91.9c6.4-0.5 12.2 1.5 17.1 5.4 3.8 4.5 5.8 9.4 5.3 14.8zm-75.8 3.4-8.3 37.6h32.3l7.8-37.6h-31.8zm157.9 122.3 1-32.3h-38.6l-12.7 32.3h-41.1l55.3-128.1c1.5-3.4 2.9-6.4 4.9-9.3 1.5-2 3.4-3.9 5.9-4.9 2.4-1 4.9-2 7.3-2 2.9-0.5 5.9-0.5 9.8-0.5h29.8c3.4 0 6.8 0 9.8 0.5 2 0 4.4 1 5.9 2 2 1 2.9 2.9 3.4 4.9 0.5 2.9 1 6.4 1 9.3l1 128.1zm-3.9-119.3-24.4 60.6h30.8l1.5-60.6zm183.4 119.3h-47.9l-13.2-96.8h-2l-20.5 96.3h-37.2l30.8-145.2h50.4l11.7 90.4h2.4l19.1-90.5h37.2zm173.5-127.2c0 1.5 0 2.4-0.5 3.9 0 1.5-0.5 2.9-0.5 4.4l-19.1 90.9c-1 3.4-2 6.4-2.9 9.3-1.5 3.4-3.4 6.4-5.9 8.8-2.9 2.9-5.9 4.9-9.8 6.4-4.4 2-9.3 2.9-14.2 2.4h-93.9l30.8-145.2h92.9c2.9 0 5.9 0 8.3 0.5s5.4 1.5 7.3 2.9c2 1.5 3.9 3.4 5.4 5.4 1.6 4 2.1 7.4 2.1 10.3zm-77.7 6.4-20.5 95.8h33.7l20.5-95.8z"/><path d="m526.66 328.79c0 3.4-0.5 6.4-1.5 9.3l-7.3 35.7c-1.5 7.8-4.9 14.7-10.3 20-6.4 5.4-14.2 7.8-22.5 7.3h-44l-11.7 55.7h-43.5l30.8-145.2h88c5.9-0.5 11.7 1 17.1 3.9 3.4 3.5 5.4 8.4 4.9 13.3zm-71.9 6.3-8.8 42h31.8l8.8-42zm209.8-3.9c0 2.4-0.5 4.9-1 7.3l-3.9 20c-0.5 2.9-1.5 6.4-2.4 9.3-2 5.9-6.8 10.8-12.7 12.7-4.4 1.5-8.8 2.9-13.2 3.4 4.9 0 9.3 2 13.2 4.9 2.9 3.4 3.9 7.3 3.9 11.7 0 1.5 0 2.9-0.5 4.9 0 1.5-0.5 3.4-0.5 5.4l-7.3 46h-43.6l7.8-52.3c0-0.5 0-1.5 0.5-2v-1.5c0.5-2-0.5-3.9-2-4.9-2.4-1-4.9-1.5-6.8-1.5h-20l-13.2 61.6h-43.5l30.8-145.2h91.9c6.4-0.5 12.2 1.5 17.1 5.4 3.4 4.5 5.4 9.4 5.4 14.8zm-75.8 3.4-8.3 37.6h32.3l7.8-37.6zm118.3 122.3h-41.5l30.8-145.2h41.6zm131.1-74.8 10.8 74.8h-44.5l-5.4-59.7h-2.9l-33.7 59.7h-41.6l45-74.8-8.3-70.4h41l5.9 57.2h2.4l28.4-57.2h39.6z"/><path d="m169.9 367.65h43l-5.9 28.4h-43z"/><path d="m181.2 310.45h43l-5.9 28.4h-42.5z"/><path d="m266.7 310.45h43l-5.9 28.4h-43z"/><path d="m352.8 310.45h43l-5.9 28.4h-43z"/><path d="m218.3 338.85h43l-5.9 28.8h-43z"/><path d="m303.9 338.85h43l-5.9 28.4h-43z"/><path d="m255.5 367.65h43l-5.9 28.4h-43z"/><path d="m341 367.65h43l-5.9 28.4h-43z"/><path d="m207.1 396.05h43l-5.9 28.4h-43z"/><path d="m292.6 396.05h43l-5.9 28.4h-43z"/><path d="m158.7 424.35h43l-5.9 28.4h-43z"/><path d="m244.2 424.35h43l-5.9 28.4h-43z"/><path d="m329.8 424.35h43l-5.9 28.4h-43z"/></g>
</svg>
