<svg width="800" height="522.49" version="1.1" viewBox="0 0 800 522.49" xml:space="preserve" xmlns="http://www.w3.org/2000/svg">  <path d="m221.07 242.16c10.57 8.752 24.469 13.875 40.299 13.875 2.1842 0 4.336-0.10215 6.4402-0.29281 32.269-2.9094 55.292-27.664 55.292-60.551 0-35.028-26.127-60.842-61.734-60.842-35.604 0-61.499 25.813-61.499 60.842 2e-3 19.455 8.0081 36.043 21.202 46.969zm11.399-46.967c0-19.128 12.484-31.804 28.9-31.804s29.135 12.676 29.135 31.804c0 0.54136-0.0477 1.0538-0.0698 1.5798 0.0221 0.53115 0.0698 1.0436 0.0698 1.5815 0 19.126-12.72 31.804-29.135 31.804-16.418 0-28.9-12.674-28.9-31.804 0-0.53796 0.0426-1.047 0.063-1.5815-0.0187-0.52604-0.063-1.0402-0.063-1.5798z" fill="none" stroke-width="1.7024"/><path d="m149.24 203.72c0-20.968 14.334-36.416 31.908-36.416 4.3905 0 7.1637 1.1508 7.625 1.3823h2e-3v-33.644c-0.46134-0.23323-3.6942-0.69458-7.3952-0.69458-15.03 0-27.054 9.6832-34.22 22.126-0.23493-1.3823-0.23493-4.1504-0.23493-7.608l-0.69287-11.289h-31.447v115.23h34.45v-49.087h5e-3z" fill="none" stroke-width="1.7024"/><path d="m356.81 316.16c-12.775 0-20.007 9.7615-20.861 21.217h40.233c0.4256-11.455-6.384-21.217-19.372-21.217z" fill="none" stroke-width="1.7024"/><path d="m362.56 403.16c18.949 0 33.207-4.2526 39.805-7.6404v-26.956c-5.9584 3.4014-21.711 7.8566-36.823 7.8566-17.247 0-28.316-8.2822-29.593-22.703h69.827c0.20258-2.1246 0.84439-7.2182 0.84439-12.947 0-18.653-8.4882-35.761-25.083-44.172 0 0-0.93462-0.46134-1.6326-0.80182-6.4827-2.9656-14.086-4.6884-22.88-4.6884-12.948 0-24.639 4.336-33.828 11.757-0.67415 0.67415-2.6592 2.334-2.6592 2.334-10.848 10.054-17.584 24.765-17.584 41.935 0 32.465 22.989 56.026 59.606 56.026zm-5.7507-87.008c12.988 0 19.797 9.7615 19.372 21.217h-40.233c0.85631-11.455 8.0881-21.217 20.861-21.217z" fill="#eb6608" stroke-width="1.7024"/><path d="m499.65 380.67c-0.42901 1.064-1.0572 3.6074-0.8546 7.4276l0.8546 12.094h28.954v-106.1h-31.721v52.844c0 15.914-10.005 27.371-24.475 27.371-11.505 0-14.484-8.4847-14.484-19.103v-61.113h-31.934v66.429c0 28.006 12.984 42.657 37.037 42.657 17.676 0 31.724-12.741 36.193-22.501h0.42901z" fill="#eb6608" stroke-width="1.7024"/><path d="m668.88 401.47 44.496-107.38h-33.21l-12.136 35.434c-3.4116 9.3359-7.4582 24.196-10.225 30.347-2.3374-8.2753-5.5362-19.741-9.1572-30.134l-12.136-35.011h-18.726l-21.496 65.152c-5.3302-18.255-14.487-43.299-22.148-65.789h-33.204l44.485 107.38h20.865l20.861-58.147 21.077 58.147h20.655z" fill="#eb6608" stroke-width="1.7024"/><path d="m764.24 336.52c-11.285-3.3912-16.602-6.1474-16.602-11.455 0-4.6748 4.4722-6.7926 8.9342-7.6404 2.9826-0.63839 6.3874-0.63839 9.7922-0.4256 9.3734 0.8478 20.007 4.2458 27.039 7.8532v-27.162c-6.3874-2.7596-19.155-6.5832-34.491-6.5832-24.695 0-40.439 12.734-40.439 32.465 0 20.589 14.041 28.864 33.839 34.38 12.136 3.6074 18.527 5.9414 18.527 11.67 0 6.3704-7.2386 8.4881-15.119 8.4881-10.434 0-25.756-4.4552-35.757-9.7581v27.797c7.654 3.3946 20.007 7.0054 36.183 7.0054 27.039 0 43.85-11.886 43.85-32.262 0-19.087-11.495-27.579-35.757-34.371z" fill="#eb6608" stroke-width="1.7024"/><path d="m118.61 333.69v66.502h31.93v-52.837c0-7.654 2.334-14.254 6.3942-19.072 4.382-5.1974 10.783-8.3026 18.517-8.3026 4.9029 0 8.2481 1.5866 10.48 4.2134 3.0081 3.524 3.9955 8.9172 3.9955 14.882v61.116h31.935v-66.424c0-5.2962-0.46986-10.111-1.3874-14.453-1.0589-4.9982-2.7443-9.2968-4.9778-12.991-6.0844-10.025-16.414-15.216-30.679-15.216-4.7871 0-9.2832 0.91419-13.396 2.4038-11.45 4.147-19.93 12.918-23.224 20.09h-0.4222c0.2094-1.0572 1.064-3.6006 0.8512-7.4173l-0.23323-11.032-29.525 4.1368z" fill="#eb6608" stroke-width="1.7024"/><polygon transform="matrix(1.7024 0 0 1.7024 -106.7 -245.46)" points="209.25 316.94 209.25 329.35 209.25 379.26 228.01 379.26 228.01 326.7 228.01 316.94" fill="#eb6608"/><path d="m440.22 245.95 3.6533-0.55839c-0.34218-0.79332-0.32005-0.73714-0.67245-1.556-0.66053 0.46986-2.3289 1.6888-2.9809 2.1144z" fill="#eb6608" stroke-width="1.7024"/><path d="m261.37 230.16c16.418 0 29.135-12.674 29.135-31.806 0-0.53285-0.0477-1.0453-0.0698-1.5798 0.0221-0.52604 0.0698-1.0351 0.0698-1.5798 0-19.125-12.722-31.804-29.135-31.804-16.416 0-28.9 12.673-28.9 31.804 0 0.53626 0.0409 1.0538 0.063 1.5798-0.0204 0.53114-0.063 1.0402-0.063 1.5798 0 19.13 12.482 31.806 28.9 31.806z" fill="#eb6608" stroke-width="1.7024"/><path d="m443.24 243.81c-0.0102 7e-3 -0.0238 0.0187-0.034 0.0255 0.349 0.81885 0.32857 0.76267 0.67245 1.556l2.5536-0.38985c-0.57541-0.29451-2.5996-0.9261-3.192-1.1917z" fill="#eb6608" stroke-width="1.7024"/><path d="m562.31 2.5859-562.31 79.32v62.429c8.8695-6.3755 20.555-9.9828 33.42-9.9828 6.9424 0 13.873 1.1576 19.889 3.2277h42.769v24.429h-13.41c-3.701 0-4.3905-0.68777-5.3166-0.68777 3.238 4.1504 5.3166 9.2236 5.3166 15.214 0 22.354-17.111 37.337-39.998 40.33-9.7088 1.6088-17.342 4.3752-17.342 7.8378 0 4.6118 8.3264 6.224 24.509 8.529 30.977 3.9172 46.006 12.674 46.006 33.874 0 0.29962-0.02554 0.58222-0.03575 0.87843h0.03575v13.51c0 6.8896 6.1116 12.176 12.945 11.212l10.139-1.4334 29.295-4.1334 16.845-2.3748 40.634-5.7252c15.665-2.208 17.523-2.4736 30.754-4.3428l36.627-5.16 30.813-4.3564 33.864-4.7718 41.445-5.8494 7.2624-1.0231c-1.5134-0.429-2.9928-0.91589-4.4432-1.4504-23.265-8.4847-38.59-29.952-38.59-56.891 0-35.028 25.895-60.842 61.499-60.842 35.611 0 61.736 25.813 61.736 60.842 0 20.475-8.9376 37.774-23.461 48.634 0 3e-3 0 3e-3 3e-3 7e-3 0.0102-7e-3 0.0238-0.0187 0.034-0.0255 0.59244 0.26558 2.6166 0.89717 3.192 1.19l-2.5536 0.38985c7e-3 0.017 0.0102 0.0204 0.017 0.0358l47.042-6.6325v-74.247h-15.956v-26.966h16.648v-34.577h33.517v34.576h30.752v26.966h-30.752v69.422l55.481-7.8259v-226.14zm-373.54 166.11c-0.46135-0.23322-3.2346-1.3823-7.625-1.3823-17.574 0-31.908 15.444-31.908 36.416v49.09h-34.45v-115.23h31.447l0.69288 11.29c0 3.4576 0 6.224 0.23493 7.608 7.1654-12.446 19.188-22.126 34.22-22.126 3.701 0 6.9305 0.46134 7.3952 0.69457v33.641zm79.032 87.054c-2.1042 0.19067-4.256 0.29281-6.4402 0.29281-15.831 0-29.729-5.1259-40.299-13.875-13.194-10.926-21.2-27.514-21.2-46.969 0-35.028 25.895-60.842 61.499-60.842 35.607 0 61.734 25.813 61.734 60.842-2e-3 32.887-23.025 57.641-55.294 60.551z" fill="#eb6608" stroke-width="1.7024"/><path d="m34.576 255.58c-12.945 0-22.192 6.4538-22.192 14.293 0 8.9835 9.9386 13.595 23.583 13.595 14.567 0 25.66-5.5294 25.66-13.825 0-8.5307-8.3247-14.063-27.051-14.063z" fill="#eb6608" stroke-width="1.7024"/><path d="m33.416 198.81c11.566 0 18.963-7.8344 18.963-18.437 0-0.53114-0.03064-1.0606-0.06469-1.5798 0.03575-0.52434 0.06469-1.0402 0.06469-1.573 0-10.604-7.3986-18.675-18.963-18.675-11.319 0-18.723 8.0694-18.723 18.675 0 0.53114 0.03405 1.0487 0.0698 1.573-0.03575 0.51923-0.0698 1.0419-0.0698 1.5798 0 10.604 7.4003 18.437 18.723 18.437z" fill="#eb6608" stroke-width="1.7024"/><path d="m404.93 163.39c-16.416 0-28.898 12.669-28.898 31.804 0 0.53796 0.0443 1.0538 0.063 1.5798-0.0187 0.53115-0.063 1.0402-0.063 1.5764 0 19.132 12.482 31.806 28.898 31.806s29.13-12.671 29.13-31.806c0-0.53285-0.0426-1.0453-0.063-1.5764 0.0204-0.52604 0.063-1.0385 0.063-1.5798 2e-3 -19.132-12.717-31.804-29.13-31.804z" fill="#eb6608" stroke-width="1.7024"/><g fill="#fff"><path d="m690.28 428.54c-29.688 0-55.209 24.305-55.209 53.399 0 23.039 16.166 40.544 40.299 40.544 29.812 0 55.202-23.931 55.202-53.392 0-23.047-16.29-40.551-40.292-40.551zm-12.639 79.342c-16.043 0-26.53-11.84-26.53-27.587 0-20.522 16.804-37.153 36.888-37.153 16.05 0 26.397 11.84 26.397 27.587 0 20.648-16.539 37.153-36.755 37.153z" stroke-width="1.7024"/><path d="m536.4 430.17h-27.671l-14.401 90.683h28.047c33.35 0 57.103-21.799 57.103-52.017 0-22.923-16.169-38.667-43.079-38.667zm-12 77.333h-12l10.109-63.976h11.621v-3e-3c18.447 0 29.184 11.205 29.184 27.204-3e-3 21.028-16.176 36.775-38.913 36.775z" stroke-width="1.7024"/><polygon transform="matrix(1.7024,0,0,1.7024,-106.7,-245.46)" points="418.95 396.87 410.49 450.14 419.84 450.14 428.3 396.87"/><path d="m449.74 428.79-57.74 92.062h16.685l10.989-18.015h37.143l5.1736 18.015h16.675l-28.423-92.062zm-22.993 62.214c6.573-11.086 13.141-22.669 18.573-32.122 2.1518 10.327 4.7939 20.533 8.209 32.122z" stroke-width="1.7024"/><path d="m391.87 454.49c0-15.488-10.984-24.309-29.557-24.309h-30.57l-14.407 90.683h15.667l5.3047-33.633h15.667v-3e-3l4.2917 15.109c3.9155 14.234 7.8327 20.153 17.812 20.153 3.4133 0 6.0656-0.4988 7.9621-1.001l2.0224-12.732c-1.0129 0.25877-2.6591 0.51243-4.2968 0.51243-4.1692 0-7.0718-2.3902-8.3349-7.305l-4.6782-17.004c12.385-4.0347 23.117-14.489 23.117-30.471zm-35.745 19.889h-15.791l4.9284-30.849h15.03c9.6049 0 15.538 4.5352 15.538 12.971-3e-3 11.329-7.9553 17.879-19.705 17.879z" stroke-width="1.7024"/></g> </svg>
