<svg version="1.1" viewBox="0 0 565.22 410.72" xmlns="http://www.w3.org/2000/svg">
 <g transform="translate(-165.96 -318.43)">
  <path d="m544.62 318.43c-7.0821 0-12.938 5.8277-12.938 12.938v95.625c0 7.1098 5.8554 12.938 12.938 12.938h40.25c7.1486 0 12.938 5.8277 12.938 12.938v198.72c0 7.0489 5.8625 12.875 13 12.875h107.44c7.0766 0 12.938-5.8261 12.938-12.875l-0.21875-320.22c0-7.1098-5.8771-12.938-13.031-12.938zm-378.66 372.06v38.344h7.6875v-15.312h21.719v15.312h7.6562v-38.344h-7.6562v15.406h-21.719v-15.406zm61.031 0v7.6562h15.375v30.688h7.6562v-30.688h15.312v-7.6562zm60 0v38.344h7.6562v-15.312h1.1562l17.969 15.312h11.562l-18.406-15.312h9.375c5.1275 0 7.7188-2.5584 7.7188-7.625v-7.75c0-2.0986-0.7953-3.9203-2.3125-5.4375-1.4397-1.4563-3.2356-2.2188-5.4062-2.2188zm52.781 0c-2.3146 0-4.1339 0.69996-5.5625 2.1562-1.3732 1.4563-2.0938 3.3405-2.0938 5.5v30.688h7.6562v-15.312h22.938v15.312h7.7188v-30.688c0-1.8051-0.85939-3.497-2.4375-5.125-1.6722-1.6888-3.4041-2.5312-5.2812-2.5312zm38.406 0v38.344h30.688c5.0555 0 7.6562-2.5584 7.6562-7.625v-23.062c0-2.0986-0.79371-3.9258-2.25-5.4375-1.5006-1.4618-3.3076-2.2188-5.4062-2.2188zm123.19 0v38.344h7.625v-24.938l25.938 24.938h4.75v-38.344h-7.6562v25l-25.844-25zm46.219 0v7.6562h7.7188v30.812h7.625v-38.469zm44.594 0c-2.4032 0-4.2886 0.72249-5.6562 2.0625-1.2957 1.34-2 3.2072-2 5.5938v7.75c0 2.0377 0.81191 3.8266 2.3125 5.3438 1.5172 1.4563 3.306 2.2812 5.3438 2.2812h23.031v7.6875h-30.688v7.625h30.688c2.226 0 4.033-0.69996 5.4062-2.1562 1.5117-1.4563 2.25-3.3148 2.25-5.4688v-23.062c0-2.1595-0.73834-3.9812-2.25-5.4375-1.3732-1.4618-3.1803-2.2188-5.4062-2.2188zm38.125 0v7.6562h30.688v7.75h-22.969c-2.2426 0-4.1228 0.69836-5.5625 2.0938-1.4452 1.4563-2.1562 3.3164-2.1562 5.5312v15.312h38.312v-7.625h-30.594v-7.6875h22.969c2.3146 0 4.0844-0.76246 5.4688-2.2188 1.4452-1.5172 2.1562-3.4485 2.1562-5.7188v-7.4375c0-2.3312-0.62282-4.2225-2.0625-5.5625-1.3123-1.4009-3.1926-2.0938-5.5625-2.0938zm69.906 0c-2.4032 0-4.2719 0.72249-5.6562 2.0625-1.2957 1.34-2.0312 3.2072-2.0312 5.5938v7.75c0 2.0377 0.81191 3.8266 2.3125 5.3438 1.5117 1.4563 3.3318 2.2812 5.375 2.2812h23.094v7.6875h-30.781v7.625h30.781c2.1706 0 3.961-0.69996 5.4062-2.1562 1.4231-1.4563 2.1562-3.3148 2.1562-5.4688v-23.062c0-2.1595-0.73318-3.9812-2.1562-5.4375-1.4452-1.4618-3.2356-2.2188-5.4062-2.2188zm-488.09 0.0625-0.0625 38.281h7.7188l0.0625-38.281zm212.84 0.0625v38.219h7.7188v-38.219zm25.938 0c-2.68 0-4.9923 0.9777-6.875 2.8438-1.866 1.866-2.8125 4.1637-2.8125 6.8438v19.156c0 2.68 0.94646 4.9536 2.8125 6.875 1.8827 1.866 4.195 2.8125 6.875 2.8125h19.188c2.68 0 4.9152-0.94646 6.7812-2.8125 1.8771-1.9214 2.8125-4.195 2.8125-6.875v-19.156c0-2.68-0.93537-4.9777-2.8125-6.8438-1.866-1.866-4.1012-2.8438-6.7812-2.8438zm-156.25 7.5312h21.656v7.75h-21.656zm45.125 0h22.938v7.75h-22.938zm46.062 0h23.031v23.062h-23.031zm206.34 0h23.031v7.75h-23.031zm108.03 0h23.094v7.75h-23.094zm-251.28 0.21875h23.031v23.031h-23.031zm227.78 22.781v7.75h7.75v-7.75z" fill="#f9ae00"/>
  <path d="m179.27 318.43c-7.1541 0-13 5.8277-13 12.938v95.625c0 7.1098 5.8459 12.938 13 12.938h172.91c7.143 0 13 5.8277 13 12.938v198.72c0 7.0489 5.7889 12.875 12.938 12.875h107.44c7.0655 0 12.906-5.8261 12.906-12.875l-0.21875-320.22c0-7.1098-5.8352-12.938-12.906-12.938zm0 154.41c-7.1486 0-13 5.8293-13 13v165.75c0 7.0544 5.8514 12.875 13 12.875h107.06c7.0932 0 12.938-5.8206 12.938-12.875v-165.75c0-7.1707-5.8443-13-12.938-13z" fill="#fff"/>
 </g>
</svg>
