<?xml version="1.0" encoding="UTF-8"?>
<!-- Generator: Adobe Illustrator 15.0.0, SVG Export Plug-In . SVG Version: 6.00 Build 0)  -->
<svg id="Ebene_1" width="765.5" height="420.97" enable-background="new -101.86 180.445 801 479" version="1.1" viewBox="-101.86 180.44 765.5 420.97" xml:space="preserve" xmlns="http://www.w3.org/2000/svg" xmlns:cc="http://creativecommons.org/ns#" xmlns:dc="http://purl.org/dc/elements/1.1/" xmlns:rdf="http://www.w3.org/1999/02/22-rdf-syntax-ns#"><metadata id="metadata25"><rdf:RDF><cc:Work rdf:about=""><dc:format>image/svg+xml</dc:format><dc:type rdf:resource="http://purl.org/dc/dcmitype/StillImage"/><dc:title/></cc:Work></rdf:RDF></metadata>
<g id="g18" transform="translate(-16.635,-24.734)">
	<g id="g6" fill="#8fbe44">
		<path id="path2" d="m680.04 400.11c0-7.229-2.788-13.976-7.877-19.129-5.362-5.353-12.519-8.307-20.279-8.307h-19.285v220.99l-122.24 0.155v-88.428c-11.212 0.02-13.104 0.02-22.834 0.039v88.408l-122.18 0.195v-178.85c-1.248 0-8.248-0.21-11.973-0.21v90.027s-47.032 0.039-63.884 0.098v89.072l-126.23 0.176v-179.14c-1.228 0-11.914 0.117-11.914 0.117v89.994s-47.052 0.078-63.894 0.078v89.11l-126.23 0.176v-222.01h-16.779c-16.087 0-29.663 13.279-29.663 28.952l0.2 197.11c0 7.137 2.823 13.942 7.897 19.07 5.318 5.382 12.538 8.326 20.254 8.326l707.45 0.02c16.087 0 29.697-13.26 29.697-28.937z"/>
		<path id="path4" d="m510.36 372.67h-22.834v23.224c11.231 0 13.143-0.049 22.834-0.049z"/>
	</g>
	<path id="path8" d="m76.749 206.5-6.483 0.029c-3.792 0-6.897 3.076-6.897 6.83v29.921c0 2.715-2.354 5.011-5.128 5.031l-23.511 0.073c-1.331 0-2.608-0.551-3.549-1.458-0.848-0.882-1.355-2.047-1.355-3.305v-29.912c0-1.848-0.707-3.593-2.028-4.904-1.375-1.375-3.203-2.125-5.128-2.125l-6.483 0.039c-3.802 0.01-6.908 3.066-6.908 6.82v90.549c0 1.809 0.731 3.544 2.057 4.865 1.36 1.355 3.154 2.116 5.084 2.096l6.479-0.02c3.841 0 6.927-3.085 6.927-6.82v-31.159c0-2.696 2.345-5.012 5.143-5.012l23.482-0.068c1.365 0 2.593 0.507 3.544 1.428 0.877 0.907 1.375 2.062 1.375 3.31v31.16c0 1.857 0.711 3.554 2.018 4.904 1.37 1.365 3.193 2.106 5.123 2.106l6.479-0.039c3.802 0 6.927-3.047 6.927-6.791v-90.53c0-1.837-0.726-3.573-2.038-4.894-1.366-1.373-3.204-2.124-5.13-2.124m35.259-0.126-5.869 0.029c-3.836 0.02-6.946 3.076-6.946 6.82v5.099c0 1.838 0.736 3.573 2.042 4.885 1.37 1.375 3.178 2.125 5.113 2.125l5.879-0.029c3.836-0.02 6.927-3.076 6.927-6.83v-5.07c0-1.848-0.707-3.578-2.052-4.904-1.359-1.389-3.168-2.125-5.094-2.125m0 25.626-5.869 0.02c-3.836 0.039-6.946 3.096-6.946 6.839v64.893c0 1.828 0.736 3.554 2.042 4.899 1.37 1.36 3.178 2.13 5.113 2.101l5.879-0.015c3.836 0 6.927-3.061 6.927-6.815v-64.917c0-1.833-0.707-3.554-2.052-4.879-1.359-1.38-3.168-2.126-5.094-2.126m47.412-0.15c-1.067 0-2.077-0.419-2.847-1.18-0.887-0.926-1.414-2.213-1.414-3.554v-13.854c0-1.818-0.712-3.554-2.047-4.875-1.37-1.355-3.174-2.116-5.094-2.106l-5.869 0.01c-3.832 0.029-6.957 3.085-6.957 6.849v13.82c0 2.706-1.608 4.992-3.495 4.992-2.915 0.01-5.313 3.071-5.313 6.795v5.104c0 2.165 0.77 4.144 2.116 5.499 0.96 0.979 2.188 1.53 3.417 1.511 0.848 0 1.477 0.478 1.857 0.829 0.897 0.917 1.418 2.374 1.418 3.919v48.031c0 1.848 0.736 3.563 2.042 4.885 1.37 1.409 3.208 2.125 5.124 2.125l5.869-0.02c3.817-0.02 6.932-3.096 6.932-6.81v-48.031c0-2.725 2.052-4.992 4.46-4.992 3.495-0.02 6.288-3.105 6.288-6.849v-5.089c0-1.94-0.755-3.783-2.086-5.124-1.207-1.238-2.772-1.905-4.401-1.885m108.06 28.142c4.002-5.689 6.595-14.044 6.595-21.274 0-7.804-2.554-14.946-7.575-21.205-6.791-8.224-22.775-10.593-23.453-10.681-3.315-0.458-8.735-0.838-12.138-0.838l-18.432 0.078c-3.812 0-6.917 3.066-6.917 6.81v90.51c0 1.848 0.716 3.563 2.057 4.904 1.345 1.384 3.173 2.115 5.089 2.115l6.489-0.048c3.836 0 6.912-3.066 6.912-6.781v-27.352c0-1.312 0.297-1.789 0.38-1.857 0.029 0.029 0.478 0.317 1.136 1.277l19.928 29.219c2.067 3.037 6.576 5.392 10.281 5.392l10.203-0.039c2.057-0.029 3.544-0.76 4.144-2.067 0.161-0.41 0.273-0.858 0.273-1.297 0-0.97-0.371-1.989-1.141-3.056 0 0-18.607-26.046-22.644-31.696 9.029-2.497 14.44-5.933 18.813-12.114m-25.3-6.976c-3.057 1.039-8.117 1.877-11.29 1.906-1.292 0-2.486-0.488-3.378-1.418-0.906-0.907-1.404-2.077-1.404-3.354v-19.338c0-2.686 2.354-4.972 5.148-4.972l5.752-0.01c5.499-0.01 9.994 1.516 12.938 4.475 2.447 2.452 3.714 5.767 3.714 9.642 0 9.057-11.348 13.02-11.48 13.069m112.11-21.825-4.367 0.039c-3.881 0.01-6.942 3.076-6.942 6.83v1.448c-6.024-6.469-15.346-10.813-24.179-10.764-21.834 0.049-38.276 17.91-38.276 41.504 0 12.777 4.353 24.169 12.221 32.086 6.801 6.791 15.507 10.364 25.198 10.334 9.477-0.029 21.332-8.38 21.839-8.736 1.307-0.951 2.398-1.102 2.827-0.873 0.351 0.2 0.37 0.829 0.37 1.121 0 1.307 0.526 2.623 1.58 3.612 1.364 1.399 3.412 2.189 5.596 2.169l4.349-0.01c3.86 0 6.941-3.076 6.941-6.83v-64.913c0-1.848-0.741-3.554-2.047-4.875-1.366-1.381-3.18-2.142-5.11-2.142m-32.817 62.549c-5.44 0-10.568-2.116-14.449-5.952-4.207-4.295-6.522-10.105-6.522-16.462 0-13.459 9.116-23.682 21.205-23.711 5.616-0.029 10.588 1.999 14.391 5.831 4.173 4.124 6.435 10.091 6.435 16.754-0.021 13.575-8.854 23.51-21.06 23.54m124.27-88.478-5.889 0.039c-3.861 0.015-6.941 3.086-6.941 6.83v24.671c-5.967-5.094-14.508-8.404-22.405-8.375-21.156 0.049-38.394 18.948-38.394 42.118 0 11.622 4.602 22.882 12.558 30.901 7.059 7.068 16.067 10.973 25.329 10.939 9.75-0.02 20.845-8.272 21.313-8.633 1.502-1.16 2.477-1.131 2.789-0.951 0.155 0.122 0.312 0.531 0.312 1.068 0 1.321 0.565 2.618 1.56 3.617 1.385 1.409 3.433 2.204 5.577 2.184l4.388-0.029c3.86 0 6.941-3.042 6.941-6.82v-90.52c0-1.838-0.741-3.544-2.048-4.899-1.366-1.379-3.199-2.14-5.09-2.14m-32.7 88.175c-5.206 0.02-10.218-2.096-14.078-5.938-4.388-4.407-6.903-10.725-6.903-17.403 0-12.09 9.848-22.722 21.06-22.751 5.284-0.034 10.335 2.096 14.195 6.001 4.349 4.3 6.806 10.491 6.806 16.847-1e-3 12.793-9.44 23.205-21.08 23.244m66.881-88.262-5.85 0.01c-3.841 0.02-6.941 3.105-6.941 6.83v5.099c0 1.828 0.741 3.583 2.027 4.875 1.365 1.384 3.198 2.155 5.129 2.155l5.889-0.049c3.841-0.029 6.883-3.066 6.883-6.83v-5.089c0-1.818-0.702-3.549-2.027-4.894-1.346-1.337-3.159-2.107-5.11-2.107m0 25.616-5.85 0.01c-3.841 0.02-6.941 3.086-6.941 6.849v64.903c0 1.838 0.741 3.554 2.027 4.865 1.365 1.384 3.198 2.145 5.129 2.115l5.889-0.01c3.841 0 6.883-3.056 6.883-6.83v-64.864c0-1.896-0.702-3.602-2.027-4.914-1.346-1.373-3.159-2.124-5.11-2.124m86.909 8.975c-7.625-7.614-17.667-11.812-28.294-11.768-22.561 0.058-40.948 18.919-40.948 41.991 0 11.319 4.407 21.98 12.401 30 7.741 7.755 17.842 11.997 28.508 11.977 22.425-0.088 40.637-18.948 40.637-42.011-1e-3 -11.499-4.388-22.224-12.304-30.189m-28.41 53.252c-5.382 0.01-10.433-2.047-14.215-5.85-4.31-4.261-6.63-10.325-6.63-17.013 0-12.567 9.632-23.208 21.039-23.238 4.992-0.015 9.828 2.042 13.591 5.83 4.388 4.46 6.922 10.778 6.922 17.35 0.019 12.84-9.067 22.882-20.707 22.921" fill="#e42632"/>
	<g id="g16" fill="#fff">
		<polyline id="polyline10" points="272.72 490.63 336.6 490.55 336.6 429.47 272.72 429.55 272.72 400.65 346 400.56 346 329.63 180.06 329.86 180.06 577.46 272.72 577.34"/>
		<polyline id="polyline12" points="70.666 490.92 134.56 490.86 134.56 430.29 70.666 430.34 70.666 400.94 143.98 400.85 143.98 329.92 -21.989 330.17 -21.989 577.77 70.666 577.64"/>
		<polyline id="polyline14" points="615.85 576.82 615.85 329.2 527.16 329.36 527.16 412.74 470.75 412.82 470.75 329.42 382.11 329.56 382.11 577.19 470.75 577.05 470.75 491 527.16 490.92 527.16 576.95"/>
	</g>
</g>
</svg>
