<?xml version="1.0" encoding="UTF-8"?>
<!-- Generator: Adobe Illustrator 13.0.0, SVG Export Plug-In . SVG Version: 6.00 Build 14948)  -->
<svg id="Ebene_1" width="106.66" height="96.573" enable-background="new 0 0 130 130" xmlns:cc="http://creativecommons.org/ns#" xmlns:dc="http://purl.org/dc/elements/1.1/" xmlns:rdf="http://www.w3.org/1999/02/22-rdf-syntax-ns#" space="preserve" version="1.1" viewBox="0 0 106.66 96.573" xmlns="http://www.w3.org/2000/svg">
 <metadata id="metadata55">
  <rdf:RDF>
   <cc:Work rdf:about="">
    <dc:format>image/svg+xml</dc:format>
    <dc:type rdf:resource="http://purl.org/dc/dcmitype/StillImage"/>
    <dc:title/>
   </cc:Work>
  </rdf:RDF>
 </metadata>
 <link id="dark-mode" href="" rel="stylesheet" type="text/css"/>
 <style id="dark-mode-custom-style" type="text/css"/>
 <g id="g12" transform="translate(-27.601,-10.735)">
  <path id="path6" d="m130 28.969-18.357 3.236c-6.03-10.293-17.203-17.206-29.993-17.206-13.925 0-25.934 8.195-31.475 20.022l-7.758 1.379v8.007l-10.551 1.86v23.05l20.37-3.59c9.735 17.302 29.414 35.738 29.414 35.738s29.442-27.586 34.114-46.935l14.236-2.509z" fill="#fff"/>
  <path id="path8" d="m130 28.969-18.357 3.236c-6.03-10.293-17.203-17.206-29.993-17.206-13.925 0-25.934 8.195-31.475 20.022l-7.758 1.379v8.007l-10.551 1.86v23.05l20.37-3.59c9.735 17.302 29.414 35.738 29.414 35.738s29.442-27.586 34.114-46.935l14.236-2.509z" fill="none" stroke="#fff" stroke-miterlimit="10" stroke-width="8.528"/>
  <path id="path10" d="m81.648 14.999c-19.185 0-34.739 15.552-34.739 34.737 0 19.186 34.739 51.733 34.739 51.733s34.737-32.547 34.737-51.733c1e-3 -19.185-15.551-34.737-34.737-34.737m0 61.855c-15.149 0-27.43-12.28-27.43-27.429 0-15.148 12.28-27.428 27.43-27.428s27.429 12.28 27.429 27.428-12.278 27.429-27.429 27.429" fill="#00afde"/>
 </g>
 <polygon id="polygon14" transform="translate(-27.601,-10.735)" points="42.416 36.4 42.416 44.409 31.866 46.269 31.866 69.32 130 52.023 130 28.969 83.344 37.194 83.344 29.126" fill="#e4333f"/>
 <polygon id="polygon16" transform="translate(-27.601,-10.735)" points="46.533 41.481 46.533 43.741 45.192 43.978 45.192 38.6 46.533 38.363 46.533 40.339 47.604 40.15 47.604 38.174 48.943 37.938 48.943 43.316 47.604 43.552 47.604 41.292" fill="#fff"/>
 <polygon id="polygon18" transform="translate(-27.601,-10.735)" points="51.848 37.426 51.848 42.804 50.478 43.046 50.478 37.667" fill="#fff"/>
 <polygon id="polygon20" transform="translate(-27.601,-10.735)" points="55.575 42.146 54.22 42.386 54.22 38.149 53.007 38.363 53.007 37.221 56.945 36.527 56.788 37.697 55.575 37.911" fill="#fff"/>
 <g id="g48" transform="translate(-27.601,-10.735)" fill="#fff">
  <path id="path22" d="m60.455 41.287-0.547-1.409c-0.203-0.52-0.321-0.568-0.614-0.517v2.13l-1.34 0.236v-5.378l1.797-0.316c1.536-0.271 2.028 0.283 2.028 1.178 0 0.926-0.471 1.479-1.085 1.696 0.18 0.023 0.397 0.231 0.524 0.487 0.172 0.332 0.614 1.249 0.786 1.62zm-0.786-4.106-0.375 0.066v1.095l0.382-0.067c0.457-0.081 0.613-0.332 0.613-0.695 1e-3 -0.385-0.201-0.473-0.62-0.399"/>
  <path id="path24" d="m65.783 40.347-0.269-0.986-1.235 0.217-0.284 1.084-1.409 0.249 1.677-5.674 1.392-0.246 1.579 5.1zm-0.762-2.945c-0.052-0.222-0.083-0.448-0.098-0.7-0.022 0.266-0.082 0.57-0.142 0.843l-0.21 0.917 0.674-0.118z"/>
  <path id="path26" d="m71.577 38.677c-0.33 0.468-0.749 0.78-1.452 0.904l-1.895 0.335v-5.379l1.842-0.325c0.36-0.063 0.823-0.114 1.243 0.112 0.591 0.32 0.854 1.015 0.854 2.111 0 0.835-0.12 1.58-0.592 2.242m-1.595-3.314-0.412 0.073v3.095l0.449-0.08c0.374-0.065 0.674-0.312 0.674-1.801 0-1.25-0.306-1.358-0.711-1.287"/>
  <polygon id="polygon28" points="74.847 33.371 74.847 38.749 73.478 38.991 73.478 33.611"/>
  <path id="path30" d="m78.508 38.195c-1.512 0.267-2.351-0.618-2.351-2.231 0-1.914 1.018-3.097 2.395-3.34 1.774-0.313 2.292 0.993 2.292 2.174 0 1.543-0.473 3.069-2.336 3.397m7e-3 -4.484c-0.605 0.107-0.861 0.808-0.861 1.834 0 1.374 0.323 1.656 0.877 1.559 0.567-0.101 0.815-0.492 0.815-1.873 0-1.341-0.254-1.621-0.831-1.52"/>
  <path id="path32" d="m42.433 62.983c0-0.52 0-1.064 0.085-1.602l-0.02 3e-3c-0.51 1.176-1.765 2.11-3.229 2.368-2.023 0.354-3.083-0.626-3.083-2.3 0-2.634 2.592-4.344 5.95-4.937v-0.399c0-0.857-0.488-1.189-1.89-0.943-0.937 0.166-2.212 0.683-3.083 1.298l-0.253-2.59c1.081-0.527 2.508-1.048 3.823-1.284 3.634-0.639 4.655 0.521 4.655 2.904v4.519c0.511-8e-3 1.235-0.052 1.849-0.12v2.049c-1.53 0.437-3.272 0.828-4.804 1.034m-0.297-4.441c-2.34 0.412-2.891 1.138-2.891 1.889 0 0.524 0.382 0.832 1.062 0.714 1.085-0.192 1.829-1.285 1.829-2.309z"/>
  <path id="path34" d="m52.126 52.492 0.043-7e-3c0.636-1.176 1.806-2.177 3.483-2.474 2.36-0.417 3.143 0.929 3.143 2.728v7.336l-3.249 0.575v-6.607c0-0.838-0.232-1.297-0.977-1.166-1.129 0.2-2.083 1.748-2.083 3.272v5.042l-3.251 0.572v-7.966c-0.51 7e-3 -1.231 0.051-1.85 0.118v-2.048c1.552-0.443 3.297-0.832 4.869-1.048 1e-3 0.398-0.022 1.153-0.128 1.673"/>
  <path id="path36" d="m64.979 59.217c-2.443 0.432-3.229-0.223-3.229-2.775v-4.832l-1.595 0.285v-2.449l1.595-0.28v-3.073l3.229-1.426v3.928l2.296-0.402v2.443l-2.273 0.403v4.098c0 1.068 0.275 1.373 1.083 1.231 0.383-0.068 0.852-0.233 1.19-0.375v2.528c-0.703 0.291-1.528 0.561-2.296 0.696"/>
  <path id="path38" d="m78.114 52.26-6.288 1.108c0.021 1.376 0.869 2.022 2.609 1.713 1.042-0.182 2.127-0.582 3.107-1.193l0.294 2.35c-1.19 0.693-2.609 1.173-3.908 1.402-3.466 0.609-5.379-0.706-5.379-4.364 0-3.198 1.81-5.879 5.081-6.457 3.188-0.562 4.588 1.301 4.588 4.02 1e-3 0.44-0.039 0.907-0.104 1.421m-4.567-3.104c-0.937 0.167-1.62 1.018-1.7 2.099l3.188-0.564c0.039-1.177-0.556-1.701-1.488-1.535"/>
  <path id="path40" d="m83.686 46.928 0.041-7e-3c0.635-1.18 1.805-2.181 3.482-2.475 2.358-0.415 3.147 0.93 3.147 2.729v7.34l-3.253 0.571v-6.606c0-0.835-0.233-1.297-0.978-1.166-1.125 0.2-2.082 1.748-2.082 3.275v5.038l-3.252 0.575v-7.969c-0.507 6e-3 -1.234 0.05-1.85 0.118v-2.048c1.552-0.443 3.296-0.832 4.869-1.048 2e-3 0.398-0.023 1.156-0.124 1.673"/>
  <path id="path42" d="m96.415 44.683 0.04-7e-3c0.638-1.179 1.809-2.18 3.489-2.474 2.355-0.416 3.141 0.93 3.141 2.729v7.339l-3.249 0.572v-6.606c0-0.835-0.233-1.298-0.979-1.167-1.125 0.2-2.081 1.749-2.081 3.276v5.038l-3.252 0.574v-7.968c-0.511 7e-3 -1.234 0.051-1.85 0.118v-2.048c1.552-0.443 3.292-0.832 4.868-1.049 1e-3 0.399-0.023 1.156-0.127 1.673"/>
  <path id="path44" d="m114.28 45.883-6.288 1.108c0.021 1.373 0.868 2.019 2.612 1.711 1.041-0.183 2.128-0.581 3.101-1.193l0.298 2.352c-1.19 0.69-2.612 1.171-3.908 1.4-3.466 0.613-5.379-0.703-5.379-4.36 0-3.203 1.809-5.883 5.082-6.461 3.188-0.562 4.591 1.306 4.591 4.022 0 0.438-0.044 0.907-0.109 1.421m-4.567-3.107c-0.937 0.166-1.616 1.018-1.7 2.099l3.188-0.56c0.041-1.18-0.552-1.701-1.488-1.539"/>
  <polygon id="polygon46" points="119.39 39.503 118.92 36.556 122.7 34.696 125.04 34.284 125.04 48.398 121.68 48.99 121.68 38.223"/>
 </g>
</svg>
