<?xml version="1.0" encoding="UTF-8"?>
<!-- Created with Inkscape (http://www.inkscape.org/) -->
<svg id="svg2" width="426.08" height="405.64" version="1.1" viewBox="0 0 426.08 405.64" xml:space="preserve" xmlns="http://www.w3.org/2000/svg" xmlns:cc="http://creativecommons.org/ns#" xmlns:dc="http://purl.org/dc/elements/1.1/" xmlns:rdf="http://www.w3.org/1999/02/22-rdf-syntax-ns#"><metadata id="metadata8"><rdf:RDF><cc:Work rdf:about=""><dc:format>image/svg+xml</dc:format><dc:type rdf:resource="http://purl.org/dc/dcmitype/StillImage"/><dc:title/></cc:Work></rdf:RDF></metadata><defs id="defs6"><linearGradient id="linearGradient50" x2="1" gradientTransform="matrix(311.89 311.89 311.89 -311.89 137.99 294.52)" gradientUnits="userSpaceOnUse"><stop id="stop44" stop-color="#960057" offset="0"/><stop id="stop46" stop-color="#d6007e" offset=".99306"/><stop id="stop48" stop-color="#d6007e" offset="1"/></linearGradient><clipPath id="clipPath60"><path id="path58" d="m0 0h1190.6v841.89h-1190.6z"/></clipPath></defs><g id="g10" transform="matrix(1.3333 0 0 -1.3333 -178.88 803.45)"><g id="g12"><g id="g14"><g id="g20"/></g></g><g id="g32"><g id="g34"><g id="g40"><g id="g42"><path id="path52" d="m196.19 602.58s-62.033 0-62.033-61.216v-243.01h257.53s62.03 0 62.03 61.216v243.01z" fill="url(#linearGradient50)"/></g></g></g></g><g id="g54"><g id="g56" clip-path="url(#clipPath60)"><g id="g62" transform="translate(293.79 368.68)"><path id="path64" d="m0 0c-34.693-0.595-76.732 5.653-103.9 17.225v10.429c28.557-11.952 67.4-18.29 102.09-17.701 37.426 0.642 76.392 6.853 103.37 17.303v-10.116c-30.179-10.59-64.357-16.514-101.56-17.14" fill="#fff"/></g><g id="g66" transform="translate(207.95 525.69)"><path id="path68" d="m0 0-5e-3 -38.605s12.285 2.526 23.088 2.42c17.951-0.181 26.946-9.702 27.583-22.14 0.16-3.163 0.13-4.904 0.13-8.301v-50.266h-18.936v51.339c0 6.279 0.405 14.086-13.902 14.018-10.185-0.049-17.379-1.981-17.379-1.981v-63.376h-18.478v115.73z" fill="#fff"/></g><g id="g70" transform="translate(322.89 489.34)"><path id="path72" d="m0 0c-0.231 0.042-16.908-0.261-26.759-2.495-11.488-2.589-18.854-9.437-19.885-19.904-0.198-2.017-0.29-3.297-0.29-7.888v-50.394h18.916v51.525c0 4.522 0.355 7.388 3.351 10.043 3.393 2.998 11.129 3.434 15.556 3.789 3.034 0.243 9.111 0.408 9.111 0.408z" fill="#fff"/></g></g></g><g id="g74" transform="translate(404 435.08)"><path id="path76" d="m0 0v16.081h-13.937v27.28h-17.772v-27.28h-22.113l33.179 77.267h-19.571l-33.437-77.267v-16.081h41.942v-26.284h18.637v26.284z" fill="#fff"/></g></g></svg>
