<svg version="1.1" viewBox="0 0 144.52 64.785" xmlns="http://www.w3.org/2000/svg">
 <path d="m68.725 61.312-0.745-6.347c-3.917 1.935-9.968 3.32-14.88 3.32-15.424 0-22.616-9.323-22.616-25.595 0-14.438 6.348-26.39 21.724-26.39 4.96 0 9.822 0.84 15.03 2.428l0.742-6.647c-4.66-1.14-9.722-1.885-14.582-1.885-21.525 0-30.702 14.586-30.702 33.584 0 18.755 9.028 30.906 28.57 30.906 6.547 0 12.598-1.338 17.46-3.373m42.654 2.63c-0.196-4.12-0.196-9.378-0.196-13.942v-18.254c0-8.83-3.62-15.18-16.467-15.18-6.25 0-11.657 1.487-16.07 3.473l0.643 6.152c4.118-2.58 9.723-4.02 14.236-4.02 8.034 0 10.564 3.97 10.564 10.965v3.818c-18.152 0-28.27 6.748-28.27 16.47 0 7.39 5.354 11.36 12.747 11.36 7.934 0 13.938-4.813 16.168-10.666h0.2c-0.447 2.68-0.447 6.25-0.447 9.823h6.893zm-7.29-21.084c0 8.036-5.405 16.222-13.64 16.222-4.612 0-7.588-2.73-7.588-6.945 0-4.515 3.72-10.02 21.228-10.02v0.744z" clip-rule="evenodd" fill="#ce1728" fill-rule="evenodd"/>
 <path d="m0 21.328h14.36v42.615h-14.36zm14.807-12.749c0-4.662-3.97-8.383-8.83-8.383-2.308 0-4.414 0.88-5.976 2.314v12.185c1.563 1.44 3.67 2.32 5.978 2.32 4.86 0 8.83-3.82 8.83-8.436m117.77 39.439v-25.1h11.94v-5.508h-11.94v-17.41l-7.043 1.98v15.43h-10.12v5.507h10.12v27.978c0 9.675 2.73 13.79 12.053 13.79 2.29 0 4.785-0.243 6.93-0.61v-6.02c-1.54 0.295-3.267 0.432-4.946 0.432-5.507 0-6.994-2.134-6.994-10.47" fill="#ce1728"/>
</svg>
