<svg width="800" height="101.95" version="1.0" viewBox="0 0 800 101.95" xmlns="http://www.w3.org/2000/svg">
 <path d="m492.38 23.169h-12.84c-11.977 0-26.258 5.9017-26.258 33.987v10.777c0 28.113 14.282 34.015 26.258 34.015h12.84c11.983 0 26.266-5.9017 26.266-34.015v-10.777c0-28.086-14.284-33.987-26.266-33.987zm8.7487 44.764c0 16.643-5.686 16.643-8.7487 16.643h-12.84c-3.055 0-8.741 0-8.741-16.643v-10.777c0-6.968 1.0171-11.568 3.0274-13.659 1.4962-1.565 3.4751-1.5589 5.3877-1.5512h13.492c1.9183-0.0077 3.8992-0.01384 5.3954 1.5512 2.0086 2.0908 3.0274 6.6908 3.0274 13.659zm-139.28-42.97v41.419l-25.072-41.419h-19.123v75.316h17.474v-45.422l27.278 45.422h16.92v-75.316zm-104.56 0v17.474h15.079v41.703h-15.079v16.131h48.08v-16.131h-15.12v-41.703h15.12v-17.474zm136.93 0v75.309h18.39v-25.792h27.628v-17.939h-27.628v-13.637h35.363v-17.939z" fill="#0064ae" fill-rule="evenodd" stroke-width="4.07e-5"/>
 <path d="m687.04 0.0017235v31.894c-3.7323-5.4503-11.193-8.7487-18.943-8.7487-17.482 0-26.833 11.47-26.833 33.71v11.317c0 22.235 9.3515 33.71 26.833 33.71 7.7491 0 15.21-3.3103 18.943-8.7467v7.1328h14.766v-100.27zm0 69.033c0 12.197-5.6034 19.228-15.495 19.228-9.7577 0-15.506-5.4446-15.506-20.654v-10.182c0-15.223 5.7487-20.652 15.506-20.652 9.8916 0 15.495 7.0152 15.495 19.219zm86.128-45.888h-6.9603c-17.497 0-26.841 11.47-26.841 33.71v11.317c0 22.235 9.3438 33.71 26.841 33.71h6.9603c17.482 0 26.833-11.476 26.833-33.71v-11.317c0-22.241-9.3515-33.71-26.833-33.71zm12.051 44.46c0 15.21-5.7487 20.654-15.506 20.654h-0.057c-9.7658 0-15.514-5.4446-15.514-20.654v-10.182c0-15.223 5.7487-20.652 15.514-20.652h0.057c9.7577 0 15.506 5.4288 15.506 20.652zm-71.069 32.658h14.79v-75.302h-14.79zm14.794-100.26h-14.789v13.426h14.789zm-14.794 0h14.794m-165.58 24.905c-7.4471 0-13.744 3.7128-17.185 8.7426v-8.6856h-14.753v75.309h14.753v-41.542c0-12.76 5.4581-19.276 14.753-19.276-0.0134 0.01954 11.146 0.01954 11.146 0.01954v-14.566s-8.6995 0.0077-8.7133 0zm40.205 0.07082h-22.197v14.545h21.77c9.1769 0 14.184 4.5846 14.184 12.758v2.709c-4.1548-1.8629-9.7386-2.8604-16.767-2.8604-17.073 0-29.97 7.5904-29.97 24.373 0 18.501 13.914 25.379 26.105 25.379 8.1737 0 15.481-3.8662 20.633-9.0255v7.4174h14.492v-50.056c0-17.081-11.47-25.239-28.247-25.239zm13.755 53.963c-3.434 4.7299-10.312 9.6129-18.208 9.6129-9.7463 0-14.484-5.0282-14.484-12.482 0-6.8838 6.0275-11.186 15.495-11.186 8.034 0 13.188 1.2939 17.197 3.2887z" fill="#575755" fill-rule="evenodd" stroke-width="4.07e-5"/>
 <g transform="matrix(.53043 0 0 .53043 0 1.7495e-6)" fill="#e31818">
  <path d="m0 0v192.2h396.9l40.9-192.2z"/>
 </g>
 <g transform="matrix(.53043 0 0 .53043 .00013739 -.00045665)" fill="#fff">
  <path transform="matrix(1.8853 0 0 1.8853 0 323.52)" d="m77.92-149.17v55.322s13.527 1.75 25.09 1.75c21.111 0 26.574-4.5605 26.574-4.5605s2.0156-2.8646 2.0156-15.064c0-11.775-2.0703-14.428-2.0703-14.428s-9.5467-5.4629-29.066-5.4629c-4.6678 0.053-9.3889 0.37099-14.057 1.0606v-18.617zm62.643 0v55.322s13.527 1.75 25.09 1.75c21.111 0 26.574-4.5605 26.574-4.5605s1.9626-2.8646 2.0156-15.064c0-11.775-2.0684-14.428-2.0684-14.428s-9.5487-5.4629-29.068-5.4629c-4.6678 0.053-9.3869 0.37099-14.055 1.0606v-18.617zm-72.031 17.768c-32.621 0.15913-45.564 8.1172-45.564 8.1172v30.605h8.6465v-24.824c4.1373-1.4322 15.595-4.8282 36.918-5.1465zm33.217 8.6406c10.038 0.12493 17.262 1.9678 20.727 3.1348 0.31826 2.7582 0.53094 5.5696 0.58398 8.3809 0 2.7582-0.1583 5.5699-0.47656 8.3281-2.7052 0.7426-8.7525 2.0153-19.414 2.0684-4.6678 0-10.237-0.37161-16.762-0.95507v-19.838c5.6358-0.87853 10.779-1.1759 15.342-1.1192zm62.625 0c10.051 0.12493 17.265 1.9678 20.693 3.1348 0.31825 2.7582 0.52898 5.5696 0.58203 8.3809 0 2.7582-0.15831 5.5699-0.47656 8.3281-2.7052 0.7426-8.7525 2.0153-19.414 2.0684-4.7208 0-10.237-0.37161-16.762-0.95507v-19.838c5.6524-0.87852 10.808-1.1759 15.377-1.1192z" fill="#fff" stroke-width=".53043"/>
 </g>
</svg>
