<svg width="800" height="329.89" version="1.1" viewBox="0 0 211.67 87.287" xmlns="http://www.w3.org/2000/svg">
 <g transform="matrix(.83047 0 0 .83047 -180.44 -65.202)" fill="#139e8a">
  <g fill="#139e8a">
   <path d="m344.72 118.76c-7.6039 0-13.768-6.1642-13.768-13.768 0-7.6039 6.1642-13.768 13.768-13.768 7.6039 0 13.768 6.1642 13.768 13.768 0 7.6039-6.1642 13.768-13.768 13.768zm0-40.245c-14.623 0-26.477 11.854-26.477 26.477s11.854 26.477 26.477 26.477 26.477-11.854 26.477-26.477-11.854-26.477-26.477-26.477"/>
   <path d="m318.83 84.028v-4.6011h-13.239v25.562c0 7.6039-6.1933 13.762-13.797 13.762-7.0663 0-12.915-5.2348-13.703-12.185h-12.751c0.82224 13.9 12.336 24.894 26.425 24.894 9.5603 0 17.935-5.065 22.589-12.66-1.9186-4.2108-2.9671-8.884-2.9671-13.813 0-7.942 2.8092-15.231 7.4427-20.959"/>
   <path d="m383.64 104.99c0-7.7502 6.2827-14.033 14.033-14.033 1.6353 0 3.2018 0.28628 4.6606 0.80093l-17.896 17.896c-0.51465-1.4597-0.79729-3.0287-0.79729-4.6644zm27.974 1.5774c-0.78934 6.9502-6.7282 12.45-13.941 12.45-1.6356 0-3.2047-0.2799-4.6643-0.79431l27.172-27.171c-4.6696-7.5251-13-12.54-22.508-12.54-9.5612 0-17.933 5.0727-22.587 12.669 1.9169 4.2092 2.9936 8.8818 2.9936 13.809 0 4.9268-1.0766 9.5994-2.9936 13.809 4.654 7.5962 13.025 12.663 22.587 12.663 14.088 0 25.593-10.994 26.416-24.894h-12.475"/>
  </g>
 </g>
 <g transform="matrix(.44762 0 0 .44762 218.23 -72.316)" fill="#fff">
  <path d="m-346.9 268.26c4.6399-2.864 11.343-2.0781 15.015 2.0176 1.9119 2.0932 2.8867 4.9119 3.0832 7.7079 0.6272 11.993-5.2822 24.053-15.098 30.968l-7.6777-8.6676c3.7935-2.3275 7.2923-5.7205 8.4258-10.164-3.6197-0.98238-6.9598-3.3476-8.4107-6.8918-2.403-5.2444-0.29493-12.023 4.6625-14.97z" stroke-width=".75568"/>
  <g transform="matrix(11.297 0 0 11.297 -207.69 839.56)">
   <path d="m-19.829-49.972-0.68793 1.4711q-0.17992-0.11642-0.37043-0.15875-0.28576-0.08467-0.59268-0.08467-0.74085 0-1.1113 0.46568-0.127 0.17992-0.1905 0.38101-0.05292 0.1905-0.05292 0.30692 0.14817-0.10584 0.42334-0.20109 0.30692-0.10584 0.73027-0.10584 0.96311 0 1.5558 0.62443 0.62443 0.67735 0.62443 1.8627 0 1.1642-0.7091 1.905-0.71968 0.75144-1.8627 0.75144-1.4923 0-2.1379-0.95252-0.56093-0.81494-0.56093-2.4766 0-1.8521 0.6456-2.9211 0.81494-1.3335 2.5189-1.3335 0.60326 0 1.1113 0.16934 0.13759 0.04233 0.39159 0.14817 0.04233 0.02117 0.27517 0.14817zm-3.1116 4.0535q0 0.71968 0.127 1.016 0.1905 0.4551 0.75144 0.4551 0.78319 0 0.78319-0.89961 0-0.41276-0.21167-0.67735-0.22226-0.26459-0.61385-0.26459-0.43393 0-0.8361 0.37043z" style="white-space:pre"/>
   <path d="m-13.998-43.707q-0.65618 0.95252-2.0215 0.95252-1.3759 0-2.0109-0.95252-0.62443-0.94194-0.62443-2.8893 0-1.9474 0.62443-2.8893 0.63502-0.95252 2.0109-0.95252 1.3653 0 2.0215 0.95252 0.61385 0.93136 0.61385 2.8893t-0.61385 2.8893zm-2.6671-1.2594q0.16934 0.5186 0.6456 0.5186t0.6456-0.5186q0.15875-0.46568 0.15875-1.6299t-0.15875-1.6299q-0.16934-0.5186-0.6456-0.5186t-0.6456 0.5186q-0.15875 0.46568-0.15875 1.6299t0.15875 1.6299z" style="white-space:pre"/>
   <path d="m-9.6902-43.061q-0.5186-0.27517-0.79377-0.6456l0.99486-0.96311q0.55035 0.48685 1.2277 0.48685 0.49743 0 0.49743-0.30692 0-0.20109-0.39159-0.35984l-0.20109-0.0635-0.21167-0.07409-0.46568-0.16934q-1.27-0.52918-1.27-1.7145 0-0.78319 0.61385-1.2594 0.5821-0.4551 1.524-0.4551 0.7091 0 1.27 0.30692 0.39159 0.22226 0.71968 0.6456l-1.143 0.89961q-0.05292-0.05292-0.15875-0.13759-0.127-0.10584-0.20109-0.14817-0.27517-0.14817-0.56093-0.14817-0.40218 0-0.40218 0.27517 0 0.22226 0.40218 0.37043 0.0635 0.03175 0.41276 0.13759l0.22226 0.07409 0.24342 0.07409q1.2806 0.47626 1.2806 1.651 0 0.8361-0.65618 1.3441-0.62443 0.48685-1.6087 0.48685-0.7091 0-1.3441-0.30692z" style="white-space:pre"/>
  </g>
  <g transform="translate(-24.868)">
   <path d="m-139.85 285.65-26.304 69.348h-22.119l25.706-65.88h-34.435v-17.815h57.152z" style="white-space:pre"/>
   <path d="m-79.229 345.79q-7.413 10.761-22.837 10.761-15.543 0-22.717-10.761-7.0543-10.641-7.0543-32.641t7.0543-32.641q7.1739-10.761 22.717-10.761 15.424 0 22.837 10.761 6.9347 10.522 6.9347 32.641 0 22.12-6.9347 32.641zm-30.13-14.228q1.913 5.8587 7.2935 5.8587 5.3804 0 7.2934-5.8587 1.7935-5.2608 1.7935-18.413 0-13.152-1.7935-18.413-1.913-5.8587-7.2934-5.8587t-7.2935 5.8587q-1.7935 5.2608-1.7935 18.413 0 13.152 1.7935 18.413z" style="white-space:pre"/>
   <path d="m-30.567 353.09q-5.8587-3.1087-8.9673-7.2934l11.239-10.88q6.2174 5.5 13.869 5.5 5.6195 0 5.6195-3.4674 0-2.2717-4.4239-4.0652l-2.2717-0.71739-2.3913-0.83699-5.2608-1.913q-14.348-5.9782-14.348-19.369 0-8.8478 6.9347-14.228 6.5761-5.1413 17.217-5.1413 8.0108 0 14.348 3.4674 4.4239 2.5109 8.1304 7.2934l-12.913 10.163q-0.59782-0.59783-1.7935-1.5543-1.4348-1.1957-2.2717-1.674-3.1087-1.6739-6.3369-1.6739-4.5435 0-4.5435 3.1087 0 2.5109 4.5435 4.1848 0.71739 0.35869 4.663 1.5543l2.5109 0.83703 2.75 0.83699q14.467 5.3804 14.467 18.652 0 9.4456-7.413 15.185-7.0543 5.5-18.174 5.5-8.0108 0-15.185-3.4674z" style="white-space:pre"/>
   <path d="m-60.305 268.26c4.6399-2.864 11.343-2.0781 15.015 2.0177 1.9118 2.0932 2.8866 4.9119 3.0831 7.7079 0.62724 11.993-5.2822 24.053-15.098 30.968l-7.6777-8.6676c3.7935-2.3275 7.2923-5.7205 8.4258-10.164-3.6197-0.98238-6.9598-3.3476-8.4107-6.8918-2.4031-5.2444-0.29453-12.023 4.6625-14.97z" stroke-width=".75568"/>
  </g>
  <path d="m-230.53 355.45 3.4153-3.2954-4.374-4.374c2.5764-4.0744 3.1157-7.9091 3.1157-12.762h-4.5537c0 4.0145-0.29959 6.3512-1.9773 9.407l-9.9463-9.5868c5.7521-3.2355 9.407-6.7707 9.407-11.983 0-6.2314-4.374-10.545-11.684-10.545-7.4298 0-11.444 5.093-11.444 10.486 0 4.1343 2.217 6.8905 4.5537 9.2872-4.1942 2.3967-7.3698 6.0516-7.3698 11.324 0 6.8905 5.4525 12.403 14.56 12.403 5.2727 0 9.5268-1.9773 12.223-4.6736zm-16.298-3.9545c-5.3326 0-9.8264-3.0558-9.8264-8.3285 0-3.9545 2.6963-6.6508 5.7521-7.969l13.122 12.643c-1.9174 1.9773-5.2727 3.655-9.0475 3.655zm-7.25-28.521c0-3.8347 2.876-6.6508 7.0103-6.6508 4.314 0 7.1302 2.8161 7.1302 6.6508 0 3.8946-3.595 6.9504-7.969 9.1674-3.1756-2.6963-6.1715-5.3926-6.1715-9.1674z" style="white-space:pre"/>
 </g>
</svg>
