<svg width="800" height="529.67" version="1.1" viewBox="0 0 211.67 140.14" xmlns="http://www.w3.org/2000/svg">
 <g transform="matrix(1.3334 0 0 1.3334 -353.8 -104.69)" fill="#5c1d54">
  <g fill="#5c1d54">
   <path d="m344.72 118.76c-7.6039 0-13.768-6.1642-13.768-13.768 0-7.6039 6.1642-13.768 13.768-13.768 7.6039 0 13.768 6.1642 13.768 13.768 0 7.6039-6.1642 13.768-13.768 13.768zm0-40.245c-14.623 0-26.477 11.854-26.477 26.477s11.854 26.477 26.477 26.477 26.477-11.854 26.477-26.477-11.854-26.477-26.477-26.477"/>
   <path d="m318.83 84.028v-4.6011h-13.239v25.562c0 7.6039-6.1933 13.762-13.797 13.762-7.0663 0-12.915-5.2348-13.703-12.185h-12.751c0.82224 13.9 12.336 24.894 26.425 24.894 9.5603 0 17.935-5.065 22.589-12.66-1.9186-4.2108-2.9671-8.884-2.9671-13.813 0-7.942 2.8092-15.231 7.4427-20.959"/>
   <path d="m383.64 104.99c0-7.7502 6.2827-14.033 14.033-14.033 1.6353 0 3.2018 0.28628 4.6606 0.80093l-17.896 17.896c-0.51465-1.4597-0.79729-3.0287-0.79729-4.6644zm27.974 1.5774c-0.78934 6.9502-6.7282 12.45-13.941 12.45-1.6356 0-3.2047-0.2799-4.6643-0.79431l27.172-27.171c-4.6696-7.5251-13-12.54-22.508-12.54-9.5612 0-17.933 5.0727-22.587 12.669 1.9169 4.2092 2.9936 8.8818 2.9936 13.809 0 4.9268-1.0766 9.5994-2.9936 13.809 4.654 7.5962 13.025 12.663 22.587 12.663 14.088 0 25.593-10.994 26.416-24.894h-12.475"/>
  </g>
 </g>
 <g transform="matrix(2.8643 0 0 2.8643 -355.75 -1115.1)" fill="#da3180">
  <path d="m142.16 438.22q-3.51 0-5.55-1.8t-2.04-4.92q0-3.24 2.55-4.8-0.81-0.6-1.38-1.59-0.66-1.14-0.66-2.55 0-2.67 1.89-4.38 1.95-1.74 5.22-1.74t5.19 1.74q1.92 1.71 1.92 4.38 0 1.41-0.66 2.55-0.54001 0.99-1.41 1.59 2.58 1.53 2.58 4.8 0 3.09-2.07 4.89-2.1 1.83-5.58 1.83zm-1.74-8.37q-0.62999 0.63-0.62999 1.56 0 2.16 2.4 2.16t2.4-2.16q0-0.9-0.6-1.56-0.66-0.63001-1.8-0.63001-1.08 0-1.77 0.63001zm-0.26999-6.96q0 1.89 2.04 1.89t2.04-1.89q0-0.81-0.51-1.32-0.57-0.54-1.53-0.54-2.04 0-2.04 1.86z" style="white-space:pre"/>
  <path d="m165.29 435.52q-1.86 2.7-5.73 2.7-3.9 0-5.7-2.7-1.77-2.67-1.77-8.19t1.77-8.19q1.8-2.7 5.7-2.7 3.87 0 5.73 2.7 1.74 2.64 1.74 8.19t-1.74 8.19zm-7.56-3.57q0.48 1.47 1.83 1.47t1.83-1.47q0.45-1.32 0.45-4.62t-0.45-4.62q-0.48-1.47-1.83-1.47t-1.83 1.47q-0.45 1.32-0.45 4.62t0.45 4.62z" style="white-space:pre"/>
  <path d="m177.5 437.35q-1.47-0.78-2.25-1.83l2.82-2.73q1.56 1.38 3.48 1.38 1.41 0 1.41-0.87 0-0.57-1.11-1.02l-0.57-0.18-0.6-0.21001-1.32-0.48q-3.6-1.5-3.6-4.86 0-2.22 1.74-3.57 1.65-1.29 4.32-1.29 2.01 0 3.6 0.87 1.11 0.63 2.04 1.83l-3.24 2.55q-0.15-0.15-0.45-0.38999-0.36-0.30001-0.57-0.42001-0.78-0.42-1.59-0.42-1.14 0-1.14 0.78 0 0.63 1.14 1.05 0.18 0.09 1.17 0.39l0.63 0.21002 0.69 0.21001q3.63 1.35 3.63 4.68 0 2.37-1.86 3.81-1.77 1.38-4.56 1.38-2.01 0-3.81-0.87z" style="white-space:pre"/>
  <path d="m170.04 416.06c1.1642-0.71861 2.846-0.52142 3.7675 0.50626 0.47971 0.52521 0.7243 1.2324 0.77359 1.934 0.15738 3.0091-1.3254 6.0352-3.7883 7.7701l-1.9264-2.1748c0.95183-0.58399 1.8297-1.4353 2.1141-2.5502-0.90822-0.24649-1.7463-0.83996-2.1103-1.7292-0.60296-1.3159-0.0739-3.0166 1.1699-3.7561z" stroke-width=".18961"/>
 </g>
</svg>
