<?xml version="1.0" encoding="UTF-8"?>
<!-- Created with Inkscape (http://www.inkscape.org/) -->
<svg id="svg2" width="169.33mm" height="44.944mm" version="1.1" viewBox="0 0 600 159.25" xmlns="http://www.w3.org/2000/svg" xmlns:cc="http://creativecommons.org/ns#" xmlns:dc="http://purl.org/dc/elements/1.1/" xmlns:rdf="http://www.w3.org/1999/02/22-rdf-syntax-ns#">
 <metadata id="metadata7">
  <rdf:RDF>
   <cc:Work rdf:about="">
    <dc:format>image/svg+xml</dc:format>
    <dc:type rdf:resource="http://purl.org/dc/dcmitype/StillImage"/>
    <dc:title/>
   </cc:Work>
  </rdf:RDF>
 </metadata>
 <g id="layer1" transform="translate(-65.714 -841.4)">
  <g id="g829">
   <path id="kiraka_7_" d="m143 902.05h21.077v49.18h-21.077v-49.18zm0-7.26h21.077v-16.159h-21.077v16.159zm-27.635 24.356c-2.1077-2.3419-4.6838-3.9813-7.0258-5.1522l24.824-35.363h-24.122l-22.951 31.382v-31.382h-20.375v72.365h20.375v-25.761h2.1077c0.70258 0 6.5574-0.23419 10.07 5.1522l13.115 20.375h24.59l-11.71-18.735c-3.5129-6.089-6.7916-10.539-8.8993-12.881m260.42 0c-2.1077-2.3419-4.6838-3.9813-7.26-5.1522l24.824-35.363h-24.122l-22.951 31.382v-31.382h-19.906v72.365h20.375v-25.761h2.1077c0.70258 0 7.26 0 10.07 5.1522l13.115 20.375h24.59l-11.71-18.735c-3.7471-6.089-7.0258-10.539-9.1335-12.881m62.998 1.171h-2.3419c-10.539 0-17.564 3.0445-17.564 10.304 0 4.4496 3.7471 6.7916 8.4309 6.7916 5.6206 0 9.1335-2.5761 11.71-5.1522l-0.23419-11.944zm22.014 8.1967c0 10.304 0.93677 17.799 2.1077 22.482h-21.78c-0.70258-1.6393-1.171-5.1522-1.4052-7.4941-3.7471 4.4496-10.539 9.1335-20.375 9.1335-12.881 0-21.78-7.26-21.78-20.375 0-18.267 18.501-25.527 38.642-25.527h2.3419v-3.2787c0-5.6206-2.5761-8.4309-11.241-8.4309-8.4309 0-14.988 3.7471-18.735 6.3232l-9.6019-12.881c5.6206-4.918 16.159-10.539 31.382-10.539 21.546 0 30.445 7.7283 30.445 27.4v23.185m-251.52-18.033c6.3232 0 9.3677-3.2787 9.3677-8.4309 0-5.1522-3.0445-7.9625-10.304-7.9625h-9.6019v16.393h10.539m15.691 10.304c2.3419 1.8735 5.8548 5.1522 9.8361 11.71l11.71 18.735h-22.482l-13.115-20.609c-3.5129-5.1522-9.3677-5.1522-10.07-5.1522h-2.1077v25.761h-20.609v-72.365h31.616c18.97 0 30.211 7.4941 30.211 22.014 0 11.475-7.7283 17.564-14.988 19.906m65.34-0.46838h-2.3419c-10.539 0-17.564 3.0445-17.564 10.304 0 4.4496 3.7471 6.7916 8.4309 6.7916 5.6206 0 9.1335-2.5761 11.71-5.1522l-0.2342-11.944zm22.248 8.1967c0 10.304 1.171 17.799 2.1077 22.717h-21.78c-0.70258-1.6394-1.171-5.1522-1.4052-7.4942-3.7471 4.4496-10.773 9.1335-20.375 9.1335-12.881 0-22.014-7.26-21.78-20.375 0-18.501 18.501-25.527 38.642-25.527h2.3419v-3.2787c0-5.6206-2.5761-8.4309-11.241-8.4309-8.4309 0-14.988 3.7471-18.735 6.3232l-9.8361-13.349c5.6206-4.918 16.159-10.539 31.382-10.539 21.546 0 30.445 7.7283 30.445 27.4l0.23419 23.419z"/>
   <polygon id="Slash_7_" transform="matrix(2.3419 0 0 2.3419 65.714 841.4)" points="222 0 203.5 68 169.1 68 187.6 0"/>
   <path id="path3435" d="m651.43 963.88h-4.2155v-6.5574h4.2155c2.8103 0 3.9813 1.171 3.9813 3.2787-0.23419 1.8735-1.4052 3.2787-3.9813 3.2787m-27.869 9.6019h-2.3419v-15.925h2.1077c5.3864 0 7.7283 2.3419 7.7283 7.7283-0.23419 5.3864-2.5761 8.1967-7.4941 8.1967m33.958-5.3864c2.8103-0.93676 5.6206-3.2787 5.6206-7.9625 0-5.8548-4.2155-8.8993-11.475-8.8993h-12.646v10.07c-1.4052-6.089-6.5574-10.07-15.925-10.07h-17.799l-2.8103 11.71c-0.46838 2.3419-0.93677 5.6206-0.93677 5.6206s-0.70257-3.5129-1.171-5.8548l-2.3419-11.475h-9.6019l-2.3419 11.475c-0.46838 2.3419-1.171 5.8548-1.171 5.8548s-0.46838-3.0445-0.93677-5.6206l-2.8103-11.71h-8.8993l7.7283 29.04h8.8993l4.4496-18.501 4.4496 18.501h8.6651l6.5574-24.122v24.122h9.8361c9.3677 0 14.754-4.4496 16.159-10.539v10.539h7.9625v-10.304h0.70258c0.93676 0 3.2787 0 4.4496 1.8735l4.918 8.1967h8.6651l-4.4496-7.4942c-1.6393-2.5761-2.8103-3.7471-3.7471-4.4496"/>
  </g>
  <path id="Pfeil_Kreis_7_" transform="matrix(.9375 0 0 .9375 65.714 841.4)" d="m490.87 43.965c-18.985 0-34.475 15.489-34.475 34.475 0 18.985 15.489 34.473 34.475 34.473 18.985 0 34.473-15.487 34.473-34.473 0-18.985-15.487-34.225-34.473-34.475zm-9.4941 14.49 28.229 19.984-28.229 19.984v-39.969z" clip-path="url(#SVGID_4_)" fill="#ff0" stroke-width="1.0667"/>
 </g>
 <style id="style3" type="text/css"><![CDATA[
	.st0{fill:#00A591;}
]]></style>
 <style id="style3381" type="text/css"><![CDATA[
	.st0{fill:#FFFF00;}
	.st1{display:inline;}
	.st2{fill:#00A591;}
	.st3{display:none;}
]]></style>
 <style id="style3477" type="text/css"><![CDATA[
	.st0{clip-path:url(#SVGID_4_);fill:#00345F;}
	.st1{clip-path:url(#SVGID_6_);fill:#00345F;}
	.st2{clip-path:url(#SVGID_8_);fill:#00345F;}
	.st3{clip-path:url(#SVGID_10_);fill:#00345F;}
	.st4{fill:#00345F;}
	.st5{clip-path:url(#SVGID_2_);fill:#00345F;}
]]></style>
</svg>
