<svg width="1504.1pt" height="646.42pt" version="1.1" viewBox="0 0 1504.1 646.42" xmlns="http://www.w3.org/2000/svg">
 <g transform="translate(-127.4 -75.913)" fill="#e3302c">
  <path d="m715.97 77.09c3.15-2.67 8.36-0.44 9.8 3.13 2.59 6.86-2.31 14.32 1.01 21.01 1.06 2.54 3.67 4.36 6.5 3.78-0.3-7.71-2.38-16.41 2.61-23.16 2.2-3.38 8.06-6.24 10.86-2.05-2.37 6.15-3.54 12.72-3.96 19.28-0.13 2.74-0.19 5.63 0.99 8.18 1.66 1.45 4 0.41 5.93 0.27 0.57-3.16-0.06-6.35 0.09-9.53 0.03-2.5 2.62-5.24 5.21-3.97 3.77 1.33 4.97 5.5 6.77 8.66 1.28-1.24 2.09-3.5 4.16-3.56 2.65-0.31 3.96 2.61 4.52 4.73 2.11 7.77 4.06 15.9 2.93 23.99-0.34 2.91-2.64 5.25-2.8 8.13 1.76 3.18 7.16 2.2 8.28-1.04 2.35-6.36 1.8-13.34 3.9-19.77-1.45-3.19-3.59-6.03-4.83-9.3-1.12-2.55 2.08-6.33 4.65-4.4 3.19 2.75 2.92 7.85 6.56 10.23 2.86-2.39 4.3-6.05 7.25-8.32 1.63-1.67 4.58 0.45 3.4 2.54-2.22 5.36-7.66 8.49-10.4 13.52-0.65 2.2 2.15 3.48 2.32 5.57 0.5 5.49 0.54 11.09-0.39 16.54-0.8 5.38-5.02 9.78-4.54 15.42 0.19 3.68 1.17 8.42 5.27 9.58 5.54-9.2 3.25-20.46 5.13-30.57 1.05-4.41 2.91-9.74 7.75-11.15 1.64 0.22 2.41 1.84 2.77 3.27 0.91 3.42 1.13 7.18 3.45 10.05 4.55-1.7 5.43-7.23 9.18-9.88 2.58-1.71 5.9 0.73 5.67 3.65-0.65 5.64-4.43 10.14-7.1 14.93 1.41 3.25 4.27 5.32 7.4 6.77 2.32-2.35 2.74-6.22 5.79-7.86 5.24-0.84 11.48 0.25 15.17 4.35 1.21 2.84-1.01 6.19 0.52 9.06 1.33 3.53 6.56 3.05 7.62 6.78 0.77 3.09-0.72 5.99-2.72 8.23 2.08 0.8 5.5 0.98 5.7 3.85 0.46 4.69-0.96 9.32-0.63 14.01 0.01 1.26 0.66 3.44 2.38 2.83 4.04-0.79 5.73-5.35 6.6-8.9 0.91-3 0.3-7.14 3.32-9.04 5.09-1.73 10.51 3.41 15.39 0.55 2.01-2.81 2.64-6.89 1.15-10.07-0.91-1.99-3.06-2.78-4.84-3.76 2.48-1.01 5.31-1.83 6.98-4.11 1.88-3.3 0.61-7.65 3-10.73 3.35-3.59 8.67-3.06 13.06-4.12 1.42-0.54 1.39-2.37 1.39-3.62-0.33-5.57-2.84-10.82-2.43-16.46 4.55 0.07 8.73 4.69 13.26 2.43 2.6-4.02-2.16-8.48-0.66-12.74 1.16-2.54 4.61-0.83 6.51-2.27 3.91-3.23 5.83-8.24 9.76-11.47 2.11-1.7 4.99-1.43 7.42-2.39 1.35-1.69 1.48-4.72 3.95-5.21 5.38-0.75 11.03 1.48 16.24-0.81 2.39-0.76 3.98-3.77 6.75-3.08 5.32 1.12 8.74 6.61 14.2 7.2 3.12-1.07-0.87-6.41 2.71-6.54 6.54 0.55 12.49 4.54 19.18 3.96 3.7-0.28 5.8-5.61 9.85-3.75 5.02 2.77 5.48 9.83 10.45 12.53 7.4 1.16 14.94-1.43 22.31-0.03 5.34 2.33 8.36 7.84 13.28 10.84 2.9-1.05 4.33-5.22 8.05-4.59 6.96 1.41 10.91 8.12 16.45 11.97 2.51 2.28 6.11-0.82 8.88 0.97 6.31 3.84 10.49 10.34 16.61 14.46 4.01 1.07 8.56-0.4 12.4 1.63 5.36 5.05 7.98 12.6 14.06 16.95 6.64 2.75 14.17 2.25 20.81 5.07 1.29 3.86 1.03 8 2.07 11.9 1.93 3.92 5.06 7.39 5.06 12.03 5.06 1.85 10.67 2.15 15.36 5-0.4 4.26-2.24 8.17-3.16 12.31 2.64 2.44 6.07 4.5 7.57 7.88-0.45 2.09-0.99 4.16-1.2 6.3 2.33 0.21 4.66 0.37 7.02 0.56 3.94 4.03 9.67 6.31 12.55 11.34-1.03 4.69-5.83 8-5.49 13.12 5.1 1.54 10.16-1.64 15.28-0.48-0.46 2.18-0.68 4.61-2.35 6.26-0.99 1.36-2.73 2.28-3.06 4.01 0.16 2.52 2.94 3.54 5.12 3.39 2.42-0.51 3.39-3.75 6.03-3.7 1.83 2.15 1.4 5.79 3.97 7.36 4.14-0.07 6.6-4.92 10.95-4.62 5.65-0.33 7.9 5.75 11.17 9.22 3.69 0.17 7.73-1.89 11.18 0.06 0.75 1.64 0.64 3.5 0.91 5.27 2.9 2.02 5.47 5.06 4.76 8.87-8.88 0.38-17.67 2.68-25.69 6.46-8.48 5.79-13.85 14.89-21.1 22-6.96 7.87-13.05 16.53-18.25 25.66-6.19 10.7-7.27 23.57-5.68 35.62 1.45 12.79 5.7 25.03 10.8 36.78-4.67 0.84-9.25 2.33-13.99 2.6-3.45-1.8-5.68-5.4-9.32-6.81-2.68 0.12-5.37 0.88-8.02 0.2-0.17-2.24 0.64-4.98-1.13-6.77-2.56-2.53-5.21-4.97-8.02-7.21-2.19-1.95-5.23-0.33-7.81-1.1 0.37-4.4 3.77-9.67 0.65-13.63-7.78-4.27-17.41-4.79-24.49-10.48-5.17-3.92-8.68-9.44-12.9-14.25-2.62-3.02-7.14-1.74-10.38-3.57-4.52-2.58-9.07-6-10.99-11.03-1.66-4.11-0.34-8.63-1.22-12.85-0.81-2.21-3.59-4.36-5.88-2.84-2.08 1.59-3.59 3.8-5.62 5.45-0.58-0.28-1.76-0.85-2.34-1.14 0.57-4.42 3.45-9.06 0.72-13.34-2.49-3.66-5.42-7.45-9.41-9.52-2.63 0.93-4.99 2.9-7.9 2.72-4.45-0.23-7.52-4.33-11.93-4.72-5.84-0.67-11.16 3.4-16.98 2.21-1.1-5.76 0.91-12.12-1.78-17.5-3.86-2.51-5.55 4.38-9.3 4.26-5.18-0.04-8.71-5.4-14.01-5.31-3.81-0.54-5.67 3.26-7.71 5.7-3.37 4.18-9.26 4.5-14.19 3.92-6.38-0.8-13.1-0.98-19.1 1.64-8.24 3.25-13.89 11.09-22.69 13.18-5.43 1.19-11.46 1.55-16.58-0.93-4.54-2.29-6.73-7.2-10.57-10.29-2.35-1.65-6.12-2.32-8.36-0.16-2.59 3.66 0.18 8.87-2.69 12.37-2.71 1.6-6.26 0.81-9.03-0.32-2.99-1.26-3.59-5.04-6.19-6.71-3.28-1.39-6.45 1.12-7.89 3.91-2.59 3.86-4.57 9.77-10.06 9.95-9.74 0.1-15.1-12.51-10.65-20.35 3.44-5.58-5.66-11.51-9.64-6.9-3.17 4.61-0.62 10.82-3.05 15.7-0.87 1.75-2.92 2.21-4.5 3.04 3.42 4.42 7.99 8.14 13.6 9.26-4.45 3.19-8.88 7.58-14.71 7.57-4.6-0.47-8.04-4.29-10-8.21-4.04-8.11-3.77-17.39-5.16-26.15-0.51-2.39-0.91-5.24-3.11-6.7-1.68-1.19-3.55 0.08-5.21 0.54 0.73 8.06 0.93 16.14 1.53 24.22 0.22 3.61-0.46 8.19-4.26 9.75-5.56 1.96-11.61 0.94-17.31 2.05-2.91 0.54-5.01 2.74-7.39 4.29-1.86 1.14-4.15 0.54-6.1 0.01-15.74-4.92-30.98-11.5-47.05-15.34-8.44-1.35-15.93-5.75-24.06-8.12-2.58-0.91-5.16 0.63-7.75 0.28-3.4-1.3-4.87-5.46-8.52-6.26-5.46-1.19-10.99 0.24-16.46 0.24-1.44-1.21-0.95-3.64-2.13-5.11-2.33-0.6-4.72 0.52-7.07 0.62-6.4 1.02-12.14-2.57-17.98-4.54-6.94-2.36-14.52-5.39-21.85-2.89 3.91 5.02 9.08 8.89 12.87 14 2.87 3.46-0.5 7.66-2.03 10.96-1.54 3.36-5.27 5.48-8.82 3.69-21.05-6.99-39.19-22.01-50.84-40.8-1.41-1.86-2.57-4.38-5.13-4.77 0.27 3.73 0.96 7.55 3.12 10.69 5.29 8.22 11.15 16.04 17.07 23.81 5 6.34 9.81 12.87 15.5 18.62 1.78 1.98 4.83 3.24 5.04 6.22-5.44 2.17-10.93 4.89-16.91 4.87-4.87-1.23-8.59-4.93-12.55-7.8-3.69-2.62-6.81-6.53-11.46-7.38-2.45-0.59-4.99-0.85-7.34-1.78-1.93-2.57 0.65-7.32-3.02-8.73-6.1-3.46-11.86-7.49-17.28-11.94-1.95-2.25-6.36 1.24-4.8 3.68 3.16 6.22 5.81 12.74 9.6 18.62 2.07 3.35 5.99 4.7 8.68 7.41 1.17 2.22-1.02 5.21 0.49 7.3 2.64 2.08 6.16 3.18 8.07 6.13 0.8 1.14 0.49 3.11-1.03 3.47-4.4 1.83-9.33 2.7-14.08 2.39-8.59-6.26-14.89-15.59-24.62-20.3-0.14 1.21-0.62 2.59 0.39 3.6 5.15 7.12 12.75 12.03 18.04 19.04 1.24 1.5 0.91 4.21-1.09 4.88-5.86 2.51-12.85 3.43-18.65 0.27-2.16 1.74-3.96 4.84-7.06 4.68-3.27-3.88-4.79-9.43-9.48-11.96-3.2-1.73-7.09 2.36-5.04 5.46 1.4 4.59 6.74 6.16 8.34 10.58-2.08 2.17-5.35 3.95-5.51 7.27-0.22 4.36-0.34 8.77-1.48 13.01-4.24-0.99-8.27-2.94-12.73-2.67-5.18-2.43-7.64-8.39-12.51-11.33-2.22-0.55-3.15 2.13-2.87 3.88 0.42 2.74 1.47 5.57 3.4 7.62 4.75 3.59 10.55 5.98 14.27 10.8 2.19 2.81 0.38 7.16-2.7 8.43-2.75 1.11-5.77 1.36-8.45 2.63-1.89 1.14-2.52 3.42-3.81 5.1-1.79 1.24-3.44-0.51-4.84-1.47-5.67-4.65-10.95-9.77-16.77-14.25-2.16-1.6-4.38-3.32-7.08-3.82-0.8 1.24-0.73 2.41 0.22 3.5 3.75 5.09 10.04 7.5 13.96 12.42 2.1 4.34 0.17 11.08-5.19 11.72-10.46 1.03-21.32-0.91-31.53 2.23 0.47-3.2 2.25-5.92 3.58-8.81 1.99-5.04 7.27-7.67 9.71-12.44 3.32-6.48 6.09-13.94 4.58-21.29-2.33-4.35-5.7-8.13-9.26-11.52-5.48-5.12-14.48-4.43-20.12 0-3.12 2.46-3.99 6.48-4.83 10.14-0.49 3.27-3.21 5.39-5.36 7.62-5.79 5.91-12.75 10.72-17.55 17.56-2 2.77-2.76 6.16-3.57 9.41-1.49-1.63-3.74-3.07-3.7-5.54 0.49-3.25 2.88-5.71 4.62-8.36-3-4.25-7.95-6.24-12.22-8.93-8.43-5.1-17.13-9.99-24.42-16.7-2.63-2.55-5.77-5.89-4.41-9.89 1.38-4.7 2.27-10.11 6.02-13.57 5.15-2.73 10.95 1.49 16.36 0.29 2.52-0.94 2.74-4.04 4.11-6 7.23 0.02 14.42 3.41 21.73 1.65 2.19-0.52 3.76-2.99 2.84-5.16-2.4-4.6-7.87-6.75-9.95-11.58-0.47-1.79-0.31-5.15 2.36-4.57 3.21 0.84 5.99 2.77 9.01 4.1 3.23-2.8 3.3-7.46 5.76-10.78 1.05-0.68 3.3-1.3 3.68 0.48 0.22 2.93-0.78 5.91 0.15 8.8 1.91-0.71 4.25-0.99 5.47-2.83 1.33-1.6 0.73-3.74 0.58-5.6-3.86-3.28-9.93-5.69-10.43-11.4 0.76-3.85 2.94-7.35 5.56-10.23 1.44-1.45 3.52-3.33 5.72-2.27 4.18 1.94 7.57 6.16 12.53 6.01 3.33-3.18 1.7-8.36 1.44-12.39-0.16-3.32-2-7.4 0.69-10.13 4.34-4.95 8.91-9.83 14.29-13.67 2.83-1.9 6.09 2.03 8.95 0.06 2.41-1.63 5.71-4 4.87-7.34-1.21-4.59 2.64-8.54 6.32-10.61 9.52-5.02 13.29-15.95 21.05-22.89 2.67-2.61 7.04 0.21 9.68-2.22 2.24-3.38 2.16-7.66 3.68-11.33 1.54-2.85 3.98-5.2 7-6.44 3.57 2.54 6.28 6.18 10.1 8.39 2.88 0.64 5.09-2.16 6.72-4.15 2.05-2-0.46-5.33 1.76-7.2 4.89-4.82 9.79-9.67 15.15-13.96 1.59-1.23 3.26-2.6 5.35-2.78 7.33-0.69 14.99-0.05 21.98-2.77 2.69-0.82 4.82-3.99 3.58-6.72-1.3-1.58-3.45-2.11-5.16-3.15 0.31-3.54 2.98-6.09 5.41-8.4 3.73-3.32 8.08-6.42 13.16-7.05 3.47-0.45 6.75 2.1 7.84 5.29 1.21 3.49 0.54 7.26 1.14 10.85 0.35 2.01 3.32 2.15 4.51 0.8 6.06-5.38 7.36-14.36 13.6-19.6 2.02-1.8 4.68-1.14 7.05-0.64 2.22 0.64 4.88-1.1 5.02-3.45 0.47-4.16-1.5-8.23-0.52-12.38 2.09 0.12 6.24 2.05 6.17-1.56 0.79-2.81-1.38-8.76 3.02-8.83 2.12 1.45 3.93 3.31 6.11 4.69 2.23-1.44 3.79-3.59 5.47-5.6 2.4-1.32 3.35 2.43 4.72 3.66 3.17-6.26 0.1-14.01 3.47-20.29 0.83-2.04 4.18-2.54 5.35-0.56 2.75 5.27 0.85 11.82 3.82 17.01 2.44 3.56 9.11-0.06 7.47-4.08-0.85-2.81-2.12-5.51-2.51-8.45 5.33-0.78 10.64 1.73 15.9 0.14 1.13-5.12-3.5-9-4.19-13.82-0.17-2.59 3.3-2.26 4.52-0.86 3.93 3.36 7.35 7.59 12.37 9.4 2.9 1.14 7.12 2.01 9.29-0.89 2.1-4.7 1.63-10.58 5.31-14.53m-26.74 35.64c1.41 1.74 4.13 1.45 5-0.66-1.43-1.08-5.79-2.61-5 0.66m303.7 4.22c1.82 3.03 6.85 0.96 7.58-2.07 0.89-2.14-0.67-4.12-1.49-5.97-3.16 1.51-5.65 4.53-6.09 8.04m4.98 17.23c3.4-1.58 1.86-5.67 0.99-8.39-3.78 0.75-2.87 6.08-0.99 8.39m-282.86 11.19c0.16-2 0.01-4.01-0.29-5.98-0.43 1.95-2.65 5 0.29 5.98m95.88-0.65c-0.25 1.32-1.2 4.4 1.11 4.25 1.83-1.27 0.4-3.46-1.11-4.25m-218.95 17.28c4.99-2.03 1.01-8.51-3.19-8.42-0.98 2.88-0.74 8.23 3.19 8.42m103.65-6.38c-1.29 2.47-0.57 5.34 0.28 7.82 4.68 0.44 5.84-5.27 4.31-8.66-1.17-1.53-3.78-0.72-4.59 0.84m141.94 7.29c0.91 1.96 2.12 3.77 3.71 5.26 1.9-1.53 4.18-4.3 2.35-6.73-2.06-1.77-4.49-0.03-6.06 1.47m-19.03 9.46c1.48-0.08 2.96-0.17 4.45-0.24 0.45 5.98 1.8 12.09 0.32 18.03-0.63 0.24-1.89 0.71-2.52 0.95 0.33 1.45 1.14 2.69 2.11 3.81 5.91-2.52 5.02-9.78 4.64-14.99-0.67-5.21-0.34-10.58-2.02-15.62-4.27-0.51-6.99 4.33-6.98 8.06m-81.37-5.98c-2.13 0.66 0.27 3.93 1.75 2.53 0.81-1.11-0.5-2.75-1.75-2.53m70.65 0.56c-0.93 1.57 0.99 2.91 1.64 4.18 0.94-0.97 2.58-1.99 1.82-3.59-0.16-1.42-2.99-2.24-3.46-0.59m-47.09 3.03c1.38 3.87 4.27 6.91 5.86 10.69 0.5 1.63 3.22 0.98 3.39-0.65 1.17-2.67 1.08-6-0.28-8.58-1.95-3.01-6.05-1.25-8.97-1.46m-201.48 3.57c-1.71 0.76-0.55 5.92 2.02 4.79 1.22-1.6-0.01-4.78-2.02-4.79m226.64 15.13c4.03-1.97 8.17-7.2 5.28-11.65-4.04 1.81-7.97 7.44-5.28 11.65m92.85-5.93c-1.82 2.4-1.19 5.46-0.04 7.99 2.1-0.67 3.43-2.5 3.05-4.73 0.03-1.5-1.17-4.34-3.01-3.26m16.9 3.47c1.73 2.24 4.81 2.06 7.32 1.6 0.42-2.95-1.92-6.09-4.97-6.14-1.59 0.87-2.92 2.66-2.35 4.54m-171.85 18.15c0.88-2.53 0.36-5.14-0.89-7.44-2.47 1.92-1.36 5.81 0.89 7.44m155.68-3.55c2.95 3.1 3.67 8.65 8.83 8.9 2.9-3.78 0.45-9.74-3.45-11.79-2.35-1.52-4.54 0.85-5.38 2.89m-370.68-0.91c0.77 0.82 1.56 1.65 2.35 2.47 0.09 1.19 0.19 2.39 0.29 3.59 1.71 0.08 3.19-0.64 4.47-1.75-0.91-1.49-1.67-3.06-2.79-4.39-1.3-1.05-2.94-0.28-4.32 0.08m352.49 2.91c0.56 2.81 2.09 7.09 5.74 6.41 4.71-3.02-1.86-10.74-5.74-6.41m46.3 0.4c-2.16 2.92-3.04 6.87-1.9 10.37 0.54 1.34 2.08 2.89 3.58 1.86 1.87-3.14 1.31-7.04 0.29-10.36-0.41-0.91-0.63-2.46-1.97-1.87m-156.66 2.49c0.3 2.23 0.69 4.45 1.23 6.63 2.31-0.76 3.89-3.97 2.32-6.04-0.95-0.96-2.37-0.55-3.55-0.59m41.49 12.71c-3.3 1.43-1.32 8.49 2.37 6.43 3.34-1.75 1.67-7.99-2.37-6.43m92.7 7.43c-0.61 4.45-1.63 9.87 1.46 13.65 2.12 2.03 4.65-0.53 5.12-2.74 1.59-6.19 1.03-13.12-2.1-18.76-3.23 1.1-3.81 4.95-4.48 7.85m-283.19 8.24c2.29 4.81 4.36 9.95 8.12 13.84 3.11-4-0.39-9.02-2.26-12.81-2.38-3.43-3.35-7.6-5.79-10.99-3.22 2.52-0.99 6.83-0.07 9.96m211.72 6.39c-1.39 2.42-0.11 4.99 1.5 6.9 3.76-1.44 3.87-6.17 6.61-8.69 1.71-1.14 3.73-1.7 5.64-2.45-0.95-1.8-1.69-3.9-3.51-5.02-5.06 0.23-8.25 5.15-10.24 9.26m-19.4-5.4c-1.72 4.93 0.11 11.64 4.74 14.44 3.28-2.64 1.34-7.18-0.18-10.27-1.13-1.66-2.13-4.45-4.56-4.17m-243.17 8.24c1.54-0.72 3.75-1.27 3.91-3.35 0.64-2.7-2.26-4.22-4.27-5.17-1.21 2.8-1.18 5.86 0.36 8.52m115.06 7.66c-0.04 2.04-0.67 4.92 1.99 5.58 2.51-4.73 2.23-10.49 0.64-15.46-0.33-1.56-1.85-2.28-3.15-2.83-1.01 4.26 1.02 8.43 0.52 12.71m65.37-8.43c-1.41 1.87-2.59 3.92-3.31 6.16 1.6-0.14 3.29-0.09 4.8-0.78 1.56-1.82-0.07-4.08-1.49-5.38m19.49 2.32c2.04 1.63 4.96 1.89 7.21 0.5-1.95-1-6.13-3.6-7.21-0.5m-42.7 1.98c-2.2 2.36-3.63 5.88-2.33 9.04 0.47 1.37 1.45 1.87 2.94 1.5 2.18-3.05 1.91-7.74-0.61-10.54m-76.74 9.27c-0.69 1.21 0.23 3.2 1.73 3.15 2.06-0.7-0.11-4.49-1.73-3.15m223.53 2.07c-2.16 1.01-3.36 4.21-6.11 3.51-3.59-0.45-7.06-1.74-10.72-1.6-1.18 3.79-0.1 9 4.07 10.39 2.91 1.15 5.84-0.38 8.34-1.78 4.1-2.39 9.21-2.06 13.22-4.68 2.1-1.1 2.41-4.11 1.21-5.98-2.78-2.68-6.99-1.36-10.01 0.14m352.12-1.04c-3.59 5-6.66 10.75-7.45 16.91 0.34 0.36 1.02 1.08 1.36 1.43 4.23-0.75 7.2-4.57 9.14-8.16 2.01-3.46-0.76-7.02-2.01-10.2-0.26 0.01-0.78 0.02-1.04 0.02m-737.74 4.63c-12.72 2.99-22.78 12.38-29.59 23.17-7.42 11.92-3.96 29.48 7.8 37.32 8.12 5.13 18.4 3.4 26.94 0.29 12.39-4.59 23.69-13.45 29.28-25.64 2.44-5.39 3.92-12.09 0.65-17.46-4.72-7.74-13.04-12.34-21.19-15.7-4.41-1.47-9.24-3.36-13.89-1.98m82.51 5.13c1.07 2.06 4.05 1.64 6.01 1.45 2.33-1.52 2.55-4.71 2.34-7.23-3.9-1.27-8.21 1.7-8.35 5.78m-108.57 1.37c2.23 1.9 5.65 1.72 7.55-0.56 1.48-2.65-0.87-5-2.85-6.45-2.77 1.36-4.25 4.05-4.7 7.01m786.79 3.48c4.21 0.07 9.42-0.67 11.58-4.82-3.7-4.77-11.08-0.22-11.58 4.82m-470.26 7.32c-1.07 3.52 2.45 6.02 5.4 6.84 1.84-3.77 1.1-8.02-0.04-11.86-1.83 1.62-3.91 3.02-5.36 5.02m-33.75 1.74c-0.99 1.56-1.24 3.33-0.2 4.96 1.9-1.23 2.53-3.83 0.2-4.96m442.28 14.59c-2.48 0.82-5.8 2.26-6.11 5.2 2.48 4.34 8.86 1.27 9.85-2.69 0.28-1.99-2.09-3.11-3.74-2.51m-362.32 10.4c2.47-0.27 1.8-2.98 1.26-4.58-0.76 1.42-1.09 2.99-1.26 4.58m348.42 3.77c-0.56 1.48 1.1 4.49 2.57 2.51 0.98-1.67-0.21-3.38-1.1-4.76-0.37 0.56-1.1 1.68-1.47 2.25m-734.5 16.74c2.58 2.99 5.29 6.19 9.12 7.59 1.94 0.7 3.79-0.77 3.83-2.77-0.65-3.39-3.36-6-6.64-6.89 0.3-1.44 0.6-2.88 0.91-4.32-3.49 0.55-5.97 3.24-7.22 6.39m-22.5 17.95c3.18-1.1 6.89-2.76 7.74-6.39-4.39-1.82-7.18 2.69-7.74 6.39m12.38 0.73c-1.16 3.12-1.88 7.59 1.26 9.81 3.39 2.22 7.54 0.7 11.11-0.14 0.05-5.21-3.74-9.55-7.67-12.53-2.23-2.02-4.01 1.02-4.7 2.86m-30.69-0.04c-0.52 1.91-1.1 3.8-1.81 5.66-3.39 0.71-6.94 1.37-10.38 0.56-3.12-0.65-5.41-3.03-8.04-4.64-1.3 1.86-1.7 4.07-1.17 6.29 4.14 3.3 9.3 4.91 14.58 4.82 1.78 1.86 3.67 3.63 5.83 5.06 1.39-1.82 2.22-3.99 3.63-5.78 4.69-2.55 10.03 0.99 14.97-0.15 3.54-1.66 2.22-7.39-1.16-8.35-3.2-0.57-6.52 0.81-9.66-0.14-1.87-1.86-3.96-3.6-6.79-3.33m92.63 2.95c-0.04 1.3-0.04 2.6 0 3.91 1.48-0.18 2.98-0.38 4.47-0.59-0.05-0.83-0.08-1.66-0.11-2.48-1.46-0.3-2.91-0.6-4.36-0.84z"/>
  <path d="m1258.5 257.42c2.03-1.79 4.95 0.85 4.26 3.22-2.16 1.91-6.22-0.43-4.26-3.22z"/>
  <path d="m1263.4 275.62c-0.54-2.48 2.89-3.53 4.83-3.95 2.44-0.58 2.78 2.33 3.16 4.06-2.67 0.02-5.34 0.16-7.99-0.11z"/>
  <path d="m1243 322.1c8.04-5.03 17.78-5.89 27.01-6.58 4.82 0.13 10.29-0.81 14.54 2 3.88 4.22 6.35 9.52 9.82 14.07 2.57 3.42 5.2 7.32 9.45 8.75 4.71 1.87 9.59 4.08 12.94 8.04 3.21 4.01-2.23 9.61 1.04 13.64 5.3 3.52 10.45 7.41 14.37 12.49-10.45 1.65-20.86 3.58-31.25 5.53-21.98 3.58-41.97 14.51-63.95 18.06-2.22 0.16-4.7 0.74-6.73-0.38-2.07-3.9-2.71-8.35-3.69-12.6-2.52-13.45-3.18-27.58 0.56-40.87 2.49-8.91 7.87-17.29 15.89-22.15z"/>
  <path d="m322.49 401.38c10.67-11.08 16.94-25.63 27.5-36.82 5.33 2.65 8.32 8.04 12.48 12.04 2.99 3.44 7.78 0.44 11.59 0.99 2.38 0.04 2.11 3.92 0.18 4.49-2.2 0.7-4.47 1.1-6.66 1.81 0.77 3.3 4.08 5.2 5.02 8.34-0.66 4.11-2.9 9.93 1.45 12.76 5.23 1.42 11.43-1.06 15.89 2.98-5.34 9.19-9.88 19.03-17.04 27-2.18 2.34-5.17 5.31-8.67 3.96-3.06-2.07-1.18-6.44-1-9.42-7.8-6.49-17.57-9.92-26.42-14.71 0.84-3.12 2.34-6.08 4.69-8.32 0.93-1.21 2.96-2.18 2.13-3.99-1.07-2.28-3.11-4.28-5.6-4.85-4.56 1.47-6.34 6.65-10.23 9.14-3.43 1.43-4.08-3.31-5.31-5.4m18.59-14.81c0.6 2.39 1.89 4.49 3.9 5.95 0.63-0.37 1.9-1.12 2.53-1.49 0.93-3.74-3.23-7.05-6.43-4.46m9.71 10.36c1.11 4.67 6.96 4.62 10.77 5.31-0.38-4.39-3-8.82-7.01-10.78-3.21-1.39-4.93 3.02-3.76 5.47z"/>
  <path d="m1345.1 410.57c10.37-2.04 20.58-5.2 31.17-5.98 1.83 1.59 3.15 3.63 4.43 5.68 1.71 3.2 5.97 1.86 8.91 3 0.16 6.91 0.48 13.95 2.58 20.6 0.5 1.89 1.79 3.4 3.01 4.91-4.16 5.23-9.19 10-11.79 16.27-1.8 5.86-0.92 12.19 0.48 18.05-19.58-7.03-38.89-14.82-58.53-21.68-5.6-2.21-11.73-1.3-17.5-2.35-4.72-2.7-7.22-8.74-13-9.8-8.96-0.96-18.22 3.01-26.99-0.23-3.8-1.09-7.56-3.4-11.63-2.4-0.01 4.23 3.52 7.13 6.71 9.34 3.24 2.29 7.39 1.48 11.09 2.19 3.07 0.33 5.8 1.87 8.46 3.34 11.1 6.09 22.33 12.01 32.82 19.14 3.65 2.52 7.48 5.12 9.78 9.04-0.5 2.11-1.53 4.46-0.41 6.55 2.1 4.81 8.9 5.6 10.17 10.94-3.73 2.84-8.72 3.51-12.18 6.69-1.54 2.47 1.53 4.85 2.63 6.92-1.09 3.81-0.54 9.77-5.11 11.28-1.91-3.22-2.2-7.07-3.87-10.36-1.41-2.88-5.68-3.34-7.82-1.08-1.71 2.6-1.12 6.21-3.35 8.56-1.95 2.45-3.84 5.82-2.51 8.99 1.51 1.8 3.48 3.14 5.23 4.72-4.35 3.77-8.15 8.99-7.61 15.04 0.68 4.78 7.24 5.09 8.23 9.81-3.77 4.51-7.31 9.62-12.68 12.34-4.96 1.45-10.08-1.18-13.77-4.37-1.65-4.37 2.62-9.02 0.54-13.32-2.38-2.13-7.14-1.43-8.47 1.68-2.43 5.2-1.45 11.34 0.3 16.59 0.68 2.6 3.52 1.84 5.54 1.86 2.99 2.75 6.32 5.35 8.35 8.96 1.6 4.44-0.93 8.9-3.54 12.37-5.89 7.72-13.27 14.22-21.18 19.79-2.51 1.65-5.28-0.47-7.62-1.38-4.6 4.07-6.15 11.19-12.25 13.59-3.71 1.78-7.83-0.6-11.5 0.18-2.64 4.02-3.37 9.04-6.31 12.91-2.29 2.98-6.57 0.94-9.51 2.55-2.21 2.47-2.61 6.9-6.31 7.72-4.18 0.17-7.34-3.18-11.2-4.24-2.23-1.05-3.95 1.23-5.12 2.79-3.09 4.35 0.08 10.06-2.45 14.56-1.37 1.31-3.45 1.14-4.97 0.26-2.92-1.36-3.53-5.21-6.41-6.54-3.81 1.03-5.72 4.91-9.03 6.74-2.47 0.65-3.97-2.16-6.07-2.93-1.81-0.1-3.62 0.87-4.36 2.54-1.45 3.24-0.79 6.95-1.84 10.31-8.56 2.23-17.69-2.11-26.18 0.78-5.18 3.12-6.23 10.08-11.24 13.45-3.49-3.22-7.33-6.4-9.09-10.96 2.08-2.19 5.05-4.44 4.67-7.84-0.95-2.19-3.47-5.54-6.05-3.45-5.83 5.73-6.6 14.92-12.6 20.55-1.96 1.86-6.82 2.18-7.19-1.26-0.52-5.38-2.7-10.71-7.11-14.05-2.62 2.01-1.46 5.35-1 8.07 0.92 3.72 0.77 7.73-0.65 11.31-0.47 1.2-1.73 3.03-3.2 1.9-3.65-4.84-2.23-11.72-5.58-16.73-5.46-1.46-9.52 3.82-10.59 8.57-3.29-2.08-7.27-2.61-10.99-1.48-11.86 2.96-23.56 6.94-34.23 12.98-2.42 1.23-4.75 2.92-7.49 3.25-3.52-1.62-3.55-6.41-6.65-8.49-2.58-0.54-4.09 2.07-5.69 3.59-4.34 4.87-10.7 7.22-16.85 8.85-1.77 0.58-3.54 0.01-5.24-0.41-3.5 2.49-6.11 6.92-10.79 7.18-7.08 0.02-12.81-5.89-19.94-5.51-5.57 2.6-7.2 9.97-13.13 12.15-3.09 1.18-6.21-0.53-8.84-2.02 2.61-4.65 9.64-2.35 12.34-7.08-2.09-2.29-4.88-5.09-8.29-3.78-6.11 1.53-8.65 7.97-13.64 11.13-3.41 2.05-8.49 0.67-9.6-3.38-1.87-5.41 0.18-11.44-2.14-16.78-1.54-4.1-4.26-8.36-8.67-9.69-2.28-0.68-5.25 0.72-4.79 3.41 0.76 8.08 7.39 14.66 6.71 23.04-0.45 1.53-2.44 1.5-3.38 0.49-2.54-1.85-4.12-4.74-6.81-6.39-2.62-0.52-3.83 3.35-6.44 2.57-1.59-0.81-2.58-2.4-3.78-3.65-2.45 1.27-3.93 3.74-6.16 5.27-4.08 0.9-8.24 1.62-12.4 1.84-2.38 0.19-5.11-1.39-4.98-4.03 0.55-2.49 2.92-4.91 1.51-7.52-1.04-2.25-2.85-4.6-5.49-4.84-2.45-0.41-3.4 3.48-5.92 2.57-3-3.22-4.55-8.04-8.97-9.69-3.53 3.04-5.14 8.12-3.54 12.58 1.77 5.06 5.14 10.19 3.58 15.77-1.46 2.2-5.68 4.13-7.63 1.62-1.16-3.62 1.92-7.57-0.01-11.06-1.23-0.86-2.96-1.28-4.22-0.27-3.41 2.19-5.75 6.76-10.19 6.87-4.49-2.37-6.34-7.71-8.13-12.16-1.65-3.81-0.54-7.92-0.54-11.88-1.3-2.63-5-1.8-5.42 0.94-0.57 4.27 0.57 8.68-0.69 12.9-0.74 2.26-1.14 5.37-3.4 6.58-4.3 0.48-3.88-5.59-7.47-6.59-0.46 3.26-1.16 6.47-2.19 9.6 1.08 0.39 2.17 0.78 3.27 1.18 0.08 2.01-0.34 3.96-1.23 5.77-0.53 0.07-1.61 0.23-2.14 0.3-2.36-2.78-3.86-6.15-6.16-8.95-3.36-1.65-7.69-0.57-10.7-3.12-1.85-1.61-1.77-4.26-2.19-6.47-5.4 1.45-6.23 7.71-7.82 12.21-0.38 1.43-2.12 1.32-3.19 1.83-0.84-2.56-1.34-5.27-2.68-7.63-2.93-1.1-6.32-0.31-9.09-1.92-1.86-0.84-2.92-2.65-3.98-4.27-0.07 5.44-6.12 6.78-10.46 6.33-2.92 0.23-4.62-2.53-6.1-4.58-3.33-5.3-5.92-11.08-7.87-17.01-1.98-8.93-1.28-18.14-1.48-27.21-0.43-10.28-0.38-20.64 1.1-30.83 0.73-5.44 2.79-10.58 3.61-16 0.74-4.58 0.65-9.24 1.35-13.82 0.46-3.6 3.18-6.53 3.15-10.24 0.26-6.35-0.09-12.82-1.69-18.99-0.61-2.13-3.04-2.54-4.86-3.04-1.95 5.35-1.15 11.3-3.37 16.58-1.17 2.98-4.46 4.92-4.52 8.34-1.43 12.28-1.02 24.67-1.47 37.01-0.16 6.41 0.4 12.89-0.52 19.27-0.72 4.09-4.82 5.91-7.67 8.35-1.55 1.19-2.45 3.42-1.48 5.27 2.32 5.08 9.19 6.57 10.69 12.21 1.79 8.83-0.38 17.8-0.48 26.67 1.5 1.22 4.36 0.92 4.85 3.15-0.49 2.69-2.73 6.27-5.94 5.21-2.66-1.37-4.3-4.06-6.83-5.58-2.69-0.57-5.67-0.27-7.95-2.06-4.32-2.73-6.29-8.62-11.53-9.87-2.29 0.76-2.46 3.62-3.76 5.36-1.46 2.79-4.88 2.97-7.59 3.52-1.78-3.47-2.11-8.15-5.63-10.39-4.92-1.56-10.26-0.35-15.16-1.98-6.34-2.11-12.59-4.5-18.67-7.24-5.95-2.76-9.83-8.27-13.72-13.3-1.97-2.62-4.52-4.86-5.84-7.91-1.81-4.99 1.41-10.21-0.09-15.23-0.81-2.77-2.44-5.48-4.96-6.98-2.85-0.88-6-0.09-8.8-1.21-2.14-1.59-2.45-5.56-5.67-5.52-5.1-0.38-11.76 2.55-15.56-2.18-3.1-3.42 3.07-8.41-0.68-11.33-5.49-2.31-3.71 7.58-8.72 7-3.09-1.93-2.94-6.02-2.73-9.2 0.24-1.67-1.58-2.58-2.39-3.76-3.07 1.65-4.57 6.69-8.77 5.32-1.49-0.52-4.72-0.97-3.8-3.17 1.04-1.31 2.38-2.31 3.65-3.38-0.11-5.37-0.54-10.94-3.42-15.62-2.9-4.64 4.6-7.74 3.54-12.52-0.27-3.07-3.95-4.87-6.57-3.33-2.83 2.3-3.2 6.24-3.82 9.59-0.52 3.93-1.8 7.72-3.4 11.34-0.64 1.6-2.76 2.44-4.34 1.9-2.03-1.86-1.34-5.05-0.47-7.3 2.65-5.81 2.06-12.61 0.33-18.6-5.56 3.47-3.93 13.11-10.95 14.73-3.93-1.17-4.14-7.14-8.68-7.32-1.02 2.19-2.77 3.8-5.12 4.44-3.62 0.95-4.63 5.56-8.24 6.39-2.33 0.48-2.95-2.22-3.89-3.72-0.79 0.01-2.38 0.04-3.17 0.05-0.54 1-1.06 2-1.59 3.01-3.23-0.75-7.67 0.44-10.01-2.34-1.11-4.5 3.7-7.45 6.98-9.41 1.23 1.28 2.33 2.66 3.32 4.15 1.14-0.29 2.29-0.57 3.45-0.84 0.38-11.43 0.52-22.95 2.61-34.23 0.35-2.71 2.05-4.93 2.88-7.47 1.13-6.48 2.27-13.17 5.62-18.94 0.66-1.33 1.96-2.1 3.11-2.96 0.4-4.36-0.85-9.68 2.59-13.09 0.25-1.5 0.14-3.1 0.79-4.5 2.61-0.96 3.72-4 6.49-4.64 2-0.72 4.15-0.14 6.21-0.39 7.54-3.81 16.29-3.6 24.51-3.26 2.48-2.5 6.02-2.56 9.31-2.33 3.91 0.37 7.14-2.27 10.85-2.99 4.81-1.33 9.9-0.31 14.72-1.48 3.07-1.38 5.81-3.78 9.39-3.6 5.57-0.69 13.25 1.58 16.4-4.61 7.54-1.29 14.7-3.86 21.98-6.14-0.71 5.85-2.05 11.69-4.32 17.14-0.94 2.87-4.63 3.89-4.92 7.05-0.93 4.86-0.63 9.86-1.63 14.71-0.48 2.91-3.46 4.57-4 7.45-1.32 6.14 0.06 12.76-2.74 18.58 0.13 0.91 0.37 2.71 0.49 3.62 1.41-1.24 3.31-2.34 3.23-4.48-0.18-2.93 3.29-3.85 3.82-6.5 2.53-8.34 3.08-17.35 7.19-25.16 0.92-2.05 2.9-3.11 4.92-3.8-0.07-6.23 0.88-13.1 5.36-17.79 2.34-2.41 5.79-3.49 9.1-3 7.39 0.81 14.63 2.62 22 3.6 3.52 0.51 7.21-0.05 10.63 1.18 5.83 2.09 11.02 5.65 16.86 7.74 5.28 1.8 10.16-2.9 15.47-1.69 1.3 0.41 2.02 1.68 2.67 2.79 3.09 5.96 4.46 12.9 8.86 18.15 1.9 2.43 5.84 3.19 8.27 1.09 2.17-2.68 1.76-6.93 4.8-9.01 2.36-1.63 4.46-4.31 7.53-4.46 4.38 0.68 8.57 3.14 10.78 7.08 4.11 1.11 9.26-1.23 12.53 2.26 2.93 3.17 6.7 5.39 9.65 8.54 2.35 2.51-0.92 7.67 2.91 9.18 6.08 0.24 9.16-6.51 14.86-7.54 5.06-0.87 10.44-1.27 15.46 0.01 5.42 3.43 9.66 8.41 13.98 13.1 2.87 3.7 6.54 7.26 7.61 11.97-0.8 3.42-4.1 5.54-5.86 8.48 1.68 4.41 6.73 5.26 10.05 7.98 1.1 3.75 0.3 7.8 0.53 11.67-0.19 7.65 0.56 15.69-2.25 22.97-2.1 0.5-4.92 2.08-3.96 4.68 2.22 3.92 6.44 6.38 8.33 10.52 0.38 6.97-3.14 13.72-2.2 20.75 1.54 4.83 7.19 8.41 5.9 13.97-0.96 8.37-1.27 16.82-1 25.24 0.55 3.69 1.51 7.64 4 10.53 1.05 1.32 2.86 0.6 3.9-0.33 2.86-2.42 4.84-5.73 7.96-7.88-1.09-4.89-4.59-8.72-6.3-13.36-1.53-3.49-1.11-7.37-1.16-11.07-0.09-6.72 0.5-13.43 1.18-20.11 0.55-4.6 0.92-9.32 2.76-13.63 3.8 0.84 5.99 6.43 10.21 4.71 1.81-0.4 3.83-2.45 2.59-4.34-4.79-5.85-11.34-10.17-15.4-16.64-1.13-1.76-1.64-3.83-1.58-5.9-0.08-13.05-1.02-26.11-0.12-39.16 0.14-6.02 3.86-11.07 6.16-16.43 1.57-2.54 3.33-7.02 7.07-6.01 5.35 2.1 9.9 6.2 13.1 10.94 1.69 2.25 0.84 5.12 0.39 7.63-1.52 7.7-3.99 15.23-5.08 23.02-0.22 3.48 3.6 4.85 5.7 6.9-0.65 3.43-1.99 6.66-3.09 9.96-1.28 5.24-0.09 10.71-0.91 16.01-0.75 2.07-2.11 3.85-3.05 5.84 2.74 2.09 5.73 3.96 7.98 6.63 2.88 3.47 0.52 8.84 3.68 12.2 0.95 1.33 2.35 2.21 3.77 2.99 2.45-4.55 0.54-10.05 3-14.57 2.67-5.59 0.49-11.87-1.84-17.16-1.52-3.08-1.33-6.53-0.84-9.82 0.73-3.5-4.22-4.63-4.19-8.06-0.24-3.55 5.83-3.17 5.27-6.93-0.14-7.73-2.65-15.4-1.37-23.15 1.44-8.94 1.68-18.01 2.84-26.98 0.18-2.56 2.08-4.44 3.74-6.18 4.49-4.32 9.54-8.12 15.12-10.93 3.24-1.8 7.01-2.43 10.62-1.44 4.53 0.99 10.93 1.29 12.7 6.5 3.91 10.05 9.83 19.18 13.71 29.24 1.3 4.59 0.22 10.82 5.13 13.54 3.16-7.92-1.8-15.78-3.04-23.53-1.02-6.97-1.94-14.52 0.87-21.18 2.63-3.66 5.8-6.94 9.02-10.09 2.85-2.84 7.88-4.82 11.28-1.72 4.55 4.39 6.4 10.69 9.83 15.88 0.73 1.28 1.98 2.04 3.31 2.64 2.13-8.99-2.29-17.95-1.81-27.03 2.84-1.58 6.3-0.68 9.17-2.08 2.04-1.9 2.48-4.93 4.49-6.86 3.45-0.48 6.92 0.37 10.4 0.23 1.09-2.89 1.07-6.59 3.65-8.66 3.2-1.05 6.37 0.85 8.72 2.89 6.81 5.96 10.32 14.52 15.63 21.65 0.52 0.29 1.56 0.88 2.08 1.17-0.04-7.86-5.3-15.12-3.39-23.06 1.56-7.13 4.19-14.47 9.82-19.42 2.25 1.17 4.31 3.1 6.96 3.27 6.51-1.76 11.27-7.58 18-8.79 4.05-0.47 5.91 3.6 8.74 5.57 1.43-0.11 2.86-0.28 4.29-0.5 6.66 3.48 9.71 10.68 12.91 17.05 3.11 6.27 5.29 12.96 6.56 19.84 0.31 3.64 5.13 4.02 7.35 1.85 3.09-2.76 3.67-7.6 1.7-11.17-5.77-11.14-12.81-21.6-18.16-32.96-0.95-2.31-2.38-4.99-1.1-7.46 1.45-3.26 5.63-3.56 7.75-6.2 1.86-2.19 3.8-4.33 6.23-5.92 2.29 4.43 2.73 9.81 6.08 13.65 4.09 3.47 8.69 6.52 13.79 8.29 3.21 1.24 6.52-0.24 9.76-0.61 6.66-0.92 13.39-1.31 20.12-1.44 2.57 2.32 4.99 4.83 7.87 6.8-1.63-3-4.95-4.68-6.12-7.99 3.29-2.31 7.46-2.39 11.32-2.79 13.87-0.23 27.21-4.49 40.85-6.53 4.55-0.53 9.2-1.91 13.78-1.08 4.24 4.21 6.99 9.76 10.45 14.63 4 6.77 9.21 12.69 13.63 19.18 2.78 3.8 5.63 7.99 10.22 9.74 3.31 1.76 7.56 1.99 10.03 5.11 4.95 4.71 9.93 9.88 16.42 12.38 5.71 1.15 11.85 1.42 17.43-0.5 4.67-1.61 8.12-5.93 8.88-10.79 1.26-6.79-1.66-13.65-6.09-18.68-4.58-5.53-11.54-8.4-16.08-13.96-2.44-3.06-5.7-5.65-9.59-6.48-3.08-0.51-6.22-0.23-9.29 0.08-5.28-5.07-10.17-10.52-14.75-16.22 6.44-5.66 15.33-6.86 23.55-7.56 15.3-3.07 30.3-7.45 45.47-11.09 9.24-2.61 18.85-3.35 28.17-5.62m-185.15 54.42c-1.95 2.56 0.61 5.08 2.35 6.81 2.38-1.97 0.76-6.98-2.35-6.81m-107.88 14.83c1.67 3.31 7.97 2.69 8.67-0.98-0.57-3.73-3.64-6.44-6.79-8.17-2.46 2.24-3.77 6.16-1.88 9.15m253.29-0.75c-0.83 4.1-0.18 8.71 2.63 11.96 0.41 3.01 0.02 6.1 0.86 9.07 3.58-3.19 7.1-8.41 5.29-13.32-2.09-1.45-4.49-2.35-6.74-3.46 0.21-2.17 0.43-4.34 0.43-6.51-1.08 0.49-2.45 0.82-2.47 2.26m-748.55 21.81c0.39 0.52 1.18 1.54 1.57 2.05 4.51-1.89 7.53-6.11 9.44-10.45-4.88 0.27-9.07 4.07-11.01 8.4m38.12-6.45c0.68 2.64 2.59 4.67 5.09 5.72 0.31-1.87 0.64-3.96-0.69-5.54-1.33-0.96-2.96-0.31-4.4-0.18m-10.53 7.2c-0.78 2.11-0.74 4.35-0.34 6.54 3.3-0.33 2.63-4.2 2.42-6.52-0.52 0-1.56-0.01-2.08-0.02m95.39 3.33c-0.08-1.54 0.1-3.21-0.93-4.49-2.66 0.67-1.54 4.52 0.93 4.49m-123.92 9.75c1.4-2.11 2.48-5 0.29-7.02-1.95 1.86-2.91 5.25-0.29 7.02m93.49 0.8c-6 1.46-5.45 10.29-0.32 12.52 5.92-0.44 7.31-12.84 0.32-12.52m70.45 17.44c-0.23 6.56-2.67 12.91-2.03 19.53 0.67-0.19 2-0.57 2.67-0.76 1.35-3.48 0.16-7.59 2.36-10.81 2.06-4.31 4.32-9.71 2.32-14.37-3.37-0.28-5.04 3.6-5.32 6.41m-41.87 4.03c2.55 0.52 4.04-1.95 5.26-3.74-2.15-0.78-6.85 0.99-5.26 3.74m233.99-3.21c-0.82 2.29 0.7 7.49 3.65 4.77 1.24-2.56-1.19-4.73-3.65-4.77m373.36 2.65c-1.64 2.83 3.1 4.89 4.85 2.66 0.98-2.55-3.14-4.39-4.85-2.66m-511.91 3.15c0.08 2.85 0.23 5.88 1.93 8.31 3.18 0.36 3.3-4.6 2.46-6.74-0.39-2.2-2.78-1.96-4.39-1.57m-133.63 13.42c0.3 3.11 0.29 8.22 4.53 8.42-0.52-3.55-0.71-7.15 0.84-10.49 0.46-3.29 1.18-8.31-2.23-10.2-4.06 2.56-3.3 8.15-3.14 12.27m35.04-10.25c-0.75 2.75 0.04 5.97-1.88 8.31-2 2.57-2.71 5.83-2.34 9.04 4.27 0.72 7.91-2.48 8.71-6.53 0.94-3.9 0.34-9.97-4.49-10.82m249.4 6.97c0.75 2.19 2.97 3.07 4.89 3.99 2.97-1.94 3.49-6.37 0.59-8.59-2.74-2.23-7.52 1.47-5.48 4.6m-379.79 5.79c-2.55 0.39-4.04 3.07-1.81 5 1.88 2.84 4.97-0.15 5.21-2.58 0.66-1.94-1.81-3.29-3.4-2.42m27.37 7.35c-1.45 2.44-0.44 5.29 0.05 7.86 1.38-0.5 2.98-0.73 4.02-1.88-0.06-2.79-0.23-5.58 0.39-8.32-1.61 0.48-3.55 0.73-4.46 2.34m-48.32-0.4c0.09 1.67-0.23 3.71 1.36 4.84 2.04 0.64 4.26-1.97 2.58-3.67-0.87-1.39-2.54-1.24-3.94-1.17m285.37 15.53c0.27 4.42 3.1 9.64-0.28 13.49-4.55 5.01-6.65 11.84-7.1 18.48-0.17 5.96 6.31 10.1 5.12 16.17-1.4 9.28-3.53 18.46-4.28 27.84-0.1 2.76-0.67 6.03 1.75 8.06 0.28-0.63 0.84-1.9 1.12-2.54 2-10.08 3.56-20.26 5.25-30.41 0.39-4.05 3.35-7.17 4.05-11.12 1.19-5.98 1.79-12.08 1.86-18.17 0.15-4.69-2.08-9.22-1.05-13.91 0.65-6.82 8.59-10.09 9.27-16.89-1.57-3.61-5.09-5.85-8.39-7.72-5.24 3.74-7.46 10.51-7.32 16.72m-297.61-13.81c-2.85 2.35-2.44 8.12 0.87 9.92 2.79-0.5 4.27-3.46 4.52-6.05 0.49-2.77-3.04-5.35-5.39-3.87m261.11 9.45c2.04 1.01 3.08-1.93 2.41-3.48-0.24-1.74-1.57-2.93-2.81-3.98-1.76 2.18-1.52 5.46 0.4 7.46m-214.82-2.48c0.05 1.89-0.49 4.11 1.1 5.58 0.46-1.78 1.73-5.12-1.1-5.58m85.24 3.62c-1.01 2.8-0.81 7.08 2.41 8.32 0.73-2.18 1.87-4.16 2.98-6.16 0.5-3.1-3.5-4.22-5.39-2.16m24.33 4.68c2.02-1.23 2.59-3.47 2.2-5.67-3.34-0.02-3.49 3.44-2.2 5.67m565.76-0.35c0.41 2.37 3.69 1.6 4.25-0.26 1.06-1.45-0.04-3.08-0.46-4.5-2.87-0.59-4.61 2.15-3.79 4.76m-498.38-3.73c-2.71 1.71-6.34 3.9-5.75 7.67 0.52 1.5 2.47 0.4 3.49 0.11 2.95-1.47 6.63-3.24 7.51-6.7-1.16-1.9-3.49-2.64-5.25-1.08m63.1 3.87c0.98 2.52 5.3 2.82 4.9-0.49-1.66-0.12-3.31 0.08-4.9 0.49m112.83 7.98c3.72 2.31 8.93 1.32 11.53-2.22-2.71-4.54-10.98-3.27-11.53 2.22m-142.02-2.7c-4.16 4.07-4.68 10.66-3.17 16.04 1.2 4.73-0.45 9.52 0.06 14.27l1.68 0.12c2.69-4.65 3.35-10.09 4.66-15.22 0.87-4.99 2.29-10.25 0.87-15.26-1.24-1.01-2.84-0.72-4.1 0.05m-110.68 16.36c-2.62 4.82-3.59 11-0.85 15.98 1.84-0.61 3.48-1.86 3.6-3.94 0.82-6.85 3.6-13.35 3.78-20.29-3.82 1.04-4.89 5.17-6.53 8.25m-86.55-4.75c-1.91 2.19-3.15 6.54-0.1 8.35 2.83-0.55 3-4.14 2.87-6.44 0.27-1.77-1.32-2.36-2.77-1.91m42.14 7.58c0.51 2.79 3.18 4.16 4.92 6.12 1.87 2.06 0.72 5.28 2.42 7.45 0.88 1.18 2.34 1.67 3.59 2.41 0.07-4.4-1.98-8.39-2.8-12.62-0.69-3.62-1.86-7.85-5.39-9.66-2.73 0.45-3.53 4-2.74 6.3m138.29-5.04c-1.88 1.51-0.69 5.87 2.03 5.02 2.46-1.36 0.62-5.48-2.03-5.02m456.74 3.81c-3.09 2.76-3.08 7.6-2.58 11.44 0.55 4.57 5.4 6.68 9.38 7.55 2.09 0.49 5.97 0.65 5.84-2.47 0.5-3.35-3.06-5.01-4.5-7.55-1.07-2.46-1.1-5.27-2.32-7.66-1.15-1.96-3.94-2.29-5.82-1.31m-289.31 0.6c-2.24 1.49-2.01 4.57-1.98 6.93 0.38 3.36 0.93 7.11 3.41 9.62 3.16 0.61 3.07-3.48 3.92-5.47 1.17-1.71 2.68-3.21 3.45-5.18-2.79-2.14-4.58-6.92-8.8-5.9m-191.94 5.21c-0.45 3.04 1.56 6.1 4.25 7.39 1.8 0.88 3.16-0.91 4.48-1.83 2.13-2.01 5.57-2.11 7-4.94-3.32-1.92-7.18-2.64-10.97-2.6-1.76 0.03-3.71 0.42-4.76 1.98m171.31-1.65c-3.55 1.73 0.8 7.36 3.82 5.49 1.18-2.4-1.11-6.14-3.82-5.49m-298.39 0.04c-1.6 6.03 0.34 12.97 4.92 17.24 3.99-0.77 3.28-5.27 2.3-8.13-1.26-3.66-2.95-8.23-7.22-9.11m535.69 11.32c-0.11 2.35 2.27 3.25 3.98 4.19 0.61-2.22 0.13-4.42-0.73-6.48-1.21 0.56-2.69 0.92-3.25 2.29m-498.5 6.87c0.47 3.66 4.74 4.56 7.77 5.11-0.19-4.62-2.18-9.43-6.17-12.02-1.74 1.85-2.21 4.47-1.6 6.91m98.62-1.1c0.11 1.55 1.37 2.42 2.59 3.14 0.15-1.4 0.88-2.99-0.34-4.12-0.81-0.34-2.32-0.24-2.25 0.98m433.29 14.98c4.31-1.65 1.85-8.8-2.14-8.08-3.18 2.34-0.93 6.85 2.14 8.08m16.01-2.73c-0.14 2.22 2.14 4.63 4.42 3.59 1.86-2.22-0.32-4.88-1.65-6.75-1.09 0.8-3.19 1.39-2.77 3.16m-528.09-1.21c-2.07 4.81-1.93 10.14-1.79 15.27 0.15 2.48 0.3 5.09 1.49 7.34 1.51 1.11 2.73-1.16 3.61-2.1 1.36-2.13 3.74-3.07 5.77-4.38 1.17-2.48 0.2-5.24-0.65-7.64-1.54-3.75-4-7.92-8.43-8.49m229.88 15.47c1.32-4.91 1.79-10.92-2.24-14.74-2.49 4.84-0.72 10.56 2.24 14.74m252.96-8.85c1.36 3.94 0.72 8.16 1.02 12.26 1.58 0.01 3-0.71 3.34-2.38 0.87-3.38 2.69-7.14 0.96-10.55-0.88-1.83-2.11-3.89-4.23-4.36-2.53 0.51-1.56 3.3-1.09 5.03m-278.59-2.95c-1.44 0.4-1.51 2.86 0 3.35 1.57 1.4 3.41-0.61 4.13-1.99-0.42-1.89-2.66-2.25-4.13-1.36m-98.21 0.42c-0.84 3.11 1.03 6.82 3.88 8.33 0.37-2.94 0.65-6.61-1.95-8.65-0.48 0.08-1.45 0.24-1.93 0.32m-140.96 9.19c-2.85 4.74-3.08 10.67-2.06 16 2.56 0.23 5.29-0.01 7.7 1.07 2.33 2.11 2.47 5.56 3.79 8.28 0.71 1.33 1.26 3.76 3.28 3.2 2.37-4.57-0.15-10.44-3.54-13.87-4.56-3.9-2.05-10.67-4.47-15.52-1.16-1.97-3.83-0.76-4.7 0.84m45.18 6.01c-0.06 4.36 2.01 8.58 4.74 11.88 2.31 2.6 5.99 0.16 8.75 1.24 2.12 1.52 4.07 4.2 7.01 3.76 1.38-0.74 2.03-2.4 1.1-3.77-1.88-3.46-6.87-1.08-9.3-3.79-2.94-2.76-5.16-6.21-8.31-8.74-1.13-0.9-2.73-1.86-3.99-0.58m118.03 9.47c-0.51 2.81-0.51 5.76 0.9 8.32 1.16-2.75 0.91-5.93-0.9-8.32m43.12 1.96c-0.99 2.36-0.78 4.89 0.15 7.24 3.41-0.63 3.09-4.85 1.79-7.26-0.49 0.01-1.46 0.02-1.94 0.02m-27.57 8.4c3.22-0.84 1.3-4.93 0.81-7.12-2.16 1.7-2.66 4.99-0.81 7.12m-39.49-5.89c-0.99 2.25-2.38 4.74-1.61 7.27 0.43 1.83 2.73 1.03 2.98-0.4 1.04-2.37 0.18-4.98-1.37-6.87m-28.86 0.6c-0.51 3.76 0.03 7.53-0.07 11.31 0.16 3.71-3.8 6.26-3 10.1 0.91 3.57 4.81 5.3 5.92 8.82 1.54-4.01 3.58-8.9 0.61-12.78-2.24-5.4 1.42-13.05-3.46-17.45m-60.66 8.13c-1.19 3.41 0.89 6.79 3.3 9.06 3.12-2.6 0.9-9.65-3.3-9.06z"/>
  <path d="m315.92 416.61c1.48-3.48 4.56-5.99 8.1-7.2 0.51 3.05 0.77 6.15 0.72 9.25-3.17 0.76-6.14-0.47-8.82-2.05z"/>
  <path d="m445.96 431.49c6.92-0.18 10.16-7.13 15.1-10.79 0.46-0.03 1.37-0.08 1.82-0.11 5.47 3.94 10.4 9.08 13.21 15.28-3.44 3.83-8.27 5.88-12.47 8.71-8.45 4.99-16.17 11.94-26.08 13.84-5.76 1.25-12.64-1.05-15.31-6.56-0.92-3.54 0.96-7.02 2.67-10.01 3.54-5.55 7.79-10.74 12.96-14.87 1.97 2.51 4.55 5.2 8.1 4.51z"/>
  <path d="m339.45 426.72c3.87-3.29 7.69 1.72 6.63 5.62-3.25-0.34-5.1-3.06-6.63-5.62z"/>
  <path d="m496.3 437.33c4.6-2.08 9.69-3.65 14.78-2.84 3.79 0.47 7 3.15 10.92 3 5.77-0.04 11.78 0.07 17.25-2.08 2.48-0.94 5.09 0.21 7.58 0.58-3.29 4.97-8.39 8.29-13.28 11.51-5.83 3.53-11.83 7.23-18.62 8.5-4.57 0.43-7.51 4.38-10.9 7.03-5.93 5.74-12.11 11.23-18.11 16.9 0.1 2.87 0.35 5.74 0.65 8.61 10.46-0.24 16.98 10.9 16.06 20.34-1.38 4.86-6.85 6.36-10.03 9.7-0.77 4.71-0.08 9.71-1.56 14.37-2.21 7.01-3.3 14.51-7.16 20.89-3.14 5.04-4.4 11.14-8.5 15.58-3.67 3.69 1.42 9.38-1.78 13.28-1.94 1.88-4.83 0.35-6.83-0.68 1.04-2.21 3.03-3.53 5.29-4.29-0.21-2.3-0.56-4.57-1.02-6.81-3.58 0.33-8.06 1.98-10.94-0.98-3.12-3.93-2.84-9.44-5.56-13.57-0.96-1.11-2.36 0.4-3.21 0.96-3.06 2.62-5.06 6.38-8.53 8.54-3.18 0.51-4.64-3.3-7.16-4.61-2.09-2.3-6.47-1.53-7.02 1.74-0.64 3.99 0.43 8.01 0.24 12.03 0.12 1.39-0.49 2.17-1.83 2.36-3.63-1.42-6.29-4.54-8.66-7.51-0.5-3.88 1.89-8.71-1.46-11.79-4.4-3.07-10.05-1.29-15-1.29 0.23-4.44 1.85-8.6 3.08-12.81 2.18-7.15 3.57-14.56 4-22.02-0.41-8.64-4.61-17.59-1.3-26.09 9.1 2.99 18.77 3.63 28.27 4.19 0.34 4.82 0.14 9.65 0.2 14.49 4.02-5.22 6.47-11.38 9.51-17.17 15.81-6.52 29.11-17.66 41.87-28.8 6.19-4.94 10.4-12.75 10.33-20.72 0.16-3.3-2.63-5.19-4.69-7.24-0.14-1.87 1.75-2.62 3.12-3.3m-36.21 58.22c3.29 0.58 7.1 0.44 9.81-1.74 1.87-1.44-0.17-3.53-0.84-5.02-3.67 1.17-6.86 3.53-8.97 6.76m19.31 9.54c-0.95 1.95-1.42 4.51 0.7 5.91 1.67 1.7 3.76 0.18 5.23-0.92-0.76-2.79-2.83-5.2-5.93-4.99m-54.2 6.14c-2.04 1.83-0.11 6.17 2.79 4.99 3.64-1.44 0.26-7.66-2.79-4.99m29.25 7.09c-1.02 1.13-1.01 2.24 0.03 3.34 1.27 0.36 2.54-0.41 2.35-1.84 0.19-1.05-1.95-3.27-2.38-1.5m18.03 5.17c-3.61 0.56-2.52 7.07 1.29 5.23 3.3-0.78 1.76-5.82-1.29-5.23m-15.02 3.97c-4 3.02-8.53 5.12-13.2 6.87-3.31 1-3.74 4.91-6.01 7.05-3.48 0.7-8.21-1.21-10.66 2.14-0.66 1.54-2.37 4.13-0.48 5.38 2.95 0.06 4.63-2.69 6.95-4.03 3.28 0.35 5.07 4.82 8.61 3.85 4.43-1.57 7.59-5.36 11.89-7.23 2.31-1.34 5.28-1.73 7.17-3.67 0.7-3.08-0.31-6.29-1.39-9.16-0.33-1.15-1.84-1.82-2.88-1.2m1.82 21.86c-1.45 0.78-1.27 3.76 0.73 3.47 3.15 0.24 2.24-6.38-0.73-3.47z"/>
  <path d="m1442.9 452.62c4.19 0.94 9.38 0.83 12.37 4.41 1.26 2.91-1.51 5.22-3.7 6.59-1.66 0.93-3.97 2.26-5.63 0.66-2.63-3.27-2.66-7.69-3.04-11.66z"/>
  <path d="m983.55 476.63c0.54-1.65 3.16-0.96 4.03 0.19 0.03 1.47-0.42 3.41-2.12 3.72-1.85-0.06-2.81-2.42-1.91-3.91z"/>
  <path d="m391.21 489.15c1.44-1.75 4.6-3 6.35-0.99 0.33 2.92-0.01 5.89 0.46 8.81 2.46 12.25 0.64 24.84 2.33 37.17 0.95 6.6-0.59 13.84-5.76 18.38-3.51 2.72-7.98 3.78-11.58 6.39-3.48 2.26-6.13 5.92-10.29 7.03-0.22-1.81-1.17-3.78-0.19-5.52 2.66-5.08 7.16-9.15 8.79-14.77 1.7-5.89 2.69-12.09 5.72-17.51 2.78-4.94 4.54-10.59 4.41-16.29-4.6-1.89-10.54 3.09-9.74 8.13 0.58 6.27-2.03 12.24-5.25 17.47-1.82 2.82-3.67 5.81-6.66 7.54-2.74-5.56-0.54-11.7 2.89-16.36 5.04-6.23 4.91-14.66 8.07-21.76 2.08-0.81 4.76-1.46 5.38-3.97 1.46-4.64 1.68-9.94 5.07-13.75z"/>
  <path d="m327.51 496.48c4.8-3.03 9.86-6.14 15.56-7.04 4.05 0.12 3.55 5.95 7.37 6.71 2.15-2.79 5.8-4.06 9.23-3.21 2.41 3.25-0.78 7.21-3.09 9.6-2.64 2.18-3.31 5.56-4.66 8.52-2.77 2.85-6.23 4.93-9.06 7.73-3.38 2.87-6.28 6.81-10.89 7.68-1.39-2.68-4.26-5.03-3.94-8.27 1.97-4.01 6.68-5.65 8.86-9.45 0.55-2.57-2.18-4.44-3.99-5.77-4.63-1.49-7.51 4.29-11.68 4.15-0.67-4.53 2.74-8.37 6.29-10.65z"/>
  <path d="m940.27 496.11c1.65-0.77 2.66 0.71 3.56 1.87-0.83 3.4-7.66-0.39-3.56-1.87z"/>
  <path d="m1349.3 506.7c5.85-1.57 10.24 4.23 11.63 9.21-0.24 0.63-0.7 1.87-0.93 2.49-5.72-0.61-9.52-6.51-10.7-11.7z"/>
  <path d="m350.49 526.41c-0.3-3.53 3.53-6.28 6.58-6.85 2.6-0.71 1.17 2.97 0.19 3.78-1.67 2.02-4.29 2.7-6.77 3.07z"/>
  <path d="m1316 537.01c-3.19-4.16-1.38-11.3 4.02-12.5 3.67 3.62 1.27 9.22 2.58 13.66 1.91 4.8 6.28 8.74 5.94 14.28-1.69 0.02-3.09-0.7-3.94-2.11-3.16-4.26-5.42-9.1-8.6-13.33z"/>
  <path d="m393.39 562.44c1.2-1.56 3.03-2.29 4.88-2.76 1.04 4.01-1.93 7.39-4.11 10.41-2.33 2.69-4.65 6.05-8.45 6.56 1.05-5.38 4.18-10.1 7.68-14.21z"/>
  <path d="m404.3 577.29c0.61-4.92 6.97-9.8 11.44-6.16 0.26 1.09 1.26 3.8-0.78 3.69-3.86-0.41-6.98 1.99-10.66 2.47z"/>
  <path d="m531.48 624.3c0.63-3.74 1.69-8.23 5.59-9.83 1.79 2.44 1.29 5.63 0.98 8.45-1.63 1.93-4.32 1.96-6.57 1.38z"/>
  <path d="m836.99 708.01c1.35-2.35 4.21-2.84 6.69-3.06 0.71 3.89 1.16 8.71-1.8 11.82-2.19-2.53-5.04-5.13-4.89-8.76z"/>
  <path d="m786.45 721.11c2.26-2.54 4.92-5.55 8.65-5.37 1.84 1.5 0.51 4.23-0.87 5.6-2.25 1.84-5.4 0.73-7.78-0.23z"/>
 </g>
 <g transform="translate(-127.4 -75.913)">
  <path d="m150 274.88c0.36-4.3 5.33-5.86 8.97-6.07 4.16-0.24 9.69 0.89 10.94 5.53 2.13 6.37 2.36 13.17 3.52 19.74 2.41 10.08-0.79 20.78 2.68 30.69 1.34 4.38 5.77 6.85 9.98 7.83 5.6 0.91 11.29 0.14 16.92-0.16 13.99-1.24 27.81-3.97 41.48-7.14 4.64-0.96 8.91-3.28 13.66-3.78 9.97-1.44 20.1-2.49 29.67-5.81 6.98-2.32 12.95-7.03 20.1-8.9 5.3-1.41 10.16 3.18 11.55 7.98 1.13 2.33 0.27 5.33-1.9 6.74-4.89 3.4-11 4.14-16.73 5.05-37.57 5.92-75.19 11.56-112.74 17.53-3.73 2.03-6.79 5.24-10.62 7.2-0.67 7.6-0.11 15.26 1.02 22.79 0.5 2.84 1.1 5.93 3.34 7.96 8.2 8.9 20.23 12.25 31.3 16.05 24.56 8.93 49.14 17.82 73.74 26.68 6.51 2.24 12.99 4.6 19.6 6.58 6.52 2.18 12.74-2.28 19.27-2.31 2.43 0.68 3.93 2.93 5.46 4.78 4.61 6.29 8.66 13.07 11.57 20.33 0.93 2.03 1.24 4.5-0.11 6.45-2.82 4.74-7.46 10-13.59 8.95-5.41-0.28-9.35-4.23-13.06-7.62-18.98-7.2-38.17-13.81-57.3-20.58-24.85-8.48-49.54-17.56-74.77-24.89-1.24 2.48-3.57 3.94-6.35 3.89-0.66 15.73-1.94 31.54-5.28 46.96-1.18 4.18-2.02 9.6-6.43 11.61-3.61 1.01-6.97-1.4-10.37-2.27-1.92-0.83-4.53-0.79-5.69-2.79-0.25-2.95 1.2-5.94 0.08-8.82-0.92-3.08-3.44-5.7-3.14-9.09-0.05-4.63 4.16-7.53 6.78-10.82-1.05-11.1 1.69-22.08 1.41-33.16-0.39-3.21-0.23-6.99-2.33-9.63-6.33-4.51-14.73-4.55-21.1-8.97-4.13-3.01-4.34-8.68-4.03-13.32 0.2-3.19 0.58-7.26 4.06-8.57 7.05-2.75 14.84-0.79 22.05-2.74 2.73-6.22 2.13-13.15 2.21-19.76-0.4-17-2.38-33.89-3.77-50.82 0.02-7.83-1.88-15.5-2.05-23.3z"/>
  <path d="m466 274.09c4.95-0.72 10.04 0.62 14.92 1.55 5.45 1.41 12.55 4 13.1 10.56-0.78 7.44-5.88 13.83-11.87 18.01-7.61 5.1-16.9 7.72-26.05 7.27-3.96-0.05-7.82-2.67-8.76-6.6-1.46-5.55-0.68-11.93 2.89-16.55 4.22-5.71 9.26-11.18 15.77-14.24z"/>
  <path d="m1244.8 290.82c6.84-5.23 15.98-4.38 24.07-4.06 9.13 0.95 18.41 1.97 27 5.39 9.73 3.77 17.67 11.99 21.03 21.87 1.26 3.93 1.57 9.19-2.11 11.94-3.25 1.76-8.68 3.01-10.8-0.98-2.18-4.15-3.36-8.93-6.73-12.36-5.8-5.98-14.36-7.9-22.34-8.75-12.91-1.5-26.77-0.09-37.95 7-9.86 6.22-16.25 16.64-19.91 27.49-1.27 4.17-3.61 8.07-3.83 12.52-0.88 12.15-0.44 24.43 1.61 36.45 1.3 6.8 2.7 14.03 7.16 19.55 2.87 3.58 7.91 2.99 11.97 2.67 14.52-1.94 28.44-6.75 42.28-11.36 7.51-2.44 14.8-5.78 22.65-7.05 20.01-3.74 40.1-7.02 60.14-10.58 5.14-1.05 10.68-1.3 15.17-4.32 4.8-3 9.73-7.21 15.81-6.43 7.67 0.52 12.72 9.58 10.27 16.52-3.31 5.56-10.58 6.03-16.36 6.75-10.86 0.14-21.48 2.58-32.16 4.3-25.02 4.45-49.98 9.22-74.79 14.74-10.88 2.52-21.77 5.02-32.42 8.38-4.34 1.45-8.93 2.74-12.41 5.85 0.46 5.76 4.21 10.49 7.53 14.96 5.16 6.78 11.28 12.75 16.86 19.17 4.28 2.06 9.34 0.46 13.95 0.9 3.99 3.1 6.12 7.88 9.85 11.26 3.7 3.99 8.96 6.41 12 11.01 1.58 4.35-3.65 8.28-7.66 7.51-4.78-1.34-7.77-5.57-10.89-9.1-5.76-5.37-15.53-3.81-20.26-10.58-11.85-14.23-21.77-29.91-32.61-44.89-31.25 5.22-62.26 12.52-93.96 14.6-4.98-0.1-11.03-0.62-14.19-5.04-2.76-4.48 0.9-10.07 5.01-12.23 6.18-2.87 12.8 0.65 19.16 0.6 22.82-3.31 45.77-5.61 68.54-9.24 2.77-0.53 5.61-0.78 8.32-1.64 0.15-0.35 0.46-1.07 0.61-1.43-1.08-4.88-2.89-9.56-4.08-14.41-1.71-7.27-6.29-13.45-8.05-20.7-2.51-10.95-1.42-22.29 0.02-33.3 1.09-8.71 6.25-16.14 11.44-22.94 9-11.3 19.54-21.35 31.06-30.04z"/>
  <path d="m636.74 327.76c5.88-1.76 12.14-1.09 18.1-0.06 10.02 1.73 18.36 10.24 20.19 20.2 0.72 3.25-1.02 6.85-4.19 8.03-5.66 2.08-12.11 1.3-17.39-1.5-8.57-3.78-17.63-9.59-27.37-6.97-22.99 5.47-44.97 14.36-67.48 21.39-6.46 0.91-12.47 5.56-13.93 12.07-0.78 4.92 2.89 9.11 6.66 11.72 6.68 4.5 14.38 7.94 22.54 8.16 33.74 1.38 67.23-3.98 100.81-5.98 18.11-9.96 37.37-17.65 55.46-27.66 20.81-10.35 42.12-19.72 63.72-28.31 3.53-1.05 7.12-3.5 10.9-2.59 0.89 1.82-1.01 3.12-2.1 4.28-4.15 3.72-9.83 4.34-14.87 6.13-17.68 7.63-34.97 16.16-52.18 24.8-10.88 5.4-21.73 10.88-32.33 16.8-3.56 2-7.18 3.94-10.26 6.64 6.83 7.25 17.27 8.88 25.87 13.19 3.16 1.71 3.14 5.76 2.27 8.79-0.77 3.19-3.32 5.45-5.74 7.45-5.69 4.52-12.01 8.13-18.34 11.66-10.48 5.68-21.15 11.19-32.59 14.68-28.43 9.07-57.32 16.64-86.27 23.82-18.83 3.85-37.91 7.01-57.15 7.27-4.75 1.68-9.85 3.98-14.93 2.39-2.38-1.31-1.72-4.6-0.61-6.57 2.55-4.53 6.75-7.84 10.82-10.94 4.4-0.27 8.98-0.43 12.97-2.52 19.08-9.22 37.73-19.37 57.33-27.51 19.9-8.31 41.17-14.71 58.43-28.11-8.01-1.34-16.12 0.33-24.14 0.76-15.96 1.29-31.96 2.02-47.97 2.12-8.1 0.07-16.29-0.62-24-3.21-5.64-1.93-11.8-3.75-15.67-8.61-6.48-7.93-8.1-18.66-7.93-28.61 0.1-3.45-0.34-7.55 2.33-10.21 2.25-1.97 5.12-3.03 7.76-4.35 3.01-1.62 6.31 1.03 9.45-0.02 11.85-3.98 24.15-6.65 35.66-11.62 4.54-1.93 8.47-4.99 12.88-7.15 5.06-1.44 10.38-1.69 15.46-3.12 9.23-2.41 18.54-4.52 27.83-6.73m19.39 83.46c-7.26 5.21-14.82 10.05-22.81 14.06-16.91 7.66-33.95 15.1-50.19 24.12-3.04 1.5-5.57 4.36-5.52 7.93 5.5 0.84 10.66-1.83 15.91-2.98 13.98-3.29 28.19-5.4 42.31-7.99 16.01-2.62 31.61-7.29 46.92-12.6 6.08-2.29 12.26-4.61 17.66-8.31 1.73-1.29 3.96-2.97 3.59-5.43-0.52-3.51-3.68-5.8-6.5-7.53-10.02-5.81-22.04-7.05-33.39-5.97-3.27 0.33-5.45 2.93-7.98 4.7z"/>
  <path d="m883.52 330.62c4.76-1.12 9.61-0.07 14.38 0.37 9.45 1.42 17.61 8.56 20.38 17.68 1.12 3.24 1.23 7.53-1.81 9.77-3.93 2.72-9.11 2.09-13.58 1.6-10.58-3.24-20.44-11.84-32.12-9.28-23.25 5.41-45.42 14.5-68.19 21.5-6.04 0.89-11.68 4.9-13.67 10.79-1.68 4.35 1.24 8.82 4.48 11.56 4.94 4.13 10.99 6.84 17.13 8.68 15.32 2.66 30.93 0.83 46.34 0.13 20.57-1.34 41.03-4.05 61.61-5.03 10.75-6.26 22.27-11.06 33.39-16.6 12.01-5.46 23.37-12.19 35.4-17.61 16.36-7.55 32.81-14.93 49.58-21.53 3.86-1.39 7.67-3.35 11.88-3.2 0.33 3.44-2.87 5.41-5.5 6.82-4.17 2.32-9.09 2.56-13.35 4.65-22.77 10.11-45.12 21.17-67.27 32.57-7.26 3.76-14.51 7.58-21.53 11.78-1.53 0.88-2.83 2.08-4.03 3.34 6.93 6.88 16.97 8.73 25.51 12.85 2.74 1.33 3.6 4.73 2.81 7.51-0.73 5.2-5.35 8.35-9.24 11.24-11.12 7.66-23.26 13.68-35.44 19.45-16.29 6.48-33.31 10.91-50.14 15.73-16.39 4.45-32.77 8.92-49.3 12.81-17.22 3.46-34.65 6.44-52.23 6.97-6.46-0.85-12.21 5.03-18.68 2.51-2.35-0.64-2.28-3.74-1.44-5.54 2.36-5.06 6.83-8.74 11.32-11.86 3.93-0.81 8.19-0.21 11.89-2.17 17.41-8.13 34.26-17.42 51.86-25.17 17.13-7.65 35.22-13.16 51.7-22.27 4.63-2.61 9.42-5.13 13.34-8.8-6.67-1.31-13.41 0.28-20.09 0.5-13.97 1.32-27.98 2.07-42.01 2.28-15.05 1.15-30.78-0.09-44.39-7.13-4.04-2.26-7.04-6.01-8.99-10.14-3.49-7.3-4.32-15.5-4.5-23.48 0.36-3.4 0.09-7.49 2.88-9.98 2.47-1.81 5.28-3.15 8.1-4.33 3.23-0.7 6.57 1.18 9.8 0 11.62-3.97 23.75-6.51 35-11.52 4.39-1.93 8.23-4.87 12.52-6.96 4.79-1.46 9.85-1.66 14.7-2.91 10.46-2.68 20.97-5.19 31.5-7.58m24.88 81.05c-1.73 0.27-3.45 0.8-4.78 1.97-11.39 9-24.01 16.43-37.49 21.83-12.34 5.7-24.76 11.29-36.71 17.79-2.48 1.45-5.36 2.68-6.84 5.3-0.59 1.26-1.71 2.76-0.4 3.99 4.55 0.83 8.9-1.4 13.24-2.42 15.71-4.01 31.81-6.13 47.72-9.19 14.32-2.48 28.24-6.8 41.98-11.46 6.65-2.38 13.36-4.9 19.26-8.87 2.02-1.43 4.51-3.79 3.28-6.52-1.28-2.88-3.9-4.92-6.51-6.52-9.89-5.54-21.62-6.89-32.75-5.9z"/>
  <path d="m1495.7 337.72c4.17-5.28 11.99-7.53 18.21-4.79 3.23 1.95 1.07 6.23 1.26 9.22 4 1.84 8.89 4.01 10.03 8.73-0.18 2.85-1.62 5.41-2.35 8.14-3.49 11.53-6.24 23.29-8.25 35.18-0.92 6.14-1.83 12.37-1.16 18.59 6.03-7.71 12.59-15.01 18.45-22.86 3.35-4.31 3.23-10.17 6.28-14.63 1.41-2.29 3.53-3.99 5.66-5.59-0.63-6.89-4.02-13.62-2.62-20.61 0.97-4.89 6.23-6.82 10.39-8.3 6.18-1.9 12.94-3.07 19.31-1.36 4.94 1.27 7.48 6.96 7.08 11.7-0.34 3.6-2.61 6.57-3.48 10-1.68 13.53-0.99 27.2-1.9 40.78-0.34 7.36-0.07 14.87-2.24 22-2.2 10.89-3 22.04-3.16 33.14-0.3 5.48 1.89 10.57 3.15 15.79 2.89 10.53 5.79 21.2 10.9 30.9 1.8 3.16 3.97 6.83 7.83 7.64 6.94 1.14 14.55 0.38 20.51-3.61 2.55-1.6 4.42-4.31 4.67-7.35 0.67-10.18 1.65-20.4 4.05-30.34 0.68-2.29 1.15-5.05 3.35-6.4 4.01-1.31 8.75 1.05 9.81 5.23-1.5 2.91-3.6 5.46-5.1 8.36-1.96 3.71-0.37 7.87-0.28 11.79 0.23 8.97 0.47 18.6-4.13 26.64-3.4 5.95-10.63 8.19-17.1 8.44-9.59-0.08-19.24-4.25-25.43-11.67-4.73-5.93-7.27-13.21-9.37-20.4-1.18-3.57-2.16-7.48-4.96-10.15-3.07-2.8-7.47-2.7-11.21-3.9-2.95-9.19-4.86-18.67-6.87-28.09-1.78-9.58-4.02-19.2-3.67-29 2.34-3.21 4.8-6.75 4.63-10.92 0.32-3.76-1.77-7.04-3.91-9.91-9.13 8.51-16.76 18.47-25.4 27.46 2.29 9.88 0.28 20.62-4.72 29.37-3.37 4.69-1.55 10.74-1.78 16.08 0.2 2.83-0.68 6.55-3.91 7.18-6.27 1.63-12.94 3.04-19.39 1.63-3.21-0.63-5.43-3.44-8.64-4.02-2.42-0.66-5.42-0.9-6.75-3.35-2-3.5-1.9-7.7-1.75-11.6 3.8 1.03 9.18 0.91 10.14-3.89 2.87-12.46 0.51-26.35 7.6-37.69-1.67-5.99-3.89-12.04-7.93-16.86-1.35-1.72-3.25-2.88-5.34-3.42-13.94 12.16-23.91 28.36-38.65 39.71-1.43 1.02-2.93 1.91-4.44 2.77-0.97 6.61-0.76 13.42 0.52 19.98 0.58 3.08 1.92 6 4.11 8.29-0.82 4.92-4.15 8.99-7.48 12.52-1.51 1.6-4.09 3.43-6.18 1.7-5.54-4.63-7.84-12.01-13.1-16.85-4.33-0.61-8.34 1.94-12.64 1.83-2.95-0.29-3.63-3.45-3.96-5.85-1.1-4.75 0.76-9.94 4.54-13.01 2.64-2.39 6.17-3.3 9.19-5.09 1.2-4.39-1.35-8.69-2.46-12.86-1.71-5.96-5.31-12.28-2.87-18.54 3.11-6.37 11.23-7.96 14.85-13.83 1.57-6.35 2.42-13.06 1.72-19.6-0.41-3.75-4.2-5.55-5.72-8.75-3.54-6.3-6.19-13.91-4.24-21.12 2.19-7.08 11.03-8.7 17.38-7.27 4.45 0.98 5.16 7.61 10.18 7.26 4.19-0.55 11.11-0.59 12.17 4.69-0.99 5.33-6.91 6.88-11.55 7.21-3.63 10.22-3.91 21.25-4.8 31.96-0.84 10.29-0.28 20.62 0.67 30.88 15.18-15.09 29.55-31.04 42.57-48.04 3.96-5.53 8.36-10.99 10.57-17.5 1.83-8.27 3.56-17.06 9.11-23.77z"/>
  <path d="m434.19 361.05c2.08-1.23 4.4 0.43 5.65 2.1 2.27 3.06 3.98 6.92 3.45 10.81-1.93 5.3-6.46 8.99-9.54 13.58-2.74 3.59-3.54 8.24-6.36 11.78-4.12 5.97-10.19 10.89-11.96 18.21-2.91 10.26-5.31 20.77-6.08 31.42-0.64 5.03 2.29 9.52 5.59 13.01 6.68 6.86 17.14 11.28 26.54 7.61 13.85-5.18 25.89-14.03 38.12-22.13 1.72-1.27 4.18-1.09 5.55 0.61 1.35 3.37-0.67 6.83-2.77 9.39-5.57 6.45-12.48 11.56-19.54 16.25-8.48 5.46-17.42 10.47-27.19 13.2-7.07 1.97-14.64 0.72-21.33-2.01-6.41-2.55-12.01-6.66-17.63-10.57-5.07-4.09-4.39-11.35-6.96-16.77-1.25-1.02-3.67-2.65-4.7-0.5-2.91 5.63-3.67 12.32-7.47 17.5-3.59 3.33-8.3-2.61-6.36-6.22 4.56-12.23 10.84-23.72 16.94-35.23 4.84-8.69 9.58-17.47 15.18-25.71 2.59-3.59-0.11-8.33 1.94-12.13 2.67-4.53 7.04-7.65 10.75-11.28 4.92-4.73 10.2-9.25 14.04-14.96 1.75-2.46 1.52-6.1 4.14-7.96z"/>
 </g>
</svg>
