<svg enable-background="new 0 0 762.5 800" version="1.1" viewBox="0 0 762.5 800" xml:space="preserve" xmlns="http://www.w3.org/2000/svg">
<path d="m703.5 458.4-40.1-40-18.4-18.4 58.6-58.4c38.9-39.2 58.6-90.4 58.6-141.6s-19.7-102.4-58.6-141.6c-37.8-37.4-88.9-58.4-142.1-58.4s-104.2 21-142 58.4l-42.5 42.8v-101.2h-377v602c0 50.8 19.3 101.2 58.2 140 44.5 44.4 105.1 63.2 163.3 56.8 10-1.2 19.7-2.8 29.3-5.6 32.5-8.8 63-25.6 88.7-51.2 13.7-13.7 25.3-29.3 34.5-46.4l6 6 40.1 40c39.3 39.2 90.7 58.4 142 58.4s102.7-19.6 142-58.4c39.3-39.2 58.6-90.4 58.6-141.6-0.6-51.2-20.3-102.4-59.2-141.6z"/>
<path d="m309.2 584.5 48.9-113.5h0.8l48.9 113.6h-18.7l-6.4-15.5h-49.7l-6.4 15.5h-17.4v-0.1zm49.7-75.4-18.7 44.1h37l-18.3-44.1zm-139.3-35.8h-19.1l-44.5 62v-61.9h-17.5v110.8h17.5v-39.3l41.8 39.3h24.7l-49.3-46.1 46.4-64.8zm42.2 0h-17.5v110.8h46.6l6.8-15.5h-35.8v-95.3zm242.3 42.5c0-25.8-16.7-42.5-47.3-42.5h-28.6v111.2h17.5v-26.6h11.1c2.8 0 5.6 0 8-0.4l19.1 27h20.7l-22.7-31.4c14.7-7.1 22.2-20.2 22.2-37.3zm-48.1 27h-10.3v-54h10.3c21.5 0 30.2 10.3 30.2 27s-8.7 27-30.2 27zm111.8-71.9h0.8l48.9 113.6h-18.7l-6.4-15.5h-49.7l-6.4 15.5h-17.5l49-113.6zm0.4 38.2-18.7 44.1h37l-18.3-44.1z" fill="#fff"/>
</svg>
