<svg width="800" height="300.19" data-name="Ebene 1" version="1.1" viewBox="0 0 800 300.19" xmlns="http://www.w3.org/2000/svg">
 <g fill="#78b925" stroke-width="6.8001">
  <path class="cls-5" d="m736.55 185.1c0-49.097 22.304-91.122 54.401-108.8h-111.25v221.75h120.29c-36.585-13.6-63.445-59.093-63.445-112.95"/>
  <path d="m585.32 6.9721e-6h76.025v298.05h-76.025z"/>
 </g>
 <g transform="matrix(6.8001 0 0 6.8001 -719.38 -750.5)">
  <path d="m109.04 131.68 4.6-3.97h4.22l-4.66 3.85 5.15 6.04h-4.12l-3.35-4.2-1.84 1.56v2.64h-3.25v-9.89h3.25z"/>
  <path d="m119.98 124.74h3.23v12.85h-3.23z"/>
  <path class="cls-6" d="m134.15 133a1.88 1.88 0 0 1-0.32 1.22 4 4 0 0 1-3.33 1.48c-0.42 0-2.17 0-2.17-1.27 0-0.95 1-1.17 1.22-1.23a26.79 26.79 0 0 1 4.6-0.2m3.69-1.29c0-2.07 0-4.37-6-4.37a9.72 9.72 0 0 0-4.57 0.86 3.11 3.11 0 0 0-1.46 2.27h3.3c0.25-0.8 1.56-0.9 2.64-0.9 2.86 0 2.82 0.94 2.8 1.77h-3.05c-3.14 0-6.18 0.08-6.18 3.21a3.09 3.09 0 0 0 2.46 3 8.35 8.35 0 0 0 2.33 0.28 7.79 7.79 0 0 0 4.46-1.31 3.79 3.79 0 0 0 0.2 1.06h3.53a1.82 1.82 0 0 1-0.46-1.21z"/>
  <path class="cls-6" d="m143 134.19c0.36 1.25 1.62 1.48 2.87 1.48a4.63 4.63 0 0 0 1.66-0.22c0.15 0 0.71-0.24 0.71-0.77s-0.77-0.79-2.22-1c-0.77-0.09-1.53-0.12-2.3-0.22-1-0.12-3.58-0.42-3.58-2.75s2.39-3.34 5.65-3.34a7.69 7.69 0 0 1 4.35 1.1 3.39 3.39 0 0 1 1.34 2l-3.28 0.22c-0.28-0.69-1.09-1.18-2.6-1.18-1.31 0-2.2 0.34-2.2 0.94 0 0.4 0.38 0.59 0.82 0.69a24.48 24.48 0 0 0 3.62 0.43 6.82 6.82 0 0 1 2.2 0.48 2.52 2.52 0 0 1 1.48 2.33 2.83 2.83 0 0 1-1 2.12c-0.7 0.65-2.06 1.33-4.8 1.33-4.46 0-5.73-1.63-6.16-3.35z"/>
  <path class="cls-6" d="m156.36 134.19c0.36 1.25 1.62 1.48 2.87 1.48a4.6 4.6 0 0 0 1.66-0.22c0.16 0 0.71-0.24 0.71-0.77s-0.76-0.79-2.21-1c-0.77-0.09-1.54-0.12-2.3-0.22-1-0.12-3.58-0.42-3.58-2.75s2.39-3.34 5.65-3.34a7.68 7.68 0 0 1 4.34 1.1 3.39 3.39 0 0 1 1.34 2l-3.27 0.22c-0.29-0.69-1.09-1.18-2.61-1.18-1.3 0-2.2 0.34-2.2 0.94 0 0.4 0.38 0.59 0.82 0.69a24.73 24.73 0 0 0 3.62 0.43 6.77 6.77 0 0 1 2.2 0.48 2.51 2.51 0 0 1 1.48 2.33 2.82 2.82 0 0 1-0.94 2.12c-0.71 0.65-2.07 1.33-4.8 1.33-4.47 0-5.73-1.63-6.18-3.35z"/>
  <path d="m166.98 127.71h3.23v9.88h-3.23z"/>
  <path d="m176.19 131.68 4.59-3.97h4.23l-4.66 3.85 5.15 6.04h-4.13l-3.35-4.2-1.83 1.56v2.64h-3.25v-9.86h3.25z"/>
  <path class="cls-6" d="m132.29 145.91c0.47-0.73 1.27-2 4.18-2v2.91h-0.85a5.18 5.18 0 0 0-2.17 0.43 2.09 2.09 0 0 0-1.16 2.14v4.76h-3.29v-9.87h3.28z"/>
  <path class="cls-6" d="m146.63 149.53a1.9 1.9 0 0 1-0.31 1.21 4 4 0 0 1-3.33 1.48c-0.42 0-2.17 0-2.17-1.27 0-0.95 1-1.17 1.22-1.23a28 28 0 0 1 4.59-0.19m3.28-1.29c0-2.07 0-4.37-6-4.37a9.8 9.8 0 0 0-4.57 0.85 3.11 3.11 0 0 0-1.44 2.28h3.29c0.26-0.8 1.56-0.9 2.65-0.9 2.86 0 2.82 0.94 2.79 1.78h-3.07c-3.14 0-6.17 0.07-6.17 3.2a3.07 3.07 0 0 0 2.46 3 8.31 8.31 0 0 0 2.33 0.28 7.68 7.68 0 0 0 4.45-1.31 4.06 4.06 0 0 0 0.2 1.05h3.53a1.82 1.82 0 0 1-0.45-1.2z"/>
  <path class="cls-6" d="m157.86 146.19a3.8 3.8 0 0 1 2.23 0.57 2.51 2.51 0 0 1 1.1 2.36 3.035 3.035 0 1 1-6.07 0 2.79 2.79 0 0 1 2.74-2.93m3.27-0.93a5.08 5.08 0 0 0-1.65-0.94 6.51 6.51 0 0 0-2.31-0.42 5.18 5.18 0 0 0-5.4 5.32 5.09 5.09 0 0 0 5.42 5.23 5.92 5.92 0 0 0 3.32-1 6.64 6.64 0 0 0 0.62-0.57v1.19h3.2v-13.07h-3.2z"/>
  <path d="m167.05 144.05h3.23v10.04h-3.23z"/>
  <path class="cls-6" d="m179 146.13c2.26-0.12 3.65 1.17 3.65 2.93 0 1.37-0.77 3.06-3.45 3.06-3.3 0-3.51-2.38-3.51-2.92 0-1.53 0.94-3 3.31-3.07m0.3-2.36c-4 0-7 2.07-7 5.39s2.78 5.35 6.87 5.35c3.74 0 6.82-1.92 6.82-5.51 0-2.81-2.33-5.21-6.7-5.23"/>
 </g>
</svg>
