<svg width="693.27pt" height="330.79pt" version="1.1" viewBox="0 0 693.27 330.79" xmlns="http://www.w3.org/2000/svg">
 <path d="m296.24 3.3941c3.37-2.38 7.52-3.47 11.62-3.39l42.09 0.01c7.63-0.09 15.01 4.93 17.58 12.13 2.1 5.43 0.61 11.28 0.13 16.87l209.46 0.08c37.21 0.19 73.67 19.37 94.86 49.96 22.61 31.83 27.61 75.1 13.07 111.31-13.22 33.92-43.12 60.81-78.34 70.12-12.64 3.46-25.84 4.19-38.88 4.03l-205.12 0.07-97.86 59.41c-5.07 3.16-10.38 7.49-16.75 6.7-4.79-0.79-6.96-5.93-7.11-10.29l0.1-55.89h-128.24c-25.64-0.88-50.66-10.93-70.39-27.22-21.45-17.58-36.6-42.9-40.89-70.39-6.29-37.93 6.48-78.96 34.7-105.39 22.84-20.79 53.69-32.24 84.49-32.48l137.87-0.03c12.49-8.6 25.1-17.03 37.61-25.61" fill="#fff"/>
 <g transform="translate(-39.157 -50.986)">
  <path d="m337.98 58.89c2.31-1.65 5.08-2.76 7.97-2.65l44.12 0.01c6.62 0.14 12.28 6.04 12.66 12.56-0.13 5.51-1.26 10.95-1.49 16.46l194.78-0.02c13.36 0.17 26.87-0.83 40.05 1.95 36.73 6.83 69.07 33.23 82.91 67.96 13.89 33.53 10.24 73.72-9.78 104.03-16.35 25.39-43.33 43.74-73.06 49.23-8.3 1.56-16.75 1.84-25.17 2.07l-211.17 0.24-105.81 64.37c-2.11 0.89-4.79 2.62-6.94 0.93-1.49-1.58-1.76-3.89-1.81-5.97l0.01-59.55-130.25-0.01c-23.37-0.3-46.44-8.45-65.16-22.37-21.99-16.11-38.1-40.39-43.35-67.23-7.58-36.7 4.22-76.99 31.06-103.28 20.75-19.64 48.92-30.94 77.36-32.35l144.27-0.03c12.94-8.77 25.89-17.53 38.8-26.35" fill="#1e3a6a"/>
 </g>
 <g transform="translate(-39.157 -50.986)" fill="#fff">
  <path d="m349.81 76.66 29.53-0.14-22.93 212.76-45.73 8.08 18.71-161.21-28.61 17.38-9.36-37.65z"/>
  <path d="m402.67 129.99 24.91 0.08 15.48 20.93-20.48-0.04z"/>
  <path d="m175.25 170.64c14.81-7.78 31.96-10.7 48.55-8.92 9.75 1.09 19.71 4.71 26.35 12.21 6.15 6.82 8.87 16.11 9.1 25.15l-0.01 56.67h-17.74l-0.26-9.62c-12.38 9.52-28.99 12.11-44.11 9.27-9.87-1.7-19.48-6.88-25.04-15.4-6.52-9.77-6.37-24.14 2.07-32.76 9.7-10.03 24.32-13.42 37.85-13.25 9.64-0.02 19.28 0.09 28.93-0.06-0.6-4-1.83-8.11-4.79-11.02-4.23-4.21-10.37-5.79-16.16-6.16-13.27-0.68-26.62 1.81-38.87 6.9l-5.87-13.01m26.34 41.1c-5.66 1.17-12.43 2.92-15.11 8.62-1.78 4.8-1.57 11.06 2.47 14.69 4.15 3.57 9.74 4.76 15.04 5.38 6.38 0.54 12.94 0.88 19.18-0.86 7.14-1.97 13.86-6 18.47-11.85l0.11-16.99c-13.37-0.62-26.91-1.24-40.16 1.01z"/>
  <path d="m401.95 178c8.96-10.83 22.93-17.42 37.04-16.78 22.24-0.7 42.86 17.22 46.36 38.99 1.01 5.72 0.61 11.55 0.58 17.33l-76.44-0.02c3.07 10.38 12.07 18.74 22.71 20.87 9.52 2.13 19.81-0.87 26.77-7.7l15.61 8.89c-6.93 8.33-16.68 14.38-27.43 16.15-13.35 2.37-27.78-0.81-38.34-9.47-10.97-8.61-18.01-22.24-17.84-36.27-0.53-11.55 3.35-23.27 10.98-31.99m22.47 3.41c-7.38 4.06-13.12 11.08-15.2 19.29l58.27 0.03c-2.35-9.59-9.78-17.61-18.97-21.07-7.81-2.75-16.79-2.2-24.1 1.75z"/>
  <path d="m604.54 180.51c8.99-12.33 24.1-20.12 39.46-19.29 22.33-0.54 42.8 17.74 46.05 39.6 0.85 5.52 0.72 11.12 0.69 16.68l-76.62 0.02c2.95 10.03 11.49 18.22 21.68 20.63 9.82 2.62 20.57-0.5 27.85-7.48l15.57 8.84c-6.52 7.74-15.36 13.75-25.37 15.8-15.68 3.56-33.29-0.9-44.45-12.74-16.67-15.66-18.56-43.93-4.86-62.06m27.32-0.44c-8.76 3.64-15.77 11.4-18 20.69l58.24 0.02c-2.13-8.83-8.54-16.32-16.68-20.19-7.35-3.37-16.07-3.46-23.56-0.52z"/>
  <path d="m101.5 256.5 0.01-95 18.23-0.01 0.01 77h37.24l0.01 18.01z"/>
  <path d="m501 162c19 0.02 38-0.04 57 0.03 15.51 0.2 28.21 15.89 25.77 31.1-1.31 14.01-14.8 25.14-28.8 24.18 10.26 13.05 20.57 26.05 30.73 39.17-7.15 0.07-14.31-0.03-21.46 0.06-10.26-13.08-20.61-26.09-30.77-39.24-4.82-0.11-9.64-0.03-14.46-0.06-0.03 13.09 0.02 26.18-0.03 39.27-5.99-0.01-11.98-0.01-17.97 0-0.03-31.5 0-63.01-0.01-94.51m18 16v23h38.1c5.42 0.15 10.33-4.55 10.81-9.88 1.02-6.36-4.28-13-10.8-13.05-12.7-0.16-25.41-0.02-38.11-0.07z"/>
 </g>
</svg>
