<svg width="237.04" height="75.676" clip-rule="evenodd" fill-rule="evenodd" image-rendering="optimizeQuality" shape-rendering="geometricPrecision" text-rendering="geometricPrecision" space="preserve" version="1.1" viewBox="0 0 1519.9 511.76" xmlns="http://www.w3.org/2000/svg">
 <g transform="matrix(1.3584 0 0 1.3584 15.703 1023.9)" fill-rule="evenodd">
  <g transform="matrix(4.3292 0 0 -4.3292 -418.9 2948.4)" fill="#8fd300">
   <path d="m154.46 843.9v-6.4667h11.939c3.9214 0 7.1299 3.2085 7.1299 7.13v10.667h-11.939c-3.9215 0-7.13-3.2085-7.13-7.13z"/>
   <path d="m106.3 793.9v11.608c0 2.7623 2.0724 5.1329 4.718 5.6123l0.6568 0.0785c0.108 7e-3 0.2165 0.0102 0.3262 0.0102l22.804-0.0102h19.658v23h-42.462c-13.948 0-25.359-11.412-25.359-25.359v-14.94h13.095z"/>
  </g>
  <path d="m164.7-563.47v50.256c0 11.959-8.9706 22.222-20.425 24.298l-2.8422 0.33897c-0.46886 0.0303-0.93858 0.0442-1.4135 0.0442l-98.722-0.0442h-85.106v99.574h183.83c60.383 0 109.79-49.404 109.79-109.79v-64.68h-56.692z" fill="#8f8f8d"/>
 </g>
 <path d="m587.18 332.42v-219.83h43.686v219.83zm136.66 2.8001c-44.059 0-66.087-15.869-66.087-47.606 0-17.922 7.4667-30.898 22.403-38.925 14.934-8.0269 35.564-13.255 61.888-15.682v-7.0009c0-7.4667-2.2861-12.695-6.861-15.683-4.5742-2.987-11.155-4.4794-19.742-4.4794-6.9082 0-13.629 0.83982-20.163 2.5191-6.5334 1.6817-12.882 3.9216-19.042 6.7217l-9.5214-24.923c8.775-3.7334 18.343-6.5807 28.704-8.541s19.742-2.9408 28.143-2.9408c18.67 0 33.231 4.2946 43.686 12.882 10.455 8.5871 15.683 22.683 15.683 42.286v90.171c-6.5352 3.5461-14.843 6.3-24.923 8.26-10.081 1.9603-21.47 2.9411-34.165 2.9411zm18.203-82.05c-14.935 1.4924-25.904 4.4797-32.905 8.9602-7.0002 4.4815-10.501 12.415-10.501 23.803 0 8.5892 2.3343 14.935 7.0013 19.043 4.6676 4.1064 11.481 6.1601 20.443 6.1601 6.5345 0 11.855-1.0267 15.962-3.0804zm158.5 79.25v-105.57c0-6.1601-1.6817-11.201-5.041-15.121-3.361-3.9206-9.1491-5.8805-17.363-5.8805-4.1074 0-7.3729 0.23305-9.8007 0.69985-2.4271 0.4668-5.3206 1.2601-8.6816 2.3805v123.5h-43.685v-142.54c7.8408-3.5472 17.082-6.3007 27.723-8.261 10.642-1.9603 22.496-2.9408 35.564-2.9408 22.776 0 39.299 4.2481 49.566 12.742 10.267 8.4944 15.402 20.21 15.402 35.145v105.85zm133.3 2.8001c-18.436 0-33.37-6.9075-44.76-20.723-11.434-13.815-17.129-33.138-17.129-57.967 0-24.457 5.8343-43.546 17.549-57.267 11.669-13.722 26.371-20.584 44.059-20.584 8.401 0 15.682 1.0267 21.843 3.0804 6.1612 2.054 11.202 4.668 15.122 7.8418l-8.9612 24.083c-2.4278-1.8668-4.9473-3.3141-7.5612-4.3408-2.6139-1.027-6.0677-1.54-10.361-1.54-9.3352 0-16.335 4.1078-21.003 12.322-4.6676 8.2148-7.0002 20.162-7.0002 35.845 0 15.308 2.426 27.163 7.2805 35.565 4.8538 8.4003 11.668 12.6 20.443 12.6 7.4667 0 13.536-2.0527 18.202-6.1601l9.2408 26.323c-3.5472 3.36-8.3076 6.0204-14.282 7.9804-5.9743 1.9603-13.535 2.9411-22.683 2.9411zm97.171-63.008c2.988 22.03 15.122 33.044 36.405 33.044 8.0276 0 15.448-0.74639 22.263-2.2399 6.8137-1.4935 12.461-3.4538 16.942-5.8805l9.801 27.163c-6.3462 3.1742-14.047 5.787-23.103 7.8408-9.0536 2.0537-19.369 3.0807-30.944 3.0807-22.963 0-40.838-7.0013-53.626-21.003-12.788-14.001-19.182-33.23-19.182-57.686 0-23.897 5.9739-42.846 17.922-56.848 11.948-14.002 28.657-21.003 50.126-21.003s37.478 6.9086 48.025 20.723c10.548 13.815 15.822 33.79 15.822 59.927zm24.923-67.769c-18.483 0-27.724 15.449-27.724 46.393l52.647-7.7946c0-13.255-2.1009-22.963-6.3-29.216-4.2008-6.2545-10.408-9.3825-18.623-9.3825zm94.092 127.98v-219.83h43.685v219.83zm138.9 2.8001c-21.284 0-37.712-7.2336-49.288-21.702-11.574-14.469-17.362-33.371-17.362-56.708 0-23.336 5.7408-42.192 17.222-56.567 11.482-14.375 27.864-21.563 49.147-21.563 21.282 0 37.759 7.1881 49.426 21.563 11.668 14.375 17.502 33.231 17.502 56.567 0 23.337-5.7881 42.239-17.362 56.708-11.574 14.469-28.003 21.702-49.286 21.702zm0-129.38c-8.6816 0-14.656 4.5266-17.969 13.582-3.3151 9.0536-4.9945 21.33-4.9945 36.824 0 15.308 1.6794 27.35 4.9945 36.125 3.3128 8.7744 9.287 13.161 17.969 13.161 8.8675 0 14.888-4.3398 18.108-13.021 3.2207-8.6806 4.8538-20.77 4.8538-36.265 0-15.869-1.6331-28.236-4.8538-37.105-3.2204-8.8678-9.2408-13.301-18.108-13.301zm148.7 128.82c-14.935 0-26.231-4.1547-33.884-12.462-7.6549-8.3086-11.482-18.716-11.482-31.224v-81.21h-16.521v-28.284h16.521v-32.064l43.687-11.155v43.219h23.243v28.284h-23.243v77.85c0 11.761 4.6666 17.642 14.001 17.642 2.4278 0 5.5085-0.55919 9.2419-1.6796v26.884c-1.6807 0.74639-4.7139 1.6334-9.1019 2.6601-4.3863 1.027-8.541 1.5407-12.461 1.5407" fill="#8f8f8d" fill-rule="nonzero"/>
 <path d="m1449.7 509.73h-11.032v-87.747h11.032zm2.5458-114.22c0 2.6024-0.792 4.6957-2.3761 6.2798-1.5841 1.4709-3.5077 2.2064-5.7706 2.2064-2.263 0-4.1866-0.73547-5.7707-2.2064-1.5841-1.5841-2.3761-3.6774-2.3761-6.2798s0.792-4.6391 2.3761-6.1101c1.5841-1.5841 3.5077-2.3761 5.7707-2.3761 2.2629 0 4.1865 0.79205 5.7706 2.3761 1.5841 1.4709 2.3761 3.5076 2.3761 6.1101z" fill="#8fd300" stroke-width="4.2431px"/>
 <path d="m1553.7 465.94c0 6.9021-1.0183 13.182-3.055 18.839-1.9235 5.6575-4.6957 10.466-8.3165 14.427-3.5076 3.9602-7.6941 7.0718-12.56 9.3348-4.8655 2.1498-10.24 3.2248-16.124 3.2248-5.8838 0-11.258-1.0749-16.124-3.2248-4.8654-2.263-9.1085-5.3746-12.729-9.3348-3.5076-3.9602-6.2798-8.7691-8.3165-14.427-1.9235-5.6575-2.8853-11.937-2.8853-18.839s0.9618-13.182 2.8853-18.839c2.0367-5.6575 4.8089-10.466 8.3165-14.427 3.6208-4.0734 7.8639-7.185 12.729-9.3348 4.8654-2.263 10.24-3.3945 16.124-3.3945 5.8837 0 11.258 1.1315 16.124 3.3945 4.8654 2.1498 9.0519 5.2614 12.56 9.3348 3.6208 3.9602 6.393 8.7691 8.3165 14.427 2.0367 5.6575 3.055 11.937 3.055 18.839zm-11.711 0c0-10.975-2.5459-19.688-7.6376-26.137-5.0917-6.5627-11.994-9.844-20.706-9.844s-15.615 3.2813-20.706 9.844c-5.0917 6.4495-7.6376 15.162-7.6376 26.137s2.5459 19.688 7.6376 26.138 11.994 9.6743 20.706 9.6743 15.615-3.2248 20.706-9.6743 7.6376-15.162 7.6376-26.138z" fill="#8fd300" stroke-width="4.2431px"/>
 <path d="m1397.9 378.02h12.071v128.01c-17.995 6.4568-39.064 8.9273-56.385-0.70183-23.582-16.002-25.462-53.816-7.3833-74.563 13.026-14.598 35.021-12.717 51.697-6.2884v-46.459m-31.737 53.308c-9.1238 3.1723-16.198 11.37-17.911 20.886-3.3688 15.019-1.7967 34.081 12.015 43.514 10.892 7.664 25.392 4.6602 37.632 2.9758v-62.435c-9.7976-4.1268-21.069-7.5798-31.737-4.9409z" fill="#8fd300" stroke-width="2.8073"/>
 <path d="m1257.3 421.87c12.184-2.0774 25.364-3.9303 37.464-0.61761 11.285 4.2391 17.04 12.63 17.04 24.123v62.259c-16.367 3.0038-34.558 7.5798-50.392-0.0562-17.939-6.9622-19.96-37.674-2.1898-45.956 12.493-7.1025 27.288-5.0813 41.044-5.0251v-12.662c0-6.0264-4.6294-10.415-10.36-12.295-6.5144-1.6965-13.074-1.5697-19.645-0.92435l-12.962 1.2731v-10.118m11.328 47.191c-10.668 3.9022-13.391 20.297-3.8461 26.866 9.7695 7.6078 24.116 4.4075 35.486 3.7337v-32.088c-9.9941-0.28074-22.039-2.1897-31.64 1.4879z" fill="#8fd300" stroke-width="2.8073"/>
 <path d="m1190.4 425.21c9.7306-7.8176 37.026-4.9817 46.209-4.5206 0.084 2.5547-0.084 7.6921 0 10.247-13.63-1.2165-23.51-1.3715-34.67 0.33688v78.507c-3.5091-0.0281-8.029 0.0281-11.538 0v-84.57z" fill="#8fd300" stroke-width="2.8073"/>
</svg>
