<svg width="600pt" height="297.46pt" version="1.1" viewBox="0 0 600 297.46" xmlns="http://www.w3.org/2000/svg">
 <g transform="matrix(2.4048 0 0 2.4048 .00048096 -1.6326)" fill-rule="evenodd">
  <path d="m218.58 47.445c0-4.25-1.5586-6.2461-4.1055-8.8125-1.0469-1.0586-10.957-11.047-12.004-12.102-2.5469-2.5664-4.5234-4.1406-8.7422-4.1406-3.6953 0-5.1797 1.5742-7.7266 4.1406-0.30859 0.30859-2.1172 2.1367-4.7852 4.8242 7.332 7.3906 21.172 21.344 28.488 28.719 2.6602-2.6797 4.4609-4.4961 4.7695-4.8086 2.5469-2.5664 4.1055-4.0586 4.1055-7.7891" fill="#ed7d00"/>
  <path d="m156.04 98.633h4e-3l-0.40625-0.41016z" fill="#ea7902"/>
  <path d="m152.73 60.074c9.9844-10.062 32.117-32.379 33.273-33.543 2.5469-2.5664 4.0312-4.1406 7.7266-4.1406h-25.023c-4.2188 0-6.1992 1.5742-8.7422 4.1406-1.0508 1.0547-10.957 11.043-12.004 12.102-2.5469 2.5664-4.1055 4.5586-4.1055 8.8125v0.03125c0 3.7305 1.5586 5.2266 4.1055 7.7891 0.30859 0.3125 2.1094 2.1289 4.7695 4.8086" fill="#f4a200"/>
  <path d="m214.48 55.266c-1.1562 1.168-23.266 23.457-33.258 33.531 2.668 2.6914 4.4766 4.5117 4.7852 4.8242 2.5469 2.5664 4.0312 4.1367 7.7266 4.1367 4.2188 0 6.1953-1.5703 8.7422-4.1367l12.004-12.102c2.5469-2.5664 4.1055-4.5625 4.1055-8.8125v-25.23c0 3.7305-1.5586 5.2227-4.1055 7.7891" fill="#f4a200"/>
  <path d="m186 93.621c-1.4648-1.4766-36.578-36.879-38.043-38.355-2.5469-2.5625-4.1055-4.0586-4.1055-7.7891v25.23c0 4.25 1.5586 6.2461 4.1055 8.8125 1.0469 1.0586 10.953 11.043 12.004 12.102 2.543 2.5664 4.5234 4.1406 8.7422 4.1406h25.023c-3.6953 0-5.1797-1.5742-7.7266-4.1406" fill="#ed7d00"/>
  <path d="m140.64 83.16c-1.6562-1.8828-4.0312-2.9609-6.5273-2.9609h-36.535s-11.047 12.152-10.176 15.383c0.07031 0.18359 0.16016 0.35938 0.26562 0.53516 1.2266 2.0312 3.75 2.5156 5.7305 2.5156h49.801v-5.5703c0-3.625 0.0508-7.2656-2.5625-9.9023z" fill="#ed7d00"/>
  <path d="m143.2 93.062v31.312h18.414v-14.219c0-3.6289-0.29688-6.1523-3.2812-9.1562l-17.695-17.84c2.6172 2.6328 2.5625 6.2773 2.5625 9.9023" fill="#f4a200"/>
  <path d="m129.09 22.391c-15.004 15.133-41.504 41.758-43.285 43.559-2.4062 2.4219-10.32 9.8164-7.6797 14.188 4.0938 6.7812 9.4141 15.766 9.4141 15.766-1.8438-2.6406 10.031-15.703 10.031-15.703s38.836-39.273 57.328-57.809z" fill="#f4a200"/>
  <path d="m2.125 42.566c1.6914 1.707 3.0859 1.6719 5.4141 1.6719h4.3867v-43.559h-11.926v35.957c0 2.3516 0.19141 3.9844 2.125 5.9297z" fill="#f4a200"/>
  <path d="m27.016 44.238h-19.477c-2.3281 0-3.7227 0.03516-5.4141-1.6719l11.457 11.555c1.9336 1.9453 3.5508 2.1406 5.8828 2.1406h19.48z" fill="#ed7d00"/>
  <path d="m89.945 30.082v18.578c0 2.3477 0.01563 3.7539-1.6758 5.4609l11.457-11.555c0.83594-0.80469 1.3711-1.9414 1.3711-3.1992 0-1.2695-0.51953-2.418-1.3711-3.2266l-11.426-11.52c1.6914 1.707 1.6445 3.1094 1.6445 5.4609" fill="#f4a200"/>
  <path d="m81.906 0.67969c-2.332 0-3.9492 0.19531-5.8828 2.1406-1.6914 1.707-1.6562 3.1133-1.6562 5.4609v4.418h17.898v-12.02h-10.359" fill="#ed7d00"/>
  <path d="m69.98 22.438c0.15625 0 2.0664 0.0039 4.3867 0.0039v-14.16c0-2.3516-0.03516-3.7539 1.6562-5.4609l-11.461 11.551c-0.83203 0.80859-1.3516 1.9414-1.3516 3.1992 0 1.2617 0.52734 2.4023 1.3672 3.2109 1.6875 1.6914 3.0781 1.6562 5.4023 1.6562" fill="#f4a200"/>
  <path d="m89.945 30.082c0-2.3516 0.04688-3.7539-1.6445-5.4609l-0.03125-0.03125c-1.9336-1.9492-2.8438-2.1406-5.1758-2.1406-0.96094 0-12.723-0.01172-13.113-0.01172-2.3281 0-3.7227 0.03516-5.418-1.6719l11.461 11.555c1.9336 1.9453 4.4922 2.1406 5.4531 2.1406 0.50391 0 4.9648 0.0039 8.4688 0.0039z" fill="#ed7d00"/>
  <path d="m88.27 54.121c1.6914-1.707 1.6758-3.1133 1.6758-5.4648v-4.418h-17.836l-11.93 12.023h22.207c2.3281 0 3.9492-0.19531 5.8828-2.1406" fill="#ed7d00"/>
  <path d="m54.867 22.27c0-2.9492-2.375-5.3438-5.3086-5.3438-2.9297 0-5.3047 2.3945-5.3047 5.3438h-0.0039v6.2852h10.617z" fill="#ed7d00"/>
  <path d="m44.254 50.383c0 2.9531 2.375 5.3477 5.3047 5.3477 2.9336 0 5.3086-2.3945 5.3086-5.3477v-6.2852h-10.617v6.2852z" fill="#ed7d00"/>
  <path d="m64.652 30.133-10.559-10.645c0.47656 0.78516 0.75391 1.7031 0.77344 2.6836v2.6602l0.0039 11.496-0.0039 10.602v3.5703c-0.02344 0.97656-0.30078 1.8867-0.77344 2.6641l10.559-10.641s2.1406-2.2109 2.1406-6.1953c0-3.9883-2.1406-6.1953-2.1406-6.1953" fill="#f4a200"/>
  <path d="m44.254 50.383v-2.5586l-0.0039-11.496v-14.059h0.0039v-0.11719c0.01953-0.97266 0.30078-1.8828 0.77344-2.6641l-10.559 10.645s-2.1406 2.207-2.1406 6.1953c0 3.9844 2.1406 6.1953 2.1406 6.1953l10.559 10.641c-0.47656-0.78125-0.75781-1.6992-0.77344-2.6836v-0.09766" fill="#f4a200"/>
  <path d="m183.52 106.45h-4.2773v9.6211c0 2.6641-1.375 4.3125-3.4219 4.3125-2.1797 0-3.6055-1.6484-3.6055-4.3125v-9.6211h-4.2773v9.6211c0 5.0195 3.1602 8.2852 7.8828 8.2852 4.6133 0 7.6992-3.2656 7.6992-8.2852zm12.809 4.2109c-2.125 0-3.5547 1.1211-4.4844 2.6914v-2.5078h-4.1523v13.121h4.1523v-4.1055c0-3.3984 1.5781-4.9141 4.4844-4.9141h0.75l0.18359-4.1836c-0.3125-0.0781-0.57031-0.10156-0.93359-0.10156zm12.184-0.21094c-1.6836 0-3.0312 0.52344-4.043 1.4375v-6.7422h-4.1484v18.82h4.1484v-1.0469c1.0117 0.91406 2.3594 1.4375 4.043 1.4375 3.4492 0 6.3516-2.7969 6.3516-6.9531 0-4.1289-2.9023-6.9531-6.3516-6.9531zm-0.85547 10.352c-1.6836 0-3.1875-1.3594-3.1875-3.3984 0-2.0117 1.5039-3.3984 3.1875-3.3984 1.8164 0 3.1367 1.3867 3.1367 3.3984 0 2.0391-1.3203 3.3984-3.1367 3.3984zm24.344-9.957h-4.1484v1.043c-1.0078-0.91406-2.3594-1.4375-4.043-1.4375-3.4492 0-6.3516 2.8242-6.3516 6.9531 0 4.1562 2.9023 6.9531 6.3516 6.9531 1.6836 0 3.0352-0.52344 4.043-1.4375v1.0469h4.1484zm-7.3359 9.957c-1.8164 0-3.1367-1.3594-3.1367-3.3984 0-2.0117 1.3203-3.3984 3.1367-3.3984 1.6875 0 3.1875 1.3867 3.1875 3.3984 0 2.0391-1.5 3.3984-3.1875 3.3984zm19.781-10.352c-1.6328 0-3.0078 0.60156-3.9922 1.6484v-1.2539h-4.1484v13.121h4.1484v-6.0898c0-2.5391 1.0625-3.6602 2.6953-3.6602 1.3242 0 2.2305 1.043 2.2305 2.5859v7.1641h4.1211v-8.0508c0-3.293-2.0195-5.4648-5.0547-5.4648z" fill="#ed7d00"/>
 </g>
</svg>
