<svg width="800" height="386.65" version="1.1" viewBox="0 0 800 386.65" xmlns="http://www.w3.org/2000/svg">
 <g transform="matrix(3.2028 0 0 3.2028 .00032028 -2.1263)" fill-rule="evenodd">
  <path d="m216.25 46.305c0-4.1484-1.543-6.0977-4.0625-8.6016-1.0352-1.0312-10.836-10.777-11.875-11.809-2.5195-2.5039-4.4766-4.0391-8.6484-4.0391-3.6562 0-5.125 1.5352-7.6445 4.0391-0.30469 0.30078-2.0938 2.0859-4.7344 4.707 7.2539 7.2148 20.945 20.832 28.184 28.031 2.6328-2.6172 4.4141-4.3906 4.7188-4.6914 2.5195-2.5039 4.0625-3.9648 4.0625-7.6016" fill="#9cc219"/>
  <path d="m154.38 96.266h4e-3l-0.40234-0.39844z" fill="#ea7902"/>
  <path d="m151.1 58.633c9.875-9.8242 31.773-31.602 32.918-32.738 2.5195-2.5039 3.9844-4.0391 7.6445-4.0391h-24.758c-4.1719 0-6.1289 1.5352-8.6484 4.0391-1.0391 1.0312-10.84 10.777-11.875 11.809-2.5195 2.5039-4.0625 4.4531-4.0625 8.6016v0.03516c0 3.6367 1.543 5.0977 4.0625 7.6016 0.30469 0.30078 2.0859 2.0742 4.7188 4.6914" fill="#d7d225"/>
  <path d="m212.19 53.941c-1.1406 1.1367-23.016 22.891-32.902 32.723 2.6406 2.6289 4.4297 4.4062 4.7344 4.7109 2.5195 2.5039 3.9883 4.0391 7.6445 4.0391 4.1719 0 6.1289-1.5352 8.6484-4.0391l11.875-11.812c2.5195-2.5039 4.0625-4.4531 4.0625-8.6016v-24.621c0 3.6367-1.543 5.0977-4.0625 7.6016" fill="#d7d225"/>
  <path d="m184.02 91.375c-1.4492-1.4414-36.188-35.992-37.637-37.434-2.5195-2.5039-4.0625-3.9648-4.0625-7.6016v24.621c0 4.1484 1.543 6.0977 4.0625 8.6016 1.0352 1.0312 10.84 10.781 11.875 11.812 2.5195 2.5039 4.4766 4.0391 8.6484 4.0391h24.758c-3.6562 0-5.125-1.5352-7.6445-4.0391" fill="#9cc219"/>
  <path d="m139.14 81.164c-1.6406-1.8359-3.9883-2.8867-6.4609-2.8867h-36.141s-10.934 11.859-10.07 15.012c0.07422 0.17969 0.16016 0.35156 0.26172 0.51953 1.2148 1.9844 3.7148 2.457 5.6719 2.457h49.27v-5.4336c0-3.543 0.0508-7.0977-2.5352-9.668z" fill="#9cc219"/>
  <path d="m141.67 90.832v30.555h18.215v-13.875c0-3.5391-0.29297-6.0039-3.2422-8.9375l-17.508-17.41c2.5859 2.5703 2.5352 6.125 2.5352 9.668" fill="#d7d225"/>
  <path d="m127.72 21.855c-14.844 14.77-41.062 40.754-42.828 42.512-2.3789 2.3633-10.207 9.5781-7.5977 13.848 4.0508 6.6172 9.3164 15.387 9.3164 15.387-1.8242-2.5781 9.9258-15.324 9.9258-15.324s38.418-38.332 56.715-56.422z" fill="#d7d225"/>
  <path d="m2.1016 41.547c1.6758 1.6641 3.0547 1.6289 5.3594 1.6289h4.3359v-42.512h-11.797v35.094c0 2.293 0.19141 3.8867 2.1016 5.7891z" fill="#d7d225"/>
  <path d="m26.727 43.176h-19.266c-2.3047 0-3.6836 0.03516-5.3594-1.6289l11.336 11.273c1.9102 1.9023 3.5156 2.0898 5.8203 2.0898h19.273z" fill="#9cc219"/>
  <path d="m88.984 29.359v18.133c0 2.293 0.01563 3.6641-1.6562 5.3281l11.336-11.273c0.82422-0.78906 1.3594-1.8945 1.3594-3.1211 0-1.2422-0.51563-2.3633-1.3594-3.1523l-11.305-11.246c1.6719 1.668 1.625 3.0391 1.625 5.332" fill="#d7d225"/>
  <path d="m81.031 0.66406c-2.3047 0-3.9062 0.1875-5.8164 2.0898-1.6758 1.6641-1.6406 3.0352-1.6406 5.3281v4.3125h17.707v-11.73h-10.25" fill="#9cc219"/>
  <path d="m69.234 21.902h4.3398v-13.82c0-2.293-0.03516-3.6641 1.6406-5.3281l-11.34 11.273c-0.82422 0.78906-1.3398 1.8945-1.3398 3.1211 0 1.2344 0.51953 2.3438 1.3516 3.1328 1.6719 1.6523 3.0508 1.6211 5.3477 1.6211" fill="#d7d225"/>
  <path d="m88.984 29.359c0-2.293 0.04687-3.6641-1.625-5.3281l-0.03125-0.03125c-1.9102-1.9023-2.8125-2.0898-5.1211-2.0898-0.94922 0-12.586-0.01172-12.973-0.01172-2.3047 0-3.6836 0.03516-5.3594-1.6289l11.34 11.273c1.9102 1.9023 4.4414 2.0898 5.3945 2.0898 0.49609 0 4.9102 0.0039 8.375 0.0078z" fill="#9cc219"/>
  <path d="m87.328 52.82c1.6758-1.6641 1.6562-3.0352 1.6562-5.332v-4.3125h-17.645l-11.801 11.734h21.969c2.3047 0 3.9102-0.1875 5.8203-2.0898" fill="#9cc219"/>
  <path d="m54.281 21.738c0-2.8828-2.3477-5.2188-5.25-5.2188-2.8984 0-5.25 2.3359-5.25 5.2188h-0.0039v6.1328h10.508v-6.1328z" fill="#9cc219"/>
  <path d="m43.781 49.176c0 2.8789 2.3516 5.2148 5.25 5.2148 2.9023 0 5.25-2.3359 5.25-5.2148h0.0039v-6.1367h-10.504z" fill="#9cc219"/>
  <path d="m63.961 29.41-10.445-10.391c0.47266 0.76562 0.75 1.6641 0.76562 2.6211 0 0.03125 0.0039 0.0625 0.0039 0.09375v27.441c0 0.03516-0.0039 0.07422-0.0039 0.11328-0.01953 0.95313-0.29688 1.8398-0.76562 2.6016l10.445-10.391s2.1211-2.1523 2.1211-6.043-2.1211-6.0469-2.1211-6.0469" fill="#d7d225"/>
  <path d="m43.781 49.176v-2.5l-0.0039-11.219v-13.719h0.0039v-0.11719c0.01953-0.94922 0.29688-1.8398 0.76562-2.6016l-10.445 10.391s-2.1172 2.1562-2.1172 6.0469 2.1172 6.043 2.1172 6.043l10.445 10.391c-0.47266-0.76562-0.75-1.6602-0.76562-2.6211v-0.09375" fill="#d7d225"/>
  <path d="m166.19 103.89v17.094h6.7969c5.6719 0 9.4141-3.4688 9.4141-8.5469 0-5.0742-3.7422-8.5469-9.4141-8.5469zm4.2344 13.445v-9.7969h2.4102c3.207 0 5.3086 1.9414 5.3086 4.8984 0 2.9609-2.1016 4.8984-5.3086 4.8984zm29.191-9.1562h-4.1055v1.0195c-1-0.89453-2.3359-1.4023-4.0039-1.4023-3.4102 0-6.2852 2.7539-6.2852 6.7852 0 4.0547 2.875 6.7852 6.2852 6.7852 1.668 0 3.0039-0.51172 4.0039-1.4023v1.0195h4.1055zm-7.2617 9.7188c-1.793 0-3.1055-1.3281-3.1055-3.3164 0-1.9648 1.3125-3.3164 3.1055-3.3164 1.668 0 3.1562 1.3516 3.1562 3.3164 0 1.9883-1.4883 3.3164-3.1562 3.3164zm19.57-10.102c-1.6133 0-2.9727 0.58594-3.9492 1.6055v-1.2227h-4.1055v12.805h4.1055v-5.9453c0-2.4727 1.0508-3.5703 2.668-3.5703 1.3086 0 2.207 1.0195 2.207 2.5273v6.9883h4.0781v-7.8555c0-3.2148-2-5.332-5.0039-5.332zm15.262 10c-1.8438 0-3.0781-1.3281-3.0781-3.2148 0-1.8633 1.2344-3.2148 3.0781-3.2148 1.3086 0 2.3594 0.71484 2.7188 2.2695l3.8477-0.91797c-0.71875-3.0117-3.4375-4.9219-6.5664-4.9219-3.8477 0-7.0273 2.7539-7.0273 6.7852 0 4.0547 3.1797 6.7852 7.0273 6.7852 3.207 0 5.9258-1.9648 6.5664-5l-3.7695-0.81641c-0.4375 1.5547-1.4883 2.2461-2.7969 2.2461zm22.598-3.2148c-0.0781-4.1836-3-6.7852-6.6406-6.7852-3.7461 0-6.8242 2.7539-6.8242 6.7852 0 4.0547 3.0781 6.7852 6.7969 6.7852 2.9492 0 5.2852-1.3008 6.3867-4.0039l-3.6445-0.74219c-0.69141 1.25-1.793 1.4805-2.7422 1.4805-1.3867 0-2.4375-0.94531-2.7695-2.4766h9.4375zm-6.6406-3.4688c1.1758 0 2.2031 0.63672 2.5898 2.0156h-5.3125c0.38672-1.3008 1.5664-2.0156 2.7227-2.0156z" fill="#9cc219"/>
 </g>
</svg>
