<svg width="800" height="465" version="1.1" viewBox="0 0 800 465" xmlns="http://www.w3.org/2000/svg">
 <g transform="matrix(.1876 0 0 .1876 -349.86 -191.91)" fill="#00ff8e">
  <g transform="scale(4.1667)" fill="#00ff8e">
   <path d="m574.75 570.37h-65.261c-2.401 0-4.348 1.946-4.348 4.349v143.57h1e-3c0 24.982-18.58 45.619-42.673 48.859-3.238 0.142-6.362 0.514-10.424 0.388-2.747-0.085-4.872 2.398-4.395 5.105l11.472 64.167c0.373 2.116 2.235 3.644 4.384 3.594 4.016-0.083 16.82-1.777 19.921-2.623 55.754-11.197 95.672-59.859 95.672-119.49v-143.57c0-2.403-1.947-4.349-4.349-4.349zm766.67-21.461c2.03-0.048 4.09-0.095 6.36-0.095 69.07 0 124.86-56.8 123.23-126.24-1.54-65.388-54.87-118.72-120.26-120.26-69.43-1.633-126.23 54.163-126.23 123.23v194.91c0 2.401 1.95 4.348 4.35 4.348h65.26c2.4 0 4.35-1.947 4.35-4.348v-193.89c0-26.866 21.06-49.577 47.92-50.313 27.86-0.763 50.69 21.596 50.69 49.288 0 27.229-22.08 49.302-49.31 49.302-0.03 0-10.9 0.461-17.83 0.247-2.75-0.085-4.87 2.397-4.4 5.105l11.48 65.107c0.38 2.118 2.24 3.645 4.39 3.595zm-835.01-7.065c28.549 0 53.431-23.145 53.431-51.693 0-28.551-23.142-51.692-51.692-51.692-28.548 0-51.692 23.141-51.692 51.692 0 28.548 21.404 51.693 49.953 51.693zm221.38 151.71c66.557 0 120.79-52.75 123.18-118.72 0.091-2.475-1.879-4.54-4.354-4.54h-65.355c-2.287 0-4.145 1.776-4.331 4.058-2.063 25.331-23.277 45.247-49.141 45.247-27.23 0-49.305-22.075-49.305-49.305v-69.531c0-2.401-1.946-4.349-4.348-4.349h-65.261c-2.402 0-4.349 1.948-4.349 4.349v69.61h2e-3c0.043 68.039 55.211 123.18 123.26 123.18zm483.01-401.11c3.06 0.019 6.13-6e-3 9.2 0.074 1.9 0.049 3.25 1.231 3.65 3.063 0.13 0.584 0.18 1.196 0.18 1.796 0.01 8.791 0 17.582 0.03 26.372 0 0.291 0.22 0.735 0.46 0.831 0.29 0.117 0.71-0.016 1.04-0.127 0.19-0.064 0.32-0.299 0.48-0.46 4.99-5.159 9.94-10.375 15.01-15.463 4.25-4.272 8.87-8.126 14.15-11.121 3.51-1.993 7.2-3.439 11.28-3.753 0.5-0.039 1-0.135 1.5-0.203v-12.617c-0.23-0.042-0.47-0.126-0.7-0.12-1.39 0.032-2.78 0.043-4.16 0.138-2.91 0.2-5.76 0.69-8.49 1.783-5.87 2.356-10.97 5.889-15.56 10.194-0.27 0.251-0.54 0.498-0.93 0.855v-0.606c0-1.812 0.02-3.624-0.01-5.436-0.06-3.616-2.15-5.721-5.74-5.733-7.28-0.024-14.56-9e-3 -21.83-8e-3 -0.15 0-0.31 0.019-0.48 0.029v10.512c0.34 0 0.63-2e-3 0.92 0zm-16.51-46.932c-7.03 0.086-14.06 0.024-21.09 0.024h-0.77v10.59h1.24c2.8 2e-3 5.6-0.026 8.4 0.017 2 0.031 3.39 1.154 3.84 3.02 0.12 0.516 0.18 1.06 0.18 1.592 0.01 9.686 0 19.373 0 29.058 0 0.185-0.03 0.369-0.05 0.609-12.93-13.401-34.43-11.984-45.89-1.595-12.77 11.574-15.04 29.371-6.73 43.147h15.72c-0.25-0.394-0.49-0.793-0.75-1.184-2.47-3.767-4.42-7.753-5.24-12.223-0.75-4.064-0.72-8.065 0.72-12.015 3.28-9.056 12.7-14.415 22.17-12.61 3.82 0.728 7.27 2.299 10.29 4.654 6.12 4.777 12.12 9.703 18.15 14.587 1.5 1.211 2.91 2.528 4.4 3.74 0.28 0.223 0.79 0.298 1.15 0.218 0.2-0.046 0.43-0.544 0.43-0.838 0.02-8.791 0.02-17.583 0.02-26.374 0-12.728-0.05-25.458 0.03-38.185 0.03-4.309-2.54-6.278-6.22-6.232zm-185.04 47.002c1.96 0.056 3.26 1.2 3.66 3.116 0.13 0.628 0.17 1.285 0.17 1.928 0.02 8.634 0.03 17.267 0.04 25.901 0 0.429-0.05 0.896 0.45 1.082 0.52 0.187 0.96 0.046 1.32-0.392 0.22-0.277 0.49-0.52 0.74-0.779 6.73-7.059 13.41-14.17 20.51-20.875 2.38-2.245 4.84-4.391 7.62-6.129 3.22-2.004 6.65-3.159 10.5-2.654 3.51 0.462 6.08 2.173 7.2 5.64 0.35 1.091 0.57 2.267 0.59 3.41 0.09 3.375 0.05 6.754 0.06 10.131 0 1.208-0.01 2.418 0.06 3.622 0.01 0.289 0.28 0.716 0.52 0.8 0.29 0.098 0.69-0.084 1.02-0.202 0.15-0.054 0.25-0.248 0.38-0.377 3.85-3.991 7.67-8.018 11.57-11.963 2.87-2.894 5.83-5.694 9.27-7.93 3.47-2.264 7.19-3.675 11.44-3.128 1.76 0.226 3.39 0.761 4.74 1.991 2 1.821 2.67 4.219 2.73 6.768 0.12 4.628 0.08 9.258 0.1 13.888 0.01 0.28 0 0.561 0 0.846h14c0.01-0.154 0.03-0.262 0.03-0.369-0.01-5.078 0.06-10.157-0.04-15.233-0.07-3.756-0.99-7.339-2.92-10.601-3.6-6.107-8.98-9.462-16.03-10.179-2.81-0.285-5.58-0.069-8.35 0.413-6.2 1.084-11.68 3.696-16.42 7.827-1.09 0.946-2.03 2.064-2.98 3.052-0.19-0.075-0.22-0.078-0.22-0.092-0.11-0.243-0.23-0.485-0.33-0.73-2.18-5.1-5.95-8.391-11.31-9.82-5.12-1.364-10.15-0.905-15.07 0.929-6.29 2.342-11.64 6.131-16.48 10.705-0.18 0.172-0.37 0.339-0.68 0.631 0-2.304 0.02-4.404-0.01-6.504-0.04-3.144-2.2-5.309-5.34-5.32-7.42-0.027-14.83-0.02-22.238-0.024-0.149 0-0.297 0.03-0.462 0.047v10.504c0.677 0 1.32-4e-3 1.96 0 2.73 0.018 5.47-8e-3 8.2 0.07zm63.58 71.177c-33.61 0-64.05 13.463-86.287 35.268-22.235-21.805-52.682-35.268-86.285-35.268-68.075 0-123.26 55.188-123.26 123.26v55.344c0 2.402 1.946 4.35 4.348 4.35h65.261c2.401 0 4.349-1.948 4.349-4.35v-55.344c0-27.23 22.074-49.304 49.304-49.304 27.232 0 49.306 22.074 49.306 49.304h7e-3v55.287c0 2.401 1.949 4.35 4.349 4.35h65.26c2.4 0 4.35-1.949 4.35-4.35l-0.06-55.287s0.12-2.836 0.22-4.06c2.06-25.33 23.27-45.244 49.14-45.244 27.23 0 49.3 22.074 49.3 49.304v55.344c0 2.402 1.95 4.35 4.35 4.35h65.26c2.4 0 4.35-1.948 4.35-4.35v-55.344c0-68.075-55.19-123.26-123.26-123.26z" fill="#00ff8e"/>
  </g>
 </g>
</svg>
