<svg id="a" version="1.1" viewBox="0 0 164.8 71.3" xml:space="preserve" xmlns="http://www.w3.org/2000/svg">
<g id="b" transform="translate(-14,-14.2)">
	<path id="c" d="m35.9 85-10.8-13.5v13.5h-6.3v-28.3h6.3v12.2l10.2-12.2h7.4l-11.9 13.3 13 15.1h-7.9zm23.3 0.5c-6.9 0-11.9-3.6-11.9-10.9v-17.9h6.3v17.7c0 3.7 1.7 6.5 5.7 6.5s5.8-2.8 5.8-6.5v-17.7h6.3v17.7c-0.1 7.3-5.3 11.1-12.2 11.1zm19.5-0.5v-28.3h6.3v23.3h12.2v5zm32-23.3v23.3h-6.3v-23.3h-8.9v-5h24.1v5zm25.8 23.8c-6.9 0-11.9-3.6-11.9-10.9v-17.9h6.3v17.7c0 3.7 1.7 6.5 5.7 6.5s5.8-2.8 5.8-6.5v-17.7h6.3v17.7c-0.1 7.3-5.4 11.1-12.2 11.1zm35.5-0.5-2.9-8.1c-1-2.8-1.6-3.6-4.7-3.6h-2.3v11.7h-6.2v-28.3h11.6c4.8 0 9.6 1.9 9.6 7.5 0 3.9-2.9 6.2-6.5 6.9 2.5 0.5 3.6 1.8 4.5 4.2l3.7 9.7h-6.8zm-6.9-24.1h-3v8.2h2.8c2.9 0 5.9-0.9 5.9-4.3 0-3.3-2.7-3.9-5.7-3.9zm-127.4-31.4c0.9-1 3.7-3.8 8.4-3.8 2.6 0 4.8 1.3 6 3.4 0.6 1.1 1 2.4 1 4.1v4.4h-4.6v-4.2c0-0.9-0.1-1.4-0.3-1.9-0.4-1.2-1.4-1.7-2.8-1.7-2.1 0-3.9 1.5-5.4 2.9s-3.6 3.6-4.7 4.8c-0.1 0.1-0.2 0.2-0.4 0.1-0.1 0-0.2-0.1-0.2-0.3v-4.1c0-2.3-1.2-3.4-3.2-3.4-2.3 0-4.3 1.8-6.6 4.1-1.8 1.8-3.4 3.5-5.7 5.9-0.1 0.1-0.2 0.2-0.4 0.1-0.1 0-0.2-0.1-0.2-0.3v-8.7c0-0.9-0.4-1.5-1.5-1.5h-3.1v-3.4h7.2c1.2 0 1.9 0.7 1.9 1.9v2s4.1-4.3 8.5-4.3c4.1 0.1 5.6 2.4 6.1 3.9zm29.9-3.8c-7.6 0-11.1 6.5-11.1 10.7 0 3 0.8 4.8 1.6 6.1h5.1c-0.9-1.4-2.1-3.3-2.1-6.1 0-3.4 2.7-6.5 6.5-6.5 2.9 0 4.9 1.9 6.1 2.8 1.7 1.4 4.5 3.6 5.8 4.8 0.1 0.1 0.2 0.2 0.4 0.1 0.1 0 0.2-0.1 0.2-0.3v-21.2c0-1.2-0.7-1.9-1.9-1.9h-7.2v3.4h3c1.1 0 1.5 0.6 1.5 1.5v9.8c-2.7-2.6-5.6-3.2-7.9-3.2zm24.7 4.3v-2c0-1.2-0.7-1.9-1.9-1.9h-7.2v3.4h3.1c1.1 0 1.5 0.6 1.5 1.5v8.7c0 0.2 0 0.3 0.2 0.3 0.1 0 0.3 0 0.4-0.1 1-1.1 3.4-3.7 5-5.2 3.5-3.4 6.3-4.9 8.8-4.9v-4.2c-3.1 0-4.2 0.5-6 1.4-1.5 0.9-3.1 2.1-3.9 3z" fill="#fcaf17"/>
</g>
</svg>
