<svg enable-background="new 0 0 131 2937" version="1.1" viewBox="0 0 800 571.7" xml:space="preserve" xmlns="http://www.w3.org/2000/svg">
<path d="m711.52 192.44c-30.753-96.246-58.966-192.42-80.9-192.42-24.981 0-50.829 69.878-75.253 150 4.4835 13.946 9.0288 28.176 13.735 42.419 22.838 69.407 61.827 192.48 61.827 192.48h142.08s-30.814-96.394-61.493-192.48z" stroke-width="12.385"/><path d="m630.63 0.02477h-149.38c-23.681 0-57.282 111.74-89.347 214.92-27.111 87.279-53.182 168.24-71.178 169.96-0.21055 0.0124-0.38394 0.13623-0.5821 0.13623h149.4c22.417 0 52.885-126.82 85.83-234.95 24.448-80.219 50.296-150.07 75.253-150.07z" fill="#e87825" stroke-width="12.385"/><path d="m391.89 214.92c-31.508-102.83-64.552-214.92-88.344-214.92h-149.33c24.956 0 50.804 69.915 75.228 150.08 32.957 108.09 63.4 234.81 85.854 234.81l5.4247-0.0867c17.983-1.6472 44.017-82.622 71.166-169.89z" stroke-width="12.385"/><path d="m154.17 0.02477c-21.934 0-50.148 96.246-80.851 192.44-30.703 96.06-61.493 192.48-61.493 192.48h142.02s38.976-123.1 61.852-192.48c4.6692-14.193 9.2518-28.437 13.71-42.358-24.436-80.194-50.284-150.08-75.24-150.08z" fill="#a6a6a6" stroke-width="12.385"/><polygon transform="matrix(12.385 0 0 12.385 -7.9018 -6.7376)" points="5.819 46.539 4.744 46.539 2.281 40.78 2.281 46.539 0.638 46.539 0.638 37.043 2.413 37.043 5.307 44.028 8.197 37.043 9.974 37.043 9.974 46.539 8.305 46.539 8.305 40.758"/><path d="m193.88 519.07c-1.3128-13.091-9.0412-23.359-22.479-23.359-12.435 0-21.166 9.5738-23.012 23.359zm-19.829 36.004c9.9206 0 16.98-3.7032 24.027-10.577l11.927 10.577c-8.4344 10.057-20.002 16.633-36.326 16.633-25.675 0-45.541-18.652-45.541-46.185 0-25.538 17.971-46.346 43.348-46.346 28.214 0 42.543 22.17 42.543 47.857 0 1.8082-0.19816 3.5298-0.3344 5.4867h-65.233c2.4027 14.454 12.484 22.554 25.588 22.554z" stroke-width="12.385"/><polygon transform="matrix(12.385 0 0 12.385 -7.9018 -6.7376)" points="18.939 36.639 20.583 36.639 20.583 46.539 18.939 46.539"/><path d="m306.19 496.9c-16.299 0-26.715 12.757-26.715 28.387 0 15.804 11.258 28.746 27.087 28.746 16.46 0 26.876-12.769 26.876-28.412-0.0248-15.729-11.283-28.721-27.248-28.721zm0 74.77c-27.074 0-47.064-20.659-47.064-46.048 0-25.538 20.163-46.544 47.398-46.544 27.186 0 47.213 20.659 47.213 46.185 0.0124 25.464-20.151 46.408-47.547 46.408z" stroke-width="12.385"/><path d="m410.97 496.76c-13.933 0-25.538 10.75-25.538 28.585 0 17.451 11.716 28.622 25.538 28.622 13.611 0 25.699-11.271 25.699-28.622 0.0124-17.339-12.088-28.585-25.699-28.585zm25.365 72.9v-14.738c-6.5022 9.2394-15.742 16.646-30.208 16.646-20.869 0-41.169-16.646-41.169-46.197 0-29.588 19.99-46.185 41.169-46.185 14.627 0 23.866 7.3816 30.208 15.618v-47.733h20.374v122.61z" stroke-width="12.385"/><path d="m476.04 469.72 17.81-27.607 18.491 8.2238-20.51 19.346zm-1.35 99.937v-88.703h20.337v88.703z" stroke-width="12.385"/><path d="m567.75 532c-6.527-2.3284-13.401-3.4926-20.324-3.4555-12.782 0-20.386 5.2018-20.386 14.218v0.32201c0 8.4344 7.555 13.128 17.141 13.128 13.438 0 23.507-7.5055 23.507-18.665zm-0.50779 37.664v-10.936c-6.0316 7.233-15.271 12.769-28.709 12.769-16.77 0-31.595-9.5738-31.595-27.396v-0.32201c0-19.16 15.296-28.585 35.954-28.585 10.75 0 17.637 1.511 24.51 3.7032v-2.1922c0-12.249-7.7284-18.974-21.848-18.974-9.9082 0-17.302 2.1922-25.377 5.5238l-5.5362-16.274c9.7224-4.3844 19.321-7.4188 33.775-7.4188 26.207 0 38.964 13.748 38.964 37.428v52.6z" stroke-width="12.385"/><path d="m645.53 467.34c-5.9202 0-9.2394 3.022-9.2394 9.7472v3.5174h20.671v20.857h-20.337v68.23h-25.538v-68.23h-10.577v-20.993h10.577v-5.7344c0-19.829 9.9206-28.895 27.892-28.895 8.0752 0 13.438 1.0032 18.169 2.5142v21.179c-3.7032-1.4367-7.6417-2.1798-11.617-2.1922z" fill="#e87825" stroke-width="12.385"/><path d="m774.42 569.66v-50.259c0-12.113-5.3876-18.318-14.961-18.318-9.549 0-15.457 6.2422-15.457 18.318v50.259h-25.538v-50.259c0-12.113-5.3876-18.318-14.961-18.318-9.5614 0-15.444 6.2422-15.444 18.318v50.259h-25.551v-90.053h25.538v12.782c5.883-7.5426 13.611-14.466 26.542-14.466 11.778 0 20.708 5.2266 25.402 14.243 7.9142-9.2394 17.29-14.243 29.588-14.243 18.999 0 30.418 11.432 30.418 33.106v58.607z" fill="#e87825" stroke-width="12.385"/>
</svg>
