<svg id="a" version="1.0" viewBox="0 0 131.04 179.95" xmlns="http://www.w3.org/2000/svg">
 <g id="b" transform="matrix(.31642 0 0 .31642 -53.443 122.74)" fill="#043c9d">
  <path id="c" d="m168.9 67.567v47.514h10.259v-37.615l10.259 37.615h7.5591l10.799-37.615v37.615h10.259v-47.514h-16.198l-8.279 30.596-7.739-30.596z"/>
  <path id="d" d="m225.05 67.567v47.514h28.256v-8.279h-17.458v-12.058h15.838v-8.279h-15.838v-10.619h16.558v-8.279z"/>
  <path id="e" d="m255.11 67.567v8.6389h10.439v38.875h11.159v-38.875h10.259v-8.6389z"/>
  <path id="f" d="m454.52 67.567v47.514h26.997v-8.4589h-15.658v-39.055z"/>
  <path id="g" d="m503.12 67.567v47.514h10.799v-19.798h14.938v-8.4589h-14.938v-10.979h15.658v-8.279z"/>
  <path id="h" d="m534.07 67.567v47.514h10.259v-37.615h0.17997l10.259 37.615h7.3791l10.619-37.615v37.615h10.259v-47.514h-16.018l-8.279 30.596-7.739-30.596z"/>
  <path id="i" d="m347.98 74.767c6.4287-5.8e-5 8.8189 7.3431 8.8189 16.558-6e-5 9.2148-2.3901 16.558-8.8189 16.558-6.6376 6e-5 -8.6389-7.3431-8.6389-16.558 6e-5 -9.2148 2.0014-16.558 8.6389-16.558zm0-8.099c-13.714-5.7e-5 -19.978 10.734-19.978 24.657 6e-5 13.93 6.2632 24.657 19.978 24.657 13.714 0 20.157-10.727 20.157-24.657-6e-5 -13.923-6.4432-24.657-20.157-24.657z"/>
  <path id="j" d="m428.61 74.767c6.6448-5.8e-5 8.8189 7.3431 8.8189 16.558 0 9.2148-2.1741 16.558-8.8189 16.558-6.4216 6e-5 -8.6389-7.3431-8.6389-16.558-6e-5 -9.2148 2.2173-16.558 8.6389-16.558zm0-8.099c-13.707-5.7e-5 -20.157 10.734-20.157 24.657-6e-5 13.93 6.4504 24.657 20.157 24.657 13.714 0 20.337-10.727 20.337-24.657-6e-5 -13.923-6.6232-24.657-20.337-24.657z"/>
  <path id="k" d="m301.36 75.666h3.4196c5.9968-5.8e-5 6.6592 3.9739 6.6592 6.1192 0 3.2109-2.1957 6.1192-6.4792 6.1192h-3.5996zm-10.799-8.099v47.514h11.159v-19.258c4.0746 0 5.6297 0.0144 7.5591 6.6592l3.5996 12.599h11.879l-5.0394-15.658c-1.7134-5.5722-3.2324-7.4943-6.6592-7.919 9.2148-1.9294 9.5388-9.7692 9.5388-11.699 6e-5 -8.7829-6.6808-12.238-14.398-12.238z"/>
  <path id="l" d="m384.69 75.846h3.0596c4.2907-5.8e-5 6.6592 1.9438 6.6592 6.6592 5e-5 4.4994-2.6925 6.8391-6.1192 6.8391h-3.5996zm-10.619-8.2805v47.516h10.979v-17.278h5.3993c10.503 0 15.118-7.0119 15.118-14.938 6e-5 -10.287-6.3064-15.298-16.378-15.298z"/>
 </g>
 <g id="m" transform="matrix(1.0357 0 0 1.0357 -18.349 -18.346)">
  <path id="n" d="m80.169 17.714c-29.567 0-54.526 19.79-62.452 46.794h16.018c7.2855-23.361 31.82-39.955 54.533-39.955 22.497 0 37.227 9.3012 47.514 24.297-11.353-18.854-32.252-31.136-55.613-31.136z" fill="#043c9d"/>
  <path id="o" d="m125.16 115.08c-9.6468 18.214-29.761 30.236-50.754 30.236-20.791 0-37.191-9.4813-47.694-24.477 11.569 18.854 32.223 31.496 55.793 31.496 26.14 0 48.709-15.183 59.213-37.255z" fill="#043c9d"/>
  <path id="p" d="m90.067 29.592c-25.283 0-46.744 16.846-53.813 39.775h-14.038c-1.7134 5.3561-2.6996 10.921-2.6997 16.918 0 6.4288 1.1303 12.354 3.0596 18.358 29.999-0.21598 36.039-54.641 50.394-55.073 16.076-0.42475 7.6814 51.934 13.678 51.294 5.9969-0.64072 18.343-43.519 29.696-43.735 10.928-0.21597 3.6787 32.425 27.897 26.637-0.64792-19.07-10.741-35.722-25.737-46.434-8.3582-4.9314-18.149-7.7391-28.436-7.739z" fill="#f00a4a"/>
  <path id="q" d="m72.43 67.927c-6.6448 1.0726-17.998 46.701-40.495 53.993 0.43195 0.64066 0.86389 1.195 1.0799 1.6198 10.288 10.496 24.635 17.098 40.495 17.098 21.424 0 40.063-12.267 49.494-30.056h15.838c1.0654-2.3614 2.2317-4.629 2.8796-7.1991-24.643 2.1454-21.417-27.681-25.917-27.897-6.4288-0.21597-17.991 43.526-30.416 43.735-12.433 0.21598-5.6729-52.366-12.958-51.294z" fill="#f00a4a"/>
 </g>
 <g id="r" transform="matrix(.49991 0 0 .49991 -184.01 102.9)" fill="#f00a4a">
  <path id="s" d="m454.7 121.92v24.837h4.1395v-8.279l5.2194 8.279h4.6794l-6.4792-9.3588 5.9392-7.559h-4.4994l-4.8594 6.6592v-14.578z"/>
  <path id="t" d="m428.61 123.36v3.5996h3.2396v-3.5996z"/>
  <path id="u" d="m434.18 123.36v3.5996h3.2396v-3.5996z"/>
  <path id="v" d="m420.51 124.98-4.1395 1.2598v3.5996h-2.6997v3.0596h2.6997v9.1789c-6e-5 3.6355 1.6774 5.0394 4.6794 5.0394 1.2814 5e-5 2.2461-0.33116 2.8796-0.53994v-2.8796c-0.20878 0.20884-0.7919 0.35996-1.4398 0.35996-1.2814 0-1.9798-0.62632-1.9798-2.3397v-8.8189h3.4196v-3.0596h-3.4196z"/>
  <path id="w" d="m451.46 129.48c-2.5701 0-3.7147 2.1381-4.1395 3.4196h-0.35995c-6e-5 -1.0727 0-2.2029 0-3.0596h-3.7795c0.21597 0.64066 0.17998 1.807 0.17998 2.8796v14.038h4.1395v-9.3588c0-2.9948 1.879-4.1395 3.5996-4.1395 0.42475-6e-5 0.65512 0.14398 1.0799 0.35995v-3.9595c-0.20878-6e-5 -0.50394-0.17998-0.71991-0.17998z"/>
  <path id="x" d="m478.82 129.48c-5.7808 0-8.279 4.1107-8.279 8.8189-6e-5 4.2907 1.7926 7.9622 6.2992 8.8189l-0.89988 2.5197 0.71991 0.71991c0.21603-0.21591 0.61912-0.35995 1.2598-0.35995 0.85669-6e-5 1.4398 0.40315 1.4398 1.2598-6e-5 0.64786-0.54713 1.4398-1.6198 1.4398-1.0654 6e-5 -1.699-0.32396-2.3397-0.53993l-0.71991 1.2598c0.64072 0.42469 2.1021 0.71991 3.5996 0.71991 1.4974 0 3.7795-0.91429 3.7795-3.0596 6e-5 -1.4975-1.1303-2.3397-3.0596-2.3397-0.42474-5e-5 -0.82789 0-1.2598 0l0.53993-1.6198h0.35996c1.7134 5e-5 2.8868-0.29517 3.9595-0.71991l-0.17997-3.2396c-0.64072 0.43189-1.987 0.89989-3.0596 0.89989-3.2109 0-4.6794-2.5773-4.6794-5.5793 0-3.6428 1.4974-5.7593 4.4994-5.7593 1.0727 0 2.2101 0.46794 3.0596 0.89988l0.17998-3.2396c-0.8567-0.42469-2.3109-0.89989-3.5996-0.89989z"/>
  <path id="y" d="m518.05 129.48c-2.57 0-3.8947 2.1381-4.3195 3.4196 6e-5 -1.0727-0.17998-2.2029-0.17998-3.0596h-3.7795c-6e-5 0.64066 0 1.807 0 2.8796v14.038h4.1395v-9.3588c0-2.9948 1.879-4.1395 3.5996-4.1395 0.42469-6e-5 0.86389 0.14398 1.0799 0.35995v-3.9595c-0.21597-6e-5 -0.32396-0.17998-0.53993-0.17998z"/>
  <path id="z" d="m426.27 129.84v10.979c0 3.4268 1.3678 6.2992 5.2194 6.2992 2.5773 5e-5 3.6356-1.591 4.4994-2.8796 6e-5 0.85663 0.17998 1.663 0.17998 2.5197h3.7795c-0.21603-0.85675-0.17997-1.627-0.17997-2.6997v-14.218h-4.1395v9.7188c-5e-5 2.1453-0.56153 4.1395-2.6997 4.1395-1.7134 6e-5 -2.5197-1.2094-2.5197-3.7795v-10.079z"/>
  <path id="aa" d="m553.33 129.84 5.5793 17.278-0.17997 1.2598c-0.42469 1.9222-1.0583 2.5197-2.3397 2.5197-0.64066 0-1.1878-0.14398-1.6198-0.35995l-0.17998 3.2396c0.64792 0.20884 1.447 0.35996 2.5197 0.35996 2.786 0 4.1827-1.7782 5.0394-4.1395l6.1192-20.157h-3.9595l-3.2396 12.958-3.4196-12.958z"/>
  <path id="ab" d="m491.42 132.36c1.9294 6e-5 2.6997 1.5046 2.6997 4.4994h-5.7593c-5e-5 -2.1381 0.92149-4.4994 3.0596-4.4994zm0-2.8796c-4.2835 0-7.0191 4.0747-7.0191 8.9989 6e-5 4.7154 2.3541 8.6389 7.919 8.6389 2.3614 5e-5 4.1827-0.64792 5.0394-1.0799l-0.17998-3.2396c-0.85669 0.64792-1.9294 1.2598-4.4994 1.2598-3.2108 0-4.3195-1.6774-4.3195-4.6794h9.8988v-0.71991c0-7.0696-3.1964-9.1788-6.8392-9.1788z"/>
  <path id="ac" d="m544.15 132.54c2.3614 6e-5 3.2396 2.5485 3.2396 5.7593 6e-5 3.218-0.87829 5.7593-3.2396 5.7593-2.354 0-3.0596-1.8934-3.0596-5.7593 0-3.4268 0.92149-5.7593 3.0596-5.7593zm3.2396-10.619v10.439c-0.64066-1.2814-1.9294-2.8796-4.4994-2.8796-3.6427 0-5.7593 3.254-5.7593 8.8189 5e-5 4.7154 1.6486 8.8189 5.9392 8.8189 2.5701 5e-5 3.8515-1.591 4.4994-2.8796 0 1.0726 0.17998 2.0949 0.17998 2.5197h3.7795c-0.21603-0.64078-0.17998-1.591-0.17998-2.8796v-21.957z"/>
  <path id="ad" d="m576.19 132.54c0.26366-0.0875 0.57864 0 0.89989 0 2.5701 6e-5 3.2396 2.9804 3.2396 5.7593 0 2.7932-0.66952 5.9393-3.2396 5.9393-2.5701-6e-5 -3.2396-3.146-3.2396-5.9393-6e-5 -2.4314 0.49391-5.1467 2.3397-5.7593zm0.89989-3.0596c-3.4268 0-7.559 1.9654-7.559 8.8189-6e-5 7.0767 4.1323 8.8189 7.559 8.8189 3.4268 5e-5 7.5591-1.7422 7.5591-8.8189 5e-5 -6.8535-4.1323-8.8189-7.5591-8.8189z"/>
  <path id="ae" d="m529.75 138.48h0.17998v1.0799c-6e-5 3.002-0.87829 4.6794-3.2396 4.6794-1.7134-6e-5 -2.5197-1.0223-2.5197-2.5197 0-2.5701 1.9366-3.2396 5.5793-3.2396zm-2.3397-8.9989c-2.5773 0-4.3339 0.8279-5.3993 1.2598l0.17997 3.4196c0.85664-0.64078 2.7141-1.6198 4.8594-1.6198 2.3614 6e-5 2.8796 1.519 2.8796 3.2396v0.53994h-0.53994c-5.3561 0-8.9989 1.0367-8.9989 5.7593 6e-5 3.2107 2.2533 5.0394 5.0394 5.0394 2.354 5e-5 3.6068-1.2022 4.6794-2.6997-5e-5 0.85664 0.14399 1.699 0.35996 2.3397h3.5996c0-0.64078-0.17998-1.591-0.17998-2.8796v-7.559c6e-5 -4.2907-1.1231-6.8392-6.4792-6.8392z"/>
 </g>
</svg>
