<svg space="preserve" version="1.1" viewBox="0 0 800 173.04" xmlns="http://www.w3.org/2000/svg">
 <link href="" rel="stylesheet" type="text/css"/>
 <style type="text/css"/>
 <style type="text/css">.st0{display:none;}
	.st1{fill:#FFFFFF;}
	.st2{clip-path:url(#SVGID_2_);fill:#FFFFFF;}</style>
 <g transform="scale(2.7682)" fill="#fff">
  <path transform="matrix(1.3619 0 0 1.3619 0 -42.492)" d="m77.9 77.1v-45.9h-11.7l-17.9 23.3v-23.3h-13.1l-35.2 45.9h16.9l19-24.7v24.7h10.1l19-24.7v24.7z"/>
  <path transform="matrix(1.3619 0 0 1.3619 0 -42.492)" d="m212.2 77.1-35.2-45.9h-13.1v23.3l-17.9-23.3h-11.7v45.9h12.9v-24.7l19 24.7h10.1v-24.7l19 24.7z"/>
  <path transform="matrix(1.3619 0 0 1.3619 0 -42.492)" d="m114.6 54.5-17.9-23.3h-11.6v45.9h12.8v-24.7l19 24.7h10.1v-45.9h-12.4z"/>
 </g>
</svg>
