<svg version="1.0" viewBox="0 0 566.93 466.68" xmlns="http://www.w3.org/2000/svg">
 <path d="m152.01 0v185.41h23.345v-185.41zm0 185.41h-41.814v122.75l-66.596-122.75-43.596-0.0312v197.1h41.783v-114.88l63.815 114.88h46.408zm0 197.07v84.191h23.313v-84.191z" fill="#fff"/>
 <path d="m354.17 182.66c-45.489 0.26837-67.431 19.749-69.19 70.784v60.909c1.7593 51.05 23.684 70.547 70.128 70.815 45.504-0.26837 67.462-19.78 69.222-70.815v-60.909c-1.7593-51.05-23.716-70.531-70.159-70.784zm-135.51 2.7189v144.51c0 9.7658-2.6202 13.912-15.532 14.344-4.2492 0.13419-27.814-0.9063-27.814-0.90628v39.158s27.849-2e-5 35.751 0c32.846 0 51.533-17.751 51.533-45.408v-151.69zm203.04 0 50.565 132.01v65.096h43.939v-65.096l50.721-132.01h-47.252l-25.001 83.722-25.751-83.722zm-67.065 35.439c21.529 0.64111 25.751 11.077 25.751 37.064v52.033c0 27.001-6.4282 36.245-25.751 37.095-19.308-0.84985-25.72-10.094-25.72-37.095v-52.033c0-25.987 4.2053-36.423 25.72-37.064z" fill="#a0bc00"/>
</svg>
