<svg id="a" class="svgbrand logo_ndrinfospezial" version="1.1" viewBox="0 0 316.68 176.33" xmlns="http://www.w3.org/2000/svg">
 <g id="b" transform="translate(-9.582,-9.719)" fill="#ffc300">
  <polygon id="c" class="subm" points="199.92 139.73 199.92 72.42 188.35 72.42 188.35 139.73"/>
  <path id="d" class="subm" d="m248.73 139.73v-34.578c0-11.027-3.804-15.687-12.816-15.687-4.846 0-9.6 2.289-15.206 6.654l-0.281-5.696h-10.452v49.307h11.116v-36.39c3.989-3.317 7.691-5.126 10.451-5.126 4.08 0 6.079 2.283 6.079 7.695v33.821z"/>
  <path id="e" class="subm" d="m283.96 72.092c-2.751-0.383-5.605-0.757-8.358-0.757-12.073 0-13.962 7.118-13.962 16.339v2.841h-7.418v8.839h7.51v40.377h11.109v-40.474h9.211v-8.832h-9.303v-2.751c0-4.084 0.757-7.984 6.266-7.984 1.334 0 2.854 0.285 4.19 0.669z"/>
  <path id="f" class="subm" d="m305.57 88.755c-15.706 0-21.81 11.479-21.81 25.863 0 15.612 6.484 25.772 20.874 25.772 16.547 0 21.623-11.193 21.623-25.866 1e-3 -16.742-7.047-25.769-20.687-25.769zm-10.341 26.25c0-12.332 2.914-17.508 9.78-17.508 6.867 0 9.776 5.27 9.776 17.122 0 11.949-2.908 17.024-9.776 17.024-6.679 0-9.78-5.267-9.78-16.638z" clip-rule="evenodd" fill-rule="evenodd"/>
 </g>
 <g id="g" transform="translate(-9.582,-9.719)" fill="#036">
  <g id="h">
   <path id="i" class="dm" d="m158.41 92.883c0-6.54-3.525-8.254-9.462-8.254h-9.445v17.313h9.445c5.627 0 9.462-3.217 9.462-9.059zm17.389 46.961h-15.985l-11.97-25.745h-8.046v25.745h-14.876v-67.07h23.433c14.687 0 24.333 4.825 24.333 20.915 0 8.153-3.222 14.686-11.067 17.696z" clip-rule="evenodd" fill-rule="evenodd"/>
   <polygon id="j" class="dm" points="61.255 9.719 61.255 72.774 69.198 72.774 69.198 9.719"/>
   <path id="k" class="dm" d="m103.6 114.91v-17.301c0-8.15-3.712-12.16-11.964-12.16h-7.137v41.724h7.137c8.253 0 11.964-4.113 11.964-12.263zm14.477 1.406c0 16.995-8.829 23.53-25.125 23.53h-23.749v-67.07h23.749c15.676 0 25.125 6.932 25.125 23.317z" clip-rule="evenodd" fill-rule="evenodd"/>
   <polygon id="l" class="dm" points="47.087 72.774 47.087 114.5 24.464 72.774 9.582 72.774 9.582 139.84 23.753 139.84 23.753 100.73 45.482 139.84 61.255 139.84 61.255 72.774"/>
   <polygon id="m" class="dm" points="61.255 139.84 61.255 168.51 69.198 168.51 69.198 139.84"/>
  </g>
  <g id="n">
   <path id="o" class="subm2" d="m93.51 180.21c-4.764 0-7.476-2.006-8.556-6.663l2.832-0.896c0.606 3.185 2.185 5.123 5.799 5.123 2.368 0 5.014-1.146 5.014-3.906 0-3.078-2.969-4.01-5.155-4.938-2.542-1.081-4.979-2.043-6.38-3.835-0.78-1-1.286-2.114-1.286-3.835 0-4.475 3.658-5.974 7.307-5.974 4.408 0 7.015 2.435 7.881 5.974l-2.869 0.757c-0.677-2.579-2.288-4.296-5.154-4.296-2.221 0-4.121 0.929-4.121 3.403 0 2.867 3.581 4.01 5.522 4.871 2.501 1.107 4.937 1.855 6.229 3.76 0.643 0.928 1.034 2.107 1.034 3.689-1e-3 5.005-3.612 6.766-8.097 6.766z"/>
   <path id="p" class="subm2" d="m114.23 179.99c-2.184 0-3.467-0.892-5.154-2.114v8.17h-2.759v-24.856h2.69l0.068 2.185c1.178-1.256 2.794-2.468 5.088-2.468 4.221 0 6.479 3.292 6.479 9.417 1e-3 6.227-2.293 9.666-6.412 9.666zm-0.827-16.829c-1.571 0-2.897 0.863-4.328 2.617v9.844c1.038 1.108 2.716 2.11 4.292 2.11 2.832 0 4.3-2.577 4.3-7.409 0-4.799-1.401-7.162-4.264-7.162z"/>
   <path id="q" class="subm2" d="m131.91 180.13c-5.053 0-7.489-3.507-7.489-9.809 0-6.442 3.221-9.595 7.63-9.595 4.939 0 6.697 4.186 6.697 8.517v1.578h-11.426c0.034 4.871 1.508 7.016 4.622 7.016 2.324 0 3.612-1.428 4.471-3.542l2.476 1.185c-1.117 2.542-3.153 4.65-6.981 4.65zm0.034-17.119c-2.544 0-4.302 1.721-4.622 5.556h8.592c-0.035-3.546-1.611-5.556-3.97-5.556z"/>
   <path id="r" class="subm2" d="m141.63 179.67v-1.897l7.228-11.358c0.647-0.993 1.297-1.964 1.97-2.896-0.926 0.036-1.823 0.074-2.757 0.074h-5.518v-2.403h11.648v2.007l-7.38 11.676c-0.576 0.896-1.185 1.718-1.822 2.539 0.744 0 1.498-0.036 2.247-0.036h7.023v2.292h-12.639z"/>
   <path id="s" class="subm2" d="m157.98 158.65v-3.728h3.146v3.728zm0.216 21.021v-18.479h2.753v18.479z"/>
   <path id="t" class="subm2" d="m176.3 179.67v-2.217c-1.469 1.855-3.084 2.539-5.479 2.539-3.12 0-5.121-2.076-5.121-5.225 0-5.445 6.264-6.409 10.457-6.918v-1.318c0-2.079-1.291-3.55-3.762-3.55-2.899 0-4.26 2.578-4.26 2.578l-2.329-1.432s1.895-3.396 6.658-3.396c4.153 0 6.411 1.929 6.411 5.618v13.322h-2.575zm-0.142-9.812c-2.758 0.325-7.664 1.007-7.664 4.689 0 2.006 1.111 3.227 2.937 3.227 1.649 0 3.185-0.467 4.728-2.759v-5.157z"/>
   <path id="u" class="subm2" d="m184.59 179.67v-24.749h2.764v24.749z"/>
  </g>
 </g>
</svg>
