<svg id="a" version="1.0" viewBox="0 0 708.66 540.19" xmlns="http://www.w3.org/2000/svg">
 <path id="b" d="m597.78 257.81h-30.95v-30.152l3.6693-0.63843c14.358-2.8716 22.335-6.5409 27.6-10.689 2.8716-2.2336 5.1052-4.467 7.1791-7.0197 2.2336-2.7121 4.3075-5.5838 6.7006-8.615l1.2769-1.755h29.036v173.89h31.269v37.97h-107.21v-37.97h31.429v-115.03" fill="#009d9f"/>
 <g id="c" fill="#173e7d">
  <g id="d">
   <path id="e" d="m523.6 409.85h-50.414l-37.651-81.044h-25.366v81.044h-46.904v-211.23h73.865c46.106 0 76.578 15.156 76.578 65.888 0 25.526-10.051 46.106-34.779 55.678zm-54.881-147.89c0-20.58-11.008-26.004-29.833-26.004h-29.674v54.402h29.674c17.868 0 29.833-10.051 29.833-28.398" fill-rule="evenodd"/>
   <path id="f" d="m162.73 198.62h25.047v-198.62h-25.047z"/>
   <path id="g" d="m341.73 335.66c0 53.604-27.919 74.184-79.13 74.184h-74.823v-211.23h74.823c49.297 0 79.13 21.856 79.13 73.387zm-45.628-4.3075v-54.561c0-25.685-11.646-38.289-37.651-38.289h-22.495v131.46h22.495c26.005 0 37.651-13.082 37.651-38.608" fill-rule="evenodd"/>
   <path id="h" d="m162.73 409.85v-211.23h-44.67v131.46l-71.153-131.46h-46.904v211.23h44.67v-123.16l68.441 123.16h49.616"/>
   <path id="i" d="m162.73 500.15h25.047v-90.298h-25.047z"/>
  </g>
  <g id="j">
   <path id="k" d="m267.06 467.12c10.529 0 17.549 1.2769 17.549 13.88 0 10.529-6.0624 14.039-18.347 14.039h-13.88v-27.919zm28.717 71.472-17.709-37.172c10.849-2.3931 16.273-9.2531 16.273-21.218 0-17.549-11.008-21.218-26.324-21.218h-25.207v79.609h9.5722v-35.417h16.592l16.113 35.417h10.689" fill-rule="evenodd"/>
   <path id="l" d="m342.37 523.12c-5.1052 7.6578-10.21 9.0936-15.635 9.0936-6.0624 0-9.8913-3.9884-9.8913-10.689 0-12.284 16.432-14.518 25.526-15.635zm9.0936 15.475v-44.67c0-12.284-6.8601-18.347-20.74-18.347-14.837 0-21.059 9.8913-22.016 11.487l7.0195 4.467c0.31856-0.79704 5.1052-8.4554 14.837-8.4554 8.1363 0 11.806 4.6266 11.806 11.487v4.6266c-13.88 1.755-34.779 4.9456-34.779 22.973 0 10.529 6.7006 17.549 17.07 17.549 7.9769 0 13.401-2.3931 18.187-8.4555l0.15993 7.3388h8.4556" fill-rule="evenodd"/>
   <path id="m" d="m406.66 523.6c-4.467 5.4243-8.615 8.4554-13.88 8.4554-9.5722 0-14.837-7.9768-14.837-23.93 0-15.954 5.1052-24.569 14.518-24.569 6.0624 0 9.8913 2.8716 14.199 6.7005zm9.2531 14.996v-82.48h-9.2531v26.962c-4.3075-4.3075-11.168-7.0197-17.07-7.0197-13.72 0-21.378 11.487-21.378 32.067 0 20.261 7.9768 31.588 21.856 31.588 7.6578 0 12.444-3.9885 16.751-8.296l0.15994 7.1792h8.934" fill-rule="evenodd"/>
   <path id="n" d="m436.65 468.56h10.529v-12.444h-10.529zm9.8913 70.037v-61.581h-9.2531v61.581h9.2531" fill-rule="evenodd"/>
   <path id="o" d="m473.19 508.12c0-17.389 4.7861-25.047 15.475-25.047 10.529 0 15.316 7.6577 15.316 24.728 0 17.23-4.7861 24.728-15.316 24.728-10.529 0-15.475-7.8172-15.475-24.409zm15.954-32.545c-19.304 0-25.366 15.475-25.366 32.226 0 20.421 8.2959 32.386 24.569 32.386 19.623 0 25.047-15.316 25.047-32.386 0-21.059-8.1363-32.226-24.25-32.226" fill-rule="evenodd"/>
   <path id="p" d="m633.04 458.99h-15.475l-14.358 50.892c-2.5527 8.615-3.1908 17.07-3.1908 17.07s-1.1169-8.4554-3.6693-17.07l-14.358-50.892h-15.475v79.609h9.7318v-50.892c0-4.3075-0.79837-20.102-0.79837-20.102 0 0.15994 2.0739 11.008 4.467 18.985l15.794 52.009h8.296l15.475-51.849c2.5527-8.934 4.9456-19.144 4.9456-19.144s-0.79704 16.432-0.79704 20.102v50.892h9.4127v-79.609"/>
   <path id="q" d="m708.66 458.99h-9.8913l-16.113 57.274c-1.4359 5.4241-2.2336 7.9768-2.8717 12.444-0.63843-4.1479-1.2755-8.4554-2.5525-12.444l-16.592-57.274h-10.21l23.771 79.609h10.37l24.09-79.609"/>
  </g>
 </g>
</svg>
