<svg width="800" height="266.54" version="1.1" viewBox="0 0 800 266.54" xmlns="http://www.w3.org/2000/svg">
 <g transform="matrix(2.7901 0 0 2.7901 0 1.9169e-6)" fill="#fff">
  <path class="cls-1" d="m89.54 50c0-3.93-2.12-5-5.69-5h-5.69v10.48h5.69c3.38 0 5.69-1.94 5.69-5.45zm10.46 28.28h-9.61l-7.2-15.48h-4.84v15.48h-9v-40.35h14.1c8.83 0 14.64 2.9 14.64 12.59 0 4.89-1.94 8.83-6.66 10.64z"/>
  <polygon class="cls-1" points="31.09 37.93 35.88 37.93 35.88 0 31.09 0"/>
  <path class="cls-1" d="m56.56 63.29v-10.41c0-4.91-2.23-7.32-7.19-7.32h-4.3v25.1h4.3c5 0 7.19-2.48 7.19-7.37zm8.72 0.83c0 10.23-5.32 14.16-15.13 14.16h-14.27v-40.35h14.27c9.44 0 15.13 4.18 15.13 14z"/>
  <polygon class="cls-1" points="8.53 78.28 8.53 54.75 21.6 78.28 31.09 78.28 31.09 37.93 22.57 37.93 22.57 63.04 8.95 37.93 0 37.93 0 78.28"/>
  <polygon class="cls-1" points="31.09 95.53 35.88 95.53 35.88 78.28 31.09 78.28"/>
 </g>
 <g transform="matrix(2.7901 0 0 2.7901 0 1.9169e-6)" fill="#e5c671">
  <path class="cls-1" d="m119 79.08c-6.47 0-11.08-3.66-11.08-10.78v-2.3h6.94v1.74c0 4.07 1.62 5.45 4.68 5.45 2.75 0 4.37-1.32 4.37-3.77 0-7.55-15.57-10.72-15.57-22 0-6.47 3.89-9.7 11.43-9.7 6.59 0 10.61 3.71 10.61 10.66v1.37h-7v-1c0-2.52-0.3-5.27-4.25-5.27-3.06 0-4 1.67-4 3.53 0 6.41 15.81 10.78 15.81 22 0.06 6.6-3.46 10.07-11.94 10.07z"/>
  <path class="cls-1" d="m144.75 79.08c-6.52 0-10.3-3.71-10.3-10v-12.76c0-5.69 4.19-9.58 10.3-9.58s9.82 3.47 9.82 9v2.4h-6.64v-1c0-3.23-1-4.49-3.3-4.49s-3.41 1.14-3.41 4v11.65c0 3.53 0.84 4.85 3.53 4.85 2.46 0 3.42-1.2 3.42-4.61v-1.54h6.7v3c0 5.79-4.07 9.08-10.12 9.08z"/>
  <path class="cls-1" d="m173 78.42v-22.16c0-2.15-0.9-3.17-2.64-3.17-1.43 0-2.93 0.66-4.79 2.21v23.12h-6.76v-41.62h6.76v12.75c2.76-1.91 5-2.75 7.49-2.75 4.49 0 6.71 2.75 6.71 8.32v23.3z"/>
  <path class="cls-1" d="m184.4 78.42v-41.62h6.76v41.62z"/>
  <path class="cls-1" d="m210.39 78.42-0.24-2.57a9.67 9.67 0 0 1-6.77 2.93c-4.67 0-8.32-3.11-8.32-7.91v-1.31c0-8.21 8.14-9.65 14.61-10.54v-3.36c0-2.57-0.9-3.59-3.47-3.59-3.54 0-3.6 1.86-3.66 4.79h-6.4v-1c0-6.65 4.19-9.1 10.41-9.1s9.88 2.58 9.88 9v22.7zm-0.72-14.73c-3.29 0.54-7.85 1.37-7.85 5.63v0.68c0 2.34 1.26 3.36 3.54 3.36a7.46 7.46 0 0 0 4.31-2z"/>
  <path class="cls-1" d="m231.35 92c-7.67 0-12.58-3.35-12.58-8.56 0-3.41 2-6 5.57-7.42a4.51 4.51 0 0 1-3.17-4.26c0-2.39 1.61-3.89 3.47-5.09-2.82-1.07-3.89-4-3.89-7.66v-3.17c0-5.87 3.65-9 10.42-9 3.11 0 5.21 0.48 7 1.68a6.94 6.94 0 0 1 5.38-2.64h0.84v4.67a6.74 6.74 0 0 0-1.79-0.24 3.16 3.16 0 0 0-1.92 0.78 10.74 10.74 0 0 1 1 4.79v3.24c0 6.41-3.12 9.22-10.36 9.22a10.38 10.38 0 0 1-3.24-0.48 2.33 2.33 0 0 0-0.83 1.74c0 1 1.37 1.73 4.07 2.45l5 1.38c7.24 2 8.38 4.85 8.38 8.15-0.06 6.42-5.03 10.42-13.35 10.42zm1.61-13-5.45-1.56c-1.49 0.78-2.57 1.86-2.57 3.65 0 2.4 1.38 5.15 6.65 5.15 4.07 0 6.53-0.71 6.53-3.35 0-2.25-1.5-2.97-5.12-3.99zm2.22-23c0-2.69-1.44-4.13-4-4.13s-3.95 1.5-3.95 4.13v3.42a4 4 0 0 0 8 0z"/>
  <path class="cls-1" d="m256.9 79.08c-6.58 0-10.41-3.78-10.41-10.54v-11c0-7.25 3.65-10.78 10.41-10.78 8 0 10.49 4.07 10.49 10.48v7.55h-14.26v4.85a3.42 3.42 0 0 0 3.77 3.71c2.52 0 3.78-1 3.78-4.25v-0.5h6.71v0.48c0 6.34-3.48 10-10.49 10zm3.84-22.82c0-2.63-1.38-4.07-3.84-4.07s-3.77 1.56-3.77 4.07v3.18h7.61z"/>
  <path class="cls-1" d="m279 58.9a6 6 0 0 0-0.54 1.43v18.09h-6.76v-31h6.46v5c2.34-3.71 4.08-5.21 8.57-5.63v7.67c-3.66 0.07-6.11 0.9-7.73 4.44z"/>
 </g>
</svg>
