<svg version="1.0" viewBox="0 0 602.36 319.68" xmlns="http://www.w3.org/2000/svg">
 <g transform="translate(-123.78 -239.13)">
  <path d="m234.03 256.84v112.87h14.219v-112.87h-14.219zm14.219 112.87v120.06h42.499c29.161 0 44.999-11.703 44.999-42.124v-36.187c0-29.342-16.918-41.749-44.999-41.749h-42.499zm0 120.06h-14.219v51.312h14.219v-51.312zm-14.219 0v-120.06h-25.375v74.718l-40.531-74.718h-26.625v120.06h25.375v-70.03l38.906 70.03h28.25zm113.97-120.06v120.06h26.625v-46.062h14.406l21.406 46.062h28.625l-25.375-50.937c14.045-5.4042 19.812-17.107 19.812-31.687 0-28.807-17.285-37.437-43.562-37.437h-41.937zm26.093 21.25h16.906c10.618 0 16.937 3.0438 16.937 14.75 0 10.437-6.8543 16.219-16.937 16.219h-16.906v-30.968zm-98.467 1.4375h12.781c14.753 0 21.406 7.2006 21.406 21.781v30.968c0 14.58-6.6533 21.968-21.406 21.968h-12.781v-74.718z" fill="#036" fill-rule="evenodd"/>
  <path d="m617.74 367.53c-21.589 1e-5 -25 12.747-25 29.25v5.0937h-13.281v15.812h13.437v72.28h19.906v-72.468h16.5v-15.812h-16.687v-4.9062c-2e-5 -7.3174 1.3845-14.281 11.25-14.281 2.3756 0 5.093 0.50742 7.4686 1.1875l1.375-14.812c-4.9327-0.68006-10.036-1.3437-14.969-1.3437zm-156.25 1.9375v120.5h20.75v-120.5h-20.75zm209.87 29.25c-28.118 1e-5 -39.031 20.529-39.031 46.281 0 27.955 11.614 46.156 37.374 46.156 29.632 2e-5 38.718-20.044 38.718-46.312-1e-5 -29.968-12.653-46.124-37.062-46.124zm-124.69 1.2812c-8.6684 0-17.181 4.0809-27.218 11.906l-0.49999-10.219h-18.718v88.28h19.906v-65.124c7.1451-5.9573 13.755-9.1874 18.687-9.1874 7.3174-1e-5 10.906 4.0568 10.906 13.75v60.562h19.875v-61.905c-2e-5 -19.731-6.7791-28.062-22.937-28.062zm123.69 14.375c12.286-1e-5 17.5 9.4159 17.5 30.625-1e-5 21.39-5.2134 30.468-17.5 30.468-11.96 0-17.5-9.4064-17.5-29.781-1e-5 -22.052 5.2044-31.312 17.5-31.312z" fill="#ffc300"/>
 </g>
</svg>
