<svg version="1.0" viewBox="0 0 708.66 328.68" xmlns="http://www.w3.org/2000/svg">
 <g transform="translate(-309.61 -222.41)">
  <path d="m913.12 490.1-12.177 28.802h-11.648l8.5771-27.214h-6.6711v-24.143h21.919v22.555" fill="#cc0035"/>
  <path d="m728.74 425.72c15.428 0 27.468-10.166 32.561-23.614-0.48709-22.66-12.315-36.32-30.316-36.32-17.948 0-28.633 12.177-28.633 29.543 0 20.013 13.257 30.391 26.388 30.391zm-30.147 43.415 1.8848 1.4824c5.8664 4.5533 11.828 7.2006 21.877 7.2006 18.944 0 36.32-16.095 39.36-49.663-7.9312 7.3065-18.128 13.13-34.859 13.13-21.252 0-42.706-15.036-42.706-45.533 0-30.285 22.301-45.533 45.713-45.533 29.501 0 50.404 17.684 50.404 64.699 0 43.097-19.389 78.571-57.541 78.571-14.867 0-26.176-4.2356-30.645-8.4712l-1.0589-1.0589 7.5712-14.825" fill="#cc0035" fill-rule="evenodd"/>
  <path d="m841.23 477.82c20.013 0 31.555-14.931 31.555-56.016 0-40.98-11.542-56.016-31.555-56.016-20.119 0-31.672 15.036-31.672 56.016 0 41.086 11.553 56.016 31.672 56.016zm0-127.6c31.026 0 49.769 22.131 49.769 71.582s-18.743 71.688-49.769 71.688c-31.121 0-49.885-22.237-49.885-71.688s18.764-71.582 49.885-71.582" fill="#cc0035" fill-rule="evenodd"/>
  <path d="m933.35 454.63 1.1647 1.4825c10.166 13.66 22.449 21.708 35.579 21.708 19.166 0 29.967-9.5302 29.967-24.249 0-17.578-10.06-28.485-36.32-28.485h-15.248v-15.566h9.9537c26.79 0 36.744-8.3653 36.744-23.402 0-12.283-10.589-20.331-22.766-20.331-15.672 0-22.237 6.5652-31.132 18.001l-1.1648 1.4825-14.295-9.7419 1.1648-1.5884c9.5302-13.13 22.766-23.719 45.427-23.719 24.778 0 40.98 13.025 40.98 35.685 0 15.248-8.5771 24.99-18.107 30.073 18.743 8.8948 22.978 23.931 22.978 36.109 0 24.355-18.954 41.403-48.18 41.403-26.79 0-43.097-16.731-49.663-27.637l-0.95304-1.5884 13.872-9.636" fill="#cc0035"/>
  <path d="m653.68 491.69h-33.101l-24.768-53.263h-16.646v53.263h-30.814v-138.82h48.508c30.38 0 50.372 9.9537 50.372 43.309 0 16.837-6.6605 30.391-22.904 36.638l29.353 58.875zm-36.013-97.207c0-13.554-7.2852-17.048-19.569-17.048h-19.558v35.791h19.558c11.659 0 19.569-6.6711 19.569-18.743" fill="#00417c" fill-rule="evenodd"/>
  <path d="m416.6 352.87h16.445v-130.46h-16.445v130.46z" fill="#00417c"/>
  <path d="m534.21 442.98c0 35.262-18.319 48.71-52.035 48.71h-49.123v-138.82h49.123c32.466 0 52.035 14.401 52.035 48.286v41.827zm-29.978-2.859v-35.791c0-16.943-7.6982-25.202-24.768-25.202h-14.782v86.407h14.782c17.07 0 24.768-8.5771 24.768-25.414" fill="#00417c" fill-rule="evenodd"/>
  <path d="m416.6 491.69v-138.82h-29.353v86.407l-46.835-86.407h-30.804v138.82h29.353v-80.9l44.961 80.9h32.678" fill="#00417c"/>
  <path d="m416.6 551.09h16.445v-59.405h-16.445v59.405z" fill="#00417c"/>
 </g>
</svg>
