<?xml version="1.0" encoding="UTF-8"?>
<!-- Created with Inkscape (http://www.inkscape.org/) -->
<svg id="svg2482" width="566.93" height="398.26" version="1.0" xmlns="http://www.w3.org/2000/svg" xmlns:cc="http://creativecommons.org/ns#" xmlns:dc="http://purl.org/dc/elements/1.1/" xmlns:rdf="http://www.w3.org/1999/02/22-rdf-syntax-ns#">
 <metadata id="metadata10">
  <rdf:RDF>
   <cc:Work rdf:about="">
    <dc:format>image/svg+xml</dc:format>
    <dc:type rdf:resource="http://purl.org/dc/dcmitype/StillImage"/>
    <dc:title/>
   </cc:Work>
  </rdf:RDF>
 </metadata>
 <path id="path41" d="m129.64 0v158.15h19.925v-158.15zm19.925 158.15v168.24h59.525c40.853 0 63.039-16.4 63.039-59.024v-50.692c0-41.109-23.7-58.522-63.039-58.522zm0 168.24h-19.925v71.872h19.925zm-19.925 0v-168.24h-35.56v104.67l-56.765-104.67h-37.316v168.24h35.56v-98.122l54.481 98.122zm159.65-168.24v168.24h37.316v-64.57h20.176l30.014 64.57h40.102l-35.56-71.395c19.682-7.5701 27.73-23.967 27.73-44.393 0-40.352-24.207-52.449-61.031-52.449zm36.563 29.763h23.715c14.871 0 23.69 4.2808 23.69 20.678 0 14.627-9.5632 22.711-23.69 22.711h-23.715zm-137.97 2.0076h17.918c20.683 0 30.014 10.089 30.014 30.516v43.389c0 20.426-9.3307 30.767-30.014 30.767h-17.918z" fill="#fff" fill-rule="evenodd"/>
 <path id="path51" d="m456 295.53 1.0264-0.97513c65.154-61.985 73.738-72.403 73.738-87.595 0-11.445-5.9534-18.848-18.181-18.848-13.228 0-19.734 7.7625-19.734 17.963v9.1226h-36.182v-10.919c0-25.7 20.67-48.307 53.683-48.307 32.834 0 56.583 17.09 56.583 50.322 0 20.003-11.65 37.35-25.61 52.529-11.586 12.587-25.212 24.096-36.17 34.874l-0.6287 0.61587h59.945v32.141h-108.47v-30.922" fill="#c00"/>
</svg>
