<?xml version="1.0" encoding="UTF-8"?>
<svg id="svg8" class="svgbrand logo_ndrplus" width="323.02" height="159.52" version="1.1" viewBox="0 0 323.02 159.52" xmlns="http://www.w3.org/2000/svg" xmlns:cc="http://creativecommons.org/ns#" xmlns:dc="http://purl.org/dc/elements/1.1/" xmlns:rdf="http://www.w3.org/1999/02/22-rdf-syntax-ns#">
 <metadata id="metadata14">
  <rdf:RDF>
   <cc:Work rdf:about="">
    <dc:format>image/svg+xml</dc:format>
    <dc:type rdf:resource="http://purl.org/dc/dcmitype/StillImage"/>
    <dc:title>NDR Plus</dc:title>
   </cc:Work>
  </rdf:RDF>
 </metadata>
 <title id="title2">NDR Plus</title>
 <path id="path4" class="dm" d="m36.065 130.73-21.82-39.301v39.301h-14.245v-67.382h14.95l22.74 41.921v-41.921h14.241v67.382zm15.865-67.382v-63.35h7.981v63.351h-7.981zm0 96.172v-28.79h7.981v28.79zm31.821-28.79h-23.84v-67.382h23.84c15.759 0 25.257 6.971 25.257 23.431v20.31c0 17.071-8.892 23.641-25.257 23.641zm10.708-42.433c0-8.182-3.738-12.227-12.02-12.227h-7.174v41.931h7.174c8.282 0 12.02-4.137 12.02-12.329v-17.375zm56.477 42.433-12.027-25.859h-8.077v25.859h-14.957v-67.382h23.546c14.741 0 24.448 4.847 24.448 21.008 0 8.185-3.233 14.649-11.117 17.785l14.25 28.589zm-10.915-55.465h-9.496v17.38h9.496c5.758 0 9.502-3.229 9.502-9.101 0-6.56-3.539-8.279-9.502-8.279z" fill="#173e7d"/>
 <path id="path6" class="subm" d="m181.46 63.345v67.593h11.958v-26.752h5.776c12.872 0 20.675-7.905 20.675-21.08 0-12.869-7.296-19.761-20.774-19.761zm11.957 31.212v-21.585h4.357c6.791 0 10.031 3.446 10.031 10.437 0 7.397-3.646 11.147-10.841 11.147h-3.547zm44.578 36.381v-70.43h-11.45v70.43zm43.169 0v-52.494h-11.45v39.117c-2.939 2.634-5.268 3.749-7.804 3.749-2.939 0-4.357-1.723-4.357-5.27v-37.596h-11.453v39.016c0 9.728 3.853 14.593 11.453 14.593 4.662 0 8.511-1.723 12.868-5.676l0.508 4.56h10.235zm29.897-37.698h11.044v-2.128c0-8.614-6.182-13.681-16.823-13.681-10.844 0-16.924 4.865-16.924 13.478v1.217c0 7.296 3.751 11.856 13.884 17.024 6.893 3.546 9.121 5.776 9.121 9.222 0 3.343-2.025 4.965-6.08 4.965-4.763 0-6.788-2.026-6.788-6.688v-1.419h-11.453v2.128c0 9.121 6.893 14.695 18.143 14.695 10.942 0 17.835-5.473 17.835-13.986v-1.419c0-6.891-3.954-11.553-14.29-16.823-6.994-3.546-9.324-5.776-9.324-9.019 0-3.04 1.926-4.662 5.576-4.662 4.256 0 6.08 1.723 6.08 5.574v1.522z" fill="#e2b24b"/>
</svg>
