<svg id="a" version="1.0" viewBox="0 0 708.66 423.42" xmlns="http://www.w3.org/2000/svg">
 <g id="b" fill="#fff">
  <g id="c">
   <path id="d" d="m418.99 324.25h-40.278l-30.272-64.85h-20.266v64.85h-37.491v-169.09h59.15c36.985 0 61.303 12.159 61.303 52.69 0 20.519-8.1062 37.111-27.865 44.711zm-43.824-118.43c0-16.466-8.8661-20.772-23.812-20.772h-23.939v43.571h23.939c14.186 0 23.812-8.1062 23.812-22.799" fill-rule="evenodd"/>
   <path id="e" d="m130.33 155.16h20.012v-155.16h-20.012z"/>
   <path id="f" d="m273.46 264.97c0 42.811-22.292 59.277-63.33 59.277h-59.783v-169.09h59.783c39.518 0 63.33 17.479 63.33 58.77zm-36.478-3.5465v-43.698c0-20.519-9.3729-30.652-30.145-30.652h-17.986v105.25h17.986c20.772 0 30.145-10.386 30.145-30.905" fill-rule="evenodd"/>
   <path id="g" d="m130.33 324.25v-169.09h-35.845v105.25l-56.997-105.25h-37.491v169.09h35.718v-98.668l54.717 98.668h39.898"/>
   <path id="h" d="m130.33 396.45h20.012v-72.196h-20.012z"/>
  </g>
  <g id="i">
   <path id="j" d="m229.63 422.28v-58.39h-6.8397v42.684c0 4.5598 0.12698 5.8264 0.37988 7.5996-0.50686-2.0265-1.0127-3.2931-3.2931-7.8529l-21.279-42.431h-9.3729v58.39h6.9664v-41.418c0-4.9398 0-6.0796-0.37988-8.7396 0.63279 2.5333 1.8998 4.9398 3.9264 8.6129l21.025 41.544h8.8662"/>
   <path id="k" d="m242.17 370.86h7.7263v-9.1196h-7.7263zm7.3463 51.424v-45.218h-6.713v45.218h6.713" fill-rule="evenodd"/>
   <path id="l" d="m288.4 395.18h-21.026c0.88675-9.3728 4.8131-13.553 11.146-13.553 5.6998 0 9.8795 4.8131 9.8795 13.553zm6.9663 16.972-5.6998-3.0399c-2.1532 5.1931-5.193 8.7396-10.893 8.7396-7.7262 0-11.273-5.3196-11.399-17.226h27.992v-3.7998c0-10.639-4.6864-20.899-16.719-20.899-10.766 0-18.366 7.5996-18.366 23.305 0 15.453 5.9531 24.192 18.366 24.192 9.3729 0 13.933-4.9398 16.719-11.273" fill-rule="evenodd"/>
   <path id="m" d="m332.86 411.26c-3.2932 4.0531-6.3331 6.2063-10.133 6.2063-7.0929 0-10.893-5.8263-10.893-17.479 0-11.779 3.7998-18.112 10.64-18.112 4.433 0 7.2196 2.1532 10.386 4.9397zm6.7129 11.019v-60.543h-6.7129v19.886c-3.1665-3.1665-8.2329-5.1931-12.413-5.1931-10.259 0-15.832 8.3596-15.832 23.432 0 14.946 5.8264 23.179 16.086 23.179 5.6996 0 9.1196-2.9132 12.286-6.0797l0.12698 5.3198h6.4596" fill-rule="evenodd"/>
   <path id="n" d="m379.35 395.18h-20.899c0.75977-9.3728 4.8131-13.553 11.019-13.553 5.6996 0 9.8794 4.8131 9.8794 13.553zm6.9663 16.972-5.6996-3.0399c-2.1533 5.1931-5.1931 8.7396-10.893 8.7396-7.5996 0-11.273-5.3196-11.273-17.226h27.865v-3.7998c0-10.639-4.6863-20.899-16.719-20.899-10.766 0-18.239 7.5996-18.239 23.305 0 15.453 5.953 24.192 18.239 24.192 9.3728 0 14.059-4.9398 16.719-11.273" fill-rule="evenodd"/>
   <path id="o" d="m420.26 383.27v-7.2196c-0.63384 0-1.3932 0.12697-2.2798 0.12697-7.3463 0.75977-10.133 4.6864-13.426 10.26v-9.3729h-6.5863v45.218h6.713v-27.232c3.5465-7.0929 7.5996-10.639 11.779-11.526 1.2666-0.25291 2.5333-0.25291 3.7998-0.25291"/>
   <path id="p" d="m456.74 410.5c0-15.579-23.939-13.046-23.939-23.305 0-3.6731 2.7865-5.8263 8.3596-5.8263 6.9663 0 9.1194 5.8263 9.1194 5.8263l5.5731-2.7865s-3.1666-8.4862-14.693-8.4862c-9.3729 0-14.946 4.5598-14.946 11.906 0 15.073 23.939 13.299 23.939 23.432 0 4.4331-3.7998 6.8396-9.4994 6.8396-8.4862 0-10.766-7.5996-10.766-7.5996l-5.5731 2.7865s2.6598 10.133 16.339 10.133c9.6261 0 16.086-3.7998 16.086-12.919"/>
   <path id="q" d="m490.17 410.88c-3.7998 5.573-7.5996 6.713-11.653 6.713-4.433 0-7.0929-2.9132-7.0929-7.8529 0-8.9928 11.906-10.639 18.746-11.399zm6.5864 11.399v-32.805c0-8.9929-5.0664-13.553-15.199-13.553-10.893 0-15.453 7.3463-16.212 8.4862l5.1931 3.4198c0.25291-0.63384 3.6731-6.333 10.766-6.333 6.0796 0 8.8661 3.4198 8.8661 8.4862v3.4198c-10.259 1.2665-25.585 3.5465-25.585 16.846 0 7.7263 4.8131 12.793 12.539 12.793 5.8263 0 9.7528-1.6466 13.299-6.2064l0.12698 5.4464h6.2064" fill-rule="evenodd"/>
   <path id="r" d="m524.88 375.93c-13.679 0-17.732 13.046-17.732 24.572s4.3064 22.925 17.606 22.925c6.4596 0 11.906-2.5333 14.946-8.2329 0.75978-1.2666 1.3933-3.0398 1.6466-4.4331l-6.2064-2.2798c-0.63384 5.3196-4.813 9.3728-10.259 9.3728-9.2461 0-10.639-10.766-10.639-17.859s1.14-18.366 10.639-18.366c5.3198 0 8.9929 4.5598 9.7528 9.3728l6.4597-1.6465c-0.25291-1.52-0.88675-3.1665-1.6466-4.6864-3.0398-5.6996-8.1062-8.7396-14.566-8.7396"/>
   <path id="s" d="m583.14 422.28v-30.525c0-8.4862-1.1399-15.453-12.159-15.453-5.9531 0-13.173 5.9531-13.173 5.9531v-20.519h-6.713v60.543h6.713v-34.831s6.5863-5.573 11.779-5.573c5.6996 0 6.8396 2.9132 6.8396 8.4862v31.918h6.713"/>
   <path id="t" d="m624.05 410.5c0-15.579-24.065-13.046-24.065-23.305 0-3.6731 2.7865-5.8263 8.3596-5.8263 6.9663 0 9.1194 5.8263 9.1194 5.8263l5.5731-2.7865s-3.1666-8.4862-14.693-8.4862c-9.3729 0-14.946 4.5598-14.946 11.906 0 15.073 23.939 13.299 23.939 23.432 0 4.4331-3.7998 6.8396-9.4994 6.8396-8.4862 0-10.766-7.5996-10.766-7.5996l-5.5731 2.7865s2.6598 10.133 16.339 10.133c9.6261 0 16.212-3.7998 16.212-12.919"/>
   <path id="u" d="m658.76 395.18h-20.899c0.75977-9.3728 4.813-13.553 11.019-13.553 5.6996 0 9.8794 4.8131 9.8794 13.553zm6.9663 16.972-5.6996-3.0399c-2.0266 5.1931-5.1931 8.7396-10.893 8.7396-7.5996 0-11.273-5.3196-11.273-17.226h27.865v-3.7998c0-10.639-4.6864-20.899-16.719-20.899-10.766 0-18.239 7.5996-18.239 23.305 0 15.453 5.953 24.192 18.239 24.192 9.3728 0 14.059-4.9398 16.719-11.273" fill-rule="evenodd"/>
   <path id="v" d="m708.66 422.28v-31.285c0-10.893-3.6731-14.566-12.159-14.566-4.1798 0-8.7396 2.2799-13.553 6.0797v-5.4464h-6.4596v45.218h6.713v-34.831c4.6864-3.6731 8.8662-5.573 12.033-5.573 4.6864 0 6.713 2.1532 6.713 8.1062v32.298h6.713"/>
  </g>
 </g>
 <path id="w" d="m476.11 202.53h-24.699v-23.939l2.9132-0.63385c11.399-2.1533 17.732-5.1931 22.039-8.4862 2.1532-1.6466 3.9265-3.4198 5.5731-5.5731 1.7732-2.1532 3.4198-4.433 5.3196-6.713l1.14-1.5198h22.925v138.06h24.825v30.272h-85.115v-30.272h25.079v-91.195" fill="#de721b"/>
</svg>
