<svg class="svgbrand logo_ndrplus" width="800" height="274.24" version="1.1" viewBox="0 0 800 274.24" xmlns="http://www.w3.org/2000/svg">
 <g transform="matrix(4.0473 0 0 4.0473 -63.735 213.16)" fill="#e5c671" style="shape-inside:url(#rect2039-9);white-space:pre" aria-label="Schlager">
  <path d="m103.18-17.102v-0.68359q0-1.4258-0.29296-2.1484-0.58594-1.3672-2.5391-1.3672-0.54687 0-1.0547 0.13672-1.6211 0.39062-1.6211 2.168 0 0.9375 0.625 1.8945 0.76172 1.1914 3.5547 3.3984 3.5352 2.832 4.9609 4.9805 1.4258 2.1289 1.4258 4.6289 0 0.68359-0.0977 1.3672-0.82031 5.1953-7.6562 5.1953-1.4453 0-2.7344-0.3125-2.6172-0.625-3.9453-2.8906-0.97652-1.6406-0.97652-4.0039v-1.5234h4.6484v1.1523q0 1.9141 0.72266 2.793 0.74219 0.85938 2.3633 0.85938 2.9492 0 2.9492-2.5 0-1.3281-0.9961-2.6172-0.99609-1.3086-3.4375-3.2031-2.5195-1.9336-4.043-3.7305-1.9336-2.2656-1.9336-5.3711 0-0.58594 0.11719-1.25 0.87891-5.0195 7.3633-5.0195 1.3672 0 2.6172 0.3125 2.4414 0.60547 3.6719 2.7344 0.95703 1.6406 0.95703 4.082v0.91797z"/>
  <path d="m124.62-5.5791v1.9531q0 2.8516-1.8359 4.4922-1.8164 1.6016-4.9414 1.6016-3.457 0-5.2734-2.0117-1.582-1.7187-1.582-4.668v-8.5352q0-2.7344 1.7578-4.4922 1.9336-1.9141 5.1367-1.9141 3.3203 0 5.1172 1.9727 1.4258 1.5625 1.4258 4.043v1.6016h-4.4336v-0.64453q0-1.582-0.52734-2.2852-0.52735-0.72266-1.6992-0.72266-2.2656 0-2.2656 2.6953v7.7539q0 1.8164 0.50782 2.5391 0.52734 0.70312 1.8359 0.70312 0.44922 0 0.85938-0.097656 1.4453-0.33203 1.4453-2.9883v-0.99609z"/>
  <path d="m141.42 2.0186h-4.5117v-14.805q0-2.1289-1.7773-2.1289-1.3672 0-3.2031 1.4844v15.449h-4.5117v-27.793h4.5117v8.5156q2.6953-1.8555 5.0195-1.8555 4.4726 0 4.4726 5.5664z"/>
  <path d="m149.25 2.0186h-4.5117v-27.793h4.5117z"/>
  <path d="m166.24 2.0186h-4.043l-0.15625-1.7188q-2.1094 1.9531-4.5508 1.9531-2.4219 0-3.9844-1.4844-1.543-1.4844-1.543-3.7891v-0.87891q0-3.1055 2.207-4.6875 2.207-1.6016 7.5586-2.3437v-2.2461q0-1.3281-0.52734-1.875-0.52735-0.54688-1.7969-0.54688-1.4648 0-1.9336 0.625-0.46875 0.60547-0.50781 2.5977h-4.2774v-0.68359q0-6.0938 6.9141-6.0938 1.4258 0 2.7148 0.3125 3.9258 0.95703 3.9258 5.7031zm-4.5117-4.7266v-5.1172q-2.8906 0.48828-4.082 1.3477-1.1719 0.83984-1.1719 2.4219v0.46875q0 2.2461 2.2852 2.2461 1.3281 0 2.9688-1.3672z"/>
  <path d="m173.98-5.0517q-0.56641 0.60547-0.56641 1.0938 0 0.52734 0.58594 0.89844 0.60547 0.37109 2.1289 0.80078l3.3203 0.91797q3.0469 0.83984 4.3164 2.0898 1.2695 1.2305 1.2695 3.3594 0 3.8281-3.2031 5.6641-2.2656 1.2891-5.6641 1.2891-3.4375 0-5.6836-1.2891-2.7148-1.543-2.7148-4.4727 0-0.83984 0.2539-1.6211 0.72266-2.1484 3.4766-3.3008-2.1289-0.85938-2.1289-2.8516 0-1.875 2.3242-3.3789-2.5977-1.1523-2.5977-5.1367v-2.0703q0-2.9102 1.7578-4.4727 1.7773-1.582 5.2539-1.582 0.85938 0 1.6211 0.09766 1.6797 0.19531 2.9492 1.0352 1.6797-1.7578 3.6133-1.7578h0.54687v3.1055q-0.625-0.15625-1.1719-0.15625-0.21485 0-0.44922 0.05859-0.52735 0.13672-0.85938 0.46875 0.6836 1.2891 0.6836 3.2031v2.1484q0 3.2227-1.6602 4.707-1.6406 1.4648-5.1172 1.4648-1.4648 0-2.2852-0.3125zm4.7461-5.6445v-2.2852q0-1.3281-0.68359-2.0508-0.6836-0.72266-1.9531-0.72266t-1.9727 0.72266q-0.70312 0.72266-0.70312 2.0508v2.2852q0 1.1914 0.70312 1.8945 0.72266 0.70312 1.9531 0.70312 0.46875 0 0.87891-0.11719 1.7773-0.46875 1.7773-2.4805zm-5.1172 11.992q-1.7188 0.9375-1.7188 2.4805 0 0.48828 0.11719 0.9375 0.68359 2.4609 4.5508 2.4609 4.1211 0 4.1211-2.2266 0-0.99609-0.68359-1.5039-0.66406-0.50781-2.7539-1.0938z"/>
  <path d="m200.35-4.5439v0.3125q0 3.3594-1.9141 5.0977-1.7578 1.6016-5.0391 1.6016-3.5352 0-5.3711-2.0312-1.6406-1.8164-1.6406-5.0195v-7.3633q0-7.207 7.0312-7.207 1.4258 0 2.7344 0.33203 4.1992 1.0352 4.1992 6.6797v5.0391h-9.5312v3.2422q0 2.4805 2.5977 2.4805 0.52734 0 0.97656-0.11719 1.4844-0.37109 1.4844-2.7344v-0.3125zm-4.4336-6.1133v-2.1289q0-2.7148-2.5586-2.7148-0.42969 0-0.83985 0.09766-1.6992 0.42969-1.6992 2.6172v2.1289z"/>
  <path d="m213.41-14.017q-2.168 0.09766-3.2812 0.74219-1.0938 0.64453-1.8945 2.2461-0.35156 0.74219-0.35156 0.97656v12.07h-4.5117v-20.723h4.3164v3.3203q1.3086-2.0508 2.4219-2.7734 1.1133-0.74219 3.3008-0.97656z"/>
 </g>
 <path class="dm" d="m62.001 224.75-37.512-67.564v67.564h-24.489v-115.84h25.701l39.093 72.068v-72.068h24.482v115.84zm27.274-115.84v-108.91h13.721v108.91h-13.721zm0 165.33v-49.494h13.721v49.494zm54.705-49.494h-40.985v-115.84h40.985c27.092 0 43.421 11.984 43.421 40.281v34.916c0 29.348-15.287 40.642-43.421 40.642zm18.409-72.949c0-14.066-6.4262-21.02-20.664-21.02h-12.333v72.086h12.333c14.238 0 20.664-7.1121 20.664-21.195zm97.092 72.949-20.676-44.456h-13.886v44.456h-25.713v-115.84h40.479c25.342 0 42.03 8.3327 42.03 36.116 0 14.071-5.558 25.184-19.112 30.575l24.498 49.149zm-18.765-95.353h-16.325v29.879h16.325c9.8989 0 16.335-5.5511 16.335-15.646 0-11.278-6.0841-14.233-16.335-14.233z" fill="#173e7d" stroke-width="1.7192"/>
</svg>
