<svg version="1.1" viewBox="0 0 800 249" xmlns="http://www.w3.org/2000/svg">
 <path class="st1" d="m770.94 196.58v-58.12h24.501v-27.35h-24.501v-50.142h26.211v-29.63h-61.538v193.73h64.387v-29.06h-29.06zm-224.5-164.67h-33.048v193.73h57.55v-29.63h-24.501zm-472.93 91.168-39.886-105.41-33.618 19.373v188.03h38.177v-93.447l72.365 117.38v-249l-37.037 12.536zm556.7 34.758h7.9772v25.641c0 8.547-0.5698 13.675-1.7094 17.094s-3.9886 5.698-7.9772 5.698c-3.4188 0-6.2678-1.7094-7.4074-5.1282-1.1396-2.849-1.7094-7.9772-1.7094-15.954v-107.12c0-11.966 1.1396-15.385 1.7094-17.094 1.1396-2.849 3.4188-4.5584 6.8376-4.5584s6.2678 1.7094 7.4074 5.1282c0.5698 2.849 1.1396 9.1168 1.1396 18.803v11.966c3.9886-0.5698 32.479-6.2678 35.328-6.8376 0-12.536-1.1396-21.652-3.4188-28.49-2.2792-6.8376-6.8376-13.105-14.245-18.234-6.8376-4.5584-15.954-6.8376-27.35-6.8376s-20.513 2.849-27.35 8.547c-6.8376 5.698-11.396 12.536-12.536 19.373-1.7094 7.4074-2.2792 18.803-2.2792 35.328v75.214c0 11.396 0.56981 20.513 1.1396 26.211 0.5698 5.698 2.2792 10.826 5.1282 15.954 2.849 5.1282 6.8376 9.1168 12.536 12.536 5.1282 3.4188 11.396 5.1282 17.664 5.1282 5.1282 0 9.6866-1.1396 13.105-3.4188 3.9886-2.2792 6.8376-6.2678 9.6866-11.396l1.1396-2.849s21.652 23.932 26.781 30.199v-116.81c-3.9886 1.1396-39.316 8.547-42.165 9.1168v22.792zm-359.54-52.991c-6.2678-5.1282-10.256-9.1168-11.966-13.105-1.7094-3.4188-2.2792-8.547-2.2792-15.385 0-5.698 0.5698-9.6866 2.2792-12.536 2.2792-3.9886 5.1282-5.1282 7.4074-5.1282 2.849 0 5.1282 1.1396 6.8376 3.9886 0.5698 1.1396 1.7094 4.5584 1.7094 13.675v11.396l32.479-8.547c0-13.105-1.1396-22.792-3.4188-28.49s-6.8376-10.826-13.675-14.815c-6.8376-3.9886-15.385-6.2678-25.071-6.2678-9.1168 0-16.524 1.7094-22.792 5.698-6.2678 4.5584-10.826 9.6866-13.675 15.954-2.849 6.8376-3.9886 17.094-3.9886 31.909 0 10.256 1.1396 18.803 2.849 25.071s4.5584 11.396 7.4074 14.815c2.849 3.4188 9.6866 9.6866 19.373 18.234s15.954 14.245 18.803 18.234c2.849 3.9886 3.9886 11.966 3.9886 23.932 0 5.698-0.5698 9.6866-2.2792 12.536-2.2792 4.5584-5.698 5.1282-7.9772 5.1282-4.5584 0-6.2678-2.2792-7.4074-4.5584-0.5698-1.7094-1.7094-4.5584-1.7094-15.385v-20.513l-32.479 11.966c0 13.105 1.1396 23.362 3.4188 31.339 2.2792 7.4074 6.8376 13.675 13.675 18.234 6.8376 5.1282 15.954 7.4074 25.641 7.4074 9.1168 0 17.094-2.2792 23.932-6.2678 6.8376-3.9886 11.396-9.6866 13.675-15.385 2.2792-6.2678 3.4188-16.524 3.4188-30.199 0-18.803-2.2792-32.479-6.8376-40.456-2.849-7.9772-14.245-18.803-31.339-32.479zm415.95 120.8h34.188v-194.3h-34.188zm-255.84-193.73-38.177 193.73h35.897l5.698-36.467h22.222l5.698 36.467h34.758l-34.188-193.73zm6.8376 129.34 9.1168-80.912 9.1168 80.912zm-233.05-112.82c-3.9886-5.698-8.547-10.256-14.815-13.105-6.2678-2.849-13.105-4.5584-20.513-4.5584-7.9772 0-15.385 1.7094-21.083 4.5584-6.2678 2.849-10.826 7.4074-14.815 13.105-3.4188 5.698-5.698 11.966-6.2678 19.373-0.5698 6.8376-1.1396 18.803-1.1396 35.897v52.422c0 17.094 0.5698 29.06 1.1396 35.897 0.5698 6.8376 2.849 13.105 6.8376 18.803s8.547 10.256 14.815 13.105c6.2678 2.849 13.105 4.5584 20.513 4.5584 7.9772 0 15.385-1.7094 21.083-4.5584 6.2678-2.849 10.826-7.4074 14.815-13.105 3.4188-5.698 5.698-11.966 6.2678-19.373 0.5698-6.8376 1.1396-18.803 1.1396-35.897v-52.422c0-17.094-0.5698-29.06-1.1396-35.897-1.1396-6.2678-3.4188-13.105-6.8376-18.803zm-26.781 132.19c0 10.256-0.5698 17.094-1.7094 19.373-1.1396 2.849-3.4188 3.9886-7.4074 3.9886-3.4188 0-5.698-1.1396-6.8376-3.4188s-1.7094-8.547-1.7094-18.803v-106.55c0-9.1168 0.5698-14.245 2.2792-16.524 1.7094-1.7094 3.9886-2.849 6.8376-2.849 3.4188 0 5.698 1.1396 6.8376 3.4188s1.7094 7.4074 1.7094 15.954zm220.51-147.58h-80.912v28.49h22.792v163.53h35.328v-163.53h22.792z" fill="#cba956" stroke-width="5.698"/>
</svg>
