<svg width="800" height="533.33" clip-rule="evenodd" fill-rule="evenodd" stroke-linejoin="round" stroke-miterlimit="2" version="1.1" viewBox="0 0 800 533.33" xml:space="preserve" xmlns="http://www.w3.org/2000/svg"><defs>
        <linearGradient id="linearGradient941" x1="38.58" x2="53.424" y1="12.787" y2="34.002" gradientTransform="matrix(11.111 0 0 11.111 -7.9394e-5 .0041334)" gradientUnits="userSpaceOnUse"><stop stop-color="#ffff28" offset="0"/><stop stop-color="#35d327" offset="1"/></linearGradient></defs>
    <path d="m400.09 113.58-97.725-97.241c-10.928-10.892-22.656-16.337-34.388-16.337-11.73 0-23.464 5.4455-34.403 16.337l-217.17 216.1c-21.866 21.759-21.866 46.706 0 68.465l217.17 216.11c10.925 10.882 22.659 16.325 34.395 16.325s23.472-5.4426 34.402-16.325l97.781-97.301-0.0556-306.13z" clip-rule="evenodd" fill="#e6e6e6" fill-rule="nonzero" stroke-linejoin="round" stroke-miterlimit="2" stroke-width=".29436"/><g transform="matrix(11.111 0 0 11.111 -7.9394e-5 .0041334)" fill-rule="nonzero" stroke-width=".026493"><path d="m11.504 20.022c-1.4697-1.4601-3.2316-1.4873-4.8811 0.15033l-1.1742 1.1646c-1.6482 1.6376-1.6223 3.391-0.15209 4.8511l3.1427 3.1257c0.54992 0.54423 1.1647 0.4629 1.5871 0.04648 0.41974-0.42039 0.49288-1.0272-0.056826-1.5685l-3.1154-3.0989c-0.59072-0.5854-0.57313-1.138 0.090954-1.7963l1.2455-1.2364c0.66129-0.65939 1.2189-0.67867 1.809-0.08986l3.1166 3.0954c0.54538 0.54534 1.1557 0.47238 1.5772 0.05482 0.42232-0.41986 0.50309-1.0311-0.04471-1.5759z"/><path d="m21.825 9.8212c-0.59332-0.58532-0.57395-1.1386 0.08752-1.7957l1.2456-1.2376c0.66259-0.65995 1.2178-0.67745 1.8104-0.090283l1.4237 1.4165c0.59046 0.58487 0.57105 1.1398-0.08928 1.7964l-1.245 1.2375c-0.6649 0.66003-1.2183 0.67809-1.8104 0.08928zm4.7985 2.8152 1.1729-1.168c1.6495-1.637 1.6227-3.3899 0.15469-4.8505l-1.4805-1.4675c-1.4662-1.4601-3.2328-1.4861-4.8799 0.15136l-1.1728 1.1669c-1.6492 1.6371-1.6219 3.3887-0.15533 4.8488l1.4805 1.4669c1.4679 1.4635 3.2333 1.4889 4.8804-0.14806z"/><path d="m18.884 17.279-1.2444 1.2381c-0.6652 0.65884-1.2166 0.67692-1.809 0.08809l-1.4248-1.416c-0.59091-0.5854-0.57403-1.1387 0.0883-1.7959l1.2437-1.2374c0.66605-0.65995 1.22-0.67579 1.8127-0.08925l1.4244 1.4166c0.59075 0.58588 0.5722 1.1397-0.09095 1.7957zm0.16859-4.7595c-1.4679-1.4602-3.2316-1.4873-4.8787 0.15147l-1.1742 1.1669c-1.6486 1.6358-1.6228 3.3869-0.1545 4.8488l4.7485 4.7148c0.54862 0.54244 1.1658 0.46285 1.5872 0.04476 0.4212-0.41875 0.49232-1.0211-0.05425-1.567l-1.0929-1.0827c0.29721-0.06219 0.66315-0.28764 1.0931-0.71366l1.253-1.2471c1.6506-1.6365 1.6221-3.3882 0.15477-4.85z"/></g>
<path d="m280.45 232.42c-21.867 21.724-21.867 46.635 0 68.359l217.16 215.75c21.848 21.732 46.933 21.732 68.793 0l217.21-215.75c21.86-21.718 21.849-46.653-0.0222-68.359l-217.19-215.73c-21.854-21.747-46.916-21.747-68.793 0z" clip-rule="evenodd" fill-rule="nonzero" stroke-linejoin="round" stroke-miterlimit="2" stroke-width=".29436"/><path d="m428.67 115.28h193.05l-17.057 23.068-92.469 122.37-22.005-15.495 77.322-102.36c0.11222-0.14844 0.14733-0.355 0.0656-0.52077-0.0822-0.16578-0.26977-0.26045-0.45577-0.26045h-138.45zm206.57 10.134v45.16l-70.659 93.684c-0.0856 0.11267-0.116 0.25245-0.0867 0.39067 0.03 0.13822 0.11755 0.25611 0.23866 0.32555 20.551 11.551 33.311 33.304 33.311 56.771 0 35.962-29.446 65.212-65.646 65.212-36.032 0-65.378-28.977-65.646-64.713h26.975c0.26578 20.961 17.512 37.912 38.672 37.912 21.325 0 38.672-17.225 38.672-38.411 0-12.508-7.3999-25.058-19.792-33.55l-25.13-17.665zm-206.57 34.028h104.64l-20.052 26.801h-84.592zm176.08 79.6c24.131 20.878 37.977 51.022 37.977 82.79 0 21.245-6.1316 41.835-17.708 59.592l-21.202-17.274c7.6547-12.769 11.675-27.383 11.675-42.318 0-23.193-9.8729-45.429-27.105-61.089zm-182.99 83.007h27.235c0.12111 45.548 37.412 82.573 83.246 82.573 23.277 0 45.609-9.7673 61.35-26.823l21.05 17.122c-20.962 23.305-50.96 36.675-82.4 36.675-60.842 0-110.36-49.131-110.48-109.55z" clip-rule="evenodd" fill="url(#linearGradient941)" fill-rule="nonzero" stroke-linejoin="round" stroke-miterlimit="2" stroke-width=".29436"/><path d="m657.4 239.09h37.652v12.218h-24.609v9.6788h24.609v12.001h-24.609v20.486h-13.042zm48.068 0h12.457l14.779 20.334 15.234-20.334h11.914v54.383h-12.739v-34.505l-14.475 19.314-14.344-19.227v34.418h-12.825z" clip-rule="evenodd" fill="#fff" fill-rule="nonzero" stroke-linejoin="round" stroke-miterlimit="2" stroke-width=".29436"/></svg>
