<svg width="800" height="261.47" version="1.1" viewBox="0 0 211.67 69.181" xmlns="http://www.w3.org/2000/svg">
 <g transform="translate(77.814 -108.05)" stroke-width=".4165">
  <path d="m-7.0918 177.23v-69.181h-70.722v69.181z" fill="#d62021"/>
  <path d="m63.964 177.23v-69.181h-71.055v69.181z" fill="#000005"/>
  <path d="m133.85 177.23v-69.181h-69.889v69.181z" fill="#237bbd"/>
  <g fill="#fff">
   <path d="m-35.052 161.39v-20.95c0-3.0821-0.5831-5.3312-1.791-6.789s-3.1238-2.1242-5.831-2.1242c-1.4161 0.0417-2.7489 0.41651-3.9984 1.0413-1.2912 0.58311-2.4574 1.4994-3.332 2.624v26.24h-8.455v-36.444h6.1226l1.5827 3.4153c2.2908-2.6656 5.7061-3.9984 10.246-3.9984 4.3316 0 7.747 1.2912 10.246 3.8735s3.7485 6.2059 3.7485 10.829v22.325z"/>
   <path d="m27.757 162.1c5.5395 0 9.9544-1.6244 13.161-4.8314 3.2071-3.2071 4.8314-7.7886 4.8314-13.745 0-12.787-5.7894-19.159-17.41-19.159-2.9155-0.0833-5.7477 0.9996-7.8303 3.0405v-2.4157h-8.4967v46.065h8.455v-10.538c2.2908 1.0829 4.7898 1.6244 7.2888 1.5827zm-1.8743-30.488c3.9151 0 6.7057 0.87467 8.4134 2.624 1.7077 1.7493 2.5407 4.7898 2.5407 9.0798 0 4.0401-0.87466 6.9556-2.5407 8.8299-1.7077 1.8742-4.4982 2.7906-8.4134 2.7906-1.9576 0.0417-3.8735-0.62476-5.3729-1.8743v-19.076c1.3745-1.4994 3.332-2.3324 5.3729-2.3741z"/>
   <path d="m108.89 132.95c-1.4994-0.95796-3.2071-1.4578-4.9564-1.4161-1.9576 0-3.7069 0.87466-5.2063 2.6656-1.5411 1.8326-2.3741 4.165-2.2908 6.5391v20.659h-8.4967v-36.402h8.4967v3.4986c2.3741-2.7073 5.4978-4.0817 9.4546-4.0817 2.8739 0 5.0813 0.45815 6.6224 1.3328z"/>
  </g>
 </g>
</svg>
