<svg width="800" height="180.93" fill="none" version="1.1" viewBox="0 0 800 180.93" xmlns="http://www.w3.org/2000/svg">
 <path d="m133.12 0h-133.12v180.72h69.682v-136.69h30.575c6.9049 0 11.177 3.6128 11.177 11.173v125.52h70.005v-128.15c0-32.204-18.739-52.577-48.321-52.577zm235.86 180.72h91.642l31.077-107.98 31.82 108.18 92.647-0.20313 48.309-180.72h-65.627l-31.52 108.76-31.891-108.76h-86.292l-31.52 108.11-31.22-108.11h-195.88v180.72h69.683v-113.48l8e-3 -0.52984c0.27812-20.232 0.30156-21.935 22.214-21.745h46.55zm329.15-149.44 44.408-31.283h57.464v180.72h-57.128v-128.71l-21.205 14.69z" clip-rule="evenodd" fill="#ffd74f" fill-rule="evenodd" stroke-width="1.5625"/>
</svg>
