<svg width="800" height="250.74" version="1.1" viewBox="0 0 800 250.74" xml:space="preserve" xmlns="http://www.w3.org/2000/svg"><defs><clipPath id="clipPath3100"><path d="m0 0h595.28v841.89h-595.28z"/></clipPath><clipPath id="clipPath3194"><path d="m16.8 85.89h277.2v141.86h-277.2z"/></clipPath><clipPath id="clipPath3206"><path d="m56.303 207.01-26.13-26.132c-1.362-1.363-2.041-3.142-2.041-4.928s0.679-3.564 2.041-4.925l26.13-26.131c1.364-1.367 3.143-2.042 4.93-2.042 1.782 0 3.564 0.675 4.928 2.042l26.128 26.131c1.36 1.361 2.043 3.139 2.043 4.925s-0.683 3.565-2.043 4.928l-26.128 26.132c-1.364 1.359-3.146 2.04-4.928 2.04-1.787 0-3.566-0.681-4.93-2.04m-22.814-32.426c-0.378 0.377-0.566 0.87-0.566 1.366 0 0.493 0.188 0.99 0.566 1.366l27.744 27.744-1.854-15.431h16.093c1.2 0 2.341-0.554 3.078-1.5 0.742-0.943 1.075-2.166 0.729-3.343l-6.084-19.516c-0.558-1.873-1.997-2.994-3.804-2.994h-10.012l1.854-15.434z"/></clipPath><clipPath id="clipPath3212"><path d="m0 0h595.28v841.89h-595.28z"/></clipPath><radialGradient id="radialGradient3220" cx="0" cy="0" r="1" gradientTransform="matrix(29.532 0 0 -29.532 61.485 187.05)" gradientUnits="userSpaceOnUse"><stop stop-color="#fff" offset="0"/><stop stop-color="#b11e56" offset="1"/></radialGradient><clipPath id="clipPath3230"><path d="m59.956 206.33-27.741-27.744c-0.707-0.701-1.097-1.641-1.097-2.643s0.391-1.942 1.099-2.645l27.739-27.738c0.546-0.545 1.374-0.685 2.067-0.348 0.625 0.305 1.016 0.94 1.016 1.623l-0.013 0.216s-1.245 10.359-1.612 13.413h7.977c2.627 0 4.747 1.642 5.535 4.283l6.085 19.525c0.143 0.485 0.214 0.978 0.214 1.473 0 1.226-0.432 2.446-1.256 3.495-1.064 1.366-2.748 2.187-4.497 2.187h-14.058c0.367 3.052 1.612 13.412 1.612 13.412l0.013 0.217c0 0.683-0.391 1.316-1.016 1.62-0.252 0.123-0.522 0.183-0.791 0.183-0.468 0-0.93-0.183-1.276-0.529m-26.467-31.753c-0.378 0.377-0.566 0.87-0.566 1.366 0 0.493 0.188 0.99 0.566 1.366l27.744 27.744-1.854-15.431h16.093c1.2 0 2.341-0.554 3.078-1.5 0.742-0.943 1.075-2.166 0.729-3.343l-6.084-19.516c-0.558-1.873-1.997-2.994-3.804-2.994h-10.012l1.854-15.434z"/></clipPath><clipPath id="clipPath3236"><path d="m0 0h595.28v841.89h-595.28z"/></clipPath><radialGradient id="radialGradient3244" cx="0" cy="0" r="1" gradientTransform="matrix(28.137 0 0 -28.137 56.172 175.95)" gradientUnits="userSpaceOnUse"><stop stop-color="#fff" offset="0"/><stop stop-color="#ce326e" offset="1"/></radialGradient><clipPath id="clipPath3254"><path d="m70.594 185.06c-0.588-2.278-2.485-9.611-2.826-10.923l-0.875-3.356-0.873 3.359-2.791 10.92h-4.768c-0.542-2.302-2.261-9.596-2.574-10.916l-0.802-3.394-0.945 3.357c-0.369 1.311-2.443 8.692-3.079 10.953h-4.272l5.826-18.229h4.342c0.583 2.378 3.634 14.899 3.634 14.899v3e-3l1e-3 -4e-3s3.437-12.55 4.081-14.898h4.249l5.658 18.229z"/></clipPath><clipPath id="clipPath3260"><path d="m0 0h595.28v841.89h-595.28z"/></clipPath><linearGradient id="linearGradient3268" x2="1" gradientTransform="matrix(0 -19.534 -19.534 0 60.679 185.62)" gradientUnits="userSpaceOnUse"><stop stop-color="#006ab6" offset="0"/><stop stop-color="#002663" offset="1"/></linearGradient><clipPath id="clipPath3278"><path d="m69.894 185.97s-2.594-10.039-2.999-11.6c-0.4 1.566-2.967 11.6-2.967 11.6h-6.181s-2.367-10.041-2.737-11.611c-0.438 1.552-3.265 11.611-3.265 11.611h-6.192l6.402-20.033h5.712s2.593 10.612 2.975 12.203c0.429-1.586 3.343-12.203 3.343-12.203h5.602l6.218 20.033zm-2.126-11.826c0.341 1.312 2.238 8.645 2.826 10.923h3.986l-5.658-18.229h-4.249c-0.644 2.348-4.081 14.898-4.081 14.898l-1e-3 4e-3v-3e-3s-3.051-12.521-3.634-14.899h-4.342l-5.826 18.229h4.272c0.636-2.261 2.71-9.642 3.079-10.953l0.945-3.357 0.802 3.394c0.313 1.32 2.032 8.614 2.574 10.916h4.768l2.791-10.92 0.873-3.359z"/></clipPath><clipPath id="clipPath3284"><path d="m0 0h595.28v841.89h-595.28z"/></clipPath><linearGradient id="linearGradient3292" x2="1" gradientTransform="matrix(0 -19.534 -19.534 0 60.679 185.62)" gradientUnits="userSpaceOnUse"><stop stop-color="#0074bb" offset="0"/><stop stop-color="#1a4a87" offset="1"/></linearGradient></defs><g transform="matrix(1.3333 0 0 -1.3333 -34.066 437.76)"><g transform="matrix(2.6352 0 0 2.6352 -41.777 -229.36)"><g clip-path="url(#clipPath3100)"><path d="m105.18 199.42h10.426l6.451-19.876h0.13l5.41 19.876h10.689l5.861-19.876h0.133l5.931 19.876h9.908l-11.277-31.674h-9.646l-6.583 21.051h-0.13l-5.864-21.051h-9.842z" fill="#006ab6"/></g></g><path d="m445.23 263.86c0.17656 8.5801-6.5194 15.798-15.803 15.798-11.326 0-17.503-7.7263-18.198-15.798zm21.814-36.758c-8.2375-10.469-21.814-16.48-35.208-16.48-25.761 0-46.36 17.173-46.36 43.788 0 26.618 20.599 43.794 46.36 43.794 24.041 0 39.158-17.176 39.158-43.794v-8.0662h-59.765c2.0607-9.7922 9.447-16.146 19.403-16.146 8.4167 0 14.077 4.2927 18.383 10.132z" fill="#006ab6"/><path d="m533.5 271.59c-3.7788 4.6352-8.7514 7.0438-14.936 7.0438-4.2953 0-9.4523-1.8973-9.4523-6.8751 0-12.367 43.454-1.8868 43.454-33.656 0-21.3-20.62-27.479-38.476-27.479-11.666 0-24.56 2.9198-32.795 11.334l15.624 17.342c4.8144-5.8395 10.483-9.0992 18.206-9.0992 5.8369 0 11.679 1.5442 11.679 6.0134 0 13.395-43.446 2.0581-43.446 33.828 0 19.577 17.511 28.165 35.029 28.165 10.989 0 23.179-2.7458 30.918-10.994z" fill="#006ab6"/><path d="m622.29 275.53h-22.678v-27.819c0-8.9358 1.0224-15.453 12.201-15.453 2.7485 0 8.2401 0.34521 10.477 2.398v-21.463c-5.6682-2.0581-12.027-2.5746-18.035-2.5746-17.179 0-30.394 7.0464-30.394 25.247v39.664h-16.491v20.612h16.491v16.955l25.751 7.7737v-24.728h22.678z" fill="#006ab6"/><g transform="matrix(2.6352 0 0 2.6352 -41.777 -229.36)"><g clip-path="url(#clipPath3194)" fill="#fff"><path d="m61.233 140.27c-2.558 0-4.958 0.995-6.759 2.802l-26.128 26.129c-1.803 1.8-2.797 4.198-2.797 6.751 0 2.55 0.993 4.948 2.796 6.753l26.132 26.133c1.809 1.804 4.207 2.796 6.756 2.796 2.547 0 4.945-0.992 6.751-2.794l26.13-26.134c1.806-1.811 2.8-4.208 2.8-6.754 0-2.547-0.994-4.945-2.799-6.751l-26.129-26.132c-1.797-1.804-4.197-2.799-6.753-2.799"/><path d="m61.233 146.84-27.744 27.741c-0.379 0.377-0.566 0.869-0.566 1.366 0 0.495 0.187 0.991 0.566 1.367l27.744 27.744-1.854-15.431h16.093c1.2 0 2.34-0.554 3.078-1.501 0.742-0.943 1.074-2.166 0.729-3.343l-6.084-19.516c-0.559-1.873-1.997-2.994-3.804-2.994h-10.012l1.854-15.433"/></g></g><g transform="matrix(2.6352 0 0 2.6352 -41.777 -229.36)"><g clip-path="url(#clipPath3206)"><g clip-path="url(#clipPath3212)"><path d="m0 0h595.28v841.89h-595.28z" fill="url(#radialGradient3220)"/></g></g></g><g transform="matrix(2.6352 0 0 2.6352 -41.777 -229.36)"><g clip-path="url(#clipPath3230)"><g clip-path="url(#clipPath3236)"><path d="m0 0h595.28v841.89h-595.28z" fill="url(#radialGradient3244)"/></g></g></g><g transform="matrix(2.6352 0 0 2.6352 -41.777 -229.36)"><g clip-path="url(#clipPath3254)"><g clip-path="url(#clipPath3260)"><path d="m0 0h595.28v841.89h-595.28z" fill="url(#linearGradient3268)"/></g></g></g><g transform="matrix(2.6352 0 0 2.6352 -41.777 -229.36)"><g clip-path="url(#clipPath3278)"><g clip-path="url(#clipPath3284)"><path d="m0 0h595.28v841.89h-595.28z" fill="url(#linearGradient3292)"/></g></g></g></g></svg>
