<svg width="800" height="252.11" version="1.1" viewBox="0 0 800 252.11" xml:space="preserve" xmlns="http://www.w3.org/2000/svg"><defs><linearGradient id="linearGradient3268" x2="1" gradientTransform="matrix(0 69.01 -69.01 0 124.11 91.902)" gradientUnits="userSpaceOnUse"><stop stop-color="#006ab6" offset="0"/><stop stop-color="#002663" offset="1"/></linearGradient><linearGradient id="linearGradient561" x2="1" gradientTransform="matrix(0 69.01 -69.01 0 124.11 91.902)" gradientUnits="userSpaceOnUse"><stop stop-color="#0074bb" offset="0"/><stop stop-color="#1a4a87" offset="1"/></linearGradient><radialGradient id="radialGradient1724" cx="0" cy="0" r="1" gradientTransform="matrix(104.33 0 0 104.33 126.95 86.85)" gradientUnits="userSpaceOnUse"><stop stop-color="#fff" offset="0"/><stop stop-color="#b11e56" offset="1"/></radialGradient><radialGradient id="radialGradient1730" cx="0" cy="0" r="1" gradientTransform="matrix(99.402 0 0 99.402 108.18 126.06)" gradientUnits="userSpaceOnUse"><stop stop-color="#fff" offset="0"/><stop stop-color="#ce326e" offset="1"/></radialGradient></defs><g fill="#006ab6"><path d="m281.32 43.15h36.833l22.79 70.218h0.45927l19.112-70.218h37.762l20.706 70.218h0.46986l20.953-70.218h35.003l-39.839 111.9h-34.077l-23.256-74.369h-0.45926l-20.716 74.369h-34.77z" stroke-width="3.5328"/><path d="m562.63 86.44c0.2367-11.503-8.74-21.179-21.186-21.179-15.184 0-23.465 10.358-24.397 21.179zm29.244 49.278c-11.043 14.035-29.244 22.093-47.2 22.093-34.536 0-62.151-23.022-62.151-58.703 0-35.685 27.615-58.711 62.151-58.711 32.23 0 52.496 23.026 52.496 58.711v10.814h-80.122c2.7626 13.128 12.665 21.646 26.012 21.646 11.284 0 18.872-5.7549 24.645-13.583z" stroke-width="1.3406"/><path d="m680.97 76.077c-5.0659-6.214-11.732-9.443-20.023-9.443-5.7584 0-12.672 2.5436-12.672 9.2169 0 16.579 58.255 2.5295 58.255 45.12 0 28.555-27.644 36.839-51.582 36.839-15.64 0-32.926-3.9143-43.966-15.195l20.946-23.249c6.4543 7.8285 14.054 12.199 24.407 12.199 7.825 0 15.657-2.0702 15.657-8.0617 0-17.958-58.244-2.7591-58.244-45.35 0-26.245 23.476-37.758 46.96-37.758 14.732 0 31.074 3.6811 41.449 14.739z" stroke-width="1.3406"/><path d="m800 70.795h-30.403v37.295c0 11.979 1.3706 20.717 16.357 20.717 3.6847 0 11.047-0.4628 14.046-3.2148v28.774c-7.5989 2.7591-16.124 3.4516-24.178 3.4516-23.03 0-40.747-9.4465-40.747-33.847v-53.174h-22.108v-27.633h22.108v-22.73l34.522-10.422v33.151h30.403z" stroke-width="1.3406"/></g><path d="m126.06 252.11c-9.0369 0-17.516-3.5151-23.878-9.8989l-92.305-92.308c-6.3696-6.359-9.8812-14.831-9.8812-23.85 0-9.0086 3.5081-17.48 9.8777-23.857l92.319-92.322c6.3908-6.3732 14.862-9.8777 23.868-9.8777 8.998 0 17.47 3.5045 23.85 9.8706l92.312 92.326c6.3802 6.3979 9.8918 14.866 9.8918 23.86 0 8.998-3.5116 17.47-9.8883 23.85l-92.308 92.319c-6.3484 6.3732-14.827 9.8883-23.857 9.8883" fill="#fff" stroke-width="3.5328"/><path d="m126.06 228.9-98.014-98.003c-1.3389-1.3319-1.9996-3.07-1.9996-4.8258 0-1.7487 0.66063-3.501 1.9996-4.8293l98.014-98.014-6.5498 54.515h56.853c4.2394 0 8.2667 1.9572 10.874 5.3027 2.6213 3.3314 3.7942 7.652 2.5754 11.81l-21.494 68.946c-1.9748 6.6169-7.055 10.577-13.439 10.577h-35.37l6.5498 54.522" fill="#fff" stroke-width="3.5328"/><g fill="url(#radialGradient1724)" stop-color="#000000" stroke-width="3.5328" style="-inkscape-stroke:none;font-variation-settings:normal"><g fill="url(#radialGradient1724)" stop-color="#000000" stroke-width="3.5328" style="-inkscape-stroke:none;font-variation-settings:normal"><path d="m108.65 16.336-92.312 92.319c-4.8117 4.8152-7.2104 11.1-7.2104 17.41s2.3988 12.591 7.2104 17.399l92.312 92.315c4.8187 4.8293 11.104 7.214 17.417 7.214 6.2954 0 12.591-2.3846 17.41-7.214l92.305-92.315c4.8046-4.8081 7.2175-11.089 7.2175-17.399s-2.4129-12.594-7.2175-17.41l-92.305-92.319c-4.8187-4.8011-11.114-7.2069-17.41-7.2069-6.3131 0-12.598 2.4058-17.417 7.2069m-80.597 114.55c-1.3354-1.3319-1.9996-3.0735-1.9996-4.8258 0-1.7417 0.66416-3.4975 1.9996-4.8258l98.014-98.014-6.5498 54.515h56.853c4.2394 0 8.2703 1.9572 10.874 5.2992 2.6213 3.3314 3.7978 7.652 2.5754 11.81l-21.494 68.946c-1.9713 6.6169-7.055 10.577-13.439 10.577h-35.37l6.5498 54.525z" fill="url(#radialGradient1724)" stop-color="#000000" stroke-width="3.5328" style="-inkscape-stroke:none;font-variation-settings:normal"/></g></g><g fill="url(#radialGradient1730)" stop-color="#000000" stroke-width="3.5328" style="-inkscape-stroke:none;font-variation-settings:normal"><g fill="url(#radialGradient1730)" stop-color="#000000" stroke-width="3.5328" style="-inkscape-stroke:none;font-variation-settings:normal"><path d="m121.55 18.738-98.003 98.014c-2.4977 2.4765-3.8755 5.7973-3.8755 9.3372s1.3813 6.8607 3.8825 9.3442l97.996 97.993c1.9289 1.9254 4.8541 2.42 7.3023 1.2294 2.208-1.0775 3.5893-3.3208 3.5893-5.7337l-0.0459-0.76309s-4.3983-36.596-5.6949-47.385h28.181c9.2806 0 16.77-5.8008 19.554-15.131l21.497-68.978c0.50519-1.7134 0.75602-3.4551 0.75602-5.2038 0-4.3312-1.5262-8.6412-4.4372-12.347-3.7589-4.8258-9.7081-7.7262-15.887-7.7262h-49.664c1.2965-10.782 5.6949-47.382 5.6949-47.382l0.0459-0.76662c0-2.4129-1.3813-4.6492-3.5893-5.7231-0.89026-0.43453-1.8441-0.6465-2.7944-0.6465-1.6533 0-3.2855 0.6465-4.5078 1.8688m-93.502 112.18c-1.3354-1.3319-1.9996-3.0735-1.9996-4.8258 0-1.7417 0.66416-3.4975 1.9996-4.8258l98.014-98.014-6.5498 54.515h56.853c4.2394 0 8.2703 1.9572 10.874 5.2992 2.6213 3.3314 3.7978 7.652 2.5754 11.81l-21.494 68.946c-1.9713 6.6169-7.055 10.577-13.439 10.577h-35.37l6.5498 54.525z" fill="url(#radialGradient1730)" stop-color="#000000" stroke-width="3.5328" style="-inkscape-stroke:none;font-variation-settings:normal"/></g></g><path d="m159.13 93.88c-2.0773 8.0477-8.779 33.954-9.9837 38.589l-3.0912 11.856-3.0841-11.867-9.86-38.578h-16.844c-1.9148 8.1325-7.9876 33.901-9.0934 38.564l-2.8333 11.99-3.3385-11.86c-1.3036-4.6315-8.6306-30.707-10.877-38.695h-15.092l20.582 64.399h15.339c2.0596-8.401 12.838-52.635 12.838-52.635v-0.0106l4e-3 0.0141s12.142 44.337 14.417 52.632h15.011l19.989-64.399z" fill="url(#linearGradient3268)" stop-color="#000000" stroke-width="3.5328" style="-inkscape-stroke:none;font-variation-settings:normal"/><path d="m156.66 90.666s-9.1641 35.466-10.595 40.98c-1.4131-5.5324-10.482-40.98-10.482-40.98h-21.836s-8.3621 35.473-9.6693 41.019c-1.5474-5.4829-11.535-41.019-11.535-41.019h-21.875l22.617 70.772h20.179s9.1605-37.49 10.51-43.111c1.5156 5.603 11.81 43.111 11.81 43.111h19.791l21.967-70.772zm-7.5107 41.779c1.2047-4.635 7.9064-30.541 9.9837-38.589h14.082l-19.989 64.399h-15.011c-2.2751-8.295-14.417-52.632-14.417-52.632l-4e-3 -0.0142v0.0106s-10.779 44.234-12.838 52.635h-15.339l-20.582-64.399h15.092c2.2469 7.9876 9.5739 34.063 10.877 38.695l3.3385 11.86 2.8333-11.99c1.1058-4.6633 7.1786-30.431 9.0934-38.564h16.844l9.86 38.578 3.0841 11.867z" fill="url(#linearGradient561)" stop-color="#000000" stroke-width="3.5328" style="-inkscape-stroke:none;font-variation-settings:normal"/></svg>
