<svg width="800.01" height="391.18" version="1.1" viewBox="0 0 211.67 103.5" xmlns="http://www.w3.org/2000/svg">
 <g transform="matrix(1.0675,0,0,1.0675,-7.1451,-5.7564e-6)">
  <path d="m137.49 45.698c-1.2819-0.42376-6.4899-1.8214-6.8191-1.1918-2.3634 4.5204-9.682 8.2766-18.965 11.1-2.5904 0.78778-5.742 6.3292-9.816 7.2638l0.17714-0.0099c8.0172-0.44436 23.249-2.3629 32.632-4.1099l2.8566-0.5319 0.0691-4.2792c0.038-2.3536 2e-3 -5.5717-0.0789-7.1515z" fill="#f29120" stroke-width=".07998"/>
  <path d="m75.052 31.948v0.66936c0 1.0807 1.4263 12.521 2.1612 17.335 0.64858 4.2489 1.425 8.5061 1.9173 10.513l0.08014 0.32617c1.0877 0 5.3758-0.4267 6.1097-0.89069 2.2814-1.4424 5.915-1.958 17.288-3.8332 8.2814-1.3654 11.664-1.5486 15.244-2.977 2.7199-1.0074 4.5282-7.0017 2.3116-8.9601-1.7132-1.5042-5.3554-4.6844-17.373-7.4394-19.166-4.3939-24.094-4.7433-27.739-4.7433z" fill="#e8572a" stroke-width=".07998"/>
  <path d="m131.19 6.9308c-1.4007 0-3.8089 1.3883-6.1848 3.6824-2.5806 2.4918-4.8551 4.414-5.5676 4.895-4.0736 2.7502-4.1178 4.2081-4.1178 2.0613 0.30954-1.9405 2.6126-2.0406 3.7511-3.0058 3.67-3.1051 3.6561-5.9167 3.2411-6.2011-0.95163-0.65236-10.235-2.2714-15.236-0.3218-5.4629 2.1295-10.182 7.2641-12.36 9.5167-1.5056 1.5914-4.4736 7.4405-3.5529 9.185 1.0915 2.0517 6.3221 5.1546 18.917 7.8324 14.541 3.0912 20.585 1.887 24.549 4.9126 0.29419 0.20377 2.0321 0.6609 2.3128 0.6609l-0.13152-1.2088c0.0848-0.7799-0.63193-7.0659-1.4246-12.495-0.99458-6.812-2.1393-12.601-3.3493-16.937z" fill="#e63c36" stroke-width=".07998"/>
  <path d="m121.7 0.37476-2.4311 0.11331c-5.563 0.25929-14.032 1.0957-21.774 2.1499-7.6714 1.0447-22.12 3.6786-23.127 4.2163-0.38702 0.20646-0.3962 0.50263-0.26243 8.3935 0.06053 3.5706 0.14932 7.8277 0.21979 9.649 0.65082-2.5271 4.9032-1.8073 7.6992-4.2555 6.2349-5.4596 15.125-10.255 28.53-13.647 4.4892-1.1357 7.8856-5.4278 10.728-5.8835l0.78056-0.73614c-0.0215-0.010806-0.17128-0.009748-0.36352 0z" fill="#bb1d2a" stroke-width=".21294"/>
 </g>
 <path d="m79.476 70.008c-1.9298-0.54675-2.7671-1.4913-2.773-3.1279-0.0044-1.231 1.3746-3.3034 2.7961-4.2021 2.4354-1.5397 7.3103-2.7241 19.451-4.7259 8.8405-1.4575 12.361-2.2869 16.183-3.8117 2.9036-1.0754 5.1962-3.6717 2.8299-5.7624-1.8288-1.6058-3.7252-2.194-16.554-5.135-23.337-5.35-27.815-6.9386-29.078-10.315-0.51889-1.3869-0.61251-4.1437-0.20569-6.0583 0.57717-2.7164 3.2096-6.6072 6.3035-9.3162 6.6559-5.8282 17.875-10.884 32.185-14.504 11.861-3.0007 17.769-3.7094 20.548-2.4655 2.1158 0.94698 3.4154 2.8052 3.0431 4.3506-0.40517 1.6818-1.2198 2.6657-6.1431 7.4197-2.7548 2.66-5.631 5.2564-6.3916 5.7698-4.3486 2.9358-8.5892 3.5638-8.5892 1.2721 0.33044-2.0715 2.789-3.4586 4.0043-4.489 3.9178-3.3147 4.095-3.4993 3.6519-3.803-1.0159-0.69641-6.8928 0.58424-12.232 2.6654-5.8317 2.2733-10.421 4.9056-12.746 7.3103-1.6072 1.6988-3.4312 4.0376-2.4483 5.8998 1.1652 2.1902 3.8039 3.1019 17.25 5.9605 15.522 3.2999 23.435 5.9156 27.667 9.1455 1.4641 1.0141 1.9961 3.0058 1.9453 4.5332-0.27623 1.9262-0.58585 2.2898-1.3467 3.7449-2.523 4.8256-9.3849 9.1523-19.294 12.166-3.2253 0.9809-17.394 4.5619-19.491 4.9263-0.84375 0.1466-2.7669 0.54936-4.2738 0.89499-5.5168 1.2656-8.7692 1.7688-12.054 1.8648-2.2755 0.06652-3.4786 0.0075-4.237-0.20716z" fill="#fff" stroke-width=".21916"/>
 <g transform="matrix(2.8852,0,0,2.8852,139.22,-240.33)" fill="#db0000" style="shape-inside:url(#rect1123);white-space:pre" aria-label="omroep súdwest">
  <path d="m-45.714 111.84c-1.4182 0-2.54 1.0054-2.54 2.7199 0 1.6192 1.0689 2.6352 2.4553 2.6352 1.2382 0 2.5506-0.8255 2.5506-2.7199 0-1.5663-0.99483-2.6352-2.4659-2.6352zm-0.02117 0.6985c1.1007 0 1.5346 1.1007 1.5346 1.9685 0 1.1536-0.66675 1.9897-1.5557 1.9897-0.91016 0-1.5557-0.84666-1.5557-1.9685 0-0.97367 0.47625-1.9897 1.5769-1.9897z"/>
  <path d="m-42.073 117.08h0.91016v-3.0903c0-0.15875 0.02117-0.3175 0.07408-0.45508 0.14817-0.46567 0.5715-0.93133 1.1536-0.93133 0.70908 0 1.0689 0.59266 1.0689 1.4076v3.0692h0.91016v-3.1644c0-0.16934 0.03175-0.33867 0.07408-0.46567 0.15875-0.45508 0.5715-0.84666 1.1007-0.84666 0.75141 0 1.1112 0.59266 1.1112 1.5769v2.8998h0.91016v-3.0162c0-1.778-1.0054-2.2225-1.6827-2.2225-0.48683 0-0.8255 0.127-1.1324 0.35983-0.21167 0.15875-0.41275 0.381-0.5715 0.66675h-0.02117c-0.22225-0.60325-0.75142-1.0266-1.4499-1.0266-0.84666 0-1.3229 0.45508-1.6087 0.94191h-0.03175l-0.04233-0.82549h-0.81491c0.03175 0.42333 0.04233 0.85724 0.04233 1.3864z"/>
  <path d="m-33.247 117.08h0.92075v-2.7305c0-0.15875 0.02117-0.30691 0.04233-0.43391 0.127-0.6985 0.59266-1.1959 1.2488-1.1959 0.127 0 0.22225 0.0106 0.3175 0.0318v-0.87841c-0.08467-0.0212-0.15875-0.0318-0.26458-0.0318-0.62442 0-1.1853 0.43392-1.4182 1.1218h-0.04233l-0.03175-1.0054h-0.81492c0.03175 0.47624 0.04233 0.99483 0.04233 1.5981z"/>
  <path d="m-27.722 111.84c-1.4182 0-2.54 1.0054-2.54 2.7199 0 1.6192 1.0689 2.6352 2.4553 2.6352 1.2382 0 2.5506-0.8255 2.5506-2.7199 0-1.5663-0.99483-2.6352-2.4659-2.6352zm-0.02117 0.6985c1.1007 0 1.5346 1.1007 1.5346 1.9685 0 1.1536-0.66675 1.9897-1.5557 1.9897-0.91016 0-1.5557-0.84666-1.5557-1.9685 0-0.97367 0.47625-1.9897 1.5769-1.9897z"/>
  <path d="m-19.965 114.69c0.01058-0.0953 0.03175-0.24342 0.03175-0.43392 0-0.94191-0.4445-2.413-2.1167-2.413-1.4922 0-2.4024 1.2171-2.4024 2.7622s0.94191 2.5823 2.5188 2.5823c0.81491 0 1.3758-0.16934 1.7039-0.3175l-0.15875-0.66675c-0.34925 0.14817-0.75141 0.26458-1.4182 0.26458-0.93133 0-1.7357-0.51858-1.7568-1.778zm-3.5877-0.66675c0.07408-0.64558 0.48683-1.5134 1.4287-1.5134 1.0477 0 1.3017 0.92075 1.2912 1.5134z"/>
  <path d="m-18.78 119.17h0.92075v-2.7834h0.02117c0.30692 0.508 0.89958 0.80433 1.5769 0.80433 1.2065 0 2.3283-0.91016 2.3283-2.7517 0-1.5557-0.93133-2.6035-2.1696-2.6035-0.83608 0-1.4393 0.37042-1.8203 0.99483h-0.02117l-0.04233-0.87841h-0.83608c0.02117 0.48683 0.04233 1.016 0.04233 1.6722zm0.92075-5.0588c0-0.127 0.03175-0.26458 0.0635-0.381 0.17992-0.6985 0.77258-1.1536 1.4076-1.1536 0.98425 0 1.524 0.87841 1.524 1.905 0 1.1747-0.5715 1.9791-1.5557 1.9791-0.66675 0-1.2277-0.4445-1.397-1.0901-0.02117-0.11641-0.04233-0.24341-0.04233-0.381z"/>
  <path d="m-10.874 116.84c0.35983 0.21166 0.87841 0.34925 1.4393 0.34925 1.2171 0 1.9156-0.635 1.9156-1.5346 0-0.762-0.45508-1.2065-1.3441-1.5452-0.66675-0.254-0.97366-0.4445-0.97366-0.86783 0-0.381 0.30692-0.6985 0.85725-0.6985 0.47625 0 0.84666 0.16933 1.0477 0.29633l0.23283-0.67733c-0.28575-0.16933-0.74083-0.3175-1.2594-0.3175-1.1007 0-1.7674 0.67733-1.7674 1.5028 0 0.61383 0.43392 1.1218 1.3547 1.4499 0.68791 0.254 0.9525 0.49742 0.9525 0.94191 0 0.42334-0.3175 0.762-0.99483 0.762-0.46567 0-0.9525-0.1905-1.2277-0.37041z"/>
  <path d="m-2.0369 111.96h-0.93133v3.1432c0 0.16933-0.03175 0.33866-0.084666 0.47624-0.16933 0.41275-0.60325 0.84667-1.2277 0.84667-0.84666 0-1.143-0.65617-1.143-1.6298v-2.8363h-0.93133v2.9951c0 1.7992 0.96308 2.2437 1.7674 2.2437 0.91016 0 1.4499-0.53975 1.6933-0.9525h0.021167l0.052916 0.83608h0.8255c-0.03175-0.40216-0.042333-0.86783-0.042333-1.397zm-1.6616-2.2119-0.93133 1.5134h0.66675l1.2912-1.5134z"/>
  <path d="m3.0008 109.56v3.0586h-0.021167c-0.23283-0.41274-0.762-0.78316-1.5452-0.78316-1.2488 0-2.3072 1.0478-2.2966 2.7517 0 1.5557 0.9525 2.6035 2.1907 2.6035 0.83608 0 1.4605-0.43392 1.7462-1.0054h0.021167l0.042333 0.88899h0.83608c-0.03175-0.34925-0.042333-0.86783-0.042333-1.3229v-6.1912zm0 5.3657c0 0.14817-0.010583 0.27517-0.042333 0.40217-0.16933 0.6985-0.74083 1.1112-1.3652 1.1112-1.0054 0-1.5134-0.85725-1.5134-1.8944 0-1.1324 0.5715-1.9791 1.5346-1.9791 0.6985 0 1.2065 0.48683 1.3441 1.0795 0.03175 0.11642 0.042333 0.27517 0.042333 0.39159z"/>
  <path d="m4.8952 111.96 1.5452 5.1223h0.84666l0.8255-2.4342c0.17992-0.55033 0.33867-1.0795 0.46567-1.6933h0.021167c0.127 0.60324 0.27517 1.1112 0.45508 1.6827l0.78316 2.4447h0.84666l1.651-5.1223h-0.92075l-0.73025 2.5717c-0.16933 0.60325-0.30692 1.143-0.39158 1.6616h-0.03175c-0.11642-0.51859-0.26458-1.0583-0.45508-1.6722l-0.79375-2.5612h-0.78316l-0.83608 2.6141c-0.16933 0.55033-0.33867 1.1007-0.45508 1.6192h-0.03175c-0.09525-0.52917-0.23283-1.0583-0.381-1.6298l-0.67733-2.6035z"/>
  <path d="m17.278 114.69c0.01058-0.0953 0.03175-0.24342 0.03175-0.43392 0-0.94191-0.4445-2.413-2.1167-2.413-1.4922 0-2.4024 1.2171-2.4024 2.7622s0.94191 2.5823 2.5188 2.5823c0.81491 0 1.3758-0.16934 1.7039-0.3175l-0.15875-0.66675c-0.34925 0.14817-0.75141 0.26458-1.4182 0.26458-0.93133 0-1.7357-0.51858-1.7568-1.778zm-3.5877-0.66675c0.07408-0.64558 0.48683-1.5134 1.4287-1.5134 1.0477 0 1.3017 0.92075 1.2912 1.5134z"/>
  <path d="m18.103 116.84c0.35983 0.21166 0.87841 0.34925 1.4393 0.34925 1.2171 0 1.9156-0.635 1.9156-1.5346 0-0.762-0.45508-1.2065-1.3441-1.5452-0.66675-0.254-0.97366-0.4445-0.97366-0.86783 0-0.381 0.30692-0.6985 0.85725-0.6985 0.47625 0 0.84666 0.16933 1.0477 0.29633l0.23283-0.67733c-0.28575-0.16933-0.74083-0.3175-1.2594-0.3175-1.1007 0-1.7674 0.67733-1.7674 1.5028 0 0.61383 0.43392 1.1218 1.3547 1.4499 0.68791 0.254 0.9525 0.49742 0.9525 0.94191 0 0.42334-0.3175 0.762-0.99483 0.762-0.46566 0-0.9525-0.1905-1.2277-0.37041z"/>
  <path d="m22.866 110.73v1.2277h-0.79375v0.70908h0.79375v2.794c0 0.60325 0.09525 1.0583 0.35983 1.3335 0.22225 0.254 0.5715 0.39159 1.0054 0.39159 0.35983 0 0.64558-0.0529 0.8255-0.127l-0.04233-0.6985c-0.11642 0.0318-0.29633 0.0635-0.53975 0.0635-0.51858 0-0.6985-0.35983-0.6985-0.99483v-2.7622h1.3335v-0.70908h-1.3335v-1.4711z"/>
 </g>
</svg>
