<svg enable-background="new 0 0 392 104" version="1.1" viewBox="0 0 392 104" xml:space="preserve" xmlns="http://www.w3.org/2000/svg">
<style type="text/css">
	.st0{fill:#FF2842;}
</style>
	<polygon class="st0" points="68.7 93.9 54.7 104 40.7 93.9 54.7 83.7"/>
	<polygon class="st0" points="90.4 58.1 104.1 48.1 109.4 64.2 95.6 74.3"/>
	<polygon class="st0" points="93.6 16.2 76.6 16.2 71.4 0 88.4 0"/>
	<polygon class="st0" points="21.1 0 38 0 32.7 16.2 15.8 16.2"/>
	<polygon class="st0" points="0 64.2 5.3 48.2 18.9 58.1 13.7 74.1"/>
	<polygon class="st0" points="82 84.2 54.7 64.4 27.4 84.2 37.8 52.1 10.5 32.2 44.2 32.2 54.7 0 65.1 32.2 98.9 32.2 71.6 52.1"/>
	<path class="st0" d="m126.6 48.9c0-10.6 6.7-17.3 15.6-17.3 9.8 0 15 7.5 15 16 0 10.6-6.7 17.3-15.6 17.3-9.7 0-15-7.5-15-16zm23.4-0.4c0-7.7-2.4-15.1-8.3-15.1-5.4 0-7.9 7-7.9 14.5 0 7.7 2.5 15.1 8.3 15.1 5.5 0.1 7.9-7 7.9-14.5z"/>
	<path class="st0" d="m176.6 47.4c0-2.7-1-4-3.6-4-1.9 0-3.7 0.9-5.2 1.9v15.6c0 1.6 0.7 1.9 2.8 2v1.5h-12.1v-1.4c2.2-0.1 2.9-0.4 2.9-2v-16.4l-2.8-1.6v-0.9l8.3-2.5h1.1l-0.2 4.5c2-2.3 4.6-4.5 8.5-4.5 4.3 0 6.6 2.5 6.6 7.5v13.9c0 1.6 0.7 1.9 2.9 2v1.5h-12.1v-1.5c2.1-0.1 2.8-0.4 2.8-2v-13.6z"/>
	<path class="st0" d="m201.6 31.5v-1l8.2-2.2h1v31.3c0 1.6 0.1 2.1 1.8 2.2l1.2 0.1v1.4l-8.4 1.7h-1.2l0.2-4.3c-1.8 2.6-4.2 4.3-7.4 4.3-5.6 0-9.3-4.5-9.3-11.6 0-8.7 5.2-13.8 11.8-13.8 2.1 0 3.9 0.6 5 1.6v-8.3l-2.9-1.4zm-7.7 19.7c0 5.6 2.3 9.8 6.5 9.8 1.6 0 2.9-0.5 3.9-1.5v-12.2c0-3.6-1.5-5.7-4.3-5.7-3.9 0-6.1 3.8-6.1 9.6z"/>
	<path class="st0" d="m235.1 59.4c0 1.6 0.3 2.6 1.5 2.6 0.7 0 1.3-0.2 1.8-0.5l0.3 1c-1.3 1.6-3.1 2.4-5.3 2.4-2.5 0-4.2-1.5-4.6-4.1-1.5 1.9-3.9 4-7.2 4-3.7 0-6.2-2.3-6.2-6 0-4 2.9-5.6 6.3-6.9l7-2.5v-3.9c0-2.6-0.9-4.5-3.3-4.5-2.2 0-3.1 1.7-3.1 3.9 0 0.9 0.1 1.8 0.4 2.9l-3.8 0.5c-1.2-0.4-2-1.4-2-2.9 0-3.8 4-5.8 9.1-5.8 5.9 0 9.2 2.2 9.2 7.6v12.2zm-6.4 0.4v-8.6l-4 1.6c-1.9 0.7-3.1 1.8-3.1 4.4 0 2.4 1.1 4.1 3.6 4.1 1.3 0 2.2-0.6 3.5-1.5z"/>
	<path class="st0" d="m267.3 39.7-8.9 24.8h-2.3l-9.3-24.8-2.4 19.1c0 0.3-0.1 1-0.1 1.1 0 2.3 1 2.7 4.4 3v1.6h-10.7v-1.6c2.6-0.1 3.6-0.6 3.8-2.8l2.9-23.1c0-2.4-0.9-3.2-3.9-3.4v-1.6h10.4c0.1 1.1 0.4 1.8 0.7 2.8l7.5 20.2 7-20.2c0.4-1 0.6-1.7 0.7-2.8h10.3v1.6c-3 0.1-3.9 0.9-3.9 3.4l2.9 23.1c0.3 2.2 1.2 2.6 3.8 2.8v1.6h-15v-1.6c3.2-0.2 4.3-0.7 4.3-3 0-0.1 0-0.8-0.1-1.1l-2.1-19.1z"/>
	<path class="st0" d="m301.6 59.4c0 1.6 0.3 2.6 1.5 2.6 0.7 0 1.3-0.2 1.8-0.5l0.3 1c-1.3 1.6-3.1 2.4-5.3 2.4-2.5 0-4.2-1.5-4.6-4.1-1.5 1.9-3.9 4-7.2 4-3.7 0-6.2-2.3-6.2-6 0-4 2.9-5.6 6.3-6.9l7-2.5v-3.9c0-2.6-0.9-4.5-3.3-4.5-2.2 0-3.1 1.7-3.1 3.9 0 0.9 0.1 1.8 0.4 2.9l-3.8 0.5c-1.2-0.4-2-1.4-2-2.9 0-3.8 4-5.8 9.1-5.8 5.9 0 9.2 2.2 9.2 7.6v12.2zm-6.3 0.4v-8.6l-4 1.6c-1.9 0.7-3.1 1.8-3.1 4.4 0 2.4 1.1 4.1 3.6 4.1 1.2 0 2.2-0.6 3.5-1.5z"/>
	<path class="st0" d="m320.1 31.5v-1l8.2-2.2h1v31.3c0 1.6 0.1 2.1 1.8 2.2l1.2 0.1v1.4l-8.4 1.7h-1.2l0.2-4.3c-1.8 2.6-4.2 4.3-7.4 4.3-5.6 0-9.3-4.5-9.3-11.6 0-8.7 5.2-13.8 11.8-13.8 2.1 0 3.9 0.6 5 1.6v-8.3l-2.9-1.4zm-7.6 19.7c0 5.6 2.3 9.8 6.5 9.8 1.6 0 2.9-0.5 3.9-1.5v-12.2c0-3.6-1.5-5.7-4.3-5.7-3.9 0-6.1 3.8-6.1 9.6z"/>
	<path class="st0" d="m342.2 60.6c0 1.9 1.1 2.2 3.9 2.4v1.5h-13.2v-1.5c2.2-0.1 2.9-0.4 2.9-2v-16.4l-2.8-1.6v-0.9l8.3-2.5h1.1l-0.2 6.8c2.2-5 3.6-6.8 6.3-6.8 1 0 1.7 0.3 2 0.8v5h-0.9c-2.9 0-5.1 0.1-7.5 2.5v12.7z"/>
	<path class="st0" d="m361.2 60.9c0 1.6 0.7 1.9 2.9 2v1.5h-12.2v-1.4c2.2-0.1 2.9-0.4 2.9-2v-16.4l-2.8-1.6v-0.9l8.1-2.5h1v21.3zm-7.1-27.8c0-2 1.5-3.7 3.7-3.7 2.3 0 3.8 1.7 3.8 3.7 0 1.9-1.5 3.7-3.8 3.7-2.1 0-3.7-1.8-3.7-3.7z"/>
	<path class="st0" d="m379.8 31.5v-1l8.2-2.2h1v31.3c0 1.6 0.1 2.1 1.8 2.2l1.2 0.1v1.4l-8.4 1.7h-1.2l0.2-4.3c-1.8 2.6-4.2 4.3-7.4 4.3-5.6 0-9.3-4.5-9.3-11.6 0-8.7 5.2-13.8 11.8-13.8 2.1 0 3.9 0.6 5 1.6v-8.3l-2.9-1.4zm-7.7 19.7c0 5.6 2.3 9.8 6.5 9.8 1.6 0 2.9-0.5 3.9-1.5v-12.2c0-3.6-1.5-5.7-4.3-5.7-3.8 0-6.1 3.8-6.1 9.6z"/>
</svg>
