<svg width="800" height="301.47" space="preserve" version="1.1" viewBox="0 0 800 301.47" xmlns="http://www.w3.org/2000/svg">
 <link href="" rel="stylesheet" type="text/css"/>
 <style type="text/css"/>
 <defs>
  <clipPath id="clipPath4150">
   <path d="m0 149.87h397.7v-149.87h-397.7z"/>
  </clipPath>
 </defs>
 <g transform="matrix(1.25 0 0 -1.25 0 301.47)">
  <g transform="scale(1.6092)">
   <g clip-path="url(#clipPath4150)">
    <g transform="translate(81.398 134.67)">
     <path d="m67.336-67.336c0-37.189-30.147-67.337-67.336-67.337s-67.336 30.148-67.336 67.337 30.147 67.336 67.336 67.336 67.336-30.147 67.336-67.336zm-96.919-1c0-5.356 1.421-10.375 3.994-14.853l25.589-44.259 25.662 44.384c2.494 4.336 3.921 9.368 3.921 14.728 0 16.338-13.245 29.583-29.583 29.583s-29.583-13.245-29.583-29.583z" fill="#009ddc"/>
    </g>
    <g transform="translate(24.833 106.86)">
     <path d="M -24.833,43.01 56.564,43.009 137.962,43.01 113.129,0 C 100.654,17.822 79.97,29.476 56.564,29.476 33.159,29.476 12.476,17.822 0,0 Z" fill="#b20738" fill-rule="evenodd"/>
    </g>
    <g transform="translate(81.398 94.258)">
     <path d="m-27.921-27.922c0-5.053 1.337-9.786 3.771-14.024l24.15-41.768 24.223 41.894c2.352 4.091 3.699 8.838 3.699 13.898 0 15.421-12.501 27.922-27.922 27.922s-27.921-12.501-27.921-27.922z" fill="#b20738"/>
    </g>
    <g transform="translate(176.61 58.454)">
     <path d="m0 0h0.988c3.324 0 7.064-0.624 7.064-4.884s-3.74-4.883-7.064-4.883h-0.988zm10.079-15.325c5.559 0.987 8.572 5.662 8.572 11.065 0 8.364-5.871 12.052-13.612 12.052h-15.221v-39.17h10.182v15.065h0.104l9.611-15.065h12.676z" fill="#009ddc" fill-rule="evenodd"/>
    </g>
    <g transform="translate(228.92 39.803)">
     <path d="m0 0c0 9.092-5.352 14.806-14.599 14.806-8.675 0-14.754-5.35-14.754-14.234 0-9.196 6.599-14.182 15.43-14.182 3.065 0 6.078 0.726 8.52 2.234 2.441 1.505 4.311 3.792 5.039 6.909h-9.092c-1.039-1.767-2.493-2.442-4.52-2.442-3.896 0-5.921 2.077-5.921 5.922h19.897zm-19.742 4.468c0.572 2.754 2.857 4.208 5.611 4.208 2.546 0 4.883-1.662 5.351-4.208z" fill="#009ddc" fill-rule="evenodd"/>
    </g>
    <g transform="translate(247.26 46.609)">
     <path d="m6.078-6.027c0-3.376-2.234-5.973-6.078-5.973-3.845 0-6.079 2.597-6.079 5.973 0 3.273 2.234 6.027 6.079 6.027 3.844 0 6.078-2.754 6.078-6.027zm9.143 13.144h-9.455v-2.805h-0.104c-1.87 2.649-4.727 3.688-7.845 3.688-8.155 0-13.662-6.65-13.662-14.442 0-7.688 5.351-13.611 13.143-13.611 3.533 0 6.027 1.195 8.468 3.636v-1.247c0-4.311-0.987-7.636-6.078-7.636-0.883 0-1.871 0.208-2.701 0.623-0.832 0.416-1.507 1.091-1.766 2.027h-10.598c0.831-7.014 9.039-10.183 15.169-10.183 9.819 0 15.429 4.572 15.429 15.897z" fill="#009ddc" fill-rule="evenodd"/>
    </g>
    <g transform="translate(273.13 69.259)">
     <path d="m-5.299-5.298c0-2.91 2.39-5.3 5.299-5.3s5.299 2.39 5.299 5.3c0 2.909-2.39 5.298-5.299 5.298s-5.299-2.389-5.299-5.298zm10.027-10.235h-9.456v-26.651h9.456z" fill="#009ddc" fill-rule="evenodd"/>
    </g>
    <g transform="translate(298.17 46.4)">
     <path d="m6.078-6.026c0-3.377-2.234-5.974-6.078-5.974s-6.078 2.597-6.078 5.974c0 3.273 2.234 6.026 6.078 6.026s6.078-2.753 6.078-6.026zm-22.13 0c0-9.091 7.532-14.182 16.052-14.182 8.572 0 16.053 5.143 16.053 14.182 0 9.091-7.481 14.234-16.053 14.234s-16.052-5.143-16.052-14.234z" fill="#009ddc" fill-rule="evenodd"/>
    </g>
    <g transform="translate(327.94 53.726)">
     <path d="m0 0h-9.455v-26.651h9.455v13.819c0 3.325 1.091 6.182 4.936 6.182 4.675 0 4.259-4.468 4.259-7.013v-12.988h9.455v16.468c0 6.546-2.857 11.066-10.026 11.066-3.688 0-6.338-1.091-8.52-4.312h-0.104z" fill="#009ddc" fill-rule="evenodd"/>
    </g>
    <g transform="translate(381.96 53.726)">
     <path d="m0 0h-9.456v-2.598c-1.973 2.338-5.194 3.481-8.259 3.481-7.896 0-13.352-6.546-13.352-14.182 0-7.637 5.559-14.235 13.455-14.235 3.117 0 6.39 1.195 8.053 3.845h0.103v-2.962h9.456zm-9.143-13.352c0-3.377-2.235-5.973-6.079-5.973s-6.078 2.596-6.078 5.973c0 3.273 2.234 6.026 6.078 6.026s6.079-2.753 6.079-6.026z" fill="#009ddc" fill-rule="evenodd"/>
    </g>
    <path d="m397.7 70.194h-9.455v-43.119h9.455z" fill="#009ddc" fill-rule="evenodd"/>
    <g transform="translate(186.11 109.62)">
     <path d="m11.066-10.338c0-6.754-4.987-11.689-11.066-11.689-6.078 0-11.065 4.935-11.065 11.689 0 5.403 4.987 10.338 11.065 10.338 6.079 0 11.066-4.935 11.066-10.338zm-32.729 0.052c0-12.676 9.092-21.611 21.663-21.611 12.572 0 21.664 8.935 21.664 21.611 0 11.845-10.39 20.157-21.664 20.157-11.273 0-21.663-8.312-21.663-20.157z" fill="#009ddc" fill-rule="evenodd"/>
    </g>
    <g transform="translate(221.75 105.68)">
     <path d="m0 0h-9.455v-26.651h9.455v13.819c0 3.325 1.091 6.182 4.936 6.182 4.675 0 4.259-4.468 4.259-7.013v-12.988h9.455v16.469c0 6.545-2.857 11.065-10.026 11.065-3.688 0-6.338-1.091-8.52-4.312h-0.104z" fill="#009ddc" fill-rule="evenodd"/>
    </g>
    <g transform="translate(260.92 98.351)">
     <path d="m6.078-6.026c0-3.377-2.234-5.974-6.078-5.974-3.845 0-6.078 2.597-6.078 5.974 0 3.273 2.233 6.026 6.078 6.026 3.844 0 6.078-2.753 6.078-6.026zm-0.312-13.299h9.456v43.119h-9.456v-19.066c-1.974 2.337-5.195 3.48-8.26 3.48-7.897 0-13.351-6.544-13.351-14.182 0-7.636 5.558-14.234 13.455-14.234 3.117 0 6.39 1.194 8.053 3.845h0.103z" fill="#009ddc" fill-rule="evenodd"/>
    </g>
    <g transform="translate(311.21 105.68)">
     <path d="m0 0h-9.456v-2.598c-1.973 2.338-5.194 3.481-8.259 3.481-7.897 0-13.352-6.545-13.352-14.182s5.559-14.235 13.455-14.235c3.117 0 6.39 1.195 8.052 3.845h0.104v-2.962h9.456zm-9.143-13.352c0-3.377-2.235-5.973-6.079-5.973s-6.078 2.596-6.078 5.973c0 3.273 2.234 6.026 6.078 6.026s6.079-2.753 6.079-6.026z" fill="#009ddc" fill-rule="evenodd"/>
    </g>
   </g>
  </g>
 </g>
</svg>
