<svg id="a" width="708.66" height="437.45" version="1.0" xmlns="http://www.w3.org/2000/svg">
 <link id="b" href="" rel="stylesheet" type="text/css"/>
 <style id="c" type="text/css"/>
 <g id="d" transform="translate(-346.68 -198.94)" fill="#fff">
  <g id="e" transform="translate(35.433 35.51)" fill="#fff" fill-rule="evenodd">
   <path id="f" d="m1015.2 590.87-3.7496 4.9994h-15.748l-4.7494-2.4997-0.4999-37.495 3.9995-4.9994h15.748l4.4994 2.4997zm4.7494 0v-34.996c0-2.4997-0.4999-2.4997-1.7498-4.9994l-3.7495-2.4997c-1.2499-2.4997-2.7497-2.4997-4.2495-2.4997h-14.748c-1.4998 0-2.9996 0-4.2494 2.4997l-3.7495 2.4997c-1.2499 2.4997-1.7498 2.4997-1.7498 4.9994v34.996c0 2.4997 0.4999 2.4997 1.7498 4.9994l3.7495 2.4997c1.2498 2.4997 2.7496 2.4997 4.2494 2.4997h14.748c1.4998 0 2.9996 0 4.2495-2.4997l3.7495-2.4997c1.2499-2.4997 1.7498-2.4997 1.7498-4.9994z"/>
   <path id="g" d="m558.22 215.92h214.72v214.97h-214.72zm-53.993-22.497-192.98-24.997v-4.9994h708.66v4.9994l-192.98 24.997v2.4997l192.98 2.4997v4.9994l-192.98 19.998v4.9994l192.98 4.9994v4.9994l-192.98 17.498v4.9994l192.98 7.4991v4.9994l-192.98 14.998v4.9994l192.98 12.498v2.4997l-192.98 12.498v2.4997l192.98 12.498v4.9994l-192.98 12.498v2.4997l192.98 14.998v4.9994l-192.98 7.4991v4.9994l192.98 17.498v4.9994l-192.98 4.9994v4.9994l192.98 19.998v4.9994l-192.98 2.4997v4.9994l192.98 22.497v4.9994h-708.66v-4.9994l192.98-22.497v-4.9994l-192.98-2.4997v-4.9994l192.98-19.998v-4.9994l-192.98-4.9994v-4.9994l192.98-17.498v-4.9994l-192.98-7.4991v-4.9994l192.98-14.998v-2.4997l-192.98-12.498v-4.9994l192.98-12.498v-2.4997l-192.98-12.498v-2.4997l192.98-12.498v-4.9994l-192.98-14.998v-4.9994l192.98-7.4991v-4.9994l-192.98-17.498v-4.9994l192.98-4.9994v-4.9994l-192.98-19.998v-4.9994l192.98-2.4997z"/>
   <path id="h" d="m968.42 600.87v-7.4991h-6.9991v7.4991z"/>
   <path id="i" d="m932.67 580.87h-20.248l20.248-29.996zm11.748 4.9994v-4.9994h-6.9991v-34.996h-6.9991l-23.247 34.996v4.9994h25.497v14.998h4.7494v-14.998z"/>
   <path id="j" d="m889.43 565.88-7.749 7.4991-11.998 2.4997-4.7494-4.9994-0.25-14.998 3.7495-4.9994h15.748l4.7495 2.4997zm4.4994 24.997v-34.996c0-2.4997-0.2499-2.4997-1.4998-4.9994l-3.9995-2.4997c-0.9998-2.4997-2.4997-2.4997-3.9995-2.4997h-14.748c-1.7498 0-2.9997 0-4.2495 2.4997l-3.9995 2.4997c-0.9999 2.4997-1.4998 2.4997-1.4998 4.9994v14.998s0.4999 2.4997 1.4998 2.4997l3.9995 4.9994c1.2498 0 2.4997 2.4997 4.2495 2.4997h10.999c1.4998 0 2.9996-2.4997 4.2494-2.4997l4.4995-4.9994v17.498l-3.9995 4.9994h-15.748l-6.7492-4.9994-3.2496 2.4997 5.7493 4.9994c1.2498 2.4997 2.4997 2.4997 4.2495 2.4997h14.748c1.4998 0 2.9997 0 3.9995-2.4997l3.9995-2.4997c1.2499-2.4997 1.4998-2.4997 1.4998-4.9994z"/>
   <path id="k" d="m844.93 600.87v-9.9987h-27.247v-12.498h27.247v-9.9987h-27.247v-12.498h27.247v-9.9988h-37.245v54.993z"/>
   <path id="l" d="m792.69 600.87-2.2497-9.9987v-22.497h-23.747v9.9987h13.748v4.9994l-7.999 7.4991h-14.248l-4.4995-2.4997-0.49992-27.497 3.7495-4.9994h18.498l6.7492 4.9994 6.7492-7.4991-7.2491-4.9994c-0.9999-2.4997-2.4997-2.4997-3.9995-2.4997h-21.747c-1.4998 0-2.9996 0-3.9995 2.4997l-6.9991 4.9994c-0.99988 2.4997-1.7498 2.4997-1.7498 4.9994v29.996c0 2.4997 0.7499 2.4997 1.7498 4.9994l6.9991 4.9994c0.99988 2.4997 2.4997 2.4997 3.9995 2.4997h16.998c1.4998 0 2.9996 0 3.9995-2.4997l5.4993-4.9994 1.2498 7.4991z"/>
   <path id="m" d="m726.95 600.87v-54.993h-9.7488v42.495l-18.248-42.495h-13.998v54.993h9.7488v-42.495l18.248 42.495z"/>
   <path id="n" d="m654.46 578.37h-15.248l7.749-22.497zm18.748 22.497-20.247-54.993h-11.749l-20.497 54.993h9.7488l5.2494-14.998h22.247l5.2493 14.998z"/>
   <path id="o" d="m599.71 565.88-2.2497 2.4997h-19.748v-12.498h18.498l2.9996 2.4997zm13.998 34.996-17.248-22.497h5.9993l5.4993-7.4991c1.2499 0 1.7498-2.4997 1.7498-2.4997v-12.498s-0.49992-2.4997-1.7498-2.4997l-5.4993-7.4991h-34.746v54.993h9.9987v-22.497h5.9993l17.748 22.497z"/>
   <path id="p" d="m541.47 585.87-3.7495 4.9994h-18.498l-4.4994-2.4997-0.49995-27.497 3.7495-4.9994h18.498l4.4994 2.4997zm9.9988 2.4997v-29.996c0-2.4997-0.7499-2.4997-1.7498-4.9994l-6.9991-4.9994c-0.99987-2.4997-2.4997-2.4997-3.9995-2.4997h-21.747c-1.4998 0-2.9996 0-4.2494 2.4997l-6.7492 4.9994c-1.2498 2.4997-1.7498 2.4997-1.7498 4.9994v29.996c0 2.4997 0.49993 2.4997 1.7498 4.9994l6.7492 4.9994c1.2498 2.4997 2.7496 2.4997 4.2494 2.4997h21.747c1.4998 0 2.9996 0 3.9995-2.4997l6.9991-4.9994c0.99988-2.4997 1.7498-2.4997 1.7498-4.9994z"/>
  </g>
 </g>
</svg>
