<svg id="a" version="1.1" viewBox="0 0 625.5 730.3" xml:space="preserve" xmlns="http://www.w3.org/2000/svg">
<path id="b" class="st0" d="m616.9 304.1-142.4-142.3v284.7zm-220.6-5.1 1.2-1.2-37.6-37.6v-52.6l80.3-80.3-127.5-127.3-304.2 304.1 304.3 304.1 84.6-84.5v-224.7z" fill="#ba151b"/>
<path id="c" class="st1" d="m474.5 161.8-34.4-34.4-80.3 80.3v52.6l37.6 37.6-1.2 1.2h1v224.7l77.2-77.2z" fill="#fff"/>
<path id="d" class="st2" d="m34.4 662.8h12.3v-10.7h-12.3v10.7zm-18.4 0h12.3v-10.7h-12.3v10.7zm596.7 66.5h12.8v-59.4h-8.8l-16.9 5.1 2.7 10.6 10.3-2.5v46.2zm-98.9 0h13v-23.7h23.9v23.7h13v-59h-13v23.3h-23.9v-23.3h-13zm-35.4 1c11.4 0 18.1-4 24.2-10.5l-8.2-8.3c-4.6 4.2-8.8 6.9-15.5 6.9-10.1 0-17.1-8.4-17.1-18.5v-0.2c0-10.1 7.2-18.4 17.1-18.4 5.9 0 10.5 2.5 15.1 6.7l8.2-9.5c-5.5-5.4-12.1-9.1-23.3-9.1-18.1 0-30.7 13.7-30.7 30.5v0.2c0 16.9 12.8 30.2 30.2 30.2m-56.2-1h13v-59h-13zm-57.9 0h44.9v-11.5h-32v-12.4h27.8v-11.5h-27.8v-12h31.6v-11.5h-44.5zm-48.7-30.3v-16.9h12.9c6.3 0 10.2 2.9 10.2 8.4v0.2c0 5-3.6 8.3-9.9 8.3zm-13 30.3h13v-18.9h10.2l12.6 18.9h15.1l-14.4-21.1c7.5-2.8 12.6-8.8 12.6-18.3v-0.2c0-5.6-1.8-10.2-5-13.5-3.9-3.9-9.7-6-17.2-6h-27zm-48.8-30.3v-16.9h12.9c6.3 0 10.2 2.9 10.2 8.4v0.2c0 5-3.6 8.3-9.9 8.3zm-13 30.3h13v-18.9h10.2l12.6 18.9h15.1l-14.4-21.1c7.5-2.8 12.6-8.8 12.6-18.3v-0.2c0-5.6-1.8-10.2-5.1-13.5-3.9-3.9-9.7-6-17.2-6h-27v59.1zm-57.2 0h44.9v-11.5h-32v-12.4h27.8v-11.5h-27.8v-12h31.5v-11.5h-44.5v58.9zm-41.7 0h13v-47h17.9v-11.9h-48.8v11.9h17.9zm-46.3 0.9c12.7 0 21.6-6.6 21.6-18.3v-0.2c0-10.3-6.7-14.6-18.7-17.7-10.2-2.6-12.7-3.9-12.7-7.8v-0.2c0-2.9 2.6-5.1 7.6-5.1s10.1 2.2 15.3 5.8l6.7-9.8c-6-4.8-13.3-7.5-21.9-7.5-12 0-20.6 7.1-20.6 17.8v0.2c0 11.7 7.7 15 19.5 18.1 9.9 2.5 11.9 4.2 11.9 7.5v0.2c0 3.5-3.2 5.6-8.5 5.6-6.7 0-12.3-2.8-17.6-7.2l-7.7 9.2c7.2 6.2 16.2 9.4 25.1 9.4m-64.2-11.8c-10.4 0-17.9-8.4-17.9-18.5v-0.2c0-10.1 7.3-18.4 17.7-18.4s17.9 8.4 17.9 18.5v0.2c0 10.1-7.3 18.4-17.7 18.4m-0.2 11.9c18.2 0 31.4-13.7 31.4-30.5v-0.2c0-16.8-13.1-30.3-31.3-30.3-18.1 0.1-31.3 13.8-31.3 30.5v0.2c0 16.8 13 30.3 31.2 30.3" fill="#231f20"/>
</svg>
