<svg version="1.1" viewBox="0 0 768.37 800" xmlns="http://www.w3.org/2000/svg">
 <g transform="matrix(8.8418 0 0 8.8418 0 -2.7093)" fill-rule="evenodd">
  <path d="m21.742 39.189h4.3079v-5.7486c0-1.877 0.41075-3.261 1.2329-4.1517 0.8218-0.89008 1.9504-1.3356 3.3866-1.3356h0.22675v-4.6162c-1.285-0.05791-2.3053 0.23225-3.0608 0.87109-0.75602 0.63884-1.3511 1.4906-1.7855 2.5547v-3.1354h-4.3079zm15.757-3.2518c-0.4347-0.32876-0.65174-0.79326-0.65174-1.3935v-0.05791c0-0.69705 0.26433-1.229 0.79361-1.5969 0.52867-0.36737 1.2562-0.55152 2.1823-0.55152 0.52867 0 1.0246 0.05331 1.4878 0.15963 0.46258 0.10663 0.88304 0.24665 1.261 0.42099v0.78376c0 0.81287-0.30738 1.4713-0.92093 1.9744-0.61415 0.50341-1.4314 0.75466-2.4515 0.75466-0.69933 0-1.2662-0.16423-1.7006-0.49361zm3.0893 3.0051c0.73692-0.35818 1.3696-0.83708 1.8988-1.4373v1.684h4.166v-9.0292c0-1.0451-0.13247-1.9888-0.3968-2.8308-0.26464-0.84198-0.68024-1.5531-1.2468-2.1338-0.54837-0.56132-1.2426-0.99181-2.0832-1.2921-0.8409-0.29996-1.8564-0.4501-3.0465-0.4501-1.2853 0-2.3808 0.11612-3.2875 0.34837-0.90698 0.23225-1.7764 0.53252-2.6076 0.9002l1.077 3.3676c0.69873-0.27055 1.3647-0.4789 1.998-0.62413 0.63295-0.14523 1.3647-0.21754 2.1965-0.21754 1.0767 0 1.8891 0.24205 2.4372 0.72555 0.54777 0.48411 0.8218 1.1904 0.8218 2.1197v0.26105c-0.54807-0.19303-1.1101-0.34837-1.686-0.4645-0.57656-0.11612-1.252-0.17403-2.0265-0.17403-0.90698 0-1.7336 0.10142-2.48 0.30487-0.74662 0.20314-1.3887 0.50801-1.927 0.9146-0.53837 0.40628-0.95912 0.9195-1.261 1.5387-0.30253 0.61954-0.45349 1.3549-0.45349 2.2064v0.05822c0 0.77426 0.13671 1.4566 0.41075 2.0467 0.27373 0.59073 0.6472 1.0886 1.1195 1.4952 0.47198 0.40628 1.0249 0.71115 1.6579 0.9146 0.63295 0.20314 1.3083 0.30487 2.0265 0.30487 1.0579 0 1.9555-0.17924 2.6925-0.53712zm20.632-0.20345c0.94457-0.5319 1.7855-1.2143 2.5224-2.0467l-2.5224-2.613c-0.52897 0.50341-1.0628 0.9051-1.6012 1.2048-0.53837 0.30027-1.1668 0.4501-1.8846 0.4501-0.58596 0-1.1149-0.11122-1.5872-0.33397-0.47229-0.22214-0.87849-0.527-1.2186-0.91429-0.34012-0.38698-0.59991-0.84198-0.77936-1.3647-0.17976-0.52271-0.26918-1.0837-0.26918-1.684v-0.05791c0-0.58062 0.08942-1.1275 0.26918-1.6405 0.17946-0.5126 0.43439-0.9627 0.76512-1.35 0.33042-0.38698 0.71783-0.69184 1.1622-0.9146 0.44349-0.22244 0.93942-0.33397 1.4878-0.33397 0.77451 0 1.4214 0.15534 1.9413 0.4645 0.51958 0.31007 1.0246 0.72586 1.5163 1.2486l2.6358-2.9034c-0.71843-0.81287-1.5496-1.4517-2.4942-1.9162-0.94487-0.4645-2.1353-0.69675-3.5709-0.69675-1.1716 0-2.2438 0.21325-3.2166 0.63884-0.97337 0.42589-1.8094 1.0065-2.5081 1.7419-0.69933 0.73597-1.2471 1.5969-1.6436 2.5838-0.3968 0.98721-0.59536 2.0323-0.59536 3.1357v0.05822c0 1.103 0.19855 2.1439 0.59536 3.121 0.3965 0.97771 0.94427 1.8292 1.6436 2.5547 0.69873 0.72586 1.5348 1.3022 2.5081 1.7275 0.97276 0.42559 2.0265 0.63884 3.1599 0.63884 1.5114 0 2.7394-0.26626 3.6843-0.79847z" fill="#fff"/>
  <path d="m67.846 19.97c5.2079 7.3551 7.8843 16.631 6.8842 26.378-2.1501 20.955-20.475 36.156-40.929 33.953-12.874-1.3861-23.524-9.3365-29.113-20.264l-4.6883 3.0554c5.9724 12.154 17.67 21.039 31.861 22.567 22.174 2.3874 42.039-14.092 44.369-36.807 1.0928-10.654-1.8652-20.787-7.602-28.791z" fill="#e01b22"/>
  <path d="m16.051 8.6021c8.5454-5.5142 19.033-7.9384 29.77-6.0486 23.081 4.0631 38.577 26.525 34.611 50.169-2.496 14.882-12.107 26.686-24.643 32.378l3.0395 5.6846c13.925-6.0468 24.651-19.001 27.403-35.405 4.2994-25.632-12.499-49.982-37.52-54.386-11.735-2.0657-23.194 0.6226-32.499 6.7046z" fill="#e01b22"/>
  <path d="m33.82 75.105c-7.3156-1.1928-14.243-5.0516-19.272-11.414-10.81-13.676-8.7518-33.74 4.598-44.814 8.4023-6.9702 19.275-8.7179 28.875-5.6463l1.0073-4.6407c-10.534-3.5646-22.565-1.7348-31.826 5.9484-14.472 12.005-16.703 33.755-4.9842 48.581 5.4962 6.9531 13.085 11.148 21.087 12.404z" fill="#e01b22"/>
  <path d="m22.169 63.163h5.2582v-19.882h-3.8817l-5.6435 1.6359 1.0185 4.2301 3.2484-0.7614zm15.746-4.8506c-0.44046-0.2632-0.81665-0.63455-1.1286-1.1141-0.31223-0.47951-0.55534-1.0528-0.72934-1.7204-0.17491-0.66703-0.26161-1.3959-0.26161-2.1855v-0.05638c0-0.78959 0.08245-1.5133 0.24766-2.1714 0.16521-0.65784 0.40347-1.2219 0.7157-1.6922 0.31193-0.46971 0.68357-0.83616 1.1149-1.0997 0.43106-0.2632 0.91274-0.39495 1.4454-0.39495 0.532 0 1.0185 0.13665 1.459 0.40904 0.44046 0.27269 0.81634 0.64864 1.1289 1.1278 0.31162 0.47951 0.55474 1.0485 0.72934 1.7063 0.1743 0.65845 0.26161 1.3819 0.26161 2.1714v0.05638c0 0.78959-0.08276 1.509-0.24766 2.1573-0.16521 0.64864-0.39923 1.2127-0.70206 1.6922s-0.67448 0.85086-1.1149 1.1141c-0.44046 0.2635-0.92699 0.39464-1.459 0.39464-0.53261 0-1.0188-0.13114-1.4593-0.39464zm5.1206 4.4274c1.101-0.54508 2.0413-1.2832 2.8216-2.2137 0.77997-0.93053 1.3765-2.0207 1.7894-3.2714 0.41317-1.2501 0.61961-2.5707 0.61961-3.9623v-0.05638c0-1.391-0.20644-2.7073-0.61961-3.9482-0.41287-1.2409-1.0046-2.3265-1.7755-3.2573-0.77087-0.93053-1.7027-1.6637-2.7943-2.1996-1.0922-0.53589-2.3263-0.80368-3.7025-0.80368-1.3765 0-2.6155 0.27269-3.7164 0.81777-1.1013 0.54539-2.0374 1.2832-2.8079 2.2137-0.77087 0.93084-1.3674 2.0213-1.7894 3.2714-0.42257 1.2507-0.63325 2.5713-0.63325 3.9623v0.05638c0 1.3917 0.20644 2.7073 0.61931 3.9482 0.41317 1.2409 1 2.3268 1.7618 3.2573 0.76148 0.93053 1.6933 1.664 2.7943 2.1996 1.1013 0.53589 2.3399 0.80399 3.7164 0.80399s2.6152-0.273 3.7164-0.81808zm17.921 0.33857c0.97246-0.31957 1.8073-0.78009 2.5051-1.3819 0.69721-0.60146 1.2429-1.3347 1.6378-2.1999 0.39438-0.86435 0.59202-1.8516 0.59202-2.961v-0.05638c0-1.0718-0.1837-2.0023-0.5508-2.7919-0.3671-0.78958-0.85333-1.4382-1.459-1.9459s-1.3074-0.88855-2.1059-1.1422c-0.79846-0.2537-1.6291-0.38055-2.4915-0.38055-0.64265 0-1.2068 0.06587-1.693 0.19732-0.48653 0.13175-0.94972 0.30088-1.3902 0.5077l0.16521-2.9895h8.6715v-4.5123h-12.884l-0.5505 10.012 3.166 1.805c0.45834-0.28188 0.94033-0.51689 1.445-0.70502 0.50472-0.18782 1.0507-0.28189 1.6381-0.28189 0.84393 0 1.5278 0.20222 2.051 0.60636 0.52291 0.40444 0.78452 0.96362 0.78452 1.6778v0.05638c0 0.71482-0.25251 1.2789-0.75723 1.6922-0.50502 0.41364-1.1974 0.62045-2.0783 0.62045-0.82604 0-1.6151-0.18782-2.3675-0.56408-0.75269-0.37595-1.5236-0.90265-2.3126-1.5795l-3.0556 3.6664c1.0091 0.95872 2.1377 1.7201 3.386 2.2842 1.248 0.56408 2.7255 0.84627 4.4322 0.84627 1.1743 0 2.2481-0.15994 3.2211-0.47951z" fill="#e01b22"/>
 </g>
</svg>
