<svg version="1.1" viewBox="0 0 656.81 659.02" xmlns="http://www.w3.org/2000/svg">
 <g transform="matrix(19.048 0 0 19.048 -54.213 -71.414)" fill="none" fill-rule="evenodd">
  <g transform="translate(2.74,3.652)">
   <g fill="#fff">
    <path transform="translate(-2.74,-3.652)" d="m13.601 34.497v-1.2732c0.03832-0.445 0.20896-0.76302 0.51147-0.95721 0.30341-0.19397 0.7087-0.31464 1.2236-0.36065 0.50313-0.04759 1.0847-0.07127 1.7411-0.06112 0.6501 0.0059 1.3387-9.02e-4 2.0686-0.02887 0.16658-0.0115 0.32595-0.03586 0.47923-0.07443 0.15689-0.03947 0.30927-0.09089 0.46232-0.14209v-4.2084h-0.21595c-0.07506 0.08886-0.16771 0.15901-0.26283 0.219-0.09445 0.06067-0.19814 0.11097-0.30972 0.15382-0.3672 0.07015-0.87822 0.12766-1.5216 0.16239-0.64198 0.03947-1.3024 0.07308-1.9755 0.09902-0.67286 0.02097-1.2393 0.05481-1.6969 0.08886-0.57346 0.04082-1.0401 0.23637-1.3998 0.57694-0.35976 0.3435-0.60163 0.78129-0.72268 1.3323h-0.04621c-0.37148-0.79798-0.87236-1.3391-1.4961-1.6307-0.62282-0.28915-1.3739-0.4247-2.2508-0.40688-1.6158 0-2.7807 0.392-3.4905 1.1805-0.71434 0.78986-1.0606 1.9733-1.0457 3.5512v5.6301h16.434v-3.8505zm-6.9926 0c-0.056579-0.9403 0.02705-1.6248 0.25269-2.0597 0.22226-0.4344 0.80428-0.64483 1.7431-0.64348 0.5295-0.01105 0.99498 0.07849 1.3982 0.27404 0.40958 0.19397 0.62034 0.56296 0.64491 1.1097v1.3194zm13.479-11.005-3.2002-0.45812v-3.0396l3.2002-0.55056v-3.9221l-16.435 3.5895v4.6695l16.435 3.6106zm-6.0915-3.125v2.2471l-7.364-1.1226v-0.04577z" fill-rule="evenodd"/>
    <path d="m6.1985 0.22709h-1.3695c-1.6546 0.014326-2.8571 0.4779-3.6063 1.3856-0.75525 0.91283-1.1259 2.1883-1.1163 3.8353-0.0033576 1.7442 0.41859 3.038 1.2723 3.8796 0.85016 0.84053 2.1605 1.2602 3.9258 1.2549h6.7061c1.6732 0.01298 2.9536-0.35994 3.8472-1.1282 0.89269-0.76823 1.3437-2.0231 1.3525-3.7688-0.023056-1.9389-0.46694-3.3536-1.3305-4.2311-0.86202-0.875-2.0099-1.307-3.4355-1.2918h-2.0023v3.8235h1.48c0.53879-0.019698 1.0577 0.052827 1.5537 0.21825 0.49402 0.16878 0.76286 0.5708 0.79912 1.2002-0.0038 0.49648-0.13453 0.84792-0.38814 1.0624-0.25272 0.21131-0.61042 0.31584-1.0682 0.30868l-8.0785-0.023056c-0.54125 0.012535-0.9567-0.081926-1.2571-0.28898-0.30129-0.21108-0.44478-0.60348-0.44187-1.1897 0-0.3671 0.18198-0.65787 0.53342-0.88015 0.3586-0.22026 0.88172-0.33465 1.577-0.34181h1.0471z"/>
   </g>
   <path d="m27.116 34.607h7.4725v-34.509h-5.3096c-0.31517 1.3849-0.96566 2.4683-1.958 3.2484-0.9905 0.77808-2.1487 1.3283-3.47 1.6374-1.3227 0.31383-2.631 0.45485-3.9282 0.42732v5.4007h7.1932z" fill="#df011a"/>
  </g>
 </g>
</svg>
