<svg width="655.72" height="435.18" version="1.1" viewBox="0 0 655.72 435.18" xml:space="preserve" xmlns="http://www.w3.org/2000/svg"><defs><clipPath id="a"><path d="m0 0h521.58v748.35h-521.58z"/></clipPath><mask id="mask1363" maskUnits="userSpaceOnUse"><g transform="matrix(15.756 0 0 -15.756 -6520.6 1246.6)"><g clip-path="url(#a)"><g transform="translate(419.87,71.997)"><path d="m0 0h0.037c0.32 0.647 0.87 0.911 1.508 0.911 0.32 0 0.727-0.158 0.997-0.33l-0.587-1.174c-0.196 0.172-0.476 0.296-0.707 0.296-1.081 0-1.248-0.901-1.248-1.932v-2.825h-1.356v5.8h1.356z" fill="#fff"/></g><g transform="translate(429.76,66.942)"><path d="m0 0h-1.356v0.769h-0.025c-0.442-0.651-1.13-0.966-1.953-0.966-1.757 0-2.826 1.462-2.826 3.108 0 1.622 1.095 3.07 2.789 3.07 0.848 0 1.536-0.317 1.99-1.005h0.025v0.824h1.356zm-1.333 2.904c0 1.044-0.647 1.927-1.789 1.927-1.095 0-1.742-0.929-1.742-1.927 0-1.009 0.624-1.95 1.742-1.95 1.153 0 1.789 0.895 1.789 1.95" fill="#fff"/></g><g transform="translate(436.64,67.708)"><path d="m0 0h-0.024c-0.443-0.651-1.143-0.961-1.954-0.961-1.769 0-2.752 1.461-2.752 3.107 0 1.573 1.082 3.057 2.74 3.057 0.86 0 1.511-0.263 1.966-0.951h0.024v3.39h1.357v-8.407h-1.357zm0.062 2.143c0 1.041-0.637 1.921-1.76 1.921-1.077 0-1.713-0.926-1.713-1.921 0-1.007 0.614-1.945 1.713-1.945 1.135 0 1.76 0.893 1.76 1.945" fill="#fff"/></g><g transform="translate(442.08,74.611)"><path d="m0 0c0-0.469-0.385-0.841-0.854-0.841-0.468 0-0.855 0.372-0.855 0.841 0 0.482 0.387 0.867 0.855 0.867 0.469 0 0.854-0.385 0.854-0.867m-0.164-7.668h-1.356v5.8h1.356z" fill="#fff"/></g><g transform="translate(450.67,69.823)"><path d="m0 0c0-1.742-1.406-3.078-3.197-3.078s-3.197 1.336-3.197 3.078 1.406 3.077 3.197 3.077 3.197-1.335 3.197-3.077m-5.088 0.012c0-1.002 0.837-1.856 1.886-1.856s1.886 0.854 1.886 1.856c0 1.013-0.837 1.856-1.886 1.856s-1.886-0.843-1.886-1.856" fill="#fff"/></g></g></g><path d="m94.794 313.93 32.015-30.991h27.399l-40.43 38.035 44.006 53.333h-26.785l-31.953-39.216-4.254 4.002v35.214h-21.365v-132.44h21.365z" fill="#fff" stroke-width="1.3333"/><path d="m666.05 313.93 32.015-30.991h27.399l-40.446 38.035 44.006 53.333h-26.769l-31.953-39.216-4.254 4.002v35.214h-21.381v-132.44h21.381z" fill="#fff" stroke-width="1.3333"/><path d="m210.03 374.32h-21.365v-132.46h21.365z" fill="#fff" stroke-width="1.3333"/><g transform="matrix(15.756 0 0 -15.756 340.16 374.33)"><path d="m0 0h-1.356v0.769h-0.024c-0.443-0.651-1.131-0.966-1.954-0.966-1.757 0-2.826 1.462-2.826 3.108 0 1.622 1.095 3.07 2.789 3.07 0.848 0 1.536-0.317 1.991-1.006h0.024v0.825h1.356zm-1.333 2.904c0 1.044-0.647 1.927-1.789 1.927-1.095 0-1.742-0.929-1.742-1.927 0-1.01 0.624-1.95 1.742-1.95 1.153 0 1.789 0.895 1.789 1.95" fill="#fff"/></g><g transform="matrix(15.756 0 0 -15.756 604.2 253.52)"><path d="m0 0c0-0.468-0.386-0.839-0.854-0.839s-0.855 0.371-0.855 0.839c0 0.482 0.387 0.869 0.855 0.869s0.854-0.387 0.854-0.869m-0.165-7.667h-1.356v5.8h1.356z" fill="#fff"/></g><g transform="matrix(15.756 0 0 -15.756 429.8 304.61)"><path d="m0 0c-0.272 0.256-0.761 0.445-1.163 0.445-0.462 0-0.792-0.178-0.792-0.534 0-0.434 0.714-0.679 1.565-1.013 0.834-0.327 1.455-0.784 1.455-1.692 0-1.094-1.069-1.827-2.324-1.827-0.98 0-1.761 0.335-2.376 0.925l0.864 0.801c0.346-0.37 0.885-0.576 1.506-0.576 0.547 0 0.902 0.283 0.902 0.644 0 0.307-0.258 0.485-0.597 0.635-0.337 0.151-0.588 0.233-1.097 0.455-0.791 0.347-1.264 0.805-1.264 1.592 0 0.933 0.955 1.702 2.051 1.702 0.889 0 1.525-0.259 2.104-0.772z" fill="#fff"/></g><g transform="matrix(15.756 0 0 -15.756 530.53 304.61)"><path d="m0 0c-0.272 0.256-0.761 0.445-1.163 0.445-0.462 0-0.792-0.178-0.792-0.534 0-0.434 0.714-0.679 1.565-1.013 0.834-0.327 1.455-0.784 1.455-1.692 0-1.094-1.069-1.827-2.324-1.827-0.981 0-1.761 0.335-2.376 0.925l0.864 0.801c0.346-0.37 0.885-0.576 1.506-0.576 0.547 0 0.902 0.283 0.902 0.644 0 0.307-0.258 0.485-0.597 0.635-0.337 0.151-0.588 0.233-1.097 0.455-0.791 0.347-1.264 0.805-1.264 1.592 0 0.933 0.954 1.702 2.051 1.702 0.889 0 1.525-0.259 2.104-0.772z" fill="#fff"/></g><g transform="matrix(15.756 0 0 -15.756 97.632 454.38)"><path d="m0 0c-0.11 0.149-0.251 0.245-0.444 0.245-0.185 0-0.362-0.142-0.363-0.334 0-0.5 1.176-0.293 1.175-1.288-1e-3 -0.593-0.371-1.014-0.976-1.013-0.41 0-0.708 0.236-0.912 0.579l0.374 0.365c0.078-0.228 0.286-0.432 0.534-0.433 0.236 0 0.382 0.2 0.382 0.428 1e-3 0.307-0.283 0.394-0.515 0.484-0.381 0.158-0.66 0.351-0.659 0.811 1e-3 0.492 0.367 0.888 0.866 0.888 0.263-1e-3 0.629-0.13 0.81-0.331z" fill="#fff"/></g><path d="m137.1 490.85-9.1068-0.0157 0.0473-38.775-9.4219-0.0157 0.0158-7.9251 27.951 0.0473-0.0157 7.9094h-9.4219z" fill="#fff" stroke-width="1.3333"/><path d="m172.77 452.12v10.289l14.48 0.0157v7.9251l-14.496-0.0157-0.0315 12.636 15.062 0.0157-0.0157 7.9409-24.154-0.0315 0.0631-46.716 24.154 0.0472v7.9094z" fill="#fff" stroke-width="1.3333"/><g transform="matrix(15.756 0 0 -15.756 216.7 490.95)"><path d="m0 0h-0.578l4e-3 2.966 0.786-2e-3c0.621 0 1.026-0.248 1.025-0.921 0-0.629-0.343-0.935-0.949-0.935l-0.286 1e-3zm2e-3 1.589h0.118c0.342-1e-3 0.527 0.074 0.527 0.459 1e-3 0.381-0.219 0.436-0.542 0.437h-0.102z" fill="#fff"/></g><path d="m280.05 462.72 0.0315-18.402 9.0911 0.0157-0.0472 46.716-9.1068-0.0157 0.0157-20.877-16.842-0.0315-0.0315 20.893-9.1068-0.0157 0.0473-46.732 9.1226 0.0315-0.0315 18.388z" fill="#fff" stroke-width="1.3333"/><path d="m319.11 481.22-3.8602 9.8474-9.611-0.0157 18.277-47.929 7.0744 0.0157 17.646 47.96-9.7214-0.0157-3.5766-9.8474zm7.8937-24.406h-0.126l-5.1521 16.969 11.092 0.0157z" fill="#fff" stroke-width="1.3333"/><path d="m365.23 443.18 6.5701 0.0157 24.563 32.694h0.12599l0.0315-31.417h9.1068l-0.0631 47.645-6.5701-0.0157-24.547-32.678h-0.126l-0.0473 31.733-9.1068-0.0157z" fill="#fff" stroke-width="1.3333"/><g transform="matrix(15.756 0 0 -15.756 447.98 454.81)"><path d="m0 0c-0.11 0.15-0.251 0.244-0.444 0.244-0.184 1e-3 -0.362-0.141-0.362-0.333-1e-3 -0.5 1.175-0.293 1.174-1.287-1e-3 -0.594-0.371-1.015-0.976-1.014-0.41 0-0.708 0.237-0.912 0.579l0.374 0.366c0.078-0.229 0.287-0.433 0.535-0.434 0.235 0 0.381 0.2 0.381 0.428 0 0.307-0.282 0.394-0.515 0.484-0.381 0.159-0.659 0.351-0.659 0.811 1e-3 0.492 0.367 0.888 0.866 0.888 0.263 0 0.63-0.13 0.81-0.331z" fill="#fff"/></g><g transform="matrix(15.756 0 0 -15.756 472.33 444.57)"><path d="m0 0h0.825c0.858-2e-3 1.431-0.643 1.43-1.488-1e-3 -0.834-0.591-1.478-1.437-1.477l-0.822 1e-3zm0.575-2.462h0.094c0.712-1e-3 0.988 0.393 0.988 0.978 1e-3 0.645-0.328 0.98-0.985 0.98h-0.095z" fill="#fff"/></g><g transform="matrix(15.756 0 0 -15.756 546.92 492.59)"><path d="m0 0c-0.905 1e-3 -1.466 0.694-1.465 1.567 1e-3 0.881 0.584 1.556 1.469 1.555s1.466-0.678 1.465-1.559c-2e-3 -0.873-0.564-1.564-1.469-1.563m3e-3 2.552c-0.546 1e-3 -0.87-0.482-0.87-0.963-1e-3 -0.456 0.227-1.018 0.868-1.019s0.87 0.561 0.87 1.017c0 0.48-0.321 0.965-0.868 0.965" fill="#fff"/></g><path d="m623.14 462.46h-0.126l-10.635 29.59h-3.1511l-10.194-29.621h-0.126l-4.1752 28.99-9.1699-0.0157 7.9251-47.945 6.4441 0.0157 11.47 30.802 11.076-30.771h6.5701l6.9484 47.96-9.1699-0.0157z" fill="#fff" stroke-width="1.3333"/></mask></defs><g transform="translate(-73.305 -57.414)" mask="url(#mask1363)"><path d="m0 799.99h789.02v-799.97h-789.02z" fill="#005695" stroke-width="1.3333"/><g transform="matrix(15.756 0 0 -15.756 162.74 178.91)"><path d="m0 0-8.999-18.506 8.998-18.506 9.001 18.506z" fill="#005695"/></g><g transform="matrix(15.756 0 0 -15.756 216.3 470.49)"><path d="M 0,0 -3.4,-6.989 -6.798,0 -3.399,6.989 Z M -3.399,12.737 -9.593,0 -3.4,-12.737 2.795,0 Z" fill="#312b6b"/></g><g transform="matrix(15.756 0 0 -15.756 20.955 470.49)"><path d="m0 0 8.998 18.506 9.001-18.506-9.001-18.505zm-1.33 3.017v-6.035l8.701-17.896h3.253l10.173 20.914-11.799 24.258z" fill="#292455"/></g><g transform="matrix(15.756 0 0 -15.756 216.3 470.49)"><path d="m0 0-3.399-6.989-3.399 6.989 3.399 6.989z" fill="#0063af"/></g><g transform="matrix(15.756 0 0 -15.756 490.4 178.91)"><path d="m0 0-8.999-18.506 8.998-18.506 9.001 18.506z" fill="#005695"/></g><g transform="matrix(15.756 0 0 -15.756 543.96 470.49)"><path d="M 0,0 -3.4,-6.989 -6.798,0 -3.399,6.989 Z M -3.399,12.737 -9.593,0 -3.401,-12.737 2.795,0 Z" fill="#312b6b"/></g><g transform="matrix(15.756 0 0 -15.756 348.6 470.49)"><path d="m0 0 8.999 18.506 9-18.506-9.001-18.505zm-2.796 0 10.168-20.914h3.253l10.172 20.914-11.798 24.257z" fill="#292455"/></g><g transform="matrix(15.756 0 0 -15.756 543.96 470.49)"><path d="m0 0-3.4-6.989-3.398 6.989 3.399 6.989z" fill="#0063af"/></g><g transform="matrix(15.756 0 0 -15.756 676.26 470.49)"><path d="m0 0 7.157-14.719v29.438z" fill="#005695"/></g><g transform="matrix(15.756 0 0 -15.756 720.48 470.49)"><path d="m0 0 4.351-8.949v5.748l-1.555 3.201 1.555 3.2v5.747z" fill="#312b6b"/></g><g transform="matrix(15.756 0 0 -15.756 632.2 470.49)"><path d="m0 0 9.954-20.473v5.754l-7.158 14.719 7.158 14.718v5.751z" fill="#292455"/></g><g transform="matrix(15.756 0 0 -15.756 764.51 470.49)"><path d="m0 0 1.556-3.201v6.401z" fill="#0063af"/></g><g transform="matrix(15.756 0 0 -15.756 119.79 .033333)"><path d="M 0,0 2.725,-5.604 5.451,0 Z" fill="#005695"/></g><g transform="matrix(15.756 0 0 -15.756 205.67 .033333)"><path d="m0 0-2.726-5.604-2.725 5.604h-2.797l5.521-11.356 5.524 11.356z" fill="#292455"/></g><g transform="matrix(15.756 0 0 -15.756 447.44 .033333)"><path d="M 0,0 2.724,-5.604 5.45,0 Z" fill="#005695"/></g><g transform="matrix(15.756 0 0 -15.756 533.32 .033333)"><path d="m0 0-2.726-5.604-2.724 5.604h-2.797l5.52-11.356 5.524 11.356z" fill="#292455"/></g><g transform="matrix(15.756 0 0 -15.756 731.04 .033333)"><path d="m0 0 3.681-7.57v5.752l-0.885 1.818z" fill="#292455"/></g><g transform="matrix(15.756 0 0 -15.756 .0078798 .033333)"><path d="m0 0v-26.849l8.931 18.361-4.128 8.488z" fill="#005695"/></g><g transform="matrix(15.756 0 0 -15.756 .0078798 .033333)"><path d="m0 0v-1.64l3.33-6.848-3.33-6.847v-5.746l6.125 12.593-4.128 8.488z" fill="#312b6b"/></g><g transform="matrix(15.756 0 0 -15.756 75.678 .033333)"><path d="m0 0 4.127-8.488-8.93-18.36v-5.751l11.728 24.111-4.128 8.488z" fill="#292455"/></g><g transform="matrix(15.756 0 0 -15.756 .0078798 241.64)"><path d="m0 0 3.33 6.847-3.33 6.848z" fill="#0063af"/></g><g transform="matrix(15.756 0 0 -15.756 249.82 .033333)"><path d="m0 0-4.127-8.488 8.997-18.506 9.002 18.506-4.128 8.488z" fill="#005695"/></g><g transform="matrix(15.756 0 0 -15.756 273.03 133.76)"><path d="M 0,0 3.399,6.99 6.798,0 3.399,-6.989 Z M 1.332,8.488 -2.795,0 3.398,-12.737 9.592,0 5.465,8.488 Z" fill="#312b6b"/></g><g transform="matrix(15.756 0 0 -15.756 403.34 .033333)"><path d="m0 0 4.127-8.488-9-18.506-8.999 18.506 4.128 8.488h-2.797l-4.127-8.488 11.795-24.257 11.798 24.257-4.127 8.488z" fill="#292455"/></g><g transform="matrix(15.756 0 0 -15.756 380.12 133.76)"><path d="m0 0-3.399-6.989-3.399 6.989 3.399 6.989z" fill="#0063af"/></g><g transform="matrix(15.756 0 0 -15.756 577.47 .033333)"><path d="m0 0-4.127-8.488 8.997-18.506 8.558 17.594v1.826l-3.684 7.574z" fill="#005695"/></g><g transform="matrix(15.756 0 0 -15.756 600.68 133.76)"><path d="m0 0 3.399 6.99 3.4-6.99-3.4-6.989zm1.333 8.488-4.127-8.488 6.193-12.737 6.195 12.737-4.128 8.488z" fill="#312b6b"/></g><g transform="matrix(15.756 0 0 -15.756 533.4 .033333)"><path d="m0 0-4.126-8.488 11.793-24.257 8.557 17.593v5.752l-8.557-17.594-8.998 18.506 4.128 8.488zm12.54 0 3.684-7.575v5.753l-0.885 1.822z" fill="#292455"/></g><g transform="matrix(15.756 0 0 -15.756 707.78 133.76)"><path d="m0 0-3.4-6.989-3.398 6.989 3.398 6.989z" fill="#0063af"/></g><g transform="matrix(15.756 0 0 -15.756 .0078798 800)"><path d="m0 0h8.697l-8.697 17.884z" fill="#005695"/></g><g transform="matrix(15.756 0 0 -15.756 .0078798 699.66)"><path d="m0 0 3.097-6.368h2.795l-5.892 12.115z" fill="#312b6b"/></g><g transform="matrix(15.756 0 0 -15.756 .0078798 518.22)"><path d="m0 0 8.697-17.884h2.798l-11.495 23.636z" fill="#292455"/></g><g transform="matrix(15.756 0 0 -15.756 .0078798 800)"><path d="m0 0h3.097l-3.097 6.368z" fill="#0063af"/></g><g transform="matrix(15.756 0 0 -15.756 188.45 800)"><path d="m0 0h17.533l-8.767 18.027z" fill="#005695"/></g><g transform="matrix(15.756 0 0 -15.756 232.66 800)"><path d="m0 0h2.795l3.166 6.51 3.166-6.51h2.794l-5.96 12.258z" fill="#312b6b"/></g><g transform="matrix(15.756 0 0 -15.756 144.4 800)"><path d="m0 0h2.796l8.767 18.027 8.767-18.027h2.797l-11.564 23.779z" fill="#292455"/></g><g transform="matrix(15.756 0 0 -15.756 276.7 800)"><path d="m0 0h6.332l-3.166 6.51z" fill="#0063af"/></g><g transform="matrix(15.756 0 0 -15.756 516.11 800)"><path d="m0 0h17.322v0.434l-8.556 17.593z" fill="#005695"/></g><g transform="matrix(15.756 0 0 -15.756 560.32 800)"><path d="m0 0h2.794l3.166 6.51 3.167-6.51h2.794l-5.961 12.258z" fill="#312b6b"/></g><g transform="matrix(15.756 0 0 -15.756 472.04 800)"><path d="m0 0h2.797l8.766 18.027 8.556-17.593v5.752l-8.556 17.593z" fill="#292455"/></g><g transform="matrix(15.756 0 0 -15.756 604.34 800)"><path d="m0 0h6.332l-3.167 6.51z" fill="#0063af"/></g></g></svg>
