<?xml version="1.0" encoding="UTF-8"?>
<svg id="svg46" width="449.31" height="792" enable-background="new 0 0 595.28 841.89" version="1.1" viewBox="0 0 449.31 792" xmlns="http://www.w3.org/2000/svg" xmlns:cc="http://creativecommons.org/ns#" xmlns:dc="http://purl.org/dc/elements/1.1/" xmlns:rdf="http://www.w3.org/1999/02/22-rdf-syntax-ns#">
 <metadata id="metadata52">
  <rdf:RDF>
   <cc:Work rdf:about="">
    <dc:format>image/svg+xml</dc:format>
    <dc:type rdf:resource="http://purl.org/dc/dcmitype/StillImage"/>
    <dc:title/>
   </cc:Work>
  </rdf:RDF>
 </metadata>
 <g id="g885" stroke-width="1.0565">
  <rect id="rect2" x="1.3301" y="4.2675e-7" width="447.82" height="191.42" fill="#e30613"/>
  <path id="path4" d="m326.64 148.92h26.187v-35.871h49.507v-25.155h-49.507v-20.436h60.736v-25.104h-86.926v106.57zm-202.73-53.236c0 16.749-14.493 30.182-29.966 30.182-15.638 0-29.963-13.433-29.963-30.182 0-16.825 14.325-30.271 29.963-30.271 15.473 0 29.966 13.446 29.966 30.271m27.094 0c0-31.24-25.355-55.359-57.06-55.359-31.694 0-57.044 24.122-57.044 55.359 0 31.214 25.345 55.338 57.044 55.338 31.705-1.1e-4 57.06-24.122 57.06-55.338m37.746 53.362h26.238v-31.151h19.521l20.575 31.151h32.761l-26.406-37.427c12.439-5.4081 21.088-17.131 21.088-31.546 0-21.277-15.627-37.72-39.523-37.72h-54.25v106.69zm52.747-56.246h-26.507v-25.348h26.507c11.378 0 14.854 5.6521 14.854 12.616 1.1e-4 7.1185-3.4811 12.73-14.854 12.73" fill="#fff" fill-rule="evenodd"/>
 </g>
 <g id="g889">
  <rect id="rect6" x="1.3301" y="217.63" width="447.82" height="447.8" fill="#e30613" stroke-width="1.0565"/>
  <polygon id="polygon8" transform="matrix(1.0565 0 0 1.0565 -89.864 -46.759)" points="251.08 344.04 188.25 344.04 298.44 594.1 408.26 344.04 345.46 344.04 298.44 459.11" fill="#fff"/>
 </g>
 <g id="g908">
  <polygon id="polygon10" transform="matrix(1.0565 0 0 1.0565 -89.864 -46.759)" points="94.31 757.06 85.061 757.06 101.36 793.92 117.5 757.06 108.26 757.06 101.36 774.06"/>
  <g id="g20" transform="matrix(1.0565 0 0 1.0565 -89.864 -46.759)" fill-rule="evenodd">
   <path id="path12" d="m152.84 774.5c0 5.46-4.733 9.829-9.793 9.829-5.132 0-9.744-4.369-9.744-9.829 0-5.517 4.612-9.863 9.744-9.863 5.06 0 9.793 4.346 9.793 9.863m8.778 0c0-10.239-8.248-18.13-18.571-18.13-10.336 0-18.643 7.896-18.643 18.13 0 10.192 8.306 18.03 18.643 18.03 10.323 0 18.571-7.836 18.571-18.03"/>
   <path id="path14" d="m195.56 769.41c0 2.342-1.099 4.104-4.832 4.104h-8.632v-8.271h8.632c3.733 0 4.832 1.908 4.832 4.167m10.285 22.482-8.596-12.231c4.116-1.145 6.859-5.555 6.859-10.274 0-6.969-5.06-12.328-12.873-12.328h-17.689v34.834h8.549v-10.203h6.413l6.699 10.203h10.638z"/>
   <path id="path16" d="m236.88 778.47h-6.122l3.056-6.255zm16.3 13.427-19.125-37.31-19.669 37.31h9.889l2.813-6.062h13.271l3.091 6.062z"/>
   <path id="path18" d="m285.44 769.41c0 2.342-1.146 4.104-4.878 4.104h-8.633v-8.271h8.633c3.731 0 4.878 1.908 4.878 4.167m10.276 22.482-8.646-12.231c4.128-1.145 6.906-5.555 6.906-10.274 0-6.969-5.121-12.328-12.871-12.328h-17.714v34.834h8.538v-10.203h6.398l6.775 10.203h10.614z"/>
  </g>
  <polygon id="polygon22" transform="matrix(1.0565 0 0 1.0565 -89.864 -46.759)" points="316.13 757.06 307.58 757.06 307.58 791.9 334.77 791.9 334.77 783.7 316.13 783.7"/>
  <path id="path24" d="m300.66 778.3c0 1.7442-1.1611 3.0986-3.5328 3.0986h-11.583v-6.2501h11.583c2.2587 0 3.5328 1.5446 3.5328 3.1514m-1.9006-14.122c0 1.4674-0.73953 2.6676-2.8958 2.6676h-10.32v-5.3848h10.32c2.1562 1e-4 2.8958 1.3396 2.8958 2.7172m10.933 14.44c0-3.8783-1.9534-6.7604-4.7319-8.5257 1.721-1.6566 2.7796-3.9914 2.7796-6.5417 0-6.9294-5.4472-10.499-11.137-10.499h-20.084v36.839h21.298c6.5078-1e-4 11.878-4.3896 11.878-11.277" fill-rule="evenodd" stroke-width="1.0565"/>
  <polygon id="polygon26" transform="matrix(1.0565 0 0 1.0565 -89.864 -46.759)" points="398.96 778.06 415.07 778.06 415.07 770.06 398.96 770.06 398.96 765.2 418.74 765.2 418.74 757.06 390.37 757.06 390.37 791.9 418.74 791.9 418.74 783.75 398.96 783.75"/>
  <path id="path28" d="m390.52 766.1c0 2.4743-1.1621 4.3358-5.1028 4.3358h-9.1194v-8.7381h9.1194c3.9406 0 5.1028 2.0158 5.1028 4.4023m10.856 23.752-9.0708-12.922c4.3622-1.2097 7.2463-5.8687 7.2463-10.854 0-7.3625-5.3711-13.024-13.598-13.024h-18.703v36.801h9.0455v-10.779h6.772l7.0921 10.779h11.215z" fill-rule="evenodd" stroke-width="1.0565"/>
  <path id="path30" d="m449.31 772.59c0-1.6734-0.10142-4.2745-0.10142-4.2745h-20.577v8.7116h10.282c-1.5826 3.0606-5.0394 5.052-8.9303 5.052-5.7134 0-10.279-4.8334-10.279-10.649 0-5.7799 4.5661-10.551 10.279-10.551 3.4071 0 6.3705 1.7358 8.3429 4.4657l7.296-5.3943c-4.0315-5.1535-9.7966-7.5918-15.64-7.5918-11.327 0-19.568 8.3028-19.568 19.069 0 10.816 8.3567 19.143 19.568 19.143 12.185-1.1e-4 19.328-9.3741 19.328-17.981" stroke-width="1.0565"/>
  <g id="g38" transform="matrix(1.0565 0 0 1.0565 -89.864 -46.759)" fill-rule="evenodd">
   <path id="path32" d="m108.36 711.29c0 2.329-1.1 4.14-4.89 4.14h-8.622v-8.258h8.622c3.791 0 4.89 1.895 4.89 4.118m10.229 22.483-8.598-12.243c4.129-1.135 6.905-5.556 6.905-10.264 0-6.979-5.106-12.34-12.86-12.34h-17.724v34.847h8.536v-10.144h6.412l6.701 10.144z"/>
   <path id="path34" d="m147.3 720.32h-6.098l3.08-6.244 3.02 6.244zm16.362 13.451-19.13-37.32-19.681 37.32h9.827l2.887-6.097h13.27l3.03 6.097h9.792z"/>
   <path id="path36" d="m198.03 716.38c0 4.986-3.765 9.187-10.04 9.187h-7.391v-18.438h7.391c6.28 0 10.04 4.155 10.04 9.251m8.561 0c0-9.251-7.1-17.413-18.606-17.413h-15.877v34.8h15.877c11.302 0 18.606-8.201 18.606-17.387"/>
  </g>
  <rect id="rect40" x="139.83" y="691.63" width="9.0318" height="36.815" stroke-width="1.0565"/>
  <path id="path42" d="m190.69 710.07c0 5.7514-4.9865 10.368-10.294 10.368-5.4598 0-10.333-4.6168-10.333-10.368 0-5.8433 4.8735-10.45 10.333-10.45 5.3035 0 10.294 4.6062 10.294 10.45m9.2874 0c0-10.831-8.662-19.112-19.581-19.112-10.92 0-19.696 8.2796-19.696 19.112 0 10.805 8.775 19.027 19.696 19.027 10.918 0 19.581-8.2288 19.581-19.027" fill-rule="evenodd" stroke-width="1.0565"/>
 </g>
</svg>
