<svg id="a" width="884.9" height="662.6" space="preserve" version="1.1" viewBox="0 0 884.9 662.6" xmlns="http://www.w3.org/2000/svg">
 <link id="b" href="" rel="stylesheet" type="text/css"/>
 <path id="c" d="m212.4 594.6v-114.7l-36.1 0.2v-30.8s31-4.6 47.5-6.6 47.5-9.6 47.5-9.6v161.4zm141.5 2.6c-14.5 0-27.2-2.1-38.3-6.3-11-4.2-19.1-10-24.3-17.5-3.7-5.4-6.4-12.4-8.1-21-1.6-8.7-2.5-20.7-2.5-36 0-15.4 0.8-27.4 2.5-36 1.6-8.7 4.3-15.7 8.1-21 5.1-7.5 13.2-13.3 24.3-17.5 11-4.2 23.8-6.3 38.3-6.3 14.6 0 27.3 2.1 38.3 6.3s19.1 10.1 24.2 17.5c3.8 5.3 6.6 12.3 8.3 21.1s2.6 20.8 2.6 35.9-0.9 27-2.6 35.7c-1.7 8.8-4.5 15.9-8.3 21.3-5.1 7.5-13.2 13.3-24.2 17.5-11 4.1-23.7 6.3-38.3 6.3zm13.3-50.5v-61.1c0-6.3-1-19.5-3-22-2.1-2.5-5.5-3.8-10.2-3.8s-8.1 1.3-10.1 3.9c-2.1 2.6-3.1 15.8-3.1 22v61.1c0 6.1 1.1 20.9 3.1 23.5 2.1 2.6 5.4 3.9 10.1 3.9 4.8 0 8.2-1.3 10.2-3.8 2.1-2.6 3-17.4 3-23.7zm69.4 3.8 56.3 0.1c0.1 5.8 0.5 10.2 3.3 13.4s6.7 4.8 11.7 4.8c4.7 0 8.3-1.3 10.9-4s3.9-6.4 3.9-11.2v-14.5c0-7.7-1.3-12.7-3.8-16.3-2.4-3.7-5.9-5.2-10.9-5.2-4.4 0-7.3 0.6-10 3s-5.3 5.6-6.3 10.4l-52.1-0.1 4.8-92.7h126.8v35.5l-81-0.2-0.7 29.7c4.8-3.2 16.1-7.8 22.4-9.4 6.4-1.6 13.4-1.6 21.2-1.6 15.4 0 27.4 4.5 36 13.6s13 21.7 13 37.9c0 19.3-7.1 33.6-19.2 43.1-12 9.5-28.9 13.6-53.5 13.6-25 0-45.2-4.6-56.5-12.6-11.3-7.8-15.6-19.4-16.3-37.3zm221 0 56.3 0.1c0.1 5.8 0.5 10.2 3.3 13.4s6.7 4.8 11.7 4.8c4.7 0 8.3-1.3 10.9-4s3.9-6.4 3.9-11.2v-14.5c0-7.7-1.3-12.7-3.8-16.3-2.4-3.7-5.9-5.2-10.9-5.2-4.4 0-7.3 0.6-10 3s-5.3 5.6-6.3 10.4l-52.1-0.1 4.8-92.7h126.8v35.5l-81-0.2-0.7 29.7c4.8-3.2 16.1-7.8 22.4-9.4 6.4-1.6 13.4-1.6 21.2-1.6 15.4 0 27.4 4.5 36 13.6s13 21.7 13 37.9c0 19.3-7.1 33.6-19.2 43.1-12 9.5-28.9 13.6-53.5 13.6-25 0-45.2-4.6-56.5-12.6-11.3-7.8-15.6-19.4-16.3-37.3z" fill="#66b8dc"/>
 <g id="d" fill="#e2001a">
  <path id="e" d="m422.8 403.2c-27.1-3.2-39.3-8.6-52.4-29.6-6.7-10.7-8.9-23-9.7-35.3-1.7-25.6-2.5-51.2 6-76 9-26 29.8-37.1 55-41.2 22.4-3.7 44.9-3.5 66.9 2.9 27.7 8.1 39.7 28.9 42.7 55.6 2.6 23.4 2.4 46.9-2.3 70.2-7.7 38-27.1 50.2-61.6 53.5-16.9 1.5-25.4 1.6-44.6-0.1zm3.2-91c0.4 15.8 0.2 30.6 3.5 45.1 2 8.6 5.8 16.1 15.9 16 10.2-0.1 15.5-7.4 17-16.3 5.3-30.3 5.7-60.8 0.4-91.2-1.5-8.4-6-15.2-15.7-15.4-9.9-0.2-14.7 6.1-17.1 15-4.1 15.6-3.1 31.8-4 46.8zm-139.9-93.4c20.1 2.3 40.1 7.3 52.8 25.2 7.8 10.9 10.3 23.2 9.7 36.7h-61.1c0-5 0.6-9.7-0.1-14.2-1.1-7-3.4-13.2-11.5-15.9-7.7-2.5-13.6-0.1-19.1 4.9-3.7 3.4-5.9 7.8-6.8 12.7-5.1 28.6-4.7 57.3-0.6 85.9 2 13.9 11.1 19.9 23.1 18.7 10.5-1.1 15.9-8.3 16.7-22.3 0.3-5.3 0.2-5 0.3-16.7h-18.8v-31.1h77.4v96.3h-57.7c-0.2-3.5-0.3-6.8-0.5-11.3-17 16-36.6 18.6-57.4 14.9-28.5-5.1-44.5-20.8-49.4-49.8-4.7-27.4-5-55.1 1.5-82.4 7-29.5 32.6-49 63.9-51.9 13-1.1 20.5-1.6 37.6 0.3zm-238.6 4.4h94.6c13.5 58.4 27.1 117 40.7 175.9h-63.9c-3.1-15.6-6.4-31.7-9.6-47.8h-36c-3.6 15.9-7.1 31.7-10.7 48.1h-62.6c-0.1-0.5 46.9-174.8 47.5-176.2zm54.8 91.7c-3.1-16-3.2-15.7-10.2-46.7-3.3 15.4-7.6 30.9-11 46.7zm662.4 84.5c-39.3 0-77.5-0.1-115.8 0.1-7.5 0.1-10.3-4.3-11.5-10.1-3-14.1-5.3-28.3-8-42.5-2.8-14.4-10.3-20.2-24.8-18.8v70.9h-62.5v-176.5c41.6 2.2 83.3-3.7 124.5 3.3 21.3 3.6 31.5 17.9 31.6 38.6 0.2 25.5-8.7 38.2-31 44.4-1.1 0.3-2.2 1-4.6 2.1 27 5.1 31.6 25.5 35.6 46.5 2 10.6 3.9 21.1 6.5 35 15.3-58.5 29.8-113.5 44.3-169h95.4c13.4 58.2 26.9 116.7 40.5 175.6h-64c-3.1-15.8-6.2-31.6-9.4-47.7h-36.1c-3.6 16-7.1 31.9-10.7 48.1zm-159.7-100.1c10.1-0.7 20.9 1.2 26.3-9.5 5-9.9 5.4-20.9-0.9-30.4-6.1-9.2-16.2-6.6-25.4-6.5zm199.4 15.5c-3.3-16.8-6.5-33.1-10.1-51.4-3.9 18.4-7.4 34.8-11 51.4z"/>
  <path id="f" d="m603.9 415.1h31.2v247.5h-31.2z"/>
 </g>
 <g id="g" transform="translate(-11.2 -11.9)">
  <path id="h" d="m458.6 182.7c32.4 0 62.1 11.4 85.5 30.4l21.3-21.3c-28.8-24.4-66.1-39.1-106.8-39.1-41.1 0-78.8 15.1-107.8 40l21.3 21.3c23.5-19.6 53.7-31.3 86.5-31.3z"/>
  <path id="i" d="m458.6 112.9c51.6 0 98.9 19.1 135 50.7l21.3-21.3c-43.1-38.4-98.1-59.4-156.3-59.4-58.7 0-114 21.3-157.3 60.3l21.3 21.3c36.3-32.1 83.9-51.6 136-51.6z"/>
  <path id="j" d="m459.4 41.9c69 0 134 25.2 184.8 71.1l21.2-21.2c-56.4-51.6-129.1-79.9-206-79.9-77.8 0-151.1 28.9-207.8 81.5l21.2 21.2c51-47 116.8-72.7 186.6-72.7z"/>
 </g>
</svg>
