<svg id="b" version="1.0" viewBox="0 0 110 90" xmlns="http://www.w3.org/2000/svg" xmlns:xlink="http://www.w3.org/1999/xlink">
 <defs id="c">
  <linearGradient id="a" x1="2.3315" x2="107.67" y1="43.788" y2="43.788" gradientUnits="userSpaceOnUse">
   <stop id="d" stop-color="#9a213d" offset="0"/>
   <stop id="e" stop-color="#f20408" offset="1"/>
  </linearGradient>
 </defs>
 <path id="f" d="m6.7017 33.723c-0.94516 0.0018-2.3527 0.19146-3.4688 1.2188-0.72412 0.66654-0.69474 1.4824-0.875 2.25v32.906c-0.01194 0.06295-0.37681 2.8946 2.0312 3.7812 0.59571 0.21934 2.2484 0.49535 3.375 0.46875 3.6162-0.08537 3.5764-0.88142 4-1.0938 1.0296-0.51605 1.0938-3.2812 1.0938-3.2812v-19s0.37812-1.6828 1.0312-3c0.42134-0.8497 1.1102-1.4689 1.3438-1.625 1.1375-0.93616 2.2505-1.6518 3.75-1.875 1.1303-0.31268 2.9242 0.31341 4.625-0.78125 1.3007-0.83717 1.1992-1.6415 1.5938-4.5625s-0.48625-4.957-1.7188-5.125c-2.4994-0.49386-7.4306 0.66563-9.6562 2.4375-0.62768 0.23675-2 2.083-2 1.2812-0.22623-0.60334-0.88872-2.7562-1.8438-3.2812-1.1395-0.62647-1.9482-0.603-2.25-0.625-0.07204-0.0052-0.46415-0.09485-1.0312-0.09375zm43.562 0c-1.6738 0.06714-3.3353 0.41717-4.9688 0.78125-0.93792 0.20905-1.8863 0.45751-2.7188 0.9375-0.99416 0.57323-2.5938 2.25-2.5938 2.25s-0.91469 0.07964-1.2188-0.1875c-0.57456-0.50479-0.13522-1.6589-0.65625-2.2188-0.97095-1.0433-2.4535-1.4279-3.875-1.5312-1.1109-0.08081-3.2259 0.60446-3.8438 1.5312-0.4436 0.6654-0.9375 2-0.9375 2v31.875s-0.23242 2.4982 1.3438 4.4688c0.767 0.95893 2.3042 1.0158 3.5312 1.0625 1.5434 0.05873 3.7681 0.16332 4.5-1 1.3109-2.0837 1.1562-4.5312 1.1562-4.5312v-21.344s0.51032-1.6114 1.375-2.3438c0.82726-0.70065 2.5698-1.5814 3.5938-1.9375 0.95105-0.33079 2.0014-0.50456 3-0.375 0.80877 0.10494 1.6443 0.36012 2.25 0.90625 0.48643 0.4386 1.0039 1.0941 1.2812 1.6875 0.30345 0.64924 0.46875 2.0625 0.46875 2.0625l0.0625 21.344s0.01232 3.3158 1 4.3125c1.1133 1.1235 3.076 1.2845 4.6562 1.2188 1.2686-0.05277 2.3757 0.20073 3.7812-1.5938 0.91501-1.1682 1.0598-3.9076 1-3.9375v-21.344s-0.19308-3.7949-0.59375-5.6562c-0.23337-1.0842-0.55679-2.2318-1.0625-3.2188-0.41071-0.80159-1.0013-1.5067-1.6562-2.125-0.76507-0.72218-1.6406-1.3359-2.5938-1.7812-1.4381-0.67199-3.0114-1.1551-4.5938-1.2812-0.55608-0.04434-1.1296-0.05363-1.6875-0.03125zm39.562 0-3.875 0.0625c-10.839 0.63932-18.484 12.199-18.312 24.688 3e-3 0.20776 0.03235 1.6905 0.03125 1.8125-0.12199 13.725 6.5006 26.194 22.719 26 1.1502-0.0138 5.5398-0.40825 5.3125-0.40625 5.8247-1.2932 9.5198-2.8876 10.656-7.3438 0.62167-2.4377-0.61275-4.1562-1.9375-4.1562-3.86 0-5.1335 2.8125-11.875 2.8125-7.948 0-13.129-4.7458-13.844-9.25-0.0429-0.2703-0.49999-3.6949-0.5-3.9375 0-0.54525 0.43781-0.99999 1-1 0 0 21.804 4e-3 22-0.03125 4.019-0.72605 5.4556-1.3086 6.1875-4.8125 0.37911-1.815 0.17455-3.0142 0.25-4.2188 0.52983-8.4591-6.1548-20.219-17.812-20.219zm-2.5625 7.5h1.9688c5.0382 0.8256 7.5412 3.8946 8.0625 8.8125 0.0648 1.0553 0.125 3.8438 0.125 3.8438 0 0.48848-0.67428 0.5-1.25 0.5l-17.125-0.03125c-0.52932 0-0.65625-0.83201-0.65625-1.3438 0 0-0.0225-0.52957 0-1.0625 0.25254-5.9696 4.5895-10.435 8.875-10.719z" fill="url(#a)" fill-rule="evenodd" stroke-opacity="0"/>
 <g id="g" transform="matrix(.17013 0 0 .17011 43.814 41.738)" fill="url(#a)" fill-rule="evenodd">
  <g id="h" stroke-width="0">
   <path id="i" d="m-242.42-80.151c-0.0623-0.20487-0.33328-2.6521-0.60215-5.4383s-0.55908-5.4762-0.64491-5.9778l-0.15604-0.91205 5.272-2.3574c2.8996-1.2965 5.3167-2.4952 5.3713-2.6638 0.0546-0.16854 0.30478-13.649 0.55597-29.956s0.52094-31.531 0.59943-33.831l0.14273-4.1814-5.2777-1.6581c-4.1486-1.3034-5.301-1.7773-5.3864-2.2151-0.0598-0.30634-0.0122-3.3892 0.10583-6.8508l0.21454-6.2938 14.049-3.2242c15.77-3.6192 17.682-3.8728 19.117-2.5348 1.2097 1.1279 1.6163 2.1334 2.0543 5.08 0.22 1.48 0.46964 2.7606 0.55476 2.8457 0.0851 0.0851 2.205-1.204 4.7108-2.8647 5.3327-3.5342 10.195-5.9982 13.537-6.8598 3.9474-1.0177 9.827-0.75689 13.375 0.59337l0.85955 0.32712-0.21859 11.241c-0.12022 6.1826-0.25564 11.28-0.30093 11.328-0.0453 0.0479-2.0544 0.42121-4.4646 0.82967-17.228 2.9197-21.686 5.5816-23.914 14.281-0.49354 1.9274-0.53413 4.0662-0.53413 28.146v26.061l5.2845 2.2682c2.9065 1.2475 5.3713 2.355 5.4774 2.4611s-0.0462 3.0136-0.33848 6.4612l-0.53141 6.2682h-24.399c-19.26 0-24.423-0.07845-24.512-0.37248z"/>
   <path id="j" d="m-141.72-80.096c-4.7508-0.63635-9.2283-2.3054-13.106-4.8852-6.7971-4.5226-11.574-11.616-13.142-19.513-0.61347-3.0904-0.45177-11.479 0.30192-15.661 1.4571-8.0864 5.0342-14.523 10.53-18.946 8.5125-6.8523 20.786-10.211 39.816-10.896l5.6272-0.20246-0.16115-4.0488c-0.24945-6.2676-1.1801-9.6576-3.4924-12.722-3.6919-4.8921-11.055-6.2131-22.134-3.9712-3.1646 0.6404-10.836 2.6836-15.536 4.1379-1.6236 0.50238-3.0025 0.86289-3.0643 0.80113-0.23009-0.23009-6.6335-19.675-6.5174-19.791 0.2543-0.25431 8.8653-2.8019 13.279-3.9285 19.401-4.9526 33.719-5.4134 44.333-1.4268 8.2427 3.0961 13.842 9.23 16.282 17.836 0.93424 3.2954 1.3157 6.0948 1.5265 11.202 0.17334 4.2008 1.3301 56.618 1.3301 60.272v2.0169l9.9825 3.2284 0.0802 6.6196c0.0566 4.6722-0.01643 6.6196-0.24825 6.6196-0.18065 0-5.8487 0.74058-12.596 1.6457-6.7469 0.90515-13.22 1.6526-14.384 1.661-4.3272 0.03123-6.0982-1.6941-6.9887-6.8081-0.2069-1.1882-0.51107-2.1604-0.67594-2.1604-0.16486 0-1.272 0.60596-2.4602 1.3466-2.8225 1.7592-8.2399 4.3328-11.541 5.4826-5.3036 1.8475-12.379 2.7158-17.041 2.0913zm13.707-17.569c4.1781-0.5879 10.354-3.1758 14.268-5.9784l1.674-1.1987v-5.2994c0-2.9147 0.0889-7.9547 0.19762-11.2l0.19762-5.9006-5.9339 0.16778c-6.6546 0.18816-10.32 0.71013-14.263 2.0313-3.3758 1.131-5.3336 2.2464-7.1248 4.0592-2.8378 2.8721-3.8181 6.2673-3.2119 11.125 0.76136 6.1007 2.6796 9.4834 6.3986 11.284 2.2784 1.103 4.5479 1.368 7.7975 0.91078z"/>
   <path id="k" d="m-34.687-76.85c-14.234-1.4725-23.369-11.2-27.232-28.999-1.5543-7.1618-1.8221-10.536-1.8206-22.945 0.0013-11.806 0.26548-16.409 1.3578-23.664 2.7559-18.304 9.6844-29.445 21.223-34.126 5.4825-2.2245 9.6478-2.8473 17.497-2.6162 6.0158 0.17711 10.084 0.76511 16.949 2.4495 2.2307 0.54736 4.0946 0.95645 4.142 0.90909 0.047353-0.0473 0.11509-4.5484 0.15054-10.002l0.064437-9.9162-2.6115-0.69541c-3.7504-0.99868-5.4104-1.7953-6.7348-3.2321-1.4685-1.5931-1.5701-2.2569-1.2976-8.475l0.21433-4.8899 2.0859-0.7112c6.2628-2.1353 15.061-4.3522 22.724-5.7259 4.5843-0.82178 13.494-1.898 13.733-1.6588 0.10732 0.10723 0.34948 28.779 0.53812 63.716s0.35626 65.079 0.37248 66.983l0.0295 3.4618 2.6074 0.97587c3.8147 1.4277 5.8981 2.5449 6.6098 3.5445 0.8506 1.1946 1.1603 3.2378 1.2724 8.3948l0.09441 4.3434-8.6444 0.81964c-15.356 1.456-21.439 1.9441-22.201 1.7812-2.0537-0.4389-2.9211-1.5313-4.3485-5.4769-0.4447-1.2292-0.89581-2.3357-1.0025-2.4589-0.10666-0.12322-1.8773 0.50195-3.9348 1.3893-12.126 5.2293-23.565 7.6819-31.838 6.8261zm20.859-24.483c2.8754-0.83664 5.7582-2.022 9.0141-3.7066l2.9054-1.5032 0.067047-26.77c0.036876-14.723 0.070399-27.939 0.074497-29.367l0.00745-2.5969-2.3839-0.67238c-7.8199-2.2056-15.074-2.9887-19.04-2.0553-4.1646 0.97994-7.321 3.419-9.3174 7.1997-1.5822 2.9964-3.3472 10.194-4.4886 18.303-0.75523 5.3658-0.734 19.155 0.03602 23.392 1.881 10.35 6.0402 16.288 12.73 18.174 2.1302 0.60048 7.6979 0.38766 10.396-0.39738z"/>
  </g>
  <path id="l" d="m50.219-79.455c-0.14241-0.82612-1.6488-13.001-1.6139-13.044 0.0275-0.03387 2.6684-1.1554 5.8686-2.4922l5.8186-2.4306 0.14779-9.8065c0.08129-5.3936 0.19309-20.417 0.24846-33.386l0.10067-23.579-10.063-3.9809v-6.7753c0-6.236 0.03461-6.786 0.4348-6.9093 2.5882-0.79764 18.703-4.1942 24.163-5.0929 4.345-0.71518 11.25-1.515 13.079-1.515h0.8348l0.013 91.06 5.6459 2.3334c3.1053 1.2834 5.7404 2.4177 5.8559 2.5206 0.17893 0.15954-0.25992 7.0547-0.7466 11.731l-0.1487 1.4286h-24.814c-13.648 0-24.819-0.02795-24.824-0.06212z"/>
  <path id="m" d="m70.728-197.77c-5.8236-1.2802-11.014-5.9274-12.911-11.561-0.92869-2.7572-1.1433-6.7111-0.51701-9.526 1.7509-7.8698 8.8827-13.56 17.031-13.589 3.0359-0.0108 5.4097 0.54265 7.9374 1.8505 3.61 1.8678 6.0599 4.3599 7.8615 7.997 1.4487 2.9245 1.9283 5.2201 1.7651 8.4476-0.23295 4.6047-1.8675 8.2762-5.1428 11.552-3.3428 3.3428-6.9975 4.9442-11.676 5.116-1.7579 0.0645-3.1761-0.0289-4.348-0.28654z"/>
  <path id="n" d="m153.09-77.086c-10.077-1.7032-18.405-5.9642-25.475-13.034-7.132-7.132-11.508-15.808-13.037-25.848-0.44823-2.9429-0.4921-4.5376-0.49358-17.943-2e-3 -15.852 0.1086-17.681 1.3692-22.684 3.7948-15.059 14.802-27.119 29.562-32.389 4.8002-1.7138 9.382-2.4655 15.156-2.4865 4.7308-0.0172 7.0416 0.24059 11.181 1.2472 16.531 4.0204 29.611 16.944 33.786 33.383 1.4551 5.7296 1.4925 6.2989 1.4941 22.734 1e-3 13.502-0.0479 15.454-0.45129 17.889-1.7602 10.626-5.8969 18.812-13.193 26.108-7.2051 7.2051-15.311 11.329-25.611 13.029-3.8794 0.64041-10.478 0.63764-14.286-6e-3v-3e-6zm10.047-20.894c0.67473-0.13111 1.9239-0.58158 2.776-1.0011 6.202-3.0532 10.67-10.733 11.774-20.235 0.19473-1.6769 0.25352-6.5239 0.18361-15.138-0.0966-11.903-0.13571-12.818-0.64462-15.092-2.5144-11.235-9.1776-18.345-17.169-18.319-3.6759 0.0119-6.5788 1.2186-9.5046 3.951-4.7195 4.4075-7.483 10.851-8.1648 19.037-0.42368 5.0872-0.17135 24.629 0.3565 27.609 1.551 8.7564 5.7725 15.322 11.721 18.228 2.8301 1.3828 5.1657 1.6413 8.6723 0.95997z"/>
  <path id="o" d="m285.31-78.427c-12.663-0.74909-27.175-4.7799-35.654-9.903-2.4108-1.4567-4.3982-3.0662-4.2978-3.4805 0.0407-0.16775 2.6366-4.3867 5.7687-9.3754l5.6948-9.0704 5.8586 1.9616c3.2222 1.0789 7.4797 2.41 9.4612 2.9581 21.044 5.8208 32.358 2.7156 35.818-9.8306 0.47338-1.7167 0.54974-2.6312 0.56016-6.7084 0.0136-5.3345-0.19604-6.4552-1.8593-9.9383-1.7945-3.7581-4.4476-6.3076-8.8032-8.4598-1.5032-0.74274-3.7393-1.6364-4.9692-1.986-4.552-1.2938-10.958-2.099-16.709-2.1005l-3.2921-8.5e-4 0.0108-1.6771c0.0218-3.3716 0.66805-20.452 0.77803-20.562 0.0623-0.0623 3.2924-0.28242 7.1781-0.48913 10.017-0.53287 13.251-1.1253 17.145-3.1408 3.365-1.7416 5.7005-4.3006 7.2135-7.9037 1.6587-3.95 2.2563-10.581 1.2557-13.931-1.469-4.9192-4.4493-8.8942-8.144-10.862-7.3489-3.9146-16.724-0.56982-26.826 9.5707l-2.01 2.0177-7.8041-6.9632c-10.248-9.1442-9.3148-8.1669-8.7851-9.1958 0.82011-1.593 2.9039-4.508 4.5918-6.4235 8.9737-10.184 25.533-16.172 40.526-14.655 10.125 1.0242 18.314 4.6822 24.71 11.038 4.9335 4.9018 7.8118 10.129 9.6482 17.523 0.97723 3.9347 1.2553 6.3594 1.2539 10.932-1e-3 3.6296-0.0962 4.7742-0.57542 6.9272-1.8944 8.5108-5.9437 14.967-14.113 22.502-1.6205 1.4946-2.9744 2.7801-3.0087 2.8567-0.0342 0.0766 0.86001 0.6981 1.9872 1.3811 9.9965 6.057 16.109 14.371 18.001 24.482 0.59743 3.1938 0.58034 10.716-0.0327 14.401-3.281 19.723-13.844 31.974-31.379 36.393-5.2913 1.3334-13.398 2.0572-19.199 1.714z"/>
 </g>
</svg>
