<svg class="h-root-0-2-14 _-svgLogo-0-2-70" width="800" height="277.48" data-testid="homeLogo" icon="icon-logo-menu" version="1.1" viewBox="0 0 11594 4010.2" xmlns="http://www.w3.org/2000/svg">
 <g fill="#0091ff" stroke-width="5.7972">
  <path class="cls-1" d="m10869 526.66c0 48.755-31.421 78.727-102.78 78.727s-102.84-29.972-102.84-78.727v-236.59c0-48.755 31.421-78.843 102.84-78.843s102.78 30.088 102.78 78.843zm142.79-248.64c0-94.727-66.611-191.31-245.57-191.31s-245.63 96.582-245.63 191.31v260.88c0 94.727 66.668 191.31 245.63 191.31s245.57-96.582 245.57-191.31zm-597.12-181.98h-142.84v624.6h142.84zm-393.4 424.01c0 48.813-17.392 76.002-88.582 76.002h-85.625v-375.37h85.625c71.422 0 88.582 27.131 88.582 75.944zm142.73 38.436v-300.3c0-84.466-57.972-162.32-214.15-162.32h-245.63v624.77h245.63c156.12 0 214.15-78.843 214.15-162.32m-799.9-338.62 72.35 261.75h-145.63zm95.249-123.83h-190.38l-193.22 624.77h148.47l34.262-121.74h212.24l34.32 121.74h148.47zm-594.74 240.12c0 46.9-15.247 68.523-76.176 68.523h-113.28v-183.83h113.28c57.972 0 76.176 18.725 76.176 65.625zm34.262 384.65h169.45l-153.28-213.86c63.77-26.262 92.35-78.842 92.35-156.53v-77.103c0-117.22-57.161-177.28-211.31-177.28h-263.72v624.77h142.79v-193.98h83.77z"/>
  <path class="cls-1" d="m2514.3 990.44 1.3913 0.81162c88.466 51.538 135.19 152.29 135.19 291.31v1438.5c0 228.41-72.871 409.11-216.64 537.11l-0.9855 0.8696v29.624l52.987-22.783c272.47-117.45 364.7-154.55 581.7-233.4 110.5-40.117 206.56-72.871 285.57-97.278 106.03-32.754 155.19-46.378 292.18-79.48l2.029-0.5218 30.841-617.64v-3.0146h-28.986l-0.5217 2.203c-40.059 182.15-108.93 332.65-204.82 447.43-94.959 113.68-219.25 195.72-369.52 243.89v-1005.4c192.76 10.551 301.46 63.422 374.62 239.6l0.7537 1.7391h28.696v-646.05h-28.986l-0.6377 2.087c-61.393 202.9-194.32 286.09-374.5 320.3v-769.12h106.44c224.64 0 392.24 128.35 459.78 352.18l0.6377 2.087h28.986l-15.131-463.78h-1141.1z"/>
  <path class="cls-1" d="m6873.3 2765.1 135.19 23.189 154.84 26.841 118.5 19.131 34.378 5.3334v-28.87l-1.5073-0.8116c-95.075-50.436-146.84-98.553-184.82-170.84-19.711-37.972-32.58-78.727-40.581-133.34v-1037.1h2.6667l855.79 1536.3 0.8695 1.5073h28.986v-2.8407h6.1451v-1751.9c6.145-72.002 17.044-123.08 32.928-154.26 21.566-42.552 72.234-86.147 123.08-105.97l1.8551-0.69567v-28.986h-493.23v28.986l1.6812 0.75364c101.8 44.059 142.9 82.785 169.05 159.31a624.83 624.83 0 0 1 27.015 123.19v760.19h-7.7103l-586.86-1070.8-0.8116-1.5073h-506.39v28.986l1.8552 0.75364c84.756 34.783 185.92 98.553 205.05 207.83v1291c-7.3625 134.03-96.698 200.87-218.85 218.79l-2.4348 0.3478v28.986l33.972 6.6668z"/>
  <path class="cls-1" d="m8938.1 3049.4 39.943 1.6812v-28.986l-1.5653-0.7537c-63.132-31.653-103.65-72.118-135.54-135.37-37.798-74.379-47.016-134.26-47.016-305.05v-1218.2c0-212.12 58.784-323.49 196.58-372.59l1.8552-0.69567v-27.479h-740.54v26.957l1.2174 0.86958c71.364 49.451 123.66 116.52 143.48 183.95 11.942 40.581 20.232 139.13 20.232 239.72v1109.2c0 271.77-33.798 348.53-180.76 410.5l-1.7971 0.7536v28.986l25.856 4.7537c233.22 42.9 499.37 75.364 678.28 81.973"/>
  <path class="cls-1" d="m9650.3 3092.6c115.6 0 224.12-45.045 313.75-130.21 89.626-85.162 152-202.27 180.58-338.96 18.146-85.278 21.798-111.25 32.871-231.89l0.29-3.1885h-24.87l-10.32 33.16c-66.088 215.25-164.53 311.31-318.85 311.31-244.01 0-401.69-334.04-401.69-850.98 0-264.47 33.682-499.43 92.408-644.71a279.95 279.95 0 0 1 123.77-141.92c34.784-18.783 81.161-29.508 127.54-29.508 177.86 0 302.27 144.93 380.53 443.84l5.797 22.261h28.986v-582.62l-20.812 7.7103-28.349 13.45c-32.348 15.421-72.291 25.392-101.74 25.392a223.66 223.66 0 0 1-62.031-8.7538l-57.567-16.812a641.58 641.58 0 0 0-170.61-26.957c-185.51 0-359.43 121.74-490.04 342.68-130.61 220.93-201.74 514.62-201.74 827.96 0 567.09 253.11 978.75 601.87 978.75"/>
  <path class="cls-1" d="m4366.5 1066.4 55.596-0.5798c228.47 0 321.69 81.857 321.69 282.56 0 230.09-133.92 362.15-377.28 372.18zm-557.75 1755.9a2693.2 2693.2 0 0 1 274.91-72.813c129.63-28.58 304.18-59.538 359.08-63.77l75.712-5.7972 19.421-1.7392v-28.58l-1.9131-0.6377c-134.38-43.769-169.22-110.79-169.22-326.15v-493.11l12.29-1.2174a426.1 426.1 0 0 1 45.624-2.7247c144.93 0 209.05 70.436 244.64 269.28 39.189 218.9 46.668 253.51 72.987 336.82a477.87 477.87 0 0 0 95.886 172.64c61.625 70.263 149.16 108.93 246.56 108.93 113.86 0 235.54-51.422 317.52-134.15l1.5073-1.5073-11.131-20.58-2.087 0.4638c-49.74 9.5075-70.495 12.174-96.698 12.174-56.465 0-85.104-16.638-105.74-61.335-17.392-37.508-20.29-48.581-45.334-169.16-84.582-407.02-169.98-510.45-474.91-564.71 179.02-50.61 279.08-96.988 354.68-163.95 73.625-65.335 121.28-173.92 121.28-276.53 0-130.9-76.118-263.48-180.93-315.37-80.64-39.827-188.64-56.871-361.23-56.871h-788.25v28.464l1.6812 0.75365c129.97 57.335 159.83 121.74 159.83 343.89v1051.9c0 129.16-9.5655 181.4-46.378 254.15-29.392 57.972-52.175 84.93-127.54 152.53l-1.2174 1.1594 6.261 28.986z"/>
  <path class="cls-1" d="m10661 2023.3 137.68-644.94h10.377l136 550.16c-103.6 44.755-144.47 58.436-284.06 94.785m926.05 334.5h-2.203c-52.929-0.5218-85.393-12.464-111.94-41.334-38.029-41.392-56.639-85.104-110.67-260.18-17.392-55.77-27.131-90.263-31.595-108.58l-237.69-983.56-0.464-2.203h-584.77v28.464l1.681 0.81162c102.9 46.842 147.83 78.321 202.09 145.8l-289.86 1357.9c-38.958 128.29-86.959 242.09-126.15 298.67-37.566 53.74-64.871 80.176-153.68 148.87l-1.334 1.0435 3.885 29.74 215.08-56.813c138.03-36.465 252.41-69.915 321.81-94.031l2.318-0.8116-4.637-27.827-1.855-0.4638c-103.25-25.624-134.79-64.755-134.79-167.42 0-19.305 1.333-40.87 3.594-63.77l85.741-401.46 24.638-7.5364c122.9-37.972 241.17-80.234 317.23-113.34l24.696 101.22c27.885 114.26 40.581 204.35 40.581 283.49 0 120.29-36.175 212.41-107.54 273.86l-1.218 1.1015 4.754 28.986 3.305-1.3333a3725.5 3725.5 0 0 0 654.34-340.53l1.681-1.1594z"/>
  <path class="cls-1" d="m6022.5 1043.3c202.27 0 267.2 184.76 267.2 760.37 0 382.62-31.827 640.48-92.118 745.24-32.349 56.407-93.51 87.48-172.29 87.48-137.97 0-202.9-71.48-230.96-255.08-28.58-185.51-39.189-342.62-39.016-579.72 0-573.93 65.045-758.4 267.2-758.4m0 1708.7c214.5 0 391.43-84.292 511.14-243.48 119.71-159.19 182.67-394.21 182.67-679.67 0-292.47-59.944-519.32-178.21-674.16-118.26-154.84-291.89-233.69-515.61-233.69s-397.17 78.611-515.61 233.69c-118.44 155.08-178.15 381.52-178.15 673.87 0 285.57 63.132 520.65 182.61 679.9 119.48 159.25 296.41 243.77 511.14 243.77"/>
  <path class="cls-1" d="m10610 3386.8c-405.34 137.68-838.4 204.58-1324 204.58-322.21 0-493.17-16.29-1016.2-96.93l-583.2-89.857-619.78-106.84c-305.11-52.639-693.18-100.18-1012.9-124.18-224.99-16.986-451.72-25.566-673.81-25.566-660.89 0-1256 72.582-1769.6 215.77-273.57 76.35-556.54 182.38-840.6 315.14-140.41 65.683-248.06 118.21-351.14 176.93l5.3914 10.319c232.18-108.18 441.69-178.27 723.15-241.98 274.27-61.973 478.16-85.046 752.19-85.046 143.77 0 304.59 7.1886 465.11 20.812 103.42 8.9277 246.27 24.58 424.53 46.378 236.3 29.276 425.17 56.291 561.23 80.234l572.3 100.64c83.886 14.783 243.48 40.929 486.97 80.002 236.18 37.74 402.5 63.77 494.39 76.524 383.02 53.74 687.38 76.698 1017.8 76.698 878.46 0 1779.1-176.47 2536.1-496.82 245.92-103.94 472.82-220.3 656.25-336.76l-5.797-10.087a3869.2 3869.2 0 0 1-498.56 209.69"/>
  <path class="cls-1" d="m2697.2 554.37c46.378 0.86959 81.161 11.073 138.84 40.581 75.828 38.842 82.031 41.682 111.02 49.103a263.25 263.25 0 0 0 60.987 7.6524c162.84 3.0146 282.33-126.09 285.75-308.65 3.5363-193.22-141.68-340.24-339.49-343.95-164.64-3.0725-342.04 88.118-440.59 226.9-104.7 146.67-199.89 371.49-349.81 827.38l-492.77 1381.8-450.85-1349.1c-37.798-112.99-49.856-189.51-49.856-247.08 0-111.08 79.422-210.73 214.79-269.46v-24.232h-1385.2v24.232c154.38 32.581 253.69 86.669 327.08 178.38 71.132 88.988 150.73 238.44 215.08 415.95l883.96 2475.9 944.55-2712.4c100.52-268.18 198.15-375.37 326.5-372.99"/>
 </g>
</svg>
