<svg width="800" height="187.52" data-name="Capa 1" version="1.1" viewBox="0 0 800 187.52" xmlns="http://www.w3.org/2000/svg">
 <g transform="matrix(5.3333 0 0 5.3333 0 -306.24)" fill="#dd5652">
  <path class="cls-1" d="m20.73 58.5h-13.62l-7.11 33.42h8.71l2.84-13.39h2.3c2.1 0 2.64 1 1.84 4.78l-0.48 2.25c-0.3 1.4-1 4.59-0.51 6.36h9.3l0.1-0.46a1.71 1.71 0 0 1-0.76-1c-0.29-0.66 0.19-2.91 0.56-4.64l0.61-2.85c0.94-4.45 0.24-7.12-3.89-7.5v-0.09c4.11-0.61 6.46-3.51 7.4-8 1.09-5.14-0.64-8.88-7.29-8.88zm-1.73 10.16c-0.51 2.38-2 4-4.5 4h-1.69l1.67-7.87h1.68c2.63-0.02 3.45 1.15 2.84 3.87z"/>
  <path class="cls-1" d="m42.13 65.94c-3.84 0-10 1.26-11.49 8.48h7.3c0.61-2.64 1.5-3.33 3.1-3.33s2 0.79 1.66 2.31-1.15 2.33-3.07 2.75l-3.49 0.8c-5.65 1.27-7.76 3.48-8.76 8.18-0.93 4.36 0.38 7.45 5.44 7.45a7.66 7.66 0 0 0 6.46-3.51h0.09a16.38 16.38 0 0 0-0.09 2.85h8.14c-0.42-1.31-0.13-3.13 0.37-5.47l2.64-12.4c1.39-6.56-2.43-8.11-8.3-8.11zm-1.41 16.79c-0.59 2.77-1.64 4.18-3.51 4.18-1.27 0-1.83-1.08-1.48-2.77a4 4 0 0 1 2.44-3.29c1.33-0.56 2.49-0.51 3.1-1.17h0.1z"/>
  <path class="cls-1" d="m70.36 58.5-2.36 10.95h-0.1c-0.29-2.57-2.15-3.51-4.54-3.51-4.68 0-8.46 3.23-10.49 12.78-2 9.37-1 13.86 4.64 13.86 3 0 5-1.31 6.63-4.12h0.1l-0.74 3.46h8.15l7.1-33.42zm-4.42 20.78c-1.16 5.43-1.92 7-3.84 7s-2.05-1.6-0.89-7 1.92-7.07 3.89-7.07 2 1.6 0.84 7.07z"/>
  <polygon class="cls-1" points="81.17 66.6 75.79 91.92 84.21 91.92 89.6 66.6"/>
  <polygon class="cls-1" points="82.89 58.5 81.56 64.77 89.98 64.77 91.32 58.5"/>
  <path class="cls-1" d="m103.73 65.94c-9.51 0-12.18 6.65-13.6 13.3-1.55 7.3-1.94 13.34 7.93 13.34 9.51 0 12.19-6.65 13.6-13.3 1.55-7.28 1.95-13.34-7.93-13.34zm-0.5 13.34c-1.35 6.37-2.09 7.87-4 7.87s-2-1.5-0.67-7.87 2.15-7.91 4-7.91 2.03 1.5 0.67 7.91z"/>
  <polygon class="cls-1" points="119.31 58.5 112.21 91.92 120.63 91.92 127.74 58.5"/>
  <polygon class="cls-1" points="142.13 57.42 138.62 64.25 144.05 64.25 150 57.42"/>
  <path class="cls-1" d="m140.61 65.94c-7.58 0-11.54 3.65-13.6 13.34s-0.2 13.3 7.94 13.3c7 0 10.56-3.42 12-9.55h-7.59c-0.73 3.46-1.82 4.4-3.32 4.4-1.17 0-2.14-0.7-1.57-3.42l0.71-3.32h12.5l0.55-2.58c1.91-9.17-0.87-12.17-7.62-12.17zm0.38 9-0.24 1.12h-4.64l0.24-1.12c0.57-2.67 1.39-3.89 3.12-3.89s2.09 1.26 1.53 3.95z"/>
 </g>
</svg>
