<svg id="a" version="1.1" viewBox="0 0 40.011 33.019" xmlns="http://www.w3.org/2000/svg">
 <path id="b" class="st0" d="m38.9 0.81902c-3-2.7-11.2 1.5-18.2 9.3-3.1 3.5-5.5 7.1-6.9 10.2l2.2 6.5v-8h1.2c1-2.3 2.8-4.9 5.1-7.5 5.1-5.7 11.1-8.7 13.3-6.8 2.2 2-0.2 8.2-5.4 13.9-0.1 0.1-0.2 0.3-0.3 0.4 0.3-0.1 0.7-0.1 1.2-0.1 0.6 0 1.1 0.1 1.4 0.2 6.3-7.4 9.3-15.5 6.4-18.1" fill="#e50046"/>
 <path id="c" class="st0" d="m33.5 6.419c-1.8-1.6-6.6 0.9-10.8 5.5-2.1 2.3-3.6 4.7-4.4 6.8h1.3c0.8 0 1.2 0.1 1.2 0.1 0.1-1.4 1.3-3.7 3.1-5.8 2.6-2.9 5.5-4.4 6.6-3.4s-0.1 4.1-2.7 6.9c-0.7 0.8-1.5 1.5-2.2 2.1h1.2v1.3c0.8-0.7 1.5-1.4 2.3-2.3 4.2-4.5 6.1-9.6 4.4-11.2" fill="#e50046"/>
 <path id="d" class="st0" d="m25.6 14.219c0.7-0.8 1.6-1.3 1.8-1 0.3 0.2-0.1 1.1-0.8 1.9s-1.6 1.3-1.8 1c-0.3-0.3 0-1.1 0.8-1.9m-2.5 3.7c0.7 0.6 2.5-0.3 4.1-2.1s2.4-3.7 1.7-4.3-2.5 0.3-4.1 2.1c-1.6 1.7-2.4 3.7-1.7 4.3m-18.3 3.5c0 0.7-0.7 0.8-1.2 0.8h-1v-1.5h1c0.2 0 0.5 0 0.7 0.1 0.4 0.1 0.5 0.3 0.5 0.6m2.8 5.6-1.6-3.5c1-0.4 1.5-1.1 1.5-2.1 0-0.8-0.3-1.5-1-1.9-0.6-0.4-1.4-0.5-2.2-0.5h-4.3v8h2.6v-3.1h0.8l1.2 3.1zm4.6-3.4h-1.4l0.7-2.3zm0.9 3.4h2.7l-2.7-8h-2.7l-2.6 8h2.1l0.5-1.6h2.3zm7.9-4.1c0 0.5-0.1 1.1-0.4 1.5-0.1 0.2-0.3 0.4-0.6 0.5-0.3 0.2-0.5 0.1-0.9 0.1h-0.4v-4.4h0.3c0.6 0 1 0 1.4 0.5 0.4 0.6 0.6 1.3 0.6 1.8m1.5 3c0.8-0.8 1.2-1.9 1.2-2.9 0-1.2-0.4-2.3-1.3-3.1s-1.9-1-3.1-1h-3.1v8h2.7s0.1 0 0.1-0.1c0.6-0.4 1.1-0.6 1.4-0.6 0.2 0 0.3 0 0.4 0.1s0.1 0.2 0.1 0.3c0.5-0.3 0.9-0.4 1.1-0.4s0.4-0.1 0.5-0.3m1.5 1.1h2.6v-8h-2.6zm8.2-4c0 0.8-0.1 2.3-1.3 2.3s-1.3-1.5-1.3-2.3 0.1-2.4 1.3-2.4 1.3 1.6 1.3 2.4m2.8 0c0-2.4-1.5-4.2-4.1-4.2s-4.1 1.8-4.1 4.2c0 2.3 1.5 4.1 4.1 4.1s4.1-1.8 4.1-4.1" fill="#e50046"/>
 <path id="e" class="st0" d="m30.9 29.919c0-0.2 0.2-0.5 0.3-0.7 0.2-0.3 0.6-0.5 0.8-0.5 0.1 0 0.2 0.1 0.2 0.1v0.1h-0.1c-0.1 0-0.2 0.1-0.2 0.2s-0.1 0.2-0.4 0.4c-0.1 0.1-0.4 0.4-0.6 0.4m1.3-1.8c-0.2 0-0.4 0.1-0.6 0.2s-0.6 0.4-0.9 0.8-0.5 0.8-0.5 1.1c0 0.2 0.1 0.4 0.3 0.4s0.5-0.2 0.6-0.2c0.2-0.1 0.4-0.3 0.5-0.4h0.1c0 0.1 0 0.3-0.1 0.6-0.1 0.4-0.2 0.9-0.5 1.3s-0.6 0.6-0.8 0.6c-0.1 0-0.2-0.1-0.3-0.2s-0.2-0.2-0.3-0.2-0.4 0.2-0.4 0.4 0.3 0.3 0.5 0.3h0.5c0.2 0 0.6-0.2 0.9-0.4 0.3-0.3 0.7-0.8 0.9-1.6 0.1-0.3 0.3-1 0.4-1.7v-0.3c0.1-0.1 0.2-0.2 0.2-0.4 0 0-0.1-0.3-0.5-0.3m-4-0.1c-0.1 0-0.3 0.1-0.4 0.3s-0.3 0.9-0.5 1.7v0.3c0.1 0.1 0.1 0.1 0.2 0.1 0 0 0.1 0 0.2-0.1 0.3-0.5 0.7-0.9 1-1.3 0.1-0.1 0.1-0.1 0.2-0.1v0.1c0 0.1-0.1 0.3-0.1 0.6-0.1 0.7 0.1 1 0.4 1 0.4 0 0.9-0.3 1.5-1.3 0.1-0.2 0.1-0.3 0.1-0.3h-0.1c-0.4 0.5-1 1.1-1.2 1.1-0.1 0-0.2-0.1-0.1-0.5l0.3-0.9c0.1-0.1 0.1-0.3 0.2-0.3 0-0.1 0.1-0.2-0.1-0.3-0.1 0-0.1-0.1-0.2-0.1s-0.1 0-0.2 0.1c0 0.1-0.1 0.1-0.1 0.1-0.1 0-0.1 0.1-0.3 0.2-0.2 0.2-0.6 0.5-0.8 0.7-0.1 0.1-0.1 0.1-0.1 0s0.1-0.4 0.2-0.5 0.1-0.2 0.2-0.2c0 0 0.1 0 0.1-0.1s-0.2-0.3-0.4-0.3m-1.8 2c-0.1 0-0.1-0.1-0.1-0.2 0-0.3 0.2-0.7 0.3-1 0.1-0.1 0.1-0.2 0.1-0.3 0.1-0.2-0.1-0.4-0.3-0.4-0.1 0-0.2 0.1-0.3 0.2-0.1 0.2-0.4 0.7-0.7 1.1s-0.5 0.5-0.6 0.5-0.1-0.1 0-0.3c0.1-0.3 0.1-0.4 0.2-0.5 0-0.1 0.1-0.1 0.2-0.2s0.2-0.3 0.2-0.4-0.2-0.3-0.4-0.3c-0.1 0-0.2 0.1-0.2 0.2l-0.5 1c-0.2 0.5-0.2 0.7-0.2 0.8 0 0.2 0.1 0.4 0.3 0.4 0.1 0 0.2 0 0.4-0.1 0.4-0.3 0.9-0.7 1-0.8 0 0 0.1 0 0.1 0.1s0 0.2-0.1 0.3c-0.1 0.4 0 0.6 0.3 0.6 0.1 0 0.3 0 0.5-0.1s0.6-0.4 1.2-1.1c0.1-0.1 0.1-0.3 0.1-0.4s-0.1-0.1-0.1 0c-0.6 0.4-1.2 0.9-1.4 0.9m-4.4-2c-0.1 0-0.3 0.1-0.4 0.3s-0.3 0.9-0.5 1.7v0.3c0.1 0.1 0.1 0.1 0.2 0.1 0 0 0.1 0 0.2-0.1 0.3-0.5 0.7-0.9 1-1.3 0.1-0.1 0.1-0.1 0.2-0.1v0.1c0 0.1-0.1 0.3-0.1 0.6-0.1 0.7 0.1 1 0.4 1s0.9-0.3 1.5-1.3c0.1-0.2 0.1-0.3 0.1-0.3h-0.1c-0.4 0.5-1 1.1-1.2 1.1-0.1 0-0.2-0.1-0.1-0.5l0.3-0.9c0.1-0.1 0.1-0.3 0.2-0.3 0-0.1 0.1-0.2-0.1-0.3-0.1 0-0.1-0.1-0.2-0.1s-0.1 0-0.2 0.1c0 0.1-0.1 0.1-0.1 0.1-0.1 0-0.1 0.1-0.3 0.2-0.2 0.2-0.6 0.5-0.8 0.7-0.1 0.1-0.1 0.1-0.1 0s0.1-0.4 0.2-0.5 0.1-0.2 0.2-0.2c0 0 0.1 0 0.1-0.1-0.1-0.1-0.2-0.3-0.4-0.3m-0.2-1.5c-0.2 0-0.5 0.1-0.9 0.4s-0.7 0.8-0.9 1.4c0 0.1 0 0.1-0.1 0.1s-0.2 0-0.3 0.1c-0.1 0-0.1 0.1-0.1 0.2s0.1 0.2 0.3 0.2c0.1 0 0.1 0 0.1 0.1-0.1 0.6-0.4 1.6-0.5 2-0.3 1-0.4 1.1-0.8 1.3-0.1 0-0.2 0.1-0.3 0.3-0.1 0.1-0.1 0.2 0 0.3 0 0 0.1 0.1 0.2 0.1h0.2c0.4-0.2 0.8-0.7 1-1.1s0.4-1 0.6-1.9c0.1-0.4 0.2-0.8 0.3-1 0-0.1 0-0.1 0.1-0.1 0.2 0 0.8-0.1 1.2-0.4 0.1-0.1 0.2-0.2 0-0.2-0.3 0.1-0.6 0.1-1.1 0.2 0 0-0.1 0 0-0.1 0.3-0.9 0.7-1.2 1.1-1.2 0.1 0 0.2-0.1 0.3-0.2s0.1-0.2 0-0.3c-0.2-0.1-0.3-0.2-0.4-0.2m-1.6 0c-0.2 0-0.5 0.1-0.9 0.4s-0.7 0.8-0.9 1.4c0 0.1 0 0.1-0.1 0.1s-0.2 0-0.3 0.1c-0.1 0-0.1 0.1-0.1 0.2s0.1 0.2 0.3 0.2c0.1 0 0.1 0 0.1 0.1-0.1 0.6-0.4 1.6-0.5 2-0.3 1-0.4 1.1-0.8 1.3-0.1 0-0.2 0.1-0.3 0.3-0.1 0.1-0.1 0.2 0 0.3 0 0 0.1 0.1 0.2 0.1h0.2c0.4-0.2 0.8-0.7 1-1.1s0.4-1 0.6-1.9c0.1-0.4 0.2-0.8 0.3-1 0-0.1 0-0.1 0.1-0.1 0.2 0 0.8-0.1 1.2-0.4 0.1-0.1 0.2-0.2 0-0.2-0.3 0.1-0.6 0.1-1.1 0.2 0 0-0.1 0 0-0.1 0.3-0.9 0.7-1.2 1.1-1.2 0.1 0 0.2-0.1 0.3-0.2s0.1-0.2 0-0.3c-0.2-0.1-0.3-0.2-0.4-0.2m-3.7 3.5c0-0.3 0.3-0.8 0.6-1.2 0-0.1 0.1-0.1 0.2-0.1s0.2 0.2 0.2 0.4-0.2 0.8-0.4 1c-0.1 0.1-0.2 0.2-0.3 0.2-0.3-0.1-0.3-0.2-0.3-0.3m-0.7 0.1c0 0.3 0.2 0.6 0.5 0.6 0.5 0 0.9-0.3 1.3-0.7 0.3-0.3 0.4-0.6 0.4-0.9s-0.1-0.6-0.3-0.7c0 0-0.1 0-0.1-0.1s0-0.3-0.3-0.3c-0.1 0-0.2 0-0.3 0.1s-0.1 0.1-0.2 0.1-0.1 0-0.2 0.1c0 0.1-0.1 0.1-0.1 0.2s-0.1 0.2-0.1 0.3c-0.1 0.1-0.3 0.4-0.4 0.6-0.2 0.3-0.2 0.5-0.2 0.7m-0.2-2.8c-0.2 0-0.2 0-0.3 0.2s-0.4 1.1-0.5 1.3c0 0 0 0.1-0.1 0.1h-1s-0.1 0 0-0.1c0-0.1 0.3-0.7 0.3-0.8 0.2-0.5-0.2-0.6-0.3-0.6s-0.2 0.1-0.2 0.2c-0.1 0.3-0.4 1.1-0.5 1.2 0 0.1 0 0.1-0.1 0.1s-0.3 0.1-0.3 0.2 0.1 0.1 0.1 0.2v0.1c0 0.1-0.2 0.6-0.2 0.8 0 0.3 0 0.5 0.2 0.5s0.3-0.1 0.4-0.2l0.3-0.3c0.1-0.2 0-0.2-0.1-0.3 0 0-0.1 0 0-0.1 0.1-0.2 0.2-0.4 0.2-0.5s0.1-0.1 0.1-0.1h1.1c0.1 0 0.1 0 0 0.1 0 0.1-0.2 0.7-0.2 0.9 0 0.3 0.1 0.5 0.2 0.5 0 0 0.1 0 0.2-0.1s0.4-0.4 0.5-0.7c0-0.1 0-0.2-0.1-0.2s-0.1 0 0-0.1c0.1-0.2 0.1-0.3 0.1-0.3l0.1-0.1c0.3 0 0.6-0.1 0.7-0.2s0.1-0.2-0.1-0.1h-0.5c-0.1 0-0.1 0 0-0.1 0.1-0.3 0.2-0.5 0.3-0.8 0.1-0.2 0.1-0.3 0.1-0.4-0.1-0.2-0.2-0.3-0.4-0.3m-5.5 2c-0.1 0-0.1 0-0.1-0.1 0.1-0.2 0.3-0.5 0.4-0.5s0.2 0.1 0.2 0.2c0 0-0.3 0.4-0.5 0.4m-1 0.7c0 0.4 0.3 0.7 0.6 0.7 0.8 0 1.7-0.6 2.1-1.2 0.1-0.1 0.1-0.2 0.1-0.3 0 0-0.1-0.1-0.2 0-0.7 0.7-1.3 0.9-1.7 0.9-0.2 0-0.3-0.1-0.3-0.3 0-0.1 0-0.2 0.1-0.2 0 0 0-0.1 0.1 0 0.1 0 0.1 0.1 0.2 0.1 0.4 0 0.6-0.2 0.8-0.3 0.1-0.2 0.3-0.4 0.3-0.6 0-0.3-0.2-0.4-0.4-0.4 0 0-0.1 0-0.1-0.1s-0.1-0.1-0.2-0.1c-0.3 0-0.6 0.4-0.8 0.6-0.4 0.3-0.6 0.8-0.6 1.2m-0.9 0c-0.1 0-0.1-0.1-0.1-0.2 0-0.3 0.2-0.7 0.3-1 0.1-0.1 0.1-0.2 0.1-0.3 0.1-0.2-0.1-0.4-0.3-0.4-0.1 0-0.2 0.1-0.3 0.2-0.1 0.2-0.4 0.7-0.7 1.1s-0.5 0.5-0.6 0.5-0.1-0.1 0-0.3c0.1-0.3 0.1-0.4 0.2-0.5 0-0.1 0.1-0.1 0.2-0.2s0.2-0.3 0.2-0.4-0.2-0.3-0.4-0.3c-0.1 0-0.2 0.1-0.2 0.2l-0.5 1c-0.1 0.5-0.1 0.7-0.1 0.8 0 0.2 0.1 0.4 0.3 0.4 0.1 0 0.2 0 0.4-0.1 0.4-0.3 0.9-0.7 1-0.8 0 0 0.1 0 0.1 0.1s0 0.2-0.1 0.3c-0.1 0.4 0 0.6 0.3 0.6 0.1 0 0.3 0 0.5-0.1s0.6-0.4 1.2-1.1c0.1-0.1 0.1-0.3 0.1-0.4s-0.1-0.1-0.1 0c-0.7 0.4-1.2 0.9-1.5 0.9m-3.7-0.7c-0.1 0-0.1 0-0.1-0.1 0.1-0.2 0.3-0.5 0.4-0.5 0.2-0.1 0.2 0 0.2 0 0 0.2-0.3 0.6-0.5 0.6m-0.9 0.7c0 0.4 0.3 0.7 0.6 0.7 0.8 0 1.7-0.6 2.1-1.2 0.1-0.1 0.1-0.2 0.1-0.3 0 0-0.1-0.1-0.2 0-0.7 0.7-1.3 0.9-1.7 0.9-0.2 0-0.3-0.1-0.3-0.3 0-0.1 0-0.2 0.1-0.2 0 0 0-0.1 0.1 0 0.1 0 0.1 0.1 0.2 0.1 0.4 0 0.6-0.2 0.8-0.3 0.1-0.2 0.3-0.4 0.3-0.6 0-0.3-0.2-0.4-0.4-0.4 0 0-0.1 0-0.1-0.1s-0.1-0.1-0.2-0.1c-0.3 0-0.6 0.4-0.8 0.6-0.4 0.3-0.6 0.8-0.6 1.2m-2-2.6c-0.1 0-0.2 0-0.2 0.1l-0.1 0.1s0 0.1-0.1 0.1l-0.2 0.2c0 0.1 0 0.2 0.1 0.2 0 0 0.1 0.1 0 0.2 0 0.2-0.4 1.2-0.7 1.7 0 0.1-0.1 0.3-0.1 0.3 0 0.2 0.2 0.3 0.3 0.3s0.2 0 0.3-0.2c0.2-0.2 0.2-0.3 0.2-0.6v-0.2c0.1-0.2 0.3-0.7 0.4-0.9 0 0 0.1-0.1 0.1 0 0.1 0.2 0.4 0.7 0.6 1.1 0.2 0.3 0.3 0.5 0.3 0.5 0.1 0.1 0.2 0.2 0.3 0.2s0.2-0.1 0.2-0.1c0.1-0.1 0.1-0.2 0-0.2 0-0.1-0.1-0.1-0.1-0.2s0-0.2 0.1-0.4c0.2-0.6 0.3-1 0.6-1.6 0-0.1 0.1-0.2 0.2-0.2s0.2-0.1 0.2-0.1c0-0.1-0.1-0.5-0.3-0.5-0.1 0-0.2 0-0.3 0.1s-0.2 0.3-0.4 0.7c0 0.5-0.1 0.9-0.3 1.3 0 0.1 0 0.1-0.1 0s-0.7-1.1-0.7-1.3c0-0.1-0.1-0.1-0.1-0.2v-0.1s0.1-0.1 0-0.2c0 0 0-0.1-0.2-0.1" fill="#e50046"/>
</svg>
