<?xml version="1.0" encoding="UTF-8"?>
<!-- Created with Inkscape (http://www.inkscape.org/) -->
<svg id="svg2" width="800" height="117.4" version="1.1" viewBox="0 0 800 117.4" xml:space="preserve" xmlns="http://www.w3.org/2000/svg" xmlns:cc="http://creativecommons.org/ns#" xmlns:dc="http://purl.org/dc/elements/1.1/" xmlns:rdf="http://www.w3.org/1999/02/22-rdf-syntax-ns#"><metadata id="metadata8"><rdf:RDF><cc:Work rdf:about=""><dc:format>image/svg+xml</dc:format><dc:type rdf:resource="http://purl.org/dc/dcmitype/StillImage"/><dc:title/></cc:Work></rdf:RDF></metadata><g id="g10" transform="matrix(1.3333 0 0 -1.3333 -824.46 410.77)"><text id="text36" transform="scale(1,-1)" x="927.46985" y="-221.77667" fill="#c50c0e" font-family="ScalaSansOT-Regular" font-size="116.27px" stroke-width="3.2756"><tspan id="tspan34" x="927.46985 1012.4624 1078.8519" y="-221.77667" stroke-width="3.2756">HBR</tspan></text>
<text id="text40" transform="scale(1,-1)" x="606.99042" y="-221.78355" fill="#868786" font-family="ScalaSansOT-Light" font-size="116.27px" font-weight="300" stroke-width="3.2756"><tspan id="tspan38" x="606.99042 673.68225 738.74634 814.14673 844.21387" y="-221.78355" stroke-width="3.2756">RADIO</tspan></text>
<path id="path52" d="m1218.3 260.13c0 21.167-17.158 38.325-38.325 38.325h-26.752v-7.665h26.755c16.932 0 30.66-13.728 30.66-30.66 0-16.932-13.728-30.66-30.66-30.66h-26.755v-7.665h26.752c21.167 0 38.325 17.158 38.325 38.325m-38.322 26.827h-26.755v-7.665h26.755c10.584 0 19.162-8.5789 19.162-19.162 0-10.584-8.5788-19.162-19.162-19.162h-26.755v-7.665h26.755c14.816 0 26.827 12.012 26.827 26.827 0 14.816-12.012 26.827-26.827 26.827m7.665-26.827c0-4.2321-3.4329-7.665-7.665-7.665h-26.755v-7.665h26.755c8.4675 0 15.33 6.8624 15.33 15.33 0 8.4675-6.8624 15.33-15.33 15.33h-26.755v-7.665h26.755c4.2321 0 7.665-3.4328 7.665-7.665" fill="#868786"/></g></svg>
