<!DOCTYPE svg  PUBLIC '-//W3C//DTD SVG 1.1//EN'  'http://www.w3.org/Graphics/SVG/1.1/DTD/svg11.dtd' [
<!ENTITY ns_svg "http://www.w3.org/2000/svg">
<!ENTITY ns_xlink "http://www.w3.org/1999/xlink">
]>
<svg enable-background="new 0 0 199.662 98.079" overflow="visible" version="1.1" viewBox="0 0 199.66 98.079" xml:space="preserve" xmlns="http://www.w3.org/2000/svg">
<path d="m26.318 0.398s-15.057-0.935-17.098 14.011l-8.74 64.024s-2.041 14.949 12.946 13.208l158.95-18.461s14.984-1.742 14.188-16.808l-1.649-31.142s-0.793-15.065-15.853-15.997l-142.74-8.835" fill="#7FB93D"/>
<path d="m26.318 0.398s-15.057-0.935-17.098 14.011l-8.74 64.024s-2.041 14.949 12.946 13.208l158.95-18.461s14.984-1.742 14.188-16.808l-1.649-31.142s-0.793-15.065-15.853-15.997l-142.74-8.835" fill="none" stroke="#C3DA9F" stroke-width=".774"/>
<path d="m54.656 61.339s-5.88 0.354-5.298 6.216l2.549 25.533s0.588 5.862 6.396 4.879l101.74-17.336s5.809-0.987 5.815-6.878l0.039-13.226s0.015-5.89-5.865-5.536l-105.38 6.348" fill="#C3DA9F"/>
<path d="m68.347 64.235c-5.233 0.552-8.438 5.107-7.958 9.703 0.439 4.177 3.981 7.597 8.226 7.15 0.78-0.085 1.577-0.308 2.186-0.662l0.076 0.063c-0.992 1.788-3.051 4.291-4.283 6.174-0.37 0.577-0.643 1.034-0.591 1.529 0.135 1.271 1.791 2.422 2.784 2.315 0.281-0.028 0.671-0.067 1.031-0.357 0.396-0.326 0.792-0.658 1.045-0.97 3.223-3.699 7.843-11.768 7.283-17.105-0.495-4.704-4.351-8.413-9.799-7.84z" fill="none" stroke="#fff" stroke-miterlimit="1.651" stroke-width=".601"/>
<path d="m69.655 76.688c-2.229 0.233-3.549-1.451-3.747-3.324-0.215-2.053 0.959-3.822 2.975-4.035 2.121-0.223 3.539 1.345 3.746 3.327 0.219 2.089-0.958 3.82-2.974 4.032z" fill="none" stroke="#fff" stroke-miterlimit="1.651" stroke-width=".601"/>
<path d="m90.404 82.197 0.315 3.005c0.198 1.876 1.033 2.684 2.839 2.496 1.802-0.195 2.449-1.154 2.255-3.027l-0.315-3.009 0.603-0.063c1.377-0.146 2.379-1.183 2.229-2.595-0.148-1.412-1.345-2.22-2.719-2.074l-0.602 0.063-1.144-10.857c-0.343-3.221-2.495-4.318-4.541-4.099-1.841 0.19-2.769 0.931-3.392 2.428l-6.418 15.194c-0.174 0.375-0.414 0.831-0.329 1.606 0.092 0.921 0.959 2.008 2.69 1.827l8.529-0.895z" fill="none" stroke="#fff" stroke-miterlimit="1.651" stroke-width=".601"/>
<polygon points="89.912 77.527 85.063 78.041 88.808 67.668 88.875 67.658" fill="none" stroke="#fff" stroke-miterlimit="1.651" stroke-width=".601"/>
<path d="m98.805 84.568c0.156 1.522 1.529 2.627 3.048 2.468 1.522-0.159 2.627-1.525 2.468-3.048-0.159-1.519-1.529-2.627-3.048-2.468-1.523 0.159-2.631 1.529-2.468 3.048z" fill="none" stroke="#fff" stroke-miterlimit="1.651" stroke-width=".601"/>
<path d="m112.37 64.974 6.647-0.7c0.638-0.064 2.457-0.471 2.199-2.91-0.135-1.271-1.189-2.128-2.814-1.958l-8.524 0.896c-1.699 0.178-2.309 0.854-2.407 3.65l-0.1 7.554c8e-3 0.396-0.028 0.754 0.021 1.215 0.063 0.602 0.885 1.589 2.259 1.444 1.806-0.188 2.004-1.388 4.053-1.607 2.195-0.227 3.544 1.098 3.771 3.218 0.237 2.227-0.786 4.765-3.264 5.026-2.368 0.252-4.305-1.833-5.721-1.685-1.307 0.138-2.287 1.349-2.152 2.655 0.325 3.115 5.771 4.188 8.283 3.922 6.121-0.641 8.964-4.875 8.341-10.783-0.433-4.138-3.834-7.214-8.11-6.765-0.885 0.096-1.788 0.368-2.616 0.634l0.134-3.806z" fill="none" stroke="#fff" stroke-miterlimit="1.651" stroke-width=".601"/>
<path d="m78.146 72.076c0.56 5.338-4.061 13.409-7.287 17.108-0.249 0.312-0.645 0.641-1.041 0.97-0.36 0.287-0.754 0.326-1.035 0.358-0.989 0.103-2.646-1.048-2.78-2.319-0.055-0.495 0.221-0.956 0.591-1.525 1.232-1.884 3.291-4.39 4.283-6.174l-0.079-0.063c-0.605 0.351-1.402 0.577-2.183 0.658-4.244 0.446-7.786-2.974-8.226-7.147-0.48-4.599 2.725-9.154 7.958-9.703 5.444-0.574 9.304 3.132 9.799 7.837m-5.517 0.58c-0.207-1.982-1.625-3.55-3.749-3.323-2.017 0.209-3.187 1.979-2.972 4.031 0.198 1.873 1.519 3.558 3.747 3.324 2.016-0.212 3.193-1.943 2.974-4.032" fill="#B00A2A"/>
<path d="m81.916 83.084c-1.731 0.185-2.603-0.906-2.698-1.826-0.081-0.775 0.16-1.229 0.333-1.607l6.411-15.189c0.63-1.498 1.558-2.241 3.395-2.433 2.05-0.216 4.206 0.878 4.542 4.1l1.14 10.86 0.602-0.067c1.381-0.145 2.577 0.662 2.727 2.075 0.148 1.416-0.854 2.449-2.234 2.595l-0.598 0.063 0.314 3.006c0.195 1.876-0.453 2.835-2.258 3.026-1.802 0.191-2.638-0.616-2.836-2.488l-0.318-3.01-8.522 0.895m6.994-15.43-0.074 8e-3 -3.734 10.368 4.847-0.51-1.039-9.866z" fill="#B00A2A"/>
<path d="m101.35 81.506c1.522-0.159 2.889 0.952 3.044 2.471 0.163 1.522-0.941 2.889-2.467 3.048-1.522 0.159-2.889-0.945-3.048-2.464-0.159-1.522 0.948-2.893 2.471-3.055" fill="#B00A2A"/>
<path d="m112.34 68.766c0.832-0.266 1.731-0.538 2.616-0.631 4.28-0.453 7.682 2.623 8.114 6.766 0.623 5.904-2.224 10.138-8.344 10.779-2.51 0.265-7.955-0.808-8.28-3.923-0.135-1.31 0.846-2.521 2.152-2.655 1.416-0.148 3.349 1.934 5.721 1.689 2.478-0.263 3.497-2.804 3.264-5.031-0.227-2.12-1.579-3.444-3.773-3.214-2.046 0.216-2.248 1.412-4.05 1.607-1.377 0.145-2.195-0.843-2.262-1.444-0.047-0.46-0.015-0.821-0.021-1.215l0.103-7.558c0.099-2.796 0.708-3.469 2.407-3.646l8.521-0.899c1.629-0.17 2.684 0.687 2.814 1.957 0.262 2.439-1.558 2.847-2.195 2.914l-6.647 0.7-0.14 3.804" fill="#B00A2A"/>
<path d="m16.312 48.914c0 2.762 1.765 4.305 4.14 4.305 2.377 0 4.142-1.543 4.142-4.305v-11.987h0.11l12.259 14.857c0.885 1.052 2.212 1.434 3.205 1.434 2.429 0 4.14-2.1 4.14-4.252 0-0.771-0.33-1.604-1.103-2.428l-9.388-10.05c5.632-0.882 10.215-4.365 10.215-10.439 0-8.666-5.246-12.475-13.749-12.475h-9.72c-2.761 0-4.251 1.656-4.251 4.304v31.036z" fill="none" stroke="#fff" stroke-miterlimit="1.651" stroke-width=".681"/>
<path d="m24.593 21.192h5.689c3.037 0 5.136 1.71 5.136 4.857 0 3.098-2.099 4.917-5.136 4.917h-5.689v-9.774z" fill="none" stroke="#fff" stroke-miterlimit="1.651" stroke-width=".681"/>
<path d="m73.407 28.372c0-2.047 0-5.193-3.811-5.193-1.931 0-3.588 1.381-3.81 3.313-1.768-2.481-4.639-3.643-7.564-3.643-7.29 0-13.144 6.68-13.144 15.405 0 8.946 5.687 15.293 13.144 15.293 3.037 0 5.521-1.268 7.564-3.695 0.551 2.099 1.491 3.366 3.81 3.366 3.811 0 3.811-3.147 3.811-5.189v-19.657z" fill="none" stroke="#fff" stroke-miterlimit="1.651" stroke-width=".681"/>
<path d="m53.031 38.254c0-3.809 1.933-8.12 6.296-8.12 4.195 0 6.131 4.312 6.131 8.12 0 3.81-1.991 8.008-6.131 8.008-4.309 0-6.296-4.198-6.296-8.008z" fill="none" stroke="#fff" stroke-miterlimit="1.651" stroke-width=".681"/>
<path d="m105.1 14.789c0-2.651-1.656-4.421-3.979-4.421s-3.979 1.77-3.979 4.421v10.821c-2.096-1.823-4.801-2.761-7.562-2.761-8.56 0-12.813 8.007-12.813 15.738 0 7.509 5.082 14.964 13.09 14.964 2.704 0 5.798-1.215 7.285-3.643 0.502 2.096 1.77 3.31 3.979 3.31 2.322 0 3.979-1.767 3.979-4.414v-34.015z" fill="none" stroke="#fff" stroke-miterlimit="1.651" stroke-width=".681"/>
<path d="m97.148 37.979c0 3.865-1.877 8.283-6.237 8.283-4.143 0-6.188-4.305-6.188-8.008 0-3.756 2.046-8.116 6.188-8.116 4.255 0 6.237 3.979 6.237 7.841z" fill="none" stroke="#fff" stroke-miterlimit="1.651" stroke-width=".681"/>
<path d="m109.14 48.804c0 2.647 1.656 4.418 3.979 4.418 2.315 0 3.972-1.771 3.972-4.418v-21.205c0-2.651-1.656-4.417-3.972-4.417-2.322 0-3.979 1.766-3.979 4.417v21.205z" fill="none" stroke="#fff" stroke-miterlimit="1.651" stroke-width=".681"/>
<path d="m113.11 11.252c-2.379 0-4.475 2.099-4.475 4.362 0 2.432 2.096 4.587 4.475 4.587 2.485 0 4.471-2.099 4.471-4.587 0-2.316-2.099-4.362-4.471-4.362z" fill="none" stroke="#fff" stroke-miterlimit="1.651" stroke-width=".681"/>
<path d="m134.87 22.849c-8.397 0-14.252 7.346-14.252 15.405 0 8.284 5.692 15.297 14.252 15.297 8.556 0 14.244-7.013 14.244-15.297 0-8.059-5.854-15.405-14.244-15.405z" fill="none" stroke="#fff" stroke-miterlimit="1.651" stroke-width=".681"/>
<path d="m134.87 30.138c4.357 0 6.29 4.308 6.29 8.116 0 3.81-1.985 8.008-6.29 8.008-4.309 0-6.302-4.198-6.302-8.008 0-3.808 1.934-8.116 6.302-8.116z" fill="none" stroke="#fff" stroke-miterlimit="1.651" stroke-width=".681"/>
<path d="m16.312 17.878c0-2.647 1.49-4.304 4.251-4.304h9.72c8.503 0 13.749 3.809 13.749 12.475 0 6.078-4.583 9.554-10.215 10.436l9.385 10.054c0.775 0.824 1.105 1.656 1.105 2.428 0 2.152-1.711 4.252-4.14 4.252-0.996 0-2.32-0.386-3.205-1.434l-12.259-14.858h-0.11v11.986c0 2.758-1.765 4.305-4.142 4.305-2.375 0-4.14-1.547-4.14-4.305v-31.035m8.282 13.088h5.689c3.037 0 5.136-1.823 5.136-4.917 0-3.147-2.099-4.857-5.136-4.857h-5.689v9.774z" fill="#368DBF"/>
<path d="m73.462 48.032c0 2.039 0 5.187-3.811 5.187-2.32 0-3.255-1.268-3.809-3.366-2.041 2.428-4.528 3.699-7.565 3.699-7.453 0-13.14-6.351-13.14-15.297 0-8.722 5.853-15.405 13.14-15.405 2.928 0 5.799 1.161 7.565 3.646 0.221-1.933 1.878-3.313 3.809-3.313 3.811 0 3.811 3.146 3.811 5.192v19.657m-14.08-1.77c4.141 0 6.13-4.198 6.13-8.008 0-3.809-1.932-8.116-6.13-8.116-4.361 0-6.296 4.308-6.296 8.116 0 3.81 1.99 8.008 6.296 8.008" fill="#368DBF"/>
<path d="m105.16 48.804c0 2.647-1.656 4.414-3.972 4.414-2.209 0-3.483-1.214-3.979-3.313-1.49 2.432-4.581 3.646-7.285 3.646-8.008 0-13.088-7.455-13.088-14.964 0-7.731 4.248-15.738 12.808-15.738 2.762 0 5.466 0.938 7.565 2.761v-10.821c0-2.651 1.656-4.415 3.979-4.415 2.315 0 3.972 1.763 3.972 4.415v34.015m-14.187-18.666c-4.143 0-6.188 4.36-6.188 8.116 0 3.703 2.046 8.008 6.188 8.008 4.36 0 6.237-4.418 6.237-8.283 0-3.862-1.986-7.841-6.237-7.841" fill="#368DBF"/>
<path d="m117.69 15.614c0 2.488-1.989 4.587-4.472 4.587-2.375 0-4.471-2.155-4.471-4.587 0-2.263 2.096-4.362 4.471-4.362 2.377 0 4.472 2.046 4.472 4.362m-8.446 11.985c0-2.651 1.656-4.421 3.975-4.421s3.976 1.77 3.976 4.421v21.201c0 2.651-1.656 4.418-3.976 4.418-2.318 0-3.975-1.767-3.975-4.418v-21.201z" fill="#368DBF"/>
<path d="m149.22 38.254c0 8.284-5.685 15.293-14.244 15.293-8.561 0-14.252-7.009-14.252-15.293 0-8.06 5.854-15.405 14.252-15.405 8.389 0 14.244 7.346 14.244 15.405m-20.539 0c0 3.81 1.982 8.008 6.295 8.008 4.304 0 6.294-4.198 6.294-8.008 0-3.809-1.934-8.116-6.294-8.116-4.366 0-6.295 4.308-6.295 8.116" fill="#368DBF"/>
<path d="m153.1 72.394h18.723v-21.579h8.945l7.168-14.411h-16.956s0.386-1.622 0.843-3.402c0.658-2.305 3.391-2.057 4.853-2.096 1.466-0.035 13.916 0 13.916 0l8.793-16.751s-10.244-0.042-26.408-0.011c-9.268 0.025-19.876 7.692-19.876 17.796v40.454" fill="#B00A2A"/>
<path d="m153.1 72.394h18.723v-21.579h8.945l7.168-14.411h-16.956s0.386-1.622 0.843-3.402c0.658-2.305 3.391-2.057 4.853-2.096 1.466-0.035 13.916 0 13.916 0l8.793-16.751s-10.244-0.042-26.408-0.011c-9.268 0.025-19.876 7.692-19.876 17.796v40.454z" fill="none" stroke="#fff" stroke-width=".34"/>
</svg>
