<?xml version="1.0" encoding="UTF-8"?>
<!-- Generator: Adobe Illustrator 14.0.0, SVG Export Plug-In . SVG Version: 6.00 Build 43363)  -->
<svg id="Ebene_1" width="84.413" height="68.015" enable-background="new 0 0 201 78" xmlns:cc="http://creativecommons.org/ns#" xmlns:dc="http://purl.org/dc/elements/1.1/" xmlns:rdf="http://www.w3.org/1999/02/22-rdf-syntax-ns#" space="preserve" version="1.1" viewBox="0 0 84.413 68.015" xmlns="http://www.w3.org/2000/svg">
 <metadata id="metadata12">
  <rdf:RDF>
   <cc:Work rdf:about="">
    <dc:format>image/svg+xml</dc:format>
    <dc:type rdf:resource="http://purl.org/dc/dcmitype/StillImage"/>
    <dc:title/>
   </cc:Work>
  </rdf:RDF>
 </metadata>
 <link id="dark-mode" href="" rel="stylesheet" type="text/css"/>
 <style id="dark-mode-custom-style" type="text/css"/>
 <path id="_x32_1" d="m59.213 49.966h24.975v5.049h-24.975zm-59.213 6.518h48.263v5.05h-48.263zm59.213 0h24.975v5.05h-24.975zm-59.063-1.469h48.113v-5.049h-41.738zm21.713-29.203c0.712-0.829 1.762-1.244 3.15-1.244 1.163 0 2.1 0.339 2.887 1.018 0.788 0.678 1.163 1.545 1.163 2.6 0 1.846-0.525 3.391-1.538 4.672-1.012 1.281-2.587 2.713-4.725 4.295l-14.437 11.38h26.85l4.538-3.505c2.962-2.298 5.175-4.822 6.6-7.498 1.425-2.713 2.138-5.84 2.138-9.382 0-3.128-0.525-5.954-1.613-8.441-1.087-2.487-2.625-4.597-4.612-6.292-2.025-1.696-4.425-3.015-7.275-3.919s-6.038-1.394-9.6-1.394-6.825 0.49-9.825 1.432-5.587 2.299-7.762 4.07c-2.025 1.733-3.75 3.918-4.988 6.443-1.237 2.524-1.913 5.426-2.025 8.591h20.024c-0.038-1.018 0.337-1.96 1.05-2.826zm37.35 22.721h24.938v-39.226h-33v19.029h8.062zm-59.213 14.47h48.263v5.012h-48.263zm59.213 0h24.975v5.012h-24.975zm-8.1-55.579h2.438v-2.337l0.825 2.336h3l-1.2-2.638c0.337-0.225 0.637-0.527 0.824-0.904 0.225-0.376 0.3-0.791 0.3-1.206 0-0.339-0.075-0.678-0.188-0.979-0.113-0.302-0.3-0.565-0.525-0.792-0.224-0.226-0.486-0.414-0.786-0.527s-0.638-0.188-0.975-0.188h-3.75v7.235zm2.438-3.919v-1.169h0.862c0.15 0 0.3 0.076 0.413 0.188 0.112 0.114 0.187 0.264 0.187 0.415s-0.075 0.302-0.188 0.415c-0.112 0.113-0.262 0.188-0.412 0.188h-0.862zm9.712-3.316h-3.225l-2.325 7.235h2.663l0.263-1.168h1.762l0.3 1.168h2.85zm-1.687 2.374 0.45 1.771h-0.938zm4.5 4.861h3c0.487 0 0.975-0.076 1.425-0.264s0.825-0.452 1.163-0.791c0.337-0.339 0.6-0.716 0.788-1.168s0.3-0.905 0.3-1.395-0.112-0.979-0.3-1.432-0.45-0.829-0.788-1.168c-0.337-0.339-0.712-0.603-1.163-0.791-0.45-0.188-0.9-0.264-1.425-0.264h-3zm2.437-2.299v-2.638h0.562c0.188 0 0.337 0.038 0.525 0.113 0.15 0.075 0.3 0.15 0.413 0.264 0.112 0.113 0.225 0.264 0.3 0.415 0.075 0.15 0.113 0.339 0.113 0.527s-0.038 0.339-0.113 0.527c-0.075 0.151-0.15 0.302-0.3 0.415-0.113 0.113-0.263 0.226-0.413 0.264-0.15 0.075-0.337 0.113-0.525 0.113h-0.562zm5.025 2.299h2.475v-7.235h-2.475zm3.638-2.148c0.188 0.452 0.45 0.867 0.825 1.206 0.337 0.339 0.75 0.603 1.2 0.829 0.45 0.188 0.938 0.301 1.462 0.301s1.013-0.113 1.462-0.301c0.45-0.188 0.863-0.452 1.2-0.829 0.337-0.339 0.6-0.753 0.788-1.206s0.3-0.942 0.3-1.47-0.112-1.018-0.3-1.47-0.45-0.866-0.788-1.206-0.75-0.603-1.2-0.829c-0.45-0.188-0.938-0.301-1.462-0.301s-1.013 0.113-1.462 0.301c-0.45 0.188-0.863 0.452-1.2 0.829-0.337 0.339-0.6 0.753-0.825 1.206-0.188 0.452-0.3 0.942-0.3 1.47-1e-3 0.49 0.112 0.98 0.3 1.47zm2.137-2.035c0.075-0.188 0.188-0.339 0.3-0.453 0.112-0.113 0.262-0.226 0.45-0.301s0.337-0.113 0.562-0.113c0.188 0 0.375 0.038 0.562 0.113 0.188 0.076 0.337 0.188 0.45 0.301 0.112 0.113 0.225 0.264 0.3 0.453 0.075 0.188 0.113 0.339 0.113 0.565 0 0.188-0.038 0.377-0.113 0.565s-0.188 0.339-0.3 0.452c-0.113 0.113-0.263 0.226-0.45 0.301-0.188 0.076-0.337 0.113-0.562 0.113-0.188 0-0.375-0.038-0.562-0.113-0.188-0.075-0.337-0.188-0.45-0.301s-0.225-0.264-0.3-0.452-0.112-0.339-0.112-0.565c0.037-0.189 0.037-0.377 0.112-0.565z" fill="#e40915"/>
</svg>
