<svg version="1.1" viewBox="0 0 35.466 15.012" xmlns="http://www.w3.org/2000/svg">
 <g transform="translate(-518.54 -652.58)">
  <path d="m518.54 667.54v-5.4838c0-0.1425 0.0163-0.3 0.0488-0.47375 0.0312-0.17375 0.10625-0.325 0.22125-0.45375 0.0713-0.0838 0.18-0.1625 0.32875-0.23625 0.1475-0.0737 0.3375-0.11125 0.57-0.11125h3.7362c0.27 0 0.5275 0.0275 0.7725 0.0825 0.24375 0.0538 0.46 0.185 0.64625 0.39125 0.16125 0.16625 0.285 0.39375 0.3725 0.68 0.0863 0.28625 0.13 0.67375 0.13 1.1638 0 0.11625-5e-3 0.26875-0.015 0.45875-9e-3 0.19-0.035 0.3875-0.0762 0.59375-0.0425 0.20625-0.10375 0.405-0.18375 0.59875-0.0812 0.1925-0.19125 0.35-0.33375 0.4725-0.16 0.135-0.3525 0.23-0.57375 0.285-0.2225 0.055-0.42625 0.0825-0.61375 0.0825h-2.8475v1.95zm3.7462-3.63c0.135 0 0.2675-5e-3 0.39625-0.015s0.2375-0.0625 0.3275-0.15875c0.11625-0.12875 0.17375-0.325 0.17375-0.59 0-0.09-9e-3 -0.1825-0.0287-0.28-0.0187-0.0963-0.0738-0.18-0.16375-0.25-0.09-0.0775-0.195-0.1225-0.31375-0.135-0.11875-0.0137-0.24375-0.02-0.3725-0.02h-1.2062c-0.09 0-0.16 0.015-0.2075 0.0438-0.0488 0.0287-0.085 0.0625-0.11125 0.10125-0.0263 0.0388-0.0412 0.08-0.0488 0.125-6e-3 0.045-9e-3 0.0875-9e-3 0.12625v1.0525h1.5638" fill="#3da9d1"/>
  <path d="m518.54 667.54v-5.4838c0-0.1425 0.0163-0.3 0.0488-0.47375 0.0312-0.17375 0.10625-0.325 0.22125-0.45375 0.0713-0.0838 0.18-0.1625 0.32875-0.23625 0.1475-0.0737 0.3375-0.11125 0.57-0.11125h3.7362c0.27 0 0.5275 0.0275 0.7725 0.0825 0.24375 0.0538 0.46 0.185 0.64625 0.39125 0.16125 0.16625 0.285 0.39375 0.3725 0.68 0.0863 0.28625 0.13 0.67375 0.13 1.1638 0 0.11625-5e-3 0.26875-0.015 0.45875-9e-3 0.19-0.035 0.3875-0.0762 0.59375-0.0425 0.20625-0.10375 0.405-0.18375 0.59875-0.0812 0.1925-0.19125 0.35-0.33375 0.4725-0.16 0.135-0.3525 0.23-0.57375 0.285-0.2225 0.055-0.42625 0.0825-0.61375 0.0825h-2.8475v1.95z" fill="none" stroke="#3da9d1" stroke-width=".0025"/>
  <path d="m529.28 662.42c0.315 0 0.5775 0.0462 0.78625 0.14 0.21 0.0937 0.36875 0.195 0.47875 0.30375 0.1025 0.10375 0.18625 0.2175 0.25125 0.34375 0.0638 0.125 0.11375 0.25 0.14875 0.37625 0.0362 0.125 0.0588 0.25125 0.0675 0.37625 0.01 0.125 0.015 0.24 0.015 0.3425v2.1438c0 0.135-0.0125 0.275-0.0388 0.42-0.025 0.145-0.0962 0.27875-0.2125 0.40125-0.1225 0.12875-0.26 0.205-0.415 0.23125-0.15375 0.025-0.305 0.0387-0.45375 0.0387h-3.0125c-0.16125 0-0.32375-0.0137-0.4875-0.0387-0.16375-0.0263-0.31375-0.1025-0.44875-0.23125-0.0962-0.0912-0.17375-0.1975-0.2325-0.31875-0.0575-0.1225-0.0987-0.25-0.125-0.38125-0.025-0.1325-0.0412-0.2625-0.0488-0.39125-6e-3 -0.12875-9e-3 -0.245-9e-3 -0.3475 0-0.11 5e-3 -0.22375 0.0137-0.34375 0.01-0.11875 0.0288-0.23625 0.0588-0.35125 0.0287-0.11625 0.0725-0.22625 0.13-0.32875 0.0575-0.10375 0.13875-0.19375 0.24125-0.27 0.14125-0.11 0.29125-0.17375 0.44875-0.19375 0.1575-0.0188 0.31125-0.0288 0.45875-0.0288h2.24v-0.0775c0-0.045-5e-3 -0.0975-0.0137-0.15875-0.01-0.0613-0.0375-0.12125-0.0825-0.17875-0.0713-0.0962-0.16125-0.155-0.27-0.17375-0.11-0.02-0.2125-0.0287-0.31-0.0287h-2.5675v-1.275zm-1.4875 3.1088c-0.0312 0-0.075 5e-3 -0.13 0.015s-0.10375 0.0337-0.15 0.0725c-0.0312 0.0312-0.0525 0.0688-0.0625 0.11125-9e-3 0.0412-0.0138 0.085-0.0138 0.13 0 0.0387 5e-3 0.0775 0.0138 0.115 0.01 0.0387 0.0312 0.075 0.0625 0.10625 0.0325 0.0325 0.0725 0.055 0.12125 0.0688 0.0487 0.0125 0.095 0.0187 0.14 0.0187h0.985c0.0512 0 0.1025-5e-3 0.15375-0.015 0.0525-9e-3 0.0937-0.0263 0.12625-0.0525 0.045-0.0325 0.0725-0.0712 0.0825-0.11625 9e-3 -0.045 0.0137-0.09 0.0137-0.135v-0.31875h-1.3425" fill="#3da9d1"/>
  <path d="m529.28 662.42c0.315 0 0.5775 0.0462 0.78625 0.14 0.21 0.0937 0.36875 0.195 0.47875 0.30375 0.1025 0.10375 0.18625 0.2175 0.25125 0.34375 0.0638 0.125 0.11375 0.25 0.14875 0.37625 0.0362 0.125 0.0588 0.25125 0.0675 0.37625 0.01 0.125 0.015 0.24 0.015 0.3425v2.1438c0 0.135-0.0125 0.275-0.0388 0.42-0.025 0.145-0.0962 0.27875-0.2125 0.40125-0.1225 0.12875-0.26 0.205-0.415 0.23125-0.15375 0.025-0.305 0.0387-0.45375 0.0387h-3.0125c-0.16125 0-0.32375-0.0137-0.4875-0.0387-0.16375-0.0263-0.31375-0.1025-0.44875-0.23125-0.0962-0.0912-0.17375-0.1975-0.2325-0.31875-0.0575-0.1225-0.0987-0.25-0.125-0.38125-0.025-0.1325-0.0412-0.2625-0.0488-0.39125-6e-3 -0.12875-9e-3 -0.245-9e-3 -0.3475 0-0.11 5e-3 -0.22375 0.0137-0.34375 0.01-0.11875 0.0288-0.23625 0.0588-0.35125 0.0287-0.11625 0.0725-0.22625 0.13-0.32875 0.0575-0.10375 0.13875-0.19375 0.24125-0.27 0.14125-0.11 0.29125-0.17375 0.44875-0.19375 0.1575-0.0188 0.31125-0.0288 0.45875-0.0288h2.24v-0.0775c0-0.045-5e-3 -0.0975-0.0137-0.15875-0.01-0.0613-0.0375-0.12125-0.0825-0.17875-0.0713-0.0962-0.16125-0.155-0.27-0.17375-0.11-0.02-0.2125-0.0287-0.31-0.0287h-2.5675v-1.275z" fill="none" stroke="#3da9d1" stroke-width=".0025"/>
  <path d="m531.61 667.54h1.8924v-6.7588h-1.8924z" fill="#3da9d1"/>
  <path d="m531.61 660.78h1.8924v6.7588h-1.8924z" fill="none" stroke="#3da9d1" stroke-width=".0025"/>
  <path d="m536.92 662.36c0.2 0 0.405 5e-3 0.6175 0.015 0.2125 9e-3 0.41875 0.03 0.61875 0.0625 0.19875 0.0325 0.3875 0.0838 0.565 0.15375 0.17625 0.0713 0.33625 0.1675 0.4775 0.29 0.16125 0.14125 0.28625 0.3075 0.37625 0.4975s0.1575 0.38125 0.2025 0.57375c0.045 0.19375 0.0725 0.38 0.0825 0.56 0.01 0.18125 0.015 0.335 0.015 0.46375s-5e-3 0.28375-0.015 0.46375-0.0375 0.3675-0.0825 0.56-0.1125 0.385-0.2025 0.575c-0.09 0.18875-0.215 0.355-0.37625 0.49625-0.14125 0.1225-0.30125 0.21875-0.4775 0.29-0.1775 0.0712-0.36625 0.1225-0.565 0.155-0.2 0.0312-0.40625 0.0525-0.61875 0.0625s-0.4175 0.015-0.6175 0.015c-0.20625 0-0.41375-5e-3 -0.6225-0.015-0.21-0.01-0.41375-0.0312-0.61375-0.0625-0.19875-0.0325-0.3875-0.0838-0.565-0.155-0.17625-0.0713-0.33625-0.1675-0.4775-0.29-0.16125-0.14125-0.28625-0.3075-0.37625-0.49625-0.09-0.19-0.1575-0.3825-0.2025-0.575s-0.0725-0.38-0.0825-0.56-0.015-0.335-0.015-0.46375 5e-3 -0.2825 0.015-0.46375c0.01-0.18 0.0375-0.36625 0.0825-0.56 0.045-0.1925 0.1125-0.38375 0.2025-0.57375s0.215-0.35625 0.37625-0.4975c0.14125-0.1225 0.30125-0.21875 0.4775-0.29 0.1775-0.07 0.36625-0.12125 0.565-0.15375 0.2-0.0325 0.40375-0.0538 0.61375-0.0625 0.20875-0.01 0.41625-0.015 0.6225-0.015zm-1.0238 2.6162c0 0.28375 0.0213 0.49125 0.0625 0.6225 0.0425 0.1325 0.0825 0.22375 0.12125 0.27625 6e-3 0.0125 0.0275 0.0375 0.0625 0.0762 0.0362 0.0388 0.0875 0.0775 0.155 0.11625 0.0675 0.0387 0.15125 0.0738 0.25125 0.10625 0.0987 0.0325 0.22375 0.0487 0.37125 0.0487 0.2575 0 0.44875-0.0425 0.575-0.12625 0.125-0.0838 0.21-0.1575 0.255-0.22125 0.0775-0.11 0.12875-0.24 0.155-0.39125 0.025-0.15125 0.0388-0.32 0.0388-0.5075 0-0.27-0.0175-0.4725-0.0538-0.6075-0.035-0.13625-0.0788-0.23875-0.13-0.31-0.0512-0.0638-0.13875-0.135-0.26125-0.2125-0.12125-0.0762-0.315-0.115-0.57875-0.115s-0.4575 0.0388-0.57875 0.115c-0.1225 0.0775-0.21 0.14875-0.26125 0.2125-0.0325 0.0525-0.0713 0.1425-0.11625 0.27125-0.045 0.12875-0.0675 0.34375-0.0675 0.64625" fill="#3da9d1"/>
  <path d="m536.92 662.36c0.2 0 0.405 5e-3 0.6175 0.015 0.2125 9e-3 0.41875 0.03 0.61875 0.0625 0.19875 0.0325 0.3875 0.0838 0.565 0.15375 0.17625 0.0713 0.33625 0.1675 0.4775 0.29 0.16125 0.14125 0.28625 0.3075 0.37625 0.4975s0.1575 0.38125 0.2025 0.57375c0.045 0.19375 0.0725 0.38 0.0825 0.56 0.01 0.18125 0.015 0.335 0.015 0.46375s-5e-3 0.28375-0.015 0.46375-0.0375 0.3675-0.0825 0.56-0.1125 0.385-0.2025 0.575c-0.09 0.18875-0.215 0.355-0.37625 0.49625-0.14125 0.1225-0.30125 0.21875-0.4775 0.29-0.1775 0.0712-0.36625 0.1225-0.565 0.155-0.2 0.0312-0.40625 0.0525-0.61875 0.0625s-0.4175 0.015-0.6175 0.015c-0.20625 0-0.41375-5e-3 -0.6225-0.015-0.21-0.01-0.41375-0.0312-0.61375-0.0625-0.19875-0.0325-0.3875-0.0838-0.565-0.155-0.17625-0.0713-0.33625-0.1675-0.4775-0.29-0.16125-0.14125-0.28625-0.3075-0.37625-0.49625-0.09-0.19-0.1575-0.3825-0.2025-0.575s-0.0725-0.38-0.0825-0.56-0.015-0.335-0.015-0.46375 5e-3 -0.2825 0.015-0.46375c0.01-0.18 0.0375-0.36625 0.0825-0.56 0.045-0.1925 0.1125-0.38375 0.2025-0.57375s0.215-0.35625 0.37625-0.4975c0.14125-0.1225 0.30125-0.21875 0.4775-0.29 0.1775-0.07 0.36625-0.12125 0.565-0.15375 0.2-0.0325 0.40375-0.0538 0.61375-0.0625 0.20875-0.01 0.41625-0.015 0.6225-0.015z" fill="none" stroke="#3da9d1" stroke-width=".0025"/>
  <path d="m540.33 663.34c0-0.0775 0.0113-0.1675 0.0337-0.27 0.0225-0.10375 0.0725-0.20375 0.15-0.3 0.12875-0.1675 0.2775-0.26625 0.44875-0.29875 0.17-0.0325 0.35875-0.0487 0.565-0.0487h4.3925c0.29 0 0.58 0.04 0.86875 0.12125 0.29 0.08 0.53125 0.21 0.725 0.39125 0.18 0.16625 0.315 0.37875 0.405 0.63625s0.135 0.50625 0.135 0.74375v3.225h-1.8925v-2.8388c0-0.10875-0.0113-0.23375-0.0337-0.37125-0.0225-0.13875-0.0788-0.25625-0.16875-0.3525-0.0512-0.0588-0.12875-0.11-0.23125-0.155-0.10375-0.045-0.22875-0.0675-0.37625-0.0675h-0.2125v3.785h-1.8925v-3.785h-0.725c-0.0838 0-0.1425 0.01-0.17875 0.0287-0.035 0.02-0.0588 0.0362-0.0713 0.0488-0.02 0.0263-0.0325 0.0625-0.0387 0.11125-8e-3 0.0475-0.01 0.0975-0.01 0.14875v3.4475h-1.8925v-4.2" fill="#3da9d1"/>
  <path d="m540.33 663.34c0-0.0775 0.0113-0.1675 0.0337-0.27 0.0225-0.10375 0.0725-0.20375 0.15-0.3 0.12875-0.1675 0.2775-0.26625 0.44875-0.29875 0.17-0.0325 0.35875-0.0487 0.565-0.0487h4.3925c0.29 0 0.58 0.04 0.86875 0.12125 0.29 0.08 0.53125 0.21 0.725 0.39125 0.18 0.16625 0.315 0.37875 0.405 0.63625s0.135 0.50625 0.135 0.74375v3.225h-1.8925v-2.8388c0-0.10875-0.0113-0.23375-0.0337-0.37125-0.0225-0.13875-0.0788-0.25625-0.16875-0.3525-0.0512-0.0588-0.12875-0.11-0.23125-0.155-0.10375-0.045-0.22875-0.0675-0.37625-0.0675h-0.2125v3.785h-1.8925v-3.785h-0.725c-0.0838 0-0.1425 0.01-0.17875 0.0287-0.035 0.02-0.0588 0.0362-0.0713 0.0488-0.02 0.0263-0.0325 0.0625-0.0387 0.11125-8e-3 0.0475-0.01 0.0975-0.01 0.14875v3.4475h-1.8925z" fill="none" stroke="#3da9d1" stroke-width=".0025"/>
  <path d="m552.26 662.42c0.315 0 0.5775 0.0462 0.7875 0.14 0.20875 0.0937 0.3675 0.195 0.4775 0.30375 0.1025 0.10375 0.18625 0.2175 0.25125 0.34375 0.0638 0.125 0.11375 0.25 0.14875 0.37625 0.0362 0.125 0.0588 0.25125 0.0688 0.37625 9e-3 0.125 0.0137 0.24 0.0137 0.3425v2.1438c0 0.135-0.0125 0.275-0.0388 0.42-0.025 0.145-0.0962 0.27875-0.2125 0.40125-0.1225 0.12875-0.26 0.205-0.415 0.23125-0.15375 0.025-0.305 0.0387-0.45375 0.0387h-3.0125c-0.16125 0-0.32375-0.0137-0.4875-0.0387-0.16375-0.0263-0.31375-0.1025-0.44875-0.23125-0.0962-0.0912-0.17375-0.1975-0.23125-0.31875-0.0588-0.1225-0.1-0.25-0.12625-0.38125-0.025-0.1325-0.0412-0.2625-0.0475-0.39125-8e-3 -0.12875-0.01-0.245-0.01-0.3475 0-0.11 5e-3 -0.22375 0.0137-0.34375 0.01-0.11875 0.03-0.23625 0.0588-0.35125 0.0287-0.11625 0.0725-0.22625 0.13-0.32875 0.0575-0.10375 0.13875-0.19375 0.24125-0.27 0.14125-0.11 0.29125-0.17375 0.44875-0.19375 0.1575-0.0188 0.31125-0.0288 0.45875-0.0288h2.24v-0.0775c0-0.045-5e-3 -0.0975-0.0137-0.15875-0.01-0.0613-0.0375-0.12125-0.0825-0.17875-0.0712-0.0962-0.16125-0.155-0.27-0.17375-0.11-0.02-0.2125-0.0287-0.31-0.0287h-2.5675v-1.275zm-1.4862 3.1088c-0.0325 0-0.0762 5e-3 -0.13125 0.015-0.055 0.01-0.10375 0.0337-0.14875 0.0725-0.0325 0.0312-0.0538 0.0688-0.0638 0.11125-9e-3 0.0412-0.0137 0.085-0.0137 0.13 0 0.0387 5e-3 0.0775 0.0137 0.115 0.01 0.0387 0.0312 0.075 0.0638 0.10625 0.0312 0.0325 0.0712 0.055 0.12 0.0688 0.0487 0.0125 0.095 0.0187 0.14 0.0187h0.985c0.0512 0 0.1025-5e-3 0.155-0.015 0.0512-9e-3 0.0925-0.0263 0.125-0.0525 0.045-0.0325 0.0725-0.0712 0.0825-0.11625 9e-3 -0.045 0.0137-0.09 0.0137-0.135v-0.31875h-1.3412" fill="#3da9d1"/>
  <path d="m552.26 662.42c0.315 0 0.5775 0.0462 0.7875 0.14 0.20875 0.0937 0.3675 0.195 0.4775 0.30375 0.1025 0.10375 0.18625 0.2175 0.25125 0.34375 0.0638 0.125 0.11375 0.25 0.14875 0.37625 0.0362 0.125 0.0588 0.25125 0.0688 0.37625 9e-3 0.125 0.0137 0.24 0.0137 0.3425v2.1438c0 0.135-0.0125 0.275-0.0388 0.42-0.025 0.145-0.0962 0.27875-0.2125 0.40125-0.1225 0.12875-0.26 0.205-0.415 0.23125-0.15375 0.025-0.305 0.0387-0.45375 0.0387h-3.0125c-0.16125 0-0.32375-0.0137-0.4875-0.0387-0.16375-0.0263-0.31375-0.1025-0.44875-0.23125-0.0962-0.0912-0.17375-0.1975-0.23125-0.31875-0.0588-0.1225-0.1-0.25-0.12625-0.38125-0.025-0.1325-0.0412-0.2625-0.0475-0.39125-8e-3 -0.12875-0.01-0.245-0.01-0.3475 0-0.11 5e-3 -0.22375 0.0137-0.34375 0.01-0.11875 0.03-0.23625 0.0588-0.35125 0.0287-0.11625 0.0725-0.22625 0.13-0.32875 0.0575-0.10375 0.13875-0.19375 0.24125-0.27 0.14125-0.11 0.29125-0.17375 0.44875-0.19375 0.1575-0.0188 0.31125-0.0288 0.45875-0.0288h2.24v-0.0775c0-0.045-5e-3 -0.0975-0.0137-0.15875-0.01-0.0613-0.0375-0.12125-0.0825-0.17875-0.0712-0.0962-0.16125-0.155-0.27-0.17375-0.11-0.02-0.2125-0.0287-0.31-0.0287h-2.5675v-1.275z" fill="none" stroke="#3da9d1" stroke-width=".0025"/>
  <path d="m536.31 659.53c0.0225 9e-3 0.1175-0.0275 0.28625-0.10875 0.1675-0.0825 0.28625-0.13 0.355-0.14625l0.16625-0.035 0.14625-0.0388 0.15375-0.0137 0.17 0.015c0.02 0.01 0.0375 0.0312 0.055 0.065l6e-3 0.095c-0.01 0.0512-0.0312 0.0875-0.0662 0.11-0.13 0.0388-0.2425 0.0663-0.34125 0.0825-0.0987 0.0137-0.20625 0.0537-0.325 0.12l-0.14625 0.0862-0.14375 0.0825c-0.0975 0.0525-0.18375 0.12125-0.26 0.2075l-0.17 0.1925-0.15875 0.19375c-0.0987 0.12625-0.1925 0.26-0.28125 0.40375-0.03 0.0362-0.0712 0.0587-0.125 0.07l-0.14625 9e-3c-0.0275 5e-3 -0.0487-2e-3 -0.0637-0.0225l-0.0312-0.06-0.02-0.095 0.0188-0.09 0.0275-0.08 0.0325-0.0937 0.10375-0.245 0.1075-0.25c0.0263-0.0738 0.0537-0.155 0.0812-0.2425 0.0425-0.13 0.0725-0.22375 0.0875-0.28125 0.0275-0.0638 0.0463-0.135 0.0563-0.21125 1e-3 -0.0662 0.0325-0.13125 0.0937-0.195 0.025-0.025 0.0812-0.0462 0.1675-0.0612l0.0475 1e-3c0.0512 1e-3 0.09 0.0175 0.1175 0.05 0.0312 0.0575 0.045 0.11625 0.0437 0.17625l-0.0187 0.0762-0.0237 0.11-3e-3 0.12375" fill="#f47216"/>
  <path d="m536.31 659.53c0.0225 9e-3 0.1175-0.0275 0.28625-0.10875 0.1675-0.0825 0.28625-0.13 0.355-0.14625l0.16625-0.035 0.14625-0.0388 0.15375-0.0137 0.17 0.015c0.02 0.01 0.0375 0.0312 0.055 0.065l6e-3 0.095c-0.01 0.0512-0.0312 0.0875-0.0662 0.11-0.13 0.0388-0.2425 0.0663-0.34125 0.0825-0.0987 0.0137-0.20625 0.0537-0.325 0.12l-0.14625 0.0862-0.14375 0.0825c-0.0975 0.0525-0.18375 0.12125-0.26 0.2075l-0.17 0.1925-0.15875 0.19375c-0.0987 0.12625-0.1925 0.26-0.28125 0.40375-0.03 0.0362-0.0712 0.0587-0.125 0.07l-0.14625 9e-3c-0.0275 5e-3 -0.0487-2e-3 -0.0637-0.0225l-0.0312-0.06-0.02-0.095 0.0188-0.09 0.0275-0.08 0.0325-0.0937 0.10375-0.245 0.1075-0.25c0.0263-0.0738 0.0537-0.155 0.0812-0.2425 0.0425-0.13 0.0725-0.22375 0.0875-0.28125 0.0275-0.0638 0.0463-0.135 0.0563-0.21125 1e-3 -0.0662 0.0325-0.13125 0.0937-0.195 0.025-0.025 0.0812-0.0462 0.1675-0.0612l0.0475 1e-3c0.0512 1e-3 0.09 0.0175 0.1175 0.05 0.0312 0.0575 0.045 0.11625 0.0437 0.17625l-0.0187 0.0762-0.0237 0.11z" fill="none" stroke="#f47216" stroke-width=".0025"/>
  <path d="m539.53 659.73c-0.0263 0.0337-0.06 0.055-0.0988 0.065l-0.11625 0.015c-0.045-1e-3 -0.0863-0.0238-0.1225-0.0688-0.025-0.0425-0.06-0.0738-0.10875-0.0937l-0.0937-0.0113c-0.0875-1e-3 -0.17125 0.0263-0.24875 0.0812l-0.1525 0.11625-0.1425 0.11125-0.18875 0.1925c-0.055 0.0587-0.0825 0.1075-0.0838 0.1475 0 0.0225 9e-3 0.0438 0.0263 0.06 0.0187 0.0175 0.0425 0.0225 0.075 0.015l0.0775-0.0412c0.1-0.0312 0.2025-0.0875 0.30625-0.16875l0.13875-0.09 0.1725-0.0775 0.085-0.015c0.055 1e-3 0.11 0.0263 0.165 0.0763l0.19625 0.1925c0.0425 0.0487 0.0875 0.0937 0.13625 0.13125 0.05 0.0387 0.10875 0.0762 0.18 0.115l0.1725 0.0775 0.195 0.0687c0.0338 9e-3 0.0612 0.0475 0.0825 0.1175l8e-3 0.0888c-1e-3 0.0387-5e-3 0.0625-0.0113 0.0725-0.0175 0.0237-0.0375 0.0362-0.06 0.0375h-0.0637l-0.0438-1e-3c-0.1025-3e-3 -0.19125-0.0238-0.26625-0.065-0.105-0.0537-0.2125-0.1175-0.325-0.19125-0.045-0.0237-0.10875-0.075-0.1925-0.15375-0.0838-0.0788-0.155-0.1175-0.21125-0.12l-0.0512-5e-3c-0.1475-3e-3 -0.30125 0.065-0.46125 0.20375-0.15875 0.13875-0.32375 0.22125-0.49125 0.25-0.0612 0.015-0.1175 0.0225-0.17125 0.0212-0.0688-1e-3 -0.13625-0.02-0.20375-0.055-0.0375-0.0275-0.0538-0.0625-0.0525-0.10875l2e-3 -0.1325c0.0913-0.29375 0.25875-0.5675 0.50375-0.81875 0.22625-0.22625 0.48625-0.4225 0.78125-0.59125 0.0625-0.0325 0.17625-0.0625 0.3425-0.0912l0.0725 2e-3c0.11125 1e-3 0.19375 0.0412 0.2475 0.1175 0.0537 0.0762 0.08 0.16375 0.0775 0.2625-1e-3 0.0913-0.03 0.1775-0.0825 0.26125" fill="#f47216"/>
  <path d="m539.53 659.73c-0.0263 0.0337-0.06 0.055-0.0988 0.065l-0.11625 0.015c-0.045-1e-3 -0.0863-0.0238-0.1225-0.0688-0.025-0.0425-0.06-0.0738-0.10875-0.0937l-0.0937-0.0113c-0.0875-1e-3 -0.17125 0.0263-0.24875 0.0812l-0.1525 0.11625-0.1425 0.11125-0.18875 0.1925c-0.055 0.0587-0.0825 0.1075-0.0838 0.1475 0 0.0225 9e-3 0.0438 0.0263 0.06 0.0187 0.0175 0.0425 0.0225 0.075 0.015l0.0775-0.0412c0.1-0.0312 0.2025-0.0875 0.30625-0.16875l0.13875-0.09 0.1725-0.0775 0.085-0.015c0.055 1e-3 0.11 0.0263 0.165 0.0763l0.19625 0.1925c0.0425 0.0487 0.0875 0.0937 0.13625 0.13125 0.05 0.0387 0.10875 0.0762 0.18 0.115l0.1725 0.0775 0.195 0.0687c0.0338 9e-3 0.0612 0.0475 0.0825 0.1175l8e-3 0.0888c-1e-3 0.0387-5e-3 0.0625-0.0113 0.0725-0.0175 0.0237-0.0375 0.0362-0.06 0.0375h-0.0637l-0.0438-1e-3c-0.1025-3e-3 -0.19125-0.0238-0.26625-0.065-0.105-0.0537-0.2125-0.1175-0.325-0.19125-0.045-0.0237-0.10875-0.075-0.1925-0.15375-0.0838-0.0788-0.155-0.1175-0.21125-0.12l-0.0512-5e-3c-0.1475-3e-3 -0.30125 0.065-0.46125 0.20375-0.15875 0.13875-0.32375 0.22125-0.49125 0.25-0.0612 0.015-0.1175 0.0225-0.17125 0.0212-0.0688-1e-3 -0.13625-0.02-0.20375-0.055-0.0375-0.0275-0.0538-0.0625-0.0525-0.10875l2e-3 -0.1325c0.0913-0.29375 0.25875-0.5675 0.50375-0.81875 0.22625-0.22625 0.48625-0.4225 0.78125-0.59125 0.0625-0.0325 0.17625-0.0625 0.3425-0.0912l0.0725 2e-3c0.11125 1e-3 0.19375 0.0412 0.2475 0.1175 0.0537 0.0762 0.08 0.16375 0.0775 0.2625-1e-3 0.0913-0.03 0.1775-0.0825 0.26125z" fill="none" stroke="#f47216" stroke-width=".0025"/>
  <path d="m543.58 658.18-0.1525 0.33875-0.13875 0.33375c-0.0813 0.19125-0.165 0.4175-0.25 0.6775-0.11875 0.36125-0.2075 0.74625-0.2675 1.155l-0.0325 0.12375-0.0162 0.1225c-1e-3 0.0888-0.0475 0.14875-0.135 0.18125-0.06 6e-3 -0.11-6e-3 -0.15-0.0375-0.0487-0.0575-0.0725-0.1525-0.07-0.28375l1e-3 -0.0675 0.01-0.0812c2e-3 -0.105 9e-3 -0.1875 0.0187-0.2475 9e-3 -0.0587 0.0263-0.1275 0.0512-0.20375-0.0113-0.0137-0.0213-0.0212-0.03-0.0212-0.215 0.20625-0.435 0.3875-0.66 0.545-0.12375 0.085-0.2475 0.15-0.37125 0.19625-0.12375 0.0462-0.25 0.0675-0.38125 0.0638-0.085-1e-3 -0.1575-0.0175-0.21875-0.0462-0.06-0.03-0.12-0.0838-0.1775-0.1625-0.0475-0.08-0.0688-0.16375-0.0675-0.24875 1e-3 -0.0512 0.01-0.0975 0.0238-0.14 0.03-0.13125 0.0912-0.25 0.1875-0.35875 0.1325-0.185 0.30375-0.35375 0.515-0.505 0.1875-0.13625 0.39125-0.2575 0.61375-0.3625l0.14125-0.0488 0.215-0.055 0.0987-0.0113 0.06 1e-3c0.0675 2e-3 0.13875 0.0163 0.21125 0.0425l0.08 0.0512 0.0475 0.03c0.1075-0.3025 0.185-0.54125 0.23-0.715s0.1575-0.35625 0.3375-0.545c0.03-0.0375 0.0675-0.0538 0.1125-0.0538 0.0312 1e-3 0.0638 0.01 0.0975 0.0275 0.0225 0.0213 0.0437 0.0638 0.0662 0.13l2e-3 0.055-1e-3 0.0725zm-1.055 1.43 0.0275-0.0975c0.01-0.0238-5e-3 -0.05-0.045-0.0788l-0.1025-3e-3c-0.045-1e-3 -0.0937 6e-3 -0.145 0.0225l-0.2325 0.0625c-0.24375 0.10125-0.4625 0.2375-0.6575 0.40875l-0.2 0.205c-0.055 0.0612-0.10375 0.1375-0.145 0.2275-4e-3 9e-3 -0.0137 0.0375-0.0325 0.0862-0.0175 0.05-0.0275 0.0862-0.0275 0.10875-1e-3 0.0312 3e-3 0.055 9e-3 0.07 8e-3 0.0163 0.0362 0.0237 0.0875 0.025 0.0387 1e-3 0.095-5e-3 0.16625-0.0188 0.0712-0.015 0.15375-0.0475 0.245-0.0962l0.255-0.14125c0.17375-0.105 0.32625-0.2175 0.4625-0.34 0.135-0.12125 0.24625-0.26875 0.335-0.44125" fill="#f47216"/>
  <path d="m543.58 658.18-0.1525 0.33875-0.13875 0.33375c-0.0813 0.19125-0.165 0.4175-0.25 0.6775-0.11875 0.36125-0.2075 0.74625-0.2675 1.155l-0.0325 0.12375-0.0162 0.1225c-1e-3 0.0888-0.0475 0.14875-0.135 0.18125-0.06 6e-3 -0.11-6e-3 -0.15-0.0375-0.0487-0.0575-0.0725-0.1525-0.07-0.28375l1e-3 -0.0675 0.01-0.0812c2e-3 -0.105 9e-3 -0.1875 0.0187-0.2475 9e-3 -0.0587 0.0263-0.1275 0.0512-0.20375-0.0113-0.0137-0.0213-0.0212-0.03-0.0212-0.215 0.20625-0.435 0.3875-0.66 0.545-0.12375 0.085-0.2475 0.15-0.37125 0.19625-0.12375 0.0462-0.25 0.0675-0.38125 0.0638-0.085-1e-3 -0.1575-0.0175-0.21875-0.0462-0.06-0.03-0.12-0.0838-0.1775-0.1625-0.0475-0.08-0.0688-0.16375-0.0675-0.24875 1e-3 -0.0512 0.01-0.0975 0.0238-0.14 0.03-0.13125 0.0912-0.25 0.1875-0.35875 0.1325-0.185 0.30375-0.35375 0.515-0.505 0.1875-0.13625 0.39125-0.2575 0.61375-0.3625l0.14125-0.0488 0.215-0.055 0.0987-0.0113 0.06 1e-3c0.0675 2e-3 0.13875 0.0163 0.21125 0.0425l0.08 0.0512 0.0475 0.03c0.1075-0.3025 0.185-0.54125 0.23-0.715s0.1575-0.35625 0.3375-0.545c0.03-0.0375 0.0675-0.0538 0.1125-0.0538 0.0312 1e-3 0.0638 0.01 0.0975 0.0275 0.0225 0.0213 0.0437 0.0638 0.0662 0.13l2e-3 0.055-1e-3 0.0725z" fill="none" stroke="#f47216" stroke-width=".0025"/>
  <path d="m544.6 659.29-0.1225 0.15125-0.1275 0.1725c-0.065 0.0888-0.1325 0.20125-0.20125 0.33875-0.07 0.13625-0.1275 0.29-0.175 0.45875l-0.06 0.23375-0.06 0.22875c-0.0188 0.0675-0.06 0.11625-0.1225 0.1425-0.035 9e-3 -0.075-1e-3 -0.12-0.0287-0.055-0.0488-0.0825-0.11875-0.08-0.21l0.0138-0.23875c0.0562-0.24375 0.12375-0.47375 0.2-0.69125 0.0775-0.2175 0.1675-0.4175 0.27125-0.6 0.0175-0.0338 0.0412-0.0738 0.0688-0.12 0.0275-0.0462 0.0562-0.0875 0.0863-0.12375 0.0462-0.0625 0.10125-0.0975 0.16375-0.10875 0.085 2e-3 0.15375 0.0337 0.20375 0.095 0.0263 0.0375 0.0525 0.09 0.0762 0.15875l4e-3 0.0688c-1e-3 0.0337-8e-3 0.0587-0.0188 0.0725" fill="#f47216"/>
  <path d="m544.6 659.29-0.1225 0.15125-0.1275 0.1725c-0.065 0.0888-0.1325 0.20125-0.20125 0.33875-0.07 0.13625-0.1275 0.29-0.175 0.45875l-0.06 0.23375-0.06 0.22875c-0.0188 0.0675-0.06 0.11625-0.1225 0.1425-0.035 9e-3 -0.075-1e-3 -0.12-0.0287-0.055-0.0488-0.0825-0.11875-0.08-0.21l0.0138-0.23875c0.0562-0.24375 0.12375-0.47375 0.2-0.69125 0.0775-0.2175 0.1675-0.4175 0.27125-0.6 0.0175-0.0338 0.0412-0.0738 0.0688-0.12 0.0275-0.0462 0.0562-0.0875 0.0863-0.12375 0.0462-0.0625 0.10125-0.0975 0.16375-0.10875 0.085 2e-3 0.15375 0.0337 0.20375 0.095 0.0263 0.0375 0.0525 0.09 0.0762 0.15875l4e-3 0.0688c-1e-3 0.0337-8e-3 0.0587-0.0188 0.0725z" fill="none" stroke="#f47216" stroke-width=".0025"/>
  <path d="m545.2 658.31c-0.0263 0.0425-0.0825 0.07-0.1675 0.0863-0.0688-3e-3 -0.125-0.0275-0.17-0.0775-0.0325-0.0487-0.055-0.11125-0.0675-0.18875l-0.0113-0.10125c1e-3 -0.06 0.0187-0.11125 0.05-0.15375 0.0438-0.0588 0.0987-0.0863 0.165-0.0863 0.0675 3e-3 0.12375 0.0263 0.16875 0.0725 0.035 0.0462 0.0612 0.0987 0.0775 0.16l6e-3 0.0975c-1e-3 0.0738-0.0187 0.1375-0.0512 0.19125" fill="#f47216"/>
  <path d="m545.2 658.31c-0.0263 0.0425-0.0825 0.07-0.1675 0.0863-0.0688-3e-3 -0.125-0.0275-0.17-0.0775-0.0325-0.0487-0.055-0.11125-0.0675-0.18875l-0.0113-0.10125c1e-3 -0.06 0.0187-0.11125 0.05-0.15375 0.0438-0.0588 0.0987-0.0863 0.165-0.0863 0.0675 3e-3 0.12375 0.0263 0.16875 0.0725 0.035 0.0462 0.0612 0.0987 0.0775 0.16l6e-3 0.0975c-1e-3 0.0738-0.0187 0.1375-0.0512 0.19125z" fill="none" stroke="#f47216" stroke-width=".0025"/>
  <path d="m546.7 659.35c0.0675 0.01 0.135 0.0375 0.2025 0.0825 0.0675 0.035 0.1175 0.0862 0.15 0.15625 0.0275 0.08 0.04 0.155 0.0388 0.22375-1e-3 0.0387-6e-3 0.0775-0.015 0.115-0.01 0.0375-0.0263 0.0775-0.05 0.1225-0.08 0.13625-0.1675 0.26125-0.265 0.38-0.15625 0.13875-0.3425 0.26375-0.55875 0.37625-0.18875 0.0937-0.40125 0.15875-0.635 0.19625l-0.0738 0.0113-0.0762-1e-3 -0.0725-1e-3 -0.0762-0.0187c-0.0875-0.0187-0.17875-0.0512-0.27125-0.095-0.16875-0.095-0.25125-0.215-0.24875-0.36 1e-3 -0.0537 0.0175-0.1175 0.0475-0.19125 0.11-0.23625 0.22375-0.42375 0.34125-0.56 0.1325-0.1475 0.31625-0.2875 0.54625-0.42 0.20625-0.10625 0.42375-0.1875 0.64875-0.2425l0.095-0.01c0.04 1e-3 0.075 9e-3 0.10625 0.0237 0.0588 0.0263 0.105 0.075 0.1375 0.14375zm-0.12125 0.87625c0.0813-0.0862 0.1225-0.175 0.125-0.26625 1e-3 -0.0937-0.04-0.18625-0.12625-0.27625-0.0875-0.0325-0.17125-0.05-0.25125-0.0512-0.0688-2e-3 -0.145 9e-3 -0.23125 0.0325-0.1575 0.0475-0.3 0.12-0.43125 0.2175-0.0662 0.05-0.13875 0.11625-0.2175 0.2025-0.0788 0.085-0.14 0.17625-0.185 0.275-0.0275 0.0512-0.04 0.0975-0.0412 0.14 0 0.0225 8e-3 0.0587 0.0237 0.1075 0.0163 0.0488 0.10875 0.075 0.27875 0.0788 0.0937 1e-3 0.18625-0.01 0.2775-0.0325 0.0888-0.0237 0.18375-0.0638 0.28125-0.1175l0.25875-0.1275c0.0888-0.0462 0.16875-0.1075 0.23875-0.1825" fill="#f47216"/>
  <path d="m546.7 659.35c0.0675 0.01 0.135 0.0375 0.2025 0.0825 0.0675 0.035 0.1175 0.0862 0.15 0.15625 0.0275 0.08 0.04 0.155 0.0388 0.22375-1e-3 0.0387-6e-3 0.0775-0.015 0.115-0.01 0.0375-0.0263 0.0775-0.05 0.1225-0.08 0.13625-0.1675 0.26125-0.265 0.38-0.15625 0.13875-0.3425 0.26375-0.55875 0.37625-0.18875 0.0937-0.40125 0.15875-0.635 0.19625l-0.0738 0.0113-0.0762-1e-3 -0.0725-1e-3 -0.0762-0.0187c-0.0875-0.0187-0.17875-0.0512-0.27125-0.095-0.16875-0.095-0.25125-0.215-0.24875-0.36 1e-3 -0.0537 0.0175-0.1175 0.0475-0.19125 0.11-0.23625 0.22375-0.42375 0.34125-0.56 0.1325-0.1475 0.31625-0.2875 0.54625-0.42 0.20625-0.10625 0.42375-0.1875 0.64875-0.2425l0.095-0.01c0.04 1e-3 0.075 9e-3 0.10625 0.0237 0.0588 0.0263 0.105 0.075 0.1375 0.14375z" fill="none" stroke="#f47216" stroke-width=".0025"/>
  <path d="m527.72 657.67c4.6375-7.8888 11.921 0.53125 17.322-4.7375-5.7375 9.4088-11.608 0.785-17.322 4.7375" fill="#f47216" fill-rule="evenodd"/>
  <path d="m527.72 657.67c4.6375-7.8888 11.921 0.53125 17.322-4.7375-5.7375 9.4088-11.608 0.785-17.322 4.7375z" fill="none" stroke="#f47216" stroke-width=".0025"/>
  <path d="m530.87 654.03c3.535-3.2525 7.71 0.15625 11.086-0.96875-3.6588 2.3038-6.4862-1.0588-11.086 0.96875" fill="#f47216" fill-rule="evenodd"/>
  <path d="m530.87 654.03c3.535-3.2525 7.71 0.15625 11.086-0.96875-3.6588 2.3038-6.4862-1.0588-11.086 0.96875z" fill="none" stroke="#f47216" stroke-width=".0025"/>
 </g>
</svg>
