<?xml version="1.0" encoding="UTF-8"?>
<!-- Created with Inkscape (http://www.inkscape.org/) -->
<svg id="svg2" width="202.72" height="250" version="1.1" xmlns="http://www.w3.org/2000/svg" xmlns:cc="http://creativecommons.org/ns#" xmlns:dc="http://purl.org/dc/elements/1.1/" xmlns:rdf="http://www.w3.org/1999/02/22-rdf-syntax-ns#" xmlns:xlink="http://www.w3.org/1999/xlink">
 <metadata id="metadata8">
  <rdf:RDF>
   <cc:Work rdf:about="">
    <dc:format>image/svg+xml</dc:format>
    <dc:type rdf:resource="http://purl.org/dc/dcmitype/StillImage"/>
    <dc:title/>
   </cc:Work>
  </rdf:RDF>
 </metadata>
 <defs id="defs6">
  <radialGradient id="radialGradient3839" cx="108.02" cy="114.32" r="76.516" gradientTransform="matrix(1.3247 .0067743 -.0070706 1.3826 -40.919 -52.087)" gradientUnits="userSpaceOnUse">
   <stop id="stop3835" stop-color="#ffdf00" offset="0"/>
   <stop id="stop3837" stop-color="#f60" offset="1"/>
  </radialGradient>
 </defs>
 <path id="text2987" d="m0 0v202.72h202.72v-202.72zm126.18 215.1c-2.2555 4e-5 -4.5584 0.39628-6.9134 1.1591-2.3218 0.76292-4.2285 2.4798-5.7543 5.1333-1.5258 2.6536-2.2769 6.3596-2.2769 11.136 0 3.3169 0.33016 6.0986 0.99355 8.3209 0.69653 2.2223 1.687 3.9804 2.9806 5.3403 1.2936 1.3599 2.8536 2.3422 4.6779 2.9392 1.8574 0.56387 3.9374 0.86935 6.2924 0.86935 2.3881 0 4.5177-0.30548 6.3752-0.86935 1.8574-0.59704 3.4175-1.5793 4.6779-2.9392 1.2936-1.3599 2.2758-3.118 2.9392-5.3403 0.66335-2.2223 0.99352-5.004 0.99355-8.3209-3e-5 -3.2837-0.4292-6.3212-1.3247-9.1075-0.86242-2.7862-2.4307-4.8497-4.7193-6.2096-2.2887-1.3931-5.2933-2.1112-8.9419-2.1113zm25.584 0v34.898h50.96v-34.898zm-151.76 0.70376v33.491h7.5344v-27.24h4.3467c1.7911 3e-5 3.0292 0.37981 3.7258 1.0763 0.7297 0.66341 1.0763 1.6539 1.0763 2.9806-2e-5 1.6585-0.44564 2.814-1.4075 3.4774-0.92875 0.6634-2.3237 0.99356-4.1812 0.99354l-1.2419 5.2161 8.6935 13.496h8.6935l-9.687-14.324c0.86237-0.199 1.8446-0.59524 2.9392-1.1591 1.1277-0.59703 2.0521-1.5793 2.815-2.9392 0.76286-1.3599 1.1591-3.019 1.1591-5.0091-2.8e-5 -3.0847-0.9162-5.5362-2.7736-7.3274-1.8243-1.8243-4.6968-2.7322-8.6107-2.7322zm40.28 0-12.005 33.491h7.4102l2.815-8.1139h10.474l2.815 8.1139h7.7l-11.964-33.491zm23.348 0v33.491h11.55c2.355 0 4.501-0.25584 6.458-0.78655 1.9569-0.5307 3.6656-1.4304 5.0919-2.6908 1.4262-1.2936 2.5075-3.0187 3.2704-5.1747 0.79603-2.156 1.2005-4.8634 1.2005-8.1139-2.7e-5 -3.2837-0.4045-5.9911-1.2005-8.1139-0.76292-2.156-1.8442-3.8728-3.2704-5.1333-1.4263-1.2936-3.135-2.1933-5.0919-2.6908-1.957-0.53067-4.103-0.78651-6.458-0.78655zm33.739 0v33.491h7.6586v-33.491zm28.813 5.5887c1.2272 3e-5 2.4242 0.24764 3.5188 0.74516 1.1277 0.46439 1.9614 1.4796 2.5252 3.1048 0.59701 1.6253 0.91072 4.0686 0.91074 7.286-2e-5 2.1892-0.1651 4.1701-0.49677 5.9612-0.33171 1.758-1.0417 3.0704-2.0699 3.9328-0.99509 0.8624-2.4644 1.2833-4.3881 1.2833-1.2273 0-2.2507-0.16508-3.1462-0.49677-0.8624-0.36486-1.5888-0.95909-2.1527-1.8215-0.53071-0.86238-0.93519-2.0097-1.2005-3.436-0.26537-1.4262-0.41399-3.2339-0.41398-5.4231-1e-5 -2.1891 0.15685-4.1536 0.45538-5.8785 0.33168-1.7579 0.992-3.0704 1.9871-3.9328 1.0282-0.89554 2.514-1.3247 4.4709-1.3247zm-54.893 0.66236h3.85c1.2272 3e-5 2.4653 0.21474 3.7258 0.57957 1.2604 0.36488 2.2673 1.2893 3.0634 2.815 0.79603 1.4926 1.2005 3.8616 1.2005 7.079-2.2e-5 2.2555-0.24764 4.2365-0.74516 5.9612-0.49756 1.6916-1.323 2.8554-2.4839 3.5188-1.1609 0.66338-2.7374 0.99354-4.7607 0.99354h-3.85zm-27.488 2.1113 3.3532 10.888h-6.7892z" fill="url(#radialGradient3839)"/>
 <path id="path3057" d="m163.24 224.11c-4.241 0-6.2945 1.8464-6.2945 4.7753 0 2.6482 1.4334 4.2214 3.925 4.8626l1.9043 0.487c1.5687 0.40953 2.2387 0.87048 2.2387 1.8462 0 1.4408-0.97884 1.7008-3.3435 1.7008-1.0785 0-2.9558-0.15797-3.5979-0.21079-0.66898-0.0491-0.85023 0.0327-0.95215 0.59602l-0.30529 1.977c-0.0529 0.38731 0.12969 0.53871 0.46519 0.58875 0.74403 0.10187 2.6184 0.23258 4.441 0.23258 4.0881 0 7.0722-1.3361 7.0722-5.1388 0-2.2377-0.98338-3.9088-4.3756-4.7826l-1.897-0.48698c-1.2833-0.33078-1.8752-0.74472-1.8752-1.6935 0-1.338 1.2317-1.5918 2.4131-1.5918 1.5956 0 3.2101 0.13168 3.8522 0.18172 0.66993 0.0501 0.84932-0.0317 0.95218-0.59601l0.31254-1.9261c0.051-0.38453-0.13254-0.53779-0.46518-0.58875-0.74682-0.10373-2.389-0.23258-4.4701-0.23258zm8.4168 0.17444c-0.51519 0-0.6687 0.18258-0.6687 0.69777v15.14c0 0.51147 0.15351 0.6905 0.6687 0.6905h2.3622c0.51426 0 0.66869-0.17903 0.66869-0.6905v-12.778h2.4422c1.5418 0 2.2823 0.56526 2.2823 2.0061 0 1.3102-0.58541 1.7213-1.1775 1.977-0.74404 0.30947-1.0049-0.0236-1.2356 0.95215l-0.2544 1.083c-0.0779 0.30761-0.10903 0.45589-0.10903 0.55966 0 0.25574 0.0809 0.46189 0.26166 0.77045l3.06 5.5022c0.2576 0.43641 0.45956 0.61781 1.0757 0.61781h2.8056c0.35857 0 0.79755-0.23195 0.38521-0.87221l-3.7578-6.2218c1.2602-0.79686 2.6748-1.9258 2.6748-4.4192 0-3.2124-1.7973-5.0152-5.7566-5.0152zm15.583 0c-0.51425 0-0.6687 0.18258-0.6687 0.69777v15.14c0 0.5124 0.15445 0.6905 0.6687 0.6905h2.3695c0.51241 0 0.66144-0.1781 0.66144-0.6905v-5.9674h6.12c0.51332 0 0.6687-0.1781 0.6687-0.6905v-1.8026c0-0.51425-0.15538-0.69049-0.6687-0.69049h-6.12v-3.4961h6.7378c0.51426 0 0.6687-0.18351 0.6687-0.69777v-1.7953c0-0.51519-0.15444-0.69777-0.6687-0.69777z" fill="#fff"/>
 <path id="rect3845" d="m92.979 23.969-37.247 24.263 8.5066 13.02c5.1092 7.8199 14.161 7.3761 21.112 3.5231l4.9788-2.7596v81.468h-17.139c-6.2521 0-11.26 5.0495-11.26 11.302v18.256h72.86c6.252 0 11.301-5.0081 11.302-11.26v-18.298h-23.845v-119.51z" fill="#fff"/>
</svg>
