<svg width="800" height="128.08" version="1.1" viewBox="0 0 800 128.08" xmlns="http://www.w3.org/2000/svg">
 <path class="a" d="m616.71-5.5666e-6v80.481h166.18l17.107-80.481z" fill="#e31818" stroke-width="8.8937"/>
 <path class="a" d="m678.23 17.717v43.684c6.575 0.8093 13.189 1.2654 19.812 1.3652 16.659 0 20.969-3.5957 20.969-3.5957v-2e-3c1.4772-3.7745 2.0171-7.85 1.5723-11.879 0-9.2978-1.625-11.4-1.625-11.4-7.1953-3.23-15.055-4.7008-22.932-4.293-3.7181 0.02738-7.4316 0.30235-11.113 0.82422v-14.703zm49.424 0v43.684c6.5751 0.80943 13.188 1.2656 19.812 1.3652 16.654 0 20.971-3.5957 20.971-3.5957v-2e-3c1.4779-3.7745 2.0172-7.8501 1.5723-11.879 0-9.2978-1.625-11.4-1.625-11.4-7.1957-3.2286-15.057-4.6993-22.934-4.293-3.7175 0.02712-7.4286 0.30209-11.109 0.82422v-14.703zm-61.477 13.832c-10.778-0.07198-21.465 2.171-31.332 6.5957v24.172h6.8203v-19.609c9.4368-2.8774 19.271-4.2414 29.135-4.0449v-6.9395c-1.5413-0.10509-3.0834-0.16355-4.6231-0.17383zm31.008 6.9512a62.935 62.935 0 0 1 16.199 2.4883 58.481 58.481 0 0 1 0.4804 6.6133 61.443 61.443 0 0 1-0.3847 6.5801 57.509 57.509 0 0 1-15.332 1.6445c-3.7015 0.0026-8.0956-0.27971-13.234-0.74219v-15.648a62.935 62.935 0 0 1 12.272-0.93555zm51.478 0.07812a62.928 62.928 0 0 1 14.144 2.4102 59.86 59.86 0 0 1 0.4746 6.6133 63.901 63.901 0 0 1-0.375 6.582 57.601 57.601 0 0 1-15.338 1.6426c-3.7041 0.0026-8.0922-0.27971-13.228-0.74219v-15.648a62.928 62.928 0 0 1 14.322-0.85743z" fill="#fff" stroke-width="8.8937"/>
 <g fill="#ee7203" stroke-width="8.8937">
  <path class="a" d="m576.74 77.827-24.545-4.2916c-5.4975-1.1477-9.5963-2.973-9.5963-6.1513 0-2.9315 1.4749-5.0683 9.5963-5.0683l45.354 8.01e-4v-19.15h-45.354c-16.945 0-28.61 8.2221-28.61 24.944 0 15.494 12.181 21.546 28.61 24.989l24.545 4.1712c5.9312 0.8731 9.5958 3.0671 9.5958 6.2448 0 2.9324-1.6194 4.9816-9.7456 4.9816h-69.069v-36.8a26.468 26.468 0 0 0-28.736-28.531h-47.388v19.149h47.388a8.4757 8.4757 0 0 1 9.5778 9.3816v56.04h88.388c16.945 0.0191 28.605-8.2267 28.605-24.946 3e-4 -15.488-11.732-21.922-28.616-24.965z"/>
  <rect class="a" x="412.03" y="22.129" width="19.372" height="21.037"/>
  <path class="a" d="m412.25 101.11c0 5.1788 0.3129 7.6051-7.4707 7.6051h-68.23a7.641 7.641 0 0 1-8.5236-8.2077v-6.5725h65.132v-24.032a26.525 26.525 0 0 0-27.361-26.528l-28.821 0.0026a26.852 26.852 0 0 0-27.569 27.974v29.156a25.666 25.666 0 0 0 27.142 27.361h68.23a23.712 23.712 0 0 0 26.62-26.759v-38.798h-19.149zm-84.224-29.973a9.2378 9.2378 0 0 1 8.9501-9.3529l28.833-0.0095a8.5202 8.5202 0 0 1 8.7283 7.9134v7.2238h-46.511z"/>
 </g>
 <g fill="#fff" stroke-width="8.8937">
  <path class="a" d="m44.644 43.329h-17.418a24.838 24.838 0 0 0-27.128 26.931v55.984l16.195-0.03629v-56.132a9.7712 9.7712 0 0 1 10.933-10.729h17.418z"/>
  <path class="a" d="m171.28 50.962a25.397 25.397 0 0 0-20.837-9.628c-19.229 0-29.515 12.622-29.515 37.081v12.451c0 24.459 10.286 37.084 29.515 37.084a25.436 25.436 0 0 0 20.837-9.6252v7.8837h16.239v-110.33h-16.239zm0 40.85c0 13.415-6.1675 21.15-17.042 21.15-10.739 0-17.064-5.9896-17.064-22.713v-11.207c0-16.738 6.3244-22.72 17.064-22.72 10.874 0 17.042 7.7158 17.042 21.148z"/>
  <path class="a" d="m266.01 41.336h-7.6575c-19.246 0-29.52 12.62-29.52 37.079v12.451c0 24.459 10.274 37.084 29.52 37.084h7.6575c19.231 0 29.512-12.625 29.512-37.084v-12.451c0-24.459-10.282-37.079-29.512-37.079zm13.258 48.913c0 16.723-6.3194 22.713-17.054 22.713h-0.067c-10.737 0-17.066-5.9896-17.066-22.713v-11.207c0-16.738 6.3295-22.72 17.066-22.72h0.067c10.735 0 17.054 5.9819 17.054 22.72z"/>
  <rect class="a" x="201.1" y="43.381" width="16.258" height="82.827"/>
  <rect class="a" x="201.1" y="15.879" width="16.258" height="14.769"/>
  <path class="a" d="m79.452 43.349h-24.408v15.998h23.943c10.086 0 15.602 5.0463 15.602 14.031v2.9825a45.719 45.719 0 0 0-18.448-3.1466c-18.776 0-32.968 8.3445-32.968 26.814a26.715 26.715 0 0 0 28.717 27.911 32.544 32.544 0 0 0 22.699-9.929v8.1976l15.938-1e-3v-55.096c-2.6e-4 -18.783-12.61-27.762-31.075-27.762zm15.137 59.355a26.018 26.018 0 0 1-20.025 10.575c-10.725 0-15.935-5.5309-15.935-13.728 0-7.5667 6.6283-12.307 17.037-12.307a41.113 41.113 0 0 1 18.923 3.6214z"/>
 </g>
</svg>
