<svg id="a" version="1.1" viewBox="0 0 20.418 20.416" xmlns="http://www.w3.org/2000/svg">
 <g id="b" transform="translate(-406.93 -539.95)">
  <g id="c" transform="matrix(1.25 0 0 -1.25 412.61 553.44)">
   <path id="d" d="m0 0h0.246v-0.133h5e-3c0.042 0.1 0.133 0.166 0.238 0.166 0.058 0 0.108-0.015 0.143-0.038l-0.093-0.258c-0.025 0.02-0.073 0.035-0.098 0.035-0.095 0-0.18-0.073-0.18-0.183v-0.803h-0.261v1.214" fill="#3155ad"/>
  </g>
  <g id="e" transform="matrix(1.25 0 0 -1.25 412.61 553.44)">
   <path id="f" d="m0 0h0.246v-0.133h5e-3c0.042 0.1 0.133 0.166 0.238 0.166 0.058 0 0.108-0.015 0.143-0.038l-0.093-0.258c-0.025 0.02-0.073 0.035-0.098 0.035-0.095 0-0.18-0.073-0.18-0.183v-0.803h-0.261z" fill="none" stroke="#3155ad" stroke-width=".003"/>
  </g>
  <g id="g" transform="matrix(1.25 0 0 -1.25 414.32 554.69)">
   <path id="h" d="m0 0c0.206 0 0.381 0.176 0.381 0.394s-0.175 0.393-0.381 0.393c-0.211 0-0.386-0.175-0.386-0.393s0.175-0.394 0.386-0.394zm0.371-0.065h-5e-3c-0.083-0.111-0.233-0.181-0.399-0.181-0.398 0-0.629 0.326-0.629 0.64 0 0.298 0.248 0.639 0.642 0.639 0.181 0 0.318-0.078 0.386-0.18h5e-3v0.148h0.261v-1.214h-0.261v0.148" fill="#3155ad"/>
  </g>
  <g id="i" transform="matrix(1.25 0 0 -1.25 414.32 554.69)">
   <path id="j" d="m0 0c0.206 0 0.381 0.176 0.381 0.394s-0.175 0.393-0.381 0.393c-0.211 0-0.386-0.175-0.386-0.393s0.175-0.394 0.386-0.394z" fill="none" stroke="#3155ad" stroke-width=".003"/>
   <g id="k" transform="translate(.371 -.065)">
    <path id="l" d="m0 0h-5e-3c-0.083-0.11-0.233-0.181-0.399-0.181-0.399 0-0.629 0.327-0.629 0.64 0 0.298 0.248 0.639 0.642 0.639 0.18 0 0.318-0.077 0.386-0.18h5e-3v0.148h0.261v-1.214h-0.261z" fill="none" stroke="#3155ad" stroke-width=".003"/>
   </g>
  </g>
  <g id="m" transform="matrix(1.25 0 0 -1.25 416.23 554.69)">
   <path id="n" d="m0 0c0.206 0 0.381 0.176 0.381 0.394s-0.175 0.393-0.381 0.393c-0.211 0-0.386-0.175-0.386-0.393s0.175-0.394 0.386-0.394zm0.371-0.065h-5e-3c-0.083-0.111-0.233-0.181-0.399-0.181-0.398 0-0.629 0.326-0.629 0.64 0 0.298 0.248 0.639 0.642 0.639 0.181 0 0.318-0.078 0.386-0.18h5e-3v0.509h0.261v-1.575h-0.261v0.148" fill="#3155ad"/>
  </g>
  <g id="o" transform="matrix(1.25 0 0 -1.25 416.23 554.69)">
   <path id="p" d="m0 0c0.206 0 0.381 0.176 0.381 0.394s-0.175 0.393-0.381 0.393c-0.211 0-0.386-0.175-0.386-0.393s0.175-0.394 0.386-0.394z" fill="none" stroke="#3155ad" stroke-width=".003"/>
   <g id="q" transform="translate(.371 -.065)">
    <path id="r" d="m0 0h-5e-3c-0.083-0.11-0.233-0.181-0.399-0.181-0.399 0-0.629 0.327-0.629 0.64 0 0.298 0.248 0.639 0.642 0.639 0.18 0 0.318-0.077 0.386-0.18h5e-3v0.509h0.261v-1.575h-0.261z" fill="none" stroke="#3155ad" stroke-width=".003"/>
   </g>
  </g>
  <g id="s" transform="matrix(1.25 0 0 -1.25 417.44 553.44)">
   <path id="t" d="m0 0h0.26083v-1.2139h-0.26083zm0.13 0.394c0.081 0 0.146-0.065 0.146-0.146 0-0.08-0.065-0.145-0.146-0.145-0.08 0-0.145 0.065-0.145 0.145 0 0.081 0.065 0.146 0.145 0.146" fill="#3155ad"/>
  </g>
  <g id="u" transform="matrix(1.25 0 0 -1.25 417.44 553.44)">
   <path id="v" d="m0 0h0.26083v-1.2139h-0.26083z" fill="none" stroke="#3155ad" stroke-width=".003"/>
   <g id="w" transform="translate(.13 .394)">
    <path id="x" d="m0 0c0.08 0 0.145-0.065 0.145-0.145 0-0.081-0.065-0.146-0.145-0.146s-0.146 0.065-0.146 0.146c0 0.08 0.066 0.145 0.146 0.145z" fill="none" stroke="#3155ad" stroke-width=".003"/>
   </g>
  </g>
  <g id="y" transform="matrix(1.25 0 0 -1.25 418.92 554.69)">
   <path id="z" d="m0 0c0.228 0 0.394 0.176 0.394 0.394s-0.166 0.393-0.394 0.393-0.394-0.175-0.394-0.393 0.166-0.394 0.394-0.394zm0 1.033c0.424 0 0.67-0.318 0.67-0.639s-0.246-0.64-0.67-0.64-0.67 0.319-0.67 0.64 0.246 0.639 0.67 0.639" fill="#3155ad"/>
  </g>
  <g id="aa" transform="matrix(1.25 0 0 -1.25 418.92 554.69)">
   <path id="ab" d="m0 0c0.228 0 0.394 0.176 0.394 0.394s-0.166 0.393-0.394 0.393-0.394-0.175-0.394-0.393 0.166-0.394 0.394-0.394z" fill="none" stroke="#3155ad" stroke-width=".003"/>
   <g id="ac" transform="translate(0,1.033)">
    <path id="ad" d="m0 0c0.424 0 0.67-0.318 0.67-0.64 0-0.321-0.246-0.639-0.67-0.639s-0.67 0.318-0.67 0.639c0 0.322 0.246 0.64 0.67 0.64z" fill="none" stroke="#3155ad" stroke-width=".003"/>
   </g>
  </g>
  <g id="ae" transform="matrix(1.25 0 0 -1.25 412.6 555.42)">
   <path id="af" d="m0 0h0.311v-0.613h6e-3c0.087 0.134 0.246 0.221 0.443 0.221 0.305 0 0.563-0.254 0.563-0.613v-0.874h-0.312v0.805c0 0.263-0.137 0.371-0.344 0.371-0.2 0-0.356-0.129-0.356-0.365v-0.811h-0.311v1.879" fill="#3155ad"/>
  </g>
  <g id="ag" transform="matrix(1.25 0 0 -1.25 412.6 555.42)">
   <path id="ah" d="m0 0h0.311v-0.613h6e-3c0.087 0.134 0.246 0.221 0.443 0.221 0.305 0 0.563-0.254 0.563-0.613v-0.874h-0.312v0.805c0 0.263-0.137 0.371-0.344 0.371-0.2 0-0.356-0.129-0.356-0.365v-0.811h-0.311z" fill="none" stroke="#3155ad" stroke-width=".003"/>
  </g>
  <g id="ai" transform="matrix(1.25 0 0 -1.25 415.61 557.45)">
   <path id="aj" d="m0 0c0.272 0 0.47 0.209 0.47 0.47 0 0.26-0.198 0.47-0.47 0.47s-0.47-0.21-0.47-0.47c0-0.261 0.198-0.47 0.47-0.47zm0 1.233c0.506 0 0.799-0.38 0.799-0.763s-0.293-0.763-0.799-0.763-0.799 0.38-0.799 0.763 0.293 0.763 0.799 0.763" fill="#3155ad"/>
  </g>
  <g id="ak" transform="matrix(1.25 0 0 -1.25 415.61 557.45)">
   <path id="al" d="m0 0c0.272 0 0.47 0.209 0.47 0.47 0 0.26-0.198 0.47-0.47 0.47s-0.47-0.21-0.47-0.47c0-0.261 0.198-0.47 0.47-0.47z" fill="none" stroke="#3155ad" stroke-width=".003"/>
   <g id="am" transform="translate(0,1.233)">
    <path id="an" d="m0 0c0.506 0 0.799-0.38 0.799-0.763s-0.293-0.763-0.799-0.763-0.799 0.38-0.799 0.763 0.293 0.763 0.799 0.763z" fill="none" stroke="#3155ad" stroke-width=".003"/>
   </g>
  </g>
  <g id="ao" transform="matrix(1.25 0 0 -1.25 416.97 555.96)">
   <path id="ap" d="m0 0h0.293v-0.159h6e-3c0.051 0.12 0.159 0.198 0.285 0.198 0.068 0 0.128-0.018 0.17-0.045l-0.111-0.308c-0.03 0.024-0.086 0.042-0.116 0.042-0.114 0-0.216-0.087-0.216-0.219v-0.957h-0.311v1.448" fill="#3155ad"/>
  </g>
  <g id="aq" transform="matrix(1.25 0 0 -1.25 416.97 555.96)">
   <path id="ar" d="m0 0h0.293v-0.159h6e-3c0.051 0.12 0.159 0.198 0.285 0.198 0.068 0 0.128-0.018 0.17-0.045l-0.111-0.308c-0.03 0.024-0.086 0.042-0.116 0.042-0.114 0-0.216-0.087-0.216-0.219v-0.957h-0.311z" fill="none" stroke="#3155ad" stroke-width=".003"/>
  </g>
  <g id="as" transform="matrix(1.25 0 0 -1.25 419.45 556.68)">
   <path id="at" d="m0 0c-0.066 0.221-0.23 0.338-0.428 0.338-0.197 0-0.359-0.123-0.41-0.338zm0.287-0.56c-0.173-0.218-0.413-0.35-0.673-0.353-0.506 0-0.799 0.38-0.799 0.763s0.293 0.763 0.799 0.763c0.302 0 0.751-0.248 0.751-0.814v-0.056h-1.203c0.018-0.222 0.225-0.38 0.443-0.38 0.168 0 0.311 0.08 0.419 0.224l0.263-0.147" fill="#3155ad"/>
  </g>
  <g id="au" transform="matrix(1.25 0 0 -1.25 419.45 556.68)">
   <path id="av" d="m0 0c-0.066 0.221-0.23 0.338-0.428 0.338-0.197 0-0.359-0.123-0.41-0.338z" fill="none" stroke="#3155ad" stroke-width=".003"/>
   <g id="aw" transform="translate(.287 -.56)">
    <path id="ax" d="m0 0c-0.174-0.218-0.413-0.35-0.673-0.353-0.506 0-0.799 0.38-0.799 0.763s0.293 0.763 0.799 0.763c0.302 0 0.751-0.248 0.751-0.814v-0.057h-1.203c0.018-0.221 0.224-0.38 0.443-0.38 0.167 0 0.311 0.081 0.419 0.225z" fill="none" stroke="#3155ad" stroke-width=".003"/>
   </g>
  </g>
  <g id="ay" transform="matrix(1.25 0 0 -1.25 421.25 556.28)">
   <path id="az" d="m0 0c-0.26 0-0.452-0.2-0.452-0.47 0-0.269 0.192-0.47 0.452-0.47s0.452 0.201 0.452 0.47c0 0.27-0.192 0.47-0.452 0.47zm-0.763 0.685h0.311v-0.607h6e-3c0.075 0.12 0.269 0.215 0.473 0.215 0.377 0 0.754-0.278 0.754-0.763s-0.377-0.763-0.754-0.763c-0.204 0-0.398 0.096-0.473 0.216h-6e-3v-0.177h-0.311v1.879" fill="#3155ad"/>
  </g>
  <g id="ba" transform="matrix(1.25 0 0 -1.25 421.25 556.28)">
   <path id="bb" d="m0 0c-0.26 0-0.452-0.2-0.452-0.47 0-0.269 0.192-0.47 0.452-0.47s0.452 0.201 0.452 0.47c0 0.27-0.192 0.47-0.452 0.47z" fill="none" stroke="#3155ad" stroke-width=".003"/>
   <g id="bc" transform="translate(-.763 .685)">
    <path id="bd" d="m0 0h0.311v-0.607h6e-3c0.075 0.119 0.27 0.215 0.473 0.215 0.377 0 0.754-0.278 0.754-0.763s-0.377-0.763-0.754-0.763c-0.203 0-0.398 0.096-0.473 0.215h-6e-3v-0.176h-0.311z" fill="none" stroke="#3155ad" stroke-width=".003"/>
   </g>
  </g>
  <g id="be" transform="matrix(1.25 0 0 -1.25 408.52 555.33)">
   <path id="bf" d="m0 0h2.424s-0.224 3.502 3.353 4.699l2.948-2.858 2.125 1.781s1.436-1.093 1.571-3.637h1.392s0.18 3.831-3.457 5.941l-1.287-1.137-2.559 2.514s-6.286-0.464-6.51-7.303" fill="#3155ad"/>
  </g>
  <g id="bg" transform="matrix(1.25 0 0 -1.25 408.52 555.33)">
   <path id="bh" d="m0 0h2.424s-0.224 3.502 3.353 4.699l2.948-2.858 2.125 1.781s1.436-1.093 1.571-3.637h1.392s0.18 3.831-3.457 5.941l-1.287-1.137-2.559 2.514s-6.286-0.464-6.51-7.303z" fill="none" stroke="#3155ad" stroke-width=".003"/>
  </g>
  <g id="bi" transform="matrix(1.25 0 0 -1.25 424.26 556.3)">
   <path id="bj" d="m0 0-0.017-0.019c-1.43-1.636-3.496-2.574-5.666-2.574-2.171 0-4.236 0.938-5.666 2.574l-0.017 0.019h-0.852l0.072-0.092c1.56-2.006 3.911-3.157 6.449-3.157s4.888 1.151 6.449 3.157l0.071 0.092h-0.823" fill="#3155ad"/>
  </g>
  <g id="bk" transform="matrix(1.25 0 0 -1.25 424.26 556.3)">
   <path id="bl" d="m0 0-0.017-0.019c-1.43-1.636-3.496-2.574-5.666-2.574-2.171 0-4.236 0.938-5.666 2.574l-0.017 0.019h-0.852l0.072-0.092c1.56-2.006 3.911-3.157 6.449-3.157s4.888 1.151 6.449 3.157l0.071 0.092z" fill="none" stroke="#3155ad" stroke-width=".003"/>
  </g>
  <g id="bm" transform="matrix(1.25 0 0 -1.25 406.94 550.15)">
   <path id="bn" d="m0 0c0-1.08 0.208-2.13 0.618-3.121l0.085-0.206 0.025 0.221c0.031 0.288 0.1 0.647 0.204 1.068l3e-3 0.015-4e-3 0.014c-0.183 0.656-0.275 1.337-0.275 2.023 0 0.627 0.077 1.25 0.23 1.853 0.804 2.334 3.009 3.905 5.484 3.905 2.22 0 4.275-1.295 5.235-3.299l8e-3 -0.017 0.829-0.484-0.073 0.201c-0.839 2.527-3.192 4.225-5.857 4.225-0.984 0-1.933-0.208-2.794-0.605 1.038 0.632 2.236 0.977 3.464 0.977 1.697 0 3.314-0.638 4.553-1.796 1.233-1.152 1.978-2.71 2.099-4.387l2e-3 -0.025 0.581-0.706 4e-3 0.472c0 3.866-3.145 7.011-7.011 7.011-0.549 0-1.087-0.065-1.611-0.188 0.764 0.254 1.569 0.387 2.381 0.387 4.148 0 7.523-3.375 7.523-7.524 0-0.705-0.097-1.403-0.29-2.075l-4e-3 -0.017 5e-3 -0.017c0.098-0.301 0.291-1.049 0.291-1.049l0.065 0.166c0.372 0.949 0.561 1.951 0.561 2.978 0 4.502-3.663 8.165-8.166 8.165-4.502 0-8.165-3.663-8.165-8.165" fill="#3155ad"/>
  </g>
  <g id="bo" transform="matrix(1.25 0 0 -1.25 406.94 550.15)">
   <path id="bp" d="m0 0c0-1.08 0.208-2.13 0.618-3.121l0.085-0.206 0.025 0.221c0.031 0.288 0.1 0.647 0.204 1.068l3e-3 0.015-4e-3 0.014c-0.183 0.656-0.275 1.337-0.275 2.023 0 0.627 0.077 1.25 0.23 1.853 0.804 2.334 3.009 3.905 5.484 3.905 2.22 0 4.275-1.295 5.235-3.299l8e-3 -0.017 0.829-0.484-0.073 0.201c-0.839 2.527-3.192 4.225-5.857 4.225-0.984 0-1.933-0.208-2.794-0.605 1.038 0.632 2.236 0.977 3.464 0.977 1.697 0 3.314-0.638 4.553-1.796 1.233-1.152 1.978-2.71 2.099-4.387l2e-3 -0.025 0.581-0.706 4e-3 0.472c0 3.866-3.145 7.011-7.011 7.011-0.549 0-1.087-0.065-1.611-0.188 0.764 0.254 1.569 0.387 2.381 0.387 4.148 0 7.523-3.375 7.523-7.524 0-0.705-0.097-1.403-0.29-2.075l-4e-3 -0.017 5e-3 -0.017c0.098-0.301 0.291-1.049 0.291-1.049l0.065 0.166c0.372 0.949 0.561 1.951 0.561 2.978 0 4.502-3.663 8.165-8.166 8.165-4.502 0-8.165-3.663-8.165-8.165z" fill="none" stroke="#3155ad" stroke-width=".003"/>
  </g>
 </g>
</svg>
