<svg width="800" height="525.14" style="isolation:isolate" version="1.1" viewBox="0 0 600 393.86" xmlns="http://www.w3.org/2000/svg">
 <path d="m553.88 241.11h-154.81c-25.596-0.64165-45.732-24.623-45.732-24.623v24.623h-128.43c-25.484 0-46.136 20.716-46.136 46.272v60.211c0 25.557 20.653 46.272 46.136 46.272h328.97c25.478 0 46.136-20.716 46.136-46.272v-60.211c0-25.557-20.658-46.272-46.136-46.272z" fill="#ea088a" stroke-width="2.6084"/>
 <g transform="matrix(.99987 0 0 .99987 .045059 -1.5257e-5)" fill="#fff">
  <path transform="matrix(2.6087,0,0,2.6087,0,1.5259e-5)" d="m14.576 63.378c2.139-7.587 4.432-15.096 6.571-21.687h0.306c2.139 6.591 4.431 14.1 6.495 21.687zm13.143-30.501h-12.684c-5.349 14.714-10.774 32.801-15.053 49.354h9.704l2.674-10.576h17.879l2.676 10.576h9.857c-4.279-16.553-9.706-34.64-15.053-49.354"/>
  <path transform="matrix(2.6087,0,0,2.6087,0,1.5259e-5)" d="m88.741 73.649c-1.374 0.995-3.743 2.068-6.188 2.068-2.904 0-4.814-1.532-4.814-4.291 0-2.988 2.217-4.446 6.035-4.446 1.224 0 3.362 0.155 4.967 0.307zm-5.577-27.59c-4.354 0-8.634 0.844-11.921 1.532l1.447 7.709c2.75-0.613 6.883-1.27 9.709-1.27 4.737 0 6.342 1.687 6.342 5.671v1.225c-1.832-0.23-3.361-0.382-5.271-0.382-9.628 0-14.9 4.061-14.9 11.263 0 7.283 5.501 11.189 12.073 11.189 4.432 0 7.794-1.838 9.78-3.447l0.917 2.682h6.418v-23.603c0-8.507-5.196-12.569-14.594-12.569"/>
  <path transform="matrix(2.6087,0,0,2.6087,0,1.5259e-5)" d="m53.959 51.396-0.994-4.419h-6.417v35.254h9.015v-24.321c1.987-1.916 4.356-2.914 8.178-2.914 1.069 0 2.291 0.077 3.819 0.306l0.611-8.276c-1.222-0.229-2.903-0.382-4.126-0.382-3.897 0-7.182 1.531-10.086 4.752"/>
  <path transform="matrix(2.6087,0,0,2.6087,0,1.5259e-5)" d="m171.58 82.231h9.016v-49.354h-9.016v49.354"/>
  <path transform="matrix(2.6087,0,0,2.6087,0,1.5259e-5)" d="m220.64 73.649c-1.374 0.995-3.744 2.068-6.189 2.068-2.904 0-4.816-1.532-4.816-4.291 0-2.988 2.219-4.446 6.039-4.446 1.222 0 3.361 0.155 4.966 0.307zm-5.577-27.59c-4.356 0-8.636 0.844-11.921 1.532l1.452 7.664c2.75-0.614 6.876-1.225 9.705-1.225 4.736 0 6.341 1.687 6.341 5.671v1.225c-1.834-0.23-3.362-0.382-5.273-0.382-9.627 0-14.9 4.061-14.9 11.263 0 7.283 5.503 11.189 12.073 11.189 4.431 0 7.795-1.838 9.78-3.447l0.918 2.682h6.418v-23.603c0-8.507-5.196-12.569-14.593-12.569z"/>
  <path transform="matrix(2.6087,0,0,2.6087,0,1.5259e-5)" d="m187.02 82.231h9.016v-49.354h-9.016z"/>
  <path transform="matrix(2.6087,0,0,2.6087,0,1.5259e-5)" d="m118.19 75.258c-1.756 0-3.744-0.307-5.272-0.614v-19.618c1.68-0.614 3.516-0.996 5.427-0.996 5.119 0 6.723 2.912 6.723 10.497 0 7.972-1.758 10.731-6.878 10.731zm1.936-29.199c-2.905 0-5.578 0.614-7.717 1.609v-11.404c-1.252 0.368-2.576 0.559-4.012 0.559-1.841 0-3.508-0.314-5.005-0.888v44.457c3.82 1.303 8.786 2.604 14.134 2.604 11.004 0 16.202-5.286 16.202-18.314 0-11.954-4.434-18.623-13.602-18.623z"/>
  <path transform="matrix(2.6087,0,0,2.6087,0,1.5259e-5)" d="m152.29 54.03c3.667 0 5.348 2.298 5.502 6.744h-11.386c0.383-4.139 1.987-6.744 5.884-6.744zm1.756 20.999c-4.66 0-7.105-2.223-7.64-7.205h19.79c0.382-1.762 0.536-4.292 0.536-6.055 0-10.116-5.12-15.71-14.212-15.71-9.935 0-15.359 6.669-15.359 18.623 0 12.337 5.807 18.314 16.58 18.314 4.585 0 8.863-1.072 12.532-2.604l-2.523-7.357c-2.674 0.921-6.418 1.994-9.704 1.994"/>
  <path transform="matrix(2.6087,0,0,2.6087,0,1.5259e-5)" d="m61.982 15.286c3.958 0 6.186-1.04 6.186-4.962 0-3.872-2.228-4.913-6.087-4.913-1.188 0-2.723 0.099-3.812 0.197v9.482c1.188 0.147 2.872 0.196 3.713 0.196zm-9.948-14.393c2.475-0.397 6.88-0.893 10.146-0.893 7.126 0 12.322 2.382 12.322 9.927 0 5.163-2.424 7.942-5.889 9.233 1.88 3.92 4.652 8.785 7.225 13.152l-0.049 0.101h-7.325c-2.227-4.023-4.503-8.489-6.284-12.262-1.485 0-2.822-0.099-3.911-0.247v12.509h-6.235v-31.52"/>
  <path transform="matrix(2.6087,0,0,2.6087,0,1.5259e-5)" d="m85.931 28.192c1.583 0 3.117-0.694 4.007-1.34v-4.12c-1.039-0.099-2.424-0.198-3.217-0.198-2.474 0-3.909 0.943-3.909 2.879 0 1.787 1.238 2.779 3.119 2.779zm0.592-9.827c1.238 0 2.228 0.099 3.415 0.248v-0.794c0-2.582-1.039-3.672-4.106-3.672-1.832 0-4.504 0.397-6.285 0.793l-0.942-4.964c2.128-0.445 4.9-0.992 7.721-0.992 6.087 0 9.452 2.63 9.452 8.14v15.289h-4.157l-0.595-1.739c-1.285 1.043-3.463 2.233-6.333 2.233-4.257 0-7.82-2.53-7.82-7.245 0-4.666 3.414-7.297 9.65-7.297"/>
  <path transform="matrix(2.6087,0,0,2.6087,0,1.5259e-5)" d="m112.62 26.803v-12.458c-0.991-0.198-2.179-0.348-3.168-0.348-3.514 0-4.652 1.986-4.652 7.049 0 4.913 1.038 6.8 4.008 6.8 1.436 0 2.821-0.447 3.812-1.043zm-13.76-5.658c0-8.091 3.514-12.161 9.849-12.161 1.385 0 2.771 0.199 3.911 0.397v-8.934h5.838v31.966h-4.206l-0.595-1.54c-1.484 1.192-3.216 2.034-5.839 2.034-5.542 0-8.958-3.771-8.958-11.762"/>
  <path transform="matrix(2.6087,0,0,2.6087,0,1.5259e-5)" d="m122.83 9.481h5.841v22.932h-5.841zm0-9.034h5.841v5.56h-5.841z"/>
  <path transform="matrix(2.6087,0,0,2.6087,0,1.5259e-5)" d="m142.32 27.747c4.008 0 4.503-3.028 4.503-6.801s-0.495-6.799-4.503-6.799c-4.009 0-4.504 3.026-4.504 6.799s0.495 6.801 4.504 6.801zm0-18.763c7.671 0 10.441 4.616 10.441 11.962 0 7.345-2.77 11.961-10.441 11.961s-10.443-4.616-10.443-11.961c0-7.346 2.772-11.962 10.443-11.962z"/>
  <path transform="matrix(2.6087,0,0,2.6087,0,1.5259e-5)" d="m94.585 130.73c3.828 0 6.252-0.681 6.252-4.373 0-3.208-1.843-4.374-5.184-4.374h-4.895v8.552c1.502 0.147 2.811 0.195 3.827 0.195zm0.825-13.607c3.052 0 4.699-1.02 4.699-3.983 0-3.402-2.228-4.034-5.716-4.034-0.971 0-2.229 0.049-3.635 0.194v7.823zm-10.757-12.535c2.956-0.439 6.977-0.826 9.788-0.826 7.073 0 11.868 2.429 11.868 8.503 0 3.692-1.791 5.734-4.407 6.705v0.195c3.536 1.117 5.135 3.449 5.135 7.482 0 6.853-4.699 9.38-12.547 9.38-2.713 0-6.831-0.293-9.837-0.729v-30.71"/>
  <path transform="matrix(2.6087,0,0,2.6087,0,1.5259e-5)" d="m119.4 131.41c1.551 0 3.053-0.681 3.924-1.312v-4.035c-1.017-0.096-2.373-0.194-3.148-0.194-2.423 0-3.828 0.923-3.828 2.819 0 1.75 1.212 2.722 3.052 2.722zm0.581-9.622c1.212 0 2.18 0.098 3.343 0.242v-0.777c0-2.526-1.017-3.596-4.02-3.596-1.793 0-4.411 0.389-6.153 0.777l-0.922-4.858c2.084-0.437 4.798-0.972 7.559-0.972 5.959 0 9.255 2.575 9.255 7.97v14.965h-4.072l-0.579-1.701c-1.26 1.022-3.393 2.188-6.201 2.188-4.168 0-7.658-2.478-7.658-7.094 0-4.57 3.344-7.144 9.448-7.144"/>
  <path transform="matrix(2.6087,0,0,2.6087,0,1.5259e-5)" d="m140.68 135.53s-0.044 4e-3 -0.086-2e-3m-8.575-22.438h5.719c1.209 5.638 2.864 12.172 4.462 17.177h0.195c1.793-5.54 3.528-11.443 5.079-17.177h5.621c-2.908 10.885-6.588 22.548-10.029 31.295h-5.62c1.066-2.721 2.134-5.7 3.25-8.857l-0.016 2e-3s-0.032 9e-3 -0.086-2e-3c-2.34-0.17-2.967-1.542-3.392-2.799-1.812-5.373-3.798-13.287-5.183-19.639"/>
  <path transform="matrix(2.6087,0,0,2.6087,0,1.5259e-5)" d="m168.2 121.94c-0.098-2.819-1.163-4.277-3.488-4.277-2.472 0-3.488 1.653-3.732 4.277zm-3.344-9.33c5.766 0 9.01 3.546 9.01 9.961 0 1.118-0.096 2.721-0.338 3.839h-12.548c0.338 3.158 1.889 4.567 4.845 4.567 2.083 0 4.457-0.679 6.152-1.262l1.6 4.664c-2.325 0.972-5.039 1.653-7.947 1.653-6.83 0-10.512-3.791-10.512-11.614 0-7.58 3.44-11.808 9.738-11.808"/>
  <path transform="matrix(2.6087,0,0,2.6087,0,1.5259e-5)" d="m178.47 113.09h4.068l0.631 2.527c1.841-2.04 3.924-3.012 6.396-3.012 0.775 0 1.841 0.098 2.616 0.243l-0.387 5.247c-0.969-0.145-1.745-0.195-2.424-0.195-2.421 0-3.922 0.633-5.182 1.848v15.792h-5.718v-22.45"/>
  <path transform="matrix(2.6087,0,0,2.6087,0,1.5259e-5)" d="m195.47 113.09h4.069l0.484 1.653c1.94-1.36 4.313-2.138 6.784-2.138 5.281 0 7.46 3.4 7.46 7.775v15.16h-5.716v-14.432c0-2.186-0.872-3.45-3.247-3.45-1.502 0-3.053 0.535-4.117 1.07v16.812h-5.717v-22.45"/>
 </g>
</svg>
