<svg version="1.1" viewBox="0 0 523.57 226.67" xmlns="http://www.w3.org/2000/svg">
 <path d="m364.67 14.7-1.2 4.7c-1.3-0.7-3.2-1.1-4.8-1.1-4.2 0-7.2 3.2-7.2 8.4v15.5h-4.8v-27.9h4.7v3.7c1.9-2.7 4.8-4.2 8.1-4.2 2.1-0.1 3.7 0.2 5.2 0.9zm31.8 27.4h-4.8v-3.7c-2.2 2.6-5.4 4.3-9.8 4.3-7.8 0-13.9-6.1-13.9-14.5s6.1-14.5 13.9-14.5c4.4 0 7.6 1.7 9.8 4.3v-3.7h4.8zm-23.6-13.9c0 5.5 3.9 10 9.6 10 5.6 0 9.5-4.3 9.5-10s-3.9-10-9.5-10c-5.8 0.1-9.6 4.5-9.6 10zm54.2-10.1v-18.1h4.8v42.1h-4.8v-3.7c-2.2 2.6-5.4 4.3-9.8 4.3-7.8 0-13.9-6.1-13.9-14.5s6.1-14.5 13.9-14.5c4.4 0 7.6 1.7 9.8 4.4zm-18.8 10.1c0 5.5 3.9 10 9.6 10 5.6 0 9.5-4.3 9.5-10s-3.9-10-9.5-10c-5.8 0.1-9.6 4.5-9.6 10zm39.5-23.6c0 1.9-1.5 3.3-3.4 3.3s-3.4-1.4-3.4-3.3 1.5-3.4 3.4-3.4c1.9-0.1 3.4 1.4 3.4 3.4zm-1 37.5h-4.8v-27.8h4.8zm37.4-13.9c0 8.3-6.3 14.5-14.7 14.5s-14.7-6.2-14.7-14.5 6.3-14.5 14.7-14.5 14.7 6.3 14.7 14.5zm-24.5 0c0 5.8 4.2 10 9.8 10s9.8-4.2 9.8-10-4.2-10-9.8-10c-5.6 0.1-9.8 4.2-9.8 10zm58.8 23c-76.2 14.2-193 37.3-312.3 71.8 7.9-10.1 49.1-38.5 104.8-52.9 4.4-1.1 6.2-6.7 9.1-15.3 1.7-5.2 3.4-11.1 5.4-18.1 1.5-5.3-2.4-6-4.6-5.7-22.9 3.8-130.8 29-160.2 105.8-18.2 5.7-36.6 11.8-55 18.1 23.2-23.9 46.8-58.3 49.6-65.1 1.8-4.4 2.1-7.1 1.7-9.7-1-5.5-6-14.7-10.2-19.1-4.2-4.5-7.1-5.3-12.1-5.6-24.1-1.4-88.3 23.6-95.9 27.4-3.9 1.9-1.8 5.6-1.1 7.8 0.7 2 4.2 8.7 10.2 15.7 5.8 6.8 8.2 5.8 22.4-0.2 21.1-8.9 37.7-14 43.5-14.9-35.1 49.1-87.3 89.8-109.4 107.2-4.3 3.4-5.1 6.4-3.8 10.3 1.1 3.2 7.8 13.5 11.1 16.2s7.6 2.1 14.2-0.4c9-3.4 54-25.5 133.7-51.3 29.3 61.7 106.6 41.2 128 25.8 6.3-4.5 8.1-11.8 9.5-16.1 1.5-4.4 4.7-15 6.7-21.3 1.8-5.9-0.5-8.1-4.4-5.6-41.9 27.3-87.9 27.5-102.1 5.5 51.6-15.2 103.5-27.8 155.1-38.8-13.7 30.9-17.2 61.8-17.3 76-0.1 14.6 12 10.5 19.5 7.7 7.6-2.9 10.9-8.2 11.3-10.6 13.2-64.8 26.2-81.4 26.2-81.4 36.3-7.4 101.3-19.7 116.2-22.4 1.9-0.4 2.9-0.5 5.2-4.9 2.6-5 8.9-22.5 9.9-30.5 0.8-5.6-0.7-6.2-4.9-5.4zm-412.8 103.7h0.1-0.1s-0.1 0 0 0z" fill="#d50032"/>
</svg>
