<svg id="b" version="1.1" viewBox="0 0 391.96 159.38" xml:space="preserve" xmlns="http://www.w3.org/2000/svg"><defs id="c"><clipPath id="a"><path id="d" d="m0 0h595.28v841.89h-595.28z"/></clipPath><clipPath id="e"><path id="f" d="m0 0h595.28v841.89h-595.28z"/></clipPath></defs><g id="g" transform="matrix(1.3333 0 0 -1.3333 -636.43 1889.5)"><path id="h" d="m710.28 1305.5h-1.447v-7.724h1.447zm-64.59 0h-1.448v-7.724h1.448zm-128.51 0h-1.447v-4.183c0-1.548 0.376-2.413 1.015-2.971 0.559-0.487 1.326-0.765 2.203-0.765 0.978 0 1.884 0.363 2.274 1.031h0.029v-0.836h1.324v7.724h-1.449v-4.14c0-1.689-0.823-2.456-2.024-2.456-1.073 0-1.925 0.501-1.925 2.413zm-11.48-7.724h1.449v4.658c0 0.753-0.153 1.381-0.431 1.884-0.502 0.863-1.421 1.391-2.719 1.391-1.73 0-2.301-0.903-2.552-1.293-0.391 0.848-1.463 1.293-2.399 1.293-1.436 0-1.939-0.723-2.217-1.044h-0.028v0.835h-1.338v-7.724h1.45v4.311c0 0.57 0 2.298 1.91 2.298 0.53 0 1.075-0.167 1.437-0.725 0.307-0.513 0.335-0.948 0.323-1.589v-4.295h1.447v4.311c0.014 0.64-0.013 2.298 1.841 2.298 1.744 0 1.827-1.658 1.827-2.314zm30.885 0h1.448v4.575c-0.014 0.864-0.182 1.477-0.486 1.98-0.558 0.862-1.534 1.378-2.733 1.378-0.307 0-1.48 0-2.261-1.029h-0.028v0.82h-1.35v-7.724h1.448v4.21c0 1.55 0.822 2.399 2.037 2.399 1.925 0 1.925-1.811 1.925-2.41zm11.09 3.876c0 1.172 0.669 2.733 2.538 2.733 1.379 0 1.936-0.962 2.174-1.449h1.603c-0.291 1.142-1.603 2.773-3.792 2.773-2.44 0-3.973-1.964-3.973-4.057 0-1.992 1.422-4.071 3.96-4.071 1.714 0 3.22 1.031 3.805 2.746h-1.617c-0.363-0.796-1.101-1.423-2.188-1.423-1.661 0-2.51 1.409-2.51 2.748m19.836-3.876h1.448v4.575c-0.014 0.864-0.182 1.477-0.487 1.98-0.557 0.862-1.533 1.378-2.734 1.378-0.306 0-1.464 0-2.161-1.029h-0.027v3.414h-1.45v-10.318h1.45v4.212c0 1.548 0.822 2.397 2.035 2.397 1.926 0 1.926-1.811 1.926-2.41zm16.069 4.35h-4.993c0.069 1.13 1.101 2.259 2.497 2.259 1.394 0 2.427-1.129 2.496-2.259m1.407-1.115c0.014 0.098 0.042 0.487 0.042 0.739-0.014 2.259-1.839 3.959-3.933 3.959-2.174 0-3.958-1.742-3.958-4.058 0-2.187 1.741-4.07 3.931-4.07 1.199 0 2.971 0.627 3.709 2.622h-1.448c-0.35-0.672-1.131-1.299-2.205-1.299-0.976 0-2.176 0.616-2.538 2.107zm13.63-3.235h1.448v4.575c-0.012 0.864-0.18 1.477-0.486 1.98-0.557 0.862-1.533 1.378-2.732 1.378-0.308 0-1.481 0-2.261-1.029h-0.027v0.82h-1.351v-7.724h1.447v4.21c0 1.55 0.824 2.399 2.038 2.399 1.924 0 1.924-1.811 1.924-2.41zm11.188 5.787c0 0.489 0.378 0.822 0.907 0.822 0.531 0 0.907-0.307 0.99-0.934h1.449c-0.041 1.715-1.489 2.258-2.369 2.258-1.465 0-2.425-1.086-2.425-2.232 0-1.644 1.335-2.021 2.174-2.328 0.753-0.264 1.353-0.501 1.353-1.184 0-0.657-0.46-1.061-1.117-1.061-0.809 0-1.256 0.544-1.31 1.409h-1.449c0-2.118 1.756-2.732 2.731-2.732 1.645 0 2.594 1.102 2.594 2.469 0 1.838-1.728 2.328-2.328 2.509-0.641 0.194-1.2 0.362-1.2 1.004m25.83-5.787h1.448v4.575c-0.015 0.864-0.182 1.477-0.489 1.98-0.556 0.862-1.533 1.378-2.731 1.378-0.307 0-1.465 0-2.163-1.029h-0.027v3.414h-1.45v-10.318h1.45v4.212c0 1.548 0.821 2.397 2.036 2.397 1.926 0 1.926-1.811 1.926-2.41zm20.284 6.402h1.268v1.322h-1.268v2.594h-1.45v-2.594h-1.046v-1.322h1.046v-6.402h1.45zm11.286-0.237c0.349 0.182 0.822 0.277 1.046 0.277v1.491c-0.363-0.013-1.352-0.041-1.968-0.903h-0.025v0.694h-1.352v-7.724h1.449v4.223c0 1.103 0.39 1.689 0.85 1.942m15.276-2.317c0-1.478-1.172-2.72-2.692-2.72-1.533 0-2.638 1.325-2.638 2.72 0 1.214 0.866 2.761 2.653 2.761 1.492 0 2.677-1.114 2.677-2.761m-0.028-3.848h1.449v7.724h-1.449v-1.084h-0.028c-0.557 0.848-1.547 1.293-2.621 1.293-2.775 0-4.099-2.215-4.099-4.099 0-2.036 1.49-4.029 4.099-4.029 1.045 0 2.064 0.446 2.621 1.394h0.028zm16.433 3.848c0-1.478-1.173-2.72-2.692-2.72-1.534 0-2.638 1.325-2.638 2.72 0 1.214 0.867 2.761 2.651 2.761 1.492 0 2.679-1.114 2.679-2.761m0-3.848h1.336v10.318h-1.449v-3.541h-0.028c-0.556 0.711-1.548 1.156-2.621 1.156-2.734 0-4.016-2.215-4.016-4.097 0-2.038 1.448-4.031 4.016-4.031 1.129 0 2.119 0.446 2.733 1.295h0.029zm26.491 3.891c0-1.466-1.159-2.763-2.72-2.763-1.617 0-2.72 1.355-2.72 2.748 0 1.381 1.087 2.733 2.72 2.733 1.632 0 2.72-1.352 2.72-2.718m1.449 0c0 2.202-1.825 4.042-4.169 4.042-2.399 0-4.168-1.908-4.168-4.015 0-1.951 1.574-4.113 4.168-4.113 2.624 0 4.169 2.203 4.169 4.086m-81.883 5.172c-0.449 0-0.811 0.361-0.811 0.81 0 0.447 0.362 0.81 0.811 0.81 0.448 0 0.809-0.363 0.809-0.81 0-0.449-0.361-0.81-0.809-0.81m-127.6 0c-0.449 0-0.811 0.361-0.811 0.81 0 0.447 0.362 0.81 0.811 0.81 0.448 0 0.809-0.363 0.809-0.81 0-0.449-0.361-0.81-0.809-0.81m3.678 0c-0.449 0-0.811 0.361-0.811 0.81 0 0.447 0.362 0.81 0.811 0.81 0.448 0 0.809-0.363 0.809-0.81 0-0.449-0.361-0.81-0.809-0.81m188.55 0c-0.448 0-0.813 0.361-0.813 0.81 0 0.447 0.365 0.81 0.813 0.81 0.446 0 0.81-0.363 0.81-0.81 0-0.449-0.364-0.81-0.81-0.81"/><g id="i" transform="translate(199.77 599.31)"><g id="j" clip-path="url(#a)"><g id="k" transform="translate(535.75 718.58)"><path id="l" d="m0 0s15.779 0 18.933 14.581l16.587 71.322s3.153 14.58-12.561 13.22l-255.42-35.651s-15.713-1.359-18.497-16.005l-7.05-32.821s-2.784-14.646 12.996-14.646" fill="#fd0"/></g><g id="m" transform="translate(476.9 768.89)"><path id="n" d="m0 0-0.074 0.073c-0.256-0.11-0.661-0.146-1.322-0.146-3.896 0-8.563 3.196-8.563 9.223 0 6.21 4.814 10.326 10.547 10.326 3.417 0 6.578-1.212 8.562-3.564 1.801-1.838 2.279-4.373 2.279-6.762-0.037-2.903-1.214-5.328-2.61-7.423l-6.76-9.958h-8.048zm0.735 13.376c-1.984 0-3.748-1.47-3.748-3.638 0-1.764 1.286-3.711 3.748-3.711 2.278 0 3.748 1.69 3.748 3.601 0 2.499-1.984 3.748-3.748 3.748"/></g><g id="o" transform="translate(494.84 787.85)"><path id="p" d="m0 0h15.03v-5.843h-9.702l-0.588-3.712c0.736 0.405 1.544 0.809 3.675 0.809 6.431 0 9.076-5.365 9.076-9.113 0-4.153-3.123-9.886-10.435-9.886-5.843 0-9.554 3.529-10.363 7.828h6.982c0.624-0.846 1.323-1.287 1.91-1.47 0.588-0.221 1.066-0.221 1.287-0.221 1.984 0 3.674 1.617 3.674 3.602 0 1.763-1.285 3.564-3.711 3.564-1.359 0-2.756-0.514-3.565-2.352l-5.622 1.397z"/></g><g id="q" transform="translate(534.45 787.85)"><path id="r" d="m0 0h15.03v-5.843h-9.703l-0.587-3.712c0.735 0.405 1.543 0.809 3.675 0.809 6.43 0 9.076-5.365 9.076-9.113 0-4.153-3.124-9.886-10.435-9.886-5.844 0-9.555 3.529-10.363 7.828h6.981c0.625-0.846 1.323-1.287 1.911-1.47 0.588-0.221 1.066-0.221 1.286-0.221 1.985 0 3.674 1.617 3.674 3.602 0 1.763-1.285 3.564-3.711 3.564-1.359 0-2.756-0.514-3.563-2.352l-5.623 1.397z"/></g><g id="s" transform="translate(511.18 745.98)"><path id="t" d="m0 0v7.909c-4.546 0-5.919-2.416-6.582-3.693h-0.094v2.792h-7.388v-26.28h7.861v14.443c0 3.976 2.557 4.735 6.203 4.829m-30.447-19.272h7.86v26.28h-7.86v-2.792h-0.095c-0.947 1.609-3.362 3.693-7.671 3.693-7.008 0-13.211-5.399-13.211-14.017 0-7.53 4.877-14.064 13.211-14.064 3.078 0 6.345 1.185 7.671 3.742h0.095zm0 13.164c0-2.557-1.658-6.724-6.582-6.724-4.735 0-6.535 4.167-6.535 6.629 0 2.984 1.989 6.771 6.488 6.771 4.45 0 6.629-3.504 6.629-6.676m-34.283-13.164 9.471 26.28h-8.146l-5.018-16.383h-0.095l-5.02 16.383h-8.144l9.423-26.28zm-38.259 19.272v7.909c-4.546 0-5.919-2.416-6.582-3.693h-0.095v2.792h-7.387v-26.28h7.861v14.443c0 3.976 2.557 4.735 6.203 4.829m-30.448-19.272h7.861v26.28h-7.861v-2.792h-0.095c-0.946 1.609-3.361 3.693-7.67 3.693-7.009 0-13.212-5.399-13.212-14.017 0-7.53 4.878-14.064 13.212-14.064 3.077 0 6.345 1.185 7.67 3.742h0.095zm0 13.164c0-2.557-1.657-6.724-6.582-6.724-4.735 0-6.534 4.167-6.534 6.629 0 2.984 1.988 6.771 6.487 6.771 4.451 0 6.629-3.504 6.629-6.676m-36.034-13.164h7.86v14.679c0 4.687-0.237 7.008-2.462 9.612-1.658 1.989-4.641 2.89-7.15 2.89-2.794 0-5.446-0.948-6.772-3.316h-0.095v11.175h-7.86v-35.04h7.86v14.585c0 1.277 0 5.208 4.404 5.208 4.215 0 4.215-4.214 4.215-5.493zm-43.564 13.164c0 3.789 2.51 6.867 6.251 6.676 3.267 0 4.829-1.893 5.682-3.693h7.955c-1.326 6.441-6.961 11.034-13.921 11.034-7.861 0-13.875-6.252-13.875-13.97 0-7.812 6.109-14.064 14.064-14.064 7.103 0 12.359 4.878 13.779 10.845h-8.002c-0.853-1.61-2.415-3.504-5.682-3.504-3.741 0-6.251 2.839-6.251 6.676m227.86 13.116h-7.86v-26.28h7.86z"/></g><g id="u" transform="translate(521.98 759.81)"><path id="v" d="m0 0c2.44 0 4.419 1.977 4.419 4.419 0 2.439-1.979 4.418-4.419 4.418-2.441 0-4.42-1.979-4.42-4.418 0-2.442 1.979-4.419 4.42-4.419"/></g><g id="w" transform="translate(418.49 770.37)"><path id="x" d="m0 0c0.055-0.057 0.134-0.09 0.215-0.09h1.395c0.081 0 0.158 0.033 0.215 0.09 0.055 0.058 0.086 0.135 0.084 0.215l-0.698 18.644 0.019 0.558c2e-3 0.079-0.027 0.157-0.084 0.214-0.055 0.058-0.133 0.091-0.214 0.091h-0.04c-0.081 0-0.158-0.033-0.213-0.091-0.058-0.057-0.088-0.135-0.085-0.214l0.018-0.558-0.696-18.644c-2e-3 -0.08 0.028-0.157 0.084-0.215"/></g><g id="y" transform="translate(425.06 767.78)"><path id="z" d="m0 0c-0.087 0.08-0.205 0.126-0.328 0.126h-10.531c-0.123 0-0.241-0.046-0.328-0.126-0.087-0.081-0.139-0.192-0.139-0.306v-4.523c0-0.114 0.052-0.226 0.139-0.307s0.205-0.126 0.328-0.126h10.531c0.123 0 0.241 0.045 0.328 0.126s0.138 0.193 0.138 0.307v4.523c0 0.114-0.051 0.225-0.138 0.306"/></g><g id="aa" transform="translate(422.91 760.45)"><path id="ab" d="m0 0h-6.895c-0.099 0-0.197-0.037-0.268-0.1-0.072-0.064-0.111-0.152-0.111-0.242v-4.325c0-0.088 0.039-0.176 0.111-0.24 0.071-0.063 0.169-0.1 0.268-0.1h6.895c0.1 0 0.199 0.037 0.27 0.1 0.071 0.064 0.11 0.152 0.11 0.24v4.325c0 0.09-0.039 0.178-0.11 0.242-0.071 0.063-0.17 0.1-0.27 0.1"/></g><g id="ac" transform="translate(420.81 753)"><path id="ad" d="m0 0h-2.757c-0.259 0-0.472-0.128-0.484-0.291l-2.219-25.655c-6e-3 -0.082 0.044-0.165 0.134-0.224 0.091-0.059 0.218-0.093 0.349-0.093h7.198c0.131 0 0.258 0.034 0.348 0.093s0.14 0.142 0.135 0.224l-2.221 25.655c-0.01 0.163-0.223 0.291-0.483 0.291"/></g></g></g><g id="ae"/></g></svg>
