<svg width="739.83" height="800" version="1.1" viewBox="0 0 739.83 800" xmlns="http://www.w3.org/2000/svg">
 <g transform="matrix(10.39 0 0 10.39 .054372 5.8595e-6)" fill="#0071bb">
  <path d="m5.2207 9.1211v62.359h58.359v-47.881h-1.1602v46.721h-56.041v-60.041h16.721v-1.1582z" color="#000000" color-rendering="auto" dominant-baseline="auto" image-rendering="auto" shape-rendering="auto" solid-color="#000000" stop-color="#000000" style="font-feature-settings:normal;font-variant-alternates:normal;font-variant-caps:normal;font-variant-east-asian:normal;font-variant-ligatures:normal;font-variant-numeric:normal;font-variant-position:normal;font-variation-settings:normal;inline-size:0;isolation:auto;mix-blend-mode:normal;shape-margin:0;shape-padding:0;text-decoration-color:#000000;text-decoration-line:none;text-decoration-style:solid;text-indent:0;text-orientation:mixed;text-transform:none;white-space:normal"/>
  <path d="m25.9 11.2c0.5-1.1 1.3-1.9 2.5-1.9 0.4 0 0.8 0.1 1.2 0.3l-0.6 1.1c-0.3-0.2-0.5-0.2-0.8-0.2-2.5 0-2.4 3.3-2.4 5.2v6.3h-1.1v-12.4h1.1v1.6z"/>
  <path d="m31.1 15.7c0 2.8 1.7 5.4 4.5 5.4 2.9 0 4.5-2.5 4.5-5.5 0-2.8-1.8-5.1-4.6-5.1-2.6 0-4.4 2.5-4.4 5.2m10 6.2h-1.1v-2.2c-0.8 1.6-2.7 2.5-4.4 2.5-3.5 0-5.7-2.9-5.7-6.5s2.2-6.3 5.6-6.3c1.8 0 3.4 0.8 4.4 2.4v-2.2h1.1v12.3"/>
  <path d="m52.9 15.6c0-2.8-1.8-5.1-4.6-5.1-2.6 0-4.4 2.5-4.4 5.2 0 2.8 1.7 5.4 4.5 5.4 2.9 0 4.5-2.6 4.5-5.5m-0.1 4.1c-0.9 1.6-2.7 2.5-4.4 2.5-3.5 0-5.7-2.9-5.7-6.5s2.2-6.3 5.6-6.3c1.8 0 3.4 0.8 4.4 2.4v-11.8h1.3v21.9h-1.1v-2.2"/>
  <path d="m57.4 21.9h-1.1v-12.3h1.1zm0.5-16.4c0 0.6-0.4 1.1-1 1.1s-1-0.5-1-1.1 0.4-1.1 1-1.1c0.6 0.1 1 0.6 1 1.1"/>
  <path d="m60.4 15.8c0 2.8 2.1 5.3 4.8 5.3 2.8 0 5-2.3 5-5.3s-2.2-5.3-5-5.3-4.8 2.5-4.8 5.3m10.8 0c0 3.6-2.7 6.4-6 6.4s-6-2.9-6-6.4 2.6-6.4 6-6.4 6 2.7 6 6.4"/>
  <path d="m2.2 42.2s15.2-14 15.2-14.9c0-0.3 0.8 0.2 0.8 0.2l0.1 0.3 0.6 0.1s0.3-0.1 0.6-0.1 2.7 1.4 2.7 1.4-0.3 0.7-0.1 1 0.5-0.2 0.5-0.2 0.4-0.6 0.6-0.4 0.5 0.1 0.6 0.7c0.1 0.4-0.2 1.4-0.1 1 0.1-0.3-15.9 34-16.4 35-0.2 0.4-0.8 0.2-0.8 0.2l-0.1-0.5v0.2c0.3-1-0.4-0.2-0.6-0.2-0.4 0.1-0.4 0.1-0.4 0.4s-0.5 0.4-0.9 0.3-1.3 1.7-1.2 2-0.6 0.2-0.6 0.2h-0.4l-0.4 0.1-0.6-0.2-0.3-0.2-0.4-0.3-0.1-0.6s1.2-2.8 1.3-3.2-0.5-0.3-0.7 0.2-1-1.3-1.1-1.4c-0.3-0.3 12.4-25.9 12-26.6 0 0-7 6.6-7.5 6.4-0.6-0.2 0.1-0.5 0.1-0.5s-0.8-0.1-1 0.3-0.6 0.4-0.9 0.3c-0.3 0-0.5-1-0.5-1"/>
  <path d="m46.1 49.9c0.4-0.3 3.5-7.5 3.3-11.4-0.1-2.6-1-4-1.8-4.3-0.6-0.3-1.3 0.1-1.7 0s-1.5-0.7-3.1-0.2c-2.6 0.8-4.7 1.2-8.9 8.2 0.4-2.2 0.6-4.4 0.4-6.5s-2-3.4-3-3.5c-1 0-1.3 0.8-1.5 0.7-0.9-0.4-1.8-0.1-2.8 0.2-5 1.5-19.6 24-13.5 33.5 1.3 2 6.2 0.8 7.4-0.2 0.6-0.5-0.1-0.8 0.2-0.8 0.3 0.1 1.5-1 1.5-1s2.9-4 4.8-6.7c-0.8 4.9 0 8.5 1.8 9.6 1.7 1.1 4.6 0.7 5.6-0.2 4.4-3.4 10.1-13.7 11.1-15.8 0.5-1.2-0.4-0.5-0.4-0.5s0-0.6 0.6-1.1zm-22.1 7.3c-3.1 4.1-4.3 1.5-4.3 0-0.1-7 6.9-14.6 7.3-15.1 0.4 0.1-0.1 0.6 0.2 0.5 0.6-0.1 0.7-1.2 0.9-1.5 0.3-0.3 1.5-1.5 2.7-0.5 2.7 2.3-6.3 16-6.8 16.6zm20.8-12c0.4-0.1-0.2 0.9-1.7 4.6-1.7 4.4-6.7 12.3-8.8 10.9-1.5-1 0.3-7 1.7-10.5 1.8-4.8 4.3-7.2 4.3-7.2 1-1.6 2.7-2 3.7-1.6 1.1 0.4 1.1 1.5 1.1 1.5l-0.5 2.3c0.2 0.1-0.2 0 0.2 0z"/>
  <path d="m42.4 63.6s4.9-1.5 5.1-0.6c0.5 2.2-9 13.2-11.4 13.4-0.6 0-0.8 0.3-1 0.3-1.1-0.1 0.5-0.9 0.5-0.9s-1.4 1.6-1.7 1.1 4.3-5.6 4.8-7.4l0.3-1.1s1.1-1.8 1.3-2 1.2-0.3 1.2-0.6c-0.1-0.4 0.5-1.8 0.9-2.2"/>
  <path d="m53.5 26.6c-0.3 0.1-0.8 0.4-1.1 1-0.2 0.6-0.8 0-1.4 0.6-0.6 0.5-1.4 3.2-1.4 3.8 0.1 0.6 0.8 0.9 1.2 1s10.5-0.2 10.9 0.3c0.5 0.4-0.3 1-0.5 1.4s-4.4 7-5.2 8.8c-0.2 0.5-2 0.1-2.3 0.7-0.5 0.8-0.9 1.1-0.9 1.8 0 0.4-1.4 0.6-1.4 1.1 0.1 0.5 0.1 3 0.4 3.3 0.4 0.3 1.1 0.5 1.1 0.5-1.3 4.2-3.7 9.8-2.8 17.4 0.1 0.8 0.6-1.4 0.6-1.4s1.3 3 1.3 2.1c0.4-4.9 3.1-15.7 6.1-18.8 0.6-0.7 2.7-0.6 5.8-1.3 3.6-0.8 4.1-3.7 4.1-3.7s-0.4-0.3-0.6-0.7 0.4-0.5 0.7-0.6 0.8-1.8 0.5-2.1c-0.8-0.6-5 0.4-5.4 0.3s5.7-8.7 6.1-9.5 0.5-0.9 0.5-1.2 0.8-1.5 0.8-2.2-0.3-0.3-0.5-0.6 0.2-1.8-0.6-2.2c-1-0.5-13.5-0.5-16 0.2"/>
 </g>
</svg>
