<svg width="800" height="301.32" version="1.1" viewBox="0 0 800 301.32" xml:space="preserve" xmlns="http://www.w3.org/2000/svg"><defs><clipPath id="clipPath136"><path d="m403.23 53.831h139.74v55.361h-139.74z"/></clipPath><linearGradient id="linearGradient186" x2="1" gradientTransform="matrix(57.233 -2.5781 -2.5781 -57.233 485.74 93.166)" gradientUnits="userSpaceOnUse"><stop stop-color="#e4003a" offset="0"/><stop stop-color="#970052" offset="1"/></linearGradient><linearGradient id="linearGradient206" x2="1" gradientTransform="matrix(57.233 -2.5781 -2.5781 -57.233 485.71 92.516)" gradientUnits="userSpaceOnUse"><stop stop-color="#e4003a" offset="0"/><stop stop-color="#970052" offset="1"/></linearGradient><linearGradient id="linearGradient226" x2="1" gradientTransform="matrix(57.233 -2.5781 -2.5781 -57.233 485.65 91.291)" gradientUnits="userSpaceOnUse"><stop stop-color="#e4003a" offset="0"/><stop stop-color="#970052" offset="1"/></linearGradient><linearGradient id="linearGradient246" x2="1" gradientTransform="matrix(57.233 -2.5781 -2.5781 -57.233 485.62 90.611)" gradientUnits="userSpaceOnUse"><stop stop-color="#e4003a" offset="0"/><stop stop-color="#970052" offset="1"/></linearGradient><clipPath id="clipPath256"><path d="m403.23 53.831h139.74v55.361h-139.74z"/></clipPath></defs><g transform="matrix(1.3333 0 0 -1.3333 -541 58.899)"><g transform="matrix(4.2936 0 0 4.2936 -1325.5 -424.65)"><g clip-path="url(#clipPath136)"><g transform="translate(403.23 59.181)"><path d="m0 0v0.395l2.286 2.709h0.395c0.903-0.847 2.68-1.693 4.233-1.693 0.648 0 0.987 0.254 0.987 0.564 0 0.452-0.649 0.677-1.411 0.903-2.54 0.677-5.7 1.637-5.7 4.882 0 2.765 2.37 4.515 6.152 4.515 2.596 0 5.051-0.903 6.208-2.286v-0.395l-2.258-2.54h-0.395c-1.156 0.96-2.483 1.355-3.499 1.355-0.621 0-1.044-0.198-1.044-0.48 0-0.62 1.355-0.79 3.189-1.439 2.37-0.846 3.922-2.032 3.922-4.628 0-2.709-2.511-4.486-6.264-4.486-2.822 0-5.531 1.044-6.801 2.624" fill="#970052"/></g><g transform="translate(417.14 64.006)"><path d="m0 0c0 4.289 3.302 7.393 7.732 7.393 2.737 0 4.628-1.129 5.898-2.483v-0.395l-3.02-2.822h-0.395c-0.508 0.621-1.298 1.044-2.229 1.044-1.496 0-2.568-1.157-2.568-2.737s1.072-2.737 2.568-2.737c0.931 0 1.721 0.423 2.229 1.044h0.395l3.02-2.822v-0.395c-1.27-1.355-3.161-2.483-5.898-2.483-4.43 0-7.732 3.104-7.732 7.393" fill="#970052"/></g><g transform="translate(446.82 65.192)"><path d="m0 0v-8.24h-5.531v7.845c0 1.129-0.677 1.947-1.834 1.947s-1.834-0.818-1.834-1.947v-7.845h-5.475v18.709l5.052 0.536 0.423-0.254v-5.615c0.875 0.649 1.947 1.072 3.302 1.072 3.414 0 5.897-2.399 5.897-6.208" fill="#970052"/></g><g transform="translate(470.46 70.694)"><path d="m0 0-4.854-13.742h-4.232l-2.512 7.336-2.511-7.336h-4.233l-4.656 13.742 0.254 0.367h5.108l2.059-7.986 2.427 7.986h3.104l2.568-7.619 2.201 7.619h5.023z" fill="#970052"/></g><g transform="translate(479.5 61.692)"><path d="m0 0v0.677c-0.479 0.226-1.326 0.508-2.144 0.508-1.157 0-1.919-0.621-1.919-1.524s0.762-1.495 1.919-1.495c1.354 0 2.144 1.016 2.144 1.834m4.967 3.64v-8.381h-4.318v1.129c-1.157-0.903-2.624-1.468-4.261-1.468-3.358 0-5.587 1.778-5.587 4.431 0 2.906 2.427 4.854 6.095 4.854 1.016 0 2.032-0.226 2.991-0.537v0.395c0 1.073-1.326 1.778-2.85 1.778-1.044 0-2.173-0.395-2.963-0.959h-0.395l-1.665 2.68v0.395c1.637 1.242 4.149 1.75 5.926 1.75 3.415 0 7.027-1.354 7.027-6.067" fill="#970052"/></g><g transform="translate(496.66 64.006)"><path d="m0 0c0 1.58-1.072 2.737-2.54 2.737-1.467 0-2.54-1.157-2.54-2.737s1.073-2.737 2.54-2.737c1.468 0 2.54 1.157 2.54 2.737m5.418 0c0-4.177-2.991-7.393-7.026-7.393-1.75 0-3.161 0.649-4.233 1.665v-1.327h-4.516v18.709l5.108 0.536 0.424-0.254v-5.361c0.959 0.508 2.031 0.818 3.217 0.818 4.063 0 7.026-3.217 7.026-7.393" fill="#970052"/></g><g transform="translate(508.73 65.699)"><path d="m0 0h4.543c-0.084 0.564-0.338 1.044-0.649 1.354-0.423 0.424-0.988 0.649-1.608 0.649-1.298 0-2.089-0.79-2.286-2.003m0-2.85c0.197-1.58 1.383-2.342 2.991-2.342 1.354 0 2.54 0.451 3.386 1.27h0.395l2.314-2.286v-0.395c-1.665-1.863-4.232-2.483-6.433-2.483-4.741 0-7.958 3.103-7.958 7.393 0 4.289 3.132 7.393 7.76 7.393 2.173 0 4.035-0.734 5.39-2.032 1.269-1.269 2.032-3.047 2.032-5.248 0-0.423-0.029-0.847-0.114-1.27z" fill="#970052"/></g><g transform="translate(534.8 65.192)"><path d="m0 0v-8.24h-5.531v7.845c0 1.1-0.62 1.947-1.862 1.947-1.073 0-1.806-0.762-1.806-1.947v-7.845h-5.531v14.109h4.515v-1.721c0.959 1.213 2.37 2.06 4.317 2.06 3.471 0 5.898-2.54 5.898-6.208" fill="#970052"/></g></g></g><g transform="matrix(4.2936 0 0 4.2936 -1325.5 -424.65)"><path d="m529.31 91.138c0-0.908 0.615-1.573 1.459-1.573 0.842 0 1.457 0.665 1.457 1.573 0 0.907-0.615 1.572-1.457 1.572-0.844 0-1.459-0.665-1.459-1.572" fill="url(#linearGradient186)"/></g><g transform="matrix(4.2936 0 0 4.2936 -1325.5 -424.65)"><path d="m514.88 91.138c0-0.891 0.604-1.543 1.431-1.543s1.431 0.652 1.431 1.543c0 0.89-0.604 1.542-1.431 1.542s-1.431-0.652-1.431-1.542" fill="url(#linearGradient206)"/></g><g transform="matrix(4.2936 0 0 4.2936 -1325.5 -424.65)"><path d="m485.65 102.73 3.651-16.643c1.131-3.774 4.602-6.359 8.541-6.361l36.961-0.014 6.435-8.194c1.175-1.362 1.706-1.258 1.735 0.767l-0.013 25.967c-2e-3 4.056-3.11 7.435-7.151 7.774l-44.933 3.145c-0.146 0.011-0.29 0.018-0.434 0.018-3.311 0-5.766-3.211-4.792-6.459m36.295-4.835c0 0.972 0.787 1.76 1.76 1.76 0.972 0 1.759-0.788 1.759-1.76s-0.787-1.759-1.759-1.759c-0.973 0-1.76 0.787-1.76 1.759m-4.378-0.386 2.794 0.294 0.231-0.139v-10.389h-2.469v0.726c-0.587-0.555-1.358-0.911-2.316-0.911-2.207 0-3.843 1.76-3.843 4.045 0 2.284 1.621 4.043 3.843 4.043 0.648 0 1.235-0.169 1.76-0.447zm-13.845-3.405v0.216c0.895 0.678 2.269 0.956 3.242 0.956 1.867 0 3.843-0.74 3.843-3.318v-4.683h-2.362v0.618c-0.633-0.493-1.435-0.803-2.331-0.803-1.836 0-3.055 0.973-3.055 2.424 0 1.59 1.326 2.655 3.333 2.655 0.557 0 1.112-0.124 1.636-0.294v0.314c0 0.587-0.725 0.972-1.558 0.972-0.572 0-1.189-0.216-1.621-0.524h-0.216zm22.696-2.969c0 2.346 1.822 4.043 4.354 4.043 2.53 0 4.352-1.697 4.352-4.043 0-2.347-1.822-4.045-4.352-4.045-2.532 0-4.354 1.698-4.354 4.045m-24.933 4.043c0.524 0 0.972-0.091 1.42-0.292l0.138-0.216-0.555-2.085-0.217-0.138c-0.324 0.154-0.632 0.185-0.972 0.185-0.864 0-1.435-0.541-1.435-1.343v-4.014h-3.026v7.719h2.47v-1.019c0.54 0.741 1.281 1.203 2.177 1.203m20.707-0.184h3.026v-7.718h-3.026z" fill="url(#linearGradient226)"/></g><g transform="matrix(4.2936 0 0 4.2936 -1325.5 -424.65)"><path d="m505.64 89.648c0-0.544 0.459-0.902 1.157-0.902 0.817 0 1.294 0.613 1.294 1.106v0.409c-0.07 0.032-0.152 0.067-0.243 0.101-0.291 0.107-0.675 0.205-1.051 0.205-0.698 0-1.157-0.374-1.157-0.919" fill="url(#linearGradient246)"/></g><g clip-path="url(#clipPath256)"><g transform="translate(411.76 46.554)"><path d="m0 0c0 2.397-1.529 3.995-4.036 3.995h-2.687v-7.99h2.687c2.507 0 4.036 1.598 4.036 3.995m0.537 0c0-2.673-1.736-4.477-4.587-4.477h-3.223v8.954h3.223c2.851 0 4.587-1.805 4.587-4.477" fill="#970052"/></g><g transform="translate(414.15 45.824)"><path d="m0 0h5.606c-0.041 0.606-0.206 1.143-0.481 1.584-0.455 0.758-1.213 1.24-2.26 1.24-1.625 0-2.769-1.171-2.865-2.824m0-0.482c0.083-1.805 1.392-2.948 2.975-2.948 1.02 0 2.067 0.51 2.618 1.281h0.055l0.317-0.262v-0.069c-0.634-0.881-1.818-1.432-2.99-1.432-1.887 0-3.512 1.391-3.512 3.609 0 2.039 1.378 3.609 3.388 3.609 1.172 0 2.081-0.523 2.618-1.35 0.441-0.592 0.689-1.364 0.689-2.204 0-0.096-0.014-0.165-0.014-0.234z" fill="#970052"/></g><path d="m421.91 48.965h0.523v-6.888h-0.523zm-0.303 1.791c0 0.303 0.261 0.551 0.565 0.551 0.303 0 0.564-0.248 0.564-0.551 0-0.317-0.261-0.565-0.564-0.565-0.304 0-0.565 0.248-0.565 0.565" fill="#970052"/><g transform="translate(430.37 46.362)"><path d="m0 0v-4.284h-0.523v4.257c0 1.405-0.924 2.314-2.315 2.314-1.474 0-2.465-1.033-2.465-2.397v-4.174h-0.524v6.888h0.496v-1.282c0.455 0.868 1.364 1.447 2.562 1.447 1.654 0 2.769-1.102 2.769-2.769" fill="#970052"/></g><g transform="translate(441.57 42.078)"><path d="m0 0h-5.221v8.954h0.551v-8.472h4.67z" fill="#970052"/></g><g transform="translate(442.5 45.824)"><path d="m0 0h5.606c-0.041 0.606-0.206 1.143-0.481 1.584-0.455 0.758-1.213 1.24-2.26 1.24-1.625 0-2.769-1.171-2.865-2.824m0-0.482c0.083-1.805 1.392-2.948 2.975-2.948 1.02 0 2.067 0.51 2.618 1.281h0.055l0.317-0.262v-0.069c-0.634-0.881-1.818-1.432-2.99-1.432-1.887 0-3.512 1.391-3.512 3.609 0 2.039 1.378 3.609 3.388 3.609 1.172 0 2.081-0.523 2.618-1.35 0.441-0.592 0.689-1.364 0.689-2.204 0-0.096-0.014-0.165-0.014-0.234z" fill="#970052"/></g><g transform="translate(456.64 45.521)"><path d="m0 0c0 1.736-1.198 3.127-2.948 3.127-1.694 0-2.948-1.254-2.948-3.127 0-1.86 1.254-3.127 2.948-3.127 1.75 0 2.948 1.377 2.948 3.127m0.538 0c0-2.025-1.42-3.609-3.458-3.609-1.322 0-2.37 0.688-2.934 1.708v-1.543h-0.524v9.326l0.455 0.069 0.069-0.042v-3.967c0.578 1.006 1.625 1.667 2.934 1.667 2.038 0 3.458-1.584 3.458-3.609" fill="#970052"/></g><g transform="translate(458.93 45.824)"><path d="m0 0h5.606c-0.041 0.606-0.206 1.143-0.481 1.584-0.455 0.758-1.213 1.24-2.26 1.24-1.625 0-2.769-1.171-2.865-2.824m0-0.482c0.083-1.805 1.392-2.948 2.975-2.948 1.02 0 2.067 0.51 2.618 1.281h0.055l0.317-0.262v-0.069c-0.634-0.881-1.818-1.432-2.99-1.432-1.887 0-3.512 1.391-3.512 3.609 0 2.039 1.378 3.609 3.388 3.609 1.172 0 2.081-0.523 2.618-1.35 0.441-0.592 0.688-1.364 0.688-2.204 0-0.096-0.013-0.165-0.013-0.234z" fill="#970052"/></g><g transform="translate(472.51 46.362)"><path d="m0 0v-4.284h-0.523v4.257c0 1.405-0.923 2.314-2.315 2.314-1.474 0-2.465-1.033-2.465-2.397v-4.174h-0.524v6.888h0.496v-1.282c0.455 0.868 1.364 1.447 2.562 1.447 1.654 0 2.769-1.102 2.769-2.769" fill="#970052"/></g><path d="m478.33 48.965h0.523v-6.888h-0.523zm-0.303 1.791c0 0.303 0.262 0.551 0.565 0.551s0.565-0.248 0.565-0.551c0-0.317-0.262-0.565-0.565-0.565s-0.565 0.248-0.565 0.565" fill="#970052"/><g transform="translate(480.23 43.193)"><path d="m0 0v0.055l0.331 0.248h0.055c0.413-0.675 1.116-1.102 2.038-1.102 1.089 0 1.833 0.537 1.833 1.377 0 1.089-1.144 1.433-2.191 1.86-0.812 0.331-1.611 0.772-1.611 1.75 0 1.06 0.909 1.749 2.08 1.749 0.881 0 1.694-0.427 2.135-1.116v-0.055l-0.331-0.248h-0.055c-0.413 0.593-1.033 0.937-1.763 0.937-0.896 0-1.543-0.496-1.543-1.226s0.606-1.075 1.35-1.364c1.185-0.482 2.466-0.881 2.466-2.287 0-1.115-0.951-1.859-2.342-1.859-1.116 0-1.942 0.496-2.452 1.281" fill="#970052"/></g><g transform="translate(490.1 42.38)"><path d="m0 0-0.014-0.069c-0.317-0.248-0.702-0.399-1.198-0.399-1.157 0-1.846 0.702-1.846 1.983v4.601h-1.24v0.469h1.24v2.162l0.455 0.069 0.068-0.041v-2.19h2.26v-0.469h-2.26v-4.573c0-1.006 0.483-1.529 1.35-1.529 0.331 0 0.689 0.096 0.937 0.33l0.055-0.013z" fill="#970052"/></g><g transform="translate(494.84 45.824)"><path d="m0 0h5.607c-0.042 0.606-0.207 1.143-0.482 1.584-0.455 0.758-1.213 1.24-2.26 1.24-1.625 0-2.769-1.171-2.865-2.824m0-0.482c0.083-1.805 1.392-2.948 2.975-2.948 1.02 0 2.067 0.51 2.618 1.281h0.055l0.317-0.262v-0.069c-0.634-0.881-1.818-1.432-2.99-1.432-1.887 0-3.512 1.391-3.512 3.609 0 2.039 1.378 3.609 3.388 3.609 1.172 0 2.081-0.523 2.618-1.35 0.441-0.592 0.689-1.364 0.689-2.204 0-0.096-0.014-0.165-0.014-0.234z" fill="#970052"/></g><path d="m502.6 48.965h0.523v-6.888h-0.523zm-0.303 1.791c0 0.303 0.262 0.551 0.565 0.551s0.565-0.248 0.565-0.551c0-0.317-0.262-0.565-0.565-0.565s-0.565 0.248-0.565 0.565" fill="#970052"/><g transform="translate(511.06 46.362)"><path d="m0 0v-4.284h-0.523v4.257c0 1.405-0.923 2.314-2.314 2.314-1.475 0-2.466-1.033-2.466-2.397v-4.174h-0.524v6.888h0.496v-1.282c0.455 0.868 1.364 1.447 2.562 1.447 1.654 0 2.769-1.102 2.769-2.769" fill="#970052"/></g><g transform="translate(523.95 51.032)"><path d="m0 0v-8.954h-0.523v4.284h-5.842v-4.284h-0.55v8.954h0.55v-4.188h5.842v4.188z" fill="#970052"/></g><path d="m526.29 48.965h0.523v-6.888h-0.523zm-0.303 1.791c0 0.303 0.262 0.551 0.565 0.551s0.565-0.248 0.565-0.551c0-0.317-0.262-0.565-0.565-0.565s-0.565 0.248-0.565 0.565" fill="#970052"/><g transform="translate(532.34 42.38)"><path d="m0 0-0.014-0.069c-0.317-0.248-0.702-0.399-1.198-0.399-1.157 0-1.846 0.702-1.846 1.983v4.601h-1.24v0.469h1.24v2.162l0.455 0.069 0.068-0.041v-2.19h2.26v-0.469h-2.26v-4.573c0-1.006 0.483-1.529 1.35-1.529 0.331 0 0.689 0.096 0.937 0.33l0.055-0.013z" fill="#970052"/></g><g transform="translate(534.31 44.261)"><path d="m0 0-0.083 6.729 0.042 0.042h0.537l0.041-0.042-0.069-6.729-0.041-0.055h-0.4zm-0.331-1.784c0 0.303 0.248 0.551 0.551 0.551 0.317 0 0.565-0.248 0.565-0.551 0-0.317-0.248-0.564-0.565-0.564-0.303 0-0.551 0.247-0.551 0.564" fill="#970052"/></g></g></g></svg>
