<svg version="1.1" viewBox="0 0 473.5 425.3" xml:space="preserve" xmlns="http://www.w3.org/2000/svg">
<path class="st0" d="m438.2 425.3h-438.2v-390.3c0.1-0.6 0.3-1.1 0.4-1.7 0.2-1.1 0.4-2.3 0.6-3.4 3.1-15.3 16-27.4 31.3-29.4 1-0.2 1.8-0.3 2.7-0.5h438.5v390.2c-0.1 0.5-0.2 0.9-0.2 1.4-0.1 1-0.2 2-0.4 3-3.1 16-15.6 27.9-31.8 30.2-0.9 0.2-1.9 0.3-2.9 0.5z" fill="#231f20"/><path class="st0" d="m20.8 404.7h414.8c5.7 0 10.4-2.3 13.9-6.8 2.6-3.2 3.6-7 3.6-11.1v-365.3c0-0.3-0.1-0.6-0.1-1h-415.3c-5.3 0.2-9.7 2.3-13 6.4-2.7 3.3-3.9 7.2-3.9 11.4v365.5c-0.1 0.4-0.1 0.5 0 0.9z" fill="#fff"/><path class="st0" d="m127 206.9h44.6v-33.8c0.1-21.2 14.6-39.8 36.4-43.9 2.8-0.5 5.6-0.8 8.5-0.8h28.3c1.6 0 2.9 0.4 4.1 1.5 1.3 1.1 1.8 2.6 1.9 4.3v29.9c0 0.9-0.1 1.8-0.4 2.6-0.8 2.3-2.9 3.7-5.3 3.7h-18.1c-1.1 0-2.2 0.1-3.2 0.2-3.9 0.6-6.1 2.9-6.7 6.8-0.2 1.1-0.2 2.2-0.2 3.2v26.5h1.4l42 1e-5c30.3 1e-5 60.6-0.1 91-0.1 7.4 0 14.7 1.2 21.5 4.2 13.1 5.9 20.8 16 23.4 30.1 0.5 2.9 0.7 5.8 0.7 8.7v113c0 0.7 0 1.4-0.1 2-0.6 2.6-2.8 4.4-5.5 4.4h-33.4c-1.6 0-3-0.4-4.2-1.5s-1.9-2.5-1.9-4.1v-106.9c0-1.2-0.1-2.5-0.4-3.7-1.2-4-3.9-6.3-8-7.1-0.8-0.2-1.7-0.2-2.5-0.2h-34.3v116.9c0 0.7 0 1.4-0.1 2-0.5 2.6-2.7 4.5-5.4 4.6h-33.3c-0.8 0-1.6-0.1-2.4-0.3-2.2-0.8-3.5-2.3-3.8-4.6-0.1-0.7-0.1-1.4-0.1-2.2v-116.2c-1.1-0.3-43.2-0.3-44.5 0v116.9c0 0.7 0 1.5-0.2 2.1-0.6 2.5-2.8 4.2-5.4 4.3h-33.5c-1.5 0-2.8-0.4-4-1.3-1.3-1.1-2-2.5-2.1-4.2v-117.8c-1-0.3-43.2-0.3-44.6 0v104.1c0 4.4-0.1 8.8 0 13.2 0.1 3.4-2.6 6.1-6.1 6.1-10.9-0.1-21.8-0.1-32.8 0-3.6 0-6.3-2.7-6.3-6.3 0.1-38.5 0-77 0-115.4v-1.8h-15.9c-2.4 0-4.9-1.6-5.6-4.4-0.1-0.5-0.1-1-0.1-1.4v-27.4c0-3.2 2.1-5.5 5.3-5.8h16.2v-1.5c0-10.8-0.1-21.7 0-32.5 0.2-19.9 12.8-36.3 30.5-42.2 4.7-1.5 9.5-2.3 14.4-2.3h28.3c1.5 0 2.8 0.3 3.9 1.3 1.3 1 2 2.4 2.1 4v30.6c0 0.6 0 1.3-0.2 1.9-0.7 2.5-2.9 4.1-5.5 4.2h-8.9c-3.2 0-6.5-0.1-9.7 0-1.6 0-3.3 0.2-4.9 0.5-2.3 0.5-3.7 2-4.3 4.2-0.5 1.8-0.6 3.7-0.6 5.6v25z" fill="#231f20"/><path class="st0" d="m293.7 113.9v-42.9c0-2.1 0.2-4.2 0.8-6.1 1.2-3.6 3.5-6.2 7.3-7.1 2.4-0.6 4.8-0.3 7.1 0.5 1.3 0.4 2.5 1 3.7 1.6 29 14.8 58.1 29.7 87.1 44.6 2 1 3.8 2.2 5.3 3.8 1.3 1.4 2.3 3 2.4 5 0.2 2.4-0.7 4.5-2.3 6.2-1.4 1.6-3.1 2.7-5 3.7l-8.1 4.2c-26.7 13.7-53.4 27.3-80.1 41-2.5 1.3-5.2 2.2-8 2.1-3.8-0.1-6.6-1.9-8.5-5.2-1.4-2.5-1.8-5.2-1.8-8v-14.8c0.1-9.6 0.1-19.1 0.1-28.6z" fill="#da2032"/><g fill="#231f20"><path class="st0" d="m117.7 75.5h-5.3c-0.3-3-0.1-5.8 2.1-8.1 1.6-1.7 3.5-2.5 5.8-2.5 5.5 0 11-0.1 16.4 0s8 4.6 8 8.2c-0.1 5.5-0.1 11 0 16.4 0.1 4.4-3.5 8.2-8.2 8.2-5.4-0.1-10.9-0.1-16.3 0-3.9 0.1-8.2-2.9-8.3-8.1 0-1.3-0.1-2.6 0.1-4 0.5-4.3 3.8-7.3 8.1-7.3h19.1c0.1-0.3 0.1-0.6 0.1-0.9v-4.2c0-1.9-1.1-2.9-3-2.9h-15.7c-1.9 0-2.9 1-2.9 2.9v2.3zm21.7 8.2h-19c-2 0-3 1-3 2.9v2.8c0 1.8 1 2.9 2.9 2.9h16.2c1.9 0 2.9-1.1 3-3v-3.2c-0.1-0.8-0.1-1.5-0.1-2.4z"/><path class="st0" d="m182.2 65v-8.5h5.4v41.1c-0.4 0-0.7 0.1-1.1 0.1h-22.9c-4.6 0-8.1-3.5-8.2-8.1v-16.4c0-4.5 3.4-8 7.9-8.1 5.7-0.1 11.4 0 17.1 0 0.7-0.1 1.1-0.1 1.8-0.1zm0 5.6c-0.2-0.1-0.3-0.1-0.3-0.1h-18.2c-1.2 0-2 0.7-2.4 1.8-0.2 0.4-0.2 0.9-0.2 1.4v15.7c0 1.7 1 2.7 2.8 2.8h17.4c0.3 0 0.6 0 1-0.1-0.1-7.1-0.1-14.3-0.1-21.5z"/><path class="st0" d="m233.6 97.7h-8.3c-4.7 0-8.3-3.5-8.4-8.2-0.1-5.6 0-11.1 0-16.7 0-4.7 3.6-8.2 8.2-8.3 5.6-0.1 11.2-0.1 16.8 0 4.4 0 7.9 3.2 8.1 7.6 0.2 6 0.2 12.1 0 18.1-0.2 4.3-3.8 7.5-8.2 7.5h-8.2zm11.2-16.6c0-2.7-0.1-5.4 0-8.2 0.1-1.9-1.3-3.2-3.1-3.2h-16.3c-2 0-3.1 1.1-3.1 3.1v16.3c0 2 1.1 3.1 3.1 3.1h16.2c1.8 0 3.3-1.2 3.2-3.2v-7.9z"/><path class="st0" d="m88.6 97.6h-5.4c0-0.4-0.1-0.8-0.1-1.1v-22.9c0-3.9 2.2-7 5.7-8.1 0.7-0.2 1.5-0.4 2.2-0.4h13.6c0.3 0.9 0.3 4.1 0 5.4h-1.3c-3.8 0-7.7 0.1-11.5 0-1.8 0-3.3 1-3.3 3.3v22.2c0.1 0.5 0.1 1 0.1 1.6z"/><path class="st0" d="m205.4 97.6h-5.3v-32.5c1.7-0.1 3.5 0 5.3 0v32.5z"/></g>
<path class="st0" d="m216.9 207.1 44.6 1e-5v39h-44.5z" fill="#da2032"/></svg>
