<svg enable-background="new 0 0 202 164" version="1.1" viewBox="0 0 800 608.08" xml:space="preserve" xmlns="http://www.w3.org/2000/svg">
<g transform="matrix(4.2574 0 0 4.2574 -26.511 -40.356)">
		<path d="m75.429 124.15c0.797 0 1.452-0.052 2.039-0.658 0.418-0.412 0.608-0.986 0.608-1.558 0-0.691-0.262-1.266-0.831-1.644-0.518-0.362-1.021-0.381-1.646-0.381h-2.957v4.24h2.787zm2.7 6.351-2.199-5.14h-3.288v5.14h-1.488v-11.871h4.445c0.972 0 1.907 0.119 2.706 0.725 0.792 0.606 1.26 1.592 1.26 2.598 0 1.402-0.831 2.666-2.214 3.047l2.336 5.502h-1.558z"/>
		<path d="m87.575 126.07h-1.124c-1.382 0-3.563 0.19-3.563 2.01 0 1.089 0.934 1.538 1.903 1.538 1.66 0 2.784-1.419 2.784-2.977zm0-1.02v-0.38c0-1.54-0.674-2.128-2.23-2.128-1.106 0-2.163 0.346-2.405 1.557l-1.265-0.206c0.245-1.835 2.182-2.407 3.793-2.407 0.951 0 2.04 0.104 2.695 0.865 0.728 0.779 0.728 1.887 0.728 2.889v3.409c0 0.64 0.02 1.28 0.192 1.853h-1.353l-0.155-1.645c-0.621 1.263-1.676 1.816-3.079 1.816-1.643 0-3.063-0.915-3.063-2.666 0-1.054 0.658-2.006 1.627-2.437 0.988-0.468 2.285-0.521 3.375-0.521h1.14z"/>
		<path d="m96.666 125.29c0-0.607-0.089-1.229-0.452-1.751-0.433-0.621-1.212-0.984-1.976-0.984-0.759 0-1.399 0.467-1.781 1.107-0.398 0.693-0.52 1.488-0.52 2.286 0 1.435 0.382 3.6 2.27 3.6 0.776 0 1.487-0.433 1.937-1.059 0.415-0.569 0.522-1.14 0.522-1.801zm0-6.663h1.344v11.871h-1.225v-1.559h-0.036c-0.554 1.108-1.452 1.73-2.753 1.73-1.157 0-2.04-0.554-2.68-1.486-0.605-0.901-0.83-2.008-0.83-3.08 0-2.197 1.088-4.62 3.634-4.62 1.123 0 1.921 0.536 2.546 1.418z"/>
		<path d="m101.93 130.5h-1.352v-8.792h1.352zm0.068-10.35h-1.488v-1.521h1.488z"/>
		<path d="m109.97 128.28c0.363-0.69 0.434-1.488 0.434-2.248 0-0.834-0.105-1.696-0.556-2.405-0.414-0.64-1.143-1.039-1.902-1.039-0.849 0-1.609 0.487-1.991 1.245-0.328 0.642-0.433 1.488-0.433 2.199 0 0.796 0.122 1.713 0.503 2.405 0.382 0.676 1.124 1.108 1.921 1.108 0.901 1e-3 1.61-0.468 2.024-1.265zm-5.952-2.248c0-2.44 1.385-4.552 4.032-4.552 2.577 0 3.86 2.25 3.86 4.567 0 2.459-1.421 4.62-4.087 4.62-2.629 1e-3 -3.805-2.316-3.805-4.635z"/>
		<path d="m118.79 125.57-0.968-3.443-0.968 3.443zm0.625 2.594h-3.166l-0.729 2.337h-2.959l3.688-11.871h3.843l3.717 11.871h-3.717z"/>
		<path d="m127.78 121.66v1.246h0.035c0.412-1.004 1.438-1.419 2.508-1.419 0.831 0 1.784 0.242 2.303 0.917 0.551 0.728 0.551 1.729 0.551 2.647v5.451h-3.424v-5.365c0-0.537 0-1.28-0.742-1.28-0.952 0-1.04 0.814-1.04 1.541v5.104h-3.429v-8.843h3.238z"/>
		<path d="m139.81 125.01c0-0.347 0.017-0.761-0.207-1.038-0.157-0.228-0.469-0.347-0.744-0.347-0.607 0-0.866 0.397-0.97 0.935-0.103 0.483-0.174 1.158-0.174 1.645 0 0.775 0.052 2.16 1.125 2.16 0.344 0 0.571-0.152 0.763-0.448 0.242-0.382 0.207-0.693 0.207-1.126zm0.173 5.484v-1.176h-0.035c-0.502 0.969-1.243 1.348-2.354 1.348-2.544 0-3.423-2.37-3.423-4.55 0-2.268 0.861-4.638 3.526-4.638 0.847 0 1.575 0.363 2.112 0.898v-3.754h3.425v11.871h-3.251z"/>
		<path d="m150.05 126.36c-0.829 0.088-2.218 0.347-2.218 1.42 0 0.571 0.366 0.813 0.903 0.813 1.294 0 1.314-1.09 1.314-2.058v-0.175zm0.296 4.137c-0.086-0.397-0.121-0.812-0.121-1.228-0.693 1.021-1.679 1.399-2.89 1.399-1.646 0-3.083-0.896-3.083-2.666 0-1.398 1.092-2.336 2.319-2.714 1.126-0.346 2.32-0.486 3.479-0.555v-0.068c0-0.798-0.206-1.107-1.037-1.107-0.675 0-1.244 0.242-1.353 0.986l-3.147-0.293c0.521-2.198 2.615-2.771 4.604-2.771 1.036 0 2.37 0.137 3.236 0.762 1.161 0.812 1.021 1.955 1.021 3.219v3.097c0 0.656 0.02 1.316 0.275 1.938h-3.303z"/>
		<polygon points="154.83 130.5 154.83 118.63 158.25 118.63 158.25 130.5"/>
		<path d="m165.23 130.5v-1.455h-0.034c-0.364 1.145-1.539 1.627-2.683 1.627-0.727 0-1.437-0.172-1.972-0.674-0.624-0.623-0.695-1.4-0.695-2.231v-6.109h3.429v5.347c0 0.57-0.018 1.177 0.76 1.177 0.348 0 0.676-0.188 0.833-0.501 0.154-0.295 0.17-0.607 0.17-0.935v-5.088h3.43v8.843h-3.238z"/>
		<path d="m178.64 127.18c-0.312 2.282-1.938 3.494-4.187 3.494-1.284 0-2.319-0.293-3.253-1.212-0.901-0.898-1.318-2.093-1.318-3.354 0-2.667 1.835-4.62 4.552-4.62 2.181 0 3.911 1.279 4.172 3.494l-3.028 0.259-0.018-0.086c-0.123-0.604-0.259-1.298-1.021-1.298-1.09 0-1.09 1.438-1.09 2.215 0 0.832 0.018 2.181 1.142 2.181 0.743 0 1.021-0.676 1.107-1.314z"/>
		<path d="m183.12 130.5h-3.463v-8.843h3.463zm-3.962-11.041 4.012-1.695 0.591 1.695-4.153 1.179z"/>
		<path d="m190.2 126.36c-0.83 0.088-2.212 0.347-2.212 1.42 0 0.571 0.363 0.813 0.899 0.813 1.297 0 1.312-1.09 1.312-2.058v-0.175zm0.296 4.137c-0.087-0.397-0.121-0.812-0.121-1.228-0.692 1.021-1.679 1.399-2.89 1.399-1.643 0-3.081-0.896-3.081-2.666 0-1.398 1.092-2.336 2.322-2.714 1.122-0.346 2.316-0.486 3.474-0.555v-0.068c0-0.798-0.206-1.107-1.035-1.107-0.677 0-1.247 0.242-1.352 0.986l-3.151-0.293c0.522-2.198 2.615-2.771 4.605-2.771 1.037 0 2.371 0.137 3.234 0.762 1.161 0.812 1.02 1.955 1.02 3.219v3.097c0 0.656 0.021 1.316 0.279 1.938h-3.304z"/>
		<path d="m14.438 132.33c0.816-3.411 2.592-5.812 6.387-5.524l1.296 0.097v8.597c-0.577-0.143-1.2-0.24-1.827-0.24-1.534 0-3.121 0.287-3.889 1.682-0.672 1.198-0.672 2.786-0.672 4.222v10.665h-9.506v-24.54h8.115v5.043h0.096z"/>
		<path d="m39.6 140.35c-2.304 0.24-6.148 0.959-6.148 3.938 0 1.585 1.011 2.255 2.502 2.255 3.598 0 3.646-3.025 3.646-5.713zm0.817 11.474c-0.239-1.104-0.335-2.254-0.335-3.41-1.922 2.838-4.66 3.89-8.021 3.89-4.563 0-8.547-2.494-8.547-7.394 0-3.89 3.027-6.48 6.437-7.538 3.118-0.961 6.435-1.344 9.649-1.536v-0.191c0-2.212-0.576-3.073-2.88-3.073-1.873 0-3.457 0.671-3.746 2.734l-8.738-0.814c1.438-6.1 7.249-7.685 12.773-7.685 2.88 0 6.578 0.386 8.979 2.113 3.215 2.258 2.833 5.426 2.833 8.932v8.597c0 1.824 0.049 3.647 0.769 5.376h-9.173z"/>
		<path d="m62.171 151.82h-9.507v-24.536h9.507zm0-26.888h-9.507v-6.532h9.507z"/>
		<polygon points="71.247 135.06 73.361 135.06 73.361 152.06 71.247 152.06"/>
		<path d="m79.04 141.8h0.051c0.713-1.56 2.115-2.651 3.886-2.651 1.501 0 2.754 0.642 3.54 1.957 0.641 1.064 0.591 2.75 0.591 3.988v6.965h-1.918v-7.78c0-0.744 0.022-1.688-0.346-2.329-0.416-0.721-1.327-1.14-2.138-1.14-1.009 0-1.92 0.47-2.585 1.262-0.81 0.992-0.981 2.13-0.981 3.395v6.593h-1.919v-12.589h1.818v2.329z"/>
		<path d="m96.083 141.01h-2.901v11.052h-1.916v-11.052h-2.213v-1.537h2.213c-0.103-2.65 0.812-4.955 3.834-4.657l1.725 0.173v1.562c-0.52-0.1-1.036-0.197-1.576-0.197-2.116 0-2.092 1.536-2.066 3.12h2.901v1.536z"/>
		<path d="m105.63 148.89c0.517-0.991 0.616-2.131 0.616-3.221 0-1.187-0.148-2.429-0.788-3.444-0.591-0.915-1.624-1.486-2.706-1.486-1.203 0-2.287 0.693-2.827 1.785-0.469 0.917-0.615 2.129-0.615 3.146 0 1.142 0.173 2.452 0.713 3.443 0.543 0.966 1.598 1.586 2.729 1.586 1.278-2e-3 2.287-0.668 2.878-1.809zm-8.459-3.221c0-3.494 1.967-6.516 5.73-6.516 3.663 0 5.482 3.223 5.482 6.54 0 3.521-2.016 6.616-5.805 6.616-3.737 1e-3 -5.407-3.322-5.407-6.64z"/>
		<path d="m112.95 139.47v2.948h0.05c0.591-1.709 1.646-3.295 3.664-3.295l0.711 0.049v1.86h-0.391c-1.475 0-2.509 0.717-3.223 1.981-0.516 0.916-0.614 1.709-0.614 2.699v6.346h-1.92v-12.589h1.723z"/>
		<path d="m121.54 139.47v2.429h0.052c0.64-1.511 1.992-2.75 3.738-2.75 1.82 0 3.124 1.239 3.517 2.997 0.688-1.732 2.113-2.997 4.034-2.997 1.278 0 2.507 0.717 3.146 1.809 0.616 1.041 0.592 2.431 0.592 3.593v7.509h-1.921v-7.509c0-0.843 0.051-1.733-0.343-2.504-0.419-0.817-1.23-1.312-2.088-1.312-0.963 0-1.848 0.595-2.414 1.412-0.711 1.015-0.69 1.934-0.69 3.124v6.789h-1.917v-7.979c0-0.695-0.047-1.513-0.419-2.131-0.439-0.744-1.253-1.215-2.089-1.215-0.86 0-1.745 0.571-2.261 1.239-0.641 0.816-0.764 1.834-0.764 2.875v7.211h-1.919v-12.589h1.746z"/>
		<path d="m148.37 145.72h-1.6c-1.969 0-5.064 0.274-5.064 2.873 0 1.563 1.326 2.209 2.706 2.209 2.358 0 3.958-2.035 3.958-4.264zm0-1.458v-0.548c0-2.206-0.958-3.047-3.174-3.047-1.571 0-3.076 0.495-3.417 2.229l-1.796-0.299c0.345-2.624 3.1-3.442 5.387-3.442 1.353 0 2.901 0.149 3.835 1.239 1.033 1.113 1.033 2.7 1.033 4.138v4.88c0 0.916 0.025 1.833 0.271 2.653h-1.917l-0.222-2.356c-0.884 1.81-2.387 2.603-4.377 2.603-2.337 0-4.355-1.313-4.355-3.815 0-1.512 0.936-2.874 2.312-3.494 1.403-0.669 3.246-0.74 4.796-0.74h1.624z"/>
		<path d="m162.53 147.9c-0.446 2.553-2.139 4.411-4.821 4.411-3.711 0-5.312-3.245-5.312-6.542 0-3.271 1.625-6.614 5.337-6.614 2.706 0 4.378 1.759 4.796 4.361l-1.771 0.321c-0.172-1.661-1.181-3.045-2.977-3.045-2.606 0-3.346 2.748-3.346 4.854 0 2.031 0.618 5.006 3.223 5.006 1.871 0 2.78-1.362 3.1-3.072z"/>
		<path d="m167.28 152.06h-1.92v-12.589h1.92zm0.098-14.819h-2.115v-2.179h2.115z"/>
			<path d="m173.43 138.26-0.488-0.991 4.939-2.946 0.838 1.608zm5.289 10.629c0.516-0.991 0.611-2.131 0.611-3.221 0-1.187-0.145-2.429-0.785-3.444-0.588-0.915-1.622-1.486-2.705-1.486-1.205 0-2.288 0.693-2.826 1.785-0.47 0.917-0.616 2.129-0.616 3.146 0 1.142 0.171 2.452 0.715 3.443 0.537 0.966 1.596 1.586 2.728 1.586 1.277-2e-3 2.286-0.668 2.878-1.809zm-8.46-3.221c0-3.494 1.968-6.516 5.729-6.516 3.665 0 5.482 3.223 5.482 6.54 0 3.521-2.014 6.616-5.804 6.616-3.737 1e-3 -5.407-3.322-5.407-6.64z"/>
			<path d="m186.07 141.8h0.049c0.713-1.56 2.116-2.651 3.885-2.651 1.5 0 2.754 0.642 3.542 1.957 0.64 1.064 0.589 2.75 0.589 3.988v6.965h-1.917v-7.78c0-0.744 0.022-1.688-0.342-2.329-0.421-0.721-1.331-1.14-2.144-1.14-1.006 0-1.917 0.47-2.58 1.262-0.812 0.992-0.983 2.13-0.983 3.395v6.593h-1.92v-12.589h1.821z"/>
	</g><g transform="matrix(4.2574 0 0 4.2574 -26.511 -40.356)">
		<path d="m120 51.051c-5.591-14.037-19.361-13.498-19.361-13.498-11.331 0-20.515 9.188-20.515 20.519s9.184 20.515 20.515 20.515c0 0 13.771 0.543 19.361-13.495l-9.45-4.316c-2.423 7.852-9.911 7.556-9.911 7.556-5.663 0-10.256-4.595-10.256-10.259 0-5.666 4.593-10.258 10.256-10.258 0 0 7.488-0.298 9.911 7.558z" fill="#f60"/>
		<path d="m95.512 9.479h10.257v23.214s-5.129-1.222-10.257 0z" fill="#247d45"/>
		<path d="m105.77 106.66h-10.257v-23.216s5.128 1.227 10.257 0z" fill="#247d45"/>
		<path d="m52.048 63.198v-10.259h23.216s-1.221 5.132 0 10.259z" fill="#247d45"/>
		<path d="m149.23 52.939v10.259h-23.218s1.227-5.127 0-10.259z" fill="#247d45"/>
		<path d="m131.38 20.083 7.25 7.253-16.416 16.418s-2.763-4.492-7.254-7.255z" fill="#247d45"/>
		<path d="m69.907 96.059-7.253-7.257 16.418-16.416s2.757 4.495 7.251 7.253z" fill="#247d45"/>
		<path d="m62.654 27.336 7.253-7.253 16.416 16.416s-4.494 2.763-7.251 7.255z" fill="#247d45"/>
		<path d="m138.63 88.802-7.25 7.257-16.42-16.42s4.491-2.758 7.254-7.253z" fill="#247d45"/>
	</g>
</svg>
