<svg version="1.1" viewBox="0 0 143.53 174.62" xml:space="preserve" xmlns="http://www.w3.org/2000/svg"><g transform="matrix(1.3333 0 0 -1.3333 -54.047 257.39)"><path d="m52.471 85.396c-5.7978 0-8.9768 3.0493-10.463 6.0215-1.4861 2.9722-1.4727 5.9141-1.4727 5.9141v83.773c0 5.7978 3.0493 8.9768 6.0215 10.463s5.9141 1.4727 5.9141 1.4727h83.773c5.7983 0 8.9786-3.0493 10.465-6.0215 1.4862-2.9722 1.4727-5.9141 1.4727-5.9141v-83.773c0-5.7979-3.051-8.9788-6.0234-10.465-2.9724-1.4861-5.9141-1.4707-5.9141-1.4707z" color="#000000" color-rendering="auto" dominant-baseline="auto" fill="#fff" image-rendering="auto" shape-rendering="auto" solid-color="#000000" style="font-feature-settings:normal;font-variant-alternates:normal;font-variant-caps:normal;font-variant-ligatures:normal;font-variant-numeric:normal;font-variant-position:normal;isolation:auto;mix-blend-mode:normal;shape-padding:0;text-decoration-color:#000000;text-decoration-line:none;text-decoration-style:solid;text-indent:0;text-orientation:mixed;text-transform:none;white-space:normal"/><path transform="matrix(.75 0 0 -.75 40.536 193.04)" d="m15.912 2.7188s-3.3535 0.018568-6.668 1.6758c-3.3144 1.6572-6.5273 4.6953-6.5273 11.52v111.7s0.020518 3.3574 1.6777 6.6719c1.6572 3.3144 4.6934 6.5234 11.518 6.5234h111.7s3.3571-0.0165 6.6719-1.6738c3.3148-1.6572 6.5254-4.6973 6.5254-11.521v-111.7s-0.0204-3.3555-1.6777-6.6699c-1.6574-3.3144-4.6946-6.5254-11.52-6.5254z" fill="#e30613"/><g fill="#fff"><path d="m121.27 173.28c-0.785-0.13-1.552-0.367-2.301-0.713-1.199-0.553-2.276-1.343-3.233-2.368-0.887-0.934-1.559-1.985-2.014-3.155-0.455-1.169-0.682-2.428-0.682-3.776 0-1.291 0.25-2.556 0.752-3.795 0.501-1.238 1.195-2.324 2.082-3.258 0.934-0.979 1.988-1.72 3.164-2.221 1.175-0.501 2.46-0.752 3.854-0.752 1.36 0 2.642 0.274 3.846 0.821s2.291 1.351 3.259 2.412c0.84 0.921 1.495 1.999 1.961 3.232 0.18 0.476 0.325 0.957 0.436 1.443-0.01 0-0.02-3e-3 -0.03-3e-3 -0.48 0-0.868 0.389-0.868 0.868-3e-3 3.106-0.971 5.625-2.601 7.369-1.632 1.743-3.941 2.754-6.803 2.759-0.479 0-0.869 0.388-0.869 0.867 0 0.095 0.019 0.185 0.047 0.27m1.588-3.289c1.786 0 3.275-0.628 4.468-1.884 1.192-1.256 1.789-2.846 1.789-4.77 0-1.913-0.597-3.506-1.789-4.78-1.193-1.273-2.671-1.91-4.434-1.91-1.797 0-3.298 0.634-4.503 1.902-1.204 1.267-1.806 2.852-1.806 4.753 0 1.913 0.602 3.506 1.806 4.779 1.205 1.274 2.694 1.91 4.469 1.91"/><path d="m133.96 174.57c2.435-2.606 3.79-6.285 3.787-10.563h-1e-3c0-0.592-0.48-1.071-1.07-1.071-0.593 0-1.072 0.479-1.072 1.071-4e-3 3.835-1.198 6.945-3.211 9.099-2.016 2.151-4.866 3.4-8.4 3.405-0.592 0-1.073 0.48-1.073 1.072 0 0.593 0.481 1.071 1.073 1.071h0.027c4.034 0 7.516-1.481 9.94-4.084"/><path d="m130.78 171.33c1.916-2.051 2.982-4.945 2.98-8.312h-1e-3c0-0.466-0.377-0.843-0.842-0.843-0.466 0-0.843 0.377-0.843 0.843-3e-3 3.018-0.943 5.465-2.527 7.16-1.586 1.693-3.829 2.675-6.61 2.68-0.465 0-0.844 0.377-0.844 0.842 0 0.467 0.379 0.844 0.844 0.844h0.021c3.175 0 5.915-1.166 7.822-3.214"/><path d="m58.342 164.36c0 1.751 0.331 3.022 0.994 3.811 0.662 0.79 1.76 1.242 3.293 1.357v3.578c-0.968-0.011-1.818-0.222-2.55-0.631s-1.38-1.034-1.944-1.875v2.195h-3.215v-19.013h3.422z"/><path d="m68.394 168.06c1.273 1.267 2.809 1.901 4.606 1.901 1.752 0 3.264-0.665 4.538-1.996 1.273-1.331 1.91-2.93 1.91-4.797 0-1.751-0.643-3.281-1.928-4.589s-2.768-1.962-4.45-1.962c-1.844 0-3.403 0.651-4.676 1.953-1.273 1.303-1.91 2.916-1.91 4.84 0 1.833 0.637 3.382 1.91 4.65m14.338-14.277v19.013h-3.457v-2.299c-0.899 0.934-1.896 1.631-2.991 2.092-1.094 0.46-2.292 0.691-3.595 0.691-1.452 0-2.745-0.239-3.88-0.717-1.135-0.479-2.181-1.219-3.137-2.221-0.876-0.911-1.55-1.965-2.023-3.164-0.472-1.198-0.708-2.466-0.708-3.802 0-2.87 0.944-5.258 2.834-7.165s4.264-2.861 7.122-2.861c1.221 0 2.37 0.234 3.448 0.7 1.078 0.467 2.054 1.156 2.93 2.066v-2.333z"/><path d="m89.982 168.06c1.273 1.267 2.809 1.901 4.606 1.901 1.752 0 3.264-0.665 4.538-1.996 1.273-1.331 1.91-2.93 1.91-4.797 0-1.751-0.643-3.281-1.927-4.589-1.286-1.308-2.769-1.962-4.452-1.962-1.843 0-3.402 0.651-4.675 1.953-1.273 1.303-1.91 2.916-1.91 4.84 0 1.833 0.637 3.382 1.91 4.65m14.338-14.277v25.167h-3.423v-8.453c-0.922 0.934-1.933 1.631-3.033 2.092-1.101 0.46-2.296 0.691-3.587 0.691-1.452 0-2.745-0.239-3.88-0.717-1.136-0.479-2.181-1.219-3.138-2.221-0.875-0.911-1.549-1.965-2.022-3.164-0.472-1.198-0.709-2.466-0.709-3.802 0-2.87 0.945-5.258 2.835-7.165s4.264-2.861 7.122-2.861c1.221 0 2.37 0.234 3.448 0.7 1.077 0.467 2.054 1.156 2.93 2.066v-2.333z"/><path d="m110.68 178.95h-3.388v-3.924h3.388zm0-6.154h-3.388v-19.014h3.388z"/><path d="m68.555 129.83v8.342h7.196c3.12 0 4.457-1.656 4.457-4.203 0-2.101-1.592-4.139-4.457-4.139zm-14.264-18.466c0-6.113 2.675-8.724 8.342-8.724h16.238c11.716 0 17.192 5.986 17.192 13.5 0 5.667-2.865 10.124-8.469 11.143v0.127c4.84 1.274 6.496 4.712 6.496 9.489 0 6.112-3.885 11.589-16.238 11.589h-15.219c-5.667 0-8.342-2.611-8.342-8.724zm14.264 1.592v8.851h7.323c3.566 0 5.922-1.401 5.922-4.394 0-2.992-2.356-4.457-5.922-4.457z"/><path d="m114.17 113.34v0.127l11.525 7.26c5.668 3.565 8.342 7.386 8.342 12.735 0 7.068-4.712 14.455-18.275 14.455-11.335 0-17.32-6.496-17.32-12.608 0-3.63 1.655-6.177 6.24-6.177 7.196 0 3.438 8.851 10.698 8.851 3.438 0 5.54-2.038 5.54-5.158 0-2.611-1.147-4.394-4.267-6.559l-6.049-4.203c-11.717-8.15-12.672-10.188-12.672-14.136 0-2.738 2.038-5.285 5.413-5.285h25.98c3.821 0 5.413 1.974 5.413 5.349s-1.592 5.349-5.413 5.349z"/></g><path d="m51.376 89.589s-2.753-0.289-2.463-3.042l2.31-21.985s0.29-2.753 3.042-2.463l85.58 8.994s2.753 0.29 2.463 3.042l-2.31 21.985s-0.289 2.753-3.042 2.464z" fill="#ffed00"/><path d="m58.221 72.409c-0.587 0.072-1.268 0.179-1.326 0.731-0.058 0.551 0.365 0.986 1.203 1.074 1.687 0.177 1.657-1.019 2.495-0.931 0.441 0.046 0.8 0.351 0.752 0.804-0.111 1.059-1.86 1.677-3.272 1.529-1.532-0.161-3.095-0.994-2.91-2.759 0.09-0.849 0.483-1.722 2.17-1.968l2.094-0.304c0.634-0.09 0.826-0.426 0.859-0.746 0.056-0.53-0.408-1.102-1.345-1.201-1.831-0.192-1.728 1.268-2.71 1.165-0.441-0.046-0.728-0.389-0.682-0.83 0.091-0.86 1.237-1.899 3.531-1.658 2.183 0.229 3.152 1.413 3.001 2.846-0.097 0.927-0.62 1.864-2.313 2.065zm4.408-1.733c0.177-1.687 1.243-2.813 3.228-2.604 1.655 0.174 2.347 1.227 2.272 1.933-0.033 0.32-0.329 0.59-0.737 0.547-0.849-0.089-0.498-1.1-1.623-1.219-0.882-0.092-1.425 0.509-1.53 1.512-0.153 1.456 0.541 1.964 1.169 2.03 1.158 0.121 0.982-0.856 1.743-0.776 0.408 0.043 0.726 0.311 0.677 0.774-0.079 0.749-1.162 1.405-2.508 1.264-1.974-0.208-2.886-1.608-2.691-3.461m6.452-1.451c0.045-0.43 0.261-0.787 0.89-0.721 0.628 0.066 0.765 0.46 0.72 0.89l-0.279 2.657c-0.085 0.806 0.528 1.338 1.091 1.398 0.694 0.072 1.063-0.357 1.131-1.008l0.296-2.812c0.045-0.43 0.261-0.786 0.889-0.72 0.629 0.066 0.766 0.459 0.721 0.889l-0.329 3.132c-0.172 1.632-1.282 2.006-2.252 1.904-0.915-0.096-1.433-0.585-1.708-1.038l-0.022-2e-3 -0.233 2.216c-0.056 0.53-0.405 0.772-0.89 0.721s-0.776-0.36-0.721-0.89zm6.826 0.717c0.056-0.529 0.405-0.771 0.89-0.72 0.485 0.05 0.776 0.36 0.721 0.889l-0.696 6.617c-0.056 0.529-0.405 0.772-0.89 0.721-0.485-0.052-0.776-0.361-0.72-0.89zm7.948 4.47c-0.121 1.158-1.243 1.542-2.787 1.38-1.654-0.174-2.473-1.085-2.405-1.725 0.034-0.331 0.34-0.588 0.748-0.545 0.64 0.067 0.58 0.953 1.771 1.078 0.54 0.056 1.036-0.092 1.084-0.556 0.049-0.463-0.251-0.583-0.632-0.668l-0.97-0.213c-1.22-0.274-2.195-0.755-2.055-2.089 0.107-1.015 1.077-1.549 1.993-1.453 0.849 0.089 1.551 0.409 2.107 1.17 0.074-0.494 0.352-0.911 1.046-0.838 0.386 0.04 0.702 0.33 0.663 0.694-0.026 0.254-0.208 0.39-0.279 1.063zm-1.381-2.342c0.062-0.595-0.418-1.225-1.3-1.318-0.551-0.058-0.924 0.204-0.963 0.568-0.051 0.485 0.291 0.733 0.953 0.903l0.576 0.149c0.184 0.053 0.509 0.143 0.668 0.327zm4.281 1.275c-0.104 0.993 0.135 1.788 1.172 1.897 0.75 0.078 1.245-0.393 1.369-1.563 0.12-1.146-0.382-1.679-1.099-1.754-0.914-0.096-1.365 0.682-1.442 1.42m3.855 2.68c-0.052 0.497-0.311 0.737-0.808 0.685-0.474-0.05-0.7-0.342-0.648-0.838l0.021-0.198-0.022-3e-3c-0.36 0.565-1.016 0.864-1.799 0.782-1.356-0.143-2.422-1.247-2.203-3.332 0.167-1.588 1.165-2.598 2.863-2.42 0.64 0.068 1.231 0.487 1.474 0.936l0.022 2e-3 0.035-0.331c0.133-1.268-0.212-1.806-1.193-1.909-0.905-0.095-1.124 0.718-1.797 0.647-0.353-0.037-0.631-0.356-0.589-0.753 0.082-0.783 1.342-1.208 2.566-1.079 1.676 0.176 2.774 1.195 2.569 3.135zm6.556-1.908c0.54 0.056 0.69 0.217 0.633 0.768-0.139 1.324-1.336 2.525-3.189 2.33-1.908-0.201-2.911-1.577-2.715-3.452 0.148-1.401 1.157-2.833 3.407-2.596 0.97 0.101 2.478 0.717 2.376 1.688-0.032 0.297-0.342 0.599-0.728 0.559-0.651-0.069-0.567-0.863-1.781-0.99-0.937-0.099-1.553 0.461-1.643 1.31zm-3.737 0.543c0.094 0.802 0.528 1.349 1.333 1.433 0.716 0.076 1.325-0.407 1.49-1.136zm5.769-2.27c0.045-0.43 0.261-0.787 0.89-0.721 0.629 0.067 0.765 0.46 0.72 0.89l-0.197 1.875c-0.14 1.334 0.165 1.824 0.816 1.892l0.287 0.03c0.397 0.042 0.772 0.293 0.709 0.889-0.047 0.452-0.457 0.743-0.964 0.69-0.783-0.082-1.074-0.815-1.191-1.508l-0.022-2e-3 -0.065 0.617c-0.051 0.486-0.399 0.716-0.807 0.674-0.408-0.043-0.7-0.342-0.649-0.827zm4.159 3.615c-0.496-0.052-0.872-0.293-0.813-0.855s0.476-0.719 0.973-0.667l1.819 0.191c0.497 0.052 0.873 0.292 0.814 0.855-0.059 0.562-0.477 0.719-0.973 0.667zm4.312-2.625c0.057-0.54 0.448-0.866 0.999-0.809 0.552 0.058 0.866 0.459 0.81 1l-0.245 2.327 1.786 0.187c0.993 0.105 1.306-0.431 1.452-1.821 0.034-0.319 0.211-1.271 1.204-1.166 0.419 0.044 0.819 0.376 0.775 0.795-0.04 0.375-0.318 0.691-0.414 1.606-0.085 0.805-0.321 1.461-1.261 1.496l-2e-3 0.022c0.839 0.289 1.257 1.191 1.166 2.051-0.107 1.026-0.805 2.146-2.955 1.92l-3.011-0.317c-0.64-0.067-1.032-0.365-0.948-1.17zm1.2 5.98 1.864 0.196c0.794 0.084 1.335-0.082 1.425-0.931 0.093-0.894-0.572-1.142-1.256-1.214l-1.808-0.19zm11.754-1.083c-0.121 1.157-1.243 1.542-2.787 1.379-1.654-0.173-2.473-1.085-2.405-1.724 0.034-0.331 0.34-0.589 0.748-0.546 0.64 0.067 0.58 0.953 1.771 1.078 0.541 0.057 1.035-0.092 1.084-0.555s-0.25-0.584-0.632-0.669l-0.97-0.213c-1.22-0.273-2.195-0.755-2.055-2.089 0.107-1.015 1.077-1.549 1.992-1.452 0.85 0.089 1.552 0.408 2.108 1.169 0.074-0.494 0.352-0.911 1.047-0.837 0.385 0.04 0.701 0.33 0.662 0.694-0.026 0.253-0.208 0.39-0.279 1.063zm-1.381-2.342c0.062-0.596-0.418-1.226-1.3-1.319-0.552-0.057-0.925 0.204-0.963 0.568-0.051 0.485 0.291 0.733 0.953 0.903l0.576 0.15c0.183 0.053 0.508 0.142 0.668 0.327zm7.912 6.083c-0.056 0.53-0.405 0.771-0.89 0.72-0.485-0.05-0.776-0.36-0.72-0.889l0.229-2.184-0.022-2e-3c-0.374 0.485-0.957 0.724-1.674 0.649-1.698-0.178-2.329-1.705-2.167-3.249 0.219-2.085 1.502-2.942 2.848-2.801 0.783 0.083 1.399 0.482 1.592 1.194l0.022 2e-3 0.026-0.254c0.052-0.496 0.334-0.734 0.808-0.684 0.496 0.052 0.7 0.341 0.648 0.837zm-3.628-4.841c-0.079 0.75 0.066 1.813 1.092 1.921 0.98 0.114 1.391-0.824 1.478-1.651 0.096-0.915-0.169-1.791-1.106-1.889-0.863-0.068-1.364 0.671-1.464 1.619m5.691-1.632c0.045-0.43 0.261-0.786 0.889-0.72 0.629 0.066 0.766 0.459 0.721 0.889l-0.467 4.445c-0.045 0.43-0.261 0.786-0.89 0.72s-0.765-0.46-0.72-0.89zm-0.73 6.625c0.049-0.464 0.463-0.799 0.926-0.751 0.464 0.049 0.799 0.464 0.75 0.927-0.048 0.463-0.463 0.798-0.926 0.749-0.463-0.048-0.799-0.462-0.75-0.925m4.841-3.941c-0.11 1.048 0.238 1.876 1.175 1.975 0.937 0.098 1.45-0.639 1.56-1.687 0.103-0.982-0.215-1.885-1.174-1.985-0.959-0.102-1.458 0.716-1.561 1.697m-1.61-0.169c0.169-1.61 1.101-2.95 3.296-2.72 2.194 0.231 2.828 1.736 2.659 3.346-0.179 1.698-1.354 2.913-3.295 2.709s-2.839-1.637-2.66-3.335"/><path d="m54.347 78.491c0.096-0.909 0.599-1.146 1.322-1.07l2.453 0.258c2.728 0.286 4.138 2.097 3.839 4.937-0.369 3.513-2.514 4.27-4.744 4.035l-2.491-0.262c-0.723-0.075-1.166-0.412-1.07-1.321zm1.399 6.343 1.706 0.18c1.495 0.156 2.28-0.844 2.466-2.613 0.146-1.382-0.224-2.895-1.856-3.066l-1.719-0.181zm13.306-3.06c0.61 0.064 0.78 0.246 0.714 0.869-0.157 1.494-1.508 2.851-3.601 2.631-2.155-0.226-3.289-1.781-3.066-3.899 0.166-1.582 1.306-3.2 3.847-2.933 1.096 0.116 2.799 0.811 2.684 1.907-0.036 0.336-0.386 0.677-0.822 0.631-0.735-0.077-0.641-0.974-2.011-1.117-1.059-0.112-1.755 0.52-1.856 1.479zm-4.221 0.615c0.106 0.905 0.596 1.523 1.505 1.619 0.81 0.085 1.496-0.46 1.684-1.284zm12.055 3.093c-0.051 0.486-0.295 0.888-1.005 0.814-0.71-0.075-0.865-0.52-0.814-1.005l0.316-3.002c0.095-0.91-0.597-1.512-1.232-1.578-0.785-0.083-1.201 0.402-1.279 1.137l-0.333 3.177c-0.052 0.485-0.295 0.888-1.005 0.813-0.71-0.074-0.865-0.518-0.814-1.004l0.372-3.538c0.193-1.844 1.447-2.266 2.543-2.151 1.034 0.109 1.644 0.652 2.085 1.378l0.024 3e-3 0.025-0.237c0.058-0.548 0.345-0.883 0.918-0.823 0.573 0.061 0.784 0.448 0.727 0.996zm2.371-4.109c0.113-1.071 0.718-1.561 2.039-1.422 0.872 0.091 1.29 0.425 1.235 0.948-0.041 0.386-0.301 0.585-0.699 0.543l-0.262-0.027c-0.324-0.034-0.489 0.1-0.518 0.374l-0.382 3.637 0.548 0.058c0.536 0.056 0.805 0.248 0.759 0.684s-0.349 0.568-0.885 0.512l-0.548-0.058-0.116 1.109c-0.063 0.598-0.457 0.871-1.005 0.813-0.548-0.057-0.877-0.407-0.814-1.005l0.117-1.108-0.312-0.033c-0.511-0.054-0.701-0.275-0.659-0.674 0.041-0.398 0.274-0.576 0.785-0.522l0.311 0.033zm3.514 3.594c0.128-1.221 0.996-1.571 2.082-1.721l1.099-0.149c0.665-0.094 1.071-0.126 1.12-0.588 0.039-0.373-0.342-0.703-0.989-0.771-1.346-0.141-1.538 0.972-2.323 0.89-0.511-0.054-0.697-0.439-0.655-0.838 0.094-0.896 1.541-1.487 3.186-1.315 1.37 0.145 2.73 0.98 2.575 2.463-0.134 1.27-1.413 1.576-2.471 1.705l-0.779 0.094c-0.574 0.065-0.995 0.122-1.04 0.546-0.04 0.386 0.352 0.604 0.988 0.67 1.146 0.12 1.259-0.711 1.969-0.637 0.473 0.05 0.72 0.454 0.676 0.877-0.088 0.835-1.541 1.236-2.924 1.091-1.258-0.132-2.67-0.835-2.514-2.317m6.786-0.824c0.201-1.905 1.405-3.176 3.647-2.941 1.868 0.196 2.65 1.387 2.566 2.184-0.038 0.361-0.372 0.666-0.833 0.618-0.959-0.101-0.562-1.243-1.832-1.377-0.997-0.104-1.61 0.575-1.729 1.708-0.173 1.644 0.611 2.218 1.32 2.292 1.308 0.138 1.11-0.966 1.969-0.876 0.461 0.048 0.82 0.351 0.765 0.874-0.089 0.847-1.313 1.587-2.833 1.427-2.23-0.234-3.26-1.815-3.04-3.909m7.288-1.639c0.051-0.486 0.295-0.888 1.005-0.814 0.71 0.075 0.865 0.52 0.814 1.005l-0.316 3.002c-0.095 0.91 0.597 1.511 1.232 1.578 0.785 0.083 1.201-0.403 1.279-1.138l0.334-3.176c0.051-0.486 0.294-0.888 1.004-0.814 0.71 0.075 0.865 0.519 0.814 1.005l-0.372 3.538c-0.194 1.843-1.447 2.266-2.543 2.15-1.034-0.108-1.618-0.661-1.93-1.172l-0.025-2e-3 -0.263 2.503c-0.062 0.598-0.457 0.872-1.005 0.814-0.548-0.057-0.876-0.407-0.814-1.005zm7.711 0.811c0.062-0.598 0.456-0.872 1.005-0.814 0.547 0.058 0.876 0.407 0.813 1.005l-0.785 7.474c-0.064 0.597-0.457 0.871-1.005 0.813-0.548-0.057-0.877-0.407-0.814-1.005zm8.977 5.049c-0.137 1.308-1.404 1.741-3.148 1.558-1.869-0.196-2.793-1.225-2.717-1.948 0.039-0.373 0.384-0.665 0.845-0.616 0.723 0.076 0.655 1.076 2 1.218 0.611 0.064 1.17-0.104 1.225-0.627 0.055-0.524-0.283-0.66-0.714-0.756l-1.095-0.241c-1.378-0.308-2.48-0.852-2.321-2.359 0.12-1.147 1.216-1.749 2.25-1.64 0.959 0.1 1.752 0.461 2.38 1.32 0.084-0.558 0.398-1.028 1.182-0.946 0.436 0.046 0.792 0.373 0.749 0.784-0.03 0.286-0.235 0.441-0.315 1.201zm-1.56-2.645c0.07-0.673-0.472-1.385-1.469-1.489-0.622-0.066-1.044 0.23-1.087 0.641-0.058 0.548 0.328 0.828 1.076 1.02l0.65 0.169c0.208 0.059 0.575 0.161 0.755 0.369zm3.556-1.251c0.051-0.486 0.295-0.888 1.005-0.814 0.71 0.075 0.865 0.519 0.814 1.005l-0.315 3.002c-0.096 0.91 0.597 1.511 1.231 1.578 0.786 0.083 1.202-0.403 1.279-1.138l0.334-3.176c0.051-0.486 0.295-0.888 1.005-0.814 0.71 0.075 0.865 0.519 0.814 1.005l-0.372 3.538c-0.194 1.843-1.448 2.266-2.544 2.15-1.034-0.108-1.644-0.651-2.084-1.377l-0.025-3e-3 -0.025 0.237c-0.058 0.548-0.344 0.883-0.918 0.823-0.573-0.061-0.784-0.448-0.726-0.996zm12.992 8.922c-0.063 0.598-0.457 0.871-1.005 0.813-0.548-0.057-0.877-0.406-0.814-1.004l0.259-2.467-0.025-2e-3c-0.422 0.547-1.081 0.818-1.89 0.733-1.919-0.201-2.631-1.927-2.448-3.67 0.247-2.355 1.696-3.323 3.216-3.163 0.885 0.093 1.581 0.543 1.798 1.347l0.025 3e-3 0.03-0.287c0.059-0.56 0.377-0.829 0.913-0.773 0.56 0.059 0.791 0.386 0.731 0.946zm-4.098-5.468c-0.089 0.847 0.074 2.048 1.233 2.169 1.107 0.129 1.571-0.93 1.669-1.864 0.109-1.034-0.19-2.023-1.249-2.134-0.974-0.077-1.54 0.757-1.653 1.829m5.632 2.015c0.128-1.221 0.996-1.571 2.082-1.721l1.099-0.149c0.665-0.094 1.071-0.127 1.12-0.588 0.039-0.373-0.342-0.703-0.99-0.771-1.345-0.141-1.537 0.972-2.322 0.889-0.511-0.054-0.697-0.438-0.655-0.837 0.094-0.897 1.541-1.487 3.186-1.315 1.37 0.144 2.73 0.98 2.575 2.462-0.134 1.271-1.413 1.577-2.472 1.705l-0.778 0.095c-0.574 0.065-0.995 0.122-1.04 0.546-0.04 0.386 0.352 0.603 0.988 0.67 1.146 0.12 1.259-0.712 1.969-0.637 0.473 0.05 0.72 0.453 0.676 0.877-0.088 0.835-1.541 1.236-2.924 1.09-1.258-0.132-2.67-0.834-2.514-2.316"/></g></svg>
