<svg enable-background="new 0 0 800 300" version="1.1" viewBox="0 0 800 300" xml:space="preserve" xmlns="http://www.w3.org/2000/svg">
<g transform="scale(6.25)">
	<path d="M0,0h73v48H0V0z" fill="#A5FF00"/>
	<path d="M80,0h48v48H80V0z" fill="#A5FF00"/>
	<path d="m123.1 7.3-7.9 34.5h-9.9l7-29.3c0.5-3.1 3.4-5.2 6.7-5.3l4.1 0.1z"/>
	<path d="m95.7 12.5 7 29.3h-9.9l-8-34.5h4.1c3.4 0 6.2 2.1 6.8 5.2"/>
	<path d="M64,13v2.5c0,0.7-0.2,1-0.9,1H54v4.9h8.3c0.7,0,0.9,0.3,0.9,1v2.5c0,0.7-0.2,1-0.9,1H54V34c0,0.7-0.2,1-0.9,1h-3.2   c-0.7,0-0.9-0.3-0.9-1V13c0-0.7,0.2-1,0.9-1h13.2C63.8,12,64,12.2,64,13"/>
	<path d="m45.8 33.8c0.6 0.9 0 1.2-0.5 1.2h-3.8c-0.8 0-1.1-0.3-1.5-0.9l-4.1-7.7c-0.2-0.4-0.3-0.7-0.3-1.1 0-0.1 0-0.4 0.1-0.8l0.3-1.5c0.3-1.4 0.7-0.9 1.7-1.3 0.8-0.4 1.6-0.9 1.6-2.8 0-2-1-2.8-3.1-2.8h-3.2v17.9c0 0.7-0.2 1-0.9 1h-3.2c-0.7 0-0.9-0.3-0.9-1v-21c0-0.7 0.2-1 0.9-1h7.7c5.3 0 7.7 2.5 7.7 7 0 3.5-1.9 5-3.6 6.2l5.1 8.6z"/>
	<path d="m22.6 12.3c0.4 0.1 0.7 0.3 0.6 0.8l-0.4 2.6c-0.1 0.8-0.4 0.9-1.3 0.8s-3-0.2-5.1-0.2c-1.6 0-3.2 0.3-3.2 2.2 0 1.3 0.8 1.9 2.5 2.3l2.5 0.7c4.5 1.2 5.8 3.5 5.8 6.5 0 5.2-4 7-9.4 7-2.4 0-4.9-0.2-5.9-0.3-0.4-0.1-0.7-0.3-0.6-0.8l0.4-2.7c0.1-0.8 0.4-0.9 1.3-0.8s3.4 0.3 4.8 0.3c3.2 0 4.5-0.4 4.5-2.3 0-1.3-0.9-2-3-2.5l-2.5-0.7c-3.3-0.9-5.2-3-5.2-6.6 0-4 2.7-6.5 8.4-6.5 2.6-0.1 4.8 0.1 5.8 0.2"/>
</g>
</svg>
