<svg width="1625.1pt" height="486.17pt" version="1.1" viewBox="0 0 1625.1 486.17" xmlns="http://www.w3.org/2000/svg">
 <path d="m49.98 0.006725c71.76-0.24 143.84 5.92 213.81 22.31 45.4 10.7 89.78 25.98 131.76 46.36 49.76 24.37 97.21 53.73 140.29 88.64 14.96 11.95 29.93 23.92 44.07 36.85 16.8 14.17 32.83 29.22 48.61 44.51 5.05 5.02 10.29 9.87 14.9 15.31l-50.66 102.52c-11.76-9.87-21.7-21.69-32.87-32.2-7.85-7.55-15.89-14.91-24.39-21.73-12.4-10.58-24.31-21.73-37.07-31.89-29.63-24.21-60.82-46.56-93.58-66.35-16.88-10.01-33.76-20.11-51.54-28.44-17.44-7.47-34.32-16.21-52.08-22.9-22.58-8.54-45.49-16.26-68.85-22.39-75.69-19.96-154.27-26.86-232.38-27.01z" fill="#0074bd"/>
 <path d="m40.18 182.41c68.74-0.16 138.2 7.56 203.45 30.04 55.35 18.77 106.58 48.45 152.29 84.67 14.73 11.55 29.32 23.31 42.92 36.18 12.46 11.63 25.41 22.76 37.08 35.2l-36.53 75.81c-8.66-6.83-15.57-15.55-23.75-22.91-11.59-10.36-22.74-21.22-34.73-31.13-28.6-23.64-58.54-45.84-90.83-64.21-39.51-22.64-82.17-39.81-126.42-50.58-52.32-12.94-106.39-17.06-160.15-17.34z" fill="#0074bd"/>
 <path d="m32.559 293.19 7.3111 0.0913c36.33-0.14 72.78 3.45 108.09 12.19 37.84 9.4 74.56 24.18 107.3 45.49 25.56 16.49 50.5 34.33 72.16 55.79 8.35 7.95 17.8 14.89 24.87 24.08l-27.12 55.34c-7.3-6.07-13.29-13.52-20.51-19.66-7.17-6.13-13.58-13.08-20.92-19.01-28.01-23.17-57.88-44.5-90.72-60.31-58.19-28.2-123.62-38.02-187.8-37.8z" fill="#0074bd"/>
 <path d="m721.4 202.55c28.36-23.33 66.07-33.67 102.44-31.4 22.32 1.43 44.46 9.08 62.08 23.04 20.72 16.25 34.41 40.38 40.15 65.89 5.04 21.29 5.14 44.03 4.98 65.78h-178.37c0.75965 6.3602 3.01 11.48 5.84 16.72 4.28 7.95 9.9 15.39 17.41 20.54 22.12 15.42 54.64 13.81 74.89-4.11 5.59-4.5 9.68-10.48 14.81-15.43l53.54 39.68c-5.83 8.76-14.37 15.19-22.67 21.44-16.16 12.11-35.05 20.35-54.72 24.73-13.39 3.07-27.22 2.83-40.86 2.29-20.19-1.38-39.98-7.27-57.96-16.49-11.46-5.96-22.3-13.39-31.04-22.97-12.4-13.04-22.63-28.34-28.62-45.37-7.18-20.01-8.23-41.72-6.18-62.72 3.33-31.63 19.54-61.62 44.28-81.62m49.16 36.35c-10.48 8.51-16.92 21.475-18.03 34.875h100.99c0.21-5.97-0.16-12.065-2.39-17.665-6.29-16.4-22.76-27.89-40.08-29.44-14.36-1.06-29.31 2.99-40.49 12.23z" fill="#2b2a28"/>
 <path d="m998.13 195.43c27.34-18.42 61.14-26.4 93.88-24.1 19.81 1.45 39.47 6.85 56.7 16.87 7.96 4.68 16.24 9.47 22.1 16.79l-51 52.97c-6.68-5.98-12.7-13.27-21.5-16.17-16.16-5.53-34.72-3.29-49.43 5.26-10.58 6.19-18.98 15.95-23.55 27.32-3.84 9.09-4.77 19.07-4.46 28.86-0.53 12.43 3.08 24.84 9.5 35.44 7.41 12.63 20.91 20.82 34.97 24 9.68 1.97 19.97 2.8 29.51-0.3 9.64-3.06 18.73-8.64 24.87-16.79l51.07 53.52c-5.41 6.47-12.77 10.84-19.91 15.14-18.39 10.94-39.62 16.93-61 17.51-16.99 0.93-34.21-0.27-50.58-5.12-19.02-5.49-37.22-14.45-52.41-27.24-9.44-8.33-17.83-17.91-24.53-28.58-10.51-16.71-15.95-36.13-18.51-55.56-1.13-7.66-0.44-15.38 0.38-23.03 0.98-38.47 22.27-75.23 53.9-96.79z" fill="#2b2a28"/>
 <path d="m1214.2 195.41c27.34-18.42 61.14-26.4 93.88-24.1 19.81 1.45 39.47 6.85 56.7 16.87 7.96 4.68 16.24 9.47 22.1 16.79l-51 52.97c-6.68-5.98-12.7-13.27-21.5-16.17-16.16-5.53-34.72-3.29-49.43 5.26-10.58 6.19-18.98 15.95-23.55 27.32-3.84 9.09-4.77 19.07-4.46 28.86-0.53 12.43 3.08 24.84 9.5 35.44 7.41 12.63 20.91 20.82 34.97 24 9.68 1.97 19.97 2.8 29.51-0.3 9.64-3.06 18.73-8.64 24.87-16.79l51.07 53.52c-5.41 6.47-12.77 10.84-19.91 15.14-18.39 10.94-39.62 16.93-61 17.51-16.99 0.93-34.21-0.27-50.58-5.12-19.02-5.49-37.22-14.45-52.41-27.24-9.44-8.33-17.83-17.91-24.53-28.58-10.51-16.71-15.95-36.13-18.51-55.56-1.13-7.66-0.44-15.38 0.38-23.03 0.98-38.47 22.27-75.23 53.9-96.79z" fill="#2b2a28"/>
 <path d="m1440.6 185.9c21.07-9.6 44.15-14.59 67.29-15.03 19.16-0.25 38.67 1.27 56.88 7.61 13.73 4.77 26.48 12.88 35.72 24.22 11.63 14.06 17.67 31.83 20.9 49.57 4.6 24.71 3.61 49.95 3.71 74.95v99.24h-70.75v-32.09c-3.98 3.15-6.09 8.02-9.79 11.45-10.03 11.03-23.74 17.89-37.82 22.22-11.91 3.56-24.46 3.96-36.8 3.95-19.57-0.08-39.32-6-54.99-17.89-12.18-9.17-21.63-22.12-25.86-36.83-3.23-10.72-3.4-22.11-2.3-33.17 1.52-14.35 7.16-28.43 17.01-39.1 12.37-13.62 29.62-21.62 47.03-26.67 33.61-9.49 68.88-10.28 103.58-10.52-0.12-8.42-2.4-16.9-7.22-23.86-6.11-9.14-15.86-15.48-26.39-18.32-22.71-5.58-47.42 1.39-65.43 15.91-4.44 3.51-8.02 7.95-12.31 11.62l-41.03-41.86c11.11-10.77 24.51-19.02 38.57-25.4m40.42 139.36c-7.91 3.32-15.63 8.62-19.16 16.72-3.46 8.19-2.9 18.44 2.79 25.51 4.75 5.99 12.01 9.41 19.32 11.12 11.66 2.67 24 1.71 35.37-1.85 13.21-4.16 25.88-12.7 31.68-25.68 4.97-10.64 2.9-22.63 3.32-33.96-24.55 0.06-50.1-1.22-73.32 8.14z" fill="#2b2a28"/>
</svg>
