<svg width="800" height="398.93" version="1.1" xml:space="preserve" xmlns="http://www.w3.org/2000/svg"><defs><clipPath id="clipPath3838"><path d="m502.44 26.153h295.51v99.421h-295.51z"/></clipPath></defs><g transform="matrix(1.25 0 0 -1.25 -403.88 670.37)"><g transform="matrix(3.5772 0 0 3.5772 -1877.2 107.29)"><g clip-path="url(#clipPath3838)"><g transform="translate(628.3 118.34)"><path d="m0 0h152.45c6.429 0 11.639-5.21 11.639-11.638v-62.755c0-6.428-5.21-11.64-11.639-11.64h-152.45c-6.428 0-11.638 5.212-11.638 11.64v62.755c0 6.428 5.21 11.638 11.638 11.638" fill="#fff"/><path d="m0 0h152.45c6.429 0 11.639-5.21 11.639-11.638v-62.755c0-6.428-5.21-11.64-11.639-11.64h-152.45c-6.428 0-11.638 5.212-11.638 11.64v62.755c0 6.428 5.21 11.638 11.638 11.638z" fill="none" stroke="#000" stroke-miterlimit="3.864" stroke-width="3.183"/></g><g transform="translate(648.93 102.82)"><path d="m0 0v5.848h-13.319c-4.845 0-8.743-3.899-8.743-8.745v-26.127h5.847v26.127c0 1.633 1.264 2.897 2.896 2.897z"/><path d="m0 0v5.848h-13.319c-4.845 0-8.743-3.899-8.743-8.745v-26.127h5.847v26.127c0 1.633 1.264 2.897 2.896 2.897z" fill="none" stroke="#000" stroke-miterlimit="3.864" stroke-width=".021"/></g><path d="m733.55 73.799h5.848v34.872h-5.848z"/><g transform="translate(733.55 73.799)"><path d="m0 0h5.848v34.872h-5.848z" fill="none" stroke="#000" stroke-miterlimit="3.864" stroke-width=".021"/></g><g transform="translate(773.5 102.82)"><path d="m0 0c1.633 0 2.897-1.264 2.897-2.897v-17.382c0-1.632-1.264-2.897-2.897-2.897h-17.382c-1.634 0-2.896 1.265-2.896 2.897v17.382c0 1.633 1.262 2.897 2.896 2.897zm-17.382 5.848c-4.845 0-8.744-3.899-8.744-8.745v-17.382c0-4.846 3.899-8.745 8.744-8.745h17.382c4.845 0 8.745 3.899 8.745 8.745v17.382c0 4.846-3.9 8.745-8.745 8.745z" fill="none" stroke="#000" stroke-miterlimit="3.864" stroke-width=".021"/></g><g transform="translate(693.67 73.796)"><path d="m0 0h23.259c4.848 0 8.745 3.897 8.745 8.742v17.383c0 4.845-3.897 8.745-8.745 8.745h-23.259zm5.846 5.848v23.176h17.413c1.635 0 2.899-1.266 2.899-2.899v-17.383c0-1.631-1.264-2.894-2.899-2.894z" fill-rule="evenodd"/><path d="m0 0h23.259c4.848 0 8.745 3.897 8.745 8.742v17.383c0 4.845-3.897 8.745-8.745 8.745h-23.259zm5.846 5.848v23.176h17.413c1.635 0 2.899-1.266 2.899-2.899v-17.383c0-1.631-1.264-2.894-2.899-2.894z" fill="none" stroke="#000" stroke-miterlimit="3.864" stroke-width=".021"/></g><g transform="translate(680.12 95.902)"><path d="m0 0h-19.878c-4.846 0-8.744-3.951-8.744-8.745v-4.614c0-4.845 3.898-8.739 8.744-8.739 0 0 22.317-5e-3 25.728 0v26.121c0 4.846-3.901 8.746-8.747 8.746h-23.643v-5.849h23.643c1.634 0 2.897-1.265 2.897-2.897zm0-5.794s-3e-3 -9.329 2e-3 -10.457c-1.133-5e-3 -19.88 0-19.88 0-1.633 0-2.898 1.26-2.898 2.892v4.614c0 1.685 1.265 2.951 2.898 2.951z" fill-rule="evenodd"/><path d="m0 0h-19.878c-4.846 0-8.744-3.951-8.744-8.745v-4.614c0-4.845 3.898-8.739 8.744-8.739 0 0 22.317-5e-3 25.728 0v26.121c0 4.846-3.901 8.746-8.747 8.746h-23.643v-5.849h23.643c1.634 0 2.897-1.265 2.897-2.897zm0-5.794s-3e-3 -9.329 2e-3 -10.457c-1.133-5e-3 -19.88 0-19.88 0-1.633 0-2.898 1.26-2.898 2.892v4.614c0 1.685 1.265 2.951 2.898 2.951z" fill="none" stroke="#000" stroke-miterlimit="3.864" stroke-width=".021"/></g><path d="m652.11 48.316h3.698v17.827h-3.698z" fill="#c31622"/><g transform="translate(652.11 48.316)"><path d="m0 0h3.698v17.827h-3.698z" fill="none" stroke="#c31622" stroke-miterlimit="3.864" stroke-width=".022"/></g><g transform="translate(670.58 48.316)"><path d="m0 0h9.532v3.712h-9.411c-0.835 0-1.156 0.442-1.156 1.277v12.838h-3.64v-13.354c0-2.479 2.198-4.473 4.675-4.473" fill="#c31622"/><path d="m0 0h9.532v3.712h-9.411c-0.835 0-1.156 0.442-1.156 1.277v12.838h-3.64v-13.354c0-2.479 2.198-4.473 4.675-4.473z" fill="none" stroke="#c31622" stroke-miterlimit="3.864" stroke-width=".022"/></g><g transform="translate(722.05 48.316)"><path d="m0 0v14.146h7.031v3.681h-17.818v-3.681h7.107v-14.146z" fill="#c31622"/><path d="m0 0v14.146h7.031v3.681h-17.818v-3.681h7.107v-14.146z" fill="none" stroke="#c31622" stroke-miterlimit="3.864" stroke-width=".022"/></g><g transform="translate(750.7 66.144)"><path d="m0 0v-12.873c0-0.836-0.442-1.277-1.277-1.277h-7.915c-0.833 0-1.276 0.441-1.276 1.277v12.873h-3.65v-13.355c0-2.478 2.197-4.472 4.673-4.472h8.481c2.477 0 4.674 1.994 4.674 4.472v13.355z" fill="#c31622"/><path d="m0 0v-12.873c0-0.836-0.442-1.277-1.277-1.277h-7.915c-0.833 0-1.276 0.441-1.276 1.277v12.873h-3.65v-13.355c0-2.478 2.197-4.472 4.673-4.472h8.481c2.477 0 4.674 1.994 4.674 4.472v13.355z" fill="none" stroke="#c31622" stroke-miterlimit="3.864" stroke-width=".022"/></g><g transform="translate(640.01 55.516)"><path d="m0 0c2.477 0 4.674 1.969 4.674 4.473v1.686c0 2.476-2.197 4.469-4.674 4.469h-13.154v-17.829h3.663v7.201zm-9.491 6.959h9.28c0.781 0 1.183-0.402 1.183-1.183v-0.912c0-0.807-0.402-1.208-1.183-1.208h-9.28z" fill="#c31622" fill-rule="evenodd"/><path d="m0 0c2.477 0 4.674 1.969 4.674 4.473v1.686c0 2.476-2.197 4.469-4.674 4.469h-13.154v-17.829h3.663v7.201zm-9.491 6.959h9.28c0.781 0 1.183-0.402 1.183-1.183v-0.912c0-0.807-0.402-1.208-1.183-1.208h-9.28z" fill="none" stroke="#c31622" stroke-miterlimit="3.864" stroke-width=".022"/></g><g transform="translate(700.6 59.644)"><path d="m0 0h-9.137c-2.477 0-4.674-2.021-4.674-4.469v-2.386c0-2.478 2.197-4.472 4.674-4.472h12.793v13.358c0 2.477-2.197 4.469-4.673 4.469l-11.766-1e-3v-3.68l11.744 3e-3c0.835 0 1.039-0.646 1.039-1.482zm0-3.698v-3.993h-9.039c-0.727 0-1.086 0.359-1.086 1.089v1.793c0 0.752 0.359 1.111 1.086 1.111z" fill="#c31622" fill-rule="evenodd"/><path d="m0 0h-9.137c-2.477 0-4.674-2.021-4.674-4.469v-2.386c0-2.478 2.197-4.472 4.674-4.472h12.793v13.358c0 2.477-2.197 4.469-4.673 4.469l-11.766-1e-3v-3.68l11.744 3e-3c0.835 0 1.039-0.646 1.039-1.482zm0-3.698v-3.993h-9.039c-0.727 0-1.086 0.359-1.086 1.089v1.793c0 0.752 0.359 1.111 1.086 1.111z" fill="none" stroke="#c31622" stroke-miterlimit="3.864" stroke-width=".022"/></g><g transform="translate(773.5 102.82)"><path d="m0 0c1.633 0 2.897-1.264 2.897-2.897v-17.382c0-1.632-1.264-2.897-2.897-2.897h-17.382c-1.634 0-2.896 1.265-2.896 2.897v17.382c0 1.633 1.262 2.897 2.896 2.897zm-17.382 5.848c-4.845 0-8.744-3.899-8.744-8.745v-17.382c0-4.846 3.899-8.745 8.744-8.745h17.382c4.845 0 8.745 3.899 8.745 8.745v17.382c0 4.846-3.9 8.745-8.745 8.745z" fill-rule="evenodd"/></g><g transform="translate(776.85 55.924)"><path d="m0 0c0.835 0 1.277-0.441 1.277-1.305v-1.385c0-0.834-0.442-1.279-1.277-1.279h-7.825c-0.837 0-1.277 0.649-1.277 1.482h-3.586v-0.648c0-2.479 2.197-4.473 4.675-4.473h8.291c2.478 0 4.676 1.994 4.676 4.473v2.316c0 2.45-2.198 4.469-4.676 4.469h-8.417c-0.835 0-1.075 0.648-1.075 1.508v-0.064c0 0.835 0.24 1.48 1.075 1.48h8.163c0.834 0 1.073-0.645 1.073-1.48h3.666v0.657c0 2.477-2.007 4.469-4.485 4.469h-8.479c-2.479 0-4.674-1.992-4.674-4.469v-1.278c0-2.505 2.195-4.473 4.674-4.473z" fill="#c31622" fill-rule="evenodd"/><path d="m0 0c0.835 0 1.277-0.441 1.277-1.305v-1.385c0-0.834-0.442-1.279-1.277-1.279h-7.825c-0.837 0-1.277 0.649-1.277 1.482h-3.586v-0.648c0-2.479 2.197-4.473 4.675-4.473h8.291c2.478 0 4.676 1.994 4.676 4.473v2.316c0 2.45-2.198 4.469-4.676 4.469h-8.417c-0.835 0-1.075 0.648-1.075 1.508v-0.064c0 0.835 0.24 1.48 1.075 1.48h8.163c0.834 0 1.073-0.645 1.073-1.48h3.666v0.657c0 2.477-2.007 4.469-4.485 4.469h-8.479c-2.479 0-4.674-1.992-4.674-4.469v-1.278c0-2.505 2.195-4.473 4.674-4.473z" fill="none" stroke="#c31622" stroke-miterlimit="3.864" stroke-width=".022"/></g></g></g></g></svg>
