<svg id="b" version="1.0" viewBox="0 0 110 90" xmlns="http://www.w3.org/2000/svg">
 <defs id="c">
  <linearGradient id="a" x1="2.3315" x2="107.67" y1="44.243" y2="44.243" gradientUnits="userSpaceOnUse">
   <stop id="d" stop-color="#9a213d" offset="0"/>
   <stop id="e" stop-color="#f20408" offset="1"/>
  </linearGradient>
 </defs>
 <g id="f" fill="url(#a)" fill-rule="evenodd">
  <path id="g" d="m6.7017 33.723c-0.94516 0.0018-2.3527 0.19146-3.4688 1.2188-0.72412 0.66654-0.69474 1.4824-0.875 2.25v32.906c-0.01194 0.06295-0.37681 2.8946 2.0312 3.7812 0.59571 0.21934 2.2484 0.49535 3.375 0.46875 3.6162-0.08537 3.5764-0.88142 4-1.0938 1.0296-0.51605 1.0938-3.2812 1.0938-3.2812v-19s0.37812-1.6828 1.0312-3c0.42134-0.8497 1.1102-1.4689 1.3438-1.625 1.1375-0.93616 2.2505-1.6518 3.75-1.875 1.1303-0.31268 2.9242 0.31341 4.625-0.78125 1.3007-0.83717 1.1992-1.6415 1.5938-4.5625s-0.48625-4.957-1.7188-5.125c-2.4994-0.49386-7.4306 0.66563-9.6562 2.4375-0.62768 0.23675-2 2.083-2 1.2812-0.22623-0.60334-0.88872-2.7562-1.8438-3.2812-1.1395-0.62647-1.9482-0.603-2.25-0.625-0.07204-0.0052-0.46415-0.09485-1.0312-0.09375zm43.562 0c-1.6738 0.06714-3.3353 0.41717-4.9688 0.78125-0.93792 0.20905-1.8863 0.45751-2.7188 0.9375-0.99416 0.57323-2.5938 2.25-2.5938 2.25s-0.91469 0.07964-1.2188-0.1875c-0.57456-0.50479-0.13522-1.6589-0.65625-2.2188-0.97095-1.0433-2.4535-1.4279-3.875-1.5312-1.1109-0.08081-3.2259 0.60446-3.8438 1.5312-0.4436 0.6654-0.9375 2-0.9375 2v31.875s-0.23242 2.4982 1.3438 4.4688c0.767 0.95893 2.3042 1.0158 3.5312 1.0625 1.5434 0.05873 3.7681 0.16332 4.5-1 1.3109-2.0837 1.1562-4.5312 1.1562-4.5312v-21.344s0.51032-1.6114 1.375-2.3438c0.82726-0.70065 2.5698-1.5814 3.5938-1.9375 0.95105-0.33079 2.0014-0.50456 3-0.375 0.80877 0.10494 1.6443 0.36012 2.25 0.90625 0.48643 0.4386 1.0039 1.0941 1.2812 1.6875 0.30345 0.64924 0.46875 2.0625 0.46875 2.0625l0.0625 21.344s0.01232 3.3158 1 4.3125c1.1133 1.1235 3.076 1.2845 4.6562 1.2188 1.2686-0.05277 2.3757 0.20073 3.7812-1.5938 0.91501-1.1682 1.0598-3.9076 1-3.9375v-21.344s-0.19308-3.7949-0.59375-5.6562c-0.23337-1.0842-0.55679-2.2318-1.0625-3.2188-0.41071-0.80159-1.0013-1.5067-1.6562-2.125-0.76507-0.72218-1.6406-1.3359-2.5938-1.7812-1.4381-0.67199-3.0114-1.1551-4.5938-1.2812-0.55608-0.04434-1.1296-0.05363-1.6875-0.03125zm39.562 0-3.875 0.0625c-10.839 0.63932-18.484 12.199-18.312 24.688 3e-3 0.20776 0.03235 1.6905 0.03125 1.8125-0.12199 13.725 6.5006 26.194 22.719 26 1.1502-0.0138 5.5398-0.40825 5.3125-0.40625 5.8247-1.2932 9.5198-2.8876 10.656-7.3438 0.62167-2.4377-0.61275-4.1562-1.9375-4.1562-3.86 0-5.1335 2.8125-11.875 2.8125-7.948 0-13.129-4.7458-13.844-9.25-0.0429-0.2703-0.49999-3.6949-0.5-3.9375 0-0.54525 0.43781-0.99999 1-1 0 0 21.804 4e-3 22-0.03125 4.019-0.72605 5.4556-1.3086 6.1875-4.8125 0.37911-1.815 0.17455-3.0142 0.25-4.2188 0.52983-8.4591-6.1548-20.219-17.812-20.219zm-2.5625 7.5h1.9688c5.0382 0.8256 7.5412 3.8946 8.0625 8.8125 0.0648 1.0553 0.125 3.8438 0.125 3.8438 0 0.48848-0.67428 0.5-1.25 0.5l-17.125-0.03125c-0.52932 0-0.65625-0.83201-0.65625-1.3438 0 0-0.0225-0.52957 0-1.0625 0.25254-5.9696 4.5895-10.435 8.875-10.719z" stroke-opacity="0"/>
  <g id="h" transform="matrix(.16402 0 0 .16402 42.325 41.272)" stroke-width="0">
   <path id="i" d="m-242.42-80.151c-0.0623-0.20487-0.33328-2.6521-0.60215-5.4383s-0.55908-5.4762-0.64491-5.9778l-0.15604-0.91205 5.272-2.3574c2.8996-1.2965 5.3167-2.4952 5.3713-2.6638 0.0546-0.16854 0.30478-13.649 0.55597-29.956s0.52094-31.531 0.59943-33.831l0.14273-4.1814-5.2777-1.6581c-4.1486-1.3034-5.301-1.7773-5.3864-2.2151-0.0598-0.30634-0.0122-3.3892 0.10583-6.8508l0.21454-6.2938 14.049-3.2242c15.77-3.6192 17.682-3.8728 19.117-2.5348 1.2097 1.1279 1.6163 2.1334 2.0543 5.08 0.22 1.48 0.46964 2.7606 0.55476 2.8457 0.0851 0.0851 2.205-1.204 4.7108-2.8647 5.3327-3.5342 10.195-5.9982 13.537-6.8598 3.9474-1.0177 9.827-0.75689 13.375 0.59337l0.85955 0.32712-0.21859 11.241c-0.12022 6.1826-0.25564 11.28-0.30093 11.328-0.0453 0.0479-2.0544 0.42121-4.4646 0.82967-17.228 2.9197-21.686 5.5816-23.914 14.281-0.49354 1.9274-0.53413 4.0662-0.53413 28.146v26.061l5.2845 2.2682c2.9065 1.2475 5.3713 2.355 5.4774 2.4611s-0.0462 3.0136-0.33848 6.4612l-0.53141 6.2682h-24.399c-19.26 0-24.423-0.07845-24.512-0.37248z"/>
   <path id="j" d="m-141.72-80.096c-4.7508-0.63635-9.2283-2.3054-13.106-4.8852-6.7971-4.5226-11.574-11.616-13.142-19.513-0.61347-3.0904-0.45177-11.479 0.30192-15.661 1.4571-8.0864 5.0342-14.523 10.53-18.946 8.5125-6.8523 20.786-10.211 39.816-10.896l5.6272-0.20246-0.16115-4.0488c-0.24945-6.2676-1.1801-9.6576-3.4924-12.722-3.6919-4.8921-11.055-6.2131-22.134-3.9712-3.1646 0.6404-10.836 2.6836-15.536 4.1379-1.6236 0.50238-3.0025 0.86289-3.0643 0.80113-0.23009-0.23009-6.6335-19.675-6.5174-19.791 0.2543-0.25431 8.8653-2.8019 13.279-3.9285 19.401-4.9526 33.719-5.4134 44.333-1.4268 8.2427 3.0961 13.842 9.23 16.282 17.836 0.93424 3.2954 1.3157 6.0948 1.5265 11.202 0.17334 4.2008 1.3301 56.618 1.3301 60.272v2.0169l9.9825 3.2284 0.0802 6.6196c0.0566 4.6722-0.01643 6.6196-0.24825 6.6196-0.18065 0-5.8487 0.74058-12.596 1.6457-6.7469 0.90515-13.22 1.6526-14.384 1.661-4.3272 0.03123-6.0982-1.6941-6.9887-6.8081-0.2069-1.1882-0.51107-2.1604-0.67594-2.1604-0.16486 0-1.272 0.60596-2.4602 1.3466-2.8225 1.7592-8.2399 4.3328-11.541 5.4826-5.3036 1.8475-12.379 2.7158-17.041 2.0913zm13.707-17.569c4.1781-0.5879 10.354-3.1758 14.268-5.9784l1.674-1.1987v-5.2994c0-2.9147 0.0889-7.9547 0.19762-11.2l0.19762-5.9006-5.9339 0.16778c-6.6546 0.18816-10.32 0.71013-14.263 2.0313-3.3758 1.131-5.3336 2.2464-7.1248 4.0592-2.8378 2.8721-3.8181 6.2673-3.2119 11.125 0.76136 6.1007 2.6796 9.4834 6.3986 11.284 2.2784 1.103 4.5479 1.368 7.7975 0.91078z"/>
   <path id="k" d="m-34.687-76.85c-14.234-1.4725-23.369-11.2-27.232-28.999-1.5543-7.1618-1.8221-10.536-1.8206-22.945 0.0013-11.806 0.26548-16.409 1.3578-23.664 2.7559-18.304 9.6844-29.445 21.223-34.126 5.4825-2.2245 9.6478-2.8473 17.497-2.6162 6.0158 0.17711 10.084 0.76511 16.949 2.4495 2.2307 0.54736 4.0946 0.95645 4.142 0.90909 0.047353-0.0473 0.11509-4.5484 0.15054-10.002l0.064437-9.9162-2.6115-0.69541c-3.7504-0.99868-5.4104-1.7953-6.7348-3.2321-1.4685-1.5931-1.5701-2.2569-1.2976-8.475l0.21433-4.8899 2.0859-0.7112c6.2628-2.1353 15.061-4.3522 22.724-5.7259 4.5843-0.82178 13.494-1.898 13.733-1.6588 0.10732 0.10723 0.34948 28.779 0.53812 63.716s0.35626 65.079 0.37248 66.983l0.0295 3.4618 2.6074 0.97587c3.8147 1.4277 5.8981 2.5449 6.6098 3.5445 0.8506 1.1946 1.1603 3.2378 1.2724 8.3948l0.09441 4.3434-8.6444 0.81964c-15.356 1.456-21.439 1.9441-22.201 1.7812-2.0537-0.4389-2.9211-1.5313-4.3485-5.4769-0.4447-1.2292-0.89581-2.3357-1.0025-2.4589-0.10666-0.12322-1.8773 0.50195-3.9348 1.3893-12.126 5.2293-23.565 7.6819-31.838 6.8261zm20.859-24.483c2.8754-0.83664 5.7582-2.022 9.0141-3.7066l2.9054-1.5032 0.067047-26.77c0.036876-14.723 0.070399-27.939 0.074497-29.367l0.00745-2.5969-2.3839-0.67238c-7.8199-2.2056-15.074-2.9887-19.04-2.0553-4.1646 0.97994-7.321 3.419-9.3174 7.1997-1.5822 2.9964-3.3472 10.194-4.4886 18.303-0.75523 5.3658-0.734 19.155 0.03602 23.392 1.881 10.35 6.0402 16.288 12.73 18.174 2.1302 0.60048 7.6979 0.38766 10.396-0.39738z"/>
  </g>
  <path id="l" d="m50.562 28.239c-0.02336-0.1355-0.27044-2.1324-0.26472-2.1394 0.0045-0.0056 0.43767-0.18951 0.96258-0.40878l0.95438-0.39868 0.02424-1.6085c0.01333-0.88466 0.03167-3.3489 0.04075-5.476l0.01651-3.8675-1.6505-0.65295v-1.1113c0-1.0228 0.0057-1.1131 0.07132-1.1333 0.42452-0.13083 3.0677-0.68795 3.9632-0.83535 0.71267-0.11731 1.8452-0.24849 2.1452-0.24849h0.13692l0.0022 14.936 0.92606 0.38273c0.50933 0.2105 0.94155 0.39655 0.9605 0.41344 0.02935 0.02617-0.04263 1.1571-0.12246 1.9241l-0.02439 0.23433h-4.07c-2.2385 0-4.0708-0.0046-4.0718-0.01019z"/>
  <path id="m" d="m53.926 8.8331c-0.95519-0.20998-1.8065-0.97223-2.1177-1.8962-0.15233-0.45224-0.18752-1.1008-0.084802-1.5625 0.28718-1.2908 1.457-2.2242 2.7934-2.229 0.49796-0.00177 0.88731 0.089007 1.3019 0.30352 0.59213 0.30637 0.99395 0.71512 1.2895 1.3117 0.23762 0.47969 0.31629 0.85621 0.28951 1.3856-0.03821 0.75528-0.30632 1.3575-0.84354 1.8947-0.5483 0.5483-1.1477 0.81096-1.9151 0.83913-0.28833 0.010579-0.52095-0.00474-0.71317-0.046999z"/>
  <path id="n" d="m67.435 28.628c-1.6529-0.27937-3.0189-0.97826-4.1785-2.1379-1.1698-1.1698-1.8876-2.5929-2.1384-4.2397-0.07352-0.4827-0.08071-0.74426-0.08096-2.943-3.28e-4 -2.6002 0.01781-2.9 0.22459-3.7206 0.62242-2.4701 2.4278-4.448 4.8489-5.3124 0.78734-0.28111 1.5389-0.4044 2.4859-0.40784 0.77595-0.00282 1.155 0.039462 1.8339 0.20457 2.7114 0.65944 4.8569 2.7793 5.5416 5.4755 0.23866 0.93978 0.2448 1.0332 0.24506 3.7289 1.64e-4 2.2147-0.0079 2.5348-0.07402 2.9342-0.28872 1.7428-0.96723 3.0855-2.1639 4.2822-1.1818 1.1818-2.5113 1.8582-4.2007 2.1371-0.6363 0.10504-1.7186 0.10459-2.3433-9.85e-4zm1.6479-3.4271c0.11067-0.0215 0.31557-0.09539 0.45533-0.1642 1.0173-0.5008 1.7502-1.7604 1.9312-3.319 0.03194-0.27506 0.04158-1.0701 0.03012-2.483-0.01584-1.9523-0.02226-2.1025-0.10573-2.4755-0.41241-1.8429-1.5053-3.009-2.8161-3.0048-0.60292 2e-3 -1.0791 0.19989-1.559 0.64806-0.7741 0.72293-1.2274 1.7798-1.3392 3.1226-0.06949 0.83441-0.0281 4.0398 0.05847 4.5286 0.2544 1.4363 0.94682 2.5131 1.9225 2.9898 0.4642 0.22681 0.84729 0.26922 1.4224 0.15746z"/>
  <path id="o" d="m93.895 25.819v-2.889h-10.914l8e-3 -2.3072c0.0044-1.2689 0.0316-2.391 0.06043-2.4935 0.02884-0.10249 2.5434-3.4158 5.588-7.3629l5.5356-7.1765h4.6172v15.649h3.3704v3.6914h-3.3704v5.778h-4.8952v-2.889zm0-11.484v-4.9038l-1.8705 2.4763c-3.4063 4.5096-5.4322 7.2239-5.4322 7.278 0 0.02936 1.6431 0.05337 3.6513 0.05337h3.6513v-4.9038z"/>
  <path id="p" d="m20.891 6.9131c-1.9002-0.90447-3.4647-1.6541-3.4766-1.6658-0.01186-0.011735 0.33552-0.71425 0.77196-1.5611 0.57953-1.1245 0.81884-1.5254 0.88736-1.4863 0.0516 0.029434 1.5715 1.0312 3.3776 2.2262 1.9731 1.3055 3.2707 2.2075 3.2511 2.2599-0.04674 0.12473-1.2781 1.8679-1.3208 1.8699-0.01959 9.043e-4 -1.5904-0.73837-3.4906-1.6428z"/>
 </g>
</svg>
