<?xml version="1.0" encoding="UTF-8"?>
<!-- Created with Inkscape (http://www.inkscape.org/) -->
<svg id="svg2" width="800" height="791.61" version="1.1" viewBox="0 0 800 791.61" xml:space="preserve" xmlns="http://www.w3.org/2000/svg" xmlns:cc="http://creativecommons.org/ns#" xmlns:dc="http://purl.org/dc/elements/1.1/" xmlns:rdf="http://www.w3.org/1999/02/22-rdf-syntax-ns#" xmlns:xlink="http://www.w3.org/1999/xlink"><metadata id="metadata8"><rdf:RDF><cc:Work rdf:about=""><dc:format>image/svg+xml</dc:format><dc:type rdf:resource="http://purl.org/dc/dcmitype/StillImage"/><dc:title/></cc:Work></rdf:RDF></metadata><defs id="defs6"><clipPath id="clipPath550"><path id="path548" d="m20.551 798.58h82.913v82.281h-82.913z"/></clipPath></defs><g id="g10" transform="matrix(1.3333 0 0 -1.3333 -27.83 1857.1)"><g id="g544" transform="matrix(7.2647 0 0 7.2647 -130.76 -5006.4)"><g id="g546" clip-path="url(#clipPath550)"><g id="g552" transform="matrix(.33886 0 0 -.3364 87.083 863.54)"><g id="g554" transform="translate(48.343 69.957)"><path id="path556" d="m0 0c0-67.085-54.383-121.47-121.47-121.47-2.077 0-4.142 0.054-6.194 0.157 64.207 3.225 115.27 56.304 115.27 121.31s-51.067 118.09-115.27 121.31c2.052 0.104 4.117 0.157 6.194 0.157 67.086 0 121.47-54.384 121.47-121.47" fill="#065baa"/></g></g><g id="g558" transform="matrix(.33886 0 0 -.3364 87.083 863.54)"><g id="g560" transform="translate(-84.261 -41.021)"><path id="path562" d="m0 0c-61.378 0-111.14 48.665-111.14 108.7 0 1.859 0.049 3.707 0.143 5.543 2.951-57.455 51.515-103.15 110.99-103.15s108.04 45.698 110.99 103.15c0.094-1.836 0.143-3.684 0.143-5.543 0-60.031-49.757-108.7-111.14-108.7" fill="#065baa"/></g></g><g id="g564" transform="matrix(.33886 0 0 -.3364 87.083 863.54)"><g id="g566" transform="translate(-156.36 153.1)"><path id="path568" d="m0 0c39.552 39.552 103.25 39.98 142.28 0.956 1.208-1.209 2.378-2.442 3.511-3.696-39.251 35.448-100.25 33.86-138.58-4.467-38.328-38.327-39.915-99.328-4.467-138.58-1.254 1.133-2.487 2.303-3.696 3.511-39.024 39.024-38.596 102.72 0.956 142.28" fill="#80c342"/></g></g><g id="g570" transform="matrix(.33886 0 0 -.3364 87.083 863.54)"><g id="g572" transform="translate(-135.93 59.037)"><path id="path574" d="m0 0 1.419-0.532c2.839-0.945 5.677-1.419 8.516-1.419 3.251 0 5.38 1.006 6.387 3.015 1.004 2.012 1.508 5.411 1.508 10.201v23.507h9.668v-23.773c0-7.686-1.079-13.201-3.237-16.543-2.16-3.34-6.196-5.012-12.109-5.012-3.725 0-7.776 1.095-12.152 3.282v-20.757h-9.669v62.803h9.669zm41.158-5.278c-2.898 3.519-4.347 9.418-4.347 17.697 0 8.28 1.375 14.237 4.125 17.874 2.75 3.636 7.496 5.455 14.237 5.455 3.016 0 7.51-0.532 13.483-1.597l-0.266-7.717-10.378 0.71c-4.672 0-7.748-1.065-9.225-3.194-1.479-2.129-2.218-5.972-2.218-11.531 0-5.558 0.768-9.343 2.306-11.355 1.537-2.009 4.553-3.015 9.048-3.015 2.247 0 5.706 0.237 10.378 0.709l0.355-7.628-2.217-0.444c-4.258-0.827-7.955-1.242-11.088-1.242-6.564 0-11.296 1.76-14.193 5.278m35.214 46.659c-1.124 1.625-3.756 3.739-7.894 6.342l3.814 7.185c6.15-3.135 10.245-6.091 12.286-8.87 2.04-2.781 3.06-7.068 3.06-12.863v-42.755h-9.58v42.667c0 3.903-0.563 6.666-1.686 8.294m11.266-68.702h-9.58v10.201h9.58zm21.377 19.426v-20.136h-9.58v62.714l3.015 0.267c6.032 0.532 10.437 0.798 13.217 0.798 8.042 0 13.661-1.699 16.854-5.101 3.194-3.4 4.79-9.416 4.79-18.051 0-8.633-1.346-14.65-4.036-18.051-2.691-3.4-7.082-5.101-13.172-5.101-3.313 0-7.008 0.887-11.088 2.661m0 34.684v-26.966l1.419-0.444c2.838-0.887 5.677-1.33 8.515-1.33 3.016 0 5.19 1.079 6.52 3.237 1.331 2.16 1.996 5.899 1.996 11.221 0 5.323-0.784 9.093-2.351 11.31-1.567 2.218-4.716 3.327-9.447 3.327-1.183 0-3.401-0.118-6.652-0.355" fill="#065baa"/></g></g><g id="g576" transform="matrix(.33886 0 0 -.3364 87.083 863.54)"><g id="g578" transform="translate(-126.25 132.27)"><path id="path580" d="m0 0c0.382-0.649 0.648-1.374 0.799-2.176 0.152-0.802 0.227-1.779 0.227-2.931 0-2.266-0.381-3.928-1.144-4.989-0.764-1.059-2.185-1.589-4.264-1.589h-4.678v13.613h4.678c2.171 0 3.632-0.643 4.382-1.928m-1.352-3.041c-0.073 0.557-0.214 1.08-0.424 1.57-0.435 0.968-1.303 1.451-2.606 1.451h-2.487v-9.738h2.487c1.276 0 2.119 0.365 2.527 1.093 0.407 0.729 0.612 1.915 0.612 3.558 0 0.821-0.037 1.51-0.109 2.066m13.471 4.969v-1.948h-6.336v-3.975h5.152v-1.907h-5.152v-3.856h6.336v-1.927h-8.527v13.613zm4.481-13.613h-2.211v9.221c0 1.603 0.414 2.772 1.243 3.507 0.829 0.736 2.07 1.103 3.721 1.103s2.895-0.367 3.731-1.103c0.835-0.735 1.253-1.904 1.253-3.507v-9.221h-2.211v9.26c0 1.763-0.921 2.644-2.763 2.644s-2.763-0.881-2.763-2.644zm13.283 1.967v11.646h2.211v-11.646h3.81v-1.967h-9.87v1.967zm15.712 0.06 0.177-1.789-0.69-0.119c-1.382-0.239-2.58-0.358-3.593-0.358-1.408 0-2.51 0.315-3.306 0.944-0.796 0.63-1.194 1.56-1.194 2.792s0.316 2.134 0.947 2.703c0.632 0.57 1.592 1.017 2.882 1.341 1.29 0.325 2.119 0.623 2.487 0.895 0.368 0.271 0.553 0.692 0.553 1.262 0 1.457-0.816 2.186-2.448 2.186-0.934 0-2.289-0.12-4.066-0.358l-0.217 1.769 0.711 0.139c1.355 0.265 2.592 0.397 3.71 0.397 1.395 0 2.497-0.354 3.307-1.063 0.809-0.709 1.214-1.779 1.214-3.209 0-1.126-0.277-1.951-0.829-2.475-0.553-0.523-1.504-0.973-2.853-1.351s-2.22-0.696-2.615-0.954-0.592-0.692-0.592-1.302c0-1.179 0.835-1.768 2.507-1.768 0.763 0 2.065 0.106 3.908 0.318m11.231 11.367-0.059-1.828c-1.211 0.198-2.408 0.298-3.593 0.298-1.184 0-1.98-0.354-2.388-1.063s-0.612-2.04-0.612-3.995c0-1.954 0.21-3.285 0.632-3.994 0.421-0.709 1.224-1.064 2.408-1.064s2.368 0.107 3.553 0.318l0.079-1.788c-1.408-0.331-2.698-0.497-3.869-0.497-1.961 0-3.296 0.533-4.007 1.6-0.71 1.066-1.066 2.858-1.066 5.375 0 2.518 0.352 4.326 1.056 5.426s2.043 1.649 4.017 1.649c1.211 0 2.493-0.146 3.849-0.437m12.593 0.219v-13.613h-2.211v5.803h-5.842v-5.803h-2.191v13.613h2.191v-5.883h5.842v5.883zm10.678-1.968h-5.388v-11.645h-2.191v13.613h7.579zm2.823 1.968 0.73-2.922h5.191l0.73 2.922h2.211l-3.355-13.613h-4.363l-3.335 13.613zm3.829-11.765 1.658 6.896h-4.323l1.678-6.896zm9.158 11.765v-11.686h0.277l4.204 11.686h3.75v-13.613h-2.191v11.665h-0.296l-4.105-11.665h-3.83v13.613zm20.41-1.928c0.381-0.649 0.648-1.374 0.799-2.176s0.227-1.779 0.227-2.931c0-2.266-0.382-3.928-1.145-4.989-0.763-1.059-2.184-1.589-4.263-1.589h-4.678v13.613h4.678c2.171 0 3.632-0.643 4.382-1.928m-1.352-3.041c-0.073 0.557-0.215 1.08-0.425 1.57-0.434 0.968-1.303 1.451-2.605 1.451h-2.487v-9.738h2.487c1.276 0 2.118 0.365 2.526 1.093 0.408 0.729 0.612 1.915 0.612 3.558 0 0.821-0.036 1.51-0.108 2.066" fill="#80c342"/></g></g><g id="g582" transform="matrix(.33886 0 0 -.3364 87.083 863.54)"><g id="g584" transform="translate(-119.73 40.002)"><path id="path586" d="m0 0 2.167 4.856h2.671l-2.474-5.354c1.634-0.689 2.452-2.003 2.452-3.94 0-2.892-1.693-4.338-5.079-4.338h-5.691v13.632h2.43v-4.856zm1.707-2.597c-0.408 0.458-1.05 0.686-1.926 0.686h-3.305v-4.955h3.261c1.722 0 2.583 0.816 2.583 2.448 0 0.756-0.204 1.363-0.613 1.821m6.852 7.453 0.81-2.926h5.757l0.81 2.926h2.452l-3.721-13.632h-4.838l-3.7 13.632zm4.247-11.782 1.839 6.906h-4.794l1.86-6.906zm17.775 9.851c0.423-0.649 0.718-1.376 0.886-2.179 0.168-0.802 0.252-1.781 0.252-2.935 0-2.269-0.424-3.934-1.27-4.995-0.846-1.062-2.422-1.592-4.728-1.592h-5.188v13.632h5.188c2.408 0 4.028-0.643 4.86-1.931m-1.5-3.044c-0.08 0.557-0.237 1.081-0.471 1.572-0.481 0.968-1.444 1.453-2.889 1.453h-2.758v-9.752h2.758c1.415 0 2.349 0.365 2.802 1.095 0.452 0.729 0.678 1.917 0.678 3.562 0 0.823-0.04 1.512-0.12 2.07m7.913-8.657h-2.43v13.632h2.43zm5.319 6.875c0-1.797 0.256-3.107 0.766-3.93 0.511-0.823 1.452-1.234 2.824-1.234s2.31 0.411 2.813 1.234c0.504 0.823 0.755 2.139 0.755 3.95s-0.244 3.102-0.733 3.871c-0.489 0.77-1.434 1.154-2.835 1.154s-2.349-0.391-2.845-1.174c-0.497-0.782-0.745-2.073-0.745-3.871m9.676 0.01c0-2.414-0.453-4.202-1.357-5.363-0.905-1.161-2.482-1.741-4.729-1.741s-3.827 0.584-4.739 1.751c-0.912 1.168-1.368 2.952-1.368 5.353 0 2.402 0.452 4.163 1.357 5.284s2.488 1.682 4.75 1.682 3.842-0.557 4.74-1.672c0.897-1.114 1.346-2.879 1.346-5.294" fill="#065baa"/></g></g></g></g></g></svg>
