<svg width="800" height="300.17" version="1.1" viewBox="0 0 800 300.17" xml:space="preserve" xmlns="http://www.w3.org/2000/svg"><path class="st0" d="m0 0h456.51v300.17h-456.51z" fill="#fff" stroke-width="6.2535"/><g stroke-width="6.2535"><path class="st1" d="m400.22 81.083v15.659c0 4.4713-1.3007 6.0409-5.6407 6.0409h-56.888v30.417h51.673c4.3399 0 5.6469 1.5696 5.6469 6.0471v15.646c0 4.4712-1.307 6.0409-5.6469 6.0409h-51.673v51.892c0 4.4712-1.3132 6.0409-5.6469 6.0409h-19.98c-4.3399 6e-3 -5.6469-1.5634-5.6469-6.0346v-131.75c0-4.4775 1.307-6.0409 5.6469-6.0409h82.515c4.3399 0 5.6407 1.5634 5.6407 6.0409"/><path class="st1" d="m286.27 211.27c3.4519 5.5844-0.21887 7.598-3.2393 7.598h-23.532c-5.1779 0-6.9039-1.5696-9.0676-5.3655l-25.677-47.877c-1.5134-2.6828-2.1637-4.4712-2.1637-6.7163 0-0.89425 0.21262-2.2325 0.86924-4.9152l2.1574-9.399c1.9386-8.4985 4.1023-5.5906 10.362-8.2671 4.9715-2.2388 9.9243-5.822 9.9243-17.222 0-12.526-6.2598-17.454-19.211-17.454h-20.511v111.17c0 4.4712-1.2882 6.0409-5.6156 6.0409h-19.855c-4.3212 0-5.6094-1.5696-5.6094-6.0409v-131.75c0-4.4775 1.2882-6.0409 5.6156-6.0409h48.133c33.237 0 48.352 15.665 48.352 43.624 0 21.687-11.882 31.536-22.45 38.465z"/><path class="st1" d="m141.07 77.018c2.7891 0.43774 4.2899 1.7572 3.8647 5.0403l-2.5827 16.447c-0.86298 4.8214-2.3513 5.4781-7.9419 5.0403-5.3592-0.43774-18.873-1.5321-32.181-1.5321-9.8743 0-20.168 2.1825-20.168 13.589 0 8.1045 4.9465 11.619 15.665 14.464l15.878 4.1648c28.328 7.4604 36.477 21.712 36.477 40.792 0 32.449-24.889 43.85-59.008 43.85-15.227 0-30.886-1.0944-37.115-1.9698-2.7891-0.444-4.2899-1.7572-3.8647-5.0466l2.5702-16.884c0.86298-4.8214 2.3576-5.4843 7.9482-5.0403 5.3592 0.43775 21.024 1.751 30.029 1.751 19.742 0 27.897-2.195 27.897-14.464 0-8.3359-5.5719-12.282-18.66-15.79l-15.89-4.1648c-20.812-5.4781-32.825-18.854-32.825-41.436 0-24.995 17.153-40.779 52.567-40.779 17.385-0.0063 31.117 1.0881 37.34 1.9699"/></g><g transform="matrix(6.2535,0,0,6.2535,500.28,0)" fill="#fff"><path class="st0" d="M 0,47.928 H 47.928 V 0 H 0 Z" fill="#fff"/></g><path class="st1" d="m610.62 36.72a85.548 85.548 0 0 0-17.461 32.938l47.877 15.684c3.3081-14.727 16.085-25.707 31.375-25.707 17.797 0 32.23 14.871 32.23 33.219s-14.433 33.506-32.23 33.506h-32.23v38.541h15.645v0.0371c23.338 0.8067 42.025 20.554 42.025 44.799a45.519 45.519 0 0 1-7.7363 25.51l71.814-19.875c0.0876-1.8636 0.13267-3.7399 0.13867-5.6348 0-25.533-8.3933-49.04-22.451-67.801 9.5491-13.858 15.184-30.784 15.184-49.082a86.111 86.111 0 0 0-20.574-56.133h-123.61zm-62.512 154.57c-0.97555 5.9971-1.4883 12.157-1.4883 18.441a112.84 112.84 0 0 0 17.373 60.416l71.766-19.861c-14.377-7.0102-24.419-21.912-24.895-39.271h-0.0312v-19.725h-62.725z" clip-rule="evenodd" fill-rule="evenodd" stroke-width="6.2535"/></svg>
