<svg version="1.1" viewBox="0 0 266.4 99.4" xmlns="http://www.w3.org/2000/svg">
 <style>.st0{fill:#731e82}.st1{fill:#82b900}</style>
 <path class="st0" d="m266.4 76c0 12.9-10.4 23.3-23.3 23.3s-23.3-10.4-23.3-23.3 10.4-23.3 23.3-23.3 23.3 10.4 23.3 23.3" fill="#731e82"/>
 <path class="st1" d="m266.4 23.3c0 12.9-10.4 23.3-23.3 23.3s-23.3-10.4-23.3-23.3 10.4-23.3 23.3-23.3 23.3 10.4 23.3 23.3" fill="#82b900"/>
 <path d="m204.5 50.3-1.3-1.2 1.3-1.3c3.5-3.3 7.6-9.1 7.6-17.8 0-17.1-13.7-29.9-31.9-29.9h-0.3c-18.2 0-32 12.9-32 29.9 0 8.7 4.1 14.5 7.6 17.8l1.3 1.3-1.3 1.2c-5.4 5-8.7 12.3-8.7 19.6 0 8.1 3 15.4 8.3 20.6 5.9 5.8 14.5 8.8 24.9 8.8s19-3 24.9-8.8c5.4-5.2 8.3-12.5 8.3-20.6 0-7.3-3.2-14.7-8.7-19.6zm-24.6-29.6h0.3c6.6 0 10.1 5.4 10.1 9.3 0 8.2-7.8 8.8-10.2 8.8s-10.2-0.6-10.2-8.8c-0.1-3.9 3.4-9.3 10-9.3zm0.1 58c-6.2 0-11.6-4.2-11.3-9.7 0.2-5.4 4.1-9.7 11.3-9.7s11.1 4.3 11.3 9.7c0.3 5.5-5.1 9.7-11.3 9.7zm-73-57.9c6.5 0 10 5.4 10 9.2 0 8.2-7.6 8.8-10 8.8h-4.2c-2.2 0-4 1.7-4 4v12.8c0 2.2 1.7 4 4 4h5.8c5.2 0 9.5 4.3 9.5 9.5 0 5.3-5 9.5-11.1 9.5-7.8 0-10.4-6.9-10.4-10 0-2.2-1.7-4-4-4h-13.9c-2.2 0-4 1.7-4 4 0 21.2 16.2 30.7 32.4 30.7 10.3-0.1 18.9-3.1 24.8-8.8 5.4-5.2 8.3-12.5 8.3-20.5 0-7.3-3.2-14.7-8.7-19.6l-1.3-1.2 1.3-1.3c3.5-3.3 7.6-9.1 7.6-17.8 0-17-13.7-29.9-32-29.9-16.1 0-32.4 9.7-32.4 31.4 0 2.3 1.7 4 4 4h14.1c2.2 0 4-1.8 4-4-0.1-3.4 2.5-10.8 10.2-10.8zm-72.6 28.6c-3.1 0-8.8 0.8-11.8 6-0.8 1.3-1.9 2.2-3.6 2.2h-14.3c-2.2 0-4-1.7-4-3.9v-0.5l5.7-48.2c0.1-2.1 1.8-3.6 3.9-3.6h51.6c2.2 0 4 1.7 4 4v12.9c0 2.2-1.8 3.8-4.2 3.8h-35.6l-1 9.1v0.3l2.6-0.9c2.8-1 5.6-1.5 8.1-1.5 18.4 0 31.7 12.1 33.6 29.9 0.2 1.5 0.2 3.1 0.2 4.7 0 21.3-14.1 35.7-35.2 35.7-22.3-0.1-34.4-15.9-34.4-30.7 0-2.3 1.8-4.1 4-4.1h14c2.3 0 4 1.7 4 4 0 4.5 5.5 10 12.4 10 7.8 0 12.5-5.6 12.5-15 0-8.4-5.1-14.2-12.5-14.2z"/>
</svg>
