<svg width="655.62" height="435.2" version="1.1" viewBox="0 0 655.62 435.2" xml:space="preserve" xmlns="http://www.w3.org/2000/svg"><defs><clipPath id="a"><path d="m0 0h521.58v748.35h-521.58z"/></clipPath></defs><g transform="matrix(1.3333 0 0 -1.3333 -73.43 742.61)"><g transform="matrix(11.817 0 0 11.817 -4890.6 -334.97)"><g clip-path="url(#a)"><g transform="translate(419.87 71.997)"><path d="m0 0h0.037c0.32 0.647 0.87 0.911 1.508 0.911 0.32 0 0.727-0.158 0.997-0.33l-0.587-1.174c-0.196 0.172-0.476 0.296-0.707 0.296-1.081 0-1.248-0.901-1.248-1.932v-2.825h-1.356v5.8h1.356z" fill="#fff"/></g><g transform="translate(429.76 66.942)"><path d="m0 0h-1.356v0.769h-0.025c-0.442-0.651-1.13-0.966-1.953-0.966-1.757 0-2.826 1.462-2.826 3.108 0 1.622 1.095 3.07 2.789 3.07 0.848 0 1.536-0.317 1.99-1.005h0.025v0.824h1.356zm-1.333 2.904c0 1.044-0.647 1.927-1.789 1.927-1.095 0-1.742-0.929-1.742-1.927 0-1.009 0.624-1.95 1.742-1.95 1.153 0 1.789 0.895 1.789 1.95" fill="#fff"/></g><g transform="translate(436.64 67.708)"><path d="m0 0h-0.024c-0.443-0.651-1.143-0.961-1.954-0.961-1.769 0-2.752 1.461-2.752 3.107 0 1.573 1.082 3.057 2.74 3.057 0.86 0 1.511-0.263 1.966-0.951h0.024v3.39h1.357v-8.407h-1.357zm0.062 2.143c0 1.041-0.637 1.921-1.76 1.921-1.077 0-1.713-0.926-1.713-1.921 0-1.007 0.614-1.945 1.713-1.945 1.135 0 1.76 0.893 1.76 1.945" fill="#fff"/></g><g transform="translate(442.08 74.611)"><path d="m0 0c0-0.469-0.385-0.841-0.854-0.841-0.468 0-0.855 0.372-0.855 0.841 0 0.482 0.387 0.867 0.855 0.867 0.469 0 0.854-0.385 0.854-0.867m-0.164-7.668h-1.356v5.8h1.356z" fill="#fff"/></g><g transform="translate(450.67 69.823)"><path d="m0 0c0-1.742-1.406-3.078-3.197-3.078s-3.197 1.336-3.197 3.078 1.406 3.077 3.197 3.077 3.197-1.335 3.197-3.077m-5.088 0.012c0-1.002 0.837-1.856 1.886-1.856s1.886 0.854 1.886 1.856c0 1.013-0.837 1.856-1.886 1.856s-1.886-0.843-1.886-1.856" fill="#fff"/></g></g></g><path d="m71.097 364.56 24.012 23.244h20.55l-30.323-28.527 33.005-40.001h-20.089l-23.965 29.413-3.1906-3.0016v-26.411h-16.024v99.335h16.024z" fill="#fff"/><path d="m499.55 364.56 24.012 23.244h20.55l-30.335-28.527 33.005-40.001h-20.077l-23.965 29.413-3.1906-3.0016v-26.411h-16.036v99.335h16.036z" fill="#fff"/><path d="m157.53 319.27h-16.024v99.347h16.024z" fill="#fff"/><g transform="matrix(11.817 0 0 11.817 255.13 319.26)"><path d="m0 0h-1.356v0.769h-0.024c-0.443-0.651-1.131-0.966-1.954-0.966-1.757 0-2.826 1.462-2.826 3.108 0 1.622 1.095 3.07 2.789 3.07 0.848 0 1.536-0.317 1.991-1.006h0.024v0.825h1.356zm-1.333 2.904c0 1.044-0.647 1.927-1.789 1.927-1.095 0-1.742-0.929-1.742-1.927 0-1.01 0.624-1.95 1.742-1.95 1.153 0 1.789 0.895 1.789 1.95" fill="#fff"/></g><g transform="matrix(11.817 0 0 11.817 453.16 409.87)"><path d="m0 0c0-0.468-0.386-0.839-0.854-0.839s-0.855 0.371-0.855 0.839c0 0.482 0.387 0.869 0.855 0.869s0.854-0.387 0.854-0.869m-0.165-7.667h-1.356v5.8h1.356z" fill="#fff"/></g><g transform="matrix(11.817 0 0 11.817 322.36 371.55)"><path d="m0 0c-0.272 0.256-0.761 0.445-1.163 0.445-0.462 0-0.792-0.178-0.792-0.534 0-0.434 0.714-0.679 1.565-1.013 0.834-0.327 1.455-0.784 1.455-1.692 0-1.094-1.069-1.827-2.324-1.827-0.98 0-1.761 0.335-2.376 0.925l0.864 0.801c0.346-0.37 0.885-0.576 1.506-0.576 0.547 0 0.902 0.283 0.902 0.644 0 0.307-0.258 0.485-0.597 0.635-0.337 0.151-0.588 0.233-1.097 0.455-0.791 0.347-1.264 0.805-1.264 1.592 0 0.933 0.955 1.702 2.051 1.702 0.889 0 1.525-0.259 2.104-0.772z" fill="#fff"/></g><g transform="matrix(11.817 0 0 11.817 397.91 371.55)"><path d="m0 0c-0.272 0.256-0.761 0.445-1.163 0.445-0.462 0-0.792-0.178-0.792-0.534 0-0.434 0.714-0.679 1.565-1.013 0.834-0.327 1.455-0.784 1.455-1.692 0-1.094-1.069-1.827-2.324-1.827-0.981 0-1.761 0.335-2.376 0.925l0.864 0.801c0.346-0.37 0.885-0.576 1.506-0.576 0.547 0 0.902 0.283 0.902 0.644 0 0.307-0.258 0.485-0.597 0.635-0.337 0.151-0.588 0.233-1.097 0.455-0.791 0.347-1.264 0.805-1.264 1.592 0 0.933 0.954 1.702 2.051 1.702 0.889 0 1.525-0.259 2.104-0.772z" fill="#fff"/></g><g transform="matrix(11.817 0 0 11.817 73.226 259.22)"><path d="m0 0c-0.11 0.149-0.251 0.245-0.444 0.245-0.185 0-0.362-0.142-0.363-0.334 0-0.5 1.176-0.293 1.175-1.288-1e-3 -0.593-0.371-1.014-0.976-1.013-0.41 0-0.708 0.236-0.912 0.579l0.374 0.365c0.078-0.228 0.286-0.432 0.534-0.433 0.236 0 0.382 0.2 0.382 0.428 1e-3 0.307-0.283 0.394-0.515 0.484-0.381 0.158-0.66 0.351-0.659 0.811 1e-3 0.492 0.367 0.888 0.866 0.888 0.263-1e-3 0.629-0.13 0.81-0.331z" fill="#fff"/></g><path d="m102.83 231.87-6.8303 0.0118 0.03545 29.082-7.0666 0.0118 0.01182 5.944 20.964-0.0355-0.0118-5.9322h-7.0666z" fill="#fff"/><path d="m129.58 260.92v-7.7166l10.86-0.0118v-5.944l-10.872 0.0118-0.0236-9.4773 11.297-0.0118-0.0118-5.9558-18.116 0.0236 0.0473 35.038 18.116-0.0354v-5.9322z" fill="#fff"/><g transform="matrix(11.817 0 0 11.817 162.53 231.79)"><path d="m0 0h-0.578l4e-3 2.966 0.786-2e-3c0.621 0 1.026-0.248 1.025-0.921 0-0.629-0.343-0.935-0.949-0.935l-0.286 1e-3zm2e-3 1.589h0.118c0.342-1e-3 0.527 0.074 0.527 0.459 1e-3 0.381-0.219 0.436-0.542 0.437h-0.102z" fill="#fff"/></g><path d="m210.04 252.97 0.0236 13.802 6.8185-0.0118-0.0354-35.038-6.8303 0.0118 0.0118 15.658-12.632 0.0236-0.0236-15.67-6.8303 0.0118 0.0355 35.05 6.8421-0.0236-0.0236-13.791z" fill="#fff"/><path d="m239.34 239.09-2.8952-7.3857-7.2084 0.0118 13.708 35.948 5.3059-0.0118 13.235-35.971-7.2912 0.0118-2.6825 7.3857zm5.9204 18.305h-0.0945l-3.8642-12.727 8.3192-0.0118z" fill="#fff"/><path d="m273.93 267.62 4.9277-0.0118 18.423-24.521h0.0945l0.0236 23.563h6.8303l-0.0473-35.735-4.9277 0.0118-18.411 24.509h-0.0945l-0.0355-23.8-6.8303 0.0118z" fill="#fff"/><g transform="matrix(11.817 0 0 11.817 335.99 258.9)"><path d="m0 0c-0.11 0.15-0.251 0.244-0.444 0.244-0.184 1e-3 -0.362-0.141-0.362-0.333-1e-3 -0.5 1.175-0.293 1.174-1.287-1e-3 -0.594-0.371-1.015-0.976-1.014-0.41 0-0.708 0.237-0.912 0.579l0.374 0.366c0.078-0.229 0.287-0.433 0.535-0.434 0.235 0 0.381 0.2 0.381 0.428 0 0.307-0.282 0.394-0.515 0.484-0.381 0.159-0.659 0.351-0.659 0.811 1e-3 0.492 0.367 0.888 0.866 0.888 0.263 0 0.63-0.13 0.81-0.331z" fill="#fff"/></g><g transform="matrix(11.817 0 0 11.817 354.26 266.58)"><path d="m0 0h0.825c0.858-2e-3 1.431-0.643 1.43-1.488-1e-3 -0.834-0.591-1.478-1.437-1.477l-0.822 1e-3zm0.575-2.462h0.094c0.712-1e-3 0.988 0.393 0.988 0.978 1e-3 0.645-0.328 0.98-0.985 0.98h-0.095z" fill="#fff"/></g><g transform="matrix(11.817 0 0 11.817 410.2 230.56)"><path d="m0 0c-0.905 1e-3 -1.466 0.694-1.465 1.567 1e-3 0.881 0.584 1.556 1.469 1.555s1.466-0.678 1.465-1.559c-2e-3 -0.873-0.564-1.564-1.469-1.563m3e-3 2.552c-0.546 1e-3 -0.87-0.482-0.87-0.963-1e-3 -0.456 0.227-1.018 0.868-1.019s0.87 0.561 0.87 1.017c0 0.48-0.321 0.965-0.868 0.965" fill="#fff"/></g><path d="m467.37 253.16h-0.0945l-7.9766-22.193h-2.3634l-7.6457 22.216h-0.0945l-3.1315-21.743-6.8776 0.0118 5.944 35.96 4.8332-0.0118 8.6029-23.102 8.3074 23.079h4.9277l5.2114-35.971-6.8776 0.0118z" fill="#fff"/></g></svg>
