<svg width="800" height="554.58" version="1.1" viewBox="0 0 800 554.58" xml:space="preserve" xmlns="http://www.w3.org/2000/svg"><g transform="matrix(1.3333 0 0 -1.3333 44.362 874.28)"><g transform="matrix(36.843 0 0 36.843 -3361.1 -7641.5)"><g transform="translate(97.307 222.17)"><path d="m0 0c0.014-0.259 0.011-0.446-0.094-0.5-0.124-0.063-0.288-0.063-0.288-0.063s0.284 0.026 0.325 0.152 0.052 0.305 0.052 0.305-7e-3 0.326 5e-3 0.106m-0.171 1.802s0.035-1.542-0.046 0.011c-0.01 0.043 0.046-0.011 0.046-0.011m-0.124-2.246v-0.027l-0.191-0.054h-0.152v0.027l0.305 0.054zm-0.255 2.46s-0.07 0.041-0.144 0.056c-0.018 0.082 0.144-0.056 0.144-0.056m-0.15-0.966c-0.013-0.07-0.012-0.085-0.032-0.202l0.039-0.525c0.018-0.234 0.013-0.377-0.013-0.432s-0.105-0.088-0.236-0.097l-0.171 2.301c0.099 7e-3 0.168 2e-3 0.205-0.017 0.038-0.018 0.063-0.049 0.077-0.093 0.013-0.043 0.026-0.145 0.037-0.303l9e-3 -0.121c0.015-0.066 0.097-0.445 0.085-0.511m-0.078 1.14-0.173 0.102c0.156-0.046 0.173-0.102 0.173-0.102m-0.136-2.697 0.038-0.026 0.115 0.026 0.038 1e-3v-0.027l-0.077-0.053h-0.076zm-0.831 0.369c0.016-0.282 0.053-0.365 0.053-0.365l-0.055-0.249-0.068 0.951c0.015 0.018 0.022 0.036 0.021 0.054l-3e-3 0.045-0.025-2e-3 -0.142 1.983c1e-3 -1e-3 3e-3 -2e-3 5e-3 -3e-3 0.053-0.559 0.211-2.229 0.214-2.414m-0.39 0.239c-0.016-0.01-0.033-0.018-0.052-0.022l0.015 0.065c0.01 8e-3 0.019 0.016 0.029 0.024zm-0.508-0.063-0.528-0.125-0.162-0.042 0.011 0.07zm-0.362 0.456c-0.02-0.028-0.077-0.047-0.219-0.082l-0.061-6e-3 3e-3 0.049 0.252 0.081 0.017 1e-3c3e-3 -0.014 5e-3 -0.029 8e-3 -0.043m-0.036 0.198c-0.014-0.12-0.055-0.13-0.236-0.148l1e-3 8e-3c8e-3 0.301 0.029 0.702 0.06 1.204 0.062-0.399 0.12-0.754 0.175-1.064m-0.376 1.265-0.038-0.726-0.031 0.043 0.01 0.134zm-0.097-1.272-0.011-0.116-0.04-0.023 3e-3 0.275zm-0.405 0.043-4e-3 -0.145-0.037-0.011-0.023 0.09 0.027 0.055zm4.144-1.038c0.021 0.109 0.02 0.32-3e-3 0.634l-0.091 1.224c-0.025 0.332-0.051 0.553-0.08 0.664-0.028 0.112-0.086 0.211-0.174 0.297s-0.21 0.144-0.368 0.172c-0.158 0.029-0.456 0.028-0.896-5e-3l-0.176-0.014-0.053 0.011-0.152-0.01-0.13 0.033-0.041-0.061-0.058-4e-3 -8e-3 4e-3 -0.038-7e-3v-1e-3l-0.024-2e-3 0.098-1.318 0.015-0.025-1e-3 -0.171 6e-3 -0.067 0.029-0.206 0.012-0.356 0.014-0.194-0.18-0.018c-3e-3 0.049-0.029 0.075-0.076 0.08l-0.012 0.054 0.18 0.058-3e-3 0.045-0.196-0.02-0.221 0.981c-0.019 0.055-0.043 0.118-0.066 0.166l-0.076 0.368c-2e-3 0.054-7e-3 0.113-0.018 0.174l-0.091 0.406-0.012-1e-3 -0.016 0.075c-0.17-0.018-0.312-0.086-0.333 3e-3 -0.101-0.01-0.206-0.053-0.313-0.128l-0.098-7e-3 2e-3 3e-3 -0.568 0.067-0.032-0.766c7e-3 2e-3 0.012 1e-3 0.018 3e-3l-4e-3 -0.054c0.083-3e-3 0.167-5e-3 0.064-0.067-0.132-0.079-0.034-0.234-0.034-0.234l-0.045 0.024-3e-3 -0.04-0.029 0.021 0.018-0.221c2e-3 -0.011 4e-3 -0.021 6e-3 -0.032 0.025-0.137 0.11-0.248 0.11-0.248s2e-3 -0.058-0.058 0.012c-0.035 0.04-0.047-0.028-0.047-0.028s-0.015-3e-3 -0.03-4e-3l-0.023-0.465c-1e-3 -8e-3 -3e-3 -0.015-4e-3 -0.023l-0.088-1.52 0.017 1e-3 -1e-3 -8e-3 0.216-0.025 0.237 0.067 0.046 3e-3 0.068-0.076c-2e-3 0.028-4e-3 0.055-6e-3 0.081h1e-3c0.02 0.01 0.043 0.018 0.068 0.023v-6e-3l0.11-0.08-3e-3 0.045 0.035 4e-3 0.037-0.042 0.103-0.017 0.036 0.05c-8e-3 -0.01-0.016 0.011-0.024 0.05h1e-3l8e-3 0.633 0.325 0.024 0.075-0.492 0.022 0.027-0.068 0.463 0.053-0.121 0.058-0.409-0.062 0.021 0.017-0.114 0.497 0.037 0.106-2e-3 0.029 0.012 0.298 0.022-0.21 0.93c0.086 0.031 0.153 0.061 0.2 0.091l0.076-1.016c0.016 0.013 0.098 0.043 0.242 0.061l1.044 0.09s-0.764-0.083-0.853-0.119l0.714 0.053c0.217 0.017 0.379 0.04 0.486 0.072 0.106 0.032 0.193 0.081 0.263 0.146 0.068 0.065 0.114 0.152 0.136 0.259m0.528-0.268-0.063 0.037-6e-3 0.237 5e-3 -3e-3c0.017-0.049 0.074-0.216 0.064-0.271m-0.265 1.175 0.048-1.184-0.091 1.362 6e-3 0.012zm-0.159 1.862c-7e-3 0.029 0.033-0.552 0.061-0.969l-0.016-5e-3c-0.043 0.42-0.095 1.008-0.045 0.974m0.05-1.018 0.015-7e-3c8e-3 -0.12 0.015-0.222 0.02-0.286l-3e-3 -5e-3c-7e-3 0.065-0.019 0.172-0.032 0.298m0.922-1.144 0.024 0.029-8e-3 0.029-0.032 0.169-0.14 1.876c8e-3 0.099 0.017 0.197 0.03 0.293l-0.05-0.013 0.042 0.054-0.051 0.052-5e-3 0.075-0.064-4e-3 -0.014 0.014c-0.132-0.035-0.205-0.012-0.218 0.071l-0.377-0.131-0.234-0.017 0.077-0.611s-0.014 1e-3 -0.035 6e-3l0.215-2.892 0.383 0.028v-4e-3l0.261-0.016 0.199 0.053c-1e-3 0-1e-3 0-1e-3 1e-3l0.068 5e-3 -6e-3 0.08-0.031 0.057c0.027 0.071 0.058 0.167 0.05 0.314l8e-3 0.096-0.077 0.201-7e-3 0.091 0.027 0.021 9e-3 8e-3z" fill="#c4161d"/></g><g transform="translate(100.64 223.62)"><path d="m0 0v0.013l-0.015 4e-3c0-7e-3 1e-3 -0.014 1e-3 -0.022zm0.028 0-7e-3 7e-3 -0.021-7e-3c0.015-0.283 7e-3 -0.915-0.017-1.17-4e-3 0.104 3e-3 0.576-3e-3 0.683 0.018 0.178 0.02 0.339 6e-3 0.482l-0.039-0.012-3e-3 0.03c-8e-3 0-0.017-1e-3 -0.025-1e-3l-0.01 0.041c1e-3 2e-3 3e-3 3e-3 4e-3 4e-3l0.029-0.028 0.043-0.012c-3e-3 0.024-6e-3 0.049-9e-3 0.072l2e-3 4e-3 0.02-0.045c0-0.012 1e-3 -0.024 2e-3 -0.035l0.021-6e-3 9e-3 8e-3 0.011-0.044-0.019-0.053zm-0.063 0.321-0.029-0.01-6e-3 0.015c0 0.038-2e-3 0.075-3e-3 0.111zm-0.727-1.639-0.014-0.019-0.014 0.043-0.029-0.01-0.016-0.052-0.03-0.01c-0.043-6e-3 -0.083-0.01-0.119-0.012-0.056 0.174-0.069 0.528-0.075 0.695-1e-3 0.039-3e-3 0.079-5e-3 0.118-5e-3 -4e-3 -0.017 1e-3 -0.039 0.03 0 0-0.09 0.116-0.036 0.059 0.022-0.023 0.06-0.027 0.071-0.028-0.021 0.333-0.068 0.663-0.07 0.924-2e-3 0.14 0.046 0.463 0.132 0.507 0.187 9e-3 0.16-0.586 0.193-0.776 0.039-0.228 0.032-0.574 0.042-0.874 5e-3 -0.133 0.041-0.415 9e-3 -0.595m-0.737 1.332c0.01-1e-3 0.02 0 0.028 1e-3l-6e-3 -0.028-0.029-0.01zm5e-3 -0.098c9e-3 -0.053-6e-3 -0.02-0.018 0.012l0.017 6e-3c0-6e-3 0-0.012 1e-3 -0.018m-0.235-1.451c0.019-0.033 0.08-0.022 0.094-0.058 0.087-0.397 0.738-0.577 1.179-0.395 0.185 0.077 0.414 0.353 0.441 0.643 0.01 0.118 2e-3 -0.118 1e-3 0.019 0.058 0.927 0.094 1.447 0.02 1.673l4e-3 0.088-0.106 0.276c-1e-3 6e-3 -2e-3 0.013-3e-3 0.019l0.013 0.045-0.028 0.031c-0.029 0.115-0.076 0.213-0.16 0.282-1e-3 0.036 0.025 0.046 0.013 0.092-0.082 0.077-0.136 0.129-0.218 0.207-0.032 0.047-0.098 0.084-0.148 0.098-0.225 0.149-0.533 0.114-0.821 0.019l-0.03-0.01-0.135-0.092c-0.199-0.326-0.304-0.635-0.354-0.955l0.03 9e-3c-8e-3 -0.642 5e-3 -0.849 0.061-1.221l0.037-0.118c0.02-0.254 0.058-0.491 0.11-0.652" fill="#c4161d"/></g><g transform="translate(92.049 223.49)"><path d="m0 0c0.011-0.155-3e-3 -0.247-0.041-0.278-0.039-0.031-0.11-0.05-0.212-0.058l-0.058 0.778c0.105 7e-3 0.179-5e-3 0.221-0.036 0.042-0.032 0.067-0.103 0.076-0.214zm-0.537 0.787s-0.381-0.086-0.52-0.131l0.048 0.071zm-0.184-2.769 0.279 0.173s-0.151-0.131-0.118-0.139c0.033-7e-3 -0.065-5e-3 -0.161-0.034m-0.258 0.523-0.074-0.057 0.016 0.166-0.031 0.605-0.044 0.074 0.03 0.03 1e-3 0.193-0.026 0.22 4e-3 0.06-0.04 0.643 0.01 0.015 1e-3 -8e-3zm1.566-0.948 0.439 0.033-0.064 0.848c-0.067 0.011-0.148 0.041-0.19 0.121-0.02 0.038 0.092-0.013 0.186-0.061l-1e-3 0.014c-0.021 0.282-0.041 0.454-0.061 0.516-0.02 0.061-0.064 0.127-0.131 0.197-0.068 0.071-0.193 0.121-0.376 0.153 0.197 0.033 0.326 0.099 0.387 0.198 0.042 0.068 0.064 0.179 0.067 0.329l-0.503-0.286s0.469 0.28 0.501 0.358c-1e-3 0.054 1e-3 0.091-4e-3 0.155-8e-3 0.106-0.021 0.2-0.039 0.284-0.029 0.042-0.061 0.077-0.097 0.09-0.074 0.028-0.031 0.093 0.02 0.144-0.022 0.047-0.048 0.088-0.076 0.123-0.106 0.129-0.236 0.204-0.391 0.226-0.15 0.021-0.432 0.017-0.843-0.013l-0.056-0.038-0.061 4e-3 0.05 0.048-0.44-0.051-0.169-0.013 1e-3 -7e-3 -0.176-0.02c-0.028-0.075 6e-3 -0.131 0.103-0.168l-0.014-0.038c-0.097 0.037-0.155 0.03-0.174-0.02l0.036-0.014 0.244-7e-3 3e-3 -0.037 5e-3 -1e-3 0.062 0.012 6e-3 -2e-3 -0.014-0.037c-0.156 0.03-0.242 0.02-0.262-0.03l-0.014-0.038 0.219-0.083 8e-3 9e-3 0.227-3.016 0.665 0.049 0.243 0.033-0.033 0.458c-0.05 1e-3 -0.095 0.012-0.095 0.012l0.023 0.092 0.046 0.242-0.057 0.758c0.125 0.01 0.254-6e-3 0.286-0.048 0.033-0.043 0.057-0.158 0.071-0.345l0.035-1.132 0.028 4e-3z" fill="#c4161d"/></g><g transform="translate(104.15 214.58)"><path d="m0 0c0-0.014-0.151-3e-3 -0.151-3e-3l0.094 0.012s0.057 4e-3 0.057-9e-3m-2.059 0.38-2.244-0.03-0.938 0.036zm-2.02-0.958 1.467 0.05 1.86-0.058zm-3.934 0.029-0.32-0.014-0.185-6e-3 0.044 0.032zm-2.243 0.553c-0.043 1e-3 -0.106 3e-3 -0.151 3e-3 9e-3 3e-3 0.045 4e-3 0.052 0.01 0.013 0 0.023 3e-3 0.037 3e-3 0-1e-3 0.062 0.011 0.064 0.01 0.035-7e-3 -0.023-0.021-2e-3 -0.026m-0.878 0.405-0.177-0.037-0.417 0.04zm13.596 0.069h-2.73l-2.177-0.044-6.958 0.044h-4.156c0-0.025 2e-3 -0.029 3e-3 -0.049l0.236 0.015 0.797-0.042-1.031-8e-3c5e-3 -0.071 0.014-0.104 0.014-0.104l-0.025-0.013c1e-3 -0.034 4e-3 -0.053 6e-3 -0.073 0.113-2e-3 0.193 0.015 0.193 0.015l-0.01-0.033 1.096 0.014 0.958-0.028h0.214l-3e-3 -0.12 0.662-0.035-0.659-0.019v-0.015c0.039-5e-3 0.099-0.014 0.095-0.014-0.039 0-0.072-0.024-0.094-0.037l-1e-3 -0.324 0.418-0.018s-0.376-0.032-0.411-0.035l4e-3 -0.055s-3e-3 -0.012-0.011-0.054v-5e-3l0.071 0.021 0.213-0.015 0.218 2e-3 0.013 1e-3 2.054 0.02-0.104-0.04-2.065-0.028-0.013-4e-3 -0.059 0.01-0.328-2e-3v-0.076c0.56 1e-3 1.18 2e-3 1.839 2e-3l2.551 0.07 5.667-0.065c0.286 0 0.566 1e-3 0.844 1e-3 -0.027 0.036-0.051 0.06-0.059 0.067l-0.477 9e-3 0.344 0.03 0.271-0.016 0.153 7e-3c-4e-3 0.108-1e-3 0.236 6e-3 0.379l-1.762 0.059h1.763c1e-3 0.019 4e-3 0.02 5e-3 0.037l-0.079 0.011-0.544-6e-3 0.573 0.033 0.051-9e-3c2e-3 0.021 2e-3 0.035 4e-3 0.053l-9e-3 0.088s0.015 0.075 0.02 0.09v5e-3l1e-3 -3e-3h0.629l1.117 0.025 0.464-0.018c4e-3 5e-3 8e-3 0.019 0.011 0.026h0.051c1e-3 -3e-3 0.066-7e-3 0.122-3e-3 2e-3 0.028 4e-3 0.054 5e-3 0.08 0 1e-3 -1e-3 0-2e-3 1e-3 -0.024 0.025-0.231 0.029-0.231 0.029l0.236 0.019c1e-3 0.021 1e-3 0.03 2e-3 0.05l-1.32 0.017 1.322 0.021c1e-3 0.02 1e-3 0.04 2e-3 0.059" fill="#c4161d"/></g><g transform="translate(103.2 221.53)"><path d="m0 0-5e-3 -0.033 0.021-0.038 0.068 0.063 0.014 0.102-0.028 3e-3c-9e-3 -0.068-0.033-0.1-0.07-0.097m0.589 1.817-7e-3 -0.034-0.09-0.23-0.028 4e-3 5e-3 0.033 0.092 0.229zm-0.131-0.294-4e-3 -0.034-0.385-0.846-0.028 3e-3 6e-3 0.034 0.255 0.552-0.028 5e-3 0.031 0.028-0.021 0.038 0.01 0.067 0.028-3e-3 -0.01-0.068 0.028-3e-3 0.09 0.23zm-0.162-0.777c9e-3 0.02 0.017 0.041 0.025 0.062 2e-3 -1e-3 4e-3 -1e-3 5e-3 -1e-3 0.016-0.051-0.012-0.123-0.024-0.166-0.011 0.024-0.01 0.063-6e-3 0.105m1.203 2.373c-0.052 0.032-0.225 0.029-0.258-0.021-0.125 0.105-0.414 8e-3 -0.539 0.112-0.03 2e-3 -0.06 5e-3 -0.089 7e-3 -0.068 0.01-0.023-0.106-0.067-0.136h-0.018c-6e-3 0.014 7e-3 0.051 5e-3 0.07-0.042-0.042-0.065-6e-3 -0.076 0.041-0.081 6e-3 -0.506-8e-3 -0.587-2e-3 1e-3 -0.114-0.031-0.209-0.035-0.296-9e-3 -0.019 6e-3 -0.047-2e-3 -0.069-3e-3 -0.016-0.028-0.081-0.029-0.095-1e-3 -0.038 0.614 0.083 0.613-0.03-5e-3 5e-3 -0.608-2e-3 -0.613 2e-3 -0.03-0.079-0.016-0.193-1e-3 -0.252 0.197-0.024 0.678-2e-3 0.933-0.036l-5e-3 -0.032c-0.017-0.116-0.06-0.213-0.129-0.293l-7e-3 -0.033 0.025-0.038-0.028 4e-3 -0.025 0.035-0.75-1.588c-0.017-0.116 0.018-0.257 0.104-0.425l0.117 0.021c0.036 0.105 0.073 0.206 0.11 0.305-0.018-0.112-0.034-0.23-0.048-0.353 0.03-0.03 0.099-0.011 0.143-0.022 0.022 0.016 0.019 0.08 0.036 0.105 0.012-0.034 6e-3 -0.09 0.019-0.121 0.055-0.02 0.086 4e-3 0.167 0.22 0.024 0.013 0.113 0.32 0.128 0.349 0.085 0.329 0.181 0.422 0.268 0.725 0.019 0.067 0.067 0.131 0.077 0.199 0.014 0.107-0.043 0.168-0.035 0.274l0.018 0.033-0.012 1e-3c1e-3 7e-3 2e-3 0.015 5e-3 0.023 1e-3 2e-3 2e-3 5e-3 4e-3 6e-3 0.032-0.018 0.043-0.063 0.097-0.054 0.121 0.246 0.276 0.57 0.417 0.779 0.027 0.187 0.049 0.383 0.067 0.585" fill="#c4161d"/></g><g transform="translate(105.47 222.15)"><path d="m0 0c0.031 0.041 5e-3 0.195-0.012 0.225-6e-3 -0.041-0.044-0.217 0.012-0.225m-0.032 0.325c0.049-3e-3 0.04 0.419 0.039 0.472-0.053 7e-3 -0.027-0.435-0.039-0.472m0.515 2.061c0.024-0.202 0.041-0.54-0.053-0.704-1e-3 -0.036 0.028-0.045 0.051-0.057-0.027-0.597-0.053-1.193-0.08-1.79 0.098-8e-3 0.223 0.01 0.303-0.016 0.064-0.145-0.046-0.374 0-0.47-0.1 2e-3 -0.202 3e-3 -0.303 5e-3 -0.036-0.011-0.034 0.016-0.03 0.046-0.195-0.131-0.625-0.033-0.878-0.018 6e-3 0.157 0.013 0.313 0.021 0.47 0.115-2e-3 0.231-4e-3 0.346-7e-3 0.036 0.507 0.026 1.059 0.038 1.578-0.169-0.02-0.218-0.173-0.408-0.171-0.016 0.195 0.015 0.435 0.018 0.648 0.275 0.081 0.429 0.293 0.596 0.493 0.126-2e-3 0.253-5e-3 0.379-7e-3" fill="#c4161d"/></g><g transform="translate(101.41 222.2)"><path d="m0 0c0.029-0.217 0.238-0.244 0.26-0.23-0.011 0-0.022 4e-3 -0.033 6e-3 -0.206 0.036-0.231 0.316-0.254 0.318-3e-3 -9e-3 9e-3 -0.016 0.027-0.094m0.316 0.684c-0.019 3e-3 -0.102 0.014-0.124 0.023-5e-3 -0.03 0.128-0.069 0.124-0.023m0.804 0.556c5e-3 0.04-0.018 0.093-0.025 0.12-2e-3 -0.037-0.015-0.126 0.025-0.12m-0.113 0.417c0.044 4e-3 0.053-0.025 0.099-0.016-0.013 0.037 0.045 0.081-7e-3 0.085-0.01-0.048-0.087-0.015-0.092-0.069m-0.348-0.426c0.055 0.079 0.073 0.201 0.143 0.263-0.016 0.23-0.018 0.473-0.199 0.533-0.09-5e-3 -0.15-0.051-0.208-0.113-0.058-0.061-0.128-0.189-0.113-0.386-7e-3 0.17 0.091 0.263 0.099 0.227-0.132-0.235 0.013-0.511 0.175-0.593-0.01 0.076 0.069 0.045 0.103 0.069m-0.191 1.045c-8e-3 -0.028-0.024-0.073-3e-3 -0.097 0.066-0.016 0.066 0.048 0.07 0.106-0.033 0.01-0.033-0.019-0.067-9e-3m-0.032-3c1e-3 4e-3 1e-3 7e-3 1e-3 0.012-0.064-0.022-0.02 0.065-0.064 0.063-0.433-0.034-0.565 0.335-0.611 0.732 0.035 2e-3 0.045-0.023 0.087-0.015 7e-3 0.039-0.01 0.106 0.027 0.109 0.065 0.019 0.091-0.113 0.107-0.065 0.035 0.038-4e-3 0.131 0.018 0.157 0.071 0.034 0.143 0.067 0.235 0.076 0.107-0.105 0.054-0.336 0.23-0.338 0.225-3e-3 0.218 0.35 0.321 0.56-0.049 0.036-2e-3 0.17-0.058 0.198-0.034-0.108-0.235-0.173-0.337-0.177-0.172-7e-3 -0.473 0.211-0.49 0.234-0.063 0.083-0.099 0.212-0.126 0.357-0.154 0.285 0.014 0.691 0.069 0.988 0.213 0.277 0.42 0.562 0.937 0.475 0.072-0.076 0.18-0.075 0.248-0.144 0.054-0.056 0.066-0.157 0.148-0.178 0.019-0.047 0.039-0.126 0.084-0.112-0.056-0.104 0.069-0.124 0.034-0.246 0.027 1e-3 0.046-8e-3 0.054-0.026-8e-3 -0.09 0.041-0.167 0.024-0.233-0.021-0.082-0.093-0.056-0.127-0.129 0.074-0.033 0.096 0.063 0.124 0.044 0.024-0.128-0.056-0.129-0.075-0.205 0.134-0.015 0.072-0.231 0.119-0.334-0.02-0.035-0.078-0.025-0.091-0.07 0.131-0.026 0.08-0.145 0.054-0.295-0.043-0.259-0.07-0.562-0.219-0.68-0.013-0.044 0.035-0.038 0.012-0.093-0.02-0.095-0.093-0.126-0.077-0.265-0.114-0.097-0.178-0.257-0.334-0.316-0.09-0.034-0.212-8e-3 -0.302-0.085-7e-3 0-0.014 0-0.022 1e-3" fill="#c4161d"/></g><g transform="translate(104.45 222.16)"><path d="m0 0c-0.229 5e-3 -0.346-0.032-0.354-0.113l0.08-0.078-0.103-0.187 0.145-0.078c-0.018-0.028-0.061-0.029-0.128-1e-3l-3e-3 -0.127 0.094-0.032c0.276-6e-3 0.422 0.069 0.436 0.226l-0.064 1e-3c3e-3 0.038 0.067 0.071 0.189 0.099l5e-3 0.027-0.065 2e-3 3e-3 0.03 0.063-2e-3 3e-3 0.03-0.059 0.059 3e-3 0.03-0.106 0.106c-0.048 4e-3 -0.095 7e-3 -0.139 8e-3" fill="#c4161d"/></g></g><g transform="matrix(36.843 0 0 36.843 -3361.1 -7641.5)" fill="#fff"><g transform="translate(104.38 216.26)"><path d="m0 0 0.098 0.144-0.016 0.035-0.097-0.143zm-1.936 2.482 0.068 0.641c0.016-0.1 0.042-0.203 0.077-0.31-0.121-0.119-0.12-0.303-0.132-0.475-0.016-0.246-0.026-0.516-0.025-0.794l-0.021-0.215zm3.921-0.224-0.065 0.051 0.05 0.071-3e-3 0.067-0.229 0.088-1.895-0.15 0.027-0.997 0.028 0.702v-0.702c0.018-0.028 0.049-0.042 0.084-0.053v-0.036l0.051-0.063c0.059 6e-3 0.292 0.058 0.316 0.03 0.012-0.131 0.096-0.222-0.086-0.686l-0.171-0.391 0.02-0.03c0.42 0.645 0.342 0.844 0.386 0.901-1e-3 -0.089 0-0.332-0.347-0.924-0.111-0.138-0.212-0.222-0.303-0.252-0.035 0.02-0.072 0.038-0.116 0.049l0.06 5e-3v0.135c-0.045 0.021-0.087 0.046-0.127 0.071-0.134 0.705-0.018 1.659-0.058 2.458-0.073 0.066-0.221 0.06-0.316 0.105 0.101 0.023 0.202 0.045 0.316 0.053 8e-3 0.513-0.076 1.477 0.528 1.135v-1.135h1.504c-0.061 0.367 0.042 0.736-0.026 1.056-0.041 0.194-0.243 0.333-0.211 0.527-0.129 0.137-0.306 0.266-0.512 0.371-0.134 0.233-0.433 0.406-0.899 0.517v-0.076l-0.057-5e-3 -0.057 0.07c-0.596-0.055-1.027-0.34-1.345-0.654l0.397 0.249 0.091 0.023 0.058 5e-3v-4e-3c-0.473-0.201-0.856-0.598-0.951-1.145l-0.011-1e-3c-0.183-0.642-0.185-1.825-0.183-2.167l0.021-0.286c1e-3 -0.182 0.146-0.775 0.195-0.946 0.013-0.046 0.026-0.084 0.039-0.118 0.078-0.335 0.194-0.624 0.364-0.82 0.281-0.324 1.019-0.635 1.61-0.342 0.184 0.091 0.204 0.292 0.448 0.369 0.093-0.074 0.071-0.264 0.185-0.317h0.818c0 0.431-4e-3 1.002 0 1.293s1e-3 0.989-3e-3 1.421c0.037 0.022 0.089 0.038 0.162 0.045v0.134l-0.162-0.099v0.079l0.461 0.182 0.051 4e-3v0.135z" fill="#fff"/></g><g transform="translate(92.392 216.26)"><path d="m0 0 0.098 0.144-0.016 0.035-0.097-0.143zm-1.936 2.482 0.068 0.641c0.017-0.1 0.042-0.203 0.077-0.31-0.121-0.119-0.12-0.303-0.132-0.475-0.016-0.246-0.027-0.516-0.025-0.794l-0.021-0.215zm3.921-0.224-0.066 0.051 0.051 0.071-3e-3 0.067-0.229 0.088-1.895-0.15 0.027-0.997 0.028 0.702v-0.702c0.018-0.028 0.049-0.042 0.084-0.053v-0.036l0.051-0.063c0.058 6e-3 0.291 0.058 0.316 0.03 0.012-0.131 0.095-0.222-0.086-0.686l-0.171-0.391 0.02-0.03c0.42 0.645 0.342 0.844 0.386 0.901-1e-3 -0.089 0-0.332-0.346-0.924-0.112-0.138-0.213-0.222-0.304-0.252-0.035 0.02-0.072 0.038-0.117 0.049l0.061 5e-3v0.135c-0.045 0.021-0.087 0.046-0.127 0.071-0.134 0.705-0.018 1.659-0.057 2.458v0.158c7e-3 0.513-0.078 1.477 0.527 1.135v-1.135h1.504c-0.061 0.367 0.042 0.736-0.026 1.056-0.041 0.194-0.243 0.333-0.211 0.527-0.129 0.137-0.306 0.266-0.513 0.371-0.133 0.233-0.433 0.406-0.898 0.517v-0.076l-0.057-5e-3 -0.058 0.07c-0.596-0.055-1.026-0.34-1.344-0.654l0.397 0.249 0.091 0.023 0.057 5e-3v-4e-3c-0.473-0.201-0.855-0.598-0.95-1.145l-0.011-1e-3c-0.183-0.642-0.186-1.825-0.184-2.167l0.022-0.286c1e-3 -0.182 0.146-0.775 0.195-0.946 0.013-0.046 0.026-0.084 0.039-0.118 0.078-0.335 0.194-0.624 0.364-0.82 0.281-0.324 1.02-0.635 1.61-0.342 0.184 0.091 0.204 0.292 0.448 0.369 0.094-0.074 0.071-0.264 0.185-0.317h0.818c0 0.431-0.01 0.858-0.01 1.29-8e-3 0.069 0 0.107 2e-3 0.161 3e-3 0.382 9e-3 0.831 5e-3 1.263 0.037 0.022 0.088 0.038 0.162 0.045v0.134l-0.162-0.099c0 0.026-1e-3 0.052 0 0.079l0.462 0.182 0.05 4e-3v0.135z" fill="#fff"/></g><g transform="translate(97.988 218.68)"><path d="m0 0v0.022l-0.026 8e-3c1e-3 -0.012 2e-3 -0.025 3e-3 -0.037zm0.049-2e-3 -0.013 0.013-0.036-0.011c0.011-0.487-0.035-1.573-0.091-2.01 0 0.178 0.036 0.991 0.031 1.174 0.04 0.304 0.052 0.581 0.037 0.829l-0.069-0.02c-1e-3 0.017-2e-3 0.035-3e-3 0.053-0.014 0-0.029-1e-3 -0.044-2e-3l-0.015 0.072c3e-3 2e-3 5e-3 5e-3 7e-3 7e-3l0.05-0.051 0.071-0.022c-2e-3 0.042-6e-3 0.084-0.011 0.124l5e-3 7e-3 0.03-0.079c1e-3 -0.02 1e-3 -0.04 2e-3 -0.06l0.036-0.011 0.018 0.013 0.015-0.076-0.036-0.09zm-0.092 0.556-0.052-0.016-7e-3 0.027c0 0.064 0 0.128-1e-3 0.191zm-1.335-2.779-0.025-0.032-0.022 0.074-0.052-0.016-0.03-0.089-0.051-0.015c-0.076-9e-3 -0.144-0.013-0.206-0.014-0.087 0.302-0.047 0.906-0.047 1.194 0 0.068-2e-3 0.135-3e-3 0.203-0.01-7e-3 -0.029 4e-3 -0.065 0.054 0 0-0.15 0.204-0.059 0.103 0.037-0.042 0.102-0.05 0.121-0.052-0.02 0.574-0.084 1.143-0.074 1.592 6e-3 0.24 0.061 0.799 0.212 0.871 0.321 5e-3 0.244-1.018 0.29-1.346 0.055-0.394 0.025-0.989 0.026-1.504 1e-3 -0.229 0.049-0.716-0.015-1.023m-1.198 2.328c0.017-1e-3 0.033-1e-3 0.048 0l-0.01-0.048-0.052-0.015zm3e-3 -0.169c0.013-0.092-0.011-0.034-0.031 0.022l0.032 9e-3c-2e-3 -0.01-2e-3 -0.02-1e-3 -0.031m-0.479-2.482c0.03-0.058 0.135-0.041 0.159-0.106 0.128-0.685 1.238-1.03 2.005-0.738 0.322 0.122 0.731 0.583 0.792 1.081 0.025 0.202-2e-3 -0.204 2e-3 0.032 0.148 1.591 0.239 2.483 0.122 2.875l0.013 0.151-0.169 0.48c0 0.011-2e-3 0.023-4e-3 0.034l0.026 0.077-0.048 0.054c-0.043 0.2-0.119 0.37-0.259 0.494 0 0.062 0.045 0.077 0.027 0.158-0.137 0.136-0.228 0.228-0.363 0.366-0.054 0.083-0.166 0.15-0.25 0.175-0.379 0.268-0.911 0.225-1.411 0.076l-0.052-0.015-0.237-0.15c-0.359-0.551-0.59-1.1-0.692-1.65l0.052 0.015c-0.049-1.103-3e-3 -1.435 0.073-2.079l0.059-0.203c0.021-0.439 0.074-0.847 0.155-1.127" fill="#fff"/></g><g transform="translate(101.13 221.29)"><path d="m0 0 0.078 0.012c-0.052 3e-3 -0.104 8e-3 -0.157 0.012-0.173 0.014-0.37-0.029-0.37-0.029l1e-3 -0.023zm0.624-5.333c-0.011-5e-3 -0.024-9e-3 -0.044-0.014 0.05 0.156 0.031 0.293 0.034 0.34h2e-3c-3e-3 0.021-5e-3 0.043-7e-3 0.067 3e-3 0.168 2e-3 0.344-4e-3 0.526 1e-3 0.069 3e-3 0.147 5e-3 0.235 2e-3 -0.375 7e-3 -0.761 0.014-1.154m-2.844 5.304c0-1e-3 0-3e-3 -1e-3 -5e-3 -0.044 1e-3 -0.094 1e-3 -0.143 2e-3 -4e-3 1e-3 -6e-3 2e-3 -0.01 3e-3zm-0.355-1.123c1e-3 -5e-3 1e-3 -0.016 0-0.037v0.037m-1e-3 0.01c0 0.042-1e-3 0.086-3e-3 0.131 0.018-0.011 0.047-0.028 0.092-0.038 0-0.013-1e-3 -0.027-2e-3 -0.041-6e-3 0-0.012 0-0.02-1e-3 -0.054-0.032-0.034-0.033-0.067-0.051m1.064-1.76c-4e-3 -0.128-8e-3 -0.251-0.01-0.372-5e-3 0.167-6e-3 0.337 0.01 0.372m-0.51 2.873h2e-3l3e-3 -0.012h-1e-3c-1e-3 4e-3 -3e-3 9e-3 -4e-3 0.012m2.064-5.278c1e-3 2e-3 2e-3 3e-3 3e-3 5e-3 1e-3 -2e-3 3e-3 -6e-3 4e-3 -9e-3 -3e-3 1e-3 -5e-3 3e-3 -7e-3 4e-3m0.102-0.103c2e-3 1e-3 3e-3 1e-3 5e-3 2e-3l0.015 0.072c0.027-0.08 0.051-0.165 0.088-0.165-0.012-0.062-0.05 0.013-0.108 0.091m0.133-0.076c-0.015 0.026-0.029 0.066-0.044 0.111-0.016 0.034-0.035 0.067-0.058 0.092l4e-3 0.016c5e-3 -0.013 0.016-0.025 0.032-0.037 8e-3 -0.024 0.038-0.056 0.045-0.08 0.019-0.04 0.01-0.072 0.021-0.102 0.01-0.016 0.02-0.027 0.031-0.027-6e-3 -0.036-0.016-0.015-0.031 0.027m-1.81 1.47c0-0.123 1e-3 -0.25 2e-3 -0.385l-0.017 0.153zm0.026-1.302c7e-3 -0.178 0.014-0.368 0.024-0.576l-0.024 0.012zm2.189 0.049c-0.013-9e-3 -0.027-0.015-0.059-0.023 0.051 0.157 0.032 0.294 0.035 0.34h1e-3c-0.011 0.095-0.021 0.217-0.018 0.326 4e-3 0.094 0.018 0.749 0.032 1.418-0.011 0.156-0.026 0.319-0.032 0.467 0.013 0.122 0.029 0.261 0.048 0.417 1e-3 2e-3 2e-3 5e-3 3e-3 6e-3v0.021c6e-3 0.042 0.011 0.085 0.016 0.129 0.048 0.388 0.08 0.682 0.096 0.883 0.028 0.358 0.033 0.692 0.015 1.001-9e-3 0.09-0.018 0.181-0.027 0.272-7e-3 0.112-0.032 0.13-0.077 0.165-0.058 0.01-0.089-0.012-0.093-0.064-1e-3 -0.016-1e-3 0.017 0-0.012 2e-3 -0.03 2e-3 -0.053 1e-3 -0.068 0-5e-3 -2e-3 -9e-3 -2e-3 -0.015-0.019 1e-3 -0.041 1e-3 -0.064 1e-3l-0.026 0.045-0.014-0.031-0.057 0.092c-0.015-0.025-0.046-0.036-0.098-0.032l-5e-3 -0.063c0-3e-3 -1e-3 -4e-3 -1e-3 -6e-3 -0.048 1e-3 -0.099 3e-3 -0.151 5e-3l0.099-0.053c-6e-3 -4e-3 -0.012-6e-3 -0.018-7e-3 -5e-3 0-0.01 1e-3 -0.015 1e-3 -0.016 4e-3 -0.031 0.019-0.044 0.047l-0.049-0.044c-0.018 1e-3 -0.036 2e-3 -0.055 3e-3 -0.023 0.028-0.05 0.041-0.079 0.039 1e-3 -0.011 1e-3 -0.023 1e-3 -0.035-0.055 4e-3 -0.11 8e-3 -0.167 0.013-0.123 0.01-0.257-9e-3 -0.325-0.021l0.013-0.457-0.055-1.358s0.028-0.609 0.031-0.862c-0.02 0.044-0.17 0.345-0.194 0.401-0.056 0.142-0.09 0.21-0.167 0.407-0.151 0.443-0.249 0.718-0.354 1.046-0.05 0.155-0.101 0.296-0.154 0.424-0.019 0.054-0.038 0.108-0.057 0.156 3e-3 -0.014 7e-3 -0.031 0.01-0.046-0.045 0.102-0.091 0.193-0.138 0.274l-0.011 0.035-9e-3 -1e-3c-1e-3 2e-3 -2e-3 3e-3 -3e-3 4e-3h0.01l2e-3 -3e-3 0.056 2e-3c-0.01 0.03-0.015 0.048-0.015 0.048h-0.082c-0.04 0.062-0.08 0.117-0.122 0.165-3e-3 5e-3 -0.011 0.011-0.022 0.017-8e-3 1e-3 -0.028-9e-3 -0.061-0.031-0.034-0.021-0.059-0.025-0.078-0.013-0.11-0.038-0.168-0.085-0.176-0.141-0.015 1e-3 -0.031 1e-3 -0.046 2e-3 -0.025 2e-3 -0.058 3e-3 -0.095 4e-3 -2e-3 5e-3 -4e-3 0.011-5e-3 0.017-7e-3 -4e-3 -0.014-0.01-0.021-0.017-0.163 3e-3 -0.385 2e-3 -0.385 2e-3l-1e-3 -0.052h0.089v-3e-3c-0.035 0-0.066 0-0.089-1e-3l-0.015-0.737c-0.01 0.197-0.021 0.393-0.031 0.589l-0.087 0.023c-0.012-0.01-0.021-0.02-0.026-0.03 0-5e-3 5e-3 -0.015 0.016-0.029 0.01-0.014 0.015-0.027 0.015-0.037-1e-3 -0.01-6e-3 -0.018-0.014-0.023-0.019 0.012-0.03 0.019-0.034 0.019 0.012-0.049 0.016-0.146 0.012-0.291-3e-3 -0.146 8e-3 -0.254 0.034-0.325-8e-3 -0.407-0.047-1.215-0.114-2.424-0.053-0.976-0.069-1.772-0.046-2.389l0.053 0.083c0.045-0.072 0.071-0.164 0.078-0.276 0.024 0.347 0.03 0.853 0.019 1.517-8e-3 0.642 2e-3 1.134 0.028 1.476 0.011 0.138 0.026 0.271 0.044 0.402 0.014 0.084 0.017 0.216 7e-3 0.397-0.014 0.213-0.018 0.362-0.012 0.446 7e-3 0.086 0.022 0.163 0.045 0.232l-0.012-0.632v-0.219l2e-3 -0.055c0.022-0.088 0.033-0.168 0.029-0.236-1e-3 -0.01-2e-3 -0.02-2e-3 -0.029-3e-3 -0.021-6e-3 -0.042-0.013-0.06l4e-3 -0.075c-8e-3 -0.115-0.015-0.229-0.023-0.343-0.055-0.902-0.071-1.653-0.047-2.254 0.041-0.025 0.059-0.084 0.053-0.179-1e-3 -0.022-1e-3 -0.042-1e-3 -0.06l-2e-3 -4e-3v-0.344l0.475 2e-3c3e-3 -0.01 6e-3 -0.02 0.01-0.03-2e-3 6e-3 -1e-3 0.016 2e-3 0.03l0.666 3e-3v1.341l-0.041 0.362 0.041 0.618s-0.043 0.729 0 0.734c0.041 5e-3 0.466-1.404 0.503-1.657 5e-3 -0.032 0.011-0.063 0.02-0.093 0.02-6e-3 0.056-7e-3 0.128 5e-3 -0.1-0.071-0.068-0.069-0.1-0.095 0.059-0.166 0.148-0.308 0.169-0.47 0.029-0.219 0.232-0.686 0.265-0.745 0.029-0.054 0.922-0.015 1.098-7e-3l-0.01 0.017 0.018 0.348c2e-3 -0.121 4e-3 -0.242 7e-3 -0.364 0.01 0 0.015 1e-3 0.015 1e-3z" fill="#fff"/></g></g></g></svg>
