<svg data-name="Ebene 1" version="1.1" viewBox="0 0 525 244.2" xmlns="http://www.w3.org/2000/svg">
 <g fill="#fff">
  <path class="cls-1" d="m24.1 181v-0.2h-1.1a1.3 1.3 0 0 0 0.3-0.8v-0.2h-2c0.2 0.4 0.3 0.8-0.1 0.9s-0.7 0.6-1-0.4l-1 2c1.4 1 1.6-0.1 2.8-0.8l-0.5 0.8 0.7-0.2a1.4 1.4 0 0 0-0.2-0.6c-0.2-0.8-0.2-0.8 0.6-1.1a2.2 2.2 0 0 0-0.1 0.8z"/>
  <path class="cls-1" d="m93.3 179h-3.8v0.9z"/>
  <path class="cls-1" d="m105 179h-2.7c0 0.1 0.1 0.2 0.1 0.4a10.1 10.1 0 0 0 2.6-0.4z"/>
  <path class="cls-1" d="m74.7 179h-2.9a4.3 4.3 0 0 0 1.4 0.4z"/>
  <path class="cls-1" d="m206.8 179.5h1.1c-0.3-0.4-0.6-0.7-1.1 0z"/>
  <path class="cls-1" d="m213.6 180.1h-0.4v1.2l0.4-0.2c1.2 0 1.9-0.4 2.1-1z"/>
  <path class="cls-1" d="m145.1 182.3h0.2c-0.1-0.2-0.1-0.4-0.2-0.6h-0.1z"/>
  <path class="cls-1" d="m186.8 180.6h0.2a0.7 0.7 0 0 1-0.1-0.5h-0.2a4.3 4.3 0 0 0 0.1 0.5z"/>
  <path class="cls-1" d="m204.3 179.8z"/>
  <path class="cls-1" d="m179.2 180.2z"/>
  <path class="cls-1" d="m179.2 180.3z"/>
  <path class="cls-1" d="m522.8 234c-0.5 0-0.9-0.1-0.9-0.5s0.3-0.5 0.4-0.7l-0.8-0.5c0.8 0.2 1.3 0 1.3-0.8l0.5-0.4 0.6 0.9-0.2-2h-1.1l0.5-0.5c-0.6-0.8-0.9 0.3-1.7 0s-0.2-0.3-0.5-0.5l-0.7-0.2a2.8 2.8 0 0 0 0.1 0.9l-0.8-0.2h-0.9a1.5 1.5 0 0 1 1.6-0.7l-0.8-0.9a1 1 0 0 0-1.4-0.3 3.1 3.1 0 0 0-0.2 0.8c-0.9-0.5-0.8-1.7-1.7-2.2s-0.9-0.8 0.3-1c0.5-0.1 1.2-0.7 1.2 0.5h0.6l-0.3-1.4h1.6a1.5 1.5 0 0 0 0.1 0.7 1.3 1.3 0 0 0 2.2 0.8l1.3-0.8 0.3 0.3-0.5-5.5-1-0.2 0.6-0.7c-0.9 0.4-0.9 0.4-1.7 0.2v-1.1h1.4l0.5-1.1v-1.2l-0.2-0.3-0.3 0.2-0.7 0.5-0.5-0.7a4.2 4.2 0 0 0-0.4-1 3.5 3.5 0 0 0 2 0.1v-31.8h-0.3l0.3-0.3v-0.4h-0.2a2.8 2.8 0 0 1 0.1-0.9l-1.3 0.9c0.4 0 0.8-0.2 0.8 0.4h0.3v0.5h-3.7a0.1 0.1 0 0 1 0.1-0.1c0-0.2 0-0.3-0.1-0.4v0.4l-0.3-0.3c-0.4 0.1-0.6-0.2-0.7-0.6s0.9-1.1 2.2-1.8 0.1-0.5 0.1-0.7h-1.4c-0.2 0.3-0.3 0.2-0.5 0h-0.8c-0.7 0.6-1.5 2.2-1.8 1.7a4.6 4.6 0 0 1-0.1-1h-0.9c0.1-0.3 0.1-0.6 0.2-0.8h-6.8c-0.2 0.6-0.4 1-0.7 0.9s-0.6 0.2-0.9 0.5l-0.7 1.1h-0.2l0.3-1-0.5-0.2v-1.3h-1a2.5 2.5 0 0 1 0.5 0.7c-0.2 0.2-0.3 0.1-0.6-0.3v-0.2c-0.3 0.4-0.3 0.3-0.8-0.2h-0.2c0 0.2-0.1 0.5-0.1 0.9l-0.4-0.9h-0.1a0.4 0.4 0 0 1-0.1 0.5c-0.2 0.1-0.3 0-0.6-0.6h-0.7l0.3 0.6c-0.1 0.9-0.2 1-1.1 0.4v-0.3a1.4 1.4 0 0 0-0.2-0.7h-0.8c-0.1 0.3-0.2 0.5-0.6 0.2a0.5 0.5 0 0 0-0.3 0.3c0.3 1.1-0.2 0.8-0.5 0.9l-1.1 0.4-0.9-0.8v0.2l0.4 0.6c0 1.4 0.1 1.8 0.9 2.5l-0.5 0.4-0.5-0.9-0.5-0.5h-0.8a0.3 0.3 0 0 0-0.1-0.2c0.5 0.3 0.6 0.3 1 0.1a1.9 1.9 0 0 0-0.2-0.8l-0.7-0.6h-0.4c-0.4 0-0.8 0.5-1.2 0.8l0.2 0.7a4.5 4.5 0 0 1 0.1 1.1l1 0.2c-0.3 0.4-0.5 0.9-0.7 1.2s-4.4 2.2-4.6 1.7 0.5-0.5 0.9-1.4l-1.3-1.3c0.1-0.9 0.2-1.5 0.3-2.1s-0.9-0.3-0.7-1.3 0.5 0.5 0.8 0.4 0.6-0.9 0.9-1.5l-0.7-0.3h-1.4l-0.7 0.6a11.3 11.3 0 0 1-4.1 2.3 8.6 8.6 0 0 1-2.7 0.5 5.7 5.7 0 0 0 2.3-0.9 13.5 13.5 0 0 0-5.6-2.2c-1.2-0.1-4.5 1.1-10.1 3.4l-3.2 1.4a1.2 1.2 0 0 0 0.5-1 2.2 2.2 0 0 0-0.4-1.3l-4.9-0.2-8-0.4-15.2-0.8a18.7 18.7 0 0 1 0.7-1.8h-6.3a8.8 8.8 0 0 1-0.2 1.7 28.3 28.3 0 0 1-6.7-1.3l-1.6-0.5h-7.4l-0.7 0.4a4.3 4.3 0 0 0-1.8 2.7l-0.9-0.7a3.7 3.7 0 0 0-2-0.7l1.7-1.7h-11.7a3.5 3.5 0 0 0 0.3 1.2h-0.5l1.3 3.2h0.8l-14.1 1h-0.2l0.3-0.7 1.2-3.6h-1.5l-1.5 3.4-0.8-0.5 0.2-4s-22.9 0.6-33.7 1.1l4.3 1.5a8.3 8.3 0 0 0-2.8-0.5 22.4 22.4 0 0 0-3.5 0.2h-1.6c1.2-0.3 2-0.7 2.2-1.2l-4.2 0.4a3.2 3.2 0 0 1-1.2 3s-4.7-3.1-7.4-3.1-10.4 4.4-11.8 2.5 3.1-1.4 3.1-2.4a4 4 0 0 1 0.3-1.5h-3.7a11 11 0 0 1-1.1 1.4l-2.2 2.3v-3.9h-18.7l1.4 3.1c-0.7-1.4-1.3-2.1-1.8-2.3a7.9 7.9 0 0 0-3.1-0.1h-1.3l1.1-0.6h-4.2a1.1 1.1 0 0 1-0.8 0.3 0.8 0.8 0 0 1-0.8-0.3h-0.8c-1.1 0.4-1.3 0.5-1.7-0.1h-19.7c-0.5 0.8-3.2 1.9-8 3.3l-0.8 0.3-3.1-2.8-2.8 0.5-1.4 4.3-1.5 0.4v-5.7h-1.8l-2.2 1.1v-0.3h-4.2v1.3a14 14 0 0 1-2.9 0c-5.3-0.7-11.4-2.1-11.4-2.1h-3.5l-1.5 0.9c-0.3-0.2-0.7-0.5-0.4-0.8l-1.6 0.5 0.7 0.3h-1.6l-2.5 0.8a1.4 1.4 0 0 1 0.2 0.6h-0.5l-0.3-0.6-1.1 0.4-1.7-1.9v1c0 1.1-1.9 1.2-2.9 1.6s1.2 0.9-0.1 1.5l-1.4-1.1h-1.5l0.8-0.3a3.1 3.1 0 0 1-1.8-1.5c-0.6 0.1-0.9 0.1-1.2-0.1h-1.1l-0.3-0.4h-0.4a0.8 0.8 0 0 1 0.2 0.4h-3c-0.1 0-0.1 0-0.1-0.1s0.1-0.5 0.2-0.8h-0.3l0.2-0.3c0.1-0.1 0.1-0.2 0.1-0.4h-1.2v0.6l-0.2 0.3c-0.6 0.3-0.6 0.3-0.5-0.9h-1.7c-0.5 0.7-1.2 0.8-1.8 1.1v0.6h-0.1v-0.2a1.3 1.3 0 0 0 0.1-0.6h-0.7a0.7 0.7 0 0 1-0.1 0.5v-0.3c-0.3 0.4-0.3 0.6-0.2 0.7h-0.9a7.6 7.6 0 0 1-1.9 3l-2.3 2.4v-5.6h-0.3a6 6 0 0 0 0.2-1.2l-0.9 0.3 0.4-0.6h-1.5l-0.2 0.5-0.3 0.2c-0.1 1.1 0.5 0.9 1 0.9v0.4h-6.1l-0.3 0.6-0.7-0.3-0.4-0.2h-4.4l0.5-0.5-0.5-0.2a3.1 3.1 0 0 1 0.1-1l-1.5 1c0.5-0.1 0.9-0.3 0.9 0.3h0.4v0.4h-4.1c0-0.2-0.1-0.3-0.1-0.4s-0.2 0.1-0.2 0.2v0.2l-0.2-0.2c-0.5 0.1-0.7-0.3-0.9-0.7s0.9-1.1 1.4-1.3h-2.6c-0.5 1.3-1.1 3-1.4 2.6a5.1 5.1 0 0 1-0.1-1h-1.1a12.4 12.4 0 0 0 0.4-1.6h-7.9v0.5c-0.1 0.7-0.4 1.2-0.8 1.2s-0.7 0.2-1 0.5a10.5 10.5 0 0 0-0.8 1.1h-0.2l0.3-1-0.5-0.2a8.2 8.2 0 0 1-0.1-1.4c-0.4-0.1-0.7-0.1-0.8-0.3h-0.4c0 0.2 0.1 0.5 0.6 1.1s-0.3 0.2-0.7-0.3h-0.1c-0.3 0.3-0.4 0.3-1.1-0.5s-0.1 0.6-0.1 1.1a9 9 0 0 1-0.5-0.9h-0.1c0.1 0.3 0 0.5-0.1 0.5s-0.4 0-0.8-0.7h-0.3c0.1-0.1 0.1-0.2 0.1-0.4l-0.7 0.3 0.6 0.9c-0.1 0.9-0.3 1-1.2 0.4l-0.2-0.4a1.4 1.4 0 0 0-0.5-1c-0.4-0.2-0.6-0.3-0.7 0.2s-0.2 0.7-0.7 0.4-0.3 0.1-0.2 0.2-0.3 0.9-0.7 1l-1.2 0.4-1-0.8v0.2l0.5 0.6c0.1 1.5 0.3 1.9 1.2 2.6l-0.7 0.5a9.3 9.3 0 0 0-0.5-1 1.3 1.3 0 0 0-0.6-0.5h-0.9a0.5 0.5 0 0 0-0.1-0.3c0.5 0.4 0.6 0.3 1.1 0.1a3.1 3.1 0 0 1-0.2-0.8l-0.9-0.7-0.4 0.2c-0.5 0-0.9 0.4-1.4 0.8l0.3 0.8c0.1 0.4 0.1 0.8 0.2 1.1l1.1 0.2-0.8 1.3c0.2 0.6-4.9 1.2-5.2 0.6s0.6 0.6 0.9-0.3l-1.4-1.4c0.1-0.9 0.1-1.6 0.2-2.2s-0.8-0.2-0.9-0.5l-0.3 1-3-1.5 0.7-1.6 2.7 1.3c0.3 0.1 0.7 0.5 1 0.4s0.6-0.9 1-1.5h-0.3l-0.3 0.2v-0.4h-0.3c-0.3-0.1-0.7-0.1-0.9-0.5h-32.5a6.5 6.5 0 0 0 0.4 1.3l-4.7-0.5h-1.1c0.1 1-1.1 1.6-3.8 1.6a30.6 30.6 0 0 1-9-1.2v1.5h-1.9v-2.8h-11a8.9 8.9 0 0 1-2.2 2.1h-2.8l-1.2-1.2-0.6 1.2-0.5 0.9c-0.6 1.4-1.4 2.2-2.4 2.3h-0.3a13.4 13.4 0 0 1-2.5-0.2 10.3 10.3 0 0 0-2.5-0.4h0.2l-1.3-0.2c1.1-0.9 1.8-1 2.9-0.4l1.6-0.8-1-0.2a8.8 8.8 0 0 0-2.3 0 9.2 9.2 0 0 1 5.1-0.8l0.4-0.3 2.8-1.7-0.6-0.3h-8.7l-4.3 0.5-0.2-0.2-0.2 0.2-8 0.9a5 5 0 0 0-2.1-0.5 0.1 0.1 0 0 1-0.1 0.1v-0.5c0.4-0.1 0.6-0.1 0.8-0.4h-7.5v0.2l-0.5-0.2h-3.3c0.2 0.7-0.3 1.4-0.3 2l-0.2 0.2c-0.7 0.1-0.7 0.5-0.6 0.9h-0.8l0.5-0.4c-0.9-0.2-1.5-0.1-1.9 0.4h-0.8l0.3-0.8c0.4-0.2 0.3-0.5 0.2-0.8h-0.8v-0.2h0.6v-0.2h-2.8v0.4a0.3 0.3 0 0 1-0.1 0.2h1.2a7.6 7.6 0 0 0-0.9 0.9l-0.7-0.5c-0.4 0.2-0.7 0.3-0.7 0.7l1.3 0.6h0.1v0.3h-0.5a0.5 0.5 0 0 0-0.7 0.1l-5.6 0.6v-0.5l-0.7-0.6v0.7l-0.4 0.2 0.5 0.7h-0.3l-0.5-0.3-0.3-0.9h-0.7l-2-1.6 0.7-0.3h-1.3l-2.8-2.1h-5.3a0.7 0.7 0 0 1-0.4 0.6 3.3 3.3 0 0 1 0.6 1h0.8v0.3a7.3 7.3 0 0 1-0.9 0.8l-0.7-0.8a17.1 17.1 0 0 1-0.7-1.8h-0.2l-0.2 0.3c-0.7 0-0.7 0.5-0.8 0.8s-0.2 0.5-0.3 0.8-1.3-0.4-1.5-0.9 0.3-0.5 0.4-0.8-1-0.1-1.3 0.7h-2.1l-1.3 0.9c-0.8-0.3-0.2-0.6-0.3-0.9s-0.2 1.5 0 2.8h0.1c0.2 1 0.4 1.8 0.7 1.7l1.2 0.6c0.1-0.3 0.1-0.6 0.2-0.9l1.3-0.2c0.4 0.2 0.5 0.5 0.7 0.8h0.7l-0.6-0.8 0.7-0.2c0.4 0.4 0.8 0.7 0.8 1.2l0.2 0.3-0.6 0.8h-0.1v0.2c0.1 0.3-0.1 0.8 0.9 0.5s0.4 0.1 0.3 0.2 0 0.6 0.4 0.6 0.4 0.3 0.2 0.6a1.6 1.6 0 0 1-1 0.5h-0.2c-0.5 0.9-0.4 1 0.5 1.1l0.8-0.5 0.3 0.5h-0.4v0.3c-0.7 0.3-0.8 0.5-0.7 0.6s0.3 0.3 0.6 0.1l-0.9 0.5h1.1c-0.7 0.6-0.8 0.7-0.4 0.9h-0.2c-0.4 0.3-0.5 0.5-0.2 0.7s0.8-0.7 1-0.6a0.4 0.4 0 0 1-0.1 0.3c-0.2 0.2-0.1 0.4-0.2 0.7h-1.3c-0.1 0.1-0.1 0.3-0.2 0.5l-1-0.2 1.1 0.7c0.3 0.3 0.6 0.5 0.5 0.8s0.5 0.7 1.2 0.7h1.1c0 0.2 1.4 0.4 2.1 0.5s-0.2 0.1-0.2 0.3h0.5q0.9 0 0.9 0.6c0 0.2 0 0.4 0.4 0.4a0.4 0.4 0 0 1 0.1 0.3c-0.9-0.1-0.6 0.3-0.6 0.6l0.2 0.6-1.4 0.7a2 2 0 0 0 0.1-0.7h-0.3c-0.9 0-0.5 0.6-0.9 0.9s-0.8 0.6-0.1 1.1h-1.4c0.4 0.4 0.9 0.2 1.4 0.3l0.3 0.7c-0.9-0.1-1.2 0.1-0.8 0.7l-2.3-0.5a3.4 3.4 0 0 1 0.1 1h-1c-0.5 0.4 2 1.4 2.1 2s0.1 0.4-0.2 0.6-0.3 0.3 0.1 0.5 0.6-0.4 1.2-0.2 0.2 0.4 0.2 0.6l-0.6-0.5c-0.7 0.9-0.6 1.1 0.4 1.5h-2c-0.7-1.3-0.4-1.2-1.8-2.2s-0.7 0.4-0.6 0.8l-0.4 0.4 0.3 3.7h0.5a0.5 0.5 0 0 1-0.1-0.3c0.5-0.1 0.4-0.4 0.3-0.8l1 1.2h0.5l1.3 2c-0.1-0.2 0-0.4 0.3-0.3l0.8 0.3h-1.1c-0.1 0.2-0.3 0.3-0.8 0.2h-1.1c-0.3-0.3 0.9-0.4-0.3-0.8h0.7c0-0.2-0.1-0.3-0.2-0.5h-1a0.5 0.5 0 0 0-0.2 0.4l-0.6-0.5 0.8 10.5h0.3c0-0.4-0.2-0.9 0.9-0.9s0.1 0.2 0.2 0.3l1.3 0.6-0.4 0.2h-0.4l1.5 0.8a3.1 3.1 0 0 1-2.1-0.6l0.4 0.8h-1.2l-0.3 0.6h-0.1l0.3 4.3h0.9c0-0.2-0.1-0.6 0.7-0.1h-0.8a0.6 0.6 0 0 1 0.1 0.4h0.1c0.5-0.1 1.2 0 1.5-0.4s0.6 0 1.1 0-0.8 0.6-1.1 0.5-1 0.3-1.5-0.1h-0.1l-0.8 0.2h0.6a2.3 2.3 0 0 0 1.1 1.7l-0.4-0.9c0.4-0.1 0.5 0.1 0.5 0.3l0.8-0.2c-0.1 0.4-0.4 0.4-0.8 0.2s0.5 0.5-0.1 0.6c-0.1 0.4-2.9 0.6-2.3 0.8s3.3-0.3 3.4-0.4-2.2 0.4-1.7 0.6h-1.3c0.1 0.4 0.1 0.8 0.2 1.2h-0.2l-1-0.8c-1.1 0-1.1 0-0.8 0.5h0.9v1h0.3l1.7 1h0.1v-0.3l-0.4-0.3h0.9l-0.5 0.3c0.4 0.1 0.7 0.3 0.7 0.6l0.3-0.4a0.7 0.7 0 0 1 0.1-0.5l1.1 0.2a1.4 1.4 0 0 1 0.9 0.3c0.4 0.3 2.5 0.3 2.7-0.1l0.3-0.4 1.9 0.4c0.1 0.3 0.2 2.6 0.3 2.9h-0.2c-0.2-0.2-0.3-2.3-0.6-2.5l-1.4 0.3c-0.6 0.2 0.3 2.8-0.5 3s-1.8-0.2-2.8-0.1a6.7 6.7 0 0 1 2.5 0.8c-0.4-0.2-2.7-0.3-3.2-0.6h-0.6l-0.5-0.4c0.7-0.1 1.1-2.4 1.4-2.8h-0.4a1 1 0 0 1-0.8 0.1s-0.1 2.2-0.1 2.3-0.5 0.3-1.1 0.2 0.5-2.4 0.7-2.6a0.8 0.8 0 0 1-0.7-0.3h-1.6c-0.2-0.3-0.3-0.7-0.5-1h-1.6l0.2 4.7 0.6-0.4c0.9 0.5 0.6 0.8 0.2 1.1v-0.6h-0.2a1 1 0 0 1-0.5 0.4l0.5 6.1h3.4c-0.1-0.1-0.2-0.2-0.1-0.4a0.1 0.1 0 0 1 0.1-0.1l0.6 0.3-0.7-0.2 0.2 0.3h6.7l1.2-0.8-1.7-0.5v-0.2l-0.5 0.4 0.3-1.1v-0.3l0.3-0.3h0.3l-0.3 0.3a16.9 16.9 0 0 1 2.3-0.1c-0.7-0.7-0.9-0.8-2.6-0.5l-0.3-0.6a3.7 3.7 0 0 1 2.1-0.2h1l-0.3-0.4-0.6-0.5h-0.1l-0.4-0.3h0.7v0.2l0.3-0.2h0.6c-0.1-0.4-0.1-1.3-0.2-1.1s-0.2 0-0.3 0.2l-0.3-0.5-0.5 0.4c-0.4-0.6-0.4-0.6 0.6-1-0.6-0.5-0.6-2.7 0.1-3 0-0.1 0-0.1 0.1-0.3l0.6 0.2 0.8 0.4h-0.7c0.2 0.3 0.3 2.5 0.5 2.8h-0.2c-0.4-0.3-0.7-2.7-1.1-3.1a8 8 0 0 1-0.1 3.1l1.3 0.4c0.3 0.1 0.7 0.2 0.5 0.5s0.3 0.3 0.5 0.4-0.2 0.3-0.4 0.4a0.6 0.6 0 0 0-0.7 0.2 0.9 0.9 0 0 1 0.1-0.5h-0.1a5.6 5.6 0 0 0-0.1 0.7l-0.3 0.3h0.2v0.2h0.1l1.1 0.2c0.5-0.1-0.8-0.3-0.2-0.2s0.4 0.2 0.6 0.4l0.4 0.8h0.2c-0.2 0.2-0.2 0.3 0.2 0.4s-0.1 0.4-0.2 0.6l1.9 0.6 0.7 1 0.3-0.9c1.2 1 4.2 1 4.8 0.7l-0.9-0.2 0.2-0.2a1.4 1.4 0 0 1 1.4 0.3l1.3 0.5h42.7l3.4-1 2.6 0.3 1.2-0.5 0.3 0.7 3.7 0.4h1.2a1.4 1.4 0 0 1-0.2-0.7 9.4 9.4 0 0 0 5.9-0.4l-0.5-2.4 1.1-0.7 1 4.2h11.5v-2.4h8.9c0 0.5-1.2 1.4-3.5 2.4h80.6l0.2-0.2h21.6l0.7-0.2 0.3 0.2h6.5a1.6 1.6 0 0 1 1.6-0.2v0.2h1.7v-0.4c0.8 0.1 1 0.2 0.8 0.4h4.1a12.1 12.1 0 0 1 3.8 0l-0.4-0.7h2.2l0.5-0.6h1.8l0.3 0.8c-1 0.1-2.3 0-2.3 0.7h5.4c-0.8-0.3-2.5 0.1-2.2-0.9l1.1 0.2a4.5 4.5 0 0 1 0.2-0.8l3.2 1.4h0.1a2.8 2.8 0 0 1 2.1-0.6 2.2 2.2 0 0 1-2.1 0.6h3.6l2.5-0.7-0.5-0.7c-0.1 0 0-0.1 0-0.1h0.2c0-0.7 0.8-0.9 1.9-1.1l0.3-0.4a0.9 0.9 0 0 0-1.2-0.1 3.1 3.1 0 0 1-2.2 0.3 3.6 3.6 0 0 0 0.4-1.1h-1l-1.1 0.3 0.9-0.8h-0.2l-1.9 0.6 0.8 0.7h-2.4l0.7-0.7a5.1 5.1 0 0 1-2.4 0.4 2.4 2.4 0 0 0-0.2-0.9l2.1-0.3a7.7 7.7 0 0 0 0.7-1.6l-0.9-0.6-0.5 0.2-0.9 0.5-0.8-0.5-0.8-0.9a8.8 8.8 0 0 0 4.6-0.7 4.1 4.1 0 0 1 3.1-0.3v-1.1h3.2c-0.6 0.5 2 0.8 1.6 0.6l1-0.6h2.4a1.1 1.1 0 0 1-0.1 1c-0.3 0.4-0.1 0.6 0.2 0.9l1.1-0.5a8.1 8.1 0 0 1-0.6-1.3l2.1 0.3-0.5 0.6h0.1l1.2-0.7 0.9 0.7-1.9 0.3a1.9 1.9 0 0 0 0.1 0.8h1.5v0.2c-1.2 0.4-2.4 0.9-3.7 1.2-3.2 0.6-5.8 1.1-1.5 1.6l2.1 0.3c-0.7 0.5-1 1.1-2.1 1.3a22.3 22.3 0 0 1-2.3-0.4c-0.2 0.9-0.2 0.9 2.2 1.2a7.1 7.1 0 0 0-0.1 1.6h12.6l-0.8-1.1c1-0.6 2.5-0.6 3.7-0.8-1.2-0.7-1.4-0.7-3.8 0.1l-0.7-0.7a9.4 9.4 0 0 1 3-0.7l1.4-0.3-0.5-0.3-2-0.7c1.3 0 2.5-0.2 2.6-0.1s1.5 0.3 2.4 0.4a2.5 2.5 0 0 0-0.2 0.7l3.6 0.8c0.1-0.3 0.1-0.5 0.2-0.8s2.5-1.8 4.4-1.9l1 0.3a3 3 0 0 1 0.8 0.8c1.8-1.4 3.3-0.3 5-0.3a1.5 1.5 0 0 0-0.1 0.7l2.9 0.2 1.4 0.8a3.1 3.1 0 0 1 0.1-1c2 0.8 2 0.8 2.8 0.3h-1.3c0.1-0.1 0.1-0.3 0.2-0.3a3.7 3.7 0 0 1 2.1 0l2 0.2a8.3 8.3 0 0 1 0.4 1.2l1.3 0.2-0.4 0.9h0.4l1.7-1a6 6 0 0 1 2.1-0.4c1 0.1 1.7-0.4 1.7-1v-1c0.6 0 1.1 0 0.9 0.4s0 0.6 0.9 0.6l-0.2-0.5c0-0.6 0.4-0.8 1.6-0.8s1 0 0.9-0.4h0.8c-0.2 0.8 1 0.5 1.6 0.6l1.6-0.2 2.2 1.3h-2c0 0.1-0.1 0.2-0.1 0.3s1.7 0.4 2.5 0.8a3.3 3.3 0 0 0 3 0.2l0.4 1.2c1.2-0.3 0.4-0.7 0.6-1.2l1.8-0.3c0 0.9 0.6 1.2 2.1 0.8l-0.9 2h9.9c0.2-0.2 0.9-0.2 1.5-0.2l-0.6 0.3h4.4c0-0.3-0.2-0.6 0.7-0.9l0.3 0.9h9.6v-0.4l2.3 0.2-0.2 0.2h6c-0.1-0.3-0.1-0.6 1.1-0.9l-0.4 0.9h18.9a0.9 0.9 0 0 1 0.1-0.5c0-0.4 0.1-0.7 1-0.8l-0.9-0.5 2.9-0.7 0.4-0.9-3.1-0.2c-0.1 0.1 0 0.3-0.2 0.4l-2.6 0.5c-0.3 0.1-0.7-0.1-1.5-0.2a58 58 0 0 0 6.3-2.1l-0.2-0.3-5.8 1.5 0.7-0.8h-0.7c-0.7 0.3-1.4 0.4-1.9-0.2s-0.6 0.9-0.8 1.3a4.9 4.9 0 0 1-2.5-0.5c-0.5-0.3-1.9-0.1-3.2-0.1a1.5 1.5 0 0 0-0.3-0.6l1.7 0.2c0-0.2 0.1-0.3 0.3-0.6l1.2 0.6c1.2-0.3 0-0.6 0.3-0.9l1.8-0.7h-1.4c0-0.1-0.1-0.1-0.1-0.2l1-0.2c0.7-0.1 1.6 0 2.2-0.6a18.1 18.1 0 0 1 2.2-0.4l-1.3-0.2-0.9-0.6c1 0 1 0.3 0.9 0.6 1.2-0.6 2.7-0.2 4.1-0.4a13.6 13.6 0 0 1 0.2 2l-3.4 0.2c0.8 0.3 0.1 0.9 0.5 1.3a5.9 5.9 0 0 0 3.4-0.9c0.1-0.1 0.3-0.2 0.4-0.1a2.1 2.1 0 0 0 2-0.6l0.8 0.3-0.6 2.1a19.4 19.4 0 0 0 5 0.2c-1.1 1-1.9 1.1-3.5 0.5a3.5 3.5 0 0 0-1.1-0.3l1.3 1.2a16.4 16.4 0 0 0-2.2 0.2 6.9 6.9 0 0 0-1.5 0.7l0.7 1.2 2.9-0.2 2.6-0.4c0.7-0.1 1.2 0.3 1.9 0.3l-1.7 0.3h21l-0.6-0.2 0.8-1.4h-1.5c0.2-0.3 0.5-0.7 0.4-1s0.3-0.5 0.7-0.8 0.7-0.5-0.2-0.6l-1.3-0.3 0.9-1.7 2.4-0.2v0.2l-1.3 0.4 1.3 1.3c0.6 0.6 2-0.2 2.6 0.5-1 0.6-0.1 1.2 0.4 1.9l-1.2 0.4a3.8 3.8 0 0 0-2.1-1.2l-1.3 1.2h0.1c0.1 0.6 1.5 0.8 1.3 1.5h16.6v-0.3l1.4 0.2h58.6l0.2-0.3c0.1 0.1 0.2 0.2 0.2 0.3h8.1a6 6 0 0 1 2-0.8v-0.5c-0.6 0-0.7-0.1-1.2-0.7 1.1 0 2-1 3-0.1l0.8-0.7-2-0.4a2.8 2.8 0 0 1-0.1-1h-0.1c-0.5-0.6-1.5-0.4-2.2-0.8l-0.4-0.4 0.5-0.3h0.3c0.5-0.5 0.6-0.5 0.8 0s0.1 0.6 0.6 0.7 0.3 0.6 0.4 0.9h0.1a2.3 2.3 0 0 1 2.4-0.4 7.6 7.6 0 0 0 0.1 1.5 3 3 0 0 1 2.3-0.2c0-0.8-1-0.7-1.3-1.4a6.9 6.9 0 0 0-1.5-1.4l-0.3 0.4c-0.3 0.4-0.6 0.5-0.7 0s-0.5-0.5-0.9-0.5v0.7l-0.9-0.8 1.3-1.4c-0.1 0.4-0.1 0.6-0.2 0.9l3-0.2-0.6-0.5 7.4 0.5c1 0 8.7-1 10.3-1.4l0.4 0.5 2.1-0.7-0.5-0.7 0.3-0.2a7.4 7.4 0 0 1 2.1 0.9l-0.9 0.3 1.2 0.7a1.2 1.2 0 0 1-1.7-0.3l0.3-0.4c-0.7 0-1.2 0.2-1.1 1.1l0.9 0.4 0.2 0.2h-0.7l0.2 0.3 1.3 0.4c0.1 0.6-1.1 2.2-0.1 2.4s0.7 0.5 0.8-0.5l1.2 1.8c-1.2 1.2-1.5 0.1-2.8-0.5l0.6 0.8h-0.8a6.4 6.4 0 0 1 0.2-0.7c0.1-0.8 0.1-0.8-0.7-1l0.2 0.8h-1.7v-0.2h1.1c-0.2-0.3-0.4-0.5-0.4-0.8s0.2-0.4 0.3-0.7-1.8-1.3-3.2-0.7h1.2v0.2l-1.3 0.4 0.4 0.3c-1.4 0.2-1.7 0-2-1.2a13.4 13.4 0 0 1-0.6 1.2h-0.8a7.5 7.5 0 0 1 0.6 1.3c0.2 0.8 1.2 0.5 1.3 1.2l-1.3 0.7c0 0.3-0.1 0.6-0.1 0.9h-0.2c-1.6 0.3-1.6 0.3-2.4-1.4-0.7-0.4-0.1-0.9-0.2-1.3a2.1 2.1 0 0 1 0-0.8l-1-0.3c0 0.3 0.1 0.6 0.1 1.1l-2.6-0.3c-0.7 0.8 0.2 1.6 0.3 2.4a0.2 0.2 0 0 0 0.2 0.2c0.7 0 0.8 0.4 0.7 0.8h0.8l-0.5-0.3a1.6 1.6 0 0 1 1.9 0.1c0.1 0.1 0.1 0.1 0.1 0.2h3.5a0.5 0.5 0 0 1 0.7 0h5.7v-0.2l0.5-0.7a6.4 6.4 0 0 0 0.2 0.7l0.3 0.2-0.4 0.8h0.3l0.5-0.5a5.1 5.1 0 0 1 0.2-0.9h0.7l5.3-4.9a0.7 0.7 0 0 0-1.1 0.3c-0.5-0.5-0.7 0-1 0.1l-1.8-0.7h-0.1v0.7h-0.5c-0.2-0.6 0.1-0.7 0.5-0.7h0.1c-0.1-0.6-0.1-1.1-0.2-1.6l-1 0.9c-0.4-0.4-1.1-0.4-0.8-0.9h1.8c1.3 0.8 1.8 0.7 2.8-0.3l-1-1.4 1.1-0.4 2.3 1.8h1.3l0.3-0.3v-0.7zm-522.5-52.1c0.9-0.1 0.1-1.1 1.7-0.8 0 0.6-0.7 0.8-1.7 0.8zm2.5 1.3-0.2-0.3h0.1l0.4 0.4zm0.7-2.8-0.2-0.4h0.2l0.3 0.4zm2.2 5.8h0.2c0 0.1-0.1 0.1-0.2 0zm-0.6-2.6zm0.9-1.2c-0.5-0.5-0.5-0.9-0.2-1.3s1.1 0.8 0.2 1.3zm1.2 3.6zm0 6.4v-0.3h0.3zm-1.8 15.2v-0.3h0.5zm1.4 1.8c0.3 0.3 1.1 0.6 0.8 1.1s-1.1-0.7-0.8-1.1zm0.4 1.7c0.4-0.1 0.8-0.4 1.1 0.3zm-1.1 4.8h-0.7v-0.2h0.7c0.1 0.1 0.1 0.1 0 0.2zm0.2 2.2v-0.2zm5.7 21.3c-0.6 0.2-2.6 0.2-2.8-0.3zm-4-0.6c-0.1 0.2-0.2 0.3-0.4 0.2zm-0.6-1.2 0.3 0.2-0.2 0.2-0.3-0.2a0.2 0.2 0 0 1 0.2-0.2zm-1-0.4 0.3 0.2h-0.5zm1.2 0.9c-0.3 0.5-0.3 0.5-1.2 0.5v0.5h-0.3a2.9 2.9 0 0 1-0.2-0.9zm-2.3 2.9 0.3-0.4 0.9 0.7zm1.6 1.5c0.5-0.1 0.5-0.1 0.9 0.6zm1.1-2h-0.9l-0.4-0.7 1.1 0.3-0.3-0.4h1.8a1.5 1.5 0 0 1-1.3 0.8zm0.3 0.8v-0.5h0.3a4.3 4.3 0 0 1-0.1 0.5zm0.8 0.1h0.2l-0.5 0.2-0.3-0.2zm-0.3 0.6h0.1-0.1zm0.5 0.7-0.3-0.2h0.2l0.4 0.2zm0.7 0.4 3 0.2a6 6 0 0 1-3-0.2zm2.2-0.7h0.1l0.2 0.3h-0.2zm1.9-3.5c-0.2 0.2-0.4 0.3-0.6 0.2s-2.9 0.3-3.7-0.2l3.3-0.4a1.1 1.1 0 0 1-0.1-0.6l0.5 0.5c0.1 0 0.1-0.1 0.2-0.3l0.6 0.2-0.5 0.4zm0.9 0.4v0.2h-0.7v-0.2zm0.5-1.4c0 0.2-0.1 0.3-0.1 0.4h-0.7c0.2-0.2 0.5-0.5 0.8-0.4zm3.2-19.4v0.6h-0.2l-0.3-0.4 0.5-0.2v-0.4h0.1l0.4 0.3zm-0.8-0.4-1.1-0.3c-0.2 0.3-0.4 0.5 0.1 0.7s0.5 0 0.7-0.1a1.4 1.4 0 0 1 0.2 0.6h-1.5c-0.3-0.5-2.3-0.9-3.4-1.2 1.5 0.4 3.2-0.1 2.8-0.6l0.5-0.2c0 0.3-0.1 0.6-0.1 0.8h0.2l0.3-0.7c0.6 0 1.4 0.2 1.9-0.2zm0.1 1.6h-0.9l0.2-0.3zm-7.8-8.4c-0.2-0.2-0.5-0.6-0.4-0.6s0-0.6 0.1-0.9h0.2l0.8 1.7zm0.5 5.1-1.4-0.3c0.4-0.1 0.9-0.3 1.4 0.3zm-0.4-10.4c-0.5-0.2 0.4-0.3 1.3-0.6l-0.2-0.2h0.7l0.3-0.2v0.2h1c0.4 0.1-1.3 0.2-0.8 0.4l-0.7 0.2-0.3-0.2c-0.6 0-1.4 0.2-1.3 0.4zm0.5 1.9-1.1 0.3a2.5 2.5 0 0 0 0.2-0.7zm1.8 1.3c0.3 0.2 2.6 0.4 2.9 0.6h-0.2l-2.4 0.3c-0.2 0-0.3 0.2-0.4 0.3s0.1-0.9-1-1.1zm4.2-10.1-0.4 0.4-0.5-0.4h-0.1l-0.2-0.2zm-0.5-0.9zm0.5 14.8 0.7-0.6c0.4 0.5 0.4 0.5-0.7 0.6zm0.7 3.5c-0.4-0.3-0.8-0.6-0.2-0.9v0.5zm-1.5-3.3 0.7-0.2c0 0.2 0.1 0.4 0 0.4zm0.3 2.6h-0.1l-0.2-0.6h0.1a1.4 1.4 0 0 1 0.2 0.6zm-0.3-15.9zm0.3 10c0.3 0 0.2 0.1-0.1 0.1zm0.3 2.4c0.1-0.2 0.1-0.3 0.2-0.4s0.4 0.2 0.3 0.3l-0.2 0.2zm0.6-4c-0.9-0.4-0.2-0.7-0.5-1s0.7 0.6 0.5 1zm-0.2-9.5-0.4-0.4h0.2a1.2 1.2 0 0 1 0.5 0.5zm-1.7 10.3c-0.3-0.4 0-0.4 0.6-0.3zm0.6 3.3a0.6 0.6 0 0 1-0.1 0.4h-0.2v-0.5zm0.3-13.9c-0.2 0-0.2 0 0 0zm-1-14.5a2.7 2.7 0 0 1-1.2-0.3l-0.8 0.2 0.4-0.3h-0.6l0.2-0.2h2.4c0.2 0 0.3 0.3 0.5 0.4s-0.7 0.3-0.9 0.2zm-1.3 12.9h0.1c-0.2 0.1 0.4 0.2 1.1 0.3l0.6 0.3a12.6 12.6 0 0 0-2.6-0.6l-1.5-0.8 0.2-0.2a1.4 1.4 0 0 0 1 0.6zm1 0.4h-1.5c0-0.2-0.1-0.3-0.3-0.5a13.4 13.4 0 0 1 1.8 0.5zm0.2 3.6-0.3 0.2h0.3zm-2.2 10.9-0.4-0.5h0.2c0.2 0.2 2.3 0.3 2.5 0.5zm0.1 0.6a0.8 0.8 0 0 0-0.1 0.4h-0.2a0.8 0.8 0 0 1-0.1-0.4zm-0.3-1.6c-0.2 0.1-0.1 0 0 0zm0.2 4.6c0.4 0.1 2.4 0.3 2.4 0.4l0.7 0.3h-3.8zm5.7-5.4c-0.2 0.5 0.4 1.1 0.6 1.6s-0.8-0.2-1.6-2.1c0.7 0 1.1 0.1 1 0.5zm-0.4-28.3a10.1 10.1 0 0 1-4.8 0.9c1.6-0.3 2.8-1.3 4.8-0.9zm-5.3-1.2h1c0 0.1-0.1 0.1-0.1 0.2h-1zm-1.4-1.3zm-0.1-0.4zm0.7 1.6-1.4-0.5c1-0.4 1.1 0.2 1.4 0.5zm-0.8 0h-0.7c0.8-0.4 0.7-0.1 0.7 0zm0.2 1.4c0.1 0.6 0.1 0.6-0.9 0.9zm-1.5-2.9-0.3-0.2h0.3zm0.4 0.2h-0.1v-0.1zm-0.1 4.1 1.6 0.2-1 0.8-0.8-0.8zm1.2 11.8a1.4 1.4 0 0 0 0.2 0.6h-0.1l-0.3 0.2a0.5 0.5 0 0 1-0.3-0.5v-0.2zm-0.7-0.8 0.3-0.3v0.3zm-1.2-0.5zm-2.3-11v-0.2c0.2-0.1 0-0.5 0-0.8l0.5 0.4v0.2zm1.2 12.3-1-0.2c0.4-0.3 0.7-0.4 1 0.2zm-0.1 0.9h-0.8l0.3-0.4h0.2l0.2 0.4h0.1c0.5 0.1 1 0.2 1.2-0.2s2.8 0.8 3.1 1.1l-0.7-0.2 0.8 0.3h-0.1c-0.6-0.1-4-0.5-4.3-1zm4.8 5.6c0.6 0.1 0.9 0.3 0.7 0.7l-1.6-0.2zm-0.6 0.9-0.7 0.4c-0.1-0.3 0-0.5 0.7-0.4zm-1.1-0.9c0.5 0.7-0.3 0.4-0.7 0.4zm0.2 1.3h-1.1l0.2 0.2-0.5-0.2h0.3c-0.1-0.3-0.3-0.5-0.4-0.8zm3 2.1c-0.3-0.2-4.5-0.7-4.7-1s4.8 0.6 4.7 1zm-6.2 0.7c-0.8-0.3 1.7-0.5 1.7-0.8s-1.7 0.5-1.7 0.8zm0.6 1.1h0.2c0.1 0 0.3 0.1 0.3 0.2h-0.1zm-0.6 2.7a1.5 1.5 0 0 0-0.1-0.6c0.6 0.4 1.2-0.1 1.8 0.5zm0.5 3.6h0.9c0 0.3-0.1 0.5-0.1 0.8s-0.9-0.4-0.8-0.8zm-0.3 14.4h-1.2l0.8-0.9c0.6 0.3 0.7 0.6 0.4 0.9zm0.5 4.7-0.7 0.6c-0.2-0.4-0.2-0.7 0.7-0.6zm0 1.2c-0.4-0.3-0.4-0.3 0.4-0.8zm2.7-8.2 0.2-0.3 0.3 0.2a2.3 2.3 0 0 0 0.1 1.4c-1.2-0.4-1.4-0.8-0.6-1.3zm0.1 2v-0.7l3.1 0.3v0.2zm0.7-2c0.1 0 0.2 0.1 0 0.2zm0.1 0.5c0.2-0.2 2.4-0.3 2.6-0.5s-1.8 0.6-2.6 0.5zm2.8 4.2c0.2-0.4 0.3-0.6 0.9-0.2zm1-1.2-0.6-0.6c0.8 0 0.8 0 0.6 0.6zm-0.4-3c-0.1-0.2 0.4-0.2 0.6-0.1l0.7 0.8a0.6 0.6 0 0 1-0.9-0.1c-0.2-0.2-0.4-0.4-0.4-0.6zm1.5 8-0.5-0.3q0.3 0.1-0.3 0.3c-0.1-0.2-0.1-0.4-0.2-0.6h0.4l0.8 0.8zm0.6-1.2zm0.5-4.2c0 0.2-0.1 0.3-0.2 0.5s0 0.6-1.1 0.3 1-0.3 0.7-0.7h0.6l-1-0.4 1-0.2v0.6zm0.5-4.6h-2.2a5 5 0 0 0-0.4-1.3c-0.3 0.2-0.8 0-1.2 0.1a1.5 1.5 0 0 1 0.1 0.7l0.8 0.6a0.2 0.2 0 0 1 0.2 0.2c-0.2 0.3 0.2 0.5 0.7 0.8l-0.3 0.2a28.3 28.3 0 0 1-4.1-0.3h-0.8a1.1 1.1 0 0 0 0.1-0.5l-0.6-0.4-1.4 0.2 0.3 1.1 0.5 1c0.2 0.2-0.3 0.4-0.2 0.7l-0.5-0.8c-0.3-0.5-0.6-0.4-1.1-0.2s-0.2-0.4-0.1-0.5 0.7-0.1 1.1 0.1h0.1l-0.5-0.5h-1.3l-0.2 0.5-1.4-1.4 0.7-0.3 0.9 0.7h0.3c0-0.2-0.1-0.4-0.1-0.6l1 0.3v-0.7l1 0.2c0.4 0 0.8 0.1 0.9 0.4h0.1l0.5-0.3h-0.3c-0.2-0.3 0.8-0.5 1.1-0.7l-0.5-0.7 2.7 0.2a0.1 0.1 0 0 1 0.1-0.1c-0.3-0.3-0.5-0.6 0.2-0.7s-3-0.3-3.4-0.4a1.7 1.7 0 0 1 0 1.9c0-0.4-1-0.4-0.7-0.9l-0.6-0.2c-0.1-0.2 0.5-0.4-0.1-0.7a3 3 0 0 0-0.4 0.8c-0.4-1.1 0.1-1.8 1.3-1.8v-0.6h0.2l0.8 0.3c0.1-0.2 0-0.6 0-0.9h2.6c-0.1 0.3-2.1 0.4-2.2 0.6l2.7 0.2-2.7 0.4c0.4 0.5 2.8 0 3.1 0.2l0.8 0.7v-0.5h0.1l0.4 0.4c0.1 0.3 0 0.6 0.6 0.9s0.4 0.5 0.5 0.8a0.8 0.8 0 0 0 0.2-0.4l0.7-0.3c0 0.3-0.3 0.3-0.7 0.3 0.7 0.2 0.3 0.7 0.6 1.2zm0.1 2.4c0.3 0.5 0.3 0.5 0 0.8zm0.5 4.3h-0.3l0.2-0.4h0.3zm0.8-22.7-0.5-0.2c0-0.1 0.1-0.1 0.1-0.2l0.5 0.3zm0.6-1.9h-0.4l0.3-0.5h0.1zm9.3-22.6zm7.4 0.1c0.3-1.8 0.6-1.9 2.6-1.9zm2.1-2.5a3.4 3.4 0 0 1-1.4 0.1c-0.4-0.1-0.6-0.4 0-0.7s0-0.4-0.1-0.6l-1.4 0.4c0.2-0.5 0.2-0.5 1.4-0.4h0.5a2.2 2.2 0 0 1 2.3 0.4zm18 5c-0.1 0-0.2-0.2-0.1-0.2l0.8-0.2 0.2 0.2zm7.7 0.8h-0.2l0.8-0.3 0.3 0.2zm4.4 55.5a2.7 2.7 0 0 1-1.4-0.4h2.9a4.2 4.2 0 0 1-1.5 0.4zm32.1-59.1c-0.8-0.3-1.1-0.6 0.3-0.8zm2.9-0.7h-0.1c0 0.2-0.1 0.4-0.1 0.6l-1.1-0.3c0.1 0 0.1-0.1 0.1-0.2h1.2c0.2-0.4 0.2-0.9-0.8-1.1a3.1 3.1 0 0 1 2.8-0.1 3.3 3.3 0 0 1-2 1.1zm17.8-0.1c-0.8 0-1.3-0.1-1.3-0.7zm-12.9 1.9a5.4 5.4 0 0 0-1.9-0.4l1-1a2.5 2.5 0 0 0 0.7-1.5 6.1 6.1 0 0 0 0.2 1.5c0.2 1.1 0.7 1.7 1.6 1.8zm0.9-3.3-1.1-1h2.8zm6.6-1.2h-0.3v-0.4l0.4 0.2zm2.1 3.8-1.5-2.5 1.7-0.6h1a6.9 6.9 0 0 1-0.2 1.3l-0.3-0.2 0.3 0.9v0.2l0.3 0.8zm3.1-1.1 0.5 1h0.7l-0.6 0.4a0.4 0.4 0 0 0-0.1-0.3l-1.9 0.3zm5.8 3.4a2.1 2.1 0 0 1-1.6-1 2.5 2.5 0 0 1-2.4 0.4c-0.9-0.3-1.4-0.7-1.4-1.3l6.5 1.3a1.7 1.7 0 0 1-1.1 0.6zm17.9-3.6zm38.2 59.8zm3.2-7.7zm-0.6 6.8 1-0.7c0 0.5 0 0.5-1 0.7zm2-6.8zm0.4 8.4c0.5-0.2 0.9-0.7 1.9-0.2zm4.3-3.6 1.5 0.2c-1 0.5-1.2 0.2-1.5-0.2zm1.2-0.6c0.9-0.1 0.2-1.1 1.7-0.8s-0.7 0.8-1.7 0.8zm7.9-2.5c0-0.4-0.1-0.7-0.1-1.1l1 0.3c0.1 0.3 0 0.7-0.9 0.8zm2.7 4.8-0.8-0.8 0.2-0.2 1.6 0.3zm-0.2-4.2c1-0.4 1.1 0.2 1.4 0.4zm3.3-51.2 0.4 0.2h-0.5l-0.4-0.2a0.4 0.4 0 0 1 0.5 0zm-1.1 51.8zm2.3 3.5-2.1-0.6c0-0.1 0.1-0.1 0.1-0.2h2.4c0.2 0 0.4 0.3 0.5 0.4zm-1.7-1.5c1.5-0.3 2.7-1.3 4.7-0.9a8.6 8.6 0 0 1-4.7 0.9zm16.2-57.5 1 0.3-0.3 0.2-1-0.3zm-0.4 52.6c0.6 0.3 0.4 0.5-0.7 0.7l0.4-0.7zm-3.9-51c0.8 0.7 0.8 0.7-0.6 0.8zm-3.1-2 1.8 0.6c-0.7 0.2-0.7 0.2-2.3-0.2zm0.5 1.9-1.4 1c-0.4-0.3-0.8-0.4-0.7-0.6s1.3-0.2 2.1-0.4zm-3.4 2.2a4.2 4.2 0 0 0 0.4-1.2c0.6 0.8 0.6 0.8-0.4 1.2zm0.9 0.9c-0.1-0.4 0.1-0.7 1.2-0.6a7 7 0 0 0-0.6 0.9zm0.5 51.6 0.4-0.6h0.4a9 9 0 0 0 0.5 0.9zm1.2-3 0.9-0.4h0.2l-0.7 0.5zm0.9 2.3c0-0.3 0.4-0.6 1.4-1 0.6-0.6 0.7-0.6 1.9 0h-1.9l2.3 0.5zm3.8-53.1c0.9 0.2 1.9 0.4 1.9 1.1l-2 0.4a7.6 7.6 0 0 0 0.1-1.5zm0.2 52.1 0.3-1c0.7 0.5 0.7 0.5-0.3 1zm2.3 1.7-1.7-0.2c0.6-0.2 1.2-0.7 1.7 0.2zm0.7 1.8c-0.9-0.1-0.9-0.3-0.2-0.8l1.3 0.8zm1.3-54.9-0.4-0.5h0.3l0.7 0.4zm1.2 1.6v-0.2l1.4-0.3v0.3zm0.9-3.1 0.9-0.2v0.2h-1zm0.5 1.1h-0.1l0.5-0.4c0.1 0.2 0.3 0.3 0.2 0.3zm-2.1-2.2a5.4 5.4 0 0 1-0.6-1.1h2c-0.4 0.8 0.7 1 1.5 1.4zm1.5-1.7-1.3-1.1c1.5-0.3 2.1 0.4 3.1 0.7zm2.2 3.1 0.4-0.9c0.7 0.5 0 0.7-0.4 0.9zm3.2 2.3a7.6 7.6 0 0 1 1.6 0.3l-0.2 0.2a3.8 3.8 0 0 1-1.5 0.1c-0.3 0-0.5-0.2-0.8-0.3zm0.5 49.9-1.3-0.8c0.7 0.1 1.8 0.1 1.3 0.8zm-1.1 4.1c0.4-1.8 0.6-2 2.7-2zm2.1-2.6a3.6 3.6 0 0 1-1.4 0.2c-0.3-0.1-0.6-0.5 0-0.8s0-0.4 0-0.6l-1.5 0.4c0.3-0.4 0.3-0.4 1.4-0.4h0.1c0.1 0.1 0.3 0.2 0.4 0.1s1.8-0.1 2.3 0.4zm1.3-53.8c-0.2 0-0.4-0.1-0.4-0.2l0.5-0.3 0.4 0.2zm2.4 2.7c-0.1-0.6-0.1-1-0.2-1.4s-1.4 0.1-1.2-0.5a4.7 4.7 0 0 0 2-0.2c-0.8 0.7 0.7 1.3-0.6 2.1zm3.1-2.9 1.6-0.2h0.1l-1.6 0.3-0.1-0.1zm0.5 1.4 1.1-0.4a2.8 2.8 0 0 1 0.5 0.8zm3.7-0.8-0.4-0.3h0.2l0.5 0.3zm16.8 1.6c-0.9 0.7-1.1 0.2-1.5-0.1a1 1 0 0 1 1.5 0.1zm-9.8 56.8h-0.1l0.9-0.3c0 0.1 0.1 0.2 0.1 0.3zm2.5-2.2c1.2-0.9 2-0.9 3.3 0a4.7 4.7 0 0 1-3.3 0zm5.2 3.1-0.2-0.2 0.8-0.3 0.3 0.2zm1.2-2.2-0.4-0.5h0.3l0.5 0.5zm-2.9-2.2a8.7 8.7 0 0 0-2.3 0c2.5-1.2 5.6-1.2 7.4 0-1.8 0.1-3.4 0.6-5.1 0zm21.6-57.5-0.3-0.2 1.1-0.6h0.3zm2 2.5 0.8-0.8 0.4 0.2c-0.4 0.2 0.2 0.7-1.2 0.6zm0.3-4.3c0.5-0.5 0.5-0.5 1.4-0.2zm2.8 6.8a0.4 0.4 0 0 0-0.1-0.3l0.8-0.2a0.4 0.4 0 0 1 0.1 0.3zm5.1-1.9a4.5 4.5 0 0 0 0.2 0.8l-0.9-0.7h0.7c0.2-0.4 0.2-0.4 0.9 0.1zm2-1.4h-0.1l-1.2 0.3-0.2-0.4-0.8 0.2c0-0.2 0-0.3 0.1-0.4a1 1 0 0 1 1.4-0.1l0.7 0.4h0.1l2-0.2c-0.3 0.6-0.5 1.3-1.4 1.1s-1.1-0.3-0.6-0.9zm4.4 56.5c-0.7-0.3-1.1-0.6 0.3-0.8zm2.9-0.7h-0.1c0 0.2-0.1 0.4-0.1 0.6l-1-0.2v-0.3h1.2c0.2-0.4 0.2-0.8-0.8-1.1a3.3 3.3 0 0 1 2.9-0.1 3.9 3.9 0 0 1-2.1 1.1zm-1.7-2.3h-1.8c-0.3 0.2-0.8 0.3-1 0.6a8.5 8.5 0 0 1-1.9 0.6l0.8-1-1.3-0.4v-0.1l3.3 0.4h0.1a1.4 1.4 0 0 0 0.2-0.6c1.7 0 3.3-0.1 4-1.1h2l-1.5 0.7h1.3c0.1 0.4 0.3 0.8 0.4 1.3zm7.1-2.2zm1.8 1.1a3 3 0 0 0-0.4-0.8c0.6 0.3 0.6 0.3 0.4 0.8zm5.2 0.7h-0.3l0.2-0.4 0.3 0.2a0.2 0.2 0 0 1-0.2 0.2zm5.3-50.6 0.3 0.4-0.4 0.2-0.2-0.6zm0.1 53.2c-0.7 0-1.3 0-1.3-0.7zm-1.9-56.8a2.1 2.1 0 0 1-1.1 1.9c0.6-0.5-0.2-1.6 1.1-1.9zm-0.3 57.7-1.2-0.7c1.6-0.3 1.1 0.3 1.2 0.7zm-0.1-1.3-1.4-0.9c0.1-0.5 0.6-0.7 1.6-0.5a9.3 9.3 0 0 1-0.2 1.4zm0.3-54.4 1.3 0.5c0 0.2-0.1 0.3-0.2 0.6s-1.2-0.2-1.1-1.1zm2.5 56.2-0.2-0.3-1.9 0.4 1.5-1.4 0.4 1h0.7zm26-3.5-1.8-0.7c1.4-0.3 1.4-0.3 1.8 0.7zm-8.5-1.8c1.6 0.2 2.9-0.3 4.3-0.4-0.5 0.7-0.5 0.7-5.5 1.2-0.1-0.5 0.3-0.9 1.2-0.8zm1.3 3.3-1.2 0.5c0.3-0.7 0.3-0.7 1.2-0.5zm-12.7 1.7 0.7 0.6-1.4 0.6-0.3-0.2zm-5.1-54.4c1.1-0.7 0.1 0.1 0.7 0.9s0-0.9-0.7-0.9zm1.7 55.1c0.7-0.9 0.7-0.9 1.9-0.8zm2.2 1.3c1.4-0.5 1.8 0.3 2.9 0.2-0.8 0.5-0.8 0.5-2.9-0.2zm5 1.3-0.4-0.2a0.9 0.9 0 0 1 0.5-0.3l0.5 0.2zm0.7-6.7c0.6-0.7 1.5-0.7 2.7-0.5-0.9 0.9-1.9 0.2-2.7 0.5zm1.4 6 0.7-0.8a6.9 6.9 0 0 0 1.2 1zm2.6-3.5 1.2 0.6c-1.2 0.2-1.3 0-1.2-0.6zm2.6 2.2-1.3-1 1.6-0.8a0.8 0.8 0 0 1 0.2 0.4h0.4c0.3-0.7 0.8-1.3 2.5-1.3-0.3 0.4-0.3 0.9-0.8 1s-0.3 0.6 0.2 0.9-2.4-0.2-2.8 0.8zm4.7 1.2a3.4 3.4 0 0 1-1.5 0.4c-0.7-0.4-1.6-0.1-2.3-0.2l-0.5-0.2 4.7-0.6c-0.1 0.2-0.1 0.5-0.4 0.6zm-0.3-2-0.2-0.2 1.1-0.4 0.3 0.3zm2.4-3.5-1-0.3c-0.2-0.2 0.4-0.3 0.8-0.2l0.4 0.2zm0.3 0.6h1.3v0.2h-0.7zm1.3 2.8h-1.1a0.6 0.6 0 0 1 0.1-0.4l1.1 0.2zm1.1-2.9h-0.3l-0.8-0.7h1.2c0.1 0.3-0.1 0.5-0.1 0.7zm18.5 3.1a7.1 7.1 0 0 1 1.7-0.4l0.2 0.2-1.2 0.5 1.2 0.8a12 12 0 0 1 6-0.1c-1.2 0-1.1 0.9-2.3 0.5l-0.5 0.6c-0.6 0.1-1.2-0.5-2 0.1l2.3 0.4c-3 0.2-4.9-0.3-5.1-1.3h-1.5a6.3 6.3 0 0 1 1.2-1.3zm-5.1-5.6 0.3 0.4h1.7v0.2l-1 0.2-0.6-0.5h-1.3zm-8.3 2.6 1.6-0.2h0.1zm2.6 0.1c0.2 0.6 0.1 0.9-1 0.8zm-2 2.6a1.6 1.6 0 0 1 1.6-0.1c0.3 0.1 0.3 0.4 0.5 0.8zm0.5-3.8h2.1c-0.7 0.2-1.2 0.6-2.1 0zm2.3 2.9c0.8-0.2 2.5-1.2 2.4-1.4s-0.4-0.2-0.5-0.4h2.1v-0.2l-1.9-0.3c-0.2-0.5 0.4-1.2-0.9-1.6l3 0.5-0.7 1a2.5 2.5 0 0 0 1.9 0c0.1-0.1-0.3-0.5-0.4-0.7h1.4l0.6 1.3c-1.4 0.3-5.2 2.4-7 1.8zm7.7-2.7 0.8-0.6a2.2 2.2 0 0 1 0.1 0.8zm42.4 5.6-0.4-0.2h0.5l0.4 0.2c-0.2 0-0.4 0.1-0.5 0zm-5.6-7.8h0.7l-1.6 1-0.6-0.4zm-19.6 4.9-1.5-0.6c1.2-0.2 1.6-0.1 1.5 0.6zm1.3-1.6a8.6 8.6 0 0 1-1.7 0.3c-0.5 0-0.6-0.4-0.2-0.6l1.8-0.6c0.6 0.3 0.6 0.6 0.1 0.9zm-1.1-2.5c1.3-0.3 1.3-0.3 2.2 0zm1.9 6.5 0.7-0.9h0.5l0.7 1.1zm4-3.4c0-0.7 0-0.7 1.6-0.5zm2.5-1.3c-0.7-0.2-0.9-0.8-2.1-0.6l-0.3-0.6-1.1 0.9-0.5-0.9h1.6l1.4 0.2c1.5 0 1.5 0.1 1 1zm1.7 0.9 0.6 0.9c-1.1-0.2-1.6-0.3-0.6-0.9zm7.1 2.3 1.7 0.7c-1.2 0.1-1.9 0.1-1.7-0.7zm1 1.4 2.2 0.4c-0.9 0.3-0.9 0.3-2.2-0.4zm7.5-5.1 0.9 0.4c-1.4 0.4-1.4 0.4-2.5-0.5h-0.1a2.8 2.8 0 0 1-2.9-0.2h-0.9l1.3-1.3a5.6 5.6 0 0 0 0.1 0.7l2.2-0.4v0.2l-2.8 0.9h0.1a6.5 6.5 0 0 1 2.8 0.2h0.1l0.8-1.3c1.1 0.3 2.3-0.1 3.4 0.3s1.2-0.1 1.7-0.2h0.1c0.3-0.2 0.5-0.6 1.2-0.4s0.8-0.2 1.2-0.4l1.2 0.4c-0.7 0.8-2.2 0.8-3.9 1l1.8 0.2-1.8 0.9-1.3-1zm4.3 3.4-1.4-1.1h-1.5l2-0.7 0.7-0.2c1.4-0.1 2-0.5 2.1-1.3l1.1 0.2c0 1.1-1.9 1.2-2.9 1.6s1.2 0.9-0.1 1.5zm0.5 2a4.2 4.2 0 0 0 0.4-1.2c0.6 0.9 0.6 0.9-0.4 1.2zm1.5 1.2-0.6-0.3c-0.1-0.4 0.1-0.7 1.2-0.5zm0.5-2.4-0.7-0.5c0.3-0.7 1.4-0.3 2.1-0.5zm0.4-2.4c0.2-0.2 0.3-0.4 0.5-0.5l1.8 0.6c-0.7 0.2-0.7 0.2-2.3-0.1zm12.4-3.9h0.5v0.2l-2 0.3-0.5-0.5zm-5.6 0h3a6.7 6.7 0 0 1-3.2 0.1zm-3.3 2.7a1.4 1.4 0 0 1 0.2 0.6h-0.4l-0.3-0.6zm-0.5 3.6 0.6-0.8c0.8 0.6 0.8 0.6-0.6 0.8zm1.9 1.5v-1.6c0.9 0.3 1.9 0.4 1.9 1.2zm-0.1-5.7v-0.3a3.9 3.9 0 0 1 2.8 0.1zm3.8 2.2-1-0.2 0.3-0.3 1 0.3zm0.3-2.3c-0.4-0.3-0.9-0.7 0-1.1a1.2 1.2 0 0 1 1.5 0.2zm0.5 5-0.3-0.6h0.2l0.7 0.4zm1.2 1.5h-0.1l1.4-0.4 0.2 0.3zm1-3.1zm0.4 1.2v-0.2l0.5-0.4 0.3 0.3zm-2.1-2.3-0.6-1h2c-0.4 0.8 0.7 0.9 1.5 1.4zm1.6-1.6-1.3-1.1c1.4-0.4 2 0.4 3.1 0.7zm2.1 3a5.9 5.9 0 0 1 0.4-0.8c0.8 0.4 0 0.6-0.4 0.8zm1.6-5.7h3.2l-3.2 0.2zm3 8.6a7.5 7.5 0 0 1-1.5 0c-0.3 0-0.5-0.2-0.8-0.3l0.9-0.3 1.6 0.4zm2.4-8.6zm-0.2 0.6 0.9 0.2-0.3 0.2-0.9-0.2zm-0.8 5c-0.1 0-0.4-0.1-0.3-0.2l0.4-0.3 0.4 0.3zm2.4 2.7c-0.1-0.5-0.1-0.9-0.2-1.4s-1.4 0.1-1.2-0.5a5.3 5.3 0 0 0 2.1-0.2c-0.9 0.7 0.7 1.3-0.7 2.1zm3.1-2.9 1.6-0.2h0.1l-1.6 0.3zm0.5 1.4 1.1-0.4a2.8 2.8 0 0 1 0.5 0.8zm3.7-0.8-0.4-0.3h0.2l0.5 0.3zm12.2-2.2h-0.5a0.3 0.3 0 0 0 0.1-0.2h0.6zm3.1 3.7c0.8-0.5 1.1-0.1 1.5 0.2s-1.1 0.1-1.5-0.2zm2.6-4.4 1.8-0.7 0.7 0.5zm16.7 0.3-0.3-0.2 1.1-0.6h0.3zm2 2.5 0.8-0.7h0.4c-0.4 0.3 0.2 0.9-1.2 0.7zm0.3-4.3c0.5-0.5 0.5-0.5 1.4-0.1zm2.8 6.8a0.4 0.4 0 0 0-0.1-0.3h0.9v0.2zm6-8.4h0.4c0 0.3 0.1 0.7 0.1 1s-1.3 0.5-2-0.6l1.6-0.3zm-0.7 7.4-0.9-0.8h0.8c0.1-0.4 0.1-0.4 0.8 0.1h-0.9a2.9 2.9 0 0 1 0.2 0.7zm1.7-2.3h0.1l2-0.2c-0.3 0.6-0.5 1.4-1.3 1.1s-1.2-0.2-0.7-0.9l-1.2 0.4-0.3-0.5-0.8 0.2a0.8 0.8 0 0 0 0.1-0.4c0.5-0.3 0.9-0.5 1.4 0zm2.2-4.8c0 0.7-0.6 0.8-1.1 0.9s-0.9-0.3-1-0.9l2-0.3h0.3zm3.7 0.2-1.2 0.5a3.2 3.2 0 0 1-1.6-0.9h3.7zm18.2-0.3-0.2-0.2h0.3s-0.1 0.1-0.1 0.2zm2.3-2.5c0-0.1 0.1-0.1 0.1-0.2h0.1c-0.1 0.1-0.1 0.2-0.2 0.2zm-4.2 8.2c0.6-0.5-0.1-1.6 1.1-1.9a2 2 0 0 1-1.1 1.9zm2.1 1.2c-0.6-0.1-1.2-0.2-1.1-1.1l1.4 0.5zm0.7 1.1-0.2-0.5h0.3l0.3 0.5zm1.7-0.7c1.1-0.7 0.1 0.1 0.7 1s0-0.9-0.7-1zm1.7-12.6c0.1 0.3 0.2 0.4 0.6 0.4s0.3 0.5 0.2 0.8l-1.4-0.6a13 13 0 0 0 0.3-1.5 4.7 4.7 0 0 1 0.3 0.9zm0-5c-0.3 0.6 0.2 0.2-0.7-0.3l0.9-0.2c0.3-0.1-0.4 0.6-0.2 0.5zm-0.9-1.2v-0.3l0.4 0.2zm0.1 1.6a0.4 0.4 0 0 1-0.1 0.3v-0.3zm4.8-9-0.9 0.6h-1a0.5 0.5 0 0 1 0.1-0.8c0.1-0.1 0.1-0.5 0.1-0.7l0.3 0.2a1 1 0 0 1 1.4 0.7zm-0.6 1.3-2.1 1.9c0.5-2 0.7-2.1 2.1-1.9zm-0.8-2.5-0.7-1.1c0.5 0.2 1.1 0.4 0.7 1.1zm-0.3 0.3-1 0.3c0.2-0.5 0.2-0.5 1-0.3zm-2.2-6.7-0.5 1c-0.4-0.6 0-0.7 0.5-1zm-0.3 13.5c-0.1-0.2-0.1-0.5-0.2-0.8h0.8c0.2 0.1-0.6 0.9-0.3 1a2.1 2.1 0 0 1 0.4-0.6h1.2c0 0.3 0.1 0.6 0.1 0.9s-1.5-0.1-1.6 0.5h-0.1v0.3h0.1c-0.1 0-0.1 0-0.1 0.1a3.2 3.2 0 0 1 2.1 0.4c0.3 0.2 1 0 1.6 0s-1.8-0.2-1.4-1.4l0.7 0.4a9.2 9.2 0 0 1 0.3-0.9l1.9 2a1.6 1.6 0 0 1 1.5-0.5 1.3 1.3 0 0 1-1.5 0.5c-0.1 0.5-0.3 0.9-0.4 1.4l0.8-0.5c0.5 0.4 0.7 0.8 0.3 1.1s-0.9-0.1-1.1-0.6l-3.2-1.3c-0.8-0.3-0.8-0.3-1.7 0.1s-0.1-0.5 0.1-0.7c-0.1 0-0.2-0.2-0.2-0.3h-0.8v-1.4zm-1.2 8.8a0.9 0.9 0 0 0 0.9 0.5 2.7 2.7 0 0 1-1.2 0.4 1.6 1.6 0 0 0 0.3-0.9zm0.5 3-0.7-0.4h0.1l0.7 0.3zm0.3-2.2 0.9 0.9c-0.8 0-0.8 0-0.9-0.9zm4.2 4.2h-1.4l0.6-0.9h-0.1a2.2 2.2 0 0 1-2.4 0.1l1.9-0.5c0.2 0 0.4 0.3 0.5 0.4h0.1z"/>
  <polygon class="cls-1" points="466.4 182 466.5 179.9 464.6 179.9 464.5 181.9"/>
  <path class="cls-1" d="m495.6 180.1z"/>
  <path class="cls-1" d="m522.6 181.4h-0.1v0.4h0.1z"/>
  <path class="cls-1" d="m522.5 181.9z"/>
  <path class="cls-1" d="m16.3 239.9v0.2c0.1 0.2 0.1 0.2 0.2 0.2a0.4 0.4 0 0 1-0.1-0.3z"/>
  <path class="cls-1" d="m18.1 180.2a2.9 2.9 0 0 0 1.4-0.4h-0.8c-0.1 0.2-0.2 0.3-0.6 0.4z"/>
  <path class="cls-1" d="m33.2 180.7 0.9-0.3c-0.2-0.1-0.3-0.3-0.5-0.3h-1.9c0 0.1 0.1 0.2 0.1 0.3z"/>
  <path class="cls-1" d="m33 179.9z"/>
  <path class="cls-1" d="m28.7 180.5h-0.5l-0.2 0.2 0.3 0.2z"/>
  <path class="cls-1" d="m524.9 236z"/>
  <path class="cls-1" d="m395.2 181.4 0.6 0.9z"/>
  <path class="cls-1" d="m3.2 185.7-0.9 0.5 0.4 0.5a1.3 1.3 0 0 1 0.7-0.6z"/>
  <path class="cls-1" d="m3.7 187.2v-0.8l0.5-0.2-0.4 0.5 0.8-0.5-0.2-0.5-1 0.4c0.1 0.4 0.2 1.1 0.3 1.1z"/>
  <path class="cls-1" d="m5.2 185.7h0.1s-0.1-0.1-0.1 0z"/>
  <path class="cls-1" d="m5 186.2c-0.4 0.5-0.4 0.6-0.1 1l0.6-0.2-0.3-0.8c0.1-0.2 0.2 0.4 0.4 0.8s-0.2-0.9-0.3-1.2h-0.1z"/>
  <path class="cls-1" d="m5.3 185.8h0.1a0.1 0.1 0 0 0-0.1 0z"/>
  <path class="cls-1" d="m329.9 178.9 2.6 0.4a6.7 6.7 0 0 0 3.4-0.2l-1.3-2.6-2.8 1.4z"/>
 </g>
 <g fill="#be1622">
  <path class="cls-2" d="M31.7,165.5c1-.4,5.4-.7,5.5.1a8.3,8.3,0,0,1,1.9,1.7,3.2,3.2,0,0,1-.3-1.8l2.7-1.3c.3,0,.3-3.5.5-4.9s0-.6.1-.6.3-.2.3-.4a10.4,10.4,0,0,0-.2-1.5,13.7,13.7,0,0,1-.2-1.6H39.4a7.1,7.1,0,0,1,1.5,2.2c-.6.7-2.1-.7-2.1-.9a1.8,1.8,0,0,0-1.1-1.3,2.7,2.7,0,0,1,.8,1.6l-3.9.3-.2.3-.3-.3h.5v-.2l-1.3-.9-.3.4,1,.7-4.9.2c.2.3.3.5.4.5l-.7-.5h.3L29,157c-.4-.5-.6-.8-.6-1.1s.1-.6.3-.7a3.4,3.4,0,0,1-2.1-.3v-2.4a.4.4,0,0,1-.4.2c-.1,0-.1-.1-.1-.3a3.4,3.4,0,0,0,.4-1.2h0a7.8,7.8,0,0,0,.2-1.6c0-.3-.1-.7-.1-1.3V147c0-3.3,1.9-5.3,5.7-6.2.7-.2,2.4-.3,5-.6a16.1,16.1,0,0,0,4.7-.8V128.8h-.6l-.9.4-1.3.3-.5-.5a1.3,1.3,0,0,1-.3.7,15.4,15.4,0,0,1-3,.4c-3.8.3-6.2.6-7.2,1a9.4,9.4,0,0,0-5.9,5.3c-2-4.3-5.5-6.5-10.6-6.5a11.3,11.3,0,0,0-8.3,3.5A11.4,11.4,0,0,0,0,141.8v24.3H30.7C30.8,165.2,32,165.1,31.7,165.5Zm8.9-7.7.4.2-.4,1h-.4Zm-1.8,2.9,2.9.6v.5l-2.9-.6Zm-.3,4.5v.4l-.8-.4ZM26.1,138.8h1.4v.5H26.1Zm-.6,2.1,1.7-.3v.5l-1.7.3Zm-4.9,7.7-.3-1.7h.6l.3,1.7Zm2.5-1.1v.4l-.8-.4v-.4Zm-.7-1h-.6v-.8h.6Zm-.1-1.5c-.4.2-.5.4-.5.5a11.7,11.7,0,0,1-.7-1.5,1.1,1.1,0,0,1,.7.3C22.1,144.6,22.3,144.8,22.3,145Zm-1.4-1.1a2.7,2.7,0,0,0-.7-1.9c.5,0,1,.4,1.4,1.2Zm.1-5.6a4.3,4.3,0,0,0,.3,1.7l-.6-.6-.4-.5c-.2.1-.3.2-.3.4S20.3,138.5,21,138.3Zm-1.7,1.9h1.4v.6H19.3Zm-.2-4.6a.4.4,0,0,1,.1.3.6.6,0,0,1-.2.5.6.6,0,0,1,.1.6c-.1.2-.2.3-.4.3Zm-.3,6.2.8.3-.2.4-.7-.3Zm-.2-4.2v.4l-.7.4-.2-.4Zm-1.4,1.5h1.1v.5H17.2Zm-.9.6.7,1.1-.4.2-.7-1ZM6.4,157.4l-1-.4v-.5l1.2.4Zm5.7.4c0-.1-.3-.3-1.1-.7l.7-.7A1.5,1.5,0,0,1,12.1,157.8Zm4.2-.9h-.4l.4-1.1h.4Zm2.4-4.2a5.6,5.6,0,0,0-.3,2.4c-1.3,0-2.1.2-2.5.7a3.9,3.9,0,0,0-2.3-.7l.7-.7-1.4-.4c-.1.1-.1.2-.1.4s0,.2-.1.2l-4.3.8v-4.2c0-2,.1-4,.2-6a5,5,0,0,1,1.5-3.1,4.1,4.1,0,0,1,3.1-1.4q1.7,0,4.2,2.1H18a.4.4,0,0,1,.4-.2v8.7h0v.5h1.1C19,152.1,18.7,152.4,18.7,152.7Zm6.1,3.9h-.4l-.2.4-.8-.6c0-.4.3-.7.9-1l-.6-.6a1.7,1.7,0,0,1,1.2-.3l-.6.4A13.2,13.2,0,0,1,24.8,156.6Zm3.6.8h-.8v-.6h.8Z"/>
  <polygon class="cls-2" points="30.1 155.9 30.2 155.4 29.1 155.1 29.1 155.5"/>
  <path class="cls-2" d="m8.9 120.5z"/>
  <path class="cls-2" d="M8.8,120.4l-.6-.7c-.1-.1-.1-.3-.3-.4a1.1,1.1,0,0,1,.3.5.5.5,0,0,1-.2.4Z"/>
  <path class="cls-2" d="M14.8,147.9c0,.2.3.5.8,1.1l.2-.6a.6.6,0,0,0,.2-.5c-.1-.2-.4-.2-.7-.2S14.8,147.8,14.8,147.9Z"/>
  <polygon class="cls-2" points="15.3 147 15.7 147.2 16.1 146.4 15.7 146.3"/>
  <path class="cls-2" d="M10.1,144.7l.9-1H9.5Z"/>
  <path class="cls-2" d="M1.5,116.2l6.6,2.6a1.4,1.4,0,0,1,.2-.6l.9,1h0a5.2,5.2,0,0,0,1.3.6l-.8.7H9.4l1.6.3a1.7,1.7,0,0,1,.2-.9l9,3.7-.5.6h.8a19.8,19.8,0,0,1,6.3,1.7,23.8,23.8,0,0,0,6.1,1.9l.6.3-.2-.4.5-.2.2.8.5.3,1.4.7,1.3-.6c.5-.2.9-.4,1.2-.3l.2-.2h-.3v-.3a1.2,1.2,0,0,1,.4-.8,5.6,5.6,0,0,1,1.1,2l.8-.3a1,1,0,0,0-.1-.4,1.1,1.1,0,0,1-.1-.5,1.4,1.4,0,0,1,.4-1.1l.4.5c-.1.1-.1.2-.1.6v.2l.4-1.4a16.6,16.6,0,0,1,.1-4.2.9.9,0,0,0,.7.3c-.5-.5-.8-.8-.8-1.1s0-.3.1-.3a.4.4,0,0,0,.1-.3c0-.4-1.2-1-3.6-1.9h-.8l.2.8c0,.2-.7-.3-1.4-.8h0l-1.9-1.5.3.2c.1-.1.1-.2.1-.4a8.9,8.9,0,0,0-1.1-1.9c-.7-1.2-.2-2.2,0-1.8a1.3,1.3,0,0,1,.3.8c0-1.3-.1-2.5,0-3.8a14.4,14.4,0,0,1,.1-1.8,16.4,16.4,0,0,0,.1-2,3.8,3.8,0,0,0-.1-1h.5a3.5,3.5,0,0,0-.6-.9c-.1-.6-.2-1.3-.4-2.1h0l-.3-1c1.5.2,3.6.1,3.9.2s4-1.4,4.4-1.4V98a.6.6,0,0,0,.2-.5h-.2V90.1H40.3V90a3.5,3.5,0,0,1,.8-2.4,15.9,15.9,0,0,1,.4,2.3V71h0V67.6c-.1,1.5-.3,2.7-.4,3.4h0a5,5,0,0,1-.3,1.2V71c-.1-1.3-.1-2.3-.1-2.8a5.4,5.4,0,0,1,.1-1.1,5.4,5.4,0,0,0,.1-1.1q0-6.2-5.7-9.9l.7-1-.4-.2-.7,1a1.6,1.6,0,0,1-.7-.7l-.2-.4-.6.2-.4-.2,2.1-1.6-.3-.4-2.3,1.8A25.1,25.1,0,0,0,21,51.9,23.2,23.2,0,0,0,7.6,55.8,14.9,14.9,0,0,0,.6,69V89.9H31a6.6,6.6,0,0,1,2.6.6c-.3.6-.8,1.9-1.2,2.9h.1a3.4,3.4,0,0,1-.1.9,28.9,28.9,0,0,0,.6,7.6.4.4,0,0,0,.1.3c-.9-.1-1.6-.3-1.7-.6a4.1,4.1,0,0,1-.4-2.6s.8-3.4.8-3.9l.6-1.7L6,103.1l-5.3,2s-.2,9.7-.6,10.1l.6.6C.2,116.3,1.5,116.2,1.5,116.2Zm38.3,11.2.3.8h-.4l-.3-.7Zm-3.3.6a1.2,1.2,0,0,0,.1.5l-.4.2h-.6a.5.5,0,0,1-.5-.3l-.2-.3a2.2,2.2,0,0,1,1.7-.7A.4.4,0,0,0,36.5,128Zm1.3-6.4.6,1-.4.3-.7-1.1Zm.2,5.6a1.5,1.5,0,0,0-.4.8,8.4,8.4,0,0,0-2.1-1.3A5.1,5.1,0,0,1,38,127.2Zm-3.7-1.6h.8v.5h-.8Zm.5.9v.4l-.9.3-.2-.4Zm5.9-52.2h.5v1.6h-.5Zm-.2,2.1h.4V78h-.4Zm-5.2-.6H34.2v-.5h1.1Zm1,17.7a3.7,3.7,0,0,1,.4-1Zm4.4,4h-.5V96.4h.5Zm-.8-6.9a2.5,2.5,0,0,1-.2.7l1.1.4a.6.6,0,0,1,.1.4v.4h-.2l-1.1-.3v0l-2.2-.2v-.3a1.3,1.3,0,0,1,.8-1.2l1.7-.7A3.5,3.5,0,0,1,39.9,90.6Zm-1.3-3.5v1h-.5v-1h.5ZM38.2,80l.4.9h-.4l-.4-.7Zm-.3,10c-.9,1-1.4,1.4-1.4,1.3a.8.8,0,0,1-.1-.7,1.8,1.8,0,0,0,.1-.6ZM36.7,69.5V70l-.6.3-.2-.4Zm-2.2.3c.2-.1.3-.3.4-.4v1.1a2.3,2.3,0,0,1-1.2-.1Zm-.4-3h0Zm-1.9,1.5a3.4,3.4,0,0,0,.1-.9l.4.9c0,.1-.1.2-.2.4l-.5.4A4.5,4.5,0,0,1,32.2,68.3Zm-.3-.8-.2.3a2.9,2.9,0,0,1-.2-.9A2.1,2.1,0,0,1,31.9,67.5ZM17.5,53.8l.2.5-2.1,1.8-.4-.4Zm-4.2,3,.4.3-.7,1-.4-.3ZM5.4,68.4l-.3-.7h.4l.4.8Zm1.8,7.7H6.4v-.5h.8Zm.7-2.2H7.4v-.8h.5Zm24,5.3c-.3.1-.4.5-.4,1.4l-.6-.6a2.2,2.2,0,0,0-.2,1c0,.8-1.2,1.1-.9-.1l-17.1-.7,1.3-.3h3.6a10.4,10.4,0,0,0,3.5-.5c-.1-.2-.7-.3-1.9-.3l-9.6.3V75.9h-1a1.9,1.9,0,0,0,1-1.7A2,2,0,0,0,9,72.7c1-2.7,2.7-6.3,4-7.5s4.5-2.5,8-2.5,7.3.9,8.9,2.9c.2-2.6.4-.8.6.4h.1a7.7,7.7,0,0,0,.7,2L28.8,71h.1l1.1-.7V71h0a2,2,0,0,1-.1.7,4.1,4.1,0,0,0-.2.7,4.2,4.2,0,0,0,.5-1.4,5.2,5.2,0,0,1,.2-1.1c.2-.9.5-1.4,1-1.4a8.5,8.5,0,0,1,.4,1.5,3.9,3.9,0,0,1,.8-1c.3-.2,1.3-1.2,1.3-1.5a15,15,0,0,1-.7,2.7h0c.2-.2.3-.2.4-.1h-.5c-.1.3-.2.6-.1.6h2l.2-.3.7.3H36l-.3.5-.7-.4H33.5l.3.2-.4.2c-.7.5-1,.9-1,1.3a1.6,1.6,0,0,0,.3,1.1l-.2.2.7-.6a9.2,9.2,0,0,1-.1,1.5,10.4,10.4,0,0,0-.1,1.6c0,.3.1.5.3.5s.3,0,.5-.1l-.3.3a1.9,1.9,0,0,0-.2.7c0,.1,0,.2.1.2h.4s.1,0,.1.2a8.6,8.6,0,0,1-.3,1.7C33.4,80.7,31.9,81.8,31.9,79.2Zm-1,46.4h.8v.5h-.8Zm1,.7a2,2,0,0,1-.3.8l-.7-.3Zm-5.7-20.1v9.1l-14.3-4.7Zm-17,11.2-1.3.5a2.6,2.6,0,0,0,.3-1.1c.7.3,1.1.5,1.2.7Zm.9-4.7c-.9,0-.1-.6,0-1.1Zm0-3.7.2.5a1.3,1.3,0,0,1-.3.7C10,109.7,9.5,109.3,10.1,109Zm-.2-1v.6L8.8,108Zm-2.5-.8h1v.5h-1Z"/>
  <polygon class="cls-2" points="16.5 150.2 16.8 150.5 17.8 149.8 17.6 149.4"/>
  <polygon class="cls-2" points="24.2 108.8 24.9 109.1 25.2 108.7 24.4 108.4"/>
  <rect class="cls-2" x="18.3" y="96.3" width="1" height=".52"/>
  <polygon class="cls-2" points="29.6 74.1 29.2 75.2 29.7 75.2 30 74.2"/>
  <rect class="cls-2" x="32.3" y="75.8" width=".5" height="1.04"/>
  <path class="cls-2" d="M31.4,72.8a9.2,9.2,0,0,0,.1-1.5,3.3,3.3,0,0,1-.4,1.7h-.8c.5.1.8.4.8.8a3.5,3.5,0,0,1-.1.6c0-.2-.3-.3-.8-.3a28.3,28.3,0,0,0,1.5,2.8,25.4,25.4,0,0,1,1.4,2.5c-1.2-2.8-1.8-4.5-1.8-5.2S31.4,73.4,31.4,72.8Z"/>
  <polygon class="cls-2" points="30.5 76.4 30.2 75.5 29.8 75.7 30.1 76.4"/>
  <path class="cls-2" d="M30.2,77.2h.5c0,.1.1.2.1.4s-.2,1.4-.4,1.4.3.1.3.2-.3.4-.8.9l.8.8a9.1,9.1,0,0,1,.3-2.7l.6.5a3.2,3.2,0,0,1-.6-2.2Z"/>
  <path class="cls-2" d="m27.7 72.4-2.1 2.2a11.7 11.7 0 0 1 2.8-1.8z"/>
  <path class="cls-2" d="M21.4,79.6l2,.2a8.3,8.3,0,0,0,2,.2h3.2c-.4-.4-1.6-.7-3.5-.7A19,19,0,0,0,21.4,79.6Z"/>
  <path class="cls-2" d="M25.5,77.1a.5.5,0,0,0,.4.5h.4c.2-.3.4-.5.4-.7l-.9-.8c-.4-.3-.6-.5-.6-.7h-2l1.5.6A1.2,1.2,0,0,1,25.5,77.1Z"/>
  <path class="cls-2" d="M27.9,72l1-1h-.1Z"/>
  <polygon class="cls-2" points="27 75.3 28.3 73.7 27.9 73.4 26.6 75.1"/>
  <rect class="cls-2" x="6.6" y="41" width=".5" height=".78"/>
  <path class="cls-2" d="M9.7,41.5a2.6,2.6,0,0,1,1.9-.3L10.5,41l-1.2-.3A2,2,0,0,0,9.7,41.5Z"/>
  <rect class="cls-2" x="11.9" y="40.6" width="2.2" height=".47"/>
  <path class="cls-2" d="M33.1,70.3h-.5l.3.2Z"/>
  <path class="cls-2" d="M12.8,51h.4a1.5,1.5,0,0,1-.1-.6c0-.4,3.1-2.3,3.1-2.3v1.3a.8.8,0,0,0-.2.6.8.8,0,0,0,.1.7h1.1c0-.1.2-.1.4-.2a.6.6,0,0,0,.1-.4.7.7,0,0,0-.1-.5h0a6.4,6.4,0,0,1,1.8.6l-.4.2a.9.9,0,0,1-.6-.3c-.2.2-.3.3-.3.5s.1.2.1.3h3.7l2.3-.7c.1,0,.4.3.8.8l8.5.2v-.4h.6v.4h-.6v1h.6v-1h7.1v1.2h.5l.2-2.1h-.4V40.7H29.1a1.4,1.4,0,0,1-.2-.6l-.8.6H14.9c-.6.8-6,1.1-6.7,1.1s-.5.4-.5,0c-.1,1.3-.9.6-1.1.4a5.9,5.9,0,0,1-.5-.8,1.1,1.1,0,0,0,.2-.6H.3V51.4H13Zm13-1.3-.7.4-.2-.4.9-.4Zm9.4-7.9h.7v.5h-.7Zm-12,5H38.6v2H36.2c-1.1,0-1.8.2-2,.6l-2-.5-2.4-.3a6.1,6.1,0,0,0-3,.8,3,3,0,0,0-1.9-.7l-1.7-.2V46.8Zm-4.7,1.4a2.3,2.3,0,0,1,.3.9l-.9-.2-.8-.2A2,2,0,0,1,18.5,48.2Z"/>
  <path class="cls-2" d="M15,49.6a1.3,1.3,0,0,0,.3.7l.6.5c-.4-1.3-.7-1.7-.6-1.4a.6.6,0,0,1-.1.6Z"/>
  <path class="cls-2" d="M21.8,51l1.7.2,1.8.2-.3-.3H21.8Z"/>
  <rect class="cls-2" x="25.4" y="63.4" width=".5" height=".78"/>
  <path class="cls-2" d="M13.2,50.9l.2.5h2.7l1.5-.5Z"/>
  <path class="cls-2" d="m32.5 70.3z"/>
  <path class="cls-2" d="M.6,22.6V23h0c.1.8.2,1.9.3,2.8s.7,0,.8.2-.2,0-.4-.1-.2.1-.2.3a12.5,12.5,0,0,0,1.3,3.2c.4.6.6,1.1.9,1.6h0a8,8,0,0,1,.9,1.4,1,1,0,0,0,.6-.2c.2,0,.4,0,.5.2a2.3,2.3,0,0,0,.1,1.4A17.8,17.8,0,0,0,14.8,39h0a32.4,32.4,0,0,0,6.4.6,25,25,0,0,0,4.7-.5h.7l3.1-.9c3.2-1.3,5.5-2.9,6.8-5.1h-.6a4.3,4.3,0,0,0,2.2-1.2l.7-.7.7-.7-.9-.2,1.1-1.7a10.7,10.7,0,0,0,.9-1.9c0-.2,0-.2-.3-.1h-.2a.3.3,0,0,1-.1-.2l1.4-2.5-.5-.5h.3c.1,0,.2,0,.2-.3h0a1.8,1.8,0,0,0-.8-1.7c.5-.3.8-.6.8-.9a.3.3,0,0,0-.3-.3c-.2,0-.2-.2-.2-.4a.4.4,0,0,1,.1-.3c.1-.1.1-.2.1-.4a12,12,0,0,0-.2-3.1l-1.5-4.6H38.3l-.8-.3a2.1,2.1,0,0,0-.9.5l-.7.4a.9.9,0,0,1,.1-.5l.2-.3a1.4,1.4,0,0,1-1.1-.5,2.6,2.6,0,0,0,.4-1l1.3.3L38,10a.9.9,0,0,1-.7-.3l.5-.3q.3-.2.3-.3a12.3,12.3,0,0,0-2.5-2.7,6.8,6.8,0,0,0-3.3-1.5V3.8l-1.9-.9a2,2,0,0,1-.1-.7,4.8,4.8,0,0,1-2.1-.6V4h.1c0,.2.1.3.2.5a.6.6,0,0,1,.2.5,1.7,1.7,0,0,1-.6,1.2l-2.4-1,.6-.5-.8-.3a.7.7,0,0,1-.4.6c-.3.3-1.3-.8-2-1s-2.7-1.6-3-1.6-7.1-.5-7.5,2h.1c-.1,0-.1.1-.1.2V4.4A11.4,11.4,0,0,1,9.4,5.7,3.3,3.3,0,0,1,8,5.3L8.6,5A2.3,2.3,0,0,0,7,5.8L5.3,7.3l.6.2C4.6,7.5,3.3,9.1,2,12.2A18.6,18.6,0,0,0,.3,18.5a35.8,35.8,0,0,0,.3,4.1Zm37.7,6.1H36.1v-.5h2.2ZM36.7,27l.2-.4.7.3-.2.4Zm1.8-1.3a.9.9,0,0,1-.3.6c0-.4-.5-.6-1.3-.6a5.1,5.1,0,0,0,1.4-.4A.4.4,0,0,1,38.5,25.7ZM37,24.8v-.5h1.1v.5Zm.9-11.3-.7-.7.3-.3.7.7Zm-1.1-1.8,1.3.4v.5l-1.2-.5Zm.3,10.1-.3.7h-.4l.3-.7Zm-1.2-9.9h.8v.5h-.8Zm-.2,11.6h1V24h-1ZM8,34.9l-.8-.7a2,2,0,0,0,.8-.4Zm.8-1.2L7.5,33v-.4l1.3.6ZM8,25.8V24.7h.5v1.1ZM10.8,32H10v-.5h.8Zm5.4,5.7h-.5V36.1h.5Zm.6-1.9-.8-.3.2-.4.7.4Zm.8-.8-.7-.3v-.4l.7.4Zm-1.1-2.4.4-.2.6.9-.3.3Zm4.8,6.5h-.1l-1.4-2.3h.4L21.5,39Zm.7-7.3c0-.4.1-.6.3-.7a2.2,2.2,0,0,1,.3,1.4,1.4,1.4,0,0,0,1.1-.3c-.1.5-.3,1.2-.6,2.2a3.7,3.7,0,0,0-.3-1.7,4.3,4.3,0,0,0-1.4,1.7V33.1l.7-.5A1.7,1.7,0,0,1,22,31.8Zm.3,1.8h.5v.7h-.5Zm.9,3.4a1.8,1.8,0,0,0-.5-1.1l.4-1a21.4,21.4,0,0,0,.9,3.3C23.5,38.2,23.2,37.8,23.2,37Zm4.8-.7h-.5l.4-1.1h.4Zm3.8-2.8c.2-.4.4-.6.4-.8l.5.3c.4.1.6.2.7.5ZM35.3,9.6l-.6.3-.2-.3.8-.4Zm-.7-1.5.3.4-1,.6-.2-.4Zm-1.4,20a1,1,0,0,1,.6.2l.6.2h-1l-.2.8V28.1Zm.1,1.7a4.3,4.3,0,0,1-.2,1.2c0,.1-.1.2-.1.3V31h0a1.9,1.9,0,0,0-.5-.9H33C33.2,30.1,33.3,30,33.3,29.8ZM31.7,3.7l.5.2-.4.9h-.4Zm.6,3.6v.4h-.8V7.3ZM30.9,9.9h-.4l-.3.3c0-.5,0-.8-.2-.8A1.1,1.1,0,0,1,30.9,9.9Zm-1.2,1.6v.8h-.5v-.8ZM18.2,5.2h.4v1h-.4Zm0,1.7h.4V8.2h-.4Zm0,1.6h.4v.7h-.4ZM12.1,5.2h.5V6.5h-.5ZM9.3,21.4h.3c.1,0,.1-.1.1-.2a4.9,4.9,0,0,0-.1-1.1,8.9,8.9,0,0,1-.2-1.1.6.6,0,0,1,.2-.5H10l-.3-.2a.9.9,0,0,1-.3-.6A13,13,0,0,1,11.2,15,13,13,0,0,0,13,12.3c0-.1-.1-.2-.2-.5s-.3-.5-.5-.3a2,2,0,0,1,.4-.8c0-.1,0-.2-.2-.4a.5.5,0,0,1-.3-.4l.8-.6v2.3a.7.7,0,0,0,.6-.4,1.6,1.6,0,0,1-.4,1.2l.4.5a7.9,7.9,0,0,0,1.6-2.3,3.8,3.8,0,0,0-.4,1.7l1.8-.6a2.9,2.9,0,0,0,1.6-1.1,3.9,3.9,0,0,0,2.3.6l-.4.4a1.1,1.1,0,0,0-.3.7c.9-.9,1.6-1.4,2.1-1.4l4.9,1.2a1.8,1.8,0,0,1,1.1-.3h1a2.1,2.1,0,0,0-.9.5l2.7,2.8A7.7,7.7,0,0,1,32.9,19c-.1-.1-.1.3-.1,1.4s0,1.1-.1,1.5h-.5l-.2.2a.8.8,0,0,0,.2.5c.1.1.1.2.1.4V23a10.9,10.9,0,0,1-1.7,2.9,1.1,1.1,0,0,0,.8.3,2,2,0,0,0,1.4-.6v1a8.3,8.3,0,0,0-2.3,0A3.1,3.1,0,0,0,28.3,28a2.2,2.2,0,0,1-.7,1.6,1.4,1.4,0,0,1,.9,1.3h0a.5.5,0,0,1-.2.4c-.2,0-.3.2-.4.5s-.2.4-.3.4l-.5.3.4.4.6-.3a.7.7,0,0,1,.6.1,2.1,2.1,0,0,0-.5,1.6H26.6V33.3l-1.4-.2-1.4-.2a1.4,1.4,0,0,0,.5-1,5.1,5.1,0,0,0-.2-.9H24a5.1,5.1,0,0,1-.2-.9c0-.2.1-.4.3-.4H19.2a6.5,6.5,0,0,1-3.8-1,7.8,7.8,0,0,0-.2,1.9l-1.5.3-.6.2h0a.1.1,0,0,0-.1.1h-.5a2.8,2.8,0,0,1-1.4-1,2.3,2.3,0,0,0,1.3-1.1v.8l.4.2h.5c.7,0,1.3-.6,2-1.9l1.6.6L15.1,27l-1,.4c.5.5.8.8.8.9l-1.1-.6a3.1,3.1,0,0,0-1.3-.5,1.4,1.4,0,0,0,.2-.6,2.6,2.6,0,0,0-.4-1c-.1-.1-.2-.1-.4.1l.6.6c-.3.3-.4.5-.4.7a10.1,10.1,0,0,0-1.2-1.4l.5-.7a2.3,2.3,0,0,1-1.5-1.1,5.9,5.9,0,0,1-.4-.8,3.1,3.1,0,0,1-.3-1.3C9.2,21.5,9.2,21.5,9.3,21.4ZM8.7,16,8,15.3l.3-.3.7.7ZM7.6,7.3h.7v.4H7.6ZM6.5,27.5A14.4,14.4,0,0,1,8,29.7a2,2,0,0,0-1.5-.9Zm-.9,2.1,1.3.3v.4L5.6,30Zm.5,2.1a3.9,3.9,0,0,1-.2.6l-.2.5c0-.4,0-.7.2-.8l-.7-.3ZM2.7,18.2h.5v.9H2.7Z"/>
  <polygon class="cls-2" points="36.2 155.4 35.7 155.6 36.1 156.3 36.5 156.3"/>
  <rect class="cls-2" x="38.3" y="143.8" width=".8" height=".52"/>
  <rect class="cls-2" x="38.9" y="142.3" width=".8" height=".52"/>
  <path class="cls-2" d="m39.9 146.6a5.1 5.1 0 0 0-0.8 1.3l0.8-0.2z"/>
  <polygon class="cls-2" points="33.6 128 33.7 128.2 34 128.2"/>
  <polygon class="cls-2" points="37.9 128.7 36.8 129.4 37.1 129.8 38.1 129.1"/>
  <rect class="cls-2" x="41.3" y="109.1" width=".5" height="2.23"/>
  <path class="cls-2" d="m38.1 119.2-0.9-0.4v0.4z"/>
  <rect class="cls-2" x="34.1" y="106.5" width=".5" height="1.04"/>
  <rect class="cls-2" x="41.3" y="106.2" width=".5" height="1.35"/>
  <polygon class="cls-2" points="38.6 114.5 38.2 115.2 38.6 115.4 39 114.6"/>
  <path class="cls-2" d="m39.7 91.8a1.9 1.9 0 0 0-0.6-1.2l-1.1 0.8z"/>
  <polygon class="cls-2" points="41 62.3 41.5 62.3 41.9 61 41.3 61"/>
  <polygon class="cls-2" points="35.6 53.8 34.5 54.3 34.7 54.7 35.6 54.3"/>
  <rect class="cls-2" x="39.9" y="57.2" width=".5" height=".78"/>
  <polygon class="cls-2" points="35.4 53 36 52.3 35.8 51.9 35.1 52.6"/>
  <path class="cls-2" d="m41.5 53.4c0 0.4 0 0.5-0.2 0.5h-0.2v0.8a3.1 3.1 0 0 1-0.4 1.2l0.4-0.7a3.6 3.6 0 0 0 0.5-1.3 0.6 0.6 0 0 0-0.1-0.5z"/>
 </g>
 <g fill="#fff">
  <path class="cls-1" d="m523.2 168h1c0-1-0.3-2.3-1-2.7s-0.6 0.5-0.4 1.3a2.1 2.1 0 0 0 0.4 1.4z"/>
  <polygon class="cls-1" points="302.2 147.3 303.7 144.3 302.3 144 302 143.9 302 144 300.8 146.6"/>
  <path class="cls-1" d="m518.1 140.8a23.1 23.1 0 0 1-1 2.1c2.1 0 3.2 0 3.4 0.2 0-2.4-0.3-3.9-0.9-4.4s-0.9 0.7-1.5 2.1z"/>
  <path class="cls-1" d="m390.5 130.3-0.2-0.9c-0.6-0.3-0.8-0.2 0.2 0.9z"/>
  <polygon class="cls-1" points="393 126.9 392 123.3 390.5 123.7 391.8 126.9"/>
  <path class="cls-1" d="m387.6 126.2a4.7 4.7 0 0 1-0.6-0.9z"/>
  <path class="cls-1" d="m386.9 125.3c-1.2-1.7-2.1-3-2.9-3.9a3.9 3.9 0 0 1-1.3 3.3l0.9-0.2a7.2 7.2 0 0 1 1.9-0.4c0.3 0 0.8 0.4 1.4 1.2z"/>
  <path class="cls-1" d="m396.4 123.5 2.3 1.7c0.7 0 1-0.8 1-2.3q0 0.6-3.3 0.6z"/>
  <path class="cls-1" d="m487.3 120.3-0.3-0.4c-1.1-1.5-2-2.7-2.7-3.5a4.4 4.4 0 0 1-1.2 3.4l0.8-0.2a4.9 4.9 0 0 1 1.9-0.5c0.3 0 0.7 0.3 1.1 0.8 0.2 0.1 0.3 0.3 0.4 0.4z"/>
  <path class="cls-1" d="m388.4 126.2h-0.8l0.4 0.6-0.4-0.6h-3.4v5.7a26.6 26.6 0 0 0 3.5-4 3.8 3.8 0 0 0 0.7-1.7z"/>
  <path class="cls-1" d="m487.3 120.3 1 1.6z"/>
  <polygon class="cls-1" points="491.3 119.9 492.1 121.9 493.4 121.9 492.8 119.9 492.3 118.3 490.8 118.7"/>
  <path class="cls-1" d="m498.6 119.9 0.4 0.3a0.7 0.7 0 0 0 0.6-0.3 3 3 0 0 0 0.5-2c0 0.4-1.1 0.6-3.4 0.6z"/>
  <path class="cls-1" d="m510.9 111.9a11.1 11.1 0 0 0-0.1 2.6 43.9 43.9 0 0 0 4.8-2.6l0.7-0.5c-1.6-1.6-3-2.4-4.4-2.4a11.1 11.1 0 0 0-1 2.9z"/>
  <path class="cls-1" d="m224.4 111.9h0.4l-0.3-0.3c0 0.1-0.1 0.2-0.1 0.3z"/>
  <path class="cls-1" d="m219.8 103.9h-3.2v6.4a9.6 9.6 0 0 1 6.9-2.5 29.6 29.6 0 0 1-3.7-3.9z"/>
  <polygon class="cls-1" points="213.6 103 216.6 100 215.3 99 212.6 101.7"/>
  <polygon class="cls-1" points="225.6 104.6 225.6 103.9 225.6 100.4 223.7 100.4 223.7 103.9 223.7 104.6"/>
  <path class="cls-1" d="m219.7 103.8c-1.2-1.4-2.3-2.1-3.1-2.1v2.2h3.1z"/>
  <polygon class="cls-1" points="331 88.9 333.8 91.6 334.8 90.6 332.1 87.8"/>
  <polygon class="cls-1" points="515 86.2 517.3 83.8 516.3 83 514.2 85.3"/>
  <path class="cls-1" d="m291.5 74.8h-1.6l2 0.3z"/>
  <path class="cls-1" d="m483.4 71.5v-0.3a19.6 19.6 0 0 1-1.9 2.8l1.3-1.5z"/>
  <path class="cls-1" d="m246.8 50.2 0.8-0.8a2.5 2.5 0 0 0-0.5-1.6 3.1 3.1 0 0 0-0.9-1.1 4.3 4.3 0 0 1 0.2 1.1 7.5 7.5 0 0 1 0.4 2.4z"/>
  <rect class="cls-1" x="517.3" y="6.4" width="2.3" height="1.68"/>
  <rect class="cls-1" x="266.8" y="10.6" width="4" height="1.89"/>
  <path class="cls-1" d="m113.4 127.9v2.4l2.3-2.4c1.3-1.4 1.9-2.6 1.9-3.3h-4.2z"/>
  <polygon class="cls-1" points="261.5 39.1 262.8 44.4 264.7 44.4 263.4 39.1"/>
  <polygon class="cls-1" points="294 63.8 293.4 62.2 291.7 62.8 292.3 63.8 293.2 65.6 294.7 65.6"/>
  <polygon class="cls-1" points="282.9 57.8 285.7 60.5 286.9 59.3 284 56.5"/>
  <path class="cls-1" d="m479.7 47.8c-0.1 2.8-0.2 4.4-0.4 4.5s1.1 2.3 1.6 3.5a42.7 42.7 0 0 1 2.4 8 30.5 30.5 0 0 1 0.6 6 4.1 4.1 0 0 1-0.5 1.7 34.4 34.4 0 0 1 1.4 5.6 3.3 3.3 0 0 1-2.1 0.7 3.8 3.8 0 0 0-2.6-1.7c3.3 2.6 5.6 8.2 7 16.6a30.6 30.6 0 0 0 0.5 3.2c0.5 3.1 0.9 5.8 1.3 8 0.7 4.4 1.2 7.1 1.4 8a0.4 0.4 0 0 1 0.1 0.3l-6.5 2.9c1.6 0 2.3 0.6 2.3 1.7 0-0.8 0.7-1.9 1.9-3.1a8.4 8.4 0 0 0 3.4 0.8l1.7-0.2a2.8 2.8 0 0 1-0.9-1.3c0-0.2 0.4-0.4 1.1-0.4s1.5 1.1 3.7 1.9a24.4 24.4 0 0 0 4.7 1.1 16.3 16.3 0 0 0 7.7-2.1 8.1 8.1 0 0 1 0.1-1.6 56.5 56.5 0 0 1 0.7-8l0.3-2a9.1 9.1 0 0 1-4.6-1.9c-1.9-1.4-2.8-2.6-2.8-3.8a0.4 0.4 0 0 1 0.1-0.3c0.1-1 0.9-2.1 2.3-3.4a3 3 0 0 1 0.2 1.4c0 0.9 0.4 1.3 1.2 1.3a5.8 5.8 0 0 0 2.5-0.9 6.7 6.7 0 0 1 2.8-1l4.4-29.5 2.4-16 0.7-4.9-1.6-1.1a4.1 4.1 0 0 0-2.6-1c-0.8 0-1.6-0.6-2.5-1.9a8.4 8.4 0 0 0-1.4-2.3 5.3 5.3 0 0 1 3.9-2.3c2.1 0 3.5 0.3 4 1v-24.8l-0.6 0.5a2.7 2.7 0 0 1-1.5 0.4c-0.7 0-1.4-0.5-2.3-1.5a5.4 5.4 0 0 0-1.9-1.9 22.8 22.8 0 0 1 7.4-3.8c-1.8 0-4.5 0-8-0.2l-8-0.2a0.9 0.9 0 0 0-0.8 0.4 2.5 2.5 0 0 0 0.2 0.7c0.3 0.1 0.4 0.3 0.4 0.4s-0.3 0.4-0.8 0.4c-2.3 0-5.6-0.3-10.1-0.8a73.2 73.2 0 0 0-10.1-1.1c-1.8 0-3.2 2.1-4.2 6.1 0.2 8.6 0.3 15.9 0.4 21.8zm35.7-2.6 2.1-1 0.6 1.2-2.7 1.3zm-15.3 12.6a3.1 3.1 0 0 1 0.4-2 0.9 0.9 0 0 1 0.6-0.3l0.4 0.3h0.1a7.3 7.3 0 0 1 1.6 1.4c-2.1 0-3.1 0.2-3.1 0.6zm0.6-10.3v-1.2l2.1-1.3 0.4 1.5zm1.7-10.3-1.3-0.6 2.1-4.2 1.3 0.4zm2.9 3v-1.5h3.4v1.5zm4.9 44.9a35.3 35.3 0 0 0-3.2-7.1 7.2 7.2 0 0 0 5.3-2.1c0 4.7 0 7.4 0.2 7.9a17.1 17.1 0 0 1-2.3 1.3zm1.9-23.1a10.5 10.5 0 0 0 0.8-1.3 13.6 13.6 0 0 1 1-1.4v3.5l-6-1.2c2.3 0 3.7 0.1 4.2 0.4zm-11.4-38a4 4 0 0 1 1.3-2.7 3.8 3.8 0 0 1 2.7-1.7 2.1 2.1 0 0 1 1.7 0.6l0.8 1.3a5.1 5.1 0 0 0-1-2.5 7.4 7.4 0 0 1-1.1-3l1.7-0.8a5.9 5.9 0 0 1 2.9-1.1c1.3 0 3.1 1 5.5 3s3.8 3.3 3.8 4.4-0.7 1.9-2.1 4-1.9 3.3-1.9 4.2c-1.4-1.6-2.4-2.8-3.2-3.6s-1.2 0.6-1.2 1.7a27.5 27.5 0 0 1-4-1.7 3.9 3.9 0 0 0-0.2 1.3c0 0.5 0.1 1.2 0.2 2.1a8.5 8.5 0 0 1 0.1 2.2 4 4 0 0 1-0.3 1.7 6.8 6.8 0 0 0-0.7-1.7 32.2 32.2 0 0 0-5.2-6.2l1.7 0.4a5.9 5.9 0 0 0 2.1 0.4 4.4 4.4 0 0 0-3.6-2.3zm-2.9 20.2h3.5v1.6h-3.5zm-13.2 19.6a47 47 0 0 1 4.6-2.6 18.4 18.4 0 0 1-0.2 2.6 4.2 4.2 0 0 1-0.9 2.8c-1.2 0-2.6-0.7-4.2-2.3z"/>
  <path class="cls-1" d="m523.6 168.5a11.7 11.7 0 0 1-3.8 0.2 14.5 14.5 0 0 0-3.3-0.6h-0.4a3.7 3.7 0 0 1-1.9-1.4 5.9 5.9 0 0 1-1.1-2.9 2.9 2.9 0 0 1-1.7 0.6c-0.3 0-0.5-0.2-0.8-0.4a24.2 24.2 0 0 0 3.1-5.9c0.9 2.4 1.5 4.2 1.9 5.4l6.1-2.1a49.3 49.3 0 0 1-1.5-6.9c-2.1-1.1-3.1-2.2-3.1-3.1l3.4-2.3v-4.7a2.2 2.2 0 0 0-1.7 0.9c-0.4 0.5-0.8 0.8-1.1 0.8l-0.8-2a8.4 8.4 0 0 1-0.6-2.6c0-2.4 0.7-3.9 2.1-4.6a6.9 6.9 0 0 0 2.3 0.8v-10.8l-22.9-0.2a4.1 4.1 0 0 0-2.5 1.2l-0.5 0.5a6.4 6.4 0 0 1-2.1 1.9 2.1 2.1 0 0 1-0.4-1.1 3.9 3.9 0 0 1 0.3-1.3l0.3-1h-4.4a3.6 3.6 0 0 0 0.7 1 14.2 14.2 0 0 0 3.9 3.8l-1.4 1.3c-2.3-1.5-3.7-3.2-4.1-5.1a4.9 4.9 0 0 1-0.1-1.2 11.2 11.2 0 0 1-6.1-1.3v-0.4a16 16 0 0 0-0.8-5.1 9.7 9.7 0 0 0-2.8-4.1 1.4 1.4 0 0 1 1.1-0.7 3 3 0 0 1 1.8 1.1 4.5 4.5 0 0 0 1.7-3.4v-0.9a34.6 34.6 0 0 0-4.5-16 42.1 42.1 0 0 0-3.9-5.8 53.3 53.3 0 0 0-19.7-14.4 51.5 51.5 0 0 0 13.9-11.9 33.8 33.8 0 0 0 4.6-8 36.7 36.7 0 0 0 2.3-8 58.5 58.5 0 0 0 0.4-6 54 54 0 0 0-1-10.1c-2.3-10.2-8.2-17.9-17.7-23.3s-23.9-8.8-39.5-8.4l-20.6 0.7-29.1 0.8a5.3 5.3 0 0 1-0.7 3.2c-0.5-0.5-0.8-1.5-0.8-3.2h-29v101.2h-8a4.9 4.9 0 0 0 0.1 1.2 7.1 7.1 0 0 0 2 3.7 17.2 17.2 0 0 1-6.1 1.5 5.4 5.4 0 0 1-2.7-0.7l2.5 3.2a1.1 1.1 0 0 1 0.8 0.3l0.3 0.3a1.5 1.5 0 0 0 1.2 0.4 24.1 24.1 0 0 0 4.6-0.6h0.5a20.9 20.9 0 0 1 4.4-0.5 13.7 13.7 0 0 1 0.4-3.4v59.9s92.2-1.1 101.9-1.1c6.3 0 13.7-2.9 22.4-8.8 6.8-4.7 11.6-9.4 14.5-14a23.3 23.3 0 0 0 1.9-3.9 5.3 5.3 0 0 1-2.6-4.1 5.7 5.7 0 0 1-0.1-1.3 17.4 17.4 0 0 1 1-5.5l1.7 1.9a6.5 6.5 0 0 0-0.2 3.8c0.1 0.4 0.1 0.7 0.2 1.1a15.2 15.2 0 0 1 0.4 2.7l0.2-0.8v31a3.1 3.1 0 0 1 2 1 43 43 0 0 1 5-1h34.6c1.3 2.7 3 2.5 3.2 1.7a3.5 3.5 0 0 1 0.8-1.5c0.1 0.1 0.2-0.4 0.2-1.1h-1.1c0.2 0.1 0.3 0.3 0.5 0.4zm-8.2-22.3 1.1 3.8h-1.5l-1.1-3.8zm-128.8-130.7a2.2 2.2 0 0 0 1.6-2.4 4.9 4.9 0 0 0-0.1-1.2h3.5c3.7 0 5.6 1.5 5.6 4.6v2.2h17.2c-6.7 0.4-11 0.7-12.9 1a36.6 36.6 0 0 0 4.3 7.3l-2.1 1.5c-0.8-2.5-1.4-3.7-1.9-3.7l-1.1 0.2a2.4 2.4 0 0 1-1 0.2 4.1 4.1 0 0 0 1.8-2.8c0-2.1-0.4-3.1-1.2-3.1a21.4 21.4 0 0 0-4.9 0.9 20.5 20.5 0 0 1-4.9 0.9c-1.4 0-3.5-1.7-6.1-5.2zm13.3 10.2-1.6 1.6-0.6-0.7 1.5-1.5zm-19.3 38.1v-29.5h39c4 0 7.2 2.4 9.7 7.1a27.1 27.1 0 0 1 2.4 6.4 12.4 12.4 0 0 1 0.3 2.7 14.2 14.2 0 0 1-1 5.3 22.2 22.2 0 0 1-3.8 6l-2 2a12.7 12.7 0 0 1-8.5 3.2l-36.1-0.2zm-3-58.9h1.9v3.1h-1.9zm-4.1 124.3c0 2.9-0.3 4.8-1 5.5s-2.7-0.8-4.2-2.4a36.1 36.1 0 0 1 5.2-3.1zm-6.6-20.2v-4.4h2.1v4.4zm6.2 10.9-1.1-2.1a7.2 7.2 0 0 0 5.3-2.1v4.2a20.9 20.9 0 0 0 0.2 3.8l-2.3 1.3a29.1 29.1 0 0 0-2.1-5.1zm4.3-48.1v3.2h-1.9v-3.2zm-0.8-2.7v-4.2h2.1v4.2zm0 10.5v-3.2h2.1v3.2zm1 16.3v-2.8h1.9v5.4h-1.9zm-1.2-74.8a21.2 21.2 0 0 0 2.3-2.3 10.6 10.6 0 0 1-0.6 2.9 13 13 0 0 0-0.4 2.9 6.4 6.4 0 0 0-3.2-1.2c0-0.3 0.7-1.1 1.9-2.3zm0.9 3.7v13.7h-2.1v-13.7zm-2.4 29.1 0.8 1.9 3 7.4h-1.9l-3.1-7.4-0.5-1.2zm-0.4 45.7h-5.7a6.8 6.8 0 0 0 1.3-3.2c1.8 1.4 3.3 2.5 4.4 3.2zm-8.6-88.8h1.9v3.1h-1.9zm4.1 73.3-1.7 1-7.5-8.8 1.7-1.1zm-9.8-12.2 1.4 3.3h-1.7l-1.4-2.7zm-14.8-39 0.3-1.2a44.1 44.1 0 0 0 1.2-11.4c0 0.3 0.2 0.4 0.8 0.4h1.3c0.5 0.1 0.8 0.6 0.8 1.5v11.5c-4.6 0-7.4-0.3-8.2-0.8zm2.1 3 4.2 2.7-1.1 1.7-4.2-2.7zm21.7 116.3a3.2 3.2 0 0 0-0.6 2.8 17.8 17.8 0 0 0 0.3 2v0.3c0 0.3-0.1 0.2-0.1-0.3-1.5-2.9-2.8-5.2-3.7-6.7a26.7 26.7 0 0 0-2.1 3.4c-2.7-0.8-7.1-1.3-13.2-1.3v-46.2l3.2 1.4c-0.1 2-0.1 3.4-0.1 4.3 0 4.8 0.7-4 1.6 3.8-0.4 1.5-0.7 2.9-1 4.2a73.1 73.1 0 0 0-1.3 8 27.5 27.5 0 0 0-0.2 4v17.4a102.8 102.8 0 0 0 10.1 2.1c1.5-0.6 2.3-2.7 2.3-6.3a4.1 4.1 0 0 0-0.1-1.1 58.9 58.9 0 0 0-0.8-8.1 14.3 14.3 0 0 1-0.4-2.2c-0.7-5.1 2.1 0.4 2.1-2.1 0.4 1.9 0.7 3.3 0.8 4.3 0.7 4.1-0.1 3.3 0.9 7 0 0.3 0.1 0.6 0.1 1q0.9 5.3 2.4 7.2c37.8 0.5 3.7 0.9 22.9 1zm22.9-3.8h-12.6v-2.1h12.6zm46.3-28.5a14.8 14.8 0 0 1-5.4 8c-5.1 4-13.5 5.9-25.1 5.9-1.1 0-4.6-1-10.5-2.9q-6.3-2.1-6.3-2.7c0-0.1 0.1-0.2 0.4-0.2s-1.5 0.5-1.3 1.2v0.2c0.9 0.3 3 1.5 4.2 1.3a1.8 1.8 0 0 0-0.7 1.7 1.2 1.2 0 0 0 1.3 1h-17a17.8 17.8 0 0 0 1.3-5.5c0.2-2.3 0.1-5 0.1-8v-8c0-4-0.1-6.7-1.4-7.9h0.1c1.9-2.9 2.8-5.2 2.8-7v-1a11.6 11.6 0 0 0-0.4-1.8h39.1a16.8 16.8 0 0 1 7.7 1.8 18.6 18.6 0 0 1 5.9 4.7 35.9 35.9 0 0 1 2.5 3.3 20.8 20.8 0 0 1 2.9 8 16.6 16.6 0 0 1 0.3 3.2 18 18 0 0 1-0.5 4.7zm15.1-37.9h-3.1v-2.1h3.1zm-3.9-4.2c-2.7 1.5-4.6 2-5.6 1.5s-1.4-1.4-2.7-3.6a12.9 12.9 0 0 0-3-3.5l4.5-1.3c0.4-0.8 0.1-1.4-1-1.9a41.9 41.9 0 0 1 3.3-2.9 3.5 3.5 0 0 0-1.1-0.7l-2-0.7a6.9 6.9 0 0 1-2.3-0.9 4 4 0 0 1-1.2-1c1.6 0.5 4.9-0.2 9.7-1.9a7.3 7.3 0 0 1-1.1 1.3 13.3 13.3 0 0 0-1.2 1.6 0.1 0.1 0 0 1-0.1 0.1h0.9a4 4 0 0 0 2.7-2.1 3.6 3.6 0 0 1 1.9 2.1 0.3 0.3 0 0 1 0.1 0.2 4.3 4.3 0 0 1 0.4 3.2c-0.4 0.7-0.8 1.1-1.3 1.2l-1.5 0.2a5.2 5.2 0 0 0 2.7 0.2 6.5 6.5 0 0 1 3.1 0.3c0 0.1 0 0.7 0.1 1.8a7.1 7.1 0 0 1-0.3 3.1c-0.6 1.1-2.2 2.3-5 3.7zm39.6 64.6a11.9 11.9 0 0 1-3.4 1.5c1.7-3.2 3.1-5.9 4.4-8l0.6-1v1c-0.1 2.9 0.5 4.6 1.9 5a8 8 0 0 0-3.5 1.5zm11.5-11.5 3.6 1.2-0.6 1.3-3-1zm3.2 17a2.4 2.4 0 0 0-0.9 1.7c-1.8 0-2.7-0.6-2.7-1.9a0.8 0.8 0 0 1 0.2-0.4 4.1 4.1 0 0 0-1.5-2.1l-0.8-1.2a2.7 2.7 0 0 1-0.4-1.3 4.6 4.6 0 0 1 0.4-1.9 5.5 5.5 0 0 0 0.6-1.9 12.9 12.9 0 0 1 3.4-0.9l-1.7 1.7a2.4 2.4 0 0 0 1.3-0.4 3.1 3.1 0 0 1 1.9-0.6q1.8 0 1.8-0.9a1 1 0 0 0-0.4-0.8l1.5 0.8a5.1 5.1 0 0 0 2.5 0.9q1 0 1.5 2.1a31.4 31.4 0 0 0-2.5 3.2c-1.5 2.2-2.3 4-2.3 5.6zm5 0-1.5-0.6 1.3-3h1.3z"/>
  <path class="cls-1" d="m169.5 158c6.8-4.7 11.6-9.4 14.5-14a23.3 23.3 0 0 0 1.9-3.9 5.3 5.3 0 0 1-2.6-4.1 5.7 5.7 0 0 1-0.1-1.3 17.4 17.4 0 0 1 1-5.5l1.7 1.9a6.4 6.4 0 0 0-0.2 3.8c0.1 0.4 0.1 0.7 0.2 1.1a15.2 15.2 0 0 1 0.4 2.7c0.3-1 0.5-1.9 0.7-2.7 0.9-3.5 1.5-6.2 2-8.1a24.3 24.3 0 0 0 0.5-2.9 16 16 0 0 0-0.8-5.1 10.7 10.7 0 0 0-2.8-4.1c0.3-0.4 0.6-0.7 1-0.7a2.9 2.9 0 0 1 1.9 1.1c0.4 1.2 0.8 2.4 1.3 3.6a87 87 0 0 0 3.5 8 61.9 61.9 0 0 0 4.8 8.1 43.9 43.9 0 0 0 7.4 8 39.5 39.5 0 0 0 4.7 3.3 5.3 5.3 0 0 1 0.6-2.3 16.7 16.7 0 0 0 4.6 8.8l5.7 5.7a4.6 4.6 0 0 1 1-3.4c0.3 0.4 2.6 1.9 7 4.4s7 3.6 7.5 3.6 0.9-0.2 0.9-0.4-0.2-0.4-0.5-0.7-0.2-0.7-0.2-0.8 0.4-0.4 0.9-0.4 3.9 1.9 10 5.6l2.4-2.3c0.2 0.3 0.2 0.8-0.3 1.5s0.3 0.8 1.3 0.8c3.6 0 5.9-1.1 6.7-3.3 1.4 2.2 2.7 3.3 3.8 3.3s1.5-0.4 1.5-1.2 0.5-1.1 1.4-1.1a1.4 1.4 0 0 1 1.3 0.7 2.7 2.7 0 0 0 1.5 0.4c6 0 10.3-0.3 12.8-0.9l18.5-6a3 3 0 0 1-0.5-1.5 14.6 14.6 0 0 1 0.7-3 10.7 10.7 0 0 0 0.8-3.1 7.6 7.6 0 0 0-1.7-3.8 10.8 10.8 0 0 1-1.6-2.9 3.8 3.8 0 0 1 1.8 0.6l1.3 0.4a6.4 6.4 0 0 1 0.3-2 7.8 7.8 0 0 1 1.6-2.4 19.3 19.3 0 0 0 4 1.9v0.5a29.3 29.3 0 0 1-0.9 4.5 23.4 23.4 0 0 0-0.8 4.8 4.1 4.1 0 0 1 1-2.7 13.6 13.6 0 0 1 1.1 1.9c0.6 1 1 1.5 1.5 1.5a46.7 46.7 0 0 0 10.5-9.9l0.2-0.3a38.9 38.9 0 0 0 4.7-7.7 21.2 21.2 0 0 0 1.4-5.5h4.4c0.5-0.9 1-1.7 1.4-2.6a52.3 52.3 0 0 0 3.7-8q1.1-3 1.8-6h-7.1a4 4 0 0 0-2.3 1 4.2 4.2 0 0 1-2.1 1.1q-2.4 0-5.1-2.7c0.2-0.5 0.5-1 0.7-1.4a62.6 62.6 0 0 0 3.3-8h-2.5l-0.2 0.7h-1.9l0.2-0.7h-4.6a44.3 44.3 0 0 0 4.6 3.5v5.2l-0.5-0.7c-1.4-1.9-4.4-4.6-9-8l-0.4-0.3c0.1 0.1 0.2 0.2 0.2 0.3 2.3 3.5 4.1 6.2 5.5 8a17.3 17.3 0 0 0 2.3 2.6 10.5 10.5 0 0 1-6.1-0.8 0.8 0.8 0 0 0-0.2 0.6c0 0.6 0.6 1.4 1.7 2.5a11.1 11.1 0 0 1-2.8-2.5 4.8 4.8 0 0 0-3.3-1.7c-0.6 0-1 0.4-1.3 1.3a1.4 1.4 0 0 1-1.4 1 3.8 3.8 0 0 1-4.1-3 9.5 9.5 0 0 1-0.4-2.6 8.5 8.5 0 0 1 1.1-3.2c0.7-1.5 1-1.8 1-0.8 2.1 2.8 3.4 4.9 3.8 6.3a16.5 16.5 0 0 0-2.4-7.7l-1.1-2c1.6-1 4-1.5 7.1-1.5 1 0 2.7 1 5 3l0.7 0.5h4.6l1-4.5h2.1l-1.2 4.5h2.6l2.2 2a5.3 5.3 0 0 1 0.7-2l0.6-0.9a3.8 3.8 0 0 1-2.7-1.7 5.7 5.7 0 0 1-1.5-3.1 9.8 9.8 0 0 1 0.2-2.3c0.2-1.2 0.4-2.6 0.8-4.3a31.3 31.3 0 0 0 1.1-6.7l-2.1-0.2-3.4 0.6c-1.2 0.3-1.8 0.5-1.7 0.6-1-0.2-1.9-1.2-2.9-2.9 0.6-0.2 0.9-0.2 1.1 0s0.9 0.7 1.8 0.7 1.5-0.9 2.4-2.6a9.6 9.6 0 0 1 1.8-3.1 8.4 8.4 0 0 0 2.8 1v-28.1a1.9 1.9 0 0 1 1.2-0.4 1.4 1.4 0 0 1 1.1 0.4 28.9 28.9 0 0 1-1.5-3.1c-2.7-5.4-4-8.7-4-9.9s0.7-3.3 1.9-5.7a7.1 7.1 0 0 1 1.1 2.2 13.1 13.1 0 0 0-0.6-2.7 14.7 14.7 0 0 0-2.6-3.9l-6.1-6.7a4.9 4.9 0 0 1-0.8 2.3q-0.3-7.6-18.9-15.6c-10.9-4.6-19.6-6.9-25.9-6.9s-16.5 0.8-29.4 2.5c0 1.7-0.2 2.8-0.8 3.2s-0.2-0.8 0.2-1.5-0.3-0.8-1.2-0.8-6.1 1.7-12.6 5.2a100.6 100.6 0 0 0-12.4 7.4q0 0.2 0.6 2.1a2.8 2.8 0 0 1-0.4 2.1c-3.4-0.2-5.3 0-5.9 0.6a65 65 0 0 0-8.9 10 69.7 69.7 0 0 0-8.5 16c-1 2.6-1.8 5.2-2.6 8-0.7 2.6-1.3 5.3-1.8 8a132.9 132.9 0 0 0-1.7 21.5c0 2.6 0.1 5 0.3 7.5-0.7-0.9-1.3-1.8-2-2.6a53.5 53.5 0 0 0-19.7-14.5 47.9 47.9 0 0 0 13.8-11.9 34.2 34.2 0 0 0 4.7-8 30.6 30.6 0 0 0 2.2-8 38.1 38.1 0 0 0 0.5-5.9 44.9 44.9 0 0 0-0.9-9.2v-0.3a6.4 6.4 0 0 1-0.2-0.7 36 36 0 0 0-17.6-23.1c-10.8-6.1-24-8.9-39.5-8.4l-20.6 0.6-29.2 0.8c0 1.7-0.2 2.8-0.6 3.2s-0.8-1.5-0.8-3.2h-29v166.4s92.2-1.1 101.8-1.1c6.4 0 13.8-2.9 22.5-8.8zm155.2-30.1v-1l3.7 1 0.7 0.3-0.6 1.6-3.8-1.4zm-1.4-52.9h-4.2v-1.9h4.2zm-5.3-26.4h5.3v1.9h-5.3zm-116.8 65.5-3.8-1.3v-1.7l2.3 0.8 2.2 0.7zm1.3-43.3 1.5-2.9 1.4 0.6-1.4 3zm9.2 21c-0.8-1.7-3-3.5-6.7-5.6h5.3a14.1 14.1 0 0 0 2.1 2.9 4.4 4.4 0 0 1 3.1-0.4 5.3 5.3 0 0 1 3 1q-1.5 1.5-5.7 1.5c0 2.2 0.3 3.7 1 4.4-1.8-0.4-4.7-1.3-8.8-2.5 3.1 0.1 5.3-0.3 6.7-1.3zm-6.5 0v-1.9h3v1.9zm3-22.7 4-2.7 1 1.5-4 2.7zm6.9-7.3c1.8-2 2.8-3.6 2.9-5v6.7a7 7 0 0 0-2.9-1.7zm-4.4 70.3a4.4 4.4 0 0 1-1.9 2.8v-6.5a6.1 6.1 0 0 0 2.9 1.4 16.1 16.1 0 0 0-1 2.3zm6.7 1.1a6.7 6.7 0 0 0 5-2.1 2 2 0 0 0-0.4 2.1c0.4 0.8 0.9 1.3 1.5 1.3a14.1 14.1 0 0 1-6.1-1.3zm12.6 21.6h-1.9v-9h1.9zm0.1-18.8-0.3 0.6a6.6 6.6 0 0 0-0.8 2.3v-4l-3.2-0.6h4.8a10.4 10.4 0 0 1-0.5 1.7zm5.2 15.9-1.5-0.8 1.2-2.8 1.7 0.7zm4.8 3.8a3.3 3.3 0 0 1-2.5-1.5c1.8 0 2.7-1.7 2.7-5.2a13.4 13.4 0 0 0 1.7 5.6 3.2 3.2 0 0 1-1.9 1.1zm2.3-8.6h-2.1v-3h2.1zm3.4 6.7h-2.1v-4.2h2.1zm0-6.7h-2.1v-3h2.1zm3.3 1h-2.1v-4h2.1zm5.5 6.9c0.1-1.7-0.2-2.7-0.8-2.7l1.2 0.4 1.3 0.2 3.1-2.3a8.1 8.1 0 0 1 1.3 3.2 14.1 14.1 0 0 0-6.1 1.2zm-1.5-6.5 0.4-1.6 3 1.4-0.7 1.5zm10.5 3h-1.9v-3h1.9zm6.6-15.5-0.5 3.3h-2.1l0.7-3.3v-0.9h1.9zm3.1 8h-0.3l-1.4-0.7 1.5-2.7 1.6 0.4zm1.7-4.1-3.8-1.4v-1.7l4.4 1.4zm3.9-0.6c0-1.7-0.2-2.8-0.8-3.3a1.4 1.4 0 0 0-1.1-0.5c0.6 0 3.6-0.9 9.1-2.7a4 4 0 0 1 1.2 2.9v0.3a8.6 8.6 0 0 1-1 3.3zm9.7 4-6.3-1.3v-1.9l6.3 1.3zm1 9.6 2.8-2.5 1.2 1.1-2.9 2.7zm7.4-4.4-1.9 5.5-1.7-0.6 1.9-4.9zm-2.9-0.4v-2.9h1.8v2.9zm-3.6-14.3a5.4 5.4 0 0 0-3.8-1.4 5.4 5.4 0 0 0 1.3-4l2.1 0.6a2.1 2.1 0 0 0 2.1-0.2l-0.2-0.9-0.5-3.1-1.8 2.3a6.3 6.3 0 0 0-1.9-0.4 0.8 0.8 0 0 0-0.6 0.2 12.5 12.5 0 0 1 4.6-6.5q2.4 4.6 4.2 7.5l0.6 1.1a44.8 44.8 0 0 1-6.1 4.8zm7.1-14h-3.1v-1.9h3.1zm7.8 22.9-1.3-2.8 1.5-0.6 1.5 3.4zm4.6-1.9-2.5-4 1.4-0.8h0.1l2.5 3.7zm4.9-12.9v2.4h-1.9v-3h1.9zm3.9 8c-0.7-0.2-1.4-1.1-2.3-2.5a10.5 10.5 0 0 0-1.4-2.3c1.9 0 3.2 0.3 3.7 0.8zm-1.2-18.7a15.7 15.7 0 0 0 0.3 2.7c0.4 1.8 1.1 4.1 2 7l-1.1-1.1a5 5 0 0 0-2.7-0.8h-1v1.6c0 0.4-0.2 0-0.5-1.3s0.1-0.3 0.5-0.3q0-4.2 0.6-5.1h-0.1l-3.3-2.5c3.3 0 5 0 5.3-0.2zm-9.8 10.7a5.3 5.3 0 0 1 1.2-1.4 4.8 4.8 0 0 1-1.1-2.5c1.3 0 2.8 0.8 4.4 2.5a5.7 5.7 0 0 1-1.7 1.4l-0.6 0.5-2.3 1.6a17.4 17.4 0 0 0 5.5 0.7v5.2l-1.9-0.4a7 7 0 0 0-2.3-0.6 3.3 3.3 0 0 0-2.1 1l-2.1 2.3a3.3 3.3 0 0 1 0.3-2.3 15.7 15.7 0 0 1 2-3.8 5.6 5.6 0 0 1 0.7-4.2zm-1.8-6.9a4.5 4.5 0 0 1-1.9 3.8 1.7 1.7 0 0 0 0-1.7 1.2 1.2 0 0 0-1.2-1c2.1 0 3.1-0.4 3.1-1.1zm-3.7 3.2a3.9 3.9 0 0 0-2.4 1.2 6.3 6.3 0 0 0 4.5 2.1l-0.3 0.4-2.7 4.9c0-0.8-0.6-2.4-1.7-4.9-0.5-1.1-1.1-2.3-1.9-3.7zm15.1-37.4 1.4 0.8-2.1 3-1.4-1.1zm-1.7-0.4-1.7 0.8c-1 0.4-1.5 0.8-1.5 1.1s0.1 0.2 0.2 0.4l-8.1-8.2h5.2a3.8 3.8 0 0 1-0.6 1.7 4.1 4.1 0 0 0-0.4 1.6 10.7 10.7 0 0 0 3.3 1.3 11 11 0 0 1 3.6 1.3zm-8.8-11.4v-1.9h2.9v1.9zm9.6-1.9v1.9h-5.2v-1.9zm-3.5-41.4v-1.4h1.9v2.9h-1.9zm1.2 17.9v2.1h-7.3v-2.1zm-54.8-35.3c2-0.4 2.9-1.9 2.9-4.4a7.5 7.5 0 0 0-0.2-2.1h3.8l2.5-0.2c6.9 0 10.3 2.8 10.3 8.4v4h31.3c-12.2 0.7-20 1.3-23.5 1.9a104.9 104.9 0 0 0 5.4 9.8 19.4 19.4 0 0 0 2.6 3.4l-4 2.8a25.9 25.9 0 0 0-2.5-6.2 1.2 1.2 0 0 0-0.9-0.6 7.6 7.6 0 0 0-2.1 0.5h-0.5l-1.1 0.3c0-0.1 0.1-0.2 0.2-0.3 1.9-1.8 2.9-3.5 2.9-5 0-3.7-0.7-5.6-2.1-5.6a37 37 0 0 0-9 1.6 33.1 33.1 0 0 1-8.9 1.7c-2.6 0-6.3-3.1-11.1-9.4zm24.2 18.7-3 3-1-1.3 2.7-2.7zm-35.3 6.5a15.6 15.6 0 0 1 8.2-2.7c0.5 0 0.9 0.1 1 0.4a2.5 2.5 0 0 1-0.2 0.7 1.4 1.4 0 0 0-0.2 0.6c0 0.3 0.3 0.4 1 0.4a31.5 31.5 0 0 0 4.5-0.4 23.4 23.4 0 0 1 4.4-0.6c1.1 0 1.7 0.2 1.9 0.6a3.7 3.7 0 0 0 0.6 1.7l0.8-1.1a3.1 3.1 0 0 1 2.3-1.2c0.7 0 4.4 2.4 11 7.3l3.5 2.6c4.4 3 6.8 4.5 7.4 4.5a5.5 5.5 0 0 0 2.1-0.8c1.2-0.7 1.9-1.2 1.9-1.5a0.3 0.3 0 0 0-0.3-0.3 5.1 5.1 0 0 1 2.6 1.6c0.4 0 0.9-0.4 1.6-1.1s1.3-1.2 1.7-1.2l2.5 3.1h-9.2a1.4 1.4 0 0 0-0.2 0.7c0 0.7 0.6 1.5 1.7 2.5a7.3 7.3 0 0 1-5.1-1.9l-1.6 1.9 0.5 0.5a36.3 36.3 0 0 0 8.5 5.8 16.7 16.7 0 0 0-6.9-1.7l1.3 3.9 1.2 3.4c1.1 3.3 2.6 5.5 4.4 6.8-1.7 2.2-2.5 5.2-2.5 9l-1.5-1.7a4.8 4.8 0 0 0-2.9-1.2c3.7 3.7 5.6 6.6 5.6 8.6l-1.7 7.2-2 8-1.1 4.7a6.2 6.2 0 0 1 1.4 3.3c0 0.4 0.1 0.7 0.1 1.1a12.5 12.5 0 0 1-0.7 4q0-1.1-2.1-3.3c-2.3 2.3-4.4 4.4-6.4 6.2l-4.9 4.5c-1.5 1.3-2.9 2.5-4.3 3.5-4.1 3.1-7.7 4.7-10.8 4.9 0.4-0.1-1.5-0.2-5.7-0.4a16.5 16.5 0 0 0-5.9 0.4 1.4 1.4 0 0 1-0.2-0.6 5.2 5.2 0 0 1 0.2-1.1 3.5 3.5 0 0 0 0.4-1c0-0.5-0.2-0.7-0.8-0.7a2.8 2.8 0 0 0-1.9 0.7 3.3 3.3 0 0 1-1.5 0.4c-1.1 0-3.1-0.9-6.1-2.6s-4.1-2.4-6.7-4.1a3.9 3.9 0 0 0-1.2 3.1 3.1 3.1 0 0 0 0.1 1 8.3 8.3 0 0 0 2.6 4.7h-4.2c0.1-1.8 0.2-3.3 0.2-4.7a29.8 29.8 0 0 0-0.2-4.8 16.8 16.8 0 0 0-0.9-3.2 14.3 14.3 0 0 0-4.6-5.8c-3.3-0.4-5.4-1.1-6.2-2.2h-0.4a5.7 5.7 0 0 1-5.3 3c-1 0-1.6-0.2-1.9-0.8s-0.8-1.2-1.9-1.5a2.6 2.6 0 0 1-1.4-0.7h-0.1l-0.4-0.5-1-2.1-1.7 1.9 0.4 0.7a7.4 7.4 0 0 1 0.8 1.6 2.6 2.6 0 0 1-0.6 2.5c-1.4-1.6-3.4-2.3-6.1-2.3v-6.5h4.4a22.3 22.3 0 0 1 0.3-3.3 20.7 20.7 0 0 1 0.4-2.2 32.8 32.8 0 0 0 0.8-5.7 5.8 5.8 0 0 0 4 2.1 9.8 9.8 0 0 0 3.6-1 9.9 9.9 0 0 1 3.2-1.2h1.1a1.3 1.3 0 0 1 1.1 1.2 9.2 9.2 0 0 0 0.2 2.3v-21.9a28.9 28.9 0 0 1 3.1-13.7l1.1-1.8c-1.5-0.6-4-0.8-7.5-0.8a27 27 0 0 0-1.2-5.4 0.7 0.7 0 0 0-0.1-0.5c-0.7-2.6-1.1-3.6-1.2-2.9s-0.1 0.4-0.1 0.6 0.1-0.4 0.1-0.6a8.9 8.9 0 0 1 1.4-4.6 9.8 9.8 0 0 1 3.2-3.2 7.1 7.1 0 0 0 1.7 3.2 11.8 11.8 0 0 0 2.7 2h-3.6a6.8 6.8 0 0 1-0.6 1.5 5.9 5.9 0 0 0-0.4 2.1 5.3 5.3 0 0 0 0.6 2.4c1 1.9 3.4 3.9 7 5.7a22.2 22.2 0 0 0-0.8 2.3c-0.4 1.1-0.8 2.5-1.4 4.3l4.1-4.3 2.9-3.1a10.5 10.5 0 0 1-1.7-4c-2.1 2.1-3.4 3.2-3.8 3.2a22.7 22.7 0 0 1 2.1-4.1l0.2-0.3a17.2 17.2 0 0 0 2.3-5.3 3.5 3.5 0 0 0 2.1 0.7 8.9 8.9 0 0 0 4.4-1.5q0.4-0.4-0.6-1.5l-2.3 2.1a4.5 4.5 0 0 0-2.8-1.4l1-0.8a59.4 59.4 0 0 0 4.7-4.2l2.5 2.1c0.5-2.5 2.1-4.5 4.9-6.2zm-21.7-1.4-5-5.1 1.3-1 4.8 5zm17.5-4.2h-4.2v-1.9h4.2zm-5.9-20.6c0-0.4 0.8 2.4 2.5 8.6a5.9 5.9 0 0 1-3.8-1.9 13 13 0 0 1-4.6 2.3c2.3-3.3 4.2-6.4 5.9-9zm-10.7 12.6h5.4a83.3 83.3 0 0 1-8.3 5.8c-0.2 0.1-0.3 0.1-0.2 0 2.1-2 3.1-3.9 3.1-5.8zm-4.8-3.6h1.8l-1.2 5.3h-1.9zm-3.6 18.9c0.8-0.4 1.9-1.9 3.1-4.4a5.8 5.8 0 0 0 4 1.3c0 1.8-0.7 2.9-2.3 3.3s-2.3 0.9-2.3 1.9a3.4 3.4 0 0 1-2.5-1.5 4.8 4.8 0 0 1-1.3-2.9 4.9 4.9 0 0 0 1.3 2.3zm-2.5 2.1h-1.9v-3.1h1.9zm-1.9-19.9a14.7 14.7 0 0 0 1.2-2.8v3.6a8.5 8.5 0 0 1-2.3-0.6 6.3 6.3 0 0 0-2.3-0.9c1.8 0 3 0.2 3.4 0.7zm-5.1 8.3 0.9-1.8 1.7 0.6-0.6 1.2-2 4.1-1.6-0.7zm-4-2.9a7.8 7.8 0 0 0 1.5 2.9l0.2 0.3h-4.4zm-6.8 27a7.5 7.5 0 0 0 5.8 2.2 18.2 18.2 0 0 0 4-0.8l1.3-0.5a3.3 3.3 0 0 1 3.1-0.6 11.7 11.7 0 0 0-3.1 0.6l-0.7 0.9a13.7 13.7 0 0 1-4.2 4.2 3.4 3.4 0 0 0 1.9 0.4 14.5 14.5 0 0 0 3.2-0.4 4.6 4.6 0 0 1 2.9 0l-8 2-2.9 0.7a1.4 1.4 0 0 1-0.4-0.7 84.2 84.2 0 0 1-3-8zm3.3 9.4-1.5 2.9-1.5-0.6 1.5-3zm-3.4 26.2 4.2 1.7a83.8 83.8 0 0 0-10.2 2.8l-3 1a3.1 3.1 0 0 1 0.1-1c0.5-1.5 2-2.2 4.7-2.2s2.8-0.8 4.2-2.3zm-6.9-28.3h6.5v2.1h-6.5zm3.8 16.8 0.6 1.4-9.7 6.1-0.4-1.7zm-29.4 7.7h3.1v2.1h-3.1zm-5.5-54.8 3.4 4-1.7 1.1-4.4-5.2-3.2-3.7 1.7-1zm-6.5-8.2 1.5 3.4h-1.7l-1.5-2.7zm-6.3-7.3 4.2 2.7-1 1.7-4.2-2.7zm-59.2 46.5v-29.5h39c3.9 0 7.2 2.4 9.7 7.1a27.1 27.1 0 0 1 2.4 6.4 12.4 12.4 0 0 1 0.3 2.7 14.2 14.2 0 0 1-1 5.3 22.2 22.2 0 0 1-3.8 6l-2 2a12.7 12.7 0 0 1-8.5 3.2l-36.1-0.2zm-3-58.9h1.9v3.1h-1.9zm-7.1 54h2.1v3.1h-2.1zm-1.1-1.5v-3.2h1.9v3.2zm1.1-5.9v-4.2h2.1v4.2zm0.2-5.9-3.6-8.6 1.7-0.6 3.8 9.2zm-2.5-9.4v-13.7h2.1v13.7zm3.5-19.8a11.1 11.1 0 0 1-0.6 3 12.3 12.3 0 0 0-0.4 2.9 6.4 6.4 0 0 0-3.2-1.2c0-0.3 0.7-1.1 1.9-2.4a10.9 10.9 0 0 0 2.3-2.3zm-5.8-5.6h1.9v3.1h-1.9zm-7.6 7.1a42.4 42.4 0 0 0 1.5-12.6c0 0.3 0.3 0.4 0.8 0.4a2.6 2.6 0 0 1 1.3 0 1.4 1.4 0 0 1 0.8 1.5v11.5c-4.6 0-7.3-0.2-8.2-0.8zm3.2 144.7h-12.6v-2.1h12.6zm1.6-75.6-2.1 3.4c-2.6-0.9-7-1.3-13.2-1.3v-71.4l3.2 1.5c-0.1 4.4-0.2 9.6-0.1 13.5 0.2 5.4 0.4 10.5 0.8 15.1 0.2 1.5 0.3 3.1 0.5 4.5s-0.6 2.4-0.8 3.5a71.3 71.3 0 0 0-1.4 8 40.9 40.9 0 0 0-0.3 4.7v17.5a102.8 102.8 0 0 0 10.1 2.1c1.5-0.6 2.3-2.7 2.3-6.3a69.9 69.9 0 0 0-1.3-11.4c-0.3-2.5-0.6-4.7-0.7-6.6s-0.3-3.6-0.3-4.9c0.4 1.7 0.7 3.3 1 4.9 1.5 6.8 2.8 12.1 3.8 15.9s1.4 6.7 2.5 8.1q56.7 0.9 85.5 1.1h-85.5a3.9 3.9 0 0 0-0.6 2.7 16.9 16.9 0 0 0 0.3 2.1 66.4 66.4 0 0 0-3.7-6.7zm3.7 6.8zm2.2 15.2h-2.1v-4.4h2.1zm-0.2-9.4a8.1 8.1 0 0 0 1.3-3.2c1.8 1.4 3.3 2.5 4.4 3.2zm8.8-3.7v-2.8h1.9v5.4h-1.9zm60.8 24a14.8 14.8 0 0 1-5.4 8c-5.1 4-13.5 5.9-25.1 5.9-1.2 0-4.7-0.9-10.5-2.9q-6.3-2.1-6.3-2.7c0-0.1 0.1-0.2 0.4-0.2s-1.5 0.5-1.3 1.2l0.2 1.1-2.1-2.4-3.7-3.3a7.7 7.7 0 0 0-1.9 2.7 3.6 3.6 0 0 1 2 0.6c1.3 0.8 2.4 2.4 3.4 4.8a38.5 38.5 0 0 1 6.3-2.1 2 2 0 0 0-0.6 1.7 1.1 1.1 0 0 0 1.3 1h-17.1a20.9 20.9 0 0 0 1.8-5.5 45.3 45.3 0 0 0 0.9-8 27.1 27.1 0 0 0 0.1-2.9c0-1.9-0.1-3.6-0.2-5.1-0.4-4-1.2-6.7-2.6-7.9h0.1c1.9-2.9 2.9-5.2 2.9-7a3.4 3.4 0 0 0-0.1-1l-0.3-1.8h39a16.5 16.5 0 0 1 7.7 1.8 19.3 19.3 0 0 1 6 4.8 24.3 24.3 0 0 1 2.4 3.2 19.5 19.5 0 0 1 3 8 17.2 17.2 0 0 1 0.2 3.2 18.2 18.2 0 0 1-0.5 4.8z"/>
 </g>
 <path d="m34.9 230.1h-10.7v-36.7h10.7c5.4 0 7.9 2.5 7.9 8v20.8c0 5.5-2.5 7.9-7.9 7.9zm1.1-28.1c0-1.5-0.6-2.3-2.1-2.3h-3v24.1h3c1.5 0 2.1-0.7 2.1-2.2z"/>
 <path d="M48.6,230.1V193.4H63.8v6.3H55.3v7.8h7.9v6.3H55.3v10.1H64v6.2Z"/>
 <path d="m80.1 230.5h-3.3c-4.8 0-8.3-2.3-8.3-8.3v-28.8h6.9v28.1c0 2.2 1 2.7 3 2.7s3.2-0.5 3.2-2.7v-28.1h6.8v28.8c0 6-3.4 8.3-8.3 8.3z"/>
 <path d="M104.7,199.7v30.4H98V199.7H92.7v-6.3h17.2v6.3Z"/>
 <path d="m122 230.5a32.6 32.6 0 0 1-8.3-1.2v-7h0.2a11.9 11.9 0 0 0 6.4 1.9c3 0 4.1-1 4.1-4v-3.3c0-2.3-0.8-2.3-4.7-2.3s-5.9-2.1-5.9-6v-7.9c0-6.1 3.2-7.6 8.9-7.6a25 25 0 0 1 7.8 1.2v7h-0.3a9.4 9.4 0 0 0-5.8-2c-2.9 0-3.8 0.9-3.8 3.8v2.4c0 2.4 0.8 2.4 4.7 2.4s5.9 2 5.9 6v8.5c0 6-3.5 8.1-9.2 8.1z"/>
 <path d="m144.8 230.5c-5.8 0-8.6-2-8.6-8v-21.4c0-5.9 2.8-8 8.6-8a20.6 20.6 0 0 1 6.8 1.1v7.4h-0.2a7.8 7.8 0 0 0-4.7-1.7c-2.4 0-3.7 0.7-3.7 3.2v17.3c0 2.6 1.3 3.3 3.7 3.3a7.2 7.2 0 0 0 4.7-1.8h0.2v7.4a20.6 20.6 0 0 1-6.8 1.2z"/>
 <path d="m169.4 230.1v-16.7h-6v16.7h-6.7v-36.7h6.7v13.9h6v-13.9h6.8v36.7z"/>
 <path d="m182.4 230.1v-36.7h6.6v30.5h6.5v6.2z"/>
 <path d="m212.2 230.1-1.4-8.3h-4.4l-1.5 8.3h-6.3l6.6-36.7h7.2l6.7 36.7zm-3.5-25.8h-0.2l-1.7 10.9h3.6z"/>
 <path d="M239.4,230.1l-7.6-17.8c-.8-2-1.4-4.1-1.4-4.1h-.1v22h-6.5V193.4h5.7l7.5,18.1c.8,1.9,1.5,4.1,1.5,4.1h.1V193.4H245v36.8h-5.6Z"/>
 <path d="m262 230.1h-10.7v-36.7h10.7c5.5 0 8 2.5 8 8v20.8c0 5.5-2.5 7.9-8 7.9zm1.2-28.1c0-1.5-0.7-2.3-2.2-2.3h-3v24.1h3a1.9 1.9 0 0 0 2.2-2.2z"/>
 <path d="m283.3 230.5a32.6 32.6 0 0 1-8.3-1.2v-7h0.2a11.9 11.9 0 0 0 6.4 1.9c3 0 4-1 4-4v-3.3c0-2.3-0.8-2.3-4.6-2.3s-6-2.1-6-6v-7.9c0-6.1 3.3-7.6 8.9-7.6a24.5 24.5 0 0 1 7.8 1.2v7h-0.2a9.7 9.7 0 0 0-5.9-2c-2.8 0-3.7 0.9-3.7 3.8v2.4c0 2.4 0.8 2.4 4.6 2.4s6 2 6 6v8.5c0 6-3.5 8.1-9.2 8.1z"/>
 <path d="M322.4,230.1c-1.2-1.3-1.4-3.8-1.5-5.7s-.2-5.1-.4-7.1-.7-3.8-2.4-3.8h-1.2v16.6h-6.7V193.4h10.3c5.3,0,7.4,2,7.4,7.3v4.5c0,3-1.2,5.3-4.5,5.7v.2c2.6.7,3.1,2.9,3.5,5.7s.5,5.3.7,8,.5,4,1.4,5.1v.2Zm-.9-28.1c0-1.5-.6-2.3-2.2-2.3h-2.4v7.9h2.4c1.6,0,2.2-.8,2.2-2.3Z"/>
 <path d="m344.9 230.5h-3.4c-4.9 0-8.2-2.2-8.2-8.3v-20.8c0-6.1 3.3-8.3 8.2-8.3h3.4c4.9 0 8.2 2.2 8.2 8.3v20.8c0 6.1-3.3 8.3-8.2 8.3zm1.4-28.4c0-2.2-1.1-2.8-3.1-2.8s-3.1 0.6-3.1 2.8v19.4c0 2.2 1.1 2.7 3.1 2.7s3.1-0.5 3.1-2.7z"/>
 <path d="M367,230.5c-5.8,0-8.6-2-8.6-8V201.1c0-5.9,2.8-8,8.6-8a21.1,21.1,0,0,1,6.8,1.1v7.4h-.2a7.8,7.8,0,0,0-4.7-1.7c-2.4,0-3.7.7-3.7,3.2v17.3c0,2.6,1.3,3.3,3.7,3.3a7.2,7.2,0,0,0,4.7-1.8h.2v7.4A20.6,20.6,0,0,1,367,230.5Z"/>
 <path d="M391.7,230.1l-5-13.8a38.2,38.2,0,0,1-1-3.7h-.1v17.5h-6.7V193.4h6.7V209h.1a38.3,38.3,0,0,1,1.2-3.9l4.2-11.7h6.7l-6.3,17.1,7.2,19.6Z"/>
 <path d="M415.5,230.1c-1.3-1.3-1.5-3.8-1.6-5.7a63.7,63.7,0,0,0-.4-7.1c-.2-1.8-.6-3.8-2.4-3.8h-1.2v16.6h-6.7V193.4h10.3c5.3,0,7.5,2,7.5,7.3v4.5c0,3-1.3,5.3-4.6,5.7v.2c2.6.7,3.1,2.9,3.5,5.7s.5,5.3.7,8,.5,4,1.5,5.1v.2Zm-1-28.1c0-1.5-.6-2.3-2.2-2.3H410v7.9h2.3c1.6,0,2.2-.8,2.2-2.3Z"/>
 <path d="m438.9 230.1-1.4-8.3h-4.4l-1.5 8.3h-6.3l6.6-36.7h7.2l6.7 36.7zm-3.5-25.8h-0.2l-1.7 10.9h3.6z"/>
 <path d="m461.2 230.1h-10.7v-36.7h10.7c5.5 0 8 2.5 8 8v20.8c0 5.5-2.5 7.9-8 7.9zm1.2-28.1c0-1.5-0.7-2.3-2.2-2.3h-3v24.1h3a1.9 1.9 0 0 0 2.2-2.2z"/>
 <path d="m475.1 230.1v-36.7h6.8v36.7z"/>
 <path d="m499.5 230.5h-3.4c-4.8 0-8.2-2.2-8.2-8.3v-20.8c0-6.1 3.4-8.3 8.2-8.3h3.4c5 0 8.2 2.2 8.2 8.3v20.8c0 6.1-3.2 8.3-8.2 8.3zm1.5-28.4c0-2.2-1.2-2.8-3.2-2.8s-3 0.6-3 2.8v19.4c0 2.2 1 2.7 3 2.7s3.2-0.5 3.2-2.7z"/>
</svg>
