<svg version="1.1" viewBox="0 0 677.99 800" xml:space="preserve" xmlns="http://www.w3.org/2000/svg"><defs><clipPath id="b"><path d="m2208.1 2351.9 23.992-14.76-17.9-25.776-23.067 24.178z" clip-rule="evenodd"/></clipPath><linearGradient id="a" x1="2225" x2="2202" y1="2344" y2="2323" gradientUnits="userSpaceOnUse"><stop stop-color="#a7a5a6" offset="0"/><stop stop-color="#fff" stop-opacity="0" offset=".96771"/><stop stop-color="#fff" stop-opacity="0" offset="1"/></linearGradient></defs><g transform="matrix(1.3333 0 0 -1.3333 -298.14 1746)"><g transform="matrix(3.9542 0 0 3.9542 -1628.1 -1910.1)"><g transform="translate(-1690,-1586)"><g clip-path="url(#b)"><path d="m2208.1 2351.9 23.992-14.76-17.9-25.776-23.067 24.178z" fill="url(#a)" fill-rule="evenodd"/></g></g><path d="m518.12 765.83 24.014-14.735 13.634 19.409-22.333 8.6794z" fill="#7cd3dd" fill-rule="evenodd"/><path d="m512.13 802.72 5.9962-36.894 16.661 14.476 0.5207 33.642z" fill="#00a2df" fill-rule="evenodd"/><path d="m527.77 780.56 18.67 19.388 17.56-8.3311-15.406-21.828z" fill="#d829aa" fill-rule="evenodd"/><path d="m535.4 814.23 24.834-9.8931-23.656-17.354-24.456 15.738z" fill="#6600a0" fill-rule="evenodd"/><path d="m547.69 770.2 16.3 21.41-5.2719-17.201-16.583-23.319z" fill="#171795" fill-rule="evenodd"/></g><g transform="matrix(9.802 0 0 9.802 -3129.2 -7059.7)" fill="#6600a0" fill-rule="evenodd"><path d="m349.95 802.84h1.4472v-8.791h4.5511v-1.3169h-5.9983z"/><path d="m357.22 802.84h1.447v-8.791h4.5513v-1.3169h-5.9983z"/><path d="m364.48 802.84h5.7305v-1.2878h-4.2834v-3.0823h4.1389v-1.2951h-4.1389v-3.1402h4.4209v-1.2881h-5.868z"/><path d="m371.93 792.73v10.108h2.5324c1.0225 0 1.8328-0.2531 2.4309-0.7597 0.6028-0.5064 0.9043-1.1914 0.9046-2.0547 0-0.5886-0.1472-1.0977-0.4414-1.5269-0.2945-0.4292-0.7163-0.7502-1.2661-0.9621 0.323-0.2124 0.6389-0.5017 0.9477-0.8684 0.3086-0.3667 0.7429-1.0056 1.3025-1.9173 0.3521-0.5742 0.6343-1.0058 0.8464-1.2951l0.5354-0.7237h-1.7219l-0.4414 0.6658c-0.014 0.024-0.043 0.065-0.087 0.1228l-0.2822 0.398-0.4485 0.738-0.4849 0.7888c-0.299 0.4146-0.5739 0.7449-0.8247 0.9912-0.2461 0.2461-0.4704 0.4219-0.6728 0.5281-0.198 0.1108-0.5332 0.1663-1.0059 0.1665h-0.3762v-4.3992h-1.447zm1.8811 8.878h-0.4341v-3.191h0.5498c0.7331 0 1.2349 0.063 1.5051 0.1883 0.2749 0.1252 0.4871 0.3135 0.6367 0.5644 0.1541 0.2554 0.2312 0.545 0.2315 0.8682 0 0.3184-0.085 0.6052-0.2532 0.8611-0.1689 0.2605-0.4077 0.4436-0.7163 0.5498-0.304 0.1059-0.8103 0.1589-1.5195 0.1592z"/><path d="m383.34 796.97-1.0996 0.6658c-0.6899 0.4197-1.1819 0.832-1.4761 1.2371-0.2895 0.4101-0.434 0.8803-0.434 1.4111 0 0.7959 0.2749 1.4419 0.8247 1.939 0.5547 0.4968 1.2732 0.7451 2.1562 0.7453 0.844 0 1.6182-0.2366 2.3225-0.7092v-1.6423c-0.7285 0.6994-1.5122 1.0488-2.3515 1.049-0.4727 0-0.8609-0.1111-1.1648-0.3327-0.304-0.2171-0.4558-0.4971-0.4558-0.8394 0-0.3039 0.1108-0.5886 0.3327-0.8538 0.2219-0.2653 0.5811-0.5427 1.0781-0.832l1.107-0.6514c1.2348-0.7331 1.852-1.6689 1.8523-2.8071 0-0.8105-0.2727-1.469-0.8177-1.9753-0.5402-0.5066-1.2443-0.7598-2.1127-0.7598-0.9983 0-1.9078 0.3062-2.7276 0.919v1.8376c0.7813-0.989 1.6858-1.4832 2.7131-1.4832 0.4534 0 0.8296 0.1253 1.1287 0.3763 0.304 0.2556 0.4561 0.5739 0.4561 0.955 0 0.6172-0.4439 1.201-1.3316 1.751z"/></g><g transform="matrix(9.7486 0 0 9.7486 -2662.2 -6904.1)" fill="#6600a0" fill-rule="evenodd"><path d="m301.84 797.71h3.3934v-4.2835c-1.2445-0.5403-2.4795-0.81-3.7046-0.8103-1.6738 0-3.0124 0.4871-4.0156 1.4614-0.9985 0.9793-1.4978 2.1851-1.4978 3.618 0 1.5097 0.5184 2.7661 1.5557 3.7695 1.0368 1.0034 2.3368 1.5049 3.8999 1.5051 0.5691 0 1.1092-0.063 1.6207-0.1882 0.5112-0.1206 1.1575-0.345 1.9391-0.6729v-1.476c-1.2061 0.6994-2.4021 1.049-3.5888 1.049-1.1047 0-2.0356-0.3762-2.7929-1.1286-0.7575-0.7525-1.1359-1.6763-1.1359-2.7713 0-1.1482 0.3784-2.0862 1.1359-2.8144 0.7573-0.7285 1.7315-1.0926 2.9232-1.0926 0.5788 0 1.2709 0.1324 2.0765 0.398l0.1375 0.043v2.1057h-1.9463v1.2879z"/><path d="m307.39 792.73v10.108h2.5325c1.0225 0 1.8328-0.2531 2.4312-0.7597 0.6027-0.5064 0.9041-1.1914 0.9044-2.0547 0-0.5886-0.1472-1.0977-0.4414-1.5269-0.2945-0.4292-0.7163-0.7502-1.2663-0.9621 0.3232-0.2124 0.6391-0.5017 0.9479-0.8684 0.3087-0.3667 0.7428-1.0056 1.3024-1.9173 0.352-0.5742 0.6343-1.0058 0.8465-1.2951l0.5354-0.7237h-1.722l-0.4413 0.6658c-0.014 0.024-0.043 0.065-0.087 0.1228l-0.2821 0.398-0.4486 0.738-0.4848 0.7888c-0.2992 0.4146-0.5741 0.7449-0.8249 0.9912-0.246 0.2461-0.4702 0.4219-0.6729 0.5281-0.1978 0.1108-0.5332 0.1663-1.0057 0.1665h-0.3762v-4.3992h-1.4472zm1.8814 8.878h-0.4342v-3.191h0.5499c0.733 0 1.2348 0.063 1.5049 0.1883 0.275 0.1252 0.4871 0.3135 0.6368 0.5644 0.1542 0.2554 0.2312 0.545 0.2315 0.8682 0 0.3184-0.085 0.6052-0.2532 0.8611-0.1689 0.2605-0.4077 0.4436-0.7163 0.5498-0.304 0.1059-0.8104 0.1589-1.5194 0.1592z"/><path d="m334.21 802.84h1.3748v-10.108h-1.2445l-6.7579 7.7781v-7.7781h-1.3603v10.108h1.1721l6.8158-7.8432z"/><path d="m342.72 802.98c1.5629 0 2.8628-0.4946 3.9-1.4834 1.0419-0.9887 1.5628-2.2285 1.5628-3.719s-0.5259-2.7253-1.5773-3.7046c-1.0468-0.9743-2.3685-1.4611-3.965-1.4614-1.5245 0-2.7955 0.4871-3.8132 1.4614-1.0129 0.9793-1.5194 2.2044-1.5194 3.6758 0 1.5098 0.5113 2.7591 1.534 3.7478 1.0224 0.9888 2.315 1.4832 3.8781 1.4834zm0.058-1.3747c-1.1577 0-2.1106-0.3619-2.8581-1.0852-0.7429-0.7237-1.1143-1.6475-1.1143-2.7713 0-1.0903 0.3738-1.9971 1.1216-2.7204 0.7476-0.7237 1.6834-1.0855 2.8074-1.0855 1.1286 0 2.0693 0.3689 2.8218 1.1069 0.7572 0.7381 1.1357 1.657 1.1359 2.7569 0 1.0708-0.3787 1.9702-1.1359 2.6987-0.7525 0.7332-1.6786 1.0996-2.7784 1.0999z"/><path d="m317.22 792.89h-1.4398l4.2689 10.151h0.3255l4.3559-10.151h-1.4544l-3.0388 7.0979z"/></g><g transform="matrix(.76411 0 0 .76411 -89.136 -107.38)" fill="#b280d0"><g transform="matrix(12.832 0 0 12.832 -4544 -8806.2)" fill-rule="evenodd"><path d="m408.74 792.5v10.094h3.408c1.3745 0 2.4621-0.2077 3.2632-0.6223 0.8005-0.4101 1.4372-1.0153 1.9101-1.8161 0.4724-0.8008 0.7087-1.6739 0.709-2.6192 0-0.6755-0.1301-1.3217-0.3906-1.9392-0.2605-0.6174-0.6321-1.1601-1.1143-1.6279-0.4922-0.4824-1.0637-0.8467-1.7148-1.0925-0.3814-0.1497-0.7307-0.251-1.0493-0.304-0.3182-0.048-0.9261-0.072-1.8233-0.072h-3.198zm3.2559 8.8055h-1.8089v-7.5176h1.8523c0.7237 0 1.2854 0.048 1.6858 0.1448 0.4004 0.1013 0.7332 0.2265 0.9986 0.3762 0.27 0.1543 0.5161 0.3423 0.738 0.5644 0.7139 0.7234 1.0705 1.6375 1.0708 2.7422 0 1.0852-0.3667 1.9702-1.0999 2.6553-0.27 0.2556-0.5813 0.4653-0.9333 0.6296-0.3472 0.1639-0.6777 0.2725-0.9912 0.3255s-0.8176 0.079-1.5122 0.08z"/><path d="m419.85 802.59h1.4473v-10.108h-1.4473z"/><path d="m428.5 802.74c1.5628 0 2.8628-0.4944 3.8999-1.4832 1.0418-0.989 1.5628-2.2285 1.5628-3.719 0-1.4904-0.5259-2.7256-1.5772-3.7046-1.0471-0.9746-2.3686-1.4614-3.965-1.4616-1.5245 0-2.7955 0.487-3.8133 1.4616-1.0129 0.979-1.5193 2.2044-1.5193 3.6756 0 1.5097 0.5113 2.759 1.534 3.748 1.0224 0.9888 2.3149 1.4832 3.8781 1.4832zm0.058-1.3748c-1.1577 0-2.1106-0.3615-2.8581-1.0852-0.743-0.7236-1.1143-1.6474-1.1143-2.7712 0-1.0904 0.3738-1.9968 1.1216-2.7205 0.7475-0.7236 1.6833-1.0854 2.8073-1.0854 1.1287 0 2.0694 0.3691 2.8218 1.1071 0.7574 0.7381 1.1358 1.657 1.136 2.7566 0 1.0708-0.3786 1.9705-1.136 2.699-0.7524 0.7329-1.6784 1.0994-2.7783 1.0996z"/></g><path d="m590.48 1364.1h-18.278l54.195 128.88h4.1349l55.298-128.88h-18.464l-38.579 90.112z" fill-rule="evenodd"/><path d="m459.5 1362.8v129.71h32.497c13.121 0 23.52-3.248 31.195-9.7489 7.7355-6.4984 11.604-15.289 11.608-26.367 0-7.5534-1.889-14.086-5.6643-19.594-3.7792-5.5078-9.192-9.627-16.247-12.346 4.1449-2.7255 8.1987-6.438 12.161-11.144 3.9601-4.7056 9.5333-12.904 16.714-24.604 4.5184-7.3684 8.1397-12.907 10.861-16.62l6.8706-9.2869h-22.096l-5.6643 8.5439c-0.17966 0.308-0.5518 0.8342-1.1164 1.5758l-3.6213 5.1074-5.7554 9.4704-6.2225 10.122c-3.8369 5.3205-7.3646 9.5591-10.583 12.72-3.1581 3.1581-6.0364 5.4141-8.6338 6.7768-2.5408 1.4219-6.8423 2.1342-12.908 2.1367h-4.8276v-56.453h-18.569zm24.139 113.93h-5.5706v-40.949h7.0553c9.4076 0 15.847 0.8084 19.314 2.4164 3.5277 1.6066 6.2507 4.023 8.1705 7.2426 1.9775 3.2775 2.9669 6.9938 2.9707 11.141 0 4.0858-1.0908 7.7662-3.2492 11.05-2.1674 3.3429-5.2318 5.6926-9.192 7.0553-3.9011 1.359-10.398 2.0391-19.499 2.043z" fill-rule="evenodd"/><path d="m584.43 1488.5c6.73 2.79 15.04-1.48 16.84-8.49 2.06-6.71-2.48-14.49-9.36-15.92-6.3-1.66-13.34 2.35-15.16 8.58-2.17 6.25 1.47 13.66 7.68 15.83z"/></g></g></svg>
