<svg width="800" height="600" version="1.1" viewBox="0 0 800 600" xmlns="http://www.w3.org/2000/svg">
 <g transform="matrix(20.891 0 0 20.891 -8501.3 -11106)">
  <g transform="matrix(1.25,0,0,-1.25,412.61,553.44)">
   <path d="m0 0h0.246v-0.133h5e-3c0.042 0.1 0.133 0.166 0.238 0.166 0.058 0 0.108-0.015 0.143-0.038l-0.093-0.258c-0.025 0.02-0.073 0.035-0.098 0.035-0.095 0-0.18-0.073-0.18-0.183v-0.803h-0.261v1.214" fill="#3155ad"/>
   <path d="m0 0h0.246v-0.133h5e-3c0.042 0.1 0.133 0.166 0.238 0.166 0.058 0 0.108-0.015 0.143-0.038l-0.093-0.258c-0.025 0.02-0.073 0.035-0.098 0.035-0.095 0-0.18-0.073-0.18-0.183v-0.803h-0.261z" fill="none" stroke="#3155ad" stroke-width=".003"/>
  </g>
  <g transform="matrix(1.25,0,0,-1.25,414.32,554.69)">
   <path d="m0 0c0.206 0 0.381 0.176 0.381 0.394s-0.175 0.393-0.381 0.393c-0.211 0-0.386-0.175-0.386-0.393s0.175-0.394 0.386-0.394zm0.371-0.065h-5e-3c-0.083-0.111-0.233-0.181-0.399-0.181-0.398 0-0.629 0.326-0.629 0.64 0 0.298 0.248 0.639 0.642 0.639 0.181 0 0.318-0.078 0.386-0.18h5e-3v0.148h0.261v-1.214h-0.261v0.148" fill="#3155ad"/>
   <path d="m0 0c0.206 0 0.381 0.176 0.381 0.394s-0.175 0.393-0.381 0.393c-0.211 0-0.386-0.175-0.386-0.393s0.175-0.394 0.386-0.394z" fill="none" stroke="#3155ad" stroke-width=".003"/>
   <g transform="translate(.371 -.065)">
    <path d="m0 0h-5e-3c-0.083-0.11-0.233-0.181-0.399-0.181-0.399 0-0.629 0.327-0.629 0.64 0 0.298 0.248 0.639 0.642 0.639 0.18 0 0.318-0.077 0.386-0.18h5e-3v0.148h0.261v-1.214h-0.261z" fill="none" stroke="#3155ad" stroke-width=".003"/>
   </g>
  </g>
  <g transform="matrix(1.25,0,0,-1.25,416.23,554.69)">
   <path d="m0 0c0.206 0 0.381 0.176 0.381 0.394s-0.175 0.393-0.381 0.393c-0.211 0-0.386-0.175-0.386-0.393s0.175-0.394 0.386-0.394zm0.371-0.065h-5e-3c-0.083-0.111-0.233-0.181-0.399-0.181-0.398 0-0.629 0.326-0.629 0.64 0 0.298 0.248 0.639 0.642 0.639 0.181 0 0.318-0.078 0.386-0.18h5e-3v0.509h0.261v-1.575h-0.261v0.148" fill="#3155ad"/>
   <path d="m0 0c0.206 0 0.381 0.176 0.381 0.394s-0.175 0.393-0.381 0.393c-0.211 0-0.386-0.175-0.386-0.393s0.175-0.394 0.386-0.394z" fill="none" stroke="#3155ad" stroke-width=".003"/>
   <g transform="translate(.371 -.065)">
    <path d="m0 0h-5e-3c-0.083-0.11-0.233-0.181-0.399-0.181-0.399 0-0.629 0.327-0.629 0.64 0 0.298 0.248 0.639 0.642 0.639 0.18 0 0.318-0.077 0.386-0.18h5e-3v0.509h0.261v-1.575h-0.261z" fill="none" stroke="#3155ad" stroke-width=".003"/>
   </g>
  </g>
  <g transform="matrix(1.25,0,0,-1.25,417.44,553.44)">
   <path d="m0 0h0.26083v-1.2139h-0.26083zm0.13 0.394c0.081 0 0.146-0.065 0.146-0.146 0-0.08-0.065-0.145-0.146-0.145-0.08 0-0.145 0.065-0.145 0.145 0 0.081 0.065 0.146 0.145 0.146" fill="#3155ad"/>
   <path d="m0 0h0.26083v-1.2139h-0.26083z" fill="none" stroke="#3155ad" stroke-width=".003"/>
   <g transform="translate(.13 .394)">
    <path d="m0 0c0.08 0 0.145-0.065 0.145-0.145 0-0.081-0.065-0.146-0.145-0.146s-0.146 0.065-0.146 0.146c0 0.08 0.066 0.145 0.146 0.145z" fill="none" stroke="#3155ad" stroke-width=".003"/>
   </g>
  </g>
  <g transform="matrix(1.25,0,0,-1.25,418.92,554.69)">
   <path d="m0 0c0.228 0 0.394 0.176 0.394 0.394s-0.166 0.393-0.394 0.393-0.394-0.175-0.394-0.393 0.166-0.394 0.394-0.394zm0 1.033c0.424 0 0.67-0.318 0.67-0.639s-0.246-0.64-0.67-0.64-0.67 0.319-0.67 0.64 0.246 0.639 0.67 0.639" fill="#3155ad"/>
   <path d="m0 0c0.228 0 0.394 0.176 0.394 0.394s-0.166 0.393-0.394 0.393-0.394-0.175-0.394-0.393 0.166-0.394 0.394-0.394z" fill="none" stroke="#3155ad" stroke-width=".003"/>
   <g transform="translate(0,1.033)">
    <path d="m0 0c0.424 0 0.67-0.318 0.67-0.64 0-0.321-0.246-0.639-0.67-0.639s-0.67 0.318-0.67 0.639c0 0.322 0.246 0.64 0.67 0.64z" fill="none" stroke="#3155ad" stroke-width=".003"/>
   </g>
  </g>
  <g transform="matrix(1.25,0,0,-1.25,412.6,555.42)">
   <path d="m0 0h0.311v-0.613h6e-3c0.087 0.134 0.246 0.221 0.443 0.221 0.305 0 0.563-0.254 0.563-0.613v-0.874h-0.312v0.805c0 0.263-0.137 0.371-0.344 0.371-0.2 0-0.356-0.129-0.356-0.365v-0.811h-0.311v1.879" fill="#3155ad"/>
   <path d="m0 0h0.311v-0.613h6e-3c0.087 0.134 0.246 0.221 0.443 0.221 0.305 0 0.563-0.254 0.563-0.613v-0.874h-0.312v0.805c0 0.263-0.137 0.371-0.344 0.371-0.2 0-0.356-0.129-0.356-0.365v-0.811h-0.311z" fill="none" stroke="#3155ad" stroke-width=".003"/>
  </g>
  <g transform="matrix(1.25,0,0,-1.25,415.61,557.45)">
   <path d="m0 0c0.272 0 0.47 0.209 0.47 0.47 0 0.26-0.198 0.47-0.47 0.47s-0.47-0.21-0.47-0.47c0-0.261 0.198-0.47 0.47-0.47zm0 1.233c0.506 0 0.799-0.38 0.799-0.763s-0.293-0.763-0.799-0.763-0.799 0.38-0.799 0.763 0.293 0.763 0.799 0.763" fill="#3155ad"/>
   <path d="m0 0c0.272 0 0.47 0.209 0.47 0.47 0 0.26-0.198 0.47-0.47 0.47s-0.47-0.21-0.47-0.47c0-0.261 0.198-0.47 0.47-0.47z" fill="none" stroke="#3155ad" stroke-width=".003"/>
   <g transform="translate(0,1.233)">
    <path d="m0 0c0.506 0 0.799-0.38 0.799-0.763s-0.293-0.763-0.799-0.763-0.799 0.38-0.799 0.763 0.293 0.763 0.799 0.763z" fill="none" stroke="#3155ad" stroke-width=".003"/>
   </g>
  </g>
  <g transform="matrix(1.25,0,0,-1.25,416.97,555.96)">
   <path d="m0 0h0.293v-0.159h6e-3c0.051 0.12 0.159 0.198 0.285 0.198 0.068 0 0.128-0.018 0.17-0.045l-0.111-0.308c-0.03 0.024-0.086 0.042-0.116 0.042-0.114 0-0.216-0.087-0.216-0.219v-0.957h-0.311v1.448" fill="#3155ad"/>
   <path d="m0 0h0.293v-0.159h6e-3c0.051 0.12 0.159 0.198 0.285 0.198 0.068 0 0.128-0.018 0.17-0.045l-0.111-0.308c-0.03 0.024-0.086 0.042-0.116 0.042-0.114 0-0.216-0.087-0.216-0.219v-0.957h-0.311z" fill="none" stroke="#3155ad" stroke-width=".003"/>
  </g>
  <g transform="matrix(1.25,0,0,-1.25,419.45,556.68)">
   <path d="m0 0c-0.066 0.221-0.23 0.338-0.428 0.338-0.197 0-0.359-0.123-0.41-0.338zm0.287-0.56c-0.173-0.218-0.413-0.35-0.673-0.353-0.506 0-0.799 0.38-0.799 0.763s0.293 0.763 0.799 0.763c0.302 0 0.751-0.248 0.751-0.814v-0.056h-1.203c0.018-0.222 0.225-0.38 0.443-0.38 0.168 0 0.311 0.08 0.419 0.224l0.263-0.147" fill="#3155ad"/>
   <path d="m0 0c-0.066 0.221-0.23 0.338-0.428 0.338-0.197 0-0.359-0.123-0.41-0.338z" fill="none" stroke="#3155ad" stroke-width=".003"/>
   <g transform="translate(.287 -.56)">
    <path d="m0 0c-0.174-0.218-0.413-0.35-0.673-0.353-0.506 0-0.799 0.38-0.799 0.763s0.293 0.763 0.799 0.763c0.302 0 0.751-0.248 0.751-0.814v-0.057h-1.203c0.018-0.221 0.224-0.38 0.443-0.38 0.167 0 0.311 0.081 0.419 0.225z" fill="none" stroke="#3155ad" stroke-width=".003"/>
   </g>
  </g>
  <g transform="matrix(1.25,0,0,-1.25,421.25,556.28)">
   <path d="m0 0c-0.26 0-0.452-0.2-0.452-0.47 0-0.269 0.192-0.47 0.452-0.47s0.452 0.201 0.452 0.47c0 0.27-0.192 0.47-0.452 0.47zm-0.763 0.685h0.311v-0.607h6e-3c0.075 0.12 0.269 0.215 0.473 0.215 0.377 0 0.754-0.278 0.754-0.763s-0.377-0.763-0.754-0.763c-0.204 0-0.398 0.096-0.473 0.216h-6e-3v-0.177h-0.311v1.879" fill="#3155ad"/>
   <path d="m0 0c-0.26 0-0.452-0.2-0.452-0.47 0-0.269 0.192-0.47 0.452-0.47s0.452 0.201 0.452 0.47c0 0.27-0.192 0.47-0.452 0.47z" fill="none" stroke="#3155ad" stroke-width=".003"/>
   <g transform="translate(-.763 .685)">
    <path d="m0 0h0.311v-0.607h6e-3c0.075 0.119 0.27 0.215 0.473 0.215 0.377 0 0.754-0.278 0.754-0.763s-0.377-0.763-0.754-0.763c-0.203 0-0.398 0.096-0.473 0.215h-6e-3v-0.176h-0.311z" fill="none" stroke="#3155ad" stroke-width=".003"/>
   </g>
  </g>
  <g transform="matrix(1.25,0,0,-1.25,408.52,555.33)">
   <path d="m0 0h2.424s-0.224 3.502 3.353 4.699l2.948-2.858 2.125 1.781s1.436-1.093 1.571-3.637h1.392s0.18 3.831-3.457 5.941l-1.287-1.137-2.559 2.514s-6.286-0.464-6.51-7.303" fill="#3155ad"/>
   <path d="m0 0h2.424s-0.224 3.502 3.353 4.699l2.948-2.858 2.125 1.781s1.436-1.093 1.571-3.637h1.392s0.18 3.831-3.457 5.941l-1.287-1.137-2.559 2.514s-6.286-0.464-6.51-7.303z" fill="none" stroke="#3155ad" stroke-width=".003"/>
  </g>
  <g transform="matrix(1.25,0,0,-1.25,424.26,556.3)">
   <path d="m0 0-0.017-0.019c-1.43-1.636-3.496-2.574-5.666-2.574-2.171 0-4.236 0.938-5.666 2.574l-0.017 0.019h-0.852l0.072-0.092c1.56-2.006 3.911-3.157 6.449-3.157s4.888 1.151 6.449 3.157l0.071 0.092h-0.823" fill="#3155ad"/>
   <path d="m0 0-0.017-0.019c-1.43-1.636-3.496-2.574-5.666-2.574-2.171 0-4.236 0.938-5.666 2.574l-0.017 0.019h-0.852l0.072-0.092c1.56-2.006 3.911-3.157 6.449-3.157s4.888 1.151 6.449 3.157l0.071 0.092z" fill="none" stroke="#3155ad" stroke-width=".003"/>
  </g>
  <g transform="matrix(1.25,0,0,-1.25,406.94,550.15)">
   <path d="m0 0c0-1.08 0.208-2.13 0.618-3.121l0.085-0.206 0.025 0.221c0.031 0.288 0.1 0.647 0.204 1.068l3e-3 0.015-4e-3 0.014c-0.183 0.656-0.275 1.337-0.275 2.023 0 0.627 0.077 1.25 0.23 1.853 0.804 2.334 3.009 3.905 5.484 3.905 2.22 0 4.275-1.295 5.235-3.299l8e-3 -0.017 0.829-0.484-0.073 0.201c-0.839 2.527-3.192 4.225-5.857 4.225-0.984 0-1.933-0.208-2.794-0.605 1.038 0.632 2.236 0.977 3.464 0.977 1.697 0 3.314-0.638 4.553-1.796 1.233-1.152 1.978-2.71 2.099-4.387l2e-3 -0.025 0.581-0.706 4e-3 0.472c0 3.866-3.145 7.011-7.011 7.011-0.549 0-1.087-0.065-1.611-0.188 0.764 0.254 1.569 0.387 2.381 0.387 4.148 0 7.523-3.375 7.523-7.524 0-0.705-0.097-1.403-0.29-2.075l-4e-3 -0.017 5e-3 -0.017c0.098-0.301 0.291-1.049 0.291-1.049l0.065 0.166c0.372 0.949 0.561 1.951 0.561 2.978 0 4.502-3.663 8.165-8.166 8.165-4.502 0-8.165-3.663-8.165-8.165" fill="#3155ad"/>
   <path d="m0 0c0-1.08 0.208-2.13 0.618-3.121l0.085-0.206 0.025 0.221c0.031 0.288 0.1 0.647 0.204 1.068l3e-3 0.015-4e-3 0.014c-0.183 0.656-0.275 1.337-0.275 2.023 0 0.627 0.077 1.25 0.23 1.853 0.804 2.334 3.009 3.905 5.484 3.905 2.22 0 4.275-1.295 5.235-3.299l8e-3 -0.017 0.829-0.484-0.073 0.201c-0.839 2.527-3.192 4.225-5.857 4.225-0.984 0-1.933-0.208-2.794-0.605 1.038 0.632 2.236 0.977 3.464 0.977 1.697 0 3.314-0.638 4.553-1.796 1.233-1.152 1.978-2.71 2.099-4.387l2e-3 -0.025 0.581-0.706 4e-3 0.472c0 3.866-3.145 7.011-7.011 7.011-0.549 0-1.087-0.065-1.611-0.188 0.764 0.254 1.569 0.387 2.381 0.387 4.148 0 7.523-3.375 7.523-7.524 0-0.705-0.097-1.403-0.29-2.075l-4e-3 -0.017 5e-3 -0.017c0.098-0.301 0.291-1.049 0.291-1.049l0.065 0.166c0.372 0.949 0.561 1.951 0.561 2.978 0 4.502-3.663 8.165-8.166 8.165-4.502 0-8.165-3.663-8.165-8.165z" fill="none" stroke="#3155ad" stroke-width=".003"/>
  </g>
 </g>
 <g transform="matrix(.53327 0 0 .53327 468.86 173.25)" fill="#e54123">
  <path d="m423.33 434.15-1.3892-2.1429 1.9065-1.2414 1.404 2.1282zm-6.8574-136.81v22.419l-10.626 10.33c-1.5222-1.2858-3.2956-0.57637-5.8968 1.138l-11.572 3.5912-3.4878 0.0443-3.1922-1.3744-7.3304-4.5815-6.3993-20.129 2.3646-18.754c16.05-4.7146 13.168-2.2611 28.302-2.2611l10.966 0.88673zm-20.143 103.7-0.73896-3.9164 1.3892 2.1429 1.6405 1.2562zm-39.947 20.188h-4.5667v-4.5667h4.5667zm35.07-15.473 1.5666 6.6062 1.404 2.1429 6.2366 6.7984-1.2266 2.3203 4.0051 1.9656 3.6799 8.4387 4.685-1.5222-1.3744 2.4238-1.9213 1.2414 4.5223 6.7688 1.3892 2.1429 2.2464 6.1924h13.168l16.508 3.1331 23.41-3.1331c1.1084-2.9114 0.63551-2.0396-0.88672-6.5914l-1.6405-1.9656-0.17734-4.4484-0.69461-1.0789-2.6159 0.17735-0.69461-1.0641-2.1873-1.9065-3.2956-2.1577-7.0792-13.848-2.6159 0.17734c2.1429-1.404 2.3942-7.6555-0.87196-13.729l-6.1037-5.1873 0.41381-8.6308-5.2465-4.212-1.5666-12.828-2.6159 0.17735 1.9065-1.2414-4.6998-3.0444-6.6357-9.2072c1.7144-0.1478 3.3991-0.32514 5.0396-0.53205 10.301-1.3005 18.237-12.444 21.681-16.36 2.2169-2.5271 4.9658 2.1282 6.3993-3.1183 2.069-7.5815 3.2366-17.292 3.281-27.09 0.0444-9.9315-5.4977-26.203-7.9658-34.139-1.3301-4.3007 1.3597-8.0102-0.82762-10.759-2.4533-3.074-4.9657-5.4977-7.4338-7.4042-2.4533-1.9065-6.6357-1.5222-8.8674-2.5271-7.3008-3.2662-11.084-4.2859-11.084-4.2859l-9.1482-1.9065c-11.72 1.138-24.858-9.7246-38.854 1.4188l-2.2907-1.7734v0.75372l-1.2562 1.271c-3.7243-4.5815-4.744-1.537-10.168-1.537h-25.154c-7.6998 0-12.281 2.2759-13.714 6.8574v40.554l-0.33991 1.5961 0.33991 0.67984-2.276 9.1482 4.5667 16.005-9.1334 20.557 6.8426 11.439v6.8574c0 10.863-1.4188 19.138-4.5667 25.139 2.5715 0 4.8623 6.0002 6.8574 18.281l-2.2907 21.489v2.2907l2.2907 2.2907h-2.2907l2.2907 14.617h6.8574l11.439 2.2908 2.276-2.2908 13.714 2.2908h4.5667c9.1482 0 13.714-4.0494 13.714-14.632v-2.2759l-2.2759-2.2907 2.2759-10.064v-2.2759l-2.2759-2.2908v-2.2907l2.2759-2.2759-2.2759-20.573 2.2021-17.676 12.666 11.69 1.2119 16.862" stroke-width="1.3333"/>
  <path transform="matrix(1.3333,0,0,-1.3333,-18.313,830.17)" d="m27.567 245.07c-3.281 0-5.6863-2.3499-5.6863-6.429 0-3.8906 2.2834-6.429 5.6863-6.429 3.281 0 5.6863 2.3499 5.6863 6.429s-2.4053 6.429-5.6863 6.429m10.076-18.112-9.3331-19.043h-8.7235l9.1558 18.179c-1.053-0.43229-2.228-0.56531-3.281-0.56531-5.9302 0-11.617 4.8882-11.617 13.046 0 8.657 5.9302 13.734 13.723 13.734s13.723-4.8882 13.723-13.601c0-4.0237-1.6627-7.737-3.6468-11.75"/>
  <path transform="matrix(1.3333,0,0,-1.3333,-18.313,830.17)" d="m61.08 207.92h-8.7235l14.288 36.789h-11.628v-6.9278h-7.6594v14.166h27.999v-7.2382z"/>
  <path transform="matrix(1.3333,0,0,-1.3333,-18.313,830.17)" d="m122.11 211.13c-1.9841-1.973-5.1321-3.5803-9.71-3.5803s-7.9143 1.6072-9.8319 3.5249c-2.7157 2.7157-3.3364 5.9302-3.5803 9.1447h8.0362c0.43229-3.4584 2.0395-5.4425 5.376-5.4425 1.5518 0 2.8487 0.43229 3.8352 1.4188 1.4188 1.4299 1.7292 3.7798 1.7292 6.562 0 5.0656-1.4853 7.9143-5.376 7.9143-3.281 0-4.7663-1.8622-5.3205-3.5914h-7.3601v24.862h25.106v-7.2382h-17.802v-9.4661c1.175 1.1195 3.6468 2.228 6.6174 2.228 3.6468 0 6.429-1.175 8.2136-2.9706 3.4694-3.4584 3.9572-7.604 3.9572-11.738 0-4.9437-0.67615-8.4131-3.8906-11.628"/>
  <path transform="matrix(1.3333,0,0,-1.3333,-18.313,830.17)" d="m179.79 207.92v25.661l-8.4131-16.693h-5.8083l-8.4685 16.693v-25.661h-8.5905v44.028h8.4685l11.495-23.809 11.439 23.809h8.4685v-44.028z"/>
  <path transform="matrix(1.3333,0,0,-1.3333,-18.313,830.17)" d="m221.11 207.92v18.422h-14.898v-18.422h-8.6016v44.028h8.6016v-18.001h14.898v18.001h8.5905v-44.028z"/>
  <path transform="matrix(1.3333,0,0,-1.3333,-18.313,830.17)" d="m238.16 207.92v6.1186l14.288 18.866h-13.49v7.2271h23.743v-6.1186l-14.465-18.855h14.465v-7.2382z"/>
  <path transform="matrix(1.3333,0,0,-1.3333,-18.313,830.17)" d="m282.87 229.3h27.39v-7.482h-27.39z"/>
  <path transform="matrix(1.3333,0,0,-1.3333,-18.313,830.17)" d="m354.34 241.55c-1.4853 1.7957-3.4584 2.7157-6.429 2.7157h-6.4955v-28.687h6.4955c2.9706 0 4.9437 0.9311 6.429 2.7268 1.6072 1.973 1.8511 5.1321 1.8511 11.805s-0.24386 9.455-1.8511 11.439m5.9967-29.429c-2.9041-2.9041-7.0497-4.201-11.628-4.201h-15.884v44.016h15.884c4.5779 0 8.7235-1.2969 11.628-4.201 4.9437-4.9437 4.456-11.007 4.456-17.624s0.48772-13.046-4.456-17.99"/>
  <path transform="matrix(1.3333,0,0,-1.3333,-18.313,830.17)" d="m387.73 238.95-5.5644-16.017h10.94zm10.264-31.037-2.5938 7.7924h-15.651l-2.6492-7.7924h-8.9673l16.006 44.016h6.7394l16.084-44.016z"/>
  <path transform="matrix(1.3333,0,0,-1.3333,-18.313,830.17)" d="m429.96 226.4h-8.9673v-10.818h8.9673c3.8906 0 5.7528 2.4718 5.7528 5.4425 0 2.9596-1.8622 5.376-5.7528 5.376m-0.55422 17.868h-8.4131v-10.142h8.4131c3.6468 0 5.6863 2.0396 5.6863 5.0767 0 3.0261-2.0395 5.0656-5.6863 5.0656m1.4188-36.357h-18.422v44.028h17.68c8.5905 0 13.601-4.8217 13.601-12.37 0-4.8882-3.2145-8.0362-5.4425-9.0893 2.6603-1.2304 6.0632-4.0126 6.0632-9.8873 0-8.2247-5.6309-12.681-13.479-12.681"/>
  <path transform="matrix(1.3333,0,0,-1.3333,-18.313,830.17)" d="m468.54 221.27v-9.8874h-7.5485v9.8874h-9.9538v7.5485h9.9538v9.8874h7.5485v-9.8874h9.8874v-7.5485z"/>
  <path transform="matrix(1.3333,0,0,-1.3333,-18.313,830.17)" d="m83.615 207.03c-2.9706 0-5.3871 2.4164-5.3871 5.387s2.4164 5.387 5.3871 5.387 5.4536-2.4164 5.4536-5.387-2.4829-5.387-5.4536-5.387"/>
  <path transform="matrix(1.3333,0,0,-1.3333,-18.313,830.17)" d="m19.555 549.84 2.0617-1.0419c-0.65398 0-1.2304-0.24386-1.7292-0.69832zm27.844-3.0704h2.0617v-2.0839h-2.0617zm4.1234-36.523h2.0617v-2.0839h-2.0617zm-32.998-19.819-2.0617-10.43v-12.514c0-4.1788 4.1234-3.0039 12.381-3.0039l8.2468 2.1282 18.555-3.1702c6.961 1.175 6.0189 0.38796 6.0189 4.0458v9.3886l-2.0617 1.0419h2.0617l-2.0617 5.2097v3.1369l2.0617 5.2097-2.9485 6.1519 0.88676 10.541 0.1441 0.46555-0.1441 0.57639 2.0617 5.2208v2.0839l-2.0617 10.43 0.66507 1.8289-0.66507 2.3499 0.44338 1.8068-0.44338 0.67615-2.1504 1.0419-0.26603 1.0419h2.4164l-0.04434 4.2897-2.1947 0.53206 2.1726 1.0087-0.11084 10.863-3.7798 4.1678-26.802-2.0839-2.0728 1.0419c-5.1543 0-7.6039-0.47663-9.4107-6.7394l1.1639-2.6492-2.0617-3.1258v-1.053l0.9311-0.46554c-0.22169-0.69832-0.41013-1.5518-0.57639-2.4829l-0.07759-0.44338c-0.11084-0.68724-0.19952-1.4077-0.27711-2.2169l2.0617-6.2516-1.8844-7.3047 1.8844-5.2208-2.0617-5.2097v-1.0419l2.0617-4.1788-4.1234-6.2627z"/>
  <path transform="matrix(1.3333,0,0,-1.3333,-18.313,830.17)" d="m91.304 613.61 2.0617-1.7181c-0.65398 0-1.2304-0.39904-1.7292-1.1417zm-2.0174-18.877h2.0617v-3.4251h-2.0617zm21.626-49.714h2.0617v-3.4251h-2.0617zm-35.459-32.721 0.39904-16.992v-20.573c0-6.8502 4.1345-4.9215 12.381-4.9215l8.2468-5.8194 18.555 4.1012c6.961 1.9287 6.0189 0.6429 6.0189 6.6396v15.43l-2.0617 1.7181h2.0617l-2.0617 8.5683v1.7181l0.93109 1.6294-0.93109 1.7957 2.0617 8.5794-3.1258 19.232 1.0641 8.1914 0.47663 1.1417-0.47663 0.57639 2.0617 8.5683v3.4251l-2.0617 17.148 2.0617 1.7181-2.0617 5.1432 0.44337 2.9596-0.44337 1.1084-2.1504 1.7181-4.3784 1.7181h6.5288l-0.0443 7.0497-2.1836 0.87568 2.1726 1.6627-0.11084 17.835-3.7909 6.8613-17.591 0.66507-11.273-2.3832c-5.1543 0-8.5129-4.1123-10.32-14.399l2.0617-1.0308-1.8844-1.6294-0.17735-5.2208 0.94218-0.77592c-0.23277-1.1528-0.42121-2.5383-0.58748-4.0791l-0.3547-0.2882 0.27711-0.44337c-0.09976-1.1306-0.19952-2.3167-0.27711-3.6357l2.0617-10.286-1.8844-12.004 1.8844-8.5683-2.0617-8.5683 2.0617-1.7181h-2.0617l2.0617-6.8613-0.39904-10.076z"/>
  <path transform="matrix(1.3333,0,0,-1.3333,-18.313,830.17)" d="m142.44 499.28c-0.66507 0-1.2304-0.19952-1.7292-0.54314l-0.33253 1.3634zm21.659 14h2.0617v-1.6516h-2.0617zm4.1234-8.2247h2.0617v-1.6516h-2.0617zm8.0806-18.943 0.31036 4.8218-2.3166 3.8574 2.0063 8.6126 0.12193 0.46555-0.12193 0.3547 2.0617 4.1234v1.6405l-2.0617 8.2358 0.0554 1.5407-0.0554 1.7624 0.44338 1.4188-0.44338 0.53205-2.1504 0.83134-0.26602 0.82025h2.4164l-0.0443 3.3918-2.1836 0.41012 2.1615 0.80917-0.11084 8.5683-3.7798 3.2921-20.85 1.2858-8.0141-2.106c-5.1654 0-6.5953 0.22169-8.3909-4.7109l0.13301-2.7046-0.47663-1.7957v-0.82026l-0.6429-1.053c-0.23277-0.55422-0.42121-1.2193-0.58748-1.962l-0.0776-0.34362c-0.0998-0.54314-0.19952-1.1195-0.27711-1.7514l2.0617-4.9437-1.8844-5.7639 1.8844-4.1123-0.82025-2.1282 0.82025-2.8154-0.37687-1.4299 0.37687-1.8622-1.0752-5.9856 1.0752-7.1938-2.0617-8.2358v-9.8874c0-3.2921 4.1345-2.361 12.381-2.361l8.2468 1.6848 18.555-2.5051c6.961 0.92001 6.0189 0.29928 6.0189 3.1812v7.4155"/>
  <path transform="matrix(1.3333,0,0,-1.3333,-18.313,830.17)" d="m194.08 542.13 2.0617-1.3301c-0.65398 0-1.2304-0.31036-1.7292-0.88675zm28.875-28.531h2.0617v-2.6603h-2.0617zm4.1234 14.199h2.0617v-2.6603h-2.0617zm8.0695-1.3301 2.0728 6.6507v2.6603l-2.0728 13.301 1.186 1.319-1.186 4.0015 0.45447 2.2945-0.45447 0.86459-2.1393 1.3301 0.17735 2.5162 1.962-1.186-0.0333 5.4757-2.1947 0.67615 2.1726 1.2969-0.11084 13.833-3.7798 5.3205-11.617-4.6222-17.259 3.2921c-5.1543 0-8.5018-3.9904-10.309-11.971h2.0617l-2.0617-3.9904v-1.3301l0.93109-0.59856c-0.23277-0.89784-0.41012-1.973-0.57639-3.1591l-0.12193-0.26602 0.0443-0.31037c-0.11084-0.87567-0.19952-1.7957-0.27711-2.8154l2.0617-7.9808-1.8844-9.311 1.8844-6.6507-2.0617-6.6507 2.0617-1.3301h-2.0617l2.0617-5.3206-2.2723-8.4131 2.2723-12.88-2.0617-13.301v-15.962c0-5.3206 4.1234-3.8242 12.37-3.8242l14.576 1.3412 12.237-2.6714c6.961 1.4964 6.0189 0.4988 6.0189 5.1543v11.971l-0.63182 0.77591 0.63182 0.55423-2.0728 6.6507v1.3301l0.24386 1.2526-0.24386 1.4077-0.0998 6.3514-4.1899 8.2801 4.2897 13.312"/>
  <path transform="matrix(1.3333,0,0,-1.3333,-18.313,830.17)" d="m257.57 586.08 2.0617-1.4964c-0.65398 0-1.2304-0.35471-1.7292-0.99761zm26.813 1.4964h2.0617v-2.9928h-2.0617zm4.1234-52.352h2.0617v-2.9928h-2.0617zm8.0806-1.4964 2.0617 7.4709v2.9928l-2.0617 14.964 2.0617 1.4964-2.0617 4.4892 0.44338 2.5827-0.44338 0.96435-2.1504 1.4964 2.1504 1.4964-0.0443 6.163-2.1947 0.75374 2.1726 1.4632-0.11084 15.563-3.7798 5.9745-17.392-1.9398-11.484 0.44338c-5.1543 0-8.5018-4.4781-10.309-13.457h2.0617l-2.0617-4.4892v-1.4964l0.93109-0.67616c-0.22169-1.0087-0.41012-2.2169-0.57639-3.5581l-0.3547-0.25494 0.27711-0.38796c-0.11085-0.97543-0.19952-2.0174-0.27711-3.1702l2.0617-8.9673-1.8844-10.475 1.8844-7.482-2.0617-7.4709 2.0617-1.4964h-2.0617l2.0617-5.9856-1.6627-9.4329 1.6627-14.498-2.0617-14.964v-17.946c0-5.9856 4.1234-4.3008 12.381-4.3008l12.847-2.6603 13.955 1.1639c6.961 1.6848 6.0189 0.55423 6.0189 5.7972v2.1282l-1.7292 2.2501 1.7292-0.75374-2.0617 18.81v1.4964l-0.18844 1.5962 0.18844 1.3966 0.76483 7.615-2.3277 16.217 1.5629 7.5818"/>
  <path transform="matrix(1.3333,0,0,-1.3333,-18.313,830.17)" d="m314.93 558.61 2.0617-1.1639c-0.65398 0-1.2304-0.27711-1.7292-0.76483zm27.844-43.119h2.0617v-2.3166h-2.0617zm4.1234 4.6887h2.0617v-2.3166h-2.0617zm8.0806-1.1639 2.0617 5.8083v2.3167l-2.0617 11.605-0.33253 1.962 0.33253 2.6824 0.44338 2.0063-0.44338 0.75375-2.1504 1.1639 2.228-0.36579-0.0776 1.5186-0.0443 4.7774-0.0222 1.7181-0.11085 12.082-3.7798 4.6333-19.664-0.57639-2.0617 1.1639c-5.1543 0-15.651-5.2208-17.458-12.193h2.0617l-2.0617-3.4805v-1.1528l0.9311-0.53205c-0.22169-0.77592-0.41013-1.7181-0.57639-2.76l-0.0998-0.19953 0.0222-0.29928c-0.11085-0.75374-0.19953-1.5629-0.27712-2.4608l2.0617-6.961-1.8844-8.1249 1.8844-5.7972-2.0617-5.8083 2.0617-1.1639h-2.0617l2.0617-4.6333-4.1234-6.9721 4.1234-11.605-2.0617-11.605v-13.922c0-4.6444 4.1234-3.3364 12.381-3.3364l6.1076-2.3277 20.695 1.1639c6.961 1.308 6.0189 0.4323 6.0189 4.5003v10.442l-0.78699-0.13302 0.78699 1.2969-2.0617 5.7972v1.1639l0.72049 1.8733-0.72049 0.44338 2.0617 5.8083-6.3625 6.961 4.3008 11.605"/>
  <path transform="matrix(1.3333,0,0,-1.3333,-18.313,830.17)" d="m378.16 605.01 2.0617-1.7181c-0.65398 0-1.2304-0.39904-1.7292-1.1417zm2.106-17.846h2.0617v-3.4251h-2.0617zm28.831-41.478h2.0617v-3.4251h-2.0617zm8.0806-1.707 2.0617 8.5683v3.4251l-2.0617 17.148 2.0617 1.7181-2.0617 5.1432 0.44338 2.9596-0.44338 1.1084-2.1504 1.7181-4.3784 1.7181h6.5288l-0.0443 7.0497-2.1947 0.87567 2.1726 1.6627-0.11084 17.835-3.7798 6.8613-16.56-0.85351-2.0617 1.707c-5.1543 0-18.755-7.7148-20.562-18.001h2.0617l-2.0617-5.1432v-1.707l0.93109-0.77591c-0.22169-1.1528-0.41012-2.5383-0.57639-4.0791l-0.0776-0.31037v-0.42121c-0.11085-1.1306-0.19952-2.3166-0.27711-3.6357l2.0617-10.286-1.8844-12.004 1.8844-8.5683-2.0617-8.5683 2.0617-1.7181h-2.0617l2.0617-6.8613-4.1234-10.286 4.1234-17.137-2.0617-17.148v-20.573c0-6.8502 4.1234-4.9215 12.381-4.9215l13.944-3.547 12.858 1.8289c6.961 1.9287 6.0189 0.6429 6.0189 6.6396v15.43l-0.73158 1.2969 0.73158 0.42121-2.0617 8.5683v1.7181l0.80916 2.2502-0.80916 1.175-1.5518 12.426-2.749 6.429 4.3008 17.148"/>
  <path transform="matrix(1.3333,0,0,-1.3333,-18.313,830.17)" d="m439.79 525.64c-0.66507 0-1.2304-0.17735-1.7292-0.4988l-0.33253 1.2525zm24.752 2.5383h2.0617v-1.5075h-2.0617zm-24.707-36.623h2.0617v-1.5075h-2.0617zm-6.2295 11.051 2.0617-3.015-4.1234-4.5114 4.1234-7.5153-2.0617-7.5264v-9.0228c0-3.0039 4.1234-2.1615 12.37-2.1615l12.315-5.4092 14.498 4.6555c6.961 0.84242 6.0189 0.27711 6.0189 2.9152l-0.0554 6.2738-0.6429 0.47663 0.69832 0.76483-2.0617 3.7687v0.74266l0.33253 0.8535-0.33253 0.65399-1.1195 3.9793-3.1812 4.3008 4.3008 7.5153 0.11084 0.54314-0.11084 0.21061 2.0617 3.7576v1.5075l-2.0617 7.5153 0.79808 1.2525-0.79808 1.7624 0.44338 1.2969-0.44338 0.48771-2.1504 0.75375-1.1639 0.82025 3.3143-0.0665-0.0443 3.0926-2.1947 0.38795 2.1726 0.7205-0.11085 7.8256-3.7798 3.015-16.56 2.3499-2.0617 0.75375c-5.1654 0-18.755-6.1186-20.562-10.63h2.0617l-2.0617-2.2502v-0.75374l0.93109-0.34362c-0.23277-0.4988-0.41012-1.1084-0.57639-1.7846v-0.1441l-0.0776-0.17735c-0.11085-0.4988-0.19952-1.0198-0.27711-1.5962l2.0617-4.5114-1.8844-5.2651 1.8844-3.7576-2.0617-3.7687"/>
  <path transform="matrix(1.3333,0,0,-1.3333,-18.313,830.17)" d="m473.69 95.415-2.0617 1.0419c0.65398 0 1.2304 0.24386 1.7292 0.69832zm-27.844 3.0704h-2.0617v2.0839h2.0617zm-4.1234 36.523h-2.0617v2.0839h2.0617zm32.998 19.819 2.0617 10.43v12.514c0 4.1788-4.1234 3.0039-12.381 3.0039l-8.2468-2.1282-18.555 3.1702c-6.961-1.175-6.0189-0.38796-6.0189-4.0458v-9.3886l2.0617-1.0419h-2.0617l2.0617-5.2097v-3.1369l-2.0617-5.2097 2.9485-6.1519-0.88675-10.541-0.1441-0.46555 0.1441-0.57639-2.0617-5.2208v-2.0839l2.0617-10.43-0.66507-1.8289 0.66507-2.3499-0.44338-1.7957 0.44338-0.68723 2.1504-1.0419 0.26603-1.0419h-2.4164l0.0443-4.2897 2.1947-0.53206-2.1726-1.0087 0.11085-10.863 3.7798-4.1678 26.802 2.0839 2.0728-1.0419c5.1543 0 7.604 0.47663 9.4107 6.7394l-1.1639 2.6492 2.0617 3.1258v1.0419l-0.9311 0.47663c0.23278 0.69832 0.41013 1.5518 0.57639 2.4829l0.0776 0.44338c0.11085 0.68724 0.19953 1.4077 0.27712 2.2169l-2.0617 6.2516 1.8844 7.3047-1.8844 5.2208 2.0617 5.2097v1.0419l-2.0617 4.1788 4.1234 6.2627z"/>
  <path transform="matrix(1.3333,0,0,-1.3333,-18.313,830.17)" d="m400.91 31.64-2.0617 1.7181c0.65398 0 1.2304 0.39904 1.7292 1.1417zm2.0174 18.877h-2.0617v3.4251h2.0617zm-21.626 49.703h-2.0617v3.4251h2.0617zm35.459 32.732-0.39904 16.992v20.573c0 6.8502-4.1345 4.9215-12.381 4.9215l-8.2468 5.8193-18.555-4.1012c-6.961-1.9287-6.0189-0.6429-6.0189-6.6396v-15.43l2.0617-1.7181h-2.0617l2.0617-8.5683v-1.7181l-0.9311-1.6294 0.9311-1.7957-2.0617-8.5794 3.1258-19.232-1.0641-8.1914-0.47663-1.1417 0.47663-0.57639-2.0617-8.5683v-3.4251l2.0617-17.148-2.0617-1.7181 2.0617-5.1432-0.44338-2.9596 0.44338-1.1084 2.1504-1.7181 4.3784-1.7181h-6.5288l0.0443-7.0497 2.1836-0.87567-2.1726-1.6627 0.12193-17.835 3.7798-6.8613 17.591-0.66507 11.273 2.3832c5.1543 0 8.5129 4.1123 10.32 14.399l-2.0617 1.0309 1.8844 1.6294 0.17735 5.2208-0.94218 0.77591c0.23277 1.1528 0.42121 2.5383 0.58748 4.0791l0.3547 0.2882-0.27711 0.44338c0.0998 1.1306 0.19952 2.3167 0.27711 3.6357l-2.0617 10.286 1.8844 12.004-1.8844 8.5683 2.0617 8.5683-2.0617 1.7181h2.0617l-2.0617 6.8613 0.39904 10.076z"/>
  <path transform="matrix(1.3333,0,0,-1.3333,-18.313,830.17)" d="m347.72 145.97c0.66507 0 1.2304 0.19952 1.7292 0.55422l0.33253-1.3745zm-21.659-14h-2.0617v1.6516h2.0617zm-4.1234 8.2247h-2.0617v1.6516h2.0617zm-8.0806 18.943-0.32145-4.8218 2.3166-3.8574-1.9952-8.6126-0.12193-0.46555 0.12193-0.3547-2.0617-4.1234v-1.6405l2.0617-8.2358-0.0554-1.5407 0.0554-1.7624-0.44338-1.4188 0.44338-0.53205 2.1504-0.83134 0.26602-0.82025h-2.4164l0.0443-3.3918 2.1836-0.41012-2.1726-0.80917 0.12193-8.5683 3.7798-3.2921 20.85-1.2858 8.0141 2.106c5.1654 0 6.5953-0.22169 8.3909 4.7109l-0.13301 2.7046 0.47663 1.7957v0.82026l0.6429 1.053c0.23277 0.55422 0.42121 1.2193 0.58748 1.9509l0.0776 0.3547c0.0998 0.54314 0.19952 1.1195 0.27711 1.7514l-2.0617 4.9437 1.8844 5.7639-1.8844 4.1123 0.82025 2.1282-0.82025 2.8154 0.37687 1.4299-0.37687 1.8622 1.0752 5.9856-1.0752 7.1938 2.0617 8.2358v9.8874c0 3.2921-4.1345 2.361-12.381 2.361l-8.2468-1.6848-18.555 2.5051c-6.961-0.92001-6.0189-0.29928-6.0189-3.1812v-7.4155"/>
  <path transform="matrix(1.3333,0,0,-1.3333,-18.313,830.17)" d="m296.07 103.13-2.0617 1.3301c0.65398 0 1.2304 0.32145 1.7292 0.88675zm-28.875 28.531h-2.0617v2.6603h2.0617zm-4.1234-14.199h-2.0617v2.6603h2.0617zm-8.0806 1.3301-2.0617-6.6507v-2.6603l2.0617-13.301-1.175-1.3191 1.175-4.0015-0.44338-2.2945 0.44338-0.86459 2.1504-1.3301-0.17735-2.5162-1.973 1.186 0.0443-5.4757 2.1947-0.67615-2.1726-1.2969 0.11084-13.833 3.7798-5.3205 11.617 4.6222 17.259-3.2921c5.1543 0 8.5018 3.9904 10.309 11.971h-2.0617l2.0617 3.9904v1.3301l-0.93109 0.59856c0.23277 0.89784 0.41012 1.973 0.57639 3.1591l0.12193 0.26603-0.0443 0.31036c0.11084 0.87567 0.19952 1.7957 0.27711 2.8155l-2.0617 7.9808 1.8844 9.311-1.8844 6.6507 2.0617 6.6507-2.0617 1.3301h2.0617l-2.0617 5.3316 2.2723 8.402-2.2723 12.88 2.0617 13.301v15.962c0 5.3206-4.1234 3.8242-12.37 3.8242l-14.576-1.3412-12.237 2.6714c-6.961-1.4964-6.0189-0.4988-6.0189-5.1543v-11.971l0.62073-0.77591-0.62073-0.55423 2.0617-6.6507v-1.3301l-0.23277-1.2526 0.23277-1.4077 0.11085-6.3514 4.1899-8.2801-4.3008-13.312"/>
  <path transform="matrix(1.3333,0,0,-1.3333,-18.313,830.17)" d="m232.59 59.173-2.0617 1.4964c0.65398 0 1.2304 0.3547 1.7292 0.9976zm-26.813-1.4964h-2.0617v2.9928h2.0617zm-4.1234 52.352h-2.0617v2.9928h2.0617zm-8.0806 1.4964-2.0617-7.4709v-2.9928l2.0617-14.964-2.0617-1.4964 2.0617-4.4892-0.44338-2.5827 0.44338-0.96435 2.1504-1.4964-2.1504-1.4964 0.0443-6.1519 2.1947-0.76483-2.1726-1.4632 0.11084-15.563 3.7798-5.9745 17.392 1.9398 11.484-0.44338c5.1543 0 8.5018 4.4781 10.309 13.457h-2.0617l2.0617 4.4892v1.4964l-0.93109 0.67615c0.22169 1.0087 0.41012 2.2169 0.57639 3.5581l0.3547 0.25494-0.27711 0.38796c0.11085 0.97543 0.19952 2.0174 0.27711 3.1702l-2.0617 8.9673 1.8844 10.475-1.8844 7.482 2.0617 7.4709-2.0617 1.4964h2.0617l-2.0617 5.9856 1.6627 9.4329-1.6627 14.498 2.0617 14.964v17.946c0 5.9856-4.1234 4.3008-12.381 4.3008l-12.847 2.6603-13.955-1.1639c-6.961-1.6848-6.0189-0.55422-6.0189-5.7972v-2.1282l1.7292-2.2502-1.7292 0.75374 2.0617-18.81v-1.4964l0.18844-1.5962-0.18844-1.3966-0.76483-7.615 2.3167-16.217-1.5518-7.5818"/>
  <path transform="matrix(1.3333,0,0,-1.3333,-18.313,830.17)" d="m175.22 86.641-2.0617 1.1639c0.65398 0 1.2193 0.27711 1.7292 0.76483zm-27.844 43.119h-2.0617v2.3167h2.0617zm-4.1234-4.6887h-2.0617v2.3167h2.0617zm-8.0806 1.1639-2.0617-5.8083v-2.3166l2.0617-11.605-2.0617-1.1639 2.0617-3.4805-0.44338-2.0063 0.44338-0.75374 2.1504-1.1639-2.228 0.36579 0.0776-1.5186 0.0443-4.7774 0.0222-1.7181 0.11085-12.082 3.7798-4.6333 19.664 0.57639 2.0617-1.1639c5.1543 0 15.651 5.2208 17.458 12.193h-2.0617l2.0617 3.4805v1.1528l-0.9311 0.53205c0.23278 0.77591 0.41013 1.7181 0.57639 2.76l0.0998 0.19952-0.0222 0.29928c0.11085 0.75374 0.19953 1.5629 0.27712 2.4608l-2.0617 6.961 1.8844 8.1249-1.8844 5.7972 2.0617 5.8083-2.0617 1.1528h2.0617l-2.0617 4.6444 4.1234 6.9721-4.1234 11.605 2.0617 11.605v13.922c0 4.6444-4.1234 3.3364-12.381 3.3364l-6.1076 2.3277-20.695-1.1639c-6.961-1.308-6.0189-0.43229-6.0189-4.5003v-10.442l0.78699 0.13301-0.78699-1.2969 2.0617-5.7972v-1.1639l-0.72049-1.8733 0.72049-0.44338-2.0617-5.8083 6.3625-6.961-4.3008-11.605"/>
  <path transform="matrix(1.3333,0,0,-1.3333,-18.313,830.17)" d="m115.08 40.241-2.0617 1.7181c0.65398 0 1.2304 0.39904 1.7292 1.1417zm-17.547 7.5485h-2.0617v3.4251h2.0617zm-13.39 51.776h-2.0617v3.4251h2.0617zm-8.0806 1.707-2.0617-8.5683v-3.4251l2.0617-17.148-2.0617-1.7181 2.0617-5.1432-0.44338-2.9596 0.44338-1.1084 2.1504-1.7181 4.3784-1.7181h-6.5288l0.04434-7.0497 2.1947-0.87567-2.1726-1.6627 0.11084-17.835 3.7798-6.8613 16.56 0.8535 2.0617-1.707c5.1543 0 18.755 7.7148 20.562 18.001h-2.0617l2.0617 5.1432v1.707l-0.93109 0.77591c0.22169 1.1528 0.41012 2.5383 0.57639 4.0791l0.0776 0.31036v0.42121c0.11085 1.1306 0.19952 2.3167 0.27711 3.6357l-2.0617 10.286 1.8844 12.004-1.8844 8.5683 2.0617 8.5683-2.0617 1.7181h2.0617l-2.0617 6.8613 4.1234 10.275-4.1234 17.148 2.0617 17.148v20.573c0 6.8502-4.1234 4.9215-12.381 4.9215l-13.944 3.547-12.858-1.8289c-6.961-1.9287-6.0189-0.6429-6.0189-6.6396v-15.43l0.73157-1.2969-0.73157-0.42121 2.0617-8.5683v-1.7181l-0.80917-2.2502 0.80917-1.175 1.5518-12.426 2.7489-6.4401-4.3008-17.137"/>
  <path transform="matrix(1.3333,0,0,-1.3333,-18.313,830.17)" d="m53.458 119.62c0.66507 0 1.2304 0.17735 1.7292 0.4988l0.33253-1.2525zm-24.752-2.5383h-2.0617v1.5075h2.0617zm24.707 36.623h-2.0617v1.5075h2.0617zm6.2295-11.051-2.0617 3.015 4.1234 4.5114-4.1234 7.5153 2.0617 7.5264v9.0228c0 3.015-4.1234 2.1615-12.37 2.1615l-12.315 5.4092-14.498-4.6555c-6.961-0.84242-6.0189-0.27711-6.0189-2.9152l0.05542-6.2738 0.65398-0.47663-0.70941-0.76483 2.0617-3.7687v-0.74266l-0.33253-0.8535 0.33253-0.65399 1.1195-3.9793 3.1812-4.3008-4.3008-7.5153-0.11084-0.54314 0.11084-0.21061-2.0617-3.7576v-1.5075l2.0617-7.5153-0.79808-1.2525 0.79808-1.7624-0.44338-1.2969 0.44338-0.48771 2.1504-0.75375 1.1639-0.82025-3.3143 0.0665 0.05542-3.0926 2.1836-0.37687-2.1726-0.73158 0.11084-7.8256 3.7798-3.015 16.56-2.3499 2.0617-0.75375c5.1654 0 18.755 6.1186 20.562 10.63h-2.0617l2.0617 2.2502v0.75374l-0.9311 0.34362c0.23277 0.4988 0.42121 1.1084 0.57639 1.7846v0.1441l0.07759 0.17735c0.11084 0.4988 0.19952 1.0198 0.27711 1.5962l-2.0617 4.5114 1.8844 5.2651-1.8844 3.7576 2.0617 3.7687"/>
  <path transform="matrix(1.3333,0,0,-1.3333,-18.313,830.17)" d="m61.044 291.24h-0.04434v1.7181h0.04434zm-8.1249 65.188h-2.0617v3.4251h2.0617zm-4.1234 60h-2.0617v3.4251h2.0617zm-30.604-1.1417-0.33253 2.8598 2.0617-1.7181c-0.65398 0-1.2193-0.41013-1.7292-1.1417m70.475-118.9h1.6738v-1.7181h-1.6738zm-27.656-10.475 3.3808-1.3856h1.6738l8.3688 1.7181 1.4077-0.0887 1.9398 0.0887 6.695-1.7181 0.84242 3.5692 0.83134-1.8511v-1.7181l4.1899 1.7181h1.6738l5.0213-1.7181 2.5051 1.7181 0.84242 1.7846 0.83134 3.6357v-5.4203l13.39 0.1441 3.3586 3.1369-1.6848 22.291 0.84242 1.707c0 4.2897-2.5162 7.0719-7.5374 8.5794v-1.7181l-2.5051 1.7181h-0.84242l-0.83133-1.7181h-0.84242l-1.9065-0.72049-2.2723-1.0641-10.885 1.7846-0.83134-1.7181c0 1.9287-2.2058 3.0039-6.695 3.4362l-5.0323-1.7181-5.8526 1.574-4.1899-1.574-4.1788 1.7181-0.84242-1.7181v1.7181l-2.893-1.4853 2.0174 8.3798-6.3625 10.286 4.3008 17.148 0.46555 1.0752-0.46555 0.63182 2.0617 8.5794v3.4251l-2.0617 17.148 2.0617 1.707-2.0617 5.1432 0.44338 2.9706-0.44338 1.1084-2.1504 1.7181-4.3784 1.707h6.5288l-0.04434 7.0608-2.1947 0.86459 2.1726 1.6738-0.11084 17.835-3.7798 6.8613-26.802-3.4362-2.0728 1.7181c-5.1543 0-8.5018-5.1432-10.309-15.43h2.0617l-2.0617-5.1432v-1.7181l0.9311-0.77591c-0.23277-1.1417-0.41012-2.5383-0.57639-4.068l-0.07759-0.33253v-0.41013c-0.11084-1.1195-0.19952-2.3166-0.27711-3.6246l2.0617-10.286-1.8844-12.004 1.8844-8.5683-2.0617-8.5683 2.0617-1.7181h-2.0617l2.0617-6.8613-4.1234-10.286 4.1234-17.137-2.0617-17.148v-20.573c0-5.8415 3.0039-5.3095 8.9784-5.0213 0.37687-0.11085 0.95326-0.0222 1.9509-0.0222l4.1899-0.0443 4.1788 1.7624 2.7711-0.73158 1.4188 0.73158h0.83134"/>
  <path transform="matrix(1.3333,0,0,-1.3333,-18.313,830.17)" d="m209.14 378.79h-1.4964v3.0039h1.4964zm-8.79 7.5042-0.31036-0.70941 0.31036-0.79808-1.4964-10.497 1.4964-10.286v-4.589l-1.4964-1.4964 1.4964-5.7861v-19.287c0-13.933-7.4931-22.579-22.28-22.579l-3.5692 1.5075c-7.2936 0-8.6459 4.3562-11.217 9.2777v5.7861l1.4964 1.5075c4.0791 0 0.6429 1.0641 0.6429 2.9928h0.44338l-4.0902 14.787v1.5075l1.5075 7.4931-1.5075 1.2858 3.0039 19.376-3.0039 9.0006v1.5075l1.5075 1.4964-3.0039 2.7822c3.0039 9.8652 9.4329 16.571 19.287 16.571 3.6357-0.60964 6.7726-1.574 9.455-2.7933l2.3277 2.5162v-3.0039l0.16627-0.2882c6.9056-3.4916 8.8343-8.6015 8.8343-14.498zm-22.28-86.027h-1.4964v3.0039h1.4964zm-10.286 3.0039h-3.0039v1.4964h3.0039zm-11.794 103.6-1.4964-1.5075-3.0039 3.0039h4.5003zm5.7861 2.9928 3.0039-2.9928h-3.0039zm-20.573-13.279-2.9928-3.0039v4.5003h2.9928zm96.014-41.456-1.2193 11.883 1.2193 4.5003-1.5075 1.4964v1.2858l1.5075 13.501-4.2897 16.072c-4.068 19.93-20.994 30.139-50.357 33.785-23.787-3.2145-35.57-4.855-35.57-8.5018-15.651-5.5644-21.792-25.716-21.792-60.643l-0.28819-4.5003-1.4964-22.38c2.361-20.573 4.5003-30.859 5.9967-30.859 0-11.14 12.858-21.426 38.363-31.07l5.9967 1.4964 5.7861 0.2882c18.855 1.9287 32.145 4.0015 39.86 9.9982 8.6237 6.6174 16.882 26.126 20.783 47.364l-2.9928 4.2897z"/>
  <path transform="matrix(1.3333,0,0,-1.3333,-18.313,830.17)" d="m467.46 398.28h-3.4251l-1.7181 1.7181v3.4251h1.7181l3.4251-3.4251zm0-8.5683h-3.4251v3.4251h3.4251zm-51.432-80.584c-7.4931 0-11.993 5.1432-13.711 15.43 7.4931 10.286 13.279 15.43 17.137 15.43l13.723 8.4353v-5.0767l5.1432-20.495c-3.8574-9.2223-11.362-13.723-22.291-13.723m22.291 94.296h-1.7181v3.4251h1.7181zm39.427-25.716v1.7181l1.7181 1.707c0 35.359-18.866 55.5-56.575 55.5h-1.7181c-31.934-7.0719-47.996-25.284-47.996-50.357l3.4251-5.1432 8.5683 1.7181h10.286l8.5794-1.7181 8.5683 13.723 10.286 8.5683 1.7181-1.7181c10.286-1.707 15.418-5.7861 15.418-11.993l-1.707-12.004c-46.932-11.783-70.298-30.216-70.298-54.857v-1.7181c0-14.787 1.7181-21.26 5.1543-21.26 0-8.3577 9.2112-15.818 27.423-19.886 22.934 3.0039 34.295 7.5042 34.295 13.711h5.1321c0-5.7861 1.7181-9.2112 5.1543-10.286h32.566l1.7181 10.286v1.7181l-1.7181 1.7181v1.707l1.7181 1.7181-1.7181 20.573 1.7181 6.8613-1.7181 1.707 0.0554 0.77591-0.0554 0.94218 1.7181 5.1432v1.7181l-1.7181 1.707 1.7181 24.009z"/>
 </g>
 <g transform="translate(-4.1024e-5)">
  <rect x=".10623" width="539.88" height="157.29" fill="#e74011" stroke-width=".82049"/>
  <path d="m41.541 52.429h41.435v12.307h-26.995v7.2205h26.502v12.226h-26.502v20.512h-14.441zm65.475 31.179h25.189v-11.979h-25.189v-6.9741h25.764v-12.226h-40.122v52.347h40.615v-12.226h-26.256zm37.742 21.168h14.769v-52.347h-14.769zm42.01-21.168h25.353v-11.979h-25.353v-6.9741h25.764v-12.226h-40.122v52.347h40.615v-12.226h-26.256zm71.874 1.2307 10.503 19.937h-16.328l-8.5334-17.641h-5.8254v17.641h-14.276v-52.347h23.384c12.226 0 20.431 4.6768 20.431 17.066 0 7.8769-3.6101 12.717-9.3535 15.343zm-5.005-14.933c0-3.282-1.8051-5.5796-6.3176-5.5796h-8.7792v11.404h8.5334c4.6768 0 6.564-2.1334 6.564-5.8254zm69.741-8.6971c-1.2307 7.3847-2.6256 16.492-3.1179 22.728-0.57434-6.1539-2.2153-15.179-3.8563-22.645l-1.8051-8.8613h-13.374l-1.8051 8.8613c-1.641 7.4663-3.282 16.492-3.8563 22.645-0.49229-6.2355-1.9692-15.343-3.1179-22.728l-1.3948-8.7792h-14.933l12.472 52.347h13.21l2.3794-11.404c1.7231-8.0406 3.282-17.887 3.6101-21.661 0.3282 3.7743 1.8872 13.62 3.6101 21.661l2.3794 11.404h13.374l12.472-52.347h-14.769zm40.122 22.399h25.436v-11.979h-25.436v-6.9741h25.764v-12.226h-40.122v52.347h40.615v-12.226h-26.256zm72.285 1.2307 10.503 19.937h-16.246l-8.5334-17.641h-5.8254v17.641h-14.276v-52.347h23.384c12.226 0 20.431 4.6768 20.431 17.066 0 7.8769-3.6922 12.717-9.4357 15.343zm-5.005-14.933c0-3.282-1.8051-5.5796-6.3998-5.5796h-8.7792v11.404h8.5334c4.7589 0 6.6461-2.1333 6.6461-5.8254zm56.207 7.4663 17.148-24.943h-17.641l-10.749 19.856h-3.6101s0.24613-9.3535 0.24613-13.702v-6.1539h-14.769v52.347h14.769v-17.641h4.6768l11.65 17.641h17.231z" fill="#fff" stroke-width="1.5386"/>
  <g transform="matrix(.82049 0 0 .82049 .10623 2.0059e-5)" fill="#fff">
   <path d="m720 127.4-10.5-21.7h-7.2v21.7h-17.5v-64.4h28.8c3.7 0 7.2 0.4 10.3 1.1 3.1 0.8 5.8 2 8 3.6 2.2 1.7 3.9 3.8 5.1 6.5s1.8 5.9 1.8 9.7c0 4.8-1 8.8-3.1 11.9s-4.9 5.4-8.5 7l12.9 24.6zm-0.9-47.9c-1.2-1.3-3.2-1.9-6.1-1.9h-10.8v14.1h10.5c3 0 5.1-0.6 6.3-1.8s1.9-3 1.9-5.3c0-2.2-0.6-3.8-1.8-5.1z"/>
   <path d="m790.9 127.4-3.5-11.3h-19.4l-3.5 11.3h-19.1l23.4-64.4h18l23.4 64.4zm-9.1-29.7c-0.6-2.1-1-3.9-1.5-5.4-0.4-1.5-0.8-2.9-1.2-4.1-0.3-1.2-0.6-2.3-0.9-3.4-0.2-1-0.5-2.1-0.6-3.2-0.2 1.1-0.4 2.2-0.6 3.2s-0.5 2.2-0.9 3.4c-0.3 1.2-0.7 2.6-1.2 4.1-0.4 1.5-0.9 3.3-1.5 5.3l-1.2 4.2h10.8z"/>
   <path d="m872.8 110.2c-1.5 4.1-3.7 7.5-6.6 10s-6.6 4.4-10.9 5.5-9.3 1.7-15 1.7h-20.9v-64.4h22.5c5 0 9.6 0.5 13.7 1.6 4.1 1 7.6 2.8 10.4 5.3 2.9 2.5 5.1 5.8 6.6 9.8 1.6 4 2.3 9.1 2.3 15.2 0.1 6-0.6 11.1-2.1 15.3zm-16.9-22.7c-0.5-2.1-1.4-3.9-2.5-5.2-1.2-1.3-2.7-2.3-4.6-3-1.9-0.6-4.2-1-7-1h-4.4v33.9h3.9c2.8 0 5.1-0.3 7.1-0.9s3.6-1.5 4.8-2.9c1.3-1.3 2.2-3.1 2.7-5.2 0.6-2.2 0.8-4.9 0.8-8 0-3-0.2-5.6-0.8-7.7z"/>
   <path d="m886.3 127.4v-64.4h18.2v64.4z"/>
   <path d="m972.7 109.3c-1.5 4.1-3.5 7.6-6.2 10.4-2.6 2.8-5.8 5-9.5 6.4-3.7 1.5-7.7 2.2-12.1 2.2s-8.4-0.7-12-2.2c-3.7-1.4-6.8-3.6-9.4-6.3-2.6-2.8-4.7-6.3-6.1-10.4s-2.2-8.9-2.2-14.2 0.7-10.1 2.2-14.2 3.5-7.6 6.2-10.4c2.6-2.8 5.8-5 9.5-6.4 3.7-1.5 7.7-2.2 12.1-2.2s8.4 0.7 12 2.2c3.6 1.4 6.8 3.6 9.4 6.3 2.6 2.8 4.6 6.3 6.1 10.4s2.2 8.9 2.2 14.2-0.7 10.1-2.2 14.2zm-19.2-27.2c-2-3-4.8-4.5-8.4-4.5s-6.4 1.5-8.3 4.4-2.9 7.3-2.9 13.2c0 5.8 1 10.2 3 13.2s4.8 4.5 8.4 4.5 6.4-1.5 8.3-4.4 2.9-7.3 2.9-13.2c0-5.8-1-10.2-3-13.2z"/>
  </g>
 </g>
</svg>
