<svg width="800" height="315.95" enable-background="new 0 0 520.3 205.482" version="1.1" viewBox="0 0 800 315.95" xml:space="preserve" xmlns="http://www.w3.org/2000/svg">
<g transform="matrix(1.5376 0 0 1.5376 0 .0014882)" fill="#6a767a">
	<path d="m54.144 205.48-3.646-8.914h-1.685v8.542h-6.546v-21.821h8.479c3.708 0 5.271 0.28 6.672 1.247 1.557 1.059 2.432 2.867 2.432 4.986 0 2.65-1.341 4.646-4.023 6.017l5.176 9.228zm-1.467-17.891c-0.528-0.343-1.277-0.468-2.646-0.468h-1.218v5.923h1.153c1.56 0 2.275-0.188 2.869-0.747 0.528-0.531 0.871-1.435 0.871-2.37 0-1.06-0.373-1.935-1.029-2.338z"/>
	<path d="m74.434 205.48c-6.581 0-10.849-4.926-10.849-11.313 0-6.61 4.613-11.253 11.159-11.253 5.984 0 10.505 4.769 10.505 11.188 0 6.392-4.208 11.378-10.815 11.378zm-0.063-18.015c-3.462 0-3.961 4.112-3.961 6.733 0 2.682 0.437 6.732 3.992 6.732 2.649 0 3.988-2.214 3.988-6.641 1e-3 -4.613-1.278-6.824-4.019-6.824z"/>
	<path d="m106.97 204.55c-1.682 0.593-3.553 0.934-5.454 0.934-7.575 0-12.968-4.457-12.968-11.282 0-6.516 5.457-11.284 12.779-11.284 2.059 0 3.742 0.311 5.831 1.089l-1.622 3.928c-1.278-0.342-2.088-0.466-3.086-0.466-4.177 0-7.077 2.618-7.077 6.764 0 3.647 2.245 6.702 7.013 6.702 1.154 0 2.059-0.125 3.371-0.499z"/>
	<path d="m123.59 205.45-6.452-10.911v10.569h-6.549v-21.821h6.549v9.01l5.546-9.291 5.675 1.122-5.675 8.698 7.701 11.439z"/>
	<path d="m143.4 187.44v17.675h-6.544v-17.675h-6.267v-4.146h19.172v4.146z"/>
	<path d="m166.88 205.48c-2.619 0-4.802-0.622-6.891-2.024l1.994-3.618c1.185 0.998 2.621 1.561 3.96 1.561 1.498 0 2.776-0.844 2.776-2.119 0-0.967-0.501-1.623-1.029-2.183-0.686-0.718-3.898-3.244-4.801-4.209-1.311-1.403-1.936-2.557-1.936-4.271 0-3.459 3.12-5.703 7.702-5.703 1.994 0 3.896 0.468 5.766 1.462l-1.745 3.429c-1.248-0.591-2.09-0.808-3.086-0.808-1.247 0-1.934 0.56-1.934 1.372 0 0.683 0.345 1.121 0.811 1.589 1.028 1.091 3.712 3.024 4.863 4.301 1.187 1.341 1.964 2.621 1.964 4.645 1e-3 3.99-3.364 6.576-8.414 6.576z"/>
	<path d="m197.11 204.55c-1.686 0.593-3.558 0.934-5.458 0.934-7.575 0-12.967-4.457-12.967-11.282 0-6.516 5.454-11.284 12.779-11.284 2.06 0 3.743 0.311 5.829 1.089l-1.618 3.928c-1.279-0.342-2.091-0.466-3.088-0.466-4.177 0-7.075 2.618-7.075 6.764 0 3.647 2.245 6.702 7.013 6.702 1.155 0 2.059-0.125 3.365-0.499z"/>
	<path d="m214.25 205.11v-9.977h-6.985v9.977h-6.545v-21.821h6.545v7.668h6.985v-7.668h6.513v21.821z"/>
	<path d="m225.94 205.11v-21.821h6.547v17.675h8.01v4.146z"/>
	<path d="m243.33 205.11v-21.821h13.279v4.146h-6.731v4.175h6.577v4.178h-6.577v5.176h8.042v4.146z"/>
	<path d="m267.24 205.48c-2.617 0-4.799-0.622-6.887-2.024l1.994-3.618c1.185 0.998 2.619 1.561 3.959 1.561 1.498 0 2.775-0.844 2.775-2.119 0-0.967-0.499-1.623-1.029-2.183-0.686-0.718-3.896-3.244-4.802-4.209-1.309-1.403-1.933-2.557-1.933-4.271 0-3.459 3.117-5.703 7.7-5.703 1.993 0 3.896 0.468 5.766 1.462l-1.745 3.429c-1.246-0.591-2.086-0.808-3.085-0.808-1.248 0-1.931 0.56-1.931 1.372 0 0.683 0.342 1.121 0.807 1.589 1.029 1.091 3.711 3.024 4.865 4.301 1.184 1.341 1.964 2.621 1.964 4.645 1e-3 3.99-3.367 6.576-8.418 6.576z"/>
	<path d="m304.67 205.11h-6.296l-4.177-13.437-4.491 13.437h-6.264l-5.456-21.51 6.672-0.624 2.993 15.493 4.954-15.181h4.832l4.395 15.181 3.337-15.493 5.455 0.624z"/>
	<path d="m313.43 205.11v-21.821h6.549v21.821z"/>
	<path d="m344.16 204.39c-2.434 0.718-4.866 1.09-6.827 1.09-7.608 0-13.125-4.83-13.125-11.532 0-6.144 4.924-11.034 13.091-11.034 2.06 0 4.864 0.436 6.703 1.183l-1.59 4.021c-1.028-0.372-3.242-0.685-4.269-0.685-4.21 0-7.109 2.711-7.109 6.825 0 3.772 2.465 6.672 5.611 6.672 0.344 0 0.592-0.031 0.999-0.125v-5.674h6.516z"/>
	<path d="m347.46 198.85v-3.464h8.977v3.464z"/>
	<path d="m374.14 205.11v-9.977h-6.981v9.977h-6.546v-21.821h6.546v7.668h6.981v-7.668h6.516v21.821z"/>
	<path d="m395.74 205.48c-6.58 0-10.849-4.926-10.849-11.313 0-6.61 4.613-11.253 11.159-11.253 5.984 0 10.506 4.769 10.506 11.188 1e-3 6.392-4.205 11.378-10.816 11.378zm-0.064-18.015c-3.46 0-3.957 4.112-3.957 6.733 0 2.682 0.436 6.732 3.99 6.732 2.648 0 3.99-2.214 3.99-6.641 0-4.613-1.277-6.824-4.023-6.824z"/>
	<path d="m410.79 205.11v-21.821h6.547v17.675h8.012v4.146z"/>
	<path d="m434.76 205.48c-2.618 0-4.8-0.622-6.888-2.024l1.995-3.618c1.185 0.998 2.617 1.561 3.957 1.561 1.498 0 2.775-0.844 2.775-2.119 0-0.967-0.499-1.623-1.029-2.183-0.685-0.718-3.897-3.244-4.799-4.209-1.31-1.403-1.936-2.557-1.936-4.271 0-3.459 3.118-5.703 7.701-5.703 1.995 0 3.897 0.468 5.769 1.462l-1.747 3.429c-1.247-0.591-2.089-0.808-3.087-0.808-1.245 0-1.933 0.56-1.933 1.372 0 0.683 0.343 1.121 0.812 1.589 1.028 1.091 3.709 3.024 4.862 4.301 1.187 1.341 1.964 2.621 1.964 4.645 1e-3 3.99-3.366 6.576-8.416 6.576z"/>
	<path d="m457.95 187.44v17.675h-6.545v-17.675h-6.266v-4.146h19.172v4.146z"/>
	<path d="m467.11 205.11v-21.821h13.279v4.146h-6.734v4.175h6.579v4.178h-6.579v5.176h8.044v4.146z"/>
	<path d="m485.69 205.11v-21.821h6.547v21.821z"/>
	<path d="m512.43 205.11-7.919-9.882c-0.373-0.498-1.526-1.933-1.962-2.525v12.407h-5.145v-21.821h4.553l7.731 9.912c0.465 0.593 1.214 1.562 1.744 2.276v-12.188h5.145v21.821z"/>
</g>
<g transform="matrix(1.5376 0 0 1.5376 0 .0014882)" fill="#be1622"><path d="m41.805 159.21c-0.116 1.438-0.131 4.979-0.435 4.979l-2.762 1.262c-0.035 0.448 0.068 1.033 0.311 1.759-0.346-0.483-0.967-1.036-1.864-1.655-0.068-0.829-4.516-0.504-5.434-0.156 0.241-0.345-0.983-0.207-0.983 0.621h-30.638v-6.81zm-4.335 5.981 0.776 0.363 0.155-0.363zm1.242-4.502 2.846 0.569v0.466l-2.846-0.621z" clip-rule="evenodd" fill-rule="evenodd"/><path d="m8.323 151.21c-0.029 1.394-0.043 2.793-0.043 4.201 1.035-0.104 2.467-0.397 4.296-0.88 0.103 0 0.155-0.069 0.155-0.208 0-0.172 0.033-0.293 0.104-0.361 0.379 0.068 0.828 0.207 1.346 0.413l-0.621 0.674c0.793 0 1.535 0.224 2.225 0.672 0.414-0.413 1.242-0.621 2.484-0.621 0-1.346 0.104-2.156 0.311-2.433 0-0.269 0.279-0.588 0.84-0.956l-0.529 0.076c-0.275 0.035-0.482 0-0.621-0.104v-0.474h8.125c-0.094 0.433-0.232 0.817-0.414 1.147 0 0.241 0.053 0.362 0.155 0.362 0.104 0 0.224-0.069 0.362-0.207v2.38c0.477 0.272 1.171 0.377 2.084 0.313-0.182 0.026-0.271 0.25-0.271 0.67 0 0.276 0.189 0.639 0.568 1.087 0.346 0.449 0.535 0.725 0.57 0.828l-0.674-0.569c-0.379 0.208 9.574-0.293 9.574-0.465 0-0.483-0.275-1.001-0.828-1.554 0.242 0 0.501 0.155 0.776 0.466 0.241 0.276 0.362 0.535 0.362 0.776 0 0.207 1.484 1.57 2.071 0.88-0.208-0.586-0.69-1.294-1.45-2.122h2.587c0 0.345 0.052 0.863 0.155 1.554 0.139 0.655 0.207 1.155 0.207 1.5 0 0.241-0.104 0.362-0.311 0.362-0.049 0-0.084 0.229-0.114 0.594l-41.804-1e-3v-8zm32.096 6.581-0.361 1.139h0.414l0.361-0.983zm-12.109-0.983h-0.83v0.518h0.829v-0.518zm-22.98-0.311v0.466l0.983 0.362 0.207-0.466zm5.693 0.776h-0.518zm13.767-2.898c-0.586 0-0.984 0.104-1.191 0.311l0.622 0.569c-0.587 0.311-0.88 0.639-0.88 0.983l0.775 0.673c0-0.172 0.07-0.311 0.208-0.414 0.138-0.069 0.276-0.034 0.413 0.104-0.103-0.448-0.293-1.069-0.568-1.862 0.207-0.208 0.414-0.329 0.621-0.364zm-13.146 1.967-0.724 0.725c0.775 0.404 1.147 0.626 1.112 0.666 0.078-0.683-0.077-1.115-0.388-1.391zm4.554-0.621-0.361 1.139h0.414l0.361-0.983zm12.783-0.672 1.139 0.362-0.155 0.413-0.983-0.362v-0.413zm4.295 0.879 1.346 0.983-0.311 0.414-1.345-0.983zm2.745-0.517 0.362 0.88h-0.415l-0.361-0.726z" clip-rule="evenodd" fill-rule="evenodd"/><path d="m35.944 119.21c0.752 0.558 1.438 1.025 1.422 0.853l-0.186-0.853h0.826c2.402 0.919 3.602 1.549 3.602 1.888 0 0.173-0.051 0.276-0.154 0.311-0.068 0.034-0.104 0.138-0.104 0.311 0 0.276 0.275 0.639 0.828 1.087-0.276 0-0.501-0.086-0.674-0.259-0.206 0.69-0.258 2.087-0.154 4.192-0.057 0.372-0.174 0.827-0.35 1.365 2e-3 -0.067-2e-3 -0.144-0.013-0.228-0.069-0.311-0.052-0.5 0.052-0.569l-0.414-0.465c-0.275 0.275-0.414 0.62-0.414 1.034 0 0.173 0.053 0.362 0.156 0.569 0.068 0.207 0.104 0.327 0.104 0.362-0.174 0-0.432 0.104-0.777 0.31 0-0.206-0.361-0.861-1.086-1.965-0.277 0.172-0.414 0.413-0.414 0.724l0.01 0.293c0.096-0.022 0.178-0.033 0.248-0.033l-0.206 0.155c-0.319-0.057-0.702 0.104-1.191 0.361-0.655 0.345-1.087 0.518-1.294 0.518-0.137 0-0.604-0.225-1.396-0.672l-0.481-0.259-0.347-1e-3 -0.111-0.241c-0.311-0.162-0.532-0.271-0.665-0.328-1.139-0.068-3.175-0.689-6.106-1.862-2.795-1.104-4.883-1.656-6.263-1.656-0.276 0-0.552 0.018-0.829 0.052l0.57-0.621c-1.863-0.69-4.865-1.897-9.006-3.623-0.137 0.139-0.206 0.414-0.206 0.828-0.519-0.034-3.001-0.518-3.001-0.518 0.137-0.138 0.206-0.275 0.206-0.414-0.124-0.265-0.206-0.397-0.259-0.518 0.133 0.133 0.215 0.267 0.246 0.399 0.174 0.231 0.42 0.495 0.737 0.791h0.776l0.775-0.673c-0.474-0.158-0.895-0.374-1.262-0.648zm-35.944 32v-9.463c0-3.277 1.122-6.038 3.364-8.28 2.242-2.277 5.002-3.416 8.279-3.416 5.037 0 8.574 2.157 10.609 6.47 1.14-2.657 3.088-4.434 5.85-5.331 1.033-0.345 3.415-0.655 7.142-0.932 1.001-0.079 2.011-0.221 3.026-0.425 0.19-0.289 0.285-0.51 0.285-0.662l0.564 0.478c0.406-0.096 0.814-0.2 1.223-0.314 0.287-0.12 0.605-0.261 0.956-0.422l0.568-0.051v10.558c-1.068 0.38-2.639 0.655-4.708 0.828-2.623 0.207-4.296 0.396-5.021 0.568-3.795 0.863-5.692 2.916-5.692 6.159 0 0.276 0.017 0.707 0.051 1.294 0.035 0.586 0.053 1.019 0.053 1.294 0 0.612-0.053 1.159-0.156 1.641l-8.125 7e-3v-8.737c-0.104 0-0.225 0.068-0.362 0.207-0.173 0.104-0.293 0.154-0.362 0.154-0.068 0-0.137-0.017-0.207-0.051-1.69-1.415-3.088-2.122-4.191-2.122-1.174 0-2.209 0.466-3.105 1.396-0.932 0.933-1.432 1.984-1.501 3.157-0.103 1.981-0.175 3.98-0.216 5.998zm39.487-8.894v0.518h-0.775v-0.518zm-0.568 1.502v0.517h-0.777v-0.517zm0.879 2.794v1.087l-0.828 0.207c0.07-0.345 0.345-0.776 0.828-1.294zm-12.679-6.054-1.708 0.31v0.518l1.708-0.311zm-8.126-4.917-0.361 1.708c0.137 0 0.258-0.121 0.361-0.362 0.069-0.276 0.035-0.483-0.104-0.621 0.173-0.173 0.259-0.311 0.259-0.414s-0.051-0.208-0.155-0.311zm-0.465 1.966-0.881 0.362 0.207 0.413 0.674-0.361zm-2.33 2.121-0.361 0.26 0.672 1.035 0.414-0.26zm2.019-0.62h-1.087v0.466h1.087zm2.691-0.776c-0.655 0.207-0.983 0.534-0.983 0.983 0-0.173 0.104-0.311 0.311-0.414l0.414 0.518c0.311 0.38 0.5 0.569 0.568 0.569-0.207-0.449-0.31-1.001-0.31-1.656zm-0.31 1.915h-1.398v0.517h1.397v-0.517zm-1.863 1.5-0.156 0.414 0.725 0.362 0.207-0.414zm1.345 0.207c0.448 0.448 0.673 1.104 0.673 1.968l0.776-0.726c-0.415-0.827-0.897-1.242-1.449-1.242zm7.298-3.156h-1.346v0.518h1.346zm-6.418 5.175c0.449 0.932 0.69 1.449 0.725 1.553 0-0.172 0.155-0.362 0.466-0.569 0-0.207-0.138-0.414-0.414-0.621-0.277-0.242-0.535-0.363-0.777-0.363zm1.293 1.759h-0.517v0.776h0.517zm-1.5 1.191h-0.518l0.311 1.656h0.518zm1.5 0.155-0.154 0.414 0.776 0.361 0.155-0.413zm-12.782-3.416c0.034 0.035 0.517 0.052 1.449 0.052l-0.933 0.932zm6.159 2.588 0.414 0.155-0.414 0.776-0.414-0.155zm0.31 1.603c0 0.104-0.07 0.295-0.207 0.57-0.139 0.241-0.208 0.414-0.208 0.518-0.517-0.552-0.776-0.896-0.776-1.035s0.156-0.225 0.467-0.259c0.31 0 0.551 0.07 0.724 0.206zm1.553 1.553 0.258 0.415-1.035 0.673-0.258-0.362zm14.334-23.082c-0.482 0.242-0.844 0.397-1.086 0.467 0.173 0 0.414 0.12 0.725 0.362 0.207-0.38 0.328-0.655 0.361-0.829zm5.797-4.709-0.414 0.259 0.674 1.035 0.413-0.259zm-2.639 3.986h-0.776v0.517h0.776zm-0.31 0.879-1.086 0.362 0.154 0.414 0.932-0.362zm0.672 0.207c1.277 0.725 1.984 1.156 2.123 1.293 0.104-0.311 0.241-0.552 0.414-0.724-0.76-0.379-1.606-0.569-2.537-0.569zm4.296 0.725-0.414 0.154 0.362 0.673h0.414zm-8.074-1.811h-0.775v0.517h0.775zm2.071 1.811-0.414 0.154 0.199 0.432 0.458 0.242zm2.795 0.104c-0.656 0-1.208 0.225-1.656 0.673l0.154 0.311c0.104 0.241 0.276 0.361 0.519 0.361 0.173 0 0.379-0.052 0.62-0.155 0.207-0.103 0.328-0.155 0.363-0.155 0-0.068-0.035-0.241-0.104-0.517-0.035-0.243 0-0.415 0.104-0.518zm1.293 1.241 0.259 0.414-1.034 0.673-0.259-0.415z" clip-rule="evenodd" fill-rule="evenodd"/><path d="m33.241 103.21c0.205 0.774 0.363 1.466 0.473 2.08 0.261 0.338 0.461 0.621 0.598 0.852-0.172 0.021-0.332 2e-3 -0.479-0.058 0.043 0.364 0.065 0.694 0.065 0.989 0 0.449-0.034 1.104-0.103 1.967-0.104 0.863-0.156 1.484-0.156 1.863-0.033 1.209-4e-3 2.449 0.088 3.721-0.037-0.247-0.135-0.504-0.295-0.771-0.242-0.38-0.759 0.638 0 1.812 0.689 1.035 1.035 1.656 1.035 1.862 0 0.207-0.035 0.328-0.104 0.362-0.225-0.12-0.276-0.155-0.311-0.155 0 0 0.992 0.804 1.891 1.474l-26.803 3e-3c-0.354-0.268-0.657-0.586-0.911-0.958-0.138 0.206-0.207 0.396-0.207 0.569-0.862-0.38-3.071-1.242-6.624-2.588 0 0-1.295 0.104-0.777-0.415l-0.568-0.568c0.414-0.346 0.621-10.093 0.621-10.093l5.236-1.948zm3.94 16.001-0.074-0.338c0.316 0.116 0.617 0.229 0.9 0.337zm-27.194-10.119c-0.586 0.276-0.104 0.655-0.104 1.139 0.242-0.241 0.363-0.448 0.363-0.621 1e-3 -0.172-0.085-0.345-0.259-0.518zm-1.655-1.812h-1.035v0.466h1.035zm-0.311 0.828h-0.724zm2.019 3.573c-0.139 0.448-0.932 1.086 0 1.086zm-1.863 5.173c0 0.346-0.104 0.708-0.311 1.087 0.621-0.311 1.053-0.465 1.295-0.465 0.103 0 0.172 0.017 0.206 0.051-0.173-0.172-0.569-0.396-1.19-0.673zm17.906-10.609-14.283 4.4 14.283 4.71zm-16.302 1.863h-1.087l1.087 0.518zm14.491 0.311 0.775 0.363-0.207 0.413-0.725-0.362zm14.18 6.107 0.414 0.104-0.362 0.775-0.413-0.154zm3.208-8.281v1.346h-0.465v-1.346zm0 2.899v2.225h-0.517v-2.225zm-7.192-2.588v1.035h-0.518v-1.035z" clip-rule="evenodd" fill-rule="evenodd"/><path d="m37.986 87.21v1.025h0.518v-1.025h2.795v2.785c-0.069-0.482-0.225-1.242-0.466-2.277-0.482 0.553-0.725 1.363-0.725 2.432 0 0.072 0.02 0.167 0.059 0.285l0.305-0.077c0.344-0.104 0.62-0.155 0.827-0.155v7.451l0.206-0.103c0 0.146-0.068 0.336-0.206 0.568v2.899c-0.448-0.034-4.23 1.618-4.407 1.33-0.484-0.027-5.172 0.224-5.621-0.812-0.379-0.896-0.529-1.703-0.365-2.559 0 0 0.812-3.413 0.812-3.833-0.275 0.38 1.215-3.373 1.766-4.685-0.482-0.311-1.361-0.499-2.639-0.568-1-0.034-2.242-0.034-3.726 0l-3.106 0.104h-23.496v-2.785zm-32.077 16 26.488-9.852c0 0.207-0.034 0.518-0.104 0.932-0.068 0.38-0.121 5.331 0.569 7.607 0.14 0.463 0.266 0.902 0.378 1.318zm34.666-6.693h-0.467v1.034h0.467zm-4-3.897c-0.064 0.098-0.199 0.426-0.439 0.945zm4.094-0.836c-0.291-0.185-0.668-0.315-1.13-0.393 0.11-0.275 0.177-0.518 0.198-0.727 0.01-0.359-0.025-0.533-0.095-0.67-1.069 0.414-1.621 0.638-1.656 0.672-0.517 0.276-0.776 0.689-0.776 1.242 0 0.091 8e-3 0.201 0.021 0.333 0.837 0.031 1.552 0.096 2.144 0.192l0.01-0.37c0.039 0.114 0.07 0.244 0.096 0.389 0.434 0.076 0.799 0.171 1.096 0.284l0.206-0.104v-0.465c-2e-3 -0.111-0.04-0.239-0.114-0.383zm-2.889-1.685h-1.397c0 0.137-0.034 0.344-0.104 0.62-0.068 0.311-0.033 0.535 0.104 0.673 0 0.138 0.466-0.293 1.397-1.293zm1.139 0.621c0.448 0.448 0.672 0.828 0.672 1.138l-1.707-0.361c0.447-0.346 0.793-0.605 1.035-0.777zm-19.719 5.64v0.518h-1.035v-0.518z" clip-rule="evenodd" fill-rule="evenodd"/><path d="m9.46 71.196c-0.192 0.527-0.379 1.084-0.559 1.668 0.414 0.346 0.621 0.846 0.621 1.502 0 0.724-0.311 1.293-0.932 1.707h0.932v3.468l9.626-0.259c1.14-0.034 1.76 0.052 1.862 0.259-0.826 0.31-2 0.466-3.518 0.466-1.208 0.035-2.416 0.052-3.624 0.052-0.517 0.034-0.931 0.138-1.242 0.311 3.864 0.104 9.558 0.311 17.079 0.62-0.275 1.242 0.879 0.897 0.879 0.104 0-0.448 0.053-0.758 0.156-0.931l0.621 0.569c0-0.863 0.138-1.346 0.414-1.449 0 2.658 1.5 1.535 1.707 0.776 0.174-0.794 0.26-1.38 0.26-1.76 0-0.138-0.035-0.207-0.104-0.207-0.26 0.138-0.328 0.155-0.363 0.155-0.068-0.035-0.104-0.104-0.104-0.207 0-0.241 0.088-0.466 0.26-0.672l0.207-0.363c-0.139 0.172-0.293 0.225-0.467 0.156-0.206-0.07-0.31-0.26-0.31-0.57 0-0.345 0.034-0.846 0.104-1.501 0.069-0.69 0.103-1.207 0.103-1.552-0.344 0.413-0.586 0.62-0.723 0.62 0.033-0.034 0.12-0.086 0.258-0.155-0.207-0.275-0.311-0.672-0.311-1.189 0-0.38 0.328-0.794 0.982-1.242l0.354-0.227c-0.077-0.058-0.154-0.105-0.23-0.146l1.516-2e-3 -0.033 0.064 0.725 0.361 0.207-0.413-0.027-0.013h4.75c0.011 0.375 0.023 0.773 0.039 1.202 0.088-0.193 0.185-0.593 0.287-1.197l0.437-5e-3v16.015l-2.795-1e-3v-0.061h-0.518v0.061h-37.469v-16.014zm19.338 0c-0.293 0.249-0.629 0.566-1.006 0.943l0.855-0.943zm1.252 0c-0.158 0.682-0.307 1.117-0.447 1.306 0-0.104 0.052-0.328 0.156-0.673 0.086-0.262 0.137-0.475 0.15-0.638zm11.042 3.274h-0.517v1.604h0.517zm-0.311 2.017h-0.466v1.604h0.466zm-2.69 3.675-0.414 0.155 0.361 0.672h0.414zm-30.276-6.884h-0.466v0.776h0.467v-0.776zm-0.725 2.485h-0.777v0.466h0.777zm28.051-0.311h-1.036v0.518h1.036zm-13.819 4.295c0.931-0.206 2.155-0.31 3.675-0.31 1.863 0 3.035 0.241 3.52 0.725h-3.262c-0.448 0-1.104-0.069-1.967-0.206-0.861-0.139-1.517-0.209-1.966-0.209zm11.386-3.828v1.034h-0.518v-1.034zm-5.124-3.417c0.312 0.276 0.552 0.414 0.726 0.414-0.346 0.069-1.295 0.69-2.848 1.862zm-2.483 2.95c0.023 0.165 0.23 0.398 0.621 0.725 0.517 0.414 0.811 0.673 0.879 0.776-0.033 0.172-0.172 0.413-0.414 0.724-0.138 0.035-0.259 0.053-0.361 0.053-0.275 0-0.414-0.156-0.414-0.467 0-0.518-0.26-0.932-0.776-1.242-0.519-0.172-1.019-0.361-1.501-0.568 0.241 0.104 0.604 0.138 1.087 0.104l0.882-0.08zm2.638-1.863 0.414 0.258-1.293 1.605-0.363-0.26zm1.709 0.621 0.414 0.155-0.311 0.983h-0.467zm0.62 1.449 0.362 0.828h-0.414l-0.362-0.673zm0.777 0.879c-0.027 0.678 0.18 1.417 0.619 2.221-0.186-0.229-0.393-0.398-0.619-0.512-0.172 0.586-0.26 1.466-0.26 2.639l-0.826-0.725c0.517-0.518 0.775-0.811 0.775-0.879 0-0.125-0.098-0.221-0.294-0.289 0.265 0.047 0.397-0.393 0.397-1.316 0-0.207-0.018-0.345-0.053-0.414-0.068-0.034-0.154-0.034-0.258 0-0.104 0.035-0.189 0.052-0.259 0.052zm0.517-5.051c0 0.311-0.018 0.788-0.051 1.429-0.07 0.655-0.104 1.139-0.104 1.449 0 0.685 0.577 2.403 1.729 5.156-0.248-0.585-0.705-1.423-1.367-2.518-0.725-1.138-1.208-2.052-1.449-2.742 0.482 0 0.725 0.086 0.725 0.258 0.069-0.068 0.104-0.258 0.104-0.568 0-0.448-0.242-0.708-0.725-0.776h0.777c0.238-0.547 0.359-1.108 0.361-1.688z" clip-rule="evenodd" fill-rule="evenodd"/><path d="m9.39 23.21c0.102 0.242 0.232 0.492 0.392 0.748 0.413 0.689 0.915 1.087 1.501 1.189l-0.518 0.621c0.31 0.312 0.725 0.776 1.242 1.398 0-0.174 0.121-0.397 0.361-0.674l-0.518-0.568c0.174-0.174 0.295-0.225 0.363-0.156 0.24 0.415 0.362 0.776 0.362 1.088 0 0.172-0.052 0.344-0.155 0.518 0.344 0.068 0.775 0.258 1.293 0.568 0.482 0.311 0.846 0.5 1.088 0.57 0-0.104-0.26-0.415-0.777-0.932 0.242-0.035 0.57-0.173 0.984-0.414 0.413 0.379 1.018 0.947 1.811 1.707-0.991-0.312-1.529-0.495-1.613-0.551-0.652 1.264-1.322 1.896-2.01 1.896-0.137 0-0.311-0.034-0.518-0.104-0.207-0.104-0.327-0.155-0.361-0.155v-0.88c-0.311 0.586-0.742 0.949-1.294 1.087 0.372 0.546 0.833 0.896 1.383 1.049l-9.134-5e-3c-0.279-0.475-0.577-1.012-0.893-1.611-0.862-1.621-1.293-2.656-1.293-3.105 0-0.241 0.068-0.345 0.207-0.31 0.173 0.103 0.293 0.12 0.361 0.052-0.104-0.139-0.361-0.207-0.775-0.207-0.133-1.018-0.244-1.957-0.334-2.818h8.845zm1.711 0c0.121 0.064 0.182 0.191 0.182 0.386 0 0.413-0.121 0.776-0.362 1.087-0.138-0.311-0.38-0.725-0.726-1.242 0.117-0.116 0.248-0.193 0.396-0.23h0.51zm30.197 0c-6e-3 0.222-0.074 0.314-0.206 0.282-0.173-0.104-0.293-0.121-0.361-0.052l0.568 0.568c-0.931 1.519-1.397 2.347-1.397 2.484 0 0.104 0.035 0.173 0.104 0.207 0.035 0 0.104-0.018 0.207-0.052 0.225-0.104 0.26-0.034 0.26 0.104s-0.295 0.76-0.881 1.864c-0.621 1.068-0.982 1.638-1.087 1.707 0.173 0.173 0.448 0.259 0.829 0.259l-0.629 0.628h-5.695c0.11-0.338 0.164-0.719 0.164-1.145 0 0.138-0.104 0.258-0.31 0.361-0.207 0.069-0.38 0.034-0.517-0.104 0.258 0.259 0.42 0.557 0.484 0.893l-4.473-6e-3c2e-3 -0.021 2e-3 -0.039 2e-3 -0.059 0-0.621-0.275-1.069-0.828-1.346 0.311-0.172 0.518-0.707 0.621-1.604 0.553-0.726 1.295-1.174 2.225-1.346 0.381-0.07 1.156-0.07 2.33 0v-1.035c-0.449 0.448-0.914 0.672-1.396 0.672-0.346 0-0.605-0.104-0.777-0.31 0.976-1.464 1.52-2.456 1.634-2.976zm-28.299 8c0.117-0.055 0.338-0.125 0.664-0.214 0.758-0.207 1.242-0.311 1.448-0.311 0-0.862 0.069-1.483 0.207-1.863 1.001 0.69 2.277 1.035 3.83 1.035h5.382c-0.068 0.034-0.258 0.052-0.568 0.052-0.207 0.035-0.311 0.173-0.311 0.414 0 0.2 0.097 0.497 0.289 0.891zm12.395 0c0.064-0.064 0.139-0.138 0.225-0.214 0.552-0.483 0.879-0.793 0.982-0.931 0 0.431 0.081 0.814 0.243 1.151zm7.728-2.904v1.189l0.154-0.776h0.984c-0.069 0-0.259-0.069-0.569-0.206-0.311-0.139-0.501-0.207-0.569-0.207zm3.416-4.556h-0.984v0.519h0.984zm-31.001 6.056v0.466l1.294 0.311v-0.466zm0.88-2.071v1.346c0.483 0 0.982 0.276 1.502 0.828-0.312-0.552-0.813-1.276-1.502-2.174zm1.967-2.742h-0.465v1.035h0.465zm29.81 3.467h-2.227v0.466h2.227zm-1.45-1.656-0.154 0.414 0.673 0.312 0.207-0.362zm1.398-1.293c-0.551 0.275-1.018 0.414-1.397 0.414 0.864 0 1.294 0.224 1.294 0.672 0.242-0.207 0.363-0.413 0.363-0.621-1e-3 -0.137-0.088-0.293-0.26-0.465zm-0.206-0.932h-1.036v0.517h1.036zm-12.111 4.968v0.466h-1.035v-0.466z" clip-rule="evenodd" fill-rule="evenodd"/><path d="m0.546 23.21c-0.191-1.826-0.288-3.303-0.288-4.428 0-1.553 0.569-3.674 1.708-6.365 1.312-3.07 2.588-4.624 3.83-4.658-0.207-0.139-0.397-0.207-0.568-0.207 0.102-0.07 0.654-0.57 1.655-1.501 0.509-0.476 1.052-0.733 1.628-0.774-0.108 0.013-0.288 0.098-0.541 0.257 0.587 0.31 1.053 0.465 1.397 0.465s1.415-0.448 3.209-1.346c-0.069 0.069-0.104 0.155-0.104 0.259 0-2.719 7.529-2.422 7.492-2.238 0.379 0 2.303 1.415 3.027 1.589 0.725 0.172 1.694 1.305 2.006 1.064 0.275-0.242 0.414-0.467 0.414-0.674 0.311 0.207 0.552 0.311 0.724 0.311l-0.517 0.57c0.482 0.138 1.259 0.465 2.328 0.982 0.449-0.448 0.674-0.862 0.674-1.242 0-0.139-0.087-0.311-0.26-0.518-0.172-0.241-0.258-0.431-0.258-0.568v-1.76c1.414 0.344 2.777 0.914 4.088 1.707v1.088c0.966 0.068 2.053 0.568 3.261 1.5 1.069 0.828 1.915 1.708 2.535 2.639 0 0.104-0.12 0.225-0.362 0.363-0.275 0.138-0.432 0.224-0.465 0.259 0.172 0.172 0.396 0.259 0.673 0.259-0.276 0-0.673-0.069-1.19-0.207-0.553-0.138-0.967-0.207-1.242-0.207-0.069 0.241-0.225 0.568-0.467 0.982 0.312 0.312 0.674 0.467 1.088 0.467 0 0.034-0.035 0.138-0.104 0.31-0.104 0.173-0.156 0.329-0.156 0.466 0.069 0 0.311-0.137 0.726-0.414 0.413-0.275 0.724-0.413 0.931-0.413 0.174 0 0.432 0.068 0.777 0.207 0.344 0.104 0.586 0.154 0.725 0.154s0.258-0.034 0.361-0.103l1.501 4.555c0.138 0.62 0.207 1.673 0.207 3.156 0 0.173-0.034 0.293-0.103 0.362-0.104 0.069-0.155 0.172-0.155 0.311 0 0.241 0.085 0.362 0.258 0.362 0.207 0 0.311 0.121 0.311 0.362 0 0.276-0.275 0.586-0.827 0.931 0.552 0.208 0.827 0.76 0.827 1.657 0 0.011 0 0.021-1e-3 0.031l-9.13-3e-3c0.015-0.071 0.022-0.132 0.022-0.184 0-0.139-0.035-0.26-0.104-0.363-0.104-0.138-0.156-0.292-0.156-0.465 0-0.138 0.053-0.207 0.156-0.207 0.035 0 0.121 0.034 0.26 0.104 0.103 0.034 0.189 0.052 0.258 0.052 0.052-0.362 0.018-0.846 0.052-1.501 0.06-1.035 0.093-1.5 0.101-1.395-0.042-1.017-0.732-2.26-2.066-3.729-0.656-0.759-1.537-1.69-2.641-2.794 0.38-0.346 0.656-0.518 0.828-0.518-0.379-0.104-0.707-0.156-0.982-0.156-0.449 0-0.811 0.121-1.088 0.363l-4.916-1.19c-0.482 0-1.191 0.466-2.123 1.397 0-0.242 0.105-0.483 0.312-0.725l0.414-0.362c-0.933 0-1.673-0.207-2.226-0.622-0.311 0.449-0.861 0.812-1.656 1.088l-1.811 0.621c0-0.557 0.139-1.129 0.419-1.717-0.438 0.89-0.958 1.635-1.558 2.234l-0.467-0.414c0.312-0.311 0.467-0.725 0.467-1.242-0.242 0.275-0.449 0.414-0.621 0.414l-0.157-2.328-0.775 0.621c0 0.103 0.104 0.241 0.311 0.413 0.172 0.174 0.258 0.311 0.258 0.415-0.275 0.275-0.413 0.518-0.413 0.725 0.173-0.156 0.293 0 0.466 0.31 0.138 0.277 0.207 0.449 0.207 0.519 0 0.172-0.587 1.069-1.76 2.691-1.208 1.621-1.812 2.519-1.812 2.69 0 0.207 0.104 0.396 0.311 0.569l0.259 0.207c-0.035 0.034-0.173 0.087-0.414 0.155-0.104 0.035-0.155 0.189-0.155 0.466 0 0.241 0.052 0.604 0.155 1.087 0.068 0.483 0.104 0.846 0.104 1.086 0 0.174-0.035 0.26-0.104 0.26-0.225-0.086-0.275-0.104-0.311-0.104-0.068 0.035-0.104 0.121-0.104 0.259 0 0.401 0.094 0.824 0.281 1.27zm10.044 0c0.071-0.02 0.147-0.028 0.227-0.028 0.116-0.013 0.211-1e-3 0.284 0.034zm25.016-12.916 0.725 0.363-0.156 0.362-0.673-0.312zm-10.248-8.693c0.794 0.378 1.502 0.569 2.122 0.569 0 0.275 0.052 0.673 0.155 1.189 0.104 0.483 0.156 0.862 0.156 1.139 0 0.139-0.035 0.241-0.104 0.311-0.104 0.069-0.155 0.155-0.155 0.259l-0.775 0.621c0.104-0.172 0.154-0.396 0.154-0.673 0-0.379-0.119-0.88-0.361-1.501-0.346 0.346-0.742 0.518-1.191 0.518v-2.432zm18.062 20.804v0.414l-0.931 0.311-0.104-0.363zm-8.228-12.939-0.828 0.363 0.155 0.362 0.673-0.311zm-5.64 2.33h-0.467v0.776h0.467zm0.31-2.07c0.172 0 0.258 0.259 0.258 0.776 0-0.139 0.086-0.242 0.258-0.311 0.139-0.069 0.277-0.069 0.416 0-0.242-0.31-0.553-0.465-0.932-0.465zm2.277-2.174h-0.725v0.466h0.725zm-0.518-3.52-0.31 1.087h0.361l0.361-0.931zm-13.093 4.762h-0.467v0.725h0.467zm0-1.656h-0.467v1.294h0.467zm-10.351 8.126-0.258 0.31 0.672 0.674 0.311-0.26zm4.295-9.783h-0.465v1.295h0.465zm-4.243 2.071h-0.726v0.466h0.726zm28.361 14.387-0.362 0.724 0.414 0.104 0.311-0.672zm-0.052-9.729h-0.725v0.466h0.725zm-2.07-3.83-0.932 0.621 0.207 0.361 0.982-0.62zm-15.94-2.899h-0.467v1.035h0.467zm18.838 7.298-0.26 0.31 0.621 0.674 0.311-0.26zm-0.724-0.829v0.414l1.19 0.467 0.154-0.414zm-33.538 6.47v0.983h-0.464v-0.983zm9.155 3.764c-0.014 0.097-0.045 0.223-0.097 0.376-0.069 0.207-0.104 0.363-0.104 0.467-0.241-0.276-0.448-0.414-0.622-0.414 0.502-1e-3 0.778-0.143 0.823-0.429zm-1.287-2.263v0.466l-1.294 0.311v-0.466zm0.257-1.346v0.363l-0.62 0.361-0.155-0.414zm7.919-5.796c0 0.034-0.086 0.052-0.259 0.052l-0.337 0.379c-0.042 0.135-0.067 0.303-0.077 0.5v-0.414c0.18-0.422 0.379-0.567 0.673-0.517zm-4.502 1.656 0.311 0.311-0.672 0.673-0.311-0.259zm-3.002 2.278c0.104 0.103 0.156 0.188 0.156 0.258 0 0.138-0.086 0.276-0.26 0.414 0.139 0.138 0.174 0.328 0.104 0.569-0.068 0.241-0.172 0.362-0.31 0.362zm4.554-4.192v0.361l-0.673 0.363-0.155-0.414z" clip-rule="evenodd" fill-rule="evenodd"/><polygon points="35.917 52.474 35.657 52.11 34.933 52.835 35.244 53.146"/><rect x="39.747" y="57.391" width=".465" height=".776"/><polygon points="34.364 54.491 34.571 54.905 35.502 54.439 35.502 53.974"/><path d="m32.524 70.472c0.078 0.033 0.156 0.09 0.235 0.168 0.098-0.098 0.175-0.16 0.255-0.227 8e-3 -0.023 0.015-0.046 0.022-0.07z"/><path d="m41.195 54.13c-0.034 0-0.104-0.051-0.207-0.156v0.777c0 0.226-0.149 0.648-0.45 1.266l0.398-0.697c0.346-0.586 0.518-1.017 0.518-1.293 0-0.139-0.018-0.293-0.053-0.466 0 0.379-0.068 0.569-0.206 0.569z"/><rect x="25.308" y="63.549" width=".518" height=".776"/><path d="m32.034 70.587 0.49-0.115c-0.061-0.026-0.119-0.039-0.178-0.039-0.103 0-0.207 0.05-0.312 0.154z"/><rect x="6.521" y="41.243" width=".466" height=".776"/><path d="m9.626 41.761c0.379-0.311 1.018-0.432 1.914-0.362-0.206-0.104-0.586-0.172-1.139-0.207-0.552-0.068-0.931-0.155-1.138-0.258 1e-3 0.171 0.122 0.448 0.363 0.827z"/><rect x="11.851" y="40.829" width="2.226" height=".466"/><path d="m12.679 51.181c-0.017-0.022 0.16-0.038 0.469-0.049-1e-3 -2e-3 -2e-3 -2e-3 -2e-3 -4e-3 -0.104-0.275-0.156-0.5-0.156-0.672 0-0.38 3.158-2.277 3.158-2.277v1.293c-0.139 0.139-0.225 0.346-0.26 0.621-0.033 0.312 0.018 0.535 0.156 0.673h1.086c0.035-0.034 0.156-0.086 0.363-0.154 0.068 0 0.103-0.139 0.103-0.415 0-0.217-0.017-0.365-0.05-0.447-0.123-0.012-0.244-0.018-0.363-0.018 0.186 0 0.301-6e-3 0.347-0.016 0.596 0.088 1.199 0.271 1.826 0.585-0.138 0.138-0.293 0.207-0.466 0.207-0.172 0-0.361-0.104-0.57-0.312-0.171 0.173-0.258 0.346-0.258 0.518 0 0.104 0.034 0.19 0.104 0.26-0.088 0-0.32 0.056-0.688 0.164 1.283 0.016 2.746 0.039 4.295 0.067 0.579-0.172 1.356-0.42 2.344-0.749 0.115 0.086 0.384 0.363 0.787 0.81 2.984 0.061 6.025 0.13 8.529 0.189v-0.378h0.518v0.391c3.02 0.072 5.123 0.127 5.123 0.127h2.004l-0.089 1.189h0.517l0.155-2.07h-0.361v-9.78h-12.308c-0.097-0.166-0.17-0.355-0.218-0.571-0.293 0.182-0.553 0.371-0.775 0.571h-13.197c-0.588 0.759-6.021 1.138-6.677 1.138 0.034 0.207-0.518 0.38-0.518 0-0.104 1.242-0.828 0.587-1.035 0.311-0.345-0.414-0.534-0.656-0.569-0.725 0.172-0.172 0.26-0.396 0.26-0.673h-6.005v10.61h12.681zm12.99-1.243-0.672 0.362-0.156-0.415 0.828-0.361zm9.368-7.97h0.776v0.518h-0.776zm-11.903 5.072h15.318v1.915h-2.381c-1.104 0-1.776 0.207-2.018 0.62-0.242-0.034-0.914-0.189-2.02-0.465-0.861-0.207-1.639-0.311-2.328-0.311-1.069 0-2.07 0.259-3.002 0.775-0.379-0.345-1-0.568-1.863-0.672l-1.707-0.207v-1.655zm-4.709 1.397c0.207 0.381 0.311 0.656 0.311 0.829-0.207 0-0.502-0.052-0.881-0.155s-0.656-0.155-0.828-0.155c0.31-0.346 0.777-0.519 1.398-0.519z"/><path d="m33.433 52.474h0.518v-1.006c-0.168-4e-3 -0.346-9e-3 -0.518-0.013z"/><path d="m13.147 51.132c0.102 0.273 0.152 0.428 0.152 0.463h2.744c0.606-0.203 1.082-0.354 1.434-0.457-2.03-0.026-3.595-0.032-4.33-6e-3z"/><path d="m21.685 51.231c0.379 0 0.967 0.053 1.76 0.156 0.76 0.104 1.328 0.154 1.707 0.154-0.091-0.104-0.168-0.188-0.248-0.276-1.062-0.021-2.113-0.042-3.131-0.061-0.029 0.01-0.062 0.02-0.088 0.027z"/><path d="m15.216 49.628c0.068 0.24 0.051 0.432-0.053 0.568-0.138-0.24-0.224-0.361-0.258-0.361 0 0.139 0.12 0.361 0.361 0.673 0.242 0.275 0.432 0.448 0.57 0.517-0.448-1.311-0.725-1.743-0.62-1.397z"/><path d="m41.299 71.196v-3.455c-0.157 1.51-0.302 2.663-0.437 3.455z"/><path d="m34.927 56.281 0.73-0.962-0.361-0.258-0.744 0.979c-0.266-0.168-0.541-0.332-0.653-0.617l-0.259-0.414-0.518 0.208-0.49-0.255 2.146-1.609-0.258-0.363-2.374 1.731c-3.602-1.74-7.347-2.61-11.237-2.61-5.106 0-9.574 1.277-13.405 3.83-4.657 3.105-6.986 7.487-6.986 13.146v2.109l8.943-1e-3c0.99-2.712 2.15-4.673 3.479-5.887 1.828-1.655 4.484-2.484 7.97-2.484 4.347 0 7.315 0.966 8.901 2.898 0.207-2.588 0.375-0.716 0.609 0.398-0.17 0.079-0.287 0.118-0.351 0.118 0.136 0.015 0.268 0.047 0.397 0.096 0.184 0.803 0.43 1.482 0.74 2.039l-2.559 2.822 0.15-8e-3c0.457-0.398 0.812-0.651 1.064-0.757 0.034 0.241 0.051 0.466 0.051 0.673 0 0.027-1e-3 0.057-4e-3 0.092l0.141-2e-3c0.072-0.32 0.148-0.695 0.226-1.125 0.173-0.932 0.519-1.396 1.036-1.396 0.206 0.689 0.326 1.189 0.361 1.5 0.248-0.384 0.491-0.73 0.776-0.982 0.276-0.275 1.306-1.231 1.347-1.502 0.12 0.049-0.452 1.682-0.759 2.654l0.081-0.021c0.178-0.13 0.3-0.162 0.365-0.096l-0.365 0.096c-0.029 0.021-0.071 0.065-0.104 0.092-0.117 0.376-0.189 0.641-0.151 0.641 0.175 0 0.354 0.048 0.537 0.143h1.515l0.176-0.325 0.695 0.325 4.75 7e-3c-0.043-1.376-0.064-2.323-0.064-2.841 0-0.241 0.034-0.604 0.104-1.087 0.068-0.518 0.104-0.897 0.104-1.14 0-4.032-1.918-7.319-5.752-9.855zm-29.545 12.288-0.361-0.673 0.414-0.155 0.361 0.828zm7.556-10.298-0.414-0.26 0.725-1.034 0.361 0.259zm2.536-1.967-0.311-0.414 2.227-1.863 0.258 0.414zm16.142 11.617c-0.126-0.25-0.193-0.531-0.201-0.842 0.143 0.176 0.279 0.379 0.412 0.609zm0.768 0.934-0.504 0.438c0-0.199 0.059-0.468 0.154-0.88 0.104-0.379 0.156-0.655 0.156-0.828l0.385 0.855c-0.033 0.129-0.092 0.258-0.191 0.415zm1.369-1.841c0.107-0.067 0.174-0.101 0.221-7e-3zm1.025 3.676c-0.483 0.034-0.896 0-1.242-0.104 0.138-0.138 0.414-0.362 0.828-0.672 0.191-0.107 0.336-0.219 0.436-0.338-0.015 0.149-0.021 0.279-0.021 0.39-1e-3 0.26 0.019 0.5-1e-3 0.724zm1.812-0.568-0.673 0.311-0.156-0.414 0.829-0.362z"/><polygon points="41.195 61.169 40.833 62.515 41.351 62.515 41.712 61.169"/><polygon points="25.101 32.756 25.411 32.497 24.686 31.772 24.428 32.083"/><path d="m4.709 32.497c0.241-0.035 0.415 0 0.519 0.104-0.035 0.828 0.017 1.311 0.154 1.449 2.374 2.58 5.494 4.3 9.361 5.16h0.023c1.916 0.424 4.015 0.635 6.297 0.635 1.879 0 3.715-0.211 5.509-0.635h-5.142l-0.264 0.066-0.041-0.066-1.408-2.262 0.362-0.156 1.501 2.381-0.15 0.037 5.142-2e-3c1.007-0.237 1.999-0.543 2.979-0.914 3.242-1.208 5.502-2.881 6.779-5.021-0.172 0-0.363-0.052-0.57-0.155 0.863-0.173 1.588-0.553 2.175-1.139l0.769-0.77-5.695-2e-3c-0.041 0.125-0.09 0.244-0.146 0.357 0-0.121-0.011-0.237-0.032-0.355l-4.473-3e-3c-0.01 0.21-0.078 0.347-0.205 0.41-0.172 0.034-0.293 0.189-0.361 0.466-0.07 0.242-0.174 0.396-0.312 0.466l-0.517 0.259 0.465 0.414 0.57-0.311c0.172-0.069 0.379-0.018 0.621 0.155-0.38 0.345-0.57 0.845-0.57 1.501h-1.604v-1.086c-0.312 0-0.76-0.052-1.346-0.155-0.621-0.139-1.088-0.207-1.397-0.207 0.345-0.345 0.518-0.674 0.518-0.983 0-0.207-0.087-0.5-0.259-0.88-7e-3 -0.014-0.014-0.027-0.021-0.045l-10.941-4e-3c-0.075 0.033-0.105 0.059-0.091 0.074 0.063 5e-3 0.12 0.026 0.185 0.026-0.109 0-0.17-9e-3 -0.185-0.026-0.172-0.012-0.345-0.021-0.501-0.07l-9.135 3e-3c0.332 0.566 0.639 1.046 0.92 1.439 0.035 0 0.206-0.051 0.517-0.155zm27.325 0.466c0.035 0.034 0.225 0.121 0.57 0.259 0.345 0.104 0.568 0.259 0.672 0.465h-1.604c0.243-0.31 0.362-0.551 0.362-0.724zm-4.242 2.433 0.361 0.155-0.311 0.931h-0.414zm-3.883 3.001c-0.517 0-0.775-0.396-0.775-1.191 0-0.345-0.189-0.689-0.57-1.035l0.415-1.035c0.137 0.725 0.448 1.812 0.93 3.261zm-1.707-3.83v-0.725h0.465v0.725zm-0.931-1.242c0.139-0.069 0.38-0.241 0.725-0.518-0.104-0.139-0.138-0.396-0.104-0.776 0.034-0.345 0.121-0.587 0.259-0.725 0.241 0.242 0.362 0.707 0.362 1.397 0.553 0 0.914-0.086 1.086-0.26-0.104 0.449-0.311 1.174-0.62 2.174 0.034-0.758-0.069-1.311-0.312-1.655-0.414 0.207-0.879 0.759-1.396 1.655zm-3.778 1.914-0.726-0.361 0.155-0.362 0.725 0.362zm-0.725-2.638 0.673 0.982-0.361 0.26-0.674-0.983zm-0.673 2.742 0.725 0.363-0.155 0.361-0.724-0.361zm-0.518 0.931h0.518v1.605h-0.518zm-5.64-4.502h0.776v0.466h-0.776zm-2.381 1.087 1.294 0.621-0.155 0.413-1.295-0.62zm0.363 1.191v1.086l-0.777-0.672c0.345-0.104 0.603-0.241 0.777-0.414zm-1.916-2.122c0 0.104-0.052 0.293-0.155 0.569-0.138 0.276-0.207 0.466-0.207 0.569 0-0.448 0.052-0.726 0.155-0.828-0.345-0.173-0.568-0.276-0.672-0.311h0.879z"/><path d="m26.844 31.21-1.45 6e-3c-0.195 0.215-0.293 0.4-0.293 0.557h2.121c-0.155-0.169-0.282-0.354-0.378-0.563z"/></g><g fill="#fff"><polygon transform="matrix(1.5376 0 0 1.5376 0 .0014882)" points="249.77 171.46 248.31 171.88 249.56 175.65 251.24 175.65"/><path d="m799.08 258.49c-1.7175 0.42746-3.6549 0.53663-5.8014 0.32444-2.3602-0.64426-4.0808-0.96869-5.154-0.96869-0.17682 0-0.35364-0.02-0.53816-0.0584h-57.786v1.3469c0.81339 0 1.8174 0.47973 3.0152 1.4423 0.72729-0.23526 3.2674-0.71652 7.6188-1.4423h53.167c1.9312 4.0808 4.6159 3.8701 4.8327 2.577 0.42899-1.0717 0.8626-1.8251 1.2885-2.2526 0.17067 0.0846 0.30906-0.67347 0.29061-1.6714l-1.616 5e-3c0.18759 0.26447 0.41361 0.49665 0.68269 0.69807z" stroke-width="1.5376"/><path d="m784.58 255.6c-1.0717-1.716-1.613-3.2197-1.613-4.5082-0.85644 0.64426-1.7175 0.96254-2.577 0.96254-0.42899 0-0.8626-0.21065-1.2885-0.64272 2.577-3.8655 4.19-6.8746 4.8327-9.0226 1.2885 3.6533 2.2587 6.4456 2.9015 8.3768 3.8655-1.5053 6.9822-2.5755 9.3424-3.2197-1.2885-4.5144-2.0419-8.0586-2.2526-10.636-3.2259-1.716-4.8373-3.3289-4.8373-4.8342l5.1571-3.5457v-7.0883c-0.85952 0-1.7144 0.43207-2.5739 1.2931-0.64579 0.85491-1.1855 1.2885-1.613 1.2885-0.54431-1.1594-0.9856-2.208-1.3331-3.1336l-10.045-3e-3 10.045-6e-3c-0.61504-1.6698-0.92564-2.983-0.92564-3.947 0-3.6533 1.0779-6.0136 3.2259-7.0899 1.7144 0.86105 2.9014 1.2885 3.5472 1.2885v-2.5416l-45.851 9e-3c-0.12301 4.5482 0.87335 7.1129 2.9906 7.6911-1.2885 0-3.1136 0.75189-5.4769 2.2572-2.3602 1.2885-4.0808 2.0404-5.154 2.251 2.5493-4.9188 4.7927-8.9919 6.7239-12.207l-18.968 8e-3c0.42899 2.2403 0.6458 3.621 0.6458 4.1469l0.31828-1.2393v9.3855l30.254-9e-3c-0.40593-0.73804-0.60889-1.41-0.60889-2.0158 0-0.86106 0.2168-1.8251 0.64271-2.9014 0.6458-1.2885 0.97023-2.2526 0.97023-2.8968 2.577-0.86106 4.2976-1.2931 5.154-1.2931l-2.577 2.5816c0.64271 0 1.2885-0.2168 1.9312-0.64426 0.8626-0.64425 1.8282-0.96868 2.9014-0.96868 1.9343 0 2.9014-0.42746 2.9014-1.2885 0-0.43207-0.2168-0.86106-0.64271-1.2885l2.2557 1.2885c1.5053 0.86105 2.7923 1.2885 3.8655 1.2885 1.0779 0 1.8267 1.0717 2.2587 3.2213-1.4761 1.7436-2.7339 3.3843-3.7702 4.9219h-2e-3c-2.2787 3.3781-3.4919 6.2503-3.6395 8.6136l-2.9015-2.577c-0.85951 0.85645-1.2885 1.7175-1.2885 2.577-2.7923 0-4.19-0.96869-4.19-2.9014 0-0.2168 0.10455-0.42592 0.32135-0.64272-0.2168-0.86259-0.96407-1.9328-2.2587-3.2213-0.56122-0.65963-1.0025-1.2777-1.3208-1.8451l-30.254 2e-3v36.901l57.786-2e-3c-0.93333-0.20603-1.9358-0.93486-3.0106-2.1926zm1.9312-31.256 1.6129 5.7998h-2.2557l-1.6129-5.7998zm-9.9867 2.5801-2.2587-0.96715 1.9343-4.5144h1.9312z" stroke-width="1.5376"/><path d="m798.4 257.78 1.616-3e-3c-0.0277-1.5222-0.41208-3.6041-1.5791-4.1238-0.64271 0-0.85952 0.64425-0.64271 1.9328 0 0.8872 0.19988 1.6191 0.60581 2.1942z" stroke-width="1.5376"/><polygon transform="matrix(1.5376 0 0 1.5376 0 .0014882)" points="298.81 146.95 300.28 144.01 298.85 143.65 298.6 143.59 298.58 143.65 297.34 146.32"/><path d="m790.7 215.96c-0.86259 1.9374-1.3961 3.0091-1.6129 3.2259 3.2259 0 4.9403 0.10764 5.1571 0.31982 0-3.6487-0.42591-5.9059-1.2885-6.7654-0.64271-2e-3 -1.3931 1.0717-2.2557 3.2197z" stroke-width="1.5376"/><path d="m281.58 212.74c0.37825-1.4607 0.73343-2.8476 1.0656-4.1546l-1.7113 8e-3c0.42899 2.2403 0.64579 3.6226 0.64579 4.1469z" stroke-width="1.5376"/><path d="m169.77 199.86c1.3762-1.3085 2.5309-2.4924 3.4642-3.5626h6e-3c1.982-2.2587 2.9706-3.9701 2.9706-5.1402h-6.4395v8.7028z" stroke-width="1.5376"/><path d="m594.79 199.86-0.27523-1.37c-0.94255-0.37209-1.1563-0.23064 0.27523 1.37z" stroke-width="1.5376"/><path d="m590.52 196.28h-5.4v6.0535c2.5678-2.4417 4.3668-4.4606 5.4-6.0535z" stroke-width="1.5376"/><path d="m591.56 193.63h-1.1947c0.20604 0.31059 0.41208 0.62426 0.63042 0.98252l-0.66424-0.98252h-5.214v2.6508l5.4001-2e-3c0.69345-1.0748 1.0425-1.9574 1.0425-2.6493z" stroke-width="1.5376"/><path d="m582.93 191.39 1.2885-0.32443c1.0717-0.42746 2.0389-0.64426 2.9014-0.64426 0.56738 0 1.327 0.6135 2.2756 1.8436-1.8436-2.6708-3.355-4.682-4.5344-6.0335 0 2.3648-0.64272 4.0808-1.9312 5.1586z" stroke-width="1.5376"/><path d="m746.24 196.28 5.1925-8e-3c0.15069-0.47973 0.35211-1.0071 0.59813-1.5806h-6.7654c0.29061 0.54585 0.61811 1.0778 0.97484 1.5883z" stroke-width="1.5376"/><path d="m743.35 184.61 1.5883 2.3448c-0.57967-0.93793-1.1071-1.7206-1.5883-2.3448z" stroke-width="1.5376"/><polygon transform="matrix(1.5376 0 0 1.5376 0 .0014882)" points="487.48 119.65 488.26 121.59 489.51 121.59 488.94 119.65 488.46 118.03 487 118.45"/><path d="m743.35 184.61c-0.14761-0.21218-0.28907-0.41822-0.43207-0.63195h-8e-3c-1.6422-2.3571-3.006-4.1577-4.0946-5.4016 0 2.3648-0.64272 4.0808-1.9312 5.1571l1.2885-0.32443c1.0717-0.42745 2.0389-0.64426 2.9014-0.64426 0.46282 0 1.0486 0.40593 1.7621 1.2116l0.0308 3e-3 -0.0308 3e-3c0.16606 0.18913 0.33674 0.39824 0.51356 0.62734z" stroke-width="1.5376"/><polygon transform="matrix(1.5376 0 0 1.5376 0 .0014882)" points="389.39 126.57 388.34 123.01 386.88 123.42 388.14 126.57"/><path d="m607.43 192.03c1.0779 0 1.6129-1.1809 1.6129-3.5457 0 0.64425-1.7144 0.96868-5.1571 0.96868 1.0748 0.85491 2.2557 1.716 3.5442 2.577z" stroke-width="1.5376"/><path d="m589.41 192.26 0.92256 1.3638h0.0323c-0.3352-0.50894-0.6581-0.97791-0.95485-1.3638z" stroke-width="1.5376"/><path d="m759.44 194.37c-1.1055 0-2.3664 0.6335-3.7871 1.9051h-0.0123c-0.23064 0.20911-0.46897 0.4336-0.70884 0.67501-1.5053 1.716-2.5832 2.6831-3.2259 2.9014-0.42899-0.43361-0.64579-0.96869-0.64579-1.6129 0-0.53355 0.12608-1.1855 0.3721-1.9558l-5.1925 0.0108c1.4807 2.1465 3.5165 4.0808 6.1089 5.809l-2.2526 1.9374c-3.5288-2.2941-5.6092-4.8803-6.2411-7.7572-0.13531-0.62427-0.2045-1.2608-0.2045-1.9128-3.435 0.18144-6.5656-0.47204-9.3901-1.9635 0.0323-0.25832 0.0477-0.46282 0.0477-0.61197 0-2.9414-0.409-5.5477-1.2224-7.811l-0.25524-8e-3h0.25524c-0.91026-2.5386-2.331-4.6558-4.2561-6.358 0.42899-0.64886 0.96407-0.96869 1.6099-0.96869 0.85952 0 1.8282 0.53663 2.9014 1.613 1.7206-1.7206 2.574-3.435 2.574-5.1571 0-0.47512-6e-3 -0.94563-0.0185-1.4238-0.10763-4.1961-0.7119-8.2954-1.8082-12.301h-5e-3c-1.1532-4.213-2.8553-8.3153-5.1033-12.301v-0.0108c-1.6791-2.983-3.661-5.9059-5.952-8.7659-7.7326-9.2394-17.827-16.648-30.286-22.234 8.9458-5.3155 16.049-11.378 21.303-18.191 2.9783-3.8563 5.3601-7.9525 7.156-12.295h3e-3c1.616-3.9086 2.7538-8.014 3.4089-12.308l-0.0646-0.0031h0.0646c0.44744-2.9368 0.67346-5.9628 0.67346-9.0795 0-5.5292-0.53508-10.705-1.6006-15.519l-0.17221-0.0077h0.17221c-3.4468-15.6-12.477-27.504-27.078-35.707-16.542-9.2394-36.735-13.537-60.578-12.893l-31.578 0.96869c-28.143 0.86106-43.071 1.2885-44.792 1.2885 0 2.577-0.31829 4.19-0.96408 4.8342-0.85952-0.64425-1.2947-2.2572-1.2947-4.8342h-44.46v83.253l0.0169 0.0015h-0.0169v72.058h-12.244c0 0.6012 0.0507 1.1855 0.15069 1.7452v0.0123c0.35979 2.0834 1.3838 3.9701 3.0721 5.6584-3.8655 1.5053-6.9822 2.2526-9.3425 2.2526-1.7206 0-3.1167-0.31982-4.19-0.96407l3.8655 4.8327c0.47204 0 0.88566 0.17221 1.247 0.51049l5.011 5e-3 -5.011 5e-3c0.12916 0.12609 0.24909 0.27369 0.36595 0.44437 0.42592 0.4336 1.0717 0.6504 1.9312 0.6504 1.7206 0 4.0808-0.32443 7.0899-0.96868 0.20143-0.04 0.39824-0.0815 0.59198-0.12609h0.0415c2.9138-0.56122 5.174-0.84414 6.7747-0.84414 0-1.6468 0.2168-3.3935 0.64579-5.2371v55.275l6e-3 2e-3h-6e-3v36.639s141.46-1.6083 156.28-1.6083c9.67 0 21.16-4.5128 34.482-13.535 10.426-7.2298 17.827-14.397 22.2-21.497 1.2101-1.9666 2.1895-3.9316 2.9337-5.889-2.2941-1.4146-3.6456-3.5519-4.0546-6.4118-0.0907-0.62119-0.13531-1.2762-0.13531-1.9666 0-2.3648 0.53816-5.1571 1.6099-8.3768l2.5801 2.8999c-0.64272 1.2885-0.75035 3.2213-0.32443 5.7983 0.11993 0.59659 0.22756 1.147 0.32443 1.6468l18.968-5e-3c0.34596-0.57506 0.68116-1.1209 1.0056-1.6422-0.0446 0.57814-0.0753 1.1301-0.0907 1.6468h45.851v-13.889c-16.548-0.21987-28.253-0.32751-35.128-0.32751zm-170.54-170.64c1.6483-0.35211 2.4709-1.5899 2.4709-3.7102 0-0.5889-0.0569-1.1747-0.17375-1.7652h3.1736c0.70883-0.11686 1.4146-0.17375 2.1234-0.17375 5.7691 0 8.6521 2.351 8.6521 7.0622v3.3566h26.313c-10.243 0.5889-16.838 1.1178-19.778 1.5883 2.9399 5.889 5.1771 9.5962 6.7086 11.126l-3.355 2.2956c-1.1778-3.7671-2.1173-5.6507-2.8261-5.6507-0.47204 0-1.0594 0.11532-1.7652 0.35211-0.70575 0.23372-1.1778 0.35211-1.4115 0.35211 1.7621-1.6483 2.6493-3.1198 2.6493-4.416 0-3.1767-0.5889-4.7681-1.7652-4.7681-1.6483 0-4.1807 0.47204-7.5942 1.4115-3.2982 0.94255-5.7691 1.4131-7.4174 1.4131-2.2372 0-5.357-2.6493-9.3578-7.9479 1.0563-0.11378 2.1757-0.29214 3.3535-0.52586zm20.307 15.714-2.4709 2.4725-0.88258-1.0579 2.2941-2.2956zm-29.58 58.427v-45.284h59.936c6.012 0 10.955 3.6487 14.824 10.955 1.862 3.578 3.1029 6.8239 3.7241 9.7269h0.24602l-0.24602 0.0077c0.30906 1.4561 0.46589 2.8307 0.46589 4.1208 0 2.7677-0.52586 5.4908-1.573 8.1708-1.2255 3.1398-3.1736 6.215-5.8413 9.2302-1.0025 1.1378-2.0358 2.1557-3.0967 3.0629h-9e-3c-3.9347 3.3274-8.2708 4.9895-13 4.9895l-55.429-0.31982zm-4.5082-90.396h2.9014v4.8342h-2.9014zm-6.3149 190.72c0 4.5129-0.53509 7.3051-1.6068 8.3768-1.9374 0-4.0839-1.1809-6.4441-3.5457 1.287-1.0702 3.9686-2.6831 8.0509-4.8311zm-10.119-30.907v-6.7654h3.2197v6.7654zm9.4639 16.678h-0.0677l0.0677-6e-3c-0.50126-0.99637-1.0579-2.0542-1.6637-3.1705 3.2197 0 5.9044-1.0717 8.054-3.2213 0 2.5109 0.0123 4.6405 0.0354 6.3964 0.0477 3.3335 0.14454 5.2832 0.28907 5.8475-1.0779 0.64271-2.2587 1.287-3.5472 1.9312-0.49204-1.965-1.5499-4.5605-3.1675-7.7772zm6.6424-73.825v4.8327h-2.8984v-4.8327zm-1.2854-4.19v-6.4456h3.2197v6.4456zm0 16.108v-4.8342h3.2197v4.8342zm1.6129 25.004v-4.2622h2.9014v8.3768h-2.9014zm-1.8928-114.77c2.1465-1.9328 3.3274-3.1167 3.5442-3.5457 0 1.0717-0.32443 2.577-0.96715 4.5144-0.42899 1.9328-0.64579 3.4365-0.64579 4.5098-1.9312-1.2885-3.5442-1.9328-4.8327-1.9328 2e-3 -0.4336 0.97177-1.6129 2.9015-3.5457zm1.2885 5.8014v20.941h-3.2197v-20.941zm-3.5918 44.658 1.1501 2.8107 4.6512 11.369h-2.9015l-4.7112-11.369-0.76573-1.8436zm-0.63964 70.038h-8.7028c1.2947-2.148 1.9374-3.7548 1.9374-4.8342 2.7923 2.1511 5.0449 3.7625 6.7654 4.8342zm-13.21-136.3h2.9014v4.8327h-2.9014zm6.3564 112.46-2.577 1.613-11.604-13.537 2.5832-1.6083zm-15.141-18.688 2.2495 5.1571h-2.577l-2.2557-4.19zm-22.66-59.843c0.17682-0.55661 0.34442-1.1378 0.49972-1.7483h2e-3c1.1655-4.5252 1.7513-10.388 1.7513-17.587 0 0.42745 0.43207 0.64579 1.2947 0.64579 1.0686-0.21834 1.7144-0.21834 1.9312 0 0.85951 0.21065 1.2885 0.96254 1.2885 2.251v17.727c-7.0899 0-11.28-0.42899-12.568-1.2885zm9.6469 8.8227-1.6099 2.577-6.4441-4.19 1.6129-2.577zm26.854 174.3c-0.86259 1.0717-1.1809 2.4678-0.96407 4.19 0.20142 1.5038 0.35365 2.5632 0.45974 3.1767l0.18298 0.36595c0 0.45974-0.06 0.33673-0.18298-0.36595-2.2787-4.5421-4.15-7.9648-5.6153-10.268-1.5068 2.148-2.577 3.8701-3.2228 5.1571-4.0839-1.2885-10.851-1.9389-20.301-1.9389l-0.0692-12.994-0.13223-24.602-0.063-12.301-0.0661-12.301-0.0477-8.7997 4.8327 2.2572c-0.0661 3.1044-0.0984 5.1863-0.0953 6.5425v6e-3c3e-3 7.3205 0.961-6.1473 2.4079 5.806-0.5766 2.2541-1.0871 4.4175-1.5345 6.4887l0.0185 2e-3h-0.0185c-0.97638 4.5267-1.6437 8.6198-2.0081 12.29h-2e-3c-0.21372 2.1619-0.32136 4.1715-0.32136 6.0305v26.743c6.8746 1.7206 12.027 2.7923 15.464 3.2259 2.3664-0.86106 3.5442-4.0808 3.5442-9.6669 0-0.53509-0.0123-1.1086-0.0354-1.7206-0.12608-3.1259-0.5766-7.2252-1.3546-12.301-0.16453-1.0809-0.34596-2.208-0.54124-3.3781-1.0717-7.9509 3.2366 0.60888 3.2366-3.2597 0.61196 2.8738 0.99944 5.0095 1.247 6.6378l0.98099 6e-3h-0.98099c0.97638 6.4318-0.22295 5.1417 1.3177 10.791 0.0692 0.51356 0.14453 1.0133 0.21987 1.5053h2e-3c0.85337 5.4062 2.0712 9.0934 3.6441 11.063 58.003 0.86106 5.706 1.3961 35.134 1.6129h-35.136zm35.208-5.8075h-19.331v-3.2197h19.331zm70.966-43.771h0.0461l-0.0461 3e-3c-1.3146 4.9695-4.0746 9.0718-8.2769 12.298h0.143l-0.143 9e-3c-7.8295 6.0243-20.667 9.0365-38.512 9.0365-1.7144 0-7.0899-1.5053-16.113-4.5144-6.441-2.1465-9.6669-3.5442-9.6669-4.19 0-0.13531 0.21988-0.22757 0.66117-0.27677-1.6668 0.15991-2.3126 0.79187-1.9497 1.8897l0.0492 0.24294c1.4623 0.57814 4.7004 2.4033 6.398 2.0143-0.8626 0.8549-1.1809 1.7144-0.97023 2.577 0.2168 1.0702 0.8626 1.6129 1.9312 1.6129h-26.098c1.1255-2.4294 1.6975-5.2278 1.9758-8.403v-9e-3c0.31521-3.6041 0.26139-7.7003 0.2168-12.292l-1.5022-3e-3 1.5022-3e-3c-0.0154-1.4038-0.0277-2.8538-0.0277-4.3529 0-2.9476 0.0477-5.5938 0.06-7.9371v-5e-3c0.0277-6.1842-0.19835-10.24-2.2249-12.109 0.0415-0.063 0.0846-0.12608 0.12455-0.18912h2e-3c2.9245-4.4268 4.3883-8.017 4.3883-10.769 0-0.49203-0.0308-0.99944-0.0938-1.5345h-2e-3c-0.10149-0.84414-0.28907-1.7298-0.55354-2.6554h59.936c4.313 0 8.2554 0.88258 11.829 2.6554h0.0123c3.3627 1.6637 6.3964 4.1085 9.1026 7.3359 1.4361 1.5945 2.6939 3.2474 3.7748 4.9649h3e-3c2.3987 3.8071 3.9193 7.9048 4.5651 12.301h2e-3c0.23525 1.6176 0.35519 3.272 0.35519 4.9664 3e-3 2.6293-0.29676 5.0756-0.89796 7.3359zm23.212-58.17h-4.8358v-3.2197h4.8358zm-6.0089-6.501c-4.1654 2.3218-7.0238 3.1213-8.5829 2.3956-0.7811-0.36441-2.1772-2.1972-4.1869-5.5062-1.9097-3.0229-3.4473-4.8081-4.6159-5.3524 3.0506-0.94717 5.3847-1.6345 7.0068-2.0665 0.54431-1.167 0.0415-2.1127-1.5192-2.84 0.18297-0.39208 1.8267-1.8774 4.9219-4.459-0.29368-0.37671-0.83492-0.74727-1.613-1.1117-0.7811-0.36287-1.799-0.71806-3.0567-1.0656-1.4084-0.39363-2.5955-0.86721-3.5549-1.4269h-6e-3c-0.75342-0.43514-1.3715-0.91948-1.8466-1.4546 2.514 0.70115 7.4835-0.30137 14.907-3.0029-0.18298 0.39209-0.74112 1.0763-1.6729 2.0635-0.83799 0.88412-1.4438 1.6837-1.8236 2.3956l0.64425 0.0031-0.64425 0.0031c-0.0446 0.08457-0.0877 0.1676-0.12301 0.24909 0.4582-0.05997 0.88719-0.143 1.2962-0.24909h0.0231c2.0481-0.52586 3.4534-1.5945 4.2069-3.2167 1.0994 0.51356 2.0419 1.5822 2.8353 3.2105h2e-3c0.0477 0.10148 0.0969 0.20604 0.14608 0.31213 0.91948 2.0881 1.1086 3.7179 0.5643 4.885-0.54585 1.1686-1.204 1.8113-1.9666 1.9266l-2.2972 0.35211c0.7811 0.36287 2.1742 0.41976 4.1869 0.17682 2.208-0.15991 3.7994-9e-3 4.7696 0.44437-0.0907 0.19527-0.0661 1.1517 0.0784 2.8784 0.24909 2.0158 0.0984 3.6057-0.44437 4.7727-0.81954 1.7482-3.3643 3.6441-7.6342 5.683zm82.943 85.375-4.5082-1.613v-2.2587l5.4769 1.9328z" stroke-width="1.5376"/><path d="m760.77 183.98h8e-3c0.19835 0.13531 0.39516 0.26754 0.59351 0.40131 0.35211 0 0.64579-0.13069 0.88104-0.39055h0.0138c0.47973-0.52432 0.71806-1.5745 0.71806-3.1552 0 0.64425-1.7144 0.96868-5.1571 0.96868 0.90719 0.72114 1.8866 1.4454 2.943 2.1757z" stroke-width="1.5376"/><path d="m779.42 175.67c3.4442-1.6376 5.8859-2.9645 7.3251-3.9885h0.0154c0.44129-0.31059 0.78725-0.59351 1.0394-0.84568-2.3602-2.3587-4.6159-3.5442-6.7654-3.5442-0.69654 1.3977-1.1747 2.8584-1.433 4.3791l1.5914 3e-3h-1.5914c-0.2168 1.287-0.27677 2.6185-0.18143 3.9962z" stroke-width="1.5376"/><path d="m332.92 159.37h-4.9403v9.8591c2.7877-2.5832 6.3318-3.8717 10.629-3.8717-0.84875-0.63349-2.7446-2.6339-5.6891-5.9874z" stroke-width="1.5376"/><path d="m339.96 171.67h0.61812c-0.13531-0.16299-0.2491-0.33366-0.34904-0.51048-0.0861 0.17836-0.17682 0.34903-0.26908 0.51048z" stroke-width="1.5376"/><path d="m332.81 159.25c-1.9374-2.148-3.5457-3.2197-4.8342-3.2197v3.352l4.9403-0.0108c-0.0338-0.04-0.0692-0.0799-0.10609-0.12147z" stroke-width="1.5376"/><polygon transform="matrix(1.5376 0 0 1.5376 0 .0014882)" points="209.33 101.47 210.38 102.73 213.31 99.794 212.05 98.749"/><polygon transform="matrix(1.5376 0 0 1.5376 0 .0014882)" points="222.32 103.65 222.32 100.21 220.44 100.21 220.44 103.65 220.44 104.4 222.32 104.4"/><path d="m440.45 114.78c1.2316 0.0615 2.271 0.22141 3.1136 0.47819l-0.53816-0.47819z" stroke-width="1.5376"/><path d="m734.31 113.49 1.9404-2.2572c0.44129-0.51817 0.80724-1.0225 1.0994-1.5145l-0.13839-0.41669c-0.42591 0.85952-1.3961 2.2557-2.9014 4.1884z" stroke-width="1.5376"/><polygon transform="matrix(1.5376 0 0 1.5376 0 .0014882)" points="510.26 85.126 511.1 85.964 513.4 83.658 512.36 82.82"/><polygon transform="matrix(1.5376 0 0 1.5376 0 .0014882)" points="253.54 70.247 251.45 70.247 252.08 79.885 253.96 79.885"/><polygon transform="matrix(1.5376 0 0 1.5376 0 .0014882)" points="249.35 63.653 250.82 66.474 252.29 66.474 250.99 63.653 249.77 61.024 248.31 61.655"/><polygon transform="matrix(1.5376 0 0 1.5376 0 .0014882)" points="290.01 62.073 288.33 62.7 288.85 63.653 289.8 65.425 291.27 65.425 290.6 63.653"/><polygon transform="matrix(1.5376 0 0 1.5376 0 .0014882)" points="248.1 72.972 247.47 74.647 250.4 76.114 251.03 74.439"/><rect x="400.48" y="113.17" width="2.9015" height="8.057" stroke-width="1.5376"/><polygon transform="matrix(1.5376 0 0 1.5376 0 .0014882)" points="328.57 87.64 327.52 88.688 330.25 91.413 331.29 90.364"/><path d="m446.24 118.97c0.30906-1.8374-0.58582-3.0737-2.6816-3.7118l2.3633 2.0988c0 1.0748 0.10763 1.613 0.31828 1.613z" stroke-width="1.5376"/><path d="m369.52 85.57c-4.4375 2.7154-7.3251 4.0731-8.6582 4.0731 0.86105 0 2.1465 0.2168 3.8686 0.64426 1.7175 0.2168 3.006 0.32443 3.8655 0.32443 1.7206 0 3.1167-1.1809 4.19-3.5457l0.74728-1.4945 0.86413-1.7267 1.9005 1.7267h4.2315c2.9999-2.0235 4.499-4.3191 4.499-6.8854-1.9343 2.7923-4.0808 4.19-6.441 4.19-1.2885 0-2.9014-0.64426-4.8327-1.9328 0.42592-0.86106 0.64272-2.0404 0.64272-3.5457l-6e-3 -0.37364c-2.5739 2.5155-3.8624 4.1423-3.8624 4.8834 1.0748 0 2.1465 0.32443 3.2259 0.96869-1.5391 1.0087-2.9491 1.9051-4.2284 2.6923h-6e-3z" stroke-width="1.5376"/><polygon transform="matrix(1.5376 0 0 1.5376 0 .0014882)" points="283.51 59.138 280.58 56.413 279.53 57.674 282.26 60.397"/><path d="m380.53 85.574h-4.2315l1.6437 1.4945c0.95946-0.48127 1.822-0.97945 2.5878-1.4945z" stroke-width="1.5376"/><path d="m499.74 174.72c-0.8626 0-2.0419 0.53508-3.5472 1.6068-1.2885 1.0763-2.3602 1.6129-3.2197 1.6129-2.3664 0-4.9434-1.3961-7.7357-4.19 0.34596-0.70883 0.67193-1.3931 0.99022-2.0635h2e-3c2.6093-5.5138 4.3099-9.6162 5.0925-12.304h-3.8256l-0.32444 1.1563h-2.9014l0.27677-1.1563-7.0391 6e-3c3.9286 3.1628 6.2919 4.9434 7.0868 5.3401v8.0586c-0.19835-0.34442-0.43514-0.70883-0.72114-1.104h-8e-3c-2.1388-2.9076-6.7332-7.0007-13.792-12.301h-0.0108c-0.2045-0.15069-0.40747-0.30291-0.6135-0.45667 0.0984 0.15068 0.19527 0.29983 0.2906 0.45667h6e-3c3.495 5.417 6.3026 9.5162 8.4153 12.301h2e-3c1.5484 2.0419 2.7246 3.3735 3.5303 3.9993-3.8655 0.43361-6.9822 0-9.3424-1.2885-0.2168 0.21833-0.32444 0.53662-0.32444 0.96868 0 0.8626 0.8626 2.148 2.577 3.8655-0.64272-0.21219-2.0389-1.5053-4.19-3.8655-1.7144-1.7206-3.435-2.5755-5.154-2.5755-0.85952 0-1.5053 0.64426-1.9312 1.9328-0.43207 1.0702-1.1855 1.6068-2.2587 1.6068-3.2951 0-5.3847-1.5438-6.2734-4.6436h-2e-3c-0.32597-1.1394-0.48742-2.4924-0.48742-4.0546 0-1.0717 0.53509-2.6846 1.6068-4.8342 1.0748-2.3648 1.613-2.7923 1.613-1.2885 3.2197 4.2976 5.1571 7.5189 5.8014 9.6654 0-3.3474-1.2316-7.2728-3.6872-11.79h-6e-3c-0.53663-0.98407-1.1317-1.9943-1.7836-3.0337 2.577-1.5053 6.2288-2.2572 10.955-2.2572 1.5053 0 4.0808 1.5053 7.7326 4.5144 0.33366 0.26908 0.65502 0.53047 0.96715 0.77649h7.0391l1.6606-6.8977h3.2197l-1.9312 6.8977 3.8256-3e-3c0.0154-0.0446 0.0277-0.0876 0.0384-0.12915l0.14453 0.13223 3.3996 3.089c0-0.79187 0.35364-1.8205 1.0563-3.086h2e-3c0.24601-0.44436 0.54123-0.91948 0.87643-1.4238-1.2885 0-2.6846-0.86106-4.19-2.577-1.5022-1.9374-2.2526-3.5442-2.2526-4.8327 0-0.93332 0.10148-2.0911 0.30291-3.4719h-0.0261 0.0261c0.26447-1.7959 0.69653-3.9701 1.3039-6.5194 1.0778-4.5144 1.6129-7.9509 1.6129-10.311-1.0717-0.2168-2.1465-0.32443-3.2197-0.32443-0.64271 0-2.3664 0.32443-5.1586 0.96869-1.8682 0.43206-2.7754 0.71806-2.7185 0.85951 0.26139 0.0707 0.52278 0.10456 0.78725 0.10456-0.49818 0-0.75957-0.0338-0.78725-0.10456-1.4561-0.38747-2.9138-1.8528-4.3699-4.4037 0.85952-0.42745 1.3961-0.42745 1.6129 0 0.42592 0.64425 1.3961 0.96869 2.9014 0.96869 1.0686 0 2.2557-1.2931 3.5442-3.8686 1.2885-2.7923 2.2526-4.4052 2.9014-4.8358 2.145 1.0779 3.5411 1.6129 4.1838 1.6129v-43.176c0.64887-0.42745 1.2947-0.64426 1.9374-0.64426 0.64579 0 1.1809 0.2168 1.6099 0.64426-0.85029-1.6975-1.6329-3.292-2.3541-4.7727l-0.61197-0.0092h0.61197c-4.0147-8.3092-6.0243-13.373-6.0243-15.196 0-2.148 0.96715-5.0495 2.9014-8.7028 0.98561 1.576 1.5192 2.7 1.6006 3.372-0.0984-1.3838-0.39978-2.7385-0.89796-4.067h-3e-3c-0.79955-2.1019-2.1034-4.1269-3.9224-6.072-5.7983-6.2288-8.9135-9.6654-9.3455-10.31 0 1.0717-0.42591 2.2572-1.2885 3.5457-0.21065-7.7341-9.8837-15.685-28.998-23.847-16.757-7.0899-29.968-10.636-39.635-10.636-10.311 0-25.346 1.2931-45.112 3.8701 0 2.577-0.42899 4.19-1.2885 4.8342-0.43206-0.4336-0.32443-1.1809 0.31829-2.2572 0.2168-0.86106-0.42592-1.2885-1.9312-1.2885-2.7923 0-9.2394 2.6846-19.334 8.0539-8.1631 4.2976-14.5 8.057-19.012 11.278 0 0.2168 0.32444 1.2885 0.96869 3.2213 0.2168 1.5053 0 2.5816-0.64425 3.2259-5.1571-0.2168-8.1631 0.10763-9.0211 0.96408-5.0864 4.6774-9.6346 9.8207-13.643 15.418h7.2021l3.8655-4.459c0.57352 1.9128 1.3131 3.3966 2.228 4.459h2e-3c0.11224 0.13223 0.22603 0.25524 0.3475 0.37518h-6.7654l0.32443-0.37518-7.2021 0.01076c-5.2832 7.3897-9.6346 15.587-13.051 24.591-1.4961 3.9393-2.8138 8.037-3.9516 12.295h-2e-3c-1.0609 3.9685-1.9681 8.0724-2.72 12.307l0.0231 0.0031h-0.0231c-1.8113 10.219-2.7185 21.225-2.7185 33.014 0 3.8502 0.14454 7.6696 0.42899 11.463-0.9364-1.3654-1.9404-2.7154-3.0106-4.0531-7.7341-9.2394-17.828-16.648-30.288-22.234 8.9458-5.3155 16.048-11.378 21.305-18.191h2e-3c2.9753-3.8563 5.3601-7.9525 7.1529-12.295h3e-3c1.6176-3.9086 2.7538-8.014 3.4089-12.308l-0.0538-0.0031h0.0538c0.44898-2.9368 0.67347-5.9628 0.67347-9.0795 0-5.5292-0.53355-10.705-1.5991-15.519l-0.30905-0.0077h0.30905c-3.4492-15.6-12.476-27.505-27.081-35.708-16.542-9.2394-36.735-13.537-60.578-12.893l-31.578 0.96869c-28.146 0.86106-43.074 1.29-44.796 1.29 0 2.577-0.31828 4.19-0.96408 4.8342-0.85951-0.64425-1.2916-2.2572-1.2916-4.8342h-44.463v46.351l0.01538 0.0015h-0.01538v98.405l0.03229 3e-3h-0.03229v73.802l0.06919 2e-3h-0.06919v36.639s141.46-1.6083 156.28-1.6083c9.67 0 21.162-4.5128 34.482-13.535 10.428-7.2298 17.828-14.397 22.2-21.497 1.2101-1.9666 2.1895-3.9316 2.9353-5.889-2.2956-1.4146-3.6472-3.5519-4.0562-6.4118-0.0892-0.62119-0.13223-1.2762-0.13223-1.9666 0-2.3648 0.53508-5.1571 1.6068-8.3768l2.5816 2.8999c-0.64425 1.2885-0.75189 3.2213-0.32443 5.7983 0.11839 0.59659 0.22602 1.147 0.32289 1.6468l1.7114-3e-3c1.3623-5.3493 2.3541-9.4439 2.9783-12.29h2e-3c0.52586-2.391 0.78725-3.8901 0.78725-4.4975 0-2.9414-0.40746-5.5477-1.2224-7.811l-0.0953-8e-3h0.0953c-0.91026-2.5386-2.3295-4.6558-4.2545-6.358 0.42745-0.64887 0.96407-0.96869 1.6083-0.96869 0.84875 0 1.8021 0.52278 2.8569 1.5699 0.61965 1.8467 1.2793 3.6872 1.9743 5.52 0.0323 0.0846 0.063 0.16914 0.0953 0.24294l0.5889 0.0108h-0.5889c1.6422 4.3883 3.4242 8.4891 5.3432 12.29l0.56584 6e-3h-0.56584c2.2741 4.5098 4.7389 8.6121 7.3989 12.295l0.27677 0.0108h-0.27677c3.4442 4.7819 7.2113 8.8812 11.304 12.29l0.39977 9e-3h-0.39977c2.2726 1.8943 4.6436 3.5811 7.1145 5.0572 0-1.0717 0.32443-2.2587 0.96869-3.5472 1.0717 5.3693 3.4365 9.8837 7.0853 13.537l8.7028 8.6982c0-2.3648 0.53508-4.0808 1.6129-5.1571 0.42591 0.64886 3.9732 2.9014 10.629 6.77 6.8746 3.6487 10.743 5.4769 11.604 5.4769 0.85491 0 1.2885-0.2168 1.2885-0.64425 0-0.21834-0.2168-0.53663-0.64425-0.96869-0.2168-0.64426-0.32443-1.0717-0.32443-1.2885 0.2168-0.42745 0.64425-0.64426 1.2885-0.64426 0.86106 0 6.0182 2.9015 15.47 8.6967l3.5442-3.5396c0.42591 0.42592 0.31828 1.1793-0.32444 2.251-0.21219 0.86106 0.43207 1.2885 1.9312 1.2885 5.5861 0 9.0242-1.716 10.316-5.1525 2.1496 3.435 4.0808 5.1525 5.7983 5.1525 1.5053 0 2.2572-0.64425 2.2572-1.9328 0-1.0717 0.75189-1.6068 2.2572-1.6068 0.86259 0 1.5053 0.31829 1.9312 0.96254 0.429 0.43207 1.1809 0.64426 2.2587 0.64426 9.2348 0 15.788-0.42746 19.652-1.2885l28.361-9.3409c-0.43514-0.64887-0.6458-1.3961-0.6458-2.2572 0-0.86105 0.31829-2.3648 0.96408-4.5144 0.85952-2.148 1.2885-3.7564 1.2885-4.8342 0-1.2885-0.85644-3.2213-2.577-5.7983-1.7206-2.5801-2.577-4.0839-2.577-4.5144 0.85645 0 1.8267 0.32597 2.9014 0.97023 1.0717 0.42745 1.7144 0.64425 1.9343 0.64425 0-1.0994 0.17374-2.1373 0.52432-3.1259h2e-3c0.47205-1.3193 1.2639-2.534 2.3725-3.6441 2.577 1.5053 4.619 2.4725 6.1227 2.9014 0 0.22603-9e-3 0.46897-0.0246 0.7319-0.0984 1.6898-0.52278 4.0224-1.2639 7.0022-0.85645 3.2028-1.2885 5.6553-1.2947 7.3743 9e-3 -1.7006 0.54892-3.086 1.6129-4.1484 0.2168 0.21219 0.75342 1.1809 1.6129 2.8968 0.8626 1.5053 1.6129 2.2572 2.2587 2.2572 5.6737-3.784 11.045-8.9104 16.106-15.373h3e-3c0.10763-0.13838 0.2168-0.27677 0.32443-0.41515 3.2366-4.1961 5.6368-8.1616 7.2021-11.889 1.2378-2.9522 1.9497-5.7552 2.1388-8.4122h6.7716c0.77802-1.2885 1.5207-2.5801 2.2295-3.8855h2e-3c2.1926-4.0239 4.0546-8.1262 5.583-12.302 1.1148-3.0475 2.0542-6.1366 2.8138-9.2656zm-8.054-59.613h-6.4472v-2.9014h6.4472zm-8.0616-40.603h8.0601v2.9015h-8.0601zm-242.86-25.829 6.6732 7.7833-2.577 1.6129-8.054-9.3963-3.5503-4.1377 2.5832-1.6099zm-8.4722-10.903 2.2526 5.1571h-2.577l-2.2557-4.1884zm-9.6638-11.28 6.4395 4.19-1.6068 2.577-6.4441-4.19zm-95.382-19.009h2.9014v4.8342h-2.9014zm4.5082 90.396v-24.602h-9e-3 9e-3v-20.682h59.936c6.0136 0 10.955 3.6487 14.826 10.955 1.8605 3.578 3.1029 6.8239 3.7225 9.7269h0.12454l-0.12454 0.0077c0.31059 1.4561 0.46589 2.8307 0.46589 4.1208 0 2.7677-0.52278 5.4908-1.5699 8.1708-1.2285 3.1398-3.1767 6.215-5.8429 9.2302-1.004 1.1378-2.0342 2.1557-3.0967 3.0629h-0.0108c-3.9347 3.3274-8.2677 4.9895-13 4.9895l-55.429-0.31982v-4.6605h-5.0433zm-15.464-7.585h3.2213v4.8327h-3.2213zm-1.6129-2.2526v-4.8342h2.9014v4.8342zm1.6129-9.0226v-6.4456h3.2213v6.4456zm0.31982-9.0226-5.4769-13.211 2.577-0.96869 5.7998 14.18zm-3.864-14.504v-20.942h3.2197v20.942zm5.4769-30.288c0 1.0717-0.32443 2.577-0.96869 4.5144-0.42591 1.9328-0.64425 3.4365-0.64425 4.5098-1.9328-1.2885-3.5457-1.9328-4.8342-1.9328 0-0.43206 0.97023-1.6129 2.9015-3.5457 2.1511-1.9328 3.3289-3.1183 3.5457-3.5457zm-9.0226-8.6982h2.9015v4.8327h-2.9015zm-11.598 10.954c1.4992-4.725 2.2526-11.171 2.2526-19.332 0 0.42745 0.43207 0.64425 1.2916 0.64425 1.0717-0.2168 1.7175-0.2168 1.9343 0 0.85951 0.21219 1.2885 0.96254 1.2885 2.251v17.725c-7.0899 0-11.28-0.42745-12.568-1.2885zm4.8311 222.01h-19.331v-3.2213h19.331zm11.601-82.169h-3.2228v-6.7654h3.2228zm-0.32444-14.501c1.2916-2.148 1.9374-3.7548 1.9374-4.8342 2.7907 2.1496 5.0433 3.761 6.7639 4.8342zm106.72 31.179h0.0507l-0.0507 3e-3c-1.3162 4.9695-4.0762 9.0718-8.2784 12.298v9e-3c-7.8294 6.0243-20.664 9.0365-38.512 9.0365-1.7144 0-7.0883-1.5053-16.113-4.5144-6.4395-2.1465-9.6669-3.5442-9.6669-4.19 0-0.13531 0.22141-0.22757 0.66116-0.27677-1.6652 0.15991-2.3126 0.79186-1.9497 1.8897l0.32597 1.6129c-1.1701-1.3116-2.2756-2.4971-3.3135-3.5688h-6e-3c-2.1988-2.2557-4.0992-3.9655-5.703-5.134-1.7206 1.9328-2.6846 3.3289-2.9014 4.19 1.0886 0 2.1296 0.31829 3.1182 0.94409l3.6595 3e-3 -3.6595 9e-3c1.942 1.2485 3.6949 3.7241 5.2601 7.4205 3.6487-1.5053 6.8746-2.577 9.6669-3.2197-0.86259 0.8549-1.1809 1.7144-0.97022 2.577 0.2168 1.0702 0.86259 1.613 1.9343 1.613h-26.096c1.1224-2.4217 2.0189-5.2248 2.6923-8.403h-0.17375l0.17375-9e-3c0.75957-3.6072 1.2301-7.7018 1.4115-12.288 0.0569-1.4315 0.0846-2.9107 0.0846-4.436 0-2.9245-0.10148-5.5461-0.30905-7.8679-0.55354-6.1981-1.8467-10.233-3.8778-12.109 0.0415-0.063 0.083-0.12608 0.12455-0.18912h2e-3c2.923-4.4268 4.3883-8.017 4.3883-10.769 0-0.49204-0.0323-0.99944-0.0953-1.5345h-3e-3c-0.1-0.84414-0.286-1.7298-0.552-2.6554h59.936c4.313 0 8.2569 0.88258 11.829 2.6554h0.0123c3.3643 1.6637 6.3964 4.1085 9.1057 7.3359 1.4346 1.5945 2.6908 3.2474 3.7717 4.9649h3e-3c2.3971 3.8071 3.9193 7.9048 4.5651 12.301 0.23679 1.6176 0.35673 3.272 0.35673 4.9664-2e-3 2.6293-0.30137 5.0756-0.90104 7.3359zm-93.188-32.788v-8.3768h2.9014v8.3768zm-16.113-14.824c-0.8626 1.0717-1.1809 2.4678-0.96408 4.19 0.19835 1.5038 0.35211 2.5632 0.45974 3.1767l0.18298 0.36748c0 0.45821-0.06 0.3352-0.18298-0.36748-2.2803-4.5405-4.153-7.9648-5.6184-10.268-1.5053 2.148-2.577 3.8701-3.2197 5.1571-4.0869-1.2885-10.852-1.9374-20.301-1.9374v-88.015h-0.01538 0.01538v-21.539l4.8327 2.2572c-0.14761 6.7547-0.1676 13.182-0.06458 19.283l0.0246 0.0015h-0.0246c0.15222 8.8904 0.57045 17.089 1.2531 24.6h0.0015c0.21988 2.414 0.46743 4.7573 0.74112 7.0284-0.46282 1.8128-0.88258 3.5642-1.2624 5.2663-1.0148 4.5252-1.7329 8.6305-2.1526 12.307h0.09841l-0.09841 0.0123c-0.2983 2.6201-0.44744 5.0295-0.44744 7.2252v26.743c6.8731 1.7206 12.024 2.7923 15.464 3.2259 2.3633-0.86106 3.5442-4.0808 3.5442-9.6669 0-3.8686-0.64272-9.6654-1.9312-17.399-0.52278-3.864-0.91641-7.2436-1.1855-10.139l-0.0369-0.0031h0.0369c-0.28445-3.066-0.42591-5.5953-0.42591-7.5834 0.56122 2.6524 1.1071 5.1786 1.6314 7.5865h2e-3c2.2833 10.45 4.21 18.553 5.7829 24.313 0.85645 6.2304 2.1465 10.419 3.8655 12.568 0.67501 0.36441-5e-3 1.6099-5e-3 1.6099zm144.36 1.2885h-4.8342v-3.2213h4.8342zm209.77 48.013c0 2.3648-0.96715 4.2976-2.9014 5.8014 0.42899-0.86106 0.42899-1.7206 0-2.5816-0.42592-1.0717-1.0717-1.6083-1.9312-1.6083 3.2197 2e-3 4.8327-0.5397 4.8327-1.6114zm17.403-52.521 2.2557 1.2885-3.2259 4.5098-2.2557-1.6083zm-2.5755-0.64425c-0.2168 0.21218-1.0779 0.64425-2.5832 1.2885-1.5053 0.64426-2.2557 1.1809-2.2557 1.6083 0 0.20758 0.0984 0.41516 0.29676 0.61658l-12.541-12.535h8.054c0 0.64271-0.32136 1.4992-0.96407 2.577-0.42899 1.0702-0.6458 1.9312-0.6458 2.5755 1.0717 0.64426 2.7923 1.2885 5.154 1.9328 2.5832 0.64271 4.4052 1.287 5.4846 1.9358zm-13.539-17.401v-2.9014h4.5113v2.9014zm14.826-2.8999v2.9014h-8.0601v-2.9014zm-5.4769-63.532v-2.208h2.8953v4.5144h-2.8953zm1.9312 27.442v3.2213h-11.28v-3.2213zm-84.101-54.133c3.0091-0.64579 4.5082-2.9015 4.5082-6.7716 0-1.0717-0.10302-2.1434-0.31982-3.2197h5.7968c1.2947-0.2168 2.5832-0.31982 3.8717-0.31982 10.526 0 15.788 4.293 15.788 12.887v6.1212h48.015c-18.688 1.0763-30.721 2.0404-36.092 2.9015 3.2351 6.4718 6.0028 11.5 8.3 15.093h6e-3c1.5161 2.3633 2.8276 4.0992 3.9378 5.2079-2.7923 1.9328-4.8327 3.3289-6.1196 4.19-1.5099-4.8342-2.8076-7.9678-3.8917-9.3963l-5.3724 0.0123c-0.80416 0.23987-1.37 0.36287-1.6914 0.36287 0.1307-0.12301 0.25832-0.24602 0.38594-0.37056h5e-3c2.9614-2.8599 4.4421-5.4216 4.4421-7.6895 0-5.7968-1.0717-8.6967-3.2197-8.6967-3.0091 0-7.625 0.86106-13.857 2.577-6.0182 1.7206-10.526 2.577-13.535 2.577-4.0808 0-9.7745-4.8342-17.077-14.501 1.9297-0.21373 3.9685-0.53816 6.1196-0.96408zm37.05 28.673-4.5082 4.5144-1.6129-1.9328 4.19-4.1884zm-69.595-30.286c0-0.64579 1.2885 3.7594 3.8655 13.211-1.7175 0-3.6549-0.96869-5.7983-2.9015-2.7923 1.9328-5.1571 3.1167-7.0899 3.5457 3.4365-5.1586 6.4395-9.7761 9.0226-13.855zm9.0211 28.679v2.8999h-6.4441v-2.8999zm-25.458-9.3486h8.3768c-5.2401 4.0331-9.5331 7.0207-12.882 8.9734v0.0015c-0.22141 0.12916-0.43668 0.2537-0.64887 0.37364 0.13531-0.12916 0.26908-0.25524 0.39978-0.37517h-0.11378l0.11378-0.0077c3.1705-3.0875 4.7543-6.0751 4.7543-8.9657zm-19.654 21.915h2.9014v4.8342h-2.9014zm5.151 25.455v10.311c-1.9312-1.5053-3.435-2.3602-4.5082-2.577 2.7938-3.0091 4.2991-5.5861 4.5082-7.7341zm-0.31829-27.391c0 0.64426 0.64272 1.8282 1.9312 3.5457 1.2885-0.64579 2.9014-2.9015 4.8358-6.7654 1.2885 1.2885 3.3274 1.9328 6.1196 1.9328 0 2.7923-1.1809 4.5144-3.5442 5.1571-2.3602 0.42592-3.5472 1.3961-3.5472 2.9015-1.2885 0-2.577-0.75342-3.8655-2.2572-1.287-1.7236-1.9297-3.2228-1.9297-4.5144zm5.7968-9.0242 1.9374-1.6068 7.4112 7.7326-1.6129 1.6083zm1.613-16.431h2.9014l-1.9312 8.0524h-2.9014zm-12.242 1.6129c1.0717-2.148 1.716-3.5457 1.9328-4.19v5.4769c-0.64426 0-1.8251-0.32597-3.5457-0.96869-1.7206-0.85644-2.9014-1.2885-3.5457-1.2885 2.7938 0.0015 4.5144 0.32597 5.1586 0.97023zm-7.8126 12.836 1.3669-2.8507 2.577 0.96869-0.90411 1.8836-2.9614 6.1719-2.577-0.96408zm-16.571 36.902c2.1434 2.2849 5.1156 3.4273 8.915 3.4273 1.2885 0 3.3274-0.42745 6.1196-1.2885 0.71806-0.25524 1.39-0.47973 2.0219-0.67501 1.2116-1.1132 2.7938-1.4254 4.7435-0.9364-1.1409 0-2.7231 0.31367-4.7435 0.9364-0.38901 0.35672-0.73958 0.79801-1.0532 1.3193-2.3664 3.2213-4.5144 5.3678-6.4472 6.4456 0.64579 0.42592 1.6129 0.64272 2.9014 0.64272s2.9014-0.2168 4.8358-0.64272c2.1465-0.43207 3.6518-0.43207 4.5082 0l-12.288 3.0721-4.4621 1.1178c-0.15376-0.15376-0.36595-0.52125-0.63964-1.1178h-3e-3c-0.87797-1.8805-2.3694-5.9843-4.4775-12.301v-0.0077c-0.0123-0.0369-0.0261-0.07381-0.0369-0.11071 0.0338 0.03998 0.0707 0.07842 0.10609 0.1184zm22.126 18.57-6.1196 4.19-1.6129-2.2526 6.1196-4.19zm-17.075-4.1884-2.2587 4.5144-2.2557-0.96868 2.2557-4.5082zm-15.794-2.0804v-1.1409h9.9913v3.2213h-9.9913zm-8.0524 36.238-0.64425-2.577 14.5-9.0226 0.97022 2.2587zm22.552 40.922-5.7968-1.9312v-2.577l3.4611 1.1532 3.3043 1.104zm-13.027-27.957h0.0554l-0.0554 3e-3c-1.4899 0.47512-3.0537 0.98561-4.6928 1.5314 0-0.55199 0.0723-1.0548 0.2168-1.5222h3e-3c0.70575-2.208 3.1013-3.312 7.1898-3.312 2.148 0 4.2976-1.1809 6.4456-3.5442l6.4456 2.5816c-3.6933 0.69961-8.895 2.125-15.608 4.2622zm14.965-38.42 2.251-4.5144 2.2587 0.96869-2.2587 4.5098zm14.174 32.219c-1.2885-2.5755-4.725-5.4769-10.311-8.6967h8.0539c0.43207 0.86106 1.5053 2.3648 3.2259 4.5098 0.86106-0.64425 2.4678-0.85644 4.8342-0.64425 2.148 0.2168 3.6533 0.75189 4.5098 1.6129-1.5053 1.5053-4.4006 2.2572-8.6982 2.2572 0 3.4365 0.53662 5.6922 1.6129 6.7639-2.7923-0.64272-7.3051-1.9312-13.537-3.864 4.725 0.21219 8.1616-0.4336 10.31-1.9389zm-9.9867 0v-2.8953h4.5113v2.8953zm8.3784 61.868c-0.64887 2.148-1.6129 3.5457-2.9014 4.19v-9.9852c1.9343 1.5053 3.4365 2.251 4.5098 2.251-0.21526 0.21526-0.75188 1.3961-1.6083 3.5442zm10.311 1.6129c3.0045 0 5.5846-1.0702 7.7341-3.2213-0.8626 0.85644-1.0779 1.9343-0.64887 3.2213 0.64887 1.2885 1.3961 1.9328 2.2557 1.9328-3.6503 0-6.7654-0.64425-9.3409-1.9328zm19.334 33.189h-2.9014v-13.857h2.9014zm0.7688-28.958h-0.69038c-0.11994 0.28753-0.25524 0.59659-0.40285 0.92717-0.85645 1.9328-1.2885 3.1121-1.2885 3.5457v-6.1258l-4.8327-0.96254h7.4082c0 0.35365-0.29368 1.2255-0.88566 2.6093zm7.2852 24.449-2.2572-1.2885 1.9374-4.1884 2.577 0.96254zm7.4143 5.7968c-1.2947 0-2.5816-0.75189-3.8701-2.2526 2.7907 0 4.1884-2.6846 4.1884-8.0586 0 2.3648 0.86259 5.2663 2.577 8.7028-1.0717 1.0717-2.0389 1.6083-2.8953 1.6083zm3.5411-13.213h-3.2228v-4.479l3.2228-0.0169zm5.1556 10.316h-3.2197v-6.4456h3.2197zm0-10.316h-3.2197v-4.5067l0.29368-2e-3h2.9245v4.5082zm5.1586 1.6129h-3.2259v-6.1196h3.2259zm8.3768 10.636c0.20912-2.74-0.19835-4.1361-1.2316-4.1884 0.43206 0.02 1.0579 0.23525 1.8774 0.64272 1.0717 0.2168 1.7144 0.31982 1.9312 0.31982l4.8358-3.5411c1.287 2.145 1.9312 3.7564 1.9312 4.8342-3.6533 0-6.767 0.64425-9.344 1.9328zm-2.2556-9.9913 0.64271-2.5755 4.5113 2.2572-0.96407 2.251zm16.113 4.5144h-2.9015v-4.5144h2.9015zm5.7798-28.693c0.65502-0.0538-2.2403-0.26447-8.6813-0.63042-4.0808-0.21834-7.0899 0-9.0211 0.64272-0.21681-0.2168-0.32444-0.53509-0.32444-0.96869 0-0.42745 0.10763-0.96254 0.32444-1.6083 0.42591-0.85952 0.64271-1.3961 0.64271-1.6129 0-0.64272-0.43206-0.96715-1.2885-0.96715-1.0748 0-2.0388 0.32443-2.9014 0.96715-0.64271 0.42745-1.3961 0.64579-2.2557 0.64579-1.7144 0-4.845-1.2977-9.3932-3.8886h-3e-3c-2.8599-1.6299-6.2796-3.7687-10.262-6.4226-1.287 1.0717-1.9312 2.6846-1.9312 4.8342 0 0.53201 0.0415 1.0594 0.1307 1.5883h2e-3c0.40593 2.4417 1.759 4.8112 4.0577 7.1083h-6.4472c0.16145-2.7123 0.26293-5.0848 0.30291-7.1083h-0.34288l0.34288-6e-3c0.0707-3.4365-0.0308-5.8982-0.30291-7.3851-0.32135-1.7467-0.80109-3.3843-1.4361-4.9096h-0.62734l0.62734-6e-3c-1.473-3.5565-3.7871-6.5379-6.9423-8.9396-5.0741-0.58582-8.2907-1.7021-9.6392-3.355l-0.61812 3e-3c-1.739 3.0952-4.4406 4.6405-8.1078 4.6405-1.5053 0-2.4709-0.42745-2.9014-1.2885-0.21681-1.0717-1.1793-1.8236-2.8999-2.251-0.96407-0.27831-1.7052-0.64118-2.228-1.104h-9e-3c-0.28906-0.24909-0.50894-0.52894-0.66424-0.83492l-1.6083-3.2197-2.577 2.9014c0.23679 0.42284 0.45052 0.81185 0.6458 1.1532l2.4048 6e-3 -2.4048 6e-3c0.68884 1.2485 1.1194 2.0419 1.287 2.3802 0.42745 1.0702 0.10763 2.3587-0.96869 3.864-2.148-2.3587-5.2617-3.5457-9.3425-3.5457v-9.9852h6.7654c0-1.2931 0.14454-2.9691 0.42899-5.0249 0.143-1.0225 0.32136-2.1419 0.53509-3.3535 0.86105-3.8717 1.2931-6.7716 1.2931-8.7028 2.145 2.1465 4.19 3.2259 6.1212 3.2259 1.2885 0 3.1106-0.54277 5.4769-1.6129 2.0927-1.0486 3.761-1.6698 5.0064-1.859l-0.44437-6e-3h0.44437c0.28907-0.0446 0.552-0.0692 0.79648-0.0692 0.28138 0 0.54123 0.0246 0.77495 0.0753h0.0215c1.0102 0.20142 1.6068 0.81954 1.7806 1.859 0 1.9312 0.10763 3.1106 0.31828 3.5442v-33.512c0-8.2923 1.5806-15.319 4.742-21.088h3e-3c0.52279-0.95485 1.0902-1.8743 1.7021-2.76-2.3664-0.85644-6.2319-1.2885-11.601-1.2885 0-1.2162-0.57352-3.967-1.7221-8.2584h-2e-3c-0.0676-0.24909-0.13684-0.5028-0.20757-0.76265-1.0948-3.9993-1.7175-5.4293-1.8866-4.3545-0.0123 0.27369-0.0507 0.53201-0.0507 0.80878 0-0.36287 0.0215-0.61196 0.0507-0.80878 0.12301-2.66 0.82108-5.0649 2.1557-7.1806h3e-3c1.1655-1.8405 2.7923-3.475 4.8804-4.8988 0.46281 1.8467 1.3269 3.475 2.5939 4.8957h8e-3c1.0917 1.2132 2.4786 2.268 4.1654 3.1598h-5.4769c0 0.2168-0.32136 0.96869-0.96407 2.2572-0.43207 1.2885-0.6458 2.3648-0.6458 3.2213 0 1.2285 0.32444 2.4479 0.97331 3.6641h6e-3c1.6129 3.0029 5.2217 5.952 10.828 8.8458-0.19067 0.28907-0.62273 1.4377-1.2977 3.4473h-3e-3c-0.54893 1.6329-1.2562 3.8332-2.128 6.6009 2.3971-2.5048 4.4867-4.7066 6.2749-6.5932l-2.3233-0.0031 2.3233-0.0062c1.7406-1.8467 3.1905-3.4058 4.356-4.6758-1.5053-2.577-2.3602-4.6174-2.577-6.1212-3.2197 3.2213-5.1571 4.8342-5.8014 4.8342 0.41208-1.4315 1.4992-3.5426 3.2659-6.3272h-2.9814l2.9814-0.0015c0.0923-0.14453 0.18452-0.28907 0.27985-0.43668 1.9328-3.2259 3.1167-5.9105 3.5457-8.0586 1.0763 0.64426 2.148 0.96869 3.2197 0.96869 1.9389 0 4.19-0.75189 6.7716-2.2572 0.42591-0.42745 0.10763-1.1809-0.97023-2.2572l-3.5442 3.2259c-1.716-1.5053-3.1121-2.2572-4.19-2.2572 0.50587-0.4213 0.99637-0.83338 1.47-1.227l-7.9048-0.0031 7.9048-0.0031c3.1413-2.6524 5.5477-4.8219 7.2329-6.5025l3.8655 3.2259c0.64271-3.6518 3.1167-6.7685 7.4082-9.3455 4.5144-2.7923 8.7028-4.19 12.568-4.19 0.85951 0 1.3961 0.2168 1.6129 0.64425 0 0.2168-0.10763 0.53662-0.32444 0.96869-0.21372 0.42745-0.32135 0.75189-0.32135 0.96408 0 0.43206 0.53816 0.64425 1.6129 0.64425 1.5007 0 3.7564-0.21219 6.7654-0.64425 3.0091-0.64426 5.2601-0.96408 6.7639-0.96408 1.7206 0 2.6846 0.31982 2.9014 0.96408 0.42899 1.5053 0.75343 2.3648 0.97023 2.5816l1.2885-1.6129c1.0717-1.2885 2.2526-1.9328 3.5442-1.9328 1.0717 0 6.6578 3.7564 16.752 11.274 2.0158 1.4561 3.8471 2.7692 5.5015 3.9316h0.14761l-0.14761 0.0031c6.6455 4.6851 10.397 7.0253 11.255 7.0253 0.43207 0 1.5053-0.43206 3.2259-1.2885 1.9343-1.0763 2.9014-1.8282 2.9014-2.2572 0-0.28292-0.15376-0.46282-0.42746-0.55815 1.164 0.19835 2.4802 0.99944 3.9686 2.4909 0.64887 0 1.5053-0.53662 2.5801-1.6129 1.0717-1.2885 1.9343-1.9328 2.577-1.9328l3.8655 4.8342h-14.175c-0.2168 0.2168-0.32443 0.53662-0.32443 0.96869 0 1.0717 0.86259 2.3602 2.5832 3.8655-3.2259 0-5.8014-0.96408-7.7357-2.9015l-2.5801 2.9015c0.25831 0.25832 0.51971 0.5151 0.78725 0.76265l0.28907 0.0062h-0.28907c3.5949 3.4135 7.9678 6.3887 13.123 8.9335-3.661-1.7406-7.219-2.6108-10.685-2.6108l2.045 5.9736 1.8205 5.3047c1.7206 4.9418 3.9762 8.3784 6.7685 10.311-2.5832 3.435-3.8717 8.054-3.8717 13.855l-2.2557-2.5755c-1.5053-1.2885-3.0029-1.9389-4.5082-1.9389 5.7968 5.8014 8.6967 10.208 8.6967 13.213l-2.6724 11.034-2.9768 12.301-1.7606 7.2759c1.1747 1.3454 1.8897 3.0168 2.1465 5.0249 0.0723 0.55661 0.10763 1.1394 0.10763 1.7482 0 1.7144-0.32444 3.7548-0.96715 6.1196 0-1.0763-1.0717-2.7923-3.2228-5.1571-3.5672 3.5688-6.8485 6.7608-9.8376 9.5839h-6e-3c-2.7661 2.6062-5.2863 4.8911-7.5558 6.8531-2.2664 2.0604-4.4467 3.8717-6.5379 5.4446h-0.0123c-6.3503 4.7466-11.907 7.2252-16.666 7.4251zm46.416-22.866v2.9014h-4.8327v-2.9014zm-42.083 27.746-0.77187 5.1233h-3.2197l1.024-5.1233 0.26447-1.3223h2.9014zm4.8142 12.301-0.10764 0.23218-0.46281-0.23218-2.1142-1.0563 2.2587-4.19 2.577 0.64425zm2.474-6.2134-5.8014-2.2572v-2.577l6.7654 2.2572zm6.1212-0.96408c0-2.5386-0.41669-4.2453-1.2485-5.1233h-9e-3c-0.4336-0.45052-0.98406-0.67808-1.6422-0.67808 0.86259 0 5.4769-1.3961 13.857-4.19 1.2885 1.2885 1.9312 2.7923 1.9312 4.5098 0 0.11839-3e-3 0.23986-9e-3 0.35826h0.16145l-0.16145 5e-3c-0.0784 1.433-0.61197 3.1398-1.6037 5.1187zm14.819 6.1227-9.6669-1.9328v-2.9014l9.6669 1.9328zm1.6129 14.818 4.19-3.8655 1.9312 1.6129-4.5082 4.19zm11.28-6.7654-2.9015 8.3784-2.577-0.96408 2.9014-7.4143zm-4.5129-0.64426v-4.5082h2.9014v4.5082zm-5.4785-21.909c-1.5053-1.5053-3.4381-2.2557-5.7983-2.2557 1.2885-1.2885 1.9343-3.3304 1.9343-6.1212l3.2197 0.96254c1.5053 0.43361 2.577 0.32597 3.2228-0.31828l-0.20758-1.3131-0.7565-4.8096-2.9014 3.5457c-1.2885-0.43206-2.2587-0.64887-2.9014-0.64887-0.45974 0-0.75343 0.10917-0.88566 0.33059 0.91641-3.5349 3.2551-6.8654 7.0068-9.9975 2.5294 4.6943 4.6789 8.5537 6.4472 11.58h2e-3c0.33519 0.57352 0.65655 1.1178 0.96561 1.6314-4.9418 4.2976-8.0586 6.7716-9.3471 7.4143zm16.755-1.6129c0-1.1916-0.87336-3.6733-2.6308-7.4328l-5.028-2e-3 5.028-9e-3c-0.77495-1.6698-1.7236-3.5918-2.8446-5.7675h6.7624c-1.2885 0.2168-2.4678 0.86105-3.5442 1.9328 2.1465 2.148 4.4052 3.2259 6.7685 3.2259l-0.34596 0.61965zm6.1227 15.145-1.9343-4.19 2.2587-0.96408 2.2557 5.154zm11.923-10.311c-0.42591 0-1.3961-0.2168-2.9014-0.64425-1.5053-0.64426-2.6846-0.96869-3.5442-0.96869-0.85029 0-1.9036 0.55046-3.169 1.6468h3.106l0.063-0.0338 0.0215 0.0338 3.8471 5.7675-2.2557 1.6083-3.8655-6.1212 2.1895-1.2531-3.106 3e-3c-0.96715 0.84568-2.0604 2.0158-3.2736 3.5073-0.2045-0.90872-0.0507-2.0804 0.46282-3.5103l-0.04-2e-3h0.04c0.57352-1.6145 1.6037-3.558 3.0814-5.8352-0.4659-2.3187-0.0938-4.4698 1.1117-6.4595h3e-3c0.46896-0.77188 1.0625-1.5161 1.7836-2.2372-1.0717-1.5053-1.6099-2.7923-1.6099-3.8701 1.9343 0 4.19 1.2931 6.7654 3.8701 0 0.18605-0.87489 0.92717-2.6262 2.2295h-5e-3c-0.28292 0.20911-0.58582 0.43207-0.91333 0.67193-2.1496 1.5053-3.3304 2.3587-3.5472 2.5755 3.4381 0.8626 6.2319 1.1809 8.3784 0.97023v8.0509zm2.577-12.267v3.5688h-2.8953v-4.5129h2.8953zm6.1258 12.267c-1.0748-0.42745-2.2557-1.716-3.5442-3.864-1.2947-2.3664-2.0419-3.5472-2.2587-3.5472 3.0091 0 4.9434 0.42899 5.8014 1.2885v6.1227zm-1.3931-24.566c0.5643 2.6939 1.5653 6.2626 2.9999 10.711l-1.6068-1.6129c-1.2947-0.85645-2.6908-1.2885-4.19-1.2885-0.68116 0-1.2132 0.0323-1.5883 0.10148l-0.0246 2.474c0 0.64886-0.2168 0-0.64271-1.9328-0.13224-0.25831 0.0907-0.43975 0.66732-0.54277 0.0815-4.3114 0.39362-6.9223 0.94562-7.8372-0.0354-0.0277-0.0692-0.0538-0.0984-0.0769v-5e-3c-2.3156-1.8882-4.0039-3.149-5.0602-3.784 4.9434 0 7.628-0.10763 8.054-0.32444 0 1.0148 0.18144 2.3848 0.54431 4.1177zm16.214 15.219-5.7983-2.251v-2.2572l5.5676 1.5883 1.1978 0.34288z" stroke-width="1.5376"/><path d="m387.69 76.071c-1.2731-0.20296-2.0896-1.1301-2.454-2.7969-0.14453-0.65809-0.2168-1.43-0.2168-2.3187 0 0.68423-0.34596 1.453-1.0394 2.3141h-3e-3c-0.3967 0.49049-0.91026 1.0087-1.5345 1.5561 0.64271 0 1.6129 0.21219 2.9014 0.64425 0.95792 0.31675 1.7421 0.51817 2.3464 0.6012z" stroke-width="1.5376"/><path d="m374.82 73.273h-8e-3c-0.35364-0.54124-0.81646-1.0994-1.39-1.6729 0.15991 0.58429 0.29676 1.1424 0.41669 1.6729l0.0754 0.0015h-0.0754c0.32751 1.4438 0.50741 2.6954 0.54431 3.7517l1.2947-1.2393c-2e-3 -0.7934-0.28599-1.6283-0.85798-2.514z" stroke-width="1.5376"/><path d="m786.84 62.576c-1.2885 0-2.5801-0.96254-3.8686-2.8999-1.0717-2.148-1.8267-3.3289-2.2526-3.5457 2.145-2.3602 4.19-3.5411 6.1196-3.5411 3.2228 0 5.2617 0.53662 6.1196 1.6083v-5.5277l-19.737 0.0031c-0.0569 1.0071-0.24601 1.882-0.56429 2.6231-0.12301-0.74574-0.46282-1.6176-1.021-2.6262h-6e-3c-1.3654-2.4479-4.0316-5.6538-7.994-9.6162 0.43206 0 1.2885 0.2168 2.577 0.64272 1.2916 0.43206 2.3633 0.64579 3.2259 0.64579-1.5053-2.3602-3.3304-3.5472-5.4769-3.5472 0-1.2885 0.64271-2.6831 1.9312-4.1884 1.5053-1.716 2.9014-2.577 4.19-2.577s2.1496 0.32443 2.577 0.96869l1.2885 1.9328c0-0.86106-0.53509-2.148-1.6068-3.8701-1.0779-1.9328-1.6129-3.4365-1.6129-4.5098 0.2168 0 1.0717-0.42745 2.577-1.2885 1.7206-1.0763 3.2259-1.6129 4.5144-1.6129 1.9312 0 4.7235 1.5053 8.3784 4.5144 3.8655 2.7923 5.7968 5.0449 5.7968 6.7654 0 0.86106-1.0717 2.9015-3.2197 6.1212-1.9343 3.0091-2.9014 5.1571-2.9014 6.4441-2.1496-2.3633-3.7564-4.19-4.8358-5.4769-1.2885 0-1.9312 0.85491-1.9312 2.5755-0.43207 0-2.474-0.85952-6.1227-2.5755-0.2168 0.42745-0.32443 1.0702-0.32443 1.9328 0 0.85952 0.10763 1.9312 0.32443 3.2197 0.21681 1.3054 0.29676 2.4709 0.23987 3.495h19.737v-32.486l-0.96715 0.64272c-0.42591 0.42745-1.1809 0.64579-2.2526 0.64579-1.0748 0-2.2557-0.75342-3.5442-2.2587-1.2885-1.7144-2.2587-2.6846-2.9014-2.8953 2.3602-2.148 6.1196-4.0869 11.28-5.8014-2.7923 0-6.8808-0.10763-12.25-0.32443-5.3693-0.21219-9.4501-0.31982-12.244-0.31982-0.64272 0-1.0748 0.2168-1.2885 0.64425 0 0.2168 0.10763 0.53662 0.32136 0.96869 0.43206 0.21219 0.64271 0.42745 0.64271 0.64425 0 0.42745-0.42591 0.64425-1.2885 0.64425-3.435 0-8.589-0.43207-15.467-1.2885-6.8746-1.0763-12.027-1.6129-15.467-1.6129-2.7892 0-4.9403 3.1121-6.4441 9.3409 0.26447 13.177 0.45052 24.331 0.54893 33.464v0.0031c0.063 5.6107 0.0953 10.46 0.0953 14.547 0 4.0839-0.0308 7.4358-0.0907 10.051v0.0061c-0.10148 4.4114-0.28907 6.7516-0.55507 7.0222 0.90718 1.7698 1.7267 3.5303 2.4602 5.2724l0.0769 0.0061h-0.0769c1.7452 4.1638 2.9968 8.2615 3.7533 12.295h2e-3c0.58428 3.0967 0.87489 6.1535 0.87489 9.1702 0 0.84568-0.27677 1.736-0.83184 2.6739 1.2039 3.6641 1.9097 6.5348 2.1204 8.6044-0.64579 0.64579-1.7206 0.97023-3.2197 0.97023-1.5053-1.7206-2.7923-2.5816-3.8717-2.5816 4.9403 4.0792 8.4876 12.567 10.634 25.46 0.27677 1.7052 0.54124 3.3397 0.7934 4.9065h2e-3c0.77341 4.7773 1.4484 8.8735 2.0189 12.301h2e-3c1.1301 6.7424 1.8697 10.839 2.2141 12.301h2e-3c0.0461 0.20295 0.0892 0.35517 0.12147 0.45358l-9.9852 4.5144c2.3602 0 3.5442 0.86106 3.5442 2.577 0-1.2885 0.96408-2.9014 2.9014-4.8342 1.7175 0.86105 3.4381 1.2885 5.154 1.2885 0.86259 0 1.7206-0.10149 2.577-0.31982-0.64272-0.64272-1.0717-1.287-1.2885-1.9312 0-0.43207 0.53816-0.64425 1.6129-0.64425 0.42899 0.64425 2.3664 1.6068 5.8014 2.8953 3.6487 1.0763 6.012 1.6129 7.0837 1.6129 3.8717 0 7.8448-1.0702 11.926-3.2197 0-0.79493 9e-3 -1.593 0.0308-2.3925v-6e-3c0.10764-3.9393 0.47205-8.034 1.0948-12.287h2e-3c0.14761-1.0041 0.30906-2.0189 0.48588-3.0414-1.7206 0-4.0808-0.96407-7.0899-2.9014-2.7923-2.148-4.19-4.0808-4.19-5.7968 0-0.18605 0.0184-0.37671 0.0538-0.57045v-5e-3c0.25216-1.4131 1.4177-3.1536 3.4904-5.2263 0.2168 0.2168 0.32443 0.96868 0.32443 2.2572 0 1.287 0.64579 1.9328 1.9343 1.9328 0.85952 0 2.1465-0.42899 3.8655-1.2885 1.9312-1.0779 3.3274-1.613 4.19-1.613l6.787-45.259 1.8436-12.302 1.8467-12.299 1.1209-7.4712c-0.21373 0-1.0717-0.54277-2.577-1.6129-1.287-1.0763-2.5755-1.6145-3.8624-1.6145zm-27.392 5.1602h5.4769v2.577h-5.4769zm-13.4 30.14c-0.24294 2.188-0.71498 3.6318-1.4207 4.3345-1.9374 0-4.0839-1.1809-6.4441-3.5442 0.27984-0.23218 0.62272-0.48896 1.0317-0.78264h0.0138c1.4838-1.0225 3.8194-2.3741 7.0099-4.0531-2e-3 1.5545-0.0646 2.9015-0.19066 4.0454zm16.944-9.1948c0-1.5422 0.23064-2.5816 0.68731-3.1075h-0.0953l0.0953-0.01076c0.24294-0.28599 0.552-0.42745 0.92563-0.42745 0.21681 0.14453 0.42592 0.28907 0.63042 0.43822h0.0108c1.0071 0.71498 1.8666 1.4238 2.5816 2.1388-3.2228 0-4.8358 0.32443-4.8358 0.96869zm0.97023-15.794v-1.9328l3.2197-1.9312 0.64579 2.2557zm2.5755-15.787-1.9343-0.96869 3.2228-6.441 1.9312 0.64425zm4.5082 4.5129v-2.2572h5.1586v2.2572zm7.4143 68.954c-0.64272-2.577-2.2557-6.2288-4.8327-10.955 3.2197 0 5.9044-1.0717 8.054-3.2197 0 7.3005 0.10763 11.381 0.32443 12.242-1.0763 0.64425-2.2572 1.2885-3.5457 1.9328zm5.7998-34.158-9.3425-1.9312c3.6518 0 5.8014 0.2168 6.4441 0.64272 0.42899-0.42592 0.85644-1.0717 1.2885-1.9312 0.64579-1.0717 1.1809-1.8267 1.6099-2.2587zm2.2556-24.809v-2.2587l3.2259-1.6068 0.96407 1.9312z" stroke-width="1.5376"/><path d="m405.96 83.522c-1.2885-4.0808-3.1106-6.1212-5.4769-6.1212 1.5053 1.2885 2.2557 2.2572 2.2557 2.9015 0 0.64426-0.85952 1.0717-2.5755 1.2885-0.86106 0.2168-1.8282 0.42745-2.9014 0.64425-2.1465-4.5144-4.19-6.7654-6.1196-6.7654 2.3587 4.5098 4.19 7.8387 5.4769 9.9867 3.4365-1.7175 6.5486-2.3618 9.3409-1.9343z" stroke-width="1.5376"/><path d="m414.01 72.243c1.5022 0.43207 2.6846 0.2168 3.5472-0.64272 0.85644 1.0748 1.7144 1.6129 2.577 1.6129 0.42591 0 0.96407-0.32597 1.6068-0.97023l-9.9852-1.9312c-2e-3 0.85952 0.74882 1.5053 2.2541 1.9312z" stroke-width="1.5376"/><path d="m381.48 67.09c0-1.5038-0.53508-2.7923-1.6068-3.8686-3.2259 2.1465-5.8014 3.6518-7.7326 4.5144 1.9312 1.5053 4.19 2.2557 6.7624 2.2557 1.9343 0 2.7923-0.96715 2.577-2.9015z" stroke-width="1.5376"/><polygon transform="matrix(1.5376 0 0 1.5376 0 .0014882)" points="265.49 42.165 263.81 42.795 265.28 45.308 266.75 45.308"/><polygon transform="matrix(1.5376 0 0 1.5376 0 .0014882)" points="260.04 39.021 258.16 39.021 259.41 44.259 261.3 44.259"/><rect x="405" y="16.179" width="6.1196" height="2.9015" stroke-width="1.5376"/><path d="m432.14 48.671 5.3724-0.0061c-0.45974-0.60582-0.8795-0.90718-1.2608-0.90718-0.86259 0-1.9374 0.21065-3.2259 0.64272-0.32136 0.10917-0.61812 0.20143-0.88566 0.27062z" stroke-width="1.5376"/><rect x="789.4" y="9.7299" width="3.5442" height="2.5832" stroke-width="1.5376"/></g>
</svg>
