<svg id="a" version="1.0" viewBox="0 0 481.62 158.27" xmlns="http://www.w3.org/2000/svg">
 <link id="b" href="" rel="stylesheet" type="text/css"/>
 <style id="c" type="text/css"/>
 <path id="d" d="m10.156 18.474-1.197 0.2871v0.4328l1.197-0.28799zm0.23954-0.91187v-0.33608l-0.71845 0.28781 0.14408 0.3838zm-1.704 3.9604c-0.17344-0.41243-0.26044-0.80507-0.26044-1.1768 0-0.12823 0.03224-0.20766 0.09654-0.2408 0.03242 0 0.07871 0.01658 0.28708 0.09672 0.06358 0 0.09545-0.08014 0.09545-0.24026 0-0.22297-0.03188-0.55977-0.09545-1.0084-0.09582-0.4472-0.14354-0.78329-0.14354-1.007 0-0.25611 0.04772-0.39966 0.14354-0.43208 0.2237-0.06358 0.35139-0.11185 0.38381-0.14427l-0.23954-0.19254c-0.19181-0.15939-0.28781-0.33482-0.28781-0.52735 0-0.16012 0.55851-0.99185 1.6761-2.495 1.0859-1.5046 1.6292-2.3364 1.6292-2.4957 0-0.06484-0.0643-0.22442-0.19074-0.48035-0.16064-0.28782-0.27249-0.4328-0.43208-0.28782 0-0.19199 0.1277-0.41568 0.38327-0.67162 0-0.09672-0.08014-0.22441-0.23954-0.38452-0.19199-0.16012-0.28728-0.28782-0.28728-0.38434l0.71864-0.57509 0.14354 2.1597c0.16012 0 0.35139-0.12823 0.57436-0.38435 0 0.48035-0.14229 0.86416-0.43063 1.152l0.43063 0.38435c0.55545-0.55653 1.0363-1.2465 1.4423-2.072-0.25845 0.54519-0.38814 1.0758-0.38814 1.5916l1.6773-0.57562c0.73447-0.25664 1.246-0.59272 1.5325-1.0084 0.51095 0.38453 1.1977 0.57634 2.0599 0.57634l-0.38237 0.33608c-0.19199 0.22442-0.28852 0.44739-0.28852 0.67162 0.86289-0.86343 1.5172-1.2955 1.9639-1.2955l4.5519 1.1037c0.25557-0.22441 0.59038-0.33608 1.0064-0.33608 0.25414 0 0.55852 0.04826 0.90937 0.14409-0.15957 0-0.41425 0.15957-0.76635 0.4798 1.0223 1.0236 1.8362 1.8877 2.4437 2.5917 1.2357 1.3629 1.8737 2.5154 1.9138 3.4582-0.0078-0.09708-0.03945 0.33356-0.09348 1.293-0.0317 0.60749 0 1.0561-0.04826 1.3922-0.06358 0-0.14355-0.01584-0.239-0.04826-0.12823-0.0643-0.20766-0.09599-0.23936-0.09599-0.09599 0-0.14499 0.06412-0.14499 0.19181 0 0.16011 0.049 0.30384 0.14499 0.43208 0.06286 0.096 0.09455 0.20785 0.09455 0.33608 0 0.04773-0.0063 0.10303-0.01963 0.1684h-7.21e-4c-0.10482 0.48288-0.60858 1.4018-1.5122 2.7594 0.15957 0.192 0.3991 0.288 0.71934 0.288 0.44721 0 0.8773-0.20857 1.293-0.62408v0.96016c-1.0859-0.0643-1.8045-0.0643-2.1566 0-0.86144 0.16011-1.5484 0.57562-2.0592 1.2478-0.09599 0.83173-0.28728 1.3274-0.57437 1.4875 0.5108 0.25665 0.76564 0.67216 0.76564 1.2478 0 0.01656-7.21e-4 0.03314-7.21e-4 0.05151-0.01014 0.19506-0.07312 0.32221-0.19055 0.38057-0.15957 0.03242-0.27143 0.17597-0.33482 0.43207-0.06431 0.22423-0.16011 0.36796-0.28853 0.4328l-0.4791 0.23882 0.43208 0.38381 0.52682-0.28782c0.15867-0.0643 0.35067-0.01656 0.57436 0.14409-0.35084 0.32024-0.52681 0.78347-0.52681 1.3915h-1.4848v-1.0077c-0.28781 0-0.70276-0.04755-1.246-0.14355-0.57508-0.12841-1.0059-0.19254-1.2937-0.19254 0.31968-0.3195 0.4798-0.62388 0.4798-0.9117 0-0.19199-0.08014-0.46323-0.23953-0.81588-0.0065-0.01333-0.01279-0.02612-0.01909-0.0407h-0.0012c-0.17794-0.36346-0.26691-0.63723-0.26691-0.82346 0-0.22297 0.09527-0.35192 0.28728-0.3838 0.28708 0 0.46251-0.0164 0.52663-0.04755h-4.9819c-1.4373 0-2.6191-0.31968-3.5454-0.96014-0.12769 0.3521-0.19127 0.92773-0.19127 1.727-0.19254 0-0.6392 0.09655-1.342 0.28854-0.29412 0.08068-0.4917 0.14354-0.60155 0.19433h-0.01211c-0.0706 0.03116-0.09851 0.05457-0.08464 0.0706 0.05853 0.0038 0.11058 0.02414 0.17164 0.02414-0.10104 0-0.1576-9e-3 -0.17164-0.02414-0.15939-0.01207-0.31897-0.02106-0.46377-0.06555h-0.01585c-0.50196-0.14481-0.92395-0.46702-1.2644-0.967 0.51078-0.12842 0.90972-0.4645 1.1963-1.0077v0.81588c0.03242 0 0.14427 0.04755 0.33626 0.14283 0.19182 0.06484 0.35193 0.09672 0.47909 0.09672 0.63523 0 1.2561-0.58661 1.8591-1.7587 0.07817 0.05206 0.57633 0.22226 1.4943 0.51006-0.73448-0.70332-1.2935-1.2312-1.6768-1.5826-0.38308 0.22424-0.68621 0.35139-0.90972 0.38381 0.47836 0.47963 0.71791 0.76815 0.71791 0.86397-0.22297-0.06466-0.55905-0.24008-1.0052-0.52789-0.47963-0.28782-0.87928-0.46449-1.1983-0.52807 0.09528-0.16066 0.14355-0.31952 0.14355-0.47963 0-0.28854-0.11185-0.62408-0.33554-1.0084-0.06359-0.06358-0.1747-0.01586-0.33536 0.14426l0.47963 0.52808c-0.22298 0.25593-0.33555 0.46377-0.33555 0.62388-0.47908-0.57634-0.86271-1.0077-1.15-1.2962l0.47903-0.57564c-0.54265-0.09599-1.0057-0.4645-1.389-1.1037-0.14732-0.23757-0.26746-0.46882-0.36273-0.69323l-6.5489-5.41e-4 6.5489-0.0012zm-6.249-4.4407h0.43208v0.91188h-0.43208zm5.7973-2.2555-0.28728 0.24008-0.62263-0.6239 0.23882-0.28781zm-1.2937-7.8228h0.6709v0.43135h-0.6709zm4.168-1.9201h0.43082v1.2002h-0.43082zm5.6048 3.0719h0.43135v0.67108h-0.43135zm0-1.5363h0.43135v1.2002h-0.43135zm0-1.5356h0.43135v0.95996h-0.43135zm10.204 5.8556h0.43082v0.71989h-0.43082zm1.5808-1.4888c-0.12769-0.062866-0.25539-0.062866-0.3838 0-0.15885 0.064106-0.23882 0.1601-0.23882 0.28852 0-0.4798-0.08015-0.71988-0.23954-0.71988 0.35193 0 0.6392 0.14409 0.86217 0.43136zm1.246-2.0154h-0.6709v-0.43135h0.6709zm-0.47963-3.6954 0.38363 0.14426-0.33536 0.86344h-0.33483zm1.4378 24.141c0 0.39533-0.05079 0.74654-0.15255 1.0599h-5.41e-4c-0.03746 0.11616-0.08194 0.22675-0.13471 0.33157 0-0.11184-0.01026-0.21972-0.02989-0.32851h-0.0018c-0.06051-0.30943-0.20856-0.58517-0.44684-0.82346 0.12715 0.1277 0.28726 0.16012 0.47855 0.09655 0.19128-0.09655 0.28781-0.20766 0.28781-0.33608zm-0.04772-1.6316c0.06358 0 0.239 0.06358 0.52682 0.19181 0.28708 0.12715 0.46323 0.19199 0.52735 0.19199h-0.91117l-0.143 0.72043zm1.2454-18.478 0.23882 0.33608-0.90972 0.57562-0.19199-0.33536zm0.67037 1.3921-0.62282 0.28728-0.14355-0.33555 0.76636-0.33608zm-3.2576 22.077c0.22369-0.28782 0.33536-0.51151 0.33536-0.67162 0.03188 0.0317 0.20711 0.11184 0.52681 0.23954 0.3195 0.09654 0.52735 0.24008 0.62262 0.43208zm-3.5449 2.5916h-0.38309l0.33555-1.0077 0.33482 0.14427zm-4.3606 0.67234c0-0.31968-0.17543-0.63992-0.52609-0.96014l0.3838-0.95998c0.12697 0.67216 0.41497 1.6799 0.86164 3.0238-0.47909 0-0.71935-0.36724-0.71935-1.1037zm-0.8609-3.1204h0.43009v0.67217h-0.43009zm-0.86344 0.72043v-1.1995c0.12823-0.06412 0.35192-0.22424 0.67163-0.48035-0.09673-0.12769-0.1277-0.36724-0.09673-0.71989 0.03243-0.32022 0.11185-0.54391 0.24026-0.6709 0.22369 0.22352 0.33482 0.65505 0.33482 1.2948 0.51151 0 0.84704-0.07997 1.0064-0.24008-0.09599 0.41551-0.28726 1.0884-0.57436 2.0159 0.03116-0.70386-0.06484-1.2154-0.28853-1.5356-0.38237 0.19181-0.81444 0.70404-1.2935 1.5356zm-4.5023-1.6316 0.33428-0.2408 0.6239 0.91242-0.33554 0.23953zm1.0057 2.2067-0.67144-0.33482 0.14481-0.33608 0.67036 0.33608zm-0.76617 0.76888-0.6709-0.33626 0.14355-0.33608 0.6709 0.33608zm-0.52735 1.6799h-0.4791v-1.488h0.4791zm-4.9814-5.2318h-0.71863v-0.4319h0.71863zm-2.5872-6.7196h0.43082v0.96069h-0.43082zm0.71863 8.2554-1.1984-0.57562 0.14426-0.3838 1.1972 0.57562zm-0.71863 1.152-0.71934-0.6239c0.31968-0.096 0.55923-0.22369 0.71934-0.3838zm-1.3895-5.6148v-1.248c0.6392 0.83173 1.1017 1.5033 1.3895 2.0154-0.4798-0.51205-0.94286-0.76743-1.3895-0.76743zm0.38308 1.3915-1.1977-0.28781v-0.43208l1.1977 0.28708zm-0.91044 1.7759c-0.12715 0.25611-0.19127 0.43208-0.19127 0.52789 0-0.41605 0.04826-0.67216 0.14354-0.76816-0.31896-0.1594-0.52663-0.2554-0.62262-0.28782h0.81444c0 0.096-0.04827 0.27196-0.14409 0.52808zm27.498-8.1118h0.91061v0.48035h-0.91061zm0.24025-10.702h0.67036v0.43208h-0.67036zm1.0534 9.1667-0.28782 0.62389-0.38308-0.096 0.33608-0.67162zm-0.28782-9.4068 1.2453 0.43208-0.14301 0.38309-1.1023-0.43136zm1.0057 1.6799-0.57437-0.6239 0.23954-0.28781 0.62264 0.67162zm-0.76618 10.031h0.95817v0.47981h-0.95817zm1.3888 1.2957c0 0.19235-0.11167 0.38435-0.33482 0.57616 0-0.41605-0.39894-0.6239-1.1983-0.6239 0.35193 0 0.78276-0.12769 1.2943-0.3838 0.15958 0.15957 0.23882 0.30438 0.23882 0.43153zm-1.6753 1.1518 0.14227-0.38363 0.67163 0.33608-0.192 0.33608zm1.4843 1.584h-2.0606v-0.43208h2.0606zm-34.54-2.6876c0.38309 0 0.62262 0.06341 0.71917 0.1911-0.06484 0.06484-0.17543 0.04898-0.33608-0.04701-0.12715-0.03224-0.19128 0.06358-0.19128 0.288 0 0.41604 0.39967 1.3762 1.197 2.8794 0.29231 0.55599 0.56751 1.0549 0.82596 1.4951l1.99 7.21e-4 -1.99 5.29e-4c0.30763 0.52556 0.59167 0.97024 0.85155 1.3362 0.0317 0 0.19109-0.04953 0.47836-0.1448 0.22424-0.03171 0.38381 0 0.47981 0.09527-0.03188 0.76888 0.0164 1.2161 0.14283 1.3445 2.1978 2.3934 5.0869 3.987 8.666 4.7863h0.02161c1.7739 0.39191 3.7156 0.58822 5.8288 0.58822 1.7391 0 3.4388-0.19631 5.0996-0.58822h-4.7595l-0.24404 0.06087-0.03819-0.06087-1.3038-2.0988 0.33626-0.14409 1.3883 2.2085-0.13851 0.0344 4.7595-2e-3c0.93096-0.22118 1.8502-0.50394 2.7564-0.84885 3.0027-1.1203 5.0945-2.6717 6.2762-4.6554-0.15939 0-0.33608-0.04826-0.52663-0.14427 0.79805-0.16011 1.469-0.51204 2.0122-1.0547l0.7116-0.71358 0.58139-0.5832c-0.35192 0-0.60678-0.08014-0.7669-0.24026 0.09655-0.06358 0.43155-0.59219 1.0072-1.5833 0.54194-1.0235 0.81318-1.5999 0.81318-1.7283 0-0.1277-0.03171-0.19182-0.23954-0.09583-0.09527 0.03242-0.15885 0.04827-0.19127 0.04827-0.06341-0.0317-0.09583-0.096-0.09583-0.19181 0-0.12843 0.43135-0.89658 1.293-2.3039l-0.5261-0.52807c0.06413-0.06358 0.17524-0.04755 0.33483 0.04772 0.1214 0.03045 0.18425-0.05528 0.19127-0.25791v-0.02935c0-0.83173-0.25486-1.3438-0.76635-1.5363 0.5115-0.32022 0.76635-0.60804 0.76635-0.86343 0-0.22424-0.09527-0.3368-0.28726-0.3368-0.1594 0-0.23883-0.11113-0.23883-0.33554 0-0.12823 0.04755-0.22424 0.14355-0.28781 0.06412-0.06341 0.09529-0.17597 0.09529-0.33662 0-1.3749-0.06359-2.3509-0.19128-2.9266l-1.3888-4.224c-0.09672 0.06485-0.20714 0.09528-0.33555 0.09528-0.12769 0-0.35139-0.04701-0.6709-0.14301-0.31968-0.12769-0.55923-0.19181-0.71863-0.19181-0.19128 0-0.47909 0.12716-0.86163 0.3838-0.38435 0.25612-0.6075 0.38381-0.6709 0.38381 0-0.12769 0.04826-0.27196 0.14282-0.4328 0.0643-0.15939 0.09673-0.25468 0.09673-0.2871-0.38381 0-0.71864-0.14372-1.0072-0.43208 0.2237-0.38381 0.3685-0.68747 0.43154-0.91188 0.25539 0 0.63902 0.064297 1.15 0.19199 0.4791 0.1277 0.84634 0.19254 1.1023 0.19254-0.25593 0-0.46377-0.080682-0.62316-0.24026 0.03241-0.031698 0.17597-0.11239 0.43081-0.24008 0.22351-0.12843 0.33536-0.24028 0.33536-0.33627-0.57437-0.86343-1.3571-1.6791-2.347-2.4475-1.1177-0.86397-2.1242-1.3279-3.0188-1.3913v-1.0084c-1.2128-0.73575-2.4749-1.2638-3.7837-1.5833v1.6316c0 0.12843 0.07943 0.30366 0.239 0.52808 0.16011 0.19128 0.23954 0.35139 0.23954 0.47962 0 0.35211-0.20712 0.73647-0.6228 1.152-0.98987-0.47963-1.7085-0.78346-2.1552-0.9117l0.47855-0.5286c-0.15957 0-0.38255-0.095466-0.67037-0.28729 0 0.19182-0.12842 0.39967-0.38308 0.6239-0.28799 0.22316-1.1864-0.82778-1.8567-0.98663-0.67018-0.16083-2.4518-1.4735-2.8032-1.4735 0.03367-0.16516-6.5051-0.42073-6.8958 1.8654 0.01964-0.010806 0.03747-0.018908 0.05782-0.029185-0.06358 0.063576-0.096 0.14355-0.096 0.23954 0-0.074912 0.0254-0.14048 0.03818-0.21036-1.6247 0.81139-2.5962 1.2188-2.912 1.2188-0.31952 0-0.75105-0.14426-1.2943-0.43207 0.23504-0.14678 0.40164-0.22621 0.50124-0.23899-0.53294 0.038718-1.0356 0.27772-1.507 0.71862-0.92575 0.86415-1.4373 1.3274-1.5325 1.3922 0.15939 0 0.33536 0.063396 0.52663 0.19181-1.15 0.031698-2.3311 1.4722-3.5447 4.3193-1.0542 2.4957-1.5815 4.4634-1.5815 5.9032 0 1.0434 0.08898 2.412 0.26619 4.1064 0.08322 0.79877 0.18623 1.6692 0.30889 2.6128zm32.672-13.918 0.14427-0.33626-0.6709-0.33608-0.096 0.38381zm-19.641 3.4552-0.28782-0.28782-0.62281 0.67145 0.28801 0.24025zm-3.0663 2.9754c0.06412-0.22352 0.0317-0.40021-0.09527-0.52862 0.15939-0.12697 0.23954-0.25467 0.23954-0.38308 0-0.06413-0.04899-0.14355-0.14427-0.23954l-0.28726 1.4873c0.12769 0 0.22369-0.11167 0.28726-0.33608zm6.7063-4.7519c0.16011 0 0.24026-0.01584 0.24026-0.04701-0.27322-0.04574-0.45693 0.08771-0.62262 0.47963v0.3838c0.0088-0.18352 0.03295-0.33859 0.07113-0.46449zm21.846 9.5516 0.86164-0.28781v-0.38435l-0.95745 0.33608zm-28.169-0.09599c0-0.09654 0.03169-0.24008 0.09652-0.4319 0.04701-0.14301 0.07691-0.25989 0.08897-0.34959-0.04196 0.26494-0.29538 0.39785-0.76059 0.39785 0.16083 0 0.3521 0.1277 0.57509 0.38363zm3.8327-9.4066v-0.33626l-0.76564 0.28728 0.14283 0.38506zm9.9163-7.2954c0 0.25593-0.04844 0.46449-0.143 0.62389l0.71862-0.57563c0-0.096525 0.04755-0.17597 0.14284-0.24026 0.0643-0.064117 0.09672-0.16011 0.09672-0.28781 0-0.25665-0.04827-0.60804-0.14427-1.056-0.09529-0.47963-0.14426-0.84811-0.14426-1.1037-0.57509 0-1.2289-0.17597-1.9639-0.5279v2.2555c0.41478 0 0.78274-0.16012 1.1023-0.47963 0.22369 0.57562 0.33499 1.0394 0.33499 1.3915zm-1.4043 24.292 0.59022 2e-3 -0.59022 0.0025c-0.181 0.19956-0.2725 0.37102-0.2725 0.516h1.9646c-0.14373-0.1558-0.2606-0.32726-0.35012-0.52051h-0.0025c-0.1475-0.31123-0.22244-0.66586-0.22244-1.063-0.096 0.12842-0.39894 0.4155-0.9099 0.86361-0.07871 0.07114-0.14804 0.1385-0.20712 0.19938zm-13.27-7.4193c-0.06232-0.02215-0.1322-0.03675-0.2237-0.02666-0.07114 0-0.13778 9e-3 -0.20262 0.02612h-7e-3c-0.13652 0.03493-0.25737 0.10608-0.36525 0.21342 0.31952 0.48035 0.54248 0.86415 0.67018 1.152 0.2237-0.28782 0.33554-0.6239 0.33554-1.0077 0-0.17974-0.05582-0.29735-0.16767-0.35714zm13.668 5.8754h-0.95818v0.43263h0.95818zm23.618 5.1358h0.47963v-2.687h-0.47963zm-24.288-2.1591 0.28781-0.24008-0.67107-0.67217-0.23882 0.28836zm6.4197 35.083 0.45315-0.10735c-0.05602-0.02412-0.11006-0.03566-0.16534-0.03566-0.09581 0-0.19181 0.04702-0.28781 0.14302zm-5.7494-6.5273h-0.47856v0.71935h0.47856zm13.92 7.0921h0.40416v-3.2041c-0.14499 1.4003-0.27952 2.4696-0.40416 3.2041zm-7.4993-0.51654c0.0895-0.09078 0.16138-0.14804 0.23504-0.20893 7e-3 -0.02161 0.01332-0.04322 0.02035-0.06609l-0.47332 0.1194c0.0724 0.03117 0.1448 0.08268 0.21793 0.15562zm-10.252-17.998c0.35121 0 0.89459 0.04845 1.6291 0.14427 0.70261 0.09599 1.2294 0.14373 1.5808 0.14373-0.08519-0.09601-0.15634-0.1749-0.23072-0.25684-0.98231-0.02035-1.9543-0.03872-2.8959-0.05582-0.02611 0.0076-0.05781 0.01711-0.08321 0.02467zm-3.0175-2.5916c0.19127 0.35193 0.28726 0.60804 0.28726 0.76871-0.19199 0-0.46323-0.04881-0.81462-0.14481-0.35066-0.09601-0.60678-0.14355-0.76689-0.14355 0.28782-0.31968 0.71863-0.48035 1.2943-0.48035zm4.358-1.2955h14.181v1.7759h-2.2042c-1.0217 0-1.6444 0.19181-1.8681 0.57562-0.22369-0.03242-0.84632-0.17597-1.8681-0.43208-0.7986-0.19182-1.5172-0.28782-2.1564-0.28782-0.98932 0-1.9156 0.24008-2.7785 0.71989-0.35066-0.32024-0.92574-0.52808-1.7238-0.6239l-1.5821-0.19199zm11.02-4.7039h0.71863v0.48035h-0.71863zm-8.6716 7.3914-0.62263 0.33608-0.14373-0.38435 0.76636-0.33554zm-12.024 1.152c-0.0153-0.02108 0.14733-0.03566 0.43191-0.04521-5.53e-4 -0.0012-5.53e-4 -0.0018-5.53e-4 -3e-3 -0.096-0.25539-0.14426-0.46395-0.14426-0.62407 0-0.35121 2.9228-2.1112 2.9228-2.1112v1.1995c-0.12843 0.12841-0.20786 0.32022-0.23956 0.57562-0.0317 0.28853 0.01584 0.49619 0.14355 0.62461h1.0059c0.03242-0.0317 0.14355-0.07997 0.33536-0.14427 0.06358 0 0.09599-0.12823 0.09599-0.38434 0-0.20082-0.01584-0.3386-0.047-0.41551-0.11311-0.01025-0.22549-0.01586-0.33608-0.01586 0.17218 0 0.27898-0.0052 0.3215-0.01404 0.55147 0.08068 1.11 0.25089 1.6901 0.54194-0.12769 0.12769-0.27142 0.19253-0.43153 0.19253-0.15885 0-0.33482-0.09654-0.52663-0.28907-0.15886 0.16083-0.23954 0.32022-0.23954 0.48034 0 0.09601 0.0317 0.17543 0.096 0.2401-0.08141 0-0.2961 0.05222-0.63668 0.152 1.1887 0.01459 2.5427 0.03675 3.9775 0.06287 0.5369-0.15958 1.2555-0.39011 2.1678-0.69521 0.10681 0.08014 0.35463 0.33751 0.72818 0.75104 2.7621 0.05656 5.5786 0.12085 7.8959 0.17615v-0.35084h0.47909v0.36219c2.7951 0.06664 4.7424 0.11761 4.7424 0.11761h1.8553l-0.08319 1.1035h0.47853l0.14355-1.9194h-0.33482v-9.0708h-11.392c-0.08952-0.15363-0.15688-0.3296-0.20081-0.52916-0.2725 0.16768-0.51205 0.34437-0.71845 0.52916h-12.216c-0.54266 0.70404-5.5729 1.0554-6.1791 1.0554 0.03187 0.19182-0.47963 0.35193-0.47963 0-0.09599 1.152-0.76635 0.54392-0.95816 0.28854-0.31898-0.38456-0.49495-0.60878-0.52682-0.67236 0.15957-0.1594 0.24025-0.36724 0.24025-0.6239h-5.5583v9.8389h11.737zm19.211 1.199h0.47909v-0.93277c-0.15508-0.0038-0.3197-0.0076-0.47909-0.01135zm-16.864-2.6388c0.0643 0.22298 0.04826 0.40021-0.04755 0.52736-0.12769-0.2237-0.20784-0.33554-0.24026-0.33554 0 0.12769 0.11257 0.33554 0.33608 0.62461 0.2237 0.25485 0.39912 0.41551 0.52736 0.47909-0.41479-1.2155-0.6709-1.6157-0.57562-1.2955zm-1.9151 1.3946c0.09472 0.2536 0.14246 0.39713 0.14246 0.42901h2.5395c0.5623-0.18749 1.0021-0.32798 1.3274-0.42379-1.8794-0.02287-3.3295-0.02863-4.0094-0.0052zm0.86108-9.5541h-2.0599v0.43209h2.0599zm-6.5629 0.38453h-0.43135v0.71971h0.43135zm26.54 10.078-0.67091 0.67216 0.28853 0.28781 0.62191-0.62389zm-24.097-9.5981c0.35193-0.28782 0.94161-0.39966 1.7733-0.33608-0.19199-0.09599-0.54392-0.16012-1.0554-0.192-0.51026-0.06412-0.86092-0.14354-1.0529-0.23953 0 0.15957 0.11184 0.41622 0.33499 0.76761zm23.091 12.19 0.86218-0.4319v-0.43153l-1.0534 0.4798zm5.2215 2.3047h-0.43081v0.71988h0.43081zm1.3897 3.5034h-0.47909l-0.335 1.2478h0.47855zm-0.288-7.0553c0 0.35211-0.0634 0.52807-0.19109 0.52807-0.03189 0-0.096-0.04772-0.19199-0.14426v0.71988c0 0.20965-0.13851 0.60102-0.41605 1.1748l0.3685-0.64676c0.31952-0.54338 0.47837-0.94358 0.47837-1.1997 0-0.12823-0.01586-0.27196-0.04773-0.43208zm8.7188-7.9193h0.43135v-0.95998h-0.43135zm0.23953-2.0637h0.43136v-0.67288h-0.43136zm-19.45 32.012c0.06358 0 0.14481-0.01513 0.24008-0.04755 0.096-0.03242 0.17543-0.03242 0.239 0 0.0317 0.06358 0.04827 0.19181 0.04827 0.38309 0 0.85784-0.12266 1.2638-0.36796 1.2211 0.18118 0.06303 0.27196 0.15255 0.27196 0.26764 0 0.06413-0.23954 0.33537-0.71791 0.81517l0.76563 0.67216c0-1.0877 0.08069-1.9035 0.24008-2.4475 0.20964 0.10482 0.40038 0.26367 0.57256 0.47458-0.40741-0.74456-0.59796-1.4308-0.57256-2.0586zm-1.1768-5.6739h-0.1385l-0.79157 0.87497c0.3494-0.35013 0.65883-0.64371 0.93007-0.87497zm-3.2785 8.3146h3.0186c-0.44793-0.44864-1.5338-0.67234-3.2574-0.67234-1.4056 0-2.539 0.09672-3.4013 0.288 0.41496 0 1.0218 0.06412 1.8203 0.19306 0.79806 0.12716 1.4048 0.19128 1.8198 0.19128zm1.4848-4.3683 1.1984-1.488-0.38309-0.23954-1.1502 1.4868zm-1.3405 1.68c0 0.2878 0.1277 0.43208 0.38256 0.43208 0.09654 0 0.20765-0.01584 0.33608-0.04898 0.22369-0.2871 0.35138-0.51151 0.38308-0.6709-0.06358-0.096-0.33554-0.33609-0.8139-0.71989-0.36273-0.30186-0.55275-0.51853-0.57562-0.67234l0.0018 0.02233-0.81571 0.07366c-0.44739 0.0317-0.78221 0-1.0072-0.096 0.44792 0.19199 0.91044 0.36796 1.3902 0.52807 0.47909 0.28782 0.71862 0.67162 0.71862 1.152zm4.3593-2.7836c0.22369 0.63974 0.6709 1.4873 1.342 2.5433 0.61236 1.0147 1.0349 1.7924 1.2649 2.3344-1.0668-2.5536-1.6012-4.1477-1.6012-4.7818 0-0.28782 0.03242-0.73629 0.09672-1.3438 0.03098-0.594 0.04755-1.0369 0.04755-1.3254-0.0018 0.53816-0.11365 1.0585-0.33537 1.5649h-0.71808c0.44613 0.06413 0.67036 0.30492 0.67036 0.72061 0 0.28782-0.0317 0.46377-0.09599 0.52735 0-0.15957-0.22369-0.23953-0.6709-0.23953zm2.3954 1.5363h-0.47909v0.95944h0.47909zm-2.635-1.4405-0.38308-0.14409-0.33555 1.056h0.43082zm-1.4372-1.3438c-0.16012 0-0.38256-0.12843-0.67037-0.3831l-1.9646 2.1107c1.4373-1.0877 2.3155-1.6635 2.635-1.7276zm1.582 3.3116h0.38255l-0.33608-0.76816-0.38255 0.14427zm-10.972 18.909h0.95799v-0.47909h-0.95799zm19.834-4.6554c0-0.28783-0.20839-0.63974-0.62336-1.0554-0.22369 0.16012-0.5432 0.39966-0.95816 0.71989zm-29.415-16.51h-0.43081v-0.71988h0.43081zm-0.6709 2.0161h-0.71791v-0.43209h0.71791zm25.007-0.71989h0.95816v0.47963h-0.95816zm1.5333-5.0392 0.76689-0.33609v0.43209l-0.62408 0.28834zm1.8679 18.621c-0.86272 0.92755-1.293 1.3279-1.293 1.1995-0.1277-0.12823-0.16066-0.33608-0.09655-0.62336 0.06485-0.25719 0.09655-0.44846 0.09655-0.57615zm0.28726-9.2143 0.33554 0.76743h-0.38327l-0.33536-0.62389zm0.38308 7.4867h-0.47908v-1.0077h0.47908zm1.1424 2.2537c-0.02089 0.1938-0.08194 0.41874-0.18353 0.67342 0.42758 0.07114 0.77645 0.19325 1.0452 0.36472 0.06915 0.13219 0.1041 0.25106 0.1041 0.35588v0.43136l-0.19181 0.096c-0.27322-0.10483-0.61182-0.19325-1.0135-0.26368-0.02287-0.13345-0.05277-0.25414-0.08771-0.3604l-0.01003 0.34383c-0.54717-0.09024-1.2091-0.15003-1.9837-0.17921-0.01208-0.12138-0.01839-0.22423-0.01839-0.30942 0-0.51151 0.23956-0.8946 0.71792-1.152 0.03242-0.03045 0.5432-0.23882 1.5332-0.62264 0.06413 0.1277 0.09583 0.28781 0.08825 0.62209zm0.77392 6.3848h-0.43136v-0.95942h0.43136zm-4.1077-3.6953c0.22172-0.48232 0.34564-0.78598 0.40669-0.87694zm-1.2575-21.213c-0.4472 0.03063-0.83029 0-1.15-0.09652 0.12842-0.12824 0.3838-0.33608 0.76689-0.6239 0.17669-0.09852 0.31068-0.20262 0.4029-0.31268-0.01279 0.13797-0.01982 0.25864-0.01982 0.36095 0 0.24026 0.01784 0.46251 0 0.67215zm-0.94916-3.4107c0.09978-0.06213 0.16011-0.09329 0.20388-0.0063zm-1.2663 1.708-0.46702 0.40596c0-0.18425 0.05475-0.43387 0.14355-0.81571 0.096-0.35138 0.143-0.60821 0.143-0.76761l0.35644 0.79229c-0.02991 0.12013-0.08448 0.24026-0.17597 0.38507zm-0.71035-0.86595c-0.11761-0.2327-0.18046-0.49368-0.1875-0.78166 0.1322 0.16336 0.25863 0.3521 0.38255 0.56625zm-14.943-10.773-0.28781-0.38453 2.0599-1.7276 0.23954 0.38381zm-2.3477 1.8234-0.38381-0.24008 0.6709-0.95944 0.33554 0.23954zm-6.995 9.5511-0.3341-0.62389 0.38308-0.14427 0.33482 0.76816zm32.337 7.343h0.43082v1.4875h-0.43082zm0.23954-1.8717h0.47909v1.4873h-0.47909zm-7.6652 18.381c-0.06286 0.3521-0.11184 4.9432 0.52736 7.0546 0.03116 0.10428 0.05457 0.19578 0.08447 0.29735 1.4322 0.19453 3.3536 0.10429 3.6445 0.12141 0.16408 0.26691 3.6643-1.2656 4.0792-1.2346v-2.6883c0.12824-0.21595 0.19127-0.39137 0.19127-0.52736l-0.19127 0.09474v-6.9098c-0.19127 0-0.44667 0.04846-0.76635 0.14427l-0.28006 0.07187c-0.03639-0.10933-0.05475-0.19758-0.05475-0.26439 0-0.99114 0.22369-1.7427 0.6709-2.2542 0.22316 0.95942 0.3667 1.6633 0.43027 2.1107v-17.433l-0.40416 0.0039c-0.09473 0.56157-0.18299 0.93205-0.26619 1.1113-0.01279-0.3984-0.0254-0.76761-0.03619-1.1152-0.03945-1.2726-0.0598-2.1494-0.0598-2.6285 0-0.22298 0.03314-0.55977 0.096-1.0077 0.06412-0.47981 0.096-0.83173 0.096-1.056 0-3.7399-1.774-6.7872-5.3232-9.1394l0.67594-0.89134-0.33483-0.24026-0.688 0.90738c-0.24728-0.15506-0.50142-0.30763-0.60498-0.5713l-0.24008-0.38435-0.47855 0.19326-0.45352-0.23649 1.986-1.4925-0.23953-0.33608-2.1971 1.6049c-3.3338-1.6132-6.801-2.4201-10.402-2.4201-4.726 0-8.8623 1.1844-12.408 3.5517-4.311 2.8795-6.4669 6.9435-6.4669 12.19v1.9563l8.2777-5.41e-4c0.91693-2.5148 1.99-4.3339 3.2196-5.4585 1.6926-1.5363 4.1515-2.3047 7.3774-2.3047 4.0238 0 6.7711 0.89532 8.2395 2.6877 0.19306-2.3997 0.3476-0.66461 0.56356 0.36975-0.15688 0.07312-0.26495 0.10987-0.32402 0.10987 0.12572 0.01351 0.24712 0.04268 0.36724 0.08897 0.17021 0.74402 0.39894 1.3737 0.68675 1.8902l-2.3693 2.6171 0.1385-0.0069c0.42379-0.37048 0.75177-0.60426 0.98554-0.70223 0.03242 0.22441 0.04827 0.43208 0.04827 0.62406 0 0.02342-0.0012 0.05008-0.0033 0.08069h-5.41e-4c-0.01279 0.15111-0.0598 0.34868-0.13976 0.59148-0.09601 0.31968-0.14427 0.52735-0.14427 0.6246 0.13022-0.17542 0.26818-0.5794 0.41299-1.2118l-0.02989-0.0012h0.02989c0.0679-0.29735 0.13796-0.6455 0.20965-1.0439 0.16011-0.86343 0.47908-1.2955 0.95888-1.2955 0.19109 0.63992 0.30294 1.1037 0.33483 1.3915 0.22999-0.35589 0.45495-0.67792 0.71862-0.91044 0.25466-0.25612 1.2083-1.1424 1.2453-1.3928 0.11256 0.04503-0.41805 1.5592-0.70206 2.4608l0.07618-0.01909c0.1639-0.12068 0.27701-0.15058 0.33806-0.08952l-0.33806 0.08952c-0.02719 0.01962-0.06664 0.06033-0.09654 0.08518-0.1086 0.34815-0.17543 0.5922-0.13976 0.5922 0.16138 0 0.32726 0.04575 0.49691 0.13327h1.4029l0.1621-0.30167 0.64425 0.30167 0.02539 0.01154-0.19253 0.3838-0.6709-0.33626 0.0317-0.05908-1.4029 0.0025c0.07043 0.03693 0.14156 0.08213 0.2127 0.13472l-0.32654 0.21037c-0.60606 0.41622-0.91044 0.80003-0.91044 1.152 0 0.47962 0.09599 0.84757 0.28782 1.1037-0.12769 0.06411-0.20784 0.11184-0.239 0.14355 0.12715 0 0.35012-0.19182 0.66983-0.57634 0 0.32022-0.03117 0.80057-0.09601 1.4405-0.06358 0.60804-0.09527 1.0718-0.09527 1.392 0 0.28781 0.09527 0.46324 0.28781 0.52808 0.15939 0.0641 0.30313 0.01513 0.43082-0.14427l-0.19128 0.33607c-0.15957 0.19182-0.23954 0.40039-0.23954 0.6239 0 0.096 0.0317 0.15958 0.09527 0.192 0.03189 0 0.09601-0.01584 0.33555-0.14427 0.06412 0 0.096 0.06412 0.096 0.19253 0 0.35139-0.07943 0.89585-0.24026 1.6316-0.19128 0.70333-1.5803 1.7447-1.5803-0.71988-0.2554 0.09654-0.38309 0.54322-0.38309 1.3438l-0.5749-0.52789c-0.096 0.1594-0.14427 0.44721-0.14427 0.86344 0 0.73574-1.0695 1.056-0.81462-0.09601-6.9619-0.28782-12.232-0.47963-15.809-0.57562 0.28799-0.16011 0.67108-0.25593 1.1502-0.28782 1.1183 0 2.2359-0.01584 3.3534-0.04826 1.4056 0 2.4914-0.14426 3.2571-0.43135-0.09526-0.19252-0.6698-0.27267-1.7238-0.24025l-8.9106 0.24034v-3.2163h-0.86217c0.57508-0.38382 0.86217-0.9117 0.86217-1.5833 0-0.60804-0.19181-1.0718-0.57489-1.3921 0.16641-0.54266 0.33931-1.0587 0.51708-1.5473h-8.2777v17.433h21.749l2.8745-0.096c1.373-0.03116 2.5231-0.03116 3.4494 0 1.1819 0.0643 1.9958 0.23956 2.4424 0.52736-0.25161 0.59993-0.71412 1.7499-1.0884 2.7189l0.08267-0.03062c0 0.19199-0.03061 0.47981-0.096 0.86415zm5.7488 19.581 0.33554-0.71918-0.38308-0.096-0.33554 0.67162zm-4.215-7.2472h0.47909v-0.95998h-0.47909zm-24.672-0.28781h0.95817v0.43208h-0.95817zm2.3 0.76816v0.4798l-1.0057-0.4798zm0.19127 0.91188c0.16012 0.15939 0.23955 0.32022 0.23955 0.47963 0 0.16083-0.11113 0.3521-0.33483 0.57633 0-0.44792-0.44792-0.80057 0.09528-1.056zm0.04827 3.4074c-0.86271 0-0.12769-0.5922 0-1.0077zm-0.81444 4.367c-0.22369 0-0.62282 0.14481-1.1977 0.43135 0.19129-0.35138 0.2871-0.68692 0.2871-1.0072 0.57508 0.25684 0.94304 0.46396 1.1024 0.62462-0.03242-0.0324-0.096-0.0488-0.19182-0.0488zm15.665-10.415v8.4479l-13.221-4.3682zm5.3175 18.622c-0.03116 0.16065-0.14354 0.41622-0.33553 0.76761-0.28783-0.22242-0.51007-0.33499-0.67019-0.33499 0.22351-0.0635 0.55905-0.20839 1.0057-0.43262zm-0.95817-0.67217h0.71864v0.47963h-0.71864zm3.5937 0.81698v0.3838l-0.86271 0.33482-0.14373-0.38381zm-0.43135-0.81698h0.71863v0.47963h-0.71863zm3.4011 1.5356c-0.1594 0.15957-0.28782 0.38453-0.38309 0.67234-0.12842-0.12643-0.78275-0.52735-1.9641-1.199 0.86162 0 1.6444 0.17525 2.3472 0.52663zm-0.24008-5.2303 0.62316 0.95925-0.38308 0.23955-0.62265-0.95998zm-1.1972 5.9515c0.06358 0.25539 0.09527 0.41496 0.09527 0.47782-0.0317 0-0.14355 0.0496-0.33536 0.14481-0.22315 0.0967-0.41424 0.14372-0.57436 0.14372-0.22369 0-0.38255-0.11054-0.47981-0.33553l-0.14301-0.28782c0.41498-0.41496 0.92648-0.62263 1.5325-0.62263-0.09527 0.0952-0.12697 0.25467-0.09527 0.47963zm3.0658-0.57616 0.33537 0.76815h-0.38237l-0.33608-0.62461zm-35.403-10.368c3.2898 1.2478 5.3339 2.0484 6.1326 2.3998 0-0.15885 0.0634-0.33482 0.1911-0.52663 0.2345 0.34436 0.51546 0.6392 0.8438 0.88757h2e-3c0.33986 0.25233 0.72817 0.45296 1.1653 0.59921l-0.71792 0.62317h-0.30887c0.61686 0.11257 1.2752 0.22496 1.5064 0.2408 0-0.38363 0.0643-0.63902 0.192-0.76815 3.8325 1.5993 6.611 2.7207 8.3355 3.3599l-0.52681 0.57635c0.25539-0.033 0.51078-0.049 0.76689-0.049 1.2771 0 3.2093 0.51277 5.7966 1.5358 2.7137 1.0884 4.5983 1.6647 5.653 1.7283 0.1232 0.0521 0.32726 0.15363 0.61506 0.3042l-0.18371-0.40021 0.38255-0.14353 0.22549 0.76815 0.44541 0.23882c0.73393 0.41678 1.166 0.62335 1.2937 0.62335 0.19055 0 0.5902-0.15957 1.197-0.47782 0.45243-0.23954 0.8076-0.39011 1.1024-0.33735l0.19127-0.14299c-0.06556 0-0.14174 9e-3 -0.22946 0.0311l-0.01014-0.27197c0-0.28781 0.12769-0.51276 0.38363-0.67216 0.67036 1.0236 1.0052 1.6321 1.0052 1.8241 0.32024-0.19199 0.55923-0.28782 0.71863-0.28782 0-0.0331-0.03171-0.14299-0.09528-0.33554-0.096-0.19181-0.14426-0.36723-0.14426-0.52861 0-0.38435 0.12841-0.70277 0.38327-0.96015l0.38434 0.4328c-0.09654 0.0636-0.11257 0.23954-0.04898 0.52735 0.0096 0.0774 0.01332 0.1486 0.01152 0.21162 0.16319-0.49943 0.27124-0.92196 0.32402-1.2676-0.096-1.9507-0.04827-3.2475 0.143-3.8867 0.16012 0.15885 0.36779 0.24081 0.62318 0.24081-0.51132-0.41678-0.76617-0.75358-0.76617-1.009 0-0.15939 0.03242-0.25538 0.09527-0.28834 0.096-0.0324 0.14427-0.12643 0.14427-0.28782 0-0.31518-1.1113-0.89855-3.3345-1.7512-0.26242-0.0998-0.54014-0.20461-0.833-0.31195l0.06808 0.31195 0.17146 0.79175c0.01459 0.15885-0.62011-0.27394-1.3164-0.79175l-12.406-1e-3 12.406-7.2e-4c-0.83173-0.62138-1.7499-1.3659-1.7499-1.3659 0.0317 0 0.08015 0.0312 0.28782 0.14355 0.06358-0.0324 0.096-0.14355 0.096-0.33554 0-0.19182-0.31968-0.76815-0.95817-1.7276-0.70278-1.0889-0.22369-2.0325 0-1.6811 0.14804 0.24836 0.23883 0.48736 0.27196 0.71538-0.08393-1.1786-0.11131-2.3293-0.08068-3.4501 0-0.35193 0.04827-0.92756 0.14355-1.7281 0.06358-0.80003 0.09654-1.4081 0.09654-1.8236 0-0.27393-0.02036-0.57941-0.06088-0.91746 0.13526 0.05529 0.28277 0.07366 0.44342 0.05331-0.12769-0.21342-0.31266-0.47709-0.55401-0.79031-0.10103-0.56878-0.2471-1.2105-0.43838-1.9279h-0.0012c-0.07758-0.29154-0.17033-0.60547-0.2631-0.91994-0.77698-0.10607-1.4124-0.29483-1.5579-0.63217-0.35193-0.83174-0.49116-1.5803-0.3386-2.3731 0 0 0.75231-3.1656 0.75231-3.5544-0.12969 0.17794 0.16138-0.6284 0.54572-1.6258l-29.283 10.912s-0.19128 9.0389-0.57509 9.3591l0.52682 0.52736c-0.47855 0.47961 0.71863 0.3838 0.71863 0.3838zm37.27-9.2625h-0.43009v1.2478h0.43009zm-0.47782 4.7514h0.47782v-2.0638h-0.47782zm-15.762-2.3517 0.67162 0.33608 0.19128-0.38363-0.71863-0.33554zm12.983 32.927h0.71863v-0.48035h-0.71863zm1.5333 2.1107c-0.44738 0.48107-0.70279 0.88-0.76689 1.2002l0.76689-0.19182zm-0.28799-3.9838h-0.71846v0.47962h0.71846zm-28.361-20.208h0.40974c-0.17416-0.0317-0.34562-0.0634-0.5025-0.0928 0.03225 0.0319 0.05836 0.0605 0.09276 0.0928zm-0.90991-1.103c0.04954 0.11257 0.12446 0.23575 0.2401 0.4798 0 0.12896-0.06538 0.25539-0.19182 0.38362 0 0 0.33157 0.0648 0.76888 0.1468-0.2453-0.23432-0.4481-0.451-0.59038-0.64047-0.0272-0.12319-0.10356-0.24638-0.22676-0.36975zm1.9639 23.47 0.86218-0.86415c-0.86218 0-1.3094-0.0139-1.3405-0.047zm4.4076 3.0251c0 0.12895 0.23953 0.44791 0.71862 0.96068 0-0.096 0.0643-0.25737 0.19199-0.48035 0.12697-0.25484 0.19128-0.43261 0.19128-0.52933-0.16011-0.12643-0.38327-0.19182-0.67108-0.19182-0.28782 0.033-0.43081 0.11235-0.43081 0.24082zm17.39-18.239h0.32149l-0.42433-0.22441zm-15.809 20.303 0.24026 0.33736 0.95816-0.6257-0.24026-0.38327zm-1.15-2.8783 0.38452 0.14301 0.38237-0.72043-0.38237-0.14373zm20.121-15.937 0.95745-0.62516-0.23954-0.38182-0.95817 0.62262zm-6.4675 24.097 0.14355-0.38434-1.0534-0.33482v0.38237zm5.5563 0.4328h0.38435l-0.33536-0.81714-0.38381 0.14552zm-1.2447 0.57437-1.246-0.91116-0.28781 0.38434 0.96321 0.70332c0.15255-8e-3 0.3051-0.0159 0.45621-0.0241zm6.4187 4.4647-2.6337-0.57562v-0.38436l2.6337 0.52736zm-1.0534-3.6477 0.38363 0.14499-0.33608 0.91116h-0.38237zm-2.0116 7.1996-0.71863-0.33626h0.86144zm-9.1984-7.6329h-0.76689v-0.47765h0.76689zm-3.3052-0.66964c-0.12841-0.12896-0.25611-0.16138-0.38254-0.096-0.12841 0.096-0.19326 0.22315-0.19326 0.38201l-0.71791-0.62335c0-0.32023 0.27196-0.62264 0.81462-0.91117l-0.57508-0.52934c0.19181-0.19181 0.55906-0.28781 1.1012-0.28781-0.19127 0.0325-0.38326 0.14498-0.57381 0.33679 0.25539 0.73574 0.43081 1.3121 0.52681 1.7288zm-7.8572 0.23954h-0.38255l0.335-1.0567 0.38363 0.143zm-3.9038 0.80958c0.03188-0.0389-0.31194-0.2435-1.0306-0.61831l0.67108-0.67162c0.28782 0.25738 0.43135 0.65576 0.3595 1.2899zm-5.2939-0.37948-0.91044-0.33483v-0.43081l1.1017 0.33554zm9.1502-16.32 0.6709 0.95997-0.38381 0.2408-0.62208-0.95998zm0.86217-0.57635h1.0057v0.43334h-1.0057zm1.2935-1.3908v0.3838l-0.62263 0.33536-0.19181-0.38436zm0.19199 3.8402 0.71863 0.33483-0.19199 0.38433-0.67036-0.33661zm0.23882-5.6644c0.096 0.0953 0.14427 0.19182 0.14427 0.28782 0 0.0952-0.08015 0.22495-0.24026 0.38435 0.12841 0.12841 0.16011 0.31824 0.09599 0.57562-0.09599 0.22441-0.20711 0.33679-0.33482 0.33679zm0.19254 4.2716h1.293v0.48033h-1.293zm1.5803-1.7753c0 0.60877 0.09527 1.119 0.28781 1.5358-0.0643 0-0.23954-0.17595-0.52681-0.5286l-0.3838-0.48035c-0.19182 0.096-0.28782 0.22423-0.28782 0.3838 0-0.41424 0.30384-0.71934 0.91062-0.91062zm-0.14373 5.184c0-0.80057-0.20711-1.4091-0.62191-1.8241 0.5108 0 0.95745 0.38453 1.3405 1.152zm1.2937 0.9589c-0.28781 0.19181-0.43135 0.36976-0.43135 0.52861-0.03189-0.096-0.25558-0.57635-0.67037-1.4403 0.22352 0 0.46251 0.11293 0.71917 0.33734 0.25414 0.19181 0.38255 0.38236 0.38255 0.57436zm0.09599 1.4398h-0.47854v-0.71936h0.47854zm0.71845 0.86468-0.14355 0.38309-0.71863-0.33482 0.14373-0.38381zm-2.3 1.056-0.28726-1.5343h0.47908l0.28782 1.5343zm4.5036-7.1524 1.5808-0.28782v0.48034l-1.5808 0.28783zm0.57437-1.9201h1.2453v0.47979h-1.2453zm14.659 15.218h-2.394c0.7026 0.76816 1.1487 1.4239 1.3412 1.9664-0.54265 0.64171-1.9171-0.62264-1.9171-0.81445 0-0.22297-0.11113-0.46378-0.33482-0.72187-0.25539-0.28583-0.49547-0.4301-0.71916-0.4301 0.5115 0.51205 0.76689 0.99239 0.76689 1.4398 0 0.0674-1.6718 0.19001-3.5632 0.29538l-0.17344 0.23126-0.28277-0.20713c-1.8477 0.0967-3.7887 0.17165-4.534 0.15507 0.18551 0.25161 0.28978 0.41299 0.31393 0.48539l-0.5922-0.50376c0.04826 9e-3 0.14229 0.0153 0.27827 0.0184-0.0616-0.0845-0.13275-0.17848-0.21343-0.28277-0.35085-0.41423-0.52681-0.75159-0.52681-1.009 0-0.38758 0.08446-0.59597 0.2516-0.62136-0.84506 0.0598-1.4873-0.0362-1.9284-0.2898v-2.2085c-0.12823 0.12824-0.23954 0.19181-0.33536 0.19181-0.09599 0-0.143-0.11234-0.143-0.33535 0.16712-0.30565 0.29537-0.66334 0.38254-1.065h-7.5211v0.44036c0.12842 0.0952 0.31968 0.12895 0.57435 0.0952l0.48989-0.0699c-0.51835 0.34239-0.77644 0.63795-0.77644 0.88758-0.19181 0.25539-0.28781 1.0072-0.28781 2.2557-1.15 0-1.9162 0.19181-2.2994 0.57615-0.6392-0.41676-1.3254-0.62316-2.0604-0.62316l0.57562-0.62533c-0.47981-0.19181-0.89404-0.31897-1.246-0.38435-0.06412 0.0654-0.09474 0.17596-0.09474 0.3368 0 0.12769-0.0488 0.19253-0.1448 0.19253-1.6926 0.44792-3.0181 0.71917-3.9762 0.81517 0-1.3045 0.01332-2.6006 0.03998-3.8936 0.0389-1.8713 0.10554-3.7259 0.19956-5.5628 0.06483-1.0871 0.52681-2.0637 1.3895-2.9278 0.83048-0.86343 1.7879-1.2968 2.8745-1.2968 1.0218 0 2.3153 0.65757 3.8802 1.9697 0.06412 0.0304 0.12842 0.0463 0.19127 0.0463 0.06412 0 0.17669-0.0463 0.33554-0.14282 0.1277-0.12842 0.23954-0.19199 0.33537-0.19199v8.103l7.5211-5e-3c0.09654-0.44542 0.14409-0.95313 0.14409-1.5224 0-0.25467-0.01585-0.6556-0.04827-1.199-0.03242-0.54519-0.04755-0.94612-0.04755-1.2008 0-3.0092 1.7568-4.9135 5.2698-5.7114 0.67036-0.16138 2.2195-0.33752 4.6466-0.52933 1.9163-0.15959 3.37-0.41551 4.3586-0.76816v-9.7912l-0.52663 0.0476c-0.32401 0.15003-0.61885 0.28095-0.88451 0.39083-0.37857 0.10739-0.75536 0.20333-1.1316 0.29159l-0.52285-0.44343c0 0.14102-0.08717 0.34762-0.26313 0.61381-0.94089 0.19055-1.8749 0.32077-2.8019 0.39515-3.4496 0.25738-5.6536 0.5452-6.6112 0.86344-2.5554 0.83371-4.3598 2.4806-5.4133 4.9439-1.8852-3.9998-5.1581-5.9992-9.8211-5.9992-3.0334 0-5.5894 1.0552-7.6646 3.1679-2.0765 2.0795-3.1141 4.6408-3.1141 7.6804v22.511h28.36c0-0.76762 1.1341-0.89658 0.9099-0.57635 0.84938-0.32202 4.9661-0.62262 5.0302 0.14499 0.83048 0.57436 1.4054 1.0871 1.7251 1.5343-0.22369-0.67215-0.31968-1.2136-0.28726-1.6298l2.5568-1.1703c0.28079 0 0.29484-3.278 0.40164-4.6152h5.41e-4c0.02666-0.33879 0.06033-0.55041 0.10608-0.55041 0.19127 0 0.28726-0.11234 0.28726-0.33662 0-0.31897-0.06358-0.78274-0.19127-1.3915-0.096-0.63992-0.14427-1.1203-0.14427-1.4398z" fill="#c4151b" stroke-width="1.1268"/>
 <path id="e" d="m232.33 59.03-1.1233-2.4379-1.3578 0.58463 0.96502 1.8533 1.3616 2.6153h1.3586zm2.7549 15.052-0.3876-8.9373h-1.9392l0.58338 8.9373zm-31.035 22.739h1.7467v-3.8878h-1.7467zm28.321-27.789-2.7167-1.3603-0.58085 1.5534 2.7144 1.3611zm-2.7167-28.569c0-0.9072-0.32347-1.6844-0.96844-2.3336-1.9417 1.2962-3.4926 2.2034-4.656 2.722 1.1633 0.90738 2.5218 1.3616 4.0728 1.3616 1.1633 0 1.6811-0.58463 1.5516-1.7499zm3.7405 5.416c-0.76509-0.12194-1.2575-0.68242-1.476-1.6869h-7.2e-4c-0.0864-0.39713-0.13022-0.8629-0.13022-1.3978 0 0.41174-0.20784 0.87623-0.62389 1.3953h-2e-3c-0.23955 0.29538-0.54771 0.60804-0.92449 0.93836 0.38759 0 0.97023 0.12715 1.7465 0.38759 0.57761 0.19254 1.0484 0.31465 1.4113 0.36345zm-33.03 50.165c-1.1666-1.2962-2.1343-1.9425-2.91-1.9425v2.0224l2.9741-0.0063c-0.0214-0.02467-0.0418-0.04952-0.0641-0.07366zm22.088-44.436c-2.671 1.6381-4.4088 2.4577-5.2126 2.4577 0.51798 0 1.2937 0.13022 2.33 0.38813 1.0324 0.13022 1.8076 0.19506 2.3261 0.19506 1.0356 0 1.8769-0.71089 2.5219-2.1381l0.44973-0.89963 0.52105-1.0421 1.1444 1.0421 2.5473-0.0012c1.8063-1.22 2.7079-2.6038 2.7079-4.1516-1.1633 1.6844-2.457 2.5269-3.8777 2.5269-0.77517 0-1.746-0.38886-2.9094-1.1658 0.25791-0.51906 0.3876-1.2308 0.3876-2.138l-3e-3 -0.22622c-1.5504 1.518-2.3255 2.499-2.3255 2.9457 0.6482 0 1.2937 0.19558 1.9417 0.58445-0.92576 0.60804-1.7739 1.1482-2.5447 1.6228zm25.05-41.852h-3.6852v1.7499h3.6852zm48.498 36.926h-4.853v-1.7499h4.853zm-8.342 1.1653h-6.7908v-1.943h6.7908zm10.475-1.1653c0.38831 0 0.71106 0.13094 0.96898 0.38813-0.5115-1.0236-0.98285-1.9848-1.4169-2.8776l-35.04 0.0012c4.0011 2.8255 6.2593 4.2379 6.7758 4.2379 0.2617 0 0.90593-0.26116 1.9417-0.77699 1.1626-0.64946 1.7472-1.103 1.7472-1.3611 0-0.1702-0.0922-0.27826-0.25791-0.33662 0.7008 0.11995 1.4936 0.60354 2.3889 1.5019 0.39138 0 0.90613-0.32329 1.5529-0.97276 0.64622-0.77698 1.1646-1.1653 1.5509-1.1653l2.3275 2.9152h-8.5331c-0.13039 0.13022-0.19578 0.3233-0.19578 0.5839 0 0.64677 0.51728 1.4239 1.5534 2.3311-1.9417 0-3.4932-0.58139-4.656-1.7497l-1.5523 1.7497c0.15507 0.15579 0.31266 0.31014 0.4735 0.46071h29.204v-4.5418c0.39156-0.25719 0.78039-0.38813 1.1666-0.38813zm-37.973-17.327 3.234-0.0038c-0.27628-0.36526-0.52915-0.54771-0.75933-0.54771-0.51907 0-1.1658 0.12716-1.9415 0.38832-0.19381 0.06484-0.37247 0.12121-0.53313 0.16318zm29.826 54.445-1.3604-0.96952 1.9417-2.5269 1.3596 0.77771zm-3.703-1.765-7.5483-7.5611h4.8492c0 0.38831-0.19378 0.90485-0.58085 1.5541-0.25917 0.64623-0.38938 1.1648-0.38938 1.5536 0.64622 0.38885 1.6824 0.77699 3.1032 1.1653 1.5547 0.38885 2.6526 0.77698 3.3006 1.1684-0.12951 0.12769-0.64803 0.38831-1.5542 0.77716-0.90664 0.38886-1.3603 0.71161-1.3603 0.97024 0 0.12392 0.0598 0.24963 0.17992 0.37228zm-5.4153-14.363h2.7155v1.7492h-2.7155zm4.0733 0h4.8524v1.7492h-4.8524zm7.1773 0h3.8815v1.7492h-3.8815zm4.0735 17.101c0.64982-2.722 0.9715-4.7952 0.9715-6.2184-0.64623-0.13094-1.2932-0.19578-1.9387-0.19578-0.38814 0-1.4245 0.19578-3.1063 0.58389-1.1246 0.26063-1.6698 0.43281-1.6355 0.51854 0.15705 0.04196 0.31464 0.06285 0.47403 0.06285-0.30113 0-0.458-0.02089-0.47403-0.06285-0.87929-0.2345-1.7542-1.1183-2.633-2.6559 0.51979-0.25808 0.84129-0.25808 0.9715 0 0.25808 0.3876 0.84002 0.58392 1.7461 0.58392 0.64551 0 1.3596-0.78022 2.1355-2.3338 0.77499-1.6844 1.3551-2.6571 1.7452-2.915 1.2917 0.64928 2.1325 0.97277 2.5186 0.97277v-21.501l-29.204 0.0025c2.1634 2.0586 4.7964 3.8541 7.899 5.3874-2.2022-1.0489-4.3447-1.5745-6.4307-1.5745l1.2308 3.6032 1.094 3.1992c1.0363 2.9804 2.3949 5.0524 4.0773 6.2184-1.5547 2.0727-2.3311 4.8575-2.3311 8.3571l-1.3578-1.5541c-0.90611-0.77716-1.8077-1.1691-2.7131-1.1691 3.4896 3.4997 5.2355 6.1568 5.2355 7.9688l-1.6094 6.655 22.551-5.41e-4c0.15832-1.0833 0.41946-2.3949 0.78419-3.9325zm-95.762 11.352h-2.9741v5.9459c1.6786-1.5567 3.8129-2.3344 6.3996-2.3344-0.51223-0.38381-1.6534-1.5896-3.4254-3.6115zm15.634 22.253c0.0425-2.072-0.0184-3.5575-0.18173-4.454-0.19434-1.0522-0.48233-2.0415-0.8647-2.9615l-41.948 6e-3c0.99004 2.6476 2.0624 5.1204 3.2176 7.4136l39.777-3e-3zm60.344 14.786-0.0254 0.0566-1.1412 2.4703 1.3586 0.58517 1.3589-2.7225-1.3267-0.33301zm-80.119-41.588-2.5224 2.5262 0.97151 1.1653 2.7169-2.722zm50.631-49.558-1.1646-2.915-1.5516 0.5839 1.3573 2.3311zm-17.84 9.5943h-2.5473l0.98988 0.89963c0.57759-0.28907 1.0972-0.58966 1.5574-0.89963zm12.796-10.567-1.1633-4.8573h-1.7467l1.1635 4.8573zm0.97095 27.208h-1.7467v4.86h1.7467zm-138.55 50.132h4e-3c1.1932-1.3623 1.7892-2.3949 1.7892-3.1007h-3.877v5.2489c0.82722-0.78851 1.5222-1.5021 2.084-2.1481zm156.98-62.373 1.1633-1.1684-2.7149-2.5264-0.97096 1.1685zm-12.027-12.44c0.90415 0.26116 1.6165 0.13094 2.1362-0.38831 0.51457 0.64946 1.0324 0.97275 1.5509 0.97275 0.25666 0 0.57941-0.1956 0.96773-0.58445l-6.012-1.1653c0 0.51907 0.45241 0.90738 1.3571 1.1653zm-4.8497 6.803c-0.77589-2.4615-1.8751-3.6922-3.2983-3.6922 0.90612 0.77698 1.3578 1.3609 1.3578 1.7497 0 0.38831-0.51726 0.64623-1.5496 0.77717-0.5178 0.13022-1.1012 0.25791-1.7474 0.38812-1.293-2.7219-2.5211-4.081-3.6844-4.081 1.4207 2.7202 2.5217 4.728 3.2976 6.0235 2.0687-1.0351 3.9418-1.4234 5.6244-1.1653zm113.67 70.158-0.16516-0.82471c-0.56806-0.22496-0.69629-0.14048 0.16516 0.82471zm83.967-4.4902c0.0196-0.15562 0.0292-0.27898 0.0292-0.36904 0-1.7753-0.24584-3.3473-0.73519-4.7114l-38.993 2e-3c-0.79229 2.9977-2.454 5.4718-4.9834 7.4173h50.459c-0.0807-0.3775-0.12193-0.76112-0.12193-1.154-2.0682 0.10874-3.9521-0.28457-5.6543-1.1849zm-172.42-55.369-0.61508-1.6424-0.5477-1.4652-1.5547 0.58084 1.3584 2.5267zm-0.97025 11.079c0.18552-1.1075-0.35445-1.8535-1.6145-2.2378l1.4219 1.2656c0 0.64946 0.0661 0.97222 0.19253 0.97222zm32.202 48.39-3.4901-1.3586v-1.3604l3.3522 0.9589 0.71988 0.20586zm-8.9214-3.6909c-0.7795-0.51654-1.6195-0.77698-2.5219-0.77698-0.41045 0-0.73123 0.0196-0.95816 0.0616l-0.0126 1.4924c0 0.39083-0.13093 0-0.38758-1.1666-0.0788-0.1556 0.0545-0.26421 0.40019-0.32581 0.0509-2.6013 0.23829-4.1751 0.57059-4.7273-0.021-0.0166-0.0406-0.033-0.0603-0.0457l-13.021-2e-3 13.021-1e-3c-1.3933-1.1372-2.408-1.8985-3.0447-2.2804 2.9755 0 4.5893-0.0654 4.8479-0.19757 0 0.61055 0.10863 1.436 0.32725 2.4812 0.34058 1.6266 0.94232 3.7786 1.807 6.4604l-0.96771-0.97203zm0 9.3299c-0.64874-0.25989-1.3596-1.0363-2.1335-2.3313-0.77968-1.4275-1.2301-2.1393-1.3591-2.1393 1.8115 0 2.9741 0.25935 3.4926 0.77717zm-3.6884-5.2476h-1.7422v-2.722h1.7422zm-1.5514 5.2476c-0.25611 0-0.84002-0.13021-1.7461-0.39011-0.90539-0.38704-1.6163-0.58336-2.133-0.58336-0.51203 0-1.1467 0.33229-1.9073 0.9931h1.8686l0.0388-0.0196 0.0121 0.0196 2.316 3.48-1.3578 0.96952-2.3261-3.694 1.3171-0.75556-1.8686 2e-3c-0.58464 0.50898-1.2409 1.2154-1.9709 2.1157-0.12338-0.54897-0.0304-1.2555 0.27826-2.1177l-16.386 2e-3c-0.047 0.86596-0.36921 1.8947-0.96592 3.0885h-6.787c0-1.5325-0.25106-2.5599-0.75176-3.0904h-6e-3c-0.26367-0.27251-0.59219-0.40975-0.98878-0.40975 0.51853 0 3.297-0.84182 8.342-2.5264 0.77446 0.77716 1.1626 1.6845 1.1626 2.7189 0 0.0725-2e-3 0.14481-6e-3 0.21721l16.386-2e-3c0.34562-0.97222 0.96519-2.1458 1.856-3.5175-0.2815-1.3991-0.0586-2.6973 0.66711-3.8981h5.5e-4c0.28475-0.46323 0.64244-0.91441 1.0763-1.349-0.64604-0.90792-0.96951-1.6844-0.96951-2.3331 1.1646 0 2.5224 0.77916 4.074 2.3331 0 0.11179-0.52736 0.55923-1.5813 1.3458h-3e-3c-0.16966 0.12518-0.35211 0.26062-0.54969 0.40344-1.2935 0.90811-2.0046 1.4239-2.1348 1.5542 2.0702 0.51979 3.7513 0.71178 5.0437 0.58517v4.8582zm-7.1773 6.2191-1.1647-2.5276 1.3598-0.58139 1.3591 3.109zm-10.477 2.3331h1.7461v2.7207h-1.7461zm2.7182 3.1088-1.7472 5.0538-1.5498-0.58138 1.7474-4.4724zm-6.7897 4.081 2.5224-2.3311 1.1628 0.97204-2.7142 2.5276zm-0.97078-8.9398-5.8202-1.1646v-1.7504l5.8202 1.1653zm-12.606-3.1108-3.4933-1.3622v-1.5541l4.0735 1.3622zm15.78-11.09-0.45623-2.9017-1.7467 2.1386c-0.77518-0.26042-1.3596-0.39083-1.746-0.39083-0.27772 0-0.45568 0.0668-0.53366 0.19902 0.5515-2.1318 1.9601-4.1401 4.2176-6.0298 1.5222 2.8313 2.8172 5.1586 3.8815 6.9847h7.2e-4c0.20263 0.34688 0.39569 0.67414 0.58139 0.98356-2.9743 2.5917-4.8505 4.0841-5.6251 4.4717-0.90595-0.90721-2.0707-1.3604-3.4914-1.3604 0.77519-0.77698 1.164-2.0089 1.164-3.6935l1.9372 0.5821c0.90666 0.26044 1.5516 0.19505 1.941-0.19253zm2.2569-9.3153h2.9087v1.7499h-2.9087zm8.9238 4.8575c-0.25594-0.64676-0.64478-0.97077-1.1628-0.97077 1.9392 0 2.9102-0.32601 2.9102-0.97276 0 1.4275-0.58266 2.5923-1.7474 3.4997 0.25989-0.51853 0.25989-1.0383 0-1.5561zm-1.7452 0.97275c-0.7759 0.13022-1.4868 0.51782-2.1337 1.1646 1.2924 1.297 2.6528 1.945 4.0753 1.945l-0.21018 0.37552-2.5073 4.4825c0-0.71917-0.52609-2.2148-1.5846-4.4825l-2.5937-2e-3 2.5937-3e-3c-0.46648-1.007-1.0363-2.1679-1.7137-3.4793h4.0742zm-35.691 25.267h-1.7474v-2.722h1.7474zm-8.342 3.3053c0.12464-1.6546-0.11941-2.4965-0.74078-2.5256 0.25918 0.0114 0.63541 0.14158 1.1284 0.3876 0.64623 0.13022 1.0333 0.19181 1.164 0.19181l2.9102-2.1355c0.775 1.293 1.1626 2.2658 1.1626 2.9165-2.1989 0-4.0728 0.38758-5.6244 1.1653zm-0.97077-7.582 2.7149 1.3622-0.58066 1.3586-2.5224-1.166zm-4.0728 1.1666h-1.9417v-3.6935h1.9417zm-3.105-0.97222h-1.9387v-2.7212h1.9387zm0 6.2223h-1.9387v-3.8892h1.9387zm-3.1045-6.2223h-1.9392v-2.7212h1.9392zm-2.1318 7.969c-0.77825 0-1.5534-0.4544-2.3293-1.3591 1.6813 0 2.5218-1.6197 2.5218-4.86 0 1.4257 0.51782 3.1756 1.5511 5.2494-0.64568 0.64551-1.2289 0.9697-1.7436 0.9697zm-4.4641-3.4966-1.3578-0.77698 1.166-2.5276 1.5509 0.58211zm-4.8479 2.7189h-1.7467v-8.3584h1.7467zm-11.639-20.019c1.809 0 3.3631-0.64676 4.6561-1.9437-0.5178 0.51673-0.64802 1.1666-0.39083 1.9437 0.39083 0.77698 0.84074 1.1646 1.3586 1.1646-2.1991 0-4.0728-0.3876-5.6238-1.1646zm-6.207-0.97275c-0.39065 1.2948-0.97077 2.1373-1.7465 2.5262v-6.024c1.164 0.9081 2.0694 1.3586 2.7142 1.3586-0.13022 0.13093-0.45224 0.84253-0.96772 2.1393zm106.69-15.937c-0.77645 0.65-1.4207 0.97275-1.9385 0.97275-1.4239 0-2.9755-0.84254-4.6574-2.5269 0.20642-0.42704 0.40416-0.84073 0.59472-1.2442h5.3e-4c1.5727-3.3262 2.597-5.7996 3.0683-7.4206h-2.3039l-0.19505 0.697h-1.7465l0.16641-0.697-4.2374 0.0033c2.3648 1.9081 3.7857 2.9819 4.2666 3.2201v4.86c-0.12013-0.20658-0.26367-0.42758-0.43388-0.6646h-6e-3c-1.2868-1.7537-4.0525-4.2228-8.302-7.4188h-7e-3c-0.12264-0.09149-0.2453-0.18299-0.37047-0.27575 0.0603 0.09096 0.11815 0.18047 0.17596 0.27575h3e-3c2.1049 3.2666 3.7938 5.7395 5.0664 7.4188h7.1e-4c0.93205 1.2319 1.6411 2.0358 2.126 2.4125-2.3275 0.26116-4.2037 0-5.6251-0.77716-0.13022 0.13022-0.19561 0.32275-0.19561 0.58336 0 0.51961 0.51908 1.2968 1.5516 2.3311-0.38705-0.12697-1.2276-0.90738-2.5226-2.3311-1.0324-1.0376-2.0687-1.5541-3.1018-1.5541-0.51654 0-0.90612 0.38939-1.1628 1.1666-0.26117 0.64677-0.71485 0.96898-1.3591 0.96898-1.983 0-3.2423-0.93098-3.7779-2.8001h-7.2e-4c-0.19505-0.68747-0.29484-1.5034-0.29484-2.4457 0-0.64605 0.32276-1.6188 0.96898-2.9145 0.64694-1.427 0.97023-1.6849 0.97023-0.7777 1.9385 2.5925 3.105 4.5342 3.4934 5.8302 0-2.0192-0.74151-4.3872-2.2207-7.1112h-3e-3c-0.32148-0.59346-0.6799-1.2028-1.0725-1.8299 1.5496-0.90721 3.7487-1.3609 6.5946-1.3609 0.90612 0 2.457 0.90793 4.6554 2.7225 0.20011 0.1621 0.3939 0.3197 0.58266 0.46828h4.2374l1.0002-4.1605h1.9378l-1.1628 4.1605 2.3039-0.0025c8e-3 -0.02594 0.0159-0.05205 0.0236-0.07745l0.087 0.07997 2.0453 1.863c0-0.47782 0.21216-1.0987 0.63596-1.861h7.2e-4c0.14859-0.26872 0.32527-0.55527 0.52789-0.85911-0.77446 0-1.6163-0.51907-2.5217-1.5534-0.9036-1.1685-1.356-2.1381-1.356-2.915 0-0.56301 0.0603-1.2613 0.18297-2.093h-22.551l-1.7917 7.4186-1.061 4.3892c0.70908 0.81085 1.1392 1.8186 1.2942 3.0296 0.0432 0.33481 0.0648 0.68621 0.0648 1.054 0 1.0345-0.19452 2.2658-0.58391 3.6909 0-0.64802-0.64316-1.6836-1.938-3.1096-2.1471 2.1526-4.1223 4.0778-5.923 5.78h-3e-3c-1.666 1.572-3.1814 2.9482-4.5475 4.1325-1.3647 1.2427-2.6775 2.3344-3.9355 3.2842h-8e-3c-3.8262 2.8655-7.1708 4.36-10.036 4.4814 0.39389-0.0324-1.3483-0.15957-5.226-0.38075-2.4563-0.13076-4.2671 0-5.4311 0.38759-0.12967-0.13022-0.19505-0.32204-0.19505-0.58319 0-0.25917 0.0654-0.58138 0.19505-0.97096 0.25737-0.5178 0.38813-0.84236 0.38813-0.97275 0-0.3876-0.26043-0.58319-0.77571-0.58319-0.64803 0-1.2282 0.19559-1.7467 0.58319-0.38814 0.25935-0.84057 0.38957-1.3584 0.38957-1.0318 0-2.917-0.78221-5.6563-2.3452-1.7211-0.9823-3.7804-2.2733-6.1777-3.8745-0.77518 0.64677-1.1635 1.6188-1.1635 2.9156 0 0.32095 0.0268 0.63992 0.0789 0.95889h5.5e-4c0.24476 1.4735 1.0592 2.9017 2.4432 4.2869h-3.881c0.0966-1.6356 0.15687-3.0663 0.18174-4.2869l-39.777 3e-3c1.3686 2.7205 2.8529 5.1929 4.454 7.4154h28.159v-0.9931l-2.9094-0.58067h4.4604c0 0.21343-0.17722 0.73826-0.5324 1.5738h35.293l0.15885-0.79678h1.746l-0.11815 0.79678-0.46522 3.0905h-1.9378l0.61634-3.0905-35.293 3e-3c-0.0737 0.17344-0.15435 0.36039-0.24279 0.55977-0.51529 1.1666-0.77571 1.8769-0.77571 2.1393v-2.7029l-28.159 6e-3c2.0738 2.8859 4.3415 5.3582 6.8055 7.4148h62.006l-1.2739-0.63795 1.3596-2.5274 1.5511 0.38939-1.2937 2.776-0.0648 0.13848-0.27826-0.13848-62.006 5e-3c1.3672 1.1437 2.7949 2.1597 4.2824 3.051 0-0.64622 0.19559-1.3622 0.58319-2.1393 0.64568 3.2392 2.0689 5.9617 4.266 8.1666l5.2386 5.2463c0-1.4277 0.32294-2.4615 0.97097-3.1115 0.25738 0.39263 2.3922 1.7499 6.3996 4.0843 4.1381 2.2009 6.4675 3.3039 6.9853 3.3039 0.516 0 0.77573-0.13022 0.77573-0.3894 0-0.13093-0.13022-0.3222-0.38742-0.58337-0.13039-0.38938-0.19578-0.64675-0.19578-0.77698 0.13023-0.25863 0.38814-0.38957 0.77573-0.38957 0.51798 0 3.623 1.7499 9.3122 5.2469l2.1341-2.1354c0.25737 0.25719 0.19253 0.71214-0.19505 1.3589-0.12771 0.51799 0.25989 0.77644 1.1635 0.77644 3.3624 0 5.4311-1.0356 6.2101-3.1076 1.293 2.072 2.4565 3.1076 3.4888 3.1076 0.90613 0 1.3591-0.38939 1.3591-1.1658 0-0.64677 0.45298-0.96952 1.3591-0.96952 0.51726 0 0.90414 0.19235 1.162 0.5812 0.25862 0.26116 0.71106 0.38832 1.3598 0.38832 5.5588 0 9.5034-0.25738 11.831-0.77717l17.073-5.6345c-0.26116-0.39192-0.38688-0.84254-0.38688-1.3609 0-0.5198 0.19128-1.4272 0.58013-2.7232 0.51781-1.295 0.77573-2.2658 0.77573-2.9145 0-0.7777-0.51583-1.9442-1.5509-3.4984-1.0363-1.5561-1.5522-2.4633-1.5522-2.7227 0.51582 0 1.0979 0.19577 1.7472 0.58516 0.64497 0.25683 1.0326 0.38759 1.1615 0.38759 0-0.66332 0.10738-1.2885 0.31824-1.8857h7.2e-4c0.28403-0.79481 0.76041-1.5275 1.4282-2.1971 1.5516 0.90721 2.7805 1.4906 3.6859 1.7492 0 0.13725-5e-3 0.28277-0.0141 0.44091-0.0591 1.0198-0.31519 2.4271-0.76113 4.2246-0.51529 1.9309-0.77446 3.4107-0.77843 4.449 6e-3 -1.0268 0.32978-1.8623 0.97024-2.5035 0.12968 0.12841 0.45441 0.71159 0.97095 1.7479 0.51907 0.90738 0.97151 1.3603 1.3596 1.3603 3.4157-2.2816 6.6479-5.3758 9.6953-9.2734h2e-3c0.0648-0.0832 0.13093-0.16642 0.19379-0.24963 1.9513-2.5327 3.3948-4.9241 4.3372-7.1722 0.74456-1.7804 1.1734-3.4723 1.2865-5.0734h4.0773c0.46827-0.77644 0.91567-1.5561 1.342-2.3439h1e-3c1.3204-2.4271 2.4404-4.9012 3.3617-7.4206 0.67037-1.8382 1.2364-3.7005 1.6934-5.5875h-6.5939c-0.51799 0-1.2289 0.32203-2.1343 0.96898zm-73.066-62.151h-3e-3c-0.21342-0.32654-0.49296-0.66334-0.83858-1.0097 0.0958 0.35266 0.18048 0.69018 0.25215 1.0097l0.0457 7.1e-4h-0.0457c0.19704 0.87173 0.30565 1.6258 0.32726 2.2625l0.77968-0.74653c0-0.4791-0.17218-0.98231-0.51672-1.5167zm39.509 25.033c0.74079 0.03765 1.3667 0.13346 1.8749 0.28853l-0.32403-0.28853zm-60.495 34.318h0.37355c-0.0814-0.0992-0.1513-0.20155-0.21037-0.30763-0.0527 0.10608-0.10682 0.20911-0.16318 0.30763zm264.56 2.4125c2.0739-0.98932 3.5441-1.7874 4.4103-2.4062h8e-3c0.26565-0.18748 0.47476-0.35769 0.62659-0.50951-1.4207-1.4239-2.7798-2.1381-4.0735-2.1381-0.41929 0.84379-0.70782 1.7244-0.86271 2.6413l0.95798 1e-3 -0.95798 5.4e-4c-0.1304 0.77716-0.16588 1.579-0.10874 2.4107zm8.1488-100.09h-2.133v1.5572h2.133zm-3.1038 70.936-1.9405 2.1373 0.77571 0.77771 2.135-2.1386zm-26.756 34.538 0.95673 1.4131c-0.34815-0.5668-0.66712-1.0376-0.95673-1.4131zm10.486-0.38183h6e-3c0.11815 0.0801 0.2345 0.16083 0.35643 0.2408 0.21092 0 0.38687-0.0769 0.52862-0.23324h9e-3c0.28907-0.31699 0.43208-0.95114 0.43208-1.9036 0 0.38885-1.0326 0.58463-3.1045 0.58463 0.54645 0.43334 1.1354 0.86974 1.7721 1.3114zm12.392-53.592c0.25863-0.25863 0.51601-0.64694 0.77518-1.1653 0.38705-0.64694 0.71106-1.1004 0.96772-1.3616v3.3033l-5.6231-1.1653c2.1991 0 3.4926 0.13022 3.8802 0.38885zm0.19128 12.828c0 4.4038 0.0674 6.8648 0.19758 7.3839-0.6493 0.38885-1.3596 0.77699-2.1355 1.1653-0.38687-1.5541-1.3571-3.757-2.9087-6.6067 1.938 0 3.5544-0.64675 4.8467-1.9425zm-30.454-21.766c0.54643 1.0682 1.0396 2.1285 1.481 3.1802l18.136-7e-3c0.1475-0.17218 0.33355-0.25792 0.55923-0.25792 0.12823 0.08646 0.25538 0.17344 0.37732 0.26494h7e-3c0.60552 0.42955 1.1233 0.85767 1.5536 1.2885-1.9379 0-2.9107 0.19632-2.9107 0.58463 0-0.93025 0.13778-1.5567 0.41353-1.8731l-18.136 0.0025c1.0504 2.5116 1.8032 4.9827 2.2594 7.4161h7.2e-4c0.35265 1.8674 0.52662 3.7106 0.52662 5.5304 0 0.50898-0.16569 1.0471-0.50068 1.6125 0.72565 2.2099 1.1527 3.9407 1.2771 5.1898-0.38813 0.38832-1.0356 0.58464-1.9398 0.58464-0.9054-1.0381-1.6813-1.5574-2.3293-1.5574 2.9743 2.4615 5.1096 7.5802 6.4021 15.355 0.16642 1.0293 0.32599 2.0141 0.47711 2.9602h7.2e-4c0.46702 2.8808 0.87099 5.3519 1.2161 7.4186h1e-3c0.68243 4.0659 1.1258 6.5375 1.333 7.4188h1e-3c0.0286 0.12266 0.0535 0.21468 0.0731 0.27322l-6.012 2.7225c1.4214 0 2.1343 0.51979 2.1343 1.5541 0-0.77698 0.58067-1.7497 1.746-2.9145 1.0345 0.5178 2.0702 0.77716 3.1027 0.77716 0.51907 0 1.0356-0.0636 1.5514-0.1938-0.38759-0.38758-0.64604-0.77716-0.77573-1.1647 0-0.26045 0.32347-0.38939 0.97078-0.38939 0.25863 0.38939 1.4252 0.97077 3.4934 1.7479 2.1966 0.64875 3.6191 0.97276 4.264 0.97276 2.3306 0 4.7222-0.64695 7.1791-1.9437 0-0.47836 6e-3 -0.95996 0.0186-1.4416l-8.8732-2e-3 8.8732-2e-3c0.0648-2.3758 0.28456-4.8449 0.65955-7.4105h5.3e-4c0.0882-0.60607 0.18677-1.2181 0.29286-1.8344-1.0362 0-2.4576-0.58067-4.2684-1.7492-1.6818-1.2961-2.5224-2.4608-2.5224-3.4964 0-0.11113 0.0114-0.22675 0.0329-0.3431l-6.8201-2e-3 6.8201-0.0018c0.15183-0.85137 0.85336-1.901 2.1011-3.1521 0.1304 0.13023 0.1945 0.58392 0.1945 1.3609 0 0.77716 0.38886 1.1653 1.1646 1.1653 0.51727 0 1.2917-0.25792 2.3261-0.77645 1.1628-0.64928 2.004-0.97276 2.5206-0.97276l4.0881-27.296-25.539 7.22e-4c-0.14624 1.3184-0.42956 2.1901-0.85532 2.6146-1.1653 0-2.4588-0.71232-3.8802-2.1388 0.16913-0.13922 0.37625-0.29484 0.6221-0.47079h8e-3c0.89334-0.61632 2.3002-1.4315 4.2203-2.4437 0 0.9353-0.0382 1.7487-0.11436 2.4379h25.539l1.1106-7.4186 1.1112-7.4193-36.43 0.0033c-0.0616 2.6609-0.17291 4.0728-0.33428 4.2359zm9.1253 69.949 3.1254-6e-3c0.0903-0.2878 0.21162-0.60677 0.35895-0.95312h-4.072c0.17416 0.32798 0.37227 0.65074 0.58769 0.95889zm3.344-7.4193-0.44289-1.5071-1.3584 0.38831 0.4472 1.1188 0.71935 1.795h1.1626zm-100.35 11.068c1.5459-1.4722 2.6285-2.6878 3.2513-3.649 0.4173-0.64875 0.62641-1.1811 0.62641-1.5979h-0.71791c0.1232 0.18733 0.24711 0.37535 0.37859 0.59076l-0.39966-0.59076h-3.1387zm-1.3088-6.5979 0.77572-0.1956c0.6437-0.25737 1.2282-0.38759 1.7467-0.38759 0.34112 0 0.79859 0.36921 1.3699 1.112-1.11-1.612-2.0199-2.8255-2.7295-3.6389 0 1.4257-0.38705 2.4615-1.1628 3.1101zm3.8923 0.52879 0.55526 0.82218h0.0211c-0.20207-0.30635-0.39713-0.58966-0.57633-0.82218zm121.18 14.288c-0.51978 1.1685-0.84056 1.8148-0.97078 1.945 1.941 0 2.9736 0.0654 3.1038 0.19254 0-2.2011-0.25665-3.5613-0.77517-4.0818-0.3876 0-0.84129 0.64695-1.3578 1.9443zm-28.502-18.906c-0.0885-0.12825-0.17362-0.25288-0.25809-0.38183l-5e-3 7.2e-4c-0.99058-1.4221-1.8135-2.5085-2.4666-3.2571 0 1.4252-0.38831 2.4596-1.1628 3.1095l0.77446-0.19558c0.64623-0.25684 1.2289-0.38886 1.7474-0.38886 0.27629 0 0.6302 0.24584 1.061 0.73124l0.0171 2e-3 -0.0171 1e-3c0.099 0.11257 0.20263 0.23901 0.30889 0.37805zm19.969 25.516-1.3591-0.58335 1.1646-2.7225h1.1628zm6.0112-1.5561 0.97024 3.5004h-1.3586l-0.97077-3.5004zm7.1778 17.688c-0.38632 0-0.51654 0.38885-0.38632 1.1666 0 0.50141 0.11563 0.91242 0.33104 1.2499h-6e-3c3e-3 3e-3 8e-3 6e-3 0.0101 0.0102 0.0127 0.0184 0.0166 0.0437 0.0292 0.0623h0.0319c0.0996 0.12516 0.2046 0.24709 0.33986 0.34743-1.0344 0.25736-2.2009 0.32293-3.4934 0.19522-1.4212-0.38884-2.457-0.58533-3.1025-0.58533-0.10604 0-0.21468-0.0102-0.32347-0.0337h-0.1702c-0.49998-0.17596-1.0331-0.5812-1.6024-1.246-0.64371-1.0362-0.97024-1.9435-0.97024-2.7205-0.51402 0.38939-1.0326 0.5812-1.5504 0.5812-0.25863 0-0.51835-0.12697-0.77518-0.3874 1.5491-2.3313 2.52-4.1459 2.9089-5.4427 0.77572 2.204 1.3576 3.8885 1.7465 5.0531 2.3268-0.90737 4.2032-1.5541 5.6238-1.9417-0.77465-2.7225-1.2289-4.8613-1.3553-6.416-1.9417-1.0345-2.9125-2.0078-2.9125-2.9152l3.1038-2.1373v-4.2774c-0.51654 0-1.0318 0.26114-1.5509 0.77896-0.38707 0.51582-0.71233 0.77697-0.97024 0.77697-0.32546-0.6988-0.59165-1.3292-0.80131-1.889l-6.0474-2e-3 6.0474-5e-3c-0.37101-1.007-0.55652-1.8005-0.55652-2.3819 0-2.2029 0.64622-3.6268 1.941-4.2774 1.0326 0.52032 1.7467 0.77697 2.133 0.77697v-1.5325l-27.601 6e-3c-0.0743 2.7423 0.52556 4.292 1.8 4.6388-0.775 0-1.8742 0.45315-3.2969 1.3611-1.4214 0.77698-2.4577 1.2319-3.1025 1.3584 1.5351-2.9673 2.8851-5.4236 4.0479-7.364l-11.418 3e-3c0.25809 1.3515 0.38831 2.1863 0.38831 2.5015l0.19181-0.74655v5.6619l18.213-6e-3c-0.24459-0.4454-0.36796-0.85135-0.36796-1.2154 0-0.52031 0.13093-1.1017 0.38759-1.7499 0.38831-0.7777 0.58336-1.3591 0.58336-1.7467 1.5509-0.52033 2.5872-0.78076 3.1032-0.78076l-1.5524 1.5579c0.38705 0 0.77644-0.13273 1.1628-0.38957 0.51978-0.38759 1.1017-0.58517 1.7467-0.58517 1.1646 0 1.7472-0.25719 1.7472-0.77517 0-0.26242-0.13076-0.51961-0.38687-0.77699l1.3571 0.77699c0.90613 0.51798 1.6806 0.77517 2.3268 0.77517 0.64874 0 1.0992 0.64695 1.3596 1.9443-0.88882 1.0509-1.6437 2.0402-2.2701 2.9692h-7.2e-4c-1.3724 2.0376-2.1024 3.7689-2.1914 5.1948l-1.7458-1.5536c-0.51708 0.51656-0.77572 1.0364-0.77572 1.5542-1.6793 0-2.5199-0.58265-2.5199-1.7492 0-0.13093 0.0603-0.25808 0.19056-0.3883-0.13022-0.51962-0.58012-1.1666-1.3584-1.9435-0.34004-0.3966-0.60425-0.77014-0.79552-1.112h-18.213v22.183h-0.0388v0.81139c0.48988 0 1.0929 0.28979 1.8146 0.87117 0.4373-0.14301 1.9671-0.43262 4.5868-0.87117h32.007c1.1622 2.4615 2.7785 2.3344 2.9094 1.5536 0.25792-0.64622 0.51907-1.0992 0.77519-1.3578 0.0985 0.049 0.17668-0.37103 0.17398-0.93278h0.0407c-0.0165-0.91801-0.24963-2.1735-0.95115-2.4869zm-114.99-37.17c0.64928 0 0.97078-0.7116 0.97078-2.1386 0 0.38958-1.0326 0.58517-3.1045 0.58517 0.64748 0.51601 1.3585 1.0338 2.1337 1.5534zm-303.44-40.181c0-2.3344-0.38759-5.831-1.1628-10.495-0.31447-2.3299-0.55204-4.3689-0.71468-6.1143l-9.2957 0.0063c-0.17975 1.581-0.27071 3.0334-0.27071 4.358v16.129c4.1383 1.0383 7.2408 1.6844 9.3096 1.9455 1.4239-0.51907 2.1343-2.4613 2.1343-5.8295zm411.25-32.457v-1.3616l1.9417-0.96952 0.58066 1.1658zm-6.2058-6.0226h-3.1063v-1.3616h3.1063zm-5.82-2.7227-1.1628-0.58391 1.9379-3.8847 1.1626 0.38831zm-1.5511 9.5224v-1.1653l1.9379-1.166 0.38832 1.3611zm-2.7182-3.1083h3.2983v1.5541h-3.2983zm18.817-2.1381c-0.77571-0.64928-1.5522-0.97275-2.3268-0.97275-0.775 0-1.5547-0.58066-2.3299-1.7492-0.64423-1.2955-1.0979-2.0071-1.3553-2.1381 1.2899-1.4232 2.5226-2.1355 3.6852-2.1355 1.9387 0 3.1681 0.32348 3.6846 0.97024v-3.3332l-11.883 2e-3c-0.0325 0.60607-0.14606 1.1341-0.3386 1.5815-0.0744-0.44991-0.27773-0.976-0.61507-1.5835h-3e-3c-0.82092-1.476-2.4271-3.4094-4.813-5.8004 0.26188 0 0.77645 0.13022 1.5524 0.38832 0.77697 0.26042 1.4219 0.38885 1.941 0.38885-0.9054-1.4239-2.0053-2.1388-3.297-2.1388 0-0.77698 0.38832-1.619 1.1628-2.5262 0.90541-1.0358 1.746-1.5536 2.5212-1.5536 0.77644 0 1.295 0.19506 1.5511 0.5839l0.77643 1.1653c0-0.51836-0.32274-1.2961-0.96771-2.3337-0.64875-1.1653-0.97023-2.0732-0.97023-2.7194 0.12894 0 0.64495-0.25737 1.5504-0.77716 1.0356-0.64928 1.9417-0.97203 2.7175-0.97203 1.1628 0 2.8439 0.90667 5.0423 2.722 2.3275 1.6844 3.4921 3.0422 3.4921 4.0803 0 0.51852-0.64622 1.7492-1.9405 3.6922-1.1628 1.8148-1.7467 3.1108-1.7467 3.888-1.2923-1.4264-2.26-2.5269-2.9087-3.3041-0.77573 0-1.1628 0.51601-1.1628 1.5542-0.26042 0-1.4898-0.51908-3.6864-1.5542-0.13022 0.2581-0.19559 0.64695-0.19559 1.1653 0 0.51907 0.0653 1.166 0.19559 1.943 0.13094 0.78598 0.17867 1.4893 0.143 2.1082h11.883v-19.599l-0.58139 0.38884c-0.25989 0.2581-0.7116 0.38832-1.3571 0.38832-0.64875 0-1.3598-0.45369-2.135-1.3611-0.77373-1.0349-1.3576-1.6195-1.7465-1.7465 1.4212-1.2957 3.6864-2.4648 6.7902-3.4991-1.6813 0-4.1396-0.065379-7.3729-0.19632-3.2317-0.12715-5.6892-0.19254-7.3705-0.19254-0.38687 0-0.64676 0.13094-0.77518 0.38886 0 0.13022 0.0656 0.32347 0.19379 0.58391 0.2599 0.12769 0.38633 0.25791 0.38633 0.38885 0 0.25737-0.25665 0.38831-0.77572 0.38831-2.0674 0-5.1701-0.26116-9.3108-0.77716-4.1376-0.64928-7.2401-0.97277-9.3108-0.97277-1.6806 0-2.9743 1.8769-3.8797 5.6345 0.15957 7.9467 0.2707 14.675 0.3305 20.183l4.8155 7.22e-4 -4.8155 5.4e-4c0.0388 3.3848 0.0566 6.3088 0.0566 8.7734 0 2.4633-0.0178 4.4857-0.0527 6.0628h36.43l0.67415-4.5061c-0.12825 0-0.64551-0.32598-1.5509-0.97275zm-116.73 78.66h1.1648l-0.97097-3.3019-1.3603 0.3874zm82.783-48.926 1.1666-1.3611c0.26747-0.31248 0.48864-0.61686 0.66263-0.91369l-0.0832-0.25161c-0.25592 0.51925-0.83983 1.3604-1.746 2.5264zm-264.01 5.4419 0.58319 1.3611-8.9245 5.6339-0.38759-1.5536zm-24.249 9.1336h-2.9102v-1.9423h2.9102zm-85.353 9.1329c0.77771-1.2955 1.1658-2.265 1.1658-2.9145 1.6813 1.2957 3.0364 2.2684 4.0722 2.9145zm0.19506 8.7455h-1.9392v-4.0805h1.9392zm9.6989-93.476h-1.746v-2.9152h1.746zm-8.148 34.787-3.2976-7.9683 1.5516-0.58446 3.4919 8.5527zm1.746 5.4414h-1.939v-3.888h1.939zm-2.9093 2.5262h1.7467v2.9152h-1.7467zm2.9093 7.1888h-1.939v-2.9152h1.939zm-6.2063-47.418h1.746v2.915h-1.746zm4.0722 23.514h-1.9387v-12.629h1.9387zm1.3589-18.268c0 0.64694-0.19632 1.5541-0.58318 2.7227-0.25738 1.1653-0.3876 2.0732-0.3876 2.7194-1.1633-0.77716-2.1343-1.166-2.91-1.166 0-0.26042 0.58318-0.97203 1.7467-2.138 1.2935-1.1653 2.0039-1.88 2.1341-2.1381zm-8.3411 2.1381c-4.2685 0-6.7904-0.25792-7.5661-0.77645h3.4933c0.90216-2.8496 1.3551-6.7374 1.3551-11.66 0 0.25737 0.25989 0.38831 0.77843 0.38831 0.6455-0.13094 1.0331-0.13094 1.1633 0 0.51798 0.12698 0.77591 0.58139 0.77591 1.3576zm71.193-1.3609 3.8777 2.5269-0.96772 1.5534-3.8802-2.5262zm5.8194 6.803 1.3558 3.1108h-1.5509l-1.3591-2.5269zm35.36 28.832 5.785-0.0025c-7e-3 -0.02233-0.0145-0.04521-0.0216-0.06736 0.0208 0.02415 0.0425 0.04755 0.0648 0.07241h1e-3c1.2898 1.3775 3.0784 2.0657 5.365 2.0657 0.7759 0 2.0035-0.25809 3.6846-0.77717 0.43261-0.15435 0.83803-0.28961 1.2181-0.40722 0.72998-0.6709 1.6818-0.85965 2.856-0.56554-0.688 0-1.6406 0.1893-2.856 0.56554-0.23377 0.21541-0.44541 0.48034-0.63415 0.79554-1.4239 1.9423-2.7174 3.239-3.8802 3.8885 0.3876 0.2572 0.97079 0.38813 1.746 0.38813 0.77519 0 1.7462-0.13093 2.9102-0.38813 1.293-0.26188 2.1989-0.26188 2.7142 0l-10.085 2.5262c-0.0922-0.09205-0.22046-0.31394-0.38508-0.67289h-2e-3c-0.52808-1.1347-1.4252-3.6095-2.6953-7.4186l-5.785-0.0025zm15.803-22.254 0.82291-1.7198 1.5516 0.58389-0.54465 1.1359 11.843-0.0056c1.9088-1.863 2.8617-3.6637 2.8617-5.4064h5.0437c-3.1548 2.4316-5.7395 4.2341-7.7549 5.412h10.909-10.909c-0.13275 0.07817-0.26295 0.15326-0.39065 0.22567 0.0812-0.07691 0.16137-0.15453 0.24008-0.22567h-11.843l-1.7822 3.7216-1.5509-0.58138 1.5032-3.1402zm4.7039-7.7434c0.64478-1.2955 1.0324-2.1381 1.1633-2.5262v3.3033c-0.38831 0-1.0986-0.19578-2.1343-0.58389-1.0356-0.51601-1.7467-0.77716-2.1343-0.77716 1.6813 0 2.7176 0.19578 3.1052 0.58389zm7.3703-0.97203h1.746l-1.1628 4.8575h-1.7467zm14.356-8.3566c0-0.38886 0.7759 2.269 2.3275 7.9683-1.0338 0-2.1996-0.58445-3.4908-1.7497-1.6806 1.1653-3.105 1.8794-4.2678 2.1381 2.0687-3.1108 3.8777-5.8956 5.4311-8.3566zm5.4313 19.047h-3.8802v-1.7492h3.8802zm-16.102 3.8845-4.6561-4.6642 1.1666-0.96951 4.4604 4.6642zm-2.5224 3.1108c-1.4202 0.25809-2.1337 0.842-2.1337 1.7499-0.77519 0-1.5509-0.45423-2.3266-1.3616-0.77589-1.0376-1.1635-1.9417-1.1635-2.722 0 0.38813 0.3876 1.1037 1.1635 2.1381 0.77572-0.38885 1.7467-1.7499 2.91-4.0803 0.77573 0.77698 2.0033 1.1651 3.6845 1.1651 0 1.6845-0.71035 2.7227-2.1341 3.1108zm-5.4313 14.186v6.2186c-1.1628-0.90739-2.0694-1.4227-2.7137-1.5529 1.6806-1.8153 2.586-3.3694 2.7137-4.6657zm-1.3558-12.436h-1.746v-2.9145h1.746zm-7.7605 23.904 3.6852-2.5269 0.97077 1.3584-3.6852 2.5264zm-2.7144 19.24h2.7137v1.7467h-2.7137zm7.9537 5.2456c-1.6818-0.38885-4.3995-1.1653-8.1488-2.3311 2.8439 0.12769 4.9133-0.26062 6.2063-1.1685-0.77519-1.5534-2.8446-3.3026-6.2063-5.2451h4.848c0.26042 0.51853 0.90611 1.4259 1.9417 2.7189 0.51781-0.38832 1.4855-0.51601 2.9093-0.38832 1.2937 0.13094 2.1991 0.45369 2.7144 0.97276-0.90541 0.90738-2.6488 1.3611-5.2355 1.3611 0 2.0725 0.32221 3.4336 0.97095 4.0803zm-10.476-22.932 1.356-2.7219 1.3584 0.58391-1.3584 2.7194zm-1.7467-2.5262-1.3584-0.58463 1.3584-2.7187 1.3586 0.58066zm54.317-49.751c1.8113-0.38886 2.7137-1.7497 2.7137-4.0836 0-0.64677-0.0623-1.293-0.19199-1.9423h3.4889c0.77896-0.13022 1.5549-0.19253 2.33-0.19253 6.3372 0 9.5046 2.5885 9.5046 7.772v3.6922h28.904c-11.253 0.64928-18.494 1.2301-21.727 1.7497 1.947 3.9031 3.614 6.9359 4.9973 9.1037h5e-3c0.91295 1.4252 1.7027 2.4716 2.3693 3.1402-1.6806 1.1653-2.9087 2.0076-3.6834 2.5269-0.9099-2.9152-1.6906-4.8054-2.3439-5.6671l-3.234 0.0064c-0.48414 0.14534-0.82473 0.21919-1.018 0.21919 0.0789-0.07438 0.15633-0.14804 0.23396-0.2237h2e-3c1.7823-1.7243 2.673-3.2697 2.673-4.637 0-3.4964-0.64604-5.2463-1.9378-5.2463-1.8108 0-4.5906 0.5198-8.3418 1.5542-3.6236 1.0376-6.3367 1.5541-8.1482 1.5541-2.457 0-5.8848-2.915-10.28-8.7453 1.1633-0.12715 2.3915-0.32347 3.6859-0.58084zm19.591 20.016-0.97024-1.1658 2.5211-2.5256 1.1635 0.96951zm29.877-5.2489h1.7422v2.7227h-1.7422zm-106.69 74.823 2.0833 0.69648 1.9888 0.6646-0.58265 1.3584-3.4894-1.1646zm-9.7004 3.6922c0.51152 0 1.0859 0.31519 1.7206 0.94737 0.37427 1.1138 0.76942 2.2238 1.1894 3.3287 0.0186 0.0508 0.0375 0.10177 0.0566 0.1468l41.948-3e-3c-0.88703-2.1444-2.2803-3.9438-4.1796-5.3924-3.0542-0.35318-4.991-1.0268-5.8016-2.023l-0.37354 2e-3c-1.0459 1.8674-2.6724 2.7983-4.8804 2.7983-0.90539 0-1.4888-0.25737-1.7467-0.77717-0.12968-0.64622-0.71034-1.0992-1.7461-1.3584-0.58066-0.1666-1.0266-0.38579-1.3413-0.66459h-6e-3c-0.17362-0.15129-0.30636-0.31898-0.39966-0.50322l-0.96771-1.9424-1.5511 1.7492c0.14173 0.25666 0.2707 0.49061 0.38829 0.69648l1.4493 3e-3 -1.4493 4e-3c0.41498 0.7534 0.67344 1.2319 0.77519 1.4346 0.25738 0.64695 0.0648 1.4232-0.58337 2.3313-1.2935-1.4239-3.1674-2.1375-5.6237-2.1375v-6.0233h4.0728c0-0.78022 0.0858-1.7904 0.25791-3.0301 0.0859-0.61759 0.1938-1.2917 0.32222-2.0231 0.51853-2.3336 0.77823-4.0828 0.77823-5.2481 1.2912 1.2955 2.5226 1.945 3.6859 1.945 0.77518 0 1.8731-0.326 3.297-0.97276 1.2606-0.63164 2.2645-1.0059 3.0141-1.1203l-26.958 0.0012c-0.89765 0.28656-1.8387 0.59418-2.8255 0.92324 0-0.3323 0.044-0.63596 0.13094-0.91747h1e-3c0.42378-1.3312 1.8661-1.9976 4.3282-1.9976 1.2937 0 2.5872-0.71179 3.8809-2.1381l3.8797 1.5567c-2.2232 0.42253-5.3549 1.2815-9.3955 2.5719l26.958-0.0038c0.17363-0.02791 0.33303-0.04124 0.47855-0.04124 0.16966 0 0.32527 0.01333 0.46756 0.04503h0.0121c0.60804 0.12139 0.96644 0.49313 1.072 1.1203 0 1.1658 0.0648 1.8769 0.1918 2.1379v-20.213c0-4.9998 0.95188-9.2384 2.8547-12.717h1e-3c0.31518-0.57616 0.65702-1.1309 1.025-1.6646-1.4239-0.51672-3.75-0.77716-6.9828-0.77716 0-0.73376-0.3458-2.3934-1.0376-4.9807h-1e-3c-0.0401-0.15057-0.0819-0.30366-0.12462-0.46071-0.6583-2.4118-1.0344-3.274-1.1354-2.626-8e-3 0.1639-0.0311 0.32078-0.0311 0.48792 0-0.2192 0.0127-0.3703 0.0311-0.48792 0.0744-1.6062 0.49494-3.055 1.2988-4.3307h1e-3c0.70152-1.1114 1.6806-2.0955 2.9379-2.9539 0.27772 1.1132 0.79877 2.0955 1.5619 2.952h5e-3c0.6556 0.73196 1.4918 1.3674 2.5058 1.9055h-3.2981c0 0.13094-0.19127 0.58392-0.57958 1.3609-0.26117 0.77716-0.3876 1.4265-0.3876 1.9425 0 0.74023 0.19506 1.476 0.58517 2.2105h3e-3c0.97096 1.8101 3.144 3.5886 6.5184 5.3341-0.11508 0.17397-0.37497 0.86649-0.78094 2.0795h-2e-3c-0.33031 0.98482-0.75735 2.3115-1.2802 3.9813 1.4416-1.5109 2.7003-2.8383 3.7774-3.9762l-1.398-0.0025 1.398-0.0038c1.0477-1.1138 1.9214-2.0541 2.6215-2.8198-0.90541-1.5549-1.42-2.785-1.5509-3.6929-1.9385 1.943-3.1045 2.9158-3.4921 2.9158 0.24782-0.86289 0.90161-2.1361 1.9659-3.8154l-1.7955-0.0012 1.7955-7.21e-4c0.0545-0.08573 0.11054-0.1747 0.16841-0.26296 1.1628-1.9455 1.8762-3.5645 2.1335-4.8607 0.64875 0.38885 1.2937 0.5839 1.9392 0.5839 1.1658 0 2.5219-0.45369 4.076-1.3609 0.25718-0.25792 0.0648-0.71161-0.58337-1.3611l-2.1343 1.9455c-1.0331-0.90792-1.8736-1.3616-2.5224-1.3616 0.30563-0.25412 0.60101-0.50195 0.88576-0.73951l-4.7584-2e-3 4.7584-0.0018c1.891-1.5999 3.3401-2.9087 4.3543-3.9209l2.3261 1.9455c0.3876-2.2034 1.8769-4.0836 4.4609-5.637 2.7169-1.6845 5.2393-2.5269 7.5661-2.5269 0.51781 0 0.84002 0.13022 0.97096 0.38813 0 0.13094-0.0656 0.32347-0.19578 0.58463-0.12698 0.25791-0.19181 0.45352-0.19181 0.58067 0 0.26169 0.32203 0.38885 0.97077 0.38885 0.90234 0 2.2607-0.12716 4.0728-0.38885 1.812-0.38831 3.1668-0.58067 4.0722-0.58067 1.0356 0 1.615 0.19236 1.746 0.58067 0.25916 0.90792 0.45368 1.427 0.5839 1.5574l0.77518-0.97277c0.64623-0.77717 1.3571-1.1653 2.1336-1.1653 0.64622 0 4.0086 2.265 10.085 6.799 1.2128 0.87874 2.3158 1.6698 3.3114 2.3713l35.04-0.0051c-2.4194-5.0125-3.6274-8.0668-3.6274-9.1653 0-1.2962 0.58265-3.0461 1.7474-5.2489 0.59273 0.95042 0.91241 1.6278 0.96375 2.0331-0.0604-0.8348-0.24079-1.6507-0.54122-2.4513h-2e-3c-0.48035-1.2681-1.2663-2.4894-2.3605-3.6623-3.4932-3.7576-5.3658-5.8302-5.6269-6.2191 0 0.64695-0.25846 1.3616-0.77518 2.1381-0.12644-4.6642-5.9497-9.4594-17.459-14.382-10.086-4.2761-18.039-6.4142-23.859-6.4142-6.207 0-15.259 0.77968-27.158 2.3338 0 1.5541-0.25791 2.5262-0.77572 2.9145-0.26062-0.26062-0.19505-0.71107 0.19254-1.3604 0.13021-0.51925-0.25811-0.77716-1.1635-0.77716-1.6811 0-5.5613 1.619-11.638 4.8568-4.914 2.5925-8.7294 4.8607-11.446 6.803 0 0.1304 0.19506 0.77717 0.58264 1.9424 0.13023 0.90722 0 1.5567-0.38758 1.9448-3.105-0.1295-4.914 0.06611-5.4318 0.58139-3.0618 2.8217-5.7984 5.923-8.2129 9.3h4.3352l2.3268-2.6895c0.34562 1.1532 0.79031 2.0478 1.342 2.689 0.0686 0.07942 0.13777 0.15435 0.20892 0.22621h-4.0733l0.19559-0.22567-4.3352 0.0052c-3.1807 4.4571-5.7991 9.4003-7.857 14.831h-7.2e-4c-0.90036 2.3776-1.6932 4.8479-2.3776 7.4155h-2e-3c-0.63992 2.3934-1.1857 4.8683-1.6381 7.4231h5.7324v-0.68872h6.0145v1.9423h-6.0145v-1.2536l-5.7324 0.0012c-1.0904 6.1638-1.6354 12.801-1.6354 19.911 0 2.3223 0.0863 4.6262 0.25846 6.9136-0.56409-0.8229-1.1678-1.6374-1.8121-2.4442-4.6567-5.5716-10.733-10.041-18.234-13.41 5.3854-3.2048 9.6609-6.8628 12.826-10.972h5.4e-4c1.7919-2.3254 3.2272-4.7957 4.308-7.4148h2e-3c0.97276-2.3572 1.6572-4.8326 2.0523-7.4231l-40.031 0.0038c0.18679 0.87875 0.28006 1.7072 0.28006 2.4857 0 1.6691-0.31571 3.3116-0.94591 4.9279h-7.2e-4c-0.73951 1.8935-1.9126 3.7495-3.5168 5.5673-0.60428 0.68674-1.2256 1.3006-1.8643 1.8475h-6e-3c-2.3688 2.006-4.9776 3.0092-7.8273 3.0092l-33.366-0.193v-30.123h36.082c3.6203 0 6.5944 2.2009 8.9245 6.6072 1.1201 2.1584 1.8674 4.1147 2.2416 5.8672l40.031-0.0025c0.26873-1.7708 0.40398-3.5957 0.40398-5.4763 0-3.3338-0.32077-6.4554-0.96249-9.3585h-21.096l4.0168 4.6943-1.5509 0.97276-4.8492-5.6671-2.1355-2.497 1.5529-0.9695 2.966 3.4665 21.096-0.0051c-2.077-9.4086-7.5121-16.588-16.303-21.536-9.9577-5.5716-22.114-8.1639-36.47-7.775l-19.009 0.58391c-16.942 0.51907-25.93 0.77698-26.965 0.77698 0 1.5542-0.19254 2.5269-0.58013 2.9152-0.5178-0.3883-0.77842-1.3611-0.77842-2.9152h-26.768v27.955l9.8922-5.4e-4v-12.991l2.91 1.3609c-0.08897 4.074-0.10175 7.9505-0.03873 11.631 0.09078 5.3627 0.34311 10.307 0.75484 14.837h5.41e-4c0.1322 1.4556 0.28151 2.8693 0.44667 4.2392-0.27826 1.0923-0.53114 2.1496-0.75987 3.1756h-7.22e-4c-0.61057 2.729-1.0419 5.2064-1.2955 7.4231l9.2957-0.0025c-0.17093-1.8495-0.25684-3.3732-0.25684-4.5735 0.33878 1.5993 0.66658 3.1236 0.98231 4.576 1.3757 6.3018 2.5352 11.19 3.4813 14.664 0.51528 3.757 1.2937 6.2832 2.3268 7.5794 34.919 0.51907 61.236 0.84183 78.952 0.97275h-78.952c-0.5178 0.64605-0.71034 1.488-0.58012 2.5262 0.12013 0.90667 0.21216 1.5466 0.277 1.9169l0.11059 0.22116c0 0.27647-0.03746 0.20262-0.11059-0.22116-1.373-2.7391-2.5002-4.8035-3.382-6.193-0.90539 1.2962-1.5511 2.3338-1.9387 3.1108-2.4595-0.77698-6.5328-1.1683-12.223-1.1683v-23.409l-2.4729-5.41e-4h2.4729v-29.675h-9.8922v14.837l4.9463 7.1e-4h-4.9463v44.513h37.439v-2.5719h1.7454v5.0531h-1.7454v-2.4812l-37.439 0.0012v29.674l39.447-6e-3c0.45802-2.1748 0.74078-4.6451 0.85011-7.4116 0.03368-0.86417 0.05079-1.755 0.05079-2.6757 0-1.7638-0.06231-3.3453-0.18677-4.7449-0.33356-3.7387-1.112-6.1721-2.3351-7.3032 0.02539-0.03746 0.05025-0.07619 0.07563-0.11436 1.7613-2.6697 2.642-4.8352 2.642-6.4954 0-0.29683-0.01981-0.603-0.05728-0.92449h-0.0012c-0.0616-0.50952-0.17219-1.0434-0.33284-1.6017h36.082c2.5968 0 4.9704 0.53239 7.1218 1.6017h7e-3c2.0249 1.0032 3.851 2.4779 5.4808 4.4234 0.86415 0.96195 1.6208 1.9596 2.2708 2.9952h2e-3c1.4436 2.2957 2.3598 4.7667 2.7486 7.4188 0.14302 0.97402 0.21469 1.9742 0.21469 2.9957 0 1.5828-0.18046 3.0588-0.54194 4.4229l38.994-5e-3c-0.54824-1.5307-1.4028-2.8077-2.5618-3.8327 0.25736-0.39137 0.58012-0.58517 0.9677-0.58517zm136.57-22.739-2.5226-2.5262-0.96771 0.97275 2.5226 2.5262zm-139.3 49.42c0.72943-1.1869 1.3184-2.3718 1.7676-3.553-1.3812-0.85334-2.1952-2.1426-2.4417-3.8676-0.0533-0.37479-0.08-0.76995-0.08-1.1862 0-1.4257 0.32275-3.1103 0.96754-5.0538l1.5541 1.7498c-0.3876 0.77717-0.45297 1.9437-0.1956 3.4971 0.0717 0.35912 0.13652 0.69072 0.1956 0.9931l1.03-2e-3c0.81967-3.2264 1.4162-5.6943 1.7924-7.4118h5.4e-4c0.31645-1.4436 0.47458-2.347 0.47458-2.713 0-1.7753-0.24584-3.3473-0.73573-4.7114l-38.994 2e-3c-0.79231 2.9977-2.4532 5.4718-4.9832 7.4174l22.119 2e-3 -22.119 2e-3c-4.7132 3.6331-12.441 5.4502-23.184 5.4502-1.0326 0-4.2678-0.90721-9.6991-2.7225-3.8782-1.295-5.82-2.1375-5.82-2.5269 0-0.0814 0.13274-0.13724 0.39767-0.16642-1.0026 0.0978-1.3928 0.47638-1.1736 1.1392l0.19631 0.97276c-0.70529-0.78977-1.3704-1.5052-1.9956-2.1514h-0.0033c-1.3241-1.3603-2.4686-2.3922-3.433-3.0975-1.0362 1.1666-1.6157 2.0084-1.746 2.5269 0.6545 0 1.2802 0.19308 1.8769 0.57058l2.2034 2e-3 -2.2034 6e-3c1.1678 0.75356 2.2238 2.2459 3.1661 4.4755 2.1964-0.9072 4.1381-1.5541 5.82-1.9417-0.51834 0.516-0.71088 1.0345-0.58317 1.5541 0.12966 0.64694 0.5178 0.97276 1.1633 0.97276h-15.712c0.67613-1.4619 1.2168-3.152 1.621-5.0677h-39.447v14.839h128.2zm295.26-9.7715-2.7131-0.97275v-1.3622l3.297 1.1666zm-121.16 1.1482c-1.1666 0-2.4608-0.71161-3.8797-2.1393 0.77339-0.64623 2.3897-1.619 4.8467-2.9138 0 2.722-0.32076 4.4063-0.96699 5.0531zm3.7965-53.888h1.9403v2.9145h-1.9403zm-0.97095-4.273h1.7467v2.9145h-1.7467zm-6.2063 25.721c0.77896-1.2955 1.1666-2.265 1.1666-2.9145 1.6806 1.2957 3.0364 2.2684 4.0728 2.9145zm-7.4231-21.572 1.5547-0.97023 6.9829 8.1614-1.5516 0.97277zm-2.1337-3.4959 1.5529-0.58463 1.356 3.1103h-1.5511zm-7.2482-29.802-3.879-2.5262 0.97006-1.5541 3.8784 2.5262zm-4.8378-6.8754c0.10738-0.33608 0.2046-0.68621 0.29934-1.0534h1e-3c0.70331-2.7295 1.0552-6.2661 1.0552-10.606 0 0.25791 0.26115 0.38814 0.77842 0.38814 0.64424-0.13023 1.0331-0.13023 1.164 0 0.51656 0.12769 0.77573 0.58138 0.77573 1.3585v10.69c-4.2691 0-6.7915-0.25792-7.5667-0.77699h3.4926zm18.929-20.46h1.7474v2.915h-1.7474zm8.3393 39.963 0.69198 1.6964 2.8001 6.8558h-1.746l-2.8371-6.8558-0.46072-1.1125zm1.3865-30.433c1.2923-1.166 2.0033-1.8801 2.1323-2.1381 0 0.64604-0.19379 1.5534-0.58139 2.722-0.25863 1.1653-0.38884 2.0725-0.38884 2.7194-1.162-0.77716-2.133-1.1653-2.9087-1.1653 0-0.26187 0.58192-0.97274 1.7467-2.138zm1.1386-14.972h1.7447v2.9152h-1.7447zm8.2966 9.8027c0.99311-0.2136 1.488-0.95944 1.488-2.2378 0-0.35463-0.0337-0.7091-0.1066-1.065h1.9124c0.42704-0.07115 0.85155-0.10536 1.2766-0.10536 3.4748 0 5.2107 1.4187 5.2107 4.2588v2.0244h15.841c-6.1669 0.35571-10.137 0.67468-11.908 0.95871 1.7703 3.5512 3.1166 5.7877 4.0398 6.7102l-2.0199 1.3852c-0.70907-2.2728-1.2771-3.4082-1.7015-3.4082-0.28349 0-0.63865 0.06987-1.063 0.21288-0.4245 0.14104-0.70853 0.21271-0.84955 0.21271 1.0617-0.99438 1.5941-1.8819 1.5941-2.6642 0-1.9156-0.35445-2.875-1.0623-2.875-0.99311 0-2.5168 0.28529-4.5727 0.85209-1.9857 0.56859-3.4737 0.85208-4.4656 0.85208-1.347 0-3.2252-1.5986-5.6332-4.7934 0.63595-0.06987 1.3101-0.17723 2.0192-0.31825zm10.737 10.97-0.53113-0.6392 1.3807-1.3845 0.63848 0.5313zm-18.067 38.625h-1.9405v-3.8878h1.9405zm0.7777 27.278h-1.7447v-5.0531h1.7447zm-9.6991 9.715h-1.939v-4.0805h1.939zm9.6941 34.519h11.637v1.9425h-11.637zm57.553-71.528c0.11055-0.23702 1.0992-1.1322 2.9628-2.6895-0.17723-0.22675-0.50251-0.45044-0.97078-0.66964-0.46955-0.21919-1.0826-0.43335-1.8402-0.64371-0.84758-0.23702-1.5622-0.52285-2.1411-0.85965h-3e-3c-0.45315-0.26296-0.82417-0.55527-1.1132-0.87802 1.5147 0.42307 4.5068-0.18118 8.976-1.8108-0.10987 0.2363-0.44613 0.64928-1.0072 1.244-0.50575 0.53312-0.8692 1.0153-1.0972 1.4448l0.38758 0.0012-0.38758 2e-3c-0.0261 0.05079-0.0515 0.10103-0.0731 0.15057 0.2752-0.03621 0.53437-0.08699 0.77968-0.15129h0.0139c1.2326-0.31645 2.079-0.96123 2.5326-1.939 0.66208 0.30871 1.2289 0.95422 1.7047 1.9365h7.2e-4c0.0304 0.06106 0.0584 0.12337 0.0895 0.18749 0.55276 1.2598 0.66712 2.2421 0.33987 2.9462-0.32905 0.70458-0.72493 1.0916-1.1842 1.1615l-1.3827 0.21217c0.47028 0.21865 1.3088 0.25414 2.5206 0.10733 1.3286-0.0958 2.2866-0.0056 2.8705 0.26765-0.0539 0.11815-0.04 0.69503 0.047 1.7364 0.14949 1.2155 0.0605 2.1743-0.268 2.8783-0.49116 1.056-2.0224 2.1996-4.5945 3.4291-2.5066 1.4011-4.2284 1.8834-5.1662 1.4443-0.46954-0.21918-1.3108-1.3254-2.5206-3.3205-1.1493-1.8229-2.0775-2.8999-2.7778-3.2284 1.8362-0.57184 3.241-0.98608 4.2176-1.246 0.32726-0.70458 0.0248-1.2746-0.91494-1.713zm10.78 11.985h-2.9107v-1.9425h2.9107zm40.884 41.349c-0.66512 0-1.425 0.38129-2.2803 1.1502h-5e-3c-0.14173 0.12517-0.28349 0.26043-0.4283 0.40524-0.90611 1.0363-1.5549 1.6197-1.9424 1.7499-0.25847-0.26044-0.38813-0.58338-0.38813-0.97277 0-0.32022 0.0737-0.71538 0.22422-1.1786l-3.1254 4e-3c0.89081 1.295 2.1164 2.4615 3.6769 3.5047l-1.3558 1.1685c-2.1265-1.3839-3.377-2.9431-3.7576-4.6783l-50.459 4e-3c-4.7138 3.6331-12.442 5.4502-23.184 5.4502-1.0324 0-4.2696-0.90721-9.7002-2.7225-3.8777-1.295-5.8194-2.1375-5.8194-2.5269 0-0.0814 0.1322-0.13724 0.39713-0.16643-1.0034 0.0978-1.3915 0.47639-1.173 1.1392l0.0299 0.14806c0.88073 0.34887 2.8293 1.4493 3.8523 1.2141-0.51906 0.516-0.7116 1.0345-0.58444 1.5541 0.13075 0.64694 0.51708 0.97276 1.1633 0.97276h-15.711c0.6772-1.4652 1.0216-3.1533 1.1887-5.0677l-12.65-3e-3 12.65-2e-3c0.19001-2.1735 0.15561-4.6439 0.13022-7.4136l-1.0165-2e-3 1.0165-1e-3c-9e-3 -0.84759-0.0159-1.7224-0.0159-2.6265 0-1.7778 0.0286-3.3727 0.0362-4.7864v-2e-3c0.0159-3.7304-0.1194-6.1759-1.3393-7.3032 0.0247-0.03746 0.05-0.07618 0.0749-0.11436h5.4e-4c1.7607-2.6697 2.6413-4.8352 2.6413-6.4954 0-0.29683-0.0204-0.603-0.0578-0.92449h-1e-3c-0.0616-0.50952-0.17146-1.0434-0.33158-1.6017h36.082c2.5955 0 4.9706 0.53239 7.1213 1.6017h7e-3c2.0242 1.0032 3.851 2.4779 5.4801 4.4234 0.86415 0.96195 1.622 1.9596 2.2728 2.9952h2e-3c1.4443 2.2957 2.3592 4.7667 2.7481 7.4188h7.2e-4c0.14228 0.97401 0.21468 1.9742 0.21468 2.9957 0 1.5828-0.181 3.0588-0.54194 4.4229l38.993-5e-3c-0.54752-1.5307-1.4034-2.8077-2.5618-3.8327 0.2581-0.39137 0.58013-0.58517 0.96843-0.58517 0.51781 0 1.101 0.32402 1.7447 0.97276 1.0356-1.0381 1.5516-2.0719 1.5516-3.1101 0-0.28601-3e-3 -0.57058-0.0115-0.85839-0.0666-2.5307-0.4301-5.0023-1.0902-7.4188h-7.2e-4c-0.69378-2.5402-1.7193-5.0156-3.0721-7.4186l-29.19-0.0025 29.19-0.0045c-1.0108-1.7987-2.206-3.5612-3.5834-5.2869-4.6561-5.5716-10.732-10.041-18.233-13.41 5.3854-3.2048 9.6608-6.8628 12.825-10.972 1.7924-2.3254 3.227-4.7957 4.3085-7.4148h1e-3c0.97276-2.3572 1.6564-4.8326 2.0529-7.4231l-40.031 0.0038c0.18678 0.87875 0.27953 1.7072 0.27953 2.4857 0 1.6691-0.31572 3.3116-0.94736 4.9279-0.73898 1.8935-1.9106 3.7495-3.5155 5.5673-0.60425 0.68674-1.2264 1.3006-1.8636 1.8475h-7e-3c-2.3673 2.006-4.9787 3.0092-7.8278 3.0092l-33.366-0.19262v-30.123h36.082c3.6196 0 6.5952 2.2009 8.9245 6.6072 1.1201 2.1584 1.8673 4.1147 2.2416 5.8672l40.031-0.0025c0.26818-1.7708 0.40416-3.5957 0.40416-5.4763 0-3.3338-0.32148-6.4554-0.96322-9.3585h-89.797v6.2566h-1.9405v-12.63h1.9405v6.3735l89.797-0.0051c-2.0759-9.4086-7.5128-16.588-16.303-21.536-9.9578-5.5716-22.114-8.1639-36.471-7.775l-19.008 0.58391c-16.944 0.51907-25.93 0.77698-26.966 0.77698 0 1.5542-0.19254 2.5269-0.58013 2.9152-0.51853-0.3883-0.77895-1.3611-0.77895-2.9152h-26.767v93.672h-7.3716c0 0.36165 0.0311 0.71484 0.0909 1.0522l39.158 0.0012-39.158 0.0052c0.21793 1.2573 0.83354 2.3952 1.8476 3.4132-2.3248 0.90739-4.201 1.3578-5.6217 1.3578-1.0363 0-1.8771-0.19253-2.5226-0.58138l2.3268 2.915c0.28401 0 0.53365 0.10429 0.75103 0.30762l3.0156 2e-3 -3.0156 2e-3c0.0774 0.0762 0.14932 0.16515 0.21921 0.26818 0.25791 0.26114 0.64622 0.39137 1.1628 0.39137 1.0363 0 2.4576-0.19577 4.2684-0.58336 0.1221-0.0247 0.24025-0.0476 0.35643-0.0762h0.0256c1.7535-0.33807 3.1151-0.50826 4.0791-0.50826 0-0.99384 0.13021-2.0473 0.38813-3.1591v55.441s85.159-0.96952 94.081-0.96952c5.8212 0 12.739-2.722 20.758-8.1646 6.2776-4.3608 10.733-8.6831 13.362-12.968 0.73124-1.1869 1.3209-2.3718 1.7694-3.553-1.3812-0.85334-2.1952-2.1426-2.441-3.8676l-101.03 3e-3c0.58715 3.8784-0.13418 3.1013 0.79355 6.5089 0.0412 0.30943 0.087 0.61056 0.1322 0.90792h5.4e-4c0.51402 3.2601 1.2447 5.4839 2.1933 6.6733 34.918 0.51799 3.4348 0.84255 21.151 0.97277h-21.151c-0.51835 0.64694-0.70962 1.4895-0.58012 2.5269 0.11959 0.90611 0.2136 1.5458 0.27701 1.9176l0.11009 0.22118c0 0.27628-0.0356 0.20262-0.11009-0.22118-1.3737-2.7403-2.5008-4.8052-3.3826-6.1942-0.9054 1.295-1.5491 2.3331-1.938 3.1101-2.4603-0.77698-6.5323-1.1678-12.222-1.1678l-0.0407-7.8386-0.12013-22.259-0.0374-7.4186-0.0292-5.3067 2.9087 1.3604c-0.0394 1.8718-0.0598 3.1285-0.0598 3.9463l14.156 1e-3 -14.156 2e-3c3e-3 4.4139 0.58012-3.7075 1.4518 3.5029-0.34634 1.3584-0.65379 2.6622-0.92376 3.9119l18.32-3e-3c-0.30115-0.60156-0.63668-1.239-1.0014-1.9131 1.938 0 3.5544-0.64604 4.8467-1.9417 0 1.5142 9e-3 2.7983 0.0236 3.8581 0.0292 2.0096 0.087 3.1865 0.17218 3.5263-0.64748 0.38831-1.3578 0.77717-2.1336 1.1648-0.29682-1.1864-0.93277-2.7513-1.9075-4.6911h-18.32c-0.58716 2.7308-0.98933 5.2011-1.208 7.4136h-1e-3c-0.12822 1.3038-0.19378 2.5156-0.19378 3.6369v16.132c4.1388 1.0376 7.2408 1.6844 9.3095 1.9455 1.4221-0.51979 2.133-2.4621 2.133-5.8315 0-0.32221-7e-3 -0.66838-0.0216-1.0376-0.0756-1.8864-0.34741-4.3599-0.81569-7.4206-0.0993-0.6518-0.20731-1.331-0.32546-2.0376-0.6455-4.7946 1.9488 0.36778 1.9488-1.9671 0.36723 1.7351 0.603 3.0211 0.75105 4.0047h101.03c-0.054-0.3748-0.0813-0.76996-0.0813-1.1862 0-1.4257 0.32347-3.1103 0.96899-5.0538l1.5534 1.7497c-0.38687 0.77717-0.45225 1.9437-0.1956 3.4972 0.0719 0.35912 0.13724 0.69071 0.1956 0.9931l11.418-3e-3c0.20713-0.34563 0.41048-0.6754 0.60498-0.98933-0.0268 0.34833-0.0452 0.68188-0.0535 0.99311h27.601v-8.3775c-9.9588-0.1302-17.007-0.19505-21.145-0.19505zm-287.68 11.078c0.22748-0.87999 0.44162-1.7173 0.64245-2.5053l-1.03 3e-3c0.25738 1.3515 0.38759 2.1863 0.38759 2.5015zm-119.5 20.217h11.639v1.9423h-11.639zm-10.863 6.7998s85.16-0.96953 94.081-0.96953c5.822 0 12.74-2.7219 20.758-8.1646 6.2782-4.3608 10.733-8.6831 13.364-12.968l-128.2 1e-3v22.1z" fill="#231f20" stroke-width="1.1268"/>
</svg>
