<svg width="1920pt" height="928.62pt" version="1.1" viewBox="0 0 1920 928.62" xmlns="http://www.w3.org/2000/svg">
 <g transform="translate(-144.02 -172.29)" fill="#044087">
  <path d="m1581.7 903h38.32v86.765l69.83-86.91 47.197 0.01-73.867 89.07 75.848 105.89h-49.488l-59.71-87.365h-9.81v87.365h-38.32z"/>
  <path d="m1899.6 902.86h35.835v194.98h-35.835z"/>
  <path d="m1987.8 919.37h31.9v38.64h32.42v29.735h-32.42v70.215c0 8.398 3.2021 11.012 10.283 11.334 7.198 0.3154 14.379-1.7309 21.207-3.8845l7.59 28.59c-10.721 4.0379-22.264 6.7171-33.767 6.6325-29.545 0-40.816-18.762-41.113-42.572v-70.315h-28.225v-29.735h29.995z"/>
  <path d="m1746.3 958.14h35.86v89.875c0 13.68 5.7643 21.36 19.875 21.36 8.98-0.01 17.775-2.76 25.845-6.53v-104.7h35.93v139.7h-25.565l-2.96-10.18c-12.257 8.6941-27.269 13.274-42.264 13.262-31.924 0-46.72-21.045-46.72-47.862z"/>
 </g>
 <path class="a" d="m0 537.17c0-52.642 128.34-99.718 330.13-131.15-70.537 24.487-110.9 52.695-110.9 82.746 0 93.81 391.79 169.86 875.09 169.86 297.82 0 560.71-28.902 718.78-73.014-112.91 71.029-467.46 122.89-887.67 122.89-511.09 0-925.42-76.708-925.42-171.34m1920-39.925c-0.1439-29.712-36.067-44.486-57.073-23.478s-6.2314 56.931 23.479 57.073c18.569 0 33.633-15.025 33.594-33.595" fill="#e5007d" stroke-width="15.415"/>
 <path class="a" d="m632.84 536.4h-62.151l-16.87-66.485h-112.74l-16.861 66.485h-61.198c26.977-104.06 61.198-217.77 94.914-310.28h79.991c33.717 92.503 67.932 206.21 94.911 310.28zm-93.474-118.52c-13.01-47.697-27.461-94.908-40.947-136.35h-1.932c-13.488 41.438-27.943 88.649-41.43 136.35zm440.2-29.866v148.39h-40.476l-5.7791-16.86c-17.487 14.04-39.244 21.688-61.67 21.676-41.438 0-76.125-24.564-76.125-70.344 0-45.282 33.243-70.815 93.951-70.815 11.121 0 22.226 0.86325 33.24 2.3986v-7.7076c0-25.047-10.114-35.65-39.985-35.65-20.613 0.71938-41.111 3.4016-61.221 7.9871l-9.1241-48.467c24.661-5.7653 49.848-8.9922 75.166-9.6314 59.256 4e-3 92.024 25.534 92.024 79.024zm-56.859 54.44c-10.114-0.96602-23.602-1.932-31.314-1.932-24.086 0-38.055 9.1586-38.055 27.949 0 17.347 12.039 26.977 30.348 26.977 14.006-0.39052 27.584-4.9082 39.022-13zm-219.31-99.915-6.2647-27.778h-40.475v221.64h56.86v-152.91c13.854-13.07 32.561-19.715 51.556-18.319 8.065 0 16.115 0.67827 24.083 1.932l3.8538-52.033c-8.5928-1.521-17.296-2.3226-26.021-2.4089-24.598 0-47.927 10.91-63.592 29.875zm741.64 193.86h56.854v-310.28h-56.854zm366.22-148.39v148.39h-40.474l-5.7776-16.858c-17.487 14.038-39.245 21.686-61.671 21.674-41.428 0-76.125-24.561-76.125-70.342 0-45.282 33.244-70.817 93.952-70.817 11.123 0 22.23 0.86325 33.247 2.4007v-7.7076c0-25.049-10.125-35.65-39.993-35.65-20.593 0.63716-41.08 3.2146-61.186 7.7076l-9.1597-48.182c24.663-5.7673 49.85-8.9942 75.169-9.6314 59.253 6e-3 92.018 25.536 92.018 79.026zm-56.848 54.44c-10.125-0.96602-23.611-1.932-31.319-1.932-24.092 0-38.068 9.1586-38.068 27.949 0 17.347 12.047 26.977 30.36 26.977 14.007-0.39052 27.585-4.9123 39.026-13.002zm-212.04 93.956h56.854v-310.28h-56.854zm-336-110.33c0 81.904-32.766 115.14-102.15 115.14-30.403-0.5755-60.509-6.1147-89.135-16.375v-279.49c10.089 3.7757 20.787 5.6666 31.56 5.5741 8.5583 0 17.08-1.1304 25.299-3.5146v71.699c15.307-6.8217 31.903-10.273 48.661-10.116 57.81 4e-3 85.761 41.927 85.761 117.09zm-54.599-0.96602c0-47.697-10.118-65.997-42.392-65.997-11.679 0-23.255 2.191-34.205 6.2565v123.34c10.935 2.3164 22.062 3.6071 33.238 3.8538 32.276 4e-3 43.363-17.343 43.363-67.455zm243.94 53.491 15.898 46.245c-25.005 10.602-51.857 16.165-79.016 16.375-67.93 0-104.55-37.582-104.55-115.14 0-75.16 34.211-117.09 96.844-117.09 57.334 0 89.61 35.165 89.61 98.766 0.082 12.766-1.0544 25.511-3.3714 38.065h-124.79c3.3759 31.322 18.797 45.296 48.178 45.296 20.923-0.98657 41.564-5.2206 61.194-12.529zm-109.37-77.088h71.793c-0.9619-27.951-11.561-42.392-34.692-42.392-24.572-0.0103-34.687 16.365-37.101 42.386zm-628.92-176.02h43.509v-87.018c9.0464 1.1716 18.162 1.7471 27.285 1.7265 12.429 26.247 28.31 57.318 43.853 85.293h51.1l0.34529-0.69882c-17.951-30.388-37.289-64.228-50.408-91.504 26.867-9.3745 43.842-35.905 41.094-64.226 0-52.488-36.263-69.06-85.981-69.06-23.712 0.45217-47.365 2.5281-70.793 6.2092zm43.509-120.51v-65.95c7.598-0.69882 18.304-1.3771 26.593-1.3771 26.93 0 42.473 7.2534 42.473 34.185 0 27.285-15.543 34.53-43.162 34.53-8.6528-6e-3 -17.299-0.47273-25.904-1.3771zm129.8 73.557c-0.45629 29.698 24.99 53.207 54.559 50.408 16.072 8e-3 31.664-5.4755 44.194-15.538l4.1406 12.085h29.008v-106.36c0-38.324-23.48-56.629-65.954-56.629-18.145 0.45218-36.195 2.7727-53.867 6.9101l6.5638 34.53c14.411-3.2166 29.095-5.0644 43.853-5.5207 21.409 0 28.655 7.5904 28.655 25.55v5.5207c-7.8944-1.1099-15.853-1.6854-23.824-1.7265-43.505 6e-3 -67.329 18.309-67.329 50.773zm41.438-1.7265c0-13.473 10.02-20.027 27.276-20.027 5.5294 0 15.198 0.69882 22.444 1.3976v28.654c-8.1943 5.8064-17.926 9.0518-27.965 9.3251-13.12-0.0123-21.755-6.9142-21.755-19.343zm174.47 52.134c14.851 0.41107 29.338-4.6328 40.741-14.157l4.1483 10.706h29.346v-222.38h-40.738v62.158c-9.0002-1.6854-18.128-2.6247-27.285-2.7747-44.198 0-68.713 28.317-68.713 84.6 0 55.606 23.826 81.848 62.501 81.848zm6.9013-35.221c-20.72 0-27.965-13.119-27.965-47.304 0-35.218 7.9433-49.028 32.458-49.028 7.4251 0.20553 14.823 0.92491 22.099 2.415v86.664c-8.0746 4.7047-17.243 7.2061-26.59 7.2513zm97.823-151.93h40.748v-38.686h-40.748zm0 183.7h40.748v-159.53h-40.748zm63.145-79.762c0 51.098 19.338 83.213 72.861 83.213s72.855-32.115 72.855-83.213-19.34-83.221-72.855-83.221-72.86 32.109-72.86 83.217zm41.439 0c0-26.249 3.4499-47.304 31.422-47.304 27.972 0 31.416 21.055 31.416 47.304s-3.4499 47.302-31.416 47.302c-27.966 0-31.419-21.065-31.419-47.306z" fill="#044087" stroke-width="15.415"/>
</svg>
