<svg width="800" height="384.75" version="1.1" viewBox="0 0 800 384.75" xml:space="preserve" xmlns="http://www.w3.org/2000/svg"><defs><clipPath id="clipPath844"><path d="m340.02 382.06h16.194v20.302h-16.194z"/></clipPath><clipPath id="clipPath910"><path d="m340.02 382.06h16.194v20.302h-16.194z"/></clipPath><clipPath id="clipPath974"><path d="m340.02 382.06h16.194v20.302h-16.194z"/></clipPath><linearGradient id="linearGradient1568" x2="1" gradientTransform="matrix(-1.2832e-5 295.31 295.31 1.2832e-5 681.09 666.27)" gradientUnits="userSpaceOnUse"><stop stop-color="#2056a8" offset="0"/><stop stop-color="#2056a8" offset=".089888"/><stop stop-color="#00adef" offset=".86517"/><stop stop-color="#00adef" offset="1"/></linearGradient><clipPath id="clipPath1582"><path d="m376.16 533.78h128.13v66.614h-128.13z"/></clipPath><clipPath id="clipPath1590"><path d="m440.22 596.81h52.802v-40.154h-52.802z"/></clipPath><clipPath id="clipPath1616"><path d="m440.22 556.66v42.224h52.798v-42.224z"/></clipPath><linearGradient id="linearGradient1626" x2="1" gradientTransform="matrix(-2.4e-6 55.077 55.077 2.4e-6 466.62 554.7)" gradientUnits="userSpaceOnUse"><stop stop-color="#00adef" offset="0"/><stop stop-color="#fff200" offset=".29775"/><stop stop-color="#f8a10e" offset=".92135"/><stop stop-color="#f8a10e" offset="1"/></linearGradient><clipPath id="clipPath1636"><path d="m376.16 533.78h128.13v66.614h-128.13z"/></clipPath></defs><g transform="matrix(1.3333 0 0 -1.3333 -508.12 1273.1)"><g clip-path="url(#clipPath844)"><text transform="matrix(1 0 0 -1 314.02 380.27)" fill="#ffffff" font-family="'Helvetica Neue'" font-size="1.4653px" font-weight="bold"><tspan x="0 1.6001076 3.6603193 5.2062111 6.7521024 8.2979937 9.436532 10.982424 12.120961 13.448524 14.587062 16.376192 18.111109 19.92808 21.091528 22.962717 24.779688 26.650877 28.277359 30.06649 31.74719 33.564163 35.299076 37.359287 39.039989 40.178528 41.995499 43.866688" y="0">FM100.7 - RADIONOTREDAME.COM</tspan></text>
</g><g clip-path="url(#clipPath910)"><g transform="translate(315.13 399.25)"><path d="m0 0h1.568c0.122 0 0.226-0.044 0.316-0.135 0.093-0.093 0.138-0.198 0.138-0.322s-0.044-0.228-0.134-0.319c-0.091-0.091-0.196-0.135-0.32-0.135h-1.568zm0-1.948h0.917l1.118-1.939h1.2l-1.173 2.022c0.246 0.086 0.459 0.235 0.637 0.443 0.239 0.277 0.361 0.602 0.361 0.965 0 0.403-0.149 0.756-0.442 1.05-0.293 0.293-0.646 0.442-1.05 0.442h-2.602v-4.922h1.034z" fill="#fff"/><g transform="translate(5.2618,-2.0222)"><path d="m0 0 0.563 1.538 0.561-1.538zm-0.374-1.038h1.871l0.306-0.827h1.107l-1.794 4.922h-1.103l-1.786-4.922h1.093z" fill="#fff"/><g transform="translate(5.3071 -.8341)"><path d="m0 0h-0.874v2.856h0.874c0.393 0 0.723-0.137 1.006-0.421 0.284-0.284 0.422-0.613 0.422-1.007 0-0.393-0.138-0.723-0.422-1.006-0.283-0.284-0.612-0.422-1.006-0.422m1.737-0.312c0.481 0.481 0.725 1.067 0.725 1.74 0 0.672-0.244 1.256-0.725 1.737-0.481 0.482-1.066 0.726-1.737 0.726h-1.909v-4.922h1.909c0.671 0 1.255 0.242 1.737 0.719" fill="#fff"/><g transform="translate(-325.7 -396.4)"><path d="m329.99 400.29h-1.134v-4.922h1.134z" fill="#fff"/><g transform="translate(333.28 399.31)"><path d="m0 0c0.409 0 0.751-0.143 1.046-0.438s0.438-0.637 0.438-1.046-0.143-0.751-0.438-1.045c-0.295-0.295-0.637-0.438-1.046-0.438s-0.751 0.143-1.046 0.437c-0.294 0.295-0.438 0.637-0.438 1.046s0.144 0.751 0.438 1.046c0.295 0.295 0.637 0.438 1.046 0.438m0-3.999c0.684 0 1.282 0.249 1.776 0.739 0.495 0.494 0.745 1.092 0.745 1.776 0 0.682-0.25 1.279-0.745 1.773-0.494 0.495-1.092 0.745-1.776 0.745s-1.282-0.25-1.776-0.745c-0.495-0.494-0.745-1.09-0.745-1.773 0-0.684 0.25-1.282 0.745-1.776 0.492-0.49 1.09-0.739 1.776-0.739" fill="#fff"/><g transform="translate(-18.118 -7.0619)"><path d="m0 0 1.922-2.863h0.944v4.922h-1.057v-2.868l-1.922 2.868h-0.941v-4.922h1.054z" fill="#fff"/><g transform="translate(5.8714,1.0801)"><path d="m0 0c0.424 0 0.778-0.144 1.083-0.44 0.303-0.294 0.451-0.636 0.451-1.044s-0.148-0.749-0.451-1.044c-0.305-0.295-0.659-0.439-1.083-0.439s-0.778 0.144-1.083 0.439c-0.304 0.295-0.451 0.636-0.451 1.044s0.147 0.75 0.451 1.044c0.305 0.296 0.659 0.44 1.083 0.44m0-3.998c0.702 0 1.315 0.247 1.824 0.736 0.509 0.495 0.767 1.093 0.767 1.778 0 0.684-0.258 1.281-0.767 1.775-0.508 0.493-1.122 0.744-1.824 0.744s-1.316-0.251-1.824-0.744c-0.509-0.494-0.767-1.091-0.767-1.775 0-0.685 0.258-1.283 0.768-1.778 0.505-0.488 1.118-0.736 1.823-0.736" fill="#fff"/><g transform="translate(5.0658,-3.943)"><path d="m0 0v3.888h1.433v1.034h-3.92v-1.034h1.43v-3.888z" fill="#fff"/><g transform="translate(2.7601,3.8875)"><path d="m0 0h1.621c0.128 0 0.237-0.045 0.331-0.137 0.097-0.094 0.142-0.195 0.142-0.32s-0.044-0.225-0.139-0.317c-0.094-0.092-0.204-0.137-0.334-0.137h-1.621zm2.779-1.424c0.247 0.277 0.373 0.602 0.373 0.967 0 0.404-0.153 0.758-0.456 1.052-0.3 0.291-0.662 0.439-1.075 0.439h-2.675v-4.922h1.054v1.94h0.955l1.152-1.94h1.226l-1.208 2.022c0.253 0.085 0.472 0.234 0.654 0.442" fill="#fff"/><g transform="translate(6.929)"><path d="m0 0v1.034h-3.347v-4.922h3.347v1.032h-2.292v0.963h1.718v1.037h-1.718v0.856z" fill="#fff"/><g transform="translate(-19.676 -8.8378)"><path d="m0 0h-0.927v2.856h0.927c0.418 0 0.767-0.139 1.067-0.425 0.297-0.283 0.442-0.611 0.442-1.003s-0.145-0.72-0.442-1.003c-0.3-0.286-0.649-0.425-1.067-0.425m0 3.891h-1.995v-4.922h1.995c0.7 0 1.311 0.24 1.814 0.716 0.506 0.481 0.762 1.067 0.762 1.743 0 0.674-0.256 1.259-0.762 1.74-0.503 0.48-1.113 0.723-1.814 0.723" fill="#fff"/><g transform="translate(6.2852 .8341)"><path d="m0 0h-1.359l0.681 1.603zm-1.288 3.057-2.072-4.922h1.212l0.356 0.827h2.225l0.355-0.827h1.228l-2.08 4.922z" fill="#fff"/><g transform="translate(5.6071 -.3897)"><path d="m0 0-1.75 3.446h-1.077v-4.921h1.14v2.311l1.177-2.311h1.024l1.172 2.309v-2.309h1.145v4.921h-1.077z" fill="#fff"/><g transform="translate(4.2454,-1.4755)"><path d="m0 0h3.549v1.031h-2.448v0.963h1.835v1.038h-1.835v0.855h2.448v1.035h-3.549z" fill="#fff"/></g></g></g></g></g></g></g></g></g></g></g></g></g></g></g><g clip-path="url(#clipPath974)"><text transform="matrix(1 0 0 -1 311.85 374.5)" fill="#1673c3" font-family="'Helvetica Neue'" font-size="2.1859px" font-weight="500"><tspan x="0 2.5443876 5.2920637 7.189425 9.8146906 11.712052 14.37885 16.276211 19.023888 21.852442 24.519239 27.38714 30.255041 32.152405 35.020306 37.888206 39.785564 42.491711 45.158508 48.026409" y="0">LA VIE PREND UN SENS</tspan></text>
</g><path d="m381.09 666.27h600v288.56h-600z" fill="url(#linearGradient1568)"/><g transform="scale(1,-1)" fill="#fff" stroke-width="5.1329" aria-label="FM100.7 - RADIONOTREDAME.COM"><path d="m416.79-702.64h-5.9748v2.4161h5.5387v2.512h-5.5387v5.5474h-3.3319v-12.988h9.3068z"/><path d="m440.61-692.17h-3.3319v-8.6962l-2.4074 5.6434h-2.3114l-2.4074-5.6434v8.6962h-3.1575v-12.988h3.8902l2.922 6.5156 2.9133-6.5156h3.8902z"/><path d="m461.44-692.17h-8.67v-2.2678h2.7388v-6.8645h-2.7388v-2.1195q0.62801 0 1.2037-0.0698 0.57567-0.0785 0.95946-0.26167 0.45356-0.21806 0.68034-0.56695 0.22678-0.3489 0.26167-0.87224h2.8871v10.755h2.6778z"/><path d="m481.02-698.66q0 1.6398-0.29656 2.9394-0.29656 1.2909-0.92457 2.1195-0.64546 0.84607-1.6572 1.2822-1.0118 0.42739-2.4946 0.42739-1.4566 0-2.4859-0.43611-1.0292-0.43612-1.666-1.2909-0.64545-0.85479-0.93329-2.1195-0.28784-1.2735-0.28784-2.9133 0-1.6921 0.29656-2.9394t0.94202-2.1108q0.64545-0.85479 1.6747-1.2822 1.0292-0.42739 2.4597-0.42739 1.4915 0 2.5033 0.44484 1.0118 0.43612 1.6572 1.3084 0.63674 0.8548 0.92457 2.1108 0.28784 1.2473 0.28784 2.8871zm-3.3756 0q0-2.355-0.46228-3.3494-0.46229-1.0031-1.5351-1.0031t-1.5351 1.0031q-0.46228 0.99435-0.46228 3.3668 0 2.3114 0.47101 3.3319 0.471 1.0205 1.5264 1.0205t1.5264-1.0205q0.471-1.0205 0.471-3.3494z"/><path d="m499.86-698.66q0 1.6398-0.29656 2.9394-0.29656 1.2909-0.92457 2.1195-0.64546 0.84607-1.6572 1.2822-1.0118 0.42739-2.4946 0.42739-1.4566 0-2.4859-0.43611-1.0292-0.43612-1.666-1.2909-0.64546-0.85479-0.93329-2.1195-0.28784-1.2735-0.28784-2.9133 0-1.6921 0.29656-2.9394t0.94202-2.1108q0.64545-0.85479 1.6747-1.2822 1.0292-0.42739 2.4597-0.42739 1.4915 0 2.5033 0.44484 1.0118 0.43612 1.6572 1.3084 0.63673 0.8548 0.92457 2.1108 0.28784 1.2473 0.28784 2.8871zm-3.3756 0q0-2.355-0.46228-3.3494-0.46229-1.0031-1.5351-1.0031t-1.5351 1.0031q-0.46228 0.99435-0.46228 3.3668 0 2.3114 0.471 3.3319 0.47101 1.0205 1.5264 1.0205t1.5264-1.0205q0.47101-1.0205 0.47101-3.3494z"/><path d="m511.85-692.17h-3.2622v-3.4279h3.2622z"/><path d="m532.41-702.57-5.8789 10.406h-3.7332l6.1057-10.502h-6.6726v-2.4859h10.179z"/><path d="m561.21-696.68h-6.6552v-2.512h6.6552z"/><path d="m592.6-701.18q0-0.48845-0.20062-0.83735-0.20061-0.34889-0.68906-0.54951-0.34018-0.13955-0.79374-0.16572-0.45356-0.0349-1.0554-0.0349h-1.2124v3.4977h1.0292q0.80246 0 1.3432-0.0785t0.90713-0.35762q0.34889-0.27039 0.50589-0.59312 0.16573-0.33145 0.16573-0.88096zm5.2247 9.0102h-4.0908l-3.5413-4.7624h-1.5439v4.7624h-3.3319v-12.988h5.6172q1.1514 0 1.98 0.13083 0.82863 0.13084 1.5526 0.56696 0.73267 0.43612 1.1601 1.1339 0.43612 0.68906 0.43612 1.7358 0 1.4392-0.67162 2.3463-0.6629 0.90712-1.9015 1.509z"/><path d="m619.13-692.17h-3.4628l-0.89841-2.6254h-4.8147l-0.89841 2.6254h-3.3756l4.7973-12.988h3.8553zm-5.1724-5.0066-1.5962-4.6578-1.5962 4.6578z"/><path d="m640.55-698.65q0 1.8142-0.82862 3.2534-0.82863 1.4305-2.0934 2.198-0.95074 0.57568-2.0846 0.80246t-2.6865 0.22678h-4.5792v-12.988h4.7101q1.5875 0 2.7388 0.27039 1.1514 0.26167 1.9364 0.75013 1.3432 0.8199 2.1108 2.2155 0.77629 1.3869 0.77629 3.2709zm-3.4628-0.0262q0-1.2822-0.47101-2.1893-0.46228-0.91585-1.4741-1.4305-0.51462-0.25295-1.0554-0.34018-0.53206-0.0959-1.6136-0.0959h-0.84607v8.1292h0.84607q1.195 0 1.7532-0.10467 0.55823-0.11339 1.0903-0.40123 0.91585-0.52334 1.3432-1.3956 0.4274-0.88096 0.4274-2.1719z"/><path d="m657.45-692.17h-7.6059v-2.3027h2.1283v-8.3822h-2.1283v-2.3027h7.6059v2.3027h-2.1283v8.3822h2.1283z"/><path d="m677.24-698.66q0 3.1052-1.7794 4.9369-1.7794 1.823-4.9194 1.823-3.1313 0-4.9107-1.823-1.7794-1.8317-1.7794-4.9369 0-3.1313 1.7794-4.9456 1.7794-1.823 4.9107-1.823 3.1226 0 4.9107 1.823 1.7881 1.8142 1.7881 4.9456zm-4.4397 3.2883q0.48845-0.59312 0.72396-1.3956 0.2355-0.81118 0.2355-1.9015 0-1.1688-0.27039-1.9887-0.2704-0.8199-0.70651-1.3258-0.44485-0.52334-1.0292-0.75884-0.57568-0.23551-1.2037-0.23551-0.63674 0-1.2037 0.22678-0.55823 0.22679-1.0292 0.75013-0.43612 0.48845-0.71523 1.352-0.2704 0.85479-0.2704 1.9887 0 1.1601 0.26167 1.98 0.2704 0.81118 0.70652 1.3258 0.43611 0.51462 1.0205 0.75885t1.2299 0.24423q0.64545 0 1.2298-0.24423 0.5844-0.25295 1.0205-0.77629z"/><path d="m699.23-692.17h-3.2273l-5.5125-8.9143v8.9143h-3.0703v-12.988h4.0036l4.7362 7.4402v-7.4402h3.0703z"/><path d="m722.2-698.66q0 3.1052-1.7794 4.9369-1.7794 1.823-4.9194 1.823-3.1313 0-4.9107-1.823-1.7794-1.8317-1.7794-4.9369 0-3.1313 1.7794-4.9456 1.7794-1.823 4.9107-1.823 3.1226 0 4.9107 1.823 1.7881 1.8142 1.7881 4.9456zm-4.4397 3.2883q0.48845-0.59312 0.72396-1.3956 0.2355-0.81118 0.2355-1.9015 0-1.1688-0.27039-1.9887-0.2704-0.8199-0.70651-1.3258-0.44485-0.52334-1.0292-0.75884-0.57568-0.23551-1.2037-0.23551-0.63673 0-1.2037 0.22678-0.55823 0.22679-1.0292 0.75013-0.43612 0.48845-0.71523 1.352-0.2704 0.85479-0.2704 1.9887 0 1.1601 0.26167 1.98 0.2704 0.81118 0.70652 1.3258t1.0205 0.75885q0.5844 0.24423 1.2299 0.24423 0.64545 0 1.2298-0.24423 0.5844-0.25295 1.0205-0.77629z"/><path d="m742.55-702.64h-4.0559v10.476h-3.3494v-10.476h-4.0559v-2.512h11.461z"/><path d="m759.5-701.18q0-0.48845-0.20062-0.83735-0.20061-0.34889-0.68907-0.54951-0.34017-0.13955-0.79373-0.16572-0.45356-0.0349-1.0554-0.0349h-1.2124v3.4977h1.0292q0.80246 0 1.3432-0.0785 0.54078-0.0785 0.90712-0.35762 0.3489-0.27039 0.5059-0.59312 0.16573-0.33145 0.16573-0.88096zm5.2247 9.0102h-4.0908l-3.5413-4.7624h-1.5439v4.7624h-3.3319v-12.988h5.6172q1.1514 0 1.98 0.13083 0.82863 0.13084 1.5526 0.56696 0.73268 0.43612 1.1601 1.1339 0.43612 0.68906 0.43612 1.7358 0 1.4392-0.67163 2.3463-0.6629 0.90712-1.9015 1.509z"/><path d="m783.42-692.17h-9.394v-12.988h9.394v2.512h-6.062v2.2416h5.6259v2.512h-5.6259v3.2098h6.062z"/><path d="m806.78-698.65q0 1.8142-0.82862 3.2534-0.82863 1.4305-2.0934 2.198-0.95074 0.57568-2.0846 0.80246t-2.6865 0.22678h-4.5792v-12.988h4.7101q1.5875 0 2.7388 0.27039 1.1514 0.26167 1.9364 0.75013 1.3432 0.8199 2.1108 2.2155 0.77629 1.3869 0.77629 3.2709zm-3.4628-0.0262q0-1.2822-0.47101-2.1893-0.46228-0.91585-1.4741-1.4305-0.51462-0.25295-1.0554-0.34018-0.53206-0.0959-1.6136-0.0959h-0.84607v8.1292h0.84607q1.195 0 1.7532-0.10467 0.55823-0.11339 1.0903-0.40123 0.91585-0.52334 1.3432-1.3956 0.4274-0.88096 0.4274-2.1719z"/><path d="m828.67-692.17h-3.4628l-0.8984-2.6254h-4.8148l-0.89841 2.6254h-3.3756l4.7973-12.988h3.8553zm-5.1724-5.0066-1.5962-4.6578-1.5962 4.6578z"/><path d="m851.43-692.17h-3.332v-8.6962l-2.4074 5.6434h-2.3114l-2.4074-5.6434v8.6962h-3.1575v-12.988h3.8902l2.922 6.5156 2.9133-6.5156h3.8902z"/><path d="m872.32-692.17h-9.394v-12.988h9.394v2.512h-6.062v2.2416h5.6259v2.512h-5.6259v3.2098h6.062z"/><path d="m886.62-692.17h-3.2622v-3.4279h3.2622z"/><path d="m903.17-691.91q-1.4479 0-2.6778-0.4274-1.2211-0.42739-2.1021-1.2735t-1.3694-2.1108q-0.47973-1.2647-0.47973-2.922 0-1.5439 0.46229-2.7999 0.46228-1.256 1.3432-2.1544 0.84607-0.86351 2.0934-1.3345 1.256-0.47101 2.7388-0.47101 0.8199 0 1.4741 0.096 0.6629 0.0872 1.2211 0.2355 0.5844 0.16573 1.0554 0.37506 0.47973 0.20062 0.83734 0.37506v3.1488h-0.38378q-0.24423-0.20934-0.61929-0.49717-0.36634-0.28784-0.83735-0.56696-0.47973-0.27911-1.038-0.47101-0.55823-0.19189-1.195-0.19189-0.70652 0-1.3432 0.22678-0.63673 0.21806-1.1775 0.73268-0.51462 0.49718-0.83735 1.3171-0.314 0.8199-0.314 1.9887 0 1.2211 0.34017 2.041 0.3489 0.8199 0.87224 1.2909 0.53206 0.47973 1.1862 0.68906 0.65418 0.20062 1.2909 0.20062 0.61057 0 1.2037-0.18317 0.60184-0.18317 1.1077-0.49718 0.4274-0.25295 0.79374-0.54078 0.36633-0.28784 0.60184-0.49718h0.34889v3.1052q-0.48845 0.21805-0.93329 0.40995-0.44484 0.19189-0.93329 0.33145-0.63674 0.18317-1.195 0.27911-0.55823 0.096-1.5351 0.096z"/><path d="m932.08-698.66q0 3.1052-1.7794 4.9369-1.7794 1.823-4.9194 1.823-3.1313 0-4.9107-1.823-1.7794-1.8317-1.7794-4.9369 0-3.1313 1.7794-4.9456 1.7794-1.823 4.9107-1.823 3.1226 0 4.9107 1.823 1.7881 1.8142 1.7881 4.9456zm-4.4397 3.2883q0.48845-0.59312 0.72396-1.3956 0.2355-0.81118 0.2355-1.9015 0-1.1688-0.27039-1.9887-0.2704-0.8199-0.70652-1.3258-0.44484-0.52334-1.0292-0.75884-0.57567-0.23551-1.2037-0.23551-0.63674 0-1.2037 0.22678-0.55823 0.22679-1.0292 0.75013-0.43612 0.48845-0.71523 1.352-0.2704 0.85479-0.2704 1.9887 0 1.1601 0.26167 1.98 0.2704 0.81118 0.70651 1.3258 0.43612 0.51462 1.0205 0.75885t1.2299 0.24423q0.64545 0 1.2298-0.24423 0.5844-0.25295 1.0205-0.77629z"/><path d="m955.88-692.17h-3.332v-8.6962l-2.4074 5.6434h-2.3114l-2.4074-5.6434v8.6962h-3.1575v-12.988h3.8902l2.922 6.5156 2.9133-6.5156h3.8902z"/></g><g transform="matrix(5.1329 0 0 5.1329 -1575 -2126.9)"><g clip-path="url(#clipPath1582)"><g clip-path="url(#clipPath1590)" fill="#127bca" opacity=".74001"><path d="m440.22 590.68h9.43v2.63h-9.43zm0-3.186h9.43v2.366h-9.43zm0-3.187h9.43v2.367h-9.43zm0-3.188h9.43v2.37h-9.43zm0-3.185h9.43v2.367h-9.43zm0-2.925h9.43v2.106h-9.43zm0-2.924h9.43v2.105h-9.43zm0-2.659h9.43v1.841h-9.43zm0-2.399h9.43v1.579h-9.43zm0-2.133h9.43v1.316h-9.43zm0-2.134h9.43v1.316h-9.43zm0-2.136h9.43v1.316h-9.43zm0-1.87h9.43v1.052h-9.43zm0-1.147h9.394v0.526h-9.394zm0-0.953h9.394v0.321h-9.394z"/><path d="m483.59 590.68h9.428v2.63h-9.428zm0-3.186h9.428v2.366h-9.428zm0-3.187h9.428v2.367h-9.428zm0-3.188h9.428v2.37h-9.428zm0-3.185h9.428v2.367h-9.428zm0-2.925h9.428v2.106h-9.428zm0-2.924h9.428v2.105h-9.428zm0-2.659h9.428v1.841h-9.428zm0-2.399h9.428v1.579h-9.428zm0-2.133h9.428v1.316h-9.428zm0-2.134h9.428v1.316h-9.428zm0-2.136h9.428v1.316h-9.428zm0-1.87h9.428v1.052h-9.428zm0-1.147h9.394v0.526h-9.394zm0-0.953h9.394v0.321h-9.394z"/><path d="m483.59 594.18h9.428v2.63h-9.428zm-21.872 0h9.868v2.63h-9.868zm-21.502 0h9.43v2.63h-9.43zm21.51-3.498h9.859v2.63h-9.859zm9e-3 -3.186h9.833v2.366h-9.833zm-9e-3 -3.187h9.859v2.367h-9.859zm0.262-3.188h9.432v2.37h-9.432zm0-3.185h9.432v2.367h-9.432zm0-2.925h9.432v2.106h-9.432zm0-2.924h9.432v2.105h-9.432zm0-2.659h9.432v1.841h-9.432zm0-2.399h9.432v1.579h-9.432zm0-2.133h9.432v1.316h-9.432zm0-2.134h9.432v1.316h-9.432zm0-2.136h9.432v1.316h-9.432zm0-1.87h9.432v1.052h-9.432zm0-1.147h9.395v0.526h-9.395zm0-0.953h9.395v0.321h-9.395z"/></g></g></g><g transform="matrix(5.1329 0 0 5.1329 -1575 -2126.9)"><g clip-path="url(#clipPath1616)"><path d="m466.35 598.77v-2.867c-0.178-0.052-0.313-0.206-0.313-0.398 0-0.189 0.135-0.346 0.313-0.394v-0.326c0-7e-3 5e-3 -8e-3 7e-3 -0.013l-0.989-10.465h2.183l-0.986 10.447c4e-3 8e-3 0.012 0.018 0.012 0.031v0.326c0.181 0.048 0.316 0.205 0.316 0.394 0 0.192-0.135 0.346-0.316 0.398v2.867c0 0.06-0.048 0.111-0.112 0.111-0.065 0-0.115-0.051-0.115-0.111m6.345-4.56h9.868v2.629h-9.868zm-21.89 0h9.868v2.629h-9.868zm21.89-0.969v-2.368h2.76v0.445c0 0.54 0.778 0.915 0.778 0.915s0.781-0.322 0.781-0.915v-0.445h1.379v0.445c0 0.54 0.78 0.915 0.78 0.915s0.779-0.322 0.779-0.915v-0.445h2.612v2.368zm-21.89 0v-2.368h2.718v0.445c0 0.54 0.783 0.915 0.783 0.915s0.779-0.322 0.779-0.915v-0.445h1.378v0.445c0 0.54 0.78 0.915 0.78 0.915s0.78-0.322 0.78-0.915v-0.445h2.65v2.368zm29.147-5.663h2.612v2.369h-2.612zm-2.938 0h1.379v2.369h-1.379zm-4.319 0h2.759v2.369h-2.759zm-14.672 0h2.649v2.369h-2.649zm-2.938 0h1.378v2.369h-1.378zm-4.28 0h2.718v2.369h-2.718zm29.147-3.268h2.612v2.366h-2.612zm-2.938 0h1.379v2.366h-1.379zm-4.319 0h2.759v2.366h-2.759zm-14.672 0h2.649v2.366h-2.649zm-2.938 0h1.378v2.366h-1.378zm-4.28 0h2.718v2.366h-2.718zm29.147-3.188h2.612v2.37h-2.612zm-2.938 0h1.379v2.37h-1.379zm-4.319 0h2.759v2.37h-2.759zm-10.967 0h9.868v2.37h-9.868zm-3.705 0h2.649v2.37h-2.649zm-2.938 0h1.378v2.37h-1.378zm-4.28 0h2.718v2.37h-2.718zm21.89-3.185h9.868v2.367h-9.868zm-10.946 0h9.869v2.367h-9.869zm-10.944 0h9.868v2.367h-9.868zm21.89-2.925h9.868v2.106h-9.868zm-10.946 0h9.869v2.106h-9.869zm-10.944 0h9.868v2.106h-9.868zm21.89-0.818v-2.106h2.824v0.119c0 0.473 0.374 0.854 0.838 0.854 0.462 0 0.837-0.381 0.837-0.854v-0.119h1.096v0.119c0 0.473 0.374 0.854 0.838 0.854 0.463 0 0.838-0.381 0.838-0.854v-0.119h2.598v2.106zm-4.343 0c0.553-0.441 0.935-1.358 1.02-2.106h2.246v2.106zm-6.603 0v-2.106h2.242c0.089 0.748 0.469 1.665 1.021 2.106zm-10.944 0v-2.106h2.775v0.119c0 0.473 0.376 0.854 0.84 0.854 0.461 0 0.838-0.381 0.838-0.854v-0.119h1.092v0.119c0 0.473 0.379 0.854 0.841 0.854 0.463 0 0.839-0.381 0.839-0.854v-0.119h2.643v2.106zm29.161-4.765h2.597v1.841h-2.597zm-2.772 0h1.095v1.841h-1.095zm-4.499 0h2.823v1.841h-2.823zm-3.345 1.841c-0.134-0.772-0.585-1.435-1.213-1.841h3.481v1.841zm-7.601 0v-1.841h3.48c-0.629 0.406-1.079 1.069-1.213 1.841zm-3.719-1.841h2.643v1.841h-2.643zm-2.772 0h1.093v1.841h-1.093zm-4.453 0h2.775v1.841h-2.775zm21.89-2.399h9.868v1.579h-9.868zm-10.946 0h9.869v1.579h-9.869zm-10.944 0h9.868v1.579h-9.868zm-10.587 0h9.448v1.579h-9.448zm32.477-2.133h9.868v1.316h-9.868zm-10.946 0h9.869v1.316h-9.869zm-10.944 0h9.868v1.316h-9.868zm-10.587 0h9.448v1.316h-9.448zm43.303-2.134h9.495v1.316h-9.495zm-10.826 1.315v-1.315h3.177c0.676 0.775 1.447 0.71 1.447 0.71s0.821 0.097 1.515-0.71h3.73v1.315zm-4.742 0c0.544-0.443 1.15-0.533 1.552-1.315h2.113v1.315zm-6.204 0v-1.315h2.255c0.423 0.757 1.043 0.859 1.586 1.315zm-10.944 0v-1.315h3.497c0.674 0.775 1.444 0.71 1.444 0.71s0.825 0.097 1.516-0.71h3.411v1.315zm-10.587-1.315h9.448v1.316h-9.448zm43.303-2.136h9.495v1.316h-9.495zm-4.128 1.316c0.226-0.44 0.378-0.422 0.378-0.994v-0.322h2.793v1.316zm-6.698 0v-1.316h2.166v0.322c0 0.556 0.176 0.543 0.43 0.994zm-2.872 0c0.083-0.312 0.133-0.644 0.133-0.994v-0.322h1.662v1.316zm-8.074 0v-1.316h1.747v0.322c0 0.347 0.056 0.678 0.155 0.994zm-3.927 0c0.226-0.44 0.377-0.422 0.377-0.994v-0.322h2.474v1.316zm-7.017 0v-1.316h2.484v0.322c0 0.556 0.174 0.543 0.43 0.994zm-10.587-1.316h9.448v1.316h-9.448zm43.303-1.87h9.495v1.052h-9.495zm-3.75 0h2.793v1.052h-2.793zm-7.076 0h2.165v1.052h-2.165zm-2.739 0h1.662v1.052h-1.662zm-8.207 0h1.748v1.052h-1.748zm-3.55 0h2.474v1.052h-2.474zm-7.394 0h2.484v1.052h-2.484zm-10.587 0h9.448v1.052h-9.448zm43.303-1.148h9.448v0.526h-9.448zm-10.873 0h9.868v0.526h-9.868zm-10.91 0h9.867v0.526h-9.867zm-10.981 0h9.869v0.526h-9.869zm-10.539 0h9.402v0.526h-9.402zm43.303-0.952h9.448v0.321h-9.448zm-10.873 0h9.868v0.321h-9.868zm-10.91 0h9.867v0.321h-9.867zm-10.981 0h9.869v0.321h-9.869zm-10.539 0h9.402v0.321h-9.402z" fill="url(#linearGradient1626)"/></g></g><g transform="matrix(5.1329 0 0 5.1329 -1575 -2126.9)"><g clip-path="url(#clipPath1636)"><g transform="translate(388.54 594.32)"><path d="m0 0h3.725c0.29 0 0.535-0.105 0.75-0.32 0.221-0.221 0.329-0.471 0.329-0.765s-0.106-0.542-0.321-0.758-0.464-0.32-0.758-0.32h-3.725zm0-4.628h2.179l2.655-4.605h2.85l-2.786 4.803c0.584 0.204 1.091 0.557 1.512 1.053 0.569 0.657 0.857 1.429 0.857 2.292 0 0.957-0.353 1.796-1.049 2.493-0.696 0.696-1.535 1.05-2.493 1.05h-6.181v-11.691h2.456z" fill="#fff"/><g transform="translate(12.497 -4.8029)"><path d="m0 0 1.337 3.654 1.333-3.654zm-0.888-2.464h4.443l0.728-1.966h2.628l-4.26 11.69h-2.619l-4.243-11.69h2.596z" fill="#fff"/><g transform="translate(12.605,-1.9812)"><path d="m0 0h-2.077v6.784h2.077c0.934 0 1.717-0.327 2.39-1.001 0.675-0.673 1.002-1.456 1.002-2.391s-0.327-1.717-1.002-2.39c-0.673-0.674-1.455-1.002-2.39-1.002m4.125-0.741c1.144 1.143 1.724 2.533 1.724 4.133 0 1.596-0.58 2.983-1.724 4.126-1.143 1.143-2.531 1.723-4.125 1.723h-4.534v-11.69h4.534c1.594 0 2.981 0.574 4.125 1.708" fill="#fff"/><g transform="translate(-413.65 -587.53)"><path d="m423.85 596.78h-2.693v-11.69h2.693z" fill="#fff"/><g transform="translate(431.66 594.45)"><path d="m0 0c0.972 0 1.784-0.34 2.484-1.04 0.7-0.701 1.04-1.513 1.04-2.484 0-0.972-0.34-1.785-1.04-2.484-0.7-0.7-1.513-1.04-2.484-1.04s-1.783 0.34-2.484 1.04c-0.7 0.699-1.04 1.512-1.04 2.484 0 0.971 0.34 1.783 1.04 2.484 0.701 0.7 1.513 1.04 2.484 1.04m0-9.497c1.625 0 3.044 0.589 4.219 1.754 1.174 1.173 1.77 2.593 1.77 4.219 0 1.62-0.596 3.037-1.77 4.211s-2.594 1.77-4.219 1.77-3.044-0.596-4.218-1.77c-1.175-1.174-1.77-2.59-1.77-4.211 0-1.626 0.595-3.046 1.77-4.22 1.168-1.163 2.588-1.753 4.218-1.753" fill="#fff"/><g transform="translate(-43.032 -16.773)"><path d="m0 0 4.565-6.8h2.243v11.691h-2.512v-6.813l-4.565 6.813h-2.235v-11.691h2.504z" fill="#fff"/><g transform="translate(13.945 2.5655)"><path d="m0 0c1.006 0 1.848-0.341 2.571-1.045 0.721-0.699 1.072-1.51 1.072-2.479s-0.351-1.78-1.072-2.479c-0.723-0.703-1.565-1.044-2.571-1.044-1.007 0-1.848 0.341-2.573 1.044-0.72 0.699-1.07 1.51-1.07 2.479s0.35 1.78 1.07 2.479c0.725 0.704 1.566 1.045 2.573 1.045m0-9.496c1.667 0 3.124 0.588 4.332 1.749 1.209 1.174 1.823 2.595 1.823 4.223 0 1.623-0.614 3.042-1.823 4.216-1.207 1.171-2.665 1.766-4.332 1.766-1.668 0-3.125-0.595-4.332-1.766-1.209-1.174-1.823-2.593-1.823-4.216 0-1.628 0.614-3.049 1.824-4.224 1.2-1.16 2.657-1.748 4.331-1.748" fill="#fff"/><g transform="translate(12.032 -9.3651)"><path d="m0 0v9.233h3.404v2.457h-9.312v-2.457h3.396v-9.233z" fill="#fff"/><g transform="translate(6.5556,9.2334)"><path d="m0 0h3.85c0.304 0 0.562-0.106 0.787-0.325 0.23-0.223 0.337-0.465 0.337-0.76 0-0.297-0.105-0.536-0.33-0.754s-0.484-0.325-0.794-0.325h-3.85zm6.601-3.382c0.587 0.658 0.885 1.431 0.885 2.297 0 0.959-0.364 1.8-1.083 2.497-0.713 0.693-1.573 1.045-2.553 1.045h-6.354v-11.69h2.504v4.605h2.269l2.735-4.605h2.912l-2.868 4.801c0.599 0.203 1.12 0.555 1.553 1.05" fill="#fff"/><g transform="translate(16.457)"><path d="m0 0v2.457h-7.949v-11.69h7.949v2.449h-5.445v2.287h4.082v2.465h-4.082v2.032z" fill="#fff"/><g transform="translate(-46.732 -20.991)"><path d="m0 0h-2.202v6.784h2.202c0.992 0 1.821-0.33 2.533-1.009 0.707-0.673 1.05-1.453 1.05-2.383 0-0.931-0.343-1.71-1.05-2.383-0.712-0.679-1.541-1.009-2.533-1.009m0 9.241h-4.738v-11.69h4.738c1.664 0 3.113 0.571 4.309 1.701 1.201 1.143 1.81 2.535 1.81 4.14 0 1.599-0.609 2.989-1.81 4.133-1.195 1.139-2.644 1.716-4.309 1.716" fill="#fff"/><g transform="translate(14.928 1.9809)"><path d="m0 0h-3.227l1.617 3.808zm-3.059 7.261-4.921-11.691h2.879l0.845 1.965h5.284l0.845-1.965h2.916l-4.94 11.691z" fill="#fff"/><g transform="translate(13.318 -.9255)"><path d="m0 0-4.157 8.186h-2.558v-11.69h2.709v5.489l2.794-5.489h2.432l2.785 5.485v-5.485h2.719v11.69h-2.558z" fill="#fff"/><g transform="translate(10.083 -3.5044)"><path d="m0 0h8.43v2.449h-5.815v2.287h4.359v2.465h-4.359v2.032h5.815v2.457h-8.43z" fill="#fff"/></g></g></g></g></g></g></g></g></g></g></g></g></g></g></g></g></g></svg>
