<svg width="800" height="268.77" version="1.1" viewBox="0 0 640 215.02" xmlns="http://www.w3.org/2000/svg">
 <g transform="translate(.00026 .0051928)" fill="#009ee0" stroke-width="1.3333">
  <path d="m77.393 214.24 0.7922-2.3765 12.648-37.124 15.051-45.784 10.79-35.103 8.7414-27.753 4.2888-13.713c5.2722-14.888 10.79-21.525 17.865-21.525 2.5679 0 4.48 0.51904 7.6761 2.076 4.2342 2.076 4.5892 2.2127 6.1737 2.5952 1.0107 0.24585 2.1307 0.35512 3.3873 0.35512 8.96 0 15.407-7.239 15.407-17.292 0-10.654-8.1405-18.603-19.04-18.603-9.0966 0-18.74 5.1903-24.067 12.948-5.6826 8.2754-10.736 20.951-18.687 46.793l-14.123 45.892-14.041 44.421-0.68266 2.64-25.76-82.709c-2.5952-8.359-3.7151-13.604-3.7151-17.428 0-6.2556 4.0976-11.855 11.091-15.161v-1.3667h-71.189v1.3659c7.9493 1.8303 13.084 4.8897 16.881 10.053 3.8244 5.1902 8.0313 14.26 11.446 24.585l46.822 142.21h2.24z"/>
  <path d="m131.87 49.685v1.3659c5.0537 2.9503 7.7854 8.7961 7.7854 16.719v81.924c0 13.084-4.1522 23.356-12.402 30.704v1.3385l2.7864-1.1747c15.435-6.6654 20.76-8.8234 33.136-13.303 6.2829-2.2947 11.719-4.1249 16.255-5.5454 6.0644-1.8576 8.9328-2.6497 16.664-4.5346l1.7484-35.048h-1.3659c-4.6165 20.897-15.597 34.037-33.027 39.556v-57.638c11.091 0.57367 17.456 4.999 21.635 15.107h1.3659v-40.485h-1.3659c-3.5239 11.664-11.227 19.177-21.635 21.061v-44.144h6.2282c12.811 0 22.483 7.4029 26.333 20.16h1.3659l-0.85333-26.06h-64.654z"/>
  <path d="m448.37 49.685h-27.753v1.3659c5.8458 2.5132 8.1952 4.7532 9.7249 9.1786 1.3385 3.9337 2.0216 9.0693 2.0216 15.461v35.048h-1.1747l-33.453-61.053h-29.913v1.3659c5.3542 2.1853 10.845 7.4849 14.041 13.523v61.136c0 15.461-3.7697 22.017-13.523 23.467v1.3659l1.8029 0.3551 6.2009 1.1473 7.7034 1.2839 8.8234 1.5297 6.7473 1.0927 1.7757 0.27316v-1.3385c-5.4634-2.8684-8.4409-5.6274-10.599-9.7794-2.1853-4.2069-2.9229-8.9328-2.9229-18.904v-48.002h1.0107l48.761 88.862h1.3932v-91.408c0-9.4518 0.73756-15.543 2.24-18.495 1.2566-2.4859 4.1522-4.9717 7.1024-6.119v-1.3659z"/>
  <path d="m450.04 161.9v1.3932l1.3385 0.24585c13.222 2.4312 28.383 4.2614 38.572 4.6712l2.1035 0.0819v-1.3659c-3.6058-1.8303-5.955-4.1522-7.7854-7.7854-2.1853-4.2888-2.7044-7.6488-2.7044-17.428v-69.369c0-12.074 3.442-18.548 11.309-21.363v-1.2839h-41.822v1.2839c4.0976 2.8411 7.075 6.6654 8.2224 10.544 0.68293 2.322 1.1473 7.9766 1.1473 13.713v63.157c0 15.489-1.9668 19.969-10.38 23.52"/>
  <path d="m561.75 49.033-0.95609 0.35512-1.6117 0.76488c-1.8849 0.90148-4.1522 1.4479-5.8458 1.4479-1.2292 0-2.4585-0.16392-3.6059-0.4917l-3.2506-0.95612c-3.36-0.98341-6.8566-1.5297-9.6702-1.5297-21.744 0-39.228 29.64-39.228 66.489 0 32.289 14.288 55.562 34.092 55.562 13.33 0 24.695-10.79 28-26.58 1.0108-4.8624 1.2293-6.3922 1.8576-13.194h-1.12l-0.54634 1.7757c-3.7697 12.293-9.4792 17.837-18.329 17.837-14.015 0-23.028-19.04-23.028-48.624 0-15.133 1.9123-28.437 5.2722-36.769 1.4479-3.5512 3.961-6.4469 7.1297-8.1405 2.0215-1.0927 4.6712-1.7211 7.3756-1.7211 10.217 0 17.319 8.277 21.799 25.405l0.30048 1.1473h1.3659v-32.764z"/>
  <path d="m234.81 92.884c14.096-0.51904 21.799-8.0586 21.799-21.363 0-11.501-5.3816-16.255-18.467-16.255h-0.40976l-1.5844 0.02729h-1.3385v37.589zm8.6596-43.216h4.8897c9.7794 0 15.927 0.98344 20.488 3.2233 5.9005 2.9229 10.217 10.435 10.217 17.811 0 5.8458-2.677 11.91-6.8566 15.625-4.3981 3.8791-10.244 6.5561-20.843 9.5064 17.948 3.0596 22.755 8.6322 27.617 32.153 1.4205 6.8293 1.6117 7.5122 2.5952 9.6429 1.202 2.6224 2.8957 3.6058 6.1737 3.6058 1.5025 0 2.6771-0.1639 5.5454-0.71025l0.51902 0.95609c-4.644 4.6985-11.528 7.5941-17.975 7.5941-5.4634 0-10.462-2.2127-13.904-6.1464-2.4039-2.7591-4.2616-6.0917-5.4361-9.7522-1.4752-4.7532-1.9123-6.7473-4.1522-19.177-2.0215-11.391-5.7365-15.461-14.068-15.461-0.73756 0-1.3659 0.02731-2.6224 0.16389l-0.84684 0.08189v28.245c0 12.374 1.9941 16.2 9.7522 18.713v1.3659l-0.9561 0.0819-4.3161 0.3278c-3.1141 0.24585-13.112 2.0215-20.461 3.6332-6.5288 1.4205-10.08 2.3765-15.68 4.1522l-0.30049-1.3659c4.3161-3.8517 5.6546-5.4361 7.321-8.7414 2.1033-4.1522 2.677-7.1844 2.677-14.533v-59.874c0-12.703-1.7483-16.445-9.206-19.751v-1.3659h39.829z"/>
  <path d="m578.47 49.701v1.3667c6.4472 2.9229 8.9548 4.8408 12.533 9.5666l-12.667 58.966-0.73333 2.7667-3.2 11.567c-2.3493 8.4409-5.4928 16.307-8.0333 19.967-2.158 3.0869-3.6917 4.5722-8.8 8.5333l0.16667 1.4333 2.1333-0.6 9.9666-2.6c7.8669-2.076 14.367-4.0008 18.3-5.3666l-0.23333-1.3333c-5.9552-1.4752-7.7666-3.7722-7.7666-9.7 0-3.1141 0.54392-7.2816 1.5-11.133l0.5-2.2667 3.0666-13.2 1.5-0.46667c7.1302-2.1853 13.977-4.6152 18.267-6.5l1.4333 5.9333c1.5844 6.5564 2.3333 11.693 2.3333 16.2 0 6.9388-2.075 12.149-6.2 15.7l0.23333 1.3667c12.593-4.9992 26.252-12.1 37.233-19.367l-0.36667-1.3667c-3.0594-0.0273-4.9702-0.73363-6.5-2.4-2.2127-2.3761-3.2464-4.8138-6.3333-14.867-0.92885-3.0594-1.5268-5.1346-1.8-6.2l-13.533-56zm16.267 23.367h0.83333l7.8333 31.6c-5.9825 2.5951-8.32 3.336-16.433 5.4666l-0.63333 0.16667z"/>
  <path d="m313.69 97.332c0 13.523 0.601 22.455 2.2127 33.027 1.6391 10.517 5.3814 14.669 13.33 14.669 4.5618 0 8.0586-1.7756 9.9434-5.0537 3.4418-5.9824 5.2722-20.843 5.2722-42.533 0-32.891-3.7424-43.461-15.38-43.461-11.637 0-15.38 10.544-15.38 43.353m54.716 1.5297c0 33.053-14.533 52.421-39.337 52.421s-39.337-19.368-39.337-52.421c0-33.383 13.849-51.521 39.337-51.521 25.487 0 39.337 18.139 39.337 51.521"/>
  <path d="m622.23 155.95c-11.282 7.6488-27.372 15.38-43.353 20.788-22.181 7.5396-46.11 11.255-72.745 11.255-17.675 0-27.153-0.90146-55.945-5.3541l-32.235-4.9717-34.228-5.9005c-16.8-2.8684-38.517-5.5454-56.109-6.8566-12.539-0.95611-24.995-1.4205-37.343-1.4205-36.413 0-69.85 4.0702-98.15 11.965-15.244 4.2616-30.869 10.107-46.685 17.511-16.527 7.7308-22.455 11.063-36.824 20.897l0.81951 1.1473c21.691-11.992 36.332-17.701 57.721-22.536 15.107-3.4146 26.171-4.6712 41.276-4.6712 7.8674 0 16.827 0.40974 25.596 1.1473 5.7638 0.49172 13.549 1.3385 23.411 2.5679 13.112 1.6117 23.411 3.0869 30.949 4.4253l31.633 5.5454c4.6438 0.8195 13.604 2.2947 26.935 4.4253 13.277 2.1306 22.4 3.5512 27.344 4.2341 21.144 2.9776 38.244 4.2614 56.437 4.2614 48.734 0 98.669-9.7794 140.72-27.563 22.127-9.3698 41.44-20.597 51.521-29.967l-0.73759-0.92877z"/>
 </g>
</svg>
