<svg version="1.1" viewBox="0 0 1098.6 378.47" xmlns="http://www.w3.org/2000/svg">
 <g transform="translate(223.59 -248.84)">
  <path d="m868.23 423.64c2.6656 100.46-238.06 188.34-537.68 196.31-299.63 7.9881-544.69-66.983-547.36-167.43-2.6919-100.46 238.05-188.36 537.68-196.33 299.63-7.9706 544.69 67 547.36 167.45" fill="#021b03"/>
  <path d="m871.85 423.36c2.6832 102.45-239.65 192.08-541.27 200.21-301.63 8.1372-548.33-68.315-551-170.77-2.7182-102.45 239.63-192.09 541.25-200.22 301.64-8.1284 548.33 68.324 551.02 170.78z" fill="none" stroke="#021b03" stroke-miterlimit="10" stroke-width="6.2958"/>
  <path d="m868.23 423.64c2.6656 100.46-238.06 188.34-537.68 196.31-299.63 7.9881-544.69-66.983-547.36-167.43-2.6919-100.46 238.05-188.36 537.68-196.33 299.63-7.9706 544.69 67 547.36 167.45" fill="#97bf0d"/>
  <path d="m325.58 306.34c-248.33 0-421.48 68.974-421.48 130.23 0 61.248 173.14 130.23 421.48 130.23s421.47-68.981 421.47-130.23c0-61.257-173.13-130.23-421.47-130.23zm311.07 10.586c100 26.56 164.24 67.781 164.24 114.07 0 31.102-29.023 59.915-78.381 83.537 61.993-23.438 99.311-53.575 99.311-86.439 0-46.078-73.286-86.756-185.17-111.17zm-705.71 42.918c-64.185 26.437-102.27 59.03-101.18 93.262 1.4906 47.955 79.592 87.877 197.57 109.57-105.62-24.324-174.24-65.124-175.76-113.29-1.0259-32.382 28.418-63.325 79.363-89.543z" fill="#021b03"/>
  <path d="m243.93 331.17c-0.58749 2.4376-3.7871 14.318-3.7871 14.318h-20.887c-9.1017 0-13.81 5.06-15.766 12.303l-4.0332 14.994c-1.9378 7.2428 0.0683 12.303 9.1875 12.303h40.758c0.77163-2.7884 0.93809-3.3757 2.0254-7.418l12.398-46.5zm27.371 0-2.7812 10.443h19.537l2.7891-10.443zm-142.06 14.314c-9.3648 0-14.757 5.5667-17.115 14.414l-4.2891 16.09c-1.438 5.4715-1.3405 5.1314-2.4453 9.1035h21.395c1.0873-4.13 1.0083-3.632 2.4551-9.1035l5.1992-19.465c0.68394-2.4464 1.702-3.2793 4.1309-3.2793h10.373c0.58749-2.1132 1.5959-5.8132 2.0957-7.7598zm27.602 4e-3 -2.0957 7.752h20.713c2.7883 0 3.2088 0.76293 2.709 2.5254-0.42089 1.8589-0.42149 1.5956-0.67578 2.7793h-21.482c-8.9263 0-12.478 3.7098-14.652 11.961l-0.77148 2.6133c-2.1921 8.2599-0.67532 11.969 8.2598 11.969h41.369c0.82426-2.955 0.92057-3.3757 2.0254-7.418l4.6309-17.432c2.9374-10.873 0.15735-14.75-9.3652-14.75zm110.51 0-10.609 39.6h19.869l10.627-39.6zm38.234 0c-8.9351 0-12.468 3.7098-14.66 11.961l-4.2266 15.67c-2.1746 8.2599-0.65776 11.969 8.2773 11.969h30.996c8.9351 0 12.47-3.7088 14.662-11.969l4.207-15.67c2.1921-8.2512 0.67537-11.961-8.2422-11.961zm-78.24 7.752h7.918c1.9378 0 2.6139 0.84108 2.0352 3.0332l-4.9121 18.029c-0.56119 2.1921-1.6041 3.0332-3.5332 3.0332h-7.918c-1.9291 0-2.6041-0.84108-2.0078-3.0332l4.8848-18.029c0.58749-2.1921 1.5954-3.0332 3.5332-3.0332zm87.43 0h8.2422c2.3675 0 2.7808 0.92136 2.1934 3.2012l-4.709 17.693c-0.58749 2.271-1.5348 3.2012-3.8848 3.2012h-8.2598c-2.1834 0-2.6138-0.93014-2.0176-3.2012l4.7363-17.693c0.56117-2.2798 1.5071-3.2012 3.6992-3.2012zm-148.24 13.057h8.8574l-1.6934 6.2344c-1.3416 5.0594-1.6739 4.8047-5.4707 4.8047h-4.6387c-3.0251 0-4.1298-0.50772-3.2793-3.375l1.0859-4.2969c0.77162-2.8585 2.1136-3.3672 5.1387-3.3672z" fill="#fff"/>
  <path d="m541.72 378.07c-10.803 0-19.449 3.1471-26.314 8.8379-6.892 5.9012-11.794 15.327-15.328 28.287l-13.941 51.656c-3.5337 13.354-3.3311 22.788 0.38671 28.479 3.7442 5.9012 10.996 8.4531 21.623 8.4531h79.934c10.794 0 19.448-2.945 26.139-8.6445 7.0499-5.9012 12.161-15.327 15.502-28.287l13.941-51.656c3.5337-13.363 3.1475-22.588-0.58789-28.287-3.7178-5.8837-10.608-8.8379-21.402-8.8379zm-154.52 0.21875-86.816 81.318-5.3047 19.836h70.727l-6.4883 24.357h54.996l6.4785-24.357 5.8926-22.002 21.221-79.152zm117.88 4.7344c-0.84177 0.21043-1.667 0.43117-2.5 0.65039-14.863 6.0415-27.541 18.931-31.479 33.732l-12.355 46.236c-2.5955 9.6103-1.0508 18.43 4.3418 24.84 3.3408 3.9897 8.0316 6.7259 13.6 8.0938-3.7441-7.7689-3.8505-18.484-0.0801-32.715l13.961-51.709c3.4811-12.741 8.251-22.289 14.512-29.129zm147.05 0.36914c3.7441 7.7601 3.831 18.493 0.0781 32.707l-13.959 51.707c-3.4898 12.732-8.2598 22.299-14.512 29.139 0.84178-0.21921 1.667-0.43899 2.5-0.6582 14.863-6.0415 27.515-18.915 31.479-33.725l12.355-46.236c2.5779-9.619 1.0333-18.439-4.3418-24.84-3.3583-3.9984-8.0492-6.7346-13.6-8.0938zm-657.42 7.0039-4.2969 15.975h-14.303l-3.6816 14.328h14.16l-9.707 36.205c-4.8577 18.309 4.053 23 15.803 23h40.221l3.9102-14.398h-17.854c-6.5764 0-7.0312-1.2522-5.7774-5.9434l10.328-38.811h23.158l3.9199-14.406h-23.176l4.2441-15.949zm682.36 1.5801c3.9634 7.7075 4.8063 16.889 2.1758 26.613l-12.348 46.244c-2.1921 8.1985-6.7162 15.89-12.688 22.492 0.38582-0.0789 4.9454-1.3065 11.25-4.5859 8.9439-5.4365 16.063-14.54 18.422-24.834l8.8047-38.537c1.8238-7.953 1.1048-14.941-3.7793-20.482-3.4372-3.9108-11.601-6.8576-11.838-6.9102zm-202.46 0.6582c-0.41211 0.0877-4.9464 1.3065-11.26 4.5859-8.9351 5.454-16.064 14.546-18.414 24.84l-8.8027 38.547c-1.8238 7.9442-1.1038 14.925 3.7539 20.467 3.446 3.9108 11.6 6.8556 11.863 6.9082-3.9634-7.69-4.8151-16.897-2.1934-26.621l12.338-46.227c2.1921-8.2073 6.7435-15.889 12.715-22.5zm91.271 5.8652h20.807c6.3046 0 8.654 2.7449 7.2773 8.0586l-18.465 68.947c-1.5696 5.4891-5.3136 8.0488-11.592 8.0488h-20.809c-6.287 0-8.8469-2.7439-7.2774-8.0488l18.457-68.947c1.3766-5.5066 5.3233-8.0586 11.602-8.0586zm-180.06 6.1113-14.135 52.83h-42.045zm-302.84 1.7344c-16.581 0-23.149 6.8924-27.227 22.229l-7.8223 29.102c-4.0686 15.336-1.2531 22.229 15.328 22.229h57.6c16.599 0 23.159-6.8924 27.219-22.229l7.8301-29.102c4.0773-15.336 1.2628-22.229-15.336-22.229zm90.162 4e-3c-1.8764 6.892-1.7274 6.2608-3.7441 13.775l-23.492 87.631h36.934c1.8765-6.7254 1.7284-6.2501 3.7715-13.773l3.7344-14.074h38.826c16.914 0 25.657-9.391 29.27-22.859l7.4883-27.84c3.6126-13.468-0.13927-22.859-17.045-22.859zm528.93 2.7344c0.46473 4.051 0.27209 8.3031-0.71875 12.617l-8.8027 38.539c-0.65763 2.9024-1.6494 5.6909-2.9121 8.4004 8.8123-6.6202 15.424-13.882 19.221-21.607 6.6728-13.617 3.7088-26.699-6.7871-37.949zm-602.04 11.668h15.336c4.3842 0 5.1635 1.7189 4.0762 5.9453l-8.7676 32.855c-1.0873 4.2352-2.815 5.9531-7.1992 5.9531h-15.326c-4.0686 0-4.8587-1.7179-3.7539-5.9531l8.7422-32.855c1.1048-4.2264 2.8152-5.9453 6.8926-5.9453zm111.29 4e-3h14.723c3.5863 0 4.8314 1.5603 3.7441 5.6289l-9.0742 33.486c-1.0873 4.0774-2.9655 5.6387-6.5781 5.6387h-14.713c-3.5951 0-4.8393-1.5613-3.752-5.6387l9.0742-33.486c1.1048-4.0686 2.9723-5.6289 6.5762-5.6289z" fill="#97bf0d"/>
 </g>
</svg>
