<svg width="800" height="250.27" fill="none" version="1.1" viewBox="0 0 800 250.27" xmlns="http://www.w3.org/2000/svg">
 <path d="m48.985 216.75 60.841-73.215-44.857 78.371-8.6443 28.358h-22.291z" fill="#00bcd4" stroke-width="3.9611"/>
 <path d="m52.591 216.24 57.232-72.699-83.527 60.325-26.295 46.404h34.189z" fill="#00bcd4" stroke-width="3.9611"/>
 <path d="m0 250.27 108.97-105.74 27.243 46.537 27.243 15.275 30.405 43.931-98.158-249.55z" fill="#005694" stroke-width="3.9611"/>
 <mask id="mask0" x="0" y="36" width="28" height="28" mask-type="alpha" maskUnits="userSpaceOnUse">
  <path d="m10.035 53.86 17.723-16.942-11.468 19.678-2.0851 7.2978h-14.205z" fill="#c4c4c4"/>
 </mask>
 <g transform="matrix(3.9611 0 0 3.9611 0 -3.2455)" mask="url(#mask0)">
  <path d="m10.035 53.729 17.723-16.811-11.338 19.808-2.1849 7.1675h-14.235z" fill="#fff"/>
  <path d="m2.3477 61.417 6.3856 3.5186" stroke="#00bcd4" stroke-width="1.0426"/>
  <path d="m-1.3027 61.156 6.3856 3.5187" stroke="#00bcd4" stroke-width="1.1729"/>
  <path d="m-4.4297 61.156 6.3856 3.5187" stroke="#00bcd4" stroke-width="1.1729"/>
  <path d="m3.3906 60.244 7.8192 4.4309" stroke="#00bcd4" stroke-width="1.0426"/>
  <path d="m4.1719 58.941 9.6436 5.4734" stroke="#00bcd4" stroke-width=".91223"/>
  <path d="m5.4746 57.898 9.6436 5.2128" stroke="#00bcd4" stroke-width=".91223"/>
  <path d="m6.2559 56.335 9.6436 5.4734" stroke="#00bcd4" stroke-width=".78192"/>
  <path d="m7.2988 53.207 9.6436 5.4734" stroke="#00bcd4" stroke-width=".6516"/>
  <path d="m8.0801 55.553 7.8191 4.4309" stroke="#00bcd4" stroke-width=".6516"/>
  <path d="m10.688 53.338 6.3856 3.5186" stroke="#00bcd4" stroke-width=".6516"/>
  <path d="m11.469 52.034 6.3856 3.5186" stroke="#00bcd4" stroke-width=".52128"/>
  <path d="m13.033 51.253 6.3856 3.5186" stroke="#00bcd4" stroke-width=".52128"/>
  <path d="m13.033 49.688 6.3856 3.5186" stroke="#00bcd4" stroke-width=".52128"/>
  <path d="m13.033 48.125 6.3856 3.5186" stroke="#00bcd4" stroke-width=".39096"/>
  <path d="m15.379 47.864 6.3856 3.5186" stroke="#00bcd4" stroke-width=".39096"/>
  <path d="m16.943 47.082 6.3856 3.5186" stroke="#00bcd4" stroke-width=".39096"/>
  <path d="m16.943 45.519 6.3856 3.5186" stroke="#00bcd4" stroke-width=".26064"/>
  <path d="m16.943 43.954 6.3856 3.5186" stroke="#00bcd4" stroke-width=".26064"/>
  <path d="m16.943 42.391 6.3856 3.5186" stroke="#00bcd4" stroke-width=".26064"/>
  <path d="m17.463 41.088 6.3856 3.5186" stroke="#00bcd4" stroke-width=".26064"/>
  <path d="m17.984 39.784 6.3856 3.5186" stroke="#00bcd4" stroke-width=".26064"/>
  <path d="m19.289 39.003 6.3856 3.5186" stroke="#00bcd4" stroke-width=".13032"/>
  <path d="m19.289 37.438 6.3856 3.5186" stroke="#00bcd4" stroke-width=".13032"/>
  <path d="m20.852 36.656 6.3856 3.5187" stroke="#00bcd4" stroke-width=".13032"/>
  <path d="m20.852 35.093 6.3856 3.5186" stroke="#00bcd4" stroke-width=".13032"/>
 </g>
 <path d="m0 249.84 109.1-105.87 27.276 46.592 27.275 15.293 30.441 43.983-98.274-249.84z" fill="#005694" stroke-width="3.9611"/>
 <g transform="matrix(3.9611 0 0 3.9611 0 -3.2455)" fill="#fff">
  <path d="m60.529 30.215c0-1.9777-1.5473-3.4222-3.6619-3.4222h-4.3667v12.038h0.5673v-5.2108h3.6963l3.1117 5.2108h0.6361l-3.1289-5.2452c1.8395-0.2063 3.1461-1.5649 3.1461-3.3707zm-7.4613-2.8719h3.7822c1.8224 0 3.1118 1.2038 3.1118 2.8719 0 1.651-1.2894 2.8548-3.1118 2.8548h-3.7822z"/>
  <path d="m72.064 38.83h0.6189l-5.2435-12.038h-0.4814l-5.1059 12.038h0.6017l1.4785-3.4738h6.6188zm-4.8653-11.213 3.1289 7.2057h-6.1718z"/>
  <path d="m78.488 26.792h-3.5415v12.038h3.5415c3.5415 0 6.1031-2.528 6.1031-6.0191 0-3.491-2.5616-6.019-6.1031-6.019zm0 11.505h-2.9742v-10.955h2.9742c3.2149 0 5.5357 2.3044 5.5357 5.4687 0 3.1644-2.338 5.486-5.5357 5.486z"/>
  <path d="m87.387 38.83h0.5674v-12.038h-0.5674z"/>
  <path d="m96.964 39.02c3.61 0 6.206-2.6484 6.206-6.1911 0-3.5426-2.596-6.2082-6.206-6.2082-3.6275 0-6.2063 2.6828-6.2063 6.2082 0 3.5255 2.5788 6.1911 6.2063 6.1911zm0-0.5503c-3.2836 0-5.6389-2.442-5.6389-5.6408 0-3.2159 2.3553-5.6579 5.6389-5.6579 3.284 0 5.639 2.4248 5.639 5.6579 0 3.216-2.355 5.6408-5.639 5.6408z"/>
  <path d="m115.01 39.14c3.868 0 6.619-2.6312 6.619-6.3115 0-3.6974-2.751-6.3286-6.619-6.3286s-6.619 2.6484-6.619 6.3286c0 3.6631 2.751 6.3115 6.619 6.3115zm0-3.0783c-1.822 0-3.18-1.3758-3.18-3.2332 0-1.8745 1.358-3.2503 3.18-3.2503 1.84 0 3.163 1.3586 3.163 3.2503 0 1.8746-1.323 3.2332-3.163 3.2332z"/>
  <path d="m130.93 32.485c0.911-0.5675 1.513-1.5306 1.513-2.5968 0-1.7885-1.564-3.0783-3.696-3.0783h-5.433v12.038h5.553c2.218 0 3.903-1.4789 3.903-3.4394 0-1.307-0.705-2.3905-1.84-2.9236zm-1.633-2.0465c0 0.6191-0.43 1.049-1.117 1.049h-1.685v-2.098h1.685c0.687 0 1.117 0.4127 1.117 1.049zm-0.997 5.6751h-1.805v-2.184h1.805c0.722 0 1.186 0.4471 1.186 1.0834 0 0.6535-0.464 1.1006-1.186 1.1006z"/>
  <path d="m137.82 35.959v-1.8058h3.954v-2.7171h-3.954v-1.7714h4.401v-2.8719h-7.702v12.038h7.857v-2.8719z"/>
  <path d="m150.75 38.83h3.696l-2.389-4.3681c1.186-0.7051 1.908-1.9261 1.908-3.4051 0-2.5108-1.891-4.2649-4.47-4.2649h-5.226v12.038h3.318v-3.6802h1.203zm-3.163-9.0802h1.513c0.928 0 1.461 0.5503 1.461 1.307 0 0.7395-0.533 1.307-1.461 1.307h-1.513z"/>
  <path d="m159.26 35.804v-9.0114h-3.369v12.038h7.65v-3.0267z"/>
  <path d="m173 38.83h3.662l-4.831-12.038h-3.249l-4.728 12.038h3.559l0.67-1.9433h4.264zm-1.461-4.5401h-2.648l1.307-3.7318z"/>
  <path d="m185.34 26.792v6.3286l-4.625-6.3286h-2.905v12.038h3.215v-6.5178l4.779 6.5178h2.751v-12.038z"/>
  <path d="m195.74 26.792h-4.865v12.038h4.865c3.645 0 6.224-2.5108 6.224-6.0191 0-3.5254-2.579-6.019-6.224-6.019zm-0.155 9.0114h-1.375v-5.9675h1.375c1.788 0 2.975 1.1866 2.975 2.9751 0 1.7714-1.187 2.9924-2.975 2.9924z"/>
 </g>
</svg>
