<svg width="789.62" height="800" version="1.1" xmlns="http://www.w3.org/2000/svg">
 <link href="" rel="stylesheet" type="text/css"/>
 <style type="text/css"/>
 <g transform="matrix(1.8871 0 0 1.8871 -265.66 -604.6)">
  <path d="m350 744.33c115.55 0 209.22-94.901 209.22-211.97 0-117.07-93.669-211.97-209.22-211.97s-209.22 94.903-209.22 211.97c0 117.07 93.671 211.97 209.22 211.97" fill="#ffe200"/>
  <path d="m553.22 595.6c-1.0058-19.066-10.354-27.426-16.537-32.955l-1.6361-1.4753 0.30428 0.28361c-11.322-10.68-25.602-15.886-41.301-15.051-5.2918 0.28098-11.868 0.0494-19.484-0.21579-11.574-0.40516-25.977-0.90985-41.883 0.33382l0.20777-0.0159c-24.182 1.6902-42.584 2.8749-54.699 3.5161-10.996 0.58395-25.293 0.23252-44.988-1.108-13.467-1.0226-18.832-1.7536-22.036-2.1896-3.1488-0.43071-5.8742-0.79975-10.625-0.8253-17.493-0.15061-32.936 7.4047-43.494 21.281l-0.17735 0.23694-1.6213 2.1332c-6.0368 7.8522-11.392 16.203-10.577 31.92 1.4527 28.107 18.512 47.582 46.803 53.429 28.749 5.8581 52.53 6.96 97.943 4.5466l0.29383-0.0168c0.60769-0.0379 60.689-3.8939 89.679-3.2941 6.3889 0.16735 9.8706 0.28714 11.767 0.36553 1.4484 0.16911 2.9576 0.26952 4.5606 0.2475 2.1534-0.03 4.225-0.33998 6.2133-0.84555 14.604-1.3018 27.39-7.6232 37.047-18.489l0.1504-0.17175 0.14779-0.17175c9.2152-10.742 14.03-23.867 14.03-38.133 0-1.1063-0.0295-2.2169-0.0869-3.3355m-252.7-49.703c6e-3 0 0.093 8.8e-4 0.12953 8.8e-4z" fill="#ef472c"/>
  <path d="m519.26 469.68c0.0139 0.0141 0.0321 0.0246 0.0444 0.0405l-0.0783-0.0855c0.013 0.0132 0.0209 0.03 0.0339 0.0449m-61.863-5.2962c-2.6785 2.1244-4.3242 5.2116-4.6276 8.6801-0.0304 0.36465-0.0479 0.72841-0.0479 1.093 0 1.8109 0.39035 3.6059 1.1641 5.3552 0.49726 1.1362 1.7387 3.6746 6.9053 13.243 2.482 4.6065 4.2016 8.4934 5.1057 11.547 1.1971 4.0402 3.6061 9.072 7.2826 15.252-1.8109 2.7551-3.773 5.7383-3.773 5.7383-2.8932 4.5668-11.61 24.048-11.951 27.931-0.0312 0.37081-0.0461 0.74515-0.0461 1.1142 0 3.1153 1.1354 6.0501 3.2557 8.3692 2.2099 2.4107 5.0196 3.8332 8.1258 4.1097 4.4824 0.39548 8.6136-1.6744 11.344-5.6749l0.13562-0.19818 3.1149-5.2257s11.972-24.258 12.211-24.741c3.154-5.2926 6.5958-11.529 10.242-18.562 0.0365-0.0758 8.171-16.225 9.3708-18.609 1.4831-2.4072 2.3412-3.6526 2.7898-4.2498l0.12867-0.17 0.11913-0.17879c2.708-4.0446 4.026-7.1291 4.2755-9.9995 0.0321-0.37697 0.0478-0.75218 0.0478-1.1239 0-3.1638-1.1571-6.1082-3.3096-8.4036-2.1725-2.3482-4.9614-3.7398-8.0789-4.0155-5.1005-0.44744-9.6098 2.1597-12.071 6.9758 0 0-3.9982 6.6754-5.2483 8.5172l-0.27645 0.40604s-2.9541 5.7991-5.5604 10.911c-0.92412-2.4274-2.01-4.9518-3.2957-7.58-0.91021-1.9007-2.7628-5.4071-5.6247-10.639-0.0635-0.11887-3.1775-6.0985-3.1775-6.0985l-0.0791-0.13476c-2.1525-3.7609-5.5552-6.0298-9.582-6.3839-3.1931-0.28537-6.2602 0.66499-8.8692 2.7454m-45.611 3.785c0.0296 5e-3 0.0521 9e-3 0.0791 0.0132 0.0217 4e-3 0.0356 4e-3 0.06 7e-3l-0.1391-0.0203zm-16.911 82.581c-0.0191-0.0176-0.0321-0.0405-0.0512-0.0581-0.053-0.0634-0.10863-0.10125-0.16084-0.16735 0 0 0.20517 0.21932 0.21212 0.22549m38.605-28.718c-1.0319 2.3288-2.4072 4.1238-4.2059 5.5102-0.76937 0.5866-3.4157 2.0496-10.637 2.4336-1.1893 0.0616-2.2134-0.0335-3.1644-0.1973-0.14779-6.5178-0.45902-20.207-0.45902-20.207s-0.81372-13.092-0.82414-13.279c-8.8e-4 -0.0176-0.027-0.68173-0.0321-0.84908 4.5884-0.29066 6.7992-0.1788 9.0691 0.83146 6.7618 3.0088 11.312 11.968 11.655 18.545 0.0139 0.26336 0.02 0.52847 0.02 0.79095 0 2.179-0.46684 4.2885-1.4205 6.4209m25.124-9.516c-0.56247-10.835-5.4291-20.544-14.466-28.858-6.9244-6.3478-12.703-9.5274-22.577-12.432-1.4449-0.75219-4.3833-2.2469-9.6959-3.044-5.3309-0.88255-7.9024-0.55489-10.086 0.21579-3.1784 0.66147-6.5549 2.5807-8.6805 5.1446-8.8e-4 8.8e-4 -0.6468 0.70727-0.6468 0.70727-1.3266 1.4004-3.746 3.9582-3.746 7.9755 0 0.17263 7e-3 0.34967 0.0156 0.52847 0 1e-3 0.0983 3.8393 0.0983 3.8393 0.0391 2.5948 0.0844 5.8246 0.41034 10.549 2e-3 0.0309 1.0502 15.933 1.0502 15.933 0.16171 3.1144 0.25559 7.8812 0.28515 14.166 0.0635 6.6481 0.17822 11.501 0.35295 14.864 0.16953 3.3487 1.5248 6.3143 3.906 8.5868 1.6822 1.9545 3.3766 2.7102 5.5726 3.5187l0.23646 0.0846 2.9784 0.87902 0.69201 0.14445 1.7883 0.41308 4.3685 0.99793c3.5026 0.67116 6.6088 0.92746 9.4681 0.77509 10.337-0.55049 17.358-6.1126 22.002-9.7934l1.3675-1.0746-1e-3 1e-3c5.0927-3.938 9.0448-9.05 11.746-15.201 2.3985-5.386 3.6174-11.038 3.6174-16.802 0-0.70551-0.0165-1.411-0.0548-2.12m-99.608 10.604c-1.151 2.2689-2.615 3.99-4.4841 5.2794-0.79894 0.54344-3.5148 1.8637-10.748 1.8637-1.1754 0-2.2203-0.11275-3.1505-0.32062 0.18777-6.4905 0.58595-20.247 0.58595-20.247s-0.13563-13.119-0.13737-13.306c0-0.0176 0.01-0.67908 0.0125-0.84466 4.5789-0.0457 6.8036 0.17967 9.0117 1.308l1e-3 8.7e-4c6.5958 3.3628 10.681 12.552 10.681 19.137-8.7e-4 2.4653-0.57986 4.7994-1.7726 7.129m12.626-37.758c-6.5836-6.7028-12.189-10.186-21.902-13.612-1.4066-0.82882-4.2711-2.4838-9.5516-3.561-5.2509-1.1556-7.8277-0.96445-10.045-0.31267-3.2096 0.48707-6.6897 2.2249-8.9483 4.677 0 8.8e-4 -0.67983 0.67116-0.67983 0.67116-1.457 1.3864-4.1668 3.9644-4.1668 8.2926l-0.0991 3.8446c-0.0748 1.9932-0.16257 4.3599-0.16257 7.4972 0 0.94507 7e-3 1.9606 0.0279 3.0554 8.8e-4 0.03 0.22516 15.969 0.22516 15.969-1e-3 3.1039-0.1504 7.8698-0.44685 14.161-0.27992 6.6323-0.41902 11.482-0.41902 14.863 0 3.3487 1.198 6.3778 3.4522 8.7726 1.5805 2.0514 3.2375 2.8916 5.3926 3.8173l0.23212 0.0969 2.9245 1.0349 0.68419 0.18231 1.7604 0.50645 4.3207 1.2313c3.4505 0.8526 6.541 1.2727 9.409 1.2727 10.354 0 17.653-5.1816 22.482-8.614l1.4205-0.99792-4e-3 1e-3c5.2874-3.6623 9.496-8.5586 12.513-14.554 3.0036-5.8986 4.538-12.206 4.538-18.71-1e-3 -10.85-4.3616-20.803-12.958-29.585m-31.506-17.184 0.13475 0.0291c-0.0295-7e-3 -0.11738-0.0264-0.13475-0.0291m-21.157 81.569c-0.02-0.0203-0.0321-0.0449-0.0521-0.067-0.0479-0.0599-0.0965-0.0995-0.14257-0.16294 0 0 0.19387 0.22812 0.19473 0.22987m-10.472-78.784v-2e-3zm-36.579-11.909c-2.5194 0.38403-5.2144 0.9583-7.9711 1.6206-1.3953-0.53552-2.8863-0.83235-4.452-0.83235-6.1368 1e-3 -12.327 4.1353-12.327 13.365 0 1.522 0.17388 3.5222 0.53032 6.1162 0.34252 2.4803 0.38077 3.5513 0.38077 3.8975-1e-3 3.8111-0.2695 9.7582-0.79111 17.637-0.6268 1.5352-0.98498 3.1761-0.98498 4.8804 0 1.1239 0.17213 2.2108 0.4425 3.2748-0.0921 1.9192-0.3008 6.243-0.3008 6.243l-0.1417 6.7706c0 12.452 2.1795 20.299 6.8609 24.694 4.305 4.0639 11.528 5.8836 23.41 5.8836 13.478-8.8e-4 17.913-0.58925 20.074-1.0323 6.228-1.263 10.104-6.0096 10.104-12.381-8.6e-4 -7.5791-5.064-12.674-12.6-12.674-1.0693 1e-3 -2.342 0.14445-4.0138 0.44831l0.19474-0.0335-1.5327 0.18584c0.0174 0-8.7883 0.18938-8.7883 0.18938 0.0652-1e-3 -8.2206 0.13475-8.2206 0.13475-0.27297 0-0.45032-0.0113-0.68765-0.0159-0.0835-1.2639-0.14692-3.0061-0.14692-5.3992 0 0 0.0374-2.1834 0.06-3.7002 6.8888 0.0916 16.127 0.21667 16.127 0.21667l11.349-1.0173 0.11825-0.0141c6.7079-0.81032 11.043-5.726 11.043-12.526 0-3.6024-1.3623-6.8754-3.8347-9.2156-2.3612-2.2328-5.3596-3.4104-8.6735-3.4104-1.1154 1e-3 -3.4157 0.11275-11.135 0.91778-0.53553-7e-3 -7.2669-0.103-13.578-0.19025 0.17909-3.598 0.27993-6.7054 0.29037-9.3028 0.99801-0.39548 1.9291-0.73194 2.5316-0.82618 2.5394-0.39811 4.884-0.6007 6.9653-0.6007l2.5211-0.0255c3.1444-0.0494 4.8771-0.0784 7.9824 0.81825 1.1484 0.34439 2.3646 0.52935 3.5357 0.52935 3.5739 0 6.8375-1.5387 9.1908-4.3299 2.0073-2.4274 3.0436-5.3085 3.0445-8.3868 0 0.59365 0.0747-4.0111-0.86067-5.3922-0.93455-1.3828-3.4305-3.5478-4.3476-3.9036l-0.49032-0.19289c-5.403-2.1888-12.126-3.2466-20.576-3.2466-3.2383 1e-3 -6.7036 0.27921-10.304 0.82617m-123.11-41.649-0.64159 0.76012c-2.149 2.5137-4.0799 5.2037-4.0799 10.458 0 9.4006 5.3544 16.198 14.69 18.651 11.363 2.9471 27.218 3.5654 38.523 3.5654 0.0209 0 0.48945-5e-3 1.1276-0.0125 0.13824 1.3864 0.28862 2.8159 0.46771 4.4471 0.4312 3.8975 1.0241 9.2376 1.7492 17.816 0.73199 8.3701 1.3136 12.43 1.6996 15.116 0.43468 3.0369 0.59898 4.174 0.59898 8.8571 0 3.6306 0.2043 8.7788 0.6242 15.735 0.46337 6.5715 0.69462 11.44 0.69462 14.559-8.7e-4 0.0564-0.0139 0.88079-0.39208 3.1902-0.42337 2.5692-0.62246 4.4973-0.62246 6.0536 0 4.883 1.9665 8.3278 6.0116 10.524 0 0 0.23646 0.12947 0.24602 0.13476 1e-3 0.0125 0.67028 0.61919 0.67028 0.61919 1.8908 1.7466 4.7484 4.3792 10.404 4.3792 4.3702 0 12.36-1.5731 16.779-12.113l-0.0695 0.16206 0.60942-1.3247c1.4353-3.0563 2.3794-5.467 2.3794-10.908-4e-3 -2.7982-0.2495-6.6702-0.75198-11.846-0.55204-5.6502-0.66679-8.5718-0.66679-10.028-1e-3 -6.7732-0.28167-9.3706-0.79025-14.089-0.35556-3.3126-0.84501-7.8522-1.4649-16.123-8.6e-4 -0.0125-1.69-19.711-1.69-19.711-0.26688-2.8546-0.47727-5.1182-0.63984-7.2286 2.1499-0.17262 4.3285-0.5179 6.6236-0.95123 4.106-0.77598 8.7622-1.6541 14.02-1.2657 10.683 0.84379 18.461 1.256 23.741 1.256 5.1952 0 9.8341-1.9166 13.413-5.5436l0.106-0.10925c3.5104-3.6852 5.3674-8.3806 5.3674-13.583-8e-3 -6.3769-2.9784-9.3284-4.9449-11.283l-0.42685-0.42366c-2.5742-2.6978-7.12-5.1314-14.159-1.404 0 0-0.14431 0.074-0.27383 0.13916-4.9849-0.0405-12.247-0.40692-21.667-1.0983-10.542-0.77596-18.305-1.1529-23.736-1.1529-4.1486 0-10.252 0.10212-18.661 0.31003-0.0156-8.8e-4 -18.234 0.20258-18.234 0.20258-3.6869 0-8.4588-0.37169-15.018-1.1688-8.6596-1.1212-14.159-1.7457-16.749-1.8972-5.8047-0.36818-11.099 1.8787-14.868 6.3275m304.45 26.041c-1.9282-1.5951-2.8941-3.6579-2.9393-6.2967-0.0739-4.1784 1.031-7.9174 3.374-11.433 2.3951-3.6156 5.2092-5.3974 8.6127-5.46 3.4635-0.0608 5.9777 0.51966 7.2808 1.6796 1.3484 1.1935 2.0586 3.5275 2.1169 6.9388 0.0721 4.2022-0.94238 8.0539-3.0193 11.446-2.1899 3.5795-4.8771 5.3472-8.2119 5.4062-2.9036 0.0511-5.2631-0.69494-7.2139-2.2812m22.745-28.669c-3.134-2.8388-7.799-4.2242-13.863-4.1168-6.4489 0.11538-11.826 3.2096-15.984 9.2033-3.6165 5.2468-5.3917 11.118-5.2848 17.453 0.0956 5.4794 2.189 9.9854 6.2211 13.398 3.7391 3.1532 8.2962 4.7043 13.545 4.6118 6.4802-0.11362 11.761-3.265 15.695-9.361 3.3053-5.1464 4.9249-10.95 4.8188-17.258-0.11038-6.2615-1.8404-10.949-5.1483-13.93m-40.602 29.681c-0.0174 8.8e-4 -3.327 0.103-5.6769 0.17528 9e-3 -0.3664 0.0347-0.68701 0.0347-1.0675 0-0.35935-1e-3 -0.72311-7e-3 -1.0957l-0.35383-8.8351c-0.0147-0.90104-0.0226-1.8144-0.0226-2.7375 0-2.9057 0.0948-5.9356 0.24776-9.013 0.87893 0.10037 1.7865 0.20435 1.7865 0.20435 1.7344 0.20521 3.1601 0.29593 4.345 0.27392 1.1223-0.0203 2.1699-0.39812 3.0314-1.0931 1.0893-0.94067 1.6379-2.1614 1.6379-3.5786 0-0.0326-8.8e-4 -0.0651-1e-3 -0.0969-0.0479-2.682-1.6066-4.4832-4.1677-4.8188-5.1388-0.65354-9.4838-0.953-12.915-0.89312-3.8434 0.0696-6.4115 0.18409-7.8494 0.3532-2.6924 0.31004-4.2755 2.1244-4.2285 4.8558 0.0217 1.3423 0.51379 2.5226 1.4266 3.4078 0.89718 0.88342 2.0604 1.3423 3.3574 1.3168 0.047-8.8e-4 3.3253-0.13564 3.3253-0.13564 4e-3 -8.7e-4 0.3999-0.0194 0.90238-0.0431-0.21733 3.9873-0.33382 7.5483-0.33382 10.583 0 0.66235 4e-3 1.2992 0.0147 1.9131 0 8.7e-4 0.23299 4.4189 0.23299 4.4189 1e-3 0.0272 0.24255 4.1608 0.24255 4.1608 8e-3 0.28801 0.01 0.57073 0.01 0.84818 0 0.68262-0.0165 1.3309-0.0453 1.9456-1.5405 0.2202-2.6924 0.33823-3.4331 0.35055-1.2866 0.0229-2.4324 0.53904-3.3122 1.4894-0.82936 0.93892-1.2536 2.0707-1.2536 3.3091 0 0.0335 8.6e-4 0.0642 1e-3 0.096 0.0217 1.2974 0.49553 2.4512 1.3692 3.3329 0.90847 0.91865 2.0717 1.3934 3.3627 1.3714 1.2475-0.022 2.9775-0.22018 5.2926-0.60157 2.0925-0.32765 3.6713-0.50293 4.6763-0.52054 8.6e-4 0 4.2737-0.12684 4.2737-0.12684 0.0174-8.7e-4 4.199-0.15061 4.199-0.15061 1.2893-0.0238 2.4238-0.53111 3.2853-1.4656 0.85806-0.93188 1.298-2.1174 1.2771-3.428-0.0235-1.3115-0.51378-2.4715-1.4179-3.3558-0.84327-0.88695-2.01-1.3723-3.3131-1.3494m-35.139-4.9385c-0.7772 1.596-1.797 2.83-3.121 3.7768-0.92674 0.65706-2.9271 1.4638-7.1383 1.5396-1.5926 0.0282-2.8889-0.29506-3.9538-0.8614 0.0252-2.1861 0.14865-12.622 0.14865-12.622-8.6e-4 -0.0854-0.20169-7.4153-0.20169-7.4153v-2e-3c0-0.0722-5e-3 -1.3687-0.01-2.5798 3.9808-0.16824 6.0064-0.24487 8.0972 0.77685 4.4824 2.1843 7.2391 8.0292 7.3113 12.416 2e-3 0.0634 2e-3 0.12506 2e-3 0.18761 0 1.6568-0.37209 3.2237-1.1354 4.7853m10.005-5.7066c-0.0948-5.4106-2.3846-10.366-6.8036-14.729-3.5357-3.4747-6.3767-5.1579-11.634-6.886-0.0479-0.0264-0.13736-0.0757-0.13736-0.0757-0.67461-0.38139-2.0786-1.1758-4.7249-1.662-2.7046-0.55137-3.7104-0.37962-4.4815-0.14357-1.3484 0.13036-3.0088 0.97504-3.9773 2.0637-8.6e-4 1e-3 -0.47206 0.48532-0.47206 0.48532-0.67549 0.66498-1.6014 1.5766-1.5744 3.029 0 1e-3 -0.02 2.2249-0.02 2.2249l0.0286 5.7128c0 9e-3 0.27385 8.8756 0.27385 8.8756 0.0321 1.7457-9e-3 4.4198-0.10862 7.95 0 9e-3 -0.0913 8.1305-0.0913 8.1305 0.02 1.2948 0.50596 2.4565 1.3962 3.3584-2e-3 -4e-3 0.0782 0.0951 0.0782 0.0951 0.5277 0.687 1.0093 0.96358 2.1969 1.448l0.0617 0.0246 1.5031 0.50381 0.19212 0.0466 3.4192 0.90985c1.7674 0.4034 3.3148 0.58837 4.7258 0.56194 5.0518-0.089 8.571-2.6802 11.139-4.5739l0.79459-0.58131c2.595-1.8646 4.6476-4.3405 6.0994-7.3598 1.4066-2.8802 2.1178-5.9268 2.1178-9.0544 0-0.11713 0-0.23605-1e-3 -0.35408m-53.422-7.0515c1.2249 4.1758 2.2151 7.5589 2.8445 9.7106-1.6631 0.0995-3.5339 0.0775-5.2587 0.0529-0.73025-0.01-1.3831-0.0185-1.9769-0.0194 0.55988-1.6488 1.2128-3.5777 1.9778-5.8255l2.4133-3.9186zm16.453 24.554c-0.013-0.53377-0.12866-1.3582-0.91804-3.4782-1e-3 -5e-3 -1.2128-3.2298-1.457-3.8798-0.0626-0.28008-4.0312-17.545-4.0312-17.545 0.01 0.052-1.7239-8.5004-1.7239-8.5004l-0.0165-0.0784-0.02-0.0757c-1.0736-3.8393-3.52-4.3731-4.8806-4.3502-1.5588 0.0291-3.1184 0.8253-9.0795 10.87-2.6672 4.492-4.911 8.5268-6.7149 12.053-2.6993 1.1186-3.0653 3.3531-3.0653 4.4224 0 0.03 8.6e-4 0.0607 8.6e-4 0.089 0.01 0.52495 0.0948 1.0208 0.2469 1.4894-3.2349 7.2717-3.4409 8.6299-3.4409 9.3072 0 0.0405 8.6e-4 0.0801 1e-3 0.11713 0.0226 1.3432 0.5503 2.5217 1.5231 3.4104 0.97108 0.85963 2.1038 1.2886 3.3053 1.2683 1.7031-0.0317 3.1288-0.95565 4.0208-2.5992l0.0374-0.0687 0.0321-0.0714c1.7118-3.7794 2.9393-6.6772 3.7843-8.9003 1.557-0.35584 5.5595-1.2674 5.5595-1.2674 1.7326-0.41573 3.2314-0.74603 4.5372-1.0006 0.55638 2.7947 1.0276 4.8417 1.4231 6.1399 0.98325 3.2448 2.7002 7.5571 6.2324 7.4928 1.2171-0.0211 2.3368-0.50027 3.2375-1.3855 0.92151-0.90105 1.4066-2.0646 1.4066-3.3664 0-0.03 0-0.0599-8.6e-4 -0.0916m-57.966-24.788-0.24255-3.2906s-0.0209-0.2061-0.0495-0.50734c0.50597 0.0326 1.1276 0.0731 1.158 0.0749 2.2664 0.20787 4.4989 1.1142 6.6349 2.6961 1.2197 0.90544 2.0717 1.8074 2.5933 2.7242-0.17909 0.25544-0.38338 0.51879-0.63637 0.79887-0.79372 0.86582-1.6544 1.5704-2.5863 2.1156-1.6996 0.96094-4.1129 1.5528-7.2148 1.7898 0.0565-0.63064 0.0948-1.0825 0.0948-1.0825 0.16779-1.8532 0.25299-3.4694 0.25299-4.8082 0-0.17615-1e-3 -0.34614-4e-3 -0.51085m22.374 24.857c-0.0226-1.1142-0.4338-2.1808-1.1901-3.0916-2.1178-2.4864-5.0118-4.8646-8.637-7.107 1.2762-0.7011 2.4298-1.507 3.4513-2.416 2.7193-2.4195 4.0955-5.2512 4.0955-8.4212 0-0.0616 0-0.12595-1e-3 -0.18848-0.10613-6.125-4.0156-11.219-11.622-15.138-0.0609-0.0309-0.12954-0.0564-0.19125-0.0863-0.89196-0.58132-1.8517-1.1459-2.9019-1.6858-1.597-0.82266-3.547-1.3599-5.8551-1.6083l-6.0846-0.37786c-1.1302-0.0643-2.0047 0.35936-2.6281 1.2718-0.52509 0.74162-0.77894 1.5986-0.76329 2.5701 0.01 0.55578 0.0583 1.2965 0.13475 2.1888-0.10775 0.50117-0.17823 1.0173-0.16866 1.5634 0 4e-3 0.30862 4.0507 0.30862 4.0507 0.12954 1.13 0.21734 2.0469 0.26255 2.778-0.0635 1.1714-0.16692 2.5411-0.30862 4.1106-0.28254 3.1065-0.4112 5.4432-0.38339 7.0102 4e-3 0.30563 0.0148 0.64914 0.027 1.0252-0.053 1.0596-0.0739 1.9694-0.0618 2.7269l0.28515 6.125c8.7e-4 0.0132 0.3008 5.903 0.3008 5.903 0.0244 1.3132 0.4964 2.4732 1.3692 3.3566 0.90848 0.92043 2.0812 1.3952 3.387 1.3705 1.3223-0.022 2.4776-0.54696 3.34-1.5185 0.80415-0.84028 1.2527-1.9914 1.2527-3.2792 0-0.0317 0-0.0642-8.6e-4 -0.096-1e-3 -0.0546-0.2156-5.0856-0.2156-5.0856-8.7e-4 -0.0141-0.0479-0.84642-0.1035-1.825 5.3544 1.9016 10.381 5.0028 14.935 9.4041 1.2414 1.1776 2.4916 1.4048 3.3279 1.3881 1.2753-0.0211 2.4194-0.54609 3.3122-1.515 0.8624-0.90456 1.3284-2.0593 1.3284-3.3188 0-0.0273 0-0.0564-8.8e-4 -0.0845" fill="#f8962d"/>
  <path d="m515.84 463.45c0.0139 0.0141 0.0347 0.0255 0.0477 0.0405l-0.0809-0.0828c0.013 0.0125 0.0217 0.0281 0.033 0.0422m-61.853-5.297c-2.6837 2.1315-4.3337 5.2213-4.6337 8.6916-0.0295 0.36377-0.0461 0.72664-0.0461 1.0895 0 1.8074 0.38948 3.6033 1.1597 5.3508 0.50161 1.1424 1.743 3.6826 6.9105 13.244 2.4811 4.6144 4.1998 8.5022 5.1031 11.547 1.198 4.0419 3.6061 9.0747 7.2843 15.25-1.8143 2.7586-3.7712 5.7409-3.7712 5.7409-2.8976 4.5669-11.613 24.051-11.951 27.93-0.033 0.37785-0.0513 0.74954-0.0513 1.123 0 3.1065 1.1354 6.0386 3.2548 8.3586 2.2151 2.4222 5.031 3.8411 8.1389 4.1133 4.4711 0.39547 8.6049-1.6726 11.335-5.6758l3.2531-5.4256s11.972-24.257 12.208-24.736c3.154-5.2979 6.5958-11.533 10.241-18.567 0.04-0.0757 8.1693-16.222 9.3708-18.607 1.484-2.4054 2.3429-3.6526 2.7941-4.2533l0.12779-0.17 0.1165-0.17439c2.708-4.0454 4.026-7.129 4.2755-10 0.0312-0.37698 0.047-0.75219 0.047-1.1256 0-3.1638-1.1588-6.11-3.314-8.4071-2.1725-2.3455-4.9614-3.7354-8.0737-4.0128-5.097-0.44744-9.6046 2.1606-12.068 6.9723 0 0-4.5293 7.3404-5.2544 8.526-0.72505 1.1838-3.227 6.2016-5.8342 11.315-0.92413-2.4283-2.01-4.9544-3.2975-7.5818-0.90848-1.9007-2.7611-5.408-5.6238-10.637-0.0635-0.1215-3.2583-6.2368-3.2583-6.2368-2.1534-3.7592-5.5526-6.0263-9.5768-6.383-3.1897-0.28362-6.2567 0.66322-8.8665 2.7419m-22.814 57.655c-1.0319 2.3262-2.4055 4.1212-4.2094 5.511-0.76852 0.58485-3.4131 2.0478-10.633 2.4301-1.1919 0.0634-2.2142-0.0309-3.1636-0.19641-0.14953-6.5169-0.46075-20.205-0.46075-20.205s-0.81285-13.095-0.82503-13.28c-8.6e-4 -0.0194-0.0261-0.68437-0.0321-0.84995 4.5884-0.28978 6.7992-0.17704 9.07 0.83146 6.7601 3.0105 11.312 11.969 11.655 18.545 0.0139 0.26513 0.0209 0.52848 0.0209 0.79183 0 2.1799-0.46858 4.2894-1.4214 6.4218m25.123-9.5177c-0.56247-10.834-5.4282-20.543-14.464-28.857-6.9235-6.3452-12.701-9.5266-22.578-12.431-1.4449-0.75219-4.3824-2.2469-9.6942-3.044-5.3326-0.88342-7.9024-0.55665-10.088 0.21668-3.1766 0.6597-6.5541 2.5772-8.6788 5.1394-2e-3 5e-3 -0.6494 0.70991-0.6494 0.70991-1.2319 1.3036-3.7443 3.9574-3.7443 7.9913 0 0.17088 7e-3 0.34263 0.0156 0.51701 0 9e-3 0.0974 3.8296 0.0974 3.8296 0.0391 2.5948 0.0853 5.8272 0.41033 10.554 3e-3 0.0335 1.051 15.935 1.051 15.935 0.15997 3.0986 0.25473 7.8663 0.28428 14.163 0.0618 6.5398 0.18082 11.528 0.35035 14.862 0.173 3.3496 1.5266 6.3126 3.9069 8.5868 1.6822 1.958 3.3783 2.711 5.5752 3.5222l0.23646 0.0864 2.9758 0.87727 0.69461 0.14621 1.7813 0.40867 4.3772 0.99969c3.5 0.67204 6.6062 0.92923 9.4638 0.77598 10.338-0.54873 17.356-6.1109 22.002-9.7934l1.3675-1.0754-8.7e-4 8.9e-4c5.0918-3.9371 9.0448-9.0509 11.748-15.198 2.3986-5.3895 3.6174-11.039 3.6174-16.8 0-0.70727-0.0174-1.4154-0.0565-2.1236m-46.816-44.347c0.0277 2e-3 0.0504 9e-3 0.0791 0.0141 0.0209 4e-3 0.0347 5e-3 0.0582 7e-3l-0.13735-0.0211zm-16.914 82.579c-0.02-0.0194-0.033-0.0414-0.0513-0.059-0.0521-0.0634-0.10951-0.10125-0.16083-0.16382 0 0 0.20342 0.21491 0.21212 0.22284m-35.878-27.629c-1.151 2.2698-2.6133 3.9908-4.485 5.2785-0.79633 0.54608-3.5139 1.8673-10.746 1.8673-1.1771 0-2.2203-0.1145-3.1514-0.32236 0.18777-6.4914 0.58681-20.247 0.58681-20.247s-0.13475-13.12-0.13736-13.304c8.7e-4 -0.0185 0.01-0.67996 0.0112-0.84555 4.5798-0.0475 6.8053 0.1788 9.0134 1.3062h8.7e-4c6.5958 3.3646 10.681 12.552 10.681 19.136 0 2.468-0.58074 4.8011-1.7735 7.1308m12.627-37.756c-6.5854-6.7063-12.193-10.188-21.902-13.612-1.4075-0.82881-4.2711-2.482-9.5516-3.5601-5.25-1.1556-7.8268-0.96445-10.042-0.31355-3.2105 0.48619-6.6914 2.224-8.9491 4.677-1e-3 1e-3 -0.68243 0.67204-0.68243 0.67204-1.4562 1.3855-4.166 3.9644-4.166 8.2917l-0.1 3.8455c-0.073 1.9932-0.16258 4.3634-0.16258 7.5034 0 0.94244 8e-3 1.9571 0.027 3.051 0 0.0317 0.22691 15.965 0.22691 15.965-8.7e-4 3.0907-0.1504 7.8557-0.44772 14.162-0.27993 6.634-0.41642 11.484-0.41642 14.862 0 3.3531 1.1954 6.383 3.4522 8.7761 1.5814 2.0478 3.2357 2.8916 5.3882 3.8147l0.23561 0.10037 2.9228 1.034 0.68592 0.18145 1.7596 0.50556 4.319 1.2287c3.4592 0.85788 6.5497 1.278 9.4125 1.278 10.351-1e-3 17.647-5.186 22.477-8.6123l1.4223-1.0032h-2e-3c5.2874-3.6579 9.496-8.5559 12.513-14.554 3.0036-5.896 4.5372-12.204 4.5372-18.71-1e-3 -10.848-4.3607-20.802-12.957-29.584m-52.662 64.384c-0.02-0.0194-0.033-0.0449-0.0521-0.0643-0.047-0.0607-0.0974-0.10125-0.14345-0.1647 0 0 0.193 0.22547 0.19561 0.229m21.154-81.569 0.13648 0.0291c-0.0304-6e-3 -0.1165-0.0246-0.13648-0.0291m-68.209-9.1255c-2.5281 0.38755-5.2179 0.96181-7.9702 1.6224-1.3944-0.53551-2.8854-0.83146-4.4511-0.83146-6.1376 4e-3 -12.327 4.1362-12.327 13.365 0 1.5158 0.17474 3.5178 0.52944 6.1135 0.34513 2.4794 0.38251 3.5522 0.38251 3.8983-1e-3 3.8076-0.2695 9.7529-0.79111 17.635-0.6268 1.5361-0.98671 3.1779-0.98671 4.8822 0 1.1256 0.17474 2.2134 0.44424 3.2774-0.0913 1.9192-0.3008 6.2421-0.3008 6.2421 0 4e-3 -0.14344 6.7697-0.14344 6.7697 0 12.454 2.1821 20.299 6.8627 24.696 4.305 4.0604 11.529 5.8792 23.409 5.8792 13.483-1e-3 17.915-0.58924 20.076-1.0323 6.2289-1.2648 10.105-6.0078 10.105-12.378-4e-3 -7.5844-5.0683-12.674-12.6-12.674-1.0789 4e-3 -2.3464 0.14445-4.0077 0.44391l0.18082-0.0309-1.5248 0.18585c0.01 0-8.7866 0.1876-8.7866 0.1876 0.0609-1e-3 -8.2241 0.13565-8.2241 0.13565-0.27299 0-0.45032-0.01-0.68766-0.0132-0.0835-1.2657-0.14779-3.007-0.14779-5.401 0 0 0.0286-1.7739 0.0548-3.3029 6.5393 0.42277 14.829 0.95917 14.829 0.95917l11.546-1.0323 0.11913-0.0132c6.7079-0.8112 11.043-5.7277 11.043-12.527 0-3.6033-1.3632-6.8772-3.8373-9.2156-2.3638-2.2337-5.363-3.4122-8.6736-3.4122-1.1023 2e-3 -3.3783 0.1145-10.926 0.89928-0.76417-0.0529-6.807-0.46594-12.7-0.86582 0.1756-3.4359 0.27558-6.4094 0.3034-8.947 0.85719-0.16999 1.7352-0.36113 2.542-0.48708 2.5376-0.39811 4.8814-0.59981 6.9644-0.59981 4.026 0 8.3075 0.64385 12.724 1.9166 1.1441 0.34262 2.3629 0.53022 3.5348 0.53022 3.5756 0 6.8392-1.5387 9.1917-4.3308 2.0065-2.4257 3.0454-5.3076 3.0454-8.3894-5e-3 -5.3278-2.9662-9.7098-7.9189-11.734-5.4004-2.1861-12.125-3.2457-20.577-3.2457-3.234 8.9e-4 -6.701 0.27657-10.305 0.82354m-35.718 84.568c-7e-3 0.0211-0.0147 0.0405-0.0226 0.059l0.0712-0.16295c-0.0165 0.0361-0.0347 0.067-0.0486 0.10387m-87.394-126.21c-0.0626 0.0758-0.64072 0.76011-0.64072 0.76011-2.1482 2.5094-4.0781 5.1993-4.0781 10.456 0 9.4006 5.3535 16.197 14.689 18.647 11.356 2.9515 27.215 3.5672 38.523 3.5672h0.02c0.13649 1.3846 0.2895 2.8097 0.46685 4.4365 0.43207 3.8983 1.0224 9.2376 1.7483 17.815 0.73113 8.3701 1.3145 12.43 1.7005 15.118 0.43555 3.036 0.59725 4.1714 0.59725 8.8554 0 3.6235 0.20516 8.77 0.62592 15.735 0.46077 6.583 0.69202 11.453 0.69202 14.56 0 0.0573-0.013 0.88343-0.39034 3.1884-0.42338 2.5692-0.62333 4.4973-0.62333 6.0527 0 5.5621 2.1447 10.401 6.202 13.991 0 8.9e-4 0.7233 0.66059 0.7233 0.66059 1.8926 1.7457 4.7502 4.381 10.409 4.381 4.3529 0 12.301-1.5687 16.73-12.011 1.9665-4.4629 2.9662-9.6912 2.9662-15.544-2e-3 -2.8026-0.24864-6.6737-0.75025-11.847-0.55379-5.652-0.66941-8.5718-0.66941-10.028-2e-3 -6.7723-0.28167-9.3715-0.7885-14.088-0.3547-3.3153-0.84414-7.8531-1.4657-16.124-8.7e-4 -0.0112-1.6892-19.715-1.6892-19.715-0.21646-2.3041-0.39555-4.2242-0.54334-5.9911 2.0595-0.0687 4.2198-0.29506 6.5106-0.5593 4.3737-0.50292 9.3282-1.0746 15.148-0.64385 10.68 0.84467 18.46 1.2551 23.74 1.2551 5.1935 0 9.8315-1.9166 13.412-5.5428l0.106-0.10925c3.5113-3.6834 5.3682-8.3824 5.3682-13.584-6e-3 -6.3769-2.9793-9.3301-4.9475-11.283l-0.52073-0.52318 0.0965 0.10125c-4.4294-4.6417-9.8872-4.6338-13.147-4.6285h-0.36686c-4.9797 0-12.578-0.37257-22.588-1.1072-7.6973-0.56634-14.15-0.32941-18.86-0.15677l-4.8745 0.12947c-4.1042 0-10.38 0.103-18.66 0.31004-0.0165-8.9e-4 -18.235 0.20258-18.235 0.20258-3.6843 0-8.4553-0.37169-15.017-1.1697-11.577-1.5-15.11-1.8003-16.753-1.8954-5.8012-0.36992-11.096 1.8761-14.866 6.3284m323.09 13.984c0.0704 4.2048-0.94237 8.0556-3.0175 11.447-2.1925 3.5795-4.8771 5.3481-8.2111 5.4071-2.9054 0.052-5.2657-0.69583-7.2156-2.2812-1.9282-1.5942-2.8941-3.6588-2.941-6.2994-0.0695-4.1758 1.0319-7.9174 3.3757-11.431 2.3942-3.6147 5.2109-5.3983 8.611-5.4591 3.4635-0.0625 5.982 0.51877 7.2826 1.6788 1.3458 1.1943 2.056 3.5275 2.116 6.9379m4.3016-14.1c-2.7124-2.4512-7.3069-5.3516-13.806-5.2371-6.4497 0.11538-11.828 3.2113-15.984 9.2033-3.46 5.0205-5.4561 11.963-5.3413 18.576 0.093 5.4785 2.1882 9.9837 6.2202 13.398 2.9784 2.5111 7.6164 5.8369 13.487 5.7339 6.4784-0.11625 11.76-3.2651 15.694-9.3627 3.1688-4.9253 4.9918-11.795 4.8762-18.378-0.10862-6.2624-1.8413-10.948-5.1457-13.933m-40.601 29.682c-0.0182 8.8e-4 -3.327 0.103-5.6786 0.17528 7e-3 -0.37345 0.0374-0.69758 0.0374-1.0869 0-0.35231-4e-3 -0.70991-0.01-1.0737-1e-3 -1e-3 -0.35557-8.8378-0.35557-8.8378-0.0147-0.89928-0.0217-1.8091-0.0217-2.7287 0-2.9128 0.0965-5.9444 0.24777-9.021 0.87978 0.10125 1.7857 0.20434 1.7857 0.20434 1.71 0.20258 3.1731 0.29418 4.3442 0.27392 1.1206-0.0194 2.169-0.39635 3.0314-1.0913 1.0936-0.94332 1.6387-2.1641 1.6387-3.5795v-0.0978c-0.0486-2.6089-1.3544-5.5806-4.1103-5.9409-5.1474-0.65354-9.4899-0.953-12.915-0.89223-2.8028 0.0494-5.0492 0.69846-6.5358 1.1256l-1.3684 0.34879c-2.695 0.31003-4.2798 2.1244-4.2329 4.8531 0.0244 1.345 0.51726 2.5234 1.4231 3.4078 0.90327 0.88519 2.0673 1.3441 3.3609 1.3203 0.0504-8.8e-4 3.3253-0.13652 3.3253-0.13652 6e-3 -1e-3 0.3999-0.0194 0.90412-0.044-0.21821 3.982-0.3347 7.5386-0.3347 10.567 0 0.6694 5e-3 1.3132 0.0183 1.9316l0.22864 4.4189c1e-3 0.0246 0.24604 4.1635 0.24604 4.1635 4e-3 0.28538 6e-3 0.5681 6e-3 0.84468 0 0.68172-0.0139 1.3291-0.0417 1.9439-1.8596 0.26248-2.9002 0.34263-3.434 0.3532-1.2927 0.0246-2.4359 0.53904-3.3131 1.4903-0.82937 0.93186-1.2545 2.0646-1.2545 3.3082v0.096c0.0244 1.2983 0.49989 2.4503 1.3736 3.3329-0.0348-0.0344 0.22428 0.34526 0.22428 0.34526 0.53205 0.81385 1.4179 2.1764 3.0749 2.1465 1.251-0.022 2.9819-0.22107 5.2944-0.59981 2.0873-0.32677 3.6678-0.50381 4.6797-0.52142 0.8085-0.015 1.5422-0.32942 2.2525-0.63329 0.6807-0.29065 1.3823-0.591 2.0786-0.61655 0.0191-8.8e-4 4.1955-0.14885 4.1955-0.14885 1.2901-0.0237 2.429-0.53023 3.2888-1.4674 0.85893-0.93275 1.2997-2.1165 1.2771-3.4262-0.027-1.3141-0.5164-2.4732-1.4188-3.3575-0.84762-0.88695-2.0108-1.3714-3.3122-1.3494m-49.406-20.523v-2e-3c0-0.0714-4e-3 -1.3661-0.01-2.578 3.9816-0.16735 6.0064-0.24399 8.0972 0.77509 4.4833 2.1896 7.2391 8.0345 7.3139 12.42 1e-3 0.0634 1e-3 0.12595 1e-3 0.18936 0 1.6541-0.37295 3.2184-1.138 4.7818-0.77634 1.5986-1.797 2.8326-3.1184 3.7794-0.92673 0.65531-2.9271 1.4621-7.1374 1.537-1.5935 0.0272-2.8897-0.29418-3.9564-0.86141 0.0252-2.1861 0.14866-12.62 0.14866-12.62-8.7e-4 -0.0872-0.20082-7.4206-0.20082-7.4206m25.381 9.937c-0.0965-5.5066-3.374-12.67-7.7981-17.033-3.2105-3.1567-6.0046-4.0128-9.5377-5.0927l-2.2713-0.70992c-0.0191-6e-3 -1.2797-0.17086-1.2797-0.17086-0.63462-0.0246-1.6961-0.0696-3.52-0.40429-2.7072-0.55136-3.713-0.37961-4.4789-0.14268-1.3553 0.12947-3.0132 0.97502-3.9825 2.0646-8.7e-4 8.7e-4 -0.46858 0.4809-0.46858 0.4809-0.67723 0.66764-1.6014 1.5784-1.577 3.0317l-0.0182 2.2099 0.0252 5.7277c0 8e-3 0.27992 8.8774 0.27992 8.8774 0.0279 1.7563-9e-3 4.4294-0.11475 7.9473 0 0.01-0.0895 8.1314-0.0895 8.1314 0.0226 1.293 0.50423 2.4539 1.3936 3.3558-1e-3 -1e-3 0.0835 0.0978 0.0835 0.0978 0.52596 0.68613 1.0093 0.9627 2.1925 1.4471l0.0626 0.0255 1.5066 0.50292 0.18953 0.0475 3.4235 0.90897c1.7396 0.399 3.3305 0.58836 4.7232 0.5637 4.106-0.0722 8.3719-1.7396 13.038-5.0962 2.5976-1.8664 4.6502-4.3423 6.1011-7.3607 1.4066-2.8775 2.1204-5.9268 2.1204-9.0553 0-0.11712-8.8e-4 -0.23605-2e-3 -0.35407m-50.581 3.0464c-1.5405-0.0977-3.2175-0.40693-4.6858-0.71697-0.5816-0.12325-1.0989-0.22107-1.6205-0.31883 1.0832-2.4688 2.3177-5.2909 4.1798-9.5398 0.95367 4.7307 1.6544 8.2203 2.1264 10.576m11.628 11.047c-0.0374-0.13916-1.0093-3.775-1.0389-3.8904-0.0279-0.12425-3.6478-17.651-3.6478-17.651 8e-3 0.0379-2.016-10.739-2.016-10.739l-0.0174-0.0942-0.0252-0.0916c-0.80241-2.874-3.6982-3.2518-5.4535-3.2792l-0.0217-0.11625-0.0495 0.1145c-0.28775-4e-3 -0.54683 8.9e-4 -0.7546 5e-3l-0.19995 5e-3c-1.5527 0.0281-3.114 0.82352-9.0787 10.872-1.8908 3.1849-3.5765 6.9943-5.0657 10.354 0 0-1.3336 2.9013-1.8213 3.9662-0.50248 0.24134-0.99281 0.61568-1.2614 1.308-0.1035 0.27305-0.15649 0.54962-0.15649 0.82883 0 0.41396 0.14171 0.83497 0.37209 1.2569-0.21734 0.40339-0.34514 0.78125-0.37383 1.1221-3.4113 7.6337-3.6148 9.013-3.6148 9.7036 0 0.0414 0 0.0819 8.7e-4 0.11975 0.0209 1.3397 0.54769 2.5173 1.524 3.4086 0.96846 0.85788 2.1038 1.2912 3.3053 1.2674 1.7022-0.0309 3.1271-0.95477 4.0199-2.5983l0.0365-0.0705 0.0321-0.0714c1.6274-3.5945 2.8541-6.4773 3.7008-8.6775 1.7335-0.10388 5.4282-0.32767 5.4282-0.32767l0.18083-0.044c1.7292-0.41485 3.2314-0.7425 4.538-0.99968 0.42773 1.8708 0.82329 3.0695 1.1536 4.0824l0.3008 0.93716c0.98585 3.2474 2.7028 7.5598 6.2367 7.4972h2e-3c1.2101-0.0246 2.3281-0.50205 3.2305-1.3837 0.92412-0.90632 1.4092-2.0716 1.4092-3.3734v-0.0854c-0.013-0.52406-0.13562-1.3406-0.87544-3.3531m-57.095-21.439c0-1e-3 -0.23994-3.2906-0.24082-3.2915 0 0-0.0209-0.2061-0.0504-0.50557 0.50684 0.0318 1.1284 0.0723 1.158 0.074 2.2681 0.2061 4.5006 1.1133 6.6366 2.697 2.1099 1.5643 3.1523 3.1241 3.2062 4.7615-0.0444 0.111-0.2017 0.42982-0.71982 1.005-0.6329 0.68965-1.3327 1.2648-2.0743 1.6982-1.7396 0.98207-4.5806 1.5246-8.3988 1.6065 0.11738-1.3564 0.23734-2.7251 0.23734-2.7251 0.16605-1.8523 0.25211-3.4694 0.25211-4.81 0-0.17527-1e-3 -0.34438-6e-3 -0.50997m22.375 24.857c-0.02-1.1107-0.43206-2.1782-1.1901-3.0907-2.1178-2.4882-5.0118-4.8663-8.6353-7.1062 1.2736-0.70198 2.4281-1.507 3.4487-2.4151 2.7185-2.4222 4.0955-5.253 4.0955-8.4238 0-0.0625 0-0.12595-1e-3 -0.18762-0.10437-6.1241-4.0138-11.219-11.618-15.138-1.823-0.94244-4.0442-1.5581-6.6036-1.8347-0.0965-9e-3 -6.182-0.3849-6.182-0.3849-1.8796-0.10838-3.4852 0.67643-4.5285 2.209-0.77807 1.0957-1.1693 2.401-1.1458 3.8473 0 8.7e-4 0.30689 4.0481 0.30689 4.0481 0.18951 1.6409 0.2921 2.8643 0.30427 3.6579 0.0277 1.4665-0.10087 3.738-0.37382 6.7459-0.29298 3.2157-0.42251 5.5868-0.39295 7.2488l0.28427 6.1232c8.8e-4 0.015 0.3008 5.9012 0.3008 5.9012 0.0235 1.3168 0.49814 2.4785 1.3718 3.3611 0.90413 0.91778 2.0769 1.3934 3.3844 1.3696 1.3223-0.0246 2.4768-0.54873 3.3383-1.5185 0.8059-0.84378 1.2545-1.995 1.2545-3.2809 0-0.0318 0-0.0625-8.7e-4 -0.0943-1e-3 -0.0555-0.21473-5.0865-0.21473-5.0865 0-0.0132-0.0486-0.84732-0.10438-1.8259 5.3517 1.9016 10.379 5.0028 14.935 9.4076 1.2423 1.175 2.4933 1.4004 3.3262 1.3872h6e-3c1.271-0.0255 2.4133-0.54874 3.3062-1.5132 0.86414-0.90985 1.3301-2.061 1.3301-3.3223 0-0.0281 0-0.0555-8.7e-4 -0.0845" fill="#11a0dc"/>
  <path d="m510.66 635.95s-2.5411-0.96621-2.5411-2.896c0-1.2886 1.1119-2.7357 2.8593-2.7357 1.7465 0 2.5402 1.2868 2.5402 2.7357 0 2.0919-2.8584 2.896-2.8584 2.896m0.15996-8.0451c0 0.32149-0.63636 0.64296-1.4301 0.64296 0 0-2.2238-10.137-3.0167-15.448 0 0 1.2701-1.2877 3.6522-1.2877 1.1119 0 1.9056 0.32325 1.9056 0.48355 0 0-1.111 5.6317-1.111 15.609m-16.519 5.149c-6.5115 0-8.4188-7.403-8.4188-13.84 0 0 1.7474-0.96445 3.3357-0.96445 0.95369 0 1.4292 0.32149 1.4292 0.80415 0 0.48268-0.15821 1.4489-0.15821 3.0572 0 6.1153 2.2238 7.7236 4.6058 7.7236 2.7002 0 3.9712-1.6083 3.9712-4.0225 0-4.5052-2.2238-8.851-2.2238-8.851s1.5892-1.1256 3.1766-1.1256c0.15996 0 0.79372 0 1.1754 0.32149 0.44424 0.48266 1.3658 4.0225 1.3658 7.7245 0 3.8622-1.4301 9.1725-8.2589 9.1725m-19.853-5.7944c-1.111 0-2.0656 0.54872-2.0656 1.4489 0 0.80503 0.95455 1.4489 2.2247 1.4489 2.2229 0 3.1132-1.9307 3.1132-1.9307s-1.0484-0.9671-3.2722-0.9671m5.7186 7.0815c0 1.1265 0.31643 1.8664 0.31643 1.8664s-1.2692 0.22549-1.7465 0.22549c-1.5874 0-3.0184-0.48268-3.0184-1.4489 0-1.1256 0.82676-2.896 0.82676-2.896l-0.0635-0.0634s-1.397 0.70727-3.3044 0.70727c-2.0638 0-4.4467-1.1265-4.4467-3.7019 0-2.0919 2.8593-4.1828 6.3541-4.1828 1.7457 0 3.1749 0.64298 3.1749 0.64298s0.79545-2.253 0.79545-4.344c0-0.73985-0.47814-1.2877-1.4301-1.2877-3.1766 0-5.0822 3.3787-5.0822 3.3787s-2.542-0.73985-2.542-2.734c0-0.32324 0.22255-0.80503 0.31731-0.90191 0.95455-0.96623 3.9712-2.6397 7.6242-2.6397 3.9712 0 4.6058 2.0928 4.6058 4.0225 0 2.7375-2.3812 9.1734-2.3812 13.357m-15.248 0.96425s-0.95368 0.32237-1.9056 0.32237c-1.5892 0-2.2256-0.48179-2.2256-0.80415 0.41381-2.9612 0.82676-8.2071 0.82676-20.437 0-1.448-0.19038-4.6655-0.19038-4.6655s1.1119-0.16118 1.7465-0.16118c1.431 0 3.1775 0.64296 3.1775 1.6083-1.4292 4.9888-1.4292 14.354-1.4292 24.137m-9.2116-3.7003c0 0.96621-0.6355 1.1265-1.59 1.1265-1.5866 0-3.1758-1.1265-3.1758-1.1265s2.0656-3.3787 2.0656-7.4021c0-1.9307-0.79459-2.896-2.382-2.896-3.3366 0-5.5604 2.3173-5.5604 4.9879 0 2.5754 1.5892 7.0806 1.5892 7.0806s-1.5892 0.96534-3.4948 0.96534c-0.63638 0-1.111-0.32149-1.111-1.1274 0-4.3431-1.1119-17.378-2.702-22.528 0 0 1.431-1.1256 3.3366-1.1256 0.6355 0 1.271 0.32148 1.271 0.96445 0 4.507 0.63462 9.9784 0.63462 9.9784l0.0635 0.096s2.4785-2.5102 6.4489-2.5102c3.653 0 5.5586 2.2204 5.5586 5.9541 0 1.2868-0.95193 4.987-0.95193 7.5624m-28.749 2.7362c-3.6834 0-5.3996-2.157-5.3996-4.8276 0-4.7633 5.2413-11.263 12.548-11.263 0.95194 0 2.8576 0.3849 2.8576 1.7695 0 2.0919-1.4292 2.896-1.4292 2.896s-1.0172-1.1256-3.6522-1.1256c-3.0184 0-6.3532 2.3816-6.3532 6.2756 0 1.8981 1.111 3.0572 3.1766 3.0572 4.2876 0 6.9879-4.344 6.9879-4.344s1.9056 0.64297 1.9056 2.896c0 1.4797-6.2898 4.6664-10.642 4.6664m-18.868 0.64296c-1.5892 0-2.8593-0.64298-2.8593-2.2522 0-1.7695 0.79459-2.5745 0.79459-2.5745s1.5874 1.448 4.6058 1.448c3.1758 0 4.764-1.448 4.764-2.5754 0-0.80327-0.69808-1.4471-2.2221-1.4471-1.3345 0-3.6861 0.48266-5.7821 0.48266-2.4151 0-4.5424-0.64385-4.5424-3.3153 0-3.2827 3.8112-7.7888 10.164-7.7888 2.2238 0 3.653 0.64472 3.653 1.9316 0 2.091-1.4292 3.0581-1.4292 3.0581s-0.95281-1.611-4.4476-1.611c-2.6994 0-4.2242 1.7404-4.2242 2.9938 0 0.70903 0.47554 1.2868 1.5248 1.2868 1.3336 0 3.906-0.51437 6.3524-0.51437 2.4133 0 4.6067 0.64385 4.6067 3.3153 0 3.2501-4.1294 7.5624-10.959 7.5624m-20.871-14.16c-2.8906 0-4.4772 0.38579-4.4772 0.38579 0.41122 4.1837 2.5402 15.288 2.5402 15.705 0 0.48266-1.4292 1.2868-4.6058 1.2868 0 0 0-5.1482-1.4301-16.573 0 0-1.8743 0.32149-4.2876 1.2859 0 0-1.1119-0.0309-1.1119-3.0572 0-0.4175 0.44511-0.83586 0.79372-0.83586 0.12779 0 0.47553 0.0317 1.0484 0.0317 0.76155 0 1.9065-0.0643 3.2401-0.32149-0.41294-4.3123-1.557-6.2756-1.557-6.2756s2.0343-0.96622 4.4163-0.96622c0.34861 0 0.47554 0.19378 0.47554 0.64474v2.2513c0 1.6101 0.15996 3.8631 0.15996 3.8631 2.7315-0.38666 4.605-1.2886 4.605-1.2886s0.95368 0.54785 0.95368 2.8969c0 0.54784-0.28602 0.96621-0.76329 0.96621m-15.754 10.78c0 0.96621-0.63462 1.1265-1.5883 1.1265-1.5883 0-3.1766-1.1265-3.1766-1.1265s2.0656-3.3787 2.0656-7.4021c0-1.9307-0.79458-2.896-2.3846-2.896-3.334 0-5.5569 2.3173-5.5569 4.9879 0 2.5754 1.5874 7.0806 1.5874 7.0806s-1.5874 0.96534-3.4931 0.96534c-0.63289 0-1.1093-0.32149-1.1093-1.1274 0-4.3431-1.105-17.378-2.6863-22.528 0 0 1.4223-1.1256 3.3209-1.1256 0.6329 0 1.2684 0.32148 1.2684 0.96445 0 4.507 0.63377 9.9784 0.63377 9.9784l0.0652 0.096s2.4768-2.5102 6.4471-2.5102c3.6539 0 5.5595 2.2204 5.5595 5.9541 0 1.2868-0.95282 4.987-0.95282 7.5624m-28.718 2.7362c-3.6843 0-5.3996-2.157-5.3996-4.8276 0-4.7633 5.2413-11.263 12.547-11.263 0.95108 0 2.8541 0.3849 2.8541 1.7695 0 2.0919-1.4275 2.896-1.4275 2.896s-1.0137-1.1256-3.6504-1.1256c-3.0175 0-6.3532 2.3816-6.3532 6.2756 0 1.8981 1.1119 3.0572 3.1775 3.0572 4.2876 0 6.9852-4.344 6.9852-4.344s1.9013 0.64297 1.9013 2.896c0 1.4797-6.2828 4.6664-10.635 4.6664m-15.595-7.0816c-1.1128 0-2.0656 0.54872-2.0656 1.4489 0 0.80503 0.95281 1.4489 2.2247 1.4489 2.2229 0 3.1123-1.9307 3.1123-1.9307s-1.0476-0.9671-3.2714-0.9671m5.7177 7.0815c0 1.1265 0.31732 1.8664 0.31732 1.8664s-1.271 0.22549-1.7465 0.22549c-1.5883 0-3.0184-0.48268-3.0184-1.4489 0-1.1256 0.82589-2.896 0.82589-2.896l-0.0635-0.0634s-1.3979 0.70727-3.3036 0.70727c-2.0647 0-4.4476-1.1265-4.4476-3.7019 0-2.0919 2.8593-4.1828 6.3532-4.1828 1.7474 0 3.1766 0.64298 3.1766 0.64298s0.79459-2.253 0.79459-4.344c0-0.73985-0.47728-1.2877-1.4301-1.2877-3.1758 0-5.0814 3.3787-5.0814 3.3787s-2.542-0.73985-2.542-2.734c0-0.32324 0.22255-0.80503 0.31731-0.90191 0.95368-0.96623 3.9712-2.6397 7.6242-2.6397 3.9703 0 4.6058 2.0928 4.6058 4.0225 0 2.7375-2.382 9.1734-2.382 13.357m-16.995 2.0919c-0.79373 0-1.7465-0.29067-1.7465-0.80504 0-4.344-0.31817-12.037-0.31817-15.448h-0.1591s-3.9382 7.2418-4.6058 9.9775c-0.34948 1.4163-2.8593 1.7695-2.8593 1.7695s-1.6831-5.3102-7.1461-10.846l-0.0635 0.0651c0.85719 7.8839 1.81 11.586 2.1282 12.23 0 0-0.95368 0.96533-3.6539 0.96533-0.95195 0-1.2701-0.48266-1.2701-1.2868 0-5.6326-0.7946-15.609-1.7474-18.346 0-1.2859 2.2238-1.6083 3.1766-1.6083 0 0 2.8593 4.1828 5.5586 6.9194 2.0656 2.0918 4.1303 4.9888 4.1303 4.9888s2.668-4.6347 4.1294-7.5633c0.6668-1.3511 1.7474-3.8622 2.2229-4.8284 0.35035-0.70728 0.63637-1.448 1.7474-1.448 1.2701 0 2.2238 0.48355 2.2238 0.48355s-0.15909 3.7019-0.15909 5.3094c0 12.874 1.4292 18.666 1.4292 18.666s-0.63463 0.80504-3.0175 0.80504m159.9-37.087s-2.5403-0.9671-2.5403-2.896c0-1.2886 1.1119-2.7357 2.8593-2.7357 1.7465 0 2.5402 1.286 2.5402 2.7357 0 2.091-2.8593 2.896-2.8593 2.896m0.15908-8.0468c0 0.32236-0.63462 0.64472-1.4284 0.64472 0 0-2.2238-10.138-3.0175-15.448 0 0 1.2693-1.2868 3.6522-1.2868 1.1119 0 1.9065 0.32149 1.9065 0.48268 0 0-1.1128 5.6317-1.1128 15.607m-17.121 5.1512c-2.2238 0-3.6522-0.64474-3.6522-1.9316 0-2.0928 1.4283-3.0581 1.4283-3.0581s0.95281 1.6101 4.4476 1.6101c2.7002 0 4.2259-1.7387 4.2259-2.9929 0-0.70903-0.47728-1.2877-1.5257-1.2877-1.3336 0-3.9712 0.51437-6.355 0.51437-2.3803 0-4.6041-0.73986-4.6041-3.3144 0-3.2184 3.0801-4.9879 3.0801-4.9879s0.25473-0.64473 0.25473-1.7713c0-2.7348-1.9056-3.7002-3.8121-3.7002-2.0647 0-4.4476 1.6074-4.4476 5.1499 0 5.9523 5.5604 19.791 5.5604 19.791s-1.3658 1.1265-3.9712 1.1265c-0.63463 0-0.73026-0.096-0.95281-0.32237-0.31819-0.32148-4.1294-14.804-4.1294-19.631 0-5.9532 4.1294-8.6898 8.1945-8.6898 3.813 0 7.6868 2.4142 8.165 8.2071-1.7474 0.16119-4.4476 1.2868-4.4476 3.3796 0 0.80415 0.79372 1.2859 2.0656 1.2859 1.5866 0 4.192-0.64296 6.288-0.64296 2.4151 0 4.352 0.80503 4.352 3.4764 0 3.2827-3.8112 7.7888-10.164 7.7888m-26.364-5.7939c-1.1119 0-2.0647 0.54609-2.0647 1.4471 0 0.80592 0.95282 1.4498 2.2221 1.4498 2.2247 0 3.114-1.9316 3.114-1.9316s-1.0484-0.96534-3.2714-0.96534m5.7177 7.0797c0 1.1274 0.31645 1.8664 0.31645 1.8664s-1.2693 0.22636-1.7465 0.22636c-1.5883 0-3.0184-0.48266-3.0184-1.4498 0-1.1256 0.82675-2.8969 0.82675-2.8969l-0.0635-0.0625s-1.3979 0.70903-3.3027 0.70903c-2.0647 0-4.4494-1.1283-4.4494-3.7028 0-2.091 2.8593-4.1828 6.3541-4.1828 1.7474 0 3.1766 0.64209 3.1766 0.64209s0.79545-2.2522 0.79545-4.3431c0-0.73986-0.47728-1.2886-1.4301-1.2886-3.1766 0-5.0831 3.3796-5.0831 3.3796s-2.5403-0.7381-2.5403-2.734c0-0.32236 0.22082-0.80591 0.31732-0.90103 0.95194-0.9671 3.9695-2.6406 7.6225-2.6406 3.9712 0 4.6067 2.0919 4.6067 4.0234 0 2.7357-2.382 9.1725-2.382 13.355m-20.171-12.872c-2.2551 0-4.924 1.3194-4.924 2.5736 0 1.2868 0.6355 4.6655 0.6355 4.6655 3.3357-0.48179 6.6706-2.5737 6.6706-5.4705 0-0.96446-0.76241-1.7686-2.382-1.7686m-3.9721 9.4931c1.2719 7.2409 2.3829 9.8154 2.3829 9.8154s-1.5874 0.96621-3.9703 0.96621c-0.7946 0-1.1119-0.38666-1.1119-0.80591-0.31817-6.5971-1.4292-14.32-3.8121-22.366 0-0.64387 1.4292-1.6101 3.6539-1.6101 0.79372 0 1.2701 0.32325 1.2701 0.32325 0 1.4471 0.15909 3.2184 0.15909 3.2184s2.8584-2.2539 6.3532-2.2539 6.0368 2.2539 6.0368 4.6655c0 4.507-5.5604 7.4038-10.962 8.0468m-19.852 3.8623c-2.8593 0-4.1303-1.1265-4.1303-2.5754 0-2.4125 1.1128-3.3787 1.1128-3.3787 1.7465 1.7704 3.3348 2.0919 5.7177 2.0919 2.542 0 4.7641-1.7713 4.7641-3.3796 0-0.96447-0.47554-1.9307-2.382-1.9307-2.0647 0-5.5595 0.96621-8.0998 0.96621-2.8593 0-4.2894-2.253-4.2894-4.8284 0-3.7002 3.4948-8.851 10.801-8.851 2.8593 0 4.4467 0.80415 4.4467 2.2539 0 2.4142-2.0638 3.8614-2.0638 3.8614-0.7946-1.2868-2.3829-2.4142-4.4476-2.4142-3.1766 0-4.9232 2.0928-4.9232 3.864 0 1.1248 0.63463 1.9289 2.2229 1.9289 1.7474 0 4.9232-0.80415 7.1478-0.80415 3.8112 0 5.5595 1.9324 5.5595 4.3449 0 3.7019-4.4476 8.851-11.436 8.851m-22.618-13.999c-2.8906 0-4.478 0.3849-4.478 0.3849 0.41208 4.1846 2.5394 15.288 2.5394 15.707 0 0.48179-1.4275 1.286-4.6041 1.286 0 0 0-5.1482-1.4301-16.575 0 0-1.8734 0.32236-4.2868 1.2868 0 0-1.1076-0.0317-1.1076-3.0572 0-0.41749 0.44338-0.83674 0.79112-0.83674 0.12606 0 0.47553 0.0326 1.0467 0.0326 0.76156 0 1.9039-0.0634 3.2392-0.32149-0.41208-4.3123-1.5561-6.2756-1.5561-6.2756s2.0317-0.96534 4.4146-0.96534c0.35035 0 0.47553 0.19201 0.47553 0.64385v2.253c0 1.6092 0.15997 3.8614 0.15997 3.8614 2.7324-0.38754 4.6058-1.2877 4.6058-1.2877s0.95282 0.54785 0.95282 2.896c0 0.54872-0.28515 0.9671-0.76243 0.9671m-15.743 10.78c0 0.96621-0.63377 1.1283-1.5857 1.1283-1.5866 0-3.1723-1.1283-3.1723-1.1283s2.0612-3.3787 2.0612-7.4012c0-1.9307-0.79198-2.8969-2.3777-2.8969-3.3348 0-5.5578 2.3173-5.5578 4.9888 0 2.5745 1.5883 7.0806 1.5883 7.0806s-1.5883 0.96446-3.4931 0.96446c-0.6355 0-1.1119-0.32061-1.1119-1.1256 0-4.3449-1.1119-17.38-2.7002-22.53 0 0 1.4292-1.1256 3.3357-1.1256 0.63464 0 1.2701 0.32148 1.2701 0.96533 0 4.5061 0.63464 9.9784 0.63464 9.9784l0.0635 0.0951s2.4776-2.5094 6.4454-2.5094c3.6496 0 5.5508 2.2196 5.5508 5.9532 0 1.2868-0.95108 4.9879-0.95108 7.5624m-28.748 2.7357c-3.6843 0-5.4004-2.1562-5.4004-4.8267 0-4.7642 5.2413-11.264 12.548-11.264 0.95455 0 2.8645 0.38578 2.8645 1.7695 0 2.0919-1.4318 2.896-1.4318 2.896s-1.018-1.1256-3.6565-1.1256c-3.0175 0-6.3532 2.3825-6.3532 6.2756 0 1.899 1.1119 3.0581 3.1766 3.0581 4.2885 0 6.9914-4.344 6.9914-4.344s1.9091 0.64296 1.9091 2.896c0 1.4788-6.2959 4.6655-10.648 4.6655m-15.596-7.0798c-1.1119 0-2.0647 0.54608-2.0647 1.4471 0 0.80591 0.95281 1.4498 2.2238 1.4498 2.2238 0 3.1123-1.9316 3.1123-1.9316s-1.0476-0.96533-3.2714-0.96533m5.7177 7.0797c0 1.1274 0.31819 1.8664 0.31819 1.8664s-1.271 0.22636-1.7474 0.22636c-1.5883 0-3.0175-0.48266-3.0175-1.4498 0-1.1256 0.82589-2.8969 0.82589-2.8969l-0.0635-0.0625s-1.3988 0.70902-3.3035 0.70902c-2.0647 0-4.4476-1.1283-4.4476-3.7028 0-2.091 2.8584-4.1828 6.3524-4.1828 1.7483 0 3.1775 0.64208 3.1775 0.64208s0.79373-2.2522 0.79373-4.3431c0-0.73987-0.47642-1.2886-1.4292-1.2886-3.1766 0-5.0822 3.3796-5.0822 3.3796s-2.542-0.7381-2.542-2.734c0-0.32236 0.22342-0.80591 0.31818-0.90104 0.9528-0.9671 3.9712-2.6406 7.6234-2.6406 3.9712 0 4.6058 2.0919 4.6058 4.0234 0 2.7357-2.382 9.1725-2.382 13.355m-16.995 2.0928c-0.79372 0-1.7465-0.28978-1.7465-0.80504 0-4.3449-0.31817-12.036-0.31817-15.447h-0.15823s-3.939 7.2409-4.6058 9.9766c-0.34948 1.4145-2.8593 1.7695-2.8593 1.7695s-1.6831-5.3094-7.147-10.847l-0.0635 0.066c0.85719 7.8839 1.81 11.587 2.1282 12.23 0 0-0.95281 0.96446-3.653 0.96446-0.95281 0-1.271-0.48268-1.271-1.2859 0-5.6326-0.79373-15.609-1.7465-18.345 0-1.2877 2.2238-1.6092 3.1766-1.6092 0 0 2.8593 4.1846 5.5586 6.9185 2.0647 2.0919 4.1294 4.9888 4.1294 4.9888s2.668-4.6347 4.1294-7.5624c0.66767-1.352 1.7474-3.8631 2.2238-4.8284 0.34947-0.70904 0.6355-1.448 1.7465-1.448 1.271 0 2.2247 0.48355 2.2247 0.48355s-0.15996 3.7002-0.15996 5.3094c0 12.874 1.4301 18.666 1.4301 18.666s-0.6355 0.80504-3.0184 0.80504" fill="#ffe200"/>
 </g>
</svg>
