<?xml version="1.0" encoding="UTF-8"?>
<!-- Created with Inkscape (http://www.inkscape.org/) -->
<svg id="svg2" width="202.72" height="250" version="1.1" xmlns="http://www.w3.org/2000/svg" xmlns:cc="http://creativecommons.org/ns#" xmlns:dc="http://purl.org/dc/elements/1.1/" xmlns:rdf="http://www.w3.org/1999/02/22-rdf-syntax-ns#" xmlns:xlink="http://www.w3.org/1999/xlink">
 <metadata id="metadata8">
  <rdf:RDF>
   <cc:Work rdf:about="">
    <dc:format>image/svg+xml</dc:format>
    <dc:type rdf:resource="http://purl.org/dc/dcmitype/StillImage"/>
    <dc:title/>
   </cc:Work>
  </rdf:RDF>
 </metadata>
 <path id="text2987" d="m0 0v202.72h202.72v-202.72zm126.18 215.1c-2.2555 4e-5 -4.5584 0.39627-6.9134 1.1591-2.3218 0.76292-4.2285 2.4798-5.7543 5.1333-1.5258 2.6536-2.2769 6.3596-2.2769 11.136 0 3.3169 0.33015 6.0986 0.99355 8.3209 0.69652 2.2223 1.687 3.9804 2.9806 5.3403 1.2936 1.3599 2.8536 2.3422 4.6779 2.9392 1.8574 0.56387 3.9374 0.86936 6.2924 0.86936 2.3881 0 4.5177-0.30549 6.3752-0.86936 1.8574-0.59704 3.4175-1.5793 4.6779-2.9392 1.2936-1.3599 2.2758-3.118 2.9392-5.3403 0.66336-2.2223 0.99353-5.004 0.99357-8.3209-4e-5 -3.2837-0.42921-6.3212-1.3247-9.1075-0.86243-2.7862-2.4307-4.8497-4.7193-6.2096-2.2887-1.3931-5.2933-2.1112-8.9419-2.1113zm25.584 0v34.898h50.96v-34.898zm-151.76 0.70375v33.491h7.5344v-27.24h4.3467c1.7911 4e-5 3.0292 0.37981 3.7258 1.0764 0.72969 0.66341 1.0763 1.6539 1.0763 2.9806-2e-5 1.6585-0.44563 2.814-1.4075 3.4774-0.92875 0.6634-2.3237 0.99356-4.1812 0.99355l-1.2419 5.2161 8.6935 13.496h8.6935l-9.687-14.324c0.86236-0.19901 1.8446-0.59523 2.9392-1.1591 1.1277-0.59703 2.0521-1.5793 2.815-2.9392 0.76286-1.3599 1.1591-3.0189 1.1591-5.0091-4e-5 -3.0847-0.91621-5.5362-2.7736-7.3274-1.8243-1.8242-4.6968-2.7322-8.6107-2.7322zm40.28 0-12.005 33.491h7.4102l2.815-8.1139h10.474l2.815 8.1139h7.7l-11.964-33.491zm23.348 0v33.491h11.55c2.355 0 4.501-0.25583 6.458-0.78654 1.9569-0.53072 3.6656-1.4304 5.0919-2.6908 1.4263-1.2936 2.5075-3.0187 3.2704-5.1747 0.79602-2.156 1.2005-4.8634 1.2005-8.1139-3e-5 -3.2837-0.4045-5.9911-1.2005-8.1139-0.76293-2.156-1.8442-3.8728-3.2704-5.1333-1.4263-1.2936-3.135-2.1933-5.0919-2.6908-1.957-0.53067-4.103-0.78651-6.458-0.78655zm33.739 0v33.491h7.6586v-33.491zm28.813 5.5887c1.2272 4e-5 2.4242 0.24764 3.5188 0.74517 1.1277 0.46438 1.9614 1.4795 2.5252 3.1048 0.59701 1.6253 0.91072 4.0686 0.91074 7.286-2e-5 2.1892-0.1651 4.1701-0.49677 5.9613-0.33171 1.758-1.0417 3.0704-2.0699 3.9328-0.99508 0.86239-2.4644 1.2833-4.3881 1.2833-1.2273 0-2.2506-0.16507-3.1462-0.49677-0.86239-0.36486-1.5888-0.95909-2.1527-1.8215-0.53071-0.86238-0.93518-2.0097-1.2005-3.436-0.26536-1.4262-0.41399-3.2339-0.41397-5.4231-2e-5 -2.1891 0.15685-4.1536 0.45538-5.8784 0.33168-1.7579 0.992-3.0704 1.9871-3.9328 1.0282-0.89554 2.5139-1.3247 4.4709-1.3247zm-54.893 0.66235h3.85c1.2272 4e-5 2.4654 0.21475 3.7258 0.57959 1.2604 0.36488 2.2674 1.2893 3.0634 2.815 0.79603 1.4926 1.2005 3.8616 1.2005 7.079-3e-5 2.2555-0.24764 4.2365-0.74516 5.9613-0.49755 1.6916-1.323 2.8554-2.4838 3.5188-1.1609 0.66339-2.7374 0.99355-4.7607 0.99355h-3.85zm-27.488 2.1113 3.3532 10.888h-6.7892z" fill="#0082c8"/>
 <path id="path3057" d="m163.24 224.11c-4.241 0-6.2945 1.8464-6.2945 4.7753 0 2.6482 1.4334 4.2214 3.925 4.8626l1.9043 0.487c1.5687 0.40953 2.2386 0.87047 2.2386 1.8462 0 1.4408-0.97884 1.7008-3.3434 1.7008-1.0785 0-2.9558-0.15796-3.5979-0.21078-0.66899-0.0491-0.85024 0.0327-0.95216 0.59602l-0.30528 1.977c-0.0529 0.38731 0.12973 0.53872 0.46517 0.58875 0.74403 0.10184 2.6184 0.23258 4.441 0.23258 4.0881 0 7.0722-1.3361 7.0722-5.1388 0-2.2377-0.98338-3.9089-4.3756-4.7826l-1.8971-0.48697c-1.2833-0.33079-1.8752-0.74472-1.8752-1.6935 0-1.338 1.2317-1.5918 2.4131-1.5918 1.5956 0 3.2101 0.13172 3.8522 0.18171 0.66993 0.0501 0.84932-0.0316 0.95218-0.59602l0.31254-1.9261c0.0511-0.38454-0.13255-0.53779-0.46518-0.58874-0.74682-0.10369-2.389-0.23259-4.4701-0.23259zm8.4168 0.17443c-0.51518 0-0.6687 0.18259-0.6687 0.69779v15.14c0 0.51146 0.15352 0.6905 0.6687 0.6905h2.3622c0.51426 0 0.66869-0.17904 0.66869-0.6905v-12.778h2.4422c1.5418 0 2.2823 0.56527 2.2823 2.0061 0 1.3102-0.58542 1.7213-1.1775 1.977-0.74404 0.30947-1.0049-0.0235-1.2356 0.95216l-0.2544 1.083c-0.0779 0.3076-0.10897 0.45588-0.10897 0.55965 0 0.25574 0.0809 0.4619 0.26166 0.77045l3.06 5.5022c0.2576 0.4364 0.45956 0.61782 1.0757 0.61782h2.8056c0.35857 0 0.79755-0.23195 0.38522-0.87222l-3.7578-6.2218c1.2602-0.79685 2.6748-1.9258 2.6748-4.4192 0-3.2125-1.7973-5.0152-5.7566-5.0152h-5.7275zm15.583 0c-0.51424 0-0.6687 0.18259-0.6687 0.69779v15.14c0 0.5124 0.15446 0.6905 0.6687 0.6905h2.3695c0.5124 0 0.66143-0.1781 0.66143-0.6905v-5.9674h6.12c0.51332 0 0.6687-0.17811 0.6687-0.69049v-1.8026c0-0.51426-0.15538-0.6905-0.6687-0.6905h-6.12v-3.4961h6.7378c0.51426 0 0.6687-0.18351 0.6687-0.69775v-1.7953c0-0.5152-0.15444-0.69779-0.6687-0.69779z" fill="#fff"/>
 <path id="path4318" d="m163.98 32.986c-6.494-0.1304-13.029 5.6651-13.018 13.638 8e-3 5.7684 3.609 12.175 9.5055 15.581-0.40223-0.1359-0.82292-0.20664-1.2812-0.20664-1.963 0-3.5542 1.3692-3.5542 3.0583s1.5913 3.0583 3.5542 3.0583 3.5542-1.3692 3.5542-3.0583c0-1.0075-0.57295-1.8812-1.4465-2.4384 2.4968 1.2789 5.3537 2.0483 8.5136 2.0251 0.90586-0.0066 1.0434 3.44e-4 1.9011 0l-9.9601 20.582c-0.42659 0.8808-0.75742 1.7331-1.0332 2.5624l-2.1904 0.5786c-7.4655 1.9391 2.7277-15.787 2.7277-15.787h-7.8524l-4.8768 11.737-0.0827 0.12398c-1.5478 3.0892-3.7647 4.8647-6.3232 5.9513 1.4022-2.1615 1.9978-4.636 2.1078-6.2819 0.31938-4.7806-0.81717-5.2546-2.4797-8.183-0.27991-0.49304 0.2465-1.5459 0.86789-3.3476h-7.5218s-3.1541 5.0869-6.6539 9.3402c-1.7271 0.03042-2.886 0.70588-3.6782 2.0664-0.61493 1.0561-0.5786 2.8103-0.5786 2.8103-1.6766 1.2607-3.2848 1.2768-4.1742 0.04133-1.8055-2.5081 4.5874-14.258 4.5874-14.258h-8.1417s-2.487 8.4754-6.5712 13.018c-2.3675 2.6334-4.4672 2.5897-5.662 1.8598-2.8371-1.7333 4.5461-14.878 4.5461-14.878h-7.2325s-6.8978 13.427-6.3646 15.581c-14.669 2.5732-0.69089-27.433 1.6118-32.691 2.7883-6.3665 4.4233-8.6227 6.4059-9.0096 1.9746-0.3853 2.5757 1.2238 2.5624 2.3557-2.7888 1.4165-0.46301 3.668 0.78523 3.3476 1.3397-0.34389 1.7912-1.9534 1.6531-3.0583-0.33084-2.6473-1.2998-4.9554-5.4554-4.9594-14.909-0.01534-32.903 31.186-36.7 31.74 0.57687-7.0934 0.44587-12.381-0.41328-18.763-0.50249-3.7328-0.30411-9.9224 3.3889-10.663 1.7051-0.34182 3.1429 0.35765 3.5542 2.4797-2.2067 0.06454-1.9156 3.1568 0.41329 3.141 1.1715-0.0079 1.7898-1.7227 1.7358-2.893-0.14011-3.037-2.9955-5.23-6.0339-5.1247-6.3136 0.21874-11.239 6.4135-14.548 11.985l-12.564 21.16c-3.7578 6.3289-8.9027 11.668-17.193 11.572-7.042-0.08173-13.694-5.9929-13.886-12.894-0.17904-6.4389 6.2917-11.719 10.58-11.572 5.5535 0.1903 9.2368 3.5656 9.2576 7.7697 0.0228 4.608-1.8184 5.7033-1.8184 5.7033s-0.47867-2.5074-3.3063-3.6369c-3.4686-1.3855-6.9095 0.28893-7.1498 4.2155-0.39558 6.4635 7.7638 7.5318 11.407 5.29 3.3448-2.0584 5.7273-3.5001 6.3232-11.159 0.43037-5.5309-5.9361-13.019-13.886-12.977-7.5929 0.04034-16.153 6.5442-16.366 17.358-0.20262 10.28 7.7274 17.937 17.523 17.937 20.418 0 23.445-17.517 30.046-26.326 1.6011 7.0949 2.066 16.445-0.37195 24.053-0.46888 1.4633-0.79999 2.2731-0.74391 4.1742 10.664 0.14369 15.419-16.092 26.946-27.855-9.9493 23.448 3.0958 27.743 8.8443 27.814 6.5087 0.08028 8.679-3.6782 8.679-3.6782s1.54 1.8184 4.7528 1.8184c4.3916 0 8.9269-4.7528 8.9269-4.7528s2.1418 4.7528 6.8192 4.7528c4.8441 0 8.059-4.2568 8.059-4.2568s3.1746 4.2568 8.8856 4.2568c1.4968 0 2.7683-0.2872 3.8849-0.74391 0.0119-0.0053 0.0299 0.0053 0.0413 0 4.0689-1.1322 7.3027-2.4928 9.6708-4.0502 0.49293 2.6806 2.4091 4.7941 5.2487 4.7941 2.6977 0 5.4767-2.1307 7.1911-3.7609-0.38264 2.238-0.33063 3.7609-0.33063 3.7609h7.1085l5.414-13.845c1.8759-2.2422 4.2616-4.4322 6.9018-5.2074 1.1708-0.34373 3.1793-0.53018 2.8517 2.0664-0.49272 3.9052-4.3286 5.7485-8.7203 6.4059 1.0858 0.41678 2.9058 0.81866 2.8103 2.893-0.20815 4.5239 1.1388 7.6871 5.786 7.6871 6.1506 0 10.868-6.3675 11.283-11.903-1.18 2.5365-3.0152 5.0762-6.6952 5.2487-3.8489 0.18047-4.0155-2.9031-4.0088-4.8354 3.3413-0.27709 7.8649-3.3796 7.9764-6.7779 0.0688-2.0962-1.2244-4.6593-6.0339-4.5874-3.9468 0.05885-7.7866 2.3216-10.167 4.0089l4.4222-11.324c7.4924 0.16678 18.411-4.6571 18.432-11.572 0.0106-3.341-2.2491-6.3431-7.5218-6.2819-8.4529 0.09813-13.148 8.4097-16.201 14.713l-0.82656 1.6945c-13.638-0.4003-16.42-8.7684-16.407-16.283 8e-3 -4.5339 1.7124-11.337 7.935-11.448 4.5481-0.08107 5.8752 2.5615 5.29 5.786-4.4169-1.7056-6.6345 0.7734-6.6125 3.3889 0.0208 2.4707 2.041 4.1916 4.6701 4.1328 5.3205-0.11876 6.1887-3.7356 6.1166-6.7779-0.13704-5.7834-3.4723-8.89-9.4229-9.0096zm-21.119 15.746c-4.2662 0.0013-6.5337 3.338-6.6125 6.4059-0.0493 1.9196 1.1444 4.2493 3.9262 4.2155 2.1738-0.02645 3.1476-1.0955 3.2649-2.6037 0.0869-1.1172-0.44997-2.588-1.9838-2.6037-2.4316-0.02486-1.2398 2.4384-1.2398 2.4384s-2.4847 0.65426-2.2731-1.4878c0.22428-2.2697 1.7704-4.6441 5.0007-4.6701 4.5774-0.03677 7.8524 4.5461 7.8524 4.5461s-3.1262-6.2424-7.935-6.2406zm47.28 0.08266c1.8269 0.12643 1.8647 1.5607 1.6118 3.3063-1.3906 9.5969-12.605 10.993-12.605 10.993s4.7327-13.663 10.084-14.258c0.33777-0.03756 0.64823-0.05945 0.90923-0.04133zm-55.339 29.095c1.8468 2.3403 2.6928 5.0057 2.645 8.1417-0.0477 3.136-1.3787 6.3422-5.0421 6.4059-2.674 0.04655-4.6489-2.5316-5.538-3.9262 0.49734 0.1975 1.0717 0.33063 1.6531 0.33063 2.1861 0 3.9675-1.5543 3.9675-3.4716 0-0.95865-0.44087-1.8101-1.1572-2.4384 1.1473-1.4311 2.2866-3.0883 3.4716-5.0421zm-24.301 22.235c-3.0361-0.0105-6.9585 2.9641-7.3564 4.7528-0.42445 1.9079 0.54453 1.8361 1.4052 2.0664 0.86064 0.23031 1.0532-1.7584 2.5624-1.2398 1.5091 0.51858 2.8241 1.5178 2.9756 6.0339 0.15159 4.5162-3.8174 13.456-7.7697 18.846-3.9524 5.3896-10.649 13.135-15.126 12.646-4.4774-0.48856-4.0078-3.0018-4.4635-5.786s0.62716-3.1796 3.141-9.0922c2.5384-5.9705 11.017-18.928 11.903-26.368h-11.572c-1.1404 6.0123-17.177 35.561-25.293 40.254-4.4038 2.5464-8.3952 0.85184-8.183-2.9756 0.36247-6.5381 12.804-19.437 12.399-28.599-0.34827-7.8784-6.469-10.128-14.63-10.332-12.952-0.32364-28.562 7.7598-29.26 19.259-0.4877 8.0305 5.1743 8.327 10.001 8.679 4.8272 0.352 13.279-4.8071 13.308-8.5136 0.0283-3.7066-2.78-3.3983-5.3727-3.5542-6.5284-0.39276-5.538 7.2738-5.538 7.2738s-4.4727-0.11612-4.0502-6.3646c0.34562-5.1114 10.622-12.855 15.87-12.812 5.2477 0.0434 8.3211 4.5823 8.183 7.7697-0.14033 3.24-0.55614 3.3101-2.3144 6.9432-1.7583 3.6331-6.8769 9.6542-8.679 13.638-1.8021 3.9842-2.4766 5.7765-2.8103 9.6708-0.34677 4.047 1.0134 8.8952 10.828 9.3402 11.173 0.50655 18.35-11.215 18.35-11.215s0.14774 11.238 13.307 11.215c11.557-0.0197 17.527-11.515 23.475-19.176 5.9479-7.6614 12.694-19.13 11.737-25.293s-3.3533-6.5701-6.4472-7.0258c-0.19338-0.0285-0.37619-0.0406-0.5786-0.0413zm30.79 10.828-12.853 28.93c-0.58768 1.3238-0.98377 2.5645-1.1985 3.7196-1.832 2.0327-4.4867 4.0605-7.7284 3.9675-5.5214-0.15829-5.2487-5.8686-5.2487-5.8686s12.336 0.24944 12.688-8.1417c0.13093-3.1208-2.0248-5.3217-7.3564-5.3314-6.4472-0.0119-13.736 7.2327-13.68 13.68 0.0413 4.7671 2.6022 9.9601 10.291 9.9601 5.6141 0 8.9576-2.3576 10.952-5.0007 0.44186 3.0901 2.5765 5.0007 5.7446 5.0007 3.3901 0 6.6764-3.296 9.0922-6.4059-0.0794 3.9337 2.1964 6.4059 5.8273 6.4059 3.5582 0 7.0281-3.6227 9.4642-6.8605 0.98605 3.668 3.8602 6.8605 9.8775 6.8605 12.832 0 13.845-12.275 13.845-12.275s-4.1043 8.1608-10.539 7.9764c-5.5214-0.15829-5.2487-5.8686-5.2487-5.8686s12.336 0.24944 12.688-8.1417c0.13093-3.1208-2.0248-5.3217-7.3564-5.3314-6.4472-0.0119-13.736 7.2327-13.68 13.68 7e-3 0.73174 0.0721 1.4589 0.20664 2.1904-1.3182 0.79563-2.7712 1.3223-3.8435 1.2812-2.9034-0.11122-3.5067-2.1592-2.0251-5.4967l12.853-28.93h-7.8524l-12.853 28.93c-0.66789 1.5045-1.0503 2.8908-1.2398 4.1742-1.3235 0.80201-2.7247 1.3638-3.8022 1.3225-2.9034-0.11122-3.5067-2.1592-2.0251-5.4967l12.812-28.93zm-20.127 19.755c2.1664-0.14426 2.9163 1.9103 2.2731 3.5956-2.3032 6.0344-9.2162 5.4553-9.2162 5.4553s-0.12908-6.1157 5.2074-8.555c0.64956-0.29692 1.2358-0.46265 1.7358-0.49594zm50.958 0c2.1664-0.14426 2.9163 1.9103 2.2731 3.5956-2.3032 6.0344-9.2162 5.4553-9.2162 5.4553s-0.12908-6.1157 5.2074-8.555c0.64956-0.29692 1.2358-0.46265 1.7358-0.49594zm-71.333 17.11s-7.0714 4.9312-7.0258 15.746c0.0354 8.4118 6.354 14.696 13.308 14.713 5.8949 0.0147 11.364-3.7398 11.324-9.8775-0.0294-4.4938-3.0649-8.1703-7.1498-8.3483-3.1741-0.13833-5.5496 1.8258-5.538 5.2487 0.0119 2.1831 1.5888 3.7194 4.0088 3.7196 3.4864 1.4e-4 2.6863-3.7196 2.6863-3.7196s3.1122-0.63455 3.1823 3.2649c0.0625 3.4772-2.6336 5.6839-8.1417 5.662-4.7491-0.0189-10.721-4.5895-10.828-10.663-0.19636-11.179 4.1742-15.746 4.1742-15.746zm-19.259 10.125c-1.8703 0.11017-3.9334 1.433-3.9675 3.9675-0.0562 4.1745 3.2237 6.0161 6.0753 5.9926 7.0128-0.0578 8.183-8.555 8.183-8.555s-2.4465 6.2989-8.307 6.2406c-1.9533-0.0194-4.6708-1.7288-4.5461-3.6782 0.0759-1.1871 1.9004-2.2701 3.017-1.8598-0.98491 1.2975 0.82657 2.4797 0.82657 2.4797 0.79989 0.51554 2.9237-1.214 1.9838-3.017-0.86247-1.6544-1.9771-1.6464-3.2649-1.5705z" fill="#fff"/>
</svg>
