<svg enable-background="new 0 0 800 300" version="1.1" viewBox="0 0 800 300" xml:space="preserve" xmlns="http://www.w3.org/2000/svg">
<g transform="scale(6.25)">
	<path d="M0,0h73v48H0V0z" fill="#0082C8"/>
	<path d="M80,0h48v48H80V0z" fill="#0082C8"/>
	<path d="M64,13v2.5c0,0.7-0.2,1-0.9,1H54v4.9h8.3c0.7,0,0.9,0.3,0.9,1v2.5c0,0.7-0.2,1-0.9,1H54V34   c0,0.7-0.2,1-0.9,1h-3.2c-0.7,0-0.9-0.3-0.9-1V13c0-0.7,0.2-1,0.9-1h13.2C63.8,12,64,12.2,64,13" fill="#fff"/>
	<path d="m45.8 33.8c0.6 0.9 0 1.2-0.5 1.2h-3.8c-0.8 0-1.1-0.3-1.5-0.9l-4.1-7.7c-0.2-0.4-0.3-0.7-0.3-1.1 0-0.1 0-0.4 0.1-0.8l0.3-1.5c0.3-1.4 0.7-0.9 1.7-1.3 0.8-0.4 1.6-0.9 1.6-2.8 0-2-1-2.8-3.1-2.8h-3.2v17.9c0 0.7-0.2 1-0.9 1h-3.2c-0.7 0-0.9-0.3-0.9-1v-21c0-0.7 0.2-1 0.9-1h7.7c5.3 0 7.7 2.5 7.7 7 0 3.5-1.9 5-3.6 6.2l5.1 8.6z" fill="#fff"/>
	<path d="m22.6 12.3c0.4 0.1 0.7 0.3 0.6 0.8l-0.4 2.6c-0.1 0.8-0.4 0.9-1.3 0.8s-3-0.2-5.1-0.2c-1.6 0-3.2 0.3-3.2 2.2 0 1.3 0.8 1.9 2.5 2.3l2.5 0.7c4.5 1.2 5.8 3.5 5.8 6.5 0 5.2-4 7-9.4 7-2.4 0-4.9-0.2-5.9-0.3-0.4-0.1-0.7-0.3-0.6-0.8l0.4-2.7c0.1-0.8 0.4-0.9 1.3-0.8s3.4 0.3 4.8 0.3c3.2 0 4.5-0.4 4.5-2.3 0-1.3-0.9-2-3-2.5l-2.5-0.7c-3.3-0.9-5.2-3-5.2-6.6 0-4 2.7-6.5 8.4-6.5 2.6-0.1 4.8 0.1 5.8 0.2" fill="#fff"/>
	<g transform="translate(80.658,6.504)" fill="#fff">
		<path d="m31.6 13.5c0 0.7-0.4 1.5-1.3 1.5-0.6 0-0.9-0.5-0.9-0.8h0.2c0.5 0 0.9-0.4 0.9-0.9 0-0.2-0.1-0.4-0.2-0.5 0.3-0.5 0.5-0.9 0.7-1.3 0.3 0.6 0.7 1.1 0.6 2m11.4-8.3c0.7-1.4 1.9-1.4 1.9-0.3s-1 2.8-3 3c0.4-1 0.8-2 1.1-2.7m3 0.4c0.3-1.2-0.5-2.1-1.5-2.1-1.2 0-2.6 0.9-4.4 4.2-2.8-0.8-3.6-3.8-2.5-5.6 1-1.5 2.4-1.2 2.6-0.3 0.1 0.3 0 0.5-0.1 0.6-0.2 0.1-0.4-0.2-0.7-0.2-0.6 0-1 0.5-1 1s0.5 1 1.1 1c1.9 0 2.1-2.5 1.1-3.5-1.1-1.1-3.3-1.1-4.3 0.7-1.6 3 0.7 6.2 3.7 6.6-0.6 1.1-0.9 1.9-1.6 3.7-0.5 1.2-1.5 2.5-1.9 2.5s-0.5-0.7-0.1-1.4l0.9-2.1c0.2-0.5 0.2-0.7-0.1-0.7h-1.7c-0.1 0-0.1 0.1-0.1 0.2 0.1 0.1 0.1 0.2 0 0.4l-0.6 1.3c-0.5 1.1-1.1 2-1.6 2.4 0.5-0.9-0.1-2.3-0.3-2.8-0.3-0.9 0.1-1.2 0.1-1.2 0.1-0.1 0.1-0.2 0-0.2h-1.7c-0.2 0-0.4 0.2-0.4 0.4-0.2 0.7-0.6 1.4-1 2.1-0.1-0.1-0.3-0.1-0.4-0.1-0.6 0-1.1 0.5-1.1 1.3v0.4c-0.3 0.2-0.6 0.3-0.9 0.2-0.4-0.1-0.5-0.7-0.1-1.4l0.9-2.1c0.2-0.5 0.2-0.7-0.1-0.7h-1.7c-0.1 0-0.1 0.1-0.1 0.2 0.1 0.1 0.1 0.2 0 0.4l-0.4 1.1-0.2 0.4c-0.5 1.1-1.3 2-1.9 1.9-0.4-0.1-0.5-0.7-0.1-1.4l0.9-2.1c0.2-0.5 0.2-0.7-0.1-0.7h-1.6c-0.1 0-0.1 0.1-0.1 0.2 0.1 0.1 0.1 0.2 0 0.4l-0.8 1.9c-0.9 2.1-0.4 3.4 0.8 3.5 0.9 0 1.8-0.6 2.5-1.6 0 1 0.5 1.6 1.3 1.6 0.7 0 1.5-0.4 2.2-1.1 0.4 0.8 1.4 1.1 2.1 1.1 1.6 0 2.6-0.9 3.2-1.8-0.1 1.2 0.2 1.9 1.1 1.9 0.8 0 1.8-0.9 2.3-1.7l-0.6 1.1c0 0.1 0 0.2 0.1 0.2h1.7c0.1 0 0.2-0.1 0.2-0.2l0.8-2.3c0.6-1.7 2.2-2.7 2.5-2 0.4 1-1.1 1.8-1.9 1.8-0.1 0-0.2 0-0.2 0.1s0.1 0.1 0.1 0.1c1 0.3 0.3 2.5 2.3 2.6 2.2 0.2 2.9-2.2 3-2.7 0-0.2-0.1-0.4-0.2 0-0.3 0.8-0.9 1.4-1.6 1.3-0.8-0.1-0.5-1.1-1.3-1.4 1.4-0.3 2.5-1.5 1.8-2.7-0.5-0.8-2.4-0.7-3.7 0.8 0.3-0.7 0.7-1.8 1.1-2.9 2.1 0.1 4-1 4.3-2.6"/>
		<path d="m32.5 4c1-0.3 2.1 0.4 2.5 2v0.1s0 0 0-0.1c-0.7-1.8-2.1-1.6-2.3-1.5-1 0.3-0.9 1.8-0.4 1.8 0.2 0 0.2-0.2 0.2-0.3-0.2-0.2-0.1-0.6 0.2-0.7s0.5 0.2 0.6 0.5c0 0.2 0 0.7-0.6 0.8-1.6 0.5-2-2.2-0.2-2.6"/>
		<path d="m4.5 7.6c3.5 0 4.3 3.3 2.5 5.3-1.4 1.4-3.5 0.9-3.5-0.6 0-0.8 0.6-1.4 1.3-1.4 0.6 0 1.2 0.4 1.2 1.4 0 0.3 0.3 0.2 0.4 0.1 0.8-0.9 0.4-4.1-2.1-4.1-3.7 0-4.5 6.6 0.6 6.6 5.7 0 7-13.4 11.3-12.4 1.4 0.3 1.1 1.8 0.5 2-0.4 0.2-0.8-0.3-0.5-0.4 0.4-0.2 0.4-0.8 0-0.9-2-0.5-0.8 5.3-1.2 8.7 2.5-4 6.4-10.2 9.4-9.3 1.4 0.4 1.1 1.8 0.5 2-0.4 0.2-0.8-0.3-0.5-0.4 0.4-0.2 0.4-0.8 0-0.9-1.3-0.3-3 5.1-3.7 7.6-1 3.8 0.7 6.3 2.2 5.8 0.3-0.1 0.2 0.1 0 0.2-0.7 0.6-2 1.4-3.5 0.7-2.6-1.2-1.6-7.2 0.6-11.7-2 2.2-5.3 8.2-6.6 9.1-1.1 0.8-1.8 0.4-1.4-0.3 1.2-2.2 0.3-5.5 0.4-7.8-1.2 2.4-3.2 9.9-7.9 9.9-6.4-0.2-5.7-9.2 0-9.2"/>
		<path d="m19.4 34.1c-1.7 0-1.8-2.6-0.3-2.6 0.6 0 0.7 0.5 0.7 0.7s-0.1 0.6-0.5 0.6-0.5-0.4-0.3-0.6c0-0.1 0-0.3-0.2-0.2-0.5 0.2-0.6 1.6 0.8 1.6 0.2 0 1.6 0 1.9-1.9v-0.1c-0.1 1.7-1.1 2.5-2.1 2.5"/>
		<path d="m17.8 30.1c-1.5-0.3-2-1.6-1.9-2.9-1.3 2.1-3.8 3.2-5.2 2.9-1.7-0.4-1.9-2.5-0.8-4.8 0.8-1.7 2.8-5.3 1.8-6.9-1.4-2.3-6.2-0.8-6.2 3.3 0 1.3 1.2 3 2.9 2.2 0.2-0.1 0.3-0.3 0-0.4-0.9-0.3-1.1-1.1-0.9-1.6 0.2-0.7 0.9-1.1 1.7-0.9 1.4 0.4 1.4 2.4-0.4 3.5-1.5 0.9-3.9 0.5-4.6-1.5-1.8-5.4 7.6-9.1 10.1-4.8 1 1.8-0.5 4.1-1.5 6.5-0.7 1.6-1.2 3.2-0.3 3.5 1.5 0.6 3.4-1.9 5.5-6.9l0.7-1.6v-0.4c-0.1-0.1 0-0.2 0.1-0.2h2.5c0.3 0 0.4 0.2 0.1 0.7l-2.4 5.3c-0.7 1.7-0.6 3.1 0.4 3.2 3.3 0.5 6-8.9 4.4-9.6-0.6-0.3-0.9 0.4-1 0.2-0.3-0.5 0.8-2.5 2.2-2 2.9 1-1.5 14.2-7.2 13.2"/>
		<path d="m25.3 36.5c-3.9 0-4.3-5.1-1.9-7.6 0 0 0.1-0.1 0.1 0s0 0.1 0 0.1c-2.5 3.4-0.2 6.6 2 6.6 1.6 0 1.9-1.4 1.4-2-0.2-0.2-0.4-0.2-0.4 0-0.1 0.4-0.3 0.7-0.8 0.7-0.7 0-1-0.5-1-1 0-0.4 0.4-1.3 1.4-1.3 2.3 0.1 2.4 4.5-0.8 4.5"/>
		<path d="m43 26.9c0 0.4-0.6 2.9-3.6 2.9-1 0-1.9-0.7-2.1-1.6-0.6 0.8-1.6 1.6-2.7 1.6-0.8 0-1.1-0.7-1.1-1.6-0.6 0.8-1.6 1.6-2.6 1.6-0.9 0-1.2-0.9-1.1-1.9-0.7 1-1.8 1.9-3.3 1.9-1.1 0-2.2-0.8-2.2-2.4 0-3.4 4.1-4.6 5.1-3 0.8 1.2-0.3 3.1-2.4 2.8-0.3 0-0.4-0.1-0.4-0.2s0.2-0.1 0.4-0.1c1.1-0.1 1.7-1.6 1.1-2.2-0.6-0.5-2 0.5-1.8 2.5 0.1 1 0.6 1.4 1.2 1.4 1 0 2.1-0.9 3-3l2.5-5.8v-0.4c-0.1-0.1 0-0.1 0.1-0.1h1.9c0.3 0 0.4 0.2 0.1 0.7l-2.8 6.5c-0.2 0.5-0.5 1.6 0.1 1.6s1-0.6 1.5-1.6l0.1-0.1 2.8-6.5v-0.4c-0.1-0.1 0-0.1 0.1-0.1h1.9c0.3 0 0.4 0.2 0.1 0.7l-2.9 6.3c-0.2 0.5-0.5 1.6 0.1 1.6 0.4 0 0.8-0.3 1.1-0.8 0.2-3.2 4.1-4.3 5.1-2.8 0.8 1.2-0.3 3.1-2.4 2.8-0.3 0-0.4-0.1-0.4-0.2s0.2-0.1 0.4-0.1c1.1-0.1 1.7-1.6 1.1-2.2-0.6-0.5-2 0.5-1.8 2.5 0.2 2.3 3 1.4 3.5-0.3 0.2-0.3 0.3-0.2 0.3 0"/>
		<path d="m35.9 8.5c0.1-0.6 0.6-1 1.2-1s1 0.4 0.9 1-0.6 1-1.2 1-1-0.4-0.9-1"/>
	</g>
</g>
</svg>
