<svg id="c" version="1.1" viewBox="0 0 202.71 250" xmlns="http://www.w3.org/2000/svg">
 <defs id="d">
  <filter id="a" color-interpolation-filters="sRGB">
   <feGaussianBlur id="e" stdDeviation="2.300625"/>
  </filter>
  <clipPath id="b">
   <path id="f" d="m40.72 22.68 6.7129 153.37h153.37l-6.7129-153.37z" fill="#a5ff00"/>
  </clipPath>
 </defs>
 <rect id="g" x="11.184" y="27.51" width="180.62" height="154.68" fill="#fff"/>
 <path id="h" transform="matrix(1.3217 0 -.057846 1.3217 -52.507 -29.975)" d="m46.149 31.475 13.404 131.86 133.63 6.0404-8.8432-139.78zm16.663 20.306 13.594 0.03125c18.522 0.04121 21.15 9.8984 24.326 23.656l22.553 82.844-35.746 3.0265zm119.53 0-17.198 110.41-39.847-3.8834 20.638-82.844c3.1762-13.758 4.2904-23.615 22.812-23.656z" clip-path="url(#b)" filter="url(#a)" opacity=".5"/>
 <path id="i" d="m126.18 215.1c-2.2553 4e-5 -4.5427 0.3937-6.8974 1.1564-2.3216 0.76284-4.2567 2.4682-5.7823 5.1214-1.5256 2.6533-2.2716 6.3757-2.2716 11.151 0 3.3166 0.32793 6.0796 0.99124 8.3017 0.69647 2.2221 1.7216 4.0095 3.015 5.3692 1.2934 1.3598 2.843 2.3354 4.6671 2.9324 1.8572 0.56379 3.9231 0.86734 6.2779 0.86734 2.3879 0 4.5032-0.30355 6.3605-0.86734 1.8572-0.59698 3.4481-1.5726 4.7084-2.9324 1.2934-1.3598 2.2691-3.1472 2.9324-5.3692 0.66327-2.2221 0.99121-4.9851 0.99124-8.3017-3e-5 -3.2834-0.42624-6.3418-1.3217-9.1277-0.86233-2.7859-2.42-4.8354-4.7084-6.1953-2.2884-1.3929-5.3143-2.1064-8.9625-2.1064zm25.607 0v34.9h50.925v-34.9zm-151.78 0.70213v33.496h7.5582v-27.259h4.3367c1.7909 2e-5 3.0207 0.37738 3.7172 1.0738 0.72962 0.66332 1.0738 1.6884 1.0738 3.015-2.6e-5 1.6583-0.44248 2.8061-1.4043 3.4694-0.92865 0.66334-2.3142 0.99126-4.1715 0.99125l-1.2391 5.204 8.6734 13.506h8.7147l-9.7059-14.332c0.86228-0.19897 1.8793-0.59263 2.9737-1.1564 1.1276-0.59695 2.0457-1.5726 2.8085-2.9324 0.76278-1.3598 1.1564-3.0489 1.1565-5.0388-4e-5 -3.0844-0.90999-5.5195-2.7672-7.3104-1.8241-1.8241-4.7186-2.7259-8.6321-2.7259zm40.311 0-12.019 33.496h7.393l2.8085-8.1365h10.491l2.8085 8.1365h7.7234l-11.978-33.496zm23.336 0v33.496h11.523c2.3547 0 4.5276-0.25408 6.4844-0.78474 1.9567-0.53064 3.654-1.4244 5.0801-2.6846 1.4261-1.2935 2.5-3.0483 3.2628-5.204 0.79593-2.1557 1.1977-4.8449 1.1978-8.0952-3e-5 -3.2834-0.40182-6.0138-1.1978-8.1365-0.76285-2.1557-1.8368-3.8611-3.2628-5.1214-1.4261-1.2934-3.1234-2.1871-5.0801-2.6846-1.9568-0.53062-4.1297-0.7847-6.4844-0.78474zm33.744 0v33.496h7.6408v-33.496zm28.787 5.5758c1.2271 3e-5 2.4162 0.24597 3.5107 0.74343 1.1276 0.46434 1.9556 1.4725 2.5194 3.0976 0.59694 1.6251 0.94993 4.0934 0.94994 7.3104-1e-5 2.1889-0.16397 4.1566-0.49562 5.9475-0.33167 1.7578-1.0783 3.0614-2.1064 3.9237-0.99499 0.86231-2.4544 1.2804-4.378 1.2804-1.2271 0-2.2435-0.16398-3.1389-0.49562-0.8623-0.36483-1.5839-0.95498-2.1477-1.8173-0.53065-0.86229-0.93244-2.0019-1.1978-3.4281-0.26534-1.4261-0.41304-3.2216-0.41302-5.4105-2e-5 -2.1889 0.15582-4.1402 0.45432-5.8649 0.33164-1.7577 0.98751-3.1026 1.9825-3.965 1.0281-0.89544 2.5038-1.3216 4.4606-1.3217zm-54.89 0.66083h3.8411c1.2271 2e-5 2.4982 0.21343 3.7585 0.57822 1.2603 0.36485 2.2603 1.2829 3.0563 2.8085 0.79594 1.4925 1.1977 3.8869 1.1978 7.1039-2e-5 2.2553-0.24596 4.2229-0.74343 5.9475-0.4975 1.6914-1.3173 2.8474-2.4781 3.5106-1.1608 0.66331-2.768 0.99125-4.791 0.99125h-3.8411zm-27.466 2.1064 3.3454 10.904h-6.7735z" fill="#a5ff00"/>
 <path id="j" d="m163.24 224.1c-4.2405 0-6.2938 1.8462-6.2938 4.7748 0 2.6479 1.4332 4.2209 3.9245 4.862l1.9041 0.48695c1.5685 0.40949 2.2384 0.87037 2.2384 1.846 0 1.4407-0.97873 1.7006-3.3431 1.7006-1.0784 0-2.9554-0.15795-3.5975-0.21076-0.66891-0.0489-0.85014 0.0326-0.95205 0.59595l-0.30525 1.9768c-0.0529 0.38727 0.12965 0.53864 0.46514 0.58868 0.74395 0.1019 2.6181 0.23257 4.4405 0.23257 4.0876 0 7.0714-1.3359 7.0714-5.1382 0-2.2374-0.98327-3.9084-4.3751-4.7821l-1.8968-0.48693c-1.2832-0.33074-1.875-0.74464-1.875-1.6934 0-1.3378 1.2316-1.5916 2.4128-1.5916 1.5954 0 3.2098 0.13163 3.8518 0.1817 0.66986 0.0501 0.84923-0.0317 0.95208-0.59594l0.31251-1.9259c0.051-0.3845-0.13247-0.53773-0.46513-0.58868-0.74674-0.10375-2.3887-0.23256-4.4696-0.23256zm8.4159 0.17442c-0.51513 0-0.66862 0.18258-0.66862 0.6977v15.138c0 0.5114 0.15349 0.69043 0.66862 0.69043h2.362c0.5142 0 0.66861-0.17903 0.66861-0.69043v-12.776h2.4419c1.5417 0 2.282 0.56519 2.282 2.0058 0 1.3101-0.58535 1.7211-1.1774 1.9768-0.74396 0.30944-1.0048-0.0237-1.2355 0.95204l-0.25437 1.0829c-0.078 0.30759-0.10903 0.45584-0.10903 0.5596 0 0.25572 0.0809 0.46184 0.26163 0.77037l3.0597 5.5016c0.25756 0.43638 0.4595 0.61776 1.0756 0.61776h2.8053c0.35854 0 0.79746-0.23194 0.38517-0.87214l-3.7573-6.2211c1.26-0.79678 2.6745-1.9256 2.6745-4.4187 0-3.2121-1.7971-5.0147-5.756-5.0147h-5.7269zm15.582 0c-0.5142 0-0.66863 0.18258-0.66863 0.6977v15.138c0 0.51235 0.15443 0.69043 0.66863 0.69043h2.3692c0.51236 0 0.66137-0.17808 0.66137-0.69043v-5.9667h6.1193c0.51326 0 0.66862-0.17808 0.66862-0.69042v-1.8024c0-0.51418-0.15536-0.69041-0.66862-0.69041h-6.1193v-3.4958h6.7371c0.5142 0 0.66863-0.18348 0.66863-0.69768v-1.7951c0-0.51512-0.15443-0.6977-0.66863-0.6977z" fill="#fff"/>
 <path id="k" d="m2.495e-6 1.3568e-6v202.71h202.71v-202.71zm21.353 34.322 17.966 0.0413c24.48 0.05447 25.952 13.082 30.15 31.265l25.277 109.49h-40.889l-32.505-140.8zm157.98 0-32.505 140.8h-40.889l25.277-109.49c4.1979-18.183 5.6705-31.211 30.15-31.265l17.966-0.0413zm-33.868 74.137c-0.89254-0.0175-1.7148 0.22744-2.4368 0.74343-0.96108 0.68179-1.6498 1.878-2.0651 3.5933-0.25425 1.0503-0.3016 1.986-0.16521 2.8085 0.1379 0.81629 0.43722 1.5199 0.94995 2.0651 0.50803 0.53747 1.1213 0.86405 1.8173 1.0326 1.0814 0.26181 2.1012 0.0787 3.0563-0.57823 0.6789-0.4672 1.3816-1.4182 2.1064-2.8085 0.56422-1.0805 0.96634-1.769 1.1565-2.0651 0.28214-0.43167 0.55094-0.69519 0.82603-0.82604 0.27036-0.13851 0.54418-0.16084 0.86734-0.0826 0.50338 0.12188 0.8872 0.44581 1.1564 0.99125 0.2646 0.53773 0.29776 1.259 0.0826 2.1477-0.20313 0.83898-0.5722 1.4637-1.1152 1.8586-0.54146 0.38865-1.2901 0.55219-2.2303 0.49563l-0.37172 2.7259c1.5724 0.18991 2.8565-0.0528 3.8824-0.78474 1.0196-0.73339 1.7294-1.9895 2.1477-3.7172 0.28734-1.187 0.3846-2.2224 0.24781-3.0976-0.143-0.87671-0.49557-1.5885-1.0738-2.189-0.57829-0.60052-1.2821-1.0082-2.0651-1.1978-0.86382-0.20907-1.64-0.18392-2.3129 0.0413-0.67764 0.21753-1.2426 0.59139-1.7347 1.1564-0.49676 0.55736-1.0514 1.4603-1.6934 2.7259-0.64192 1.2656-1.1518 2.0356-1.5282 2.3129-0.29613 0.21723-0.62677 0.28475-0.94994 0.20651-0.35422-0.0858-0.60285-0.27628-0.74344-0.61952-0.21955-0.5334-0.2354-1.2221-0.0413-2.0238 0.18807-0.77682 0.50464-1.3007 0.90864-1.6108 0.39931-0.31776 0.96255-0.46496 1.6934-0.41301l0.53692-2.7672c-0.31647-0.0651-0.61112-0.11807-0.90864-0.1239zm-5.9475 12.019-0.66083 2.7672 7.5582 1.8173c1.0814 0.26182 1.8251 0.5085 2.2716 0.70213 0.44653 0.19364 0.80567 0.51529 1.0326 0.99125 0.22069 0.47447 0.23088 1.1168 0.0413 1.8999-0.18656 0.77062-0.50602 1.3272-0.94994 1.6934-0.44864 0.35848-0.98156 0.51293-1.5695 0.49562-0.36455-0.0159-1.1384-0.12865-2.3129-0.41302l-7.393-1.8173-0.66083 2.7672 7.2691 1.776c1.5288 0.37013 2.7253 0.56898 3.552 0.57823 0.55833 4e-3 1.1138-0.13886 1.6934-0.41302 0.5733-0.27566 1.1025-0.72419 1.5695-1.3217 0.46231-0.60516 0.8405-1.5448 1.1565-2.8498 0.2618-1.0813 0.35869-1.9885 0.24781-2.7259-0.11717-0.73886-0.37364-1.3893-0.74344-1.8999-0.3683-0.51678-0.84558-0.9259-1.4869-1.2391-0.64127-0.31314-1.7874-0.67662-3.428-1.0738zm-0.33042 14.538c-0.38296 0.0126-0.75316 0.0837-1.1152 0.20651-0.72396 0.24579-1.29 0.67409-1.6934 1.2804-0.40803 0.59859-0.76157 1.6372-1.1152 3.0976l-1.4043 5.7822 13.671 3.3042 0.66083-2.7672-5.6996-1.363 0.1239-0.57823c0.15347-0.63388 0.31932-1.0551 0.49563-1.3217 0.17015-0.268 0.44188-0.50882 0.78473-0.70213 0.33664-0.19481 1.12-0.49874 2.3542-0.94994l3.4281-1.2804 0.82603-3.3041-3.0976 1.0325c-1.2222 0.40148-2.0909 0.74184-2.602 1.0326-0.50966 0.28451-0.9944 0.68541-1.4869 1.1978 0.11638-1.2415-0.10051-2.2512-0.61952-3.015-0.52524-0.7653-1.2875-1.2799-2.3129-1.5282-0.40393-0.0978-0.81478-0.13646-1.1978-0.12391zm0.0413 2.9737c0.19993-0.0174 0.4309-0.0143 0.66083 0.0413 0.41018 0.0993 0.72163 0.28429 0.94994 0.53692 0.22831 0.25265 0.3396 0.55219 0.37172 0.90864 0.0322 0.35648-0.0925 1.1957-0.41302 2.5194l-0.49562 2.0238-3.4694-0.82603 0.49562-2.1477c0.27082-1.1186 0.45168-1.8076 0.53692-2.0238 0.18292-0.42938 0.4815-0.73547 0.82604-0.90864 0.16993-0.0904 0.337-0.10652 0.53692-0.1239zm-5.9062 10.078-0.66083 2.7672 13.671 3.3041 0.66083-2.7259zm-1.239 5.5758-0.70214 2.8085 13.01 6.154 0.66083-2.8085zm11.854 10.573-14.332 0.0826-0.57823 2.8085 14.373-0.0826z" fill="#a5ff00"/>
</svg>
