<svg width="800" height="184.62" data-name="Ebene 1" version="1.1" viewBox="0 0 800 184.62" xmlns="http://www.w3.org/2000/svg">
 <path class="cls-1" d="m0 36.656v113.54h235.16l24.205-113.54zm279.96-36.656-39.344 184.62h559.38v-184.62z" fill="#e31818" stroke-width="2.0513"/>
 <g fill="#fff" stroke-width="2.0513">
  <path class="cls-2" d="m182.17 81.231a118.36 118.36 0 0 0-15.733 1.1692v-20.759h-9.4564v61.538a262.4 262.4 0 0 0 28.041 1.9487c23.569 0 29.662-5.0667 29.662-5.0667s2.2154-3.2205 2.2154-16.759c0-13.108-2.2974-16.082-2.2974-16.082s-10.667-5.9897-32.431-5.9897zm24.615 31.856a81.621 81.621 0 0 1-21.703 2.318c-5.2308 0-11.446-0.38974-18.708-1.0462v-22.051a89.21 89.21 0 0 1 40.287 2.1949 84.287 84.287 0 0 1 0.67692 9.3333 90.051 90.051 0 0 1-0.4718 9.2513zm-94.564-31.856a118.46 118.46 0 0 0-15.733 1.1692v-20.759h-9.4564v61.538a262.56 262.56 0 0 0 28.041 1.9487c23.569 0 29.662-5.0667 29.662-5.0667s2.2154-3.2205 2.2154-16.759c0-13.108-2.2974-16.082-2.2974-16.082s-10.646-5.9897-32.431-5.9897zm24.615 31.856a81.497 81.497 0 0 1-21.703 2.318 215.38 215.38 0 0 1-18.728-1.0462v-22.051a89.21 89.21 0 0 1 40.287 2.1949 82.051 82.051 0 0 1 0.73846 9.3128 87.262 87.262 0 0 1-0.51282 9.2718zm-111.18 11.467h9.6615v-27.651c4.5744-1.5795 17.395-5.3744 41.231-5.7026v-9.8051c-36.41 0.20513-50.872 9.0667-50.872 9.0667zm446.44-25.026c0 20.041-7.5897 25.169-20.513 25.169-12.923 0-20.513-5.1282-20.513-25.169v-41.744h-19.528v41.949c0 29.313 12.779 42.4 40 42.4s40-13.087 40-42.4v-41.949h-19.549zm34.769-60.718h19.549v101.44h-19.549zm53.538 0h-19.549v75.118c0 17.764 9.2308 26.318 26.4 26.318h17.538v-17.436h-17.518c-4.9231 0-6.8718-2.0513-6.8718-8.8205v-38.851h24.39v-17.354h-24.39zm97.662 60.718c0 20.041-7.5897 25.169-20.513 25.169-12.923 0-20.513-5.1282-20.513-25.169v-41.744h-19.549v41.949c0 29.313 12.8 42.4 40 42.4 27.221 0 40-13.087 40-42.4v-41.949h-19.549z"/>
  <path class="cls-2" d="m396.86 76.841v-19.056c-27.979 1.559-47.774 5.6615-60.697 9.4359v-37.21h-19.938v110.24h19.938v-53.19c2.5436-0.84103 6.3795-2.0513 11.569-3.2821l52.923 77.518h23.692l-55.713-81.538c7.959-1.1692 17.313-2.2154 28.226-2.9128zm362.87 13.415v-6.1538c0-17.744-13.108-26.256-26.297-26.256h-42.646v82.462h17.313v-24.615h15.2l16.533 24.615h19.569l-16.656-25.149c7.4256-1.7026 16.985-9.5795 16.985-24.903zm-29.005 10.256h-22.441v-26.892h22.441c10.585 0 13.108 4.7795 13.19 14.051 0.082 9.2718-2.7487 12.841-13.19 12.841z"/>
 </g>
</svg>
