<svg width="800" height="340.42" version="1.1" viewBox="0 0 800 340.42" xml:space="preserve" xmlns="http://www.w3.org/2000/svg"><g transform="matrix(1.3333 0 0 -1.3333 -252.18 651.83)" fill="#223986"><path d="m335.26 234.22h-8.548v41.039h8.548z"/><path d="m377.45 234.22h-6.7493l-19.379 27.337v-27.337h-8.228v41.039h8.0187l18.123-25.944v25.944h8.2147z"/><path d="m383.12 275.26h35.031v-7.5067h-13.225v-33.532h-8.604v33.532h-13.201z"/><path d="m451.64 275.26v-7.5067h-19.441v-8.9467h17.661v-7.296h-17.661v-9.7613h19.441v-7.528h-27.868v41.039z"/><path d="m466.76 256.52h7.864c4.2827 0 6.4973 2.2813 6.4973 5.7093 0 3.4293-2.2147 5.7613-6.4973 5.7613h-7.864zm0-7v-15.305h-8.5v41.04h16.903c8.6307 0 14.385-4.624 14.385-13.025 0-6.5693-3.6147-10.724-9.356-12.077l10.817-15.937h-9.6053l-10.165 15.305z"/><path d="m530.24 234.22h-6.7627l-19.355 27.337v-27.337h-8.2333v41.039h8.0333l18.1-25.944v25.944h8.2173z"/><path d="m550.03 251.33h10.027l-5.0133 13.615zm9.3453 23.928 15.707-41.039h-8.6774l-3.6707 9.8894h-15.385l-3.6027-9.8894h-8.552l15.712 41.039z"/><path d="m595.21 275.94c9.6907 0 15.651-5.7013 17.168-13.945h-8.4533c-1.4147 3.768-3.9667 6.3067-8.7147 6.3067-6.544 0-10.416-5.7453-10.416-13.579 0-7.732 3.872-13.567 10.416-13.567 4.748 0 7.3 2.5373 8.7147 6.336h8.4533c-1.5173-8.28-7.4773-13.931-17.168-13.931-10.952 0-19.107 8.612-19.107 21.161 0 12.576 8.1547 21.217 19.107 21.217"/><path d="m626.71 234.22h-8.5774v41.039h8.5774z"/><path d="m651.89 268.3c-6.472 0-10.685-5.5693-10.685-13.579 0-7.9973 4.2133-13.565 10.685-13.565 6.5533 0 10.832 5.568 10.832 13.565 0 8.0093-4.2787 13.579-10.832 13.579m0-34.74c-11.42 0-19.396 8.8973-19.396 21.161 0 12.288 7.976 21.217 19.396 21.217 11.444 0 19.456-8.9294 19.456-21.217 0-12.264-8.012-21.161-19.456-21.161"/><path d="m711.66 234.22h-6.748l-19.375 27.337v-27.337h-8.2453v41.039h8.0333l18.127-25.944v25.944h8.208z"/><path d="m731.45 251.33h10.011l-4.9987 13.615zm9.3547 23.928 15.721-41.039h-8.7134l-3.6707 9.8894h-15.391l-3.584-9.8894h-8.564l15.725 41.039z"/><path d="m761.44 275.26h8.5653v-33.511h19.129v-7.528h-27.695z"/><path d="m417.49 343.69v-22.949h-22.809v92.18h85.043c19.605 0 35.489-15.457 35.489-34.529 0-12.315-6.6173-23.151-16.585-29.148l16.585-28.503h-24.992l-13.54 22.949h-59.191m0 48.528v-27.676h60.628c7.8787 0 14.169 6.26 14.169 13.849 0 7.616-6.2907 13.827-14.169 13.827z"/><path d="m692.43 343.86v-23.113h-22.804v92.18h82.779c19.629 0 35.508-15.457 35.508-34.547 0-19.073-15.879-34.52-35.508-34.52h-59.975m0 48.364v-27.661h58.387c7.8507 0 14.14 6.2387 14.14 13.817 0 7.6293-6.2893 13.844-14.14 13.844z"/><path d="m554.91 341.42h51.783c13.747 0 24.933 11.397 24.933 25.415 0 14.005-11.187 25.409-24.933 25.409h-51.783zm52.132-20.676h-74.944v92.18h74.939c25.148 0 45.597-20.684 45.597-46.089 0-25.415-20.449-46.091-45.592-46.091"/><path d="m326.72 402.58v-71.895c0-6.4947 5.1547-11.757 11.503-11.757 6.3413 0 11.444 5.2627 11.444 11.757v71.895c0 6.5493-5.1027 11.76-11.444 11.76-6.348 0-11.503-5.2107-11.503-11.76"/><path d="m246.53 315.18v161.89c0 6.5133-5.1733 11.805-11.513 11.805-6.296 0-11.44-5.292-11.44-11.805v-161.89c0-6.5187 5.144-11.765 11.44-11.765 6.34 0 11.513 5.2467 11.513 11.765"/><path d="m189.13 435.07v-136.83c0-6.5187 5.12-11.775 11.513-11.775 6.2853 0 11.459 5.256 11.459 11.775v136.83c0 6.5147-5.1733 11.801-11.459 11.801-6.3933 0-11.513-5.2867-11.513-11.801"/><path d="m280.98 256.56v168.82c0 6.516-5.1733 11.808-11.513 11.808-6.2907 0-11.441-5.292-11.441-11.808v-168.82c0-6.5253 5.1507-11.771 11.441-11.771 6.34 0 11.513 5.2453 11.513 11.771"/><path d="m315.38 298v151.16c0 6.5187-5.1667 11.804-11.509 11.804-6.2933 0-11.441-5.2853-11.441-11.804v-151.16c0-6.52 5.148-11.773 11.441-11.773 6.3427 0 11.509 5.2533 11.509 11.773"/></g></svg>
