<svg enable-background="new 0 0 800 543.8" version="1.1" viewBox="0 0 800 543.8" xml:space="preserve" xmlns="http://www.w3.org/2000/svg">
<path d="m38.3 541.7c-18.1 0-29.7-9.9-29.7-25.6 0-12 6.6-22.3 18.8-29.5-1.8-4.1-3.5-9.6-1.8-17.7 3.3-15.3 19.3-24.3 32.8-24.3 7.9 0 14.7 2.6 19 7.6 2.8 3.1 5.7 9 4.4 18.4-0.9 6.1-3.9 10.9-7.7 14.6h20.8l-0.7 5.5c-1.7 10.4-6.1 20.2-12.9 28.4l11.4 12.9 7.4 8.1h-33l-4.6-5.2c-7.2 4.3-15.5 6.7-23.9 6.8h-0.3zm22.7-48 5.3 7.4c1.8-3.7 3.3-7.6 3.7-11.6l0.2-1.1c-2.9 2-6 3.8-9.2 5.3zm-22.5 5.5c-4.7 2.1-7.7 6.8-7.7 12 0 6.8 4.6 11.6 11.6 11.6 4.6 0 8.1-1.7 11.1-3.5-6.3-7.4-11.1-14-14.7-19.9l-0.3-0.2zm17.7-37.8c-4.6 0-8.7 3.7-9.6 8.5-1.1 5.2 0.7 8.5 2.6 11.6 7-3.3 12-6.4 12.5-12.7 0-2.2-0.6-4.6-1.8-5.9-1-1.1-2.1-1.5-3.7-1.5zm96 80.7c-22.1 0-37.8-16.2-37.8-39.1-0.8-31.1 23.8-57 55-57.7 8.7-0.2 17.3 1.6 25.2 5.2l4.4 2.2-12.3 23.4-4.4-2.6c-3.3-2-8.8-3.5-13.8-3.5-17.7 0-25.8 16.2-25.8 31.3 0 10.3 5.3 15.8 15.1 15.8 5 0 10.9-1.5 14.6-3.5l5.9-3.3 4.4 23.8-3.3 1.7c-3.7 1.8-13.6 6.1-27.3 6.1l0.1 0.2zm114.7-1.8h-27.6l7.9-37h-25.1l-7.9 36.8h-27.6l19.9-93h27.6l-7 32.1h25.2l6.8-32.1h27.6l-20.1 93.2h0.3zm181.5 0h-22.1l-22.1-44.2-9.4 44.2h-26.3l19.7-93.2h22.1l22.1 46.2 9.8-46.1h26.3l-20.1 92.7v0.4zm36.6 1.8c-7 0-17.1-1.1-26.2-6.1l-3.9-2 10.3-23.6 5 3.5c2.8 1.8 9.6 4.8 16.2 4.8 2.6 0 11.1-0.6 11.1-5.7 0-2.6-2.4-4.4-7.6-7.6l-1.3-0.9c-13.4-8.1-19.9-17.1-19.9-27.4 0-23.6 19.9-31.9 36.8-31.9h1.8c7.9 0.2 15.5 1.8 22.3 4.8l4.6 1.8-10.3 23.6-4.8-2.8c-4.1-2.6-9.6-3.9-14.7-3.9-9.2 0-9.2 2.8-9.2 3.9 0 2.2 1.8 3.7 6.6 6.6l2.2 1.3c10.3 6.8 19.7 14 19.7 27.8 0 20.8-14.9 33.5-38.9 33.5l0.2 0.3zm208.7-1.8h-22.3l-22.1-44.2-9.4 44.2h-26.3l19.7-93.2h22.1l22.1 46.2 9.8-46.1h26.3l-19.9 92.8v0.3zm38.7 1.8c-6.8 0-16.9-1.1-25.8-6.1l-4.1-2 10.3-23.6 5 3.5c2.6 1.8 9.6 4.8 16.2 4.8 2.6 0 11.1-0.6 11.1-5.7 0-2.6-2.6-4.4-7.7-7.6l-1.3-0.9c-13.3-8.1-19.9-17.1-19.9-27.4 0-23.6 19.9-31.9 36.8-31.9h2c7.9 0.2 12.7 1.8 19.5 4.8l4.6 1.8-7.7 23.6-4.6-2.8c-4.2-2.6-9.6-3.9-14.9-3.9-9.2 0-9.2 2.9-9.2 3.9 0 2.4 2.6 4.2 6.6 6.6l2.2 1.3c10.5 6.8 19.7 14 19.7 27.8 0 20.8-14.7 33.5-38.7 33.5l-0.1 0.3zm-381.7-93.9-0.4-1.1h-26.5l-52.1 93h28.6l8.7-16h24l1.8 16h28.4l-12.7-92.1 0.2 0.2zm-36.3 55.2 16.6-26.2 3.1 26.2h-19.7zm267.7-58.9c-33.2 0-52.9 30.9-52.9 60.8 0 23 13.6 36.8 36.5 36.8 33.2 0 52.9-31.1 52.9-61.2 0-22.7-13.6-36.3-36.5-36.3v-0.1zm-14.6 76.1c-8.7 0-13.1-5.5-13.1-16.6 0-15.8 7.9-38.1 25.8-38.1 8.8 0 13.1 5.5 13.1 16.2 0 16-7.9 38.5-25.8 38.5z" fill="#FEEB17" stroke="#09040A" stroke-miterlimit="10" stroke-width="1.7913"/>
<g transform="matrix(1.842 0 0 1.842 -34.262 -137.6)" fill="#E41E13">
	<path d="m94.4 228.4 11.3-12c11.4-12.2 31.8-31.9 31-56.9-0.7-25-28.7-25-28.7-25-27.3-3.7-79.5 37.1-79.5 37.1l-9.9 131 37.3-7 2-45.7 50.8 44.4 36.4-39.4-50.7-26.5zm-6.8-42.4c-1.7 17.4-27.5 31-27.5 31l1.7-28c27.1-17 25.8-3 25.8-3zm187.9 42.5s30.7-18.3 41.5-37.1c10.7-18.9 17.4-45-1.6-55.2-22.3-12-43.5-2.7-43.5-2.7-29.6 11.4-29.7 11.3-54 21.8l-4.8 28.1-21 109.7 37.1-1.6 6-49 50.5 56 44.7-20.5s-51.7-50-55-49.5h0.1zm-32.1-14.9 5-30c1.8-1.1 17-7 21.2-7s9.6 0.6 5.6 12.6-31.8 24.4-31.8 24.4z"/>
	<path d="m340.8 147.2-38 144-0.5 3.6 113-2.6 23.7-44.2-1.5-5.7-72.5 4.1 5.1-18.5 43.7-6.1 15-32s2-6-4.2-5.6c-6.1 0.6-45.2 5.7-45.2 5.7l4.1-18 53-7.7 5.6-3.6 10.8-30.4-2-3.6-104.7 15.4s-3.8 0.2-5.4 5.3v-0.1zm-186.2 5.8-18 132.2s-2.6 10.8 7.8 10.6l31.6-1s7.3 0 9.2-11.2c1.4-8.6 1.4-8.6 18.2-135 0 0 2.7-12.8-7-11.3-9.6 1.4-9.6 1.4-35 6 0 0-5 0.4-6.8 9.7z"/>
	<circle cx="180.2" cy="100.8" r="26.1"/>
</g>
</svg>
