<svg width="920.26pt" height="689.04pt" version="1.1" viewBox="0 0 920.26 689.04" xmlns="http://www.w3.org/2000/svg">
 <g transform="translate(-50.91 -200.97)" fill="#005195">
  <path d="m50.91 201h173.14c20.04-0.35 40.51 2.62 58.75 11.26 15.36 7.3 28.61 19.15 37.01 33.99 11.73 20.6 15 45.68 9.78 68.73-4.25 18.76-15.01 35.56-28.75 48.83-6.73 6.77-14.32 12.62-22.1 18.13 45.79 64.99 91.63 129.94 137.51 194.87-12.48 10.75-23.72 23.13-32.04 37.4-0.11302 0.18267-0.12899 0.27758-0.17818 0.28408l-64.182-46.398-135.49-206.09c14.75-12.06 30.81-22.79 43.38-37.28 6.83-7.85 12.9-17.18 13.74-27.82 0.65-7.29-1.81-15.27-7.95-19.67-6.48-4.63-14.7-5.75-22.46-6.23l-62.04-1.9 44.18 207.42-87.46-63.37z"/>
  <path d="m784.16 201h75.79l-27.5 163.22 62.112-87.21h76.608c-25.25 33.02-50.57 65.98-75.84 98.99l15 42.14-65.61 47.32-19.47-59.1-13.729 82.987-70.941 51.323z"/>
  <path d="m437.41 280.54c13.52-0.44 27.06 0.06 40.59 0.03 19.74 0.08 40.21 3.59 57.03 14.49 13.98 8.9 24.14 23.1 29.15 38.81 6.45 19.06 5.59 39.57 3.47 59.29-2.85 24.18-8.65 48.08-18.01 70.59-7.4 17.64-17.1 34.57-30.35 48.5-10.39 10.56-23.43 19.21-38.25 21.72-14.36 2.75-29.35-0.96-41.88-8.15-14.72-8.46-26.53-21.12-36.3-34.84-12.31-17.45-21.55-36.92-28.62-57.03-7.33-21.02-12.33-42.89-14.4-65.06-1.79-18.92 0.43-39.02 10.52-55.5 7.21-12.05 18.89-21.02 31.91-26.04 11.17-4.38 23.18-6.3 35.14-6.81m15.06 66.18c-7.5 1.34-14.83 5.63-18.13 12.73-4.59 9.56-3.07 20.47-2.08 30.64 2.51 20.33 7.76 40.65 17.96 58.56 3.72 6.04 7.83 12.51 14.37 15.8 4.35 2.05 8.72-1.16 11.56-4.25 7.13-8.05 11.32-18.19 14.63-28.29 5.74-18.34 7.96-37.73 7.19-56.9-0.62-9.07-4.16-18.75-12.21-23.74-9.85-6.11-22.18-6.18-33.29-4.55z"/>
  <path d="m680.94 285.07c15.36-0.06 30.71-0.44 46.06-0.7l11.21 63.52c-13.77 0.05-27.53 1.08-41.3 1.2-10.34 0.32-21.68 0.12-30.41 6.56-8.87 6.43-11.92 17.9-12.46 28.33-0.67 19.06 4.57 38.61 15.85 54.11 7.49 10.35 19 18.75 32.14 19.25 9.21 0.01 18.37-1.16 27.56-1.49l-22.97 64.9c-9.47 1.07-19.09 2.03-28.57 0.51-19.66-2.6-37.7-12.85-51.67-26.67-23.27-23.15-36.49-54.94-41-87.13-2.85-22.09-2.7-45.16 4.8-66.37 5.62-16.2 16.25-30.85 30.78-40.14 17.65-11.65 39.18-15.41 59.98-15.88z"/>
  <path d="m439.64 632.66c8.24-7.63 20.18-8.92 30.92-8.45 2.27 8.11 4.86 16.12 7.08 24.25-5.87 0.22-12.79-0.71-17.43 3.71-3.56 3.27-3.515 8.495-3.935 12.945h16.86v23.805h-16.86v66.045h-28.655v-66.045h-6.345v-23.805h6.345c0.06-11.66 2.95-24.425 12.02-32.455z"/>
  <path d="m482.44 665.12h85.61c8.76 0.38 18.62 1.155 25.12 7.805 6.76 7.22 7.235 17.69 7.615 27.03v55.015h-28.045v-47.945c0-5.7459 0.80219-17.58-5.81-17.58l-11.305 0.05v65.475h-28.16v-65.525l-16.935 2e-5v65.525h-28.09z"/>
 </g>
 <g transform="translate(-50.91 -200.97)">
  <path transform="scale(.75)" d="m149.06 654.65c-0.1733 6.0933-0.39872 12.173-0.33203 18.279 0.0133 26.92 1.7201 53.866 5.7734 80.492l223.52 161.84c0.46665 12.2 1.7742 24.345 3.5742 36.412-73.293-52.88-146.44-105.96-219.71-158.88 5.7733 25.667 13.639 50.853 23.186 75.359l1.1211 2.709 8.2793 6.5176 212.21 153.84c0.3746 0.5831 0.76079 1.611 1.9082 4.2246 8.1467 17.08 18.385 33.106 29.559 48.359l-150.43-108.62c13.44 31.813 32.44 61.172 55.227 87.092 53.733 61.093 127.23 102.87 205.24 124.4 82.773-32.28 182.95-31.227 266.18 0 78.013-21.533 151.51-63.307 205.24-124.4 22.787-25.92 41.786-55.278 55.226-87.092l-150.43 108.62c11.173-15.253 21.412-31.279 29.559-48.359 1.1474-2.6136 1.5336-3.6415 1.9082-4.2246l212.21-153.84 8.2792-6.5176 1.1211-2.709c9.5467-24.507 17.412-49.693 23.186-75.359-73.267 52.92-146.41 106-219.71 158.88 1.8-12.067 3.1076-24.212 3.5742-36.412l223.52-161.84c4.0533-26.627 5.7601-53.572 5.7734-80.492 0.067-6.1067-0.1606-12.186-0.3339-18.279l-336.12 242.95c4.72 39.333-3.2942 80.054-22.268 114.81-19.493 36.013-50.599 65.572-87.479 83.346-9.5232 4.6391-19.424 8.4625-29.566 11.469l-0.0273-0.029c-4.0829 1.2264-8.2083 2.3079-12.361 3.2598-0.3844 0.087-0.76743 0.1806-1.1524 0.2656-0.41447 0.092-0.83103 0.1741-1.2461 0.2637-11.607 2.4858-23.436 3.9453-35.303 4.3457-1.502 0.051-3.005 0.082-4.5078 0.1-0.73119 0.01-1.4621 0-2.1934 0-0.73124 4e-4 -1.4622 0.01-2.1934 0-1.5028-0.017-3.0058-0.049-4.5078-0.1-11.867-0.4004-23.696-1.8599-35.303-4.3457-0.41506-0.09-0.83162-0.1714-1.2461-0.2637-0.38491-0.085-0.76794-0.1783-1.1523-0.2656-4.1531-0.9519-8.2785-2.0334-12.361-3.2598l0.33203 0.1387c-10.268-3.0221-20.29-6.8841-29.926-11.578-36.88-17.773-67.987-47.332-87.48-83.346-18.973-34.76-26.986-75.481-22.266-114.81z" fill="#dd221c" stroke-width="1.3333"/>
 </g>
</svg>
