<svg width="800" height="543.65" data-name="Ebene 2" version="1.1" viewBox="0 0 800 543.65" xmlns="http://www.w3.org/2000/svg">
 <g transform="matrix(2.1538 0 0 2.1538 -2331.9 342.4)">
  <g transform="matrix(.47125 0 0 .47125 972.8 -257.94)">
   <path d="m1016.5 606.5v-358.9c-84.3-13.6-232.5-32.9-393.3-32.9-159.5 0-303.1 19-385.3 32.6v359.2c84.3 13.6 232.6 33 393.6 33 155.2-0.1 301.3-19.4 385-33" fill="#004898"/>
   <path d="m307.9 550.3-5.4 14.8h-24.6l34.1-91.7h29.8l34.1 91.7h-24.5l-5.5-14.8zm30.3-21.7-11.2-34.5-11.3 34.5z" fill="#fff"/>
   <path d="m474.4 565.1h-20.9l-37.2-46.5-4.7-7.2v53.7h-24.2v-91.7h20.6l38.5 49.4 3.7 5.7v-55.1h24.2z" fill="#fff"/>
   <path d="m542 495.1v70h-24.2v-70h-31.2v-21.8h86.5v21.8z" fill="#fff"/>
   <path d="m610.6 508.4h29.8v21.8h-29.8v13.2h52.8v21.8h-77v-91.7h77v21.8h-52.8z" fill="#fff"/>
   <path d="m767.2 565.1h-20.9l-37.2-46.5-4.7-7.2v53.7h-24.2v-91.7h20.6l38.5 49.4 3.7 5.7v-55.1h24.2z" fill="#fff"/>
   <path d="m873.2 565.1h-20.9l-37.2-46.5-4.7-7.2v53.7h-24.2v-91.7h20.6l38.5 49.4 3.7 5.7v-55.1h24.2z" fill="#fff"/>
   <path d="m915.6 508.4h29.8v21.8h-29.8v13.2h52.8v21.8h-77v-91.7h77v21.8h-52.8z" fill="#fff"/>
  </g>
  <path d="m1451.8-52.567v-88.689c-39.726-6.409-109.57-15.504-185.34-15.504-75.164 0-142.84 8.9537-181.57 15.363v88.831h366.91" clip-rule="evenodd" fill="#e6001e" stroke-linejoin="round" stroke-miterlimit="1.4142" stroke-width=".47125"/>
  <g transform="matrix(.47125 0 0 .47125 972.8 -257.94)">
   <path d="m631.5 644.1c-156.7 0-301-18-394.3-33l-4-0.6v-367.2l4-0.7c90.2-14.9 230.5-32.6 386.1-32.6 156.5 0 300.7 17.9 394.1 33l4 0.6v367l-4 0.6c-92.7 15-234.8 32.9-385.9 32.9zm-388.9-41.7c77.4 12.3 227.4 32.3 388.9 32.3 148.4 0 288-17.3 380.3-32.2v-350.9c-93.1-14.9-234.9-32.2-388.6-32.2-152.7 0-290.6 17.2-380.6 31.9z" fill="#fff"/>
   <path d="m563.5 265c-39.6 0-71.7 32.1-71.7 71.7s32.1 71.7 71.7 71.7 71.7-32.1 71.7-71.7-32.1-71.7-71.7-71.7z" fill="#fff"/>
   <path d="m457.4 347.5 18.4 52.6h-35.5l-15.5-47.3h-29.5v47.3h-33.4v-126.7h74.9c24.1 0 39.3 18.4 39.3 40.1-0.1 14.5-7 27.2-18.7 34zm-21.7-24.7c5.7 0.2 10-3.3 10-9.3s-4.3-10-10-10h-40.4v19.3z" fill="#fff"/>
   <path d="m739.2 360.3 24.7 22c-11.7 12.5-28.8 20.4-47.8 20.4-37.5 0-66.8-29.5-66.8-66 0-36.6 29.3-66 66.8-66 19 0 36.1 7.9 47.8 20.4l-24.8 21.9c-5.9-6.3-13.6-10.3-23.1-10.3-18.8 0-32.6 15-32.6 34s13.8 34 32.6 34c9.5 0.1 17.4-4 23.2-10.4z" fill="#fff"/>
   <path d="m813.1 346.2v53.8h-33.4v-126.6h33.4v51.6l44.7-51.6h43.1l-56.5 61.9 56.7 64.8h-43.1z" fill="#fff"/>
   <path d="m631 301.3-49.8 6.6-12.3-61.2-26.4 66.4-46.6 6.3 34.3 31.9-33.4 75.1 65.9-52 42.1 18.2-10.3-41.7z" fill="#004898"/>
  </g>
 </g>
 <g transform="translate(-417.67)" fill="#fff">
  <path d="m658.53 453.52h40.6c13.525 0 21.173 4.9818 21.396 17.501 0.0375 5.7576-2.5128 11.523-7.6454 14.479 6.693 3.1906 10.046 10.266 10.063 17.395 0 16.827-11.237 21.918-25.156 21.918h-39.257zm18.725 14.415v11.681h20.2c2.7975 0 4.3588-3.1947 4.3541-5.8405-5e-3 -2.6458-1.669-5.8405-4.354-5.8405zm0 26.197v16.26h20.2c4.2938 0 6.5444-3.9866 6.5444-8.13 0-4.1241-2.154-8.13-6.5444-8.13z" stroke-width="1.2546"/>
  <path class="cls-2" d="m758.24 519.92h-0.39815c-2.4705 3.961-7.8097 6.3294-14.139 6.3294-9.7902 0-16.712-6.0334-16.712-15.313 0-14.139 19.58-17.6 29.861-18.376 0-4.9513-3.3587-6.3294-7.0236-6.3294-3.665 0-10.576 1.9703-15.619 6.1253l-4.0835-12.251c4.451-3.1647 12.659-5.6352 21.061-5.6352 14.925 0 22.459 6.0334 22.459 20.867v29.606h-15.415zm-1.3884-17.896c-7.3197 0.89836-12.659 3.4608-12.659 8.606 0 3.0626 2.3786 5.1044 5.7373 5.1044 4.645 0 6.9216-3.0626 6.9216-8.5039z" stroke-width="1.0209"/>
  <path d="m838.55 479.88c4.7517-4.1306 10.461-5.4397 17.267-5.3755 9.1688 0 15.268 2.9421 18.954 7.546 5.006 6.0724 5.2569 14.453 5.0938 21.956h-31.767c0 6.276 3.3782 10.632 9.3118 10.632 3.9243 9e-3 7.0669-2.9093 8.9806-6.2279l12.985 7.0134c-6.3515 9.1736-13.195 10.832-22.972 10.819-7.006-0.0186-12.946-1.0206-18.38-6.2018-5.3488-5.206-6.9632-11.558-6.9632-19.07 0-8.1786 1.5934-15.858 7.4901-21.09m9.347 14.792h14.892c-0.35542-4.7713-2.4258-8.934-7.4462-8.9734-5.2897 0-6.9783 4.2662-7.4462 8.9734z" stroke-width="1.2546"/>
  <path class="cls-2" d="m911.43 495.91a10.976 10.976 0 0 0 0.10206-1.8787c0-3.4612-1.021-5.3399-3.7573-5.3399-2.4708 0-3.9513 1.4805-3.9513 5.105v31.049h-16.898v-48.906h15.315v4.9417h0.39821c1.0925-2.9712 5.442-6.4324 10.874-6.4324 6.6263 0 12.66 3.4612 12.66 13.651a39.544 39.544 0 0 1-0.29609 4.4516z" stroke-width="1.021"/>
  <path class="cls-2" d="m945.41 475.86v4.7511h0.41891c2.1865-3.2594 5.64-6.2326 12.261-6.2326 12.261 0 18.708 5.64 18.708 19.597v30.867h-16.828v-28.691c0-6.437-1.6757-8.9096-5.9364-8.9096-3.852 0-5.9363 2.1763-5.9363 8.0207v29.58h-16.818v-48.982z" stroke-width="1.0217"/>
  <path d="m776.84 476.03h18.769l8.0359 32.319 8.0359-32.319h18.343l-18.292 48.403c-2.3045 5.7753-5.5256 11.917-10.525 15.772-3.6345 2.9383-7.5868 3.4415-11.936 3.4415-4.2167 0.024-8.4203-0.57835-12.317-2.3011l2.9233-13.713c2.1078 1.3424 3.7811 3.1491 6.8377 3.1491 2.0695 0 3.4139-0.48701 4.7243-1.6186 1.8915-1.6334 2.9308-4.2462 1.8123-6.7372z" stroke-width="1.2546"/>
 </g>
</svg>
