<?xml version="1.0" encoding="UTF-8"?>
<svg id="svg91" width="143.85" height="176.52" version="1.1" viewBox="0 0 143.85 176.52" xmlns="http://www.w3.org/2000/svg" xmlns:cc="http://creativecommons.org/ns#" xmlns:dc="http://purl.org/dc/elements/1.1/" xmlns:rdf="http://www.w3.org/1999/02/22-rdf-syntax-ns#">
 <metadata id="metadata97">
  <rdf:RDF>
   <cc:Work rdf:about="">
    <dc:format>image/svg+xml</dc:format>
    <dc:type rdf:resource="http://purl.org/dc/dcmitype/StillImage"/>
    <dc:title/>
   </cc:Work>
  </rdf:RDF>
 </metadata>
 <mask id="a" fill="#fff">
  <path id="path2" d="m0.06 0.617h264.56v207.38h-264.56z" fill="#fff" fill-rule="evenodd"/>
 </mask>
 <path id="path5-6" d="m27.387 0c-1.557 0-2.9189 0.31059-4.0898 0.93359-1.171 0.622-2.1001 1.5147-2.7871 2.6777-0.688 1.161-1.0975 2.4456-1.2285 3.8496-0.13 1.405-0.19531 3.7939-0.19531 7.1699v5.75c0 3.459 0.0691 5.8807 0.20508 7.2637 0.136 1.385 0.56329 2.6638 1.2793 3.8398 0.716 1.176 1.6619 2.0585 2.8379 2.6465 1.176 0.587 2.5015 0.88281 3.9785 0.88281 1.558 0 2.9228-0.31159 4.0938-0.93359 1.17-0.624 2.0972-1.5157 2.7852-2.6777 0.688-1.163 1.0975-2.4466 1.2285-3.8516 0.13-1.404 0.19727-3.7929 0.19727-7.1699v-5.75c0-3.459-0.0701-5.8807-0.20508-7.2637-0.137-1.384-0.5633-2.6619-1.2793-3.8379-0.717-1.177-1.6609-2.0594-2.8379-2.6484-1.176-0.588-2.5044-0.88086-3.9824-0.88086zm19.143 0c-1.557 0-2.9329 0.32184-4.1309 0.96484-1.198 0.644-2.1356 1.5255-2.8106 2.6465-0.676 1.12-1.0828 2.287-1.2188 3.498-0.136 1.209-0.20508 3.0263-0.20508 5.4473v9.8164c0 3.293 0.2221 5.7594 0.66406 7.3984 0.443 1.641 1.346 2.9236 2.709 3.8496 1.363 0.927 3.0962 1.3926 5.1973 1.3926 2.022 0 3.7216-0.54858 5.1016-1.6426s2.2698-2.3673 2.6738-3.8203c0.402-1.454 0.60546-3.9195 0.60546-7.3945v-1.3066h-7.1855v4.2168c0 1.843-0.0792 3.0118-0.24219 3.5098-0.163 0.499-0.51006 0.74805-1.0391 0.74805-0.552 0-0.9065-0.24809-1.0625-0.74609-0.158-0.498-0.23828-1.5643-0.23828-3.1973v-15.605c0-1.701 0.0803-2.8083 0.23828-3.3203 0.156-0.513 0.52928-0.76758 1.1133-0.76758 0.518 1e-6 0.85194 0.21181 1.0039 0.63281 0.152 0.422 0.22657 1.4835 0.22657 3.1855v5.8535h7.1855v-3.1973c0-3.141-0.21743-5.4544-0.64843-6.9414-0.432-1.489-1.334-2.7296-2.709-3.7266-1.374-0.997-3.1165-1.4941-5.2285-1.4941zm-46.049 0.70703v33.598h7.1836v-15.139c0.981 0 1.5874 0.21453 1.8184 0.64453 0.23 0.429 0.34574 1.5409 0.3457 3.3379v11.156h6.6738v-8.8535c0-2.711-0.0597-4.3668-0.17968-4.9668-0.119-0.602-0.42311-1.2615-0.91211-1.9805-0.488-0.719-1.4423-1.2917-2.8633-1.7207 1.569-0.18 2.6203-0.72114 3.1543-1.6191 0.535-0.902 0.80078-2.6594 0.80078-5.2754 0-2.867-0.37681-4.9547-1.1328-6.2637-0.755-1.308-1.7326-2.1205-2.9316-2.4395-1.198-0.319-3.4929-0.47852-6.8789-0.47852zm57.219 0v33.598h7.1836v-14.402l2.9199 14.402h7.4004l-4.5-18.428 4.1016-15.17h-6.7285l-3.1934 13.055v-13.055zm18.738 0v33.598h11.531v-6.7285h-4.3477v-26.869zm16.176 0-3.6621 33.598h7.4356l0.41211-6.041h2.5606l0.38281 6.041h7.3516l-4.1055-33.598zm15.709 0v33.598h6.002v-15.273l3.7266 15.273h6.293v-33.598h-6.002v15.127l-4.0176-15.127zm18.908 0v33.598h9.0527c1.716 0 2.9986-0.11575 3.8516-0.34375 0.852-0.228 1.5684-0.62717 2.1484-1.2012s0.98575-1.3717 1.2188-2.3887 0.35157-3.0328 0.35157-6.0488v-11.766c0-3.18-0.0812-5.3163-0.24024-6.4023-0.159-1.085-0.55636-2.072-1.1934-2.957-0.636-0.886-1.5651-1.5212-2.7871-1.9082-1.222-0.388-3.5672-0.58203-7.0332-0.58203zm-99.809 4.9805c0.43999 0 0.73204 0.2193 0.87304 0.6543 0.142 0.436 0.21094 1.435 0.21094 2.998v15.439c0 1.979-0.0671 3.2318-0.20313 3.7578-0.135 0.525-0.44464 0.78711-0.93164 0.78711-0.474 0-0.77625-0.22759-0.90625-0.68359-0.13-0.457-0.19531-1.6603-0.19531-3.6113v-15.689c0-1.729 0.0989-2.7691 0.29688-3.1211 0.198-0.353 0.48247-0.53125 0.85547-0.53125zm-19.758 0.77344c0.823 0 1.3882 0.167 1.6992 0.5 0.309 0.332 0.46485 1.0336 0.46484 2.0996v1.8496c1e-5 1.482-0.16142 2.357-0.48242 2.627-0.321 0.271-0.88164 0.40625-1.6816 0.40625zm126.75 0c0.78 0 1.3108 0.10173 1.5938 0.30273 0.282 0.201 0.46297 0.51536 0.54297 0.94336 0.078 0.429 0.11719 1.4018 0.11719 2.9238v13.045c0 2.24-0.11747 3.6122-0.35547 4.1172-0.237 0.504-0.86944 0.75781-1.8984 0.75781zm-36.324 1.7383c0.368 5.604 0.72908 10.306 1.0801 14.109h-2.4414c0.189-2.971 0.64132-7.6734 1.3613-14.109zm-98.09 30.916v97.283h143.75v-97.283zm128.91 101.87c-2.651 0-4.9728 0.31722-6.9648 0.94922-1.993 0.631-3.5732 1.5378-4.7442 2.7168-1.17 1.18-1.8659 2.4832-2.0879 3.9082-0.224 1.424-0.33398 3.8494-0.33398 7.2754v5.834c0 3.512 0.11466 5.969 0.34766 7.373 0.231 1.405 0.95678 2.7035 2.1758 3.8965 1.218 1.195 2.8281 2.0885 4.8301 2.6855s4.2623 0.89649 6.7773 0.89649c2.65 0 4.9709-0.31527 6.9629-0.94727 1.993-0.632 3.5731-1.5388 4.7441-2.7188 1.17-1.179 1.8678-2.4812 2.0898-3.9062s0.33399-3.8523 0.33399-7.2793v-5.834c0-3.511-0.11666-5.9671-0.34766-7.3711-0.233-1.404-0.95873-2.7025-2.1777-3.8965-1.218-1.193-2.8281-2.0895-4.8301-2.6875-2.003-0.597-4.2614-0.89453-6.7754-0.89453zm-128.12 0.71485v34.107h12.186v-15.389c1.68 0 2.7192 0.2183 3.1152 0.6543 0.396 0.435 0.59375 1.5666 0.59375 3.3926v11.342h11.35v-9.002c0-2.753-0.10168-4.4378-0.30468-5.0488-0.202-0.611-0.71979-1.2827-1.5508-2.0137-0.831-0.73-2.4551-1.314-4.8711-1.75 2.667-0.182 4.4553-0.72862 5.3633-1.6406 0.908-0.913 1.3633-2.6957 1.3633-5.3477 0-2.905-0.64373-5.0216-1.9277-6.3476-1.285-1.326-2.9473-2.1497-4.9863-2.4727-2.038-0.323-5.9364-0.48437-11.693-0.48437zm36.562 0-6.2109 34.107h12.631l0.70704-6.1348h4.3672l0.6543 6.1348h12.486l-7.0117-34.107zm27.881 0v34.107h15.391c2.918 0 5.1018-0.11666 6.5508-0.34766 1.449-0.232 2.6693-0.63966 3.6543-1.2227 0.98501-0.582 1.6763-1.3898 2.0723-2.4238 0.396-1.032 0.59375-3.0796 0.59375-6.1406v-11.943c0-3.23-0.13625-5.397-0.40625-6.5-0.271-1.103-0.9483-2.102-2.0293-3-1.082-0.9-2.6603-1.5464-4.7383-1.9394-2.078-0.394-6.063-0.58984-11.957-0.58984zm32.811 0v34.107h12.186v-34.107zm30.928 5.0488c0.766 0 1.2716 0.22207 1.5176 0.66407s0.36914 1.4579 0.36914 3.0449v15.684c0 2.009-0.11751 3.2795-0.35351 3.8125-0.236 0.535-0.77805 0.80274-1.623 0.80274-0.826 0-1.3511-0.23232-1.5781-0.69532-0.226-0.463-0.33789-1.687-0.33789-3.668v-15.936c0-1.756 0.17258-2.8129 0.51758-3.1719 0.343-0.358 0.83928-0.53711 1.4883-0.53711zm-116 0.79297c1.41 0 2.3811 0.16986 2.9121 0.50586 0.532 0.336 0.79687 1.0431 0.79687 2.1211v1.8692c0 1.499-0.27428 2.3842-0.82421 2.6562-0.55201 0.274-1.5138 0.41015-2.8848 0.41015zm64.441 0c1.346 0 2.264 0.10364 2.752 0.30664s0.79955 0.52299 0.93555 0.95899c0.137 0.434 0.20507 1.4228 0.20507 2.9668v13.242c0 2.273-0.20523 3.6667-0.61523 4.1777-0.41 0.513-1.5013 0.76953-3.2773 0.76953zm-30.744 1.7578c0.62898 5.689 1.2381 10.462 1.8281 14.318h-4.1348c0.314-3.012 1.0826-7.7844 2.3066-14.318z" fill="#0d0813" fill-rule="evenodd"/>
 <g id="g1106" fill="#ffe511" fill-rule="evenodd">
  <path id="path59-7" d="m49.324 115.26h18.914v-3.277h-18.914z"/>
  <path id="path61-4" d="m49.324 121.63h18.914v-3.094h-18.914z"/>
  <path id="path63-5" d="m8.0036 127.95h29.535v-3.049h-29.535z"/>
  <path id="path65-4" d="m8.0036 121.63h29.535v-3.094h-29.535z"/>
  <path id="path67-5" d="m49.324 127.56h18.914v-2.661h-18.914z"/>
  <path id="path69-3" d="m8.0036 115.26h29.535v-3.277h-29.535z"/>
  <path id="path71-4" d="m75.803 121.63h18.915v-3.094h-18.915z"/>
  <path id="path73-5" d="m75.803 115.26h18.915v-3.277h-18.915z"/>
  <path id="path75-5" d="m106.5 121.63h29.536v-3.094h-29.536z"/>
  <path id="path77-1" d="m106.5 115.26h29.536v-3.277h-29.536z"/>
  <path id="path79-4" d="m75.803 127.56h18.915v-2.656h-18.915z"/>
  <path id="path81-0" d="m106.5 127.94h29.536v-3.043h-29.536z"/>
  <path id="path83-8" d="m49.978 60.887v17.33s-11.202 1.457-11.421-4.587v-7.937s-0.654-5.971 11.421-4.806zm-12.439 36.045c0-7.72 11.785-6.117 11.785-6.117v17.888h18.914v-60.559l-39.429 0.437c-20.514 1.311-19.205 12.961-19.205 12.961v14.127c0.436 9.466 16.732 10.194 16.732 10.194-19.205 0.583-18.332 12.962-18.332 12.962v9.878h29.535z"/>
  <path id="path85-8" d="m94.711 61.081c12.076-1.165 11.421 4.806 11.421 4.806v7.937c-0.218 6.044-11.421 4.587-11.421 4.587zm7e-3 29.727s11.784-1.602 11.784 6.117v11.778h29.536v-9.885s0.873-12.379-18.333-12.962c0 0 16.296-0.727 16.732-10.193v-14.127s1.31-11.651-19.205-12.962l-39.429-0.436v60.565h18.915z"/>
 </g>
</svg>
