<svg id="a" clip-rule="evenodd" fill-rule="evenodd" stroke-linejoin="round" stroke-miterlimit="1.4142" version="1.1" viewBox="0 0 371.44 204.57" xml:space="preserve" xmlns="http://www.w3.org/2000/svg">
    <g id="b" transform="matrix(.47125 0 0 .47125 -109.9 -98.962)">
            <path id="c" d="m1016.5 606.5v-358.9c-84.3-13.6-232.5-32.9-393.3-32.9-159.5 0-303.1 19-385.3 32.6v359.2c84.3 13.6 232.6 33 393.6 33 155.2-0.1 301.3-19.4 385-33" fill="#004898" fill-rule="nonzero"/>
        </g><g id="d" transform="matrix(.47125 0 0 .47125 -109.9 -98.962)">
            <path id="e" d="m307.9 550.3-5.4 14.8h-24.6l34.1-91.7h29.8l34.1 91.7h-24.5l-5.5-14.8zm30.3-21.7-11.2-34.5-11.3 34.5z" fill="#fff" fill-rule="nonzero"/>
        </g><g id="f" transform="matrix(.47125 0 0 .47125 -109.9 -98.962)">
            <path id="g" d="m474.4 565.1h-20.9l-37.2-46.5-4.7-7.2v53.7h-24.2v-91.7h20.6l38.5 49.4 3.7 5.7v-55.1h24.2z" fill="#fff" fill-rule="nonzero"/>
        </g><g id="h" transform="matrix(.47125 0 0 .47125 -109.9 -98.962)">
            <path id="i" d="m542 495.1v70h-24.2v-70h-31.2v-21.8h86.5v21.8z" fill="#fff" fill-rule="nonzero"/>
        </g><g id="j" transform="matrix(.47125 0 0 .47125 -109.9 -98.962)">
            <path id="k" d="m610.6 508.4h29.8v21.8h-29.8v13.2h52.8v21.8h-77v-91.7h77v21.8h-52.8z" fill="#fff" fill-rule="nonzero"/>
        </g><g id="l" transform="matrix(.47125 0 0 .47125 -109.9 -98.962)">
            <path id="m" d="m767.2 565.1h-20.9l-37.2-46.5-4.7-7.2v53.7h-24.2v-91.7h20.6l38.5 49.4 3.7 5.7v-55.1h24.2z" fill="#fff" fill-rule="nonzero"/>
        </g><g id="n" transform="matrix(.47125 0 0 .47125 -109.9 -98.962)">
            <path id="o" d="m873.2 565.1h-20.9l-37.2-46.5-4.7-7.2v53.7h-24.2v-91.7h20.6l38.5 49.4 3.7 5.7v-55.1h24.2z" fill="#fff" fill-rule="nonzero"/>
        </g><g id="p" transform="matrix(.47125 0 0 .47125 -109.9 -98.962)">
            <path id="q" d="m915.6 508.4h29.8v21.8h-29.8v13.2h52.8v21.8h-77v-91.7h77v21.8h-52.8z" fill="#fff" fill-rule="nonzero"/>
        </g><path id="r" d="m369.13 106.41v-88.689c-39.726-6.409-109.57-15.504-185.34-15.504-75.164 0-142.84 8.9537-181.57 15.363v88.831h366.91" clip-rule="evenodd" fill="#e6001e" fill-rule="nonzero" stroke-linejoin="round" stroke-miterlimit="1.4142" stroke-width=".47125"/><g id="s" transform="matrix(.47125 0 0 .47125 -109.9 -98.962)">
            <path id="t" d="m631.5 644.1c-156.7 0-301-18-394.3-33l-4-0.6v-367.2l4-0.7c90.2-14.9 230.5-32.6 386.1-32.6 156.5 0 300.7 17.9 394.1 33l4 0.6v367l-4 0.6c-92.7 15-234.8 32.9-385.9 32.9zm-388.9-41.7c77.4 12.3 227.4 32.3 388.9 32.3 148.4 0 288-17.3 380.3-32.2v-350.9c-93.1-14.9-234.9-32.2-388.6-32.2-152.7 0-290.6 17.2-380.6 31.9z" fill="#fff" fill-rule="nonzero"/>
        </g><g id="u" transform="matrix(.47125 0 0 .47125 -109.9 -98.962)">
            <path id="v" d="m563.5 265c-39.6 0-71.7 32.1-71.7 71.7s32.1 71.7 71.7 71.7 71.7-32.1 71.7-71.7-32.1-71.7-71.7-71.7z" fill="#fff" fill-rule="nonzero"/>
        </g><g id="w" transform="matrix(.47125 0 0 .47125 -109.9 -98.962)">
            <path id="x" d="m457.4 347.5 18.4 52.6h-35.5l-15.5-47.3h-29.5v47.3h-33.4v-126.7h74.9c24.1 0 39.3 18.4 39.3 40.1-0.1 14.5-7 27.2-18.7 34zm-21.7-24.7c5.7 0.2 10-3.3 10-9.3s-4.3-10-10-10h-40.4v19.3z" fill="#fff" fill-rule="nonzero"/>
        </g><g id="y" transform="matrix(.47125 0 0 .47125 -109.9 -98.962)">
            <path id="z" d="m739.2 360.3 24.7 22c-11.7 12.5-28.8 20.4-47.8 20.4-37.5 0-66.8-29.5-66.8-66 0-36.6 29.3-66 66.8-66 19 0 36.1 7.9 47.8 20.4l-24.8 21.9c-5.9-6.3-13.6-10.3-23.1-10.3-18.8 0-32.6 15-32.6 34s13.8 34 32.6 34c9.5 0.1 17.4-4 23.2-10.4z" fill="#fff" fill-rule="nonzero"/>
        </g><g id="aa" transform="matrix(.47125 0 0 .47125 -109.9 -98.962)">
            <path id="ab" d="m813.1 346.2v53.8h-33.4v-126.6h33.4v51.6l44.7-51.6h43.1l-56.5 61.9 56.7 64.8h-43.1z" fill="#fff" fill-rule="nonzero"/>
        </g><g id="ac" transform="matrix(.47125 0 0 .47125 -109.9 -98.962)">
            <path id="ad" d="m631 301.3-49.8 6.6-12.3-61.2-26.4 66.4-46.6 6.3 34.3 31.9-33.4 75.1 65.9-52 42.1 18.2-10.3-41.7z" fill="#004898" fill-rule="nonzero"/>
        </g>
</svg>
