<svg width="800" height="279.74" version="1.1" viewBox="0 0 800 279.74" xmlns="http://www.w3.org/2000/svg">
 <g transform="matrix(9.3928 0 0 9.3928 -2.8005 -3.5635)" fill-rule="evenodd">
  <path d="m54.264 0.37939h31.207v29.782h-31.207z" fill="#fff"/>
  <path d="m57.792 3.7465h18.485v5.4063h-18.485z" fill="#0078bc"/>
  <path d="m63.457 12.567h12.821v5.4063h-12.821z" fill="#0078bc"/>
  <path d="m63.457 21.388h12.821v5.4063h-12.821z" fill="#0078bc"/>
  <path d="m57.792 12.567h5.6649v14.227h-5.6649z" fill="#1d4287"/>
  <path d="m76.277 3.7465h5.6649v23.048h-5.6649z" fill="#1d4287"/>
  <path d="m4.2238 30.067h-3.9257v-29.687h8.4973c6.609 0 10.634 3.2723 10.634 8.6312 0 3.3197-1.5901 6.0229-4.4723 7.493-1.4908 0.75878-2.8821 1.0908-5.7146 1.233l12.075 12.33h-4.9692l-12.075-12.473v12.473zm3.9257-14.986c4.7207 0 7.255-2.0392 7.255-5.7857 0-3.6991-2.3355-5.6909-6.609-5.6909h-4.5717v11.477z" fill="#fff"/>
  <path d="m30.362 30.067h-3.9257v-29.687h8.2986c7.3544 0 11.429 3.2248 11.429 9.058 0 2.9403-1.1926 5.5486-3.3294 7.2085-1.8386 1.3753-4.2238 2.0392-7.7022 2.0392h-4.8201v11.382zm4.025-14.559c1.6895 0 2.7827-0.14227 3.876-0.52166 2.3852-0.75878 3.9257-2.8929 3.9257-5.4538 0-2.5135-1.4908-4.6001-3.9754-5.4063-1.1926-0.37939-2.4846-0.56909-4.3232-0.56909h-3.5281v11.951z" fill="#fff"/>
 </g>
</svg>
