<svg space="preserve" version="1.1" viewBox="0 0 105 75" xmlns="http://www.w3.org/2000/svg">
 <link id="a" href="" rel="stylesheet" type="text/css"/>
 <style id="b" type="text/css"/>
 <rect x="-.013" y=".017" width="105.09" height="75" fill="#DF111F"/>
 <g fill="#fff">
  <polyline points="71.998 65.435 94.459 65.435 94.459 55.985 83.889 55.985 83.893 10.265 71.99 10.264"/>
  <path d="m41.487 20.309c0.385 1.428 0.488 2.604 0.488 3.839 0 7.382-4.404 12.401-7.778 12.547 3.374 0 7.926 4.276 7.926 10.478v12.258c0.145 2.062 0.441 3.395 2.494 6.053h-11.596c-1.321-1.039-2.348-2.955-2.348-5.467v-14.609c0-3.844-3.233-5.613-7.193-5.023v25.1h-12.33v-55.213h18.494c5.146 0.083 8.264 2.628 10.133 5.942l-2e-3 -5.942h31.111v10.039h-9.246v45.173h-12.179l-0.02-45.175m-25.812 6.791v5.168c4.696 0.146 7.045-1.822 7.045-6.792 0-4.873-2.495-6.347-7.045-6.347v13.139"/>
 </g>
</svg>
