<?xml version="1.0" encoding="UTF-8"?>
<svg id="svg69" width="800" height="800" version="1.1" viewBox="0 0 800 800" xmlns="http://www.w3.org/2000/svg" xmlns:cc="http://creativecommons.org/ns#" xmlns:dc="http://purl.org/dc/elements/1.1/" xmlns:rdf="http://www.w3.org/1999/02/22-rdf-syntax-ns#" xmlns:xlink="http://www.w3.org/1999/xlink">
 <metadata id="metadata73">
  <rdf:RDF>
   <cc:Work rdf:about="">
    <dc:format>image/svg+xml</dc:format>
    <dc:type rdf:resource="http://purl.org/dc/dcmitype/StillImage"/>
    <dc:title/>
   </cc:Work>
  </rdf:RDF>
 </metadata>
 <defs id="defs20">
  <radialGradient id="a" cx="16.083" cy="15.715" r="11.421" gradientTransform="scale(1.0222 .97827)" gradientUnits="userSpaceOnUse">
   <stop id="stop2" stop-color="#E10814" offset="0"/>
   <stop id="stop4" stop-color="#A51008" offset=".985"/>
   <stop id="stop6" stop-color="#A6100A" offset="1"/>
  </radialGradient>
  <radialGradient id="b" cx="7.3974" cy="4.9707" r="20.019" gradientTransform="scale(1.0222 .97827)" gradientUnits="userSpaceOnUse">
   <stop id="stop9" stop-color="#FFF" offset="0"/>
   <stop id="stop11" stop-color="#E10814" offset="1"/>
  </radialGradient>
  <path id="c" d="m2.79 26.29 0.27 0.27 0.17 0.18 0.3 0.27 0.12 0.1 0.23 0.18a9.48 9.48 0 0 0 2.4 1.34l0.24 0.1 0.7 0.22c0.58 0.16 1.07 0.26 1.54 0.33l0.14 0.02c0.1 0 0.19 0.02 0.28 0.03l0.64 0.06 0.66 0.03h0.1c0.66 0 1.21-0.03 1.73-0.1a17.56 17.56 0 0 0 3.86-0.85l0.4-0.14 0.1-0.04 0.48-0.18 0.3-0.13 0.67-0.28a21.4 21.4 0 0 0 1.9-0.99 24.75 24.75 0 0 0 3.55-2.54l0.28-0.25 0.53-0.49 0.06-0.05 0.72-0.72a24.17 24.17 0 0 0 1.43-1.64 21.04 21.04 0 0 0 1.24-1.74c0.14-0.2 0.26-0.42 0.39-0.62l0.16-0.28 0.17-0.3 0.08-0.16 0.05-0.08c0.07-0.12 0.14-0.25 0.2-0.39l0.22-0.45 0.14-0.3 0.07-0.16c0.12-0.25 0.22-0.5 0.32-0.75l0.07-0.18a16.95 16.95 0 0 0 0.92-3.65l0.07-0.66 0.04-0.64v-0.42a11.94 11.94 0 0 0-0.23-2.3l-0.06-0.24a9.46 9.46 0 0 0-0.98-2.56 2.62 2.62 0 0 0-0.24-0.4 6.87 6.87 0 0 1-0.07-0.1l-0.15-0.23-0.15-0.2a3.95 3.95 0 0 0-0.23-0.3l-0.34-0.4-0.01 0.02v-0.01l-0.33-0.4a3.99 3.99 0 0 0-0.27-0.26 12.04 12.04 0 0 1-0.17-0.18 2.5 2.5 0 0 0-0.21-0.19l-0.1-0.08-0.11-0.1a2.6 2.6 0 0 0-0.24-0.19 9.48 9.48 0 0 0-1.99-1.17 7.44 7.44 0 0 0-0.4-0.17l-0.25-0.08a23 23 0 0 0-0.7-0.22 11.76 11.76 0 0 0-1.55-0.33l-0.14-0.02-0.27-0.04-0.64-0.05-0.66-0.03h-0.1c-0.67 0-1.22 0.03-1.73 0.09a17.55 17.55 0 0 0-3.87 0.86l-0.4 0.14-0.25 0.1-0.32 0.12-0.3 0.12c-0.22 0.1-0.45 0.19-0.67 0.3-0.68 0.3-1.35 0.66-1.9 0.97a24.8 24.8 0 0 0-3.56 2.55l-0.28 0.25-0.52 0.48-0.07 0.07a24.11 24.11 0 0 0-2.13 2.34c-0.42 0.54-0.86 1.12-1.25 1.74l-0.38 0.62-0.17 0.28-0.16 0.3-0.09 0.15-0.04 0.08a7.6 7.6 0 0 0-0.2 0.38l-0.23 0.46-0.13 0.3a15.43 15.43 0 0 1-0.08 0.16l-0.31 0.76-0.07 0.17a16.96 16.96 0 0 0-0.58 1.85 15.28 15.28 0 0 0-0.35 1.8l-0.06 0.67-0.04 0.63a8.2 8.2 0 0 0 0 0.28v0.14a11.93 11.93 0 0 0 0.23 2.3l0.06 0.24a9.46 9.46 0 0 0 0.98 2.57 2.68 2.68 0 0 0 0.24 0.39l0.06 0.1c0.05 0.09 0.1 0.16 0.16 0.23l0.15 0.2 0.23 0.3 0.34 0.4z"/>
  <radialGradient id="e" cx="13.548" cy="5.0983" r="7.2714" gradientTransform="scale(1.0219 .97856)" gradientUnits="userSpaceOnUse">
   <stop id="stop15" stop-color="#F5CEBE" stop-opacity=".7" offset="0"/>
   <stop id="stop17" stop-color="#E10814" offset="1"/>
  </radialGradient>
 </defs>
 <g id="g67" transform="scale(25)" fill="none" fill-rule="evenodd">
  <path id="path22" d="m0 0h32v32h-32z" fill="#e10814" fill-rule="nonzero"/>
  <g id="g30" fill-rule="nonzero">
   <path id="path24" d="m3.43 27.6a4.07 4.07 0 0 0 0.44 0.45l0.3 0.27 0.12 0.1 0.23 0.18a9.48 9.48 0 0 0 2.4 1.34l0.24 0.1 0.7 0.22c0.57 0.16 1.06 0.26 1.54 0.33l0.14 0.02 0.28 0.03 0.64 0.06 0.65 0.03h0.1c0.67 0 1.22-0.03 1.74-0.09a17.56 17.56 0 0 0 3.86-0.86l0.4-0.14 0.09-0.03 0.17-0.07 0.32-0.12 0.3-0.13c0.22-0.09 0.45-0.18 0.66-0.28a21.4 21.4 0 0 0 1.9-0.99 24.75 24.75 0 0 0 3.56-2.54l0.28-0.25 0.53-0.49 0.05-0.05c0.24-0.23 0.5-0.47 0.72-0.72a24.17 24.17 0 0 0 1.44-1.64 21.04 21.04 0 0 0 1.24-1.74c0.14-0.2 0.26-0.41 0.38-0.62l0.17-0.28 0.16-0.3 0.09-0.16 0.04-0.08 0.2-0.38 0.23-0.45 0.14-0.3 0.07-0.17c0.12-0.24 0.21-0.5 0.31-0.74l0.07-0.19a17.03 17.03 0 0 0 0.93-3.65l0.07-0.66 0.03-0.64v-0.41a11.77 11.77 0 0 0-0.23-2.3l-0.05-0.26a9.46 9.46 0 0 0-0.99-2.56c-0.04-0.1-0.1-0.18-0.15-0.26a4.12 4.12 0 0 1-0.08-0.13 6.87 6.87 0 0 1-0.07-0.1c-0.05-0.09-0.1-0.17-0.16-0.24l-0.14-0.2a3.95 3.95 0 0 0-0.24-0.3l-0.33-0.39-0.02 0.01 0.01-0.01-0.34-0.39a3.99 3.99 0 0 0-0.26-0.27 12.04 12.04 0 0 1-0.18-0.18 2.5 2.5 0 0 0-0.2-0.19l-0.1-0.08-0.11-0.1a2.6 2.6 0 0 0-0.24-0.18 9.48 9.48 0 0 0-2-1.18 7.44 7.44 0 0 0-0.4-0.16l-0.23-0.1a23 23 0 0 0-0.7-0.22 11.76 11.76 0 0 0-1.55-0.33l-0.14-0.02-0.27-0.03-0.64-0.06-0.66-0.03h-0.11c-0.66 0-1.21 0.03-1.73 0.09a17.55 17.55 0 0 0-3.86 0.86l-0.4 0.14-0.25 0.1-0.33 0.12-0.3 0.12c-0.22 0.1-0.45 0.19-0.66 0.3a21 21 0 0 0-1.9 0.98 24.8 24.8 0 0 0-3.56 2.54l-0.28 0.25-0.53 0.48-0.06 0.07a24.11 24.11 0 0 0-2.15 2.35 21 21 0 0 0-1.24 1.74c-0.14 0.2-0.26 0.41-0.38 0.62l-0.17 0.28-0.16 0.3-0.09 0.15-0.04 0.08a7.6 7.6 0 0 0-0.2 0.38l-0.23 0.46-0.14 0.3a15.43 15.43 0 0 1-0.07 0.16c-0.12 0.25-0.22 0.5-0.31 0.76l-0.07 0.17a16.96 16.96 0 0 0-0.58 1.85 15.28 15.28 0 0 0-0.35 1.81l-0.07 0.66-0.03 0.63a8.2 8.2 0 0 0 0 0.28v0.14a11.93 11.93 0 0 0 0.23 2.3l0.05 0.24a9.46 9.46 0 0 0 0.99 2.57 2.68 2.68 0 0 0 0.23 0.39l0.07 0.1c0.05 0.09 0.1 0.16 0.16 0.23l0.14 0.2c0.09 0.12 0.16 0.22 0.24 0.3l0.34 0.4 0.34 0.39z" fill="#000"/>
   <path id="path26" transform="translate(.64 1.31)" d="m2.79 26.29 0.27 0.27 0.17 0.18 0.3 0.27 0.12 0.1 0.23 0.18a9.48 9.48 0 0 0 2.4 1.34l0.24 0.1 0.7 0.22c0.58 0.16 1.07 0.26 1.54 0.33l0.14 0.02c0.1 0 0.19 0.02 0.28 0.03l0.64 0.06 0.66 0.03h0.1c0.66 0 1.21-0.03 1.73-0.1a17.56 17.56 0 0 0 3.86-0.85l0.4-0.14 0.1-0.04 0.48-0.18 0.3-0.13 0.67-0.28a21.4 21.4 0 0 0 1.9-0.99 24.75 24.75 0 0 0 3.55-2.54l0.28-0.25 0.53-0.49 0.06-0.05 0.72-0.72a24.17 24.17 0 0 0 1.43-1.64 21.04 21.04 0 0 0 1.24-1.74c0.14-0.2 0.26-0.42 0.39-0.62l0.16-0.28 0.17-0.3 0.08-0.16 0.05-0.08c0.07-0.12 0.14-0.25 0.2-0.39l0.22-0.45 0.14-0.3 0.07-0.16c0.12-0.25 0.22-0.5 0.32-0.75l0.07-0.18a16.95 16.95 0 0 0 0.92-3.65l0.07-0.66 0.04-0.64v-0.42a11.94 11.94 0 0 0-0.23-2.3l-0.06-0.24a9.46 9.46 0 0 0-0.98-2.56 2.62 2.62 0 0 0-0.24-0.4 6.87 6.87 0 0 1-0.07-0.1l-0.15-0.23-0.15-0.2a3.95 3.95 0 0 0-0.23-0.3l-0.34-0.4-0.01 0.02v-0.01l-0.33-0.4a3.99 3.99 0 0 0-0.27-0.26 12.04 12.04 0 0 1-0.17-0.18 2.5 2.5 0 0 0-0.21-0.19l-0.1-0.08-0.11-0.1a2.6 2.6 0 0 0-0.24-0.19 9.48 9.48 0 0 0-1.99-1.17 7.44 7.44 0 0 0-0.4-0.17l-0.25-0.08a23 23 0 0 0-0.7-0.22 11.76 11.76 0 0 0-1.55-0.33l-0.14-0.02-0.27-0.04-0.64-0.05-0.66-0.03h-0.1c-0.67 0-1.22 0.03-1.73 0.09a17.55 17.55 0 0 0-3.87 0.86l-0.4 0.14-0.25 0.1-0.32 0.12-0.3 0.12c-0.22 0.1-0.45 0.19-0.67 0.3-0.68 0.3-1.35 0.66-1.9 0.97a24.8 24.8 0 0 0-3.56 2.55l-0.28 0.25-0.52 0.48-0.07 0.07a24.11 24.11 0 0 0-2.13 2.34c-0.42 0.54-0.86 1.12-1.25 1.74l-0.38 0.62-0.17 0.28-0.16 0.3-0.09 0.15-0.04 0.08a7.6 7.6 0 0 0-0.2 0.38l-0.23 0.46-0.13 0.3a15.43 15.43 0 0 1-0.08 0.16l-0.31 0.76-0.07 0.17a16.96 16.96 0 0 0-0.58 1.85 15.28 15.28 0 0 0-0.35 1.8l-0.06 0.67-0.04 0.63a8.2 8.2 0 0 0 0 0.28v0.14a11.93 11.93 0 0 0 0.23 2.3l0.06 0.24a9.46 9.46 0 0 0 0.98 2.57 2.68 2.68 0 0 0 0.24 0.39l0.06 0.1c0.05 0.09 0.1 0.16 0.16 0.23l0.15 0.2 0.23 0.3 0.34 0.4z" fill="url(#a)"/>
   <path id="path28" transform="translate(.64 1.31)" d="m2.79 26.29 0.27 0.27 0.17 0.18 0.3 0.27 0.12 0.1 0.23 0.18a9.48 9.48 0 0 0 2.4 1.34l0.24 0.1 0.7 0.22c0.58 0.16 1.07 0.26 1.54 0.33l0.14 0.02c0.1 0 0.19 0.02 0.28 0.03l0.64 0.06 0.66 0.03h0.1c0.66 0 1.21-0.03 1.73-0.1a17.56 17.56 0 0 0 3.86-0.85l0.4-0.14 0.1-0.04 0.48-0.18 0.3-0.13 0.67-0.28a21.4 21.4 0 0 0 1.9-0.99 24.75 24.75 0 0 0 3.55-2.54l0.28-0.25 0.53-0.49 0.06-0.05 0.72-0.72a24.17 24.17 0 0 0 1.43-1.64 21.04 21.04 0 0 0 1.24-1.74c0.14-0.2 0.26-0.42 0.39-0.62l0.16-0.28 0.17-0.3 0.08-0.16 0.05-0.08c0.07-0.12 0.14-0.25 0.2-0.39l0.22-0.45 0.14-0.3 0.07-0.16c0.12-0.25 0.22-0.5 0.32-0.75l0.07-0.18a16.95 16.95 0 0 0 0.92-3.65l0.07-0.66 0.04-0.64v-0.42a11.94 11.94 0 0 0-0.23-2.3l-0.06-0.24a9.46 9.46 0 0 0-0.98-2.56 2.62 2.62 0 0 0-0.24-0.4 6.87 6.87 0 0 1-0.07-0.1l-0.15-0.23-0.15-0.2a3.95 3.95 0 0 0-0.23-0.3l-0.34-0.4-0.01 0.02v-0.01l-0.33-0.4a3.99 3.99 0 0 0-0.27-0.26 12.04 12.04 0 0 1-0.17-0.18 2.5 2.5 0 0 0-0.21-0.19l-0.1-0.08-0.11-0.1a2.6 2.6 0 0 0-0.24-0.19 9.48 9.48 0 0 0-1.99-1.17 7.44 7.44 0 0 0-0.4-0.17l-0.25-0.08a23 23 0 0 0-0.7-0.22 11.76 11.76 0 0 0-1.55-0.33l-0.14-0.02-0.27-0.04-0.64-0.05-0.66-0.03h-0.1c-0.67 0-1.22 0.03-1.73 0.09a17.55 17.55 0 0 0-3.87 0.86l-0.4 0.14-0.25 0.1-0.32 0.12-0.3 0.12c-0.22 0.1-0.45 0.19-0.67 0.3-0.68 0.3-1.35 0.66-1.9 0.97a24.8 24.8 0 0 0-3.56 2.55l-0.28 0.25-0.52 0.48-0.07 0.07a24.11 24.11 0 0 0-2.13 2.34c-0.42 0.54-0.86 1.12-1.25 1.74l-0.38 0.62-0.17 0.28-0.16 0.3-0.09 0.15-0.04 0.08a7.6 7.6 0 0 0-0.2 0.38l-0.23 0.46-0.13 0.3a15.43 15.43 0 0 1-0.08 0.16l-0.31 0.76-0.07 0.17a16.96 16.96 0 0 0-0.58 1.85 15.28 15.28 0 0 0-0.35 1.8l-0.06 0.67-0.04 0.63a8.2 8.2 0 0 0 0 0.28v0.14a11.93 11.93 0 0 0 0.23 2.3l0.06 0.24a9.46 9.46 0 0 0 0.98 2.57 2.68 2.68 0 0 0 0.24 0.39l0.06 0.1c0.05 0.09 0.1 0.16 0.16 0.23l0.15 0.2 0.23 0.3 0.34 0.4z" fill="url(#b)" style="mix-blend-mode:luminosity"/>
  </g>
  <g id="g41" transform="translate(.64 1.31)">
   <mask id="d" fill="#fff">
    <use id="use32" width="100%" height="100%" xlink:href="#c"/>
   </mask>
   <g id="g39" mask="url(#d)">
    <path id="path35" d="m28.74 17.9h-2.35c-0.58 0-0.33-0.3-0.22-0.51 0.11-0.23 0.47-0.71 1.6-2.65 1.13-1.93 1.44-3.72 1.03-5.12-0.4-1.4-1.79-1.5-3.13-1.27a7.75 7.75 0 0 0-2.74 1.21l-0.24 1.52c3.34-1.8 4-0.34 4.1 0.58 0.08 0.92-0.2 1.56-0.87 2.89a90.3 90.3 0 0 1-3.23 5.2h4.88l1.17-1.84z" fill="#fffffe"/>
    <path id="path37" d="m28.74 17.9h-2.35c-0.58 0-0.33-0.3-0.22-0.51 0.11-0.23 0.47-0.71 1.6-2.65 1.13-1.93 1.44-3.72 1.03-5.12-0.4-1.4-1.79-1.5-3.13-1.27a7.75 7.75 0 0 0-2.74 1.21l-0.24 1.52c3.34-1.8 4-0.34 4.1 0.58 0.08 0.92-0.2 1.56-0.87 2.89a90.3 90.3 0 0 1-3.23 5.2h4.88l1.17-1.84z" fill="#000" fill-rule="nonzero"/>
   </g>
  </g>
  <g id="g47" fill-rule="nonzero" opacity=".85">
   <path id="path43" d="m4.2 26.88 0.42 0.42 0.2 0.18 0.09 0.07 0.1 0.1 0.22 0.17a8.89 8.89 0 0 0 2.26 1.26l0.21 0.08 0.66 0.22c0.54 0.14 1 0.24 1.45 0.3l0.39 0.06 0.6 0.05 0.62 0.02h0.1a16.5 16.5 0 0 0 5.24-0.89l0.38-0.13 0.24-0.09 0.3-0.11 0.28-0.12c0.2-0.09 0.42-0.17 0.62-0.27 0.64-0.28 1.27-0.63 1.79-0.92a23.2 23.2 0 0 0 3.33-2.39l0.26-0.23 0.5-0.46 0.05-0.05c0.22-0.22 0.46-0.44 0.67-0.67a22.67 22.67 0 0 0 2.51-3.17l0.36-0.58 0.16-0.27 0.15-0.28 0.09-0.15 0.04-0.07 0.19-0.37 0.2-0.42 0.14-0.28 0.06-0.15c0.11-0.23 0.2-0.47 0.3-0.7l0.06-0.17a15.76 15.76 0 0 0 0.87-3.43l0.07-0.62 0.03-0.6a7.43 7.43 0 0 0 0-0.25v-0.14c0-0.44-0.03-0.91-0.1-1.48a21.14 21.14 0 0 0-0.12-0.68l-0.05-0.22a8.87 8.87 0 0 0-0.92-2.4l-0.15-0.25-0.07-0.12a6.45 6.45 0 0 1-0.07-0.1l-0.14-0.22-0.14-0.18-0.22-0.28-0.64-0.74a3.74 3.74 0 0 0-0.25-0.25 11.3 11.3 0 0 1-0.16-0.17 2.35 2.35 0 0 0-0.2-0.18l-0.09-0.07-0.1-0.1a8.9 8.9 0 0 0-2.09-1.27l-0.39-0.16a14.39 14.39 0 0 1-0.22-0.08 21.57 21.57 0 0 0-0.65-0.22 11.03 11.03 0 0 0-1.45-0.3l-0.14-0.02c-0.08-0.01-0.16-0.03-0.25-0.03l-0.6-0.06-0.62-0.02h-0.1a16.45 16.45 0 0 0-5.63 1.02l-0.22 0.09-0.3 0.11-0.29 0.12a20.12 20.12 0 0 0-2.41 1.2 23.26 23.26 0 0 0-3.33 2.37l-0.26 0.23a14.69 14.69 0 0 0-0.5 0.46l-0.06 0.06a22.61 22.61 0 0 0-2.01 2.2 19.75 19.75 0 0 0-1.17 1.63l-0.35 0.58-0.32 0.54-0.08 0.15-0.04 0.08a7.12 7.12 0 0 0-0.18 0.35l-0.22 0.43a7.7 7.7 0 0 0-0.13 0.29l-0.06 0.15c-0.11 0.23-0.2 0.47-0.3 0.7l-0.06 0.17c-0.25 0.67-0.42 1.22-0.55 1.73a14.33 14.33 0 0 0-0.32 1.7l-0.07 0.61-0.03 0.6a7.69 7.69 0 0 0 0 0.26v0.13a11.01 11.01 0 0 0 0.22 2.17l0.05 0.22a8.87 8.87 0 0 0 0.92 2.4l0.15 0.25 0.07 0.12 0.07 0.1c0.04 0.08 0.09 0.15 0.14 0.21l0.14 0.2c0.08 0.1 0.15 0.2 0.22 0.27l0.64 0.74z" fill="#e10814"/>
   <path id="path45" transform="translate(1.56,2.2)" d="m2.64 24.67 0.25 0.26 0.17 0.16 0.2 0.18 0.08 0.08c0.04 0.02 0.07 0.06 0.1 0.09l0.23 0.17a8.89 8.89 0 0 0 2.25 1.26c0.07 0.03 0.15 0.05 0.22 0.09l0.66 0.2c0.54 0.16 1 0.25 1.45 0.31l0.13 0.02 0.25 0.04 0.6 0.05 0.62 0.03h0.1a16.5 16.5 0 0 0 5.24-0.89l0.38-0.14 0.09-0.03 0.16-0.06a9.1 9.1 0 0 0 0.58-0.23 20.39 20.39 0 0 0 2.4-1.2 23.2 23.2 0 0 0 3.34-2.37l0.25-0.24c0.18-0.15 0.34-0.3 0.5-0.46l0.06-0.05c0.22-0.22 0.46-0.44 0.67-0.67a22.43 22.43 0 0 0 2.51-3.17l0.36-0.58 0.16-0.27 0.15-0.27 0.08-0.15 0.04-0.08 0.2-0.36 0.2-0.42 0.13-0.29 0.07-0.15 0.3-0.7 0.06-0.17a15.76 15.76 0 0 0 0.87-3.43l0.06-0.61 0.03-0.6a7.43 7.43 0 0 0 0-0.26v-0.13c0-0.45-0.02-0.92-0.1-1.49a21.14 21.14 0 0 0-0.11-0.67l-0.05-0.23a8.87 8.87 0 0 0-0.93-2.4c-0.04-0.1-0.1-0.17-0.14-0.25l-0.08-0.12a6.45 6.45 0 0 1-0.06-0.1l-0.15-0.21-0.14-0.2c-0.08-0.1-0.14-0.2-0.21-0.27l-0.32-0.37h-0.01l-0.31-0.37a3.74 3.74 0 0 0-0.25-0.25 11.3 11.3 0 0 1-0.16-0.17 2.35 2.35 0 0 0-0.2-0.17l-0.09-0.08-0.1-0.1a8.9 8.9 0 0 0-2.1-1.27l-0.38-0.16a14.39 14.39 0 0 1-0.22-0.08 21.57 21.57 0 0 0-0.65-0.21 11.03 11.03 0 0 0-1.45-0.31l-0.14-0.02-0.25-0.03-0.6-0.06-0.62-0.02h-0.1a16.45 16.45 0 0 0-5.24 0.89l-0.39 0.13-0.23 0.09-0.3 0.11-0.28 0.12a20.08 20.08 0 0 0-2.41 1.2 23.26 23.26 0 0 0-3.34 2.38l-0.26 0.23a14.69 14.69 0 0 0-0.49 0.46l-0.06 0.06a22.61 22.61 0 0 0-2.01 2.2 19.75 19.75 0 0 0-1.17 1.63l-0.36 0.58-0.16 0.27-0.15 0.28-0.08 0.15-0.04 0.07a7.12 7.12 0 0 0-0.19 0.36l-0.21 0.43a7.7 7.7 0 0 0-0.13 0.28l-0.07 0.15-0.3 0.7-0.06 0.17c-0.24 0.67-0.42 1.22-0.54 1.74a14.33 14.33 0 0 0-0.33 1.7l-0.06 0.6-0.03 0.6a7.69 7.69 0 0 0 0 0.26v0.14a11.2 11.2 0 0 0 0.21 2.16l0.05 0.22a8.87 8.87 0 0 0 0.93 2.4c0.04 0.1 0.1 0.17 0.14 0.25l0.08 0.12 0.06 0.1 0.15 0.22 0.14 0.18 0.22 0.29 0.31 0.37 0.01-0.01z" fill="url(#e)"/>
  </g>
  <path id="path49" d="m29.28 19.22h-2.25c-0.58-0.02-0.34-0.3-0.22-0.52 0.1-0.22 0.47-0.7 1.6-2.64 1.12-1.94 1.44-3.73 1.03-5.13-0.4-1.4-1.8-1.5-3.14-1.27a7.73 7.73 0 0 0-2.73 1.22l-0.24 1.5c3.34-1.78 4-0.33 4.1 0.6 0.08 0.91-0.2 1.55-0.87 2.88a90.3 90.3 0 0 1-3.23 5.21h4.83a37.72 37.72 0 0 0 1.12-1.85z" fill="#fffffe"/>
  <path id="path51" d="m29.28 19.22h-2.25c-0.58-0.02-0.34-0.3-0.22-0.52 0.1-0.22 0.47-0.7 1.6-2.64 1.12-1.94 1.44-3.73 1.03-5.13-0.4-1.4-1.8-1.5-3.14-1.27a7.73 7.73 0 0 0-2.73 1.22l-0.24 1.5c3.34-1.78 4-0.33 4.1 0.6 0.08 0.91-0.2 1.55-0.87 2.88a90.3 90.3 0 0 1-3.23 5.21h4.83a37.72 37.72 0 0 0 1.12-1.85z" fill="#fff" fill-rule="nonzero"/>
  <path id="path53" d="m22.97 21.08h-5.44l1.72-11.25h2.14s-1.2 7.74-1.23 8.1c-0.08 0.68-0.22 1.5 0.9 1.54 0.48 0.02 2.1 0.04 2.1 0.04z" fill="#fffffe"/>
  <path id="path55" d="m22.97 21.08h-5.44l1.72-11.25h2.14s-1.2 7.74-1.23 8.1c-0.08 0.68-0.22 1.5 0.9 1.54 0.48 0.02 2.1 0.04 2.1 0.04z" fill="#fff" fill-rule="nonzero"/>
  <path id="path57" d="m16.01 13.11c-0.11 0.81-1.22 7.97-1.22 7.97h-2.29l1.48-9.62c0.02-0.16-0.05-0.25-0.25-0.25h-1.9l0.22-1.38h6.52l-0.24 1.39c-2.12-0.02-2.18 0.92-2.32 1.9" fill="#fffffe"/>
  <path id="path59" d="m16.01 13.11c-0.11 0.81-1.22 7.97-1.22 7.97h-2.29l1.48-9.62c0.02-0.16-0.05-0.25-0.25-0.25h-1.9l0.22-1.38h6.52l-0.24 1.39c-2.12-0.02-2.18 0.92-2.32 1.9" fill="#fff" fill-rule="nonzero"/>
  <g id="g65">
   <path id="path61" d="m4.77 10.07a169.65 169.65 0 0 0-1.79 11.01h2.14l1.48-9.78h1.67c0.46 0 0.91 1 0.82 2.04-0.1 1.03-0.72 2.23-2.66 2.53l-0.2 1.36c0.52 0.05 1.26 0.55 2.06 1.67 0.79 1.11 1.18 2 1.18 2.18h2.35c0-0.43-0.85-2-1.3-2.7-0.46-0.69-1.18-1.72-1.75-2.04 0 0 2.33-0.95 2.64-2.95 0.3-2-0.14-3.56-2.72-3.56h-3.49c-0.25 0-0.4 0.08-0.43 0.25z" fill="#fffffe"/>
   <path id="path63" d="m4.77 10.07a169.65 169.65 0 0 0-1.79 11.01h2.14l1.48-9.78h1.67c0.46 0 0.91 1 0.82 2.04-0.1 1.03-0.72 2.23-2.66 2.53l-0.2 1.36c0.52 0.05 1.26 0.55 2.06 1.67 0.79 1.11 1.18 2 1.18 2.18h2.35c0-0.43-0.85-2-1.3-2.7-0.46-0.69-1.18-1.72-1.75-2.04 0 0 2.33-0.95 2.64-2.95 0.3-2-0.14-3.56-2.72-3.56h-3.49c-0.25 0-0.4 0.08-0.43 0.25z" fill="#fff" fill-rule="nonzero"/>
  </g>
 </g>
</svg>
