<svg width="800" height="800" enable-background="new 0 0 1599.999 900" version="1.1" viewBox="0 0 800 800" xml:space="preserve" xmlns="http://www.w3.org/2000/svg">
<rect width="800" height="800" fill="#e20613" stroke-width="1.5064"/><g transform="matrix(1.5064 0 0 1.5064 -800.73 -279.68)" fill="#fff">
			<path d="m702.39 315.8-5.428 40.998c-7.444-1.021-17.269-2.373-25.731-2.373-17.614 0-29.468 13.217-29.468 33.492v97.918h-46.393v-124.64c0-8.142-3.385-12.199-10.501-12.199h-4.74v-33.195c9.824-1.359 19.314-2.003 30.147-2.003 18.628 0 27.758 10.803 27.758 26.404v4.737l1.361 0.346c8.125-19.327 20.313-31.486 41.312-31.486 6.768-2e-3 14.227 0.641 21.683 2.001z"/>
			<path d="m892 317.16 37.033 115.82h1.357l34.585-115.83h48.435l-65.073 168.67h-41.999l-54.245-134.12h-69.738v74.861c0 18.941 9.146 27.752 26.744 27.752 3.743 0 9.492-0.344 13.213-0.673l-3.037 33.181c-11.182 0.673-23.036 1.361-34.221 1.361-33.181 0-49.443-19.642-49.443-51.822v-84.66h-23.017l3.712-34.536h21.343v-28.788l44.707-5.423v34.211h109.64"/>
		</g><g transform="matrix(1.5064 0 0 1.5064 -800.73 -279.68)" fill="#fff">
			<path d="m698.41 557.89-1.921 14.523c-2.634-0.355-6.123-0.845-9.12-0.845-6.244 0-10.452 4.684-10.452 11.896v34.691h-16.446v-44.179c0-2.887-1.202-4.332-3.725-4.332h-1.672v-11.753c3.476-0.49 6.837-0.714 10.674-0.714 6.612 0 9.854 3.831 9.854 9.349v1.687l0.474 0.124c2.881-6.846 7.206-11.16 14.653-11.16 2.405-1e-3 5.047 0.223 7.681 0.713z"/>
			<path d="m744.42 601.71 13.332 5.155c-5.048 7.933-13.932 12.609-25.458 12.609-17.772 0-28.334-11.998-28.334-29.657 0-17.527 11.645-32.642 29.415-32.642 18.255 0 26.182 12.236 26.182 30.729v2.148c-12.73 0.732-25.343 1.336-38.069 1.932v1.669c0 7.578 4.68 13.586 11.886 13.586 5.172 0 8.769-2.177 11.046-5.529zm-22.931-18.618 21.607-1.445c0-6.718-3.12-11.874-9.96-11.874-7.326 0-11.17 6.118-11.647 13.319z"/>
			<path d="m826.8 578.17v39.983h-16.572v-35.061c0-6.843-3.128-11.888-10.199-11.888-6.724 0-11.169 4.932-11.169 12.258v34.691h-16.57v-59.668h14.53l1.798 9.964h0.481c4.206-6.846 10.093-11.274 19.091-11.274 12.371-1e-3 18.61 8.635 18.61 20.995z"/>
			<path d="m846.03 600.62v-30.015h-8.163l1.325-12.247h7.563v-10.209l15.851-1.925v12.134h14.899v12.247h-14.899v26.525c0 6.736 3.249 9.85 9.48 9.85 1.321 0 3.359-0.121 4.684-0.234l-1.079 11.771c-3.97 0.234-8.167 0.472-12.122 0.472-11.78-1e-3 -17.539-6.964-17.539-18.369z"/>
			<path d="m945.22 577.45v40.703h-16.561v-35.416c0-7.446-3.494-12.368-10.333-12.368-6.853 0-11.284 4.922-11.284 12.368v35.416h-16.572v-85.252h16.327v34.71h0.486c4.435-6.737 10.205-11.171 19.214-11.171 12.36 0 18.723 8.646 18.723 21.01z"/>
			<path d="m998.19 601.71 13.345 5.155c-5.053 7.933-13.937 12.609-25.46 12.609-17.776 0-28.34-11.998-28.34-29.657 0-17.527 11.654-32.642 29.415-32.642 18.251 0 26.184 12.236 26.184 30.729v2.148c-12.73 0.732-25.339 1.336-38.069 1.932v1.669c0 7.578 4.684 13.586 11.885 13.586 5.167 0 8.771-2.177 11.04-5.529zm-22.924-18.618 21.603-1.445c0-6.718-3.107-11.874-9.96-11.874-7.322 0-11.164 6.118-11.643 13.319z"/>
				<path d="m623.92 619-1.165-6.528-0.816-0.114c-4.889 4.779-10.598 8.039-19.106 8.039-13.744 0-22.599-8.734-22.599-30.992 0-23.418 11.764-32.262 24.697-32.262 6.755 0 12.002 2.32 16.429 5.591v-17.706c0-1.175-0.468-1.983-1.519-2.334l-6.405-2.217 1.279-9.433h23.42v75.724c0 1.749 0.112 1.979 1.863 2.21l5.593 0.82v9.202zm-3.258-44.849c-2.915-1.983-6.645-3.502-10.021-3.502-8.622 0-12.003 8.046-12.003 18.413 0 11.303 3.266 17.593 10.606 17.593 3.959 0 8.268-2.338 11.418-5.009z"/>
		</g>
</svg>
