<svg width="800" height="451.49" version="1.1" viewBox="0 0 800 451.49" xml:space="preserve" xmlns="http://www.w3.org/2000/svg"><g transform="matrix(1.3333 0 0 -1.3333 -57.834 580.66)"><g transform="matrix(7.0332 0 0 7.0332 77.634 435.5)"><path d="m0 0c-2.69 0-4.871-2.181-4.871-4.872v-38.403c0-2.69 2.181-4.871 4.871-4.871h75.568c2.69 0 4.871 2.181 4.871 4.871v38.403c0 2.691-2.181 4.872-4.871 4.872z" fill="#eb1c26"/></g><g transform="matrix(7.0332 0 0 7.0332 -261.69 -584.48)"><g transform="translate(51.134 120.04)"><path d="m0 0c0 0.209 0.062 0.359 0.186 0.449s0.244 0.136 0.361 0.136h0.632c0.318 0 0.557-0.167 0.716-0.499 0.174-0.362 0.55-0.542 1.131-0.542l1.858-0.037c0.623 0 0.935 0.203 0.935 0.61 0 0.166-0.106 0.31-0.316 0.43-0.211 0.121-0.486 0.221-0.826 0.3-0.339 0.08-0.715 0.16-1.125 0.239-0.411 0.08-0.819 0.18-1.224 0.3-0.406 0.12-0.778 0.262-1.118 0.424-0.339 0.164-0.614 0.387-0.825 0.672-0.21 0.285-0.316 0.621-0.316 1.007 0 0.711 0.253 1.259 0.759 1.642 0.506 0.385 1.377 0.576 2.612 0.576l1.349-0.031c0.725 0 1.379-0.187 1.962-0.56 0.582-0.374 0.873-0.84 0.873-1.399 0-0.209-0.062-0.359-0.186-0.452-0.124-0.092-0.242-0.137-0.356-0.137h-0.632c-0.318 0-0.557 0.167-0.716 0.504-0.174 0.361-0.551 0.542-1.131 0.542l-1.598 0.031c-0.623 0-0.935-0.203-0.935-0.61 0-0.223 0.198-0.406 0.593-0.547 0.394-0.142 0.872-0.266 1.432-0.375 0.562-0.108 1.125-0.238 1.692-0.389 0.566-0.153 1.047-0.403 1.441-0.752 0.395-0.348 0.592-0.783 0.592-1.303 0-0.712-0.254-1.26-0.762-1.644-0.508-0.383-1.377-0.576-2.609-0.576l-1.609 0.032c-0.725 0-1.38 0.187-1.964 0.56-0.584 0.374-0.876 0.84-0.876 1.399" fill="#fff"/></g><g transform="translate(51.134 120.04)"><path d="m0 0c0 0.209 0.062 0.359 0.186 0.449s0.244 0.136 0.361 0.136h0.632c0.318 0 0.557-0.167 0.716-0.499 0.174-0.362 0.55-0.542 1.131-0.542l1.858-0.037c0.623 0 0.935 0.203 0.935 0.61 0 0.166-0.106 0.31-0.316 0.43-0.211 0.121-0.486 0.221-0.826 0.3-0.339 0.08-0.715 0.16-1.125 0.239-0.411 0.08-0.819 0.18-1.224 0.3-0.406 0.12-0.778 0.262-1.118 0.424-0.339 0.164-0.614 0.387-0.825 0.672-0.21 0.285-0.316 0.621-0.316 1.007 0 0.711 0.253 1.259 0.759 1.642 0.506 0.385 1.377 0.576 2.612 0.576l1.349-0.031c0.725 0 1.379-0.187 1.962-0.56 0.582-0.374 0.873-0.84 0.873-1.399 0-0.209-0.062-0.359-0.186-0.452-0.124-0.092-0.242-0.137-0.356-0.137h-0.632c-0.318 0-0.557 0.167-0.716 0.504-0.174 0.361-0.551 0.542-1.131 0.542l-1.598 0.031c-0.623 0-0.935-0.203-0.935-0.61 0-0.223 0.198-0.406 0.593-0.547 0.394-0.142 0.872-0.266 1.432-0.375 0.562-0.108 1.125-0.238 1.692-0.389 0.566-0.153 1.047-0.403 1.441-0.752 0.395-0.348 0.592-0.783 0.592-1.303 0-0.712-0.254-1.26-0.762-1.644-0.508-0.383-1.377-0.576-2.609-0.576l-1.609 0.032c-0.725 0-1.38 0.187-1.964 0.56-0.584 0.374-0.876 0.84-0.876 1.399z" fill="none" stroke="#fff" stroke-miterlimit="10" stroke-width=".194"/></g><g transform="translate(61.022 118.98)"><path d="m0 0s-0.164 0.157-0.493 0.47c-0.328 0.313-0.492 1.125-0.492 2.437 0 1.311 0.329 2.281 0.985 2.909s1.64 0.943 2.953 0.943h1.184c0.803 0 1.514-0.209 2.131-0.627 0.618-0.418 0.926-0.989 0.926-1.714 0-0.209-0.061-0.359-0.185-0.449-0.124-0.091-0.244-0.135-0.362-0.135h-0.631c-0.325 0-0.579 0.194-0.759 0.584-0.262 0.559-0.697 0.838-1.305 0.838h-0.945c-0.775 0-1.301-0.166-1.577-0.499s-0.413-0.948-0.413-1.848c0-0.898 0.137-1.516 0.413-1.849 0.276-0.335 0.802-0.502 1.577-0.502h1.056c0.609 0 1.042 0.279 1.3 0.839 0.18 0.393 0.435 0.589 0.765 0.589h0.632c0.063 0 0.131-0.013 0.204-0.04 0.072-0.026 0.147-0.089 0.223-0.186s0.113-0.218 0.113-0.363c0-0.726-0.307-1.297-0.923-1.713-0.615-0.416-1.325-0.624-2.128-0.624h-1.296c-1.313 0-2.297 0.314-2.953 0.94" fill="#fff"/></g><g transform="translate(61.022 118.98)"><path d="m0 0s-0.164 0.157-0.493 0.47c-0.328 0.313-0.492 1.125-0.492 2.437 0 1.311 0.329 2.281 0.985 2.909s1.64 0.943 2.953 0.943h1.184c0.803 0 1.514-0.209 2.131-0.627 0.618-0.418 0.926-0.989 0.926-1.714 0-0.209-0.061-0.359-0.185-0.449-0.124-0.091-0.244-0.135-0.362-0.135h-0.631c-0.325 0-0.579 0.194-0.759 0.584-0.262 0.559-0.697 0.838-1.305 0.838h-0.945c-0.775 0-1.301-0.166-1.577-0.499s-0.413-0.948-0.413-1.848c0-0.898 0.137-1.516 0.413-1.849 0.276-0.335 0.802-0.502 1.577-0.502h1.056c0.609 0 1.042 0.279 1.3 0.839 0.18 0.393 0.435 0.589 0.765 0.589h0.632c0.063 0 0.131-0.013 0.204-0.04 0.072-0.026 0.147-0.089 0.223-0.186s0.113-0.218 0.113-0.363c0-0.726-0.307-1.297-0.923-1.713-0.615-0.416-1.325-0.624-2.128-0.624h-1.296c-1.313 0-2.297 0.314-2.953 0.94z" fill="none" stroke="#fff" stroke-miterlimit="10" stroke-width=".194"/></g><g transform="translate(69.483 118.59)"><path d="m0 0v6.61c0 0.138 0.05 0.257 0.148 0.356 0.099 0.099 0.222 0.149 0.367 0.149h0.987c0.138 0 0.256-0.05 0.354-0.149 0.096-0.099 0.145-0.218 0.145-0.356v-2.389h3.653v2.389c0 0.138 0.049 0.257 0.148 0.356 0.1 0.099 0.218 0.149 0.357 0.149h0.987c0.145 0 0.267-0.05 0.363-0.149 0.098-0.099 0.147-0.218 0.147-0.356v-6.61c0-0.138-0.051-0.256-0.152-0.353s-0.22-0.146-0.358-0.146h-0.987c-0.139 0-0.257 0.047-0.357 0.14-0.099 0.095-0.148 0.21-0.148 0.349v2.729h-3.653v-2.729c0-0.139-0.049-0.254-0.145-0.349-0.098-0.093-0.216-0.14-0.354-0.14h-0.987c-0.138 0-0.258 0.049-0.361 0.146s-0.154 0.215-0.154 0.353" fill="#fff"/></g><g transform="translate(69.483 118.59)"><path d="m0 0v6.61c0 0.138 0.05 0.257 0.148 0.356 0.099 0.099 0.222 0.149 0.367 0.149h0.987c0.138 0 0.256-0.05 0.354-0.149 0.096-0.099 0.145-0.218 0.145-0.356v-2.389h3.653v2.389c0 0.138 0.049 0.257 0.148 0.356 0.1 0.099 0.218 0.149 0.357 0.149h0.987c0.145 0 0.267-0.05 0.363-0.149 0.098-0.099 0.147-0.218 0.147-0.356v-6.61c0-0.138-0.051-0.256-0.152-0.353s-0.22-0.146-0.358-0.146h-0.987c-0.139 0-0.257 0.047-0.357 0.14-0.099 0.095-0.148 0.21-0.148 0.349v2.729h-3.653v-2.729c0-0.139-0.049-0.254-0.145-0.349-0.098-0.093-0.216-0.14-0.354-0.14h-0.987c-0.138 0-0.258 0.049-0.361 0.146s-0.154 0.215-0.154 0.353z" fill="none" stroke="#fff" stroke-miterlimit="10" stroke-width=".194"/></g><g transform="translate(78.728 118.58)"><path d="m0 0v6.61c0 0.144 0.05 0.267 0.148 0.366 0.099 0.1 0.218 0.149 0.356 0.149h0.998c0.138 0 0.256-0.049 0.353-0.149 0.097-0.099 0.146-0.222 0.146-0.366v-5.597h5.701c0.138 0 0.139-9e-3 0.236-0.108 0.098-0.1 0.263-0.258 0.263-0.396l-0.293-0.594c0-0.137-0.098-0.171-0.195-0.268-0.098-0.098-0.394-0.136-0.532-0.136h-6.677c-0.138 0-0.257 0.047-0.356 0.141-0.098 0.094-0.148 0.209-0.148 0.348" fill="#fff"/></g><g transform="translate(78.728 118.58)"><path d="m0 0v6.61c0 0.144 0.05 0.267 0.148 0.366 0.099 0.1 0.218 0.149 0.356 0.149h0.998c0.138 0 0.256-0.049 0.353-0.149 0.097-0.099 0.146-0.222 0.146-0.366v-5.597h5.701c0.138 0 0.139-9e-3 0.236-0.108 0.098-0.1 0.263-0.258 0.263-0.396l-0.293-0.594c0-0.137-0.098-0.171-0.195-0.268-0.098-0.098-0.394-0.136-0.532-0.136h-6.677c-0.138 0-0.257 0.047-0.356 0.141-0.098 0.094-0.148 0.209-0.148 0.348z" fill="none" stroke="#fff" stroke-miterlimit="10" stroke-width=".194"/></g><g transform="translate(85.45 118.58)"><path d="m0 0 1.332 5.054c0.361 1.377 1.536 2.067 3.525 2.071h2.86c0.131 0 0.241-0.049 0.327-0.149 0.087-0.099 0.13-0.214 0.13-0.345v-6.631c0-0.139-0.049-0.254-0.149-0.348-0.099-0.094-0.217-0.141-0.355-0.141h-0.998c-0.145 0-0.265 0.047-0.358 0.141-0.094 0.094-0.141 0.213-0.141 0.358v1.338h-3.774l-0.355-1.338c-0.036-0.145-0.116-0.264-0.239-0.358-0.124-0.094-0.255-0.141-0.393-0.141h-1.046c-0.137 0-0.242 0.048-0.313 0.144-0.05 0.063-0.074 0.136-0.074 0.217 3e-3 0.039 0.01 0.082 0.021 0.128m2.792 2.85h3.381v2.772h-1.512c-0.34 0-0.637-0.096-0.89-0.289s-0.423-0.452-0.512-0.777z" fill="#fff"/></g><g transform="translate(85.45 118.58)"><path d="m0 0 1.332 5.054c0.361 1.377 1.536 2.067 3.525 2.071h2.86c0.131 0 0.241-0.049 0.327-0.149 0.087-0.099 0.13-0.214 0.13-0.345v-6.631c0-0.139-0.049-0.254-0.149-0.348-0.099-0.094-0.217-0.141-0.355-0.141h-0.998c-0.145 0-0.265 0.047-0.358 0.141-0.094 0.094-0.141 0.213-0.141 0.358v1.338h-3.774l-0.355-1.338c-0.036-0.145-0.116-0.264-0.239-0.358-0.124-0.094-0.255-0.141-0.393-0.141h-1.046c-0.137 0-0.242 0.048-0.313 0.144-0.05 0.063-0.074 0.136-0.074 0.217 3e-3 0.039 0.01 0.082 0.021 0.128zm2.792 2.85h3.381v2.772h-1.512c-0.34 0-0.637-0.096-0.89-0.289s-0.423-0.452-0.512-0.777z" fill="none" stroke="#fff" stroke-miterlimit="10" stroke-width=".194"/></g><g transform="translate(95.061 121.89)"><path d="m0 0c0 1.313 0.329 2.283 0.985 2.91 0.656 0.626 1.64 0.939 2.953 0.939h1.184c0.783 0 1.487-0.186 2.115-0.56 0.628-0.373 0.942-0.839 0.942-1.399 0-0.209-0.062-0.358-0.186-0.449-0.123-0.089-0.243-0.135-0.361-0.135h-0.631c-0.304 0-0.543 0.167-0.717 0.499-0.187 0.361-0.636 0.542-1.347 0.542h-0.945c-0.775 0-1.301-0.166-1.577-0.499s-0.414-0.948-0.414-1.848c0-0.884 0.124-1.498 0.372-1.839 0.247-0.342 0.69-0.512 1.326-0.512h1.089c0.573 0 0.981 0.109 1.223 0.326 0.243 0.217 0.368 0.53 0.374 0.937h-1.199c-0.138 0-0.256 0.049-0.353 0.146s-0.146 0.215-0.146 0.353v0.414c0 0.138 0.049 0.256 0.146 0.353 0.097 0.098 0.215 0.147 0.353 0.147h2.664c0.138 0 0.256-0.049 0.353-0.147 0.098-0.097 0.146-0.215 0.146-0.353v-0.589c0-0.995-0.298-1.757-0.891-2.288-0.595-0.531-1.467-0.797-2.617-0.797h-1.195c-1.175 0-2.076 0.317-2.704 0.951-0.628 0.633-0.942 1.6-0.942 2.898" fill="#fff"/></g><g transform="translate(95.061 121.89)"><path d="m0 0c0 1.313 0.329 2.283 0.985 2.91 0.656 0.626 1.64 0.939 2.953 0.939h1.184c0.783 0 1.487-0.186 2.115-0.56 0.628-0.373 0.942-0.839 0.942-1.399 0-0.209-0.062-0.358-0.186-0.449-0.123-0.089-0.243-0.135-0.361-0.135h-0.631c-0.304 0-0.543 0.167-0.717 0.499-0.187 0.361-0.636 0.542-1.347 0.542h-0.945c-0.775 0-1.301-0.166-1.577-0.499s-0.414-0.948-0.414-1.848c0-0.884 0.124-1.498 0.372-1.839 0.247-0.342 0.69-0.512 1.326-0.512h1.089c0.573 0 0.981 0.109 1.223 0.326 0.243 0.217 0.368 0.53 0.374 0.937h-1.199c-0.138 0-0.256 0.049-0.353 0.146s-0.146 0.215-0.146 0.353v0.414c0 0.138 0.049 0.256 0.146 0.353 0.097 0.098 0.215 0.147 0.353 0.147h2.664c0.138 0 0.256-0.049 0.353-0.147 0.098-0.097 0.146-0.215 0.146-0.353v-0.589c0-0.995-0.298-1.757-0.891-2.288-0.595-0.531-1.467-0.797-2.617-0.797h-1.195c-1.175 0-2.076 0.317-2.704 0.951-0.628 0.633-0.942 1.6-0.942 2.898z" fill="none" stroke="#fff" stroke-miterlimit="10" stroke-width=".194"/></g><g transform="translate(104.85 118.6)"><path d="m0 0v6.61c0 0.138 0.05 0.254 0.149 0.35s0.217 0.144 0.355 0.144h6.124c0.137 0 0.256-0.05 0.352-0.149 0.098-0.099 0.147-0.218 0.147-0.356v-0.499c0-0.138-0.049-0.255-0.147-0.353-0.096-0.097-0.215-0.146-0.352-0.146h-4.625v-1.545h3.982c0.138 0 0.256-0.049 0.353-0.146 0.098-0.097 0.147-0.215 0.147-0.353v-0.499c0-0.138-0.049-0.256-0.147-0.353-0.097-0.098-0.215-0.146-0.353-0.146h-3.982v-1.567h4.614c0.138 0 0.254-0.047 0.348-0.143 0.093-0.096 0.14-0.212 0.14-0.35v-0.51c0-0.138-0.049-0.256-0.148-0.353s-0.218-0.146-0.356-0.146h-6.097c-0.138 0-0.256 0.049-0.355 0.146s-0.149 0.218-0.149 0.364" fill="#fff"/></g><g transform="translate(104.85 118.6)"><path d="m0 0v6.61c0 0.138 0.05 0.254 0.149 0.35s0.217 0.144 0.355 0.144h6.124c0.137 0 0.256-0.05 0.352-0.149 0.098-0.099 0.147-0.218 0.147-0.356v-0.499c0-0.138-0.049-0.255-0.147-0.353-0.096-0.097-0.215-0.146-0.352-0.146h-4.625v-1.545h3.982c0.138 0 0.256-0.049 0.353-0.146 0.098-0.097 0.147-0.215 0.147-0.353v-0.499c0-0.138-0.049-0.256-0.147-0.353-0.097-0.098-0.215-0.146-0.353-0.146h-3.982v-1.567h4.614c0.138 0 0.254-0.047 0.348-0.143 0.093-0.096 0.14-0.212 0.14-0.35v-0.51c0-0.138-0.049-0.256-0.148-0.353s-0.218-0.146-0.356-0.146h-6.097c-0.138 0-0.256 0.049-0.355 0.146s-0.149 0.218-0.149 0.364z" fill="none" stroke="#fff" stroke-miterlimit="10" stroke-width=".194"/></g><g transform="translate(113.26 118.59)"><path d="m0 0v6.61c0 0.138 0.048 0.257 0.144 0.356 0.095 0.099 0.212 0.149 0.35 0.149h4.38c0.81 0 1.474-0.219 1.993-0.653 0.518-0.436 0.778-1.023 0.778-1.764 0-1.029-0.668-1.676-2.002-1.938 0.209-0.081 0.405-0.215 0.587-0.403 0.182-0.187 0.39-0.462 0.624-0.822l0.966-1.535c0.06-0.103 0.09-0.191 0.09-0.265 0-0.032-5e-3 -0.062-0.016-0.09-0.035-0.096-0.122-0.144-0.26-0.144h-1.274c-0.138 0-0.287 0.049-0.446 0.146s-0.281 0.215-0.366 0.353l-0.903 1.412c-0.368 0.581-0.817 0.871-1.348 0.871h-1.295v-2.283c0-0.138-0.049-0.256-0.146-0.353-0.098-0.097-0.215-0.146-0.354-0.146h-0.998c-0.138 0-0.256 0.049-0.355 0.146s-0.149 0.215-0.149 0.353m2.002 3.786h2.261c0.361 0 0.682 0.072 0.96 0.217 0.28 0.145 0.42 0.377 0.42 0.695 0 0.32-0.139 0.551-0.416 0.696-0.278 0.145-0.599 0.218-0.964 0.218h-2.261z" fill="#fff"/></g><g transform="translate(113.26 118.59)"><path d="m0 0v6.61c0 0.138 0.048 0.257 0.144 0.356 0.095 0.099 0.212 0.149 0.35 0.149h4.38c0.81 0 1.474-0.219 1.993-0.653 0.518-0.436 0.778-1.023 0.778-1.764 0-1.029-0.668-1.676-2.002-1.938 0.209-0.081 0.405-0.215 0.587-0.403 0.182-0.187 0.39-0.462 0.624-0.822l0.966-1.535c0.06-0.103 0.09-0.191 0.09-0.265 0-0.032-5e-3 -0.062-0.016-0.09-0.035-0.096-0.122-0.144-0.26-0.144h-1.274c-0.138 0-0.287 0.049-0.446 0.146s-0.281 0.215-0.366 0.353l-0.903 1.412c-0.368 0.581-0.817 0.871-1.348 0.871h-1.295v-2.283c0-0.138-0.049-0.256-0.146-0.353-0.098-0.097-0.215-0.146-0.354-0.146h-0.998c-0.138 0-0.256 0.049-0.355 0.146s-0.149 0.215-0.149 0.353zm2.002 3.786h2.261c0.361 0 0.682 0.072 0.96 0.217 0.28 0.145 0.42 0.377 0.42 0.695 0 0.32-0.139 0.551-0.416 0.696-0.278 0.145-0.599 0.218-0.964 0.218h-2.261z" fill="none" stroke="#fff" stroke-miterlimit="10" stroke-width=".194"/></g><g transform="translate(120.32 115.08)"><path d="m0 0-0.129-0.017c0.013-0.071-0.193-0.146-0.618-0.225 0.14-0.04 0.274-0.052 0.403-0.035 0.316 0.075 0.52 0.159 0.613 0.254-7e-3 0.033-0.096 0.041-0.269 0.023m-0.58 0.274c3e-3 -0.019-0.034-0.053-0.113-0.102 0.086 0.011 0.131 7e-3 0.134-0.012 0.15 0.02 0.233 0.05 0.248 0.09-7e-3 0.033-0.096 0.041-0.269 0.024m-1.284-0.196c-3e-3 0.014 0.069 0.101 0.215 0.26l-0.011 0.057c-0.01 0.052-0.495 0.057-1.456 0.015-0.107-0.014-0.288 0.011-0.542 0.074l-0.129-0.016 5e-3 -0.029 0.156-0.125-0.258-0.033c-8e-3 0.042-0.058 0.075-0.15 0.097-0.173-0.023-0.255-0.053-0.248-0.091 8e-3 -0.037 0.097-0.045 0.269-0.023 6e-3 -0.033-0.458-0.142-1.391-0.326l0.166-0.182 0.021-0.113-0.489-0.209 0.011-0.057c0.366-0.073 0.556-0.145 0.57-0.216l-0.651-0.056-0.51-0.095-0.14 0.04-5e-3 0.028c0.258 0.034 0.383 0.07 0.376 0.107l-5e-3 0.029-0.14 0.04-0.252-0.062-6e-3 0.028 0.118 0.074 0.264 5e-3 0.129 0.017-0.011 0.056c-0.462 0.115-0.736 0.166-0.822 0.155l0.118 0.074-0.048 0.255-0.14 0.04c0.716 0.171 1.268 0.281 1.655 0.331 0.204-0.032 0.339-0.043 0.403-0.035l0.258 0.034-0.011 0.056c-0.021 0.114-0.204 0.148-0.548 0.104l-0.032 0.17c-0.269 0.028-0.409 0.068-0.419 0.12-0.516-0.067-0.782-0.053-0.8 0.041l-0.516-0.067-0.758-0.185c-0.191 0.077-0.291 0.141-0.3 0.193l-0.129-0.016-0.253-0.062-5e-3 0.028-0.64-0.112-0.128-0.017-6e-3 0.029 0.242 0.118-0.016 0.086-0.14 0.04-0.639-0.112c-0.258-0.034-0.39-0.032-0.398 6e-3l-0.252-0.062c7e-3 -0.038 0.14-0.04 0.397-6e-3l-0.118-0.074c7e-3 -0.038 0.097-0.045 0.269-0.023-0.328-0.13-0.491-0.199-0.489-0.209-0.086-0.011-0.131-7e-3 -0.134 0.012-0.087-0.011-0.128-0.026-0.124-0.045l-0.129-0.017c-0.383 0.163-0.754 0.261-1.112 0.292l-5e-3 0.028c-7e-3 0.033 0.075 0.063 0.247 0.09-6e-3 0.033-0.101 0.07-0.285 0.109-0.871-0.05-1.317-0.021-1.337 0.088-0.684-0.113-1.02-0.196-1.011-0.248l0.14-0.04-0.774-0.1-0.397 7e-3 -0.645-0.084c-0.011 0.061 0.105 0.144 0.35 0.249-8e-3 0.042-0.059 0.074-0.151 0.096l0.118 0.074c-0.229 0.048-0.408 0.063-0.537 0.046-0.172-0.022-0.254-0.052-0.247-0.09-0.244 7e-3 -0.638-5e-3 -1.182-0.037-0.257 0.078-0.83 0.081-1.719 0.01-0.215-0.028-0.51-0.096-0.887-0.203l-0.257-0.033-0.398 7e-3c-0.312-0.099-0.693-0.178-1.144-0.236-7e-3 0.033 0.065 0.12 0.215 0.26l-0.419 0.12-6e-3 0.029c0.258 0.033 0.384 0.069 0.376 0.107l-5e-3 0.028c-0.322-0.042-0.593-9e-3 -0.811 0.098-0.137 0.026-0.925 1e-3 -2.364-0.074l-0.645-0.084-0.601-0.31-0.129-0.017-6e-3 0.028 0.242 0.119-0.027 0.142c-6e-3 0.033-0.096 0.041-0.268 0.023l-0.258-0.033c-0.172-0.023-0.254-0.053-0.247-0.091-0.173-0.022-0.434-0.036-0.785-0.043-6e-3 0.033 0.076 0.063 0.247 0.09l-0.155 0.125-0.011 0.057 0.387 0.05-6e-3 0.028c-0.648 0.052-1.262 0.04-1.842-0.035-0.505 0.109-0.865 0.149-1.08 0.121l-0.129-0.016 5e-3 -0.029 0.14-0.04-0.757-0.185c-0.688 0.143-1.269 0.184-1.741 0.123-0.147-0.039-0.317-0.071-0.51-0.096l-0.387-0.05c-0.151-0.019-0.5-0.036-1.048-0.049l-0.016 0.086c0.344 0.044 0.639 0.112 0.887 0.202-1.145-3e-3 -1.72 9e-3 -1.725 0.038-0.064-9e-3 -0.351-0.123-0.86-0.344l-0.526-0.011c-4e-3 0.019 0.034 0.053 0.113 0.102l-0.14 0.04c0.079 0.044 0.116 0.088 0.108 0.13-0.144 0.059-0.452 0.058-0.924-3e-3l-0.387-0.05c-0.588-0.154-0.88-0.24-0.876-0.259-0.508 6e-3 -0.777 0.03-0.806 0.07-1.656-0.094-2.492-0.096-2.509-6e-3 -0.046 0.246-1.11 0.282-3.191 0.109-0.599-0.092-0.892-0.169-0.881-0.231l-0.258-0.033-0.263-5e-3c-0.412 0.315-1.09 0.411-2.036 0.288-0.215-0.028-0.507-0.114-0.876-0.259l-0.397 6e-3 -0.253-0.061c-5e-3 0.028-0.098 0.055-0.279 0.08l-5e-3 0.028 0.118 0.073c0.085 0.012 0.131 8e-3 0.134-0.011 0.15 0.019 0.233 0.049 0.247 0.09-6e-3 0.033-0.096 0.041-0.268 0.023l-0.253-0.062c-0.018 0.095-0.634 0.093-1.848-7e-3 -3e-3 0.019 0.038 0.034 0.124 0.045l-0.14 0.04c-0.172-0.022-0.254-0.052-0.247-0.09-0.459 0.096-0.992 0.123-1.601 0.083-0.193-0.025-0.364-0.057-0.51-0.095l-0.264-5e-3c-0.483 0.111-0.886 0.146-1.208 0.104-0.173-0.022-0.253-0.061-0.242-0.118-0.154-1e-3 -0.371-0.019-0.65-0.055-0.857 0.102-1.822 0.083-2.896-0.056 7e-3 -0.038-0.075-0.068-0.247-0.091-0.014 0.076-0.242 0.114-0.682 0.115l-0.129-0.016c-0.172-0.023-0.255-0.053-0.247-0.091-1.03-0.027-1.779-0.027-2.246 0l-1.547-0.201c-0.236-0.031-0.491-0.083-0.763-0.157l-0.779-0.072c-0.172-0.022-0.255-0.052-0.247-0.09l-0.264-5e-3 -0.376-0.107c9e-3 -0.047 0.29-0.137 0.844-0.269 0.086 0.011 0.213 0.038 0.381 0.079 0.086 0.011 0.217 0.018 0.392 0.022l0.253 0.062 0.263 5e-3 0.376 0.107 0.129 0.016c0.261 0.02 0.404-0.039 0.43-0.177l5e-3 -0.028c7e-3 -0.038-0.075-0.068-0.247-0.09 9e-3 -0.047 0.115-0.14 0.317-0.279-0.079-0.049-0.117-0.083-0.113-0.102 0.644-0.265 1.02-0.39 1.128-0.376l-0.118-0.074 0.139-0.04c-0.086-0.011-0.127-0.026-0.123-0.045l0.01-0.057 0.14-0.04 0.639 0.112 0.398-6e-3 0.129 0.017c-0.019 0.099 0.185 0.183 0.613 0.253-7e-3 0.034-0.27 0.028-0.79-0.015-0.02 0.104 0.353 0.23 1.117 0.378 0.433 0.041 0.658 0.012 0.677-0.087l0.022-0.113-0.119-0.074-0.263-5e-3 -0.129-0.017 6e-3 -0.028c5e-3 -0.028 0.182-0.035 0.531-0.018 0.504 0.133 0.744 0.261 0.721 0.384-0.087-0.011-0.131-7e-3 -0.135 0.011l0.645 0.084c0.15 0.02 0.24 0.012 0.269-0.023l-0.242-0.119c0.139-0.04 0.274-0.051 0.403-0.035 0.11-0.121 0.381-0.154 0.811-0.098l-0.118-0.073 0.139-0.04c-0.172-0.023-0.254-0.053-0.247-0.091l0.011-0.056c7e-3 -0.038 0.096-0.046 0.268-0.024l0.129 0.017c0.572 0.123 1.03 0.26 1.376 0.411-4e-3 0.019-0.052 0.042-0.145 0.069l-6e-3 0.028c0.881-0.118 1.548-0.148 1.999-0.09l0.016-0.085c-0.774-0.1-1.139-0.264-1.096-0.491l-0.263-5e-3 -0.516-0.067 5e-3 -0.028c7e-3 -0.038 0.096-0.046 0.269-0.023l0.768 0.128 0.929-0.024 0.258 0.033c0.097 0.187 0.253 0.294 0.468 0.322-0.01 0.052-0.107 0.098-0.29 0.137l0.258 0.034c0.4-0.137 0.944-0.222 1.633-0.254l0.016-0.085c-0.086-0.011-0.131-7e-3 -0.135 0.012-0.172-0.022-0.254-0.052-0.247-0.09l0.016-0.085 0.129 0.016 0.495 0.181 0.386 0.05c0.151 0.019 0.288-0.011 0.414-0.092 0.15 0.02 0.266 0.017 0.28 0.058 0.154 0 0.338 0.051 0.617 0.088l6e-3 -0.029c3e-3 -0.018-0.287-0.114-0.871-0.287l-0.258-0.033c-0.129-0.017-0.265 4e-3 -0.408 0.063-0.387-0.05-0.806-0.163-1.257-0.338 5e-3 -0.028 0.492-0.042 1.461-0.043 0.129 0.017 0.251 0.072 0.365 0.164l0.651 0.055c0.257-0.082 0.526-0.106 0.805-0.069 0.577-0.023 1.015-0.014 1.317 0.025 0.252 0.062 0.376 0.107 0.37 0.135l-0.139 0.04 0.386 0.05c2e-3 -9e-3 0.323-0.074 0.962-0.194l0.129 0.016c-3e-3 0.014 0.074 0.073 0.231 0.176 0.086 0.011 0.131 7e-3 0.134-0.012 0.086 0.011 0.213 0.037 0.382 0.078 0.258 0.034 0.39 0.032 0.397-6e-3l0.016-0.085c8e-3 -0.038-0.204-0.085-0.634-0.141l0.011-0.056c0.129 0.016 0.304 0.02 0.527 0.01l-0.242-0.119 0.139-0.04 0.769 0.129c0.175 3e-3 0.306 0.011 0.392 0.022 0.673 0.165 0.992 0.342 0.956 0.531l0.398-7e-3c0.041-0.217 0.367-0.311 0.978-0.28 0.012-0.066-0.015-0.157-0.081-0.272 0.014-0.075 0.322-0.074 0.924 4e-3l5e-3 -0.029-0.489-0.208 6e-3 -0.029 0.274-0.051 0.891 0.174 0.387 0.05 0.022-0.114-0.129-0.017-0.398 7e-3 -0.258-0.033c-0.172-0.023-0.254-0.053-0.247-0.091l0.016-0.085 1.032 0.134-6e-3 0.028c0.587 0.159 0.877 0.255 0.871 0.288-0.018 0.094-0.158 0.134-0.419 0.12l-0.903-0.117-5e-3 0.028c0.246 0.095 0.409 0.088 0.403 0.121 0.085 0.011 0.088 0.078 0.091 0.059 0.086 0.012 0.228-3e-3 0.397 0.038h0.785c0.204-0.265 0.446-0.379 0.725-0.342 0.258 0.033 0.483 4e-3 0.677-0.087 0.301 0.039 0.686 0.099 1.155 0.179l0.398-7e-3 0.644 0.084 0.64 0.112c0.178-0.011 0.273-0.047 0.285-0.108l0.257 0.033-0.01 0.057 0.258 0.033c3e-3 -0.018 0.051-0.041 0.145-0.068-0.25-0.076-0.374-0.121-0.371-0.135-0.287 1e-3 -0.548-0.013-0.785-0.044l-0.386-0.05c-0.253-0.062-0.376-0.107-0.371-0.135l5e-3 -0.029c7e-3 -0.038 0.272-0.042 0.795-0.013l0.027-0.142c0.15 0.02 0.498 0.046 1.042 0.077 0.169 0.042 0.296 0.068 0.382 0.079 8e-3 -0.043 0.058-0.075 0.15-0.097-0.258-0.033-0.383-0.069-0.376-0.107l0.016-0.085c0.575-0.012 0.976-0.038 1.204-0.076l0.376 0.107c-0.122 0.178-0.273 0.274-0.451 0.29l-6e-3 0.028 0.468 0.323-0.538 0.046-0.021 0.114c-6e-3 0.033 0.076 0.063 0.247 0.09l0.387 0.05 0.398-7e-3c-0.071-0.091-0.225-0.208-0.463-0.35 0.353-3e-3 0.532-0.018 0.538-0.047l-0.242-0.118 5e-3 -0.029c6e-3 -0.033 0.226-0.033 0.661-1e-3l0.252 0.062c4e-3 -0.019 0.049-0.023 0.135-0.012l-0.242-0.119 0.011-0.056 0.139-0.04c-0.129-0.017-0.297-0.058-0.505-0.124l6e-3 -0.028c0.15 0.019 0.467-0.027 0.95-0.139 0.086 0.012 0.213 0.038 0.382 0.079 0.086 0.011 0.216 0.018 0.392 0.022 0.129 0.017 0.251 0.071 0.365 0.164 0.606 0.054 0.92 0.027 0.941-0.082-0.542-0.167-0.833-0.253-0.876-0.259 0.615 7e-3 0.928-0.02 0.94-0.081l0.129 0.016c0.15 0.02 0.232 0.05 0.247 0.091 1.053 0.02 1.583 0.011 1.59-0.027l0.64 0.112 0.66-1e-3 0.607 0.282c-0.139 0.04-0.273 0.052-0.402 0.035l-0.016 0.085-0.14 0.04c-6e-3 0.033 0.084 9e-3 0.255 0.036 0.154-0.115 0.373-0.1 0.674-0.061l6e-3 -0.028-0.355-0.22 0.784 0.043 0.505 0.124c7e-3 -0.038 0.312-0.018 0.914 0.06 0.15 0.02 0.232 0.05 0.247 0.09-0.43 0.061-0.785 0.073-1.064 0.037l-5e-3 0.028c0.163 0.07 0.242 0.119 0.236 0.147 0.194 0.025 0.367 0.038 0.521 0.039l0.253 0.062 0.542-0.075-0.575-0.453 0.011-0.057c0.448-0.038 0.813-0.107 1.096-0.206l0.011-0.057c-0.43-0.056-0.641-0.102-0.634-0.14 5e-3 -0.029 0.444-0.02 1.316 0.025 0.82 0.204 1.327 0.318 1.52 0.343l0.387 0.05-0.016 0.085c-6e-3 0.033-0.096 0.041-0.268 0.023-4e-3 0.019 0.033 0.053 0.112 0.102l-0.139 0.04 0.252 0.062 0.129 0.017 0.011-0.057c0.193 0.025 0.363 0.057 0.51 0.095l0.264 5e-3c6e-3 -0.033-0.071-0.091-0.232-0.175l0.419-0.12-0.128-0.017c0.218-0.223 0.456-0.318 0.714-0.285l0.258 0.034c0.472 0.061 0.764 0.147 0.876 0.259-8e-3 0.042-0.059 0.074-0.151 0.096 0.157 0.103 0.232 0.171 0.226 0.204-0.011 0.057-0.102 0.074-0.274 0.052-4e-3 0.019 0.154 0.117 0.473 0.293l0.129 0.017c0.129 0.017 0.309-8e-3 0.542-0.075l-0.365-0.163 0.016-0.086c0.727-0.118 1.219-0.161 1.477-0.128l-0.118-0.073c-0.419-0.113-0.62-0.216-0.602-0.311-0.688-0.089-1.038-0.096-1.053-0.02-0.172-0.022-0.249-0.081-0.231-0.175-0.609-0.04-0.956-0.066-1.042-0.077l-0.258-0.034 5e-3 -0.028c0.012-0.062 0.153-0.111 0.425-0.149l1.284 0.196c0.429 0.056 0.864 0.083 1.305 0.082 0.172 0.023 0.426 0.075 0.763 0.157 0.34 0.18 0.586 0.28 0.736 0.299 0.015-0.075 0.107-0.102 0.28-0.08l0.972-0.251c-0.086-0.012-0.167-0.051-0.242-0.119l0.14-0.04 1.918 0.336c7e-3 -0.038 0.096-0.046 0.268-0.023l0.129 0.017c0.215 0.027 0.333 0.101 0.355 0.22l-0.011 0.057c-6e-3 0.033-0.096 0.041-0.268 0.023-0.335-0.092-0.5-0.152-0.495-0.18-0.408-0.053-0.725-7e-3 -0.95 0.138 0.149 0.14 0.221 0.227 0.215 0.26l0.263 5e-3c0.172 0.023 0.252 0.062 0.242 0.119l0.258 0.033c0.011-0.061-0.105-0.144-0.35-0.248 0.186-0.054 0.322-0.075 0.408-0.064 0.736 0.067 1.264 0.067 1.585 2e-3l-0.118-0.073 0.027-0.142c0.14-0.04 0.274-0.052 0.403-0.035l0.258 0.034 0.376 0.107c0.012-0.067-0.273-0.191-0.855-0.373l6e-3 -0.028c0.518 0.052 0.781 0.058 0.789 0.015l0.516 0.067 0.022-0.114c-0.086-0.011-0.214-0.037-0.382-0.078-0.154-1e-3 -0.328-0.014-0.521-0.039l0.022-0.113 0.386 0.05 0.769 0.129c0.343 0.044 0.498 0.161 0.462 0.35 0.708 0.446 1.056 0.704 1.042 0.775l-0.026 0.142c0.343 0.044 0.503 0.133 0.478 0.265l0.129 0.017c0.623-0.04 0.937-0.067 0.94-0.081-0.086-0.012-0.217-0.019-0.392-0.022-0.258-0.034-0.384-0.069-0.376-0.107 0.01-0.057 0.23-0.057 0.66-2e-3l-0.102-0.158c0.377-0.13 0.57-0.222 0.58-0.274 0.585 0.168 0.875 0.264 0.871 0.288l-0.027 0.142 0.129 0.016-0.016 0.085c0.079 0.045 0.115 0.088 0.107 0.131l-0.01 0.056-0.274 0.052 0.241 0.119 0.327 0.02 1.112 0.285c0.258 0.033-1.361-0.014-1.369 0.023-7e-3 0.038-0.139 0.04-0.397 7e-3m-0.317-0.419 0.139-0.04 0.022-0.114-0.129-0.016c-0.012 0.061-0.153 0.111-0.424 0.148-7e-3 0.033 0.075 0.063 0.247 0.09l0.258 0.034c3e-3 -0.019-0.035-0.053-0.113-0.102m-1.671-0.944-0.258-0.033 0.01-0.057c0.14-0.04 0.274-0.051 0.403-0.035l0.129 0.017-0.016 0.085c-6e-3 0.033-0.096 0.041-0.268 0.023m-0.349 1.147-0.129-0.017c-0.172-0.022-0.262-0.014-0.269 0.023-6e-3 0.034 0.076 0.064 0.247 0.091l0.129 0.016zm0.262-1.39 0.011-0.057 0.129 0.017-0.011 0.057zm-0.886 0.495-0.515-0.067 0.118 0.074-0.14 0.04 0.129 0.016c0.222-0.01 0.44-1e-3 0.655 0.027 8e-3 -0.037-0.075-0.068-0.247-0.09m-2.314 1.763-0.258-0.033 5e-3 -0.028c7e-3 -0.038 0.096-0.046 0.269-0.024l0.252 0.062c-6e-3 0.033-0.096 0.041-0.268 0.023m0.493-1.912c-0.151-0.136-0.312-0.215-0.484-0.237l-0.257-0.034c-0.012 0.062-0.064 0.104-0.156 0.126 0.343 0.044 0.507 0.114 0.489 0.208 0.129 0.017 0.265-4e-3 0.408-0.063m-2.67 0.845c0.215 0.028 0.672-0.058 1.37-0.258l-1.44-0.07-0.059 0.312zm0.736-1.793c8e-3 -0.043 0.058-0.075 0.15-0.097l-0.118-0.074c0.229-0.047 0.408-0.063 0.537-0.046l0.129 0.017 0.252 0.061c4e-3 -0.019 0.049-0.022 0.135-0.011-0.025 0.132-0.387 0.182-1.085 0.15m-0.87 1.805-0.263-5e-3c-6e-3 0.033 0.076 0.063 0.247 0.09zm-0.189-1.797 6e-3 -0.029 0.257 0.034-5e-3 0.028zm-0.489-0.209-0.387-0.05c-0.014 0.075-0.15 0.096-0.408 0.063l-0.032 0.17-0.376-0.107-0.65-0.055-0.118-0.074c0.139-0.04 0.274-0.051 0.403-0.034l0.252 0.061-0.102-0.158 0.274-0.052 1.284 0.196 0.397-7e-3 0.258 0.034-5e-3 0.028c-8e-3 0.043-0.271 0.038-0.79-0.015m-0.155 0.823-0.129-0.017-0.011 0.057 0.129 0.016zm-3.496 2.423 0.01-0.056 0.258 0.033-0.01 0.057zm0.434-1.6 0.011-0.057-0.129-0.016c-0.025 0.132-0.253 0.17-0.682 0.114l-0.011 0.057c0.326 0.023 0.596-0.01 0.811-0.098m0.161-1.549-0.129-0.016c-0.258-0.034-0.378-0.098-0.36-0.192-0.173-0.023-0.265 4e-3 -0.28 0.08l-0.387-0.051 6e-3 -0.028c0.34-0.053 0.563-0.072 0.671-0.058l0.258 0.033c0.335 0.092 0.5 0.152 0.494 0.181l-5e-3 0.028c-6e-3 0.033-0.096 0.041-0.268 0.023m-1.488 1.58-0.129-0.016-0.01 0.056 0.128 0.017zm-0.483-0.237-0.129-0.017-0.016 0.086 0.128 0.016zm-0.945 1.505-0.129-0.017c-0.172-0.022-0.262-0.014-0.269 0.024l-5e-3 0.028c0.175 3e-3 0.306 0.011 0.392 0.022zm-0.038-0.499-0.258-0.033-0.027 0.142 0.129 0.016c0.012-0.061 0.064-0.103 0.156-0.125m-2.272 0.141-0.129-0.016c-4e-3 0.018-0.053 0.041-0.145 0.068l-6e-3 0.028 0.258 0.034zm0.048-0.255 0.01-0.057c8e-3 -0.038-0.075-0.068-0.247-0.09l-0.129-0.017-0.021 0.114 0.16 0.023c0.15 0.02 0.198 0.062 0.227 0.027m-1.209 0.802-0.376-0.107c7e-3 -0.037 0.097-0.045 0.269-0.023 0.15 0.02 0.233 0.05 0.247 0.09l-0.011 0.057zm-0.258-1.428c-0.344-0.045-0.512-0.086-0.505-0.124l0.011-0.057c0.182-0.034 0.37-0.097 0.564-0.188l5e-3 -0.028c-0.086-0.012-0.131-8e-3 -0.134 0.011l-0.64-0.112c-0.263-5e-3 -0.397 7e-3 -0.403 0.035l-0.016 0.085c0.258 0.034 0.383 0.069 0.376 0.107l-0.016 0.085c-8e-3 0.043-0.058 0.075-0.15 0.097l-5e-3 0.028c0.085 0.011 0.216 0.019 0.392 0.022 0.146 0.039 0.317 0.07 0.51 0.095zm-0.253-0.76-0.129-0.016-0.016 0.085 0.129 0.016zm-3.604 0.899 0.295-0.165c5e-3 -0.024-0.417-0.127-1.263-0.31l-0.129-0.016c-0.222 0.01-0.44 1e-3 -0.655-0.027l-0.016 0.085 1.134 0.292c-0.025 0.133 0.263 0.238 0.865 0.316 6e-3 -0.033-0.071-0.092-0.231-0.175m-0.893-1.569c-0.252-0.062-0.376-0.107-0.371-0.136 0.014-0.071 0.2-0.124 0.559-0.16 0.253 0.062 0.376 0.107 0.371 0.136l0.263 5e-3 0.129 0.016-0.011 0.057c-0.279-0.036-0.593-9e-3 -0.94 0.082m-0.279 1.475-0.257-0.034-6e-3 0.029 0.258 0.033zm-0.944 1.505 0.016-0.085 0.258 0.033-6e-3 0.029c-6e-3 0.033-0.096 0.04-0.268 0.023m0.069-1.067-0.129-0.016c-0.172-0.023-0.261-0.015-0.269 0.023l0.129 0.017c0.151 0.019 0.24 0.012 0.269-0.024m-1.51-1.096c3e-3 -0.019 0.052-0.042 0.145-0.069-0.251-0.187-0.452-0.291-0.602-0.31l-0.129-0.017-0.156 0.125-0.016 0.085c-0.01 0.057 0.027 0.091 0.113 0.102-4e-3 0.024 0.203 0.089 0.623 0.197l-0.01 0.057-0.806 0.07c-0.029 0.151-0.43 0.176-1.203 0.076l-0.253-0.062c-0.351-7e-3 -0.532 0.018-0.542 0.075l-1.188-9e-3c0.236 0.031 0.489 0.093 0.758 0.186l0.258 0.033 5e-3 -0.028c1.046-0.058 1.665-0.075 1.859-0.05 0.843-0.152 1.431-0.23 1.762-0.236-0.305-0.136-0.511-0.212-0.618-0.225m-0.477 1.827-0.129-0.017-0.011 0.057 0.129 0.017zm0.08-1.123-0.387-0.05-0.016 0.085 0.387 0.05zm-1.999-0.608-0.258-0.034-0.021 0.114 0.258 0.033zm0.054-0.284-0.387-0.05-6e-3 0.028 0.387 0.05zm-1.058 2.101-0.258-0.034-5e-3 0.029 0.258 0.033zm-2.45-1.016-0.258-0.033-5e-3 0.028 0.118 0.074c0.175 3e-3 0.306 0.01 0.392 0.021 7e-3 -0.037-0.075-0.067-0.247-0.09m-0.51 0.603c-0.086-0.012-0.125-0.036-0.118-0.074l-0.129-0.017c-0.391 0.085-0.833 0.096-1.327 0.032l-0.505-0.124c-0.348-0.026-0.654-0.036-0.919-0.032-2e-3 0.01 0.073 0.077 0.226 0.204 0.245 0.099 0.365 0.163 0.36 0.192l0.129 0.016c0.036-0.189 0.397-0.239 1.085-0.149 0.172 0.022 0.462 0.118 0.87 0.287 0.04-0.208 0.148-0.32 0.328-0.335m0.112-0.596-0.129-0.017c-0.172-0.022-0.261-0.014-0.268 0.023l0.387 0.051zm-0.935-0.645-0.258-0.033-5e-3 0.028 0.258 0.034zm-0.391 0.676-0.129-0.017c-0.173-0.022-0.262-0.014-0.269 0.024l0.387 0.05zm-0.35-1.644-0.5-0.152c0.016-0.085 0.241-0.114 0.677-0.086 0.236 0.03 0.442 0.105 0.618 0.225-7e-3 0.033-0.272 0.038-0.795 0.013m-0.048 0.953-0.258-0.033-6e-3 0.028 0.258 0.033zm-1.661-0.302c-0.086-0.012-0.125-0.036-0.118-0.074l-0.258-0.033c-0.222 0.01-0.44 1e-3 -0.655-0.027l0.118 0.073-0.021 0.114-0.274 0.051-0.027 0.142c-6e-3 0.033 0.076 0.063 0.247 0.09l0.387 0.05 0.016-0.085-0.242-0.118 0.011-0.057c0.541-0.065 0.813-0.108 0.816-0.126m-1.096-0.491c-0.172-0.023-0.254-0.053-0.247-0.091l0.011-0.056 0.14-0.04c0.15 0.019 0.232 0.049 0.247 0.09l-0.011 0.057zm-1.589 2.118 6e-3 -0.028c-0.431-0.056-0.694-0.061-0.79-0.015l0.118 0.073c0.439 4e-3 0.662-6e-3 0.666-0.03m-0.43-1.218-0.333-0.334-0.258-0.033-0.043 0.227-0.14 0.04c0.272 0.074 0.526 0.126 0.763 0.157zm-5.013-0.737-0.129-0.017c-0.252-0.062-0.376-0.107-0.371-0.135l0.011-0.057 0.408-0.063c0.856 0.13 1.279 0.224 1.268 0.28l-5e-3 0.029c-0.122 0.061-0.516 0.049-1.182-0.037m-0.418 0.817c-0.247-0.095-0.365-0.168-0.355-0.22l-0.258-0.034c-4e-3 0.019 0.037 0.034 0.124 0.045l-0.167 0.182-0.016 0.085c0.29-0.02 0.51-0.021 0.661-1e-3zm-0.569 1.612c-0.172-0.022-0.254-0.052-0.247-0.09l5e-3 -0.028 0.387 0.05-6e-3 0.028zm-0.839-2.55 0.01-0.057 0.129 0.017-0.011 0.057zm-0.828 0.183c-0.335-0.092-0.499-0.152-0.494-0.18l0.016-0.085 0.903 0.117c0.15 0.019 0.232 0.049 0.247 0.09l-6e-3 0.028c-0.05 0.033-0.272 0.043-0.666 0.03m-0.085 0.454c-0.215-0.028-0.427-0.075-0.634-0.14-4e-3 0.019-0.053 0.041-0.145 0.068 0.078 0.049 0.116 0.083 0.112 0.102 0.44 4e-3 0.662-6e-3 0.667-0.03m-0.79 0.682c-0.163-0.069-0.24-0.128-0.231-0.175l-0.129-0.017c-0.02 0.109-0.076 0.17-0.166 0.182l0.269-0.018c0.15 0.02 0.228 0.063 0.257 0.028m-2.128-1.322-0.387-0.05c0.14-0.04 0.274-0.052 0.403-0.035l0.253 0.062c-6e-3 0.033-0.096 0.041-0.269 0.023m-0.193 1.021c-0.172-0.022-0.261-0.014-0.268 0.024l-6e-3 0.028 0.258 0.033zm-0.166 0.182-0.258-0.033-5e-3 0.028c-7e-3 0.033 0.075 0.063 0.247 0.09zm-2.665 0.119-0.129-0.016-0.021 0.113 0.521 0.039c-0.118-0.074-0.242-0.119-0.371-0.136m-0.709-1.138 0.118 0.074-6e-3 0.028c-6e-3 0.033-0.096 0.041-0.268 0.023l-0.129-0.017-0.253-0.061-0.139 0.04c-0.546-0.028-0.986-0.027-1.322 3e-3l-0.494-0.181-0.263-5e-3c3e-3 -0.019-0.038-0.034-0.124-0.045 0.111-0.121 0.395-0.23 0.854-0.325 0.516 0.067 0.766 0.138 0.752 0.214 0.879 7e-3 1.322-3e-3 1.327-0.032 0.15 0.02 0.312 0.099 0.484 0.237-0.014 0.071-0.193 0.087-0.537 0.047m-2.815 0.216-0.645-0.084c-0.172-0.022-0.254-0.052-0.247-0.09l5e-3 -0.028c0.194 0.025 0.46 0.011 0.801-0.042l0.257 0.034c-0.111 0.121-0.168 0.191-0.171 0.21m-2.198-0.256-0.376-0.107 0.14-0.04 0.376 0.107zm-0.617 1.17 5e-3 -0.029c-0.172-0.022-0.261-0.014-0.268 0.024l-6e-3 0.028c0.15 0.02 0.24 0.012 0.269-0.023m-1.585-2e-3c4e-3 -0.019-0.104 4e-3 -0.182-0.045-0.176-3e-3 -0.237-0.068-0.323-0.079l-0.027 0.142 0.387 0.05c4e-3 -0.019 0.052-0.042 0.145-0.068m-1.096-1.189-0.129-0.017 0.016-0.085c0.085 0.011 0.216 0.019 0.392 0.022l0.129 0.017-5e-3 0.028c-0.14 0.04-0.274 0.052-0.403 0.035m-2.783 0.743-0.01 0.057c0.257 0.034 0.383 0.069 0.376 0.107l-0.258-0.033-0.253-0.062-0.161 0.153c0.151 0.02 0.233 0.05 0.247 0.091l-0.01 0.056-0.774-0.1-0.253-0.062c-0.622 0.031-0.935 0.058-0.94 0.082-0.085-0.012-0.127-0.027-0.123-0.046-0.086-0.011-0.217-0.018-0.392-0.021-0.301-0.039-0.497-0.171-0.586-0.396l0.021-0.114c0.34-0.052 0.564-0.072 0.672-0.058l0.628 0.169c0.015-0.076 0.194-0.091 0.538-0.047l0.026-0.141c-0.193-0.025-0.363-0.057-0.51-0.096l0.274-0.051-0.258-0.034c-6e-3 0.033-0.101 0.07-0.285 0.109l0.119 0.073-0.14 0.04-0.629-0.169c0.105-0.088 0.159-0.139 0.161-0.153 0.015-0.076 0.592-0.098 1.73-0.066l0.5 0.152c-9e-3 0.047-0.186 0.053-0.532 0.018l0.118 0.073 0.264 5e-3 0.644 0.084c0.258 0.034 0.457 0.147 0.597 0.339-0.319 0.056-0.586 0.069-0.801 0.041m0.414 0.606 0.011-0.056 0.129 0.016-0.011 0.057zm-0.452-1.104 0.011-0.057 0.129 0.016-0.011 0.057zm-0.064-0.358 0.016-0.085 0.258 0.034-0.016 0.085zm-0.913 0.638c-0.01 0.052-0.237 0.09-0.682 0.114l-6e-3 0.029c0.258 0.033 0.38 0.088 0.366 0.164l0.386 0.05c0.093-0.143 0.237-0.202 0.43-0.177-0.2-0.103-0.365-0.164-0.494-0.18m-1.268 1.114c-0.171-0.022-0.254-0.052-0.247-0.09l0.14-0.04c0.151 0.019 0.233 0.049 0.247 0.09zm-0.225-0.204 0.01-0.056 0.129 0.016-0.01 0.057z" fill="#fff"/></g><g transform="translate(120.32 115.08)"><path d="m0 0-0.129-0.017c0.013-0.071-0.193-0.146-0.618-0.225 0.14-0.04 0.274-0.052 0.403-0.035 0.316 0.075 0.52 0.159 0.613 0.254-7e-3 0.033-0.096 0.041-0.269 0.023zm-0.58 0.274c3e-3 -0.019-0.034-0.053-0.113-0.102 0.086 0.011 0.131 7e-3 0.134-0.012 0.15 0.02 0.233 0.05 0.248 0.09-7e-3 0.033-0.096 0.041-0.269 0.024zm-1.284-0.196c-3e-3 0.014 0.069 0.101 0.215 0.26l-0.011 0.057c-0.01 0.052-0.495 0.057-1.456 0.015-0.107-0.014-0.288 0.011-0.542 0.074l-0.129-0.016 5e-3 -0.029 0.156-0.125-0.258-0.033c-8e-3 0.042-0.058 0.075-0.15 0.097-0.173-0.023-0.255-0.053-0.248-0.091 8e-3 -0.037 0.097-0.045 0.269-0.023 6e-3 -0.033-0.458-0.142-1.391-0.326l0.166-0.182 0.021-0.113-0.489-0.209 0.011-0.057c0.366-0.073 0.556-0.145 0.57-0.216l-0.651-0.056-0.51-0.095-0.14 0.04-5e-3 0.028c0.258 0.034 0.383 0.07 0.376 0.107l-5e-3 0.029-0.14 0.04-0.252-0.062-6e-3 0.028 0.118 0.074 0.264 5e-3 0.129 0.017-0.011 0.056c-0.462 0.115-0.736 0.166-0.822 0.155l0.118 0.074-0.048 0.255-0.14 0.04c0.716 0.171 1.268 0.281 1.655 0.331 0.204-0.032 0.339-0.043 0.403-0.035l0.258 0.034-0.011 0.056c-0.021 0.114-0.204 0.148-0.548 0.104l-0.032 0.17c-0.269 0.028-0.409 0.068-0.419 0.12-0.516-0.067-0.782-0.053-0.8 0.041l-0.516-0.067-0.758-0.185c-0.191 0.077-0.291 0.141-0.3 0.193l-0.129-0.016-0.253-0.062-5e-3 0.028-0.64-0.112-0.128-0.017-6e-3 0.029 0.242 0.118-0.016 0.086-0.14 0.04-0.639-0.112c-0.258-0.034-0.39-0.032-0.398 6e-3l-0.252-0.062c7e-3 -0.038 0.14-0.04 0.397-6e-3l-0.118-0.074c7e-3 -0.038 0.097-0.045 0.269-0.023-0.328-0.13-0.491-0.199-0.489-0.209-0.086-0.011-0.131-7e-3 -0.134 0.012-0.087-0.011-0.128-0.026-0.124-0.045l-0.129-0.017c-0.383 0.163-0.754 0.261-1.112 0.292l-5e-3 0.028c-7e-3 0.033 0.075 0.063 0.247 0.09-6e-3 0.033-0.101 0.07-0.285 0.109-0.871-0.05-1.317-0.021-1.337 0.088-0.684-0.113-1.02-0.196-1.011-0.248l0.14-0.04-0.774-0.1-0.397 7e-3 -0.645-0.084c-0.011 0.061 0.105 0.144 0.35 0.249-8e-3 0.042-0.059 0.074-0.151 0.096l0.118 0.074c-0.229 0.048-0.408 0.063-0.537 0.046-0.172-0.022-0.254-0.052-0.247-0.09-0.244 7e-3 -0.638-5e-3 -1.182-0.037-0.257 0.078-0.83 0.081-1.719 0.01-0.215-0.028-0.51-0.096-0.887-0.203l-0.257-0.033-0.398 7e-3c-0.312-0.099-0.693-0.178-1.144-0.236-7e-3 0.033 0.065 0.12 0.215 0.26l-0.419 0.12-6e-3 0.029c0.258 0.033 0.384 0.069 0.376 0.107l-5e-3 0.028c-0.322-0.042-0.593-9e-3 -0.811 0.098-0.137 0.026-0.925 1e-3 -2.364-0.074l-0.645-0.084-0.601-0.31-0.129-0.017-6e-3 0.028 0.242 0.119-0.027 0.142c-6e-3 0.033-0.096 0.041-0.268 0.023l-0.258-0.033c-0.172-0.023-0.254-0.053-0.247-0.091-0.173-0.022-0.434-0.036-0.785-0.043-6e-3 0.033 0.076 0.063 0.247 0.09l-0.155 0.125-0.011 0.057 0.387 0.05-6e-3 0.028c-0.648 0.052-1.262 0.04-1.842-0.035-0.505 0.109-0.865 0.149-1.08 0.121l-0.129-0.016 5e-3 -0.029 0.14-0.04-0.757-0.185c-0.688 0.143-1.269 0.184-1.741 0.123-0.147-0.039-0.317-0.071-0.51-0.096l-0.387-0.05c-0.151-0.019-0.5-0.036-1.048-0.049l-0.016 0.086c0.344 0.044 0.639 0.112 0.887 0.202-1.145-3e-3 -1.72 9e-3 -1.725 0.038-0.064-9e-3 -0.351-0.123-0.86-0.344l-0.526-0.011c-4e-3 0.019 0.034 0.053 0.113 0.102l-0.14 0.04c0.079 0.044 0.116 0.088 0.108 0.13-0.144 0.059-0.452 0.058-0.924-3e-3l-0.387-0.05c-0.588-0.154-0.88-0.24-0.876-0.259-0.508 6e-3 -0.777 0.03-0.806 0.07-1.656-0.094-2.492-0.096-2.509-6e-3 -0.046 0.246-1.11 0.282-3.191 0.109-0.599-0.092-0.892-0.169-0.881-0.231l-0.258-0.033-0.263-5e-3c-0.412 0.315-1.09 0.411-2.036 0.288-0.215-0.028-0.507-0.114-0.876-0.259l-0.397 6e-3 -0.253-0.061c-5e-3 0.028-0.098 0.055-0.279 0.08l-5e-3 0.028 0.118 0.073c0.085 0.012 0.131 8e-3 0.134-0.011 0.15 0.019 0.233 0.049 0.247 0.09-6e-3 0.033-0.096 0.041-0.268 0.023l-0.253-0.062c-0.018 0.095-0.634 0.093-1.848-7e-3 -3e-3 0.019 0.038 0.034 0.124 0.045l-0.14 0.04c-0.172-0.022-0.254-0.052-0.247-0.09-0.459 0.096-0.992 0.123-1.601 0.083-0.193-0.025-0.364-0.057-0.51-0.095l-0.264-5e-3c-0.483 0.111-0.886 0.146-1.208 0.104-0.173-0.022-0.253-0.061-0.242-0.118-0.154-1e-3 -0.371-0.019-0.65-0.055-0.857 0.102-1.822 0.083-2.896-0.056 7e-3 -0.038-0.075-0.068-0.247-0.091-0.014 0.076-0.242 0.114-0.682 0.115l-0.129-0.016c-0.172-0.023-0.255-0.053-0.247-0.091-1.03-0.027-1.779-0.027-2.246 0l-1.547-0.201c-0.236-0.031-0.491-0.083-0.763-0.157l-0.779-0.072c-0.172-0.022-0.255-0.052-0.247-0.09l-0.264-5e-3 -0.376-0.107c9e-3 -0.047 0.29-0.137 0.844-0.269 0.086 0.011 0.213 0.038 0.381 0.079 0.086 0.011 0.217 0.018 0.392 0.022l0.253 0.062 0.263 5e-3 0.376 0.107 0.129 0.016c0.261 0.02 0.404-0.039 0.43-0.177l5e-3 -0.028c7e-3 -0.038-0.075-0.068-0.247-0.09 9e-3 -0.047 0.115-0.14 0.317-0.279-0.079-0.049-0.117-0.083-0.113-0.102 0.644-0.265 1.02-0.39 1.128-0.376l-0.118-0.074 0.139-0.04c-0.086-0.011-0.127-0.026-0.123-0.045l0.01-0.057 0.14-0.04 0.639 0.112 0.398-6e-3 0.129 0.017c-0.019 0.099 0.185 0.183 0.613 0.253-7e-3 0.034-0.27 0.028-0.79-0.015-0.02 0.104 0.353 0.23 1.117 0.378 0.433 0.041 0.658 0.012 0.677-0.087l0.022-0.113-0.119-0.074-0.263-5e-3 -0.129-0.017 6e-3 -0.028c5e-3 -0.028 0.182-0.035 0.531-0.018 0.504 0.133 0.744 0.261 0.721 0.384-0.087-0.011-0.131-7e-3 -0.135 0.011l0.645 0.084c0.15 0.02 0.24 0.012 0.269-0.023l-0.242-0.119c0.139-0.04 0.274-0.051 0.403-0.035 0.11-0.121 0.381-0.154 0.811-0.098l-0.118-0.073 0.139-0.04c-0.172-0.023-0.254-0.053-0.247-0.091l0.011-0.056c7e-3 -0.038 0.096-0.046 0.268-0.024l0.129 0.017c0.572 0.123 1.03 0.26 1.376 0.411-4e-3 0.019-0.052 0.042-0.145 0.069l-6e-3 0.028c0.881-0.118 1.548-0.148 1.999-0.09l0.016-0.085c-0.774-0.1-1.139-0.264-1.096-0.491l-0.263-5e-3 -0.516-0.067 5e-3 -0.028c7e-3 -0.038 0.096-0.046 0.269-0.023l0.768 0.128 0.929-0.024 0.258 0.033c0.097 0.187 0.253 0.294 0.468 0.322-0.01 0.052-0.107 0.098-0.29 0.137l0.258 0.034c0.4-0.137 0.944-0.222 1.633-0.254l0.016-0.085c-0.086-0.011-0.131-7e-3 -0.135 0.012-0.172-0.022-0.254-0.052-0.247-0.09l0.016-0.085 0.129 0.016 0.495 0.181 0.386 0.05c0.151 0.019 0.288-0.011 0.414-0.092 0.15 0.02 0.266 0.017 0.28 0.058 0.154 0 0.338 0.051 0.617 0.088l6e-3 -0.029c3e-3 -0.018-0.287-0.114-0.871-0.287l-0.258-0.033c-0.129-0.017-0.265 4e-3 -0.408 0.063-0.387-0.05-0.806-0.163-1.257-0.338 5e-3 -0.028 0.492-0.042 1.461-0.043 0.129 0.017 0.251 0.072 0.365 0.164l0.651 0.055c0.257-0.082 0.526-0.106 0.805-0.069 0.577-0.023 1.015-0.014 1.317 0.025 0.252 0.062 0.376 0.107 0.37 0.135l-0.139 0.04 0.386 0.05c2e-3 -9e-3 0.323-0.074 0.962-0.194l0.129 0.016c-3e-3 0.014 0.074 0.073 0.231 0.176 0.086 0.011 0.131 7e-3 0.134-0.012 0.086 0.011 0.213 0.037 0.382 0.078 0.258 0.034 0.39 0.032 0.397-6e-3l0.016-0.085c8e-3 -0.038-0.204-0.085-0.634-0.141l0.011-0.056c0.129 0.016 0.304 0.02 0.527 0.01l-0.242-0.119 0.139-0.04 0.769 0.129c0.175 3e-3 0.306 0.011 0.392 0.022 0.673 0.165 0.992 0.342 0.956 0.531l0.398-7e-3c0.041-0.217 0.367-0.311 0.978-0.28 0.012-0.066-0.015-0.157-0.081-0.272 0.014-0.075 0.322-0.074 0.924 4e-3l5e-3 -0.029-0.489-0.208 6e-3 -0.029 0.274-0.051 0.891 0.174 0.387 0.05 0.022-0.114-0.129-0.017-0.398 7e-3 -0.258-0.033c-0.172-0.023-0.254-0.053-0.247-0.091l0.016-0.085 1.032 0.134-6e-3 0.028c0.587 0.159 0.877 0.255 0.871 0.288-0.018 0.094-0.158 0.134-0.419 0.12l-0.903-0.117-5e-3 0.028c0.246 0.095 0.409 0.088 0.403 0.121 0.085 0.011 0.088 0.078 0.091 0.059 0.086 0.012 0.228-3e-3 0.397 0.038h0.785c0.204-0.265 0.446-0.379 0.725-0.342 0.258 0.033 0.483 4e-3 0.677-0.087 0.301 0.039 0.686 0.099 1.155 0.179l0.398-7e-3 0.644 0.084 0.64 0.112c0.178-0.011 0.273-0.047 0.285-0.108l0.257 0.033-0.01 0.057 0.258 0.033c3e-3 -0.018 0.051-0.041 0.145-0.068-0.25-0.076-0.374-0.121-0.371-0.135-0.287 1e-3 -0.548-0.013-0.785-0.044l-0.386-0.05c-0.253-0.062-0.376-0.107-0.371-0.135l5e-3 -0.029c7e-3 -0.038 0.272-0.042 0.795-0.013l0.027-0.142c0.15 0.02 0.498 0.046 1.042 0.077 0.169 0.042 0.296 0.068 0.382 0.079 8e-3 -0.043 0.058-0.075 0.15-0.097-0.258-0.033-0.383-0.069-0.376-0.107l0.016-0.085c0.575-0.012 0.976-0.038 1.204-0.076l0.376 0.107c-0.122 0.178-0.273 0.274-0.451 0.29l-6e-3 0.028 0.468 0.323-0.538 0.046-0.021 0.114c-6e-3 0.033 0.076 0.063 0.247 0.09l0.387 0.05 0.398-7e-3c-0.071-0.091-0.225-0.208-0.463-0.35 0.353-3e-3 0.532-0.018 0.538-0.047l-0.242-0.118 5e-3 -0.029c6e-3 -0.033 0.226-0.033 0.661-1e-3l0.252 0.062c4e-3 -0.019 0.049-0.023 0.135-0.012l-0.242-0.119 0.011-0.056 0.139-0.04c-0.129-0.017-0.297-0.058-0.505-0.124l6e-3 -0.028c0.15 0.019 0.467-0.027 0.95-0.139 0.086 0.012 0.213 0.038 0.382 0.079 0.086 0.011 0.216 0.018 0.392 0.022 0.129 0.017 0.251 0.071 0.365 0.164 0.606 0.054 0.92 0.027 0.941-0.082-0.542-0.167-0.833-0.253-0.876-0.259 0.615 7e-3 0.928-0.02 0.94-0.081l0.129 0.016c0.15 0.02 0.232 0.05 0.247 0.091 1.053 0.02 1.583 0.011 1.59-0.027l0.64 0.112 0.66-1e-3 0.607 0.282c-0.139 0.04-0.273 0.052-0.402 0.035l-0.016 0.085-0.14 0.04c-6e-3 0.033 0.084 9e-3 0.255 0.036 0.154-0.115 0.373-0.1 0.674-0.061l6e-3 -0.028-0.355-0.22 0.784 0.043 0.505 0.124c7e-3 -0.038 0.312-0.018 0.914 0.06 0.15 0.02 0.232 0.05 0.247 0.09-0.43 0.061-0.785 0.073-1.064 0.037l-5e-3 0.028c0.163 0.07 0.242 0.119 0.236 0.147 0.194 0.025 0.367 0.038 0.521 0.039l0.253 0.062 0.542-0.075-0.575-0.453 0.011-0.057c0.448-0.038 0.813-0.107 1.096-0.206l0.011-0.057c-0.43-0.056-0.641-0.102-0.634-0.14 5e-3 -0.029 0.444-0.02 1.316 0.025 0.82 0.204 1.327 0.318 1.52 0.343l0.387 0.05-0.016 0.085c-6e-3 0.033-0.096 0.041-0.268 0.023-4e-3 0.019 0.033 0.053 0.112 0.102l-0.139 0.04 0.252 0.062 0.129 0.017 0.011-0.057c0.193 0.025 0.363 0.057 0.51 0.095l0.264 5e-3c6e-3 -0.033-0.071-0.091-0.232-0.175l0.419-0.12-0.128-0.017c0.218-0.223 0.456-0.318 0.714-0.285l0.258 0.034c0.472 0.061 0.764 0.147 0.876 0.259-8e-3 0.042-0.059 0.074-0.151 0.096 0.157 0.103 0.232 0.171 0.226 0.204-0.011 0.057-0.102 0.074-0.274 0.052-4e-3 0.019 0.154 0.117 0.473 0.293l0.129 0.017c0.129 0.017 0.309-8e-3 0.542-0.075l-0.365-0.163 0.016-0.086c0.727-0.118 1.219-0.161 1.477-0.128l-0.118-0.073c-0.419-0.113-0.62-0.216-0.602-0.311-0.688-0.089-1.038-0.096-1.053-0.02-0.172-0.022-0.249-0.081-0.231-0.175-0.609-0.04-0.956-0.066-1.042-0.077l-0.258-0.034 5e-3 -0.028c0.012-0.062 0.153-0.111 0.425-0.149l1.284 0.196c0.429 0.056 0.864 0.083 1.305 0.082 0.172 0.023 0.426 0.075 0.763 0.157 0.34 0.18 0.586 0.28 0.736 0.299 0.015-0.075 0.107-0.102 0.28-0.08l0.972-0.251c-0.086-0.012-0.167-0.051-0.242-0.119l0.14-0.04 1.918 0.336c7e-3 -0.038 0.096-0.046 0.268-0.023l0.129 0.017c0.215 0.027 0.333 0.101 0.355 0.22l-0.011 0.057c-6e-3 0.033-0.096 0.041-0.268 0.023-0.335-0.092-0.5-0.152-0.495-0.18-0.408-0.053-0.725-7e-3 -0.95 0.138 0.149 0.14 0.221 0.227 0.215 0.26l0.263 5e-3c0.172 0.023 0.252 0.062 0.242 0.119l0.258 0.033c0.011-0.061-0.105-0.144-0.35-0.248 0.186-0.054 0.322-0.075 0.408-0.064 0.736 0.067 1.264 0.067 1.585 2e-3l-0.118-0.073 0.027-0.142c0.14-0.04 0.274-0.052 0.403-0.035l0.258 0.034 0.376 0.107c0.012-0.067-0.273-0.191-0.855-0.373l6e-3 -0.028c0.518 0.052 0.781 0.058 0.789 0.015l0.516 0.067 0.022-0.114c-0.086-0.011-0.214-0.037-0.382-0.078-0.154-1e-3 -0.328-0.014-0.521-0.039l0.022-0.113 0.386 0.05 0.769 0.129c0.343 0.044 0.498 0.161 0.462 0.35 0.708 0.446 1.056 0.704 1.042 0.775l-0.026 0.142c0.343 0.044 0.503 0.133 0.478 0.265l0.129 0.017c0.623-0.04 0.937-0.067 0.94-0.081-0.086-0.012-0.217-0.019-0.392-0.022-0.258-0.034-0.384-0.069-0.376-0.107 0.01-0.057 0.23-0.057 0.66-2e-3l-0.102-0.158c0.377-0.13 0.57-0.222 0.58-0.274 0.585 0.168 0.875 0.264 0.871 0.288l-0.027 0.142 0.129 0.016-0.016 0.085c0.079 0.045 0.115 0.088 0.107 0.131l-0.01 0.056-0.274 0.052 0.241 0.119 0.327 0.02 1.112 0.285c0.258 0.033-1.361-0.014-1.369 0.023-7e-3 0.038-0.139 0.04-0.397 7e-3zm-0.317-0.419 0.139-0.04 0.022-0.114-0.129-0.016c-0.012 0.061-0.153 0.111-0.424 0.148-7e-3 0.033 0.075 0.063 0.247 0.09l0.258 0.034c3e-3 -0.019-0.035-0.053-0.113-0.102zm-1.671-0.944-0.258-0.033 0.01-0.057c0.14-0.04 0.274-0.051 0.403-0.035l0.129 0.017-0.016 0.085c-6e-3 0.033-0.096 0.041-0.268 0.023zm-0.349 1.147-0.129-0.017c-0.172-0.022-0.262-0.014-0.269 0.023-6e-3 0.034 0.076 0.064 0.247 0.091l0.129 0.016zm0.262-1.39 0.011-0.057 0.129 0.017-0.011 0.057zm-0.886 0.495-0.515-0.067 0.118 0.074-0.14 0.04 0.129 0.016c0.222-0.01 0.44-1e-3 0.655 0.027 8e-3 -0.037-0.075-0.068-0.247-0.09zm-2.314 1.763-0.258-0.033 5e-3 -0.028c7e-3 -0.038 0.096-0.046 0.269-0.024l0.252 0.062c-6e-3 0.033-0.096 0.041-0.268 0.023zm0.493-1.912c-0.151-0.136-0.312-0.215-0.484-0.237l-0.257-0.034c-0.012 0.062-0.064 0.104-0.156 0.126 0.343 0.044 0.507 0.114 0.489 0.208 0.129 0.017 0.265-4e-3 0.408-0.063zm-2.67 0.845c0.215 0.028 0.672-0.058 1.37-0.258l-1.44-0.07-0.059 0.312zm0.736-1.793c8e-3 -0.043 0.058-0.075 0.15-0.097l-0.118-0.074c0.229-0.047 0.408-0.063 0.537-0.046l0.129 0.017 0.252 0.061c4e-3 -0.019 0.049-0.022 0.135-0.011-0.025 0.132-0.387 0.182-1.085 0.15zm-0.87 1.805-0.263-5e-3c-6e-3 0.033 0.076 0.063 0.247 0.09zm-0.189-1.797 6e-3 -0.029 0.257 0.034-5e-3 0.028zm-0.489-0.209-0.387-0.05c-0.014 0.075-0.15 0.096-0.408 0.063l-0.032 0.17-0.376-0.107-0.65-0.055-0.118-0.074c0.139-0.04 0.274-0.051 0.403-0.034l0.252 0.061-0.102-0.158 0.274-0.052 1.284 0.196 0.397-7e-3 0.258 0.034-5e-3 0.028c-8e-3 0.043-0.271 0.038-0.79-0.015zm-0.155 0.823-0.129-0.017-0.011 0.057 0.129 0.016zm-3.496 2.423 0.01-0.056 0.258 0.033-0.01 0.057zm0.434-1.6 0.011-0.057-0.129-0.016c-0.025 0.132-0.253 0.17-0.682 0.114l-0.011 0.057c0.326 0.023 0.596-0.01 0.811-0.098zm0.161-1.549-0.129-0.016c-0.258-0.034-0.378-0.098-0.36-0.192-0.173-0.023-0.265 4e-3 -0.28 0.08l-0.387-0.051 6e-3 -0.028c0.34-0.053 0.563-0.072 0.671-0.058l0.258 0.033c0.335 0.092 0.5 0.152 0.494 0.181l-5e-3 0.028c-6e-3 0.033-0.096 0.041-0.268 0.023zm-1.488 1.58-0.129-0.016-0.01 0.056 0.128 0.017zm-0.483-0.237-0.129-0.017-0.016 0.086 0.128 0.016zm-0.945 1.505-0.129-0.017c-0.172-0.022-0.262-0.014-0.269 0.024l-5e-3 0.028c0.175 3e-3 0.306 0.011 0.392 0.022zm-0.038-0.499-0.258-0.033-0.027 0.142 0.129 0.016c0.012-0.061 0.064-0.103 0.156-0.125zm-2.272 0.141-0.129-0.016c-4e-3 0.018-0.053 0.041-0.145 0.068l-6e-3 0.028 0.258 0.034zm0.048-0.255 0.01-0.057c8e-3 -0.038-0.075-0.068-0.247-0.09l-0.129-0.017-0.021 0.114 0.16 0.023c0.15 0.02 0.198 0.062 0.227 0.027zm-1.209 0.802-0.376-0.107c7e-3 -0.037 0.097-0.045 0.269-0.023 0.15 0.02 0.233 0.05 0.247 0.09l-0.011 0.057zm-0.258-1.428c-0.344-0.045-0.512-0.086-0.505-0.124l0.011-0.057c0.182-0.034 0.37-0.097 0.564-0.188l5e-3 -0.028c-0.086-0.012-0.131-8e-3 -0.134 0.011l-0.64-0.112c-0.263-5e-3 -0.397 7e-3 -0.403 0.035l-0.016 0.085c0.258 0.034 0.383 0.069 0.376 0.107l-0.016 0.085c-8e-3 0.043-0.058 0.075-0.15 0.097l-5e-3 0.028c0.085 0.011 0.216 0.019 0.392 0.022 0.146 0.039 0.317 0.07 0.51 0.095zm-0.253-0.76-0.129-0.016-0.016 0.085 0.129 0.016zm-3.604 0.899 0.295-0.165c5e-3 -0.024-0.417-0.127-1.263-0.31l-0.129-0.016c-0.222 0.01-0.44 1e-3 -0.655-0.027l-0.016 0.085 1.134 0.292c-0.025 0.133 0.263 0.238 0.865 0.316 6e-3 -0.033-0.071-0.092-0.231-0.175zm-0.893-1.569c-0.252-0.062-0.376-0.107-0.371-0.136 0.014-0.071 0.2-0.124 0.559-0.16 0.253 0.062 0.376 0.107 0.371 0.136l0.263 5e-3 0.129 0.016-0.011 0.057c-0.279-0.036-0.593-9e-3 -0.94 0.082zm-0.279 1.475-0.257-0.034-6e-3 0.029 0.258 0.033zm-0.944 1.505 0.016-0.085 0.258 0.033-6e-3 0.029c-6e-3 0.033-0.096 0.04-0.268 0.023zm0.069-1.067-0.129-0.016c-0.172-0.023-0.261-0.015-0.269 0.023l0.129 0.017c0.151 0.019 0.24 0.012 0.269-0.024zm-1.51-1.096c3e-3 -0.019 0.052-0.042 0.145-0.069-0.251-0.187-0.452-0.291-0.602-0.31l-0.129-0.017-0.156 0.125-0.016 0.085c-0.01 0.057 0.027 0.091 0.113 0.102-4e-3 0.024 0.203 0.089 0.623 0.197l-0.01 0.057-0.806 0.07c-0.029 0.151-0.43 0.176-1.203 0.076l-0.253-0.062c-0.351-7e-3 -0.532 0.018-0.542 0.075l-1.188-9e-3c0.236 0.031 0.489 0.093 0.758 0.186l0.258 0.033 5e-3 -0.028c1.046-0.058 1.665-0.075 1.859-0.05 0.843-0.152 1.431-0.23 1.762-0.236-0.305-0.136-0.511-0.212-0.618-0.225zm-0.477 1.827-0.129-0.017-0.011 0.057 0.129 0.017zm0.08-1.123-0.387-0.05-0.016 0.085 0.387 0.05zm-1.999-0.608-0.258-0.034-0.021 0.114 0.258 0.033zm0.054-0.284-0.387-0.05-6e-3 0.028 0.387 0.05zm-1.058 2.101-0.258-0.034-5e-3 0.029 0.258 0.033zm-2.45-1.016-0.258-0.033-5e-3 0.028 0.118 0.074c0.175 3e-3 0.306 0.01 0.392 0.021 7e-3 -0.037-0.075-0.067-0.247-0.09zm-0.51 0.603c-0.086-0.012-0.125-0.036-0.118-0.074l-0.129-0.017c-0.391 0.085-0.833 0.096-1.327 0.032l-0.505-0.124c-0.348-0.026-0.654-0.036-0.919-0.032-2e-3 0.01 0.073 0.077 0.226 0.204 0.245 0.099 0.365 0.163 0.36 0.192l0.129 0.016c0.036-0.189 0.397-0.239 1.085-0.149 0.172 0.022 0.462 0.118 0.87 0.287 0.04-0.208 0.148-0.32 0.328-0.335zm0.112-0.596-0.129-0.017c-0.172-0.022-0.261-0.014-0.268 0.023l0.387 0.051zm-0.935-0.645-0.258-0.033-5e-3 0.028 0.258 0.034zm-0.391 0.676-0.129-0.017c-0.173-0.022-0.262-0.014-0.269 0.024l0.387 0.05zm-0.35-1.644-0.5-0.152c0.016-0.085 0.241-0.114 0.677-0.086 0.236 0.03 0.442 0.105 0.618 0.225-7e-3 0.033-0.272 0.038-0.795 0.013zm-0.048 0.953-0.258-0.033-6e-3 0.028 0.258 0.033zm-1.661-0.302c-0.086-0.012-0.125-0.036-0.118-0.074l-0.258-0.033c-0.222 0.01-0.44 1e-3 -0.655-0.027l0.118 0.073-0.021 0.114-0.274 0.051-0.027 0.142c-6e-3 0.033 0.076 0.063 0.247 0.09l0.387 0.05 0.016-0.085-0.242-0.118 0.011-0.057c0.541-0.065 0.813-0.108 0.816-0.126zm-1.096-0.491c-0.172-0.023-0.254-0.053-0.247-0.091l0.011-0.056 0.14-0.04c0.15 0.019 0.232 0.049 0.247 0.09l-0.011 0.057zm-1.589 2.118 6e-3 -0.028c-0.431-0.056-0.694-0.061-0.79-0.015l0.118 0.073c0.439 4e-3 0.662-6e-3 0.666-0.03zm-0.43-1.218-0.333-0.334-0.258-0.033-0.043 0.227-0.14 0.04c0.272 0.074 0.526 0.126 0.763 0.157zm-5.013-0.737-0.129-0.017c-0.252-0.062-0.376-0.107-0.371-0.135l0.011-0.057 0.408-0.063c0.856 0.13 1.279 0.224 1.268 0.28l-5e-3 0.029c-0.122 0.061-0.516 0.049-1.182-0.037zm-0.418 0.817c-0.247-0.095-0.365-0.168-0.355-0.22l-0.258-0.034c-4e-3 0.019 0.037 0.034 0.124 0.045l-0.167 0.182-0.016 0.085c0.29-0.02 0.51-0.021 0.661-1e-3zm-0.569 1.612c-0.172-0.022-0.254-0.052-0.247-0.09l5e-3 -0.028 0.387 0.05-6e-3 0.028zm-0.839-2.55 0.01-0.057 0.129 0.017-0.011 0.057zm-0.828 0.183c-0.335-0.092-0.499-0.152-0.494-0.18l0.016-0.085 0.903 0.117c0.15 0.019 0.232 0.049 0.247 0.09l-6e-3 0.028c-0.05 0.033-0.272 0.043-0.666 0.03zm-0.085 0.454c-0.215-0.028-0.427-0.075-0.634-0.14-4e-3 0.019-0.053 0.041-0.145 0.068 0.078 0.049 0.116 0.083 0.112 0.102 0.44 4e-3 0.662-6e-3 0.667-0.03zm-0.79 0.682c-0.163-0.069-0.24-0.128-0.231-0.175l-0.129-0.017c-0.02 0.109-0.076 0.17-0.166 0.182l0.269-0.018c0.15 0.02 0.228 0.063 0.257 0.028zm-2.128-1.322-0.387-0.05c0.14-0.04 0.274-0.052 0.403-0.035l0.253 0.062c-6e-3 0.033-0.096 0.041-0.269 0.023zm-0.193 1.021c-0.172-0.022-0.261-0.014-0.268 0.024l-6e-3 0.028 0.258 0.033zm-0.166 0.182-0.258-0.033-5e-3 0.028c-7e-3 0.033 0.075 0.063 0.247 0.09zm-2.665 0.119-0.129-0.016-0.021 0.113 0.521 0.039c-0.118-0.074-0.242-0.119-0.371-0.136zm-0.709-1.138 0.118 0.074-6e-3 0.028c-6e-3 0.033-0.096 0.041-0.268 0.023l-0.129-0.017-0.253-0.061-0.139 0.04c-0.546-0.028-0.986-0.027-1.322 3e-3l-0.494-0.181-0.263-5e-3c3e-3 -0.019-0.038-0.034-0.124-0.045 0.111-0.121 0.395-0.23 0.854-0.325 0.516 0.067 0.766 0.138 0.752 0.214 0.879 7e-3 1.322-3e-3 1.327-0.032 0.15 0.02 0.312 0.099 0.484 0.237-0.014 0.071-0.193 0.087-0.537 0.047zm-2.815 0.216-0.645-0.084c-0.172-0.022-0.254-0.052-0.247-0.09l5e-3 -0.028c0.194 0.025 0.46 0.011 0.801-0.042l0.257 0.034c-0.111 0.121-0.168 0.191-0.171 0.21zm-2.198-0.256-0.376-0.107 0.14-0.04 0.376 0.107zm-0.617 1.17 5e-3 -0.029c-0.172-0.022-0.261-0.014-0.268 0.024l-6e-3 0.028c0.15 0.02 0.24 0.012 0.269-0.023zm-1.585-2e-3c4e-3 -0.019-0.104 4e-3 -0.182-0.045-0.176-3e-3 -0.237-0.068-0.323-0.079l-0.027 0.142 0.387 0.05c4e-3 -0.019 0.052-0.042 0.145-0.068zm-1.096-1.189-0.129-0.017 0.016-0.085c0.085 0.011 0.216 0.019 0.392 0.022l0.129 0.017-5e-3 0.028c-0.14 0.04-0.274 0.052-0.403 0.035zm-2.783 0.743-0.01 0.057c0.257 0.034 0.383 0.069 0.376 0.107l-0.258-0.033-0.253-0.062-0.161 0.153c0.151 0.02 0.233 0.05 0.247 0.091l-0.01 0.056-0.774-0.1-0.253-0.062c-0.622 0.031-0.935 0.058-0.94 0.082-0.085-0.012-0.127-0.027-0.123-0.046-0.086-0.011-0.217-0.018-0.392-0.021-0.301-0.039-0.497-0.171-0.586-0.396l0.021-0.114c0.34-0.052 0.564-0.072 0.672-0.058l0.628 0.169c0.015-0.076 0.194-0.091 0.538-0.047l0.026-0.141c-0.193-0.025-0.363-0.057-0.51-0.096l0.274-0.051-0.258-0.034c-6e-3 0.033-0.101 0.07-0.285 0.109l0.119 0.073-0.14 0.04-0.629-0.169c0.105-0.088 0.159-0.139 0.161-0.153 0.015-0.076 0.592-0.098 1.73-0.066l0.5 0.152c-9e-3 0.047-0.186 0.053-0.532 0.018l0.118 0.073 0.264 5e-3 0.644 0.084c0.258 0.034 0.457 0.147 0.597 0.339-0.319 0.056-0.586 0.069-0.801 0.041zm0.414 0.606 0.011-0.056 0.129 0.016-0.011 0.057zm-0.452-1.104 0.011-0.057 0.129 0.016-0.011 0.057zm-0.064-0.358 0.016-0.085 0.258 0.034-0.016 0.085zm-0.913 0.638c-0.01 0.052-0.237 0.09-0.682 0.114l-6e-3 0.029c0.258 0.033 0.38 0.088 0.366 0.164l0.386 0.05c0.093-0.143 0.237-0.202 0.43-0.177-0.2-0.103-0.365-0.164-0.494-0.18zm-1.268 1.114c-0.171-0.022-0.254-0.052-0.247-0.09l0.14-0.04c0.151 0.019 0.233 0.049 0.247 0.09zm-0.225-0.204 0.01-0.056 0.129 0.016-0.01 0.057z" fill="none" stroke="#fff" stroke-width=".151"/></g><g transform="translate(75.422 105.39)"><path d="m0 0-1.588 1.605c0.344 0.131 0.61 0.345 0.801 0.643s0.287 0.667 0.287 1.107c0 0.296-0.044 0.562-0.131 0.799-0.087 0.238-0.212 0.44-0.377 0.607-0.164 0.167-0.365 0.295-0.601 0.385-0.237 0.089-0.505 0.134-0.805 0.134h-3.784v-5.28h0.913v4.358h2.871c0.319 0 0.567-0.084 0.743-0.251s0.265-0.422 0.265-0.766-0.085-0.607-0.254-0.788c-0.169-0.182-0.421-0.272-0.754-0.272h-3.773l0.782-0.814h2.766l1.334-1.467zm8.489 0-3.038 5.055c-0.053 0.092-0.115 0.165-0.185 0.218s-0.156 0.08-0.257 0.08-0.188-0.027-0.261-0.08c-0.072-0.053-0.135-0.126-0.188-0.218l-3.031-5.055h1.052l2.392 4.053 1.174-1.976h-2.323l-1.465-0.748h4.23l0.79-1.329zm5.023 0c0.372 0 0.715 0.069 1.029 0.207 0.315 0.138 0.585 0.327 0.812 0.566 0.227 0.24 0.405 0.525 0.533 0.854s0.192 0.685 0.192 1.068c0 0.382-0.064 0.732-0.192 1.049s-0.306 0.589-0.533 0.817-0.497 0.404-0.812 0.53c-0.314 0.126-0.657 0.189-1.029 0.189h-3.052v-5.28zm-2.138 0.922v3.436h2.138c0.237 0 0.456-0.043 0.656-0.127 0.201-0.085 0.375-0.203 0.522-0.353s0.262-0.33 0.344-0.541c0.083-0.21 0.124-0.439 0.124-0.686s-0.041-0.477-0.124-0.69c-0.082-0.213-0.197-0.396-0.344-0.548-0.147-0.153-0.321-0.273-0.522-0.36-0.2-0.087-0.419-0.131-0.656-0.131zm7.836 4.358h-0.921v-5.28h0.921zm6.06-5.28c0.377 0 0.722 0.069 1.037 0.207 0.314 0.138 0.586 0.327 0.815 0.566 0.23 0.24 0.408 0.525 0.537 0.854 0.128 0.329 0.192 0.685 0.192 1.068 0 0.382-0.063 0.732-0.189 1.049s-0.302 0.589-0.529 0.817-0.499 0.404-0.816 0.53c-0.316 0.126-0.665 0.189-1.047 0.189h-1.283c-0.367 0-0.707-0.062-1.019-0.185-0.311-0.124-0.582-0.298-0.812-0.523-0.229-0.225-0.408-0.497-0.536-0.817s-0.192-0.673-0.192-1.06c0-0.383 0.064-0.739 0.192-1.068s0.307-0.614 0.536-0.854c0.23-0.239 0.501-0.428 0.812-0.566 0.312-0.138 0.652-0.207 1.019-0.207zm-1.283 0.922c-0.237 0-0.456 0.044-0.656 0.131-0.201 0.087-0.373 0.207-0.518 0.36-0.145 0.152-0.259 0.335-0.341 0.548s-0.123 0.443-0.123 0.69c0 0.252 0.041 0.482 0.123 0.69s0.196 0.387 0.341 0.537 0.317 0.268 0.518 0.353c0.2 0.084 0.419 0.127 0.656 0.127h1.283c0.242 0 0.464-0.043 0.667-0.127 0.203-0.085 0.378-0.203 0.525-0.353 0.148-0.15 0.263-0.33 0.345-0.541 0.082-0.21 0.123-0.439 0.123-0.686s-0.041-0.477-0.123-0.69-0.197-0.396-0.345-0.548c-0.147-0.153-0.322-0.273-0.525-0.36s-0.425-0.131-0.667-0.131z" fill="#fff"/></g><g transform="translate(75.422 105.39)"><path d="m0 0-1.588 1.605c0.344 0.131 0.61 0.345 0.801 0.643s0.287 0.667 0.287 1.107c0 0.296-0.044 0.562-0.131 0.799-0.087 0.238-0.212 0.44-0.377 0.607-0.164 0.167-0.365 0.295-0.601 0.385-0.237 0.089-0.505 0.134-0.805 0.134h-3.784v-5.28h0.913v4.358h2.871c0.319 0 0.567-0.084 0.743-0.251s0.265-0.422 0.265-0.766-0.085-0.607-0.254-0.788c-0.169-0.182-0.421-0.272-0.754-0.272h-3.773l0.782-0.814h2.766l1.334-1.467zm8.489 0-3.038 5.055c-0.053 0.092-0.115 0.165-0.185 0.218s-0.156 0.08-0.257 0.08-0.188-0.027-0.261-0.08c-0.072-0.053-0.135-0.126-0.188-0.218l-3.031-5.055h1.052l2.392 4.053 1.174-1.976h-2.323l-1.465-0.748h4.23l0.79-1.329zm5.023 0c0.372 0 0.715 0.069 1.029 0.207 0.315 0.138 0.585 0.327 0.812 0.566 0.227 0.24 0.405 0.525 0.533 0.854s0.192 0.685 0.192 1.068c0 0.382-0.064 0.732-0.192 1.049s-0.306 0.589-0.533 0.817-0.497 0.404-0.812 0.53c-0.314 0.126-0.657 0.189-1.029 0.189h-3.052v-5.28zm-2.138 0.922v3.436h2.138c0.237 0 0.456-0.043 0.656-0.127 0.201-0.085 0.375-0.203 0.522-0.353s0.262-0.33 0.344-0.541c0.083-0.21 0.124-0.439 0.124-0.686s-0.041-0.477-0.124-0.69c-0.082-0.213-0.197-0.396-0.344-0.548-0.147-0.153-0.321-0.273-0.522-0.36-0.2-0.087-0.419-0.131-0.656-0.131zm7.836 4.358h-0.921v-5.28h0.921zm6.06-5.28c0.377 0 0.722 0.069 1.037 0.207 0.314 0.138 0.586 0.327 0.815 0.566 0.23 0.24 0.408 0.525 0.537 0.854 0.128 0.329 0.192 0.685 0.192 1.068 0 0.382-0.063 0.732-0.189 1.049s-0.302 0.589-0.529 0.817-0.499 0.404-0.816 0.53c-0.316 0.126-0.665 0.189-1.047 0.189h-1.283c-0.367 0-0.707-0.062-1.019-0.185-0.311-0.124-0.582-0.298-0.812-0.523-0.229-0.225-0.408-0.497-0.536-0.817s-0.192-0.673-0.192-1.06c0-0.383 0.064-0.739 0.192-1.068s0.307-0.614 0.536-0.854c0.23-0.239 0.501-0.428 0.812-0.566 0.312-0.138 0.652-0.207 1.019-0.207zm-1.283 0.922c-0.237 0-0.456 0.044-0.656 0.131-0.201 0.087-0.373 0.207-0.518 0.36-0.145 0.152-0.259 0.335-0.341 0.548s-0.123 0.443-0.123 0.69c0 0.252 0.041 0.482 0.123 0.69s0.196 0.387 0.341 0.537 0.317 0.268 0.518 0.353c0.2 0.084 0.419 0.127 0.656 0.127h1.283c0.242 0 0.464-0.043 0.667-0.127 0.203-0.085 0.378-0.203 0.525-0.353 0.148-0.15 0.263-0.33 0.345-0.541 0.082-0.21 0.123-0.439 0.123-0.686s-0.041-0.477-0.123-0.69-0.197-0.396-0.345-0.548c-0.147-0.153-0.322-0.273-0.525-0.36s-0.425-0.131-0.667-0.131z" fill="none" stroke="#fff" stroke-linejoin="bevel" stroke-miterlimit="1" stroke-width=".097"/></g><g transform="translate(84.423 133.09)"><path d="m0 0c0.217 0.642 0.57 1.164 1.068 1.587 0.352 0.299 0.75 0.517 1.198 0.661 3e-3 -0.047 3e-3 -0.088 9e-3 -0.129 0.037-0.248 0.23-0.398 0.504-0.403 1.088-0.02 1.985-0.442 2.661-1.3 0.479-0.607 0.687-1.308 0.658-2.08-3e-3 -0.079-0.02-0.159-0.01-0.236 0.027-0.223 0.209-0.386 0.434-0.399 0.029-2e-3 0.057 0 0.113 0-0.081-0.165-0.144-0.316-0.226-0.456-0.283-0.482-0.641-0.908-1.008-1.326-0.932-1.063-1.938-2.054-2.968-3.019-0.779-0.729-1.573-1.441-2.36-2.16-0.017-0.015-0.035-0.029-0.063-0.052-0.103 0.091-0.206 0.18-0.308 0.271-1.546 1.378-3.067 2.782-4.491 4.287-0.497 0.526-0.971 1.072-1.404 1.655-0.918 1.237-0.826 3.064 0.198 4.263 0.615 0.721 1.397 1.136 2.341 1.227 1.534 0.148 2.968-0.718 3.56-2.14 0.031-0.075 0.057-0.152 0.094-0.251" fill="#fff"/></g><g transform="translate(78.86 128.48)"><path d="m0 0c-0.321-0.287-0.637-0.57-0.96-0.859-0.167 0.148-0.33 0.29-0.491 0.434-1.455 1.302-2.886 2.628-4.232 4.043-0.527 0.554-1.032 1.125-1.485 1.742-1.358 1.852-0.47 4.777 2.04 5.402 1.688 0.42 3.398-0.46 4.067-2.067 0.029-0.071 0.053-0.145 0.084-0.229 0.43 1.162 1.216 1.938 2.399 2.273 0.966 0.274 1.895 0.139 2.751-0.387 1.756-1.079 2.03-3.235 1.31-4.546-0.086 0.106-0.166 0.214-0.255 0.313-0.882 0.981-1.982 1.449-3.299 1.348-1.869-0.144-3.351-1.548-3.618-3.41-0.156-1.091 0.092-2.084 0.78-2.955 0.259-0.327 0.529-0.647 0.794-0.97 0.035-0.042 0.072-0.083 0.115-0.132" fill="#fff"/></g><g transform="translate(87.367 135.73)"><path d="m0 0c-0.045 0-0.128-2e-3 -0.21 0-0.138 4e-3 -0.246 0.105-0.247 0.231-2e-3 0.126 0.112 0.242 0.247 0.246 2.218 0.059 4.311-1.462 4.764-3.753 0.08-0.401 0.106-0.808 0.066-1.217-0.015-0.145-0.144-0.259-0.282-0.244-0.139 0.014-0.236 0.134-0.225 0.275 0.076 0.975-0.161 1.869-0.73 2.662-0.752 1.047-1.785 1.625-3.061 1.777-0.094 0.011-0.19 0.014-0.322 0.023" fill="#fff"/></g><g transform="translate(90.812 131.55)"><path d="m0 0c4e-3 1.665-1.171 3.111-2.802 3.453-0.258 0.054-0.527 0.062-0.791 0.091-0.01 1e-3 -0.02 0-0.03 1e-3 -0.126 5e-3 -0.202 0.068-0.201 0.169s0.087 0.177 0.21 0.175c0.138-3e-3 0.277-6e-3 0.414-0.021 0.865-0.094 1.632-0.42 2.281-1.003 0.718-0.645 1.145-1.449 1.256-2.409 0.029-0.25 0.01-0.505 7e-3 -0.758-2e-3 -0.099-0.099-0.176-0.195-0.17s-0.165 0.083-0.162 0.187c2e-3 0.102 9e-3 0.204 0.013 0.285" fill="#fff"/></g></g></g></svg>
