<svg width="800" height="148.08" version="1.1" viewBox="0 0 800 148.08" xml:space="preserve" xmlns="http://www.w3.org/2000/svg"><g transform="matrix(1.3333 0 0 -1.3333 -636.34 567.03)"><g transform="matrix(5.8261 0 0 5.8261 477.25 314.21)"><path d="m0 0h69.438l2.52 13.753c-0.863-0.329-2.935-1.017-4.542-1.321-19.532-3.685-45.019 7.568-64.697 2.521z" fill="#002c42"/></g><g transform="matrix(5.8261 0 0 5.8261 881.81 314.21)"><path d="m0 0h31.201l2.346 12.901c-0.616 0.344-1.053 0.562-1.053 0.562-14.655 6.237-23.173 2.24-29.973 0.29z" fill="#8198a4"/></g><g transform="matrix(5.8261 0 0 5.8261 -2303.3 -1516.4)"><g transform="translate(555.62 321.53)"><path d="m0 0c0-0.325-0.054-0.625-0.16-0.901-0.107-0.276-0.256-0.523-0.448-0.741-0.192-0.217-0.42-0.403-0.685-0.558-0.266-0.154-0.557-0.273-0.874-0.354 0.133-0.258 0.269-0.53 0.409-0.817l1.106-2.41h-1.802l-1.238 3.017h-0.155l-0.575-3.017h-1.514l1.415 7.461c0.302 0.015 0.632 0.026 0.989 0.033 0.358 7e-3 0.739 0.011 1.144 0.011 0.825 0 1.43-0.149 1.813-0.448 0.383-0.298 0.575-0.724 0.575-1.276m-1.625-0.287c0 0.243-0.079 0.429-0.238 0.558-0.158 0.128-0.418 0.193-0.779 0.193-0.125 0-0.24-2e-3 -0.342-5e-3 -0.104-4e-3 -0.189-0.013-0.255-0.028l-0.387-2.056c0.052-7e-3 0.113-0.013 0.183-0.017 0.07-3e-3 0.16-5e-3 0.27-5e-3 0.229 0 0.437 0.033 0.625 0.099s0.35 0.161 0.486 0.282c0.137 0.122 0.244 0.265 0.321 0.431s0.116 0.348 0.116 0.548" fill="#002c42"/></g><g transform="translate(561.42 321.18)"><path d="m0 0c-0.118-0.597-0.224-1.146-0.32-1.647s-0.186-0.973-0.271-1.415-0.16-0.857-0.227-1.243c-0.066-0.387-0.129-0.761-0.188-1.122h-1.47c0.052 0.213 0.116 0.449 0.194 0.707 0.077 0.258 0.175 0.56 0.292 0.906h-0.022c-0.11-0.198-0.241-0.401-0.392-0.607-0.151-0.207-0.32-0.393-0.509-0.558-0.187-0.166-0.392-0.303-0.613-0.409-0.221-0.107-0.46-0.161-0.718-0.161-0.428 0-0.754 0.138-0.979 0.415-0.225 0.276-0.337 0.713-0.337 1.31 0 0.523 0.072 1.026 0.216 1.509 0.143 0.482 0.361 0.908 0.652 1.276s0.659 0.663 1.106 0.884c0.445 0.222 0.97 0.332 1.574 0.332 0.34 0 0.679-0.015 1.017-0.044 0.339-0.03 0.671-0.074 0.995-0.133m-1.702-1.094c-0.081 0.022-0.168 0.04-0.26 0.055s-0.197 0.022-0.315 0.022c-0.295 0-0.551-0.079-0.768-0.237-0.217-0.159-0.398-0.361-0.541-0.608-0.144-0.248-0.251-0.52-0.321-0.819-0.07-0.298-0.105-0.583-0.105-0.856 0-0.25 0.031-0.431 0.094-0.542 0.062-0.11 0.156-0.165 0.281-0.165 0.177 0 0.367 0.094 0.57 0.281 0.202 0.188 0.392 0.424 0.569 0.708 0.177 0.283 0.333 0.589 0.47 0.917 0.136 0.328 0.226 0.632 0.271 0.912z" fill="#002c42"/></g><g transform="translate(566.78 317.73)"><path d="m0 0c-0.029-0.14-0.059-0.298-0.089-0.475-0.029-0.177-0.06-0.354-0.093-0.531s-0.065-0.35-0.094-0.519c-0.03-0.17-0.056-0.321-0.078-0.453h-1.47c0.037 0.213 0.096 0.449 0.177 0.707s0.18 0.56 0.298 0.906h-0.022c-0.11-0.199-0.241-0.401-0.392-0.608-0.151-0.206-0.32-0.392-0.509-0.558-0.187-0.166-0.392-0.302-0.613-0.409-0.221-0.106-0.46-0.16-0.718-0.16-0.428 0-0.754 0.138-0.979 0.415-0.225 0.276-0.337 0.712-0.337 1.31 0 0.523 0.072 1.025 0.216 1.508s0.362 0.908 0.654 1.277c0.292 0.368 0.661 0.663 1.108 0.884s0.973 0.332 1.579 0.332c0.081 0 0.164-4e-3 0.249-0.011 0.085-8e-3 0.183-0.019 0.294-0.033l0.476 2.509h1.504zm-1.056 2.355c-0.081 0.022-0.168 0.04-0.26 0.055s-0.197 0.022-0.316 0.022c-0.295 0-0.552-0.079-0.77-0.238-0.218-0.158-0.399-0.361-0.543-0.607-0.144-0.248-0.251-0.52-0.321-0.819-0.07-0.298-0.105-0.584-0.105-0.856 0-0.251 0.031-0.431 0.094-0.542s0.157-0.166 0.282-0.166c0.178 0 0.368 0.094 0.571 0.282s0.393 0.424 0.571 0.708c0.177 0.283 0.334 0.589 0.471 0.917 0.136 0.328 0.227 0.632 0.271 0.912z" fill="#002c42"/></g><g transform="translate(569.29 315.75)"><path d="m0 0h-1.492l1.006 5.262 0.044 0.232h1.492zm1.548 7.229c0-0.147-0.028-0.282-0.083-0.403-0.055-0.122-0.131-0.227-0.227-0.315-0.096-0.089-0.203-0.157-0.32-0.205-0.118-0.048-0.244-0.072-0.376-0.072-0.258 0-0.468 0.087-0.63 0.26-0.163 0.173-0.244 0.37-0.244 0.591 0 0.14 0.028 0.269 0.084 0.387 0.055 0.118 0.13 0.221 0.226 0.31 0.096 0.088 0.203 0.156 0.321 0.204 0.117 0.048 0.243 0.072 0.375 0.072 0.251 0 0.459-0.085 0.625-0.254 0.166-0.17 0.249-0.361 0.249-0.575" fill="#002c42"/></g><g transform="translate(576.32 319.36)"><path d="m0 0c0-0.567-0.092-1.08-0.276-1.536-0.185-0.457-0.431-0.848-0.741-1.172-0.309-0.324-0.665-0.573-1.066-0.746-0.402-0.173-0.82-0.26-1.255-0.26-0.789 0-1.35 0.173-1.686 0.519-0.335 0.347-0.503 0.829-0.503 1.448 0 0.583 0.092 1.106 0.277 1.57 0.184 0.464 0.429 0.857 0.735 1.178 0.305 0.32 0.661 0.567 1.066 0.74s0.829 0.26 1.272 0.26c0.397 0 0.735-0.05 1.011-0.149 0.276-0.1 0.501-0.238 0.674-0.415s0.298-0.389 0.376-0.636 0.116-0.514 0.116-0.801m-1.57-0.207c0 0.294-0.064 0.518-0.193 0.672s-0.344 0.231-0.647 0.231c-0.243 0-0.46-0.068-0.652-0.203-0.192-0.136-0.353-0.311-0.486-0.524s-0.234-0.449-0.304-0.71c-0.07-0.26-0.105-0.516-0.105-0.765 0-0.279 0.059-0.5 0.177-0.661 0.117-0.162 0.327-0.243 0.63-0.243 0.243 0 0.46 0.063 0.652 0.188 0.192 0.124 0.357 0.29 0.498 0.495 0.139 0.206 0.246 0.441 0.32 0.705s0.11 0.536 0.11 0.815" fill="#002c42"/></g></g><g transform="matrix(5.8261 0 0 5.8261 -2303.3 -1516.4)"><g transform="translate(486.26 321.88)"><path d="m0 0c-0.155 0.059-0.322 0.101-0.503 0.127s-0.348 0.039-0.503 0.039c-0.457 0-0.785-0.092-0.984-0.275s-0.298-0.392-0.298-0.626c0-0.176 0.051-0.328 0.155-0.456 0.103-0.128 0.234-0.25 0.392-0.363 0.158-0.114 0.33-0.229 0.514-0.347s0.356-0.254 0.514-0.409 0.289-0.337 0.392-0.547c0.104-0.21 0.155-0.466 0.155-0.768 0-0.369-0.077-0.712-0.232-1.028-0.155-0.317-0.372-0.596-0.652-0.835s-0.612-0.427-0.995-0.564c-0.383-0.136-0.807-0.204-1.271-0.204-0.251 0-0.505 0.015-0.763 0.044-0.258 0.03-0.49 0.067-0.696 0.111l0.376 1.437c0.184-0.067 0.377-0.12 0.58-0.161 0.203-0.04 0.403-0.061 0.602-0.061 0.457 0 0.802 0.087 1.034 0.26s0.348 0.418 0.348 0.735c0 0.17-0.052 0.317-0.155 0.443-0.103 0.125-0.232 0.241-0.387 0.348-0.154 0.106-0.324 0.217-0.508 0.331s-0.354 0.247-0.508 0.398c-0.155 0.151-0.284 0.33-0.387 0.536-0.104 0.206-0.155 0.457-0.155 0.752 0 0.346 0.062 0.674 0.188 0.984 0.125 0.309 0.311 0.58 0.558 0.812s0.556 0.416 0.929 0.553c0.372 0.136 0.808 0.204 1.309 0.204 0.229 0 0.452-9e-3 0.669-0.028 0.217-0.018 0.429-0.05 0.636-0.094z" fill="#fff"/></g><g transform="translate(490.86 319.88)"><path d="m0 0c-0.281 0.133-0.566 0.199-0.854 0.199-0.274 0-0.511-0.068-0.711-0.205-0.199-0.136-0.366-0.309-0.499-0.519s-0.231-0.444-0.294-0.702-0.094-0.508-0.094-0.752c0-0.258 0.066-0.477 0.2-0.657 0.133-0.181 0.378-0.271 0.733-0.271 0.178 0 0.36 0.022 0.545 0.066s0.359 0.107 0.522 0.188l0.078-1.282c-0.214-0.082-0.461-0.153-0.741-0.216-0.28-0.062-0.56-0.094-0.84-0.094-0.368 0-0.683 0.047-0.945 0.138-0.262 0.093-0.475 0.222-0.641 0.387-0.166 0.166-0.287 0.369-0.365 0.608-0.077 0.24-0.116 0.507-0.116 0.802 0 0.523 0.076 1.015 0.227 1.475 0.151 0.461 0.366 0.863 0.646 1.205 0.28 0.343 0.621 0.614 1.023 0.813 0.402 0.198 0.853 0.298 1.354 0.298 0.199 0 0.409-0.019 0.63-0.055 0.221-0.037 0.427-0.093 0.619-0.166z" fill="#fff"/></g><g transform="translate(496.06 315.75)"><path d="m0 0h-1.492l0.663 3.427c0.059 0.317 0.064 0.543 0.017 0.68-0.048 0.136-0.153 0.204-0.315 0.204-0.17 0-0.351-0.09-0.542-0.271-0.192-0.181-0.376-0.41-0.553-0.691-0.177-0.28-0.335-0.589-0.475-0.928s-0.24-0.667-0.299-0.984l-0.265-1.437h-1.492l1.536 8.069h1.493l-0.42-2.255c-0.045-0.25-0.115-0.525-0.21-0.823-0.096-0.298-0.225-0.658-0.387-1.078l0.022-0.011c0.125 0.228 0.265 0.448 0.42 0.658s0.326 0.392 0.514 0.547 0.39 0.278 0.608 0.37c0.217 0.092 0.455 0.138 0.713 0.138 0.265 0 0.486-0.044 0.663-0.132 0.177-0.089 0.313-0.214 0.409-0.376s0.153-0.354 0.171-0.575c0.019-0.221 2e-3 -0.464-0.05-0.73z" fill="#fff"/></g><g transform="translate(503.57 315.75)"><path d="m0 0h-1.68l-0.265 2.167c-0.023 0.191-0.041 0.392-0.056 0.602s-0.022 0.433-0.022 0.669h-0.011c-0.037-0.081-0.1-0.216-0.188-0.403-0.088-0.189-0.188-0.4-0.298-0.636-0.111-0.236-0.229-0.483-0.354-0.741s-0.242-0.501-0.348-0.729c-0.107-0.229-0.201-0.428-0.282-0.597-0.081-0.17-0.137-0.28-0.166-0.332h-1.514l-0.531 5.063-0.044 0.431h1.57l0.148-1.857c0.021-0.273 0.04-0.549 0.058-0.829 0.017-0.28 0.03-0.564 0.037-0.851h0.011c0.029 0.066 0.084 0.189 0.166 0.37 0.081 0.18 0.177 0.388 0.287 0.624 0.111 0.236 0.228 0.488 0.354 0.757 0.125 0.27 0.245 0.526 0.359 0.769s0.214 0.455 0.299 0.635c0.084 0.181 0.145 0.308 0.182 0.382h1.426l0.221-1.857c0.037-0.31 0.062-0.605 0.077-0.884 0.015-0.281 0.029-0.55 0.044-0.808h0.011c0.037 0.089 0.1 0.234 0.188 0.437 0.089 0.203 0.192 0.433 0.31 0.691s0.241 0.53 0.37 0.818c0.129 0.287 0.249 0.556 0.359 0.807 0.111 0.25 0.209 0.47 0.293 0.658 0.085 0.187 0.142 0.311 0.172 0.37l1.448-0.409z" fill="#fff"/></g><g transform="translate(511.48 321.18)"><path d="m0 0c-0.118-0.597-0.225-1.146-0.321-1.647-0.095-0.501-0.186-0.973-0.27-1.415-0.085-0.442-0.16-0.857-0.227-1.243-0.066-0.387-0.129-0.761-0.188-1.122h-1.47c0.052 0.213 0.116 0.449 0.193 0.707 0.078 0.258 0.175 0.56 0.293 0.906h-0.022c-0.11-0.198-0.241-0.401-0.392-0.607-0.151-0.207-0.321-0.393-0.509-0.558-0.187-0.166-0.392-0.303-0.613-0.409-0.221-0.107-0.461-0.161-0.719-0.161-0.427 0-0.753 0.138-0.978 0.415-0.225 0.276-0.337 0.713-0.337 1.31 0 0.523 0.072 1.026 0.216 1.509 0.143 0.482 0.361 0.908 0.652 1.276s0.659 0.663 1.105 0.884c0.446 0.222 0.971 0.332 1.575 0.332 0.339 0 0.678-0.015 1.017-0.044 0.339-0.03 0.671-0.074 0.995-0.133m-1.702-1.094c-0.082 0.022-0.168 0.04-0.26 0.055s-0.197 0.022-0.315 0.022c-0.295 0-0.551-0.079-0.768-0.237-0.218-0.159-0.398-0.361-0.542-0.608-0.144-0.248-0.25-0.52-0.32-0.819-0.07-0.298-0.105-0.583-0.105-0.856 0-0.25 0.031-0.431 0.094-0.542 0.062-0.11 0.156-0.165 0.281-0.165 0.177 0 0.367 0.094 0.57 0.281 0.202 0.188 0.392 0.424 0.569 0.708 0.177 0.283 0.333 0.589 0.47 0.917 0.136 0.328 0.226 0.632 0.271 0.912z" fill="#fff"/></g><g transform="translate(515.78 319.9)"><path d="m0 0c-0.229 0.067-0.457 0.039-0.686-0.083-0.228-0.121-0.438-0.315-0.629-0.58-0.192-0.265-0.367-0.594-0.526-0.984-0.158-0.391-0.281-0.829-0.37-1.315l-0.221-1.183h-1.492l0.553 2.874c0.036 0.184 0.077 0.392 0.121 0.624 0.044 0.233 0.087 0.466 0.127 0.702 0.041 0.236 0.081 0.468 0.122 0.697 0.04 0.228 0.072 0.427 0.094 0.597h1.448c-0.037-0.207-0.09-0.431-0.161-0.675-0.069-0.243-0.167-0.538-0.292-0.884h0.022c0.14 0.28 0.285 0.533 0.436 0.757 0.151 0.225 0.317 0.411 0.498 0.559 0.18 0.147 0.372 0.254 0.575 0.32 0.202 0.066 0.436 0.077 0.701 0.033z" fill="#fff"/></g><g transform="translate(520.26 320.16)"><path d="m0 0-2.454-3.029c0.052 0 0.122 2e-3 0.21 6e-3 0.089 3e-3 0.184 5e-3 0.288 5e-3h1.425l-0.265-1.393h-3.857l0.21 1.084 2.497 3.073c-0.11-8e-3 -0.202-0.013-0.276-0.017-0.073-4e-3 -0.195-6e-3 -0.365-6e-3h-1.227l0.266 1.36h3.769z" fill="#fff"/></g><g transform="translate(526.9 315.75)"><path d="m0 0h-1.68l-0.265 2.167c-0.023 0.191-0.041 0.392-0.056 0.602s-0.022 0.433-0.022 0.669h-0.011c-0.037-0.081-0.099-0.216-0.188-0.403-0.088-0.189-0.188-0.4-0.298-0.636-0.111-0.236-0.229-0.483-0.354-0.741s-0.241-0.501-0.348-0.729c-0.107-0.229-0.201-0.428-0.282-0.597-0.081-0.17-0.136-0.28-0.166-0.332h-1.514l-0.531 5.063-0.044 0.431h1.57l0.148-1.857c0.021-0.273 0.04-0.549 0.058-0.829s0.03-0.564 0.037-0.851h0.011c0.029 0.066 0.085 0.189 0.166 0.37 0.081 0.18 0.177 0.388 0.287 0.624 0.111 0.236 0.229 0.488 0.354 0.757 0.125 0.27 0.245 0.526 0.359 0.769s0.214 0.455 0.298 0.635c0.085 0.181 0.146 0.308 0.183 0.382h1.426l0.221-1.857c0.037-0.31 0.063-0.605 0.077-0.884 0.015-0.281 0.03-0.55 0.044-0.808h0.012c0.036 0.089 0.099 0.234 0.188 0.437 0.088 0.203 0.191 0.433 0.309 0.691s0.241 0.53 0.37 0.818c0.129 0.287 0.249 0.556 0.36 0.807 0.11 0.25 0.208 0.47 0.293 0.658 0.084 0.187 0.141 0.311 0.171 0.37l1.448-0.409z" fill="#fff"/></g><g transform="translate(534.8 321.18)"><path d="m0 0c-0.118-0.597-0.225-1.146-0.321-1.647-0.095-0.501-0.186-0.973-0.27-1.415-0.085-0.442-0.161-0.857-0.227-1.243-0.066-0.387-0.129-0.761-0.188-1.122h-1.47c0.051 0.213 0.116 0.449 0.193 0.707 0.078 0.258 0.175 0.56 0.293 0.906h-0.022c-0.11-0.198-0.241-0.401-0.392-0.607-0.151-0.207-0.321-0.393-0.509-0.558-0.188-0.166-0.392-0.303-0.613-0.409-0.221-0.107-0.461-0.161-0.719-0.161-0.427 0-0.753 0.138-0.978 0.415-0.225 0.276-0.337 0.713-0.337 1.31 0 0.523 0.072 1.026 0.216 1.509 0.143 0.482 0.361 0.908 0.652 1.276s0.659 0.663 1.105 0.884c0.446 0.222 0.971 0.332 1.575 0.332 0.339 0 0.678-0.015 1.017-0.044 0.339-0.03 0.671-0.074 0.995-0.133m-1.702-1.094c-0.082 0.022-0.168 0.04-0.26 0.055s-0.197 0.022-0.315 0.022c-0.295 0-0.551-0.079-0.768-0.237-0.218-0.159-0.398-0.361-0.542-0.608-0.144-0.248-0.25-0.52-0.321-0.819-0.07-0.298-0.105-0.583-0.105-0.856 0-0.25 0.032-0.431 0.094-0.542 0.063-0.11 0.157-0.165 0.282-0.165 0.177 0 0.367 0.094 0.57 0.281 0.202 0.188 0.392 0.424 0.569 0.708 0.177 0.283 0.333 0.589 0.47 0.917 0.136 0.328 0.226 0.632 0.27 0.912z" fill="#fff"/></g><g transform="translate(536.67 315.75)"><path d="m0 0h-1.492l1.536 8.069h1.492z" fill="#fff"/></g><g transform="translate(543.07 317.73)"><path d="m0 0c-0.03-0.14-0.059-0.298-0.088-0.475-0.03-0.177-0.061-0.354-0.095-0.531-0.033-0.177-0.064-0.35-0.094-0.519-0.029-0.17-0.055-0.321-0.077-0.453h-1.47c0.037 0.213 0.096 0.449 0.177 0.707s0.18 0.56 0.298 0.906h-0.022c-0.11-0.199-0.241-0.401-0.392-0.608-0.151-0.206-0.321-0.392-0.509-0.558s-0.392-0.302-0.613-0.409c-0.221-0.106-0.461-0.16-0.718-0.16-0.428 0-0.754 0.138-0.979 0.415-0.225 0.276-0.337 0.712-0.337 1.31 0 0.523 0.072 1.025 0.216 1.508s0.362 0.908 0.654 1.277c0.291 0.368 0.661 0.663 1.108 0.884 0.446 0.221 0.973 0.332 1.579 0.332 0.081 0 0.164-4e-3 0.249-0.011 0.085-8e-3 0.183-0.019 0.293-0.033l0.477 2.509h1.504zm-1.056 2.355c-0.081 0.022-0.168 0.04-0.26 0.055s-0.198 0.022-0.316 0.022c-0.296 0-0.552-0.079-0.77-0.238-0.218-0.158-0.399-0.361-0.543-0.607-0.144-0.248-0.251-0.52-0.321-0.819-0.07-0.298-0.105-0.584-0.105-0.856 0-0.251 0.031-0.431 0.094-0.542s0.157-0.166 0.282-0.166c0.178 0 0.368 0.094 0.571 0.282s0.393 0.424 0.57 0.708c0.178 0.283 0.334 0.589 0.471 0.917s0.228 0.632 0.272 0.912z" fill="#fff"/></g></g><g transform="matrix(5.8261 0 0 5.8261 -2303.3 -1516.4)"><g transform="translate(518.35 330)"><path d="m0 0c-1.239-0.08-1.73-1.029-2.143-1.707-0.25 0.459-0.587 0.946-1.033 1.284-0.462 0.35-1.037 0.545-1.521 0.635-0.114 1.157 0.49 2.335 1.611 2.723 0.708 0.245 1.429 0.122 1.929-0.158 0.753-0.42 1.444-1.498 1.197-2.751" fill="#e3000f" stroke="#fff" stroke-width=".423"/></g><g transform="translate(513.17 330.1)"><path d="m0 0c-1.239-0.08-1.907-0.99-2.32-1.667-0.508 0.936-1.44 1.597-2.39 1.773-0.115 1.157 0.49 2.335 1.611 2.723 0.708 0.245 1.429 0.122 1.929-0.158 0.753-0.42 1.24-0.986 1.289-2.525" fill="#e3000f" stroke="#fff" stroke-width=".423"/></g><g transform="translate(508.03 325.02)"><path d="m0 0c-1.29 0-2.373 0.927-2.573 2.203-0.223 1.421 0.751 2.758 2.171 2.981 0.135 0.021 0.272 0.032 0.408 0.032 1.29 0 2.373-0.927 2.573-2.204 0.223-1.42-0.751-2.757-2.172-2.98-0.135-0.021-0.272-0.032-0.407-0.032" fill="#e3000f"/></g><g transform="translate(508.04 330.02)"><path d="m0 0c1.16 0 2.179-0.843 2.364-2.025 0.205-1.307-0.688-2.533-1.995-2.738-0.126-0.02-0.251-0.03-0.375-0.03-1.159 0-2.178 0.844-2.364 2.025-0.205 1.308 0.688 2.533 1.996 2.739 0.125 0.02 0.251 0.029 0.374 0.029m0 0.423c-0.146 0-0.294-0.011-0.44-0.034-1.536-0.241-2.589-1.687-2.348-3.223 0.217-1.38 1.387-2.382 2.782-2.382 0.147 0 0.295 0.012 0.44 0.034 1.536 0.241 2.589 1.687 2.349 3.223-0.217 1.38-1.387 2.382-2.783 2.382" fill="#fff"/></g><g transform="translate(513.46 324.84)"><path d="m0 0c-1.291 0-2.373 0.927-2.573 2.204-0.108 0.688 0.058 1.377 0.469 1.939 0.41 0.563 1.015 0.933 1.703 1.041 0.135 0.021 0.272 0.032 0.407 0.032 1.291 0 2.373-0.927 2.573-2.204 0.223-1.42-0.751-2.757-2.172-2.98-0.134-0.021-0.272-0.032-0.407-0.032" fill="#e3000f"/></g><g transform="translate(513.46 329.84)"><path d="m0 0c1.16 0 2.179-0.843 2.364-2.025 0.205-1.306-0.688-2.533-1.995-2.738-0.126-0.02-0.251-0.029-0.375-0.029-1.159 0-2.178 0.843-2.364 2.024-0.205 1.307 0.689 2.533 1.996 2.739 0.125 0.019 0.251 0.029 0.374 0.029m0 0.423c-0.146 0-0.294-0.011-0.44-0.034-0.744-0.117-1.398-0.516-1.841-1.125-0.444-0.609-0.624-1.353-0.507-2.097 0.216-1.381 1.387-2.383 2.782-2.383 0.147 0 0.295 0.012 0.44 0.035 1.536 0.241 2.589 1.686 2.348 3.222-0.216 1.38-1.386 2.382-2.782 2.382" fill="#fff"/></g><g transform="translate(518.88 324.66)"><path d="m 0,0 c -1.291,0 -2.373,0.927 -2.573,2.204 -0.223,1.42 0.751,2.757 2.172,2.98 0.134,0.021 0.271,0.032 0.407,0.032 1.29,0 2.373,-0.927 2.573,-2.203 C 2.687,2.324 2.521,1.635 2.111,1.073 1.701,0.509 1.096,0.14 0.407,0.032 0.272,0.011 0.136,0 0,0" fill="#e3000f"/></g><g transform="translate(518.89 329.67)"><path d="m0 0c1.16 0 2.179-0.843 2.364-2.025 0.206-1.307-0.688-2.533-1.995-2.738-0.126-0.02-0.251-0.03-0.375-0.03-1.159 0-2.179 0.844-2.364 2.025-0.205 1.307 0.689 2.533 1.996 2.739 0.125 0.02 0.251 0.029 0.374 0.029m0 0.423c-0.146 0-0.294-0.011-0.44-0.034-1.536-0.241-2.589-1.687-2.348-3.222 0.216-1.381 1.387-2.383 2.782-2.383 0.147 0 0.295 0.012 0.44 0.034 0.745 0.117 1.399 0.517 1.842 1.125 0.444 0.609 0.623 1.354 0.507 2.098-0.217 1.38-1.387 2.382-2.783 2.382" fill="#fff"/></g></g></g></svg>
