<svg width="800" height="195.3" version="1.1" viewBox="0 0 639.99 156.24" xmlns="http://www.w3.org/2000/svg">
 <g transform="matrix(6.3 0 0 6.3 -1109.6 -1582.7)" fill="#22273d">
  <g transform="matrix(.80002 0 0 .80002 152.13 199.22)" fill="#22273d" fill-rule="evenodd">
   <path d="m65.834 95.999 27.716-1e-3c1.0051 0 1.8206-0.80494 1.8206-1.7979v-2.234c0-0.993-0.81546-1.7979-1.8206-1.7979h-23.636v-6.7516h20.429c1.0051 0 1.8206-0.80391 1.8206-1.7969v-2.235c0-0.993-0.81546-1.7969-1.8206-1.7969h-20.429v-6.7526h23.637c1.0051 0 1.8206-0.80494 1.8206-1.7979v-2.235c0-0.99197-0.81546-1.7979-1.8206-1.7979h-27.717c-1.0041 0-1.8185 1.0023-1.8185 2.2371v26.521c1e-3 1.2348 0.81546 2.2371 1.8185 2.2371zm33.989 0h2.2587c1.0052 0 1.8206-0.80391 1.8206-1.7969v-23.366h16.159c1.8783 0.0072 3.3989 1.5158 3.3989 3.3768 0 0.962-0.40824 1.831-1.0608 2.4458l-15.348 13.327c-0.81013 0.63501-1.2838 1.6082-1.2845 2.639 0 1.8641 1.5278 3.3748 3.4134 3.3748l19.004-1e-3c1.0031 0 1.8165-0.80494 1.8165-1.7979v-2.234c-3e-3 -0.47977-0.1961-0.93867-0.53678-1.2757-0.34069-0.33702-0.80104-0.52452-1.2797-0.52122l-12.939 0.20253 10.567-8.9339 0.16083-0.12813c2.0701-1.6894 3.3866-4.2417 3.3866-7.0977 0-5.0559-4.1257-9.1592-9.2277-9.2047h-20.308c-0.47902-0.0037-0.93989 0.18352-1.281 0.5206-0.34113 0.33708-0.53452 0.7963-0.53751 1.2764v27.398c0 0.99197 0.81339 1.7959 1.8185 1.7959zm-68.005-0.0093 20.308-1e-3c5.103-0.04547 9.2288-4.1487 9.2288-9.2046s-4.1237-9.1623-9.2566-9.2057l-12.799 0.0031c-1.8773-0.0083-3.4-1.5179-3.4-3.3758 0-1.8599 1.5206-3.3696 3.4-3.3758h20.236c1.0041 0 1.8196-0.80494 1.8196-1.7979v-2.234c0-0.993-0.81546-1.7979-1.8196-1.7979l-20.308 1e-3c-5.103 0.044465-9.2267 4.1487-9.2267 9.2047 0 5.057 4.1237 9.1612 9.2556 9.2046l12.799-0.0031c1.8783 0.0093 3.4 1.519 3.4 3.3768 0 1.8599-1.5216 3.3696-3.4 3.3758h-20.237c-1.0041 0-1.8175 0.80494-1.8175 1.7979v2.234c0 0.993 0.81339 1.7979 1.8175 1.7979z" fill="#22273d" fill-rule="nonzero"/>
  </g>
 </g>
 <g transform="matrix(6.3 0 0 6.3 -781.3 -1582.7)" fill="#22273d">
  <g transform="matrix(.80002 0 0 .80002 152.13 199.22)" fill="#22273d" fill-rule="evenodd">
   <path d="m80.261 70.038c-0.993 0-1.797 0.81534-1.797 1.8205v5.7288h-5.7284c-1.0051 0-1.8208 0.80396-1.8208 1.797v2.2349c0 0.993 0.81566 1.797 1.8208 1.797h5.7284v5.7287c0 1.0051 0.80396 1.8205 1.797 1.8205h2.2352c0.993 0 1.7966-0.81534 1.7966-1.8205v-5.7287h5.7288c1.0051 0 1.8205-0.80396 1.8205-1.797v-2.2349c0-0.993-0.81534-1.797-1.8205-1.797h-5.7288v-5.7288c0-1.0051-0.80364-1.8205-1.7966-1.8205z" fill="#22273d"/>
  </g>
 </g>
</svg>
