<svg width="599.94" height="121.7" version="1.1" viewBox="0 0 158.74 32.2" xmlns="http://www.w3.org/2000/svg">
 <g transform="translate(-.0009528)" fill="#e40069">
  <path d="m69.198 24.15v-24.14h-8.048v26.5c0 3.14 2.549 5.69 5.693 5.69h14.428v-8.05z"/>
  <path d="m150.69 20.13h8.049v-20.13h-8.049z"/>
  <path d="m150.69 32.2h8.049v-8.05h-8.049z"/>
  <path d="m100.39 16.1h-8.0488v-8.05h8.0488zm2.3551-16.1h-12.757c-3.1453 0-5.6943 2.55-5.6943 5.7v26.5h8.0492v-8.05h8.047v8.05h8.0489v-26.5c0-3.15-2.55-5.7-5.6938-5.7"/>
  <path d="m141.98 0.01h-24.832c-3.143 0-5.693 2.54-5.693 5.69v26.5h8.049v-24.15h6.037v24.15h8.048v-24.15h6.036v24.15h8.048v-26.5c0-3.15-2.549-5.69-5.693-5.69"/>
  <path d="m39.68 0.01c-3.144 0-5.694 2.54-5.694 5.69v8.73c0 3.15 2.55 5.7 5.694 5.7h10.404v4.02h-16.098v8.05h18.451c3.146 0 5.694-2.55 5.694-5.69v-8.74c0-3.14-2.548-5.69-5.694-5.69h-10.402v-4.03h16.096v-8.04z"/>
  <path d="m5.569 26.31v-20.41l18.342 10.19zm21.723-14.71-19.637-10.92c-0.013-0.01-0.028-0.01-0.041-0.02-0.74-0.42-1.594-0.65-2.503-0.65-2.823 0-5.111 2.28-5.111 5.11v21.97c0 2.82 2.288 5.11 5.111 5.11 0.909 0 1.763-0.24 2.503-0.66l19.673-10.95c1.594-0.87 2.676-2.56 2.676-4.5s-1.08-3.62-2.671-4.49"/>
 </g>
</svg>
