<svg clip-rule="evenodd" stroke-linejoin="round" stroke-miterlimit="1.4142" version="1.1" viewBox="0 0 800 190.65" xml:space="preserve" xmlns="http://www.w3.org/2000/svg"><path d="m759.84 107.05c0 5.686 1.893 10.339 5.8593 14.305 3.793 3.7929 8.6191 5.8593 14.478 5.8593 5.686 0 10.346-1.893 14.139-5.8593 3.7929-3.793 5.686-8.6191 5.686-14.305 0-5.6929-1.893-10.519-5.686-14.312-3.793-3.786-8.4527-5.686-14.139-5.686-5.686 0-10.512 1.8999-14.478 5.686-3.9663 3.7929-5.8593 8.6191-5.8593 14.312" fill="#83ff00" stroke-width="6.9341"/><g transform="matrix(6.9341 0 0 6.9341 -88.25 -101.56)" fill="#fff"><path d="m105.68 23.919c0-1.318 0.497-2.461 1.467-3.431 0.969-0.969 2.113-1.442 3.43-1.442 1.367 0 2.511 0.473 3.48 1.442 0.97 0.97 1.442 2.088 1.442 3.431 0 1.342-0.472 2.461-1.442 3.43-0.969 0.97-2.137 1.467-3.48 1.467-1.317 0-2.461-0.497-3.43-1.467-0.97-0.969-1.467-2.113-1.467-3.43m-4.5 0c0 1.665 0.423 3.231 1.268 4.648 0.82 1.442 1.939 2.561 3.406 3.381 1.442 0.845 3.033 1.268 4.723 1.268 1.939 0 3.58-0.547 4.922-1.641v1.144h4.599v-17.725h-4.599v1.318c-1.392-1.094-3.033-1.641-4.922-1.641-2.61 0-4.847 0.895-6.637 2.685-1.84 1.814-2.76 4.002-2.76 6.563m-15.512 4.474v4.326h14.22v-4.4h-8.179l8.179-9.124v-4.176h-14.22v4.4h8.204zm-13.822-13.399v17.725h4.599v-8.95c0-0.621 0.05-1.193 0.149-1.665 0.075-0.423 0.274-0.845 0.572-1.293 0.274-0.422 0.646-0.746 1.169-0.994 0.497-0.224 1.143-0.423 1.988-0.547 0.87-0.124 1.84-0.199 2.959-0.199v-4.4c-1.765 0-3.133 0.124-4.053 0.348-0.994 0.249-1.914 0.671-2.759 1.293v-1.318zm-16.457 8.925c0-1.318 0.498-2.461 1.467-3.431 0.97-0.969 2.113-1.442 3.431-1.442 1.367 0 2.51 0.473 3.48 1.442 0.969 0.97 1.442 2.088 1.442 3.431 0 1.342-0.473 2.461-1.442 3.43-0.97 0.97-2.138 1.467-3.48 1.467-1.318 0-2.461-0.497-3.431-1.467-0.994-0.969-1.467-2.113-1.467-3.43m-4.499 0c0 1.665 0.422 3.231 1.268 4.648 0.82 1.442 1.939 2.561 3.405 3.381 1.442 0.845 3.033 1.268 4.724 1.268 1.715 0 3.306-0.423 4.773-1.268 1.441-0.82 2.585-1.964 3.43-3.381 0.821-1.442 1.243-2.983 1.243-4.648 0-1.666-0.422-3.232-1.243-4.674-0.845-1.417-1.989-2.536-3.43-3.356-1.442-0.82-3.033-1.218-4.773-1.218-2.611 0-4.848 0.895-6.638 2.685-1.839 1.814-2.759 4.002-2.759 6.563m-16.283 0.223v-0.422c0.05-1.268 0.572-2.362 1.541-3.282 0.945-0.919 2.064-1.392 3.381-1.392 1.342 0 2.486 0.473 3.431 1.442 0.969 0.97 1.441 2.088 1.441 3.431 0 1.342-0.472 2.461-1.441 3.43-0.97 0.97-2.113 1.467-3.431 1.467-1.317 0-2.461-0.472-3.381-1.392-0.969-0.92-1.491-2.014-1.541-3.282m-4.574-9.148v27.147h4.599v-10.591c1.342 1.094 2.983 1.641 4.922 1.641 1.715 0 3.306-0.422 4.723-1.268 1.442-0.82 2.586-1.964 3.431-3.381 0.82-1.441 1.243-2.983 1.243-4.648 0-2.586-0.92-4.748-2.735-6.563-1.839-1.79-4.052-2.685-6.662-2.685-1.939 0-3.58 0.547-4.922 1.641v-1.318h-4.599z"/><path d="m15.188 27.101-2.461 3.43c2.212 1.89 4.648 2.685 7.656 2.685 4.425 0 7.433-1.964 7.433-5.643 0-3.033-1.839-4.872-6.761-5.743-2.785-0.497-3.356-0.895-3.356-1.789 0-0.647 0.72-1.169 2.56-1.169 1.516 0 2.958 0.497 4.35 1.492l2.337-3.282c-1.864-1.516-4.151-2.361-6.737-2.361-4.126 0-6.985 2.138-6.985 5.668 0 3.157 1.989 4.723 6.165 5.394 3.008 0.472 3.953 0.994 3.953 1.914 0 0.995-1.069 1.392-2.81 1.392-1.914-0.049-3.803-0.795-5.344-1.988"/></g></svg>
