<?xml version="1.0" encoding="UTF-8"?>
<!-- Created with Inkscape (http://www.inkscape.org/) -->
<svg id="svg2013" width="709.62" height="452.45" version="1.0" xmlns="http://www.w3.org/2000/svg" xmlns:cc="http://creativecommons.org/ns#" xmlns:dc="http://purl.org/dc/elements/1.1/" xmlns:rdf="http://www.w3.org/1999/02/22-rdf-syntax-ns#">
 <metadata id="metadata11">
  <rdf:RDF>
   <cc:Work rdf:about="">
    <dc:format>image/svg+xml</dc:format>
    <dc:type rdf:resource="http://purl.org/dc/dcmitype/StillImage"/>
    <dc:title/>
   </cc:Work>
  </rdf:RDF>
 </metadata>
 <path id="_46864928" d="m461.98 304.88-63.462-96.302c-7.1004-11.095-15.089-22.19-23.077-33.728 39.942-9.7636 66.125-42.604 66.125-82.989 0-63.462-42.604-88.758-113.17-88.758-35.947 0-68.344 0.44398-93.64 2.2192v299.56h69.231v-117.16h2.6628l71.006 117.16zm-92.752-207.25c0 25.296-18.639 40.829-47.929 40.829-6.6568 0-13.758-0.44362-17.308-0.8876v-76.776c3.994-0.44362 11.982-0.88724 19.083-0.88724 32.397 0 46.154 14.201 46.154 37.722zm-175.74 111.39c0-93.64-119.38-75.888-119.38-122.49 0-16.864 13.314-29.29 42.16-29.29 17.752 0 36.39 3.1064 53.255 7.988l3.994-59.911c-18.639-3.5507-38.61-5.3256-54.586-5.3256-75 0-118.94 37.278-118.94 93.64 0 100.3 119.38 74.113 119.38 125.15 0 21.302-18.195 31.952-43.492 31.952-21.745 0-46.154-4.8816-63.018-11.094l-3.5504 63.906c19.083 4.5117 40.385 6.7309 61.243 6.7309 76.332 0 122.93-43.122 122.93-101.26zm516.13 0.95598c0-32.371-19.068-60.308-53.213-69.177l0.88654-1.3305c27.493-9.7554 46.118-33.701 46.118-65.629 0-42.57-31.484-73.168-89.575-73.168-25.719 0-52.769 5.3213-71.837 13.303l5.765 55.873c14.633-7.0948 30.597-11.53 47.004-11.53 26.163 0 37.249 13.303 37.249 30.154 0 19.954-18.181 40.353-79.819 38.579v54.1c68.29-9.7558 84.253 11.53 84.253 32.815 0 20.842-19.511 37.249-50.995 37.249-15.52 0-28.823-1.7741-41.24-6.2082l-5.3213 58.534c12.416 4.0645 29.267 6.2819 47.892 6.2819 74.054 0 122.83-39.096 122.83-99.848z" fill-rule="evenodd" stroke-width="3.5433"/>
 <path id="_48024288" d="m0.75827 336.47h707.9v115.99h-707.9zm689.45 87.259v-9.6491h-20.603v-15.908h19.559v-9.2147h-19.559v-14.43h20.603v-9.4752h-31.903v58.678zm-40.786 0v-9.9099h-19.038v-48.768h-11.301v58.678zm-38.976 0v-9.9099h-19.038v-48.768h-11.301v58.678zm-43.332 0v-9.6491h-20.603v-15.908h19.559v-9.2147h-19.559v-14.43h20.603v-9.4752h-31.903v58.678zm-41.722-58.678h-11.301l-7.9976 32.773c-0.86953 3.477-1.5647 7.1281-2.1735 11.214h-0.0868c-0.52157-4.0858-1.4779-8.1716-2.3471-11.388l-9.0408-32.599h-11.997l-8.9539 32.773c-1.0432 3.7378-1.6515 7.6496-2.2599 11.562h-0.0872c-0.52158-4.0858-1.2168-8.0848-2.1731-11.91l-7.9976-32.425h-12.083l14.952 58.678h13.127l8.5192-32.599c1.0432-3.9118 1.7387-7.7368 2.1731-11.823h0.0872c0.60838 4.1726 1.2168 8.3452 2.2599 12.083l8.5195 32.338h13.909zm-148.71 58.678v-58.678h-10.953v18.255c0 7.2152 0.17363 17.647 0.60839 23.558-2.1735-4.4334-4.5206-9.3015-7.2152-13.822l-16.343-27.991h-14.691v58.678h10.953v-20.95c0-7.0413-0.17398-16.256-0.52158-21.298 1.7387 3.825 3.7382 8.1716 6.3461 12.605l17.212 29.643zm-56.525 0-20.951-58.678h-12.779l-20.516 58.678h11.388l4.0858-11.996h22.167l4.0858 11.996zm-19.559-20.95h-16.343l5.3029-14.952c1.13-3.3902 2.0863-6.7805 2.7818-9.8231h0.0868c0.69555 3.3034 1.5647 6.1721 2.695 9.3883zm-38.279 20.95v-9.9099h-19.038v-48.768h-11.301v58.678zm-40.018 0-14.083-19.733c-1.4779-1.9995-3.1294-4.2598-4.781-6.4329 8.8668-1.3911 14.952-7.65 14.952-16.343 0-11.996-8.3456-16.517-21.298-16.517-6.7805 0-12.257 0.0872-16.864 0.34796v58.678h11.301v-24.254h0.43476l16.343 24.254zm-15.734-41.379c0 5.4765-4.1726 8.9536-10.953 8.9536-1.7387 0-3.3034-0.0868-4.0858-0.17362v-16.952c1.1303-0.17398 2.7818-0.26079 4.4337-0.26079 7.1281 0 10.605 2.7818 10.605 8.4324zm-34.519 41.379-20.951-58.678h-12.779l-20.516 58.678h11.388l4.0858-11.996h22.167l4.0858 11.996zm-19.559-20.95h-16.343l5.3029-14.952c1.13-3.3902 2.0863-6.7805 2.7818-9.8231h0.0868c0.69555 3.3034 1.5647 6.1721 2.695 9.3883zm-38.196 20.95-20.951-58.678h-12.779l-20.516 58.678h11.388l4.0858-11.996h22.167l4.0858 11.996zm-19.559-20.95h-16.343l5.3029-14.952c1.13-3.3902 2.0863-6.7805 2.7819-9.8231h0.08681c0.69555 3.3034 1.5647 6.1721 2.695 9.3883zm-39.428 2.7818c0-18.342-24.688-14.43-24.688-24.949 0-4.1726 3.3034-7.1284 9.8231-7.1284 3.5642 0 7.2152 0.60874 10.519 1.5647l0.60839-9.9099c-3.477-0.60839-7.302-1.0432-10.605-1.0432-14.083 0-22.341 7.2152-22.341 17.647 0 19.299 24.602 14.17 24.602 25.384 0 5.3897-4.4334 7.7368-10.171 7.7368-4.2594 0-8.9536-0.95634-12.257-2.0863l-0.69555 10.518c3.651 0.97086 7.824 1.4056 11.997 1.4056 14.43 0 23.21-8.0993 23.21-19.139zm385.8-12.171c0-20.602-11.562-28.687-29.73-28.687-7.2152 0-14.344 0.26079-18.951 0.43477v58.504c4.955 0.18815 10.258 0.44893 16.343 0.44893 19.125 0 32.338-10.533 32.338-30.701zm-12.17 0.86953c0 13.909-7.9976 20.168-19.038 20.168-2.2599 0-4.6074-0.17397-6.1721-0.43476v-39.553c1.8255-0.17397 4.2598-0.26078 6.8676-0.26078 13.387 0 18.342 7.476 18.342 20.081z" fill="#009f3d" fill-rule="evenodd" stroke-width="3.5433"/>
</svg>
