<svg width="800" height="184.61" version="1.1" viewBox="0 0 800 184.61" xml:space="preserve" xmlns="http://www.w3.org/2000/svg"><defs><clipPath id="clipPath36"><path d="m1043.8 17.518h118.42v27.326h-118.42z"/></clipPath><clipPath id="clipPath88"><path d="m1043.8 17.518h118.41v27.326h-118.41z"/></clipPath><clipPath id="clipPath104"><path d="m1043.8 17.518h118.42v27.326h-118.42z"/></clipPath></defs><g transform="matrix(1.3333 0 0 -1.3333 -1317.6 -69.573)"><g transform="matrix(5.067 0 0 5.067 1254.8 -52.18)"><path d="m0 0-7.646-11.687h-9.131l4.634-6.64-5.873-8.999 10.634 3.882 3.885 6.573 0.901-6.406 7.701-3.764-1.483 7.79 6.676 7.565h-8.105z" fill="#181715"/></g><g transform="matrix(5.067 0 0 5.067 1168.8 -186.35)"><path d="m0 0 5.344 8.187-4.339 6.217h8.559l7.201 11.009 2.067-11.009h7.528l-6.201-7.026 1.366-7.175-6.754 3.304-1.038 7.363-4.413-7.468z" fill="#fff"/></g><g transform="matrix(5.067 0 0 5.067 1213.6 -166.24)"><path d="m0 0-7.13-2.602 4.462 6.834-3.845 5.51h7.602l6.465 9.88 1.854-9.88h6.566l-5.409-6.129 1.169-6.146-5.177 2.531-1.262 8.961z" fill="#e3000a"/></g><g transform="matrix(5.067 0 0 5.067 -4300.6 -279.4)"><g clip-path="url(#clipPath36)"><g transform="translate(1053.8 29.809)"><path d="m0 0c0.285-0.022 0.571-0.025 0.857-0.017h2.034c1.603 0.02 2.799-3e-3 3.395-0.099 0.588-0.115 1.264-0.371 1.75-0.921 1.277-1.359 1.018-3.405 0.415-5.235-0.832-2.387-2.205-4.202-4.255-5.059-0.521-0.222-1.092-0.354-1.699-0.427-0.545-0.066-1.421-0.104-2.626-0.104h-9.905l1.822 5.355 8.212 1e-3c0.661 0 1.328-0.018 1.982 0.086 0.194 0.136 0.617 0.827 0.684 1.212l0.375-0.488-0.123 0.012h-2.645c-0.841 0-1.523 0.022-2.047 0.064-0.626 0.038-1.105 0.094-1.449 0.164-0.816 0.164-1.65 0.531-2.195 1.304-1.083 1.445-1.038 3.252-0.431 5.038 0.782 2.227 2.161 3.904 4.175 4.825 1.125 0.506 2.591 0.702 4.265 0.702h9.532l-1.82-5.356-7.751-1e-3c-0.865 0-1.457-0.012-1.78-0.043-0.071-0.016-0.12-0.036-0.151-0.051-0.149-0.123-0.42-0.44-0.621-0.962" fill="#181715"/></g><g transform="translate(1056.9 24.495)"><path d="m0 0-0.139 0.011h-2.663c-0.829 0-1.498 0.022-2.013 0.064-0.606 0.035-1.071 0.089-1.401 0.157-0.758 0.151-1.477 0.48-1.938 1.136-0.973 1.291-0.964 2.937-0.377 4.663 0.749 2.139 2.059 3.715 3.953 4.581 1.045 0.47 2.443 0.665 4.093 0.665h8.95l-1.537-4.524h-7.453c-0.903 0-1.516-0.014-1.841-0.049-0.237-0.046-0.362-0.138-0.397-0.17-0.238-0.194-0.53-0.595-0.75-1.238-0.059-0.162-0.091-0.284-0.109-0.37 0.47-0.075 0.933-0.091 1.41-0.079l2.03 1e-3c1.613 0.02 2.765-5e-3 3.317-0.093 0.54-0.105 1.11-0.333 1.513-0.788 1.111-1.17 0.935-2.997 0.334-4.825-0.81-2.318-2.117-4.013-4.024-4.81-0.475-0.201-1.009-0.327-1.587-0.399-0.535-0.063-1.395-0.1-2.577-0.1h-9.323l1.538 4.525h7.916c0.685 0 1.433-0.016 2.116 0.103 0.372 0.16 0.879 1.086 0.959 1.539" fill="#fff"/></g><g transform="translate(1056.4 35.078)"><path d="m0 0h7.982l-1.066-3.137h-6.956c-0.966 0-1.614-0.017-1.945-0.056-0.349-0.063-0.594-0.189-0.749-0.334-0.372-0.303-0.702-0.808-0.948-1.53-0.267-0.728-0.159-0.999-0.052-1.09 0.193-0.17 0.801-0.314 2.015-0.283h2.022c1.633 0.021 2.715-3e-3 3.196-0.081 0.457-0.089 0.849-0.266 1.115-0.564 0.831-0.858 0.797-2.313 0.195-4.144-0.768-2.2-1.969-3.697-3.637-4.393-0.399-0.171-0.866-0.283-1.399-0.349-0.518-0.062-1.35-0.095-2.494-0.095h-8.355l1.066 3.138h7.419c1.515 0 2.301 0.086 2.494 0.182 0.748 0.322 1.826 2.6 0.98 2.778-0.152 0.06-0.396 0.069-0.537 0.08h-2.663c-0.805 0-1.457 0.021-1.957 0.062-0.571 0.031-1.01 0.081-1.321 0.144-0.659 0.132-1.186 0.401-1.506 0.856-0.793 1.035-0.842 2.413-0.29 4.038 0.698 1.992 1.89 3.401 3.584 4.176 0.913 0.411 2.195 0.602 3.807 0.602" fill="#e3000a"/></g><g transform="translate(1071.3 23.326)"><path d="m0 0c0.23-9e-3 0.43-7e-3 0.501-5e-3h3.826l-1.831-5.388h-3.933c-0.953 0-1.813 0.067-2.491 0.28-0.705 0.207-1.335 0.59-1.794 1.219-1.028 1.335-0.579 3.338 0.028 5.064l2.159 6.354h-2.833l1.83 5.388h2.833l1.927 5.671h6.088l-1.927-5.671 4.304 1e-3 -1.831-5.389h-4.304l-2.409-7.086c-0.058-0.165-0.107-0.31-0.143-0.438" fill="#181715"/></g><g transform="translate(1070.8 23.001)"><path d="m0 0 0.192-0.017c0.344-0.029 0.698-0.029 0.8-0.025h3.277l-1.566-4.606h-3.652c-0.943 0-1.759 0.071-2.377 0.263-0.639 0.187-1.196 0.532-1.596 1.081-0.882 1.144-0.53 2.948 0.085 4.702l2.335 6.872h-2.831l1.564 4.605h2.831l1.928 5.671h5.261l-1.928-5.669h4.306l-1.565-4.607h-4.305l-2.498-7.349c-0.151-0.415-0.227-0.717-0.261-0.921" fill="#fff"/></g><g transform="translate(1067.6 35.143)"><path d="m0 0 2.832 1e-3 1.926 5.67h3.711l-1.928-5.67h4.306l-1.066-3.138h-4.305l-2.665-7.841c-0.383-1.066-0.366-1.552-0.267-1.694 0.176-0.254 1.476-0.251 1.698-0.247h2.246l-1.067-3.137h-3.128c-0.923 0-1.648 0.07-2.158 0.231-0.517 0.151-0.931 0.415-1.222 0.813-0.622 0.788-0.452 2.21 0.187 4.029l2.665 7.846h-2.831z" fill="#e3000a"/></g><g transform="translate(1113 30.67)"><path d="m0 0h-0.111l-4.349-12.791h-6.055l6.212 18.274h4.856c1.26 0 2.342-0.076 3.161-0.252 0.454-0.111 0.936-0.303 1.342-0.624 0.356-0.231 0.66-0.533 0.89-0.906 0.575-0.738 0.737-1.647 0.678-2.511-0.182-1.93-0.989-3.746-1.607-5.563h-5.865c0.478 1.407 1.174 2.853 1.41 4.322-0.168 0.027-0.333 0.051-0.562 0.051" fill="#181715"/></g><g transform="translate(1114 30.98)"><path d="m0 0c-0.382 0.032-0.591 0.109-1.012 0.109h-0.41l-4.349-12.791h-5.174l5.928 17.442h4.558c1.249 0 2.292-0.076 3.066-0.243 0.423-0.102 0.845-0.275 1.192-0.555 0.32-0.206 0.592-0.474 0.793-0.807 0.505-0.636 0.659-1.434 0.604-2.239-0.167-1.787-0.916-3.497-1.489-5.181h-4.987c0.374 1.099 1.257 3.179 1.28 4.265" fill="#fff"/></g><g transform="translate(1104 18.99)"><path d="m0 0 5.454 16.056h4.063c1.231 0 2.208-0.073 2.912-0.225 0.367-0.088 0.689-0.231 0.941-0.442 0.264-0.164 0.477-0.378 0.627-0.64 0.386-0.467 0.532-1.08 0.484-1.786-0.144-1.531-0.807-3.103-1.295-4.544h-3.522c0.175 0.514 1.279 3.25 0.943 3.982-0.182 0.209-0.66 0.392-1.643 0.392h-0.908l-4.348-12.792z" fill="#e3000a"/></g><g transform="translate(1139.1 36.108)"><path d="m0 0-1.819-5.355-4.669-2e-3 -4.389-12.918h-6.055l4.391 12.918h-2.618l1.819 5.357h2.618c1.299 3.7 3.95 5.718 7.816 5.669h5.102l-1.82-5.355h-3.736c-0.657 0-0.962-0.094-1.067-0.142-0.037-0.038-0.082-0.093-0.135-0.172z" fill="#181715"/></g><g transform="translate(1133.9 35.751)"><path d="m0 0h4.658l-1.536-4.525-4.669-1e-3 -4.39-12.918h-5.175l4.39 12.918h-2.618l1.536 4.524h2.62c1.208 3.73 3.75 5.718 7.515 5.672h4.522l-1.538-4.524h-3.436c-0.771 0-1.155-0.123-1.313-0.218-0.155-0.137-0.36-0.421-0.566-0.928" fill="#fff"/></g></g></g><g transform="matrix(5.067 0 0 5.067 -4300.6 -279.4)"><g clip-path="url(#clipPath88)"><g transform="translate(1123.7 19)"><path d="m0 0 4.392 12.919h-2.62l1.067 3.137h2.617l0.152 0.447c1.123 3.494 3.42 5.266 6.857 5.224h3.563l-1.064-3.138h-2.941c-0.855 0-1.409-0.136-1.726-0.351-0.361-0.293-0.705-0.867-0.997-1.789l-0.134-0.393h4.668l-1.066-3.136-4.668-1e-3 -4.39-12.919z" fill="#e3000a"/></g><g transform="translate(1155.2 36.153)"><path d="m0 0c1.855 0 3.183-0.071 3.884-0.181 0.902-0.203 1.754-0.684 2.303-1.486 0.653-0.767 0.898-1.719 0.863-2.694-0.047-0.926-0.34-2.102-0.795-3.44l-3.558-10.473h-6.056l3.88 11.412c0.057 0.171 0.42 1.164 0.326 1.36-0.242 0.162-0.872 0.146-1.118 0.146h-1.243l-4.392-12.918h-6.054l4.391 12.918h-2.389l-4.391-12.918h-6.053l6.211 18.274z" fill="#181715"/></g></g></g><g transform="matrix(5.067 0 0 5.067 -4300.6 -279.4)"><g clip-path="url(#clipPath104)"><g transform="translate(1141.2 35.674)"><path d="m0 0h13.895c1.823 0 3.115-0.067 3.804-0.174 0.828-0.187 1.57-0.621 2.049-1.332 0.582-0.673 0.812-1.521 0.778-2.421-0.042-0.868-0.322-1.997-0.772-3.324l-3.462-10.191h-5.177l3.692 10.861c0.582 1.715 0.642 2.055-1.185 2.055h-1.541l-4.391-12.916h-5.175l4.39 12.916h-3.267l-4.392-12.916h-5.174z" fill="#fff"/></g><g transform="translate(1136.3 18.924)"><path d="m0 0 5.458 16.055 13.398 1e-3c1.773 0 3.005-0.057 3.676-0.161 0.703-0.158 1.264-0.512 1.625-1.072 0.465-0.52 0.669-1.191 0.64-1.971-0.039-0.769-0.293-1.82-0.739-3.131l-3.303-9.721h-3.709l3.38 9.946c0.438 1.288 0.435 2.023 0.218 2.368-0.222 0.342-0.825 0.604-2.06 0.604h-2.038l-4.392-12.918h-3.708l4.388 12.918h-4.732l-4.389-12.918z" fill="#e3000a"/></g></g></g></g></svg>
