<svg width="800" height="800" clip-rule="evenodd" fill-rule="evenodd" stroke-linejoin="round" stroke-miterlimit="1.4142" version="1.1" viewBox="0 0 800 800" xml:space="preserve" xmlns="http://www.w3.org/2000/svg"><link rel="stylesheet" type="text/css"/><link rel="stylesheet" type="text/css"/><style lang="en" type="text/css"/><style lang="en" type="text/css"/><rect width="800" height="800" fill="#e2e778" fill-rule="nonzero" stroke-width="14.287"/><g transform="matrix(1.5625 0 0 1.5625 0 -1.6016e-6)" fill="#03050b" fill-rule="nonzero" stroke-width="9.1436"><path d="m121.19 446.36h-45.846v-58.218h45.846c17.199 0 29.561 5.7331 33.795 18.388 0.90522 3.3283 1.4996 6.9492 1.4996 10.872 0 19.604-13.277 28.958-35.294 28.958zm-45.846-143.59h43.734c17.803 0 31.975 7.5343 31.975 25.639 0 16.587-11.155 25.648-31.975 25.648h-43.734zm78.123 68.778v-3.6208c25.054-5.1296 40.424-19.302 40.424-43.743 0-22.63-11.155-40.424-30.165-50.071-10.552-5.4312-24.432-8.1469-42.838-8.1469h-89.297v217.2h95.332c17.803 0 33.795-3.9318 45.261-10.561 18.095-10.561 28.949-28.967 28.949-51.579 0-5.1296-0.5943-9.9666-2.103-14.493-6.3365-22.018-26.251-33.173-45.563-34.984z"/><path d="m443.07 411.98c0 22.621-7.8544 41.329-29.872 41.329-19.604 0-27.449-11.768-27.449-31.683v-92.305h-40.717v94.125c0 39.51 16.879 63.045 51.278 63.045 22.32 0 35.587-11.768 45.855-26.544h2.7156v23.225h38.915v-153.85h-40.726z"/><path d="m279.27 361.89h-3.0174v-32.57h-38.915v113.13h-24.139v40.726h40.735v-40.726h24.139v-35.907c0-27.147 13.871-41.933 42.527-41.933h9.354v-38.614h-4.517c-24.743 0-37.727 13.889-46.166 35.898z"/><path d="m148.34 120.26-27.147-4.2335c-22.631-3.6117-31.674-9.0522-33.191-21.716-0.29258-1.5087-0.29258-3.0082-0.29258-4.5261 0-16.897 14.173-25.95 38.001-25.95 25.346 0 39.519 11.768 40.433 33.493h43.743c-1.2161-41.933-31.674-69.08-83.262-69.08-48.873 0-82.055 26.242-82.055 64.252v1.8104c0.59434 37.407 25.639 55.209 65.167 61.244l30.165 4.5261c12.06 1.8104 20.82 5.4222 25.931 11.457h-24.13c3.6209 4.5352 5.4405 9.6557 5.4405 17.199 0 19.311-19.622 27.148-41.942 27.148-31.975 0-44.045-14.785-46.459-38.614h-44.338c0.89608 45.554 32.881 74.21 92.616 74.21 53.701 0 83.555-26.846 83.555-62.744 0-6.3365-0.60344-11.768-1.5087-17.199h24.13c-6.0256-29.26-28.354-45.544-64.856-51.278z"/><path d="m302.79 199.59v-28.053h-21.113v-47.053h28.656v-30.174h-28.656v-39.217h-40.726v39.217h-22.63v30.174h22.63v47.053h21.113v29.863c0 29.872 12.984 46.77 45.855 46.77h23.527v-34.691h-15.38c-10.259 0-13.277-3.9318-13.277-13.889z"/><path d="m443.06 94.307v82.658c0 22.621-7.8361 41.329-29.863 41.329-19.604 0-27.449-11.768-27.449-31.674v-92.314h-40.726v94.125c0 39.519 16.888 63.045 51.287 63.045 22.32 0 35.596-11.768 45.855-26.544h2.7156v23.234h38.915v-153.86z"/></g></svg>
