<svg width="1e3" height="1e3" version="1.1" viewBox="0 0 100 100" xmlns="http://www.w3.org/2000/svg">
 <link href="" rel="stylesheet" type="text/css"/>
 <style type="text/css"/>
 <g transform="translate(80 -52.252)">
  <rect x="-80" y="52.252" width="100" height="100" fill="#131313" fill-rule="evenodd"/>
  <g transform="matrix(1.472 0 0 1.472 1040 -2902.9)" fill="#fff" font-family="StuBru" font-size="40px" letter-spacing="0px" stroke-width="1px" word-spacing="0px" aria-label="StuBru">
   <path d="m-732.84 2030.3h-3.2q0.2 1.2 0.2 2.28 0 3.68-2.96 6-2.92 2.32-8.12 2.32-5.84 0-9.04-2.6-3.16-2.64-3.24-7.24h5.88q0.24 2.52 1.68 3.84 1.44 1.28 4.48 1.28 2.4 0 3.96-0.88 1.6-0.92 1.6-2.72 0-1.4-0.72-2.28h3.2q-0.96-1.16-3.44-1.52l-4-0.6q-8.52-1.32-8.64-8.12v-0.24q0-3.8 3-6.16 3.04-2.36 7.88-2.36 5.08 0 8 2.48t3.04 6.68h-5.8q-0.2-4.44-5.36-4.44-2.4 0-3.72 0.88t-1.32 2.56q0 0.4 0.04 0.6 0.16 1.24 1.12 1.88 1 0.64 3.28 1l3.6 0.56q7.44 1.16 8.6 6.8z"/>
   <path d="m-719.17 2035.9h2.04v4.6h-3.12q-3.2 0-4.64-1.56t-1.44-4.64v-3.96h-2.8v-6.24h-3v-4h3v-5.2h5.4v5.2h3.8v4h-3.8v6.24h2.8v3.72q0 1 0.36 1.44 0.4 0.4 1.4 0.4z"/>
   <path d="m-702.53 2020.1h5.4v20.4h-5.16v-3.08h-0.36q-2.44 3.52-6.08 3.52-3.36 0-5.08-2.16-1.72-2.2-1.72-6.2v-12.48h5.4v12.24q0 4.2 3.64 4.2 2.08 0 3-1.52 0.96-1.52 0.96-3.96z"/>
   <path d="m-734.67 2061.5q0.28 0.84 0.28 1.92 0 4.6-3.84 6.84-2.4 1.4-6 1.4h-12.64v-28.8h11.84q3.56 0 5.68 1.08 4 2.04 4 6.64 0 4.72-5.36 5.8v0.48q2.08 0.2 3.76 1.4 1.68 1.16 2.28 3.24zm-16.4-13.76v6.8h5.8q4.24 0 4.24-3.4 0-1.72-1.2-2.56-1.16-0.84-3.04-0.84zm6.08 19.04q4.68 0 4.68-3.84 0-0.72-0.20001-1.44-0.79999-2.44-4.48-2.44h-6.08v7.72z"/>
   <path d="m-718.05 2050.8h0.6v5.12h-1.24q-5.64 0-5.64 5.56v4.76h-3.2v5.4h-5.4v-5.4h3.2v-15h5.16v4.32h0.4q0.88-2.32 2.32-3.52 1.44-1.24 3.8-1.24z"/>
   <path d="m-702.56 2051.3h5.4v20.4h-5.16v-3.08h-0.36q-2.44 3.52-6.08 3.52-3.36 0-5.08-2.16-1.72-2.2-1.72-6.2v-12.48h5.4v12.24q0 4.2 3.64 4.2 2.08 0 3-1.52 0.96001-1.52 0.96001-3.96z"/>
  </g>
 </g>
</svg>
