<svg id="a" version="1.1" viewBox="0 0 1014 188.01" xmlns="http://www.w3.org/2000/svg">
 <path id="b" d="m1014 94.004c0 51.917-41.791 94.004-93.329 94.004h-827.28c-51.535 0-93.35-42.087-93.35-94.004s41.78-94.004 93.318-94.004h827.28c51.535 0 93.361 42.08 93.361 94.004" fill="#fff"/>
 <path id="c" d="m920.6 9.9168c46.101 0 83.517 37.644 83.517 84.088 0 46.436-37.38 84.088-83.485 84.088h-827.28c-46.101 0-83.506-37.644-83.506-84.088 0-46.443 37.373-84.088 83.474-84.088z" fill="#f47216"/>
 <path id="d" d="m920.6 9.9168c46.101 0 83.517 37.644 83.517 84.088 0 46.436-37.38 84.088-83.485 84.088h-120.26c-46.105 0-83.51-37.644-83.51-84.088 0-46.443 37.373-84.088 83.474-84.088z" fill="#1a68bb"/>
 <g id="e" fill="#fff">
  <path id="f" d="m84.241 86.164c-2.6935 0-3.6379-0.70986-3.434-2.0143l0.37917-2.3566c0.20747-1.3008 1.3736-2.0143 4.0707-2.0143h21.459c6.4494 0 14.036 0.94408 15.836 3.6682l-0.14666-13.822h-47.607c-10.556 0-18.375 5.6645-19.731 14.176l-1.7098 10.745c-0.74045 6.8536 0.22178 13.35 12.885 13.35h24.038c2.8151 0 3.5234 0.70986 3.1657 2.9584l-0.18958 1.1819c-0.35771 2.2449-1.2877 2.9475-4.1029 2.9475h-23.337c-9.7332 0-12.062-0.82517-16.73-3.189l-0.01431 13.35h51.363c12.312 0 17.735-7.5562 18.865-14.644l1.7671-11.106c0.72257-6.7346-0.23966-13.231-12.902-13.231z"/>
  <path id="g" d="m208 125.15c-1.1912-2.8358-2.2428-5.0807-1.0195-12.759l6.8107-42.761h-30.723c1.1876 2.8286 2.2392 5.0735 1.0159 12.752l-4.3425 27.292c-0.54729 3.4268-1.9066 4.6087-5.3084 4.6087h-10.084c-3.4018 0-4.3855-1.1819-3.8382-4.6087l6.3743-40.044h-30.723c1.1912 2.8286 2.2392 5.0735 1.0195 12.752l-3.595 22.568c-1.9745 12.403 2.1784 20.2 15.195 20.2h22.396c4.1065 0 6.3314-2.9547 8.077-5.7942h0.23251l-0.10016 5.7942z"/>
  <path id="h" d="m224.36 69.625c1.1912 2.8286 2.2392 5.0735 1.0159 12.752l-4.7754 30.009c-1.2234 7.6787-2.9868 9.9236-5.0794 12.759h33.771c-1.1912-2.8358-2.2392-5.0807-1.0159-12.759l4.3425-27.285c0.54729-3.4268 1.9066-4.6087 5.3084-4.6087h10.084c3.3982 0 4.3855 1.1819 3.8382 4.6087l-4.3425 27.285c-1.2198 7.6787-2.9868 9.9236-5.0794 12.759h33.771c-1.1912-2.8358-2.2428-5.0807-1.0195-12.759l3.595-22.564c1.9745-12.406-2.1784-20.197-15.195-20.197h-22.4c-4.1029 0-6.3314 2.9475-8.0734 5.7834h-0.23251l0.10016-5.7834z"/>
  <path id="i" d="m342.41 86.164c-2.6971 0-3.6414-0.70986-3.434-2.0143l0.3756-2.3566c0.21104-1.3008 1.3772-2.0143 4.0743-2.0143h21.455c6.453 0 14.044 0.94408 15.836 3.6682l-0.14308-13.822h-47.611c-10.552 0-18.375 5.6645-19.727 14.176l-1.7134 10.745c-0.73687 6.8536 0.22178 13.35 12.888 13.35h24.038c2.8152 0 3.5234 0.70986 3.1657 2.9584l-0.18959 1.1819c-0.3577 2.2449-1.2913 2.9475-4.1065 2.9475h-23.333c-9.7368 0-12.065-0.82517-16.73-3.189l-0.0143 13.35h51.359c12.312 0 17.739-7.5562 18.865-14.644l1.7706-11.106c0.71898-6.7346-0.23967-13.231-12.906-13.231z"/>
  <path id="j" d="m397.52 49.539c1.1876 2.8358 2.2392 5.0807 1.0195 12.759l-7.9733 50.09c-1.2234 7.6751-2.9868 9.92-5.083 12.759h33.771c-1.1876-2.8394-2.2357-5.0843-1.0159-12.759l4.3425-27.288c0.54729-3.4268 1.9066-4.6087 5.3084-4.6087h10.084c3.4018 0 4.3855 1.1819 3.8418 4.6087l-4.3461 27.288c-1.2198 7.6751-2.9868 9.92-5.0794 12.759h33.771c-1.1876-2.8394-2.2392-5.0843-1.0159-12.759l3.5914-22.564c1.9745-12.41-2.1784-20.2-15.195-20.2h-21.577c-3.0477 0-3.7845 0.94408-7.5476 5.4338h-0.23608l4.0635-25.519z"/>
  <path id="k" d="m490.76 49.539-2.3358 14.648h27.207l2.3358-14.648zm-10.241 62.85c-1.2234 7.6751-2.9868 9.92-5.0794 12.759h33.771c-1.1912-2.8394-2.2392-5.0843-1.0159-12.759l6.8107-42.764h-30.727c1.1912 2.8286 2.2392 5.0771 1.0159 12.752z" fill-rule="evenodd"/>
  <path id="l" d="m527.31 69.625c1.1912 2.8286 2.2428 5.0735 1.0195 12.752l-4.7754 30.009c-1.2234 7.6787-2.9904 9.9236-5.083 12.759h33.775c-1.1912-2.8358-2.2392-5.0807-1.0159-12.759l4.339-27.285c0.54729-3.4268 1.9102-4.6087 5.3084-4.6087h10.087c3.3982 0 4.3855 1.1819 3.8382 4.6087l-4.3426 27.285c-1.2234 7.6787-2.9868 9.9236-5.0794 12.759h33.767c-1.1876-2.8358-2.2392-5.0807-1.0159-12.759l3.5949-22.564c1.9745-12.406-2.182-20.197-15.195-20.197h-22.4c-4.0993 0-6.3314 2.9475-8.0734 5.7834h-0.23251l0.10016-5.7834z"/>
  <path id="m" d="m685.88 103.41 2.7078-17.011c1.8458-11.578-0.84418-16.77-13.278-16.77h-42.098c-12.427 0-16.773 5.1924-18.619 16.77l-3.4948 21.973c-1.8458 11.578 0.84418 16.777 13.278 16.777h55.112l4.2174-13.231c-4.7754 2.0071-7.6442 2.3638-12.924 2.3638h-26.62c-4.4534 0-5.9486-1.6503-5.43-5.6717l0.82987-5.1996zm-44.588-10.868 1.2019-7.5562c0.50794-3.189 1.6526-4.4898 4.7038-4.4898h11.371c3.0512 0 3.781 1.3008 3.273 4.4898l-1.2055 7.5562z" fill-rule="evenodd"/>
 </g>
 <g id="n" fill="#fff">
  <path id="o" d="m757.4 51.679c0.79053 3.2322 1.0195 6.2302 1.0195 11.534v50.757c0 5.3077-0.22893 8.3057-1.0195 11.534h11.532c-0.79053-3.2286-1.0159-6.2266-1.0159-11.534v-62.291z"/>
  <path id="p" d="m793.9 64.6h9.5007v-7.8481h-9.5007zm9.4971 6.6842h-10.517c0.7941 3.2322 1.0195 6.2374 1.0195 11.542v31.144c0 5.3077-0.22536 8.3057-1.0195 11.534h11.536c-0.79769-3.2286-1.0195-6.2266-1.0195-11.534z" fill-rule="evenodd"/>
  <path id="q" d="m820.12 71.286c1.6955 2.6521 2.8294 4.8501 3.5055 6.2374l23.855 47.982h12.212l22.611-43.831c1.3557-2.6521 3.1657-5.6572 6.4458-9.0012l1.2448-1.3873h-10.406c-0.33624 2.6521-1.4702 6.2374-3.6128 10.388l-20.579 39.222-20.69-41.532c-0.79411-1.7296-1.6991-4.0393-2.4932-8.0787z"/>
  <path id="r" d="m963.26 101.75v-16.384c0-10.846-3.6164-14.075-13.79-14.075h-32c-10.173 0-13.793 3.2286-13.793 14.075v26.077c0 10.835 3.62 14.067 13.793 14.067h44.66l1.1304-6.3419c-3.1657 0.81076-6.106 1.0342-11.307 1.0342h-33.914c-3.9598 0-4.8648-1.1531-4.8648-5.996v-12.457zm-50.086-5.3077v-13.84c0-4.8501 0.905-6.0032 4.8648-6.0032h30.863c3.9562 0 4.8648 1.1531 4.8648 6.0032v13.84z" fill-rule="evenodd"/>
 </g>
</svg>
