<svg id="a" width="491.05" height="236.15" data-name="Ebene 1" version="1.1" viewBox="0 0 491.05 236.15" xmlns="http://www.w3.org/2000/svg">
 <path id="b" class="cls-3" d="m478.3 174.68a12.62 12.62 0 0 0 0 1.38 1.91 1.91 0 0 0 0.24 0.83 1 1 0 0 0 0.92 0.53c1 0 1.14-0.92 1.19-1.35a12.79 12.79 0 0 0 0-1.39v-16.67c0-6.83-3.18-10.79-9.21-10.79a9.16 9.16 0 0 0-8.82 5.68 8.19 8.19 0 0 0-1.84-3.18 8.77 8.77 0 0 0-6.31-2.5 9.2 9.2 0 0 0-8.11 4.34v-1.21c0-0.33 0.05-0.9 0-1.38a2.28 2.28 0 0 0-0.24-0.83 1 1 0 0 0-0.92-0.53c-0.95 0-1.15 0.92-1.19 1.35a10.67 10.67 0 0 0 0 1.39v24.33c0 0.33-0.05 0.9 0 1.38a2.23 2.23 0 0 0 0.24 0.83 1 1 0 0 0 0.92 0.53c1 0 1.15-0.92 1.19-1.35a10.67 10.67 0 0 0 0-1.39v-16.19c0-5.18 3.53-8.93 8.11-8.93 4.3 0 6.72 3 6.72 9.42v15.7c0 0.33-0.07 0.89 0 1.36a2.16 2.16 0 0 0 0.21 0.84 1 1 0 0 0 0.91 0.54c1 0 1.15-0.92 1.2-1.35a12.79 12.79 0 0 0 0-1.39v-15.63c0-5.72 3.36-9.49 8-9.49s6.86 2.7 6.86 8.66zm-38.19-47.89c0.31 0.27 0.58 0.56 0.83 0.79a2.65 2.65 0 0 0 0.9 0.63 1.12 1.12 0 0 0 1.23-0.32 1.31 1.31 0 0 0 0.08-1.62 3.73 3.73 0 0 0-1-1.15 11.32 11.32 0 0 0-7-2.25c-4.32 0-8 2.88-8 9.92v15.05h-4.17c-0.33 0-0.9-0.05-1.38 0a2 2 0 0 0-0.83 0.24 1 1 0 0 0-0.53 0.91 1 1 0 0 0 0.53 0.94 2 2 0 0 0 0.84 0.23h5.54v24.57a12.62 12.62 0 0 0 0 1.38 2 2 0 0 0 0.23 0.83 1 1 0 0 0 0.92 0.53 1.33 1.33 0 0 0 1.29-1.36 5.34 5.34 0 0 0 0-0.8v-25.2h6.52a12.38 12.38 0 0 0 1.38 0 2 2 0 0 0 0.83-0.24 1 1 0 0 0 0.53-0.91 1.06 1.06 0 0 0-0.53-0.94 2 2 0 0 0-0.85-0.23h-7.89v-15c0-5.5 2.74-7.5 5.41-7.5a9 9 0 0 1 4.19 0.84 4.51 4.51 0 0 1 0.93 0.66m-29.5 46.75a3.4 3.4 0 1 0 3.36-3.42 3.38 3.38 0 0 0-3.36 3.42m-301.34-106.06c-11.41-7.3-33.91-9.47-48.35 4.21-16.42 15.57-17.25 41.31-1.79 57.35 16.57 17.19 27.83 23 24.08 36.43s-25 16.07-32.83 0.43c-4.88-9.75 0.62-15.61 3.76-20.6s6.94-10.54-0.39-16.41c-4.69-3.75-24.12-5.85-40.88 13.58-14 16.25-23.83 57.06 10.51 81.57 38.05 27.18 98.23 6.73 101.06-42.5 1.44-25-7.17-40.93-17.81-53.74-10.64-12.81-25.8-20.72-23.45-34.69 1.58-9.37 13.47-11.57 15-6.53 1.07 3.59-8.11 7.72-9.07 14.52-0.63 4.47 3.06 8.6 8.11 11 6.6 3.16 16.35 1.7 21.62-4.68 11.41-13.8 3.56-31.58-9.54-40m60.24 82.83c0.66 12.85 3.46 17.73 3 23.9-0.34 4.93-4.34 4.51-5.78 1.1-2.11-5-1.67-17.06 2.75-25m15.34-27c3.65-10 9.11-3.86 7.92 4.11s-7 4.12-7.59 2.64a12.83 12.83 0 0 1-0.33-6.75m-16.29-3.28c0 2.26 0.25 6.16-0.5 7.43-2.19 3.7-9.4 7.38-10.15 5.1s-0.19-8.56 1-11.38c3.32-7.8 6.66-13.1 6.86-20.56 0.16-6.35-5.32-6.73-8.61-5.72s-6.61 4.79-7.62 7.82c-2.46 7.45-3.29 16.45-3.29 27.32-2 3.54-6.83 6.33-7.33 0.25s1.53-15.94 3-22.77-5.52-6-9.87-3.29a43.69 43.69 0 0 0-17.09 19.18c-1 2.22-1.67 6 3.34 6.89 4.36 0.78 3.38 1 6.42 10.87s15.64 9.2 24.28-2c1.51 2.77 3.74 6.11 8.39 5 3.33-0.83 7-3.9 9.33-6.4 2.15-2.33 2.67-0.95 1.35 1.22-1.22 2-6 6.12-15 14.34-11.63 10.62-14.89 28.45-1.9 43 8.44 9.46 23.42 16.73 34.78 10.37 10-5.6 13.14-18.73 9.85-33.39-3.17-14.13-7.21-20.84-9.27-34.15-0.08-0.5-0.08-1.43 0.77-1 12.42 6.7 20.61-3.44 23-9.11 3.95-9.27 2.9-20.46-1.88-25.56-5.94-6.34-13.24-5.93-19.12-1.57-2.37 1.76-4.25 2.73-5.35 1.61-0.95-1-1.72-5.26-5.36-4.47s-8.1 6.33-11.39 10.62-1.76 6.58-0.25 6.83 1.52 1.28 1.52 3.54m177.31-40.08c1.5-13.37 6-23.61 8.33-25 4.82-2.77 7.59 6-8.33 25m-41-31.57c6.79-15.42 18.71 25.29-1.56 45.79 0-22-0.42-41.29 1.56-45.79m-75.58 65.45c-2.2-8.45 5-12.77 5-8.84s-2.67 6.87-5 8.84m158.76 16.49c0.73 13.23-5.94 22.66-11.92 26.45-4.18 2.64-10.54 3.12-8.79-5 1.53-7.11 10.72-14 20.71-21.45m76.81-52.56c-16.08 0.38-40.3 13.84-63.37 28.76-1.06 0.69-1.2 0.53-1.29-0.18-1-7.32 0-17.75 0.76-20.52s5.4-14.05 5.65-18.34-2.4-9.35-9.07-8.1c-7.72 1.44-9.84 10.53-8 27.58-1.81 5.75-8.48 7.57-8.81 2.79-0.39-5.69-1.41-12.43-6.22-12.12-4.56 0.3-10.64 9.95-14.24 14.54-6.26 8-12.06 9.89-13.5 4.25 46.89-46.78 36.78-70 22.36-72.06-10.08-1.43-36.43 12.15-38.6 67.7-14.18 18.53-31.05 41.26-35.75 51.95 1.19-6.78 4.41-19.22 6.79-30.08 7.66-6.84 17.29-15.63 24.21-30.47 23-49.28 0.52-83.67-21.48-83.42-40.84 0.47-15.43 75.22-17.33 112.33-5.75 5.43-13 2.27-12.08-3.73 1.4-8.86 7.27-11.52 7.79-19 0.3-4.32-4.31-7.38-9.36-4.34s-8.86 4.29-14.42 3.79-10.25 3.09-9.29 10.68c2.42 19.1-11.82 25-16.9 20.84-0.71-0.58-0.91-1-0.07-1.52 6.42-3.68 10.54-8.36 12.12-14.94 2.1-8.71-1-15.84-8.37-16.59s-15.74 3.6-19.8 13.95c-2.74 7-3.47 18.45 0.84 24.74a17.51 17.51 0 0 0 19.08 7.19c17.4-5 21.39-27.68 22.39-29.44s4.55-2.53 3.29 0.25-5.45 10.34-6.83 15.67c-2.47 9.6 1.94 17.15 8.7 18.08 6.43 0.88 13.18-2.9 20.19-10.4 0.48-0.52 1.38-0.67 1.12 1.56-2.24 19.29-7.5 28.35-16.65 38.12-25.77 27.52-13.17 52.36 2.49 51.54 8.12-0.42 13.11-13.77 15.74-29 1.9-11 1.81-21.9 11.15-37.57s29.83-35.89 32.11-37.93 2.54-1.52 3.8 0.26 5.32 6.05 10.62 5.8c8.33-0.39 15.17-13 19.6-18.24 2.76-3.29 1.62 2.15 5.43 6.36 3.38 3.73 9.84 4.68 16.77-4.46 1.08-1.42 2-0.86 1.94 0.42-0.18 7-1.14 7.5-5.56 11.13-1.41 1.15-6.77 4.53-19.42 12.71-24.86 16.06-31.07 35.33-24.31 50 5.23 11.36 27.44 21.67 47.79 5.28 21.25-17.11 20-37.19 17.18-60.44-0.2-1.75-0.12-2 1.26-2.79 37.87-22 53.07-6.26 64.09-5 31.12 3.5 28.12-38.41-4.48-37.64" fill="#b38808"/>
</svg>
