<svg width="990.7" height="207.8" version="1.1" viewBox="0 0 990.7 207.8" xml:space="preserve" xmlns="http://www.w3.org/2000/svg">
<g transform="matrix(.81908 0 0 .81908 0 .085109)">
	<path d="M 0,87.7 41.7,129.5 0,171.2 V 249 L 118.3,129.5 0,9.9 Z"/>
	<path d="m106.3 10v77.7l41.7 41.8-41.7 41.7v77.8l118.3-119.5z"/>
<path d="m731 88.2c0-16.9-9.9-27.1-33.3-27.1-5.1 0-10.9 0.3-13.7 0.6v55.1c2.5 0.3 7.7 0.6 12.5 0.6 21 0.1 34.5-11 34.5-29.2m66.4 148.7h-60.4l-51.1-84h-1.9v84h-49.6v-215c18.1-1.3 41.4-1.6 67.2-1.6 50.7 0 80.3 18.2 80.3 63.8 0 29-17.8 52.5-46.5 59.5 5.7 8.3 11.1 16.2 16.5 24.2z"/><path d="m299.5 240.2c-14.9 0-30.6-1.6-44.2-4.8l2.2-47.1c12.1 4.5 30.3 9.1 45.8 9.1 18.2 0 31.3-7.6 31.3-22.9 0-36.6-84.3-18.5-86-89.9-0.9-40.4 31.8-67.1 85.6-67.1 11.4 0 25.7 1.3 39.1 3.8l-0.1 43.9c-12.1-3.5-28.2-6.7-40.9-6.7-20.8 0-30.7 8.9-30.7 21 0 33.5 86 20.7 86 88 0.1 41.7-33.3 72.7-88.1 72.7"/><path d="m572.2 21.9-21.6 133.2-21.7-133.2h-50l-21.6 133.2-21.6-133.2h-50l38 215.1h56l24.2-138 24.3 138h56l37.9-215.1z"/></g>
<path d="m800 207.8v-44.149c-27.03 0-42.674 0-70.359 1.0648l19.658-20.068c27.685-26.784 44.312-51.275 44.312-82.482 0-32.927-20.313-62.169-67.984-62.169-23.344 0-42.347 7.126-57.664 16.955l9.9928 40.463c10.32-8.5185 23.999-14.58 37.35-14.58 17.692 0 26.375 10.566 26.375 27.849 0 19.986-10.976 32.927-53.322 75.028l-22.033 23.753v38.333z" stroke-width=".81908"/>

<g transform="matrix(13.173 0 0 13.173 -6024.7 4385)" style="shape-inside:url(#rect6050);white-space:pre" aria-label="5.1"><path d="m520.61-324.53c0.456 0.12 1.044 0.18 1.632 0.18 1.848 0 3.084-1.008 3.084-2.592 0-1.284-0.984-2.256-2.82-2.256-0.192 0-0.468 0.012-0.672 0.024v-2.052h3.204v-1.032h-4.212v4.032c0.312-0.048 0.816-0.096 1.344-0.096 1.188 0 1.992 0.504 1.992 1.512 0 0.984-0.696 1.536-1.848 1.536-0.576 0-1.188-0.084-1.608-0.228z"/><path d="m527.16-325.09c0-0.408-0.324-0.744-0.744-0.744-0.408 0-0.744 0.336-0.744 0.744s0.336 0.744 0.744 0.744c0.42 0 0.744-0.336 0.744-0.744z"/><path d="m532.56-324.45v-0.972h-1.836v-6.828h-0.948l-2.292 0.816 0.192 0.912 1.896-0.648v5.748h-2.076v0.972z"/></g></svg>
