<svg width="800" height="416.18" version="1.1" viewBox="0 0 800 416.18" xml:space="preserve" xmlns="http://www.w3.org/2000/svg">
<g fill="#0cbaea" stroke-width="1.6257"><path d="m316.85 294.57c-34.627 0-62.754 27.151-62.754 60.477 0 33.327 28.127 60.474 62.754 60.474 13.818 0 26.659-4.3881 37.064-11.704v8.7793h25.687v-57.55c0-33.327-28.124-60.477-62.751-60.477zm0 26.338c19.508 0 35.276 15.281 35.276 34.139s-15.768 34.139-35.276 34.139-35.279-15.281-35.279-34.139 15.771-34.139 35.279-34.139z"/><path d="m489 264.34v41.293c-10.079-6.6653-22.271-10.567-35.276-10.567-34.627 0-62.751 27.148-62.751 60.474 0 33.327 28.124 60.639 62.751 60.639s62.751-27.148 62.751-60.474v-91.366zm-35.276 57.061c19.508 0 35.276 15.282 35.276 33.977 0 19.021-15.768 34.301-35.276 34.301s-35.276-15.281-35.276-34.139 15.768-34.139 35.276-34.139z"/><path class="st2" d="m531.27 412.76h27.474v-115.26h-27.474v115.26"/><path class="st2" d="m545.09 287.75c9.2664 0 16.745-7.153 16.745-16.094s-7.4782-16.094-16.745-16.094c-9.2664 0-16.745 7.153-16.745 16.094s7.4782 16.094 16.745 16.094"/><path d="m634.34 295.22c-34.627 0-62.751 27.151-62.751 60.477 0 33.327 28.124 60.474 62.751 60.474s62.751-27.148 62.751-60.474c0-33.327-28.124-60.477-62.751-60.477zm0 26.173c19.508 0 35.279 15.281 35.279 34.139s-15.771 34.139-35.279 34.139-35.276-15.281-35.276-34.139 15.768-34.139 35.276-34.139z"/><path class="st2" d="m197.85 344.65v68.116h27.474v-68.116c0-13.006 10.892-23.572 24.385-23.572v-26.336c-28.775 0-51.859 22.272-51.859 49.909"/></g>
<path d="m398.13 6.8203e-6c-39.829 0-73.807 23.411-88.276 56.575-16.907-15.444-39.504-25.038-64.377-25.363h-245.48v40.807h62.913v51.857c0 56.574 27.963 106.81 71.206 138.51l30.399-29.262c-35.765-24.06-59.176-64.054-59.176-109.25v-51.857h59.014c-10.242 14.631-16.257 32.35-16.257 51.533 0 51.047 42.919 92.34 95.754 92.34 39.829 0 73.807-23.411 88.438-56.575 17.232 15.769 40.317 25.36 65.84 25.36 21.459 0 41.129-6.8266 57.061-18.206 11.055 39.342 48.284 68.279 92.502 68.279 36.903 0 68.927-20.158 85.022-49.745 17.557 19.021 43.081 30.888 71.53 30.888 52.835 0 95.754-41.294 95.754-92.34 0-51.047-42.918-92.34-95.916-92.34-52.835 0-95.754 41.294-95.754 92.34 0 1.3006-6.3e-4 2.4373 0.16194 3.5752h-62.589v37.067h50.234c-8.4536 17.72-26.987 29.913-48.609 29.913-29.588 0-53.483-23.087-53.483-51.536 0-28.45 23.895-51.533 53.483-51.533 9.1038 0 17.558 2.1121 25.036 6.0138l30.888-29.91c-15.769-10.892-34.95-17.235-55.759-17.235-26.499 0-50.398 10.407-67.793 26.989h-83.561v37.064h50.234c-8.4536 17.72-26.987 29.913-48.609 29.913-29.588 0-53.483-23.083-53.483-51.533s23.895-51.536 53.483-51.536c16.419 0 31.215 7.1537 40.969 18.533l30.237-29.1c-17.557-18.533-42.917-30.237-71.041-30.237zm305.79 72.181c29.75 0 53.81 23.083 53.81 51.695s-24.06 51.698-53.81 51.698-53.81-23.086-53.81-51.698 24.06-51.695 53.81-51.695zm-460.56 0.4858c29.75 0 53.81 23.086 53.81 51.698s-24.06 51.698-53.81 51.698-53.81-23.086-53.81-51.698 24.06-51.698 53.81-51.698z" fill="#ec6500" stroke-width="1.6257"/>
</svg>
