<svg width="800" height="426.82" space="preserve" version="1.1" viewBox="0 0 800 426.82" xmlns="http://www.w3.org/2000/svg">
 <g transform="matrix(3.3529 0 0 3.3529 0 -1.0059)">
  <path class="st0" d="m119.3 31.1c-3.3 0-5.9-2.6-5.9-5.8s2.6-5.8 5.9-5.8 5.9 2.6 5.9 5.8-2.6 5.8-5.9 5.8zm12.9-5.9s-4.3-6.8-12.9-6.8-12.9 6.8-12.9 6.8 6 6.8 12.9 6.8 12.9-6.8 12.9-6.8z"/>
  <path class="st0" d="m118 21.9c-1.1 0-2 0.9-2 2.1s0.9 2.1 2 2.1 2-0.9 2-2.1-0.9-2.1-2-2.1"/>
  <path class="st0" d="m78.5 47.1c0.9 1.4 2 2.7 3.1 3.9v0.6c0 20.8 16.9 37.7 37.7 37.7s37.7-16.9 37.7-37.7v-0.6c1.2-1.2 2.2-2.5 3.1-3.9 0.3 2.1 0.4 4.2 0.4 6.4 0 31.9-41.3 44.6-41.3 44.6s-41.2-11.8-41.2-44.6c0-2.1 0.2-4.3 0.5-6.4zm31.3-11.1c6.7 4.3 8.4 10.3 8.4 21.2 0 24.8-9.7 27.9-9.7 27.9s-16.6-5-16.6-16.4c0-6.7 9.6-8.7 9.6-8.7s-43.7-12.3-13.5-43.7c0.5 7.4 14.5 15 21.8 19.7zm34.2-13c-6.6-5.7-15.2-9.2-24.7-9.2-9.4 0-18 3.5-24.6 9.2-0.9-0.9-1.8-1.7-2.5-2.6 2.4-3 3.3-6.5 3.2-8.3 2 1.6 6 1.8 10.4 0.3 0.2-0.1 0.4-0.1 0.7-0.2 4.5-1.6 9.4-4.9 12.8-9.8 3.4 4.9 8.1 8.1 12.6 9.8 0.4 0.1 0.8 0.3 1.2 0.4 4.2 1.3 8.1 1.1 10-0.5 0 1.8 0.8 5.3 3.3 8.4-0.7 0.8-1.5 1.7-2.4 2.5zm-24.7 20.1c-1.5-4.5-3.3-7-8.7-10.6-6.7-4.4-7.6-7.4-7.6-7.4s4.3-9.1 16.2-9.1c12 0 16.2 9.1 16.2 9.1s-0.9 3-7.6 7.4c-5.2 3.6-7 6.1-8.5 10.6zm27.4 25.6c0 11.5-16.6 16.4-16.6 16.4s-9.7-3.1-9.7-27.9c0-10.9 1.7-16.9 8.4-21.2 7.3-4.7 21.3-12.4 21.7-19.8 30.3 31.5-13.4 43.8-13.4 43.8s9.6 2 9.6 8.7zm15.9-27.2c2.2-8.1-1.4-17.1-10.6-26.7-0.4-0.4-0.9-0.6-1.4-0.6-0.2 0-0.5 0-0.7 0.1-0.7 0.3-1.2 1-1.3 1.7-0.1 0.9-0.4 1.8-0.9 2.7-1.8-2.4-2.6-5.2-2.6-6.7 0-0.8-0.4-1.5-1.1-1.8-0.3-0.1-0.6-0.2-0.9-0.2-0.5 0-0.9 0.2-1.3 0.4-0.7 0.5-2 0.9-3.5 0.9-1.4 0-3-0.3-4.6-0.7-0.4-0.1-0.8-0.3-1.2-0.4-2.7-1-7.8-3.5-11.6-9-0.4-0.5-1-0.9-1.6-0.9-0.7 0-1.3 0.3-1.6 0.9-3.9 5.6-9.1 8.1-11.8 9.1-0.2 0.1-0.5 0.1-0.6 0.2-1.7 0.6-3.5 0.9-5.1 0.9s-2.8-0.3-3.5-0.9c-0.3-0.3-0.8-0.4-1.3-0.4-0.3 0-0.6 0.1-0.9 0.2-0.7 0.3-1.1 1.1-1.1 1.8 0 1.5-0.7 4.3-2.5 6.7-0.5-1-0.8-1.9-0.9-2.7 0-0.8-0.6-1.5-1.3-1.7-0.2-0.1-0.4-0.1-0.7-0.1-0.5 0-1.1 0.2-1.4 0.6-9.2 9.6-12.8 18.5-10.6 26.6 0.3 1.3 0.9 2.6 1.5 3.8-0.6 0.3-1 0.9-1.1 1.5-0.3 2.2-0.4 4.4-0.4 6.7 0 14.1 7.4 26.6 21.5 36.3 10.5 7.2 20.8 10.2 21.2 10.3 0.2 0.1 0.4 0.1 0.5 0.1 0.2 0 0.4 0 0.6-0.1 0.4-0.1 10.7-3.3 21.2-10.6 14.1-9.8 21.5-22.2 21.5-35.9 0-2.2-0.2-4.4-0.4-6.6-0.1-0.6-0.5-1.2-1.1-1.5 0.7-1.4 1.2-2.7 1.6-4z"/>
 </g>
 <g transform="matrix(3.3529 0 0 3.3529 0 -1.0059)">
  <path class="st0" d="m27.4 126c-3.3 0-5.9-2.8-5.9-6.2s2.6-6.2 5.9-6.2 5.9 2.8 5.9 6.2c0 3.5-2.6 6.2-5.9 6.2zm0-14c-4.3 0-7.7 3.5-7.7 7.7 0 4.3 3.4 7.8 7.7 7.8s7.7-3.5 7.7-7.8c0.1-4.2-3.3-7.7-7.7-7.7z"/>
  <path class="st0" d="m72.8 126c-3.3 0-5.9-2.8-5.9-6.2s2.6-6.2 5.9-6.2 5.9 2.8 5.9 6.2c0 3.5-2.6 6.2-5.9 6.2zm0-14c-4.3 0-7.7 3.5-7.7 7.7 0 4.3 3.4 7.8 7.7 7.8s7.7-3.5 7.7-7.8c0-4.2-3.4-7.7-7.7-7.7z"/>
  <path class="st0" d="m92 119.8h-1.4v-6h1.2c2.3 0 3.4 1.4 3.4 3 0 1.7-1.4 3-3.2 3zm5-3.1c0-2.5-1.8-4.4-5.1-4.4h-3.9c0.5 0.5 0.8 1.9 0.8 3.7v7.5c0 1.5 0 3.1-0.1 3.8h1.9c-0.1-0.7-0.1-2.3-0.1-3.8v-2.4h1.9c1.3 2.2 3.1 4.7 4.3 6.3h2.4c-1.7-1.6-3.6-4.6-5.2-6.6 1.6-0.5 3.1-1.8 3.1-4.1z"/>
  <path class="st0" d="m130.3 126c-3.3 0-5.9-2.8-5.9-6.2s2.6-6.2 5.9-6.2 5.9 2.8 5.9 6.2c0 3.5-2.7 6.2-5.9 6.2zm0-14c-4.3 0-7.7 3.5-7.7 7.7 0 4.3 3.4 7.8 7.7 7.8s7.7-3.5 7.7-7.8c0-4.2-3.4-7.7-7.7-7.7z"/>
  <path class="st0" d="m172.8 125.8v-9.6c0-1.5 0-3.3 0.1-3.9h-2.6c0.5 0.5 0.8 1.9 0.8 3.8v7.3c0 1 0 2.7-0.1 3.9h4.5c1.5 0 2.8 0 3.5 0.1v-1.7c-0.7 0-2 0.1-3.5 0.1h-2.7"/>
  <path class="st0" d="m189.1 120.8 2.3-5.5 2.3 5.5zm2.6-8.8h-0.5l-5.2 12c-0.5 1.2-1.1 2.4-1.6 3.3h2c0.2-0.6 0.5-1.4 1-2.5l1.1-2.6h5.7l1.1 2.6c0.4 1 0.8 1.8 1 2.5h2.3c-0.5-0.9-1.1-2.1-1.6-3.3z"/>
  <path class="st0" d="m231 125.8h-2.2v-12.1h2.2c3.3 0 5.8 2.7 5.8 6 0 3.4-2.6 6.1-5.8 6.1zm0.1-13.5h-4.9c0.5 0.5 0.8 1.8 0.8 3.7v7.4c0 1.5 0 3.2-0.1 3.9h4.2c4.1 0 7.5-3.4 7.5-7.5s-3.4-7.5-7.5-7.5z"/>
  <path class="st0" d="m109.4 119.8h-1.4v-6h1.2c2.3 0 3.4 1.4 3.4 3 0 1.7-1.4 3-3.2 3zm5-3.1c0-2.5-1.8-4.4-5.1-4.4h-3.9c0.5 0.5 0.8 1.8 0.8 3.6v7.6c0 1.5 0 3.1-0.1 3.8h1.9c-0.1-0.7-0.1-2.3-0.1-3.8v-2.4h1.9c1.3 2.2 3.1 4.7 4.3 6.3h2.4c-1.7-1.6-3.6-4.6-5.2-6.6 1.7-0.5 3.1-1.8 3.1-4.1z"/>
  <path class="st0" d="m57.8 125.6c-0.1-0.5-0.1-1.1-0.2-1.8l-1.3-11.8h-0.5l-5.8 12.5-5.6-12.5h-0.5l-1.6 11.3c-0.1 0.8-0.2 1.6-0.3 2.3-0.1 0.8-0.3 1.3-0.6 1.7h2.3c0-0.8 0.1-1.9 0.3-3.2l1-7.8 4.8 11.2h0.4l4.9-11.2 0.7 8c0.1 1.5 0.2 2.3 0.2 3h2.4c-0.3-0.3-0.5-0.8-0.6-1.7"/>
  <path class="st0" d="m162 112.3c-0.2 0.5-0.4 1.2-1.2 2.9l-4 9.3-2.5-5.7 1.6-3.4c0.7-1.6 1.2-2.6 1.5-3.1h-1.9c-0.2 0.7-0.5 1.4-1.1 2.8l-0.8 1.9-0.8-1.9c-0.7-1.6-1-2.2-1.2-2.9h-2c0.5 0.9 0.9 1.5 1.6 3l1.7 3.7-2.4 5.6-4.3-9.7c-0.5-1-0.9-1.9-1.1-2.6h-2.4c0.2 0.2 0.6 0.5 0.9 1.1l1 2 5.7 12.3h0.3l3.2-7 3.2 7h0.2l5.6-12.2c0.2-0.4 0.4-0.8 0.5-1.1s0.3-0.6 0.4-0.9c0.3-0.5 0.6-0.9 0.9-1.1h-2.6"/>
  <path class="st0" d="m217.8 116.1c0-1.9 0.1-3.3 0.6-3.8h-2.4c0 0.9 0.1 2.7 0.1 3.9v7.5l-8.1-9.6c-0.7-0.8-1.1-1.3-1.8-2.1h-0.4c0 1.2 0.1 2.9 0.1 4.2v7.9c0 1.2 0 2.6-0.1 3.2h1.9c0-0.6-0.1-2-0.1-3.2v-8.3l8.3 9.8c0.7 0.8 1.1 1.2 1.6 1.9h0.4c-0.1-1.3-0.1-2.3-0.1-3.2v-8.2"/>
  <path class="st0" d="m15 112.2c-0.3 0.1-0.8 0.1-1.4 0.1h-11.5c-0.6 0-1-0.1-1.4-0.1-0.1 1-0.3 1.8-0.7 2.1 0.5-0.2 1.1-0.3 2-0.3 0.4 0 0.9-0.1 1.5-0.1h3.3c0 0.8 0.1 1.9 0.1 2.8v6.8c0 1.5 0 3.2-0.1 3.9h1.9c-0.1-0.7-0.1-2.4-0.1-3.9v-9.6h3.5c0.5 0 1 0.1 1.5 0.1 0.9 0.1 1.6 0.2 2 0.3-0.3-0.4-0.5-1.1-0.6-2.1"/>
 </g>
</svg>
