<svg width="800" height="643.21" data-name="Layer 1" version="1.1" viewBox="0 0 800 643.21" xmlns="http://www.w3.org/2000/svg">
 <defs>
  <clipPath id="e6975908-a104-4256-b1ec-70a922156fcc">
   <rect transform="rotate(-6 121.34 97.56)" x="8.3944" y="11.334" width="225.89" height="172.45" fill="none"/>
  </clipPath>
 </defs>
 <rect transform="rotate(-6)" x="-8.1363" y="77.411" width="744.66" height="568.48" fill="#ed6c00" stroke-width="3.2965"/>
 <g transform="matrix(3.2965 0 0 3.2965 -5.9874e-5 -.0027063)" clip-path="url(#e6975908-a104-4256-b1ec-70a922156fcc)" fill="#fff">
  <path d="m229.09 35.262a8.7691 8.7691 0 0 0-0.828-3.111 5.6186 5.6186 0 0 0-1.51-1.887 5.344 5.344 0 0 0-1.95-0.95 10.164 10.164 0 0 0-2.231-0.306 5.5912 5.5912 0 0 0 1.744-0.646 6.5778 6.5778 0 0 0 1.533-1.202 5.089 5.089 0 0 0 1.059-1.654 4.3154 4.3154 0 0 0 0.246-2.07l-1.355-12.892a11.935 11.935 0 0 0-1.161-4.08 9.9938 9.9938 0 0 0-2.456-3.174 9.8859 9.8859 0 0 0-3.597-1.935 11.748 11.748 0 0 0-4.665-0.358l-27.992 2.942 5.829 55.456 16.324-1.716-2.029-19.299 2.135-0.225a7.6801 7.6801 0 0 1 2.207 0.076 3.8361 3.8361 0 0 1 1.822 0.85 3.0644 3.0644 0 0 1 0.918 2.101l1.659 15.791 16.399-1.723zm-18.382-9.057a3.415 3.415 0 0 1-2.23 0.813l-3.431 0.36-1.227-11.67 3.51-0.369q0.915-0.096 1.454-0.112a1.2862 1.2862 0 0 1 0.875 0.253 1.7668 1.7668 0 0 1 0.518 0.912 11.243 11.243 0 0 1 0.313 1.855l0.602 5.721a2.9738 2.9738 0 0 1-0.384 2.237m-23.628 19.119-16.016 1.683-0.649-6.18 13.862-1.456-1.513-14.402-13.863 1.457-0.632-6.005 15.547-1.634-1.509-14.356-33.442 3.514 5.817 55.346 33.912-3.564zm-39.199-8.928a15.889 15.889 0 0 0-0.661-3.363 4.5037 4.5037 0 0 0-1.295-2.023 4.0995 4.0995 0 0 0-2.25-0.882 16.31 16.31 0 0 0-3.466 0.055l-11.822 1.243q-1.143 0.12-1.294-1.329l-0.481-4.577a1.188 1.188 0 0 1 0.169-0.942 1.3605 1.3605 0 0 1 0.852-0.322l18.002-1.891-1.475-14.036-24.103 2.533a36.083 36.083 0 0 0-5.457 0.921 6.8846 6.8846 0 0 0-3.279 1.81 5.8911 5.8911 0 0 0-1.453 3.431 26.026 26.026 0 0 0 0.097 5.694l2.021 19.224q0.273 2.595 1.664 3.334a6.1927 6.1927 0 0 0 3.599 0.509l12.89-1.355q1.2975-0.1365 1.441 1.238l0.497 4.727q0.072 0.69-0.174 0.904a1.3709 1.3709 0 0 1-0.78 0.276l-17.927 1.884 1.476 14.037 26.239-2.757a25.497 25.497 0 0 0 5.104-0.962 5.3146 5.3146 0 0 0 2.808-1.915 6.5694 6.5694 0 0 0 1.024-3.464 37.26 37.26 0 0 0-0.25-5.679zm-43.249-23.94-15.081 1.585 2.645 25.168-13.734-24.002-15.244 1.602 5.832 55.482 15.047-1.581-2.499-23.773 13.426 22.625 15.44-1.623zm-45.304 4.789-16.627 1.748 4.153 39.512a2.5241 2.5241 0 0 1-0.167 1.365 1.3186 1.3186 0 0 1-1.167 0.626l-3.508 0.369a1.3231 1.3231 0 0 1-1.273-0.369 2.5194 2.5194 0 0 1-0.446-1.301l-4.153-39.513-16.705 1.756 5.059 48.131a7.2345 7.2345 0 0 0 2.576 5.051 6.8509 6.8509 0 0 0 5.287 1.528l25.783-2.71a6.7326 6.7326 0 0 0 4.818-2.59 7.3191 7.3191 0 0 0 1.429-5.472z"/>
  <path d="m234.45 86.24-25.973 2.73 2.025 19.263 4.58-0.481 0.839 7.982a2.5753 2.5753 0 0 1-0.504 1.883 2.3014 2.3014 0 0 1-1.677 0.93l-6.492 0.682a2.3725 2.3725 0 0 1-2.587-2.097l-3.524-33.524a3.1089 3.1089 0 0 1 0.25-1.695c0.236-0.488 0.814-0.784 1.739-0.881l30.44-3.2-2.058-19.584-45.66 4.799a9.6866 9.6866 0 0 0-8.763 10.819l6.052 57.582a9.7356 9.7356 0 0 0 3.58 6.94 9.6106 9.6106 0 0 0 7.263 2.035l35.868-3.77a9.5665 9.5665 0 0 0 6.733-3.505 9.841 9.841 0 0 0 2.007-7.528zm-63.494-21.597-21.025 2.21 3.687 35.086-19.147-33.461-21.251 2.233 8.13 77.345 20.979-2.204-3.483-33.139 18.713 31.538 21.526-2.263zm-62.421 6.53-23.736 2.494 8.133 77.378 23.735-2.494zm-25.954 18.223a15.719 15.719 0 0 0-5.5-10.344 15.135 15.135 0 0 0-5.191-2.791 15.33 15.33 0 0 0-6.248-0.58l-40.018 4.206 8.133 77.376 40.017-4.206a16.43 16.43 0 0 0 6.211-1.837 13.919 13.919 0 0 0 4.449-3.748 15.34 15.34 0 0 0 2.577-5.168 15.869 15.869 0 0 0 0.491-6.078zm-19.283 42.81a2.5833 2.5833 0 0 1-0.381 1.493 1.6614 1.6614 0 0 1-1.115 0.655q-0.73951 0.1335-2.018 0.267l-5.321 0.56-3.983-37.892 5.322-0.559c0.853-0.089 1.528-0.139 2.029-0.158a1.7981 1.7981 0 0 1 1.221 0.356 2.2984 2.2984 0 0 1 0.678 1.328 26.302 26.302 0 0 1 0.385 2.648l2.998 28.524a27.352 27.352 0 0 1 0.185 2.778"/>
 </g>
</svg>
