<svg width="1133.4pt" height="294.01pt" version="1.1" viewBox="0 0 1133.4 294.01" xmlns="http://www.w3.org/2000/svg">
 <path d="m135.47 0.39814c22.75-1.67 45.91 1.92 66.99 10.65 27.32 11.32 51.16 31.02 67.16 55.92 11.34 17.15 18.62 36.85 21.95 57.1 1.49 11.99 2.75 24.16 1.04 36.2-3.15 39.95-24.02 78.01-55.64 102.55-24.48 19.33-55.35 30.57-86.56 31.1-44.08 1.64-88.26-18.43-116.27-52.45-17.59-20.69-28.87-46.46-32.85-73.27-1.55-12.29-1.63-24.73-0.64-37.07 2.88-26.52 13.07-52.23 29.32-73.4 17.42-22.7 41.45-40.4 68.58-49.64 11.89-4.23 24.37-6.61 36.92-7.69m-25.93 15.31c-28.11 7.91-53.5 25.18-71.14 48.45-18.09 23.59-28.27 53.27-27.95 83.03-0.22 20.24 4.56 40.45 13.24 58.71 12.4 25.98 33.23 47.93 58.69 61.43 28.74 15.62 63.25 20.07 95.06 12.59 17.95-4.07 34.85-12.12 49.77-22.84l-38.51-18.98-43.75 21.17 2.66-25.53 13.22-0.46 0.01 4.36 27.57-13.3 28 12.68-3.63-29.7 21.01-23.01-9.48-1.92 4.54-12.02 30.2 5.46-33.12 34.88 5.5 43.04c31.91-25.37 51.87-65.65 51.1-106.57 0.58-25.29-6.95-50.52-20.18-71.99-16.64-26.99-42.97-47.85-73.12-57.74-25.61-8.47-53.73-9.09-79.69-1.74z" fill="#00457c"/>
 <path d="m121.62 50.588c22.52-4.27 46.61 0.19 65.99 12.48 1.44 0.73 2.8 2.16 4.58 1.74l22.24-2.56 31.72 41.48-15.51 36.3c-1.11-8.64-3.47-17.07-6.77-25.12l3.71-8.89-20.36-27.09-11.56 1.66c-8.43-5.94-17.93-10.24-27.85-12.99l13.36-1.62c-12.53-6.65-26.53-10.91-40.79-10.95-22.56-0.65-45.15 8.22-61.41 23.83-15.03 14.14-24.62 33.83-26.7 54.33-0.66 10.87-0.22 21.81 2.57 32.38l7.78-18.78c0 9.23 1.01 18.55 3.88 27.36l0.8981 2.5802-3.9481 9.9998c6.73 8.89 13.37 17.85 20.15 26.7l7.73-0.78c6.32 5.43 13.38 9.91 20.89 13.51l-36.03 4.33c-10.42-13.85-20.81-27.72-31.26-41.54l6.44-15.31c-3.45-9.75-5.58-20.07-5.25-30.44-0.83-23.2 8.23-46.37 23.72-63.55 13.46-15 31.95-25.44 51.78-29.06z" fill="#00457c"/>
 <path d="m133.79 69.808c15.31-2.16 31.25-0.02 45.25 6.64 18.23 8.58 33.02 24.36 40.09 43.26 6.75 17.37 6.91 37.11 0.66 54.65-8.59 24.73-30.3 44.34-55.81 50.26-8.66 2.35-17.72 2.09-26.6 1.72-19.26-1.79-37.53-11.32-50.41-25.69-11.52-12.8-18.65-29.46-19.93-46.63-1.62-19.44 4.41-39.46 16.51-54.77 12.15-15.81 30.58-26.41 50.24-29.44z" fill="#00457c"/>
 <g transform="translate(-73.628 -213.8)" fill="#00467d">
  <path d="m923.04 462.27h-7.4895l-9.4966-13.117q-1.0552 0.0414-1.7172 0.0414-0.269 0-0.5793 0-0.3103-0.0206-0.6414-0.0414v8.1517q0 2.6483 0.5794 3.2896 0.7861 0.91034 2.3585 0.91034h1.0966v0.76551h-12.021v-0.76551h1.0552q1.7793 0 2.5449-1.1586 0.4344-0.64138 0.4344-3.0414v-18.124q0-2.6483-0.5794-3.2896-0.8068-0.91034-2.3999-0.91034h-1.0552v-0.76551h10.221q4.4689 0 6.5793 0.66207 2.1309 0.64137 3.5999 2.4 1.4897 1.7379 1.4897 4.1586 0 2.5862-1.6966 4.4896-1.6758 1.9034-5.2138 2.6896l5.7931 8.0482q1.9862 2.7724 3.4139 3.6828 1.4275 0.91033 3.724 1.1586zm-19.924-14.421q0.3931 0 0.6827 0.0206 0.2898 0 0.4759 0 4.0138 0 6.0414-1.7379 2.0483-1.7379 2.0483-4.4276 0-2.6276-1.6552-4.262-1.6345-1.6552-4.3448-1.6552-1.2 0-3.2483 0.3931z"/>
  <path d="m986.42 452.8h-10.862l-1.9034 4.4276q-0.7035 1.6345-0.7035 2.4414 0 0.64138 0.6 1.1379 0.6207 0.47585 2.6482 0.62068v0.76551h-8.8344v-0.76551q1.7586-0.31035 2.2759-0.8069 1.0551-0.99309 2.3378-4.0345l9.869-23.09h0.7241l9.7655 23.338q1.1793 2.8138 2.131 3.662 0.9724 0.82758 2.6897 0.93103v0.76551h-11.069v-0.76551q1.6758-0.0828 2.2551-0.55862 0.6-0.47587 0.6-1.1586 0-0.91034-0.8276-2.8758zm-0.5793-1.531-4.7586-11.338-4.8828 11.338z"/>
  <path d="m1043.2 462.34v-0.76551h1.0552q1.7793 0 2.5241-1.1379 0.4552-0.68276 0.4552-3.0621v-18.124q0-2.6276-0.5794-3.2896-0.8068-0.91034-2.3999-0.91034h-1.0552v-0.76551h11.421q6.2896 0 9.5585 1.4276 3.2897 1.4276 5.2759 4.7586 2.0068 3.331 2.0068 7.6965 0 5.8551-3.5586 9.7861-3.993 4.3862-12.165 4.3862zm8.0069-2.0276q2.6276 0.57931 4.4069 0.57931 4.7999 0 7.9654-3.3724t3.1655-9.1448q0-5.8138-3.1655-9.1655t-8.131-3.3517q-1.862 0-4.2413 0.6z"/>
  <path d="m1130.3 461.44v0.76551h-12.021v-0.76551h0.9931q1.7379 0 2.5241-1.0138 0.4965-0.66206 0.4965-3.1862v-18.124q0-2.131-0.269-2.8138-0.2068-0.51724-0.8482-0.88966-0.9103-0.49655-1.9034-0.49655h-0.9931v-0.76551h12.021v0.76551h-1.0138q-1.7172 0-2.5035 1.0138-0.5172 0.66207-0.5172 3.1862v18.124q0 2.131 0.2689 2.8138 0.207 0.51724 0.8691 0.88966 0.8896 0.49655 1.8827 0.49655z"/>
  <path d="m1191.3 433.79q5.462 0 9.4551 4.1586 4.0138 4.1379 4.0138 10.345 0 6.3931-4.0345 10.614-4.0345 4.2207-9.7654 4.2207-5.7931 0-9.7448-4.1172-3.931-4.1172-3.931-10.655 0-6.6827 4.5517-10.903 3.9516-3.662 9.4551-3.662zm-0.3931 1.5103q-3.7655 0-6.0414 2.7931-2.8344 3.4758-2.8344 10.179 0 6.8689 2.9379 10.572 2.2551 2.8138 5.9586 2.8138 3.9517 0 6.5171-3.0827 2.5862-3.0827 2.5862-9.7241 0-7.2-2.8344-10.738-2.2759-2.8138-6.2896-2.8138z"/>
 </g>
 <path d="m474.18 65.588q1.09-2.2579 2.4915-2.9587 1.5572-0.85647 8.5646-1.09l0.7786-0.7786v-4.6716l-0.7786-0.7786q-17.752 0.7786-19.699 0.7786-2.8808 0-21.801-0.7786l-0.93432 0.7786v4.6716l0.93432 0.7786q11.757 0.93433 14.248 1.5572 2.4915 0.70075 2.4915 3.1144 0 3.1144-5.2166 17.518-4.7494 13.937-7.6303 21.022l-25.46 64.157-30.599-77.315q-2.4915-6.3845-5.528-15.494-3.1144-9.1096-3.1144-10.355 0-2.1022 2.3358-2.7251 2.1022-0.77861 14.093-0.77861l0.7786-0.77859v-5.3723l-0.7786-0.7786q-17.908 0.7786-25.927 0.7786-8.7982 0-25.304-0.7786l-0.93432 0.7786v4.5937l0.93432 0.85645q10.122 0.54502 11.679 2.6472 1.5572 2.1022 7.1631 15.806l33.168 82.142q10.9 28.652 12.068 32.857h9.9661q4.2823-14.093 14.56-39.086l30.443-74.901q5.8395-13.158 7.0074-15.416m81.052 38.696q-7.3188-4.2044-18.608-4.2044-16.428 0-33.713 12.847v12.068l0.77861 1.09 3.7373 0.85647 0.77859-0.46717q4.2823-10.589 5.2166-11.835 0.62288-1.1679 5.2945-2.7251 4.5937-1.7129 10.355-1.7129 10.9 0 17.207 5.9952 6.4624 5.8395 6.4624 20.244-40.098 5.6059-48.974 13.781-8.9539 7.9417-8.9539 22.268 0 7.241 3.0366 12.38 2.803 5.0609 8.5646 7.8638 5.4502 2.8808 13.314 2.8808 6.151 0 11.757-2.1801l21.256-16.74-0.38929 15.806 1.4015 1.3236q7.7081-0.54502 14.17-0.54502 6.6181 0 13.236 0.54502l0.77861-0.77861v-3.893l-0.77861-0.93432-5.6059-0.38929q-3.0366-0.3893-3.9709-0.77861-1.0122-0.31144-1.8686-1.7129-0.85645-1.3236-0.85645-7.241l0.46716-48.662q0-8.4089-3.2701-14.638-3.4258-6.3066-10.823-10.511m-28.107 79.495q-15.183 0-15.183-15.261 0-10.978 6.7738-16.273 6.6181-5.2166 34.025-9.8103v26.317q-12.691 15.027-25.616 15.027m156.58-82.376-1.9465-1.3236q-12.458 5.1388-31.455 7.3967l-0.77865 0.7786v4.2044l0.93437 0.7786 8.2532 0.0778q3.6594 0 5.0608 0.77858 1.2457 0.7786 1.5572 2.258 0.15563 1.1679 0.5451 8.2531 0.38928 5.6838 0.38928 10.667l-0.23365 21.411q-0.23364 7.786-0.77865 9.8882-0.70073 1.8686-4.5158 6.8517-3.893 5.0609-9.8882 7.9417-5.9173 2.7251-13.003 2.7251-6.3067 0-11.056-2.4915-4.6716-2.6472-6.5402-7.6303-1.9465-4.6716-1.9465-17.285v-22.813q0-20.477 1.09-32.468l-1.8686-1.3236q-12.613 5.1388-31.533 7.3967l-0.7786 0.77859v4.2044l0.85644 0.77859 8.331 0.0778q3.6594 0 5.0609 0.77859 1.2458 0.7786 1.5572 2.2579l0.54504 8.2532q0.38929 7.5524 0.38929 10.667l-0.0778 26.706q0 15.183 2.4915 21.178 2.5694 5.9952 8.7203 9.4989 5.9952 3.5037 16.896 3.5037 7.3189 0 12.925-2.1022 5.6839-2.1022 8.7982-5.0609 7.8638-8.0196 14.015-12.847l-0.85646 16.896 0.85646 0.77861q9.2653-0.70074 13.703-0.70074 3.1144 0 18.531 0.77859l0.77864-0.85646v-3.893l-1.0123-0.7786h-2.725q-7.1632 0-8.5646-0.70073-1.4794-0.70074-2.3358-2.5694-0.70074-1.7129-1.09-10.122l-0.46719-41.11q0-19.621 1.1679-32.468m125.98 7.241-0.77854-1.7908q-8.7203 0.3893-28.263 0.3893-11.134-7.9417-23.124-7.9417-7.1631 0-15.572 2.6472-8.4089 2.3358-15.416 6.696-6.8517 4.3602-10.278 11.445-3.4258 7.0853-3.4258 15.027 0 8.7982 4.8274 15.883 4.8273 7.1631 18.608 10.9l-15.65 11.29q-2.4137 4.983-2.4137 8.7982 0 3.5816 2.1801 6.2288 2.0243 2.4915 10.667 5.2166l-17.752 9.7325q-2.9587 4.7494-3.9708 8.5646-1.09 3.8151-1.09 7.6303 0 6.696 3.4258 12.535 3.4258 6.1509 9.0317 9.8104 5.2167 3.5816 13.081 5.6838 7.5523 1.7908 15.961 1.7908 15.183 0 28.03-5.6059 13.314-5.5281 20.244-16.195 6.9296-10.667 6.9296-21.489 0-6.8517-3.4258-13.236-3.4258-6.4624-8.9539-8.7203-5.606-2.4915-15.806-2.4915l-21.957 0.31143q-12.146 0-16.195-1.7129-4.0488-1.8686-4.0488-6.0731 0-2.4137 1.7129-4.6716 1.7129-2.3358 7.3967-6.7738h4.5158q9.0318 0 16.351-2.7251 7.3189-2.8808 12.847-7.3967 5.6838-4.6716 8.8761-11.134 3.1144-6.6181 3.1144-13.392 0-5.6838-2.7251-11.29h18.141q0.93427-1.8686 4.9051-7.9417m-74.045 3.6594q5.9952-5.8395 14.871-5.8395 10.433 0 16.273 8.1753 5.6838 8.0196 5.6838 18.141 0 12.146-6.2289 17.674-6.2288 5.6838-14.949 5.6838-6.618 0-11.757-3.5037-5.2166-3.5037-7.5524-10.355-2.3358-6.7738-2.3358-12.691 0-11.523 5.9952-17.285m41.344 83.855q5.3723 0.85645 8.9539 5.6838 3.4258 4.7495 3.4258 11.368 0 6.696-4.2044 13.781-4.1266 7.3188-12.847 11.523-8.5646 4.2823-18.92 4.2823-13.703 0-21.801-6.9296-8.2532-6.8517-8.2532-17.986 0-6.1509 2.8029-11.212 2.8808-5.1388 7.1632-7.9417 4.3601-2.8808 6.8517-3.348 2.5694-0.38929 18.063-0.38929 13.158 0 18.764 1.1679m99.271-96.157q-4.2823 0-8.4088 0.85646-4.3601 1.09-6.073 1.9465-1.9466 0.85646-3.893 2.7251-6.4624 6.1509-15.338 13.392l0.15584-52.4q0.23364-20.633 1.0122-28.341l-1.9467-1.1679q-12.691 5.1388-31.3 7.241l-0.77865 0.93432v4.1266l0.77865 0.7786q10.278 0 11.835 0.3893 1.3236 0.3893 2.1022 1.1679 0.545 0.85646 0.85646 5.0609 0.38927 5.0609 0.545 10.044 0 12.925 0.15593 16.506l0.38927 71.242q0 4.2823-0.38927 16.195-0.38937 9.5768-0.77865 12.613-0.46718 1.9465-1.3236 2.803-0.93427 0.93431-2.1022 1.1679-1.2457 0.3893-10.745 0.93431l-0.93437 0.7786v4.0487l0.93437 0.85646q13.47-0.77859 23.358-0.77859 9.9661 0 23.592 0.77859l0.77855-0.85646v-4.0487l-0.85646-0.7786-10.667-0.77859q-1.1679-0.31144-2.1022-1.1679-0.85646-0.93431-1.1679-2.8808-0.545-1.7129-1.0122-13.625l-0.38927-31.222q0-8.0196 1.0122-10.9 0.93427-3.0365 5.4502-7.3188 4.6716-4.2044 9.1096-6.0731 4.2823-1.7908 11.056-1.7908 6.4624 0 10.978 2.3358 4.5938 2.2579 7.3189 6.4624 2.725 4.1266 3.1922 9.1096 0.54501 4.8273 0.54501 16.584v12.847q0 21.1-1.3236 33.09l1.1679 1.0122q13.392-0.77859 14.326-0.77859 2.9586 0 16.818 0.77859l0.77854-0.77859v-4.1266l-0.77854-0.7786q-10.278 0-12.068-1.7908-1.8686-1.8686-2.18-11.056l-0.38937-41.499q0-8.1753-1.4015-13.937-1.4793-5.7616-4.8273-9.7325-3.8151-4.2823-10.667-7.241-6.8517-2.9587-14.404-2.9587m128 29.431q0-8.4089-3.4258-14.638-3.2701-6.3066-10.745-10.511-7.3188-4.2044-18.531-4.2044-16.506 0-33.791 12.847v12.068l0.7786 1.09 3.8152 0.85646 0.6229-0.46716q4.5936-10.978 5.2944-11.835 0.7008-1.2458 5.3723-2.7251 4.4379-1.7129 10.2-1.7129 10.978 0 17.285 5.9952 6.4623 5.8395 6.4623 20.244-40.02 5.6059-49.052 13.781-8.9538 8.0196-8.9538 22.268 0 7.3188 3.1143 12.38 2.803 5.0609 8.5646 7.8638 5.4502 2.8808 13.392 2.8808 6.073 0 11.679-2.1801l21.256-16.74-0.3893 15.806 1.4794 1.3236q7.6302-0.54502 14.093-0.54502 6.6181 0 13.236 0.54502l0.7786-0.77861v-3.893l-0.7786-0.93432-5.528-0.38929q-3.1144-0.3893-4.0488-0.77861-1.0122-0.31144-1.7907-1.7129-0.9344-1.2458-0.9344-7.241l0.545-48.662m-16.662 13.003v26.317q-12.691 15.027-25.694 15.027-15.183 0-15.183-15.261 0-10.9 6.7738-16.273 6.7737-5.2166 34.103-9.8104m130.42-8.5646q0-8.1753-1.4017-13.937-1.2457-5.6059-4.8272-9.7325-3.5817-4.2044-10.511-7.241-6.9295-2.9587-14.482-2.9587-4.1268 0-8.5648 0.85646-4.2823 1.09-5.9952 1.9465-2.1023 0.93432-3.8931 2.7251-6.8517 6.4624-14.793 13.003 0.155-10.978 0.7786-17.129l-1.9465-1.3236q-12.458 5.1388-31.377 7.3967l-0.7787 0.7786v4.2044l0.8565 0.7786 8.1753 0.0778q3.7372 0 5.0609 0.77858 1.3236 0.70075 1.5572 2.258 0.1559 1.1679 0.545 8.2531 0.3894 5.6838 0.3894 10.667v19.231q0 7.241-0.3894 16.195-0.4671 10.9-0.7786 12.613-0.3114 1.8686-1.1679 2.803-1.09 0.93432-2.18 1.1679-1.2458 0.31144-10.667 0.93432l-0.9343 0.77859v4.0487l0.9343 0.85646q13.47-0.7786 23.358-0.7786 9.9659 0 23.591 0.7786l0.7788-0.85646v-4.0487l-1.0124-0.77859-10.511-0.7786q-1.3238-0.3893-2.1023-1.1679-0.8565-0.85646-1.2457-2.8808-0.4673-1.8686-0.9344-13.625l-0.3892-30.833q0-7.3967 0.5448-10.122 0.3895-2.4137 2.5696-5.2166 2.3357-2.9587 6.6181-5.8395 4.2823-3.1923 8.0196-4.2823 3.5036-1.0122 8.7203-1.0122 6.3844 0 10.9 2.3358 4.6717 2.1801 7.3965 6.4624 2.6474 4.0487 3.3481 9.1096 0.3892 5.6838 0.3892 16.584v12.847q0 20.399-1.1677 33.09l1.1677 1.0122q13.003-0.7786 14.171-0.7786 3.0366 0 16.818 0.7786l0.7785-0.7786v-4.1266l-0.7785-0.77859q-10.2 0-12.146-1.7908-1.8686-1.8686-2.1023-11.056z" fill="#00467d" stroke-width="1.5572"/>
</svg>
