<!DOCTYPE svg  PUBLIC '-//W3C//DTD SVG 1.1//EN'  'http://www.w3.org/Graphics/SVG/1.1/DTD/svg11.dtd' [
	<!ENTITY ns_svg "http://www.w3.org/2000/svg">
	<!ENTITY ns_xlink "http://www.w3.org/1999/xlink">
]>
<svg enable-background="new 0 0 566.027 179.296" overflow="visible" version="1.1" viewBox="0 0 566.03 179.3" xml:space="preserve" xmlns="http://www.w3.org/2000/svg">
<path d="m531.36 170.79c0 4.696-3.807 8.504-8.504 8.504h-514.35c-4.696 0-8.504-3.808-8.504-8.504v-119.06c0-4.697 3.808-8.504 8.504-8.504h514.35c4.697 0 8.504 3.807 8.504 8.504v119.06z" fill="#F26721"/>
<path d="m499.96 75.708c-20.373 27.876 12.467 45.401 27.373 3.651 1.825-5.11 7.296-47.088-38.691-55.848-42.346-3.648-3.289 40.148 11.318 52.197z" fill="#F26721"/>
<path d="m550.34 58.921c22.268 20.072 8.763 43.069-21.004 16.148-4.023-3.644-27.117-38.057 10.053-66.521 39.789-26.287 21.906 34.673 10.951 50.373z" fill="#F26721"/>
<path d="m499.96 75.708c-20.373 27.876 12.467 45.401 27.373 3.651 1.825-5.11 7.296-47.088-38.691-55.848-42.346-3.648-3.289 40.148 11.318 52.197z" fill="#F26721" stroke="#fff" stroke-width="3.585"/>
<path d="m550.34 58.921c22.268 20.072 8.763 43.069-21.004 16.148-4.023-3.644-27.117-38.057 10.053-66.521 39.789-26.287 21.906 34.673 10.951 50.373z" fill="#F26721" stroke="#fff" stroke-width="3.1042"/>
<path d="m499.96 75.708c-20.373 27.876 12.467 45.401 27.373 3.651 1.825-5.11 7.296-47.088-38.691-55.848-42.346-3.648-3.289 40.148 11.318 52.197z" fill="none" stroke="#fff" stroke-width="4.1051"/>
<path d="m550.34 58.921c22.268 20.072 8.763 43.069-21.004 16.148-4.023-3.644-27.117-38.057 10.053-66.521 39.789-26.287 21.906 34.673 10.951 50.373z" fill="none" stroke="#fff" stroke-width="4.1051"/>
	<path d="m59.009 135.35 34.703-66.784h22.034l-47.809 86.932c-3.457 6.047-8.545 9.068-15.264 9.068-6.625 0-10.369-3.021-11.232-9.068l-10.801-86.932h22.033l6.336 66.784z"/>
	<path d="m116.35 164.2h-16.965l16.497-77.688h16.965l-16.497 77.688z"/>
	<path d="m163.22 140.81 28.197-54.305h16.9l-38.844 70.689c-2.809 4.916-6.942 7.373-12.402 7.373-5.382 0-8.424-2.457-9.126-7.373l-8.774-70.689h18.9l5.149 54.305z"/>
	<path d="m219.9 93.3c1.17-2.34 3.12-4.25 5.851-5.732 2.418-1.248 5.03-1.872 7.839-1.872 2.886 0 5.187 0.624 6.903 1.872 2.105 1.326 3.275 3.236 3.51 5.732l7.254 70.896h-17.784l-1.755-16.625h-22.698l-8.774 16.625h-17.784l37.438-70.896zm8.19 18.146-10.647 20.124h12.637l-1.99-20.124z"/>
<g fill="#fff">
	<path d="m55.009 131.35 34.703-66.784h22.034l-47.809 86.932c-3.457 6.047-8.545 9.068-15.264 9.068-6.625 0-10.369-3.021-11.232-9.068l-10.801-86.932h22.033l6.336 66.784z"/>
	<path d="m112.35 160.2h-16.965l16.497-77.688h16.965l-16.497 77.688z"/>
	<path d="m159.22 136.81 28.197-54.305h17.9l-38.844 70.689c-2.809 4.916-6.942 7.373-12.402 7.373-5.382 0-8.424-2.457-9.126-7.373l-8.774-70.689h17.9l5.149 54.305z"/>
	<path d="m215.9 89.3c1.17-2.34 3.12-4.25 5.851-5.732 2.418-1.248 5.03-1.872 7.839-1.872 2.886 0 5.187 0.624 6.903 1.872 2.105 1.326 3.275 3.236 3.51 5.732l7.254 70.896h-17.784l-1.755-16.625h-22.698l-8.774 16.625h-17.784l37.438-70.896zm8.19 18.146-10.647 20.124h12.637l-1.99-20.124z"/>
	<path d="m273.66 160.2c-5.473 0-9.744-1.967-12.816-5.904-3.168-3.936-4.129-8.688-2.879-14.258l11.809-55.445c1.15-5.375 4.078-10.08 8.783-14.113 4.8-3.936 9.937-5.904 15.408-5.904h42.912l-4.465 20.875h-37.294c-1.25 0-2.449 0.457-3.603 1.369-1.151 0.912-1.871 2.041-2.158 3.385l-9.361 44.223c-0.289 1.346-0.048 2.498 0.721 3.459s1.776 1.439 3.023 1.439h37.297l-4.464 20.875h-42.913z"/>
	<path d="m341.37 160.2h-16.965l16.497-77.688h16.966l-16.498 77.688z"/>
	<path d="m381.39 160.2h-16.967l12.871-60.75h-16.497l3.626-16.938h49.959l-3.626 16.938h-16.496l-12.87 60.75z"/>
	<path d="m420.11 160.2c-4.524 0-8.034-1.599-10.53-4.797-2.574-3.119-3.313-6.98-2.222-11.583l9.593-45.045c0.937-4.445 3.276-8.268 7.021-11.466 3.9-3.197 8.111-4.797 12.637-4.797h34.748l-3.626 16.938h-30.188c-1.092 0-2.087 0.372-2.983 1.115s-1.463 1.662-1.695 2.757l-1.99 9.503h34.048l-3.628 16.938h-34.047l-1.987 9.509c-0.235 1.096-0.06 2.035 0.524 2.817 0.585 0.783 1.424 1.174 2.518 1.174h30.186l-3.628 16.938h-34.751z"/>
</g>
<polygon points="443.6 74.252 445.85 79.047 464.59 73.807 460.25 65.547" fill="#fff"/>
<path d="m546.2 58.172c14.413-23.941 17.254-46.694 12.926-52.725 8.031 7.219-2.629 42.609-11.486 53.803l-1.44-1.078z"/>
<path d="m530.38 73.284s6.126 5.621 10.685 8.084c3.712 2.478 18.339 9.119 18.298-3.416 0 0-2.605 10.802-18.283 1.472-8.814-5.245-10.525-8.169-10.525-8.169l-0.175 2.029z"/>
<path d="m526.3 74.701s-2.563 19.116-16.451 25.899c-11.832 5.778-14.407-4.698-14.271-7.623 0 0 2.729 9.982 11.716 5.995 8.009-3.553 14.604-13.499 17.526-26.354 0 0.136 1.48 2.083 1.48 2.083z"/>
<path d="m502.81 75.411s-23.127-18.614-29.43-35.553c12.346 19.079 31.444 33.428 31.444 33.428l-2.014 2.125z"/>
</svg>
