<svg data-name="Layer 1" version="1.1" viewBox="0 0 300.42 76.02" xmlns="http://www.w3.org/2000/svg">
 <path class="cls-2" d="m37 75.94a37 37 0 1 1 0-74h37v37a37 37 0 0 1-37 37" fill="#5efc71"/>
 <g transform="translate(0 -.06)" fill="#152849">
  <path class="cls-3" d="m55.71 49.08a7.14 7.14 0 0 0 7.11-7.32v-0.1a0.45 0.45 0 0 0-0.46-0.44h-3.59a0.65 0.65 0 0 0-0.67 0.63 2.33 2.33 0 0 1-2.31 2.43c-1.37 0-2.32-1-2.32-2.72v-7.94h6.4a0.45 0.45 0 0 0 0.45-0.45v-3.4a0.45 0.45 0 0 0-0.45-0.45h-6.4v-4.87a0.45 0.45 0 0 0-0.47-0.45h-4.15a0.46 0.46 0 0 0-0.46 0.46v16.77c0 4.7 3 7.85 7.31 7.85"/>
  <path class="cls-3" d="m38.29 47v-6.4c0.14-4 2.9-7.15 6.86-7h0.2a0.5 0.5 0 0 0 0.52-0.5v-3.41a0.5 0.5 0 0 0-0.47-0.5c-2.47-0.17-5.16 0.19-7.3 2.81v-2.18a0.5 0.5 0 0 0-0.5-0.51h-3.87a0.5 0.5 0 0 0-0.5 0.51v18.46a0.5 0.5 0 0 0 0.5 0.5h4.06a0.5 0.5 0 0 0 0.5-0.5z"/>
  <path class="cls-3" d="m30.19 29.32h-4.24a0.5 0.5 0 0 0-0.48 0.36l-4 12.72h-0.08l-4.06-12.72a0.51 0.51 0 0 0-0.48-0.36h-4.25a0.5 0.5 0 0 0-0.48 0.66l6.35 18.46a0.5 0.5 0 0 0 0.48 0.35h4.88a0.5 0.5 0 0 0 0.48-0.35l6.36-18.44a0.51 0.51 0 0 0-0.48-0.66"/>
 </g>
 <g transform="translate(0 -.06)" fill="#152849">
  <path class="cls-1" d="m97.92 23.44h-0.2v49.56a1 1 0 0 1-1 1h-11.88a1 1 0 0 1-1-1v-69.94a1 1 0 0 1 1-1h15.78a1 1 0 0 1 0.87 0.51l28.19 49.35h0.2v-48.86a1 1 0 0 1 1-1h11.87a1 1 0 0 1 1 1v69.94a1 1 0 0 1-1 1h-15.51a1 1 0 0 1-0.88-0.51z"/>
  <path class="cls-1" d="m284.7 22.31a1 1 0 0 1-1-0.93c-0.72-6.19-6.73-9.56-15.45-9.56-7.09 0-13.88 2.67-13.88 8.74 0 18.61 46.05-2.16 46.05 32.9 0 0 0 22.62-31.46 22.62-28.14 0-30.35-18.43-30.6-24.46a1 1 0 0 1 1-1h12.94a1 1 0 0 1 1 1c0.75 10 8.73 12.72 16.6 12.72s15.63-3 15.63-10.49c0-19-46.05 0.93-46.05-32.79 0-10.28 9.66-21 29.81-21 19.36 0 28.64 9.68 29.27 21.25a1 1 0 0 1-1 1.06z"/>
  <path class="cls-1" d="m239.74 2.06h-12.1a1 1 0 0 0-1 0.79l-12.04 54.61-11-54.6a1 1 0 0 0-1-0.81h-17.71a1 1 0 0 0-1 0.81l-11 54.6-12.09-54.62a1 1 0 0 0-1-0.79h-12.08a1 1 0 0 0-1 1.24l16.59 69.95a1 1 0 0 0 1 0.77h17.3a1 1 0 0 0 1-0.8l11.14-54.4 11.14 54.4a1 1 0 0 0 1 0.8h17.3a1 1 0 0 0 1-0.77l16.53-69.95a1 1 0 0 0-0.98-1.23z"/>
 </g>
</svg>
