<svg enable-background="new 0 0 800 124.8" version="1.1" viewBox="0 0 800 124.8" xml:space="preserve" xmlns="http://www.w3.org/2000/svg">
<g transform="matrix(1.6784 0 0 1.6784 -29.256 -35.143)">
	<rect x="21.1" y="25.7" width="370" height="66" fill="#fff"/>
		<linearGradient id="SVGID_1_" x1="101.9" x2="101.9" y1="116.6" y2="190.82" gradientTransform="matrix(1.6784 0 0 -1.6784 84.727 290.89)" gradientUnits="userSpaceOnUse">
		<stop stop-color="#2E3192" offset="0"/>
		<stop stop-color="#2D3293" offset=".2406"/>
		<stop stop-color="#293896" offset=".4266"/>
		<stop stop-color="#1F429B" offset=".5943"/>
		<stop stop-color="#004FA2" offset=".7512"/>
		<stop stop-color="#005DAC" offset=".8991"/>
		<stop stop-color="#0069B5" offset="1"/>
	</linearGradient>
	<path d="m486.4 21.2c-154.5-0.5-306.3-0.2-463 0.2-3 0-5.5 2.3-5.6 5.2-0.8 21-0.3 42 1.5 63.2 0.3 2.9 2.8 5.2 5.8 5.2 154.5 0.5 306.3 0.2 463-0.2 3 0 5.5-2.3 5.6-5.2 0.8-21 0.3-42-1.5-63.2-0.3-2.8-2.9-5.2-5.8-5.2zm-460.3 66.7c-1.8-19.7-2.3-39.3-1.5-58.9 0-0.8 0.7-1.4 1.6-1.4 121.5-0.2 238.2-0.4 358.6-0.2 2 10.2 3.1 20.6 3.2 31.2 0.1 10.5-0.9 20.8-2.7 30.9-121.3 0.1-237.7 0.1-357.6-0.2-0.8 0-1.6-0.6-1.6-1.4z" fill="url(#SVGID_1_)"/>
		<linearGradient id="SVGID_2_" x1="-14.196" x2="-14.196" y1="125.32" y2="169.21" gradientTransform="matrix(1.6784 0 0 -1.6784 84.727 290.89)" gradientUnits="userSpaceOnUse">
		<stop stop-color="#2E3192" offset="0"/>
		<stop stop-color="#2D3293" offset=".2406"/>
		<stop stop-color="#293896" offset=".4266"/>
		<stop stop-color="#1F429B" offset=".5943"/>
		<stop stop-color="#004FA2" offset=".7512"/>
		<stop stop-color="#005DAC" offset=".8991"/>
		<stop stop-color="#0069B5" offset="1"/>
	</linearGradient>
	<path d="m77.5 80.5h-9.4l-7.2-21-7 21h-9.3l-15.3-43.8h12.6l5.3 15.4c1 3.3 1.6 6.9 2.2 10.2l7.5-25.6h8l7.8 25.6c0.6-3.3 1.3-6.8 2.3-10.5l4.9-15.1h12.6l-15 43.8z" fill="url(#SVGID_2_)"/>
		<linearGradient id="SVGID_3_" x1="12.824" x2="12.824" y1="125.29" y2="169.24" gradientTransform="matrix(1.6784 0 0 -1.6784 84.727 290.89)" gradientUnits="userSpaceOnUse">
		<stop stop-color="#2E3192" offset="0"/>
		<stop stop-color="#2D3293" offset=".2406"/>
		<stop stop-color="#293896" offset=".4266"/>
		<stop stop-color="#1F429B" offset=".5943"/>
		<stop stop-color="#004FA2" offset=".7512"/>
		<stop stop-color="#005DAC" offset=".8991"/>
		<stop stop-color="#0069B5" offset="1"/>
	</linearGradient>
	<path d="m115.3 73.4h-18.3l-2.7 7.2h-12.2l18.3-44h11.7l18.3 44h-12.4l-2.7-7.2zm-9.1-24.4-5.3 14h10.4l-5.1-14z" fill="url(#SVGID_3_)"/>
		<linearGradient id="SVGID_4_" x1="32.098" x2="32.098" y1="125.29" y2="169.24" gradientTransform="matrix(1.6784 0 0 -1.6784 84.727 290.89)" gradientUnits="userSpaceOnUse">
		<stop stop-color="#2E3192" offset="0"/>
		<stop stop-color="#2D3293" offset=".2406"/>
		<stop stop-color="#293896" offset=".4266"/>
		<stop stop-color="#1F429B" offset=".5943"/>
		<stop stop-color="#004FA2" offset=".7512"/>
		<stop stop-color="#005DAC" offset=".8991"/>
		<stop stop-color="#0069B5" offset="1"/>
	</linearGradient>
	<path d="M132.8,46.9h-11.9V36.7h35.4v10.2h-12v33.7h-11.5V46.9z" fill="url(#SVGID_4_)"/>
		<linearGradient id="SVGID_5_" x1="54.053" x2="54.053" y1="125.29" y2="169.24" gradientTransform="matrix(1.6784 0 0 -1.6784 84.727 290.89)" gradientUnits="userSpaceOnUse">
		<stop stop-color="#2E3192" offset="0"/>
		<stop stop-color="#2D3293" offset=".2406"/>
		<stop stop-color="#293896" offset=".4266"/>
		<stop stop-color="#1F429B" offset=".5943"/>
		<stop stop-color="#004FA2" offset=".7512"/>
		<stop stop-color="#005DAC" offset=".8991"/>
		<stop stop-color="#0069B5" offset="1"/>
	</linearGradient>
	<path d="M191.8,80.6h-32.7v-44H191V47h-20.5v6.3h19.3v10.1h-19.3v6.7h21.3V80.6z" fill="url(#SVGID_5_)"/>
		<linearGradient id="SVGID_6_" x1="76.485" x2="76.485" y1="125.29" y2="169.24" gradientTransform="matrix(1.6784 0 0 -1.6784 84.727 290.89)" gradientUnits="userSpaceOnUse">
		<stop stop-color="#2E3192" offset="0"/>
		<stop stop-color="#2D3293" offset=".2406"/>
		<stop stop-color="#293896" offset=".4266"/>
		<stop stop-color="#1F429B" offset=".5943"/>
		<stop stop-color="#004FA2" offset=".7512"/>
		<stop stop-color="#005DAC" offset=".8991"/>
		<stop stop-color="#0069B5" offset="1"/>
	</linearGradient>
	<path d="m232 80.6h-12.7l-9.5-14.3h-4v14.3h-11.6v-44h20c10.4 0 15.9 7.2 15.9 15.1 0 5.4-1.8 10-8.6 13.2l10.5 15v0.7zm-26.3-34v10.5h8.5c3 0 4.4-2.4 4.4-5.1 0-2.8-1.5-5.5-4.5-5.5l-8.4 0.1z" fill="url(#SVGID_6_)"/>
		<linearGradient id="SVGID_7_" x1="98.113" x2="98.113" y1="124.51" y2="170.6" gradientTransform="matrix(1.6784 0 0 -1.6784 84.727 290.89)" gradientUnits="userSpaceOnUse">
		<stop stop-color="#2E3192" offset="0"/>
		<stop stop-color="#2D3293" offset=".2406"/>
		<stop stop-color="#293896" offset=".4266"/>
		<stop stop-color="#1F429B" offset=".5943"/>
		<stop stop-color="#004FA2" offset=".7512"/>
		<stop stop-color="#005DAC" offset=".8991"/>
		<stop stop-color="#0069B5" offset="1"/>
	</linearGradient>
	<path d="m259.2 48.8c-2.8-2.3-6-3-9.6-3-2.8 0-5.5 0.9-5.5 3.3 0 3 2.7 3.5 6.8 3.9 8.1 0.9 16.6 4.5 16.6 14.6 0 10-8.8 14.3-17.9 14.3-7.4 0.1-12.6-1.3-18.3-7.7l6.4-7.8c4 4.2 8.5 5 12 5 3.8 0 6.4-1.4 6.4-3.9 0-2.2-2.3-3.6-6.8-4-8.9-0.9-16.6-3.3-16.6-14.3 0-9.3 8.5-13.3 17.1-13.3 6.1 0 10.9 1.5 15.3 5.2l-5.9 7.7z" fill="url(#SVGID_7_)"/>
		<linearGradient id="SVGID_8_" x1="118.49" x2="118.49" y1="125.29" y2="169.24" gradientTransform="matrix(1.6784 0 0 -1.6784 84.727 290.89)" gradientUnits="userSpaceOnUse">
		<stop stop-color="#2E3192" offset="0"/>
		<stop stop-color="#2D3293" offset=".2406"/>
		<stop stop-color="#293896" offset=".4266"/>
		<stop stop-color="#1F429B" offset=".5943"/>
		<stop stop-color="#004FA2" offset=".7512"/>
		<stop stop-color="#005DAC" offset=".8991"/>
		<stop stop-color="#0069B5" offset="1"/>
	</linearGradient>
	<path d="M277.8,46.9h-11.9V36.7h35.4v10.2h-12v33.7h-11.5V46.9z" fill="url(#SVGID_8_)"/>
		<linearGradient id="SVGID_9_" x1="137.76" x2="137.76" y1="125.29" y2="169.24" gradientTransform="matrix(1.6784 0 0 -1.6784 84.727 290.89)" gradientUnits="userSpaceOnUse">
		<stop stop-color="#2E3192" offset="0"/>
		<stop stop-color="#2D3293" offset=".2406"/>
		<stop stop-color="#293896" offset=".4266"/>
		<stop stop-color="#1F429B" offset=".5943"/>
		<stop stop-color="#004FA2" offset=".7512"/>
		<stop stop-color="#005DAC" offset=".8991"/>
		<stop stop-color="#0069B5" offset="1"/>
	</linearGradient>
	<path d="m325.1 73.4h-18.3l-2.7 7.2h-12.3l18.3-44h11.7l18.3 44h-12.4l-2.6-7.2zm-9.1-24.4-5.3 14h10.4l-5.1-14z" fill="url(#SVGID_9_)"/>
		<linearGradient id="SVGID_10_" x1="164.69" x2="164.69" y1="125.28" y2="169.24" gradientTransform="matrix(1.6784 0 0 -1.6784 84.727 290.89)" gradientUnits="userSpaceOnUse">
		<stop stop-color="#2E3192" offset="0"/>
		<stop stop-color="#2D3293" offset=".2406"/>
		<stop stop-color="#293896" offset=".4266"/>
		<stop stop-color="#1F429B" offset=".5943"/>
		<stop stop-color="#004FA2" offset=".7512"/>
		<stop stop-color="#005DAC" offset=".8991"/>
		<stop stop-color="#0069B5" offset="1"/>
	</linearGradient>
	<path d="m359.2 36.7c14.4 0 21.4 9.5 21.4 21.7 0 12.1-6.7 22.3-21.4 22.3h-17.5v-44h17.5zm-6 33.4h6.1c7.4 0 9.9-5.9 9.9-11.9s-2.9-11.2-10-11.2h-6.1v23.1h0.1z" fill="url(#SVGID_10_)"/>
	<path d="M399.4,80.5v-44h31.7v10.4H411v8.2h18.9v10.2H411v15.2H399.4z" fill="#fff"/>
	<path d="m469.9 54.2-10.6 13.3h-2.1l-10.3-13.3v26.2h-11.6v-44h12.2l10.9 14.9 10.9-14.9h12.2v44h-11.6v-26.2z" fill="#fff"/>
</g>
</svg>
