<svg id="a" width="272.93" height="68" version="1.1" viewBox="-51.45 0 272.93 68" xml:space="preserve" xmlns="http://www.w3.org/2000/svg"><g id="b" transform="translate(-.035999 -.02)" display="none"><g id="c" display="inline"><polygon id="d" points="85.167 42.718 98.233 42.718 98.233 51.04 74.584 51.04 74.584 14.328 85.167 14.328" fill="#1d1d1b"/><polygon id="e" points="112.12 51.04 101.54 51.04 101.54 14.328 112.12 14.328" fill="#1d1d1b"/><path id="f" d="m114.44 14.328h11.356l6.34 19.349c0.882 2.757 1.598 5.678 1.652 5.899h0.111c0.055-0.221 0.826-3.197 1.654-5.899l6.062-19.349h10.585l-13.67 36.712h-9.922z" fill="#1d1d1b"/><polygon id="g" points="179.05 51.041 179.05 42.497 164.88 42.497 164.88 36.324 177.18 36.324 177.18 28.385 164.88 28.385 164.88 22.873 178.66 22.873 178.66 14.328 154.52 14.328 154.52 51.041" fill="#1d1d1b"/><path id="h" d="m26.312 26.358-2.012-3.443c-0.546-0.9-1.537-0.9-1.91-0.9h-0.439v4.343h-3.078v-4.481h-0.229l-0.057 0.099c-0.686 2.827-3.047 4.383-6.643 4.383h-3.986v-10.205h-0.226l-0.062 0.096-2.657 10.108h-3.425l-1.83-7.881h-0.204l-0.059 0.101-1.806 7.78h-3.483l-3.156-12.03h3.391l1.101 4.918c0.233 1.018 0.432 2.322 0.434 2.335l0.017 0.11h0.217l0.057-0.108c1e-3 -0.015 0.253-1.466 0.485-2.485l0.943-4.771h3.836l0.941 4.767c0.234 1.022 0.486 2.474 0.489 2.489l0.018 0.108h0.217l0.053-0.11c3e-3 -0.013 0.202-1.318 0.434-2.334l1.101-4.919h7.27c3.604 0 5.863 1.441 6.534 4.168l0.025 0.098h0.228l0.033-0.13v-4.136h5.099c2.142 0 4.692 0.628 4.692 3.616 0 2.119-1.422 2.951-2.271 3.256l-0.084 0.032v0.158l0.053 0.073c0.454 0.337 0.955 0.976 1.487 1.899l1.751 2.997h-3.289zm-15.239-2.526h1.144c2.152 0 3.245-1.199 3.245-3.563 0-2.361-1.03-3.415-3.337-3.415h-1.051v6.978zm10.878-4.153h1.949c1.053 0 1.631-0.531 1.631-1.497 0-1.019-0.569-1.514-1.739-1.514h-1.841z" fill="#1d1d1b"/><polygon id="i" points="56.378 67.7 74.773 0 40.519 0 22.125 67.7" fill="#e6007e"/><polygon id="j" points="42.576 14.685 40.239 23.234 45.447 23.234 45.447 50.719 55.138 50.719 55.138 14.685" fill="#fff"/></g></g><g id="k" transform="translate(-.035999 -.02)" display="none"><polygon id="l" points="44.988 24.708 52.545 24.708 52.545 29.521 38.866 29.521 38.866 8.287 44.988 8.287" display="inline" fill="#010000"/><polygon id="m" points="60.58 29.521 54.458 29.521 54.458 8.287 60.58 8.287" display="inline" fill="#010000"/><path id="n" d="m61.919 8.287h6.568l3.667 11.191c0.51 1.595 0.924 3.285 0.956 3.412h0.064c0.032-0.127 0.478-1.849 0.957-3.412l3.506-11.191h6.122l-7.907 21.234h-5.739z" display="inline" fill="#010000"/><polygon id="o" points="99.289 29.522 99.289 24.58 91.096 24.58 91.096 21.009 98.205 21.009 98.205 16.417 91.096 16.417 91.096 13.229 99.067 13.229 99.067 8.287 85.101 8.287 85.101 29.522" display="inline" fill="#010000"/><path id="p" d="m10.946 15.245-1.164-1.991c-0.316-0.521-0.889-0.521-1.104-0.521h-0.254v2.512h-1.781v-2.592h-0.133l-0.032 0.057c-0.396 1.635-1.762 2.535-3.842 2.535h-2.306v-5.902h-0.131l-0.036 0.056-1.537 5.846h-1.981l-1.058-4.558h-0.118l-0.034 0.058-1.045 4.5h-2.015l-1.825-6.958h1.961l0.637 2.845c0.135 0.588 0.25 1.343 0.251 1.35l0.01 0.064h0.125l0.033-0.062c0-8e-3 0.146-0.848 0.281-1.437l0.545-2.759h2.219l0.544 2.757c0.136 0.591 0.281 1.431 0.283 1.439l0.011 0.062h0.125l0.031-0.064c2e-3 -7e-3 0.117-0.762 0.251-1.35l0.637-2.845h4.205c2.084 0 3.391 0.833 3.779 2.411l0.015 0.057h0.131l0.019-0.075v-2.393h2.95c1.239 0 2.714 0.363 2.714 2.091 0 1.226-0.822 1.707-1.313 1.884l-0.048 0.018v0.091l0.03 0.042c0.262 0.195 0.552 0.564 0.86 1.099l1.013 1.733h-1.903zm-8.814-1.461h0.661c1.245 0 1.877-0.693 1.877-2.061 0-1.366-0.595-1.975-1.93-1.975h-0.608zm6.292-2.402h1.127c0.609 0 0.943-0.308 0.943-0.866 0-0.589-0.329-0.875-1.006-0.875h-1.064z" display="inline" fill="#010000"/><polygon id="q" points="28.336 39.157 38.976 0 19.163 0 8.524 39.157" display="inline" fill="#e8358b"/><polygon id="r" points="20.352 8.493 19.001 13.438 22.013 13.438 22.013 29.335 27.619 29.335 27.619 8.493" display="inline" fill="#fff"/><polygon id="s" points="38.863 38.587 99.29 38.587 99.29 39.735 38.863 39.735" display="inline" fill="#010000"/><polygon id="t" points="38.863 66.851 99.29 66.851 99.29 68 38.863 68" display="inline" fill="#010000"/><path id="u" d="m45.108 57.32c2.829 0 4.213-1.486 4.213-4.338 0-2.85-1.362-4.13-4.316-4.13h-1.177v8.468zm-4.626-11.112h4.481c5.391 0 7.871 2.727 7.871 6.693 0 3.965-2.52 7.062-7.994 7.062h-4.357v-13.755z" display="inline" fill="#010000"/><polygon id="v" points="59.256 59.964 55.889 59.964 55.889 46.208 59.256 46.208" display="inline" fill="#010000"/><path id="w" d="m62.478 53.065c0-3.739 2.788-7.105 7.683-7.105 2.128 0 3.511 0.455 4.586 1.219l-1.445 2.479c-0.786-0.536-1.797-0.95-3.202-0.95-2.726 0-4.09 1.735-4.09 4.275 0 2.542 1.158 4.544 3.842 4.544 0.97 0 1.715-0.206 2.106-0.434v-2.375h-2.396v-2.562h5.576v6.775c-0.97 0.578-2.478 1.28-5.266 1.28-4.854 1e-3 -7.394-3.406-7.394-7.146z" display="inline" fill="#010000"/><path id="x" d="m77.989 53.065c0-3.739 2.787-7.105 7.683-7.105 2.128 0 3.512 0.455 4.584 1.219l-1.446 2.479c-0.782-0.536-1.796-0.95-3.199-0.95-2.727 0-4.09 1.735-4.09 4.275 0 2.542 1.157 4.544 3.842 4.544 0.97 0 1.713-0.206 2.107-0.434v-2.375h-2.397v-2.562h5.578v6.775c-0.971 0.578-2.479 1.28-5.268 1.28-4.854 1e-3 -7.394-3.406-7.394-7.146z" display="inline" fill="#010000"/><polygon id="y" points="97.672 59.964 94.304 59.964 94.304 46.208 97.672 46.208" display="inline" fill="#010000"/></g><g id="z" transform="translate(-51.45)" display="none"><g id="aa" display="inline"><polygon id="ab" points="126.03 14.328 136.61 14.328 136.61 42.718 149.68 42.718 149.68 51.04 126.03 51.04" fill="#1d1d1b"/><polygon id="ac" points="163.57 51.04 152.99 51.04 152.99 14.328 163.57 14.328" fill="#1d1d1b"/><path id="ad" d="m165.89 14.328h11.355l6.341 19.349c0.882 2.757 1.598 5.679 1.651 5.899h0.111c0.055-0.221 0.826-3.197 1.654-5.899l6.062-19.349h10.584l-13.67 36.712h-9.922z" fill="#1d1d1b"/><polygon id="ae" points="228.62 36.324 228.62 28.385 216.33 28.385 216.33 22.873 230.11 22.873 230.11 14.328 205.97 14.328 205.97 51.041 230.5 51.041 230.5 42.497 216.33 42.497 216.33 36.324" fill="#1d1d1b"/><path id="af" d="m77.759 26.358-2.012-3.443c-0.546-0.9-1.537-0.9-1.91-0.9h-0.439v4.343h-3.078v-4.481h-0.229l-0.057 0.099c-0.686 2.827-3.047 4.383-6.643 4.383h-3.986v-10.205h-0.226l-0.062 0.096-2.657 10.108h-3.425l-1.83-7.881h-0.204l-0.059 0.101-1.806 7.78h-3.483l-3.156-12.03h3.391l1.101 4.918c0.233 1.018 0.432 2.322 0.434 2.335l0.017 0.11h0.217l0.057-0.108c1e-3 -0.015 0.253-1.466 0.485-2.485l0.943-4.771h3.836l0.941 4.767c0.234 1.022 0.486 2.474 0.489 2.489l0.018 0.108h0.217l0.053-0.11c3e-3 -0.013 0.202-1.318 0.434-2.334l1.101-4.919h7.27c3.604 0 5.863 1.441 6.534 4.168l0.025 0.098h0.228l0.033-0.13v-4.136h5.099c2.142 0 4.692 0.628 4.692 3.616 0 2.119-1.422 2.951-2.271 3.256l-0.084 0.032v0.158l0.053 0.073c0.454 0.337 0.955 0.976 1.487 1.899l1.751 2.997zm-15.239-2.526h1.144c2.152 0 3.245-1.199 3.245-3.563 0-2.361-1.03-3.415-3.337-3.415h-1.051zm10.878-4.153h1.949c1.053 0 1.631-0.531 1.631-1.497 0-1.019-0.569-1.514-1.739-1.514h-1.841z" fill="#1d1d1b"/><polygon id="ag" points="107.82 67.7 126.22 0 91.966 0 73.572 67.7" fill="#e6007e"/><polygon id="ah" points="106.58 50.719 106.58 14.685 94.023 14.685 91.686 23.234 96.894 23.234 96.894 50.719" fill="#fff"/></g></g><polygon id="ai" transform="translate(-51.45)" points="49.685 0 31.209 68 65.614 68 84.091 0" fill="#f09"/><polygon id="aj" transform="translate(-51.45)" points="51.751 14.749 49.404 23.337 54.635 23.337 54.635 50.943 64.369 50.943 64.369 14.749" fill="#fff"/><g id="ak" fill="#fff"><g id="al"><polygon id="am" transform="translate(-51.45)" points="94.531 42.907 107.65 42.907 107.65 51.268 83.902 51.268 83.902 14.391 94.531 14.391"/><polygon id="an" transform="translate(-51.45)" points="110.98 14.391 121.61 14.391 121.61 51.268 110.98 51.268"/><path id="ao" d="m72.484 14.391h11.406l6.368 19.435c0.886 2.77 1.604 5.703 1.659 5.924h0.111c0.057-0.221 0.83-3.211 1.661-5.924l6.089-19.435h10.633l-13.73 36.875h-9.967z"/><polygon id="ap" transform="translate(-51.45)" points="174.6 28.51 174.6 22.974 188.44 22.974 188.44 14.391 164.19 14.391 164.19 51.268 188.83 51.268 188.83 42.686 174.6 42.686 174.6 36.484 186.95 36.484 186.95 28.51"/></g><path id="aq" d="m-16.034 26.475-2.021-3.458c-0.549-0.904-1.544-0.904-1.918-0.904h-0.44v4.362h-3.092v-4.501h-0.229l-0.057 0.099c-0.689 2.839-3.061 4.402-6.672 4.402h-4.004v-10.25h-0.227l-0.062 0.097-2.669 10.152h-3.44l-1.838-7.916h-0.205l-0.059 0.101-1.814 7.814h-3.499l-3.17-12.083h3.406l1.106 4.94c0.234 1.022 0.433 2.332 0.436 2.345l0.017 0.111h0.218l0.057-0.108c1e-3 -0.015 0.254-1.473 0.487-2.496l0.947-4.792h3.853l0.945 4.788c0.236 1.027 0.488 2.485 0.492 2.5l0.018 0.108h0.218l0.053-0.111c3e-3 -0.013 0.203-1.324 0.436-2.344l1.106-4.941h7.302c3.62 0 5.889 1.448 6.563 4.187l0.025 0.099h0.229l0.033-0.131v-4.154h5.122c2.151 0 4.713 0.63 4.713 3.631 0 2.129-1.429 2.964-2.281 3.271l-0.084 0.032v0.159l0.053 0.074c0.456 0.339 0.959 0.98 1.493 1.907l1.759 3.01zm-15.307-2.537h1.148c2.162 0 3.259-1.205 3.259-3.579 0-2.372-1.034-3.43-3.352-3.43h-1.056zm10.927-4.172h1.958c1.058 0 1.638-0.534 1.638-1.503 0-1.023-0.572-1.521-1.747-1.521h-1.849z"/><g id="ar"><polygon id="as" transform="translate(-51.45)" points="272.93 15.832 197.19 15.832 197.19 14.392 272.93 14.392"/><polygon id="at" transform="translate(-51.45)" points="272.93 51.255 197.19 51.255 197.19 49.812 272.93 49.812"/><path id="au" d="m153.57 37.87c3.545 0 5.28-1.862 5.28-5.436 0-3.573-1.708-5.177-5.41-5.177h-1.476v10.613zm-5.797-13.927h5.616c6.756 0 9.863 3.417 9.863 8.388 0 4.969-3.158 8.853-10.019 8.853h-5.462z"/><polygon id="av" transform="translate(-51.45)" points="218.53 23.943 222.75 23.943 222.75 41.184 218.53 41.184"/><path id="aw" d="m175.34 32.538c0-4.686 3.494-8.905 9.628-8.905 2.667 0 4.401 0.57 5.748 1.528l-1.812 3.106c-0.984-0.672-2.252-1.191-4.014-1.191-3.416 0-5.126 2.175-5.126 5.359 0 3.185 1.451 5.695 4.815 5.695 1.217 0 2.148-0.259 2.641-0.543v-2.978h-3.002v-3.209h6.988v8.491c-1.217 0.726-3.105 1.604-6.602 1.604-6.08-1e-3 -9.264-4.27-9.264-8.957z"/><path id="ax" d="m194.78 32.538c0-4.686 3.492-8.905 9.629-8.905 2.668 0 4.4 0.57 5.746 1.528l-1.812 3.106c-0.98-0.672-2.251-1.191-4.012-1.191-3.416 0-5.125 2.175-5.125 5.359 0 3.185 1.449 5.695 4.814 5.695 1.217 0 2.146-0.259 2.641-0.543v-2.978h-3.004v-3.209h6.99v8.491c-1.217 0.726-3.105 1.604-6.602 1.604-6.081-1e-3 -9.265-4.27-9.265-8.957z"/><polygon id="ay" transform="translate(-51.45)" points="266.68 23.943 270.9 23.943 270.9 41.184 266.68 41.184"/></g></g><g id="az" transform="translate(-51.45)" display="none"><polygon id="ba" points="90.313 8.287 96.435 8.287 96.435 24.708 103.99 24.708 103.99 29.521 90.313 29.521" display="inline" fill="#010000"/><polygon id="bb" points="112.03 29.521 105.9 29.521 105.9 8.287 112.03 8.287" display="inline" fill="#010000"/><path id="bc" d="m113.37 8.287h6.568l3.667 11.191c0.51 1.595 0.924 3.285 0.956 3.412h0.064c0.032-0.127 0.478-1.849 0.957-3.412l3.506-11.191h6.122l-7.907 21.234h-5.739z" display="inline" fill="#010000"/><polygon id="bd" points="149.65 21.009 149.65 16.417 142.54 16.417 142.54 13.229 150.51 13.229 150.51 8.287 136.55 8.287 136.55 29.522 150.74 29.522 150.74 24.58 142.54 24.58 142.54 21.009" display="inline" fill="#010000"/><path id="be" d="m62.393 15.245-1.164-1.991c-0.316-0.521-0.889-0.521-1.104-0.521h-0.254v2.512h-1.781v-2.592h-0.133l-0.032 0.057c-0.396 1.635-1.762 2.535-3.842 2.535h-2.306v-5.902h-0.131l-0.036 0.056-1.537 5.846h-1.981l-1.058-4.558h-0.118l-0.034 0.058-1.045 4.5h-2.015l-1.825-6.958h1.961l0.637 2.845c0.135 0.588 0.25 1.343 0.251 1.35l0.01 0.064h0.125l0.033-0.062c0-8e-3 0.146-0.848 0.281-1.437l0.545-2.759h2.219l0.544 2.757c0.136 0.591 0.281 1.431 0.283 1.439l0.011 0.062h0.125l0.031-0.064c2e-3 -7e-3 0.117-0.762 0.251-1.35l0.637-2.845h4.205c2.084 0 3.391 0.833 3.779 2.411l0.015 0.057h0.131l0.019-0.075v-2.393h2.95c1.239 0 2.714 0.363 2.714 2.091 0 1.226-0.822 1.707-1.313 1.884l-0.048 0.018v0.091l0.03 0.042c0.262 0.195 0.552 0.564 0.86 1.099l1.013 1.733zm-8.814-1.461h0.661c1.245 0 1.877-0.693 1.877-2.061 0-1.366-0.595-1.975-1.93-1.975h-0.608zm6.292-2.402h1.127c0.609 0 0.943-0.308 0.943-0.866 0-0.589-0.329-0.875-1.006-0.875h-1.064z" display="inline" fill="#010000"/><polygon id="bf" points="79.783 39.157 90.423 0 70.61 0 59.971 39.157" display="inline" fill="#e8358b"/><polygon id="bg" points="79.066 29.335 79.066 8.493 71.799 8.493 70.448 13.438 73.46 13.438 73.46 29.335" display="inline" fill="#fff"/><polygon id="bh" points="90.31 38.587 150.74 38.587 150.74 39.734 90.31 39.734" display="inline" fill="#010000"/><polygon id="bi" points="90.31 66.852 150.74 66.852 150.74 68 90.31 68" display="inline" fill="#010000"/><path id="bj" d="m96.555 57.32c2.829 0 4.213-1.486 4.213-4.338 0-2.851-1.362-4.131-4.316-4.131h-1.177v8.469zm-4.626-11.112h4.481c5.391 0 7.871 2.728 7.871 6.692 0 3.966-2.52 7.062-7.994 7.062h-4.357z" display="inline" fill="#010000"/><polygon id="bk" points="110.7 59.964 107.34 59.964 107.34 46.208 110.7 46.208" display="inline" fill="#010000"/><path id="bl" d="m113.92 53.064c0-3.738 2.788-7.104 7.683-7.104 2.128 0 3.511 0.455 4.586 1.22l-1.445 2.479c-0.786-0.536-1.797-0.95-3.202-0.95-2.726 0-4.09 1.735-4.09 4.274 0 2.543 1.158 4.545 3.842 4.545 0.97 0 1.715-0.207 2.106-0.435v-2.375h-2.396v-2.562h5.576v6.775c-0.97 0.577-2.478 1.279-5.266 1.279-4.854 2e-3 -7.394-3.405-7.394-7.146z" display="inline" fill="#010000"/><path id="bm" d="m129.44 53.064c0-3.738 2.787-7.104 7.684-7.104 2.127 0 3.512 0.455 4.584 1.22l-1.446 2.479c-0.782-0.536-1.796-0.95-3.199-0.95-2.727 0-4.09 1.735-4.09 4.274 0 2.543 1.157 4.545 3.842 4.545 0.97 0 1.714-0.207 2.107-0.435v-2.375h-2.397v-2.562h5.578v6.775c-0.971 0.577-2.479 1.279-5.268 1.279-4.855 2e-3 -7.395-3.405-7.395-7.146z" display="inline" fill="#010000"/><polygon id="bn" points="149.12 59.964 145.75 59.964 145.75 46.208 149.12 46.208" display="inline" fill="#010000"/></g></svg>
