<svg enable-background="new 0 0 800 342.5" version="1.1" viewBox="0 0 800 342.5" xml:space="preserve" xmlns="http://www.w3.org/2000/svg">
<g transform="matrix(2.2297 0 0 2.2297 0 -1.2892e-6)">
		<polygon points="229.6 114.6 229.6 115.4 187 115.4 187 114.6 193.1 101.5 193.1 47.2 187.3 37.8 187.3 36.9 222.8 21.3 223.6 22 223.6 101.3"/>
		<polygon points="242.7 26 242.7 101.5 236.6 114.6 236.6 115.4 279.2 115.4 279.2 114.6 273.2 101.3 273.2 0.8 272.4 0 236.9 15.7 236.9 16.6"/>
		<path d="m315.6 131.2h-5.4s-22.4-0.1-24.3-0.1c-0.6 0-1.1 0.1-1.4 0.1l-0.8 1.6 10.8 20.8 19.1-18.3 2-4.1z"/>
		<path d="m332.8 86.2-11.4-29.1 5.4-13.2v-0.9h-46.9v0.8l7.7 13.1 29 63.3 1.8 3.8c1-1.9 2-3.9 3-6.1l13-28.4-1.6-3.3z"/>
		<polygon points="339.6 43.8 345.7 57.1 347.1 59.8 349.1 57.3 358.8 43.8 358.8 43 339.6 43"/>
		<polygon points="172.5 42.3 172.4 42.3 172.4 42.2 136.6 57.8 136.6 58.7 142.5 68.6 142.5 101.5 136.5 114.6 136.5 115.4 179.1 115.4 179.1 114.6 173.1 101.3 173.1 43 172.4 42.3"/>
	<polygon points="46.1 32 54.1 14.9 54.1 13.8 0 13.8 0 14.9 11 31.7 40.2 115.5 53.5 115.5 63.5 88.8"/>
	<polygon points="104 31.7 114.6 15.1 114.6 14.1 60.5 14.1 60.5 15.1 68.1 32 97.6 115.8 111.4 115.8 121.3 88.5"/>
	<path d="M156,8.6c-2,0-3.9,0.3-5.7,0.8L141,35.3c3.5,3.8,8.9,6.3,15,6.3c10.5,0,19-7.4,19-16.5S166.5,8.6,156,8.6z"/>
</g>
</svg>
