<svg width="800" height="363.32" enable-background="new 0 0 800 342.5" version="1.1" viewBox="0 0 800 363.32" xml:space="preserve" xmlns="http://www.w3.org/2000/svg">
<g transform="matrix(.72276 0 0 .72276 540.68 252.31)">
		<path d="m187 114.6 6.1-13.1v-54.3l-5.8-9.4v-0.9l35.5-15.6 0.8 0.7v79.3l6 13.3v0.8h-42.6z"/>
		<path d="m236.6 115.4h42.6v-0.8l-6-13.3v-100.5l-0.8-0.8-35.5 15.7v0.9l5.8 9.4v75.5l-6.1 13.1z"/>
		<path d="m315.6 131.2h-5.4s-22.4-0.1-24.3-0.1c-0.6 0-1.1 0.1-1.4 0.1l-0.8 1.6 10.8 20.8 19.1-18.3z"/>
		<path d="m332.8 86.2-11.4-29.1 5.4-13.2v-0.9h-46.9v0.8l7.7 13.1 29 63.3 1.8 3.8c1-1.9 2-3.9 3-6.1l13-28.4z"/>
		<path d="m349.1 57.3 9.7-13.5v-0.8h-19.2v0.8l6.1 13.3 1.4 2.7z"/>
		<path d="m136.6 57.8v0.9l5.9 9.9v32.9l-6 13.1v0.8h42.6v-0.8l-6-13.3v-58.3l-0.7-0.7h0.1-0.1v-0.1z"/>
	<path d="m0 13.8v1.1l11 16.8 29.2 83.8h13.3l10-26.7-17.4-56.8 8-17.1v-1.1z"/>
	<path d="m60.5 14.1v1l7.6 16.9 29.5 83.8h13.8l9.9-27.3-17.3-56.8 10.6-16.6v-1z"/>
	<path d="m156 8.6c-2 0-3.9 0.3-5.7 0.8l-9.3 25.9c3.5 3.8 8.9 6.3 15 6.3 10.5 0 19-7.4 19-16.5s-8.5-16.5-19-16.5z"/>
</g>
<g transform="matrix(1.4418 0 0 1.4418 -9.8498e-5 -7.0125e-6)" stroke-width="470.34"><path d="m80.314 85.403v26.771q0 19.47-10.399 29.648-10.178 10.178-29.648 10.178-24.116 0-33.851-14.824-1.9913-2.8763-3.3188-5.7526-1.1063-2.8763-1.77-6.4163-0.66376-3.7613-1.1063-8.4076-0.22125-4.8675-0.22125-11.505v-61.729q0-13.939 2.4338-21.461 2.4338-7.7438 8.8499-12.833 11.063-9.0713 30.312-9.0713 38.719 0 38.719 39.383v19.028h-31.86v-15.045q0-9.2926-1.77-12.611-1.5488-3.3188-6.4165-3.3188-4.8675 0-7.0799 3.9825-1.1063 1.77-1.3275 3.9825-0.22125 2.2125-0.22125 7.9651v61.729q0 6.8588 0.22125 9.7351 0.22125 2.655 1.3275 4.6463 1.77 4.2038 6.8586 4.2038 2.434 0 4.204-1.1062 1.9913-1.3275 2.8763-3.54 0.88501-1.77 1.1063-4.6463 0.22125-3.0975 0.22125-9.2926v-19.691z" style="white-space:pre"/><path d="m93.811 2.2125h31.639v118.59h32.524v28.984h-64.163z" style="white-space:pre"/><path d="m211.52 128.77h-17.036l-2.8763 21.019h-30.754l20.798-147.57h42.48l20.576 147.57h-31.418zm-2.8763-27.878-1.1063-14.824q-1.3275-17.7-1.9913-25.444l-1.77-22.789-0.88501-13.054-0.88501 13.054q-0.4425 5.0888-0.885 10.62-0.22126 5.31-0.66376 11.726l-2.2125 25.665-1.3275 15.045z" style="white-space:pre"/><path d="m282.54 97.13v10.178q0 9.9563 1.77 13.718 1.77 3.7613 6.6376 3.7613 8.8501 0 8.8501-13.275 0-4.2038-0.66376-7.3013-0.4425-3.0975-2.4338-5.9738-1.9913-3.0975-5.7526-6.6376t-10.178-8.8501q-8.6288-7.3013-14.381-13.054-5.7526-5.7525-9.2926-11.063-3.3188-5.31-4.6463-10.62t-1.3275-11.726q0-17.479 10.178-26.771 10.178-9.5138 28.984-9.5138 11.284 0 20.134 3.3188 8.8501 3.3188 13.496 9.2926 1.77 2.4338 2.655 4.425 1.1063 1.9913 1.5488 5.0888 0.66375 2.8763 0.88501 7.7438 0.4425 4.8675 0.66375 12.833v2.2125h-30.975q0.22125-1.77 0.22125-2.655 0-1.1063 0-2.2125 0-12.611-8.1863-12.611-3.0975 0-5.31 2.4338t-2.2125 5.7525q0 2.4338 0.66375 4.425 0.66376 1.9913 3.54 5.31 3.0975 3.0975 9.0713 8.4076 6.195 5.31 16.815 14.381 10.178 8.6288 14.16 17.921 4.2038 9.0713 4.2038 23.01 0 21.24-10.399 32.082-10.178 10.841-30.312 10.841-21.904 0-32.303-11.726-2.2125-2.655-3.7613-5.0888-1.3275-2.655-2.2125-6.195-0.66376-3.54-0.88501-8.6288t-0.22125-12.833v-10.399z" style="white-space:pre"/><path d="m374.58 97.13v10.178q0 9.9563 1.77 13.718 1.77 3.7613 6.6376 3.7613 8.8501 0 8.8501-13.275 0-4.2038-0.66376-7.3013-0.4425-3.0975-2.4338-5.9738-1.9913-3.0975-5.7525-6.6376-3.7613-3.54-10.178-8.8501-8.6288-7.3013-14.381-13.054-5.7525-5.7525-9.2926-11.063-3.3188-5.31-4.6463-10.62t-1.3275-11.726q0-17.479 10.178-26.771 10.178-9.5138 28.984-9.5138 11.284 0 20.134 3.3188 8.8501 3.3188 13.496 9.2926 1.77 2.4338 2.655 4.425 1.1063 1.9913 1.5488 5.0888 0.66376 2.8763 0.88501 7.7438 0.4425 4.8675 0.66375 12.833v2.2125h-30.975q0.22125-1.77 0.22125-2.655 0-1.1063 0-2.2125 0-12.611-8.1863-12.611-3.0975 0-5.31 2.4338t-2.2125 5.7525q0 2.4338 0.66376 4.425 0.66375 1.9913 3.54 5.31 3.0975 3.0975 9.0713 8.4076 6.195 5.31 16.815 14.381 10.178 8.6288 14.16 17.921 4.2038 9.0713 4.2038 23.01 0 21.24-10.399 32.082-10.178 10.841-30.312 10.841-21.904 0-32.303-11.726-2.2125-2.655-3.7613-5.0888-1.3275-2.655-2.2125-6.195-0.66376-3.54-0.88501-8.6288t-0.22125-12.833v-10.399z" style="white-space:pre"/></g><path d="m775.44 105.27 24.562 110.69h-46.573l-8.2938-42.745q-1.9139-8.9318-2.8709-19.139l-2.2329-19.777-1.276-14.036-1.595 13.398q-0.95697 8.2938-1.595 13.398-0.63798 5.1038-1.276 8.9318-0.31899 3.8279-0.95698 7.6558-0.63798 3.5089-1.595 8.9318l-7.9748 43.383h-46.573l24.562-110.69-19.458-102.08h43.383l5.7418 34.77q1.914 9.8887 2.8709 18.82l2.2329 19.458q0.63798 3.5089 0.95698 7.6558 0.63798 3.8279 1.276 7.9748 0.95698-11.803 1.595-19.777 0.95698-8.2938 1.595-14.036 0.63797-6.0608 1.276-10.208 0.63797-4.4659 1.595-9.2507l6.3798-35.408h43.702z" stroke-width="678.11" style="white-space:pre"/><g transform="matrix(5.9484 0 0 5.9484 2574.7 2342.8)" stop-color="#000000" stroke-width="25.51" style="shape-inside:url(#rect309-7);white-space:pre" aria-label="BY"><path d="m-354.95-338.34v-9.9375h3.123q0.48047 0 0.82617 0.12304 0.34571 0.11719 0.54493 0.31055 0.19921 0.19336 0.31054 0.50977 0.11719 0.31054 0.15235 0.62109 0.0351 0.30469 0.0351 0.72656v0.4336q0 0.22851-6e-3 0.39258-6e-3 0.16406-0.0351 0.38671-0.0293 0.22266-0.082 0.38086-0.0527 0.15821-0.15235 0.33399-0.0937 0.17578-0.23437 0.29297-0.14063 0.11718-0.35157 0.20507-0.20507 0.0879-0.46875 0.12305 0.28711 0.0352 0.50977 0.12891 0.22852 0.0937 0.36914 0.20508 0.14648 0.11132 0.24609 0.29882 0.10547 0.1875 0.15235 0.33399 0.0527 0.14062 0.0762 0.38672 0.0293 0.24609 0.0293 0.38672 6e-3 0.14062 6e-3 0.39257v0.44532q0 0.33984-0.0117 0.58593-0.0117 0.24024-0.0586 0.52149-0.041 0.28125-0.12304 0.47461-0.0762 0.19336-0.2168 0.38672-0.13477 0.1875-0.33398 0.29882-0.19336 0.11133-0.48047 0.18165-0.28125 0.0703-0.64453 0.0703zm3.6387-3.3691q0-0.63282-0.25782-0.87891-0.25195-0.25195-0.70312-0.25195h-1.2715v3.2871h1.207q0.62109 0 0.82031-0.32227 0.20508-0.32226 0.20508-1.1894zm-0.0645-3.9609q-0.0117-0.79102-0.21679-1.0898-0.20508-0.30469-0.80274-0.30469h-1.1484v3h1.207q0.54492 0 0.75-0.28125 0.21093-0.28125 0.21093-0.9082z"/><path d="m-347.45-338.34v-3l-1.9219-6.9375h1.3828l1.2363 4.9805 1.2598-4.9805h1.3652l-1.9043 7.0078v2.9297z"/></g></svg>
