<svg width="800" height="234.69" version="1.1" viewBox="0 0 800 234.69" xmlns="http://www.w3.org/2000/svg">
 <path class="st0" d="m407.17 49.853-45.525 83.142v51.895h-34.528v-51.51l-45.53-83.526h38.776l23.92 49.966 24.112-49.966zm113.04 117.58c-13.697 13.57-30.449 20.352-50.252 20.352-19.808 0-36.555-6.7826-50.252-20.352-13.697-13.565-20.545-30.252-20.545-50.06 0-19.803 6.8483-36.49 20.545-50.06 13.697-13.57 30.449-20.352 50.252-20.352s36.555 6.7826 50.252 20.352c13.697 13.57 20.545 30.256 20.545 50.06 0 19.808-6.8483 36.494-20.545 50.06zm-76.293-23.727c6.9422 6.8811 15.626 10.322 26.041 10.322s19.094-3.4406 26.041-10.322c6.9422-6.8811 10.42-15.654 10.42-26.332 0-10.674-3.4734-19.451-10.42-26.332-6.9422-6.8764-15.626-10.322-26.041-10.322-10.42 0-19.099 3.4406-26.041 10.322-6.9422 6.8811-10.416 15.659-10.416 26.332 0 10.678 3.4734 19.456 10.416 26.332zm202.07 31.153c-9.965 8.6178-22.793 12.927-38.485 12.927-15.691 0-28.52-4.3089-38.485-12.927-9.9697-8.6132-14.95-20.061-14.95-34.335v-90.666h34.532v87.385c0 11.317 6.2991 16.973 18.902 16.973 12.603 0 18.902-5.656 18.902-16.973v-87.385h34.532v90.666c5e-3 14.274-4.9848 25.722-14.95 34.335z" fill="#fff" stroke-width=".46938"/>
 <g transform="matrix(.46938 0 0 .46938 -.046938 -.046938)" fill="#fff">
  <path class="st0" d="m1540.2 141.55h-51.12v23.22h50.11v35.23h-50.11v48.88h-36.46v-142.57h87.58zm164.25-35.24v142.58h-36.26v-76.79l-34.62 57.23h-3.67l-34.42-57.03v76.58h-36.46v-142.57h36.46l36.26 60.9 36.46-60.9z" fill="#fff"/>
 </g>
 <path class="st0" d="m135.28 0-17.935 17.935-17.94-17.935h-99.406v103.27l17.935 17.935-17.935 17.935v95.552h131.7l102.99-102.99v-131.7zm64.554 117.35-82.489 82.489h-82.494v-49.294l29.336-29.336-29.336-29.336v-57.016h53.157l29.336 29.13 29.336-29.13h53.153z" fill="#fff" stroke-width=".46938"/>
</svg>
