<svg id="a" width="2299.2pt" height="815.18pt" version="1.1" viewBox="0 0 2299.2 815.18" xmlns="http://www.w3.org/2000/svg">
 <g id="b" fill="#fff">
  <path id="c" d="m1526.4 11.411c20.63-7.86 42.75-11.73 64.82-11.39h57.26c-0.04 39.73 0.04 78.83-0.04 118.56h-50.27c-11.12 0.35-23.26 1.7802-31.88 9.5402-7.35 6.91-10.31 17.08-11.69 26.78-2.47 19.34-1.01 38.85-1.44 58.29h230.34v48.31c3.23-2.07 5.015-5.79 7.665-8.52 11.5-13.58 24.94-25.71 40.51-34.45 21.3-12.28 46.03-17.71 70.47-18.07 24.07-0.55 48.5 3.15 70.66 12.82 16.14 7.05 30.89 17.32 42.9 30.22 8.62 9.04 15.72 19.4 21.88 30.25 16.43-30.81 45.73-53.98 78.71-64.91 19.52-6.73 40.36-9.25 60.95-8.25 20.31 0.88 40.88 4.8 59.04 14.27 12.39 6.26 23.38 15.26 32.05 26.1 15.69 19.41 23.81 43.81 27.73 68.18 2.22 14.51 3.35 29.2 3.15 43.88v244.9h-136.54v-197.92c-0.37-14.04-0.845-28.26-4.495-41.9-2.62-9.81-7.18-19.39-14.68-26.41-7.19-6.87-16.84-10.7-26.61-11.96-9.54-1.43-19.29-0.77-28.74 0.99-11.56 2.19-22.69 7.79-30.27 16.94-9.98 11.97-13.63 27.76-15.26 42.92-1.94 20.08-1.29 40.28-1.4 60.43v156.92h-136.54v-174.94c-0.07-20.07 0.705-40.41-3.695-60.13-2.52-10.6-6.86-21.21-14.74-28.97-6.45-6.71-15.15-10.91-24.14-12.96-11.8-2.6-24.15-2.62-35.94-0.05-10.39 2.3-20.41 7.65-27.08 16.09-10.63 13.17-13.69 30.54-14.92 46.96-1.04 12.67-0.675 25.38-0.725 38.08v175.92h-136.66v-272.08h-93.61v272.08h-136.63v-272.08h-47.86v-112.65h47.86c-0.01-26.14-0.49-52.42 4.06-78.27 3.36-19.35 10.1-38.24 20.79-54.79 20.15-31.1 50.25-55.75 85.02-68.72z"/>
  <path id="d" transform="scale(.75)" d="m925.95 267.21a308.98 273.55 0 0 0-308.98 273.55 308.98 273.55 0 0 0 308.98 273.55 308.98 273.55 0 0 0 308.98-273.55 308.98 273.55 0 0 0-308.98-273.55zm0 158.18a116.84 115.38 0 0 1 116.84 115.38 116.84 115.38 0 0 1-116.84 115.38 116.84 115.38 0 0 1-116.84-115.38 116.84 115.38 0 0 1 116.84-115.38z" style="paint-order:stroke fill markers"/>
  <path id="e" d="m0 213.19h157.79l102.68 196.96 100.26-196.96h155.56l-321.49 601.98h-153.38l144.57-269.88z"/>
  <path id="f" d="m940.3 213.19h136.64v198.81c0 18.01 0.305 36.53 6.535 53.67 3.35 9.08 8.86 17.52 16.56 23.49 7.98 6.29 17.83 9.77 27.79 11.38 8.75 1.25 17.65 1.87 26.47 0.93 11.12-0.81 22.36-3.43 31.88-9.44 9.51-5.88 16.46-15.32 20.36-25.71 6.69-17.62 6.94-36.76 6.67-55.36v-197.77h136.88v174.79c-0.15 21.65 0.325 43.31-0.315 64.95-0.7 22.37-4.41 44.86-13.01 65.61-7.78 18.69-19.79 35.72-35.34 48.75-13.37 11.49-29.03 20.11-45.45 26.4-21.04 8.07-43.32 12.46-65.67 14.84-23.97 2.54-48.16 2.65-72.22 1.53-19.98-1.33-39.98-3.74-59.41-8.72-20.23-5.11-39.97-12.86-57.32-24.56-17-11.39-31.38-26.72-41.25-44.67-14.5-26.17-19.645-56.49-19.805-86.11z"/>
 </g>
</svg>
