<svg width="78.411mm" height="24.794mm" version="1.1" viewBox="0 0 78.411 24.794" xmlns="http://www.w3.org/2000/svg">
 <g transform="matrix(1.0251 0 0 .9755 -17.18 -127)" fill="#fff" style="font-feature-settings:normal;font-variant-caps:normal;font-variant-ligatures:normal;font-variant-numeric:normal" aria-label="zen">
  <path d="m16.759 130.19h23.903l-18.297 22.664 18.297 5e-4v2.7483l-23.903-4.9e-4 18.297-22.664h-18.297z" stroke-width=".68193"/>
  <path d="m61.111 150.4 2.2407 2.0215-0.45516 0.40756c-0.98521 0.83914-2.0735 1.4958-3.2646 1.9695-1.3777 0.53313-2.9366 0.7997-4.6768 0.7997-3.8574 0-6.8738-1.2884-9.049-3.8652-2.1752-2.5916-3.2629-5.5164-3.2629-8.7744 0-3.0655 0.92086-5.7978 2.7626-8.1969 2.3348-3.0507 5.4599-4.5755 9.3753-4.5755 4.0315 0 7.2508 1.5619 9.6581 4.6866 1.7112 2.2066 2.5813 6.1939 2.6103 9.4964h-21.144c0.05801 2.8137 0.805 3.8911 2.5017 5.6979 1.6967 1.7919 3.7922 2.6879 6.2865 2.6879 1.2036 0 2.371-0.21474 3.5022-0.64421 0.88256-0.33085 1.6619-0.7454 2.3379-1.2434 0.20148-0.14841 0.39379-0.30423 0.57692-0.46745zm2.5886-8.9923c-0.70091-3.0345-2.2478-6.0287-4.8508-7.3346-1.2761-0.60718-2.6175-0.91077-4.0242-0.91077-1.5705 0-2.9915 0.3494-4.263 1.0482-1.449 0.75969-2.5071 2.0232-3.1766 3.3761-0.58403 1.1933-1.0536 2.6049-1.305 3.8209z" stroke-width=".64438"/>
  <path d="m68.685 130.19h3.4472v5.0775c1.3789-1.7002 2.9055-2.9678 4.5798-3.8028 1.6743-0.85013 3.4964-1.2752 5.4663-1.2752 2.0027 0 3.7755 0.4706 5.3185 1.4118 1.1656 0.70354 2.308 1.6436 3.1191 2.7391 0.77839 1.137 1.3654 2.5425 1.7783 3.6865 0.46912 1.314 0.8554 2.9101 0.8554 4.8236v12.751h-3.4221v-11.819c0-1.3873-0.13987-2.4358-0.31379-3.257-0.30542-1.2774-0.6688-2.6516-1.3004-3.6625-0.65008-1.03-1.5517-1.9485-2.2924-2.4846-1.1326-0.83495-2.61-1.2524-4.4321-1.2524-2.0847 0-3.9561 0.63759-5.614 1.9128-1.6415 1.2752-2.7249 2.854-3.2502 4.7364-0.3283 1.2296-0.49246 3.4764-0.49246 6.7402v9.0857h-3.4472z" stroke-width=".69412"/>
 </g>
</svg>
