<svg width="800" height="707.1" space="preserve" version="1.1" viewBox="0 0 800 707.1" xmlns="http://www.w3.org/2000/svg">
 <link rel="stylesheet" type="text/css"/>
 <link rel="stylesheet" type="text/css"/>
 <circle cx="353.55" cy="353.55" r="353.55" fill="#e40613" stroke-width=".47159"/>
 <path d="m648.15 74.322 20.278 35.369-83.471 97.619 25.466 32.54-190.99 224.95-93.374-22.165 0.4716 130.16h-42.16l0.18864-130.63-59.42 15.091 0.14147-49.611 282.34-333.32z" fill="#c3171b" stroke-width=".47159"/>
 <path d="m610.42 239.85-0.4716-102.81 12.403-15.044 43.716 0.42443-18.392 21.221 31.596 64.607 72.436-86.017 42.631 0.66023-65.22 163.4-286.77 334.59-32.351 0.047-77.34-58.005z" fill="#aa1922" stroke-width=".47159"/>
 <path d="m622.49 121.39 70.88 166.19h34.85l71.068-166.19h-47.63l-40.887 101.2-40.698-101.2z" fill="#fff" stroke="#aa1922" stroke-linejoin="round" stroke-width="1.4148"/>
 <path d="m667.86 110.59-1.0375-36.595h-159.07v38.057l59.043-1.4619v129.59h43.81v-129.59z" fill="#fff" stroke="#c3171b" stroke-linejoin="round" stroke-width="1.4148"/>
 <path d="m405.52 168.4 78.519 58.712 70.266 324.92-149.02 151.47s-205.66 38.906-338.6-143.93c338.74-388.21 338.84-391.18 338.84-391.18z" fill="#aa1922" stroke-width=".47159"/>
 <path d="m144.49 181.37 154.21 18.392 57.534 319.74s-1.1318 1.0847-154.26 153.31c-102.9-46.31-198.35-157.37-201.79-316.48 143.79-175.38 144.31-174.96 144.31-174.96z" fill="#c3171b" stroke-width=".47159"/>
 <path d="m257.82 129.31c139.45 0 131.1 112.62 131.1 112.62v198.4s3.0653 111.77-131.38 111.77c-134.45 0-129.5-111.77-129.5-111.77v-197.83c0.0472 0-9.6675-113.18 129.78-113.18zm-43.056 112.9-0.47158 198.07s-2.3579 33.483 43.386 33.483c45.744 0 44.801-33.483 44.801-33.483v-198.07s0.8488-36.501-44.329-36.312c-45.178 0.1886-43.386 36.312-43.386 36.312z" fill="#fff" stroke-width=".47159"/>
 <path d="m554.3 129.4v422.54h-87.244l-0.4716-324.36h-61.778v-59.892z" fill="#fff" stroke-width=".47159"/>
</svg>
