<!DOCTYPE svg  PUBLIC '-//W3C//DTD SVG 1.0//EN'  'http://www.w3.org/TR/2001/REC-SVG-20010904/DTD/svg10.dtd' [
	<!ENTITY ns_extend "http://ns.adobe.com/Extensibility/1.0/">
	<!ENTITY ns_ai "http://ns.adobe.com/AdobeIllustrator/10.0/">
	<!ENTITY ns_graphs "http://ns.adobe.com/Graphs/1.0/">
	<!ENTITY ns_vars "http://ns.adobe.com/Variables/1.0/">
	<!ENTITY ns_imrep "http://ns.adobe.com/ImageReplacement/1.0/">
	<!ENTITY ns_sfw "http://ns.adobe.com/SaveForWeb/1.0/">
	<!ENTITY ns_custom "http://ns.adobe.com/GenericCustomNamespace/1.0/">
	<!ENTITY ns_adobe_xpath "http://ns.adobe.com/XPath/1.0/">
]>
<svg enable-background="new 0 0 1260 720" version="1.0" viewBox="0 0 1260 720" xml:space="preserve" xmlns="http://www.w3.org/2000/svg">
	<rect x="30" y="78" width="1209" height="599" display="none"/>
		<path d="m541.3 142.2v53.3h708.7v327.9h-325v54.2h-109.2v-54h-274.4v53.1h-531.3v-434.6c176.8 0.1 353.8 0.1 531.2 0.1zm-132.9 65.8v302.9h407.4v-42h49.8c4.7 0 4.7 0 4.7-4.7v-251.6c0-4.7 0-4.7-4.7-4.7h-452.5c-1.5 0.1-2.9 0.1-4.7 0.1zm-156.5 81.7v229.7c0 4.3 0 4.3 4.4 4.3h66.1v-327.9c-1-0.1-1.9-0.3-2.8-0.3-17.5 0-34.9 0-52.4 0.1-1.4 0-3 0.7-4.2 1.5-24.8 18.1-49.5 36.3-74.2 54.4-1.6 1.2-2.2 2.5-2.2 4.4 0.1 10.2 0 20.5 0.1 30.7 0 0.9 0.1 1.9 0.2 3.1h65zm752.6 125.1v-165h-62.1c-0.1 1.1-0.2 2-0.2 2.9 0 71.2 0 142.4-0.1 213.6 0 2.7 0.9 3.4 3.4 3.3 45.8-0.1 91.7-0.1 137.5 0 2.9 0 3.5-1 3.5-3.7-0.1-15.9 0-31.8-0.1-47.7 0-1.1-0.1-2.1-0.2-3.4h-81.7zm112.9-165.1v219.6c1.1 0.1 1.9 0.2 2.8 0.2 18.3 0 36.7-0.1 55 0.1 3 0 3.1-1.4 3.1-3.7v-212.8c0-3-0.9-3.7-3.8-3.7-18 0.1-36 0.1-54 0.1-0.9 0-1.9 0.2-3.1 0.2z" fill="#fff"/>
		<path d="m408.4 208h457.1c4.7 0 4.7 0 4.7 4.7v251.6c0 4.7 0 4.7-4.7 4.7h-49.8v42h-407.4c0.1-101 0.1-201.8 0.1-303zm70.9 42.1v218.8h61.4v-78.8h83.8v-54h-4.5c-25 0-50.1-0.1-75.1 0.1-3.2 0-4.5-0.7-4.4-4.2 0.3-7.8 0.1-15.6 0.1-23.4 0-4.3 0-4.3 4.4-4.3h81.8c1.4 0 2.8-0.1 4.2-0.2v-54h-151.7zm238.3 165v-160.6c0-4.5 0-4.5-4.5-4.5h-52.7c-1.4 0-2.8 0.1-4.1 0.2v218.7h143.2v-53.8h-81.9z" fill="none"/>
		<path d="m251.9 289.7h-65c-0.1-1.2-0.2-2.1-0.2-3.1 0-10.2 0-20.5-0.1-30.7 0-2 0.5-3.2 2.2-4.4 24.8-18.1 49.5-36.3 74.2-54.4 1.2-0.9 2.8-1.5 4.2-1.5 17.5-0.1 34.9-0.1 52.4-0.1 0.9 0 1.7 0.2 2.8 0.3v327.9h-66.1c-4.4 0-4.4 0-4.4-4.3v-229.7z" fill="none"/>
		<path d="m1004.5 414.8h81.8c0.1 1.3 0.2 2.4 0.2 3.4 0 15.9 0 31.8 0.1 47.7 0 2.7-0.6 3.7-3.5 3.7-45.8-0.1-91.7-0.1-137.5 0-2.5 0-3.4-0.6-3.4-3.3 0.1-71.2 0.1-142.4 0.1-213.6 0-0.9 0.1-1.8 0.2-2.9h62.1c-0.1 55-0.1 109.9-0.1 165z" fill="none"/>
		<path d="m1117.4 249.7c1.2-0.1 2.2-0.2 3.2-0.2 18 0 36 0 54-0.1 2.8 0 3.8 0.7 3.8 3.7-0.1 70.9-0.1 141.9 0 212.8 0 2.3-0.1 3.7-3.1 3.7-18.3-0.1-36.7-0.1-55-0.1-0.9 0-1.7-0.1-2.8-0.2-0.1-73.1-0.1-146.1-0.1-219.6z" fill="none"/>
		<rect x="815.8" y="467.9" width="109.9" height="109.9" fill="#DF222A"/>
		<path d="m479.3 250.1h151.7v54c-1.4 0.1-2.8 0.2-4.2 0.2h-81.8c-4.4 0-4.4 0-4.4 4.3 0 7.8 0.2 15.6-0.1 23.4-0.1 3.5 1.1 4.2 4.4 4.2 25-0.1 50.1-0.1 75.1-0.1h4.5v54h-83.8v78.8h-61.4v-218.8z" fill="#fff"/>
		<path d="m717.6 415.1h81.7v53.8h-143.2v-218.7c1.4-0.1 2.7-0.2 4.1-0.2h52.7c4.5 0 4.5 0 4.5 4.5v155.5c0.2 1.5 0.2 3 0.2 5.1z" fill="#fff"/>
</svg>
