<svg width="800" height="368.04" enable-background="new 0 0 1260 720" version="1.0" viewBox="0 0 800 368.04" xml:space="preserve" xmlns="http://www.w3.org/2000/svg"><link rel="stylesheet" type="text/css"/><link rel="stylesheet" type="text/css"/><style lang="en" type="text/css"/><style lang="en" type="text/css"/>
<g transform="matrix(.68143 0 0 .68143 -29.302 -61.329)">
	<path d="m58.9 630c-10.7 0-15.9-3.7-15.9-10v-134.8h7.4c10.8 0 15.9 3.7 15.9 10v134.8zm122.2 0c-10.8 0-16.8-3.7-16.8-10v-65.1c0-10.4-8.5-16.7-19.3-16.7h-16.8c-10.7 0-17 6.3-17 16.7v75.1h-4.5c-10.7 0-16.8-3.7-16.8-10v-98.8h6.9c6.3 0 12.1 3.5 12.1 9.8 7.4-6.7 17.7-9.8 30.7-9.8h3.1c26.9 0 42.8 13.9 42.8 43.1v65.7zm74.6 0c-26.9 0-40.6-7.5-40.6-36.6v-55.2h-18.4v-3.7c0-8.5 3.4-13.3 9.2-13.3h9.2v-28.5c0-2.3 2-4.2 4.5-4.2h12.3c2.5 0 4.5 1.9 4.5 4.2v28.5h38.1v3.7c0 8.5-3.3 13.3-9.2 13.3h-28.9v60.3c0 10.4 6.3 14.6 17.1 14.6h13.7c5.8 0 9.2 4.8 9.2 13.3v3.5h-20.7zm119.9-46.4h-65.6v12.9c0 10.4 8.5 16.7 19.3 16.7h44.6c5.6 0 9.4 3.7 9.4 12.1v4.8h-51.8c-26.9 0-42.8-13.7-42.8-42.8v-22.9c0-29.1 15.9-43.1 42.8-43.1h10.3c26.9 0 42.8 13.9 42.8 43.1v11c-0.1 3.8-4.3 8.2-9 8.2zm-12.4-28.7c0-10.4-8.5-16.7-19.3-16.7h-14.8c-10.7 0-19.3 6.3-19.3 16.7v13.9h53.3zm107.4-16.7h-25.1c-10.8 0-17.3 6.3-17.3 16.7v75.1h-4.5c-10.7 0-16.8-3.7-16.8-10v-98.8h6.9c6.3 0 12.1 3.5 12.1 9.8 5.2-5 10.5-9.8 21.7-9.8h32.1v3.7c0.1 8.6-3.3 13.3-9.1 13.3zm113.8 91.8c-10.7 0-16.8-3.7-16.8-10v-65.1c0-10.4-8.5-16.7-19.3-16.7h-16.8c-10.7 0-17 6.3-17 16.7v75.1h-4.5c-10.8 0-16.8-3.7-16.8-10v-98.8h6.9c6.3 0 12.1 3.5 12.1 9.8 7.4-6.7 17.7-9.8 30.7-9.8h3.1c26.9 0 42.8 13.9 42.8 43.1v65.7zm108.9 0c-6.3 0-12.1-5.6-12.1-11.9-4.7 6.9-16.6 11.9-28.4 11.9h-5.6c-26.9 0-42.6-13.3-42.6-34.5v-2.5c0-20.8 15.7-32.7 42.6-32.7h31.8v-8.5c0-10.4-8.5-13.7-17-13.7h-38.3c-5.8 0-9.2-4.8-9.2-13.3v-3.5h45.3c26.9 0 40.5 7.7 40.5 36.8v72h-7zm-14.3-54.5h-34.1c-10.7 0-19 6.3-19 16.7v4.4c0 10.4 8.3 16.7 19 16.7h17c10.7 0 17-6.2 17-16.7zm91.4 54.5c-26.9 0-40.6-7.5-40.6-36.6v-55.2h-18.4v-3.7c0-8.5 3.3-13.3 9.2-13.3h9.2v-28.5c0-2.3 2-4.2 4.5-4.2h12.3c2.5 0 4.5 1.9 4.5 4.2v28.5h38.1v3.7c0 8.5-3.4 13.3-9.2 13.3h-28.9v60.3c0 10.4 6.3 14.6 17 14.6h13.7c5.8 0 9.2 4.8 9.2 13.3v3.5h-20.6zm56.2-123.8h-15.2c-4.5 0-8.1-3.3-8.1-7.5v-6c0-4.2 3.6-7.5 8.1-7.5h15.2c4.5 0 8.1 3.3 8.1 7.5v6c0 4.2-3.6 7.5-8.1 7.5zm-0.9 123.8c-10.8 0-16.8-3.7-16.8-10v-98.8h6.9c10.8 0 14.4 3.7 14.4 10v98.8zm79.8 0h-10.3c-26.9 0-42.6-13.7-42.6-42.8v-22.9c0-29.1 15.7-43.1 42.6-43.1h10.3c26.9 0 42.8 13.9 42.8 43.1v22.9c0 29.1-15.9 42.8-42.8 42.8zm21.5-75.1c0-10.4-8.3-16.7-19.1-16.7h-15c-10.8 0-19.1 6.3-19.1 16.7v41.6c0 10.4 8.3 16.7 19.1 16.7h15c10.7 0 19.1-6.2 19.1-16.7zm130.4 75.1c-10.7 0-16.8-3.7-16.8-10v-65.1c0-10.4-8.5-16.7-19.3-16.7h-16.8c-10.7 0-17 6.3-17 16.7v75.1h-4.5c-10.8 0-16.8-3.7-16.8-10v-98.8h6.9c6.3 0 12.1 3.5 12.1 9.8 7.4-6.7 17.7-9.8 30.7-9.8h3.1c26.9 0 42.8 13.9 42.8 43.1v65.7zm108.9 0c-6.3 0-12.1-5.6-12.1-11.9-4.7 6.9-16.6 11.9-28.4 11.9h-5.6c-26.9 0-42.6-13.3-42.6-34.5v-2.5c0-20.8 15.7-32.7 42.6-32.7h31.8v-8.5c0-10.4-8.5-13.7-17-13.7h-38.3c-5.8 0-9.2-4.8-9.2-13.3v-3.5h45.3c26.9 0 40.5 7.7 40.5 36.8v72h-7zm-14.3-54.5h-34c-10.8 0-19.1 6.3-19.1 16.7v4.4c0 10.4 8.3 16.7 19.1 16.7h17c10.7 0 17-6.2 17-16.7zm60.5 54.5c-10.8 0-16.8-3.7-16.8-10v-138.9h4.7c10.7 0 16.6 3.7 16.6 10v139h-4.5zm-908.9-540h-260.3v122.5h130.2v122.5h-130.2v122.6h390.6v-122.6h-130.3zm390.6 122.5v-122.5h-130.1v122.5h-130.2v122.5h130.2v122.6h130.1v-122.6h130.2v-122.5zm390.6 122.5v-245h-260.4v122.5h130.2v122.5h-130.2v122.6h390.6v-122.6z" fill="#c70025"/>
</g>


</svg>
