<svg width="800" height="402.34" enable-background="new 0 0 290 150" version="1.1" viewBox="0 0 800.02 402.34" xmlns="http://www.w3.org/2000/svg">
 <defs>
  <clipPath id="a">
   <path d="m54.527 353.47h24.75v12.448h-24.75z"/>
  </clipPath>
 </defs>
 <g transform="matrix(32.324 0 0 -32.324 -1762.5 11828)">
  <g transform="translate(54.532 365.91)">
   <path d="m0 0v-2.75h2.75v-2.749h-2.75v-2.75h8.248v2.75h-2.749v5.499z" fill="#c51e24"/>
  </g>
  <g transform="translate(71.029 365.91)">
   <path d="m0 0v-2.75h2.749v-2.749h-2.749v-2.75h8.248v2.75h-2.75v5.499z" fill="#c51e24"/>
  </g>
  <g transform="translate(67.827 358.57)">
   <path d="m0 0h-1.836v0.918h-0.459v-1.836h2.753v1.836h-0.458z" fill="#c51e24"/>
  </g>
  <g transform="translate(65.532 365.92)">
   <path d="m0 0v-1.836h0.459v0.917h1.836v-0.917h0.458v1.836z" fill="#c51e24"/>
  </g>
  <g transform="translate(63.697 360.87)">
   <path d="m0 0v1.835h0.918v0.459h-1.836v-2.753h1.836v0.459z" fill="#c51e24"/>
  </g>
  <g transform="translate(69.203 363.16)">
   <path d="m0 0v-0.459h0.918v-1.835h-0.918v-0.459h1.836v2.753z" fill="#c51e24"/>
  </g>
  <g transform="translate(68.285 362.24)">
   <path d="m0 0v0.918h-0.917v0.917h-0.918v-0.917h-0.918v-0.918h-0.918v-0.918h0.918v-0.917h0.918v-0.918h0.918v0.918h0.917v0.917h0.918v0.918zm-0.688-1.147h-1.376v1.376h1.376z" fill="#c51e24"/>
  </g>
  <path d="m68.736 363.62h0.917v0.917h-0.917z" fill="#c51e24"/>
  <path d="m68.736 359.04h0.917v0.917h-0.917z" fill="#c51e24"/>
  <path d="m64.156 363.62h0.917v0.917h-0.917z" fill="#c51e24"/>
  <path d="m64.156 359.04h0.917v0.917h-0.917z" fill="#c51e24"/>
  <g transform="translate(54.526 356.88)">
   <path d="m0 0v-0.392l0.41 0.084v0.308zm0-3.355h0.41v2.752h-0.41z" fill="#c51e24"/>
  </g>
  <g clip-path="url(#a)">
   <g transform="translate(56.865 353.52)">
    <path d="m0 0v2.108c0 0.172-0.105 0.337-0.305 0.337h-0.281v-2.445h-0.416v2.74c0.246 0.059 0.387 0.071 0.621 0.071h0.076c0.429 0 0.715-0.319 0.715-0.703v-2.108z" fill="#c51e24"/>
   </g>
   <g transform="translate(59.292 353.6)">
    <path d="m0 0c-0.193-0.094-0.351-0.13-0.545-0.13-0.363 0-0.545 0.242-0.545 0.662v2.739h0.411v-0.601h0.632v-0.361h-0.632v-1.772c0-0.195 5e-3 -0.306 0.228-0.306h0.445z" fill="#c51e24"/>
   </g>
   <g transform="translate(61.449 354.68)">
    <path d="m0 0h-1.014v-0.508c0-0.177 0.105-0.342 0.304-0.342h0.669v-0.242c-0.2-0.083-0.457-0.119-0.669-0.119-0.421 0-0.715 0.313-0.715 0.703v1.459c0 0.389 0.317 0.703 0.71 0.703 0.392 0 0.715-0.314 0.715-0.703zm-0.411 0.951c0 0.236-0.14 0.349-0.304 0.349-0.165 0-0.299-0.113-0.299-0.349v-0.608h0.603z" fill="#c51e24"/>
   </g>
   <g transform="translate(62.727 355.97)">
    <path d="m0 0v-2.445h-0.41v2.628c0.228 0.107 0.609 0.184 0.849 0.184h0.176v-0.367z" fill="#c51e24"/>
   </g>
   <g transform="translate(65.124 353.52)">
    <path d="m0 0v2.108c0 0.172-0.105 0.337-0.304 0.337h-0.282v-2.445h-0.416v2.74c0.246 0.059 0.387 0.071 0.621 0.071h0.077c0.427 0 0.715-0.319 0.715-0.703v-2.108z" fill="#c51e24"/>
   </g>
   <g transform="translate(67.832 353.54)">
    <path d="m0 0c-0.241-0.059-0.446-0.071-0.628-0.071h-0.087c-0.423 0-0.715 0.313-0.715 0.703v0.319c0 0.467 0.375 0.703 0.767 0.703h0.252v0.543c0 0.16-0.07 0.237-0.252 0.237h-0.609v0.241c0.181 0.071 0.421 0.113 0.609 0.113 0.41 0 0.663-0.113 0.663-0.591zm-0.411 1.312h-0.252c-0.199 0-0.357-0.137-0.357-0.361v-0.319c0-0.177 0.106-0.348 0.305-0.348h0.304z" fill="#c51e24"/>
   </g>
   <g transform="translate(69.848 353.6)">
    <path d="m0 0c-0.194-0.094-0.351-0.13-0.545-0.13-0.363 0-0.545 0.242-0.545 0.662v2.739h0.41v-0.601h0.633v-0.361h-0.633v-1.772c0-0.195 6e-3 -0.306 0.229-0.306h0.445z" fill="#c51e24"/>
   </g>
   <g transform="translate(70.61 356.48)">
    <path d="m0 0v0.391h0.41v-0.308zm0-0.212h0.41v-2.752h-0.41z" fill="#c51e24"/>
   </g>
   <g transform="translate(71.917 355.63)">
    <path d="m0 0c0 0.389 0.316 0.703 0.709 0.703s0.715-0.314 0.715-0.703v-1.447c0-0.402-0.322-0.715-0.715-0.715s-0.709 0.313-0.709 0.715zm1.014 0c0 0.236-0.14 0.348-0.305 0.348-0.164 0-0.299-0.112-0.299-0.348v-1.447c0-0.242 0.135-0.355 0.299-0.355 0.165 0 0.305 0.113 0.305 0.355z" fill="#c51e24"/>
   </g>
   <g transform="translate(75.241 353.52)">
    <path d="m0 0v2.108c0 0.172-0.106 0.337-0.305 0.337h-0.281v-2.445h-0.417v2.74c0.246 0.059 0.388 0.071 0.622 0.071h0.076c0.428 0 0.715-0.319 0.715-0.703v-2.108z" fill="#c51e24"/>
   </g>
   <g transform="translate(77.948 353.54)">
    <path d="m0 0c-0.24-0.059-0.445-0.071-0.627-0.071h-0.088c-0.422 0-0.715 0.313-0.715 0.703v0.319c0 0.467 0.375 0.703 0.768 0.703h0.251v0.543c0 0.16-0.069 0.237-0.251 0.237h-0.61v0.241c0.182 0.071 0.422 0.113 0.61 0.113 0.41 0 0.662-0.113 0.662-0.591zm-0.411 1.312h-0.251c-0.199 0-0.358-0.137-0.358-0.361v-0.319c0-0.177 0.106-0.348 0.305-0.348h0.304z" fill="#c51e24"/>
   </g>
   <g transform="translate(78.874 356.88)">
    <path d="m0 0v-2.93c0-0.358 0.153-0.47 0.39-0.477v3.407z" fill="#c51e24"/>
   </g>
  </g>
 </g>
</svg>
