<svg width="800" height="274.4" enable-background="new 0 0 1260 720" version="1.0" viewBox="0 0 800 274.4" xml:space="preserve" xmlns="http://www.w3.org/2000/svg">
<g transform="matrix(.50815 0 0 .50815 -24.544 -45.733)">
	<g fill="#ff4842">
		<path d="m756.1 528c-68.5 0-113.5-41.9-113.5-109h78c0.4 19.2 14.3 37.5 35.5 37.5 19.9 0 33.8-11.3 33.8-30.4 0-17.3-14.3-29.5-38.1-29.5h-12.9v-57.5h11.1c17.8 0 29.9-11.6 29.9-27.2 0-13.9-10-25.7-27.3-25.7-17.8 0-28.2 14.5-28.6 33.7h-75.8c0-63.9 42.9-102.7 106.2-102.7 22.6 0 43 4.9 59.6 13.9l-11.4-141.1h-754.3l72.1 540 720.3-64.5-5.1-63.2c-20 15.9-47.5 25.7-79.5 25.7zm-410.1-6.8h-79.9v-223.6h-47.9v-70.3h127.8zm268.3 0h-223.6v-63.5l109.9-88.8c23-18.6 32.2-31.2 32.2-45.5 0-18.6-12.5-31.3-30.3-31.3-20.4 0-32.9 11.9-33.3 40.7h-78.4c0-67.1 43.8-115.2 111.8-115.2 64.6 0 110.9 41.6 110.9 100.1 0 38.6-18.2 68.4-69.8 106.1-22.5 16.5-38.6 27.2-41.2 27.2h111.7v70.2z"/>
		<path d="m947.5 286.8h-66.3v52.1h-24.4v53.6h24.4v64.9c0 43.4 25.5 68.5 66 68.5 20.4 0 34.2-4 43-8.4v-56.1c-5.8 3.3-13.1 5.5-19.7 5.5-14.9 0-23-6.9-23-25.1v-49.2h42.6v-53.6h-42.6z"/>
		<polygon points="1143.6 338.9 1108.2 440.2 1072.9 338.9 1002.5 338.9 1075.8 521.1 1138.5 521.1 1211.7 338.9"/>
	</g>
</g>
<g transform="matrix(3.4546 0 0 3.4546 -2228.4 -146.65)" fill="#ff4842" fill-opacity=".6" style="shape-inside:url(#rect849);white-space:pre" aria-label="HD"><path d="m847.05 79.221v26.8h-8.24v-10h-9.04v10h-8.28v-26.8h8.28v9.76h9.04v-9.76z"/><path d="m850.33 79.221h11.68q6.56 0 10.56 3.72 4.04 3.72 4.04 9.68t-4.04 9.68q-4 3.72-10.56 3.72h-11.68zm8.28 19.92h2.72q3.12 0 5-1.8 1.92-1.84 1.92-4.72t-1.92-4.68q-1.88-1.84-5-1.84h-2.72z"/></g></svg>
