<svg version="1.1" viewBox="0 0 600 496.12" xmlns="http://www.w3.org/2000/svg">
 <g transform="matrix(.82493 0 0 .82493 -241.89 205.41)" fill="#9dcf14" stroke-width=".98538">
  <path d="m605.5-249 48.008 48.619-311.93 311.69-48.353-48.353z"/>
  <path d="m644.9-137.15c14.012-4.2864 28.832-6.7696 43.475-4.8185 6.5626 0.6602 12.928 2.493 19.333 3.9612 5.5378 1.5372 10.553 4.4244 15.806 6.671 21.422 11.223 38.578 30.438 46.963 53.151 1.685 6.5429 3.843 12.997 4.5919 19.747 1.8328 13.135 0 26.536-3.636 39.208-1.4091 7.0356-5.4984 13.056-8.6615 19.373-8.5334 13.766-19.412 25.856-30.616 37.494-12.682 12.731-25.226 25.699-39.455 36.745-3.3897 2.1186-6.5626 4.6017-10.051 6.5626-6.2473 2.828-12.771 5.4492-19.698 5.9123-9.0162 0.82772-17.944-1.1233-26.714-2.9364 3.3207 14.111 3.8725 29.354-1.823 42.943-6.8681 14.406-18.23 25.827-29.098 37.218-15.52 15.401-30.695 31.217-47.436 45.308-7.6071 6.4444-15.914 12.12-24.93 16.387-16.742 6.07-34.951 9.5976-52.708 6.474-13.795-2.4142-27.128-7.7746-38.459-16.032-14.958-10.573-27.354-24.891-35.247-41.435-2.7886-4.651-4.0598-9.9425-5.7349-15.047-5.0353-15.401-5.4787-32.36-0.69962-47.889 2.0299-6.0108 3.5966-12.268 7.0849-17.658 5.7054-11.401 14.052-21.196 23.127-30.044 8.5137-8.3462 16.82-16.939 25.383-25.245 16.682 16.663 33.513 33.158 49.909 50.087-9.3414 10.09-19.589 19.264-28.921 29.374-3.4685 4.0893-5.5378 9.2429-6.7006 14.436-2.4142 15.805 13.253 31.493 29.079 29.069 6.8188-1.5372 13.204-4.986 18.032-10.071 13.017-12.613 25.679-25.61 38.607-38.331 8.0506-8.3856 17.737-16.18 21.432-27.63 1.951-7.1637-2.2072-13.854-5.9616-19.599-5.5378-7.1144-11.578-13.884-18.338-19.836 15.066-15.116 30.241-30.103 45.278-45.239 4.651 5.1338 9.6567 9.9721 15.027 14.367 4.6806 4.4441 10.376 7.9619 16.476 10.11 7.7057 2.3354 14.722-2.562 20.634-6.8287 14.948-13.923 29-28.773 43.593-43.032 5.6659-5.1437 10.652-11.746 11.391-19.619 0.70947-6.5035-2.3748-12.623-6.0108-17.776-2.2664-2.3255-4.6608-4.5327-7.1243-6.6415-6.5035-3.8824-14.741-5.3802-21.915-2.4339-7.8239 2.02-12.672 8.9867-18.358 14.17-6.7794 6.9469-13.835 13.628-20.525 20.663-2.6605-3.9218-6.6907-6.5134-9.6469-10.149-7.883-7.5973-15.52-15.421-23.186-23.216-6.0896-5.3802-11.194-11.765-17.431-16.988 12.061-11.529 23.255-23.945 35.789-34.961 8.3659-6.9075 18.023-12.002 28.073-15.973z"/>
 </g>
 <g transform="translate(-.00018986 -1.0121)" fill="#9dcf14" stroke-width="1.0723">
  <path d="m430.19 190.39c2.8523-2.9488 5.3508-6.3695 8.8679-8.5891 9.3076 8.8358 18.218 18.111 27.322 27.151-2.7129 2.7665-5.1792 5.8119-8.246 8.1817-0.33242-0.0107-0.99724-0.0536-1.3404-0.0751-2.8309-2.3483-5.1899-5.2114-7.8492-7.7527-13.136 13.179-26.132 26.497-39.278 39.675-0.96507 1.0723-2.6915 2.4556-3.989 1.0187-3.0882-2.9059-6.1872-5.8333-8.9001-9.0931 13.532-14.251 27.698-27.955 41.53-41.948-2.5735-2.981-5.3615-5.7582-8.1173-8.5677z"/>
  <path d="m421.64 265.8c17.007-16.857 33.724-33.992 50.752-50.827 3.6029 3.4421 7.1201 6.9914 10.466 10.691-6.7233 6.4981-13.436 13.039-19.784 19.891 1.8229 3.7745 5.7046 6.1657 8.4819 9.254 7.0665-6.4016 13.543-13.425 20.288-20.159 3.6351 3.4528 7.1522 7.0343 10.659 10.627-16.942 16.771-33.531 33.917-50.602 50.538-4.182-2.6271-7.045-6.852-10.777-10.026 7.0879-7.4847 14.637-14.551 21.671-22.1-2.788-2.8202-5.3186-5.9406-8.5999-8.2031-1.587-0.1394-2.5199 1.469-3.6458 2.3054-6.2301 6.2086-12.364 12.524-18.626 18.712-3.367-3.6244-6.9271-7.0665-10.283-10.702z"/>
  <path d="m385.59 251.74c1.4905-1.2117 3.3349-4.3857 5.2757-2.0159 2.8202 3.0132 6.7662 5.5867 8.4068 9.3505-2.477 3.1204-5.5867 5.6832-8.2889 8.6106 3.0239 3.0453 6.0907 6.037 9.329 8.8679 11.281 12.417 23.762 23.709 35.15 36.029-3.8067 3.796-7.6241 7.5919-11.463 11.366-15.152-14.594-29.692-29.81-44.726-44.522-2.981 2.9059-5.8977 5.8548-8.8036 8.8358-3.5493-3.5064-7.1415-6.9807-10.551-10.627 8.4068-8.7714 17.232-17.146 25.671-25.896z"/>
  <path d="m328.22 309.64c8.7393-8.7285 17.339-17.607 26.207-26.207 3.4314 3.4635 6.9056 6.8949 10.38 10.337-4.6967 5.0613-9.7472 9.7901-14.508 14.787 3.6458 3.7209 7.4096 7.3345 10.98 11.152 4.6216-4.1712 8.7285-8.8786 13.414-12.986 3.3992 3.3456 6.8413 6.6804 9.9938 10.273-4.257 4.4179-8.632 8.7071-12.964 13.039 4.1712 4.2463 8.3318 8.5034 12.685 12.567 4.8682-4.4179 9.0073-9.6507 14.154-13.747l0.80423-0.18229c3.56 3.0775 6.7019 6.6161 10.005 9.9617-8.1924 8.364-16.492 16.631-24.717 24.952-1.5334 1.5763-3.2812-0.3753-4.375-1.469-17.253-17.586-34.732-34.968-52.06-52.478z"/>
  <path d="m314.56 323.36c2.4448-2.4234 4.6538-5.1578 7.549-7.0665 3.3885 3.367 7.0772 6.5089 9.8866 10.391-4.4179 5.072-9.522 9.4792-14.197 14.304 3.6351 3.8496 7.431 7.549 11.163 11.302 4.375-4.0533 8.128-8.8036 12.825-12.503 2.5735 0.95434 4.1605 3.5386 6.2301 5.2757 1.3082 1.5656 3.4957 2.7236 3.871 4.8682-3.9675 4.5251-8.6642 8.3532-12.589 12.932 4.2892 3.7423 7.9458 8.1602 12.235 11.913l0.67554 0.0643c5.265-4.375 9.4148-9.951 14.808-14.187 2.9167 3.9032 6.4445 7.2702 9.6614 10.927-8.825 8.5999-17.275 17.586-26.228 26.068-17.929-18.819-36.866-36.673-54.698-55.588 6.466-6.0263 12.6-12.407 18.808-18.701z"/>
  <path d="m272.77 365.17c4.9755-5.265 11.527-10.82 19.366-8.9966 8.2782 2.3054 14.53 9.0931 19.098 16.074 2.1339 3.0239 1.6835 6.8091 1.5334 10.283 7.3131-1.4905 13.221 4.0855 18.036 8.75 4.3214 4.5894 9.5971 8.1173 15.28 10.809-3.9353 4.3106-8.1924 8.3103-12.246 12.503-5.8012-2.6486-10.433-7.045-14.766-11.613-3.0024-2.9596-6.8198-6.8413-11.463-5.3937-2.5306 1.2975-4.4179 3.5171-6.4874 5.4151 7.4632 7.2916 14.766 14.755 22.1 22.186-3.9675 3.6994-7.3774 8.0208-11.742 11.259-1.1152-0.70771-2.1124-1.5763-3.0561-2.477-15.066-15.291-30.368-30.335-45.38-45.68-2.1017-2.1553-4.2785-4.2356-6.5196-6.2408 4.8575-6.1336 10.948-11.13 16.245-16.878m5.1042 14.369c4.3106 4.9111 9.1682 9.3076 13.65 14.079 2.8416-2.9488 7.2059-5.5438 7.6026-9.9402-1.5656-4.4822-5.6189-7.7206-9.3397-10.466-5.2436-2.0695-8.5999 3.292-11.913 6.3266z"/>
  <path d="m222.5 415.82c9.5542-9.7901 19.194-19.559 29.059-29.027 3.6137 3.1633 7.8492 6.3373 9.9938 10.659-2.6164 2.9167-5.5974 5.4902-8.1709 8.4604 14.744 14.787 29.628 29.467 44.211 44.415-3.2169 4.375-7.3024 8.2889-11.538 11.699-14.808-14.755-29.51-29.638-44.307-44.404-3.0346 2.7558-5.8977 5.6725-8.6749 8.6856-3.6994-3.3027-7.5383-6.541-10.573-10.487z"/>
  <path d="m200.79 436.81c4.2249-5.769 9.9081-11.87 17.564-12.149 7.2809 0.0107 13.05 5.2328 17.8 10.176-3.5708 3.6244-7.1844 7.1951-10.68 10.884-3.2491-2.1982-5.9084-6.4874-10.305-5.8869-2.981 0.84712-5.1042 3.9568-3.9675 7.0557 2.0159 3.6458 6.0049 6.4445 10.305 5.9191 8.2567-0.53615 16.192-4.064 24.566-3.2598 10.262 0.77205 18.658 9.0395 22.1 18.358 2.6915 6.7555-0.82567 14.144-5.3079 19.248-4.3428 4.7932-9.64 10.208-16.642 9.9617-8.4819 0.40748-14.851-6.2408-20.374-11.774 3.5922-3.6029 7.0128-7.4096 10.82-10.777 3.3992 1.2224 5.0184 5.2543 8.3532 6.7984 3.9782 2.9381 10.262-1.7478 8.8465-6.4124-1.6728-5.4473-7.4203-9.1146-13.018-8.943-7.9029 0.91146-15.602 4.0533-23.666 3.2169-7.9779-0.73989-14.648-6.5303-18.379-13.35-3.3992-6.0049-2.091-13.715 1.9838-19.066z"/>
 </g>
 <path d="m443.36 341.8 78.318-78.318 78.318 78.318-78.318 78.318z" fill="#9dcf14" stroke-width="1.0723"/>
 <path d="m478.36 318.75v44.956h11.688v-16.996h15.173v16.996h11.688v-44.956h-11.688v17.344h-15.173v-17.344zm49.674 0v44.956h18.98c2.4155 0 4.7764-0.42067 7.104-1.2332 4.3917-1.5371 7.9927-4.2821 10.803-8.2567 2.8326-3.9965 4.2624-8.3245 4.2624-13.002-4e-5 -3.3596-0.76837-6.6226-2.3054-9.7848-1.8885-3.8208-4.6142-6.8844-8.1495-9.1682-3.6012-2.3495-7.4988-3.5118-11.715-3.5118zm11.688 9.7848h4.3964c4.5674 0 7.9884 1.5051 10.294 4.5573 1.7348 2.3057 2.6271 5.0265 2.6271 8.1227-3e-5 3.0962-0.89242 5.795-2.6271 8.1227-2.2838 3.0523-5.7048 4.5841-10.294 4.5841h-4.3964z" fill="#fff" stroke-width="1.0723"/>
</svg>
