<svg enable-background="new 0 0 1024 768" version="1.1" viewBox="0 0 521.84 212.24" xml:space="preserve" xmlns="http://www.w3.org/2000/svg" xmlns:xlink="http://www.w3.org/1999/xlink"><g transform="translate(-234.64 -260.11)"><defs><rect id="b" x="225.61" y="251.84" width="572.78" height="228.16"/></defs><clipPath id="a"><use width="100%" height="100%" overflow="visible" xlink:href="#b"/></clipPath><path d="m401.16 391.55c-22.129-0.747-40.677 16.588-41.424 38.719-0.748 22.129 16.589 40.675 38.72 41.422 22.129 0.748 40.677-16.588 41.424-38.717 0.746-22.13-16.588-40.678-38.72-41.424" clip-path="url(#a)" clip-rule="evenodd" fill="#e04540" fill-rule="evenodd"/><circle cx="399.81" cy="431.62" r="40.093" clip-path="url(#a)" fill="none" stroke="#e04540" stroke-miterlimit="10" stroke-width="1.26"/><path d="m373.12 347.21c-10.634-11.601-31.615-9.677-46.859 4.299-15.243 13.976-18.977 34.709-8.339 46.311 10.637 11.603 31.616 9.676 46.859-4.3s18.976-34.709 8.339-46.31" clip-path="url(#a)" clip-rule="evenodd" fill="#e04540" fill-rule="evenodd"/><ellipse transform="matrix(.7371 -.6758 .6758 .7371 -160.9 331.44)" cx="345.52" cy="372.51" rx="37.444" ry="28.499" clip-path="url(#a)" fill="none" stroke="#e04540" stroke-miterlimit="10" stroke-width="1.26"/><path d="m323.33 301.63c-6.297-6.861-21.83-2.855-34.692 8.952-12.863 11.807-18.183 26.939-11.883 33.802 6.3 6.862 21.831 2.854 34.692-8.952 12.862-11.805 18.182-26.941 11.883-33.802" clip-path="url(#a)" clip-rule="evenodd" fill="#e04540" fill-rule="evenodd"/><ellipse transform="matrix(.7367 -.6762 .6762 .7367 -139.42 287.96)" cx="300.05" cy="323" rx="31.611" ry="16.865" clip-path="url(#a)" fill="none" stroke="#e04540" stroke-miterlimit="10" stroke-width="1.26"/><path d="m238.89 353.22c4.739 2.652 12.982-3.058 18.415-12.758s5.995-19.713 1.256-22.367c-4.737-2.654-12.98 3.058-18.412 12.758-5.433 9.698-5.997 19.712-1.259 22.367" clip-path="url(#a)" clip-rule="evenodd" fill="#e04540" fill-rule="evenodd"/><ellipse transform="matrix(-.4886 .8725 -.8725 -.4886 663.12 282.66)" cx="248.73" cy="335.66" rx="20.129" ry="9.833" clip-path="url(#a)" fill="none" stroke="#e04540" stroke-miterlimit="10" stroke-width="1.26"/><path d="m292.34 363.91c-11.476-1.21-23.362 12.361-26.546 30.313-3.182 17.949 3.54 33.481 15.018 34.692 11.478 1.209 23.361-12.361 26.543-30.312 3.183-17.95-3.539-33.483-15.015-34.693" clip-path="url(#a)" clip-rule="evenodd" fill="#e04540" fill-rule="evenodd"/><path d="m292.34 363.91c-11.476-1.21-23.362 12.361-26.546 30.313-3.182 17.949 3.54 33.481 15.018 34.692 11.478 1.209 23.361-12.361 26.543-30.312 3.183-17.95-3.539-33.483-15.015-34.693z" clip-path="url(#a)" fill="none" stroke="#e04540" stroke-miterlimit="10" stroke-width="1.26"/><path d="m280.58 301.85c8.452-7.717 12.687-16.837 9.461-20.369-3.22-3.529-12.688-0.134-21.137 7.585-8.453 7.72-12.689 16.839-9.464 20.369 3.224 3.531 12.69 0.135 21.14-7.585" clip-path="url(#a)" clip-rule="evenodd" fill="#e04540" fill-rule="evenodd"/><path d="m280.58 301.85c8.452-7.717 12.687-16.837 9.461-20.369-3.22-3.529-12.688-0.134-21.137 7.585-8.453 7.72-12.689 16.839-9.464 20.369 3.224 3.531 12.69 0.135 21.14-7.585z" clip-path="url(#a)" fill="none" stroke="#e04540" stroke-miterlimit="10" stroke-width="1.26"/><path d="m321.07 281.9c10.123-4.589 16.514-12.32 14.272-17.266-2.242-4.945-12.267-5.235-22.393-0.646-10.124 4.591-16.514 12.32-14.273 17.267 2.243 4.945 12.267 5.234 22.394 0.645" clip-path="url(#a)" clip-rule="evenodd" fill="#e04540" fill-rule="evenodd"/><ellipse transform="matrix(.4129 .9108 -.9108 .4129 434.71 -128.48)" cx="317.01" cy="272.95" rx="9.833" ry="20.128" clip-path="url(#a)" fill="none" stroke="#e04540" stroke-miterlimit="10" stroke-width="1.26"/><path d="m359.37 291.29c13.788-2.522 25.131-10.521 25.337-17.864 0.207-7.344-10.8-11.251-24.586-8.727-13.786 2.525-25.128 10.525-25.335 17.866-0.208 7.343 10.798 11.25 24.584 8.725" clip-path="url(#a)" clip-rule="evenodd" fill="#e04540" fill-rule="evenodd"/><path d="m359.37 291.29c13.788-2.522 25.131-10.521 25.337-17.864 0.207-7.344-10.8-11.251-24.586-8.727-13.786 2.525-25.128 10.525-25.335 17.866-0.208 7.343 10.798 11.25 24.584 8.725z" clip-path="url(#a)" fill="none" stroke="#e04540" stroke-miterlimit="10" stroke-width="1.26"/><path d="m373.91 294.92c-18.153 1.651-32.683 12.338-32.453 23.878 0.231 11.541 15.139 19.554 33.295 17.905s32.684-12.341 32.452-23.878c-0.23-11.538-15.136-19.556-33.294-17.905" clip-path="url(#a)" clip-rule="evenodd" fill="#e04540" fill-rule="evenodd"/><path d="m373.91 294.92c-18.153 1.651-32.683 12.338-32.453 23.878 0.231 11.541 15.139 19.554 33.295 17.905s32.684-12.341 32.452-23.878c-0.23-11.538-15.136-19.556-33.294-17.905z" clip-path="url(#a)" fill="none" stroke="#e04540" stroke-miterlimit="10" stroke-width="1.26"/><path d="m256.8 354.19c-7.333-0.417-16.265 10.209-19.95 23.728-3.685 13.523-0.725 24.822 6.609 25.239 7.335 0.416 16.265-10.207 19.95-23.73 3.685-13.521 0.725-24.82-6.609-25.237" clip-path="url(#a)" clip-rule="evenodd" fill="#e04540" fill-rule="evenodd"/><path d="m256.8 354.19c-7.333-0.417-16.265 10.209-19.95 23.728-3.685 13.523-0.725 24.822 6.609 25.239 7.335 0.416 16.265-10.207 19.95-23.73 3.685-13.521 0.725-24.82-6.609-25.237z" clip-path="url(#a)" fill="none" stroke="#e04540" stroke-miterlimit="10" stroke-width="1.26"/><path d="m680.44 280.18-128.24-1e-3h-3.043c-1.103 0-2.051 0.78-2.264 1.862l-7.88 40.078c-0.213 1.081-1.162 1.862-2.267 1.862h-39.279c-1.453 0-2.544-1.326-2.264-2.753l7.541-38.353c0.274-1.397-0.795-2.696-2.219-2.696h-2.996v1e-3l-9.868-0.01c-1.496 0-4.331 0.459-8.612 2.994l-55.005 29.554c-0.608 0.327-1.038 0.909-1.172 1.587l-1.364 6.914c-0.281 1.427 0.81 2.755 2.264 2.755h14.47c1.453 0 2.544 1.327 2.264 2.753l-12.649 64.332c-0.281 1.425 0.811 2.753 2.264 2.753h39.271l0.525-1e-3c11.34 0 12.489-9.385 13.426-13.091l5.566-27.468c0.37-1.884 2.023-3.245 3.945-3.245h35.785c2.533 0 4.434 2.313 3.946 4.798l-5.703 28.95c-1.684 9.093-1.525 10.056 6.507 10.056h33.258c11.244 0 12.837-3.405 16.041-22.483l8.229-40.892c0.029-0.139-0.049 0.276 0 0 0.358-2.006 1.402-19.164 17.678-19.164h72.527c14.263 0.398 22.316 5.863 22.047 21.058-0.186 10.524-5.092 18.811-14.151 24.14-10.358 6.096-18.736 7.778-31.698 7.778-3.732 0-4.678-1.404-4.082-4.803l7.653-38.929c0.475-1.927-0.365-2.753-2.265-2.753l-41.186 3e-3c-2.835 0-9.725 1.254-11.705 10.607l-11.179 56.841c-0.488 2.483-0.269 8.606 8.237 8.597h38.88c0.462-0.014 0.926-0.016 1.388-0.021 1.661 0.019 3.313 0.04 4.955 0.027 0.312-3e-3 0.625-0.014 0.938-0.018 1.34 0.015 2.678 0.028 4.001 0.018 6.108-0.052 12.195-0.34 18.274-0.973 16.428-1.708 32.557-5.879 47.276-13.498 18.199-9.424 37.036-25.203 37.338-47.443 0.535-40.127-43.002-51.545-75.398-51.723" clip-path="url(#a)" clip-rule="evenodd" fill="#e04540" fill-rule="evenodd"/><path d="m680.44 280.18-128.24-1e-3h-3.043c-1.103 0-2.051 0.78-2.264 1.862l-7.88 40.078c-0.213 1.081-1.162 1.862-2.267 1.862h-39.279c-1.453 0-2.544-1.326-2.264-2.753l7.541-38.353c0.274-1.397-0.795-2.696-2.219-2.696h-2.996v1e-3l-9.868-0.01c-1.496 0-4.331 0.459-8.612 2.994l-55.005 29.554c-0.608 0.327-1.038 0.909-1.172 1.587l-1.364 6.914c-0.281 1.427 0.81 2.755 2.264 2.755h14.47c1.453 0 2.544 1.327 2.264 2.753l-12.649 64.332c-0.281 1.425 0.811 2.753 2.264 2.753h39.271l0.525-1e-3c11.34 0 12.489-9.385 13.426-13.091l5.566-27.468c0.37-1.884 2.023-3.245 3.945-3.245h35.785c2.533 0 4.434 2.313 3.946 4.798l-5.703 28.95c-1.684 9.093-1.525 10.056 6.507 10.056h33.258c11.244 0 12.837-3.405 16.041-22.483l8.229-40.892c0.029-0.139-0.049 0.276 0 0 0.358-2.006 1.402-19.164 17.678-19.164h72.527c14.263 0.398 22.316 5.863 22.047 21.058-0.186 10.524-5.092 18.811-14.151 24.14-10.358 6.096-18.736 7.778-31.698 7.778-3.732 0-4.678-1.404-4.082-4.803l7.653-38.929c0.475-1.927-0.365-2.753-2.265-2.753l-41.186 3e-3c-2.835 0-9.725 1.254-11.705 10.607l-11.179 56.841c-0.488 2.483-0.269 8.606 8.237 8.597h38.88c0.462-0.014 0.926-0.016 1.388-0.021 1.661 0.019 3.313 0.04 4.955 0.027 0.312-3e-3 0.625-0.014 0.938-0.018 1.34 0.015 2.678 0.028 4.001 0.018 6.108-0.052 12.195-0.34 18.274-0.973 16.428-1.708 32.557-5.879 47.276-13.498 18.199-9.424 37.036-25.203 37.338-47.443 0.535-40.127-43.002-51.545-75.398-51.723z" clip-path="url(#a)" fill="none" stroke="#e04540" stroke-miterlimit="10" stroke-width="1.26"/></g><g transform="translate(-234.64 -260.11)" fill="#e04540"><path d="m480.98 434.05c-0.188-3.55-0.415-7.817-0.377-10.989h-0.113c-0.869 2.983-1.926 6.155-3.21 9.668l-4.494 12.349h-2.493l-4.116-12.122c-1.208-3.588-2.229-6.874-2.946-9.895h-0.076c-0.076 3.172-0.264 7.439-0.491 11.254l-0.68 10.914h-3.134l1.775-25.454h4.192l4.343 12.312c1.057 3.135 1.926 5.93 2.568 8.573h0.113c0.642-2.568 1.548-5.363 2.682-8.573l4.532-12.312h4.192l1.586 25.454h-3.21z"/><path d="m491.06 419.78v15.068c0 5.703 2.53 8.12 5.929 8.12 3.776 0 6.193-2.493 6.193-8.12v-15.068h3.324v14.842c0 7.817-4.117 11.027-9.63 11.027-5.211 0-9.139-2.983-9.139-10.876v-14.993z"/><path d="m509.56 441.23c1.473 0.906 3.625 1.661 5.892 1.661 3.361 0 5.325-1.774 5.325-4.343 0-2.379-1.36-3.738-4.797-5.061-4.154-1.473-6.722-3.625-6.722-7.213 0-3.966 3.286-6.911 8.233-6.911 2.605 0 4.494 0.604 5.627 1.246l-0.906 2.682c-0.831-0.453-2.53-1.209-4.834-1.209-3.475 0-4.796 2.077-4.796 3.814 0 2.379 1.548 3.55 5.061 4.909 4.305 1.662 6.495 3.739 6.495 7.478 0 3.928-2.907 7.327-8.912 7.327-2.455 0-5.136-0.718-6.496-1.624z"/><path d="m529.69 419.78v25.454h-3.286v-25.454z"/><path d="m551.03 444.4c-1.209 0.604-3.626 1.209-6.723 1.209-7.176 0-12.576-4.532-12.576-12.878 0-7.969 5.4-13.369 13.294-13.369 3.172 0 5.174 0.68 6.042 1.133l-0.793 2.682c-1.246-0.604-3.021-1.058-5.136-1.058-5.967 0-9.933 3.814-9.933 10.499 0 6.23 3.588 10.234 9.781 10.234 2.002 0 4.041-0.416 5.362-1.058z"/><path d="m564.29 422.57h-7.742v-2.795h18.846v2.795h-7.78v22.659h-3.323v-22.659z"/><path d="m589.44 433.3h-9.895v9.177h11.027v2.757h-14.313v-25.454h13.747v2.757h-10.461v8.044h9.895z"/><path d="m592.38 419.78h3.286v22.697h10.876v2.757h-14.162z"/><path d="m621.46 433.3h-9.895v9.177h11.027v2.757h-14.313v-25.454h13.747v2.757h-10.461v8.044h9.895z"/><path d="m630.79 445.23-8.309-25.454h3.55l3.965 12.538c1.096 3.437 2.04 6.533 2.72 9.518h0.075c0.718-2.946 1.775-6.156 2.908-9.479l4.305-12.576h3.513l-9.102 25.454h-3.625z"/><path d="m647.6 419.78v25.454h-3.286v-25.454z"/><path d="m650.62 441.23c1.473 0.906 3.626 1.661 5.892 1.661 3.361 0 5.325-1.774 5.325-4.343 0-2.379-1.36-3.738-4.797-5.061-4.154-1.473-6.722-3.625-6.722-7.213 0-3.966 3.285-6.911 8.232-6.911 2.605 0 4.494 0.604 5.627 1.246l-0.906 2.682c-0.831-0.453-2.53-1.209-4.834-1.209-3.475 0-4.796 2.077-4.796 3.814 0 2.379 1.548 3.55 5.061 4.909 4.305 1.662 6.495 3.739 6.495 7.478 0 3.928-2.907 7.327-8.912 7.327-2.455 0-5.137-0.718-6.496-1.624z"/><path d="m670.75 419.78v25.454h-3.286v-25.454z"/><path d="m696.05 432.24c0 8.762-5.325 13.406-11.82 13.406-6.723 0-11.443-5.211-11.443-12.915 0-8.082 5.023-13.369 11.82-13.369 6.949 0 11.443 5.326 11.443 12.878zm-19.751 0.415c0 5.438 2.945 10.311 8.119 10.311 5.212 0 8.157-4.797 8.157-10.574 0-5.061-2.644-10.349-8.119-10.349-5.438 0-8.157 5.023-8.157 10.612z"/><path d="m698.17 445.23v-25.454h3.588l8.157 12.878c1.889 2.983 3.361 5.665 4.569 8.271l0.076-0.037c-0.303-3.399-0.378-6.496-0.378-10.461v-10.65h3.097v25.454h-3.323l-8.082-12.916c-1.774-2.832-3.475-5.74-4.759-8.497l-0.113 0.037c0.189 3.21 0.265 6.269 0.265 10.499v10.876z"/></g></svg>
