<svg width="800" height="175.31" version="1.1" viewBox="0 0 800 175.31" xmlns="http://www.w3.org/2000/svg">
 <g transform="matrix(1.3333 0 0 1.3333 -.0016261 .010073)" fill="#373737" stroke-width=".26458">
  <path d="m145.69 56.11h-9.1839v-19.178h9.1839v-18.368h23.094v18.368h15.126v19.178h-15.126v30.251c0 4.4561 1.8914 6.3476 7.0225 6.3476h8.2373v19.583h-11.75c-15.665 0-26.605-6.6175-26.605-26.2z" data-name="Path 41"/>
  <path d="m188.25 36.916h23.094l10.665 53.887 12.695-53.887h24.445l12.832 53.615 10.534-53.615h21.744l-20.393 75.359h-25.525l-11.885-48.889-12.29 48.889h-25.389z" data-name="Path 42"/>
  <path d="m341.02 113.36c-22.149 0-38.085-14.855-38.085-38.76s15.665-38.76 38.085-38.76c22.014 0 37.545 14.587 37.545 37.544a58.355 58.355 0 0 1-0.40495 6.7525h-52.272c0.8099 9.8588 6.8875 14.45 14.315 14.45a12.279 12.279 0 0 0 12.02-7.2924h24.58c-3.6412 14.722-17.013 26.067-35.784 26.067zm-14.998-46.053h28.901c0-8.239-6.4825-12.965-14.18-12.965-7.5574 0-13.363 4.5911-14.715 12.965z" data-name="Path 43"/>
  <path d="m440.8 71.367c0-10.264-5.666-15.936-14.45-15.936s-14.45 5.666-14.45 15.936v40.92h-23.094v-75.359h23.094v9.9988c4.5911-6.3476 12.695-10.804 22.831-10.804 17.421 0 29.036 11.885 29.036 32.143v44.026h-22.967z" data-name="Path 44"/>
  <path d="m480.16 56.11h-9.1839v-19.178h9.1839v-18.368h23.094v18.368h15.125v19.178h-15.125v30.251c0 4.4561 1.8914 6.3476 7.0225 6.3476h8.239v19.583h-11.752c-15.665 0-26.605-6.6175-26.605-26.2z" data-name="Path 45"/>
  <path d="m562.46 113.36c-22.149 0-38.085-14.855-38.085-38.76s15.665-38.76 38.085-38.76c22.014 0 37.544 14.587 37.544 37.544a58.441 58.441 0 0 1-0.40495 6.7525h-52.265c0.8099 9.8588 6.8875 14.45 14.317 14.45a12.279 12.279 0 0 0 12.019-7.2924h24.58c-3.6479 14.722-17.018 26.067-35.789 26.067zm-14.998-46.053h28.91c0-8.239-6.4825-12.965-14.18-12.965-7.5658 0-13.373 4.5911-14.723 12.965z" data-name="Path 46"/>
 </g>
 <path d="m79.467 11.8-66.514 59.891c-20.404 18.387-16.039 51.517 8.4301 63.992l67.896 34.596c30.341 15.46 66.308-6.5802 66.308-40.633v-83.952c0-39.484-46.774-60.313-76.12-33.894z" fill="#e84127" stroke-width=".35278" data-name="Path 47"/>
 <path d="m129.81 130.98c-3e-3 9.6805-7.8518 17.526-17.532 17.526s-17.529-7.8459-17.532-17.526v-36.378c0.02131-3.8765-2.098-7.4485-5.5104-9.2878-3.8062-2.0198-15.998-6.4992-21.757-9.4566-6.5901-3.3664-7.7773-12.285-2.2975-17.258l28.219-25.404c3.8752-3.6524 8.9976-5.6891 14.323-5.6949 2.841 0.0094 5.6545 0.55599 8.2923 1.6109 2.6539 1.0528 5.0868 2.5941 7.1725 4.5439 4.3414 4.0729 6.7491 9.7977 6.6236 15.749z" fill="#fff" stroke-width=".35278" data-name="Path 47"/>
</svg>
