<svg width="787.57" height="800" enable-background="new 0 0 1260 720" version="1.0" viewBox="0 0 787.57 800" xml:space="preserve" xmlns="http://www.w3.org/2000/svg">
  
  
  
  <g fill="#0b4892" stroke-width="4.01"><path d="m302.76 0-231.78 0.401h-0.802l-0.802 0.80201-26.867 26.466-1.203 1.604 1.604 1.604 58.546 59.348 0.80201 0.80201h0.802l168.02-0.401h0.80201l0.802-0.80201 57.744-59.348 1.604-1.604-1.604-1.604-26.065-26.466-0.802-0.80201zm-18.045 104.26v145.56l0.802 0.80201 57.744 58.546 1.604 1.604 1.604-1.604 26.867-26.466 0.80201-0.80201v-210.53l-29.674-29.674-1.604 1.604-57.343 59.348-0.802 0.80201zm-199.3 175.24-44.11 44.11 44.912 44.912h201.3l0.802-0.802 41.704-42.506 1.604-1.604-1.604-1.604-41.303-42.506-0.802-0.80201h-201.7zm-85.013 86.617v209.72l0.802 0.802 26.065 27.268 1.604 1.604 1.604-1.604 58.546-59.348 0.802-0.802v-145.96l-1.203-0.80201-58.546-58.947-1.604-1.604-1.604 1.604-26.065 26.466-0.802 0.802v0.80201zm101.05 191.28-58.546 59.348-1.604 1.604 1.604 1.604 26.867 26.466 0.802 0.802h232.98l0.802-0.802 26.065-26.466 1.604-1.604-1.604-1.604-57.744-59.348-0.802-0.802h-170.03z"/><path d="m70.178 0-28.872 29.273 60.952 61.754 169.62-0.401 60.15-61.754-28.471-28.872zm214.54 249.82 60.15 60.952 29.273-28.872v-210.53l-29.674-29.674-59.749 61.754zm-243.41 73.79 44.912 44.912h201.3l44.11-44.912-43.709-44.912h-201.7zm-41.304 252.23 28.872 29.674 60.952-61.754v-145.96l-61.353-61.353-28.471 28.872zm41.301 42.512 29.273 28.872h232.98l28.471-28.872-60.15-61.754h-170.03z"/><path d="m480.4 0.80201-26.867 26.466-1.604 1.604 1.604 1.604 58.546 59.348 0.80201 0.80201h170.03l0.802-0.80201 57.744-59.348 1.604-1.604-1.604-1.604-26.065-26.466-0.802-0.80201h-232.98zm215.34 103.46v145.56l0.802 0.80201 57.744 58.546 1.604 1.604 1.604-1.604 26.867-26.466 0.80201-0.80201v-210.53l-0.80201-0.80201-26.867-27.268-1.604-1.604-1.604 1.604-57.744 59.348-0.802 0.80201zm-284.71-32.08v209.72l0.802 0.80201 26.065 26.466 1.604 1.604 60.952-60.952v-146.37l-0.80201-0.80201-58.546-59.348-1.604-1.604-1.604 1.604-26.065 27.268-0.802 0.80201zm284.71 326.42v145.56l0.802 0.80201 57.744 59.348 1.604 1.604 1.604-1.604 26.867-27.268 0.80201-0.80201v-210.93l-0.80201-0.802-26.867-26.466-1.604-1.604-1.604 1.604-58.145 58.947-0.802 0.80201v0.802zm-284.71-32.481v209.72l0.802 0.802 26.065 27.268 1.604 1.604 1.604-1.604 58.546-59.348 0.80201-0.802v-145.96l-60.952-60.952-1.604 1.604-26.065 26.466-0.802 0.80201zm101.05 191.28-58.546 59.348-1.604 1.604 1.604 1.604 26.867 26.466 0.80201 0.802h232.98l0.80201-0.802 26.065-26.466 1.604-1.604-1.604-1.604-57.343-59.348-0.802-0.802h-170.03z"/><path d="m451.93 28.872 60.952 61.754h170.03l60.15-61.754-28.471-28.872h-232.98zm243.81 220.95 60.15 60.952 29.273-28.872v-210.53l-29.273-29.674-60.15 61.754zm-284.71 32.08 28.471 28.872 60.952-60.952v-146.37l-60.952-61.754-28.471 29.674zm284.71 262.26 60.15 61.754 29.273-29.674v-210.93l-29.273-28.872-60.551 61.353zm-284.71 31.679 28.471 29.674 60.952-61.754v-145.96l-60.952-60.952-28.471 28.872zm40.9 42.512 29.273 28.872h232.98l28.471-28.872-59.749-61.754h-170.03z"/></g>
  <path d="m189.09 680.5c-7.9322 0.0992-14.248 6.4782-14.248 14.436 0 8.02 6.4155 14.436 14.436 14.436s14.436-6.4155 14.436-14.436-6.8165-14.436-14.436-14.436c-0.0627 0-0.12504-7.8e-4 -0.1875 0zm298.13 24.461v16.039h-10.428v20.451h10.025v27.67c0 16.04 7.6203 29.273 38.898 29.273 12.832 0 22.055-1.204 32.08-3.209-1.604-6.817-2.8068-15.238-4.0098-22.857-6.015 2.005-14.036 3.6094-24.863 3.6094-12.431 0-15.639-3.6089-15.639-11.629v-22.455c16.04 0.401 32.482 0.39978 41.705 0.80078-0.401-6.416-6.1e-4 -15.639 0.40039-21.654h-41.705c0-5.614 0.40235-10.826 0.40235-16.039-4.411 0.401-8.8234 0.40039-13.234 0.40039-4.411 0-9.2218-0.40039-13.633-0.40039zm138.35 13.232c-32.08 0-51.328 12.432-51.328 40.502 0 28.471 18.446 41.303 51.328 41.303 37.293 0 46.515-9.6248 45.713-27.67-4.1846-9e-3 -8.1469 0.0136-12.075-0.0611-4.2246-0.0803-8.4091-0.27332-12.787-0.73965-0.401 6.015-5.6135 9.2226-20.852 9.2226-16.441 0-24.06-3.6086-25.664-15.639h31.277c14.837 0 30.877-6.1e-4 39.699 0.40039 0-4.01 0.40039-8.0195 0.40039-14.436 0-20.852-12.029-32.883-45.713-32.883zm113.88 0c-34.085 0-45.715 8.4209-45.715 24.461-1e-5 14.436 9.2233 23.66 42.105 24.863 24.06 0.802 26.867 3.6078 26.867 7.2168 0 4.01-4.0095 5.6152-20.852 5.6152-19.649 0-24.463-2.4075-24.463-8.0215v-0.71289c-3.1202 0.31134-7.1724 0.3125-11.227 0.3125-4.812 0-9.2242 6.1e-4 -12.031-0.40039v3.207c0 16.04 10.426 25.264 47.318 25.264 34.887 0 46.115-9.2236 46.115-25.264 0-15.238-7.6178-22.857-40.5-24.461-25.664-1.203-28.07-4.0088-28.07-7.2168 0-3.609 3.2081-5.6152 20.451-5.6152 17.644 0 22.455 2.4061 22.455 7.6191v1.2031c2.406-0.40099 6.8169-0.40039 11.629-0.40039 4.411 0 9.2242-6e-4 12.031 0.40039v-3.207c0-18.847-15.639-24.863-46.115-24.863zm-447.54 1.2031c-17.811 0.0748-29.697 4.9082-35.268 17.242h-0.80078c0-5.614 0.40039-9.6236 0.40039-15.639h-28.471c0.40101 10.827 0.40039 22.457 0.40039 39.299 0 17.644 6.2e-4 26.466-0.40039 37.293h28.471c-0.401-6.817-0.40039-14.836-0.40039-35.287 0-15.639 10.827-21.654 24.461-21.654 14.436 0 19.648 5.2116 19.648 18.846 0 15.238 6.1e-4 29.273-0.40039 38.496h28.471c-0.401-8.02-0.40039-16.039-0.40039-24.861 0-6.015 0.40039-11.229 0.40039-20.051 0-24.06-13.233-33.684-35.689-33.684-0.14098 0-0.28163-5.9e-4 -0.42188 0zm-234.16 0.40039c-14.436 0-24.06 4.8122-29.674 15.238l-0.80273-0.40039c0.401-4.812 0.80273-8.8227 0.80273-13.635h-26.867c0.401 11.228 0.40039 22.056 0.40039 38.898 0 16.04 6.115e-4 26.866-0.40039 37.693h26.064c-0.401-7.218-0.40039-19.65-0.40039-38.096 0-13.634 8.8214-18.445 19.648-18.445 10.827 0 15.238 4.8127 15.238 13.635 0 19.649 6.12e-4 32.079-0.40039 42.906h26.064c-0.401-8.822-0.40039-19.249-0.40039-38.096 0-13.634 8.8214-18.445 19.648-18.445 10.426 0 15.238 4.4117 15.238 13.635 0 17.243 6.1e-4 32.48-0.40039 43.307h25.664c-0.401-7.218-0.40039-15.638-0.40039-24.059 0-9.223 0.40039-16.442 0.40039-27.67 0-16.842-9.6243-26.467-29.273-26.467-14.436 0-25.663 4.011-31.277 16.041h-1.2031c-2.406-10.426-12.031-16.041-27.67-16.041zm297.14 0.40234c0.401 8.02 0.40234 16.039 0.40234 24.861v20.852c0 23.258 13.231 32.883 35.688 32.883 18.045 0 29.675-4.8111 35.289-17.242h0.80274c0 5.614-0.40234 9.6236-0.40234 15.639h28.473c-0.401-10.827-0.40234-22.457-0.40234-39.299 0-18.045 1e-3 -26.866 0.40234-37.693h-28.473c0.401 6.817 0.40234 14.837 0.40234 35.689 0 16.04-10.827 22.055-24.461 22.055-14.436 0-19.65-4.8132-19.65-18.447 0-15.639 1e-3 -30.074 0.40235-39.297zm-179.65 0.80078c0.401 12.03 0.40039 22.457 0.40039 36.893 0 15.238 6.1e-4 27.268-0.40039 39.699h27.67c-0.401-12.431-0.40234-22.054-0.40234-38.896 0-15.238 1e-3 -25.264 0.40234-37.695zm449.92 15.639c15.238 0 21.254 4.0113 21.254 13.234v2.8066c-13.634 0.40101-30.877 0.40101-46.516 0 1.604-12.832 8.4196-16.041 25.262-16.041z" fill="#0b4892" stroke-width="4.01"/>
</svg>
