<svg width="600" height="177.63" version="1.1" xmlns="http://www.w3.org/2000/svg">
 <g transform="translate(-266.44 -233.78)" fill="#8bbc08">
  <path d="m498.2 314h-21.104l-26.191 28.071v-28.071h-15.39v73.983h15.39v-25.196l6.2666-6.5616 22.154 31.757h19.832l-31.223-42.871 30.264-31.112z"/>
  <path d="m506.06 387.97h15.298v-74.002h-15.298v74.002z"/>
  <path d="m531.01 328.35h19.445v59.644h15.261v-59.644h19.445v-14.34h-54.151v14.34z"/>
  <path d="m622.39 326.25c3.8522 0 7.4094 1.069 10.543 3.1149 2.9306 2.009 5.2161 4.6816 6.838 7.9623l0.20275 0.42392h16.441l-0.31333-0.94c-2.3408-7.6121-6.4878-13.639-12.404-18.063-5.8612-4.4051-13.049-6.6168-21.307-6.6168-10.064 0-18.671 3.76-25.527 11.206-6.8564 7.4094-10.34 16.607-10.34 27.334s3.4835 19.943 10.34 27.371c6.8564 7.4278 15.464 11.225 25.527 11.225 8.036 0 15.187-2.2302 21.122-6.709 5.9349-4.4051 10.137-10.487 12.478-18.1l0.33176-0.95843h-16.349l-0.20275 0.46078c-1.622 3.3545-3.9074 6.027-6.838 8.0545-3.1886 2.1012-6.7643 3.1702-10.543 3.1702-5.6953 0-10.561-2.3961-14.542-7.1329-4.018-4.7737-6.0086-10.635-6.0086-17.381 0-6.6721 1.9906-12.478 6.0086-17.27 3.9812-4.7553 8.847-7.1514 14.542-7.1514"/>
  <path d="m708.55 343.02h-29.416v-29.011h-15.372v73.983h15.372v-30.633h29.416v30.633h15.28v-73.983h-15.28v29.011z"/>
  <path d="m752.88 356.65h33.416v-14.34h-33.416v-13.971h39.167v-14.34h-54.483v73.928h55.202v-14.284h-39.885v-16.994z"/>
  <path d="m851.05 314v49.507l-28.274-49.507h-17.768v73.983h15.261v-49.562l28.384 49.562h17.786v-73.983h-15.39z"/>
  <path d="m403.06 368.82v-72.085h-25.435l-44.29 71.016h-23.223l15.556-17.381c8.0361-8.9945 13.473-16.238 16.33-21.62 3.4098-6.5247 5.1423-13.694 5.1423-21.509 0-10.229-3.6863-18.911-10.985-26.025-7.3357-7.1145-16.533-10.653-27.536-10.653-11.335 0-20.809 3.7969-28.329 11.372-7.5568 7.6121-11.335 17.399-11.335 29.287h21.804c0-5.3266 1.5298-9.8055 4.5525-13.4 3.0227-3.6125 7.4647-5.4372 13.307-5.4372 5.4925 0 9.8055 1.6957 12.883 5.1055 2.5435 2.8753 3.7968 6.1008 3.7968 9.7502 0 4.7368-0.88471 8.9208-2.6541 12.552-1.9537 3.9812-6.2114 9.7686-12.699 17.362l-43.498 50.907h116.3v23.352h20.311v-23.352h13.381v-19.242h-13.381zm-20.311 0h-26.799l26.799-42.834v42.834z"/>
  <path d="m413.47 302.98s-11.704-73.946 69.357-68.952c0 0 10.856 75.642-69.357 68.952"/>
  <path d="m362.87 242.11s-6.7827 42.871 40.217 39.941c0 0 6.3035-43.848-40.217-39.941"/>
 </g>
</svg>
