<svg width="800" height="169.94" version="1.2" viewBox="0 0 800 169.94" xml:space="preserve" xmlns="http://www.w3.org/2000/svg">
<path class="st0" d="m318.75 38.686v-22h21.75v22zm1.25 103.25v-89.5h19.25v89.5zm103-6.75c-7.5 4-14.5 5.75-21 5.75-9 0-16-2.75-21-8-4.75-5.25-7.25-12.75-7.25-22v-43.5h-16.75v-18h16.75v-19l19.25-4v23h20.5v18h-20.5v45.25c0 4 1 6.75 2.75 9s4.25 3 7.5 3c4.75 0 9-1.25 13.25-3.5zm51.25-86.5c12.25 0 21.5 3 27.75 9 6.5 6 9.75 13.5 9.75 22.75h-19.25c0-4-1.5-7.5-4.75-10s-7.75-4-13.5-4c-12.5 0-18.75 5.75-18.75 17v23.75c0 11.25 6.25 17 18.75 17 5.75 0 10.25-1.25 13.5-4 3.25-2.5 4.75-5.75 4.75-10h19.25c0 9.25-3.25 16.75-9.75 22.75s-15.75 9-27.75 9c-12.75 0-22.25-3-28.75-9.25s-9.5-15.25-9.5-26.75v-21c0-11.5 3.25-20.5 9.75-26.75s15.75-9.25 28.5-9.25zm103 1.25c9.25 0 16.75 2.75 21.75 8.25 5.25 5.5 8 13.5 8 24.25v59.25h-19.25v-57.75c0-10.5-4.75-15.75-14.5-15.75-5.75 0-10.75 1.75-14.75 5.25s-6 8.75-6 16v52.5h-19.25v-124.5h19.25v42.75c6.75-6.5 15-9.75 25-9.75zm70.75 58c0 11.25 6.25 17 18.5 17 5.75 0 10.5-1.25 13.75-3.5s5-5.25 5-8.75h19.25c0 8-3.25 14.75-9.75 20.75-6.5 5.75-15.75 8.75-28 8.75-12.5 0-22-3-28.5-9.25s-9.5-15.25-9.5-26.75v-21.25c0-11.5 3-20.5 9.5-26.75s15.75-9.25 28.5-9.25c12.5 0 22 3 28.5 9.25s9.5 15 9.5 26.25v14h-56.5zm0-25.25v3.25h37v-3.5c0-11-6.25-16.75-18.5-16.75s-18.5 5.75-18.5 17zm122.25-32.75c9.25 0 16.75 2.75 21.75 8.25 5.25 5.5 8 13.5 8 24.25v59.25h-19.25v-57.75c0-10.5-4.75-15.75-14.5-15.75-5.75 0-10.75 1.75-14.75 5.25s-6 8.75-6 16v52.5h-19.25v-89.5h16l1.75 9.5c6.5-7.5 15.25-11.5 26.25-11.5zm-617-4.25s-7-44 41-41c0-0.24999 6.5 45-41 41zm-42-45.5s-5.25 33.75 31.5 31.5c0-0.24999 5-34.5-31.5-31.5zm32.5 121.25v-74.25h-23l-52.5 74h-35.75l28.5-28c12-11.75 19.25-23.25 19.25-39.25 0-21.5-15.25-36.5-40-36.5-25.25 0.24999-39.5 16-40.25 40.25v0.25h23v-1.75c0-10.75 6.25-17.75 17.25-17.75s17 7 17 16c0 7.25-3.75 14.5-11.25 21.75l-46 45v20.75h120.75v28h23v-27.75h12.75v-20.5h-12.75zm-23 0h-26l26-36.5zm146.5-42.75 27.5 52.25v11h-15.75l-28-54.25h-12.75v54.25h-19.25v-124.5h19.25v52.25h12.75l27.5-52.25h16.25v9.25z" fill="#2eb396" stroke-width="2.5"/></svg>
