<svg width="723.1px" height="177.63px" enable-background="new 0 0 723.098 177.629" version="1.1" viewBox="0 0 723.1 177.63" xml:space="preserve" xmlns="http://www.w3.org/2000/svg">
<g transform="translate(-266.44 -233.78)" fill="#8BBC08">
	<path d="m498.2 314h-21.104l-26.19 28.071v-28.071h-15.391v73.983h15.391v-25.196l6.267-6.561 22.153 31.756h19.832l-31.223-42.871 30.263-31.111h2e-3z"/>
	<path d="m506.06 387.97h15.298v-74.002h-15.298v74.002z"/>
	<path d="M531.01,328.35h19.445v59.644h15.261V328.35h19.445v-14.34H531.01V328.35z"/>
	<path d="m622.39 326.25c3.853 0 7.409 1.069 10.543 3.115 2.931 2.01 5.216 4.682 6.838 7.963l0.203 0.424h16.44l-0.313-0.94c-2.34-7.612-6.487-13.64-12.403-18.063-5.861-4.405-13.049-6.617-21.308-6.617-10.063 0-18.671 3.76-25.526 11.206-6.856 7.409-10.34 16.607-10.34 27.334s3.483 19.943 10.34 27.371 15.464 11.225 25.526 11.225c8.036 0 15.188-2.23 21.122-6.709 5.936-4.404 10.138-10.486 12.479-18.1l0.332-0.959h-16.35l-0.202 0.461c-1.622 3.355-3.908 6.027-6.838 8.055-3.189 2.102-6.765 3.17-10.544 3.17-5.695 0-10.561-2.396-14.542-7.133-4.018-4.773-6.008-10.635-6.008-17.381 0-6.672 1.99-12.479 6.008-17.27 3.981-4.756 8.847-7.152 14.543-7.152"/>
	<path d="m708.55 343.02h-29.416v-29.011h-15.372v73.983h15.372v-30.633h29.416v30.633h15.28v-73.983h-15.28v29.011z"/>
	<path d="m752.88 356.65h33.416v-14.34h-33.416v-13.971h39.167v-14.34h-54.483v73.928h55.202v-14.284h-39.885l-1e-3 -16.993z"/>
	<path d="m851.05 314v49.507l-28.274-49.507h-17.768v73.983h15.261v-49.562l28.384 49.562h17.786v-73.983h-15.389z"/>
	<path d="m403.06 368.82v-72.085h-25.435l-44.29 71.017h-23.223l15.556-17.381c8.036-8.995 13.473-16.238 16.33-21.621 3.409-6.524 5.143-13.693 5.143-21.508 0-10.229-3.687-18.911-10.985-26.025-7.336-7.114-16.533-10.653-27.536-10.653-11.335 0-20.809 3.797-28.329 11.372-7.557 7.612-11.335 17.399-11.335 29.287h21.804c0-5.327 1.53-9.806 4.553-13.4 3.022-3.613 7.465-5.438 13.307-5.438 5.493 0 9.806 1.696 12.884 5.105 2.543 2.875 3.797 6.101 3.797 9.75 0 4.737-0.885 8.921-2.654 12.552-1.954 3.98-6.212 9.769-12.699 17.361l-43.498 50.908h116.3v23.352h20.312v-23.352h13.381v-19.241h-13.383zm-20.311 0h-26.799l26.799-42.834v42.834z"/>
	<path d="m413.47 302.98s-11.704-73.946 69.357-68.952c0 0 10.856 75.642-69.357 68.952"/>
	<path d="m362.87 242.11s-6.783 42.871 40.217 39.941c0 0 6.304-43.848-40.217-39.941"/>
</g>
<path d="m629.08 80.218v73.983" fill="#8ABC3F" stroke="#8ABC3F" stroke-width="4.8036"/>
<path d="m679.02 132.53v-13.174h-20.268v13.174h-5.91v-30.64h5.91v12.648h20.268v-12.648h5.91v30.64h-5.91z" fill="#8BBC08"/>
<path d="m705.1 106.71h-9.237v21.007h9.675c7.183 0 11.819-2.843 11.819-10.546 0-7.833-5.121-10.462-12.257-10.461m0.83 25.824h-15.756v-30.642h14.927c10.068 0 17.992 4.206 17.992 15.277 0 10.728-7.135 15.365-17.163 15.365" fill="#8BBC08"/>
</svg>
