<svg width="282.19pt" height="145.11pt" version="1.1" viewBox="0 0 282.19 145.11" xmlns="http://www.w3.org/2000/svg">
 <path d="m156.18 3.7939c-6.3077-3.5e-4 -11.532 5.2235-11.531 11.531v114.48c-3.4e-4 6.3077 5.2235 11.532 11.531 11.531h114.48c6.3068-7.6e-4 11.53-5.2242 11.529-11.531v-114.48c3.6e-4 -6.3077-5.2235-11.532-11.531-11.531z" color="#000000" color-rendering="auto" dominant-baseline="auto" fill="#ea7619" image-rendering="auto" shape-rendering="auto" solid-color="#000000" style="font-feature-settings:normal;font-variant-alternates:normal;font-variant-caps:normal;font-variant-ligatures:normal;font-variant-numeric:normal;font-variant-position:normal;isolation:auto;mix-blend-mode:normal;paint-order:stroke fill markers;shape-padding:0;text-decoration-color:#000000;text-decoration-line:none;text-decoration-style:solid;text-indent:0;text-orientation:mixed;text-transform:none;white-space:normal"/>
 <g transform="translate(-71.034 105.48)">
  <path d="m216.14-32.922a72.553 72.553 0 0 1-72.554 72.553 72.553 72.553 0 0 1-72.553-72.553 72.553 72.553 0 0 1 72.553-72.553 72.553 72.553 0 0 1 72.554 72.553z" fill="#ea7619" style="paint-order:stroke fill markers"/>
  <path d="m211.02-32.922a67.432 67.432 0 0 1-67.432 67.432 67.432 67.432 0 0 1-67.432-67.432 67.432 67.432 0 0 1 67.432-67.432 67.432 67.432 0 0 1 67.432 67.432z" fill="#fff" style="paint-order:stroke fill markers"/>
  <path d="m205.75-32.922a62.161 62.161 0 0 1-62.161 62.161 62.161 62.161 0 0 1-62.161-62.161 62.161 62.161 0 0 1 62.161-62.161 62.161 62.161 0 0 1 62.161 62.161z" fill="#ea7619" style="paint-order:stroke fill markers"/>
 </g>
 <path d="m156.18 8.9478c-3.5217-1.9e-4 -6.3767 2.8548-6.3765 6.3765v114.48c-1.9e-4 3.5217 2.8548 6.3766 6.3765 6.3765h114.48c3.5217 1.9e-4 6.3766-2.8548 6.3765-6.3765v-114.48c1.9e-4 -3.5217-2.8548-6.3766-6.3765-6.3765z" fill="#fff" style="paint-order:stroke fill markers"/>
 <g transform="translate(-108.93 -67.937)" fill="#ea7619">
  <path d="m287.55 111.69h17.67v13.725c2.76 0 5.5298-0.02 8.2898 0-0.01 3.44-0.01 6.86 0 10.31-2.77 0-5.5298-0.01-8.2898 0v18.431c0 2.6226 1.0865 2.7038 8.2898 2.7038v12.69c-6.45 0.16-13.15 0.93-19.5-0.55-4.08-0.9-6.46-5.0576-6.46-8.94v-24.335h-6.29v-10.31h6.29z"/>
  <path d="m317.06 125.39h17.58l7.51 27.55 7.51-27.55h17.11l-14.82 44.045h-19.97z"/>
 </g>
 <path d="m32.992 46.863c6.07-4.1 13.82-4.1 20.85-3.53 6.99 0.6 14.28 4.35 16.96 11.16 1.51 4.77 1.69 10.21-0.48 14.81-2.13 3.8-5.63 6.57-9.25 8.88-5.19 3.3-10.55 6.42-15.85 9.53h26.59v14.06h-48.96c0.1-4.8 1.49-9.63 4.47-13.44 5.05-6.77 12.61-10.82 19.41-15.53 3.68-2.61 7.8-5.91 8.14-10.77 0.23-5.3-7.05-7.94-11.02-5.15-3.75 1.95-4.15 6.66-4.35 10.39h-15.08c-0.67-7.57 1.98-16.08 8.57-20.41z" fill="#fff"/>
 <path d="m77.072 76.753 5.55-32.925h37.11l0.06 13.955h-24.9l-2.04 8.33c9.41-4.97 23.39-3.7 29.32 6 3.38 5.92 3.03 13.4 0.42 19.54-2.9 5.47-8.48 9.22-14.51 10.37-8.48 2.08-18.26 1.72-25.59-3.44-4.08-2.84-6.84-7.23-8.17-11.97l17.19-1.39c2.08 5.55 10.25 6.71 14.02 2.29 3.15-3.35 2.21-8.94-0.91-11.96-3.71-2.23-9.11-1.66-11.89 1.81z" fill="#fff"/>
</svg>
