<svg enable-background="new 0 0 133.667 90" version="1.1" viewBox="0 0 800 538.74" xml:space="preserve" xmlns="http://www.w3.org/2000/svg">
<polygon transform="matrix(5.9745 0 0 5.9745 1.4954 .019721)" points="1.645 88.127 1.645 2.011 66.172 2.011 66.172 88.127" fill="#fff"/>
<polygon transform="matrix(5.9745 0 0 5.9745 1.4954 .019721)" points="66.41 88.127 66.41 2.011 131.73 2.011 131.73 88.127" fill="#fff"/>
<path d="m507.19 410.81c-17.947-22.034-26.921-48.8-26.921-80.285h44.396c1.8879 21.891 5.9805 37.783 12.284 47.7 11.017 17.792 30.93 26.682 59.745 26.682 22.357 0 40.304-5.9745 53.848-17.947 13.532-11.961 20.295-27.387 20.307-46.284 0-23.301-7.1694-39.593-21.496-48.883-14.166-9.2844-33.929-13.927-59.273-13.933-2.8379 0-5.7475 0.0836-8.7347 0.23898-2.8379 0-5.7534 0.0836-8.7407 0.23898v-37.55c4.4032 0.47198 8.0954 0.78863 11.095 0.94397 2.9872 0.16131 6.2135 0.23898 9.6846 0.23898 15.892 0 28.964-2.5153 39.205-7.5577 17.947-8.8124 26.921-24.549 26.921-47.228 0-16.842-5.9864-29.831-17.947-38.966-11.973-9.129-25.905-13.688-41.798-13.694-28.337 0-47.939 9.4457-58.807 28.337-5.9864 10.39-9.368 25.194-10.151 44.396h-42.037c0-25.188 5.0365-46.595 15.115-64.232 17.308-31.486 47.772-47.222 91.386-47.234 34.479 0 61.167 7.719 80.058 23.145 18.891 15.277 28.337 37.472 28.337 66.592 0 20.779-5.5981 37.627-16.77 50.532-6.9304 8.0297-15.904 14.327-26.921 18.891 17.786 4.8871 31.635 14.327 41.565 28.337 10.073 13.855 15.104 30.864 15.109 51.01 0 32.28-10.629 58.562-31.88 78.875-21.257 20.307-51.405 30.464-90.454 30.464-39.981-6e-3 -69.023-10.939-87.126-32.83z" stroke-width="5.9745"/>
<path d="m180.31 281.13c33.368 0 78.344-0.96787 78.344 50.293 0 31.916-24.179 53.197-55.133 53.197-39.659 0-58.03-29.986-59.482-66.735h-65.283c-1.4518 77.86 49.809 123.32 125.73 123.32 66.251 0 125.74-40.137 125.74-111.23 0-37.723-22.727-68.671-59.966-76.892v-0.96787c31.432-8.7108 47.396-37.239 47.396-69.155 0-60.45-59.482-93.817-113.65-93.817-69.639 0-114.61 47.88-117.03 117.03h65.289c-0.48393-34.819 17.894-60.45 52.229-60.45 25.147 0 47.88 16.442 47.88 44.97 0 38.691-42.556 44.492-72.058 42.072v48.364z" stroke-width="5.9745"/>
<path d="m11.491 11.491h777.02v515.75h-777.02zm385.13-0.012v515.75" fill="none" stroke="#000" stroke-miterlimit="3.8637" stroke-width="22.981"/>
</svg>
