<svg width="800" height="370.24" version="1.1" viewBox="0 0 211.67 97.959" xmlns="http://www.w3.org/2000/svg">
 <g transform="translate(36.218 -59.764)">
  <g transform="matrix(1.4577 0 0 1.4577 -36.49 59.764)">
   <rect class="st8" x="121.19" y="62" width="24.2" height="5.2" fill="#0000f2"/>
   <rect class="st9" x="96.987" y="62" width="24.2" height="5.2" fill="#d30100" stroke-width=".99794"/>
   <rect class="st10" x="72.787" y="62" width="24.2" height="5.2" fill="#d300f2" stroke-width="1.0021"/>
   <rect class="st11" x="48.587" y="62" width="24.2" height="5.2" fill="#88ff3c"/>
   <rect class="st12" x="24.387" y="62" width="24.2" height="5.2" fill="#8ff" stroke-width=".99794"/>
   <rect class="st13" x=".18655" y="62" width="24.2" height="5.2" fill="#ffff3c" stroke-width="1.0021"/>
  </g>
  <g transform="matrix(1.4577 0 0 1.4577 -36.208 59.764)" fill="#fff">
   <path class="st14" d="m34.721 38.106c-0.78815 8.277-8.5122 13.394-17.134 13.394-10.9 0-15.8-5.8-17.5-11.8-0.2-0.8-0.1-1.4 0.8-1.7l5.2-1.9c1.1-0.5 1.9-0.1 2.2 0.9 1.3 3.6 3.8 6 9 6 4.6 0 7.7-2.5 7.7-6.4v-0.3c0-4.5-3-7-7.7-7h-3.8c-0.5 0-0.7-0.3-0.7-0.7v-6.4c0-0.4 0.1-0.8 0.7-0.8h3.8c4.5 0 7.2-2.3 7.2-5.8v-0.7c0-2.9-1.9-5.7-7-5.7-4.8 0-7 1.7-8.5 5.4-0.3 0.7-0.9 0.9-1.6 0.7l-5.6-1.9c-0.6-0.2-0.9-0.7-0.6-1.5 2.3-7.5 8.6-11.1 16.5-11.1 10.8 0 16.6 5.3 16.6 13.5v0.7c0 5.2-3.1 9-7.2 10.3 3.426 0.97885 6.4527 3.5546 7.452 7.5644 0.43106 2.1386 0.29146 3.4799 0.18193 5.242z"/>
   <path class="st14" d="m76.487 35.4c0 9-6.8 16.1-17.4 16.1-12.1 0-18.2-7-18.2-17.4v-15.6c0-9.9 6.6-17.7 18.2-17.7 11.2 0 14.5 6.6 15.8 9.9 0.3 0.9-0.3 1.3-1 1.6l-6.1 2.1c-0.7 0.3-1.1-0.1-1.6-1.1-0.9-2.3-3.1-4-7-4-5.4 0-8.6 3-8.6 9.4v2.5l0.1 0.1c2.3-2.1 5.2-3.6 10-3.6 9.5 0 15.8 6.1 15.8 16.1zm-10.03-4.0586c-0.88875-3.5833-3.5342-5.8414-7.47-5.8414-5.2 0-8.4 3.4-8.4 8.7v0.5c0 4.9 2.9 8.3 8.5 8.3 4.5917 0 7.4272-3.0734 7.7658-7.41 0.05961-1.4171-0.06969-2.9043-0.39582-4.2487z"/>
   <path class="st14" d="m118.29 34.2c0 10.4-4.7 17.2-17.9 17.2-13.1 0-17.8-6.8-17.8-17.3v-16.1c0-10.4 4.7-17.2 17.8-17.2 13.2 0 17.9 6.8 17.9 17.2zm-9.7-15c0-6.3-1.2-9.9-8.2-9.9-5.9 0-8.2 3.6-8.2 9.9v13.8c0 6.3 2.3 10 8.2 10 7 0 8.2-3.7 8.2-9.9z"/>
   <path class="st14" d="m133.39 22.8c-6.8 0-11.7-4.8-11.7-11.3 0-6.7 5.1-11.5 11.7-11.5s11.8 4.4 11.8 11.5c0 6.4-5.2 11.3-11.8 11.3m5.7-11.3c0-3.5-2.3-5.6-5.6-5.6-3.2 0-5.5 2.4-5.5 5.6 0 3 2.1 5.4 5.5 5.4 3 0 5.6-2.5 5.6-5.4"/>
  </g>
 </g>
</svg>
