<svg width="1e3" height="560.13" version="1.1" viewBox="0 0 100 56.013" xmlns="http://www.w3.org/2000/svg">
 <g transform="translate(43.7 -44.039)" fill-rule="evenodd">
  <path d="m-43.7 44.039h56.013v56.013h-56.013z" fill="#e40a22"/>
  <g fill="#fff">
   <path d="m-30.063 52.837h22.728l-6.9649 6.9649h-8.7978z"/>
   <path d="m-5.8694 53.424-14.883 14.883 5.0587 5.0587 14.883-14.883z"/>
   <path d="m-11.478 71.125 5.4313-5.4276c3.0597 2.7479 5.1609 6.4164 5.1609 10.946 0 8.2657-7.0403 14.691-15.426 14.691-7.1657 0-11.962-4.1653-14.177-7.9526l5.4622-5.5142c1.5711 3.4313 4.3375 5.9905 8.7333 5.9905 4.3806 0 7.5689-3.1883 7.5689-7.2549 0-2.228-1.0422-4.0594-2.7534-5.4781z"/>
  </g>
  <g fill="#fff">
   <path d="m16.704 65.445 2.1105-2.1261s1.7074 2.0454 4.2886 2.0454c1.2893 0 2.3421-0.5579 2.3421-1.6056 0-2.7999-7.6637-1.609-7.6637-6.818 0-2.4752 2.1088-4.1477 5.5416-4.1477 2.5715 0 4.295 1.0459 5.6822 2.4915l-2.1014 2.083c-0.76997-0.87832-2.1862-1.8143-3.5256-1.8143-1.5723 0-1.9836 0.68021-1.9836 1.3175 0 2.4873 7.7063 1.2635 7.7063 6.8157 0 2.7052-2.4092 4.5892-5.8625 4.5892-3.0897 0-5.188-1.2319-6.5343-2.8306z"/>
   <path d="m37.907 52.792c-2.865 0-4.7395 1.2839-5.9821 2.501l2.0959 2.0959c0.91068-0.91154 2.0601-1.7149 3.6838-1.7149 2.1501 0 2.871 1.2015 2.871 2.4551v0.36715c-5.3178 0.36282-9.5396 1.7995-9.5396 5.5575 0 2.9691 2.3173 4.2219 4.9713 4.2219 2.7457 0 4.1594-1.1643 4.7887-1.9512l0.0736 1.5419h3.2618v-9.1644c0-3.8073-2.3917-5.91-6.2245-5.91zm2.6687 8.1348v1.3688c0 1.894-2.1031 3.2118-3.7911 3.2118-1.3564 0-2.1051-0.71529-2.1051-1.6598 0-1.7806 2.185-2.4973 5.8961-2.9209z"/>
   <path d="m50.657 47.852v5.352h4.3989v2.8593h-4.3989v7.2261c0 1.145 0.48522 1.8642 1.7972 1.8642 1.0418 0 1.6655-0.7963 1.6655-0.7963l2.1807 2.1807c-0.63626 0.60389-1.8455 1.7523-4.1174 1.7523-3.1323 0-5.0451-1.8169-5.0451-4.8955v-12.024z"/>
  </g>
 </g>
</svg>
