<svg width="6665.4pt" height="1688pt" version="1.1" viewBox="0 0 6665.4 1688" xmlns="http://www.w3.org/2000/svg">
 <path d="m1054.1 20.869h514.99l-1105.4 1005.9 895.5 0.04-139.02 661.18h-375.86l67.87-339.4h-802.7l-109.46-367.08" fill="#aa0050"/>
 <path d="m1535.8 182.03-157.55 751.11-0.37 2.1998-385.05 2e-4 62.478-313.32" fill="#aa0050"/>
 <path d="m6009.3 23.274c47.76-13.64 97.25-20.67 146.83-22.69 47.51-1.73 95.26 0.23 142.22 7.96 63.8 10.3 126.14 31.45 181.66 64.76 29.85 17.35 58.91 36.24 85.63 58.16 30.64 24.96 58.48 53.58 81.12 86.04 6.6 9.86 13.48 19.65 18.67 30.36l-268.52 188.54c-16.51-31.81-41.49-58.88-70.89-79.22-50.59-35.14-113.76-50.42-174.91-45.76-23.11 1.83-46.17 6.7-67.41 16.15-14.29 6.42-27.82 14.98-38.62 26.41-12.92 13.25-21.58 31.32-21.24 50.05-0.25 13.7 2.33 27.89 9.99 39.48 8.82 13.49 22.47 22.81 36.22 30.75 31.42 16.66 65.39 27.59 98.95 39.03 42.26 14.69 84.36 29.86 126.07 46.08 33.83 13.11 67.45 27.01 99.39 44.32 33.01 17.71 64.5 38.5 92.66 63.28 25.63 22.59 48.45 48.58 66.27 77.8 20.5 33.32 34.17 70.71 40.62 109.27 4.32 25.4 5.53 51.26 4.61 76.98-1.44 45.47-9.33 90.89-25.04 133.65-13.12 35.96-31.73 69.87-54.7 100.48-21.74 29.14-47.36 55.21-75.11 78.62-56.04 47.52-124.43 78.63-195.19 96.93-72.2 18.64-147.07 25.32-221.49 24.88-50.18 0.03-100.43-3.82-149.89-12.37-70.62-12.21-139.91-34.96-201.87-71.34-39.54-23.57-77.03-50.82-110.62-82.34-43.17-40.47-79.52-89.14-101.19-144.48l293.58-188.63c18.01 44.61 49.14 83.3 87 112.72 70.1 54.58 161.81 78.85 249.89 70.46 22.26-2.17 44.4-6.47 65.49-14.05 15.09-5.46 29.71-12.61 42.57-22.29 11.85-8.92 22.19-20.26 28.39-33.84 7.79-16.71 8.7-36.77 1.14-53.73-6.53-15.02-17.72-27.58-30.36-37.78-16.2-13.12-34.79-23.01-54.14-30.58-35.29-13.19-70.56-26.45-105.84-39.67-36.38-13.82-73.23-26.45-108.99-41.81-38.22-16.63-75.28-36.28-109.13-60.7-41.2-29.58-78-65.98-105.09-109.04-28.27-44.58-45.05-96.36-48.12-149.07-3.23-59.32 6.37-119.58 29.85-174.26 18.86-44.3 46.46-84.6 79.39-119.61 31.93-33.9 68.35-63.64 108.36-87.53 38.03-22.77 79.16-40.26 121.79-52.37z"/>
 <path d="m1686.4 20.844 323.86-0.0203 403.61 753.66 152.31-753.66h346.84l-270.39 1327.8h-295.35l-426.46-785.93-158.12 785.92-346.82 2e-4 270.52-1327.8"/>
 <path d="m3035.8 20.854h1196l75.99 767.68 371.24-767.68h287.81l36.3 738.11 372.94-738.11h371.7l-679.99 1327.8h-318.24l-43.81-686.79-346.39 686.79h-320.13l-103.57-1001.8h-604.51l-37.99 182.48h575.03l-59.05 297.56h-575.14l-41.75 201.54h632.25l-64.83 320.19h-994.41z"/>
 <g transform="translate(-166.87 -145.92)">
  <path d="m1649.8 166.78 86.17 0.0456-66.51 60.486c-1.44-7-2.79-13.886-3.99-20.926-1.41-9.15-3.43-18.43-2.22-27.72-7.33 2.48-14.62 5.29-21.2 9.41-5.56 3.88-11.54 7.08-17.27 10.68-0.97-2.8-2-5.58-3.13-8.31 0.54 0.05 1.64 0.16 2.19 0.21-0.22-2.39-0.83-4.86-0.22-7.22 0.94-1.19 2.16-2.13 3.3-3.14 3.31 0.78 6.62 1.58 9.91 2.5-0.5-3.66-0.32-7.38 1.18-10.8 4.04 0.78 8.07 1.66 12.07 2.65l-0.21-1.34c-0.06-2.16-0.01-4.3656-0.07-6.5256z"/>
  <path d="m1240.5 211.06c2.96-1.51 0.09 3.34 0 0z"/>
  <path d="m1211 225.3c0.98-0.36 1.98-0.71 2.99-1.07 0.31 1.17 0.61 2.34 0.95 3.51-1.33-0.82-2.64-1.64-3.94-2.44z"/>
  <path d="m1198 232.41c2.09-1.85 5.07-2.44 7.2-4.33 1.64 1.52 3.27 3.07 4.89 4.65-1.77 0.01-3.53 0.03-5.26 0.05-0.04 0.9-0.1 2.71-0.13 3.61-2.39-1.06-4.7-2.31-6.7-3.98z"/>
  <path d="m1183.7 238.52c2.74-0.73 5.34-1.9 7.62-3.61 1.95 1.63 3.82 3.36 5.56 5.24-1.88 0.05-3.71 0.09-5.56 0.12l-0.24 3.48c-2.52-1.66-4.97-3.43-7.38-5.23z"/>
  <path d="m1169.9 245.24c2.61-1.03 5.16-2.24 7.49-3.85 2.28 2.03 4.51 4.13 6.64 6.34-2.12 0.02-4.23 0.03-6.32 0.04 0.04 0.84 0.14 2.52 0.18 3.36-2.5-2.18-5.15-4.18-7.99-5.89z"/>
  <path d="m1155.9 251.7c2.8-0.86 5.5-2.04 7.97-3.64 2.44 2.32 4.93 4.63 7.3 7.04-2.23 0.09-4.45 0.15-6.66 0.21-0.02 0.68-0.05 2.04-0.06 2.72-2.81-2.17-5.63-4.32-8.55-6.33z"/>
  <path d="m1134.8 256.83c0.5-2.32 1.94-4.16 3.7-5.68 1.41 1.33 2.84 2.65 4.29 3.95 1.91-0.74 4.09-2.43 6.11-0.96 3.69 2.26 6.43 5.73 9.66 8.59-2.61 0.6-6.77-1.02-7.94 2.18-4.25-4.31-9.63-7.71-15.82-8.08z"/>
  <path d="m1121.7 263.5c0.59-1.8 1.57-3.49 3.25-4.49 1.67 1.02 3.14 2.35 4.66 3.6 0.95-0.68 2.06-1.17 3.25-1.31 0.33-0.4 0.97-1.2 1.29-1.6 4 3.3 7.83 6.81 11.38 10.61-2.75 0.42-6.34-0.9-8.32 1.66-4.41-4.01-9.34-7.89-15.51-8.47z"/>
  <path d="m1109 268.85 2.8-2.58 0.64 0.59c1.17 1.07 2.36 2.15 3.55 3.23 1.19-0.49 2.4-0.98 3.63-1.45 0.32-0.45 0.97-1.35 1.3-1.8 4.08 3.61 7.92 7.48 12.05 11.04-2.92 0-5.84 0.05-8.74 0.12-0.02 0.75-0.07 2.26-0.09 3.01-0.9 0.4-1.79 0.81-2.66 1.22-0.09 0.81-0.26 2.44-0.35 3.25-3.33 0.01-6.64 0.01-9.95-0.03-0.16 1.1-0.29 2.21-0.42 3.32-0.62 0.14-1.87 0.43-2.5 0.57-0.21 1.2-0.41 2.4-0.59 3.61-3.3 0.04-6.59 0.05-9.88 0.07-0.04 0.71-0.11 2.14-0.15 2.85-0.88 0.41-1.75 0.81-2.61 1.22-0.3 1.14-0.58 2.27-0.85 3.42-3.28-0.01-6.54-0.02-9.8-0.04-0.14 1.07-0.27 2.14-0.38 3.22-0.62 0.22-1.86 0.67-2.48 0.89-0.2 1.13-0.39 2.27-0.57 3.42h-9.88c-0.12 1.14-0.23 2.28-0.32 3.42-0.67 0.12-2.01 0.36-2.67 0.47-0.18 1.27-0.34 2.54-0.48 3.82-3.14 0.15-6.54-0.9-9.47 0.47-0.24 0.64-0.71 1.9-0.95 2.54-0.81 0.32-1.6 0.65-2.38 0.98-0.25 1.2-0.48 2.4-0.71 3.61-1.49-0.14-2.97-0.28-4.44-0.41l50.99-46.45c0.59 0.37 1.78 1.11 2.38 1.48 0.42-0.42 0.86-0.84 1.32-1.25 3.94 0.13 3.47-5.24 4.66-7.83z"/>
  <path d="m1108.5 386.34c1.39-0.55 3.5 1.16 3.14 2.64-1.35 0.51-3.65-1.17-3.14-2.64z"/>
  <path d="m1088.9 386.37c1.13 0.62 2.6 0.99 3.26 2.26 1.96 2.96 4.09 5.81 6.57 8.39-3.53-2.43-7.35-4.43-10.73-7.05 0.24-1.21 0.54-2.42 0.9-3.6z"/>
  <path d="m1101.4 399.01c0.86-2.1 1.74-4.19 2.63-6.28 1.39 0.74 2.79 1.48 4.2 2.24-2.2 1.48-4.46 2.86-6.83 4.04z"/>
  <path d="m1075.3 394.09c7.37 0.38 13.13 5.36 19.56 8.35-2.18 1.42-4.39 2.8-6.62 4.12-4.09-2.94-8.41-5.53-12.56-8.35-1.98-0.78-0.57-2.71-0.38-4.12z"/>
  <path d="m986.29 399.3c0.52 0.5 0.52 0.5 0 0z"/>
  <path d="m1062.1 401.71c7.26 0.24 13.01 5.16 19.25 8.26-2.07 1.4-4.07 2.96-6.39 3.9-4.76-2.88-9.31-6.11-14.02-9.06 0.37-1.04 0.76-2.07 1.16-3.1z"/>
  <path d="m1047.7 412.63c0.34-1.05 0.73-2.09 1.17-3.11 7.2-0.14 12.73 5.33 19.08 7.95-2.07 1.37-4.14 2.74-6.19 4.14-4.76-2.89-9.21-6.25-14.06-8.98z"/>
  <path d="m1035.3 417c6.98-0.24 12.51 4.68 18.44 7.63-0.19 2.41-3.94 3.02-5.67 4.52-4.54-3.12-9.18-6.1-13.73-9.22 0.31-0.98 0.63-1.96 0.96-2.93z"/>
  <path d="m1022 424.37c7.22 0.29 12.89 5.25 19.17 8.22-2.1 1.35-4.19 2.69-6.26 4.05-4.62-2.95-9.06-6.16-13.77-8.94 0.27-1.11 0.56-2.23 0.86-3.33z"/>
  <path d="m1008.8 431.76c7.1 0.67 12.82 5.28 19.02 8.35-2.15 1.42-4.31 2.82-6.51 4.15-3.93-3.02-8.23-5.47-12.33-8.23-2.01-0.81-0.37-2.82-0.18-4.27z"/>
  <path d="m995.08 439.41c7.32 0.16 13.03 5.19 19.4 8.12-2.04 1.55-4.17 2.97-6.38 4.24-4.57-3.12-9.19-6.2-13.91-9.09 0.28-1.09 0.58-2.19 0.89-3.27z"/>
  <path d="m981.98 446.83c7.2 0.43 12.93 5.26 19.17 8.33-2.04 1.39-4.01 2.92-6.29 3.9-4.87-2.7-9.3-6.15-14.08-9 0.39-1.08 0.79-2.16 1.2-3.23z"/>
  <path d="m967.41 457.31c0.25-1.82 1.45-3.56 3.48-2.68 6.23 1.17 11.39 5.24 16.94 8.09-2.21 1.38-4.43 2.74-6.67 4.05-4.41-3.42-9.53-5.84-13.75-9.46z"/>
  <path d="m955.22 462.09c7.15 0.28 12.88 5.16 18.95 8.37-2.1 1.28-4.19 2.57-6.28 3.87-4.62-3.05-9.23-6.1-13.8-9.19 0.28-0.77 0.85-2.29 1.13-3.05z"/>
  <path d="m941.91 469.58c7.22 0.13 12.72 5.36 19.02 8.19-2.05 1.35-4.1 2.69-6.13 4.06-4.77-2.82-9.22-6.14-13.96-8.99 0.34-1.09 0.7-2.18 1.07-3.26z"/>
  <path d="m928.33 477.1c7.2 0.19 12.84 5.19 19.11 8.09-2.01 1.51-4.09 2.92-6.25 4.21-4.55-3.22-9.22-6.26-13.92-9.24 0.26-0.77 0.8-2.29 1.06-3.06z"/>
  <path d="m913.73 487.75c0.75-1.26 1.11-3.72 3.19-2.96 6.36 1.01 11.61 5.18 17.25 8.01-2.08 1.37-4.16 2.74-6.22 4.12-4.74-3.06-9.36-6.3-14.22-9.17z"/>
  <path d="m901.58 492.23c7.32 0.03 13.19 5.05 19.42 8.24-2.27 1.19-4.31 3.24-6.86 3.66-4.64-2.79-9.09-5.89-13.6-8.87 0.26-0.76 0.78-2.28 1.04-3.03z"/>
  <path d="m887.03 502.88c0.81-1.05 0.97-3.69 2.85-3.13 6.29 0.78 11.38 5.1 16.98 7.77-0.83 2.35-3.97 2.97-5.79 4.45-4.63-3.11-9.24-6.25-14.04-9.09z"/>
  <path d="m875.02 507.05c7.18 0.54 12.98 5.21 19.16 8.4-2.12 1.33-4.24 2.67-6.34 4.02-4.66-2.91-9.09-6.16-13.87-8.86 0.33-1.2 0.69-2.38 1.05-3.56z"/>
  <path d="m861.21 514.97c2.78 0.01 5.65 0.28 8.08 1.8 3.61 2.13 7.61 3.68 10.93 6.28-1.8 1.6-3.91 2.78-5.97 4-4.49-3.12-9-6.2-13.67-9.03 0.16-0.76 0.47-2.29 0.63-3.05z"/>
  <path d="m1103.4 521.67c3.04-1.24 6.13-2.36 9.15-3.69-1.82 3.62-3.63 7.28-5.84 10.69-2.42 1.95-5.31 3.22-7.77 5.11-4.15 3.1-9.43 4.27-13.3 7.8-3.53 3.18-8.63 3.69-12.1 6.93-1.46 1.23-2.67 2.9-4.61 3.36-3.7 1.06-7.08 2.92-10.18 5.16-0.13 0.5-0.38 1.49-0.51 1.99-5.13 1.09-10.88 2.89-13.73 7.66-4.4 1.02-8.51 2.95-12.1 5.69-0.17 0.57-0.5 1.72-0.67 2.29-5.01 1.1-11 2.76-13.47 7.72-4.99 1.17-10.72 2.88-13.47 7.58-4.81 1.5-10.51 3-13.1 7.75-4.95 1.36-10.75 2.92-13.37 7.78-4.88 1.3-10.67 2.88-13.28 7.62-4.6 1.57-10.7 2.76-12.84 7.67-5.09 1.33-10.94 2.95-13.75 7.83-4.44 0.9-8.48 2.97-12.09 5.63-0.15 0.58-0.46 1.73-0.61 2.31-5.17 0.98-10.87 2.89-13.72 7.67-4.77 1.43-11.23 2.78-13.12 8.02-4.47 0.32-8.46-2.3-12.91-2.22-5.89-0.23-11.36 2.61-15.83 6.23 0.29 0.88 0.58 1.77 0.88 2.67-4.85 0.86-9.3 3.04-13.15 6.07 0.16 0.78 0.48 2.34 0.64 3.13-4.95 0.81-9.43 3.1-13.34 6.18 0.26 0.91 0.52 1.82 0.8 2.74-4.79 0.96-9.21 3.11-13.09 6.04 0.13 0.73 0.4 2.2 0.54 2.93-4.77 0.9-9.09 3.15-12.94 6.03 0.14 0.74 0.42 2.21 0.56 2.95-3.99 0.86-7.94 2.25-11.2 4.77-1.37 0.74-1.82 2.2-2.06 3.65-4.41-3.32-9.71-5.06-15.1-5.91 1.85-2.38 4.67-3.37 7.42-4.3 3.25-1.08 5.56-3.72 8.32-5.6 2.55-1.26 5.4-1.84 7.84-3.35 2.68-1.62 4.79-4.2 7.89-5.1 3.08-0.97 6.08-2.32 8.5-4.51 3.61-3.58 9.24-3.6 12.9-7.14 3.86-3.99 10.01-4.01 13.92-7.97 3.04-3.13 7.73-3.25 11.14-5.79 2.39-1.71 4.54-3.91 7.45-4.76 3.28-1.04 6.31-2.75 8.85-5.09 2.42-2.27 5.85-2.7 8.71-4.21 3.32-1.64 5.6-4.97 9.31-5.91 3.28-1 6.27-2.75 8.83-5.03 2.43-2.24 5.82-2.69 8.67-4.2 2.38-1.22 4.24-3.2 6.46-4.67 2.71-1.35 5.81-1.88 8.33-3.64 2.53-1.77 4.64-4.26 7.77-5.01 3.4-0.92 6.35-2.88 9.01-5.13 2.34-2.07 5.54-2.48 8.26-3.86 3.34-1.55 5.65-4.78 9.25-5.88 3.24-1.09 6.4-2.56 8.88-4.99 2.29-2.42 5.73-2.85 8.58-4.33 2.42-1.17 4.33-3.11 6.55-4.61 2.14-1.29 4.65-1.79 6.88-2.94 3.42-1.62 5.71-5.08 9.53-5.96 3.2-0.96 6.09-2.68 8.59-4.9 2.64-2.45 6.42-2.72 9.44-4.52 2.95-1.65 5.17-4.5 8.5-5.48 3.1-0.99 6.04-2.48 8.48-4.65 3.71-3.44 9.32-3.54 12.91-7.2 2.26-2.44 5.55-3.15 8.52-4.36 3.9-1.52 6.38-5.37 10.47-6.54 3.04-1 5.89-2.55 8.27-4.73 2.74-2.73 6.84-2.93 10.03-4.93 2.21-1.31 3.95-3.3 6.22-4.54z"/>
  <path d="m846.83 525.15c0.94-3.82 5.14-2.85 7.76-1.57 4.3 2.2 8.53 4.54 12.68 7.04-2.12 1.31-4.23 2.62-6.36 3.9-4.63-3.22-9.34-6.32-14.08-9.37z"/>
  <path d="m833.92 532.92c-0.39-3.82 3.77-3.16 6.16-2.24 4.83 2.02 9.23 4.91 13.91 7.26-2.25 1.15-4.3 3.6-6.81 3.75-4.55-2.7-8.92-5.76-13.26-8.77z"/>
  <path d="m820.01 540.25c0.49-0.71 1.46-2.11 1.95-2.81 6.97 0.27 12.49 5.19 18.52 8.13-2.12 1.37-4.24 2.75-6.37 4.13-4.56-3.36-9.47-6.21-14.1-9.45z"/>
  <path d="m808 544.88c5.99-0.1 10.77 3.82 15.92 6.28 1 0.66 2.41 1.03 2.95 2.23-1.91 1.36-3.94 2.53-5.93 3.75-4.61-2.92-9.03-6.15-13.81-8.79 0.28-1.16 0.56-2.32 0.87-3.47z"/>
  <path d="m794.13 555.85c1.24-1.16 2.49-2.32 3.74-3.47 5.67 2.23 10.89 5.37 16.25 8.24-2.25 1.36-4.5 2.71-6.77 4.04-4.27-3.14-8.77-5.95-13.22-8.81z"/>
  <path d="m783.78 565.22c1.48-1.32 2.95-2.65 4.43-3.97 4.13 2.31 8.3 4.55 12.44 6.84-2.15 1.37-4.3 2.72-6.45 4.07-3.46-2.34-6.94-4.66-10.42-6.94z"/>
  <path d="m773.27 574.82c1.54-1.39 3.07-2.79 4.61-4.18 3.03 1.67 6.09 3.31 9.18 4.9-2.1 1.44-4.2 2.87-6.29 4.31-2.51-1.67-5.02-3.35-7.5-5.03z"/>
  <path d="m762.86 584.34c1.63-1.5 3.27-3.01 4.89-4.53 2.16 1.24 4.33 2.48 6.49 3.72-2.13 1.38-4.25 2.76-6.37 4.15-1.67-1.12-3.35-2.23-5.01-3.34z"/>
  <path d="m752.35 593.93c1.73-1.6 3.47-3.19 5.21-4.78 1.42 0.76 2.86 1.53 4.3 2.31-2.28 1.46-4.56 2.92-6.82 4.4-0.67-0.48-2.02-1.44-2.69-1.93z"/>
  <path d="m741.6 604.08c1.85-2.14 3.93-4.05 6.03-5.93 0.35 0.43 1.05 1.28 1.39 1.71-2.46 1.43-4.93 2.83-7.42 4.22z"/>
  <path d="m894.24 715.01c1.32 1.2 2.66 2.4 4.01 3.6l1.56-0.52c0.91 2.99 1.9 5.97 2.96 8.92-3.53-0.04-7.05-0.01-10.57 0.1 0.05 3.06 0.17 6.11 0.32 9.17-4.27-0.28-8.55-0.34-12.82-0.28 0.06 2.73 0.17 5.45 0.32 8.19-2.71 0.46-5.65 1.43-8.24 0.04-3.35-1.7-7.09-2.04-10.76-1.49-0.49 3.37-1.01 6.74-1.49 10.12-3.53-1.16-7.22-1.65-10.9-1.22-0.59 3.43-1.16 6.88-1.68 10.33-3.48-1.4-7.24-2.04-10.94-1.24-0.49 3.37-1.01 6.74-1.49 10.12-3.45-1.02-7.14-2.32-10.71-1.07-0.87 3.32-1.09 6.78-1.62 10.18-3.81-1.65-7.96-1.81-12.03-2.03-0.08-2.26-0.15-4.52-0.19-6.77 0.98 0.36 1.97 0.73 2.97 1.12 0.84-2.27 1.64-4.55 2.4-6.83 1.76-0.52 3.5-1.12 5.17-1.91 0.36 0.11 1.07 0.33 1.43 0.44 0.3-0.38 0.91-1.13 1.22-1.51 0.81 0.15 1.63 0.31 2.46 0.47 0.8-2.28 1.59-4.57 2.35-6.86 2.45 0.44 4.98 0.63 7.34-0.41 0.87-0.74 1.75-1.45 2.66-2.14 0.86-2.11 1.63-4.24 2.34-6.39 0.55 0.07 1.65 0.22 2.2 0.29 1.8 1.93 4.16 1.34 6.4 0.63 1.34-3.53 2.71-7.16 5.32-9.98 1.39 1.22 2.77 2.45 4.16 3.69 0.55-0.55 1.11-1.1 1.68-1.63 0.49 0.19 1.47 0.58 1.96 0.77 1.46-3.71 2.17-7.97 5.55-10.53 1.83 1.13 3.97 5.07 6.03 2.16 0.39 0.15 1.16 0.44 1.55 0.59 1.47-3.69 2.15-7.99 5.7-10.37 1.28 1.08 2.58 2.17 3.89 3.26 1.34-0.45 2.69-0.88 4.06-1.29 0.89-2.41 1.73-4.84 2.54-7.28 0.95-0.82 1.91-1.63 2.89-2.44z"/>
  <path d="m738.55 731.86c1.01-0.7 2.04-1.36 3.08-2.02-0.04 0.66-0.11 1.98-0.15 2.65-0.99-0.22-1.97-0.43-2.93-0.63z"/>
  <path d="m809.62 778.08c0.61 0.72 1.22 1.47 1.81 2.25-0.95 2.56-1.37 5.27-1.71 7.98-3.61-0.65-7.28-1.25-10.93-0.58-0.13 0.82-0.38 2.47-0.51 3.3-1.69-4.18-0.64-9.23 3.36-11.66 2.42 0.66 4.87 1.3 7.32 1.94 0.16-0.81 0.49-2.42 0.66-3.23z"/>
  <path d="m789.04 789.71c2.6 0.59 5.2 1.19 7.82 1.79-0.06 1.43-0.11 2.86-0.15 4.31-3.58-0.17-7.19-0.17-10.7 0.6 0.92-2.28 1.93-4.51 3.03-6.7z"/>
  <path d="m778.23 800.22c1.89 0.47 3.79 0.94 5.7 1.45-1.19 3.2-5.12 1.46-7.68 1.86 0.64-1.11 1.3-2.22 1.98-3.31z"/>
  <path d="m863.36 844.36c1.08-0.56 2.66 0.05 3.26 1.1-0.2 1.84-3.8 0.42-3.26-1.1z"/>
  <path d="m848.66 851.94c2.47 0.42 4.99 1.04 7.09 2.52 0.11 1.11-0.42 1.56-1.56 1.33-2.1-0.88-3.82-2.42-5.53-3.85z"/>
  <path d="m836.03 861.05c3.54-2.07 6.79 1.89 9.91 3.22-1.12 0.42-2.23 0.86-3.33 1.31-2.19-1.53-4.41-3-6.58-4.53z"/>
  <path d="m824.31 870.53c-0.68-1.62 1.61-2.07 2.71-1.48 3.02 0.94 5.65 2.78 8.42 4.29-1.38 0.69-2.75 1.39-4.12 2.09-2.3-1.7-4.79-3.12-7.01-4.9z"/>
  <path d="m811.55 877.87c4.68-0.33 8.85 1.92 12.68 4.31-1.41 0.95-2.81 1.89-4.21 2.85-2.86-2.31-7.07-3.47-8.47-7.16z"/>
  <path d="m800.05 887.26c3.9-0.55 7.77 0.83 11.21 2.58-1.68 1.1-3.36 2.2-5.05 3.28-2.06-1.84-5.88-2.77-6.16-5.86z"/>
  <path d="m430.83 926.86c2.81-2.69 6.55-3.97 10.04-5.49 0.41 1.1 0.82 2.21 1.25 3.33-3.22 1.07-6.58 2-9.36 4-3.12 2.18-4.95 5.65-7.74 8.17-4.52 2.19-10.33 3.17-12.72 8.19-4.83 1.67-10.27 3.24-13.04 7.95-4.39 1.28-8.61 3.16-12.25 5.97 0.03 0.75 0.08 2.26 0.11 3.02-4.71 1.1-9.09 3.23-12.93 6.16 0.25 0.91 0.5 1.83 0.76 2.77-5.05 1.56-12.06 2.85-13.46 8.87-4.5 1.24-8.75 3.29-12.38 6.26 0.31 0.86 0.62 1.73 0.94 2.62-4.09 0.93-8.23 2.22-11.54 4.89-1.44 0.86-1.24 2.69-1.65 4.1-4.51 1.07-8.67 3.16-12.44 5.83 0.09 0.72 0.25 2.15 0.34 2.86-4.57 1-8.8 3.05-12.58 5.79-0.13 1.08-0.26 2.17-0.39 3.27-4.53 1.06-8.72 3.16-12.46 5.91 0.15 0.9 0.3 1.8 0.46 2.72-4.73 1.06-9.14 3.15-13.06 6 0.05 0.75 0.16 2.25 0.21 3-4.71 1.12-9.07 3.29-12.97 6.14 0.27 0.9 0.54 1.82 0.81 2.75-4.8 1.03-9.22 3.22-13.17 6.1 0.09 0.68 0.29 2.03 0.38 2.71-4.81 1.06-9.27 3.24-13.12 6.31 0.35 0.87 0.7 1.75 1.05 2.64-4.92 0.89-9.43 3.15-13.4 6.15 0.15 0.71 0.43 2.15 0.57 2.86-2.75 0.74-5.8164 1.51-8.4964 2.52l45.824-41.79 10.363-9.19c3.01-2.18 5.79-4.78 9.26-6.25 2.89-1.22 5.58-2.89 7.85-5.06 3.34-3.3 8.29-4.06 11.7-7.28 2.32-2.24 5.17-3.74 8.12-4.97 4.08-1.66 6.63-5.61 10.69-7.28 2.93-1.24 5.69-2.86 8.03-5.03 3.4-3.21 8.38-3.89 11.73-7.16 2.14-2.02 4.51-3.78 7.29-4.78 4.92-1.74 7.95-6.47 12.92-8.12 5.13-1.79 8.21-6.79 13.36-8.54 4.69-1.69 7.52-6.24 12.17-7.99 5.13-1.8 8.37-6.64 13.53-8.37 4.69-1.66 7.51-6.23 12.14-7.98 2.65-1.13 5.13-2.63 7.26-4.58z"/>
  <path d="m220.18 1078.9 3.7749-3.44c0.2 0.49 0.668 1.45 0.878 1.94-1.54 0.46-3.1529 0.93-4.6529 1.5z"/>
  <path d="m698.63 1172.9c3.4125-0.23 6.9191-0.22 9.91-0.1-0.45 0.48-1.35 1.45-1.8 1.94-2.77-0.32-5.41-1.25-8.11-1.84z"/>
  <path d="m1311 1172.9c0.35-0.02 1.05-0.06 1.4-0.09 1.44 1.25 2.85 2.58 4.28 3.89-3.12 0.18-6.18 0.81-8.9 2.36-0.72-0.61-1.42-1.2-2.1-1.78 1.77-1.46 3.52-2.95 5.32-4.38z"/>
  <path d="m1397.6 1173.2c3.9041-0.3498 7.6-0.62 11.4-0.34l-0.17 0.62c-1.84 1.37-3.78 2.61-5.69 3.87-1.86-1.37-3.72-2.75-5.54-4.15z"/>
  <path d="m691.18 1180.2c1.66-1.4 3.28-2.85 4.9-4.3-0.36 2.7-0.75 5.41-1.14 8.12-2.4-0.77-4.81-1.46-7.24-2.08 0.23-2.01 1.89-1.9 3.48-1.74z"/>
  <path d="m1380.1 1177.1c4.27-0.04 8.32 2.39 12.61 1.35 1.9 0.94 3.77 1.98 5.6 3.09-2.49 1.52-4.97 3.07-7.42 4.67-3.56-2.53-7.4-4.67-10.78-7.42-0.01-0.42-0.01-1.26-0.01-1.69z"/>
  <path d="m1292.8 1185.8c2.41-1.15 4.53-2.81 6.36-4.76 1.65 1.51 3.29 3.06 4.92 4.62-3.11-0.07-6.32 0.16-8.75 2.31-0.87-0.74-1.7-1.46-2.53-2.17z"/>
  <path d="m675.93 1190.6c2.6-0.26 5.1-1.02 7.11-2.75-0.3 1.61-0.58 3.25-0.84 4.9-2.12-0.67-4.21-1.39-6.27-2.15z"/>
  <path d="m1283.2 1192.9c1.19-0.97 2.12-2.47 3.67-2.88 1.8 1.36 3.37 3.02 5.04 4.58-2.73-0.24-5.45 0.01-7.99 1-0.18-0.67-0.54-2.02-0.72-2.7z"/>
  <path d="m666.56 1200.5c0.84-0.78 2.23-1.46 3.37-0.89 1.53 2.19-3.12 2.71-3.37 0.89z"/>
  <path d="m1271.1 1201.2c0.78-0.72 1.6-1.41 2.42-2.1 0.77 1.36 1.57 2.73 2.38 4.1-1.36 0.23-2.71 0.48-4.05 0.74-0.26-0.92-0.51-1.84-0.75-2.74z"/>
  <path d="m1330.1 1212.1c3.36-0.43 0.01 4.21-0.84 1.12 0.21-0.28 0.63-0.84 0.84-1.12z"/>
  <path d="m1317.1 1221.2c1.43-1.21 3.38 1.31 2.26 2.58-1.46 1.02-3.63-1.28-2.26-2.58z"/>
  <path d="m1304.5 1230.2c1.32-2.49 2.5 2.08 2.95 3.04-1.12-0.88-4.42-0.97-2.95-3.04z"/>
  <path d="m1292.2 1238.3c0.51 0.03 1.53 0.1 2.04 0.14 0.39 1.49 0.81 2.99 1.25 4.5-1.45-0.94-2.91-1.88-4.34-2.79 0.26-0.46 0.79-1.39 1.05-1.85z"/>
  <path d="m1278.8 1247.4c1.24-0.1 2.5-0.18 3.78-0.23 0.02 1.46 0.07 2.93 0.13 4.42-1.67-1.06-3.61-2.03-3.91-4.19z"/>
  <path d="m482.04 1259.1c5.46-2.62 8.05-8.76 13.77-11 2.14 6.16 4.28 12.33 6.24 18.56-3.25 1.5-6.36 3.27-9.28 5.32 0.37 1.29 0.76 2.61 1.15 3.94-4.72 1.09-9.09 3.28-12.94 6.2 0.47 1.31 0.93 2.62 1.41 3.96-4.84 1.15-9.39 3.29-13.22 6.5 0.4 0.88 1.19 2.64 1.59 3.51-4.69 1.11-9.02 3.27-12.93 6.06 0.36 1.32 0.72 2.67 1.09 4.03-4.57 1.08-8.8 3.16-12.61 5.88 0.19 1.28 0.42 2.57 0.53 3.91-4.04 1.83-8.62 2.92-11.8 6.23 0.11 1.32 0.28 2.66 0.51 4.02-4.58 1.02-8.77 3.19-12.54 5.96 0.31 1.33 0.64 2.67 0.96 4.04-4.73 1.05-9.12 3.19-12.85 6.28 0.37 0.9 1.1 2.68 1.47 3.57-4.72 1.09-9.07 3.28-13 6.09 0.42 1.33 0.84 2.68 1.27 4.04-4.71 0.99-9.03 3.17-12.87 6.02 0.33 1.31 0.68 2.64 1.03 3.98-4.66 1.11-9 3.24-12.66 6.35 0.47 1.15 0.97 2.39 1.45 3.59-4.73 0.97-9.06 3.18-12.91 6.05 0.34 1.31 0.69 2.65 1.04 4-4.7 1-8.97 3.23-12.83 6.04 0.43 1.26 0.85 2.52 1.28 3.81-4.78 1.21-9.29 3.33-13.06 6.54 0.52 1.2 1.06 2.48 1.59 3.72-4.71 1.05-9.05 3.22-12.97 6 0.34 1.35 0.69 2.72 1.04 4.1-4.67 1.04-8.94 3.27-12.86 5.96 0.42 1.3 0.85 2.58 1.28 3.92-4.67 1.22-9.1 3.25-12.79 6.41 0.45 1.19 0.91 2.45 1.36 3.68-4.71 0.96-9 3.17-12.87 5.97 0.33 1.32 0.67 2.67 1.01 4.03-4.75 1.08-9.15 3.24-12.92 6.32 0.39 0.89 1.15 2.68 1.54 3.57-4.81 1.13-9.35 3.22-13.12 6.43 0.47 1.23 0.95 2.5 1.43 3.77-1.6 0.39-3.1092 0.81-4.7092 1.24l-7.2098-24.16c2.64-2.89 5.019-6.0995 8.529-7.9795 2.73-1.53 5.01-3.7 7.03-6.06 2.78-3.31 7.32-4.43 10.05-7.79 1.99-2.4 4.2-4.63 7.03-6.01 4.81-2.37 7.09-7.77 11.99-10.01 4.39-2.16 6.55-6.94 10.81-9.25 2.69-1.55 5.06-3.57 7.04-5.94 2.85-3.59 7.64-4.78 10.53-8.34 2-2.45 4.37-4.54 7.19-5.98 4.53-2.3 6.71-7.38 11.32-9.56 4.75-2.46 7.18-7.74 12.1-9.96 4.56-2.29 6.8-7.36 11.45-9.52 4.66-2.18 6.9-7.26 11.42-9.6 5.02-2.51 7.57-8.01 12.71-10.33 4.32-2.19 6.44-7 10.78-9.14 2.75-1.49 5.13-3.56 7.12-5.96 3.03-3.71 8.04-5.04 10.93-8.92 2.96-4.21 8.36-5.48 11.54-9.46 1.97-2.48 4.5-4.37 7.25-5.91 4.19-2.38 6.41-7.06 10.77-9.2 4.8-2.36 7.14-7.67 12.01-9.9 4.62-2.19 6.8-7.29 11.31-9.62z"/>
  <path d="m711.18 1274.7c1.2-0.53 2.67 0.57 3.24 1.63-0.54 1.93-4.33 0.05-3.24-1.63z"/>
  <path d="m699.95 1284.4c3.34-0.29-1.19 3.11 0 0z"/>
  <path d="m1474.7 1289.2c0.6-1.18 1.27-2.3 1.92-3.45 1.3 1.85 2.46 3.86 2.54 6.21-2.7-0.29-5.38-0.58-8.06-0.87 1.16-0.7 2.35-1.33 3.6-1.89z"/>
  <path d="m1486.3 1292.5c0.85-1.23 3.36 0.02 2.31 1.41-0.91 1.15-3.47-0.02-2.31-1.41z"/>
  <path d="m1460.1 1301c3.63-0.82 4.41-4.6 5.56-7.56 0.7 0.32 2.09 0.95 2.78 1.27-0.44 2.54-0.84 5.1-1.24 7.67-2.36-0.52-4.74-0.97-7.1-1.38z"/>
  <path d="m1473.8 1304.8c0.66-1.03 1.36-2.03 2.06-3.01 0.92 0.94 1.85 1.9 2.81 2.87-1.64 0.03-3.27 0.07-4.87 0.14z"/>
  <path d="m1453.9 1303.9c0.72 0.14 2.15 0.41 2.87 0.55-0.26 2.69-0.6 5.36-0.92 8.06-2.5-0.42-5.02-0.74-7.33-1.77 0.81-0.28 2.44-0.85 3.26-1.14 0.71-1.9 1.41-3.8 2.12-5.7z"/>
  <path d="m1464.1 1311.8c1.02 1.19 2.05 2.4 3.07 3.64-1.51 0.06-3 0.15-4.48 0.24 0.44-1.31 0.91-2.61 1.41-3.88z"/>
  <path d="m1436.9 1321.5c3.38-1.07 4.59-4.24 5.83-7.23 0.7 0.09 2.08 0.25 2.78 0.34-0.39 2.71-0.77 5.44-1.14 8.18-2.48-0.52-4.98-0.95-7.47-1.29z"/>
  <path d="m1452.5 1322.3c1.89 0.67 2.81 2.8 4.2 4.18-1.79-0.09-3.55-0.13-5.3-0.17-0.08-1.44-0.05-2.98 1.1-4.01z"/>
  <path d="m1428.8 1329.9c1-2.5 1.87-5.74 5.29-5.21-0.39 2.74-0.83 5.48-1.25 8.24-2.46-0.53-4.95-0.96-7.42-1.35 1.11-0.58 2.23-1.14 3.38-1.68z"/>
  <path d="m537.2 1330.1c1.24 0.69 1.19 1.37-0.16 2.05-1.24-0.72-1.19-1.41 0.16-2.05z"/>
  <path d="m1439.7 1334.8c0.38-0.64 1.13-1.94 1.51-2.58 2.1 1.96 4.2 4.18 4.07 7.31-1.44-0.13-2.86-0.24-4.27-0.35-0.44-1.47-0.88-2.94-1.31-4.38z"/>
  <path d="m1417.4 1340.2c0.84-1.93 1.63-3.88 2.47-5.8 3.83 0.11 2.4 4.14 1.77 6.53-1.95 2.17-5.09 1.15-7.56 0.9 1.09-0.56 2.2-1.11 3.32-1.63z"/>
  <path d="m502.45 1340.2c1.41 0.1 2.83 0.2 4.25 0.3-0.49 2.64-0.94 5.31-1.46 7.96-1.64-0.81-3.27-1.61-4.9-2.4 0.73-1.95 1.43-3.91 2.11-5.86z"/>
  <path d="m1431.5 1344c1.62 1.63 2.22 3.78 2.23 6.06-2.77-0.61-1.75-4.04-2.23-6.06z"/>
  <path d="m1408.1 1344.4c0.91 0.64 3.09 0.56 2.69 2.21-1.31 0.94-2.73 1.7-4.1 2.52 0.44-1.6 0.91-3.18 1.41-4.73z"/>
  <path d="m1471.6 1349.2c3.95 0.74 8.06 1.77 10.81 4.96-1.76-0.07-3.5-0.14-5.22-0.2-1.92-1.54-3.82-3.08-5.59-4.76z"/>
  <path d="m490.83 1350.1c1.38 0.09 2.78 0.2 4.18 0.31-0.43 2.47-0.82 4.94-1.19 7.44-1.58-0.81-3.16-1.61-4.73-2.38 0.57-1.8 1.15-3.59 1.74-5.37z"/>
  <path d="m1403.3 1351.2c0.42 0.55 0.42 0.55 0 0z"/>
  <path d="m1465.2 1353.2c1.16-0.83 3.18 0.94 2.24 2.17-1.19 0.8-3.06-1-2.24-2.17z"/>
  <path d="m1395.5 1357.7c-0.59-1.5 1.49-3.77 2.98-2.69 0.8 1.51-1.62 3.32-2.98 2.69z"/>
  <path d="m1459.6 1359.8c4.1-0.5 8.33 1.44 11.08 4.47-4.35 0.63-8.21-1.37-11.08-4.47z"/>
  <path d="m479.23 1360.2c1.35 0.07 2.71 0.15 4.07 0.22-0.45 3.02-0.91 6.06-1.35 9.11-2.97-0.73-6.01-1.08-9.06-1 0.72-0.85 1.44-1.7 2.17-2.52 0.45 0.17 1.36 0.52 1.82 0.7 0.8-2.18 1.59-4.34 2.35-6.51z"/>
  <path d="m1385.2 1364.9c1.54-0.87 1.93 1.67 0.55 2.07-1.57 0.84-1.95-1.7-0.55-2.07z"/>
  <path d="m467.51 1370.2c1.43 0.01 2.86 0.04 4.31 0.08-0.59 2.99-1.1 6-1.6 9.02-3.07-0.61-6.19-0.85-9.31-0.82 1.28-1.12 2.63-2.26 4.41-2.37 0.81-1.95 1.52-3.93 2.19-5.91z"/>
  <path d="m1441.8 1373.8c2.95-0.78 5.75-2.05 8.11-4.01 3.23 0.86 6.89 1.41 8.86 4.49-4.8-0.04-9.61 0.04-14.31 1.07-1.23 0.43-1.87-0.94-2.66-1.55z"/>
  <path d="m943.67 1374.3c0.4 1.13 0.78 2.26 1.18 3.44-1.9 0.41-3.82 0.33-5.25-1.11 1.33-0.82 2.71-1.57 4.07-2.33z"/>
  <path d="m1373.3 1375.3c0.39 0.58 0.39 0.58 0 0z"/>
  <path d="m1446.2 1378.3c0.53 0.45 0.53 0.45 0 0z"/>
  <path d="m455.93 1380.1c1.38 0.05 2.76 0.11 4.15 0.17-0.43 2.5-0.85 5.01-1.26 7.53-0.47 0.25-1.42 0.74-1.89 0.98-2.59-0.2-5.18-0.3-7.77-0.31 0.75-0.73 1.51-1.44 2.27-2.13 0.59-0.02 1.77-0.06 2.35-0.08 0.71-2.07 1.42-4.12 2.15-6.16z"/>
  <path d="m1437.4 1379.8c2.36 0.61 4.73 1.21 7.13 1.76 0.43 0.76 0.88 1.54 1.34 2.34-2.68 0.44-5.38 0.66-8.07 0.72-0.15-1.62-0.29-3.23-0.4-4.82z"/>
  <path d="m926.82 1384.6c1.23-0.43 2.41-1.29 3.77-1.31 1.16 0.99 2.21 2.14 3.28 3.28-1.34 0.64-2.67 1.3-3.98 1.98-1.05-1.32-2.08-2.62-3.07-3.95z"/>
  <path d="m444.38 1390.2c1.39 0.02 2.8 0.06 4.21 0.11-0.4 2.1-0.69 4.23-1.3 6.31-2.68 2.64-6.77 1.79-10.16 2.14 1.05-0.89 2.11-1.77 3.16-2.63 0.44 0.12 1.3 0.36 1.73 0.48 0.84-2.12 1.63-4.26 2.36-6.41z"/>
  <path d="m914.88 1393.2c1.05-0.33 2.14-0.6 3.24-0.8 1.6 0.93 2.63 2.61 3.88 3.97-1.38 0.57-2.73 1.16-4.07 1.76-1.07-1.63-2.09-3.27-3.05-4.93z"/>
  <path d="m432.73 1400.4c1.4-0.18 2.82-0.19 4.23-0.24-0.34 1.85-0.66 3.73-0.99 5.61-3.15 1.54-6.4 2.95-9.95 3.16 0.75-0.87 1.51-1.71 2.27-2.54 0.61-0.07 1.82-0.22 2.43-0.3 0.62-1.92 1.19-3.86 2.01-5.69z"/>
  <path d="m906.01 1407.6c-1.28-1.72-2.58-4.64-0.02-5.92 1.56 1.22 2.72 2.86 3.88 4.47-1.3 0.47-2.55 1.03-3.86 1.45z"/>
  <path d="m421.15 1410.1c1.33 0.08 2.67 0.17 4.01 0.27-0.19 1.37-0.37 2.76-0.55 4.17-3.55 1.42-6.75 3.74-10.58 4.42 1.34-1.44 2.92-2.66 4.94-2.89 0.78-1.98 1.5-3.98 2.18-5.97z"/>
  <path d="m895.17 1412.1c0.91 1.11 1.81 2.22 2.73 3.37-1.29 0.62-2.55 1.28-3.81 1.93-0.83-1.97-0.44-3.83 1.08-5.3z"/>
  <path d="m409.44 1420.2c1.44 0.08 2.89 0.18 4.34 0.29-0.3 1.13-0.6 2.28-0.89 3.45-1.87 0.69-3.73 1.4-5.59 2.14 0.73-1.96 1.44-3.92 2.14-5.88z"/>
  <path d="m884.08 1423.3c1.88-0.58 2.41 2.5 0.58 2.88-2.11 0.82-2.57-2.57-0.58-2.88z"/>
  <path d="m397.64 1430.4c1.57 0.02 3.15 0.04 4.73 0.06-0.6 3.01-3.68 3.38-6.1 4.25 0.46-1.45 0.91-2.89 1.37-4.31z"/>
  <path d="m386.16 1440c0.52 0.19 1.56 0.56 2.07 0.75 0.59-0.12 1.77-0.35 2.36-0.46-0.74 2.4-3.47 2.28-5.46 2.83 0.34-1.06 0.68-2.1 1.03-3.12z"/>
  <path d="m363.09 1460.1c3.01-1.46 0.03 3.33 0 0z"/>
  <path d="m1108.4 1467.2c0.89-1.42 3.82-0.16 2.42 1.4-0.94 1.38-3.78 0.13-2.42-1.4z"/>
  <path d="m813.22 1477.3c0.49 0.51 0.49 0.51 0 0z"/>
  <path d="m1096.4 1477.1c2.95-1.6 0.17 3.32 0 0z"/>
  <path d="m795.07 1490.9c2.5-1.69 5.85-5.31 8.92-3.09-0.68 0.3-2.05 0.89-2.73 1.18-0.26 1.59-0.48 3.22-0.79 4.84-2.52 0.98-4.07-1.24-5.4-2.93z"/>
  <path d="m1224.7 1622c1.49 0.39 3.05 0.88 4.55 1.4-1.02 0.38-2.03 0.75-3.03 1.1-0.59-0.81-1.1-1.65-1.52-2.5z"/>
  <path d="m1097.5 1622.6c0.72 1.87 1.37 3.75 2.03 5.68-2.15-0.33-4.28-0.62-6.42-0.88 0.9-0.6 1.78-1.19 2.71-1.73 0.55-1.04 1.1-2.07 1.68-3.07z"/>
  <path d="m1086.9 1629.9c0.99 0.37 1.98 0.76 2.99 1.17-0.39 2.59-0.79 5.18-1.17 7.8-2.34-0.55-4.69-1.05-7.04-1.47 0.99-0.62 1.96-1.26 2.97-1.83 0.74-1.9 1.49-3.79 2.25-5.67z"/>
  <path d="m1222.4 1630.1c2.98-1.49 0.04 3.33 0 0z"/>
  <path d="m1213 1632.5c1.48 0.2 2.95 0.45 4.45 0.77-1.56 1.83-3.7 1.5-4.45-0.77z"/>
  <path d="m1143.1 1638.7c1.54-0.46 3.11-0.88 4.69-1.3l0.08 2.72c-1.87 0.71-3.44-0.16-4.77-1.42z"/>
  <path d="m1097.2 1638c1.21 1.4 2.41 2.83 3.61 4.28v2.97c-1.44-0.1-2.87-0.17-4.28-0.22-0.28-2.41-1.24-5.07 0.67-7.03z"/>
  <path d="m1075.3 1640c1.02 0.32 2.05 0.65 3.1 0.99-0.38 2.67-0.76 5.35-1.2 8.02-2.31-0.59-4.61-1.21-6.87-1.88 0.67-0.21 2-0.64 2.66-0.85 0.78-2.1 1.55-4.19 2.31-6.28z"/>
  <path d="m1202.3 1643.1c0.9-0.8 3.04-0.72 3.34 0.68-0.41 1.75-4.31 1.24-3.34-0.68z"/>
  <path d="m1131.7 1649c3.02-0.85 5.95-2.06 8.4-4.05 1.89 0.5 3.79 0.98 5.72 1.47 0.85 1.04 1.71 2.08 2.58 3.16-4.53-0.35-9.05-0.04-13.5 0.8-1.35 0.48-2.25-0.71-3.2-1.38z"/>
  <path d="m1085.7 1648.4c2.32 1.58 3.64 4.2 3.85 6.99-1.5-0.12-2.98-0.22-4.45-0.31-0.3-2.25-1.8-5.09 0.6-6.68z"/>
  <path d="m1064.1 1650.1c0.95 0.34 1.91 0.69 2.89 1.06-0.47 2.61-0.93 5.21-1.38 7.84-2.3-0.53-4.6-1.07-6.87-1.64 0.7-0.25 2.11-0.76 2.82-1.01 0.84-2.1 1.69-4.17 2.54-6.25z"/>
  <path d="m1190.5 1653.2c0.93-1.01 3.19-0.7 3.44 0.82-0.23 2.12-4.38 1.13-3.44-0.82z"/>
  <path d="m1128.5 1655.2c3.62 0.65 7.14 1.9 9.68 4.71-4.9-0.22-9.82-0.25-14.63 0.78-1.36 0.49-2.32-0.7-3.32-1.33 2.97-0.92 5.95-2 8.27-4.16z"/>
  <path d="m1340.2 1658.3c0.53 0.51 0.53 0.51 0 0z"/>
  <path d="m1073.7 1665.4c-0.25-2.09-2.25-5.99 0.97-6.46 2.1 1.69 3.28 4.15 3.46 6.85-1.5-0.16-2.96-0.27-4.43-0.39z"/>
  <path d="m1188 1660.5c1.38-0.43 1.87 0.06 1.46 1.47-1.42 0.39-1.91-0.09-1.46-1.47z"/>
  <path d="m1049.9 1667.1c0.96-2.48 1.91-4.96 2.91-7.4 4.17 1.86 1.56 6.38 1.29 9.7-0.48-0.16-1.44-0.48-1.93-0.63-0.42-0.21-1.26-0.62-1.68-0.83-2.12 0.16-4.24 0.22-6.35 0.36 0.25-0.94 0.73-2.82 0.98-3.76 1.58 0.83 3.18 1.69 4.78 2.56z"/>
  <path d="m1178.5 1663.1c1.55 0.09 3.1 0.23 4.67 0.42-1.27 1.93-3.69 1.58-4.67-0.42z"/>
  <path d="m1117.2 1665.2c3.33 1.09 6.88 2.06 9.33 4.78-5.27-0.06-10.62-0.32-15.74 1.15-0.73-0.62-1.44-1.21-2.14-1.79 3.15-0.67 6.12-2 8.55-4.14z"/>
  <path d="m1327.7 1669.2c0.95-0.78 2-1.44 3.04-2.11-0.11 1.19-0.22 2.39-0.32 3.61-1.03-0.33-2.26-0.34-2.72-1.5z"/>
  <path d="m1062.6 1675.6c-0.98-2.38-2.08-5.12 0.26-7.08 1.81 2.1 3.97 4.25 3.82 7.28-1.37-0.09-2.73-0.15-4.08-0.2z"/>
  <path d="m1177.2 1671.2c0.55 0.5 0.55 0.5 0 0z"/>
  <path d="m1166.9 1673.4c1.43 0.28 3.91-0.69 4.23 1.46-1.72 1.22-3.07-0.48-4.23-1.46z"/>
  <path d="m1097.6 1679.6c2.94-0.83 5.68-2.2 8.11-4.03 3.38 0.97 7.08 1.76 9.34 4.77-5.36-0.61-10.68 0.01-15.97 0.74l-1.48-1.48z"/>
  <path d="m1317.4 1678.1c1.07 0.4 2.14 0.81 3.24 1.27-0.29 0.72-0.56 1.47-0.82 2.24-1.56-0.07-3.1-0.1-4.62-0.11 0.72-1.16 1.45-2.29 2.2-3.4z"/>
  <path d="m1051.1 1678.7c2.02 2.04 4.19 4.26 4.16 7.38-1.48-0.11-2.93-0.21-4.38-0.28-0.66-2.41-1.62-4.99 0.22-7.1z"/>
  <path d="m1165.2 1681.1c2.98-1.52 0.08 3.33 0 0z"/>
  <path d="m1155.9 1683.3c1.52 0.29 3.03 0.64 4.56 1.07-1.69 1.63-3.99 1.45-4.56-1.07z"/>
  <path d="m1102.3 1684.2c0.5 0.5 0.5 0.5 0 0z"/>
  <path d="m1038.8 1695.9c0.89-3.5 0.99-7.15 1.9-10.62 0.13 1.82 0.3 3.66 0.54 5.51 1.93 1.7 2.41 4.14 2.55 6.63-1.69-0.53-3.34-1-4.99-1.52z"/>
  <path d="m1085.8 1690c2.96-0.94 5.84-2.16 8.34-4.05 1.95 0.48 3.91 0.9 5.91 1.3 1.12 1.1 2.19 2.16 3.33 3.33-5.19-0.62-10.35-0.01-15.45 0.83-0.54-0.35-1.6-1.06-2.13-1.41z"/>
  <path d="m1305.5 1689c1.5 0.43 3 0.87 4.53 1.35-0.04 4.2-5.44 5.86-8.75 4.27 1.41-1.88 2.84-3.74 4.22-5.62z"/>
  <path d="m1154.2 1691.3c0.56 0.45 0.56 0.45 0 0z"/>
  <path d="m1144.5 1694c0.94-0.85 3.07-0.59 3.34 0.83-0.39 1.81-4.17 0.94-3.34-0.83z"/>
  <path d="m1082.5 1696.1c2.06 0.44 4.11 0.88 6.19 1.33 1.19 1.07 2.39 2.16 3.59 3.27-4.96-0.44-9.97-0.4-14.84 0.74-1.24 0.47-2.06-0.77-2.87-1.38 2.84-0.87 5.65-1.99 7.93-3.96z"/>
  <path d="m1289.3 1705.3c1.47-1.85 2.86-3.79 4.64-5.35 1.89 0.45 3.7 1.2 5.54 1.91-0.15 0.71-0.46 2.14-0.61 2.85-3.04 1.7-6.4 2.36-9.57 0.59z"/>
  <path d="m1142.1 1701c1.63-0.4 2.16 0.2 1.6 1.8-1.67 0.36-2.2-0.24-1.6-1.8z"/>
  <path d="m1133.3 1704.2c0.92-0.93 3.19-0.82 3.51 0.68-0.29 2.04-4.53 1.39-3.51-0.68z"/>
  <path d="m1071.3 1706.1c3.42 0.98 7.15 1.8 9.52 4.71-4.84-0.27-9.71-0.33-14.46 0.73-1.36 0.44-2.45-0.54-3.55-1.1 3.03-1.01 6.04-2.24 8.49-4.34z"/>
  <path d="m1277.1 1716c1.67-1.78 3.3-3.61 4.87-5.49 2.42 0.89 4.84 1.8 7.28 2.72-0.27 2.88-3.03 3.95-5.46 4.55-2.34-0.06-4.49-1.15-6.69-1.78z"/>
  <path d="m1049.1 1718c2.17-1.55 4.15-3.36 5.83-5.44 3.81 3.54 8.88 6.43 14.23 4.67-0.36-0.66-1.06-1.98-1.41-2.64 3.52 0.77 7.01 1.74 10.49 2.74-2.25 1.37-4.46 2.8-6.58 4.36-6.14-1.32-12.44-1.02-18.52 0.42-1.35-1.39-2.7-2.76-4.04-4.11z"/>
  <path d="m1121 1714.1c1.67 0.14 3.34 0.31 5.04 0.51-0.96 0.7-1.97 1.35-2.9 2.1-0.73-0.88-1.44-1.75-2.14-2.61z"/>
  <path d="m1270.2 1721.3c2.86 0.99 5.7 2.1 8.49 3.32-0.47 2.11-0.88 4.26-1.28 6.41-4.13-1.46-8.23-3.03-12.48-4.08 1.8-1.84 3.55-3.73 5.27-5.65z"/>
  <path d="m1119.3 1722c3.03-1.42 0 3.32 0 0z"/>
  <path d="m1043.4 1722.8c3.92 3.3 8.93 6.54 14.26 4.56-0.4-0.65-1.21-1.96-1.61-2.61 3.65 0.75 7.24 1.8 10.83 2.87-2.26 1.24-4.42 2.63-6.42 4.25-6.17-1.11-12.53-1.23-18.58 0.53-1.34-1.35-2.71-2.67-3.81-4.19 1.81-1.78 3.71-3.47 5.33-5.41z"/>
  <path d="m1109.8 1724.1c1.31 0.53 4.02-0.37 4.2 1.74-1.82 1.06-3.78 0.39-4.2-1.74z"/>
  <path d="m1108.3 1732.3c0.51 0.53 0.51 0.53 0 0z"/>
  <path d="m1258.4 1732c6.63 2.26 13.13 4.92 19.34 8.19 2.28 0.91 2.4 3.8 4.13 5.32 1-0.05 2.02-0.11 3.05-0.17-2.43 0.9-4.64 2.27-6.98 3.36-7.99-4.78-16.28-9.63-25.69-10.88 2.19-1.79 4.24-3.74 6.15-5.82z"/>
  <path d="m1031.5 1732.6c3.91 3.49 8.68 6.14 14.12 5.61-0.12-0.85-0.34-2.54-0.45-3.39 3.36 0.92 6.7 1.92 10.02 3.01-2.16 1.32-4.3 2.68-6.42 4.09-5.52-0.8-11.18-1.12-16.66 0.17-0.73 0.07-2.2 0.21-2.94 0.27 0.9-3.23 1.56-6.51 2.33-9.76z"/>
  <path d="m1099.1 1734.6c1.07-0.66 2.7-0.31 3.48 0.7 0.15 2.32-4.99 1.48-3.48-0.7z"/>
  <path d="m1239 1748.8c2.75-1.49 5.2-3.46 7.14-5.92 10.45 3.05 20.37 7.78 29.69 13.37-2.83 1.11-5.53 2.51-8.06 4.18-8.72-5.69-18.23-10.7-28.77-11.63z"/>
  <path d="m1087.3 1745.1c1.15-0.85 2.89-0.53 4.04 0.22 0.2 1.96-4.74 2.07-4.04-0.22z"/>
  <path d="m1033.7 1747.9c0.21-0.65 0.64-1.96 0.86-2.62 3.69 1.05 7.36 2.18 11.01 3.41-0.17 1.98-0.33 3.97-0.45 5.99-3.63-1.16-7.3-2.2-11.01-3.03-0.4-0.15-1.21-0.46-1.62-0.61-1.53 0.47-2.96 0.37-4.27-0.3-0.09-0.64-0.28-1.94-0.37-2.58l0.53-0.03c1.75-0.11 3.54-0.16 5.32-0.23z"/>
  <path d="m1084.9 1752.4c1.39-0.45 1.91 0.03 1.57 1.43-1.43 0.4-1.95-0.07-1.57-1.43z"/>
  <path d="m1225.9 1759.7c3.12-1.45 5.88-3.53 8.25-6.01 11 2.87 21.25 7.97 31.11 13.52-2.74 1.34-5.42 2.81-8.01 4.42-9.35-6.33-19.9-11.32-31.35-11.93z"/>
  <path d="m1076 1755.8c0.37-1.47 2.55-1.23 3.5-0.48 0.78 1.83-3.22 2.24-3.5 0.48z"/>
  <path d="m1025.4 1762.4c0.39-2.01 0.79-3.98 1.16-5.95 7.82 2.99 16.69 4.78 22.91 10.73 5.2 0.6 9.39 4.01 13.98 6.22-3.17 1.15-6.27 2.49-9.29 3.99-8.84-6.26-18.1-12.38-28.76-14.99z"/>
  <path d="m1394 1773.9c3.63-2.79 4.88-7.02 7.88-10.38-4.39 23.57-8.98 46.935-13.71 70.445h-48.35c3.74-2.15 6.78-5.335 9.1-8.945 1.66-2.69 4.35-4.4 6.65-6.47 2.32-2.11 3.62-5.04 5.64-7.4 1.9-2.06 4.35-3.55 6.12-5.74 2.09-2.62 3.47-5.81 6.14-7.94 2.56-2.12 4.74-4.64 6.5-7.45 2.22-3.71 6.26-5.8 8.58-9.42 1.57-2.42 3.13-4.91 5.45-6.7z"/>
  <path d="m1062.7 1765.2c1.85-0.1 3.7-0.02 5.56 0.23-1.62 2.21-3.71 1.17-5.56-0.23z"/>
  <path d="m1211.4 1773.4c2.86-3.84 7.38-5.75 10.9-8.87 11.5 2.78 22.06 8.28 32.41 13.86-3.2 1.67-6.29 3.53-9.27 5.55 0.62 1.68 1.26 3.37 1.91 5.08-4.44 1.31-8.6 3.39-12.29 6.19 0.62 1.7 1.25 3.42 1.89 5.15-4.28 1.29-8.68 2.86-11.94 6.06 0.22 1.78 0.79 3.49 1.28 5.26-4.34 1.31-8.89 2.87-12.05 6.29 0.37 1.65 1.02 3.24 1.61 4.87-4.44 1.23-8.54 3.38-12.22 6.12 0.57 1.64 1.15 3.285 1.75 4.955h-62.35c1.93-2.09 4.3-3.705 6.65-5.265 3.63-2.31 5.47-6.56 9.24-8.69 2.62-1.6 5.01-3.56 6.88-6.01 2.99-4.17 8.31-5.72 11.25-9.95 2.9-4.15 8.08-5.76 11.1-9.81 1.98-2.75 4.76-4.68 7.56-6.51 3.18-2.1 4.92-5.69 8.03-7.85 2.78-1.85 5.61-3.73 7.66-6.43z"/>
  <path d="m1022.8 1775.5c0.39-2.02 0.81-3.99 1.23-5.97 9.79 3.74 18.72 9.26 28.04 13.98-3.14 1.13-6.21 2.48-9.17 4.02-6.49-4.34-12.95-8.82-20.1-12.03z"/>
  <path d="m1019.9 1790.2c0.43-2.2 0.85-4.4 1.28-6.58 6.5 3.11 12.8 6.62 19.1 10.13-2.93 1.15-5.81 2.43-8.59 3.9-3.96-2.46-7.85-5-11.79-7.45z"/>
  <path d="m1014.9 1815c1.11-5.63 2.26-11.25 3.41-16.87 3.59 1.96 7.2 3.91 10.84 5.81-4.21 1.31-8.14 3.33-11.68 5.94 0.44 1.43 0.91 2.91 1.37 4.39-1.33 0.22-2.64 0.47-3.94 0.73z"/>
  <path d="m1100.7 276.45c2.72-2.6 5.5-5.14 8.36-7.6-1.19 2.59-0.72 7.96-4.66 7.83-0.46 0.41-0.9 0.83-1.32 1.25-0.6-0.37-1.79-1.11-2.38-1.48z" fill="#aa0050"/>
 </g>
 <g transform="translate(-166.87 -145.92)">
  <path d="m1694.2 350.07c0.11-2.61 2.6493-1.22 3.8493-0.3l-1.711 8.16c-0.6-2.66-1.6683-5.19-2.1383-7.86z"/>
  <path d="m1686.2 367.61c-1.7-2.6-4.44-6.28-1.4-8.95 2 2.22 4.01 4.45 6.11 6.61 0.04 0.78 0.12 2.33 0.16 3.11-1.65-0.27-3.26-0.53-4.87-0.77z"/>
  <path d="m1663 370.05c1.01-2.49 1.45-5.41 3.52-7.3-0.29 2.63-0.78 5.23-1.22 7.85-0.79-0.19-1.55-0.37-2.3-0.55z"/>
  <path d="m1674.1 376.79c-1.62-2.12-2.16-5.12-0.27-7.25 2.08 2.19 4.09 4.45 6.15 6.67v2.65c-2.03-0.47-4.76 0.08-5.88-2.07z"/>
  <path d="m1653.6 372.97 0.4648-0.50969c0.45 0.17 1.2052 0.42969 1.6452 0.58969-0.31 2.73-0.82 5.44-1.26 8.15-3.02-0.43-6.06-0.58-9.08-0.37-0.55 3.7-1.13 7.39-1.69 11.09-3.01-0.22-6.01-0.36-9.01-0.39-0.68 3.77-1.3 7.55-1.84 11.34-3.06-0.37-6.13-0.51-9.18-0.46-0.52 3.51-1.02 7.02-1.56 10.53-3.38-0.91-6.87-1.26-10.35-1.09-0.6 3.57-1.18 7.14-1.73 10.72-0.99-0.27-1.97-0.53-2.93-0.77-2.01-0.63-4.0204-0.71-6.0804-0.76l36.071-33.01c0.44 0.25 1.4194 0.74 1.8594 0.99 0.81-1 1.33-2.24 1.47-3.52l0.2112-0.732 7.7988-7.348c0.85 0.67 1.73 1.35 2.63 2.03 0.81-2.18 1.61-4.36 2.56-6.48z"/>
  <path d="m1663.2 387.71c-1.44-2.2-2.42-5.49 0.25-7.17 1.97 2.36 4.44 4.56 4.96 7.77-1.77-0.16-3.51-0.26-5.21-0.6z"/>
  <path d="m1651.2 395.82c-1.13-1.6 0-3.19 0.69-4.67 1.94 1.88 4.18 3.81 4.34 6.73-1.7-0.55-4.6 0.28-5.03-2.06z"/>
  <path d="m1641.1 401.84c1.59 1.49 3.05 3.18 3.29 5.46-1.48-0.17-2.95-0.35-4.4-0.54 0.15-1.68 0.48-3.35 1.11-4.92z"/>
  <path d="m1678.2 411.73c2.55-1.57 5.1486-3.19 7.7986-4.63l-0.7156 3.44c-2.34 0.37-4.783 0.76-7.083 1.19z"/>
  <path d="m1630.3 413.2c1.72 0.21 1.42 2.34 1.92 3.58-0.82-0.04-2.46-0.11-3.27-0.15 0.18-1.25 0.03-2.74 1.35-3.43z"/>
  <path d="m1678.3 414.64c1.07-0.65 3.31-0.24 3.49 1.24-0.61 2.07-4.39 0.67-3.49-1.24z"/>
  <path d="m1663.5 422.87c2.04-2.58 5.81-2.83 8.27-5.01 3.27 0.72 6.69 1.47 9.06 4.08-5.82-0.52-11.6-0.06-17.33 0.93z"/>
  <path d="m1590.5 430.57 8.7519-7.98-0.28 2.52c-0.33 2.3-0.7 4.6-1.05 6.9-2.58-0.53-4.8419-1.01-7.4219-1.44z"/>
  <path d="m1616.2 425.26c0.76-1.15 1.73-2.03 2.91-2.64 0.92 1.17 0.56 2.8 0.84 4.19-1.28-0.5-2.53-1.01-3.75-1.55z"/>
  <path d="m1651 431.46c3.09-0.5 5.74-2.51 8.64-3.31 3.28 1.58 8.01 0.9 9.86 4.58-5.26-0.38-10.58-0.38-15.7 1-0.97-0.77-1.88-1.52-2.8-2.27z"/>
  <path d="m1606.2 432.2c1.83-0.57 2.6 2.6 0.73 2.99-1.98 0.6-2.62-2.55-0.73-2.99z"/>
  <path d="m1579.7 440.54 7.565-6.92c-0.36 2.69-0.833 5.38-1.203 8.07-2.23-0.5-4.112-0.98-6.362-1.15z"/>
  <path d="m1639 440.86c2.88-0.58 5.67-1.62 8.13-3.26 2.84 1.99 6.2 2.81 9.49 3.77 0.32 0.53 0.96 1.59 1.27 2.11-5.11-0.37-10.25-0.19-15.22 1.14-1.23-1.26-2.45-2.52-3.67-3.76z"/>
  <path d="m1594.2 442.25c0.53 0.52 0.53 0.52 0 0z"/>
  <path d="m1569.3 450.04 5.7384-5.24c-0.46 2.03-0.8469 4.08-1.1869 6.13-1.61-0.3-2.9815-0.59-4.5515-0.89z"/>
  <path d="m1626.9 450.3c2.81-0.59 5.51-1.64 7.96-3.16 3.02 2.55 6.58 4.42 10.61 4.67 0.03 0.92 0.08 1.84 0.15 2.77-4.83-1.91-10.44-3.67-15.24-0.7-1.17-1.2-2.33-2.4-3.48-3.58z"/>
  <path d="m1562.6 456.23 0.4185 0.21898c-0.22 1.39-1.02 3.31-2.77 2.74l-0.261-0.54442z"/>
  <path d="m1614.1 459.38c2.63-1.08 5.28-2.17 7.86-3.41 3 2.76 6.63 4.58 10.56 5.65 0.23 0.31 0.69 0.92 0.92 1.23-3.16-0.81-6.16-2.23-9.41-2.57-2.47-0.32-4.62 1.17-6.9 1.77-1.1-0.82-2.06-1.76-3.03-2.67z"/>
  <path d="m1602.3 469.11c2.2-1.53 4.27-3.26 6.25-5.1 1.8 1.61 3.65 3.19 5.56 4.71-3.44-0.46-7.08-0.42-9.78 2.02-0.7-0.55-1.38-1.1-2.03-1.63z"/>
  <path d="m1589.9 479.14c2.35-1.86 4.7-3.74 6.8-5.9 1.09 1.13 2.21 2.26 3.35 3.38-3.66-0.61-6.99 0.95-10.15 2.52z"/>
  <path d="m1664 476.45c1.63-0.58 2.19-0.07 1.68 1.54-1.69 0.58-2.25 0.07-1.68-1.54z"/>
  <path d="m1581 484.84c0.91-0.95 1.84-1.9 2.79-2.83 0.76 0.91 1.55 1.82 2.35 2.75-1.73 0.02-3.44 0.04-5.14 0.08z"/>
  <path d="m1651.3 485.92c1.86 0.23 3.77 0.53 5.66 0.87-1.33 0.6-2.69 2.72-4.14 1.43-0.38-0.57-1.14-1.73-1.52-2.3z"/>
  <path d="m1568.6 492.72c-0.17-1.1 0.38-1.73 1.65-1.88 3.36 0.22 0.07 3.96-1.65 1.88z"/>
  <path d="m1564.3 495.19c0.52 0.52 0.52 0.52 0 0z"/>
  <path d="m1639.4 496.62c0.01-1.37 1.47-0.98 2.42-0.96 1.86 0.2 3.64 0.97 5.39 1.69-1.4 0.72-2.76 1.43-4.12 2.14-1.27-0.94-2.55-1.82-3.69-2.87z"/>
  <path d="m1650.1 495.03c2.95-1.57 0.16 3.33 0 0z"/>
  <path d="m1556.3 499.29c2-1.31 3.61 2.12 0.88 2.21-2.08 1.11-2.89-1.47-0.88-2.21z"/>
  <path d="m1638.1 504.01c1.32 0.83 2.66 1.68 4 2.53-1.35 0.11-2.68 0.22-3.99 0.34 0-0.72 0-2.15-0.01-2.87z"/>
  <path d="m1626.2 504.84c3.99 0.21 7.88 1.21 11.71 2.35-1.68 0.97-3.35 1.93-5 2.9-2.45-1.48-4.83-3.1-6.71-5.25z"/>
  <path d="m1543.4 507.18c2.19-0.87 2.73 2.47 0.47 2.6-2.11 0.85-2.42-2.34-0.47-2.6z"/>
  <path d="m1538.2 511.06c2.99-1.47 0.01 3.35 0 0z"/>
  <path d="m1613 513.57c4.33-0.05 8.52 1.18 12.64 2.42-0.03-0.65-0.08-1.96-0.11-2.61 2.05 1.01 4.12 2.04 6.17 3.1-3.11 1.4-6.29 2.62-9.42 3.97-3.11-2.28-6.53-4.15-9.28-6.88z"/>
  <path d="m1600 521.99c3.99-1.12 8.06 0.98 11.98 1.75 0.47-0.22 1.42-0.64 1.9-0.85 1.63 1.03 3.77 1.6 5.03 3.11-1.12 2.79-4.49 3.77-6.91 5.2-3.73-2.72-7.82-4.93-11.43-7.8-0.14-0.35-0.43-1.06-0.57-1.41z"/>
  <path d="m1540.3 523.11c0.89 0.94 2.91 1.32 2.74 2.91 0.6 1.74-1.75 1.63-2.68 2.17-0.06-1.7-0.08-3.39-0.06-5.08z"/>
  <path d="m1561.3 546.29c0.68-1.14 3.32-0.29 1.92 1-0.76 1.08-3.31 0.31-1.92-1z"/>
  <path d="m1548.2 554.15c1.9 0.12 3.82 0.26 5.75 0.42-2.01 1.08-4.09 2.05-6.19 2.91 0.11-0.83 0.33-2.5 0.44-3.33z"/>
  <path d="m1535.4 562.14c2.59 0.3 5.18 0.71 7.76 1.2-2.05 0.92-4.11 1.82-6.15 2.73-0.6-0.3-1.79-0.9-2.38-1.21 0.19-0.68 0.57-2.04 0.77-2.72z"/>
  <path d="m1524.1 570.28c2.78 0.58 5.56 1.22 8.32 2-1.99 0.84-3.99 1.64-5.97 2.45-0.8-1.49-1.58-2.97-2.35-4.45z"/>
  <path d="m1479.4 690.14c1.9 0.23 3.2 1.84 4.76 2.85 0.42-0.48 1.24-1.44 1.65-1.93-0.06 0.7-0.17 2.09-0.23 2.79-2.23-0.54-4.48-1.07-6.7-1.53 0.13-0.55 0.39-1.64 0.52-2.18z"/>
  <path d="m1621.5 693.31c1.21 0.57 2.42 1.14 3.69 1.7 0.1-0.19 0.4509-0.56 0.5609-0.74l-0.678 3.27c-1.05 0.54-2.1629 1.09-3.1629 1.64-0.72-0.82-1.38-1.62-2.04-2.43 0.54-0.08 1.62-0.26 2.17-0.35-0.2-1.04-0.38-2.07-0.54-3.09z"/>
  <path d="m1466.7 701.51c0.36-0.86 0.76-1.7 1.2-2.52 0.82 0.54 1.65 1.11 2.48 1.7 1.09-0.22 2.18-0.45 3.31-0.65-0.22 1-0.42 2.01-0.61 3.04-2.13-0.55-4.26-1.07-6.38-1.57z"/>
  <path d="m1458.6 708.96c1.31-3.2 2.4-7.79 6.6-8.07-0.89 0.64-1.77 1.27-2.64 1.9-0.52 3.19-1.02 6.4-1.55 9.6-2.06-0.57-4.12-1.11-6.16-1.62 0.37-0.88 0.75-1.74 1.14-2.6 0.85 0.25 1.72 0.52 2.61 0.79z"/>
  <path d="m1609.8 703.57c1.76-0.26 2.89 1.52 4.24 2.36-1.37 0.76-2.68 1.55-4.02 2.31-0.13-1.56-0.2-3.12-0.22-4.67z"/>
  <path d="m1444.8 714.89c3.53 0.22 5.17-3.52 7.99-5.01-0.83 0.8-1.67 1.59-2.49 2.39-0.58 3.17-1.08 6.36-1.54 9.55-1.92-0.52-3.84-1.02-5.73-1.5 0.57-1.82 1.16-3.63 1.77-5.43z"/>
  <path d="m1521.4 713.12c2.9-1.65 0.22 3.33 0 0z"/>
  <path d="m1439.3 720.23c0.39 0.6 0.39 0.6 0 0z"/>
  <path d="m1434.8 724.65c1.05-0.94 2.12-1.87 3.2-2.78-0.49 3.01-0.98 6.02-1.43 9.04-1.86-0.49-3.73-0.98-5.57-1.45 0.59-1.79 1.22-3.55 1.83-5.33 0.49 0.13 1.48 0.39 1.97 0.52z"/>
  <path d="m1420.8 734.73c1.59-1.01 3.34-1.78 5.03-2.65-0.53 2.63-0.97 5.28-1.34 7.95-1.84-0.36-3.65-0.72-5.46-1.08 0.54-1.43 1.01-2.89 1.77-4.22z"/>
  <path d="m1410.8 743.59c0.81-0.65 1.64-1.29 2.49-1.92-0.4 2.69-0.81 5.38-1.26 8.07-1.59-0.53-3.19-1.04-4.77-1.54 0.52-1.74 1.07-3.46 1.61-5.18 0.48 0.14 1.45 0.43 1.93 0.57z"/>
  <path d="m1396.5 753.41c1.51-0.49 3.05-0.97 4.59-1.47-0.46 2.35-0.9 4.71-1.32 7.08-1.54-0.54-3.09-1.08-4.6-1.59 0.42-1.35 0.87-2.69 1.33-4.02z"/>
  <path d="m1384.7 762.77c1.42-0.35 2.82-0.83 4.17-1.44-0.5 2.26-0.88 4.54-1.23 6.83-1.54-0.53-3.08-1.04-4.59-1.55 0.53-1.29 1.08-2.57 1.65-3.84z"/>
  <path d="m1372.5 772.39c1.33-0.34 2.7-0.66 4.07-0.99-0.46 2.05-0.87 4.1-1.27 6.17-1.28-0.48-2.54-0.96-3.78-1.42 0.31-1.27 0.64-2.52 0.98-3.76z"/>
  <path d="m1360.6 781.57c1.14-0.01 2.3-0.03 3.47-0.04-0.37 1.74-0.7 3.51-1.03 5.27-1.27-0.43-2.52-0.87-3.74-1.28 0.42-1.32 0.84-2.64 1.3-3.95z"/>
  <path d="m1348.5 791.14c1.12-0.02 2.25-0.02 3.41-0.02-0.34 1.64-0.65 3.3-0.96 4.96-1.21-0.43-2.41-0.86-3.58-1.27 0.36-1.23 0.72-2.46 1.13-3.67z"/>
  <path d="m1336.6 800.54c1.01 0 2.04-0.01 3.09 0.01-0.42 1.67-0.83 3.35-1.22 5.04-0.72-0.34-2.15-1.04-2.87-1.38 0.31-1.24 0.65-2.46 1-3.67z"/>
  <path d="m1324.4 810.22c0.62-0.01 1.87-0.01 2.49-0.01-0.11 1.48-0.2 2.96-0.28 4.46-0.98-0.28-1.94-0.55-2.88-0.81 0.2-1.22 0.43-2.44 0.67-3.64z"/>
  <path d="m1312.6 819.32c0.75 0.27 1.51 0.56 2.3 0.85-0.18 1.21-0.33 2.43-0.47 3.66-0.98-0.25-1.95-0.5-2.9-0.73 0.34-1.27 0.7-2.53 1.07-3.78z"/>
  <path d="m1300.3 829.15c0.59 0.08 1.76 0.25 2.34 0.33-0.22 1.09-0.34 2.22-0.6 3.32-0.67-0.02-2-0.05-2.66-0.07 0.3-1.2 0.59-2.41 0.92-3.58z"/>
  <path d="m1288.7 837.87c1.33 1.17 1.96 2.64 1.26 4.44-3.44 0.72-1.5-2.59-1.26-4.44z"/>
  <path d="m1277.7 852.34c-2.11-0.85-2.31-4.23 0.22-4.57-0.06 1.51-0.13 3.04-0.22 4.57z"/>
  <path d="m1264.2 858.09c1.58-1.24 2.67 1.71 1.36 2.61-1.62 1.22-2.69-1.73-1.36-2.61z"/>
  <path d="m1252.2 867.43c1.56-1.31 2.77 1.52 1.36 2.43-1.59 1.4-2.82-1.56-1.36-2.43z"/>
  <path d="m1240.3 877.36c1.36 0.16 1.57 0.84 0.63 2.04-1.38-0.19-1.6-0.87-0.63-2.04z"/>
  <path d="m1228.1 886.53c1.35 0.17 1.57 0.86 0.67 2.06-1.38-0.19-1.61-0.88-0.67-2.06z"/>
  <path d="m1191.1 974.08c2.99-1.51 0.08 3.35 0 0z"/>
  <path d="m1542 1062c1.21-2.5 4.53-0.33 6.7-0.45-0.52 2.52-0.97 5.06-1.54 7.59 0.14-0.76 0.42-2.28 0.56-3.04-1.96-1.31-3.97-2.56-5.72-4.1z"/>
  <path d="m1529.6 1069.7c3.18 0.05 6.25 0.94 9.37 1.58 1.09 0.52 1.96-0.29 2.88-0.78 1.51 0.73 3 1.53 4.53 2.3-0.45 2.06-0.84 4.15-1.31 6.22 0.17-1.05 0.5-3.15 0.66-4.2-1.92 1.14-3.8 2.31-5.69 3.48-3.39-2.88-8.65-4.32-10.44-8.6z"/>
  <path d="m1518.2 1078.4c3.7 0.76 7.46 2.46 11.3 1.54 4.87 1.91 10.15 1.2498 15.27 1.3498h-27.74c0.37-0.96 0.76-1.9498 1.17-2.8898z"/>
  <path d="m1648.4 377.42c1.66-1.55 3.37-3.07 5.19-4.45-0.95 2.12-1.75 4.3-2.56 6.48-0.9-0.68-1.78-1.36-2.63-2.03z" fill="#aa0050"/>
 </g>
 <g transform="translate(-166.87 -145.92)" fill="#aa0050">
  <path d="m1855.4 166.76c-0.57 1-1.12 1.85-1.64 2.85 4 1.87 6.96 5.83 11.49 6.51l0.45 0.1c0.12-3.13 0.11-6.33-0.02-9.46h50.16c-2.64 1.33-5.45 2.45-8.32 3.05-0.96 2.44-1.58 5.28-3.76 6.95-2.32 1.8-5.32 2.17-8.07 2.85-0.96 2.31-1.56 4.94-3.5 6.64-1.99 1.75-4.67 2.27-7.1 3.08-0.62 2.23-0.92 4.64-2.23 6.61-1.79 2.48-4.89 3.3-7.58 4.37-0.55 2.6-0.53 5.56-2.37 7.67-2.04 2.24-4.98 3.26-7.59 4.6 1.49 1.71 3.01 3.42 4.55 5.12-5.01 0.33-8.22 4.44-12.54 6.4-0.34 2.64-0.8 5.26-1.46 7.84 1.35 0.18 2.73 0.36 4.13 0.54 2.47-1.85 5.14-3.44 7.93-4.78 1.13-2.73 1.78-5.75 3.62-8.13 2.52-1.97 5.89-2.2 8.9-3.05 0.59-1.48 1.2-2.95 1.83-4.42-1.17-0.67-2.31-1.33-3.43-1.99 1.4-1.66 2.6-3.79 4.83-4.45 2.98-0.95 6.08 0.23 9.03 0.78 1.21-3.7-1.12-6.71-3.92-8.81 1.54-1.52 2.92-3.53 5.21-3.96 3.5-0.69 6.95 0.71 10.35 1.46-0.58-3.41-2.11-6.54-4.96-8.6 1.66-1.52 3.13-3.67 5.56-3.97 3.81-0.56 7.47 1.03 11.08 2.05-0.57-3.2-2.15-6.02-4.86-7.87 1.94-1.82 3.89-4.22 6.84-4.16 3.48 0 6.78 1.38 10.12 2.26-0.92-3.22-2.5-6.32-5.46-8.08h42.2c-0.83 2.96-1.37 6.25-3.67 8.48-2.26 2.39-5.63 2.99-8.6 3.97-1.13 2.27-2.04 4.8-4.03 6.46-2.21 1.8-5.1 2.32-7.73 3.14-1.23 2.74-2.82 5.3-4.8 7.55-0.25 3.94-1.75 7.58-3.67 10.97-1.75 2.88-1.15 6.31-0.91 9.48-3.25-0.88-6.51-1.68-9.77-2.41-2.19 3.69-2.85 7.93-1.89 12.11-3.28-0.77-6.55-1.52-9.81-2.29-2.48 3.57-2.89 7.89-2.14 12.09-2.95-0.72-5.91-1.39-8.85-2.03-2.24 3.61-4.39 7.52-2.98 11.89-1.76-0.48-3.49-0.95-5.22-1.42-0.35 1.03-0.67 2.06-0.97 3.09 1.46 1.07 2.94 2.14 4.44 3.21 4.83-4.13 9.35-8.69 14.84-11.97 7.03-4.45 14.77-7.6 22.63-10.25-1.36 12.49 1.95 24.86 3.93 37.11 2.77 11.75 3.88 24.02 1.87 35.98-1.15 6.05-3.45 12.24-8.15 16.43-2.97 2.38-6.54 3.87-9.43 6.34 3.2 4.53 6.36 9.56 6.23 15.33-0.17 8.89-5.38 17.67-13.3 21.82-4.3 2.19-6.67 6.75-10.92 9.02-2.58 1.37-4.69 3.38-6.52 5.61-2.9 3.61-7.7 4.86-10.61 8.43-2.89 3.47-7.11 5.59-9.53 9.47-2.5 3.79-6.68 6.15-8.74 10.26-2.24 4.26-6.54 6.92-8.75 11.19-1.32 2.29-2.87 4.42-4.64 6.35-3.58 3.64-4.77 8.98-8.66 12.37-2.68 2.35-5.41 4.71-7.24 7.82-2.45 4.14-7.06 6.33-9.5 10.46-1.64 2.61-3.73 4.89-6.13 6.81-3.82 2.91-5.4 7.8-9.27 10.67-3.49 2.59-5.76 6.34-8.27 9.8-2.09 2.62-1.83 6.4-4.18 8.84-2.87 3.17-6.45 5.72-8.79 9.36-1.95 2.87-4.437 5.4166-6.977 7.7666l49.106-241.07 0.721-0.31656c1.35-0.03 2.72-0.06 4.12-0.08 0.21-1.18 0.47-2.36 0.63-3.56-1.34-0.89-2.8256-1.5878-4.1756-2.3778l0.839-4.0885c0.26-0.36 0.5766-0.88371 0.8366-1.2437 2.81-1.74 6.15 1.51 9.15 0.14 1.5-0.59 2.26-2.13 3.31-3.26-3.73-1.83-7.664-3.16-11.864-2.65l13.274-65.171c0.43 1.34 0.9705 2.6805 1.4905 4.0005 1.1 0.18 2.22 0.36 3.36 0.55 0-1.31 0.03-2.63 0.07-3.94-1.42-1.2-2.9306-2.5072-4.2806-3.7572l2.5409-12.483zm-8.45 69.68c-0.33 1.83-0.58 3.66-0.88 5.49 1.89 0.37 3.83 0.76 5.76 1.15 1.9-1.16 3.83-2.29 5.78-3.43-3.32-1.76-6.96-2.77-10.66-3.21m38.28 16.57c0.05 1.37 0.12 2.75 0.23 4.14-1.75-0.39-3.46-0.78-5.17-1.15-0.09 0.74-0.27 2.23-0.36 2.97 0.79 0.61 1.6 1.22 2.43 1.84 2.32-1.96 4.58-4 6.82-6.07-1.33-0.59-2.65-1.17-3.95-1.73m-9.05 11.07c-1.41 0.64-1.48 1.32-0.23 2.02 1.36-0.65 1.44-1.33 0.23-2.02m-6.69 4.28c-1.24 2.28 3.1 2.56 3.23 0.4-0.19-1.54-2.54-1.49-3.23-0.4z"/>
  <path d="m1781.7 519.98c9.12-0.2 18.99 0.21 26.74 5.65 3.78 2.27 3.31 7.53 2.61 11.28-0.97 4.42-5.44 6.37-9.32 7.58-0.66 2.58-0.78 5.53-2.67 7.6-1.9 2.23-4.91 2.83-7.52 3.77-0.65 2.72-0.83 5.79-2.77 7.98-1.92 2.15-4.87 2.75-7.46 3.66-0.56 2.52-0.61 5.37-2.37 7.42-1.86 2.39-4.92 3.18-7.62 4.17-0.49 3.08-1.3296 6.27-3.7796 8.44l11.352-55.741c0.78-0.01 2.2873-0.0388 3.0673-0.0588-0.19-3.91-0.27-7.83-0.26-11.75z"/>
  <path d="m1815.6 541.7c1.83-1.64 3.58-3.9 6.29-3.94 4.27-0.18 8.21 1.83 12.24 2.97 3.41 1.11 7.02 1.26 10.59 1.48 0.46 5.24 1.37 11.09-1.58 15.81-1.7 2.89-5.01 4.03-7.9 5.3-0.79 2.44-1.35 5.06-2.93 7.14-1.83 2.3-4.92 2.94-7.08 4.8-1.19 2.21-1.7 4.76-3.15 6.82-1.7 1.76-4.03 2.68-5.87 4.24-3.3 4.21-5.31 9.62-4.17 15.01-2.43-0.63-4.85-1.24-7.26-1.84-2.38 4-4.03 8.51-2.79 13.21-2.54-0.58-5.05-1.14-7.57-1.67-1.79 3.54-3.22 7.31-3.15 11.34 6.81-3.39 13.69-6.67 20.99-8.91-1.15 13.16 2.2 26.13 4.38 39.02 2.82 11.94 3.41 24.46 1.02 36.53 4.93 1.19 9.69 2.98 14.25 5.21-0.05 1.27-0.08 2.55-0.08 3.83 2.16 2.79 3.77 5.95 4.88 9.32 2.45 0.38 5.98-0.17 7.17 2.65 1.26 3.28 1.18 6.88 1.68 10.33 2.77-0.33 3.52-2.74 4-5.14-7.61-7.11-8.29-18.03-9.51-27.71 5.1 1.43 7.7 6.18 9.14 10.92 2.39 0.3 5.58-0.17 7.01 2.31 1.47 3.45 1.35 7.33 2.05 10.98 1.74-1.36 3.12-3.1 4.25-5 2.29 1.22 5.72 2.98 4.48 6.21-1.83 4.34-5.85 7.21-8.95 10.6-1.16-0.47-2.23-0.91-3.33-1.36-2.98 4.02-6.1 8.12-10.52 10.63-0.85 2.13-1.66 4.28-2.45 6.43-1.33-0.72-2.64-1.45-3.93-2.16-1.98 1.72-4.02 3.36-6.15 4.87-0.86 2.13-1.7 4.27-2.53 6.42-0.61-0.38-1.84-1.13-2.45-1.5-1.85 0.79-3.65 1.66-5.38 2.65-0.53 0.22-1.59 0.67-2.12 0.89-0.78 2.25-1.57 4.51-2.34 6.77-1.02-0.43-2.01-0.85-2.98-1.27-2.52 1.09-4.91 2.45-7.23 3.89-0.68 1.89-1.25 3.85-2.23 5.61-3.75-0.29-7.12 1.08-10.05 3.33-0.75 2.01-1.51 4.03-2.26 6.04-1.88-0.16-3.74-0.3-5.58-0.41-3.52 2.08-5.99 5.23-6.89 9.25-3.88-1.09-7.25 0.95-10.3 3.09-0.75 2.02-1.5 4.03-2.26 6.04-1.82-0.16-3.64-0.29-5.43-0.4-1.49 1.13-3 2.24-4.5 3.33-0.77 2.02-1.53 4.04-2.27 6.08-3.86-1.24-7.37 0.55-10.32 2.92-0.79 2.18-1.6 4.36-2.41 6.53-0.92-0.35-1.82-0.7-2.7-1.04-2.55 2.19-5.29 4.3-7.01 7.24-1.7 2.84-3.86 5.38-6.45 7.45-3.05 2.42-4.91 5.89-7.37 8.84l-0.5 0.63-0.9912 0.74 48.081-236.02c1.93-2.9 5.3305-3.82 8.6205-4.14 0.7-1.68 1.42-3.35 2.17-5.02-0.27-0.48-0.8-1.43-1.07-1.91 2.25-2.9 5.58-4.36 9.23-4.47 0.92-2.49 1.57-5.1 1.6-7.77 3.34-4.63 9.48-3.4 14.42-4.17-1.17-2.61-2.8-4.95-4.98-6.78 1.7-1.55 3.28-3.65 5.75-3.94 3.22-0.44 6.38 0.75 9.49 1.49-0.52-3.52-2.08-6.72-4.9-8.93 1.57-1.62 3.08-3.71 5.51-4.03 3.29-0.43 6.49 0.74 9.69 1.39-0.69-3.53-2.18-6.85-5.11-9.05m-34.08 87.56c2.68-1.64 5.19-3.55 7.59-5.6-1.52-0.39-3.01-0.77-4.48-1.14-1.13 2.2-2.19 4.44-3.11 6.74m-7.29 4.78c-0.54 1.6 0.02 2.15 1.68 1.67 0.5-1.62-0.06-2.18-1.68-1.67m-9.92 11.97c0.06 3.34 2.99-1.48 0 0z"/>
  <path d="m1864.9 669.59c4.76 1.11 7.76 5.38 8.71 9.98 1.34 6.39 2.9 12.75 4.15 19.17-4.33-2.07-7.71-5.77-9.2-10.34-2.04-6.08-2.87-12.48-3.66-18.81z"/>
  <path d="m1852.4 678.48c4.16 1.16 7.33 4.5 8.46 8.65 1.87 6.69 2.92 13.6 4.83 20.29-5.11-1.56-8.41-6.26-9.88-11.17-1.68-5.81-2.69-11.79-3.41-17.77z"/>
  <path d="m1846.3 747.98c9.66-0.56 20.57 0.03 28.23 6.7 2.35 3.23 2.11 7.97 0.74 11.58-1.93 4.35-6.96 5.38-11.16 6.06-1.07 2.11-1.85 4.5-3.65 6.12-2.46 2.04-5.78 2.33-8.76 3-1.09 2.22-1.91 4.77-3.98 6.3-2.44 1.83-5.6 2.06-8.46 2.7-1.8 5.91-7.54 8.75-12.86 10.83-1.61 2.03-3.17 4.23-5.47 5.52-2.9 1.8-6.51 2.63-8.55 5.56-2.2 2.81-5.47 4.36-8.5 6.05 1.06 1 2.14 2.01 3.24 3.03 4.94-3.5 10.8-1.17 15.99 0.36-0.93-2.84-2.57-5.31-4.89-7.17 1.68-1.66 3.28-3.88 5.87-4.05 3.93-0.46 7.65 1.31 11.36 2.38-0.92-2.88-2.52-5.46-4.94-7.29 1.82-1.88 3.73-4.18 6.62-4.16 3.78-0.07 7.34 1.54 10.97 2.43-0.97-2.83-2.45-5.44-5-7.09 1.42-1.77 2.84-3.91 5.27-4.32 4.12-0.82 8.04 1.26 11.94 2.32-0.8-2.89-2.37-5.44-4.72-7.3 1.6-1.58 3.06-3.73 5.51-3.97 4.03-0.56 7.88 1.2 11.74 2.12-0.82-2.76-2.41-5.12-4.75-6.78 1.38-1.7 2.67-3.88 5.05-4.23 4.15-0.83 8.17 1.14 12.14 2.08-1.01-2.82-2.62-5.32-4.98-7.16 2.24-2.99 5.85-5.07 9.68-3.88 6.44 1.72 12.7 4.32 19.47 4.57 0.49 5.38 1.38 11.47-1.97 16.16-2.29 3.31-6.48 4.11-10.11 4.97-1.32 2.25-2.4 4.82-4.64 6.31-2.4 1.53-5.27 2.01-7.96 2.71-1.29 2.84-3.19 5.34-5.68 7.24 0.71 0.44 1.43 0.89 2.19 1.36-0.39 3.72-1.8 7.18-3.57 10.45-1.79 2.95-1.13 6.46-0.82 9.7-3.6-0.99-7.23-1.83-10.88-2.52-1.76 3.58-2.24 7.54-1.61 11.47-3.56-0.96-7.15-1.81-10.74-2.58-1.89 3.59-2.44 7.62-1.49 11.58-3.7-0.95-7.42-1.78-11.16-2.51-1.84 3.58-2.16 7.6-1.28 11.51-3.85-1-7.74-2.37-11.76-1.91 2.17 4.04 7.18 5.43 10.54 8.37 3.11-1.88 6.16-3.89 8.99-6.21 8.57-7.13 18.86-11.87 29.44-15.2-1.22 12.73 2.04 25.31 4.1 37.79 2.72 11.77 3.87 24.09 1.71 36.05-1.41 7.63-5.39 15.65-12.97 18.71-1.53 0.97-4.03 1.12-4.59 3.07 2.03 3.64 4.9 6.94 5.75 11.15 2.48 10.49-3.82 22.09-13.49 26.52-2.9 1.25-5.13 3.47-7.34 5.63-2.96 2.94-7.39 3.73-10.23 6.81-2.18 2.23-4.61 4.21-7.44 5.55-4.65 2.07-7.37 6.81-12.07 8.79-4.78 1.97-7.33 6.96-12.07 8.98-5.07 1.93-7.9 7.02-12.85 9.13-4.57 1.83-7.06 6.5-11.49 8.53-2.87 1.31-5.47 3.1-7.6 5.42-2.65 2.91-6.54 4.01-9.64 6.27-2.67 2.36-5.11 5.08-8.41 6.57-4.99 2.14-7.82 7.29-12.92 9.27-4.07 1.65-6.42 5.64-10.17 7.75-7.38 3.29-12.01 10.48-19.42 13.78-3.28 3.75-6.06 8.59-11.09 10.15-1.22 1.69-2.38 3.41-3.52 5.14 3.58 1.38 7.04 3.15 9.84 5.84 1.75 1.79 3.99 2.85 6.4 3.53-0.07-3.74-0.15-7.47-0.14-11.2 3.82-0.17 7.65-0.18 11.49 0.06-0.19-3.47-0.28-6.93-0.33-10.39 3.78-0.08 7.58-0.11 11.39-0.13-0.18-3.54-0.3-7.07-0.35-10.6 3.85-0.11 7.71-0.03 11.58 0.17-0.16-3.6-0.28-7.2-0.32-10.79 9.15-0.2 19.14 0.07 26.86 5.68 3.73 2.42 3.22 7.7 2.51 11.52-1.1 4.81-6.24 6.5-10.49 7.35-0.72 2.48-1.07 5.34-3.1 7.17-2.08 2.13-5.15 2.55-7.88 3.3-0.75 2.37-1.08 5.09-2.91 6.95-2.2 2.26-5.44 2.8-8.35 3.59-0.74 2.42-1.13 5.15-2.99 7.04-2.11 2.29-5.34 2.74-8.16 3.61-0.82 2.42-1.29 5.19-3.24 7.02-2.15 2.01-5.16 2.54-7.85 3.38-0.75 2.37-1.14 5.03-2.91 6.91-1.87 2-4.65 2.61-7.1 3.56 1.48 1.75 2.96 3.51 4.43 5.3-2.41 0.12-4.79 0.23-7.18 0.3-1 0.91-1.98 1.84-2.95 2.77 0.61 1.98 1.17 3.96 1.77 5.97 3.19 0.09 6.38 0.52 9.5 1.3 0.24-1.18 0.45-2.35 0.64-3.51-0.81-1.77-2.49-2.89-3.79-4.22 1.65-1.52 3.13-3.58 5.5-3.98 3.1-0.49 6.17 0.59 9.21 1.15 1.08-3.29-0.97-5.72-3.35-7.67 1.52-1.53 2.91-3.55 5.23-3.86 2.91-0.52 5.82 0.42 8.65 1.06 0.35-1.14 0.75-2.26 1.03-3.4-0.55-1.87-2.52-2.81-3.78-4.08 1.48-1.58 2.81-3.6 5.06-4.11 3.06-0.83 6.15 0.42 9.16 1.03 0.19-1.27 0.45-2.52 0.56-3.77-0.85-1.7-2.49-2.79-3.79-4.06 1.78-1.52 3.38-3.7 5.89-3.99 3.58-0.44 7.02 0.98 10.41 1.95-0.66-3.31-2.23-6.33-4.96-8.37 1.66-1.58 3.21-3.64 5.65-4 3.6-0.53 7.09 1.02 10.55 1.87-0.73-3.42-2.49-6.44-5.23-8.6 1.57-1.31 2.97-2.98 4.95-3.69 3.85-0.89 7.65 0.71 11.31 1.75-0.62-3.31-2.21-6.27-4.85-8.36 1.59-1.53 3.02-3.59 5.37-3.96 4.14-0.72 8.07 1.34 11.96 2.46 3.75 1.34 7.74 1.65 11.7 1.82 0.48 5.35 1.41 11.33-1.7 16.11-1.93 3.14-5.69 4.11-8.93 5.27-1.08 2.41-1.86 5.11-3.8 7.01-2.09 1.77-4.93 2.23-7.18 3.69-1.57 3.35-3.15 6.8-6.4 8.87-1.11 3.3-2.68 6.41-4.14 9.57-1.28 2.68-0.59 5.71-0.43 8.56-2.99-0.77-5.98-1.46-8.97-2.1-2.2 3.88-3.24 8.3-2.23 12.74-2.91-0.74-5.83-1.76-8.85-1.68-2.89 3.35-2.8 7.95-2.22 12.09-2.96-0.75-5.91-1.44-8.86-2.13-2.14 3.48-3.2 7.44-2.75 11.54 4.54-2.75 8.4-6.47 13.03-9.1 6.57-4.01 13.8-6.77 21.06-9.3-2.13 22.31 8.44 43.62 6.63 65.92-0.53 7.43-2.01 15.24-6.72 21.24-3.09 3.9-8.31 5.45-10.92 9.83 2.36 3.64 4.8 7.48 5.26 11.91 0.97 9.08-4.12 18.18-11.64 23.1-2.6 1.71-4.35 4.32-6.34 6.64-2.62 3.08-6.68 4.55-9.02 7.92-1.96 2.72-4.4 5.05-7.22 6.88-2.81 1.79-4.54 4.7-6.81 7.05-2.82 2.88-6.87 4.44-9.04 7.96-2.49 3.45-0.47 8.42-3.25 11.76-2.73 3.73-7.67 4.03-11.83 4.74-1.45 1.96-2.85 4.13-5.13 5.18-4.54 2.18-8.6 5.18-12.32 8.54 4.26 0.78 8.46 1.91 12.69 2.92-1.39-1.91-2.91-3.67-4.54-5.34 1.68-1.58 3.2-3.84 5.72-4.01 4.3-0.47 8.32 1.54 12.45 2.46-1.42-1.97-2.93-3.82-4.59-5.54 1.64-1.88 3.47-4 6.18-4.1 4.16-0.19 8.03 1.72 12.05 2.58-1.4-2.08-2.94-4-4.6-5.82 1.92-1.63 3.78-3.88 6.54-3.87 3.92-0.18 7.53 1.62 11.22 2.73 3.64 1.24 7.49 1.63 11.33 1.91 0.51 5.52 1.57 11.9-2.16 16.6-2.81 3.69-7.72 4.18-11.95 4.8-1.6 1.85-3.05 4-5.29 5.14-2.53 1.24-5.4 1.4-8.13 1.82-2.27 3.28-5.53 5.58-9.27 6.89 2.26 2.31 5.47 2.83 8.55 3.3-0.11 3.81-1.49 7.35-3.36 10.63-1.81 3.01-1.32 6.59-1.14 9.94-4.21-1.31-8.51-2.24-12.87-2.77-0.73 3.21-0.92 6.51-0.62 9.82-4.37-1.37-8.89-2.26-13.45-2.46-0.44 3.18-0.45 6.4-0.11 9.62-4.21-1.14-8.44-2.42-12.81-2.49-1.72 2.91-0.93 6.36-0.67 9.53-4.31-1.27-8.73-2.12-13.18-2.58-0.32 1.33-0.58 2.71-0.86 4.09 4.74 2.79 9.35 5.83 13.91 8.93 6.16-3.34 12.24-6.82 18.6-9.79 7.04-4.22 14.58-7.54 22.41-10.02-1.22 12.85 2 25.54 4.16 38.12 2.58 10.93 3.53 22.32 1.89 33.46-0.8 6.34-3.49 12.285-7.43 17.295h-140.92c37.042-182.68 74.956-368.1 106.83-524.33 2.36-1.52 4.7514-3.06 7.1114-4.61-1.65-1.15-4.38-1.33-4.86-3.59-0.04-0.76-0.014-1.8888-0.054-2.6488l0.8252-3.9903c3.03 2.21 6.0988 4.0991 9.2088 6.2191 2.47-1.66 4.96-3.32 7.4-5.03-1.67-0.79-3.31-1.55-4.97-2.27-3.53 0.68-7-0.45-10.34-1.42l-0.6617-0.53 12.226-60.05c0.45 0.16 1.1759 0.40969 1.6159 0.56969l0.68 0.32c3.04-1.88 6.58-2.12 10.04-1.47-2.26-1.68-4.43-3.45-6.56-5.26-1.07 0.53-2.11 1.07-3.14 1.62-0.49 0.2-1.4666 0.61-1.9566 0.81l10.76-52.9c2.2-0.24 4.0371-0.38 6.2871-0.23 1.05 0.33 2.14 0.71 3.24 1.09 0.51-3.54 1.1-7.08 1.79-10.59 3.64-0.12 7.31 0.27 10.75 1.56 0.49-3.49 0.99-6.99 1.51-10.48 3.62-0.13 7.26 0.23 10.77 1.25 0.51-3.34 1.04-6.67 1.56-10.01 3.7-0.48 7.43-0.05 10.95 1.23 0.48-3.48 1.06-6.94 1.69-10.39 3.64-0.24 7.29 0.23 10.74 1.48 0.53-3.45 1.03-6.9 1.51-10.35 3.68-0.43 7.4-0.04 10.89 1.29 0.55-3.39 1.09-6.78 1.55-10.17 6.63-1.49 12.5 3 19.13 2.6-0.09-3.18-0.2-6.35-0.32-9.51 4.27 0 8.54 0.1 12.82 0.28-0.1-3.09-0.21-6.18-0.28-9.26 4.25-0.05 8.51 0.09 12.76 0.42-0.12-3.1-0.24-6.19-0.33-9.28 4.2-0.17 8.4-0.01 12.6 0.32-0.08-3.08-0.17-6.16-0.29-9.23m-47.94 75.32c-2.39 1.4-4.79 2.79-7.21 4.12 1.18 0.99 2.36 1.98 3.58 2.99 2.97-2.22 6.68-2.14 10.2-1.6-2.35-1.67-4.52-3.53-6.57-5.51m-19.38 13.06c1.03 1.01 2.07 2.02 3.14 3.05 3.22-2.18 7.09-2.49 10.82-1.61-2.49-1.55-4.75-3.42-6.83-5.46-2.38 1.35-4.75 2.7-7.13 4.02m-12.49 8.89c1.09 1 2.21 2.01 3.34 3.02 3.1-1.96 6.72-2.38 10.28-1.52-2.29-1.68-4.42-3.52-6.46-5.45-2.39 1.34-4.77 2.67-7.16 3.95m-12.42 9.15c1.08 1.04 2.17 2.08 3.28 3.13 3.14-2.3 7.04-2.26 10.73-1.63-2.46-1.68-4.76-3.57-6.96-5.54-2.37 1.33-4.71 2.69-7.05 4.04m-12.22 9.01c1.02 0.97 2.06 1.94 3.13 2.92 3.05-2.01 6.68-2.08 10.19-1.54-2.26-1.74-4.4-3.62-6.47-5.55-2.29 1.38-4.57 2.79-6.85 4.17m74.25-0.49-0.47 1.25c3.23 2.84 7.08 4.85 10.52 7.44 2.35-1.43 4.83-2.73 6.92-4.57-1.14-1.96-3.82-2.51-5.66-3.73-0.06 0.44-0.18 1.32-0.24 1.77-3.67-0.83-7.29-2.2-11.07-2.16m-86.9 9.51c1.14 0.95 2.29 1.9 3.47 2.87 3.1-2.05 6.8-2.17 10.36-1.5-2.38-1.77-4.62-3.71-6.8-5.68-2.33 1.47-4.67 2.92-7.03 4.31m74.55-0.58-0.53 1.31c3.35 2.72 7.13 4.86 10.65 7.37 2.53-1.6 5.04-3.26 7.44-5.06-2.23-0.59-4.79-3.89-6.94-1.65-3.54-0.71-6.99-2-10.62-1.97m-87.04 9.66c1.07 0.97 2.17 1.95 3.28 2.94 2.98-2.14 6.61-2.52 10.14-1.69-2.22-1.73-4.31-3.59-6.34-5.5-2.39 1.37-4.75 2.8-7.08 4.25m74.5-0.42c-0.02 0.37-0.05 1.13-0.07 1.5 3.2 2.52 6.76 4.55 10.03 6.99 2.65-1.57 5.25-3.24 7.65-5.19-2-0.86-3.95-2.29-6.21-1.93-3.91 0.48-7.52-1.89-11.4-1.37m-12.15 8.83-0.74 1.23c3.28 2.82 7.06 4.98 10.59 7.48 2.49-1.58 4.92-3.25 7.23-5.1-2-1.01-3.97-2.01-5.93-3.01l-0.36 1.62c-3.56-0.91-7.09-2.3-10.79-2.22m-12.59 10.65c3.11 2.51 6.67 4.44 9.82 6.94 2.53-1.52 5.04-3.09 7.53-4.7-1.6-0.92-3.19-1.81-4.77-2.67-4.3 1.24-8.48-1.04-12.68-1.61 0.03 0.51 0.08 1.53 0.1 2.04m-12.62 7.21-0.29 1.35c3.02 2.98 7.03 4.79 10.41 7.38 2.51-1.54 4.97-3.18 7.34-4.96-2.02-1.1-4-2.19-5.98-3.3-0.04 0.45-0.13 1.37-0.17 1.82-3.75-0.88-7.46-2.08-11.31-2.29m-12.51 10.75c3.31 2.55 6.97 4.63 10.39 7.05 2.49-1.6 4.97-3.25 7.31-5.09-1.65-0.83-3.29-1.63-4.94-2.37-3.4 1.25-6.72-0.74-10.06-1.11-1.18-0.31-3.46-0.27-2.7 1.52m-12.94 8.56c3.4 2.73 7.23 4.86 10.76 7.44 2.45-1.56 4.9-3.13 7.35-4.71-2.03-1.29-4.11-2.49-6.19-3.65-0.04 0.46-0.12 1.37-0.16 1.82-3.39-0.86-6.76-1.9-10.24-2.23-0.38 0.33-1.14 1-1.52 1.33m-12.36 8.15c0.13 0.3 0.4 0.89 0.53 1.18 3.22 2.57 6.88 4.56 10.2 7.03 2.52-1.61 5.03-3.24 7.48-4.97-1.91-1-3.76-2.06-5.74-2.83l-1.07 1.34c-3.77-0.71-7.54-2.68-11.4-1.75m-12.42 8.55c1.97 4.35 7.18 5.73 10.59 8.76 2.58-1.5 5.08-3.16 7.31-5.17-1.73-0.7-3.33-1.96-5.23-1.91-4.33 0.33-8.37-1.71-12.67-1.68m-13.68 159.12c0.91 0.31 1.84 0.62 2.79 0.96 0.39-2.35 0.78-4.69 1.14-7.02-1.32 2.01-2.62 4.04-3.93 6.06m11.74 7.42c1.15 1.18 3.07 1.04 4.59 1.55 0.71-3.86-2.67-6.34-4.78-9.02-2.32 2-1.3 5.26 0.19 7.47m-22.79 3.4c0.68 0.05 2.05 0.17 2.73 0.22 0.4-2.33 0.82-4.65 1.27-6.96-1.28 2.28-2.64 4.51-4 6.74m11.03 6.38c0.87 2.15 3.64 1.63 5.48 2.33 0.14-3.99-2.85-6.69-5.37-9.29-1.97 2.06-1.35 4.7-0.11 6.96m-21.77 3.22c-0.13 1.37 1.46 1.23 2.37 1.73 0.35-2.41 0.73-4.81 1.06-7.2-1.2 1.78-2.47 3.53-3.43 5.47m10.55 7.37c0.99 1.81 3.39 1.72 5.13 2.33-0.03-1.29-0.04-2.56-0.03-3.83-1.51-1.78-3.01-3.58-4.72-5.14-2.66 1.5-1.06 4.46-0.38 6.64m59.56 39.05c1.83 1.81 3.89 3.38 6.03 4.82 0.91-1.04 1.84-2.07 2.79-3.08-2.9-0.79-5.86-1.4-8.82-1.74m-2.28 6.96c0.15 1.51 0.31 3.03 0.5 4.56 1.08-0.97 2.15-1.94 3.25-2.9-1.27-0.57-2.52-1.12-3.75-1.66m-8.88 3.81c1.85 1.57 3.75 3.2 5.98 4.29 0.91-0.62 3.28-1.96 1.54-2.97-2.35-1.12-4.97-1.39-7.52-1.32m-2.09 6.41c0.11 1.74 0.27 3.49 0.49 5.26 0.92-1.01 1.92-1.98 2.62-3.16-1.02-0.77-2.09-1.44-3.11-2.1m-9.07 4.08c1.93 1.65 4 3.14 6.1 4.61 0.95-1.02 1.96-2.01 2.95-3.01-2.96-0.88-5.97-1.56-9.05-1.6m-2.15 6.78c0.12 1.57 0.26 3.15 0.42 4.75 1.06-1.08 2.15-2.14 3.24-3.21-1.24-0.52-2.46-1.04-3.66-1.54m-9.01 3.48c1.75 1.86 3.74 3.6 6.15 4.6 0.92-0.86 1.74-1.82 2.62-2.73-2.89-0.84-5.8-1.56-8.77-1.87m-2.12 6.9c0.11 1.62 0.27 3.27 0.46 4.91 0.96-0.84 1.92-1.68 2.87-2.56-0.61-1.35-2.2-1.65-3.33-2.35m-9.09 3.77c1.89 1.86 4.06 3.42 6.3 4.89 0.73-1.09 1.89-1.99 2.09-3.35-2.71-0.95-5.56-1.35-8.39-1.54m-8.64 146.72c2.26 1.17 4.7 2.04 7.26 2.34-1-1.64-2.1-3.22-3.21-4.75-1.36 0.79-2.73 1.58-4.05 2.41m-8.47 8.39c0.12 3.33 2.95-1.56 0 0m-19.18 52.63c-0.23 0.89-0.68 2.69-0.91 3.58 4.65 2.89 9.13 6.07 13.84 8.87 2.59 0.02 4.77-2.03 7.05-3.12-4.91-2.96-10.01-5.59-15.14-8.14-1.51-0.81-3.2-1.02-4.84-1.19m-14.41 10.94c4.85 2.71 9.49 5.79 14.07 8.96 1.74-1.32 5.83-1.48 5.84-3.96-5.94-3.4-11.96-6.69-18.23-9.42-0.82 1.36-1.3 2.87-1.68 4.42m-12.77 3.25c0.02 1.4-1.35 3.64 0.55 4.45 4.2 2.75 8.49 5.35 12.57 8.3 2.37-0.99 4.68-2.14 6.91-3.45-6.61-3.19-12.65-8.2-20.03-9.3m-9.63 8.08c-0.44 1.59-0.85 3.21-1.27 4.83 3.46 2.44 6.98 4.81 10.59 7.03 2.15-1.09 4.32-2.16 6.49-3.25-4.99-3.35-10.45-5.94-15.81-8.61m-6.81 17.3c2.63 3.25 6.27-0.64 9.11-1.59-2.37-1.47-4.77-2.86-7.17-4.22-1.08 1.66-2.9 3.73-1.94 5.81z"/>
 </g>
</svg>
