<svg width="800" height="350.61" version="1.1" viewBox="0 0 800 350.61" xmlns="http://www.w3.org/2000/svg">
 <defs>
  <linearGradient id="XMLID_2_" x1="-990.17" x2="-990.17" y1="892.75" y2="1005.1" gradientTransform="matrix(3.793,0,0,3.793,4067.4,-3387.1)" gradientUnits="userSpaceOnUse">
   <stop stop-color="#7ACCEA" offset="0"/>
   <stop stop-color="#78CAE8" offset=".3446"/>
   <stop stop-color="#70C2E4" offset=".5548"/>
   <stop stop-color="#62B6DB" offset=".7289"/>
   <stop stop-color="#4FA4D0" offset=".8824"/>
   <stop stop-color="#3993C4" offset="1"/>
  </linearGradient>
 </defs>
 <g transform="scale(.8228)">
  <path d="m190.68 3e-3c-16.148 0.083-30.625 2.101-41.219 5.926l25.177 207.14-25.177 207.07c16.95 6.121 43.785 7.707 71.627 3.976 65.262-8.75 129.85-19.363 194.31-29.99 44.49-7.338 58.584-52.984 58.584-77.836v-206.51c0-24.851-14.094-70.5-58.584-77.837-64.454-10.629-129.04-21.171-194.31-29.92-10.44-1.399-20.719-2.072-30.408-2.021z" fill="url(#XMLID_2_)"/>
  <path d="m178.76 0.908c-8.247-0.051-15.13 1.185-22.18 2.65-35.481 7.384-72.068 16.509-108.31 25.456-42.967 10.612-48.264 83.657-48.264 94.714v178.55c0 11.054 5.297 84.171 48.265 94.779 36.243 8.951 72.155 18.076 108.31 25.457 7.054 1.441 13.933 2.638 22.18 2.582 21.095-0.139 33.56-5.301 47.216-19.248 16.249-16.604 22.18-44.774 22.18-70.445v-244.73c0-25.666-5.931-53.838-22.18-70.44-13.657-13.954-26.122-19.18-47.217-19.32z" fill="#165288"/>
  <polygon points="392.73 188.52 392.73 128.96 346.84 126.1 346.84 187.61 289.37 186.57 289.37 241.39 346.84 240.34 346.84 302.2 392.73 299.14 392.73 239.44 442.53 238.53 442.53 189.43" fill="#fff"/>
  <path d="m108.16 62.886 65.667-9-71.583 123.75c22.992-1.796 40.988-1.5 49 0 37.871 7.088 60.25 39.701 60.25 96.25 0 63.3-32.176 93.5-73.5 93.5-61.559 0-108-32.503-108-103.67 0-36.375 6.25-65.155 17-86.583 19.203-38.279 61.166-114.25 61.166-114.25zm-31.667 201.17c0 37.374 21.462 47 44.667 47 23.948 0 35.951-9.173 35.951-40.167 0-25.083-13.521-39.522-31.617-41.166-7.333-0.666-20.324-0.559-29.167 0.166-16.388 1.343-19.834 10.029-19.834 34.167z" fill="#fff"/>
 </g>
 <path d="m483.9 270.87v-73.741h58.908v73.741h62.536v-190.38h-62.536v64.244h-58.908v-64.244h-62.429v190.38zm195.51-145.99h11.846c33.296 0 46.315 10.565 46.315 50.264 0 35.964-15.901 51.331-44.928 51.331h-13.233zm19.529 145.99c61.149 0 101.06-27.426 101.06-99.14 0-62.643-38.098-91.243-99.46-91.243h-83.559v190.49h81.959z" fill="#dbdcdd"/>
</svg>
