<svg width="232.6" height="103.3" version="1.1" viewBox="0 0 232.6 103.3" xml:space="preserve" xmlns="http://www.w3.org/2000/svg">
		<linearGradient id="SVGID_1_" x1="220.96" x2="176.62" y1="76.57" y2="-11.23" gradientTransform="matrix(1,0,0,-1,0,106)" gradientUnits="userSpaceOnUse">
		<stop stop-color="#A93058" offset="0"/>
		<stop stop-color="#8C2546" offset=".11"/>
		<stop stop-color="#741C37" offset=".22"/>
		<stop stop-color="#66172E" offset=".33"/>
		<stop stop-color="#61152B" offset=".42"/>
		<stop stop-color="#AB315C" offset="1"/>
	</linearGradient>
	<path d="m187.9 101.2 0.3-41.2c0-21.5 15.4-35.8 37.3-38.8l6.7-1-0.3 20.8c-11 0-25.8 9.5-25.8 20.5v41.4l-15.5 0.1z" fill="url(#SVGID_1_)"/>
		<linearGradient id="SVGID_2_" x1="141.29" x2="160.61" y1="79.701" y2=".9411" gradientTransform="matrix(1,0,0,-1,0,106)" gradientUnits="userSpaceOnUse">
		<stop stop-color="#A93058" offset="0"/>
		<stop stop-color="#8C2546" offset=".11"/>
		<stop stop-color="#741C37" offset=".22"/>
		<stop stop-color="#66172E" offset=".33"/>
		<stop stop-color="#61152B" offset=".42"/>
		<stop stop-color="#AB315C" offset="1"/>
	</linearGradient>
	<path d="m189.8 69.4c0-0.2 0.1-0.1 0.1-0.4 0.3-1.9 0.5-3.8 0.6-5.8v-2.1c-1-23.5-18.3-41.5-40.4-41.5-21.1 0-35.8 15.1-39.4 30.4-1 3.6-1.5 7.3-1.5 11 0 23.1 18.7 41.8 39.2 41.8 17.3 0 35.3-10.2 41.5-25.3l-2-0.7h-22.1c-8.7 9.7-23.6 10.6-33.3 1.9-2.9-2.5-5-5.7-6.4-9.3zm-63.4-16.4 1.2-2.7c4-7.9 11.8-11.7 20.7-11.7s17.1 3.8 21.1 11.7l1.4 2.8h-44.4z" fill="url(#SVGID_2_)"/>
		<linearGradient id="SVGID_3_" x1="74.975" x2="111.63" y1="91.445" y2="32.205" gradientTransform="matrix(1,0,0,-1,0,106)" gradientUnits="userSpaceOnUse">
		<stop stop-color="#A93058" offset="0"/>
		<stop stop-color="#8C2546" offset=".11"/>
		<stop stop-color="#741C37" offset=".22"/>
		<stop stop-color="#66172E" offset=".33"/>
		<stop stop-color="#61152B" offset=".42"/>
		<stop stop-color="#AB315C" offset="1"/>
	</linearGradient>
	<path d="m96.7 61.2c0 11 9 20 20 20v21.6l-3.4-0.1c-21.7-1.7-38.6-19.8-38.6-41.3v-61.4h21.2l0.8 2.6v17.2h17.9v18.8h-17.9z" fill="url(#SVGID_3_)"/>
		<linearGradient id="SVGID_4_" x1="31.792" x2="44.582" y1="98.764" y2="19.994" gradientTransform="matrix(1,0,0,-1,0,106)" gradientUnits="userSpaceOnUse">
		<stop stop-color="#A93058" offset="0"/>
		<stop stop-color="#8C2546" offset=".11"/>
		<stop stop-color="#741C37" offset=".22"/>
		<stop stop-color="#66172E" offset=".33"/>
		<stop stop-color="#61152B" offset=".42"/>
		<stop stop-color="#AB315C" offset="1"/>
	</linearGradient>
	<path d="m44.8 25.8c4.5-7.7 9.3-15.2 14.6-22.4l-3.4-3.3h-22.4c-0.1 0.1-3.6 0.7-3.7 0.8-12.8 17.9-21.2 38.9-24.6 53.4-0.9 3.3-1.3 6.6-1.3 10 0 21.3 15.4 38.2 36.9 38.2 14.6 0 32.6-13.5 36.3-31.6 0.5-2.2 0.8-4.3 0.9-6.6 0-28.2-24.7-38.5-33.3-38.5zm-4 56.9c-10.1-1.1-17.5-10.2-16.4-20.3 0.9-8.6 7.8-15.5 16.4-16.4 10.2 1.1 17.5 10.2 16.4 20.3-0.9 8.7-7.7 15.5-16.4 16.4z" fill="url(#SVGID_4_)"/>
	<path d="m24.3 64.3c0-9.4 7.2-17.3 16.5-18.3-0.7-0.1-1.3-0.1-2-0.1-10.2 0-18.5 8.3-18.5 18.5s8.3 18.5 18.5 18.5c0.7 0 1.3 0 2-0.1-9.4-1-16.5-9-16.5-18.5z" fill="#b63c60"/>
		<linearGradient id="SVGID_5_" x1="30.62" x2="30.62" y1="59.1" y2="22.14" gradientTransform="matrix(1,0,0,-1,0,106)" gradientUnits="userSpaceOnUse">
		<stop stop-color="#A93058" offset="0"/>
		<stop stop-color="#8C2546" offset=".11"/>
		<stop stop-color="#741C37" offset=".22"/>
		<stop stop-color="#66172E" offset=".33"/>
		<stop stop-color="#61152B" offset=".42"/>
		<stop stop-color="#AB315C" offset="1"/>
	</linearGradient>
	<path d="m24.3 64.3c0-9.4 7.2-17.3 16.5-18.3-0.7-0.1-1.3-0.1-2-0.1-10.2 0-18.5 8.3-18.5 18.5s8.3 18.5 18.5 18.5c0.7 0 1.3 0 2-0.1-9.4-1-16.5-9-16.5-18.5z" fill="url(#SVGID_5_)"/>
		<radialGradient id="SVGID_6_" cx="75.33" cy="29.85" r="80.59" gradientTransform="matrix(1,0,0,-1,0,106)" gradientUnits="userSpaceOnUse">
		<stop stop-color="#DD5F87" offset="0"/>
		<stop stop-color="#DD5F87" offset=".09"/>
		<stop stop-color="#D75C83" offset=".11"/>
		<stop stop-color="#AA4162" offset=".25"/>
		<stop stop-color="#8A2E4A" offset=".38"/>
		<stop stop-color="#76223B" offset=".49"/>
		<stop stop-color="#6F1E36" offset=".56"/>
		<stop stop-color="#7B223C" offset=".74"/>
		<stop stop-color="#942B48" offset="1"/>
	</radialGradient>
	<path d="m76.1 72.2-0.8 2.6c-5.9 20.2-26.9 31.7-47.1 25.9-16.1-4.7-27.2-19.5-27.3-36.4 0-3.3 0.4-6.6 1.3-9.8 3.1-13.2 13.7-33.7 27.8-53.5l-0.4-0.9c-12.9 18-24.8 39.5-28.2 54.2-0.9 3.3-1.4 6.6-1.4 10 0.2 21.5 17.8 38.7 39.3 38.5 17.1-0.2 32-11.5 36.9-27.8z" fill="url(#SVGID_6_)"/>
	<path d="m188.7 78.5c-6.5 14.4-21.5 24-37.9 24-12.5 0-24.8-6.3-32.8-16.8l-1.6-2.1 0.9 2.6c7.7 10 19.9 17.1 33.5 17.1 17.3 0 33-10.6 39.2-25.8z" fill="#b63c60"/>
		<linearGradient id="SVGID_7_" x1="73.86" x2="74.73" y1="80.33" y2="80.33" gradientTransform="matrix(1,0,0,-1,0,106)" gradientUnits="userSpaceOnUse">
		<stop stop-color="#711D37" offset=".13"/>
		<stop stop-color="#8D283F" offset=".99"/>
	</linearGradient>
	<polygon points="73.9 0 73.9 47.5 74.7 51.3 74.7 0.9" fill="url(#SVGID_7_)"/>
		<linearGradient id="SVGID_8_" x1="95.315" x2="95.485" y1="105.35" y2="84.82" gradientTransform="matrix(1,0,0,-1,0,106)" gradientUnits="userSpaceOnUse">
		<stop stop-color="#fff" offset="0"/>
		<stop stop-color="#F9EEF4" offset="0"/>
		<stop stop-color="#F0D3E3" offset=".01"/>
		<stop stop-color="#E9BDD5" offset=".02"/>
		<stop stop-color="#E3ACCA" offset=".02"/>
		<stop stop-color="#DFA1C3" offset=".03"/>
		<stop stop-color="#DD9ABE" offset=".05"/>
		<stop stop-color="#DC98BD" offset=".09"/>
		<stop stop-color="#DA94B8" offset=".12"/>
		<stop stop-color="#CD7997" offset=".36"/>
		<stop stop-color="#C4667F" offset=".6"/>
		<stop stop-color="#BF5A71" offset=".82"/>
		<stop stop-color="#BD566C" offset="1"/>
	</linearGradient>
	<polygon points="95 0.9 94.9 20.6 95.8 19.8 95.8 0" fill="url(#SVGID_8_)"/>
		<linearGradient id="SVGID_9_" x1="113.29" x2="113.29" y1="84.5" y2="69.55" gradientTransform="matrix(1,0,0,-1,0,106)" gradientUnits="userSpaceOnUse">
		<stop stop-color="#DD5B87" offset="0"/>
		<stop stop-color="#DD5A86" offset=".01"/>
		<stop stop-color="#DA4D72" offset=".34"/>
		<stop stop-color="#D94666" offset=".66"/>
		<stop stop-color="#D84362" offset=".98"/>
	</linearGradient>
	<polygon points="112.8 20.6 112.8 37.6 113.7 38.5 113.7 19.8" fill="url(#SVGID_9_)"/>
		<linearGradient id="SVGID_10_" x1="191.06" x2="191.06" y1="35.79" y2="4.33" gradientTransform="matrix(1,0,0,-1,0,106)" gradientUnits="userSpaceOnUse">
		<stop stop-color="#E49CBE" offset="0"/>
		<stop stop-color="#DD5C7E" offset="1"/>
	</linearGradient>
	<polygon points="190.6 69.9 190.6 102.9 191.5 102 191.5 69" fill="url(#SVGID_10_)"/>
		<linearGradient id="SVGID_11_" x1="223.25" x2="213.57" y1="62.302" y2="4.2516" gradientTransform="matrix(1,0,0,-1,0,106)" gradientUnits="userSpaceOnUse">
		<stop stop-color="#541022" offset="0"/>
		<stop stop-color="#771E36" offset=".44"/>
		<stop stop-color="#771E36" offset="1"/>
	</linearGradient>
	<path d="m231.7 40.5c-11.2 0.5-20 9.7-20 20.9v40.6l0.9 0.9v-41.5c0-11 9-20 20-20z" fill="url(#SVGID_11_)"/>
		<linearGradient id="SVGID_12_" x1="183.88" x2="107.53" y1="72.959" y2="47.689" gradientTransform="matrix(1,0,0,-1,0,106)" gradientUnits="userSpaceOnUse">
		<stop stop-color="#EFC2D0" offset="0"/>
		<stop stop-color="#D95593" offset=".13"/>
		<stop stop-color="#DB5D97" offset=".16"/>
		<stop stop-color="#DF73A4" offset=".21"/>
		<stop stop-color="#E697B8" offset=".27"/>
		<stop stop-color="#EFC2D0" offset=".33"/>
		<stop stop-color="#EBACC4" offset=".37"/>
		<stop stop-color="#E17DA9" offset=".48"/>
		<stop stop-color="#DB6099" offset=".57"/>
		<stop stop-color="#D95593" offset=".62"/>
		<stop stop-color="#D2518B" offset=".7"/>
		<stop stop-color="#C04575" offset=".81"/>
		<stop stop-color="#A33351" offset=".96"/>
		<stop stop-color="#992C45" offset="1"/>
	</linearGradient>
	<path d="m191.6 52.6c-4.6-19-20.6-32.8-39.8-32.8-22.6 0-38 15.5-41.5 30.8v0.1c-2.8 10.2-1.5 21.1 3.5 30.5l1.6 1-0.8-1.5c-4.9-9.2-6.1-19.8-3.4-29.8v-0.2c3.5-15 18.5-30.1 40.6-30.1 18.3 0 34.3 13.2 38.9 32.1l0.9 3.7z" fill="url(#SVGID_12_)"/>
		<radialGradient id="SVGID_13_" cx="150.54" cy="20.91" r="23.16" gradientTransform="matrix(1,0,0,-1,0,106)" gradientUnits="userSpaceOnUse">
		<stop stop-color="#FAFCFE" offset="0"/>
		<stop stop-color="#F7EBF3" offset=".04"/>
		<stop stop-color="#E9A2C1" offset=".23"/>
		<stop stop-color="#DF6D9E" offset=".39"/>
		<stop stop-color="#D94C87" offset=".51"/>
		<stop stop-color="#D7407F" offset=".57"/>
		<stop stop-color="#D63F7B" offset=".71"/>
		<stop stop-color="#D13D6F" offset=".85"/>
		<stop stop-color="#CB395C" offset=".99"/>
		<stop stop-color="#CA395A" offset="1"/>
	</radialGradient>
	<path d="m127.3 69 0.5 1.2c4.8 12.7 19 19.1 31.7 14.2 3.4-1.3 6.5-3.3 9-6l-0.4-0.9c-8.9 9.6-23.9 10.2-33.5 1.3-2.7-2.5-4.8-5.6-6.1-9z" fill="url(#SVGID_13_)"/>
		<linearGradient id="SVGID_14_" x1="29.59" x2="55.96" y1="105.49" y2="105.49" gradientTransform="matrix(1,0,0,-1,0,106)" gradientUnits="userSpaceOnUse">
		<stop stop-color="#B43A5F" offset="0"/>
		<stop stop-color="#B2375C" offset=".24"/>
		<stop stop-color="#AF3258" offset="1"/>
	</linearGradient>
	<polygon points="56 0.1 29.6 0.1 30 0.9 54.3 0.9" fill="url(#SVGID_14_)"/>
		<linearGradient id="SVGID_15_" x1="21.815" x2="57.385" y1="34.205" y2="49.675" gradientTransform="matrix(1,0,0,-1,0,106)" gradientUnits="userSpaceOnUse">
		<stop stop-color="#fff" offset="0"/>
		<stop stop-color="#F9E6ED" offset=".01"/>
		<stop stop-color="#F0BCCE" offset=".04"/>
		<stop stop-color="#E89BB6" offset=".07"/>
		<stop stop-color="#E283A5" offset=".1"/>
		<stop stop-color="#DF759B" offset=".12"/>
		<stop stop-color="#DE7097" offset=".14"/>
		<stop stop-color="#DC688F" offset=".22"/>
		<stop stop-color="#D24268" offset=".66"/>
		<stop stop-color="#8A273F" offset="1"/>
	</linearGradient>
	<path d="m38.9 45c-10.7 0-19.3 8.7-19.3 19.4s8.7 19.3 19.4 19.3 19.3-8.7 19.3-19.4c-0.1-10.6-8.7-19.3-19.4-19.3zm0 37.8c-10.2 0-18.5-8.3-18.4-18.5 0-10.2 8.3-18.5 18.5-18.4 10.2 0 18.4 8.3 18.4 18.5s-8.3 18.4-18.5 18.4z" fill="url(#SVGID_15_)"/>
		<linearGradient id="SVGID_16_" x1="116.4" x2="117.31" y1="12.695" y2="12.695" gradientTransform="matrix(1,0,0,-1,0,106)" gradientUnits="userSpaceOnUse">
		<stop stop-color="#B0304C" offset="0"/>
		<stop stop-color="#B4334F" offset=".05"/>
		<stop stop-color="#C84161" offset=".36"/>
		<stop stop-color="#D44A6B" offset=".68"/>
		<stop stop-color="#D84D6F" offset=".99"/>
	</linearGradient>
	<polygon points="116.4 83.7 116.4 102 117.3 102.9 117.3 86.3" fill="url(#SVGID_16_)"/>
		<linearGradient id="SVGID_17_" x1="75.524" x2="113.35" y1="28.559" y2=".4087" gradientTransform="matrix(1,0,0,-1,0,106)" gradientUnits="userSpaceOnUse">
		<stop stop-color="#87263C" offset=".08"/>
		<stop stop-color="#A0344D" offset=".12"/>
		<stop stop-color="#B43F5C" offset=".16"/>
		<stop stop-color="#C04664" offset=".2"/>
		<stop stop-color="#C44867" offset=".24"/>
		<stop stop-color="#BB4361" offset=".35"/>
		<stop stop-color="#A13652" offset=".53"/>
		<stop stop-color="#782139" offset=".75"/>
		<stop stop-color="#581126" offset=".91"/>
	</linearGradient>
	<path d="m116.4 102-4-0.1c-16.1-1.3-30-12-35.4-27.2l-0.9-2.6 0.1 2.8c5.6 15.6 19.7 26.4 36.2 27.8l4.9 0.1z" fill="url(#SVGID_17_)"/>
		<linearGradient id="SVGID_18_" x1="168.1" x2="190.08" y1="27.98" y2="27.98" gradientTransform="matrix(1,0,0,-1,0,106)" gradientUnits="userSpaceOnUse">
		<stop stop-color="#EED4E2" offset="0"/>
		<stop stop-color="#DE7DA8" offset="1"/>
	</linearGradient>
	<polygon points="168.5 78.5 188.7 78.5 190.1 77.6 168.1 77.6" fill="url(#SVGID_18_)"/>
		<linearGradient id="SVGID_19_" x1="55.154" x2="39.064" y1="105.52" y2="80.241" gradientTransform="matrix(1,0,0,-1,0,106)" gradientUnits="userSpaceOnUse">
		<stop stop-color="#B1324F" offset=".05"/>
		<stop stop-color="#BD3F5E" offset=".13"/>
		<stop stop-color="#D05276" offset=".28"/>
		<stop stop-color="#DB5E84" offset=".42"/>
		<stop stop-color="#DF6289" offset=".53"/>
		<stop stop-color="#DF648B" offset=".75"/>
		<stop stop-color="#E06B90" offset=".82"/>
		<stop stop-color="#E17799" offset=".88"/>
		<stop stop-color="#E388A7" offset=".93"/>
		<stop stop-color="#E69DB8" offset=".96"/>
		<stop stop-color="#E9B8CD" offset="1"/>
		<stop stop-color="#E9BACF" offset="1"/>
	</linearGradient>
	<path d="m39.8 25.8c5.7-9.8 11.7-19.5 16.2-25.7l-1.7 0.9c-4 5.8-9.4 14.3-15.2 24.4l-0.8 1.3z" fill="url(#SVGID_19_)"/>
		<linearGradient id="SVGID_20_" x1="73.86" x2="95.85" y1="105.56" y2="105.56" gradientTransform="matrix(1,0,0,-1,0,106)" gradientUnits="userSpaceOnUse">
		<stop stop-color="#A33959" offset="0"/>
		<stop stop-color="#9C3554" offset=".03"/>
		<stop stop-color="#842844" offset=".14"/>
		<stop stop-color="#76203A" offset=".24"/>
		<stop stop-color="#711D37" offset=".33"/>
	</linearGradient>
	<polygon points="95.8 0 73.9 0 74.7 0.9 95 0.9" fill="url(#SVGID_20_)"/>
		<linearGradient id="SVGID_21_" x1="94.94" x2="113.73" y1="85.8" y2="85.8" gradientTransform="matrix(1,0,0,-1,0,106)" gradientUnits="userSpaceOnUse">
		<stop stop-color="#882641" offset="0"/>
		<stop stop-color="#982B4B" offset=".1"/>
		<stop stop-color="#B4335D" offset=".33"/>
		<stop stop-color="#C8396B" offset=".55"/>
		<stop stop-color="#D43D72" offset=".78"/>
		<stop stop-color="#D83E75" offset="1"/>
	</linearGradient>
	<polygon points="113.7 19.8 95.8 19.8 94.9 20.6 112.8 20.6" fill="url(#SVGID_21_)"/>
	<polygon points="112.8 37.6 94.9 37.7 95.8 38.5 113.7 38.5" fill="#b63c60"/>
		<linearGradient id="SVGID_22_" x1="41.315" x2="76.505" y1="82.087" y2="57.877" gradientTransform="matrix(1,0,0,-1,0,106)" gradientUnits="userSpaceOnUse">
		<stop stop-color="#DC4B6F" offset="0"/>
		<stop stop-color="#DC4F74" offset=".03"/>
		<stop stop-color="#DA618C" offset=".17"/>
		<stop stop-color="#D96C9A" offset=".3"/>
		<stop stop-color="#D9709F" offset=".42"/>
		<stop stop-color="#E9ACC7" offset=".59"/>
		<stop stop-color="#fff" offset=".81"/>
		<stop stop-color="#E2C8DD" offset=".99"/>
	</linearGradient>
	<path d="m73.9 47.5c-6.4-13-19.5-21.4-34.1-21.8l-1.5 0.8h1.5c14.2 0.3 27.1 8.5 33.3 21.3l1.7 3.4z" fill="url(#SVGID_22_)"/>
		<linearGradient id="SVGID_23_" x1="108.39" x2="92.324" y1="24.222" y2="63.522" gradientTransform="matrix(1,0,0,-1,0,106)" gradientUnits="userSpaceOnUse">
		<stop stop-color="#B0304C" offset="0"/>
		<stop stop-color="#B1324E" offset=".01"/>
		<stop stop-color="#C35272" offset=".21"/>
		<stop stop-color="#D06C8F" offset=".41"/>
		<stop stop-color="#DA7EA3" offset=".6"/>
		<stop stop-color="#E088AF" offset=".8"/>
		<stop stop-color="#E28CB3" offset=".99"/>
	</linearGradient>
	<path d="m113.7 81.1c-10.2-1.1-17.9-9.7-17.9-19.9v-22.7l-0.9-0.9v23.6c0 10.7 8.1 19.7 18.7 20.8l1.7 0.2z" fill="url(#SVGID_23_)"/>
		<linearGradient id="SVGID_24_" x1="173.11" x2="128.85" y1="52.125" y2="52.125" gradientTransform="matrix(1,0,0,-1,0,106)" gradientUnits="userSpaceOnUse">
		<stop stop-color="#CCA1C5" offset="0"/>
		<stop stop-color="#CFA5C7" offset=".01"/>
		<stop stop-color="#E1B9D3" offset=".05"/>
		<stop stop-color="#EBC5DA" offset=".1"/>
		<stop stop-color="#EFC9DC" offset=".15"/>
		<stop stop-color="#D081AB" offset="1"/>
	</linearGradient>
	<path d="m127.3 54.3h47.2l-1.5-0.9h-44.4z" fill="url(#SVGID_24_)"/>
		<linearGradient id="SVGID_25_" x1="127.33" x2="174.46" y1="60.35" y2="60.35" gradientTransform="matrix(1,0,0,-1,0,106)" gradientUnits="userSpaceOnUse">
		<stop stop-color="#D7405E" offset="0"/>
		<stop stop-color="#BE3856" offset=".16"/>
		<stop stop-color="#AA314F" offset=".34"/>
		<stop stop-color="#9E2D4B" offset=".52"/>
		<stop stop-color="#9A2C4A" offset=".7"/>
		<stop stop-color="#B13C5C" offset=".72"/>
		<stop stop-color="#C94B6F" offset=".75"/>
		<stop stop-color="#D7557A" offset=".78"/>
		<stop stop-color="#DC587E" offset=".8"/>
	</linearGradient>
	<path d="m174.5 54.3-2-4c-4.1-8.2-12.5-13.4-21.7-13.3-9.2 0-17.6 5.1-21.7 13.3l-1.8 4 1.3-0.9 1.2-2.7c5.9-11.5 20-16.1 31.5-10.3 4.4 2.2 8 5.8 10.3 10.3l1.3 2.7z" fill="url(#SVGID_25_)"/>
		<linearGradient id="SVGID_26_" x1="127.29" x2="191.5" y1="36.55" y2="36.55" gradientTransform="matrix(1,0,0,-1,0,106)" gradientUnits="userSpaceOnUse">
		<stop stop-color="#942B41" offset="0"/>
		<stop stop-color="#711D33" offset="1"/>
	</linearGradient>
	<polygon points="128.6 69.9 190.6 69.9 191.5 69 127.3 69" fill="url(#SVGID_26_)"/>
		<linearGradient id="SVGID_27_" x1="190.62" x2="212.59" y1="3.57" y2="3.57" gradientTransform="matrix(1,0,0,-1,0,106)" gradientUnits="userSpaceOnUse">
		<stop stop-color="#490A1F" offset="0"/>
		<stop stop-color="#AD345F" offset="1"/>
	</linearGradient>
	<polygon points="190.6 102.9 212.6 102.9 211.7 102 191.5 102" fill="url(#SVGID_27_)"/>
		<linearGradient id="SVGID_28_" x1="232.11" x2="232.11" y1="82.19" y2="66.57" gradientTransform="matrix(1,0,0,-1,0,106)" gradientUnits="userSpaceOnUse">
		<stop stop-color="#A33758" offset="0"/>
		<stop stop-color="#701E3B" offset="1"/>
	</linearGradient>
	<polygon points="231.7 20.7 231.7 40.5 232.6 41.4 232.6 19.8" fill="url(#SVGID_28_)"/>
		<radialGradient id="SVGID_29_" cx="207.77" cy="77.3" r="36.93" gradientTransform="matrix(1,0,0,-1,0,106)" gradientUnits="userSpaceOnUse">
		<stop stop-color="#DADCDE" offset="0"/>
		<stop stop-color="#DBDDDF" offset="0"/>
		<stop stop-color="#EFF0F1" offset="0"/>
		<stop stop-color="#FBFBFB" offset="0"/>
		<stop stop-color="#fff" offset="0"/>
		<stop stop-color="#DADCDE" offset=".11"/>
		<stop stop-color="#DAD2D8" offset=".13"/>
		<stop stop-color="#DAAEC4" offset=".21"/>
		<stop stop-color="#DB91B4" offset=".29"/>
		<stop stop-color="#DB7DA9" offset=".37"/>
		<stop stop-color="#DB71A2" offset=".44"/>
		<stop stop-color="#DB6DA0" offset=".52"/>
		<stop stop-color="#CE4B6F" offset="1"/>
	</radialGradient>
	<path d="m191.6 56.5 0.8-3.7c4-17.5 18.8-30.5 36.8-32l2.5-0.1 0.9-0.9-3.4 0.1c-18.3 1.5-33.6 14.7-37.6 32.7z" fill="url(#SVGID_29_)"/>
		<radialGradient id="SVGID_30_" cx="115.8" cy="47.45" r="114.85" gradientTransform="matrix(1,0,0,-1,0,106)" gradientUnits="userSpaceOnUse">
		<stop stop-color="#DB72A0" offset=".06"/>
		<stop stop-color="#DB6795" offset=".14"/>
		<stop stop-color="#DA507D" offset=".34"/>
		<stop stop-color="#D9436F" offset=".52"/>
		<stop stop-color="#D93E6A" offset=".68"/>
		<stop stop-color="#A93057" offset="1"/>
	</radialGradient>
	<path d="m116.4 83.7 1.6 2c8 10.5 20.3 16.8 32.8 16.8 16.4 0 31.4-9.6 37.9-24h-20.3c-9.4 9.8-24.9 10.2-34.7 0.8-2.6-2.5-4.7-5.6-6-9l-0.5-1.2h64.2v33h20.2v-40.7c0-11.2 8.8-20.4 20-20.9v-19.8l-2.5 0.1c-17.9 1.5-32.8 14.5-36.8 32l-0.8 3.7-0.9-3.7c-4.6-18.9-20.6-32.1-38.9-32.1-22.1 0-37.2 15.1-40.7 30.1v0.2c-2.7 10-1.5 20.7 3.4 29.8l0.8 1.5-1.7-0.2c-10.5-1.2-18.6-10.2-18.6-20.9v-23.5h17.9v-17h-17.9l0.1-19.8h-20.3v50.5l-1.7-3.4c-6.2-12.8-19-21-33.2-21.3h-1.5l0.7-1.3c5.9-10.1 11.2-18.7 15.3-24.4h-24.3c-14.1 19.8-24.7 40.3-27.8 53.5-0.9 3.2-1.3 6.5-1.3 9.9 0.1 21 17.2 37.9 38.2 37.8 16.8-0.1 31.6-11.2 36.3-27.4l0.8-2.6 0.9 2.6c5.4 15.2 19.3 25.9 35.4 27.2l4 0.1zm-77.5 0c-10.7 0-19.3-8.7-19.3-19.4s8.7-19.3 19.4-19.3 19.3 8.7 19.3 19.4c0 10.6-8.7 19.3-19.4 19.3zm88.4-29.4 1.8-4c4.1-8.2 12.5-13.4 21.7-13.3 9.2 0 17.5 5.1 21.7 13.3l2 4z" fill="url(#SVGID_30_)"/>
</svg>
