<svg width="800" height="307.73" enable-background="new 0 0 1260 720" version="1.0" viewBox="0 0 800 307.73" xml:space="preserve" xmlns="http://www.w3.org/2000/svg">

<g transform="matrix(.64516 0 0 .64516 -6.4516 -78.387)">
				<path d="m693.1 479.1-29.4 5.9c-2.1-8.8-8.4-10.2-11.9-10.2-4 0-7.2 1.8-7.2 5.4 0 1.7 0.6 3.5 3.6 4.3l18 4.7c17.8 4.7 27.4 12.7 27.4 27.8 0 23.4-22.8 31.5-40.5 31.5-23.9 0-41.1-11.9-43.8-29l30.7-5.7c2.1 7.7 6.6 10.9 13.1 10.9 4.1 0 8.2-1.4 8.2-5.3 0-1.7-0.7-3.3-4.1-4.3l-18.8-5c-17.6-4.3-25.8-13-25.8-27 0-20.7 17.7-31.1 39.3-31.1 22.7 0.1 38 9.5 41.2 27.1z" fill="#fff"/>
				<path d="m797.2 512.5c-3.7 21.8-21.7 35.9-48.4 35.9-28.2 0-50.2-21.1-50.2-48.1s22-48.1 50.2-48.1c23.6 0 44.2 13.7 48.2 35.1l-30.5 5.5c-2.1-8.3-8.2-13.5-17.7-13.5-11.1 0-19.6 9.3-19.6 21.1 0 12 8.7 21.1 19.6 21.1 9.5 0 15.5-5.8 17.8-14.7z" fill="#fff"/>
				<path d="m894.9 546.3h-30.4v-33.7h-28.5v33.7h-30.4v-92.1h30.4v32.9h28.5v-32.9h30.4z" fill="#fff"/>
				<path d="m1011 546.3h-32.8l-10.6-46.4-10.6 46.4h-32.8l-25.2-92.1h30.8l12.9 47 10.5-47h28.6l10.5 47 12.9-47h30.8z" fill="#fff"/>
				<path d="m1116.1 546.3h-75.1v-92.1h74.4v24.9h-44v10.2h40.2v22h-40.2v10.2h44.6v24.8z" fill="#fff"/>
				<path d="m1127.4 546.3v-92.1h30.4v92.1z" fill="#fff"/>
				<path d="m1250 546.3h-82v-19.6l40.8-47h-39.7v-25.4h79.2v23.6l-36.2 43h37.7v25.4z" fill="#fff"/>
			
				<path d="m703.2 261.5c25.2 0 46.6 8.8 64.3 26.5 17.7 17.4 26.5 38.8 26.5 64.1v83.3h-68.8v-82c0-9.7-2.1-18-6.4-24.9s-9.5-10.4-15.6-10.4c-5.9 0-11.1 3.5-15.3 10.4-4.3 6.9-6.4 15.2-6.4 24.9v82h-69v-83.3c0-25.3 8.8-46.6 26.5-64.1 17.6-17.6 39-26.5 64.2-26.5z" fill="#ff6700"/>
				<path d="m860.2 247.8c-7.3 7.2-11.1 12.6-11.3 16v0.3c0 3.6 3.2 8.6 9.7 14.9l7.6 7.6c6.8 6.9 10.1 15.1 10.1 24.7v124.1h-69.5v-124c0-9.7 3.3-18 10.1-24.7l7.7-7.6c6.4-6.4 9.4-11.3 9.4-15.1v-0.3c-0.3-3.3-4.1-8.7-11.3-15.9l-8.3-8.4c-7.6-7.5-11.3-16.4-11.3-27.1s3.7-19.5 11.3-27 16.4-11.2 27.1-11.2c10.6 0 19.8 3.7 27.1 11.2 7.6 7.5 11.3 16.4 11.3 27.1s-3.7 19.8-11.3 27.1z" fill="#ff6700"/>
				<path d="m991.2 381.4c3-5.8 5-12.6 5.9-20.3h68.7c-1.9 21.7-10.6 40.2-26 55.4v0.1c-17.6 17.7-38.8 26.5-63.6 26.5h-0.8c-24.9 0-46.2-8.8-63.7-26.5v-0.1c-17.7-17.4-26.5-38.7-26.5-63.6v-0.8c0-24.9 8.8-46.2 26.5-63.6 17.6-17.7 39-26.5 64.1-26.5 25 0 46.4 8.8 64.1 26.5 15.5 15.3 24.2 33.9 26 55.4h-68.7c-1-7.7-2.9-14.5-5.9-20.3-4.4-7.9-9.5-11.9-15.6-11.9-5.9 0-11.1 4-15.3 11.9-4.3 8-6.4 17.7-6.4 28.9s2.1 20.7 6.4 28.8c4.3 7.9 9.4 11.9 15.3 12 6-0.1 11.3-4.1 15.5-11.9z" fill="#ff6700"/>
				<path d="m1210.1 359.8 34.8 53.2c2.9 4.4 4.4 8.3 4.4 11.9 0 1.5-0.3 2.8-0.7 4-1.5 4.4-5 6.6-10.1 6.6h-56.8l-35.8-55v54.9h-68.8v-139.5c0-9.5 3.3-17.6 10.1-24.3 6.6-6.6 14.7-10 24.2-10s17.7 3.3 24.3 10c6.8 6.8 10.1 14.9 10.1 24.3v37.2l31.1-55.6c4.8-8.3 11.9-13.5 21.1-15.9 3-0.8 6.1-1.2 9-1.2 5.9 0 11.6 1.5 17.1 4.7 8.3 5 13.5 12 15.9 21.3 0.8 2.9 1.2 5.8 1.2 8.8 0 5.9-1.7 11.6-4.8 17.1z" fill="#ff6700"/>
			
			<linearGradient id="SVGID_1_" x1="383.04" x2="315.09" y1="587.08" y2="103.54" gradientUnits="userSpaceOnUse">
				<stop stop-color="#6E3A8D" offset=".020019"/>
				<stop stop-color="#8F46A7" offset=".026045"/>
				<stop stop-color="#CB5CD6" offset=".037933"/>
				<stop stop-color="#F16AF4" offset=".04669"/>
				<stop stop-color="#FF6FFF" offset=".051299"/>
				<stop stop-color="#FFB5FF" offset=".095474"/>
				<stop stop-color="#FF6FFF" offset=".3236"/>
				<stop stop-color="#FF6FFF" offset="1"/>
			</linearGradient>
			<path d="m223.4 121.5c-18.1 0.1-34.3 2.4-46.1 6.6l28.2 231.9-28.2 231.8c19 6.9 49 8.6 80.2 4.4 73-9.8 145.3-21.7 217.5-33.6 49.8-8.2 65.6-59.3 65.6-87.1v-231.1c0-27.8-15.8-78.9-65.6-87.1-72.1-11.9-144.4-23.7-217.5-33.5-11.7-1.6-23.2-2.3-34.1-2.3z" fill="url(#SVGID_1_)"/>
			
				<linearGradient id="SVGID_00000168084469537777188830000005568137690578276001_" x1="314.38" x2="382.32" y1="621.47" y2="137.98" gradientUnits="userSpaceOnUse">
				<stop stop-color="#6E3A8D" stop-opacity="0" offset=".026508"/>
				<stop stop-color="#B152C1" stop-opacity=".4474" offset=".4144"/>
				<stop stop-color="#FF6FFF" offset=".8935"/>
				<stop stop-color="#F16AF4" offset=".9107"/>
				<stop stop-color="#CB5CD6" offset=".9433"/>
				<stop stop-color="#8F47A7" offset=".9876"/>
				<stop stop-color="#7D4099" offset="1"/>
			</linearGradient>
			<path d="m223.4 121.5c-18.1 0.1-34.3 2.4-46.1 6.6l28.2 231.9-28.2 231.8c19 6.9 49 8.6 80.2 4.4 73-9.8 145.3-21.7 217.5-33.6 49.8-8.2 65.6-59.3 65.6-87.1v-231.1c0-27.8-15.8-78.9-65.6-87.1-72.1-11.9-144.4-23.7-217.5-33.5-11.7-1.6-23.2-2.3-34.1-2.3z" fill="url(#SVGID_00000168084469537777188830000005568137690578276001_)"/>
			<path d="m210.1 122.6c-9.2-0.1-16.9 1.3-24.8 3-39.8 8.2-80.7 18.4-121.3 28.4-48.1 11.9-54 93.6-54 106v199.8c0 12.4 5.9 94.2 54 106.1 40.6 10 80.8 20.2 121.2 28.5 7.9 1.6 15.6 2.9 24.8 2.9 23.6-0.2 37.6-5.9 52.8-21.5 18.2-18.6 24.8-50.1 24.8-78.8v-274c0-28.7-6.6-60.3-24.8-78.8-15.2-15.6-29.1-21.5-52.7-21.6z" fill="#7d3b84"/>
			<path d="m398.2 262.7v68.8l-64.3-1.2v61.4l64.3-1.2v69.2l51.4-3.4v-66.8l55.7-1v-55l-55.7-1v-66.7z" fill="#fff"/>
			<path d="m156.2 262.5c-4.3 0.3-8 0.5-11.6 0.9-30.9 3.6-61.9 7.2-92.8 10.8-9.6 1.1-9.6 1.1-9.6-8.3 0-15.7 0.2-31.4 0-47.1-0.1-5.1 1.5-7.2 6.6-8.2 50.2-9 100.2-18.4 150.4-27.4 29.7-5.3 50.5 16.4 43.1 45.8-4.4 17.6-10.8 34.6-16.5 51.8-27.9 83.1-56 166.2-83.8 249.4-2 6-4.1 8.1-10.8 6.8-16.2-3.2-32.6-5.4-48.8-8.1-8.9-1.5-8.9-1.5-6.2-9.9 21.5-68.7 43-137.4 64.5-206.2 4.6-14.6 9.1-29.1 13.7-43.7 0.6-1.8 1-3.7 1.8-6.6z" fill="#fff"/>
		</g>



</svg>
