<svg width="741.12" height="800" version="1.1" viewBox="0 0 741.12 800" xml:space="preserve" xmlns="http://www.w3.org/2000/svg"><defs><clipPath id="clipPath96"><path d="m0 0h595.28v841.89h-595.28z"/></clipPath><linearGradient id="linearGradient4114" x1="119.9" x2="290.91" y1="243.64" y2="94.078" gradientTransform="matrix(1.2708 0 0 -1.2708 370.1 747.84)" gradientUnits="userSpaceOnUse"><stop stop-color="#ff4000" offset="0"/><stop stop-color="#fe8a27" offset=".82934"/><stop stop-color="#feb741" offset=".91006"/><stop stop-color="#f3f46a" offset=".95777"/><stop stop-color="#f4f66e" offset=".9637"/><stop stop-color="#f7ed6a" offset=".97102"/><stop stop-color="#f6a33d" offset="1"/></linearGradient><linearGradient id="linearGradient1065" x1="457.65" x2="432.39" y1="794.35" y2="705.43" gradientUnits="userSpaceOnUse"><stop stop-color="#e8984f" offset="0"/><stop stop-color="#ea9a39" offset=".17012"/><stop stop-color="#eb9445" offset="1"/></linearGradient><radialGradient id="radialGradient1079" cx="672.43" cy="713.92" r="71.419" gradientTransform="matrix(0 -7.1944 1.6621 0 -511.75 5530.3)" gradientUnits="userSpaceOnUse"><stop stop-color="#0ea8c2" offset="0"/><stop stop-color="#06abc1" offset=".032618"/><stop stop-color="#00c4da" offset=".25"/><stop stop-color="#00dcec" offset=".55627"/><stop stop-color="#02e6f3" offset="1"/></radialGradient></defs><g transform="matrix(1.3333 0 0 -1.3333 -139.58 1070.6)"><g transform="matrix(1.423 0 0 1.423 -44.278 -85.847)" fill="#fff"><g clip-path="url(#clipPath96)" fill="#fff"><g transform="translate(212.65 268.72)"><path d="m0 0c0 2.171-1.504 4.12-3.786 4.12-2.783 0-4.12-2.007-4.62-4.12zm-3.563 11.355c8.461 0 13.248-5.9 13.248-13.86 0-0.947-0.222-3.007-0.222-3.007h-18.091c0.722-3.508 3.618-5.121 6.679-5.121 4.119 0 7.905 2.894 7.905 2.894l3.563-6.736s-4.621-4.173-12.248-4.173c-10.242 0-15.753 7.403-15.753 15.03 0 8.405 5.678 14.973 14.919 14.973" fill="#fff"/></g><g transform="translate(227.18 290.54)"><path d="m0 0h9.63v-27.945c0-2.728 0.501-3.674 2.673-3.674 0.613 0 1.169 0.057 1.169 0.057v-8.35s-1.336-0.168-2.895-0.168c-5.122 0-10.577 1.226-10.577 10.856z" fill="#fff"/></g><g transform="translate(261.97 268.72)"><path d="m0 0c0 2.171-1.504 4.12-3.786 4.12-2.783 0-4.119-2.007-4.62-4.12zm-3.563 11.355c8.461 0 13.248-5.9 13.248-13.86 0-0.947-0.222-3.007-0.222-3.007h-18.092c0.724-3.508 3.618-5.121 6.68-5.121 4.119 0 7.905 2.894 7.905 2.894l3.562-6.736s-4.62-4.173-12.246-4.173c-10.243 0-15.754 7.403-15.754 15.03 0 8.405 5.679 14.973 14.919 14.973" fill="#fff"/></g><g transform="translate(273.21 279.41)"><path d="m0 0h10.13l4.454-15.253c0.557-1.836 1.058-4.954 1.058-4.954h0.111s0.501 3.061 1.058 4.954l4.397 15.253h10.188l-9.742-28.67h-11.746z" fill="#fff"/></g><path d="m308.28 290.54h9.407v-7.514h-9.407zm-0.111-11.133h9.63v-28.669h-9.63z"/><g transform="translate(326.81 260.76)"><path d="m0 0s3.173-2.896 7.293-2.896c1.448 0 2.839 0.391 2.839 1.336 0 2.506-13.416 2.785-13.416 12.136 0 5.4 5.179 8.74 11.803 8.74 6.679 0 10.074-3.284 10.074-3.284l-3.283-6.846s-2.785 2.336-6.791 2.336c-1.449 0-2.84-0.389-2.84-1.39 0-2.171 13.416-2.506 13.416-11.747 0-4.898-4.343-9.073-11.747-9.073-7.18 0-11.467 4.23-11.467 4.23z" fill="#fff"/></g><path d="m351.25 290.54h9.407v-7.514h-9.407zm-0.111-11.133h9.631v-28.669h-9.631z"/><g transform="translate(382.53 290.54)"><path d="m0 0h9.52l-6.57-8.351h-7.459zm-0.501-32.453c3.506 0 6.513 2.616 6.513 6.903 0 4.342-3.007 7.068-6.513 7.068-3.507 0-6.513-2.726-6.513-7.068 0-4.287 3.006-6.903 6.513-6.903m-0.056 21.989c9.075 0 16.31-6.069 16.31-15.086 0-8.962-7.235-14.919-16.254-14.919s-16.255 5.957-16.255 14.919c0 9.017 7.236 15.086 16.199 15.086" fill="#fff"/></g><g transform="translate(403.3 279.41)"><path d="m0 0h9.239v-2.505c0-0.947-0.11-1.782-0.11-1.782h0.11c1.336 2.227 4.066 4.956 9.13 4.956 5.788 0 10.3-2.673 10.3-10.744v-18.595h-9.631v16.813c0 2.67-1.059 3.785-3.174 3.785-3.006 0-4.843-1.668-5.678-4.119-0.388-1.114-0.556-2.394-0.556-3.786v-12.693h-9.63z" fill="#fff"/></g><g transform="translate(114.76 219.14)"><path d="m0 0c2.246 0 3.65 1.244 3.65 3.529 0 2.166-0.802 3.45-4.332 3.45h-2.366v-6.979zm-10.068 12.997h9.988c2.928 0 4.332-0.201 5.576-0.683 3.248-1.244 5.294-4.171 5.294-8.343 0-3.048-1.444-6.377-4.292-7.822v-0.08s0.401-0.52 1.083-1.724l5.576-10.029h-7.822l-5.094 9.667h-3.289v-9.667h-7.02z" fill="#fff"/></g><g transform="translate(132.04 232.13)"><path d="m0 0h17.969v-6.017h-10.95v-5.214h8.745v-6.016h-8.745v-5.416h11.512v-6.016h-18.531z" fill="#fff"/></g><g transform="translate(168.74 232.61)"><path d="m0 0c7.34 0 11.03-3.811 11.03-3.811l-3.369-5.252s-2.928 2.644-6.98 2.644c-6.016 0-8.462-3.851-8.462-8.101 0-5.455 3.769-8.704 8.222-8.704 3.37 0 5.816 2.084 5.816 2.084v2.207h-4.052v5.977h10.269v-16.205h-5.856v0.803c0 0.601 0.041 1.203 0.041 1.203h-0.081s-2.767-2.487-7.54-2.487c-7.341 0-14.079 5.496-14.079 14.88 0 8.343 6.297 14.762 15.041 14.762" fill="#fff"/></g><path d="m186.51 232.13h7.019v-28.679h-7.019z"/><g transform="translate(213.66 240)"><path d="m0 0h6.859l-4.733-6.017h-5.375zm-0.361-30.604c4.292 0 7.742 3.69 7.742 8.583 0 4.692-3.45 8.221-7.742 8.221s-7.741-3.529-7.741-8.221c0-4.893 3.449-8.583 7.741-8.583m0 23.223c8.665 0 15.001-6.419 15.001-14.64 0-8.424-6.336-15.001-15.001-15.001-8.664 0-15 6.577-15 15.001 0 8.221 6.336 14.64 15 14.64" fill="#fff"/></g><g transform="translate(233.08 232.13)"><path d="m0 0h7.1l7.941-13.396c1.124-1.885 2.407-4.895 2.407-4.895h0.08s-0.321 3.089-0.321 4.895v13.396h7.02v-28.679h-7.06l-7.982 13.358c-1.123 1.884-2.407 4.892-2.407 4.892h-0.08s0.321-3.089 0.321-4.892v-13.358h-7.019z" fill="#fff"/></g><g transform="translate(283.13 209.47)"><path d="m0 0c4.853 0 7.821 2.888 7.821 8.382 0 5.455-3.088 8.264-7.821 8.264h-2.888v-16.646zm-9.908 22.663h10.188c9.026 0 14.802-5.255 14.802-14.281 0-9.023-5.776-14.4-14.802-14.4h-10.188z" fill="#fff"/></g><g transform="translate(303.15 232.13)"><path d="m0 0h17.969v-6.017h-10.95v-5.214h8.744v-6.016h-8.744v-5.416h11.512v-6.016h-18.531z" fill="#fff"/></g><g transform="translate(337.4 232.13)"><path d="m0 0h7.622l4.17-12.113c0.645-1.845 1.444-4.733 1.444-4.733h0.081s0.802 2.888 1.445 4.733l4.173 12.113h7.619l2.326-28.679h-7.02l-0.881 12.916c-0.161 2.165 0 4.812 0 4.812h-0.082s-0.96-3.007-1.604-4.812l-3.008-8.302h-6.015l-3.009 8.302c-0.642 1.805-1.604 4.812-1.604 4.812h-0.081s0.159-2.647 0-4.812l-0.882-12.916h-7.06z" fill="#fff"/></g><g transform="translate(371.73 232.13)"><path d="m0 0h7.02v-18.131c0-3.009 1.963-4.612 4.973-4.612 3.008 0 4.974 1.603 4.974 4.612v18.131h7.019v-18.131c0-6.457-4.733-11.03-11.952-11.03-7.302 0-12.034 4.573-12.034 11.03z" fill="#fff"/></g><g transform="translate(412.12 219.14)"><path d="m0 0c2.247 0 3.649 1.244 3.649 3.529 0 2.166-0.8 3.45-4.331 3.45h-2.365v-6.979zm-10.067 12.997h9.987c2.929 0 4.332-0.201 5.575-0.683 3.25-1.244 5.295-4.171 5.295-8.343 0-3.048-1.444-6.377-4.292-7.822v-0.08s0.4-0.52 1.083-1.724l5.575-10.029h-7.821l-5.095 9.667h-3.287v-9.667h-7.02z" fill="#fff"/></g><g transform="translate(442.41 232.61)"><path d="m0 0c7.1 0 10.751-4.051 10.751-4.051l-3.25-5.295s-3.208 2.927-7.18 2.927c-5.494 0-8.101-4.05-8.101-8.182 0-4.252 2.807-8.623 8.101-8.623 4.332 0 7.622 3.531 7.622 3.531l3.61-5.136s-4.052-4.813-11.553-4.813c-8.983 0-15.041 6.377-15.041 14.88 0 8.343 6.417 14.762 15.041 14.762" fill="#fff"/></g><path d="m458.21 232.13h7.019v-28.679h-7.019z"/><g transform="translate(481.83 225.59)"><path d="m0 0s-0.642-3.129-1.164-4.934l-1.644-5.576h5.656l-1.605 5.576c-0.52 1.805-1.163 4.934-1.163 4.934zm4.493-16.125h-8.945l-1.725-6.016h-7.221l9.748 28.679h7.38l9.749-28.679h-7.222z" fill="#fff"/></g><g transform="translate(173.79 282.19)"><path d="m0 0h-12.079v8.351h33.901v-8.351h-12.079v-31.451h-9.743z" fill="#fff"/></g></g></g><g transform="matrix(1.423 0 0 1.423 -503.61 -195.36)"><path d="m578.97 701.58c-6.3445 0.14847-13.268-1.7774-16.618-7.8463l-17.96-37.753c-5.0933-11.503-4.5407-22.945 11.38-22.945 61.82-4.4e-4 52.764-2.3e-4 114.58-2.3e-4 11.05 19.14 23.429 33.719 3.2695 63.45-4.396 2.014-7.5598 4.38-16.503 5.0948z" fill="url(#radialGradient1079)"/><path d="m668.52 697.79c4.8357-2.4417 8.0204-6.3689 9.1875-11.663 0.98611-5.1333-0.18876-10.057-1.8398-14.812-1.8856-5.2597-4.272-10.244-6.5186-14.975-1.9585-4.107-3.6654-7.6261-5.4932-11.355l-99.625-196.18c-2.5559-5.5318-5.5864-12.727-3.0981-18.65 2.9204-5.8403 7.5366-8.2207 15.067-8.2207h42.727c8.3399 0 11.633 6.7582 14.895 12.898l89.798 172.93c2.8677 5.0845 4.6183 9.9876 4.856 15.467 0.16151 5.0554-1.1314 9.9622-3.7676 13.98-0.97314 1.4648-2.0166 2.8867-3.0308 4.3242-10.881 15.146-21.753 30.29-34.488 43.951-2.2949 2.4575-4.5503 4.7314-6.7207 6.7368-2.1699 2.0054-4.2549 3.7432-6.2109 5.1299-1.1686 0.85327-2.5032 1.5246-3.7559 2.0757-1.9187 0.80733-3.9038 1.266-5.9004 1.6128-1.9752 0.31408-3.9465 0.46226-5.8447 0.51557-0.5293 0.0142-1.356 0.0221-1.6365 0.0221 0 0 6.0601-1.0566 11.401-3.7911z" fill="url(#linearGradient4114)"/></g><path d="m447.66 797.57c6.881-3.4745 11.413-9.0626 13.073-16.596 1.4032-7.3045-0.2686-14.31-2.618-21.077-2.6831-7.4844-6.0789-14.577-9.2756-21.309-2.7868-5.8441-5.2158-10.852-7.8165-16.158 18.006 32.614 32.63 60.206 15.095 74.303-4.0153 2.9206-8.6242 4.6808-14.036 5.4667-2.8106 0.44692-5.6157 0.65778-8.3168 0.73363-0.75317 0.0202-1.9295 0.0314-2.3287 0.0314 0 0 8.6232-1.5035 16.223-5.3946z" fill="url(#linearGradient1065)"/></g></svg>
