<svg width="800" height="579.23" version="1.1" viewBox="0 0 600 434.42" xmlns="http://www.w3.org/2000/svg">
 <g transform="matrix(2.2644 0 0 2.2644 -378.14 -4.6874)" fill="#fff">
  <g fill="#fff">
   <path d="m181.49 2.15h15.53l-9.57 27.03h102.04l-4.98 14.43h-117.52z"/>
   <path d="m211.14 2.15h115.87l-66.61 191.76h-15.37l62.06-177.36h-101.09z"/>
   <path d="m342.85 2.07h9.21l28.305 35.73v-35.73h9.225l27.925 35.73v-35.73h14.44v54.745h-14.555l-22.55-28.125v28.125h-14.56l-22.765-28.125v28.125h-14.675z"/>
   <path d="m187.32 193.92 48.13-137.1h15.25l-42.98 122.68h13.83l43-122.68h15.32l-47.93 137.1z"/>
  </g>
 </g>
</svg>
