<svg space="preserve" version="1.1" viewBox="0 0 129.1 180" xmlns="http://www.w3.org/2000/svg">
 <link href="" rel="stylesheet" type="text/css"/>
 <style type="text/css"/>
 <style type="text/css">.st0{fill:#878B8F;}
	.st1{fill:#BC242A;}
	.st2{fill:#E1242B;}
	.st3{fill:#951F22;}</style>
 <g transform="translate(-36.3,-9.9)">
  <g fill="#878b8f">
   <path class="st0" d="m71.9 158.9h-3c-0.3 0-0.5 0.2-0.5 0.5v29.3c0 0.3 0.2 0.5 0.5 0.5h3c0.3 0 0.5-0.2 0.5-0.5v-29.3c0-0.3-0.2-0.5-0.5-0.5z"/>
   <path class="st0" d="m49.8 189.9c3.3 0 6.1-0.6 8.2-1.8 2.8-1.5 4.1-3.9 4.1-7.1 0-4.5-3-7.3-9-8.3-3-0.5-5.2-0.9-6.3-1.1-3.6-0.6-5.4-2-5.4-4.1 0-1.7 0.7-2.9 2.4-3.8 1.4-0.8 3.2-1.2 5.3-1.2 3.1 0 5.4 0.6 6.7 1.7 0.8 0.7 1.4 1.7 1.7 3 0.1 0.2 0.2 0.4 0.5 0.4h3.2c0.1 0 0.3-0.1 0.4-0.2s0.1-0.3 0.1-0.4c-1-5.5-5.4-8.3-13-8.3-3 0-5.6 0.7-7.7 2.1-2.5 1.6-3.8 3.9-3.8 6.9 0 4.5 3.1 7.2 9.3 8.2 3.6 0.5 5.6 0.9 5.9 0.9 3.7 0.8 5.5 2.3 5.5 4.4 0 1.8-0.8 3-2.6 3.9-1.5 0.7-3.4 1.1-5.6 1.1-3.4 0-5.8-0.7-7.4-2-0.8-0.7-1.4-1.6-1.8-2.8-0.1-0.2-0.3-0.3-0.5-0.3h-3.2c-0.2 0-0.3 0.1-0.4 0.2s-0.1 0.3-0.1 0.4c1.6 5.4 6.1 8.2 13.5 8.2z"/>
   <path class="st0" d="m93.5 158.6c-4.6 0-8.4 1.5-11.3 4.3-2.8 2.9-4.2 6.7-4.2 11.3 0 4.7 1.3 8.5 3.7 11.1 2.6 2.9 6.5 4.4 11.5 4.4 3.4 0 6.4-0.7 8.9-2.1 2.3-1.3 4.1-3.3 5.4-6.2 0.1-0.1 0-0.3 0-0.5-0.1-0.1-0.2-0.2-0.4-0.2h-3.3c-0.2 0-0.3 0.1-0.4 0.2-1.9 3.3-5.3 4.9-9.9 4.9-7 0-10.7-3.3-11.3-10v-0.2h0.2l26.2-0.1c0.3 0 0.5-0.2 0.5-0.5v-2.1c0-4.4-1.4-8-4.2-10.6-3-2.3-6.8-3.7-11.4-3.7zm-11.5 13.4v-0.3c0.4-2.8 1.6-5 3.5-6.7 2-1.8 4.7-2.7 7.9-2.7s5.9 0.9 7.9 2.7c1.8 1.6 2.9 3.9 3.2 6.7v0.2h-22.5z"/>
   <path class="st0" d="m161.6 175.2v-2.1c0-4.4-1.4-8-4.2-10.6s-6.6-3.9-11.2-3.9-8.4 1.5-11.3 4.3c-2.8 2.9-4.2 6.7-4.2 11.3 0 4.7 1.3 8.5 3.7 11.1 2.6 2.9 6.5 4.4 11.5 4.4 3.4 0 6.4-0.7 8.9-2.1 2.3-1.3 4.1-3.4 5.4-6.2 0.1-0.1 0-0.3 0-0.5-0.1-0.1-0.2-0.2-0.4-0.2h-3.3c-0.2 0-0.3 0.1-0.4 0.2-1.9 3.3-5.3 4.9-9.9 4.9-7 0-10.7-3.3-11.3-10v-0.2h0.2l26.2-0.1c0.1 0.2 0.3 0 0.3-0.3zm-26.8-3.2v-0.3c0.4-2.8 1.6-5 3.5-6.7 2-1.8 4.7-2.7 7.9-2.7s5.9 0.9 7.9 2.7c1.8 1.6 2.9 3.9 3.2 6.7v0.2h-22.5z"/>
   <path class="st0" d="m124.9 189.4h3.4c0.2 0 0.5-0.2 0.5-0.5v-2.7c0-0.2-0.2-0.4-0.4-0.4h-2.6c-4.3 0-4.6-2-4.6-4.6v-17.2h7.2c0.2 0 0.4-0.2 0.4-0.4v-2.8c0-0.2-0.2-0.4-0.4-0.4h-7.2v-7.6c0-0.2-0.1-0.3-0.4-0.3l-3.2 0.5c-0.2 0-0.3 0.2-0.3 0.4v6.9h-4.8c-0.2 0-0.4 0.2-0.4 0.4v2.8c0 0.2 0.2 0.4 0.4 0.4h4.7v17.9c-0.1 5.1 1 7.6 7.7 7.6z"/>
  </g>
  <polygon class="st1" points="88.4 142.7 69.9 110.8 51.5 142.7" fill="#bc242a"/>
  <polygon class="st2" points="69.9 110.8 88.4 142.7 106.8 110.8" fill="#e1242b"/>
  <polygon class="st3" points="106.8 110.8 88.4 78.9 69.9 110.8" fill="#951f22"/>
  <polygon class="st1" points="88.4 78.9 106.8 110.8 125.2 78.9" fill="#bc242a"/>
  <polygon class="st2" points="125.2 78.9 106.8 47 88.4 78.9" fill="#e1242b"/>
  <polygon class="st3" points="106.8 47 125.2 78.9 143.6 47" fill="#951f22"/>
  <polygon class="st2" points="145.9 42.7 126.4 9.9 106.9 42.7" fill="#e1242b"/>
  <polygon class="st1" points="126.4 9.9 145.9 42.7 165.4 9.9" fill="#bc242a"/>
  <polygon class="st1" points="106.8 42.7 87.3 9.9 67.8 42.7" fill="#bc242a"/>
  <polygon class="st3" points="87.3 9.9 106.8 42.7 126.4 9.9" fill="#951f22"/>
  <polygon class="st2" points="48.3 9.9 67.8 42.7 87.3 9.9" fill="#e1242b"/>
 </g>
</svg>
