<?xml version="1.0" encoding="UTF-8"?>
<svg id="svg29" width="922.62pt" height="1065.1pt" version="1.1" viewBox="0 0 922.62 1065.1" xmlns="http://www.w3.org/2000/svg" xmlns:cc="http://creativecommons.org/ns#" xmlns:dc="http://purl.org/dc/elements/1.1/" xmlns:rdf="http://www.w3.org/1999/02/22-rdf-syntax-ns#">
 <defs id="defs13">
  <filter id="filter859" x="-.074117" y="-.0504" width="1.1482" height="1.1008" color-interpolation-filters="sRGB">
   <feGaussianBlur id="feGaussianBlur861" stdDeviation="15.790659"/>
  </filter>
 </defs>
 <metadata id="metadata35">
  <rdf:RDF>
   <cc:Work rdf:about="">
    <dc:format>image/svg+xml</dc:format>
    <dc:type rdf:resource="http://purl.org/dc/dcmitype/StillImage"/>
    <dc:title/>
   </cc:Work>
  </rdf:RDF>
 </metadata>
 <path id="path4140-6" d="m0.030404 60.22c-1.024-30.232 24.161-60.155 54.997-60.22l813.53 0.068c30.481-0.2251 54.259 30.56 54.059 59.959v1005.1c-6.1587-0.1207-0.3806 0.1208-6.6597 0-10.989-40.454-48.486-81.832-84.955-105.62-48.424-35.503-109.89-46.085-168.82-44.757h-607.26c-9.3376-0.19424-18.25-2.9326-26.075-7.5113-17.163-10.042-29.097-28.938-28.82-49.259" fill="#c90200" stroke-width="9.6607"/>
 <path id="path4140" d="m847.22 0.066553c9.9252 13.346 14.114 29.882 15.746 46.192 2.59 25.2 1.31 50.581-0.16995 75.801-2.77 41.52-7.1899 82.9-11.65 124.26-4.55 40.56-8.6688 81.19-10.799 121.96-1.2 23.62-1.8706 47.299-0.83063 70.939 0.80003 15.02 1.8599 30.22 6.17 44.7 1.79 5.3 3.9008 11.121 8.7407 14.411 3.91 2.61 8.9488 0.89951 12.359-1.7505 7.22-5.56 12.23-13.371 16.98-21.021 9.7-16.37 17.38-33.829 24.57-51.419 5.11-12.09 9.1298-24.601 14.24-36.681 7e-3 -0.0224 0.0367-0.0554 0.048-0.0806v-327.35c0.19965-29.399-23.577-60.184-54.059-59.959z" fill="#e33d38" stroke-width="9.6607"/>
 <path id="path11" d="m71.413 0.0020998c-9.0992 18.414-15.829 38.013-19.78 58.178-6.6 33.22-6.5809 67.29-5.6909 101.01 1.55 46.67 3.9097 93.311 5.4697 139.99 1.52 42.02 2.8098 84.039 3.7998 126.08 0.54 17.25 0.47002 34.52 1.27 51.76 33.44 12.31 68.72 18.681 103.97 23.161 24.97 3.06 50.06 5.1597 75.18 6.4497 57.197 3.1307 114.39 3.1329 171.59 3.3589 12.69 0.15 25.37 0.30029 38.06 0.30029 1.62-17.55 3.5301-35.099 4.3301-52.699 1.7866-24.926 3.5732-61.473 5.3599-98.121 0.78-28.44 1.2499-56.879 1.1499-85.329-0.2-23.66-0.22897-47.33-0.18897-70.98l0.15338-2.7873c3.9324-54.183 15.863-101.51 34.643-142.97l1.314-2.2852c12.988-21.501 31.015-39.493 50.562-55.078z" fill="#e33d38"/>
 <path id="path15" d="m44.958 1.0949c-26.054 5.6445-45.838 32.262-44.928 59.125v382.69l0.052732 0.0439c9.19 8.79 19.37 16.901 31 22.201-0.49-74.66-2.61-149.29-5.48-223.89-0.99-25.67-2.2608-51.33-3.0908-77-0.88-30.12-1.2393-60.4 2.5107-90.36 2.87-22.89 8.3493-45.52 17.279-66.82 0.83572-1.9426 1.8793-3.8867 2.6558-5.9941z" fill="#e33d38"/>
 <path id="path19" d="m0.030161 507.56v350.41c-0.19858 14.576 5.8931 28.411 15.683 38.779l1.7197-19.566c8.81-103.74 12.66-207.85 13.68-311.94 0.05-14.88 0.39961-29.751 0.09961-44.621-10.74-3.45-21.009-8.0898-31.129-13.03z" fill="#e33d38"/>
 <path id="path21" d="m57.083 528.07c0.75 106.41-1.13e-4 212.92-6.8701 319.15-1.32 18.91-2.5601 37.831-4.5601 56.681l-0.02933 0.18015-0.93897 9.4088c3.3318 0.74453 6.7566 1.1735 10.241 1.2472h299.9l3.6973-8.5967c13.98-37.54 37.621-77.657 47.981-116.36 11.688-56.37 14.336-99.968 20.669-145.92 3.02-13.68 4.6601-27.64 6.8701-41.47 3.03-20.83 5.8301-41.71 8.0801-62.65-14.56-0.09-29.12-0.301-43.68-0.271-65.371 1.5745-99.252 2.4089-171.1 3.2007-44.07 0.14-88.279-1.5201-131.98-7.6201-12.86-1.74-25.581-4.32-38.281-6.98z" fill="#e33d38"/>
 <path id="path4145-0" d="m287.99 150.36c83.324-117.98 275.21-124.62 370.73-18.476 69.436 70.886 81.15 205.66-0.7246 271.83 107.23 78.131 101.07 253.59 4.1058 337.64-75.595 70.765-192.62 84.411-287.29 47.458-59.846-24.944-110.91-74.274-133.89-135.05-7.3472-20.706-12.036-40.906-14.548-61.562-6.9463-58.287 21.144-114.72 50.02-163.97 51.685 18.597 101.8 41.662 153.85 59.172-16.786 18.838-36.348 37.918-42.024 63.519-12.921 55.428 34.537 115.81 92.018 113.88 58.206 2.8982 109.65-57.964 94.434-114.85-11.351-33.571-44.56-52.047-74.388-66.78-73.301-34.416-157.59-52.53-216.77-111.1-58.085-60.38-38.401-158.44 4.4681-221.71m161.45 55.308c-64.002 23.79-68.35 123.17-7.004 152.76 52.651 34.054 127.52-14.491 124.99-75.112 1.9321-57.24-65.572-104.82-117.98-77.648z" fill-opacity=".4902" filter="url(#filter859)" stroke-width="9.6607"/>
 <path id="path4145" d="m287.99 150.36c83.324-117.98 275.21-124.62 370.73-18.476 69.436 70.886 81.15 205.66-0.72456 271.83 107.23 78.131 101.07 253.59 4.1058 337.64-75.595 70.765-192.62 84.411-287.29 47.458-59.846-24.944-110.91-74.274-133.89-135.05-7.3472-20.706-12.036-40.906-14.548-61.562-6.9463-58.287 21.144-114.72 50.02-163.97 51.685 18.597 101.8 41.662 153.85 59.172-16.786 18.838-36.348 37.918-42.024 63.519-12.921 55.428 34.537 115.81 92.018 113.88 58.206 2.8982 109.65-57.964 94.434-114.85-11.351-33.571-44.56-52.047-74.388-66.78-73.301-34.416-157.59-52.53-216.77-111.1-58.085-60.38-38.401-158.44 4.4681-221.71m161.45 55.308c-64.002 23.79-68.35 123.17-7.004 152.76 52.651 34.054 127.52-14.491 124.99-75.112 1.9321-57.24-65.572-104.82-117.98-77.648z" fill="#fff" stroke-width="9.6607"/>
</svg>
