<svg width="604.91pt" height="762.05pt" version="1.1" viewBox="0 0 604.91 762.05" xmlns="http://www.w3.org/2000/svg">
 <defs>
  <linearGradient id="a" x1="176.46" x2="350.65" y1="451.48" y2="136.73" gradientTransform="translate(1.2025)" gradientUnits="userSpaceOnUse">
   <stop stop-color="#5a1e5e" offset="0"/>
   <stop stop-color="#6e1e7f" offset=".48"/>
   <stop stop-color="#9c6ba2" offset=".5"/>
   <stop stop-color="#8b548d" offset=".52"/>
   <stop stop-color="#762b7d" offset=".56"/>
   <stop stop-color="#9d3aa4" offset="1"/>
  </linearGradient>
  <filter id="b" x="-.067075" y="-.054275" width="1.1341" height="1.1086" color-interpolation-filters="sRGB">
   <feGaussianBlur stdDeviation="6.3149101"/>
  </filter>
 </defs>
 <path d="m494.67 111.16c10.95-1.21 22.69-2.76 33.13 1.72 8.08 3.55 11.85 12.41 13.16 20.63 1.88 10.84 1.53 21.89 1.58 32.85v267.99c-0.16 12.5 0.44 25.02-0.64 37.49-0.82 7.44-2.08 15.38-6.96 21.36-3.83 4.7-9.92 6.74-15.77 7.35-9.05 0.95-18.15-0.24-27.12-1.41l-393.13-57.58c-8.5-1.33-17.15-2.1-25.39-4.68-3.84-1.22-7.92-3.27-9.57-7.19-1.66-4.23-1.535-8.88-1.605-13.35v-215.03c0.16-6.02 0.625-13 5.605-17.17 6.03-4.8 14-5.84 21.34-7.25l405.37-65.73" fill="url(#a)"/>
 <g transform="translate(-124.09 -37.875)" fill-opacity=".93333" filter="url(#b)">
  <path d="m398.67 210.4c21.1-4.73 43.79-4.14 64 3.99 14.01 5.62 26.78 15.32 34.26 28.62 7.75 13.48 9.13 30.08 5.03 44.97-4.18 15.56-13.94 29.12-25.89 39.72 15.92 8.23 30.34 19.99 39.96 35.24 7.93 12.44 12.18 27.28 11.47 42.05-0.52 13.71-5.32 27.12-13.26 38.27-10.16 14.4-24.91 25.09-40.93 32.14-32.27 14.05-69.83 14.73-102.98 3.26-18.12-6.37-35.06-16.73-47.95-31.08-10.41-11.55-18.06-25.94-20.14-41.46-1.9-13.36 0.66-27.18 6.69-39.2 6.49-13 16.66-23.95 28.5-32.28-10.37-9.81-17.47-23.28-18.49-37.62-1.38-17.12 5.39-33.98 15.77-47.33 15.74-20.19 39.15-33.67 63.96-39.29m-0.27 47.21c-10.44 2.36-20.4 8.71-25.45 18.36-3.32 6.2-3.75 14.13-0.18 20.33 3.73 6.67 10.95 10.72 18.3 12.09 12.89 2.39 26.9-1.82 36.16-11.15 4.98-5.05 8.5-11.99 8.07-19.22-0.22-6.45-3.97-12.44-9.25-16.01-7.97-5.51-18.37-6.46-27.65-4.4m-5.99 102.98c-13.3 1.88-26.52 8.21-34.52 19.29-5.54 7.56-7.66 17.56-5.21 26.66 2.61 9.94 9.77 18.18 18.32 23.63 13.85 8.84 31.28 11.34 47.26 7.97 11.74-2.55 23.18-8.63 30.23-18.59 5.24-7.29 7.31-16.79 5.32-25.57-2.06-9.59-8.57-17.72-16.5-23.25-12.91-9.05-29.4-12.28-44.9-10.14z" fill-opacity=".93333"/>
 </g>
 <g transform="translate(-127.84 -41.624)">
  <path d="m398.67 210.4c21.1-4.73 43.79-4.14 64 3.99 14.01 5.62 26.78 15.32 34.26 28.62 7.75 13.48 9.13 30.08 5.03 44.97-4.18 15.56-13.94 29.12-25.89 39.72 15.92 8.23 30.34 19.99 39.96 35.24 7.93 12.44 12.18 27.28 11.47 42.05-0.52 13.71-5.32 27.12-13.26 38.27-10.16 14.4-24.91 25.09-40.93 32.14-32.27 14.05-69.83 14.73-102.98 3.26-18.12-6.37-35.06-16.73-47.95-31.08-10.41-11.55-18.06-25.94-20.14-41.46-1.9-13.36 0.66-27.18 6.69-39.2 6.49-13 16.66-23.95 28.5-32.28-10.37-9.81-17.47-23.28-18.49-37.62-1.38-17.12 5.39-33.98 15.77-47.33 15.74-20.19 39.15-33.67 63.96-39.29m-0.27 47.21c-10.44 2.36-20.4 8.71-25.45 18.36-3.32 6.2-3.75 14.13-0.18 20.33 3.73 6.67 10.95 10.72 18.3 12.09 12.89 2.39 26.9-1.82 36.16-11.15 4.98-5.05 8.5-11.99 8.07-19.22-0.22-6.45-3.97-12.44-9.25-16.01-7.97-5.51-18.37-6.46-27.65-4.4m-5.99 102.98c-13.3 1.88-26.52 8.21-34.52 19.29-5.54 7.56-7.66 17.56-5.21 26.66 2.61 9.94 9.77 18.18 18.32 23.63 13.85 8.84 31.28 11.34 47.26 7.97 11.74-2.55 23.18-8.63 30.23-18.59 5.24-7.29 7.31-16.79 5.32-25.57-2.06-9.59-8.57-17.72-16.5-23.25-12.91-9.05-29.4-12.28-44.9-10.14z" fill="#fff"/>
 </g>
 <g transform="translate(1.2025)" fill="#9d3aa4">
  <path d="m526.15 0.61568c2.98-0.78 6.32-1.03 9.12 0.53 4.05 2.13 6.15 6.83 6.06 11.28 0.03 15.97-0.01 31.94 0.01 47.91 0.14 6.26-2.88 12.7-8.27 16.05-2.69 1.75-5.94 2.06-9.01 2.64-7.69 1.31-15.34 2.87-23.03 4.13-4.23 0.79-8.6-1.55-10.64-5.26-2.35-3.74-2.02-8.32-1.98-12.54 0.07-13.68 0.12-27.36 0.19-41.04-0.07-7.61 4.79-15.73 12.49-17.59 8.35-2.05 16.72-4.02 25.06-6.11z"/>
  <path d="m438.34 21.976c3.18-0.86 6.8-1.7 9.82 0.17 3.87 2.25 5.55 6.95 5.39 11.25-0.02 14.69 0.01 29.37-0.02 44.05-0.01 5.55-2.38 11.29-6.95 14.59-3.37 2.42-7.7 2.37-11.59 3.25-6.37 1.03-12.65 2.64-19.07 3.26-6.01-0.23-9.63-6.59-9.51-12.09-0.02-14.35 0.12-28.7 0.15-43.06 0-6.95 4.11-14.63 11.24-16.4 6.84-1.7 13.71-3.29 20.54-5.02z"/>
  <path d="m364.37 39.936c6.03-2.23 11.51 3.63 11.58 9.39 0.23 14.02-0.01 28.06 0.04 42.09 0.16 6.47-2.81 14.07-9.41 16.26-7.56 1.55-15.16 2.88-22.75 4.23-5.95 1.02-10.03-5.3-10.06-10.59-0.11-13.64 0.05-27.28 0.08-40.91-0.02-6.62 3.72-14.2 10.7-15.65 6.61-1.58 13.22-3.2 19.82-4.82z"/>
  <path d="m296.18 56.566c5.92-1.95 10.46 4.48 10.23 9.82 0.07 13.32 0.05 26.64 0.01 39.96-0.09 6.23-3.75 13.66-10.61 14.37-6.65 1.04-13.21 2.73-19.9 3.37-5.04-0.54-7.52-6.17-7.51-10.7-0.02-12.7 0.02-25.4 0.09-38.09 0.09-5.9 3.13-12.86 9.38-14.31 6.1-1.49 12.21-2.93 18.31-4.42z"/>
  <path d="m234.14 71.616c5.42-1.97 9.58 3.87 9.52 8.73 0.17 12.35 0.01 24.7 0.08 37.05 0.09 4.64-1.4 9.58-5.01 12.68-2.28 1.98-5.48 1.96-8.27 2.59-4.8 0.71-9.5 2.03-14.33 2.4-4.54-0.51-6.7-5.58-6.83-9.64-0.07-12.02 0.09-24.05 0.17-36.08 0.11-5.1 2.14-11 7.04-13.31 5.81-1.73 11.77-2.91 17.63-4.42z"/>
  <path d="m177.17 85.456c1.79-0.42 3.82-0.92 5.47 0.21 3.2 2.01 4.09 6.11 4.12 9.65-0.01 11.35 0.04 22.71-0.02 34.06-0.15 4.7-1.99 10.13-6.5 12.28-4.69 1.27-9.54 1.79-14.29 2.81-2.19 0.33-4.71 1.16-6.69-0.26-3.05-2.21-3.94-6.26-3.92-9.82 0.04-11 0-22.01 0.11-33.01 0.22-5.1 2.55-11.34 8.08-12.6 4.54-1.12 9.1-2.18 13.64-3.32z"/>
  <path d="m127.19 97.626c4.66-1.55 7.61 3.81 7.74 7.74 0.31 10.68 0.01 21.38 0.14 32.07 0.1 4.29-0.81 8.95-3.92 12.13-1.82 1.94-4.65 2-7.09 2.52-4.01 0.58-7.94 1.69-11.98 2.01-4.01-0.63-5.54-5.26-5.7-8.8-0.12-10.65-0.16-21.31-0.15-31.97 0.1-4.45 1.63-9.65 5.81-11.88 4.96-1.55 10.1-2.52 15.15-3.82z"/>
  <path d="m76.352 109.96c2.66-0.41 5.86-2.28 8.23-0.13 2.61 2.39 3 6.19 2.97 9.53-0.04 9.68 0.06 19.36 0.02 29.04-0.12 4.16-1.49 9.02-5.36 11.18-5.02 1.25-10.19 2.02-15.31 2.8-3.98-0.21-5.36-4.93-5.64-8.23-0.23-9.6-0.05-19.21-0.12-28.82-0.04-4.41 0.96-9.34 4.47-12.32 3.29-1.81 7.18-1.97 10.74-3.05z"/>
 </g>
 <g transform="translate(1.2025)" fill="#5a1e5e">
  <path d="m64.362 455.77c0.4-0.22 1.21-0.65 1.62-0.87 4.7 0.12 9.3 1.42 13.95 2.04 5.07 0.52 7.14 6.21 7.48 10.6 0.21 10.3 0.05 20.61 0.1 30.92 0.01 3.29-0.73 7.11-3.66 9.05-2.26 1.15-4.73-0.18-7.01-0.52-3.54-1.01-7.29-1.35-10.7-2.76-3.72-2.6-4.9-7.49-4.98-11.78-0.03-9.03-0.01-18.06 0.02-27.08-0.03-3.39 0.51-7.23 3.18-9.6z"/>
  <path d="m111.25 462.7c2.5-0.41 5.02 0.52 7.51 0.83 3.58 0.77 7.34 0.84 10.79 2.16 3.93 2.38 5.36 7.37 5.48 11.72 0.06 10.33-0.01 20.67 0.03 31.01-0.01 3.39-0.59 7.31-3.45 9.54-2.3 1.8-5.21 0.32-7.72-0.12-4.05-1.18-8.34-1.62-12.25-3.22-3.88-2.66-5.25-7.71-5.24-12.19 0.03-10.33-0.12-20.66-0.01-30.99 0.13-3.39 1.39-7.44 4.86-8.74z"/>
  <path d="m159.36 471.8c2-1.45 4.53-0.49 6.74-0.22 4.68 0.95 9.47 1.36 14.08 2.59 4.8 2.33 6.6 8.16 6.58 13.16-0.01 11.03 0.02 22.05-0.01 33.08 0.01 3.94-1.4 8.91-5.66 10.11-4.45-0.04-8.68-1.82-13.04-2.56-2.91-0.82-6.34-0.87-8.53-3.2-3.13-3.23-4.2-7.9-4.13-12.28 0.04-10.36-0.06-20.72-0.05-31.07 0.02-3.52 0.95-7.52 4.02-9.61z"/>
  <path d="m214.27 480.74c2.3-1.08 4.86-0.04 7.23 0.23 5.03 1.05 10.19 1.47 15.15 2.82 4.66 2.15 6.84 7.63 7.05 12.5 0.08 12.04-0.01 24.09 0.04 36.14 0.1 3.8-0.94 8.21-4.44 10.3-2.23 1.43-4.88 0.43-7.23-0.04-5.23-1.37-10.59-2.23-15.76-3.8-4.92-2.4-6.94-8.35-6.98-13.51-0.03-11.33-0.06-22.65-0.08-33.97-0.08-4.01 1.16-8.74 5.02-10.67z"/>
  <path d="m274.27 490.81c2.03-0.73 4.19-0.08 6.25 0.19 5.66 1.08 11.38 1.85 17.03 2.99 6.05 1.73 8.88 8.62 8.89 14.44-0.01 12.95 0.05 25.91-0.02 38.87 0.09 4.72-3.03 10.72-8.43 10.34-7.03-1.3-13.97-3.05-20.92-4.67-6.24-2.13-8.82-9.47-8.62-15.56 0.01-12.03-0.09-24.07-0.05-36.1 0-4.13 1.78-8.87 5.87-10.5z"/>
  <path d="m340.36 502.01c2.5-0.73 5.11 0.05 7.61 0.42 6.29 1.23 12.68 1.97 18.93 3.41 5.84 2.1 8.91 8.64 9.05 14.55 0.12 12.99-0.01 25.97 0.06 38.96 0.1 4.08-0.22 8.67-3.29 11.72-2 2.07-5.1 2.94-7.87 2.1-7.28-1.69-14.6-3.24-21.84-5.08-6.22-2.3-9.22-9.47-9.17-15.74-0.05-12.98-0.11-25.97-0.12-38.95-0.06-4.56 2.05-9.77 6.64-11.39z"/>
  <path d="m413.26 514.77c2.15-0.97 4.55-0.43 6.78-0.08 7.31 1.31 14.64 2.44 21.94 3.77 7.15 1.42 11.46 9.02 11.55 15.9 0.03 15.01 0.02 30.03 0 45.04 0.04 4.23-1.93 8.75-5.84 10.73-2.38 1.31-5.21 0.97-7.74 0.37-7.28-1.76-14.6-3.35-21.88-5.07-7.17-1.55-11.4-9.19-11.5-16.11-0.06-14.32-0.18-28.64-0.16-42.96-0.01-4.68 2.26-9.82 6.85-11.59z"/>
  <path d="m496.24 528.85c2.45-0.82 5.07-0.33 7.56 0.05 8 1.41 16.01 2.74 24.01 4.1 8.09 1.25 13.58 9.52 13.51 17.38 0.03 16 0.02 32 0.01 48.01 0.18 4.97-2.55 10.29-7.43 11.97-3.06 1.23-6.32 0.26-9.36-0.43-7.87-1.9-15.77-3.63-23.63-5.52-5.32-1.25-9.27-5.81-11.12-10.77-1.42-3.59-1.2-7.5-1.22-11.26-0.05-13.68-0.13-27.36-0.17-41.03-0.09-5.17 2.68-10.8 7.84-12.5z"/>
 </g>
 <g fill="#fff">
  <path d="m263.22 679.29 13.93-3.34v84.795h-13.925v-3.275c-6.65 4.77-15.515 5.23-23.205 3.12-7.47-2.08-13.42-8.22-15.8-15.53-2.29-6.96-2.52-14.56-1.07-21.72 1.84-9.1 8.12-17.34 16.75-20.94 7.41-3.03 16.04-2.72 23.32 0.55v-23.66m-21.7 37.61c-4.08 4.36-4.93 10.69-4.69 16.43 0.19 5.15 1.94 10.75 6.43 13.75 5.95 3.79 14.35 4.06 19.98-0.52v-31.02c-6.23-5.04-16.21-4.47-21.72 1.36z"/>
  <path d="m411.21 679.29 13.93-3.34v84.795h-13.925v-3.275c-6.65 4.77-15.515 5.23-23.205 3.12-7.47-2.08-13.42-8.22-15.8-15.53-2.29-6.96-2.52-14.56-1.07-21.72 1.84-9.1 8.12-17.34 16.75-20.94 7.41-3.03 16.04-2.72 23.32 0.55v-23.66m-21.7 37.61c-4.08 4.36-4.93 10.69-4.69 16.43 0.19 5.15 1.94 10.75 6.43 13.75 5.95 3.79 14.35 4.06 19.98-0.52v-31.02c-6.23-5.04-16.21-4.47-21.72 1.36z"/>
  <path d="m10.422 682.82c6.94-5.24 16.37-5.71 24.6-3.9 7.09 1.56 13.4 7.14 14.76 14.43 2.29 9-2.96 18.46-10.43 23.32 6.08 3.09 10.46 8.91 12.98 15.14 2.76 8.78-0.22 19.51-7.9 24.9-7.01 5.06-16.19 5.7-24.51 4.61-7.12-0.93-14.2-4.87-17.35-11.54-3.36-7.27-3.65-16.3 0.46-23.34 2.29-4.22 5.8-7.65 9.8-10.26-6.18-4.5-10.61-12.04-9.79-19.85 0.32-5.31 3.06-10.39 7.38-13.51m11.43 8.39c-4.26 1.44-5.39 7.08-3.48 10.77 2.03 3.96 5.68 6.8 9.58 8.79 4.81-3.12 8.81-9.05 7.43-14.96-1.78-5.44-8.81-6.33-13.53-4.6m-6.48 50.86c2.95 8.33 15.02 9.51 20.74 3.48 3.23-3.28 3.49-8.71 1.19-12.57-2.82-4.84-7.61-8.06-12.27-10.94-7.1 3.65-12.8 11.9-9.66 20.03z"/>
  <path d="m347.21 678.74c5.87-2.37 12.56 3.77 10.57 9.82-1.34 5.81-9.53 7.91-13.57 3.58-4.25-3.86-2.5-11.74 3-13.4z"/>
  <path d="m466.33 679.62h67.25v12.75h-26.86v68.32h-14.61v-68.32h-25.78z"/>
  <path d="m534.78 679.61h16l18.435 54.155 20.035-54.155h15.66l-31.64 82.44h-8.11z"/>
  <path d="m79.602 706.44c8.64-8.63 23.97-7.96 32.83-0.03 6.1-5.63 15.11-7.15 23.04-5.4 5.27 1.16 9.94 4.77 12.26 9.67 1.97 3.93 2.255 8.41 2.265 12.74v37.315h-13.99v-37.365c-0.02-3.6-0.835-7.72-3.995-9.89-5.3-3.47-13.1-1.26-16.26 4.16v43.095h-14.075v-39.425c0.24-4.16-2.605-8.29-6.775-9.13-5.12-1.56-10.585 1.31-13.485 5.46v43.095h-14.065v-59.455h9.65z"/>
  <path d="m166.95 703.57c8.23-3.49 17.5-4 26.23-2.4 6.02 1.13 12.04 4.66 14.28 10.64 4.66 11.61 1.76 24.35 3.16 36.45 0.34 3.5 1.71 6.95 4.41 9.31-2.05 3.99-7 4.82-11.02 3.88-2.98-0.9-4.82-3.59-6.38-6.09-4.61 5.18-11.98 6.81-18.65 6.34-5.47-0.3-11.16-2.35-14.63-6.76-3.76-4.81-4.12-11.43-2.91-17.19 1.41-6.32 6.5-11.26 12.38-13.61 7.13-2.86 15.06-3.34 22.62-2.27-0.32-3.77-2.17-7.72-6.02-8.92-6.66-2.18-14.08-1.23-20.47 1.43l-3-10.81m11.59 31.45c-4.99 3.22-5.42 12.77 0.76 14.91 4.94 1.49 11.4 0.95 14.76-3.43 2.92-4.08 2.21-9.38 2.3-14.1-5.97-0.42-12.59-0.81-17.82 2.62z"/>
  <path d="m304.68 706.49c6.78-6.93 17.77-7.74 26.38-4.11l-5.94 12.01c-3.52-2.12-7.92-3.56-11.91-1.89-5.32 2.34-8.63 8.2-8.57 13.93v34.34h-13.96v-59.495h13.97z"/>
  <path d="m335.2 701.28h21.7v59.465h-14.1v-47.975h-7.6z"/>
 </g>
</svg>
