<svg width="800" height="756.16" version="1.1" viewBox="0 0 800 756.16" xml:space="preserve" xmlns="http://www.w3.org/2000/svg">
<g transform="scale(4.2315)" fill="#9b1e1e"><path d="m93.5 0c-47.6 0-57.1 46.9-42 71.7 0.6 0.9 1.3 1.8 2 2.6 0.5-0.5 1.2-0.8 1.9-1 0.3 0 0.6-0.1 1 0h6.7c0.4-0.1 0.8-0.2 1.3-0.3 0.8-0.2 1.7-0.3 2.5-0.2 1.1 0.1 2.1 0.4 3 0.9 0.3 0.2 0.5 0.3 0.8 0.5l0.4 0.3 1.1-0.8 1.2-8.6h8.3c-12.2-11.6-8.4-37.9 12.1-37.9 19.7 0 23 21.7 14.9 33.4h6.8c1.4 0 2.9 0 4.3 0.2 1.5 0.2 2.9 0.9 4.1 1.8 0.7 0.5 1.2 1.2 1.7 1.9l0.6-4.6h12.3s-1.6 8.4-0.9 6.8c11.5-22.1 4.5-66.7-44.1-66.7z"/><path d="m83.699 87.4-0.89844 0.19922-2.2012 17.4h-31.9l0.30078-3.1992c-1 1.2-2.2992 2.0992-3.6992 2.6992-0.2 0-0.40156 0.0992-0.60156 0.19922-0.1 0-0.19883 0.10156-0.29883 0.10156-0.1 0.1-0.20078 0.29844-0.30078 0.39844-11.3 17.4-13.6 73.5 49.6 73.5 56.1 0 64.901-47.199 49.701-73.799-0.1-0.1-0.3-0.0996-0.5-0.0996-0.3 0-0.7-3.9e-4 -1 0.0996-0.3 0.2-0.69961 0.30039-1.0996 0.40039s-0.90039 0.0996-1.4004 0.0996c-1.5 0-2.9012-0.39961-4.2012-1.0996-0.5-0.3-0.99844-0.70156-1.3984-1.1016l-0.70117-0.69922-0.19922 2.1992h-12.301l0.20117-1.8984c-0.5 0.4-1.1012 0.69844-1.7012 0.89844-1.7 0.7-3.6004 1-5.4004 1h-8.7988c1 0.9 2.0996 1.6 3.0996 2.5 0.7 0.6 1.4 1.3004 2 1.9004 0.8 0.9 1.6004 1.6996 2.4004 2.5996 1.8 2.1 3.3004 4.6012 4.4004 7.2012 1.1 2.7 1.6992 5.5996 1.6992 8.5996 0 2.8-0.40078 5.7004-1.3008 8.4004-0.7 2.4-1.8984 4.6992-3.3984 6.6992-1.8 2.2-4.1016 4.1-6.6016 5.5-2.4 1.4-4.9992 2.4004-7.6992 2.9004-1.3 0.2-2.7 0.30078-4 0.30078-1.4 0-2.6996-1e-3 -4.0996-0.20117-2.5-0.2-5.0008-0.79883-7.3008-1.7988s-4.5996-2.4-6.5996-4c-1-0.7-1.8992-1.5004-2.6992-2.4004s-1.4-1.9004-2-2.9004c-1.2-2.3-2.1016-4.9-2.6016-7.5-1.2-5.5-0.29961-11.301 2.4004-16.301 1.2-2.7 2.9008-5.1984 4.8008-7.3984 1.1-1.2 2.2-2.3008 3.5-3.3008 1.1-1 2.2996-1.8992 3.5996-2.6992 1.8-1.2 3.6992-2.2 5.6992-3 1.1-0.4 2.2008-0.8 3.3008-1 2.6 0.8 5.1004 1.9984 7.4004 3.3984l1-8.3984h-1.9004v4h-12.1v-4.1016h-4.2012z"/><path d="m93.3 73.8c-3-1.1-5.8-2.8-8.1-4.9l-0.6 4.9h2.4l-1 7.3h1.7v-3.9h12.2v4.1h3.4l2-15.6c-3.4 3.4-7.5 6.2-12 8.1zm10.2 7.1v-0.2c0.1-0.1 0 0.1 0 0.2z"/></g><g transform="scale(4.2315)" fill="#9b1e1e"><path d="m96.6 94.4v-4.1h4.4v-5.4h-4.4v-4.1h-5.2v4.2h-4.3v5.4h4.4v4.1z"/><path d="m186.8 77.3c-3.3-1.1-6.9 0.2-9.3 3.3-2.4 3.2-3.7 7.2-3.6 11.3-0.1 2.3 0.5 4.6 1.7 6.6 1.8 3.1 5.7 4.3 9 2.8 1.3-0.4 2.2-1.5 2.2-2.8 0.5-4.2 0.5-4.5 0.6-5.4-1.2 0.5-2.3 0.9-3.3 1.2-2 0.6-3.6-0.3-3.9-2.3-0.2-1.4-0.2-2.8 0.1-4.1 0.9-3.9 3.7-5 7.1-2.9 0.3 0.2 0.6 0.3 1 0.4 0.2-1.7 0.4-3.3 0.6-4.8 0.2-2.3 0-2.6-2.2-3.3z"/><path d="m164.8 101.3h5.4c0.1-0.1 0.1-0.1 0.1-0.2 0.7-5.4 1.4-10.7 1.9-16.1 0.3-2-0.1-4.1-1.1-5.9-0.8-1.7-2.8-2.6-4.6-2.1s-3.4 1.5-4.7 2.8l0.3-2.4h-4.4c-0.8 0-1 0.2-1.1 1l-2.9 23c1.7 0 3.4 0.1 5 0 0.2 0 0.5-0.5 0.5-0.7l1.9-13.4c0.2-1.4 0.9-2.7 2-3.6s2.3-0.8 2.8 0.5c0.4 1 0.6 2.1 0.6 3.1z"/><path d="m148.2 77.4c-0.2 0-0.5 0.4-0.5 0.6-0.1 0.7-0.2 1.4-0.3 2.3-0.4-0.6-0.7-1.1-1-1.5-1.2-1.8-3.5-2.5-5.4-1.6-1.4 0.6-2.6 1.5-3.5 2.7-2.8 3.5-4.2 7.8-4.1 12.2-0.1 2.6 0.6 5.2 2 7.4 1.5 2.3 4.5 3 6.8 1.5 0.3-0.2 0.5-0.4 0.7-0.6 0.5-0.4 0.9-0.9 1.3-1.4 0.3-0.4 0.6-0.8 1.1-1.3l-0.4 3.6h5.3l3-23.9h-5zm-7.3 8c1.4-1.6 3.8-1.7 4.8 0.7 1 3 0.2 6.3-2.1 8.5-1.6 1.3-3.8 1-4.5-1.1-0.7-2.9 0-5.8 1.8-8.1z"/><polygon points="129.3 64.1 124.6 101.3 129.8 101.3 134.6 64.1"/><path d="m109.1 64.7c-1.6 12.2-4.6 36.5-4.6 36.5s7.9 0.1 10.5 0c2.7-0.1 5.2-1.5 6.7-3.8 2.1-2.9 3-6.5 2.6-10-0.1-2.5-1.4-4.8-3.6-6 0 0-0.1-0.1-0.1-0.2 2.6-2.4 3.9-5.9 3.6-9.5-0.3-5-2.2-6.9-6.7-7zm4.8 6.8c0-0.2 0.2-0.4 0.4-0.5 1.6-0.5 3.3 0.5 3.7 2.1 0.1 0.2 0.1 0.5 0.1 0.7 0.1 1.2-0.3 2.4-1 3.4-1 1.4-2.1 1.8-4.2 1.6 0.4-2.5 0.7-4.9 1-7.3zm-1.7 13.7c1.1-0.1 2.2 0 3.3 0 1.5 0.1 2.6 1.3 2.7 2.8 0.1 1.3 0 2.5-0.3 3.7-0.4 1.9-2.1 3.3-4 3.3-1 0.1-1.9 0.1-2.9 0z"/><path d="m77.6 101.3 2.2-17.4h2.5l0.8-6.6h-2.4l1-8.2h-5.2c-0.4 2.7-0.7 5.4-1.1 8.2h-1.5s-0.5 0.1-0.5 0.4c-0.3 2-0.5 4-0.8 6.1l1.9 0.1-2.2 17.3z"/><path d="m52.6 101.3h5.2l1.8-13c0.2-1.7 1-3.4 2.2-4.6 1.2-1.1 2.6-0.9 3.2 0.6 0.3 1 0.5 2 0.5 3.1l-1.7 13.9h5.2c0.1-0.1 0.1-0.1 0.1-0.2 0.7-5.4 1.4-10.8 2-16.2 0.2-2-0.2-4.1-1.2-5.9-0.6-1.2-1.7-2-3-2.2-1.7-0.1-3.3 0.5-4.6 1.7-0.5 0.4-1 0.9-1.6 1.4 0.1-0.9 0.2-1.7 0.3-2.5h-4.4c-0.7 0-0.9 0.2-0.9 0.9z"/><path d="m47.5 98.1c2.5-3.2 3.8-7.2 3.7-11.2 0.1-2.2-0.4-4.4-1.5-6.3-1.4-2.9-4.8-4.4-7.9-3.5-2.1 0.5-3.9 1.7-5.2 3.4-2.1 2.7-3.4 6-3.7 9.5-0.4 2.9 0.1 5.9 1.5 8.5 1 2 3.1 3.3 5.4 3.4 3.1 0.1 6-1.3 7.7-3.8zm-7.2-13.3c2-2.1 4-2.1 5.2 0.8 1.1 2.8 0.5 7-2 8.9-1.8 1.4-3.4 1.1-4.4-0.8-1.3-2.1-1-6.6 1.2-8.9z"/><path d="m30.7 64.7h-5.1c-0.6-0.1-1.3 0.3-1.4 1l-7 20-2-19.8c-0.1-1-0.4-1.2-1.3-1.2h-4.6c-1.1 0-1.4 0.3-1.6 1.2l-7.7 35.5h4.9c0.7 0 1-0.2 1.2-0.9l4.9-23.4 2.5 22.5c0.2 1.7 0.2 1.7 2 1.7 0.9 0 1.2-0.2 1.5-1 0 0 7.7-23.2 7.8-23.2v24.1h6v-36.5z"/></g>
</svg>
