<svg width="629.68" height="800" version="1.1" viewBox="0 0 629.68 800" xmlns="http://www.w3.org/2000/svg">
 <path d="m262.42 2.6027e-6a207.73 207.73 0 0 0-207.73 207.73 207.73 207.73 0 0 0 43.377 126.2 262.3 262.3 0 0 0-97.943 203.78 262.3 262.3 0 0 0 262.29 262.29 262.3 262.3 0 0 0 262.29-262.29 262.3 262.3 0 0 0-97.672-204.14 207.73 207.73 0 0 0 43.104-125.83 207.73 207.73 0 0 0-207.73-207.73zm0 140.26a67.468 67.468 0 0 1 67.469 67.469 67.468 67.468 0 0 1-67.469 67.467 67.468 67.468 0 0 1-67.469-67.467 67.468 67.468 0 0 1 67.469-67.469zm0 275.19a122.25 122.25 0 0 1 122.25 122.25 122.25 122.25 0 0 1-122.25 122.25 122.25 122.25 0 0 1-122.25-122.25 122.25 122.25 0 0 1 122.25-122.25z" fill="#b6ff00" stop-color="#000000" stroke-width="15.817" style="paint-order:stroke fill markers"/>
 <g stroke-width="1.3311">
  <path class="cls-2" d="m534.51 20.965 37.718 98.168h20.299l37.718-98.168h-25.717l-22.15 57.73-22.15-57.73z"/>
  <path class="cls-2" d="m460.88 20.965v23.801h22.457v74.369h23.879v-74.369h22.457v-23.801z"/>
 </g>
</svg>
