<?xml version="1.0" encoding="UTF-8"?>
<svg id="svg17" width="2051.7pt" height="639.8pt" version="1.1" viewBox="0 0 2051.7 639.8" xmlns="http://www.w3.org/2000/svg" xmlns:cc="http://creativecommons.org/ns#" xmlns:dc="http://purl.org/dc/elements/1.1/" xmlns:rdf="http://www.w3.org/1999/02/22-rdf-syntax-ns#">
 <metadata id="metadata23">
  <rdf:RDF>
   <cc:Work rdf:about="">
    <dc:format>image/svg+xml</dc:format>
    <dc:type rdf:resource="http://purl.org/dc/dcmitype/StillImage"/>
    <dc:title/>
   </cc:Work>
  </rdf:RDF>
 </metadata>
 <path id="path8" d="m1339.9 174.06v465.58h104.02v-192.1h115.23v192.1h104.02v-465.58h-104.02v180.14h-115.23v-180.14z" fill="#0d6ab3"/>
 <path id="path10" d="m1729.4 174.06h159.32c19.65 0.5 39.38 3.35 57.96 9.93 15.29 5.38 29.7 13.37 42.07 23.87 14.25 12.05 25.74 27.19 34.3 43.73 10.38 19.81 16.91 41.42 21.23 63.3 4.42 22.76 6.45 45.93 7.11 69.08 1.02 47.32-0.03 95.53-13.53 141.27-8.76 29.87-23.82 58.74-47.55 79.43-13.89 12.19-30.48 21.16-48.08 26.69-19.84 6.32-40.78 8.5518-61.54 8.2818h-151.3v-465.58m103.99 93.46v278.92h47.215c12.7-0.49 25.64-4.555 35.12-13.305 12-10.93 18.07-26.65 22-42.03 5.28-21.64 6.64-43.99 7.18-66.18-0.16-18.32 0.42-36.67-0.72-54.97-1.25-20.04-3.5-40.27-10.07-59.35-4.85-13.92-12.83-27.62-25.79-35.37-9.45-5.72-20.7-7.95-31.65-7.72z" fill="#0d6ab3"/>
 <g id="g12" transform="matrix(7.7313 0 0 7.7313 0 .0013541)" fill="#0d6ab3" stroke-width="1.7388">
  <path id="path2-6" d="m107.55 17.492c0 6.5331-3.3556 10.928-8.4532 14.729 0 0-3.8209 2.9695-5.9045 4.3949l16.431 19.861c0.46522-0.63844 5.756-7.0032 5.756-7.0032h40.693v-17.733h-40.69v-12.64l43.369-0.02973 5e-3 -19.064-61.331 0.0052c6.407 3.311 10.117 9.6906 10.117 17.48"/>
  <path id="path4-5" d="m122.55 62.458c-2.8012 3.2269-2.9052 3.6179-3.9198 4.776l12.813 15.506 27.226-0.0052 5e-3 -20.268z"/>
  <path id="path6-6" d="m32.912-1.7515e-4 -32.912 82.745 27.84 0.01043 5.3846-15.355 26.049 0.02156c-0.93541-2.8358-1.4244-6.0212-1.4244-9.5499 0-10.804 7.6553-17.812 14.827-22.683-3.3507-3.9198-8.2227-9.8573-8.2227-17.934 0-7.7506 3.7322-13.982 10.359-17.244zm14.147 23.039 7.985 24.495h-16.175z"/>
  <path id="path8-1" d="m88.106 24.743c2.6626-1.9005 4.7414-4.1573 4.7414-7.1269 0-3.9198-2.5439-6.8894-6.8299-6.8894-4.5187 0-6.8299 2.9695-6.8299 6.8894 0 3.0883 2.539 6.0579 5.4343 9.5026 1.1631-0.71269 3.4842-2.3756 3.4842-2.3756"/>
  <path id="path10-6" d="m73.256 58.215c0 7.013 6.4785 13.353 13.422 13.353 4.865 0 8.4583-1.5392 12.279-4.9838l-17.361-21.316c-4.9888 3.5635-8.3395 6.8894-8.3395 12.947"/>
 </g>
</svg>
