<svg width="800" height="306.31" version="1.1" xmlns="http://www.w3.org/2000/svg">
 <path d="m488.24 17.945c20.046 2.0446 38.047 24.268 38.047 46.269v178.41c0 22.001-18.534 43.647-38.536 45.736l-165.52 17.734c-26.446 2.7557-48.536-21.157-48.536-47.558v-214.37c0-22.135 22.268-47.825 53.648-43.736z" fill="#f00"/>
 <path d="m324.09 234.5 125.92-6.9095c20.268-1.0888 34.882-8.0401 34.882-37.772 0-20.352-5.5276-30.067-20.77-32.286v-0.58627c9.7989-3.3919 16.792-7.8726 16.792-31.114 0-26.591-13.442-36.306-42.043-37.814l-114.78-6.1138zm42.085-61.013 69.555-0.83752c7.9145-0.0837 13.149 1.9682 13.149 11.39 0 8.082-5.2345 10.343-13.149 10.553l-69.555 2.01zm68.718-51.884c6.7838 0.16751 10.72 3.1826 10.72 11.265 0 7.9145-3.9363 10.762-10.72 10.678l-68.718-0.71189v-23.115z" fill="#fff" fill-rule="evenodd"/>
 <path d="m764.18 17.056c20.001 2.089 35.824 21.557 35.824 43.558v184.19c0 22.001-15.823 41.513-35.824 43.602l-168.28 17.69c-26.402 2.7557-48.536-21.157-48.536-47.558v-211.83c0-22.09 22.268-50.358 53.647-46.269z" fill="#f00"/>
 <path d="m214.55 17.945c20.046 2.0446 38.047 24.268 38.047 46.269v178.41c0 22.001-18.534 43.647-38.536 45.736l-165.52 17.734c-26.446 2.7557-48.536-21.157-48.536-47.558v-214.37c0-22.135 22.268-47.825 53.647-43.736z" fill="#f00"/>
 <path d="m37.013 231.14 47.898-2.6377 12.016-26.796 77.876-2.7634 11.179 24.075 38.435-2.1353-63.138-137.46-49.991-2.6377zm124.1-62.049-49.112 0.58617 24.661-54.22z" fill="#fff" fill-rule="evenodd"/>
 <path d="m715.64 224.14-34.296 1.382v-108.86l-48.188 33.796-19.203-30.331 56.226-38.223 45.461 2.3639z" fill="#fff" fill-rule="evenodd" stroke-width="36.369"/>
</svg>
