<svg width="490.7" height="898.38" version="1.1" viewBox="0 0 129.83 237.7" xmlns="http://www.w3.org/2000/svg">
 <path d="m65.777 1.0779c-2.3063 1.643-4.2282 5.365-4.2119 11.046 0.01636 3.4922 0.97323 7.6795 3.6312 12.358-3.5576 4.9316-4.2119 9.4706-2.707 13.821 1.145 3.2959 1.742 4.1546 2.2572 6.1338 1.3085 5.0297-0.13903 11.065-4.0483 20.356-3.165 7.5814-7.2788 15.514-7.2788 25.181 0.01636 2.2082 0.20446 4.3591 0.51524 6.4773 0.36803-0.35985 1.145-1.1041 2.1018-1.9955-0.46617-7.5732 2.5026-15.179 6.142-22.016 5.3078-9.9776 5.9702-20.135 4.9397-25.696 3.7293 4.0401 10.002 10.076 13.674 16.275 1.2431 2.0855 1.9792 4.0647 2.1673 6.0684 0.17175 4.8988-1.3413 8.4074-4.3018 11.85-2.5108 2.9115-1.6439 5.4713-1.5375 5.9702 0.1881 0.83419 1.2104 3.9992 1.9301 6.0684 2.7806-5.5204 10.444-8.6282 13.92-13.216 0.80148 5.6513-3.394 11.024-6.5018 14.631-0.73606 0.80966-1.5457 1.6439-2.4617 2.5353-5.8884 5.7085-9.7486 9.6341-11.801 13.274-0.52342 0.80966-1.374 2.6171-1.7992 4.0156-0.59702 1.742-1.3576 4.7026-2.0037 9.9286-0.48252 3.0669-1.0305 6.7472-1.2104 8.3828-0.40892 3.7293-1.513 9.6423-6.0193 11.335-0.24535 0.0981-0.4907 0.15539-0.74423 0.21264v0.0164c-4.2937 0.95687-8.7018-2.6989-11.9-9.2661-0.66245 0.49888-1.3821 0.95687-2.1673 1.3085 4.3345 10.395 10.869 15.171 16.586 15.171 4.3264 0 7.7531-2.2082 8.849-8.6691 0.56431-3.255 0.96505-6.8617 1.3249-10.362 0.17175-1.6848 0.98958-11.204 2.5026-14.664 1.8565-3.8684 5.9457-7.6141 12.03-13.961 3.7621-3.9583 5.8067-7.2379 6.878-9.8877 3.5412-6.5754-0.85055-22.221-1.7011-25.026-0.02454-0.10632-0.04089-0.13086-0.08996-0.13086-0.08996 0-0.1145 0.0245-0.17992 0.13903-0.0082 0.0245-0.01636 0.0491-0.03271 0.0654-1.5702 2.5926-4.3673 4.9561-6.968 6.878 1.4639-4.0728 1.0714-7.1643 0.4907-9.7732v-0.0163c-0.03271-0.14721-0.08178-0.3026-0.1145-0.44982l-0.0082 0.0164c-2.6334-10.378-13.102-19.62-17.821-24.944-6.1338-6.9026-4.0401-11.343-1.7829-14.173 0.42528 0.63791 0.86691 1.3004 1.3576 1.9792 8.342 11.474 24.061 29.679 32.296 47.009 2.0855 4.3836 3.6884 8.6936 4.5717 12.791 3.2386 17.96-9.1107 36.222-27.651 31.086h-0.0082c-0.12268-0.0327-0.24535-0.0654-0.35167-0.0981-0.50706 1.5866-0.98141 4.1383-1.4476 7.6141 2.8134 1.2022 5.8557 1.9383 8.8081 2.0691 0.22082 8e-3 0.43345 0.0163 0.65427 0.0163 15.228 0.17175 27.152-11.392 24.952-35.65 0 0-0.91598-10.092-6.0602-20.724-8.2438-18.671-23.48-37.146-32.836-49.078-2.9688-3.8029-4.7107-7.0743-5.5858-9.9122-1.7584-5.5122-0.64609-9.7863 1.6111-11.661 0.47435-0.41056 1.0795-0.87263 1.6275-1.1548 0.33531-0.17992 0.21264-0.5733-0.03271-0.61583-0.04907 0-0.12268-0.01718-0.20446-0.01718-0.32714 0-0.96505 0.14476-2.2491 1.0779m-11.27 32.489c-2.4862 0.07361-4.4327 2.1918-4.3673 4.7108 0.08178 2.5353 2.1509 4.5308 4.629 4.4572 1.3658-0.04089 2.5353-0.70334 3.3368-1.6602l0.09814-0.1145c0.5316 3.6476-1.1777 6.5591-5.1851 9.9286-4.0892 3.5004-13.658 8.0721-20.462 13.535-9.5842 7.6959-11.844 16.071-12.425 22.859-0.24862 3.026 0.1881 7.0007 1.001 10.297 1.0182 4.1301 2.4903 7.3033 2.4903 7.3033s0.07688 0.13085 0.1971 0.35985c-0.24862 4.4899 0.19628 12.325 2.6866 18.246 3.3458 7.6386 9.3618 13.887 17.99 12.047 8.71-2.0773 9.6832-16.463 10.681-26.964 0.25353-1.7175 0.51524-2.0119 1.0305-2.4617 1.4067-1.2022 4.7925-4.4409 6.4119-5.8884 0.99776-0.89145 1.8728-1.7829 2.4372-2.936 0.7197-1.3822 0.34349-3.2305 0.34349-3.2305l-0.98141-6.9271c-0.24535 0.98959-1.423 2.3636-3.0914 4.0647-1.7338 1.7829-6.3628 5.8066-6.7799 6.2483-0.4171 0.42527-1.9137 1.5457-2.568 6.8208-1.6684 14.369-4.449 21.149-9.4542 23.439-1.3167 0.62156-2.797 0.92416-4.4409 0.96505-9.1647-0.09-11.578-11.433-11.536-17.641 9e-3 -0.36803 0.01717-0.74424 0.03435-1.0877 2.1313 2.9197 5.2718 5.7985 9.1565 5.2014 6.1886-0.95687 4.2503-11.564 3.3507-14.018-0.86691-2.4699-3.2648-9.8468-8.4597-9.4869-3.6705 0.25353-5.3822 4.629-6.1608 8.3338-0.7107-2.9279-1.0869-6.3628-0.85628-9.0371 0.53977-6.42 2.7046-14.427 11.895-22.319 6.5427-5.6104 13.969-9.6178 18.091-12.93 2.6253-2.0937 4.2609-4.449 5.1769-6.6572-0.25353 2.1427-0.77695 4.4572-1.7911 7.1643-3.8029 10.182-15.367 26.989-15.523 50.747 0 7.2951 0.67881 13.609 1.8156 18.998 0.63792-0.42527 1.2186-0.99776 1.7829-1.6848-0.80966-3.8602-1.2758-8.1375-1.2758-12.685 0-23.709 11.482-40.499 15.22-50.657 1.9628-5.3487 2.0119-9.2498 2.0119-13.102 0-4.7189-1.0305-9.6505-2.0037-11.572-1.0468-1.8401-2.339-2.6662-4.2937-2.6662zm-27.205 72.125c0.7107-2.2736 1.9857-4.3264 4.2192-5.6104 3.6533-1.7338 5.0829 2.707 5.0829 2.707-0.2568 3.0015-2.4985 4.5881-5.006 4.5881-1.4631 0-3.0293-0.55613-4.2961-1.6848m21.373-64.274c-2.4781 0.07361-4.4409 2.1836-4.3509 4.7189 0.05725 2.5189 2.1346 4.4981 4.6208 4.4245 2.4862-0.06543 4.4409-2.1918 4.3591-4.7026-0.07361-2.4781-2.0691-4.4409-4.4818-4.4409zm26.882 26.948c-0.43345 0.46617-2.4944 2.7643-4.4736 4.9725-1.7747 1.9546-3.4595 3.8275-3.8275 4.2446-0.85055 0.95687-1.2922 1.8974-1.1777 2.4044l0.50706 2.5598c0.13903-0.47435 0.67881-1.3494 1.2758-2.0201 0.42528-0.47435 2.4862-2.7725 4.4654-4.9561 1.7665-1.971 3.4513-3.8357 3.8275-4.2691 0.85873-0.93234 1.2922-1.8892 1.1859-2.3799l-0.52342-2.5844c-0.13085 0.48252-0.66245 1.3494-1.2595 2.0282m-35.609 3.8193s-3.6189 2.6171-5.0739 6.0602c-0.88981 2.1182-0.83011 4.4-0.32468 5.504 0.51278 1.1041 1.7199 2.1591 3.2861 0.89144 1.0984-0.89144 1.5727-2.1346 1.8099-3.1977 0.14721-0.62974 0.20446-1.0305 0.20446-1.3413 0-0.38438-0.13085-0.7197-0.4907-0.62156-1.0468 0.35167-0.42528 1.7829-1.1695 2.4699-0.5684 0.35167-2.0405 0.15539-2.3317-1.3167-0.29033-1.4721 0.83011-3.3695 1.8401-4.629 1.0149-1.2676 2.806-2.9115 2.806-2.9115s1.2758-1.0632 0.84237-1.5948c-0.01636-0.0327-0.07361-0.0491-0.12268-0.0491-0.36803 0-1.2758 0.73605-1.2758 0.73605m27.978 27.578 5.7985 2.7807 3.1977-6.9271-5.7821-2.7806zm-11 7.426c2.4453 5.8148 6.1583 10.869 10.436 14.582 0.44163-3.0505 0.92416-5.1933 1.374-6.7308-4.3591-3.165-7.4669-6.5836-9.4706-10.01zm29.998 4.8498 5.7985 2.797 3.1977-6.9189-5.7821-2.7806zm-31.511 14.508 4.9316 4.1383 4.8089-5.8639-4.9397-4.1628zm-1.1041 10.297 4.9397 4.1383 4.8007-5.8884-4.9316-4.1464zm23.227-4.3509c-0.229 0.10631-0.3026 0.4907-0.15539 1.0141 0.15539 0.51523 1.0141 2.7479 1.0141 2.7479 0.61338 1.6766 1.6357 3.623 3.0178 4.6208 1.4803 1.055 2.2409 0.68699 2.5353 0.57249 0.22082-0.12268 1.1695-0.70334 0.8342-2.2409-0.36803-1.6111-0.56431-2.0528-0.85873-2.6416-0.28624-0.58884-0.67881-0.95687-0.91598-0.86691-0.13085 0.0245-0.02454 0.56431-0.02454 0.89963-0.0082 0.58066-0.21264 1.0305-0.70334 1.2513-0.42528 0.1881-1.4885 0.57249-2.2981-0.89962-0.67881-1.1777-1.2676-2.7398-1.513-3.3777-0.19628-0.49888-0.50706-1.1041-0.81784-1.1041-0.03271 0-0.05725 0.0164-0.1145 0.0245" fill="#d5a10f" stroke-width=".81784"/>
 <g transform="translate(3.1893e-7 -47.146)" fill="#fff">
  <path d="m27.685 228.78h-5.1046v-12.578h-4.1848v16.21h9.2894zm3.7025 2.6008c0 2.4754-0.90081 3.3786-2.8916 2.8112a1.4611 1.4611 0 0 1-0.33337-0.1135l-0.9741 3.511c0.22225 0.11113 0.44449 0.1986 0.68092 0.29318 4.6412 1.7307 7.6864-0.83934 7.6864-5.3457v-16.335h-4.1683zm44.213-5.2228h5.4379v-3.4732h-5.4379v-2.9365h6.3056v-3.5465h-10.455v16.21h10.999v-3.4566h-6.8565zm14.347 0h5.4214v-3.4732h-5.4308v-2.9365h6.3033v-3.5465h-10.45v16.21h11.006v-3.4566h-6.8565zm-84.442-9.9561-5.5065 16.198h4.1636l0.94573-2.9696h5.3292l0.90317 2.9696h4.4213l-5.6531-16.198zm0.75658 9.5424 1.5368-5.14 1.5368 5.14zm37.273-9.5424-5.5207 16.21h4.1659l0.94573-2.9696h5.3292l0.90553 2.9696h4.426l-5.6484-16.21zm0.76367 9.5424 1.5273-5.14 1.5368 5.14zm79.888-9.5424h-4.5962l-5.5301 16.21h4.1801l0.91973-2.9696h5.3434l0.90554 2.9696h4.4213zm-3.8444 9.5306 1.5344-5.14 1.5392 5.14zm-9.6937 0.79204c-0.60999-1.4375-0.82751-1.7307-1.4186-2.0026a1.2933 1.2933 0 0 0 0.28371-0.11348c1.8087-0.83461 2.6835-2.927 1.9931-5.2488-0.56271-1.9127-2.0404-2.9578-4.835-2.9578h-6.5657v16.21h4.1588v-6.0716h0.94573c0.67146 0 1.0781 0.29317 1.4186 1.1538l0.22225 0.51542 0.11821 0.29081 1.5723 4.0997h4.3196l-2.0002-5.3221c-0.0756-0.20569-0.13476-0.37828-0.22224-0.5627m-3.485-4.2345c-0.23643 0.29081-0.57689 0.42321-1.3713 0.49887h-1.5983v-3.031h1.2389c0.0993 0 0.19624 0.0236 0.2979 0.0236 0.63601 0.0189 0.89608 0.0969 1.1822 0.27189 0.70929 0.40431 0.85824 1.5084 0.25535 2.2532m-39.361-1.9647v-4.1305h-11.183v3.5465h5.7477l-5.9108 8.5115v4.1446h11.476v-3.5843h-6.029z" stroke-width=".23643"/>
  <g transform="matrix(.23643 0 0 .23643 -59.718 167.32)">
   <path d="m333.7 316.59a42.79 42.79 0 0 1 9 0.87 19.35 19.35 0 0 1 6.94 2.85 13.2 13.2 0 0 1 4.49 5.25 18.5 18.5 0 0 1 1.59 8.1 15.07 15.07 0 0 1-2.37 8.68 17.14 17.14 0 0 1-7 5.69 16.54 16.54 0 0 1 9.5 6.41 21 21 0 0 1 1.11 20.05 17.53 17.53 0 0 1-5.45 6.22 24 24 0 0 1-7.81 3.57 35.23 35.23 0 0 1-9 1.16h-33.43v-68.85zm-1.93 27.87a10.87 10.87 0 0 0 6.66-1.93q2.59-1.92 2.6-6.26a8 8 0 0 0-0.87-4 6.45 6.45 0 0 0-2.31-2.41 9.56 9.56 0 0 0-3.33-1.2 21.52 21.52 0 0 0-3.9-0.34h-14.18v16.1zm0.87 29.22a20.21 20.21 0 0 0 4.25-0.44 10.49 10.49 0 0 0 3.56-1.44 7.36 7.36 0 0 0 2.46-2.75 9.5 9.5 0 0 0 0.92-4.44c0-3.53-1-6.06-3-7.57a12.78 12.78 0 0 0-7.91-2.26h-16.48v18.9z"/>
   <path d="m403.51 316.59 25.76 68.85h-15.73l-5.21-15.33h-25.74l-5.4 15.33h-15.24l26-68.85zm0.87 42.24-8.68-25.27h-0.19l-9 25.27z"/>
   <polygon transform="translate(-141.73 -156.22)" points="625.66 528.93 625.66 541.66 576.96 541.66 576.96 472.81 592.1 472.81 592.1 528.93"/>
   <polygon transform="translate(-141.73 -156.22)" points="649.28 519.48 649.28 541.66 634.14 541.66 634.14 472.81 649.28 472.81 649.28 501.36 676.18 472.81 695.08 472.81 668.17 500.01 697.68 541.66 678.69 541.66 657.96 510.71"/>
   <path d="m596.35 316.59 25.74 68.85h-15.71l-5.21-15.33h-25.74l-5.4 15.33h-15.24l26-68.85zm0.87 42.24-8.68-25.27h-0.19l-9 25.27z"/>
   <polygon transform="translate(-141.73 -156.22)" points="783.97 495.57 783.97 541.66 769.8 541.66 769.8 472.81 784.84 472.81 813.58 519 813.77 519 813.77 472.81 827.94 472.81 827.94 541.66 812.8 541.66 784.17 495.57"/>
   <path d="m711.09 368.47a10.73 10.73 0 0 0 3.33 3.9 14.26 14.26 0 0 0 4.86 2.22 22.74 22.74 0 0 0 5.79 0.73 30.89 30.89 0 0 0 4.34-0.34 15.38 15.38 0 0 0 4.34-1.3 9.49 9.49 0 0 0 3.37-2.66 6.63 6.63 0 0 0 1.35-4.24 6 6 0 0 0-1.78-4.53 14.25 14.25 0 0 0-4.68-2.89 46.84 46.84 0 0 0-6.56-2c-2.44-0.57-4.91-1.22-7.42-1.92a65.71 65.71 0 0 1-7.52-2.37 25.81 25.81 0 0 1-6.56-3.61 17 17 0 0 1-4.67-5.55 16.8 16.8 0 0 1-1.79-8.05 18.07 18.07 0 0 1 2.27-9.21 20.39 20.39 0 0 1 5.93-6.5 25.86 25.86 0 0 1 8.29-3.86 35.11 35.11 0 0 1 9.26-1.25 43.93 43.93 0 0 1 10.36 1.2 26.1 26.1 0 0 1 8.83 3.91 19.81 19.81 0 0 1 6.12 6.89 21.17 21.17 0 0 1 2.26 10.17h-14.65a12.36 12.36 0 0 0-1.3-5.11 8.46 8.46 0 0 0-3-3.18 12.36 12.36 0 0 0-4.19-1.64 25.87 25.87 0 0 0-5.16-0.48 17.52 17.52 0 0 0-3.66 0.39 9.58 9.58 0 0 0-3.33 1.35 8.28 8.28 0 0 0-2.46 2.4 6.52 6.52 0 0 0-1 3.67 6.24 6.24 0 0 0 0.77 3.28 6.86 6.86 0 0 0 3 2.31 38 38 0 0 0 6.26 2.12q4 1.07 10.47 2.7c1.28 0.26 3.07 0.73 5.35 1.4a26 26 0 0 1 6.8 3.23 20.74 20.74 0 0 1 5.83 5.93 16.88 16.88 0 0 1 2.46 9.5 21 21 0 0 1-1.73 8.7 19.16 19.16 0 0 1-5.45 7 26.15 26.15 0 0 1-9 4.58 42.5 42.5 0 0 1-12.39 1.64 43.17 43.17 0 0 1-11-1.4 27.73 27.73 0 0 1-9.45-4.38 21.67 21.67 0 0 1-6.51-7.62 22.76 22.76 0 0 1-2.31-11h14.65a12.59 12.59 0 0 0 1.26 5.88"/>
  </g>
 </g>
 <g transform="matrix(.23274 0 0 .23274 -29.926 211.36)" fill="#fff">
  <path d="m600.31 17.7 14.33 0.02 0.04 69.91-200.07-0.01c-0.15 6.45-1.97 13.56-7.59 17.4-6.17 4.39-14.37 2.85-20.83-0.06l3.38-12.31c2.33 0.7 4.97 1.62 7.32 0.39 3.09-1.85 3.09-5.91 3.35-9.08 0.03-12.54 0.02-25.09-0.01-37.63l14.35-0.01-0.02 29.36 140.72-0.04c-7.02-4.83-12.04-12.09-19.35-16.5-7.8-4.43-17.27-1.6-24.48 2.67-1.76-3.52-3.35-7.13-5.04-10.69 6.33-3.74 13.19-7.12 20.66-7.57 9.39-0.49 18.81 3.34 25.64 9.72 8.07 7.58 14.97 17.15 25.52 21.46 7.4255 1.2962 14.821 0.96036 22.11 0.94z"/>
  <path d="m625.81 17.74 14.1-0.01 0.04 69.89-14.18-0.07z"/>
  <path d="m175.06 30.76 9.99-10.16 11.62 6.57 6.39-6.59 13.41 7.73-9.83 10.5-11.5-6.8-6.93 6.63z"/>
  <path d="m394.54 30.54 10.18-10.13 13.41 8.22-9.99 10.09z"/>
  <path d="m181.35 46.29c4.27-2.82 9.57-3.62 14.6-3.54 5.53 0.22 11.54 1.61 15.35 5.93 3.04 3.71 4.01 8.69 4.05 13.38-0.03 8.53-0.03 17.06-0.01 25.59l-40.29-0.03c0.12-9.57-0.02-19.14 0.06-28.71 0-4.85 2.11-9.87 6.24-12.62m8.2 12.57c-0.81 5.55-0.14 11.21-0.39 16.8l11.58 0.01c-0.21-5.55 0.37-11.15-0.35-16.66-0.67-5.35-9.91-5.32-10.84-0.15z"/>
  <path d="m230.63 46.32 14.17 0.02-0.03 29.31 123.93 0.02-0.03-29.33 14.35-0.02 0.03 40.86-1.15 0.44-137.06 0.02c0.25 6.77-2.09 14.37-8.24 17.96-6.15 3.65-13.81 2.16-19.97-0.68l3.19-12.29c2.52 0.73 5.51 1.79 7.9 0.11 2.56-1.63 2.73-5.05 2.92-7.79 0.01-12.87 0-25.75-0.01-38.63z"/>
  <path d="m538.15 94.98 13.59 8.08-9.79 10.13-13.81-8.06z"/>
  <path d="m307.75 105.04 9.99-10.16 11.62 6.57 6.39-6.59 13.41 7.73-9.83 10.5-11.5-6.8-6.93 6.63z"/>
 </g>
</svg>
