<svg width="600pt" height="434.31pt" version="1.1" viewBox="0 0 600 434.31" xmlns="http://www.w3.org/2000/svg">
 <defs>
  <linearGradient id="linearGradient860" x1="298.96" x2="298.96" y2="268.48" gradientUnits="userSpaceOnUse">
   <stop offset="0"/>
   <stop stop-color="#333" offset=".45"/>
   <stop stop-color="#333" offset="1"/>
  </linearGradient>
 </defs>
 <path d="m298.96 8.647e-8 -83.186 74.706h30.044c7.6278 1.98e-4 13.811 6.1837 13.811 13.811-2e-4 7.6278-6.1837 13.811-13.811 13.811h-60.805l-41.915 37.644h117.16c7.6278 1.9e-4 13.811 6.1837 13.811 13.811 1e-3 7.6289-6.1826 13.814-13.811 13.814h-147.92l-41.918 37.644h204.27c7.6278 2e-4 13.811 6.1837 13.811 13.811-2e-4 7.6278-6.1837 13.811-13.811 13.811h-235.03l-39.66 35.617h600z" fill="#333" stroke-width="1.9195"/>
 <g transform="matrix(1.9195 0 0 1.9195 -81.272 -14.05)" fill="#333">
  <path transform="scale(.75)" d="m372.52 216.6v52.721c0 6.5367-2.2795 8.4668-8.8086 8.4668h-7.9043c7e-3 -0.27538 0.0332-0.54468 0.0332-0.82227 6e-4 -13.683-8.5482-24.776-19.094-24.775-10.545 1e-3 -19.092 11.093-19.092 24.775 0 0.2736 0.0245 0.53909 0.0312 0.81055l-11.26-2e-3c0-17.743-5.8366-40.339-26.581-40.339-12.775 0-19.887 8.7946-24.165 16.286l-0.0137-10.754h-11.059v34.807h-15.561v-34.188h-10.713v40.387c0 9.6905-2.2142 14.367-11.107 16.721v10.746c13.992-2.4267 19.858-7.2436 21.82-19.4h92.572c3.4903 5.8877 8.9596 9.6985 15.127 9.6992 6.1679 9e-5 11.636-3.811 15.127-9.6992h17.297c9.6735-0.0857 15.277-5.621 15.277-16.078v-59.361zm-92.675 34.424c11.517 0 14.103 17.048 14.103 26.75h-38.107c2.5402-11.017 11.495-26.75 24.005-26.75zm56.901 12.482c4.4954-9e-5 8.1389 6.0258 8.1387 13.459-1.1e-4 7.4328-3.6435 13.457-8.1387 13.457-4.4949-6.6e-4 -8.1386-6.0248-8.1387-13.457-2.6e-4 -7.4326 3.6436-13.458 8.1387-13.459z" stroke-width="1.3333"/>
  <path d="m296.88 165.5h9.93v54.33h-9.93z"/>
  <path d="m101.29 172.52h7.05v6.785h-7.05z"/>
  <path d="m123.36 182.89v25.176c0 2.5504 1.6449 5.36 4.565 5.36h11.638c2.1-0.1 3.7324-1.9414 3.7324-4.38v-16.085h8.44v19.055c0 6.8956-3.884 10.127-8.7255 10.127h-17.309c-5.175 0-9.7727-2.9076-11.675-8.0769-4.32 3.27-10.06 3.38-15.1 1.95-6.12-1.99-8.47-7.1369-8.47-14.99 0-8.7653 5.77-15.69 13.64-17.42 3.0077-0.55619 4.5767-0.7165 9.97-0.7165zm-22.965 19.196c0.40782 3.6181 2.39 6.63 5.63 7.54 3.56 0.91 7.9602-2.0075 7.9602-5.52l0.0798-14.88c-5.5517 0-8.018 0-11.04 2.645-2.79 2.645-2.91 6.725-2.63 10.215z"/>
  <g transform="matrix(1 0 0 1.2034 18.129 -63.347)">
   <path d="m113.81 240.04h7.05v6.6978h-7.05z"/>
   <path d="m125.58 240.04h7.05v6.6978h-7.05z"/>
  </g>
  <path d="m113.06 172.52h7.05v6.785h-7.05z"/>
 </g>
 <path d="m298.96 0v268.48h301.04z" fill="url(#linearGradient860)" stroke-width="1.9195"/>
</svg>
