<svg width="1584.9pt" height="407.04pt" version="1.1" viewBox="0 0 1584.9 407.04" xmlns="http://www.w3.org/2000/svg">
 <path d="m225.91 0 79.86 372.26-305.77-26.538z" fill="#fff"/>
 <path d="m225.91 0 231.84 315.29-151.98 56.97z" fill="#999"/>
 <g fill="#fff">
  <path d="m1463.1 39.235h44.01v210.98c0.18 11.2-0.895 22.82-6.0851 32.93-3.47 6.9-9.47 12.42-16.56 15.43-6.73 2.9-14.11 3.83-21.38 3.85h-543.7v58.78c-0.34 14.5-5.41 29.93-17.45 38.86-6.27 4.64-14.04 6.87-21.79 6.92-20.27 0.03-40.51-0.08-60.78 0.05v-52.55c9.24-0.07 18.49-0.42 27.74-0.27 6.44-0.17 13.19 0.74 19.31-1.81 3.38-1.36 5.95-4.34 7.14-7.76 2.41-6.86 2.31-14.25 2.29-21.43v-170h43.54v99.075h62.455v-99.075h43.515v15.975h145.77c8.49 0.11 17.62 1.995 23.93 8.095 7.6601 7.02 9.75 17.96 10.06 27.89v47.115h63.21v-99.055h88.78c7.96-0.01 16.14-0.35 23.81 2.18 7.75 2.48 14.14 8.69 16.92 16.34 4 10.35 2.86 21.61 3.02 32.46v48.075h43.26c5.52 0.04 11.42-1.625 14.89-6.175 2.97-4.31 4.005-9.68 4.095-14.84v-192.04m-149.95 163.79v49.27h33.055c4.12 0.14 8.14-2.565 9.42-6.555 0.6473-2.3233 0.8713-4.6911 0.9563-7.0766v-23.426c-0.1347-2.1682-0.4816-4.313-1.1563-6.4078-1.51-4.19-6.16-5.945-10.29-5.805h-31.985m-287.8 16.025v33.245h134.91c-0.14-8.86 1.3-18.555-3.81-26.395-3.38-5.5-10.34-7.05-16.37-6.85z"/>
  <path d="m1541.6 39.235c14.42 0.05 28.805-0.1 43.235 0-0.04 87.69-0.01 175.49 0 263.19h-43.235c-0.19-87.77 0-175.44 0-263.19z"/>
  <path d="m573.43 83.63c6.94-2.34 15.01-0.02 19.88 5.38 9.45 9.69 10.05 26.51 1.52 36.95-3.88 5.1-10.27 8.51-16.76 7.95-7.53-0.41-13.89-5.88-17.22-12.38-7.05-13.09-2.02-32.51 12.58-37.9z"/>
  <path d="m622.45 83.63c6.64-2.13 14.61-0.34 19.32 4.92 10.74 10.18 10.61 29.2 0.17 39.55-5.13 5.27-13.39 7.47-20.31 4.67-7.05-2.52-11.65-9.28-13.84-16.15-3.62-12.46 1.64-28.54 14.66-32.99z"/>
  <path d="m635 137.25c15.03-0.09 30.05 0 45.08-0.04v115.21h23.99c11.234 0 18.76 0.81976 27.94-1.1502 4.72-0.76 7.42-5.39 8.73-9.59 1.62-5.65 1.555-11.62 1.605-17.45v-71.01c14.27-0.11 28.65 0.02 42.93 0v100.99c-0.31 13.06-2.645 27.33-12.175 37.04-7.94 8.36-19.91 11.08-31.06 11.18h-149.97c-10.65 0.06-22.31 0.63-31.48-5.74-8.78-6.11-12.125-17.19-12.525-27.41v-82.11c0.14-10.6 3.545-22.05 12.565-28.45 8.84-6.19 20.14-5.78 30.44-5.76 14.65 0.04 29.28-0.05 43.93 0.04v-15.75m-41.44 68.4c-2.09 2.67-2.23 6.27-2.24 9.52v25.01c0.16 2.94 0.33 6.19 2.34 8.54 2.07 2.98 6 3.6902 9.4 3.7002l31.95 0.0498c0.09-16.83 0.11-33.645-0.02-50.485h-32.96c-3.13 0.03-6.53 1.065-8.47 3.665z"/>
  <path d="m734.45 329.6c7.37-2.54 16.01 0.37 20.78 6.43 8.95 10.39 8.59 27.51-0.83 37.48-3.41 3.74-8.24 6.28-13.35 6.33-6.47 0.44-12.77-2.9-16.53-8.07-10.77-12.85-6.49-36.27 9.93-42.17z"/>
  <path d="m782.53 329.83c6.23-2.29 13.59-1.04 18.67 3.25 11.85 9.65 12.7 29.51 2.16 40.42-4.35 5.33-11.87 7.35-18.46 5.96-4.63-1-8.58-3.97-11.42-7.68-10.56-12.67-6.64-35.35 9.05-41.95z"/>
 </g>
</svg>
