<svg width="581.5" height="800" version="1.1" viewBox="0 0 523.04 719.43" xmlns="http://www.w3.org/2000/svg">
 <filter id="a" color-interpolation-filters="sRGB">
  <feFlood flood-opacity=".49804" result="flood"/>
  <feComposite in="flood" in2="SourceGraphic" operator="in" result="composite1"/>
  <feGaussianBlur in="composite1" result="blur" stdDeviation="1"/>
  <feOffset dx="-.3" dy="2" result="offset"/>
  <feComposite in="SourceGraphic" in2="offset" result="composite2"/>
 </filter>
 <filter id="b" color-interpolation-filters="sRGB">
  <feFlood flood-opacity=".49804" result="flood"/>
  <feComposite in="flood" in2="SourceGraphic" operator="in" result="composite1"/>
  <feGaussianBlur in="composite1" result="blur" stdDeviation="1"/>
  <feOffset dx="-.3" dy="2" result="offset"/>
  <feComposite in="SourceGraphic" in2="offset" result="composite2"/>
 </filter>
 <filter id="c" color-interpolation-filters="sRGB">
  <feFlood flood-opacity=".49804" result="flood"/>
  <feComposite in="flood" in2="SourceGraphic" operator="in" result="composite1"/>
  <feGaussianBlur in="composite1" result="blur" stdDeviation="1"/>
  <feOffset dx="-.3" dy="2" result="offset"/>
  <feComposite in="SourceGraphic" in2="offset" result="composite2"/>
 </filter>
 <filter id="d" color-interpolation-filters="sRGB">
  <feFlood flood-opacity=".49804" result="flood"/>
  <feComposite in="flood" in2="SourceGraphic" operator="in" result="composite1"/>
  <feGaussianBlur in="composite1" result="blur" stdDeviation="1"/>
  <feOffset dx="-.3" dy="2" result="offset"/>
  <feComposite in="SourceGraphic" in2="offset" result="composite2"/>
 </filter>
 <filter id="e" color-interpolation-filters="sRGB">
  <feFlood flood-opacity=".49804" result="flood"/>
  <feComposite in="flood" in2="SourceGraphic" operator="in" result="composite1"/>
  <feGaussianBlur in="composite1" result="blur" stdDeviation="1"/>
  <feOffset dx="-.3" dy="2" result="offset"/>
  <feComposite in="SourceGraphic" in2="offset" result="composite2"/>
 </filter>
 <filter id="f" color-interpolation-filters="sRGB">
  <feFlood flood-opacity=".49804" result="flood"/>
  <feComposite in="flood" in2="SourceGraphic" operator="in" result="composite1"/>
  <feGaussianBlur in="composite1" result="blur" stdDeviation="1"/>
  <feOffset dx="-.3" dy="2" result="offset"/>
  <feComposite in="SourceGraphic" in2="offset" result="composite2"/>
 </filter>
 <filter id="g" color-interpolation-filters="sRGB">
  <feFlood flood-opacity=".49804" result="flood"/>
  <feComposite in="flood" in2="SourceGraphic" operator="in" result="composite1"/>
  <feGaussianBlur in="composite1" result="blur" stdDeviation="1"/>
  <feOffset dx="-.3" dy="2" result="offset"/>
  <feComposite in="SourceGraphic" in2="offset" result="composite2"/>
 </filter>
 <filter id="h" color-interpolation-filters="sRGB">
  <feFlood flood-opacity=".49804" result="flood"/>
  <feComposite in="flood" in2="SourceGraphic" operator="in" result="composite1"/>
  <feGaussianBlur in="composite1" result="blur" stdDeviation="1"/>
  <feOffset dx="-.3" dy="2" result="offset"/>
  <feComposite in="SourceGraphic" in2="offset" result="composite2"/>
 </filter>
 <filter id="i" color-interpolation-filters="sRGB">
  <feFlood flood-opacity=".49804" result="flood"/>
  <feComposite in="flood" in2="SourceGraphic" operator="in" result="composite1"/>
  <feGaussianBlur in="composite1" result="blur" stdDeviation="1"/>
  <feOffset dx="-.3" dy="2" result="offset"/>
  <feComposite in="SourceGraphic" in2="offset" result="composite2"/>
 </filter>
 <filter id="j" color-interpolation-filters="sRGB">
  <feFlood flood-opacity=".49804" result="flood"/>
  <feComposite in="flood" in2="SourceGraphic" operator="in" result="composite1"/>
  <feGaussianBlur in="composite1" result="blur" stdDeviation="1"/>
  <feOffset dx="-.5" dy="2" result="offset"/>
  <feComposite in="SourceGraphic" in2="offset" result="composite2"/>
 </filter>
 <filter id="k" color-interpolation-filters="sRGB">
  <feFlood flood-opacity=".49804" result="flood"/>
  <feComposite in="flood" in2="SourceGraphic" operator="in" result="composite1"/>
  <feGaussianBlur in="composite1" result="blur" stdDeviation="1"/>
  <feOffset dx="-.4" dy="1.4" result="offset"/>
  <feComposite in="SourceGraphic" in2="offset" result="composite2"/>
 </filter>
 <filter id="l" color-interpolation-filters="sRGB">
  <feFlood flood-opacity=".49804" result="flood"/>
  <feComposite in="flood" in2="SourceGraphic" operator="in" result="composite1"/>
  <feGaussianBlur in="composite1" result="blur" stdDeviation="1"/>
  <feOffset dx="-.4" dy="1.4" result="offset"/>
  <feComposite in="SourceGraphic" in2="offset" result="composite2"/>
 </filter>
 <filter id="m" color-interpolation-filters="sRGB">
  <feFlood flood-opacity=".49804" result="flood"/>
  <feComposite in="flood" in2="SourceGraphic" operator="in" result="composite1"/>
  <feGaussianBlur in="composite1" result="blur" stdDeviation="1"/>
  <feOffset dx="-.4" dy="1.4" result="offset"/>
  <feComposite in="SourceGraphic" in2="offset" result="composite2"/>
 </filter>
 <path transform="matrix(2.1571 0 0 2.1571 11.347 91.081)" d="m112.53 8.4869c-5.858 0.03022-11.587 0.84825-16.997 2.4756-6.4598 1.943-15.532 6.5984-15.482 7.9451 0.01455 0.39831 0.48265 2.8698 1.0397 5.4917l1.0129 4.7667 7.4393 1.9831c2.5178 0.67106 4.8008 1.3717 6.2466 1.8963 5.3595 1.508 10.508 3.4542 14.573 5.5083 1.6391 0.82835 3.1633 1.6232 4.3278 2.3578 0.84965 0.35206 2.633 1.7633 2.1152 0.58979 0.1324-0.14659 0.21839-0.21266 0.3638-0.33691 0.0135-0.01071 0.0254-0.02355 0.0388-0.03447 0.051-0.0666 0.10187-0.13327 0.15246-0.20014 0.0717-0.0948 0.14168-0.19122 0.21238-0.28687 0.22074-0.32008 0.44897-0.63376 0.69815-0.92899 0.0946-0.11213 0.23117-0.26201 0.34314-0.36304 0.0114-0.01032 0.0238-0.01955 0.0356-0.02947 0.0148-0.09705 0.0582-0.20591 0.14057-0.32078 3e-3 -0.0039 0.0116-0.01556 0.0201-0.02724-0.0343-0.04252-0.0589-0.09809-0.0682-0.17679-0.0233-0.19848 0.037-0.21983 0.1287-0.36248 7e-3 -0.01021-0.0153 0.01799-0.0233 0.02724-0.0151 0.03169-0.01 0.01969 0.013-0.01947 0.0501-0.08602 0.10226-0.1622 0.16795-0.23516 7e-3 -0.0082 0.0143-0.01662 0.0212-0.02503 0.0477-0.06472 0.10012-0.12401 0.15402-0.1818 0.0631-0.09035 0.12062-0.18621 0.19534-0.2663 0.0177-0.01818 0.037-0.03495 0.0553-0.05226 0.0196-0.04416 0.0386-0.08859 0.0579-0.13287 0.0148-0.04016 0.0311-0.07063 0.0486-0.09785 0-0.0081-2.1e-4 -0.01643 0-0.02445 0.0101-0.06504 0.0621-0.16997 0.0909-0.23239 0.0295-0.06375 0.0592-0.1279 0.0884-0.1918 5e-3 -7e-3 7e-3 -0.01516 0.0103-0.02281-3e-3 -0.07488 0.18346 0.04322 0.22169-0.04781 0.0214-0.05056 0.28348-0.03261 0.31057-0.08617 0.013-0.01968-0.11414-0.20065-0.10078-0.22016 0.0191-0.0632 0.11512-0.0313 0.19844 0 0.31131 0.79102 0.9892 0.64251 1.0449 0.55039 0.0438-0.07239 0.59624 1.6848 0.64492 1.6412 0.0455-0.08606-1.242-3.0446-1.1869-3.1254 0.0445-0.06522-0.12546-0.16814-0.0854-0.21272l-12.135-8.0633c-0.80145-0.44164-1.3981-0.84885-2.3993-1.3772-4.1534-2.1919-5.1512-3.0055-4.5108-4.2928 6.5767-3.5817 14.009-3.2133 20.478-2.0453 1.1829 0.35831 0.37502 1.5627-1.0974 2.8956-0.72679 0.65792-7.7564 4.8701-9.0934 6.401 0.69667 0.33242 4.536 3.0159 9.8144 6.3874 3.5601-0.58478 17.926-3.5934 19.083-4.0664 0.54168-0.22156 1.9582-2.0834 3.1476-4.1374s2.8071-4.7883 3.5951-6.0765c0.78804-1.2882 1.3452-2.495 1.2382-2.6813-0.10702-0.1863-1.3448-0.92764-2.7507-1.6478-10.799-5.532-22.452-8.3452-33.636-8.2875zm-21.229 35.79c-5.5623 5.6113-10.236 9.8515-14.975 17.243-9.8144 15.305-11.852 36.643-4.9425 52.976 4.2446 10.035 11.329 19.15 20.827 26.797 5.7497 4.6296 9.45 6.4749 16.616 8.2848 2.5064 0.63296 4.7398 0.80194 9.0842 0.68826 6.2391-0.16328 6.7636-0.23652 10.413-1.4555 9.6849-3.2351 18.753-12.264 25.183-25.075 2.2268-4.4363 3.583-8.4306 5.4033-15.913 1.17-4.8096 1.4294-6.8968 1.6304-13.109 0.27686-8.5561-0.10043-11.187-2.3203-16.17-3.5184-7.8982-10.638-12.13-20.37-12.107-3.6995 0.0084-5.251 0.28257-13.072 2.3133-1.5841 0.41134-5.8739 0.87167-9.5328 1.0224-7.0303 0.2896-13.425-0.41464-19.934-2.1949-1.706-0.46663-3.1733-0.78508-3.2608-0.70772-0.34869 0.30822 2.0053 3.4651 4.8483 6.5018 2.0261 2.1642 4.0581 3.7684 6.2467 4.9318l3.2432 1.7246 5.3175-0.2613c5.3272-0.26142 14.041-1.4289 23.848-3.1956 4.4404-0.79993 5.5175-0.85305 7.0791-0.34969 3.3904 1.0928 6.5816 5.7957 7.8951 11.635 0.79978 3.5558 0.68615 12.263-0.20775 15.915-1.6409 6.7033-5.3971 13.088-9.8769 16.789-4.0123 3.3143-10.049 6.423-14.696 7.5676-1.1428 0.28149-2.4762 0.61068-2.9636 0.73107-4.2372 1.0465-13.194 1.3956-14.423 1.0385-0.23522-0.0684-1.8871-0.39755-2.8417-0.65101-0.88532-0.23507-2.9742-0.86527-4.608-1.5806-9.5324-4.1734-16.677-13.521-20.814-27.231-2.3015-7.6278-1.9046-14.326-0.99989-19.597 1.4601-8.5056 3.0637-13.761 6.1039-18.423 2.7444-4.0397 6.7461-9.6496 11.185-14.129 3.4891-3.5213 6.3776-6.6814 12.402-9.5679-2.0688-1.0766-4.3925-2.1474-7.035-3.0919-3.3366 3.1146-7.7553 5.8884-10.453 8.6522zm29.021-7.8267c3e-3 0.01265 6e-3 0.02664 0.01 0.03891-8e-3 -0.01043-0.0326-0.03714-0.0299-0.03614 3e-3 -6e-3 0.0108-0.0045 0.0201-0.0029zm-0.60719 0.84226c0.0273-0.02357-0.0721 0.04301-0.0904 0.0795-3e-3 0.0032 1.5e-4 3e-3 -3e-3 0.0061 0.0272-0.02727 0.0545-0.05301 0.093-0.08562zm-0.15762 0.23128c-3e-3 0.0105-7e-3 0.02447-8e-3 0.03336 3e-3 -0.0041 5e-3 -0.0082 8e-3 -0.01225 8e-5 -0.0071 3e-5 -0.0141 0-0.02111zm-0.74464 1.4516c-3e-3 0.0024-3e-3 0.0033-3e-3 5e-3 0 0.0016 3e-3 -0.0029 3e-3 -0.0045v-5.29e-4z" fill="#57b24c" filter="url(#j)" stroke-width=".4596"/>
 <path transform="matrix(1.5253 1.5253 -1.5253 1.5253 11.347 91.081)" d="m78.332-103.84h14.325v14.325h-14.325z" fill="#e53531" filter="url(#k)" stroke="#e53531" stroke-linecap="round" stroke-linejoin="round" stroke-width=".72009"/>
 <path transform="matrix(1.5253 1.5253 -1.5253 1.5253 11.347 91.081)" d="m61.868-87.379h14.325v14.325h-14.325z" fill="#e53531" filter="url(#l)" stroke="#e53531" stroke-linecap="round" stroke-linejoin="round" stroke-width=".72009"/>
 <g transform="matrix(2.1571 0 0 2.1571 11.347 91.081)" fill="#e53531" filter="url(#i)">
  <path d="m170.66 6.8334c-0.2663-0.049818-2.3738 1.8624-4.7917 4.3541-5.2065 5.3653-4.9461 4.0328-2.5691 13.123 1.8937 7.2416 1.8629 7.0648 1.5454 8.8034-0.30498 1.6701-3.3707 5.8525-5.3264 6.1057-4.3338 0.56096-7.3608 0.86299-10.328 1.0949-1.2399 0.09692-2.4692 0.18161-3.7791 0.26783-0.91752 0.06039-1.8745 0.12154-2.9023 0.18818-3.5915 0.23287-1.5774 0.15438-2.2096 0.22661-0.63224 0.07227-3.5286 0.39984-6.4368 0.7275-6.0753 0.68458-23.809 0.31612-29.095-0.2653-1.1721-0.12892-1.824 0.36854-3.5246 0.06893-0.13574 0.13851-6.1491 0.06385-7.0642-0.05078l-4.2057-0.5268c-7.5133-0.94113-18.506-12.295-21.193-18.283-1.6762-3.7356-2.3523-6.4561-2.858-11.5l-0.35284-3.5204-1.6607 3.0512c-2.4504 4.5016-3.3011 8.3437-3.0817 13.921 0.16306 4.1444 0.6979 9.5585 2.3377 12.623 2.9298 5.4756 4.9236 8.2229 10.866 11.724 2.004 1.0599 3.3143 1.0462 4.2236 1.2876 1.7607 0.46751 2.3082 0.45405 5.5134 0.96869 3.2506 0.52193 10.959 1.9837 13.711 1.9848l14.131 1.4784 11.747-0.55808c3.118-0.14813 14.066-0.25216 18.905-1.1527 1.1304-0.21038-5.002-0.07184-1.2949 0.15076 2.3939 0.14374 12.128-1.3432 13.932-1.7994 0.569-0.14383 1.3967-0.34785 1.8392-0.45325 5.1372-1.2238 5.3924-1.3627 8.6584-4.6978 4.0081-4.093 6.2915-7.6904 7.868-12.394 1.6158-4.8213 1.6944-11.901 0.20108-18.155-0.99633-4.1724-2.2528-8.134-2.7851-8.7826-5e-3 -0.00612-0.0113-0.00919-0.0198-0.010923zm-80.379 45.128c0.02802 0.01573 0.05458 0.09198 0.07181 0.06462-0.0031-9.87e-4 -0.0042-0.0021-0.0052-0.0031-0.01619-0.01072-0.03341-0.0198-0.04877-0.03175 0-5.62e-4 -0.011-0.0082-0.01038-0.01205 2.18e-4 -9.88e-4 -1.66e-4 -0.0021 0.0031-0.0031-0.0083-4e-3 -0.0073-0.0092-0.0073-0.0147zm0.01453 0.0031c5.2e-5 5.62e-4 1.66e-4 9.88e-4 -0.0031 0.0031-4.3415 5.9483-4.335 5.9397 0.0031-0.0031z" stroke-width=".46456"/>
  <g stroke="#e53531" stroke-linecap="round" stroke-linejoin="round">
   <path d="m86.209 40.706h64.763v5.1096h-64.763z" stroke-width=".52764"/>
   <path transform="matrix(.99985 .017327 -.018288 .99983 0 0)" d="m155.42 48.279a47.052 9.3599 0 0 1-40.296 4.0767 47.052 9.3599 0 0 1-38.966-4.5599l40.407-4.7956z" stroke-width=".78461"/>
  </g>
 </g>
 <path d="m204.87 178.92a4.9067 0.75387 10.913 0 1-4.1093-0.45761 4.9067 0.75387 10.913 0 1-3.9202-1.1087" fill="none" stroke="#e53531" stroke-linecap="round" stroke-linejoin="round" stroke-width="1.1476"/>
 <path transform="matrix(1.5253 1.5253 -1.5253 1.5253 11.347 91.081)" d="m149.53-16.66h14.325v14.325h-14.325z" fill="#57b24c" filter="url(#m)" stroke="#57b24c" stroke-linecap="round" stroke-linejoin="round" stroke-width=".72009"/>
 <path d="m254.98 110.18c-12.636 0.0652-24.994 1.8297-36.664 5.3401-13.934 4.1912-33.503 14.233-33.396 17.138 0.0314 0.85918 1.0411 6.1903 2.2428 11.846l2.1848 10.282 16.047 4.2776c5.431 1.4475 10.356 2.9588 13.474 4.0905 11.561 3.2529 22.667 7.451 31.434 11.882 3.5357 1.7868 6.8234 3.5013 9.3354 5.086 1.8328 0.75943 5.6795 3.8036 4.5626 1.2722 0.28559-0.31621 0.47107-0.45872 0.78474-0.72673 0.0291-0.0232 0.0548-0.0508 0.0836-0.0744 0.1101-0.14366 0.21973-0.28747 0.32885-0.43172 0.15467-0.20449 0.30563-0.41247 0.45812-0.61879 0.47616-0.69042 0.96846-1.3671 1.506-2.0039 0.20409-0.24187 0.49864-0.56518 0.74017-0.78309 0.0245-0.0223 0.0514-0.0422 0.0769-0.0636 0.032-0.20935 0.12556-0.44417 0.30323-0.69195 6e-3 -8e-3 0.0251-0.0336 0.0434-0.0588-0.074-0.0917-0.12715-0.21159-0.14713-0.38135-0.0502-0.42814 0.0798-0.47419 0.2776-0.78189 0.0143-0.022-0.0331 0.0388-0.0502 0.0588-0.0325 0.0684-0.0211 0.0425 0.028-0.042 0.10798-0.18555 0.22059-0.34988 0.3623-0.50727 0.016-0.0176 0.0308-0.0359 0.0456-0.054 0.10279-0.13962 0.21597-0.26751 0.33222-0.39214 0.13612-0.19489 0.26019-0.40168 0.42137-0.57443 0.0382-0.0392 0.0798-0.0754 0.11922-0.11272 0.0422-0.0953 0.0831-0.1911 0.12487-0.28662 0.032-0.0866 0.0672-0.15235 0.10479-0.21106 0-0.0174-4.6e-4 -0.0354 0-0.0527 0.0217-0.14029 0.13383-0.36663 0.19616-0.50128 0.0636-0.1375 0.12767-0.27588 0.19062-0.41372 0.01-0.015 0.0148-0.0327 0.0223-0.0492-6e-3 -0.16152 0.39573 0.0932 0.4782-0.10314 0.0462-0.10906 0.61148-0.0703 0.66992-0.18587 0.028-0.0425-0.24621-0.43283-0.21739-0.47489 0.0411-0.13634 0.24832-0.0675 0.42804 0 0.67151 1.7063 2.1338 1.3859 2.254 1.1872 0.0946-0.15614 1.2861 3.6342 1.3911 3.5401 0.0982-0.18565-2.6791-6.5674-2.5603-6.7417 0.096-0.14068-0.27064-0.3627-0.18429-0.45885l-26.176-17.393c-1.7288-0.95265-3.0159-1.831-5.1755-2.9707-8.959-4.728-11.112-6.483-9.7302-9.2599 14.186-7.7258 30.218-6.9312 44.172-4.4119 2.5516 0.77289 0.80894 3.3709-2.3672 6.246-1.5677 1.4192-16.731 10.505-19.615 13.807 1.5028 0.71705 9.7844 6.5054 21.17 13.778 7.6794-1.2614 38.668-7.7511 41.163-8.7716 1.1684-0.47793 4.224-4.494 6.7896-8.9246s6.0551-10.329 7.7549-13.107c1.6998-2.7788 2.9017-5.382 2.6708-5.7838-0.23086-0.40186-2.9008-2.001-5.9335-3.5545-23.295-11.933-48.431-18.001-72.554-17.877zm-45.793 77.202c-11.998 12.104-22.079 21.25-32.303 37.194-21.17 33.013-25.565 79.04-10.661 114.27 9.1558 21.646 24.437 41.307 44.924 57.803 12.403 9.9864 20.384 13.967 35.842 17.871 5.4064 1.3654 10.224 1.7298 19.595 1.4846 13.458-0.3522 14.59-0.51019 22.461-3.1395 20.891-6.9784 40.451-26.454 54.322-54.088 4.8033-9.5693 7.7288-18.185 11.655-34.326 2.5237-10.375 3.0832-14.877 3.5168-28.278 0.59721-18.456-0.21664-24.131-5.0049-34.88-7.5893-17.037-22.947-26.164-43.94-26.117-7.98 0.0182-11.327 0.60953-28.196 4.9899-3.417 0.88729-12.67 1.8802-20.563 2.2054-15.165 0.62469-28.959-0.8944-42.998-4.7345-3.6799-1.0066-6.845-1.6934-7.0337-1.5266-0.75215 0.66486 4.3255 7.4744 10.458 14.025 4.3705 4.6683 8.7536 8.1286 13.474 10.638l6.9958 3.72 11.47-0.56363c11.491-0.56389 30.286-3.0822 51.441-6.8931 9.5782-1.7255 11.902-1.8401 15.27-0.75431 7.3134 2.3573 14.197 12.502 17.03 25.098 1.7252 7.6701 1.48 26.452-0.44813 34.329-3.5395 14.459-11.642 28.232-21.305 36.214-8.6548 7.1492-21.677 13.855-31.7 16.324-2.4651 0.60719-5.3414 1.3173-6.3928 1.577-9.14 2.2573-28.461 3.0104-31.111 2.2401-0.50737-0.14745-4.0706-0.85754-6.1297-1.4043-1.9097-0.50705-6.4155-1.8664-9.9397-3.4094-20.562-9.0022-35.974-29.166-44.896-58.739-4.9644-16.454-4.1082-30.903-2.1568-42.271 3.1494-18.347 6.6085-29.683 13.166-39.74 5.9198-8.7139 14.552-20.815 24.126-30.478 7.5262-7.5957 13.757-14.412 26.753-20.638-4.4626-2.3224-9.4749-4.632-15.175-6.6694-7.1972 6.7184-16.729 12.702-22.548 18.663zm62.599-16.883c7e-3 0.0273 0.0131 0.0575 0.0211 0.084-0.0183-0.0225-0.0704-0.0801-0.0646-0.078 6e-3 -0.013 0.0234-0.01 0.0434-6e-3zm-1.3098 1.8168c0.0589-0.0508-0.15564 0.0928-0.19507 0.17149-6e-3 7e-3 3.4e-4 7e-3 -6e-3 0.0132 0.0587-0.0588 0.11762-0.11434 0.20061-0.18468zm-0.33998 0.49887c-7e-3 0.0227-0.0154 0.0528-0.0177 0.072 6e-3 -9e-3 0.0114-0.0177 0.0177-0.0264 1.7e-4 -0.0152 6e-5 -0.0304 0-0.0456zm-1.6062 3.1312c-6e-3 5e-3 -6e-3 7e-3 -6e-3 0.0108 0 4e-3 6e-3 -6e-3 7e-3 -0.01v-1e-3z" fill="#57b24c" stroke-width=".99139"/>
 <path d="m272.8 168.4a8.7493 8.1264 74.109 0 1 3.2153 8.1328 8.7493 8.1264 74.109 0 1-4.9062 6.7572 8.7493 8.1264 74.109 0 1-8.1184-1.3799" fill="#58b14d" stroke-width="2.2371"/>
 <path d="m472.97 254.96-9.5613-8.6362 36.225-0.19598 9.5613 8.6363z" stroke-width="2.2374"/>
 <path d="m451.36 423.14q-2.2057 3.25-5.0022 6.0936-0.58264 0.59246-1.224 1.1853-3.5268 3.3492-7.145 6.3172-0.32045 0.32571-0.67587-0.0237-0.32595-0.32043-0.24198-0.7616 2.0252-7.2733 5.2254-14.556 3.1707-7.3123 6.1942-14.653 1.5846-3.7443 1.3158-7.7962-0.0617-0.35199-0.38748-0.67248-0.23695-0.23305-0.59187-0.46468-0.91533-0.55054-1.7097-0.69082-0.78213 1.3286-1.9474 2.5134-0.43702 0.44435-0.93313 0.83038-1.7789 1.5719-3.4251 1.4682-1.4105-0.047-2.388-1.0084-0.88866-0.87394-1.4311-2.5146-0.9646-2.9298-2.1645-5.9164-1.2-2.9865-1.4018-6.0402-0.0669-0.99837 0.54477-1.6204 0.29129-0.29612 0.73012-0.50557 1.4047-0.65793 2.4622-0.66699 5.6407 0.0108 9.6692 3.9736l0.38507 0.37873q4.1494 4.3721 6.1401 10.584 1.9903 6.1528 1.6063 12.942-0.38452 6.7308-3.6049 11.605z" stroke-width="2.1571"/>
 <g transform="matrix(2.1571 0 0 2.3206 -521.73 56.929)">
  <g filter="url(#h)" stroke="#000" stroke-opacity=".36">
   <path d="m326.03 171.29 5.5027-2.1595-7.0204 14.181-5.5027 2.1595z" stroke-width=".67488"/>
   <path d="m294.61 164.59-5.8829 0.96083 10.255-12.362 5.8829-0.96082z" stroke-width=".57847"/>
   <g transform="matrix(.38135 .27149 -.28423 .36426 761.4 553.84)" stroke-width="2.3956">
    <path d="m-1249.2-120.39q-1.068 4.2375-3.9619 8.0271l-6.9246-1.757 0.5167-1.1713q1.2403-0.41341 2.8939-1.0335 1.6881-0.65457 3.0317-1.4469-0.034-5.4088-0.4134-11.265-0.379-5.8911-0.7235-11.197l5.2366-8.2682 1.1713 20.464q0.1723 3.9274-0.8268 7.6481z"/>
    <path d="m-1251.7-103.1q0.5856-0.37897 0.7235-0.65457-0.2068-0.86128-2.2738-1.3436-2.3082-0.51677-5.5122-0.62012-3.1695-0.10336-4.5475-0.41341-0.6201-0.10336-0.1034-1.3436 0.8613-1.9982 1.8259-3.893 0.9991-1.9293 1.9982-3.9963h0.034q2.4116 0.58567 7.2003 0.96463t6.718 1.8604q1.2402 0.99908 0.4478 2.9283-0.7924 1.8948-1.2747 2.8939-0.8612 1.757-1.8603 3.3418-0.9991 1.5503-2.0326 3.1695-1.7915 2.7561-3.7896 4.582-1.9982 1.7915-4.1686 3.0317-2.7561 1.5503-6.9936 3.135-1.4814 0.58567-3.0317 1.1713-1.5503 0.58567-3.135 1.3091-2.2393 0.99908-3.0662 1.4814-1.2057 0.72347-2.3426 1.757l-0.035 0.03445q-1.2058 1.757-2.1359 0.41341-0.9302-1.3436 0.689-3.2728v-0.0689q0.4134-0.89573 0.6546-1.6881 0.2756-0.79237 0.5167-1.5158 0.4134-1.3436 1.1714-2.446 0.7579-1.1369 2.756-2.136 1.5848-0.79237 3.1351-1.378 1.5847-0.62012 3.135-1.1369 2.136-0.68902 4.272-1.3436 2.1359-0.68902 4.3063-1.6192 2.8939-1.2058 6.718-3.2039z"/>
    <path d="m-1250.8-80.222q-1.4469 1.8604-2.8939 3.6518-1.4469 1.7915-2.8939 3.5829l-4.9609-4.6509q1.4125-1.8259 2.8939-3.6174 1.4469-1.7915 2.8939-3.6174z"/>
    <path d="m-1275.1-85.148q-1.068 0.93018-1.8948 2.2393-0.7924 1.3091-1.5158 2.7216-1.8948 3.6174-4.8921 4.3408-2.5838 0.62012-6.3045-0.1378-1.2058-0.24116-5.8222-1.6536-4.6165-1.4125-5.4777-2.136-0.5857-0.48232 0.3789-0.93018 4.8576-1.7226 10.301-2.6183 5.4777-0.89573 10.576-2.2393 1.8948-0.48231 3.2729-2.0326v0.03445q0.4823-0.65457 1.2058-0.51677 1.2747 0.20671 0.9646 1.757-0.1723 0.86128-0.7924 1.1713z"/>
    <path d="m-1272.5-107.2q-1.447 1.8604-2.8939 3.6518-1.447 1.7915-2.8939 3.5829l-4.961-4.6509q1.4125-1.8259 2.8939-3.6174 1.447-1.7914 2.8939-3.6174z"/>
   </g>
   <g transform="matrix(.45085 .47499 -.511 .41907 820.86 816.86)" stroke-width=".88046">
    <path d="m-1307-94.886q-3.7552 0.93018-6.3045 1.378-2.515 0.44786-4.7543 2.5149l-0.034 0.03445q-1.2058 1.757-2.136 0.41341t0.689-3.2728v-0.0689q0.6201-1.4125 1.3436-2.5494 1.2747-3.3073 3.8241-4.9265 2.067-1.3436 4.7542-1.757 2.6872-0.41342 5.6844-1.0335 1.2403-0.2067 2.6872-0.62011 1.4814-0.44787 2.4805-1.4125-0.3445 4.4442-2.2393 7.3725-1.8604 2.8939-5.9945 3.9274z"/>
    <path d="m-1301.8-127.34q-0.4479 0.96463-1.5158 1.4125-1.068 0.44786-1.8604 1.5503 0.6201 0.72347 1.6881 0.99908t1.8948 0.79238q0.9302 0.62011 0.9302 1.6192 0 0.58567-0.2756 1.2402-0.7924 1.8948-2.7217 3.2728-1.6536 1.2058-3.4451 1.4814-1.8259 0.27561-3.7207 0.58567 1.6192-0.72347 3.3073-1.4469t3.2384-1.5848q0.4823-0.31006 0.4823-0.55122 0-0.10335-0.1378-0.2067-0.6201-0.34451-1.3435-0.68902-0.758-0.31006-1.3436-0.65457-1.3092-0.68902-1.3092-1.9293 0-1.3091 1.5159-3.2728 2.8939-3.7552 4.3063-4.8231 0.5857-0.44786 1.8259-0.99908z"/>
    <path d="m-1316.3-92.405q-1.068 0.93018-1.8948 2.2393-0.7924 1.3091-1.5159 2.7216-1.8948 3.6174-4.892 4.3408-2.5839 0.62012-6.3046-0.1378-1.2057-0.24116-5.8222-1.6536-4.6164-1.4125-5.4777-2.136-0.5857-0.48232 0.379-0.93018 4.8576-1.7226 10.301-2.6183 5.4777-0.89573 10.576-2.2393 1.8948-0.48231 3.2728-2.0326v0.03445q0.4823-0.65457 1.2058-0.51677 1.2747 0.20671 0.9646 1.757-0.1722 0.86128-0.7923 1.1713z"/>
   </g>
   <path transform="matrix(.22148 .59904 -.64446 .20587 543.19 925.03)" d="m-1297.8-49.223c0 0.29941-0.1123 0.76725-0.3369 1.4035-0.2245 0.63626-0.4865 1.2725-0.7859 1.9088s-0.5988 1.1977-0.8983 1.6842c-0.2994 0.46783-0.5146 0.70175-0.6456 0.70175-0.2059-0.0748-0.4117-0.14035-0.6175-0.19649-0.2059-0.0561-0.4117-0.11227-0.6176-0.16842l-0.2526-0.0842c-0.4304-0.11228-0.8702-0.20585-1.3194-0.2807-0.4304-0.0936-0.8234-0.14035-1.1789-0.14035-1.7217 0-3.462 0.85146-5.2211 2.5544-1.4971 1.4222-2.2456 2.5544-2.2456 3.3965 0 1.0667 1.7216 1.7591 5.1649 2.0772 1.2351 0.16842 2.2363 0.35555 3.0035 0.5614 0.7673 0.20585 1.3381 0.4117 1.7124 0.61755 1.1228 0.63626 1.6842 1.9836 1.6842 4.0421 0 4.3041-2.1895 8.234-6.5685 11.79-14 5.8479-33.895 5.3105-49.496 3.5121-13.253-0.60708-34.081-9.439-35.009-11.223-6.2751-8.0538-1.3937-15.441 7.2777-16.454 23.537-0.70531 42.32 4.1529 50.406 5.0562 2.5159 0.28107 4.5487 0.25151 1.5747 3.5151-1.87 2.0521-2.9882 2.1523-2.9882 2.1523s-2.3337-0.60245-9.0541-1.6917c-8.3892-1.3597-22.636-2.7063-31.168-3.5752-7.3998-0.7535-11.83 3.4021-11.652 4.04 2.9269 7.7533 22.86 10.378 30.175 11.475 0.7545 0.20122 11.001 1.7767 20.586 1.9732 8.2436 0.16904 16.001-0.95178 16.802-1.0245 6.1891-0.56185 11.172-2.0211 15.326-6.0632 0.3929-0.29942 0.5894-0.59884 0.5894-0.89825 0-0.37427-0.262-0.58948-0.7859-0.64562-2.3953-0.26199-4.2012-0.46783-5.4176-0.61754-1.1976-0.14971-1.8245-0.23393-1.8807-0.25264-1.1977-0.33684-2.1427-0.87953-2.8351-1.6281s-1.0386-1.6936-1.0386-2.8351c0-3.855 1.7123-7.7474 5.1369-11.677 3.2374-3.724 6.2035-5.586 8.8983-5.586 0.4865 0 0.9544 0.0748 1.4035 0.22456 0.4491 0.14971 0.8421 0.3462 1.179 0.58948 0.3368 0.24327 0.5988 0.52398 0.7859 0.84211 0.2059 0.29941 0.3088 0.60819 0.3088 0.92632z" stroke-width="1.7844"/>
   <path transform="matrix(.32501 .87905 -.94571 .30211 691.41 -52.106)" d="m49.562 479.75q-1.9068 0.34668-3.7943 0.69337-1.8875 0.36594-3.775 0.71263l2.3498-4.6995q4.1217-0.73189 7.5886-1.406z" stroke-width=".6"/>
  </g>
  <g transform="matrix(.38135 .27149 -.28423 .36426 761.33 553.83)" stroke="#000" stroke-width="1.2629">
   <path d="m-1249.2-120.39q-1.068 4.2375-3.9619 8.0271l-6.9246-1.757 0.5167-1.1713q1.2403-0.41341 2.8939-1.0335 1.6881-0.65457 3.0317-1.4469-0.034-5.4088-0.4134-11.265-0.379-5.8911-0.7235-11.197l5.2366-8.2682 1.1713 20.464q0.1723 3.9274-0.8268 7.6481z"/>
   <path d="m-1251.7-103.1q0.5856-0.37897 0.7235-0.65457-0.2068-0.86128-2.2738-1.3436-2.3082-0.51677-5.5122-0.62012-3.1695-0.10336-4.5475-0.41341-0.6201-0.10336-0.1034-1.3436 0.8613-1.9982 1.8259-3.893 0.9991-1.9293 1.9982-3.9963h0.034q2.4116 0.58567 7.2003 0.96463t6.718 1.8604q1.2402 0.99908 0.4478 2.9283-0.7924 1.8948-1.2747 2.8939-0.8612 1.757-1.8603 3.3418-0.9991 1.5503-2.0326 3.1695-1.7915 2.7561-3.7896 4.582-1.9982 1.7915-4.1686 3.0317-2.7561 1.5503-6.9936 3.135-1.4814 0.58567-3.0317 1.1713-1.5503 0.58567-3.135 1.3091-2.2393 0.99908-3.0662 1.4814-1.2057 0.72347-2.3426 1.757l-0.035 0.03445q-1.2058 1.757-2.1359 0.41341-0.9302-1.3436 0.689-3.2728v-0.0689q0.4134-0.89573 0.6546-1.6881 0.2756-0.79237 0.5167-1.5158 0.4134-1.3436 1.1714-2.446 0.7579-1.1369 2.756-2.136 1.5848-0.79237 3.1351-1.378 1.5847-0.62012 3.135-1.1369 2.136-0.68902 4.272-1.3436 2.1359-0.68902 4.3063-1.6192 2.8939-1.2058 6.718-3.2039z"/>
   <path d="m-1250.8-80.222q-1.4469 1.8604-2.8939 3.6518-1.4469 1.7915-2.8939 3.5829l-4.9609-4.6509q1.4125-1.8259 2.8939-3.6174 1.4469-1.7915 2.8939-3.6174z"/>
   <path d="m-1275.1-85.148q-1.068 0.93018-1.8948 2.2393-0.7924 1.3091-1.5158 2.7216-1.8948 3.6174-4.8921 4.3408-2.5838 0.62012-6.3045-0.1378-1.2058-0.24116-5.8222-1.6536-4.6165-1.4125-5.4777-2.136-0.5857-0.48232 0.3789-0.93018 4.8576-1.7226 10.301-2.6183 5.4777-0.89573 10.576-2.2393 1.8948-0.48231 3.2729-2.0326v0.03445q0.4823-0.65457 1.2058-0.51677 1.2747 0.20671 0.9646 1.757-0.1723 0.86128-0.7924 1.1713z"/>
   <path d="m-1272.5-107.2q-1.447 1.8604-2.8939 3.6518-1.447 1.7915-2.8939 3.5829l-4.961-4.6509q1.4125-1.8259 2.8939-3.6174 1.447-1.7914 2.8939-3.6174z"/>
  </g>
  <path transform="matrix(.22148 .59904 -.64446 .20587 543.19 925.1)" d="m-1297.8-49.223c0 0.29941-0.1123 0.76725-0.3369 1.4035-0.2245 0.63626-0.4865 1.2725-0.7859 1.9088s-0.5988 1.1977-0.8983 1.6842c-0.2994 0.46783-0.5146 0.70175-0.6456 0.70175-0.2059-0.0748-0.4117-0.14035-0.6175-0.19649-0.2059-0.0561-0.4117-0.11227-0.6176-0.16842l-0.2526-0.0842c-0.4304-0.11228-0.8702-0.20585-1.3194-0.2807-0.4304-0.0936-0.8234-0.14035-1.1789-0.14035-1.7217 0-3.462 0.85146-5.2211 2.5544-1.4971 1.4222-2.2456 2.5544-2.2456 3.3965 0 1.0667 1.7216 1.7591 5.1649 2.0772 1.2351 0.16842 2.2363 0.35555 3.0035 0.5614 0.7673 0.20585 1.3381 0.4117 1.7124 0.61755 1.1228 0.63626 1.6842 1.9836 1.6842 4.0421 0 4.3041-2.1895 8.234-6.5685 11.79-14 5.8479-33.895 5.3105-49.496 3.5121-13.253-0.60708-34.081-9.439-35.009-11.223-6.2751-8.0538-1.3937-15.441 7.2777-16.454 23.537-0.70531 42.32 4.1529 50.406 5.0562 2.5159 0.28107 4.5487 0.25151 1.5747 3.5151-1.87 2.0521-2.9882 2.1523-2.9882 2.1523s-2.3337-0.60245-9.0541-1.6917c-8.3892-1.3597-22.636-2.7063-31.168-3.5752-7.3998-0.7535-11.83 3.4021-11.652 4.04 2.9269 7.7533 22.86 10.378 30.175 11.475 0.7545 0.20122 11.001 1.7767 20.586 1.9732 8.2436 0.16904 16.001-0.95178 16.802-1.0245 6.1891-0.56185 11.172-2.0211 15.326-6.0632 0.3929-0.29942 0.5894-0.59884 0.5894-0.89825 0-0.37427-0.262-0.58948-0.7859-0.64562-2.3953-0.26199-4.2012-0.46783-5.4176-0.61754-1.1976-0.14971-1.8245-0.23393-1.8807-0.25264-1.1977-0.33684-2.1427-0.87953-2.8351-1.6281s-1.0386-1.6936-1.0386-2.8351c0-3.855 1.7123-7.7474 5.1369-11.677 3.2374-3.724 6.2035-5.586 8.8983-5.586 0.4865 0 0.9544 0.0748 1.4035 0.22456 0.4491 0.14971 0.8421 0.3462 1.179 0.58948 0.3368 0.24327 0.5988 0.52398 0.7859 0.84211 0.2059 0.29941 0.3088 0.60819 0.3088 0.92632z" stroke="#000" stroke-width="1.0213"/>
  <path d="m326.04 171.36 5.5027-2.1595-7.0204 14.181-5.5027 2.1595z"/>
  <path d="m294.61 164.66-5.8829 0.96083 10.255-12.362 5.8829-0.96082z"/>
  <g transform="matrix(.45085 .47499 -.511 .41907 820.86 816.93)" stroke-width=".070004">
   <path d="m-1307-94.886q-3.7552 0.93018-6.3045 1.378-2.515 0.44786-4.7543 2.5149l-0.034 0.03445q-1.2058 1.757-2.136 0.41341t0.689-3.2728v-0.0689q0.6201-1.4125 1.3436-2.5494 1.2747-3.3073 3.8241-4.9265 2.067-1.3436 4.7542-1.757 2.6872-0.41342 5.6844-1.0335 1.2403-0.2067 2.6872-0.62011 1.4814-0.44787 2.4805-1.4125-0.3445 4.4442-2.2393 7.3725-1.8604 2.8939-5.9945 3.9274z"/>
   <path d="m-1301.8-127.34q-0.4479 0.96463-1.5158 1.4125-1.068 0.44786-1.8604 1.5503 0.6201 0.72347 1.6881 0.99908t1.8948 0.79238q0.9302 0.62011 0.9302 1.6192 0 0.58567-0.2756 1.2402-0.7924 1.8948-2.7217 3.2728-1.6536 1.2058-3.4451 1.4814-1.8259 0.27561-3.7207 0.58567 1.6192-0.72347 3.3073-1.4469t3.2384-1.5848q0.4823-0.31006 0.4823-0.55122 0-0.10335-0.1378-0.2067-0.6201-0.34451-1.3435-0.68902-0.758-0.31006-1.3436-0.65457-1.3092-0.68902-1.3092-1.9293 0-1.3091 1.5159-3.2728 2.8939-3.7552 4.3063-4.8231 0.5857-0.44786 1.8259-0.99908z"/>
   <path d="m-1316.3-92.405q-1.068 0.93018-1.8948 2.2393-0.7924 1.3091-1.5159 2.7216-1.8948 3.6174-4.892 4.3408-2.5839 0.62012-6.3046-0.1378-1.2057-0.24116-5.8222-1.6536-4.6164-1.4125-5.4777-2.136-0.5857-0.48232 0.379-0.93018 4.8576-1.7226 10.301-2.6183 5.4777-0.89573 10.576-2.2393 1.8948-0.48231 3.2728-2.0326v0.03445q0.4823-0.65457 1.2058-0.51677 1.2747 0.20671 0.9646 1.757-0.1722 0.86128-0.7923 1.1713z"/>
  </g>
  <path transform="matrix(.32501 .87905 -.94571 .30211 691.41 -52.037)" d="m49.562 479.75q-1.9068 0.34668-3.7943 0.69337-1.8875 0.36594-3.775 0.71263l2.3498-4.6995q4.1217-0.73189 7.5886-1.406z"/>
  <path d="m403.53 182.1c-3.0247-0.49394-4.4267-1.841-5.0646-4.866-0.53401-2.5323-0.55151-4.0422 3.0778-7.3653 5.676-5.1972 12.706-8.619 18.265-12.421 2.0279-1.3868 1.7138 3.0042-1.6991 5.5343-8.5044 5.3878-12.02 6.7907-14.706 10.786-0.99297 1.4771 0.0326 2.5713 0.0693 2.7453 0.10683 0.50449 2.2562 0.85816 4.8708 0.43997 7.1714-1.147 19.28-7.7132 24.857-13.48 3.0466-3.15 5.2035-8.1525 3.3711-7.8186-1.2028 0.21915-2.1602-3.4675-1.2335-4.749 0.32552-0.45009 0.73515-0.84445 0.91027-0.87637 0.73197-0.13318 2.7319 1.1461 3.6399 2.3287 2.7096 3.5288 1.4481 7.6857-4.1952 13.824-5.6622 6.1594-13.661 11.405-21.154 13.873-3.755 1.2366-9.4646 2.297-11.01 2.0447z" filter="url(#g)" stroke="#000" stroke-opacity=".36" stroke-width=".57847"/>
  <path d="m403.57 182.1c-3.0247-0.49394-4.4267-1.841-5.0646-4.866-0.53401-2.5323-0.55151-4.0422 3.0778-7.3653 5.676-5.1972 12.706-8.619 18.265-12.421 2.0279-1.3868 1.7138 3.0042-1.6991 5.5343-8.5044 5.3878-12.02 6.7907-14.706 10.786-0.99297 1.4771 0.0326 2.5713 0.0693 2.7453 0.10683 0.50449 2.2562 0.85816 4.8708 0.43997 7.1714-1.147 19.28-7.7132 24.857-13.48 3.0466-3.15 5.2035-8.1525 3.3711-7.8186-1.2028 0.21915-2.1602-3.4675-1.2335-4.749 0.32552-0.45009 0.73514-0.84445 0.91026-0.87637 0.73198-0.13318 2.7319 1.1461 3.6399 2.3287 2.7096 3.5288 1.4481 7.6857-4.1952 13.824-5.6622 6.1594-13.661 11.405-21.154 13.873-3.755 1.2366-9.4646 2.297-11.01 2.0447z"/>
  <g transform="matrix(.43664 -.23278 .25043 .40586 888.2 -68.059)" filter="url(#f)" stroke="#000" stroke-opacity=".36" stroke-width=".79466">
   <path d="m-1019.7-46.21q-1.4469 1.8604-2.8939 3.6518-1.4469 1.7915-2.8938 3.5829l-4.961-4.6509q1.4125-1.8259 2.8939-3.6174 1.4469-1.7914 2.8939-3.6174z" stroke="#000" stroke-opacity=".36" stroke-width=".79466"/>
  </g>
  <path transform="matrix(.43664 -.23278 .25043 .40586 888.2 -68.061)" d="m-1019.7-46.21q-1.4469 1.8604-2.8939 3.6518-1.4469 1.7915-2.8938 3.5829l-4.961-4.6509q1.4125-1.8259 2.8939-3.6174 1.4469-1.7914 2.8939-3.6174z"/>
 </g>
 <g transform="matrix(2.1571 0 0 2.1571 11.347 91.081)">
  <g transform="translate(310.23 -88.848)" filter="url(#b)" stroke="#000" stroke-opacity=".36" stroke-width=".365">
   <path d="m-100.23 321.35q2.7285 15.813 4.4338 28.587l-3.9998 5.457q-1.5193-10.294-4.8369-28.711z"/>
   <path d="m-131.64 333.1 3.6277-6.1082c1.7777 7.7101 3.0179 14.149 3.7207 19.317l-2.0154 5.6431c6.1392-1.943 10.563-4.1444 13.27-6.6042-0.51676-2.7078-1.3849-9.5477-2.6045-10.995l4.1238-6.8523c0.16537 0.84749 1.6231 6.8625 2.2008 9.7418 0.43424 2.1781 0.71373 3.537 0.71373 4.8185 0 3.6794-1.633 6.9143-4.8989 9.7048-6.1185 5.2917-18.407 9.1674-36.866 11.627l1.8293-6.6042c8.0408-1.0129 15.048-2.4805 21.022-4.4028-0.64079-3.5553-2.0154-9.9839-4.1238-19.286zm8.6196 32.562-0.43409 0.34107c-0.16536-0.59945-0.52709-0.79582-1.0852-0.58911-0.33073 0.12402-0.75447 0.44441-1.2712 0.96118-0.24805 0.37207-0.0724 0.57877 0.5271 0.62011h1.3332c0.53743 0.0827 0.84749 0.38241 0.93018 0.89917 0 0.80615-0.26872 1.6123-0.80616 2.4185-1.3229 1.571-2.9146 2.4391-4.7749 2.6045l-1.7053-0.31005c1.7777-0.64079 3.3176-1.4676 4.6199-2.4805 0.51677-0.31006 0.77515-0.50643 0.77515-0.58911 0-0.12403-0.23771-0.20671-0.71314-0.24805-0.76481 0.0413-1.2919-0.0827-1.5813-0.37207-0.28939-0.26872-0.37208-0.69247-0.24805-1.2712 0.33073-1.7777 1.3229-3.1109 2.9766-3.9998 0.39274-0.12402 0.69246-0.18603 0.89917-0.18603 0.49609 0 0.74414 0.31006 0.74414 0.93017 0 0.3514-0.062 0.77515-0.18603 1.2712z"/>
   <path d="m-173.74 364.6-1.9534 0.86817c0.57878-1.6536 1.5916-4.1858 3.0386-7.5964-3.0592 0.84749-6.7179 1.4986-10.976 1.9534v-6.2322c2.9559 0 7.2657-0.79582 12.929-2.3874 1.695-4.6302 2.9249-7.6378 3.6897-9.0227 1.7777-3.266 3.9171-5.4054 6.4182-6.4182 0.64079-0.24805 1.2919-0.37207 1.9534-0.37207 2.2944 0 4.1238 1.3539 5.488 4.0618 0.78548 1.6123 1.3126 2.6045 1.5813 2.9766 0.62012 0.80615 1.2919 1.2092 2.0154 1.2092 0.3514 0 0.73381-0.0827 1.1472-0.24805l-2.1394 6.7283c-2.1291 0.49609-4.6095 1.2506-7.4414 2.2634-1.4056 0.51677-3.5243 1.3539-6.3562 2.5115-2.8319 1.1369-5.0333 1.974-6.6042 2.5115-0.37207 1.1989-1.3022 3.5967-2.7905 7.1934zm5.333-14.046c3.7207-0.97152 7.9582-2.5322 12.712-4.6819-1.9224-2.3358-3.638-3.5037-5.147-3.5037-1.7777 0-3.4106 0.95085-4.8989 2.8525-1.1782 1.5296-2.067 3.3073-2.6665 5.333zm2.9683-31.008 6.2322 2.4185-2.7285 6.0771-6.5422-2.7285z"/>
   <path d="m-189.9 357.53c-1.0129 0.43408-2.7078 0.8785-5.085 1.3332-2.5425 0.55811-4.5475 0.83716-6.0151 0.83716v-6.1082c6.6766-0.57877 11.141-1.633 13.395-3.1626 0.72347-0.51676 1.1886-1.0232 1.3953-1.5193l1.3953-0.96118c0.0413 0.88883-0.18604 1.9637-0.68213 3.2246-0.47542 1.2402-1.0128 2.1807-1.6123 2.8215 0.84749-0.0413 2.3771-0.17569 4.5889-0.40308v6.2322c-1.943 0.24805-4.5682 0.60978-7.8755 1.0852zm-3.9378 8.6568 6.2322 2.4185-2.7285 6.0772-6.5422-2.7285z"/>
   <path d="m-205.89 320.98q1.9534 13.891 4.1238 32.835l1.6433-0.40307v6.1702q-1.7053 0.37207-5.147 0.89917-1.0852-8.5266-5.085-33.3z"/>
   <path d="m-238.38 364.22q13.208-2.3874 20.247-6.5422 3.4416-1.9534 4.9609-6.2632l1.9534-1.5193q-1.9534 8.9297-4.4958 11.41-6.1082 6.0461-24.433 9.7978z"/>
   <path d="m-247.8 365.98-2.2014 5.8911-8.5266 1.7053 2.1084-5.7051zm4.2478-26.932c1.881 1.7363 2.8215 4.0824 2.8215 7.0383 0 0.28939-0.0207 0.58912-0.062 0.89917-0.72347 4.6922-2.1291 7.6998-4.2168 9.0227-2.8319 1.819-6.6146 2.8732-11.348 3.1626v-6.1082c3.2039-0.37207 5.209-0.62011 6.0151-0.74414 2.2944-0.39274 4.2478-0.94051 5.8601-1.6433 0-2.2944-0.76481-4.4338-2.2944-6.4182z"/>
   <path d="m-265.23 321.97-2.7285 6.2942-10.356 1.6433 2.7285-6.1082zm1.8294 24.371q-0.37207-3.1626-3.2246-3.1626-0.4961 0-1.0232 0.12403-12.061 2.7905-17.084 8.8987 1.3953 0.37207 3.0696 0.37207 4.1238 0 9.9529-2.4185 4.1238-1.8914 8.3096-3.8137zm0 1.7363-3.0386 2.6045q-3.4416 2.9146-9.6118 5.364-6.1392 2.4185-9.8289 2.4185-2.3874 0-2.7905-1.1162-0.18603-0.65112-0.18603-1.3953 0-2.4185 1.7983-5.457 1.8293-3.0696 4.4958-5.023 5.333-3.9998 8.8367-5.7981 4.9299-2.4805 9.4568-2.4805 2.4805 0 3.4106 2.0464 0.40307 0.83716 0.58911 2.9766l1.1472 11.255 4.5579-0.40308 0.18603 6.1082-7.6274 1.2092z"/>
  </g>
  <g transform="translate(310.24 -88.879)" stroke-width=".565">
   <path d="m-100.23 321.35q2.7285 15.813 4.4338 28.587l-3.9998 5.457q-1.5193-10.294-4.8369-28.711z"/>
   <path d="m-131.64 333.1 3.6277-6.1082c1.7777 7.7101 3.0179 14.149 3.7207 19.317l-2.0154 5.6431c6.1392-1.943 10.563-4.1444 13.27-6.6042-0.51676-2.7078-1.3849-9.5477-2.6045-10.995l4.1238-6.8523c0.16537 0.84749 1.6231 6.8625 2.2008 9.7418 0.43424 2.1781 0.71373 3.537 0.71373 4.8185 0 3.6794-1.633 6.9143-4.8989 9.7048-6.1185 5.2917-18.407 9.1674-36.866 11.627l1.8293-6.6042c8.0408-1.0129 15.048-2.4805 21.022-4.4028-0.64079-3.5553-2.0154-9.9839-4.1238-19.286zm8.6196 32.562-0.43409 0.34107c-0.16536-0.59945-0.52709-0.79582-1.0852-0.58911-0.33073 0.12402-0.75447 0.44441-1.2712 0.96118-0.24805 0.37207-0.0724 0.57877 0.5271 0.62011h1.3332c0.53743 0.0827 0.84749 0.38241 0.93018 0.89917 0 0.80615-0.26872 1.6123-0.80616 2.4185-1.3229 1.571-2.9146 2.4391-4.7749 2.6045l-1.7053-0.31005c1.7777-0.64079 3.3176-1.4676 4.6199-2.4805 0.51677-0.31006 0.77515-0.50643 0.77515-0.58911 0-0.12403-0.23771-0.20671-0.71314-0.24805-0.76481 0.0413-1.2919-0.0827-1.5813-0.37207-0.28939-0.26872-0.37208-0.69247-0.24805-1.2712 0.33073-1.7777 1.3229-3.1109 2.9766-3.9998 0.39274-0.12402 0.69246-0.18603 0.89917-0.18603 0.49609 0 0.74414 0.31006 0.74414 0.93017 0 0.3514-0.062 0.77515-0.18603 1.2712z"/>
   <path d="m-173.74 364.6-1.9534 0.86817c0.57878-1.6536 1.5916-4.1858 3.0386-7.5964-3.0592 0.84749-6.7179 1.4986-10.976 1.9534v-6.2322c2.9559 0 7.2657-0.79582 12.929-2.3874 1.695-4.6302 2.9249-7.6378 3.6897-9.0227 1.7777-3.266 3.9171-5.4054 6.4182-6.4182 0.64079-0.24805 1.2919-0.37207 1.9534-0.37207 2.2944 0 4.1238 1.3539 5.488 4.0618 0.78548 1.6123 1.3126 2.6045 1.5813 2.9766 0.62012 0.80615 1.2919 1.2092 2.0154 1.2092 0.3514 0 0.73381-0.0827 1.1472-0.24805l-2.1394 6.7283c-2.1291 0.49609-4.6095 1.2506-7.4414 2.2634-1.4056 0.51677-3.5243 1.3539-6.3562 2.5115-2.8319 1.1369-5.0333 1.974-6.6042 2.5115-0.37207 1.1989-1.3022 3.5967-2.7905 7.1934zm5.333-14.046c3.7207-0.97152 7.9582-2.5322 12.712-4.6819-1.9224-2.3358-3.638-3.5037-5.147-3.5037-1.7777 0-3.4106 0.95085-4.8989 2.8525-1.1782 1.5296-2.067 3.3073-2.6665 5.333zm2.9683-31.008 6.2322 2.4185-2.7285 6.0771-6.5422-2.7285z"/>
   <path d="m-189.9 357.53c-1.0129 0.43408-2.7078 0.8785-5.085 1.3332-2.5425 0.55811-4.5475 0.83716-6.0151 0.83716v-6.1082c6.6766-0.57877 11.141-1.633 13.395-3.1626 0.72347-0.51676 1.1886-1.0232 1.3953-1.5193l1.3953-0.96118c0.0413 0.88883-0.18604 1.9637-0.68213 3.2246-0.47542 1.2402-1.0128 2.1807-1.6123 2.8215 0.84749-0.0413 2.3771-0.17569 4.5889-0.40308v6.2322c-1.943 0.24805-4.5682 0.60978-7.8755 1.0852zm-3.9378 8.6568 6.2322 2.4185-2.7285 6.0772-6.5422-2.7285z"/>
   <path d="m-205.89 320.98q1.9534 13.891 4.1238 32.835l1.6433-0.40307v6.1702q-1.7053 0.37207-5.147 0.89917-1.0852-8.5266-5.085-33.3z"/>
   <path d="m-238.38 364.22q13.208-2.3874 20.247-6.5422 3.4416-1.9534 4.9609-6.2632l1.9534-1.5193q-1.9534 8.9297-4.4958 11.41-6.1082 6.0461-24.433 9.7978z"/>
   <path d="m-247.8 365.98-2.2014 5.8911-8.5266 1.7053 2.1084-5.7051zm4.2478-26.932c1.881 1.7363 2.8215 4.0824 2.8215 7.0383 0 0.28939-0.0207 0.58912-0.062 0.89917-0.72347 4.6922-2.1291 7.6998-4.2168 9.0227-2.8319 1.819-6.6146 2.8732-11.348 3.1626v-6.1082c3.2039-0.37207 5.209-0.62011 6.0151-0.74414 2.2944-0.39274 4.2478-0.94051 5.8601-1.6433 0-2.2944-0.76481-4.4338-2.2944-6.4182z"/>
   <path d="m-265.23 321.97-2.7285 6.2942-10.356 1.6433 2.7285-6.1082zm1.8294 24.371q-0.37207-3.1626-3.2246-3.1626-0.4961 0-1.0232 0.12403-12.061 2.7905-17.084 8.8987 1.3953 0.37207 3.0696 0.37207 4.1238 0 9.9529-2.4185 4.1238-1.8914 8.3096-3.8137zm0 1.7363-3.0386 2.6045q-3.4416 2.9146-9.6118 5.364-6.1392 2.4185-9.8289 2.4185-2.3874 0-2.7905-1.1162-0.18603-0.65112-0.18603-1.3953 0-2.4185 1.7983-5.457 1.8293-3.0696 4.4958-5.023 5.333-3.9998 8.8367-5.7981 4.9299-2.4805 9.4568-2.4805 2.4805 0 3.4106 2.0464 0.40307 0.83716 0.58911 2.9766l1.1472 11.255 4.5579-0.40308 0.18603 6.1082-7.6274 1.2092z"/>
  </g>
  <path d="m218.92 57.418c-0.2133-6.9649-4.0008-19.04-9.2235-29.406-11.882-23.584-32.495-43.187-61.529-58.517l-4.865-2.5687 2.4325 0.29096c1.8418 0.22031 3.7694 0.5413 5.8024 0.96745 2.9348 0.61517 6.0892 1.4495 9.5225 2.5164 4.5528 1.4148 12.163 4.9515 12.163 5.6528 0 0.2447-0.5552 1.3244-1.2338 2.3994-0.67858 1.0749-1.1211 2.1368-0.98335 2.3597 0.13775 0.22287 1.6234 0.90104 3.3014 1.507 5.238 1.8916 17.069 8.1211 20.052 10.597 1.6692 1.3851 3.2934 2.7094 4.1121 3.5282l1.3646 1.3646-2.5466 2.5424c-1.9161 1.9129-1.9065 2.0136-0.9578 2.7091 7.5059 5.5025 10.42 7.8894 14.158 11.596 3.8591 3.8268 7.9776 9.028 7.9776 10.075 0 0.18989-1.3203 0.82664-2.934 1.415-1.6137 0.58838-3.0428 1.2459-3.1758 1.4611-0.13301 0.21522 1.0457 2.2085 2.6193 4.4295 4.0238 5.6791 7.4456 11.245 9.8414 16.008 1.8797 3.737 3.8657 8.7489 3.8657 9.7554 0 0.2257-2.1893 0.41034-4.8651 0.41034-4.711 0-4.8661-0.0347-4.8986-1.0946z" filter="url(#a)" stroke="#000" stroke-width=".632"/>
  <path d="m218.96 57.434c-0.21329-6.9649-4.0008-19.04-9.2235-29.406-11.882-23.584-32.495-43.187-61.529-58.517l-4.865-2.5687 2.4325 0.29096c1.8418 0.22031 3.7694 0.5413 5.8024 0.96745 2.9348 0.61517 6.0892 1.4495 9.5225 2.5164 4.5528 1.4148 12.163 4.9515 12.163 5.6528 0 0.2447-0.5552 1.3244-1.2338 2.3994-0.67858 1.0749-1.1211 2.1368-0.98335 2.3597 0.13775 0.22287 1.6234 0.90104 3.3014 1.507 5.2381 1.8916 17.069 8.1211 20.052 10.597 1.6692 1.3851 3.2934 2.7094 4.1121 3.5282l1.3646 1.3646-2.5466 2.5424c-1.9161 1.9129-1.9065 2.0136-0.9578 2.7091 7.5059 5.5025 10.42 7.8894 14.158 11.596 3.8591 3.8268 7.9776 9.028 7.9776 10.075 0 0.18988-1.3203 0.82664-2.934 1.415-1.6137 0.58838-3.0428 1.2459-3.1758 1.4611-0.133 0.21522 1.0457 2.2085 2.6193 4.4295 4.0238 5.6791 7.4456 11.245 9.8414 16.008 1.8797 3.737 3.8657 8.7489 3.8657 9.7554 0 0.2257-2.1893 0.41034-4.8651 0.41034-4.711 0-4.8661-0.0347-4.8986-1.0946z" stroke="#000" stroke-width=".532"/>
  <text transform="scale(1.2337 .8106)" x="72.957184" y="260.4574" fill="#000000" filter="url(#d)" font-family="sans-serif" font-size="76.589px" letter-spacing="0" stroke="#000000" stroke-opacity=".36" stroke-width=".16" word-spacing="0">
   <tspan x="72.957184" y="260.4574" fill="#000000" font-family="Arial" font-weight="bold" stroke="#000000" stroke-opacity=".36" stroke-width=".16">3</tspan>
  </text>
  <path transform="matrix(-1 0 0 1 76.374 33.196)" d="m62.579 24.214c-0.2133-6.9649-4.0008-19.04-9.2235-29.406-11.882-23.584-32.495-43.187-61.529-58.517l-4.8651-2.5687 2.4325 0.29096c1.8418 0.22031 3.7694 0.5413 5.8024 0.96745 2.9348 0.61517 6.0892 1.4495 9.5225 2.5164 4.5528 1.4148 12.163 4.9515 12.163 5.6528 0 0.2447-0.5552 1.3244-1.2338 2.3994-0.67858 1.0749-1.1211 2.1368-0.98335 2.3597 0.13775 0.22287 1.6234 0.90104 3.3014 1.507 5.238 1.8916 17.069 8.1211 20.052 10.597 1.6692 1.3851 3.2934 2.7094 4.1121 3.5282l1.3646 1.3646-2.5466 2.5424c-1.9161 1.9129-1.9065 2.0136-0.9578 2.7091 7.5059 5.5025 10.42 7.8894 14.158 11.596 3.8591 3.8268 7.9776 9.028 7.9776 10.075 0 0.18989-1.3203 0.82664-2.934 1.415-1.6137 0.58838-3.0428 1.2459-3.1758 1.4611-0.13301 0.21522 1.0457 2.2085 2.6193 4.4295 4.0238 5.6791 7.4456 11.245 9.8414 16.008 1.8797 3.737 3.8657 8.7489 3.8657 9.7554 0 0.2257-2.1893 0.41034-4.8651 0.41034-4.711 0-4.8661-0.0347-4.8986-1.0946z" filter="url(#c)" stroke="#000" stroke-width=".632"/>
  <path d="m13.789 57.416c0.21328-6.9649 4.0008-19.04 9.2235-29.406 11.882-23.584 32.495-43.187 61.529-58.517l4.865-2.5687-2.4325 0.29096c-1.8418 0.22031-3.7694 0.5413-5.8024 0.96745-2.9347 0.61517-6.0892 1.4495-9.5225 2.5164-4.5528 1.4148-12.163 4.9515-12.163 5.6528 0 0.24471 0.5552 1.3244 1.2338 2.3994 0.67859 1.0749 1.1211 2.1368 0.98336 2.3597-0.13776 0.22287-1.6234 0.90104-3.3014 1.507-5.2381 1.8916-17.069 8.1211-20.052 10.597-1.6692 1.3851-3.2933 2.7094-4.1121 3.5282l-1.3646 1.3646 2.5466 2.5424c1.9161 1.9129 1.9065 2.0136 0.9578 2.7091-7.5059 5.5025-10.42 7.8894-14.158 11.596-3.8591 3.8268-7.9777 9.028-7.9777 10.075 0 0.18988 1.3203 0.82664 2.934 1.415 1.6137 0.58838 3.0428 1.2459 3.1758 1.4611 0.133 0.21523-1.0457 2.2085-2.6193 4.4295-4.0238 5.6791-7.4456 11.245-9.8414 16.008-1.8797 3.737-3.8657 8.7489-3.8657 9.7554 0 0.22569 2.1893 0.41034 4.8651 0.41034 4.711 0 4.8661-0.0347 4.8986-1.0946z" stroke="#090909" stroke-width=".532"/>
 </g>
 <g transform="matrix(2.1571 0 0 2.1571 11.347 91.081)" filter="url(#e)" stroke="#000" stroke-opacity=".36">
  <path d="m214.02 76.1-4.4326-4.0037 16.794-0.0909 4.4326 4.0037z" stroke-width=".2"/>
  <g stroke-width=".3">
   <path d="m228.02 83.874c2.4018 1.9281 3.6782 4.401 3.829 7.4184 0.0567 1.0325-0.28895 3.4287-1.0371 7.1886l-0.0174-8e-3 -0.0977-0.1094-4.11-2.8526c0.64591-2.2349 1.0941-3.9244 1.3445-5.0686 1.1153-3.6078-2.1645-4.3995-5.1175-5.0928-1.9361-0.37641-5.309-0.45592-8.7734-0.69611l-2.9769-3.7927 13.287 0.81233c0.76101 0.31251 1.4542 0.66421 2.0794 1.0551 0.62527 0.39088 1.1555 0.77286 1.5907 1.1459z"/>
   <path d="m230.88 98.109-0.0163 0.0349c-0.0489 0.10473-0.13729 0.12723-0.26527 0.0675-0.0931-0.0434-0.21643-0.14345-0.37004-0.30015-0.0425 0.97196-0.27704 2.2794-0.70352 3.9224-0.42102 1.6314-0.97982 3.1637-1.3699 4.2428l-4.0347-3.0448c1.6657-4.6637 2.4519-7.6549 2.3587-8.9736-0.0699-0.88275-0.41558-1.6604-1.037-2.3328-0.0543-0.0962-0.0733-0.16173-0.0571-0.19662 0.0163-0.0349 0.0885-0.0225 0.21644 0.0372 0.22109 0.10315 0.3553 0.17992 0.40263 0.23032 0.71294 0.65849 1.5698 1.54 2.5706 2.6445s1.7692 2.3273 2.3054 3.6684z"/>
   <path d="m220.97 90.278q-0.49197 1.8745-0.9758 3.7316-0.46638 1.8652-0.95022 3.7223l-3.2654-4.1163q1.0793-4.0447 1.9342-7.4714z"/>
   <path d="m211.52 100.39-3.1433-4.6969 16.113 5.5784 3.7658 4.7748-4.623-1.753c0.0846 0.15281 0.20518 0.36495 0.36193 0.63642l9e-3 0.0257c1.115 2.3479 1.3255 5.0249 0.63158 8.0308-0.69392 3.006-1.6726 5.5744-2.936 7.7054-0.27995 0.47865-0.64875 0.85918-1.1064 1.1416-0.45763 0.2824-0.95369 0.3131-1.4882 0.0921-1.5686-1.2844-2.87-2.4583-3.9041-3.5217 0.8657 0.14883 1.653-0.26315 2.3619-1.236s1.3258-2.1586 1.8508-3.5572c0.42418-1.0915 0.89719-2.6065 1.419-4.545 0.52725-1.9502 0.81524-3.6153 0.86396-4.9952l-9e-3 -0.0257c0.0241-0.17298 0.0257-0.32813 5e-3 -0.46544z"/>
   <path d="m220.22 121.59q-0.12792 0.68418-0.26514 1.3428-0.1547 0.65044-0.27445 1.3172l-8e-3 0.0174 0.0349 0.0163q-0.27905 1.7826-0.71749 3.7246-0.44776 1.9164-0.0904 3.0183l9e-3 0.0257q0.34332 0.58522 0.20488 0.88195-0.10585 0.2269-0.50029 0.29792-0.32581 0.0605-0.62252-0.0779-0.48872-0.228-0.87279-1.0448l-0.0349-0.0163q-0.56905-0.64803-0.97405-1.2833-1.6886-2.5306-1.3921-3.9862 0.29654-1.4556 0.84788-3.0474l-0.0523-0.0244 0.0245-0.0524q0.0384-0.17335 0.10233-0.35606 0.0465-0.19082 0.0756-0.3898l-0.0268-0.0338 0.0163-0.0349 0.19423-0.78077q-3.5039-4.015-5.2928-8.0163-1.0347-2.2467-0.42394-3.5558 0.22801-0.48872 0.69221-0.84599 1.1483-0.86698 2.8065-0.0934 0.82036 0.38272 1.7548 1.1587 2.3739 2.3827 3.8601 5.3926 1.4862 3.01 0.9246 6.446zm-6.8554-7.4914q-0.10228 0.99369 0.33299 1.7918 0.41779 0.79002 0.8263 1.5544 0.1816 0.33972 0.47828 0.47818 0.20945 0.0977 0.46776 0.0907 0.64577-0.0175 1.0506-0.33875 0.46644-1.2276 0.44765-2.8729-9e-3 -0.66323-0.62028-0.94823-0.33163-0.15472-0.88434-0.20004-1.5022-0.10571-2.099 0.44473z"/>
   <path d="m206.04 107.07q0.60054 1.1728 1.1662 2.3293 0.56559 1.1565 1.1312 2.313l-3.5289 1.4141q-0.59122-1.1472-1.1487-2.3212-0.5656-1.1565-1.1487-2.3212z"/>
   <path d="m218.59 129.82q0.21879 0.76096 0.68662 1.4893 0.47598 0.71087 1.0206 1.4113 1.3848 1.815 1.043 3.5045-0.29654 1.4556-1.56 3.1616-0.40718 0.55391-2.214 2.5589-1.8068 2.005-2.3769 2.2704-0.38283 0.1827-0.38169-0.41185 0.27543-2.8682 1.1082-5.8377 0.84092-2.987 1.3653-5.8878 0.2035-1.074-0.25624-2.1386l0.0174 8e-3q-0.21765-0.39905 0.0232-0.73304 0.406-0.59695 1.1182-0.0734 0.39564 0.29083 0.40616 0.67831z"/>
   <path d="m208.53 119.08q0.60053 1.1728 1.1661 2.3293 0.5656 1.1565 1.1312 2.313l-3.5289 1.4141q-0.59122-1.1472-1.1487-2.3212-0.56558-1.1565-1.1487-2.3212z"/>
   <path d="m202.73 126.76q1.882 1.9044 2.4449 4.1063 0.56314 2.2017 0.44282 4.1095-0.0948 1.6896-0.92624 3.2492-0.83162 1.5323-2.328 3.3834l-2.9077-4.0752 0.0272-0.0277q1.9134-2.4675 2.6384-3.7265 0.73846-1.2728 0.97269-2.5822-0.59015-0.5536-3.7506-2.2568l-1.0656-5.2892q2.5703 1.1771 4.4522 3.109z"/>
   <path d="m214.28 139.28q-1.0898 1.6026-2.1661 3.1914-1.0626 1.6024-2.1389 3.1912l-1.703-4.9706q2.3682-3.4519 4.3185-6.3963z"/>
   <path d="m204 154.07q-1.0225 1.5067-2.319 2.8249-0.27011 0.27466-0.56746 0.54949-1.635 1.5527-3.3124 2.9286-0.14855 0.151-0.31333-0.011-0.1511-0.14855-0.11217-0.35307 0.93888-3.3719 2.4225-6.7483 1.4699-3.39 2.8716-6.7929 0.73462-1.7358 0.60999-3.6143-0.0286-0.16318-0.17963-0.31176-0.10985-0.10804-0.27439-0.21542-0.42435-0.25523-0.79262-0.32026-0.36259 0.61592-0.90279 1.1652-0.2026 0.206-0.43258 0.38496-0.82471 0.72874-1.5878 0.68063-0.6539-0.0218-1.107-0.46749-0.41198-0.40515-0.66347-1.1657-0.44718-1.3582-1.0035-2.7428-0.55632-1.3845-0.64988-2.8002-0.031-0.46284 0.25255-0.7512 0.13505-0.13728 0.33849-0.23438 0.65119-0.30501 1.1415-0.30921 2.615 5e-3 4.4826 1.8421l0.17852 0.17558q1.9236 2.0269 2.8465 4.9066 0.9227 2.8524 0.74466 6-0.17825 3.1204-1.6712 5.3801z"/>
  </g>
 </g>
 <g transform="matrix(2.1571 0 0 2.1571 -7.1739e-7 -.032454)">
  <path d="m233.27 125.98c2.4018 1.9281 3.6781 4.4009 3.829 7.4184 0.0567 1.0325-0.28896 3.4287-1.0371 7.1886l-0.0174-8e-3 -0.0977-0.1094-4.11-2.8526c0.64591-2.2349 1.0941-3.9244 1.3445-5.0686 1.1153-3.6078-2.1645-4.3995-5.1175-5.0928-1.9361-0.37641-5.309-0.45592-8.7734-0.69611l-2.9769-3.7927 13.287 0.81234c0.76101 0.31251 1.4542 0.66421 2.0794 1.0551 0.62527 0.39088 1.1555 0.77286 1.5907 1.1459z"/>
  <path d="m236.13 140.22-0.0163 0.0349c-0.0489 0.10473-0.13729 0.12723-0.26526 0.0675-0.0931-0.0434-0.21644-0.14345-0.37005-0.30015-0.0425 0.97196-0.27704 2.2794-0.70351 3.9224-0.42103 1.6314-0.97983 3.1637-1.3699 4.2428l-4.0347-3.0448c1.6657-4.6637 2.4519-7.6549 2.3587-8.9736-0.0699-0.88275-0.41558-1.6604-1.037-2.3328-0.0543-0.0962-0.0733-0.16173-0.0571-0.19662 0.0163-0.0349 0.0885-0.0225 0.21644 0.0372 0.22109 0.10315 0.3553 0.17992 0.40263 0.23032 0.71294 0.65849 1.5698 1.54 2.5706 2.6445s1.7692 2.3273 2.3054 3.6684z"/>
  <path d="m226.22 132.39q-0.49196 1.8745-0.9758 3.7316-0.46638 1.8652-0.95021 3.7223l-3.2654-4.1163q1.0793-4.0447 1.9342-7.4714z"/>
  <path d="m216.77 142.5-3.1433-4.6969 16.113 5.5784 3.7658 4.7748-4.623-1.753c0.0846 0.15281 0.20519 0.36495 0.36194 0.63642l9e-3 0.0257c1.115 2.3479 1.3255 5.0249 0.63157 8.0308-0.69392 3.006-1.6726 5.5744-2.936 7.7054-0.27995 0.47865-0.64875 0.85918-1.1064 1.1416-0.45763 0.2824-0.95369 0.3131-1.4882 0.0921-1.5686-1.2844-2.87-2.4583-3.9041-3.5217 0.8657 0.14883 1.653-0.26315 2.3619-1.236s1.3258-2.1586 1.8508-3.5572c0.42418-1.0915 0.89719-2.6065 1.419-4.545 0.52725-1.9502 0.81524-3.6153 0.86395-4.9952l-9e-3 -0.0257c0.0241-0.17298 0.0257-0.32813 5e-3 -0.46544z"/>
  <path d="m225.47 163.7q-0.12791 0.68418-0.26514 1.3428-0.15469 0.65044-0.27445 1.3172l-8e-3 0.0174 0.0349 0.0163q-0.27905 1.7826-0.71749 3.7246-0.44776 1.9164-0.0904 3.0183l9e-3 0.0257q0.34332 0.58522 0.20488 0.88195-0.10585 0.2269-0.50029 0.29792-0.32581 0.0605-0.62252-0.0779-0.48872-0.228-0.87279-1.0448l-0.0349-0.0163q-0.56905-0.64803-0.97405-1.2833-1.6886-2.5306-1.3921-3.9862 0.29654-1.4556 0.84788-3.0474l-0.0523-0.0244 0.0245-0.0524q0.0384-0.17335 0.10233-0.35606 0.0465-0.19082 0.0756-0.3898l-0.0268-0.0338 0.0163-0.0349 0.19423-0.78077q-3.5039-4.015-5.2928-8.0163-1.0347-2.2467-0.42394-3.5558 0.22801-0.48872 0.69221-0.84599 1.1483-0.86698 2.8065-0.0934 0.82036 0.38272 1.7548 1.1587 2.3739 2.3827 3.8601 5.3926 1.4862 3.01 0.9246 6.446zm-6.8554-7.4914q-0.10228 0.99369 0.33298 1.7918 0.41779 0.79002 0.82631 1.5544 0.1816 0.33972 0.47828 0.47818 0.20944 0.0977 0.46775 0.0907 0.64578-0.0175 1.0506-0.33875 0.46645-1.2276 0.44765-2.8729-9e-3 -0.66323-0.62028-0.94823-0.33163-0.15472-0.88433-0.20004-1.5022-0.10571-2.099 0.44473z"/>
  <path d="m211.29 149.18q0.60054 1.1728 1.1662 2.3293 0.56559 1.1565 1.1312 2.313l-3.5289 1.4141q-0.59122-1.1472-1.1487-2.3212-0.56559-1.1565-1.1487-2.3212z"/>
  <path d="m223.84 171.93q0.21879 0.76096 0.68663 1.4893 0.47598 0.71087 1.0206 1.4113 1.3848 1.815 1.043 3.5045-0.29654 1.4556-1.5599 3.1616-0.40718 0.55391-2.214 2.5589-1.8068 2.005-2.3769 2.2704-0.38283 0.1827-0.38169-0.41185 0.27544-2.8682 1.1082-5.8377 0.84092-2.987 1.3653-5.8878 0.20351-1.074-0.25623-2.1386l0.0174 8e-3q-0.21766-0.39905 0.0232-0.73304 0.406-0.59695 1.1182-0.0734 0.39563 0.29084 0.40615 0.67831z"/>
  <path d="m213.78 161.2q0.60053 1.1728 1.1662 2.3293 0.56559 1.1565 1.1312 2.313l-3.5289 1.4141q-0.59121-1.1472-1.1487-2.3212-0.56559-1.1565-1.1487-2.3212z"/>
  <path d="m207.98 168.87q1.882 1.9044 2.445 4.1063 0.56313 2.2017 0.44282 4.1095-0.0948 1.6896-0.92625 3.2492-0.83162 1.5323-2.328 3.3834l-2.9077-4.0752 0.0272-0.0277q1.9134-2.4675 2.6384-3.7265 0.73846-1.2728 0.97269-2.5822-0.59015-0.5536-3.7506-2.2568l-1.0656-5.2892q2.5703 1.1771 4.4522 3.109z"/>
  <path d="m219.53 181.39q-1.0898 1.6026-2.1661 3.1914-1.0626 1.6024-2.1389 3.1912l-1.703-4.9706q2.3682-3.4519 4.3185-6.3963z"/>
 </g>
</svg>
