<svg width="825.39pt" height="1647.5pt" version="1.1" viewBox="0 0 825.39 1647.5" xmlns="http://www.w3.org/2000/svg">
 <g fill="#fff">
  <g transform="translate(-227.1 -192.19)">
   <path d="m359.07 194.05c1.1954-2.415 3.8991-2.5496 4.94 0l131.61 276.18h-74.98l-14.45-32.87h-94.45l-13.707 32.87h-70.933l131.97-276.18m-24.94 190.6h48.79l-24.395-56.76z"/>
   <path d="m512.38 198.72h72.54v210.14h115.42v61.37l-187.96 1e-5z"/>
  </g>
  <path d="m493.36 6.5371h72.54v210.14h115.42v61.37h-187.96z"/>
 </g>
 <g fill="#c12622">
  <path d="m21.92 349.13h184.44v61.13h-111.68v54.82h98.43v61.155h-98.43v94.13h-72.76z"/>
  <path d="m566.61 344.2c1.1954-2.415 3.8991-2.5496 4.94 0l131.61 276.18h-74.98l-14.45-32.87h-94.45l-13.707 32.87h-70.933l131.97-276.18m-24.94 190.6h48.79l-24.395-56.76z"/>
  <path d="m236.35 348.88h72.54v210.14h115.42v61.37l-187.96 1e-5z"/>
  <path d="m586.82 686.98 170.37 140.03v-135.58h68.2v275.38c0 2.784-1.82 3.57-3.63 2.18l-172.2-141.25v134.93h-68.315l-2e-5 -273.41c0-2.3853 0.71218-5.8785 5.57-2.2871z"/>
  <path d="m350.67 691.49h190.6v61.39h-117.78v44.215h98.055v58.1h-98.055v46.27h123.24v61.22h-196.06z"/>
  <path d="m77.72 1048.7c19.2-10.95 41.08-17.16 63.17-17.93 23.94-0.66 48.38 2.81 70.25 12.94 20.66 9.43 38.31 24.92 51.09 43.62 0.28051 0.4307 0.77899 1.1741 1.1636 1.7269l-55.074 36.899c-0.0234-0.046-0.0498-0.095-0.0797-0.1459-8.77-14.35-22.98-25.48-39.45-29.42-17.64-4.22-37.48-3.83-53.3 5.94-16.64 10-26.83 28.22-30.45 46.92-3.78 19.71-2.3 40.82 6.2 59.17 6.71 14.47 18.63 26.73 33.6 32.58 11.38 4.63 23.97 5.28 36.07 3.94 14.05-1.43 28-6.98 38.05-17.12 5.93-5.69 10.48-12.62 14.45-19.76 18.6 11.95 37.26 23.83 55.79 35.91-8.45 15.17-19.9 28.8-33.63 39.48-16.83 13.1-37.48 20.63-58.49 23.49-21.39 2.73-43.44 2.65-64.37-2.94-33.43-8.5-63.67-29.64-82.28-58.8-23.62-36.38-27.84-83.86-13.41-124.49 10.75-30.25 32.75-56.24 60.7-72.01z"/>
  <path d="m417.06 1030.9a145.36 138.74 0 0 0-145.36 138.74 145.36 138.74 0 0 0 145.36 138.74 145.36 138.74 0 0 0 145.37-138.74 145.36 138.74 0 0 0-145.37-138.74zm0 63.035a71.185 75.703 0 0 1 71.186 75.703 71.185 75.703 0 0 1-71.186 75.703 71.185 75.703 0 0 1-71.184-75.703 71.185 75.703 0 0 1 71.184-75.703z" stroke="#fff" stroke-width=".59755" style="paint-order:stroke fill markers"/>
  <path d="m648.59 1308.5h141.39v58.78h-141.39z"/>
  <path d="m21.915 1376.4h461.06v271.11h-461.06v-271.11m143.98 43.63-90.32 114.93v37.17h93.75l0.07 31.89h46.995v-31.89h21.045v-38.925h-21.045v-113.18h-50.495m96.69 0-0.04 183.99h49.13v-47.95l15.39-19.04 43.983 66.99h57.857l-68.277-104.37 61.027-79.617h-53.22l-56.76 76.18v-76.18z"/>
  <path d="m169.29 1477.6v55.525h-44.08z"/>
  <path d="m31.961 686.25c-0.59915 0.0157-1.0763 0.70485-1.2012 2.7143l-16.1 273.72h71.32l6.3398-115.35c23.34 26.16 46.72 51.679 70.11 77.799 1.7094 1.7094 2.8941 1.6864 4.5806 0v-7e-3c23.389-26.118 46.767-51.636 70.106-77.795l6.3398 115.35h71.319l-16.1-273.72c-0.33294-5.3587-3.1699-1.3311-4.1499-0.1611l-129.62 144.57c-0.19104 0.19095-0.18628 0.18428-0.3706 0l-129.62-144.57c-0.6125-0.73125-1.9501-2.5774-2.9487-2.5517z"/>
 </g>
</svg>
