<?xml version="1.0" encoding="UTF-8"?>
<!-- Generator: Gravit.io -->
<svg id="svg27" width="1594" height="398" style="isolation:isolate" version="1.1" viewBox="0 0 1594 398" xmlns="http://www.w3.org/2000/svg" xmlns:cc="http://creativecommons.org/ns#" xmlns:dc="http://purl.org/dc/elements/1.1/" xmlns:rdf="http://www.w3.org/1999/02/22-rdf-syntax-ns#">
 <metadata id="metadata31">
  <rdf:RDF>
   <cc:Work rdf:about="">
    <dc:format>image/svg+xml</dc:format>
    <dc:type rdf:resource="http://purl.org/dc/dcmitype/StillImage"/>
    <dc:title/>
   </cc:Work>
  </rdf:RDF>
 </metadata>
 <g id="g849" fill="#faae00">
  <path id="path19" d="m1171 229c-7 0-13 1-20 3v84l-29 46c13 11 31 18 49 18 42 0 76-34 76-75 0-42-34-76-76-76"/>
  <path id="path21" d="m1531 93-32 104c-6 17-12 37-14 48-3-10-9-31-14-48l-33-104h-110v-86l-59 29v57h-37v56h37v105c0 39 24 67 60 67 18 0 35-6 45-14l9-59c-15 12-23 17-33 17-14 0-22-6-22-27v-89h65l61 167h60l80-223h-63"/>
 </g>
 <g id="g858" fill="#003b5b">
  <path id="path7" d="m133 223c-10-6-20-9-40-9-23 0-34 10-34 28 0 15 9 29 34 29 19 0 34-9 40-20zm0 93v-15c-10 11-29 20-50 20-41 0-83-25-83-79 0-50 40-74 90-74 21 0 34 4 43 9v-11c0-16-10-29-32-29-26 0-40 4-61 15l-22-41c26-15 47-22 83-22 54 0 91 28 91 78v149h-59" fill-rule="evenodd"/>
  <path id="path9" d="m241 316v-280l58-29v309z"/>
  <path id="path11" d="m350 316v-280l58-29v309z"/>
  <path id="path13" d="m582 163c-9-12-23-19-40-19-22 0-34 19-34 57 0 46 15 65 38 65 18 0 27-8 36-19zm-37 235-21-44c46-6 58-17 58-52-11 10-26 19-47 19-48 0-87-36-87-119 0-67 32-113 87-113 19 0 36 7 47 17v-13h58v186c0 73-17 111-95 119z" fill-rule="evenodd"/>
  <path id="path15" d="m824 66c-18 0-33-15-33-33s15-33 33-33 33 15 33 33-15 33-33 33zm-13 157c-10-6-20-9-41-9-22 0-34 10-34 28 0 15 9 29 34 29 19 0 35-9 41-20zm-79-157c-18 0-33-15-33-33s15-33 33-33 33 15 33 33-15 33-33 33zm79 250v-15c-11 11-29 20-50 20-42 0-83-25-83-79 0-50 40-74 90-74 20 0 34 4 43 9v-11c0-16-11-29-32-29-27 0-41 4-61 15l-23-41c26-15 48-22 84-22 54 0 91 28 91 78v149h-59" fill-rule="evenodd"/>
  <path id="path17" d="m1049 316v-15c-10 11-29 20-52 20-57 0-83-39-83-102v-126h59v121c0 40 14 52 38 52s38-12 38-51v-122h59v223h-59"/>
  <path id="path23" d="m1202 305c0 17-14 30-31 30s-31-13-31-30 14-31 31-31 31 14 31 31z"/>
 </g>
</svg>
