<svg width="696.76" height="128.6" version="1.1" viewBox="0 0 184.35 34.026" xmlns="http://www.w3.org/2000/svg">
 <g transform="translate(378.13 258.63)">
  <g stroke="#000" stroke-width="1.0258">
   <path d="m-362.47-238.47h-8.033l-1.8454 5.9705h-5.0659l8.5758-25.329h4.704l8.5758 25.329h-5.0659zm-6.6942-4.3422h5.3554l-2.6777-8.7929z"/>
   <path d="m-348.5-258.11v25.619h-4.4869v-25.619z"/>
   <path d="m-344.95-241.61q0-2.0987 0.50659-3.8356 0.54277-1.7369 1.5921-2.9672 1.0494-1.2303 2.6053-1.9178 1.556-0.68751 3.6185-0.68751 0.83225 0 1.556 0.21711 0.7237 0.18093 1.3027 0.50659t0.97699 0.7237q0.39804 0.36185 0.57896 0.7237v-1.8816h4.4869v25.619h-4.4869v-9.0462q-0.61514 0.75989-1.8454 1.375-1.1941 0.57896-2.5691 0.57896-2.0625 0-3.6185-0.68751-1.556-0.68752-2.6053-1.9178-1.0494-1.2303-1.5921-2.9672-0.50659-1.7369-0.50659-3.8356zm4.704 0q0 2.7139 1.2303 4.1613 1.2303 1.4112 3.0034 1.4112t2.9672-1.4112q1.2303-1.4474 1.2303-4.1613t-1.2303-4.1251q-1.1941-1.4474-2.9672-1.4474t-3.0034 1.4474q-1.2303 1.4112-1.2303 4.1251z"/>
   <path d="m-296.39-257.82-6.6942 11.652 7.8883 13.678h-5.2106l-5.2468-9.1548-5.2468 9.1548h-5.2106l7.8883-13.678-6.6942-11.652h5.1383l4.1251 7.1646 4.1251-7.1646z"/>
   <path d="m-275.04-257.82-6.6942 11.652 7.8883 13.678h-5.2106l-5.2468-9.1548-5.2468 9.1548h-5.2106l7.8883-13.678-6.6942-11.652h5.1383l4.1251 7.1646 4.1251-7.1646z"/>
   <path d="m-270.99-257.82h4.704v9.6252h10.132v-9.6252h4.704v25.329h-4.704v-11.362h-10.132v11.362h-4.704z"/>
   <path d="m-247.56-241.61q0-2.0987 0.57896-3.8356t1.7007-2.9672q1.1217-1.2303 2.7139-1.9178 1.6283-0.68751 3.6909-0.68751 1.5198 0 2.8224 0.65133 1.3388 0.61514 1.954 1.375v-1.7369h4.4869v18.237h-4.4869v-1.8816q-0.65132 0.90463-1.8816 1.556-1.1941 0.61514-2.8948 0.61514-2.0625 0-3.6909-0.68751-1.5921-0.68752-2.7139-1.9178-1.1217-1.2303-1.7007-2.9672-0.57896-1.7369-0.57896-3.8356zm4.704 0q0 1.375 0.36185 2.4244 0.39804 1.0132 1.0494 1.7369 0.65132 0.68751 1.4836 1.0494 0.83225 0.36185 1.7007 0.36185t1.7007-0.36185 1.4474-1.0494q0.65132-0.7237 1.0132-1.7369 0.39804-1.0494 0.39804-2.4244 0-1.3388-0.39804-2.3882-0.36185-1.0494-1.0132-1.7369-0.61515-0.7237-1.4474-1.0856t-1.7007-0.36185-1.7007 0.36185q-0.83226 0.36185-1.4836 1.0856-0.65133 0.68751-1.0494 1.7369-0.36185 1.0494-0.36185 2.3882z"/>
   <path d="m-225.17-232.5v-18.237h4.4869v2.9672q0.97699-1.6283 2.3882-2.4244 1.4474-0.83225 3.0034-0.83225 0.28948 0 0.65133 0.0362 0.39804 0.0362 0.7237 0.10855v4.3784q-0.83225-0.50659-1.8816-0.50659-0.97699 0-1.8816 0.43422-0.86844 0.43422-1.556 1.375-0.65133 0.94081-1.0494 2.4968-0.39803 1.5198-0.39803 3.727v6.4771z"/>
   <path d="m-211.52-241.61q0-2.0987 0.50659-3.8356 0.54277-1.7369 1.5921-2.9672 1.0494-1.2303 2.6053-1.9178 1.556-0.68751 3.6185-0.68751 1.375 0 2.5691 0.61514 1.2303 0.57896 1.8454 1.3388v-9.0462h4.4869v25.619h-4.4869v-1.8816q-0.18092 0.36185-0.57896 0.75989-0.39803 0.36185-0.97699 0.68751-0.57896 0.32567-1.3027 0.50659-0.72369 0.21711-1.556 0.21711-2.0625 0-3.6185-0.68751-1.556-0.68752-2.6053-1.9178-1.0494-1.2303-1.5921-2.9672-0.50659-1.7369-0.50659-3.8356zm4.704 0q0 2.7139 1.2303 4.1613 1.2303 1.4112 3.0034 1.4112t2.9672-1.4112q1.2303-1.4474 1.2303-4.1613t-1.2303-4.1251q-1.1941-1.4474-2.9672-1.4474t-3.0034 1.4474q-1.2303 1.4112-1.2303 4.1251z"/>
  </g>
 </g>
</svg>
