<svg width="576.04" height="131.48" version="1.1" viewBox="0 0 152.41 34.786" xmlns="http://www.w3.org/2000/svg">
 <g transform="translate(378.13 78.381)">
  <g stroke="#000" stroke-width="1.0258">
   <path d="m-362.47-57.46h-8.033l-1.8454 5.9705h-5.0659l8.5758-25.329h4.704l8.5758 25.329h-5.0659zm-6.6942-4.3422h5.3554l-2.6777-8.7929z"/>
   <path d="m-348.5-77.109v25.619h-4.4869v-25.619z"/>
   <path d="m-344.95-60.608q0-2.0987 0.50659-3.8356 0.54277-1.7369 1.5921-2.9672 1.0494-1.2303 2.6053-1.9178 1.556-0.68751 3.6185-0.68751 0.83225 0 1.556 0.21711 0.7237 0.18092 1.3027 0.50659t0.97699 0.7237q0.39804 0.36185 0.57896 0.7237v-1.8816h4.4869v25.619h-4.4869v-9.0462q-0.61514 0.75988-1.8454 1.375-1.1941 0.57896-2.5691 0.57896-2.0625 0-3.6185-0.68751t-2.6053-1.9178q-1.0494-1.2303-1.5921-2.9672-0.50659-1.7369-0.50659-3.8356zm4.704 0q0 2.7139 1.2303 4.1613 1.2303 1.4112 3.0034 1.4112t2.9672-1.4112q1.2303-1.4474 1.2303-4.1613t-1.2303-4.1251q-1.1941-1.4474-2.9672-1.4474t-3.0034 1.4474q-1.2303 1.4112-1.2303 4.1251z"/>
   <path d="m-312.51-51.49v-2.931q-1.0132 1.4474-2.4606 2.352-1.4112 0.86844-3.1843 0.86844-2.4606 0-4.0527-1.375-1.556-1.375-1.556-4.1251v-13.027h4.4869v11.688q0 1.6283 0.7237 2.3158 0.72369 0.68751 1.8816 0.68751 0.79607 0 1.556-0.4704 0.75989-0.50659 1.3388-1.4474 0.57895-0.94081 0.90462-2.3158 0.36185-1.375 0.36185-3.1843v-7.2732h4.4869v18.237z"/>
   <path d="m-304.52-74.974q0-1.2303 0.79607-2.0625 0.83226-0.83225 2.0987-0.83225t2.0625 0.83225q0.83225 0.83225 0.83225 2.0625 0 1.2303-0.83225 2.0625-0.79607 0.83225-2.0625 0.83225t-2.0987-0.83225q-0.79607-0.83225-0.79607-2.0625zm5.1383 5.2468v18.237h-4.4869v-18.237z"/>
   <path d="m-290.47-77.109v25.619h-4.4869v-25.619z"/>
   <path d="m-269.67-59.161h-12.556q0.0362 0.75988 0.32566 1.5198 0.28948 0.7237 0.83226 1.3027 0.54277 0.57896 1.3026 0.94081 0.79607 0.36185 1.8454 0.36185 1.556 0 2.5329-0.65133 0.97699-0.68751 1.7731-1.954l3.6185 1.3388q-0.54277 1.1217-1.2665 2.0625t-1.7007 1.6283q-0.97699 0.65133-2.2796 1.0494-1.2665 0.36185-2.931 0.36185-2.352 0-4.0165-0.86844t-2.7139-2.2073q-1.0494-1.375-1.556-3.0395-0.4704-1.6645-0.4704-3.2928t0.4704-3.2928q0.50659-1.6645 1.556-3.0033 1.0494-1.375 2.7139-2.2435 1.6645-0.86844 4.0165-0.86844 2.2796 0 3.8718 0.86844 1.6283 0.83225 2.6415 2.1711 1.0494 1.3027 1.5198 2.8948 0.47041 1.5921 0.47041 3.0757zm-8.5035-7.0199q-0.86844 0-1.556 0.32566-0.65133 0.28948-1.1579 0.79607-0.4704 0.4704-0.79607 1.0855-0.32566 0.61514-0.43422 1.2665h7.8521q-0.14474-0.68751-0.43422-1.3027-0.28948-0.61514-0.75988-1.0855-0.4704-0.50659-1.1579-0.79607-0.65133-0.28948-1.556-0.28948z"/>
   <path d="m-266.23-51.49v-18.237h4.4869v2.9672q0.97699-1.6283 2.3882-2.4244 1.4474-0.83225 3.0034-0.83225 0.28948 0 0.65133 0.03619 0.39803 0.03619 0.7237 0.10856v4.3784q-0.83225-0.50659-1.8816-0.50659-0.97699 0-1.8816 0.43422-0.86844 0.43422-1.556 1.375-0.65132 0.94081-1.0494 2.4968-0.39803 1.5198-0.39803 3.727v6.4771z"/>
   <path d="m-238.9-59.088q0.39803 1.7007 1.375 2.7139 0.977 0.97699 2.7139 0.97699 1.7731 0 2.8948-1.1217 1.1217-1.1579 1.1217-3.1119 0-2.2073-1.1217-3.329t-2.8586-1.1217q-0.61515 0-1.1217 0.14474-0.50659 0.10856-1.0856 0.39803l-1.8092-2.5329 4.7764-6.5495h-8.0692v-4.1975h14.51v1.5921l-5.9705 8.0692q0.25329-0.03619 0.4704-0.03619 0.21711-0.03618 0.54277-0.03618 1.4474 0 2.6053 0.54277 1.1941 0.54277 1.9902 1.556 0.83225 0.97699 1.2665 2.3882 0.43422 1.375 0.43422 3.0395 0 1.954-0.65133 3.5461-0.65133 1.556-1.8092 2.6777-1.1579 1.0855-2.7139 1.7007-1.556 0.57896-3.4014 0.57896-1.7731 0-3.2566-0.54277t-2.6053-1.5198q-1.0856-0.97699-1.7731-2.3158-0.68752-1.3388-0.83226-2.931z"/>
  </g>
 </g>
</svg>
