<svg width="800" height="413.25" version="1.1" viewBox="0 0 800 413.25" xml:space="preserve" xmlns="http://www.w3.org/2000/svg">
<g fill="#505153" stroke-width="10.596"><path class="st1" d="m443.97 221.46-12.715-37.086-12.715 37.086zm-24.371-82.649h22.252l44.503 132.45h-26.49l-8.4768-26.49h-40.265l-8.4768 26.49h-26.49z"/><path class="st1" d="m563.71 166.36h-41.324v-27.55h109.14v27.55h-41.324v109.14h-27.55v-109.14z"/><path class="st1" d="m678.14 138.81h28.609l31.788 89.006 31.788-89.006h29.669l-47.682 136.69h-24.371c-1.0596 0-49.801-136.69-49.801-136.69z"/></g><g fill="#aa111b" stroke-width="10.596"><path class="st3" d="m155.76 235.23c-5.298 0-9.5364 0-14.834-1.0596h-57.218c1.0596-3.1788 3.1788-5.298 4.2384-8.4768 2.1192-3.1788 4.2384-7.4172 6.3576-10.596 0 0 0-1.0596 1.0596-1.0596l-1.0596-1.0596c-1.0596-1.0596-2.1192-2.1192-2.1192-3.1788-1.0596-1.0596-2.1192-3.1788-6.3576-3.1788-1.0596 0-3.1788 0-4.2384 1.0596-2.1192 0-3.1788 1.0596-4.2384 3.1788 0 0-1.0596 1.0596-1.0596 2.1192-1.0596 2.1192-1.0596 4.2384-3.1788 6.3576 0 0-1.0596 3.1788-3.1788 6.3576-1.0596 3.1788-2.1192 6.3576-4.2384 9.5364h-57.218c-2.1192 1.0596-3.1788 1.0596-5.298 3.1788 0 0-1.0596 1.0596-3.1788 2.1192 2.1192 1.0596 3.1788 2.1192 3.1788 2.1192 1.0596 1.0596 2.1192 1.0596 3.1788 2.1192s2.1192 2.1192 4.2384 2.1192c6.3576 2.1192 12.715 3.1788 20.132 3.1788h31.788c1.0596 1.0596 1.0596 2.1192 0 3.1788-1.0596 2.1192-1.0596 3.1788-2.1192 5.298 0 1.0596-1.0596 3.1788-2.1192 4.2384-2.1192 4.2384-3.1788 8.4768-4.2384 12.715 0 1.0596-1.0596 5.298-4.2384 12.715l-2.1192 6.3576c-1.0596 3.1788-1.0596 5.298-1.0596 8.4768 1.0596 5.298 3.1788 10.596 7.4172 15.894 4.2384 6.3576 12.715 9.5364 20.132 8.4768 5.298 0 9.5364-1.0596 13.775-3.1788 2.1192-1.0596 4.2384-3.1788 5.298-6.3576l2.1192-4.2384c1.0596 2.1192 1.0596 3.1788 2.1192 4.2384s3.1788 2.1192 4.2384 4.2384c2.1192 1.0596 5.298 2.1192 7.4172 2.1192s4.2384-1.0596 6.3576-2.1192 4.2384-3.1788 6.3576-5.298c0 0 2.1192-2.1192 4.2384-5.298 2.1192-5.298 4.2384-8.4768 4.2384-8.4768 1.0596-3.1788 3.1788-6.3576 5.298-8.4768v-4.2384c0-2.1192 0-3.1788 1.0596-4.2384 3.1788-4.2384 4.2384-9.5364 6.3576-14.834 1.0596-1.0596 1.0596-2.1192 0-4.2384 0 0 0-2.1192-1.0596-4.2384-2.1192 2.1192-3.1788 2.1192-3.1788 3.1788l-1.0596 1.0596c-1.0596 0-1.0596 1.0596-2.1192 1.0596-3.1788 2.1192-5.298 5.298-6.3576 8.4768 0 1.0596-4.2384 8.4768-5.298 9.5364-2.1192 4.2384-4.2384 7.4172-7.4172 10.596s-6.3576 7.4172-8.4768 11.656c0-1.0596 0-2.1192-1.0596-4.2384v-31.788c0-2.1192-1.0596-4.2384-2.1192-6.3576l-1.0596-1.0596h-1.0596c-5.298 0-6.3576 0-7.4172 1.0596s-2.1192 2.1192-2.1192 5.298v27.55c0 3.1788 0 5.298 1.0596 8.4768h-3.1788c-1.0596 0-3.1788 1.0596-4.2384 2.1192l-3.1788 2.1192c-4.2384 2.1192-9.5364 3.1788-14.834 3.1788-2.1192 0-3.1788 0-4.2384-1.0596-1.0596 0-2.1192-2.1192-3.1788-5.298 0-3.1788-1.0596-6.3576-1.0596-8.4768s0-3.1788 1.0596-5.298c0 0 0-2.1192 1.0596-5.298 1.0596-4.2384 2.1192-6.3576 2.1192-7.4172 2.1192-5.298 4.2384-11.656 4.2384-16.954l1.0596-1.0596c1.0596-3.1788 2.1192-5.298 2.1192-5.298 1.0596-2.1192 2.1192-4.2384 2.1192-6.3576 0-1.0596 1.0596-3.1788 2.1192-3.1788 1.0596-1.0596 2.1192-1.0596 4.2384-1.0596h3.1788c9.5364 0 14.834-1.0596 15.894-1.0596 9.5364 0 20.132-1.0596 30.728-2.1192 1.0596 0 12.715-1.0596 13.775-1.0596 10.596 0 20.132-1.0596 27.55-4.2384 1.0596 0 4.2384-1.0596 9.5364-3.1788-6.3576 0-10.596-1.0596-10.596-1.0596h-14.834"/><path class="st3" d="m371.92 403.71h-42.384l-178.01-398.41-2.1192-5.298-41.324 119.73 8.4768 6.3576 13.775-37.086 138.81 314.7h-42.384l4.2384 9.5364h145.17z"/></g>
</svg>
