<svg width="800" height="231.74" version="1.1" viewBox="0 0 800 231.74" xmlns="http://www.w3.org/2000/svg">
 <g transform="matrix(2.3529 0 0 2.3529 0 1.6319e-6)" fill="#d2134b" data-name="Capa 2">
  <g fill="#d2134b" data-name="Capa 1">
   <path class="cls-1" d="m0 0h176.75v18.75h-4.52v-14.25h-167.72v89.5h167.73v-14.26h4.51v18.75h-176.75z"/>
   <path class="cls-1" d="m35.2 28.39a26.16 26.16 0 0 1 16.71 1 13.84 13.84 0 0 1 8 12.35c0.33 9.4 0 18.82 0.14 28.22h-4.67c-0.12-1.53-0.25-3-0.39-4.57-5 4.08-11.65 5.55-18 5.55-3.87-0.11-8-1-10.88-3.82-4.68-5.12-2.92-14.27 3.09-17.69 7.73-4.81 17.23-3.48 25.88-3.69 0.11-3.9-0.21-8.46-3.7-10.94-7.07-4.55-19.29-3.38-22.09 5.7h-4.87a15.56 15.56 0 0 1 10.78-12.11zm-2.48 24.61a7.47 7.47 0 0 0-3.85 9.51c0.83 2.09 3.2 2.86 5.21 3.32a24.06 24.06 0 0 0 20.92-6.83 80.74 80.74 0 0 0 0.26-8.52c-7.52 0.23-15.57-0.91-22.54 2.52z"/>
   <path class="cls-1" d="m127.71 29c9.39-4.26 21 0.76 25.25 9.91-1.87 0.05-3.74 0.07-5.6 0.09-3.41-4.75-9.48-7.85-15.35-6.32-8.43 1.93-13.63 11.41-11.91 19.66 1 6.28 5.71 12.08 12.06 13.43 5.79 1.46 11.82-1.66 15.2-6.34 1.87 0 3.74 0 5.61 0.1-2.88 5.43-7.89 9.9-14.06 11-9.11 2.12-18.73-3.68-22.13-12.17-4.78-10.58-0.17-24.88 10.93-29.36z"/>
   <path class="cls-1" d="m210 27.49c6.62 0.17 13.28-0.37 19.87 0.34 8 0.81 15.21 8.13 14.4 16.41-0.18 6.84-5.86 12.17-12 14.22 4.67 4.12 9.24 8.35 13.84 12.55-3.42-0.17-6.94 0.36-10.3-0.25-4.13-3.35-7.81-7.16-11.81-10.59-1.89-1.76-4.65-1-7-1.18v12.01h-7v-32.85c4.53 4.12 9 8.26 13.59 12.37 4.15 4.36 11.51 0.41 13.22-4.51 2.19-5.71-3.13-11.68-8.81-11.91-6-0.26-12 0-18-0.1z"/>
   <path class="cls-1" d="m248.49 27.5h7v43.5h-7z"/>
   <path class="cls-1" d="m258.5 27.49c3.17 0 6.34 0 9.51-0.07 1.85 1.57 2.6 3.93 3.63 6 3.29 7 6.56 14 9.93 21 3.93-8.36 7.67-16.81 11.57-25.19a2.61 2.61 0 0 1 2.76-1.73c2.86-0.09 5.73 0 8.6 0v43.5h-7v-34c-5.32 11.39-10.5 22.84-16 34.16-5.3-11.31-10.72-22.58-16-33.89v33.73h-7z"/>
   <path class="cls-1" d="m307.5 27.5h32.5v6.5h-25.49v12h12v6.5h-12v12h25.49v6.5h-32.5q-0.01-21.75 0-43.5z"/>
   <path class="cls-1" d="m66 28.49h6.14q8 17.54 16.14 35c5.26-11.72 10.77-23.32 16.09-35h6.13v41.51h-4.75c0-10.93-0.12-21.86 0.09-32.78-5.15 10.87-10.16 21.78-15.14 32.78h-4.86c-5-10.93-10.07-21.83-15.09-32.75v32.75h-4.75z"/>
   <path class="cls-1" d="m173 40.32c1.8-9.15 12.22-14.42 20.94-12.3 7.48 1.38 13.87 8.39 13.17 16.23h-6.93c0.4-6.28-6.16-11.38-12.14-10-4.33 0.66-8.17 4.46-8.22 9s-0.14 8.72 0.07 13.08c0.74 6.47 8.81 10.1 14.44 7.28a9.75 9.75 0 0 0 5.85-9.31h6.93a15 15 0 0 1-6.11 13c-6.65 5.13-16.95 4.87-23.16-0.85a14.34 14.34 0 0 1-5.08-11.19c0.11-4.96-0.29-9.97 0.24-14.94z"/>
  </g>
 </g>
</svg>
