<svg width="800" height="186.88" version="1.1" viewBox="0 0 800 186.88" xml:space="preserve" xmlns="http://www.w3.org/2000/svg">
<g transform="matrix(1.6 0 0 1.6 0 4.8828e-6)">
	<path class="st0" d="m131.3 33.9v49h-5.5v-39.4l-18.2 39.4h-5.4l-0.2-0.4-18-39v39.4h-5.5v-49h7l0.2 0.4 19.2 41.4 19.3-41.8h7.1zm-60.1 23.9v25.1h-5.5l-0.1-5.7c-2.3 1.8-4.8 3.3-7.4 4.4-3 1.2-8.3 2.5-13.6 2.5-4.6 0-8.5-1-11.3-2.7-3.5-2.3-5.2-5.7-5.2-10.2 0-4.2 1.5-7.8 4.5-10.5 6-5.6 16.2-6.2 20.4-6.1 0.5 0 10.1-0.1 12.8-0.1 0-1.7-0.1-3-0.1-4.2-0.5-8.2-5.6-12-16.2-12-11.1 0-13.8 7.4-14.2 8.9l-0.3 1h-5.6l0.4-1.6c0.2-1.6 3.6-13.8 19.6-13.8 17 0 21.2 9.3 21.6 17.1 0.1 1.9 0.2 7.6 0.2 7.9m-17.2 2h-1.1c-3.5 0-12.1 0.5-16.5 4.6-1.9 1.7-2.7 3.9-2.7 6.6 0 2.6 0.9 4.5 2.8 5.7 5 3.2 15.5 1.6 19.7-0.2 3.7-1.6 6.9-4 9.6-6.9 0-3.7 0.1-7 0-10zm156.1-37.8v-22h-210.1v116.8h210.1v-22h-5.1v17h-199.9v-106.8h199.9v17h5.1zm-34.9 48.7c-3.5 5-8.8 7.9-14.5 7.9-10.1 0-18.4-9.1-18.4-20.2s8.2-20.2 18.4-20.2c5.7 0 11.1 2.9 14.5 7.9h6.3c-4.2-8.2-12.1-13.3-20.8-13.3-13.1 0-23.8 11.5-23.8 25.6s10.7 25.6 23.8 25.6c8.7 0 16.7-5.1 20.8-13.3z"/>
		<path class="st0" d="m251.8 52.6c6 2.5 9.1 7.7 9.1 15.4 0 11.5-6.8 17.3-20.3 17.3h-35.6v-52.9h33.4c5.4 0 9.5 1.1 12.3 3.3 2.7 2.2 4.1 5.2 4.1 9 0 3.2-1 5.8-3 7.9zm-20.6-4.3h-1.2v5.2h1.2c2.2 0 3.3-0.9 3.3-2.6 0.1-1.7-1-2.6-3.3-2.6zm0.5 20.3c2.8 0 4.2-1 4.2-3 0-2.1-1.4-3.1-4.2-3.1h-1.7v6.1z"/>
		<path class="st0" d="m294.9 85.3-5.1-9.6h-4.6v9.6h-25v-52.9h30c17.8 0 26.8 7.2 26.8 21.7 0 6.3-1.7 11.3-5.2 14.9l10.5 16.3zm-7.8-34.5h-2v7.9h2c3.2 0 4.8-1.3 4.8-3.9 0-1.2-0.4-2.2-1.2-2.9s-2-1.1-3.6-1.1z"/>
		<path class="st0" d="m346 63.8v3.9h22.4l-3.5 17.6h-43.9v-52.9h43.9l3.5 17.6h-22.4v3.9h18.6v10h-18.6z"/>
		<path class="st0" d="m364 85.3 36-55.9 35.9 55.9h-29.6l-6.3-10.9-6.4 10.9z"/>
		<path class="st0" d="m500 85.3h-28.6l-11.6-25v25h-25v-52.9h25v15.1l6.6-15.1h28.6l-12.5 21.7z"/>
</g>
</svg>
