<svg data-name="Capa 2" version="1.1" viewBox="0 0 55.36 56.6" xmlns="http://www.w3.org/2000/svg">
 <defs>
  <style>.cls-1{fill:#00953b;}.cls-2,.cls-3{fill:#6abf4b;}.cls-3{fill-rule:evenodd;}</style>
 </defs>
 <path class="cls-1" d="m25.31 0h6v13.52a14.55 14.55 0 0 0-6 0z" fill="#00953b"/>
 <path class="cls-1" d="m31.28 56.6h-6v-13.52a14.56 14.56 0 0 0 6 0z" fill="#00953b"/>
 <path class="cls-1" d="m0 31.29v-6h13.52a14.41 14.41 0 0 0 0 6z" fill="#00953b"/>
 <path class="cls-1" d="m46.2 6.18 4.22 4.27-9.56 9.56a14.47 14.47 0 0 0-4.22-4.22l9.56-9.56z" fill="#00953b"/>
 <path class="cls-1" d="m10.4 50.45-4.27-4.25 9.56-9.56a14.43 14.43 0 0 0 4.23 4.22z" fill="#00953b"/>
 <path class="cls-1" d="m6.13 10.45 4.23-4.22 9.56 9.56a14.42 14.42 0 0 0-4.23 4.22z" fill="#00953b"/>
 <path class="cls-1" d="m50.42 46.2-4.22 4.25-9.56-9.56a14.45 14.45 0 0 0 4.22-4.22l9.56 9.56z" fill="#00953b"/>
 <path class="cls-2" d="m42.87 26.45v4.88c0 0.74 0.38 1.06 1.13 1.06a2.84 2.84 0 0 0 0.76-0.11l0.14 1.78a4.7 4.7 0 0 1-1.64 0.26 2.59 2.59 0 0 1-2.83-2.87v-5h-1.07v-1.83h1.18l0.41-2.17 1.92-0.17v2.33h2.12v1.84z" fill="#6abf4b"/>
 <path class="cls-2" d="m55.36 24.62-3.46 9.54h-2.83l-3.47-9.54h2.68l1.85 6.1 0.34 1.23 0.33-1.23 1.86-6.1z" fill="#6abf4b"/>
 <path class="cls-3" d="m35.57 29.56c0-6.11-6.35-6.91-8.29-5.18a4.43 4.43 0 1 1-6.08 5.81c-1.54-2.74-0.39-7.74 5.26-8.84a8.48 8.48 0 0 1 8 2.34 10.36 10.36 0 0 0-19.65 4.61 10.13 10.13 0 0 0 10.12 10.37 7.92 7.92 0 0 0 5.41-2.22c1.3 1.83 4 2.13 5.23 2.13z" fill="#6abf4b" fill-rule="evenodd"/>
</svg>
