<svg viewBox="0 0 250 60" xmlns="http://www.w3.org/2000/svg">
 <defs>
  <clipPath id="d" transform="translate(0)">
   <path d="M247.9,30a27.94,27.94,0,0,1-28,27.91H30.07A27.94,27.94,0,0,1,2.1,30h0a27.94,27.94,0,0,1,28-27.91H219.93A27.94,27.94,0,0,1,247.9,30Z" fill="none"/>
  </clipPath>
  <linearGradient id="c" x2="250" y1="30" y2="30" gradientUnits="userSpaceOnUse">
   <stop stop-color="#ff4045" offset=".05"/>
   <stop stop-color="#ff4944" offset=".26"/>
   <stop stop-color="#ff6340" offset=".62"/>
   <stop stop-color="#ff853b" offset="1"/>
  </linearGradient>
 </defs>
 <g clip-path="url(#d)">
  <rect width="250" height="60" fill="url(#c)"/>
 </g>
 <path transform="translate(0)" d="M125.6,47.92h16.27a3.62,3.62,0,0,0,3.45-2.52l.93-2.92h12l1.73,5.44h10L157.73,12.08h-11l-12,35.09V12.08h-5.84a5.45,5.45,0,0,0-4.65,2.6l-7.47,12.2-7.47-12.2a5.45,5.45,0,0,0-4.65-2.6H98.84V47.92H108V29.4l8.79,14.37L125.6,29.4V47.92M149,33.83l3.21-10,3.21,10Zm56.19-21.75a4,4,0,0,1,3.47,2l3.83,6.54,5-8.53H228L217.74,29.56l10.58,18.36h-8a3.94,3.94,0,0,1-3.46-1.9l-4.39-7.48L207,47.92H196.57l10.72-18.36-10-17.09V36.13c0,7.47-5.63,12.48-14,12.48s-14-5-14-12.48v-24h9.17V35.44c0,2.84,1.58,4.22,4.83,4.22s4.83-1.38,4.83-4.22V12.08ZM20,47.92H30l1.73-5.44h12l1.73,5.44H61.14a3.25,3.25,0,0,0,3.25-3.24V30.47L76.83,47.92h6.89V12.08H74.54V29.53L63.63,14.22a5.09,5.09,0,0,0-4.15-2.14H55.22V47.17L43.55,12.93l-.29-.85H36.1a5.33,5.33,0,0,0-5,3.6ZM34.55,33.83l3.21-10,3.21,10ZM86.69,12.08h9.17V47.92H86.69Z" fill="#fff"/>
 <path transform="translate(0)" d="M241.19,8.79A30,30,0,0,0,219.93,0H30.07A30,30,0,0,0,0,30H0A30,30,0,0,0,30.07,60H219.93A30,30,0,0,0,250,30h0A29.87,29.87,0,0,0,241.19,8.79ZM247.9,30a27.94,27.94,0,0,1-28,27.91H30.07A27.94,27.94,0,0,1,2.1,30h0a27.94,27.94,0,0,1,28-27.91H219.93A27.94,27.94,0,0,1,247.9,30Z" fill="#fff"/>
</svg>
