<svg width="800" height="220.01" xmlns:cc="http://creativecommons.org/ns#" xmlns:dc="http://purl.org/dc/elements/1.1/" xmlns:rdf="http://www.w3.org/1999/02/22-rdf-syntax-ns#" space="preserve" version="1.1" viewBox="0 0 800 220.01" xmlns="http://www.w3.org/2000/svg">
 <metadata>
  <rdf:RDF>
   <cc:Work rdf:about="">
    <dc:format>image/svg+xml</dc:format>
    <dc:type rdf:resource="http://purl.org/dc/dcmitype/StillImage"/>
    <dc:title/>
   </cc:Work>
  </rdf:RDF>
 </metadata>
 <link href="" rel="stylesheet" type="text/css"/>
 <g transform="matrix(1.458 0 0 1.458 0 -.14556)">
  <linearGradient id="path2410_1_" x2="548.52" y1="786.69" y2="786.69" gradientTransform="matrix(1 0 0 -1 0 841.89)" gradientUnits="userSpaceOnUse">
   <stop stop-color="#F2B030" offset="0"/>
   <stop stop-color="#FAE39E" offset=".5225"/>
   <stop stop-color="#F2B030" offset="1"/>
  </linearGradient>
  <path d="m0 110.4c67.9-62 198-106.7 349-106.7 17.5 0 34.7 0.6 51.7 1.8-26.8-3.5-55-5.4-83.9-5.4-140.2-0.1-264.4 46.1-316.8 110.3z" fill="url(#path2410_1_)"/>
  <linearGradient id="path2400_1_" x2="548.52" y1="763.03" y2="763.03" gradientTransform="matrix(1 0 0 -1 0 841.89)" gradientUnits="userSpaceOnUse">
   <stop stop-color="#F2B030" offset="0"/>
   <stop stop-color="#FAE39E" offset=".5225"/>
   <stop stop-color="#F2B030" offset="1"/>
  </linearGradient>
  <polygon points="382 85.6 397.9 85.6 397.8 71.4 382 71.4 382.2 65.1 399.4 65.1 399.4 50.3 361.3 50.3 361.3 107.4 399.9 107.4 399.9 91.9 382.2 91.9" fill="url(#path2400_1_)"/>
  <polygon points="296.2 107.4 320.1 107.4 328.1 93.3 337.9 107.4 359.9 107.4 339.1 77.8 356.8 50.3 332.9 50.3 327 61.4 319.7 50.3 296.9 50.3 315.5 76.7" fill="url(#path2400_1_)"/>
  <polygon points="273.1 107.4 294.6 107.4 294.4 50.3 273.1 50.3" fill="url(#path2400_1_)"/>
  <path d="m245.5 50.3 0.6 29.4c-5.3-10.3-11.1-20.1-17.7-29.4h-21.1v57h20.6l-0.6-29.7 18.4 29.7h20.9l-0.2-57h-20.9z" fill="url(#path2400_1_)"/>
  <path d="m162.1 50.3-19.6 57h22.6l2.1-7.5h14.3l1.6 7.5h20.9l-15.6-57h-26.3zm11.1 24.1c0.7-2.9 1.3-5.3 1.6-7.5l3.9 20h-8.3c0.3-1.7 1.3-5.9 2.8-12.5z" fill="url(#path2400_1_)"/>
  <g>
   <g>
    <linearGradient id="SVGID_2_" x2="548.52" y1="747.36" y2="747.36" gradientTransform="matrix(1 0 0 -1 0 841.89)" gradientUnits="userSpaceOnUse">
     <stop stop-color="#F2B030" offset="0"/>
     <stop stop-color="#FAE39E" offset=".5225"/>
     <stop stop-color="#F2B030" offset="1"/>
    </linearGradient>
    <path d="m450.8 107.4c42.2-18.7 76.2-42.4 97.9-69.3-29.4 27.1-70.3 51-119.5 69.4h21.6zm-256.5 39.8c-17.7 0-35.2-0.3-52.4-1.5 27.2 3.6 55.7 5.3 85.1 5.3 61.4 0 119.8-8.8 170.8-24.1h-31.6c-52.1 13-110.3 20.3-171.9 20.3zm354.4-109.1z" fill="url(#SVGID_2_)"/>
   </g>
  </g>
 </g>
 <rect x="608.71" y="162.86" width="27.119" height="15.892" fill="#194b99" stroke-width="1.458"/>
 <rect x="558.56" y="162.86" width="27.119" height="15.892" fill="#ffec00" stroke-width="1.458"/>
 <rect x="589.17" y="181.81" width="15.892" height="25.952" fill="#68af21" stroke-width="1.458"/>
 <rect x="589.17" y="133.84" width="15.892" height="25.952" fill="#e32522" stroke-width="1.458"/>
</svg>
