<?xml version="1.0" encoding="UTF-8"?>
<!-- Generator: Adobe Illustrator 19.0.0, SVG Export Plug-In . SVG Version: 6.00 Build 0)  -->
<svg id="Layer_1" width="613.23" height="288.49" version="1.1" viewBox="0 0 613.23 288.49" xml:space="preserve" xmlns="http://www.w3.org/2000/svg" xmlns:cc="http://creativecommons.org/ns#" xmlns:dc="http://purl.org/dc/elements/1.1/" xmlns:rdf="http://www.w3.org/1999/02/22-rdf-syntax-ns#" xmlns:xlink="http://www.w3.org/1999/xlink"><metadata id="metadata17"><rdf:RDF><cc:Work rdf:about=""><dc:format>image/svg+xml</dc:format><dc:type rdf:resource="http://purl.org/dc/dcmitype/StillImage"/><dc:title/></cc:Work></rdf:RDF></metadata>
<g id="g10" transform="matrix(6.4078 0 0 6.4078 0 .1343)" fill="#fff">
	<g id="g8" fill="#fff">
		<path id="path4" class="st0" d="m86.7 16s-21.4 0.1-24.7 0.1c-3.2 0-4.6 2.9-4.6 2.9l-7.5 13c0-2.5-0.1-14.6-0.1-15.3 0.0022-0.40943-0.17942-0.6-0.6-0.6h-2c-0.71457 0-1.4413-0.0097-2.2 0.1-1.9 0.2-3.4 2.5-3.4 2.5l-12.2 21.2 4.7-23.1c0.08109-0.51536-0.15036-0.7-0.8-0.7h-3.1c-1.1 0-2.5 0-3.8 0.1-3.4 0.2-4.8 2.1-4.8 2.1l-21.6 26.7h4.7c1.1326-0.0168 2.3253-0.46038 3.1-1.1 0.6-0.5 1.9-1.8 2.7-2.7 0.30512-0.47998 0.92682-0.8 1.3-0.8h7.6c0.9 0 0.9-0.5 0.9-0.5s0.7-3.4 0.8-3.9c0.1-0.4-0.3-0.4-0.3-0.4h-5.1c-0.6 0-0.2-0.6-0.2-0.6l10.5-12.9c-0.6 3-4.5 21.6-4.6 22.2-0.1 0.7 0.4 0.6 0.4 0.6h8.9c0.4 0 0.8-0.1 1.1-0.1 2-0.4 2.9-1.9 2.9-1.9l8.2-14.2v15.5c0 0.6 0.4 0.6 0.4 0.6h4.4c2.3-0.1 4-3.1 4-3.1l12.078-21.2h6.6c0.6 0 0.22229 0.59994 0.22229 0.59994s-13.1 23-13.3 23.3 0.1 0.3 0.1 0.3h4.8c0.22281 0 0.39693-0.04021 0.6-0.1 1.7-0.5 2.6-2.1 2.6-2.1l12.5-21.6c0.18566-0.32082 0.3518-0.39994 0.6-0.39994h6.5c0.5 0 0.7-0.40006 0.7-0.40006l1.9-3.7c0.1592-0.41265-0.54461-0.4-0.9-0.4z"/>
		<path id="path6" class="st0" d="m95 0-21.5 8.4c-1.0615 0.34865-1.5 0.81493-1.5 1.8v2.9c-0.0048 0.34489 0.03374 0.6 0.3 0.6h18.9c0.43089 0 0.32756 0.34487 0.2 0.6l-3.8 7.7c-0.4 0.9-0.9 0.9-0.9 0.9h-4.8c-0.4411-0.0029-0.74661 0.0625-0.9 0.4l-11.8 21.2c-0.09645 0.25362 0.02796 0.5 0.3 0.5h23.9c1.3825 0 2.192-1.0671 2.2-2.3l0.1-42.2c0-0.48788-0.52329-0.568-0.7-0.5z"/>
	</g>
</g></svg>
