<svg version="1.1" viewBox="0 0 800 381.86" xml:space="preserve" xmlns="http://www.w3.org/2000/svg"><g transform="matrix(1.3333 0 0 -1.3333 0 381.6)" fill="#001ca1"><path d="m217.62 182.12h0.0364l-48.526 104.08h-169.13l115.27-247.2h35.607l66.743 143.13"/><path d="m191.72 65.031-12.142-26.032h76.059l-12.105 26.032"/><path d="m203.86 91.062h27.509l-13.752 29.48"/><path d="m571.29 182.12-38.04-81.592-38.036 81.592h-152.45c-39.46 0-71.409-32.103-71.409-71.587 0-39.388 31.815-71.296 71.162-71.539h32.932v26.032h-32.536c-25.137 0-45.531 20.398-45.531 45.507 0 25.158 20.394 45.555 45.531 45.555h71.563v-117.09h26.028v117.09h38.149l54.601-117.05h0.0364l66.706 143.08"/><g transform="matrix(.24181 0 0 -.24181 96.961 33.547)"><path d="m125.08 33.49 49.22 102.42h-18.15l-11.4-25.17h-39.49l-11.61 25.17h-17.97m36.12-38.98h26.56l-13.28-31.195z"/><path d="m182.26 33.49 74.74 69.92v-65.76h15.895v101.87l-74.85-70.87v67.23h-15.785z"/><path d="m798.83 45.82c18.88-14.33 46.99-14.45 66.26-0.85v16.98c-4.6243-3.0121-8.598-5.7034-13.22-7.8-5.37-2.49-11.54-4.199-17.08-4.05-12.04-0.1-24.81 4.68-31.66 15.03-7.49 10.99-8.07 25.75-3.06 37.85 4.72 9.69 13.99 17.69 24.9 19.11 7.63 1.72 15.61 0.24 22.92-2.18 6.12-2 11.09-6.13 16.52-9.41v18.68c-6.46 4.92-14.68 7.29-22.59 8.62-4.5156 0.54717-13.854 0.46547-16.82 0.12-13.67-1.75-27.12-8.23-35.51-19.42-8.9-11.13-12.08-26.14-9.98-40.08 1.76-12.87 8.96-24.8 19.32-32.6z"/><path d="m1766.1 37.16c4.4372-1.4482 9.1193-2.258 13.789-2.1922 5.8663 0 11.827 1.2864 16.601 3.6932 5.3594 2.7486 9.7767 7.2449 11.88 13.019l-13.33 6.56c-2.49-2.26-4.34-5.26-7.37-6.86-4.4249-2.6862-10.401-2.4091-14.55-0.48767-5.205 2.4561-8.3683 9.1588-5.6805 14.608 3.99 6.6 11.26 10.11 18.09 13.08 6.08 2.52 11.74 5.94 17.03 9.86 4.26 3.02 6.68 7.97 8.16 12.86 1.6625 8.36 0.8 17.77-4.77 24.65-4.95 7.17-13.54 10.97-21.97 11.99-4.233 0.58812-13.2 0.85-19.37-1.54-9.45-2.82-17.71-10.94-18.88-20.99l13.67-5.7c2.86 12.04 18.77 16.91 28.68 10.46 3.1409-2.0018 4.9279-5.4558 5.6312-9.0458 0.8027-4.3541-1.9028-9.1054-5.2212-11.624-6.26-5.4-14.5-7.37-21.4-11.69-5.8-3.57-12.41-6.89-15.62-13.24-2.0492-3.8731-3.4858-8.3217-3.4275-12.74 0.3172-5.0935 1.4059-10.054 4.569-14.468 3.2123-4.7413 8.0422-8.4157 13.488-10.202z"/><path transform="scale(.75)" d="m2557.3 46.736a72.199 68.674 0 0 0-72.199 68.674 72.199 68.674 0 0 0 72.199 68.676 72.199 68.674 0 0 0 72.199-68.676 72.199 68.674 0 0 0-72.199-68.674zm0 20.514a48.193 48.161 0 0 1 48.193 48.16 48.193 48.161 0 0 1-48.193 48.162 48.193 48.161 0 0 1-48.191-48.162 48.193 48.161 0 0 1 48.191-48.16z" style="paint-order:stroke fill markers"/><path d="m284.18 37.61h70.735v14.265h-26.925v84.085l-16.93-0.1v-83.985h-26.88z"/><path d="m366.17 37.65h56.82v14.31h-39.005v23.035h39.01v14.995h-39.01v30.995h39.005v14.895h-56.82z"/><path d="m1143 37.52h22.195c5.3842 0 10.137-0.08641 14.63 0.71 6.03 1.24 12.16 4.02 15.72 9.28 6.49 8.79 6.78 20.93 2.76 30.82-3.65 7.8-12.03 12.25-20.36 12.94 8.11 9.84 15.73 20.07 23.71 30.03 3.61 4.83 7.59 9.47 10.81 14.58h-19.12l-33.878-44.37v44.37h-16.468v-98.36m16.468 14.44v27.03c6.18 0.12 13.218 0.13 18.968-2.45 4.34-2.01 4.82-7.37 4.61-11.57 0.16-3.95-1.34-8.12-4.83-10.26-5.52-3.15-12.608-2.86-18.748-2.75z"/><path d="m1484 37.64h16.96v83.355h36.96v14.96h-53.92z"/><path d="m1611.8 37.685h17.08l28.16 64.865 28.16-64.865h16.98l-45.14 101.22z"/><path d="m1712 37.65h16.915v98.27h-16.915z"/><path d="m666.1 37.65h56.82v14.31h-39.005v23.035h39.01v14.995h-39.01v30.995h39.005v14.895h-56.82z"/><path d="m884.1 37.65h56.82v14.31h-39.005v23.035h39.01v14.995h-39.01v30.995h39.005v14.895h-56.82z"/><path d="m1221.1 37.65h56.82v14.31h-39.005v23.035h39.01v14.995h-39.01v30.995h39.005v14.895h-56.82z"/><path d="m1409.3 37.65h56.82v14.31h-39.005v23.035h39.01v14.995h-39.01v30.995h39.005v14.895h-56.82z"/><path d="m1550.1 37.65h56.82v14.31h-39.005v23.035h39.01v14.995h-39.01v30.995h39.005v14.895h-56.82z"/><path d="m1060.6 37.61h70.735v14.265h-26.925v84.085l-16.93-0.1v-83.985h-26.88z"/><path d="m1327.3 37.61h70.735v14.265h-26.925v84.085l-16.93-0.1v-83.985h-26.88z"/><path d="m441.15 33.49 74.74 69.92v-65.76h15.895v101.87l-74.85-70.87v67.23h-15.785z"/><path d="m553.68 33.49 74.74 69.92v-65.76h15.895v101.87l-74.85-70.87v67.23h-15.785z"/><path d="m958.67 33.49 74.74 69.92v-65.76h15.895v101.87l-74.85-70.87v67.23h-15.785z"/><path d="m1989.7 33.49 74.74 69.92v-65.76h15.895v101.87l-74.85-70.87v67.23h-15.785z"/><path d="m1828.5 37.65h16.915v98.27h-16.915z"/></g></g></svg>
