<svg width="557.62" height="206.93" version="1.1" viewBox="0 0 147.54 54.751" xml:space="preserve" xmlns="http://www.w3.org/2000/svg"><link rel="stylesheet" type="text/css"/><link rel="stylesheet" type="text/css"/><style lang="en" type="text/css"/><style lang="en" type="text/css"/><style lang="en" type="text/css"/><g transform="matrix(1.288 0 0 1.288 -281.22 -836.26)" fill="#e31d2b" font-family="'Futura LT W05'" font-size="7.7611px" font-weight="bold" letter-spacing="0px" stroke-width=".78547" word-spacing="0px"><path d="m225.33 665.18-0.49304 2.2266h-6.4993l5.8718-17.86h6.7907l6.0287 17.86h-6.4993l-0.56029-2.2266zm1.0982-4.24h2.4653q-0.82922-3.6715-0.94129-4.2637l-0.17932-1.1844h-0.22408z"/><path d="m238.3 667.41v-17.86h7.4182q3.1152 0 5.065 1.516 1.9722 1.516 1.9722 4.6901 0 1.966-0.762 2.9846-0.73956 1.0186-2.5101 1.6581v0.14222q0.67234 0.52114 1.0309 1.0659l3.6755 5.8034h-7.082l-2.6894-5.7323h-0.11204v5.7323zm6.0063-12.981v3.032h0.42582q0.94126 0 1.4791-0.28415 0.53789-0.30795 0.53789-1.2081 0-0.94747-0.51547-1.2317-0.49305-0.30792-1.4568-0.30792z"/><path d="m267.62 650 0.17932 6.8219q-1.7929-1.8239-3.6083-1.8239-1.255 0-2.3084 0.94748-1.0309 0.94747-1.0309 2.5345 0 1.4686 1.0085 2.4871 1.0309 0.99488 2.4204 0.99488 1.905 0 3.5186-1.6581l-0.17932 6.6798q-0.69477 0.33164-2.017 0.52114-1.3223 0.18953-2.3532 0.18953-3.6082 0-6.0959-2.6056-2.4877-2.6293-2.4877-6.4429 0-3.9084 2.5549-6.6324 2.5773-2.7477 6.2752-2.7477 2.1067 0 4.1237 0.73429z"/><path d="m275.17 665.18-0.49308 2.2266h-6.4993l5.8718-17.86h6.7907l6.0287 17.86h-6.4993l-0.5603-2.2266zm1.0982-4.24h2.4653q-0.82922-3.6715-0.94126-4.2637l-0.17933-1.1844h-0.22408z"/><path d="m288.19 667.41v-17.86h6.2528q2.1739 0 3.9444 0.52113 1.7929 0.52111 3.16 1.6107 1.3895 1.0659 2.1515 2.8662 0.762 1.8002 0.762 4.1926 0 3.9321-2.3756 6.3008-2.3532 2.3687-6.1183 2.3687zm6.1407-12.27v6.9167h0.381q1.6136 0 2.5997-0.82902 1.0085-0.82906 1.0085-2.5109 0-3.5768-3.6082-3.5768z"/><path d="m306.72 667.41v-17.86h6.1408v17.86z"/><path d="m321.18 665.18-0.49304 2.2266h-6.4993l5.8718-17.86h6.7907l6.0287 17.86h-6.4993l-0.56029-2.2266zm1.0982-4.24h2.4653q-0.82922-3.6715-0.94129-4.2637l-0.17933-1.1844h-0.22407z"/></g><g transform="matrix(2.1685 0 0 2.1685 193.94 1532.9)" fill="#807f7c" font-family="Arial" font-stretch="condensed" opacity=".71" stop-color="#000000" stroke-width="1.657" style="shape-inside:url(#rect413);white-space:pre" aria-label="WORLD"><path d="m-87.363-681.77-1.8691-8.5898h0.95508l1.0723 5.6309q0.16992 0.86719 0.29883 1.7578l0.31641-1.5879 1.3418-5.8008h1.125l1.0078 4.3477q0.36914 1.5879 0.55078 3.041 0.13477-0.83789 0.3457-1.8691l1.1074-5.5195h0.9375l-1.9336 8.5898h-0.89648l-1.4883-6.5449-0.22266-1.0078q-0.09961 0.5625-0.20508 1.0078l-1.4941 6.5449z"/><path d="m-79.582-685.95q0-2.1973 0.9668-3.375 0.9668-1.1836 2.4082-1.1836 0.93164 0 1.6992 0.52734 0.76758 0.52734 1.2129 1.5352 0.45117 1.002 0.45117 2.3906 0 1.9102-0.86719 3.1113-0.95508 1.3242-2.502 1.3242-1.5586 0-2.5078-1.3594-0.86133-1.2305-0.86133-2.9707zm0.96094 0.0176q0 1.5879 0.69727 2.4668 0.70312 0.87304 1.7051 0.87304 1.0254 0 1.7168-0.88476 0.69727-0.88477 0.69727-2.6016 0-1.1074-0.35742-1.9805-0.27539-0.66797-0.83203-1.0664-0.55078-0.4043-1.207-0.4043-1.0547 0-1.7402 0.87891-0.67969 0.87891-0.67969 2.7188z"/><path d="m-71.666-681.77v-8.5898h3.123q0.97852 0 1.4414 0.24024 0.46875 0.24023 0.76758 0.80273 0.29883 0.55664 0.29883 1.2949 0 0.97266-0.50977 1.5762-0.50391 0.60352-1.4707 0.76758 0.39258 0.23438 0.59766 0.47461 0.41602 0.49219 0.73242 1.0957l1.2305 2.3379h-1.1719l-0.9375-1.7871q-0.54492-1.0488-0.82617-1.4121-0.27539-0.36329-0.53906-0.48633-0.25781-0.12891-0.72656-0.12891h-1.0781v3.8144zm0.93164-4.7988h2.0039q0.65625 0 0.99609-0.15821 0.33984-0.1582 0.53906-0.49804 0.19922-0.33985 0.19922-0.79102 0-0.65039-0.38086-1.0195-0.38086-0.375-1.1309-0.375h-2.2266z"/><path d="m-64.617-681.77v-8.5898h0.93164v7.5762h3.4688v1.0137z"/><path d="m-59.109-681.77v-8.5898h2.4316q0.90234 0 1.3711 0.1582 0.61524 0.20508 1.0664 0.75 0.45117 0.54493 0.70312 1.377 0.25195 0.82617 0.25195 1.9629 0 1.459-0.42774 2.4785-0.42773 1.0137-1.1016 1.4414-0.66797 0.42187-1.752 0.42187zm0.93164-1.0137h1.5q0.9082 0 1.377-0.29297 0.46875-0.29882 0.7207-0.95507 0.33398-0.87305 0.33398-2.0918 0-1.3066-0.35742-2.0508-0.35156-0.75-0.9082-1.002-0.375-0.16992-1.1895-0.16992h-1.4766z"/></g></svg>
