<svg version="1.1" viewBox="0 0 349 99.735" xml:space="preserve" xmlns="http://www.w3.org/2000/svg"><g fill="#fff"><path d="m315.4 0c18.553 0 33.599 15.044 33.599 33.603 0 18.551-15.046 33.597-33.599 33.597s-33.599-15.046-33.599-33.597c0-18.559 15.046-33.603 33.599-33.603m13.487 47.202v-33.633l-33.817 12.141v8.359l11.201-4.05v25.279l22.616-8.096zm-13.487-42.271c-15.832 0-28.67 12.834-28.67 28.672 0 15.83 12.838 28.668 28.67 28.668s28.666-12.838 28.666-28.668c0-15.838-12.834-28.672-28.666-28.672m-267.4 60.771h-18.45l8.854-30.295 9.596 30.295zm122.39 31.664-0.998-9.352c-11.592 2.246-8.104-28.547-21.564-30.167 9.719-3.117 16.704-10.473 16.704-21.692 0-15.461-11.597-22.563-31.045-22.563-11.968 0-27.424 0.622-30.54 0.622h-9.475v7.854c3.115 1.87 6.853 4.363 10.346 5.361v57.714c-3.864 1.005-7.231 3.244-10.346 5.24v7.977h38.519v-7.977c-2.119-1.87-4.363-3.866-7.229-5.24v-20.815h3.741c12.966 0 8.477 35.407 27.552 35.407 4.611 0 10.095-0.626 14.335-2.369m-27.551-58.345c0 8.227-4.113 13.337-12.469 13.337h-5.608v-26.176c1.119-0.249 3.115-0.499 4.988-0.499 9.473 0 13.089 6.233 13.089 13.338m124.75 15.463c0-29.422-14.957-40.77-42.01-40.77-11.348 0-25.43 0.499-32.167 0.499h-10.097v7.854c3.117 1.87 6.856 4.363 10.35 5.484v57.468c-3.865 0.998-7.232 3.367-10.35 5.363v7.977h10.473c3.739 0 16.953 0.5 26.059 0.5 27.17 1e-3 47.742-15.582 47.742-44.375m-22.066 1.867c0 20.323-8.853 29.299-20.193 29.299-4.983 0-8.104-0.376-10.723-1.248v-58.346c2.246-0.25 4.734-0.373 7.479-0.373 18.7 0 23.437 14.213 23.437 30.668m-162.62 42.009v-7.977c-1.497-1.87-3.615-3.613-5.987-5.11l-24.558-71.309h-20.568l-24.558 71.309c-2.744 1.245-5.238 3.115-7.234 5.111v7.977h31.043v-7.977c-2.117-1.996-4.489-3.736-7.229-5.11l2.367-7.854h25.307l2.618 7.854c-2.745 1.244-5.361 3.114-7.607 5.11v7.977h36.406z" fill="#fff"/></g></svg>
