<svg width="600" height="154.52" version="1.1" viewBox="0 0 562.5 144.86" xmlns="http://www.w3.org/2000/svg">
 <path d="m342.73 33.131c-30.57 0-48.88 23.1-54.48 36.05-8.65 20 1.2 32.85 12.81 36.09 13.31 3.68 30.86-3.24 44.41-20.08l-14.56-13.41c-8.7 10.88-22.18 17.56-28.27 13.31-6.02-4.23-1.19-16.59 4.6-23.98 6.94-8.83 18.5-16.21 27.88-17.28 17.37-1.91 23.21 8.45 17.9 28.19l-9.08 33.9h19.82l9.09-33.9c7.47-27.93-10.43-38.89-30.12-38.89" fill="#ed174f"/>
 <path d="m450.8 34.016h-50.6l-19.27 71.895h19.83s16.2-60.54 16.63-62.03h22.57c7.49 0 11.19 3.39 9.7 8.85l-14.22 53.18h19.82l13.95-52.08c3.14-11.65-4.45-19.815-18.41-19.815" fill="#ed174f"/>
 <path d="m63.577 25.839c-33.653 0-53.811 25.432-59.959 39.682-9.5049 21.99 1.3016 36.12 14.112 39.68 14.626 4.06 33.927-3.56 48.844-22.08l-16.013-14.76c-9.557 11.96-24.422 19.3-31.118 14.63-6.628-4.63-1.285-18.24 5.086-26.36 7.604-9.76 20.294-17.862 30.656-18.992 19.112-2.141 25.5 9.262 19.712 31.012l-10.002 37.27h21.785l10.001-37.27c8.239-30.738-11.44-42.812-33.104-42.812" fill="#ed174f"/>
 <path d="m195.94 34.016-19.27 71.895h19.8l19.26-71.895h-0.73z" fill="#ed174f"/>
 <path d="m214.82-9.6408e-4c-6.2 0-12.59 5.035-14.27 11.252-1.66 6.199 2.04 11.252 8.24 11.252 6.22 0 12.59-5.053 14.25-11.252 1.68-6.217-2.01-11.252-8.22-11.252" fill="#ed174f"/>
 <path d="m146.83 34.016c-13.97 0-25.91 8.165-29.01 19.815l-13.97 52.08h19.81l14.28-53.18c1.44-5.46 7.01-8.85 14.46-8.85h25.81l10.41-9.865z" fill="#ed174f"/>
 <path d="m258.25 34.016c-13.97 0-25.91 8.165-29.03 19.815l-13.95 52.08h19.81l14.25-53.18c1.46-5.46 7.02-8.85 14.47-8.85h25.83l10.41-9.865z" fill="#ed174f"/>
 <path d="m508.2 92.191c-11.27-1.35-19.86-10.53-11.68-27.28 6.13-12.45 18.82-21.25 29.25-22.06 14.77-1.16 20.98 6.37 16.17 24.44-3.94 14.59-18.51 26.7-33.74 24.9m25.74-59.562c-13.56 0-39.51 6.611-52.78 34.462-11.17 23.44 0.67 37.67 16.9 39.87 12.81 1.73 29.12-3.86 36.65-12.76-0.44 1.64-3.11 11.59-3.11 11.59-4.85 18.05-16.56 28.84-31.38 28.84h-6.51l-2.75 10.23h10.97c18.18-0.5 42.05-11 49.55-39.07l9.15-34.13c7.51-28.05-8.84-39.032-26.69-39.032" fill="#ed174f"/>
</svg>
