<svg width="800" height="450" version="1.1" viewBox="0 0 750 421.87" xmlns="http://www.w3.org/2000/svg">
 <defs>
  <clipPath id="a">
   <path d="m0 93h379v-93h-379z"/>
  </clipPath>
 </defs>
 <g transform="translate(2.1031e-5 48.287)" fill="#ed174f" stroke-width="1.3333">
  <path d="m456.97-4.112c-40.76 0-65.173 30.8-72.64 48.067-11.533 26.667 1.6 43.8 17.08 48.12 17.747 4.9067 41.147-4.32 59.213-26.773l-19.413-17.88c-11.6 14.507-29.573 23.413-37.693 17.747-8.0266-5.64-1.5867-22.12 6.1333-31.973 9.2533-11.773 24.667-21.613 37.173-23.04 23.16-2.5467 30.947 11.267 23.867 37.587l-12.107 45.2h26.427l12.12-45.2c9.96-37.24-13.907-51.853-40.16-51.853"/>
  <path d="m601.07-2.932h-67.467l-25.693 95.86h26.44s21.6-80.72 22.173-82.706h30.093c9.9866 0 14.92 4.52 12.933 11.8l-18.96 70.906h26.427l18.6-69.44c4.1867-15.533-5.9333-26.42-24.547-26.42"/>
  <path d="m84.769-13.835c-44.871 0-71.748 33.909-79.945 52.909-12.673 29.32 1.7355 48.16 18.816 52.907 19.501 5.4133 45.236-4.7467 65.125-29.44l-21.351-19.68c-12.743 15.947-32.563 25.733-41.491 19.507-8.8373-6.1733-1.7133-24.32 6.7813-35.147 10.139-13.013 27.059-23.816 40.875-25.323 25.483-2.8547 34 12.349 26.283 41.349l-13.336 49.693h29.047l13.335-49.693c10.985-40.984-15.253-57.083-44.139-57.083"/>
  <path d="m261.25-2.932-25.693 95.86h26.4l25.68-95.86h-0.97333z"/>
  <path d="m286.43-48.288c-8.2666 0-16.787 6.7133-19.027 15.003-2.2133 8.2653 2.72 15.003 10.987 15.003 8.2933 0 16.787-6.7373 19-15.003 2.24-8.2893-2.68-15.003-10.96-15.003"/>
  <path d="m195.77-2.932c-18.627 0-34.547 10.887-38.68 26.42l-18.627 69.44h26.413l19.04-70.906c1.92-7.28 9.3466-11.8 19.28-11.8h34.413l13.88-13.153z"/>
  <path d="m344.33-2.932c-18.627 0-34.547 10.887-38.707 26.42l-18.6 69.44h26.413l19-70.906c1.9467-7.28 9.36-11.8 19.293-11.8h34.44l13.88-13.153z"/>
  <path d="m677.6 74.635c-15.027-1.8-26.48-14.04-15.573-36.373 8.1733-16.6 25.093-28.333 39-29.413 19.693-1.5467 27.973 8.4933 21.56 32.587-5.2533 19.453-24.68 35.6-44.987 33.2m34.32-79.416c-18.08 0-52.68 8.8146-70.373 45.949-14.893 31.253 0.89333 50.227 22.533 53.16 17.08 2.3067 38.827-5.1467 48.867-17.013-0.58667 2.1867-4.1467 15.453-4.1467 15.453-6.4666 24.067-22.08 38.453-41.84 38.453h-8.68l-3.6667 13.64h14.627c24.24-0.66667 56.067-14.667 66.066-52.093l12.2-45.507c10.013-37.4-11.787-52.043-35.587-52.043"/>
 </g>
 <g transform="matrix(.86876 0 0 .86876 389.77 200.63)">
  <g transform="matrix(2.2793,0,0,-2.2793,-448.83,254.67)" clip-path="url(#a)">
   <g transform="translate(364.66 -.043)">
    <path d="m0 0h-350.41c-7.795 0-14.173 6.378-14.173 14.174v64.56c0 7.795 6.378 14.173 14.173 14.173h350.41c7.796 0 14.174-6.378 14.174-14.173v-64.56c0-7.796-6.378-14.174-14.174-14.174" fill="#006fe8"/>
   </g>
   <g transform="translate(18.014,53.44)">
    <path d="M 0,0 29.271,-29.271 58.542,0 44.386,14.144 H 14.145 Z M 29.271,-34.015 -4.745,0 12.754,17.499 H 45.775 L 63.287,0 Z" fill="#fff"/>
   </g>
   <g transform="translate(52.638,51.177)">
    <path d="m0 0v-1.069h-3.765v-16.268h3.765v-1.071h-10.97v1.071h3.58v16.268h-3.58v1.069h3.58v2.277c0 7.949 3.3 11.295 7.763 11.295 1.812 0 3.904-0.836 3.904-3.021 0-0.929-0.93-1.534-1.72-1.534-1.255 0-1.906 0.883-1.906 2.139 0 0.511 0.372 0.557 0.372 1.161 0 0.233-0.79 0.279-1.116 0.279-2.231 0-3.672-2.696-3.672-7.344v-5.252z" fill="#fff"/>
   </g>
   <g transform="translate(60.555,50.712)">
    <path d="m0 0c0-0.928-0.753-1.681-1.681-1.681s-1.681 0.753-1.681 1.681c0 0.929 0.753 1.681 1.681 1.681s1.681-0.752 1.681-1.681" fill="#fff"/>
   </g>
   <g transform="translate(112.22,49.576)">
    <path d="m0 0v-1.868h-6.577v-28.42h6.577v-1.867h-19.163v1.867h6.252v28.42h-6.252v1.868h6.252v3.979c0 3.463 0.338 6.441 1.015 8.932 0.676 2.489 1.624 4.533 2.842 6.131 1.218 1.595 2.652 2.773 4.304 3.531 1.65 0.758 3.451 1.137 5.399 1.137 0.812 0 1.624-0.095 2.436-0.284 0.812-0.19 1.543-0.501 2.193-0.934s1.178-0.974 1.583-1.624c0.407-0.649 0.609-1.461 0.609-2.436 0-0.812-0.324-1.461-0.974-1.949-0.65-0.487-1.327-0.73-2.03-0.73-1.084 0-1.908 0.351-2.477 1.055-0.568 0.703-0.852 1.596-0.852 2.68 0 0.432 0.108 0.743 0.324 0.934 0.216 0.189 0.326 0.554 0.326 1.096 0 0.215-0.258 0.351-0.772 0.406-0.515 0.053-0.907 0.081-1.178 0.081-1.948 0-3.505-1.124-4.669-3.37-1.164-2.247-1.745-5.4-1.745-9.46v-9.175z" fill="#fff"/>
   </g>
   <g transform="translate(136.15,34.392)">
    <path d="m0 0c-1.299 0-2.775-0.096-4.425-0.284-1.653-0.191-3.208-0.583-4.67-1.178-1.461-0.596-2.693-1.449-3.694-2.558-1.003-1.11-1.503-2.585-1.503-4.425 0-2.003 0.569-3.573 1.706-4.709 1.137-1.137 2.651-1.705 4.547-1.705 1.299 0 2.422 0.174 3.37 0.527 0.946 0.352 1.908 0.961 2.882 1.827 0.325 0.325 0.704 0.798 1.137 1.421 0.433 0.622 0.65 1.799 0.65 3.532zm12.261-11.368c-0.109-1.896-0.812-3.479-2.111-4.75-1.299-1.272-2.897-1.908-4.791-1.908-1.516 0-2.708 0.446-3.573 1.339-0.866 0.893-1.434 2.097-1.705 3.614-1.408-1.734-3.073-2.992-4.994-3.777-1.922-0.783-3.911-1.176-5.968-1.176-1.299 0-2.517 0.135-3.654 0.406s-2.139 0.717-3.004 1.34c-0.867 0.621-1.557 1.433-2.071 2.435-0.515 1.001-0.771 2.26-0.771 3.776 0.108 3.789 1.975 6.699 5.603 8.729 3.626 2.03 8.552 3.045 14.778 3.045v7.714c0 0.975-0.176 1.772-0.528 2.395-0.353 0.623-0.799 1.124-1.34 1.503-0.542 0.378-1.164 0.649-1.867 0.812-0.704 0.163-1.409 0.244-2.112 0.244-0.433 0-1.069-0.041-1.908-0.123-0.84-0.081-1.678-0.23-2.517-0.446-0.84-0.217-1.571-0.515-2.192-0.893-0.623-0.379-0.934-0.867-0.934-1.462 0-0.162 0.122-0.325 0.365-0.487 0.244-0.162 0.528-0.365 0.853-0.609s0.609-0.582 0.852-1.015c0.244-0.434 0.366-0.975 0.366-1.624 0-1.029-0.298-1.855-0.893-2.477-0.597-0.623-1.409-0.933-2.437-0.933-1.083 0-1.921 0.365-2.517 1.095-0.596 0.732-0.893 1.665-0.893 2.802 0 0.703 0.23 1.515 0.69 2.436 0.46 0.92 1.191 1.773 2.193 2.558 1.001 0.784 2.327 1.448 3.979 1.99 1.651 0.54 3.694 0.812 6.131 0.812 2.76 0 4.884-0.258 6.374-0.772 1.488-0.515 2.584-1.177 3.288-1.989 0.703-0.812 1.109-1.679 1.218-2.599 0.108-0.921 0.162-1.786 0.162-2.598v-19.326c0-1.246 0.068-2.18 0.204-2.801 0.134-0.623 0.635-0.934 1.502-0.934 0.812 0 1.433 0.432 1.867 1.299 0.433 0.866 0.758 1.651 0.975 2.355z" fill="#fff"/>
   </g>
   <g transform="translate(172.97,49.576)">
    <path d="m0 0v-9.095h-1.787c-0.596 2.382-1.61 4.33-3.045 5.847-1.434 1.515-3.369 2.327-5.805 2.436-1.679 0.053-3.019-0.19-4.02-0.731-1.002-0.541-1.773-1.151-2.314-1.827-0.542-0.678-0.893-1.354-1.055-2.03-0.163-0.678-0.244-1.124-0.244-1.34 0-0.596 0.094-1.124 0.284-1.583 0.189-0.461 0.717-0.921 1.584-1.381 0.865-0.46 2.178-0.934 3.938-1.421 1.758-0.487 4.182-1.056 7.267-1.705 3.139-0.649 5.331-1.705 6.577-3.167 1.245-1.461 1.868-3.491 1.868-6.09 0-1.733-0.312-3.288-0.934-4.669-0.623-1.38-1.461-2.545-2.517-3.491-1.056-0.948-2.288-1.679-3.694-2.192-1.409-0.514-2.924-0.772-4.548-0.772-1.733 0-3.424 0.339-5.075 1.015-1.652 0.676-3.073 1.665-4.263 2.964l-1.786-2.923h-1.786v10.718h1.867c0.758-2.923 2.111-5.346 4.06-7.267 1.949-1.923 4.438-2.883 7.47-2.883 0.92 0 1.84 0.162 2.761 0.487 0.92 0.325 1.759 0.798 2.517 1.421 0.758 0.621 1.381 1.353 1.868 2.193 0.487 0.839 0.731 1.799 0.731 2.882 0 1.57-1.015 2.801-3.045 3.695-2.03 0.892-4.75 1.772-8.161 2.638-1.354 0.326-2.639 0.65-3.857 0.975s-2.287 0.798-3.207 1.421c-0.921 0.622-1.652 1.447-2.192 2.477-0.542 1.027-0.812 2.436-0.812 4.222 0 0.865 0.162 1.867 0.487 3.004s0.893 2.22 1.705 3.249c0.812 1.027 1.921 1.908 3.329 2.639 1.407 0.73 3.22 1.096 5.44 1.096 2.544 0 5.061-1.002 7.552-3.004l1.462 2.192z" fill="#fff"/>
   </g>
   <g transform="translate(183.23,71.5)">
    <path d="m0 0h-4.466v1.868h1.705c1.515 0 3.045 0.053 4.588 0.162 1.543 0.108 3.045 0.297 4.506 0.569v-32.319h0.163c1.137 2.599 2.57 4.682 4.304 6.253 1.731 1.57 4.087 2.355 7.063 2.355 0.703 0 1.611-0.069 2.721-0.203 1.108-0.136 2.179-0.487 3.207-1.056 1.028-0.568 1.908-1.394 2.64-2.476 0.73-1.084 1.095-2.546 1.095-4.385v-22.98h4.385v-1.867h-14.94v1.867h4.222v21.924c0 1.462-0.109 2.64-0.325 3.532-0.217 0.894-0.556 1.584-1.014 2.071-0.461 0.487-1.003 0.812-1.625 0.975-0.623 0.162-1.339 0.243-2.152 0.243-1.408 0-2.693-0.42-3.856-1.258-1.165-0.84-2.193-1.922-3.086-3.249s-1.583-2.801-2.071-4.425c-0.487-1.624-0.731-3.195-0.731-4.709v-15.104h4.386v-1.867h-15.185v1.867h4.466z" fill="#fff"/>
   </g>
   <g transform="translate(223.3,67.115)">
    <path d="m0 0c0 1.082 0.393 2.002 1.178 2.761 0.784 0.757 1.691 1.136 2.719 1.136 0.975 0 1.909-0.379 2.802-1.136 0.894-0.759 1.34-1.679 1.34-2.761 0-1.246-0.393-2.273-1.178-3.085s-1.773-1.219-2.964-1.219-2.138 0.419-2.841 1.259c-0.704 0.838-1.056 1.854-1.056 3.045m-4.628-49.694v1.867h5.44v28.42h-5.44v1.868h2.68c1.514 0 3.045 0.04 4.588 0.122 1.542 0.081 3.045 0.311 4.506 0.69v-31.1h4.791v-1.867z" fill="#fff"/>
   </g>
   <g transform="translate(253.05,48.764)">
    <path d="m0 0c-2.058 0-3.642-0.487-4.75-1.462-1.11-0.974-1.937-2.206-2.477-3.695-0.542-1.489-0.852-3.139-0.933-4.953-0.082-1.814-0.122-3.559-0.122-5.237 0-1.734 0.04-3.506 0.122-5.319 0.081-1.814 0.391-3.464 0.933-4.953 0.54-1.49 1.367-2.72 2.477-3.695 1.108-0.974 2.692-1.461 4.75-1.461 2.057 0 3.64 0.487 4.75 1.461 1.109 0.975 1.935 2.205 2.477 3.695 0.541 1.489 0.852 3.139 0.933 4.953 0.082 1.813 0.122 3.585 0.122 5.319 0 1.678-0.04 3.423-0.122 5.237-0.081 1.814-0.392 3.464-0.933 4.953-0.542 1.489-1.368 2.721-2.477 3.695-1.11 0.975-2.693 1.462-4.75 1.462m0 1.624c2.111 0 4.127-0.42 6.05-1.259 1.921-0.84 3.585-2.017 4.993-3.532 1.407-1.516 2.53-3.317 3.37-5.4 0.839-2.085 1.259-4.344 1.259-6.78s-0.42-4.697-1.259-6.78c-0.84-2.084-1.963-3.885-3.37-5.4-1.408-1.516-3.072-2.708-4.993-3.573-1.923-0.865-3.939-1.299-6.05-1.299s-4.129 0.434-6.05 1.299c-1.922 0.865-3.586 2.057-4.993 3.573-1.408 1.515-2.531 3.316-3.37 5.4-0.84 2.083-1.259 4.344-1.259 6.78s0.419 4.695 1.259 6.78c0.839 2.083 1.962 3.884 3.37 5.4 1.407 1.515 3.071 2.692 4.993 3.532 1.921 0.839 3.939 1.259 6.05 1.259" fill="#fff"/>
   </g>
   <g transform="translate(275.37,47.708)">
    <path d="m0 0h-4.466v1.868h3.98c0.757 0 1.514 0.053 2.273 0.162 0.757 0.053 1.515 0.135 2.274 0.243 0.757 0.108 1.514 0.244 2.273 0.407v-8.608h0.162c1.137 2.598 2.571 4.682 4.304 6.253 1.732 1.569 4.087 2.355 7.064 2.355 0.703 0 1.611-0.069 2.721-0.203 1.108-0.136 2.178-0.488 3.207-1.056 1.027-0.568 1.908-1.394 2.639-2.477s1.096-2.545 1.096-4.385v-22.979h4.385v-1.868h-14.94v1.868h4.221v21.923c0 1.462-0.108 2.64-0.324 3.533-0.217 0.893-0.556 1.584-1.015 2.071-0.46 0.487-1.002 0.812-1.625 0.974-0.623 0.163-1.339 0.244-2.151 0.244-1.408 0-2.693-0.42-3.857-1.259-1.164-0.84-2.193-1.922-3.085-3.248-0.894-1.327-1.584-2.802-2.072-4.426-0.486-1.624-0.73-3.194-0.73-4.709v-15.103h4.385v-1.868h-15.185v1.868h4.466z" fill="#fff"/>
   </g>
   <g transform="translate(307.51,49.576)">
    <path d="m0 0h4.79v9.987c1.083 0 2.124 0.013 3.127 0.041 1.001 0.027 2.016 0.122 3.045 0.285v-10.313h7.145v-1.868h-7.145v-24.847c0-0.38 0.013-0.785 0.04-1.219 0.027-0.433 0.135-0.825 0.325-1.176 0.19-0.353 0.5-0.65 0.934-0.894 0.432-0.243 1.027-0.365 1.786-0.365 1.083 0 1.949 0.31 2.599 0.933 0.649 0.623 1.299 1.313 1.949 2.072l1.299-0.894c-0.759-1.571-2.003-2.789-3.736-3.654-1.732-0.865-3.41-1.299-5.034-1.299-1.462 0-2.626 0.19-3.491 0.568-0.867 0.379-1.517 0.879-1.949 1.502-0.434 0.622-0.718 1.367-0.853 2.234-0.136 0.865-0.203 1.786-0.203 2.761v24.278h-4.628z" fill="#fff"/>
   </g>
   <g transform="translate(329.01,47.708)">
    <path d="m0 0v1.868h14.616v-1.868h-4.303l7.875-23.304h0.163l8.201 23.304h-4.953v1.868h11.044v-1.868h-3.899l-11.205-31.343h-2.761l-10.881 31.343z" fill="#fff"/>
   </g>
  </g>
 </g>
</svg>
