<svg version="1.1" viewBox="0 0 800 359.75" xml:space="preserve" xmlns="http://www.w3.org/2000/svg"><defs><radialGradient id="a" cx="0" cy="0" r="1" gradientTransform="matrix(-2.9437 -2.9437 -1.4718 1.4718 61.732 264.59)" gradientUnits="userSpaceOnUse"><stop stop-color="#fff" offset="0"/><stop stop-color="#fff" offset=".2"/><stop stop-color="#fff" offset=".41043"/><stop stop-color="#b3871e" offset="1"/></radialGradient></defs><g transform="matrix(1.3333 0 0 -1.3333 -1.9355e-5 359.75)"><g transform="matrix(15.119 0 0 15.119 -859.91 -3765.6)"><path d="m61.581 265.23c-1.25-0.825-2.451-2.125-3.282-3.547-1.964-3.362-1.891-7.634 0.198-11.889 0.383-0.783 0.506-0.964 0.262-0.393-0.869 2.043-1.28 3.975-1.28 6.026-2e-3 1.639 0.181 2.675 0.703 3.972 1.33 3.309 4.699 5.855 8.543 6.454 0.734 0.115 2.49 0.105 3.258-0.018 2.165-0.348 4.293-1.233 6.355-2.648 0.266-0.18 0.5-0.322 0.524-0.314 0.057 0.019-0.462 0.581-0.919 1.001-1.616 1.477-3.647 2.455-5.918 2.847-0.746 0.129-1.503 0.192-2.253 0.192-2.302 0-4.539-0.592-6.191-1.683m30.226-6.463c-0.369-0.064-0.689-0.127-0.711-0.14l-0.107 0.058c-0.066 0.081-0.072 0.081-2.429 0.071l-2.36-0.01-0.011-0.548c-0.017-0.804-0.107-0.721 0.791-0.721h0.763v-2.925c0-2.606 5e-3 -2.931 0.06-2.985 0.074-0.073 1.176-0.093 1.307-0.02 0.074 0.038 0.076 0.113 0.076 2.985v2.945h0.72c0.843 0 0.794-0.023 0.917 0.437 0.131 0.495 0.191 0.681 0.193 0.607 4e-3 -0.036 0.4-1.494 0.884-3.239s0.916-3.304 0.96-3.465c0.044-0.162 0.099-0.314 0.121-0.343 0.029-0.034 0.236-0.046 0.79-0.046 0.555 0 0.761 0.012 0.79 0.046 0.023 0.029 0.173 0.525 0.337 1.105 0.162 0.578 0.508 1.809 0.768 2.731 0.261 0.925 0.576 2.039 0.701 2.478 0.23 0.818 0.238 0.879 0.12 0.916-0.128 0.042-1.224 0.17-1.275 0.15l-0.089-0.142c-0.091-0.28-1.181-4.884-1.27-5.352-0.051-0.279-0.095-0.46-0.098-0.402-0.014 0.439-1.122 5.771-1.221 5.869l-0.1 0.03c-0.091 0-0.265-0.027-0.627-0.09" fill="url(#a)"/></g><g transform="matrix(15.119 0 0 15.119 -859.91 -3765.6)" fill="#fff"><g transform="translate(70.418 251.43)"><path d="m0 0c-0.494 0.104-0.95 0.284-1.119 0.443l-0.136 0.13 0.093 0.247c0.181 0.473 0.235 0.601 0.272 0.625 0.02 0.014 0.17-0.036 0.332-0.109 0.869-0.395 1.553-0.428 1.762-0.084 0.232 0.381 3e-3 0.649-0.802 0.933-0.76 0.268-1.086 0.493-1.307 0.903-0.197 0.361-0.199 1.002-8e-3 1.406 0.308 0.651 0.919 1.005 1.731 1.005 0.597 0 1.407-0.208 1.595-0.409l0.085-0.089-0.159-0.381c-0.214-0.512-0.2-0.499-0.444-0.409-0.944 0.351-1.703 0.226-1.703-0.283 0-0.244 0.158-0.372 0.721-0.575 0.909-0.328 1.285-0.588 1.511-1.047 0.123-0.249 0.128-0.279 0.128-0.711 0-0.444-3e-3 -0.457-0.148-0.75-0.391-0.79-1.241-1.089-2.404-0.845" fill="#fff"/></g><g transform="translate(75.155 251.42)"><path d="m0 0c-0.265 0.09-0.418 0.205-0.561 0.419-0.221 0.338-0.249 0.565-0.269 2.33l-0.018 1.589h-0.846l-0.026 0.137c-0.044 0.239-3e-3 0.798 0.061 0.84 0.032 0.021 0.23 0.038 0.439 0.038h0.381v0.676c0 0.497 0.013 0.694 0.051 0.746 0.077 0.104 1.262 0.263 1.316 0.178 0.021-0.033 0.037-0.405 0.037-0.829l1e-3 -0.771h0.621c0.342 0 0.648-0.01 0.684-0.024 0.082-0.031 0.075-0.154-0.03-0.6l-0.086-0.371-1.191-0.022 0.011-1.505 0.01-1.505 0.094-0.074c0.128-0.105 0.374-0.095 0.749 0.029 0.268 0.089 0.322 0.096 0.366 0.048 0.048-0.052 0.256-0.878 0.255-1.019 0-0.272-1.506-0.499-2.049-0.31" fill="#fff"/></g><g transform="translate(84.258 253.91)"><path d="m0 0c-0.027-0.826-0.126-1.144-0.43-1.368-0.123-0.091-0.533-0.129-0.692-0.06-0.378 0.158-0.543 0.651-0.544 1.636-2e-3 1.15 0.206 1.649 0.713 1.707 0.729 0.082 0.999-0.463 0.953-1.915m1.455 0.653c-0.149 1.486-0.998 2.365-2.284 2.365-1.285 0-2.133-0.871-2.281-2.348-0.164-1.611 0.496-2.861 1.677-3.171 0.473-0.125 1.162-0.062 1.619 0.148 0.901 0.416 1.407 1.614 1.269 3.006" fill="#fff"/></g><g transform="translate(65.815 254.43)"><path d="m0 0h-0.658l0.248 0.967c0.231 0.901 0.403 1.733 0.403 1.946 0 0.245 0.067 0.044 0.13-0.386 0.039-0.262 0.174-0.916 0.301-1.449 0.129-0.536 0.232-0.996 0.232-1.026 0-0.041-0.135-0.052-0.656-0.052m2.683-1.655c-0.195 0.643-0.449 1.474-0.563 1.85-0.207 0.683-1.075 3.538-1.171 3.856-0.089 0.29-0.066 0.282-0.838 0.282-0.509 0-0.705-0.014-0.732-0.05-0.021-0.026-0.164-0.47-0.321-0.985-0.256-0.844-0.571-1.877-1.525-4.988-0.328-1.07-0.352-1.182-0.242-1.209 0.171-0.045 1.284-0.026 1.351 0.022 0.046 0.035 0.13 0.299 0.263 0.83 0.108 0.428 0.212 0.845 0.233 0.925l0.039 0.147h1.778l0.247-0.921c0.135-0.505 0.274-0.946 0.305-0.979l1.491 0.01c0.03 0.03-0.06 0.376-0.315 1.21" fill="#fff"/></g><g transform="translate(77.954 251.55)"><path d="m0 0c-0.036 0.036-0.046 0.517-0.046 1.923 0 1.98-0.014 2.185-0.184 2.687-0.087 0.26-0.094 0.312-0.047 0.354l1.018 0.415c0.118 0 0.383-0.504 0.383-0.724 0-0.035 0.121 0.061 0.283 0.227 0.39 0.397 0.565 0.476 1.047 0.476 0.382 0 0.555-0.054 0.609-0.198l-0.394-1.099c-0.038-0.04-0.079-0.039-0.215 9e-3 -0.355 0.126-0.619 0.049-0.969-0.281l-0.127-0.12v-1.781c0-1.155-0.015-1.81-0.04-1.859-0.038-0.07-0.087-0.075-0.656-0.075-0.427 0-0.629 0.013-0.662 0.046" fill="#fff"/></g></g></g></svg>
