<svg width="800" height="544.07" enable-background="new 9.46 0 180.49 55" version="1.1" viewBox="9.46 0 800 544.07" xml:space="preserve" xmlns="http://www.w3.org/2000/svg">
<g transform="matrix(.90295 0 0 .90295 -73.611 -89.013)"><g class="st0" display="none">
	<path class="st1" d="m295.05 231.43-25.92-128.69h-83.31l-99.82 502.72h65.35l21.54-118.5h107.73l9.18 52.21 55.97-55.97zm-28.84 198.8h-83.26l12.73-70.53 6.37-35.25 24.72-136.96 16.92 95.32 26.17 147.42z" display="inline" fill="#00243a"/>
	<g class="st2" display="inline">
		<path class="st3" d="m471.86 97h-5.02c-15.31 0-29.28 1.44-41.79 4.44-36.06 8.65-59.9 30.34-68.3 68.3-2.22 10.03-3.38 21.18-3.38 33.55v53.86h63.92v-45.24c0-43.81 20.11-58.17 48.12-58.17h6.46c28.01 0 48.12 14.36 48.12 58.17v53.86c0 38.06-17.95 51.71-52.43 51.71h-50.27v56.02h57.45c28.01 0 45.25 13.65 45.25 44.52v78.28c0 20.31-4.36 34.22-11.79 43.38-8.59 10.59-21.3 14.79-36.33 14.79h-5.02c-28.01 0-48.12-14.36-48.12-58.17v-34.6l-60.52 60.52-3.59 3.6c0.25 2.07 0.62 4.03 0.96 6.03l1.72 8.55c10.01 42.2 39.67 66.77 89.41 70.32 4.19 0.3 8.48 0.49 12.95 0.49h19.39c33.33 0 58.77-8.36 76.39-24.28 19.97-18.04 29.9-45.77 29.9-82.01v-88.34c0-27.29-5.03-63.92-50.99-72.53 43.81-6.46 50.99-47.4 50.99-79v-61.76c-0.01-75.41-42.38-106.29-113.48-106.29" fill="#f64c1e"/>
		<path class="st4" d="m801.45 339.74-65.35-35.91c-28.73-16.52-39.5-27.29-39.5-57.45v-34.48c0-36.51 16.03-52.85 44.78-55.56 2.91-0.28 5.91-0.46 9.09-0.46 34.47 0 53.86 15.8 53.86 56.01v68.22h66.07v-79.72c-0.01-72.51-50.28-103.39-119.22-103.39h-1.44c-21.59 0-41.35 3.03-58.3 9.42-37.2 14.01-60.91 44.18-60.91 94v63.2c0 48.12 24.42 69.66 70.38 96.23l64.63 35.91c17.61 9.88 28.5 18.51 34.43 30.28l49.96-49.96c-12.01-13.69-28.52-25.03-48.48-36.34" fill="#00243a"/>
		<path class="st4" d="m696.6 494.86v-73.97h-66.07v85.46c0 30.12 6.89 52.8 19.9 69.23l51.23-51.23c-3.32-8.01-5.06-17.78-5.06-29.49" fill="#00243a"/>
			<rect class="st3" transform="matrix(.7071 -.7071 .7071 .7071 -131.62 706.2)" x="521.18" y="505.55" width="530.94" height="12.86" fill="#f64c1e"/>
	</g>
</g>
	<path class="st5" d="m273.71 104.29h-82.66l-99.05 498.82h64.85l21.37-117.58h106.89l9.11 51.8 55.54-55.54zm-85.51 324.95 43.47-240.87 42.76 240.86z" fill="#eae4d3"/>
		<path class="st3" d="m474.87 98.59h-4.98c-15.19 0-29.06 1.43-41.47 4.41-35.78 8.58-59.44 30.1-67.77 67.77-2.2 9.95-3.35 21.01-3.35 33.28v53.45h63.42v-44.9c0-43.47 19.95-57.72 47.74-57.72h6.41c27.79 0 47.75 14.25 47.75 57.72v53.45c0 37.77-17.81 51.31-52.02 51.31h-49.88v55.58h57c27.79 0 44.9 13.54 44.9 44.18v77.68c0 20.15-4.33 33.96-11.7 43.04-8.52 10.51-21.14 14.68-36.05 14.68h-4.98c-27.8 0-47.75-14.25-47.75-57.72v-34.33l-63.61 63.62c0.25 2.05 0.62 4 0.95 5.98l1.71 8.48c9.93 41.87 39.37 66.25 88.72 69.78 4.16 0.3 8.42 0.48 12.85 0.48h19.24c33.07 0 58.31-8.3 75.8-24.09 19.81-17.9 29.67-45.41 29.67-81.37v-87.65c0-27.08-4.99-63.42-50.59-71.97 43.47-6.41 50.59-47.03 50.59-78.39v-61.28c0-74.83-42.05-105.47-112.6-105.47" fill="#f64c1e"/>
		<path class="st5" d="m737.06 303.82c-28.5-16.39-39.19-27.08-39.19-57.01v-34.21c0-36.23 15.91-52.44 44.43-55.13 2.89-0.27 5.87-0.45 9.02-0.45 34.2 0 53.45 15.68 53.45 55.58v67.7h65.56v-79.1c0-71.97-49.88-102.62-118.29-102.62h-1.43c-21.42 0-41.03 3.01-57.85 9.34-36.91 13.9-60.44 43.84-60.44 93.27v62.71c0 47.75 24.23 69.12 69.84 95.49l64.13 35.63c17.47 9.8 28.28 18.36 34.17 30.05l49.58-49.58c-11.94-13.56-28.33-24.82-48.13-36.04z" fill="#eae4d3"/>
		<path class="st5" d="m697.87 419.97h-65.56v84.8c0 29.89 6.83 52.39 19.75 68.69l50.84-50.84c-3.3-7.94-5.03-17.63-5.03-29.25z" fill="#eae4d3"/>
			<path class="st3" transform="matrix(.7071 -.7071 .7071 .7071 -130.3 706.13)" d="m523.81 503.97h526.83v12.76h-526.83z" fill="#f64c1e"/>
</g></svg>
