<svg width="1869.1" height="377.87" version="1.0" viewBox="0 0 1869.1 377.87" xmlns="http://www.w3.org/2000/svg">
 <defs>
  <linearGradient id="b" x1="1445" x2="1445" y1="562" y2="366" gradientTransform="translate(357.08 -304.89)" gradientUnits="userSpaceOnUse">
   <stop offset="0"/>
   <stop stop-color="#dbdbdb" offset="1"/>
  </linearGradient>
  <linearGradient id="a" x1="1385" x2="1385" y1="318" y2="225" gradientTransform="translate(317.08 -4.8862)" gradientUnits="userSpaceOnUse">
   <stop stop-color="#c9c9c9" offset="0"/>
   <stop stop-color="#fff" offset="1"/>
  </linearGradient>
  <filter id="c" x="-.016607" y="-.027349" width="1.0332" height="1.0547" color-interpolation-filters="sRGB">
   <feGaussianBlur stdDeviation="1.4425"/>
  </filter>
 </defs>
 <path d="m1443.1 60.114h426v284h-568z" fill="url(#b)"/>
 <path d="m1465.1 95.114v218h43v-92h80v92h44v-218h-44v82h-80v-82zm193 0v218h82c46.536 0 84-37.464 84-84v-50c0-46.536-37.464-84-84-84zm44 41h26c29.916 0 54 24.084 54 54v28c0 29.916-24.084 54-54 54h-26z" fill="url(#a)" stroke="#000" stroke-width="4"/>
 <path d="m1467.1 97.114v218h43v-92h80v92h44v-218h-44v82h-80v-82zm193 0v218h82c46.536 0 84-37.464 84-84v-50c0-46.536-37.464-84-84-84zm44 41h26c29.916 0 54 24.084 54 54v28c0 29.916-24.084 54-54 54h-26z" fill="none" filter="url(#c)" stroke="#000" stroke-width="5"/>
 <g transform="matrix(.99996 0 0 .99996 -7.4365 -4.8881)">
  <path transform="translate(7.4446,4.8735)" d="m187.78 0c-23.105-0.015333-44.215 13.081-54.469 33.781l-127 256.44c-14.883 30.044-2.575 66.461 27.469 81.344 30.053 14.883 66.492 2.575 81.375-27.469 0 0 36.931-81.817 72.438-153.5 35.315 71.645 72.031 153.38 72.031 153.38 14.825 30.082 51.24 42.45 81.312 27.625 30.082-14.825 42.45-51.24 27.625-81.312l-126.38-256.38c-10.216-20.719-31.301-33.887-54.406-33.906zm761.88 0c-22.587-0.24457-44.397 12.18-55.094 33.781 0 0-36.931 81.838-72.438 153.53-35.305-71.645-72.062-153.41-72.062-153.41-10.752-21.821-32.838-34.253-55.656-33.812h-330.46c-33.273 0-60.25 26.977-60.25 60.25s26.977 60.25 60.25 60.25h92.438v196.09c0 33.532 27.187 60.719 60.719 60.719s60.719-27.187 60.719-60.719v-196.09h79.594l110.12 223.41c10.206 20.729 31.301 33.856 54.406 33.875 23.105 0.0153 44.215-13.081 54.469-33.781l126.97-256.41c14.883-30.053 2.5845-66.482-27.469-81.375-8.4498-4.1858-17.412-6.2168-26.25-6.3125z" fill="#fff"/>
  <path transform="translate(7.4446,4.8735)" d="m1134.5 0.65625c-22.509-0.29815-44.216 12.046-54.938 33.625l-127.25 256.09c-14.917 30.023-2.7733 66.208 27.25 81.125 30.023 14.917 66.208 2.742 81.125-27.281l127.25-256.06c14.917-30.023 2.742-66.208-27.281-81.125-8.444-4.1955-17.348-6.2583-26.156-6.375zm180 0c-22.509-0.29815-44.216 12.046-54.938 33.625l-127.25 256.09c-14.917 30.023-2.7733 66.208 27.25 81.125s66.208 2.742 81.125-27.281l127.25-256.06c14.917-30.023 2.742-66.208-27.281-81.125-8.444-4.1955-17.348-6.2583-26.156-6.375z" fill="#dc181d"/>
 </g>
</svg>
