<svg width="783.52pt" height="361.22pt" style="isolation:isolate" version="1.1" viewBox="0 0 783.52 361.22" xmlns="http://www.w3.org/2000/svg">
 <link rel="stylesheet" type="text/css"/>
 <link rel="stylesheet" type="text/css"/>
 <style lang="en" type="text/css"/>
 <defs>
  <clipPath id="_clipPath_mZH56CBBa4Cr9ooeQOJ1Nz9OH55YBipE-6">
   <rect width="333" height="200"/>
  </clipPath>
 </defs>
 <g transform="matrix(5.1236 0 0 5.1236 -1.85e-8 431.84)" fill="#fff">
  <g transform="matrix(1.2477 0 0 -1.2477 150.64 -66.68)">
   <path d="m0 0c0-5.083-2.635-8.117-7.048-8.117h-4.418v16.179h4.418c2.229 0 3.975-0.697 5.19-2.072 1.233-1.395 1.858-3.411 1.858-5.99m-0.528 7.242c-1.549 1.731-3.804 2.646-6.52 2.646h-6.244v-19.831h6.244c2.674 0 4.918 0.936 6.49 2.705 1.56 1.757 2.384 4.26 2.384 7.238 0 3.017-0.814 5.521-2.354 7.242" fill="#fff"/>
  </g>
  <g transform="matrix(1.2477 0 0 -1.2477 129.53 -68.377)">
   <path transform="matrix(.60109 0 0 -.60109 -103.81 -54.801)" d="m156.14-100.83-3.0352 8.0586v20.418h3.0352v-15.771h16.568v15.771h3.0371v-32.99h-3.0371v14.18h-16.568z" fill="#fff" stroke-width="1.6636"/>
  </g>
 </g>
 <g transform="matrix(1.8061 0 0 1.8061 -.7134 4.6899e-6)" clip-path="url(#_clipPath_mZH56CBBa4Cr9ooeQOJ1Nz9OH55YBipE-6)" fill="#fff" style="isolation:isolate">
  <g fill="#fff">
   <path d="m242.18 158.29c-11.5 0-20.86 9.35-20.86 20.86 0 11.5 9.36 20.85 20.86 20.85s20.85-9.35 20.85-20.85-9.35-20.86-20.85-20.86z" fill="#fff"/>
   <path d="m150.4 0v13.38c-14.71-8.51-31.78-13.38-50-13.38-55.23 0-100 44.77-100 100s44.77 100 100 100c18.22 0 35.29-4.87 50-13.38v13.38h50v-200zm-50 150c-27.61 0-50-22.39-50-50s22.39-50 50-50 50 22.39 50 50c0 27.62-22.38 50-50 50z"/>
   <path d="m311.92 13.92-16.43 48.93-16.31-48.93h-13.69v19.05l19.7 52.18h20.59l26.83-71.23z" fill="#fff"/>
   <path d="m258.94 32.97v-19.05h-16.75v-13.92h-20.87v57.41c0 16.71 6.09 24.95 19.77 27.13 2.35 0.37 4.92 0.56 7.72 0.59 0.79-0.01 1.77-0.02 2.78-0.05 2-0.1 4.12-0.32 6.09-0.64v-18.96l-1.97 0.12c-0.51 0.03-2.32 0.05-2.79 0.05-6.69 0-10.73-3.05-10.73-10.53v-22.16h16.75z"/>
  </g>
 </g>
</svg>
