<svg version="1.1" viewBox="0 0 800 211" xml:space="preserve" xmlns="http://www.w3.org/2000/svg"><g transform="matrix(1.3333 0 0 -1.3333 -631.59 1212.8)"><g transform="matrix(6.5586 0 0 6.5586 664.4 909.59)"><path d="m0 0h-5.802v-15.252c0-0.913 0.076-1.762 0.227-2.542 0.273 0.06 0.556 0.095 0.846 0.095 2.163 0 3.922-1.76 3.922-3.923 0-0.58-0.13-1.13-0.359-1.627 0.787-0.254 1.672-0.388 2.653-0.388 0.407 0 1.928 0.023 2.358 0.068l0.463 0.049v5.35l-0.547-0.034c-0.142-9e-3 -0.645-0.013-0.777-0.013-1.86 0-2.984 0.85-2.984 2.928v6.163h4.658v5.296h-4.658zm19.391-3.83-4.57-13.607-4.535 13.607h-3.807v-5.296l5.478-14.511h5.726l7.461 19.807z" fill="#b3db18"/></g><g transform="matrix(6.5586 0 0 6.5586 -2633.1 -4176.4)"><g transform="translate(498.04 756.35)"><path d="m0 0c-1.382 0-2.506-1.123-2.506-2.505 0-1.381 1.124-2.504 2.506-2.504 1.381 0 2.504 1.123 2.504 2.504 0 1.382-1.123 2.505-2.504 2.505m-14.116-0.301c-2.818 0-5.097 2.433-5.097 5.598 0 3.244 2.279 5.715 5.097 5.715s5.097-2.548 5.097-5.715c0-3.088-2.279-5.598-5.097-5.598m5.329 13.476c-1.545 1.621-3.668 2.548-6.102 2.548-5.173 0-9.459-4.479-9.459-10.387 0-5.869 4.286-10.348 9.459-10.348 2.434 0 4.557 0.927 6.101 2.549v-2.058h4.865v19.807h-4.864z" fill="#0f4278"/></g><g transform="translate(563.35 761.77)"><path d="m0 0c0-5.083-2.635-8.117-7.048-8.117h-4.418v16.179h4.418c2.229 0 3.975-0.697 5.19-2.072 1.233-1.395 1.858-3.411 1.858-5.99m-0.528 7.242c-1.549 1.731-3.804 2.646-6.52 2.646h-6.244v-19.831h6.244c2.674 0 4.918 0.936 6.49 2.705 1.56 1.757 2.384 4.26 2.384 7.238 0 3.017-0.814 5.521-2.354 7.242" fill="#0f4278"/></g><g transform="translate(544.72 763.13)"><path d="m0 0h-9.959v8.523h-1.825v-19.831h1.825v9.481h9.959v-9.481h1.826v19.831h-1.826z" fill="#0f4278"/></g></g></g></svg>
