<svg version="1.1" viewBox="0 0 800 150.2" xml:space="preserve" xmlns="http://www.w3.org/2000/svg" xmlns:xlink="http://www.w3.org/1999/xlink"><defs><linearGradient id="a"><stop stop-color="#353636" offset="0"/><stop stop-color="#141514" offset=".4701"/><stop stop-color="#101111" offset="1"/></linearGradient><clipPath id="f"><path d="m496.66 104.97h157.76v-5.858h-157.76z"/></clipPath><clipPath id="e"><path d="m496.66 99.115h157.76v5.858h-157.76z"/></clipPath><linearGradient id="d" x1="1154.3" x2="1154.3" y1="171.31" y2="219.21" gradientUnits="userSpaceOnUse" xlink:href="#a"/><linearGradient id="c" x1="-1.393" x2="62.365" y1="-2.929" y2="-2.929" gradientUnits="userSpaceOnUse"><stop stop-color="#030405" stop-opacity="0" offset="0"/><stop stop-color="#030405" offset="1"/></linearGradient><linearGradient id="b" x1="1154.3" x2="1152.3" y1="171.31" y2="219.21" gradientUnits="userSpaceOnUse" xlink:href="#a"/></defs><g transform="matrix(1.3333 0 0 -1.3333 -1250.8 294.12)"><path d="m1495.4 165.37c-8.4862 0-14.416 6.0323-14.416 14.826 0 8.1815 5.52 15.031 14.416 15.031s14.416-6.8494 14.416-15.031c0-8.7936-5.9299-14.826-14.416-14.826m-125.24 0c-8.4889 0-14.419 6.0323-14.419 14.826 0 8.1815 5.52 15.031 14.419 15.031 8.8934 0 14.416-6.8494 14.416-15.031 0-8.7936-5.9298-14.826-14.416-14.826m-166.78 0c-8.4863 0-14.416 6.0323-14.416 14.826 0 8.1815 5.52 15.031 14.416 15.031s14.416-6.8494 14.416-15.031c0-8.7936-5.9298-14.826-14.416-14.826m-185.96 4.8215h-6.6148c-1.2728 0-2.0953 1.0193-1.8229 2.2624l4.1177 18.954c0.2724 1.2458 0.5906 2.3002 1.1083 2.3002 0.5205 0 0.8414-1.049 1.1002-2.3002l3.8859-18.965c0.2966-1.2377-0.5016-2.2517-1.7744-2.2517m478 50.394h0.1429-0.3074 0.1429c-13.499-5e-3 -25.594-5.2476-33.424-14.327v10.797c0 1.2728-1.0436 2.3164-2.3164 2.3164h-54.261c-1.2728 0-2.3164-1.0436-2.3164-2.3164v-10.193c-7.8417 8.71-19.704 13.718-32.904 13.723h0.1429-0.3074 0.1402c-17.954-5e-3 -33.432-9.2763-39.675-24.526l-3.457 21.025c-0.2076 1.2593-1.4184 2.2867-2.6939 2.2867h-23.892c-1.2755 0-2.6049-1.0004-2.9582-2.2274l-9.5163-36.024c-0.3425-1.2296-0.6904-2.2382-0.8899-2.2382-0.1942 0-0.569 1.0085-0.8926 2.2409l-9.4543 36.008c-0.3263 1.2324-1.6341 2.2409-2.9096 2.2409h-24.197c-1.2755 0-2.4836-1.0301-2.6886-2.2867l-3.5298-21.818c-6.0215 15.724-21.735 25.313-40.002 25.318h0.1403-0.3074 0.1429c-13.656-5e-3 -25.877-5.3689-33.697-14.645v11.115c0 1.2728-1.0409 2.3164-2.3164 2.3164h-54.261c-0.049 0-0.097-0.0108-0.1429-0.0135h-20.556c-1.2755 0-2.3191-1.0436-2.3191-2.3164v-40.63c0-6.0323-0.2049-11.35-7.6664-11.35-7.4669 0-7.6692 5.3177-7.6692 11.35v40.63c0 1.2728-1.0436 2.3164-2.3191 2.3164h-23.382c-1.2728 0-2.3164-1.0436-2.3164-2.3164v-43.289c0-1.1838 0.048-2.3272 0.1267-3.4436l-16.727 46.88c-0.4288 1.1973-1.8202 2.1816-3.0957 2.1816h-26.348c-1.2728 0-2.6589-0.98426-3.0769-2.1869l-25.221-72.593c-0.42067-1.2027 0.23461-2.3164 1.5101-2.3164h25.518c1.2755 0 2.0548 1.0166 2.346 2.2571l1.1919 5.0993c0.2912 1.2431 1.5721 2.2544 2.8449 2.2544h16.53c1.2755 0 2.5861-1.0058 2.915-2.2382l1.3645-5.1316c0.3263-1.2323 1.0571-2.2409 2.3326-2.2409h25.596c1.2755 0 1.9199 1.1164 1.4939 2.3164l-2.729 7.6476c6.1591-7.6098 16.325-11.204 29.115-11.204 21.573 0 35.681 10.226 35.681 32.718v21.168l5.8112 8e-3c1.2728 0.0593 2.3164-0.93572 2.3164-2.2112v-48.126c0-1.2728 1.0409-2.3164 2.3164-2.3164h23.38c1.2754 0 2.319 1.0436 2.319 2.3164v48.126c0 1.2755 1.0409 2.2705 2.3137 2.2112l6.6957-8e-3c-1.6153-4.3388-2.5025-9.1307-2.5025-14.316 0-24.744 19.122-39.57 42.639-39.57 13.575 0 25.674 4.9483 33.486 13.879l-1.6746-10.352c-0.2049-1.2566 0.6715-2.2867 1.947-2.2867h22.46c1.2755 0 2.4215 1.0382 2.5483 2.3056l3.0417 30.62c0.3075 3.066 0.5636 6.9923 0.5636 6.9923 0.084 1.2728 0.5663 2.311 1.0706 2.311l11.08-40.012c0.3722-1.2189 1.7232-2.2166 2.9987-2.2166h11.725c1.2755 0 2.6373 0.99236 3.0256 2.2058l11.668 40.023c0.4881 0 0.9519-1.0382 1.0652-2.3083l3.6296-37.612c0.1159-1.2674 1.2512-2.3083 2.524-2.3083h22.463c1.2728 0 2.1492 1.0301 1.9416 2.2867l-1.5721 9.5676c7.8255-8.4404 19.615-13.095 32.791-13.095 23.517 0 42.636 14.826 42.636 39.57 0 5.1856-0.8845 9.9801-2.4971 14.316l5.9002 8e-3c1.2728 0.0593 2.3164-0.93572 2.3164-2.2112v-48.126c0-1.2728 1.0409-2.3164 2.3164-2.3164h23.38c1.2754 0 2.319 1.0436 2.319 2.3164v48.126c0 1.2755 1.0409 2.2705 2.3137 2.2112l6.4206-8e-3c-1.6125-4.3388-2.4997-9.1307-2.4997-14.316 0-24.744 19.122-39.57 42.639-39.57s42.639 14.826 42.639 39.57c0 24.229-19.219 39.974-42.628 39.98" fill="#030405"/><path d="m1374 111.58h7.3725l-0.9033-3.6404h-12.237l3.9343 15.832h4.8647z" fill="#e41b2a"/><path d="m1394.2 114.75h2.9851l-0.2022 4.6597h-0.2481zm3.0768-3.3923h-4.8404l-1.831-3.4166h-4.8646l8.3675 14.411c0.7254 1.1973 0.9735 1.4912 2.0602 1.4912h3.8912c1.0841 0 1.1973-0.3155 1.2863-1.4912l1.2243-14.411h-5.1371z" fill="#e41b2a"/><path d="m1431.9 108.85c-0.747-0.61213-1.6503-0.90606-3.3033-0.90606h-5.2908c-1.653 0-2.4431 0.29393-2.9204 0.90606-0.6984 0.90606-1.0382 2.6454 0.046 7.0112 1.0868 4.3658 2.3083 6.1078 3.4625 7.0139 0.7685 0.60944 1.6934 0.90337 3.3465 0.90337h5.2934c1.6503 0 2.4189-0.29393 2.8719-0.90337 0.5878-0.7928 0.6337-2.1735-0.1133-5.3608h-4.5464c0.4314 1.9658 0.3155 2.2598 0.2022 2.3973-0.089 0.13483-0.3155 0.17798-0.995 0.17798h-2.0117c-0.6769 0-0.9061-0.0431-1.0867-0.17798-0.1807-0.16179-0.5636-0.58786-1.4239-4.0503-0.8844-3.484-0.7011-3.8885-0.5878-4.0476 0.1132-0.13753 0.3155-0.18067 0.995-0.18067h2.0144c0.6768 0 0.9249 0.0431 1.084 0.18067 0.1807 0.13483 0.4288 0.42876 0.9951 2.4647h4.5465c-0.836-3.2332-1.5614-4.6382-2.578-5.4283" fill="#e41b2a"/><path d="m1454.9 107.94h-4.8647l1.5182 6.1294h-5.2934l-1.5155-6.1294h-4.862l3.9344 15.834h4.8619l-1.4912-5.9487h5.2934l1.4913 5.9487h4.8646z" fill="#e41b2a"/><path d="m1469.6 114.75h2.9851l-0.2022 4.6597h-0.2481zm3.0768-3.3923h-4.8404l-1.831-3.4166h-4.8646l8.3675 14.411c0.7254 1.1973 0.9735 1.4912 2.0602 1.4912h3.8912c1.0841 0 1.1973-0.3155 1.2863-1.4912l1.2243-14.411h-5.1371z" fill="#e41b2a"/><path d="m1484.2 107.94 3.937 15.834h4.862l-3.937-15.834z" fill="#e41b2a"/><path d="m1511.7 107.94h-3.3708c-1.0408 0-1.4696 0.29393-1.8094 1.1542l-2.9177 7.893h-0.1133l-2.2408-9.0471h-4.5897l3.9371 15.834h4.1366c1.0409 0 1.4939-0.29662 1.7878-1.1541l2.3973-6.9438h0.1133l2.0143 8.0979h4.5896z" fill="#e41b2a"/><path d="m1532.2 107.94h-12.938l3.937 15.834h12.938l-0.906-3.6647h-8.0737l-0.6121-2.4431h5.8813l-0.8602-3.3923h-5.8813l-0.6553-2.6696h8.0764z" fill="#e41b2a"/><g transform="matrix(2.6966 0 0 2.6966 -401.23 -159.33)" clip-path="url(#f)"><g clip-path="url(#e)"><g transform="translate(498.06 104.97)"><path d="m0 0-1.393-5.858h156.32l1.448 5.858z" fill="url(#c)"/></g></g></g><path d="m1495.6 220.59h-0.3074c-13.437-0.0404-25.48-5.2665-33.282-14.305v10.778c0 1.2728-1.0436 2.3164-2.3164 2.3164h-54.261c-1.2755 0-2.3164-1.0436-2.3164-2.3164v-10.19c-7.812 8.6777-19.623 13.677-32.761 13.718h-0.3101c-17.887-0.0539-33.303-9.3006-39.535-24.499l-3.4543 21.001c-0.2076 1.2566-1.4184 2.2867-2.6939 2.2867h-23.892c-1.2755 0-2.605-1.0031-2.9582-2.2301l-9.5163-36.021c-0.3425-1.2324-0.6904-2.2409-0.8899-2.2409-0.1942 0-0.569 1.0112-0.8926 2.2436l-9.457 36.005c-0.3236 1.2324-1.6314 2.2436-2.9069 2.2436h-24.197c-1.2754 0-2.4835-1.0301-2.6885-2.2894l-3.5298-21.816c-6.0081 15.683-21.654 25.262-39.861 25.316h-0.3075c-13.594-0.0404-25.761-5.3905-33.554-14.626v11.099c0 1.2728-1.0409 2.3164-2.3164 2.3164h-54.261c-0.089 0-0.1753-5e-3 -0.2616-0.0162h-20.438c-1.2782 0-2.3191-1.0436-2.3191-2.3164v-40.627c0-2.613-0.038-5.0885-0.6876-7.0597l28.581 0.86022c0.081 1.1434 0.1213 2.3245 0.1213 3.5406v21.166l5.8112 8e-3c0.035 3e-3 0.073 3e-3 0.1079 3e-3 1.2242 0 2.2058-0.97348 2.2058-2.2112v-22.258l28.018 0.84134v21.416c0 1.2377 0.9816 2.2112 2.2058 2.2112 0.035 0 0.073 0 0.1079-3e-3l6.6876-8e-3c-1.6126-4.3361-2.4944-9.1307-2.4944-14.316 0-3.1955 0.3182-6.2238 0.925-9.0768l29.169 0.8764c-1.2053 2.2031-1.8714 4.8431-1.8714 7.7932 0 8.1788 5.52 15.028 14.416 15.028s14.416-6.8494 14.416-15.028c0-2.6157-0.5231-4.9887-1.4831-7.0274l29.234 0.8764 19.585 0.59056 0.057 0.56359c0.3074 3.0687 0.5636 6.995 0.5636 6.995 0.084 1.2701 0.5663 2.3083 1.0706 2.3083l2.6966-9.7348 35.272 1.0598 2.5294 8.675c0.4881 0 0.9519-1.0355 1.0652-2.3056l0.604-6.2426 24.668 0.73887 22.301 0.67145c-0.1403 0.90606-0.2158 1.8499-0.2158 2.8314 0 8.1788 5.52 15.028 14.419 15.028 8.8934 0 14.416-6.8494 14.416-15.028 0-0.67685-0.035-1.3348-0.1024-1.9739l28.298 0.84943c0.016 0.50696 0.024 1.0166 0.024 1.5317 0 5.1856-0.8791 9.9801-2.4917 14.316l5.8948 8e-3c0.038 3e-3 0.073 3e-3 0.1079 3e-3 1.2242 0 2.2058-0.97348 2.2058-2.2112v-13.475l28.018 0.84134v12.634c0 1.2377 0.9816 2.2112 2.2058 2.2112 0.035 0 0.073 0 0.1079-3e-3l6.4125-8e-3c-1.6125-4.3361-2.4916-9.1307-2.4916-14.316v-0.32898l28.242 0.84673c0.4018 7.7662 5.8355 14.103 14.394 14.103 8.2381 0 13.583-5.8732 14.327-13.238l28.255 0.84674c-1.138 22.913-19.809 37.682-42.428 37.75" fill="url(#b)"/><path d="m1017.4 170.19h-6.6121c-1.111 0-1.8768 0.77393-1.8768 1.7959 0 0.15101 0.016 0.30741 0.051 0.46921l4.1204 18.952c0.2697 1.2458 0.5879 2.3002 1.1083 2.3002 0.5178 0 0.8387-1.049 1.0976-2.3002l3.8858-18.965c0.043-0.17259 0.062-0.34247 0.062-0.50697 0-0.99504-0.7416-1.7447-1.8364-1.7447m57.324 46.851c0 1.2728-1.0436 2.3164-2.3164 2.3164h-23.382c-1.2755 0-2.3191-1.0436-2.3191-2.3164v-43.286c0-1.1703 0.04-2.3083 0.1133-3.4139l-16.714 46.848c-0.4288 1.2-1.8202 2.1842-3.0957 2.1842h-26.346c-1.2755 0-2.6589-0.98696-3.0769-2.1896l-17.765-51.122 67.798 2.0386 27.94 0.83865c-0.7928 2.0305-0.836 4.6759-0.836 7.475z" fill="url(#d)"/></g></svg>
