<svg version="1.1" viewBox="0 0 800 150.2" xml:space="preserve" xmlns="http://www.w3.org/2000/svg"><defs><linearGradient id="a" x1="-1.393" x2="62.365" y1="-2.929" y2="-2.929" gradientTransform="matrix(2.6966 0 0 2.6966 941.83 123.74)" gradientUnits="userSpaceOnUse"><stop stop-color="#fff" stop-opacity="0" offset="0"/><stop stop-color="#fff" offset="1"/></linearGradient></defs><g transform="matrix(1.3333 0 0 -1.3333 -1250.8 294.12)"><g transform="matrix(2.6966 0 0 2.6966 1495.4 165.37)"><path d="m0 0c-3.147 0-5.346 2.237-5.346 5.498 0 3.034 2.047 5.574 5.346 5.574s5.346-2.54 5.346-5.574c0-3.261-2.199-5.498-5.346-5.498m-46.445 0c-3.148 0-5.347 2.237-5.347 5.498 0 3.034 2.047 5.574 5.347 5.574 3.298 0 5.346-2.54 5.346-5.574 0-3.261-2.199-5.498-5.346-5.498m-61.849 0c-3.147 0-5.346 2.237-5.346 5.498 0 3.034 2.047 5.574 5.346 5.574s5.346-2.54 5.346-5.574c0-3.261-2.199-5.498-5.346-5.498m-68.962 1.788h-2.453c-0.472 0-0.777 0.378-0.676 0.839l1.527 7.029c0.101 0.462 0.219 0.853 0.411 0.853 0.193 0 0.312-0.389 0.408-0.853l1.441-7.033c0.11-0.459-0.186-0.835-0.658-0.835m177.26 18.688h0.053-0.114 0.053c-5.006-2e-3 -9.491-1.946-12.395-5.313v4.004c0 0.472-0.387 0.859-0.859 0.859h-20.122c-0.472 0-0.859-0.387-0.859-0.859v-3.78c-2.908 3.23-7.307 5.087-12.202 5.089h0.053-0.114 0.052c-6.658-2e-3 -12.398-3.44-14.713-9.095l-1.282 7.797c-0.077 0.467-0.526 0.848-0.999 0.848h-8.86c-0.473 0-0.966-0.371-1.097-0.826l-3.529-13.359c-0.127-0.456-0.256-0.83-0.33-0.83-0.072 0-0.211 0.374-0.331 0.831l-3.506 13.353c-0.121 0.457-0.606 0.831-1.079 0.831h-8.973c-0.473 0-0.921-0.382-0.997-0.848l-1.309-8.091c-2.233 5.831-8.06 9.387-14.834 9.389h0.052-0.114 0.053c-5.064-2e-3 -9.596-1.991-12.496-5.431v4.122c0 0.472-0.386 0.859-0.859 0.859h-20.122c-0.018 0-0.036-4e-3 -0.053-5e-3h-7.623c-0.473 0-0.86-0.387-0.86-0.859v-15.067c0-2.237-0.076-4.209-2.843-4.209-2.769 0-2.844 1.972-2.844 4.209v15.067c0 0.472-0.387 0.859-0.86 0.859h-8.671c-0.472 0-0.859-0.387-0.859-0.859v-16.053c0-0.439 0.018-0.863 0.047-1.277l-6.203 17.385c-0.159 0.444-0.675 0.809-1.148 0.809h-9.771c-0.472 0-0.986-0.365-1.141-0.811l-9.353-26.92c-0.156-0.446 0.087-0.859 0.56-0.859h9.463c0.473 0 0.762 0.377 0.87 0.837l0.442 1.891c0.108 0.461 0.583 0.836 1.055 0.836h6.13c0.473 0 0.959-0.373 1.081-0.83l0.506-1.903c0.121-0.457 0.392-0.831 0.865-0.831h9.492c0.473 0 0.712 0.414 0.554 0.859l-1.012 2.836c2.284-2.822 6.054-4.155 10.797-4.155 8 0 13.232 3.792 13.232 12.133v7.85l2.155 3e-3c0.472 0.022 0.859-0.347 0.859-0.82v-17.847c0-0.472 0.386-0.859 0.859-0.859h8.67c0.473 0 0.86 0.387 0.86 0.859v17.847c0 0.473 0.386 0.842 0.858 0.82l2.483-3e-3c-0.599-1.609-0.928-3.386-0.928-5.309 0-9.176 7.091-14.674 15.812-14.674 5.034 0 9.521 1.835 12.418 5.147l-0.621-3.839c-0.076-0.466 0.249-0.848 0.722-0.848h8.329c0.473 0 0.898 0.385 0.945 0.855l1.128 11.355c0.114 1.137 0.209 2.593 0.209 2.593 0.031 0.472 0.21 0.857 0.397 0.857l4.109-14.838c0.138-0.452 0.639-0.822 1.112-0.822h4.348c0.473 0 0.978 0.368 1.122 0.818l4.327 14.842c0.181 0 0.353-0.385 0.395-0.856l1.346-13.948c0.043-0.47 0.464-0.856 0.936-0.856h8.33c0.472 0 0.797 0.382 0.72 0.848l-0.583 3.548c2.902-3.13 7.274-4.856 12.16-4.856 8.721 0 15.811 5.498 15.811 14.674 0 1.923-0.328 3.701-0.926 5.309l2.188 3e-3c0.472 0.022 0.859-0.347 0.859-0.82v-17.847c0-0.472 0.386-0.859 0.859-0.859h8.67c0.473 0 0.86 0.387 0.86 0.859v17.847c0 0.473 0.386 0.842 0.858 0.82l2.381-3e-3c-0.598-1.609-0.927-3.386-0.927-5.309 0-9.176 7.091-14.674 15.812-14.674s15.812 5.498 15.812 14.674c0 8.985-7.127 14.824-15.808 14.826" fill="#fff"/></g><g transform="matrix(2.6966 0 0 2.6966 1374 111.58)"><path d="m0 0h2.734l-0.335-1.35h-4.538l1.459 5.871h1.804z" fill="#e41b2a"/></g><g transform="matrix(2.6966 0 0 2.6966 1394.2 114.75)"><path d="m0 0h1.107l-0.075 1.728h-0.092zm1.141-1.258h-1.795l-0.679-1.267h-1.804l3.103 5.344c0.269 0.444 0.361 0.553 0.764 0.553h1.443c0.402 0 0.444-0.117 0.477-0.553l0.454-5.344h-1.905z" fill="#e41b2a"/></g><g transform="matrix(2.6966 0 0 2.6966 1431.9 108.85)"><path d="m0 0c-0.277-0.227-0.612-0.336-1.225-0.336h-1.962c-0.613 0-0.906 0.109-1.083 0.336-0.259 0.336-0.385 0.981 0.017 2.6 0.403 1.619 0.856 2.265 1.284 2.601 0.285 0.226 0.628 0.335 1.241 0.335h1.963c0.612 0 0.897-0.109 1.065-0.335 0.218-0.294 0.235-0.806-0.042-1.988h-1.686c0.16 0.729 0.117 0.838 0.075 0.889-0.033 0.05-0.117 0.066-0.369 0.066h-0.746c-0.251 0-0.336-0.016-0.403-0.066-0.067-0.06-0.209-0.218-0.528-1.502-0.328-1.292-0.26-1.442-0.218-1.501 0.042-0.051 0.117-0.067 0.369-0.067h0.747c0.251 0 0.343 0.016 0.402 0.067 0.067 0.05 0.159 0.159 0.369 0.914h1.686c-0.31-1.199-0.579-1.72-0.956-2.013" fill="#e41b2a"/></g><g transform="matrix(2.6966 0 0 2.6966 1454.9 107.94)"><path d="m0 0h-1.804l0.563 2.273h-1.963l-0.562-2.273h-1.803l1.459 5.872h1.803l-0.553-2.206h1.963l0.553 2.206h1.804z" fill="#e41b2a"/></g><g transform="matrix(2.6966 0 0 2.6966 1469.6 114.75)"><path d="m0 0h1.107l-0.075 1.728h-0.092zm1.141-1.258h-1.795l-0.679-1.267h-1.804l3.103 5.344c0.269 0.444 0.361 0.553 0.764 0.553h1.443c0.402 0 0.444-0.117 0.477-0.553l0.454-5.344h-1.905z" fill="#e41b2a"/></g><g transform="matrix(2.6966 0 0 2.6966 1484.2 107.94)"><path d="m0 0 1.46 5.872h1.803l-1.46-5.872z" fill="#e41b2a"/></g><g transform="matrix(2.6966 0 0 2.6966 1511.7 107.94)"><path d="m0 0h-1.25c-0.386 0-0.545 0.109-0.671 0.428l-1.082 2.927h-0.042l-0.831-3.355h-1.702l1.46 5.872h1.534c0.386 0 0.554-0.11 0.663-0.428l0.889-2.575h0.042l0.747 3.003h1.702z" fill="#e41b2a"/></g><g transform="matrix(2.6966 0 0 2.6966 1532.2 107.94)"><path d="m0 0h-4.798l1.46 5.872h4.798l-0.336-1.359h-2.994l-0.227-0.906h2.181l-0.319-1.258h-2.181l-0.243-0.99h2.995z" fill="#e41b2a"/></g><path d="m941.83 123.74-3.7564-15.797h421.52l3.9047 15.797z" fill="url(#a)"/><g transform="matrix(2.6966 0 0 2.6966 1495.6 220.59)"><path d="m0 0h-0.114c-4.983-0.015-9.449-1.953-12.342-5.305v3.997c0 0.472-0.387 0.859-0.859 0.859h-20.122c-0.473 0-0.859-0.387-0.859-0.859v-3.779c-2.897 3.218-7.277 5.072-12.149 5.087h-0.115c-6.633-0.02-12.35-3.449-14.661-9.085l-1.281 7.788c-0.077 0.466-0.526 0.848-0.999 0.848h-8.86c-0.473 0-0.966-0.372-1.097-0.827l-3.529-13.358c-0.127-0.457-0.256-0.831-0.33-0.831-0.072 0-0.211 0.375-0.331 0.832l-3.507 13.352c-0.12 0.457-0.605 0.832-1.078 0.832h-8.973c-0.473 0-0.921-0.382-0.997-0.849l-1.309-8.09c-2.228 5.816-8.03 9.368-14.782 9.388h-0.114c-5.041-0.015-9.553-1.999-12.443-5.424v4.116c0 0.472-0.386 0.859-0.859 0.859h-20.122c-0.033 0-0.065-2e-3 -0.097-6e-3h-7.579c-0.474 0-0.86-0.387-0.86-0.859v-15.066c0-0.969-0.014-1.887-0.255-2.618l10.599 0.319c0.03 0.424 0.045 0.862 0.045 1.313v7.849l2.155 3e-3c0.013 1e-3 0.027 1e-3 0.04 1e-3 0.454 0 0.818-0.361 0.818-0.82v-8.254l10.39 0.312v7.942c0 0.459 0.364 0.82 0.818 0.82 0.013 0 0.027 0 0.04-1e-3l2.48-3e-3c-0.598-1.608-0.925-3.386-0.925-5.309 0-1.185 0.118-2.308 0.343-3.366l10.817 0.325c-0.447 0.817-0.694 1.796-0.694 2.89 0 3.033 2.047 5.573 5.346 5.573s5.346-2.54 5.346-5.573c0-0.97-0.194-1.85-0.55-2.606l10.841 0.325 7.263 0.219 0.021 0.209c0.114 1.138 0.209 2.594 0.209 2.594 0.031 0.471 0.21 0.856 0.397 0.856l1-3.61 13.08 0.393 0.938 3.217c0.181 0 0.353-0.384 0.395-0.855l0.224-2.315 9.148 0.274 8.27 0.249c-0.052 0.336-0.08 0.686-0.08 1.05 0 3.033 2.047 5.573 5.347 5.573 3.298 0 5.346-2.54 5.346-5.573 0-0.251-0.013-0.495-0.038-0.732l10.494 0.315c6e-3 0.188 9e-3 0.377 9e-3 0.568 0 1.923-0.326 3.701-0.924 5.309l2.186 3e-3c0.014 1e-3 0.027 1e-3 0.04 1e-3 0.454 0 0.818-0.361 0.818-0.82v-4.997l10.39 0.312v4.685c0 0.459 0.364 0.82 0.818 0.82 0.013 0 0.027 0 0.04-1e-3l2.378-3e-3c-0.598-1.608-0.924-3.386-0.924-5.309 0-0.041 0-0.082 1e-3 -0.122l10.473 0.314c0.149 2.88 2.164 5.23 5.338 5.23 3.055 0 5.037-2.178 5.313-4.909l10.478 0.314c-0.422 8.497-7.346 13.974-15.734 13.999" fill="#fbfbfb"/></g><g transform="matrix(2.6966 0 0 2.6966 1017.4 170.19)"><path d="m0 0h-2.452c-0.412 0-0.696 0.287-0.696 0.666 0 0.056 6e-3 0.114 0.019 0.174l1.528 7.028c0.1 0.462 0.218 0.853 0.411 0.853 0.192 0 0.311-0.389 0.407-0.853l1.441-7.033c0.016-0.064 0.023-0.127 0.023-0.188 1e-3 -0.369-0.275-0.647-0.681-0.647m21.258 17.374c0 0.472-0.387 0.859-0.859 0.859h-8.671c-0.473 0-0.86-0.387-0.86-0.859v-16.052c0-0.434 0.015-0.856 0.042-1.266l-6.198 17.373c-0.159 0.445-0.675 0.81-1.148 0.81h-9.77c-0.473 0-0.986-0.366-1.141-0.812l-6.588-18.958 25.142 0.756 10.361 0.311c-0.294 0.753-0.31 1.734-0.31 2.772z" fill="#fbfbfb"/></g></g></svg>
