<svg id="b" width="21.493" height="4.2237" version="1.1" viewBox="0 0 20.149 3.9597" xmlns="http://www.w3.org/2000/svg">
 <defs id="c">
  <clipPath id="a">
   <path id="d" d="m201.34 82.595h12.899v3.168h-12.899z"/>
  </clipPath>
 </defs>
 <g id="e" transform="translate(-316.33 -546.55)">
  <g id="f" transform="matrix(1.25 0 0 -1.25 64.654 653.75)">
   <g id="g" clip-path="url(#a)">
    <g id="h" transform="translate(201.35 85.763)">
     <path id="i" d="m0 0h12.891v-3.161c1e-3 -4e-3 -1e-3 -6e-3 -4e-3 -7e-3h-12.895c1e-3 3e-3 4e-3 4e-3 4e-3 7e-3v3.15c0 5e-3 0 0.01 4e-3 0.011" fill="#e50011"/>
    </g>
    <g id="j" transform="translate(204.45 84.567)">
     <path id="k" d="m0 0c0.027-0.054 0.107-0.089 0.177-0.094 0.081-6e-3 0.167 0.017 0.237 0.037v0.162c-0.055-5e-3 -0.09 0.021-0.098 0.072-0.015 0.098 0.011 0.284 0 0.38h0.075c-2e-3 0.061 5e-3 0.133-3e-3 0.188-9e-3 -1e-3 -0.047-3e-3 -0.068 4e-3 -1e-3 0.058 3e-3 0.131-4e-3 0.173h-0.353v-0.177h-0.072v-0.188h0.083c0.02-0.182-0.038-0.431 0.026-0.557m-1.381 0.075c1e-3 -1e-3 3e-3 -5e-3 4e-3 -7e-3 0.056-0.101 0.207-0.155 0.346-0.162 0.155-9e-3 0.304 0.046 0.395 0.113v-0.072h0.346c-2e-3 0.265 5e-3 0.54-3e-3 0.798h-0.343c-0.019-0.198 0.053-0.49-0.079-0.576-0.09-0.059-0.243-0.042-0.305 0.038-0.04 0.053-0.045 0.15-0.045 0.252v0.286h-0.342c-4e-3 -1e-3 -4e-3 -6e-3 -4e-3 -0.011 0.019-0.22-0.038-0.499 0.03-0.659m2.04-0.94c0.053-0.07 0.18-0.051 0.274-0.027v0.117c-0.114-0.02-0.044 0.216-0.064 0.308h0.053c-1e-3 0.044 2e-3 0.102-4e-3 0.128-0.015 3e-3 -0.04-5e-3 -0.049 4e-3v0.12h-0.244v-0.124h-0.053c2e-3 -0.02 0-0.097 0-0.128 0.019-2e-3 0.048 6e-3 0.06-3e-3 0.013-0.13-0.027-0.325 0.027-0.395m1.576-0.019v0.188c0 0.061-0.013 0.141 8e-3 0.184 0.035 0.076 0.202 0.063 0.199-0.049h0.222c0.024 0.166-0.08 0.275-0.23 0.264-0.085-7e-3 -0.143-0.056-0.199-0.087v0.061h-0.229c2e-3 -0.186-5e-3 -0.382 3e-3 -0.561 0.049 1e-3 0.154-1e-3 0.226 0m-2.735 0.365c-0.015 0.148-0.162 0.222-0.313 0.214-0.101-5e-3 -0.172-0.041-0.252-0.075-0.051 0.032-0.121 0.065-0.203 0.072-0.112 8e-3 -0.222-0.024-0.297-0.061-4e-3 0.014 9e-3 0.044-8e-3 0.046h-0.21v-0.558c0.063-9e-3 0.16 0 0.218-3e-3 0.016 0.115-0.025 0.238 8e-3 0.327 0.038 0.109 0.235 0.115 0.282 8e-3 0.038-0.087-8e-3 -0.23 0.015-0.335 0.06 1e-3 0.19-4e-3 0.233 3e-3v0.162c0 0.053-0.01 0.114 4e-3 0.158 0.036 0.123 0.248 0.11 0.286 8e-3 0.03-0.081-7e-3 -0.216 7e-3 -0.328 0.056-8e-3 0.166-1e-3 0.23-3e-3 -8e-3 0.134 0.01 0.26 0 0.365m3.506-0.738h0.042v0.102c-0.012 2e-3 -0.033-5e-3 -0.038 4e-3v0.093c-0.047 7e-3 -0.163 6e-3 -0.199 0v-0.097h-0.041c1e-3 -0.026-3e-3 -0.09 3e-3 -0.102 0.014-2e-3 0.038 5e-3 0.045-3e-3 0.018-0.111-0.032-0.246 0.019-0.317 0.043-0.06 0.145-0.041 0.222-0.022 4e-3 0.021 5e-3 0.055 4e-3 0.09-0.093-5e-3 -0.044 0.164-0.057 0.252m-2.761-0.041c-0.065 5e-3 -0.228-0.024-0.226 0.049 1e-3 0.039 0.082 0.054 0.139 0.037 0.02-5e-3 0.027-0.022 0.045-0.026 0.068-0.016 0.157 0.012 0.218 0-0.01 0.07-0.07 0.095-0.131 0.113-0.137 0.04-0.392 0.029-0.452-0.057-0.029-0.041-0.026-0.114-7e-3 -0.146 0.039-0.067 0.131-0.071 0.237-0.083 0.04-5e-3 0.156-9e-3 0.158-0.049 2e-3 -0.05-0.105-0.05-0.143-0.037-0.023 7e-3 -0.035 0.028-0.056 0.033-0.034 9e-3 -0.078 0-0.113 0-0.039 0-0.075 3e-3 -0.11-3e-3 0.041-0.106 0.152-0.144 0.309-0.155 0.153-0.01 0.343 0.029 0.343 0.173-1e-3 0.102-0.11 0.143-0.211 0.151m2.25 0.188c-0.069-6e-3 -0.118-0.047-0.162-0.072v0.049h-0.192c-8e-3 -0.133-1e-3 -0.314-4e-3 -0.466h0.196v0.154c0 0.052-0.011 0.112 4e-3 0.151 0.026 0.07 0.171 0.057 0.169-0.038 0.062 2e-3 0.133-5e-3 0.188 4e-3 0.012 0.143-0.074 0.229-0.199 0.218m-3.029-0.102c-0.021 9e-3 -0.051 3e-3 -0.06-0.011-3e-3 0.01-0.011 0.014-0.027 0.011 1e-3 -0.037-1e-3 -0.085 0-0.12 1e-3 -0.01-6e-3 -0.031 8e-3 -0.034h0.011c0.016 0.047-0.024 0.149 0.049 0.139 0.017-0.032 3e-3 -0.094 8e-3 -0.139h0.026c-5e-3 0.052 0.012 0.125-0.015 0.154m-0.147 0c-0.018-0.033 0.027-0.148-0.045-0.139-0.016 0.033-3e-3 0.095-8e-3 0.139h-0.022c2e-3 -0.048-4e-3 -0.105 4e-3 -0.146 0.018-0.019 0.055-0.011 0.071 4e-3 -0.012-0.012 6e-3 -0.013 0.019-0.012 6e-3 0.02 4e-3 0.058 4e-3 0.09-1e-3 0.03 8e-3 0.07-0.023 0.064m1.866 1.118c0.171 2e-3 0.352 0.036 0.456 0.113 0.12 0.089 0.162 0.243 0.146 0.402-0.014 0.145-0.107 0.244-0.191 0.294-0.126 0.074-0.309 0.097-0.512 0.083-0.064-5e-3 -0.122-0.012-0.181-0.027-0.115-0.028-0.21-0.069-0.271-0.143-0.094-0.113-0.115-0.335-0.041-0.481 0.094-0.187 0.326-0.245 0.594-0.241m-0.173 0.598c0.029 0.022 0.062 0.032 0.109 0.038 0.058 7e-3 0.143 0 0.192-0.03 0.083-0.05 0.111-0.194 0.042-0.279-0.072-0.088-0.297-0.09-0.373 0-0.064 0.077-0.039 0.22 0.03 0.271m-2.63-0.482c-5e-3 0.04-2e-3 0.085-4e-3 0.129-1e-3 0.042-2e-3 0.085-3e-3 0.127-2e-3 0.089 2e-3 0.179-4e-3 0.256-0.02 0.245-0.348 0.284-0.606 0.267-0.201-0.012-0.397-0.047-0.481-0.176-0.019-0.029-0.03-0.074-0.03-0.117h0.372c0.016 0.015 0.028 0.034 0.053 0.045 0.106 0.046 0.344 0.052 0.342-0.087-0.28-0.039-0.639 0.015-0.783-0.154-0.015-0.018-0.033-0.051-0.037-0.067-0.092-0.357 0.486-0.408 0.749-0.279 0.029 0.015 0.05 0.04 0.075 0.053 0.012-0.023 0.012-0.058 0.034-0.072h0.353c-5e-3 0.022-0.026 0.046-0.03 0.075m-0.594 0.087c-0.096-6e-3 -0.206 4e-3 -0.196 0.094 0.014 0.124 0.29 0.1 0.429 0.098 4e-3 -0.132-0.107-0.184-0.233-0.192m2.239-0.417c-0.088-6e-3 -0.171-0.016-0.23-0.042-0.036-0.015-0.08-0.046-0.102-0.071-0.082-0.098-0.074-0.297 4e-3 -0.384 0.071-0.08 0.209-0.111 0.361-0.109 0.174 2e-3 0.325 0.04 0.384 0.15 0.06 0.11 0.042 0.266-0.03 0.346-0.065 0.073-0.213 0.12-0.387 0.11m0.154-0.388c-0.044-0.049-0.171-0.057-0.23-0.015-0.052 0.036-0.059 0.137-0.015 0.188 0.018 0.02 0.038 0.03 0.079 0.038 0.082 0.014 0.165-9e-3 0.188-0.072 0.015-0.039 9e-3 -0.104-0.022-0.139m1.241 0.388c-0.16-0.011-0.302-0.052-0.357-0.159-0.044-0.085-0.037-0.216 4e-3 -0.293 0.061-0.113 0.204-0.154 0.372-0.154 0.183 0 0.344 0.04 0.407 0.154 0.044 0.08 0.041 0.22 0 0.297-0.023 0.043-0.065 0.078-0.098 0.098-0.08 0.048-0.204 0.064-0.328 0.057m0.166-0.381c-0.054-0.075-0.238-0.057-0.271 0.019-0.042 0.099 0.026 0.172 0.098 0.185 0.076 0.012 0.146-0.01 0.173-0.046 0.031-0.04 0.033-0.111 0-0.158m-1.994-0.534c-0.113 0.093-0.107-0.23 0-0.128-6e-3 -0.018 9e-3 -0.015 0.022-0.015v0.211h-0.022zm-0.03-0.128c-0.039 1e-3 -0.05 0.124 0.011 0.124 0.029-0.02 0.03-0.124-0.011-0.124m1.396 0.241c-0.043 2e-3 -0.094-1e-3 -0.14-0.019-0.025-0.01-0.049-0.034-0.071-0.041-4e-3 0.01 8e-3 0.035-8e-3 0.034h-0.176v-0.584h0.184v0.166c0.057-0.039 0.105-0.059 0.18-0.064 0.159-0.01 0.287 0.077 0.309 0.222 0.025 0.164-0.111 0.276-0.278 0.286m-0.2-0.305c-0.036 0.089 0.029 0.163 0.109 0.173 0.077 0.011 0.159-0.035 0.162-0.116 6e-3 -0.154-0.221-0.179-0.271-0.057m0.873 0.301c-0.142-0.011-0.238-0.052-0.278-0.128-0.053-0.098-0.021-0.214 0.011-0.263 0.086-0.13 0.424-0.148 0.568-0.06 0.079 0.048 0.131 0.181 0.083 0.301-0.046 0.115-0.189 0.166-0.384 0.15m0.136-0.335c-0.047-0.032-0.154-0.03-0.192 0.015-0.031 0.037-0.024 0.109 0 0.14 0.016 0.02 0.041 0.029 0.067 0.034 0.076 0.014 0.148-0.012 0.162-0.068 0.01-0.038 1e-3 -0.094-0.037-0.121" fill="#fff"/>
    </g>
    <g id="l" transform="translate(207.85 85.665)">
     <path id="m" d="m0 0c3e-3 -0.983-5e-3 -2.037 4e-3 -2.988h6.306v2.999h-6.306c-5e-3 0-4e-3 -6e-3 -4e-3 -0.011" fill="#fff"/>
    </g>
    <g id="n" transform="translate(208.63 84.315)">
     <path id="o" d="m0 0c0.018-0.01 0.024-0.026 0.034-0.042 0.011-0.017 0.017-0.036 0.03-0.049 0.058 0.02 0.111 0.045 0.169 0.064-0.035 0.14-0.148 0.221-0.327 0.204-0.091-9e-3 -0.174-0.063-0.218-0.136-0.088-0.143-0.073-0.401 0.064-0.511 0.037-0.031 0.096-0.055 0.154-0.061 0.159-0.014 0.284 0.06 0.327 0.177-0.052 0.031-0.107 0.058-0.162 0.087-0.024-0.042-0.037-0.076-0.075-0.091-0.175-0.069-0.209 0.265-0.109 0.347 0.032 0.025 0.079 0.03 0.113 0.011m0.843-0.083-0.211 4e-3v0.245h-0.188c0 8e-3 -0.01-2e-3 -7e-3 -8e-3v-0.677c0.05-2e-3 0.145 0 0.195 0v0.271c0.055-3e-3 0.165 4e-3 0.214-4e-3v-0.267h0.192v0.685h-0.192c-2e-3 -0.082-3e-3 -0.249-3e-3 -0.249m0.831 0.249c-0.049 0-0.13-1e-3 -0.191 0-0.078-0.233-0.166-0.454-0.245-0.685 0.065-2e-3 0.203-4e-3 0.203-4e-3l0.042 0.124 0.203-4e-3 0.033-0.116 0.207-4e-3s-0.167 0.455-0.244 0.689zm-0.147-0.414c0.014 0.072 0.039 0.134 0.054 0.206 0.019-0.067 0.037-0.137 0.056-0.206zm0.998 0.414v-0.358l-0.256 0.358h-0.162v-0.685c0.045 0 0.147-1e-3 0.181 0-2e-3 0.124 4e-3 0.273-4e-3 0.38 0.066-0.098 0.133-0.198 0.199-0.29 0.023-0.031 0.048-0.064 0.076-0.09 0.035 0 0.114-1e-3 0.15 0v0.685c-0.06-1e-3 -0.184 0-0.184 0m0.846-0.358c-0.04 0.063-0.08 0.125-0.124 0.184-0.045 0.06-0.088 0.12-0.135 0.174h-0.158c-1e-3 4e-3 -4e-3 2e-3 -8e-3 0v-0.685c0.046-1e-3 0.138-1e-3 0.184 0 0 0.128 2e-3 0.264-3e-3 0.376 0.042-0.066 0.089-0.128 0.136-0.192 0.046-0.064 0.085-0.133 0.138-0.188 0.028 8e-3 0.118 1e-3 0.151 4e-3v0.685h-0.184c1e-3 -0.12-4e-3 -0.245 3e-3 -0.358m1.667-0.162c-0.1 3e-3 -0.211-5e-3 -0.305 4e-3 3e-3 0.17-5e-3 0.351 4e-3 0.516-0.053 1e-3 -0.124-1e-3 -0.188 0 0 8e-3 -0.011-2e-3 -8e-3 -8e-3v-0.677c0.151-1e-3 0.334 0 0.497 0 1e-3 0.041-1e-3 0.112 0 0.165m-1.057 0.109h0.199v0.162h-0.203c3e-3 0.029-5e-3 0.068 4e-3 0.091h0.335v0.158h-0.523c-9e-3 -0.221-1e-3 -0.458-4e-3 -0.685h0.534v0.158h-0.346c3e-3 0.037-5e-3 0.085 4e-3 0.116" fill="#e50011"/>
    </g>
   </g>
  </g>
  <path id="p" d="m334.22 549.49v-0.86689h-0.88846v0.86689h-0.29066v-1.933h0.29066v0.78185h0.88846v-0.78185h0.29065v1.933z" fill="#e50011" stroke-width=".12692"/>
  <path id="q" d="m335.01 547.56v1.933h0.528c0.50642 0 0.94304-0.28431 0.94304-0.96716 0-0.68157-0.42266-0.96588-0.94304-0.96588zm0.29065 0.28177h0.23735c0.45819 0 0.64731 0.27923 0.64731 0.68411 0 0.40743-0.18912 0.68539-0.64731 0.68539h-0.23735z" fill="#e50011" stroke-width=".12692"/>
 </g>
</svg>
