<svg version="1.1" viewBox="0 0 122 44" xmlns="http://www.w3.org/2000/svg">
 <description>Created with Sketch (http://www.bohemiancoding.com/sketch)</description>
 <g fill="none" fill-rule="evenodd">
  <path d="m117.75 14.691c-2.3456 0.03826-3.6202 1.0097-3.4774 2.5015 0.27697 2.9227 7.6332 5.3186 7.6555 11.826 0.017956 5.1077-3.2223 10.813-12.604 10.981-5.5621 0.043874-13.322-1.5348-13.322-1.5348l3.6376-7.9408c4.2479 1.1821 7.1969 2.1245 10.37 2.0837 2.249-0.029319 3.4097-1.0488 3.4037-2.6281-0.012383-3.5284-6.6308-4.8336-7.2892-11.754-0.53826-5.6666 3.0285-10.086 11.262-10.221 1.6354-0.025784 3.2281 0.066955 4.6152 0.28404l-0.87487 6.8849c-1.1258-0.33997-2.2872-0.50195-3.3777-0.48262 0 0 1.0905-0.019338 0 0z" fill="#0081F9"/>
  <path d="m88.992 27.689-0.11491 0.0064562c-0.009201-0.18473-0.050094-0.37259-0.11368-0.56274-0.60297-3.4766-1.8647-17.3-1.9553-18.292-0.0034759-0.042903-8.6645-0.058731-8.6645-0.058731l-0.14354 0.043736 4.686 30.174h8.7565l13.558-29.231-8.8569-1.7694-7.1512 19.689z" fill="#0081F9"/>
  <path d="m75.741 8.715s-3.783-1.2178-9.3256-0.47482c-7.5304 1.0096-17.049 10.918-15.176 21.952 1.1325 6.6708 4.3647 9.8142 9.0974 9.8082 5.0925-0.0072857 8.7319-4.2994 10.467-8.7772h0.069031c-0.31945 3.1776 0.071933 8.1825 0.071933 8.1825h9.0561c-1.744-14.038-2.9014-19.242-4.2592-30.69 0 0 1.3578 11.449 0 0zm-6.8591 6.9644c0.23359 0.33312 0.049088 1.6255 0.049088 1.6255-0.4133 5.7256-4.3884 13.933-7.746 13.69-1.1989-0.087227-1.8583-1.1649-2.1239-3.4858-0.64501-5.6212 3.9787-11.614 6.8986-12.324 1.5846-0.38554 2.4758-0.14511 2.9222 0.49402z" fill="#0081F9"/>
  <path d="m0.3671 39.369-0.3671-0.19491 0.021399-0.41676c0.02036-0.39357 0.57735-9.7791 7.5607-21.941 7.0014-12.194 14.997-16.403 15.334-16.576l0.53996-0.24066 0.54307 0.24066c0.33698 0.17297 8.3333 4.3817 15.334 16.576 6.9821 12.159 7.6174 21.542 7.6408 21.935l0.025346 0.4224-0.37271 0.19616c-0.359 0.18927-8.9539 4.6295-22.924 4.6295h-0.49093c-13.972 0-22.49-4.4415-22.845-4.6307 0 0 0.35568 0.18927 0 0zm15.257-18.603c2.7771-4.6782 5.7021-7.8909 7.8751-9.7658 2.1746 1.8749 5.0998 5.0876 7.8759 9.7658 2.7721 4.6699 4.0418 8.6535 4.6252 11.411-2.7568 0.8953-6.9487 1.8232-12.501 1.8232-5.5508 0-9.7435-0.92785-12.499-1.8232 0.58318-2.7576 1.8525-6.7412 4.6238-11.411 0 0-2.7713 4.6699 0 0z" fill="#BDC3C7"/>
 </g>
</svg>
