<svg width="500" height="463.66" version="1.1" viewBox="0 0 500 463.66" xmlns="http://www.w3.org/2000/svg">
 <g transform="translate(3.8988e-6 -588.7)">
  <g transform="matrix(1.1272 0 0 1.127 177.94 -20.911)" fill="#6e99ce">
   <path transform="translate(0 752.36)" d="m247.4 92.961c-0.45169-0.24469-0.92736-0.49125-1.3789-0.73242-2.5589-1.3667-5.1324-2.6636-7.8965-3.7285-1.382-0.53246-2.8104-1.0076-4.3106-1.4043-1.5002-0.39674-3.0715-0.71471-4.7344-0.93555-4.1615-0.55268-8.1339-0.89982-11.938-1.0625s-7.4386-0.14047-10.924 0.04297c-3.4852 0.18344-6.821 0.52801-10.027 1.0137-3.2064 0.48566-6.283 1.1115-9.25 1.8555-2.967 0.74401-5.8246 1.606-8.5918 2.5645s-5.4438 2.0135-8.0508 3.1426c-5.214 2.2581-10.147 4.8131-14.957 7.4902-4.8102 2.6771-9.4981 5.4776-14.221 8.2227-4.7226 2.745-9.4803 5.4346-14.432 7.8965-2.4757 1.231-4.9996 2.4057-7.5918 3.5s-5.2518 2.1096-8 3.0234c-2.7482 0.91384-5.5856 1.7266-8.5293 2.416-2.9437 0.68947-5.9951 1.2546-9.1738 1.6758-7.5979 1.0068-15.307 1.8094-23.16 2.3496s-15.848 0.81856-24.018 0.77929c-4.0848-0.0196-8.2131-0.11901-12.389-0.30469-4.1755-0.18567-8.3998-0.45838-12.674-0.82421-4.274-0.36584-8.5983-0.82466-12.979-1.3848-4.3802-0.5601-8.8145-1.2198-13.309-1.9883-4.4941-0.76849-9.0484-1.6457-13.664-2.6367-4.6157-0.99099-9.2941-2.0966-14.039-3.3242-4.745-1.2276-9.5555-2.5763-14.438-4.0547-4.882-1.4783-9.8346-3.0869-14.861-4.8301-5.0267-1.7432-10.127-3.6224-15.307-5.6445-5.1792-2.0222-10.438-4.1867-15.777-6.5019-5.3394-2.3152-10.76-4.7799-16.268-7.4023-1.8393-0.87586-3.7468-1.8759-5.6055-2.7871a205.71 205.71 0 0 0 182.23 110.61 205.71 205.71 0 0 0 180.26-107.04z"/>
   <path transform="translate(0 752.36)" d="m67.143-211.43a205.71 205.71 0 0 0-178.71 104.12l33.283 23.449 52.527-64.65 35.355 53.033 50.004-86.367 51.012 86.873 52.527-33.842 83.4 22.922a205.71 205.71 0 0 0-179.4-105.54z"/>
   <g fill-rule="evenodd">
    <path d="m154.64 695.2v23.571h15.714v89.643h29.286v-89.643h15.714v-23.571z"/>
    <path d="m215 695.2 17.5 113.21h35.715l17.5-113.21h-28.387l-6.9707 77.143-6.9707-77.143z"/>
    <path d="m-142.1 695.2-15.758 113.21h30.715v-21.43h15.371v21.43h30.715l-15.758-113.21zm22.643 30.705 4.8086 41.752h-9.6172z"/>
    <path d="m-76.672 695.2v22.686h22.93l-22.93 67.844v22.686l55.957 1.6e-4v-22.686h-22.928l22.928-67.844v-22.686z"/>
    <path d="m-13.215 695.2v87.5c0.08784 22.501 19.478 27.665 36.029 27.665s35.941-5.1636 36.029-27.665v-87.5h-31.072v87.5c0.12308 6.4034-1.8785 8.5479-4.957 8.7324-3.0785-0.18449-5.0801-2.329-4.957-8.7324v-87.5z"/>
    <path d="m69.953 695.2v113.21h31.297v-50.855c2.3575-0.088 4.145-0.0108 5.498 0.25099 0.67651 0.13086 1.2441 0.30692 1.7207 0.53312 0.47658 0.22621 0.86111 0.50203 1.1719 0.82887 0.62159 0.6537 0.94627 1.5134 1.1094 2.6014s0.1649 2.4045 0.14258 3.9692v42.671h28.004v-45.963c0.0508-6.8494-10.075-11.961-16.162-12.912 6.5071-1.0152 16.417-5.9564 16.162-14.898v-16.219c0.44888-11.763-8.8049-23.454-21.92-23.218zm32.961 19.087c7.803-0.0168 8.0622 2.3491 7.9785 8.2167v9.0786c0.0652 5.9374-0.42873 8.1303-9.6426 7.7867v-25.049c0.58938-0.022 1.1439-0.032 1.6641-0.0331z"/>
   </g>
  </g>
 </g>
</svg>
