<svg width="635.23pt" height="330.77pt" version="1.1" viewBox="0 0 635.23 330.77" xmlns="http://www.w3.org/2000/svg">
 <g transform="translate(-28.91,-22.62)" fill="#ff0302">
  <path d="m367.28 31.25c3.78-3.38 7.35-8.06 12.75-8.63 5.08 0.17 9.97 2.31 14.12 5.16 3.46 2.39 3.77 6.92 5.7 10.34 5.97 10.59 17.07 17.31 22.28 28.42-5.72-2.42-7.92-9.19-13.72-11.53 2.79 10.19 11.03 17.4 16.75 25.93-0.01 0.36-0.02 1.08-0.02 1.44-4.98-2.47-7.99-7.2-11.25-11.46-1.07 2.06 0.05 4.3 0.26 6.41l-0.96-0.01c-0.8-3.31-1.01-6.91-3-9.79 1.58 9.42 2.07 18.96 2.64 28.49 0.02 12.26 1.05 24.71 5.1 36.37-1.19 1.26-2.33 2.56-3.32 3.97 1.39-0.77 2.71-1.67 4.02-2.57 4.53 11.84 9.37 23.71 11.53 36.27 1.37 8.84-1.65 17.46-3.28 26.05-0.08 1.88-1.63 2.99-2.89 4.14 2.48 2.62-1.16 5.21-2.69 7.14-3.25 10.16-3.8 21-2.83 31.57 0.46 8.57 1.83 17.09 1.53 25.7-0.59 0.24-1.76 0.71-2.34 0.95 3.03 2.87 2.37 6.96 1.89 10.69-0.83 0.63-1.65 1.25-2.47 1.88 1.99 4.36 0.15 9.74-3.19 12.94 0.28 0.46 0.84 1.37 1.12 1.82-4.88 11.7-5.78 24.54-5.87 37.08-0.29 6.69 0.26 13.48-0.97 20.1-5.02 3.14-11.66 4.57-17.16 1.77 0.12-15.15 7.14-29.21 8.49-44.23 1.84-19.22 0.36-38.59-2.36-57.66-2.31-18.02-5.9-35.93-6.54-54.13-12.76 15.18-25.44 30.44-37.83 45.92-0.55-0.48-1.64-1.45-2.18-1.94-1.56 0.83-3.11 1.65-4.68 2.44 0.21 0.44 0.64 1.33 0.85 1.78-2.17 1.02-4.24 2.24-6.13 3.7 1.86-0.31 5.13-2.6 4.73 0.95 0.63-0.25 1.88-0.74 2.5-0.99-1.81 3.45-5.88 5.97-5.79 10.2-0.34 11.98-4.66 23.43-10.1 33.96-3.55 7.39-7.86 14.49-10.3 22.35 1.42 2.55 4 4.6 4.24 7.69 0.77 5.89-1.62 11.49-3.01 17.1-0.97 3.45-1.12 7.05-1.84 10.56-1.59-1.46-1.26-3.64-1.26-5.56 0.1-3.32 0.4-6.66-0.05-9.96-3.44-0.18-4.54 4.22-5.11 6.91-1 3.24-0.43 7.91-3.92 9.71-5.88 2.42-12.54 3.41-18.79 2.04-3.27-1.14 0.66-3.77 1.83-5.1-0.02-0.58-0.05-1.74-0.06-2.32 2.02-1.26 4.03-2.53 6.1-3.7 1.45-6.21 3.05-12.39 4.54-18.58 4.9-20.27 9.86-40.53 14.76-60.8 5.54-19.6 11.32-39.87 23.97-56.24 1.38-2.25 1.42-5.04 2.63-7.38 1.79-3.74 4.82-7.26 4.35-11.68-0.4-6.63-3.6-12.64-5.16-19.03-2.33-9.56-6.98-18.77-6.5-28.84 1.47-18.42-4.04-36.66-2.24-55.08 0.64-5.14 5.16-8.47 10.01-9.26-0.29 0.6-0.86 1.8-1.14 2.4 1.13-0.67 2.27-1.34 3.42-2 0.36 0.93 0.74 1.86 1.11 2.79 0.26-1.95 0.95-4.29-1.91-4.32 2.43-9.48 6.22-18.52 8.95-27.9-4.46 0.44-7.44 4.1-11.47 5.64 0.26-1.47 0.5-2.95 0.73-4.42 6.69-5.84 15.19-9.24 21.43-15.66m-16.09 43.02c0.61 0.44 0.61 0.44 0 0m-0.05 3.8c-0.62 1.36-0.19 1.82 1.29 1.39 0.61-1.35 0.18-1.82-1.29-1.39m39.81 19.96c0.98 1.56 0.77 3.39 0.83 5.13 1.11-1.79 2.21-3.8 2.03-5.98-1.06-1.54-1.94 0.44-2.86 0.85m-2.11 10.32c-0.73 0.04-2.2 0.1-2.93 0.13 0.68 0.1 2.04 0.31 2.72 0.41-0.39 0.64-1.16 1.93-1.55 2.57 1.1-0.78 2.18-1.6 3.27-2.41-0.23-1.52-0.46-3.03-0.7-4.55-1.46 0.92-0.98 2.47-0.81 3.85m2.45-2.1c0.51 0.55 0.51 0.55 0 0m2.71 28.84c-0.14 1.59 1.34 2.54 2.23 3.63 5.38 5.25 9.53 11.91 16.12 15.81-6.72-11.98-9.19-25.69-15.07-38.03-2.71 5.75-3.5 12.29-3.28 18.59m-11.68-17.07c-0.1 3.36 3.04-1.37 0 0m-34.01 27.89 2 1.6c0.57-0.61 1.15-1.21 1.73-1.81-0.31-0.35-0.95-1.03-1.26-1.37 4.51-2.92 8.72-6.27 13.15-9.29 1.68-1.16 3.25-2.5 4.45-4.16-6.78 4.85-13.68 9.64-20.07 15.03m62-6.31c1.42 0.74 4-0.88 3.57-2.51-1.37-0.57-4.09 0.89-3.57 2.51m-57.1 10.39c-0.25 5.65-0.21 11.32-0.2 16.99-0.21 2.75 1.26 5.14 2.73 7.32-0.68-8.09 0.34-16.56-2.53-24.31m55.38 13.66c-0.1 2.7-0.03 6.62 3.24 7.36-0.73-2.6-1.89-5.04-3.24-7.36m4.63 11.64c0.55 0.48 0.55 0.48 0 0m0.87 4.05c1.82 4.53 1.42 9.92 4.52 13.87 1.57-5.02-1.3-10.16-4.52-13.87m3.78 21.1c2.02-0.03 2.72 1.74 3.46 3.29 0.98-0.08 1.97-0.2 2.95-0.35-0.4-1.09-0.79-2.18-1.17-3.26 0.4-0.57 1.22-1.72 1.63-2.29-3.11-1.1-4.15 2.41-6.87 2.61m-84.79 50.24c-1.96 0-3.91 0.23-5.85 0.48-0.08 0.71-0.24 2.14-0.32 2.86 2.56-1.5 5.45-2.17 8.4-2.32 0.98-1.77 2.9-2.43 4.68-3.11-2.76-1.04-5.09-0.03-6.91 2.09m82.15-0.58c0.29 3.3 2.95-1.65 0 0m-90.04 6.71c1.39 0.25 1.92-0.31 1.6-1.68-1.4-0.25-1.93 0.31-1.6 1.68m86.91 30.88c1.38 0.29 1.92-0.25 1.63-1.62-1.4-0.3-1.94 0.23-1.63 1.62z"/>
  <path d="m197.32 234.21c0.5 0.59 0.5 0.59 0 0z"/>
  <path d="m347.66 244.66c1.19-0.14 2.37-0.28 3.57-0.42-1.41 1.56-2.89 3.24-5.22 2.94 0.54-0.84 1.09-1.68 1.65-2.52z"/>
 </g>
 <g transform="translate(-28.91,-22.62)" fill="#fff">
  <path d="m461.67 45.14c11.83-0.16 23.66-2.03 35.49-0.84 1.99 0.54 3.91 1.36 6 1.49 1.95 1.61 4.46 2.26 6.57 3.63 0.93 0.07 1.87 0.13 2.82 0.2 0.99 1.81 2.7 2.59 4.73 2.57 0.56 0.65 1.12 1.3 1.7 1.96 0.61 0.02 1.84 0.07 2.45 0.09 0.98 2.27 3.2 2.39 5.38 2.29 2.65 4.44 8.48 7.23 8.64 12.83 0.6 0.09 1.8 0.28 2.4 0.38 1.33 8 1.5 16.12 1.66 24.21-0.92 2.74-2.14 5.56-0.31 8.24-0.57 0.17-1.71 0.49-2.28 0.65 1.25 2.36 0.88 5.02 0.96 7.58-1.4 1.27-0.65 3.18-0.7 4.79-0.47 0.01-1.41 0.03-1.88 0.04 0.26 1.88 0.51 3.76 0.74 5.65l-1.66 0.06c1.76 4.82-3.31 8.29-3.25 12.94 0.05 5.13-0.72 10.39-3.31 14.89-2.18 3.86-3.82 7.97-5.04 12.23-0.58 0.04-1.75 0.14-2.33 0.19-1.38 3.39-2.34 7.04-4.64 9.96-0.1 0.56-0.28 1.69-0.38 2.25-3.11 3.05-3.88 7.9-7.55 10.51-1.23 2.12-1.51 4.87-3.6 6.53-0.46 4.25-5.35 6.04-5.56 10.27-1.93 0.69-2.7 2.71-3.8 4.26-0.85 1.15-1.96 2.06-2.94 3.08-0.88 2.6-1.47 5.3-2.3 7.92-1.62 1.19-3.05 2.63-4.87 3.51-0.01 1.52 0 3.05 0.01 4.59-0.7 0.81-1.4 1.62-2.1 2.44-0.35 2.81-0.69 5.63-0.82 8.46-0.41 0.01-1.22 0.02-1.63 0.02-1.67 3.96-3.42 8.04-3.6 12.4-2.29 1.78-2.55 4.95-3.45 7.53-0.89 2.2 0.37 5.51-2.24 6.72 0.25 0.74 0.74 2.23 0.99 2.97-0.49 0.15-1.48 0.44-1.97 0.59 0.35 0.52 1.07 1.54 1.43 2.06-0.39 0.43-1.17 1.29-1.56 1.72 0.24 1.12 0.51 2.25 0.77 3.38-2.96 6.06-0.81 13.23-1.91 19.71-0.44 0.13-1.3 0.4-1.73 0.53-0.02 3.48 0.01 6.96-0.05 10.44 1.77 1.23 3.9 1.33 6 1.35 0.46 0.99 0.92 1.99 1.39 3 3.18 0.04 6.4 0.34 9.57-0.11 3.69-1.23 7.44-2.31 11.34-2.68 2.13 2.67 6.29 1.04 9.3 1.24l0.91-1.32c3.01-0.02 6.02-0.02 9.04 0 0.79 2.63 4.47 0.34 5.35 2.93 1.52 0.02 3.05 0.05 4.59 0.08 1.94-3.2 7.15-1.18 9.78 0.28 1.42 5.94 3.41 12.74 0.28 18.45-0.49 1.79-0.26 3.7-0.46 5.55-8.53 3.63-18.03 3.63-27.11 2.94-5.04-1.31-10.2-2.57-15.45-1.99-0.65 2.4-3.23 3.27-5.46 3.24-5.57 0.03-11.14 0.09-16.7-0.1-0.1-0.77-0.31-2.29-0.41-3.06-0.68 0.03-2.03 0.09-2.7 0.12-0.25 0.52-0.74 1.54-0.99 2.06-3.75 0.01-7.5-0.24-11.24 0.07-2.08 1.02-3.68 2.91-6.06 3.35 0-0.89-0.02-2.68-0.03-3.58-4.97 0.1-9.98 0.41-14.93-0.04-2.86-1.35-5.86-2.29-8.94-2.98 0.02-10.61-0.14-21.23 0.07-31.83 0.32-0.39 0.97-1.17 1.29-1.57-0.14-3.04-0.36-6.08-0.36-9.12 0.5-0.32 1.5-0.95 2-1.27-0.06-0.72-0.18-2.15-0.24-2.87 0.89-0.86 1.28-1.9 1.16-3.12-0.12-3.24 0.25-6.57-0.79-9.68 1.56-1.25 1.31-3.02 0.85-4.71 0.94-1.48 1.16-3.24 1.7-4.87-0.2-0.44-0.6-1.3-0.8-1.73 2.48-5.48 1.45-12.22 5.28-17.12 2.51-3.1 1.66-7.39 2.97-10.98 0.52 0 1.55 0 2.07-0.01-0.01-1.88-0.01-3.77 0-5.65 1.73-1.29 2.18-3.31 2.71-5.26 2.08-1.97 2.61-5.28 5.28-6.59 0.01-1.33 0.02-2.65 0.04-3.97 1.6-2.01 2.46-4.45 3.06-6.92 1.51-1.29 2.71-2.94 4.42-4 2.62-5.32 3.22-12.29 8.2-16.03 0.07-0.62 0.22-1.86 0.29-2.48 3.72-1.41 4.34-6.13 7.62-8.23 0.09-0.63 0.27-1.88 0.36-2.51 2.75-1.53 3.26-5.06 4.53-7.69 0.57-3.39 4.15-4.97 5.01-8.21 0.27-0.02 0.82-0.06 1.09-0.07-0.08-2.67 0.71-5.19 2.93-6.81 1.39-5.08 1.59-10.64 4.51-15.18 1.09-1.34 0.38-3.07 0.38-4.6 2.37-1.94 3.56-4.77 3.78-7.77 0.24-0.21 0.71-0.64 0.95-0.86-0.42-1.56 0.64-2.57 1.72-3.51 0.2-4.3-0.33-8.57-0.62-12.85 0.41-0.43 1.22-1.28 1.63-1.71-0.12-2.2-0.16-4.42 0.22-6.6 0.9-5.35-0.63-10.68-0.43-16.04-3.21-0.68-5.35-4.12-8.86-3.51-5.34 0.11-10.68 0.11-16.02 0.15-1.58 1.35-3.43 2.44-4.84 3.96-1.32 3.13-1.31 6.58-1.42 9.92-0.24 6.94-0.19 13.89-0.16 20.84-0.64 0.32-1.27 0.65-1.9 0.98-1.8-0.89-3.55-2.35-5.66-2.26-1.64 0.81-3.21 1.91-5.11 1.79-8.46 0.39-16.88-0.8-25.28-1.63-1.16-9.06-2.62-18.14-2.51-27.3 0-0.36 0.01-1.08 0.02-1.44 0.06-7.36 2.46-14.89 8.23-19.75 0.67-0.03 1.99-0.07 2.66-0.1 0.94-1.66 1.57-3.76 3.52-4.53 3-1.23 5.07-3.83 7.84-5.42 2.42-0.81 5.04-0.99 7.34-2.17 2.36-1.19 5.53-1.26 6.92-3.83z"/>
  <path d="m39.78 48.18c2.74-0.15 5.44-0.7 8.17-0.89 6.84 0.42 13.71-0.73 20.53 0.19 3.18 0.14 6.36 0.15 9.54 0.21 1.9 3.77 6.89 1.29 9.48 4.17 1.11 0.33 2.22 0.64 3.34 0.95 2.33 2.81 5.57 4.86 7.28 8.18 2.13 4.35 2.03 9.31 1.95 14.04-0.52 14.3 3.08 28.75 0.01 42.94-1.04 5.51-4 10.96-9.18 13.56 5.03 2.01 7.23 7.34 9.03 12.03 0.22 3.01 0 6.03 0.32 9.02 0.35 0.24 1.06 0.72 1.42 0.96-0.06 3.28-0.01 6.55-0.07 9.82-1.84 1.87 0.78 4.41-0.49 6.55 1.25 1.44 1.37 3.13-0.92 3.47 0.41 3.82-0.22 8.02-4.01 9.87 1.31-0.17 2.61-0.36 3.92-0.55 2.59 12.91-6.14 25.76-17.94 30.48-2.99 1.34-6.37 0.7-9.54 1.02-3.06 1.63-6.58 0.17-9.82 0.03-5.94 2.13-12.56 2.1-18.73 1.04-2.77-0.11-5.47 0.93-8.26 0.89-1.21-2.99-0.98-6.35-2.54-9.21-0.15-6 0.28-12.08 1.29-17.96-1.62-6.83 1.34-13.72-0.03-20.53 0.49-1.7 0.97-3.64-0.4-5.09 0.18-0.86 0.36-1.71 0.54-2.56-2.07-7.61 0.85-16.04-1.5-23.52 0.13-2.71 0.44-5.4 0.77-8.09-0.78-1.57-1.7-3.62 0.1-4.98-0.88-3.83-1.57-7.74-0.14-11.54-1.68-3.29-0.54-7.17-0.86-10.71-0.31-5.68 0.82-11.53-0.89-17.05 0.04-2.85 1.57-5.73 0.22-8.5-2-5.25-0.85-10.93-1.87-16.32-0.4-0.26-1.19-0.77-1.59-1.03 1.01-1.75 2.8-2.7 4.24-4.02-0.28-0.55-0.84-1.66-1.11-2.22 0.42-1.52 0.85-3.04 1.26-4.57 2.15-0.24 4.36-0.75 6.48-0.08m18.09 14.96c-2.51 9.1-0.3 18.58-0.47 27.83-0.23 4.31-0.89 8.7 0.32 12.93 0.69 7.23-1.47 14.87 1.44 21.83 5.33-0.15 11.76 0.75 15.71-3.7 1.19-11.63 0.62-23.35 0.66-35.02 0.07-1.62-0.19-3.23-0.72-4.77 0.15-1.48 0.31-2.96 0.48-4.44-2.87-2.84 1.31-7.04-0.99-10.11-1.14-1.61-2.16-3.7-4.3-4.11-3.98-0.9-8.09-0.37-12.13-0.44m1.13 79.67c0.11 7.78-0.38 15.57 0.09 23.35 0.85 3.41 1.06 6.9 0.65 10.4 0.91 3.82-1.12 7.54-0.16 11.33 0.56 3.73 0.36 7.51 0.41 11.26 5.15 0.04 11.83 0.63 14.4-4.92 2.69-6.04 0.69-12.88 2.43-19.11 0.4-4.16 1.75-8.9-0.72-12.67-0.36-5.54 0.3-11.44-1.71-16.68-0.83-0.82-1.54-1.78-2.45-2.52-4.28-0.58-8.63-1.35-12.94-0.44m27.15 58.71c1.45-1.7 2.29-3.78 3.05-5.85-3.11-0.06-2.2 3.83-3.05 5.85z"/>
  <path d="m189.23 48.23c4.53-0.68 9.14 0.17 13.63-0.91 7.4 0.34 14.83-0.75 22.22 0.21 3.03 0.02 6.07 0.15 9.11 0.13 0.31 0.52 0.92 1.56 1.23 2.08 2.73 0.39 5.83 0.12 8.02 2.1 1.09 0.37 2.19 0.71 3.29 1.06 2.88 3.22 6.9 5.8 8.12 10.17 2.01 7.17 0.73 14.68 1.26 22 0.74 9.67 1.62 19.42 0.56 29.09-0.84 6.75-3.4 14.18-9.9 17.41 5.32 1.81 6.85 7.55 9.17 11.99 0.65 3.23-1.35 7.82 1.69 10.05-0.05 3.38-0.06 6.76 0.02 10.14-0.31 0.12-0.94 0.36-1.26 0.48 0.54 1.82 1.9 3.83 0.41 5.58 1.25 1.33 1.76 3.05-0.52 3.6 0.36 4-0.84 8.01-4.46 10.07 1.42-0.3 2.83-0.6 4.25-0.91 2.64 13.65-7.14 27.37-20.06 31.29-2.46 0.27-4.93 0.19-7.39 0.35-3.6 2.04-7.76-0.81-11.49 0.56-5.25 1.22-10.79 1.68-16.11 0.64-3.25-0.63-6.41 1.06-9.69 0.53-0.51-2.47-0.94-4.96-1.47-7.42-1.53-2.18-0.7-4.98-0.74-7.44 0.4-3.6 0.2-7.36 1.52-10.79-1.05-4.85-0.94-9.91 0.02-14.77 0.49-2.32 0.47-4.74-0.07-7.05 0.38-1.73 1.04-3.83-0.64-5.16 0.14-0.65 0.43-1.95 0.57-2.59-1.32-7.27-0.2-14.75-0.63-22.1-2.42-3.04 0.81-6.89-0.4-10.22-1.29-2.34 1.19-4.63-0.01-6.95-1.22-2.75-0.42-5.65 0.22-8.42-1.5-5.54-0.47-11.36-0.77-17.04-0.29-3.61 0.88-7.59-1.07-10.88 0.31-2.56 1.59-5.2 0.68-7.75-1.94-5.46-1.63-11.31-2.04-16.99-0.45-0.36-1.35-1.07-1.79-1.43 1.21-1.57 2.81-2.73 4.43-3.86-0.3-0.55-0.89-1.66-1.18-2.21 0.42-1.55 0.85-3.09 1.27-4.64m24.62 14.91c-1.3 3.11-1.05 6.54-1.13 9.84 0.16 8.34 0.6 16.67 0.19 25-0.42 3.44 1.55 6.61 0.98 10.04-0.6 5.88-1.07 12.08 1.18 17.68 4.81-0.07 10.06 0.51 14.32-2.23 1.76-1.7 1.76-4.27 1.82-6.54 0.07-10.7 0.21-21.39-0.03-32.09-1.11-2.16-0.22-4.5-0.01-6.76-3.25-3.13 1.75-7.67-1.29-10.82-2.89-6.12-10.68-3.71-16.03-4.12m1.22 79.64c0.11 8.43-0.51 16.9 0.19 25.31 0.77 2.7 0.87 5.48 0.07 8.19 1.64 3.14-0.64 6.53-0.2 9.82 0.41 4.34 0.99 8.68 0.93 13.06 4.06-0.09 8.58 0.4 12.11-1.94 3.59-4.96 4.01-11.37 3.84-17.29 0.18-5.76 3.29-12.13 0.06-17.5-0.27-3.01 0.5-6.22-0.73-9.08 0.44-3.71-0.98-7.04-2.93-10.1-4.44-0.37-8.9-1.43-13.34-0.47m27.05 58.79c1.39-1.75 2.16-3.87 3.04-5.9-3.21-0.15-2.22 3.85-3.04 5.9z"/>
  <path d="m132.87 49.18c6.54-0.14 13.29-2 19.66 0.38 0.52 1.14 1.18 2.2 2.23 2.93 0.15 0.94 0.3 1.88 0.44 2.82-2.71 3.99-0.86 9.24-0.28 13.66 0.41 1.91-0.41 4.5 1.7 5.6 0.01 2.31-0.17 4.69 0.59 6.91 4.07 13.09 4.34 27.01 8.43 40.1 1.01 2.88 0.39 5.98 0.96 8.93 1.75 6.77 2.24 13.79 4.32 20.48-0.43 10.35 4.11 20.1 4.15 30.4 0.68 1.43 1.2 2.93 1.97 4.31-0.21 1.58-0.51 3.14-0.82 4.7 0.89 1.63 0.57 3.8 2.04 5.13 0.32 1.84-1.08 4.95 1.74 5.23-0.25 2.74-0.69 5.45-1.28 8.13 1.19 0.49 2.39 0.98 3.6 1.47-0.73 0.58-1.49 1.12-2.26 1.63-7.95 1.38-16.02 1.11-24.05 1.04-2.28-1.49-1.8-3.88-1.1-6.12-3.08-6.18-1.73-13.46-3.82-19.95-5.12 0.69-10.12-0.94-15.23-0.72 0.06 6.03-1.59 11.86-2.01 17.84-0.23 2.75-0.97 5.43-1.85 8.03-8.1 1.39-16.45 1.22-24.56 0.09 0.59-9.11 2.02-18.14 2.7-27.24l0.92-1.6c-0.12-3.96 1.06-7.77 1.14-11.72 1.54-2.18 0.03-5.1 1.63-7.25 0.14-2.02 0.05-4.1 0.76-6.03 1.83-5.28 0.44-10.92 1.86-16.27 1.1-5.37 1.39-10.91 3.12-16.14 1.54-3.98 0.07-8.37 1.51-12.38 1.9-2.65 0.2-6.18 1.46-9.08 1.54-4.08-0.59-8.74 1.47-12.64 0.76-3.64-0.58-7.74 1.56-11 0.38-3.12-0.24-6.39 1.05-9.37 1.79-4.79 1.52-9.99 1.47-15.01-2.77-0.92-0.85-4.12-0.06-5.83 1.63-0.44 3.19-1.09 4.84-1.46m3.23 16.38-0.39 3.63c2.14 0.04 3.72-1.31 5.15-2.74-1.59-0.29-3.18-0.59-4.76-0.89m5.44 56.39c0.93-0.21 2.79-0.64 3.72-0.85-0.28 0.95-0.83 2.86-1.11 3.81-0.83 0.09-2.48 0.26-3.31 0.35 0.65 1.11 1.29 2.22 1.99 3.3 0.05-0.66 0.16-1.97 0.22-2.63 1.41 0.42 2.83 0.82 4.26 1.17-0.39-1.29-1.01-2.46-1.85-3.5 0.56-1.09 1.52-3.14-0.45-3.5-1.57-1.27-2.64 0.95-3.47 1.85m-0.09 8.05c-0.75 6.34-1.27 12.73-2.61 18.98-1.94 6.79 0.49 14.05-2.03 20.76 1.62 0.64 3.28 1.37 3.56 3.32 1.79-0.59 3.61-1.06 5.49-1.27-0.17-0.54-0.52-1.6-0.69-2.13-0.61-1.94 2.11-1.37 3.14-1.93-0.38-4.02-0.38-8.06-0.58-12.08-0.31-0.24-0.95-0.71-1.27-0.95-0.36-2.82-2.94-5.56-0.5-8.1-2.78-2.5 1.15-5.67-0.09-8.49-0.91-2.12-2.26-4.14-2.01-6.56 0.91-0.87 1.8-1.77 2.66-2.69-1.76 0.06-3.48 0.39-5.07 1.14z"/>
  <path d="m270.45 48.49c6.17-0.15 12.38 0.34 18.53-0.44 1.73-0.09 3.44 0.42 4.82 1.48 1.66-1.37 3.64-1.22 5.52-0.44 5.16-1.42 10.54-0.58 15.79-1.13 0.02 0.74 0.04 2.24 0.05 2.98 2.31-0.2 3.67 1.18 2.17 3.23 1.1-0.4 2.2-0.8 3.31-1.21-0.03 2.23 1.44 3.04 3.46 3.12 0.02 2.45 0.09 4.9 0.15 7.35-10.37-0.04-20.73 0.32-31.09-0.05-0.25 2.84-0.83 5.7-0.31 8.54 0.55 11.35 0.45 22.73 0.18 34.09 0.02 5.25-0.47 10.62 1.08 15.72 4.55-0.84 9.21-0.51 13.75-1.41 1.6-0.26 3.33-0.64 4.78 0.39 2.38-1.25 4.78 0.26 7.19 0.62-0.14 4.86 0.12 9.72-0.18 14.58-8.89 0.26-17.84-2.2-26.62 0.27 0.44 5.73-0.8 11.66 0.77 17.24-1.43 2.48-0.24 5.34 0.1 7.95-1.72 2.74-0.23 6.02 0.02 8.98-2.52 4.35 1.19 9.59-0.66 14.11-1.02 2.45 0.4 4.99 0.7 7.45 0.83 1.82-2.49 3.34-0.77 4.92 3.44 0.37 7.13-0.64 10.35 0.99 1.83-1.84 4.34-0.23 6.43 0.08 5.18-0.04 10.47-0.15 15.54 1.09-0.18 3.49-0.95 7.07-3.37 9.74 2.17-0.14 2.38 1.48 2.27 3.26-12.78-0.02-25.56 0.07-38.34-0.03-3.4-0.41-6.88-0.38-10.08 0.97-1.44-0.48-2.89-0.9-4.35-1.27-0.16-1.44 0.36-3.25-1.16-4.11 0.39-0.81 1.1-1.52 1.05-2.48 0.28-6.98-0.38-14 0.35-20.96-0.83-11.34 0.06-22.73-0.24-34.09-0.04-4.39-1.1-8.71-0.94-13.1 1.45-2.98 1.22-6.7 0.16-9.78 0.11-1.79 0.26-3.59 0.42-5.38-1.33-3.89 1.38-8.05-0.45-11.77 0-1.85-0.12-3.73 0.37-5.54-0.12-0.6-0.35-1.81-0.47-2.41-0.08-12.35-0.04-24.7-0.04-37.05-0.07-4.58 1.09-9.56-1.38-13.75 0.38-0.92 0.75-1.84 1.14-2.75m37.82 5.98c-0.31 0.34-0.94 1.01-1.25 1.35 0.74 0.04 2.23 0.12 2.98 0.16 0-0.82 0.01-2.46 0.01-3.27 1.64 0.93 3.26 1.89 4.91 2.8 0.1-2.88-3.59-3.2-5.14-5.05-1.32 0.96-1.57 2.48-1.51 4.01m0.07 146.67c-0.01 1.58-0.03 3.15-0.05 4.73 0.62 0.06 1.88 0.18 2.51 0.24-0.85-1.62-0.31-3.35 0.09-5-0.63 0.01-1.91 0.03-2.55 0.03m4.59-0.25c0.95 2.64 1.95 5.32 3.64 7.61 0.47-2.01-0.26-5.18 2.85-4.76l0.08 2.68c0.74-1.57 1.52-3.11 2.33-4.64-3-0.05-5.9-1.54-8.9-0.89z"/>
  <path d="m316.63 47.9c1.41 0.5 2.82 1.01 4.24 1.53 0.04 0.57 0.13 1.73 0.17 2.3-1.93-0.66-4.16-1.46-4.41-3.83z"/>
  <path d="m614 48.08c6.25 0.7 13.88-1.68 18.91 3.16 0.04 4.75 0.42 9.46 1.99 14-0.38 0.2-1.15 0.61-1.54 0.81-0.62 7.2-1.8 14.36-1.97 21.59 1.18 0.56 2.37 1.12 3.57 1.67-0.1 2.25 0.22 4.76-1.72 6.36 0.38 0.6 1.13 1.79 1.51 2.39-0.25 4.59-0.95 9.15-1.67 13.69 0.08 7.1 1.4 14.1 2.37 21.12 0.75 4.71 0.28 9.51 0.86 14.24-0.64-0.16-1.91-0.49-2.55-0.65 0 1.06 0 3.18 0.01 4.24 0.36-0.09 1.09-0.26 1.46-0.35 0.37 0.73 1.12 2.2 1.49 2.94-0.51 0.31-1.54 0.93-2.06 1.24-0.24 2.14-0.43 4.28-0.6 6.42 0.45 0.02 1.35 0.07 1.79 0.09 0.91 4.93-0.33 9.89 0.1 14.85-0.65 0.08-1.95 0.24-2.61 0.32 0.85 0.76 1.72 1.51 2.61 2.24 0.38 16.91-1.93 33.79-0.72 50.7 1.02 4.54 0.38 9.2 0.9 13.78 1.76 4.9 8.2 1.78 11.48 4.74 4.12 0.63 8.31-1.87 12.26 0.15 3.68 1.37 4.26 5.79 4.22 9.21 0.19 5.94 0.09 13.11-5.38 16.85-6.87 2.68-14.39 1.49-21.57 1.72-0.5 1.62-0.98 3.24-1.41 4.87 0.75-0.31 2.26-0.95 3.01-1.26-0.09 0.69-0.27 2.09-0.36 2.79-0.62-0.01-1.87-0.04-2.49-0.05 0.47 6.32 0.18 12.69 1.05 18.99 0.33 3.01-0.91 5.99-0.22 8.99 0.17 3.41 2.31 6.5 1.69 9.97 0.95 0.49 1.92 0.98 2.89 1.46-0.8 2.43-1.47 5.73-4.28 6.5-3.63 0.27-7.26 0.48-10.85 1.06 0.04 0.77 0.13 2.3 0.17 3.07 2.95-0.79 5.75-2.01 8.61-3.09 2.01 1.37 0.83 3.43 0.01 5.13-12.19 0.15-24.35-0.32-36.48-1.56-2.03-19.5-0.01-39.1 0.05-58.64-2.13 0.49-4.25 1.03-6.4 1.4-0.01 0.44-0.03 1.33-0.04 1.77-6.49-0.04-12.98 0.08-19.47-0.07-0.83-1.33-1.78-2.57-2.77-3.76-2.86 3.04-7.27 2.82-11.1 2.55-0.03 0.61-0.08 1.84-0.11 2.45-0.77-0.25-2.32-0.77-3.1-1.03 0.98-0.6 2.93-1.81 3.91-2.41-1.4-0.3-2.79-0.57-4.18-0.81 0.22 0.51 0.67 1.52 0.89 2.03-1.48 1.5-2.83 3.34-5.18 3.31 0-1.4 0-2.79 0.01-4.19-3.91 0.95-7.95 1.58-11.97 1.29-4.38-0.27-8.19-2.7-12.4-3.67 0.04-12.37 0.02-24.73 0.02-37.09 0.57-0.04 1.72-0.1 2.29-0.13 0-3.91 0.04-7.83 0.07-11.74 0.5 0.03 1.49 0.09 1.99 0.11 0-1.94 0-3.89 0.01-5.84h1.97c0.32-1.93-1.04-5.06 1.76-5.45 0.05-2.44 0.17-4.88 0.28-7.32 0.49 0.02 1.49 0.06 1.99 0.09 0.02-0.75 0.05-2.23 0.07-2.97 0.44 0.02 1.32 0.08 1.76 0.11 2.13-6.74 2.28-14.38 6.45-20.29 0.4-0.02 1.22-0.04 1.62-0.05-0.01-4.46 0.81-8.85 2.36-13.02 0.44 0.03 1.3 0.08 1.74 0.11-0.02-1.73-0.03-3.46-0.03-5.19 0.52-0.01 1.57-0.03 2.1-0.04-0.01-3.31 0-6.62-0.03-9.93 0.56-0.02 1.68-0.06 2.24-0.07-0.02-1.74-0.03-3.48-0.03-5.21 0.57 0.01 1.7 0.02 2.27 0.03-0.01-0.78-0.03-2.32-0.04-3.09 3.68-1.7-0.44-8.7 4.4-9.06-0.01-0.52-0.03-1.57-0.04-2.1 0.96-0.55 1.56-1.34 1.78-2.39 0.94-3.92 1.54-7.91 2.55-11.82 0.39-0.22 1.17-0.66 1.57-0.88-0.03-0.75-0.08-2.24-0.1-2.98l2.12-0.04c0.02-0.63 0.07-1.9 0.09-2.53 0.9-1.83 0.64-4.29 2.49-5.51 0.19-3.11 0.23-6.48 2.59-8.83 0.03-1.77 0.05-3.55 0.09-5.32h1.7c0.4-1.15 0.86-2.29 1.37-3.4 0.08-1.66 0.12-3.32 0.16-4.98 1.19-0.32 1.92-1.08 2.21-2.28 3.3-10.4 6.69-20.77 10.07-31.14 1.72-0.24 3.47-0.17 5.21-0.2 0.18-0.84 0.54-2.53 0.72-3.37 1.52-0.1 2.71 0.36 3 2.02 2.07-0.37 5.38 1.03 5.9-1.94 1.26-0.02 2.53-0.03 3.81-0.04-0.1 0.52-0.3 1.56-0.41 2.08 1.73-0.01 3.47-0.01 5.21-0.02 0.01-0.72 0.02-2.18 0.03-2.9m-18.04 116.19c-8.89 21.9-16.98 44.13-25.43 66.22-1.23 4.68-0.4 9.64-0.53 14.44 2.85-0.07 5.78 0.2 7.51 2.77 6.1 0.61 12-1.46 18.1-0.8 0.95-2.18 2.14-4.43 1.85-6.89-0.54-4.81-0.93-9.63-1.12-14.47 0.55-0.01 1.66-0.03 2.22-0.05-0.02-3.31-0.02-6.62 0.01-9.93-0.42-0.03-1.26-0.08-1.68-0.1 0.22-4.54-0.11-9.06-0.58-13.57 0.68-0.12 2.04-0.35 2.72-0.46-0.56-0.04-1.66-0.12-2.21-0.15 0.13-0.91 0.41-2.72 0.55-3.63-2.11-1.66-0.54-3.62 1.78-3.46-0.74-0.21-1.47-0.42-2.2-0.64 0.26-3.81-0.93-7.61-0.19-11.4 0.54-2.42-0.27-4.77-0.64-7.14 0.96-3.5 1.17-7.16 1.2-10.77l-1.36 0.03m7.06 163.21c-0.54 1.53 0.05 2.05 1.77 1.58 0.52-1.53-0.07-2.06-1.77-1.58m5.67 0.59c0.48 2.67 2.19 4.82 5.17 4.14 0.24-1.07 0.5-2.12 0.75-3.18-1.91-0.65-3.91-1.03-5.92-0.96z"/>
  <path d="m141.4 168.04c1.58-1.24 2.68 1.71 1.41 2.62-1.56 1.11-2.74-1.71-1.41-2.62z"/>
  <path d="m274.95 226.67c5.22 1.18 10.68-1.53 15.77 0.47 1.77 0.91 1.93 3.09 0.61 4.47 0.35 1.28 0.66 2.58 0.98 3.87 0.76 2.13 1.17 4.36 1.83 6.51 0.82 2.84 1.6 5.69 2.58 8.48 0.23 1.32 0.47 2.65 0.76 3.98-0.11 0.24-0.33 0.73-0.44 0.98 2.07 1.77 2.64 4.54 4.18 6.7-0.62-0.07-1.85-0.22-2.47-0.29 2.35 3.87 2.25 8.93 5.21 12.53 1.72-1.96 0.86-5.44 0.41-7.92 0.27-5.12 0.54-10.32-0.34-15.4-0.62-5.23 1.38-10.68-0.57-15.72 0.86-2.72 1.01-5.52 0.48-8.32 5.05-0.1 10.11-0.18 15.16-0.05 1.15 6.29 0.55 12.68 0.71 19.02 0.38 3.1-1.29 6.08-0.19 9.14-0.59 2.33-0.51 4.73-0.52 7.11-4.9 20.27-9.86 40.53-14.76 60.8-0.46-4.6-1.46-9.49-3.83-13.52 0.09-0.39 0.28-1.17 0.37-1.56-3.3-6.48-4.34-13.75-6.86-20.52-1.17-2.9-1.24-6.06-1.85-9.1l-1.56-0.12c0.41 3.57 0.77 7.28-0.3 10.77 0.2 2.44 0.23 4.89 0.39 7.33 0.29 11.9 0.23 23.81 0.22 35.71-4.79 1.8-10.01 0.62-14.99 0.73 0.44-2.59 1.17-5.19 0.89-7.84-0.54-5.46 0.34-10.95-0.32-16.39 1.02-8.85-1.19-17.8 0.12-26.58-0.39 0.04-1.18 0.13-1.58 0.17 2.47-2.82 0.34-6.64 2.14-9.56-0.34-0.6-0.67-1.2-0.99-1.79 1.31-1.26 0.49-2.72 0.03-4.1 1.2-2.45-0.09-5.17 0.1-7.75-0.94-4.93 0.14-10-1.21-14.87-0.13-5.78-0.33-11.58-0.16-17.37z"/>
  <path d="m32.48 235.53c4.32-6.21 12.17-9.27 19.58-8.67 7.14 0.01 15.24 3.04 18.25 9.98 2.18-2.01 0.37-6.03 0.91-8.78 13.87 0.05 27.75-0.26 41.63 0.03 0.08 2.89 0.31 5.81-0.16 8.68-3.75 2.24-8.69-0.04-12.85 0.97-0.22 0.91-0.41 1.82-0.59 2.74 1.37 2.26 0.55 5.01 0.76 7.5-0.27 10.79 0.59 21.82-0.64 32.47-0.14 1.73-0.32 3.44-0.44 5.18-2.36-0.06-4.96-0.7-6.73 1.3 1.41 1.73-0.33 3.18-2.02 3.55 0.08-1.66-0.05-3.32-0.3-4.95-0.51 0.3-1.54 0.89-2.05 1.18 0.71 1.75 1.45 3.5 2.21 5.24 0.77 0.01 2.32 0.03 3.09 0.04-0.44 1.26-1.03 2.49-1.17 3.84 2.6 1.84 4.05-1.42 5.61-2.96-0.56-0.36-1.67-1.09-2.22-1.45 0.19-0.41 0.58-1.21 0.77-1.62 1.32 0.33 2.63 0.72 3.91 1.21-0.94 3.6-1.39 7.41-0.57 11.08 0.64 2.73 0.82 5.6 0.01 8.32 1.27 1.98-0.98 4 0.08 6.01 0.84 2.48-0.03 5.08-0.08 7.62-0.27 2.95 0.72 5.82 0.85 8.76-5.47 1.08-11.01-0.57-16.41 0.52 0.98-7.42-0.16-14.88 0.21-22.33 0.31-6.51-0.51-13.11 0.59-19.57-1.93-6.08 1.79-12.56-0.65-18.63 1.84-2.43 0.69-5.65 0.74-8.41 1.32 0.31 2.63 0.64 3.94 1.01 0.08-0.26 0.24-0.79 0.32-1.05-1.35-0.25-2.68-0.53-4-0.86 0.28-3.78 0.04-7.57-0.1-11.35 1.6 0.01 3.19 0.01 4.79 0.03 0.21 0.48 0.63 1.43 0.84 1.91 0.72-1.54 1.95-3.03 1.42-4.83-1.28-1.06-2.82-1.71-4.24-2.52-0.47 1.62-1.31 3.09-2.9 3.84 0.07-1.9 0.46-3.74 0.8-5.59-0.52-2.29-0.76-4.63-0.74-6.97-4.56 0.21-9.21-0.41-13.71 0.22-1.47 3.98-0.03 8.79 1.11 12.87-3.52-0.59-6.96 1.38-10.36 0.08-1.6-0.45-3.19 0.31-4.75 0.58-0.86-3.75 1.42-7.77-0.94-11.2-1.39-2.67-4.75-1.86-7.2-1.78-2.9-0.11-3.22 3.26-3.78 5.37 0.35 3.8 0.62 7.74 2.42 11.2 2.18 4.31 2.38 9.42 5.43 13.33 2.05 4.5 5.97 7.81 7.69 12.48 1.18 2.52 2.99 4.74 3.66 7.5 1.33 1.77 2.4 3.73 2.77 5.94 0.82 1.99 1.54 4.02 2.58 5.91 1.65 6 2.05 12.24 2.35 18.4 0.01 4.1-2.72 7.09-5.45 9.77-4.08 1.97-7.93 4.82-12.59 5.18-6.91 0.25-14.13-1.78-19.08-6.82-1.15-1.25-1.47-2.95-1.57-4.59-0.54-0.81-1.07-1.64-1.59-2.46 1.46 0.92 2.88 1.92 4.41 2.74 1.56-2.1 4.31-2.51 6.31-4.03-0.86-0.37-2.59-1.12-3.45-1.49 0.41-1.46 0.71-2.94 0.89-4.44 0.42 0.25 1.26 0.76 1.68 1.01 1.33-0.41 2.68-0.71 4.05-0.95 0.63 3.51 0.24 8.35 4.25 9.96 3.27 0.38 7.12-2.08 6.82-5.7 0.04-5.68-1.39-11.38-3.5-16.62-0.31-1.81-0.86-3.57-2.09-4.97-0.32-1.71-0.69-3.39-1.14-5.06-1.13-1.13-1.87-2.54-2.37-4.05-1.25-1.56-2.41-3.17-3.62-4.76-2.16-4.17-5.27-7.88-6.56-12.46-0.33-0.31-0.99-0.92-1.32-1.23-1.83-4.41-3.5-8.86-4.91-13.42-0.31-2.02-0.66-4.02-0.92-6.04-0.46-4.32-1.24-9.48 2.03-12.94m53.9 2.7c-0.03 0.79-0.08 2.38-0.1 3.17 1.25-1.22 2.43-2.52 3.54-3.86-1.15 0.21-2.3 0.44-3.44 0.69m1.69 7.1c0.34 3.3 2.98-1.8 0 0m-0.9 11.3c-0.92 1.41 1.67 2.49 2.6 1.49 0.86-1.45-1.66-2.35-2.6-1.49m0.11 3.62c0.01 0.4 0.03 1.19 0.05 1.58 2.82 2.2 2.56-4.26-0.05-1.58m-0.75 9.53c0.15 0.57 0.43 1.73 0.58 2.31-1.49 1.57-0.02 3.01 1.08 4.18 0.03-2.23 1.78-6.11-1.66-6.49m5.36 8.68c-0.25 2.46 2.1 2.56 3.91 3.02-0.18-0.94-0.36-1.88-0.53-2.81-1.13-0.08-2.25-0.15-3.38-0.21m0.29 26.66c-1.61 2.96 3.29 0.27 0 0m-55.49 21.91c0.75-0.01 2.26-0.02 3.01-0.03 0.86-1.03 1.72-2.07 2.57-3.1-2.51-0.86-3.83 1.9-5.58 3.13z"/>
  <path d="m193.13 228.13c2.28-0.11 4.51-0.6 6.75-1 2.38 0.12 4.77 0.46 7.09-0.23 1.09 4.61 0.83 9.42 1.17 14.13-1.06 7.28 0.37 14.6 0.17 21.92-0.22 23.25 0.31 46.48 0.87 69.72-5.27-0.68-10.58-0.11-15.86 0.17-1.63-3.42 0.12-7.24 0.36-10.81-1.62-12.24 0.16-24.64-0.42-36.94-0.37-2.65 0.87-5.26 0.19-7.89-0.08-1.39-0.18-2.79-0.29-4.18 1.76-0.06 3.53-0.11 5.3-0.28-1.68-1.72-4.28-1.13-6.41-1.58 0.75-1.15 1.51-2.29 2.28-3.43-0.68-1.23-1.18-2.55-1.61-3.87 1.56-0.27 2.62 0.3 3.18 1.69 0.27-0.17 0.8-0.52 1.07-0.69l-1.2-3.3c-0.56 0-1.68-0.02-2.24-0.03-0.16-2.11-1.13-5.05 1.21-6.31 1.28 0.53 2.48 1.24 3.79 1.71 0.15-1.43-0.02-2.83-1.58-3.36 0.71-1.35 1.15-2.82 1.46-4.31-1.41-0.22-2.35-0.97-2.82-2.25 0.78 0.22 2.35 0.67 3.13 0.89 0.27-2.12-0.91-3.35-2.68-4.12-0.79 2.14-1.18 4.39-1.58 6.63-1.88-1.94-1.41-4.86-1.82-7.31 1.02-4.97-0.25-9.99 0.49-14.97m4.19 6.08c0.5 0.59 0.5 0.59 0 0m-2.12 0.9c-0.43 1.01-0.87 2.03-1.3 3.04 1.1-0.04 2.2-0.07 3.3-0.12-0.67-0.98-1.34-1.95-2-2.92m-1.13 21.67c0.28 1 0.57 2.01 0.85 3.02 1.42 0.24 2.84 0.53 4.25 0.85-0.51-2.57-2.84-3.37-5.1-3.87m0.49 23.56c0.85 0.54 1.71 1.1 2.57 1.66h-2.44c0.75 0.98 1.49 1.96 2.24 2.95 2.74-2.4-0.75-4.28-0.86-6.76-0.5 0.71-1.01 1.43-1.51 2.15z"/>
  <path d="m235.62 227.29c6.08-1.01 12.21-0.01 18.02 1.87 2.78 1.79 6.3 3.1 7.94 6.15 0.55 3.55 1.61 7.05 1.58 10.67 0.59 5.14-0.05 10.32 0.43 15.45-0.46 5.82 0.04 11.66-0.04 17.48-0.02 2.21-0.7 4.65 0.66 6.62-1.05 2.98-0.62 6.22-0.36 9.31-0.92 5.74 1.01 11.37 0.63 17.12-0.49 1.59 2.56 4.34-0.6 4.34-0.15 1.95-0.3 3.9-0.46 5.86-1.64 1.81-2.41 4.7-5.13 5.15-3.74 3.25-8.79 3.69-13.24 5.42-2.61 0.34-5.67 0.2-7.69-1.73-2.61 0.26-5.29 0.43-7.8-0.51-2.4-1.19-4.74-2.52-6.84-4.19-1.08-2.25-2.59-4.46-2.58-7.03-2.03-1.56 0.88-3.63-1.07-5.26 0.52-0.07 1.57-0.22 2.1-0.3-0.59-1.06-2.01-1.83-1.83-3.18 1.28-0.57 2.63-1 3.97-1.45-1.3-0.53-3.54-0.42-3.86-2.13-0.03-1.49 0.16-2.96-0.01-4.43l-0.68-2.88c1.76-2.86 0.45-6.39 0.47-9.53-0.96-4.92 0.41-9.87-0.48-14.78-0.95-10.76-0.46-21.58-0.51-32.36-0.33-3.8 2.15-6.97 4.22-9.88 1.74-0.79 3.59-0.93 5.45-0.51 0.23-0.25 0.69-0.74 0.91-0.98h-2.3c1.86-3.44 5.96-3.06 9.1-4.31m-1.82 13.73c-0.01 4.24 0.83 8.48 0.16 12.71 0.43 10.73 0.13 21.48-0.22 32.2 1.02 7.29 0.27 14.66 0.75 21.98 0.16 2.89-0.24 6.02 1.27 8.64 0.04 0.63 0.13 1.89 0.17 2.52 2.91 3.83 8.13 2.58 11.9 0.89 0.15-2.5 0.05-5.05 0.75-7.48 0.9-3.84-0.17-7.84 0.83-11.69-1.07-7.54-1.2-15.18-1.4-22.78 0.12-11.7-0.51-23.4-0.75-35.1-0.07-2.75-2.27-5.8-5.3-5.42-2.93 0.11-6.9 0.36-8.16 3.53m-9.54 74.88c1.37 0.2 1.92-0.38 1.66-1.76-1.36-0.2-1.92 0.38-1.66 1.76m-2.22 2.29c-1.27 3.17 3.25-0.15 0 0m35.58 1.85c-0.07 3.29 3.03-1.34 0 0z"/>
  <path d="m123.55 228.07c4.11 0.02 8.25-0.4 12.35 0.13 1.56 0.95 2.74 2.95 1.65 4.74-1.42 3.46 0.57 6.95 0.72 10.46 2.26 8.84 3.61 17.93 5.39 26.89 1.46 4.1 1.23 8.47 2.27 12.66 0.53 4.07 1.99 7.98 2.12 12.11 0.13 3.69 1.28 7.23 1.86 10.86 0.62 2.94 0.17 6.2 1.99 8.8-0.14 0.59-0.43 1.76-0.57 2.35 1.53 3.7 2.45 7.67 1.75 11.67 0.56 0.31 1.68 0.94 2.24 1.25-5.1 2.09-10.98 1.59-16.41 1.52-0.36-0.36-1.07-1.08-1.43-1.44 0.49-4.98-1.99-9.74-1.74-14.77-3.31-0.05-6.59-0.55-9.89-0.72-0.56 5.54-0.86 11.22-2.56 16.57-5.11 0.39-10.24 0.44-15.34-0.06 0.45-6.28 0.94-12.62 2.14-18.79 2.41-12.34 2.65-24.99 5.78-37.19 0.29-2.55 0-5.19 0.94-7.63 0.2-1.73 0.13-3.52 0.93-5.11 0.03-5.51 1.06-10.94 1.68-16.4 0.16-3.72 2.1-7.2 1.56-10.98 0-1.65-1.18-3.16-0.81-4.8 0.97-0.93 2.26-1.41 3.38-2.12m2.59 10.39c-1.65 1.03-0.13 3.91 1.58 2.4 2.08-0.91-0.07-3.17-1.58-2.4m3.59 34.32c1.79 1.58 2.03 3.79-0.95 3.77 0.47 0.78 0.96 1.55 1.45 2.33l-1.1 0.94c-0.11 4.06-0.72 8.07-1.57 12.04-1.04 4 0.18 8.18-1.01 12.18 0.79 0.7 1.57 1.4 2.36 2.11 0.72-0.11 2.17-0.33 2.89-0.44 0.06-0.67 0.17-2.03 0.23-2.71h1.62c-0.31-3.07 0.24-6.38-1.39-9.17-2.14-3.24 1.15-7.04-0.58-10.39-1.48-2.22 1.16-5-1.4-6.73l2.66 0.64c-0.62-1.34-0.82-2.74-0.62-4.18-0.64-0.1-1.94-0.29-2.59-0.39z"/>
  <path d="m147.36 228.07c13.86 0.01 27.72-0.21 41.58-0.02-0.01 3.11 0.55 6.37-0.46 9.39-4.33 0.64-8.71-0.19-13.05 0.28 0.4 3.08 0.7 6.19 0.62 9.31-0.11 9.35 0.15 18.71-0.14 28.06-0.21 1.93 0.25 3.99-0.71 5.78 0.18 0.09 0.56 0.27 0.74 0.36-0.72 1.37-1.1 2.84-1.16 4.41-2.75-0.38-5.52-0.35-7.47 1.92 2.44-0.27 8.44-3.24 7.75 1.5-1.44-0.03-2.74-0.62-4.03-1.16-1.44 0.95-2.92 1.84-4.45 2.63-0.11-1.64 0.47-5.59-2.43-4.43-0.14 2.04 1.37 3.75 2 5.62l3.2 0.44c-0.51 1.25-1.04 2.49-1.55 3.75 2.86 1.44 4.41-1.22 6.03-3.03-1.6-0.44-2.21-1.37-1.85-2.8 1.46-0.14 2.85 0.28 4.16 0.88-1.57 6.37 0.47 12.78-0.35 19.19 0.15 1.55-0.2 3.08-0.42 4.61 1.47 5.62-0.32 11.49 1.25 17.13l-0.62 0.83c-5.38 1.35-10.84-0.55-16.19 0.5 1.92-6.26 0.24-12.77 0.65-19.17 0.3-7.36-0.17-14.73 0.4-22.08-0.48-2.29-1.18-4.6-0.35-6.91 1.36-4.96-0.36-10.04 0.43-15.02 0.34-5.98 0.7-11.96 0.07-17.93 1.93 0.36 4.84-0.99 5.72 1.57 0.54-1.17 2.28-2.13 1.43-3.59-0.35-2.01-2.89-2.39-4.24-3.6-0.38 1.69-1.03 3.37-2.79 4.04-0.02-0.89-0.07-2.68-0.1-3.57 0.34-0.4 1.01-1.19 1.34-1.59-1.5-2.19-1.36-4.85-1.35-7.37-4.56-0.01-9.12 0.04-13.69-0.05 0.05-3.3 0.05-6.59 0.03-9.88m15.55 9.95c-0.25 1.1-0.48 2.2-0.7 3.32 1.48-1.05 2.77-2.34 3.92-3.74-1.07 0.13-2.15 0.26-3.22 0.42m1.28 7.28c0.3 3.31 3.02-1.7 0 0m-0.91 11.3c-0.75 1.43 1.75 2.47 2.71 1.51 0.81-1.44-1.77-2.32-2.71-1.51m0.18 3.67c0 0.38-0.01 1.15-0.01 1.53 2.8 2.12 2.78-4.27 0.01-1.53m-0.45 4.37c0.8 1.23 1.52 1.22 2.16-0.01-0.78-1.26-1.49-1.25-2.16 0.01m0.39 4.88c-0.24 1.46-0.47 2.94-0.71 4.42 0.63 0.96 1.28 1.93 1.91 2.9-0.3-2.45 1.31-5.68-1.2-7.32m7.79 6.69c0.57 0.66 0.57 0.66 0 0m-3.86 2.69c1.22 1.89 3.39 2.24 5.38 2.81-0.56-1.03-1.08-2.08-1.69-3.06-1.23-0.27-2.48 0.11-3.69 0.25z"/>
  <path d="m193.49 251.06c2.29-0.99 2.2 2.67 0.39 3.12-2.01 0.78-1.58-2.54-0.39-3.12z"/>
  <path d="m98.17 286.17c0.43 1 0.81 2 1.18 3.04-1.75-0.3-3.62-0.55-5.16-1.51 0.41-1.44 2.93-0.82 3.98-1.53z"/>
  <path d="m505.15 300.67c0.82-0.73 3.09 0 2.47 1.31-0.85 0.94-3.04-0.02-2.47-1.31z"/>
  <path d="m129.11 303.26c3.27 0.06-1.42 3.12 0 0z"/>
  <path d="m32.06 315.93c-0.46-1.99 1.01-3.03 2.78-3.19l-0.82 1.76c0.66 0.24 1.98 0.73 2.64 0.97-1.42-0.04-3.53 2.16-4.6 0.46z"/>
  <path d="m37.04 314.02c3.01-1.54 0.16 3.3 0 0z"/>
  <path d="m280.47 336.45c1.08-0.43 1.94-0.13 2.56 0.91-0.06 1.88-3.32 0.56-2.56-0.91z"/>
 </g>
</svg>
