<svg width="800" height="453.11" version="1.1" viewBox="0 0 211.67 119.88" xmlns="http://www.w3.org/2000/svg">
 <defs>
  <clipPath id="a">
   <path d="m999.92 294.85h43.207v24.288h-43.207z"/>
  </clipPath>
  <clipPath id="b">
   <path d="m999.92 294.56h66.613v24.584h-66.613z"/>
  </clipPath>
 </defs>
 <g transform="translate(24.573 -33.233)">
  <g transform="matrix(4.9358 0 0 -4.9358 -4960 1608.5)" fill="#fff">
   <g clip-path="url(#b)" fill="#fff">
    <g transform="translate(1014.3 310.39)">
     <path d="m0 0v-2.104c-1.277-0.911-1.944-1.039-2.475-1.039-0.627 0-1.017 0.376-1.017 0.99 0 0.35 0 1.001 0.617 1.322 0.462 0.241 2.28 0.688 2.875 0.831m1.769 2.408c0 1.434-1.149 2.325-2.997 2.325-1.441 0-2.571-0.405-3.1-1.111l-0.087-0.117 0.112-0.094c0.925-0.78 0.932-0.78 1.004-0.779l0.068 1e-3 0.046 0.05c0.311 0.342 1.137 0.553 1.724 0.553 1.212 0 1.461-0.331 1.461-0.828v-1.018c-0.437-0.084-1.919-0.376-3.045-0.689-1.314-0.366-2.197-1.571-2.197-2.999 0-1.46 0.996-2.44 2.479-2.44 0.746 0 1.651 0.373 1.926 0.493 0.291 0.128 0.642 0.283 1.013 0.562l0.147-0.804h1.607l-0.161 1.736z" fill="#fff"/>
    </g>
    <g transform="translate(1001.7 311.69)">
     <path d="m0 0h2.01c1.685 0 2.691-0.802 2.691-2.144 0-0.647-0.38-1.267-0.73-1.567-0.417-0.344-0.856-0.444-1.961-0.444h-2.01zm3.589 2.256c-0.381-0.381-0.809-0.51-1.694-0.51h-1.895v3.791h2.01c0.948 0 1.385-0.108 1.675-0.415 0.166-0.166 0.551-0.629 0.551-1.347 0-0.546-0.242-1.114-0.647-1.519m0.639-1.223c1.152 0.558 1.826 1.604 1.826 2.876 0 0.909-0.391 1.818-1.047 2.433-0.662 0.602-1.376 0.825-2.633 0.825h-4.179v-11.35c1e-3 -0.016 0.07-1.603 1.819-1.603h2.935c2.144 0 3.584 1.417 3.584 3.527 0 1.659-0.833 2.836-2.305 3.292" fill="#fff"/>
    </g>
    <g transform="translate(1021.1 307.32)">
     <path d="m0 0c-1.217 0-2.1 1.203-2.1 2.861 0 2.014 1.069 3.264 2.789 3.264 0.563 0 1.289-0.111 1.558-0.646 0.13-0.25 0.151-0.401 0.151-1.081v-2.962c-0.36-0.457-0.555-0.656-0.85-0.871-0.481-0.354-1.06-0.565-1.548-0.565m4.123 11.819h-0.652c-0.01-1e-3 -1.073-0.054-1.073-1.356v-3.097c-0.503 0.318-1.065 0.451-1.858 0.451-2.583 0-4.458-2.092-4.458-4.975 0-2.658 1.512-4.515 3.676-4.515 0.992 0 1.931 0.404 2.676 1.145l0.093-0.895h1.596z" fill="#fff"/>
    </g>
    <g transform="translate(1030.4 313.53)">
     <path d="m0 0c1.065 0 1.658-0.609 1.722-1.765h-3.902c0.339 1.156 1.089 1.765 2.18 1.765m0.038-7.875c1.157 0 1.912 0.252 3.232 1.08l0.12 0.075-0.72 1.417-0.146-0.101c-0.913-0.633-1.442-0.837-2.178-0.837-1.64 0-2.637 1.152-2.687 3.091h5.953v1c0 2.252-1.413 3.765-3.516 3.765-2.551 0-4.265-1.907-4.265-4.745s1.691-4.745 4.207-4.745" fill="#fff"/>
    </g>
    <g transform="translate(1037 311.32)">
     <path d="m0 0c1.462 1.603 2.358 2.229 3.188 2.229 0.346 0 0.637-0.146 0.739-0.362 0.084-0.219 0.124-0.385 0.124-0.962v-6.32h1.749v6.666c0 1.708-0.821 2.574-2.439 2.574-0.857 0-1.763-0.337-2.422-0.899-0.357-0.292-0.542-0.466-0.939-0.905v1.574h-1.75v-9.01h1.75z" fill="#fff"/>
    </g>
   </g>
  </g>
  <g transform="matrix(4.9358 0 0 -4.9358 -4960 1608.5)" stroke="#fff">
   <g clip-path="url(#a)" stroke="#fff">
    <g transform="translate(1039.8 305.18)" stroke="#fff">
     <path d="m0 0s-0.851-0.021-1.18-1.173l-1.329-4.844h-0.026l-1.646 6.017h-11.742v-2.965h2.989v-7.082h3.395v7.082h2.653l2.223-7.082h3.933l3.268 10.047z" fill="none" stroke="#fff" stroke-miterlimit="10" stroke-width=".568"/>
    </g>
   </g>
  </g>
 </g>
</svg>
