<svg width="223.86" height="85.949" version="1.1" viewBox="0 0 59.229 22.741" xmlns="http://www.w3.org/2000/svg">
 <defs>
  <clipPath id="a">
   <path d="m222.58 189.18h175.84v69.187h-175.84z"/>
  </clipPath>
 </defs>
 <g transform="translate(-31.208 -124.82)">
  <g transform="matrix(.35278 0 0 -.35278 -47.553 215.97)">
   <g clip-path="url(#a)">
    <g fill="#00a5dd">
     <path d="m226.52 212.22h-1.267v-1.615h1.267c0.558 0 0.871 0.343 0.871 0.811 0 0.469-0.313 0.804-0.871 0.804m-0.075 2.241h-1.192v-1.519h1.192c0.513 0 0.864 0.269 0.864 0.76s-0.351 0.759-0.864 0.759m0.149-4.578h-2.145v5.301h2.064c0.982 0 1.6-0.558 1.6-1.452 0-0.573-0.358-0.983-0.714-1.125 0.408-0.164 0.796-0.559 0.796-1.228 0-0.976-0.664-1.496-1.601-1.496"/>
     <path d="m231.38 212.6c-0.119 0.283-0.387 0.477-0.745 0.477-0.357 0-0.632-0.194-0.752-0.477-0.074-0.171-0.089-0.282-0.097-0.513h1.698c-8e-3 0.231-0.03 0.342-0.104 0.513m-1.594-1.042c0-0.648 0.342-1.058 0.96-1.058 0.426 0 0.649 0.12 0.917 0.389l0.484-0.456c-0.388-0.387-0.752-0.586-1.416-0.586-0.945 0-1.696 0.497-1.696 1.935 0 1.221 0.632 1.928 1.6 1.928 1.014 0 1.601-0.743 1.601-1.817v-0.335z"/>
     <path d="m235.26 212.77c-0.172 0.172-0.305 0.254-0.566 0.254-0.41 0-0.753-0.328-0.753-0.849v-2.293h-0.759v3.776h0.744v-0.41c0.194 0.268 0.582 0.454 1.006 0.454 0.364 0 0.64-0.096 0.9-0.359z"/>
     <path d="m237.39 209.89c-0.721 0-1.035 0.483-1.035 1.042v4.259h0.76v-4.215c0-0.289 0.104-0.44 0.409-0.44h0.335v-0.646z"/>
     <path d="m238.62 213.66h0.76v-3.775h-0.76zm-0.021 1.547h0.803v-0.804h-0.803z"/>
     <path d="m242.82 209.89v2.3c0 0.588-0.334 0.842-0.759 0.842s-0.781-0.261-0.781-0.842v-2.3h-0.76v3.775h0.745v-0.38c0.26 0.282 0.624 0.424 1.005 0.424 0.386 0 0.708-0.127 0.931-0.342 0.289-0.283 0.378-0.64 0.378-1.064v-2.413z"/>
     <path d="m244.58 211.6h2.174v0.706h-2.174z"/>
     <path d="m249.94 212.22h-1.265v-1.615h1.265c0.559 0 0.872 0.343 0.872 0.811 0 0.469-0.313 0.804-0.872 0.804m-0.074 2.241h-1.191v-1.519h1.191c0.513 0 0.865 0.269 0.865 0.76s-0.352 0.759-0.865 0.759m0.148-4.578h-2.143v5.301h2.062c0.984 0 1.602-0.558 1.602-1.452 0-0.573-0.359-0.983-0.715-1.125 0.409-0.164 0.797-0.559 0.797-1.228 0-0.976-0.663-1.496-1.603-1.496"/>
     <path d="m254.73 212.77c-0.171 0.172-0.306 0.254-0.565 0.254-0.41 0-0.753-0.328-0.753-0.849v-2.293h-0.759v3.776h0.745v-0.41c0.193 0.268 0.58 0.454 1.005 0.454 0.365 0 0.64-0.096 0.9-0.359z"/>
     <path d="m257.8 211.55h-0.884c-0.448 0-0.679-0.201-0.679-0.543s0.216-0.537 0.692-0.537c0.29 0 0.507 0.023 0.707 0.216 0.114 0.113 0.164 0.292 0.164 0.559zm0.015-1.667v0.342c-0.276-0.276-0.536-0.386-1.004-0.386-0.469 0-0.782 0.11-1.013 0.341-0.193 0.2-0.298 0.491-0.298 0.811 0 0.634 0.439 1.088 1.302 1.088h0.998v0.269c0 0.475-0.238 0.707-0.826 0.707-0.417 0-0.618-0.096-0.827-0.364l-0.498 0.469c0.357 0.415 0.729 0.542 1.356 0.542 1.034 0 1.555-0.438 1.555-1.296v-2.523z"/>
     <path d="m261.96 209.89v2.3c0 0.588-0.334 0.842-0.759 0.842-0.424 0-0.782-0.261-0.782-0.842v-2.3h-0.76v3.775h0.745v-0.38c0.261 0.282 0.626 0.424 1.005 0.424 0.389 0 0.708-0.127 0.931-0.342 0.291-0.283 0.38-0.64 0.38-1.064v-2.413z"/>
     <path d="m265.18 213.03c-0.685 0-0.789-0.581-0.789-1.25 0-0.67 0.104-1.258 0.789-1.258 0.686 0 0.783 0.588 0.783 1.258 0 0.669-0.097 1.25-0.783 1.25m0.796-3.142v0.402c-0.281-0.342-0.587-0.446-0.997-0.446-0.379 0-0.715 0.127-0.923 0.335-0.379 0.379-0.424 1.027-0.424 1.601 0 0.573 0.045 1.213 0.424 1.592 0.208 0.209 0.537 0.336 0.916 0.336 0.401 0 0.714-0.096 0.991-0.425v1.907h0.759v-5.302z"/>
     <path d="m270.01 212.6c-0.119 0.283-0.387 0.477-0.744 0.477s-0.633-0.194-0.752-0.477c-0.075-0.171-0.089-0.282-0.097-0.513h1.697c-7e-3 0.231-0.03 0.342-0.104 0.513m-1.593-1.042c0-0.648 0.343-1.058 0.96-1.058 0.425 0 0.648 0.12 0.917 0.389l0.484-0.456c-0.388-0.387-0.753-0.586-1.416-0.586-0.945 0-1.697 0.497-1.697 1.935 0 1.221 0.633 1.928 1.601 1.928 1.013 0 1.601-0.743 1.601-1.817v-0.335z"/>
     <path d="m274.11 209.89v2.3c0 0.588-0.337 0.842-0.761 0.842s-0.781-0.261-0.781-0.842v-2.3h-0.759v3.775h0.743v-0.38c0.261 0.282 0.626 0.424 1.006 0.424 0.387 0 0.707-0.127 0.931-0.342 0.29-0.283 0.38-0.64 0.38-1.064v-2.413z"/>
     <path d="m277.51 213.03c-0.687 0-0.79-0.581-0.79-1.25 0-0.67 0.103-1.258 0.79-1.258 0.684 0 0.781 0.588 0.781 1.258 0 0.669-0.097 1.25-0.781 1.25m1.116-2.851c-0.208-0.208-0.543-0.335-0.923-0.335-0.409 0-0.715 0.104-0.998 0.446v-0.402h-0.745v5.302h0.76v-1.907c0.274 0.329 0.588 0.425 0.991 0.425 0.378 0 0.707-0.127 0.915-0.336 0.379-0.379 0.424-1.019 0.424-1.592 0-0.574-0.045-1.222-0.424-1.601"/>
     <path d="m282.28 209.89v0.379c-0.259-0.282-0.624-0.423-1.004-0.423-0.388 0-0.707 0.127-0.932 0.341-0.29 0.284-0.378 0.64-0.378 1.065v2.413h0.76v-2.301c0-0.588 0.334-0.84 0.758-0.84s0.782 0.258 0.782 0.84v2.301h0.759v-3.775z"/>
     <path d="m286.24 212.77c-0.172 0.172-0.306 0.254-0.567 0.254-0.409 0-0.751-0.328-0.751-0.849v-2.293h-0.76v3.776h0.745v-0.41c0.193 0.268 0.581 0.454 1.005 0.454 0.365 0 0.641-0.096 0.901-0.359z"/>
     <path d="m288.48 213.03c-0.685 0-0.774-0.588-0.774-1.184s0.089-1.185 0.774-1.185c0.684 0 0.767 0.589 0.767 1.185s-0.083 1.184-0.767 1.184m-0.089-4.713c-0.574 0-0.939 0.135-1.333 0.498l0.483 0.486c0.238-0.225 0.447-0.336 0.821-0.336 0.639 0 0.885 0.454 0.885 0.961v0.483c-0.276-0.328-0.588-0.431-0.975-0.431-0.381 0-0.694 0.126-0.902 0.334-0.365 0.364-0.424 0.894-0.424 1.534s0.059 1.17 0.424 1.535c0.208 0.207 0.529 0.327 0.91 0.327 0.401 0 0.705-0.104 0.989-0.447v0.403h0.737v-3.752c0-0.925-0.61-1.595-1.615-1.595"/>
    </g>
    <g fill="#918f90">
     <path d="m292.68 211.6h6.239v0.723h-6.239z"/>
     <path d="m305.08 209.89v3.544l-1.222-2.584h-0.595l-1.25 2.584v-3.544h-0.805v5.301h0.805l1.547-3.299 1.52 3.299h0.804v-5.301z"/>
     <path d="m309.25 212.6c-0.12 0.283-0.388 0.477-0.746 0.477-0.356 0-0.632-0.194-0.751-0.477-0.074-0.171-0.089-0.282-0.097-0.513h1.698c-8e-3 0.231-0.03 0.342-0.104 0.513m-1.594-1.042c0-0.648 0.343-1.058 0.961-1.058 0.423 0 0.647 0.12 0.915 0.389l0.485-0.456c-0.388-0.387-0.753-0.586-1.415-0.586-0.946 0-1.697 0.497-1.697 1.935 0 1.221 0.632 1.928 1.599 1.928 1.013 0 1.601-0.743 1.601-1.817v-0.335z"/>
     <path d="m312.54 209.84c-0.849 0-1.683 0.52-1.683 1.935s0.834 1.928 1.683 1.928c0.523 0 0.887-0.149 1.244-0.528l-0.521-0.506c-0.237 0.259-0.424 0.357-0.723 0.357-0.291 0-0.536-0.119-0.699-0.334-0.163-0.211-0.223-0.479-0.223-0.917 0-0.44 0.06-0.715 0.223-0.924 0.163-0.216 0.408-0.333 0.699-0.333 0.299 0 0.486 0.095 0.723 0.356l0.521-0.499c-0.357-0.379-0.721-0.535-1.244-0.535"/>
     <path d="m316.97 209.89-1.059 1.742-0.557-0.634v-1.108h-0.761v5.301h0.761v-3.269l1.466 1.743h0.924l-1.311-1.482 1.475-2.293z"/>
     <path d="m319.62 209.89c-0.723 0-1.036 0.483-1.036 1.042v4.259h0.759v-4.215c0-0.289 0.105-0.44 0.411-0.44h0.336v-0.646z"/>
     <path d="m322.83 212.6c-0.12 0.283-0.388 0.477-0.747 0.477-0.355 0-0.631-0.194-0.749-0.477-0.076-0.171-0.091-0.282-0.097-0.513h1.696c-7e-3 0.231-0.03 0.342-0.103 0.513m-1.593-1.042c0-0.648 0.342-1.058 0.959-1.058 0.426 0 0.647 0.12 0.917 0.389l0.484-0.456c-0.389-0.387-0.754-0.586-1.415-0.586-0.945 0-1.698 0.497-1.698 1.935 0 1.221 0.632 1.928 1.599 1.928 1.015 0 1.602-0.743 1.602-1.817v-0.335z"/>
     <path d="m326.92 209.89v2.3c0 0.588-0.335 0.842-0.76 0.842-0.424 0-0.782-0.261-0.782-0.842v-2.3h-0.759v3.775h0.745v-0.38c0.26 0.282 0.624 0.424 1.005 0.424 0.387 0 0.707-0.127 0.932-0.342 0.289-0.283 0.378-0.64 0.378-1.064v-2.413z"/>
     <path d="m330.33 213.03c-0.686 0-0.791-0.581-0.791-1.25 0-0.67 0.105-1.258 0.791-1.258 0.684 0 0.78 0.588 0.78 1.258 0 0.669-0.096 1.25-0.78 1.25m1.116-2.851c-0.207-0.208-0.545-0.335-0.923-0.335-0.409 0-0.714 0.104-0.998 0.446v-0.402h-0.745v5.302h0.759v-1.907c0.277 0.329 0.589 0.425 0.991 0.425 0.38 0 0.709-0.127 0.916-0.336 0.379-0.379 0.425-1.019 0.425-1.592 0-0.574-0.046-1.222-0.425-1.601"/>
     <path d="m335.11 209.89v0.379c-0.26-0.282-0.625-0.423-1.005-0.423-0.387 0-0.707 0.127-0.931 0.341-0.29 0.284-0.379 0.64-0.379 1.065v2.413h0.759v-2.301c0-0.588 0.335-0.84 0.76-0.84 0.423 0 0.78 0.258 0.78 0.84v2.301h0.759v-3.775z"/>
     <path d="m339.07 212.77c-0.171 0.172-0.303 0.254-0.565 0.254-0.409 0-0.752-0.328-0.752-0.849v-2.293h-0.76v3.776h0.745v-0.41c0.193 0.268 0.58 0.454 1.006 0.454 0.365 0 0.64-0.096 0.9-0.359z"/>
     <path d="m341.32 213.03c-0.685 0-0.773-0.588-0.773-1.184s0.088-1.185 0.773-1.185c0.686 0 0.768 0.589 0.768 1.185s-0.082 1.184-0.768 1.184m-0.09-4.713c-0.571 0-0.938 0.135-1.332 0.498l0.484 0.486c0.24-0.225 0.447-0.336 0.819-0.336 0.641 0 0.887 0.454 0.887 0.961v0.483c-0.277-0.328-0.589-0.431-0.976-0.431-0.38 0-0.693 0.126-0.901 0.334-0.365 0.364-0.425 0.894-0.425 1.534s0.06 1.17 0.425 1.535c0.208 0.207 0.529 0.327 0.907 0.327 0.403 0 0.709-0.104 0.992-0.447v0.403h0.736v-3.752c0-0.925-0.61-1.595-1.616-1.595"/>
     <path d="m343.87 211.6h2.175v0.706h-2.175z"/>
     <path d="m348.88 209.89h-0.626l-1.742 5.301h0.834l1.221-3.856 1.221 3.856h0.85z"/>
     <path d="m352.86 212.81c-0.14 0.142-0.334 0.216-0.558 0.216s-0.409-0.074-0.55-0.216c-0.232-0.23-0.261-0.625-0.261-1.034 0-0.41 0.029-0.805 0.261-1.035 0.141-0.143 0.326-0.223 0.55-0.223s0.418 0.08 0.558 0.223c0.232 0.23 0.261 0.625 0.261 1.035 0 0.409-0.029 0.804-0.261 1.034m0.574-2.523c-0.245-0.253-0.618-0.446-1.132-0.446-0.515 0-0.879 0.193-1.124 0.446-0.358 0.371-0.448 0.848-0.448 1.489 0 0.632 0.09 1.11 0.448 1.482 0.245 0.252 0.609 0.446 1.124 0.446 0.514 0 0.887-0.194 1.132-0.446 0.357-0.372 0.448-0.85 0.448-1.482 0-0.641-0.091-1.118-0.448-1.489"/>
     <path d="m356.92 212.77c-0.172 0.172-0.307 0.254-0.565 0.254-0.41 0-0.753-0.328-0.753-0.849v-2.293h-0.759v3.776h0.745v-0.41c0.192 0.268 0.579 0.454 1.005 0.454 0.363 0 0.64-0.096 0.9-0.359z"/>
     <path d="m359.59 213.03c-0.686 0-0.792-0.581-0.792-1.25 0-0.67 0.106-1.258 0.792-1.258 0.683 0 0.781 0.588 0.781 1.258 0 0.669-0.098 1.25-0.781 1.25m1.116-2.851c-0.209-0.208-0.537-0.335-0.916-0.335-0.402 0-0.715 0.104-0.992 0.432v-1.914h-0.758v5.302h0.744v-0.403c0.283 0.343 0.588 0.447 0.999 0.447 0.379 0 0.714-0.127 0.923-0.336 0.379-0.379 0.424-1.019 0.424-1.592 0-0.574-0.045-1.222-0.424-1.601"/>
     <path d="m364.04 212.81c-0.142 0.142-0.334 0.216-0.559 0.216-0.223 0-0.41-0.074-0.55-0.216-0.232-0.23-0.262-0.625-0.262-1.034 0-0.41 0.03-0.805 0.262-1.035 0.14-0.143 0.327-0.223 0.55-0.223 0.225 0 0.417 0.08 0.559 0.223 0.23 0.23 0.261 0.625 0.261 1.035 0 0.409-0.031 0.804-0.261 1.034m0.573-2.523c-0.245-0.253-0.617-0.446-1.132-0.446-0.514 0-0.878 0.193-1.124 0.446-0.357 0.371-0.446 0.848-0.446 1.489 0 0.632 0.089 1.11 0.446 1.482 0.246 0.252 0.61 0.446 1.124 0.446 0.515 0 0.887-0.194 1.132-0.446 0.358-0.372 0.447-0.85 0.447-1.482 0-0.641-0.089-1.118-0.447-1.489"/>
     <path d="m370.62 209.89v2.3c0 0.588-0.336 0.842-0.76 0.842-0.41 0-0.782-0.261-0.782-0.805v-2.337h-0.761v2.3c0 0.588-0.333 0.842-0.758 0.842s-0.782-0.261-0.782-0.842v-2.3h-0.76v3.775h0.745v-0.38c0.253 0.275 0.627 0.424 1.006 0.424 0.468 0 0.834-0.186 1.074-0.55 0.303 0.371 0.684 0.55 1.181 0.55 0.388 0 0.731-0.127 0.953-0.342 0.291-0.283 0.402-0.64 0.402-1.064v-2.413z"/>
     <path d="m377.08 209.89v2.3c0 0.588-0.336 0.842-0.759 0.842-0.41 0-0.783-0.261-0.783-0.805v-2.337h-0.76v2.3c0 0.588-0.335 0.842-0.759 0.842-0.423 0-0.781-0.261-0.781-0.842v-2.3h-0.76v3.775h0.745v-0.38c0.252 0.275 0.626 0.424 1.004 0.424 0.47 0 0.835-0.186 1.074-0.55 0.305 0.371 0.684 0.55 1.183 0.55 0.388 0 0.73-0.127 0.953-0.342 0.29-0.283 0.401-0.64 0.401-1.064v-2.413z"/>
     <path d="m381.1 212.6c-0.12 0.283-0.387 0.477-0.744 0.477-0.359 0-0.633-0.194-0.754-0.477-0.073-0.171-0.088-0.282-0.096-0.513h1.698c-6e-3 0.231-0.029 0.342-0.104 0.513m-1.594-1.042c0-0.648 0.344-1.058 0.961-1.058 0.425 0 0.649 0.12 0.916 0.389l0.483-0.456c-0.386-0.387-0.75-0.586-1.415-0.586-0.945 0-1.698 0.497-1.698 1.935 0 1.221 0.636 1.928 1.603 1.928 1.012 0 1.6-0.743 1.6-1.817v-0.335z"/>
     <path d="m384.97 212.77c-0.171 0.172-0.304 0.254-0.565 0.254-0.411 0-0.754-0.328-0.754-0.849v-2.293h-0.76v3.776h0.745v-0.41c0.195 0.268 0.582 0.454 1.006 0.454 0.365 0 0.64-0.096 0.902-0.359z"/>
     <path d="m388.39 209.89v2.3c0 0.588-0.334 0.842-0.758 0.842-0.426 0-0.783-0.261-0.783-0.842v-2.3h-0.759v3.775h0.745v-0.38c0.259 0.282 0.625 0.424 1.003 0.424 0.388 0 0.709-0.127 0.932-0.342 0.289-0.283 0.379-0.64 0.379-1.064v-2.413z"/>
     <path d="m317.87 194c-1.51 0-2.184 1.021-2.184 2.198v8.983h1.602v-8.887c0-0.613 0.221-0.928 0.865-0.928h0.706v-1.366z"/>
     <path d="m324.43 200.17c-0.299 0.297-0.706 0.455-1.177 0.455-0.472 0-0.864-0.158-1.162-0.455-0.487-0.489-0.549-1.319-0.549-2.183 0-0.863 0.062-1.695 0.549-2.184 0.298-0.297 0.69-0.47 1.162-0.47 0.471 0 0.878 0.173 1.177 0.47 0.487 0.489 0.551 1.321 0.551 2.184 0 0.864-0.064 1.694-0.551 2.183m1.21-5.324c-0.52-0.534-1.305-0.942-2.387-0.942-1.083 0-1.853 0.408-2.371 0.942-0.754 0.784-0.944 1.79-0.944 3.141 0 1.334 0.19 2.34 0.944 3.125 0.518 0.534 1.288 0.942 2.371 0.942 1.082 0 1.867-0.408 2.387-0.942 0.753-0.785 0.942-1.791 0.942-3.125 0-1.351-0.189-2.357-0.942-3.141"/>
     <path d="m333.76 194-2.229 3.674-1.178-1.335v-2.339h-1.603v11.181h1.603v-6.895l3.093 3.675h1.945l-2.761-3.124 3.107-4.837z"/>
     <path d="m341.61 197.52h-1.868c-0.943 0-1.43-0.424-1.43-1.146 0-0.721 0.456-1.132 1.461-1.132 0.613 0 1.069 0.048 1.492 0.456 0.235 0.235 0.345 0.613 0.345 1.177zm0.031-3.518v0.724c-0.58-0.583-1.129-0.818-2.118-0.818-0.991 0-1.65 0.235-2.136 0.723-0.408 0.423-0.63 1.036-0.63 1.71 0 1.335 0.927 2.294 2.749 2.294h2.104v0.565c0 1.005-0.501 1.491-1.743 1.491-0.879 0-1.303-0.204-1.741-0.769l-1.053 0.99c0.754 0.878 1.538 1.146 2.858 1.146 2.181 0 3.282-0.928 3.282-2.732v-5.324z"/>
     <path d="m347.81 194c-1.507 0-2.184 1.021-2.184 2.198v8.983h1.604v-8.887c0-0.613 0.219-0.928 0.864-0.928h0.706v-1.366z"/>
     <path d="m350.34 197.62h4.585v1.49h-4.585z"/>
     <path d="m361.22 203.66v-9.657h-1.694v9.657h-3.077v1.523h7.851v-1.523z"/>
     <path d="m369.84 194h-1.318l-3.675 11.181h1.76l2.575-8.134 2.575 8.134h1.79z"/>
     <path d="m391.15 236.11c0 12.292-9.965 22.255-22.257 22.255-8.392 0-15.697-4.648-19.488-11.508-3.844 6.664-11.039 11.152-19.285 11.152-12.292 0-22.26-9.964-22.26-22.255 0-6.858 3.103-12.987 7.982-17.068h28.538c2.107 1.763 3.891 3.9 5.229 6.321 1.407-2.438 3.266-4.58 5.456-6.321h27.663c5.13 4.076 8.422 10.363 8.422 17.424"/>
    </g>
    <path d="m315.01 223.13v13.696c0 3.841 0.826 6.931 2.477 9.269s3.799 3.508 6.442 3.508c1.191 0 2.31-0.291 3.357-0.872 1.048-0.58 1.977-1.424 2.785-2.534 0.835 1.093 1.773 1.933 2.814 2.522s2.094 0.884 3.164 0.884c2.767 0 4.985-1.158 6.655-3.469 1.671-2.314 2.507-5.416 2.507-9.308v-13.696h-6.471v14.951c0 1.057-0.254 1.933-0.759 2.624-0.509 0.692-1.152 1.037-1.932 1.037-0.781 0-1.432-0.345-1.953-1.037-0.519-0.691-0.779-1.567-0.779-2.624v-14.951h-6.432v14.951c0 1.057-0.258 1.933-0.78 2.624-0.519 0.692-1.178 1.037-1.972 1.037-0.781 0-1.423-0.345-1.93-1.037-0.508-0.691-0.76-1.567-0.76-2.624v-14.951z" fill="#fff"/>
    <path d="m371.75 222.38 10.861 22.626c0.397 0.774 0.43 1.627 0.099 2.563-0.334 0.934-0.931 1.595-1.793 1.983-0.932 0.386-1.844 0.401-2.74 0.048-0.898-0.356-1.545-0.952-1.943-1.789l-7.373-15.279-7.37 15.279c-0.398 0.837-1.079 1.433-2.042 1.789-0.964 0.353-1.844 0.338-2.64-0.048-0.932-0.388-1.545-1.049-1.844-1.983-0.299-0.936-0.248-1.822 0.149-2.659l10.759-22.53z" fill="#fff"/>
    <path d="m306.74 236.03c0 12.298-9.969 22.267-22.268 22.267-8.175 0-15.315-4.409-19.189-10.975-3.958 6.576-11.164 10.975-19.398 10.975-12.497 0-22.628-10.132-22.628-22.629 0-6.691 2.904-12.702 7.521-16.843h30.206c1.78 1.598 3.309 3.472 4.511 5.558 1.302-2.116 2.953-3.989 4.863-5.558h28.246c4.967 4.083 8.136 10.272 8.136 17.205" fill="#00a5dd"/>
    <path d="m278.01 239.38h9.329c0.88 0 1.628-0.407 2.244-1.223 0.616-0.817 0.925-1.769 0.925-2.855 0-1.166-0.309-2.155-0.925-2.971-0.616-0.818-1.535-0.908-2.415-0.908h-9.133zm-8e-3 17.968s-1.663-0.338-3.5-1.315c-2.327-1.24-2.736-1.725-2.736-1.725l-4e-3 -31.474h15.577c2.58 0 4.782 1.204 6.6 3.612 1.82 2.408 2.728 5.36 2.728 8.856 0 3.339-0.908 6.234-2.728 8.681-1.818 2.447-4.02 3.67-6.6 3.67h-9.329z" fill="#fff"/>
    <path d="m241.65 239.55 9.402 8e-3c0.881 0 1.628-0.409 2.244-1.228 0.617-0.819 0.925-1.775 0.925-2.866 0-1.17-0.308-2.164-0.925-2.982-0.616-0.819-1.245-1.065-2.126-1.065h-9.52zm0 18.351s-1.809-0.282-3.367-0.818c-1.436-0.494-3.285-1.574-3.285-1.574v-32.747h15.974c2.582 0 4.862 1.395 6.68 3.813 1.819 2.416 2.729 5.38 2.729 8.889 0 3.352-0.91 6.258-2.729 8.714-1.818 2.456-4.177 3.406-6.759 3.406h-9.218z" fill="#fff"/>
   </g>
  </g>
 </g>
</svg>
