<svg width="800" height="574.33" enable-background="new 0 0 408.668 187.866" version="1.1" viewBox="0 0 800 574.33" xml:space="preserve" xmlns="http://www.w3.org/2000/svg">
<g transform="matrix(1.0529 0 0 1.0529 -42.301 187.12)" stroke-width="1.9576"><path d="m643.91 237.38c7.6112-3.4297 16.489-2.4274 23.143 2.6134 8.2963 6.5384 11.812 17.027 14.623 26.794 5.0056 20.236 5.726 41.294 2.1181 61.825-0.94748 6.0118-4.5064 13.014-11.197 13.842-4.9997 0.54812-9.4963-3.0636-10.042-8.0634l-0.0118-0.11158c-1.1863-13.856 3.8467-27.772 0.7067-41.523-0.85547-4.5103-5.4108-8.4451-10.084-7.3488-6.0118 1.9517-9.9936 7.5152-12.938 12.834-6.1469 11.648-9.6784 24.437-13.662 36.924-2.7348 9.0167-7.155 18.499-15.825 23.203-14.216 7.709-34.415 6.1018-44.647-7.3802-8.8366-12.022-14.817-25.864-23.023-38.293-2.1945-2.7954-5.2307-7.0474-9.3632-5.5459-4.0424 1.0962-5.078 5.861-5.078 9.512 0.61665 13.617 7.2 25.983 9.4219 39.283 1.292 5.4108-2.1945 12.683-8.5958 11.738-6.0118 0.69104-9.6177-5.0956-11.661-9.8585-9.0167-22.062-13.887-46.693-8.7916-70.315 2.3432-10.896 6.0118-22.27 14.457-30.055 8.4451-7.7854 22.751-9.467 31.979-2.0594 13.163 10.234 18.709 26.794 29.801 38.788 6.1155 6.7772 17.93 7.11 23.413-0.60099 11.981-18.286 12.764-46.389 35.258-56.203z"/><path d="m743.18 255.92h26.015v31.394h30.809v25.472h-30.881v31.335h-25.938l-2e-3 -31.38h-31.347v-25.427h31.349v-31.394z"/><path d="m353.33 315.39c0 4.3048-0.53834 8.2395-1.6131 11.8-1.0767 3.5609-2.6917 6.6069-4.8411 9.1283-2.1534 2.5233-4.8255 4.4907-8.0164 5.9002-3.1928 1.4095-6.9025 2.1162-11.133 2.1162-2.8229 0-5.4734-0.61469-7.9596-1.8362-2.4881-1.2255-4.3596-2.6154-5.6242-4.1756v27.831h-13.805v-78.821h13.805v5.7886c0.37194-0.74193 0.96509-1.5015 1.7814-2.2826 0.81436-0.77912 1.8167-1.5015 3.0049-2.171 1.1844-0.66755 2.5214-1.2059 4.0072-1.6131 1.4839-0.40718 3.0773-0.61468 4.7863-0.61468 4.2304 0 7.94 0.70669 11.133 2.1162 3.1889 1.4095 5.863 3.3788 8.0164 5.9002 2.1514 2.5234 3.7664 5.5655 4.8412 9.1283 1.0767 3.5687 1.617 7.5015 1.617 11.804zm-14.474 0c0-5.5655-1.2626-9.8154-3.784-12.746-2.5234-2.9305-5.6046-4.3987-9.2399-4.3987-3.6372 0-6.6989 1.4662-9.1851 4.3987-2.4881 2.9344-3.7292 7.1805-3.7292 12.746 0 5.5654 1.2411 9.8154 3.7292 12.746 2.4862 2.9344 5.5478 4.3987 9.1851 4.3987 3.6353 0 6.7165-1.4643 9.2399-4.3987 2.5234-2.9305 3.784-7.1785 3.784-12.746z"/><path d="m361.37 315.39c0-4.0816 0.63035-7.8833 1.893-11.411 1.2607-3.5237 3.1165-6.5854 5.5655-9.1851 2.4509-2.5977 5.4362-4.6376 8.9619-6.1234 3.5237-1.4839 7.5524-2.2278 12.078-2.2278s8.5547 0.74389 12.078 2.2278c3.5237 1.4858 6.5149 3.5256 8.9619 6.1234 2.4509 2.5997 4.3028 5.6614 5.5654 9.1851 1.2607 3.5256 1.893 7.3292 1.893 11.411 0 4.0836-0.63035 7.8872-1.893 11.411-1.2626 3.5256-3.1165 6.5873-5.5654 9.1851-2.4509 2.5997-5.4382 4.6395-8.9619 6.1234-3.5256 1.4839-7.5524 2.2278-12.078 2.2278-4.5279 0-8.5547-0.74389-12.078-2.2278-3.5256-1.4839-6.511-3.5237-8.9619-6.1234-2.4509-2.5977-4.3048-5.6594-5.5655-9.1851-1.2626-3.5237-1.893-7.3273-1.893-11.411zm14.474 0c0 2.3002 0.31518 4.4907 0.94553 6.5697 0.63034 2.079 1.5406 3.8956 2.7269 5.4558s2.6526 2.8033 4.3987 3.7292c1.7423 0.92986 3.7292 1.3918 5.955 1.3918 2.2278 0 4.2108-0.46199 5.957-1.3918 1.7423-0.92594 3.2085-2.171 4.3987-3.7292 1.1844-1.5602 2.0946-3.3769 2.7269-5.4558 0.63035-2.075 0.94552-4.2676 0.94552-6.5697 0-2.2982-0.31517-4.4907-0.94552-6.5697-0.63035-2.0751-1.5406-3.8956-2.7269-5.4558-1.1902-1.5602-2.6545-2.8013-4.3987-3.7292-1.7442-0.92594-3.7292-1.3918-5.957-1.3918s-4.2128 0.46395-5.955 1.3918c-1.7442 0.92986-3.2105 2.171-4.3987 3.7292-1.1863 1.5602-2.0966 3.3788-2.7269 5.4558-0.63231 2.079-0.94553 4.2715-0.94553 6.5697z"/><path d="m427.72 343.44v-56.109h13.805v9.1283c2.0046-3.3397 4.4712-5.8454 7.4036-7.5152 2.9305-1.6698 5.9922-2.5057 9.1851-2.5057 0.59511 0 1.2803 0.0372 2.0594 0.11158 0.77912 0.0763 1.5015 0.18793 2.171 0.33475v13.472c-1.709-1.0375-3.6372-1.5602-5.7886-1.5602-2.0046 0-3.9152 0.44633-5.7338 1.337-1.8206 0.8907-3.414 2.3002-4.7863 4.2304-1.3742 1.9322-2.4685 4.4712-3.2848 7.6248-0.81828 3.1556-1.2255 6.9945-1.2255 11.52v19.926h-13.803v4e-3z"/></g>
<g transform="matrix(3.3868 0 0 3.3868 1625 -1489.3)"><g transform="matrix(1.1277,0,0,1.1277,-141.1,419.13)"><path d="m-277.47 70.29c-12.555 0-22.874 10.239-22.874 22.824 0 12.525 10.132 22.984 22.816 22.984 9.5124 0 17.381-5.4591 20.986-13.601h-5.8178c-2.4254 4.1055-7.7744 8.4258-15.036 8.4258-7.9883 0-15.922-5.3694-17.611-15.226h40.33s0.24839-1.1959 0.24839-2.8702c0-11.762-9.7493-22.537-23.042-22.537zm0.0552 5.0974c8.3317 0 16.237 5.977 17.616 15.187h-35.183c1.2602-8.3146 8.3008-15.187 17.566-15.187z"/><path d="m-228.79 70.27c-12.702 0-23.139 10.296-23.139 22.89 0 12.041 9.7862 22.94 23.122 22.94 7.6301 0 13.371-3.3416 17.898-9.9824v8.7432h5.1664v-43.274h-5.1664v8.6549c-4.1009-6.1932-10.014-9.9713-17.881-9.9713zm0.0304 5.1195c10.033 0 17.842 8.0638 17.842 17.776 0 9.9896-8.0176 17.771-17.873 17.771-9.784 0-17.931-7.7177-17.931-17.829 0-9.1549 7.4041-17.718 17.961-17.718z"/><path d="m-199.48 114.86v-43.274h5.1223v6.8343c1.6089-3.142 6.0498-6.8343 12.717-6.8343h4.1508v-9.803h5.1664v9.803h8.964v5.034h-8.964v27.908c0 3.0814 2.4192 5.1223 5.0781 5.1223h3.8859v5.2106h-3.9742c-5.2112 0-10.156-4.3192-10.156-10.156v-28.084h-3.6209c-8.4857 0-13.247 6.4762-13.247 11.924v26.317z"/><path d="m-160.09 114.86v-57.317h5.1664v21.284c1.5224-3.4675 7.2208-8.5534 14.622-8.5534 10.327 0 17.304 6.5837 17.304 17.304v27.282h-5.034v-27.289c0-7.2159-4.855-12.195-12.227-12.195-8.207 0-14.665 6.583-14.665 13.018v26.466z"/><path d="m-229.26 41.144c0 3.8438-4.7834 3.6159-4.7834 3.6159h-4.7834v-6.9472h4.7834c4.9259-0.02836 4.7834 3.3313 4.7834 3.3313m-9.5668-13.923h3.6446c3.7868 0.19954 3.6443 3.018 3.6443 3.018 0 3.5021-4.1855 3.5592-4.1855 3.5592h-3.1034zm8.6843 7.9439s3.2742-1.3951 3.2459-5.0967c0 0 0.49781-6.0644-7.5383-6.8048h-8.919v25.426h10.222s8.5418 0.0287 8.5418-7.1751c0 0 0.19919-4.8972-5.5522-6.3493m-23.078-16.884h37.542v35.378h-37.542z"/><path d="m-272.55 41.144c0 3.8438-4.7834 3.6159-4.7834 3.6159h-4.7834v-6.9472h4.7834c4.9259-0.02836 4.7834 3.3313 4.7834 3.3313m-9.5668-13.923h3.6446c3.7868 0.19954 3.6443 3.018 3.6443 3.018 0 3.5021-4.1855 3.5592-4.1855 3.5592h-3.1034zm8.6843 7.9439s3.2742-1.3951 3.2459-5.0967c0 0 0.49782-6.0644-7.5383-6.8048h-8.919v25.426h10.222s8.5418 0.0287 8.5418-7.1751c0 0 0.19919-4.8972-5.5522-6.3493m-23.078-16.884h37.542v35.378h-37.542z"/><path d="m-180.04 25.086v4.698s-4.5842-2.8188-9.6523-2.8759c0 0-9.4527-0.1845-9.8798 9.0619 0 0-0.34167 8.506 9.766 8.9901 0 0 4.2426 0.51251 9.9939-3.1605v4.8688s-7.716 4.5839-16.657 1.0534c0 0-7.5168-2.7471-7.8018-11.752 0 0-0.31332-9.261 9.7093-12.336 0 0 2.6767-1.025 7.4884-0.56957 0 0 2.8755 0.28496 7.0327 2.0217m-29.883 28.573h37.542v-35.378h-37.542z"/></g></g><path d="m740.18 11.991h27.39l-0.0764 356.87h-27.309z" stroke-width="4.0404"/></svg>
