<svg width="927.97" height="592.35" version="1.0" viewBox="0 0 869.98 555.33" xmlns="http://www.w3.org/2000/svg">
 <path d="m215.41 404.47h20.29v149.15h-18.367l-99.721-114.87v114.87h-20.066v-149.15h17.291l100.57 115.84z" fill="#fff"/>
 <path d="m274.19 404.47h84.558v18.996h-63.204v45.483h61.069v19.111h-61.069v46.342h65.229v19.002h-86.583z" fill="#fff"/>
 <path d="m586.64 404.47h21.294l-60.308 149.79h-4.6916l-48.766-121.29-49.274 121.29h-4.5827l-60.114-149.79h21.511l41.1 102.81 41.384-102.81h20.187l41.571 102.81z" fill="#fff"/>
 <path d="m665.79 491.13-16.227-9.8608c-10.181-6.2152-17.424-12.328-21.729-18.343-4.3047-6.0156-6.463-12.938-6.463-20.768 0-11.747 4.0749-21.281 12.231-28.609 8.1438-7.3336 18.736-11.003 31.765-11.003 12.448 0 23.875 3.5005 34.274 10.49v24.238c-10.75-10.338-22.321-15.508-34.703-15.508-6.9769 0-12.708 1.6142-17.194 4.8427-4.48 3.2225-6.7291 7.3518-6.7291 12.388 0 4.4619 1.6566 8.6516 4.9576 12.545 3.3071 3.9056 8.6154 7.9987 15.937 12.279l16.312 9.6552c18.192 10.871 27.285 24.703 27.285 41.499 0 11.959-4.0024 21.674-12.007 29.147-8.0108 7.4727-18.422 11.203-31.233 11.203-14.728 0-28.144-4.5163-40.247-13.579v-27.122c11.523 14.613 24.873 21.916 40.036 21.916 6.6928 0 12.261-1.8621 16.711-5.5864 4.4498-3.7242 6.6747-8.3856 6.6747-13.99 0-9.0749-6.5538-17.684-19.649-25.834" fill="#fff"/>
 <path d="m206.44 201.29h21.3l-60.302 149.79h-4.6976l-48.766-121.28-49.274 121.28h-4.5828l-60.12-149.79h21.523l41.1 102.82 41.378-102.82h20.187l41.571 102.82z" fill="#fff"/>
 <path d="m311.77 219.44c-17.074 0-31.1 5.3385-42.085 16.009-10.991 10.683-16.481 24.316-16.481 40.894 0 16.088 5.5138 29.474 16.535 40.151 11.022 10.671 24.818 16.009 41.39 16.009 16.632 0 30.52-5.4473 41.656-16.336 11.124-10.889 16.687-24.45 16.687-40.677 0-15.804-5.5622-29.093-16.687-39.879-11.136-10.786-24.806-16.173-41.015-16.173m-0.85852-20.29c23.047 0 42.236 7.2974 57.563 21.892 15.326 14.589 22.998 32.883 22.998 54.872 0 22.001-7.7387 40.199-23.21 54.618-15.471 14.407-34.975 21.614-58.53 21.614-22.466 0-41.197-7.2067-56.166-21.614-14.976-14.419-22.466-32.478-22.466-54.189 0-22.279 7.5392-40.713 22.618-55.302 15.084-14.595 34.147-21.892 57.194-21.892" fill="#fff"/>
 <path d="m443.95 219.44h-6.4026v47.085h8.1136c10.816 0 18.234-0.92501 22.261-2.7811 4.0205-1.844 7.1523-4.6432 9.3953-8.3735 2.243-3.7364 3.3615-7.9926 3.3615-12.769 0-4.6916-1.2454-8.9418-3.7363-12.757-2.4909-3.8089-5.9975-6.4933-10.514-8.0531-4.5223-1.5719-12.019-2.3518-22.479-2.3518m-27.757 131v-149.16h37.363c15.09 0 27.073 3.7363 35.931 11.209 8.8632 7.4787 13.289 17.581 13.289 30.326 0 8.6879-2.1644 16.197-6.5053 22.533-4.347 6.33-10.574 11.07-18.688 14.196 4.7702 3.1378 9.4316 7.4062 13.984 12.817 4.5586 5.405 10.961 14.831 19.22 28.283 5.1994 8.4763 9.365 14.849 12.491 19.111l7.902 10.683h-25.411l-6.5054-9.8245c-0.21746-0.3567-0.64087-0.96735-1.2817-1.8198l-4.1535-5.8766-6.6142-10.895-7.1462-11.644c-4.4014-6.1245-8.44-10.997-12.11-14.625-3.6698-3.6215-6.989-6.2333-9.9394-7.8354-2.9625-1.5901-7.9322-2.3942-14.915-2.3942h-5.5561v64.915z" fill="#fff"/>
 <path d="m552 201.29h21.354v129.73h67.151v19.431h-88.506z" fill="#fff"/>
 <path d="m714.01 220.29h-26.693v110.93h27.327c10.683 0 18.972-0.7255 24.885-2.1886 5.9007-1.4571 10.828-3.3131 14.788-5.5501 3.9419-2.2491 7.5574-4.9999 10.828-8.2768 10.532-10.677 15.804-24.159 15.804-40.465 0-16.016-5.411-29.075-16.227-39.177-3.9842-3.7726-8.5609-6.8742-13.718-9.2925-5.1692-2.4184-10.06-4.0205-14.685-4.8065-4.6251-0.77992-12.062-1.1729-22.309-1.1729m-48.047 129.93v-148.94h50.284c20.29 0 36.336 3.0471 48.161 9.1353 11.814 6.0821 21.203 15.03 28.18 26.85 6.9769 11.814 10.465 24.697 10.465 38.645 0 9.9696-1.9226 19.504-5.7677 28.615-3.8452 9.1172-9.3228 17.122-16.439 24.02-7.2611 7.1281-15.701 12.497-25.308 16.124-5.6227 2.2067-10.78 3.6819-15.484 4.4316-4.6976 0.74968-13.664 1.1185-26.898 1.1185z" fill="#fff"/>
 <path d="m421.17 86.921c-0.0139 3.1922-0.99151 6.4086-3.8452 8.9056-2.8476 2.503-7.775 4.4074-15.937 4.4074h-16.427v-26.342h15.695c7.3215 0 12.515 1.4873 15.774 3.8028 3.2466 2.3337 4.7158 5.399 4.74 9.226" fill="#c02519"/>
 <path d="m407.87 55.38c3.0592-2.2007 4.5344-5.3204 4.5525-9.9938-0.0139-3.2104-0.93108-5.9612-3.2406-8.0108-2.3156-2.0556-6.2454-3.5126-12.594-3.5126h-11.62v24.963h7.9745c6.9044 0 11.85-1.2273 14.927-3.4461" fill="#c02519"/>
 <path d="m438.89 88.856c0.0416-12.176-8.0652-21.433-21.046-24.988 3.5066-1.7896 6.2756-3.9782 8.307-6.6444 2.7086-3.5792 4.0084-7.9624 3.9903-13.077 0.0185-6.2756-2.4546-12.678-7.7569-17.473-5.3083-4.7883-13.361-7.8899-24.353-7.8838h-30.356v96.528h35.629c12.708 0 21.632-3.4461 27.376-8.5549 5.7496-5.0846 8.2164-11.759 8.2103-17.908m33.839 45.169h-142.42v-134.02h142.42z" fill="#c02519"/>
 <path d="m243.76 55.38c3.0532-2.2007 4.5344-5.3204 4.5586-9.9938-6e-3 -3.2104-0.93106-5.9612-3.2406-8.0108-2.3216-2.0556-6.2514-3.5126-12.606-3.5126h-11.608v24.963h7.9745c6.8983 0 11.844-1.2273 14.921-3.4461" fill="#c02519"/>
 <path d="m252.33 77.695c-3.2527-2.3156-8.4521-3.8028-15.768-3.8028h-15.695v26.342h16.427c8.1619 0 13.077-1.9044 15.931-4.4074 2.8536-2.4969 3.8391-5.7134 3.8452-8.9056-0.024-3.827-1.4933-6.8923-4.74-9.226" fill="#c02519"/>
 <path d="m274.8 88.856c0.0425-12.176-8.0773-21.433-21.04-24.988 3.4945-1.7896 6.2635-3.9782 8.2889-6.6444 2.7206-3.5792 4.0084-7.9624 4.0024-13.077 6e-3 -6.2756-2.4607-12.678-7.7629-17.473-5.3022-4.7883-13.355-7.8899-24.347-7.8838h-30.362v96.528h35.628c12.714 0 21.632-3.4461 27.376-8.5549 5.7436-5.0846 8.2284-11.759 8.2163-17.908m33.839 45.169h-142.42v-134.02h142.42z" fill="#c02519"/>
 <path d="m608.55 89.479-2.2853 1.3966c-11.028 6.7351-23.023 10.344-33.917 10.338-23.325-0.0907-38.681-13.912-38.742-34.02 0.0231-19.679 16.064-34.244 38.149-34.292 11.251 6e-3 21.439 2.9141 33.549 9.5525l2.2249 1.2213v-17.962l-0.95523-0.37484c-13.652-5.3869-24.226-7.7871-34.667-7.781-16.149-6e-3 -30.157 5.3264-40.139 14.371-9.9757 9.0507-15.907 21.826-15.895 36.499 5e-3 10.224 4.22 22.2 13.253 31.711 9.0023 9.5102 22.878 16.439 41.904 16.433h0.0665c15.78 0 26.723-3.5126 36.614-8.3917l0.84035-0.41113zm28.283 44.546h-142.42v-134.02h142.42z" fill="#c02519"/>
 <g transform="matrix(2.1395 0 0 2.1395 -1344.4 -2682.8)" fill-rule="evenodd">
  <g transform="matrix(1.5731 0 0 1.5731 588.02 -385.2)" fill-rule="nonzero">
   <path d="m251.03 1067 4.473-4.13-0.028 31.192-4.445-4.704v-8.848h-17.542v13.587l-4.466-4.697v-22.386l4.466-4.144v13.496h17.542z" fill="#fff"/>
   <path d="m255.47 1094 4.473-3.983h5.684c2.233 0 3.969-0.147 5.208-0.434 1.246-0.315 2.268-0.7 3.094-1.162 0.833-0.483 1.582-1.071 2.275-1.75 2.205-2.233 3.304-5.061 3.304-8.477 0-3.353-1.134-6.083-3.395-8.19-0.833-0.791-1.792-1.449-2.884-1.953-1.071-0.511-2.093-0.84-3.066-1.001-0.959-0.161-2.513-0.245-4.669-0.245h-5.579l-4.431-3.983h10.486c4.242 0 7.609 0.644 10.073 1.918 2.478 1.274 4.445 3.143 5.908 5.621 1.449 2.471 2.191 5.166 2.191 8.092 0 2.079-0.413 4.074-1.211 5.985-0.812 1.904-1.96 3.584-3.444 5.033-1.512 1.491-3.283 2.611-5.292 3.367-1.176 0.462-2.268 0.777-3.241 0.938-0.98 0.154-2.863 0.224-5.642 0.224h-9.842 9.842c2.779 0 4.662-0.07 5.642-0.224 0.973-0.161 2.065-0.476 3.241-0.938 2.009-0.756 3.78-1.876 5.292-3.367 1.484-1.449 2.632-3.129 3.444-5.033 0.798-1.911 1.211-3.906 1.211-5.985 0-2.926-0.742-5.621-2.191-8.092-1.463-2.478-3.43-4.347-5.908-5.621-2.464-1.274-5.831-1.918-10.073-1.918h-10.486l4.431 3.983h5.579c2.156 0 3.71 0.084 4.669 0.245 0.973 0.161 1.995 0.49 3.066 1.001 1.092 0.504 2.051 1.162 2.884 1.953 2.261 2.107 3.395 4.837 3.395 8.19 0 3.416-1.099 6.244-3.304 8.477-0.693 0.679-1.442 1.267-2.275 1.75-0.826 0.462-1.848 0.847-3.094 1.162-1.239 0.287-2.975 0.434-5.208 0.434h-5.684z" fill="#fff"/>
   <path d="m255.47 1094 4.473-3.983h5.684c2.233 0 3.969-0.147 5.208-0.434 1.246-0.315 2.268-0.7 3.094-1.162 0.833-0.483 1.582-1.071 2.275-1.75 2.205-2.233 3.304-5.061 3.304-8.477 0-3.353-1.134-6.083-3.395-8.19-0.833-0.791-1.792-1.449-2.884-1.953-1.071-0.511-2.093-0.84-3.066-1.001-0.959-0.161-2.513-0.245-4.669-0.245h-5.579l-4.431-3.983h10.486c4.242 0 7.609 0.644 10.073 1.918 2.478 1.274 4.445 3.143 5.908 5.621 1.449 2.471 2.191 5.166 2.191 8.092 0 2.079-0.413 4.074-1.211 5.985-0.812 1.904-1.96 3.584-3.444 5.033-1.512 1.491-3.283 2.611-5.292 3.367-1.176 0.462-2.268 0.777-3.241 0.938-0.98 0.154-2.863 0.224-5.642 0.224z" fill="#fff"/>
   <path d="m259.95 1066.9-4.466-4.011v31.178l4.466-3.983v-13.699z" fill="#ea8d86"/>
   <path d="m233.48 1080.5-0.014 13.566 4.473-4.025-0.014-9.541z" fill="#ea8d86"/>
   <path d="m238.04 1076.4-0.084-9.352-4.473-4.144v13.496z" fill="#ea8d86"/>
  </g>
 </g>
</svg>
