<svg version="1.1" viewBox="0 0 1e3 752.02" xmlns="http://www.w3.org/2000/svg">
 <defs>
  <linearGradient id="a" x1="490.45" x2="1492.3" y1="1253.1" y2="1253.1" gradientUnits="userSpaceOnUse">
   <stop stop-color="#4d5764" offset="0"/>
   <stop stop-color="#505a6a" offset=".05"/>
   <stop stop-color="#525f6f" offset=".1"/>
   <stop stop-color="#576474" offset=".15"/>
   <stop stop-color="#5c6d79" offset=".2"/>
   <stop stop-color="#647480" offset=".25"/>
   <stop stop-color="#6d7981" offset=".3"/>
   <stop stop-color="#757b83" offset=".35"/>
   <stop stop-color="#79797e" offset=".4"/>
   <stop stop-color="#747275" offset=".45"/>
   <stop stop-color="#68666b" offset=".5"/>
   <stop stop-color="#5e5f64" offset=".55"/>
   <stop stop-color="#595e5f" offset=".6"/>
   <stop stop-color="#636661" offset=".65"/>
   <stop stop-color="#706f66" offset=".7"/>
   <stop stop-color="#817b6a" offset=".75"/>
   <stop stop-color="#92816b" offset=".8"/>
   <stop stop-color="#9e836b" offset=".85"/>
   <stop stop-color="#a28168" offset=".9"/>
   <stop stop-color="#9d7961" offset=".95"/>
   <stop stop-color="#926f5a" offset="1"/>
  </linearGradient>
 </defs>
 <g transform="translate(-490.45 -523.14)">
  <rect x="490.95" y="523.64" width="999" height="751.02" fill="url(#a)"/>
  <g transform="matrix(1.6291 0 0 1.6291 625.61 -819.88)" fill="#fff">
   <g transform="matrix(.82302 0 0 -.82302 189.64 997.28)">
    <path d="m0 0c0-11.25-14-10.583-14-10.583h-14v20.333h14c14.417 0.083 14-9.75 14-9.75m-28 40.75h10.667c11.083-0.584 10.666-8.833 10.666-8.833 0-10.25-12.25-10.417-12.25-10.417h-9.083v19.25zm25.417-23.25s9.583 4.083 9.5 14.917c0 0 1.457 17.749-22.063 19.916h-26.104v-74.416h29.917s25-0.084 25 21c0 0 0.583 14.333-16.25 18.583m-67.545 49.416h109.88v-103.54h-109.88v103.54z" fill="#fff"/>
   </g>
   <g transform="matrix(.82302 0 0 -.82302 85.355 997.28)">
    <path d="m0 0c0-11.25-14-10.583-14-10.583h-14v20.333h14c14.417 0.083 14-9.75 14-9.75m-28 40.75h10.667c11.083-0.584 10.666-8.833 10.666-8.833 0-10.25-12.25-10.417-12.25-10.417h-9.083v19.25zm25.417-23.25s9.583 4.083 9.5 14.917c0 0 1.457 17.749-22.063 19.916h-26.104v-74.416h29.917s25-0.084 25 21c0 0 0.583 14.333-16.25 18.583m-67.545 49.416h109.88v-103.54h-109.88v103.54z" fill="#fff"/>
   </g>
   <g transform="matrix(.82302 0 0 -.82302 308.19 958.6)">
    <path d="m0 0v-13.75s-13.417 8.25-28.25 8.417c0 0-27.666 0.54-28.916-26.522 0 0-1-24.895 28.583-26.312 0 0 12.417-1.5 29.25 9.25v-14.25s-22.583-13.416-48.75-3.083c0 0-22 8.04-22.834 34.395 0 0-0.917 27.105 28.417 36.105 0 0 7.834 3 21.917 1.667 0 0 8.416-0.834 20.583-5.917m-87.461-83.627h109.88v103.54h-109.88v-103.54z" fill="#fff"/>
   </g>
  </g>
  <path d="m670.73 1071v-181.56h123.99v33.654h-88.564v44.282h69.08v32.769h-69.08v70.851z" fill="#fff"/>
  <path d="m819.52 889.41h35.426v181.56h-35.426z" fill="#fff"/>
  <path d="m892.14 889.4v181.56h35.426v-61.995h29.226l35.426 61.995h40.739l-41.404-68.305s33.599-10.384 33.599-52.529c0-37.778-24.701-60.722-71.792-60.722h-61.22zm35.426 33.654h27.455c21.902 0 33.045 10.512 33.045 26.237 0 15.298-10.234 26.901-28.949 26.901h-31.551v-53.138z" fill="#fff"/>
  <path d="m1039.9 1020.1 34.635-9.6472c7.5351 18.612 19.426 31.788 40.961 31.788 16.126 0 28.625-9.4823 28.625-21.35 0-34.474-97.578-21.875-97.578-82.396 0-29.622 28.365-52.98 65.158-52.98 36.244 0 59.595 20.64 68.953 48.552l-34.477 11.229c-5.6394-18.203-18.477-27.992-36.374-27.992-14.122 0-26.253 6.3354-26.253 18.82 0 30.312 98.527 21.266 98.527 83.503 0 31.333-26.245 55.194-68.162 55.194-37.123 0-62.316-19.97-74.014-54.72z" fill="#fff"/>
  <path d="m1284.5 1071h-36.311v-147.9h-55.795v-33.654h147.9v33.654h-55.795z" fill="#fff"/>
 </g>
</svg>
