<svg width="1e3" height="1e3" version="1.1" viewBox="0 0 264.58 264.58" xmlns="http://www.w3.org/2000/svg">
 <link href="" rel="stylesheet" type="text/css"/>
 <style type="text/css"/>
 <g transform="translate(169.39 -367.11)">
  <path d="m-169.39 367.11h264.58v264.58h-264.58z" fill="#b90005" font-family="sans-serif" font-size="40px" letter-spacing="0px" word-spacing="0px"/>
  <path d="m-30.45 446.92c0 4.7641-5.9284 4.4814-5.9284 4.4814h-5.9283v-8.6084h5.9283c6.1011-0.0419 5.9284 4.127 5.9284 4.127m-11.857-17.255h4.5174c4.691 0.24802 4.514 3.7403 4.514 3.7403 0 4.3404-5.1871 4.411-5.1871 4.411h-3.8443zm10.76 9.8442s4.0578-1.7292 4.0217-6.3155c0 0 0.61713-7.5164-9.3415-8.4332h-11.05v31.51h12.666s10.583 0.0314 10.583-8.8908c-1.5e-4 0 0.25021-6.0718-6.8795-7.8709m-28.598-20.923h46.524v43.841h-46.524zm-23.955 28.334c0 4.7641-5.9284 4.4814-5.9284 4.4814h-5.9288v-8.6084h5.9288c6.1015-0.0419 5.9284 4.127 5.9284 4.127m-11.857-17.255h4.5184c4.6911 0.24802 4.5136 3.7403 4.5136 3.7403 0 4.3404-5.1867 4.411-5.1867 4.411h-3.8452zm10.761 9.8442s4.0584-1.7292 4.022-6.3155c0 0 0.61665-7.5164-9.342-8.4332h-11.051v31.51h12.667s10.583 0.0314 10.583-8.8908c0 0 0.24947-6.0718-6.8796-7.8709m-28.598-20.923h46.524v43.841h-46.524zm144.33 8.4333v5.8216s-5.6825-3.4921-11.962-3.5624c0 0-11.715-0.23011-12.243 11.23 0 0-0.4232 10.539 12.102 11.139 0 0 5.2554 0.63294 12.385-3.9134v6.0291s-9.5636 5.682-20.642 1.3056c0 0-9.3132-3.4009-9.6679-14.561 0 0-0.38733-11.478 12.034-15.288 0 0 3.3169-1.2698 9.2775-0.70543 1.4e-4 -1.6e-4 3.5626 0.35225 8.7176 2.5047m-37.033 35.408h46.524v-43.841h-46.524z" fill="#fff" stroke-width=".15382"/>
  <g fill="#fff" font-family="'BBC Reith Sans'" font-size="40px" font-weight="500" letter-spacing="0px" word-spacing="0px">
   <path d="m-101.85 521.46q-1.9151-6.6253-3.7785-13.302-1.8634-6.6771-3.6232-13.354-1.7599 6.6253-3.6232 13.354-1.8116 6.6771-3.7268 13.302h-6.9359q-2.7433-9.0581-5.2278-18.323t-4.7102-18.686h7.0912q1.5011 7.557 3.1574 15.166 1.7081 7.5571 3.5715 14.804 1.9669-7.1429 3.7785-14.234 1.8634-7.0912 3.5715-14.182h6.4701q1.7081 7.0394 3.5197 14.027 1.8116 6.9877 3.7268 13.975 1.8634-7.1947 3.5197-14.648 1.6563-7.4535 3.1574-14.907h6.9359q-2.2775 9.4204-4.762 18.686-2.4845 9.2651-5.176 18.323z"/>
   <path d="m-63.911 483.68q4.1408 0 7.4535 1.3458t5.6937 3.882q2.4327 2.5363 3.675 6.1078 1.294 3.5715 1.294 7.9711t-1.294 7.9711q-1.2422 3.5197-3.6232 6.056t-5.7454 3.882q-3.3127 1.3458-7.4535 1.3458t-7.4535-1.3458-5.7454-3.882q-2.381-2.5362-3.675-6.1077-1.2422-3.5715-1.2422-7.9712 0-4.3996 1.2422-7.9193 1.294-3.5715 3.675-6.1078t5.6936-3.882q3.3644-1.3458 7.5053-1.3458zm0 32.868q3.5197 0 6.056-1.6046 2.5363-1.6563 3.882-4.6584 1.3458-3.0539 1.3458-7.2982 0-4.2961-1.3458-7.2982-1.3458-3.0539-3.882-4.6584-2.5363-1.6563-6.056-1.6563t-6.056 1.6563q-2.5363 1.6046-3.882 4.6584-1.3458 3.0021-1.3458 7.2464 0 4.2444 1.3458 7.2983 1.3458 3.0538 3.882 4.7102 2.5363 1.6046 6.056 1.6046z"/>
   <path d="m-31.701 507.28v14.182h-6.47v-37.009h12.733q7.1947 0 11.025 3.0021 3.8303 2.9504 3.8303 8.437 0 3.675-1.8634 6.3148-1.8634 2.588-5.3313 3.882 2.4327 3.7268 4.8137 7.557 2.381 3.8303 4.7102 7.8158h-7.557q-2.0187-3.6232-4.1408-7.1429-2.0704-3.5197-4.2444-7.0912-0.62113 0.0524-1.294 0.0524zm0-17.599v12.371h5.8489q4.2961 0 6.4701-1.4493 2.1739-1.501 2.1739-4.7102 0-3.2091-2.1739-4.7102-2.1739-1.501-6.4183-1.501z"/>
   <path d="m-3.1918 484.46h6.5736v31.315h18.22v5.6937h-24.793z"/>
   <path d="m27.432 521.46v-37.009h13.509q5.7972 0 9.8862 2.1739 4.1408 2.174 6.3148 6.3148 2.2257 4.0891 2.2257 9.938 0 5.9007-2.2257 10.042-2.1739 4.1408-6.3148 6.3666-4.0891 2.1739-9.938 2.1739zm6.5736-31.419v25.828h6.5218q5.7972 0 8.9028-3.3127t3.1056-9.6792q0-6.263-3.0539-9.5239-3.0539-3.3127-8.9028-3.3127z"/>
   <path d="m-85.201 572.92q-2.9504-4.6066-6.056-9.3169-3.0539-4.7102-6.1077-9.3169-3.0539-4.6066-6.056-8.9546v27.588h-6.3148v-37.009h6.6253q4.6584 6.7289 9.1616 13.561 4.5549 6.8324 9.0581 13.872v-27.433h6.3148v37.009z"/>
   <path d="m-69.655 535.91h24.742v5.5384h-18.168v9.5757h16.201v5.5384h-16.201v10.818h19.151v5.5384h-25.725z"/>
   <path d="m-7.502 572.92q-1.9151-6.6253-3.7785-13.302-1.8634-6.6771-3.6232-13.354-1.7598 6.6253-3.6232 13.354-1.8116 6.6771-3.7268 13.302h-6.9359q-2.7433-9.0581-5.2278-18.323-2.4845-9.2651-4.7102-18.686h7.0912q1.5011 7.5571 3.1574 15.166 1.7081 7.5571 3.5715 14.804 1.9669-7.1429 3.7785-14.234 1.8634-7.0912 3.5715-14.182h6.47q1.7081 7.0394 3.5197 14.027 1.8116 6.9877 3.7268 13.975 1.8634-7.1947 3.5197-14.648 1.6563-7.4535 3.1574-14.907h6.9359q-2.2775 9.4204-4.762 18.686-2.4845 9.2651-5.176 18.323z"/>
   <path d="m24.646 573.69q-3.0021 0-5.9525-0.67288-2.9504-0.67293-5.5384-2.0704v-6.0042q5.3313 3.3127 11.594 3.3127 3.882 0 5.9525-1.4493 2.1222-1.4493 2.1222-3.9856 0-1.4493-0.62112-2.3809-0.62113-0.98346-1.7081-1.6046-1.0352-0.67288-2.4328-1.087-1.3458-0.41414-2.8468-0.77639-2.7433-0.67288-5.0208-1.501-2.2257-0.87995-3.882-2.0704-1.6046-1.1905-2.4845-2.9504-0.87992-1.7598-0.87992-4.2961 0-3.4162 1.7081-5.849 1.7081-2.4845 4.8655-3.8303t7.5053-1.3458q2.8468 0 5.6419 0.67288t4.969 1.8116v5.849q-2.0704-1.294-4.8655-2.0704-2.7433-0.82816-5.8489-0.82816-3.5197 0-5.4866 1.3458-1.9669 1.294-1.9669 3.7268 0 1.7598 0.93168 2.7951 0.9317 0.9834 2.6398 1.6046 1.7081 0.56938 3.9856 1.1388 2.4845 0.6211 4.7102 1.3975 2.2775 0.77638 3.9856 2.0186 1.7598 1.1905 2.7433 3.0539 0.98345 1.8634 0.98345 4.6584 0 3.5715-1.7598 6.1078-1.7599 2.5363-5.1243 3.9338-3.3127 1.3458-7.9194 1.3458z"/>
  </g>
 </g>
</svg>
