<?xml version="1.0" encoding="UTF-8"?>
<!-- Created with Inkscape (http://www.inkscape.org/) -->
<svg id="svg2" width="1015.7" height="761.78" version="1.0" xmlns="http://www.w3.org/2000/svg" xmlns:cc="http://creativecommons.org/ns#" xmlns:dc="http://purl.org/dc/elements/1.1/" xmlns:rdf="http://www.w3.org/1999/02/22-rdf-syntax-ns#">
 <defs id="defs4">
  <clipPath id="clipPath2412">
   <path id="path2414" d="m121.25 357.16h168v126h-168v-126z"/>
  </clipPath>
 </defs>
 <metadata id="metadata7">
  <rdf:RDF>
   <cc:Work rdf:about="">
    <dc:format>image/svg+xml</dc:format>
    <dc:type rdf:resource="http://purl.org/dc/dcmitype/StillImage"/>
    <dc:title/>
   </cc:Work>
  </rdf:RDF>
 </metadata>
 <g id="layer1" transform="translate(-4.3863 -5.1347)">
  <g id="g2408" transform="matrix(6.0459 0 0 -6.0459 -728.71 2926.3)">
   <g id="g2410" clip-path="url(#clipPath2412)">
    <path id="path2416" d="m121.25 483.17h168v-126h-168v126z" fill="#c02519" fill-rule="evenodd"/>
    <path id="path2418" d="m174.47 399.79h3.356v-24.669h-3.038l-16.494 19v-19h-3.319v24.669h2.86l16.635-19.16v19.16z" fill="#fff"/>
    <path id="path2420" d="m184.19 399.79h13.986v-3.142h-10.454v-7.523h10.101v-3.161h-10.101v-7.665h10.789v-3.143h-14.321v24.634z" fill="#fff"/>
    <path id="path2422" d="m235.87 399.79h3.522l-9.975-24.776h-0.776l-8.066 20.062-8.15-20.062h-0.758l-9.943 24.776h3.558l6.798-17.005 6.845 17.005h3.339l6.876-17.005 6.73 17.005z" fill="#fff"/>
    <path id="path2424" d="m248.96 385.46-2.684 1.631c-1.684 1.028-2.882 2.039-3.594 3.034s-1.069 2.14-1.069 3.435c0 1.943 0.674 3.52 2.023 4.732 1.347 1.213 3.099 1.82 5.254 1.82 2.059 0 3.949-0.579 5.669-1.735v-4.009c-1.778 1.71-3.692 2.565-5.74 2.565-1.154 0-2.102-0.267-2.844-0.801-0.741-0.533-1.113-1.216-1.113-2.049 0-0.738 0.274-1.431 0.82-2.075 0.547-0.646 1.425-1.323 2.636-2.031l2.698-1.597c3.009-1.798 4.513-4.086 4.513-6.864 0-1.978-0.662-3.585-1.986-4.821-1.325-1.236-3.047-1.853-5.166-1.853-2.436 0-4.655 0.747-6.657 2.246v4.486c1.906-2.417 4.114-3.625 6.622-3.625 1.107 0 2.028 0.308 2.764 0.924s1.104 1.387 1.104 2.314c0 1.501-1.084 2.925-3.25 4.273" fill="#fff"/>
    <path id="path2426" d="m172.99 433.4h3.523l-9.974-24.776h-0.777l-8.066 20.06-8.15-20.06h-0.758l-9.944 24.776h3.56l6.798-17.007 6.844 17.007h3.339l6.876-17.007 6.729 17.007z" fill="#fff"/>
    <path id="path2428" d="m190.41 430.4c-2.824 0-5.144-0.883-6.961-2.648-1.818-1.767-2.726-4.022-2.726-6.764 0-2.661 0.912-4.875 2.735-6.641 1.823-1.765 4.105-2.648 6.846-2.648 2.751 0 5.048 0.901 6.89 2.702 1.84 1.801 2.76 4.044 2.76 6.728 0 2.614-0.92 4.812-2.76 6.596-1.842 1.784-4.103 2.675-6.784 2.675m-0.142 3.356c3.812 0 6.986-1.207 9.521-3.621 2.535-2.413 3.804-5.439 3.804-9.076 0-3.639-1.28-6.649-3.839-9.034-2.559-2.383-5.785-3.575-9.681-3.575-3.716 0-6.814 1.192-9.29 3.575-2.477 2.385-3.716 5.372-3.716 8.963 0 3.685 1.247 6.734 3.741 9.147 2.495 2.414 5.648 3.621 9.46 3.621" fill="#fff"/>
    <path id="path2430" d="m212.27 430.4h-1.059v-7.788h1.342c1.789 0 3.016 0.153 3.682 0.46 0.665 0.305 1.183 0.768 1.554 1.385 0.371 0.618 0.556 1.322 0.556 2.112 0 0.776-0.206 1.479-0.618 2.11-0.412 0.63-0.992 1.074-1.739 1.332-0.748 0.26-1.988 0.389-3.718 0.389m-4.591-21.668v24.671h6.18c2.496 0 4.478-0.618 5.943-1.854 1.466-1.237 2.198-2.908 2.198-5.016 0-1.437-0.358-2.679-1.076-3.727-0.719-1.047-1.749-1.831-3.091-2.348 0.789-0.519 1.56-1.225 2.313-2.12 0.754-0.894 1.813-2.453 3.179-4.678 0.86-1.402 1.549-2.456 2.066-3.161l1.307-1.767h-4.203l-1.076 1.625c-0.036 0.059-0.106 0.16-0.212 0.301l-0.687 0.972-1.094 1.802-1.182 1.926c-0.728 1.013-1.396 1.819-2.003 2.419-0.607 0.599-1.156 1.031-1.644 1.296-0.49 0.263-1.312 0.396-2.467 0.396h-0.919v-10.737h-3.532z" fill="#fff"/>
    <path id="path2432" d="m230.14 433.4h3.532v-21.457h11.107v-3.214h-14.639v24.671z" fill="#fff"/>
    <path id="path2434" d="m256.94 430.26h-4.415v-18.348h4.52c1.767 0 3.138 0.12 4.116 0.362 0.976 0.241 1.791 0.548 2.446 0.918 0.652 0.372 1.25 0.827 1.791 1.369 1.742 1.766 2.614 3.996 2.614 6.693 0 2.649-0.895 4.809-2.684 6.48-0.659 0.624-1.416 1.137-2.269 1.537-0.855 0.4-1.664 0.665-2.429 0.795-0.765 0.129-1.995 0.194-3.69 0.194m-7.947-21.491v24.635h8.317c3.356 0 6.01-0.504 7.966-1.511 1.954-1.006 3.507-2.486 4.661-4.441 1.154-1.954 1.731-4.085 1.731-6.392 0-1.649-0.318-3.226-0.954-4.733-0.636-1.508-1.542-2.832-2.719-3.973-1.201-1.179-2.597-2.067-4.186-2.667-0.93-0.365-1.783-0.609-2.561-0.733-0.777-0.124-2.26-0.185-4.449-0.185h-7.806z" fill="#fff"/>
    <path id="path2436" d="m208.5 452.32c-2e-3 -0.528-0.164-1.06-0.636-1.473-0.471-0.414-1.286-0.729-2.636-0.729h-2.717v4.357h2.596c1.211 0 2.07-0.246 2.609-0.629 0.537-0.386 0.78-0.893 0.784-1.526" fill="#fff"/>
    <path id="path2438" d="m206.3 457.53c0.506 0.364 0.75 0.88 0.753 1.653-2e-3 0.531-0.154 0.986-0.536 1.325-0.383 0.34-1.033 0.581-2.083 0.581h-1.922v-4.129h1.319c1.142 0 1.96 0.203 2.469 0.57" fill="#fff"/>
    <path id="path2440" d="m211.43 452c7e-3 2.014-1.334 3.545-3.481 4.133 0.58 0.296 1.038 0.658 1.374 1.099 0.448 0.592 0.663 1.317 0.66 2.163 3e-3 1.038-0.406 2.097-1.283 2.89-0.878 0.792-2.21 1.305-4.028 1.304h-5.021v-15.966h5.893c2.102 0 3.578 0.57 4.528 1.415 0.951 0.841 1.359 1.945 1.358 2.962m5.597-7.471h-23.557v22.168h23.557v-22.168z" fill="#fff"/>
    <path id="path2442" d="m179.16 457.53c0.505 0.364 0.75 0.88 0.754 1.653-1e-3 0.531-0.154 0.986-0.536 1.325-0.384 0.34-1.034 0.581-2.085 0.581h-1.92v-4.129h1.319c1.141 0 1.959 0.203 2.468 0.57" fill="#fff"/>
    <path id="path2444" d="m180.58 453.84c-0.538 0.383-1.398 0.629-2.608 0.629h-2.596v-4.357h2.717c1.35 0 2.163 0.315 2.635 0.729 0.472 0.413 0.635 0.945 0.636 1.473-4e-3 0.633-0.247 1.14-0.784 1.526" fill="#fff"/>
    <path id="path2446" d="m184.29 452c7e-3 2.014-1.336 3.545-3.48 4.133 0.578 0.296 1.036 0.658 1.371 1.099 0.45 0.592 0.663 1.317 0.662 2.163 1e-3 1.038-0.407 2.097-1.284 2.89-0.877 0.792-2.209 1.305-4.027 1.304h-5.022v-15.966h5.893c2.103 0 3.578 0.57 4.528 1.415 0.95 0.841 1.361 1.945 1.359 2.962m5.597-7.471h-23.556v22.168h23.556v-22.168z" fill="#fff"/>
    <path id="path2448" d="m239.5 451.89-0.378-0.231c-1.824-1.114-3.808-1.711-5.61-1.71-3.858 0.015-6.398 2.301-6.408 5.627 4e-3 3.255 2.657 5.664 6.31 5.672 1.861-1e-3 3.546-0.482 5.549-1.58l0.368-0.202v2.971l-0.158 0.062c-2.258 0.891-4.007 1.288-5.734 1.287-2.671 1e-3 -4.988-0.881-6.639-2.377-1.65-1.497-2.631-3.61-2.629-6.037 1e-3 -1.691 0.698-3.672 2.192-5.245 1.489-1.573 3.784-2.719 6.931-2.718h0.011c2.61 0 4.42 0.581 6.056 1.388l0.139 0.068v3.025zm4.678-7.368h-23.556v22.168h23.556v-22.168z" fill="#fff"/>
   </g>
  </g>
 </g>
</svg>
