<svg width="800" height="605.91" version="1.1" viewBox="0 0 211.67 160.31" xmlns="http://www.w3.org/2000/svg">
 <text x="23.831343" y="166.97937" display="none" fill="#000000" font-family="'BBC Reith Sans'" font-size="49.729px" font-weight="bold" letter-spacing="0px" stroke-width="1.2432" style="line-height:1.25" xml:space="preserve"><tspan x="-33.856682" y="-33.531498" font-family="'BBC Reith Sans'" font-weight="bold" stroke-width="1.2432">NEWS</tspan></text>
 <g transform="matrix(1.4687 0 0 1.4687 -49.725 -153.33)" fill="#b90005" stroke-width=".79">
  <path d="m57.743 177.08q-1.3357-4.7536-2.6322-9.5072-1.2572-4.7536-2.475-9.5073-1.1786 4.7536-2.4357 9.5073-1.2572 4.7536-2.5929 9.5072h-6.4036q-2.0036-6.8751-3.85-13.907-1.8465-7.0322-3.4965-14.182h6.6001q0.98216 5.4608 2.0822 10.922 1.1 5.4608 2.3179 10.725 2.6322-10.254 4.9893-20.468h5.8929q1.1786 5.0286 2.3965 10.057 1.2572 4.9893 2.5536 9.9787 1.1786-5.1858 2.2786-10.529 1.1-5.3429 2.0429-10.686h6.4822q-1.65 7.1501-3.4965 14.182-1.8465 7.0322-3.85 13.907z"/>
  <path d="m86.777 148.4q3.1822 0 5.7358 1.0214 2.5929 1.0214 4.4 2.9465 1.8465 1.8857 2.8286 4.5965 0.98216 2.6715 0.98216 6.05 0 3.3393-0.98216 6.0501-0.98214 2.7107-2.8286 4.6358-1.8072 1.925-4.4 2.9465-2.5536 1.0214-5.7358 1.0214t-5.7751-1.0214q-2.5536-1.0214-4.4001-2.9465-1.8072-1.925-2.7893-4.6358-0.98215-2.7108-0.98215-6.0501 0-3.3786 0.98215-6.05 0.98216-2.7107 2.7893-4.5965 1.8464-1.925 4.4001-2.9465 2.5929-1.0214 5.7751-1.0214zm0 24.004q2.3965 0 4.1251-1.1 1.7286-1.1393 2.6322-3.2215 0.90359-2.0822 0.90359-5.0679t-0.90359-5.0679q-0.90358-2.0822-2.6322-3.1822-1.7286-1.1-4.1251-1.1t-4.125 1.1q-1.7286 1.1-2.6322 3.1822-0.90358 2.0822-0.90358 5.0679 0 2.9858 0.90358 5.0679 0.90358 2.0822 2.6322 3.2215 1.7286 1.1 4.125 1.1z"/>
  <path d="m110.74 166.87v10.214h-5.9715v-28.09h10.254q5.5394 0 8.4858 2.3179 2.9857 2.3179 2.9857 6.6394 0 2.7893-1.3357 4.7536-1.2965 1.9643-3.7322 3.025 1.7679 2.7893 3.4965 5.6179 1.7286 2.7893 3.4572 5.7358h-6.9537q-2.8286-5.1858-5.8537-10.214-0.31426 0-0.58927 0zm0-4.7536h3.9286q2.7893 0 4.2429-0.98215 1.4536-1.0214 1.4536-3.1822t-1.4536-3.1822q-1.4143-1.0214-4.2036-1.0214h-3.9679z"/>
  <path d="m131.01 148.99h6.0501v22.825h13.318v5.2644h-19.368z"/>
  <path d="m153.19 148.99h10.725q4.4393 0 7.5822 1.65 3.1822 1.65 4.8322 4.7929 1.65 3.1036 1.65 7.543 0 4.4393-1.6893 7.6215-1.65 3.1429-4.7929 4.8322-3.1429 1.65-7.6215 1.65h-10.686zm10.372 22.904q3.9286 0 6.0108-2.2786 2.1214-2.3179 2.1214-6.6394 0-4.2822-2.0822-6.5215-2.0429-2.2786-6.0108-2.2786h-4.3608v17.718z"/>
 </g>
 <path class="st0" d="m22.739-2.2835e-6v47.122h47.493v-47.122zm59.356 0v47.122h47.452v-47.122zm59.274 0v47.122h47.493v-47.122zm25.902 10.019c1.4778 0 2.8734 0.12218 4.187 0.44803 1.3546 0.3258 2.545 0.73307 3.6944 1.344v5.1317c-1.0262-0.69237-2.1756-1.1811-3.3659-1.5477-1.2315-0.36652-2.5451-0.57015-3.7765-0.4887-1.8472 0-3.407 0.32583-4.7206 1.0182-1.2725 0.65167-2.2987 1.7106-2.9555 2.9324-0.69783 1.2626-1.0262 2.851-1.0262 4.6837 0 1.8328 0.32838 3.4212 1.0262 4.7244 0.65678 1.2626 1.642 2.2808 2.9144 2.9731 1.2725 0.69239 2.8324 1.0182 4.5975 1.0182 2.7503 0 5.2953-0.73311 7.6761-2.1586v5.091h-0.041c-1.1083 0.61089-2.3808 1.0996-3.8175 1.4255-1.4778 0.36655-2.9966 0.48874-4.5975 0.48874-2.1345 0-4.0638-0.32583-5.7879-0.93674-1.724-0.65166-3.1197-1.5069-4.3512-2.6473-1.1904-1.1404-2.0935-2.5658-2.7092-4.2764-0.65677-1.7105-0.94413-3.584-0.94413-5.6611s0.3284-3.9099 0.9852-5.5797c0.65675-1.6291 1.6009-3.0546 2.8323-4.2764 1.2315-1.1811 2.7092-2.1179 4.4333-2.688 1.683-0.69238 3.6122-1.0182 5.7468-1.0182zm-131.19 0.28509h10.016c2.9555 0 5.2542 0.61092 6.8552 1.7513 1.6009 1.1811 2.4629 2.8509 2.4629 5.0502 0 1.2626-0.28733 2.3215-0.86201 3.299-0.61574 0.93673-1.4367 1.6291-2.5861 2.1993 1.5598 0.48874 2.7503 1.344 3.6123 2.4844 0.82098 1.0997 1.2315 2.4844 1.2315 4.0728 0.041 1.5884-0.36946 2.9731-1.1904 4.1135-0.82095 1.1404-1.9703 1.9957-3.4481 2.6066-1.5188 0.61092-3.3249 0.93673-5.4184 0.93673h-10.673zm59.397 0h10.016c2.9555 0 5.2542 0.61092 6.8551 1.7513 1.6009 1.1811 2.4629 2.8509 2.4629 5.0502 0 1.2626-0.28731 2.3215-0.86201 3.299-0.61573 0.93673-1.4367 1.6291-2.5861 2.1993 1.5598 0.48874 2.7503 1.344 3.6123 2.4844 0.82097 1.0997 1.2314 2.4844 1.2314 4.0728-0.041 1.5884-0.45149 2.9731-1.2314 4.1135-0.82098 1.1404-1.9703 1.9957-3.4481 2.6066-1.5188 0.61092-3.325 0.93673-5.4184 0.93673h-10.632zm-54.02 4.3172v6.5572h4.1049c1.4367 0 2.504-0.32584 3.2428-0.93673 0.73887-0.61094 1.1083-1.4662 1.1083-2.5251 0-2.1178-1.4367-3.1768-4.3512-3.1768zm59.356 0v6.5572h4.1049c1.4367 0 2.504-0.32584 3.2428-0.93673 0.73893-0.61094 1.1084-1.4662 1.1084-2.5251 0-2.1178-1.4367-3.1768-4.3512-3.1768zm-59.356 10.752v7.1274h4.7206c1.6009 0 2.8734-0.32584 3.7354-0.93673 0.86201-0.61092 1.2725-1.4662 1.2725-2.6066 0.041-2.4437-1.6009-3.6248-4.9258-3.6248h-4.8027zm59.356 0v7.1274h4.7206c1.6009 0 2.8734-0.32584 3.7355-0.93673 0.86201-0.61092 1.2725-1.4662 1.2725-2.6066 0.041-2.4437-1.6009-3.6248-4.9258-3.6248h-4.8027z" fill="#b90005" stroke-width=".40888"/>
 <g transform="matrix(1.4687 0 0 1.4687 -49.725 -75.615)" fill="#b90005" stroke-width="2.2542">
  <path d="m152.51 160.64a20.761 20.761 0 0 1-4.5829-0.51205 17.538 17.538 0 0 1-4.3461-1.6118v-5.4282c2.8064 1.7042 5.782 2.5563 8.929 2.5563 1.7831 0 3.1402-0.30246 4.0712-0.90397a2.8403 2.8403 0 0 0 1.3976-2.518c0-0.81367-0.23003-1.4495-0.68755-1.9071-0.45753-0.45753-1.0685-0.82475-1.8282-1.1023-0.75995-0.27688-1.6118-0.53163-2.5563-0.76678a29.26 29.26 0 0 1-4.0915-1.2579c-1.179-0.47116-2.1776-1.0279-2.9892-1.6726-0.81108-0.64498-1.4291-1.4157-1.8485-2.3196-0.41917-0.90395-0.62877-1.986-0.62877-3.2461 0-1.783 0.45327-3.3182 1.3571-4.6031 0.90396-1.2849 2.1821-2.2745 3.8345-2.9711 1.6524-0.69694 3.6158-1.0415 5.8971-1.0415a19.116 19.116 0 0 1 4.4048 0.51205 17.899 17.899 0 0 1 3.8953 1.3773v5.3493a14.907 14.907 0 0 0-3.9134-1.6524 16.749 16.749 0 0 0-4.3868-0.59044c-1.6005 0-2.8381 0.27521-3.7172 0.82475-0.87917 0.55037-1.3187 1.3368-1.3187 2.3602 0 0.73442 0.2096 1.3187 0.62877 1.7515 0.4192 0.43281 1.0167 0.78638 1.7899 1.0618a29.643 29.643 0 0 0 2.7344 0.80682l3.7375 1.1203a12.128 12.128 0 0 1 3.0477 1.5532 6.4696 6.4696 0 0 1 2.0446 2.3985c0.48479 0.97152 0.72845 2.1641 0.72845 3.5797 0 1.8619-0.46008 3.4557-1.3773 4.7789-0.91742 1.3232-2.243 2.3354-3.9742 3.0297-1.7312 0.69438-3.8164 1.0415-6.2555 1.0415z"/>
  <path d="m126.79 160.05-2.6149-9.5196-2.4977-9.5197-2.4391 9.5197-2.5969 9.5196h-6.411l-3.8547-13.924-3.5008-14.199h6.6094l2.0852 10.935 2.3196 10.739 4.9953-20.493h5.8994l2.4188 10.049 2.5383 10.011 2.2813-10.543 2.0445-10.699h6.49l-3.5008 14.202-3.8547 13.924h-6.411z"/>
  <path d="m79.453 131.93h19.352v5.036h-13.295v6.0955h11.801v5.0337h-11.801v6.9228h14.044v5.0336h-20.101z"/>
  <path d="m67.5 160.05-6.2149-9.8533-6.2149-9.5782v19.431h-5.8227v-28.126h6.136l6.2735 9.5399 6.1563 9.6954v-19.235h5.8227v28.126z"/>
  <path d="m152.51 160.64a20.761 20.761 0 0 1-4.5829-0.51205 17.538 17.538 0 0 1-4.3461-1.6118v-5.4282c2.8064 1.7042 5.782 2.5563 8.929 2.5563 1.7831 0 3.1402-0.30246 4.0712-0.90397a2.8403 2.8403 0 0 0 1.3976-2.518c0-0.81367-0.23003-1.4495-0.68755-1.9071-0.45753-0.45753-1.0685-0.82475-1.8282-1.1023-0.75995-0.27688-1.6118-0.53163-2.5563-0.76678a29.26 29.26 0 0 1-4.0915-1.2579c-1.179-0.47116-2.1776-1.0279-2.9892-1.6726-0.81108-0.64498-1.4291-1.4157-1.8485-2.3196-0.41917-0.90395-0.62877-1.986-0.62877-3.2461 0-1.783 0.45327-3.3182 1.3571-4.6031 0.90396-1.2849 2.1821-2.2745 3.8345-2.9711 1.6524-0.69694 3.6158-1.0415 5.8971-1.0415a19.116 19.116 0 0 1 4.4048 0.51205 17.899 17.899 0 0 1 3.8953 1.3773v5.3493a14.907 14.907 0 0 0-3.9134-1.6524 16.749 16.749 0 0 0-4.3868-0.59044c-1.6005 0-2.8381 0.27521-3.7172 0.82475-0.87917 0.55037-1.3187 1.3368-1.3187 2.3602 0 0.73442 0.2096 1.3187 0.62877 1.7515 0.4192 0.43281 1.0167 0.78638 1.7899 1.0618a29.643 29.643 0 0 0 2.7344 0.80682l3.7375 1.1203a12.128 12.128 0 0 1 3.0477 1.5532 6.4696 6.4696 0 0 1 2.0446 2.3985c0.48479 0.97152 0.72845 2.1641 0.72845 3.5797 0 1.8619-0.46008 3.4557-1.3773 4.7789-0.91742 1.3232-2.243 2.3354-3.9742 3.0297-1.7312 0.69438-3.8164 1.0415-6.2555 1.0415z"/>
  <path d="m126.79 160.05-2.6149-9.5196-2.4977-9.5197-2.4391 9.5197-2.5969 9.5196h-6.411l-3.8547-13.924-3.5008-14.199h6.6094l2.0852 10.935 2.3196 10.739 4.9953-20.493h5.8994l2.4188 10.049 2.5383 10.011 2.2813-10.543 2.0445-10.699h6.49l-3.5008 14.202-3.8547 13.924h-6.411z"/>
  <path d="m79.453 131.93h19.352v5.036h-13.295v6.0955h11.801v5.0337h-11.801v6.9228h14.044v5.0336h-20.101z"/>
  <path d="m67.5 160.05-6.2149-9.8533-6.2149-9.5782v19.431h-5.8227v-28.126h6.136l6.2735 9.5399 6.1563 9.6954v-19.235h5.8227v28.126z"/>
 </g>
</svg>
