<svg width="800" height="800" version="1.1" viewBox="0 0 211.67 211.67" xmlns="http://www.w3.org/2000/svg" xmlns:xlink="http://www.w3.org/1999/xlink">
 <rect y="-4.4941e-6" width="211.67" height="211.67" fill="#b90005"/>
 <g transform="translate(0 -52.917)" fill="#fff" stroke-width=".79">
  <path d="m57.743 177.08q-1.3357-4.7536-2.6322-9.5072-1.2572-4.7536-2.475-9.5073-1.1786 4.7536-2.4357 9.5073-1.2572 4.7536-2.5929 9.5072h-6.4036q-2.0036-6.8751-3.85-13.907-1.8465-7.0322-3.4965-14.182h6.6001q0.98216 5.4608 2.0822 10.922 1.1 5.4608 2.3179 10.725 2.6322-10.254 4.9893-20.468h5.8929q1.1786 5.0286 2.3965 10.057 1.2572 4.9893 2.5536 9.9787 1.1786-5.1858 2.2786-10.529 1.1-5.3429 2.0429-10.686h6.4822q-1.65 7.1501-3.4965 14.182-1.8465 7.0322-3.85 13.907z"/>
  <path d="m86.777 148.4q3.1822 0 5.7358 1.0214 2.5929 1.0214 4.4 2.9465 1.8465 1.8857 2.8286 4.5965 0.98216 2.6715 0.98216 6.05 0 3.3393-0.98216 6.0501-0.98214 2.7107-2.8286 4.6358-1.8072 1.925-4.4 2.9465-2.5536 1.0214-5.7358 1.0214t-5.7751-1.0214q-2.5536-1.0214-4.4001-2.9465-1.8072-1.925-2.7893-4.6358-0.98215-2.7108-0.98215-6.0501 0-3.3786 0.98215-6.05 0.98216-2.7107 2.7893-4.5965 1.8464-1.925 4.4001-2.9465 2.5929-1.0214 5.7751-1.0214zm0 24.004q2.3965 0 4.1251-1.1 1.7286-1.1393 2.6322-3.2215 0.90359-2.0822 0.90359-5.0679t-0.90359-5.0679q-0.90358-2.0822-2.6322-3.1822-1.7286-1.1-4.1251-1.1t-4.125 1.1q-1.7286 1.1-2.6322 3.1822-0.90358 2.0822-0.90358 5.0679 0 2.9858 0.90358 5.0679 0.90358 2.0822 2.6322 3.2215 1.7286 1.1 4.125 1.1z"/>
  <path d="m110.74 166.87v10.214h-5.9715v-28.09h10.254q5.5394 0 8.4858 2.3179 2.9857 2.3179 2.9857 6.6394 0 2.7893-1.3357 4.7536-1.2965 1.9643-3.7322 3.025 1.7679 2.7893 3.4965 5.6179 1.7286 2.7893 3.4572 5.7358h-6.9537q-2.8286-5.1858-5.8537-10.214-0.31426 0-0.58927 0zm0-4.7536h3.9286q2.7893 0 4.2429-0.98215 1.4536-1.0214 1.4536-3.1822t-1.4536-3.1822q-1.4143-1.0214-4.2036-1.0214h-3.9679z"/>
  <path d="m131.01 148.99h6.0501v22.825h13.318v5.2644h-19.368z"/>
  <path d="m153.19 148.99h10.725q4.4393 0 7.5822 1.65 3.1822 1.65 4.8322 4.7929 1.65 3.1036 1.65 7.543 0 4.4393-1.6893 7.6215-1.65 3.1429-4.7929 4.8322-3.1429 1.65-7.6215 1.65h-10.686zm10.372 22.904q3.9286 0 6.0108-2.2786 2.1214-2.3179 2.1214-6.6394 0-4.2822-2.0822-6.5215-2.0429-2.2786-6.0108-2.2786h-4.3608v17.718z"/>
 </g>
 <text x="57.68803" y="147.59421" display="none" fill="#000000" font-family="'BBC Reith Sans'" font-size="49.729px" font-weight="bold" letter-spacing="0px" stroke-width="1.2432" style="line-height:1.25" xml:space="preserve"><tspan x="5.7004604e-06" y="-52.916664" font-family="'BBC Reith Sans'" font-weight="bold" stroke-width="1.2432">NEWS</tspan></text>
 <path class="st0" d="m49.339 51.485v32.084h32.337v-32.084zm40.415 0v32.084h32.309v-32.084zm40.359 0v32.084h32.337v-32.084zm17.636 6.8218c1.0062 0 1.9564 0.0832 2.8508 0.30504 0.92234 0.22184 1.7329 0.49915 2.5154 0.91511v3.4941c-0.69872-0.47142-1.4813-0.80419-2.2918-1.0538-0.83849-0.24957-1.7329-0.38822-2.5714-0.33276-1.2577 0-2.3198 0.22185-3.2142 0.69326-0.86643 0.4437-1.5652 1.1647-2.0123 1.9966-0.47514 0.85966-0.69873 1.9412-0.69873 3.189 0 1.2479 0.22359 2.3294 0.69873 3.2168 0.44718 0.85965 1.118 1.5529 1.9844 2.0243 0.86643 0.47143 1.9285 0.69327 3.1303 0.69327 1.8726 0 3.6055-0.49916 5.2265-1.4697v3.4664h-0.0279c-0.75462 0.41595-1.621 0.74872-2.5993 0.97058-1.0062 0.24957-2.0403 0.33277-3.1303 0.33277-1.4534 0-2.767-0.22186-3.9408-0.63781-1.1739-0.4437-2.1241-1.026-2.9626-1.8025-0.81053-0.77645-1.4254-1.747-1.8446-2.9117-0.44717-1.1647-0.64283-2.4403-0.64283-3.8546s0.2236-2.6622 0.67079-3.7991c0.44718-1.1092 1.09-2.0798 1.9285-2.9117 0.83847-0.80419 1.8446-1.442 3.0185-1.8302 1.1459-0.47143 2.4595-0.69327 3.9129-0.69327zm-89.326 0.19411h6.8196c2.0123 0 3.5775 0.41596 4.6675 1.1924 1.09 0.80419 1.677 1.9412 1.677 3.4386 0 0.85965-0.19565 1.5806-0.58694 2.2462-0.41923 0.63781-0.97822 1.1092-1.7608 1.4975 1.0621 0.33277 1.8726 0.91511 2.4595 1.6916 0.55898 0.74873 0.83848 1.6916 0.83848 2.7731 0.02791 1.0815-0.25155 2.0244-0.81054 2.8008-0.55898 0.77646-1.3416 1.3588-2.3477 1.7748-1.0341 0.41596-2.2639 0.6378-3.6893 0.6378h-7.2668zm40.443 0h6.8196c2.0124 0 3.5775 0.41596 4.6675 1.1924 1.09 0.80419 1.677 1.9412 1.677 3.4386 0 0.85965-0.19564 1.5806-0.58694 2.2462-0.41924 0.63781-0.97822 1.1092-1.7608 1.4975 1.0621 0.33277 1.8726 0.91511 2.4595 1.6916 0.55898 0.74873 0.83846 1.6916 0.83846 2.7731-0.0279 1.0815-0.30743 2.0244-0.83846 2.8008-0.55899 0.77646-1.3416 1.3588-2.3477 1.7748-1.0341 0.41596-2.2639 0.6378-3.6893 0.6378h-7.2388zm-36.781 2.9395v4.4646h2.7949c0.97822 0 1.7049-0.22184 2.208-0.6378 0.50308-0.41596 0.75463-0.99831 0.75463-1.7193 0-1.442-0.97823-2.163-2.9626-2.163zm40.415 0v4.4646h2.7949c0.97821 0 1.7049-0.22184 2.208-0.6378 0.50311-0.41596 0.75465-0.99831 0.75465-1.7193 0-1.442-0.97823-2.163-2.9626-2.163zm-40.415 7.3209v4.8529h3.2142c1.09 0 1.9564-0.22184 2.5434-0.6378 0.58693-0.41596 0.86642-0.99831 0.86642-1.7748 0.02791-1.6638-1.09-2.468-3.3539-2.468h-3.2701zm40.415 0v4.8529h3.2142c1.09 0 1.9564-0.22184 2.5434-0.6378s0.86642-0.99831 0.86642-1.7748c0.0279-1.6638-1.09-2.468-3.3539-2.468h-3.27z" fill="#fff" stroke-width=".2784"/>
 <path id="path12558" d="m152.51 160.64a20.761 20.761 0 0 1-4.5829-0.51205 17.538 17.538 0 0 1-4.3461-1.6118v-5.4282c2.8064 1.7042 5.782 2.5563 8.929 2.5563 1.7831 0 3.1402-0.30246 4.0712-0.90397a2.8403 2.8403 0 0 0 1.3976-2.518c0-0.81367-0.23003-1.4495-0.68755-1.9071-0.45753-0.45753-1.0685-0.82475-1.8282-1.1023-0.75995-0.27688-1.6118-0.53163-2.5563-0.76678a29.26 29.26 0 0 1-4.0915-1.2579c-1.179-0.47116-2.1776-1.0279-2.9892-1.6726-0.81108-0.64498-1.4291-1.4157-1.8485-2.3196-0.41917-0.90395-0.62877-1.986-0.62877-3.2461 0-1.783 0.45327-3.3182 1.3571-4.6031 0.90396-1.2849 2.1821-2.2745 3.8345-2.9711 1.6524-0.69694 3.6158-1.0415 5.8971-1.0415a19.116 19.116 0 0 1 4.4048 0.51205 17.899 17.899 0 0 1 3.8953 1.3773v5.3493a14.907 14.907 0 0 0-3.9134-1.6524 16.749 16.749 0 0 0-4.3868-0.59044c-1.6005 0-2.8381 0.27521-3.7172 0.82475-0.87917 0.55037-1.3187 1.3368-1.3187 2.3602 0 0.73442 0.2096 1.3187 0.62877 1.7515 0.4192 0.43281 1.0167 0.78638 1.7899 1.0618a29.643 29.643 0 0 0 2.7344 0.80682l3.7375 1.1203a12.128 12.128 0 0 1 3.0477 1.5532 6.4696 6.4696 0 0 1 2.0446 2.3985c0.48479 0.97152 0.72845 2.1641 0.72845 3.5797 0 1.8619-0.46008 3.4557-1.3773 4.7789-0.91742 1.3232-2.243 2.3354-3.9742 3.0297-1.7312 0.69438-3.8164 1.0415-6.2555 1.0415z" fill="#fff" stroke-width="2.2542"/>
 <path id="path12556" d="m126.79 160.05-2.6149-9.5196-2.4977-9.5197-2.4391 9.5197-2.5969 9.5196h-6.411l-3.8547-13.924-3.5008-14.199h6.6094l2.0852 10.935 2.3196 10.739 4.9953-20.493h5.8994l2.4188 10.049 2.5383 10.011 2.2813-10.543 2.0445-10.699h6.49l-3.5008 14.202-3.8547 13.924h-6.411z" fill="#fff" stroke-width="2.2542"/>
 <path id="path12554" d="m79.453 131.93h19.352v5.036h-13.295v6.0955h11.801v5.0337h-11.801v6.9228h14.044v5.0336h-20.101z" fill="#fff" stroke-width="2.2542"/>
 <path id="path12335" d="m67.5 160.05-6.2149-9.8533-6.2149-9.5782v19.431h-5.8227v-28.126h6.136l6.2735 9.5399 6.1563 9.6954v-19.235h5.8227v28.126z" fill="#fff" stroke-width="2.2542"/>
 <use xlink:href="#path12558"/>
 <use xlink:href="#path12556"/>
 <use xlink:href="#path12554"/>
 <use xlink:href="#path12335"/>
</svg>
