<svg id="a" version="1.0" viewBox="0 0 803.06 555.33" xmlns="http://www.w3.org/2000/svg">
 <g id="b" transform="translate(-110.71 -104.72)">
  <path id="c" d="m326.13 509.2h20.29v149.15h-18.368l-99.721-114.87v114.87h-20.066v-149.15h17.291l100.57 115.84v-115.84z" fill="#fff"/>
  <path id="d" d="m384.9 509.2h84.558v18.996h-63.204v45.483h61.07v19.111h-61.07v46.342h65.229v19.002h-86.584v-148.94z" fill="#fff"/>
  <path id="e" d="m697.35 509.2h21.294l-60.308 149.79h-4.6916l-48.766-121.29-49.274 121.29h-4.5828l-60.115-149.79h21.511l41.1 102.81 41.384-102.81h20.187l41.572 102.81 40.689-102.81z" fill="#fff"/>
  <path id="f" d="m776.5 595.86-16.227-9.8609c-10.181-6.2152-17.424-12.328-21.729-18.343-4.3047-6.0157-6.4631-12.938-6.4631-20.768 0-11.747 4.075-21.282 12.231-28.609 8.1439-7.3337 18.736-11.004 31.765-11.004 12.449 0 23.875 3.5006 34.274 10.49v24.238c-10.75-10.339-22.322-15.508-34.704-15.508-6.977 0-12.709 1.6143-17.195 4.8428-4.48 3.2225-6.7291 7.3518-6.7291 12.388 0 4.4619 1.6566 8.6517 4.9576 12.545 3.3071 3.9057 8.6154 7.9988 15.937 12.279l16.312 9.6553c18.192 10.871 27.285 24.704 27.285 41.499 0 11.959-4.0024 21.675-12.007 29.147-8.0108 7.4728-18.422 11.203-31.233 11.203-14.728 0-28.144-4.5163-40.248-13.579v-27.122c11.524 14.613 24.873 21.916 40.036 21.916 6.6928 0 12.261-1.8621 16.711-5.5864 4.4498-3.7243 6.6747-8.3857 6.6747-13.99 0-9.0749-6.5538-17.684-19.649-25.834" fill="#fff"/>
  <path id="g" d="m317.15 306.01h21.3l-60.302 149.79h-4.6977l-48.766-121.28-49.274 121.28h-4.5828l-60.121-149.79h21.523l41.1 102.82 41.378-102.82h20.187l41.572 102.82 40.683-102.82z" fill="#fff"/>
  <path id="h" d="m422.49 324.17c-17.074 0-31.1 5.3385-42.086 16.01-10.991 10.683-16.481 24.317-16.481 40.895 0 16.088 5.5139 29.474 16.536 40.151 11.022 10.671 24.818 16.01 41.39 16.01 16.632 0 30.52-5.4474 41.656-16.336 11.124-10.889 16.687-24.45 16.687-40.677 0-15.804-5.5622-29.093-16.687-39.879-11.137-10.786-24.806-16.173-41.016-16.173m-0.85852-20.29c23.047 0 42.237 7.2974 57.563 21.892 15.326 14.589 22.999 32.884 22.999 54.873 0 22.001-7.7388 40.199-23.21 54.619-15.472 14.407-34.976 21.614-58.531 21.614-22.467 0-41.197-7.2067-56.167-21.614-14.976-14.42-22.467-32.479-22.467-54.19 0-22.279 7.5393-40.713 22.618-55.302 15.085-14.595 34.147-21.892 57.194-21.892" fill="#fff"/>
  <path id="i" d="m554.66 324.17h-6.4026v47.086h8.1136c10.816 0 18.234-0.92502 22.261-2.7811 4.0205-1.844 7.1523-4.6433 9.3954-8.3736 2.243-3.7364 3.3615-7.9927 3.3615-12.769 0-4.6916-1.2455-8.9419-3.7364-12.757-2.4909-3.8089-5.9976-6.4933-10.514-8.0532-4.5223-1.5719-12.019-2.3519-22.479-2.3519m-27.757 131v-149.16h37.364c15.091 0 27.074 3.7364 35.931 11.209 8.8633 7.4788 13.289 17.582 13.289 30.326 0 8.688-2.1644 16.197-6.5054 22.533-4.347 6.3301-10.574 11.07-18.688 14.196 4.7702 3.1378 9.4316 7.4062 13.984 12.817 4.5586 5.405 10.961 14.831 19.22 28.283 5.1995 8.4764 9.3651 14.849 12.491 19.111l7.902 10.683h-25.411l-6.5054-9.8246c-0.21766-0.35671-0.64087-0.96735-1.2817-1.8198l-4.1535-5.8766-6.6142-10.895-7.1463-11.644c-4.4014-6.1245-8.4401-10.998-12.11-14.625-3.6699-3.6215-6.9891-6.2334-9.9395-7.8355-2.9625-1.5901-7.9322-2.3942-14.915-2.3942h-5.5562v64.915h-21.354z" fill="#fff"/>
  <path id="j" d="m662.71 306.01h21.354v129.73h67.152v19.432h-88.506v-149.16z" fill="#fff"/>
  <path id="k" d="m824.73 325.02h-26.693v110.93h27.328c10.683 0 18.972-0.72551 24.885-2.1886 5.9008-1.4571 10.828-3.3132 14.788-5.5502 3.9419-2.2491 7.5574-5 10.828-8.2769 10.532-10.677 15.804-24.159 15.804-40.465 0-16.016-5.4111-29.075-16.227-39.178-3.9843-3.7726-8.561-6.8742-13.718-9.2926-5.1693-2.4184-10.06-4.0205-14.686-4.8065-4.6251-0.77992-12.062-1.1729-22.309-1.1729m-48.047 129.93v-148.94h50.284c20.29 0 36.336 3.0471 48.162 9.1354 11.814 6.0822 21.203 15.03 28.18 26.85 6.977 11.814 10.465 24.698 10.465 38.646 0 9.9697-1.9226 19.504-5.7678 28.615-3.8452 9.1172-9.3228 17.122-16.439 24.02-7.2612 7.1281-15.701 12.497-25.308 16.124-5.6227 2.2068-10.78 3.682-15.484 4.4317-4.6977 0.74969-13.664 1.1185-26.898 1.1185h-47.194z" fill="#fff"/>
  <path id="l" d="m531.89 191.65c-0.0121 3.1922-0.99153 6.4087-3.8452 8.9056-2.8476 2.503-7.775 4.4075-15.937 4.4075h-16.427v-26.342h15.695c7.3216 0 12.515 1.4873 15.774 3.8029 3.2467 2.3337 4.7158 5.399 4.74 9.2261" fill="#c02519"/>
  <path id="m" d="m518.58 160.1c3.0592-2.2007 4.5344-5.3204 4.5526-9.9939-0.0121-3.2104-0.93107-5.9613-3.2406-8.0108-2.3156-2.0556-6.2454-3.5127-12.594-3.5127h-11.62v24.964h7.9746c6.9044 0 11.85-1.2273 14.927-3.4462" fill="#c02519"/>
  <path id="n" d="m549.61 193.58c0.0423-12.176-8.0652-21.433-21.046-24.988 3.5066-1.7896 6.2757-3.9782 8.3071-6.6445 2.7086-3.5792 4.0084-7.9625 3.9903-13.077 0.0181-6.2757-2.4546-12.678-7.7569-17.473-5.3083-4.7884-13.361-7.8899-24.353-7.8839h-30.357v96.529h35.628c12.709 0 21.632-3.4462 27.376-8.555 5.7497-5.0846 8.2164-11.759 8.2104-17.908m33.839 45.169h-142.42v-134.03h142.42v134.03z" fill="#c02519"/>
  <path id="o" d="m354.48 160.1c3.0532-2.2007 4.5344-5.3204 4.5586-9.9939-6e-3 -3.2104-0.93107-5.9613-3.2406-8.0108-2.3216-2.0556-6.2515-3.5127-12.606-3.5127h-11.608v24.964h7.9746c6.8984 0 11.844-1.2273 14.921-3.4462" fill="#c02519"/>
  <path id="p" d="m363.04 182.42c-3.2527-2.3156-8.4522-3.8029-15.768-3.8029h-15.695v26.342h16.427c8.162 0 13.077-1.9045 15.931-4.4075 2.8537-2.497 3.8392-5.7134 3.8452-8.9056-0.0242-3.8271-1.4933-6.8923-4.74-9.2261" fill="#c02519"/>
  <path id="q" d="m385.51 193.58c0.0423-12.176-8.0773-21.433-21.04-24.988 3.4945-1.7896 6.2636-3.9782 8.289-6.6445 2.7207-3.5792 4.0084-7.9625 4.0024-13.077 6e-3 -6.2757-2.4607-12.678-7.763-17.473-5.3023-4.7884-13.355-7.8899-24.347-7.8839h-30.363v96.529h35.628c12.715 0 21.632-3.4462 27.376-8.555 5.7436-5.0846 8.2285-11.759 8.2164-17.908m33.839 45.169h-142.42v-134.03h142.42v134.03z" fill="#c02519"/>
  <path id="r" d="m719.27 194.2-2.2854 1.3966c-11.028 6.7352-23.023 10.345-33.918 10.339-23.325-0.0907-38.682-13.912-38.742-34.02 0.0242-19.679 16.064-34.244 38.15-34.292 11.251 6e-3 21.439 2.9141 33.549 9.5526l2.2249 1.2213v-17.962l-0.95525-0.37485c-13.652-5.3869-24.226-7.7871-34.667-7.7811-16.149-6e-3 -30.157 5.3265-40.139 14.371-9.9758 9.0507-15.907 21.826-15.895 36.499 6e-3 10.224 4.22 22.201 13.253 31.711 9.0024 9.5102 22.878 16.439 41.904 16.433h0.0665c15.78 0 26.723-3.5127 36.614-8.3917l0.84038-0.41112v-18.289zm28.283 44.546h-142.42v-134.03h142.42v134.03z" fill="#c02519"/>
 </g>
</svg>
