<svg width="1718.1" height="501.32" data-name="Calque 1" version="1.1" viewBox="0 0 1718.1 501.32" xmlns="http://www.w3.org/2000/svg">
 <g transform="matrix(5.5703 0 0 5.5703 -.0056817 -.0034512)" fill="#fff">
  <path d="m63.823 58.644c-0.53478 3.4331-2.5848 6.9983-5.1134 8.8469-1.4888 1.0728-3.0172 1.502-4.539 1.2709-0.73449-0.11038-2.385-0.59419-2.385-2.6244l0.0196-0.33011c0.23108-2.8554 4.4103-5.6284 12.089-8.0216l-0.07118 0.85828m-30.013-15.746c-3.92 20.384-8.0332 21.424-8.8123 21.424-0.82527 0-2.7531 0-2.7531-5.6779 0-11.29 5.4996-23.52 13.959-29.941-0.6008 4.3079-1.3997 9.0615-2.3933 14.195m53.824-6.3546c2.1144 0 3.1905 0.87479 3.1905 2.6244 0 4.2584-7.8978 6.9983-12.075 8.3848 0.38622-7.1468 4.7453-11.009 8.8849-11.009m3.9068 30.353c6.5576 0 12.031-2.6904 15.816-7.7576 3.5652-4.8031 5.4484-11.521 5.4484-19.476 0-16.571-0.52322-19.559-1.9278-27.564l-0.0836-0.46215c-1.0696-6.14-4.1264-9.1605-9.8834-9.7217-9.1358-0.9243-29.026-1.9146-45.217-1.9146-16.118 0-34.59 0.99033-43.791 1.9146-5.7769 0.56118-8.8205 3.5652-9.9033 9.7217v0.0516c-1.3221 8.7974-1.9988 16.357-1.9988 33.324 0 16.753 0.85828 24.659 1.9856 33.258l0.01341 0.0928c1.0448 6.3381 3.9068 9.1605 9.9033 9.7547 9.3685 0.9078 27.891 1.8816 43.791 1.8816 15.68 0 34.075-0.97382 43.437-1.8816 0.39943-0.031 6.4784-0.51167 10.276-1.1389 1.2511-0.19807 2.1342-1.2874 2.1342-2.5253l-0.032-0.41263c-0.23273-1.3865-1.5548-2.3438-2.9413-2.1127-3.6163 0.6107-9.7795 1.0729-9.8323 1.0729l-0.0578 0.0103c-9.2447 0.9078-27.453 1.8651-42.985 1.8651-17.646 0-35.924-1.1554-43.294-1.8651-3.618-0.36312-4.6809-1.436-5.3395-5.4798-1.1026-8.3848-1.9394-16.142-1.9394-32.532 0-16.704 0.61895-23.801 1.9278-32.499 0.68332-3.9283 1.8948-5.1662 5.3643-5.5128 9.078-0.9078 27.33-1.8651 43.281-1.8651 16.951 0 36.853 1.0894 44.707 1.8651 3.4628 0.34661 4.6743 1.5845 5.3511 5.5128l0.0774 0.47866c1.3931 7.8896 1.8569 10.547 1.8569 26.673 0 13.848-6.0344 22.101-16.144 22.101-5.12 0-10.484-3.1195-12.231-9.012l0.63216-0.21457c5.6019-1.8321 16.015-5.2652 16.015-13.369 0-4.5555-3.4298-7.7576-8.3237-7.7576-6.8085 0-14.043 6.008-14.043 17.133l0.0382 0.69323c-2.3916 0.77576-3.1327 1.0068-5.5706 1.7991-0.94741-2.5088-2.527-4.7536-4.6859-6.4866-1.6968-1.3534-3.7847-2.4098-6.0806-3.1525 2.9726-2.1457 5.4154-5.3643 5.4154-10.217 0-6.0575-4.7123-12.181-13.713-12.181-2.2959 0-4.5076 0.3136-6.6154 0.89129 0.17991-2.2282 0.2905-4.2584 0.31525-6.0905v-0.0516c0-1.3865-1.1092-2.5253-2.5138-2.5584-1.4195-0.0103-2.5864 1.1059-2.598 2.5253-0.04642 2.3933-0.23933 5.1992-0.55458 8.3352-12.141 6.4536-19.904 22.15-19.904 36.593 0 9.3916 4.9384 10.795 7.8731 10.795 6.1763 0 10.438-7.8896 13.848-25.567 1.3089-6.8167 2.2959-12.973 2.9462-18.354 2.2695-0.89129 4.6743-1.403 7.203-1.403 5.9436 0 8.601 3.5487 8.601 7.0643 0 3.1525-1.2973 6.7342-10.884 9.243-1.2891 0.33011-2.1028 1.6175-1.8701 2.938 0.23273 1.3204 1.4574 2.2282 2.7795 2.0797 4.6743-0.47866 9.5996 0.74274 12.546 3.103 1.36 1.1059 2.3801 2.4923 3.0106 4.0934l-0.01135 0.0103c-6.8085 2.0302-15.886 5.5623-16.467 12.759l-0.02579 0.70974c0 3.9448 2.6706 7.0643 6.7128 7.708 2.8752 0.42914 5.7637-0.33011 8.3484-2.2117 3.6048-2.6409 6.4091-7.4274 7.1502-12.198l0.20632-2.6739-0.0248-0.64371c2.1853-0.70974 2.9017-0.94081 5.3775-1.7661 2.4758 7.9721 9.8768 12.561 17.098 12.561"/>
  <path d="m212.27 20.912c0.90285-2.6739 2.5154-5.1497 6.0938-5.1497 3.2301 0 5.6482 2.1457 6.1697 5.1497zm17.273 1.568c0-5.4303-3.6163-11.29-11.237-11.29-3.1922 0-6.178 1.1554-8.5564 4.0438-2.0896 2.5418-2.9974 6.3876-2.9974 9.5732 0 7.1964 3.9448 12.792 11.554 12.792 3.1525 0 6.4784-0.9078 8.4194-3.1195 1.5218-1.667 2.2381-3.07 2.2827-4.2089v-0.3301c0-1.9476-0.79886-2.5748-2.4626-2.5748-1.4838 0-2.1985 0.87479-2.4758 2.2447-0.42584 1.7661-2.5732 3.3341-5.4352 3.3341-4.2237 0-6.7953-3.037-6.8927-7.2789h14.804c2.9974 0 2.9974-0.24758 2.9974-3.1856m-58.801 9.8372h-2.2827l-0.66352-0.66022v-17.463c0-1.3369-0.99858-2.1787-2.5666-2.1787h-4.8988c-1.568 0-2.5732 0.84177-2.5732 2.1787 0 1.37 1.0052 2.1787 2.5732 2.1787h1.8948l0.67672 0.67672v14.607l-0.67672 0.66022h-1.8948c-1.568 0-2.5732 0.82527-2.5732 2.1952s1.0052 2.1787 2.5732 2.1787h10.412c1.5664 0 2.5732-0.80877 2.5732-2.1787s-1.0068-2.1952-2.5732-2.1952m-18.169-7.9886c-1.804 0-2.281 1.0894-2.4362 2.6739-0.23273 2.905-1.8437 5.7439-7.3565 5.7439-6.4355 0-9.3817-4.1429-9.3817-12.412 0-7.2459 3.1922-12.412 9.2843-12.412 3.0816 0 4.8427 1.469 5.9452 2.905 0.56119 0.70974 1.1801 2.1292 1.1801 3.4331v0.61071c0 1.7 1.1026 2.5583 2.4758 2.5583 1.3914 0 2.4362-0.85829 2.4362-2.5583v-9.1935c0-1.568-0.90945-2.4758-2.2827-2.4758-1.5862 0-2.0104 1.0068-2.0104 2.5748-2.418-1.7991-4.61-2.6079-7.9886-2.6079-4.61 0-8.5168 1.8321-11.187 5.6118-1.8948 2.7564-3.2301 7.0808-3.2301 12.032 0 9.177 4.237 16.836 14.418 16.836 9.4774 0 12.843-6.14 12.843-10.646 0-1.535-0.75429-2.6739-2.7085-2.6739m50.503 7.9886h-1.7017l-0.65857-0.66022v-9.5566c0-6.8993-2.3009-10.91-9.6194-10.91-2.7069 0-5.7191 0.97382-6.5692 3.07 0-1.535-0.85828-2.5418-2.522-2.5418h-4.6611c-1.6109 0-2.5716 0.80876-2.5716 2.1787 0 1.403 0.96062 2.2117 2.5716 2.2117h1.7215l0.65857 0.66022v14.888l-0.65857 0.66022h-1.7215c-1.5664 0-2.5716 0.82527-2.5716 2.1952s1.0052 2.1787 2.5716 2.1787h8.9938c1.568 0 2.5732-0.80877 2.5732-2.1787s-1.0052-2.1952-2.5732-2.1952h-1.1405l-0.67012-0.66022v-7.708c0-3.2351 0.47701-4.704 1.2379-5.7109 1.1917-1.469 2.7201-2.4758 5.087-2.4758 4.0042 0 5.0474 2.0962 5.0474 6.3381v9.5566l-0.66351 0.66022h-1.096c-1.5664 0-2.6178 0.82527-2.6178 2.1952s1.0514 2.1787 2.6178 2.1787h8.936c1.5862 0 2.5732-0.80877 2.5732-2.1787s-0.98702-2.1952-2.5732-2.1952m-37.989-22.497c1.9031 0 3.4249-1.5185 3.4249-3.3836 0-1.8486-1.5218-3.3176-3.4249-3.3176-1.8569 0-3.4232 1.469-3.4232 3.3176 0 1.8651 1.5664 3.3836 3.4232 3.3836m48.897 0 1.4195-0.34661 6.3826-2.3273c1.1801-0.41263 2.2249-1.1389 2.2249-2.6574s-1.2775-2.8884-2.8059-2.8884l-2.5715 1.1389-4.9384 4.1759-1.0002 1.667 1.2891 1.2379"/>
 </g>
 <g transform="matrix(.99997 0 0 .99997 492.49 -.93451)" fill="#75787d">
  <path d="m846.63 29.985c-8.5002 0-13.904 4.3738-13.904 11.838 0 7.453 5.4041 11.824 13.904 11.824h17.02c2.5734 0 3.6094 1.0264 3.6094 3.6055v123.04c0 2.579-1.036 3.6055-3.6094 3.6055h-17.02c-8.5002 0-13.904 4.3712-13.904 11.824 0 7.4641 5.4041 11.838 13.904 11.838h63.99c8.478 0 13.881-4.3738 13.881-11.838 0-7.453-5.4029-11.824-13.881-11.824h-12.312c-2.5623 0-3.5977-1.0261-3.5977-3.5996v-53.107h74.295v53.107c0 2.5735-1.0354 3.5996-3.5977 3.5996h-12.311c-8.478 0-13.881 4.3712-13.881 11.824 0 7.4641 5.4029 11.838 13.881 11.838h63.988c8.5002 0 13.904-4.3738 13.904-11.838 0-7.453-5.4041-11.824-13.904-11.824h-17.02c-2.5734 0-3.6094-1.0264-3.6094-3.6055v-123.04c0-2.579 1.036-3.6055 3.6094-3.6055h17.02c8.5002 0 13.904-4.3712 13.904-11.824 0-7.4641-5.4041-11.838-13.904-11.838h-63.988c-8.478 0-13.881 4.3738-13.881 11.838 0 7.453 5.4029 11.824 13.881 11.824h12.311c2.5623 0 3.5977 1.0262 3.5977 3.5996v44.594h-74.295v-44.594c0-2.5735 1.0354-3.5996 3.5977-3.5996h12.312c8.478 0 13.881-4.3712 13.881-11.824 0-7.4641-5.4029-11.838-13.881-11.838z" stroke-width="5.5703"/>
  <path d="m1061.5 29.923c-8.478 0-13.881 4.3738-13.881 11.838 0 7.453 5.4028 11.824 13.881 11.824h15.156c2.5623 0 3.5976 1.0262 3.5976 3.5996v123.05c0 2.5735-1.0353 3.5996-3.5976 3.5996h-15.156c-8.478 0-13.881 4.3712-13.881 11.824 0 7.4641 5.4028 11.838 13.881 11.838h69.295c28.003 0 50.035-4.8659 67.69-19.648 17.832-15.063 27.189-42.289 27.189-71.012 0-29.378-8.5884-54.733-27.516-69.516-15.278-11.882-34.14-17.402-65.492-17.402zm50.141 25.637h21.492c23.867 0 37.573 4.2102 47.949 13.473 11.152 9.6367 16.598 26.196 16.598 47.809 0 19.928-6.4738 40.978-18.637 51.551-12.247 9.2625-28.507 13.754-50.84 13.754h-16.562c-2.5734 0-3.6093-1.0264-3.6093-3.6055v-119.38c0-2.579 1.0359-3.6055 3.6093-3.6055z" stroke-width="77.967"/>
 </g>
</svg>
