<svg width="418pt" height="307.09pt" version="1.1" viewBox="0 0 418 307.09" xmlns="http://www.w3.org/2000/svg">
 <g transform="translate(.53401 2.7188)">
  <path transform="scale(.75)" d="m518.74 131.46a37.88 37.88 0 0 0-37.875 37.75l-4e-3 -6e-3v0.0977a37.88 37.88 0 0 0-2e-3 0.0391 37.88 37.88 0 0 0 2e-3 0.0547v50.527c-0.0139 3.3342 0.13031 5.4173 3.127 5.9609 1.5412 0.0688 3.2006-1.069 4.2871-2.1465l18.6-18.441-0.0117-0.0176a37.88 37.88 0 0 0 11.877 1.9414 37.88 37.88 0 0 0 37.881-37.879 37.88 37.88 0 0 0-37.881-37.881z" fill="#003fa2" stroke-width="1.3333"/>
  <path transform="scale(.75)" d="m491.28 153.84c-1.1808 0-1.509 0.56634-1.4844 1.4922v30.832c0 0.92619 0.30383 1.4902 1.4844 1.4902h5.082c0.92616 0 1.4922-0.30948 1.4922-1.4902v-11.387h12.766v11.387c0 0.92619 0.30383 1.4902 1.4844 1.4902h5.082c0.92617 0 1.4903-0.30948 1.4902-1.4902v-30.832c4e-5 -1.1808-0.56406-1.4922-1.4902-1.4922h-5.082c-1.1808 0-1.509 0.56634-1.4844 1.4922v11.387h-12.766v-11.387c4e-5 -1.1808-0.56602-1.4922-1.4922-1.4922z" fill="#fff" stroke-width="3.69"/>
  <path d="m406.46 131.53c0 2.4671-1.7741 3.8559-4.3188 3.8559h-3.6951v-14.647h3.6951c2.5447 0 4.3188 1.4248 4.3188 3.8559zm-4.3188-16.15h-8.6321c-0.88428 0-1.1199 0.42411-1.1199 1.1199v23.124c0 0.69577 0.23544 1.1171 1.1199 1.1171h8.6321c4.5877 0 10.373-2.6196 10.373-8.6709v-8.0195c0-6.0125-5.7852-8.6709-10.373-8.6709" fill="#fff" stroke-width="2.772"/>
 </g>
 <path d="m104.06 2.7212c-0.59168 0-1.1838 0.22532-1.6362 0.67529l-1.3901 1.3887-96.53 96.65c-3.0293 3.2348-4.6472 7.5415-4.4971 11.971v172.06c0.0897 11.929 9.7575 21.568 21.687 21.621h220.6c4.3878 0.0329 8.5995-1.6846 11.707-4.7812l99.211-99.265c0.96728-0.95958 1.5044-2.2704 1.4883-3.6328l3e-3 1e-3c-0.0696-3.6122-3.8029-5.9814-7.1014-4.5073v-63.49l-59.132-18.007c-0.90695-0.87405-2.3421-0.87378-3.249 2.8e-4l-23.93 23.941-15.661-27.201 14.773-14.773c1.1174-1.1252 0.83082-3.0095-0.56982-3.7529l-22.078-19.446 15.68-14.684c1.0889-1.0853 0.86857-2.9053-0.44825-3.6987l-6.3472-18.875 11.402-11.402c1.115-1.1365 0.82466-3.0255-0.58008-3.7749l-64.176-15.48c-0.0109-0.29533-0.0109-0.5909 0-0.88623-0.91509-0.86428-2.3456-0.86428-3.2607 0l-11.348 11.281-72.983-11.259c-0.45243-0.44997-1.0431-0.67529-1.6348-0.67529z" clip-rule="evenodd" fill="#003fa2" stroke-linejoin="round" stroke-miterlimit="1.414" stroke-width="10.942"/>
 <path d="m187.75 110.01h-13.345c-4.6016 0-5.3019 3.0611-6.2722 4.7417l-19.197 34.202-19.047-34.202c-1.1204-1.6806-1.6706-4.7417-6.4022-4.7417h-13.765c-3.2011 0-4.0314 1.5305-4.0314 4.0414v83.59c0 3.2011 1.5206 4.0414 4.0314 4.0414h13.765c2.5109 0 4.0414-0.8403 4.0414-4.0414v-47.157l14.045 24.349c0.68958 1.1004 1.8106 2.921 3.9014 2.921h6.9325c2.0907 0 3.3512-1.8206 4.0514-2.921l13.905-24.349v47.157c0 3.2011 1.5306 4.0414 4.0414 4.0414h13.345c2.5109 0 4.0314-0.8403 4.0314-4.0414v-83.59c0-2.5109-0.83095-4.0414-4.0314-4.0414" fill="#fff" stroke-width="10.004"/>
 <path d="m229.96 167.02 10.454-30.726 10.454 30.726zm22.862-52.57c-1.2629-2.9206-2.6561-4.3108-5.7231-4.3108h-13.371c-3.067 0-4.6005 1.3903-5.7131 4.3108l-30.941 83.306c-0.69093 1.6703-0.69093 3.8908 2.3654 3.8908l14.633-7e-5c3.067-1e-5 4.1796-0.83083 5.3021-4.1608l3.9089-11.002h34.138l3.8889 11.002c1.1226 3.3306 2.2351 4.1608 5.3122 4.1608h14.623c3.067 0 3.067-2.2204 2.3654-3.8908z" fill="#fff" stroke-width="10.012"/>
 <path d="m339.31 168.46c0 8.9127-6.4091 13.93-15.602 13.93h-13.349v-52.916h13.349c9.1931 0 15.602 5.1474 15.602 13.93zm-15.602-58.343h-31.184c-3.1946 0-4.0458 1.5322-4.0458 4.0458v83.539c0 2.5136 0.85188 4.0358 4.0458 4.0358h31.184c16.574 0 37.473-9.4635 37.473-31.325v-28.971c0-21.721-20.9-31.325-37.473-31.325" fill="#fff" stroke-width="10.014"/>
 <path d="m161.58 62.834c0-6.5344-4.8609-8.4768-11.535-8.4768h-3.1975c-3.1974 0-4.0441-1.534-4.0441-4.0342v-10.569c0-2.5002 0.84602-4.0242 4.0441-4.0242h1.8029c8.0684 0 11.545-2.9285 11.545-8.3473 0-6.2555-4.323-7.7895-11.545-7.7895h-21.137v52.285h23.358c6.8133 0 10.708-2.7891 10.708-9.0445m22.103 2.0918c0 17.651-13.766 26.695-33.08 26.695h-40.87c-3.2074 0-4.0342-1.5439-4.0342-4.0441v-83.552c0-2.5002 0.82743-4.0242 4.0342-4.0242h38.917c22.661 0 32.393 12.093 32.393 25.151 0 14.055-8.8951 18.497-10.15 19.055 1.1156 0.40906 12.79 5.7076 12.79 20.719" fill="#fff" stroke-width="9.9609"/>
 <path d="m263.66 76.189v11.406c0 2.4994-0.83313 4.0268-4.0367 4.0268h-62.306c-3.2036 0-4.0268-1.5274-4.0268-4.0268v-83.452c0-2.4994 0.82255-4.0268 4.0268-4.0268h59.946c3.2036 0 4.0268 1.5274 4.0268 4.0268v11.545c0 2.5093-0.82387 4.0268-4.0268 4.0268h-41.994v15.165h37.273c3.1937 0 4.0268 1.5373 4.0268 4.0367v10.851c0 2.5093-0.83313 4.0367-4.0268 4.0367h-37.273v18.359h44.354c3.2036 0 4.0367 1.5274 4.0367 4.0268" fill="#fff" stroke-width="9.9182"/>
</svg>
