<svg width="417.46pt" height="304.37pt" version="1.1" viewBox="0 0 417.46 304.37" xmlns="http://www.w3.org/2000/svg">
 <path d="m389.59 98.595a28.41 28.41 0 0 0-28.406 28.312l-3e-3 -4e-3v0.0733a28.41 28.41 0 0 0-1e-3 0.0293 28.41 28.41 0 0 0 1e-3 0.041v37.895c-0.0104 2.5006 0.0977 4.063 2.3452 4.4707 1.1559 0.0516 2.4004-0.80175 3.2153-1.6099l13.95-13.831-9e-3 -0.0132a28.41 28.41 0 0 0 8.9078 1.456 28.41 28.41 0 0 0 28.411-28.409 28.41 28.41 0 0 0-28.411-28.411z" fill="#003fa2" stroke-width=".99997"/>
 <path transform="scale(.75)" d="m138.75 0.0039062c-0.78891 0-1.5784 0.30043-2.1816 0.90039l-1.8535 1.8516-128.71 128.87c-4.0391 4.313-6.1963 10.055-5.9961 15.961v229.41c0.11958 15.906 13.01 28.757 28.916 28.828h294.13c5.8504 0.0439 11.466-2.2462 15.609-6.375l132.28-132.35c1.2897-1.2794 2.0058-3.0272 1.9844-4.8438l4e-3 2e-3c-0.0928-4.8163-5.0706-7.9752-9.4686-6.0098v-84.654l-78.842-24.009c-1.2093-1.1654-3.1228-1.165-4.332 3.7e-4l-31.906 31.922-20.881-36.268 19.697-19.697c1.4898-1.5002 1.1078-4.0127-0.75976-5.0039l-29.438-25.928 20.906-19.578c1.4519-1.4471 1.1581-3.8737-0.59766-4.9316l-8.4629-25.166 15.203-15.203c1.4867-1.5154 1.0996-4.034-0.77343-5.0332l-85.568-20.641c-0.0145-0.39378-0.0145-0.78786 0-1.1816-1.2201-1.1524-3.1275-1.1524-4.3477 0l-15.131 15.041-97.311-15.012c-0.60324-0.59997-1.3908-0.90039-2.1797-0.90039z" clip-rule="evenodd" fill="#003fa2" stroke-linejoin="round" stroke-miterlimit="1.414" stroke-width="14.589"/>
 <path d="m370.06 115.38c-0.73319 0-1.179 0.24074-1.179 1.1753v4.0227c0 0.73317 0.24425 1.1808 1.179 1.1808h5.6414v18.277c0 0.55727 0.26718 0.70424 0.70425 0.70424h5.504c0.55728 0 0.71218-0.26729 0.70057-0.70424v-18.277h5.5898l6.5926 17.787c0.30772 0.80944 0.73173 1.1946 1.58 1.1946h3.6982c0.84826 0 1.2334-0.3852 1.5827-1.1946l8.5155-23.088c0.19402-0.46293 0.19379-1.0785-0.65447-1.0785h-5.1362c-0.85103 0-1.158 0.23007-1.4684 1.1532l-4.537 13.651-4.5371-13.651c-0.31051-0.92291-0.61742-1.1532-1.4657-1.1532z" fill="#fff" stroke-width="2.7721"/>
 <path d="m187.75 107.29h-13.345c-4.6016 0-5.3019 3.0611-6.2722 4.7417l-19.197 34.202-19.047-34.202c-1.1204-1.6806-1.6706-4.7417-6.4022-4.7417h-13.765c-3.2011 0-4.0314 1.5305-4.0314 4.0414v83.59c0 3.2011 1.5205 4.0414 4.0314 4.0414h13.765c2.5109 0 4.0414-0.8403 4.0414-4.0414v-47.157l14.045 24.349c0.68958 1.1004 1.8106 2.921 3.9014 2.921h6.9325c2.0907 0 3.3512-1.8206 4.0514-2.921l13.905-24.349v47.157c0 3.2011 1.5306 4.0414 4.0414 4.0414h13.345c2.5109 0 4.0314-0.8403 4.0314-4.0414v-83.59c0-2.5109-0.83095-4.0414-4.0314-4.0414" fill="#fff" stroke-width="10.004"/>
 <path d="m229.96 164.3 10.454-30.726 10.454 30.726zm22.862-52.57c-1.2629-2.9206-2.6561-4.3108-5.7231-4.3108h-13.371c-3.067 0-4.6005 1.3903-5.7131 4.3108l-30.941 83.306c-0.69093 1.6703-0.69093 3.8908 2.3654 3.8908l14.633-7e-5c3.067-1e-5 4.1796-0.83083 5.3021-4.1608l3.9089-11.002h34.138l3.8889 11.002c1.1226 3.3306 2.2351 4.1608 5.3122 4.1608h14.623c3.067 0 3.067-2.2204 2.3654-3.8908z" fill="#fff" stroke-width="10.012"/>
 <path d="m339.31 165.75c0 8.9127-6.4091 13.93-15.602 13.93h-13.349v-52.916h13.349c9.1931 0 15.602 5.1474 15.602 13.93zm-15.602-58.343h-31.184c-3.1946 0-4.0458 1.5322-4.0458 4.0458v83.539c0 2.5136 0.85188 4.0358 4.0458 4.0358h31.184c16.574 0 37.473-9.4635 37.473-31.325v-28.971c0-21.721-20.9-31.325-37.473-31.325" fill="#fff" stroke-width="10.014"/>
 <path d="m161.58 60.115c0-6.5344-4.8609-8.4768-11.535-8.4768h-3.1975c-3.1974 0-4.0441-1.534-4.0441-4.0342v-10.569c0-2.5002 0.84602-4.0242 4.0441-4.0242h1.8029c8.0684 0 11.545-2.9285 11.545-8.3473 0-6.2555-4.323-7.7895-11.545-7.7895h-21.137v52.285h23.358c6.8133 0 10.708-2.7891 10.708-9.0445m22.103 2.0918c0 17.651-13.766 26.695-33.08 26.695h-40.87c-3.2074 0-4.0342-1.5439-4.0342-4.0441v-83.552c0-2.5002 0.82742-4.0242 4.0342-4.0242h38.917c22.661 0 32.393 12.093 32.393 25.151 0 14.055-8.8951 18.497-10.15 19.055 1.1156 0.40906 12.79 5.7076 12.79 20.719" fill="#fff" stroke-width="9.9609"/>
 <path d="m263.66 73.471v11.406c0 2.4994-0.83313 4.0268-4.0367 4.0268h-62.306c-3.2036 0-4.0268-1.5274-4.0268-4.0268v-83.452c0-2.4994 0.82255-4.0268 4.0268-4.0268h59.946c3.2036 0 4.0268 1.5274 4.0268 4.0268v11.545c0 2.5093-0.82387 4.0268-4.0268 4.0268h-41.994v15.165h37.273c3.1937 0 4.0268 1.5373 4.0268 4.0367v10.851c0 2.5093-0.83313 4.0367-4.0268 4.0367h-37.273v18.359h44.354c3.2036 0 4.0367 1.5274 4.0367 4.0268" fill="#fff" stroke-width="9.9182"/>
</svg>
