<svg width="1543.7" height="501.32" enable-background="new 0 0 266.1 90" version="1.1" viewBox="0 0 1543.7 501.32" xml:space="preserve" xmlns="http://www.w3.org/2000/svg"><g transform="matrix(5.5765 0 0 5.5765 -254.77 1225.6)" fill="#fff"><path d="m109.44-161.22c-0.53361 3.4569-2.59 7.0025-5.118 8.8462-1.475 1.0637-2.9978 1.5069-4.5153 1.2587-0.74102-0.0886-2.395-0.58501-2.395-2.606l0.01219-0.3191c0.23578-2.8719 4.4195-5.6552 12.085-8.0307l-0.0698 0.85094m-29.965-15.707c-3.9249 20.352-8.0325 21.38-8.8143 21.38-0.81725 0-2.7496 0-2.7496-5.6729 0-11.257 5.4921-23.472 13.946-29.907-0.60984 4.3079-1.4058 9.0589-2.3826 14.2m53.731-6.3466c2.1256 0 3.207 0.8864 3.207 2.6237 0 4.237-7.8889 6.9848-12.071 8.3498 0.38824-7.1266 4.744-10.974 8.8639-10.974m3.9125 30.315c6.5504 0 12.014-2.6769 15.795-7.7648 3.5598-4.7688 5.4371-11.488 5.4371-19.447 0-16.54-0.51943-19.518-1.9182-27.514l-0.0765-0.46092c-1.0814-6.1516-4.1217-9.1476-9.8833-9.7148-9.1121-0.92184-28.987-1.9146-45.163-1.9146-16.086 0-34.536 0.97503-43.724 1.9146-5.7615 0.5673-8.8231 3.5633-9.8886 9.7148l-0.0144 0.0554c-1.3154 8.7753-1.9944 16.327-1.9944 33.275 0 16.717 0.85803 24.624 1.9944 33.204l0.0144 0.0886c1.0388 6.3466 3.9054 9.1653 9.8886 9.7326 9.3479 0.93957 27.845 1.9146 43.724 1.9146 15.664 0 34.036-0.97503 43.391-1.8969 0.39533-0.0332 6.4689-0.47865 10.25-1.1168l2.1468-2.5174-0.0355-0.42547c-0.23578-1.4005-1.5512-2.3401-2.9499-2.1096-3.6076 0.60275-9.7503 1.0637-9.8124 1.0814h-0.0543c-9.238 0.90412-27.409 1.8792-42.935 1.8792-17.625 0-35.865-1.1523-43.226-1.8792-3.636-0.35456-4.6819-1.436-5.3467-5.4779-1.0938-8.3675-1.9182-16.115-1.9182-32.477 0-16.7 0.61693-23.791 1.9182-32.477 0.67898-3.9001 1.8916-5.1411 5.3467-5.4956 9.0713-0.90412 27.304-1.8614 43.226-1.8614 16.932 0 36.819 1.0814 44.658 1.8614 3.4622 0.35455 4.6536 1.5955 5.3538 5.5134l0.0698 0.47865c1.3916 7.8712 1.849 10.53 1.849 26.627 0 13.845-6.0257 22.089-16.122 22.089-5.1109 0-10.47-3.1378-12.216-9.0057l0.6382-0.21273c5.5807-1.8437 15.982-5.2829 15.982-13.349 0-4.5738-3.4126-7.7648-8.3161-7.7648-6.7933 0-14.016 6.0097-14.016 17.107l0.041 0.69139c-2.395 0.78002-3.129 1.0282-5.5665 1.826-0.95022-2.5174-2.528-4.7688-4.6677-6.4884-1.7036-1.3473-3.7884-2.4287-6.0877-3.1556 2.9641-2.1451 5.4229-5.3538 5.4229-10.211 0-6.0452-4.7156-12.161-13.712-12.161-2.2922 0-4.494 0.30137-6.6054 0.90411 0.19323-2.2337 0.29783-4.2724 0.32442-6.0806v-0.0554c0-1.4005-1.1204-2.5351-2.5262-2.5528-1.3987-0.0332-2.5705 1.0991-2.5829 2.5174-0.04321 2.3932-0.23578 5.1942-0.54779 8.3143-12.126 6.4529-19.868 22.124-19.868 36.537 0 9.3957 4.9159 10.796 7.8463 10.796 6.1693 0 10.429-7.8712 13.822-25.528 1.3154-6.8252 2.2922-12.959 2.9428-18.348 2.2709-0.88639 4.6801-1.3828 7.194-1.3828 5.9353 0 8.5944 3.5456 8.5944 7.0379 0 3.1556-1.2941 6.7366-10.872 9.2362l-1.8561 2.9428c0.23578 1.3119 1.4484 2.216 2.7779 2.0742 4.6677-0.46092 9.5837 0.74457 12.526 3.0846 1.358 1.0991 2.3613 2.5174 2.9995 4.1129-6.8146 2.021-15.886 5.5488-16.462 12.729l-0.02659 0.70911c0 3.971 2.6734 7.0734 6.7242 7.7116 2.8595 0.4432 5.7403-0.3191 8.3161-2.216 3.6005-2.6237 6.4122-7.4102 7.1461-12.161l0.20918-2.6769-0.0277-0.63821c2.1876-0.72684 2.895-0.93957 5.3733-1.755 2.473 7.9243 9.8691 12.534 17.077 12.534"/><path d="m264.71-211.25c1.9182 0 3.4551-1.5423 3.4551-3.4037s-1.537-3.3683-3.4551-3.3683c-1.8774 0-3.4427 1.5069-3.4427 3.3683s1.5654 3.4037 3.4427 3.4037"/><path d="m286.25-205.17c3.6909 0 6.2739 2.5528 6.5309 5.7615h-12.957c0.42193-2.8719 2.8329-5.7615 6.4263-5.7615m7.9562 11.381c-1.108 0-1.8685 0.85093-2.1539 2.1982-0.42902 1.8792-2.7354 3.9356-5.5116 3.9356-4.2653 0-7.2507-3.3151-7.2507-7.623h15.2c2.3489 0 3.0261-0.81548 3.0261-2.8187 0-5.4779-3.6484-11.381-11.314-11.381-3.2211 0-6.2331 1.1523-8.6423 4.0774-2.1132 2.5351-3.0137 6.0452-3.0137 9.2716 0 7.233 3.9764 12.941 11.656 12.941 2.9694 0 6.5292-1.0105 8.5377-3.2087 1.4342-1.5423 2.3472-3.5101 2.3472-4.8929 0-1.6841-1.1913-2.4996-2.8808-2.4996"/><path d="m215.35-211.25 1.4466-0.33683 6.4122-2.3578c1.2126-0.42546 2.2585-1.1523 2.2585-2.6769s-1.2959-2.9428-2.8187-2.9428l-2.6042 1.17-4.978 4.2192-1.0176 1.6841 1.3012 1.241"/><path d="m319.59-197.02c-1.2604-0.72684-3.269-1.2941-5.5754-1.6841l-2.0086-0.28365c-2.7762-0.37228-3.8842-1.436-3.8842-3.2087 0-2.2514 1.7728-3.2619 4.2724-3.2619 2.9641 0 4.9301 1.0991 4.9301 3.6342 0 1.5423 0.91476 2.4996 2.3064 2.4996 1.4342 0 2.3064-0.95731 2.3064-2.4996v-5.4956c0-1.5423-0.87221-2.4996-2.3064-2.4996l-2.0086 1.5246c-1.4962-0.79775-3.6076-1.1878-5.1446-1.1878-4.7989 0-9.2451 2.2514-9.2451 7.3216 0 2.216 0.90057 4.1483 2.1114 5.2474 1.4342 1.2764 3.5881 1.7196 5.8945 2.0564l2.4376 0.33683c2.8382 0.42546 3.9888 1.5778 3.9888 3.4037 0 2.4996-1.5796 3.9178-4.4603 3.9178-3.6076 0-6.4263-1.4182-6.4263-4.3433v-0.4432c0-1.5246-0.91475-2.4464-2.3064-2.4464-1.4466 0-2.3064 0.92184-2.3064 2.4464v6.2934c0 1.5778 0.8598 2.4996 2.3064 2.4996 1.3916 0 1.8632-0.81548 2.1132-2.021 1.8206 1.5778 4.4586 2.021 6.4263 2.021 1.8206 0 3.5456-0.28364 4.9372-0.92184 2.6858-1.241 4.5631-3.4392 4.5631-7.2861 0-2.2692-0.72684-4.1838-2.9215-5.6197"/><path d="m219.57-205.17c3.6909 0 6.2739 2.5528 6.5097 5.7615h-12.936c0.42192-2.8719 2.8187-5.7615 6.4263-5.7615m7.9562 11.381c-1.108 0-1.8561 0.85093-2.1539 2.1982-0.42901 1.8792-2.7354 3.9356-5.5258 3.9356-4.2511 0-7.2365-3.3151-7.2365-7.623h15.214c2.3472 0 3.012-0.81548 3.012-2.8364 0-5.4602-3.6484-11.364-11.316-11.364-3.2194 0-6.2313 1.1523-8.6423 4.0774-2.1114 2.5351-3.012 6.0452-3.012 9.2539 0 7.2507 3.9746 12.959 11.654 12.959 2.9712 0 6.5167-1.0105 8.5395-3.2087 1.4324-1.5423 2.3472-3.5101 2.3472-4.8929 0-1.6841-1.1913-2.4996-2.8808-2.4996"/><path d="m248.64-209.48c-2.6858 0-4.9372 1.3473-5.9973 3.1556 0-1.0991-0.72684-2.3401-2.395-2.3401h-4.7085c-1.6274 0-2.59 0.81548-2.59 2.1982 0 1.4005 0.96262 2.216 2.59 2.216h1.7231l0.67898 0.67366v14.342l-0.67898 0.67365h-1.7231c-1.5866 0-2.59 0.81548-2.59 2.1982 0 1.4005 1.0034 2.1982 2.59 2.1982h10.947c1.5796 0 2.5829-0.79775 2.5829-2.1982 0-1.3828-1.0034-2.1982-2.5829-2.1982h-2.9836l-0.66479-0.67365v-7.1089c0-3.5456 0.46979-5.1233 1.0034-5.992 1.1913-1.9146 2.7904-2.5351 4.6057-2.5351 1.8756 0 3.2052 1.0459 3.3098 2.5883l-0.42902-0.0554c-1.4891 0-2.6875 1.0105-2.6875 2.5883 0 1.8792 1.303 2.9251 3.4552 2.9251 3.3523 0 4.5082-3.0137 4.5082-5.2652 0-4.7511-3.6076-7.3925-7.9633-7.3925"/><path d="m270.42-188.56h-2.3046l-0.6648-0.67365v-17.214c0-1.3473-1.0194-2.1982-2.5971-2.1982h-4.9372c-1.5937 0-2.5971 0.85094-2.5971 2.1982 0 1.3828 1.0034 2.1982 2.5971 2.1982h1.9182l0.67011 0.67366v14.342l-0.67011 0.67365h-1.9182c-1.5937 0-2.5971 0.81548-2.5971 2.216 0 1.3828 1.0034 2.1982 2.5971 2.1982h10.504c1.5796 0 2.583-0.81548 2.583-2.1982 0-1.4005-1.0034-2.216-2.583-2.216"/><path d="m199.47-201.02c-1.5796-1.1169-4.3699-1.826-7.4936-2.3046l-1.9589-0.28365c-4.5507-0.69138-5.8112-1.8792-5.8112-4.6624 0-3.2619 2.3064-5.0879 6.0594-5.0879 3.7406 0 6.9458 1.7373 6.9458 5.6729v0.81548c0 1.436 0.82434 2.3401 2.3614 2.3401 1.475 0 2.2443-0.90412 2.2443-2.3401v-8.7044c0-1.3828-0.70557-2.3401-2.2018-2.3401-1.2534 0-1.8277 0.7623-1.8277 2.1982-1.9678-1.4714-4.0792-2.2337-7.389-2.2337-6.2331 0-11.42 3.0137-11.42 9.7326 0 4.2192 1.732 6.6125 4.7156 7.9598 1.5317 0.65593 3.3045 1.0459 5.4637 1.3828l2.4518 0.39001c5.0826 0.81548 6.3235 2.606 6.3235 5.3715 0 3.5988-3.1166 5.3893-6.8979 5.3893-4.7989 0-8.1087-2.5174-8.1087-6.7366v-1.1878c0-1.4891-0.72684-2.3578-2.3064-2.3578-1.4962 0-2.2638 0.86866-2.2638 2.3578v10.123c0 1.3828 0.81725 2.3046 2.216 2.3046 1.3916 0 1.8614-0.78003 1.9252-2.4642 2.7762 1.8792 4.5897 2.4642 8.5377 2.4642 6.4263 0 12.043-2.6592 12.043-10.459 0-3.3151-0.96262-5.5665-3.6076-7.3393"/></g></svg>
