<svg width="211.67mm" height="186.64mm" version="1.1" viewBox="0 0 211.67 186.64" xmlns="http://www.w3.org/2000/svg">
 <g transform="matrix(13.564 0 0 -13.564 -3468.7 6280.5)" fill="#fff">
  <g transform="translate(263.53 462.11)">
   <path d="m0 0c2.656 0 5.205-0.978 7.177-2.755l0.617 0.685c-2.141 1.929-4.909 2.992-7.794 2.992-2.884 0-5.652-1.063-7.793-2.992l0.617-0.685c1.971 1.777 4.52 2.755 7.176 2.755" fill="#fff"/>
  </g>
  <g transform="translate(263.53 453.99)">
   <path d="m0 0c-2.656 0-5.205 0.978-7.177 2.755l-0.617-0.685c2.142-1.929 4.909-2.992 7.794-2.992 2.884 0 5.652 1.063 7.793 2.992l-0.617 0.685c-1.971-1.777-4.52-2.755-7.176-2.755" fill="#fff"/>
  </g>
  <g transform="translate(265.01 457.94)">
   <path d="m0 0c0.084 0.482 0.37 0.796 0.809 0.796 0.447 0 0.726-0.322 0.789-0.796zm-2.059-0.3c0-0.628-0.418-1.032-0.914-1.032-0.495 0-0.907 0.411-0.907 1.032v0.014c0 0.621 0.412 1.033 0.907 1.033 0.496 0 0.914-0.412 0.914-1.033zm4.689-0.097v0.013c0 1.061-0.572 2.031-1.821 2.031-0.978 0-1.691-0.711-1.825-1.629-0.123 1.055-0.886 1.629-1.685 1.629-0.551 0-0.907-0.258-1.165-0.607v1.89h-1.06v-5.093h1.06v0.489c0.251-0.3 0.6-0.558 1.165-0.558 0.806 0 1.554 0.565 1.683 1.607 0.136-0.973 0.914-1.621 1.932-1.621 0.676 0 1.179 0.265 1.528 0.697l-0.607 0.537c-0.293-0.272-0.551-0.383-0.907-0.383-0.474 0-0.81 0.251-0.914 0.732h2.602c7e-3 0.098 0.014 0.161 0.014 0.266" fill="#fff"/>
  </g>
  <g transform="translate(257.4 450.23)">
   <path d="m0 0v7e-3c0 0.526 0.407 0.968 0.965 0.968 0.347 0 0.564-0.13 0.74-0.319l-0.267-0.284c-0.13 0.137-0.266 0.231-0.477 0.231-0.309 0-0.536-0.266-0.536-0.589v-7e-3c0-0.33 0.227-0.593 0.554-0.593 0.2 0 0.347 0.091 0.48 0.228l0.256-0.252c-0.182-0.204-0.396-0.348-0.757-0.348-0.551 0-0.958 0.432-0.958 0.958" fill="#fff"/>
  </g>
  <g transform="translate(259.41 449.99)">
   <path d="m0 0v1.179h0.424v-1.053c0-0.287 0.144-0.449 0.397-0.449 0.245 0 0.417 0.169 0.417 0.456v1.046h0.428v-1.852h-0.428v0.287c-0.119-0.175-0.291-0.326-0.579-0.326-0.417 0-0.659 0.281-0.659 0.712" fill="#fff"/>
  </g>
  <g transform="translate(261.61 451.17)">
   <path d="m0 0h0.424v-0.417c0.116 0.277 0.33 0.466 0.656 0.452v-0.449h-0.024c-0.372 0-0.632-0.242-0.632-0.733v-0.705h-0.424v1.852" fill="#fff"/>
  </g>
  <path d="m263.08 451.17h0.424v-1.852h-0.424zm-0.017 0.688h0.456v-0.403h-0.456z"/>
  <g transform="translate(265.44 450.23)">
   <path d="m0 0v7e-3c0 0.326-0.235 0.596-0.568 0.596-0.34 0-0.558-0.266-0.558-0.589v-7e-3c0-0.323 0.235-0.593 0.565-0.593 0.344 0 0.561 0.267 0.561 0.586m-1.55 0v7e-3c0 0.53 0.421 0.968 0.989 0.968s0.985-0.431 0.985-0.961v-7e-3c0-0.526-0.421-0.965-0.992-0.965-0.565 0-0.982 0.432-0.982 0.958" fill="#fff"/>
  </g>
  <g transform="translate(266.13 449.99)">
   <path d="m0 0v1.179h0.424v-1.053c0-0.287 0.144-0.449 0.397-0.449 0.245 0 0.417 0.169 0.417 0.456v1.046h0.428v-1.852h-0.428v0.287c-0.119-0.175-0.291-0.326-0.579-0.326-0.417 0-0.659 0.281-0.659 0.712" fill="#fff"/>
  </g>
  <g transform="translate(268.1 449.56)">
   <path d="m0 0 0.189 0.288c0.204-0.151 0.418-0.228 0.607-0.228 0.183 0 0.288 0.077 0.288 0.2v7e-3c0 0.143-0.196 0.192-0.414 0.259-0.274 0.077-0.579 0.19-0.579 0.544v7e-3c0 0.351 0.291 0.564 0.66 0.564 0.231 0 0.484-0.08 0.68-0.21l-0.168-0.302c-0.179 0.109-0.368 0.176-0.523 0.176-0.165 0-0.259-0.077-0.259-0.183v-7e-3c0-0.136 0.2-0.193 0.417-0.263 0.27-0.084 0.575-0.207 0.575-0.54v-7e-3c0-0.389-0.301-0.582-0.687-0.582-0.263 0-0.554 0.095-0.786 0.277" fill="#fff"/>
  </g>
  <g transform="translate(269.83 451.97)">
   <path d="m0 0h-0.302v0.155h0.773v-0.155h-0.302v-0.797h-0.169z" fill="#fff"/>
  </g>
  <g transform="translate(270.4 452.13)">
   <path d="m0 0h0.185l0.287-0.732 0.286 0.732h0.181l-0.396-0.959h-0.147z" fill="#fff"/>
  </g>
 </g>
</svg>
