<svg width="800" height="469.95" version="1.1" viewBox="0 0 800 469.95" xmlns="http://www.w3.org/2000/svg">
 <defs>
  <style>.cls-1{fill:#5d2e8f;}.cls-2{fill:#fff;}</style>
 </defs>
 <g transform="matrix(6.1558 0 0 6.1558 .36181 .00028237)">
  <path d="m129.87 1.41h-30.32c-5.185-0.122-9.487 3.981-9.609 9.166 0 0.018-1e-3 0.036-1e-3 0.054v27.15h30.35c5.185 0.122 9.487-3.981 9.609-9.166 0-0.018 1e-3 -0.036 1e-3 -0.054v-27.15z" fill="#5d2e8f"/>
  <path d="m118.37 21.53h-3v3.47h-4.13v-3.47h-7.13c-1.418 6e-3 -2.586-1.113-2.64-2.53-1e-3 -0.426 0.113-0.844 0.33-1.21l8.93-14.56h4.86l-9 14.64h4.72v-2.4h4.13v2.4h3z" fill="#fff"/>
  <path d="m113.84 28c-1.072-1.145-2.869-1.204-4.014-0.132-0.606 0.568-0.933 1.372-0.896 2.202v5c0 0.276 0.224 0.5 0.5 0.5s0.5-0.224 0.5-0.5v-2h3.67v2c0 0.276 0.224 0.5 0.5 0.5s0.5-0.224 0.5-0.5v-5c0.036-0.764-0.238-1.511-0.76-2.07zm-0.24 4.08h-3.67v-2c0-1.013 0.822-1.835 1.835-1.835s1.835 0.822 1.835 1.835zm8.29 2.69-2.34-3.35 2.27-3.24c0.16-0.245 0.092-0.573-0.153-0.734-0.082-0.054-0.178-0.084-0.277-0.086-0.173 1e-3 -0.334 0.087-0.43 0.23l-2.05 2.93-2.05-2.93c-0.096-0.143-0.257-0.229-0.43-0.23-0.285 5e-3 -0.515 0.235-0.52 0.52 1e-3 0.108 0.036 0.213 0.1 0.3l2.27 3.24-2.34 3.35c-0.166 0.237-0.107 0.564 0.13 0.73s0.564 0.107 0.73-0.13l2.12-3 2.12 3c0.083 0.276 0.374 0.433 0.65 0.35s0.433-0.374 0.35-0.65c-0.019-0.107-0.071-0.205-0.15-0.28zm-15.13-7.22c-0.263-0.122-0.55-0.187-0.84-0.19-0.65-0.01-1.235 0.39-1.46 1-0.22 0.52-1.33 3.15-1.39 3.29s-0.15 0.29-0.3 0.29-0.2 0-0.3-0.29-1.16-2.77-1.39-3.29c-0.225-0.61-0.81-1.01-1.46-1-0.29 3e-3 -0.577 0.068-0.84 0.19-0.549 0.28-0.904 0.834-0.93 1.45v6c0 0.298 0.242 0.54 0.54 0.54s0.54-0.242 0.54-0.54v-5.81c-0.01-0.273 0.155-0.522 0.41-0.62 0.298-0.108 0.628 0.043 0.74 0.34 0.18 0.45 0.79 1.89 1.11 2.74l0.1 0.26c0.237 0.828 1.1 1.308 1.928 1.072 0.518-0.148 0.923-0.553 1.072-1.072l0.1-0.26c0.32-0.85 0.93-2.29 1.11-2.74 0.112-0.291 0.435-0.442 0.73-0.34 0.255 0.098 0.42 0.347 0.41 0.62v5.87c0 0.298 0.242 0.54 0.54 0.54s0.54-0.242 0.54-0.54v-6.06c-0.039-0.615-0.406-1.161-0.96-1.43z" fill="#fff"/>
 </g>
 <g transform="matrix(3.5523 0 0 3.5523 0 .0084637)" stroke-width=".88194">
  <path class="cls-3" d="m0-0.0013826v132.29h116.51c10.048 0.14544 19.708-3.8738 26.688-11.104 6.1874-6.434 9.6908-14.983 9.7984-23.909v-97.278z" fill="#5d2e8f"/>
  <path class="cls-4" d="m22.26 95.248c-2.196 0-3.7835-0.46743-4.7096-1.4023a2.5223 2.5223 0 0 1-0.78493-1.6933 4.7801 4.7801 0 0 1 1.173-3.2896 5.6444 5.6444 0 0 1 4.3303-1.5522 5.4416 5.4416 0 0 1 4.1892 1.5081 5.4945 5.4945 0 0 1 1.2347 3.7835 1.5875 1.5875 0 1 0 3.175 0c0-8.3255-8.2285-8.4225-8.5636-8.4225-8.352 0-8.5901 7.0555-8.5901 7.9375 0 2.3548 1.8168 6.3411 8.6607 6.3411 2.3107 0 3.9599 0.49389 4.9124 1.4817a2.981 2.981 0 0 1 0.88194 2.1696 4.3391 4.3391 0 0 1-1.1465 3.0692c-0.97895 1.0054-2.5135 1.5169-4.5684 1.5169a5.5386 5.5386 0 0 1-4.2333-1.5434 4.8948 4.8948 0 0 1-1.2612-3.4219 1.5875 1.5875 0 0 0-3.175 0 7.7346 7.7346 0 0 0 2.1696 5.618 8.89 8.89 0 0 0 6.447 2.54c6.6498 0 9.0046-4.1892 9.0046-7.7699 0-4.1628-3.5278-6.8527-9.0134-6.8527m107.22 0c-2.196 0-3.7835-0.46743-4.7096-1.4023a2.5753 2.5753 0 0 1-0.79374-1.6933 4.7889 4.7889 0 0 1 1.1818-3.2896 5.6444 5.6444 0 0 1 4.198-1.5699 5.4328 5.4328 0 0 1 4.1716 1.5169 5.4945 5.4945 0 0 1 1.2788 3.7747 1.5699 1.5699 0 1 0 3.1309 0c0-8.3255-8.2285-8.4225-8.5636-8.4225h-0.0441c-8.352 0-8.5901 7.0555-8.5901 7.9375 0 2.3548 1.8168 6.3411 8.6695 6.3411 2.293 0 3.9511 0.49389 4.9036 1.4905a2.9545 2.9545 0 0 1 0.88194 2.1608 4.3215 4.3215 0 0 1-1.1465 3.078c-0.97013 1.0054-2.5135 1.5169-4.5684 1.5169a5.5474 5.5474 0 0 1-4.2333-1.5434 4.9212 4.9212 0 0 1-1.2524-3.4219 1.5875 1.5875 0 0 0-3.175 0 7.6905 7.6905 0 0 0 2.1608 5.618 8.8988 8.8988 0 0 0 6.4558 2.54c6.641 0 8.9958-4.1892 8.9958-7.7699 0-4.1716-3.5278-6.8615-8.9958-6.8615m-86.43-11.086a8.2461 8.2461 0 0 0-8.5989 8.6254v14.993a1.6052 1.6052 0 0 0 3.2103 0v-6.3764h5.3887a8.6254 8.6254 0 0 0 0-17.242m0 14.111h-5.3798v-5.4592a5.1505 5.1505 0 0 1 5.3622-5.5209 5.4857 5.4857 0 0 1 0.30868 10.963h-0.32632zm23.892-14.111a12.841 12.841 0 1 0 12.868 12.832 12.832 12.832 0 0 0-12.868-12.832m0 22.534a9.7013 9.7013 0 1 1 9.7013-9.7013 9.7013 9.7013 0 0 1-9.7013 9.7013m27.137-5.8384a8.6607 8.6607 0 0 0-3.1838-16.757 8.3079 8.3079 0 0 0-8.6695 8.6606v14.905a1.614 1.614 0 0 0 3.2279 0v-6.2265h5.1241l4.2598 6.9673a1.6316 1.6316 0 1 0 2.8928-1.4993 0.56444 0.56444 0 0 0-0.07055-0.12347zm-8.5989-2.5576v-5.4945c0-3.3161 2.1696-5.5386 5.3975-5.5386a5.5209 5.5209 0 0 1 0.29104 11.033h-5.6532zm33.496-12.03a1.6051 1.6051 0 0 1-1.6051 1.6051h-5.5739v19.861a1.614 1.614 0 0 1-3.2279 0v-19.861h-5.5739a1.614 1.614 0 1 1 0-3.2191h14.376a1.6051 1.6051 0 0 1 1.6051 1.6051z" fill="#fff"/>
  <path class="cls-3" d="m151.26 65.483h-149.5v-63.72h149.5z" fill="#fff"/>
  <path class="cls-3" d="m30.057 21.809a16.528 16.528 0 0 0-13.3 6.641v-16.157a1.561 1.561 0 0 0-3.1221 0v26.511a16.237 16.237 0 0 0 16.422 15.945c9.8336 0 16.439-8.5725 16.439-16.58 0-10.107-8.5372-16.36-16.439-16.36m0 29.651a13.291 13.291 0 1 1 13.159-13.361v0.07056a13.273 13.273 0 0 1-13.229 13.291m51.364-13.176a1.5258 1.5258 0 0 1-1.464 1.5787h-17.268a1.6228 1.6228 0 0 1-1.5434-1.7021 1.6404 1.6404 0 0 1 1.5434-1.5522h15.407a13.229 13.229 0 1 0-1.8256 8.5548 1.5963 1.5963 0 0 1 1.0319-0.69673 1.5434 1.5434 0 0 1 1.2083 0.24694 1.614 1.614 0 0 1 0.46743 2.2225 16.483 16.483 0 1 1 2.4518-8.6695zm9.1986 13.802a3.2014 3.2014 0 0 1-6.3059 0v-27.525a3.2014 3.2014 0 0 1 6.3059 0zm41.839 1.7639a11.254 11.254 0 0 1-4.295 0.88194 10.213 10.213 0 0 1-8.1491-4.2157c-1.1818-1.7639-12.241-19.253-12.709-20.029 0-0.06174-1.2347-2.54-3.5983-2.4077-4.101 0.37042-3.907 3.8012-3.907 3.9423v19.835a3.1662 3.1662 0 0 1-6.2618 0.35278v-20.717c0-0.07056 0.14993-6.4293 6.1736-8.9252a10.213 10.213 0 0 1 12.568 4.0481l12.656 19.932a3.9599 3.9599 0 0 0 5.2916 1.3405 3.7394 3.7394 0 0 0 2.0285-3.1132v-20.285a3.1573 3.1573 0 0 1 3.1221-2.6458 3.1132 3.1132 0 0 1 3.1221 2.6458v20.285a9.622 9.622 0 0 1-6.0589 9.0928z" fill="#5d2e8f"/>
 </g>
</svg>
