<svg version="1.1" viewBox="0 0 799.97 691.7" xml:space="preserve" xmlns="http://www.w3.org/2000/svg"><defs><clipPath id="a"><path d="m6.76 558.42v-471.42h11.958v-17.559h542v0.449h-27.415v15.84h27.415v472.69z"/></clipPath></defs><g transform="matrix(1.3333 0 0 -1.3333 145.89 1055.6)"><path d="m-109.42 791.68v-518.77h456.93c40.749 0 77.922 15.473 104.66 43.531 24.428 25.621 38.391 59.773 38.391 93.792v381.45z" fill="#26549d"/><g clip-path="url(#a)"><text transform="matrix(1 0 0 -1 530.95 45.523)" fill="#5c6c89" font-family="'HXJXC P +Frutiger Nextfor SNS'" font-size="8.3753px"><tspan x="0 4.5394125 -504.81284 -500.27341" y="0">1918</tspan></text>
</g><path d="m145.76 453.78c0-4.0802-3.3384-7.4186-7.4186-7.4186-4.1067 0-7.4186 3.3384-7.4186 7.4186s3.3119 7.4186 7.4186 7.4186c4.0802 0 7.4186-3.3384 7.4186-7.4186" fill="#fff"/><path d="m245.58 450.99-63.482-91.037h55.798c3.6828 0 6.7032-2.8615 6.7032-6.4648 0-3.5503-3.0204-6.4118-6.7032-6.4118h-68.86v0.0265c-1.0068 0.10598-1.9871 0.39743-2.8615 1.0068-2.9939 1.9606-3.7358 6.0409-1.6957 9.1408l63.508 91.063h-55.798c-3.7093 0-6.7032 2.888-6.7032 6.4383 0 3.5768 2.9939 6.4383 6.7032 6.4383h68.781l-0.0265-0.053c1.0333-0.053 2.0401-0.39743 2.9939-0.98032 2.9409-1.9606 3.6828-6.0674 1.6427-9.1673m-114.7-31.741 0.053-64.648c0-4.1597 3.2854-7.4981 7.3126-7.5246 4.0537 0.0265 7.3391 3.3649 7.3391 7.5246l0.053 64.648c0 4.1597-3.3119 7.5246-7.3921 7.5246-4.0537 0-7.3656-3.3649-7.3656-7.5246" fill="#fff"/><path d="m-102.61 534.89v249.98h586.36v-249.98z" fill="#fff"/><path d="m409.76 580.44c-6.0938-2.464-11.711-3.4708-16.877-3.4708-16.957 0-28.429 10.995-32.085 16.533-4.6101 6.9947-47.982 75.511-49.837 78.558-0.13248 0.21196-4.8221 9.9621-14.122 9.4322-16.082-1.4572-15.288-14.917-15.235-15.473v-77.763c0-6.0938-5.5639-11.26-12.135-11.287h-0.0795c-7.1801 0.0265-12.029 5.14-12.426 9.9091v81.287c0 0.23845 0.60938 25.223 24.402 35 24.269 9.0083 42.789-4.5571 49.334-15.897l49.599-78.213c0.31794-0.47691 7.2596-11.711 20.799-5.246 6.4913 3.0734 7.9485 10.015 7.9485 12.188v79.644c0.39742 5.0076 5.511 10.439 12.267 10.466 6.8357-0.0265 11.843-5.352 12.267-10.307v-79.697c0-0.18546 1.1923-25.488-23.819-35.662m-164.08 6.9682v-0.053c-0.34444-4.9016-5.511-10.36-12.347-10.386h-0.0795c-6.8887 0.0265-11.949 5.3785-12.347 10.386v107.99c0.39743 5.14 5.458 10.492 12.347 10.519h0.0795c6.8357-0.0265 12.002-5.511 12.347-10.413zm-36.06 54.129c0-3.0734-1.9871-6.2263-6.3853-6.2263h-67.218c-3.4973 0-6.3323 2.8615-6.3323 6.3853s2.835 6.3853 6.3058 6.3853l60.541-0.0265c-3.2324 25.992-25.064 45.412-51.533 45.412-28.615 0-51.904-23.289-51.904-51.93 0-28.615 23.289-51.904 51.904-51.904 18.255 0 34.814 9.2997 44.353 24.879 0.98032 1.4572 2.411 2.411 4.0802 2.729 1.6427 0.31794 3.3649 0 4.7426-0.92733 2.888-1.9341 3.6828-5.8554 1.8282-8.7168-11.923-19.182-32.456-30.628-55.004-30.628-35.583 0-64.568 28.959-64.568 64.568 0 35.636 28.986 64.595 64.568 64.595 35.636 0 64.621-28.959 64.621-64.595m-201.34-51.692c-28.562 0-51.824 23.395-51.824 52.142s23.263 52.116 51.824 52.116c28.588 0 51.824-23.369 51.824-52.116s-23.236-52.142-51.824-52.142m0.18546 116.29c-29.012 0-45.783-17.566-52.169-26.045v63.376c0 3.3914-2.782 6.1203-6.1468 6.1203-3.3914 0-6.1203-2.729-6.1203-6.1203v-103.81c0-30.151 24.64-62.687 64.436-62.687 38.55 0 64.409 33.622 64.409 65.045 0 39.61-33.437 64.118-64.409 64.118" fill="#26549d"/></g></svg>
