<svg version="1.1" viewBox="0 0 800 156.8" xml:space="preserve" xmlns="http://www.w3.org/2000/svg"><defs><clipPath id="a"><path d="m0 0h1190.6v841.89h-1190.6z"/></clipPath></defs><g transform="matrix(1.3333 0 0 -1.3333 1.7741e-5 156.8)"><g transform="matrix(2.5243 0 0 2.5243 284.29 38.231)"><path d="m0 0c1.206 3.961 4.008 6.933 7.492 8.356 5.078 2.011 8.732 6.144 8.732 10.863 0 6.746-7.229 12.224-16.75 12.224h-0.265c-9.521 0-16.749-5.478-16.749-12.224 0-4.719 3.652-8.852 8.731-10.863 3.483-1.423 6.285-4.395 7.491-8.356z" fill="#20264f"/></g><g transform="matrix(2.5243 0 0 2.5243 282.57 2.2604)"><path d="m0 0h-1e-3c-3.214 0-5.82 2.604-5.82 5.817s2.606 5.818 5.82 5.818h1e-3c3.214 0 5.82-2.605 5.82-5.818s-2.606-5.817-5.82-5.817" fill="#20264f"/></g><g transform="matrix(2.5243 0 0 2.5243 84.045 35.376)"><path d="m0 0c0-7.935-6.467-13.119-14.47-13.119h-18.825v44.796h17.544c7.811 0 14.15-5.055 14.15-12.799 0-3.711-1.472-6.655-3.906-8.767 3.33-2.112 5.507-5.568 5.507-10.111m-23.05 22.078v-7.936h7.299c2.305 0 3.906 1.665 3.906 3.968 0 2.304-1.537 3.968-3.906 3.968zm12.805-21.31c0 2.496-1.665 4.288-4.225 4.288h-8.58v-8.576h8.58c2.56 0 4.225 1.792 4.225 4.288" fill="#ef2d38"/></g><g transform="matrix(2.5243 0 0 2.5243 138.83 21.645)"><path d="m0 0c2.625 0 4.867 1.024 6.147 2.432l7.683-4.416c-3.137-4.352-7.875-6.591-13.958-6.591-10.949 0-17.735 7.359-17.735 16.894 0 9.536 6.914 16.895 17.032 16.895 9.348 0 16.262-7.231 16.262-16.895 0-1.344-0.128-2.624-0.383-3.839h-22.731c1.217-3.328 4.162-4.48 7.683-4.48m5.891 11.647c-1.024 3.712-3.906 5.056-6.787 5.056-3.65 0-6.083-1.793-6.979-5.056z" fill="#ef2d38"/></g><path d="m191.52 2.2602h24.243v113.08h-24.243z" fill="#ef2d38"/><g transform="matrix(2.5243 0 0 2.5243 -1645.7 -1195.4)"><g clip-path="url(#a)"><g transform="translate(805.53 489.18)"><path d="m0 0h-4.866v-14.719h-10.245v44.797h17.929c8.515 0 15.366-6.848 15.366-15.359 0-5.503-3.329-10.495-8.259-12.991l9.54-16.447h-11.013zm-4.866 8.959h7.684c2.817 0 5.122 2.496 5.122 5.76s-2.305 5.76-5.122 5.76h-7.684z" fill="#ef2d38"/></g></g></g><g transform="matrix(2.5243 0 0 2.5243 522.42 90.461)"><path d="m0 0h-11.525v-34.941h-10.245v34.941h-11.525v9.855h33.295z" fill="#ef2d38"/></g><g transform="matrix(2.5243 0 0 2.5243 600 27.138)"><path d="m0 0v-9.855h-26.252v44.796h10.245v-34.941z" fill="#ef2d38"/></g></g></svg>
