<svg width="800" height="690.29" version="1.1" viewBox="0 0 800 690.29" xmlns="http://www.w3.org/2000/svg">
 <path d="m3.2052 685.92c-2.1854-1.894-3.2052-4.2251-3.2052-6.8476v-82.462c0-2.7682 1.0198-4.9536 3.2052-6.8476 2.0397-1.894 4.6622-2.7682 7.7217-2.7682h38.609c9.7614 0 17.483 2.6225 23.165 7.8674 5.8277 5.2449 8.5959 12.238 8.5959 21.125 0 3.9337-1.1656 7.7217-3.3509 11.364-2.1854 3.6423-5.0992 6.5562-8.5959 8.5959v0.58277c4.9536 1.7483 8.8873 4.6622 11.801 8.5959 2.8624 3.8252 4.3972 8.4806 4.3708 13.258 0 5.9734-1.4569 11.218-4.2251 15.735-2.7682 4.6622-6.7019 8.1588-11.801 10.781-5.0993 2.6225-10.781 3.788-17.337 3.788h-41.377c-2.9139 0.14569-5.3906-0.87416-7.576-2.7682zm45.893-56.966c3.0596 0 5.5363-1.1656 7.7217-3.4966 2.0397-2.3311 3.2052-5.245 3.2052-8.5959 0-3.6423-1.0198-6.5562-2.9139-8.5959s-4.5165-3.2052-7.8674-3.2052h-28.264v24.039h28.119zm2.9139 41.814c3.6423 0 6.5562-1.1655 8.7416-3.3509s3.3509-5.0993 3.3509-8.7416c0-3.788-1.0198-6.7019-3.2052-8.8873-2.1854-2.0397-5.0992-3.2052-8.8873-3.2052h-31.178v24.039h31.178zm46.913-74.158c0-2.7682 1.0199-4.9536 3.2052-6.8476 2.0397-1.894 4.6622-2.7682 7.7217-2.7682h65.125c0 6.4105-1.0199 11.073-3.2052 13.987s-5.5363 4.3708-10.344 4.3708h-41.085v22.874h38.172c0 6.4105-1.0198 11.073-3.2052 13.987-2.1854 2.9138-5.5363 4.3708-10.344 4.3708h-24.622v23.894h43.999c4.6622 0 8.0131 1.4569 10.199 4.3708 2.1854 2.9139 3.2052 7.576 3.2052 13.987h-68.039c-3.0596 0-5.5363-0.87416-7.7217-2.7682-2.0397-1.894-3.2052-4.2251-3.2052-6.9933v-82.462zm92.224 0c0-2.7682 1.0198-5.0992 3.2052-6.9933 2.0397-1.894 4.6622-2.7682 7.7217-2.7682h38.317c10.927 0 19.231 2.7682 25.059 8.3045s8.7416 13.549 8.7416 23.748c0 5.682-1.1656 10.49-3.3509 14.424-2.3311 3.9337-5.8277 6.9933-10.49 9.1786v0.58277c8.4502 3.788 12.675 10.927 12.675 21.417v10.053c0 5.0992-1.7483 8.8873-5.5363 11.51-3.6423 2.6225-8.8873 3.9337-15.881 3.9337v-24.768c0-4.8079-1.0198-8.4502-2.9139-10.636-1.894-2.3311-4.8079-3.4966-8.5959-3.4966h-27.682v23.457c0 5.0992-1.7483 8.8873-5.3906 11.51-3.6423 2.6225-8.8873 3.9337-15.735 3.9337v-93.389zm47.933 36.423c4.5165 0 7.8674-1.1655 10.199-3.6423s3.4966-5.9734 3.4966-10.49c0-4.8079-1.0198-8.3045-3.2052-10.49-2.1854-2.1854-5.682-3.3509-10.344-3.3509h-26.808v27.973zm68.913 52.012c-6.8476-3.3509-12.238-8.1588-16.026-14.132-3.788-6.1191-5.682-12.967-5.682-20.688v-24.768c0-7.7217 1.894-14.715 5.5363-20.688 3.6423-5.9734 9.033-10.636 15.735-13.987 6.7019-3.3509 14.424-4.9536 23.019-4.9536 8.5959 0 16.318 1.3112 23.165 3.788 6.8476 2.6225 12.093 6.1191 15.735 10.636 3.788 4.5165 5.5363 9.7614 5.5363 15.735 0 3.788-1.3112 6.7019-3.788 8.8873s-5.9734 3.2052-10.344 3.2052c-2.4768 0-4.9536-0.29139-7.4303-1.0198 0.29139-2.0397 0.43708-4.5165 0.43708-7.2846 0-4.6622-2.1854-8.4502-6.5562-11.364s-10.053-4.5165-16.9-4.5165c-6.8476 0-12.384 2.0397-16.609 5.9734-4.2251 3.9337-6.4105 9.1787-6.4105 15.443v24.768c0 6.4105 2.1854 11.655 6.7019 15.589 4.3708 4.0794 10.199 6.1191 17.192 6.1191 6.8476 0 12.384-1.6026 16.609-4.6622s6.4105-7.139 6.4105-11.947v-3.3509h-10.636c-3.9337 0-7.139-1.6026-9.6157-4.6622-2.4768-3.0596-3.6423-7.139-3.6423-12.093h35.403c2.9139 0 5.245 0.87416 7.139 2.6225 1.894 1.7483 2.7682 4.0794 2.7682 7.139v10.781c0 6.7019-1.894 12.675-5.5363 17.92-3.788 5.245-8.8873 9.3244-15.589 12.238-6.7019 2.9139-14.424 4.3708-23.019 4.3708-8.8873 0-16.755-1.7483-23.602-5.0993zm84.356 0.87416c-2.1854-1.894-3.2052-4.2251-3.2052-6.8476v-82.462c0-2.7682 1.0198-4.9536 3.2052-6.8476 2.0397-1.894 4.6622-2.7682 7.576-2.7682h38.609c9.7614 0 17.483 2.6225 23.165 7.8674 5.8277 5.2449 8.5959 12.238 8.5959 21.125 0 3.9337-1.1655 7.7217-3.3509 11.364s-5.0992 6.5562-8.5959 8.5959v0.58277c4.9536 1.7483 8.8873 4.6622 11.801 8.5959 2.8624 3.8252 4.3971 8.4806 4.3708 13.258 0 5.9734-1.4569 11.218-4.2251 15.735-2.7682 4.6622-6.7019 8.1588-11.801 10.781s-10.781 3.788-17.337 3.788h-41.377c-2.7682 0.14569-5.3906-0.87416-7.4303-2.7682zm45.893-56.966c3.0596 0 5.5363-1.1656 7.7217-3.4966 2.0397-2.3311 3.2052-5.245 3.2052-8.5959 0-3.6423-1.0198-6.5562-2.9139-8.5959s-4.5165-3.2052-7.8674-3.2052h-28.264v24.039h28.119zm2.9139 41.814c3.6423 0 6.5562-1.1655 8.8873-3.3509 2.1854-2.1854 3.2052-5.0993 3.2052-8.7416 0-3.788-1.0198-6.7019-3.2052-8.8873-2.1854-2.0397-5.0992-3.2052-8.8873-3.2052h-31.178v24.039h31.178zm50.118 14.715c-2.1854-2.1854-3.3509-4.9536-3.3509-8.0131v-76.489c0-5.245 1.7483-9.1787 5.2449-11.655s8.8873-3.788 16.172-3.788v84.793h37.589c4.8079 0 8.5959 1.6026 11.218 4.6622 2.6225 3.2052 3.788 7.7217 3.788 13.695h-62.794c-3.0596 0.14569-5.682-1.0198-7.8674-3.2052zm85.522-84.356c0-4.8079 1.894-8.5959 5.5363-11.364 3.788-2.7682 9.033-4.0794 15.735-4.0794v89.018c0 4.9536-1.894 8.7416-5.5363 11.51-3.788 2.7682-9.033 4.0794-15.735 4.0794zm59.588 83.919c-6.8476-3.3509-12.238-8.1588-16.026-14.132-3.788-6.1191-5.682-12.967-5.682-20.688v-24.768c0-7.7217 1.894-14.715 5.5363-20.688 3.788-5.9734 9.033-10.636 15.735-13.987 6.7019-3.3509 14.424-4.9536 23.019-4.9536 8.5959 0 16.318 1.3112 23.165 3.788 6.8476 2.6225 12.093 6.1191 15.735 10.781 3.788 4.6622 5.5363 9.9071 5.5363 15.881 0 3.9337-1.3112 6.8476-3.788 9.033s-5.9734 3.2052-10.344 3.2052c-2.4768 0-4.9536-0.29139-7.4303-1.0198 0.29138-2.0397 0.43707-4.5165 0.43707-7.4303 0-4.6622-2.1854-8.4502-6.5562-11.364s-10.053-4.3708-16.9-4.3708-12.384 1.894-16.609 5.8277c-4.2251 3.9337-6.4105 9.033-6.4105 15.152v24.768c0 6.2648 2.1854 11.51 6.5562 15.443 4.3708 3.9337 10.198 5.9734 17.192 5.9734 6.8476 0 12.53-1.4569 16.755-4.3708 4.3708-2.9139 6.5562-6.7019 6.5562-11.364 0-3.2052-0.1457-5.5363-0.43708-6.9933 2.6225-0.58277 4.9536-0.87416 7.139-0.87416 4.3708 0 7.8674 1.1655 10.49 3.3509 2.6225 2.1854 3.9337 5.245 3.9337 9.1786 0 5.682-1.894 10.781-5.5363 15.298-3.788 4.5165-9.033 8.0131-15.735 10.49-6.7019 2.4768-14.424 3.788-23.019 3.788-8.5959 0.1457-16.318-1.6026-23.311-4.9536zm81.297-83.628c0-5.0992 1.894-9.033 5.5363-11.801 3.6423-2.7682 9.033-4.0794 15.881-4.0794v45.748l47.35-45.748c2.7682 2.0397 4.9536 4.2251 6.5562 6.5562s2.4768 4.3708 2.4768 6.1191c0 1.6026-0.58277 3.2052-1.6026 4.5165-1.0198 1.3112-2.7682 3.2052-5.0993 5.3906l-27.536 25.933 38.754 49.099c-3.3509 4.5165-7.576 6.8476-12.967 6.8476-5.0993 0-9.033-1.894-11.947-5.682l-28.264-36.715-7.7217 7.576v20.251c0 5.0992-1.7483 8.8873-5.245 11.218-3.4966 2.3311-8.8873 3.4966-16.172 3.4966zm-319.94-601.42-341.8 503.66c-0.87415 1.3112-1.894 3.0596-3.2052 6.1191-2.4768 6.1191-3.788 14.424-3.788 24.622h711.27zm-279.15 494.04 222.91-314.26 120.93 170.46 38.9-57.403s9.033-19.814 22.291-11.51l24.913 35.549 125.73 177.31z" stroke-width="1.4569"/>
</svg>
