<svg version="1.1" viewBox="0 0 800 217.45" xmlns="http://www.w3.org/2000/svg">
 <g transform="matrix(9.0603 0 0 9.0603 -6.3648 0)" fill="none" fill-rule="evenodd">
  <g transform="translate(-34,-17)" fill="#f95741">
   <g transform="translate(0,-1)">
    <g transform="translate(34,18)">
     <path d="m11.78 17.681c0 0.97015-0.25783 1.742-0.86419 2.3166-0.607 0.57458-1.4147 0.86194-2.4698 0.86194-1.298 0-2.2476-0.38755-2.8384-1.1623-0.59079-0.77493-0.89148-1.8104-0.89148-3.1073v-2.4674c0-1.2964 0.31209-2.3323 0.90288-3.1073 0.59079-0.77477 1.5434-1.1623 2.8414-1.1623 1.0652 0 1.8573 0.2848 2.4587 0.8544 0.60139 0.56944 0.86082 1.3388 0.86082 2.3084zm2.7172-8.4475c-0.53829-0.77397-1.2185-1.3876-2.041-1.8408-0.82309-0.45321-1.783-0.67973-2.8796-0.67973-1.1077 0-2.0769 0.23166-2.8735 0.6945s-1.5052 1.1047-1.9869 1.925v-7.7681h-4.0135v21.994h4.0135v-2.1771c0.48162 0.82052 1.1927 1.4619 1.9949 1.9242 0.80174 0.4622 1.7595 0.69386 2.8571 0.69386 1.0965 0 2.0609-0.22652 2.8838-0.67925 0.82245-0.45321 1.5048-1.0694 2.043-1.8488 0.53813-0.77943 0.93724-1.6903 1.1957-2.7334 0.25847-1.043 0.38851-2.1699 0.38851-3.3818 0-1.1902-0.12924-2.3147-0.38771-3.3733-0.25847-1.0588-0.65629-1.9753-1.1944-2.7496zm15.625-0.26857c-0.64891-0.7006-1.4293-1.2509-2.3418-1.6515-0.91251-0.40023-1.9276-0.60042-3.0455-0.60042-1.1159 0-2.132 0.20581-3.0475 0.61648-0.91605 0.41082-1.6976 0.99295-2.345 1.746-0.64746 0.75374-1.1501 1.6597-1.5083 2.7183-0.35817 1.0592-0.53669 2.2362-0.53669 3.5321s0.16841 2.4755 0.50538 3.5393c0.33682 1.0637 0.82342 1.9747 1.4603 2.7329 0.6367 0.75872 1.4156 1.3485 2.3373 1.7698 0.92102 0.42078 1.966 0.63173 3.1346 0.63173 2.0146 0 3.6626-0.56029 4.9442-1.5759 1.2818-1.0157 2.0541-2.397 2.3182-4.3235h-4.0485c-0.1058 0.96324-0.43796 1.5486-0.99744 2.0119-0.55948 0.46332-1.2822 0.72131-2.1684 0.72131-0.88667 0-1.7013-0.25863-2.3502-0.8019-0.64939-0.54311-1.0204-1.2973-1.0204-2.2888v-1.0873h10.596v-2.0426c0-1.127-0.11366-2.1745-0.45658-3.1436-0.34292-0.96919-0.78087-1.8038-1.4293-2.5043zm-2.1276 4.4796h-6.5822v-0.51919c0-0.90786 0.35271-1.6468 0.96469-2.2169 0.61214-0.57008 1.4059-0.85536 2.3344-0.85536 0.93932 0 1.7342 0.28528 2.3461 0.85536 0.61198 0.57008 0.93692 1.3091 0.93692 2.2169zm11.719-11.88h-4.0135v5.4584h-3.2108v3.2108h3.2108v13.325h8.027v-3.2108h-4.0135v-10.114h4.0135v-3.2108h-4.0135zm17.367 7.4005c-0.64907-0.7006-1.4295-1.2509-2.342-1.6515-0.91252-0.40023-1.9276-0.60042-3.0455-0.60042-1.1159 0-2.132 0.20581-3.0475 0.61648-0.91605 0.41082-1.6976 0.99295-2.345 1.746-0.64746 0.75374-1.1501 1.6597-1.5083 2.7183-0.35817 1.0592-0.53669 2.2362-0.53669 3.5321s0.16841 2.4755 0.50538 3.5393c0.33682 1.0637 0.82341 1.9747 1.4603 2.7329 0.63671 0.75872 1.4156 1.3485 2.3373 1.7698 0.92102 0.42078 1.9661 0.63173 3.1346 0.63173 2.0146 0 3.6626-0.56029 4.9443-1.5759 1.2816-1.0157 2.054-2.397 2.318-4.3235h-4.0485c-0.10564 0.96324-0.43812 1.5486-0.99744 2.0119-0.55948 0.46332-1.2822 0.72131-2.1684 0.72131-0.88667 0-1.6147-0.25863-2.2636-0.8019-0.64955-0.54311-0.93387-1.2973-0.93387-2.2888v-1.0873h10.596v-2.0426c0-1.127-0.2002-2.1745-0.54311-3.1436-0.34292-0.96919-0.86724-1.8038-1.5157-2.5043zm-2.1153 4.4796h-6.4216v-0.51919c0-0.90786 0.26618-1.6468 0.87816-2.2169 0.61214-0.57008 1.3625-0.85536 2.2912-0.85536 0.93932 0 1.7188 0.28528 2.3307 0.85536 0.61198 0.57008 0.9215 1.3091 0.9215 2.2169zm15.403-6.4216-3.699 12.041h-0.12699l-3.6196-12.041h-4.2731l5.7496 16.536h4.4451l5.7971-16.536zm18.632 9.6325v-2.0426c0-1.127-0.19217-2.1745-0.53508-3.1437-0.34292-0.96918-0.8491-1.8037-1.4975-2.5043-0.64891-0.70044-1.4346-1.2508-2.3471-1.6515-0.91251-0.40007-1.9302-0.60042-3.048-0.60042-1.1159 0-2.1333 0.20549-3.0488 0.61616-0.91605 0.41066-1.6982 0.99295-2.3455 1.7456-0.64746 0.7531-1.1506 1.659-1.5088 2.7172-0.35817 1.0583-0.53685 2.2352-0.53685 3.5301 0 1.2964 0.16841 2.4765 0.50522 3.5407 0.33698 1.0642 0.82341 1.9756 1.4603 2.7343 0.63687 0.75872 1.4158 1.349 2.3373 1.7703 0.92102 0.42142 1.9661 0.63237 3.1346 0.63237 2.0146 0 3.6626-0.56029 4.9443-1.576 1.2818-1.0156 2.0541-2.3969 2.318-4.3234h-4.0485c-0.10564 0.96324-0.43796 1.5486-0.99744 2.0119s-1.2822 0.72115-2.1684 0.72115c-0.88667 0-1.6226-0.25847-2.2717-0.80174-0.64939-0.54327-0.94173-1.2975-0.94173-2.2888v-1.0873zm-10.596-3.73c0-0.90802 0.2742-1.647 0.88618-2.2169 0.61198-0.57008 1.3664-0.85536 2.2951-0.85536 0.93932 0 1.7128 0.28528 2.3248 0.85536 0.61198 0.56992 0.91556 1.3089 0.91556 2.2169v0.51919h-6.4216zm7.7639-9.9918-1.0748-2.9339-7.6398 2.796 1.0748 2.9339z"/>
    </g>
   </g>
  </g>
 </g>
</svg>
