<svg width="127.5pt" height="99pt" version="1.1" viewBox="0 0 127.5 99" xmlns="http://www.w3.org/2000/svg">
 <g transform="matrix(.28991 0 0 .28991 -4.3984 -1.8326)" fill="#fff">
  <path d="m218.9 7.83c16.6-3.08 34.29-1.55 49.69 5.57 7.59 3.5 14.39 8.67 19.66 15.17 11.15 0.47 22.24 5.08 29.88 13.33 7.94 8.19 11.62 20.63 8.26 31.69-3.08 10.28-11.25 18.23-20.42 23.35-3.14 1.83-7.5 0.56-9.31-2.55-1.81-2.87-1.18-7.17 1.76-9.04 5.52-3.95 11.32-8.31 14.04-14.76 2.69-6.38 0.2-13.82-4.31-18.72-3.52-4.01-8.35-6.61-13.4-8.17 2.6 15.66-8.36 30.33-21.78 37.16-4.41 1.69-9.74-2.19-9.38-6.93-0.1-2.72 1.7-5.11 4.04-6.31 6.03-3.73 11.63-9.29 13-16.49 1.3-6.69-2.36-13.18-7.16-17.56-8.42-7.73-19.76-11.23-30.86-12.81l-0.71 41.21c0 5.0231-2.9621 7.4344-6.9741 7.4344-4.122 0-7.1959-2.8003-7.1959-7.4344l-0.01-41.15c-11.22 1.4-22.64 5.06-31.11 12.83-4.75 4.38-8.4 10.84-7.08 17.49 1.47 7.7 7.7 13.33 14.12 17.23 4.62 2.86 3.49 10.79-1.68 12.38-4.37 1.74-8.19-1.86-11.49-4.19-10.15-7.47-17.11-20.05-15.14-32.88-8.32 2.49-16.18 8.6-18.29 17.35-1.24 4.27 0.02 8.81 2.56 12.34 3.33 4.93 7.87 8.85 12.58 12.42 3.1 2.21 2.96 7.28 0.33 9.81-2.07 2.32-5.81 2.87-8.47 1.27-8.27-4.7-15.72-11.58-19.32-20.56-3.54-8.58-2.66-18.65 1.76-26.74 5.71-10.62 16.66-17.89 28.38-20.15 2.38-0.62 4.91-0.44 7.26-1.1 9.05-11.28 22.8-17.78 36.77-20.49z"/>
  <path d="m160.45 118.78c19.58-19.41 46.92-30.82 74.53-30.61 27.68-0.25 55.13 11.14 74.74 30.63l-11.75 11.77c-14.62-14.54-34.4-23.75-54.95-25.49-25.86-2.51-52.43 7.2-70.86 25.46z"/>
  <path transform="matrix(2.587 0 0 2.587 23.15 -830.11)" d="m0 373.89 5.9648 5.9434h41.035v-5.9434zm122 0v5.9434h35.84l5.9922-5.9434zm-77.553 44.283 37.279 37.143 37.453-37.143h-8.459l-28.994 28.742-28.834-28.742z" stroke-width=".38654"/>
 </g>
 <g transform="translate(2.313 -169.6)" fill="#139557">
  <path d="m-2.313 239.58h9.2749c7.4424 0 8.8261-4.2635 8.8261-7.405 0-5.4602-2.9545-6.3204-4.9367-6.6196v-0.0748c2.5431-0.48619 4.1887-2.9171 4.1887-6.0212 0-4.4505-3.0293-6.5822-7.592-6.5822h-9.7611zm6.283-22.065h1.7577c2.2813 0 3.0293 1.496 3.0293 2.8797 0 1.9073-0.89757 3.1415-3.0667 3.1415h-1.7204zm0 10.21h2.0195c1.9447 0 3.2911 1.122 3.2911 3.7399 0 1.8699-0.86018 3.4781-3.4033 3.4781h-1.9073z"/>
  <path d="m18.036 239.58h15.857v-5.0862h-9.5741v-6.096h8.6018v-5.0863h-8.6018v-5.348h9.1627v-5.0863h-15.446z"/>
  <path d="m40.625 239.58h6.283v-21.617h5.6098v-5.0863h-17.503v5.0863h5.6098z"/>
  <path d="m54.817 239.58h6.283v-26.703h-6.283z"/>
  <path d="m64.217 231.43v1.7204c0 5.5724 4.2261 6.9562 8.7887 6.9562 5.7594 0 9.1253-2.4309 9.1253-8.4896 0-9.4245-11.481-6.6196-11.481-12.192 0-1.9448 0.93497-2.8797 2.5057-2.8797 0.93497 0 1.5334 0.29919 1.9073 0.93497 0.37399 0.59838 0.52359 1.5334 0.52359 2.8049h6.0586v-0.63578c0-4.1139-2.2439-7.2928-8.527-7.2928-6.47 0-8.7513 3.5903-8.7513 7.8538 0 9.9855 11.481 6.7692 11.481 12.529 0 1.5334-0.63578 3.1789-2.8423 3.1789-2.1691 0-2.7301-1.5334-2.7301-3.5529v-0.93497z"/>
  <g transform="translate(-6.851)">
   <path d="m99.895 239.58h6.283v-21.617h5.6098v-5.0863h-17.503v5.0863h5.6098z"/>
   <path d="m117.98 239.58h8.0034l6.0586-26.703h-6.7318l-3.2163 20.644h-0.0748l-3.1789-20.644h-6.7318z"/>
  </g>
 </g>
</svg>
