<svg width="800" height="800" version="1.1" viewBox="0 0 800 800" xml:space="preserve" xmlns="http://www.w3.org/2000/svg">

<path d="m800 800h-800v-800h800z" fill="#fff" stroke-width="1.1315"/><path d="m6 6h788v788h-788z" fill="#17468c" stroke-width="1.1314"/><path d="m781.44 91.532v272.09h-79.309v-174.57h-0.79196l-47.178 174.57h-62.565l-47.178-174.57h-0.79196v174.57h-79.309v-207.27h-117.89v41.182h76.82v62.452h-76.594v103.63h-83.835v-54.645c-13.237 35.864-51.025 54.645-89.944 54.645h-154.32v-272.09h149c71.616 0 86.889 40.39 86.889 68.222 0 27.492-13.35 42.313-33.489 53.401 17.31 5.8831 33.828 17.649 41.861 38.353v-159.98h320.86l38.806 160.09h0.79196l38.919-160.09zm-679.28 106.01h44.463c17.536 0 28.624-4.978 28.624-22.514 0-13.803-11.54-18.668-28.624-18.668h-44.463zm82.138 75.462c0-16.065-9.5035-24.777-29.303-24.777h-52.609v50.572h49.102c17.649 0 32.81-4.8649 32.81-25.795z" fill="#fff" stroke-width="1.1314"/><g transform="matrix(1.1314 0 0 1.1314 3.7938 -.78823)" fill="#ed9205">
		<path d="m65.2 402.4v114.6h-20.1v-114.6h-30.8v-19h81.6v19z"/>
		<path d="m90.6 449.6c0-18.8 6.9-34.9 20.7-48.4 13.7-13.5 30.2-20.3 49.5-20.3 19 0 35.3 6.8 48.9 20.4 13.7 13.7 20.6 30 20.6 49.1 0 19.2-6.9 35.5-20.6 48.9-13.8 13.5-30.5 20.2-50 20.2-17.3 0-32.8-6-46.5-17.9-15.1-13.3-22.6-30.6-22.6-52zm20.3 0.3c0 14.7 5 26.9 14.9 36.4s21.3 14.3 34.2 14.3c14 0 25.8-4.8 35.5-14.5 9.6-9.9 14.4-21.8 14.4-35.9 0-14.2-4.8-26.1-14.3-35.8s-21.2-14.5-35.1-14.5-25.7 4.8-35.2 14.5c-9.6 9.6-14.4 21.4-14.4 35.5z"/>
		<path d="m263.4 383.4v80.5c0 11.5 1.9 19.9 5.6 25.2 5.6 7.7 13.5 11.5 23.6 11.5 10.3 0 18.2-3.8 23.7-11.5 3.8-5.1 5.7-13.5 5.7-25.2v-80.5h20.1v86c0 14.1-4.4 25.7-13.1 34.8-9.9 10.2-22 15.3-36.4 15.3-14.3 0-26.4-5.1-36.2-15.3-8.8-9.1-13.2-20.7-13.2-34.8v-86z"/>
		<path d="m381.9 383.4v114.7h39.3v18.9h-59.5v-133.6z"/>
		<path d="m415.8 449.6c0-18.8 6.9-34.9 20.7-48.4 13.7-13.5 30.2-20.3 49.5-20.3 19.1 0 35.4 6.8 49 20.4 13.7 13.7 20.5 30 20.5 49.1 0 19.2-6.9 35.5-20.6 48.9-13.8 13.5-30.4 20.2-49.9 20.2-17.3 0-32.8-6-46.5-17.9-15.1-13.3-22.7-30.6-22.7-52zm20.3 0.3c0 14.7 5 26.9 14.9 36.4s21.3 14.3 34.2 14.3c14 0 25.8-4.8 35.5-14.5 9.7-9.9 14.5-21.8 14.5-35.9 0-14.2-4.8-26.1-14.3-35.8s-21.2-14.5-35.2-14.5c-13.9 0-25.6 4.8-35.2 14.5-9.6 9.6-14.4 21.4-14.4 35.5z"/>
		<path d="m568.4 517v-142.7l97.5 102v-92.9h20.2v141.8l-97.5-101.7v93.5z"/>
		<path d="m255.6 550.9 24.9 62.5 25.3-62.5h14.9l-40.5 97-39.5-97z"/>
		<path d="m377.4 619.2h-38.7l-10 21.9h-14.7l44.7-95.8 43 95.8h-14.9zm-5.5-12.8-13.4-30.6-14 30.6z"/>
		<path d="m443.6 602.7 27.9 38.4h-16.7l-25.7-36.9h-2.5v36.9h-13.6v-90.2h16c11.9 0 20.5 2.2 25.8 6.7 5.8 5 8.7 11.6 8.7 19.8 0 6.4-1.8 11.9-5.5 16.5-3.6 4.6-8.4 7.5-14.4 8.8zm-17-10.4h4.3c12.9 0 19.4-4.9 19.4-14.7 0-9.3-6.3-13.9-18.8-13.9h-4.9z"/>
	</g>
</svg>
