<svg width="800" height="800" version="1.1" viewBox="0 0 800 800" xml:space="preserve" xmlns="http://www.w3.org/2000/svg">

<path d="m800 800h-800v-800h800z" fill="#fff" stroke-width="1.1315"/><path d="m6 6h788v788h-788z" fill="#17468c" stroke-width="1.1314"/><path d="m781.44 121.87v272.14h-79.208v-174.48h-0.79208l-47.298 174.48h-62.461l-47.185-174.48h-0.79207v174.48h-79.321v-207.3h-117.91v41.188h76.718v62.461h-76.492v103.65h-83.847v-54.653c-13.239 35.87-51.146 54.653-89.957 54.653h-154.34v-272.14h149.02c71.626 0 86.902 40.396 86.902 68.232 0 27.496-13.352 42.32-33.607 53.409 17.426 5.9972 33.833 17.765 41.98 38.359v-160h320.79l38.925 160.11h0.67893l38.925-160.11zm-679.26 106.03h44.356c17.539 0 28.628-4.9788 28.628-22.518 0-13.805-11.429-18.67-28.628-18.67h-44.356zm82.15 75.474c0-16.068-9.5049-24.781-29.42-24.781h-52.503v50.693h49.109c17.539 0 32.815-4.9788 32.815-25.912z" fill="#fff" stroke-width="1.1315"/><g transform="matrix(1.1315 0 0 1.1315 -1.8097 -.11182)" fill="#ed9205">
		<path d="m106.5 618.4v-214.7h45.1c21.6 0 38.7 2.1 51.2 6.4 13.4 4.2 25.6 11.3 36.5 21.3 22.2 20.2 33.3 46.8 33.3 79.7 0 33-11.5 59.7-34.6 80.1-11.6 10.2-23.8 17.3-36.5 21.3-11.9 4-28.7 6-50.5 5.9zm32.4-30.4h14.6c14.6 0 26.7-1.5 36.3-4.6 9.7-3.3 18.4-8.4 26.2-15.4 15.9-14.6 23.9-33.6 23.9-56.9 0-23.5-7.9-42.6-23.6-57.3-14.2-13.1-35.1-19.6-62.8-19.6h-14.6z"/>
		<path d="m304.8 403.7h32.4v214.7h-32.4z"/>
		<path d="m538.9 415.3v38.3c-18.7-15.7-38.1-23.5-58.1-23.5-22.1 0-40.7 7.9-55.8 23.8-15.2 15.8-22.8 35.1-22.8 57.9 0 22.5 7.6 41.5 22.8 57s33.8 23.2 55.9 23.2c11.5 0 21.2-1.8 29.1-5.5 4.5-1.9 9.1-4.4 13.9-7.5 4.7-3.2 9.7-7 15-11.5v39.1c-18.5 10.5-38 15.7-58.4 15.7-30.7 0-56.8-10.7-78.5-32.1-21.7-21.6-32.5-47.6-32.5-78.1 0-27.4 9.1-51.8 27.2-73.2 22.2-26.3 51-39.4 86.3-39.4 19.3 0 38 5.3 55.9 15.8z"/>
		<path d="m571.3 403.7h32.4v214.7h-32.4z"/>
	</g>
</svg>
