<svg width="800" height="800" version="1.1" viewBox="0 0 800 800" xml:space="preserve" xmlns="http://www.w3.org/2000/svg">

<path d="m0 0h800v800h-800z" fill="#fefefe" stroke-width="1.1296"/><path d="m6.1133 6h787.89v787.89h-787.89z" fill="#1b1955" stroke-width="1.1327"/><g transform="matrix(1.1327 0 0 1.1327 -.68277 -1.5889)" fill="#fefefe"><path d="m16.3 354.9h37c9.3 0.1 17.9 1.4 25.6 4 7.6 2.6 13.8 7 18.5 13.4 4.7 6.1 7 14.4 7 24.7 0 7.8-1.5 14.6-4.6 20.4-3.1 5.9-7.2 10.3-12.5 13.1v0.6c3 1.5 5.8 3.6 8.4 6.1 2.5 2.5 4.8 5.4 6.7 8.9 1.8 3.3 3.3 7.1 4.4 11.2 0.9 4.2 1.4 8.6 1.4 13.3 0 13.4-3.9 24.2-11.7 32.4s-19.7 12.3-35.6 12.3h-44.6zm32.4 31.4v32.4h8.2c5 0 8.8-1.5 11.3-4.4 2.6-2.8 3.9-6.9 3.8-12.2 0-5.7-1.6-9.7-4.8-12.2-3.2-2.4-7-3.6-11.5-3.6zm0 63.9v33.5h8.7c12.3 0 18.5-5.5 18.5-16.4 0-6.9-1.7-11.4-5-13.7s-7.9-3.4-14-3.4z"/><path d="m216.1 355.1v104.6c0 12.1-2.3 22.7-6.9 31.6-4.6 9.1-11 15.9-19.1 20.6s-17.5 7.1-28 7.1c-9.9 0-18.5-2-25.9-6.1-7.5-4.1-13.2-10.3-17.3-18.8-4.2-8.4-6.2-18.9-6.2-31.6v-107.6l30.9 0.2v96.1c0 6.2 0.6 11.7 1.7 16.2 1.2 4.7 3.2 8.4 6.1 11.1 2.7 2.7 6.6 4.1 11.5 4.1 9.2 0 15.2-3.4 18.1-10.3s4.3-16.8 4.3-29.7v-87.7z"/><path d="m284.4 397.4c-3.7-4.5-6.9-7.6-9.6-9.4-3-2-6.4-3-10.3-3-2.9 0-5.7 1.2-8.2 3.5-2.7 2.3-4 5.4-4 9.3 0 5.4 2.9 9.7 8.7 12.8 5.9 3.3 12 6.4 18.2 9.4 6.3 3.2 11.7 8.2 16.3 15 4.6 7 6.8 17.1 6.8 30.6 0 17.1-4 30.3-12.1 39.5-8.1 9.3-18.3 13.9-30.8 13.9-7.2 0-14.2-1.6-20.9-4.8-6.8-3.1-12.8-7.8-17.9-14.2l16.6-30.3c5.3 8.6 12.4 12.9 21.1 12.9 3.5 0 6.8-1.2 10-3.7 3.1-2.4 4.7-5.9 4.7-10.6 0-5.5-2.9-9.9-8.8-13.1-2.6-1.5-5.6-3.1-9.1-4.9l-4.6-2.3-4.7-2.6c-6.3-3.3-11.7-8.3-16.2-15-4.5-6.6-6.7-16.5-6.7-29.7 0-10.1 1.9-18.9 5.8-26.4 3.8-7.4 8.9-13.2 15.2-17.2 6.1-3.9 12.7-5.9 19.8-5.9 6.5 0 12.8 1.6 19.1 4.8 6.4 3.3 12 7.9 16.8 13.8z"/><path d="m306.8 368.9 30.9-17.2v163.6l-30.9-0.1z"/><path d="m449.1 515.4-70.7-76.5 0.1 76h-31.1v-162.2l70.8 76.3v-73.9h30.9z"/><path d="m520.4 515.3h-62.8v-160.4h69v34.1h-38.1v27.8h31.9v33.7h-31.9v31h31.9z"/><path d="m592.6 397.4c-3.7-4.5-7-7.6-9.7-9.4-2.9-2-6.4-3-10.3-3-2.9 0-5.6 1.2-8.2 3.5-2.7 2.3-4 5.4-4 9.3 0 5.4 2.9 9.7 8.7 12.8 5.9 3.3 12 6.4 18.2 9.4 6.3 3.2 11.7 8.2 16.3 15 4.6 7 6.9 17.1 6.9 30.6 0 17.1-4.1 30.3-12.2 39.5-8.1 9.3-18.3 13.9-30.8 13.9-7.2 0-14.2-1.6-20.9-4.8-6.8-3.1-12.8-7.8-17.9-14.2l16.7-30.3c5.3 8.6 12.3 12.9 21 12.9 3.5 0 6.8-1.2 10-3.7 3.2-2.4 4.7-6 4.7-10.6 0-5.5-2.9-9.9-8.8-13.1-2.6-1.5-5.6-3.1-9-4.9l-4.7-2.3-4.6-2.6c-6.3-3.3-11.8-8.3-16.3-15-4.5-6.6-6.7-16.5-6.7-29.7 0-10.1 1.9-18.9 5.8-26.4 3.8-7.5 8.9-13.2 15.2-17.2 6.1-3.9 12.7-5.9 19.8-5.9 6.5 0 12.9 1.6 19.1 4.8 6.5 3.3 12.1 7.9 16.8 13.8z"/><path d="m673.4 397.4c-3.7-4.5-6.9-7.6-9.7-9.4-2.9-2-6.4-3-10.3-3-2.9 0-5.6 1.2-8.1 3.5-2.7 2.4-4.1 5.4-4.1 9.3 0 5.4 3 9.7 8.8 12.8 5.9 3.3 11.9 6.4 18.1 9.4 6.3 3.2 11.7 8.2 16.4 15 4.5 7 6.8 17.1 6.8 30.6 0 17.1-4.1 30.3-12.2 39.5-8 9.3-18.2 13.9-30.7 13.9-7.3 0-14.3-1.6-21-4.8-6.8-3.1-12.8-7.9-17.9-14.2l16.7-30.3c5.3 8.6 12.3 12.9 21 12.9 3.5 0 6.8-1.2 10-3.7 3.1-2.4 4.7-5.9 4.7-10.6 0-5.5-2.9-9.9-8.8-13.1-2.6-1.5-5.6-3.1-9-4.9l-4.6-2.3-4.7-2.6c-6.3-3.3-11.7-8.3-16.2-15-4.6-6.6-6.8-16.5-6.8-29.7 0-10.1 1.9-18.9 5.8-26.4 3.8-7.5 8.9-13.2 15.2-17.2 6.2-3.9 12.8-5.9 19.8-5.9 6.5 0 12.9 1.6 19.2 4.8 6.4 3.3 12 7.9 16.7 13.8z"/></g><path d="m715.62 598.84-137.62 114.4-103.53-66.714-113.15 77.135-96.957-40.663-190.18 111h-68.187v-2.1521l253.15-150.42 98.089 38.624 117.34-79.627 102.05 65.808s104.66-85.857 105-85.857c9.0614 8.8348 12.573 12.12 33.98 18.463z" fill="#ed9320" stroke-width="1.1327"/><path d="m782.11 95.594v274.56h-79.4v-176.13h-0.79287l-47.346 176.13h-62.637l-47.232-176.13h-0.79288v176.13h-79.4v-209.2h-118.02v41.569h76.795v63.09h-76.682v104.55h-83.931v-55.048c-13.252 36.132-51.197 55.048-90.047 55.048h-154.61v-274.56h149.29c71.698 0 86.989 40.776 86.989 68.866 0 27.75-13.366 42.702-33.527 53.802 17.33 6.0032 33.867 17.896 41.909 38.737v-161.41h321.34l38.964 161.52h0.67961l38.964-161.52zm-680.28 106.92h44.514c17.556 0 28.657-4.9838 28.657-22.653 0-13.932-11.44-18.916-28.657-18.916h-44.514zm82.232 76.229c0-16.197-9.5144-25.032-29.336-25.032h-52.669v51.084h49.158c17.67 0 32.847-4.9838 32.847-26.051z" fill="#fefefe" stroke-width="1.1327"/>
</svg>
