<svg width="800" height="647.95" enable-background="new 0 0 66 66" space="preserve" version="1.0" viewBox="0 0 800 647.95" xmlns="http://www.w3.org/2000/svg">
 <link href="" rel="stylesheet" type="text/css"/>
 <style type="text/css"/>
 <g transform="matrix(15.227 0 0 15.227 -101.43 -191.6)" fill="#02399e">
  <g fill="#02399e">
   <path d="m49.675 48.82h6.312v6.314h-6.312z"/>
   <path d="m15.819 26.859h-3.382v-3.492h3.623c1.364 0 2.021 0.605 2.021 1.706-1e-3 1.444-1.053 1.786-2.262 1.786m-3.397-9.816h3.061c1.181 0 1.97 0.339 1.97 1.286 0 1.206-0.764 1.55-1.97 1.55h-3.061zm38.564-4.46-2.676 11.022h-0.053l-2.68-11.021h-22.091v11.013c-0.56-1.421-1.694-2.231-2.892-2.643 1.396-0.759 2.312-1.782 2.312-3.676 0-1.915-1.051-4.694-5.984-4.694h-10.261v18.736h10.629c2.675 0 5.283-1.291 6.197-3.761v3.761h5.768v-7.138h5.274v-4.304h-5.286v-2.834h8.12v14.276h5.46v-12.018h0.057l3.248 12.018h4.306l3.254-12.018h0.054v12.018h5.458v-18.737z"/>
   <path d="m43.811 33.431-3.491 13.161h-0.065l-3.554-13.161h-22.157v5.558h5.468v16.147h6.685v-16.147h4.916l4.812 16.147h7.482l6.773-21.705z"/>
  </g>
 </g>
 <rect x="-80.398" y="713.64" width="66" height="66" display="none" fill="#1d284b"/>
 <path d="m-37.278 727.58 2.668 2.667-14.377 14.417-7.042-7-11.71 11.708v3.334l11.709-11.709 7.042 7 16.084-16.084 2.666 2.667v-7z" display="none" fill="#dca271"/>
 <path d="m-65.405 755.71 9.375-9.375v16.418h-9.375zm11.751-7.043v14.086h9.375v-14.086l-4.75 4.709zm11.71 14.086h9.375v-25.794l-9.375 9.376z" display="none" fill="#fff"/>
</svg>
