<svg width="800" height="739.44" version="1.1" viewBox="0 0 800 739.44" xml:space="preserve" xmlns="http://www.w3.org/2000/svg">

<g transform="matrix(1.1852 0 0 1.1852 -20.148 -54.756)" fill="#fff">
		<path d="m692 46.2v240.7h-70.1v-154.4h-0.7l-41.8 154.4h-55.3l-41.7-154.4h-0.8v154.4h-70.1v-183.4h-104.3v36.4h67.9v55.3h-67.8v91.7h-74.1v-48.3c-11.7 31.7-45.3 48.3-79.6 48.3h-136.6v-240.7h131.8c63.4 0 76.9 35.7 76.9 60.3 0 24.3-11.7 37.5-29.6 47.2 15.3 5.3 29.9 15.7 37.1 34v-141.5h283.8l34.4 141.6h0.7l34.4-141.6zm-601 93.7h39.3c15.5 0 25.3-4.4 25.3-19.9 0-12.2-10.1-16.5-25.3-16.5h-39.3zm72.7 66.7c0-14.1-8.5-21.9-26-21.9h-46.5v44.8h43.4c15.6 0 29.1-4.3 29.1-22.9z" fill="#fff"/>
	</g><g transform="matrix(1.0487 0 0 1.0487 -19.449 -54.281)" fill="#ed9205" stroke-width="1.1301"><path d="m82.158 643.37v-113.46h35.485v195.17h70.405l0.11301 31.756h-106v-113.46z"/><path d="m397.57 352.03 65.207 145.44 0.79107-144.88 105.89 109.96 0.22602-101.03h21.585v155.05l-105.89-111.54v102.84h-42.492l-15.369-35.146-62.269 0.33903-15.934 34.807-43.622 0.11301-41.362-60.008h-3.6163l0.11301 59.895h-22.828c0.11301-46.786 0.11301-99.449 0-146.24 0 0 0.67806-0.11301 3.0513-0.11301 9.9449 0.11301 19.89-0.22602 29.835 0.11301 6.2156 0.22602 12.318 1.2431 18.534 2.7122 11.301 2.7122 20.003 8.7018 25.879 18.647 2.4862 4.0684 4.0684 8.5888 4.7464 13.448 0.56505 3.2773 1.1301 6.5546 0.90408 9.9449-0.67806 9.0408-3.2773 17.291-8.8148 24.636-5.3115 7.0066-10.623 10.623-18.421 13.674-1.0171 0.33903-3.6163 0.67806-5.3115 0.90408 2.9383 4.2944 39.667 53.906 39.667 53.906zm-136.74 53.68c0 6.8936-0.11301 16.047-0.11301 22.941h1.5821c7.7977 0 15.482 0.56505 22.828-2.5992 4.2944-1.9212 8.0237-4.4074 10.623-8.7018 3.2773-5.5375 2.8253-11.301 2.4862-17.178-0.22602-3.7293-2.0342-6.7806-4.6334-9.4929-4.9725-5.5375-11.753-7.0066-18.647-7.9107-3.9554-0.45204-7.1196-0.33903-11.075-0.33903h-3.1643c0.11301 7.0066 0.11301 16.273 0.11301 23.28zm136.18-4.2944-23.054 50.064 44.526-0.11301z"/><path d="m307.05 643.37c0-36.615-0.11301-113.46-0.11301-113.46h36.163v195.17h69.727l0.11301 31.756h-105.89v-113.46z"/><path d="m443.23 643.37v-113.46h36.163v195.17h69.727v31.756h-105.89v-113.46z"/><path d="m196.41 431.7c9.2668 0 21.02 0 30.287-0.11301 0 0 0.11301 0.67807 0 2.7122-0.22602 5.1985 0.11301 9.9449-0.33903 15.03-0.56505 6.3286-2.1472 12.544-4.2944 18.647-3.5033 10.171-9.8319 18.421-17.517 25.427-6.2156 5.6505-13.335 10.171-21.585 12.883-9.2668 3.1643-18.76 4.7464-28.479 4.1814-5.7635-0.33903-11.414-1.4691-17.178-2.9383-9.6059-2.4862-17.856-7.2327-25.427-13.448-8.5888-7.0066-15.708-15.256-20.568-25.314-2.4862-5.1985-4.4074-10.51-5.7635-16.16-1.6952-7.3457-2.5992-14.691-2.0342-22.15 0.56505-8.4758 2.3732-16.726 5.5375-24.749 4.8594-12.657 13.109-22.489 23.167-30.965 6.3286-5.3115 13.335-9.3799 21.133-11.979 4.8594-1.6952 9.7189-2.8253 14.804-3.7294 5.9895-1.1301 11.979-1.1301 17.969-0.79107 7.9107 0.56505 15.482 2.3732 22.828 5.3115 9.9449 3.9554 17.969 10.51 25.992 18.082 1.6952 1.6952 5.6505 6.4416 5.6505 6.4416s-0.90409 0.90409-1.4691 1.3561c-4.4074 4.1814-8.7018 8.4758-13.109 12.657-0.45205 0.33903-1.2431 1.1301-1.2431 1.1301s-0.79107-0.79108-1.3561-1.4691c-3.2773-3.5033-6.3286-7.2327-10.171-10.284-6.2156-5.0855-12.996-9.0408-21.02-10.849-7.2327-1.5821-14.578-1.4691-21.698-0.56505-8.8148 1.1301-16.613 4.9725-23.619 10.51-7.1196 5.7635-12.77 12.657-16.273 21.246-1.5821 3.7293-2.5992 7.6847-3.6163 11.64-1.0171 4.5204-0.67806 8.2498-0.79107 12.544-0.11301 8.1367 2.1472 16.16 5.6505 23.393 4.4074 9.0408 11.301 15.708 19.438 21.246 9.6059 6.5546 20.116 9.4929 31.643 8.5888 8.2498-0.67806 15.934-3.7293 22.602-8.7018 5.8765-4.5204 10.736-9.8319 13.787-16.613 1.3561-2.9383 2.2602-6.1026 2.9383-9.2668 0.45205-1.9212 0.33904-2.5992 0.33904-2.5992-10.397 0-26.218-0.11301-36.615 0l0.11301-20.342c9.1538 0.11301 21.133 0 30.287 0z"/><path d="m603.81 361.07c11.414 0 26.444 0 37.858 0.11301 6.8936 0 13.787 0.67806 20.455 2.0342 18.308 3.8424 32.773 13.9 43.622 29.044 4.1814 5.8765 6.8936 12.657 8.8148 19.777 1.2431 4.5204 1.9212 9.0408 2.4862 13.674 0.56505 4.0684 0.90408 8.2498 0.56505 12.318-0.67806 8.5888-2.0342 16.952-5.3115 25.201-3.2773 8.3628-8.0237 15.708-14.126 21.924-6.7806 7.0066-14.578 12.883-23.845 16.5-5.7635 2.2602-11.527 3.7293-17.63 4.7464-7.9107 1.4691-15.708 0.90408-23.619 1.0171-8.7018 0.22602-17.404 0-26.105 0.11301h-3.1643zm22.715 125.67h2.3732c9.0408-0.11302 18.082-0.11302 27.122-2.0342 7.4587-1.5821 14.013-4.8594 19.89-9.4929 7.3457-5.8765 12.77-12.996 15.934-22.15 1.8082-5.3115 2.7122-10.736 3.0513-16.16 0.56505-7.5717-0.90409-14.917-3.2773-22.15-2.9383-8.5888-8.1368-15.708-15.143-21.246-9.2668-7.4587-20.681-10.171-32.321-11.188-4.9725-0.45204-9.9449 0-14.917-0.22602-2.2602-0.11301-2.8253 0-2.8253 0z"/><path d="m217.77 529.91h36.163v226.92h-36.163z"/><path d="m710.16 529.91v31.869h-95.833v54.81l92.668-0.33903 0.33903 33.112-93.007-0.33903v76.282h95.833v31.53h-130.75v-226.92z"/></g>
</svg>
