<svg width="800" height="800" version="1.1" viewBox="0 0 800 800" xml:space="preserve" xmlns="http://www.w3.org/2000/svg">

<path d="m800 800h-800v-800h800z" fill="#fff" stroke-width="1.1301"/>
<path d="m794 794h-788v-788h788z" fill="#17468c" stroke-width="1.1301"/><g transform="matrix(1.1301 0 0 1.1301 -1.0629 -.44142)"><path d="m69.6 413.1v184.5h63.2v30.5h-95.7v-215z" fill="#fff"/><path d="m246.4 519.6c0-30.3 11.1-56.3 33.3-78 22.1-21.7 48.6-32.5 79.6-32.5 30.7 0 56.9 10.9 78.8 32.8 22 21.9 33 48.3 33 79 0 30.9-11 57.1-33.1 78.6-22.2 21.7-49 32.5-80.4 32.5-27.7 0-52.6-9.6-74.7-28.9-24.3-21.2-36.5-49-36.5-83.5zm32.7 0.4c0 23.7 8 43.2 24 58.5 15.9 15.3 34.2 23 55 23 22.5 0 41.5-7.8 57-23.4 15.5-15.7 23.3-34.9 23.3-57.6 0-22.9-7.7-42.1-23-57.6-15.2-15.6-34-23.4-56.5-23.4-22.4 0-41.3 7.8-56.7 23.4-15.4 15.4-23.1 34.4-23.1 57.1z" fill="#fff"/><path d="m483.4 628.1v-229.6l156.8 164v-149.4h32.4v228.1l-156.8-163.6v150.5z" fill="#fff"/><path d="m341.3 306.8c5.4 6.6 4.5 16.3-2.1 21.8-86.2 71.2-133.6 189.4-133.6 332.8 0 8.5-7 15.5-15.5 15.5s-15.4-7-15.4-15.5c0-152.8 51.4-279.5 144.8-356.7 2.9-2.3 6.4-3.5 9.9-3.5 4.4 0 8.8 1.9 11.9 5.6z" fill="#ed9205"/><path d="m195.7 539.2-10.6 48.8-70.1-174.9h32.7z" fill="#ed9205"/></g><path d="m781.34 96.971v272.01h-79.218v-174.48h-0.79105l-47.237 174.48h-62.493l-47.124-174.48h-0.90406v174.48h-79.218v-207.26h-117.87v41.135h76.732v62.493h-76.619v103.63h-83.738v-54.583c-13.222 35.823-51.192 54.583-89.954 54.583h-154.37v-272.01h148.94c71.647 0 86.903 40.344 86.903 68.143 0 27.461-13.222 42.378-33.45 53.339 17.29 5.9894 33.789 17.742 41.926 38.422v-159.91h320.71l38.875 160.02h0.79105l38.875-160.02zm-679.17 105.89h44.412c17.516 0 28.591-4.9723 28.591-22.488 0-13.787-11.414-18.646-28.591-18.646h-44.412zm82.156 75.376c0-15.934-9.6056-24.749-29.382-24.749h-52.548v50.627h49.045c17.629 0 32.885-4.8593 32.885-25.879z" fill="#fff" stroke-width="1.1301"/></svg>
