<svg width="630.3" height="443.64" version="1.1" viewBox="0 0 630.3 443.64" xml:space="preserve" xmlns="http://www.w3.org/2000/svg">
<path class="st1" d="m110.3 172.12h-40v-42.424h43.636c16.97 0 24.242 7.2727 24.242 20.606-1.2121 16.97-13.333 21.818-27.879 21.818m-41.212-118.79h36.364c14.545 0 23.03 3.6364 23.03 15.758 0 14.545-9.697 18.182-23.03 18.182h-36.364v-33.939zm463.03-53.333-32.727 132.12h-1.2121l-32.727-132.12h-263.03v132.12c-7.2727-16.97-20.606-26.667-35.152-31.515 16.97-9.697 27.879-21.818 27.879-43.636 0-23.03-12.121-55.758-71.515-55.758h-123.64v224.24h127.27c31.515 0 63.03-15.758 73.939-44.848v44.848h69.091v-86.061h63.03v-52.121h-63.03v-33.939h96.97v170.91h65.455v-143.03h1.2121l38.788 144.24h52.121l38.788-144.24h1.2121v144.24h65.455v-225.45z" fill="#fff" stroke-width="12.121"/>
<path class="st2" d="m52.121 349.09v-93.333h29.091v161.21h58.182v26.667h-87.273v-94.545zm186.67 94.545h87.273v-26.667h-58.182v-161.21h-30.303v93.333c1.2121 30.303 1.2121 94.545 1.2121 94.545zm111.52 0h87.273v-26.667h-58.182v-161.21h-30.303v93.333c1.2121 30.303 1.2121 94.545 1.2121 94.545zm-185.45 0h29.091v-187.88h-30.303v187.88zm298.18-187.88v187.88h107.88v-25.455h-78.788v-63.03h76.364v-27.879h-76.364v-44.848h78.788v-26.667z" fill="#ed8c23" stroke-width="12.121"/>
</svg>
