<svg width="800" height="466.21" version="1.2" viewBox="0 0 800 466.21" xmlns="http://www.w3.org/2000/svg">
 <path class="s1" d="m800 0.00419v285.37h-83.09v-183.11h-0.82853l-49.594 183.11h-65.572l-49.475-183.11h-0.82854v183.11h-83.09v-217.43h-123.69v43.202h80.486v65.454h-80.249v108.78h-87.824v-57.287c-13.966 37.521-53.618 57.287-94.335 57.287h-161.91v-285.37h156.24c75.16 0 91.139 42.373 91.139 71.49 0 28.88-13.966 44.386-35.153 55.985 18.228 6.2732 35.509 18.583 44.03 40.243v-167.71h336.38l40.717 167.84h0.82854l40.717-167.84zm-712.3 111.14h46.635c18.346 0 29.945-5.2079 29.945-23.554 0-14.44-11.954-19.648-29.945-19.648h-46.635zm86.168 79.066c0-16.688-9.9424-25.921-30.774-25.921h-55.156v53.144h51.606c18.346 0 34.325-5.2079 34.325-27.223z" fill="#17468c" fill-rule="evenodd" stroke-width="1.1836"/>
 <g transform="matrix(1.1836 0 0 1.1836 -20.765 -184.64)" fill="#ed9205">
  <path class="s2" d="m22.2 544.6v-91.3l62.1 65v-59.2h13v90.8l-62-65v59.7z"/>
  <path class="s2" d="m196.4 501.9c0 25.2-18.9 44.4-44.6 44.4-25.6 0-44.5-19.2-44.5-44.4 0-25.1 18.9-44.3 44.5-44.3 25.7 0 44.6 19.2 44.6 44.3zm-13.1 0c0-19-13.1-32.3-31.5-32.3-18.3 0-31.4 13.3-31.4 32.3s13.1 32.3 31.4 32.3c18.4 0 31.5-13.3 31.5-32.3z" fill-rule="evenodd"/>
  <path class="s2" d="m221.6 459.1c10.4 0 17.1 1.3 22.6 5 9.4 6.3 10.1 16.4 10.1 20.1 0 12.3-7.5 21.3-19 23.9l26.7 36.5h-15.8l-24.5-35h-2.3v35h-13v-85.5zm-2.2 39.2h4.1c3.6 0 18.2-0.3 18.2-13.9 0-12.1-11.4-13.3-17.8-13.3h-4.5z" fill-rule="evenodd"/>
  <path class="s2" d="m265.9 544.6 17.9-91.9 29.8 66.4 30-66.4 16.1 91.9h-13.3l-8.7-51.5-24.9 55.5-24.6-55.6-9 51.6z"/>
  <path class="s2" d="m421.6 524h-36.6l-9.3 20.6h-14.2l42.6-90.5 40.6 90.5h-14.2zm-5.2-12.3-12.7-29-13.2 29z" fill-rule="evenodd"/>
  <path class="s2" d="m449 544.6v-91.3l62.1 65v-59.2h13.1v90.8l-62.1-65v59.7z"/>
  <path class="s2" d="m556.2 459.1c12 0 22.3 1.3 31.8 8.3 10.4 7.9 16.5 20.3 16.5 34.5 0 14.3-5.9 26.6-17.2 34.5-10 7.1-19.4 8.2-31.3 8.2h-17.7v-85.5zm-4.9 73.2h5.6c6.5 0 15.3-0.5 22.7-6 5.9-4.5 11.7-12.7 11.7-24.4 0-11.3-5.4-20.1-11.5-24.6-7.5-5.4-16.6-5.9-22.9-5.9h-5.6z" fill-rule="evenodd"/>
  <path class="s2" d="m614.5 459.1h13v85.5h-13z"/>
  <path class="s2" d="m688.8 471.4h-34.1v21.7h33.1v12.3h-33.1v26.9h34.1v12.3h-47.2v-85.5h47.2z"/>
 </g>
</svg>
