<svg width="630.3" height="552.73" version="1.1" viewBox="0 0 630.3 552.73" xml:space="preserve" xmlns="http://www.w3.org/2000/svg">
<g transform="translate(-84.848 -153.94)" fill="#02399e"><g transform="scale(12.121)">
		<path class="st1" d="m45.3 38.2v16.5h-2.5v-16.5z" fill="#02399e"/>
	</g><g transform="scale(12.121)">
		<path class="st1" d="m56.8 40.6-2 1.2c-0.4-0.7-0.7-1.1-1.1-1.3s-0.8-0.3-1.4-0.3c-0.7 0-1.3 0.2-1.7 0.6-0.5 0.4-0.7 0.9-0.7 1.5 0 0.8 0.6 1.4 1.8 1.9l1.6 0.7c1.3 0.5 2.3 1.2 2.9 2s0.9 1.7 0.9 2.9c0 1.5-0.5 2.8-1.5 3.8s-2.3 1.5-3.8 1.5c-1.4 0-2.6-0.4-3.5-1.3-0.9-0.8-1.5-2-1.7-3.6l2.5-0.6c0.1 1 0.3 1.6 0.6 2 0.5 0.7 1.3 1.1 2.2 1.1 0.8 0 1.4-0.3 1.9-0.8s0.8-1.2 0.8-2c0-0.3 0-0.6-0.1-0.9s-0.2-0.5-0.4-0.7-0.4-0.4-0.7-0.6-0.7-0.4-1.1-0.6l-1.6-0.7c-2.3-1-3.4-2.3-3.4-4.2 0-1.2 0.5-2.3 1.4-3.1s2.1-1.3 3.5-1.3c2 0.1 3.5 1 4.6 2.8z" fill="#02399e"/>
	</g><g transform="scale(12.121)">
		<path class="st1" d="m11.7 48v6.7h-2.5v-16.5h2.8c1.4 0 2.4 0.1 3.1 0.3s1.3 0.6 1.9 1.1c0.9 0.9 1.4 2.1 1.4 3.5 0 1.5-0.5 2.7-1.5 3.6s-2.4 1.3-4.1 1.3zm0-2.3h0.9c2.3 0 3.4-0.9 3.4-2.6s-1.2-2.5-3.5-2.5h-0.8z" fill="#02399e"/>
	</g><g transform="scale(12.121)">
		<path class="st1" d="m37 47.6 5.1 7h-3l-4.7-6.7h-0.4v6.7h-2.5v-16.4h2.9c2.2 0 3.7 0.4 4.7 1.2 1.1 0.9 1.6 2.1 1.6 3.6 0 1.2-0.3 2.2-1 3-0.8 0.9-1.6 1.4-2.7 1.6zm-3.1-1.8h0.8c2.4 0 3.5-0.9 3.5-2.7 0-1.7-1.1-2.5-3.4-2.5h-0.9v5.2z" fill="#02399e"/>
	</g><g transform="scale(12.121)">
		<path class="st2" d="m28.9 50.8h-8.3l-1.6 4h-2.5l7.6-18.8 0.8 3.8-3.3 8.6h6.4z" fill="#02399e"/>
	</g></g><path class="st2" d="m346.67 552.73c-3.6364 0-6.0606-1.2121-9.697-3.6364-87.273-71.515-135.76-190.3-135.76-333.33 0-8.4848 6.0606-14.545 14.545-14.545s14.545 6.0606 14.545 14.545c0 133.33 44.848 244.85 124.85 310.3 6.0606 4.8485 7.2727 14.545 2.4242 20.606-2.4242 4.8485-7.2727 6.0606-10.909 6.0606z" fill="#f4901e" stroke-width="12.121"/><g transform="matrix(12.121 0 0 12.121 -84.848 -153.94)" fill="#02399e">
		<path class="st1" d="m16.1 26.8h-3.3v-3.5h3.6c1.4 0 2 0.6 2 1.7-0.1 1.5-1.1 1.8-2.3 1.8m-3.4-9.7h3c1.2 0 1.9 0.3 1.9 1.3 0 1.2-0.8 1.5-1.9 1.5h-3v-2.8zm38.2-4.4-2.7 10.9h-0.1l-2.7-10.9h-21.7v10.9c-0.6-1.4-1.7-2.2-2.9-2.6 1.4-0.8 2.3-1.8 2.3-3.6 0-1.9-1-4.6-5.9-4.6h-10.2v18.5h10.5c2.6 0 5.2-1.3 6.1-3.7v3.7h5.7v-7.1h5.2v-4.3h-5.2v-2.8h8v14.1h5.4v-11.9h0.1l3.2 11.9h4.3l3.2-11.9h0.1v11.9h5.4v-18.5z" fill="#02399e"/>
	</g>
</svg>
