<svg width="800" height="518.18" version="1.1" viewBox="0 0 800 518.18" xml:space="preserve" xmlns="http://www.w3.org/2000/svg">

<path d="m800 0v285.37h-83.089v-182.99h-0.82852l-49.593 182.99h-65.572l-49.475-182.99h-0.82852v182.99h-83.089v-217.43h-123.69v43.202h80.485v65.453h-80.249v108.77h-87.824v-57.287c-13.967 37.639-53.617 57.287-94.333 57.287h-161.92v-285.37h156.24c75.159 0 91.138 42.373 91.138 71.608 0 28.762-13.967 44.385-35.153 55.866 18.228 6.2731 35.508 18.583 44.03 40.243v-167.72h336.38l40.716 167.84h0.82853l40.716-167.84zm-712.29 111.14h46.634c18.346 0 29.945-5.2079 29.945-23.554 0-14.44-11.954-19.648-29.945-19.648h-46.634zm86.167 79.183c0-16.807-9.9423-26.039-30.774-26.039h-55.156v53.144h51.605c18.346 0 34.325-5.2079 34.325-27.105z" fill="#fff" stroke-width="1.1836"/><g transform="matrix(1.1836 0 0 1.1836 -20.24 -162.04)" fill="#ed9205">
		<path d="m121.2 537.6h-60.8l-15.6 34.4h-23.5l70.9-150.8 67.5 150.8h-23.5zm-8.8-20.5-21.1-48.3-22 48.3z"/>
		<path d="m194.1 429.5v122h41.8v20.5h-63.6v-142.5z"/>
		<path d="m308.3 461.1c-1.3-3.2-3.2-6.2-6.4-8.9-4.5-3.7-9.2-5.2-15.4-5.2-13.2 0-20 7.9-20 17.1 0 4.3 1.4 11.8 15.3 17.3l14.3 5.8c26.3 10.7 33.6 25.6 33.6 41.8 0 27.2-19.3 45.7-46 45.7-16.4 0-26.2-6.2-33.5-14.3-7.7-8.5-11.1-17.9-11.9-27.7l21.5-4.7c0 7 2.6 13.6 6 18.1 4.1 5.1 10 8.6 18.6 8.6 13.2 0 23.5-9.6 23.5-24 0-14.5-11.1-20.5-20.5-24.3l-13.7-5.8c-11.7-4.9-29-14.7-29-36.1 0-19.2 14.9-37.5 41.6-37.5 15.4 0 24.1 5.7 28.6 9.6 3.9 3.4 7.9 8.3 10.9 14.3z"/>
		<path d="m435.4 537.6h-60.9l-15.6 34.4h-23.5l70.9-150.8 67.5 150.8h-23.5zm-8.7-20.5-21.2-48.3-22 48.3z"/>
		<path d="m588.7 462.8c-15.8-14.3-30.5-15.8-38.7-15.8-30.9 0-51.9 22.9-51.9 54.3 0 30.1 21.8 53.4 52.2 53.4 17 0 30.3-8.8 38.4-16.5v25.9c-14.3 8.5-29.3 10.6-39.1 10.6-25.8 0-42.1-11.7-50.4-19.6-16.6-15.6-22.8-33.8-22.8-53.8 0-26.3 10.9-44.4 22.8-55.8 14.7-13.8 31.8-18.5 51.5-18.5 13 0 25.6 2.3 38 10.2z"/>
		<path d="m688.8 450h-56.8v36.1h55.1v20.5h-55.1v44.9h56.8v20.5h-78.5v-142.5h78.5z"/>
	</g>
</svg>
