<svg width="630.3" height="550.3" version="1.1" viewBox="0 0 630.3 550.3" xml:space="preserve" xmlns="http://www.w3.org/2000/svg">
<path class="st1" d="m301.82 206.06c-2.4242-3.6364-7.2727-4.8485-10.909-4.8485-3.6364 0-6.0606 1.2121-9.697 3.6364-59.394 48.485-100.61 118.79-120 203.64l-40-103.03h-30.303l60.606 151.52c-3.6364 25.455-4.8485 50.909-4.8485 78.788 0 8.4848 6.0606 14.545 14.545 14.545s14.545-6.0606 14.545-14.545c0-133.33 43.636-243.64 123.64-309.09 6.0606-4.8485 7.2727-14.545 2.4242-20.606z" fill="#ed8c23" stroke-width="12.121"/><path class="st2" d="m110.3 170.91h-40v-41.212h42.424c16.97 0 24.242 7.2727 24.242 20.606-1.2121 15.758-13.333 20.606-26.667 20.606m-41.212-117.58h37.576c14.545 0 24.242 3.6364 24.242 15.758 0 14.545-9.697 19.394-24.242 19.394h-37.576v-35.152zm460.61-53.333-32.727 130.91-32.727-130.91h-264.24v130.91c-7.2727-16.97-20.606-26.667-35.152-31.515 16.97-9.697 27.879-21.818 27.879-43.636 0-23.03-13.333-55.758-71.515-55.758h-121.21v224.24h126.06c32.727 0 63.03-15.758 73.939-44.848v44.848h69.091v-86.061h63.03v-50.909h-63.03v-33.939h96.97v170.91h65.455v-143.03h1.2121l40 144.24h50.909l40-144.24h1.2121v143.03h65.455v-224.24z" fill="#02399e" stroke-width="12.121"/><g fill="#02399e" stroke-width="12.121"><path class="st2" d="m48.485 305.45v172.12h58.182v27.879h-87.273v-200z"/><path class="st2" d="m213.33 403.64c0-29.091 10.909-52.121 31.515-72.727s44.848-30.303 73.939-30.303 52.121 10.909 72.727 31.515 31.515 44.848 31.515 73.939-10.909 53.333-31.515 72.727c-20.606 20.606-44.848 30.303-75.152 30.303-26.667 0-48.485-8.4848-69.091-26.667-23.03-20.606-33.939-47.273-33.939-78.788zm30.303 0c0 23.03 7.2727 40 23.03 54.545 14.545 14.545 32.727 21.818 50.909 21.818 21.818 0 38.788-7.2727 52.121-21.818 14.545-14.545 21.818-32.727 21.818-53.333 0-21.818-7.2727-38.788-21.818-53.333-14.545-14.545-32.727-21.818-52.121-21.818s-38.788 7.2727-52.121 21.818c-14.545 13.333-21.818 31.515-21.818 52.121z"/><path class="st2" d="m433.94 504.24v-213.33l145.45 152.73v-138.18h30.303v212.12l-145.45-152.73v139.39z"/></g>
</svg>
