<svg width="800" height="686.93" version="1.1" viewBox="0 0 800 686.93" xml:space="preserve" xmlns="http://www.w3.org/2000/svg">

<g transform="matrix(1.1852 0 0 1.1852 -20.385 -79.644)" fill="#fff">
		<path d="m692.2 67.2v240.8h-70.1v-154.5h-0.8l-41.7 154.5h-55.3l-41.8-154.5h-0.7v154.5h-70.2v-183.5h-104.3v36.5h67.9v55.2h-67.7v91.8h-74.2v-48.4c-11.7 31.8-45.2 48.4-79.6 48.4h-136.5v-240.8h131.8c63.4 0 76.9 35.7 76.9 60.4 0 24.3-11.8 37.4-29.7 47.2 15.4 5.3 29.9 15.7 37.1 33.9v-141.5h283.9l34.4 141.6h0.6l34.5-141.6zm-601.1 93.8h39.3c15.5 0 25.3-4.4 25.3-19.9 0-12.2-10.1-16.6-25.3-16.6h-39.3zm72.7 66.8c0-14.2-8.4-21.9-25.9-21.9h-46.6v44.8h43.5c15.5 0 29-4.4 29-22.9z" fill="#fff"/>
	</g><g transform="matrix(1.0504 0 0 1.0504 -21.274 -79.822)" fill="#ed9205" stroke-width="1.1284"><path d="m20.254 655.18v-78.195h22.454v129.2h44.683v20.874h-67.137v-71.876z"/><path d="m714.75 655.29v-78.195h22.454v129.2h44.683v20.874h-67.137v-71.876z"/><path d="m714.75 655.18v-78.195h22.454v129.2h44.683v20.874h-67.137v-71.876z"/><path d="m96.982 576.98h22.341l-0.11283 150.07h-22.228z"/><path d="m127.22 576.98h91.622v21.439h-34.753l0.11283 128.63h-22.341v-128.63h-34.753z"/><path d="m224.82 576.98h91.622v21.439h-34.753v128.63h-22.228v-128.63h-34.753z"/><path d="m462.91 652.13c0 42.99-34.866 77.856-77.856 77.856s-77.856-34.866-77.856-77.856 34.866-77.856 77.856-77.856 77.856 34.866 77.856 77.856zm-21.664 0c0-31.03-25.162-56.192-56.192-56.192s-56.079 25.162-56.079 56.192 25.049 56.192 56.079 56.192 56.192-25.162 56.192-56.192z"/><path d="m682.48 727.05-15.797-35.769-63.977 0.22567-16.248 35.43-44.795 0.11283-42.539-61.044h-3.6107l0.11284 61.044h-23.47c0.11284-47.729 0.11284-101.33 0-148.94 0 0 0.67701-0.11284 3.1594-0.11284 10.155 0.11284 20.423-0.22567 30.578 0.11284 6.4316 0.22567 12.75 1.2412 19.069 2.708 11.622 2.8209 20.536 8.914 26.629 19.069 2.4824 4.1749 4.0621 8.6883 4.8519 13.653 0.56418 3.385 1.0155 6.7701 0.78985 10.042-0.56418 9.2525-3.2722 17.715-9.0268 25.162-5.3032 7.1086-10.832 10.832-18.843 13.879-1.0155 0.45134-3.7236 0.78984-5.4161 0.90268 3.0465 4.4006 40.621 54.951 40.621 54.951l71.425-150.07 71.763 158.65zm-186.85-104.03c0 6.9958-0.11284 16.248-0.11284 23.357h1.6925c7.8984 0 15.91 0.56418 23.357-2.708 4.5134-1.9182 8.237-4.4006 10.945-8.8011 3.385-5.6417 2.8209-11.509 2.4824-17.489-0.22567-3.8364-2.031-6.8829-4.7391-9.7038-5.1904-5.6417-12.073-7.1086-19.182-8.0113-3.9492-0.45134-7.2214-0.3385-11.396-0.3385h-3.1594c0.11284 7.1086 0.11284 16.587 0.11284 23.695zm139.69-4.4006-23.583 51.001 45.698-0.11284z"/><path d="m397.46 392.16 65.896 146.23 0.78984-145.78 106.97 110.69 0.22567-101.55h21.777v155.71l-106.85-112.16v103.47h-42.99l-15.571-35.317-62.849 0.3385-16.135 34.979-44.006 0.11284-41.862-60.254h-3.4979l0.11284 60.141h-23.131c0.11283-47.052 0.11283-99.972 0-147.02 0 0 0.67701-0.11284 3.0465-0.11284 10.042 0.11284 20.085-0.11283 30.127 0.22567 6.3188 0.11284 12.525 1.1284 18.731 2.5952 11.509 2.708 20.31 8.8011 26.178 18.843 2.4824 4.0621 4.0621 8.5755 4.8519 13.54 0.56417 3.2722 1.0155 6.5444 0.78984 9.9295-0.56417 9.0268-3.2722 17.377-8.914 24.824-5.3032 6.8829-10.719 10.606-18.505 13.653-1.0155 0.45134-3.6107 0.78985-5.3032 0.90268 2.9337 4.2877 39.944 54.274 39.944 54.274zm-138.11 53.822v23.131s-0.22567 0.11283 1.5797 0c7.7856 0 15.684 0.56417 23.018-2.5952 4.4006-1.9182 8.1241-4.4006 10.719-8.8011 3.385-5.5289 2.8209-11.284 2.4824-17.264-0.22567-3.7236-2.031-6.7701-4.6262-9.591-5.0776-5.4161-11.961-6.8829-18.843-7.7856-3.9492-0.56418-7.2214-0.33851-11.283-0.33851-1.6925-0.11283-3.0466 0-3.0466 0 0.11284 6.9958 0 16.361 0 23.244zm137.55-4.1749-23.244 50.212 44.908-0.11284z"/><path d="m193.57 471.93c9.2525 0 21.1 0 30.353-0.11283 0 0 0.11283 0.67701 0 2.708-0.11284 5.1904 0.22567 9.9295-0.33851 15.12-0.56417 6.3188-2.031 12.525-4.2877 18.731-3.6107 10.155-9.8166 18.505-17.602 25.501-6.2059 5.6418-13.427 10.268-21.664 12.976-9.3653 3.0465-18.843 4.6262-28.547 4.0621-5.7546-0.33851-11.509-1.4669-17.151-2.9337-9.7038-2.4824-18.054-7.2214-25.614-13.427-8.5755-6.9958-15.797-15.346-20.649-25.501-2.4824-5.1904-4.5134-10.494-5.8674-16.135-1.6925-7.3343-2.4824-14.781-2.031-22.228 0.67701-8.5755 2.4824-16.812 5.5289-24.937 4.9647-12.638 13.202-22.567 23.357-31.03 6.3188-5.3032 13.315-9.3653 21.213-12.073 4.8519-1.5797 9.8166-2.708 14.781-3.7236 6.0931-1.1284 12.073-1.1284 18.054-0.67701 7.8984 0.45134 15.571 2.3695 23.018 5.3032 9.9295 3.9492 17.941 10.494 26.065 18.166 1.6925 1.6925 5.7546 6.3188 5.7546 6.3188s-1.0155 0.90268-1.5797 1.4668c-4.4006 4.1749-8.8011 8.4626-13.202 12.638-0.3385 0.3385-1.2412 1.1284-1.2412 1.1284l-1.354-1.354c-3.2722-3.4979-6.3188-7.3343-10.155-10.381-6.3188-5.0776-12.976-9.1396-21.1-10.832-7.3343-1.6925-14.669-1.4668-21.89-0.56417-8.6883 1.0155-16.587 4.9647-23.583 10.494-7.2214 5.7546-12.863 12.75-16.474 21.326-1.4668 3.7236-2.5952 7.6728-3.4979 11.735-1.0155 4.4006-0.78985 8.1241-0.78985 12.525-0.22567 8.1241 2.031 16.248 5.6418 23.47 4.4006 9.1396 11.284 15.797 19.52 21.326 9.591 6.5444 20.197 9.591 31.707 8.5755 8.3498-0.67701 16.023-3.6107 22.793-8.6883 5.8674-4.5134 10.719-9.8166 13.879-16.587 1.2412-3.0465 2.1439-6.2059 2.9337-9.3653 0.45134-1.9182 0.22567-2.708 0.22567-2.708-10.381 0.11283-26.291 0-36.784 0.11283l0.11283-20.423c9.2525 0.11284 21.213 0 30.465 0z"/><path d="m605.87 400.85c11.509 0 26.742-0.11284 38.251 0 6.8829 0.11283 13.879 0.67701 20.649 2.1439 18.505 3.8364 33.173 13.992 44.006 29.337 4.2877 5.9802 7.1086 12.75 9.0268 19.972 1.2412 4.6262 1.9182 9.1396 2.4824 13.766 0.56418 4.1749 0.90268 8.3498 0.56418 12.525-0.67701 8.6883-2.031 17.151-5.3032 25.388-3.385 8.5755-8.1241 16.023-14.33 22.341-6.8829 6.9958-14.669 12.863-24.147 16.587-5.7546 2.2567-11.622 3.7236-17.715 4.8519-8.0113 1.354-16.023 0.78984-24.034 1.0155-8.6883 0.11284-17.489-0.11283-26.291 0.11284h-3.1594zm22.906 127.05h2.3695c9.1396-0.22567 18.279-0.11283 27.419-2.031 7.5599-1.6925 14.217-4.9647 20.197-9.7038 7.3343-5.8674 12.863-13.089 16.023-22.341 1.8054-5.4161 2.708-10.832 3.1594-16.361 0.56417-7.56-0.90268-15.007-3.385-22.341-2.9337-8.8011-8.237-15.91-15.233-21.551-9.4781-7.5599-20.874-10.268-32.722-11.284-4.9647-0.45134-10.042 0-15.007-0.22567-2.3695-0.11283-2.9337 0-2.9337 0z"/></g>

</svg>
