<svg enable-background="new 0 0 800 800" version="1.1" viewBox="0 0 800 800" xml:space="preserve" xmlns="http://www.w3.org/2000/svg">
<g transform="matrix(5.7971 0 0 5.7971 0 6.8e-6)">
	<path d="M138,138H0V0h138V138z" fill="#02399E"/>
	<path d="m30.4 46.6h-7.6v-7.8h8.1c3.1 0 4.5 1.3 4.5 3.8 0 3.3-2.3 4-5 4m-7.6-21.9h6.8c2.6 0 4.4 0.8 4.4 2.9 0 2.7-1.7 3.5-4.4 3.5h-6.8v-6.4zm86.3-10-6 24.7h-0.1l-6-24.7h-49.5v24.6c-1.3-3.2-3.8-5-6.5-5.9 3.1-1.7 5.2-4 5.2-8.2 0-4.3-2.4-10.5-13.4-10.5h-23v41.9h23.8c6 0 11.8-2.9 13.9-8.4v8.4h12.9v-16h11.8v-9.6h-11.8v-6.3h18.2v31.9h12.2v-26.9h0.1l7.3 26.9h9.6l7.3-26.9h0.1v26.9h12.2v-41.9h-18.3z" fill="#fff"/>
	<path d="M19.7,105.9V88.4h5.5v30.1H36v4.9H19.7V105.9z" fill="#ED8C23"/>
	<path d="m68.3 61 10.1 22.4 0.1-22.3 16.3 17v-15.6h3.3v23.9l-16.3-17.3v15.9h-6.6l-2.4-5.4h-9.6l-2.3 5.4h-6.7l-6.4-9.2h-0.5v9.2h-3.5v-22.5h5.1c1 0 1.9 0.2 2.9 0.4 1.8 0.4 3.1 1.3 4 2.9 0.4 0.6 0.6 1.3 0.7 2.1 0.1 0.5 0.2 1 0.1 1.5-0.1 1.4-0.5 2.7-1.4 3.8-0.8 1.1-1.6 1.6-2.8 2.1-0.2 0.1-0.6 0.1-0.8 0.1 0.5 0.7 6.1 8.3 6.1 8.3l10.6-22.7zm-21.1 8.2v3.5h0.2c1.2 0 2.4 0.1 3.5-0.4 0.7-0.3 1.2-0.7 1.6-1.3 0.5-0.8 0.4-1.7 0.4-2.6 0-0.6-0.3-1-0.7-1.5-0.8-0.8-1.8-1.1-2.9-1.2-0.6-0.1-1.1-0.1-1.7 0h-0.5c0.1 1 0.1 2.5 0.1 3.5zm21-0.6-3.5 7.7h6.9l-3.4-7.7z" fill="#ED8C23"/>
	<path d="M54.3,105.9V88.4h5.6v30.1h10.7v4.9H54.3V105.9z" fill="#ED8C23"/>
	<path d="M75.3,105.9V88.4h5.6v30.1h10.7v4.9H75.3V105.9z" fill="#ED8C23"/>
	<path d="m37.3 73.3h4.7v0.4c0 0.8 0 1.5-0.1 2.3-0.1 1-0.3 1.9-0.7 2.9-0.6 1.6-1.5 2.8-2.7 3.9-1 0.9-2.1 1.6-3.3 2-1.4 0.5-2.9 0.7-4.4 0.6-0.9-0.1-1.8-0.2-2.6-0.5-1.5-0.4-2.8-1.1-3.9-2.1-1.3-1.1-2.4-2.4-3.2-3.9-0.4-0.8-0.7-1.6-0.9-2.5-0.3-1.1-0.4-2.3-0.3-3.4 0.1-1.3 0.4-2.6 0.8-3.8 0.8-1.9 2-3.5 3.6-4.8 1-0.8 2-1.4 3.3-1.8 0.7-0.2 1.5-0.4 2.3-0.6 0.9-0.2 1.9-0.2 2.8-0.1 1.2 0.1 2.4 0.4 3.5 0.8 1.5 0.6 2.8 1.6 4 2.8 0.3 0.3 0.9 1 0.9 1s-0.2 0.1-0.2 0.2c-0.7 0.6-1.3 1.3-2 1.9l-0.2 0.2-0.2-0.2c-0.5-0.5-1-1.1-1.6-1.6-1-0.8-2-1.4-3.2-1.7-1.1-0.2-2.2-0.2-3.4-0.1-1.3 0.2-2.6 0.8-3.6 1.6-1.1 0.9-2 1.9-2.5 3.3-0.2 0.6-0.4 1.2-0.5 1.8-0.2 0.7-0.1 1.3-0.1 1.9 0 1.2 0.3 2.5 0.9 3.6 0.7 1.4 1.7 2.4 3 3.3 1.5 1 3.1 1.5 4.9 1.3 1.3-0.1 2.5-0.6 3.5-1.3 0.9-0.7 1.7-1.5 2.1-2.5 0.2-0.5 0.3-0.9 0.5-1.4 0.1-0.3 0-0.4 0-0.4h-5.6v-3.1h4.4z" fill="#ED8C23"/>
	<path d="m100.1 62.4h5.8c1.1 0 2.1 0.1 3.1 0.3 2.8 0.6 5.1 2.1 6.7 4.5 0.6 0.9 1.1 2 1.4 3 0.2 0.7 0.3 1.4 0.4 2.1 0.1 0.6 0.1 1.3 0.1 1.9-0.1 1.3-0.3 2.6-0.8 3.9s-1.2 2.4-2.2 3.4c-1 1.1-2.2 2-3.7 2.5-0.9 0.3-1.8 0.6-2.7 0.7-1.2 0.2-2.4 0.1-3.7 0.2h-4.5l0.1-22.5zm3.5 19.3h0.4c1.4 0 2.8 0 4.2-0.3 1.2-0.2 2.2-0.8 3.1-1.5 1.1-0.9 2-2 2.4-3.4 0.3-0.8 0.4-1.7 0.5-2.5 0.1-1.2-0.1-2.3-0.5-3.4-0.5-1.3-1.2-2.4-2.3-3.3-1.4-1.2-3.2-1.6-5-1.7-0.8-0.1-1.5 0-2.3 0h-0.4l-0.1 16.1z" fill="#ED8C23"/>
	<rect x="40.6" y="88.4" width="5.6" height="35" fill="#ED8C23"/>
	<polygon points="116.5 118.5 101.7 118.5 101.7 106.7 116 106.8 116 101.7 101.7 101.7 101.7 93.3 116.5 93.3 116.5 88.4 96.3 88.4 96.3 123.4 116.5 123.4" fill="#ED8C23"/>
</g>
</svg>
