<svg width="800" height="685.71" version="1.1" viewBox="0 0 800 685.71" xml:space="preserve" xmlns="http://www.w3.org/2000/svg">
<path d="m139.46 217.01h-51.701v-53.061h55.102c21.088 0 30.612 8.8435 30.612 25.85 0 22.449-15.646 27.211-34.014 27.211m-51.701-148.98h46.259c17.687 0 29.932 5.4422 29.932 19.728 0 18.367-11.565 23.81-29.932 23.81h-46.259zm585.71-68.027-40.816 167.35h-0.68027l-40.816-167.35h-335.37v167.35c-8.8435-21.769-25.85-34.014-44.218-40.136 21.088-11.565 35.374-27.211 35.374-55.782 0-29.252-15.646-71.429-91.156-71.429h-155.78v285.03h161.9c40.816 0 80.272-19.728 93.878-57.143v57.143h87.755v-108.84h80.272v-65.306h-80.272v-42.857h123.13v217.01h82.993v-182.99h0.68028l49.66 182.99h65.306l49.66-182.99h0.68027v182.99h82.993v-285.03z" fill="#fff" stroke-width="6.8027"/><g transform="matrix(1.1735 0 0 1.1735 -67.347 -126.53)" fill="#ed8c23"><path d="m57.971 625.51v-69.565h20.29v115.36h40v18.551h-60.29z" stroke-width="5.7971"/><path d="m678.84 625.51v-69.565h20.29v115.36h40v18.551h-59.71c-0.57971 0-0.57971-43.478-0.57971-64.348z" stroke-width="5.7971"/><path d="m678.84 625.51v-69.565h20.29v115.36h40v18.551h-59.71c-0.57971 0-0.57971-43.478-0.57971-64.348z" stroke-width="5.7971"/><rect x="126.96" y="555.94" width="19.71" height="133.91" stroke-width="5.7971"/><polygon transform="matrix(5.7971,0,0,5.7971,0,6.8e-6)" points="26.5 95.9 40.6 95.9 40.6 99.2 35.3 99.2 35.3 119 31.9 119 31.9 99.2 26.5 99.2"/><polygon transform="matrix(5.7971,0,0,5.7971,0,6.8e-6)" points="41.6 95.9 55.7 95.9 55.7 99.2 50.3 99.2 50.3 119 46.9 119 46.9 99.2 41.6 99.2"/><path d="m384.35 553.04c-38.261 0-69.565 31.304-69.565 69.565s31.304 69.565 69.565 69.565 69.565-31.304 69.565-69.565-31.304-69.565-69.565-69.565zm0 120c-27.826 0-50.435-22.609-50.435-50.435s22.609-50.435 50.435-50.435 50.435 22.609 50.435 50.435-23.188 50.435-50.435 50.435z" stroke-width="5.7971"/><path d="m649.85 689.85-13.913-31.884h-57.391l-14.493 31.884h-40l-38.261-54.493h-3.4783v54.493h-20.87v-133.33h30.145c5.7971 0 11.594 1.1594 16.812 2.3188 10.435 2.3188 18.551 8.1159 23.768 16.812 2.3188 3.4783 3.4783 8.1159 4.6377 12.174 0.57971 2.8986 1.1594 5.7971 0.57971 9.2754-0.57971 8.1159-2.8986 15.652-8.1159 22.609-4.6377 6.3768-9.8551 9.8551-16.812 12.174-1.1594 0.57971-3.4783 0.57971-4.6377 0.57971 2.8986 4.058 36.522 49.275 36.522 49.275l63.768-133.91 64.348 142.03zm-166.96-93.333v20.87h1.1594c6.9565 0 14.493 0.57971 20.87-2.3188 4.058-1.7391 7.5362-4.058 9.8551-8.1159 2.8986-5.2174 2.3188-10.435 2.3188-15.652 0-3.4783-1.7391-6.3768-4.058-8.6956-4.6377-5.2174-11.014-6.3768-17.391-6.9565-3.4783-0.57971-6.3768-0.57971-10.435-0.57971h-2.8986c0.57971 6.9565 0.57971 15.072 0.57971 21.449zm124.64-3.4783-20.87 45.217h40.58z" stroke-width="5.7971"/><path d="m395.36 390.72 59.13 130.43 0.57971-130.43 95.652 98.551v-90.435h19.71v139.13l-95.652-99.71v92.174h-38.261l-13.913-31.304h-56.232l-14.493 31.304h-39.42l-37.681-53.913h-2.8986v53.913h-20.87v-131.59h29.565c5.7971 0 11.014 1.1594 16.812 2.3188 10.435 2.3188 17.971 7.5362 23.188 16.812 2.3188 3.4783 3.4783 7.5362 4.058 12.174 0.57971 2.8986 1.1594 5.7971 0.57971 8.6956-0.57971 8.1159-2.8986 15.652-8.1159 22.029-4.6377 6.3768-9.8551 9.2754-16.812 12.174-1.1594 0.57971-3.4783 0.57971-4.6377 0.57971 2.8986 4.058 35.942 48.696 35.942 48.696zm-123.48 48.116v20.87h1.1594c6.9565 0 13.913 0.57971 20.87-2.3188 4.058-1.7391 7.5362-4.058 9.8551-7.5362 2.8986-5.2174 2.3188-10.435 2.3188-15.652 0-3.4783-1.7391-6.3768-4.058-8.6956-4.6377-4.6377-10.435-6.3768-16.812-6.9565-3.4783-0.57971-6.3768-0.57971-9.8551-0.57971h-2.8986c-0.57971 5.7971-0.57971 14.493-0.57971 20.87zm122.9-4.058-20.87 44.638h40z" stroke-width="5.7971"/><path d="m213.33 462.03h27.246v2.3188c0 4.6377 0 8.6956-0.57971 13.333-0.57971 5.7971-1.7391 11.014-4.058 16.812-3.4783 9.2754-8.6956 16.812-15.652 22.609-5.7971 5.2174-12.174 9.2754-19.13 11.594-8.1159 2.8986-16.812 4.058-25.507 3.4783-5.2174-0.57971-10.435-1.1594-15.652-2.8986-8.6956-2.3188-16.232-6.3768-22.609-12.174-7.5362-6.3768-13.913-13.913-18.551-22.609-2.3188-4.6377-4.058-9.2754-5.2174-14.493-1.7391-6.3768-2.3188-13.333-1.7391-19.71 0.57971-7.5362 2.3188-15.072 4.6377-22.029 4.6377-11.594 11.594-20.29 20.87-27.826 5.7971-4.6377 12.174-8.1159 19.13-11.014 4.058-1.7391 8.6956-2.3188 13.333-3.4783 5.2174-1.1594 11.014-1.1594 16.232-0.57971 6.9565 0.57971 13.913 2.3188 20.29 4.6377 8.6956 3.4783 16.232 9.2754 23.188 16.232 1.7391 1.7391 5.2174 5.7971 5.2174 5.7971s-1.1594 0.57971-1.1594 1.1594c-4.058 3.4783-7.5362 7.5362-11.594 11.014l-1.1594 1.1594-1.1594-1.1594c-2.8986-2.8986-5.7971-6.3768-9.2754-9.2754-5.7971-4.6377-11.594-8.1159-19.13-9.8551-6.3768-1.1594-13.333-1.1594-19.71-0.57971-8.1159 1.1594-15.072 4.6377-20.87 9.2754-6.3768 5.2174-11.594 11.594-14.493 19.13-1.1594 3.4783-2.3188 6.9565-2.8986 10.435-1.1594 4.058-0.57971 7.5362-0.57971 11.014 0 6.9565 1.7391 14.493 5.2174 20.87 4.058 8.1159 9.8551 13.913 17.391 19.13 8.6956 5.7971 17.971 8.6956 28.406 7.5362 7.5362-0.57971 14.493-3.4783 20.29-8.1159 5.2174-4.058 9.8551-8.6956 12.174-15.072 1.1594-2.8986 1.7391-5.2174 2.8986-8.1159 0.57971-1.7391 0-2.3188 0-2.3188h-33.043v-17.971c8.1159 1.7391 18.551 1.7391 27.246 1.7391z" stroke-width="5.7971"/><path d="m581.45 398.26h34.203c6.3768 0 12.174 0.57971 18.551 1.7391 16.812 3.4783 29.565 12.754 39.42 26.087 4.058 5.2174 6.3768 11.594 8.1159 17.971 1.1594 4.058 1.7391 8.1159 2.3188 12.174 0.57971 3.4783 0.57971 7.5362 0.57971 11.014-0.57971 7.5362-1.7391 15.072-4.6377 22.609s-7.5362 14.493-12.754 19.71c-6.3768 6.3768-13.333 11.594-21.449 15.072-5.2174 2.3188-10.435 3.4783-15.652 4.058-6.9565 1.1594-14.493 0.57971-21.449 1.1594h-26.667v-131.59zm20.29 113.62h2.3188c8.1159 0 16.232 0 24.348-1.7391 6.9565-1.7391 12.754-4.6377 17.971-8.6956 6.3768-5.2174 11.594-11.594 14.493-19.71 1.7391-4.6377 2.3188-9.8551 2.8986-14.493 0.57971-6.9565-0.57971-13.333-2.8986-20.29-2.8986-7.5362-7.5362-13.913-13.333-19.13-8.6956-6.9565-18.551-9.2754-28.986-9.8551-4.6377-0.57971-8.6956 0-13.333 0h-2.3188z" stroke-width="5.7971"/></g>
</svg>
