<svg width="800" height="800" version="1.1" viewBox="0 0 800 800" xml:space="preserve" xmlns="http://www.w3.org/2000/svg">
<rect class="st0" width="800" height="800" fill="#02399e" stroke-width="12.121"/>
<g transform="scale(12.121)">
	<path class="st1" d="m31.9 29.3c-0.2-0.3-0.6-0.4-0.9-0.4s-0.5 0.1-0.8 0.3c-4.9 4-8.3 9.8-9.9 16.8l-3.3-8.5h-2.5l5 12.5c-0.3 2.1-0.4 4.2-0.4 6.5 0 0.7 0.5 1.2 1.2 1.2s1.2-0.5 1.2-1.2c0-11 3.6-20.1 10.2-25.5 0.5-0.4 0.6-1.2 0.2-1.7z" fill="#ed8c23"/>
	<path class="st2" d="m16.1 26.4h-3.3v-3.4h3.5c1.4 0 2 0.6 2 1.7-0.1 1.3-1.1 1.7-2.2 1.7m-3.4-9.7h3.1c1.2 0 2 0.3 2 1.3 0 1.2-0.8 1.6-2 1.6h-3.1v-2.9zm38-4.4-2.7 10.8-2.7-10.8h-21.8v10.8c-0.6-1.4-1.7-2.2-2.9-2.6 1.4-0.8 2.3-1.8 2.3-3.6 0-1.9-1.1-4.6-5.9-4.6h-10v18.5h10.4c2.7 0 5.2-1.3 6.1-3.7v3.7h5.7v-7.1h5.2v-4.2h-5.2v-2.8h8v14.1h5.4v-11.8h0.1l3.3 11.9h4.2l3.3-11.9h0.1v11.8h5.4v-18.5z" fill="#fff"/>
	<path class="st2" d="m11 37.5v14.2h4.8v2.3h-7.2v-16.5z" fill="#fff"/>
	<path class="st2" d="m24.6 45.6c0-2.4 0.9-4.3 2.6-6s3.7-2.5 6.1-2.5 4.3 0.9 6 2.6 2.6 3.7 2.6 6.1-0.9 4.4-2.6 6c-1.7 1.7-3.7 2.5-6.2 2.5-2.2 0-4-0.7-5.7-2.2-1.9-1.7-2.8-3.9-2.8-6.5zm2.5 0c0 1.9 0.6 3.3 1.9 4.5 1.2 1.2 2.7 1.8 4.2 1.8 1.8 0 3.2-0.6 4.3-1.8 1.2-1.2 1.8-2.7 1.8-4.4 0-1.8-0.6-3.2-1.8-4.4s-2.7-1.8-4.3-1.8-3.2 0.6-4.3 1.8c-1.2 1.1-1.8 2.6-1.8 4.3z" fill="#fff"/>
	<path class="st2" d="m42.8 53.9v-17.6l12 12.6v-11.4h2.5v17.5l-12-12.6v11.5z" fill="#fff"/>
</g>
</svg>
