<svg width="800" height="137.92" version="1.1" viewBox="0 0 211.67 36.491" xmlns="http://www.w3.org/2000/svg">
 <g transform="matrix(1.2819 0 0 1.2819 -.00038457 -4.6411)" stroke-width=".12239">
  <path d="m14.48 16.95 1.9506 1.189 8.4693-5.1073v-2.3512z" fill="#f8bd00"/>
  <path d="m12.46 20.53v11.557l2.0232-0.98963v-9.3495z" fill="#f5eb00"/>
  <path d="m12.46 18.16-10.536 6.339v2.3656l8.5128-5.1231v9.3495l2.0232 0.98964v-11.557l10.536 6.3409v-2.3656z" fill="#f8bd00"/>
  <path d="m10.43 14.56v-1e-3l-8.5319-5.1313-1.8885 1.2454 10.42 6.2649z" fill="#f5eb00"/>
  <path d="m24.92 23.3-10.436-6.3542 10.42-6.2692-1.888-1.2459-8.5319 5.1313v-9.7611l-2.0232-1.1804-2.0227 1.1804 2.0227 1.0336v12.331l10.535 6.338 1e-3 -9.8e-4v2.3656l1.9234-1.2392z" fill="#f5eb00"/>
  <path d="m10.43 4.8v12.14l2.0222 1.2234 9.8e-4 4.9e-4v-12.331z" fill="#f8bd00"/>
  <path d="m12.46 18.16-2.0247-1.2254-10.435 6.36v2.3282l1.9234 1.2392v-2.3656l1e-3 9.8e-4z" fill="#f5eb00"/>
  <path d="m10.43 16.94-10.418-6.2639v2.3517l8.4635 5.1035z" fill="#f8bd00"/>
 </g>
 <g transform="matrix(3.8206 0 0 3.8206 -77.425 -264.11)">
  <g transform="matrix(.33553 0 0 .33553 20.265 67.913)" fill="#f8bd00" stroke-width=".12239">
   <path d="m126.32 12.25h-16.152v4.223h5.6219v14.621h4.9089v-14.621h5.6214z"/>
   <path d="m141.02 12.25h-5.1208l-3.6947 14.014h-0.0516l-3.6956-14.014h-5.1203l5.9384 18.843h5.6476z"/>
  </g>
  <g transform="matrix(.33553 0 0 .33553 20.265 67.913)" fill="#004275" stroke-width=".12239">
   <path d="m45.39 21.59c0 3.1668-1.3626 6.0751-4.4552 6.0751-3.0942 0-4.4557-2.9082-4.4557-6.0751 0-3.2037 1.3616-6.1123 4.4557-6.1123 3.0928 0 4.4552 2.9087 4.4552 6.1123m-13.956 9.4995h4.9716v-2.43h0.0731c1.1412 2.0992 3.4618 2.9474 6.2605 2.9474 3.7916 0 7.8779-3.0564 7.8779-10.053 0-6.96-4.0862-10.016-7.8779-10.016-2.3575 0-4.7145 0.88399-6.0029 2.836h-0.0741v-9.5742h-5.2284z" fill-rule="evenodd"/>
   <path d="m57.09 4.8h-5.2294v4.308h5.2294zm-5.2294 26.291h5.2294l-3e-3 -18.828h-5.2279z" fill-rule="evenodd"/>
   <path d="m73.33 21.59c0 3.1668-1.3636 6.0751-4.4557 6.0751-3.0937 0-4.4548-2.9082-4.4548-6.0751 0-3.2037 1.3611-6.1123 4.4548-6.1123 3.0923 0 4.4557 2.9087 4.4557 6.1123m-13.955 9.4995h4.9716v-2.43h0.0731c1.1412 2.0992 3.4603 2.9474 6.2587 2.9474 3.7916 0 7.8798-3.0564 7.8798-10.053 0-6.96-4.0881-10.016-7.8798-10.016-2.356 0-4.7125 0.88399-6.0019 2.836h-0.0727v-9.5742h-5.2289z" fill-rule="evenodd"/>
   <path d="m84.33 19.53c0.0741-1.472 1.0312-4.0499 4.3444-4.0499 2.5416 0 3.6837 1.3984 4.1627 4.0499zm13.733 3.3141c0.3686-5.8537-2.761-11.304-9.2414-11.304-5.781 0-9.7205 4.3453-9.7205 10.053 0 5.8915 3.7196 10.017 9.7205 10.017 4.307 0 7.4385-1.9161 8.9106-6.4082h-4.6034c-0.33036 1.1785-2.0232 2.4664-4.1244 2.4664-2.9077 0-4.527-1.5098-4.6752-4.8234z" fill-rule="evenodd"/>
   <path d="m99.1 31.09h5.2289v-26.291h-5.2289z"/>
   <path d="m107.19 28.26c0-1.5624 1.2674-2.8303 2.8308-2.8303 1.5619 0 2.8278 1.2678 2.8278 2.8303 0 1.562-1.266 2.8283-2.8278 2.8283-1.5633 0-2.8308-1.2665-2.8308-2.8283"/>
  </g>
  <path d="m68.904 73.491v-3.9678h0.80116v1.5617h1.5698v-1.5617h0.80116v3.9678h-0.80116v-1.7349h-1.5698v1.7349z" fill="#0a5286" stroke-width=".01803"/>
  <path d="m72.341 69.524h1.4643c0.3302 4e-6 0.58192 0.02526 0.75514 0.07578 0.23275 0.06857 0.43214 0.19036 0.59815 0.36538 0.166 0.17503 0.29231 0.3893 0.37892 0.6428s0.12991 0.56612 0.12992 0.93782c-4e-6 0.32658-0.0406 0.60808-0.1218 0.84445-0.09924 0.2887-0.24089 0.52236-0.42492 0.70101-0.13894 0.13533-0.3266 0.24089-0.56297 0.31666-0.17683 0.05594-0.41321 0.0839-0.70912 0.0839h-1.5076zm0.80116 0.67122v2.6281h0.59815c0.22374 0 0.38524-0.01263 0.48448-0.03789 0.12991-0.03248 0.23772-0.08751 0.32344-0.1651 0.08571-0.07759 0.15562-0.20525 0.20977-0.38298 0.05413-0.17773 0.08119-0.41997 0.0812-0.72672-4e-6 -0.30673-0.02707-0.54221-0.0812-0.70642-0.05414-0.1642-0.12992-0.29231-0.22736-0.38435-0.09744-0.09202-0.22104-0.15427-0.37079-0.18676-0.11188-0.02526-0.33111-0.03789-0.65771-0.03789z" fill="#0a5286" stroke-width=".01803"/>
 </g>
</svg>
