<svg width="799.95" height="800" version="1.0" xmlns="http://www.w3.org/2000/svg">
 <path d="m421.39 799.99h98.615v-799.95h-98.615zm-184.01-43.418c-0.0562 23.895-19.271 43.087-42.972 43.149h-194.41l0.06145-799.68h194.58c23.461 0.0395 42.676 19.248 42.732 43.143v280.3c0 22.598-18.527 40.853-41.109 40.853l-4.3124-0.0228c24.979 0 45.422 20.31 45.422 45.266v346.99zm-138.75-657.79h40.482v227.88h-40.482zm0 325.8h40.482v276.17h-40.482zm701.31 375.39v-799.98h-98.638v139.24h-95.976c-23.488 0.0386-42.559 19.254-42.621 43.149l-0.11689 574.19c0.0614 23.895 19.271 43.087 42.972 43.149l194.39 0.25578zm-98.6-563.02h-40.48v463.79h40.48zm-421.25-138.18h98.61v-98.749h-98.61zm0 701.22h98.61v-660.73h-98.61z" fill="#d91918" fill-rule="evenodd" stroke-width="1.8849"/>
</svg>
