<svg width="800" height="558.66" version="1.1" viewBox="0 0 800 558.66" xmlns="http://www.w3.org/2000/svg" xmlns:xlink="http://www.w3.org/1999/xlink">
 <defs>
  <path id="a" d="m103.71 60v-3.696h3.468v3.696h1.884v-8.568h-1.884v3.288h-3.468v-3.288h-1.884v8.568zm10.704 0c0.656 0 1.226-0.11 1.71-0.33s0.888-0.522 1.212-0.906 0.566-0.84 0.726-1.368 0.24-1.104 0.24-1.728c0-0.712-0.098-1.332-0.294-1.86s-0.468-0.968-0.816-1.32-0.76-0.616-1.236-0.792-0.99-0.264-1.542-0.264h-3.696v8.568zm-0.132-1.584h-1.68v-5.4h1.344c0.464 0 0.854 0.066 1.17 0.198s0.57 0.322 0.762 0.57 0.33 0.546 0.414 0.894 0.126 0.738 0.126 1.17c0 0.472-0.06 0.872-0.18 1.2s-0.28 0.594-0.48 0.798-0.428 0.35-0.684 0.438-0.52 0.132-0.792 0.132z"/>
 </defs>
 <g transform="matrix(11.886 0 0 11.886 -606.2 -225.84)" fill="none" fill-rule="evenodd">
  <g transform="translate(51,19)">
   <path d="m0 0h47v47h-47z" fill="#d00"/>
   <path d="m24.466 4.9985h4.5588v36.98h-4.5588z" fill="#fff"/>
   <path d="m13.984 4.9985h-8.9954v36.968h8.9869c0.52858 0 1.0354-0.2103 1.4088-0.58451 0.37332-0.37421 0.58242-0.88157 0.58116-1.4102v-16.04c-0.0042-1.1565-0.94236-2.0922-2.0989-2.0932h0.19899c1.0459 0.0026 1.8962-0.8426 1.8999-1.8885v-12.956c0.0031-1.0979-0.88351-1.9909-1.9814-1.9956zm-2.567 32.394h-1.8715v-12.768h1.8715zm0-17.293h-1.8715v-10.535h1.8715v10.534z" fill="#fff" fill-rule="nonzero"/>
   <path d="m9.5459 9.5639h1.8715v10.534h-1.8715z"/>
   <path d="m9.5459 24.625h1.8715v12.767h-1.8715z"/>
   <path d="m37.406 4.9975v6.436h-4.4366c-1.0931 0.01093-1.9727 0.90153-1.97 1.9947l-0.0047 26.543c-0.0013 0.52858 0.20784 1.0359 0.58116 1.4101 0.37332 0.37421 0.88018 0.58451 1.4088 0.58451l8.9821 0.01232v-36.98zm0 32.394h-1.8715v-21.44h1.8705v21.441z" fill="#fff" fill-rule="nonzero"/>
   <path d="m35.536 15.952h1.8705v21.44h-1.8705z"/>
   <g fill="#fff">
    <path d="m17.934 4.9985h4.5588v4.5654h-4.5588z"/>
    <path d="m17.934 11.436h4.5588v30.542h-4.5588z"/>
   </g>
  </g>
  <g fill-rule="nonzero">
   <use fill="#4a4a4a" xlink:href="#a"/>
   <path d="m103.71 60v-3.696h3.468v3.696h1.884v-8.568h-1.884v3.288h-3.468v-3.288h-1.884v8.568zm10.704 0c0.656 0 1.226-0.11 1.71-0.33s0.888-0.522 1.212-0.906 0.566-0.84 0.726-1.368 0.24-1.104 0.24-1.728c0-0.712-0.098-1.332-0.294-1.86s-0.468-0.968-0.816-1.32-0.76-0.616-1.236-0.792-0.99-0.264-1.542-0.264h-3.696v8.568zm-0.132-1.584h-1.68v-5.4h1.344c0.464 0 0.854 0.066 1.17 0.198s0.57 0.322 0.762 0.57 0.33 0.546 0.414 0.894 0.126 0.738 0.126 1.17c0 0.472-0.06 0.872-0.18 1.2s-0.28 0.594-0.48 0.798-0.428 0.35-0.684 0.438-0.52 0.132-0.792 0.132z" fill="#d00"/>
  </g>
 </g>
</svg>
