<svg width="799.49pt" height="181.25pt" version="1.1" viewBox="0 0 799.49 181.25" xmlns="http://www.w3.org/2000/svg">
 <g transform="translate(-49.292 -77.48)" fill="#b4b6b4">
  <path d="m251.36 78.46c10.94-3.43 23.61 2.45 28.25 12.88 3.79 8.09 2.65 18.33-3.08 25.24-4.82 6.09-12.77 9.51-20.51 8.81-11.82-0.73-21.97-11.49-21.83-23.36-0.57-10.58 7.03-20.75 17.17-23.57z"/>
  <path d="m704.29 124.81c1.3648 0.0186 12.427 0.0577 13.795 0.11703 6.02 0.49 11.005 6.1 11.135 12.08v16.035h14.915c0.19 4.53 0.5 9.685-2.74 13.325-2.86 3.75-7.755 4.57-12.175 4.48v55.19c0 3.4561 1.935 5.29 4.635 5.67 3.41 0.39 6.865 0.16 10.305 0.28v18.97c-9.77 0.77-19.695 0.9-29.375-0.75-6.91-1.31-10.495-8.2024-10.495-15.11z"/>
  <path d="m752.74 152.98h27.51l19.91 69.14 17.39-60.53c1.32-4.56 5.49-8.5202 10.37-8.6102l20.86-0.0497-34.87 99.08h-26.52z"/>
 </g>
 <g transform="translate(-49.292 -77.48)" fill="#1b74ce">
  <path d="m138.38 120.32c18.33-7.97 38.35-13.63 58.51-11.74 13.51 1.23 26.96 7.41 35.23 18.42 7.98 10.28 11.84 23.22 12.93 36.05l0.27-13.15h17.47c6.5855 0 7.5726 8.2414 7.6818 13.273l-0.04 24.147c1.14-8.65 3.9282-17.39 9.3582-24.4 7.14-9.75 19.46-14.16 31.18-14.6 12.47-0.72 26.16 1.27 35.67 10.06 6.57 5.72 9.87 14.01 12.41 22.12-0.37-9.02 3.36-18.28 10.67-23.77 9.98-7.61 23.2-9.14 35.38-8.3 11.28 0.78 23.33 4.79 30.17 14.34 3.88 4.99 5.4448 11.27 6.2048 17.4v-39.09c0-2.159 0.68665-4.6109 1.5578-6.7776 1.8169-4.5188 5.1132-8.4433 9.5674-10.572 9.28-4.46 19.975-3.78 29.935-2.71v20.8c-4.72 0.22-10.375-1.05-14.125 2.55-3.09 3.02-1.78 7.67-1.99 11.51h16.115c0.19 5.06 0.335 10.97-3.675 14.73-3 3.61-8.05 4.25-12.44 3.97v75.645c-8.33-0.19-16.605 0.01-24.945 0v-16.765c-4.49 9.39-14.425 14.69-24.245 16.74-11.65 2.37-23.87 2.64-35.48-0.05-11.69-2.65-22.49-11.57-24.72-23.74-2.87 7.05-7.07 13.83-13.42 18.24-9.62 6.9-22.01 8.33-33.53 7.6-9.67-0.7-19.67-3.67-26.71-10.65-7.85-7.46-11.948-18.3-12.858-28.89l-0.04 37.46h-25.122l0.03-63.17c0-4.5732-1.4675-9.6828-3.1923-14.26-1.9711-5.231-4.8511-10.09-8.7977-14.09-7.13-7.16-17.43-10.3-27.35-10.34-7.4-0.12-14.95 2.2-20.63 7.03-2.94 2.39-5.19 5.46-7.52 8.41l0.24-30.73c0.0888-2.8457-0.84408-5.7621-2.5988-7.9608-1.4086-1.7649-3.4795-3.4992-5.7112-3.4992l-16.93-0.36 0.02 86.76c0.14 11.65 2.92 24.17 11.58 32.54 7.05 7 16.96 9.79 26.53 11.11-12.53 4.4-25.76 6.86-39.05 7.06-17.34 0.28-34.79-0.28-51.9-3.36-10.95-2.04-21.91-5.04-31.62-10.63-8.13-4.64-15.3-11.83-17.91-21.03-2.75-9.61-0.65-19.88 3.31-28.84 5.46-12.33 14.02-22.99 23.34-32.62 17.58-17.56 38.49-31.78 61.19-41.87m246.58 52.78c-1.69 3.23 0.3 6.97 3.13 8.77 6.83 4.61 15.28 5.23 23.05 7.2 8.21 2.1 16.57 4.43 23.71 9.14 2.78 1.77 4.905 4.47 6.625 7.22v-24.127h-13.648c-2.9447 0-5.8532-0.4119-8.6767-1.3728-4.34-1.38-4.57-6.75-8.12-9.02-4.39-3.01-9.98-2.87-15.06-2.69-4.04 0.19-8.76 1.13-11.01 4.88m-76.67-1.6c-4.29 1.54-7.63 5.09-9.49 9.19-3.4 7.55-3.66 16.06-3.27 24.21 0.58 6.68 1.73 13.88 6.21 19.17 6.87 8.35 21.89 7.68 27.68-1.61 4.88-7.83 5.29-17.48 5.08-26.45-0.36-7.05-1.45-14.72-6.25-20.25-4.82-5.62-13.26-6.6-19.96-4.26m52.07 18.12c0.55 9.13 0.9 18.465-1.05 27.475h22.35c0.47 2.88 0.86 5.985 2.74 8.345 3.32 4.53 9.18 6.08 14.53 6.35 5.02 0.17 10.38 0.42 15-1.89 3.22-1.55 5.31-5.28 4.43-8.84-1.56-3.55-5.38-5.2-8.74-6.61-9.46-3.82-19.87-4.08-29.41-7.62-8.53-2.86-16.41-8.66-19.85-17.21z"/>
  <path d="m509.84 149c11.86-1.62 24.7-1.17 35.39 4.8 11.18 6.27 17.43 18.82 18.84 31.22 2.49-9.01 6.16-18.22 13.58-24.33 11.09-9.45 26.27-11.33 40.33-11.03v19.12c2.21-3.69 3.74-7.82 7-10.77 8.07-8.03 20.11-9.9 31.02-9.81 11 0.1 22.83 1.15 32.08 7.69 6.67 4.73 9.92 13.09 9.62 21.11-0.05 11.68 0.07 23.37 0 35.06-0.09 10.37-3.44 21.23-11.27 28.39-7.96 7.31-18.86 10.28-29.38 11.31-10.55 1.27-22.02 0.37-31.12-5.58-7.45-4.82-11.77-13.47-12.36-22.19-0.69-8.96 1.48-18.81 8.34-25.07 7.34-6.82 17.58-9.01 27.17-10.51 7.07-1.17 14.98-0.83 21.01-5.28 3.12-2.07 3.83-6.77 1.47-9.65-2.97-3.73-8.11-4.27-12.52-4.65-6.58-0.38-14.64 0.425-17.99 6.995h-32.11c-5.33 0.1-10.98 1.405-14.88 5.285-4.39 4.37-5.62 10.86-5.56 16.84v52.22h-25.54v-27.5c-2.69 6.17-4.97 12.65-9.83 17.5-8.03 8.91-20.46 12.22-32.1 12.26-11.74-0.14-24.21-3.17-32.83-11.62-8.98-8.79-12.36-21.62-13.22-33.81-0.88-14.47 0.24-30.07 8.57-42.44 5.78-8.92 16.01-13.97 26.29-15.56m-2.28 24.56c-4.04 4.08-5.69 9.92-6.63 15.43h37.74c-0.7-6.23-2.6-12.88-7.79-16.87-6.8-4.92-17.23-4.46-23.32 1.44m145.54 32.17c-4.3 0.89-8.73 2.37-11.78 5.68-5.68 5.67-3.42 17.61 4.8 19.58 8.95 2.02 19.9-1.1 24.41-9.62 2.2741-3.9677 2.9002-8.3079 2.9002-12.761v-9.0294c-6.53 2.79-13.39 4.72-20.33 6.15m-152.59 1.39c0.59 5.93 1.63 12.19 5.51 16.94 6.16 7.52 18.05 7.94 25.85 2.78 4.12-2.36 6.93-7.4 12.18-7.36 6.27-0.18 12.7-0.03 18.98 0v-12.36z"/>
  <path d="m193.39 171.65c7.11-1.84 15.77-0.61 20.67 5.32 4.69 5.54 5.98 13.07 6.47 20.11 0.33 8.41-0.27 17.36-4.69 24.75-7.07 11.74-27.48 11.56-33.74-0.88-4.54-8.93-4.41-19.44-3.24-29.15 1.13-8.46 5.47-17.99 14.53-20.15z"/>
 </g>
</svg>
