<svg width="645.34" height="407.06" enable-background="new 0 0 800 402.8" version="1.1" viewBox="0 0 645.34 407.06" xml:space="preserve" xmlns="http://www.w3.org/2000/svg">
<g transform="translate(-17322 .014288)" fill="#015" stroke-width="4.1316"><path d="m17666 401.1q-6.28 2.6442-14.213 4.2969-7.932 1.6526-16.361 1.6526-13.386 0-23.137-3.9664-9.585-4.1316-15.7-11.403t-9.09-17.188q-2.809-9.9159-2.809-21.815 0-12.725 3.305-23.633 3.471-10.907 9.916-18.84 6.611-7.9327 16.857-12.395 10.247-4.6274 24.459-4.6274 6.446 0 13.056 0.82632 6.611 0.82633 12.56 2.6442l-2.479 13.882q-5.784-1.9832-12.229-3.14-6.28-1.1569-12.56-1.1569-9.586 0-16.527 3.4706-6.776 3.4706-11.238 9.4201t-6.61 14.048q-1.984 7.9327-1.984 17.022 0 20.658 9.09 32.061 9.255 11.238 28.756 11.238 6.115 0 12.725-1.4874 6.776-1.6526 11.734-4.1316z" style="white-space:pre"/><path d="m17681 405.73v-111.55h15.204v111.55z" style="white-space:pre"/><path d="m17754 306.9v98.828h-15.205v-98.828h-32.061v-12.725h79.492v12.725z" style="white-space:pre"/><path d="m17835 365.57v40.159h-15.204v-40.159l-34.871-71.394h16.692l17.683 37.68q4.627 9.9159 8.429 19.336h0.165q1.983-5.1232 4.462-10.412 2.479-5.4537 5.123-10.907l17.188-35.697h15.865z" style="white-space:pre"/></g><g fill="#015"><path d="m96.385 76.214c-5.8 1-10.7 4.9-12.9 10.4-1.4 3.2-2.8 6.5-3.8 9.8-2.4 7.4-8.2 13.3-15.5 15.8-3.8 1.4-7.6 3-11.2 4.7-10.9 4.9-11.2 17.2-6.5 24.2 3 4.1 6.6 7.5 10.8 10.3 2.5 1.8 5.1 3.7 7.7 5.4 8.6 5.5 14.3 14.5 15.5 24.7 0.7 4.4 1.8 8.7 3.1 12.9 0.8 2.2 1.8 4.3 3.2 6.2 0.9 1.2 1.4 2.6 1.3 4.1v47.4l-0.5 0.2c-1.2-2.2-2.3-4.5-3.2-6.8-2.6-8.4-5.4-16.8-7.3-25.5-3.6-17.4-12.4-33.2-25.2-45.4-9.9-9.4-20.1-18.1-30.1-27.1-7-5.8-12.9-12.9-17.2-20.9-6.4-12.6-6.1-27.5 0.9-39.7 5.1-8.9 11.7-16.8 19.5-23.6 12.2-10.7 25-20.8 38.3-30.2l0.4 0.2c9.5 15.7 22.7 27.7 37.2 38.3 11.2 8.2 22.8 15.8 34.3 23.7 16 10.4 31.1 22.1 45.4 34.8 9.8 8.8 18.3 18.8 25.5 29.8 15.3 24.3 14.5 48.9 0.4 73.3-8.8 15.3-22 26.2-37.1 35-19.2 11-40.4 18.3-62.4 21.3-3.3 0.5-6.7 0.8-10 1.1-0.2 0-0.4-0.1-0.6-0.2z"/><path d="m267.69 59.514h30.5c-0.4 21.8 0.7 43.5-0.9 65.6 1.1-1.4 2.1-2.6 3.1-3.8 6.4-6.8 15.1-11 24.4-11.6 8.9-1.1 17.9 0.6 25.7 4.9 8.6 5.1 14.9 13.4 17.3 23.2 5.6 18.1 4.8 37.7-2.4 55.3-7 17.9-23.2 30.5-42.2 32.8-18.1 2.5-36.5 1.1-54-4-1.1-0.3-1.6-0.8-1.5-1.9zm30.1 123.8h0.3v15.7c0 1.3 0.4 2 1.7 2.2 2.4 0.3 4.8 0.9 7.2 1.1 5.4 0.7 10.9 0.1 16.1-1.8 8.2-3.4 12.3-10.1 14.5-18.3 2.1-8.2 2.6-16.8 1.5-25.2-0.6-4.4-1.7-8.8-3.3-13-1.6-4.4-5.3-7.7-9.9-8.7-6-1.5-12.4 0.2-16.8 4.5-5.9 5.8-9.4 13.5-10 21.7-1 7.2-1 14.6-1.3 21.8z"/><path d="m432.89 111.81h30.1v72.4c0 2.4 0.2 4.9 0.7 7.3 1.4 7.1 5.6 10.2 12.7 9.9 7.8-0.3 13.2-4.5 17.5-10.6 4.2-6 6.5-13 6.7-20.3 0.4-13.3 0.3-26.6 0.3-39.9v-18.7h30.2v112.8h-28.1v-15.7c-1.4 1.6-2.8 3.4-4.3 5-9.4 9.9-21.1 13.5-34.4 13-4.9-0.1-9.8-1.1-14.4-3.1-9.5-4.3-14.3-12-16.2-21.8-0.6-3.4-1-6.8-1-10.2v-77.3z"/><path d="m643.99 174.21h-68.5c-2.5 13 6 25.4 19 27.9 0.2 0 0.4 0.1 0.6 0.1 13.2 2 26.8 0.4 39.2-4.5l3.7-1.4c0.5 3.5 1.1 6.8 1.5 10.2 0.6 3.9 1.1 7.8 1.7 11.7 0.1 1 0.1 1.7-1.1 2.1-18.7 6.3-37.7 9.1-57.3 5.1-19.9-4-32.2-16.3-36.4-36.1-3.6-16.6-3.4-33.2 3.6-49 8.4-18.8 23-29.1 43.6-30.8 7.2-0.6 14.5 0.1 21.5 2.1 16.4 4.8 25.4 16.2 28.9 32.6 1.8 9.9 1.8 20 0 30zm-29.1-20.8c0-7.6-1.5-14.4-8.4-18.4-6.1-3.8-13.9-3.8-20 0-6.9 4-9.6 10.7-10.8 18.4z"/><path d="m385.39 59.514h30.2v165.3h-30.2z"/><path d="m178.79 117.11c-4.4-3.5-8.4-7-12.9-10.1-16.8-12-34-23.8-51-35.7-2.4-1.7-4.8-3.3-7.2-5.1-0.6-0.5-1-1.1-1-1.9v-36.3c0-0.2 0.1-0.5 0.2-0.7 6.6-0.9 13.3-0.4 19.6 1.5 28.6 7.1 49.7 31.3 52.9 60.6 0.9 8.5 0.9 17.2-0.2 25.7-0.1 0.6-0.2 1.2-0.4 2z"/><path d="m80.485 257.01c-3.2-1.6-6-2.8-8.7-4.2-10.7-5.3-20-13.1-27.1-22.7-5.3-6.9-8.2-15.4-8.1-24.1 0.1-5.1 1.4-10.1 3.7-14.7 1.8-3.5 3.9-6.8 6.3-11.1 1 1.3 1.7 2.4 2.5 3.2 10.4 11 17.5 24.7 20.3 39.5 2.1 11.2 5.6 22.1 10.5 32.4 0.1 0.3 0.3 0.7 0.6 1.7z"/><path d="m97.485 58.614c-4.5-4.3-9.3-8.4-13.4-12.9-4.6-5.3-8.9-10.8-12.9-16.6-3-3.9-4.1-9-2.8-13.8 1.2-4 3.8-7.4 7.3-9.6 6-4 13-5.9 20-5.7 1.8 0 2.4 0.6 2.4 2.5v55.6z"/></g>
</svg>
