<svg width="886.05" height="402.84" enable-background="new 0 0 800 402.8" version="1.1" viewBox="0 0 886.05 402.84" xml:space="preserve" xmlns="http://www.w3.org/2000/svg">
<g transform="translate(-9284.7 .014293)" fill="#015"><path d="m9614.2 368.45q0 7.4369-2.9747 13.717-2.9748 6.2801-8.4285 10.907-5.2885 4.4622-12.891 7.1064-7.6022 2.479-17.022 2.479-6.9411 0-13.056-0.82632t-11.403-2.3137l1.8179-14.543q5.2884 2.1484 11.238 3.3053 5.9495 1.1568 12.23 1.1568 4.7926 0 9.0895-0.99158 4.4622-1.1569 7.7675-3.3053 3.3053-2.3137 5.2884-5.9495 1.9832-3.6358 1.9832-8.759 0-6.2801-3.8011-9.9159-3.6358-3.8011-9.2548-6.4453-5.619-2.8095-12.23-5.1232-6.4453-2.3137-12.064-5.7843-5.619-3.6358-9.4201-9.0896-3.6358-5.4537-3.6358-14.378 0-6.9411 2.4789-12.725 2.6443-5.7843 7.6022-9.9159 4.958-4.2969 12.23-6.6106 7.2717-2.3137 16.692-2.3137 4.7927 0 10.081 0.4958 5.2885 0.49579 10.081 1.6526l-1.8179 13.386q-4.4621-1.3221-9.4201-2.1484-4.9579-0.82633-9.7506-0.82633-11.403 0-17.022 4.7927-5.4538 4.6274-5.4538 12.56 0 5.9495 3.8011 9.7506 3.8011 3.6358 9.4201 6.2801 5.619 2.6442 12.23 5.1232 6.7758 2.3137 12.395 5.9495 5.619 3.6358 9.4201 9.0896 3.8011 5.4537 3.8011 14.213z" style="white-space:pre"/><path d="m9697.8 321.51q0 8.4285-2.9747 15.535-2.9748 6.9411-8.4285 11.899-5.4538 4.9579-13.221 7.7674-7.7675 2.6442-17.683 2.6442-2.1484 0-4.4621 0-2.3137-0.16527-5.7843-0.49579v42.308h-15.204v-111.55q6.28-0.33053 13.221-0.4958 7.1063-0.16526 14.708-0.16526 19.171 0 29.417 8.9243 10.412 8.759 10.412 23.633zm-15.7 1.9832q0-10.577-6.2801-16.196-6.28-5.7843-19.501-5.7843-3.1401 0-5.9496 0.16526-2.8095 0-5.1232 0.16527v43.96q2.9748 0.49579 6.1148 0.82632 3.1401 0.16527 5.4538 0.16527 12.891-0.16527 19.005-6.4453 6.2801-6.2801 6.2801-16.857z" style="white-space:pre"/><path d="m9789.3 345.97q0-21.65-9.2549-33.053-9.0895-11.569-25.946-11.569-6.9412 0-13.386 2.8095-6.28 2.8095-11.073 8.2632t-7.7675 13.552q-2.8095 7.9327-2.8095 18.51 0 9.9159 2.1485 18.179 2.1484 8.2632 6.4453 14.213t10.742 9.2548q6.6106 3.14 15.535 3.14 6.7759 0 13.056-2.479 6.4453-2.6442 11.403-8.098 4.9579-5.619 7.9327-13.717 2.9748-8.2632 2.9748-19.005zm16.196-1.8179q0 13.882-4.2969 24.79-4.1316 10.907-11.403 18.51-7.1064 7.4369-16.692 11.403-9.5853 3.9664-20.493 3.9664-12.56 0-21.98-3.9664-9.4201-4.1316-15.535-11.403-6.1148-7.4369-9.2548-17.683-2.9748-10.412-2.9748-23.137 0-13.882 4.1316-24.79 4.1316-10.907 11.238-18.344 7.2717-7.6022 16.857-11.569 9.7506-3.9664 20.658-3.9664 11.238 0 20.493 3.4706 9.2549 3.4706 15.7 10.577 6.6106 6.9411 10.081 17.683 3.4706 10.742 3.4706 24.459z" style="white-space:pre"/><path d="m9870.2 320.03q0-10.081-6.28-14.378-6.1148-4.2969-18.344-4.2969-2.8095 0-5.2885 0.16527-2.479 0-4.7927 0.16526v38.011q1.3222 0.16527 3.6359 0.33053 2.4789 0 5.7842 0 12.064 0 18.675-5.4537 6.6106-5.619 6.6106-14.543zm3.8011 81.145-36.524-50.075h-1.9832v50.075h-15.204v-111.55q5.7843-0.33053 12.23-0.4958 6.4453-0.16526 15.7-0.16526 8.2633 0 15.204 1.6526 6.9411 1.4874 11.899 4.958 5.1233 3.4706 7.9328 9.0896 2.8095 5.4537 2.8095 13.386 0 7.1064-2.6443 12.725-2.6442 5.619-7.1064 9.5854-4.4621 3.9664-10.412 6.2801-5.9496 2.3137-12.56 2.8095 2.3137 2.9748 4.7927 6.1148 2.6442 2.9748 4.7927 5.7843l30.409 39.829z" style="white-space:pre"/><path d="m9936.8 302.34v98.828h-15.204v-98.828h-32.061v-12.725h79.492v12.725z" style="white-space:pre"/><path d="m10015 401.17v-13.386h28.922v-78.997l-26.443 10.412-2.644-13.882 32.557-11.569h11.899v94.036h25.451v13.386z" style="white-space:pre"/><path d="m10156 367.46q0-9.5854-5.453-15.535-5.289-6.1148-15.866-6.1148-5.288 0-9.42 1.9832-3.966 1.8179-6.776 4.7927-2.809 2.9748-4.297 6.6106-1.487 3.6358-1.487 7.1064 0 4.9579 1.322 9.4201 1.488 4.4622 4.297 7.7674 2.975 3.3053 7.106 5.2885 4.297 1.8179 9.751 1.8179 9.916 0 15.37-6.4453 5.453-6.4453 5.453-16.692zm15.205-2.479q0 8.5938-2.644 15.535-2.645 6.9411-7.603 11.899t-11.899 7.7674q-6.776 2.6442-15.204 2.6442-17.518 0-27.599-11.734-9.916-11.899-9.916-33.549 0-17.188 3.966-29.582 4.132-12.395 11.403-20.328 7.272-7.9327 17.353-11.569 10.081-3.8011 22.146-3.8011 2.644 0 5.288 0.16527 2.644 0 4.462 0.33053v13.056q-2.479-0.33053-5.123-0.49579-2.479-0.33053-5.784-0.33053-16.527 0-25.451 9.0896-8.924 8.9243-12.229 25.451-0.331 1.3221-0.827 3.4706-0.33 1.9832-0.661 4.6274h0.165q4.132-6.9411 11.073-10.412 7.107-3.6358 15.7-3.6358 8.098 0 14.213 2.479 6.28 2.479 10.412 6.7758 4.297 4.1316 6.445 9.9159 2.314 5.619 2.314 12.23z" style="white-space:pre"/></g><path d="m96.385 76.214c-5.8 1-10.7 4.9-12.9 10.4-1.4 3.2-2.8 6.5-3.8 9.8-2.4 7.4-8.2 13.3-15.5 15.8-3.8 1.4-7.6 3-11.2 4.7-10.9 4.9-11.2 17.2-6.5 24.2 3 4.1 6.6 7.5 10.8 10.3 2.5 1.8 5.1 3.7 7.7 5.4 8.6 5.5 14.3 14.5 15.5 24.7 0.7 4.4 1.8 8.7 3.1 12.9 0.8 2.2 1.8 4.3 3.2 6.2 0.9 1.2 1.4 2.6 1.3 4.1v47.4l-0.5 0.2c-1.2-2.2-2.3-4.5-3.2-6.8-2.6-8.4-5.4-16.8-7.3-25.5-3.6-17.4-12.4-33.2-25.2-45.4-9.9-9.4-20.1-18.1-30.1-27.1-7-5.8-12.9-12.9-17.2-20.9-6.4-12.6-6.1-27.5 0.9-39.7 5.1-8.9 11.7-16.8 19.5-23.6 12.2-10.7 25-20.8 38.3-30.2l0.4 0.2c9.5 15.7 22.7 27.7 37.2 38.3 11.2 8.2 22.8 15.8 34.3 23.7 16 10.4 31.1 22.1 45.4 34.8 9.8 8.8 18.3 18.8 25.5 29.8 15.3 24.3 14.5 48.9 0.4 73.3-8.8 15.3-22 26.2-37.1 35-19.2 11-40.4 18.3-62.4 21.3-3.3 0.5-6.7 0.8-10 1.1-0.2 0-0.4-0.1-0.6-0.2z" fill="#015"/><path d="m267.69 59.514h30.5c-0.4 21.8 0.7 43.5-0.9 65.6 1.1-1.4 2.1-2.6 3.1-3.8 6.4-6.8 15.1-11 24.4-11.6 8.9-1.1 17.9 0.6 25.7 4.9 8.6 5.1 14.9 13.4 17.3 23.2 5.6 18.1 4.8 37.7-2.4 55.3-7 17.9-23.2 30.5-42.2 32.8-18.1 2.5-36.5 1.1-54-4-1.1-0.3-1.6-0.8-1.5-1.9zm30.1 123.8h0.3v15.7c0 1.3 0.4 2 1.7 2.2 2.4 0.3 4.8 0.9 7.2 1.1 5.4 0.7 10.9 0.1 16.1-1.8 8.2-3.4 12.3-10.1 14.5-18.3 2.1-8.2 2.6-16.8 1.5-25.2-0.6-4.4-1.7-8.8-3.3-13-1.6-4.4-5.3-7.7-9.9-8.7-6-1.5-12.4 0.2-16.8 4.5-5.9 5.8-9.4 13.5-10 21.7-1 7.2-1 14.6-1.3 21.8z" fill="#015"/><path d="m432.89 111.81h30.1v72.4c0 2.4 0.2 4.9 0.7 7.3 1.4 7.1 5.6 10.2 12.7 9.9 7.8-0.3 13.2-4.5 17.5-10.6 4.2-6 6.5-13 6.7-20.3 0.4-13.3 0.3-26.6 0.3-39.9v-18.7h30.2v112.8h-28.1v-15.7c-1.4 1.6-2.8 3.4-4.3 5-9.4 9.9-21.1 13.5-34.4 13-4.9-0.1-9.8-1.1-14.4-3.1-9.5-4.3-14.3-12-16.2-21.8-0.6-3.4-1-6.8-1-10.2v-77.3z" fill="#015"/><path d="m643.99 174.21h-68.5c-2.5 13 6 25.4 19 27.9 0.2 0 0.4 0.1 0.6 0.1 13.2 2 26.8 0.4 39.2-4.5l3.7-1.4c0.5 3.5 1.1 6.8 1.5 10.2 0.6 3.9 1.1 7.8 1.7 11.7 0.1 1 0.1 1.7-1.1 2.1-18.7 6.3-37.7 9.1-57.3 5.1-19.9-4-32.2-16.3-36.4-36.1-3.6-16.6-3.4-33.2 3.6-49 8.4-18.8 23-29.1 43.6-30.8 7.2-0.6 14.5 0.1 21.5 2.1 16.4 4.8 25.4 16.2 28.9 32.6 1.8 9.9 1.8 20 0 30zm-29.1-20.8c0-7.6-1.5-14.4-8.4-18.4-6.1-3.8-13.9-3.8-20 0-6.9 4-9.6 10.7-10.8 18.4z" fill="#015"/><path d="m385.39 59.514h30.2v165.3h-30.2z" fill="#015"/><path d="m178.79 117.11c-4.4-3.5-8.4-7-12.9-10.1-16.8-12-34-23.8-51-35.7-2.4-1.7-4.8-3.3-7.2-5.1-0.6-0.5-1-1.1-1-1.9v-36.3c0-0.2 0.1-0.5 0.2-0.7 6.6-0.9 13.3-0.4 19.6 1.5 28.6 7.1 49.7 31.3 52.9 60.6 0.9 8.5 0.9 17.2-0.2 25.7-0.1 0.6-0.2 1.2-0.4 2z" fill="#015"/><path d="m80.485 257.01c-3.2-1.6-6-2.8-8.7-4.2-10.7-5.3-20-13.1-27.1-22.7-5.3-6.9-8.2-15.4-8.1-24.1 0.1-5.1 1.4-10.1 3.7-14.7 1.8-3.5 3.9-6.8 6.3-11.1 1 1.3 1.7 2.4 2.5 3.2 10.4 11 17.5 24.7 20.3 39.5 2.1 11.2 5.6 22.1 10.5 32.4 0.1 0.3 0.3 0.7 0.6 1.7z" fill="#015"/><path d="m97.485 58.614c-4.5-4.3-9.3-8.4-13.4-12.9-4.6-5.3-8.9-10.8-12.9-16.6-3-3.9-4.1-9-2.8-13.8 1.2-4 3.8-7.4 7.3-9.6 6-4 13-5.9 20-5.7 1.8 0 2.4 0.6 2.4 2.5v55.6z" fill="#015"/>
</svg>
