<svg height="236.48" version="1.1" viewBox="0 0 578.6 236.48" xmlns="http://www.w3.org/2000/svg">
 <defs>
  <clipPath id="b">
   <path d="m1391.8 306.14h-1400.3v-314.65h1400.3v314.65z"/>
  </clipPath>
  <clipPath id="d">
   <path d="m451.22 118.57h-40.19v-16.937h40.19v16.937z"/>
  </clipPath>
  <clipPath id="c">
   <path d="m0 297.63h1383.3v-297.63h-1383.3v297.63z"/>
  </clipPath>
  <clipPath id="e">
   <path d="m411.03 118.57h40.22v-17.03h-40.22v17.03"/>
  </clipPath>
  <clipPath id="f">
   <path d="m411.03 118.57v-16.697h40.19v16.697h-40.19"/>
  </clipPath>
  <linearGradient id="a" x1="441.99" x2="450.69" gradientUnits="userSpaceOnUse">
   <stop stop-color="#760c04" offset="0"/>
   <stop stop-color="#d60c12" offset="1"/>
  </linearGradient>
 </defs>
 <g transform="translate(-224.03 -395.04)">
  <g transform="matrix(14.783 0 0 -14.783 -5860.1 2139.9)">
   <g clip-path="url(#d)">
    <g clip-path="url(#e)">
     <g clip-path="url(#f)">
      <g clip-path="url(#b)">
       <g clip-path="url(#c)">
        <path transform="translate(416.86 118.03)" d="m0 0h4.109l0.024-15.87-4.532 9e-3c0.201 0.497 0.39 1.011 0.535 1.488 0.856 2.826-1.134 3.739 0.699 7.058 1.59 0.307 2.215 1.774 1.989 2.889l7e-3 0.357c-0.101 0.071-0.174 0.105-0.256 0.189-0.911 0.931-1.964 1.73-2.575 3.88m-4.643 0h3.684c0.114-1.808 0.856-3.022 1.532-3.88 0.074-0.094 0.153-0.12 0.255-0.189l-7e-3 -0.357c0.227-1.115-0.395-2.583-1.985-2.891-0.948-2.707 0.817-3.501 0.734-5.773-0.046-1.26-0.231-1.873-0.474-2.771h-4.394v15.861h0.655" fill="#d60c12" fill-rule="evenodd"/>
       </g>
      </g>
     </g>
    </g>
   </g>
   <path d="m441.2 103.44v-1.273h-2.932v6.397h2.827v-1.273h-1.131v-1.216h1.057v-1.215h-1.057v-1.42h1.236zm-5.057 5.124h1.697v-6.397h-1.697v6.397zm-2.159 0h1.785l-0.865-6.397h-2.553l-0.985 6.397h1.785c0.202-1.762 0.349-3.256 0.439-4.484 0.089 1.241 0.185 2.339 0.289 3.295l0.105 1.189zm-4.49-4.582c0-0.376-0.015-0.615-0.047-0.714-0.033-0.1-0.103-0.15-0.218-0.15-0.11 0-0.18 0.043-0.211 0.13-0.03 0.087-0.044 0.316-0.044 0.688v2.983c0 0.327 0.023 0.526 0.069 0.592 0.045 0.068 0.112 0.101 0.199 0.101 0.102 0 0.17-0.041 0.203-0.124 0.032-0.083 0.049-0.273 0.049-0.569v-2.937zm1.347 4.04c-0.169 0.224-0.393 0.391-0.669 0.503-0.278 0.112-0.589 0.168-0.937 0.168-0.368 0-0.69-0.059-0.966-0.178-0.275-0.118-0.493-0.287-0.656-0.509-0.162-0.221-0.259-0.465-0.289-0.732-0.031-0.268-0.047-0.723-0.047-1.364v-1.093c0-0.659 0.017-1.12 0.049-1.383 0.031-0.263 0.133-0.507 0.302-0.73 0.168-0.224 0.39-0.392 0.668-0.504 0.277-0.112 0.59-0.167 0.939-0.167 0.366 0 0.688 0.059 0.962 0.177 0.278 0.119 0.496 0.289 0.658 0.509 0.161 0.222 0.259 0.465 0.288 0.733 0.032 0.267 0.048 0.722 0.048 1.365v1.093c0 0.658-0.016 1.118-0.049 1.382-0.033 0.263-0.132 0.507-0.301 0.73zm-6.209 0.54h2.198v-6.397h-1.472l-7e-3 4.318-0.589-4.318h-1.041l-0.617 4.23-8e-3 -4.23h-1.473v6.397h2.184c0.057-0.385 0.124-0.838 0.201-1.358l0.241-1.629 0.383 2.987zm16.461 0.644h-3.925v8.819h3.776v-1.752h-1.554v-1.66h1.452v-1.691h-1.452v-1.938h1.703v-1.778zm-4.855 0.682c-0.219-0.285-0.506-0.502-0.863-0.65-0.358-0.148-0.778-0.221-1.263-0.221-0.537 0-1.01 0.087-1.421 0.262-0.412 0.175-0.718 0.403-0.923 0.683-0.203 0.28-0.323 0.577-0.359 0.888-0.038 0.312-0.056 0.967-0.056 1.965v5.21h2.34v-6.605c0-0.387 0.02-0.634 0.063-0.741 0.042-0.108 0.127-0.161 0.256-0.161 0.147 0 0.241 0.059 0.284 0.177 0.042 0.119 0.063 0.398 0.063 0.839v6.491h2.339v-5.887c0-0.671-0.022-1.141-0.066-1.413s-0.176-0.55-0.394-0.837zm-5.08-0.682h-3.747v8.819h2.34v-7.04h1.407v-1.778zm-6.518 5.548c-0.061-0.11-0.206-0.165-0.433-0.165-0.054 0-0.13-2e-3 -0.229-5e-3v1.952c0.237-4e-3 0.397-0.02 0.479-0.049 0.081-0.029 0.148-0.099 0.2-0.209 0.051-0.11 0.076-0.303 0.076-0.578 0-0.52-0.03-0.835-0.093-0.946zm0.093-3.206c0-0.358-0.045-0.582-0.134-0.673-0.09-0.092-0.296-0.142-0.621-0.153v2.477c0.343-0.011 0.555-0.057 0.634-0.137 0.081-0.08 0.121-0.31 0.121-0.688v-0.826zm0.953 2.445c0.485 0.109 0.811 0.265 0.977 0.469 0.164 0.203 0.247 0.562 0.247 1.078 0 0.762-0.117 1.316-0.35 1.659s-0.539 0.545-0.918 0.657-0.937 0.169-1.673 0.169h-2.331v-8.819h2.701c0.938 0 1.56 0.053 1.863 0.159s0.524 0.303 0.663 0.592c0.139 0.288 0.208 0.731 0.208 1.33v0.822c0 0.578-0.095 1-0.289 1.284-0.192 0.279-0.558 0.48-1.098 0.6" fill="#004a91"/>
   <path d="m444.98 113.43h-2.845s0 1.826 0.488 2.676c0.488 0.849 1.487 2.06 4.04 1.911 2.548-0.149 3.44-1.316 3.716-3.462 0.277-2.144-0.722-3.61-1.89-3.992 0.659-0.149 2.443-0.552 2.188-4.396s-3.501-4.03-4.256-4.03c-0.756 0-4.685-0.191-4.409 4.948 1.487 0 3.101-0.042 3.101-0.042s-0.149-2.506 1.104-2.506 1.253 1.04 1.274 2.336c0.021 1.295-0.191 1.784-0.425 2.02-0.233 0.234-0.785 0.425-2.038 0.383v2.378s0.764-0.106 1.189-0.021 1.104 0.403 1.083 2.208c-0.021 1.806-0.637 1.827-1.062 1.848-0.424 0.021-1.168-0.021-1.253-2.251" fill="url(#a)"/>
  </g>
 </g>
</svg>
