<svg width="802.96" height="401.19" enable-background="new 0 0 800 402.8" version="1.1" viewBox="0 0 802.96 401.19" xml:space="preserve" xmlns="http://www.w3.org/2000/svg">
<g transform="translate(-13635 .014294)" fill="#015"><path d="m13965 321.51q0 8.4285-2.975 15.535-2.975 6.9411-8.428 11.899-5.454 4.9579-13.222 7.7674-7.767 2.6442-17.683 2.6442-2.148 0-4.462 0-2.314-0.16527-5.784-0.49579v42.308h-15.205v-111.55q6.28-0.33053 13.222-0.4958 7.106-0.16526 14.708-0.16526 19.171 0 29.417 8.9243 10.412 8.759 10.412 23.633zm-15.7 1.9832q0-10.577-6.28-16.196-6.28-5.7843-19.502-5.7843-3.14 0-5.949 0.16526-2.81 0-5.123 0.16527v43.96q2.974 0.49579 6.114 0.82632 3.141 0.16527 5.454 0.16527 12.891-0.16527 19.006-6.4453 6.28-6.2801 6.28-16.857z" style="white-space:pre"/><path d="m14028 320.03q0-10.081-6.28-14.378-6.115-4.2969-18.344-4.2969-2.81 0-5.289 0.16527-2.479 0-4.792 0.16526v38.011q1.322 0.16527 3.635 0.33053 2.479 0 5.785 0 12.064 0 18.675-5.4537 6.61-5.619 6.61-14.543zm3.801 81.145-36.523-50.075h-1.983v50.075h-15.205v-111.55q5.785-0.33053 12.23-0.4958 6.445-0.16526 15.7-0.16526 8.263 0 15.204 1.6526 6.941 1.4874 11.899 4.958 5.124 3.4706 7.933 9.0896 2.81 5.4537 2.81 13.386 0 7.1064-2.645 12.725-2.644 5.619-7.106 9.5854t-10.412 6.2801q-5.949 2.3137-12.56 2.8095 2.314 2.9748 4.793 6.1148 2.644 2.9748 4.793 5.7843l30.408 39.829z" style="white-space:pre"/><path d="m14065 401.17v-111.55h15.204v111.55z" style="white-space:pre"/><path d="m14212 401.17-9.42-64.619q-1.323-9.7506-2.149-16.526-0.826-6.7759-1.322-11.734h-0.331q-0.826 3.6358-2.148 8.5938t-3.636 12.395l-23.798 71.89h-16.196l-22.641-67.263q-2.314-6.9411-4.132-13.221-1.652-6.2801-2.975-12.395h-0.33q-0.331 6.2801-1.157 13.717-0.661 7.2716-1.818 15.865l-7.602 63.296h-15.535l16.361-111.55h18.51l23.633 70.403q1.487 4.4622 3.14 10.246 1.652 5.619 3.305 11.899h0.165q1.488-5.7843 2.81-10.742 1.487-4.958 3.305-10.412l24.129-71.394h18.84l16.857 111.55z" style="white-space:pre"/><path d="m14243 401.17v-111.55h57.347v12.56h-42.142v35.367h40.159v12.23h-40.159v38.672h42.142v12.725z" style="white-space:pre"/><path d="m14419 401.17-28.426-46.109-28.26 46.109h-17.683l36.689-57.512-34.375-54.042h17.518l26.442 42.638 25.947-42.638h17.187l-33.879 53.546 37.845 58.008z" style="white-space:pre"/></g><path d="m96.385 76.214c-5.8 1-10.7 4.9-12.9 10.4-1.4 3.2-2.8 6.5-3.8 9.8-2.4 7.4-8.2 13.3-15.5 15.8-3.8 1.4-7.6 3-11.2 4.7-10.9 4.9-11.2 17.2-6.5 24.2 3 4.1 6.6 7.5 10.8 10.3 2.5 1.8 5.1 3.7 7.7 5.4 8.6 5.5 14.3 14.5 15.5 24.7 0.7 4.4 1.8 8.7 3.1 12.9 0.8 2.2 1.8 4.3 3.2 6.2 0.9 1.2 1.4 2.6 1.3 4.1v47.4l-0.5 0.2c-1.2-2.2-2.3-4.5-3.2-6.8-2.6-8.4-5.4-16.8-7.3-25.5-3.6-17.4-12.4-33.2-25.2-45.4-9.9-9.4-20.1-18.1-30.1-27.1-7-5.8-12.9-12.9-17.2-20.9-6.4-12.6-6.1-27.5 0.9-39.7 5.1-8.9 11.7-16.8 19.5-23.6 12.2-10.7 25-20.8 38.3-30.2l0.4 0.2c9.5 15.7 22.7 27.7 37.2 38.3 11.2 8.2 22.8 15.8 34.3 23.7 16 10.4 31.1 22.1 45.4 34.8 9.8 8.8 18.3 18.8 25.5 29.8 15.3 24.3 14.5 48.9 0.4 73.3-8.8 15.3-22 26.2-37.1 35-19.2 11-40.4 18.3-62.4 21.3-3.3 0.5-6.7 0.8-10 1.1-0.2 0-0.4-0.1-0.6-0.2z" fill="#015"/><path d="m267.69 59.514h30.5c-0.4 21.8 0.7 43.5-0.9 65.6 1.1-1.4 2.1-2.6 3.1-3.8 6.4-6.8 15.1-11 24.4-11.6 8.9-1.1 17.9 0.6 25.7 4.9 8.6 5.1 14.9 13.4 17.3 23.2 5.6 18.1 4.8 37.7-2.4 55.3-7 17.9-23.2 30.5-42.2 32.8-18.1 2.5-36.5 1.1-54-4-1.1-0.3-1.6-0.8-1.5-1.9zm30.1 123.8h0.3v15.7c0 1.3 0.4 2 1.7 2.2 2.4 0.3 4.8 0.9 7.2 1.1 5.4 0.7 10.9 0.1 16.1-1.8 8.2-3.4 12.3-10.1 14.5-18.3 2.1-8.2 2.6-16.8 1.5-25.2-0.6-4.4-1.7-8.8-3.3-13-1.6-4.4-5.3-7.7-9.9-8.7-6-1.5-12.4 0.2-16.8 4.5-5.9 5.8-9.4 13.5-10 21.7-1 7.2-1 14.6-1.3 21.8z" fill="#015"/><path d="m432.89 111.81h30.1v72.4c0 2.4 0.2 4.9 0.7 7.3 1.4 7.1 5.6 10.2 12.7 9.9 7.8-0.3 13.2-4.5 17.5-10.6 4.2-6 6.5-13 6.7-20.3 0.4-13.3 0.3-26.6 0.3-39.9v-18.7h30.2v112.8h-28.1v-15.7c-1.4 1.6-2.8 3.4-4.3 5-9.4 9.9-21.1 13.5-34.4 13-4.9-0.1-9.8-1.1-14.4-3.1-9.5-4.3-14.3-12-16.2-21.8-0.6-3.4-1-6.8-1-10.2v-77.3z" fill="#015"/><path d="m643.99 174.21h-68.5c-2.5 13 6 25.4 19 27.9 0.2 0 0.4 0.1 0.6 0.1 13.2 2 26.8 0.4 39.2-4.5l3.7-1.4c0.5 3.5 1.1 6.8 1.5 10.2 0.6 3.9 1.1 7.8 1.7 11.7 0.1 1 0.1 1.7-1.1 2.1-18.7 6.3-37.7 9.1-57.3 5.1-19.9-4-32.2-16.3-36.4-36.1-3.6-16.6-3.4-33.2 3.6-49 8.4-18.8 23-29.1 43.6-30.8 7.2-0.6 14.5 0.1 21.5 2.1 16.4 4.8 25.4 16.2 28.9 32.6 1.8 9.9 1.8 20 0 30zm-29.1-20.8c0-7.6-1.5-14.4-8.4-18.4-6.1-3.8-13.9-3.8-20 0-6.9 4-9.6 10.7-10.8 18.4z" fill="#015"/><path d="m385.39 59.514h30.2v165.3h-30.2z" fill="#015"/><path d="m178.79 117.11c-4.4-3.5-8.4-7-12.9-10.1-16.8-12-34-23.8-51-35.7-2.4-1.7-4.8-3.3-7.2-5.1-0.6-0.5-1-1.1-1-1.9v-36.3c0-0.2 0.1-0.5 0.2-0.7 6.6-0.9 13.3-0.4 19.6 1.5 28.6 7.1 49.7 31.3 52.9 60.6 0.9 8.5 0.9 17.2-0.2 25.7-0.1 0.6-0.2 1.2-0.4 2z" fill="#015"/><path d="m80.485 257.01c-3.2-1.6-6-2.8-8.7-4.2-10.7-5.3-20-13.1-27.1-22.7-5.3-6.9-8.2-15.4-8.1-24.1 0.1-5.1 1.4-10.1 3.7-14.7 1.8-3.5 3.9-6.8 6.3-11.1 1 1.3 1.7 2.4 2.5 3.2 10.4 11 17.5 24.7 20.3 39.5 2.1 11.2 5.6 22.1 10.5 32.4 0.1 0.3 0.3 0.7 0.6 1.7z" fill="#015"/><path d="m97.485 58.614c-4.5-4.3-9.3-8.4-13.4-12.9-4.6-5.3-8.9-10.8-12.9-16.6-3-3.9-4.1-9-2.8-13.8 1.2-4 3.8-7.4 7.3-9.6 6-4 13-5.9 20-5.7 1.8 0 2.4 0.6 2.4 2.5v55.6z" fill="#015"/>
</svg>
