<svg width="684.89" height="402.83" enable-background="new 0 0 800 402.8" version="1.1" viewBox="0 0 684.89 402.83" xml:space="preserve" xmlns="http://www.w3.org/2000/svg">
<path d="m96.385 76.214c-5.8 1-10.7 4.9-12.9 10.4-1.4 3.2-2.8 6.5-3.8 9.8-2.4 7.4-8.2 13.3-15.5 15.8-3.8 1.4-7.6 3-11.2 4.7-10.9 4.9-11.2 17.2-6.5 24.2 3 4.1 6.6 7.5 10.8 10.3 2.5 1.8 5.1 3.7 7.7 5.4 8.6 5.5 14.3 14.5 15.5 24.7 0.7 4.4 1.8 8.7 3.1 12.9 0.8 2.2 1.8 4.3 3.2 6.2 0.9 1.2 1.4 2.6 1.3 4.1v47.4l-0.5 0.2c-1.2-2.2-2.3-4.5-3.2-6.8-2.6-8.4-5.4-16.8-7.3-25.5-3.6-17.4-12.4-33.2-25.2-45.4-9.9-9.4-20.1-18.1-30.1-27.1-7-5.8-12.9-12.9-17.2-20.9-6.4-12.6-6.1-27.5 0.9-39.7 5.1-8.9 11.7-16.8 19.5-23.6 12.2-10.7 25-20.8 38.3-30.2l0.4 0.2c9.5 15.7 22.7 27.7 37.2 38.3 11.2 8.2 22.8 15.8 34.3 23.7 16 10.4 31.1 22.1 45.4 34.8 9.8 8.8 18.3 18.8 25.5 29.8 15.3 24.3 14.5 48.9 0.4 73.3-8.8 15.3-22 26.2-37.1 35-19.2 11-40.4 18.3-62.4 21.3-3.3 0.5-6.7 0.8-10 1.1-0.2 0-0.4-0.1-0.6-0.2z" fill="#015"/><path d="m267.69 59.514h30.5c-0.4 21.8 0.7 43.5-0.9 65.6 1.1-1.4 2.1-2.6 3.1-3.8 6.4-6.8 15.1-11 24.4-11.6 8.9-1.1 17.9 0.6 25.7 4.9 8.6 5.1 14.9 13.4 17.3 23.2 5.6 18.1 4.8 37.7-2.4 55.3-7 17.9-23.2 30.5-42.2 32.8-18.1 2.5-36.5 1.1-54-4-1.1-0.3-1.6-0.8-1.5-1.9zm30.1 123.8h0.3v15.7c0 1.3 0.4 2 1.7 2.2 2.4 0.3 4.8 0.9 7.2 1.1 5.4 0.7 10.9 0.1 16.1-1.8 8.2-3.4 12.3-10.1 14.5-18.3 2.1-8.2 2.6-16.8 1.5-25.2-0.6-4.4-1.7-8.8-3.3-13-1.6-4.4-5.3-7.7-9.9-8.7-6-1.5-12.4 0.2-16.8 4.5-5.9 5.8-9.4 13.5-10 21.7-1 7.2-1 14.6-1.3 21.8z" fill="#015"/><path d="m432.89 111.81h30.1v72.4c0 2.4 0.2 4.9 0.7 7.3 1.4 7.1 5.6 10.2 12.7 9.9 7.8-0.3 13.2-4.5 17.5-10.6 4.2-6 6.5-13 6.7-20.3 0.4-13.3 0.3-26.6 0.3-39.9v-18.7h30.2v112.8h-28.1v-15.7c-1.4 1.6-2.8 3.4-4.3 5-9.4 9.9-21.1 13.5-34.4 13-4.9-0.1-9.8-1.1-14.4-3.1-9.5-4.3-14.3-12-16.2-21.8-0.6-3.4-1-6.8-1-10.2v-77.3z" fill="#015"/><path d="m643.99 174.21h-68.5c-2.5 13 6 25.4 19 27.9 0.2 0 0.4 0.1 0.6 0.1 13.2 2 26.8 0.4 39.2-4.5l3.7-1.4c0.5 3.5 1.1 6.8 1.5 10.2 0.6 3.9 1.1 7.8 1.7 11.7 0.1 1 0.1 1.7-1.1 2.1-18.7 6.3-37.7 9.1-57.3 5.1-19.9-4-32.2-16.3-36.4-36.1-3.6-16.6-3.4-33.2 3.6-49 8.4-18.8 23-29.1 43.6-30.8 7.2-0.6 14.5 0.1 21.5 2.1 16.4 4.8 25.4 16.2 28.9 32.6 1.8 9.9 1.8 20 0 30zm-29.1-20.8c0-7.6-1.5-14.4-8.4-18.4-6.1-3.8-13.9-3.8-20 0-6.9 4-9.6 10.7-10.8 18.4z" fill="#015"/><path d="m385.39 59.514h30.2v165.3h-30.2z" fill="#015"/><path d="m178.79 117.11c-4.4-3.5-8.4-7-12.9-10.1-16.8-12-34-23.8-51-35.7-2.4-1.7-4.8-3.3-7.2-5.1-0.6-0.5-1-1.1-1-1.9v-36.3c0-0.2 0.1-0.5 0.2-0.7 6.6-0.9 13.3-0.4 19.6 1.5 28.6 7.1 49.7 31.3 52.9 60.6 0.9 8.5 0.9 17.2-0.2 25.7-0.1 0.6-0.2 1.2-0.4 2z" fill="#015"/><path d="m80.485 257.01c-3.2-1.6-6-2.8-8.7-4.2-10.7-5.3-20-13.1-27.1-22.7-5.3-6.9-8.2-15.4-8.1-24.1 0.1-5.1 1.4-10.1 3.7-14.7 1.8-3.5 3.9-6.8 6.3-11.1 1 1.3 1.7 2.4 2.5 3.2 10.4 11 17.5 24.7 20.3 39.5 2.1 11.2 5.6 22.1 10.5 32.4 0.1 0.3 0.3 0.7 0.6 1.7z" fill="#015"/><path d="m97.485 58.614c-4.5-4.3-9.3-8.4-13.4-12.9-4.6-5.3-8.9-10.8-12.9-16.6-3-3.9-4.1-9-2.8-13.8 1.2-4 3.8-7.4 7.3-9.6 6-4 13-5.9 20-5.7 1.8 0 2.4 0.6 2.4 2.5v55.6z" fill="#015"/>
<g transform="matrix(4.1318 0 0 4.1318 -212.56 -1646.7)" fill="#015" style="shape-inside:url(#rect872);white-space:pre" aria-label="RETRO"><path d="m127.23 475.99q0-2.44-1.52-3.48-1.48-1.04-4.44-1.04-0.68 0-1.28 0.04-0.6 0-1.16 0.04v9.2q0.32 0.04 0.88 0.08 0.6 0 1.4 0 2.92 0 4.52-1.32 1.6-1.36 1.6-3.52zm0.92 19.64-8.84-12.12h-0.48v12.12h-3.68v-27q1.4-0.08 2.96-0.12t3.8-0.04q2 0 3.68 0.4 1.68 0.36 2.88 1.2 1.24 0.84 1.92 2.2 0.68 1.32 0.68 3.24 0 1.72-0.64 3.08t-1.72 2.32-2.52 1.52-3.04 0.68q0.56 0.72 1.16 1.48 0.64 0.72 1.16 1.4l7.36 9.64z"/><path d="m136.21 495.63v-27h13.88v3.04h-10.2v8.56h9.72v2.96h-9.72v9.36h10.2v3.08z"/><path d="m163.5 471.71v23.92h-3.68v-23.92h-7.76v-3.08h19.24v3.08z"/><path d="m185.95 475.99q0-2.44-1.52-3.48-1.48-1.04-4.44-1.04-0.68 0-1.28 0.04-0.6 0-1.16 0.04v9.2q0.32 0.04 0.88 0.08 0.6 0 1.4 0 2.92 0 4.52-1.32 1.6-1.36 1.6-3.52zm0.92 19.64-8.84-12.12h-0.48v12.12h-3.68v-27q1.4-0.08 2.96-0.12t3.8-0.04q2 0 3.68 0.4 1.68 0.36 2.88 1.2 1.24 0.84 1.92 2.2 0.68 1.32 0.68 3.24 0 1.72-0.64 3.08t-1.72 2.32-2.52 1.52-3.04 0.68q0.56 0.72 1.16 1.48 0.64 0.72 1.16 1.4l7.36 9.64z"/><path d="m213.28 482.27q0-5.24-2.24-8-2.2-2.8-6.28-2.8-1.68 0-3.24 0.68-1.52 0.68-2.68 2t-1.88 3.28q-0.68 1.92-0.68 4.48 0 2.4 0.52 4.4t1.56 3.44 2.6 2.24q1.6 0.76 3.76 0.76 1.64 0 3.16-0.6 1.56-0.64 2.76-1.96 1.2-1.36 1.92-3.32 0.72-2 0.72-4.6zm3.92-0.44q0 3.36-1.04 6-1 2.64-2.76 4.48-1.72 1.8-4.04 2.76t-4.96 0.96q-3.04 0-5.32-0.96-2.28-1-3.76-2.76-1.48-1.8-2.24-4.28-0.72-2.52-0.72-5.6 0-3.36 1-6t2.72-4.44q1.76-1.84 4.08-2.8 2.36-0.96 5-0.96 2.72 0 4.96 0.84t3.8 2.56q1.6 1.68 2.44 4.28t0.84 5.92z"/></g></svg>
