<svg width="647" height="402.67" enable-background="new 0 0 800 402.8" version="1.1" viewBox="0 0 647 402.67" xml:space="preserve" xmlns="http://www.w3.org/2000/svg">
<g transform="translate(-14774 .01428)" fill="#015"><path d="m15104 368.45q0 7.4369-2.974 13.717-2.975 6.2801-8.429 10.907-5.288 4.4622-12.89 7.1064-7.603 2.479-17.023 2.479-6.941 0-13.056-0.82632-6.114-0.82632-11.403-2.3137l1.818-14.543q5.289 2.1484 11.238 3.3053 5.95 1.1568 12.23 1.1568 4.792 0 9.089-0.99158 4.462-1.1569 7.768-3.3053 3.305-2.3137 5.288-5.9495t1.983-8.759q0-6.2801-3.801-9.9159-3.636-3.8011-9.255-6.4453-5.619-2.8095-12.229-5.1232-6.446-2.3137-12.065-5.7843-5.619-3.6358-9.42-9.0896-3.635-5.4537-3.635-14.378 0-6.9411 2.479-12.725 2.644-5.7843 7.602-9.9159 4.958-4.2969 12.229-6.6106 7.272-2.3137 16.692-2.3137 4.793 0 10.081 0.4958 5.289 0.49579 10.081 1.6526l-1.818 13.386q-4.462-1.3221-9.42-2.1484-4.958-0.82633-9.75-0.82633-11.404 0-17.023 4.7927-5.453 4.6274-5.453 12.56 0 5.9495 3.801 9.7506 3.801 3.6358 9.42 6.2801 5.619 2.6442 12.229 5.1232 6.776 2.3137 12.395 5.9495t9.42 9.0896q3.801 5.4537 3.801 14.213z" style="white-space:pre"/><path d="m15150 302.34v98.828h-15.204v-98.828h-32.061v-12.725h79.492v12.725z" style="white-space:pre"/><path d="m15221 321.18q-1.488-4.1316-2.644-7.7674-1.157-3.8011-2.149-7.4369h-0.33q-0.992 3.6358-2.149 7.4369t-2.479 7.4369l-15.039 42.143h39.664zm28.095 79.988-9.255-26.112h-47.431l-9.255 26.112h-15.535l40.49-111.55h17.188l40.82 111.55z" style="white-space:pre"/><path d="m15326 320.03q0-10.081-6.28-14.378-6.115-4.2969-18.344-4.2969-2.81 0-5.289 0.16527-2.479 0-4.793 0.16526v38.011q1.323 0.16527 3.636 0.33053 2.479 0 5.785 0 12.064 0 18.674-5.4537 6.611-5.619 6.611-14.543zm3.801 81.145-36.523-50.075h-1.984v50.075h-15.204v-111.55q5.784-0.33053 12.23-0.4958 6.445-0.16526 15.7-0.16526 8.263 0 15.204 1.6526 6.941 1.4874 11.899 4.958 5.123 3.4706 7.933 9.0896 2.809 5.4537 2.809 13.386 0 7.1064-2.644 12.725t-7.106 9.5854q-4.462 3.9664-10.412 6.2801-5.949 2.3137-12.56 2.8095 2.314 2.9748 4.793 6.1148 2.644 2.9748 4.792 5.7843l30.409 39.829z" style="white-space:pre"/><path d="m15421 368.45q0 7.4369-2.975 13.717-2.974 6.2801-8.428 10.907-5.289 4.4622-12.891 7.1064-7.602 2.479-17.022 2.479-6.941 0-13.056-0.82632t-11.403-2.3137l1.818-14.543q5.288 2.1484 11.238 3.3053 5.949 1.1568 12.229 1.1568 4.793 0 9.09-0.99158 4.462-1.1569 7.767-3.3053 3.306-2.3137 5.289-5.9495t1.983-8.759q0-6.2801-3.801-9.9159-3.636-3.8011-9.255-6.4453-5.619-2.8095-12.23-5.1232-6.445-2.3137-12.064-5.7843-5.619-3.6358-9.42-9.0896-3.636-5.4537-3.636-14.378 0-6.9411 2.479-12.725 2.644-5.7843 7.602-9.9159 4.958-4.2969 12.23-6.6106t16.692-2.3137q4.792 0 10.081 0.4958 5.288 0.49579 10.081 1.6526l-1.818 13.386q-4.462-1.3221-9.42-2.1484-4.958-0.82633-9.751-0.82633-11.403 0-17.022 4.7927-5.454 4.6274-5.454 12.56 0 5.9495 3.801 9.7506 3.802 3.6358 9.421 6.2801 5.619 2.6442 12.229 5.1232 6.776 2.3137 12.395 5.9495t9.42 9.0896q3.801 5.4537 3.801 14.213z" style="white-space:pre"/></g><path d="m96.385 76.214c-5.8 1-10.7 4.9-12.9 10.4-1.4 3.2-2.8 6.5-3.8 9.8-2.4 7.4-8.2 13.3-15.5 15.8-3.8 1.4-7.6 3-11.2 4.7-10.9 4.9-11.2 17.2-6.5 24.2 3 4.1 6.6 7.5 10.8 10.3 2.5 1.8 5.1 3.7 7.7 5.4 8.6 5.5 14.3 14.5 15.5 24.7 0.7 4.4 1.8 8.7 3.1 12.9 0.8 2.2 1.8 4.3 3.2 6.2 0.9 1.2 1.4 2.6 1.3 4.1v47.4l-0.5 0.2c-1.2-2.2-2.3-4.5-3.2-6.8-2.6-8.4-5.4-16.8-7.3-25.5-3.6-17.4-12.4-33.2-25.2-45.4-9.9-9.4-20.1-18.1-30.1-27.1-7-5.8-12.9-12.9-17.2-20.9-6.4-12.6-6.1-27.5 0.9-39.7 5.1-8.9 11.7-16.8 19.5-23.6 12.2-10.7 25-20.8 38.3-30.2l0.4 0.2c9.5 15.7 22.7 27.7 37.2 38.3 11.2 8.2 22.8 15.8 34.3 23.7 16 10.4 31.1 22.1 45.4 34.8 9.8 8.8 18.3 18.8 25.5 29.8 15.3 24.3 14.5 48.9 0.4 73.3-8.8 15.3-22 26.2-37.1 35-19.2 11-40.4 18.3-62.4 21.3-3.3 0.5-6.7 0.8-10 1.1-0.2 0-0.4-0.1-0.6-0.2z" fill="#015"/><path d="m267.69 59.514h30.5c-0.4 21.8 0.7 43.5-0.9 65.6 1.1-1.4 2.1-2.6 3.1-3.8 6.4-6.8 15.1-11 24.4-11.6 8.9-1.1 17.9 0.6 25.7 4.9 8.6 5.1 14.9 13.4 17.3 23.2 5.6 18.1 4.8 37.7-2.4 55.3-7 17.9-23.2 30.5-42.2 32.8-18.1 2.5-36.5 1.1-54-4-1.1-0.3-1.6-0.8-1.5-1.9zm30.1 123.8h0.3v15.7c0 1.3 0.4 2 1.7 2.2 2.4 0.3 4.8 0.9 7.2 1.1 5.4 0.7 10.9 0.1 16.1-1.8 8.2-3.4 12.3-10.1 14.5-18.3 2.1-8.2 2.6-16.8 1.5-25.2-0.6-4.4-1.7-8.8-3.3-13-1.6-4.4-5.3-7.7-9.9-8.7-6-1.5-12.4 0.2-16.8 4.5-5.9 5.8-9.4 13.5-10 21.7-1 7.2-1 14.6-1.3 21.8z" fill="#015"/><path d="m432.89 111.81h30.1v72.4c0 2.4 0.2 4.9 0.7 7.3 1.4 7.1 5.6 10.2 12.7 9.9 7.8-0.3 13.2-4.5 17.5-10.6 4.2-6 6.5-13 6.7-20.3 0.4-13.3 0.3-26.6 0.3-39.9v-18.7h30.2v112.8h-28.1v-15.7c-1.4 1.6-2.8 3.4-4.3 5-9.4 9.9-21.1 13.5-34.4 13-4.9-0.1-9.8-1.1-14.4-3.1-9.5-4.3-14.3-12-16.2-21.8-0.6-3.4-1-6.8-1-10.2v-77.3z" fill="#015"/><path d="m643.99 174.21h-68.5c-2.5 13 6 25.4 19 27.9 0.2 0 0.4 0.1 0.6 0.1 13.2 2 26.8 0.4 39.2-4.5l3.7-1.4c0.5 3.5 1.1 6.8 1.5 10.2 0.6 3.9 1.1 7.8 1.7 11.7 0.1 1 0.1 1.7-1.1 2.1-18.7 6.3-37.7 9.1-57.3 5.1-19.9-4-32.2-16.3-36.4-36.1-3.6-16.6-3.4-33.2 3.6-49 8.4-18.8 23-29.1 43.6-30.8 7.2-0.6 14.5 0.1 21.5 2.1 16.4 4.8 25.4 16.2 28.9 32.6 1.8 9.9 1.8 20 0 30zm-29.1-20.8c0-7.6-1.5-14.4-8.4-18.4-6.1-3.8-13.9-3.8-20 0-6.9 4-9.6 10.7-10.8 18.4z" fill="#015"/><path d="m385.39 59.514h30.2v165.3h-30.2z" fill="#015"/><path d="m178.79 117.11c-4.4-3.5-8.4-7-12.9-10.1-16.8-12-34-23.8-51-35.7-2.4-1.7-4.8-3.3-7.2-5.1-0.6-0.5-1-1.1-1-1.9v-36.3c0-0.2 0.1-0.5 0.2-0.7 6.6-0.9 13.3-0.4 19.6 1.5 28.6 7.1 49.7 31.3 52.9 60.6 0.9 8.5 0.9 17.2-0.2 25.7-0.1 0.6-0.2 1.2-0.4 2z" fill="#015"/><path d="m80.485 257.01c-3.2-1.6-6-2.8-8.7-4.2-10.7-5.3-20-13.1-27.1-22.7-5.3-6.9-8.2-15.4-8.1-24.1 0.1-5.1 1.4-10.1 3.7-14.7 1.8-3.5 3.9-6.8 6.3-11.1 1 1.3 1.7 2.4 2.5 3.2 10.4 11 17.5 24.7 20.3 39.5 2.1 11.2 5.6 22.1 10.5 32.4 0.1 0.3 0.3 0.7 0.6 1.7z" fill="#015"/><path d="m97.485 58.614c-4.5-4.3-9.3-8.4-13.4-12.9-4.6-5.3-8.9-10.8-12.9-16.6-3-3.9-4.1-9-2.8-13.8 1.2-4 3.8-7.4 7.3-9.6 6-4 13-5.9 20-5.7 1.8 0 2.4 0.6 2.4 2.5v55.6z" fill="#015"/>
</svg>
