<svg height="236.45" version="1.1" viewBox="0 0 531.54 236.45" xmlns="http://www.w3.org/2000/svg">
 <defs>
  <clipPath id="b">
   <path d="m1391.8 306.14h-1400.3v-314.65h1400.3v314.65z"/>
  </clipPath>
  <clipPath id="d">
   <path d="m411.03 208.91h37.11v-17.04h-37.11v17.04"/>
  </clipPath>
  <clipPath id="c">
   <path d="m448.07 208.91h-37.04v-16.95h37.04v16.95z"/>
  </clipPath>
  <clipPath id="e">
   <path d="m0 297.63h1383.3v-297.63h-1383.3v297.63z"/>
  </clipPath>
  <clipPath id="f">
   <path d="m411.03 208.91v-16.762h37.04v16.762h-37.04"/>
  </clipPath>
  <linearGradient id="a" x1="441.67" x2="447.54" gradientUnits="userSpaceOnUse">
   <stop stop-color="#760c04" offset="0"/>
   <stop stop-color="#d60c12" offset="1"/>
  </linearGradient>
 </defs>
 <g transform="translate(-107.29 -290.48)">
  <g transform="matrix(1.0295 0 0 1.0295 -3.161 -15.52)">
   <g transform="matrix(14.35 0 0 -14.35 -5798.4 3287.3)" clip-path="url(#c)">
    <g clip-path="url(#d)">
     <g clip-path="url(#f)">
      <g clip-path="url(#b)">
       <g clip-path="url(#e)">
        <path transform="translate(416.86 208.37)" d="m0 0h4.112l0.024-15.881-4.535 8e-3c0.201 0.498 0.39 1.012 0.535 1.49 0.857 2.827-1.135 3.741 0.7 7.063 1.591 0.307 2.216 1.775 1.99 2.891l7e-3 0.357c-0.101 0.071-0.173 0.105-0.256 0.189-0.912 0.932-1.965 1.732-2.577 3.883m-4.647 0h3.687c0.114-1.809 0.857-3.025 1.533-3.883 0.075-0.094 0.154-0.12 0.256-0.189l-7e-3 -0.357c0.227-1.116-0.396-2.585-1.987-2.893-0.948-2.71 0.818-3.504 0.735-5.777-0.046-1.262-0.231-1.875-0.474-2.774h-4.398v15.873h0.655" fill="#d60c12" fill-rule="evenodd"/>
       </g>
      </g>
     </g>
    </g>
   </g>
   <g transform="matrix(14.35 0 0 -14.35 -5798.4 3287.3)">
    <path d="m447.54 192.49h-3.229v11.02h-2.644v2.367h0.291c2.183 0 2.892 0.81 3.335 2.492h2.247v-15.878" fill="url(#a)"/>
    <path d="m441.22 193.77v-1.274h-2.934v6.402h2.829v-1.274h-1.132v-1.217h1.058v-1.215h-1.058v-1.422h1.237zm-5.061 5.128h1.698v-6.402h-1.698v6.402zm-2.16 0h1.786l-0.866-6.402h-2.554l-0.986 6.402h1.786c0.203-1.763 0.35-3.258 0.439-4.487 0.089 1.242 0.186 2.34 0.29 3.297l0.105 1.19zm-4.493-4.585c0-0.377-0.016-0.615-0.047-0.715-0.033-0.1-0.104-0.15-0.218-0.15-0.11 0-0.181 0.043-0.212 0.13-0.03 0.087-0.044 0.316-0.044 0.689v2.985c0 0.327 0.023 0.526 0.069 0.593s0.112 0.101 0.199 0.101c0.102 0 0.171-0.042 0.204-0.125 0.032-0.083 0.049-0.273 0.049-0.569v-2.939zm1.347 4.045c-0.169 0.224-0.393 0.391-0.669 0.503-0.278 0.112-0.59 0.168-0.938 0.168-0.369 0-0.691-0.059-0.966-0.177-0.276-0.119-0.494-0.288-0.657-0.51-0.162-0.221-0.259-0.466-0.289-0.733-0.031-0.268-0.047-0.723-0.047-1.365v-1.094c0-0.659 0.017-1.121 0.048-1.383 0.032-0.264 0.134-0.508 0.303-0.731 0.169-0.224 0.39-0.393 0.669-0.504 0.277-0.112 0.59-0.168 0.939-0.168 0.366 0 0.689 0.059 0.963 0.178 0.278 0.118 0.496 0.288 0.659 0.509 0.161 0.222 0.258 0.465 0.288 0.733 0.032 0.268 0.048 0.723 0.048 1.366v1.094c0 0.659-0.017 1.119-0.05 1.383-0.033 0.263-0.131 0.508-0.301 0.731zm-6.213 0.54h2.2v-6.402h-1.473l-8e-3 4.322-0.589-4.322h-1.041l-0.619 4.234-7e-3 -4.234h-1.474v6.402h2.185c0.057-0.385 0.124-0.838 0.202-1.359l0.241-1.63 0.383 2.989zm16.473 0.645h-3.928v8.825h3.779v-1.753h-1.555v-1.661h1.453v-1.692h-1.453v-1.94h1.704v-1.779zm-4.859 0.683c-0.219-0.286-0.506-0.503-0.864-0.651-0.357-0.148-0.778-0.222-1.263-0.222-0.537 0-1.012 0.088-1.422 0.263-0.412 0.174-0.719 0.403-0.923 0.683-0.204 0.281-0.324 0.578-0.36 0.889-0.038 0.312-0.056 0.968-0.056 1.966v5.214h2.341v-6.61c0-0.387 0.021-0.634 0.063-0.741 0.042-0.108 0.128-0.161 0.257-0.161 0.147 0 0.241 0.058 0.284 0.177 0.042 0.118 0.063 0.398 0.063 0.839v6.496h2.341v-5.891c0-0.671-0.022-1.143-0.066-1.415-0.044-0.271-0.176-0.55-0.395-0.836zm-5.083-0.683h-3.75v8.825h2.342v-7.05h1.408v-1.779zm-6.523 5.552c-0.061-0.11-0.206-0.165-0.433-0.165-0.055 0-0.131-3e-3 -0.229-6e-3v1.954c0.237-4e-3 0.397-0.02 0.479-0.049 0.081-0.029 0.148-0.099 0.2-0.209 0.051-0.11 0.076-0.303 0.076-0.578 0-0.522-0.03-0.836-0.093-0.947zm0.093-3.209c0-0.358-0.045-0.582-0.134-0.673-0.09-0.092-0.297-0.143-0.621-0.154v2.48c0.343-0.012 0.555-0.057 0.634-0.138 0.081-0.08 0.121-0.309 0.121-0.688v-0.827zm0.953 2.447c0.486 0.109 0.812 0.266 0.978 0.469 0.165 0.204 0.248 0.563 0.248 1.079 0 0.763-0.117 1.317-0.35 1.66-0.234 0.344-0.54 0.546-0.919 0.658-0.38 0.112-0.938 0.169-1.674 0.169h-2.333v-8.825h2.703c0.938 0 1.561 0.053 1.864 0.159 0.304 0.106 0.525 0.303 0.664 0.592 0.138 0.289 0.208 0.732 0.208 1.331v0.823c0 0.578-0.096 1.01-0.289 1.285-0.192 0.279-0.559 0.48-1.1 0.6" fill="#004a91"/>
   </g>
  </g>
 </g>
</svg>
