<svg width="884.39" height="402.84" enable-background="new 0 0 800 402.8" version="1.1" viewBox="0 0 884.39 402.84" xml:space="preserve" xmlns="http://www.w3.org/2000/svg">
<g transform="translate(-10624 .014293)" fill="#fff"><path d="m10954 368.45q0 7.4369-2.974 13.717-2.975 6.2801-8.429 10.907-5.288 4.4622-12.891 7.1064-7.602 2.479-17.022 2.479-6.941 0-13.056-0.82632t-11.403-2.3137l1.818-14.543q5.288 2.1484 11.238 3.3053 5.949 1.1568 12.23 1.1568 4.792 0 9.089-0.99158 4.462-1.1569 7.768-3.3053 3.305-2.3137 5.288-5.9495t1.983-8.759q0-6.2801-3.801-9.9159-3.636-3.8011-9.255-6.4453-5.619-2.8095-12.229-5.1232-6.446-2.3137-12.065-5.7843-5.619-3.6358-9.42-9.0896-3.636-5.4537-3.636-14.378 0-6.9411 2.479-12.725 2.645-5.7843 7.603-9.9159 4.958-4.2969 12.229-6.6106 7.272-2.3137 16.692-2.3137 4.793 0 10.081 0.4958 5.289 0.49579 10.081 1.6526l-1.818 13.386q-4.462-1.3221-9.42-2.1484-4.958-0.82633-9.75-0.82633-11.404 0-17.023 4.7927-5.453 4.6274-5.453 12.56 0 5.9495 3.801 9.7506 3.801 3.6358 9.42 6.2801 5.619 2.6442 12.229 5.1232 6.776 2.3137 12.395 5.9495t9.42 9.0896q3.801 5.4537 3.801 14.213z" style="white-space:pre"/><path d="m11037 321.51q0 8.4285-2.974 15.535-2.975 6.9411-8.429 11.899t-13.221 7.7674q-7.767 2.6442-17.683 2.6442-2.149 0-4.462 0-2.314-0.16527-5.785-0.49579v42.308h-15.204v-111.55q6.28-0.33053 13.221-0.4958 7.106-0.16526 14.709-0.16526 19.17 0 29.417 8.9243 10.411 8.759 10.411 23.633zm-15.7 1.9832q0-10.577-6.28-16.196-6.28-5.7843-19.501-5.7843-3.14 0-5.95 0.16526-2.809 0-5.123 0.16527v43.96q2.975 0.49579 6.115 0.82632 3.14 0.16527 5.454 0.16527 12.89-0.16527 19.005-6.4453 6.28-6.2801 6.28-16.857z" style="white-space:pre"/><path d="m11129 345.97q0-21.65-9.255-33.053-9.089-11.569-25.946-11.569-6.941 0-13.387 2.8095-6.28 2.8095-11.072 8.2632-4.793 5.4537-7.768 13.552-2.809 7.9327-2.809 18.51 0 9.9159 2.148 18.179 2.148 8.2632 6.445 14.213t10.743 9.2548q6.61 3.14 15.534 3.14 6.776 0 13.056-2.479 6.446-2.6442 11.404-8.098 4.958-5.619 7.932-13.717 2.975-8.2632 2.975-19.005zm16.196-1.8179q0 13.882-4.297 24.79-4.131 10.907-11.403 18.51-7.106 7.4369-16.692 11.403-9.585 3.9664-20.493 3.9664-12.56 0-21.98-3.9664-9.42-4.1316-15.535-11.403-6.115-7.4369-9.255-17.683-2.974-10.412-2.974-23.137 0-13.882 4.131-24.79 4.132-10.907 11.238-18.344 7.272-7.6022 16.857-11.569 9.751-3.9664 20.658-3.9664 11.238 0 20.493 3.4706t15.7 10.577q6.611 6.9411 10.081 17.683 3.471 10.742 3.471 24.459z" style="white-space:pre"/><path d="m11210 320.03q0-10.081-6.28-14.378-6.114-4.2969-18.344-4.2969-2.81 0-5.289 0.16527-2.479 0-4.792 0.16526v38.011q1.322 0.16527 3.636 0.33053 2.479 0 5.784 0 12.064 0 18.675-5.4537 6.61-5.619 6.61-14.543zm3.801 81.145-36.523-50.075h-1.983v50.075h-15.205v-111.55q5.785-0.33053 12.23-0.4958 6.445-0.16526 15.7-0.16526 8.263 0 15.205 1.6526 6.941 1.4874 11.899 4.958 5.123 3.4706 7.932 9.0896 2.81 5.4537 2.81 13.386 0 7.1064-2.644 12.725-2.645 5.619-7.107 9.5854t-10.411 6.2801q-5.95 2.3137-12.561 2.8095 2.314 2.9748 4.793 6.1148 2.644 2.9748 4.793 5.7843l30.408 39.829z" style="white-space:pre"/><path d="m11276 302.34v98.828h-15.204v-98.828h-32.061v-12.725h79.492v12.725z" style="white-space:pre"/><path d="m11354 401.17v-13.386h28.921v-78.997l-26.442 10.412-2.644-13.882 32.557-11.569h11.899v94.036h25.451v13.386z" style="white-space:pre"/><path d="m11493 375.06q0-4.4622-1.817-7.6022-1.818-3.3053-4.958-5.9495-2.975-2.6442-6.941-4.6274-3.967-2.1484-8.264-4.1316-3.966 2.1484-7.602 4.4622-3.47 2.3137-6.28 4.9579-2.644 2.6442-4.297 5.7843-1.653 2.9748-1.653 6.7758 0 6.9411 5.454 11.569 5.619 4.4622 16.031 4.4622 8.594 0 14.378-4.1316 5.949-4.1316 5.949-11.569zm-2.313-55.529q0-7.4369-5.123-11.403-5.124-4.1316-13.717-4.1316-8.759 0-13.552 4.4622-4.628 4.4622-4.628 10.742 0 3.3053 1.157 5.9495t3.471 4.9579q2.479 2.3137 6.115 4.4622 3.635 2.1484 8.593 4.6274 3.636-1.9832 6.776-4.1316 3.306-2.1484 5.619-4.4622 2.479-2.3137 3.801-4.9579 1.488-2.8095 1.488-6.1148zm17.848 54.042q0 6.7758-2.974 12.23-2.81 5.2885-7.768 9.0896t-11.899 5.9495q-6.776 1.9832-14.708 1.9832-8.098 0-14.709-1.8179-6.445-1.9832-11.073-5.4537-4.627-3.6358-7.271-8.5938-2.479-4.9579-2.479-11.073 0-5.1232 1.818-9.2548 1.983-4.2969 5.123-7.7674 3.14-3.4706 7.271-6.2801 4.297-2.9748 8.759-5.619-9.42-4.7927-14.873-10.907-5.454-6.2801-5.454-15.535 0-6.1148 2.479-11.238 2.479-5.2885 7.106-9.0896 4.628-3.8011 10.908-5.9495 6.445-2.1484 14.212-2.1484 7.768 0 13.883 1.9832 6.114 1.9832 10.246 5.4537 4.297 3.4706 6.445 8.2632 2.314 4.7927 2.314 10.412 0 4.6274-1.653 8.4285-1.652 3.8011-4.462 7.1064-2.809 3.14-6.61 5.9495-3.636 2.6442-7.768 5.1232 4.462 2.3137 8.594 4.9579t7.272 6.1148q3.305 3.3053 5.288 7.7674 1.983 4.2969 1.983 9.9159z" style="white-space:pre"/></g><path d="m96.385 76.214c-5.8 1-10.7 4.9-12.9 10.4-1.4 3.2-2.8 6.5-3.8 9.8-2.4 7.4-8.2 13.3-15.5 15.8-3.8 1.4-7.6 3-11.2 4.7-10.9 4.9-11.2 17.2-6.5 24.2 3 4.1 6.6 7.5 10.8 10.3 2.5 1.8 5.1 3.7 7.7 5.4 8.6 5.5 14.3 14.5 15.5 24.7 0.7 4.4 1.8 8.7 3.1 12.9 0.8 2.2 1.8 4.3 3.2 6.2 0.9 1.2 1.4 2.6 1.3 4.1v47.4l-0.5 0.2c-1.2-2.2-2.3-4.5-3.2-6.8-2.6-8.4-5.4-16.8-7.3-25.5-3.6-17.4-12.4-33.2-25.2-45.4-9.9-9.4-20.1-18.1-30.1-27.1-7-5.8-12.9-12.9-17.2-20.9-6.4-12.6-6.1-27.5 0.9-39.7 5.1-8.9 11.7-16.8 19.5-23.6 12.2-10.7 25-20.8 38.3-30.2l0.4 0.2c9.5 15.7 22.7 27.7 37.2 38.3 11.2 8.2 22.8 15.8 34.3 23.7 16 10.4 31.1 22.1 45.4 34.8 9.8 8.8 18.3 18.8 25.5 29.8 15.3 24.3 14.5 48.9 0.4 73.3-8.8 15.3-22 26.2-37.1 35-19.2 11-40.4 18.3-62.4 21.3-3.3 0.5-6.7 0.8-10 1.1-0.2 0-0.4-0.1-0.6-0.2z" fill="#fff"/><path d="m267.69 59.514h30.5c-0.4 21.8 0.7 43.5-0.9 65.6 1.1-1.4 2.1-2.6 3.1-3.8 6.4-6.8 15.1-11 24.4-11.6 8.9-1.1 17.9 0.6 25.7 4.9 8.6 5.1 14.9 13.4 17.3 23.2 5.6 18.1 4.8 37.7-2.4 55.3-7 17.9-23.2 30.5-42.2 32.8-18.1 2.5-36.5 1.1-54-4-1.1-0.3-1.6-0.8-1.5-1.9zm30.1 123.8h0.3v15.7c0 1.3 0.4 2 1.7 2.2 2.4 0.3 4.8 0.9 7.2 1.1 5.4 0.7 10.9 0.1 16.1-1.8 8.2-3.4 12.3-10.1 14.5-18.3 2.1-8.2 2.6-16.8 1.5-25.2-0.6-4.4-1.7-8.8-3.3-13-1.6-4.4-5.3-7.7-9.9-8.7-6-1.5-12.4 0.2-16.8 4.5-5.9 5.8-9.4 13.5-10 21.7-1 7.2-1 14.6-1.3 21.8z" fill="#fff"/><path d="m432.89 111.81h30.1v72.4c0 2.4 0.2 4.9 0.7 7.3 1.4 7.1 5.6 10.2 12.7 9.9 7.8-0.3 13.2-4.5 17.5-10.6 4.2-6 6.5-13 6.7-20.3 0.4-13.3 0.3-26.6 0.3-39.9v-18.7h30.2v112.8h-28.1v-15.7c-1.4 1.6-2.8 3.4-4.3 5-9.4 9.9-21.1 13.5-34.4 13-4.9-0.1-9.8-1.1-14.4-3.1-9.5-4.3-14.3-12-16.2-21.8-0.6-3.4-1-6.8-1-10.2v-77.3z" fill="#fff"/><path d="m643.99 174.21h-68.5c-2.5 13 6 25.4 19 27.9 0.2 0 0.4 0.1 0.6 0.1 13.2 2 26.8 0.4 39.2-4.5l3.7-1.4c0.5 3.5 1.1 6.8 1.5 10.2 0.6 3.9 1.1 7.8 1.7 11.7 0.1 1 0.1 1.7-1.1 2.1-18.7 6.3-37.7 9.1-57.3 5.1-19.9-4-32.2-16.3-36.4-36.1-3.6-16.6-3.4-33.2 3.6-49 8.4-18.8 23-29.1 43.6-30.8 7.2-0.6 14.5 0.1 21.5 2.1 16.4 4.8 25.4 16.2 28.9 32.6 1.8 9.9 1.8 20 0 30zm-29.1-20.8c0-7.6-1.5-14.4-8.4-18.4-6.1-3.8-13.9-3.8-20 0-6.9 4-9.6 10.7-10.8 18.4z" fill="#fff"/><path d="m385.39 59.514h30.2v165.3h-30.2z" fill="#fff"/><path d="m178.79 117.11c-4.4-3.5-8.4-7-12.9-10.1-16.8-12-34-23.8-51-35.7-2.4-1.7-4.8-3.3-7.2-5.1-0.6-0.5-1-1.1-1-1.9v-36.3c0-0.2 0.1-0.5 0.2-0.7 6.6-0.9 13.3-0.4 19.6 1.5 28.6 7.1 49.7 31.3 52.9 60.6 0.9 8.5 0.9 17.2-0.2 25.7-0.1 0.6-0.2 1.2-0.4 2z" fill="#fff"/><path d="m80.485 257.01c-3.2-1.6-6-2.8-8.7-4.2-10.7-5.3-20-13.1-27.1-22.7-5.3-6.9-8.2-15.4-8.1-24.1 0.1-5.1 1.4-10.1 3.7-14.7 1.8-3.5 3.9-6.8 6.3-11.1 1 1.3 1.7 2.4 2.5 3.2 10.4 11 17.5 24.7 20.3 39.5 2.1 11.2 5.6 22.1 10.5 32.4 0.1 0.3 0.3 0.7 0.6 1.7z" fill="#fff"/><path d="m97.485 58.614c-4.5-4.3-9.3-8.4-13.4-12.9-4.6-5.3-8.9-10.8-12.9-16.6-3-3.9-4.1-9-2.8-13.8 1.2-4 3.8-7.4 7.3-9.6 6-4 13-5.9 20-5.7 1.8 0 2.4 0.6 2.4 2.5v55.6z" fill="#fff"/>
</svg>
