<svg viewBox="0 0 531.5 205.86" xmlns="http://www.w3.org/2000/svg">
 <defs>
  <linearGradient id="e" x1="278.57" x2="274.05" y1="58.01" y2="61.67" gradientUnits="userSpaceOnUse">
   <stop stop-color="#fed892" offset="0"/>
   <stop stop-color="#fbb979" offset="1"/>
  </linearGradient>
  <linearGradient id="a" x1="269.21" x2="279.74" gradientUnits="userSpaceOnUse">
   <stop stop-color="#252058" offset="0"/>
   <stop stop-color="#2a2372" offset="1"/>
  </linearGradient>
  <linearGradient id="d" x1="250.48" x2="268.38" gradientUnits="userSpaceOnUse">
   <stop stop-color="#252058" offset="0"/>
   <stop stop-color="#2a2372" offset="1"/>
  </linearGradient>
  <linearGradient id="b" x1="256.49" x2="237.52" y1="41.3" y2="80.14" gradientUnits="userSpaceOnUse">
   <stop stop-color="#d37327" offset="0"/>
   <stop stop-color="#fbb979" offset="1"/>
  </linearGradient>
  <linearGradient id="c" x1="274.58" x2="269.42" y1="57.803" y2="61.983" gradientUnits="userSpaceOnUse">
   <stop stop-color="#fed892" offset="0"/>
   <stop stop-color="#fbb979" offset="1"/>
  </linearGradient>
 </defs>
 <g transform="translate(-183.99 -278.32)">
  <g transform="matrix(1.0469 0 0 1.0469 -8.625 -22.697)">
   <g transform="matrix(13.113 0 0 -13.113 -2976.5 1225)">
    <path d="m279.74 56.637h-10.534v14.858h10.534v-14.858z" fill="url(#a)"/>
    <path d="m268.38 57.816v-1.194h-2.681v5.999h2.585v-1.194h-1.035v-1.139h0.967v-1.14h-0.967v-1.332h1.131zm-4.624 4.805h1.551v-5.999h-1.551v5.999zm-1.974 0h1.632l-0.791-5.999h-2.334l-0.901 5.999h1.632c0.185-1.652 0.319-3.052 0.401-4.205 0.082 1.165 0.17 2.194 0.265 3.091l0.096 1.114zm-4.105-4.296c0-0.353-0.014-0.576-0.043-0.67-0.03-0.094-0.095-0.141-0.199-0.141-0.101 0-0.165 0.041-0.194 0.122-0.026 0.082-0.04 0.297-0.04 0.645v2.797c0 0.308 0.021 0.494 0.063 0.556 0.042 0.063 0.103 0.095 0.182 0.095 0.093 0 0.156-0.039 0.186-0.117s0.045-0.256 0.045-0.534v-2.753zm1.231 3.79c-0.154 0.21-0.359 0.367-0.611 0.472-0.254 0.105-0.539 0.157-0.857 0.157-0.337 0-0.631-0.055-0.883-0.166-0.252-0.112-0.451-0.27-0.6-0.478-0.148-0.207-0.236-0.436-0.264-0.686-0.029-0.251-0.043-0.678-0.043-1.28v-1.025c0-0.617 0.015-1.05 0.044-1.296 0.029-0.247 0.122-0.475 0.276-0.685 0.155-0.21 0.357-0.368 0.612-0.472 0.252-0.105 0.539-0.157 0.858-0.157 0.334 0 0.629 0.056 0.88 0.167 0.253 0.11 0.453 0.269 0.602 0.477 0.147 0.207 0.235 0.436 0.262 0.686 0.03 0.251 0.044 0.678 0.044 1.28v1.025c0 0.617-0.015 1.049-0.045 1.296s-0.12 0.476-0.275 0.685zm-5.676 0.506h2.01v-5.999h-1.347l-6e-3 4.05-0.538-4.05h-0.952l-0.565 3.967-7e-3 -3.967h-1.347v5.999h1.997c0.052-0.36 0.113-0.785 0.184-1.273l0.221-1.528 0.35 2.801zm15.05 0.605h-3.59v8.269h3.453v-1.642h-1.421v-1.558h1.327v-1.585h-1.327v-1.817h1.558v-1.667zm-4.439 0.639c-0.201-0.267-0.463-0.471-0.79-0.609-0.327-0.139-0.711-0.208-1.154-0.208-0.491 0-0.924 0.082-1.3 0.246s-0.656 0.378-0.843 0.64c-0.186 0.263-0.296 0.542-0.329 0.833-0.034 0.293-0.051 0.907-0.051 1.842v4.886h2.14v-6.194c0-0.362 0.018-0.594 0.057-0.694 0.038-0.101 0.117-0.151 0.234-0.151 0.135 0 0.22 0.055 0.26 0.166 0.039 0.111 0.057 0.373 0.057 0.786v6.087h2.139v-5.52c0-0.629-0.019-1.071-0.06-1.326-0.04-0.254-0.161-0.515-0.36-0.784zm-4.645-0.639h-3.426v8.269h2.14v-6.602h1.286v-1.667zm-5.96 5.202c-0.055-0.103-0.187-0.155-0.395-0.155-0.05 0-0.119-2e-3 -0.209-5e-3v1.831c0.216-4e-3 0.362-0.019 0.437-0.046s0.136-0.093 0.183-0.196 0.071-0.284 0.071-0.542c0-0.488-0.029-0.783-0.087-0.887zm0.087-3.01c0-0.335-0.042-0.545-0.124-0.631s-0.271-0.133-0.567-0.144v2.324c0.314-1e-3 0.507-0.054 0.579-0.129 0.074-0.075 0.112-0.29 0.112-0.645v-0.775zm0.87 2.293c0.443 0.102 0.741 0.249 0.893 0.44 0.15 0.19 0.226 0.527 0.226 1.01 0 0.714-0.106 1.234-0.319 1.555-0.214 0.323-0.493 0.511-0.84 0.616-0.347 0.106-0.856 0.159-1.529 0.159h-2.132v-8.269h2.469c0.858 0 1.427 0.049 1.704 0.149 0.277 0.099 0.479 0.283 0.607 0.554 0.126 0.271 0.189 0.686 0.189 1.248v0.771c0 0.541-0.087 0.942-0.264 1.204-0.175 0.261-0.511 0.45-1 0.562" fill="url(#d)"/>
   </g>
   <path transform="matrix(13.113 0 0 -13.113 248.11 287.54)" d="m0 0h3.792v-14.873l-4.161 0.031c0.186 0.465 0.36 0.946 0.494 1.393 0.791 2.643-1.047 3.498 0.646 6.604 1.467 0.288 2.044 1.66 1.835 2.704l7e-3 0.333c-0.093 0.067-0.16 0.098-0.236 0.177-0.842 0.872-1.813 1.62-2.377 3.631m-4.285 0h3.4c0.105-1.691 0.79-2.828 1.414-3.631 0.068-0.087 0.141-0.111 0.235-0.177l-6e-3 -0.333c0.209-1.044-0.365-2.417-1.832-2.706-0.875-2.533 0.754-3.277 0.677-5.402-0.043-1.18-0.213-1.752-0.437-2.593h-4.056v14.842h0.605" fill="url(#b)" fill-rule="evenodd"/>
   <g transform="matrix(13.113 0 0 -13.113 -2976.5 1225)">
    <path d="m271.03 62.53v-2.033h1.936v2.033h1.171v-5.271h-1.171v2.197h-1.936v-2.197h-1.172v5.271h1.172" fill="url(#c)"/>
    <path d="m275.86 58.16c0.099-0.023 0.268-0.023 0.408-0.023 1.072-8e-3 1.773 0.587 1.773 1.845 0 1.134-0.632 1.674-1.65 1.674-0.254 0-0.432-0.022-0.531-0.047v-3.449zm-1.173 4.294c0.431 0.078 0.994 0.117 1.581 0.117 0.995 0 1.643-0.165 2.135-0.547 0.541-0.407 0.88-1.064 0.88-2 0-1.01-0.363-1.704-0.856-2.134-0.548-0.461-1.389-0.68-2.406-0.68-0.61 0-1.049 0.038-1.334 0.078v5.169" fill="url(#e)"/>
   </g>
  </g>
 </g>
</svg>
