<svg width="800" height="665.18" version="1.1" viewBox="0 0 800 665.18" xmlns="http://www.w3.org/2000/svg">
 <defs>
  <linearGradient id="linearGradient851" x1="26.262" x2="163.24" y1="385.1" y2="139.04" gradientTransform="matrix(1.1485 0 0 1.1485 -30.162 -128.21)" gradientUnits="userSpaceOnUse">
   <stop stop-color="#bb7d2d" offset="0"/>
   <stop stop-color="#e9cf4d" offset=".3"/>
   <stop stop-color="#f6f290" offset=".45"/>
   <stop stop-color="#f6f290" offset=".55"/>
   <stop stop-color="#eacf5f" offset=".7"/>
   <stop stop-color="#bb7d2d" offset="1"/>
  </linearGradient>
  <radialGradient id="radialGradient879" cx="362.96" cy="298.83" r="155.74" gradientTransform="matrix(-.7334 1.2703 -1.0052 -.58034 944.24 123.91)" gradientUnits="userSpaceOnUse">
   <stop stop-color="#faf791" offset="0"/>
   <stop stop-color="#e2bb48" offset=".4"/>
   <stop stop-color="#a05c14" offset=".8"/>
   <stop stop-color="#af7323" offset="1"/>
  </radialGradient>
  <linearGradient id="linearGradient939" x1="174.04" x2="238.21" y1="23.945" y2="343.7" gradientTransform="matrix(1.1485 0 0 1.1485 -30.162 -12.783)" gradientUnits="userSpaceOnUse">
   <stop stop-color="#e9c958" offset="0"/>
   <stop stop-color="#fdf16f" offset=".23619"/>
   <stop stop-color="#a05c14" offset=".84724"/>
   <stop stop-color="#a05c14" stop-opacity="0" offset="1"/>
  </linearGradient>
  <linearGradient id="linearGradient957" x1="519.56" x2="657.73" y1="501.26" y2="358.57" gradientTransform="matrix(1.1485 0 0 1.1485 -30.162 -12.783)" gradientUnits="userSpaceOnUse">
   <stop stop-color="#f7e667" offset="0"/>
   <stop stop-color="#b67519" offset="1"/>
  </linearGradient>
  <linearGradient id="linearGradient912" x1="329.68" x2="795.49" y1="629.58" y2="629.58" gradientUnits="userSpaceOnUse">
   <stop stop-color="#cb8d20" offset="0"/>
   <stop stop-color="#efdb6f" offset=".5"/>
   <stop stop-color="#f6f394" offset="1"/>
  </linearGradient>
 </defs>
 <path d="m191.82 8.1172e-6c-8.6781 3.5911-16.044 8.4961-22.099 14.718l72.836 515.92c4.4358 31.426 17.719 52.378 38.967 63.14 21.246 10.761 47.151 13.834 77.557 9.2455 27.966-4.2207 55.9-15.251 83.781-33.261 27.907-17.847 49.826-40.114 65.779-66.636 15.979-26.357 21.783-54.004 17.416-82.947-3.9505-26.177-16.436-46.077-37.425-59.54-20.965-13.3-44.789-18.02-71.454-13.996-33.17 5.0058-65.293 19.161-96.665 42.687-31.234 23.339-52.447 49.16-63.667 77.294z" fill="url(#radialGradient879)" fill-rule="evenodd" stroke-width="3.8486"/>
 <path d="m157.32 31.481 12.441 89.443c-58.5 14.461-128.79 126.1-169.76 193.16 32.134-85.927 93.453-219.61 157.32-282.6z" fill="url(#linearGradient851)" fill-rule="evenodd" stroke-width="3.8486"/>
 <path d="m597.63 363.56c31.725-38.293 62.037-57.387 90.831-57.387 14.75 0 27.48 3.7377 38.19 11.113 10.609 7.3769 19.096 19.602 25.461 36.574 4.3449 11.822 6.4656 30.007 6.4656 54.459v115.69c0 17.177 1.4147 28.897 4.1426 34.958 2.2225 4.9503 5.6588 8.79 10.507 11.518 4.85 2.8295 13.742 4.2426 26.774 4.2426v10.61h-134.08v-10.71h5.6577c12.63 0 21.42-1.9196 26.472-5.7593 5.0523-3.8381 8.5877-9.4974 10.508-16.973 0.80934-2.9299 1.2122-12.225 1.2122-27.886v-111.04c0-24.652-3.2327-42.536-9.5979-53.649-6.4667-11.215-17.277-16.772-32.432-16.772-23.44 0-46.881 12.832-70.119 38.495v142.97c0 18.39 1.1122 29.704 3.2327 34.05 2.8295 5.7593 6.5676 10.002 11.417 12.629 4.85 2.6273 14.65 3.9401 29.503 3.9401v10.71h-134.08v-10.71h5.8597c13.842 0 23.138-3.4349 27.987-10.507 4.8495-6.972 7.2745-20.308 7.2745-40.112v-100.63c0-32.534-0.70736-52.439-2.2225-59.511-1.5151-7.0724-3.7392-11.92-6.7696-14.548-3.1323-2.527-7.1729-3.8401-12.327-3.8401-5.5557 0-12.123 1.5156-19.803 4.4454l-4.4454-10.608 81.636-33.139h12.73z" fill="url(#linearGradient957)" fill-rule="evenodd" stroke-width="3.8486"/>
 <path d="m191.82 5.1172e-6c-8.6781 3.5911-16.044 8.4961-22.099 14.718l72.836 515.92c4.4358 31.426 17.719 52.378 38.967 63.14 21.246 10.761 47.151 13.834 77.557 9.2455 27.966-4.2207 55.9-15.251 83.781-33.261 27.907-17.847 49.826-40.114 65.779-66.636 15.979-26.357 21.783-54.004 17.416-82.947-3.9505-26.177-16.436-46.077-37.425-59.54-20.965-13.3-44.789-18.02-71.454-13.996-33.17 5.0058-65.293 19.161-96.665 42.687-31.234 23.339-52.447 49.16-63.667 77.294z" fill="url(#linearGradient939)" fill-rule="evenodd" stroke-width="3.8486"/>
 <g fill="url(#linearGradient912)" fill-rule="evenodd" stroke-width="3.8486">
  <path d="m761.83 616.33c-10.28 0-19.61 1.962-28.176 6.4317-10.089 5.3399-14.278 13.298-14.278 20.708 0 5.5604 2.2845 9.8111 9.7091 15.043 6.091 4.3593 15.612 6.6661 29.89 6.6661 17.514 0 32.363-5.2497 35.981-8.8467 0.57152-0.54456 0.76009-0.98099 0.18897-1.4162l-2.6643-1.5267c-0.57113-0.43526-1.1422-0.21744-2.0936 0.10934-6.0933 2.5065-10.28 3.4876-19.038 3.4876-8.5669 0-15.612-1.4159-20.369-6.3208-6.4736-6.7588-6.0938-11.663-6.0938-18.53 0-6.8665 7.425-11.118 12.565-11.118 5.331 0 8.949 1.3082 11.234 5.232 1.5221 2.7252 5.7112 5.7762 13.708 5.7762 6.0915 0 9.898-2.0701 9.898-5.1224 0-3.3794-5.52-10.573-30.459-10.573z"/>
  <path d="m698.25 600.31c0-3.0507-4.569-6.3208-13.516-6.3208-7.9961 0-14.278 3.1604-14.278 6.648 0 4.2506 5.7112 7.1937 13.327 7.0855 10.28-0.10934 14.467-3.9236 14.467-7.4126zm13.327 62.564v-2.0701c0-0.65387-0.37986-0.98099-1.9047-0.98099h-6.8534c-2.0932 0-3.0446-0.76356-3.4267-2.8349-0.18895-1.1985-0.18895-5.1224-0.18895-9.3731v-11.663c0-9.5909 0-16.458 0.38023-18.312 0.19089-0.76239-0.38023-1.3082-1.9047-1.3082-1.3312 0-3.0446 0.21899-5.1401 0.65388l-28.365 5.232c-1.7134 0.32675-2.0932 0.54573-2.0932 0.87285v1.1985c0 0.65386 0.18897 1.0903 2.2845 1.5256 7.9957 1.6348 9.1379 3.8155 9.1379 6.8665l0.37984 15.26c0 3.0526 0 6.4305-0.37984 9.7002-0.19128 1.7446-1.5244 2.181-3.618 2.181h-7.0443c-1.3312 0-1.9023 0.21744-1.9023 0.87169v2.1794c0 0.89094 0.57112 1.1084 1.5221 1.1084 2.0936 0 9.5182-0.32712 20.561-0.32712 16.563 0 25.32 0.32712 26.843 0.32712 1.3335 0 1.7134-0.34521 1.7134-1.1084z"/>
  <path d="m647.04 620.69c-0.19127-0.76354-0.57112-1.3082-3.4267-2.0717-3.4267-0.9806-9.7091-2.2888-19.99-2.2888-7.9957 0-13.326 0.76355-20.942 3.924-7.2337 3.0523-9.898 7.3029-9.898 12.426 0 7.8479 9.7091 11.554 23.225 13.843 12.373 2.1806 17.896 3.5968 17.896 7.9569 0 3.8147-4.1891 6.6494-11.234 6.6494-8.7558 0-13.136-2.7255-16.563-5.5588l-7.6135-6.4317c-0.38216-0.43527-0.7624-0.54457-1.3335-0.43527l-3.4267 0.54457c-0.762 0.10934-1.3331 0.32712-1.3331 0.87169l2.4754 10.463c0.19127 0.65426 0.38023 1.0903 1.1422 1.4174 2.2845 0.98099 11.614 3.1785 22.274 3.1785 20.751 0 34.076-6.9928 34.076-16.695 0-3.8143-1.1422-6.4301-6.0915-9.265-5.7112-3.4876-10.28-4.2506-19.61-5.667-14.087-2.1806-16.371-3.2697-16.751-7.0855 0-3.705 5.5203-5.8859 11.232-5.8859s9.3293 1.7446 11.802 3.162l10.663 6.5399c0.76009 0.43489 1.3312 0.54457 1.9023 0.32674l3.4267-0.87284c0.76202-0.21744 0.95329-0.43489 0.76202-0.981z"/>
  <path d="m581.93 660.91c0.76008-0.10819 1.1422-0.32713 0.95097-0.8717l-0.57112-2.0712c-0.19089-0.43528-0.76201-0.65387-2.2845-0.43528-2.2845 0.32714-5.1401 0.32714-6.2824 0.32714-0.76239 0-2.8557-0.43643-3.4267-3.8158-0.38215-1.962-0.38215-7.3018-0.38215-12.535v-8.0653c0-11.008 0.95328-13.843 1.1422-14.824 0.19088-0.54417-0.57112-1.0887-1.7134-1.0887-0.57112 0-1.3312 0.10819-2.2845 0.10819-0.95136 0.10934-1.9023 0.21859-3.2358 0.21859h-28.365c-1.9042 0-2.2845 0.10819-2.2845 0.981v2.0701c0 0.54572 0.95136 0.65386 3.2358 0.76354 4.7599 0.21745 8.1866 1.0903 8.1866 3.8143l0.18896 25.614c0 1.0903-1.3312 2.8344-3.0446 3.9236-2.8557 2.0712-7.0443 3.4887-10.28 3.4887-3.4267 0-6.4733 0.21783-9.3293-2.2888-4.7599-4.2506-3.6176-12.427-3.6176-16.786v-5.8859c0-8.6111 0.57112-13.734 0.76201-14.715 0.19127-0.76316-0.76201-1.3077-2.0932-1.3077-0.57112 0-1.3335 0.10819-2.0956 0.10819-0.76009 0.10934-1.5225 0.2186-2.6648 0.2186h-27.794c-1.7134 0-2.0956 0.21783-2.0956 0.87169v2.1794c0 0.54572 0.95328 0.43642 4.1891 0.76354 2.2845 0.21745 6.2824 1.1985 6.4736 3.8143 0.18857 2.3984 0.18857 6.7588 0.18857 10.9l-0.18857 4.7953c0 9.3746-0.76239 12.862 7.2333 18.967 6.6625 5.0308 12.374 5.0308 19.989 5.0308 10.281 0 21.323-3.3959 25.129-7.2118h1.1422l1.1422 5.904c0.19127 0.76317 1.3335 1.3077 3.2355 1.3077 1.7134 0 3.0469-0.21745 4.1891-0.43527z"/>
  <path d="m331.01 623.31c-0.7624 0.21744-1.1422 0.65386-1.1422 0.98099v1.3077c0 0.32712 0.37985 0.54457 1.3308 0.87169l3.8093 1.3082c4.758 1.6348 6.091 3.379 6.091 8.1747v13.735c0 2.8333 0 5.5588-0.1909 7.4111-0.18895 1.5256-1.7134 2.7255-3.6158 2.7255h-5.3314c-2.0932 0-2.2845 0.10819-2.2845 0.98099v2.1794c0 0.78165 0.37985 0.99908 1.5221 0.99908 1.5248 0 7.6159-0.32712 20.372-0.32712 13.516 0 18.656 0.32712 20.37 0.32712 1.3331 0 1.5221-0.45451 1.5221-1.2165v-1.962c0-0.76355-0.18897-0.98099-1.9023-0.98099h-1.7134c-2.0956 0-3.9979-1.0903-3.9979-6.6491v-17.549c-0.19088-4.1414 0.57113-6.6479 3.0446-8.8285 2.2845-1.8527 6.6645-3.3782 10.471-3.3782 4.1891 0 7.2333 0.32713 8.9467 1.3082 2.2849 1.1985 4.1891 3.705 4.1891 11.226v16.132c0 6.3223-1.9042 7.7398-4.569 7.7398h-2.6643c-1.7134 0-1.9047 0.21743-1.9047 1.0891v1.962c0 0.76317 0.37984 1.1084 1.3335 1.1084 1.1422 0 7.6135-0.32711 21.702-0.32711 11.611 0 16.563 0.32711 17.896 0.32711 0.95097 0 1.3312-0.3452 1.3312-1.2165v-1.962c0-0.76355-0.38024-0.98099-2.0936-0.98099h-3.4267c-2.0956 0-3.2378-1.0903-3.2378-4.2506v-21.583c0-1.5256 0-5.0132 2.8557-6.867 2.2868-1.1985 6.0933-3.4876 11.425-3.4876 4.3781 0 6.2824 0.65425 9.327 2.6162 2.4757 1.5256 3.0469 3.8143 3.0469 10.573v10.463c0 4.0332-0.57112 7.9573-0.95136 10.464-0.19088 1.5256-2.4754 2.0712-3.8089 2.0712h-1.7134c-0.57112 0-1.1422 0.21744-1.1422 0.981v1.8523c0 0.98099 0.38216 1.3262 1.5244 1.3262 1.3312 0 8.1847-0.32712 19.607-0.32712 13.898 0 19.23 0.32712 20.561 0.32712 0.95328 0 1.3332-0.34521 1.3332-1.1084v-2.0701c0-0.76355-0.37986-0.98099-2.0933-0.98099h-3.8089c-3.0446 0-5.7116-1.2-5.5203-4.2506 0.19127-2.2891 0.7624-8.2844 0.7624-11.99v-7.8479c0-10.791-2.6671-11.771-8.187-14.932-5.9024-3.4887-9.9004-4.1426-18.467-4.1426-9.7091 0-19.035 2.9426-25.51 7.303h-0.95329c-4.9492-4.4685-10.851-7.6302-23.033-7.6302-11.994 0-21.703 3.3794-27.034 7.6302h-0.95136l-1.5244-6.2127c-0.37985-1.0903-1.5221-1.4174-2.6643-1.4174-1.3335 0-2.6648 0.32713-4.3781 0.76355z"/>
 </g>
</svg>
