<svg width="800" height="462.77" version="1.1" viewBox="0 0 800 462.77" xml:space="preserve" xmlns="http://www.w3.org/2000/svg">
<g transform="matrix(7.2993 0 0 7.2993 -4.3796 -4.3796)" fill="#fff">
	<path class="st0" d="m94.8 0.6-7.5 7.5-7.5-7.5h-79v40.5h76.5v-10l10 10 10-10v10h12.7v-40.5zm-82 8.9h4.7c2.1 0 3.8 1.7 3.8 3.8s-1.7 3.8-3.8 3.8h-4.7zm6.3 22.3h-6.3v-7.7h6.3c2.1 0 3.8 1.7 3.8 3.8s-1.7 3.9-3.8 3.9zm29.9-2.2c-4.8 0-8.7-3.9-8.7-8.7s3.9-8.7 8.7-8.7 8.7 3.9 8.7 8.7c0.1 4.8-3.8 8.7-8.7 8.7z"/>
		<path class="st0" d="m8.5 59.4c-1.7 0-2.8-1.4-2.8-3.3 0-1.8 1.1-3.3 2.8-3.3 1.4 0 2.2 0.8 2.7 1.8l4.2-2.4c-1.3-2.3-3.5-3.9-6.8-3.9-4.5 0-8 3.4-8 7.9 0 4.7 3.6 7.8 7.8 7.8 3.7 0 5.9-1.8 7.1-4.1l-4.2-2.3c-0.5 1-1.3 1.8-2.8 1.8z"/>
		<rect class="st0" x="35.7" y="48.5" width="5" height="15.1"/>
		<polygon class="st0" points="62.4 63.6 67.4 63.6 67.4 56.6 73 63.6 77.4 63.6 77.4 48.5 72.4 48.5 72.4 55.2 67.1 48.5 62.4 48.5"/>
		<polygon class="st0" points="97.4 63.6 110.2 63.6 110.2 59.5 102.4 59.5 102.4 57.8 108.5 57.8 108.5 54.2 102.4 54.2 102.4 52.7 110.2 52.7 110.2 48.5 97.4 48.5"/>
</g>
</svg>
