<svg width="800" height="130.53" version="1.1" xmlns="http://www.w3.org/2000/svg">
 <g fill="#e74f39">
  <path transform="matrix(2.1053,0,0,2.1053,0,3.0111e-6)" d="m25.632 52.573h-16.66v-7.9628h13.605c7.4321 0 13.491-6.0481 13.635-13.537 1.7674 2.2584 2.8241 5.0929 2.8241 8.1699 0 7.3497-6.013 13.33-13.404 13.33zm-16.66-26.659h13.361c2.7098 0 4.9142 2.1922 4.9142 4.8871 0 2.6491-2.1384 4.8869-4.67 4.8869h-13.605zm0-16.991h11.945c2.2369 0 4.0568 1.8098 4.0568 4.0344 0 2.2248-1.8199 4.0346-4.0568 4.0346h-11.945zm23.866 9.2528c0.70994-1.5974 1.1073-3.3622 1.1073-5.2184 0-7.1442-5.8444-12.957-13.029-12.957h-20.917v61.495h25.632c12.338 0 22.375-9.9821 22.375-22.252 0-9.7642-6.3562-18.079-15.17-21.068z"/>
  <path d="m174.77 108.91c-22.39 0-40.531-18.205-40.531-40.47s18.141-40.306 40.531-40.306c22.388 0 40.691 18.04 40.691 40.306s-18.303 40.47-40.691 40.47m42.653-82.726c-5.5559-5.5264-11.931-9.9139-19.12-12.84-7.518-3.2506-15.362-4.7117-23.533-4.7117-8.0086 0-16.017 1.4611-23.371 4.7117-7.1917 2.9264-13.564 7.3138-19.12 12.84-5.558 5.3622-9.9686 11.863-12.912 19.015-3.1053 7.3138-4.739 15.114-4.739 23.24s1.6337 15.929 4.739 23.405c2.9432 7.1517 7.3538 13.489 12.912 19.015 5.5559 5.5264 11.929 9.7518 19.12 12.84 7.3538 3.0864 15.362 4.7117 23.371 4.7117 8.1707 0 16.015-1.6253 23.533-4.7117 7.1896-3.0885 13.564-7.3138 19.12-12.84 5.5559-5.5264 9.8044-11.863 12.912-19.015 3.1053-7.4759 4.739-15.278 4.739-23.405s-1.6337-15.927-4.739-23.24c-3.1074-7.1517-7.3559-13.653-12.912-19.015m112.61 57.209-75.34-75.412v118.48h19.611v-71.187l75.34 75.25v-120.11h-19.611zm75.831 23.565h-16.996v-77.037h16.996c21.245 0 38.569 17.392 38.569 38.519 0 21.291-17.325 38.519-38.569 38.519m41.184-79.475c-5.3938-5.3622-11.604-9.5875-18.468-12.514-7.1917-2.9264-14.872-4.5496-22.716-4.5496h-36.609v116.04h36.609c7.8444 0 15.524-1.4632 22.716-4.5516 6.8633-2.9243 13.074-7.1496 18.468-12.352 5.3917-5.3622 9.4781-11.539 12.419-18.527 3.1053-7.1517 4.5769-14.79 4.5769-22.592 0-7.8001-1.4716-15.44-4.5769-22.59-2.9411-6.8275-7.0275-13.002-12.419-18.367" stroke-width="2.1053"/>
  <path transform="matrix(2.1053,0,0,2.1053,0,3.0111e-6)" d="m229.73 60.07h9.315v-55.12h-9.315zm35.088-17.447 7.452-17.061 7.529 17.061zm-18.01 17.447h10.247l4.347-9.727h21.813l4.347 9.727h10.247l-25.539-55.12zm133.19-54.563h-4.063l-21.854 47.303-21.854-47.303h-42.01v3.672h18.509v50.895h3.693v-50.895h17.441l24.221 52.434z"/>
 </g>
</svg>
