<svg width="211.67mm" height="64.561mm" version="1.1" viewBox="0 0 211.67 64.561" xmlns="http://www.w3.org/2000/svg">
 <defs>
  <clipPath id="clipPath9524">
   <path d="m248.2 432.55h30.699v13.055h-30.699z"/>
  </clipPath>
  <linearGradient id="linearGradient9514" x2="1" gradientTransform="matrix(-25.892 -1.3827 1.3827 -25.892 276.14 439.47)" gradientUnits="userSpaceOnUse">
   <stop stop-color="#f0f" offset="0"/>
   <stop stop-color="#f0f" offset=".28028"/>
   <stop stop-color="#00f" offset="1"/>
  </linearGradient>
 </defs>
 <g transform="matrix(7.9024 0 0 -7.9024 17.03 14.904)">
  <path d="m0 0h-0.551l0.484 1.886h-1.278l-0.65-2.462h0.779l-0.751-2.752z" fill="#f0f"/>
 </g>
 <g transform="matrix(7.9024 0 0 -7.9024 -1979.2 3494.5)">
  <path d="m267.76 441.58-0.301-1.113h-0.52l-0.086-0.32c-0.369 0.224-0.871 0.401-1.408 0.401-0.319 0-0.599-0.06-0.838-0.164l-1.11-1.842 0.229 0.836c-0.297 0.706-0.981 1.17-1.933 1.17-0.605 0-1.156-0.232-1.588-0.599l-0.832-1.407 0.222 0.812c-0.292 0.719-0.974 1.194-1.935 1.194-0.571 0-1.095-0.205-1.515-0.535l-0.87-1.471 0.237 0.866c-0.237 0.725-0.823 1.14-1.555 1.14-0.487 0-0.853-0.203-1.227-0.552l-2.268-3.884h1.228l0.17 0.633c0.285-0.431 0.683-0.716 1.366-0.716 0.812 0 1.6 0.486 2.042 1.261 0.271-0.766 0.973-1.276 1.969-1.276 0.926 0 1.728 0.535 2.166 1.273 0.272-0.764 0.973-1.273 1.968-1.273 0.642 0 1.224 0.258 1.667 0.662 0.509-0.449 1.219-0.662 1.822-0.662 0.872 0 1.531 0.414 1.724 1.108-0.011-0.078-0.019-0.153-0.019-0.231 0-0.48 0.366-0.853 1.113-0.853 0.334 0 0.65 0.066 0.895 0.179l0.257 0.95c0.267-0.729 0.934-1.153 1.884-1.153 0.74 0 1.284 0.252 1.674 0.577l-0.568 0.764c-0.359-0.252-0.642-0.35-0.967-0.35-0.651 0-0.952 0.341-0.992 0.854h2.906l-0.466-1.747h1.236l0.155 0.578c-0.038-8e-3 -0.077-0.018-0.122-0.033l-0.114-0.018c-0.067 0-0.169 0.019-0.271 0.111l-0.045 0.053c-0.041 0.065-0.063 0.133-0.063 0.205 0 0.073 0.02 0.141 0.059 0.199 0.038 0.067 0.095 0.122 0.17 0.164 0.083 0.061 0.198 0.116 0.319 0.15 0.106 0.038 0.212 0.073 0.318 0.105l8e-3 0.029c0.302 1.13 0.935 1.6 1.755 1.6h0.065l0.35 1.293c-0.715 0.057-1.219-0.317-1.657-0.959l0.234 0.878h-0.597l-1.131-1.877 0.08 0.393c-0.059 0.899-0.691 1.565-1.766 1.565-0.397 0-0.758-0.088-1.077-0.24l-1.035-1.718 0.512 1.877h-0.99l0.301 1.113zm-1.112-4.03c0 0.681-0.627 0.984-1.194 1.235-0.367 0.163-0.577 0.284-0.577 0.455 0 0.228 0.178 0.366 0.479 0.366 0.358 0 0.715-0.13 1.138-0.464l0.229 0.269h0.452l-0.529-1.975c-7e-3 -0.031-0.012-0.059-0.019-0.089 8e-3 0.067 0.021 0.132 0.021 0.203m4.538 2.006c0.504 0 0.714-0.284 0.714-0.641 0-0.107-0.015-0.203-0.04-0.285h-1.894c0.204 0.553 0.659 0.926 1.22 0.926m-19.057-1.56c0 0.83 0.634 1.513 1.317 1.513 0.552 0 0.91-0.342 0.91-0.91 0-0.878-0.627-1.53-1.293-1.53-0.544 0-0.934 0.376-0.934 0.927m8.357 0.064c0 0.619 0.495 1.432 1.251 1.432 0.56 0 0.944-0.358 0.944-0.992 0-0.618-0.497-1.431-1.253-1.431-0.561 0-0.942 0.359-0.942 0.991m-4.134 0c0 0.619 0.496 1.432 1.252 1.432 0.56 0 0.942-0.358 0.942-0.992 0-0.618-0.495-1.431-1.252-1.431-0.56 0-0.942 0.359-0.942 0.991m11.537-0.672c0 0.048 0.017 0.13 0.033 0.194l0.488 1.829h0.755c-0.299-0.44-0.466-0.957-0.466-1.462 0-0.257 0.041-0.488 0.108-0.7-0.191-0.077-0.404-0.122-0.584-0.122-0.227 0-0.334 0.097-0.334 0.261m-4.234 0.124c0.137 0.29 0.217 0.604 0.231 0.924 0.225-0.306 0.629-0.498 1.08-0.692 0.3-0.129 0.503-0.243 0.503-0.406 0-0.243-0.195-0.382-0.519-0.382-0.371 0-0.856 0.151-1.295 0.556" fill="url(#linearGradient9514)"/>
 </g>
 <g transform="matrix(7.9024 0 0 -7.9024 -1979.2 3494.5)">
  <g clip-path="url(#clipPath9524)">
   <g transform="translate(273.39 434.08)">
    <path d="m0 0c-0.027 0.03-0.042 0.069-0.047 0.118v0.042c0.023 0.129 0.054 0.266 0.094 0.412 0.125 0.447 0.31 0.885 0.555 1.312 0.232 0.404 0.408 0.705 0.528 0.902 0.085 0.123 0.134 0.19 0.147 0.206 0.049 0.045 0.085 0.073 0.107 0.086 0.019 0.012 0.041 0.017 0.068 0.017 0.031 0 0.058-8e-3 0.08-0.023 0.049-0.034 0.063-0.075 0.04-0.128l-0.08-0.212c-0.054-0.116-0.119-0.248-0.194-0.394-0.241-0.467-0.496-1.022-0.763-1.663-0.089-0.202-0.16-0.351-0.214-0.448-0.026-0.049-0.042-0.086-0.047-0.115-4e-3 -0.053-0.021-0.092-0.05-0.121s-0.068-0.04-0.117-0.036c-0.044 0-0.08 0.015-0.107 0.045m0.067 2.822c-0.032 0-0.062 0.015-0.094 0.043-0.013 0.02-0.02 0.041-0.02 0.061 0 0.023 7e-3 0.044 0.02 0.061 0.014 0.028 0.038 0.051 0.074 0.072 0.08 0.056 0.167 0.099 0.261 0.126 0.442 0.158 0.863 0.258 1.264 0.303 0.392 0.04 0.682 0.063 0.87 0.067 0.089 9e-3 0.154 0.012 0.193 0.012 0.045 0 0.103-3e-3 0.174-0.012 0.045-4e-3 0.087-0.016 0.128-0.037 0.03-0.015 0.054-0.038 0.07-0.069 0.015-0.031 0.019-0.059 0.01-0.088-0.023-0.068-0.072-0.105-0.147-0.108-0.032-5e-3 -0.068-9e-3 -0.111-0.012-0.042-5e-3 -0.074-7e-3 -0.097-7e-3l-0.227-0.018c-0.397-0.032-0.702-0.06-0.916-0.085-0.38-0.048-0.79-0.133-1.231-0.254-0.045-8e-3 -0.107-0.023-0.187-0.049z" fill="#2424ff"/>
   </g>
   <g transform="translate(274.99 434.36)">
    <path d="m0 0c-0.05 0-0.095 0.014-0.137 0.041-0.041 0.028-0.074 0.067-0.095 0.117-0.017 0.04-0.025 0.099-0.025 0.18 0.017 0.176 0.046 0.373 0.092 0.593 0.088 0.435 0.231 0.888 0.431 1.358 0.016 0.046 0.047 0.107 0.091 0.188 0.027 0.04 0.055 0.07 0.083 0.089 0.038 0.025 0.077 0.038 0.116 0.038l0.067-0.015c0.054-0.02 0.088-0.065 0.099-0.135 0-0.024-6e-3 -0.063-0.017-0.113-0.049-0.189-0.122-0.507-0.216-0.953l-0.107-0.503c-6e-3 -9e-3 -9e-3 -0.027-9e-3 -0.052 0.028 0.016 0.062 0.047 0.1 0.098 0.503 0.556 0.882 0.96 1.136 1.216 0.105 0.109 0.202 0.2 0.29 0.269 0.062 0.051 0.128 0.086 0.2 0.105l0.041 9e-3c0.055 0 0.091-0.021 0.108-0.062 5e-3 -9e-3 8e-3 -0.024 8e-3 -0.044 0-0.03-0.016-0.057-0.049-0.083-0.083-0.055-0.16-0.115-0.228-0.179-0.07-0.065-0.133-0.131-0.191-0.195-0.059-0.066-0.102-0.113-0.129-0.144-0.254-0.275-0.614-0.697-1.078-1.267-0.066-0.091-0.171-0.221-0.315-0.391-0.033-0.049-0.072-0.09-0.117-0.12-0.049-0.03-0.099-0.045-0.149-0.045" fill="#2424ff"/>
   </g>
  </g>
 </g>
</svg>
