<svg enable-background="new 0 0 67.709 10.578" version="1.1" viewBox="0 0 800 125.63" xml:space="preserve" xmlns="http://www.w3.org/2000/svg">
<path d="m91.698 87.363c0 6.4371-1.2589 11.793-3.8242 16.176-2.5534 4.3824-5.9264 7.886-10.131 10.57-4.2043 2.6603-9.0024 4.5724-14.371 5.7007-5.3563 1.1758-10.867 1.734-16.532 1.734h-46.841v-117.58h46.829c4.5487 0 9.1924 0.48693 13.955 1.4014 4.7743 0.95012 9.0855 2.5653 12.981 4.8218 3.8599 2.2565 7.0071 5.3207 9.4537 9.1924 2.4228 3.9074 3.6461 8.8242 3.6461 14.81 0 6.5439-1.7815 11.924-5.3088 16.188s-8.1948 7.3634-13.955 9.228v0.32066c3.3373 0.5582 6.4489 1.5796 9.4062 3.0641 2.9097 1.5083 5.4632 3.4086 7.6128 5.7363 2.1734 2.3278 3.8955 5.0356 5.1544 8.1473 1.2589 3.1116 1.924 6.6271 1.924 10.487zm-32.221-49.335c0-3.9786-1.5321-6.9002-4.5724-8.7292-3.0285-1.8171-7.5534-2.7197-13.527-2.7197h-13.979v24.252h15.285c5.3325 0 9.4418-1.1045 12.387-3.2304 2.9335-2.1734 4.4062-5.3682 4.4062-9.5724zm3.8124 46.675c0-4.8694-1.8409-8.2542-5.4751-10.143-3.6698-1.8646-8.5273-2.8147-14.608-2.8147h-15.796v26.912h15.95c2.2209 0 4.5012-0.2019 6.9121-0.58195 2.3753-0.39192 4.5249-1.0689 6.4608-2.0784 1.9359-0.98575 3.5036-2.399 4.7268-4.228 1.2114-1.829 1.829-4.1805 1.829-7.0665z" fill="#ababab" stroke-width="11.876"/>
<path d="m168.55 97.625c-19.192-0.02375-34.751-15.582-34.751-34.798s15.594-34.81 34.822-34.81c19.204 0 34.786 15.546 34.81 34.739l23.409-23.444c-9.2874-23.017-31.829-39.299-58.207-39.299-34.656 0-62.779 28.112-62.779 62.791 0 26.366 16.259 48.931 39.299 58.219z" fill="#ababab" stroke-width="11.876"/>
<polygon transform="matrix(11.876 0 0 11.876 -2.0665 .01188)" points="25.474 2.375 28.271 2.375 28.271 0.334 22.337 0.334 20.296 2.375 23.083 2.375 23.083 10.236 25.474 10.236" enable-background="new    " fill="#ccc"/>
<path d="m398.17 97.577c-18.432-0.90261-33.076-16.093-33.076-34.762 0-19.216 15.57-34.81 34.822-34.81 18.622 0 33.884 14.632 34.762 33.052l23.005-22.969c-9.62-22.399-31.865-38.088-57.755-38.088-34.679 0-62.767 28.112-62.767 62.791 0 25.914 15.677 48.159 38.064 57.732z" enable-background="new    " fill="#ccc" stroke-width="11.876"/>
<path d="m558.67 23.171c-2.3634-4.62-5.6413-8.3017-9.7862-11.14-4.133-2.8147-9.0024-4.8931-14.608-6.152s-11.615-1.9121-18.017-1.9121h-19.786l-23.444 23.432v94.204h28.409v-44.371h14.133c6.0689 0 11.948-0.66508 17.589-1.9715 5.677-1.342 10.641-3.4561 14.929-6.3302 4.323-2.8741 7.7553-6.6746 10.309-11.366 2.5653-4.7031 3.8005-10.487 3.8005-17.375 0.0713-6.7577-1.1401-12.435-3.5273-17.019zm-26.473 24.074c-1.1164 1.829-2.6484 3.2898-4.5724 4.4062-1.9478 1.1283-4.1211 1.8765-6.5796 2.3159-2.4109 0.46318-4.9644 0.67696-7.6128 0.67696h-11.995v-27.743h12.458c2.5772 0 5.0119 0.19002 7.399 0.51069 2.3634 0.32066 4.5249 0.97387 6.4252 1.9715 1.829 0.99762 3.3373 2.3872 4.4774 4.1805 1.1164 1.7577 1.6746 4.038 1.6746 6.8052 0 2.7435-0.58195 5.0594-1.6746 6.8765z" enable-background="new    " fill="#f2f2f2" stroke-width="11.876"/>
<path d="m607.1 74.917h9.6437l21.52 39.335 20.321-20.344-13.824-22.648c7.6722-2.3159 13.61-6.1876 17.945-11.627 4.323-5.4513 6.4964-12.126 6.4964-20.095 0-6.734-1.247-12.387-3.8242-16.924-2.5297-4.5724-5.9382-8.1829-10.202-10.974-4.2162-2.7672-9.0974-4.7268-14.43-5.8907-5.38-1.1639-10.903-1.734-16.544-1.734h-44.834v117.59h27.743v-46.686zm-0.19002-48.017h15.19c2.114 0 4.2993 0.17815 6.6152 0.48694 2.2328 0.34442 4.3349 0.97387 6.1876 1.9002 1.8171 0.95012 3.3373 2.2803 4.5012 3.9905 1.1876 1.734 1.7458 3.9667 1.7458 6.7221 0 2.9929-0.64133 5.4394-1.9121 7.3159-1.2708 1.8646-2.9216 3.3017-4.8931 4.2993-2.019 0.99762-4.2399 1.7102-6.6746 2.0903-2.4584 0.36817-4.8337 0.58195-7.1734 0.58195h-13.539v-27.411h-0.0475z" enable-background="new    " fill="#f2f2f2" stroke-width="11.876"/>
<path d="m755.95 2.8741-25.891 25.891c2.2803-0.51069 4.7031-0.73634 7.1734-0.73634 19.24 0 34.846 15.582 34.846 34.81s-15.582 34.81-34.846 34.81c-19.228 0-34.822-15.582-34.822-34.81 0-2.4584 0.26128-4.8575 0.73634-7.1734l-25.879 25.903c7.9929 25.523 31.793 44.062 59.952 44.062 34.703 0 62.779-28.1 62.779-62.779 0.0237-28.183-18.48-52.019-44.05-59.976z" enable-background="new    " fill="#f2f2f2" stroke-width="11.876"/>
</svg>
