<svg width="529.65" height="533.53" enable-background="new 0 0 1260 720" version="1.0" viewBox="0 0 529.65 533.53" xml:space="preserve" xmlns="http://www.w3.org/2000/svg">
<path d="m383.06 215.35c47.543-16.461 81.53-54.321 81.53-110.58 0-14.137-7.1654-48.318-33.019-70.395-17.042-14.524-41.733-31.76-121.52-33.696-16.461-0.38732-66.618 1.3556-66.618 1.3556v2.9049c14.137 10.845 29.339 28.758 36.698 49.383 7.6495-0.29049 19.172-0.87146 30.501-0.29049 32.05 1.7429 45.994 7.6495 60.421 19.075 14.524 11.426 22.271 30.985 22.174 48.705-0.0968 24.207-11.619 49.286-46.575 63.52-28.274 11.523-62.552 14.04-62.552 14.04v8.8114s20.528 9.7797 40.959 36.892c17.623 23.336 119.97 174 119.97 174h84.629c0.0968 0-136.63-190.46-146.6-203.73zm-270.54 145.53h-47.349v-307.14c0.6778 0 21.206-0.29049 34.084-0.29049 52.869 0 82.208 27.306 82.982 64.875 0.48415 22.755-6.2939 44.638-29.533 60.712-18.978 13.169-45.413 17.042-45.413 17.042v9.8766s36.601 5.4224 55.193 14.137c34.665 16.17 44.929 41.346 45.122 73.784 0.58097 51.416-49.092 67.006-95.086 67.006zm-112.22-358.95v417.14h92.569c121.52 0 185.72-44.735 185.72-129.56 0-50.448-31.663-83.854-81.53-95.377 32.535-19.269 53.353-47.446 53.353-89.567 0-45.025-26.725-104.58-138.66-104.58-47.059 0-98.766 1.5493-111.45 1.9366z" fill="#fff" stroke-width=".96829"/><g transform="translate(.002736 -.000559)" fill="#fff" stroke-width=".96829"><path d="m64.389 457.13v75.527h-11.135l-41.83-55.967v55.967h-11.426v-75.527h11.232l41.83 55.677v-55.677z"/><path d="m148.44 494.31c0 26.144-11.426 39.216-34.277 39.216-3.2922 0-6.3907-0.29048-9.1019-0.77463-2.808-0.48414-5.8097-1.6461-8.9083-3.2922-3.0985-1.6461-5.7129-3.8732-7.8431-6.5844s-3.8732-6.5844-5.3256-11.426c-1.3556-4.8414-2.1302-10.554-2.1302-17.042 0-25.563 11.135-38.344 33.309-38.344 22.852-0.19365 34.277 12.685 34.277 38.247zm-28.855 27.499c1.8398-0.48414 3.7763-1.3556 5.9066-2.6144 2.0334-1.2588 3.8732-2.9049 5.3256-4.9383 1.5493-2.0334 2.808-4.7446 3.7763-8.1336 0.96829-3.389 1.5493-7.359 1.5493-11.91 0-4.6478-0.48415-8.6178-1.5493-12.104-1.0651-3.389-2.3239-6.1002-3.7763-8.0368-1.5493-1.9366-3.2922-3.389-5.4224-4.551-2.1302-1.1619-4.0668-1.9366-5.8097-2.2271-1.7429-0.38732-3.6795-0.48415-5.6161-0.48415-2.4207 0-4.7446 0.38732-6.9717 1.162s-4.4541 2.1302-6.778 4.0668c-2.2271 1.9366-4.0668 4.7446-5.3256 8.6178-1.3556 3.7763-2.0334 8.3273-2.0334 13.653 0 5.7129 0.6778 10.651 2.0334 14.621s3.0985 6.8749 5.4224 8.7146c2.3239 1.8398 4.4541 3.0985 6.5844 3.7763s4.4541 1.0651 6.9717 1.0651c1.9366 0 3.8732-0.29049 5.7129-0.67781z"/><path d="m220.96 491.99c-2.4207 3.5827-6.0034 6.2939-10.845 8.0368l18.301 32.631h-13.362l-17.526-30.888h-20.334v30.888h-12.394v-75.527h32.535c4.7446 0 8.7146 0.48415 12.2 1.5493 3.389 1.0651 6.1002 2.3239 7.94 3.7763 1.8398 1.5493 3.389 3.389 4.4541 5.6161 1.162 2.2271 1.8398 4.2605 2.1302 6.1002s0.48414 3.97 0.48414 6.2939c0 4.0668-1.1619 7.94-3.5827 11.523zm-12.781-3.97c3.0985-1.9366 4.6478-4.4541 4.6478-7.6495 0-3.6795-1.2588-6.5844-3.6795-8.8114-2.4207-2.2271-6.3907-3.2922-11.813-3.2922h-20.044v22.561h19.947c4.1636 0 7.8432-0.96828 10.942-2.808z"/><path d="m300.07 466.91c6.1002 6.4875 9.1019 15.977 9.1019 28.468 0 12.007-3.7763 21.302-11.232 27.984-7.4558 6.6812-17.913 10.07-31.373 10.07-5.2288 0-9.9734-0.38731-14.234-1.0651-4.2605-0.67781-7.0685-1.3556-8.7146-2.1302l-2.3239-1.0651v-72.138h29.726c13.266 0.0968 22.948 3.389 29.049 9.8766zm-3.389 28.565c0-5.5193-0.6778-10.167-1.9366-13.847s-3.1954-6.4875-5.7129-8.4241c-2.5176-1.9366-5.2288-3.1954-8.0368-3.8732-2.808-0.67781-6.2939-1.0651-10.264-1.0651h-17.042v52.869c3.0985 0.77463 7.2622 1.162 12.588 1.162 20.334 0 30.404-9.0051 30.404-26.822z"/></g>



</svg>
