<svg version="1.1" viewBox="0 0 708 354" xml:space="preserve" xmlns="http://www.w3.org/2000/svg"><g transform="matrix(1.25 0 0 -1.25 -691.97 161.55)"><path d="m553.57 129.24h283.2v-283.2h-283.2z" fill="#00a7d6" fill-rule="evenodd"/><g transform="matrix(.38386 0 0 -.38386 600.49 298.06)" fill="#fff"><g transform="matrix(2.8507 0 0 2.8507 -28.555 -1330.5)" fill="#fff"><g transform="matrix(1.4826 0 0 1.4826 -33.599 -350.13)" fill="#fff"><path d="m111.58 733.53c8.9812-3.1038 15.404-10.26 15.404-20.885 0-2.6625-1.355-9.1275-6.2462-13.298-3.23-2.7488-7.885-5.995-22.946-6.3625-3.1125-0.075-12.564 0.26-12.564 0.26l0.02375 0.56125c2.6862 2.0875 5.515 5.405 6.8938 9.3125 1.4388-0.0525 3.6188-0.17 5.7638-0.0525 6.0463 0.32125 8.6863 1.4562 11.409 3.5975 2.7338 2.1512 4.2075 5.8425 4.195 9.19-0.0238 4.575-2.1925 9.305-8.7912 11.998-5.34 2.1762-11.799 2.6538-11.799 2.6538l-0.01125 1.67s3.8662 1.8475 7.7438 6.965c3.3225 4.4 22.651 32.855 22.651 32.855h15.982s-25.811-35.958-27.709-38.465"/><g transform="matrix(1.25 0 0 -1.25 60.492 761.02)"><path d="m0 0h-7.147v46.416c0.094 0 3.206 0.042 5.148 0.042 7.986 0 12.417-4.132 12.54-9.806 0.075-3.438-0.943-6.741-4.45-9.175-2.866-1.981-6.864-2.574-6.864-2.574v-1.497s5.582-0.722 8.344-2.138c5.186-2.662 6.826-6.239 6.826-11.149 0-7.456-7.439-10.119-14.397-10.119m12.785 25.199c4.912 2.9 8.062 7.172 8.062 13.533 0 6.801-4.036 15.797-20.951 15.797-8.184 0-17.282-0.303-17.282-0.303v-63.01h14.435c18.357 0 28.059 6.767 28.059 19.568 0 7.624-4.78 12.666-12.323 14.415" fill="#fff"/></g><g transform="matrix(1.25 0 0 -1.25 34.941 794.52)"><path d="m0 0v6.714c0 0.627 0.123 1.138 0.368 1.534s0.565 0.706 0.961 0.933c0.387 0.228 0.83 0.381 1.311 0.464 0.49 0.082 0.981 0.121 1.471 0.121h3.026v-1.432h-3.026c-0.905 0-1.547-0.119-1.942-0.358-0.406-0.239-0.604-0.66-0.604-1.266v-0.994h4.988v-0.875c0-0.162-0.057-0.295-0.16-0.399-0.104-0.106-0.293-0.159-0.576-0.159h-4.252v-4.283z" fill="#fff"/></g><g transform="matrix(1.25 0 0 -1.25 47.693 787.37)"><path d="m0 0h5.252v-0.86c0-0.161-0.047-0.298-0.142-0.407-0.103-0.111-0.292-0.165-0.575-0.165h-4.535v-1.201c0-0.599 0.198-1.019 0.594-1.259 0.386-0.241 1.047-0.363 1.971-0.363h3.271v-1.461h-3.271c-0.5 0-0.99 0.044-1.49 0.131-0.491 0.086-0.934 0.243-1.329 0.47-0.387 0.226-0.708 0.54-0.953 0.941-0.245 0.399-0.367 0.914-0.367 1.541v6.684h7.41v-1.432h-5.836z" fill="#fff"/></g><g transform="matrix(1.25 0 0 -1.25 62.295 788.75)"><path d="m0 0c0.83 0 1.414 0.104 1.772 0.313 0.359 0.209 0.538 0.586 0.538 1.13v0.788c0 0.554-0.179 0.938-0.538 1.153-0.358 0.213-0.942 0.32-1.772 0.32h-2.254v-8.319h-1.555v9.751h3.809c0.462 0 0.924-0.038 1.376-0.115 0.462-0.078 0.877-0.222 1.254-0.434 0.368-0.213 0.67-0.508 0.896-0.89 0.236-0.381 0.349-0.871 0.349-1.468v-0.783c0-0.597-0.123-1.082-0.358-1.454-0.245-0.37-0.566-0.662-0.962-0.875l0.066-0.058c0.16-0.173 0.302-0.348 0.434-0.521 0.141-0.174 0.254-0.395 0.349-0.665 0.085-0.231 0.179-0.492 0.292-0.783 0.104-0.288 0.207-0.559 0.311-0.81 0.104-0.25 0.217-0.549 0.349-0.895h-1.678l-0.783 2.039c-0.085 0.231-0.17 0.422-0.273 0.571-0.095 0.149-0.208 0.265-0.33 0.347-0.114 0.082-0.255 0.141-0.415 0.174-0.151 0.035-0.33 0.051-0.528 0.051h-1.349v0.875c0 0.161 0.048 0.295 0.151 0.4 0.104 0.104 0.302 0.158 0.604 0.158z" fill="#fff"/></g><g transform="matrix(1.25 0 0 -1.25 80.599 782.29)"><path d="m0 0v-9.781h-1.094c-0.217 0-0.368 0.042-0.481 0.13-0.113 0.086-0.245 0.264-0.396 0.535-0.169 0.288-0.367 0.625-0.584 1.006-0.217 0.38-0.453 0.78-0.688 1.201-0.246 0.419-0.491 0.848-0.736 1.287-0.255 0.439-0.49 0.862-0.726 1.266-0.226 0.406-0.443 0.787-0.641 1.143s-0.368 0.66-0.5 0.913c-0.085 0.143-0.16 0.267-0.226 0.368-0.075 0.102-0.151 0.183-0.245 0.245-0.095 0.063-0.208 0.112-0.34 0.145s-0.292 0.057-0.49 0.066v-8.305h-1.565v9.781h0.782c0.415 0 0.793-0.017 1.132-0.051s0.651-0.106 0.924-0.217c0.283-0.112 0.537-0.275 0.764-0.493 0.226-0.216 0.452-0.513 0.66-0.889 0.132-0.251 0.311-0.576 0.528-0.977 0.226-0.399 0.462-0.833 0.725-1.302 0.265-0.468 0.529-0.95 0.812-1.447 0.282-0.497 0.556-0.977 0.82-1.441v6.817z" fill="#fff"/></g><g transform="matrix(1.25 0 0 -1.25 90.44 784.43)"><path d="m0 0v0.219c-0.358 0.08-0.726 0.134-1.103 0.17-0.377 0.033-0.754 0.049-1.122 0.049-0.462 0-0.839-0.042-1.131-0.13-0.293-0.085-0.529-0.198-0.689-0.333-0.17-0.135-0.283-0.282-0.349-0.442-0.056-0.159-0.094-0.316-0.094-0.47 0-0.174 0.028-0.329 0.085-0.464 0.056-0.136 0.085-0.198 0.085-0.188 0.226-0.087 0.471-0.182 0.754-0.284 0.283-0.1 0.575-0.204 0.877-0.312 0.302-0.105 0.613-0.211 0.924-0.318 0.32-0.106 0.622-0.208 0.924-0.304 0.697-0.233 1.414-0.458 2.15-0.682 0.084-0.134 0.16-0.29 0.235-0.463 0.057-0.155 0.104-0.346 0.161-0.573 0.047-0.227 0.075-0.482 0.075-0.76 0-0.338-0.057-0.681-0.179-1.029-0.123-0.349-0.33-0.666-0.632-0.95-0.292-0.285-0.698-0.517-1.207-0.696-0.518-0.178-1.169-0.269-1.961-0.269-0.584 0-1.178 0.03-1.763 0.089-0.594 0.058-1.188 0.156-1.782 0.293v0.891c0 0.165 0.056 0.281 0.16 0.347 0.104 0.068 0.227 0.102 0.377 0.102 0.066 0 0.161-9e-3 0.283-0.029 0.113-0.018 0.226-0.038 0.359-0.057 0.33-0.049 0.707-0.095 1.121-0.137 0.415-0.043 0.821-0.066 1.245-0.066 0.51 0 0.924 0.054 1.245 0.159 0.32 0.107 0.566 0.238 0.735 0.398 0.17 0.158 0.292 0.332 0.358 0.52 0.057 0.186 0.085 0.358 0.085 0.512l-9e-3 0.217-0.029 0.174-0.047 0.158-5.581 1.834c-0.104 0.146-0.198 0.319-0.283 0.521-0.076 0.174-0.142 0.385-0.189 0.636-0.056 0.25-0.085 0.535-0.085 0.851 0 0.319 0.057 0.636 0.17 0.955 0.113 0.318 0.302 0.603 0.585 0.859s0.669 0.465 1.159 0.628c0.481 0.164 1.104 0.246 1.858 0.246 0.688 0 1.329-0.05 1.933-0.151 0.603-0.102 1.216-0.282 1.838-0.543v-1.896h-0.924c-0.179 0-0.32 0.053-0.443 0.16-0.122 0.109-0.179 0.294-0.179 0.558" fill="#fff"/></g><g transform="matrix(1.25 0 0 -1.25 97.004 787.37)"><path d="m0 0h5.252v-0.86c0-0.161-0.057-0.298-0.151-0.407-0.104-0.111-0.292-0.165-0.575-0.165h-4.526v-1.201c0-0.599 0.188-1.019 0.585-1.259 0.395-0.241 1.046-0.363 1.97-0.363h3.272v-1.461h-3.272c-0.49 0-0.99 0.044-1.48 0.131-0.5 0.086-0.943 0.243-1.339 0.47-0.387 0.226-0.707 0.54-0.952 0.941-0.245 0.399-0.368 0.914-0.368 1.541v6.684h7.411v-1.432h-5.827z" fill="#fff"/></g><g transform="matrix(1.25 0 0 -1.25 116.95 782.31)"><path d="m0 0v-9.766h-1.556v4.297h-4.978v-4.297h-1.556v9.766h1.556v-4.037h4.978v4.037z" fill="#fff"/></g><g transform="matrix(1.25 0 0 -1.25 121.47 787.37)"><path d="m0 0h5.252v-0.86c0-0.161-0.048-0.298-0.151-0.407-0.095-0.111-0.283-0.165-0.566-0.165h-4.535v-1.201c0-0.599 0.198-1.019 0.585-1.259 0.395-0.241 1.056-0.363 1.97-0.363h3.281v-1.461h-3.281c-0.49 0-0.981 0.044-1.48 0.131-0.5 0.086-0.943 0.243-1.33 0.47-0.396 0.226-0.716 0.54-0.961 0.941-0.245 0.399-0.368 0.914-0.368 1.541v6.684h7.42v-1.432h-5.836z" fill="#fff"/></g><g transform="matrix(1.25 0 0 -1.25 142.2 782.29)"><path d="m0 0v-9.781h-1.094c-0.207 0-0.367 0.042-0.48 0.13-0.104 0.086-0.246 0.264-0.396 0.535-0.17 0.288-0.359 0.625-0.585 1.006-0.217 0.38-0.443 0.78-0.688 1.201-0.236 0.419-0.481 0.848-0.736 1.287-0.254 0.439-0.49 0.862-0.716 1.266-0.236 0.406-0.453 0.787-0.651 1.143s-0.368 0.66-0.5 0.913c-0.084 0.143-0.16 0.267-0.226 0.368-0.066 0.102-0.151 0.183-0.245 0.245-0.094 0.063-0.207 0.112-0.33 0.145-0.132 0.033-0.302 0.057-0.5 0.066v-8.305h-1.565v9.781h0.783c0.415 0 0.792-0.017 1.131-0.051 0.349-0.034 0.651-0.106 0.933-0.217 0.274-0.112 0.529-0.275 0.755-0.493 0.235-0.216 0.452-0.513 0.66-0.889 0.132-0.251 0.311-0.576 0.537-0.977 0.217-0.399 0.453-0.833 0.717-1.302 0.264-0.468 0.537-0.95 0.82-1.447s0.547-0.977 0.811-1.441v6.817z" fill="#fff"/></g></g></g></g><path d="m836.77 129.24h283.2v-283.2h-283.2z" fill="#fff" fill-rule="evenodd"/><g transform="matrix(1.7789 0 0 1.7789 -431.18 151.5)" fill="#00a7d6" stroke-width=".80254"><path d="m746.84-47.157v-54.399h5.9826v25.034h29.317v-25.034h5.9826v54.399h-5.9826v-23.498h-29.317v23.498z"/><path d="m796.19-47.157h19.855c6.8376-0.22471 14.574-1.8779 18.836-7.7525 2.4289-3.2907 3.0374-7.1679 3.1544-11.124v-15.503c-0.0265-4.0532-0.40645-8.0652-2.6649-11.558-3.796-6.0271-11.34-8.0775-18.041-8.4628h-21.139zm6.019-5.947v-42.51h11.288c3.3236 0 6.6303 0.30067 9.8829 1.0912 3.3867 0.79451 6.629 3.0898 7.7124 6.5166 0.66721 2.1116 0.84664 4.284 0.88197 6.4734v15.489c-0.0912 2.0874-0.40193 4.1445-1.219 6.1105-1.4606 3.475-5.1362 5.3931-8.6834 6.0431-2.6361 0.4975-5.2959 0.78632-7.9668 0.78632h-5.948z"/></g><g transform="matrix(.80676 0 0 -.80676 861.67 4.9369)" fill="#00a7d6"><path d="m235.95 65.49h9.399v40.982c-0.0298 5.1638-0.73484 10.874-4.6474 14.657-5.1538 5.0148-12.82 5.7596-19.652 5.6702-6.5242-0.23833-13.922-1.6584-18.073-7.2094-2.7756-3.7285-3.3338-8.2062-3.3338-12.723v-8.982c0.0336-5.0507 1.0402-10.379 4.8332-13.974 5.412-5.0644 13.386-5.7198 20.436-5.4517 4.2104 0.08937 8.2868 1.7477 11.038 4.9949v-17.964m-27.065 32.015v11.043c0 7.8685 4.8629 9.1311 13.515 9.1311 7.8067 0 13.554-1.6834 13.515-9.1311v-21.001h-13.515c-8.5866-0.34438-13.515 0.94645-13.515 9.958z" stroke-width=".99303"/><path d="m94.245 65.505v60.24h-6.2781c-1.1879 0-2.1061-0.25867-2.7545-0.80065-0.59681-0.52967-1.4117-1.6259-2.2725-3.295-0.97557-1.7738-2.0602-3.8493-3.3571-6.1958-1.2453-2.3404-2.5422-4.8039-3.9482-7.3968-1.3543-2.5806-2.7603-5.2227-4.2236-7.9265-1.4576-2.7037-2.8119-5.309-4.1089-7.7971-1.3543-2.5005-2.5996-4.847-3.7359-7.0396s-2.1118-4.0649-2.8693-5.6231c-0.48205-0.88072-0.91819-1.6444-1.2969-2.2665-0.37875-0.62821-0.86654-1.1271-1.406-1.5089-0.53943-0.38801-1.1879-0.6898-1.8937-0.89303-0.7575-0.20324-1.7331-0.35107-2.8693-0.40649v51.149h-8.981v-60.24h4.4933c2.3815 0 4.545 0.10469 6.4904 0.3141 2.0028 0.20941 3.7359 0.65284 5.3542 1.3365 1.5724 0.68979 3.0357 1.6937 4.3327 3.0363 1.3486 1.3303 2.5939 3.1595 3.7875 5.4752 0.7575 1.5459 1.7847 3.5475 3.0817 6.0172 1.2453 2.4574 2.5996 5.1303 4.1146 8.0189 1.515 2.8824 3.0817 5.8509 4.7057 8.9119s3.139 6.0172 4.654 8.8749v-41.985z"/><path d="m129.08 78.444c-3.5476-0.0059-6.5778 0.49091-9.6606 1.084-5.76 1.26-11.12 5.3497-12.63 11.24-0.56079 2.4268-0.87652 4.8666-0.8291 7.1909l9e-3 10.288c-0.16941 5.435 1.7144 11.237 6.3003 14.492 5.141 3.4437 10.923 4.1056 16.844 4.062 5.8708 0.0691 12.019-0.71254 16.844-4.062 4.5859-3.2545 6.4697-9.0567 6.3003-14.492l9e-3 -10.288c0.0153-2.4906-0.2774-4.9462-0.82909-7.1909-1.51-5.89-6.8699-9.9797-12.63-11.24-3.2191-0.65808-6.7902-1.1058-9.6943-1.0825-0.0112-1.33e-4 -0.0223-0.0013-0.0337-0.0015zm0.0337 9.1011c8.6475 0 13.816 0.84163 13.816 7.437v14.979c0 6.3883-5.8346 7.7432-13.816 7.7432-7.2527 0.0972-13.816-1.2292-13.816-7.7432v-14.979c0-6.7975 6.0056-7.5405 13.816-7.437z"/><path d="m169.96 82.95c5.9-4.41 13.74-4.87 20.82-4.16v4.186c0 3.5044-1.1376 4.3006-4.7112 4.696-3.2308 0.37145-6.67 0.01639-9.4786 1.908-2.61 1.4-3.445 4.55-3.345 7.31v28.86h-9.25v-28.77c-0.09-5.21 1.615-10.83 5.965-14.03z"/></g></g></svg>
