<svg width="800" height="532.56" enable-background="new 0 0 1260 720" version="1.0" viewBox="0 0 800 532.56" xml:space="preserve" xmlns="http://www.w3.org/2000/svg">
<path d="m382.91 215.43c47.56-16.467 81.559-54.341 81.559-110.62 0-14.142-7.1679-48.335-33.031-70.42-17.048-14.53-41.748-31.771-121.56-33.709-16.467-0.38746-66.642 1.3561-66.642 1.3561v2.9059c14.142 10.849 29.35 28.769 36.711 49.401 7.6522-0.29059 19.179-0.87178 30.512-0.29059 32.062 1.7436 46.01 7.6523 60.443 19.082 14.53 11.43 22.279 30.996 22.182 48.723-0.0969 24.216-11.624 49.304-46.592 63.543-28.284 11.527-62.574 14.045-62.574 14.045v8.8146s20.535 9.7833 40.973 36.905c17.629 23.344 120.01 174.06 120.01 174.06h84.659c0.0969 0-136.68-190.53-146.65-203.8zm-270.64 145.59h-47.366v-307.25c0.67805 0 21.213-0.29059 34.096-0.29059 52.888 0 82.238 27.316 83.012 64.899 0.48432 22.763-6.2962 44.654-29.544 60.734-18.985 13.174-45.429 17.048-45.429 17.048v9.8801s36.615 5.4244 55.212 14.142c34.677 16.176 44.945 41.361 45.139 73.81 0.58118 51.435-49.11 67.03-95.12 67.03zm-112.27-359.07v417.29h92.602c121.56 0 185.79-44.751 185.79-129.6 0-50.466-31.675-83.884-81.559-95.411 32.546-19.276 53.372-47.463 53.372-89.599 0-45.042-26.734-104.61-138.71-104.61-47.076 0-98.801 1.5498-111.49 1.9373z" fill="#0086cb" stroke-width=".96864"/><path d="m733.75 2.5186c-7.3617 0-14.82 0.096864-22.569 0.38746-7.5554 0.096864-14.917 0.29059-21.988 0.58118v121.47c3.2934 0.0969 5.8118 0.19373 7.3617 0.19373 13.174 0.48432 23.538 0.67805 31.19 0.67805 22.472 0 39.617-6.2962 52.888-17.436 13.464-11.042 19.373-26.056 19.373-46.495 0-10.558-0.77491-19.663-3.9714-27.219-3.0996-7.5554-6.7805-13.658-12.786-18.404-5.8118-4.6495-12.98-8.1366-21.407-10.268-8.2334-2.4216-17.629-3.4871-28.091-3.4871zm-179.59 0.67805v120.98h26.347v-52.016h57.247v52.016h25.572v-120.98h-25.572v48.045h-57.247v-48.045zm177.55 18.985c14.239 0 25.185 4.262 31.384 11.042 6.1024 6.7805 9.2021 16.661 9.2021 29.737 0 13.367-4.5526 24.216-12.011 30.9-7.4585 6.7805-17.436 10.074-29.931 10.074-4.5526 0-11.333-0.2906-15.498-0.67805v-80.785c2.6153-0.19373 9.7833-0.29059 16.854-0.29059z" fill="#00437d" stroke-width=".96864"/><g transform="matrix(.96864 0 0 .96864 -210.09 -81.947)" fill="#0086cb">
			<path d="m233.7 579c0.7 1 1.6 1.9 2.6 2.6s2.4 1.5 4.3 2.3 3.5 1.4 4.8 1.9c1.3 0.4 3.2 1 5.7 1.8 2.5 0.9 4.4 1.5 5.7 1.9s3.1 1.1 5.4 2 4.1 1.8 5.3 2.6 2.7 1.8 4.4 3 2.9 2.5 3.7 3.8 1.5 2.8 2.2 4.6c0.6 1.8 1 3.7 1 5.7 0 1.3-0.1 2.4-0.2 3.5-0.1 1-0.4 2.4-0.9 4.1s-1.1 3.2-1.9 4.5-2.1 2.7-3.7 4.1c-1.7 1.5-3.6 2.7-5.9 3.6-2.3 1-5.2 1.8-8.8 2.4s-7.5 1-12 1c-4.7 0-10-1.1-16-3.3s-10.1-4.4-12.4-6.8l7-9.9c3 2.6 6.7 4.6 11 6.2s7.8 2.4 10.4 2.4c7.1 0 12.3-1 15.6-3s4.9-4.4 4.9-7.2c0-1.3-0.2-2.5-0.7-3.6s-1.3-2.1-2.5-3.1-2.2-1.7-3.1-2.3-2.4-1.4-4.5-2.2c-2.2-0.9-3.7-1.5-4.5-1.8s-2.5-0.9-5.2-1.8-4.5-1.6-5.4-1.9c-0.9-0.4-2.6-1-5-2s-4-1.7-5-2.3c-0.9-0.6-2.2-1.5-3.8-2.7s-2.8-2.4-3.5-3.5-1.3-2.5-1.9-4.1-0.9-3.3-0.9-5.2c0-2.5 0.4-4.8 1.2-7s2.2-4.4 4.1-6.6 4.8-3.9 8.8-5.2c3.9-1.3 8.6-1.9 14.1-1.9 5 0 10 0.8 15 2.5s9.1 3.9 12.1 6.8l-8.3 8.6c-2.4-1.9-5.4-3.3-9-4.4s-6.8-1.7-9.8-1.7c-4.8 0-8.7 0.7-11.5 2.2s-4.2 3.5-4.2 6.2c0.2 1.1 0.6 2.2 1.3 3.2z"/>
			<path d="m355.3 611c0 3.8-0.7 7.2-2.2 10.1s-3.3 5.2-5.6 6.8c-2.2 1.6-4.8 2.9-7.7 4-2.9 1-5.6 1.7-8 2s-4.8 0.5-7.1 0.5c-2.2 0-4.5-0.2-6.8-0.5s-5-1-8-2-5.6-2.3-7.8-4c-2.2-1.6-4.1-3.9-5.7-6.8-1.5-2.9-2.3-6.3-2.3-10.1v-54.2h12.5v54.2c0 3.5 1.7 6.3 5.1 8.5s7.7 3.3 12.9 3.3c5.3 0 9.7-1.1 13-3.3s5-5 5-8.6v-54.2h12.6v54.3zm-36.1-61.8c-1.2 1.2-2.8 1.8-4.5 1.8-1.9 0-3.5-0.6-4.6-1.7-1.2-1.1-1.8-2.8-1.8-4.9s0.6-3.7 1.8-4.8 2.7-1.6 4.6-1.6c1.7 0 3.2 0.6 4.5 1.8s1.9 2.7 1.9 4.6c0 2-0.6 3.6-1.9 4.8zm18.6 0c-1.2 1.2-2.8 1.8-4.5 1.8-1.9 0-3.5-0.6-4.7-1.7s-1.8-2.8-1.8-4.9 0.6-3.7 1.8-4.8 2.8-1.6 4.8-1.6c1.8 0 3.3 0.6 4.5 1.8s1.9 2.7 1.9 4.6c-0.1 2-0.7 3.6-2 4.8z"/>
			<path d="m434 566.7c6.2 6.6 9.2 16.3 9.2 28.9 0 12.2-3.8 21.7-11.4 28.4-7.6 6.8-18.2 10.2-31.8 10.2-5.3 0-10.1-0.4-14.4-1.1s-7.2-1.4-8.9-2.1l-2.3-1.1v-73.2h30.2c13.4 0.1 23.2 3.4 29.4 10zm-3.4 28.9c0-5.6-0.7-10.3-2-14.1s-3.3-6.6-5.8-8.5c-2.6-1.9-5.3-3.2-8.2-4-2.9-0.7-6.4-1.1-10.4-1.1h-17.2v53.7c3.1 0.8 7.4 1.2 12.8 1.2 20.6 0.1 30.8-9 30.8-27.2z"/>
		</g>



</svg>
