<svg width="940.77" height="575.54" enable-background="new 0 0 1260 720" version="1.0" viewBox="0 0 940.77 575.54" xml:space="preserve" xmlns="http://www.w3.org/2000/svg">
<path d="m523.68 215.43c47.56-16.467 81.56-54.341 81.56-110.62 0-14.142-7.168-48.335-33.031-70.42-17.048-14.53-41.748-31.771-121.56-33.709-16.467-0.38745-66.642 1.3561-66.642 1.3561v2.9059c14.142 10.849 29.35 28.769 36.711 49.401 7.6523-0.29059 19.179-0.87178 30.512-0.29059 32.062 1.7436 46.01 7.6522 60.443 19.082 14.53 11.43 22.279 30.996 22.182 48.723-0.097 24.216-11.624 49.304-46.592 63.543-28.284 11.527-62.574 14.045-62.574 14.045v8.8146s20.535 9.7833 40.973 36.905c17.629 23.344 120.01 174.06 120.01 174.06h84.659c0.097 0-136.68-190.53-146.65-203.8zm-270.64 145.59h-47.366v-307.25c0.67805 0 21.213-0.29059 34.096-0.29059 52.888 0 82.238 27.316 83.012 64.899 0.48432 22.763-6.2962 44.654-29.544 60.734-18.985 13.174-45.429 17.048-45.429 17.048v9.8801s36.615 5.4244 55.212 14.142c34.677 16.176 44.945 41.361 45.139 73.81 0.58118 51.435-49.11 67.03-95.12 67.03zm-112.27-359.07v417.29h92.602c121.56 0 185.79-44.751 185.79-129.6 0-50.466-31.674-83.884-81.559-95.411 32.546-19.276 53.372-47.463 53.372-89.599 0-45.042-26.734-104.61-138.71-104.61-47.076 0-98.801 1.5498-111.49 1.9373z" fill="#0086cb" stroke-width=".96864"/><path d="m874.52 2.5185c-7.3617 0-14.82 0.0969-22.569 0.38745-7.5554 0.0969-14.917 0.2906-21.988 0.58119v121.47c3.2934 0.0969 5.8119 0.19373 7.3617 0.19373 13.174 0.48432 23.538 0.67805 31.19 0.67805 22.472 0 39.617-6.2962 52.888-17.436 13.464-11.042 19.373-26.056 19.373-46.495 0-10.558-0.775-19.663-3.9715-27.219-3.0996-7.5554-6.7804-13.658-12.786-18.404-5.8119-4.6495-12.98-8.1366-21.407-10.268-8.2334-2.4216-17.629-3.4871-28.09-3.4871zm-179.59 0.67805v120.98h26.347v-52.016h57.247v52.016h25.572v-120.98h-25.572v48.045h-57.247v-48.045zm177.55 18.985c14.239 0 25.185 4.262 31.384 11.042 6.1024 6.7805 9.2021 16.661 9.2021 29.737 0 13.367-4.5527 24.216-12.011 30.9-7.4585 6.7805-17.436 10.074-29.931 10.074-4.5526 0-11.333-0.2906-15.498-0.67805v-80.785c2.6153-0.19373 9.7833-0.29059 16.854-0.29059z" fill="#00437d" stroke-width=".96864"/>



<g transform="matrix(3.1077 0 0 3.1077 -87.015 -191.43)" fill="#0086cb"><path d="m28 246.3v-19.7c0-6.2 3.9-9.4 11.5-9.4h8.7v5.7h-8.7c-4.2 0-5.8 1-5.8 3.7v2h12.9v3.3c0 1.1-0.5 2.4-2.7 2.4h-10.2v12zm37.1 0c-7.6 0-11.6-3.3-11.6-9.5v-19.7h20.9v5.7h-15.2v5.7h13.7v3.3c0 1.6-0.9 2.4-2.7 2.4h-11v2.6c0 2.8 1.5 3.8 5.9 3.8h9.3v5.7zm33 0-2.2-6.3c-0.8-2.3-1.7-2.7-3.3-2.7h-4v-3.3c0-1.6 0.9-2.4 2.8-2.4h0.3c3.8 0 5.2-0.9 5.2-3.3v-2.2c0-2.5-1.4-3.3-5.2-3.3h-5.1v23.4h-5.6v-29.1h10.7c7.2 0 10.9 3 10.9 9v2.2c0 3.8-1.6 5.7-3.1 6.7 0.7 0.9 1.5 2.3 1.9 3.6l2.5 7.6h-5.8zm31.9 0c-1.5 0-2-0.5-3-2.3l-1.8-3.5-1.5-2.8-6.7-12.9c-0.5-1-0.9-1.5-1.9-1.8v23.3h-5.7v-29.1h2.9c4.4 0 7.4 0.4 9.8 5l6 11.7v-16.7h5.7v29.1zm20.8 0.5c-3.4 0-6.7-0.4-9.9-1.2h-0.1v-3.1c0-1.3 0.8-2.1 2.2-2.1 0.5 0 1.2 0.1 1.8 0.3 1.7 0.3 3.9 0.6 6 0.6 5 0 5.5-2.6 5.5-3.7 0-0.3-0.1-0.8-0.1-1l-14.3-5.1c-0.2-0.2-1.8-2.6-1.8-6.4 0-3.1 1.4-8.4 10.6-8.4 4 0 7.2 0.6 10.5 2.1l0.1 0.1v6.7h-3.2c-1.1 0-2.3-0.5-2.4-2.8-1.5-0.3-3.2-0.4-5-0.4-4.4 0-5.1 1.9-5.1 3.1 0 0.6 0.1 1.1 0.1 1.3l14.6 5.2c0.2 0.2 1.6 2.3 1.6 5.8 0 2.6-1 9-11.1 9m85.8-0.5c-7.6 0-11.6-3.3-11.6-9.5v-19.7h20.9v5.7h-15.2v5.7h13.7v3.3c0 1.6-0.9 2.4-2.7 2.4h-11v2.6c0 2.8 1.5 3.8 5.9 3.8h9.3v5.7z"/><path d="m273.2 246.3c-1.5 0-2-0.5-3-2.3l-1.8-3.5-1.5-2.9-6.7-12.8c-0.5-1-0.9-1.5-1.9-1.8v23.3h-5.7v-29.1h2.9c4.3 0 7.4 0.4 9.8 5l6 11.7v-16.7h5.7v29.1zm-60.6 0v-12.1h-11.3v12.1h-5.7v-29.1h5.7v11.4h11.3v-11.4h5.7v29.1zm-32.9 0c-7.6 0-11.6-3.3-11.6-9.5v-19.7h20.9v5.7h-15.2v5.7h13.7v3.3c0 1.6-0.9 2.4-2.7 2.4h-11v2.6c0 2.8 1.5 3.8 5.9 3.8h9.3v5.7z"/></g></svg>
