<svg id="f" version="1.1" viewBox="0 0 1456.2 279.27" xmlns="http://www.w3.org/2000/svg" xmlns:xlink="http://www.w3.org/1999/xlink">
 <defs id="g">
  <linearGradient id="c">
   <stop id="h" stop-color="#ffcc1b" offset="0"/>
   <stop id="i" stop-color="#a57c2a" offset="1"/>
  </linearGradient>
  <linearGradient id="e" x1="629.23" x2="629.23" y1="348.2" y2="449.61" gradientTransform="translate(-59.188 -286.74)" gradientUnits="userSpaceOnUse" xlink:href="#c"/>
  <linearGradient id="b" x1="905.79" x2="905.79" y1="472.31" y2="565.27" gradientUnits="userSpaceOnUse" xlink:href="#c"/>
  <linearGradient id="d" x1="409.89" x2="409.89" y1="347.83" y2="450.1" gradientUnits="userSpaceOnUse">
   <stop id="j" stop-color="#fff" offset="0"/>
   <stop id="k" stop-color="#adafb2" offset="1"/>
  </linearGradient>
  <linearGradient id="a" x1="1375" x2="1375" y1="287.09" y2="500.47" gradientUnits="userSpaceOnUse">
   <stop id="l" stop-color="#fcc91c" offset="0"/>
   <stop id="m" stop-color="#9d752b" offset=".87073"/>
   <stop id="n" stop-color="#d9b51f" offset="1"/>
  </linearGradient>
 </defs>
 <path id="o" d="m443.28 163.53v-11.176l71.842-73.197h-64.642v-18.376h103.14v10.209l-72.906 73.193h72.906v19.346h-110.34zm146.62 0v-11.176l71.838-73.197h-64.645v-18.376h103.15v10.209l-72.918 73.193h72.918v19.346h-110.34z" fill="url(#e)"/>
 <g id="p" transform="translate(-59.188 -286.74)" fill="url(#d)">
  <path id="q" d="m59.188 450.28v-102.75h88.08c8.096 0 13.958 1.585 17.589 4.765 3.631 3.177 5.443 8.228 5.443 15.159v12.547c0 4.923-1.522 8.859-4.565 11.81-3.049 2.944-7.424 4.776-13.122 5.494 5.895 0.777 10.446 2.88 13.648 6.312 3.215 3.434 4.821 7.912 4.821 13.415v13.124c0 6.812-2.498 11.863-7.486 15.17-4.991 3.3-12.576 4.953-22.749 4.953h-81.659zm78.066-86.03h-54.543v24.5h54.544c4.142 0 7.005-0.552 8.601-1.65 1.585-1.105 2.385-3.016 2.385-5.737v-9.724c0-2.653-0.8-4.552-2.385-5.682-1.597-1.138-4.46-1.707-8.602-1.707zm0 41.41h-54.543v26.15h54.544c4.532 0 7.591-0.679 9.187-2.038 1.589-1.361 2.373-3.759 2.373-7.189v-7.782c0-3.434-0.785-5.816-2.373-7.152-1.597-1.325-4.656-1.989-9.188-1.989zm70.116 44.62v-102.75h87.875c8.167 0 14.081 1.572 17.737 4.716 3.659 3.14 5.495 8.212 5.495 15.207v24.109c0 6.936-1.836 11.993-5.495 15.168-3.656 3.166-9.57 4.754-17.737 4.754h-13.415l47.435 38.794h-34.311l-41.41-38.794h-22.655v38.794zm77.281-84.962h-53.763v28.586h53.763c4.146 0 6.978-0.602 8.502-1.806 1.523-1.19 2.289-3.318 2.289-6.361v-12.346c0-2.98-0.766-5.072-2.289-6.274-1.523-1.197-4.356-1.799-8.502-1.799zm180.64-4.998c-0.857-3.385-2.331-6.129-4.594-8.081-3.675-3.131-9.562-4.715-17.731-4.715h-64.634c-8.161 0-14.102 1.584-17.737 4.715 0 5e-3 -9e-3 9e-3 -9e-3 9e-3 -4e-3 4e-3 -8e-3 4e-3 -8e-3 8e-3 -1.506 1.29-2.618 2.976-3.503 4.921-1.286 2.777-2.011 6.152-2.011 10.293l0.021 82.819h23.523v-38.766h64.064v38.765h23.519v-82.82c0-2.698-0.349-5.024-0.9-7.148zm-87.171 33.592v-20.515c0-2.974 0.762-5.07 2.287-6.265 1.466-1.154 4.169-1.744 8.058-1.785h43.891c4.172 0 6.982 0.59 8.521 1.763 1.5 1.228 2.27 3.318 2.27 6.31v20.492z"/>
  <path id="r" d="m795.72 450.28v-102.75h105.18v17.49h-81.274v22.951h47.435v17.5h-47.435v25.461h82.25v19.346h-106.16zm142.44 0v-102.75h87.885c8.153 0 14.071 1.572 17.731 4.716 3.66 3.14 5.493 8.212 5.493 15.207v24.109c0 6.936-1.834 11.993-5.493 15.168-3.659 3.166-9.577 4.754-17.731 4.754h-13.428l47.443 38.794h-34.309l-41.422-38.794h-22.647v38.794zm77.274-84.962h-53.752v28.586h53.751c4.149 0 6.99-0.602 8.506-1.806 1.523-1.19 2.285-3.318 2.285-6.361v-12.346c0-2.98-0.762-5.072-2.285-6.274-1.515-1.197-4.356-1.799-8.505-1.799zm158.34 0.197h-67.271v22.066h64.052c10.048 0 16.843 1.715 20.38 5.156 3.522 3.434 5.294 9.817 5.294 19.145v14.094c0 9.336-1.772 15.719-5.294 19.162-3.537 3.422-10.331 5.141-20.38 5.141h-63.47c-10.048 0-16.835-1.719-20.368-5.141-3.533-3.443-5.29-9.826-5.29-19.162v-4.115h21.088v9.072h72.611v-23.423h-64.06c-9.976 0-16.72-1.721-20.219-5.154-3.502-3.43-5.248-9.82-5.248-19.154v-11.37c0-9.331 1.746-15.709 5.248-19.152 3.499-3.438 10.243-5.149 20.219-5.149h58.329c9.662 0 16.307 1.65 19.978 4.953 3.659 3.312 5.493 9.174 5.493 17.596v4.591h-21.092z"/>
 </g>
 <g id="s" transform="translate(-59.188 -286.74)" fill="url(#a)">
  <path id="t" d="m1500.4 299.99s-41.51-13.243-121.74-13.243c-80.24 0-121.74 13.243-121.74 13.243-15.009 17.661-15.009 93.791-15.009 93.791s0 76.129 15.009 93.791c0 0 41.502 13.25 121.74 13.25 80.229 0 121.74-13.25 121.74-13.25 15.013-17.662 15.013-93.791 15.013-93.791s0-76.13-15.013-93.791zm-57.327 150.34h-29.567l-27.718-74.091c-1.623-4.318-6.714-7.854-11.323-7.854h-24.376c-4.613 0-8.383 3.774-8.383 8.39v73.555h-30.631v-73.555c0-4.616-3.774-8.39-8.391-8.39h-28.392v-28.354h127.9s25.873 75.014 26.347 74.738c0.754-0.446 27.132-74.738 27.132-74.738h27.3z" fill="url(#a)"/>
 </g>
 <g id="u" transform="translate(-59.188 -286.74)" fill="url(#b)">
  <path id="v" d="m635.37 547.44v-75.863h82.382v15.706h-60.454v12.843l56.601 0.199v14.32h-56.601v14.818h61.443v17.978h-83.371zm160.72 0 0.494-9.679c0-0.892-0.197-1.087-0.494 0-2.569 9.285-16.1 10.469-25.287 10.469-23.905 0-33.192-5.037-33.389-23.509v-32.103h21.633v29.534c0 9.878 4.544 10.471 18.472 10.471 6.915 0 18.868 0.494 18.868-11.953v-28.053h22.621v54.821h-22.918zm92.46-30.326c0-6.913-2.272-9.579-11.556-9.579-6.913 0-14.224 1.678-14.224 11.953v27.953h-22.422v-54.821h21.633l-0.396 10.27c0 1.286 0.396 1.286 0.988-0.195 3.654-10.965 14.025-10.965 22.721-10.965 16.791 0 23.903 5.531 23.903 19.262v6.123h-20.647zm79.916 30.917c-36.845 0-41.489-4.838-41.489-28.15 0-23.411 5.038-28.35 41.489-28.35 36.447 0 41.684 4.741 41.684 28.35 0 23.509-4.84 28.15-41.684 28.15zm0.395-41.881c-17.582 0-19.853 1.778-19.853 13.532 0 11.56 2.272 13.139 19.853 13.139 17.386 0 19.855-1.579 19.855-13.139 0-11.754-2.469-13.532-19.855-13.532zm104.61 41.29c-18.472 0-21.237-3.26-23.706-8.1-0.792-1.579-0.988-1.975-0.988 0v26.671h-19.461v-73.392h18.868v8.888c0 1.581 0.394 1.382 0.789 0 4.446-8.295 14.324-9.285 24.696-9.285 27.362 0 30.524 7.903 30.524 29.93 0 20.251-4.842 25.288-30.722 25.288zm-7.113-39.906c-16.397 0-17.781 3.06-17.781 12.94 0 9.779 1.384 12.841 17.781 12.841 16.2 0 17.78-3.062 17.78-12.841 1e-3 -9.879-1.58-12.94-17.78-12.94zm93.646 40.696c-31.806 0-36.252-10.075-36.252-28.349 0-23.213 9.581-28.35 36.252-28.35 31.609 0 35.858 6.716 35.462 28.35v3.656h-51.861c0 10.963 2.471 12.347 16.399 12.347 12.544 0 16.2-0.99 16.2-6.815h19.461c0 14.912-7.706 19.161-35.661 19.161zm0-44.352c-13.137 0-16.2 1.284-16.2 8.297h33.19c0-8-4.446-8.297-16.99-8.297z" fill="url(#b)"/>
 </g>
</svg>
