<svg version="1.1" viewBox="0 0 800 277.55" xml:space="preserve" xmlns="http://www.w3.org/2000/svg"><defs><clipPath id="a"><path d="M 0,595.276 H 841.89 V 0 H 0 Z"/></clipPath></defs><g transform="matrix(1.3333 0 0 -1.3333 -448.1 636.66)"><g transform="matrix(3.5172 0 0 3.5172 936.08 477.5)"><path d="m0 0h-39.14l-6.715-50.352h39.142z" fill="#fff"/></g><g transform="matrix(3.5172 0 0 3.5172 -845.97 -677.96)"><g clip-path="url(#a)"><g transform="translate(506.04 323.77)"><path d="m0 0 0.631 4.744h-39.139l-6.715-50.351h39.141l0.633 4.746h-11.182c-1.053 0-1.793 0.853-1.652 1.906 0.139 1.053 1.109 1.908 2.16 1.908l4e-3 -2e-3v2e-3h5.453l0.381 2.856h-14.65c-1.412 0-2.403 1.144-2.213 2.554l3.879 29.082c0.189 1.41 1.48 2.551 2.888 2.555zm-22.996-30.195h18.97l3.497 26.226h-18.967z" fill="#fab20b"/></g><g transform="translate(427.87 310.48)"><path d="m0 0c0 7.29-5.966 13.255-13.257 13.255h-29.576v-40.787h16.318v19.443l8.157-19.443h17.339l-6.541 15.589c4.457 2.141 7.56 6.691 7.56 11.943m-19.376-3.059h-7.139v6.119h7.139c1.658 0 3.06-1.402 3.06-3.06 0-1.657-1.402-3.059-3.06-3.059" fill="#093158"/></g><g transform="translate(373.69 304.65)"><path d="m0 0c3.113 1.751 5.231 5.084 5.231 8.892 0 5.608-4.588 10.196-10.198 10.196l-32.634 1e-3v-40.787h33.653c6.171 0 11.219 5.048 11.219 11.217 0 4.781-3.036 8.875-7.271 10.481m-21.284 8.892h6.119c1.658 0 3.06-1.401 3.06-3.059s-1.402-3.059-3.06-3.059h-6.119zm7.139-20.393h-7.139v6.118h7.139c1.659 0 3.06-1.4 3.06-3.059 0-1.658-1.401-3.059-3.06-3.059" fill="#093158"/></g><g transform="translate(471.18 307.43)"><path d="m0 0h-22.275v4.078h22.819l1.633 12.236h-40.769v-40.787h16.317v12.237h20.643z" fill="#093158"/></g><g transform="translate(336.08 269.49)"><path d="m0 0v8.671h6.136v-1.625h-4.29v-1.819h4.199v-1.625h-4.199v-3.602z" fill="#fab20b"/></g><g transform="translate(344.2 269.49)"><path d="m0 0v8.671h6.136v-1.625h-4.29v-1.819h4.199v-1.625h-4.199v-1.977h4.29v-1.625z" fill="#fab20b"/></g><g transform="translate(357.66 275.38)"><path d="m0 0c0 0.715-0.56 1.156-1.287 1.156h-1.95v-2.34h1.95c0.727 0 1.287 0.443 1.287 1.184m-0.183-5.89-1.702 3.081h-1.352v-3.081h-1.846v8.671h4.056c1.807 0 2.924-1.182 2.924-2.795 0-1.52-0.974-2.352-1.911-2.574l1.964-3.302z" fill="#fab20b"/></g><g transform="translate(367.59 269.49)"><path d="m0 0-4.134 5.655v-5.655h-1.845v8.671h1.897l4.018-5.447v5.447h1.845v-8.671z" fill="#fab20b"/></g><g transform="translate(371.19 270.71)"><path d="m0 0 1.015 1.443c0.61-0.636 1.559-1.182 2.756-1.182 1.027 0 1.507 0.455 1.507 0.962 0 1.507-4.992 0.455-4.992 3.717 0 1.444 1.248 2.64 3.289 2.64 1.378 0 2.523-0.416 3.38-1.209l-1.026-1.379c-0.702 0.651-1.639 0.949-2.523 0.949-0.78 0-1.221-0.337-1.221-0.857 0-1.365 4.978-0.442 4.978-3.68 0-1.586-1.143-2.782-3.471-2.782-1.676 0-2.873 0.56-3.692 1.378" fill="#fab20b"/></g><g transform="translate(380.3 269.49)"><path d="m0 0v8.671h6.136v-1.625h-4.29v-1.819h4.199v-1.625h-4.199v-1.977h4.29v-1.625z" fill="#fab20b"/></g><g transform="translate(394.62 269.49)"><path d="m0 0v3.653h-4.095v-3.653h-1.845v8.671h1.845v-3.405h4.095v3.405h1.859v-8.671z" fill="#fab20b"/></g><g transform="translate(398.9 269.49)"><path d="m0 0v8.671h6.136v-1.625h-4.29v-1.819h4.199v-1.625h-4.199v-1.977h4.29v-1.625z" fill="#fab20b"/></g><g transform="translate(413.26 269.49)"><path d="m0 0-4.134 5.655v-5.655h-1.845v8.671h1.897l4.018-5.447v5.447h1.845v-8.671z" fill="#fab20b"/></g></g></g></g></svg>
