<svg width="2130.3" height="636" version="1.1" viewBox="0 0 2130.3 636" xml:space="preserve" xmlns="http://www.w3.org/2000/svg">
<g class="st6" transform="matrix(18.224 0 0 -18.224 -1616.4 8056.4)" fill="#fff">
		<path d="m103.7 420.3v-6.3c0-4.3-2.1-6.4-6.4-6.4h-8.6v34.4h8.5c4.3 0 6.4-2.1 6.4-6.4v-5.1c0-3-1-4.6-2.9-5.3 2-0.6 3-2.1 3-4.9zm-7.3 17h-2.5v-10h2.3c1.5 0 2.2 0.7 2.2 2.2v5.9c0 1.3-0.6 1.9-2 1.9zm-2.5-25.1h2.6c1.3 0 2 0.6 2 2v6.5c0 1.5-0.7 2.2-2.2 2.2h-2.4z"/>
		<path d="m127.8 419.2v-5.6c0-4.3-2.1-6.4-6.4-6.4h-2.3c-4.3 0-6.3 2.1-6.3 6.3v7.3h5.1v-7.1c0-1.3 0.6-2 2-2h0.7c1.4 0 2 0.6 2 2v4.7c0 1.4-0.5 2.1-1.5 2.8l-5.3 3.9c-2.4 1.7-3 3.3-3 5.9v4.7c0 4.3 2.1 6.4 6.4 6.4h2.2c4.2 0 6.3-2.1 6.3-6.3v-6.2h-5.2v6c0 1.3-0.6 2-2 2h-0.6c-1.3 0-2-0.6-2-2v-3.8c0-1.4 0.5-2.1 1.5-2.8l5.3-3.9c2.4-1.6 3.1-3.1 3.1-5.9z"/>
		<path d="m141.9 417.7 3.3 24.3h7.8v-34.5h-5.2v25.9l-3.8-25.9h-5l-3.8 25.9v-25.9h-4.5v34.5h7.9z"/>
		<path d="m172 407.5h-5.2l-0.7 5.4h-5.5l-0.6-5.4h-4.9l4.9 34.5h7zm-10.7 10.1h4.3l-2.1 17.2z"/>
		<path d="m189.3 419.2v-11.7h-5.3v11.6c0 1.5-0.7 2.2-2.2 2.2h-2.4v-13.8h-5.3v34.5h8.7c4.3 0 6.4-2.1 6.4-6.4v-6.5c0-3-1.1-4.5-3-5.3 2.2-0.6 3.1-1.9 3.1-4.6zm-7.3 18.1h-2.6v-11.4h2.4c1.5 0 2.2 0.7 2.2 2.1v7.3c0 1.3-0.7 2-2 2z"/>
		<path d="m195.6 407.5v29.6h-4.7v4.8h14.7v-4.8h-4.7v-29.6z"/>
	</g><path d="m847.46 130.04 275.99 238.49-275.99 238.5z" fill="#89be34" stop-color="#000000" stroke-width="1.3333" style="paint-order:stroke fill markers"/>
</svg>
