<svg width="515.02pt" height="114pt" version="1.1" viewBox="0 0 515.02 114" xmlns="http://www.w3.org/2000/svg">
 <g transform="matrix(.14925 0 0 .14925 -4.2824 -2.8239)">
  <g fill="#ffc20c">
   <path d="m395.35 19.39c5.81-1.72 12.83 1.42 14.91 7.25 2.45 6.21-0.59 14.89-7.39 16.74-3.6 0.74-7.72 0.91-10.86-1.3-5.24-3.12-7.58-10.32-4.86-15.84 1.52-3.37 4.63-5.92 8.2-6.85z"/>
   <path d="m497.52 33.77c7.23-2.39 14.96 3.79 15.33 11.1 0.57 6.63-4.75 14.01-11.82 13.7-6.54 0.54-12.66-5.02-13.08-11.5-0.61-6 3.72-11.94 9.57-13.3z"/>
   <path d="m294.11 33.84c7.73-1.92 15.58 5.37 14.8 13.16-0.11 6.22-5.58 11.83-11.87 11.75-7.24 0.62-14.34-6.4-12.97-13.74 0.21-5.53 4.71-10.17 10.04-11.17z"/>
   <path d="m199.59 76.82c5.41-1.3 12.09 0.81 14.47 6.17 3.25 5.75 1.2 14.02-4.84 17.02-5.84 3.5-14.12 1.06-17.22-4.98-4.08-6.69 0.24-16.13 7.59-18.21z"/>
   <path d="m593.23 76.19c9.53-1.25 16.78 10.63 11.74 18.64-4.27 7.73-16.87 8.32-21.48 0.64-5.73-7.31 0.47-19.55 9.74-19.28z"/>
   <path d="m122.26 144.13c7.03-2.11 14.95 3.58 15.65 10.82 1.15 7.26-5.56 14.55-12.91 13.86-4.88 0.24-9.03-3.41-11.21-7.49-3.27-6.77 1.53-15.22 8.47-17.19z"/>
   <path d="m666.27 144.3c7.96-3.96 18.28 2.85 17.9 11.68 0.37 7.8-8.06 13.92-15.39 12.14-6.03-0.99-10.19-7.3-9.62-13.21 0.18-4.51 3.12-8.62 7.11-10.61z"/>
   <path d="m394.98 199.86c19.06-0.13 38.23 2.07 56.62 7.27 51.31 14.26 95.83 51.1 119.49 98.81 17.48 33.94 23.48 73.3 18.94 111.07-4.68 40.27-23.32 78.51-51.17 107.85-32.02 34.29-77.15 55.94-123.89 59.71-7.65 0.01-15.29 1.54-22.93 0.46-40.24-1.09-79.9-15.75-111.6-40.48-34.14-26.48-59-64.67-69.03-106.72-11.96-48.29-4.16-101.24 21.74-143.79 29.11-49.57 81.62-84.92 138.75-92.18 7.6-1.61 15.4-1.15 23.08-2z"/>
   <path d="m66.42 230.72c5.81-1.47 12.61 1.08 15.15 6.69 3.52 7.03-1.11 16.32-8.74 17.94-7.44 1.9-15.76-4.57-15.36-12.32-0.2-5.47 3.58-10.94 8.95-12.31z"/>
   <path d="m724.26 230.08c7.53-2.47 15.63 4.16 15.49 11.86 0.59 7.65-7.31 14.07-14.69 12.59-8.07-1.02-12.64-10.76-9.26-17.89 1.8-3.19 4.89-5.68 8.46-6.56z"/>
   <path d="m752.47 328.67c5.36-1.57 11.6 0.42 14.47 5.36 4.03 5.93 1.44 14.77-4.99 17.81-7.29 4.35-17.77-1.37-18.14-9.84-1.01-5.87 3.03-11.7 8.66-13.33z"/>
   <path d="m38.27 329.16c6.48-1.41 14.35 3.03 15.22 9.95 1.19 4.93-1.2 10.25-5.46 12.89-3.19 2.27-7.37 2.06-11.05 1.5-6.24-2.18-9.86-9.73-7.62-16 1.29-4.09 4.88-7.13 8.91-8.34z"/>
   <path d="m754.11 430.85c6.68-0.85 14.33 3.95 14.79 11.06 0.93 6.86-4.82 14.12-11.92 13.92-7.42 0.84-14.24-6.57-13.02-13.89 0.47-5.42 4.77-10.16 10.15-11.09z"/>
   <path d="m38.3 431.95c7.35-1.9 16.09 4.12 15.67 12.02 0.45 7.36-6.83 13.92-14.12 12.72-7.94-0.51-13.28-9.79-10.14-17.01 1.34-3.81 4.68-6.75 8.59-7.73z"/>
   <path d="m67.45 530.57c4.14-0.85 8.79 0.06 11.85 3.11 3.53 3.4 4.45 8.87 3.06 13.45-2.36 6.12-9.9 10.15-16.18 7.55-5.26-1.71-8.66-7.28-8.22-12.73-0.12-5.45 4.57-9.91 9.49-11.38z"/>
   <path d="m721.67 530.89c6.66-3.79 15.67 0.36 17.89 7.48 2.8 7.72-4.42 17.15-12.65 16.17-6.95 0.05-12.72-6.8-11.96-13.61 0.3-4.24 3.02-8.05 6.72-10.04z"/>
   <path d="m669.6 616.15c7.83-2.09 16.36 5.95 14.98 13.92-0.7 7.55-9.81 13.55-16.87 10.2-6.53-2.28-10.29-10.62-7.23-16.92 1.68-3.68 5.22-6.28 9.12-7.2z"/>
   <path d="m122.32 617.17c7.07-2.76 15.22 2.73 16.29 10 1.61 7.75-5.79 15.47-13.58 14.52-8.74 0.01-14.38-11.3-9.96-18.56 1.65-2.71 4.21-4.97 7.25-5.96z"/>
   <path d="m590.71 683.85c8.77-3.11 18.71 5.77 15.88 14.83-1.25 7.3-9.7 12.04-16.52 8.92-6.48-1.98-9.91-9.74-7.38-15.95 0.97-3.91 4.32-6.6 8.02-7.8z"/>
   <path d="m199.42 684.63c5.79-2.39 13.14 0.43 15.79 6.1 2.58 5.27 1.1 12.32-3.76 15.76-5.85 4.4-15.53 2.38-18.64-4.41-3.37-6.27-0.27-15.18 6.61-17.45z"/>
  </g>
  <g fill="#f58a1e">
   <path d="m393.4 68.71c7.92-2.98 17.41 1.67 20.44 9.45 4.17 8.76-1.57 20.19-10.87 22.5-8.78 2.52-19.34-3.33-20.74-12.62-1.79-8.11 3.2-16.91 11.17-19.33z"/>
   <path d="m307.55 80.84c4.46-0.95 9.37-0.3 13.16 2.35 5.14 3.43 7.85 9.89 7.12 15.98-0.88 8.09-8.5 15.25-16.82 14.6-8.9 0.25-16.54-7.95-16.29-16.73-0.17-7.54 5.5-14.6 12.83-16.2z"/>
   <path d="m480.19 81.06c9.48-3.23 20.74 3.84 21.7 13.85 1.32 9.6-7.06 19.44-16.92 18.79-8.49 0.06-15.92-7.33-16.26-15.75-0.72-7.45 4.52-14.56 11.48-16.89z"/>
   <path d="m230.14 116.87c9.07-0.68 18.28 6.82 18.26 16.2 0.82 10.47-10.28 19.72-20.42 16.83-10.02-1.95-15.98-14.22-11.4-23.34 2.36-5.4 7.81-8.94 13.56-9.69z"/>
   <path d="m562.11 116.93c9.99-2.16 20.28 6.84 19.54 17.02 0.09 9.47-9.35 17.52-18.68 15.94-9.5-0.77-16.52-10.96-14.24-20.14 1.36-6.45 6.92-11.66 13.38-12.82z"/>
   <path d="m625.68 175.05c6.63-2.17 14.64-0.3 18.81 5.53 5.56 6.8 4.54 17.93-2.68 23.17-7.7 6.62-20.89 3.81-25.28-5.34-4.86-8.54-0.1-20.3 9.15-23.36z"/>
   <path d="m159.39 175.7c8.69-3.95 19.55 1.65 22.07 10.68 3.39 9.9-5.03 21.38-15.4 21.38-9.87 0.76-18.59-9.13-17.12-18.8 0.69-5.93 4.9-11.13 10.45-13.26z"/>
   <path d="m113.73 248.89c8.8-2.55 18.94 3.21 20.81 12.26 2.49 9.97-6.18 20.95-16.51 20.51-8.46 0.19-16.1-7.25-16.41-15.66-0.68-7.67 4.79-15.07 12.11-17.11z"/>
   <path d="m674.29 248.25c7.56-2.32 16.36 1.8 19.47 9.07 3.66 7.1 0.91 16.4-5.6 20.83-3.99 3.01-9.3 3.02-14.02 2.35-8.11-2.08-13.47-11.24-11.68-19.37 1.07-6.11 5.89-11.21 11.83-12.88z"/>
   <path d="m88.68 333.02c6.58-1.96 14.33 0.18 18.29 5.96 5.55 7.41 3.6 19.05-4.23 24.06-7.94 5.44-20.18 2.21-24.08-6.69-4.87-8.73 0.51-20.72 10.02-23.33z"/>
   <path d="m701.09 331.94c7.56-1.16 15.56 3.55 18.09 10.82 2.48 6.88-0.12 15.23-6.24 19.32-7.7 5.57-19.91 2.73-24.14-5.89-5.53-9.54 1.37-23 12.29-24.25z"/>
   <path d="m698.63 420.1c9.09-3.05 19.82 3.37 21.38 12.83 1.8 8.58-4.37 17.8-12.99 19.41-7.77 1.84-16.44-2.8-18.97-10.41-3.54-8.58 1.79-19.18 10.58-21.83z"/>
   <path d="m86.41 421.56c3.59-1.65 7.73-1.79 11.57-1.08 8.07 1.77 13.59 10.49 12.09 18.56-1.01 7.82-8.16 14.33-16.08 14.37-8.42 0.17-16.38-6.87-16.89-15.34-0.67-6.73 3.19-13.63 9.31-16.51z"/>
   <path d="m675.15 503.86c9.21-2.34 19.41 4.7 20.29 14.2 1.58 9.89-7.46 19.76-17.51 18.69-10-0.09-17.78-10.75-15.31-20.33 1.38-6.12 6.43-11.12 12.53-12.56z"/>
   <path d="m112.25 505.19c6.96-2.72 15.51-0.44 19.84 5.76 4 5.73 4.18 14.19-0.25 19.76-4.55 6.12-13.61 8.49-20.47 5.01-6.22-2.91-10.35-9.86-9.51-16.74 0.48-6.09 4.64-11.68 10.39-13.79z"/>
   <path d="m627.44 577.72c8.49-2.13 18.18 3.06 20.19 11.77 3.2 9.65-4.66 20.6-14.68 21.15-8.2 0.84-16.43-5.32-17.7-13.51-1.73-8.34 3.67-17.67 12.19-19.41z"/>
   <path d="m160.39 578.68c7.92-3.38 17.75 1.06 20.87 8.97 2.98 6.27 1.29 14.17-3.73 18.88-7.13 7.06-20.73 5.54-25.75-3.33-5.7-8.56-1.26-21.45 8.61-24.52z"/>
   <path d="m226.82 635.93c4.78-1.21 10.32-1.11 14.48 1.83 6.11 4.01 9.57 12.18 6.84 19.2-2.21 7.25-9.75 12.11-17.24 11.48-9.7-0.58-17.25-11.03-14.95-20.43 1.23-5.56 5.49-10.23 10.87-12.08z"/>
   <path d="m561.31 635.2c7.28-2.18 15.52 1.85 18.88 8.54 3.48 6.44 2.16 15.24-3.61 19.94-4.43 4.25-11.09 4.98-16.82 3.53-8.69-2.96-13.35-13.72-9.88-22.15 1.78-5.01 6.39-8.53 11.43-9.86z"/>
  </g>
  <g fill="#f05921">
   <path d="m376.57 138.57c3.71-8.27 12.54-13.52 21.46-13.84 8.23 0.1 16.62 4.16 20.9 11.36 4.86 7.23 4.65 16.74 1.18 24.51-9.06-0.07-18.08-1.4-27.14-0.85-5.37 0.41-10.73 0.79-16.11 0.86-3.35-6.85-3.77-15.17-0.29-22.04z"/>
   <path d="m322.94 135.78c7.65-2.26 16.41-0.44 22.43 4.83 6.73 5.58 9.95 14.9 8.14 23.45-5.63 1.1-11.13 2.72-16.71 4.05-8.4 1.99-16.25 5.77-24.62 7.89-3.92-4.39-6.77-9.93-6.85-15.93-0.63-10.84 6.92-21.77 17.61-24.29z"/>
   <path d="m450.41 141.37c4.32-4.36 10.48-6.41 16.51-6.69 10.02-0.02 19.9 6.64 23.12 16.23 3.07 8.45 0.76 18.66-5.72 24.88-8.82-2.62-17.32-6.28-26.32-8.26-4.83-1.13-9.62-2.49-14.5-3.38-2.01-8.12 0.78-17.12 6.91-22.78z"/>
   <path d="m517.8 166.78c7.38-4.4 17.18-4.56 24.58-0.11 8.36 4.73 13.18 14.81 11.8 24.29-0.93 7.5-5.73 14.19-12.2 17.97-7.94-5.36-15.42-11.42-23.86-15.98-4.06-2.3-8.07-4.7-12.17-6.92 0.44-7.84 4.99-15.38 11.85-19.25z"/>
   <path d="m249.64 170.69c6.63-6.54 17.11-8.83 25.79-5.32 8.7 3.11 14.7 11.7 15.5 20.79-6.34 3.56-12.67 7.18-18.89 10.96-5.86 4-11.6 8.18-17.39 12.29-5.93-3.85-10.73-9.82-11.94-16.92-1.53-7.85 1.41-16.14 6.93-21.8z"/>
   <path d="m197.27 216.22c4.44-4.48 10.57-6.78 16.77-7.38 9.96 0.22 19.38 6.41 22.96 15.79-6.09 6.72-12.76 12.95-18.24 20.21-3.24 4.16-6.5 8.31-9.75 12.46-7.74-1.93-14.44-7.66-17.27-15.15-3.57-8.71-1.29-19.45 5.53-25.93z"/>
   <path d="m559.98 224.03c4.13-11.68 18.52-18.43 30.17-14.17 10.43 3.33 17.53 14.38 16.55 25.24-0.62 10.37-8.84 19.5-18.95 21.6-3.78-5.01-7.74-9.87-11.59-14.82-4.96-6.33-11.36-11.42-16.18-17.85z"/>
   <path d="m170.96 268.23c9.26-2.55 19.47 1.21 25.46 8.57-3.25 6.28-6.47 12.57-9.59 18.91-2.86 6.65-5.5 13.4-8.17 20.12-11.95 1.28-23.65-8.01-25.59-19.77-2.48-12.07 6.09-24.86 17.89-27.83z"/>
   <path d="m600.59 276.45c4.32-5.76 11.26-9.29 18.39-9.73 6.65 0.02 13.51 2.34 18.21 7.19 7.29 7.07 9.3 18.95 4.67 28.01-4.25 8.63-13.8 14.03-23.36 13.69-4.77-13.56-10.64-26.75-17.91-39.16z"/>
   <path d="m134.04 351.99c2.91-12.26 16.72-20.64 28.92-17.51 3.2 0.59 6.08 2.15 8.88 3.74-1.16 8.99-3.57 17.79-4.3 26.84-0.55 5.42-0.83 10.88-1.77 16.25-7.31 2.28-15.66 1.41-21.94-3.13-8.35-5.52-12.41-16.55-9.79-26.19z"/>
   <path d="m625.25 337.85c6.07-4.08 13.81-5.68 20.94-3.75 7.79 2.1 14.07 8.47 16.65 16.04 2.99 8.92 0.12 19.46-7.07 25.56-6.46 6.04-16.06 7.24-24.34 4.87-0.77-7.26-1.41-14.53-2.3-21.78-1.17-7-2.6-13.96-3.88-20.94z"/>
   <path d="m631.41 403.76c5.12-1.43 10.66-1.85 15.76-0.12 7.76 2.48 14.19 9.07 16.09 17.04 2.44 9.53-1.49 20.38-9.62 25.96-8.29 5.79-20.13 5.66-28.39-0.13 1.26-7.02 2.73-14 3.95-21.03 0.9-7.22 1.44-14.48 2.21-21.72z"/>
   <path d="m134.07 422.01c2.41-10.71 12.87-19.28 23.97-18.74 2.73-0.05 5.39 0.62 8 1.33 0.58 6.12 1.19 12.23 1.77 18.35 0.79 8.09 3.25 15.93 4.1 24-7.9 6.77-20.61 6.03-28.76-0.08-7.53-5.56-11.37-15.73-9.08-24.86z"/>
   <path d="m618.76 468.61c9.7-0.21 19.21 5.49 23.36 14.3 5.33 10.68 1.32 25.17-9.25 31-10.15 6.44-24.54 3.75-31.85-5.75 3.94-8.45 8.81-16.47 12.08-25.23 1.87-4.78 3.81-9.53 5.66-14.32z"/>
   <path d="m156.11 482.17c4.38-8.13 13.6-12.88 22.72-12.61 4.77 13.45 10.72 26.49 18.01 38.76-5.35 7.22-14.89 11.25-23.77 9.44-4.47-0.72-8.59-2.93-12-5.85-8.18-7.21-10.58-20.29-4.96-29.74z"/>
   <path d="m588.26 527.61c6.05 1.87 11.81 5.38 15.18 10.9 5.23 8.09 4.73 19.22-0.8 27.03-4.56 6.59-12.6 10.72-20.64 10.22-9.61-0.04-18.31-6.8-21.89-15.53 6.29-6.75 13.1-13.05 18.66-20.45 3.15-4.07 6.37-8.08 9.49-12.17z"/>
   <path d="m192.15 543.24c2.81-7.53 9.8-12.68 17.27-15.03 8.47 11.67 17.97 22.55 28.31 32.6-3.11 7.49-9.82 13.57-17.92 14.96-5.96 1.49-12.3-0.05-17.51-3.08-9.7-5.84-14.25-18.87-10.15-29.45z"/>
   <path d="m243.76 603.3c-2.69-10.12 1.96-22.03 11.35-26.94 2.85 1.01 5.03 3.35 7.6 4.92 9.1 6.75 18.94 12.37 28.84 17.84-0.45 12.11-11.42 22.65-23.53 22.59-10.99 0.33-21.59-7.76-24.26-18.41z"/>
   <path d="m531.47 583.43c3.78-2.41 7.12-5.57 11.21-7.46 10.91 5.77 15.32 20.71 9.84 31.68-4.8 10.29-17.49 16.26-28.42 12.8-9.68-2.65-17.05-11.6-17.77-21.62 8.38-5.14 17.26-9.47 25.14-15.4z"/>
   <path d="m312.72 622.88c2.03-0.49 4.14-0.46 6.22-0.49 53.98 0.06 107.95-0.04 161.92 0.05 9.29-0.17 17.36 9.44 15.07 18.57-1.35 7.37-8.5 12.64-15.92 12.23-53.67 0.09-107.34-0.01-161.01 0.05-3.49-0.07-7.17-0.31-10.25-2.1-5.89-3.36-8.93-10.93-7.05-17.43 1.31-5.3 5.84-9.43 11.02-10.88z"/>
   <path d="m315.41 665.51c54.88-0.19 109.76-0.03 164.65-0.08 6.35-0.21 12.83 3.57 15.1 9.64 2.49 5.79 0.69 12.89-3.99 17.06-3.09 3.31-7.8 4.22-12.15 4.2-54.01-0.04-108.02 0.02-162.03-0.03-5.49 0.09-11.02-2.69-13.69-7.58-3.31-5.51-2.76-13.1 1.6-17.9 2.65-3.01 6.46-5.07 10.51-5.31z"/>
   <path d="m315.41 708.54c54.54-0.2 109.09-0.01 163.64-0.1 4.91-0.24 9.98 1.44 13.33 5.15 5.18 5.6 5.18 15.07-0.2 20.54-3.22 3.82-8.34 5.25-13.17 5.22-54.01-0.04-108.02 0.05-162.03-0.05-7.01 0.02-13.91-4.67-15.37-11.72-2.54-8.89 4.47-18.81 13.8-19.04z"/>
   <path d="m333.95 751.58c43.14-0.15 86.28-0.11 129.42-0.02-12.95 16.06-31.92 27.25-52.4 30.2-28.66 4.7-58.97-7.57-77.02-30.18z"/>
  </g>
 </g>
 <g transform="matrix(.78293 0 0 .78293 113.73 32.084)" fill="#e57728">
  <path d="m247.05 9.24c7.79-4.3 17.05-3.8 25.36-1.43 0 2.67-0.03 5.34-0.07 8.01-5.59-3.23-12.34-5.1-18.71-3.27-6.78 1.88-11.24 8.67-11.82 15.46-0.41 4.99-0.15 10.3 2.42 14.74 2.42 4.7 7.43 7.68 12.61 8.24 6.17 0.37 11.82-2.71 16.92-5.82-0.21 2.79-0.45 5.58-0.82 8.36-8.91 3.23-19.58 5.04-27.97-0.55-15.36-9.43-13.81-35.65 2.08-43.74z"/>
  <path d="m299.18 6.2c6.49-0.95 13.4 0.95 18.5 5.08 11.04 8.93 11.87 27.38 2.31 37.66-6.1 6.81-16.25 9.23-24.94 6.77-8.79-2.06-15.58-9.78-17.25-18.56-1.3-7.64-0.32-16.34 5.14-22.25 3.93-5.02 10.06-7.74 16.24-8.7m-2.78 6.31c-6.91 1.7-11.52 8.63-11.76 15.55-0.68 8.97 4.07 19.28 13.16 22.06 6.52 2.49 14.24-0.41 18.1-6.08 6.44-9.6 3.23-24.18-6.61-30.23-3.88-2.26-8.64-2.39-12.89-1.3z"/>
  <path d="m9.27 7c6.9-0.08 14.12-0.56 20.62 2.21 4.25 1.62 6.77 6.43 6.13 10.86-0.24 4.39-3.96 7.28-6.92 10.03 3.5 1.77 7.3 3.92 8.48 7.96 1.2 4.69 0.79 10.95-3.74 13.77-7.16 4.76-16.26 3.94-24.46 3.95 2.31-9.75 1.59-19.84 1.76-29.78-0.16-6.36-0.25-12.81-1.87-19m9.14 4.83c-0.04 5.42 0.07 10.85-0.01 16.27 3.05-0.24 6.5-0.6 8.67-3.04 2.2-2.22 1.98-5.78 1.22-8.57-2.06-3.32-6.25-4.3-9.88-4.66m0.04 20.14c-0.1 6.34-0.09 12.68-0.06 19.02 3.66-0.7 7.84-1.07 10.53-3.97 3.18-3.37 2.67-9.17-0.63-12.28-2.8-2.13-6.45-2.5-9.84-2.77z"/>
  <path d="m46.42 6.99c3.52 0.04 7.04 0.01 10.57 0.05-2.18 8.51-1.4 17.32-1.53 26-0.02 4.61 0.4 9.56 3.17 13.41 3.57 5.49 12.64 6.07 16.85 1.05 2.83-3.08 3.05-7.52 3.09-11.49-0.08-9.68 0.57-19.45-1.33-29.02 3.48-0.01 6.97-0.02 10.45-0.03-1.37 5.6-1.67 11.35-1.43 17.09 0.28 10.58-0.91 21.32 1.33 31.76-2.73-0.02-5.45-0.01-8.18-0.05-0.04-1.63-0.08-3.25-0.11-4.88-4.85 3.83-10.97 6.48-17.26 5.72-5.52-0.29-10.47-4.23-12.04-9.51-4.23-13.02 0.23-27-3.58-40.1z"/>
  <path d="m98.02 7.04c8.84-0.19 17.68-0.07 26.52-0.08-1.15 2.31-2.3 4.62-3.39 6.96-4.66-0.68-9.35-1.47-14.08-1.12-0.18 5.04-0.03 10.08 0.06 15.11 5.24 0.16 10.49 0.11 15.73 0.13-1.48 2.5-2.97 5.01-4.6 7.41-3.74-0.9-7.56-1.41-11.38-1.71 0.18 5.41 0.25 10.83 0.16 16.25 6.79-0.35 13.56-1.03 20.11-2.91-1.04 2.94-2.26 5.8-3.42 8.7-8.55 0.12-17.1-0.04-25.65 0.02 2.22-11.47 1-23.2 1.29-34.8 0.25-4.71-0.7-9.33-1.35-13.96z"/>
  <path d="m129.16 7c4.1-0.1 8.2-0.18 12.29 0.2 5.1 9.1 11.77 17.2 17.29 26.04 2.5 3.93 5.14 7.77 7.97 11.47 0.06-12.57 1.15-25.35-1.58-37.72 3.45 0.02 6.9 0.01 10.35-0.01-2.54 10.48-1.4 21.34-1.69 32.01-0.23 5.64 0.35 11.27 1.43 16.8-3.21 0.02-6.42 0.02-9.63-0.06-2.03-4.22-4.75-8.05-7.57-11.79-5.21-7.39-10.11-15-15.48-22.28-0.04 11.37-0.9 22.87 1.37 34.11-3.46 0.06-6.91 0.04-10.36 0.06 2.84-13.84 1.3-28.03 1.7-42.03-2.02-2.28-4.07-4.53-6.09-6.8z"/>
  <path d="m331.15 7c3.73 0.01 7.46-0.03 11.2 0.02 1 3.75 3.87 6.47 6.21 9.4 3.83 4.65 7.61 9.34 11.4 14.03 3.26-3.92 6.33-7.97 9.54-11.92 2.9-3.61 5.98-7.18 7.77-11.5 3.38-0.04 6.76-0.03 10.14-0.06-4.23 5.76-4.01 13.18-4.07 19.98 0.02 9.63-0.28 19.35 1.61 28.84-3.49 0.04-6.98-0.01-10.47 0.03 2.37-11.43 1.61-23.13 1.59-34.71-6.15 5.93-10.38 13.55-16.12 19.86-5.86-6.05-10.5-13.17-16.28-19.3 0.29 11.38-0.89 22.9 1.47 34.13-3.49 0.02-6.97-0.01-10.46 0.05 2.8-12.76 1.22-25.9 1.7-38.83 0.82-4.26-2.84-7.09-5.23-10.02z"/>
  <path d="m391.68 7c6.97 0.36 14.27-1.09 20.94 1.52 3.95 1.44 6.82 5.27 7.33 9.41 0.77 5.13 0.09 11.27-4.31 14.64-4.31 3.07-9.82 2.98-14.83 3.78-0.39 6.52 0.23 13.01 1.2 19.45-3.34 0.05-6.69 0.05-10.03 0.04 1.96-10.51 0.91-21.23 1.17-31.85 0.24-5.7-0.3-11.4-1.47-16.99m9.15 4.84c-0.12 6.82-0.01 13.64-0.03 20.45 3.95-0.33 8.83-0.79 10.96-4.7 2.33-4.53 1.24-10.54-2.48-14.02-2.38-1.89-5.61-1.59-8.45-1.73z"/>
  <path d="m426.95 7.01c7.8 0.05 16.48-0.81 23.33 3.68 4.82 3.15 5.49 9.57 4.21 14.72-1.27 4.16-5.31 6.39-8.7 8.63 5.11 7.59 10.65 14.92 17.05 21.47 3.79-4.99 6.5-10.64 9.31-16.2 5.05-10.67 10.44-21.16 15.33-31.9 5.48 10.34 10.09 21.13 15.41 31.56 2.6 5.96 5.91 11.57 9.66 16.88-3.68-0.05-7.36-0.04-11.03-0.1-0.69-5.32-2.94-10.26-5.37-14.98-5.68-0.77-11.71-0.3-17.5-0.16-2.85 4.48-3.65 10.09-4.83 15.25-6.11-0.23-12.23 0.27-18.32-0.14-7.44-6.25-13.43-14.01-19.38-21.65-0.2 7.27-0.12 14.62 1.6 21.73-3.58 0.03-7.16 0.03-10.73-0.07 2.28-7.71 1.46-15.84 1.62-23.76-0.02-8.34 0.52-16.81-1.66-24.96m9.05 4.74c-0.07 6.58 0.14 13.15-0.06 19.73 2.99-0.56 6.14-1.11 8.57-3.08 4.43-2.92 4.72-10.16 0.65-13.53-2.53-2.22-6.02-2.47-9.16-3.12m51.27 8.36c-2.46 4.8-4.51 9.79-6.36 14.85 4.18 0.04 8.37 0.05 12.56 0.02-2.07-4.96-3.77-10.07-6.2-14.87z"/>
  <path d="m186.91 43.97c6.04-12.24 12.03-24.51 17.87-36.84 2.59 5.69 5.5 11.22 8.09 16.91 5.4 10.69 9.75 22 16.82 31.76-3.68-0.01-7.36 0-11.04-0.01-0.63-5.34-3.2-10.07-5.1-15.01-5.98-0.58-11.99-0.16-17.99-0.23-1.91 4.92-3.81 9.9-4.35 15.19-3.78 0.1-7.56 0.08-11.34 0.08 2.58-3.8 5.03-7.71 7.04-11.85m17.56-23.86c-2.46 4.76-4.38 9.77-6.22 14.79 4.06 0.13 8.11 0.13 12.17 0.03-1.73-5.03-3.71-9.99-5.95-14.82z"/>
 </g>
</svg>
