<svg width="1147.2pt" height="1122.9pt" version="1.1" viewBox="0 0 1147.2 1122.9" xmlns="http://www.w3.org/2000/svg">
 <g transform="translate(-26.226 -38.911)">
  <path d="m563.13 50.06c183.54-37.545 391.82 19.743 508.6 171.77 123.72 154.43 128.85 378.2 46.493 551.87-116.34 256.25-408.38 428.12-689.63 380.1-176.86-26.674-333.99-159.24-381.52-332.98-65.124-220.01 28.311-464.12 197.36-611.93 89.6-79.935 200.51-136.58 318.7-158.84z" fill="#e43111"/>
 </g>
 <g transform="translate(-26.226 -38.911)">
  <path d="m236.19 327.16c2.95-2.54 7.05-2.705 10.76-2.725h74.02c3.18 0.08 6.72 0.155 9.28 2.295 2.38 1.96 2.62 5.35 2.23 8.2l-16.9 122.5c14.6-11.92 31.88-20.79 50.43-24.49 18.86-4.05 39.31-2.52 56.58 6.47 13.86 7.05 25.02 18.86 31.97 32.71l-4.92-23.33c-0.65-2.99-0.85-6.45 1.19-8.97 1.89-2.47 5.16-3.17 8.11-3.12h79.04c3.05 0 6.35 0.5 8.68 2.65 2.74 2.42 3.64 6.14 4.25 9.6l25.35 145.18c0.2 1.62 1.13 3.34 2.89 3.65 2.11 0.42 3.77-1.34 4.47-3.13l66.12-147.17c2.34-5.43 6.84-10.95 13.32-10.78h133.93c2.81 0.05 6 0.09 8.22 2.11 2.52 2.31 3 5.92 3.58 9.12 1.04 7.46 1.78 14.96 2.72 22.44 11.7-11.98 25.16-22.44 40.42-29.46 17.7-8.19 37.76-11.81 57.13-8.91 16.42 2.44 32.17 10.2 43.48 22.46 10.74 11.45 17.29 26.37 19.91 41.76 2.09 12.11 1.84 24.54 0.12 36.69l-23.29 165.3c11.37-23.66 37.35-40.03 63.81-38.07 16.34 0.93 32.22 10.23 39.97 24.83 9.18 16.68 7.25 37.79-2.09 53.98-9.81 17.29-27.45 30.07-47.1 33.46-12.59 2.21-26.1 0.48-37.19-6.08-11.71-6.73-19.89-18.77-22.54-31.94l-2.8 20.1c-0.53 3.74-1.5 7.82-4.6 10.29-3.02 2.43-7.07 2.605-10.76 2.655h-73.93c-3.37-0.09-7.24-0.135-9.74-2.725-2.55-2.92-1.99-7.11-1.56-10.64l28.23-200.01c1.33-9.3 0.86-19.95-5.72-27.3-7.49-8.32-20.51-9.25-30.3-4.79-8.53 3.69-14.85 11.38-17.98 20.01-2.45 6.43-3.1 13.32-4.08 20.08l-26.69 189.14c-0.67 4.41-0.93 9.38-4.2 12.78-3.07 3.22-7.84 3.425-12.01 3.455l-74.02 2.5e-4c-3.3-0.09-7.18-0.25525-9.48-2.9852-2.16-2.66-1.83-6.33-1.46-9.5l33.51-237.44-118.42 240.66c-1.81 3.57-4.15 7.54-8.34 8.56-2.323 0.47652-4.6728 0.64816-7.0332 0.70525h-58.707c-5.92 0.14-8.84-5.9852-9.68-11.015l-50.53-239.92c-0.23 10.54-2.06 20.93-3.45 31.36l-16.12 115.59c-2.28 17.27-7.6 34.23-16.44 49.29-15.1 26.16-41.15 46.05-70.83 52.35-12.79 3.01-25.99 2.2552-39.01 2.3452h-133.99c-3.33-0.09-7.24-0.22525-9.58-2.9452-2.38-2.97-1.77-7.04-1.37-10.53l58.36-416.07c0.65-3.87 1.7-8.04 4.78-10.73m90.24 193.48c-6.96 2.09-13.08 6.72-17.13 12.74-4.37 6.32-6.47 13.9-7.48 21.43l-15.54 111.04c-0.42 3.57-0.85 7.99 2.13 10.65 3.53 2.8 8.35 2.13 12.55 2.26 7.35-0.24 14.97 0.84 22.05-1.73 8.34-2.84 15.09-9.41 18.81-17.32 4.41-8.93 4.79-19.04 6.33-28.69l10.57-75.82c0.93-6.64 1.3-13.57-0.81-20.03-1.63-5.11-5-9.75-9.69-12.45-6.51-3.85-14.65-4.25-21.79-2.08z" fill="#ecebdb"/>
 </g>
</svg>
