<?xml version="1.0" encoding="UTF-8"?>
<!-- Created with Inkscape (http://www.inkscape.org/) -->
<svg id="svg2" width="602.25" height="126.19" version="1.1" xmlns="http://www.w3.org/2000/svg" xmlns:cc="http://creativecommons.org/ns#" xmlns:dc="http://purl.org/dc/elements/1.1/" xmlns:rdf="http://www.w3.org/1999/02/22-rdf-syntax-ns#" xmlns:xlink="http://www.w3.org/1999/xlink">
 <metadata id="metadata131">
  <rdf:RDF>
   <cc:Work rdf:about="">
    <dc:format>image/svg+xml</dc:format>
    <dc:type rdf:resource="http://purl.org/dc/dcmitype/StillImage"/>
    <dc:title/>
   </cc:Work>
  </rdf:RDF>
 </metadata>
 <defs id="defs4">
  <clipPath id="clipPath28841">
   <path id="path28843" d="m194.11 722.6v-4.23l4.456-0.42-5e-3 4.65z"/>
  </clipPath>
  <clipPath id="clipPath28851">
   <path id="path28853" d="m-0.33247 0.20874h0.59288v0.61873h-0.59288z"/>
  </clipPath>
  <clipPath id="clipPath28867">
   <path id="path28869" d="m194.7 730.72h4.067l1e-3 1e-3v7.131z"/>
  </clipPath>
  <clipPath id="clipPath28877">
   <path id="path28879" d="m-0.899-1.0837h1.8941v2.1673h-1.8941z"/>
  </clipPath>
  <clipPath id="clipPath28893">
   <path id="path28895" d="m198.47 745.72c-0.48-0.389-0.933-0.798-1.272-1.303l-9.817-14.822c-0.484-0.715-0.761-1.739-0.761-2.452 0-2.651 2.15-4.307 4.147-4.42h7.802l5e-3 -4.768 7.753 0.335v4.321h1.983c2.074 0 3.46 1.93 3.46 4.039 0 2.066-1.343 3.839-3.473 3.934l-1.971 0.134 2e-3 10.239c0 3.355-2.416 5.974-4.501 5.974l-0.236 6e-3c-1.116 0-2.05-0.347-3.121-1.217m0.303-7.864v-7.133h-4.068z"/>
  </clipPath>
  <clipPath id="clipPath28903">
   <path id="path28905" d="m-0.003952-1.0221h2.0239v2.1154h-2.0239z"/>
  </clipPath>
  <clipPath id="clipPath28931">
   <path id="path28933" d="m199.88 746.67 0.017 5e-3zm-3.723-1.168c-0.424-0.198-1.382-0.733-1.861-1.409l-10.93-14.771c-0.507-0.752-0.808-1.647-0.808-2.409 0-2.677 2.086-4.199 4.346-4.199l3.633-0.1c-2.17 0.119-4.145 1.938-4.145 4.525 0 0.76 0.292 1.827 0.799 2.579l9.814 14.818c0.358 0.53 0.81 0.991 1.331 1.364 0.466 0.333 0.984 0.593 1.544 0.77zm-5.392-22.895-0.228 7e-3z"/>
  </clipPath>
  <clipPath id="clipPath28941">
   <path id="path28943" d="m0.014053-0.71864h1.9421v1.4607h-1.9421z"/>
  </clipPath>
  <clipPath id="clipPath28961">
   <path id="path28963" d="m198.51 737.4-1e-3 -6.337 0.256-0.345 1e-3 0.011v7.12h-1e-3z"/>
  </clipPath>
  <clipPath id="clipPath28971">
   <path id="path28973" d="m0.10861-4.2561h0.64665v8.5245h-0.64665z"/>
  </clipPath>
  <clipPath id="clipPath28987">
   <path id="path28989" d="m194.9 731.06-0.197-0.346h4.067l-0.257 0.346z"/>
  </clipPath>
  <clipPath id="clipPath28997">
   <path id="path28999" d="m0.37798-1.3507h0.46439v2.7214h-0.46439z"/>
  </clipPath>
  <clipPath id="clipPath30283">
   <path id="path30285" d="m447.17 713h61.971v12.986h-61.971z"/>
  </clipPath>
  <radialGradient id="radialGradient37648" cx="0" cy="0" r="1" gradientTransform="matrix(7.5149 0 0 -7.5149 196.61 724.17)" gradientUnits="userSpaceOnUse">
   <stop id="stop28857" stop-color="#515b76" offset="0"/>
   <stop id="stop28859" stop-color="#c7ccdb" offset="1"/>
  </radialGradient>
  <linearGradient id="linearGradient37650" x2="1" gradientTransform="matrix(3.2396 -1.9616 -1.9616 -3.2396 196.58 734.38)" gradientUnits="userSpaceOnUse">
   <stop id="stop28883" stop-color="#505a75" offset="0"/>
   <stop id="stop28885" stop-color="#c7ccdb" offset="1"/>
  </linearGradient>
  <linearGradient id="linearGradient37652" x2="1" gradientTransform="matrix(15.637 -8.1942 -8.1942 -15.637 183.72 741.26)" gradientUnits="userSpaceOnUse">
   <stop id="stop28909" stop-color="#bcc7d1" offset="0"/>
   <stop id="stop28911" stop-color="#fff" offset="1"/>
  </linearGradient>
  <linearGradient id="linearGradient37654" x2="1" gradientTransform="matrix(.89478 12.948 12.948 -.89478 190.19 721.9)" gradientUnits="userSpaceOnUse">
   <stop id="stop28947" stop-color="#9b9bbd" offset="0"/>
   <stop id="stop28949" stop-color="#c7c7d5" offset=".30338"/>
   <stop id="stop28951" stop-color="#e9ecf0" offset=".61798"/>
   <stop id="stop28953" stop-color="#bdc1d1" offset="1"/>
  </linearGradient>
  <linearGradient id="linearGradient37656" x2="1" gradientTransform="matrix(.83661 -.033462 -.033462 -.83661 198.28 734.3)" gradientUnits="userSpaceOnUse">
   <stop id="stop28977" stop-color="#b6c1d0" offset="0"/>
   <stop id="stop28979" stop-color="#fff" offset="1"/>
  </linearGradient>
  <linearGradient id="linearGradient37658" x2="1" gradientTransform="matrix(-.12993 -1.4942 -1.4942 .12993 196.83 731.8)" gradientUnits="userSpaceOnUse">
   <stop id="stop29003" stop-color="#b6c1d0" offset="0"/>
   <stop id="stop29005" stop-color="#fff" offset="1"/>
  </linearGradient>
 </defs>
 <g id="layer1" transform="translate(553.78 -234.66)">
  <g id="g37727">
   <g id="g28837" transform="matrix(1.25 0 0 -1.25 -184.09 1051.8)">
    <g id="g28839" clip-path="url(#clipPath28841)">
     <g id="g28845">
      <g id="g28847">
       <g id="g28849" clip-path="url(#clipPath28851)">
        <path id="path28861" d="m194.11 722.6v-4.23l4.456-0.42-5e-3 4.65z" fill="url(#radialGradient37648)"/>
       </g>
      </g>
     </g>
    </g>
   </g>
   <g id="g28863" transform="matrix(1.25 0 0 -1.25 -184.09 1051.8)">
    <g id="g28865" clip-path="url(#clipPath28867)">
     <g id="g28871">
      <g id="g28873">
       <g id="g28875" clip-path="url(#clipPath28877)">
        <path id="path28887" d="m194.7 730.72h4.067l1e-3 1e-3v7.131z" fill="url(#linearGradient37650)"/>
       </g>
      </g>
     </g>
    </g>
   </g>
   <g id="g28889" transform="matrix(1.25 0 0 -1.25 -184.09 1051.8)">
    <g id="g28891" clip-path="url(#clipPath28893)">
     <g id="g28897">
      <g id="g28899">
       <g id="g28901" clip-path="url(#clipPath28903)">
        <path id="path28913" d="m198.47 745.72c-0.48-0.389-0.933-0.798-1.272-1.303l-9.817-14.822c-0.484-0.715-0.761-1.739-0.761-2.452 0-2.651 2.15-4.307 4.147-4.42h7.802l5e-3 -4.768 7.753 0.335v4.321h1.983c2.074 0 3.46 1.93 3.46 4.039 0 2.066-1.343 3.839-3.473 3.934l-1.971 0.134 2e-3 10.239c0 3.355-2.416 5.974-4.501 5.974l-0.236 6e-3c-1.116 0-2.05-0.347-3.121-1.217m0.303-7.864v-7.133h-4.068z" fill="url(#linearGradient37652)"/>
       </g>
      </g>
     </g>
    </g>
   </g>
   <g id="g28927" transform="matrix(1.25 0 0 -1.25 -184.09 1051.8)">
    <g id="g28929" clip-path="url(#clipPath28931)">
     <g id="g28935">
      <g id="g28937">
       <g id="g28939" clip-path="url(#clipPath28941)">
        <path id="path28955" d="m199.88 746.67 0.017 5e-3zm-3.723-1.168c-0.424-0.198-1.382-0.733-1.861-1.409l-10.93-14.771c-0.507-0.752-0.808-1.647-0.808-2.409 0-2.677 2.086-4.199 4.346-4.199l3.633-0.1c-2.17 0.119-4.145 1.938-4.145 4.525 0 0.76 0.292 1.827 0.799 2.579l9.814 14.818c0.358 0.53 0.81 0.991 1.331 1.364 0.466 0.333 0.984 0.593 1.544 0.77zm-5.392-22.895-0.228 7e-3z" fill="url(#linearGradient37654)"/>
       </g>
      </g>
     </g>
    </g>
   </g>
   <g id="g28957" transform="matrix(1.25 0 0 -1.25 -184.09 1051.8)">
    <g id="g28959" clip-path="url(#clipPath28961)">
     <g id="g28965">
      <g id="g28967">
       <g id="g28969" clip-path="url(#clipPath28971)">
        <path id="path28981" d="m198.51 737.4-1e-3 -6.337 0.256-0.345 1e-3 0.011v7.12h-1e-3z" fill="url(#linearGradient37656)"/>
       </g>
      </g>
     </g>
    </g>
   </g>
   <g id="g28983" transform="matrix(1.25 0 0 -1.25 -184.09 1051.8)">
    <g id="g28985" clip-path="url(#clipPath28987)">
     <g id="g28991">
      <g id="g28993">
       <g id="g28995" clip-path="url(#clipPath28997)">
        <path id="path29007" d="m194.9 731.06-0.197-0.346h4.067l-0.257 0.346z" fill="url(#linearGradient37658)"/>
       </g>
      </g>
     </g>
    </g>
   </g>
   <path id="path30219" d="m-428.88 234.66v126.19h7.4062v-126.19z" color="#000000" fill="#f60" style="text-decoration-line:none;text-indent:0;text-transform:none"/>
   <path id="path30231" d="m-542.75 283.14h-11.03v56.96h21.283c6.5211-0.068 11.545-1.9728 15.064-5.7242 3.5278-3.7513 5.316-8.9895 5.3548-15.724 0-2.7795-0.37902-5.3257-1.1273-7.6484-0.75803-2.3227-1.8854-4.4316-3.4014-6.3364-1.9534-2.4588-4.2761-4.1595-6.9584-5.0924-2.6823-0.93297-5.8991-1.38-9.6407-1.3411h-9.5435zm6.7543 24.141c4.2761-0.0583 7.3957 0.83578 9.388 2.6823 1.9826 1.8465 2.9641 5.005 2.935 9.4852 0.0389 4.3053-0.8455 7.3471-2.6531 9.1159-1.7979 1.7688-4.7329 2.624-8.7952 2.5657h-7.629v-23.849z" fill="#f60" fill-rule="evenodd"/>
   <path id="path30235" d="m-475.66 311.5 9.1353 28.601h12.712l14.14-41.867h-11.361l-9.2131 29.32-9.3005-29.32h-11.75l-9.145 29.32-9.2131-29.32h-11.594l14.616 41.867h12.235z" fill="#f60"/>
   <path id="path30239" d="m-410.61 305.02v34.724h15.88v-30.943h45.463v-13.032h-45.463c0.068-6.4433 1.7202-11.118 4.937-14.033 3.2168-2.9058 8.2023-4.3344 14.957-4.2858h25.569v-13.139h-24.209c-6.9778-0.0194-12.906 0.67058-17.765 2.0603-4.8689 1.3897-8.766 3.5764-11.691 6.5599-3.314 3.4306-5.4423 7.765-6.4044 13.013-0.9524 5.2479-1.38 11.604-1.2731 19.077" fill="#044c98"/>
   <path id="path30243" d="m-321.56 328.6c-2.6823 0.068-4.6843-0.23324-6.0157-0.89409-1.3217-0.67057-1.9923-2.1283-1.9826-4.3733-0.0194-2.4296 0.71917-4.0817 2.1964-4.9661 1.4772-0.88438 3.761-1.3023 6.8515-1.2537h17.27v11.487zm-19.466-44.306v11.458h24.413c4.6065-0.068 7.9788 0.54423 10.107 1.8368 2.138 1.2828 3.1876 3.6638 3.1585 7.1236v1.3703h-19.262c-7.6873-0.068-13.305 1.2731-16.852 4.0234-3.5375 2.7406-5.2868 7.2985-5.248 13.645 0.0292 5.1313 1.5064 9.077 4.4316 11.827 2.935 2.7503 7.1722 4.1303 12.712 4.1595h39.369v-34.714c-0.01-6.8515-1.9145-12.012-5.7339-15.491-3.8193-3.4792-9.5143-5.2285-17.095-5.2382z" fill="#044c98" fill-rule="evenodd"/>
   <path id="path30247" d="m-275.38 284.3v55.444h14.723v-43.247h17.163v43.247h14.937v-43.247h8.2121c3.8096-0.0875 6.3558 0.58311 7.6581 1.9923 1.312 1.4189 1.9145 4.0914 1.8174 8.008v33.247h14.723v-35.142c0.0389-7.2499-1.7979-12.459-5.5201-15.637-3.7222-3.1779-9.5629-4.7329-17.522-4.6648z" fill="#044c98"/>
   <path id="path30249" d="m-136.26 264.3h-15.248v75.434h15.248z" fill="#044c98"/>
   <path id="path30253" d="m-99.92 327.55c-3.9068 0.0972-6.5211-0.57339-7.8428-1.9826-1.3314-1.4189-1.9437-4.1692-1.8465-8.2315v-33.033h-14.51v34.189c-0.0486 7.7067 1.759 13.188 5.4423 16.463 3.6833 3.2848 9.5435 4.8786 17.6 4.7912h12.955v0.94269c-0.0097 2.5462-0.75804 4.4899-2.245 5.8505-1.4772 1.3606-3.6444 2.0409-6.5016 2.0603h-26.201v11.244h28.728c7.0847 0.01 12.333-1.7688 15.744-5.3354 3.4112-3.5764 5.1119-8.9798 5.0924-16.239v-53.966h-14.616v43.247z" fill="#044c98"/>
   <path id="path30257" d="m-183.39 277.84-0.0875-13.635h15.248l0.01 13.664-15.17-0.0292z" fill="#f60"/>
   <path id="path30261" d="m-168.21 339.72h-15.316v-55.201l15.316-0.0194v55.22z" fill="#044c98"/>
   <path id="path30273" d="m-58.288 284.56v11.04h10.311v27.046c0.03887 5.695 1.4966 10.01 4.383 12.945 2.8864 2.9252 6.9973 4.4024 12.342 4.4122h13.363v-11.04h-5.9963c-3.6638 0.0292-6.1809-0.83578-7.5415-2.5851-1.3606-1.759-2.002-4.5385-1.934-8.3578v-22.42h15.472v-11.04h-15.472v-19.991h-14.616v19.991z" fill="#f60"/>
   <path id="path30277" d="m-15.4 284.56 23.47 55.444h15.783l24.617-55.444h-15.783l-16.308 39.35-15.365-39.35z" fill="#f60"/>
   <g id="g30281" transform="matrix(9.7184 0 0 -9.7184 -4899.6 7290.1)" clip-path="url(#clipPath30283)" fill="#044c98">
    <g id="g30287" transform="translate(497.42 715.74)" fill="#044c98">
     <path id="path30289" d="m0 0c4e-3 -0.194 0.071-0.355 0.2-0.483 0.129-0.127 0.293-0.194 0.492-0.198 0.2 4e-3 0.364 0.071 0.493 0.198 0.129 0.128 0.195 0.289 0.2 0.483-5e-3 0.2-0.071 0.366-0.2 0.498s-0.293 0.2-0.493 0.205c-0.199-5e-3 -0.363-0.073-0.492-0.205s-0.196-0.298-0.2-0.498" fill="#044c98"/>
    </g>
   </g>
  </g>
 </g>
</svg>
