<svg viewBox="0 0 2247.8 585.97" xmlns="http://www.w3.org/2000/svg">
 <defs>
  <style>.cls-1{fill:url(#a);}.cls-2{fill:#0b2043;}</style>
  <radialGradient id="a" cx="2000.1" cy="560.21" r="405.68" gradientTransform="translate(3.06)" gradientUnits="userSpaceOnUse">
   <stop stop-color="#097faa" offset="0"/>
   <stop stop-color="#114b71" offset=".66"/>
   <stop stop-color="#162f53" offset="1"/>
  </radialGradient>
 </defs>
 <g data-name="Layer 2">
  <g data-name="Layer 5">
   <path class="cls-1" d="M1952,489.48,2134.7,0H1662.83V89.23l142.9-.06c22.86.07,35.39,16.47,28,36.63L1664.13,586h583.66V525.91l-267.5,0C1957.44,526,1944.77,509.7,1952,489.48Z"/>
   <path class="cls-2" d="m1424.8 486.62v-393.38l37.48 0.51v392.87c-1.16 0-36.43 1.05-37.48 0z"/>
   <path class="cls-2" d="M519.11,307.67q0-44.55-23.8-69.37t-69.88-24.81q-35.46,0-62.29,22.27L377.31,256q18.74-13.15,45.08-13.17,58.74,0,58.74,61.79v9.62H424.41q-93.18,0-93.19,92.68,0,19.24,6.09,34.68a73.56,73.56,0,0,0,43.55,43.31A96.08,96.08,0,0,0,415.8,491q56.22,0,73.94-39.5c-.74,2-.65,31.3-.74,31.23.09.09,29.77.17,29.87.15Zm-38,95.72q0,28.88-15.63,44.31t-42.85,15.45q-52.42,0-52.42-60.26,0-31.92,13.1-46.34t44.88-14.44h52.92Z"/>
   <path class="cls-2" d="M1243.58,307.67q0-44.55-23.8-69.37t-69.89-24.81q-35.45,0-62.29,22.27L1101.79,256q18.72-13.15,45.06-13.17,58.74,0,58.75,61.79v9.62h-56.72q-93.2,0-93.18,92.68,0,19.24,6.08,34.68a73.56,73.56,0,0,0,43.55,43.31,96.06,96.06,0,0,0,35,6.07q56.19,0,73.92-39.5c-.74,2-.64,31.3-.74,31.23.1.09,29.78.17,29.87.15Zm-38,95.72q0,28.88-15.63,44.31t-42.84,15.45q-52.45,0-52.44-60.26,0-31.92,13.1-46.34t44.88-14.44h52.93Z"/>
   <path class="cls-2" d="M170.08,457.62q-25.58,31.59-69.74,31.6-67.26,0-89.81-58.7Q0,402.92,0,351.74,0,303.58,11,275q22.59-60.21,89.31-60.21,42.16,0,66.23,32.11l-25.09,15.56q-14-18.57-41.14-18.56-39.12,0-52.69,38.62-9,25.11-9,70.75,0,34.62,7,61.71,11,45.18,56.7,45.16,27.09,0,44.66-19.07Z"/>
   <path class="cls-2" d="M869.4,482.2H831.77V313.61q0-27.09-9-43.65-14.54-26.58-47.15-26.59-27.11,0-44.15,18.56Q712.86,282,712.86,315.12V482.2H675.23V222.3h27.6v38.62h1.5q10-20.55,28.09-32.1Q754,214.29,778.1,214.27q51.17,0,75.25,34.63,16,23.57,16,63.72Z"/>
  </g>
 </g>
</svg>
