<svg version="1.1" viewBox="0 0 800 211.69" xml:space="preserve" xmlns="http://www.w3.org/2000/svg" xmlns:xlink="http://www.w3.org/1999/xlink"><defs><linearGradient id="a"><stop stop-color="#ffc200" offset="0"/><stop stop-color="#ff687e" offset="1"/></linearGradient><linearGradient id="g" x1="-49.433" x2="2.6444" y1="16.246" y2="-4.995" gradientUnits="userSpaceOnUse" xlink:href="#a"/><linearGradient id="f" x1="-2.832" x2="12.1" y1="17.679" y2="17.679" gradientUnits="userSpaceOnUse" xlink:href="#a"/><linearGradient id="e" x1="-.92952" x2="41.925" y1="4.9579" y2="4.9579" gradientUnits="userSpaceOnUse" xlink:href="#a"/><linearGradient id="d" x1="-2.832" x2="11.75" y1=".022789" y2="35.439" gradientUnits="userSpaceOnUse" xlink:href="#a"/><linearGradient id="c" x1="-49.433" x2="2.6444" y1="16.246" y2="-1.4479" gradientUnits="userSpaceOnUse" xlink:href="#a"/><linearGradient id="b" x1="10.658" x2="28.525" y1="-9.7033" y2="19.363" gradientUnits="userSpaceOnUse" xlink:href="#a"/></defs><g transform="matrix(1.3333 0 0 -1.3333 -6.5537e-6 211.69)">
<g transform="matrix(2.7995 0 0 2.7995 6.9304 26.447)" fill="url(#e)"><path d="m0 0c-1.245-0.845-1.238-2.681 0.013-3.517l7.315-4.887c2.096-1.4 4.831-1.39 6.916 0.025l27.681 18.79-13.4 8.952z" fill="url(#b)"/></g><g transform="matrix(2.7995 0 0 2.7995 7.9293 38.764)" fill="url(#f)"><path d="m0 0 12.1 8.214v17.484l-14.932 9.977v-34.175c0-1.455 1.628-2.318 2.832-1.5" fill="url(#d)"/></g><g transform="matrix(2.7995 0 0 2.7995 138.39 93.156)" fill="url(#g)"><path d="m0 0-33.521 22.394c-2.097 1.401-4.835 1.389-6.921-0.03l-8.991-6.118 44.4-29.663 5.069 3.441c3.531 2.397 3.511 7.606-0.036 9.976" fill="url(#c)"/></g><g transform="matrix(2.7995 0 0 2.7995 -339.61 -294.84)" fill="#737373"><g transform="translate(198.79 135.43)"><path d="m0 0c1.29 0 2.461 0.304 3.513 0.914 1.051 0.61 1.842 1.427 2.373 2.453l-1.114 0.662c-0.442-0.848-1.083-1.52-1.922-2.015-0.839-0.494-1.789-0.742-2.85-0.742-1.591 0-2.925 0.544-4.003 1.63-1.078 1.087-1.617 2.426-1.617 4.017s0.539 2.929 1.617 4.016 2.412 1.63 4.003 1.63c1.061 0 2.011-0.247 2.85-0.741 0.839-0.496 1.453-1.167 1.842-2.016l1.088 0.637c-0.478 1.043-1.238 1.869-2.28 2.479-1.043 0.609-2.21 0.914-3.5 0.914-1.997 0-3.659-0.663-4.984-1.988-1.326-1.326-1.988-2.969-1.988-4.931s0.662-3.605 1.988-4.931c1.325-1.325 2.987-1.988 4.984-1.988" fill="#737373"/></g><g transform="translate(213.42 135.43)"><path d="m0 0c1.255 0 2.377 0.291 3.367 0.875 0.99 0.583 1.767 1.386 2.333 2.412v-2.996h1.352v13.256h-1.352v-2.996c-0.566 1.025-1.343 1.829-2.333 2.412-0.99 0.584-2.112 0.875-3.367 0.875-1.891 0-3.509-0.667-4.851-2.002-1.344-1.334-2.015-2.973-2.015-4.917 0-1.945 0.671-3.584 2.015-4.918 1.342-1.334 2.96-2.001 4.851-2.001m-3.884 10.922c1.087 1.096 2.417 1.643 3.99 1.643s2.899-0.547 3.977-1.643 1.617-2.43 1.617-4.003c0-1.574-0.539-2.908-1.617-4.003-1.078-1.096-2.404-1.644-3.977-1.644s-2.903 0.548-3.99 1.644c-1.087 1.095-1.63 2.429-1.63 4.003 0 1.573 0.543 2.907 1.63 4.003" fill="#737373"/></g><g transform="translate(235.77 135.72)"><path d="m0 0v8.245c0 1.608-0.464 2.893-1.392 3.857s-2.178 1.445-3.751 1.445c-2.209 0-3.791-0.937-4.745-2.81v2.519h-1.326v-13.256h1.326v6.999c0 1.714 0.432 3.022 1.299 3.924 0.866 0.901 1.979 1.351 3.34 1.351 1.237 0 2.196-0.361 2.876-1.086 0.681-0.725 1.021-1.706 1.021-2.943v-8.245z" fill="#737373"/></g><g transform="translate(245.47 135.43)"><path d="m0 0c1.255 0 2.377 0.291 3.367 0.875 0.99 0.583 1.767 1.386 2.333 2.412v-2.996h1.352v13.256h-1.352v-2.996c-0.566 1.025-1.343 1.829-2.333 2.412-0.99 0.584-2.112 0.875-3.367 0.875-1.891 0-3.509-0.667-4.851-2.002-1.344-1.334-2.015-2.973-2.015-4.917 0-1.945 0.671-3.584 2.015-4.918 1.342-1.334 2.96-2.001 4.851-2.001m-3.884 10.922c1.087 1.096 2.417 1.643 3.99 1.643s2.899-0.547 3.977-1.643 1.617-2.43 1.617-4.003c0-1.574-0.539-2.908-1.617-4.003-1.078-1.096-2.404-1.644-3.977-1.644s-2.903 0.548-3.99 1.644c-1.087 1.095-1.63 2.429-1.63 4.003 0 1.573 0.543 2.907 1.63 4.003" fill="#737373"/></g><path d="m257.93 155.07h-1.326v-19.353h1.326z"/><path d="m191.82 118.14h10.453v3.208h-5.885l5.625 7.775v2.272h-9.932v-3.208h5.328l-5.589-7.771z"/><g transform="translate(205.32 119.8)"><path d="m0 0c1.352-1.352 3.009-2.028 4.971-2.028 1.961 0 3.623 0.676 4.983 2.028 1.361 1.352 2.042 3.009 2.042 4.971s-0.681 3.618-2.042 4.97c-1.36 1.353-3.022 2.028-4.983 2.028-1.962 0-3.619-0.675-4.971-2.028-1.352-1.352-2.029-3.008-2.029-4.97s0.677-3.619 2.029-4.971m2.412 7.596c0.68 0.689 1.533 1.033 2.559 1.033 1.024 0 1.882-0.344 2.571-1.033 0.69-0.69 1.034-1.565 1.034-2.625 0-1.061-0.344-1.936-1.034-2.625-0.689-0.689-1.547-1.034-2.571-1.034-1.026 0-1.879 0.345-2.559 1.034s-1.021 1.564-1.021 2.625c0 1.06 0.341 1.935 1.021 2.625" fill="#737373"/></g><g transform="translate(226.04 131.77)"><path d="m0 0c-1.962 0-3.619-0.676-4.971-2.028s-2.028-3.008-2.028-4.971c0-1.961 0.676-3.618 2.028-4.97 1.352-1.353 3.009-2.028 4.971-2.028 1.961 0 3.623 0.675 4.983 2.028 1.362 1.352 2.042 3.009 2.042 4.97 0 1.963-0.68 3.619-2.042 4.971-1.36 1.352-3.022 2.028-4.983 2.028m2.571-9.623c-0.689-0.689-1.546-1.034-2.571-1.034s-1.878 0.345-2.558 1.034c-0.681 0.689-1.021 1.564-1.021 2.624 0 1.061 0.34 1.936 1.021 2.625 0.68 0.689 1.533 1.034 2.558 1.034s1.882-0.345 2.571-1.034c0.69-0.689 1.034-1.564 1.034-2.625 0-1.06-0.344-1.935-1.034-2.624" fill="#737373"/></g><g transform="translate(251.73 126.07)"><path d="m0 0v-7.927h3.42v8.165c0 1.661-0.455 2.987-1.365 3.977-0.911 0.989-2.126 1.484-3.645 1.484-1.751 0-3.067-0.636-3.951-1.908-0.778 1.272-1.979 1.908-3.605 1.908-1.662 0-2.89-0.592-3.685-1.776v1.405h-3.42v-13.255h3.42v7.449c0 0.972 0.225 1.715 0.676 2.227 0.451 0.513 1.055 0.769 1.816 0.769 0.707 0 1.255-0.221 1.643-0.663 0.389-0.441 0.584-1.06 0.584-1.855v-7.927h3.42v7.449c0 0.972 0.215 1.715 0.649 2.227 0.433 0.513 1.038 0.769 1.816 0.769 0.707 0 1.255-0.221 1.643-0.663 0.389-0.441 0.584-1.06 0.584-1.855" fill="#737373"/></g><g transform="translate(269.07 117.92)"><path d="m0 0c0.648 0 1.195 0.222 1.639 0.666 0.443 0.443 0.665 0.989 0.665 1.638s-0.222 1.195-0.665 1.639c-0.444 0.443-0.991 0.666-1.639 0.666-0.649 0-1.196-0.223-1.638-0.666-0.444-0.444-0.666-0.99-0.666-1.639s0.222-1.195 0.666-1.638c0.442-0.444 0.989-0.666 1.638-0.666" fill="#737373"/></g><g transform="translate(292.01 144.6)"><path d="m0 0c-2.424 0-4.601-0.581-6.529-1.74-1.929-1.162-3.423-2.749-4.48-4.763v16.181h-2.56v-35.843h2.56v5.94c1.057-2.015 2.551-3.603 4.48-4.763 1.928-1.16 4.105-1.741 6.529-1.741 3.687 0 6.819 1.288 9.397 3.866 2.576 2.577 3.865 5.743 3.865 9.499 0 3.755-1.289 6.921-3.865 9.499-2.578 2.576-5.71 3.865-9.397 3.865m7.553-21.096c-2.099-2.117-4.669-3.175-7.707-3.175s-5.606 1.058-7.706 3.175c-2.099 2.116-3.149 4.694-3.149 7.732 0 3.037 1.05 5.615 3.149 7.732 2.1 2.116 4.668 3.174 7.706 3.174s5.608-1.058 7.707-3.174c2.1-2.117 3.149-4.695 3.149-7.732 0-3.038-1.049-5.616-3.149-7.732" fill="#737373"/></g><g transform="translate(332.13 140.61)"><path d="m0 0c-2.338 2.663-5.385 3.994-9.14 3.994-3.892 0-7.075-1.272-9.55-3.815-2.476-2.543-3.712-5.727-3.712-9.549 0-3.892 1.262-7.092 3.789-9.601 2.525-2.51 5.752-3.764 9.678-3.764 2.491 0 4.711 0.521 6.656 1.562 1.946 1.041 3.448 2.449 4.507 4.224l-2.253 1.332c-0.786-1.4-1.946-2.527-3.483-3.38-1.536-0.854-3.328-1.281-5.376-1.281-2.937 0-5.402 0.88-7.399 2.638s-3.15 4.071-3.456 6.938h23.195c0 0.136 9e-3 0.341 0.026 0.614 0.017 0.274 0.026 0.478 0.026 0.615 0 3.652-1.17 6.81-3.508 9.473m-19.739-8.193c0.272 2.868 1.382 5.205 3.328 7.015 1.945 1.809 4.369 2.714 7.271 2.714 2.594 0 4.839-0.862 6.734-2.585 1.894-1.725 2.978-4.106 3.251-7.144z" fill="#737373"/></g></g></g></svg>
