<svg enable-background="new 0 0 69.333 68.667" version="1.1" viewBox="0 0 800 798.73" xml:space="preserve" xmlns="http://www.w3.org/2000/svg">
<g transform="matrix(12.434 0 0 12.434 -23.748 -35.386)">
	<linearGradient id="b" x1="8.603" x2="62.809" y1="34.441" y2="34.441" gradientUnits="userSpaceOnUse">
		<stop stop-color="#80C461" offset="0"/>
		<stop stop-color="#4BB649" offset="1"/>
	</linearGradient>
	<path d="m33.958 4.999-18.573 1.238-6.782 47.472 50.866 10.176 3.34-30.035z" fill="url(#b)" opacity=".65"/>
		<path d="m33.785 42.086c-1.322 4.279-5.399 4.116-5.399 4.116-3.086 0-5.588-2.501-5.588-5.585 0-3.088 2.501-5.59 5.588-5.59 0 0 4.077-0.161 5.399 4.117l5.147-2.353c-3.043-7.647-10.546-7.354-10.546-7.354-6.172 0-11.177 5.006-11.177 11.18 0 6.17 5.005 11.174 11.177 11.174 0 0 7.503 0.297 10.546-7.354z"/>
		<path d="m31.181 26.792v-12.649h-5.588v12.648c2.793-0.667 5.588 1e-3 5.588 1e-3z"/>
		<path d="m25.593 54.438v12.648h5.588v-12.648c-2.795 0.669-5.588 0-5.588 0z"/>
		<path d="m14.562 37.821h-12.652v5.587h12.651c-0.669-2.791 1e-3 -5.587 1e-3 -5.587z"/>
		<path d="m42.209 37.821c0.67 2.796 0 5.587 0 5.587h12.651v-5.587z"/>
		<path d="m40.137 32.817 8.945-8.944-3.951-3.952-8.945 8.942c2.447 1.506 3.951 3.954 3.951 3.954z"/>
		<path d="m16.635 48.414-8.946 8.943 3.951 3.953 8.947-8.945c-2.447-1.504-3.952-3.951-3.952-3.951z"/>
		<path d="m20.588 28.863-8.947-8.942-3.951 3.952 8.946 8.944c1.504-2.448 3.952-3.954 3.952-3.954z"/>
		<path d="m36.186 52.365 8.945 8.945 3.951-3.953-8.945-8.943c-1.504 2.447-3.951 3.951-3.951 3.951z"/>
	<linearGradient id="a" x1="35.813" x2="66.252" y1="17.457" y2="17.457" gradientUnits="userSpaceOnUse">
		<stop stop-color="#80C461" offset="0"/>
		<stop stop-color="#4BB649" offset="1"/>
	</linearGradient>
	<path d="m63.006 32.067 3.246-29.221-30.439 2.029z" fill="url(#a)"/>
	<path d="m58.499 5.729h-4.074l-4.568 13.229 1.973 1.972h0.954l0.851-2.959h5.512l0.852 2.959h3.811zm-4.036 9.384 1.522-5.209 0.425-1.602h0.061l0.404 1.602 1.459 5.209z" fill="#fff"/>
</g>
</svg>
