<svg width="1235.4pt" height="945.47pt" version="1.1" viewBox="0 0 1235.4 945.47" xmlns="http://www.w3.org/2000/svg">
 <defs>
  <linearGradient id="b" x1="-235.3" x2="-189.55" y1="766.59" y2="766.59" gradientTransform="translate(244,-736.33)" gradientUnits="userSpaceOnUse">
   <stop stop-color="#80C461" offset="0"/>
   <stop stop-color="#4BB649" offset="1"/>
  </linearGradient>
  <linearGradient id="a" x1="-212.34" x2="-186.65" y1="752.26" y2="752.26" gradientTransform="translate(244,-736.33)" gradientUnits="userSpaceOnUse">
   <stop stop-color="#80C461" offset="0"/>
   <stop stop-color="#4BB649" offset="1"/>
  </linearGradient>
 </defs>
 <g transform="matrix(17.202 0 0 17.202 -53.327 -61.929)">
  <path class="st0" d="m30.1 5.4-15.7 1-5.7 40.1 42.9 8.6 2.8-25.3z" enable-background="new" fill="url(#b)" opacity=".65"/>
  <g fill="#fff">
   <path class="st1" d="m30 36.7c-1.1 3.6-4.6 3.5-4.6 3.5-2.6 0-4.7-2.1-4.7-4.7s2.1-4.7 4.7-4.7c0 0 3.4-0.1 4.6 3.5l4.3-2c-2.6-6.5-8.9-6.2-8.9-6.2-5.2 0-9.4 4.2-9.4 9.4s4.2 9.4 9.4 9.4c0 0 6.3 0.3 8.9-6.2z"/>
   <path class="st1" d="m27.8 23.8v-10.7h-4.8v10.7c2.4-0.6 4.8 0 4.8 0z"/>
   <path class="st1" d="m23 47.1v10.7h4.7v-10.7c-2.3 0.6-4.7 0-4.7 0z"/>
   <path class="st1" d="m13.7 33.1h-10.6v4.7h10.7c-0.6-2.3-0.1-4.7-0.1-4.7z"/>
   <path class="st1" d="m37.1 33.1c0.6 2.4 0 4.7 0 4.7h10.7v-4.7z"/>
   <path class="st1" d="m35.3 28.9 7.5-7.5-3.3-3.4-7.5 7.5c2 1.3 3.3 3.4 3.3 3.4z"/>
   <path class="st1" d="m15.5 42-7.5 7.5 3.3 3.3 7.5-7.5c-2.1-1.2-3.3-3.3-3.3-3.3z"/>
   <path class="st1" d="m18.8 25.5-7.5-7.5-3.3 3.3 7.5 7.5c1.2-2 3.3-3.3 3.3-3.3z"/>
   <path class="st1" d="m32 45.4 7.5 7.5 3.3-3.3-7.5-7.6c-1.3 2.1-3.3 3.4-3.3 3.4z"/>
  </g>
  <path d="m31.7 5.3 22.9 23 2.8-24.7z" fill="url(#a)"/>
  <path d="m48.2 17.5h-2.1v2.1l0.7 0.6h6.7v-2.7h-2.1v-11.5h-1.9l-4.2 2.7 0.3 2.6 2.6-1.5z" fill="#fff"/>
 </g>
 <g transform="translate(-21.18 -29.5)" fill="#fff">
  <path d="m893.96 731.37-16.72 95.095h82.21l17.25-95.095h58.21l-43.82 243.6h-57.99l17.94-101.13h-82.3l-18.2 101.13h-57.72l43.19-243.6z"/>
  <path d="m1063.9 731.37h78.14c17.31 0.55 34.94 1.2498 51.4 7.1498 15.09 4.77 27.67 15.24 37.75 27.18 12.62 15.88 21.42 35.02 23.77 55.28 2.6681 18.709 2.1065 36.769-1.66 53.92-9.9527 40.019-29.272 67.502-58.68 85.63-23.311 13.64-48.84 14.44-73.564 14.44h-100.43l43.27-243.6m51.11 44.52-27.54 154.22h29.673c10.618 0 21.154-1.1612 31.357-4.4897 8.73-3.05 17.3-7.56 23.37-14.71 14.114-18.31 20.147-42.988 21.7-63.9 0.25-10.66 0.37-21.49-2.23-31.91-1.91-9.71-6.37-19.08-13.42-26.08-11.102-10.133-25.182-13.095-38.697-13.13z"/>
 </g>
</svg>
