<svg width="800" height="354.92" version="1.1" viewBox="0 0 800 354.92" xmlns="http://www.w3.org/2000/svg">
 <link rel="stylesheet" type="text/css"/>
 <link rel="stylesheet" type="text/css"/>
 <style lang="en" type="text/css"/>
 <style lang="en" type="text/css"/>
 <rect x="245.71" y="170.55" width="511.58" height="170.38" fill="#675b51" stroke-width="5.3655"/>
 <path d="m276.09 185.02 509.05-44.48 14.864 169.9-509.05 44.48z" fill="#bdbdbc" stroke-width=".55371"/>
 <rect y="8.916e-6" width="682.67" height="170.55" stroke-width="4.9024"/>
 <path d="m441.73 170.55-165.64 14.473 13.641 155.91h161.34l306.22-26.757v-143.62z" fill="#7c7c7b" stroke-width=".55371"/>
 <path d="m378.65 243.64-2.8853 23.892h-31.293l-5.3473 42.413h-27.394l13.329-108.57h62.001l-3.0469 23.881h-34.318l-2.3228 18.381z" fill="#fff" stroke-width=".55371"/>
 <path d="m403.15 201.38h28.246v23.916h-28.246z" fill="#fff" stroke-width=".55371"/>
 <path d="m403.15 234.46h28.246v75.475h-28.246z" fill="#fff" stroke-width=".55371"/>
 <path d="m547.2 309.94h-35.418l-27.065-41.679v41.679h-28.342v-108.56h44.1c12.438 0 20.499 2.8969 26.883 9.596 5.909 6.1922 9.3378 14.955 9.3378 23.936 0 9.596-3.757 18.721-9.9944 24.081-3.757 3.259-7.3682 5.0334-13.934 6.518zm-57.231-59.894c5.3985 0 9.5202-0.97773 12.147-2.9331 3.1005-2.2813 5.3984-6.6991 5.3984-10.574 0-3.9108-2.298-8.3286-5.3984-10.61-2.6263-1.9192-6.748-2.9331-12.147-2.9331h-5.2525v27.05z" fill="#fff" stroke-width=".55371"/>
 <path d="m627.66 207.33c-9.6892-5.4763-23.139-8.935-34.129-8.935-21.837 0-37.6 14.411-37.6 36.46 0 21.04 11.714 25.652 29.502 30.696 6.0738 1.7292 17.209 4.4674 17.209 12.393 0 7.638-7.0862 10.953-13.739 10.953-9.6892 0-18.077-5.044-25.163-11.241l-12.148 22.77c11.135 7.782 24.585 12.394 38.323 12.394 10.991 0 22.415-3.0264 30.948-10.232 8.677-7.3498 11.28-18.446 11.28-29.255 0-17.582-11.714-25.22-26.899-29.687l-7.2308-2.1616c-4.917-1.5853-12.582-4.0351-12.582-10.376 0-6.0528 6.9415-9.079 12.148-9.079 6.9415 0 13.594 2.8822 18.8 7.2056z" fill="#fff" stroke-width=".55371"/>
 <path d="m689.66 225.28h22.711l2.9513-23.901h-73.631l-2.9513 23.901h23.443l-10.454 84.661h27.477z" fill="#fff" stroke-width=".55371"/>
 <path d="m108.17 130.68c-0.13731 1.1664-0.71597 2.0192-0.71597 2.0192s-0.55414 0.58811-1.6085 0.83805c-13.795 5.641-29.139 3.7541-29.139 3.7541-24.907-2.72-40.742-17.957-45.808-37.649-7.4834-29.445 7.3657-50.455 10.955-54.89 8.7731-10.468 22.465-17.947 35.828-19.707 17.105-2.4554 29.767 1.5732 34.955 3.313 0 0 5.7768 1.8672 10.102 4.7588 2.1479 1.4458 2.4029 2.0192 2.4029 2.0192s0.15202 0.25975-0.40703 2.573l-4.0604 21.113c-0.13731 0.87236-0.70617 1.3134-0.70617 1.3134s-0.29423 0.11763-2.2705-1.1762c-12.971-9.1843-28.085-8.0277-28.085-8.0277-11.5 0.73024-24.873 6.7534-28.918 21.99-3.575 13.507 0.17654 24.852 8.1846 31.645 5.4973 4.6902 13.991 7.1553 22.887 6.7289 9.8078-0.72043 17.556-4.6118 16.992-4.3471 0 0 0.41682-0.10291 0.87779-0.26465 2.0008-1.0096 2.4372-0.87236 2.4372-0.87236s0.41194 0.44108 0.15202 1.7643zm73.652-71.72s-0.16182 0-0.29423 0.28915l-14.329 32.63c-0.30405 0.45578-0.19126 0.73023-0.19126 0.73023s0.19126 0.14703 0.868 0.14703l21.136 0.17153c0.15693 0 0.26972-0.17153 0.26972-0.17153s0.15692-0.14703 0-0.5538l-7.3412-32.954c0-0.28915-0.1177-0.28915-0.1177-0.28915m238.78-0.39697s-0.10298 0-0.255 0.5391l-14.388 32.532c-0.30404 0.98018-0.18144 1.1223-0.18144 1.1223s0.46097 0.28915 0.76501 0.28915l21.293-0.11762h0.27463s0.1324-0.17153 0-0.59301l-7.2137-33.375c-0.1128-0.39697-0.29424-0.39697-0.29424-0.39697m-195.04 75.724-25.603 0.10781c-0.58357 0-1.0249-0.24014-1.0249-0.24014s-0.16183-0.13233-0.27952-1.1664l-4.0212-16.531c0-0.42147-0.28443-0.5783-0.28443-0.5783h-36.49c-0.7503 0-1.1622 0.5783-1.1622 0.5783s-0.59337 0.45089-1.0249 1.4507l-7.1842 15.374c-0.28443 0.5391-0.43645 0.73513-0.43645 0.73513s-0.44626 0.26956-0.85328 0.26956h-29.816c-0.82386 0.10781-0.97097-0.26956-0.97097-0.26956s-0.15202-0.48519 0.14221-1.0341l51.624-103.76c0.28933-0.56851 0.70126-0.70573 0.70126-0.70573h33.974c0.52472 0 0.98078 0.43127 0.98078 0.43127s0.16674 0.12743 0.28933 0.57831l22.161 104.01c0 0.48519-0.29423 0.61752-0.29423 0.61752s-0.1226 0.13233-0.42664 0.13233m115.09 0.28425h-27.192s-0.16183-0.17644-0.28442-0.28425l-36.534-64.814c-0.30404-0.30876-0.42664-0.30876-0.42664-0.30876s-0.28442 0-0.28442 0.42638l-9.0526 63.687c-0.16183 0.73513-0.30404 0.87236-0.30404 0.87236s-0.31385 0.13723-0.72578 0.13723h-26.207c-0.41193 0-0.67184-0.26956-0.67184-0.26956s-0.58847-0.593-0.47568-1.1664l14.418-103.05c0.1226-0.5783 0.40703-0.72533 0.40703-0.72533s0.42174-0.41658 0.8729-0.41658h29.208c0.42664 0 0.71107 0.29406 0.71107 0.29406s0.29423 0.12742 0.42664 0.5783l32.954 57.742c0.55415 1.2056 0.9906 1.0243 0.9906 1.0243s0.46096 0 0.73559-1.2889l8.3318-57.483c0-0.45088 0.29915-0.57831 0.29915-0.57831s0.1373-0.29405 0.55414-0.29405l27.501 0.29405c0.56886 0 0.72088 0.12743 0.72088 0.12743s0.1226 0.14703 0.1226 0.45088l-14.79 103.9c-0.1324 0.593-0.42664 0.96547-0.42664 0.96547s-0.17163 0.17644-0.8778 0.17644m123.29 0.13232h-26.354c-0.54924 0.30876-1.0053-0.30876-1.0053-0.30876s-0.1275-0.10781-0.28442-0.96547l-3.4328-16.222c-0.26971-0.89196-0.58356-1.3281-0.58356-1.3281s-0.71598-0.42148-1.584-0.42148h-34.249c-0.69145 0-1.1328 0.42148-1.1328 0.42148s-0.58848 0.5783-0.88271 1.436l-7.7531 16.506c-0.16673 0.46559-0.43155 0.5734-0.43155 0.5734s-0.56395 0.17644-0.90232 0.17644h-29.62c-0.69635 0.13232-0.98078-0.28425-0.98078-0.28425s-0.14221-0.26956 0.28443-0.85766l52.202-104.21c0.28443-0.14703 0.58357-0.56851 0.58357-0.56851s0.30894-0.13722 1.1475-0.13722h32.361c0.73069 0 1.1818 0.43127 1.1818 0.43127s0.1324 0.12743 0.26971 0.57831l21.715 104.63c0 0.24014-0.1275 0.41658-0.1275 0.41658s-5e-3 0.13232-0.42173 0.13232m75.535-1.5487c-0.17654 0.86746-0.30404 1.1321-0.30404 1.1321s-0.15693 0.28425-0.86799 0.28425h-59.254c-1.736 0-2.1724-0.41658-2.1724-0.41658s-0.29914-0.61752-0.12751-1.8868l14.682-102.04c0.10298-1.284 0.42664-1.7153 0.42664-1.7153h28.462c0.74049 0 1.0249 0.13722 1.0249 0.13722s0.1226 0.41658 0 0.98998l-11.093 79.792c-0.14222 0.85766 0.29914 0.96548 0.29914 0.96548s0.30894 0.17643 1.4221 0.17643h29.35c0.55905 0 0.86799 0.28425 0.86799 0.28425s0.16674 0.14703 0.16674 0.86746zm114.07-40.398s-0.11279 0.28915-0.56396 0.28915h-36.843c-0.58355 0-0.86799 0.28425-0.86799 0.28425s-0.38738 0.13723-0.38738 0.86256v39.242c0 0.593-0.28937 0.72533-0.28937 0.72533s-0.1814 0.24014-0.64236 0.24014h-29.178c-0.44623 0-0.71595-0.24014-0.71595-0.24014s-0.12259-0.13233-0.12259-0.87236v-39.222c0-0.45088-0.42669-0.73514-0.42669-0.73514s-0.17652-0.28425-0.57375-0.28425h-37.711c-0.71597 0-0.86799-0.11762-0.86799-0.11762s-0.28933-0.31366-0.28933-1.1958v-28.734c0-0.31365 0.28933-0.72533 0.28933-0.72533s0.15202-0.11762 0.43645-0.11762h38.54c0.31877 0 0.31877-0.15193 0.31877-0.15193s0.28444-0.17153 0.28444-0.43128v-34.365c0-0.39697 0.12259-0.71063 0.12259-0.71063s0.27459-0.14212 1.1475-0.14212h28.649c0.55908 0 0.74048 0.14212 0.74048 0.14212s0.28937 0.30876 0.28937 0.86256v34.473h37.378c0.99551 0 1.2848 0.17153 1.2848 0.17153s0.45609 0.15193 0.45609 0.99488v29.048c-6e-3 0.28915-0.45609 0.71063-0.45609 0.71063" fill="#fff" stroke-width=".55371"/>
</svg>
