<svg width="600.3" height="274.1" version="1.1" xmlns="http://www.w3.org/2000/svg">
 <g transform="translate(.30283 .058484)">
  <g transform="matrix(23.124 0 0 -23.124 366.47 126.7)">
   <path d="m0 0h-11.362v-5.479h1.314l-0.4 4.565z" fill="#9c1116"/>
  </g>
  <g transform="matrix(23.124 0 0 -23.124 569.61 253.39)">
   <path d="m0 0v0.748l-8.545-0.748z" fill="#9c1116"/>
  </g>
  <g transform="matrix(23.124 0 0 -23.124 135.92 274.04)">
   <path d="m0 0 10.21 0.893h-10.288z" fill="#f47216"/>
  </g>
  <g transform="matrix(23.124 0 0 -23.124 588.97 107.23)">
   <path d="m0 0-9.622-0.842h8.785v-4.731l1.314 0.115z" fill="#f47216"/>
  </g>
  <g transform="matrix(23.124 0 0 -23.124 366.47 126.7)">
   <path d="m0 0-10.448-0.914 0.4-4.565h10.287l8.546 0.748v4.731z" fill="#ed1c24"/>
  </g>
  <g transform="matrix(23.124 0 0 -23.124 223.17 166.62)">
   <path d="m0 0c-0.231 0.172-0.413 0.254-0.598 0.254-0.232 0-0.381-0.118-0.381-0.299 0-0.05 0.014-0.095 0.031-0.132 0.055-0.095 0.137-0.149 0.399-0.272 0.567-0.267 0.753-0.507 0.753-0.956 0-0.68-0.535-1.165-1.296-1.165-0.408 0-0.694 0.091-1.147 0.376l0.385 0.653c0.313-0.213 0.49-0.281 0.721-0.281 0.272 0 0.453 0.14 0.453 0.344 0 0.15-0.077 0.227-0.394 0.386-0.612 0.308-0.789 0.53-0.789 0.988 0 0.616 0.53 1.069 1.251 1.069 0.345 0 0.657-0.099 0.988-0.312z" fill="#fff"/>
  </g>
  <g transform="matrix(23.124 0 0 -23.124 244.05 224.48)">
   <path d="m0 0v3.399h0.295l0.05 0.141h1.341l-0.05-0.141h0.295v-0.748h-1.047v-0.566h0.993v-0.748h-0.993v-0.589h1.047v-0.748z" fill="#fff"/>
  </g>
  <g transform="matrix(23.124 0 0 -23.124 329.9 180.67)">
   <path d="m0 0c0.363 0 0.612 0.172 0.612 0.431 0 0.222-0.177 0.344-0.494 0.344h-0.163l-0.109-0.775zm0.598-1.894-0.811 1.345-0.163-1.345h-0.861l0.417 3.399h1.106c0.806 0 1.201-0.34 1.201-1.034 0-0.358-0.091-0.607-0.299-0.802-0.109-0.104-0.2-0.154-0.422-0.245l0.834-1.318z" fill="#fff"/>
  </g>
  <g transform="matrix(23.124 0 0 -23.124 394.03 224.48)">
   <path d="m0 0h-0.861l0.417 3.399h0.861z" fill="#fff"/>
  </g>
  <g transform="matrix(23.124 0 0 -23.124 417.74 224.48)">
   <path d="m0 0v3.399h1.931v-0.748h-1.047v-0.566h0.993v-0.748h-0.993v-0.589h1.047v-0.748z" fill="#fff"/>
  </g>
  <g transform="matrix(23.124 0 0 -23.124 517.32 166.27)">
   <path d="m0 0c-0.186 0.154-0.376 0.231-0.576 0.231-0.095 0-0.181-0.023-0.253-0.072-0.087-0.055-0.127-0.127-0.127-0.222 0-0.096 0.063-0.177 0.186-0.236 0.036-0.018 0.176-0.068 0.426-0.145 0.276-0.086 0.484-0.199 0.616-0.34 0.145-0.154 0.218-0.358 0.218-0.607 0-0.25-0.041-0.454-0.127-0.617-0.105-0.199-0.272-0.353-0.513-0.462-0.204-0.091-0.435-0.136-0.684-0.136s-0.503 0.054-0.771 0.163c-0.131 0.054-0.235 0.104-0.303 0.154-0.032 0.023-0.068 0.045-0.109 0.073l0.376 0.707c0.268-0.231 0.526-0.345 0.78-0.345 0.122 0 0.217 0.028 0.295 0.077 0.086 0.059 0.131 0.145 0.131 0.259 0 0.095-0.045 0.176-0.141 0.244-0.045 0.032-0.113 0.059-0.208 0.091-0.032 9e-3 -0.091 0.027-0.181 0.054l-0.181 0.055c-0.114 0.032-0.223 0.077-0.336 0.136-0.267 0.136-0.399 0.39-0.399 0.757 0 0.344 0.109 0.621 0.322 0.829 0.213 0.213 0.494 0.317 0.834 0.317 0.367 0 0.73-0.09 1.078-0.276z" fill="#fff"/>
  </g>
 </g>
 <g transform="matrix(2.8339 0 0 2.8339 .16575 -42.208)">
  <path d="m-0.058487 59.582h178.76v-44.688h-178.76z" fill="#020203"/>
  <g transform="matrix(8.3577,0,0,-8.3577,171.07,39.184)">
   <path d="m0 0-0.018-9e-3h-1.154c-0.018 0-0.027-9e-3 -0.027-9e-3s-0.013-5e-3 -0.013-0.027v-1.23c0-0.018-0.01-0.023-0.01-0.023l-0.017-8e-3h-0.915l-0.023 8e-3s-4e-3 5e-3 -4e-3 0.027v1.23l-0.014 0.023-0.018 9e-3h-1.181c-0.022 0-0.027 4e-3 -0.027 4e-3s-9e-3 9e-3 -9e-3 0.036v0.901l9e-3 0.023 0.013 4e-3h1.208l9e-3 5e-3 0.01 0.014v1.076l4e-3 0.023s9e-3 4e-3 0.036 4e-3h0.897c0.018 0 0.022-4e-3 0.022-4e-3s0.01-9e-3 0.01-0.027v-1.082h1.171c0.032 0 0.041-4e-3 0.041-4e-3s0.014-5e-3 0.014-0.032v-0.91zm-3.574-1.266c-5e-3 -0.027-9e-3 -0.036-9e-3 -0.036s-5e-3 -9e-3 -0.027-9e-3h-1.857c-0.054 0-0.068 0.013-0.068 0.013s-9e-3 0.019-5e-3 0.059l0.46 3.198c5e-3 0.041 0.014 0.055 0.014 0.055h0.892c0.023 0 0.032-5e-3 0.032-5e-3s4e-3 -0.013 0-0.031l-0.347-2.501c-5e-3 -0.027 9e-3 -0.031 9e-3 -0.031s9e-3 -5e-3 0.045-5e-3h0.919c0.018 0 0.027-9e-3 0.027-9e-3s5e-3 -4e-3 5e-3 -0.027zm-2.367-0.05h-0.824c-0.018-9e-3 -0.032 0.01-0.032 0.01s-4e-3 4e-3 -9e-3 0.031l-0.108 0.509c-9e-3 0.027-0.018 0.041-0.018 0.041s-0.023 0.013-0.05 0.013h-1.072c-0.023 0-0.036-0.013-0.036-0.013s-0.019-0.018-0.027-0.045l-0.244-0.519-0.013-0.017-0.027-5e-3h-0.929c-0.023-5e-3 -0.032 9e-3 -0.032 9e-3s-4e-3 9e-3 9e-3 0.027l1.637 3.266 0.018 0.018s9e-3 5e-3 0.036 5e-3h1.014c0.022 0 0.036-0.014 0.036-0.014l9e-3 -0.018 0.681-3.28-5e-3 -0.013zm-3.862 5e-3h-0.852l-9e-3 9e-3 -1.145 2.032-0.013 9e-3 -9e-3 -0.014-0.284-1.996c-5e-3 -0.022-0.01-0.027-0.01-0.027l-0.022-4e-3h-0.82l-0.023 9e-3s-0.018 0.018-0.013 0.036l0.45 3.23c5e-3 0.018 0.014 0.023 0.014 0.023l0.027 0.013h0.915l0.022-9e-3 0.014-0.018 1.032-1.811c0.018-0.036 0.032-0.031 0.032-0.031s0.013 0 0.022 0.04l0.262 1.802 9e-3 0.018 0.018 9e-3 0.86-9e-3c0.019 0 0.023-4e-3 0.023-4e-3l5e-3 -0.014-0.465-3.257c-4e-3 -0.018-0.013-0.031-0.013-0.031s-5e-3 -5e-3 -0.027-5e-3m-3.606 9e-3 -0.802-4e-3c-0.018 0-0.032 8e-3 -0.032 8e-3s-4e-3 5e-3 -9e-3 0.037l-0.126 0.518-9e-3 0.018h-1.145c-0.023 0-0.036-0.018-0.036-0.018s-0.018-0.014-0.032-0.046l-0.225-0.482c-9e-3 -0.018-0.014-0.022-0.014-0.022l-0.027-9e-3h-0.932c-0.028-4e-3 -0.032 9e-3 -0.032 9e-3s-5e-3 0.014 4e-3 0.032l1.619 3.252c9e-3 0.018 0.022 0.023 0.022 0.023h1.064c0.018 0 0.031-0.014 0.031-0.014l9e-3 -0.018 0.694-3.261-8e-3 -0.019zm6.112 2.374s-5e-3 0-9e-3 -0.018l-0.451-1.018c-9e-3 -0.032-5e-3 -0.036-5e-3 -0.036l0.023-9e-3 0.667 4e-3h9e-3v0.019l-0.225 1.045zm-7.482-0.013-9e-3 -0.01-0.451-1.022-4e-3 -0.023s4e-3 -4e-3 0.027-4e-3l0.662-5e-3 9e-3 5e-3v0.018l-0.23 1.031zm-2.308-2.248c-5e-3 -0.036-0.022-0.063-0.022-0.063s-0.019-0.019-0.05-0.027c-0.433-0.176-0.915-0.118-0.915-0.118-0.78 0.086-1.276 0.563-1.433 1.18-0.235 0.924 0.23 1.582 0.342 1.721 0.275 0.329 0.703 0.564 1.123 0.618 0.536 0.076 0.933-0.05 1.095-0.104 0 0 0.18-0.059 0.315-0.149 0.068-0.045 0.077-0.063 0.077-0.063s4e-3 -9e-3 -0.014-0.081l-0.126-0.662c-4e-3 -0.027-0.022-0.041-0.022-0.041s-9e-3 -4e-3 -0.072 0.037c-0.406 0.288-0.879 0.252-0.879 0.252-0.361-0.023-0.78-0.212-0.906-0.689-0.113-0.424 4e-3 -0.78 0.257-0.991 0.171-0.149 0.437-0.226 0.716-0.212 0.307 0.022 0.55 0.144 0.532 0.135l0.027 9e-3c0.063 0.031 0.077 0.027 0.077 0.027s0.013-0.013 4e-3 -0.054l-0.126-0.725" fill="#fff"/>
  </g>
 </g>
</svg>
