<svg width="800" height="324.71" version="1.1" viewBox="0 0 800 324.71" xml:space="preserve" xmlns="http://www.w3.org/2000/svg">
<rect class="st0" x="436.54" y="16.26" width="24.008" height="287.64" fill="#fff" stroke-width="1.5195"/><rect class="st0" x="775.84" y="16.26" width="24.16" height="287.64" fill="#fff" stroke-width="1.5195"/><path class="st0" d="m541.39 290.68 63.058-85.85c-24.615-0.60779-46.8-10.636-64.729-29.478-18.386-19.145-27.806-43.153-27.806-70.047 0-28.718 10.332-54.093 30.845-74.302 20.361-20.513 45.736-31.149 74.302-30.997 28.414 0 53.941 10.332 74.606 30.541 20.969 19.905 32.061 44.672 31.909 72.175 0 25.071-10.484 50.902-30.237 77.949l-106.06 144.05-45.888-34.036m43.761-155.29c9.2688 9.2688 19.601 13.523 32.669 13.523 13.067-0.15195 23.248-4.2545 32.365-13.371 9.2688-9.4207 13.523-19.601 13.675-32.669 0-13.067-4.4065-23.248-13.675-32.669-9.1168-9.1168-19.449-13.371-32.669-13.371-12.915 0-22.944 4.2545-32.365 13.371-9.2688 9.4207-13.523 19.449-13.675 31.909 0.3039 13.675 4.5584 24.008 13.675 33.276z" fill="#ffd24f" stroke-width="1.5195"/><path class="st0" d="m163.19 74.911c-7.7493-6.9896-16.562-10.484-26.287-10.484-12.46 0-23.096 4.7104-31.453 13.979-8.3571 9.2688-12.46 20.969-12.46 34.644 0 13.979 4.2545 25.831 12.46 35.252 8.3571 9.2688 19.145 13.979 31.909 13.979 9.2688 0 17.778-3.3428 25.679-9.8765v7.2934h24.16v-92.84h-24.16v8.0532m-5.1662 58.196c-4.4065 4.8623-9.8765 7.2934-17.17 7.2934-6.6857 0-12.004-2.4312-16.562-7.5973-4.2545-5.0142-6.3818-11.548-6.3818-19.753 0-7.7493 2.2792-13.979 6.6857-18.993 4.5584-5.0142 9.7246-7.4454 16.562-7.4454 7.1415 0 12.612 2.4311 17.018 7.4454 4.4064 5.1662 6.5337 11.548 6.6857 19.601-0.3039 7.9012-2.4312 14.283-6.8376 19.449zm102.56-68.68c-8.3571 0-15.954 2.887-22.64 8.509v-6.0779h-24.16v92.84h24.16v-44.824c0-10.94 1.5195-18.538 3.9506-22.488 2.5831-3.9506 6.6857-5.9259 13.219-5.9259 5.9259 0 9.5726 1.6714 11.548 4.4065 2.1272 2.735 3.3428 8.509 3.3428 17.17v51.662h24.16v-56.524c0-12.764-2.4312-22.336-7.9012-28.414-6.2298-6.9896-14.891-10.484-25.679-10.332zm125.66 2.4311v8.0532c-7.7493-6.9896-16.562-10.484-26.287-10.484-12.46 0-23.096 4.7104-31.453 13.979-8.3571 9.2688-12.46 20.969-12.46 34.644 0 13.979 4.1026 25.831 12.46 35.252 8.3571 9.2688 19.145 13.979 31.909 13.979h0.15195c9.1168 0 17.778-3.3428 25.679-9.8765v7.2934h24.16v-92.84zm-5.3181 66.249c-4.4064 4.8623-10.028 7.2934-17.322 7.2934-6.6857 0-12.004-2.4312-16.41-7.5973-4.4065-5.0142-6.5337-11.548-6.5337-19.753 0-7.7493 2.2792-13.979 6.6857-18.993 4.5584-5.0142 9.8765-7.4454 16.562-7.4454 7.1415 0 12.612 2.4311 17.018 7.4454 4.4065 5.1662 6.5337 11.548 6.6857 19.601-0.15194 7.9012-2.2792 14.283-6.6857 19.449zm-294.02 77.797h-32.669l-26.743 26.439v-57.892h-24.008v124.29h24.008v-35.404l1.3675-1.3675 28.87 36.923h31.453l-42.849-53.485zm76.429 8.0532c-7.7493-6.9896-16.562-10.484-26.287-10.484-12.46 0-23.096 4.7104-31.453 13.979-8.3571 9.2688-12.46 20.969-12.46 34.644 0 13.979 4.2545 25.831 12.46 35.252 8.3571 9.2688 19.145 13.979 31.909 13.979 9.2688 0 17.778-3.3428 25.679-9.7246v7.2934h24.16v-92.84h-24.16v7.9012zm-5.3181 58.196c-4.4065 4.8623-9.8765 7.2934-17.17 7.2934-6.6857 0-12.004-2.4312-16.41-7.5973-4.4065-5.0142-6.5337-11.548-6.5337-19.753 0-7.5973 2.2792-13.979 6.6857-18.993 4.5584-5.0142 9.7246-7.4454 16.562-7.4454 7.1415 0 12.612 2.4312 17.018 7.4454 4.4064 5.1662 6.5337 11.548 6.6857 19.601-0.3039 7.9012-2.4312 14.435-6.8376 19.449zm102.56-68.68c-8.3571 0-15.954 2.887-22.64 8.661v-6.0779h-24.16v92.84h24.16v-44.824c0-10.94 1.5195-18.538 3.9506-22.488 2.5831-3.9506 6.6857-5.9259 13.219-5.9259 5.9259 0 9.5726 1.6714 11.548 4.4065 2.1272 2.887 3.3428 8.509 3.3428 17.322v51.51h24.16v-56.524c0-12.764-2.4312-22.336-7.9012-28.414-6.2298-6.9896-14.891-10.484-25.679-10.484zm125.66 10.484c-7.7493-6.9896-16.562-10.484-26.287-10.484-12.46 0-23.096 4.7104-31.453 13.979-8.3571 9.2688-12.46 20.969-12.46 34.644 0 13.979 4.1026 25.831 12.46 35.252 8.3571 9.2688 19.145 13.979 31.909 13.979h0.15195c9.1168 0 17.778-3.3428 25.679-9.7246v7.2934h24.16v-92.84h-24.16zm-5.3181 58.196c-4.4064 4.8623-10.028 7.2934-17.322 7.2934-6.6857 0-12.004-2.4312-16.41-7.5973-4.4065-5.0142-6.5337-11.548-6.5337-19.753 0-7.5973 2.2792-13.979 6.6857-18.993 4.5584-5.0142 9.8765-7.4454 16.562-7.4454 7.1415 0 12.612 2.4312 17.018 7.4454 4.4065 5.1662 6.5337 11.548 6.6857 19.601-0.15194 7.9012-2.2792 14.283-6.6857 19.449zm-330.48-114.87c8.0532 0 15.954-1.9753 23.856-5.622v-28.414h-2.1273c-3.9506 4.5584-7.4454 7.5973-10.332 9.2688-3.4948 1.9753-7.5973 3.0389-12.308 3.0389-7.4454 0-13.219-2.4312-17.93-7.4454-4.5584-5.0142-6.9896-11.396-6.9896-19.449 0-7.9012 2.4311-14.131 7.2934-19.297 4.7104-5.1662 10.636-7.5973 18.082-7.5973 4.7104 0 8.661 1.0636 12.004 3.0389 2.887 1.6714 6.3818 4.7104 10.028 8.9649h2.1273v-28.87c-7.4454-3.6467-15.347-5.4701-23.552-5.4701-13.979 0-26.135 4.7104-35.859 14.283-9.7246 9.4207-14.587 21.273-14.587 34.948s4.8623 25.375 14.435 34.796c9.5726 9.1168 21.728 13.827 35.859 13.827z" fill="#fff" stroke-width="1.5195"/>
</svg>
