<svg width="211.67mm" height="110.99mm" version="1.1" viewBox="0 0 211.67 110.99" xmlns="http://www.w3.org/2000/svg">
 <defs>
  <clipPath id="clipPath10298">
   <path d="m250.84 210.21h25.42v13.33h-25.42z"/>
  </clipPath>
 </defs>
 <g transform="matrix(8.3268 0 0 -8.3268 201.07 104.32)">
  <path d="m0 0v1.036l-11.84-1.036z" fill="#1d3c85"/>
 </g>
 <g transform="matrix(8.3268 0 0 -8.3268 100.52 59.565)">
  <path d="m0 0h-10.285v-5.375h1.288l-0.398 4.553z" fill="#1d3c85"/>
 </g>
 <g transform="matrix(8.3268 0 0 -8.3268 100.52 59.568)">
  <path d="m0 0h12.075v-4.339l1.273 0.112-0.469 5.354z" fill="#66cef5"/>
 </g>
 <g transform="matrix(8.3268 0 0 -8.3268 25.609 104.32)">
  <path d="M 0,0 0.07,-0.801 9.231,0 Z" fill="#66cef5"/>
 </g>
 <g transform="matrix(8.3268 0 0 -8.3268 100.52 59.565)">
  <path d="m0 0-9.395-0.822 0.398-4.553h9.232l11.84 1.036v4.339z" fill="#1c63b7"/>
 </g>
 <g transform="matrix(8.3268 0 0 -8.3268 14.885 59.561)">
  <path d="m0 0v-1e-3h10.116l3e-3 1e-3z" fill="#243b84"/>
 </g>
 <path d="m6.7366 59.57h8.1435v-0.0083h-8.1435z" fill="#1c63b7"/>
 <g transform="matrix(8.3268 0 0 -8.3268 177.6 75.55)">
  <path d="m0 0-0.364-1.06h0.719zm0.808-2.299-0.218 0.578h-1.193l-0.228-0.578h-0.913l1.278 3.329h0.941l1.255-3.329z" fill="#fff"/>
 </g>
 <path d="m58.829 94.743h7.2359v-27.837h-7.2359z" fill="#fff"/>
 <g transform="matrix(8.3268 0 0 -8.3268 -2088.7 1861.4)">
  <g clip-path="url(#clipPath10298)">
   <g transform="translate(262.67 212.16)">
    <path d="m0 0h-0.927l-0.892 1.498c-0.04 0.071-0.089 0.155-0.144 0.263-0.11 0.209-0.155 0.303-0.266 0.566v-0.152c0-0.246-9e-3 -0.428-0.035-0.633l-0.188-1.542h-0.847l0.411 3.343h0.913l0.955-1.613 0.142-0.269 0.129-0.257 0.067-0.126c0 0.064 0 0.108 4e-3 0.14 5e-3 0.128 0.019 0.293 0.036 0.435l0.21 1.69h0.842l-0.41-3.343" fill="#fff"/>
   </g>
   <g transform="translate(265.6 214.77)">
    <path d="m0 0h-1.03v-0.556h0.976v-0.737h-0.976v-0.578h1.03v-0.736h-1.898v3.343h0.288l0.051 0.138h1.319l-0.049-0.138h0.289z" fill="#fff"/>
   </g>
   <g transform="translate(266.68 215.5)">
    <path d="m0 0h0.861l0.678-1.783 0.717 1.783h0.86l0.509-3.343h-0.87l-0.25 1.926-0.807-1.926h-0.347l-0.766 1.926-0.286-1.926h-0.866z" fill="#fff"/>
   </g>
   <g transform="translate(256.91 212.24)">
    <path d="m0 0c-0.16-0.08-0.526-0.147-0.784-0.147-0.967 0-1.663 0.695-1.663 1.663 0 1.016 0.803 1.814 1.832 1.814 0.263 0 0.522-0.054 0.799-0.169 0.146-0.063 0.2-0.103 0.2-0.153v-0.012l-0.081-0.656c-8e-3 -0.08-0.013-0.085-0.03-0.085-0.01 0-0.019 5e-3 -0.032 0.014l-0.049 0.04c-0.161 0.134-0.464 0.218-0.727 0.218-0.606 0-1.043-0.41-1.043-0.971 0-0.526 0.38-0.9 0.914-0.9 0.271 0 0.63 0.088 0.735 0.182 9e-3 0.013 0.023 0.017 0.028 0.017 0.013 0 0.017-8e-3 0.017-0.022 0-0.012 0-0.026-4e-3 -0.048l-0.063-0.726c0-0.023-0.018-0.044-0.049-0.059" fill="#fff"/>
   </g>
   <path d="m250.84 216.39h21.463v5.366h-21.463z" fill="#020203"/>
   <g transform="translate(271.38 218.84)">
    <path d="m0 0-0.018-9e-3h-1.158c-0.018 0-0.027-9e-3 -0.027-9e-3s-0.014-5e-3 -0.014-0.027v-1.234c0-0.018-9e-3 -0.023-9e-3 -0.023l-0.018-9e-3h-0.918l-0.023 9e-3s-4e-3 5e-3 -4e-3 0.027v1.234l-0.014 0.023-0.018 9e-3h-1.185c-0.022 0-0.027 4e-3 -0.027 4e-3s-9e-3 9e-3 -9e-3 0.036v0.905l9e-3 0.022 0.014 5e-3h1.212l9e-3 4e-3 9e-3 0.014v1.08l4e-3 0.023s0.01 4e-3 0.037 4e-3h0.9c0.018 0 0.022-4e-3 0.022-4e-3s9e-3 -9e-3 9e-3 -0.027v-1.085h1.176c0.032 0 0.041-5e-3 0.041-5e-3s0.014-4e-3 0.014-0.031v-0.913zm-3.587-1.27c-4e-3 -0.027-9e-3 -0.036-9e-3 -0.036s-4e-3 -0.01-0.027-0.01h-1.863c-0.055 0-0.068 0.014-0.068 0.014s-9e-3 0.018-5e-3 0.059l0.461 3.209c5e-3 0.041 0.014 0.055 0.014 0.055h0.896c0.022 0 0.032-5e-3 0.032-5e-3s4e-3 -0.013 0-0.032l-0.349-2.508c-4e-3 -0.027 9e-3 -0.032 9e-3 -0.032s9e-3 -5e-3 0.046-5e-3h0.922c0.018 0 0.027-9e-3 0.027-9e-3s5e-3 -4e-3 5e-3 -0.027zm-2.374-0.05h-0.828c-0.018-9e-3 -0.031 9e-3 -0.031 9e-3s-5e-3 5e-3 -0.01 0.032l-0.108 0.51c-9e-3 0.027-0.018 0.041-0.018 0.041s-0.023 0.014-0.05 0.014h-1.076c-0.023 0-0.037-0.014-0.037-0.014s-0.018-0.018-0.027-0.045l-0.244-0.52-0.014-0.018-0.027-5e-3h-0.931c-0.023-4e-3 -0.032 0.01-0.032 0.01s-5e-3 9e-3 9e-3 0.027l1.642 3.277 0.018 0.018s9e-3 5e-3 0.036 5e-3h1.018c0.022 0 0.036-0.014 0.036-0.014l9e-3 -0.018 0.683-3.291-5e-3 -0.014zm-3.876 4e-3h-0.855l-9e-3 0.01-1.149 2.038-0.013 9e-3 -9e-3 -0.013-0.285-2.003c-5e-3 -0.022-0.01-0.027-0.01-0.027l-0.022-4e-3h-0.823l-0.023 9e-3s-0.018 0.018-0.013 0.036l0.452 3.241c4e-3 0.018 0.013 0.023 0.013 0.023l0.028 0.013h0.918l0.022-9e-3 0.014-0.018 1.036-1.817c0.018-0.036 0.031-0.032 0.031-0.032s0.014 0 0.023 0.041l0.262 1.808 9e-3 0.018 0.018 9e-3 0.864-9e-3c0.018 0 0.023-4e-3 0.023-4e-3l4e-3 -0.014-0.465-3.268c-5e-3 -0.018-0.014-0.032-0.014-0.032s-5e-3 -5e-3 -0.027-5e-3m-3.619 0.01-0.805-5e-3c-0.018 0-0.031 9e-3 -0.031 9e-3s-5e-3 5e-3 -0.01 0.036l-0.126 0.52-9e-3 0.018h-1.149c-0.023 0-0.036-0.018-0.036-0.018s-0.018-0.014-0.032-0.045l-0.226-0.484c-9e-3 -0.018-0.014-0.022-0.014-0.022l-0.027-9e-3h-0.936c-0.027-5e-3 -0.031 9e-3 -0.031 9e-3s-5e-3 0.013 4e-3 0.031l1.624 3.264c9e-3 0.018 0.022 0.023 0.022 0.023h1.068c0.018 0 0.031-0.014 0.031-0.014l9e-3 -0.018 0.697-3.273-9e-3 -0.018zm6.133 2.382s-4e-3 0-9e-3 -0.018l-0.452-1.022c-9e-3 -0.032-5e-3 -0.036-5e-3 -0.036l0.023-9e-3 0.669 4e-3h0.01v0.019l-0.226 1.048zm-7.508-0.014-8e-3 -9e-3 -0.453-1.026-4e-3 -0.023s4e-3 -4e-3 0.027-4e-3l0.665-5e-3 9e-3 5e-3v0.018l-0.231 1.035zm-2.315-2.256c-5e-3 -0.036-0.023-0.063-0.023-0.063s-0.018-0.018-0.05-0.027c-0.434-0.176-0.918-0.118-0.918-0.118-0.782 0.086-1.28 0.566-1.438 1.185-0.235 0.927 0.231 1.586 0.344 1.727 0.276 0.33 0.705 0.565 1.126 0.619 0.538 0.077 0.936-0.05 1.099-0.104 0 0 0.181-0.059 0.317-0.149 0.067-0.045 0.076-0.063 0.076-0.063s5e-3 -9e-3 -0.013-0.082l-0.127-0.664c-4e-3 -0.028-0.022-0.041-0.022-0.041s-9e-3 -4e-3 -0.073 0.036c-0.407 0.29-0.882 0.253-0.882 0.253-0.362-0.022-0.782-0.212-0.909-0.691-0.113-0.425 5e-3 -0.782 0.258-0.995 0.172-0.149 0.439-0.226 0.719-0.212 0.308 0.022 0.552 0.145 0.534 0.135l0.027 0.01c0.063 0.031 0.077 0.027 0.077 0.027s0.014-0.014 4e-3 -0.055l-0.126-0.728" fill="#fff"/>
   </g>
   <g transform="translate(276 220.86)">
    <path d="m0 0c-0.119 0.894-0.239 1.789-0.358 2.683h-5.724c0.239-1.163 0.477-2.325 0.716-3.488 1.788 0.269 3.577 0.537 5.366 0.805" fill="#ed1c24"/>
   </g>
   <g transform="translate(272.51 221.03)">
    <path d="m0 0c-0.059 0.327-0.089 0.49-0.149 0.816-0.29-0.022-0.435-0.033-0.725-0.056 0.065-0.337 0.097-0.506 0.161-0.843-0.198-0.023-0.296-0.035-0.494-0.058-0.137 0.697-0.275 1.395-0.412 2.092 0.206 5e-3 0.31 7e-3 0.515 0.013 0.061-0.317 0.091-0.476 0.152-0.792 0.292 0.017 0.438 0.026 0.73 0.043-0.056 0.306-0.084 0.459-0.14 0.766 0.206 5e-3 0.309 7e-3 0.515 0.012l0.342-1.935c-0.198-0.024-0.297-0.035-0.495-0.058" fill="#fff"/>
   </g>
   <g transform="translate(274 222.65)">
    <path d="m0 0-0.115-5e-3c0.066-0.411 0.099-0.616 0.166-1.027 0.045 5e-3 0.067 7e-3 0.112 0.011 0.331 0.032 0.515 0.249 0.47 0.549-0.046 0.3-0.296 0.487-0.633 0.472m0.349-1.408c-0.291-0.034-0.437-0.051-0.728-0.085-0.105 0.627-0.211 1.253-0.316 1.879 0.303 7e-3 0.454 0.011 0.757 0.018 0.501-2e-3 1.024-0.347 1.098-0.84 0.072-0.471-0.335-0.907-0.811-0.972" fill="#fff"/>
   </g>
  </g>
 </g>
</svg>
