<svg width="211.67mm" height="111.42mm" version="1.1" viewBox="0 0 211.67 111.42" xmlns="http://www.w3.org/2000/svg">
 <g transform="matrix(8.3577 0 0 -8.3577 127.01 59.575)">
  <path d="m0 0h-10.823v-5.353h1.27l-0.392 4.483z" fill="#f47216"/>
 </g>
 <g transform="matrix(8.3577 0 0 -8.3577 128.97 104.31)">
  <path d="m0 0h8.625v0.755z" fill="#f47216"/>
 </g>
 <g transform="matrix(8.3577 0 0 -8.3577 47.175 104.31)">
  <path d="m0 0 0.074-0.85 9.713 0.85z" fill="#fddd04"/>
 </g>
 <g transform="matrix(8.3577 0 0 -8.3577 127.01 59.574)">
  <path d="m0 0h8.859v-4.598l1.27 0.111-0.467 5.332z" fill="#fddd04"/>
 </g>
 <g transform="matrix(8.3577 0 0 -8.3577 127.01 59.575)">
  <path d="m0 0-9.945-0.87 0.392-4.483h9.787l8.625 0.755v4.598z" fill="#f89c0e"/>
 </g>
 <g transform="matrix(8.3577 0 0 -8.3577 71.342 79.671)">
  <path d="m0 0v-1.86h-0.937v1.86h-0.34v0.776h0.34v-0.041l0.015 0.337c0.01 0.245 0.135 0.47 0.375 0.673 0.239 0.203 0.506 0.302 0.792 0.302 0.135 0 0.271-0.031 0.411-0.099v-0.807c-0.13 0.062-0.239 0.094-0.323 0.094-0.223 0-0.333-0.126-0.333-0.371v-0.088h0.656v-0.776h-0.656" fill="#fff"/>
 </g>
 <g transform="matrix(8.3577 0 0 -8.3577 92.665 84.573)">
  <path d="m0 0c0 0.163-0.056 0.3-0.173 0.417s-0.254 0.173-0.416 0.173c-0.163 0-0.3-0.056-0.417-0.173s-0.172-0.254-0.172-0.412c0-0.33 0.259-0.593 0.589-0.593 0.162 0 0.299 0.055 0.416 0.172s0.173 0.254 0.173 0.416m-0.026-1.295v0.285c-0.045-0.056-0.076-0.092-0.096-0.107-0.178-0.178-0.411-0.264-0.701-0.264-0.381 0-0.696 0.137-0.945 0.416-0.243 0.269-0.366 0.59-0.366 0.97 0 0.549 0.3 1.051 0.793 1.27 0.157 0.066 0.325 0.101 0.508 0.101 0.244 0 0.447-0.05 0.61-0.157 0.055-0.036 0.121-0.097 0.197-0.178v0.254h0.915v-2.59h-0.915" fill="#fff"/>
 </g>
 <g transform="matrix(8.3577 0 0 -8.3577 139.46 77.582)">
  <path d="m0 0c-0.02 0.054-0.045 0.103-0.075 0.149-0.148 0.214-0.429 0.347-0.74 0.347-0.382 0-0.672-0.164-0.876-0.485-0.213 0.337-0.478 0.48-0.881 0.48-0.285 0-0.524-0.082-0.733-0.255-0.025-0.025-0.061-0.056-0.112-0.102v0.316h-0.917v-2.577h0.917v1.273c0 0.229 0.021 0.346 0.066 0.438 0.062 0.122 0.219 0.218 0.357 0.218 0.158 0 0.305-0.106 0.361-0.249 0.036-0.091 0.041-0.132 0.041-0.407v-1.273h0.917v1.273c0 0.193 0.015 0.301 0.061 0.398 0.072 0.142 0.225 0.238 0.377 0.238 0.153 0 0.275-0.086 0.336-0.224 0.046-0.106 0.051-0.137 0.051-0.412v-1.273h0.917v1.675c0 0.186-0.022 0.331-0.067 0.452" fill="#fff"/>
 </g>
 <path d="m143 73.898h7.6974v21.621h-7.6974zm8.2072-6.7028c0 2.3903-2.0142 4.2791-4.3627 4.2791-1.1534 0-2.173-0.4346-3.0338-1.2453-0.86084-0.85248-1.2787-1.8387-1.2787-2.9837 0-2.4321 1.9139-4.3627 4.3126-4.3627 2.3903 0 4.3627 1.9306 4.3627 4.3125" fill="#fff"/>
 <path d="m154.87 63.468h7.7308v32.177h-7.7308z" fill="#fff"/>
 <g transform="matrix(8.3577 0 0 -8.3577 172.77 101.47)">
  <path d="m0 0h-1.037l0.914 1.699-1.263 2.244h1.073l0.698-1.33 0.683 1.33h1.057z" fill="#fff"/>
 </g>
 <path d="m-0.058487 59.582h178.76v-44.688h-178.76z" fill="#020203"/>
 <g transform="matrix(8.3577 0 0 -8.3577 171.07 39.184)">
  <path d="m0 0-0.018-9e-3h-1.154c-0.018 0-0.027-9e-3 -0.027-9e-3s-0.013-5e-3 -0.013-0.027v-1.23c0-0.018-0.01-0.023-0.01-0.023l-0.017-8e-3h-0.915l-0.023 8e-3s-4e-3 5e-3 -4e-3 0.027v1.23l-0.014 0.023-0.018 9e-3h-1.181c-0.022 0-0.027 4e-3 -0.027 4e-3s-9e-3 9e-3 -9e-3 0.036v0.901l9e-3 0.023 0.013 4e-3h1.208l9e-3 5e-3 0.01 0.014v1.076l4e-3 0.023s9e-3 4e-3 0.036 4e-3h0.897c0.018 0 0.022-4e-3 0.022-4e-3s0.01-9e-3 0.01-0.027v-1.082h1.171c0.032 0 0.041-4e-3 0.041-4e-3s0.014-5e-3 0.014-0.032v-0.91zm-3.574-1.266c-5e-3 -0.027-9e-3 -0.036-9e-3 -0.036s-5e-3 -9e-3 -0.027-9e-3h-1.857c-0.054 0-0.068 0.013-0.068 0.013s-9e-3 0.019-5e-3 0.059l0.46 3.198c5e-3 0.041 0.014 0.055 0.014 0.055h0.892c0.023 0 0.032-5e-3 0.032-5e-3s4e-3 -0.013 0-0.031l-0.347-2.501c-5e-3 -0.027 9e-3 -0.031 9e-3 -0.031s9e-3 -5e-3 0.045-5e-3h0.919c0.018 0 0.027-9e-3 0.027-9e-3s5e-3 -4e-3 5e-3 -0.027zm-2.367-0.05h-0.824c-0.018-9e-3 -0.032 0.01-0.032 0.01s-4e-3 4e-3 -9e-3 0.031l-0.108 0.509c-9e-3 0.027-0.018 0.041-0.018 0.041s-0.023 0.013-0.05 0.013h-1.072c-0.023 0-0.036-0.013-0.036-0.013s-0.019-0.018-0.027-0.045l-0.244-0.519-0.013-0.017-0.027-5e-3h-0.929c-0.023-5e-3 -0.032 9e-3 -0.032 9e-3s-4e-3 9e-3 9e-3 0.027l1.637 3.266 0.018 0.018s9e-3 5e-3 0.036 5e-3h1.014c0.022 0 0.036-0.014 0.036-0.014l9e-3 -0.018 0.681-3.28-5e-3 -0.013zm-3.862 5e-3h-0.852l-9e-3 9e-3 -1.145 2.032-0.013 9e-3 -9e-3 -0.014-0.284-1.996c-5e-3 -0.022-0.01-0.027-0.01-0.027l-0.022-4e-3h-0.82l-0.023 9e-3s-0.018 0.018-0.013 0.036l0.45 3.23c5e-3 0.018 0.014 0.023 0.014 0.023l0.027 0.013h0.915l0.022-9e-3 0.014-0.018 1.032-1.811c0.018-0.036 0.032-0.031 0.032-0.031s0.013 0 0.022 0.04l0.262 1.802 9e-3 0.018 0.018 9e-3 0.86-9e-3c0.019 0 0.023-4e-3 0.023-4e-3l5e-3 -0.014-0.465-3.257c-4e-3 -0.018-0.013-0.031-0.013-0.031s-5e-3 -5e-3 -0.027-5e-3m-3.606 9e-3 -0.802-4e-3c-0.018 0-0.032 8e-3 -0.032 8e-3s-4e-3 5e-3 -9e-3 0.037l-0.126 0.518-9e-3 0.018h-1.145c-0.023 0-0.036-0.018-0.036-0.018s-0.018-0.014-0.032-0.046l-0.225-0.482c-9e-3 -0.018-0.014-0.022-0.014-0.022l-0.027-9e-3h-0.932c-0.028-4e-3 -0.032 9e-3 -0.032 9e-3s-5e-3 0.014 4e-3 0.032l1.619 3.252c9e-3 0.018 0.022 0.023 0.022 0.023h1.064c0.018 0 0.031-0.014 0.031-0.014l9e-3 -0.018 0.694-3.261-8e-3 -0.019zm6.112 2.374s-5e-3 0-9e-3 -0.018l-0.451-1.018c-9e-3 -0.032-5e-3 -0.036-5e-3 -0.036l0.023-9e-3 0.667 4e-3h9e-3v0.019l-0.225 1.045zm-7.482-0.013-9e-3 -0.01-0.451-1.022-4e-3 -0.023s4e-3 -4e-3 0.027-4e-3l0.662-5e-3 9e-3 5e-3v0.018l-0.23 1.031zm-2.308-2.248c-5e-3 -0.036-0.022-0.063-0.022-0.063s-0.019-0.019-0.05-0.027c-0.433-0.176-0.915-0.118-0.915-0.118-0.78 0.086-1.276 0.563-1.433 1.18-0.235 0.924 0.23 1.582 0.342 1.721 0.275 0.329 0.703 0.564 1.123 0.618 0.536 0.076 0.933-0.05 1.095-0.104 0 0 0.18-0.059 0.315-0.149 0.068-0.045 0.077-0.063 0.077-0.063s4e-3 -9e-3 -0.014-0.081l-0.126-0.662c-4e-3 -0.027-0.022-0.041-0.022-0.041s-9e-3 -4e-3 -0.072 0.037c-0.406 0.288-0.879 0.252-0.879 0.252-0.361-0.023-0.78-0.212-0.906-0.689-0.113-0.424 4e-3 -0.78 0.257-0.991 0.171-0.149 0.437-0.226 0.716-0.212 0.307 0.022 0.55 0.144 0.532 0.135l0.027 9e-3c0.063 0.031 0.077 0.027 0.077 0.027s0.013-0.013 4e-3 -0.054l-0.126-0.725" fill="#fff"/>
 </g>
 <g transform="matrix(8.3577 0 0 -8.3577 209.51 22.348)">
  <path d="m0 0c-0.119 0.891-0.238 1.783-0.357 2.674h-5.704c0.238-1.159 0.476-2.318 0.713-3.476 1.783 0.268 3.565 0.535 5.348 0.802" fill="#ed1c24"/>
 </g>
 <g transform="matrix(8.3577 0 0 -8.3577 180.42 20.918)">
  <path d="m0 0c-0.059 0.325-0.089 0.488-0.149 0.814-0.289-0.023-0.433-0.034-0.722-0.056 0.064-0.336 0.097-0.504 0.161-0.841-0.197-0.023-0.296-0.034-0.493-0.057-0.136 0.695-0.274 1.389-0.41 2.085 0.205 4e-3 0.308 7e-3 0.513 0.012 0.061-0.316 0.09-0.474 0.151-0.789 0.291 0.017 0.437 0.026 0.728 0.043-0.056 0.305-0.084 0.458-0.14 0.763 0.206 5e-3 0.308 7e-3 0.514 0.012 0.113-0.643 0.226-1.286 0.34-1.929-0.197-0.023-0.296-0.034-0.493-0.057" fill="#fff"/>
 </g>
 <g transform="matrix(8.3577 0 0 -8.3577 192.84 7.4091)">
  <path d="m0 0-0.115-5e-3c0.066-0.409 0.099-0.614 0.166-1.023 0.044 4e-3 0.067 7e-3 0.111 0.011 0.33 0.031 0.514 0.247 0.469 0.547-0.046 0.299-0.295 0.485-0.631 0.47m0.348-1.403c-0.29-0.034-0.435-0.051-0.725-0.084-0.106 0.624-0.211 1.248-0.316 1.872 0.302 7e-3 0.453 0.011 0.755 0.018 0.499-3e-3 1.02-0.346 1.094-0.837 0.072-0.47-0.334-0.904-0.808-0.969" fill="#fff"/>
 </g>
</svg>
