<svg width="600pt" height="175.54pt" version="1.1" viewBox="0 0 600 175.54" xmlns="http://www.w3.org/2000/svg">
 <g transform="matrix(1.3245 0 0 1.3245 1038.5 108.25)" stroke-width=".75">
  <path d="m-409.13-42.945v93.75h-375v-93.75z" fill="#020203"/>
  <path d="m-423.76 8.6846s-0.0725 0.1569-0.32639 0.1569h-20.224c-0.32639 0-0.48354 0.15689-0.48354 0.15689s-0.24177 0.08448-0.24177 0.48274v21.555c0 0.32586-0.15715 0.39827-0.15715 0.39827s-0.0846 0.16896-0.32639 0.16896h-16.078c-0.22969 0-0.39893-0.16896-0.39893-0.16896s-0.0846-0.07237-0.0846-0.47068v-21.567c0-0.2293-0.19342-0.39826-0.19342-0.39826s-0.12088-0.15689-0.32639-0.15689h-20.756c-0.39892 0-0.47145-0.08449-0.47145-0.08449s-0.15715-0.15689-0.15715-0.63964v-15.774c0-0.1931 0.15715-0.39826 0.15715-0.39826s0.0725-0.07238 0.24177-0.07238h21.191c0.16925 0 0.16925-0.08449 0.16925-0.08449s0.14505-0.08448 0.14505-0.24137v-18.887c0-0.2293 0.0846-0.39827 0.0846-0.39827s0.16923-0.08448 0.64069-0.08448h15.764c0.3143 0 0.39892 0.08448 0.39892 0.08448s0.15715 0.16897 0.15715 0.48275v18.96h20.599c0.51981 0 0.67696 0.08448 0.67696 0.08448s0.24178 0.08449 0.24178 0.55516v15.943c0 0.15689-0.24178 0.39826-0.24178 0.39826zm-62.752 22.207c-0.0725 0.47068-0.15715 0.62758-0.15715 0.62758s-0.0846 0.16896-0.48354 0.16896h-32.603c-0.9429 0-1.1968-0.25344-1.1968-0.25344s-0.15715-0.31379-0.0846-1.0258l8.0872-56.107c0.0846-0.67585 0.24177-0.91725 0.24177-0.91725h15.679c0.39892 0 0.5198 0.07238 0.5198 0.07238s0.0846 0.25344 0 0.56723l-6.0806 43.846c-0.0846 0.47068 0.15716 0.51896 0.15716 0.51896s0.15714 0.08448 0.80992 0.08448h16.114c0.35057 0 0.47145 0.14482 0.47145 0.14482s0.0846 0.08448 0.0846 0.48274l-1.5594 11.791zm-41.548 0.86895h-14.482c-0.31431 0.15689-0.56817-0.15689-0.56817-0.15689s-0.0725-0.08448-0.15714-0.56723l-1.9221-8.943c-0.15716-0.43447-0.31431-0.67585-0.31431-0.67585s-0.39892-0.24137-0.88245-0.24137h-18.834c-0.36265 0-0.60442 0.24137-0.60442 0.24137s-0.3143 0.27758-0.48355 0.76035l-4.2794 9.1117c-0.0725 0.2293-0.22968 0.31378-0.22968 0.31378s-0.32639 0.08448-0.48355 0.08448h-16.319c-0.39892 0.07238-0.51981-0.16896-0.51981-0.16896s-0.0725-0.15689 0.12089-0.48275l28.759-57.254c0.15715-0.07245 0.31431-0.32585 0.31431-0.32585s0.16924-0.07238 0.64069-0.07238h17.806c0.39892 0 0.62861 0.24137 0.62861 0.24137s0.0846 0.08448 0.16924 0.31378l11.956 57.496c0 0.16896-0.0846 0.25344-0.0846 0.25344s0 0.07238-0.22968 0.07238zm-67.877-0.07237h-14.954s-0.0484-0.08448-0.13297-0.16896l-20.116-35.615c-0.15715-0.15689-0.22969-0.15689-0.22969-0.15689s-0.16923 0-0.16923 0.2293l-4.9926 34.987c-0.0846 0.39827-0.16924 0.47068-0.16924 0.47068s-0.15716 0.08448-0.39893 0.08448h-14.398c-0.22968 0-0.39891-0.15689-0.39891-0.15689s-0.31431-0.32586-0.19342-0.63964l7.8698-56.614c0.0846-0.32586 0.25386-0.39827 0.25386-0.39827s0.22968-0.25344 0.47146-0.25344h16.078c0.24177 0 0.39892 0.16896 0.39892 0.16896s0.15715 0.08448 0.24177 0.31378l18.121 31.753c0.3143 0.62758 0.55607 0.55516 0.55607 0.55516s0.24178 0 0.39893-0.72412l4.5694-31.584c0-0.2293 0.14506-0.31378 0.14506-0.31378s0.0846-0.16896 0.32639-0.16896l15.111 0.16896c0.3264 0 0.41101 0.08448 0.41101 0.08448s0.0725 0.07245 0.0725 0.2293l-8.16 57.097c-0.0846 0.32586-0.22969 0.56723-0.22969 0.56723s-0.0846 0.08448-0.48354 0.08448zm-63.32-0.16896-14.071 0.08448c-0.3264 0-0.55608-0.16896-0.55608-0.16896s-0.0846-0.07238-0.16924-0.62758l-2.2001-9.1117c0-0.1931-0.14506-0.27758-0.14506-0.27758h-20.127c-0.39892 0-0.64069 0.27758-0.64069 0.27758s-0.31431 0.24137-0.55608 0.7965l-3.965 8.472c-0.15715 0.32586-0.24178 0.39827-0.24178 0.39827s-0.22968 0.15689-0.43518 0.15689h-16.392c-0.48355 0.08448-0.56817-0.15689-0.56817-0.15689s-0.0846-0.24138 0.0846-0.55516l28.433-57.025c0.12088-0.32585 0.36265-0.39826 0.36265-0.39826h18.676c0.32639 0 0.55607 0.24137 0.55607 0.24137s0.0846 0.08448 0.16924 0.31378l12.185 57.181c0 0.24138-0.14506 0.31379-0.14506 0.31379s-0.0846 0.08448-0.25386 0.08448zm107.35-41.637s-0.0846 0-0.16924 0.31379l-7.9058 17.85c-0.16925 0.55516-0.0846 0.63964-0.0846 0.63964s0.22968 0.1569 0.39892 0.1569l11.714-0.08449h0.15715s0.0846-0.07245 0-0.31378l-3.953-18.332c-0.0725-0.2293-0.15715-0.2293-0.15715-0.2293zm-131.39 0.2293s-0.0725 0-0.15715 0.16897l-7.9178 17.922c-0.15715 0.24137-0.0846 0.39826-0.0846 0.39826s0.0846 0.08448 0.48354 0.08448l11.63 0.07245c0.0846 0 0.12089-0.07245 0.12089-0.07245s0.0846-0.08448 0-0.32585l-4.0013-18.079c0-0.16897-0.0725-0.16897-0.0725-0.16897zm-40.545 39.416c-0.0846 0.62757-0.39892 1.1103-0.39892 1.1103s-0.33848 0.32585-0.84623 0.48274c-7.6402 3.0776-16.09 2.0396-16.09 2.0396-13.708-1.4724-22.388-9.8722-25.192-20.686-4.1222-16.208 4.0497-27.709 6.0442-30.184 4.7992-5.7568 12.318-9.8602 19.717-10.825 9.405-1.3155 16.368 0.88102 19.245 1.8465 0 0 3.1551 0.98962 5.5124 2.5948 1.1968 0.7965 1.366 1.1103 1.366 1.1103s0.0725 0.16896-0.25386 1.4l-2.2243 11.61c-0.0846 0.48275-0.37474 0.72412-0.37474 0.72412s-0.15716 0.08448-1.2814-0.63964c-7.1081-5.0326-15.425-4.4292-15.425-4.4292-6.3224 0.39826-13.72 3.7172-15.921 12.093-1.9583 7.4344 0.0846 13.662 4.509 17.367 3.01 2.6431 7.6882 3.9586 12.608 3.7292 5.3552-0.39826 9.6345-2.5224 9.3202-2.3655 0 0 0.22969-0.08448 0.48355-0.15689 1.1122-0.55516 1.3539-0.48275 1.3539-0.48275s0.24178 0.24137 0.0725 0.96548l-2.2243 12.696" fill="#fff"/>
 </g>
 <g transform="matrix(.87436 0 0 .87436 .033648 -.42843)" fill="#00a0ff">
  <path d="m510.3 0.49h165.17l10.71 78.322-158.2 24.778"/>
  <path d="m644.44 98.06 10.537-1.7676c11.597-1.7849 17.789 4.1204 19.323 10.768 1.61 8.51-5.03 17.18-13.28 18.95l-11.77 2.76m4.3606-25.318 2.8994 16.548c2.76-0.66 5.78-1.52 7.53-3.95 3.09-3.76 1.95-10.48-2.71-12.39-2.3-1.09-5.3282-0.52828-7.7194-0.20848z"/>
  <path d="m629.56 100.52 8.5-1.37 5.01 31.08-8.21 1.97-2.25-12.96-11.29 2.32 2.28 13.3-8.39 1.87-5.76-32.85 8.53-1.44 2.16 12.44 11.42-2.21z"/>
  <path d="m594.51 106.4 8.57-1.46 3.88 22.01c0.74 5.26-1.94 10.69-6.4 13.51-4.65 2.7-10.89 3.64-15.61 0.61-3.37-2.18-4.73-6.23-5.51-9.96l-4.23-21.55 8.62-1.26 3.68 19.64c0.43 2.39 1.32 5.08 3.63 6.27 2.65 0.98 6.17-0.43 6.98-3.26 0.78-1.92 0.17-4.01-0.08-5.97z"/>
 </g>
 <path d="m557.7 13.141 17.691-0.24414-18.029 22.375 26.344 21.885-17.837 2.0547-20.486-18.204 3.2001 20.093-13.684 1.6875-8.1665-48.973 14.287-0.22733 3.0515 19.21z" fill="#fff" stroke-width=".87436"/>
 <path d="m488.19 14.663 18.362-0.24482 5.1587 29.151 6.5052-0.38472 1.7575 10.877-6.3041 0.55959 1.7837 10.387-12.617 1.4252-1.9323-10.588-25.286 2.3608-1.5715-9.4267m13.314-3.3564 11.463-0.85687-3.2176-17.531z" fill="#fff" stroke-width=".87436"/>
</svg>
