<svg width="800" height="354.15" version="1.1" viewBox="0 0 211.67 93.702" xmlns="http://www.w3.org/2000/svg">
 <g transform="translate(-225.41 63.274)">
  <path d="m426.67-19.972h-137.52v43.333l137.54 0.0074z" fill="#1f6430"/>
  <path d="m433.3-26.63-136.93 13.893 3.7781 43.166 136.93-13.885z" fill="#b5dd2b"/>
  <path d="m367.68-19.972-71.305 7.2345 3.1594 36.099 70.267 0.0029 56.887-5.7687-9e-3 -37.568z" fill="#39b73e"/>
  <g transform="matrix(1.1324 0 0 1.1324 -29.841 -4.0282)" fill="#fff">
   <path d="m307.22-2.4654v4.0831h6.9554v5.384h-6.9554v9.6216h-6.3628v-24.473h14.001v5.384z"/>
   <path d="m359.61-2.8557c-4.1477 0-7.2774 3.1944-7.2774 7.4062 0 4.0831 2.899 7.0584 6.8524 7.0584 4.083 0 7.1098-3.1042 7.1098-7.316 0-4.1475-2.8333-7.1486-6.6848-7.1486m-0.36511 20.325c-7.7283 0-13.254-5.2809-13.254-12.751 0-7.7024 5.8476-13.447 13.744-13.447 7.6765 0 12.893 5.0877 12.893 12.571 0 7.96-5.5774 13.627-13.383 13.627"/>
   <path d="m384.93-2.4654v19.089h-6.3632v-19.089h-5.1521v-5.384h16.809v5.384z"/>
   <path d="m330.48-2.8557c-4.1345 0-7.2774 3.1944-7.2774 7.4062 0 4.0831 2.9099 7.0584 6.8524 7.0584 4.083 0 7.123-3.1042 7.123-7.316 0-4.1475-2.8479-7.1486-6.698-7.1486m-0.36511 20.325c-7.7283 0-13.241-5.2809-13.241-12.751 0-7.7024 5.8348-13.447 13.73-13.447 7.6768 0 12.893 5.0877 12.893 12.571 0 7.96-5.5771 13.627-13.382 13.627"/>
  </g>
  <path d="m398.61-63.274h-173.2v43.29h173.2z" fill="#151922"/>
  <path d="m391.21-39.726s-0.0293 0.07442-0.16538 0.07442h-9.3492c-0.16539 0-0.20673 0.07442-0.20673 0.07442s-0.0827 0.02919-0.0827 0.21913v9.9618c0 0.14471-0.0827 0.19018-0.0827 0.19018s-0.0413 0.05789-0.16538 0.05789h-7.3949c-0.12403 0-0.20672-0.05789-0.20672-0.05789s-0.0298-0.04548-0.0298-0.23153v-9.9474c0-0.11577-0.0827-0.19018-0.0827-0.19018s-0.0413-0.07442-0.16539-0.07442h-9.5684c-0.20673 0-0.20673-0.02923-0.20673-0.02923s-0.0827-0.08682-0.0827-0.30595v-7.2926c0-0.07442 0.0827-0.19018 0.0827-0.19018s0.0298-0.02923 0.0827-0.02923h9.7871c0.0827 0 0.0827-0.02919 0.0827-0.02919s0.0827-0.04548 0.0827-0.11577v-8.722c0-0.10336 0.0298-0.17365 0.0298-0.17365s0.0827-0.04548 0.28941-0.04548h7.2638c0.16538 0 0.20672 0.04548 0.20672 0.04548s0.0827 0.07442 0.0827 0.21913v8.7513h9.4803c0.24807 0 0.33076 0.04548 0.33076 0.04548s0.12404 0.02923 0.12404 0.24807v7.3802c0 0.07442-0.12404 0.17365-0.12404 0.17365m-28.937 10.254c-0.0413 0.21913-0.0827 0.29355-0.0827 0.29355s-0.0413 0.07442-0.20672 0.07442h-15.038c-0.43826 0-0.55402-0.10336-0.55402-0.10336s-0.0827-0.16124-0.0298-0.48125l3.721-25.904c0.0298-0.33489 0.12403-0.43742 0.12403-0.43742h7.2126c0.20673 0 0.24807 0.02915 0.24807 0.02915s0.0413 0.11576 0 0.24807l-2.799 20.259c-0.0413 0.21912 0.0827 0.24807 0.0827 0.24807s0.0827 0.04548 0.3721 0.04548h7.4383c0.16537 0 0.20671 0.07442 0.20671 0.07442s0.0413 0.04548 0.0413 0.21912zm-19.165 0.39277h-6.68c-0.16538 0.07442-0.24807-0.07442-0.24807-0.07442s-0.0293-0.02923-0.0827-0.24807l-0.85997-4.113c-0.0827-0.23153-0.16538-0.35143-0.16538-0.35143s-0.20672-0.10336-0.41345-0.10336h-8.6935c-0.16539 0-0.28942 0.10336-0.28942 0.10336s-0.16538 0.1447-0.20673 0.36383l-1.968 4.2006c-0.0413 0.11576-0.0827 0.1447-0.0827 0.1447s-0.16538 0.04548-0.24806 0.04548h-7.5115c-0.16538 0.02919-0.24807-0.07442-0.24807-0.07442s-0.0413-0.07442 0.0827-0.21912l13.243-26.458c0.0827-0.02915 0.16537-0.14471 0.16537-0.14471s0.0827-0.02915 0.28942-0.02915h8.2114c0.20671 0 0.28941 0.10336 0.28941 0.10336s0.0413 0.04548 0.0827 0.1447l5.5133 26.575c0 0.05787-0.0413 0.10336-0.0413 0.10336s0 0.02919-0.0827 0.02919m-31.286-0.02915h-6.8872s-0.0413-0.04548-0.0827-0.07442l-9.2765-16.452c-0.0827-0.08682-0.0827-0.08682-0.0827-0.08682s-0.0827 0-0.0827 0.11577l-2.3029 16.161c-0.0413 0.19018-0.0827 0.23153-0.0827 0.23153s-0.0827 0.02923-0.20672 0.02923h-6.6362c-0.12403 0-0.16537-0.07442-0.16537-0.07442s-0.16538-0.14471-0.12404-0.29355l3.6466-26.166c0.0413-0.14471 0.0827-0.17365 0.0827-0.17365s0.12405-0.11577 0.24808-0.11577h7.4094c0.0827 0 0.16538 0.07442 0.16538 0.07442s0.0827 0.04548 0.12403 0.14471l8.3574 14.658c0.12402 0.30595 0.24807 0.2646 0.24807 0.2646s0.12403 0 0.20671-0.32249l2.1168-14.6c0-0.10336 0.0827-0.14471 0.0827-0.14471s0.0293-0.07442 0.16538-0.07442l6.9719 0.07442c0.16538 0 0.16538 0.04548 0.16538 0.04548s0.0413 0.02915 0.0413 0.10336l-3.7624 26.385c-0.0293 0.1447-0.0827 0.24806-0.0827 0.24806s-0.0413 0.04548-0.24807 0.04548m-29.186-0.07442-6.5052 0.02919c-0.16537 0-0.24806-0.05787-0.24806-0.05787s-0.0413-0.04548-0.0827-0.30595l-1.0212-4.2006c0-0.10336-0.0827-0.14471-0.0827-0.14471h-9.2694c-0.20672 0-0.28942 0.14471-0.28942 0.14471s-0.16537 0.11577-0.24806 0.38037l-1.8233 3.8942c-0.0827 0.1447-0.12403 0.19018-0.12403 0.19018s-0.0827 0.07442-0.20673 0.07442h-7.5698c-0.20672 0.02919-0.24807-0.07442-0.24807-0.07442s-0.0293-0.11576 0.0413-0.26047l13.098-26.341c0.0827-0.14471 0.16538-0.17365 0.16538-0.17365h8.6199c0.12403 0 0.24808 0.10336 0.24808 0.10336s0.0413 0.04548 0.0827 0.14471l5.6154 26.414c0 0.11576-0.0827 0.16124-0.0827 0.16124s-0.0293 0.02923-0.0827 0.02923m49.474-19.224s-0.0293 0-0.0413 0.1323l-3.6466 8.2553c-0.0827 0.24807-0.0413 0.29355-0.0413 0.29355s0.0827 0.07442 0.20672 0.07442l5.3967-0.02919h0.0827s0.0293-0.04548 0-0.14471l-1.8357-8.4741c-0.0145-0.10336-0.0827-0.10336-0.0827-0.10336m-60.573 0.10336s-0.0413 0-0.0827 0.07442l-3.63 8.2845c-0.0827 0.11577-0.0413 0.17365-0.0413 0.17365s0.0413 0.04548 0.20671 0.04548l5.3674 0.04548c0.0413 0 0.0827-0.04548 0.0827-0.04548s0.0413-0.04548 0-0.14471l-1.8688-8.3575c0-0.07442-0.0293-0.07442-0.0293-0.07442m-18.684 18.203c-0.0293 0.29355-0.20673 0.51061-0.20673 0.51061s-0.12403 0.14471-0.41344 0.21912c-3.4853 1.4293-7.38 0.94803-7.38 0.94803-6.3303-0.68549-10.341-4.5506-11.625-9.5534-1.8977-7.4823 1.8688-12.806 2.7701-13.944 2.2326-2.6547 5.7031-4.5506 9.1012-4.9882 4.3321-0.6272 7.5408 0.39277 8.868 0.83144 0 0 1.4595 0.48125 2.551 1.2106 0.554 0.36383 0.61189 0.51061 0.61189 0.51061s0.0413 0.07442-0.0827 0.65655l-1.0212 5.3529c-0.0413 0.23153-0.20672 0.33489-0.20672 0.33489s-0.0827 0.02919-0.57055-0.29355c-3.2952-2.3335-7.1324-2.042-7.1324-2.042-2.9189 0.19018-6.3158 1.7212-7.3366 5.5862-0.90544 3.4275 0.0413 6.3009 2.0838 8.0366 1.385 1.1812 3.5432 1.8084 5.8048 1.7063 2.4807-0.19018 4.4487-1.1816 4.3027-1.1084 0 0 0.12402-0.02923 0.20671-0.07442 0.50854-0.24807 0.62844-0.21913 0.62844-0.21913s0.0827 0.11577 0.0293 0.45231z" fill="#fff"/>
 </g>
</svg>
