<svg width="600pt" height="354.95pt" version="1.1" viewBox="0 0 600 354.95" xmlns="http://www.w3.org/2000/svg">
 <g transform="matrix(1.1368 0 0 1.1368 49.91 -11.757)" fill="#b10021">
  <path d="m203.73 21.67c5.0263-5.0263 9.43-10.26 16.27-11.22 5.85-0.81 10.231 3.0822 14.37 7.2l107.35 108.7c4.8731 4.9499 9.09 8.7422 9.09 16.66 0 5.2923-2.1849 7.21-6.2098 11.59l-52.874 51.58h-2.696c4.7607-8.9817 5.6367-17.412-0.59-25.54 0.85266-1.7636 1.8275-3.5485 2.1697-5.4746 0.25609-1.3505 0.19114-2.8205-0.13416-4.1288-0.65202-2.3061-2.6345-4.0884-4.5855-5.4367l-0.97-4.79h-21.59c-2.13-0.81-2.5-3.71-3.43-5.53-1.04 0.11-2.06 0.24-3.09 0.38-0.68 0.71-1.46 1.27-2.34 1.7-0.43 0.97-0.84 2.46-1.25 3.45h-12.02c-2.01-1.42-0.48-4.34-0.65-6.38 0.72-0.64 1.45-1.29 2.18-1.93-0.45-1.9-1.04-3.75-1.69-5.59-0.2 0.91-0.4 1.83-0.59 2.74-4.67 1.3-7.43-3.16-11.09-5.06-2.09-1.19-2.46-4.11-4.77-5.01-3.18-1.04-3.88-4.77-6.61-6.37-3.22-1.92-5.5-4.97-7.42-8.13-4.22-0.05-4.52 5.16-6.79 7.67-9.64 11.35-23.74 17.07-35.8 25.29-8.32 5.46-16.46 12.94-18.61 23.07-1.3 4.51-0.8 9.23-1.08 13.85-0.27 1.8-2.51 0.71-2.94-0.35-2.31-3.39-2.52-7.72-2.74-11.69-0.31-9.87 6.88-18.07 6.87-27.89 0.16-8.65-3.13-17.98-10.52-23-4.5159-3.079-10.107-5.6386-15.641-4.9949-2.2332 0.13825-3.1056 0.84419-3.635 2.8337-0.68153 4.0541 3.3633 4.3855 6.156 5.2412 7.01 1.55 13.27 6.37 16.14 13 1.04 2.3177 1.4343 4.8119 1.7815 7.3065 0.32718 2.0709 0.20722 4.0188-0.0887 5.8917-0.60594 3.8151-1.5023 7.5798-2.9229 11.182-1.2689 3.5799-1.6564 7.088-1.6242 10.613-0.018 2.5556 0.0689 4.832 0.57997 7.0669 0.54772 2.3618 1.5235 4.6377 2.0042 7.0204l-48.92-47.04c-4.6209-4.6209-4.8328-11.997-0.28025-16.55l111.23-111.93m46.57 37.31c0.09 0.86 0.26 2.58 0.35 3.44-3.24 0.89-6.36-1.92-9.51-0.39-3.43 1.52-7.04 2.57-10.8 2.75 0.68 1.47 1.35 2.94 2.03 4.41-1.02 5.68-7.43 6.65-10.78 10.5-0.2 2.42-0.8 4.95-3.02 6.31-0.23 2.19-0.66 4.37-1.6 6.38 2.1532 0.09077 3.5435 0.68844 4.43 1.59-0.75 3.04-2.43 5.77-2.64 8.95 0.13 2.72-3.04 2.48-4.9 2.97-0.54 3.41-2.37 6.38-3.51 9.59 2.96 2.27 5.33 5.25 5.87 9.03l2.08 0.52c0.13 0.5 0.39 1.48 0.52 1.98 3.31 1.68 6.8 3.98 8.08 7.65 2.79 1.56 5.14 3.82 7.26 6.21 0.94 1.02 1.36 2.76 2.86 3.11 1.8386-0.72353 1.5398-2.7368 1.4842-4.4053-0.0738-0.64285 0.0244-0.85085 0.51535-1.1482 2.9684-1.5245 6.6045 1.5974 5.6405 4.9336 1.24 1.13 2.7 2.12 3.4 3.7 0.67 2.99-0.04 6.04-0.71 8.96 1.43-0.18 3.05-0.44 3.76-1.88 1.77-2.92 4.12-5.4 6.95-7.31 2.46 2.25 4 5.25 6.25 7.68 0.51-0.02 1.53-0.05 2.04-0.07 0.2-1.24 0.92-1.89 2.16-1.95 0.09-5.51 0.25-11.07-0.35-16.55-0.78-1.03-1.73-1.92-2.57-2.89 0.05-1.21 0.36-2.35 0.93-3.44 1.49 0.1 4.23 0 3.96-2.12-0.33575-1.57-3.49-4.44-5.33-6.57l0.23567-1.0605c2.6469-0.7041 1.1531-1.3099 0.37433-1.6795-4.14-1.66-5.99-6.41-4.22-10.49 3.11-0.11 6.41 1.64 9.28-0.26 0.47945-0.38239 0.95891-1.2247 0.94-1.7-3.29 0.28-6.02-1.27-8.11-3.68 0.56633-1.3368 1.3969-1.8989 2.3-2.33 3.03 1.1 6.26 1.19 9.45 1.04 0.81-1.5 1.67-3.11 3.49-3.5 0-2.22-0.95-4.18-2.43-5.79-2.6039-3.1704-3.664-7.1485-5.0353-10.919-0.40186-1.759-1.6842-3.0206-2.5321-4.3988-2.1226-3.4729-3.126-7.5637-5.3368-10.998-0.44134-0.6165-0.73744-0.59031-1.1928-0.65637-1.3764-0.16169-2.8202 0.1726-4.2029 0.03267-1.66-0.73-2.26-2.46-2.81-4.03-1.71-0.42-3.4-0.92-5.05-1.52z"/>
  <path transform="scale(.75)" d="m319.96 230.37c-9.0933 0.16-17.84 3.2408-25.773 7.4941-10.48 6.6133-20.548 14.706-26.734 25.652-1.8437 2.4154 0.9391 4.9341 3.4411 5.1768 0.74759 0.046 1.435 0.0467 2.1646-0.17973 1.9554-0.59024 3.1101-2.8628 4.5818-4.2099 1.1264-1.058 1.9502-1.2317 3.0918 0 1 1.24 2.0003 2.5061 3.0137 3.7461-0.25333 0.66667-0.76 2.0013-1 2.668 0.73334 0.22667 2.228 0.69326 2.9746 0.91992 0.69334 1.1867 1.3851 3.0536 2.0918 4.2402h61.809c-6.3767-4.7665-10.137-12.257-10.148-20.219 6e-3 -13.802 11.077-25.05 24.877-25.275l4e-3 -0.0137z" stroke-width="1.3333"/>
  <path transform="scale(.75)" d="m222.53 295.21 14.975 14.391h113.87l15.592-14.391z" stroke-width="1.3333"/>
  <path transform="scale(.75)" d="m256.29 327.65 10.863 10.439-0.0527 0.0176 53.389-6e-3 11.324-10.451z" stroke-width="1.3333"/>
 </g>
 <g transform="matrix(2.6723 0 0 2.6723 5.7485 -569.85)">
  <path d="m15.369 340.04c-1.53 3.03-3.39 4.62-5.88 4.62-4.08 0-7.05-3.63-7.05-9.15 0-4.41 2.4-8.52 6.75-8.52 2.31 0 4.62 1.05 5.61 4.62l1.11-0.21c-0.21-1.89-0.42-3.27-0.69-4.92-0.81-0.18-3.03-0.81-5.46-0.81-7.17 0-11.91 4.29-11.91 10.44 0 4.77 3.33 9.96 11.31 9.96 2.04 0 4.8-0.6 5.58-0.78 0.51-1.05 1.29-3.33 1.68-4.77z"/>
  <path d="m31.194 344.27-0.3-0.96c-0.33 0.12-0.66 0.24-1.02 0.24-0.48 0-0.96-0.39-0.96-1.77v-4.95c0-1.68-0.27-2.97-1.56-3.96-0.81-0.6-1.71-0.87-2.94-0.87-1.71 0.3-3.84 1.35-4.98 2.13-0.69 0.51-1.05 0.9-1.05 1.44 0 0.78 1.08 1.5 1.86 1.5 0.63 0 1.05-0.24 1.26-1.02 0.24-0.93 0.51-1.65 0.87-2.07 0.27-0.36 0.6-0.54 0.99-0.54 1.11 0 1.83 1.05 1.83 2.94v0.9c-0.69 0.6-3 1.32-4.77 1.98-1.56 0.57-2.28 1.32-2.28 2.88 0 1.86 1.5 3.84 4.05 3.84 0.57 0 1.98-0.99 3.12-1.74 0.15 0.36 0.36 0.75 0.78 1.11 0.39 0.36 1.02 0.63 1.83 0.63zm-6-1.02c-0.51 0.36-0.84 0.48-1.26 0.48-0.69 0-1.8-0.63-1.8-2.31 0-1.02 0.48-1.56 1.41-2.04 0.6-0.33 1.11-0.66 1.65-0.93z"/>
  <path d="m47.542 345.62v-0.96c-1.56-0.24-1.74-0.3-1.74-2.19v-5.67c0-3-1.5-4.8-3.93-4.8-0.87 0-1.44 0.27-2.34 0.84-0.66 0.42-1.26 0.9-1.86 1.32v-2.22c-1.77 0.51-3.72 0.93-5.43 1.14v0.87c1.47 0.27 1.62 0.39 1.62 2.19v6.21c0 2.01-0.15 2.04-2.01 2.31v0.96h7.23v-0.96c-1.23-0.21-1.41-0.3-1.41-2.16v-7.26c0.78-0.6 1.47-0.93 2.22-0.93 1.08 0 2.07 0.66 2.07 2.82v5.1c0 2.13-0.15 2.22-1.41 2.43v0.96z"/>
  <path d="m62.014 344.27-0.3-0.96c-0.33 0.12-0.66 0.24-1.02 0.24-0.48 0-0.96-0.39-0.96-1.77v-4.95c0-1.68-0.27-2.97-1.56-3.96-0.81-0.6-1.71-0.87-2.94-0.87-1.71 0.3-3.84 1.35-4.98 2.13-0.69 0.51-1.05 0.9-1.05 1.44 0 0.78 1.08 1.5 1.86 1.5 0.63 0 1.05-0.24 1.26-1.02 0.24-0.93 0.51-1.65 0.87-2.07 0.27-0.36 0.6-0.54 0.99-0.54 1.11 0 1.83 1.05 1.83 2.94v0.9c-0.69 0.6-3 1.32-4.77 1.98-1.56 0.57-2.28 1.32-2.28 2.88 0 1.86 1.5 3.84 4.05 3.84 0.57 0 1.98-0.99 3.12-1.74 0.15 0.36 0.36 0.75 0.78 1.11 0.39 0.36 1.02 0.63 1.83 0.63zm-6-1.02c-0.51 0.36-0.84 0.48-1.26 0.48-0.69 0-1.8-0.63-1.8-2.31 0-1.02 0.48-1.56 1.41-2.04 0.6-0.33 1.11-0.66 1.65-0.93z"/>
  <path d="m70.314 345.62v-0.96c-1.83-0.21-2.01-0.33-2.01-2.34v-17.79c-1.68 0.48-3.9 0.87-5.61 1.08v0.87c1.65 0.21 1.8 0.3 1.8 2.1v13.74c0 1.92-0.18 2.07-1.95 2.34v0.96z"/>
 </g>
 <g transform="matrix(2.6723 0 0 2.6723 5.7485 -569.85)" fill="#b10021">
  <path d="m78.358 326.12v1.05c2.07 0.24 2.34 0.42 2.34 2.97v11.49c0 2.55-0.27 2.76-2.52 2.97v1.02h9.33v-1.02c-2.58-0.21-2.85-0.42-2.85-2.97v-4.11l2.04 0.48c0.33 0 0.81 0 1.26-0.06 3.15-0.39 6.12-2.22 6.12-6.24 0-1.95-0.81-3.45-2.22-4.41-1.17-0.84-2.88-1.17-5.25-1.17zm6.3 2.4c0-0.45 0.09-0.75 0.27-0.93 0.18-0.15 0.54-0.3 1.11-0.3 1.83 0 3.75 1.11 3.75 4.5 0 4.05-2.4 4.83-3.51 4.83-0.63 0-1.26-0.15-1.62-0.3z"/>
  <path d="m108.36 344.27-0.3-0.96c-0.33 0.12-0.66 0.24-1.02 0.24-0.48 0-0.96-0.39-0.96-1.77v-4.95c0-1.68-0.27-2.97-1.56-3.96-0.81-0.6-1.71-0.87-2.94-0.87-1.71 0.3-3.84 1.35-4.98 2.13-0.69 0.51-1.05 0.9-1.05 1.44 0 0.78 1.08 1.5 1.86 1.5 0.63 0 1.05-0.24 1.26-1.02 0.24-0.93 0.51-1.65 0.87-2.07 0.27-0.36 0.6-0.54 0.99-0.54 1.11 0 1.83 1.05 1.83 2.94v0.9c-0.69 0.6-3 1.32-4.77 1.98-1.56 0.57-2.28 1.32-2.28 2.88 0 1.86 1.5 3.84 4.05 3.84 0.57 0 1.98-0.99 3.12-1.74 0.15 0.36 0.36 0.75 0.78 1.11 0.39 0.36 1.02 0.63 1.83 0.63zm-6-1.02c-0.51 0.36-0.84 0.48-1.26 0.48-0.69 0-1.8-0.63-1.8-2.31 0-1.02 0.48-1.56 1.41-2.04 0.6-0.33 1.11-0.66 1.65-0.93z"/>
  <path d="m114.84 335.15v-3.18c-1.86 0.57-3.63 0.9-5.43 1.14v0.84c1.38 0.33 1.62 0.45 1.62 1.98v6.54c0 1.86-0.3 2.01-1.92 2.19v0.96h8.22v-0.96c-2.31-0.21-2.49-0.33-2.49-2.19v-5.58c0.51-1.17 1.11-1.56 1.68-1.56 0.51 0 0.87 0.21 1.38 0.63 0.21 0.18 0.51 0.27 0.93 0.12 0.81-0.3 1.47-1.14 1.47-2.22 0-1.02-0.81-1.86-2.01-1.86-1.11 0-2.28 1.29-3.36 3.15z"/>
  <path d="m128.44 345.62v-0.96c-1.83-0.21-2.01-0.33-2.01-2.34v-17.79c-1.68 0.48-3.9 0.87-5.61 1.08v0.87c1.65 0.21 1.8 0.3 1.8 2.1v13.74c0 1.92-0.18 2.07-1.95 2.34v0.96z"/>
  <path d="m142.76 344.27-0.3-0.96c-0.33 0.12-0.66 0.24-1.02 0.24-0.48 0-0.96-0.39-0.96-1.77v-4.95c0-1.68-0.27-2.97-1.56-3.96-0.81-0.6-1.71-0.87-2.94-0.87-1.71 0.3-3.84 1.35-4.98 2.13-0.69 0.51-1.05 0.9-1.05 1.44 0 0.78 1.08 1.5 1.86 1.5 0.63 0 1.05-0.24 1.26-1.02 0.24-0.93 0.51-1.65 0.87-2.07 0.27-0.36 0.6-0.54 0.99-0.54 1.11 0 1.83 1.05 1.83 2.94v0.9c-0.69 0.6-3 1.32-4.77 1.98-1.56 0.57-2.28 1.32-2.28 2.88 0 1.86 1.5 3.84 4.05 3.84 0.57 0 1.98-0.99 3.12-1.74 0.15 0.36 0.36 0.75 0.78 1.11 0.39 0.36 1.02 0.63 1.83 0.63zm-6-1.02c-0.51 0.36-0.84 0.48-1.26 0.48-0.69 0-1.8-0.63-1.8-2.31 0-1.02 0.48-1.56 1.41-2.04 0.6-0.33 1.11-0.66 1.65-0.93z"/>
  <path d="m167.35 345.62v-0.96c-1.59-0.24-1.71-0.33-1.71-2.04v-5.79c0-3.06-1.41-4.83-4.02-4.83-0.9 0-1.71 0.39-2.37 0.84-0.72 0.51-1.44 0.96-2.16 1.53-0.54-1.38-1.77-2.37-3.42-2.37-0.87 0-1.68 0.36-2.61 0.96-0.66 0.39-1.23 0.81-1.89 1.29v-2.31c-1.86 0.51-3.87 0.93-5.28 1.14v0.87c1.38 0.21 1.53 0.51 1.53 2.22v6.3c0 1.89-0.18 1.98-1.89 2.19v0.96h7.05v-0.96c-1.14-0.18-1.35-0.33-1.35-2.04v-7.32c0.84-0.63 1.59-0.96 2.31-0.96 1.11 0 2.07 0.66 2.07 2.82v5.46c0 1.77-0.12 1.83-1.53 2.04v0.96h6.93v-0.96c-1.35-0.18-1.56-0.33-1.56-2.04v-6.06c0-0.45-0.06-0.87-0.09-1.2 0.99-0.81 1.74-0.99 2.34-0.99 0.96 0 2.13 0.48 2.13 2.94v5.16c0 1.89-0.24 2.01-1.56 2.19v0.96z"/>
  <path d="m179.92 341.93c-1.05 0.9-2.16 1.29-3.33 1.29-2.13 0-3.9-1.62-4.05-4.83 2.94-0.12 6.6-0.42 7.14-0.48 0.69-0.09 0.87-0.48 0.87-1.08 0.03-2.46-2.1-4.83-4.86-4.83-1.65 0-3.3 0.81-4.62 2.13-1.26 1.23-2.22 3.15-2.22 5.43 0 3.45 2.22 6.42 6.21 6.42 1.23 0 3.57-0.6 5.4-3.33zm-4.86-8.73c1.17 0 1.83 1.56 1.83 3.09-0.03 0.51-0.18 0.57-0.63 0.6-1.23 0.03-2.34 0.06-3.57 0.09 0.18-2.4 1.23-3.78 2.37-3.78z"/>
  <path d="m197.37 345.62v-0.96c-1.56-0.24-1.74-0.3-1.74-2.19v-5.67c0-3-1.5-4.8-3.93-4.8-0.87 0-1.44 0.27-2.34 0.84-0.66 0.42-1.26 0.9-1.86 1.32v-2.22c-1.77 0.51-3.72 0.93-5.43 1.14v0.87c1.47 0.27 1.62 0.39 1.62 2.19v6.21c0 2.01-0.15 2.04-2.01 2.31v0.96h7.23v-0.96c-1.23-0.21-1.41-0.3-1.41-2.16v-7.26c0.78-0.6 1.47-0.93 2.22-0.93 1.08 0 2.07 0.66 2.07 2.82v5.1c0 2.13-0.15 2.22-1.41 2.43v0.96z"/>
  <path d="m207.52 344.51-0.3-1.05c-0.51 0.24-0.99 0.36-1.5 0.36-0.63 0-1.71-0.27-1.71-2.61v-7.41h2.76c0.48-0.24 0.54-1.11 0.18-1.44h-2.94v-4.35l-0.42-0.18-3.39 2.34v2.19h-1.2l-0.84 1.08 0.15 0.36h1.89v8.4c0 2.7 1.35 3.78 3.66 3.78 0.21 0 0.69-0.12 1.23-0.33z"/>
  <path d="m215.54 332c-3.33 0-7.14 2.46-7.14 7.29 0 3.27 2.31 6.69 7.02 6.69 3.51 0 6.96-2.4 6.96-7.23 0-3.6-2.64-6.75-6.84-6.75zm-0.39 1.17c1.89 0 2.94 2.31 2.94 6.48 0 4.41-1.2 5.16-2.34 5.16-1.89 0-3.06-2.91-3.06-6.6 0-3.45 1.2-5.04 2.46-5.04z"/>
 </g>
</svg>
