<svg version="1.1" viewBox="0 0 800 798.53" xml:space="preserve" xmlns="http://www.w3.org/2000/svg"><defs>
		<linearGradient id="b" x1="-235.3" x2="-189.55" y1="766.59" y2="766.59" gradientTransform="matrix(14.733 0 0 14.733 3549.2 -10901)" gradientUnits="userSpaceOnUse">
		<stop stop-color="#80C461" offset="0"/>
		<stop stop-color="#4BB649" offset="1"/>
	</linearGradient>
		<linearGradient id="a" x1="-212.34" x2="-186.65" y1="752.26" y2="752.26" gradientTransform="matrix(14.733 0 0 14.733 3549.2 -10901)" gradientUnits="userSpaceOnUse">
		<stop stop-color="#80C461" offset="0"/>
		<stop stop-color="#4BB649" offset="1"/>
	</linearGradient>
</defs>
<path class="st0" d="m397.79 26.519-231.31 14.733-83.978 590.79 632.04 126.7 41.252-372.74z" enable-background="new" fill="url(#b)" opacity=".65" stroke-width="14.733"/><g transform="matrix(14.733 0 0 14.733 -45.672 -53.039)">
		<path class="st1" d="m30 36.7c-1.1 3.6-4.6 3.5-4.6 3.5-2.6 0-4.7-2.1-4.7-4.7s2.1-4.7 4.7-4.7c0 0 3.4-0.1 4.6 3.5l4.3-2c-2.6-6.5-8.9-6.2-8.9-6.2-5.2 0-9.4 4.2-9.4 9.4s4.2 9.4 9.4 9.4c0 0 6.3 0.3 8.9-6.2z"/>
		<path class="st1" d="m27.8 23.8v-10.7h-4.8v10.7c2.4-0.6 4.8 0 4.8 0z"/>
		<path class="st1" d="m23 47.1v10.7h4.7v-10.7c-2.3 0.6-4.7 0-4.7 0z"/>
		<path class="st1" d="m13.7 33.1h-10.6v4.7h10.7c-0.6-2.3-0.1-4.7-0.1-4.7z"/>
		<path class="st1" d="m37.1 33.1c0.6 2.4 0 4.7 0 4.7h10.7v-4.7z"/>
		<path class="st1" d="m35.3 28.9 7.5-7.5-3.3-3.4-7.5 7.5c2 1.3 3.3 3.4 3.3 3.4z"/>
		<path class="st1" d="m15.5 42-7.5 7.5 3.3 3.3 7.5-7.5c-2.1-1.2-3.3-3.3-3.3-3.3z"/>
		<path class="st1" d="m18.8 25.5-7.5-7.5-3.3 3.3 7.5 7.5c1.2-2 3.3-3.3 3.3-3.3z"/>
		<path class="st1" d="m32 45.4 7.5 7.5 3.3-3.3-7.5-7.6c-1.3 2.1-3.3 3.4-3.3 3.4z"/>
	</g><path d="m421.36 25.046 337.38 338.86 41.252-363.9z" fill="url(#a)" stroke-width="14.733"/>
<g transform="translate(1520.8 -562.11)"><g transform="matrix(.4291 0 0 .4291 -1540.6 536.82)"><path d="m1804 622c2.75-32.45 5.48-64.9 8.18-97.35-77.9-0.05-155.81 0-233.71-0.04 34.16-20.47 68.04-41.5 100.61-64.45 28.2-20.02 56.1-40.97 79.81-66.29 23.3-24.87 40.09-56.38 44.79-90.35 3.86-27.67 0.96-56.5-9.89-82.36-14.29-32.26-39.53-59.98-71.33-75.6-18.26-9.1-38.2-14.39-58.33-17.28-25.63-3.23-51.72-3.36-77.29 0.42-18.23 3.06-36.31 7.93-52.85 16.31-17.72 8.44-33.57 20.66-46.72 35.19-26.94 29.72-41.53 68.33-49.93 107.03 33.66 7.56 67.33 15.06 101 22.57 2.62-20.01 7.17-40.26 17.59-57.77 7.13-12.25 17.71-22.68 30.67-28.6 12.45-5.81 26.41-7.62 40.04-6.93 16.28 0.72 32.77 6.7 44.17 18.66 12.8 12.88 18.89 31.47 17.71 49.45-1.01 21.13-11.63 40.32-23.95 56.96-12.01 15.82-26.18 29.87-40.81 43.25-29 26.23-59.92 50.26-91.31 73.55-31.69 23.41-64.2 45.68-95.86 69.13 112.95 56.857 240.95 94.515 367.41 94.5z" fill="#214b18"/></g><g transform="matrix(.4291 0 0 .4291 -1540.6 536.82)"><path d="m1586.8 128.7c25.57-3.78 51.66-3.65 77.29-0.42 20.13 2.89 40.07 8.18 58.33 17.28 31.8 15.62 57.04 43.34 71.33 75.6 10.85 25.86 13.75 54.69 9.89 82.36-4.7 33.97-21.49 65.48-44.79 90.35-23.71 25.32-51.61 46.27-79.81 66.29-32.57 22.95-66.45 44-100.61 64.47h233.71l-8.18 97.375h-273.73l-93.68-94.505c31.66-23.45 64.17-45.72 95.86-69.13 31.39-23.29 62.31-47.32 91.31-73.55 14.63-13.38 28.8-27.43 40.81-43.25 12.32-16.64 22.94-35.83 23.95-56.96 1.18-17.98-4.91-36.57-17.71-49.45-11.4-11.96-27.89-17.94-44.17-18.66-13.63-0.69-27.59 1.12-40.04 6.93-12.96 5.92-23.54 16.35-30.67 28.6-10.42 17.51-14.97 37.76-17.59 57.77l-101-22.57c8.4-38.7 22.99-77.31 49.93-107.03 13.15-14.53 29-26.75 46.72-35.19 16.54-8.38 34.62-13.25 52.85-16.31z" fill="#fff"/></g></g></svg>
