<svg width="600.04" height="314.43" version="1.1" viewBox="0 0 158.76 83.192" xmlns="http://www.w3.org/2000/svg">
 <defs>
  <clipPath id="e">
   <path d="m666.14 0h666.16v907.09h-666.16z"/>
  </clipPath>
  <clipPath id="d">
   <path d="m1159.4 263.39h47.6v-19.04h-47.6z"/>
  </clipPath>
  <clipPath id="c">
   <path d="m1161.8 261.19h42.7v-15.2h-42.7z"/>
  </clipPath>
 </defs>
 <g transform="translate(-.0024898 11.277)">
  <path d="m152.37 67.72h-104.39l-3e-3 -33.86h104.39v33.86z" fill="#009335"/>
  <g transform="matrix(2.5647 0 0 -2.5647 -2934.3 701.18)">
   <g clip-path="url(#e)">
    <g clip-path="url(#d)" opacity=".5">
     <g transform="translate(1162.8,258.72)">
      <path d="m0 0-2.441-0.214 1.151-13.15 18.761 1.641h-17.471zm42.041 3.678-25.148-2.2h23.812v-11.168l2.486 0.218z" fill="#009335"/>
     </g>
    </g>
    <g clip-path="url(#c)" opacity=".5">
     <g transform="translate(1203.5,260.19)">
      <path d="m0 0h-23.812l-16.893-1.478v-11.723h17.471l23.234 2.033z" fill="#009335"/>
     </g>
    </g>
   </g>
  </g>
  <g fill="#fff" stroke-width="2.5647">
   <path d="m129.74 58.389h-5.5808l-4.519-7.4941-0.9079 7.4941h-4.7934l2.3236-18.922h6.1578c4.4908 0 6.6862 1.8953 6.6862 5.7552 0 1.9876-0.50781 3.3803-1.6671 4.4626-0.6027 0.58219-1.108 0.85404-2.3493 1.3567zm-9.7689-10.546h0.85917c2.0159 0 3.3982-0.95663 3.3982-2.4006 0-1.2362-0.97715-1.9158-2.7442-1.9158h-0.9079z"/>
   <path d="m140.41 58.39h-4.9165v-14.757h-3.9855v-4.1651h12.995v4.1651h-4.0933z"/>
   <path d="m68.955 44.386c-1.031-0.88739-2.0364-1.2926-3.1161-1.2926-1.1798 0-2.0595 0.70786-2.0595 1.6414 0 0.35393 0.14619 0.68478 0.44113 0.93612 0.31802 0.30263 0.75659 0.53346 1.2259 0.67964 0.26929 0.10259 0.83353 0.25647 1.644 0.50781 1.6927 0.53089 2.5519 1.0054 3.3367 1.8902 0.83353 0.91303 1.1746 1.921 1.1746 3.3803 0 1.1618-0.29494 2.6186-0.68734 3.4367-1.0284 2.0389-3.5085 3.329-6.4733 3.329-1.4516 0-2.675-0.27955-4.1728-0.91047-0.97972-0.40522-1.349-0.63348-2.2313-1.267l2.0338-3.9266c1.4747 1.2977 2.8212 1.9158 4.2215 1.9158 1.4234 0 2.3057-0.7335 2.3057-1.8722 0-0.37701-0.14362-0.75659-0.38984-1.0079-0.49242-0.50525-0.93355-0.70273-2.4801-1.1567-1.5209-0.45652-2.1082-0.68221-2.7955-1.0644-1.4491-0.75659-2.1595-2.1723-2.1595-4.2112 0-3.8137 2.5262-6.3861 6.2553-6.3861 1.9389 0 3.9984 0.53602 5.8373 1.5388z"/>
   <path d="m79.983 58.389h-4.7883v-18.922h7.6095c2.1569 0 3.3854 0.42574 4.5831 1.5901 1.208 1.1592 1.7953 2.7263 1.7953 4.6857 0 4.1215-2.1851 6.363-6.2066 6.363h-2.993zm1.5696-10.243c1.8132 0 2.6237-0.72838 2.6237-2.3493 0-1.585-0.85918-2.3698-2.598-2.3698h-1.5952v4.719z"/>
   <path d="m101.53 38.821c-5.9988 0-10.461 4.4113-10.461 10.313 0 5.6193 4.6113 9.9818 10.567 9.9818 6.0245 0 10.572-4.3626 10.572-10.159 0-5.8219-4.5472-10.136-10.677-10.136m0.10515 15.47c-3.0982 0-5.5833-2.5006-5.5833-5.609 0-2.9981 2.5391-5.4705 5.5833-5.4705 3.0905 0 5.5834 2.4724 5.5834 5.5244 0 3.0802-2.4929 5.5551-5.5834 5.5551"/>
  </g>
 </g>
 <g transform="translate(16.16 82.614)">
  <g transform="matrix(.75774 0 0 .75774 -16.122 -82.614)">
   <path d="m-0.050236 59.567h178.73v-44.686h-178.73z" fill="#020203"/>
   <g transform="matrix(8.3744 0 0 -8.3744 171.04 39.174)">
    <path d="m0 0-0.018-9e-3h-1.151c-0.018 0-0.027-9e-3 -0.027-9e-3s-0.014-5e-3 -0.014-0.027v-1.227c0-0.018-9e-3 -0.023-9e-3 -0.023l-0.018-9e-3h-0.913l-0.022 9e-3s-5e-3 5e-3 -5e-3 0.027v1.228l-0.013 0.022-0.018 9e-3h-1.178c-0.023 0-0.027 4e-3 -0.027 4e-3s-0.01 9e-3 -0.01 0.036v0.899l0.01 0.023 0.013 4e-3h1.205l9e-3 5e-3 9e-3 0.013v1.074l5e-3 0.023s9e-3 4e-3 0.036 4e-3h0.895c0.018 0 0.022-4e-3 0.022-4e-3s9e-3 -9e-3 9e-3 -0.027v-1.079h1.169c0.032 0 0.041-4e-3 0.041-4e-3s0.013-5e-3 0.013-0.032v-0.908zm-3.566-1.263c-5e-3 -0.027-9e-3 -0.036-9e-3 -0.036s-5e-3 -9e-3 -0.027-9e-3h-1.853c-0.054 0-0.068 0.013-0.068 0.013s-9e-3 0.018-4e-3 0.059l0.458 3.191c5e-3 0.041 0.014 0.054 0.014 0.054h0.89c0.023 0 0.032-4e-3 0.032-4e-3s5e-3 -0.014 0-0.032l-0.346-2.494c-5e-3 -0.027 9e-3 -0.032 9e-3 -0.032s9e-3 -5e-3 0.045-5e-3h0.917c0.018 0 0.027-8e-3 0.027-8e-3s4e-3 -5e-3 4e-3 -0.027zm-2.361-0.05h-0.823c-0.018-9e-3 -0.032 9e-3 -0.032 9e-3s-4e-3 5e-3 -9e-3 0.032l-0.108 0.508c-9e-3 0.027-0.018 0.04-0.018 0.04s-0.022 0.014-0.049 0.014h-1.071c-0.022 0-0.035-0.014-0.035-0.014s-0.019-0.018-0.027-0.045l-0.243-0.517-0.014-0.018-0.027-4e-3h-0.926c-0.023-5e-3 -0.032 9e-3 -0.032 9e-3s-4e-3 9e-3 9e-3 0.027l1.633 3.259 0.018 0.018s9e-3 4e-3 0.036 4e-3h1.012c0.022 0 0.036-0.013 0.036-0.013l8e-3 -0.018 0.68-3.273-5e-3 -0.013zm-3.855 5e-3h-0.849l-9e-3 9e-3 -1.143 2.027-0.013 9e-3 -9e-3 -0.013-0.283-1.992c-5e-3 -0.022-0.01-0.027-0.01-0.027l-0.022-4e-3h-0.819l-0.022 9e-3s-0.018 0.018-0.013 0.036l0.449 3.223c5e-3 0.018 0.014 0.022 0.014 0.022l0.027 0.014h0.913l0.022-9e-3 0.014-0.018 1.03-1.807c0.018-0.036 0.031-0.032 0.031-0.032s0.013 0 0.022 0.041l0.261 1.798 9e-3 0.018 0.018 9e-3 0.859-9e-3c0.018 0 0.023-5e-3 0.023-5e-3l4e-3 -0.013-0.463-3.25c-4e-3 -0.018-0.014-0.032-0.014-0.032s-4e-3 -4e-3 -0.027-4e-3m-3.597 9e-3 -0.801-5e-3c-0.018 0-0.031 9e-3 -0.031 9e-3s-5e-3 5e-3 -9e-3 0.037l-0.126 0.516-9e-3 0.018h-1.143c-0.022 0-0.035-0.018-0.035-0.018s-0.018-0.013-0.032-0.045l-0.225-0.481c-9e-3 -0.018-0.013-0.022-0.013-0.022l-0.027-9e-3h-0.931c-0.027-5e-3 -0.032 9e-3 -0.032 9e-3s-4e-3 0.013 5e-3 0.032l1.614 3.245c9e-3 0.018 0.023 0.022 0.023 0.022h1.061c0.018 0 0.032-0.013 0.032-0.013l9e-3 -0.018 0.692-3.255-9e-3 -0.018zm6.098 2.369s-4e-3 0-9e-3 -0.018l-0.45-1.016c-9e-3 -0.032-4e-3 -0.036-4e-3 -0.036l0.022-9e-3 0.666 4e-3h9e-3v0.018l-0.225 1.043zm-7.465-0.014-9e-3 -9e-3 -0.45-1.02-5e-3 -0.023s5e-3 -4e-3 0.027-4e-3l0.661-5e-3 9e-3 5e-3v0.018l-0.229 1.029zm-2.303-2.243c-5e-3 -0.036-0.022-0.063-0.022-0.063s-0.018-0.018-0.05-0.027c-0.432-0.175-0.913-0.117-0.913-0.117-0.778 0.086-1.273 0.562-1.43 1.178-0.234 0.922 0.229 1.578 0.342 1.717 0.274 0.328 0.701 0.562 1.12 0.616 0.535 0.076 0.931-0.049 1.092-0.103 0 0 0.18-0.059 0.315-0.149 0.068-0.045 0.077-0.063 0.077-0.063s4e-3 -9e-3 -0.014-0.081l-0.126-0.66c-4e-3 -0.027-0.022-0.041-0.022-0.041s-9e-3 -4e-3 -0.072 0.036c-0.405 0.288-0.877 0.252-0.877 0.252-0.36-0.023-0.778-0.211-0.904-0.688-0.112-0.422 4e-3 -0.777 0.256-0.989 0.171-0.148 0.436-0.224 0.715-0.211 0.306 0.022 0.549 0.144 0.531 0.135l0.027 9e-3c0.063 0.031 0.077 0.027 0.077 0.027s0.013-0.013 4e-3 -0.054l-0.126-0.724" fill="#fff"/>
   </g>
  </g>
  <g transform="matrix(.75774 0 0 .75774 -16.122 -82.614)">
   <g transform="matrix(8.3744 0 0 -8.3744 209.47 22.342)">
    <path d="m0 0c-0.119 0.889-0.238 1.779-0.356 2.668h-5.691l0.711-3.468c1.779 0.267 3.557 0.533 5.336 0.8" fill="#ed1c24"/>
   </g>
   <g transform="matrix(8.3744 0 0 -8.3744 180.39 20.912)">
    <path d="m0 0c-0.059 0.325-0.089 0.487-0.148 0.812-0.289-0.023-0.432-0.034-0.721-0.056 0.064-0.335 0.096-0.503 0.16-0.839-0.196-0.023-0.295-0.034-0.491-0.057-0.137 0.693-0.273 1.387-0.409 2.08 0.204 5e-3 0.307 7e-3 0.512 0.012 0.06-0.314 0.09-0.472 0.15-0.787 0.291 0.018 0.436 0.026 0.726 0.043-0.055 0.305-0.083 0.457-0.139 0.762 0.205 4e-3 0.308 7e-3 0.512 0.012 0.114-0.642 0.227-1.283 0.34-1.925-0.197-0.023-0.295-0.034-0.492-0.057" fill="#fff"/>
   </g>
   <g transform="matrix(8.3744 0 0 -8.3744 192.8 7.4071)">
    <path d="m0 0c-0.046-2e-3 -0.069-3e-3 -0.114-5e-3 0.065-0.408 0.098-0.612 0.164-1.021 0.045 5e-3 0.068 7e-3 0.112 0.011 0.329 0.032 0.513 0.247 0.467 0.546-0.045 0.298-0.293 0.484-0.629 0.469m0.347-1.4c-0.289-0.033-0.434-0.05-0.723-0.084-0.106 0.623-0.21 1.245-0.315 1.868 0.301 7e-3 0.452 0.011 0.753 0.018 0.498-2e-3 1.018-0.345 1.092-0.835 0.071-0.469-0.334-0.902-0.807-0.967" fill="#fff"/>
   </g>
  </g>
 </g>
</svg>
