<svg width="209.52mm" height="59.568mm" version="1.1" viewBox="0 0 209.52 59.568" xmlns="http://www.w3.org/2000/svg">
 <g transform="translate(.050236 .00085613)">
  <path d="m-0.050236 59.567h178.73v-44.686h-178.73z" fill="#020203"/>
  <g transform="matrix(8.3744 0 0 -8.3744 171.04 39.174)">
   <path d="m0 0-0.018-9e-3h-1.151c-0.018 0-0.027-9e-3 -0.027-9e-3s-0.014-5e-3 -0.014-0.027v-1.227c0-0.018-9e-3 -0.023-9e-3 -0.023l-0.018-9e-3h-0.913l-0.022 9e-3s-5e-3 5e-3 -5e-3 0.027v1.228l-0.013 0.022-0.018 9e-3h-1.178c-0.023 0-0.027 4e-3 -0.027 4e-3s-0.01 9e-3 -0.01 0.036v0.899l0.01 0.023 0.013 4e-3h1.205l9e-3 5e-3 9e-3 0.013v1.074l5e-3 0.023s9e-3 4e-3 0.036 4e-3h0.895c0.018 0 0.022-4e-3 0.022-4e-3s9e-3 -9e-3 9e-3 -0.027v-1.079h1.169c0.032 0 0.041-4e-3 0.041-4e-3s0.013-5e-3 0.013-0.032v-0.908zm-3.566-1.263c-5e-3 -0.027-9e-3 -0.036-9e-3 -0.036s-5e-3 -9e-3 -0.027-9e-3h-1.853c-0.054 0-0.068 0.013-0.068 0.013s-9e-3 0.018-4e-3 0.059l0.458 3.191c5e-3 0.041 0.014 0.054 0.014 0.054h0.89c0.023 0 0.032-4e-3 0.032-4e-3s5e-3 -0.014 0-0.032l-0.346-2.494c-5e-3 -0.027 9e-3 -0.032 9e-3 -0.032s9e-3 -5e-3 0.045-5e-3h0.917c0.018 0 0.027-8e-3 0.027-8e-3s4e-3 -5e-3 4e-3 -0.027zm-2.361-0.05h-0.823c-0.018-9e-3 -0.032 9e-3 -0.032 9e-3s-4e-3 5e-3 -9e-3 0.032l-0.108 0.508c-9e-3 0.027-0.018 0.04-0.018 0.04s-0.022 0.014-0.049 0.014h-1.071c-0.022 0-0.035-0.014-0.035-0.014s-0.019-0.018-0.027-0.045l-0.243-0.517-0.014-0.018-0.027-4e-3h-0.926c-0.023-5e-3 -0.032 9e-3 -0.032 9e-3s-4e-3 9e-3 9e-3 0.027l1.633 3.259 0.018 0.018s9e-3 4e-3 0.036 4e-3h1.012c0.022 0 0.036-0.013 0.036-0.013l8e-3 -0.018 0.68-3.273-5e-3 -0.013zm-3.855 5e-3h-0.849l-9e-3 9e-3 -1.143 2.027-0.013 9e-3 -9e-3 -0.013-0.283-1.992c-5e-3 -0.022-0.01-0.027-0.01-0.027l-0.022-4e-3h-0.819l-0.022 9e-3s-0.018 0.018-0.013 0.036l0.449 3.223c5e-3 0.018 0.014 0.022 0.014 0.022l0.027 0.014h0.913l0.022-9e-3 0.014-0.018 1.03-1.807c0.018-0.036 0.031-0.032 0.031-0.032s0.013 0 0.022 0.041l0.261 1.798 9e-3 0.018 0.018 9e-3 0.859-9e-3c0.018 0 0.023-5e-3 0.023-5e-3l4e-3 -0.013-0.463-3.25c-4e-3 -0.018-0.014-0.032-0.014-0.032s-4e-3 -4e-3 -0.027-4e-3m-3.597 9e-3 -0.801-5e-3c-0.018 0-0.031 9e-3 -0.031 9e-3s-5e-3 5e-3 -9e-3 0.037l-0.126 0.516-9e-3 0.018h-1.143c-0.022 0-0.035-0.018-0.035-0.018s-0.018-0.013-0.032-0.045l-0.225-0.481c-9e-3 -0.018-0.013-0.022-0.013-0.022l-0.027-9e-3h-0.931c-0.027-5e-3 -0.032 9e-3 -0.032 9e-3s-4e-3 0.013 5e-3 0.032l1.614 3.245c9e-3 0.018 0.023 0.022 0.023 0.022h1.061c0.018 0 0.032-0.013 0.032-0.013l9e-3 -0.018 0.692-3.255-9e-3 -0.018zm6.098 2.369s-4e-3 0-9e-3 -0.018l-0.45-1.016c-9e-3 -0.032-4e-3 -0.036-4e-3 -0.036l0.022-9e-3 0.666 4e-3h9e-3v0.018l-0.225 1.043zm-7.465-0.014-9e-3 -9e-3 -0.45-1.02-5e-3 -0.023s5e-3 -4e-3 0.027-4e-3l0.661-5e-3 9e-3 5e-3v0.018l-0.229 1.029zm-2.303-2.243c-5e-3 -0.036-0.022-0.063-0.022-0.063s-0.018-0.018-0.05-0.027c-0.432-0.175-0.913-0.117-0.913-0.117-0.778 0.086-1.273 0.562-1.43 1.178-0.234 0.922 0.229 1.578 0.342 1.717 0.274 0.328 0.701 0.562 1.12 0.616 0.535 0.076 0.931-0.049 1.092-0.103 0 0 0.18-0.059 0.315-0.149 0.068-0.045 0.077-0.063 0.077-0.063s4e-3 -9e-3 -0.014-0.081l-0.126-0.66c-4e-3 -0.027-0.022-0.041-0.022-0.041s-9e-3 -4e-3 -0.072 0.036c-0.405 0.288-0.877 0.252-0.877 0.252-0.36-0.023-0.778-0.211-0.904-0.688-0.112-0.422 4e-3 -0.777 0.256-0.989 0.171-0.148 0.436-0.224 0.715-0.211 0.306 0.022 0.549 0.144 0.531 0.135l0.027 9e-3c0.063 0.031 0.077 0.027 0.077 0.027s0.013-0.013 4e-3 -0.054l-0.126-0.724" fill="#fff"/>
  </g>
 </g>
 <g transform="translate(.050236 .00085613)">
  <g transform="matrix(8.3744 0 0 -8.3744 209.47 22.342)">
   <path d="m0 0c-0.119 0.889-0.238 1.779-0.356 2.668h-5.691l0.711-3.468c1.779 0.267 3.557 0.533 5.336 0.8" fill="#ed1c24"/>
  </g>
  <g transform="matrix(8.3744 0 0 -8.3744 180.39 20.912)">
   <path d="m0 0c-0.059 0.325-0.089 0.487-0.148 0.812-0.289-0.023-0.432-0.034-0.721-0.056 0.064-0.335 0.096-0.503 0.16-0.839-0.196-0.023-0.295-0.034-0.491-0.057-0.137 0.693-0.273 1.387-0.409 2.08 0.204 5e-3 0.307 7e-3 0.512 0.012 0.06-0.314 0.09-0.472 0.15-0.787 0.291 0.018 0.436 0.026 0.726 0.043-0.055 0.305-0.083 0.457-0.139 0.762 0.205 4e-3 0.308 7e-3 0.512 0.012 0.114-0.642 0.227-1.283 0.34-1.925-0.197-0.023-0.295-0.034-0.492-0.057" fill="#fff"/>
  </g>
  <g transform="matrix(8.3744 0 0 -8.3744 192.8 7.4071)">
   <path d="m0 0c-0.046-2e-3 -0.069-3e-3 -0.114-5e-3 0.065-0.408 0.098-0.612 0.164-1.021 0.045 5e-3 0.068 7e-3 0.112 0.011 0.329 0.032 0.513 0.247 0.467 0.546-0.045 0.298-0.293 0.484-0.629 0.469m0.347-1.4c-0.289-0.033-0.434-0.05-0.723-0.084-0.106 0.623-0.21 1.245-0.315 1.868 0.301 7e-3 0.452 0.011 0.753 0.018 0.498-2e-3 1.018-0.345 1.092-0.835 0.071-0.469-0.334-0.902-0.807-0.967" fill="#fff"/>
  </g>
 </g>
</svg>
