<svg version="1.1" viewBox="0 0 58 31.7" xmlns="http://www.w3.org/2000/svg">
 <g class="canvas logoSvgStyle" fill="#fff" fill-rule="evenodd">
  <g class="bottom">
   <path class="bottom__path" d="m0 22.9h58v8.8h-58z" fill="#fff"/>
  </g>
  <g class="top">
   <path class="top__path" d="m0 0h57.977v8.8h-57.977z" fill="#fff"/>
  </g>
  <g class="letters">
   <path d="m4.8 20.7c2 0 3.2-0.9 4.1-2.1l-2.2-1.6c-0.5 0.6-1 0.9-1.7 0.9-1.1 0-1.9-0.9-1.9-2v-0.1c0-1.1 0.8-2 1.8-2 0.8 0 1.3 0.3 1.7 1l2.2-1.7c-0.8-1.2-2-2-3.9-2-2.9 0-4.9 2.2-4.9 4.8s2 4.8 4.8 4.8z"/>
   <path d="m12.7 20.6c1.2 0 2.1-0.4 2.7-1.1v0.9h3.2v-5.2c0-1.3-0.3-2.3-1-3s-1.9-1.1-3.5-1.1-2.7 0.3-3.7 0.7l0.7 2.3c0.8-0.3 1.5-0.5 2.5-0.5 1.2 0 1.8 0.5 1.8 1.5v0.2c-0.5-0.2-1.3-0.4-2.2-0.4-2.1 0-3.6 1-3.6 2.9 0 1.8 1.4 2.8 3.1 2.8zm1.1-2c-0.6 0-1.1-0.3-1.1-1s0.6-1.1 1.5-1.1c0.5 0 0.9 0.1 1.2 0.2v0.4c0 0.9-0.6 1.5-1.6 1.5z"/>
   <path d="m20.3 20.4h3.2v-4.9c0-1 0.6-1.6 1.4-1.6 0.7 0 1.2 0.6 1.2 1.6v4.9h3.3v-6c0-2-1.2-3.3-3.2-3.3-1.3 0-2.1 0.7-2.7 1.5v-1.3h-3.2z"/>
   <path d="m33.5 20.5h2.9l3.6-9.2h-3.3l-1.8 5.3-1.7-5.3h-3.4z"/>
   <path d="m43 20.6c1.2 0 2.1-0.4 2.7-1.1v0.9h3.2v-5.2c0-1.3-0.3-2.3-1-3s-1.8-1.1-3.5-1.1c-1.6 0-2.7 0.3-3.7 0.7l0.7 2.3c0.8-0.3 1.5-0.5 2.5-0.5 1.2 0 1.8 0.5 1.8 1.5v0.2c-0.5-0.2-1.3-0.4-2.2-0.4-2.1 0-3.6 1-3.6 2.9 0 1.8 1.4 2.8 3.1 2.8zm1.2-2c-0.7 0-1.2-0.3-1.2-1s0.6-1.1 1.5-1.1c0.5 0 0.9 0.1 1.3 0.2v0.4c0 0.9-0.7 1.5-1.6 1.5z"/>
   <path d="m54.2 20.6c2.3 0 3.8-1 3.8-3v-0.1c0-1.7-1.5-2.4-3.3-2.9-0.9-0.3-1.5-0.4-1.5-0.8 0-0.3 0.3-0.5 0.8-0.5 0.7 0 1.7 0.4 2.7 0.9l1.1-2.1c-1.1-0.6-2.4-1-3.8-1-2.1 0-3.6 1.1-3.6 3s1.4 2.5 3.2 3c1 0.3 1.5 0.4 1.5 0.8 0 0.3-0.3 0.5-0.8 0.5-1 0-2.1-0.4-3.2-1.1l-1.2 2c1.3 0.9 2.8 1.3 4.3 1.3z"/>
  </g>
 </g>
</svg>
