<svg width="622.27pt" height="541.68pt" version="1.1" viewBox="0 0 622.27 541.68" xmlns="http://www.w3.org/2000/svg">
 <path d="m0.090983 0h622.12l0.06 345.88h-622.18v-345.88m82.68 82.97v179.84h456.52v-179.84z" fill="#a6245d"/>
 <path d="m78.785 375.22c-1.7527 6e-3 -3.5124 0.0926-5.2749 0.26513-26.67 1.2-51.4 18.209-63.57 41.739-9.01 16.69-11.69 36.361-8.8696 55.011 2.6 17.19 10.751 33.449 22.871 45.899 12.74 12.82 29.91 21.39 47.99 22.95 6.95 0.9 13.97 0.44078 20.95 0.55078h89.099c7.71 0.23 15.05-6.4908 14.73-14.341v-72.999l-0.0132 9e-3c0.0689-7.7413 1.0896-15.809 5.2705-22.474 3.89-6.11 11.22-9.3414 18.33-9.1714 6.46-0.42 13.509 1.911 17.229 7.481 4.63 6.71 5.3856 15.21 5.4756 23.13v88.415h43.6v-78.406c0.12-7.82-0.5144-15.799 1.4956-23.449 1.5-7.12 6.3503-13.85 13.57-15.92 7.33-2.07 16.019-2.0709 22.419 2.5591 5.45 4.05 7.3596 11.041 8.2896 17.451 0.81999 7.07 0.41588 14.22 0.52587 21.33v76.436h43.689v-91.295c0.07-9.75-0.14397-19.581-2.064-29.161-3.42-16.9-15.681-32.07-32.001-38.01-6.065-2.06-12.484-3.1969-18.907-3.2856-6.4225-0.0888-12.848 0.87086-18.923 3.0059-11.42 3.99-20.97 12.35-27.36 22.52-0.92758 1.5425-1.8458 0.11442-2.3496-0.83056-6.66-12.38-18.779-22.26-32.98-24.07-12.78-1.75-26.821 0.30051-37.301 8.2705-4.6 3.32-7.6592 8.1096-10.929 12.62l-0.0308-16.37h-40.75v100.1c0.21333 8.0624-7.9984 14.909-14.036 14.896h-55.04c-12.59 1.23-25.359-5.1498-31.819-16.03-6.64-10.51-8.4204-23.589-6.1304-35.689 2-9.62 7.1501-19.02 15.58-24.4 8.88-5.93 20.57-6.6011 30.5-3.1011 7.5 2.57 13.361 8.1099 18.841 13.61l25.21-31.349c-2.75-4.18-6.93-7.12-10.73-10.27-13.286-10.213-29.644-17.684-46.586-17.625z" fill="#a6245d"/>
 <path d="m450.35 388.77c10.48-7.97 24.52-10.02 37.3-8.27 14.2 1.81 26.32 11.69 32.98 24.07 0.50382 0.94498 1.4224 2.3725 2.35 0.83 6.39-10.17 15.94-18.53 27.36-22.52 12.15-4.27 25.7-3.84 37.83 0.28 16.32 5.94 28.58 21.11 32 38.01 1.92 9.58 2.135 19.41 2.065 29.16v91.295h-43.69v-76.435c-0.11-7.11 0.295-14.26-0.525-21.33-0.93-6.41-2.84-13.4-8.29-17.45-6.4-4.63-15.09-4.63-22.42-2.56-7.22 2.07-12.07 8.8-13.57 15.92-2.01 7.65-1.375 15.63-1.495 23.45v78.405h-43.6v-88.415c-0.09-7.92-0.845-16.42-5.475-23.13-3.72-5.57-10.77-7.9-17.23-7.48-7.11-0.17-14.44 3.06-18.33 9.17-4.36 6.95-5.295 15.43-5.285 23.47v86.385h-43.685v-156.6h40.75l0.03 16.37c3.27-4.51 6.33-9.3 10.93-12.62z" fill="#a6245d"/>
</svg>
