<svg width="2379.8" height="800" version="1.1" viewBox="0 0 2379.8 800" xmlns="http://www.w3.org/2000/svg">
 <g transform="matrix(1.3333 0 0 1.3333 257.12 -338.77)">
  <g fill="#fff">
   <path d="m-192.84 254.08v600h600v-600zm9.3691 9.3672h581.26v581.26h-581.26z" color="#000000" color-rendering="auto" image-rendering="auto" shape-rendering="auto" solid-color="#000000" style="isolation:auto;mix-blend-mode:normal;text-decoration-color:#000000;text-decoration-line:none;text-decoration-style:solid;text-indent:0;text-transform:none;white-space:normal"/>
   <path transform="translate(-192.84,254.08)" d="m205.11 7.5703v80.977h86.05v-80.977l-86.05 3e-4zm46.81 10.612c0.78 0 1.57 0.025 2.39 0.078 0.47 0.026 0.92 0.053 1.39 0.105 0.66 0.053 1.34 0.132 2 0.211l0.44 0.078c0.42 0.053 0.79 0.131 1.18 0.184 0.45 0.105 0.92 0.185 1.34 0.264 0.45 0.105 0.9 0.182 1.32 0.287 0.26 0.052 0.52 0.133 0.78 0.185 0.4 0.105 0.82 0.21 1.19 0.315 0.34 0.078 0.65 0.183 1 0.261l0.28 0.08c0.34 0.106 0.66 0.21 0.98 0.315 0.44 0.105 0.86 0.263 1.28 0.394 0.37 0.106 0.74 0.236 1.08 0.368 0.42 0.131 0.84 0.288 1.21 0.42 0.68 0.236 1.31 0.474 1.81 0.658 1.18 0.446 1.87 0.734 1.87 0.734v10.848l-1.14-0.631c-0.42-0.21-0.92-0.499-1.52-0.815-0.37-0.183-0.73-0.366-1.13-0.576-0.47-0.21-0.97-0.474-1.52-0.711-0.63-0.289-1.31-0.602-2-0.865-0.52-0.21-1.05-0.421-1.6-0.631 0 0-0.34-0.131-0.94-0.342-0.37-0.105-0.82-0.262-1.37-0.419-0.34-0.105-0.74-0.21-1.16-0.315-0.65-0.184-1.36-0.369-2.15-0.5-0.53-0.131-1.08-0.21-1.65-0.289-0.63-0.105-1.32-0.183-2-0.262-0.37-0.026-0.74-0.054-1.1-0.08-0.56-0.026-1.11-0.052-1.69-0.078h-0.76c-0.79 0-1.57 0.053-2.39 0.106-0.39 0.052-0.81 0.078-1.26 0.13-0.42 0.079-0.84 0.133-1.26 0.211l-1.18 0.237c-0.37 0.105-0.76 0.184-1.16 0.289-0.39 0.131-0.81 0.235-1.23 0.392-0.37 0.132-0.74 0.264-1.13 0.395l-1.1 0.473c-2.37 1.076-4.63 2.599-6.67 4.595-0.14 0.158-0.27 0.29-0.4 0.448-0.24 0.262-0.5 0.55-0.74 0.839-0.18 0.21-0.34 0.448-0.52 0.659-0.45 0.63-0.87 1.26-1.23 1.89-0.16 0.289-0.32 0.551-0.48 0.84-0.18 0.394-0.37 0.761-0.52 1.129-0.13 0.263-0.24 0.552-0.34 0.814-0.16 0.394-0.32 0.815-0.42 1.209-0.14 0.421-0.24 0.84-0.34 1.26-0.16 0.604-0.27 1.208-0.35 1.76-0.13 0.893-0.18 1.707-0.21 2.338 0 0.262-0.02 0.499-0.02 0.709 0 0.315 0.02 0.684 0.02 1.131 0.03 0.289 0.06 0.603 0.08 0.97 0.08 0.893 0.24 1.944 0.53 3.1 0.1 0.394 0.21 0.815 0.34 1.209 0.18 0.552 0.39 1.103 0.6 1.654 0.16 0.315 0.32 0.657 0.48 0.998 0.18 0.368 0.39 0.763 0.6 1.157 0.16 0.262 0.31 0.524 0.5 0.787 0.18 0.262 0.37 0.525 0.58 0.814 0.18 0.289 0.42 0.551 0.63 0.84 0.42 0.499 0.89 0.999 1.36 1.498l0.16 0.131 0.11 0.105 0.18 0.159 0.34 0.314c0.26 0.236 0.58 0.474 0.89 0.736 0.29 0.237 0.61 0.472 0.95 0.682 0.24 0.184 0.53 0.341 0.79 0.525 0.26 0.158 0.5 0.316 0.76 0.448 0.52 0.315 1.05 0.577 1.6 0.839 0.26 0.105 0.5 0.237 0.76 0.342 0.16 0.053 0.32 0.131 0.45 0.184 0.24 0.079 0.47 0.185 0.71 0.263 1.55 0.578 3.18 0.972 4.75 1.235 1 0.184 1.97 0.287 2.94 0.34 0.82 0.052 1.63 0.08 2.4 0.08 0.36 0 0.76-1e-3 1.18-0.028 0.65-0.026 1.36-0.077 2.12-0.156 0.5-0.052 1.03-0.105 1.55-0.183 0.24-0.053 0.45-0.081 0.69-0.133 1.94-0.342 4.17-0.892 6.56-1.733 1.29-0.472 2.58-0.999 3.94-1.656 0.79-0.368 1.58-0.76 2.37-1.207 0.73-0.394 1.47-0.814 2.23-1.287l0.73-0.447c0.14-0.079 0.29-0.158 0.4-0.237v11.032c-0.19 0.105-0.37 0.184-0.55 0.289-0.45 0.21-0.9 0.421-1.32 0.605-0.47 0.237-0.92 0.42-1.36 0.604-0.71 0.315-1.34 0.551-1.84 0.761-0.39 0.158-0.74 0.263-0.97 0.368l-0.5 0.158c-0.5 0.184-1.03 0.368-1.58 0.525-0.47 0.132-0.94 0.263-1.44 0.395-0.68 0.184-1.37 0.367-2.13 0.525-0.47 0.105-0.97 0.208-1.47 0.287-0.81 0.132-1.65 0.29-2.52 0.395-0.58 0.052-1.18 0.131-1.81 0.183l-0.29 0.028c-1.55 0.131-3.23 0.183-5.05 0.183h-0.7c-0.5 0-1-0.026-1.48-0.052-1.02-0.053-1.99-0.132-2.94-0.237-0.94-0.131-1.86-0.263-2.73-0.447-1.1-0.21-2.15-0.446-3.13-0.734-0.57-0.184-1.15-0.342-1.68-0.526-0.57-0.184-1.1-0.393-1.62-0.603-1.37-0.552-2.63-1.182-3.76-1.813-0.58-0.315-1.1-0.631-1.63-0.972-0.5-0.316-0.94-0.631-1.36-0.946-0.37-0.262-0.71-0.526-1.06-0.789-0.36-0.263-0.68-0.55-0.99-0.812-0.45-0.394-0.87-0.79-1.24-1.131l-0.23-0.237c-0.45-0.446-0.92-0.918-1.37-1.443l-1.1-1.34c-0.34-0.446-0.69-0.92-1.03-1.392-0.26-0.394-0.52-0.763-0.76-1.157-0.29-0.499-0.6-0.998-0.89-1.523-0.48-0.893-0.92-1.864-1.34-2.836-0.29-0.63-0.5-1.261-0.74-1.918-0.18-0.551-0.34-1.103-0.47-1.654-0.13-0.42-0.24-0.866-0.32-1.313-0.05-0.184-0.1-0.395-0.13-0.605-0.1-0.552-0.18-1.076-0.26-1.627l-0.03-0.317c-0.07-0.472-0.1-0.919-0.13-1.392-0.02-0.447-0.02-0.919-0.02-1.365 0-0.631 0.02-1.234 0.05-1.838 0.05-0.788 0.13-1.55 0.21-2.285 0.31-2.391 0.92-4.65 1.71-6.725 0.65-1.681 1.44-3.256 2.33-4.727 0.16-0.236 0.32-0.5 0.48-0.736 0.23-0.368 0.47-0.709 0.71-1.051 0.34-0.472 0.71-0.918 1.05-1.365l1.02-1.182c0.34-0.367 0.71-0.735 1.05-1.103 0.42-0.42 0.89-0.84 1.34-1.234 0.5-0.447 1.03-0.867 1.55-1.288 0.26-0.21 0.55-0.393 0.81-0.603 0.32-0.21 0.64-0.422 0.95-0.658 0.58-0.368 1.16-0.735 1.76-1.076 0.63-0.368 1.31-0.71 2-1.051 0.81-0.394 1.68-0.788 2.57-1.129 1.74-0.683 3.62-1.262 5.67-1.682 0.32-0.079 0.66-0.13 1-0.209 0.24-0.052 0.5-0.08 0.74-0.133l0.58-0.078 0.47-0.078 0.42-0.053c0.47-0.052 1-0.105 1.5-0.158 0.34-0.026 0.7-0.078 1.05-0.078 0.63-0.052 1.26-0.08 1.91-0.08 0.34 0 0.55-0.025 0.9-0.025z"/>
   <path transform="translate(-192.84,254.08)" d="m105.96 7.5703v80.977h86.05v-80.977l-86.05 3e-4zm22.56 11.373h18.94c10.19 0 14.71 5.33 14.71 5.33s4.09 3.55 4.09 9.748c0 6.147-2.78 8.666-3.57 9.454-1.68 1.681-3.86 2.705-3.86 2.705s4.84 1.026 8.62 4.808c4.46 4.465 4.12 10.268 4.12 10.268s0.34 5.568-4.46 10.375c-5.91 5.91-16.63 5.621-16.63 5.621h-21.96zm10.45 9.094v15.102h5.02s0.31-1e-3 0.76-0.028c0.34 0 0.76-0.026 1.13-0.052 1.03-0.079 2.44-0.236 3.89-0.604 0.26-0.105 0.55-0.184 0.81-0.289 1.13-0.394 2.18-0.969 3.02-1.783 0.66-0.657 1.11-1.369 1.39-2.078 0.35-0.867 0.48-1.706 0.53-2.284 0.05-0.525 0.05-0.841 0.05-0.841s0-0.263-0.03-0.657c-0.02-0.656-0.15-1.705-0.68-2.755-0.23-0.473-0.6-0.946-1.05-1.418-0.58-0.552-1.26-0.973-1.97-1.315-1.41-0.604-3.02-0.84-4.38-0.945-0.61-0.053-1.13-0.053-1.61-0.053zm0 24.195v15.916h10.32s0.21 1e-3 0.56-0.025c0.34 0 0.84-0.025 1.44-0.078 1.13-0.105 2.6-0.318 4.02-0.791 1.31-0.447 2.57-1.101 3.52-2.072 0.39-0.368 0.68-0.735 0.95-1.129 0.81-1.287 0.99-2.577 1.04-3.313 0.03-0.315 0.03-0.496 0.03-0.496v-0.394c0-0.316-0.05-0.921-0.21-1.551-0.18-0.762-0.55-1.629-1.21-2.444-0.13-0.131-0.26-0.287-0.39-0.445-0.29-0.289-0.6-0.551-0.94-0.787-0.56-0.42-1.22-0.791-1.92-1.08-0.92-0.394-1.95-0.708-3.1-0.918-0.58-0.105-1.21-0.209-1.84-0.262-0.39-0.052-0.79-0.079-1.18-0.105-0.37 0-0.74-0.026-1.11-0.026z"/>
   <path transform="translate(-192.84,254.08)" d="m6.8066 7.5703v80.977h86.047v-80.977l-86.047 3e-4zm22.562 11.373h18.94c10.191 0 14.707 5.33 14.707 5.33s4.095 3.55 4.095 9.748c0 6.147-2.782 8.666-3.57 9.454-1.681 1.681-3.889 2.705-3.889 2.705s4.861 1.026 8.643 4.808c4.465 4.465 4.123 10.268 4.123 10.268s0.342 5.568-4.465 10.375c-5.91 5.91-16.627 5.621-16.627 5.621h-21.957zm10.455 9.094v15.102h5.02s0.313-1e-3 0.76-0.028c0.341 0 0.763-0.026 1.13-0.052 1.025-0.079 2.443-0.236 3.862-0.604 0.289-0.105 0.575-0.184 0.838-0.289 1.129-0.394 2.181-0.969 3.021-1.783 0.657-0.657 1.102-1.369 1.391-2.078 0.341-0.867 0.475-1.706 0.527-2.284 0.053-0.525 0.053-0.841 0.053-0.841s-1e-3 -0.263-0.028-0.657c-0.026-0.656-0.158-1.705-0.683-2.755-0.263-0.473-0.602-0.946-1.049-1.418-0.578-0.552-1.262-0.973-1.971-1.315-1.418-0.604-3.047-0.84-4.386-0.945-0.605-0.053-1.129-0.053-1.602-0.053zm0 24.195v15.916h10.322s0.212 1e-3 0.553-0.025c0.368 0 0.841-0.025 1.446-0.078 1.129-0.105 2.601-0.318 4.019-0.791 1.313-0.447 2.571-1.101 3.543-2.072 0.368-0.368 0.657-0.735 0.92-1.129 0.814-1.287 0.998-2.577 1.051-3.313 0.026-0.315 0.027-0.496 0.027-0.496v-0.394c0-0.316-0.053-0.921-0.211-1.551-0.21-0.762-0.55-1.629-1.207-2.444-0.131-0.131-0.263-0.287-0.394-0.445-0.289-0.289-0.604-0.551-0.946-0.787-0.551-0.42-1.207-0.791-1.89-1.08-0.946-0.394-1.97-0.708-3.125-0.918-0.578-0.105-1.21-0.209-1.84-0.262-0.394-0.052-0.79-0.079-1.184-0.105-0.368 0-0.736-0.026-1.103-0.026z"/>
  </g>
  <path d="m301.29 500.63c-17.02-38.479-44.94-71.075-79.821-93.873l0.26265 135.9c33.042-0.0262 62.197-16.679 79.558-42.025" fill="#f3611f"/>
  <path d="m221.74 633.7v135.61c34.749-22.772 62.538-55.263 79.532-93.61-17.388-25.346-46.49-41.972-79.532-41.999" fill="#ef3623"/>
  <path d="m116.83 689.76s0 0.0262 0.0262 0.0262c48.381 1.2345 87.99-37.35 87.99-85.783v-207.05c-26.53-14.13-56.35-22.9-88.02-24.87v317.68z" fill="#378baa"/>
  <path d="m116.84 690.46s-0.0262 0-0.0262 0.0262v113.7c31.676-1.9699 61.488-10.743 88.016-24.873l0.0262-3.0993c0-48.407-39.608-87.018-88.016-85.757" fill="#53c49b"/>
  <path d="m11.916 511.26h0.02626c48.618-0.0262 88.016-39.425 88.016-88.042v-51.533c-31.414 0.47279-61.225 7.617-88.042 20.119v119.46z" fill="#ef249c"/>
  <path d="m11.916 784.46c26.817 12.502 56.628 19.647 88.042 20.119v-205.27c0-48.618-39.398-88.042-88.016-88.042h-0.02626v273.19z" fill="#d51378"/>
  <path d="m-113.26 588.14c0 80.136 43.575 150.08 108.32 187.51v-113.86c-14.341-20.986-22.746-46.332-22.746-73.649 0-27.316 8.405-52.662 22.746-73.649v-113.86c-64.741 37.42-108.32 107.37-108.32 187.51" fill="#89cf25"/>
  <path d="m269.81 827.14v-57.837h11.662v22.772h22.877v-22.772h11.688v57.837h-11.688v-25.294h-22.877v25.294z" fill="#ef249c"/>
  <path d="m339.74 779.09v38.295h8.7202c3.2569 0 5.6208-0.18386 7.0654-0.55158 1.8911-0.47277 3.467-1.2607 4.7015-2.3902 1.2608-1.1294 2.2588-2.9943 3.0731-5.5946 0.78798-2.574 1.182-6.1199 1.182-10.585s-0.39398-7.9059-1.182-10.296c-0.81422-2.3902-1.9174-4.255-3.3357-5.5946s-3.2044-2.2588-5.3844-2.7316c-1.6285-0.36771-4.8329-0.55157-9.5869-0.55157h-5.2531zm-11.688-9.7708h21.354c4.8066 0 8.4838 0.36771 11.005 1.1032 3.3882 0.99809 6.3037 2.7579 8.7202 5.3056 2.4164 2.574 4.255 5.6734 5.5158 9.3768s1.8911 8.2474 1.8911 13.658c0 4.7803-0.57784 8.8777-1.7598 12.319-1.4709 4.2025-3.5196 7.617-6.1987 10.217-2.0224 1.9699-4.754 3.5196-8.2211 4.6227-2.574 0.81423-6.0148 1.2082-10.322 1.2082h-21.984v-57.81z" fill="#ef249c"/>
 </g>
 <g transform="matrix(1.2243 0 0 1.2243 843.66 .0024614)" fill="#8afa13">
  <g font-family="'BBC Reith Sans'" font-size="40px" font-weight="bold" stroke-width="2.7649">
   <path d="m601.18 653.45v-33.953h-34.395v33.953h-17.032v-79.077h17.032v30.304h34.395v-30.304h17.032v79.077z" style="white-space:pre"/>
   <path d="m635.27 574.38h30.193q12.497 0 21.345 4.6451 8.9582 4.6451 13.603 13.493 4.6451 8.7371 4.6451 21.235t-4.7557 21.456q-4.6451 8.8478-13.493 13.603-8.8478 4.6451-21.456 4.6451h-30.082zm29.198 64.477q11.06 0 16.921-6.4146 5.9722-6.5252 5.9722-18.691 0-12.055-5.8616-18.359-5.7509-6.4146-16.921-6.4146h-12.276v49.879z" style="white-space:pre"/>
  </g>
  <path d="m0.0161 238.39h234.13v51.947h-87.221v225.21h-59.701v-225.21h-87.221v-51.947zm450.06 277.16v-119.01h-120.56v119.01h-59.702v-277.16h59.702v106.21h120.56v-106.21h59.691v277.16zm167.84-100.78v100.78h-58.927v-277.16h101.17c36.438 0 64.408 7.6147 83.919 22.866 19.51 15.251 29.269 37.088 29.269 65.512 0 18.359-4.3324 33.997-12.99 46.914-8.6578 12.918-20.999 22.873-37.017 29.853l34.493 55.243 34.127 56.774h-68.619a2783.5 2783.5 0 0 0-57.751-100.78zm0-46.913h38.759c18.351 0 32.303-3.2968 41.873-9.8827 9.57-6.5861 14.339-16.995 14.339-31.21 0-14.216-4.7115-24.667-14.149-31.4-9.4378-6.732-23.318-10.072-41.67-10.072h-39.146v82.566zm204.28-129.47h190.71v49.619h-131.03v60.082h116.3v49.619h-116.3v68.226h138.39v49.619h-198.09zm234.51 0h190.72v49.619h-131.03v60.082h116.29v49.619h-116.29v68.226h138.39v49.619h-198.1z" stroke-width="7.294"/>
  <path d="m349.28 9.972e-6v158.93h158.93v-158.93zm110.83 112.16c-2.9399 4.0096-6.9701 7.0909-11.61 8.8775-5.7742 2.2185-11.927 3.2803-18.112 3.1252h-35.617v-89.398h33.55c9.887 0 17.545 1.979 22.975 5.9368 5.426 3.9463 8.49 10.368 8.1453 17.068 0.1034 3.8907-0.9167 7.7285-2.9192 11.065-2.0978 3.2607-5.0952 5.8446-8.629 7.44 4.8045 1.4303 9.0368 4.3404 12.094 8.3154 2.8676 4.0238 4.3416 8.8758 4.1957 13.815 0.1309 4.9001-1.296 9.7151-4.0727 13.754zm-22.735-43.7c2.5068-2.1179 3.8774-5.2865 3.7062-8.5636 0-7.0845-4.8206-10.627-14.464-10.629h-13.736v22.258h13.736c3.8337 0.2614 7.6375-0.8229 10.758-3.0657zm-8.4486 17.068h-16.045v24.132h15.802c4.3874 0.2723 8.7542-0.7962 12.52-3.0638 2.8893-1.9813 4.546-5.3172 4.3771-8.8157 0-8.1672-5.5513-12.252-16.655-12.253zm119.01-85.53v158.93h158.93v-158.93zm110.83 112.16c-2.9411 4.0096-6.9701 7.0909-11.61 8.8775-5.7741 2.2185-11.928 3.2803-18.112 3.1252h-35.618v-89.398h33.55c9.887 0 17.545 1.979 22.976 5.9368 5.426 3.9463 8.49 10.368 8.1442 17.068 0.1034 3.8907-0.9156 7.7285-2.9181 11.065-2.0989 3.2607-5.0963 5.8446-8.6302 7.44 4.8057 1.4303 9.0381 4.3404 12.094 8.3154 2.8687 4.0238 4.3427 8.8758 4.1956 13.815 0.131 4.9001-1.2947 9.7151-4.0715 13.754zm-22.734-43.7c2.5068-2.1175 3.8797-5.2863 3.7096-8.5636 0-7.0845-4.8228-10.627-14.468-10.629h-13.736v22.258h13.736c3.8338 0.2614 7.6376-0.8229 10.758-3.0657zm-8.4487 17.068h-16.045v24.132h15.802c4.3886 0.2723 8.7554-0.7962 12.521-3.0638 2.8882-1.9813 4.5437-5.3172 4.376-8.8157 0-8.1672-5.5513-12.252-16.655-12.253zm119.01 73.402h158.93v-158.93h-158.93zm114.14-40.432c-4.0555 2.1777-8.3844 3.8055-12.87 4.8407-5.0434 1.2033-10.212 1.7997-15.397 1.7771-6.568 0.095-13.103-0.9619-19.305-3.1253-5.4364-1.9067-10.389-4.9815-14.51-9.0085-4.0509-4.0724-7.1539-8.9893-9.0863-14.399-2.184-6.1547-3.2536-12.65-3.1571-19.18-0.092-6.4205 1.0214-12.802 3.2823-18.811 2.0771-5.4285 5.3054-10.342 9.4643-14.401 4.2392-4.0758 9.2919-7.2088 14.827-9.1931 6.2164-2.2001 12.775-3.2784 19.368-3.1849 4.7344-0.026 9.455 0.4883 14.072 1.5309 4.2714 0.9695 8.405 2.4725 12.302 4.4735v17.403c-3.4604-2.2912-7.2458-4.0471-11.23-5.208-4.1416-1.1989-8.4325-1.7973-12.745-1.7771-5.4376-0.1589-10.831 1.0202-15.709 3.4311-4.2588 2.2138-7.7364 5.6784-9.9675 9.9278-2.4447 4.9018-3.6396 10.333-3.473 15.809-0.1585 5.4804 0.988 10.92 3.3455 15.871 2.1196 4.2596 5.5168 7.751 9.7158 9.9873 4.7873 2.4126 10.1 3.5926 15.458 3.433 9.0496 0.059 17.931-2.4495 25.615-7.2315z" stroke-width="1.9856"/>
 </g>
</svg>
