<svg width="867.93" height="500.53" version="1.1" viewBox="0 0 813.69 469.24" xmlns="http://www.w3.org/2000/svg">
 <g transform="translate(-1561.8 23.097)">
  <g transform="translate(1561.8 -23.094)">
   <path d="m792.44 157.05c-1.1529 1.1529-2.438 2.1375-3.8241 2.9223-1.3526 0.76815-3.1394 1.4361-5.2936 1.9872-2.0038 0.46757-5.0263 0.70136-9.5518 0.70136h-6.9968v-37.189h6.7463c4.7925 0 7.5144 0.33397 8.7001 0.53437 1.6198 0.28321 3.3899 0.86834 5.2267 1.7367h0.04c1.8201 0.85098 3.4567 1.9538 4.8427 3.2729l0.0133 0.0133c4.1747 3.8909 5.711 7.3308 5.711 12.707 0 5.4772-1.5696 9.2177-5.6108 13.308m16.466-30.459c-3.1895-5.3937-7.5479-9.5351-12.958-12.307-5.5775-2.8889-12.775-4.3584-21.408-4.3584h-20.79c-4.325 0-7.7148 1.2518-10.053 3.7238-2.9891 3.1394-3.056 7.1137-3.0392 7.9152v14.345h-17.217v-14.462c-0.0134-0.12023-0.2004-3.1227-1.887-5.8112-1.3199-2.1375-4.542-5.711-11.356-5.711-6.0282 0-9.2846 3.0725-10.972 5.6609-1.72 2.6384-2.0874 5.2601-2.1208 5.5608l-0.0133 0.12024v45.42l0.0133 0.18436c0.0134 0.28455 0.26718 2.9557 1.9705 5.6442 1.6365 2.5884 4.9095 5.6776 11.121 5.6776 6.6128 0 9.8523-3.1394 11.406-5.7611 1.6532-2.772 1.72-5.5106 1.72-5.8112v-14.412h17.333l-0.0133 14.462v0.0935c0.0133 0.12023 0.28454 3.056 1.9538 5.7277 1.6198 2.5884 4.8761 5.6943 11.155 5.6943h19.504c4.1914 0 8.099-0.26718 11.623-0.80155h0.0535c0.16698-0.0267 0.35134-0.0668 0.53435-0.10686 1.9037-0.30058 4.0746-0.66795 6.4958-1.6198 4.3751-1.6532 8.266-4.1246 11.555-7.3642 3.2396-3.1394 5.7777-6.8299 7.5312-10.988 1.7534-4.158 2.6384-8.5665 2.6384-13.091 0-6.3289-1.603-12.257-4.7758-17.634" stroke-width="13.36"/>
   <path d="m710.01 148.1-0.0133 26.734c9.8857 0 9.9358-8.3995 9.9358-8.3995v-18.335h-9.9191z" fill="#50318f" stroke-width="13.36"/>
   <path d="m720.04 139.68v-18.352s-0.38475-8.3995-10.053-8.3995v26.703l10.053 0.0535z" fill="#50318f" stroke-width="13.36"/>
   <path d="m743.68 121.38s-0.43417-8.3995 9.9191-8.3995v61.886c-9.3514 0-9.9358-8.3995-9.9358-8.3995l0.0133-17.583h-33.632v25.983c-9.2512 0-9.9358-8.3995-9.9358-8.3995v-45.087s1.0019-8.3995 9.9358-8.3995v25.967h33.632v-17.567z" fill="#ffe409" stroke-width="13.36"/>
   <path d="m753.56 174.82 9.9358-9.1509h10.186c4.4085 0 7.8485-0.21642 10.303-0.80155 2.438-0.61719 4.4753-1.386 6.0951-2.3044 1.6532-0.93513 3.1561-2.0874 4.5087-3.44 4.3751-4.4252 6.546-8.817 6.546-15.563 0-6.6294-2.2376-10.838-6.7129-15.029-1.6532-1.5698-3.5568-2.8389-5.711-3.8408-2.1208-1.0019-4.1413-1.6699-6.0617-2.0038-1.9204-0.31794-4.9929-0.56776-9.2344-0.56776h-9.9191l-9.9024-9.1843h20.74c8.4162 0 15.063 1.4695 19.956 4.0077 4.8928 2.5048 8.7836 6.1953 11.672 11.088 2.8889 4.8928 4.3417 10.236 4.3417 16.015 0 4.1246-0.80155 8.0823-2.388 11.856-1.603 3.7739-3.8742 7.097-6.8132 9.9526-3.0058 2.9557-6.5125 5.1766-10.487 6.6795-2.3211 0.91911-4.4586 1.2023-6.4124 1.5363-1.9371 0.28455-5.6609 0.76815-11.139 0.76815l-19.504-0.0133z" fill="#ffe409" stroke-width="13.36"/>
   <path d="m763.45 121.38c0-9.1676-9.9358-8.3995-9.9358-8.3995v61.886s9.9358 0.76814 9.9358-8.3995z" fill="#50318f" stroke-width="13.36"/>
   <path d="m447.64 72.495c0.16698-2.3211 0.20039-4.0411 0.20039-4.0411 0.20038-4.3251 0.40077-8.8337 0.78551-12.04 0.75078-7.3642 3.5736-18.785 3.5736-18.785 1.6365-6.93 3.8408-12.19 5.7778-15.863 1.4361-2.7052 2.6718-4.5253 3.4066-5.5106 6.1285-9.869 16.215-16.265 29.174-16.265 19.422 0 34.834 15.363 35.001 34.466 0.20038 5.6108-1.1195 11.573-4.5253 17.751-7.097 12.875-9.3847 15.378-9.7354 15.948-4.9095 7.8485-7.2807 11.439-8.7669 14.176-0.91777 1.7033-1.336 2.8387-2.7386 7.2139l-0.23378 0.75212 0.76815-0.16699c13.442-2.7887 42.266-0.63456 49.612 26.101 0.56776 1.9204 1.2852 5.1766 1.7701 8.5832l0.0935 1.5696c1.1022 8.3327 0.21641 21.358-4.8427 35.302-0.53437 1.1529-2.7219 5.878-5.3103 10.57-2.388 4.2749-6.1452 10.554-10.403 14.528-0.0134 0.0134-1.6365 2.0372-4.9929 4.9095-3.4066 2.939-8.4162 6.5961-14.812 9.4515-30.109 13.593-72.823 4.0244-84.363-31.093-5.5942-14.361-5.711-27.72-4.4586-37.405 1.0687-8.1824 3.1394-13.977 3.9409-16.015 1.1529-3.7238 3.2062-7.7315 4.5588-10.253 1.6532-3.056 3.2062-5.5441 3.2062-5.5441 3.6237-5.5441 6.763-9.8356 9.0842-13.459 2.1208-3.2896 2.8388-4.9762 3.1394-6.2788 0.56776-2.5048 0.90175-5.9448 1.0861-8.5999" fill="#231f1f" stroke-width="13.36"/>
   <path d="m133.3 185.77c-1.6198 0-10.938 22.659-10.938 22.659s15.396 14.595 16.215 16.215c0.80155 1.6198 18.201-19.872 18.201-23.912 0-4.0244-21.859-14.962-23.478-14.962" fill="#231f1f" fill-rule="evenodd" stroke-width="13.36"/>
   <path d="m713.88 309.75c-20.84 22.361-54.572 20.856-75.546 1.3186-14.261-13.308-15.981-32.53-1.8703-47.659 2.388-2.5716 6.1118-5.6108 10.737-7.2306 1.2518-0.43417 2.6551-0.78551 4.1413-0.96854l0.50098-0.0668-0.0935-0.48361c-2.8889-13.527 5.9114-28.421 11.088-33.965 20.873-22.376 54.705-20.74 75.546-1.3186 14.412 13.442 15.948 32.563 1.8703 47.659-2.388 2.5716-6.1118 5.6108-10.737 7.2306-1.2518 0.43417-2.6385 0.76816-4.1079 0.96854l-0.48359 0.0534 0.0935 0.48359c2.939 13.575-5.9949 28.455-11.139 33.982" fill="#231f1f" fill-rule="evenodd" stroke-width="13.36"/>
   <path d="m705.74 302.27c6.8299-7.3141 13.025-22.911 4.325-31.009-5.6943-5.327-11.272-7.1471-16.766-12.257-4.5588-4.2582-4.5755-10.203-1.0687-13.977 3.323-3.5568 9.9191-7.6481 14.261-3.607 5.9448 5.5441 6.4124 15.815 12.24 21.256 4.2248 3.9409 10.186 0.30058 13.375-3.1227 9.702-10.403 8.8337-22.543-1.3359-32.011-16.916-15.78-43.7-16.616-59.9 0.75078-6.8299 7.3141-12.908 23.011-4.3417 31.009 5.8279 5.4271 14.145 7.0136 18.102 13.793 3.1895 5.4939 2.5716 8.4329-0.14962 12.558-2.7553 4.1747-10.019 7.5312-14.361 3.49-5.8279-5.4438-6.2955-15.713-12.24-21.241-4.2248-3.9576-10.186-0.31794-13.392 3.106-9.6853 10.403-8.7001 22.644 1.3527 32.028 17.017 15.881 43.7 16.599 59.9-0.76816" fill="#ffe409" fill-rule="evenodd" stroke-width="13.36"/>
   <path d="m599.8 83.182c8.1156 1.8703 16.466 7.3809 20.557 13.927 9.4682 15.163-12.357 50.43-34.349 41.948-16.448-6.3456-19.538-23.846-13.927-40.678 4.9262-14.795 18.135-17.401 27.72-15.196" fill="#231f1f" fill-rule="evenodd" stroke-width="13.36"/>
   <path d="m598.73 156.38c-3.1895 18.368-21.123 50.281-45.888 47.925-12.908-1.2357-41.446-14.295-19.186-45.42 3.3398-4.6924 6.5627-8.0656 10.086-11.272 3.0559-2.7887 6.546-5.5775 11.055-9.5017 17.383-15.095 50.798-21.108 43.935 18.269" fill="#231f1f" fill-rule="evenodd" stroke-width="13.36"/>
   <path d="m583.9 102.42c-4.6089 13.793-0.85098 22.209 6.5794 25.082 8.984 3.4567 23.461-16.999 19.27-23.696-4.1747-6.6962-21.256-15.179-25.85-1.386" fill="#ffe409" fill-rule="evenodd" stroke-width="13.36"/>
   <path d="m627.45 252.97c-39.71-7.7148-54.205-40.378-48.694-68.666 6.9968-36.019 38.926-48.576 67.463-43.033 15.646 3.44 36.887 19.654 30.844 50.816-1.0019 5.0932-4.2582 11.505-8.4329 16.432-0.93514 1.0861-2.271 2.5048-3.9409 3.9242l-4.5588 3.8742 0.80154 5.9448 0.0935 0.80155c0.4502 5.2768-0.66795 11.305-3.2062 15.931-2.9557 5.3437-5.0765 8.5665-8.1323 10.804-6.0951 4.4586-13.76 4.826-22.243 3.1728" fill="#231f1f" fill-rule="evenodd" stroke-width="13.36"/>
   <path d="m643.89 151.98c-24.062-4.6757-48.843 5.711-54.422 34.415-4.4753 23.011 6.9133 49.395 40.044 55.841 14.462 2.8222 15.846-3.3398 18.703-8.4998 2.8388-5.1599 3.0892-15.429-2.6551-16.331-5.7277-0.91911-11.555 0.86834-17.65-0.30058-9.3514-1.8201-19.154-21.791-8.8337-19.788 5.7944 1.1356 16.314 7.3976 29.273 9.9191 8.9672 1.7367 16.816-11.422 17.952-17.234 4.6924-24.18-11.238-35.653-22.41-38.022" fill="#ffe409" fill-rule="evenodd" stroke-width="13.36"/>
   <path d="m625.05 169.07c-3.7739 5.6776-2.8722 17.15 4.7926 18.135 7.6648 0.98591 21.893-6.9968 16.198-15.831-5.4104-8.3995-15.262-10.904-20.99-2.3044" fill="#50318f" fill-rule="evenodd" stroke-width="13.36"/>
   <path d="m346.92 144.23c-0.88571-1.386-3.6738-7.1638-3.6738-7.1638-3.824-8.7502-5.5608-18.302-5.2267-27.737 1.3526-38.824 32.612-57.26 63.456-56.175 16.832 0.9859 41.664 14.327 40.478 47.859-0.18436 5.4104-2.5048 12.624-6.0617 18.452-0.86834 1.4361-2.1542 3.3063-3.8742 5.2267l-4.2081 4.6924 1.9705 5.9949c0.16698 0.50097 0.30058 0.95251 0.38474 1.3186 1.3694 5.3937 1.2023 11.84-0.68532 17.049-2.1542 6.0116-3.7906 9.702-6.6128 12.524-5.4772 5.5106-13.259 7.1805-22.443 6.8632-23.929-0.83493-41.246-11.205-51.399-25.399 0 0-1.2196-2.1208-2.1041-3.5067" fill="#231f1f" stroke-width="13.36"/>
   <path d="m346.92 144.23c-0.88571-1.386-3.6738-7.1638-3.6738-7.1638-3.824-8.7502-5.5608-18.302-5.2267-27.737 1.3526-38.824 32.612-57.26 63.456-56.175 16.832 0.9859 41.664 14.327 40.478 47.859-0.18436 5.4104-2.5048 12.624-6.0617 18.452-0.86834 1.4361-2.1542 3.3063-3.8742 5.2267l-4.2081 4.6924 1.9705 5.9949c0.16698 0.50097 0.30058 0.95251 0.38474 1.3186 1.3694 5.3937 1.2023 11.84-0.68532 17.049-2.1542 6.0116-3.7906 9.702-6.6128 12.524-5.4772 5.5106-13.259 7.1805-22.443 6.8632-23.929-0.83493-41.246-11.205-51.399-25.399 0 0-1.2196-2.1208-2.1041-3.5067z" fill="none" stroke="#231f1f" stroke-miterlimit="3.864" stroke-width="1.4528"/>
   <path d="m281.18 161.46c-1.5863-0.38475-7.6147-2.6051-7.6147-2.6051-8.8337-3.6237-16.715-9.3013-23.028-16.314-26-28.871-16.314-63.84 6.6294-84.496 12.791-10.972 39.91-18.636 62.354 6.3122 3.6237 4.0244 6.9634 10.821 8.4663 17.484 0.36738 1.6365 0.75212 3.8742 0.83495 6.4624l0.23378 6.2955 5.5942 2.939c0.46756 0.24982 0.86834 0.4836 1.1862 0.68399 4.7258 2.9223 9.0842 7.6815 11.356 12.725 2.6051 5.8279 4.0077 9.6185 3.9409 13.61-0.12023 7.7817-4.5588 14.394-11.388 20.539-17.784 16.015-37.439 20.589-54.623 17.418 0 0-2.3546-0.66796-3.9409-1.0527" fill="#231f1f" stroke-width="13.36"/>
   <path d="m281.18 161.46c-1.5863-0.38475-7.6147-2.6051-7.6147-2.6051-8.8337-3.6237-16.715-9.3013-23.028-16.314-26-28.871-16.314-63.84 6.6294-84.496 12.791-10.972 39.91-18.636 62.354 6.3122 3.6237 4.0244 6.9634 10.821 8.4663 17.484 0.36738 1.6365 0.75212 3.8742 0.83495 6.4624l0.23378 6.2955 5.5942 2.939c0.46756 0.24982 0.86834 0.4836 1.1862 0.68399 4.7258 2.9223 9.0842 7.6815 11.356 12.725 2.6051 5.8279 4.0077 9.6185 3.9409 13.61-0.12023 7.7817-4.5588 14.394-11.388 20.539-17.784 16.015-37.439 20.589-54.623 17.418 0 0-2.3546-0.66796-3.9409-1.0527z" fill="none" stroke="#231f1f" stroke-miterlimit="3.864" stroke-width="1.4528"/>
   <path d="m400.88 64.077c-26.318-0.91776-50.831 14.261-51.933 45.637-0.86834 25.165 15.63 51.232 51.85 52.502 15.797 0.55174 16.247-6.2286 18.385-12.174 2.1542-5.9448 0.70135-16.866-5.5441-16.866-6.2286 0-12.106 2.8722-18.77 2.6385-10.22-0.35135-23.98-19.889-12.691-19.488 6.3456 0.21776 18.536 5.0932 32.714 5.5942 9.7856 0.33397 15.913-14.947 16.131-21.292 0.93514-26.435-17.901-35.92-30.141-36.554" fill="#ffe409" fill-rule="evenodd" stroke-width="13.36"/>
   <path d="m386.19 94.53c-2.2877 6.8466 7.5312 13.811 14.896 13.575s16.18-3.1394 15.413-12.707c-1.3025-16.114-26.751-11.505-30.309-0.86833" fill="#50318f" fill-rule="evenodd" stroke-width="13.36"/>
   <path d="m247.26 230.39c-27.001 12.975-91.075 22.644-119.08-45.287-27.469-66.695 9.0842-91.743 33.08-103.97 22.744-11.589 61.067-12.341 74.159 5.3604 4.3918 5.9615 4.6924 12.758 4.0913 17.917-0.60116 5.1592-2.2877 10.32-3.7572 14.428l-5.6275 15.429 14.027 1.7701c1.0353 0.12022 2.0038 0.2498 2.7386 0.36736 5.3103 0.88572 12.257 2.1041 18.785 5.0932 6.8966 3.1561 13.359 8.266 17.886 16.632 18.937 34.967-12.858 60.984-36.303 72.257" fill="#231f1f" fill-rule="evenodd" stroke-width="13.36"/>
   <path d="m73.987 216.23c1.9872 8.817 5.9615 17.835 10.103 22.911 10.153 12.441 18.62 14.412 27.786 11.238 0.31795-0.33397 1.4027-1.4027 1.9037-2.5215 1.0687-2.3378 1.8703-5.7277 2.5716-10.27 0.75211-4.8093 1.2852-9.7856 2.0706-14.194 0.58379-3.1728 1.4194-6.9968 2.9891-10.554-8.1991 7.8151-20.156 12.975-31.961 10.904-7.0636-1.2357-11.99-4.1246-15.463-7.5144m54.588-12.591c6.9634-5.1099 15.563-3.8408 22.877 0.40077 7.3475 4.2749 15.129 12.207 22.494 20.023 13.226 14.043 7.9319 32.295 2.4714 43.566-6.0282 12.424-15.614 23.812-22.276 29.874-3.0892 2.8222-8.0489 7.7984-14.613 12.707-6.8466 5.1266-15.815 10.504-26.668 13.326-22.895 5.9782-50.816-0.21641-80.823-32.879-62.186-67.73-18.317-124.81 2.4047-145.01 13.342-13.008 29.223-13.811 44.286-8.6166 14.11 4.8761 28.003 15.095 39.995 24.748 16.231 13.075 16.532 29.708 9.8523 41.865" fill="#231f1f" fill-rule="evenodd" stroke-width="13.36"/>
   <path d="m90.553 212.89c19.186 3.3732 45.672-23.546 21.741-42.832-23.946-19.27-49.912-35.987-70.035-16.365-20.105 19.604-57.762 69.584-2.5048 129.76 55.256 60.166 94.983 16.348 106.77 5.6108 11.806-10.721 35.052-41.63 19.771-57.828-15.28-16.215-26.301-26.15-33.547-15.948-7.2459 10.202-2.3211 40.378-16.732 45.388-14.411 5.0096-27.653 0.30058-40.145-15.013-12.49-15.33-19.956-50.045-8.0155-53.052 11.923-3.0058 3.5067 16.899 22.694 20.272" fill="#ffe409" fill-rule="evenodd" stroke-width="13.36"/>
   <path d="m264.36 66.344c-19.572 17.618-26.668 45.57-5.6442 68.917 16.832 18.686 46.823 25.983 73.742 1.7367 11.756-10.587 7.3809-15.764 4.7925-21.524-2.5884-5.7777-11.221-12.624-15.713-8.2827-4.492 4.325-6.7129 10.47-11.672 14.947-7.598 6.8299-31.06 2.3378-22.659-5.21 4.7091-4.2582 16.866-9.2178 27.42-18.703 7.264-6.5627 1.0687-21.809-3.1895-26.518-17.701-19.654-37.822-13.409-47.075-5.3604" fill="#ffe409" fill-rule="evenodd" stroke-width="13.36"/>
   <path d="m266.89 99.477c2.9056 6.7129 15.697 4.0411 21.508-1.887 5.7944-5.9448 10.921-14.929 3.6571-21.208-12.257-10.57-29.673 12.658-25.165 23.095" fill="#50318f" fill-rule="evenodd" stroke-width="13.36"/>
   <path d="m561.05 146.77c16.816-14.613 28.537-10.403 25.433 7.3809-3.0892 17.784-18.703 38.941-32.396 37.64-10.27-0.9859-23.311-7.4644-10.253-25.733 5.5106-7.6981 8.3661-11.589 17.217-19.287" fill="#ffe409" fill-rule="evenodd" stroke-width="13.36"/>
   <path d="m437.89 120.58c1.3694-4.9428 6.546-13.326 6.546-13.326 7.3141-11.138 12.273-16.799 13.811-23.496 1.7033-7.431 1.3694-10.704 1.3694-10.704 0.25115-5.0598 0.43416-11.189 0.9191-15.214 0.63456-6.6628 3.2896-17.316 3.2896-17.316 2.822-11.957 7.431-17.45 7.431-17.45 4.0746-6.9133 10.537-11.088 19.287-11.088 12.924 0 22.962 10.153 22.962 22.726 0.16699 3.3063-0.55039 7.1638-3.0225 11.656-6.7798 12.273-8.9506 14.661-9.3013 15.196-10.403 16.665-9.9358 15.214-12.924 24.498-1.2691 3.4901-2.0874 6.5293-1.4194 9.5351 1.1195 5.1099 5.3937 7.097 8.65 7.2807 1.2852 0.0802 3.0058-0.13358 4.9428-0.56776 0.63455-0.13358 1.3186-0.30057 2.0372-0.38474 11.372-2.5716 31.193 0.18303 35.885 17.583 0.4502 1.5029 1.0019 3.6737 1.386 6.4124l0.0802 1.6365c0.90174 6.2955 0.517 17.067-3.991 29.523-0.9191 2.0038-7.3809 15.815-12.808 20.891l-0.35134 0.31795s-1.7367 2.0874-4.2749 4.2749c-2.7553 2.3713-6.7965 5.2936-11.873 7.5646-25.95 11.74-59.664 2.2877-68.132-24.164-9.6352-24.297-0.50096-45.388-0.50096-45.388" fill="#ffe409" stroke-width="13.36"/>
   <path d="m512.7 153.45c-6.9968 7.2807-22.593 15.146-32.813 5.3603-10.236-9.7856-11.406-32.345-0.60117-34.718 10.787-2.388 54.288 7.6314 33.414 29.356" fill="#50318f" fill-rule="evenodd" stroke-width="13.36"/>
   <path d="m166.43 91.188c-21.256 10.837-52.034 30.608-27.737 89.556 24.28 58.93 79.186 51.181 103.7 39.409 23.461-11.288 44.702-31.81 31.26-56.659-12.791-23.612-45.688-9.4348-53.202-28.506-3.2896-8.3494 13.827-31.076 5.8947-41.798-7.9319-10.737-38.658-12.841-59.916-2.0038" fill="#ffe409" fill-rule="evenodd" stroke-width="13.36"/>
   <path d="m189.54 143.43c8.9505-10.303 6.9133-31.661-4.2081-34.55-15.931-4.1413-27.82 18.335-23.445 25.683 4.3751 7.3308 18.703 19.17 27.653 8.8671" fill="#50318f" fill-rule="evenodd" stroke-width="13.36"/>
   <path d="m230.42 183.9c-3.2229 8.9172-13.593 21.591-26.066 17.115-12.49-4.4753-22.109-23.362-13.776-29.523 8.3494-6.1619 49.444-14.16 39.843 12.407" fill="#50318f" fill-rule="evenodd" stroke-width="13.36"/>
  </g>
 </g>
 <g transform="matrix(.99995 0 0 .99995 23.497 -129.91)" fill="#7831eb">
  <path d="m153.39 478.69h78.733v21.13h-53.316v29.048h47.045v21.132h-47.045v46.712h-25.42v-118.02zm146.25-2.4791c8.9103 0 16.971 1.4338 24.182 4.293s13.371 6.9595 18.486 12.295c5.1148 5.3356 9.0558 11.78 11.803 19.313 2.7474 7.5324 4.1309 16.04 4.1309 25.504 0 9.3574-1.3779 17.829-4.1309 25.423-2.753 7.5937-6.6826 14.089-11.803 19.478-5.1203 5.3886-11.278 9.5193-18.486 12.379-7.2079 2.8592-15.272 4.293-24.182 4.293s-16.98-1.4282-24.185-4.2902-13.371-6.9901-18.489-12.379c-5.1175-5.3886-9.0558-11.887-11.803-19.478-2.7474-7.591-4.1281-16.065-4.1281-25.423 0-9.4635 1.3723-17.96 4.1281-25.504 2.7558-7.5434 6.6826-13.975 11.803-19.313 5.1203-5.3383 11.278-9.4329 18.489-12.295 7.2112-2.862 15.266-4.2958 24.185-4.2958zm0 100.86c6.7077 0 12.485-1.5651 17.329-4.7011 4.8436-3.1359 8.5272-7.6188 11.062-13.455 2.535-5.836 3.7955-12.93 3.7955-21.295 0-8.3653-1.2661-15.459-3.7955-21.295s-6.2185-10.288-11.062-13.371c-4.8436-3.0828-10.621-4.62-17.329-4.62-6.7078 0-12.496 1.5428-17.337 4.62-4.8408 3.0772-8.5272 7.5406-11.062 13.371-2.535 5.83-3.7927 12.932-3.7927 21.295 0 8.3625 1.2633 15.467 3.7927 21.295 2.5294 5.8273 6.2185 10.319 11.062 13.455 4.8436 3.1359 10.621 4.7011 17.337 4.7011zm123.8 22.119c-10.559 0-19.615-2.0067-27.153-6.0232-7.5379-4.0163-13.315-9.8214-17.331-17.412-4.0163-7.5909-6.0232-16.731-6.0232-27.404v-69.66h25.417v72.462c0 8.3653 2.1773 14.774 6.5206 19.232 4.3434 4.4579 10.534 6.6826 18.57 6.6826 8.0353 0 14.223-2.2276 18.57-6.6826 4.3461-4.4551 6.5206-10.867 6.5206-19.232v-72.462h25.423v69.66c0 10.677-2.0067 19.811-6.0232 27.404-4.0163 7.5937-9.8241 13.399-17.418 17.412-7.5937 4.0135-16.613 6.0232-27.072 6.0232zm93.595-45.39v42.916h-25.09v-118.02h43.081c15.517 0 27.43 3.2421 35.736 9.7349 8.3067 6.4927 12.466 15.794 12.466 27.896 0 7.8175-1.8447 14.475-5.5258 19.975-3.6809 5.5006-8.9437 9.7404-15.764 12.711l14.687 23.522 14.528 24.182h-29.216a1167.5 1167.5 0 0 0-24.598-42.916h-20.302zm0-19.978h16.507c7.8093 0 13.754-1.4031 17.826-4.2092 4.0722-2.8061 6.1096-7.2364 6.1096-13.29 0-6.0538-2.0096-10.506-6.0232-13.371-4.0135-2.8648-9.9303-4.2902-17.745-4.2902h-16.675v35.157z" stroke-width="2.795"/>
  <path class="st0" d="m253.88 377.15v67.679h67.679v-67.679zm84.583 0v67.679h67.679v-67.679zm84.517 0v67.679h67.679v-67.679zm36.898 14.404c2.1047 0 4.0789 0.19732 5.986 0.6577 1.9074 0.4604 3.6174 1.0526 5.2617 1.9076v7.366c-1.4469-0.98657-3.0918-1.7103-4.8018-2.2365-1.7758-0.52617-3.6169-0.78897-5.3927-0.72325-2.6308 0-4.8678 0.45988-6.7094 1.4464-1.8416 0.9208-3.2888 2.4338-4.2096 4.2096-0.98657 1.8416-1.4464 4.0786-1.4464 6.7094s0.45989 4.9321 1.4464 6.774c0.9208 1.8416 2.3683 3.2886 4.1441 4.2752 1.8416 0.98657 4.0121 1.4478 6.577 1.4478 3.9463 0 7.5636-1.0531 10.918-3.092v7.2643l-0.0655 0.036c-1.5785 0.85503-3.4206 1.5795-5.4596 2.04-2.1047 0.52617-4.2752 0.72324-6.577 0.72324-3.0255 0-5.7879-0.46039-8.2213-1.3154-2.4336-0.9208-4.4714-2.171-6.1813-3.8153-1.71-1.6443-2.96-3.6824-3.8808-6.1162-0.9208-2.4336-1.3154-5.1305-1.3154-8.1557 0-2.9597 0.46015-5.5914 1.381-8.0249 0.92079-2.3678 2.3017-4.4059 4.0118-6.1162 1.7758-1.71 3.8802-3.0258 6.3138-3.8808 2.4335-0.92079 5.196-1.381 8.2213-1.381zm-186.99 0.39438h14.272c4.2094 0 7.4979 0.85556 9.8 2.4998 2.302 1.71 3.4864 4.0778 3.4864 7.2347 0 1.8416-0.39489 3.3538-1.2499 4.735-0.85502 1.3154-2.0386 2.3683-3.683 3.1575 2.2362 0.72347 3.9455 1.9063 5.1294 3.5506 1.1839 1.5785 1.7766 3.5519 1.7766 5.8541 0.0658 2.302-0.5272 4.2752-1.7111 5.9192-1.1839 1.6443-2.8282 2.8947-4.9329 3.7497-2.1705 0.85502-4.735 1.3154-7.6949 1.3154h-15.193zm84.648 0h14.273c4.2094 0 7.4968 0.85556 9.799 2.4998 2.302 1.71 3.4864 4.0778 3.4864 7.2347 0 1.8416-0.39489 3.3538-1.2499 4.735-0.85503 1.3154-2.0386 2.3683-3.683 3.1575 2.2362 0.72347 3.9468 1.9063 5.1307 3.5506 1.1839 1.5785 1.7753 3.5519 1.7753 5.8541-0.0658 2.302-0.6572 4.2752-1.7753 5.9192-1.1839 1.6443-2.8282 2.8947-4.9329 3.7497-2.1705 0.85502-4.7363 1.3154-7.696 1.3154h-15.127zm-76.955 6.183v9.4712h5.8541c2.0389 0 3.5516-0.46039 4.604-1.3154 1.0523-0.85502 1.5788-2.1047 1.5788-3.6174 0-3.0255-2.0391-4.5385-6.183-4.5385zm84.583 0v9.4712h5.8541c2.0389 0 3.5516-0.46039 4.604-1.3154 1.0524-0.85502 1.5788-2.1047 1.5788-3.6174 0-3.0255-2.0392-4.5385-6.183-4.5385zm-84.583 15.456v10.26h6.7094c2.302 0 4.0776-0.4604 5.3272-1.3154 1.2497-0.85502 1.8408-2.1041 1.8408-3.7485 0.0658-3.4859-2.3015-5.1962-7.0372-5.1962zm84.583 0v10.26h6.7094c2.302 0 4.0776-0.4604 5.3272-1.3154 1.2497-0.85502 1.8421-2.1041 1.8421-3.7485 0.0658-3.4859-2.3028-5.1962-7.0383-5.1962z" clip-rule="evenodd" fill-rule="evenodd" stroke-width=".65769"/>
 </g>
</svg>
