<svg width="211.67mm" height="185.21mm" version="1.1" viewBox="0 0 800 700" xmlns="http://www.w3.org/2000/svg">
 <g transform="matrix(13.134 0 0 13.134 -3315.1 -4918.1)">
  <path d="m311.72 386.2c-0.0863 0.0863-0.1825 0.16-0.28625 0.21875-0.10125 0.0575-0.235 0.1075-0.39625 0.14875-0.15 0.035-0.37625 0.0525-0.715 0.0525h-0.52375v-2.7838h0.505c0.35875 0 0.5625 0.025 0.65125 0.04 0.12125 0.0212 0.25375 0.065 0.39125 0.13h3e-3c0.13625 0.0637 0.25875 0.14625 0.3625 0.245l1e-3 1e-3c0.3125 0.29125 0.4275 0.54875 0.4275 0.95125 0 0.41-0.1175 0.69-0.42 0.99625m1.2325-2.28c-0.23875-0.40375-0.565-0.71375-0.97-0.92125-0.4175-0.21625-0.95625-0.32625-1.6025-0.32625h-1.5562c-0.32375 0-0.5775 0.0937-0.7525 0.27875-0.22375 0.235-0.22875 0.5325-0.2275 0.5925v1.0738h-1.2888v-1.0825c-1e-3 -9e-3 -0.015-0.23375-0.14125-0.435-0.0988-0.16-0.34-0.4275-0.85-0.4275-0.45125 0-0.695 0.23-0.82125 0.42375-0.12875 0.1975-0.15625 0.39375-0.15875 0.41625l-1e-3 9e-3v3.4l1e-3 0.0138c1e-3 0.0213 0.02 0.22125 0.1475 0.4225 0.1225 0.19375 0.3675 0.425 0.8325 0.425 0.495 0 0.7375-0.235 0.85375-0.43125 0.12375-0.2075 0.12875-0.4125 0.12875-0.435v-1.0788h1.2975l-1e-3 1.0825v7e-3c1e-3 9e-3 0.0213 0.22875 0.14625 0.42875 0.12125 0.19375 0.365 0.42625 0.835 0.42625h1.46c0.31375 0 0.60625-0.02 0.87-0.06h4e-3c0.0125-2e-3 0.0263-5e-3 0.04-8e-3 0.1425-0.0225 0.305-0.05 0.48625-0.12125 0.3275-0.12375 0.61875-0.30875 0.865-0.55125 0.2425-0.235 0.4325-0.51125 0.56375-0.8225s0.1975-0.64125 0.1975-0.98c0-0.47375-0.12-0.9175-0.3575-1.32"/>
  <path d="m305.55 385.53-1e-3 2.0012c0.74 0 0.74375-0.62875 0.74375-0.62875v-1.3725h-0.7425z" fill="#50318f"/>
  <path d="m306.3 384.9v-1.3738s-0.0288-0.62875-0.7525-0.62875v1.9988l0.7525 4e-3z" fill="#50318f"/>
  <path d="m308.07 383.53s-0.0325-0.62875 0.7425-0.62875v4.6325c-0.7 0-0.74375-0.62875-0.74375-0.62875l1e-3 -1.3162h-2.5175v1.945c-0.6925 0-0.74375-0.62875-0.74375-0.62875v-3.375s0.075-0.62875 0.74375-0.62875v1.9438h2.5175v-1.315z" fill="#ffe409"/>
  <path d="m308.81 387.53 0.74375-0.685h0.7625c0.33 0 0.5875-0.0162 0.77125-0.06 0.1825-0.0462 0.335-0.10375 0.45625-0.1725 0.12375-0.07 0.23625-0.15625 0.3375-0.2575 0.3275-0.33125 0.49-0.66 0.49-1.165 0-0.49625-0.1675-0.81125-0.5025-1.125-0.12375-0.1175-0.26625-0.2125-0.4275-0.2875-0.15875-0.075-0.31-0.125-0.45375-0.15-0.14375-0.0238-0.37375-0.0425-0.69125-0.0425h-0.7425l-0.74125-0.6875h1.5525c0.63 0 1.1275 0.11 1.4938 0.3 0.36625 0.1875 0.6575 0.46375 0.87375 0.83s0.325 0.76625 0.325 1.1988c0 0.30875-0.06 0.605-0.17875 0.8875-0.12 0.2825-0.29 0.53125-0.51 0.745-0.225 0.22125-0.4875 0.3875-0.785 0.5-0.17375 0.0688-0.33375 0.09-0.48 0.115-0.145 0.0213-0.42375 0.0575-0.83375 0.0575l-1.46-1e-3z" fill="#ffe409"/>
  <path d="m309.55 383.53c0-0.68625-0.74375-0.62875-0.74375-0.62875v4.6325s0.74375 0.0575 0.74375-0.62875z" fill="#50318f"/>
  <path d="m285.54 392.95h5.3838v5.0662h-5.3838zm3.3912 0.705c-0.0237-4e-3 -0.0475-7e-3 -0.0725-0.0112l-0.0288-4e-3c-0.0412-6e-3 -0.0825-0.0113-0.125-0.015-0.0288-2e-3 -0.0575-5e-3 -0.0863-6e-3 -0.0512-2e-3 -0.10125-5e-3 -0.15-5e-3 -0.0213 0-0.035 1e-3 -0.0562 1e-3 -0.04 1e-3 -0.08 2e-3 -0.12 5e-3 -0.0213 1e-3 -0.0437 4e-3 -0.065 5e-3 -0.0325 2e-3 -0.0638 6e-3 -0.095 0.01l-0.0263 4e-3 -0.0288 5e-3 -0.0362 5e-3c-0.015 2e-3 -0.03 5e-3 -0.0462 9e-3 -0.02 4e-3 -0.0412 7e-3 -0.0625 0.0125-0.1275 0.0262-0.245 0.0625-0.355 0.105-0.0562 0.0213-0.11 0.0462-0.16125 0.0713-0.0425 0.02-0.0838 0.0425-0.12375 0.065-0.0387 0.0225-0.075 0.045-0.11 0.0687-0.0213 0.0125-0.0412 0.0263-0.06 0.0413-0.0175 0.0112-0.0337 0.0238-0.05 0.0362-0.0337 0.0263-0.0675 0.0537-0.0975 0.08-0.0288 0.0263-0.0575 0.0512-0.0838 0.0775-0.0225 0.0225-0.045 0.0462-0.0663 0.07s-0.0425 0.0475-0.0637 0.0738c-0.0213 0.0275-0.0437 0.0562-0.065 0.085-0.015 0.0213-0.0312 0.0438-0.045 0.0663-0.01 0.015-0.02 0.03-0.03 0.0462-0.0563 0.0913-0.105 0.19-0.145 0.295-0.0512 0.13-0.0875 0.27125-0.1075 0.42-6e-3 0.0475-0.0112 0.095-0.0137 0.14375-1e-3 0.0375-4e-3 0.0763-4e-3 0.115 0 0.0288 0 0.0575 2e-3 0.085 1e-3 0.03 4e-3 0.0587 7e-3 0.0875l2e-3 0.02c4e-3 0.0337 9e-3 0.0675 0.0163 0.10125 2e-3 0.0125 5e-3 0.0263 7e-3 0.0388 6e-3 0.0275 0.0125 0.055 0.02 0.0825 9e-3 0.035 0.0187 0.0688 0.03 0.1025 0.0138 0.0412 0.0288 0.0812 0.045 0.12 0.0263 0.0613 0.0537 0.12125 0.085 0.1775 0.0175 0.0325 0.0375 0.065 0.0563 0.0962 0.015 0.0238 0.0312 0.0475 0.0462 0.0713 0.0213 0.03 0.0437 0.0587 0.065 0.0863 0.0225 0.03 0.0462 0.0575 0.0687 0.0838 0.0288 0.0337 0.0575 0.0637 0.085 0.0913l0.0163 0.015c0.0225 0.0225 0.0475 0.0462 0.0762 0.0713 0.02 0.0162 0.04 0.0337 0.0625 0.0512 0.02 0.0163 0.0425 0.0325 0.065 0.0487 0.0275 0.02 0.0563 0.04 0.0863 0.0588 0.0325 0.0212 0.065 0.0425 0.10125 0.0612 0.0713 0.04 0.15 0.0788 0.23625 0.11375 0.0325 0.0125 0.0662 0.025 0.1 0.0362 0.035 0.0125 0.0688 0.0225 0.10625 0.0338 0.0613 0.0175 0.12625 0.0337 0.195 0.0462 0.055 0.0112 0.1125 0.02 0.17125 0.0275 0.06 6e-3 0.12 0.0125 0.18375 0.015 0.03 1e-3 0.0613 4e-3 0.0937 4e-3h0.0437c0.1125 0 0.2175-4e-3 0.315-0.0125l0.0188-1e-3c0.0387-4e-3 0.0763-7e-3 0.1125-0.0125 0.055-6e-3 0.1075-0.015 0.15875-0.0238 0.0312-5e-3 0.0613-0.0112 0.0913-0.0175 0.0475-0.01 0.0913-0.0213 0.13375-0.0325 0.03-9e-3 0.0612-0.0162 0.0888-0.025 0.035-0.0113 0.0687-0.0225 0.1-0.0325l0.0312-0.0112c0.015-5e-3 0.0362-0.0125 0.06-0.0225 0.0325-0.0125 0.0713-0.0275 0.11625-0.0475 0.0262-0.0113 0.055-0.0238 0.085-0.0375 0.0263-0.0113 0.0537-0.025 0.0813-0.0387 0.0125-5e-3 0.0238-0.0113 0.035-0.0175v-0.69c-7e-3 5e-3 -0.0163 0.01-0.025 0.015l-0.0462 0.0288c-0.0475 0.0275-0.0925 0.055-0.13875 0.08-0.05 0.0275-0.0987 0.0525-0.1475 0.075-0.0863 0.04-0.1675 0.075-0.24625 0.1025-0.15125 0.0537-0.29 0.0888-0.41125 0.11-0.015 2e-3 -0.0288 5e-3 -0.0437 7e-3 -0.0325 5e-3 -0.065 9e-3 -0.0962 0.0125-0.0488 5e-3 -0.0925 7e-3 -0.1325 0.01-0.0263 1e-3 -0.0513 1e-3 -0.0738 1e-3 -0.0487 0-0.1-1e-3 -0.15125-5e-3 -0.06-4e-3 -0.12125-0.0113-0.1825-0.0213-0.1-0.0163-0.2-0.0425-0.29875-0.0775-0.015-5e-3 -0.0288-0.0113-0.0437-0.0163-9e-3 -4e-3 -0.0188-9e-3 -0.0275-0.0125-0.0163-6e-3 -0.0325-0.0138-0.0475-0.0213-0.035-0.015-0.0675-0.0325-0.10125-0.0513-0.015-9e-3 -0.0312-0.0187-0.0487-0.0288-0.015-0.0112-0.0325-0.0225-0.0487-0.0325-0.02-0.0138-0.04-0.0288-0.0588-0.0437-0.0187-0.015-0.0387-0.0312-0.055-0.045l-0.0225-0.02-0.0173-0.0173-9e-3 -7e-3c-0.0312-0.0312-0.06-0.0625-0.085-0.0937-0.015-0.0175-0.0288-0.035-0.0412-0.0525-0.0125-0.0175-0.025-0.0337-0.0362-0.0512-0.01-0.0163-0.02-0.0325-0.03-0.0487-0.015-0.0238-0.0275-0.0487-0.0387-0.0725-0.01-0.0213-0.02-0.0425-0.0288-0.0625-0.015-0.0337-0.0275-0.07-0.0375-0.1025-9e-3 -0.0263-0.0162-0.0525-0.0225-0.0763-0.0175-0.0725-0.0275-0.13875-0.0325-0.195-3e-3 -0.0213-3e-3 -0.0412-4e-3 -0.06-1e-3 -0.0275-2e-3 -0.0512-2e-3 -0.0712 0-0.0125 0-0.0263 1e-3 -0.0438 1e-3 -0.0387 5e-3 -0.0887 0.0125-0.14625 5e-3 -0.035 0.0125-0.0713 0.0212-0.11 6e-3 -0.0263 0.0138-0.0525 0.0225-0.08 7e-3 -0.0238 0.0163-0.0488 0.0263-0.0738 6e-3 -0.0175 0.0125-0.035 0.0213-0.0525 0.01-0.0225 0.02-0.0462 0.0337-0.07 9e-3 -0.0175 0.0187-0.035 0.0288-0.0537 0.0225-0.0388 0.0487-0.0775 0.0775-0.11625 0.0113-0.015 0.0213-0.0288 0.0325-0.0425 0.015-0.0175 0.03-0.035 0.0463-0.0525 9e-3 -9e-3 0.0162-0.0175 0.025-0.0263 0.12625-0.12625 0.26875-0.22125 0.41625-0.28875 0.0238-0.01 0.0462-0.02 0.07-0.0288 0.0238-0.01 0.0463-0.0175 0.07-0.0263 0.0263-9e-3 0.0513-0.0163 0.0775-0.0238 0.0238-6e-3 0.0487-0.0125 0.0725-0.0175 0.0238-6e-3 0.0487-0.0113 0.0725-0.015 0.0275-5e-3 0.0537-9e-3 0.08-0.0125 0.0275-4e-3 0.0538-6e-3 0.08-9e-3 0.05-4e-3 0.1-6e-3 0.1475-6e-3 0.0163 0 0.0325-1e-3 0.0487 0 0.035 1e-3 0.07 2e-3 0.105 4e-3 0.0225 1e-3 0.0462 4e-3 0.0687 6e-3 0.0438 4e-3 0.0863 9e-3 0.12625 0.015 0.035 5e-3 0.07 0.0113 0.10125 0.0175 0.05 0.01 0.095 0.0212 0.13625 0.0312 0.0263 7e-3 0.05 0.015 0.0725 0.0212 0.0337 0.01 0.0625 0.0188 0.085 0.0263 0.0375 0.0138 0.0588 0.0213 0.0588 0.0213 0.0337 0.0125 0.0675 0.025 0.1 0.0387 0.0438 0.0175 0.0863 0.0362 0.12625 0.055 0.0337 0.015 0.065 0.03 0.095 0.045 0.025 0.0125 0.0475 0.0238 0.0688 0.035 0.0387 0.02 0.07 0.0375 0.0962 0.0513l0.0713 0.0387v-0.67875s-0.0425-0.0175-0.11625-0.045c-0.0325-0.0125-0.07-0.0263-0.11375-0.0412-0.0238-9e-3 -0.05-0.0188-0.0763-0.0275-0.0213-7e-3 -0.0437-0.015-0.0662-0.0225-0.0263-7e-3 -0.0538-0.0163-0.0813-0.025-0.02-6e-3 -0.04-0.0125-0.0613-0.0187l-0.0175-5e-3c-0.0213-6e-3 -0.0412-0.0113-0.0625-0.0163-0.0238-7e-3 -0.0487-0.0138-0.0738-0.02-0.0175-4e-3 -0.0325-8e-3 -0.05-0.0113-0.0263-6e-3 -0.0538-0.0125-0.0813-0.0175-0.0275-6e-3 -0.0563-0.0113-0.085-0.0175" fill="#fff"/>
  <path d="m281.4 395.75v0.995h0.67995c0.0225-1e-3 0.0525-2e-3 0.09-5e-3 0.0712-8e-3 0.1625-0.02 0.2525-0.05 0.0813-0.0275 0.16-0.0688 0.22125-0.12875 0.0225-0.0238 0.0425-0.0475 0.0575-0.0725 0.05-0.08 0.0637-0.16125 0.0662-0.20625 1e-3 -0.02 1e-3 -0.0325 1e-3 -0.0325v-0.0238c-1e-3 -0.02-2e-3 -0.0563-0.0138-0.0962-0.0113-0.0475-0.0337-0.1025-0.075-0.1525-7e-3 -0.01-0.0163-0.0187-0.025-0.0275-0.0175-0.0188-0.0375-0.035-0.0575-0.0512-0.0363-0.0263-0.0763-0.0488-0.12-0.0675-0.0588-0.025-0.12375-0.0438-0.195-0.0563-0.0363-7e-3 -0.075-0.0125-0.115-0.0163-0.0238-2e-3 -0.0488-5e-3 -0.0738-6e-3 -0.0225-1e-3 -0.0462-2e-3 -0.0688-2e-3h-0.625" fill="#fff"/>
  <path d="m281.4 394.23v0.94375h0.3125s0.0213 0 0.0488-1e-3c0.0225 0 0.0475-1e-3 0.0712-2e-3 0.0638-5e-3 0.1525-0.0138 0.2425-0.0387 0.0163-5e-3 0.035-0.01 0.0513-0.0163 0.07-0.025 0.1375-0.0612 0.18875-0.1125 0.0425-0.0412 0.0688-0.0863 0.0875-0.13 0.0225-0.0537 0.03-0.10625 0.0325-0.1425 4e-3 -0.0325 4e-3 -0.0537 4e-3 -0.0537s0-0.015-1e-3 -0.04c-2e-3 -0.0412-0.0113-0.1075-0.0425-0.1725-0.0162-0.03-0.0375-0.06-0.0675-0.0888-0.0337-0.035-0.0775-0.0612-0.12375-0.0825-0.0875-0.0375-0.18875-0.0537-0.27375-0.06-0.0362-1e-3 -0.07-2e-3 -0.0987-2e-3h-0.43125z" fill="#fff"/>
  <path d="m279.33 392.95h5.3838v5.0662h-5.3838zm1.4125 0.71125v3.6488h1.3738s0.67 0.0188 1.04-0.35125c0.3-0.30125 0.27875-0.65 0.27875-0.65s0.0212-0.36375-0.2575-0.6425c-0.2375-0.23625-0.54-0.3-0.54-0.3s0.1375-0.065 0.2425-0.17c0.0487-0.0487 0.22375-0.2075 0.22375-0.59125 0-0.3875-0.2575-0.61-0.2575-0.61s-0.2825-0.33375-0.92-0.33375h-1.1838z" fill="#fff"/>
  <path d="m285.91 379.87c0.0125-0.17375 0.015-0.3025 0.015-0.3025 0.015-0.32375 0.03-0.66125 0.0588-0.90125 0.0562-0.55125 0.2675-1.4062 0.2675-1.4062 0.1225-0.51875 0.2875-0.9125 0.4325-1.1875 0.1075-0.2025 0.2-0.33875 0.255-0.4125 0.45875-0.73875 1.2138-1.2175 2.1838-1.2175 1.4538 0 2.6075 1.15 2.62 2.58 0.015 0.42-0.0838 0.86625-0.33875 1.3288-0.53125 0.96375-0.7025 1.1512-0.72875 1.1938-0.3675 0.5875-0.545 0.85625-0.65625 1.0612-0.0687 0.1275-0.1 0.2125-0.205 0.54l-0.0175 0.0563 0.0575-0.0125c1.0062-0.20875 3.1638-0.0475 3.7138 1.9538 0.0425 0.14375 0.0962 0.3875 0.1325 0.6425l7e-3 0.1175c0.0825 0.62375 0.0162 1.5988-0.3625 2.6425-0.04 0.0863-0.20375 0.44-0.3975 0.79125-0.17875 0.32-0.46 0.79-0.77875 1.0875-1e-3 1e-3 -0.1225 0.1525-0.37375 0.3675-0.255 0.22-0.63 0.49375-1.1088 0.7075-2.2538 1.0175-5.4512 0.30125-6.315-2.3275-0.41875-1.075-0.4275-2.075-0.33375-2.8 0.08-0.6125 0.235-1.0462 0.295-1.1988 0.0863-0.27875 0.24-0.57875 0.34125-0.7675 0.12375-0.22875 0.24-0.415 0.24-0.415 0.27125-0.415 0.50625-0.73625 0.68-1.0075 0.15875-0.24625 0.2125-0.3725 0.235-0.47 0.0425-0.1875 0.0675-0.445 0.0813-0.64375" fill="#231f1f"/>
  <path d="m262.38 388.35c-0.12125 0-0.81875 1.6962-0.81875 1.6962s1.1525 1.0925 1.2138 1.2138c0.06 0.12125 1.3625-1.4875 1.3625-1.79 0-0.30125-1.6362-1.12-1.7575-1.12" fill="#231f1f" fill-rule="evenodd"/>
  <path d="m305.84 397.63c-1.56 1.6738-4.085 1.5612-5.655 0.0987-1.0675-0.99625-1.1962-2.435-0.14-3.5675 0.17875-0.1925 0.4575-0.42 0.80375-0.54125 0.0937-0.0325 0.19875-0.0588 0.31-0.0725l0.0375-5e-3 -7e-3 -0.0362c-0.21625-1.0125 0.4425-2.1275 0.83-2.5425 1.5625-1.675 4.095-1.5525 5.655-0.0987 1.0788 1.0062 1.1938 2.4375 0.14 3.5675-0.17875 0.1925-0.4575 0.42-0.80375 0.54125-0.0937 0.0325-0.1975 0.0575-0.3075 0.0725l-0.0362 4e-3 7e-3 0.0362c0.22 1.0162-0.44875 2.13-0.83375 2.5438" fill="#231f1f" fill-rule="evenodd"/>
  <path d="m305.23 397.07c0.51125-0.5475 0.975-1.715 0.32375-2.3212-0.42625-0.39875-0.84375-0.535-1.255-0.9175-0.34125-0.31875-0.3425-0.76375-0.08-1.0462 0.24875-0.26625 0.7425-0.5725 1.0675-0.27 0.445 0.415 0.48 1.1838 0.91625 1.5912 0.31625 0.295 0.7625 0.0225 1.0012-0.23375 0.72625-0.77875 0.66125-1.6875-0.1-2.3962-1.2662-1.1812-3.2712-1.2438-4.4838 0.0562-0.51125 0.5475-0.96625 1.7225-0.325 2.3212 0.43625 0.40625 1.0588 0.525 1.355 1.0325 0.23875 0.41125 0.1925 0.63125-0.0112 0.94-0.20625 0.3125-0.75 0.56375-1.075 0.26125-0.43625-0.4075-0.47125-1.1762-0.91625-1.59-0.31625-0.29625-0.7625-0.0238-1.0025 0.2325-0.725 0.77875-0.65125 1.695 0.10125 2.3975 1.2738 1.1888 3.2712 1.2425 4.4838-0.0575" fill="#ffe409" fill-rule="evenodd"/>
  <path d="m297.3 380.67c0.6075 0.14 1.2325 0.5525 1.5388 1.0425 0.70875 1.135-0.925 3.775-2.5712 3.14-1.2312-0.475-1.4625-1.785-1.0425-3.045 0.36875-1.1075 1.3575-1.3025 2.075-1.1375" fill="#231f1f" fill-rule="evenodd"/>
  <path d="m297.22 386.15c-0.23875 1.375-1.5812 3.7638-3.435 3.5875-0.96625-0.0925-3.1025-1.07-1.4362-3.4 0.25-0.35125 0.49125-0.60375 0.755-0.84375 0.22875-0.20875 0.49-0.4175 0.8275-0.71125 1.3012-1.13 3.8025-1.58 3.2888 1.3675" fill="#231f1f" fill-rule="evenodd"/>
  <path d="m296.11 382.11c-0.345 1.0325-0.0637 1.6625 0.4925 1.8775 0.6725 0.25875 1.7562-1.2725 1.4425-1.7738-0.3125-0.50125-1.5912-1.1362-1.935-0.10375" fill="#ffe409" fill-rule="evenodd"/>
  <path d="m299.37 393.38c-2.9725-0.5775-4.0575-3.0225-3.645-5.14 0.52375-2.6962 2.9138-3.6362 5.05-3.2212 1.1712 0.2575 2.7612 1.4712 2.3088 3.8038-0.075 0.38125-0.31875 0.86125-0.63125 1.23-0.07 0.0813-0.17 0.1875-0.295 0.29375l-0.34125 0.29 0.06 0.445 7e-3 0.06c0.0337 0.395-0.05 0.84625-0.24 1.1925-0.22125 0.4-0.38 0.64125-0.60875 0.80875-0.45625 0.33375-1.03 0.36125-1.665 0.2375" fill="#231f1f" fill-rule="evenodd"/>
  <path d="m300.6 385.82c-1.8012-0.35-3.6562 0.4275-4.0738 2.5762-0.335 1.7225 0.5175 3.6975 2.9975 4.18 1.0825 0.21125 1.1862-0.25 1.4-0.63625 0.2125-0.38625 0.23125-1.155-0.19875-1.2225-0.42875-0.0688-0.865 0.065-1.3212-0.0225-0.7-0.13625-1.4338-1.6312-0.66125-1.4812 0.43375 0.085 1.2212 0.55375 2.1912 0.7425 0.67125 0.13 1.2588-0.855 1.3438-1.29 0.35125-1.81-0.84125-2.6688-1.6775-2.8462" fill="#ffe409" fill-rule="evenodd"/>
  <path d="m299.19 387.1c-0.2825 0.425-0.215 1.2838 0.35875 1.3575 0.57375 0.0738 1.6388-0.52375 1.2125-1.185-0.405-0.62875-1.1425-0.81625-1.5712-0.1725" fill="#50318f" fill-rule="evenodd"/>
  <path d="m278.37 385.24c-0.0663-0.10375-0.275-0.53625-0.275-0.53625-0.28625-0.655-0.41625-1.37-0.39125-2.0762 0.10125-2.9062 2.4412-4.2862 4.75-4.205 1.26 0.0738 3.1188 1.0725 3.03 3.5825-0.0138 0.405-0.1875 0.945-0.45375 1.3812-0.065 0.1075-0.16125 0.2475-0.29 0.39125l-0.315 0.35125 0.1475 0.44875c0.0125 0.0375 0.0225 0.0713 0.0288 0.0987 0.1025 0.40375 0.09 0.88625-0.0513 1.2762-0.16125 0.45-0.28375 0.72625-0.495 0.9375-0.41 0.4125-0.9925 0.5375-1.68 0.51375-1.7912-0.0625-3.0875-0.83875-3.8475-1.9012 0 0-0.0913-0.15875-0.1575-0.2625" fill="#231f1f"/>
  <path d="m278.37 385.24c-0.0663-0.10375-0.275-0.53625-0.275-0.53625-0.28625-0.655-0.41625-1.37-0.39125-2.0762 0.10125-2.9062 2.4412-4.2862 4.75-4.205 1.26 0.0738 3.1188 1.0725 3.03 3.5825-0.0138 0.405-0.1875 0.945-0.45375 1.3812-0.065 0.1075-0.16125 0.2475-0.29 0.39125l-0.315 0.35125 0.1475 0.44875c0.0125 0.0375 0.0225 0.0713 0.0288 0.0987 0.1025 0.40375 0.09 0.88625-0.0513 1.2762-0.16125 0.45-0.28375 0.72625-0.495 0.9375-0.41 0.4125-0.9925 0.5375-1.68 0.51375-1.7912-0.0625-3.0875-0.83875-3.8475-1.9012 0 0-0.0913-0.15875-0.1575-0.2625z" fill="none" stroke="#231f1f" stroke-miterlimit="3.864" stroke-width=".10875"/>
  <path d="m273.45 386.53c-0.11875-0.0288-0.57-0.195-0.57-0.195-0.66125-0.27125-1.2512-0.69625-1.7238-1.2212-1.9462-2.1612-1.2212-4.7788 0.49625-6.325 0.9575-0.82125 2.9875-1.395 4.6675 0.4725 0.27125 0.30125 0.52125 0.81 0.63375 1.3088 0.0275 0.1225 0.0563 0.29 0.0625 0.48375l0.0175 0.47125 0.41875 0.22c0.035 0.0187 0.065 0.0362 0.0888 0.0512 0.35375 0.21875 0.68 0.575 0.85 0.9525 0.195 0.43625 0.3 0.72 0.295 1.0188-9e-3 0.5825-0.34125 1.0775-0.8525 1.5375-1.3312 1.1988-2.8025 1.5412-4.0888 1.3038 0 0-0.17625-0.05-0.295-0.0788" fill="#231f1f"/>
  <path d="m273.45 386.53c-0.11875-0.0288-0.57-0.195-0.57-0.195-0.66125-0.27125-1.2512-0.69625-1.7238-1.2212-1.9462-2.1612-1.2212-4.7788 0.49625-6.325 0.9575-0.82125 2.9875-1.395 4.6675 0.4725 0.27125 0.30125 0.52125 0.81 0.63375 1.3088 0.0275 0.1225 0.0563 0.29 0.0625 0.48375l0.0175 0.47125 0.41875 0.22c0.035 0.0187 0.065 0.0362 0.0888 0.0512 0.35375 0.21875 0.68 0.575 0.85 0.9525 0.195 0.43625 0.3 0.72 0.295 1.0188-9e-3 0.5825-0.34125 1.0775-0.8525 1.5375-1.3312 1.1988-2.8025 1.5412-4.0888 1.3038 0 0-0.17625-0.05-0.295-0.0788z" fill="none" stroke="#231f1f" stroke-miterlimit="3.864" stroke-width=".10875"/>
  <path d="m282.41 379.24c-1.97-0.0687-3.805 1.0675-3.8875 3.4162-0.065 1.8838 1.17 3.835 3.8812 3.93 1.1825 0.0413 1.2162-0.46625 1.3762-0.91125 0.16125-0.445 0.0525-1.2625-0.415-1.2625-0.46625 0-0.90625 0.215-1.405 0.1975-0.765-0.0263-1.795-1.4888-0.95-1.4588 0.475 0.0163 1.3875 0.38125 2.4488 0.41875 0.7325 0.025 1.1912-1.1188 1.2075-1.5938 0.07-1.9788-1.34-2.6888-2.2562-2.7362" fill="#ffe409" fill-rule="evenodd"/>
  <path d="m281.31 381.52c-0.17125 0.5125 0.56375 1.0338 1.115 1.0162s1.2112-0.235 1.1538-0.95125c-0.0975-1.2062-2.0025-0.86125-2.2688-0.065" fill="#50318f" fill-rule="evenodd"/>
  <path d="m270.91 391.69c-2.0212 0.97125-6.8175 1.695-8.9138-3.39-2.0562-4.9925 0.68-6.8675 2.4762-7.7825 1.7025-0.8675 4.5712-0.92375 5.5512 0.40125 0.32875 0.44625 0.35125 0.955 0.30625 1.3412s-0.17125 0.7725-0.28125 1.08l-0.42125 1.155 1.05 0.1325c0.0775 9e-3 0.15 0.0187 0.205 0.0275 0.3975 0.0663 0.9175 0.1575 1.4062 0.38125 0.51625 0.23625 1 0.61875 1.3388 1.245 1.4175 2.6175-0.9625 4.565-2.7175 5.4088" fill="#231f1f" fill-rule="evenodd"/>
  <path d="m257.94 390.63c0.14875 0.66 0.44625 1.335 0.75625 1.715 0.76 0.93125 1.3938 1.0788 2.08 0.84125 0.0238-0.025 0.105-0.105 0.1425-0.18875 0.08-0.175 0.14-0.42875 0.1925-0.76875 0.0563-0.36 0.0962-0.7325 0.155-1.0625 0.0437-0.2375 0.10625-0.52375 0.22375-0.79-0.61375 0.585-1.5088 0.97125-2.3925 0.81625-0.52875-0.0925-0.8975-0.30875-1.1575-0.5625m4.0862-0.9425c0.52125-0.3825 1.165-0.2875 1.7125 0.03 0.55 0.32 1.1325 0.91375 1.6838 1.4988 0.99 1.0512 0.59375 2.4175 0.185 3.2612-0.45125 0.93-1.1688 1.7825-1.6675 2.2362-0.23125 0.21125-0.6025 0.58375-1.0938 0.95125-0.5125 0.38375-1.1838 0.78625-1.9962 0.9975-1.7138 0.4475-3.8038-0.0162-6.05-2.4612-4.655-5.07-1.3712-9.3425 0.18-10.855 0.99875-0.97375 2.1875-1.0338 3.315-0.645 1.0562 0.365 2.0962 1.13 2.9938 1.8525 1.215 0.97875 1.2375 2.2238 0.7375 3.1338" fill="#231f1f" fill-rule="evenodd"/>
  <path d="m259.18 390.38c1.4362 0.2525 3.4188-1.7625 1.6275-3.2062-1.7925-1.4425-3.7362-2.6938-5.2425-1.225-1.505 1.4675-4.3238 5.2088-0.1875 9.7138 4.1362 4.5038 7.11 1.2238 7.9925 0.42 0.88375-0.8025 2.6238-3.1162 1.48-4.3288-1.1438-1.2138-1.9688-1.9575-2.5112-1.1938s-0.17375 3.0225-1.2525 3.3975-2.07 0.0225-3.005-1.1238c-0.935-1.1475-1.4938-3.7462-0.6-3.9712 0.8925-0.225 0.2625 1.265 1.6988 1.5175" fill="#ffe409" fill-rule="evenodd"/>
  <path d="m272.19 379.41c-1.465 1.3188-1.9962 3.4112-0.4225 5.1588 1.26 1.3988 3.505 1.945 5.52 0.13 0.88-0.7925 0.5525-1.18 0.35875-1.6112-0.19375-0.4325-0.84-0.945-1.1762-0.62-0.33625 0.32375-0.5025 0.78375-0.87375 1.1188-0.56875 0.51125-2.325 0.175-1.6962-0.39 0.3525-0.31875 1.2625-0.69 2.0525-1.4 0.54375-0.49125 0.08-1.6325-0.23875-1.985-1.325-1.4712-2.8312-1.0038-3.5238-0.40125" fill="#ffe409" fill-rule="evenodd"/>
  <path d="m272.38 381.89c0.2175 0.5025 1.175 0.3025 1.61-0.14125 0.43375-0.445 0.8175-1.1175 0.27375-1.5875-0.9175-0.79125-2.2212 0.9475-1.8838 1.7288" fill="#50318f" fill-rule="evenodd"/>
  <path d="m294.4 385.43c1.2588-1.0938 2.1362-0.77875 1.9038 0.5525-0.23125 1.3312-1.4 2.915-2.425 2.8175-0.76875-0.0738-1.745-0.55875-0.7675-1.9262 0.4125-0.57625 0.62625-0.8675 1.2888-1.4438" fill="#ffe409" fill-rule="evenodd"/>
  <path d="m285.18 383.47c0.1025-0.37 0.49-0.9975 0.49-0.9975 0.5475-0.83375 0.91875-1.2575 1.0338-1.7588 0.1275-0.55625 0.1025-0.80125 0.1025-0.80125 0.0188-0.37875 0.0325-0.8375 0.0688-1.1388 0.0475-0.49875 0.24625-1.2962 0.24625-1.2962 0.21125-0.895 0.55625-1.3062 0.55625-1.3062 0.305-0.5175 0.78875-0.83 1.4438-0.83 0.9675 0 1.7188 0.76 1.7188 1.7012 0.0125 0.2475-0.0412 0.53625-0.22625 0.8725-0.5075 0.91875-0.67 1.0975-0.69625 1.1375-0.77875 1.2475-0.74375 1.1388-0.9675 1.8338-0.095 0.26125-0.15625 0.48875-0.10625 0.71375 0.0838 0.3825 0.40375 0.53125 0.6475 0.545 0.0962 6e-3 0.225-0.01 0.37-0.0425 0.0475-0.01 0.0987-0.0225 0.1525-0.0288 0.85125-0.1925 2.335 0.0137 2.6862 1.3162 0.0337 0.1125 0.075 0.275 0.10375 0.48l6e-3 0.1225c0.0675 0.47125 0.0387 1.2775-0.29875 2.21-0.0688 0.15-0.5525 1.1838-0.95875 1.5638l-0.0263 0.0238s-0.13 0.15625-0.32 0.32c-0.20625 0.1775-0.50875 0.39625-0.88875 0.56625-1.9425 0.87875-4.4662 0.17125-5.1-1.8088-0.72125-1.8188-0.0375-3.3975-0.0375-3.3975" fill="#ffe409"/>
  <path d="m290.78 385.93c-0.52375 0.545-1.6912 1.1338-2.4562 0.40125-0.76625-0.7325-0.85375-2.4212-0.045-2.5988 0.8075-0.17875 4.0638 0.57125 2.5012 2.1975" fill="#50318f" fill-rule="evenodd"/>
  <path d="m264.86 381.27c-1.5912 0.81125-3.895 2.2912-2.0762 6.7038 1.8175 4.4112 5.9275 3.8312 7.7625 2.95 1.7562-0.845 3.3462-2.3812 2.34-4.2412-0.9575-1.7675-3.42-0.70625-3.9825-2.1338-0.24625-0.625 1.035-2.3262 0.44125-3.1288-0.59375-0.80375-2.8938-0.96125-4.485-0.15" fill="#ffe409" fill-rule="evenodd"/>
  <path d="m266.59 385.18c0.67-0.77125 0.5175-2.37-0.315-2.5862-1.1925-0.31-2.0825 1.3725-1.755 1.9225 0.3275 0.54875 1.4 1.435 2.07 0.66375" fill="#50318f" fill-rule="evenodd"/>
  <path d="m269.65 388.21c-0.24125 0.6675-1.0175 1.6162-1.9512 1.2812-0.935-0.335-1.655-1.7488-1.0312-2.21 0.625-0.46125 3.7012-1.06 2.9825 0.92875" fill="#50318f" fill-rule="evenodd"/>
  <path d="m275.2 395.75v0.995h0.67995c0.0225-1e-3 0.0537-2e-3 0.09-5e-3 0.0713-8e-3 0.1625-0.02 0.2525-0.05 0.0813-0.0275 0.16-0.0688 0.22125-0.12875 0.0225-0.0238 0.0425-0.0475 0.0575-0.0725 0.0512-0.08 0.0638-0.16125 0.0663-0.20625 1e-3 -0.02 1e-3 -0.0325 1e-3 -0.0325v-0.0238c-1e-3 -0.02-2e-3 -0.0563-0.0137-0.0962-0.0113-0.0475-0.0338-0.1025-0.075-0.1525-7e-3 -0.01-0.0162-0.0187-0.025-0.0275-0.0175-0.0188-0.0375-0.035-0.0575-0.0512-0.0362-0.0263-0.0763-0.0488-0.12-0.0675-0.0587-0.025-0.12375-0.0438-0.195-0.0563-0.0362-7e-3 -0.075-0.0125-0.115-0.0163-0.0238-2e-3 -0.0487-5e-3 -0.0738-6e-3 -0.0225-1e-3 -0.0462-2e-3 -0.0687-2e-3h-0.625" fill="#fff"/>
  <path d="m275.2 394.23v0.94375h0.3125s0.0213 0 0.0487-1e-3c0.0225 0 0.0475-1e-3 0.0713-2e-3 0.0637-5e-3 0.1525-0.0138 0.2425-0.0387 0.0175-5e-3 0.035-0.01 0.0512-0.0163 0.07-0.025 0.1375-0.0612 0.18875-0.1125 0.0425-0.0412 0.0688-0.0863 0.0875-0.13 0.0225-0.0537 0.03-0.10625 0.0325-0.1425 4e-3 -0.0325 4e-3 -0.0537 4e-3 -0.0537s0-0.015-1e-3 -0.04c-2e-3 -0.0412-0.0112-0.1075-0.0425-0.1725-0.0163-0.03-0.0375-0.06-0.0663-0.0888-0.0362-0.035-0.0788-0.0612-0.12375-0.0825-0.0888-0.0375-0.19-0.0537-0.275-0.06-0.0362-1e-3 -0.07-2e-3 -0.0987-2e-3h-0.43125z" fill="#fff"/>
  <path d="m273.13 392.95h5.3838v5.0662h-5.3838zm1.4112 0.71125v3.6488h1.3738s0.67 0.0188 1.04-0.35125c0.30125-0.30125 0.28-0.65 0.28-0.65s0.0213-0.36375-0.2575-0.6425c-0.2375-0.23625-0.54125-0.3-0.54125-0.3s0.1375-0.065 0.2425-0.17c0.0487-0.0487 0.225-0.2075 0.225-0.59125 0-0.3875-0.2575-0.61-0.2575-0.61s-0.2825-0.33375-0.92-0.33375h-1.185z" fill="#fff"/>
 </g>
 <g transform="matrix(3.1829 0 0 3.1829 2013.5 -786.23)">
  <polygon transform="matrix(10.881 0 0 11.109 -668.88 296.63)" points="6.44 10.188 6.44 9.437 3.335 9.437 3.335 15.254 4.171 15.254 4.171 12.551 6.44 12.551 6.44 11.8 4.171 11.8 4.171 10.188" fill="#fff"/>
  <path d="m-590.1 433.78c0 17.531 13.079 33.162 33.775 33.162 21.446 0 34.253-15.72 34.253-33.162 0-17.986-13.177-33.151-34.068-33.151-20.511-0.0111-33.96 15.242-33.96 33.151m9.3685 0c0-14.198 10.489-24.63 24.591-24.63 14.211 0 24.689 10.421 24.689 24.63 0 14.12-10.478 24.652-24.689 24.652-14.102-0.0111-24.591-10.532-24.591-24.652" fill="#fff"/>
  <path d="m-459.64 401.47h-9.1074v37.628c0 6.0547-0.72903 10.81-3.9824 14.12-2.8835 2.944-7.8887 5.2214-14.853 5.2214-5.4623 0-10.032-1.8108-13.645-5.4992-2.8835-2.944-3.8084-5.9769-3.8084-13.276v-38.194h-9.0965v40.183c0 17.62 12.992 25.285 26.376 25.285 18.824 0 28.116-10.421 28.116-26.241v-39.228" fill="#fff"/>
  <path d="m-446.97 401.46v64.635h9.1074v-28.051h3.8084c4.6353 0 8.4328 1.5331 16.789 14.787l8.3566 13.265h10.859c-4.3524-6.1546-5.941-8.3432-8.6286-12.787-4.8203-8.0655-8.3566-14.031-14.102-17.908 6.768-2.744 10.576-8.3432 10.576-15.82 0-11.198-7.9867-18.12-20.783-18.12h-15.984m9.0965 7.9655h5.8322c8.8354 0 12.361 3.6994 12.448 9.7652 0.0979 5.3881-2.6985 10.51-12.448 10.51h-5.8322v-20.275" fill="#fff"/>
  <path d="m-470.84 352.46c-0.18497-0.0222-0.33731-0.0555-0.52228-0.0889l-0.19586-0.0222c-0.29379-0.0444-0.58758-0.0889-0.87048-0.1111-0.19586-0.0111-0.39172-0.0222-0.58758-0.0444-0.35907-0.0111-0.69638-0.0222-1.0446-0.0222h-0.39172c-0.2829 0.0111-0.56581 0.0222-0.83782 0.0333-0.15235 0.0111-0.2938 0.0222-0.45701 0.0444-0.2285 0.0111-0.43524 0.0444-0.65286 0.0778l-0.19586 0.0222-0.19586 0.0333-0.25027 0.0444c-0.10881 0.0222-0.21762 0.0333-0.31554 0.0556-0.15234 0.0333-0.28291 0.0555-0.44613 0.0889-0.89224 0.18886-1.6974 0.44438-2.47 0.74433-0.39172 0.15553-0.76167 0.31106-1.1316 0.51104-0.29378 0.14442-0.57669 0.28885-0.84871 0.4666-0.27203 0.15553-0.53317 0.29996-0.77255 0.47771-0.14146 0.1-0.28291 0.19997-0.41348 0.28885-0.11969 0.1-0.2285 0.17775-0.33731 0.25552-0.23938 0.18886-0.46789 0.37772-0.68551 0.56658-0.20673 0.19997-0.39171 0.37772-0.58757 0.55547-0.15233 0.16664-0.29379 0.32218-0.44612 0.49993-0.16322 0.17775-0.30467 0.33328-0.44612 0.52214-0.16322 0.19997-0.30467 0.38883-0.44612 0.61102-0.10881 0.15553-0.2285 0.31106-0.32643 0.4666-0.0762 0.1111-0.14146 0.22219-0.20674 0.33328-0.38084 0.65546-0.72903 1.3442-1.0119 2.0886-0.3482 0.9332-0.60934 1.933-0.75079 2.9996-0.0435 0.32217-0.0653 0.67768-0.0871 1.0221-0.0218 0.25552-0.0218 0.54436-0.0218 0.81099v0.61102c0.0218 0.21108 0.0435 0.41105 0.0653 0.62213l0.0218 0.15553c0.0218 0.2333 0.0653 0.47771 0.10881 0.6999 0 0.1 0.0327 0.19997 0.0544 0.27774 0.0435 0.19997 0.0871 0.38883 0.13058 0.5888 0.0653 0.24441 0.14144 0.48882 0.22849 0.72212 0.0979 0.27774 0.19587 0.57769 0.31556 0.84432 0.1741 0.44438 0.35907 0.86654 0.57669 1.2665 0.14146 0.2333 0.25027 0.45549 0.4026 0.68879 0.10881 0.16664 0.21762 0.33328 0.31555 0.49993 0.15233 0.22219 0.29379 0.43327 0.44612 0.62213 0.1741 0.21108 0.32643 0.41105 0.47877 0.59991 0.20673 0.2333 0.40259 0.44438 0.60933 0.65546l0.10881 0.1c0.16322 0.16664 0.31555 0.33328 0.53317 0.51104 0.14145 0.11109 0.27203 0.24441 0.43524 0.36661 0.14145 0.1111 0.28291 0.22219 0.44612 0.34439 0.18498 0.13331 0.39172 0.26663 0.59846 0.41105 0.2285 0.15553 0.457 0.28885 0.71814 0.43327 0.48965 0.28885 1.0337 0.56658 1.6213 0.79988 0.2285 0.0889 0.46788 0.18886 0.69638 0.26663 0.22851 0.0778 0.48965 0.15553 0.73991 0.2333 0.42436 0.14442 0.87048 0.24441 1.3601 0.33328 0.38083 0.0778 0.78343 0.13331 1.1751 0.18886 0.41348 0.0555 0.83784 0.1 1.284 0.1222 0.21762 0.0111 0.42436 0.0222 0.64198 0.0222h0.30466c0.79431 0 1.5233-0.0222 2.198-0.0889l0.13058-0.0222c0.27203-0.0111 0.53317-0.0444 0.78343-0.0778 0.38084-0.0555 0.73991-0.11109 1.1099-0.16664 0.2285-0.0444 0.42436-0.0889 0.64198-0.13331 0.31554-0.0889 0.63109-0.16664 0.92488-0.2333 0.2285-0.0555 0.42436-0.1111 0.6311-0.17775 0.2285-0.0778 0.46788-0.16664 0.6855-0.2333l0.21762-0.0778c0.13057-0.0444 0.26114-0.1 0.42436-0.16664 0.2285-0.0889 0.50053-0.21108 0.81607-0.33328 0.18498-0.0778 0.38084-0.16664 0.5767-0.26663 0.18497-0.0889 0.38083-0.17775 0.58757-0.26663 0.0653-0.0444 0.16322-0.0778 0.23938-0.1222v-4.9326c-0.0653 0.0333-0.11969 0.0667-0.18497 0.11109l-0.31555 0.21108c-0.32643 0.21108-0.66374 0.37772-0.96841 0.57769-0.34819 0.18886-0.6855 0.36661-1.0337 0.53326-0.59846 0.28885-1.1534 0.52214-1.7192 0.72212-1.0446 0.37772-2.0021 0.62213-2.8508 0.76655-0.10881 0.0222-0.20673 0.0444-0.29378 0.0555-0.23938 0.0333-0.457 0.0778-0.68551 0.1-0.33731 0.0444-0.65285 0.0555-0.92488 0.0778h-0.51141c-0.32643 0-0.6855 0-1.0446-0.0333-0.42436-0.0333-0.84872-0.0889-1.284-0.15553-0.69638-0.1222-1.3819-0.28885-2.0783-0.55547-0.0979-0.0333-0.19587-0.0778-0.28291-0.1222-0.0762-0.0222-0.14145-0.0555-0.20674-0.0778-0.11969-0.0555-0.2285-0.1-0.33731-0.16664-0.2285-0.11109-0.46788-0.2333-0.6855-0.3555-0.10881-0.0667-0.2285-0.14442-0.32643-0.21108-0.11969-0.0778-0.2285-0.15553-0.33731-0.2333-0.15233-0.1111-0.28291-0.21108-0.42436-0.31106-0.13057-0.1-0.26114-0.22219-0.36995-0.31106l-0.1741-0.14442-0.087-0.0778-0.0435-0.0333-0.0544-0.0667c-0.2285-0.22219-0.42436-0.43327-0.60933-0.66657-0.087-0.1222-0.19586-0.24441-0.27203-0.37772-0.0979-0.1111-0.17409-0.2333-0.25026-0.3555-0.0653-0.1222-0.14145-0.2333-0.20674-0.34439-0.10881-0.17775-0.20674-0.34439-0.26114-0.51104-0.0871-0.16664-0.15234-0.29996-0.21762-0.44438-0.0979-0.24441-0.19586-0.48882-0.25027-0.73322-0.0653-0.17775-0.11969-0.36661-0.16321-0.54436-0.13057-0.51104-0.20674-0.97763-0.2285-1.3776-0.0218-0.14442-0.0218-0.29996-0.0218-0.42216-0.0218-0.19997-0.0218-0.37772-0.0218-0.51104v-0.31106c0.0218-0.26663 0.0435-0.63324 0.10881-1.0332 0.0326-0.24441 0.0762-0.51104 0.14146-0.78877 0.0435-0.17775 0.0979-0.3555 0.16321-0.56658 0.0435-0.16664 0.10881-0.34439 0.1741-0.53325 0.0435-0.1111 0.0979-0.2333 0.15233-0.3555 0.0653-0.16664 0.15234-0.32218 0.2285-0.49993 0.0653-0.13331 0.14146-0.24441 0.20674-0.37772 0.16322-0.26663 0.33731-0.56658 0.54405-0.83321 0.0871-0.1 0.15234-0.19997 0.2285-0.28885 0.0979-0.1222 0.21762-0.25552 0.31555-0.37772 0.0653-0.0667 0.11969-0.1222 0.1741-0.18886 0.88136-0.89987 1.8715-1.5775 2.8943-2.0553 0.1741-0.0778 0.32643-0.14442 0.48965-0.21108 0.17409-0.0667 0.32643-0.1222 0.48964-0.18886 0.18498-0.0667 0.35908-0.1222 0.53317-0.16664 0.1741-0.0555 0.35907-0.1 0.51141-0.13331 0.17409-0.0333 0.33731-0.0778 0.52229-0.1111 0.18497-0.0444 0.36995-0.0667 0.55493-0.0889 0.18497-0.0333 0.35907-0.0556 0.54405-0.0667 0.35907-0.0333 0.69638-0.0444 1.0446-0.0444h0.33731c0.23939 0.0111 0.48965 0.0111 0.71815 0.0333 0.1741 0.0111 0.31555 0.0111 0.47876 0.0333 0.30467 0.0333 0.60934 0.0667 0.87048 0.1222 0.23939 0.0333 0.48965 0.0778 0.70727 0.1222 0.33731 0.0778 0.67462 0.15553 0.93576 0.22219 0.20674 0.0555 0.35908 0.1222 0.51141 0.16664 0.2285 0.0667 0.44612 0.13331 0.59846 0.17775 0.25026 0.1 0.41347 0.15553 0.41347 0.15553 0.23939 0.1 0.46789 0.18886 0.68551 0.27774 0.30466 0.1222 0.59845 0.24441 0.87048 0.38883 0.23938 0.1 0.46788 0.22219 0.67462 0.31106 0.17409 0.0889 0.32643 0.17775 0.47876 0.24441 0.27203 0.14442 0.48965 0.26663 0.68551 0.36661l0.48964 0.26663v-4.7993s-0.29379-0.1222-0.80519-0.32217c-0.2285-0.0778-0.48965-0.18886-0.79432-0.27774-0.16322-0.0778-0.33732-0.14442-0.54406-0.21108-0.13057-0.0444-0.29378-0.1-0.44612-0.15553-0.19585-0.0667-0.36995-0.1222-0.57669-0.17775-0.13057-0.0556-0.26114-0.1-0.42436-0.14442l-0.10881-0.0333c-0.15233-0.0444-0.29379-0.0889-0.44612-0.1222-0.1741-0.0555-0.33731-0.1-0.51141-0.14442-0.11969-0.0222-0.2285-0.0667-0.33731-0.0889-0.19586-0.0444-0.38083-0.0889-0.57669-0.13331-0.21762-0.0111-0.4026-0.0556-0.60934-0.0889m-23.601-5.0104h37.442v35.984h-37.442z" fill="#fff"/>
  <path d="m-523.23 367.29v7.0878h4.4938s0.087 0 0.23938-0.0111c0.15234 0 0.36996-0.0111 0.62022-0.0333 0.48965-0.0444 1.1425-0.15553 1.7627-0.3555 0.56581-0.21108 1.1099-0.48882 1.5342-0.91098 0.16321-0.16664 0.29379-0.34439 0.4026-0.51104 0.34819-0.56658 0.43524-1.1554 0.457-1.4776 0.0109-0.14442 0.0109-0.2333 0.0109-0.2333v-0.16664c0-0.14442-0.0218-0.39994-0.0979-0.68879-0.087-0.32217-0.2285-0.711-0.52228-1.0776-0.0544-0.0667-0.1197-0.13331-0.18498-0.21108-0.11969-0.13331-0.23938-0.24441-0.4026-0.34439-0.23938-0.19997-0.52229-0.3555-0.82695-0.48882-0.41348-0.17775-0.8596-0.31106-1.3601-0.39994-0.25026-0.0555-0.52229-0.0889-0.79431-0.1222-0.1741-0.0111-0.33731-0.0333-0.52229-0.0444-0.14145 0-0.30467-0.0111-0.457-0.0111h-4.3524" fill="#fff"/>
  <path d="m-523.23 356.55v6.7101h2.1762s0.14146 0 0.33731-0.0111c0.15234 0 0.32643-0.0111 0.48964-0.0222 0.44613-0.0333 1.0663-0.1 1.6866-0.26663 0.11969-0.0444 0.23938-0.0778 0.35907-0.1222 0.48965-0.17775 0.95753-0.43327 1.3166-0.79988 0.29379-0.27774 0.47877-0.61102 0.60934-0.92208 0.15233-0.38883 0.20674-0.74433 0.2285-1.011 0.0109-0.2333 0.0109-0.37772 0.0109-0.37772s0.0109-0.1111 0-0.27774c-0.0109-0.28885-0.0653-0.76655-0.29379-1.222-0.10881-0.22219-0.26114-0.43327-0.46788-0.63324-0.23937-0.25552-0.54405-0.44438-0.8596-0.59991-0.60933-0.25552-1.3166-0.36661-1.9042-0.42216-0.26115-0.0222-0.48965-0.0222-0.6855-0.0222h-3.0032" fill="#fff"/>
  <path d="m-527.77 352.5v25.907h9.5535s4.6462 0.14442 7.2467-2.4885c2.0783-2.1441 1.9368-4.6104 1.9368-4.6104s0.15233-2.5885-1.7845-4.566c-1.6539-1.6886-3.7648-2.133-3.7648-2.133s0.95753-0.4666 1.6757-1.2109c0.34819-0.33328 1.556-1.4776 1.556-4.1994 0-2.7551-1.7845-4.3327-1.7845-4.3327s-1.9695-2.3663-6.3871-2.3663h-8.2478m-9.8255-5.0548h37.452v35.984h-37.452z" fill="#fff"/>
  <path d="m-566.39 367.29v7.0878h4.4938s0.0979 0 0.23938-0.0111c0.15234 0 0.36996-0.0111 0.6311-0.0333 0.48965-0.0444 1.1207-0.15553 1.7518-0.3555 0.56581-0.21108 1.1208-0.48882 1.5342-0.91098 0.16322-0.16664 0.29379-0.34439 0.4026-0.51104 0.34819-0.56658 0.44612-1.1554 0.457-1.4776 0.0109-0.14442 0.0109-0.2333 0.0109-0.2333s0.0109-0.0667 0-0.17775c0-0.14442-0.0218-0.39994-0.087-0.68879-0.087-0.32218-0.25027-0.71101-0.52229-1.0776-0.0653-0.0667-0.11969-0.13331-0.1741-0.21108-0.13057-0.13331-0.26114-0.24441-0.4026-0.34439-0.25026-0.19997-0.53316-0.3555-0.83783-0.48882-0.4026-0.17775-0.8596-0.31106-1.3601-0.39994-0.25026-0.0333-0.50052-0.0667-0.79431-0.1-0.16321-0.0111-0.33731-0.0333-0.52229-0.0444-0.15233-0.0111-0.31555-0.0222-0.46788-0.0222h-4.3524" fill="#fff"/>
  <path d="m-566.39 356.55v6.7101h2.1762s0.14145 0 0.33731-0.0111c0.15233 0 0.32643-0.0111 0.48965-0.0222 0.44612-0.0333 1.0663-0.1 1.6974-0.26663 0.13057-0.0444 0.23938-0.0778 0.36996-0.1222 0.47876-0.17775 0.94664-0.43327 1.3057-0.79988 0.29379-0.27774 0.47877-0.61102 0.60934-0.92208 0.15233-0.38883 0.20674-0.74433 0.2285-1.011 0.0218-0.2333 0.0218-0.37772 0.0218-0.37772s0-0.1111-0.0109-0.27774c-0.0109-0.28885-0.0762-0.76655-0.29378-1.222-0.10881-0.22219-0.26115-0.43327-0.46789-0.63324-0.25026-0.26663-0.54405-0.45549-0.8596-0.59991-0.62021-0.26663-1.3166-0.37772-1.915-0.42216-0.25026-0.0222-0.48965-0.0222-0.6855-0.0222h-3.0032" fill="#fff"/>
  <path d="m-570.94 352.5v25.907h9.5644s4.6571 0.14442 7.225-2.4885c2.1-2.1441 1.9477-4.6104 1.9477-4.6104s0.15234-2.5885-1.7845-4.566c-1.6539-1.6886-3.7648-2.133-3.7648-2.133s0.94665-0.4666 1.6866-1.2109c0.33731-0.33328 1.556-1.4776 1.556-4.1994 0-2.7551-1.7845-4.3327-1.7845-4.3327s-1.9695-2.3663-6.398-2.3663h-8.2478m-9.8255-5.0548h37.452v35.984h-37.452z" fill="#fff"/>
  <path d="m-408.49 372.41 3.6792-3.397-0.023 25.656-3.6561-3.8692v-7.2777h-14.429v11.176l-3.6734-3.8634v-18.413l3.6734-3.4086v11.101h14.429v-7.7038z" fill="#fff"/>
  <path d="m-404.83 394.66 3.6792-3.2761h4.6752c1.8367 0 3.2646-0.12091 4.2837-0.35698 1.0249-0.2591 1.8655-0.57577 2.5449-0.95578 0.68516-0.39728 1.3012-0.88093 1.8712-1.4394 1.8137-1.8367 2.7176-4.1628 2.7176-6.9726 0-2.7579-0.93275-5.0034-2.7925-6.7365-0.68517-0.65062-1.474-1.1918-2.3722-1.6064-0.88093-0.42031-1.7216-0.69092-2.5219-0.82335-0.7888-0.13243-2.067-0.20152-3.8404-0.20152h-4.5889l-3.6446-3.2761h8.625c3.4892 0 6.2586 0.52971 8.2853 1.5776 2.0382 1.0479 3.6561 2.5852 4.8595 4.6234 1.1918 2.0325 1.8022 4.2492 1.8022 6.6559 0 1.71-0.33971 3.351-0.99608 4.9228-0.6679 1.5661-1.6122 2.9479-2.8328 4.1398-1.2437 1.2264-2.7004 2.1476-4.3528 2.7694-0.96729 0.38001-1.8655 0.6391-2.6658 0.77153-0.80607 0.12667-2.3549 0.18425-4.6407 0.18425h-8.0953 8.0953c2.2858 0 3.8346-0.0576 4.6407-0.18425 0.80032-0.13243 1.6985-0.39152 2.6658-0.77153 1.6525-0.62183 3.1092-1.5431 4.3528-2.7694 1.2206-1.1918 2.1649-2.5737 2.8328-4.1398 0.65637-1.5718 0.99608-3.2128 0.99608-4.9228 0-2.4067-0.61032-4.6234-1.8022-6.6559-1.2034-2.0382-2.8213-3.5755-4.8595-4.6234-2.0267-1.0479-4.7962-1.5776-8.2853-1.5776h-8.625l3.6446 3.2761h4.5889c1.7734 0 3.0516 0.0691 3.8404 0.20152 0.80032 0.13243 1.6409 0.40304 2.5219 0.82335 0.8982 0.41455 1.687 0.95578 2.3722 1.6064 1.8597 1.7331 2.7925 3.9786 2.7925 6.7365 0 2.8098-0.90396 5.1359-2.7176 6.9726-0.57001 0.5585-1.1861 1.0421-1.8712 1.4394-0.6794 0.38001-1.52 0.69668-2.5449 0.95578-1.0191 0.23606-2.447 0.35698-4.2837 0.35698h-4.6752z" fill="#fff"/>
  <path d="m-404.83 394.66 3.6792-3.2761h4.6752c1.8367 0 3.2646-0.12091 4.2837-0.35698 1.0249-0.2591 1.8655-0.57577 2.5449-0.95578 0.68516-0.39728 1.3012-0.88093 1.8712-1.4394 1.8137-1.8367 2.7176-4.1628 2.7176-6.9726 0-2.7579-0.93275-5.0034-2.7925-6.7365-0.68517-0.65062-1.474-1.1918-2.3722-1.6064-0.88093-0.42031-1.7216-0.69092-2.5219-0.82335-0.7888-0.13243-2.067-0.20152-3.8404-0.20152h-4.5889l-3.6446-3.2761h8.625c3.4892 0 6.2586 0.52971 8.2853 1.5776 2.0382 1.0479 3.6561 2.5852 4.8595 4.6234 1.1918 2.0325 1.8022 4.2492 1.8022 6.6559 0 1.71-0.33971 3.351-0.99608 4.9228-0.6679 1.5661-1.6122 2.9479-2.8328 4.1398-1.2437 1.2264-2.7004 2.1476-4.3528 2.7694-0.96729 0.38001-1.8655 0.6391-2.6658 0.77153-0.80607 0.12667-2.3549 0.18425-4.6407 0.18425h-8.0953z" fill="#fff"/>
  <path d="m-401.15 372.31-3.6734-3.2992v25.645l3.6734-3.2761v-19.07z" fill="#838181"/>
  <path d="m-422.92 383.52-0.0115 11.158 3.6792-3.3107-0.0115-7.8477h-3.6561z" fill="#838181"/>
  <path d="m-419.17 380.11-0.0691-7.6923-3.6792-3.4086v11.101h3.7483z" fill="#838181"/>
 </g>
</svg>
