<svg width="800" height="516.67" version="1.1" viewBox="0 0 750.01 484.37" xmlns="http://www.w3.org/2000/svg">
 <g transform="matrix(.53801 0 0 .53801 -2.6892e-5 -.0065051)" fill="#7831eb">
  <path d="m302.94 597.54h134.89v36.201h-91.342v49.766h80.603v36.205h-80.603v80.027h-43.55v-202.2zm250.57-4.2473c15.266 0 29.076 2.4565 41.43 7.3548 12.355 4.8986 22.908 11.923 31.671 21.064 8.7629 9.1415 15.514 20.183 20.222 33.088 4.7063 12.905 7.0767 27.481 7.0767 43.695 0 16.032-2.3603 30.546-7.0767 43.556-4.7172 13.01-11.449 24.139-20.222 33.371-8.7724 9.232-19.321 16.309-31.671 21.208-12.35 4.8991-26.164 7.3548-41.43 7.3548s-29.09-2.447-41.435-7.3504c-12.344-4.9033-22.908-11.976-31.676-21.208-8.7673-9.232-15.514-20.366-20.221-33.371-4.7072-13.005-7.0725-27.524-7.0725-43.556 0-16.213 2.351-30.77 7.0725-43.695 4.7214-12.924 11.448-23.942 20.221-33.088 8.7724-9.1459 19.321-16.161 31.676-21.064 12.355-4.9035 26.155-7.3599 41.435-7.3599zm0 172.79c11.492 0 21.39-2.6815 29.688-8.0545 8.2989-5.3726 14.609-13.053 18.953-23.052 4.3434-9.9988 6.5034-22.152 6.5034-36.484s-2.1692-26.485-6.5034-36.484c-4.3333-9.9988-10.654-17.626-18.953-22.909-8.2982-5.2815-18.196-7.9151-29.688-7.9151s-21.409 2.6433-29.703 7.9151c-8.293 5.2721-14.609 12.919-18.953 22.909-4.3434 9.9886-6.4975 22.156-6.4975 36.484s2.1642 26.499 6.4975 36.484c4.3334 9.9835 10.654 17.679 18.953 23.052 8.2989 5.3726 18.197 8.0545 29.703 8.0545zm212.1 37.895c-18.09 0-33.605-3.4381-46.519-10.319-12.915-6.881-22.812-16.827-29.693-29.832-6.8814-13.005-10.32-28.663-10.32-46.951v-119.34h43.547v124.14c0 14.332 3.7299 25.312 11.171 32.949 7.4416 7.6379 18.047 11.449 31.814 11.449s24.368-3.8164 31.815-11.449c7.4453-7.6328 11.171-18.617 11.171-32.949v-124.14h43.556v119.34c0 18.292-3.4382 33.941-10.32 46.951-6.8806 13.01-16.831 22.956-29.842 29.832-13.009 6.8762-28.462 10.319-46.381 10.319zm160.35-77.765v73.526h-42.986v-202.2h73.811c26.585 0 46.994 5.5547 61.226 16.679 14.231 11.124 21.357 27.06 21.357 47.794 0 13.393-3.1607 24.8-9.4669 34.223s-15.322 16.688-27.007 21.778l25.164 40.299 24.89 41.43h-50.054c-13.527-24.804-27.579-49.318-42.144-73.526h-34.783zm0-34.228h28.28c13.38 0 23.564-2.4038 30.541-7.2114 6.9769-4.8076 10.467-12.398 10.467-22.769s-3.4431-17.999-10.32-22.909c-6.8756-4.9082-17.012-7.3504-30.401-7.3504h-28.568v60.233z" stroke-width="4.7885"/>
  <path d="m475.02 423.58v115.95h115.95v-115.95zm80.858 81.829c-2.1449 2.9253-5.0852 5.1732-8.4703 6.4766-4.2126 1.6186-8.7016 2.3932-13.214 2.28h-25.984v-65.221h24.477c7.2125 0 12.8 1.4438 16.761 4.3312 3.9586 2.8791 6.1941 7.5642 5.9426 12.452 0.0754 2.8385-0.66886 5.6384-2.1298 8.0727-1.5305 2.3788-3.7172 4.2639-6.2955 5.4279 3.5052 1.0435 6.5931 3.1666 8.8234 6.0666 2.092 2.9356 3.1674 6.4754 3.061 10.079 0.0956 3.5749-0.94545 7.0879-2.9713 10.035zm-16.587-31.882c1.8289-1.5452 2.8288-3.8569 2.7039-6.2478 0-5.1686-3.517-7.7532-10.552-7.7546h-10.021v16.239h10.021c2.7961 0.19062 5.5713-0.60029 7.848-2.2366zm-6.1639 12.452h-11.705v17.606h11.529c3.2002 0.19873 6.386-0.58089 9.1335-2.2353 2.108-1.4455 3.3166-3.8792 3.1934-6.4316 0-5.9586-4.05-8.938-12.151-8.9394zm86.826-62.399v115.95h115.95v-115.95zm80.858 81.829c-2.1457 2.9253-5.0852 5.1732-8.4703 6.4766-4.2127 1.6185-8.703 2.3932-13.214 2.28h-25.986v-65.221h24.477c7.2133 0 12.8 1.4438 16.763 4.3312 3.9586 2.8791 6.194 7.5642 5.9418 12.452 0.0754 2.8385-0.66799 5.6384-2.129 8.0727-1.5313 2.3788-3.7181 4.2639-6.2963 5.4279 3.5061 1.0435 6.5939 3.1665 8.8234 6.0666 2.0929 2.9356 3.1683 6.4754 3.061 10.079 0.0956 3.5749-0.94457 7.0878-2.9704 10.035zm-16.586-31.882c1.8289-1.5449 2.8305-3.8568 2.7064-6.2478 0-5.1686-3.5186-7.7531-10.555-7.7546h-10.021v16.239h10.021c2.797 0.19063 5.5722-0.60029 7.8487-2.2366zm-6.1639 12.452h-11.706v17.606h11.529c3.2018 0.19873 6.3877-0.58089 9.1349-2.2353 2.1072-1.4455 3.3149-3.8792 3.1925-6.4316 0-5.9586-4.05-8.938-12.151-8.9394zm86.826 53.551h115.95v-115.95h-115.95zm83.273-29.497c-2.9588 1.5886-6.1169 2.7762-9.3896 3.5315-3.6795 0.87797-7.4504 1.313-11.233 1.2965-4.7918 0.0693-9.5596-0.70171-14.084-2.2801-3.9662-1.3911-7.5795-3.6344-10.586-6.5723-2.9554-2.9712-5.2193-6.5583-6.6291-10.505-1.5933-4.4904-2.3737-9.2291-2.3033-13.993-0.0672-4.6842 0.74511-9.3392 2.3947-13.724 1.5154-3.9604 3.8707-7.5452 6.9048-10.507 3.0929-2.9736 6.7791-5.2593 10.817-6.7069 4.5353-1.6051 9.3203-2.3918 14.13-2.3236 3.4541-0.019 6.8982 0.35625 10.266 1.1169 3.1163 0.70732 6.132 1.8039 8.9752 3.2637v12.697c-2.5245-1.6715-5.2863-2.9526-8.1931-3.7996-3.0216-0.8746-6.1522-1.3112-9.2984-1.2964-3.967-0.11593-7.902 0.74431-11.461 2.5032-3.1071 1.615-5.6442 4.1427-7.272 7.2429-1.7836 3.5763-2.6553 7.5387-2.5337 11.534-0.11571 3.9984 0.72082 7.9669 2.4407 11.578 1.5465 3.1077 4.0249 5.655 7.0884 7.2864 3.4926 1.7602 7.3687 2.6211 11.278 2.5046 6.6022 0.043 13.082-1.7871 18.688-5.2757z" stroke-width="1.4486"/>
  <g transform="matrix(.72967 0 0 .72967 220.13 423.51)" font-family="'BBC Reith Sans'" font-size="40px" font-weight="bold" stroke-width="2.7649">
   <path d="m601.18 653.45v-33.953h-34.395v33.953h-17.032v-79.077h17.032v30.304h34.395v-30.304h17.032v79.077z" style="white-space:pre"/>
   <path d="m635.27 574.38h30.193q12.497 0 21.345 4.6451 8.9582 4.6451 13.603 13.493 4.6451 8.7371 4.6451 21.235t-4.7557 21.456q-4.6451 8.8478-13.493 13.603-8.8478 4.6451-21.456 4.6451h-30.082zm29.198 64.477q11.06 0 16.921-6.4146 5.9722-6.5252 5.9722-18.691 0-12.055-5.8616-18.359-5.7509-6.4146-16.921-6.4146h-12.276v49.879z" style="white-space:pre"/>
  </g>
 </g>
 <g transform="matrix(12.314 0 0 12.314 -3108 -4610.8)">
  <path d="m311.72 386.2c-0.0863 0.0863-0.1825 0.16-0.28625 0.21875-0.10125 0.0575-0.235 0.1075-0.39625 0.14875-0.15 0.035-0.37625 0.0525-0.715 0.0525h-0.52375v-2.7838h0.505c0.35875 0 0.5625 0.025 0.65125 0.04 0.12125 0.0212 0.25375 0.065 0.39125 0.13h3e-3c0.13625 0.0637 0.25875 0.14625 0.3625 0.245l1e-3 1e-3c0.3125 0.29125 0.4275 0.54875 0.4275 0.95125 0 0.41-0.1175 0.69-0.42 0.99625m1.2325-2.28c-0.23875-0.40375-0.565-0.71375-0.97-0.92125-0.4175-0.21625-0.95625-0.32625-1.6025-0.32625h-1.5562c-0.32375 0-0.5775 0.0937-0.7525 0.27875-0.22375 0.235-0.22875 0.5325-0.2275 0.5925v1.0738h-1.2888v-1.0825c-1e-3 -9e-3 -0.015-0.23375-0.14125-0.435-0.0988-0.16-0.34-0.4275-0.85-0.4275-0.45125 0-0.695 0.23-0.82125 0.42375-0.12875 0.1975-0.15625 0.39375-0.15875 0.41625l-1e-3 9e-3v3.4l1e-3 0.0138c1e-3 0.0213 0.02 0.22125 0.1475 0.4225 0.1225 0.19375 0.3675 0.425 0.8325 0.425 0.495 0 0.7375-0.235 0.85375-0.43125 0.12375-0.2075 0.12875-0.4125 0.12875-0.435v-1.0788h1.2975l-1e-3 1.0825v7e-3c1e-3 9e-3 0.0213 0.22875 0.14625 0.42875 0.12125 0.19375 0.365 0.42625 0.835 0.42625h1.46c0.31375 0 0.60625-0.02 0.87-0.06h4e-3c0.0125-2e-3 0.0263-5e-3 0.04-8e-3 0.1425-0.0225 0.305-0.05 0.48625-0.12125 0.3275-0.12375 0.61875-0.30875 0.865-0.55125 0.2425-0.235 0.4325-0.51125 0.56375-0.8225s0.1975-0.64125 0.1975-0.98c0-0.47375-0.12-0.9175-0.3575-1.32"/>
  <path d="m305.55 385.53-1e-3 2.0012c0.74 0 0.74375-0.62875 0.74375-0.62875v-1.3725h-0.7425z" fill="#50318f"/>
  <path d="m306.3 384.9v-1.3738s-0.0288-0.62875-0.7525-0.62875v1.9988l0.7525 4e-3z" fill="#50318f"/>
  <path d="m308.07 383.53s-0.0325-0.62875 0.7425-0.62875v4.6325c-0.7 0-0.74375-0.62875-0.74375-0.62875l1e-3 -1.3162h-2.5175v1.945c-0.6925 0-0.74375-0.62875-0.74375-0.62875v-3.375s0.075-0.62875 0.74375-0.62875v1.9438h2.5175v-1.315z" fill="#ffe409"/>
  <path d="m308.81 387.53 0.74375-0.685h0.7625c0.33 0 0.5875-0.0162 0.77125-0.06 0.1825-0.0462 0.335-0.10375 0.45625-0.1725 0.12375-0.07 0.23625-0.15625 0.3375-0.2575 0.3275-0.33125 0.49-0.66 0.49-1.165 0-0.49625-0.1675-0.81125-0.5025-1.125-0.12375-0.1175-0.26625-0.2125-0.4275-0.2875-0.15875-0.075-0.31-0.125-0.45375-0.15-0.14375-0.0238-0.37375-0.0425-0.69125-0.0425h-0.7425l-0.74125-0.6875h1.5525c0.63 0 1.1275 0.11 1.4938 0.3 0.36625 0.1875 0.6575 0.46375 0.87375 0.83s0.325 0.76625 0.325 1.1988c0 0.30875-0.06 0.605-0.17875 0.8875-0.12 0.2825-0.29 0.53125-0.51 0.745-0.225 0.22125-0.4875 0.3875-0.785 0.5-0.17375 0.0688-0.33375 0.09-0.48 0.115-0.145 0.0213-0.42375 0.0575-0.83375 0.0575l-1.46-1e-3z" fill="#ffe409"/>
  <path d="m309.55 383.53c0-0.68625-0.74375-0.62875-0.74375-0.62875v4.6325s0.74375 0.0575 0.74375-0.62875z" fill="#50318f"/>
  <path d="m285.91 379.87c0.0125-0.17375 0.015-0.3025 0.015-0.3025 0.015-0.32375 0.03-0.66125 0.0588-0.90125 0.0562-0.55125 0.2675-1.4062 0.2675-1.4062 0.1225-0.51875 0.2875-0.9125 0.4325-1.1875 0.1075-0.2025 0.2-0.33875 0.255-0.4125 0.45875-0.73875 1.2138-1.2175 2.1838-1.2175 1.4538 0 2.6075 1.15 2.62 2.58 0.015 0.42-0.0838 0.86625-0.33875 1.3288-0.53125 0.96375-0.7025 1.1512-0.72875 1.1938-0.3675 0.5875-0.545 0.85625-0.65625 1.0612-0.0687 0.1275-0.1 0.2125-0.205 0.54l-0.0175 0.0563 0.0575-0.0125c1.0062-0.20875 3.1638-0.0475 3.7138 1.9538 0.0425 0.14375 0.0962 0.3875 0.1325 0.6425l7e-3 0.1175c0.0825 0.62375 0.0162 1.5988-0.3625 2.6425-0.04 0.0863-0.20375 0.44-0.3975 0.79125-0.17875 0.32-0.46 0.79-0.77875 1.0875-1e-3 1e-3 -0.1225 0.1525-0.37375 0.3675-0.255 0.22-0.63 0.49375-1.1088 0.7075-2.2538 1.0175-5.4512 0.30125-6.315-2.3275-0.41875-1.075-0.4275-2.075-0.33375-2.8 0.08-0.6125 0.235-1.0462 0.295-1.1988 0.0863-0.27875 0.24-0.57875 0.34125-0.7675 0.12375-0.22875 0.24-0.415 0.24-0.415 0.27125-0.415 0.50625-0.73625 0.68-1.0075 0.15875-0.24625 0.2125-0.3725 0.235-0.47 0.0425-0.1875 0.0675-0.445 0.0813-0.64375" fill="#231f1f"/>
  <path d="m262.38 388.35c-0.12125 0-0.81875 1.6962-0.81875 1.6962s1.1525 1.0925 1.2138 1.2138c0.06 0.12125 1.3625-1.4875 1.3625-1.79 0-0.30125-1.6362-1.12-1.7575-1.12" fill="#231f1f" fill-rule="evenodd"/>
  <path d="m305.84 397.63c-1.56 1.6738-4.085 1.5612-5.655 0.0987-1.0675-0.99625-1.1962-2.435-0.14-3.5675 0.17875-0.1925 0.4575-0.42 0.80375-0.54125 0.0937-0.0325 0.19875-0.0588 0.31-0.0725l0.0375-5e-3 -7e-3 -0.0362c-0.21625-1.0125 0.4425-2.1275 0.83-2.5425 1.5625-1.675 4.095-1.5525 5.655-0.0987 1.0788 1.0062 1.1938 2.4375 0.14 3.5675-0.17875 0.1925-0.4575 0.42-0.80375 0.54125-0.0937 0.0325-0.1975 0.0575-0.3075 0.0725l-0.0362 4e-3 7e-3 0.0362c0.22 1.0162-0.44875 2.13-0.83375 2.5438" fill="#231f1f" fill-rule="evenodd"/>
  <path d="m305.23 397.07c0.51125-0.5475 0.975-1.715 0.32375-2.3212-0.42625-0.39875-0.84375-0.535-1.255-0.9175-0.34125-0.31875-0.3425-0.76375-0.08-1.0462 0.24875-0.26625 0.7425-0.5725 1.0675-0.27 0.445 0.415 0.48 1.1838 0.91625 1.5912 0.31625 0.295 0.7625 0.0225 1.0012-0.23375 0.72625-0.77875 0.66125-1.6875-0.1-2.3962-1.2662-1.1812-3.2712-1.2438-4.4838 0.0562-0.51125 0.5475-0.96625 1.7225-0.325 2.3212 0.43625 0.40625 1.0588 0.525 1.355 1.0325 0.23875 0.41125 0.1925 0.63125-0.0112 0.94-0.20625 0.3125-0.75 0.56375-1.075 0.26125-0.43625-0.4075-0.47125-1.1762-0.91625-1.59-0.31625-0.29625-0.7625-0.0238-1.0025 0.2325-0.725 0.77875-0.65125 1.695 0.10125 2.3975 1.2738 1.1888 3.2712 1.2425 4.4838-0.0575" fill="#ffe409" fill-rule="evenodd"/>
  <path d="m297.3 380.67c0.6075 0.14 1.2325 0.5525 1.5388 1.0425 0.70875 1.135-0.925 3.775-2.5712 3.14-1.2312-0.475-1.4625-1.785-1.0425-3.045 0.36875-1.1075 1.3575-1.3025 2.075-1.1375" fill="#231f1f" fill-rule="evenodd"/>
  <path d="m297.22 386.15c-0.23875 1.375-1.5812 3.7638-3.435 3.5875-0.96625-0.0925-3.1025-1.07-1.4362-3.4 0.25-0.35125 0.49125-0.60375 0.755-0.84375 0.22875-0.20875 0.49-0.4175 0.8275-0.71125 1.3012-1.13 3.8025-1.58 3.2888 1.3675" fill="#231f1f" fill-rule="evenodd"/>
  <path d="m296.11 382.11c-0.345 1.0325-0.0637 1.6625 0.4925 1.8775 0.6725 0.25875 1.7562-1.2725 1.4425-1.7738-0.3125-0.50125-1.5912-1.1362-1.935-0.10375" fill="#ffe409" fill-rule="evenodd"/>
  <path d="m299.37 393.38c-2.9725-0.5775-4.0575-3.0225-3.645-5.14 0.52375-2.6962 2.9138-3.6362 5.05-3.2212 1.1712 0.2575 2.7612 1.4712 2.3088 3.8038-0.075 0.38125-0.31875 0.86125-0.63125 1.23-0.07 0.0813-0.17 0.1875-0.295 0.29375l-0.34125 0.29 0.06 0.445 7e-3 0.06c0.0337 0.395-0.05 0.84625-0.24 1.1925-0.22125 0.4-0.38 0.64125-0.60875 0.80875-0.45625 0.33375-1.03 0.36125-1.665 0.2375" fill="#231f1f" fill-rule="evenodd"/>
  <path d="m300.6 385.82c-1.8012-0.35-3.6562 0.4275-4.0738 2.5762-0.335 1.7225 0.5175 3.6975 2.9975 4.18 1.0825 0.21125 1.1862-0.25 1.4-0.63625 0.2125-0.38625 0.23125-1.155-0.19875-1.2225-0.42875-0.0688-0.865 0.065-1.3212-0.0225-0.7-0.13625-1.4338-1.6312-0.66125-1.4812 0.43375 0.085 1.2212 0.55375 2.1912 0.7425 0.67125 0.13 1.2588-0.855 1.3438-1.29 0.35125-1.81-0.84125-2.6688-1.6775-2.8462" fill="#ffe409" fill-rule="evenodd"/>
  <path d="m299.19 387.1c-0.2825 0.425-0.215 1.2838 0.35875 1.3575 0.57375 0.0738 1.6388-0.52375 1.2125-1.185-0.405-0.62875-1.1425-0.81625-1.5712-0.1725" fill="#50318f" fill-rule="evenodd"/>
  <path d="m278.37 385.24c-0.0663-0.10375-0.275-0.53625-0.275-0.53625-0.28625-0.655-0.41625-1.37-0.39125-2.0762 0.10125-2.9062 2.4412-4.2862 4.75-4.205 1.26 0.0738 3.1188 1.0725 3.03 3.5825-0.0138 0.405-0.1875 0.945-0.45375 1.3812-0.065 0.1075-0.16125 0.2475-0.29 0.39125l-0.315 0.35125 0.1475 0.44875c0.0125 0.0375 0.0225 0.0713 0.0288 0.0987 0.1025 0.40375 0.09 0.88625-0.0513 1.2762-0.16125 0.45-0.28375 0.72625-0.495 0.9375-0.41 0.4125-0.9925 0.5375-1.68 0.51375-1.7912-0.0625-3.0875-0.83875-3.8475-1.9012 0 0-0.0913-0.15875-0.1575-0.2625" fill="#231f1f"/>
  <path d="m278.37 385.24c-0.0663-0.10375-0.275-0.53625-0.275-0.53625-0.28625-0.655-0.41625-1.37-0.39125-2.0762 0.10125-2.9062 2.4412-4.2862 4.75-4.205 1.26 0.0738 3.1188 1.0725 3.03 3.5825-0.0138 0.405-0.1875 0.945-0.45375 1.3812-0.065 0.1075-0.16125 0.2475-0.29 0.39125l-0.315 0.35125 0.1475 0.44875c0.0125 0.0375 0.0225 0.0713 0.0288 0.0987 0.1025 0.40375 0.09 0.88625-0.0513 1.2762-0.16125 0.45-0.28375 0.72625-0.495 0.9375-0.41 0.4125-0.9925 0.5375-1.68 0.51375-1.7912-0.0625-3.0875-0.83875-3.8475-1.9012 0 0-0.0913-0.15875-0.1575-0.2625z" fill="none" stroke="#231f1f" stroke-miterlimit="3.864" stroke-width=".10875"/>
  <path d="m273.45 386.53c-0.11875-0.0288-0.57-0.195-0.57-0.195-0.66125-0.27125-1.2512-0.69625-1.7238-1.2212-1.9462-2.1612-1.2212-4.7788 0.49625-6.325 0.9575-0.82125 2.9875-1.395 4.6675 0.4725 0.27125 0.30125 0.52125 0.81 0.63375 1.3088 0.0275 0.1225 0.0563 0.29 0.0625 0.48375l0.0175 0.47125 0.41875 0.22c0.035 0.0187 0.065 0.0362 0.0888 0.0512 0.35375 0.21875 0.68 0.575 0.85 0.9525 0.195 0.43625 0.3 0.72 0.295 1.0188-9e-3 0.5825-0.34125 1.0775-0.8525 1.5375-1.3312 1.1988-2.8025 1.5412-4.0888 1.3038 0 0-0.17625-0.05-0.295-0.0788" fill="#231f1f"/>
  <path d="m273.45 386.53c-0.11875-0.0288-0.57-0.195-0.57-0.195-0.66125-0.27125-1.2512-0.69625-1.7238-1.2212-1.9462-2.1612-1.2212-4.7788 0.49625-6.325 0.9575-0.82125 2.9875-1.395 4.6675 0.4725 0.27125 0.30125 0.52125 0.81 0.63375 1.3088 0.0275 0.1225 0.0563 0.29 0.0625 0.48375l0.0175 0.47125 0.41875 0.22c0.035 0.0187 0.065 0.0362 0.0888 0.0512 0.35375 0.21875 0.68 0.575 0.85 0.9525 0.195 0.43625 0.3 0.72 0.295 1.0188-9e-3 0.5825-0.34125 1.0775-0.8525 1.5375-1.3312 1.1988-2.8025 1.5412-4.0888 1.3038 0 0-0.17625-0.05-0.295-0.0788z" fill="none" stroke="#231f1f" stroke-miterlimit="3.864" stroke-width=".10875"/>
  <path d="m282.41 379.24c-1.97-0.0687-3.805 1.0675-3.8875 3.4162-0.065 1.8838 1.17 3.835 3.8812 3.93 1.1825 0.0413 1.2162-0.46625 1.3762-0.91125 0.16125-0.445 0.0525-1.2625-0.415-1.2625-0.46625 0-0.90625 0.215-1.405 0.1975-0.765-0.0263-1.795-1.4888-0.95-1.4588 0.475 0.0163 1.3875 0.38125 2.4488 0.41875 0.7325 0.025 1.1912-1.1188 1.2075-1.5938 0.07-1.9788-1.34-2.6888-2.2562-2.7362" fill="#ffe409" fill-rule="evenodd"/>
  <path d="m281.31 381.52c-0.17125 0.5125 0.56375 1.0338 1.115 1.0162s1.2112-0.235 1.1538-0.95125c-0.0975-1.2062-2.0025-0.86125-2.2688-0.065" fill="#50318f" fill-rule="evenodd"/>
  <path d="m270.91 391.69c-2.0212 0.97125-6.8175 1.695-8.9138-3.39-2.0562-4.9925 0.68-6.8675 2.4762-7.7825 1.7025-0.8675 4.5712-0.92375 5.5512 0.40125 0.32875 0.44625 0.35125 0.955 0.30625 1.3412s-0.17125 0.7725-0.28125 1.08l-0.42125 1.155 1.05 0.1325c0.0775 9e-3 0.15 0.0187 0.205 0.0275 0.3975 0.0663 0.9175 0.1575 1.4062 0.38125 0.51625 0.23625 1 0.61875 1.3388 1.245 1.4175 2.6175-0.9625 4.565-2.7175 5.4088" fill="#231f1f" fill-rule="evenodd"/>
  <path d="m257.94 390.63c0.14875 0.66 0.44625 1.335 0.75625 1.715 0.76 0.93125 1.3938 1.0788 2.08 0.84125 0.0238-0.025 0.105-0.105 0.1425-0.18875 0.08-0.175 0.14-0.42875 0.1925-0.76875 0.0563-0.36 0.0962-0.7325 0.155-1.0625 0.0437-0.2375 0.10625-0.52375 0.22375-0.79-0.61375 0.585-1.5088 0.97125-2.3925 0.81625-0.52875-0.0925-0.8975-0.30875-1.1575-0.5625m4.0862-0.9425c0.52125-0.3825 1.165-0.2875 1.7125 0.03 0.55 0.32 1.1325 0.91375 1.6838 1.4988 0.99 1.0512 0.59375 2.4175 0.185 3.2612-0.45125 0.93-1.1688 1.7825-1.6675 2.2362-0.23125 0.21125-0.6025 0.58375-1.0938 0.95125-0.5125 0.38375-1.1838 0.78625-1.9962 0.9975-1.7138 0.4475-3.8038-0.0162-6.05-2.4612-4.655-5.07-1.3712-9.3425 0.18-10.855 0.99875-0.97375 2.1875-1.0338 3.315-0.645 1.0562 0.365 2.0962 1.13 2.9938 1.8525 1.215 0.97875 1.2375 2.2238 0.7375 3.1338" fill="#231f1f" fill-rule="evenodd"/>
  <path d="m259.18 390.38c1.4362 0.2525 3.4188-1.7625 1.6275-3.2062-1.7925-1.4425-3.7362-2.6938-5.2425-1.225-1.505 1.4675-4.3238 5.2088-0.1875 9.7138 4.1362 4.5038 7.11 1.2238 7.9925 0.42 0.88375-0.8025 2.6238-3.1162 1.48-4.3288-1.1438-1.2138-1.9688-1.9575-2.5112-1.1938s-0.17375 3.0225-1.2525 3.3975-2.07 0.0225-3.005-1.1238c-0.935-1.1475-1.4938-3.7462-0.6-3.9712 0.8925-0.225 0.2625 1.265 1.6988 1.5175" fill="#ffe409" fill-rule="evenodd"/>
  <path d="m272.19 379.41c-1.465 1.3188-1.9962 3.4112-0.4225 5.1588 1.26 1.3988 3.505 1.945 5.52 0.13 0.88-0.7925 0.5525-1.18 0.35875-1.6112-0.19375-0.4325-0.84-0.945-1.1762-0.62-0.33625 0.32375-0.5025 0.78375-0.87375 1.1188-0.56875 0.51125-2.325 0.175-1.6962-0.39 0.3525-0.31875 1.2625-0.69 2.0525-1.4 0.54375-0.49125 0.08-1.6325-0.23875-1.985-1.325-1.4712-2.8312-1.0038-3.5238-0.40125" fill="#ffe409" fill-rule="evenodd"/>
  <path d="m272.38 381.89c0.2175 0.5025 1.175 0.3025 1.61-0.14125 0.43375-0.445 0.8175-1.1175 0.27375-1.5875-0.9175-0.79125-2.2212 0.9475-1.8838 1.7288" fill="#50318f" fill-rule="evenodd"/>
  <path d="m294.4 385.43c1.2588-1.0938 2.1362-0.77875 1.9038 0.5525-0.23125 1.3312-1.4 2.915-2.425 2.8175-0.76875-0.0738-1.745-0.55875-0.7675-1.9262 0.4125-0.57625 0.62625-0.8675 1.2888-1.4438" fill="#ffe409" fill-rule="evenodd"/>
  <path d="m285.18 383.47c0.1025-0.37 0.49-0.9975 0.49-0.9975 0.5475-0.83375 0.91875-1.2575 1.0338-1.7588 0.1275-0.55625 0.1025-0.80125 0.1025-0.80125 0.0188-0.37875 0.0325-0.8375 0.0688-1.1388 0.0475-0.49875 0.24625-1.2962 0.24625-1.2962 0.21125-0.895 0.55625-1.3062 0.55625-1.3062 0.305-0.5175 0.78875-0.83 1.4438-0.83 0.9675 0 1.7188 0.76 1.7188 1.7012 0.0125 0.2475-0.0412 0.53625-0.22625 0.8725-0.5075 0.91875-0.67 1.0975-0.69625 1.1375-0.77875 1.2475-0.74375 1.1388-0.9675 1.8338-0.095 0.26125-0.15625 0.48875-0.10625 0.71375 0.0838 0.3825 0.40375 0.53125 0.6475 0.545 0.0962 6e-3 0.225-0.01 0.37-0.0425 0.0475-0.01 0.0987-0.0225 0.1525-0.0288 0.85125-0.1925 2.335 0.0137 2.6862 1.3162 0.0337 0.1125 0.075 0.275 0.10375 0.48l6e-3 0.1225c0.0675 0.47125 0.0387 1.2775-0.29875 2.21-0.0688 0.15-0.5525 1.1838-0.95875 1.5638l-0.0263 0.0238s-0.13 0.15625-0.32 0.32c-0.20625 0.1775-0.50875 0.39625-0.88875 0.56625-1.9425 0.87875-4.4662 0.17125-5.1-1.8088-0.72125-1.8188-0.0375-3.3975-0.0375-3.3975" fill="#ffe409"/>
  <path d="m290.78 385.93c-0.52375 0.545-1.6912 1.1338-2.4562 0.40125-0.76625-0.7325-0.85375-2.4212-0.045-2.5988 0.8075-0.17875 4.0638 0.57125 2.5012 2.1975" fill="#50318f" fill-rule="evenodd"/>
  <path d="m264.86 381.27c-1.5912 0.81125-3.895 2.2912-2.0762 6.7038 1.8175 4.4112 5.9275 3.8312 7.7625 2.95 1.7562-0.845 3.3462-2.3812 2.34-4.2412-0.9575-1.7675-3.42-0.70625-3.9825-2.1338-0.24625-0.625 1.035-2.3262 0.44125-3.1288-0.59375-0.80375-2.8938-0.96125-4.485-0.15" fill="#ffe409" fill-rule="evenodd"/>
  <path d="m266.59 385.18c0.67-0.77125 0.5175-2.37-0.315-2.5862-1.1925-0.31-2.0825 1.3725-1.755 1.9225 0.3275 0.54875 1.4 1.435 2.07 0.66375" fill="#50318f" fill-rule="evenodd"/>
  <path d="m269.65 388.21c-0.24125 0.6675-1.0175 1.6162-1.9512 1.2812-0.935-0.335-1.655-1.7488-1.0312-2.21 0.625-0.46125 3.7012-1.06 2.9825 0.92875" fill="#50318f" fill-rule="evenodd"/>
 </g>
</svg>
