<svg width="800" height="193.4" version="1.1" viewBox="0 0 800 193.4" xml:space="preserve" xmlns="http://www.w3.org/2000/svg">
<g fill="#fff"><g stroke-width="2.7787"><path class="st1" d="m412.08 93.093c-4.7238 0-9.1696 0.55574-12.504 1.9451-3.6123 1.3893-6.391 3.0566-8.336 5.0016 0.27787 0.8336 0.27787 1.9451 0.55574 3.3344 0.27787 1.1115 0.55574 2.223 0.55574 3.8902 0.27787 1.3893 0.27787 3.3344 0.27787 5.0016v78.915h-29.454v-77.247c0-3.3344-0.27787-6.391-0.55574-9.1697s-1.1115-5.2795-2.223-7.2246-2.7787-3.6123-4.7238-4.7238c-2.223-1.1115-4.7238-1.6672-8.0582-1.6672h-2.5008v-6.9467h22.507c5.2795 0 9.1697 0.55574 12.226 1.9451s5.2795 3.3344 6.9467 6.391c1.3893-1.1115 3.0566-2.5008 5.0016-3.6123 1.9451-1.3893 4.168-2.5008 6.9467-3.3344 2.7787-1.1115 5.8352-1.9451 9.1697-2.5008 3.6123-0.55574 7.5024-1.1115 12.226-1.1115 14.171 0 25.008 3.3344 32.233 10.003 7.2246 6.6688 10.837 17.228 10.837 31.955v67.244h-29.454v-67.8c0-11.115-1.9451-18.895-6.1131-23.619-4.168-4.4459-9.4475-6.6688-15.561-6.6688z"/><path class="st1" d="m539.34 183.12c7.7803 0 14.171-1.9451 19.173-5.5574s9.4475-8.0582 13.338-13.338l6.9467 5.2795c-1.6672 2.5008-3.6123 5.2795-6.1131 8.0582-2.223 2.7787-5.2795 5.2795-8.6139 7.7803-3.3344 2.223-7.5024 4.168-11.948 5.8352-4.7238 1.3893-10.003 2.223-16.116 2.223-8.0582 0-15.283-1.3893-21.674-4.168s-11.948-6.6688-16.394-11.67c-4.4459-5.0016-8.0582-10.837-10.559-17.506-2.5008-6.6688-3.6123-14.171-3.6123-22.229 0-9.1697 1.3893-16.95 3.8902-23.897 2.5008-6.9467 6.1131-12.782 10.559-17.228 4.4459-4.7238 9.7254-8.0582 15.838-10.559 6.1131-2.5008 12.504-3.6123 19.729-3.6123s13.616 1.1115 19.729 3.3344c6.1131 2.2229 11.393 5.2795 15.838 9.1697 4.4459 3.8902 8.0582 8.6139 10.559 14.171 2.5008 5.5574 3.8902 11.67 3.8902 18.617v5.0016c0 1.6672-0.27787 3.3344-0.27787 4.7238-0.27787 1.6672-0.27787 3.0566-0.55574 4.4459h-68.356c0 15.005 2.223 25.564 6.9467 31.955 4.4459 6.1131 10.559 9.1697 17.784 9.1697zm13.616-51.406c0-7.5024-0.55574-13.893-1.3894-18.895-1.1115-5.0016-2.2229-8.8918-3.8902-11.948-1.6672-3.0565-3.6123-5.2795-6.1131-6.391-2.2229-1.3893-5.0016-1.9451-7.7803-1.9451-2.5008 0-5.0016 0.55574-7.2246 1.9451s-4.4459 3.3344-6.1131 6.391-3.0566 6.9467-4.168 11.948c-1.1115 5.0016-1.6672 11.393-1.6672 18.895z"/><path class="st1" d="m630.48 143.67-21.674-36.401c-3.0566-5.5574-6.6688-9.7254-10.281-12.782-3.6123-3.0566-7.2246-4.7238-10.837-5.5574v-4.4459h21.396c7.5024 0 13.338 1.6672 17.506 5.0016s8.0582 7.7803 11.393 13.338l10.837 18.339 29.732-36.401h15.283l-38.346 47.238 21.952 36.679c3.0566 5.5574 6.6688 9.7254 10.281 12.782 3.6123 3.0566 7.2246 4.7238 10.837 5.5574v4.4459h-21.396c-7.5024 0-13.338-1.6672-17.506-5.0016-4.4459-3.3344-8.0582-7.7803-11.393-13.338l-11.115-18.339-29.732 36.401h-15.283z"/></g><g transform="matrix(2.7787 0 0 2.7787 -5.0016 -3.6049)">
			<path class="st1" d="m242 3.9c20.5-3.7 39.3 11 42.9 31 0.2 1.4 5 0.5 4.8-0.9-4.1-22.6-25.9-36-48.1-32-2.8 0.5-2.4 2.4 0.4 1.9z" fill="#fff"/>
		</g></g><g transform="matrix(2.7787 0 0 2.7787 -5.0016 -3.6049)">
			<path class="st2" d="m242.4 20.2c10.7-2.4 23.2 5.1 20.5 17.2-0.3 1.5 4.4 1.1 4.7-0.1 1.6-7.1-1.7-13.1-7.7-16.9-5.6-3.5-12.9-3.2-19.1-1.9-3.1 0.7-0.4 2.1 1.6 1.7z" fill="#0099a8"/>
		</g><g fill="#61a60e" stroke-width="2.7787"><path class="st0" d="m58.074 92.26c-8.0582 0-14.449 3.6123-19.729 11.115-5.0016 7.5024-7.5024 18.895-7.5024 34.178 0 30.288 9.4475 45.57 28.343 45.57 7.7803 0 14.171-1.9451 19.173-5.5574s9.4475-8.0582 13.338-13.338l6.9467 5.2795c-1.6672 2.5008-3.6123 5.2795-6.1131 8.0582-2.2229 2.7787-5.2795 5.2795-8.6139 7.7803-3.6123 2.223-7.5024 4.168-12.504 5.8352-4.7238 1.3893-10.281 2.223-16.95 2.223-9.1697 0-16.95-1.3893-23.897-4.4459-6.9467-3.0566-12.504-6.9467-16.95-11.948-4.4459-5.0016-8.0582-11.115-10.281-17.784-2.2229-6.6688-3.3344-13.893-3.3344-21.396s1.1115-14.727 3.3344-21.396 5.5574-12.782 10.281-17.784c4.4459-5.0016 10.281-9.1697 16.95-11.948 6.9467-3.0566 14.727-4.4459 23.897-4.4459 8.6139 0 15.838 0.55574 21.952 1.9451 6.1131 1.1115 10.281 3.3344 13.338 6.1131 2.7787 2.7787 4.4459 6.6688 5.0016 11.67 0.55574 4.7238 0.55574 11.67 0.55574 20.284h-6.9467c-0.55574-9.7254-3.6123-16.95-8.8918-21.952-5.0016-5.5574-12.226-8.0582-21.396-8.0582z"/><path class="st0" d="m174.22 183.12c7.7803 0 14.171-1.9451 19.173-5.5574s9.4475-8.0582 13.338-13.338l6.9467 5.2795c-1.6672 2.5008-3.6123 5.2795-6.1131 8.0582-2.223 2.7787-5.2795 5.2795-8.6139 7.7803-3.3344 2.223-7.5024 4.168-11.948 5.8352-4.7238 1.3893-10.003 2.223-16.116 2.223-8.0582 0-15.283-1.3893-21.674-4.168s-11.948-6.6688-16.394-11.67-8.0582-10.837-10.559-17.506c-2.5008-6.6688-3.6123-14.171-3.6123-22.229 0-9.1697 1.3893-17.228 3.8902-24.175s6.1131-12.782 10.559-17.506c4.4459-4.7238 9.7254-8.0582 15.838-10.559 6.1131-2.5008 12.782-3.6123 19.729-3.6123 7.2246 0 13.616 1.1115 19.729 3.3344 6.1131 2.2229 11.393 5.2795 15.838 9.1697 4.4459 3.8902 8.0582 8.6139 10.559 14.449 2.5008 5.5574 3.8902 11.948 3.8902 18.617v5.0016c0 1.6672-0.27787 3.3344-0.27787 4.7238-0.27786 1.6672-0.27786 3.0566-0.55573 4.4459h-68.633c0 15.005 2.2229 25.564 6.9467 31.955 4.4459 6.391 10.559 9.4475 18.061 9.4475zm13.616-51.406c0-7.5024-0.55574-13.893-1.3893-18.895-1.1115-5.0016-2.223-8.8918-3.8902-11.948-1.6672-3.0565-3.6123-5.2795-6.1131-6.391-2.223-1.3893-5.0016-1.9451-7.7803-1.9451-2.5008 0-5.0016 0.55574-7.5024 1.9451-2.223 1.3893-4.4459 3.3344-6.1131 6.391s-3.0566 6.9467-4.168 11.948c-1.1115 5.0016-1.6672 11.393-1.6672 18.895z"/><path class="st0" d="m240.36 41.132h9.1696c3.8902 0 7.2246 0.55574 10.003 1.3893 2.7787 1.1115 4.7238 2.5008 6.391 5.0016 1.6672 2.2229 2.7787 5.2795 3.3344 9.1697 0.55574 3.8902 0.83361 8.6139 0.83361 14.171v120.32h-29.732z"/><path class="st0" d="m298.99 41.132h9.1696c3.8902 0 7.2246 0.55574 10.003 1.3893 2.7787 1.1115 4.7238 2.5008 6.391 5.0016 1.6672 2.2229 2.7787 5.2795 3.3344 9.1697 0.55574 3.8902 0.83361 8.6139 0.83361 14.171v120.32h-29.454z"/><path class="st0" d="m665.22 28.906c45.849-8.0582 87.529 24.73 95.587 69.468 0.55574 3.3344 13.616-0.27787 12.782-4.4459-9.4476-50.85-57.241-79.749-106.7-71.135-5.5574 0.83361-10.559 7.5025-1.6672 6.1131z"/></g>
</svg>
