<svg version="1.1" viewBox="0 0 183.1 71.9" xml:space="preserve" xmlns="http://www.w3.org/2000/svg">
<g transform="translate(-206.4,-385.1)" fill="#fff">
		<path d="m243 456.4c0 0.4-0.3 0.6-0.6 0.6-0.4 0-0.6-0.3-0.6-0.6v-70.7c0-0.4 0.3-0.6 0.6-0.6 0.4 0 0.6 0.3 0.6 0.6z"/>
		<path d="m233.8 455.4c-0.1 0.3-0.4 0.6-0.8 0.5-0.3-0.1-0.6-0.4-0.5-0.8l18.3-68.3c0.1-0.3 0.4-0.6 0.8-0.5 0.3 0.1 0.6 0.4 0.5 0.8z"/>
		<path d="m225.2 452c-0.2 0.3-0.6 0.4-0.9 0.2s-0.4-0.6-0.2-0.9l35.4-61.3c0.2-0.3 0.6-0.4 0.9-0.2s0.4 0.6 0.2 0.9z"/>
		<path d="m217.8 446.5c-0.3 0.3-0.7 0.3-0.9 0-0.3-0.3-0.3-0.7 0-0.9l50-50c0.3-0.3 0.7-0.3 0.9 0 0.3 0.3 0.3 0.7 0 0.9z"/>
		<path d="m212 439.3c-0.3 0.2-0.7 0.1-0.9-0.2s-0.1-0.7 0.2-0.9l61.3-35.4c0.3-0.2 0.7-0.1 0.9 0.2s0.1 0.7-0.2 0.9z"/>
		<path d="m208.3 430.8c-0.3 0.1-0.7-0.1-0.8-0.5-0.1-0.3 0.1-0.7 0.5-0.8l68.3-18.3c0.3-0.1 0.7 0.1 0.8 0.5 0.1 0.3-0.1 0.7-0.5 0.8z"/>
		<path d="m207 421.7c-0.4 0-0.6-0.3-0.6-0.6 0-0.4 0.3-0.6 0.6-0.6h70.7c0.4 0 0.6 0.3 0.6 0.6 0 0.4-0.3 0.6-0.6 0.6z"/>
		<path d="m208 412.5c-0.3-0.1-0.6-0.4-0.5-0.8 0.1-0.3 0.4-0.6 0.8-0.5l68.3 18.3c0.3 0.1 0.6 0.4 0.5 0.8-0.1 0.3-0.4 0.6-0.8 0.5z"/>
		<path d="m211.4 403.9c-0.3-0.2-0.4-0.6-0.2-0.9s0.6-0.4 0.9-0.2l61.3 35.4c0.3 0.2 0.4 0.6 0.2 0.9s-0.6 0.4-0.9 0.2z"/>
		<path d="m216.9 396.5c-0.3-0.3-0.3-0.7 0-0.9 0.3-0.3 0.7-0.3 0.9 0l50 50c0.3 0.3 0.3 0.7 0 0.9-0.3 0.3-0.7 0.3-0.9 0z"/>
		<path d="m224.1 390.7c-0.2-0.3-0.1-0.7 0.2-0.9s0.7-0.1 0.9 0.2l35.4 61.3c0.2 0.3 0.1 0.7-0.2 0.9s-0.7 0.1-0.9-0.2z"/>
		<path d="m232.6 387.1c-0.1-0.3 0.1-0.7 0.5-0.8 0.3-0.1 0.7 0.1 0.8 0.5l18.3 68.3c0.1 0.3-0.1 0.7-0.5 0.8-0.3 0.1-0.7-0.1-0.8-0.5z"/>
		<path d="m295.7 403.8h8.1v30.8h11.1v-30.8h8.1v30.8h6.7l-2 7.6h-4l1.4-5.3h-29.4z" clip-rule="evenodd" fill="#fff" fill-rule="evenodd"/>
		<path d="m356.2 403.8-0.6 2.3h-8.3v30.9h-8.1v-30.8h-8.9v-2.4z" clip-rule="evenodd" fill="#fff" fill-rule="evenodd"/>
		<path d="m375.8 403.8c5.5 0 11.2 1.5 11.2 8.7 0 2.8-1.3 5.3-3.4 6.9 3.4 1.3 5.9 4.6 5.9 8.5 0 7.6-6.1 9.1-12.2 9.1h-15v-33.2zm-0.7 2.4h-4.4v12.7h4.4c6.8 0 7-12.7 0-12.7zm0.3 15h-4.7v13.4h3.3c11.3 0 9-13.4 1.4-13.4z" clip-rule="evenodd" fill="#fff" fill-rule="evenodd"/>
</g>
</svg>
