<svg width="800" height="492" version="1.1" viewBox="0 0 800 492" xmlns="http://www.w3.org/2000/svg">
 <link rel="stylesheet" type="text/css"/>
 <link rel="stylesheet" type="text/css"/>
 <style lang="en" type="text/css"/>
 <style lang="en" type="text/css"/>
 <g transform="translate(-10 -17.995)">
  <g fill="#3498fd" fill-rule="evenodd" stroke-opacity="0">
   <rect x="10" y="17.995" width="50.63" height="276.32" rx="0" ry="0" style="paint-order:stroke fill markers"/>
   <rect x="728.4" y="17.995" width="50.63" height="276.32" rx="0" ry="0" style="paint-order:stroke fill markers"/>
  </g>
  <g fill="#fff" fill-rule="evenodd" stroke-opacity="0">
   <path d="m189.82 223.2h-42.321v-46.472h51.939l7.6946-37.178h-41.038v-46.472h50.657l14.428-69.708h51.618l-14.427 69.708h31.259l14.428-69.708h47.29l-14.427 69.708h42.321v46.472h-51.939l-7.6949 37.178h45.687v46.472h-55.306l-14.427 69.708h-47.29l14.427-69.708h-31.259l-14.428 69.708h-51.619zm92.497-46.472 7.6949-37.178h-31.26l-7.6944 37.178z" style="paint-order:stroke fill markers"/>
   <path d="m421.78 162.79c0.12119-58.425 13.947-139.42 102.28-139.42 88.329 0 108.01 82.87 106.92 139.42-1.0826 56.546-27.893 133.92-106.92 134.77-79.031 0.85035-102.4-76.344-102.28-134.77zm102.28 74.355c29.808 0 41.485-43.872 41.84-74.355 0.35322-30.484-4.6488-83.65-41.84-83.65-37.191 0-42.195 53.166-41.84 83.65 0.35335 30.484 12.032 74.355 41.84 74.355z" style="paint-order:stroke fill markers"/>
  </g>
  <g fill="#fff">
   <path d="m746.36 450.24h-31.819v-28.916h31.819v-34.699h28.926v34.699h34.712v28.916h-34.712v34.699h-28.926z" fill-rule="evenodd" stroke-opacity="0" style="paint-order:stroke fill markers"/>
   <path d="m263.29 421.32h17.356v2.8916s3.7158-5.2689 18.179-5.2689c13.906 0 24.376 13.944 24.376 34.185 0 13.543-7.843 31.756-25.199 31.756-11.571 0-17.356-5.732-17.356-5.732v28.916h-17.356zm42.047 31.813c0-8.6798-4.4432-18.564-13.121-18.564s-11.682 11.271-11.571 18.559c0.10667 6.9497 4.5213 17.35 11.571 17.35 7.4662 0 13.121-9.8809 13.121-17.344z" fill-rule="evenodd" stroke-opacity="0" style="paint-order:stroke fill markers"/>
   <path d="m403.45 420.45h16.919v8.0553s4.9106-10.074 22.266-10.074v17.35c-11.571 0-22.266 5.7832-22.266 17.35v31.808h-16.919z" fill-rule="evenodd" stroke-opacity="0" style="paint-order:stroke fill markers"/>
   <path d="m331.26 453.13c0-20.383 13.479-34.185 32.135-34.185s31.297 13.944 31.297 34.185-12.576 31.756-31.293 31.756-32.139-11.373-32.139-31.756zm44.842 5e-3c0-8.669-4.0291-17.355-12.707-17.355-8.678 0-14.692 8.7121-14.692 17.35 0 8.6381 6.0137 15.822 14.692 15.822 8.6778 0 12.707-7.1482 12.707-15.817z" fill-rule="evenodd" stroke-opacity="0" style="paint-order:stroke fill markers"/>
   <path class="st3" d="m685.62 438.67c-0.15035 10.213-0.84519 20.922-3.2316 31.458-0.72084 3.1806-2.2372 5.9636-4.3997 8.2994-2.8088 3.0067-6.3384 4.3982-10.44 3.3794-4.0766-1.0188-6.1396-4.0503-7.01-7.9267-1.193-5.2927-0.19959-10.61 0.34821-15.878 0.82038-8.0012 1.5163-16.002 1.1684-24.053-0.1736-4.2242-0.69619-8.523-3.8281-11.679-4.2006-4.2242-10.018-3.7024-15.089 1.0436-4.6232 4.2988-7.7305 9.6412-10.316 15.356-5.2201 11.579-8.7496 23.755-12.503 35.831-2.0382 6.5103-4.325 12.921-8.9237 18.115-16.033 18.04-45.713 16.077-58.987-4.274-7.4073-11.356-13.721-23.382-20.557-35.111-1.4911-2.5346-3.0821-4.9945-5.1205-7.1564-2.2123-2.3109-4.6731-3.3794-7.9044-2.5594-3.4058 0.86969-4.5985 3.4788-5.1706 6.4606-0.84504 4.5224-0.24877 8.9951 0.64639 13.468 1.9388 9.7903 5.7173 19.059 8.1038 28.7 0.74551 2.9818 1.2178 5.9885 1.0189 9.0697-0.24884 3.5285-1.7148 6.4358-5.0462 7.8272-3.8031 1.6151-7.5813 1.2176-10.862-1.4412-3.1817-2.5843-4.9219-6.237-6.3138-9.9145-7.159-18.736-12.255-37.919-11.211-58.22 0.69595-13.319 3.0575-26.314 9.272-38.291 5.0457-9.7654 12.254-17.071 23.763-18.785 7.8303-1.1678 14.79 0.72063 20.855 5.8891 7.0844 6.0382 12.031 13.741 17.102 21.37 3.828 5.7152 6.9104 11.952 11.41 17.195 4.3252 5.0691 9.4957 8.8709 16.53 8.6224 7.8304-0.27326 12.628-4.9697 15.636-11.728 5.2196-11.778 9.4952-23.954 14.964-35.658 4.2012-9.0199 10.291-16.35 19.563-20.276 13.92-5.8891 26.647-1.143 34.129 12.474 6.115 11.157 9.0977 23.333 10.838 35.856 0.99412 7.3054 1.367 14.636 1.566 22.538z" stroke-width=".98401"/>
  </g>
 </g>
</svg>
