<svg width="600pt" height="545.45pt" version="1.1" viewBox="0 0 600 545.45" xmlns="http://www.w3.org/2000/svg">
 <path d="m512.16 221.97c0-39.947-18.449-57.957-44.788-57.957-26.758 0-44.768 18.449-44.768 57.957v101.83c0 39.947 18.01 57.919 44.768 57.919 26.777 0 44.788-17.972 44.788-57.919zm-44.788 214.64c-68.02 0-105.34-50.048-105.34-114.58v-98.723c0-64.113 37.317-114.6 105.34-114.6 68.096 0 105.37 50.486 105.37 114.6v98.723c0 64.532-37.278 114.58-105.37 114.58" fill="#fff"/>
 <path d="m0 545.45h600v-54.431h-600z" fill="#fff"/>
 <path d="m0 54.412h600v-54.412h-600z" fill="#fff"/>
 <g transform="translate(906.63 301.78)" fill="#5fbaef">
  <path transform="scale(.75)" d="m-1020.9-257.23c-17.356 0-33.035 12.704-35.652 30.238-18.549 121.74-37.07 243.47-55.6 365.21-0.2541 1.6517-0.3809 3.3034-0.3809 4.9297v0.73633c0.1525 17.178 12.808 32.654 30.215 35.297 2.1345 0.30493 4.2424 0.55859 6.3261 0.55859 17.407 0 32.629-12.578 35.195-29.832 18.339-121.92 36.661-243.85 55.016-365.77 2.9731-19.313-9.9369-37.456-29.834-40.963-1.7788-0.15246-3.5318-0.40625-5.2852-0.40625z"/>
  <path transform="scale(.75)" d="m-1136.2 7.125c-20.507 0-36.287 16.39-36.287 36.287 0 20.482 16.415 36.848 36.287 36.848h305.47c20.507 0 36.287-16.366 36.287-36.848 0-19.897-15.78-36.287-36.287-36.287z"/>
  <path transform="scale(.75)" d="m-864.66-257.28c-17.331 0-33.058 12.704-35.676 30.238l-55.576 365.21c-0.25412 1.7534-0.40625 3.5318-0.40625 5.2598v0.25391c0.0762 17.28 12.757 32.857 30.24 35.5 2.1346 0.30493 4.217 0.55859 6.3008 0.55859v-0.0508c17.305 0 32.095-12.578 35.246-29.832l55.574-365.77c2.9731-19.313-10.519-37.456-30.416-40.963-1.7788-0.15246-3.5337-0.40625-5.2871-0.40625z"/>
  <path transform="scale(.75)" d="m-1111-156.78c-20.482 0-36.238 15.806-36.238 35.754 0 20.456 15.757 36.871 36.238 36.871h305.49c19.897 0 36.312-16.415 36.312-36.871 0-19.948-16.415-35.754-36.312-35.754z"/>
 </g>
 <path d="m133.87 361.98h-54.755l8.3476-54.85h54.66l-8.2523 54.85" fill="#27a3e9"/>
 <path d="m251.15 361.98h-54.85l8.3476-54.85h54.85l-8.3476 54.85" fill="#27a3e9"/>
 <path d="m152.41 238.67h-54.526l8.2904-54.469h54.431l-8.1952 54.469" fill="#27a3e9"/>
 <path d="m269.89 238.67h-54.812l8.2714-54.469h54.812l-8.2714 54.469" fill="#27a3e9"/>
</svg>
