<svg width="800" height="103.48" version="1.1" viewBox="0 0 211.67 27.378" xmlns="http://www.w3.org/2000/svg">
 <g transform="translate(-43.458 -43.554)">
  <g transform="matrix(.97889 0 0 .97889 1556.3 -127.83)" fill="#fff" aria-label="EVENEMENT">
   <path d="m-1545.5 202.37v-26.68h14.746v4.5117h-9.5508v5.9375h9.1992v4.5117h-9.1992v7.207h9.5508v4.5117z"/>
   <path d="m-1528.8 175.69h5.6836l7.1094 17.91 7.207-17.91h5.6446l-11.524 27.363h-2.7539z"/>
   <path d="m-1499.9 202.37v-26.68h14.746v4.5117h-9.5507v5.9375h9.1992v4.5117h-9.1992v7.207h9.5507v4.5117z"/>
   <path d="m-1480.2 202.37v-27.285h3.5937l16.25 18.574v-17.969h5.1953v27.207h-3.6132l-16.23-18.574v18.047z"/>
   <path d="m-1449 202.37v-26.68h14.746v4.5117h-9.5507v5.9375h9.1992v4.5117h-9.1992v7.207h9.5507v4.5117z"/>
   <path d="m-1430.7 202.37 4.9609-27.168h3.5547l7.2851 17.441 7.5977-17.441h3.5547l4.4531 27.168h-5.2539l-2.3437-16.445-7.3633 16.797h-1.4453l-7.0899-16.797-2.6758 16.445z"/>
   <path d="m-1394.5 202.37v-26.68h14.746v4.5117h-9.5508v5.9375h9.1992v4.5117h-9.1992v7.207h9.5508v4.5117z"/>
   <path d="m-1374.8 202.37v-27.285h3.5937l16.25 18.574v-17.969h5.1954v27.207h-3.6133l-16.23-18.574v18.047z"/>
   <path d="m-1346.4 180.2v-4.5117h17.168v4.5117h-5.9961v22.168h-5.2148v-22.168z"/>
  </g>
 </g>
</svg>
