<svg enable-background="new 0 0 280 40" space="preserve" version="1.1" viewBox="0 0 280 40" xmlns="http://www.w3.org/2000/svg">
 <link href="" rel="stylesheet" type="text/css"/>
 <path d="m65.7 39.8h-8.3v-16.4h-15v16.4h-8.3v-39.8h8.3v16.2h15v-16.2h8.3v39.8zm16.8-39.8h9.5l16.2 39.8h-9.8l-3.8-9.3h-14.7l-3.8 9.3h-9.8l16.2-39.8zm-0.8 23.5h11.1l-5.5-13.9-5.6 13.9zm79.1-23.5v29.6l-15.6-29.6h-10.6v28.6l-15-28.6h-10.7v39.8h8v-29.2l16 29.2h10.1v-28.3l15.5 28.3h10.2v-39.8h-7.9zm40.4 7.1h-10.8c-5.6 0-7.7 0.7-9.5 2.9-1.2 1.6-1.4 2.5-1.7 6.5h21.9v7.1h-21.9c0.6 6.8 3.5 9.1 11.5 9.1h10.5v7.1h-10.8c-8.3 0-12.3-1.1-15.4-4.5-3.3-3.5-5.1-9-5.1-15.7 0-7.1 2.3-12.6 6.6-16.4 2.8-2.4 5.4-3.2 10.7-3.2h14.1v7.1h-0.1zm10.9-7.1v22.5c0.3 6.8 0.4 7.2 1.9 8.6 1.5 1.3 3.2 1.7 8.4 1.7h4.2v7.1h-5.1c-5.5 0-6.7-0.2-8.7-0.7-4-1-6.9-3.8-8.2-7.6-0.6-1.8-0.9-5-0.9-9.1v-22.5h8.4zm-180.4 39.8h-13.6c-6.7 0-10-1-13-4-3.3-3.3-5.1-8.7-5.1-15.9 0-8.9 3.1-15.6 8.6-18.1 2.2-1.1 6.1-1.8 9.9-1.8h13.2v7.1h-12.3c-3.9 0-6.6 1.1-8.3 3.2-1.3 1.6-2 4.8-2 8.9 0 5.8 1.2 9.9 3.5 11.7 1.5 1.2 3.9 1.8 7 1.8h11.9v7.1h0.2z" fill="#D20073"/>
 <path d="m266.5 0v7.1h5.1v25.7h-33.2v-3.5c0-1.4 0.4-3.2 0.9-3.9 0.9-1.4 2.6-1.8 6.6-1.8h5.5c3.8 0 6.8-0.5 8.7-1.6 3-1.7 4.8-5.4 4.8-10.2 0-3.6-1.3-6.9-3.4-8.8s-5.3-2.7-10.7-2.7h-20.1v7.1h18.3c1.9 0 3.8 0.4 4.6 0.8 1.2 0.7 2 2.4 2 4 0 1.5-0.7 2.8-1.9 3.6-0.8 0.4-2.9 0.9-4.8 0.9h-6.4c-5.4 0-7.1 0.5-9.2 2.6-2.3 2.3-3.3 5.4-3.3 10.2v10.5h49.8v-39.8h-13.5v-0.2h0.2z" fill="#fff"/>
</svg>
