<svg width="800" height="800" version="1.1" viewBox="0 0 800 800" xmlns="http://www.w3.org/2000/svg">
 <g transform="translate(-220.78 -148.49)" stroke-width="20">
  <path d="m620.64 148.49c-220.12 0-399.86 179.71-399.86 400.11 0 220.18 179.75 399.89 399.86 399.89 220.42 0 400.14-179.71 400.14-399.89 0-220.38-179.72-400.11-400.14-400.11z" fill="#c61d23"/>
  <path d="m815.24 692.27c-7.9026 22.477-20.306 43.22-37.621 62.707-17.075 19.036-40.274 34.472-68.525 46.212-28.618 11.952-62.287 17.752-101.21 17.752-19.699 0-39.991-1.266-60.792-4.276-20.518-2.568-40.838-7.2534-60.707-13.476-19.925-6.1948-38.369-14.349-55.5-24.397l18.302-114.32c28.321 16.976 81.945 34.952 131.55 36.632 51.619 1.736 85.614-19.727 90.609-60.337 5.3622-43.25-29.69-71.54-94.955-75.252-48.515-2.7934-87.222 4.7694-113.16 13.292l46.638-293.5h312.41l-20.504 136.76h-197.74l-7.4648 43.644c18.373-3.2026 35.673-4.9106 52-4.9106 28.66 0 54.131 4.2614 76.624 12.841 22.423 8.1132 41.487 19.909 56.445 35.079 15.043 14.985 26.318 32.736 33.881 52.829 7.6482 20.363 11.289 42.417 11.289 66.151-0.0134 22.31-3.8664 44.548-11.571 66.575z" fill="#fff"/>
 </g>
</svg>
