<?xml version="1.0" encoding="UTF-8"?>
<!-- Created with Inkscape (http://www.inkscape.org/) -->
<svg id="svg2" width="474.99" height="150.26" xmlns:cc="http://creativecommons.org/ns#" xmlns:dc="http://purl.org/dc/elements/1.1/" xmlns:rdf="http://www.w3.org/1999/02/22-rdf-syntax-ns#" version="1.0" xmlns="http://www.w3.org/2000/svg">
 <link id="dark-mode" href="" rel="stylesheet" type="text/css"/>
 <style id="dark-mode-custom-style" type="text/css"/>
 <metadata id="metadata20">
  <rdf:RDF>
   <cc:Work rdf:about="">
    <dc:format>image/svg+xml</dc:format>
    <dc:type rdf:resource="http://purl.org/dc/dcmitype/StillImage"/>
    <dc:title/>
   </cc:Work>
  </rdf:RDF>
 </metadata>
 <g id="layer1" transform="matrix(.75358 0 0 .75358 65.249 -216.68)">
  <g id="g3290">
   <polygon id="polygon2391" transform="matrix(2.1927 0 0 2.1927 -97.659 102.66)" points="47.914 98.298 55.489 98.298 55.489 112.88 69.208 112.88 69.208 98.298 76.793 98.298 76.793 133.91 76.793 133.91 69.208 133.91 69.208 119.23 55.489 119.23 55.489 133.91 47.914 133.91" fill="#f58221"/>
   <path id="path2393" d="m102.91 364.2h22.252l-11.135-27.274zm1.5233-46.004h19.076l32.316 78.086h-19.441l-7.488-18.154h-29.742l-7.488 18.154h-19.548z" fill="#f58221"/>
   <polygon id="polygon2395" transform="matrix(2.1927 0 0 2.1927 -97.659 102.66)" points="149.3 98.298 139.63 98.298 139.63 123.93 125.91 98.298 116.25 98.298 116.25 133.91 123.45 133.91 123.45 107.8 138.03 133.91 147.32 133.91 147.32 108.66 161.41 133.91 170.71 133.91 170.71 98.298 163.5 98.298 163.5 124.83" fill="#f58221"/>
   <path id="path2397" d="m341.72 332.13h-21.65c-11.247 0-15.471 1.2871-18.865 5.7287-2.3361 3.1755-2.8102 4.9128-3.3904 12.661h43.905v13.924h-43.905c1.1812 13.347 7.0192 17.898 22.94 17.898h20.965v13.948h-21.65c-16.631 0-24.593-2.2333-30.794-8.7959-6.6718-6.8924-10.301-17.789-10.301-30.773 0-13.822 4.5468-24.829 13.219-32.208 5.5147-4.6775 10.899-6.3089 21.436-6.3089h28.09z" fill="#f58221"/>
   <path id="path2399" d="m363.63 317.47v44.525c0.5802 13.561 0.81921 14.268 3.8647 16.972 3.0492 2.6835 6.5449 3.3904 17.081 3.3904h8.4519v13.927h-10.192c-11.008 0-13.582-0.23594-17.571-1.2871-7.9644-2.1033-13.926-7.488-16.395-14.975-1.1604-3.5204-1.8673-9.9596-1.8673-18.028v-44.525z" fill="#f58221"/>
   <path id="path2401" d="m1.8892 396.41h-37.876c-18.777 0-27.742-2.617-36.218-10.772-9.3158-8.9716-14.38-23.992-14.38-43.433 0-24.485 8.6479-42.594 23.992-49.782 6.2004-2.9157 16.973-4.892 27.594-4.892h36.888v19.42h-34.12c-10.772 0-18.432 2.9372-23.173 8.8176-3.5836 4.4238-5.5568 13.068-5.5568 24.333 0 15.988 3.4297 27.252 9.9535 31.996 4.2484 3.2604 10.772 4.8918 19.592 4.8918h33.305z" fill="#f58221"/>
   <path id="path2403" d="m498.99 376.93v19.206h-93.943v-28.821c0-13.026 2.9372-21.653 9.2888-27.833 5.8588-5.8557 10.73-7.1636 25.708-7.1636h17.767c5.1944 0 10.902-1.158 13.174-2.4484 3.4143-2.1241 5.3669-5.6864 5.3669-9.7629 0-4.7225-2.2758-9.1194-5.6873-11.071-2.4475-1.3112-7.6596-2.2758-12.854-2.2758h-50.963v-19.227h55.835c14.824 0 23.774 2.275 29.634 7.5119 5.859 5.1913 9.4428 14.314 9.4428 24.074 0 13.199-4.8957 23.454-13.199 28.005-5.3636 2.9402-13.67 4.3969-24.249 4.3969h-15.298c-11.244 0-15.964 1.3112-18.408 5.0646-1.2902 1.9338-2.4289 6.8258-2.4289 10.73v9.6145z" fill="#77787a"/>
   <polygon id="polygon2405" transform="matrix(2.1927 0 0 2.1927 -97.659 102.66)" points="292.51 84.314 275.49 84.314 275.49 84.314 275.49 93.071 281.97 93.071 281.97 133.84 292.51 133.84" fill="#77787a"/>
  </g>
 </g>
 <g id="g853" transform="translate(4.9811 1.2667e-6)" fill="#c3c5c2">
  <polygon id="polygon27-1" transform="matrix(3.7633 0 0 3.7633 -20.815 -93.276)" points="44.748 64.545 49.377 64.545 49.377 58.833 59.136 58.833 59.136 64.545 63.764 64.545 63.764 49.449 59.136 49.449 59.136 54.829 49.377 54.829 49.377 49.449 44.748 49.449"/>
  <path id="path31" d="m228.03 149.63h52.03c12.311 0 16.008-9.7274 16.008-18.202v-19.151c0-11.142-4.0042-19.458-20.563-19.458h-47.475zm17.417-42.685h25.588c5.2566 0 7.1352 2.1978 7.1352 6.0424v16.486c0 3.3659-1.5595 6.0424-5.648 6.0424h-27.075z" stroke-width=".53867"/>
 </g>
</svg>
