<svg enable-background="new 0 0 551.333 194" space="preserve" version="1.1" viewBox="0 0 460.08 162.88" xmlns="http://www.w3.org/2000/svg">
 <link href="" rel="stylesheet" type="text/css"/>
 <style type="text/css"/>
 <g transform="matrix(6.2749 0 0 6.2749 -1.3481 6.9722e-8)" fill="#00abee">
  <path d="m18.797 12.939c0 2.2461-1.8242 4.0664-4.0703 4.0664s-4.0664-1.8203-4.0664-4.0664c0-2.25 1.8203-4.0703 4.0664-4.0703s4.0703 1.8203 4.0703 4.0703"/>
  <path d="m6.7148 10.974c0.25-0.35156 1.8281-2.6562 3.7422-3.5195l-2.7539-5.8438c-4e-3 -0.0117-4.6055 1.9766-7.4883 7.4922 0 0 6.4727 1.9062 6.5 1.8711z"/>
  <path d="m11.895 6.9271c2.9961-1.0703 5.5898-0.0469 5.5898-0.0469l2.5547-5.8906s-4.9453-2.2266-10.691 0"/>
  <path d="m22.621 11.052c-0.25-0.35156-1.8164-2.6367-3.7148-3.4922l2.7344-5.8008c4e-3 -0.0156 4.5703 1.9609 7.4336 7.4336 0 0-6.4297 1.8906-6.4531 1.8594z"/>
  <path d="m6.707 14.935c0.2461 0.34765 1.7969 2.6094 3.6758 3.457l-2.7031 5.7422c-8e-3 0.0156-4.5274-1.9375-7.3633-7.3594 0 0 6.3633-1.875 6.3906-1.8398z"/>
  <path d="m11.891 19.029c2.9961 1.0742 5.5898 0.0469 5.5898 0.0469l2.5586 5.8906s-4.9492 2.2305-10.695 0"/>
  <path d="m22.59 15.029c-0.25 0.34765-1.8125 2.6289-3.7031 3.4805l2.7227 5.7852c4e-3 0.0156 4.5586-1.9531 7.4141-7.4141 0 0-6.4102-1.8828-6.4336-1.8516z"/>
  <path d="m39.957 9.5951h-0.92969c-0.0117 0.21875-0.10156 0.39453-0.26953 0.51563-0.16406 0.125-0.39062 0.1875-0.67187 0.1875-0.3711 0-0.65625-0.11328-0.84766-0.33594-0.19531-0.22266-0.29297-0.55078-0.29297-0.98047s0.0937-0.75781 0.28516-0.98047c0.19141-0.22656 0.46875-0.33984 0.83203-0.33984 0.27344 0 0.49219 0.0625 0.66016 0.17578 0.16797 0.11719 0.26172 0.28125 0.28515 0.49219h0.92969v-0.0508c0-0.32422-0.16406-0.59766-0.49609-0.82032-0.34766-0.23437-0.78516-0.35156-1.3164-0.35156-0.69141 0-1.2109 0.16016-1.5703 0.47656-0.35938 0.32032-0.53906 0.78516-0.53906 1.3984s0.17578 1.0781 0.52343 1.3945c0.34766 0.32031 0.85547 0.48047 1.5234 0.48047 0.55469 0 1.0156-0.125 1.3789-0.36719 0.36328-0.24218 0.53515-0.53906 0.51562-0.89453"/>
  <path d="m41.695 10.783v-1.5937h1.8906v1.5937h0.9375v-3.6055h-0.9375v1.4531h-1.8906v-1.4531h-0.93359v3.6055z"/>
  <path d="m48.543 10.505v-0.28125h-2.125v-1.0352h1.9375v-0.55859h-1.9375v-0.89453h2.0625v-0.5586h-3v3.6055h3.0625z"/>
  <path d="m53.426 7.4506v3.332h0.85547v-3.6055h-1.5586l-0.9375 2.8633-0.94922-2.8633h-1.5625v3.6055h0.85937v-3.3125h4e-3l1.1445 3.3125h0.99609z"/>
  <path d="m58.398 10.783h0.64453v-3.6055h-0.85938v2.7227l-1.6445-2.7227h-1.3125v3.6055h0.85938v-2.7539l1.6641 2.7539z"/>
  <path d="m60.938 7.1771h-0.9375v3.6055h0.9375z"/>
  <path d="m61.59 7.4545v0.28125h1.3906v3.0469h0.9375v-3.0469h1.3867v-0.5586h-3.7148z"/>
  <path d="m66.957 10.138 2.2383-2.2969v-0.66407h-3.2461v0.5586h2.2383l-0.10937 0.10547-2.2383 2.2969v0.64453h3.3828v-0.55859h-2.3516z"/>
  <path d="m35.957 18.74h0.61719v-1.7344h2.0586v-0.42578h-2.0586v-1.1953h2.1719v-0.42968h-2.7891z"/>
  <path d="m40.223 17.009h2.0586v-0.42968h-2.0586v-1.1953h2.1406v-0.42968h-2.7578v3.7852h2.8164v-0.42968h-2.1992z"/>
  <path d="m45.047 16.615h-1.0781v-1.2305h0.91406c0.39453 0 0.67969 0.0508 0.85547 0.15235 0.17969 0.10156 0.26563 0.26562 0.26563 0.49609 0 0.1836-0.082 0.32813-0.25 0.42969-0.16797 0.10156-0.40235 0.15234-0.70703 0.15234m1.5547 1.6914-0.0351-0.16797c-0.0352-0.15625-0.0703-0.34766-0.10938-0.57812-0.0508-0.29297-0.14453-0.48438-0.28125-0.58204-0.0937-0.0664-0.24609-0.11328-0.44531-0.13281 0.18359-0.043 0.33984-0.10547 0.47266-0.1914 0.28125-0.17579 0.42187-0.41797 0.42187-0.72657 0-0.30468-0.13281-0.54297-0.39062-0.71484-0.26172-0.17188-0.6211-0.25781-1.0781-0.25781h-1.8047v3.7852h0.61719v-1.6953h1.0234c0.26562 0 0.46484 0.043 0.58984 0.12891 0.12891 0.0859 0.21094 0.23047 0.25 0.4414l0.0274 0.15625c0.0469 0.25391 0.0859 0.45313 0.12109 0.59766 0.0352 0.14453 0.0742 0.26953 0.11328 0.37109h0.65625c-0.0234-0.043-0.0508-0.0977-0.0742-0.16015-0.0195-0.0664-0.0469-0.15625-0.0742-0.27344"/>
  <path d="m50.57 14.954v3.1719l-2.2109-3.1719h-0.80469v3.7852h0.61328v-3.1406l2.1875 3.1406h0.83203v-3.7852z"/>
  <path d="m54.535 16.599-0.61328-0.14844c-0.35938-0.082-0.60938-0.16406-0.7461-0.23828-0.13281-0.0742-0.20312-0.17188-0.20312-0.28516 0-0.13672 0.0742-0.24609 0.22265-0.33984 0.14844-0.0898 0.33594-0.13281 0.5586-0.13281 0.23828 0 0.42968 0.0469 0.5664 0.14062 0.13672 0.0937 0.20703 0.22656 0.21485 0.39844h0.98047l4e-3 -0.082c0-0.3125-0.14453-0.55469-0.42969-0.73828-0.3125-0.19532-0.7539-0.29297-1.3359-0.29297-0.51563 0-0.9375 0.10937-1.2656 0.33203-0.33203 0.22266-0.49609 0.50781-0.49609 0.85547 0 0.24609 0.10156 0.44531 0.29687 0.59375 0.19922 0.15234 0.53907 0.28125 1.0195 0.39453l0.61719 0.14453c0.28906 0.0703 0.48828 0.13672 0.59766 0.19922 0.10937 0.0625 0.16406 0.14453 0.16406 0.24219 0 0.14843-0.0898 0.27343-0.26562 0.37109-0.17969 0.0977-0.39844 0.14453-0.66797 0.14453-0.30469 0-0.53907-0.0586-0.70313-0.17969-0.16797-0.11718-0.24219-0.28906-0.22656-0.5039h-0.98047v0.0352c0 0.40235 0.15234 0.70704 0.46484 0.91016 0.31641 0.20703 0.80079 0.3125 1.4453 0.3125 0.55859 0 1.0195-0.10937 1.375-0.32422 0.35937-0.21875 0.53515-0.5 0.53515-0.83984 0-0.25781-0.0859-0.46094-0.2539-0.60547-0.17188-0.14844-0.46094-0.26953-0.875-0.36328"/>
  <path d="m57.492 17.021h2.0508v-0.57422h-2.0508v-0.91796h2.1797v-0.57422h-3.168v3.707h3.2305v-0.57422h-2.2422z"/>
  <path d="m63.523 14.954v1.4922h-1.9922v-1.4922h-0.98828v3.7031h0.98828v-1.6367h1.9922v1.6367h0.98828v-3.7031z"/>
  <path d="m66.516 17.021h2.0469v-0.57422h-2.0469v-0.91796h2.1758v-0.57422h-3.1641v3.707h3.2305v-0.57422h-2.2422z"/>
  <path d="m73.082 14.954h-0.45312v2.793l-1.7383-2.793h-1.3867v3.7031h0.91015v-2.8281l1.7578 2.8281h1.3633v-3.7031z"/>
 </g>
</svg>
