<svg version="1.1" viewBox="0 0 600 310.37" xmlns="http://www.w3.org/2000/svg">
 <g transform="translate(-50.18 -385.32)">
  <g transform="matrix(1.0586 0 0 1.0586 -20.516 -31.666)">
   <path d="m542.25 393.91h-475.47v150.16h475.47v-150.16z" fill="#443a3d"/>
   <path d="m156.57 503.63c0 1.2093-1.0028 2.2122-3.156 3.0086-5.9286 2.0057-11.415 3.0086-16.577 3.0086-7.7574 0-15.161-1.8877-22.358-5.7811-14.335-7.9343-22.328-21.237-22.328-37.636 0-9.0257 2.4776-17.196 7.3149-24.57 4.9258-7.3444 11.562-12.831 19.851-16.282 5.3977-2.3596 11.12-3.451 17.284-3.451 4.1589 0 8.6422 0.6784 13.45 1.8877 1.4748 0.32445 2.5956 0.79638 3.5985 1.2388l1.2388 0.56042c1.0028 0.44244 1.5633 1.2093 1.5633 2.2122v21.561c0 0.56041-0.20647 0.76688-0.56042 0.76688-0.11798 0-0.44243-0.20647-1.0028-0.56042-1.6812-1.6518-4.1589-3.0086-7.4034-4.1294-3.4805-1.2093-6.6365-1.7697-9.3206-1.7697-9.763 0-17.933 5.1322-21.65 13.715-1.2388 2.8021-1.7992 5.8106-1.7992 9.0552 0 6.3416 2.3596 11.503 7.079 15.515 4.3654 3.687 9.763 5.5747 16.164 5.5747 7.2854 0 12.89-2.0057 17.048-6.1351 0.32445-0.44243 0.6784-0.6784 0.88487-0.6784 0.44243 0 0.6784 0.6784 0.6784 2.1237v20.765z" fill="#fff"/>
   <path d="m172.58 423.7h21.886v83.709h-21.886v-83.709z" fill="#fff"/>
   <path d="m274 507.41-40.173-51.234v51.234h-21.886v-83.709h21.886l40.173 51.234v-51.234h21.886v83.709h-21.886z" fill="#fff"/>
   <path d="m311.23 507.41v-83.709h7.2854l1.2388-3.4805h33.212l-1.2388 3.4805h7.3149v18.405h-25.927v13.951h24.57v18.435h-24.57v14.512h25.927v18.405h-47.812z" fill="#fff"/>
   <path d="m633.58 638.34c-150.19 16.282-300.38 32.504-450.58 48.756-4.6308-52.296-9.2911-104.59-13.922-156.86 149.75-8.4947 299.5-17.019 449.22-25.514 5.0732 44.538 10.176 89.077 15.279 133.62" fill="#102d5d"/>
   <path d="m343.63 615.83c-2.5661 7.9048-9.5271 21.473-18.051 22.299-4.1884 0.41294-6.725-1.1798-7.2559-6.43-0.29495-2.7431 0.44244-6.0171 1.2388-10.913 3.8639-24.747 5.7811-37.047 9.6451-61.557 0.50142-3.1855 1.4158-7.7868 1.2388-9.6746-0.23597-2.2417-2.6841-2.8316-5.7812-3.0086 0.0295-1.0618 0.059-1.5928 0.0885-2.6546 7.4034-0.79638 11.12-1.1798 18.553-1.9467-5.1027 31.177-7.6689 46.869-12.772 78.488-0.38344 2.0352-0.79638 4.7488-0.6489 6.2531 0.17697 2.0057 0.6784 2.3302 1.7107 2.2417 3.3035-0.29496 7.8458-11.326 9.0257-14.482 1.2093 0.56041 1.7992 0.82587 3.0086 1.3863" fill="#fff"/>
   <path d="m364.4 622.1c0.35395 3.5985 2.3302 6.2826 5.7516 5.9581 9.3206-0.88487 19.526-33.212 18.464-43.889-0.35395-3.333-2.3596-7.3739-5.8696-7.1084-11.71 0.88487-18.966 38.58-18.346 45.04m38.079-49.287c-3.215 17.786-4.8078 26.694-8.0228 44.627-0.29495 1.5338-0.32445 2.5366-0.26546 2.8906 0.17697 1.7108 1.0618 2.6251 1.6223 2.5661 2.9496-0.26546 6.843-10.648 8.2883-13.362 1.0028 0.58992 1.4748 0.91437 2.4481 1.5043-2.8906 6.548-8.7602 20.087-16.606 20.853-4.3359 0.41294-5.9286-3.038-6.3416-7.1084-0.35395-3.687 0.41294-7.4919 0.64891-11.002-0.11799 0.0295-0.14748 0.0295-0.23597 0.0295-3.569 9.0257-8.2883 19.467-18.877 20.47-7.4919 0.73739-12.182-4.9848-12.949-12.831-1.6223-16.547 11.887-45.689 30.646-47.134 5.4272-0.41294 9.0552 3.097 11.533 3.1855 1.7992 0.059 3.3625-3.097 4.2474-4.3948 1.5338-0.11799 2.3302-0.17698 3.8639-0.29496" fill="#fff"/>
   <path d="m440.14 576.87c-0.7079-3.038-1.9762-3.9229-4.5423-3.9229-3.569 0.0295-6.489 2.5956-6.0761 6.607 0.88487 8.7012 19.526 14.659 21.001 28.994 1.2388 12.034-7.1969 18.199-17.55 19.202-6.725 0.64891-18.199-0.47193-19.143-9.7336-0.29495-2.9201 1.5338-6.2826 4.4833-6.548 10.029-0.91437 7.6689 14.246 16.871 13.362 3.746-0.35395 6.43-5.7222 6.0466-9.3501-1.2388-12.182-19.644-16.075-21.001-29.319-1.0028-9.7336 6.5775-15.19 14.984-15.839 5.0143-0.38344 16.488 1.0324 17.225 8.1113 0.35394 3.2445-1.3273 5.8106-4.5128 6.0761-4.8963 0.38344-6.8135-3.333-7.7868-7.6394" fill="#fff"/>
   <path d="m486.08 573.24c-0.70789-2.9791-1.9762-3.8344-4.5423-3.8344-3.569 0.0295-6.489 2.5366-6.0761 6.489 0.91436 8.5537 19.526 14.394 21.03 28.493 1.2388 11.828-7.1969 17.904-17.55 18.907-6.6955 0.6489-18.199-0.44244-19.143-9.5271-0.29496-2.8906 1.5338-6.1941 4.4833-6.4595 10.029-0.91437 7.6689 14.01 16.901 13.126 3.7459-0.35395 6.4006-5.6632 6.0171-9.2321-1.2683-11.975-19.674-15.78-21.03-28.817-1.0028-9.5566 6.5775-14.925 14.984-15.574 5.0143-0.38344 16.488 1.0029 17.225 7.9638 0.35394 3.1855-1.3273 5.6927-4.5128 5.9581-4.8963 0.41294-6.784-3.2445-7.7868-7.4919" fill="#fff"/>
   <path d="m529.04 551.38c-3.51 0.26546-7.1379-2.5366-7.5804-6.5185-0.41293-3.9819 2.5366-7.2559 6.0761-7.4919 3.51-0.23597 7.1379 2.5956 7.5804 6.548 0.41294 3.9524-2.5661 7.1969-6.0761 7.4624m7.5509 48.432c-3.097 7.3444-8.6717 18.73-17.432 19.585-3.3035 0.32445-6.3416-1.1798-6.7545-5.0732-0.14748-1.3863-0.26546-3.51 1.0618-8.4947 2.5661-10.117 3.8639-15.161 6.4595-25.219 0.91437-3.392 1.4748-5.5452 1.3568-6.607-0.11798-1.1503-0.50143-1.6222-1.5338-1.5338-3.4215 0.26546-6.1056 8.4063-9.6156 14.158-1.0323-0.41294-1.5633-0.61941-2.6251-1.0618 4.4833-10.589 10.618-21.591 16.989-22.092 4.4538-0.32446 7.1674 2.5366 7.5804 6.2531 0.20647 1.9762-0.29496 5.8991-1.3863 10.589-2.5071 9.6746-3.7459 14.512-6.2236 24.245-0.64891 2.5366-1.0618 4.1294-0.88487 5.7811 0.0885 0.6784 0.82588 1.2093 1.5043 1.1503 3.1855-0.29495 7.5214-10.264 8.8487-12.86 1.0618 0.47193 1.5928 0.7079 2.6546 1.1798" fill="#fff"/>
   <path d="m585.6 592.72c-4.6308 9.881-9.7041 21.178-22.004 22.387-9.2026 0.88487-14.984-3.5985-16.046-13.244-1.6812-15.544 8.3768-40.792 26.133-42.149 5.1027-0.38345 13.656 1.2683 14.246 6.7545 0.44244 3.7754-0.79638 7.079-5.1322 7.4329-4.1884 0.35395-6.43-2.2417-6.843-6.0171-0.53092-4.8373-1.2093-5.6926-4.0409-5.4862-9.999 0.76688-12.477 30.439-11.621 38.197 0.79639 7.3739 2.7431 9.2026 7.4034 8.7602 7.1674-0.6784 12.093-12.064 14.925-17.638 1.1798 0.41294 1.7992 0.58991 2.9791 1.0028" fill="#fff"/>
   <path d="m300.13 611.28c-2.6546 13.627-3.9819 20.47-6.6365 34.185-1.2388-0.29496-1.8582-0.41294-3.0675-0.7079 0.70789-2.2712-1.5338-3.6574-4.2474-3.392-2.8316 0.26546-10.235 5.8106-20.44 6.8135-20.647 2.0352-38.138-12.447-39.996-35.926-2.5661-32.475 19.497-72.677 54.213-75.656 8.4063-0.7079 17.019 3.156 24.599 7.8458 1.7697-1.0323 2.6546-1.5338 4.3948-2.5661 0.85537 0.6784 1.2683 1.0324 2.1237 1.7402-2.0942 12.801-3.1265 19.202-5.2207 32.062-1.6812-0.23596-2.5366-0.32445-4.2179-0.56042-0.059-2.1532-0.17698-4.6013-0.41294-7.0494-1.2388-13.067-5.6042-29.732-19.349-27.667-29.85 4.4833-38.787 50.32-36.575 78.016 1.0028 12.742 8.3473 26.988 21.237 25.72 15.102-1.4453 24.216-20.735 29.555-34.392 1.6223 0.61941 2.4186 0.91436 4.0409 1.5338" fill="#fff"/>
   <path d="m480.51 477.44v30.145c0 1.1208-0.20647 1.5633-1.1208 1.5633h-22.977c-0.76688 0-1.2388-0.56042-1.2388-1.3568v-30.115c0-1.2388-0.44244-1.6812-1.4453-1.6812h-29.791c-0.91436 0-1.3568-0.56041-1.3568-1.5928v-22.83c0-0.91437 0.35395-1.3273 1.2388-1.3273h30.027c0.88486 0 1.3273-0.47193 1.3273-1.4748v-25.868c0-0.6784 0.47193-1.1208 1.1208-1.1208h22.889c0.88487 0 1.3273 0.32445 1.3273 1.1208v25.868c0 1.2093 0.23597 1.4748 1.2388 1.4748h30.027c0.88487 0 1.2388 0.41294 1.2388 1.4453v22.948c0 0.79638-0.44244 1.3568-1.2388 1.3568h-29.702c-1.2093 0-1.5633 0.23597-1.5633 1.4453" fill="#fff"/>
  </g>
 </g>
</svg>
