<svg width="600" height="310.32" version="1.1" xmlns="http://www.w3.org/2000/svg">
 <defs>
  <clipPath id="clipPath122075">
   <path d="m45.293 283.84h19.899v10.417h-19.899v-10.417z"/>
  </clipPath>
 </defs>
 <g transform="translate(28.571 -557.2)">
  <g transform="matrix(30.152 0 0 -30.152 -1394.3 9429.7)">
   <g clip-path="url(#clipPath122075)">
    <path d="m61.983 294.26h-16.69v-5.271h16.69v5.271z" fill="#443a3d"/>
    <g transform="translate(48.445 290.4)">
     <path d="m0 0c0-0.043-0.035-0.078-0.11-0.106-0.209-0.07-0.402-0.106-0.583-0.106-0.272 0-0.532 0.067-0.784 0.204-0.504 0.278-0.784 0.745-0.784 1.321 0 0.317 0.087 0.603 0.256 0.862 0.173 0.258 0.406 0.45 0.698 0.572 0.188 0.082 0.389 0.121 0.606 0.121 0.146 0 0.303-0.023 0.473-0.066 0.051-0.012 0.09-0.028 0.126-0.044l0.043-0.019c0.035-0.016 0.055-0.043 0.055-0.078v-0.757c0-0.019-8e-3 -0.027-0.02-0.027-4e-3 0-0.015 8e-3 -0.035 0.02-0.059 0.058-0.146 0.105-0.26 0.145-0.122 0.043-0.233 0.062-0.327 0.062-0.343 0-0.63-0.18-0.76-0.482-0.043-0.098-0.063-0.204-0.063-0.317 0-0.224 0.083-0.404 0.248-0.545 0.153-0.129 0.343-0.196 0.567-0.196 0.256 0 0.453 0.071 0.599 0.216 0.012 0.015 0.023 0.023 0.031 0.023 0.016 0 0.024-0.023 0.024-0.074v-0.729z" fill="#fff"/>
    </g>
    <path d="m49.008 293.21h0.768v-2.939h-0.768v2.939z" fill="#fff"/>
    <g transform="translate(52.568 290.27)">
     <path d="m0 0-1.41 1.798v-1.798h-0.768v2.939h0.768l1.41-1.799v1.799h0.768v-2.939h-0.768z" fill="#fff"/>
    </g>
    <g transform="translate(53.874 290.27)">
     <path d="m0 0v2.939h0.256l0.043 0.121h1.166l-0.043-0.121h0.256v-0.647h-0.91v-0.49h0.863v-0.646h-0.863v-0.51h0.91v-0.646h-1.678z" fill="#fff"/>
    </g>
    <g transform="translate(65.192 285.67)">
     <path d="m0 0c-5.273-0.57-10.546-1.141-15.819-1.71-0.196 2.202-0.294 3.304-0.489 5.506 5.257 0.298 10.515 0.597 15.771 0.895 0.215-1.876 0.322-2.814 0.537-4.691" fill="#0994dc"/>
    </g>
    <g transform="translate(51.454 287.8)">
     <path d="m0 0c0.011-0.115 0.02-0.22 0.029-0.318s0.018-0.19 0.026-0.279 0.016-0.175 0.024-0.26c8e-3 -0.086 0.016-0.171 0.024-0.26s0.016-0.181 0.025-0.279c9e-3 -0.099 0.019-0.204 0.03-0.318 0.12 0.011 0.23 0.022 0.331 0.032 0.102 9e-3 0.196 0.018 0.288 0.027 0.092 8e-3 0.181 0.017 0.273 0.026 0.092 8e-3 0.186 0.018 0.288 0.027 0.102 0.01 0.211 0.02 0.331 0.031-0.01 0.115-0.018 0.201-0.026 0.286s-0.016 0.17-0.027 0.284c0.114-0.016 0.2-0.028 0.286-0.039 0.086-0.012 0.172-0.024 0.286-0.039 0.012-0.124 0.018-0.187 0.03-0.311 0.011-0.123 0.012-0.225-1e-3 -0.309-0.013-0.083-0.039-0.15-0.081-0.202-0.041-0.052-0.099-0.089-0.175-0.117-0.075-0.028-0.168-0.046-0.281-0.057-0.115-0.012-0.219-0.022-0.316-0.032-0.096-0.01-0.186-0.019-0.273-0.028-0.088-9e-3 -0.173-0.017-0.26-0.026-0.088-9e-3 -0.178-0.018-0.274-0.028-0.097-0.01-0.2-0.02-0.315-0.031-0.114-0.012-0.208-0.013-0.287-1e-3 -0.079 0.013-0.143 0.04-0.194 0.084s-0.089 0.105-0.117 0.188-0.047 0.187-0.059 0.314c-0.01 0.115-0.02 0.219-0.028 0.316-9e-3 0.096-0.017 0.186-0.025 0.273s-0.016 0.173-0.024 0.26-0.016 0.177-0.025 0.273-0.018 0.2-0.028 0.315c-0.012 0.128-0.013 0.234 0 0.32s0.039 0.153 0.081 0.205 0.1 0.088 0.175 0.114c0.075 0.025 0.168 0.039 0.282 0.046 0.114 8e-3 0.218 0.015 0.315 0.021 0.096 6e-3 0.186 0.011 0.273 0.017 0.088 6e-3 0.173 0.011 0.26 0.017 0.087 5e-3 0.177 0.01 0.274 0.017 0.097 6e-3 0.2 0.013 0.315 0.02 0.114 8e-3 0.208 5e-3 0.287-0.01s0.143-0.043 0.194-0.087c0.05-0.045 0.089-0.105 0.117-0.186s0.047-0.181 0.059-0.305c9e-3 -0.1 0.014-0.15 0.024-0.249-0.111-0.028-0.193-0.049-0.276-0.07s-0.166-0.042-0.276-0.07c-9e-3 0.1-0.016 0.176-0.023 0.251-7e-3 0.076-0.015 0.152-0.024 0.252-0.121-8e-3 -0.23-0.016-0.332-0.023-0.101-7e-3 -0.195-0.014-0.287-0.02s-0.182-0.012-0.274-0.019c-0.092-6e-3 -0.186-0.013-0.288-0.02-0.101-7e-3 -0.21-0.015-0.331-0.023" fill="#fff"/>
    </g>
    <g transform="translate(54.564 288.17)">
     <path d="m0 0c0.097 6e-3 0.17 0.012 0.243 0.016 0.073 5e-3 0.145 0.01 0.242 0.016 0.011-0.115 0.022-0.22 0.031-0.318 0.01-0.099 0.019-0.19 0.027-0.279 9e-3 -0.088 0.017-0.173 0.025-0.258 9e-3 -0.085 0.017-0.17 0.026-0.258 8e-3 -0.088 0.017-0.18 0.026-0.278 0.01-0.097 0.02-0.202 0.031-0.316 0.124 0.012 0.235 0.022 0.34 0.032 0.104 9e-3 0.201 0.018 0.295 0.027s0.186 0.017 0.28 0.027c0.094 8e-3 0.191 0.018 0.295 0.027 0.104 0.01 0.215 0.02 0.339 0.032 8e-3 -0.077 0.014-0.135 0.02-0.194 5e-3 -0.057 0.011-0.115 0.019-0.194-0.116-0.011-0.224-0.022-0.326-0.032s-0.198-0.02-0.291-0.029c-0.092-9e-3 -0.181-0.018-0.269-0.027s-0.174-0.017-0.262-0.026c-0.088-8e-3 -0.177-0.017-0.27-0.026-0.092-9e-3 -0.189-0.019-0.291-0.029s-0.21-0.021-0.326-0.033c-0.012 0.123-0.022 0.236-0.033 0.343-0.01 0.107-0.02 0.206-0.029 0.303-9e-3 0.096-0.018 0.188-0.027 0.279s-0.017 0.181-0.026 0.272-0.018 0.183-0.027 0.279-0.019 0.196-0.029 0.302c-0.01 0.107-0.021 0.219-0.033 0.342" fill="#fff"/>
    </g>
    <g transform="translate(57.872 286.74)">
     <path d="m0 0c0.11 0.01 0.209 0.02 0.301 0.029 0.092 8e-3 0.178 0.016 0.261 0.024 0.084 8e-3 0.165 0.015 0.248 0.023 0.084 8e-3 0.169 0.016 0.262 0.025 0.092 8e-3 0.191 0.018 0.3 0.028-0.011 0.107-0.021 0.205-0.03 0.297-0.01 0.092-0.019 0.177-0.027 0.259-9e-3 0.083-0.017 0.163-0.025 0.242-8e-3 0.08-0.017 0.159-0.026 0.241-8e-3 0.084-0.017 0.17-0.026 0.262-0.01 0.092-0.02 0.192-0.032 0.3 0.097 7e-3 0.17 0.012 0.243 0.017s0.146 0.01 0.243 0.016c0.012-0.122 0.024-0.23 0.034-0.331 0.011-0.1 0.021-0.193 0.03-0.284 9e-3 -0.09 0.019-0.177 0.028-0.267 9e-3 -0.091 0.019-0.183 0.03-0.282 0.01-0.1 0.021-0.207 0.033-0.327 0.013-0.122 9e-3 -0.216-0.017-0.289s-0.073-0.125-0.147-0.161c-0.074-0.037-0.174-0.058-0.304-0.071-0.105-0.01-0.199-0.019-0.287-0.028s-0.169-0.017-0.249-0.025c-0.079-8e-3 -0.157-0.016-0.236-0.024-0.079-7e-3 -0.161-0.015-0.249-0.024s-0.182-0.018-0.286-0.029c-0.131-0.012-0.233-0.011-0.312 0.011s-0.135 0.065-0.175 0.134-0.063 0.164-0.076 0.291c-0.012 0.123-0.023 0.235-0.034 0.339-0.01 0.103-0.02 0.199-0.029 0.293-0.01 0.094-0.019 0.185-0.029 0.279-9e-3 0.094-0.018 0.19-0.029 0.295-0.01 0.104-0.022 0.216-0.034 0.342 0.096 7e-3 0.168 0.012 0.24 0.017s0.144 0.01 0.24 0.016c0.012-0.111 0.022-0.212 0.031-0.307 0.01-0.094 0.019-0.182 0.027-0.267 9e-3 -0.085 0.017-0.166 0.026-0.247 8e-3 -0.082 0.016-0.163 0.025-0.247 8e-3 -0.085 0.017-0.172 0.026-0.266 0.01-0.094 0.02-0.194 0.031-0.304" fill="#fff"/>
    </g>
    <g transform="translate(61.323 287.54)">
     <path d="m0 0c0.01-0.096 0.018-0.169 0.026-0.241 8e-3 -0.073 0.016-0.146 0.026-0.244 0.108 0.01 0.202 0.02 0.29 0.028s0.169 0.016 0.249 0.023c0.081 8e-3 0.162 0.015 0.25 0.024 0.087 8e-3 0.181 0.017 0.289 0.026 0.082 8e-3 0.139 0.022 0.175 0.05 0.035 0.028 0.048 0.072 0.04 0.141l-0.015 0.14c-7e-3 0.067-0.03 0.107-0.07 0.129-0.041 0.02-0.1 0.023-0.182 0.016-0.107-9e-3 -0.202-0.017-0.29-0.025-0.087-7e-3 -0.168-0.014-0.249-0.021s-0.162-0.014-0.249-0.021c-0.088-8e-3 -0.182-0.016-0.29-0.025m-0.081 0.76c9e-3 -0.09 0.016-0.158 0.024-0.225 7e-3 -0.067 0.014-0.134 0.023-0.223 0.108 8e-3 0.203 0.016 0.29 0.023 0.088 7e-3 0.169 0.014 0.25 0.02s0.161 0.013 0.249 0.019c0.088 8e-3 0.182 0.015 0.29 0.024 0.144 0.011 0.212 0.039 0.2 0.148-8e-3 0.07-0.011 0.105-0.02 0.175-0.011 0.11-0.079 0.127-0.228 0.117-0.108-8e-3 -0.202-0.015-0.29-0.021-0.088-7e-3 -0.169-0.013-0.249-0.018-0.081-6e-3 -0.162-0.012-0.25-0.018-0.087-6e-3 -0.182-0.013-0.289-0.021m-0.51 0.282c0.118 8e-3 0.226 0.015 0.328 0.022s0.197 0.014 0.289 0.02 0.181 0.012 0.269 0.018c0.089 6e-3 0.178 0.012 0.269 0.018 0.092 7e-3 0.187 0.013 0.289 0.02s0.211 0.014 0.329 0.022c0.106 7e-3 0.194 2e-3 0.266-0.018s0.127-0.055 0.167-0.107c0.04-0.051 0.064-0.12 0.074-0.207 0.01-0.089 0.015-0.133 0.025-0.221 9e-3 -0.084-0.014-0.156-0.065-0.213-0.052-0.057-0.237-0.126-0.237-0.126 0-1e-3 0.206-0.042 0.272-0.097s0.106-0.131 0.117-0.224c0.01-0.094 0.015-0.141 0.026-0.236 9e-3 -0.082-6e-3 -0.153-0.046-0.213-0.039-0.059-0.103-0.107-0.19-0.144-0.087-0.036-0.199-0.061-0.335-0.075-0.109-0.01-0.209-0.02-0.304-0.03-0.094-9e-3 -0.182-0.018-0.267-0.026-0.086-9e-3 -0.168-0.017-0.25-0.025s-0.164-0.017-0.249-0.025-0.174-0.017-0.268-0.027c-0.094-9e-3 -0.195-0.019-0.304-0.029-0.013 0.113-0.024 0.217-0.034 0.313-0.01 0.098-0.02 0.189-0.029 0.276-0.01 0.087-0.018 0.17-0.027 0.252s-0.017 0.163-0.026 0.245-0.018 0.165-0.027 0.251c-9e-3 0.087-0.019 0.178-0.029 0.274-0.01 0.097-0.021 0.2-0.033 0.312" fill="#fff"/>
    </g>
    <g transform="translate(59.816 291.32)">
     <path d="m0 0v-1.058c0-0.039-8e-3 -0.055-0.039-0.055h-0.807c-0.027 0-0.043 0.02-0.043 0.047v1.058c0 0.043-0.016 0.059-0.051 0.059h-1.046c-0.031 0-0.047 0.02-0.047 0.055v0.802c0 0.032 0.012 0.047 0.043 0.047h1.054c0.031 0 0.047 0.016 0.047 0.051v0.909c0 0.024 0.016 0.039 0.039 0.039h0.803c0.031 0 0.047-0.012 0.047-0.039v-0.909c0-0.042 8e-3 -0.051 0.043-0.051h1.055c0.031 0 0.043-0.015 0.043-0.051v-0.806c0-0.027-0.016-0.047-0.043-0.047h-1.043c-0.043 0-0.055-8e-3 -0.055-0.051" fill="#fff"/>
    </g>
   </g>
  </g>
 </g>
</svg>
