<svg version="1.1" viewBox="0 0 600 310.43" xmlns="http://www.w3.org/2000/svg">
 <g transform="translate(-125.12 -728.82)">
  <g transform="matrix(1.0215 0 0 1.0215 -9.1285 -18.982)">
   <path d="m131.43 887.72h492.8v-155.64h-492.8v155.64z" fill="#413d46"/>
   <g transform="matrix(35.517 0 0 -35.517 224.48 845.81)">
    <path d="m0 0c0-0.036-0.03-0.065-0.092-0.088-0.173-0.059-0.334-0.088-0.484-0.088-0.226 0-0.442 0.055-0.652 0.17-0.419 0.231-0.652 0.619-0.652 1.097 0 0.264 0.073 0.502 0.214 0.717 0.143 0.215 0.337 0.375 0.579 0.476 0.157 0.068 0.324 0.1 0.504 0.1 0.121 0 0.252-0.019 0.393-0.055 0.043-0.01 0.075-0.023 0.105-0.036l0.036-0.016c0.029-0.013 0.046-0.036 0.046-0.065v-0.629c0-0.016-7e-3 -0.023-0.017-0.023-3e-3 0-0.013 7e-3 -0.029 0.017-0.049 0.048-0.121 0.088-0.216 0.12-0.102 0.036-0.193 0.052-0.272 0.052-0.285 0-0.524-0.15-0.632-0.4-0.036-0.082-0.052-0.17-0.052-0.264 0-0.186 0.068-0.336 0.206-0.453 0.128-0.108 0.285-0.163 0.472-0.163 0.212 0 0.376 0.059 0.497 0.179 0.01 0.013 0.02 0.02 0.026 0.02 0.013 0 0.02-0.02 0.02-0.062v-0.606" fill="#fff"/>
   </g>
   <path d="m241.07 849.75h22.66v-86.768h-22.66v86.768z" fill="#fff"/>
   <g transform="matrix(35.517 0 0 -35.517 346.19 849.74)">
    <path d="m0 0-1.172 1.495v-1.495h-0.639v2.443h0.639l1.172-1.495v1.495h0.638v-2.443h-0.638z" fill="#fff"/>
   </g>
   <g transform="matrix(35.517 0 0 -35.517 384.76 849.74)">
    <path d="m0 0v2.443h0.213l0.036 0.101h0.969l-0.036-0.101h0.213v-0.538h-0.756v-0.407h0.717v-0.537h-0.717v-0.424h0.756v-0.537h-1.395z" fill="#fff"/>
   </g>
   <g transform="matrix(35.517 0 0 -35.517 718.82 985.44)">
    <path d="m0 0c-4.382-0.474-8.764-0.948-13.147-1.423-0.162 1.832-0.244 2.747-0.406 4.578l13.107 0.744c0.179-1.559 0.267-2.34 0.446-3.899" fill="#33a077"/>
   </g>
   <g transform="matrix(35.517 0 0 -35.517 308.36 909.3)">
    <path d="m0 0c-0.069 0.027-0.104 0.041-0.173 0.069l-0.16-0.1c-0.11-0.022-0.165-0.034-0.275-0.056-0.013-0.066-0.019-0.099-0.031-0.165 0.019-0.096 0.03-0.144 0.05-0.24 6e-3 -0.051 9e-3 -0.077 0.015-0.129 0.015-0.132 0.022-0.198 0.037-0.331 0.031-0.015 0.047-0.023 0.078-0.038 0.111 0.012 0.167 0.019 0.278 0.031 0.051-0.017 0.077-0.026 0.128-0.043 0.033-0.054 0.05-0.08 0.083-0.134-3e-3 -0.063-4e-3 -0.095-7e-3 -0.159-0.014-0.025-0.022-0.038-0.036-0.063-0.178-0.03-0.267-0.045-0.445-0.075-0.026-0.034-0.039-0.052-0.066-0.087 0.037-0.423 0.055-0.634 0.092-1.058-0.04-0.059-0.06-0.089-0.1-0.148-0.065-9e-3 -0.097-0.013-0.162-0.021-0.046 0.059-0.07 0.089-0.116 0.148-0.015 0.32-0.022 0.479-0.037 0.798-0.036 0.324-0.055 0.486-0.091 0.809 0.011 0.088 0.016 0.132 0.027 0.219-0.024 0.218-0.036 0.328-0.06 0.546 1e-3 0.165 1e-3 0.248 1e-3 0.412 0.025 0.024 0.038 0.037 0.063 0.061 0.049 5e-3 0.073 7e-3 0.122 0.013 0.042 0.036 0.063 0.054 0.105 0.091 0.171 5e-3 0.256 7e-3 0.427 0.012 0.059-0.017 0.088-0.025 0.146-0.043 0.066-5e-3 0.098-8e-3 0.164-0.013 0.024-0.031 0.036-0.046 0.06-0.076 5e-3 -0.053 8e-3 -0.08 0.012-0.133-0.051-0.039-0.077-0.058-0.129-0.097" fill="#fbfbfb"/>
   </g>
   <g transform="matrix(35.517 0 0 -35.517 363.77 911.06)">
    <path d="m0 0c-0.036 0.051-0.054 0.077-0.09 0.128-0.121-0.011-0.181-0.017-0.302-0.029 0.01-0.169 0.015-0.254 0.025-0.424-1e-3 -0.073-2e-3 -0.11-4e-3 -0.184 0.015-0.129 0.023-0.194 0.038-0.323 0.03 4e-3 0.044 6e-3 0.074 0.01 0.108 0.023 0.162 0.034 0.271 0.057 0.025 0.055 0.037 0.082 0.062 0.136-0.03 0.252-0.044 0.377-0.074 0.629m0.579-2.354c-0.061-0.049-0.091-0.073-0.152-0.122-0.038 6e-3 -0.057 8e-3 -0.094 0.014-0.036 0.048-0.054 0.073-0.09 0.122-0.032 0.114-0.049 0.172-0.081 0.286-0.018 0.072-0.027 0.107-0.045 0.179-0.028 0.071-0.042 0.106-0.07 0.176-0.033 0.137-0.049 0.206-0.082 0.343l-0.065 0.125c-0.043 0.029-0.063 0.042-0.106 0.07-0.027-3e-3 -0.04-5e-3 -0.067-9e-3 -0.025-0.035-0.037-0.053-0.062-0.089 0.041-0.371 0.062-0.557 0.105-0.928 8e-3 -0.073 0.012-0.109 0.02-0.181-0.015-0.036-0.023-0.053-0.038-0.088-0.015-0.021-0.023-0.031-0.038-0.052-0.059-7e-3 -0.088-0.011-0.147-0.018-0.043 0.058-0.064 0.086-0.106 0.145-0.063 0.638-0.094 0.957-0.157 1.596l-0.015 0.13c-0.025 0.311-0.038 0.465-0.062 0.775 8e-3 0.076 0.013 0.114 0.021 0.19 9e-3 0.011 0.013 0.017 0.022 0.029l0.155 0.09c0.046 0.014 0.07 0.021 0.117 0.036 0.173-7e-3 0.259-0.01 0.433-0.015 0.059-0.025 0.089-0.037 0.147-0.062 0.033-0.029 0.049-0.044 0.082-0.073 0.041-0.133 0.061-0.2 0.102-0.333 0.015-0.127 0.023-0.19 0.038-0.317 0.024-0.208 0.036-0.313 0.06-0.52l-0.155-0.31c0.029-0.082 0.044-0.123 0.073-0.204 0.091-0.301 0.136-0.451 0.228-0.751 0.023-0.026 0.035-0.039 0.059-0.065-0.012-0.068-0.018-0.102-0.03-0.169" fill="#fbfbfb"/>
   </g>
   <g transform="matrix(35.517 0 0 -35.517 427.2 991.1)">
    <path d="m0 0c-0.082-9e-3 -0.122-0.014-0.204-0.024-0.043 0.035-0.065 0.052-0.108 0.086-0.065 0.552-0.097 0.827-0.162 1.378-8e-3 0.072-0.013 0.108-0.021 0.179-0.011 0.346-0.017 0.519-0.027 0.865-0.011 0.093-0.016 0.14-0.026 0.232 0.04 0.055 0.06 0.082 0.1 0.136 0.03-4e-3 0.045-7e-3 0.076-0.011 0.015 1e-3 0.022 2e-3 0.038 2e-3 0.021-0.018 0.033-0.028 0.054-0.046 0.024-0.198 0.035-0.296 0.059-0.494-0.013-0.052-0.02-0.079-0.033-0.131-0.031-0.046-0.047-0.069-0.078-0.115 0.052-0.046 0.077-0.069 0.129-0.115-0.018-0.063-0.028-0.095-0.046-0.159 0.041-0.04 0.062-0.06 0.103-0.101 1e-3 -0.104 2e-3 -0.157 4e-3 -0.26 0.03-0.249 0.045-0.373 0.075-0.621 0.027-0.141 0.04-0.211 0.066-0.353 0.015-0.126 0.023-0.189 0.038-0.315-0.015-0.053-0.022-0.08-0.037-0.133" fill="#fbfbfb"/>
   </g>
   <g transform="matrix(35.517 0 0 -35.517 487.28 983.48)">
    <path d="m0 0c-0.072-0.038-0.108-0.057-0.179-0.095-0.068-0.018-0.102-0.029-0.17-0.047-0.035-5e-3 -0.052-8e-3 -0.088-0.013-0.069 0.021-0.103 0.031-0.172 0.052-0.082 0.054-0.124 0.081-0.206 0.134-0.046 0.056-0.07 0.084-0.117 0.14-0.016 0.131-0.024 0.196-0.039 0.328 0.034 0.037 0.052 0.056 0.086 0.093 0.058-4e-3 0.086-6e-3 0.143-0.01 0.036-0.047 0.054-0.069 0.09-0.115 0.014-0.064 0.02-0.096 0.034-0.159 0.075-0.04 0.113-0.06 0.188-0.101 0.064 0.018 0.095 0.028 0.159 0.046 0.038 0.076 0.057 0.114 0.095 0.189-2e-3 0.092-3e-3 0.137-5e-3 0.229-9e-3 0.071-0.013 0.107-0.022 0.178-0.039 0.077-0.059 0.116-0.098 0.194-0.019 0.02-0.028 0.029-0.047 0.049-0.148 0.015-0.222 0.023-0.37 0.038-0.071 0.043-0.106 0.065-0.178 0.108-0.052 0.056-0.078 0.084-0.131 0.14-0.03 0.079-0.045 0.119-0.076 0.198-0.027 0.226-0.04 0.339-0.067 0.566 0.037 0.105 0.055 0.156 0.091 0.261 0.067 0.082 0.101 0.122 0.168 0.204 0.072 0.035 0.107 0.053 0.179 0.088 0.102-1e-3 0.153-1e-3 0.255-2e-3 0.062-0.023 0.093-0.035 0.155-0.058 0.055-0.067 0.082-0.1 0.137-0.167 0.016-0.05 0.025-0.076 0.041-0.126-0.017-0.024-0.026-0.036-0.043-0.06 7e-3 -0.059 0.01-0.089 0.018-0.148-0.018-0.022-0.026-0.034-0.044-0.056-0.015-3e-3 -0.023-4e-3 -0.038-7e-3 -0.08 0.086-0.12 0.129-0.199 0.215-0.019 0.018-0.028 0.027-0.047 0.046-0.094-0.029-0.141-0.044-0.234-0.074-0.024-0.125-0.037-0.187-0.061-0.311 0.024-0.112 0.035-0.168 0.059-0.28 5e-3 -0.032 8e-3 -0.048 0.012-0.08 0.072-0.053 0.108-0.078 0.18-0.131l0.245-0.03c0.093-0.083 0.14-0.124 0.234-0.206 0.051-0.219 0.078-0.328 0.13-0.546 7e-3 -0.032 0.01-0.048 0.018-0.078 0.01-0.141 0.015-0.211 0.024-0.352-0.044-0.097-0.066-0.147-0.11-0.244" fill="#fbfbfb"/>
   </g>
   <g transform="matrix(35.517 0 0 -35.517 511.17 884.6)">
    <path d="m0 0c0.072 0.035 0.107 0.052 0.179 0.087 0.068 0.016 0.102 0.024 0.169 0.041 0.035 4e-3 0.053 5e-3 0.088 9e-3 0.069-0.023 0.103-0.033 0.172-0.056 0.082-0.054 0.123-0.081 0.206-0.136 0.046-0.055 0.07-0.082 0.117-0.137 0.016-0.127 0.024-0.19 0.04-0.318-0.035-0.035-0.052-0.053-0.087-0.088-0.057 4e-3 -0.086 7e-3 -0.143 0.012-0.036 0.045-0.054 0.068-0.09 0.113-0.013 0.062-0.02 0.093-0.033 0.155-0.076 0.04-0.113 0.061-0.188 0.102-0.064-0.016-0.096-0.024-0.159-0.04-0.038-0.073-0.057-0.11-0.095-0.184 3e-3 -0.09 4e-3 -0.135 6e-3 -0.225 8e-3 -0.07 0.013-0.105 0.021-0.175 0.04-0.077 0.059-0.116 0.098-0.192 0.019-0.02 0.029-0.03 0.048-0.049 0.148-0.016 0.221-0.023 0.37-0.038 0.071-0.042 0.106-0.063 0.177-0.105 0.053-0.055 0.08-0.081 0.132-0.135 0.03-0.077 0.046-0.115 0.077-0.191 0.027-0.219 0.041-0.328 0.068-0.547-0.037-0.102-0.055-0.153-0.091-0.255-0.067-0.082-0.101-0.122-0.168-0.204-0.072-0.037-0.107-0.055-0.179-0.092-0.102-3e-3 -0.154-4e-3 -0.256-7e-3 -0.062 0.021-0.093 0.032-0.155 0.053-0.055 0.064-0.082 0.096-0.137 0.161-0.017 0.049-0.025 0.074-0.042 0.124 0.018 0.024 0.026 0.036 0.044 0.061-8e-3 0.058-0.011 0.087-0.019 0.145 0.018 0.023 0.027 0.034 0.044 0.058 0.016 2e-3 0.023 3e-3 0.039 6e-3 0.08-0.083 0.119-0.124 0.199-0.207 0.019-0.018 0.029-0.027 0.047-0.045 0.094 0.032 0.141 0.047 0.234 0.079 0.025 0.122 0.037 0.183 0.061 0.306-0.024 0.108-0.036 0.163-0.06 0.271-5e-3 0.031-7e-3 0.047-0.012 0.078-0.072 0.051-0.108 0.076-0.18 0.127-0.098 0.012-0.147 0.018-0.245 0.029-0.086 0.081-0.13 0.122-0.216 0.204-0.037 0.218-0.055 0.327-0.091 0.544-0.023 0.03-0.035 0.045-0.058 0.075-0.017 0.14-0.025 0.209-0.042 0.348 0.044 0.096 0.066 0.143 0.11 0.238" fill="#fbfbfb"/>
   </g>
   <g transform="matrix(35.517 0 0 -35.517 594.2 892.25)">
    <path d="m0 0c-0.095 2e-3 -0.143 3e-3 -0.238 5e-3 -0.025-0.044-0.038-0.066-0.063-0.111-4e-3 -0.116-7e-3 -0.175-0.012-0.291 0.027-0.045 0.04-0.068 0.066-0.113 0.013-0.24 0.019-0.361 0.032-0.601 0.016-0.126 0.025-0.188 0.041-0.313 5e-3 -0.168 7e-3 -0.251 0.012-0.42 0.033-0.044 0.05-0.066 0.083-0.109 0.099-0.019 0.149-0.028 0.247-0.047 0.035 0.036 0.052 0.054 0.087 0.089 0.015 0.08 0.023 0.121 0.039 0.202-0.042 0.387-0.063 0.581-0.104 0.969-0.023 0.254-0.035 0.381-0.058 0.636-0.053 0.041-0.079 0.062-0.132 0.104m0.634-1.889c-0.028-0.084-0.042-0.125-0.071-0.209-0.077-0.07-0.116-0.106-0.194-0.176-0.063-0.025-0.094-0.038-0.157-0.064-0.087-1e-3 -0.131-2e-3 -0.217-3e-3 -0.091 0.036-0.137 0.055-0.228 0.092-0.066 0.072-0.099 0.107-0.165 0.18-0.034 0.106-0.051 0.159-0.085 0.266 0.016 0.04 0.024 0.06 0.04 0.099-8e-3 0.12-0.011 0.179-0.018 0.298 0.018 0.071 0.027 0.107 0.045 0.178-5e-3 0.038-8e-3 0.057-0.013 0.095-0.056 0.146-0.083 0.219-0.139 0.365-0.026 0.193-0.039 0.29-0.065 0.483 0.022 0.061 0.033 0.092 0.055 0.152-9e-3 0.072-0.014 0.107-0.023 0.179 0.108 0.107 0.162 0.159 0.27 0.265 0.045 0.015 0.068 0.022 0.113 0.037 0.095-1e-3 0.143-1e-3 0.238-2e-3 0.092-0.04 0.138-0.059 0.23-0.099 0.066-0.072 0.099-0.109 0.165-0.181 0.039-0.297 0.059-0.447 0.098-0.744 0.01-0.078 0.015-0.117 0.025-0.194 0.015-0.118 0.023-0.176 0.038-0.293 0.023-0.29 0.035-0.435 0.058-0.724" fill="#fbfbfb"/>
   </g>
   <g transform="matrix(35.517 0 0 -35.517 680.75 933.53)">
    <path d="m0 0c0.036-0.276 0.055-0.414 0.092-0.69-0.022-0.059-0.033-0.089-0.055-0.148-0.026-0.023-0.039-0.034-0.065-0.057-0.046-6e-3 -0.07-8e-3 -0.116-0.015-0.051 0.034-0.076 0.051-0.127 0.085-0.058 0.137-0.087 0.206-0.146 0.344-0.022 0.027-0.034 0.04-0.057 0.066-0.017 0.057-0.026 0.084-0.043 0.14-0.02 0.027-0.031 0.04-0.051 0.068-0.033 0.09-0.049 0.135-0.082 0.226-0.052 0.101-0.079 0.152-0.131 0.254-0.019 0.017-0.029 0.026-0.048 0.043-0.017-0.021-0.026-0.032-0.043-0.054 8e-3 -0.221 0.013-0.332 0.022-0.553 0.029-0.218 0.044-0.326 0.074-0.544-0.023-0.053-0.034-0.08-0.057-0.132-0.025-0.014-0.038-0.021-0.064-0.036-0.029-2e-3 -0.044-4e-3 -0.074-7e-3 -0.063 0.059-0.095 0.088-0.158 0.147-8e-3 0.207-0.011 0.31-0.018 0.517l-0.12 1.1c-4e-3 0.07-6e-3 0.105-9e-3 0.176-0.014 0.258-0.021 0.386-0.036 0.644 0.019 0.011 0.029 0.017 0.047 0.028 0.058-5e-3 0.086-7e-3 0.143-0.012 0.079-0.097 0.118-0.146 0.197-0.242 0.018-0.059 0.027-0.089 0.045-0.148 0.034-0.043 0.052-0.065 0.086-0.108 0.091-0.176 0.136-0.264 0.226-0.439 0.031-0.083 0.046-0.125 0.077-0.209 0.023-0.023 0.034-0.036 0.057-0.059 7e-3 0 0.01 1e-3 0.017 1e-3 -0.021 0.382-0.032 0.573-0.053 0.954-0.014 0.095-0.02 0.143-0.033 0.237 0.025 0.039 0.038 0.059 0.063 0.097 0.065 8e-3 0.097 0.011 0.161 0.018 0.028-0.055 0.041-0.083 0.069-0.139 0.025-0.113 0.038-0.169 0.064-0.283 0.03-0.11 0.046-0.165 0.077-0.275 0.027-0.397 0.041-0.597 0.069-0.995" fill="#fbfbfb"/>
   </g>
   <g transform="matrix(35.517 0 0 -35.517 560.22 818.67)">
    <path d="m0 0v-0.879c0-0.033-7e-3 -0.046-0.033-0.046h-0.67c-0.023 0-0.036 0.016-0.036 0.039v0.879c0 0.037-0.013 0.05-0.042 0.05h-0.87c-0.026 0-0.039 0.016-0.039 0.045v0.667c0 0.026 0.01 0.039 0.036 0.039h0.876c0.026 0 0.039 0.013 0.039 0.043v0.755c0 0.019 0.013 0.032 0.033 0.032h0.667c0.026 0 0.039-9e-3 0.039-0.032v-0.755c0-0.036 7e-3 -0.043 0.036-0.043h0.876c0.026 0 0.036-0.013 0.036-0.042v-0.671c0-0.022-0.013-0.038-0.036-0.038h-0.866c-0.036 0-0.046-7e-3 -0.046-0.043" fill="#fff"/>
   </g>
  </g>
 </g>
</svg>
