<svg version="1.1" viewBox="0 0 600 310.4" xmlns="http://www.w3.org/2000/svg">
 <g transform="translate(-18.119 -398.84)">
  <g transform="matrix(1.2821 0 0 1.2821 -89.75 -156.31)">
   <path d="m84.133 556.97h392.54v-123.97h-392.54v123.97z" fill="#383536"/>
   <g transform="matrix(28.35 0 0 -28.35 158.25 523.59)">
    <path d="m0 0c0-0.036-0.029-0.065-0.091-0.088-0.174-0.058-0.334-0.088-0.484-0.088-0.226 0-0.441 0.056-0.65 0.17-0.419 0.23-0.651 0.617-0.651 1.095 0 0.263 0.072 0.501 0.212 0.716 0.144 0.214 0.337 0.374 0.579 0.474 0.157 0.069 0.324 0.101 0.503 0.101 0.122 0 0.252-0.02 0.392-0.056 0.043-9e-3 0.076-0.023 0.105-0.035l0.036-0.017c0.029-0.013 0.046-0.036 0.046-0.064v-0.628c0-0.017-7e-3 -0.023-0.017-0.023-3e-3 0-0.013 6e-3 -0.029 0.017-0.049 0.048-0.121 0.088-0.216 0.119-0.101 0.036-0.193 0.053-0.271 0.053-0.284 0-0.523-0.15-0.631-0.4-0.035-0.081-0.052-0.169-0.052-0.264 0-0.185 0.069-0.335 0.206-0.451 0.127-0.107 0.285-0.163 0.471-0.163 0.212 0 0.375 0.059 0.496 0.179 0.01 0.013 0.02 0.02 0.026 0.02 0.013 0 0.02-0.02 0.02-0.063v-0.604" fill="#fff"/>
   </g>
   <path d="m171.48 526.72h18.059v-69.146h-18.059v69.146z" fill="#fff"/>
   <g transform="matrix(28.35 0 0 -28.35 255.22 526.73)">
    <path d="m0 0-1.17 1.492v-1.492h-0.637v2.439h0.637l1.17-1.493v1.493h0.637v-2.439h-0.637z" fill="#fff"/>
   </g>
   <g transform="matrix(28.35 0 0 -28.35 285.93 526.73)">
    <path d="m0 0v2.439h0.213l0.035 0.1h0.968l-0.036-0.1h0.212v-0.537h-0.755v-0.406h0.717v-0.537h-0.717v-0.422h0.755v-0.537h-1.392z" fill="#fff"/>
   </g>
   <g transform="matrix(28.35 0 0 -28.35 552.1 634.83)">
    <path d="m0 0c-4.375-0.473-8.748-0.946-13.123-1.42-0.135 1.524-0.27 3.046-0.405 4.568 4.361 0.249 8.721 0.496 13.082 0.744 0.148-1.297 0.296-2.595 0.446-3.892" fill="#ec1b27"/>
   </g>
   <g transform="matrix(28.35 0 0 -28.35 221.91 590.89)">
    <path d="m0 0c0.016-0.169-0.092-0.315-0.241-0.327-0.035-3e-3 -0.053-4e-3 -0.088-7e-3 -0.096-7e-3 -0.143-0.012-0.239-0.019-0.021 0.238-0.043 0.479-0.065 0.717 0.096 8e-3 0.143 0.011 0.239 0.017 0.018 2e-3 0.059 5e-3 0.059 5e-3 0.164 0.011 0.312-0.131 0.328-0.319 4e-3 -0.027 4e-3 -0.04 7e-3 -0.067m-0.385 0.932c-0.049-4e-3 -0.075-6e-3 -0.124-9e-3 -0.216-0.015-0.433-0.029-0.65-0.043 0.091-1.007 0.181-2.015 0.272-3.022 0.191 0.018 0.286 0.028 0.477 0.047-0.035 0.398-0.072 0.797-0.108 1.195 0.131 0.012 0.196 0.018 0.327 0.029 0.446 0.042 0.706 0.49 0.667 0.907-2e-3 0.025-4e-3 0.048-6e-3 0.068-0.04 0.434-0.391 0.854-0.855 0.828" fill="#fff"/>
   </g>
   <g transform="matrix(28.35 0 0 -28.35 311.73 625.21)">
    <path d="m0 0c0.259 0.025 0.516 0.049 0.775 0.073 0.021-0.208 0.031-0.312 0.051-0.519-0.417-0.041-0.834-0.084-1.251-0.124-0.093 0.965-0.186 1.931-0.279 2.897 0.416 0.027 0.833 0.055 1.25 0.082 0.019-0.208 0.029-0.311 0.05-0.52-0.258-0.018-0.516-0.037-0.774-0.055 0.023-0.235 0.035-0.354 0.058-0.589 0.258 0.021 0.516 0.04 0.774 0.061 0.02-0.208 0.031-0.312 0.051-0.519-0.259-0.023-0.516-0.044-0.775-0.066 0.023-0.241 0.047-0.48 0.07-0.721" fill="#fff"/>
   </g>
   <g transform="matrix(28.35 0 0 -28.35 360.12 635.36)">
    <path d="m0 0c-0.051 0.515-0.102 1.028-0.154 1.541 0.19-0.5 0.38-1 0.573-1.499 0.142 0.014 0.213 0.022 0.357 0.035 0.087 0.521 0.174 1.041 0.261 1.56 0.053-0.506 0.105-1.012 0.156-1.518 0.191 0.019 0.286 0.028 0.477 0.048-0.095 0.921-0.191 1.843-0.287 2.767-0.214-0.015-0.32-0.022-0.535-0.036-0.123-0.564-0.246-1.126-0.368-1.692-0.236 0.541-0.47 1.082-0.703 1.623-0.214-0.014-0.321-0.022-0.536-0.036 0.094-0.947 0.189-1.893 0.283-2.841 0.19 0.02 0.286 0.029 0.476 0.048" fill="#fff"/>
   </g>
   <g transform="matrix(28.35 0 0 -28.35 253.47 577.02)">
    <path d="m0 0c0.095 7e-3 0.143 0.01 0.238 0.016 0.019 2e-3 0.06 5e-3 0.06 5e-3 0.164 0.011 0.312-0.127 0.329-0.311 2e-3 -0.025 3e-3 -0.039 5e-3 -0.067 0.016-0.165-0.091-0.308-0.238-0.32-0.036-3e-3 -0.055-4e-3 -0.09-7e-3 -0.095-7e-3 -0.143-0.011-0.238-0.019-0.022 0.234-0.044 0.468-0.066 0.703m1.109-0.32c-2e-3 0.025-4e-3 0.046-6e-3 0.066-0.042 0.435-0.397 0.834-0.856 0.808-0.049-1e-3 -0.074-3e-3 -0.124-6e-3 -0.217-0.015-0.433-0.03-0.65-0.044 0.092-0.987 0.183-1.974 0.276-2.962 0.191 0.019 0.286 0.028 0.477 0.048-0.037 0.39-0.074 0.78-0.11 1.171 0.099 9e-3 0.148 0.013 0.247 0.021 0.145-0.379 0.29-0.758 0.436-1.136l0.5 0.05c-0.161 0.415-0.321 0.831-0.482 1.246 0.216 0.18 0.319 0.461 0.292 0.738" fill="#fff"/>
   </g>
   <g transform="matrix(28.35 0 0 -28.35 410.56 551.47)">
    <path d="m0 0c0.096-0.918 0.192-1.835 0.287-2.754 0.192 0.02 0.287 0.029 0.477 0.048-0.095 0.913-0.191 1.824-0.287 2.737-0.191-0.013-0.286-0.019-0.477-0.031" fill="#fff"/>
   </g>
   <g transform="matrix(28.35 0 0 -28.35 456.66 611.65)">
    <path d="m0 0c0.257 0.025 0.516 0.049 0.775 0.072 0.022-0.194 0.032-0.291 0.054-0.487-0.418-0.042-0.835-0.083-1.253-0.125-0.097 0.908-0.193 1.815-0.289 2.723 0.417 0.027 0.832 0.054 1.249 0.082 0.022-0.195 0.032-0.293 0.053-0.487-0.257-0.019-0.515-0.037-0.773-0.056 0.024-0.221 0.034-0.332 0.058-0.554 0.259 0.021 0.517 0.042 0.776 0.061 0.02-0.194 0.031-0.292 0.052-0.486-0.259-0.022-0.516-0.045-0.775-0.066 0.024-0.225 0.049-0.452 0.073-0.677" fill="#fff"/>
   </g>
   <g transform="matrix(28.35 0 0 -28.35 497.57 559.56)">
    <path d="m0 0c0.095 8e-3 0.143 0.011 0.239 0.018 0.018 1e-3 0.059 4e-3 0.059 4e-3 0.164 0.012 0.313-0.113 0.331-0.277 2e-3 -0.025 3e-3 -0.036 7e-3 -0.06 0.016-0.148-0.09-0.279-0.239-0.291-0.034-2e-3 -0.195-0.015-0.231-0.019l-0.096-7e-3c-0.028 0.253-0.042 0.38-0.07 0.632m1.122-0.278c-3e-3 0.021-5e-3 0.042-7e-3 0.059-0.049 0.422-0.435 0.746-0.861 0.722-0.049-4e-3 -0.074-5e-3 -0.124-9e-3 -0.217-0.014-0.433-0.027-0.649-0.042 0.096-0.889 0.195-1.777 0.291-2.665 0.192 0.018 0.287 0.027 0.478 0.047-0.039 0.351-0.078 0.703-0.117 1.053 0.1 9e-3 0.149 0.013 0.248 0.022 0.146-0.34 0.295-0.679 0.442-1.018 0.2 0.02 0.301 0.029 0.501 0.049-0.165 0.372-0.327 0.744-0.49 1.116 0.207 0.155 0.317 0.409 0.288 0.666" fill="#fff"/>
   </g>
   <g transform="matrix(28.35 0 0 -28.35 425.72 501.97)">
    <path d="m0 0v-0.878c0-0.033-6e-3 -0.046-0.033-0.046h-0.669c-0.022 0-0.036 0.016-0.036 0.04v0.878c0 0.035-0.013 0.048-0.042 0.048h-0.868c-0.026 0-0.038 0.017-0.038 0.046v0.665c0 0.026 9e-3 0.039 0.035 0.039h0.874c0.026 0 0.039 0.014 0.039 0.043v0.754c0 0.019 0.014 0.032 0.033 0.032h0.666c0.027 0 0.039-9e-3 0.039-0.032v-0.754c0-0.036 6e-3 -0.043 0.036-0.043h0.874c0.026 0 0.035-0.013 0.035-0.042v-0.668c0-0.023-0.011-0.04-0.035-0.04h-0.864c-0.036 0-0.046-6e-3 -0.046-0.042" fill="#fff"/>
   </g>
  </g>
 </g>
</svg>
