<svg version="1.1" viewBox="0 0 612.89 363.34" xmlns="http://www.w3.org/2000/svg">
 <g transform="translate(-313.72 446.48)">
  <g transform="matrix(1.0215 0 0 1.0215 313.72 -446.46)">
   <path d="m0 207.46h492.74v-155.64h-492.74z" fill="#443a3d"/>
   <g transform="matrix(20.085 0 0 -20.085 93.058 165.57)">
    <path d="m0 0c0-0.062-0.052-0.115-0.162-0.155-0.307-0.104-0.591-0.156-0.857-0.156-0.399 0-0.781 0.098-1.152 0.3-0.741 0.409-1.152 1.094-1.152 1.941 0 0.467 0.127 0.887 0.376 1.267 0.255 0.38 0.596 0.662 1.025 0.841 0.278 0.121 0.573 0.179 0.892 0.179 0.214 0 0.446-0.035 0.694-0.098 0.076-0.018 0.134-0.041 0.185-0.064l0.064-0.029c0.052-0.023 0.081-0.063 0.081-0.115v-1.111c0-0.029-0.011-0.041-0.029-0.041-5e-3 0-0.023 0.012-0.052 0.029-0.087 0.086-0.214 0.156-0.382 0.213-0.178 0.063-0.342 0.092-0.48 0.092-0.504 0-0.927-0.265-1.118-0.708-0.064-0.144-0.092-0.3-0.092-0.467 0-0.328 0.121-0.593 0.365-0.8 0.225-0.19 0.503-0.288 0.833-0.288 0.377 0 0.666 0.103 0.88 0.316 0.018 0.024 0.035 0.035 0.046 0.035 0.023 0 0.035-0.035 0.035-0.109z" fill="#fff"/>
   </g>
   <path d="m109.67 82.733h22.677v86.769h-22.677z" fill="#fff"/>
   <g transform="matrix(20.085 0 0 -20.085 214.77 169.5)">
    <path d="m0 0-2.073 2.643v-2.643h-1.129v4.32h1.129l2.073-2.644v2.644h1.129v-4.32z" fill="#fff"/>
   </g>
   <g transform="matrix(20.085 0 0 -20.085 253.35 169.5)">
    <path d="m0 0v4.32h0.376l0.063 0.178h1.714l-0.063-0.178h0.377v-0.951h-1.338v-0.721h1.267v-0.949h-1.267v-0.749h1.338v-0.95z" fill="#fff"/>
   </g>
   <g transform="matrix(20.085 0 0 -20.085 428.8 138.43)">
    <path d="m0 0v-1.555c0-0.058-0.012-0.081-0.059-0.081h-1.184c-0.04 0-0.065 0.029-0.065 0.07v1.554c0 0.064-0.022 0.087-0.075 0.087h-1.537c-0.047 0-0.069 0.029-0.069 0.081v1.179c0 0.046 0.017 0.069 0.064 0.069h1.55c0.045 0 0.067 0.023 0.067 0.075v1.334c0 0.036 0.025 0.06 0.059 0.06h1.18c0.046 0 0.069-0.019 0.069-0.06v-1.334c0-0.063 0.012-0.075 0.063-0.075h1.549c0.046 0 0.065-0.023 0.065-0.075v-1.185c0-0.04-0.024-0.069-0.065-0.069h-1.532c-0.062 0-0.08-0.013-0.08-0.075" fill="#fff"/>
   </g>
  </g>
  <g transform="matrix(1.0215 0 0 1.0215 313.72 -446.46)">
   <g transform="matrix(20.085 0 0 -20.085 600 77.798)">
    <path d="m0 0c-0.172 1.291-0.345 2.583-0.517 3.874h-8.265c0.344-1.68 0.688-3.358 1.033-5.037 2.583 0.388 5.166 0.774 7.749 1.163" fill="#ed1d24"/>
   </g>
   <g transform="matrix(20.085 0 0 -20.085 498.71 72.834)">
    <path d="m0 0c-0.086 0.471-0.129 0.707-0.216 1.179-0.418-0.033-0.627-0.049-1.047-0.082 0.094-0.487 0.141-0.73 0.234-1.217-0.286-0.034-0.429-0.05-0.714-0.083-0.198 1.006-0.398 2.014-0.594 3.021 0.297 7e-3 0.445 0.01 0.743 0.018 0.088-0.458 0.131-0.686 0.219-1.144 0.422 0.025 0.632 0.038 1.054 0.062-0.081 0.443-0.121 0.664-0.202 1.107 0.296 6e-3 0.447 0.01 0.744 0.017 0.164-0.932 0.329-1.863 0.493-2.795-0.285-0.033-0.429-0.05-0.714-0.083" fill="#fff"/>
   </g>
   <g transform="matrix(20.085 0 0 -20.085 541.94 25.798)">
    <path d="m0 0c-0.067-3e-3 -0.1-4e-3 -0.166-7e-3 0.096-0.593 0.145-0.889 0.239-1.481 0.065 6e-3 0.098 9e-3 0.163 0.014 0.477 0.046 0.744 0.36 0.678 0.792-0.066 0.434-0.427 0.703-0.914 0.682m0.504-2.031c-0.42-0.051-0.631-0.074-1.051-0.123-0.152 0.903-0.304 1.807-0.457 2.713 0.438 9e-3 0.656 0.014 1.094 0.025 0.724-4e-3 1.478-0.502 1.586-1.213 0.103-0.68-0.485-1.309-1.172-1.402" fill="#fff"/>
   </g>
  </g>
 </g>
 <g transform="translate(0 52.976)">
  <path d="m600 258.75c-158.99 17.235-317.98 34.408-476.97 51.613-4.9021-55.36-9.8354-110.72-14.738-166.05 158.52-8.9924 317.05-18.016 475.54-27.008 5.3705 47.148 10.772 94.295 16.174 141.44" fill="#102d5d"/>
  <path d="m293.07 234.92c-2.7165 8.368-10.085 22.731-19.109 23.605-4.4338 0.43714-7.119-1.2489-7.681-6.8068-0.31223-2.9038 0.46836-6.3696 1.3114-11.553 4.0903-26.197 6.1198-39.217 10.21-65.164 0.5308-3.3722 1.4987-8.243 1.3114-10.241-0.2498-2.373-2.8414-2.9975-6.1198-3.1848 0.0312-1.1241 0.0625-1.6861 0.0937-2.8101 7.8371-0.84304 11.771-1.2489 19.64-2.0608-5.4017 33.003-8.1182 49.614-13.52 83.086-0.4059 2.1544-0.84303 5.027-0.68691 6.6194 0.18733 2.1232 0.71814 2.4667 1.811 2.373 3.4971-0.31224 8.3055-11.99 9.5544-15.331 1.2802 0.59324 1.9046 0.87425 3.1848 1.4675" fill="#fff"/>
  <path d="m315.06 241.56c0.37469 3.8093 2.4667 6.6506 6.0886 6.3072 9.8667-0.93672 20.67-35.158 19.546-46.461-0.37469-3.5283-2.4979-7.8059-6.2135-7.5249-12.396 0.93671-20.077 40.841-19.421 47.679m40.31-52.175c-3.4034 18.828-5.0895 28.257-8.4928 47.241-0.31223 1.6236-0.34346 2.6852-0.28101 3.0599 0.18733 1.811 1.124 2.7789 1.7173 2.7165 3.1224-0.28101 7.2439-11.272 8.7738-14.144 1.0616 0.62448 1.5612 0.96793 2.5916 1.5924-3.0599 6.9316-9.2734 21.263-17.579 22.075-4.5899 0.43713-6.276-3.216-6.7131-7.5249-0.37469-3.903 0.43713-7.9308 0.68693-11.646-0.12491 0.0312-0.15612 0.0312-0.2498 0.0312-3.7781 9.5544-8.7738 20.608-19.983 21.669-7.9308 0.78059-12.895-5.2768-13.707-13.582-1.7173-17.516 12.583-48.365 32.441-49.895 5.7452-0.43713 9.5857 3.2785 12.208 3.3722 1.9047 0.0625 3.5595-3.2785 4.4962-4.6523 1.6236-0.1249 2.4667-0.18735 4.0903-0.31224" fill="#fff"/>
  <path d="m395.23 193.67c-0.74937-3.216-2.092-4.1528-4.8084-4.1528-3.7781 0.0312-6.8692 2.7477-6.4321 6.9941 0.93671 9.211 20.67 15.518 22.231 30.693 1.3114 12.739-7.6186 19.265-18.578 20.327-7.119 0.68693-19.265-0.49957-20.264-10.304-0.31223-3.0912 1.6236-6.6506 4.746-6.9317 10.616-0.96794 8.1182 15.081 17.86 14.144 3.9654-0.37469 6.8068-6.0574 6.4009-9.8979-1.3114-12.895-20.795-17.017-22.231-31.036-1.0616-10.304 6.9629-16.08 15.862-16.767 5.308-0.40591 17.454 1.0928 18.235 8.5865 0.37468 3.4346-1.4051 6.1511-4.7772 6.4321-5.1831 0.40591-7.2127-3.5283-8.243-8.0869" fill="#fff"/>
  <path d="m443.86 189.83c-0.74936-3.1536-2.092-4.0591-4.8084-4.0591-3.7781 0.0312-6.8692 2.6852-6.4321 6.8692 0.96793 9.0549 20.67 15.237 22.262 30.162 1.3114 12.521-7.6186 18.953-18.578 20.014-7.0878 0.68692-19.265-0.46836-20.264-10.085-0.31224-3.0599 1.6236-6.557 4.746-6.838 10.616-0.96794 8.1182 14.831 17.891 13.895 3.9654-0.37469 6.7755-5.9949 6.3696-9.773-1.3426-12.677-20.826-16.705-22.262-30.506-1.0616-10.116 6.9629-15.799 15.862-16.486 5.308-0.40591 17.454 1.0616 18.235 8.4304 0.37467 3.3722-1.4051 6.0262-4.7772 6.3072-5.1831 0.43714-7.1814-3.4346-8.2431-7.9308" fill="#fff"/>
  <path d="m489.34 166.69c-3.7156 0.28101-7.5561-2.6852-8.0245-6.9004-0.43712-4.2152 2.6852-7.681 6.4321-7.9308 3.7156-0.2498 7.5561 2.7477 8.0245 6.9316 0.43713 4.184-2.7165 7.6186-6.4321 7.8996m7.9933 51.269c-3.2785 7.7747-9.1798 19.827-18.453 20.733-3.497 0.34346-6.7131-1.2489-7.1502-5.3705-0.15612-1.4675-0.28101-3.7156 1.124-8.9924 2.7165-10.71 4.0903-16.049 6.838-26.696 0.96794-3.5907 1.5612-5.87 1.4363-6.9941-0.12489-1.2177-0.53081-1.7173-1.6236-1.6236-3.6219 0.28101-6.4633 8.8988-10.179 14.987-1.0928-0.43714-1.6548-0.6557-2.7789-1.124 4.746-11.209 11.241-22.856 17.985-23.387 4.7148-0.34347 7.5874 2.6852 8.0245 6.6194 0.21857 2.092-0.31224 6.2447-1.4675 11.209-2.654 10.241-3.9654 15.362-6.5882 25.666-0.68693 2.6852-1.124 4.3713-0.93671 6.1198 0.0937 0.71815 0.87426 1.2802 1.5924 1.2177 3.3722-0.31223 7.962-10.866 9.3671-13.614 1.1241 0.49958 1.6861 0.74937 2.8101 1.249" fill="#fff"/>
  <path d="m549.21 210.46c-4.9021 10.46-10.273 22.419-23.293 23.699-9.7418 0.93671-15.862-3.8093-16.986-14.019-1.7798-16.455 8.8675-43.182 27.664-44.619 5.4017-0.40592 14.457 1.3426 15.081 7.1502 0.46836 3.9966-0.84304 7.4937-5.4329 7.8684-4.4338 0.37468-6.8068-2.373-7.2439-6.3696-0.56202-5.1207-1.2802-6.0262-4.2776-5.8076-10.585 0.81181-13.208 32.223-12.302 40.435 0.84305 7.8059 2.9038 9.7418 7.8372 9.2734 7.5873-0.71814 12.802-12.77 15.799-18.672 1.249 0.43714 1.9046 0.62447 3.1536 1.0616" fill="#fff"/>
  <path d="m247.02 230.11c-2.8101 14.425-4.2152 21.669-7.0253 36.188-1.3114-0.31224-1.9671-0.43713-3.2473-0.74937 0.74937-2.4042-1.6236-3.8717-4.4962-3.5907-2.9975 0.28101-10.835 6.1511-21.638 7.2127-21.857 2.1544-40.372-13.176-42.339-38.03-2.7165-34.377 20.639-76.935 57.389-80.089 8.8988-0.74937 18.016 3.3409 26.041 8.3055 1.8734-1.0928 2.8101-1.6236 4.6523-2.7165 0.90549 0.71815 1.3426 1.0928 2.2481 1.8422-2.2169 13.551-3.3097 20.327-5.5266 33.94-1.7798-0.24978-2.6852-0.34346-4.465-0.59325-0.0625-2.2793-0.18735-4.8709-0.43713-7.4624-1.3114-13.832-5.9325-31.473-20.483-29.288-31.598 4.746-41.059 53.268-38.717 82.587 1.0616 13.489 8.8363 28.57 22.481 27.227 15.987-1.53 25.635-21.95 31.286-36.407 1.7173 0.6557 2.5603 0.96793 4.2776 1.6236" fill="#fff"/>
 </g>
</svg>
