<svg width="600" height="319.53" version="1.1" xmlns="http://www.w3.org/2000/svg">
 <defs>
  <clipPath id="clipPath122001">
   <path d="m45.362 296.64h19.761v10.345h-19.761v-10.345z"/>
  </clipPath>
 </defs>
 <g transform="translate(37.143 -418.31)">
  <g transform="matrix(31.26 0 0 -31.26 -1472.9 10015)">
   <g clip-path="url(#clipPath122001)">
    <path d="m62.506 306.99h-16.577v-5.235h16.577v5.235z" fill="#443a3d"/>
    <g transform="translate(49.059 303.16)">
     <path d="m0 0c0-0.043-0.035-0.078-0.11-0.105-0.207-0.07-0.398-0.105-0.578-0.105-0.27 0-0.528 0.066-0.779 0.202-0.501 0.277-0.779 0.74-0.779 1.312 0 0.315 0.087 0.599 0.255 0.856 0.172 0.257 0.403 0.447 0.692 0.568 0.188 0.082 0.388 0.121 0.603 0.121 0.145 0 0.301-0.024 0.469-0.066 0.051-0.012 0.09-0.028 0.125-0.043l0.043-0.02c0.035-0.015 0.055-0.042 0.055-0.077v-0.751c0-0.02-8e-3 -0.028-0.02-0.028-3e-3 0-0.015 8e-3 -0.035 0.02-0.058 0.058-0.144 0.105-0.258 0.144-0.121 0.042-0.231 0.062-0.324 0.062-0.341 0-0.626-0.179-0.756-0.479-0.043-0.097-0.062-0.202-0.062-0.315 0-0.222 0.082-0.401 0.246-0.541 0.153-0.128 0.341-0.195 0.564-0.195 0.254 0 0.449 0.07 0.594 0.215 0.012 0.015 0.024 0.023 0.031 0.023 0.016 0 0.024-0.023 0.024-0.074v-0.724z" fill="#fff"/>
    </g>
    <path d="m49.618 305.95h0.763v-2.919h-0.763v2.919z" fill="#fff"/>
    <g transform="translate(53.154 303.03)">
     <path d="m0 0-1.401 1.786v-1.786h-0.763v2.919h0.763l1.401-1.787v1.787h0.763v-2.919h-0.763z" fill="#fff"/>
    </g>
    <g transform="translate(54.451 303.03)">
     <path d="m0 0v2.919h0.254l0.043 0.12h1.158l-0.043-0.12h0.255v-0.643h-0.904v-0.486h0.857v-0.642h-0.857v-0.506h0.904v-0.642h-1.667z" fill="#fff"/>
    </g>
    <g transform="translate(65.691 298.47)">
     <path d="m0 0c-5.237-0.566-10.474-1.133-15.712-1.699-0.162 1.822-0.323 3.645-0.485 5.468 5.221 0.297 10.443 0.594 15.664 0.89 0.177-1.553 0.355-3.106 0.533-4.659" fill="#fab20b"/>
    </g>
    <g transform="translate(58.926 299.57)">
     <path d="m0 0c0.076-0.333 0.114-0.499 0.19-0.83 0.299 0.029 0.449 0.044 0.748 0.074-0.252 0.998-0.502 1.998-0.752 2.998l-0.74-0.05c-0.113-0.423-0.17-0.636-0.284-1.062-5e-3 -0.016-0.01-0.031-0.018-0.045-7e-3 -0.014-0.016-0.028-0.025-0.04-0.01-0.013-0.021-0.024-0.033-0.035-0.012-0.01-0.024-0.019-0.038-0.026-0.014-8e-3 -0.028-0.014-0.043-0.019s-0.031-8e-3 -0.048-9e-3 -0.033-1e-3 -0.049 1e-3c-0.016 3e-3 -0.031 7e-3 -0.046 0.012s-0.03 0.012-0.044 0.021c-0.013 8e-3 -0.026 0.017-0.038 0.028s-0.023 0.023-0.033 0.036-0.019 0.027-0.027 0.042c-0.189 0.405-0.283 0.608-0.473 1.016-0.295-0.02-0.443-0.03-0.739-0.049-0.06-1.058-0.119-2.116-0.178-3.174 0.297 0.029 0.446 0.044 0.744 0.073 0.013 0.347 0.019 0.521 0.032 0.868 2e-3 0.018 5e-3 0.034 9e-3 0.05 5e-3 0.016 0.011 0.032 0.018 0.046 7e-3 0.015 0.016 0.028 0.026 0.041 9e-3 0.013 0.02 0.025 0.032 0.035s0.025 0.02 0.038 0.027c0.014 8e-3 0.029 0.015 0.044 0.019 0.015 5e-3 0.031 9e-3 0.048 0.01 0.016 1e-3 0.033 1e-3 0.048-1e-3 0.016-2e-3 0.032-6e-3 0.047-0.011 0.015-6e-3 0.03-0.012 0.043-0.02 0.014-9e-3 0.027-0.018 0.039-0.029s0.023-0.022 0.033-0.036c0.01-0.013 0.018-0.026 0.026-0.042 0.169-0.348 0.254-0.522 0.423-0.868 0.12 0.012 0.18 0.018 0.3 0.029 0.103 0.372 0.155 0.558 0.259 0.927 5e-3 0.016 0.011 0.031 0.018 0.045 7e-3 0.015 0.016 0.028 0.025 0.041 0.01 0.013 0.021 0.024 0.033 0.034 0.012 0.011 0.024 0.02 0.038 0.027 0.014 8e-3 0.028 0.014 0.044 0.019 0.015 5e-3 0.031 8e-3 0.047 0.01 0.017 1e-3 0.033 1e-3 0.049-2e-3 0.016-2e-3 0.032-5e-3 0.047-0.01 0.014-6e-3 0.029-0.012 0.043-0.02 0.013-8e-3 0.026-0.017 0.038-0.028s0.024-0.022 0.034-0.035 0.018-0.027 0.026-0.042c7e-3 -0.014 0.014-0.03 0.019-0.046" fill="#fff"/>
    </g>
    <g transform="translate(54.432 299.48)">
     <path d="m0 0c-0.202-0.018-0.383 0.151-0.405 0.376-0.021 0.226 0.125 0.421 0.327 0.437s0.384-0.153 0.405-0.377c0.022-0.223-0.125-0.419-0.327-0.436m0.219 2.034c-0.326-0.022-0.488-0.033-0.813-0.055-0.269-1.105-0.536-2.21-0.801-3.316 0.316 0.031 0.474 0.047 0.791 0.078 0.04 0.163 0.061 0.244 0.101 0.407 9e-3 0.033 0.024 0.063 0.043 0.09 0.02 0.026 0.043 0.048 0.071 0.064s0.058 0.027 0.091 0.03c0.281 0.026 0.422 0.039 0.703 0.065 0.033 3e-3 0.066-1e-3 0.096-0.012 0.029-0.011 0.057-0.028 0.081-0.05s0.045-0.049 0.06-0.079c0.068-0.151 0.102-0.226 0.17-0.376 0.319 0.031 0.479 0.047 0.798 0.078-0.467 1.024-0.931 2.049-1.391 3.076" fill="#fff"/>
    </g>
    <g transform="translate(60.356 298.86)">
     <path d="m0 0c0.419 0.041 0.628 0.062 1.047 0.103-0.067 0.632-0.135 1.264-0.202 1.896-0.419-0.033-0.628-0.049-1.046-0.082l0.201-1.917" fill="#fff"/>
    </g>
    <g transform="translate(60.526 302.22)">
     <path d="m0 0c-0.31-0.019-0.534-0.299-0.5-0.624 0.034-0.326 0.313-0.57 0.624-0.547 0.31 0.024 0.534 0.303 0.5 0.624-0.035 0.322-0.314 0.567-0.624 0.547" fill="#fff"/>
    </g>
    <g transform="translate(52.11 299.07)">
     <path d="m0 0c-0.014 0.15 0.082 0.281 0.214 0.293 0.232 0.02 0.347 0.03 0.578 0.049-0.027 0.286-0.04 0.429-0.067 0.714-0.231-0.018-0.346-0.027-0.577-0.046-0.132-0.01-0.25 0.104-0.265 0.254-0.013 0.15 0.083 0.28 0.215 0.29 0.263 0.019 0.394 0.029 0.657 0.049-0.026 0.285-0.04 0.427-0.067 0.712-0.657-0.044-0.986-0.066-1.643-0.11 0.1-1.097 0.2-2.195 0.3-3.292 0.299 0.029 0.449 0.044 0.748 0.074-0.037 0.405-0.056 0.608-0.093 1.013" fill="#fff"/>
    </g>
    <g transform="translate(63.301 299.8)">
     <path d="m0 0c-0.016-2e-3 -0.033-1e-3 -0.049 0-0.015 2e-3 -0.031 6e-3 -0.046 0.01-0.015 5e-3 -0.03 0.012-0.044 0.019-0.013 8e-3 -0.026 0.017-0.038 0.027s-0.023 0.021-0.033 0.033c-0.011 0.012-0.02 0.026-0.027 0.04-8e-3 0.013-0.014 0.029-0.019 0.044-5e-3 0.016-9e-3 0.032-0.011 0.049-1e-3 0.016-1e-3 0.033 0 0.049 2e-3 0.016 5e-3 0.032 9e-3 0.047s0.01 0.03 0.017 0.043c0.304 0.66 0.61 1.319 0.919 1.976-0.792-0.053-1.584-0.106-2.375-0.159 0.028-0.26 0.042-0.39 0.07-0.651 0.282 0.021 0.423 0.031 0.705 0.052 0.017 1e-3 0.033 0 0.049-2e-3 0.016-1e-3 0.031-5e-3 0.047-0.011 0.014-5e-3 0.029-0.011 0.043-0.019 0.013-8e-3 0.026-0.017 0.038-0.027 0.012-0.011 0.024-0.022 0.033-0.034 0.011-0.013 0.02-0.026 0.027-0.04 8e-3 -0.014 0.014-0.029 0.019-0.045s9e-3 -0.032 0.01-0.049c2e-3 -0.017 2e-3 -0.033 1e-3 -0.05-1e-3 -0.016-5e-3 -0.031-9e-3 -0.046s-0.01-0.03-0.018-0.044c-0.311-0.672-0.62-1.345-0.927-2.019 0.822 0.081 1.643 0.161 2.464 0.242-0.028 0.255-0.042 0.382-0.071 0.637-0.313-0.029-0.47-0.044-0.784-0.072" fill="#fff"/>
    </g>
    <g transform="translate(60.353 304.08)">
     <path d="m0 0v-1.051c0-0.039-8e-3 -0.055-0.039-0.055h-0.801c-0.027 0-0.043 0.02-0.043 0.048v1.05c0 0.043-0.015 0.059-0.05 0.059h-1.04c-0.031 0-0.046 0.019-0.046 0.054v0.797c0 0.031 0.011 0.047 0.043 0.047h1.047c0.031 0 0.046 0.015 0.046 0.051v0.902c0 0.023 0.016 0.039 0.039 0.039h0.797c0.032 0 0.047-0.012 0.047-0.039v-0.902c0-0.043 8e-3 -0.051 0.043-0.051h1.047c0.031 0 0.043-0.016 0.043-0.051v-0.801c0-0.027-0.015-0.046-0.043-0.046h-1.035c-0.043 0-0.055-8e-3 -0.055-0.051" fill="#fff"/>
    </g>
   </g>
  </g>
 </g>
</svg>
