<svg width="800" height="264.88" version="1.1" viewBox="0 0 211.67 70.084" xmlns="http://www.w3.org/2000/svg">
 <path d="m71.072 63.152h82.117v5.8655h-82.117z" fill="#fff" opacity=".999" stop-color="#000000" style="paint-order:stroke fill markers"/>
 <path d="m9.8847 42.83q-1.9005 0-3.2864 1.8158-1.3696 1.8158-1.8704 5.05-1.0427 6.7333 3.2619 6.7333 1.8842 0 4.0991-0.98084l-0.49672 3.2077q-1.8838 0.94108-4.5967 0.94108-4.0122 0-5.7703-2.5979-1.7398-2.6111-1.0091-7.3297 0.73073-4.7185 3.3484-7.3563 2.6338-2.6378 6.581-2.6378 1.2995 0 2.4402 0.29162 1.1569 0.29159 2.4085 1.0206l-1.9156 2.9293q-0.66733-0.4109-1.4445-0.74226-0.77509-0.34462-1.7497-0.34462zm8.1278 16.501h-3.5136l3.2074-20.711h3.5136zm6.6526 0h-3.5136l2.2962-14.828h3.5136zm9.2883 0.15714c-0.69057 0-1.2834-0.13569-1.7784-0.40707-0.48413-0.27987-0.90255-0.7675-1.2552-1.4629h-0.20136c-0.0252 1.1534-0.05613 1.8488-0.09293 2.0862l-0.85746 5.5369h-3.8554l3.125-20.179h2.9637l0.37611 1.8445h0.17258c1.0141-1.4077 2.2787-2.1117 3.794-2.1117 1.4578 0 2.4999 0.64028 3.1263 1.9209 0.62781 1.2721 0.76114 3.0742 0.39996 5.4064-0.3559 2.2982-1.0618 4.1003-2.1175 5.4064-1.0558 1.3061-2.3222 1.9591-3.7991 1.9591zm0.65041-11.818c-0.74807 0-1.3378 0.30954-1.7694 0.92862-0.42062 0.61061-0.75086 1.6282-0.99064 3.053l-0.06893 0.44523c-0.24165 1.5605-0.24983 2.6967-0.0244 3.4092 0.22535 0.71236 0.72644 1.0685 1.5033 1.0685 1.3428 0 2.2465-1.501 2.7114-4.5031 0.22851-1.4756 0.23145-2.5781 8e-3 -3.3074-0.21316-0.72932-0.66978-1.094-1.3698-1.094zm13.033 11.582-1.0538-16.572h-0.13861q-0.044 1.9166-0.28019 3.5138l-1.9313 13.058h-3.177l2.8781-19.459h5.2697l0.88983 15.293h0.10093l5.3887-15.293h5.3455l-2.8781 19.459h-3.2526l1.9509-13.191q0.24214-1.6372 0.6726-3.3542h-0.10093l-5.9392 16.545zm14.686-14.75h3.6432l0.7363 8.3722c0.08706 0.74538 0.08826 1.788 4e-3 3.1279h0.07933c0.04386-0.21297 0.14064-0.5901 0.29419-1.1314 0.1558-0.55016 0.27954-0.98054 0.37143-1.2911 0.09213-0.31056 1.1679-3.3364 3.2274-9.0778h3.696l-6.6718 15.893c-0.81271 1.9522-1.7074 3.3542-2.6842 4.206-0.97672 0.85186-2.169 1.2778-3.5771 1.2778-0.69518 0-1.3039-0.07547-1.8261-0.22628l0.45967-2.9682c0.34431 0.10653 0.74086 0.15972 1.1897 0.15972 1.1792 0 2.0745-0.78087 2.6859-2.3426l0.39508-0.93174zm23.305 14.828h-3.6618l1.3476-8.5319h-4.8331l-1.3476 8.5319h-3.6618l3.0734-19.459h3.6618l-1.2214 7.7333h4.8331l1.2214-7.7333h3.6618zm15.033-7.4403q-0.59948 3.6471-2.5595 5.6836-1.9578 2.0231-4.788 2.0231-1.7934 0-3.0133-0.93174-1.2199-0.93172-1.6758-2.6754-0.45376-1.757-0.06866-4.0996 0.59292-3.6071 2.5367-5.6303 1.946-2.0365 4.804-2.0365 2.7601 0 4.044 2.0765 1.3001 2.0631 0.72037 5.5903zm-8.2942 0q-0.38068 2.3159-0.04293 3.5007 0.33771 1.1846 1.5146 1.1846 2.2417 0 3.0119-4.6853 0.38288-2.3294 0.02467-3.474-0.34207-1.158-1.5049-1.158-1.1769 0-1.8997 1.158-0.72056 1.1447-1.1034 3.474zm17.87-7.6667q0.6468 0 1.2363 0.19968l-0.94103 3.4342q-0.34899-0.13306-0.94298-0.13306-1.2804 0-2.1255 1.0249-0.84306 1.0116-1.144 2.9549l-1.1811 7.6267h-3.5112l2.2962-14.828h2.8909l0.0373 2.3159h0.1188q0.79722-1.3976 1.5764-1.9965 0.77914-0.59897 1.69-0.59897zm9.0906 10.768q-0.336 2.1695-1.7929 3.3942-1.4416 1.2112-3.8968 1.2112-2.1781 0-3.4696-0.86516l0.47616-3.0747q0.64767 0.50579 1.5597 0.83856 0.92528 0.33275 1.6645 0.33275 0.81842 0 1.3026-0.39931 0.49954-0.41262 0.6026-1.0781 0.10506-0.67884-0.26535-1.1846-0.3705-0.50579-1.4584-1.2379-1.4488-0.95834-1.9814-2.0365-0.51737-1.0915-0.28858-2.5689 0.2927-1.8901 1.7442-2.9949 1.4646-1.1048 3.7087-1.1048 1.9536 0 3.5219 1.0382l-1.5421 2.5423q-1.2928-0.77201-2.3621-0.77201-0.6732 0-1.072 0.35938-0.38567 0.35938-0.46606 0.87848-0.0928 0.59897 0.24432 1.0648 0.35025 0.46586 1.3782 1.158 1.2429 0.83856 1.7066 1.4242 0.46373 0.58566 0.6519 1.331 0.18816 0.74537 0.0336 1.7437zm6.9561 4.6053q-2.7587 0-4.051-1.9699-1.2769-1.9831-0.71622-5.6037 0.5689-3.6736 2.3271-5.7368 1.7584-2.063 4.3324-2.063 2.4025 0 3.5143 1.7702 1.1139 1.757 0.62125 4.9383l-0.2927 1.8901h-7.0621q-0.26746 1.9831 0.3476 2.9549 0.6172 0.95835 1.9637 0.95835 1.716 0 3.6782-1.0781l-0.45142 2.9149q-1.8484 1.0249-4.2111 1.0249zm1.4434-12.645q-0.75241 0-1.3665 0.81192-0.61209 0.79861-0.95305 2.489h3.5639q0.22511-1.6238-0.10707-2.4625-0.33212-0.83855-1.1374-0.83855zm-103.38-8.0459h3.5136l-0.52504 3.3903h-3.5136zm109.76 16.021h3.3327l-0.66986 4.3255h-3.3327zm9.6775 4.4072h-4.4371l2.7203-17.566h-4.5844l0.53161-3.4327h13.606l-0.53161 3.4327h-4.5844zm20.673-20.999h4.4862l-8.8842 20.999h-5.665l-2.3474-20.999h4.4862l1.1409 12.827q0.17212 1.6374 0.10773 4.6968 0.74641-2.5997 1.5952-4.6968z" fill="#c81919" stroke-width=".35278" style="font-variant-caps:normal;font-variant-ligatures:normal;font-variant-numeric:normal"/>
 <path d="m181.69 59.895c16.556 0 29.978-13.421 29.978-29.978s-13.421-29.977-29.965-29.917c-16.569-0.05986-29.99 13.361-29.99 29.917 0 1.4013 0.0683 2.6783 0.22389 3.3904l0.10866 0.49647 0.18686-0.31214c0.1028-0.17168 0.36774-0.5916 0.58878-0.93316 0.34772-0.55857 0.59577-0.92176 0.86428-1.3145 3.3156-4.8749 9.304-9.8104 15.924-13.125 2.9522-1.4778 4.8516-2.2242 8.1301-3.1947 0.89016-0.26351 2.3021-0.58129 3.2259-0.7261 1.4466-0.22678 1.4965-0.23203 3.0877-0.32643 2.5119-0.14898 2.8786-0.3674 3.8171-2.2742 0.814-1.6536 1.446-2.6125 1.7218-2.6125 0.25157 0 0.34057 0.62133 0.21977 1.5341-0.0632 0.47767-0.0907 0.8928-0.0611 0.92255 0.11653 0.11666 0.55852-0.0844 0.83334-0.3792 0.15912-0.17065 0.39078-0.51088 0.5148-0.75605 0.37127-0.73367 0.57049-0.98869 0.661-0.84599 0.23709 0.37411 0.0243 1.4929-0.64616 3.3956-0.25891 0.73499-0.4708 1.4521-0.4708 1.5936 0 0.67318 1.3748 2.4787 2.7202 3.5726 0.15274 0.12426 0.42099 0.41243 0.5961 0.64054 0.68602 0.89376 1.7586 1.8797 2.7207 2.5007 0.4075 0.26303 1.428 1.1023 2.3503 1.9332 0.3295 0.29678 0.74426 0.66905 0.92168 0.82723 0.1774 0.15821 0.5507 0.44388 0.82949 0.63484 0.47751 0.32702 1.1547 0.92255 2.1917 1.9273 0.24815 0.24047 0.84607 0.75481 1.3286 1.1429 0.48258 0.38814 0.99742 0.86255 1.1441 1.0543 0.23745 0.31046 0.26593 0.41896 0.26042 0.99368-5e-3 0.48307-0.0588 0.74715-0.21651 1.0511-0.19517 0.37662-0.20576 0.47675-0.14636 1.3858l0.0639 0.97976-0.40049 0.36831c-0.57718 0.53077-0.91039 0.65102-1.2854 0.46394-0.3983-0.1987-0.42735-0.19084-0.49894 0.13498-0.0804 0.3659-0.36811 0.50157-0.80682 0.38043-0.27574-0.07613-0.40649-0.0556-0.79792 0.12586-1.16 0.5374-1.5 0.41794-2.3127-0.81249-0.24017-0.36366-0.79413-0.63876-1.5268-0.75826-0.19858-0.0324-0.6514-0.15869-1.0063-0.28067-0.35479-0.122-1.0806-0.30827-1.6129-0.41402-0.53228-0.10573-1.5001-0.35548-2.1507-0.55504-1.7273-0.52977-2.2224-0.60545-3.0005-0.45862-1.3336 0.25161-2.2397-0.02453-3.8004-1.1582-1.1602-0.84274-1.4993-0.95294-2.9438-0.9567-0.88392-0.0027-1.3308 0.04227-1.8894 0.18861-1.3978 0.36612-2.8091 1.2715-4.0999 2.6301-0.64553 0.67949-1.5606 1.8633-1.5621 2.0207-3.6e-4 0.05253 0.2791 0.27819 0.62124 0.50128 0.34216 0.2231 0.64289 0.43083 0.66821 0.46163 0.0253 0.0308 0.30795 0.25557 0.62802 0.49943 0.63585 0.48451 2.035 1.8342 2.7321 2.6357 0.9211 1.059 2.0192 2.8553 2.7045 4.424 0.38087 0.87194 0.80376 2.3639 0.9535 3.3642 0.15637 1.0443 0.12747 4.5429-0.0483 5.8528-0.35956 2.6927-1.1749 5.2575-2.4879 7.5578-0.13199 0.2281-0.31028 0.581-0.31028 0.581z" fill="#c81919" stroke-width=".70668"/>
 <g transform="matrix(.64026 0 0 .73484 5.3086 26.967)" fill="#c81919" stroke-width=".5143" style="font-variant-caps:normal;font-variant-ligatures:normal;font-variant-numeric:normal" aria-label="SENDER">
  <path transform="matrix(.41324 0 0 .36006 -8.2916 -36.699)" d="m264 233.17-3.7628 31.711h321.55l3.7579-31.711z" fill="#c81919"/>
 </g>
 <path d="m111.32 64.446c-0.23746 0-0.44195 0.03264-0.61391 0.09767s-0.3139 0.1531-0.42582 0.26458c-0.11191 0.11148-0.1955 0.24048-0.25011 0.38602-0.0546 0.14555-0.0816 0.29837-0.0816 0.4594 0 0.15484 0.027 0.28383 0.0816 0.38602s0.12275 0.18716 0.20464 0.25528c0.0819 0.06813 0.16919 0.12408 0.262 0.16743 0.0955 0.04336 0.18425 0.08325 0.26613 0.12041 0.0819 0.03716 0.15054 0.07602 0.20516 0.11627 0.0546 0.04026 0.0816 0.09154 0.0816 0.15348 0 0.04336-0.0122 0.08014-0.0367 0.11111-0.0219 0.03096-0.0522 0.05583-0.0904 0.07441-0.0355 0.01858-0.0775 0.03257-0.1266 0.04186-0.0464 0.0093-0.094 0.01395-0.14315 0.01395-0.1392 0-0.27974-0.02331-0.42168-0.06976-0.14194-0.04955-0.27878-0.11741-0.40979-0.20412l-0.10646 0.87798c0.15832 0.06812 0.32081 0.11734 0.48731 0.14831 0.16923 0.03097 0.35228 0.04651 0.5488 0.04651 0.22383 0 0.41759-0.03263 0.58137-0.09767 0.1665-0.06812 0.30282-0.15775 0.40927-0.26923 0.10919-0.11148 0.18999-0.24151 0.24185-0.39016 0.0546-0.14865 0.0817-0.30665 0.0817-0.47387 0-0.15174-0.027-0.27711-0.0817-0.3762-0.0546-0.09909-0.12327-0.18095-0.20516-0.24598-0.0819-0.06504-0.1706-0.11788-0.26613-0.15813-0.0928-0.04025-0.18012-0.07911-0.262-0.11627-0.0819-0.03716-0.15002-0.07601-0.20464-0.11627-0.0546-0.04336-0.0816-0.09723-0.0816-0.16227 0-0.04336 0.0122-0.0791 0.0367-0.10697 0.0246-0.03097 0.0558-0.05583 0.094-0.07442 0.041-0.01858 0.0848-0.03257 0.13126-0.04186 0.0464-0.0093 0.0898-0.01395 0.13074-0.01395 0.24841 0 0.48748 0.09791 0.71676 0.293l0.10645-0.86868c-0.13102-0.06813-0.26874-0.12253-0.41341-0.16278-0.14467-0.04336-0.29363-0.06511-0.44649-0.06511zm7.4931 0c-0.28933 0-0.54475 0.0575-0.76585 0.17208-0.22109 0.11148-0.40643 0.26327-0.55655 0.45527-0.1474 0.1889-0.25947 0.407-0.3359 0.65474-0.0737 0.24462-0.11059 0.5016-0.11059 0.77101 0 0.21058 0.0276 0.40122 0.0822 0.57154 0.0573 0.17032 0.14182 0.31745 0.25373 0.44132 0.11191 0.12077 0.25104 0.21506 0.41755 0.28319 0.16922 0.06503 0.3658 0.09767 0.58962 0.09767 0.28933 0 0.54424-0.05595 0.76533-0.16743 0.2211-0.11148 0.40555-0.26016 0.55294-0.44597 0.15013-0.1889 0.2622-0.40544 0.33589-0.65009 0.0764-0.24463 0.11473-0.50003 0.11473-0.76636 0-0.20748-0.029-0.39812-0.0863-0.57154-0.0546-0.17651-0.13769-0.32675-0.2496-0.45062s-0.25245-0.21971-0.42168-0.28784c-0.1665-0.07123-0.36168-0.10697-0.58549-0.10697zm14.045 0c-0.23055 0-0.42888 0.03174-0.59583 0.0956-0.16695 0.06387-0.30477 0.15045-0.41341 0.25993-0.10865 0.10948-0.18987 0.23584-0.24288 0.37879-0.053 0.14295-0.0791 0.2935-0.0791 0.45165 0 0.15207 0.026 0.27843 0.0791 0.37879 0.053 0.10036 0.11945 0.18372 0.19895 0.25063s0.16415 0.12175 0.25425 0.16433c0.0927 0.04258 0.17888 0.08236 0.25838 0.11886s0.14594 0.07415 0.19896 0.11369c0.053 0.03954 0.0796 0.09007 0.0796 0.1509 0 0.04258-0.0123 0.07914-0.0362 0.10955-0.0212 0.03042-0.0503 0.05462-0.0873 0.07286-0.0345 0.01825-0.0753 0.0317-0.12299 0.04082-0.0451 0.0091-0.0913 0.01395-0.13901 0.01395-0.13515 0-0.272-0.02311-0.40979-0.06873-0.1378-0.04866-0.2702-0.11534-0.39739-0.2005l-0.10336 0.86248c0.1537 0.06691 0.31119 0.11531 0.47284 0.14573 0.1643 0.03042 0.34199 0.04548 0.53279 0.04548 0.21729 0 0.40531-0.03174 0.5643-0.0956 0.16165-0.06691 0.29457-0.15509 0.39791-0.26458 0.106-0.10948 0.18429-0.23745 0.23461-0.38344 0.053-0.14598 0.0791-0.30085 0.0791-0.46509 0-0.14903-0.026-0.27217-0.0791-0.36948-0.053-0.09733-0.11945-0.17798-0.19895-0.24185-0.0795-0.06386-0.16564-0.11549-0.25838-0.15503-0.0901-0.03954-0.17475-0.07771-0.25425-0.11421s-0.14594-0.07466-0.19896-0.1142c-0.053-0.04258-0.0796-0.09581-0.0796-0.15968 0-0.04259 0.0118-0.07753 0.0357-0.1049 0.0239-0.03041 0.0544-0.05462 0.0915-0.07286 0.0397-0.01825 0.0826-0.0317 0.12764-0.04082 0.0451-0.0091 0.0874-0.01395 0.12712-0.01395 0.24113 0 0.47297 0.09571 0.69556 0.28732l0.10336-0.85318c-0.1272-0.06691-0.26108-0.12014-0.40153-0.15968-0.14045-0.04259-0.28517-0.06356-0.43356-0.06356zm-60.652 0.05891-0.39119 3.3316h1.4516c0.23478 0 0.44625-0.04801 0.63407-0.14418 0.18782-0.09927 0.34807-0.2371 0.48111-0.41393 0.13304-0.17682 0.23498-0.38796 0.30541-0.63304 0.07307-0.24818 0.10956-0.52127 0.10956-0.81907 0-0.41571-0.10193-0.73989-0.30541-0.97255-0.20085-0.23266-0.49702-0.34882-0.88832-0.34882zm3.9279 0-0.39532 3.3316h2.1756l0.10594-0.88883h-1.2015l0.05116-0.41393h1.1188l0.09043-0.76326h-1.1193l0.04289-0.37207h1.1741l0.10542-0.89348zm3.3285 0-0.39532 3.3316h0.97462l0.39481-3.3316zm2.1993 0-0.39532 3.3316h0.94671l0.24288-2.0567 0.66508 2.0567h1.1818l0.39119-3.3316h-0.9431l-0.23461 1.9916-0.64182-1.9916zm53.364 5.16e-4 -0.40153 3.2665h2.2097l0.10748-0.87126h-1.2201l0.0517-0.40618h1.1369l0.0915-0.74828h-1.1369l0.0434-0.36483h1.1927l0.10697-0.87592zm3.3176 0-0.40152 3.2665h0.9617l0.24649-2.0164 0.67593 2.0164h1.2004l0.39739-3.2665h-0.95808l-0.23822 1.9523-0.65216-1.9523zm4.3822 0-0.39791 3.2665h1.4748c0.23848 0 0.4531-0.04731 0.64389-0.14159 0.1908-0.09733 0.35371-0.23282 0.48886-0.40618s0.23851-0.37985 0.31006-0.62012c0.0742-0.24333 0.11162-0.51108 0.11162-0.80305 0-0.40753-0.10336-0.72533-0.31006-0.95343-0.20405-0.2281-0.50477-0.3421-0.90227-0.3421zm3.9822 0-0.40152 3.2665h2.2102l0.10697-0.87126h-1.2201l0.0517-0.40618h1.1369l0.0915-0.74828h-1.1369l0.0434-0.36483h1.1927l0.10749-0.87592zm3.3336 0-0.40153 3.2665h0.98961l0.15089-1.2227h0.27027c0.0716 0 0.12715 0.01828 0.16691 0.05478 0.0424 0.03346 0.0744 0.07864 0.0956 0.13643s0.037 0.12177 0.0475 0.19172c0.0106 0.06995 0.02 0.13825 0.0279 0.20516l0.0837 0.63458h1.0335l-0.1354-0.89452c-8e-3 -0.06083-0.0267-0.1259-0.0558-0.19585-0.0265-0.07299-0.0594-0.14181-0.0992-0.20567-0.0397-0.06387-0.0846-0.1182-0.13487-0.16381-0.0503-0.04866-0.10109-0.08092-0.15141-0.09612 0.23584-0.08516 0.40418-0.21099 0.50488-0.37827 0.10072-0.17032 0.15089-0.36497 0.15089-0.58394 0-0.23723-0.0777-0.42164-0.23409-0.55242-0.15632-0.13078-0.38965-0.19585-0.6997-0.19585zm-62.04 1e-3 -0.41341 3.3259h1.0196l0.13488-1.0775h0.58549c0.21017 0 0.39463-0.03574 0.55294-0.10697 0.15832-0.07432 0.28903-0.17327 0.39274-0.29714 0.10646-0.12387 0.18585-0.26478 0.23771-0.42271 0.05461-0.16103 0.08165-0.32991 0.08165-0.50643 0-0.15174-0.02427-0.28488-0.07338-0.39946-0.0464-0.11458-0.11228-0.20887-0.19689-0.28319-0.08461-0.07741-0.18545-0.13492-0.30283-0.17208-0.11737-0.04025-0.24578-0.06046-0.38499-0.06046zm3.8918 0-0.41393 3.3259h1.0196l0.14366-1.1379h1.1178l0.10646-0.84543h-1.1219l0.05323-0.42736h1.2035l0.11472-0.91519zm3.3833 0-0.41341 3.3259h2.2763l0.11059-0.88729h-1.2568l0.05323-0.41341h1.171l0.09405-0.76171h-1.171l0.04496-0.37156h1.2283l0.11059-0.89193zm3.4277 0-0.41393 3.3259h1.0196l0.15555-1.2449h0.27854c0.07366 0 0.1311 0.01865 0.17208 0.05581 0.04364 0.03406 0.07635 0.08069 0.09819 0.13953 0.0218 0.05884 0.0381 0.12359 0.0491 0.19482 0.0109 0.07123 0.0202 0.14116 0.0284 0.20929l0.0863 0.64544h1.0645l-0.13953-0.91054c-8e-3 -0.06194-0.0268-0.12824-0.0568-0.19947-0.0273-0.07432-0.0619-0.14426-0.10283-0.20929-0.041-0.06503-0.0872-0.12046-0.13901-0.16692-0.0519-0.04955-0.10369-0.08219-0.15555-0.09767 0.24292-0.0867 0.41614-0.21518 0.51987-0.38551 0.10371-0.17342 0.15554-0.37182 0.15554-0.5948 0-0.24155-0.0803-0.42856-0.24133-0.56172-0.16105-0.13316-0.40153-0.19999-0.72088-0.19999zm3.9553 0-0.40979 3.3259h1.5193c0.24568 0 0.46648-0.04766 0.66301-0.14366 0.19652-0.09909 0.36464-0.2369 0.50384-0.41341 0.13921-0.17651 0.24567-0.38736 0.31936-0.632 0.0764-0.24776 0.11472-0.52023 0.11472-0.81752 0-0.41498-0.10645-0.73874-0.31936-0.971-0.2102-0.23226-0.52024-0.3483-0.92966-0.3483zm4.0954 0-0.41341 3.3259h2.2764l0.11058-0.88729h-1.2568l0.0532-0.41341h1.171l0.094-0.76171h-1.171l0.045-0.37156h1.2284l0.11059-0.89193zm6.7789 0-0.41342 3.3259h1.0196l0.13488-1.0775h0.58549c0.21017 0 0.39462-0.03574 0.55294-0.10697 0.15831-0.07432 0.28902-0.17327 0.39274-0.29714 0.10645-0.12387 0.18585-0.26478 0.23771-0.42271 0.0546-0.16103 0.0816-0.32991 0.0816-0.50643 0-0.15174-0.0243-0.28488-0.0734-0.39946-0.0464-0.11458-0.11176-0.20887-0.19637-0.28319-0.0846-0.07741-0.18598-0.13492-0.30334-0.17208-0.11738-0.04025-0.24528-0.06046-0.38448-0.06046zm7.999 0-0.41393 3.3259h1.0196l0.15554-1.2449h0.27854c0.0737 0 0.13117 0.01865 0.17208 0.05581 0.0436 0.03406 0.0764 0.08069 0.0982 0.13953s0.0381 0.12359 0.0491 0.19482 0.0202 0.14116 0.0284 0.20929l0.0863 0.64544h1.0645l-0.13953-0.91054c-8e-3 -0.06194-0.0268-0.12824-0.0568-0.19947-0.0273-0.07432-0.0619-0.14426-0.10284-0.20929-0.0409-0.06503-0.0872-0.12046-0.13901-0.16692-0.0519-0.04955-0.10368-0.08219-0.15555-0.09767 0.24293-0.0867 0.41615-0.21518 0.51987-0.38551 0.10371-0.17342 0.15554-0.37182 0.15554-0.5948 0-0.24155-0.0803-0.42856-0.24132-0.56172-0.16106-0.13316-0.40153-0.19999-0.72089-0.19999zm3.685 0-0.11059 0.91519h0.88057l-0.29921 2.4107h1.0196l0.2992-2.4107h0.91261l0.11472-0.91519zm25.726 0.72398h0.26613c0.1166 0 0.20816 0.02633 0.2744 0.07803 0.0689 0.0517 0.10336 0.12753 0.10336 0.22789 0 0.12774-0.0463 0.21432-0.13901 0.25994-0.0927 0.04562-0.20695 0.06873-0.3421 0.06873h-0.24236zm-51.31 0.01447h0.2744c0.1201 0 0.21443 0.02642 0.28267 0.07906 0.071 0.05264 0.10646 0.13035 0.10646 0.23254 0 0.13006-0.0481 0.21813-0.14366 0.26458-0.0955 0.04645-0.21272 0.06976-0.35192 0.06976h-0.24959zm22.829 0h0.2744c0.1201 0 0.21444 0.02642 0.28267 0.07906 0.071 0.05264 0.10646 0.13035 0.10646 0.23254 0 0.13006-0.0481 0.21813-0.14366 0.26458-0.0955 0.04645-0.21272 0.06976-0.35192 0.06976h-0.2496zm21.162 0.01757h0.24236c0.17225 0 0.29136 0.05162 0.35761 0.15503 0.0689 0.1034 0.10335 0.24212 0.10335 0.41548 0 0.14599-0.0118 0.28901-0.0357 0.42891-0.0212 0.13686-0.0581 0.25839-0.1111 0.36484-0.0504 0.1034-0.11926 0.18677-0.20671 0.25063-0.0848 0.06386-0.19113 0.09612-0.31833 0.09612h-0.24236zm-70.533 0.01499h0.23874c0.16956 0 0.28722 0.05266 0.35243 0.15813 0.0678 0.10547 0.10128 0.24641 0.10128 0.42323 0 0.1489-0.01164 0.295-0.03514 0.4377-0.02087 0.1396-0.05737 0.2635-0.10955 0.37207-0.04956 0.10547-0.11752 0.19066-0.2036 0.2558-0.08347 0.06514-0.18742 0.09818-0.31264 0.09818h-0.23875zm30.494 0h0.2496c0.17742 0 0.30022 0.05284 0.36845 0.15813 0.071 0.10528 0.10645 0.2462 0.10645 0.42271 0 0.14865-0.0122 0.29422-0.0367 0.43667-0.0218 0.13935-0.0601 0.26316-0.11472 0.37155-0.0519 0.10529-0.12282 0.19025-0.2129 0.25528-0.0874 0.06504-0.1961 0.09767-0.32712 0.09767h-0.25011zm-14.662 0.0093h0.22893c0.06278-3e-6 0.11884 0.0047 0.16795 0.01395 0.05183 0.0062 0.09572 0.02174 0.13126 0.04651 0.03547 0.02168 0.06251 0.05431 0.08165 0.09767 0.01914 0.04026 0.02894 0.09569 0.02894 0.16692 0 0.08052-0.014 0.14734-0.04134 0.19999-0.02457 0.04955-0.06003 0.08995-0.10645 0.12092-0.04367 0.02787-0.09687 0.04808-0.15968 0.06046-0.06005 0.0124-0.124 0.01809-0.19224 0.01809h-0.22944zm25.532 0h0.22944c0.0628-3e-6 0.11832 0.0047 0.16743 0.01395 0.0518 0.0062 0.0957 0.02174 0.13126 0.04651 0.0355 0.02168 0.0625 0.05431 0.0816 0.09767 0.0191 0.04026 0.0289 0.09569 0.0289 0.16692 0 0.08052-0.0135 0.14734-0.0408 0.19999-0.0246 0.04955-0.06 0.08995-0.10645 0.12092-0.0437 0.02787-0.0969 0.04808-0.15968 0.06046-0.0601 0.0124-0.12452 0.01809-0.19275 0.01809h-0.22893zm4.2478 0.06046c0.0737 0 0.13486 0.01554 0.18397 0.04651 0.0491 0.03097 0.0888 0.07449 0.11885 0.13022 0.03 0.05265 0.0506 0.11429 0.0615 0.18552 0.0136 0.07123 0.0207 0.14582 0.0207 0.22324 0 0.16413-0.0149 0.31125-0.045 0.44132-0.03 0.13007-0.0711 0.24144-0.12299 0.33435-0.0519 0.0898-0.11492 0.15922-0.18862 0.20877-0.071 0.04645-0.14845 0.06977-0.23306 0.06977-0.071 0-0.13124-0.01554-0.18035-0.04651-0.0492-0.03097-0.0888-0.07086-0.11886-0.12041-0.03-0.05264-0.0515-0.11326-0.0651-0.18138-0.0136-0.06813-0.0207-0.14066-0.0207-0.21808 0-0.09291 8e-3 -0.20169 0.0243-0.32556 0.0191-0.12387 0.0509-0.24147 0.0946-0.35295 0.0464-0.11148 0.10754-0.20422 0.18396-0.27854 0.0764-0.07742 0.17217-0.11627 0.28681-0.11627zm9.771 0.64492-0.10697 0.71985h1.2986l0.10748-0.71985z" fill="#fff" opacity=".999" stop-color="#000000" style="paint-order:stroke fill markers"/>
</svg>
