<svg version="1.1" viewBox="0 0 800 800.02" xml:space="preserve" xmlns="http://www.w3.org/2000/svg"><g transform="matrix(1.3333 0 0 -1.3333 2.3634e-5 800.02)"><path d="m600 300c0-165.71-134.31-300-300-300s-300 134.3-300 300 134.31 300.01 300 300.01 300-134.31 300-300.01"/><g fill="#fff"><g transform="matrix(3.3916 0 0 3.3916 188.13 177.37)"><path d="m0 0h-3.007v-22.926h7.625v2.296h-4.618zm60.57 0c-3.032 0-4.546-1.685-4.546-5.039v-12.844c0-3.362 1.504-5.043 4.509-5.043 1.525 0 2.577 0.515 3.151 1.549l1.467-1.549v10.549h-4.581v-2.264h1.687v-4.675c0-0.879-0.577-1.314-1.724-1.314-1.003 0-1.509 0.435-1.509 1.314v15.706c0 0.879 0.517 1.317 1.546 1.317 1.149 0 1.726-0.438 1.726-1.317v-3.527h2.891v2.098c0 3.354-1.539 5.039-4.617 5.039m-9.277-16.532-0.601 3.465-0.16 0.675-2.918 12.392h-3.604v-22.926h2.7v16.538l0.526-3.067 0.769-3.274 2.386-10.197h3.606v22.926h-2.704zm-12.316-6.394h3.004v22.926h-3.004zm-5.033 14.158c0-0.877-0.486-1.317-1.463-1.317h-1.539v7.792h1.504c1 0 1.498-0.438 1.498-1.317zm0-10.548c0-0.879-0.498-1.314-1.498-1.314h-1.504v8.253h1.539c0.977-0.042 1.463-0.48 1.463-1.317zm-1.498 19.316h-4.51v-22.926h4.51c3.002 0 4.502 1.681 4.502 5.043v2.753c0 0.376-0.025 0.731-0.075 1.053-0.212 1.446-0.899 2.393-2.066 2.848 1.423 0.532 2.141 1.831 2.141 3.897v2.293c0 3.354-1.5 5.039-4.502 5.039m-9.542-8.768c0-0.877-0.487-1.317-1.465-1.317h-1.539v7.792h1.504c0.999 0 1.5-0.438 1.5-1.317zm0-10.548c0-0.879-0.501-1.314-1.5-1.314h-1.504v8.253h1.539c0.978-0.042 1.465-0.48 1.465-1.317zm-1.5 19.316h-4.506v-22.926h4.506c3.001 0 4.506 1.681 4.506 5.043v2.753c0 2.044-0.715 3.343-2.141 3.901 1.426 0.532 2.141 1.831 2.141 3.897v2.293c0 3.354-1.505 5.039-4.506 5.039m-9.539-19.316c0-0.879-0.502-1.314-1.506-1.314-1 0-1.497 0.435-1.497 1.314v19.316h-3.006v-17.883c0-3.362 1.501-5.043 4.503-5.043 3.008 0 4.507 1.681 4.507 5.043v17.883h-3.001zm-21.106 19.316c-3.001 0-4.506-1.685-4.506-5.039v-12.844c0-3.362 1.505-5.043 4.506-5.043 2.904 0 4.357 1.681 4.357 5.043v2.841h-2.85v-4.274c0-0.879-0.505-1.314-1.507-1.314-1.001 0-1.501 0.435-1.501 1.314v15.706c0 0.879 0.5 1.317 1.501 1.317 1.002 0 1.507-0.438 1.507-1.317v-3.527h2.85v2.098c0 3.354-1.453 5.039-4.357 5.039" fill="#fff"/></g><g transform="matrix(3.3916 0 0 3.3916 452.52 143.74)"><path d="m0 0-1.175-7.174-0.262-2.339-0.259 2.358-1.15 7.155h-6.836v-1.326h1.741v-11.96h1.741v11.96h1.741v0.448l2.156-12.408h1.762l2.306 13.286z" fill="#fff"/></g><g transform="matrix(3.3916 0 0 3.3916 113.49 237.9)"><path d="m 0,0 c 0,0 -0.542,-4.501 4.142,-5.942 4.687,-1.439 15.494,-2.519 15.494,7.389 0,3.124 0.017,7.935 0.042,13.124 H -4.366 C -3.321,6.408 0,0 0,0" fill="#fff"/></g><g transform="matrix(3.3916 0 0 3.3916 483.76 377.82)"><path d="m0 0c0 5.228-5.767 5.409-5.767 5.409s-10.901 36.032-48.734 36.032c-37.827 0-48.729-36.032-48.729-36.032s-5.762-0.181-5.762-5.409c0 0-3.755-9.04-4.666-18.199h24.207c0.045 8.525 0.093 16.187 0.093 17.3 0 2.16-1.798 3.965-1.798 3.965s9.278 25.942 36.655 25.942c27.384 0 36.665-25.942 36.665-25.942s-1.8-1.805-1.8-3.965c0-1.113 0.045-8.775 0.091-17.3h24.21c-0.913 9.159-4.665 18.199-4.665 18.199" fill="#fff"/></g><g transform="matrix(3.3916 0 0 3.3916 417.61 287.32)"><path d="m0 0c0.024-5.188 0.047-10 0.047-13.123 0-9.909 10.806-8.828 15.491-7.389 4.678 1.44 4.143 5.941 4.143 5.941s3.319 6.409 4.366 14.571z" fill="#fff"/></g><g transform="matrix(3.3916 0 0 3.3916 99.061 300.52)"><path d="m0 0v0.083h0.073v0.062h0.059v0.042h0.098v-0.059h0.058l0.033-0.033h0.413v-0.083h0.299v0.105h0.205v0.118h0.172v-0.264h0.243v0.062h0.344v-0.083h0.267v0.076h0.352v-0.195h0.22v0.14h0.293v0.076h0.163v0.091h0.084v0.075h0.101v-0.369h0.193v0.112h0.127v0.161h0.353v-0.084h0.498v0.078h0.102v-0.078h2.007v-0.055h0.211v0.075h0.102v-0.18h0.249v0.069h0.326v0.19h0.278v-0.079h0.59v0.07h0.113v-0.076h0.306v0.064h0.149v-0.058h0.305v0.064h0.079v-0.07h0.364v-0.076h0.24v0.146h0.197v-0.32h0.063v-0.064h0.244v0.3h0.163v0.057h0.078v-0.049h0.335v0.07h0.099v-0.092h0.184v-0.035h0.255v0.119h0.088v-0.042h0.225v0.042h0.173v-0.062h0.261v0.146h0.086v-0.07h0.333v-0.084h0.533v0.035h0.278v-0.216h0.255v0.209h0.149v0.147h0.213v-0.161h0.55v0.064h0.247v-0.14h0.249v-0.078h0.307v0.218h0.399v-0.078h0.213v0.09h0.183v-0.082h0.199v0.062h0.255v-0.119h0.255v0.119h0.058v-0.062h0.127v-0.085h0.229v0.279h0.092v-0.145h0.191v-0.202h0.256v0.18h0.341v0.097h0.086v-0.104h0.228v0.133h0.098v-0.056h0.088v-0.07h0.204v0.07h0.15v-0.048h0.233v0.112h0.107v-0.169h0.123l0.055-0.055h0.227v0.069h0.349v0.126h0.099v-0.07h0.1v-0.174h0.298v0.194h0.403v-0.049h0.129v-0.048h0.356v0.042h0.156v-0.077h0.222v0.092h0.118v-0.168h0.228v0.208h0.113v-0.082h0.244v-0.041h0.171v-0.029h0.346v0.09h0.258v0.084h0.425v-0.104h0.064l0.028-0.029h0.277v0.099h0.156v0.102h0.088v-0.09h0.069v-0.082h0.065v-0.182h0.274v0.105h0.172v0.139h0.085v-0.132h0.514v0.09h0.098v-0.217h0.243v0.127h0.084v0.07h0.172v0.042h0.163v-0.071h0.24v0.105h0.143v0.075h0.162v-0.284h0.202v0.05l0.119 0.013 2e-3 -1.75v-0.083h0.259v-1.604h0.082v-0.181h0.244v0.81h0.277v0.299h0.078v0.473h0.148v-3.861h0.227v2.127h0.115v0.424h0.27v0.704h0.155v-7.337h0.35v6.948h0.091v-0.921h0.23v1.729h0.09v-0.558h0.13v-10.933h0.226v0.315h0.069v9.21h0.108v-0.209h0.25v0.954h0.107v-9.439h0.063v-9.372h0.262v4.801h0.071v8.492h0.198v-1.002h0.235v-12.44h0.079v-4.421h0.269v13.677h0.173v-3.853h0.326v-7.726h0.241v7.221h0.099v5.13h0.186v-5.492h0.214v6.817h0.098v-10.841h0.271v5.763h0.064v4.708h0.288v1.938h0.152v2.285h0.1v-9.657h0.319v6.563h0.263v5.337h0.084v-0.501h0.279v-0.426h0.235v0.113h0.255v2.16h0.12v1.329h0.163v-5.002h0.256v0.989h0.108v-1.295h0.233v2.732h0.269v-1.004h0.243v0.55h0.081v-0.607h0.246v0.216h0.092v4.139h0.178v-2.306h0.256v0.356h0.088v-1.679h0.248v1.15h0.083v4.005h0.094v-1.331h0.089v-1.38h0.216v0.12h0.091v-1.658h0.265v0.486h0.083v4.384h0.124v-3.839h0.212v0.395h0.106v-0.124h0.079v-4.306h0.27v0.431h0.062v1.171h0.108v-1.373h0.247v2.677h0.092v-2.028h0.1v-0.892h0.162v-3.388h0.082v-2.282h0.246v4.528h0.1v1.79h0.066v-2.215h0.097v-0.697h0.244v-2.496h0.34v8.104h0.093v-2.716h0.121v-3.555h0.22v-2.396h0.068v-4.041h0.235v15.809h0.107v-6.292h0.107v-2.222h0.087v-0.077h0.168v-0.941h0.094v-3.061h0.237v7.507h0.082v1.407h0.091v-6.257h0.087v-1.429h0.261v0.086h0.252v3.767h0.092v5.248h0.078v-6.606h0.099v-0.995h0.257v0.835h0.225v3.456h0.101v4.474h0.073v-7.373h0.11v-0.222h0.249v5.254h0.065v0.823h0.2v0.36h0.056v2.015h0.106v-4.94h0.085v-1.771h0.243v4.761h0.247v1.512h0.114v0.681h0.074v-3.923h0.353v1.402h0.251v1.93h0.084v-2.174h0.056v-1.686h0.277v1.1h0.098v-0.864h0.222v1.785h0.1v-2.035h0.264v1.162h0.096v-1.643h0.075v-0.092h0.234v0.886h0.12v-0.9h0.234v0.474h0.058v1.75h0.112v-0.336h0.257v-0.598h0.1v-0.39h0.247v2.152h0.08v0.9h0.273v0.286h0.088v-0.536h0.065v-0.335h0.254v0.955h0.079v1.712h0.093v-0.578h0.191v-0.243h0.137v-0.494h0.124v-0.064h0.244v0.823h0.078v0.674h0.093v-1.726h0.08v-0.503h0.225v0.551h0.277v0.084h0.077v1.651h0.102v-1.33h0.063v-0.494h0.289v0.334h0.257v0.097h0.058v0.906h0.105v-0.502h0.079v-0.293h0.247v0.382h0.1v-0.082h0.24v0.327h0.075v0.237h0.118v-0.837h0.22v0.642h0.11v0.14h0.083v-0.405h0.341v0.133h0.08v-0.168h0.341v-0.591h0.27v0.125h0.061v0.216h0.103v-1.094h0.091v-0.16h0.244v-0.126h0.276v0.705h0.142v0.535h0.107v0.16h0.084v-0.09h0.262v-0.348h0.087v-0.049h0.24v0.126h0.093v-0.231h0.069v-0.579h0.259v0.355h0.091v-1.796h0.259v1.992h0.081v-0.898h0.251v0.104h0.077v0.05h0.093v-0.747h0.248v0.919h0.096v-0.647h0.16v-0.084h0.362v-0.773h0.172v-1.673h0.25v2.169h0.084v-3.667h0.255v2.502h0.093v-0.989h0.076v-2.739h0.264v-1.351h0.257v3.826h0.091v-6.139h0.228v6.306h0.12v-4.195h0.231v-2.404h0.239v1.671h0.114v-2.735h0.242v2.478h0.078v-2.493h0.272v2.243h0.081v-0.662h0.244v3.684h0.255v1.779h0.113v-1.896h0.238v-1.206h0.333v1.979h0.269v2.349h0.158v0.501h0.077v-2.097h0.275v-3.449h0.089v-0.536h0.267v0.403h0.237v-0.911h0.246v0.312h0.107v-1.52h0.263v1.891h0.059v1.056h0.274v-0.361h0.228v0.371h0.119v-0.74h0.235v3.868h0.1v-4.849h0.242v6.229h0.086v-5.116h0.247v2.683h0.258v4.118h0.093v-1.7h0.331v0.202h0.302v-0.795h0.071v-2.835h0.245v3.636h0.258v0.064h0.086v1.574h0.078v-1.441h0.289v-0.67h0.338v0.718h0.231v0.884h0.079v-1.904h0.205v1.411h0.307v0.222h0.078v-0.955h0.355v0.655h0.235v-0.564h0.086v-0.837h0.27v0.448h0.265v-1.479h0.183v-0.431h0.121v-0.635h0.235v0.251h0.121v-0.962h0.085v-0.173h0.276v-1.953h0.25v3.911h0.104v-2.469h0.244v-0.486h0.091v-0.187h0.256v-0.37h0.243v2.174h0.077v-1.1h0.261v2.381h0.089v-2.118h0.276v1.645h0.227v1.018h0.101v-0.573h0.253v-1.525h0.34v1.79h0.076v-2.104h0.266v4.753h0.091v-4.187h0.247v0.103h0.252v0.244h0.074v0.132h0.26v1.283h0.098v-1.652h0.251v0.745h0.083v-1.993h0.252v2.99h0.098v-2.905h0.257v0.118h0.148v1.839h0.114v0.203h0.072v-4.257h0.242v4.374h0.103v-2.318h0.259v1.009h0.107v-0.383h0.218v-0.621h0.241v1.13h0.114v-0.76h0.25v2.084h0.092v-2.411h0.335v0.981h0.248v4.698h0.079v-1.694h0.279v-0.628h0.238v2.558h0.1v-1.727h0.257v-0.279h0.078v-1.178h0.339v-1.602h0.244v2.891h0.355v0.731h0.256v1.087h0.157v0.3h0.105v-0.892h0.088v-0.912h0.216v0.928h0.115v-0.811h0.1v-0.925h0.461v3.211h0.13v-3.686h0.262v0.412h0.07v2.313h0.145v0.5h0.186v-0.626h0.217v-1.337h0.291v2.209h0.093v-2.071h0.225v0.238h0.101v2.752h0.177v-1.003h0.265v0.187h0.103v0.39h0.096v-3.392h0.213v0.738h0.063v0.905h0.157v-0.773h0.221c0.036 0 0 2.78 0 2.78h0.089v0.417c0 0.031 0.117 0 0.117 0v-0.193h0.077v-0.878h0.22v0.411h0.115v-1.672h0.07v-0.034h0.233v2.165h0.115v-0.528h0.157v-0.216h0.232v0.431h0.137v-1.973h0.227v0.379h0.081v1.495h0.093v-1.008h0.259v0.098h0.055v1.616h0.124v0.138h0.068v0.503h0.088v-1.799h0.276v0.523h0.07v1.276h0.109v-0.286h0.178v-0.738h0.243v0.256h0.063v0.858h0.089v-0.383h0.212v0.112h0.173v0.181h0.115v0.159c0 0.022 0.097 0 0.097 0v-1.024h0.252v0.696h0.086v0.377h0.089v-0.208h0.108v-0.334h0.079v-0.079h0.235v0.503c0 0.029 0.106 0 0.106 0v-0.265h0.056v-0.083h0.276v-0.097h0.237v0.133h0.07v0.222h0.099v-0.244h0.293v0.063h0.067v0.049h0.065v-0.288h0.138v-0.124h0.221v0.314h0.089v0.306h0.074v-0.558h0.251v0.377h0.061v0.405h0.135v-0.788h0.235v0.106h0.078v0.618h0.107v0.098h0.092v-0.117h0.06v-0.163h0.279v0.216h0.253v-0.432h0.227v0.169h0.089v0.076h0.209v0.098h0.106v-0.12h0.389v0.23h0.107v-0.096h0.076v-0.042h0.229v0.097h0.127v-0.077h0.389v0.134h0.11v-0.126h0.264v0.126h0.112v-0.106h0.384v0.189h0.163v-0.062h0.278v-0.301h0.199v0.231h0.163v0.054h0.04v-0.062h0.295v0.05h0.07v-0.083h0.498v0.103h0.091v-0.097h0.42v-0.14h0.271v0.154h0.206v-0.049h0.183v0.146h0.243v-0.097h0.704v0.112h0.157v-0.19h0.36v0.049h0.166c0.026 0 0 0.092 0 0.092h0.08v0.082h0.062v-0.118h0.235v-0.188h0.227v0.202h0.184v0.091h0.207v-0.195h0.238v0.117h0.394v0.078h0.081v-0.069h0.138v-0.19h0.215v0.085h0.075v0.154h0.108v-0.301h0.208v0.28h0.087v-0.078h0.097v-0.033h0.365v0.145h0.154v-0.098h0.155v0.076h0.128v-0.117h0.704v0.077h0.183v-0.057h0.084v-0.069h0.248v0.16h0.332v0.091h0.11v-0.176h0.402l0.089-0.09h0.201v0.084h0.099v0.106h0.193v-0.262h0.296v0.262h0.152v-0.053h0.114v-0.063h0.214l0.097 0.095h0.094l0.108-0.105h0.257v0.105h0.319v-0.064h0.371v0.095h0.267v-0.178h0.224v0.104h0.078v0.074h0.22v-0.063h0.49v-0.063h0.267v0.104h0.151v0.062h0.127v-0.198h0.182v0.09h0.164l0.08-0.079h0.247v0.062h0.308v0.063h0.084v-0.084h0.109v-0.094h0.254v0.053h0.245v0.073h0.138v-0.282h0.104v-0.073h0.238v0.596h0.104v-0.576h0.237v0.283h0.107v0.178h0.095v-0.147h0.098v-0.219h0.211v0.304h0.162v-0.282h0.285v0.176h0.086v0.053h0.078v-0.303h0.275v0.26h0.245v0.064h0.16v0.166h0.168v0.324h-0.22v0.179h-0.312v-0.074h-0.511v-0.064h-0.137v0.095h-0.32v-0.166h-0.15v0.114h-0.278v-0.136h-0.107v0.418h-0.276v-0.241h-0.129v-0.092h-0.158v0.072h-0.247v-0.052h-0.204v0.178h-0.211v-0.198h-0.052v-0.157h-0.096v0.072h-0.266v-0.083h-0.117v0.135h-0.425v-0.135h-0.11v0.168h-0.093v0.072h-0.248v-0.084h-0.469v-0.082h-0.149v0.094h-0.245v-0.063h-0.148v0.177h-0.225v-0.251h-0.127v0.085h-0.276v0.134h-0.214v-0.115h-0.331v0.053h-0.127v-0.062h-0.213c-0.066 0 0-0.107 0-0.107h-0.088v0.211h-0.224v-0.156h-0.083v0.102h-0.266v0.106h-0.301v-0.156h-0.106v0.167h-0.265v-0.125h-0.12v-0.073h-0.129v0.124h-0.265v-0.2h-0.105v0.325h-0.237v-0.282h-0.202v0.073h-0.232v-0.104h-0.119v0.125h-0.245v0.137h-0.223v-0.105h-0.13v-0.114h-0.091v-0.074h-0.109v0.23h-0.619v-0.281h-0.117v0.103h-0.256v0.104h-0.192v-0.082h-0.086v0.208h-0.35v-0.114h-0.268v0.114h-0.19v-0.114h-0.128v-0.073h-0.194v-0.095h-0.172v0.25h-0.296v0.094h-0.266v-0.386h-0.214v0.198h-0.084v0.104h-0.224v-0.084h-0.16v-0.06h-0.14v0.198h-0.201v-0.115h-0.163v-0.043h-0.178v0.074h-0.14v0.146h-0.17v-0.241h-0.125v-0.061h-0.365v0.166h-0.255v-0.052h-0.278v0.072h-0.277v-0.051h-0.32v-0.104h-0.257v-0.053h-0.127v0.104h-0.074v0.104h-0.288v-0.155h-0.173v0.135h-0.22v-0.209h-0.11v0.115h-0.296v0.084h-0.288v-0.147h-0.287v0.085h-0.299c-0.041 0 0-0.052 0-0.052h-0.063v0.188h-0.386v0.051h-0.287v-0.115h-0.162v0.074h-0.096v0.105h-0.331v-0.075h-0.255v0.064h-0.191v0.073h-0.2v-0.137h-0.099v-0.209h-0.116v0.304h-0.33v-0.334h-0.099v-0.126h-0.04v0.67h-0.116v0.124h-0.245v-0.815h-0.118v0.836h-0.258v-0.344h-0.105v0.428h-0.136v0.543h-0.226v-0.491h-0.078v-0.262h-0.123v0.637h-0.194v-0.574h-0.107c-0.03 0 0-0.491 0-0.491h-0.107v0.481h-0.245v-0.313h-0.117v0.187h-0.105v0.315h-0.201v-0.137h-0.078v-0.292h-0.094v0.616c0 0.043-0.226 0-0.226 0v-0.721h-0.087v-0.23h-0.124v0.889h-0.289v-0.816h-0.139v0.387h-0.319v-0.167h-0.064v0.429h-0.35v0.198h-0.523v-0.398h-0.118v0.836h-0.221v-0.208h-0.122v-0.837h-0.07v1.465h-0.234v-0.304h-0.088v-0.566h-0.129v1.683h-0.086v0.881h-0.233v-2.301h-0.085v2.142h-0.223v-0.334h-0.13v-1.068h-0.085v-1.127h-0.11v1.495h-0.305v-0.921h-0.107v0.837h-0.055v0.743h-0.231v-1.61h-0.101v-0.775h-0.089v1.632h-0.11v0.042h-0.267v-0.388h-0.075v2.812h-0.074v0.283h-0.181v-1.861h-0.17v0.271h-0.234v-1.013h-0.087v-1.36h-0.201v2.196h-0.246v-0.396h-0.096v2.476h-0.224v-0.147h-0.116v-1.254h-0.075v3.073h-0.202v-3.427h-0.151v-1.38h-0.096v3.073h-0.223v-2.226h-0.17v2.331h-0.247v-3.429h-0.114v3.26h-0.1v0.68h-0.191v-3.04h-0.106v1.587h-0.278v1.536h-0.223v-0.344h-0.085v-2.006h-0.395v0.804h-0.226v-1.149h-0.092v1.117h-0.246v5.351h-0.267v-5.267h-0.064v3.438h-0.118v0.22h-0.189v-4.16h-0.142v1.661h-0.233v-0.125h-0.286v-0.889h-0.247v1.506h-0.085v2.132h-0.212c-0.034 0 0-1.849 0-1.849h-0.12v2.09h-0.265v1.765h-0.107v2.447h-0.203v-5.289h-0.15v0.858h-0.467v-0.982h-0.096v-0.273h-0.086v2.028h-0.265v-1.641h-0.236v-0.868h-0.117v1.85h-0.191v-1.527h-0.149v2.175h-0.245v-1.652h-0.214v-2.676h-0.118v1.965h-0.21v-0.668h-0.152v0.711h-0.244v2.508h-0.226v-2.183h-0.117v0.219h-0.222v-0.993h-0.141v2.027h-0.19v0.921h-0.257v-1.475h-0.268v-1.429h-0.172v-0.159h-0.15v-0.613h-0.12v1.337h-0.221v-0.153h-0.221v-0.091h-0.113v0.131h-0.248v-0.807h-0.235v0.774h-0.22v-1.081h-0.084v0.459h-0.265v0.315h-0.241v-0.388h-0.1v1.406h-0.239v-2.976h-0.123v2.522h-0.227v-3.19h-0.119v1.706h-0.493v-1.031h-0.084v-0.369h-0.235v1.199h-0.268v-0.796h-0.081v0.79h-0.09v0.604h-0.243v-0.216h-0.264v-2.94h-0.083v1.673h-0.285v-1.053h-0.052v3.646h-0.247v-1.694h-0.262v-1.366h-0.321v-1.114h-0.112v1.741h-0.25v-0.663h-0.086v0.503h-0.257v-1.528h-0.106v0.302h-0.248v1.267h-0.127v0.307h-0.213v-0.704h-0.087v2.036h-0.27v0.174h-0.07v1.351h-0.241v1.659h-0.1v0.237h-0.248s0.017 1.137 0 1.155c-0.017 0.019-0.264 0-0.264 0v-1.274h-0.348v3.978h-0.221v-4.865h-0.104v6.705h-0.256v-1.15h-0.249v-1.622h-0.144v0.71h-0.219v-0.566h-0.241v-4.793h-0.089c-5e-3 0 0 0.62 0 0.62h-0.269v-1.492h-0.26v1.457h-0.308v-1.7h-0.169v-0.481h-0.115v0.579h-0.268v2.187h-0.335v5.26h-0.251v-3.81h-0.218v-0.23h-0.086v-0.161h-0.274v-0.606h-0.088v-1.595h-0.271v-1.22h-0.062v-0.766h-0.249v-1.811h-0.128v1.49h-0.241v-0.731h-0.079v1.665h-0.27v0.578h-0.327v-2.007h-0.247v-1.06h-0.1v0.196h-0.221v-0.828h-0.101v-0.21h-0.277v-0.494h-0.071v0.263h-0.104v1.061h-0.245v-2.194h-0.076v0.994h-0.269v-0.159h-0.088v-0.082h-0.069v0.821h-0.264v-1.081h-0.076v0.628h-0.257v-0.613h-0.085v-0.607h-0.334v-0.585h-0.1v1.192h-0.256v-1.011h-0.072v-0.098h-0.113v0.559c0 0.021-0.224 0-0.224 0v-0.127h-0.11v-0.186h-0.1v0.807h-0.05v1.212h-0.255v-0.328h-0.128v-0.242h-0.136v-1.569h-0.215v0.069h-0.226v-0.257h-0.068v-0.975h-0.094v0.717h-0.085v0.271h-0.327v-0.612h-0.272v-0.222h-0.062v0.159h-0.113v0.572h-0.216v-0.321h-0.125v-0.479h-0.064v0.695h-0.272v-0.3h-0.091v0.824h-0.348v-0.733h-0.106v0.37h-0.216v-0.072h-0.197v0.95h-0.222v-0.411h-0.12v-0.266h-0.247v-0.321h-0.165v0.552h-0.411v-1.331h-0.273v0.208h-0.161v1.972h-0.113v0.46h-0.208v-1.716h-0.12v0.482h-0.078v0.244h-0.25v1.185h-0.077v1.548h-0.263v-1.527h-0.079v0.828h-0.255v-0.243h-0.095v2.021h-0.075v1.54h-0.255v-3.819h-0.11v1.29h-0.231v-0.627h-0.086v2.619h-0.094v0.236h-0.227v-4.521h-0.128v2.682h-0.239v-0.181h-0.094v2.697h-0.242v-1.777h-0.078v-4.339h-0.099v1.839h-0.239v2.506h-0.095v0.182h-0.263v-4.201h-0.093v-0.167h-0.335v5.776h-0.076v2.006h-0.265v-6.243h-0.262v-1.108h-0.078v2.572h-0.087v7.378h-0.086v0.746h-0.246v-5.978h-0.25v-1.121h-0.099v-0.831h-0.071v12.252h-0.079v2.241h-0.268v-12.339h-0.272v-1.107h-0.169v11.907h-0.079v4.347h-0.254v-13.063h-0.25v-1.902h-0.1v-1.839h-0.086v14.227h-0.075v6.716h-0.257v-16.241h-0.094v-4.94h-0.094v1.429h-0.232v5.302h-0.042v0.042h-0.041v12.903h-0.259v-11.909h-0.042v-0.047h-0.056v-8.96h-0.078v3.504h-0.045v0.062h-0.033v0.669h-0.185v2.752h-0.078v14.836h-0.257v-7.31h-0.084v-12.019h-0.156v2.689h-0.065v0.07h-0.059v0.196h-0.145v8.932h-0.039v0.077h-0.041v4.257h-0.255v-16.068h-0.078v-2.821h-0.051v0.063h-0.042v1.198h-0.258v4.486h-0.088v6.695h-0.26v-10.451h-0.082v-1.991h-0.248v-1.616h-0.095v0.618h-0.039v0.067h-0.037v1.28h-0.267v-0.281h-0.043v-0.043h-0.033v-1.719h-0.096v2.038h-0.259v-1.014h-0.267v1.371h-0.244v0.329h-0.248v-0.049h-0.087v0.085h-0.248v-0.748h-0.09v-0.214h-0.188v2.617h-0.057v0.048h-0.278v0.774h-0.248v-1.726h-0.093v-0.328h-0.164v0.173h-0.08v2.67h-0.266v-0.324h-0.243v-4.186h-0.174v-0.524h-0.092v2.012h-0.092v0.101h-0.244v1.698h-0.269v0.8h-0.251v0.088h-0.095v5.392h-0.237v2.586h-0.047v0.049h-0.043v4.133h-0.25v-12.835h-0.175v1.966h-0.043v0.063h-0.038v10.729h-0.266v-0.674h-0.229v-1.371h-0.062v-0.041h-0.04v-6.484h-0.266v9.124h-0.245v0.83h-0.252v-3.574h-0.058v-0.054h-0.032v-4.921h-0.175v2.351h-0.087v4.741h-0.238v7.76h-0.255v-11.491h-0.107v-8.268h-0.17v7.101h-0.251v7.599h-0.234v-1.422h-0.077v-0.04h-0.037v-19.28h-0.053v-0.417h-0.113v4.712h-0.035v0.054h-0.054v3.322h-0.239v6.821h-0.249v-8.957h-0.061v-0.068h-0.026v-6.474h-0.107v-0.117h-0.074v5.989h-0.254v0.33h-0.086v6.016h-0.255v-7.782h-0.078v-5.09h-0.09v1.584h-0.103v3.364h-0.248v2.186h-0.033v0.062h-0.048v1.113h-0.268v-7.735h-0.047v-0.04h-0.036v-0.131h-0.086v2.806h-0.036v0.046h-0.037v0.257h-0.279v1.311h-0.228v-2.148h-0.085v-2.212h-0.177v-0.045l1e-3 -0.242h-0.046v-0.045h-0.034v-0.058h-0.09v0.176h-0.252v-0.083h-0.086v-0.062h-0.35v0.062h-0.258v-0.165h-0.077v0.083h-0.174v0.09h-0.263v-0.101h-0.079v0.055h-0.176v0.117h-0.079v0.086h-0.255v-0.163h-0.262v0.163h-0.246v-0.158h-0.258v-0.174h-0.09v0.095h-0.166v0.084h-0.263v-0.095h-0.178v0.081h-0.165v0.171h-0.249v-0.166h-0.093v-0.048h-0.166v-0.037h-0.089v0.092h-0.083v0.162h-0.24v-0.203h-0.272v0.076h-0.25v-0.086h-0.045v0.049h-0.049v0.077h-0.338v-0.246h-0.086v0.124h-0.046v0.04h-0.294v-0.081h-0.34v0.034h-0.088v-0.036h-0.09v-0.039h-0.036v0.036h-0.043v0.093h-0.254v0.072h-0.265v-0.16h-0.165v0.043h-0.259v-0.04h-0.077v0.082h-0.258v-0.079h-0.085v-0.051h-0.087v0.04h-0.172v0.09s-0.248-3e-3 -0.25 0v0.16h-0.259v-0.167h-0.096v-0.083h-0.158v-0.082h-0.094v0.093h-0.168v0.198h-0.51v-0.041h-0.084v-0.167h-0.167s2e-3 -0.078 0-0.08c-4e-3 -3e-3 -0.167 0-0.167 0v0.121h-0.265v-0.078h-0.247v0.039h-0.258v0.038h-0.252v-0.04h-0.264v-0.08h-0.081v0.124h-0.17v0.125h-0.257v-0.084h-0.049v-0.044h-0.035v-0.12h-0.09v0.078h-0.429v-0.038h-0.081v-0.045h-0.09v0.211h-0.04v0.037h-0.387v-0.078h-0.168v-0.165h-0.167v0.164h-0.26v-0.076h-0.422v0.077h-0.259v-0.084h-0.081v0.042h-0.045v0.046h-0.041v0.075h-0.259v-0.158h-0.168v0.078h-0.255v-0.078h-0.303v-0.048h-0.043v0.041h-0.252v0.084h-0.259v-0.082h-0.17v0.123h-0.25v-0.081h-0.429v0.042h-0.092v0.085h-0.252v-0.089h-0.421v-0.078h-0.171v-0.045h-0.098v0.13h-0.238v-0.094h-0.1v-0.079h-0.161v0.209h-0.054v0.04h-0.037v0.041h-0.248v-0.162h-0.257v-0.049h-0.264v0.174h-0.291v-0.042h-0.04v-0.043h-0.173v-0.087h-0.178v0.047h-0.044v0.033h-0.286v-0.114h-0.097v0.039h-1.901v0.126h-0.255v-0.042h-0.089v-0.077h-0.169v0.156h-0.253v-0.08h-0.085v0.076h-0.303v-0.033h-0.041v-0.218h-0.26v0.049h-0.041v0.043h-0.214v0.084h-0.29v-0.042h-0.043v-0.045h-0.604v0.086h-0.69v-0.169h-0.078v0.248h-0.254v-0.165h-0.084v0.09h-0.43v-0.09h-0.168v0.085h-0.257v0.076h-0.256v-0.08h-0.087v-0.16h-0.083v0.075l-0.161 5e-3 -0.066-0.494z" fill="#fff"/></g></g></g></svg>
