<svg width="1340" height="1900" version="1.1" viewBox="0 0 1340 1900" xmlns="http://www.w3.org/2000/svg" xmlns:xlink="http://www.w3.org/1999/xlink">
 <defs>
  <radialGradient id="g" cx="398.41" cy="467.17" r="343.82" gradientTransform="matrix(.99055 0 -1.3248e-6 1.0077 4.2141 -105.44)" gradientUnits="userSpaceOnUse">
   <stop stop-color="#6460ab" offset="0"/>
   <stop stop-color="#31397e" offset="1"/>
  </radialGradient>
  <radialGradient id="f" cx="398.41" cy="467.17" r="343.82" gradientTransform="matrix(.99055 0 -1.3248e-6 1.0077 4.2141 -105.44)" gradientUnits="userSpaceOnUse">
   <stop stop-color="#c8234a" offset="0"/>
   <stop stop-color="#7f1331" offset="1"/>
  </radialGradient>
  <radialGradient id="e" cx="398.41" cy="467.17" r="343.82" gradientTransform="matrix(.99055 0 -1.3248e-6 1.0077 4.2141 -105.44)" gradientUnits="userSpaceOnUse">
   <stop stop-color="#0086ce" offset="0"/>
   <stop stop-color="#2e308b" offset="1"/>
  </radialGradient>
  <radialGradient id="d" cx="398.41" cy="467.17" r="343.82" gradientTransform="matrix(.99055 0 -1.3248e-6 1.0077 4.2141 -105.44)" gradientUnits="userSpaceOnUse">
   <stop stop-color="#f36f21" offset="0"/>
   <stop stop-color="#a24120" offset="1"/>
  </radialGradient>
  <radialGradient id="c" cx="398.41" cy="467.17" r="343.82" gradientTransform="matrix(.99055 0 -1.3248e-6 1.0077 4.2141 -105.44)" gradientUnits="userSpaceOnUse">
   <stop stop-color="#1cb048" offset="0"/>
   <stop stop-color="#077435" offset="1"/>
  </radialGradient>
  <radialGradient id="b" cx="398.41" cy="467.17" r="343.82" gradientTransform="matrix(.99055 0 -1.3248e-6 1.0077 4.2141 -105.44)" gradientUnits="userSpaceOnUse">
   <stop stop-color="#fdb406" offset="0"/>
   <stop stop-color="#d09b2c" offset="1"/>
  </radialGradient>
  <linearGradient id="l" x1="79.01" x2="136.54" y1="306.9" y2="360.6" gradientTransform="matrix(1.0011 0 0 1.0011 -1.3217e-6 -.6781)" gradientUnits="userSpaceOnUse">
   <stop stop-color="#ddb560" offset="0"/>
   <stop stop-color="#e4b44a" offset="1"/>
  </linearGradient>
  <linearGradient id="k" x1="146.05" x2="248.11" y1="132.3" y2="266.91" gradientTransform="matrix(1.0011 0 0 1.0011 -1.3217e-6 -.6781)" gradientUnits="userSpaceOnUse">
   <stop stop-color="#b97158" offset="0"/>
   <stop stop-color="#e38b5b" offset="1"/>
  </linearGradient>
  <linearGradient id="j" x1="318.8" x2="339.5" y1="26.131" y2="223.48" gradientTransform="matrix(1.0011 0 0 1.0011 -1.3217e-6 -.6781)" gradientUnits="userSpaceOnUse">
   <stop stop-color="#a24f66" offset="0"/>
   <stop stop-color="#d65a77" offset="1"/>
  </linearGradient>
  <linearGradient id="i" x1="492.68" x2="471.98" y1="26.131" y2="197.26" gradientTransform="matrix(1.0011 0 0 1.0011 -1.3217e-6 -.6781)" gradientUnits="userSpaceOnUse">
   <stop stop-color="#666b9f" offset="0"/>
   <stop stop-color="#8281b7" offset="1"/>
  </linearGradient>
  <linearGradient id="h" x1="639.41" x2="613.63" y1="124.47" y2="206.98" gradientTransform="matrix(1.0011 0 0 1.0011 -1.3217e-6 -.6781)" gradientUnits="userSpaceOnUse">
   <stop stop-color="#6264a8" offset="0"/>
   <stop stop-color="#4b7ab5" offset="1"/>
  </linearGradient>
  <linearGradient id="linearGradient937" x1="139.58" x2="139.58" y1="178.73" y2="203.1" gradientTransform="matrix(2.9367 0 0 2.9253 .40093 10.315)" gradientUnits="userSpaceOnUse">
   <stop offset="0"/>
   <stop offset="1"/>
  </linearGradient>
  <linearGradient id="linearGradient994" x1="139.58" x2="139.58" y1="178.73" y2="203.1" gradientTransform="matrix(2.9367 0 0 2.9253 .40093 10.315)" gradientUnits="userSpaceOnUse" xlink:href="#linearGradient937"/>
 </defs>
 <g transform="matrix(1.675 0 0 1.675 -.0018992 1.1373)" stroke-width="1.0011">
  <path d="m399.85 47.678c10.044-16.399 26.708-33.556 44.651-40.812 30.885-14.05 72.281-8.0095 97.48 14.224 24.384 22.088 36.753 52.363 30.916 86.209 5.9811-1.1027 12.018-4.9315 18.351-7.1108 37.851-10.682 77.882 0.90022 102.15 33.351 18.23 23.164 22.994 59.154 12.051 87.138-5.4311 14.077-14.691 26.734-26.736 37.53l1.2158 1.2236c35.214 1.7101 69.821 29.054 80.502 62.578 11.581 33.817 1.3935 69.954-23.339 94.684-20.207 19.97-46.19 26.881-75.074 26.298h-524.37c-43.055 0.93081-76.324-18.14-94.233-56.427-14.051-32.86-7.1131-74.887 19.129-99.936 16.547-17.303 37.275-24.387 59.628-27.955-25.312-23.483-37.508-55.615-30.395-90.07 5.0829-27.92 28.885-56.195 56.23-65.947 24.093-9.579 56.726-7.8959 78.789 5.1071l0.78306-0.95703c-6.6483-37.995 10.191-72.276 41.714-93.293 28.105-19.009 73.043-18.519 100.56 1.6868 12.368 7.5747 22.557 20.579 29.989 32.478" fill="#fff"/>
  <path d="m548.3 61.873c11.265 22.727 4.6488 52.51-7.1116 72.915l-90.98 204.67-0.78669 0.95702-32.887-207.62c-2.6384-19.938 18.664-28.445 31.206-38.025-0.63809-2.9301-3.8613-2.7873-5.8907-4.1501l-30.74-0.32047-0.9331-0.92935c0.17554-25.775 14.053-49.577 37.565-62.086 24.564-14.193 59.162-10.334 80.47 7.8653 8.6536 7.7233 15.941 16.689 20.09 26.734" fill="url(#g)"/>
  <path d="m380.69 54.761c7.4342 13.759 11.73 29.377 9.1169 46.674l-37.099 237.73c0.20177 0.28915-0.14495 0.60889-0.43924 0.75237l-9.6072-19.127-92.983-207.62c-8.6515-26.734-0.63809-54.687 18.84-73.846 19.624-19.91 51.905-25.311 77.57-14.51 13.585 5.8639 26.561 16.663 34.6 29.955" fill="url(#f)"/>
  <path d="m682.9 154.85c12.511 21.333 9.6975 53.612-4.2124 73.41-8.6165 13.902-22.844 20.839-34.891 29.952l-192.67 132.25h-0.44142l2.1517-6.3263 102.12-230.5c15.3-27.168 44.504-40.928 75.391-36.779 21.164 3.8638 42.327 17.62 52.545 37.998" fill="url(#e)"/>
  <path d="m245.2 153.62 106.28 236.8h-1.7118l-214.27-147.66c-21.805-18.373-30.743-45.89-23.341-73.698 5.544-20.84 22.847-40.316 43.428-48.04 33.704-12.336 71.673 0.78296 89.614 32.599" fill="url(#d)"/>
  <path d="m738.81 322c10.681 22.552 6.4735 53.436-8.7972 72.624-15.151 18.375-35.417 28.418-59.194 27.777l-228.47 0.14931 191.39-133.14c18.701-12.046 47.12-14.23 67.529-4.4756 15.761 6.1828 30.598 21.627 37.536 37.069" fill="url(#c)"/>
  <path d="m62.261 322c-10.651 22.552-6.4735 53.436 8.8255 72.624 15.153 18.375 35.358 28.418 59.163 27.777l228.47 0.14931-191.39-133.14c-18.695-12.046-47.112-14.23-67.494-4.4756-15.766 6.1828-30.596 21.627-37.566 37.069" fill="url(#b)"/>
  <path d="m95.666 410.78c29.866-40.974 56.576-70.365 92.083-99.5 0 0-62.654-57.847-109.6-5.3026-52.855 59.151 17.523 104.8 17.523 104.8z" fill="url(#l)"/>
  <path d="m214.79 291.5-71.937-49.515c-34.898-20.894-36.307-66.737-18.685-88.13 17.625-24.354 38.258-37.976 77.231-28.961 27.843 9.781 33.914 22.788 39.861 35.812l40.795 89.687c-19.368 10.394-38.223 20.233-67.265 41.106z" fill="url(#k)"/>
  <path d="m310.28 237.68c17.488-8.0531 35.219-15.923 56.256-21.315l18.668-119.49s6.1124-39.864-34.477-63.298c-28.198-16.28-65.042-7.6859-83.076 13.564-31.328 36.914-9.6884 72.34-9.6884 72.34z" fill="url(#j)"/>
  <path d="m508.35 194-75.47 6.5944-11.967-69.852c-0.77402-15.27 18.467-23.398 32.728-34.682 0.60163-1.482-1.7658-10.746-12.945-10.746h-25.156s-0.22818-40.306 38.589-55.442c48.37-18.86 76.935 15.143 76.935 15.143s11.981 13.357 15.143 25.156c8.5486 25.894-4.152 51.534-4.152 51.534z" fill="url(#i)"/>
  <path d="m543.14 194.86c68.09 5.5699 96.385 15.964 134.33 25.187 0 0 17.233-34.468 1.0951-62.421-9.9299-17.199-28.428-33.023-48.184-35.043-52.377-5.3546-69.357 31.393-69.357 31.393z" fill="url(#h)"/>
  <path d="m140.09 514c-2.9484-14.278-14.674-18.066-27.801-19.278-42.397-3.9228-49.914 27.717-49.914 41.077 0 22.856 6.6838 41.753 48.308 41.753 7.6764 0 28.87-7.8896 28.87-20.705h59.861c-2.4139 38.018-66.43 47.124-94.349 47.124-57.849 0-107.38-10.753-104.98-67.66 1.7091-40.618 40.147-69.123 116.61-67.341 42.623 0.98876 83.56 14.255 83.736 45.03h-60.337z" fill="url(#linearGradient994)"/>
  <path d="m739.66 514c-2.9484-14.278-14.677-18.066-27.801-19.278-42.4-3.9258-49.911 27.717-49.911 41.074 0 22.856 6.6809 41.753 48.311 41.753 7.6676 0 28.855-7.8896 28.855-20.705h59.869c-2.4022 38.018-66.43 47.124-94.352 47.124-57.849 0-107.38-10.753-104.98-67.66 1.7091-40.618 40.156-69.123 116.6-67.341 42.629 0.98876 83.568 14.255 83.747 45.03h-60.34z" fill="url(#linearGradient994)"/>
  <path d="m211.12 471.68h77.709l66.303 92.82h0.5374v-92.82h49.806v128.88h-74.449l-69.557-92.82h-0.54622v92.82h-49.806v-128.88z" fill="url(#linearGradient994)"/>
  <path d="m420.84 471.68h94.393c45.363 0 72.045 12.655 72.045 31.772 0 11.289-11.169 25.231-36.07 29.332v0.35981c29.986 1.7815 41.054 20.711 41.054 32.059 0 22.718-26.016 35.362-76.755 35.362h-94.666v-128.88zm54.642 50.078h15.647c24.101 0 36.887-1.8751 36.887-11.874 0-10.707-10.64-14.284-32.332-14.284h-20.202zm0 51.799h15.647c29.047 0 39.704-3.0394 39.704-13.033 0-10.713-13.456-14.29-35.148-14.29h-20.202z" fill="url(#linearGradient994)"/>
  <path d="m109.63 468.89c-71.392 0.09019-107.52 27.773-109.53 66.794h62.289c0.04326-13.426 7.6251-44.863 49.9-40.952 13.127 1.2111 24.864 4.9931 27.812 19.272h60.318c-0.17619-30.775-41.096-44.061-83.719-45.051-2.3894-0.0557-4.7552-0.0655-7.0704-0.0626z" fill="#363636"/>
  <path d="m211.12 471.68v64.01h49.806v-27.937h0.53184l20.929 27.937h52.152l-45.707-64.01h-77.712zm144.54 0v64.01h49.806v-64.01z" fill="#363636"/>
  <path d="m420.85 471.68v64.01h144.85c-4.2406-1.3036-9.0468-2.211-14.485-2.534v-0.37543c24.903-4.1013 36.071-18.025 36.071-29.314 0-19.117-26.687-31.786-72.05-31.786h-94.387zm54.623 23.933h20.211c21.693 0 32.317 3.5593 32.317 14.266 0 9.9987-12.784 11.888-36.885 11.888h-15.643z" fill="#363636"/>
  <path d="m709.21 468.89c-71.376 0.0902-107.52 27.773-109.53 66.794h62.258c0.0327-13.407 7.624-44.869 49.931-40.952 13.124 1.2111 24.833 4.9931 27.781 19.272h60.349c-0.17913-30.775-41.122-44.061-83.75-45.051-2.3889-0.0557-4.7245-0.0655-7.0391-0.0626z" fill="#363636"/>
 </g>
 <g transform="matrix(3.7795 0 0 3.7795 .0028008 1080)">
  <path d="m-7.3425e-4 0h354.54v216.96h-354.54z" fill="#fff" style="paint-order:stroke fill markers"/>
  <path d="m-7.4105e-4 105.83h354.54v111.13h-354.54z" fill="#b01220" style="paint-order:stroke fill markers"/>
  <path d="m148.27 64.721c0 8.9731-5.865 15.531-17.77 16.828-8.6278 0.9248-21.118-0.1666-27.047-0.8497-0.2208-0.9682-0.3919-2.1734-0.3919-3.1208 0-7.8548 4.2438-9.6455 8.2142-9.6455 4.1252 0 10.627 0.7149 15.465 0.7149 5.311 0 6.9345-1.807 6.9345-3.5235 0-2.2539-2.1478-3.1902-6.2739-3.9812l-11.294-2.1734c-9.4023-1.8024-14.418-8.3116-14.418-15.217 0-8.3952 5.9377-15.424 17.614-16.717 8.8298-0.9558 19.573 0.1231 25.47 0.8466 0.2175 1.0146 0.3299 1.972 0.3299 3.0263 0 7.8282-4.1252 9.5168-8.1008 9.5168-3.0563 0-7.7941-0.5724-13.203-0.5724-5.5094 0-7.7941 1.525-7.7941 3.3831 0 1.9557 2.1765 2.7674 5.6257 3.3707l10.796 2.0045c11.091 2.0464 15.843 8.3511 15.843 16.109m19.377 9.6346c0 4.8152-1.8899 7.5904-11.276 7.5904-1.2439 0-2.3329-0.092-3.3754-0.2417v-63.858c0-4.8494 1.6475-9.9087 11.132-9.9087 1.1936 0 2.398 0.123 3.5188 0.3571v66.06m38.382 24.704c1.2292 0.6289 3.7605 1.3934 6.943 1.4794 5.4449 0.1178 8.4232-1.9751 10.628-6.8594l29.254-65.303c-1.206-0.6506-3.8759-1.3717-6.0684-1.4228-3.7581-0.07-8.805 0.7025-12.036 8.4052l-9.4727 22.377-18.578-30.286c-1.1982-0.3679-4.1228-0.8954-6.273-0.8954-6.548 0-10.219 2.4204-14.023 6.5494l-18.062 19.771 14.528 22.885c2.6846 4.1694 6.2242 6.2948 11.971 6.2948 3.7572 0 6.8856-0.8559 8.3349-1.5498l-17.492-26.398 12.396-13.146 20.339 31.944-12.388 26.156" fill="#231f20" stroke-width="2.9438"/>
  <g transform="matrix(1.7545,0,0,1.7545,-81.753,117.57)" fill="#fff" stroke-width="4.0377">
   <path d="m123.71 23.356h14.511c-0.14535-3.9812-2.7174-7.1346-6.8924-7.1346-3.6864 0-6.9893 2.4751-7.6191 7.1346m18.057 3.1534h-18.057c0.58143 4.5141 3.7389 7.0902 8.3984 7.0902 1.9906 0 3.5411-0.44011 4.9987-0.92463 0.96905-0.33917 1.5061-0.53298 1.8937-0.53298 0.96905 0 1.6999 0.9206 1.4536 3.0081-2.039 0.92463-5.1925 1.8937-8.4913 1.8937-7.2356 0-12.186-4.9018-12.186-12.133 0-6.9408 5.1965-11.992 11.552-11.992 7.1386 0 10.631 5.681 10.631 11.213 0 0.73082-0.0485 1.5061-0.19381 2.3782"/>
   <path d="m115.38 22.816v12.476c0 0.9206-0.48452 1.4536-1.9906 1.4536-0.62988 0-1.3567-0.0969-1.7483-0.19381v-13.252c0-4.7564-2.3782-7.0377-5.8224-7.0377-2.7658 0-5.7295 1.9421-6.9408 4.175v14.855c0 0.9206-0.48856 1.4536-1.9906 1.4536-0.67833 0-1.4092-0.0969-1.7483-0.19381v-23.104c0.33917-0.09691 1.07-0.24226 1.7483-0.24226 1.502 0 1.9906 0.58143 1.9906 1.4536v1.9906c1.6958-2.039 4.2719-3.7349 7.7645-3.7349 4.7564 0 8.7376 3.0565 8.7376 9.9004"/>
   <path d="m181.64 35.486c-0.24226-1.9421 0.38762-2.9596 1.4092-2.9596 1.066 0 3.7833 1.2598 7.6191 1.2598 4.0781 0 5.6286-1.502 5.6286-3.4442 0-1.3123-0.58143-2.4267-4.2678-3.4482l-4.175-1.1629c-4.4657-1.2153-6.2625-3.4482-6.2625-6.2625 0-3.3997 2.7174-6.5532 8.9314-6.5532 2.8143 0 6.3109 0.67833 8.3984 1.5061 0.19381 1.8896-0.39166 2.9112-1.3607 2.9112s-3.5451-1.1669-6.9893-1.1669c-3.7874 0-5.1925 1.3607-5.1925 3.1575 0 1.1629 0.53298 2.2328 3.9287 3.2019l4.2234 1.1669c4.6595 1.3567 6.6016 3.5411 6.6016 6.5532 0 3.5895-2.8627 6.7954-9.5613 6.7954-3.0081 0-6.747-0.68237-8.9314-1.5545"/>
   <path d="m178.54 13.796-6.214 21.307c-0.38762 1.3123-1.3567 1.6514-2.7174 1.6514-0.77524 0-1.5545-0.14536-2.2328-0.33917l-5.9677-18.929-5.6326 17.616c-0.43607 1.3607-1.4576 1.6514-2.7174 1.6514-0.77928 0-1.603-0.14536-2.2813-0.33917l-6.6016-22.619c0.53297-0.29071 1.5061-0.58143 2.3782-0.58143 1.0175 0 1.603 0.33917 1.8937 1.3567l4.7564 17.863h0.0485l5.8708-18.638c0.63392-0.33917 1.5061-0.58143 2.3822-0.58143 1.4536 0 2.2328 0.38762 2.6689 1.7483l5.4348 17.471h0.0606l4.5989-17.863c0.29072-1.0175 0.82773-1.3567 1.8937-1.3567 0.87215 0 1.8452 0.29072 2.3782 0.58143"/>
  </g>
 </g>
</svg>
