<svg width="800" height="335.76" version="1.1" viewBox="0 0 800 335.76" xmlns="http://www.w3.org/2000/svg">
 <defs>
  <radialGradient id="g-1" cx="398.41" cy="467.17" r="343.82" gradientTransform="matrix(.98944 0 -1.3233e-6 1.0066 4.6088 -104.25)" gradientUnits="userSpaceOnUse">
   <stop stop-color="#6460ab" offset="0"/>
   <stop stop-color="#31397e" offset="1"/>
  </radialGradient>
  <radialGradient id="f-3" cx="398.41" cy="467.17" r="343.82" gradientTransform="matrix(.98944 0 -1.3233e-6 1.0066 4.6088 -104.25)" gradientUnits="userSpaceOnUse">
   <stop stop-color="#c8234a" offset="0"/>
   <stop stop-color="#7f1331" offset="1"/>
  </radialGradient>
  <radialGradient id="e-3" cx="398.41" cy="467.17" r="343.82" gradientTransform="matrix(.98944 0 -1.3233e-6 1.0066 4.6088 -104.25)" gradientUnits="userSpaceOnUse">
   <stop stop-color="#0086ce" offset="0"/>
   <stop stop-color="#2e308b" offset="1"/>
  </radialGradient>
  <radialGradient id="d-6" cx="398.41" cy="467.17" r="343.82" gradientTransform="matrix(.98944 0 -1.3233e-6 1.0066 4.6088 -104.25)" gradientUnits="userSpaceOnUse">
   <stop stop-color="#f36f21" offset="0"/>
   <stop stop-color="#a24120" offset="1"/>
  </radialGradient>
  <radialGradient id="c-5" cx="398.41" cy="467.17" r="343.82" gradientTransform="matrix(.98944 0 -1.3233e-6 1.0066 4.6088 -104.25)" gradientUnits="userSpaceOnUse">
   <stop stop-color="#1cb048" offset="0"/>
   <stop stop-color="#077435" offset="1"/>
  </radialGradient>
  <radialGradient id="b-1" cx="398.41" cy="467.17" r="343.82" gradientTransform="matrix(.98944 0 -1.3233e-6 1.0066 4.6088 -104.25)" gradientUnits="userSpaceOnUse">
   <stop stop-color="#fdb406" offset="0"/>
   <stop stop-color="#d09b2c" offset="1"/>
  </radialGradient>
  <linearGradient id="l-7" x1="79.01" x2="136.54" y1="306.9" y2="360.6" gradientTransform="translate(.39942 .3929)" gradientUnits="userSpaceOnUse">
   <stop stop-color="#ddb560" offset="0"/>
   <stop stop-color="#e4b44a" offset="1"/>
  </linearGradient>
  <linearGradient id="k-2" x1="146.05" x2="248.11" y1="132.3" y2="266.91" gradientTransform="translate(.39942 .3929)" gradientUnits="userSpaceOnUse">
   <stop stop-color="#b97158" offset="0"/>
   <stop stop-color="#e38b5b" offset="1"/>
  </linearGradient>
  <linearGradient id="j-5" x1="318.8" x2="339.5" y1="26.131" y2="223.48" gradientTransform="translate(.39942 .3929)" gradientUnits="userSpaceOnUse">
   <stop stop-color="#a24f66" offset="0"/>
   <stop stop-color="#d65a77" offset="1"/>
  </linearGradient>
  <linearGradient id="i-5" x1="492.68" x2="471.98" y1="26.131" y2="197.26" gradientTransform="translate(.39942 .3929)" gradientUnits="userSpaceOnUse">
   <stop stop-color="#666b9f" offset="0"/>
   <stop stop-color="#8281b7" offset="1"/>
  </linearGradient>
  <linearGradient id="h-8" x1="639.41" x2="613.63" y1="124.47" y2="206.98" gradientTransform="translate(.39942 .3929)" gradientUnits="userSpaceOnUse">
   <stop stop-color="#6264a8" offset="0"/>
   <stop stop-color="#4b7ab5" offset="1"/>
  </linearGradient>
  <linearGradient id="linearGradient1055" x1="139.58" x2="139.58" y1="178.73" y2="203.1" gradientTransform="matrix(2.9334 0 0 2.922 .79991 11.374)" gradientUnits="userSpaceOnUse">
   <stop stop-color="#d6d7d8" offset="0"/>
   <stop stop-color="#f7f7f8" offset="1"/>
  </linearGradient>
 </defs>
 <g transform="matrix(.55592 0 0 .55592 -.22302 -.21827)">
  <path d="m399.8 48.695c10.033-16.381 26.678-33.518 44.601-40.766 30.85-14.034 72.2-8.0005 97.371 14.208 24.357 22.063 36.712 52.304 30.881 86.112 5.9744-1.1015 12.005-4.926 18.33-7.1028 37.809-10.67 77.795 0.89921 102.04 33.314 18.21 23.138 22.968 59.088 12.037 87.04-5.425 14.061-14.675 26.704-26.706 37.488l1.2144 1.2222c35.175 1.7082 69.743 29.021 80.412 62.508 11.568 33.779 1.3919 69.876-23.313 94.578-20.184 19.948-46.138 26.851-74.99 26.269h-523.78c-43.007 0.92977-76.238-18.12-94.127-56.364-14.035-32.823-7.1051-74.803 19.108-99.824 16.528-17.284 37.233-24.36 59.561-27.924-25.284-23.457-37.466-55.553-30.361-89.969 5.0772-27.889 28.853-56.132 56.167-65.873 24.066-9.5683 56.662-7.887 78.701 5.1014l0.78218-0.95596c-6.6408-37.952 10.18-72.195 41.667-93.188 28.073-18.988 72.961-18.498 100.45 1.6849 12.354 7.5662 22.532 20.556 29.955 32.442" fill="#fff"/>
  <path d="m548.09 62.874c11.252 22.702 4.6436 52.451-7.1036 72.833l-90.878 204.44-0.78581 0.95595-32.85-207.39c-2.6354-19.916 18.643-28.413 31.171-37.982-0.63738-2.9268-3.857-2.7842-5.8841-4.1454l-30.706-0.32011-0.93206-0.92831c0.17535-25.746 14.037-49.521 37.523-62.016 24.536-14.177 59.096-10.322 80.38 7.8565 8.6439 7.7146 15.923 16.67 20.067 26.704" fill="url(#g-1)"/>
  <path d="m380.66 55.769c7.4259 13.744 11.717 29.344 9.1067 46.622l-37.057 237.46c0.20155 0.28883-0.14479 0.60821-0.43874 0.75153l-9.5964-19.106-92.879-207.39c-8.6418-26.704-0.63738-54.626 18.819-73.763 19.602-19.888 51.847-25.283 77.483-14.494 13.57 5.8573 26.531 16.644 34.561 29.921" fill="url(#f-3)"/>
  <path d="m682.53 155.74c12.497 21.309 9.6866 53.552-4.2077 73.328-8.6068 13.886-22.818 20.816-34.852 29.918l-192.45 132.1h-0.44093l2.1493-6.3192 102.01-230.24c15.283-27.138 44.454-40.882 75.306-36.738 21.14 3.8595 42.28 17.6 52.486 37.955" fill="url(#e-3)"/>
  <path d="m245.33 154.52 106.16 236.53h-1.7099l-214.03-147.49c-21.781-18.352-30.709-45.839-23.315-73.615 5.5378-20.817 22.821-40.271 43.379-47.986 33.666-12.322 71.593 0.78208 89.514 32.562" fill="url(#d-6)"/>
  <path d="m738.38 322.72c10.669 22.527 6.4662 53.376-8.7873 72.543-15.134 18.354-35.377 28.386-59.128 27.746l-228.21 0.14914 191.18-132.99c18.68-12.032 47.067-14.214 67.453-4.4706 15.743 6.1759 30.564 21.603 37.494 37.027" fill="url(#c-5)"/>
  <path d="m62.591 322.72c-10.639 22.527-6.4662 53.376 8.8156 72.543 15.136 18.354 35.318 28.386 59.097 27.746l228.21 0.14914-191.18-132.99c-18.674-12.032-47.059-14.214-67.418-4.4706-15.748 6.1759-30.562 21.603-37.524 37.027" fill="url(#b-1)"/>
  <path d="m95.958 411.39c29.833-40.928 56.513-70.286 91.98-99.388 0 0-62.584-57.782-109.48-5.2966-52.796 59.085 17.503 104.68 17.503 104.68z" fill="url(#l-7)"/>
  <path d="m214.94 292.25-71.856-49.459c-34.859-20.871-36.266-66.662-18.664-88.031 17.605-24.327 38.215-37.933 77.144-28.929 27.812 9.77 33.876 22.762 39.816 35.772l40.749 89.586c-19.346 10.382-38.18 20.21-67.19 41.06z" fill="url(#k-2)"/>
  <path d="m310.33 238.48c17.468-8.0441 35.18-15.905 56.193-21.291l18.647-119.36s6.1055-39.819-34.438-63.227c-28.166-16.262-64.969-7.6773-82.983 13.549-31.293 36.873-9.6775 72.259-9.6775 72.259z" fill="url(#j-5)"/>
  <path d="m508.18 194.85-75.385 6.587-11.954-69.774c-0.77315-15.253 18.446-23.372 32.691-34.643 0.60095-1.4803-1.7638-10.734-12.93-10.734h-25.128s-0.22793-40.261 38.546-55.38c48.316-18.839 76.849 15.126 76.849 15.126s11.968 13.342 15.126 25.128c8.539 25.865-4.1474 51.476-4.1474 51.476z" fill="url(#i-5)"/>
  <path d="m542.93 195.71c68.014 5.5637 96.277 15.946 134.18 25.159 0 0 17.214-34.429 1.0939-62.351-9.9188-17.18-28.396-32.986-48.13-35.004-52.318-5.3486-69.279 31.358-69.279 31.358z" fill="url(#h-8)"/>
  <path d="m140.33 514.49c-2.9451-14.262-14.658-18.046-27.77-19.256-42.349-3.9184-49.858 27.686-49.858 41.031 0 22.83 6.6763 41.706 48.254 41.706 7.6678 0 28.838-7.8807 28.838-20.682h59.794c-2.4112 37.975-66.355 47.071-94.243 47.071-57.784 0-107.26-10.741-104.86-67.584 1.7072-40.572 40.102-69.045 116.48-67.265 42.575 0.98765 83.466 14.239 83.642 44.979h-60.269z" fill="url(#linearGradient1055)"/>
  <path d="m739.23 514.49c-2.9451-14.262-14.661-18.046-27.77-19.256-42.352-3.9214-49.855 27.686-49.855 41.028 0 22.83 6.6734 41.706 48.257 41.706 7.659 0 28.823-7.8807 28.823-20.682h59.802c-2.3995 37.975-66.355 47.071-94.246 47.071-57.784 0-107.26-10.741-104.86-67.584 1.7072-40.572 40.111-69.045 116.47-67.265 42.581 0.98765 83.474 14.239 83.653 44.979h-60.272z" fill="url(#linearGradient1055)"/>
  <path d="m211.28 472.23h77.622l66.229 92.716h0.5368v-92.716h49.75v128.74h-74.366l-69.479-92.716h-0.5456v92.716h-49.75v-128.74z" fill="url(#linearGradient1055)"/>
  <path d="m420.77 472.23h94.287c45.312 0 71.964 12.641 71.964 31.736 0 11.276-11.156 25.203-36.03 29.299v0.35941c29.952 1.7795 41.008 20.688 41.008 32.023 0 22.693-25.987 35.322-76.669 35.322h-94.56v-128.74zm54.581 50.022h15.629c24.074 0 36.846-1.873 36.846-11.861 0-10.695-10.628-14.268-32.296-14.268h-20.179zm0 51.741h15.629c29.014 0 39.659-3.036 39.659-13.018 0-10.701-13.441-14.274-35.109-14.274h-20.179z" fill="url(#linearGradient1055)"/>
  <path d="m109.91 469.44c-71.312 0.09009-107.4 27.742-109.41 66.719h62.219c0.04321-13.411 7.6165-44.813 49.844-40.906 13.112 1.2097 24.836 4.9875 27.781 19.25h60.25c-0.176-30.74-41.05-44.012-83.625-45-2.3867-0.0556-4.7499-0.0654-7.0625-0.0625z" fill="#f1f1f2"/>
  <path d="m708.81 469.44c-71.296 0.0901-107.4 27.742-109.41 66.719h62.188c0.0327-13.392 7.6154-44.819 49.875-40.906 13.109 1.2097 24.805 4.9875 27.75 19.25h60.281c-0.17893-30.74-41.076-44.012-83.656-45-2.3862-0.0556-4.7192-0.0654-7.0312-0.0625z" fill="#f1f1f2"/>
  <path d="m211.28 472.22v63.938h49.75v-27.906h0.53125l20.906 27.906h52.094l-45.656-63.938h-77.625zm144.38 0v63.938h49.75v-63.938z" fill="#f1f1f2"/>
  <path d="m420.78 472.22v63.938h144.69c-4.2358-1.3021-9.0367-2.2085-14.469-2.5312v-0.375c24.875-4.0967 36.031-18.005 36.031-29.281 0-19.096-26.657-31.75-71.969-31.75h-94.281zm54.562 23.906h20.188c21.669 0 32.281 3.5553 32.281 14.25 0 9.9875-12.77 11.875-36.844 11.875h-15.625z" fill="#f1f1f2"/>
 </g>
 <g transform="matrix(.39501 0 0 .39501 1034.8 -453.73)">
  <path d="m-1444.3 1573.6h850v425h-850z" fill="#b01220" stop-color="#000000" stroke-width=".88559" style="font-variation-settings:normal"/>
  <rect x="-1444.3" y="1148.6" width="850" height="425" fill="#fff" stop-color="#000000" stroke-width="1.552"/>
  <g transform="matrix(2.0392 0 0 2.0392 1248.8 1640.7)" stroke-width="15.26">
   <path d="m-1159.9-113.77c0 14.726-9.6293 25.5-29.193 27.621-14.177 1.526-34.687-0.27469-44.423-1.3887-0.3662-1.5871-0.6562-3.5709-0.6562-5.1275 0-12.895 6.974-15.825 13.506-15.825 6.7756 0 17.458 1.175 25.409 1.175 8.7137 0 11.384-2.9758 11.384-5.799 0-3.693-3.5252-5.2343-10.316-6.5315l-18.541-3.5709c-15.444-2.9453-23.684-13.643-23.684-24.966 0-13.78 9.7514-25.317 28.934-27.454 14.497-1.5566 32.154 0.21365 41.844 1.3887 0.351 1.6786 0.5341 3.2505 0.5341 4.9749 0 12.849-6.7756 15.627-13.307 15.627-5.0207 0-12.804-0.94615-21.685-0.94615-9.0494 0-12.804 2.5027-12.804 5.5548 0 3.22 3.571 4.5476 9.2326 5.5395l17.748 3.281c18.221 3.3573 26.019 13.704 26.019 26.446m31.833 15.81c0 7.9049-3.0978 12.468-18.526 12.468-2.0449 0-3.8304-0.15262-5.5396-0.39677v-104.82c0-7.9659 2.7011-16.268 18.282-16.268 1.9686 0 3.9372 0.19839 5.7837 0.59516zm63.056 40.562c2.0144 1.0377 6.1652 2.2891 11.4 2.4264 8.9426 0.19839 13.841-3.2352 17.458-11.262l48.055-107.2c-1.9838-1.0682-6.3636-2.2433-9.965-2.3348-6.1805-0.10681-14.467 1.1598-19.777 13.811l-15.55 36.732-30.521-49.718c-1.9686-0.61042-6.7757-1.465-10.316-1.465-10.743 0-16.786 3.9677-23.028 10.743l-29.666 32.459 23.852 37.556c4.4103 6.8519 10.24 10.347 19.671 10.347 6.1805 0 11.323-1.404 13.689-2.5485l-28.72-43.34 20.357-21.578 33.405 52.435z" fill="#231f20"/>
   <path d="m-1133.8-206.98c-15.581 0-18.283 8.3016-18.283 16.268v68.883l24.066-0.95899v-83.596c-1.8465-0.39678-3.8146-0.59571-5.7832-0.59571zm59.623 30.568c-10.743 0-16.788 3.9666-23.029 10.742l-29.666 32.459 6.4278 10.121 26.728-1.0664-4.6641-7.0391 20.357-21.58 17.393 27.301 26.49-1.0547-29.723-48.418c-1.9686-0.61042-6.7741-1.4648-10.314-1.4648zm-121.96 0.17188c-3.8454 0.0346-7.6686 0.21633-11.293 0.60547-19.182 2.1365-28.934 13.673-28.934 27.453 0 11.323 8.242 22.022 23.686 24.967l16.352 3.1484 35.406-1.4102c-2.6906-9.0912-10.573-16.09-24.945-18.738l-17.748-3.2812c-5.6616-0.99193-9.2324-2.3191-9.2324-5.5391 0-3.0521 3.7533-5.5547 12.803-5.5547 8.8816 0 16.665 0.94531 21.686 0.94531 6.5315 0 13.307-2.7777 13.307-15.627 0-1.7244-0.1822-3.296-0.5332-4.9746-7.2678-0.88129-19.017-2.0979-30.553-1.9941zm196.95 0.46679c-6.0224 0.0975-13.617 1.9523-18.596 13.812l-14.977 35.375 24.148-0.96093 20.57-45.891c-1.9838-1.0682-6.3634-2.2424-9.9648-2.334-0.38628-7e-3 -0.78015-9e-3 -1.1816-2e-3z" fill="#fff" opacity=".2"/>
  </g>
  <g transform="matrix(5.5911 0 0 5.5911 -1844.7 1646.5)" fill="#fff" stroke-width="4.0377">
   <path d="m123.69 23.339h14.511c-0.14535-3.9812-2.7174-7.1346-6.8924-7.1346-3.6864 0-6.9893 2.4751-7.6191 7.1346m18.057 3.1534h-18.057c0.58143 4.5141 3.7389 7.0902 8.3984 7.0902 1.9906 0 3.5411-0.44011 4.9987-0.92463 0.96905-0.33917 1.5061-0.53298 1.8937-0.53298 0.96905 0 1.6999 0.9206 1.4536 3.0081-2.039 0.92463-5.1925 1.8937-8.4913 1.8937-7.2356 0-12.186-4.9018-12.186-12.133 0-6.9408 5.1965-11.992 11.552-11.992 7.1386 0 10.631 5.681 10.631 11.213 0 0.73082-0.0485 1.5061-0.19381 2.3782"/>
   <path d="m115.37 22.814v12.476c0 0.9206-0.48452 1.4536-1.9906 1.4536-0.62988 0-1.3567-0.0969-1.7483-0.19381v-13.252c0-4.7564-2.3782-7.0377-5.8224-7.0377-2.7658 0-5.7295 1.9421-6.9408 4.175v14.855c0 0.9206-0.48856 1.4536-1.9906 1.4536-0.67833 0-1.4092-0.0969-1.7483-0.19381v-23.104c0.33917-0.09691 1.07-0.24226 1.7483-0.24226 1.502 0 1.9906 0.58143 1.9906 1.4536v1.9906c1.6958-2.039 4.2719-3.7349 7.7645-3.7349 4.7564 0 8.7376 3.0565 8.7376 9.9004"/>
   <path d="m181.63 35.492c-0.24226-1.9421 0.38762-2.9596 1.4092-2.9596 1.066 0 3.7833 1.2598 7.6191 1.2598 4.0781 0 5.6286-1.502 5.6286-3.4442 0-1.3123-0.58143-2.4267-4.2678-3.4482l-4.175-1.1629c-4.4657-1.2153-6.2625-3.4482-6.2625-6.2625 0-3.3997 2.7174-6.5532 8.9314-6.5532 2.8143 0 6.3109 0.67833 8.3984 1.5061 0.19381 1.8896-0.39166 2.9112-1.3607 2.9112s-3.5451-1.1669-6.9893-1.1669c-3.7874 0-5.1925 1.3607-5.1925 3.1575 0 1.1629 0.53298 2.2328 3.9287 3.2019l4.2234 1.1669c4.6595 1.3567 6.6016 3.5411 6.6016 6.5532 0 3.5895-2.8627 6.7954-9.5613 6.7954-3.0081 0-6.747-0.68237-8.9314-1.5545"/>
   <path d="m178.52 13.81-6.214 21.307c-0.38762 1.3123-1.3567 1.6514-2.7174 1.6514-0.77524 0-1.5545-0.14536-2.2328-0.33917l-5.9677-18.929-5.6326 17.616c-0.43607 1.3607-1.4576 1.6514-2.7174 1.6514-0.77928 0-1.603-0.14536-2.2813-0.33917l-6.6016-22.619c0.53297-0.29071 1.5061-0.58143 2.3782-0.58143 1.0175 0 1.603 0.33917 1.8937 1.3567l4.7564 17.863h0.0485l5.8708-18.638c0.63392-0.33917 1.5061-0.58143 2.3822-0.58143 1.4536 0 2.2328 0.38762 2.6689 1.7483l5.4348 17.471h0.0606l4.5989-17.863c0.29072-1.0175 0.82773-1.3567 1.8937-1.3567 0.87215 0 1.8452 0.29072 2.3782 0.58143"/>
  </g>
  <g transform="matrix(34.385 0 0 -34.385 -1416 1573.6)" opacity=".2">
   <path d="m23.896-6.021e-8 -1e-5 -5.009-23.533-2.042c-0.663-0.026-1.187-0.571-1.187-1.235l7.76e-6 8.286z" fill="#fff"/>
  </g>
 </g>
</svg>
