<svg width="800" height="850" version="1.1" viewBox="0 0 800 850" xmlns="http://www.w3.org/2000/svg" xmlns:xlink="http://www.w3.org/1999/xlink">
 <defs>
  <radialGradient id="g" cx="398.41" cy="467.17" r="343.82" gradientTransform="matrix(.99055 0 -1.3248e-6 1.0077 4.2141 -105.44)" gradientUnits="userSpaceOnUse">
   <stop stop-color="#6460ab" offset="0"/>
   <stop stop-color="#31397e" offset="1"/>
  </radialGradient>
  <radialGradient id="f" cx="398.41" cy="467.17" r="343.82" gradientTransform="matrix(.99055 0 -1.3248e-6 1.0077 4.2141 -105.44)" gradientUnits="userSpaceOnUse">
   <stop stop-color="#c8234a" offset="0"/>
   <stop stop-color="#7f1331" offset="1"/>
  </radialGradient>
  <radialGradient id="e" cx="398.41" cy="467.17" r="343.82" gradientTransform="matrix(.99055 0 -1.3248e-6 1.0077 4.2141 -105.44)" gradientUnits="userSpaceOnUse">
   <stop stop-color="#0086ce" offset="0"/>
   <stop stop-color="#2e308b" offset="1"/>
  </radialGradient>
  <radialGradient id="d" cx="398.41" cy="467.17" r="343.82" gradientTransform="matrix(.99055 0 -1.3248e-6 1.0077 4.2141 -105.44)" gradientUnits="userSpaceOnUse">
   <stop stop-color="#f36f21" offset="0"/>
   <stop stop-color="#a24120" offset="1"/>
  </radialGradient>
  <radialGradient id="c" cx="398.41" cy="467.17" r="343.82" gradientTransform="matrix(.99055 0 -1.3248e-6 1.0077 4.2141 -105.44)" gradientUnits="userSpaceOnUse">
   <stop stop-color="#1cb048" offset="0"/>
   <stop stop-color="#077435" offset="1"/>
  </radialGradient>
  <radialGradient id="b" cx="398.41" cy="467.17" r="343.82" gradientTransform="matrix(.99055 0 -1.3248e-6 1.0077 4.2141 -105.44)" gradientUnits="userSpaceOnUse">
   <stop stop-color="#fdb406" offset="0"/>
   <stop stop-color="#d09b2c" offset="1"/>
  </radialGradient>
  <linearGradient id="l" x1="79.01" x2="136.54" y1="306.9" y2="360.6" gradientTransform="matrix(1.0011 0 0 1.0011 -1.3217e-6 -.6781)" gradientUnits="userSpaceOnUse">
   <stop stop-color="#ddb560" offset="0"/>
   <stop stop-color="#e4b44a" offset="1"/>
  </linearGradient>
  <linearGradient id="k" x1="146.05" x2="248.11" y1="132.3" y2="266.91" gradientTransform="matrix(1.0011 0 0 1.0011 -1.3217e-6 -.6781)" gradientUnits="userSpaceOnUse">
   <stop stop-color="#b97158" offset="0"/>
   <stop stop-color="#e38b5b" offset="1"/>
  </linearGradient>
  <linearGradient id="j" x1="318.8" x2="339.5" y1="26.131" y2="223.48" gradientTransform="matrix(1.0011 0 0 1.0011 -1.3217e-6 -.6781)" gradientUnits="userSpaceOnUse">
   <stop stop-color="#a24f66" offset="0"/>
   <stop stop-color="#d65a77" offset="1"/>
  </linearGradient>
  <linearGradient id="i" x1="492.68" x2="471.98" y1="26.131" y2="197.26" gradientTransform="matrix(1.0011 0 0 1.0011 -1.3217e-6 -.6781)" gradientUnits="userSpaceOnUse">
   <stop stop-color="#666b9f" offset="0"/>
   <stop stop-color="#8281b7" offset="1"/>
  </linearGradient>
  <linearGradient id="h" x1="639.41" x2="613.63" y1="124.47" y2="206.98" gradientTransform="matrix(1.0011 0 0 1.0011 -1.3217e-6 -.6781)" gradientUnits="userSpaceOnUse">
   <stop stop-color="#6264a8" offset="0"/>
   <stop stop-color="#4b7ab5" offset="1"/>
  </linearGradient>
  <clipPath id="c-9">
   <path d="m204.01 334.3h52.422v12.36h-52.422z"/>
  </clipPath>
  <clipPath id="b-4">
   <path d="m204.01 346.66h52.422v-8.286h-52.422z"/>
  </clipPath>
  <clipPath id="a-4">
   <path d="m204.01 338.37h52.422v8.286h-52.422z"/>
  </clipPath>
  <linearGradient id="linearGradient937" x1="139.58" x2="139.58" y1="178.73" y2="203.1" gradientTransform="matrix(2.9367 0 0 2.9253 .40093 10.315)" gradientUnits="userSpaceOnUse">
   <stop offset="0"/>
   <stop offset="1"/>
  </linearGradient>
 </defs>
 <g transform="translate(-.0011767 .67851)" stroke-width="1.0011">
  <path d="m399.85 47.678c10.044-16.399 26.708-33.556 44.651-40.812 30.885-14.05 72.281-8.0095 97.48 14.224 24.384 22.088 36.753 52.363 30.916 86.209 5.9811-1.1027 12.018-4.9315 18.351-7.1108 37.851-10.682 77.882 0.90022 102.15 33.351 18.23 23.164 22.994 59.154 12.051 87.138-5.4311 14.077-14.691 26.734-26.736 37.53l1.2158 1.2236c35.214 1.7101 69.821 29.054 80.502 62.578 11.581 33.817 1.3935 69.954-23.339 94.684-20.207 19.97-46.19 26.881-75.074 26.298h-524.37c-43.055 0.93081-76.324-18.14-94.233-56.427-14.051-32.86-7.1131-74.887 19.129-99.936 16.547-17.303 37.275-24.387 59.628-27.955-25.312-23.483-37.508-55.615-30.395-90.07 5.0829-27.92 28.885-56.195 56.23-65.947 24.093-9.579 56.726-7.8959 78.789 5.1071l0.78306-0.95703c-6.6483-37.995 10.191-72.276 41.714-93.293 28.105-19.009 73.043-18.519 100.56 1.6868 12.368 7.5747 22.557 20.579 29.989 32.478" fill="#fff"/>
  <path d="m548.3 61.873c11.265 22.727 4.6488 52.51-7.1116 72.915l-90.98 204.67-0.78669 0.95702-32.887-207.62c-2.6384-19.938 18.664-28.445 31.206-38.025-0.63809-2.9301-3.8613-2.7873-5.8907-4.1501l-30.74-0.32047-0.9331-0.92935c0.17554-25.775 14.053-49.577 37.565-62.086 24.564-14.193 59.162-10.334 80.47 7.8653 8.6536 7.7233 15.941 16.689 20.09 26.734" fill="url(#g)"/>
  <path d="m380.69 54.761c7.4342 13.759 11.73 29.377 9.1169 46.674l-37.099 237.73c0.20177 0.28915-0.14495 0.60889-0.43924 0.75237l-9.6072-19.127-92.983-207.62c-8.6515-26.734-0.63809-54.687 18.84-73.846 19.624-19.91 51.905-25.311 77.57-14.51 13.585 5.8639 26.561 16.663 34.6 29.955" fill="url(#f)"/>
  <path d="m682.9 154.85c12.511 21.333 9.6975 53.612-4.2124 73.41-8.6165 13.902-22.844 20.839-34.891 29.952l-192.67 132.25h-0.44142l2.1517-6.3263 102.12-230.5c15.3-27.168 44.504-40.928 75.391-36.779 21.164 3.8638 42.327 17.62 52.545 37.998" fill="url(#e)"/>
  <path d="m245.2 153.62 106.28 236.8h-1.7118l-214.27-147.66c-21.805-18.373-30.743-45.89-23.341-73.698 5.544-20.84 22.847-40.316 43.428-48.04 33.704-12.336 71.673 0.78296 89.614 32.599" fill="url(#d)"/>
  <path d="m738.81 322c10.681 22.552 6.4735 53.436-8.7972 72.624-15.151 18.375-35.417 28.418-59.194 27.777l-228.47 0.14931 191.39-133.14c18.701-12.046 47.12-14.23 67.529-4.4756 15.761 6.1828 30.598 21.627 37.536 37.069" fill="url(#c)"/>
  <path d="m62.261 322c-10.651 22.552-6.4735 53.436 8.8255 72.624 15.153 18.375 35.358 28.418 59.163 27.777l228.47 0.14931-191.39-133.14c-18.695-12.046-47.112-14.23-67.494-4.4756-15.766 6.1828-30.596 21.627-37.566 37.069" fill="url(#b)"/>
  <path d="m95.666 410.78c29.866-40.974 56.576-70.365 92.083-99.5 0 0-62.654-57.847-109.6-5.3026-52.855 59.151 17.523 104.8 17.523 104.8z" fill="url(#l)"/>
  <path d="m214.79 291.5-71.937-49.515c-34.898-20.894-36.307-66.737-18.685-88.13 17.625-24.354 38.258-37.976 77.231-28.961 27.843 9.781 33.914 22.788 39.861 35.812l40.795 89.687c-19.368 10.394-38.223 20.233-67.265 41.106z" fill="url(#k)"/>
  <path d="m310.28 237.68c17.488-8.0531 35.219-15.923 56.256-21.315l18.668-119.49s6.1124-39.864-34.477-63.298c-28.198-16.28-65.042-7.6859-83.076 13.564-31.328 36.914-9.6884 72.34-9.6884 72.34z" fill="url(#j)"/>
  <path d="m508.35 194-75.47 6.5944-11.967-69.852c-0.77402-15.27 18.467-23.398 32.728-34.682 0.60163-1.482-1.7658-10.746-12.945-10.746h-25.156s-0.22818-40.306 38.589-55.442c48.37-18.86 76.935 15.143 76.935 15.143s11.981 13.357 15.143 25.156c8.5486 25.894-4.152 51.534-4.152 51.534z" fill="url(#i)"/>
  <path d="m543.14 194.86c68.09 5.5699 96.385 15.964 134.33 25.187 0 0 17.233-34.468 1.0951-62.421-9.9299-17.199-28.428-33.023-48.184-35.043-52.377-5.3546-69.357 31.393-69.357 31.393z" fill="url(#h)"/>
  <path d="m140.09 514c-2.9484-14.278-14.674-18.066-27.801-19.278-42.397-3.9228-49.914 27.717-49.914 41.077 0 22.856 6.6838 41.753 48.308 41.753 7.6764 0 28.87-7.8896 28.87-20.705h59.861c-2.4139 38.018-66.43 47.124-94.349 47.124-57.849 0-107.38-10.753-104.98-67.66 1.7091-40.618 40.147-69.123 116.61-67.341 42.623 0.98876 83.56 14.255 83.736 45.03h-60.337z" fill="url(#linearGradient937)"/>
  <path d="m739.66 514c-2.9484-14.278-14.677-18.066-27.801-19.278-42.4-3.9258-49.911 27.717-49.911 41.074 0 22.856 6.6809 41.753 48.311 41.753 7.6676 0 28.855-7.8896 28.855-20.705h59.869c-2.4022 38.018-66.43 47.124-94.352 47.124-57.849 0-107.38-10.753-104.98-67.66 1.7091-40.618 40.156-69.123 116.6-67.341 42.629 0.98876 83.568 14.255 83.747 45.03h-60.34z" fill="url(#linearGradient937)"/>
  <path d="m211.12 471.68h77.709l66.303 92.82h0.5374v-92.82h49.806v128.88h-74.449l-69.557-92.82h-0.54622v92.82h-49.806v-128.88z" fill="url(#linearGradient937)"/>
  <path d="m420.84 471.68h94.393c45.363 0 72.045 12.655 72.045 31.772 0 11.289-11.169 25.231-36.07 29.332v0.35981c29.986 1.7815 41.054 20.711 41.054 32.059 0 22.718-26.016 35.362-76.755 35.362h-94.666v-128.88zm54.642 50.078h15.647c24.101 0 36.887-1.8751 36.887-11.874 0-10.707-10.64-14.284-32.332-14.284h-20.202zm0 51.799h15.647c29.047 0 39.704-3.0394 39.704-13.033 0-10.713-13.456-14.29-35.148-14.29h-20.202z" fill="url(#linearGradient937)"/>
  <path d="m109.63 468.89c-71.392 0.09019-107.52 27.773-109.53 66.794h62.289c0.04326-13.426 7.6251-44.863 49.9-40.952 13.127 1.2111 24.864 4.9931 27.812 19.272h60.318c-0.17619-30.775-41.096-44.061-83.719-45.051-2.3894-0.0557-4.7552-0.0655-7.0704-0.0626z" fill="#363636"/>
  <path d="m211.12 471.68v64.01h49.806v-27.937h0.53184l20.929 27.937h52.152l-45.707-64.01h-77.712zm144.54 0v64.01h49.806v-64.01z" fill="#363636"/>
  <path d="m420.85 471.68v64.01h144.85c-4.2406-1.3036-9.0468-2.211-14.485-2.534v-0.37543c24.903-4.1013 36.071-18.025 36.071-29.314 0-19.117-26.687-31.786-72.05-31.786h-94.387zm54.623 23.933h20.211c21.693 0 32.317 3.5593 32.317 14.266 0 9.9987-12.784 11.888-36.885 11.888h-15.643z" fill="#363636"/>
  <path d="m709.21 468.89c-71.376 0.0902-107.52 27.773-109.53 66.794h62.258c0.0327-13.407 7.624-44.869 49.931-40.952 13.124 1.2111 24.833 4.9931 27.781 19.272h60.349c-0.17913-30.775-41.122-44.061-83.75-45.051-2.3889-0.0557-4.7245-0.0655-7.0391-0.0626z" fill="#363636"/>
 </g>
 <g transform="matrix(3.78 0 0 3.78 99.205 279.23)">
  <g transform="matrix(4.0377,0,0,-4.0377,-850,1500.8)">
   <g clip-path="url(#c-9)">
    <g transform="translate(204.7,346.53)">
     <path d="m0 0c-0.314 0-0.569-0.26-0.569-0.579v-10.941c0-0.319 0.255-0.579 0.569-0.579l20.097-1e-3v12.098z" fill="#fff"/>
    </g>
    <g transform="translate(204.84,334.3)">
     <path d="m0 0h19.963v0.258h-19.963c-0.313 0-0.566 0.253-0.566 0.566v10.712c0 0.313 0.253 0.567 0.566 0.567h19.963v0.257h-19.963c-0.455 0-0.824-0.369-0.824-0.824v-10.712c0-0.455 0.369-0.824 0.824-0.824" fill="#918f90"/>
    </g>
    <g transform="translate(255.61,346.66)">
     <path d="m0 0h-31.029v-12.36h31.029c0.453 0 0.824 0.371 0.824 0.824v10.712c0 0.453-0.371 0.824-0.824 0.824" fill="#b01220"/>
    </g>
    <g transform="translate(234.65,340.88)">
     <path d="m0 0h3.594c-0.036 0.986-0.673 1.767-1.707 1.767-0.913 0-1.731-0.613-1.887-1.767m4.472-0.781h-4.472c0.144-1.118 0.926-1.756 2.08-1.756 0.493 0 0.877 0.109 1.238 0.229 0.24 0.084 0.373 0.132 0.469 0.132 0.24 0 0.421-0.228 0.36-0.745-0.505-0.229-1.286-0.469-2.103-0.469-1.792 0-3.018 1.214-3.018 3.005 0 1.719 1.287 2.97 2.861 2.97 1.768 0 2.633-1.407 2.633-2.777 0-0.181-0.012-0.373-0.048-0.589" fill="#fff"/>
    </g>
    <g transform="translate(232.59,341.01)">
     <path d="m0 0v-3.09c0-0.228-0.12-0.36-0.493-0.36-0.156 0-0.336 0.024-0.433 0.048v3.282c0 1.178-0.589 1.743-1.442 1.743-0.685 0-1.419-0.481-1.719-1.034v-3.679c0-0.228-0.121-0.36-0.493-0.36-0.168 0-0.349 0.024-0.433 0.048v5.722c0.084 0.024 0.265 0.06 0.433 0.06 0.372 0 0.493-0.144 0.493-0.36v-0.493c0.42 0.505 1.058 0.925 1.923 0.925 1.178 0 2.164-0.757 2.164-2.452" fill="#fff"/>
    </g>
    <g transform="translate(249,337.87)">
     <path d="m0 0c-0.06 0.481 0.096 0.733 0.349 0.733 0.264 0 0.937-0.312 1.887-0.312 1.01 0 1.394 0.372 1.394 0.853 0 0.325-0.144 0.601-1.057 0.854l-1.034 0.288c-1.106 0.301-1.551 0.854-1.551 1.551 0 0.842 0.673 1.623 2.212 1.623 0.697 0 1.563-0.168 2.08-0.373 0.048-0.468-0.097-0.721-0.337-0.721s-0.878 0.289-1.731 0.289c-0.938 0-1.286-0.337-1.286-0.782 0-0.288 0.132-0.553 0.973-0.793l1.046-0.289c1.154-0.336 1.635-0.877 1.635-1.623 0-0.889-0.709-1.683-2.368-1.683-0.745 0-1.671 0.169-2.212 0.385" fill="#fff"/>
    </g>
    <g transform="translate(248.23,343.24)">
     <path d="m0 0-1.539-5.277c-0.096-0.325-0.336-0.409-0.673-0.409-0.192 0-0.385 0.036-0.553 0.084l-1.478 4.688-1.395-4.363c-0.108-0.337-0.361-0.409-0.673-0.409-0.193 0-0.397 0.036-0.565 0.084l-1.635 5.602c0.132 0.072 0.373 0.144 0.589 0.144 0.252 0 0.397-0.084 0.469-0.336l1.178-4.424h0.012l1.454 4.616c0.157 0.084 0.373 0.144 0.59 0.144 0.36 0 0.553-0.096 0.661-0.433l1.346-4.327h0.015l1.139 4.424c0.072 0.252 0.205 0.336 0.469 0.336 0.216 0 0.457-0.072 0.589-0.144" fill="#fff"/>
    </g>
    <g transform="translate(211.7,339.36)">
     <path d="m0 0c0-0.965-0.631-1.671-1.913-1.81-0.929-0.1-2.273 0.018-2.911 0.091-0.024 0.104-0.043 0.234-0.043 0.336 0 0.845 0.457 1.037 0.885 1.037 0.444 0 1.144-0.077 1.665-0.077 0.571 0 0.746 0.195 0.746 0.38 0 0.242-0.231 0.343-0.676 0.428l-1.215 0.234c-1.012 0.193-1.552 0.894-1.552 1.636 0 0.903 0.639 1.659 1.896 1.799 0.95 0.102 2.107-0.014 2.742-0.091 0.023-0.11 0.035-0.213 0.035-0.326 0-0.842-0.444-1.024-0.872-1.024-0.329 0-0.839 0.062-1.421 0.062-0.593 0-0.839-0.164-0.839-0.364 0-0.211 0.234-0.298 0.605-0.363l1.163-0.215c1.194-0.22 1.705-0.898 1.705-1.733m2.086-1.036c0-0.518-0.203-0.817-1.214-0.817-0.134 0-0.251 0.01-0.363 0.026v6.869c0 0.522 0.177 1.066 1.198 1.066 0.129 0 0.258-0.013 0.379-0.039zm4.132-2.658c0.132-0.068 0.404-0.15 0.747-0.159 0.586-0.013 0.907 0.212 1.144 0.738l3.149 7.025c-0.13 0.07-0.417 0.147-0.653 0.153-0.405 7e-3 -0.948-0.076-1.296-0.905l-1.019-2.407-2 3.258c-0.129 0.04-0.444 0.096-0.676 0.096-0.704 0-1.1-0.26-1.509-0.704l-1.944-2.127 1.563-2.461c0.289-0.449 0.671-0.678 1.289-0.678 0.405 0 0.742 0.092 0.897 0.167l-1.882 2.84 1.334 1.414 2.189-3.436z" fill="#231f20"/>
    </g>
    <g clip-path="url(#b-4)" opacity=".2">
     <g clip-path="url(#a-4)">
      <g transform="translate(204.84,346.66)">
       <path d="m0 0h50.774c0.455 0 0.824-0.369 0.824-0.824v-4.185l-51.235-2.042c-0.663-0.026-1.187-0.571-1.187-1.235v7.462c0 0.455 0.369 0.824 0.824 0.824" fill="#fff"/>
      </g>
     </g>
    </g>
   </g>
  </g>
 </g>
</svg>
