<svg width="800" height="335.76" version="1.1" viewBox="0 0 800 335.76" xmlns="http://www.w3.org/2000/svg">
 <defs>
  <radialGradient id="g-1" cx="398.41" cy="467.17" r="343.82" gradientTransform="matrix(.98944 0 -1.3233e-6 1.0066 4.6088 -104.25)" gradientUnits="userSpaceOnUse">
   <stop stop-color="#6460ab" offset="0"/>
   <stop stop-color="#31397e" offset="1"/>
  </radialGradient>
  <radialGradient id="f-3" cx="398.41" cy="467.17" r="343.82" gradientTransform="matrix(.98944 0 -1.3233e-6 1.0066 4.6088 -104.25)" gradientUnits="userSpaceOnUse">
   <stop stop-color="#c8234a" offset="0"/>
   <stop stop-color="#7f1331" offset="1"/>
  </radialGradient>
  <radialGradient id="e-3" cx="398.41" cy="467.17" r="343.82" gradientTransform="matrix(.98944 0 -1.3233e-6 1.0066 4.6088 -104.25)" gradientUnits="userSpaceOnUse">
   <stop stop-color="#0086ce" offset="0"/>
   <stop stop-color="#2e308b" offset="1"/>
  </radialGradient>
  <radialGradient id="d-6" cx="398.41" cy="467.17" r="343.82" gradientTransform="matrix(.98944 0 -1.3233e-6 1.0066 4.6088 -104.25)" gradientUnits="userSpaceOnUse">
   <stop stop-color="#f36f21" offset="0"/>
   <stop stop-color="#a24120" offset="1"/>
  </radialGradient>
  <radialGradient id="c-5" cx="398.41" cy="467.17" r="343.82" gradientTransform="matrix(.98944 0 -1.3233e-6 1.0066 4.6088 -104.25)" gradientUnits="userSpaceOnUse">
   <stop stop-color="#1cb048" offset="0"/>
   <stop stop-color="#077435" offset="1"/>
  </radialGradient>
  <radialGradient id="b-1" cx="398.41" cy="467.17" r="343.82" gradientTransform="matrix(.98944 0 -1.3233e-6 1.0066 4.6088 -104.25)" gradientUnits="userSpaceOnUse">
   <stop stop-color="#fdb406" offset="0"/>
   <stop stop-color="#d09b2c" offset="1"/>
  </radialGradient>
  <linearGradient id="l-7" x1="79.01" x2="136.54" y1="306.9" y2="360.6" gradientTransform="translate(.39942 .3929)" gradientUnits="userSpaceOnUse">
   <stop stop-color="#ddb560" offset="0"/>
   <stop stop-color="#e4b44a" offset="1"/>
  </linearGradient>
  <linearGradient id="k-2" x1="146.05" x2="248.11" y1="132.3" y2="266.91" gradientTransform="translate(.39942 .3929)" gradientUnits="userSpaceOnUse">
   <stop stop-color="#b97158" offset="0"/>
   <stop stop-color="#e38b5b" offset="1"/>
  </linearGradient>
  <linearGradient id="j-5" x1="318.8" x2="339.5" y1="26.131" y2="223.48" gradientTransform="translate(.39942 .3929)" gradientUnits="userSpaceOnUse">
   <stop stop-color="#a24f66" offset="0"/>
   <stop stop-color="#d65a77" offset="1"/>
  </linearGradient>
  <linearGradient id="i-5" x1="492.68" x2="471.98" y1="26.131" y2="197.26" gradientTransform="translate(.39942 .3929)" gradientUnits="userSpaceOnUse">
   <stop stop-color="#666b9f" offset="0"/>
   <stop stop-color="#8281b7" offset="1"/>
  </linearGradient>
  <linearGradient id="h-8" x1="639.41" x2="613.63" y1="124.47" y2="206.98" gradientTransform="translate(.39942 .3929)" gradientUnits="userSpaceOnUse">
   <stop stop-color="#6264a8" offset="0"/>
   <stop stop-color="#4b7ab5" offset="1"/>
  </linearGradient>
  <linearGradient id="linearGradient1055" x1="139.58" x2="139.58" y1="178.73" y2="203.1" gradientTransform="matrix(2.9334 0 0 2.922 .79991 11.374)" gradientUnits="userSpaceOnUse">
   <stop stop-color="#d6d7d8" offset="0"/>
   <stop stop-color="#f7f7f8" offset="1"/>
  </linearGradient>
  <linearGradient id="paint0_linear-8" x1="68.442" x2="68.442" y2="42.852" gradientTransform="matrix(3.9176 0 0 3.9176 -921.22 37.871)" gradientUnits="userSpaceOnUse">
   <stop stop-color="#E90E10" offset=".4"/>
   <stop stop-color="#BC0000" offset="1"/>
  </linearGradient>
  <linearGradient id="linearGradient3625" x1="365.41" x2="359.57" y1="1091.1" y2="923.62" gradientTransform="translate(0,-828.02)" gradientUnits="userSpaceOnUse">
   <stop stop-color="#fff" offset="0"/>
   <stop stop-color="#fff" stop-opacity=".8347" offset=".1203"/>
   <stop stop-color="#fff" stop-opacity=".6576" offset=".2693"/>
   <stop stop-color="#fff" stop-opacity=".5107" offset=".4195"/>
   <stop stop-color="#fff" stop-opacity=".3965" offset=".5684"/>
   <stop stop-color="#fff" stop-opacity=".3152" offset=".7156"/>
   <stop stop-color="#fff" stop-opacity=".2664" offset=".8603"/>
   <stop stop-color="#fff" stop-opacity=".25" offset="1"/>
  </linearGradient>
  <linearGradient id="linearGradient3629" x1="1279.6" x2="1273" y1="1197.7" y2="1016.9" gradientTransform="matrix(.48559 0 0 .48559 -1070.6 -460.34)" gradientUnits="userSpaceOnUse">
   <stop stop-color="#fff" offset="0"/>
   <stop stop-color="#fff" stop-opacity=".8347" offset=".1203"/>
   <stop stop-color="#fff" stop-opacity=".6576" offset=".2693"/>
   <stop stop-color="#fff" stop-opacity=".5107" offset=".4195"/>
   <stop stop-color="#fff" stop-opacity=".3965" offset=".5684"/>
   <stop stop-color="#fff" stop-opacity=".3152" offset=".7156"/>
   <stop stop-color="#fff" stop-opacity=".2664" offset=".8603"/>
   <stop stop-color="#fff" stop-opacity=".25" offset="1"/>
  </linearGradient>
 </defs>
 <g transform="translate(1072.3 129.99)">
  <path d="m-607.99 37.871h335.76v167.88h-335.76z" fill="url(#paint0_linear-8)" stop-color="#000000" stroke-width="3.9176" style="-inkscape-stroke:none;font-variation-settings:normal"/>
  <rect x="-607.99" y="-130.01" width="335.76" height="167.88" fill="#fff" stop-color="#000000" stroke-width=".61306"/>
  <g transform="matrix(.27671 0 0 .27671 -540.28 -110.33)">
   <path d="m84.4 120.2c-55.9 6.1-84.4 39.7-84.4 79.8 0 33 24 64.1 69 72.7l54.2 10.4c19.8 3.8 30 8.2 30 19 0 8.2-7.7 16.9-33.2 16.9-23.1 0-54.2-3.5-74-3.5-19 0-39.2 8.6-39.2 46 0 4.6 0.8 10.4 1.8 15 28.5 3.3 88.2 8.5 129.6 4 57.1-6.1 85.2-37.5 85.2-80.4 0-37-22.9-67.1-75.9-76.9l-51.7-9.6c-16.6-2.9-26.9-6.7-26.9-16.1 0-8.9 10.9-16.1 37.3-16.1 25.9 0 48.7 2.7 63.2 2.7 19 0 38.8-8.1 38.8-45.5 0-5-0.6-9.6-1.6-14.4-20.3-2.5-52.6-5.8-84.8-5.8-12.8-0.1-25.5 0.49999-37.4 1.8m321.4 28.9-86.5 94.4 69.5 109.4c12.9 20 29.8 30.1 57.3 30.1 18 0 33-4.2 40-7.5l-83.8-126 59.4-62.9 97.4 152.7-59.4 125c6 3 18 6.7 33.2 7 26.2 0.6 40.3-9.4 51-32.8l140.1-312c-5.8-3.1-18.7-6.6-29-6.7-18-0.4-42.3 3.2-57.7 40.1l-45.3 106.9-89-144.6c-5.8-1.8-19.8-4.2-30-4.2-31.5-0.1-49 11.4-67.2 31.1m-160-72.8v305c5 0.8 10.2 1.1 16.1 1.1 45 0 54-13.2 54-36.2v-315.6c-5.4-1.1-11.1-1.8-16.9-1.8-45.4 0.1-53.2 24.2-53.2 47.5" fill="#1c1c1c" stop-color="#000000" style="font-variation-settings:normal"/>
   <path d="m0 200c0-40.1 28.5-73.7 84.4-79.8 11.9-1.3 24.6-1.9 37.2-1.6 32.2 0 64.5 3.3 84.8 5.8 1 4.8 1.6 9.4 1.6 14.4 0 37.4-19.8 45.5-38.8 45.5-14.5 0-37.3-2.7-63.2-2.7-26.4 0-37.3 7.2-37.3 16.1 0 9.4 10.3 13.2 26.9 16.1l51.7 9.6c53 9.8 75.9 39.9 75.9 76.9 0 2.7-0.1 5.3-0.3 7.8v0.69999h-0.1c1.1-19.7-11.4-39.3-34.4-38.5-9.9 0.3-55.6 1.9-61.7 2.1-19.7 0.8-46.3-1-57.8-3-13.9-2.4-27.9-5.9-41.5-14.8-18-14.2-27.4-34-27.4-54.6zm263.1 67.8c7.5-0.2 28.8-1 35.1-1.2 6.9-0.2 17.6-5 17.8-17.9v-218c-0.2 0-0.3-0.1-0.5-0.1h-35.3c-28.9 5.9-34.5 26.1-34.5 45.7v209.1c0.1-8.4 6.6-17.3 17.4-17.6zm238.6-18.7c7.2 9.4 18.1 9.6 20.4 9.5 2.1 0 54.3-1.9 56.7-2 3.7-0.1 7.8 1.9 11 6.4l-86.8-140.9c-5.8-1.8-19.8-4.2-30-4.2-31.5 0-49 11.5-67.2 31.2l-86.5 94.4 6.9 10.9c2.9 4 8.9 10.8 20.5 10.3 4.1-0.1 45.9-1.6 49.3-1.7 10.8-0.4 17.6 4.2 21.8 9.7l-15.4-23.2 59.4-62.9zm222.2-122.6c-5.8-3.1-18.7-6.6-28.9-6.7-0.8-0.1-1.5-0.1-2.2-0.1-17.8 0.1-40.7 4.9-55.5 40.2l-44.2 104.3c0.1-0.1 2.9-8.1 11.5-8.5 0 0 43.5-1.5 46.8-1.6 14.2-0.49999 19.9-10.3 21.3-13.4l51.2-114.1z" enable-background="new    " fill="url(#linearGradient3625)" opacity=".35"/>
  </g>
  <g transform="matrix(.56025 0 0 .56025 100.74 -2725)" fill="#fff" stroke-width="4.5158">
   <path d="m-1091.5 5072.7v49.183c0 3.5476-2.0962 5.9662-8.3853 5.9662-2.5799 0-5.6438-0.3224-7.2564-0.8061v-52.247c0-18.222-8.8694-26.93-22.415-26.93-10.482 0-21.77 7.2568-26.446 15.803v58.375c0 3.5476-2.0962 5.9667-8.3853 5.9667-2.5803 0-5.6443-0.3228-7.2568-0.8065v-91.594c1.4514-0.3224 4.5153-0.8065 7.2568-0.8065 6.2891 0 8.3853 2.2579 8.3853 5.9667v7.7405c6.6115-8.2241 16.771-14.674 30.155-14.674 18.706 0 34.348 11.772 34.348 38.863z"/>
   <path d="m-1057 5086.9h70.631c0.4832-3.2252 0.6458-6.4503 0.3251-9.1914 0-22.092-13.868-43.862-41.929-43.862-24.832 0-45.152 19.673-45.152 47.087 0 28.542 19.191 47.732 47.73 47.732 13.227 0 25.641-4.0317 33.864-7.5793 0.8083-8.3853-2.0953-11.933-6.4485-11.933-1.3186 0-2.6327 0.4299-5.2654 1.2902-0.5915 0.1933-1.2509 0.4082-1.9915 0.6449-5.6447 1.9349-11.773 3.3864-19.513 3.3864-18.059 0-30.156-9.8368-32.252-27.575zm56.117-12.094h-56.117c2.4204-18.061 15.159-27.736 29.348-27.736 16.126 0 26.124 12.094 26.769 27.736z" clip-rule="evenodd" fill-rule="evenodd"/>
   <path d="m-842.49 5037-24.186 84.015c-1.4496 5.3218-5.4821 6.6115-11.289 6.6115-3.2243 0-6.4485-0.6448-9.1896-1.2897l-23.062-73.856-21.608 68.534c-1.7747 5.3218-5.9653 6.6115-10.964 6.6115-3.2243 0-6.7737-0.6449-9.5147-1.2897l-25.803-89.337c2.2579-1.1289 6.453-2.2574 9.8399-2.2574 4.3532 0 6.6111 1.2897 7.74 5.4826l18.221 70.147h0.1626l22.574-73.372c2.5785-1.4514 6.1279-2.2574 9.6773-2.2574 5.9653 0 9.1896 1.2897 10.802 6.7727l20.967 68.696h0.158l17.738-70.147c1.1289-4.1929 3.3868-5.483 7.74-5.483 3.87 0.1617 7.74 1.2902 9.9979 2.4191z"/>
   <path d="m-832.17 5122.3c-1.129-7.9017 1.2915-12.094 5.9653-12.094 4.3532 0 14.997 4.6765 29.831 4.6765 15.643 0 21.45-5.483 21.45-12.739 0-5.1602-2.2579-9.6755-16.288-13.546l-16.126-4.3536c-17.901-4.6765-24.832-13.707-24.832-24.672 0-13.707 10.802-25.801 35.313-25.801 10.969 0 24.674 2.4186 33.06 5.6438 1.4496 7.7405-0.9664 11.933-5.6447 11.933-4.1906 0-13.705-4.0317-27.09-4.0317-14.514 0-19.838 4.999-19.838 11.449 0 4.5153 2.0998 8.7078 14.997 12.417l16.451 4.5153c18.384 5.1602 25.799 13.707 25.799 25.801 0 14.191-10.964 26.93-37.571 26.93-11.935 0.1612-26.607-2.7415-35.476-6.1279z"/>
  </g>
  <path d="m-272.23 82.843v-44.972h-335.76v118.88c0-1.5722 0.52481-13.297 8.4991-14.976 0.54192-0.10642 318.45-44.356 318.45-44.356 4.4945-0.95932 8.8137-5.7292 8.8137-14.576z" fill="url(#linearGradient3629)" opacity=".3" stop-color="#000000" style="font-variation-settings:normal"/>
 </g>
 <g transform="matrix(.55592 0 0 .55592 -.22302 -.21827)">
  <path d="m399.8 48.695c10.033-16.381 26.678-33.518 44.601-40.766 30.85-14.034 72.2-8.0005 97.371 14.208 24.357 22.063 36.712 52.304 30.881 86.112 5.9744-1.1015 12.005-4.926 18.33-7.1028 37.809-10.67 77.795 0.89921 102.04 33.314 18.21 23.138 22.968 59.088 12.037 87.04-5.425 14.061-14.675 26.704-26.706 37.488l1.2144 1.2222c35.175 1.7082 69.743 29.021 80.412 62.508 11.568 33.779 1.3919 69.876-23.313 94.578-20.184 19.948-46.138 26.851-74.99 26.269h-523.78c-43.007 0.92977-76.238-18.12-94.127-56.364-14.035-32.823-7.1051-74.803 19.108-99.824 16.528-17.284 37.233-24.36 59.561-27.924-25.284-23.457-37.466-55.553-30.361-89.969 5.0772-27.889 28.853-56.132 56.167-65.873 24.066-9.5683 56.662-7.887 78.701 5.1014l0.78218-0.95596c-6.6408-37.952 10.18-72.195 41.667-93.188 28.073-18.988 72.961-18.498 100.45 1.6849 12.354 7.5662 22.532 20.556 29.955 32.442" fill="#fff"/>
  <path d="m548.09 62.874c11.252 22.702 4.6436 52.451-7.1036 72.833l-90.878 204.44-0.78581 0.95595-32.85-207.39c-2.6354-19.916 18.643-28.413 31.171-37.982-0.63738-2.9268-3.857-2.7842-5.8841-4.1454l-30.706-0.32011-0.93206-0.92831c0.17535-25.746 14.037-49.521 37.523-62.016 24.536-14.177 59.096-10.322 80.38 7.8565 8.6439 7.7146 15.923 16.67 20.067 26.704" fill="url(#g-1)"/>
  <path d="m380.66 55.769c7.4259 13.744 11.717 29.344 9.1067 46.622l-37.057 237.46c0.20155 0.28883-0.14479 0.60821-0.43874 0.75153l-9.5964-19.106-92.879-207.39c-8.6418-26.704-0.63738-54.626 18.819-73.763 19.602-19.888 51.847-25.283 77.483-14.494 13.57 5.8573 26.531 16.644 34.561 29.921" fill="url(#f-3)"/>
  <path d="m682.53 155.74c12.497 21.309 9.6866 53.552-4.2077 73.328-8.6068 13.886-22.818 20.816-34.852 29.918l-192.45 132.1h-0.44093l2.1493-6.3192 102.01-230.24c15.283-27.138 44.454-40.882 75.306-36.738 21.14 3.8595 42.28 17.6 52.486 37.955" fill="url(#e-3)"/>
  <path d="m245.33 154.52 106.16 236.53h-1.7099l-214.03-147.49c-21.781-18.352-30.709-45.839-23.315-73.615 5.5378-20.817 22.821-40.271 43.379-47.986 33.666-12.322 71.593 0.78208 89.514 32.562" fill="url(#d-6)"/>
  <path d="m738.38 322.72c10.669 22.527 6.4662 53.376-8.7873 72.543-15.134 18.354-35.377 28.386-59.128 27.746l-228.21 0.14914 191.18-132.99c18.68-12.032 47.067-14.214 67.453-4.4706 15.743 6.1759 30.564 21.603 37.494 37.027" fill="url(#c-5)"/>
  <path d="m62.591 322.72c-10.639 22.527-6.4662 53.376 8.8156 72.543 15.136 18.354 35.318 28.386 59.097 27.746l228.21 0.14914-191.18-132.99c-18.674-12.032-47.059-14.214-67.418-4.4706-15.748 6.1759-30.562 21.603-37.524 37.027" fill="url(#b-1)"/>
  <path d="m95.958 411.39c29.833-40.928 56.513-70.286 91.98-99.388 0 0-62.584-57.782-109.48-5.2966-52.796 59.085 17.503 104.68 17.503 104.68z" fill="url(#l-7)"/>
  <path d="m214.94 292.25-71.856-49.459c-34.859-20.871-36.266-66.662-18.664-88.031 17.605-24.327 38.215-37.933 77.144-28.929 27.812 9.77 33.876 22.762 39.816 35.772l40.749 89.586c-19.346 10.382-38.18 20.21-67.19 41.06z" fill="url(#k-2)"/>
  <path d="m310.33 238.48c17.468-8.0441 35.18-15.905 56.193-21.291l18.647-119.36s6.1055-39.819-34.438-63.227c-28.166-16.262-64.969-7.6773-82.983 13.549-31.293 36.873-9.6775 72.259-9.6775 72.259z" fill="url(#j-5)"/>
  <path d="m508.18 194.85-75.385 6.587-11.954-69.774c-0.77315-15.253 18.446-23.372 32.691-34.643 0.60095-1.4803-1.7638-10.734-12.93-10.734h-25.128s-0.22793-40.261 38.546-55.38c48.316-18.839 76.849 15.126 76.849 15.126s11.968 13.342 15.126 25.128c8.539 25.865-4.1474 51.476-4.1474 51.476z" fill="url(#i-5)"/>
  <path d="m542.93 195.71c68.014 5.5637 96.277 15.946 134.18 25.159 0 0 17.214-34.429 1.0939-62.351-9.9188-17.18-28.396-32.986-48.13-35.004-52.318-5.3486-69.279 31.358-69.279 31.358z" fill="url(#h-8)"/>
  <path d="m140.33 514.49c-2.9451-14.262-14.658-18.046-27.77-19.256-42.349-3.9184-49.858 27.686-49.858 41.031 0 22.83 6.6763 41.706 48.254 41.706 7.6678 0 28.838-7.8807 28.838-20.682h59.794c-2.4112 37.975-66.355 47.071-94.243 47.071-57.784 0-107.26-10.741-104.86-67.584 1.7072-40.572 40.102-69.045 116.48-67.265 42.575 0.98765 83.466 14.239 83.642 44.979h-60.269z" fill="url(#linearGradient1055)"/>
  <path d="m739.23 514.49c-2.9451-14.262-14.661-18.046-27.77-19.256-42.352-3.9214-49.855 27.686-49.855 41.028 0 22.83 6.6734 41.706 48.257 41.706 7.659 0 28.823-7.8807 28.823-20.682h59.802c-2.3995 37.975-66.355 47.071-94.246 47.071-57.784 0-107.26-10.741-104.86-67.584 1.7072-40.572 40.111-69.045 116.47-67.265 42.581 0.98765 83.474 14.239 83.653 44.979h-60.272z" fill="url(#linearGradient1055)"/>
  <path d="m211.28 472.23h77.622l66.229 92.716h0.5368v-92.716h49.75v128.74h-74.366l-69.479-92.716h-0.5456v92.716h-49.75v-128.74z" fill="url(#linearGradient1055)"/>
  <path d="m420.77 472.23h94.287c45.312 0 71.964 12.641 71.964 31.736 0 11.276-11.156 25.203-36.03 29.299v0.35941c29.952 1.7795 41.008 20.688 41.008 32.023 0 22.693-25.987 35.322-76.669 35.322h-94.56v-128.74zm54.581 50.022h15.629c24.074 0 36.846-1.873 36.846-11.861 0-10.695-10.628-14.268-32.296-14.268h-20.179zm0 51.741h15.629c29.014 0 39.659-3.036 39.659-13.018 0-10.701-13.441-14.274-35.109-14.274h-20.179z" fill="url(#linearGradient1055)"/>
  <path d="m109.91 469.44c-71.312 0.09009-107.4 27.742-109.41 66.719h62.219c0.04321-13.411 7.6165-44.813 49.844-40.906 13.112 1.2097 24.836 4.9875 27.781 19.25h60.25c-0.176-30.74-41.05-44.012-83.625-45-2.3867-0.0556-4.7499-0.0654-7.0625-0.0625z" fill="#f1f1f2"/>
  <path d="m708.81 469.44c-71.296 0.0901-107.4 27.742-109.41 66.719h62.188c0.0327-13.392 7.6154-44.819 49.875-40.906 13.109 1.2097 24.805 4.9875 27.75 19.25h60.281c-0.17893-30.74-41.076-44.012-83.656-45-2.3862-0.0556-4.7192-0.0654-7.0312-0.0625z" fill="#f1f1f2"/>
  <path d="m211.28 472.22v63.938h49.75v-27.906h0.53125l20.906 27.906h52.094l-45.656-63.938h-77.625zm144.38 0v63.938h49.75v-63.938z" fill="#f1f1f2"/>
  <path d="m420.78 472.22v63.938h144.69c-4.2358-1.3021-9.0367-2.2085-14.469-2.5312v-0.375c24.875-4.0967 36.031-18.005 36.031-29.281 0-19.096-26.657-31.75-71.969-31.75h-94.281zm54.562 23.906h20.188c21.669 0 32.281 3.5553 32.281 14.25 0 9.9875-12.77 11.875-36.844 11.875h-15.625z" fill="#f1f1f2"/>
 </g>
</svg>
