<svg width="800" height="403.2" version="1.1" viewBox="0 0 800 403.2" xmlns="http://www.w3.org/2000/svg">
 <g stroke-width="8.5662">
  <path d="m306.03 0.0040807c-1.8408 0.085662-3.7891 1.1584-4.2106 3.6382l-18.325 107.79c-0.49856 2.9384 1.0369 5.3897 3.234 5.3897h18.594c2.1993 0 3.6556-2.4513 4.0422-5.3897l6.4673-49.18 28.026 53.492c1.4368 2.7409 7.145 2.7409 8.6236 0l28.363-52.549 6.5348 48.236c0.39833 2.9384 0.6142 5.3897 3.7054 5.3897h19.941c1.6832 0 2.63-2.4516 2.1223-5.3897l-18.628-107.79c-0.76068-4.4003-6.3196-4.404-7.5456-2.1561l-38.805 71.143-38.805-71.143c-0.53625-0.98409-1.9031-1.5388-3.3349-1.4812zm-247.28 0.40347c-32.23-0.1482-58.406 25.956-58.747 58.106v1.2805c0.33922 32.152 26.516 58.247 58.747 58.107 13.464-0.0514 28.772-4.6369 40.489-16.169 1.0847-1.0663 1.0698-2.0974-0.06853-3.2338l-15.091-15.091c-0.99077-0.99026-2.0471-0.96327-3.1327 0-5.393 4.781-13.633 8.3511-22.199 8.6228-17.933 0.56965-32.539-14.364-32.876-32.236v-1.2805c0.3358-17.873 14.944-32.806 32.876-32.236 8.5651 0.27155 16.805 3.8424 22.199 8.6236 1.0863 0.96327 2.1419 0.99026 3.1327 0l15.091-15.091c1.1373-1.1375 1.1522-2.167 0.06853-3.2336-11.717-11.533-27.025-16.111-40.489-16.17zm131.51 0c-32.445 0-58.746 26.302-58.746 58.747s26.302 58.747 58.746 58.747c32.445 0 58.747-26.302 58.747-58.747s-26.302-58.747-58.747-58.747zm269.35 1.0786c-2.0155 0-3.6381 1.6229-3.6381 3.6381v108.06c0 2.0158 1.6227 3.6381 3.6381 3.6381h67.1c2.0156 0 3.638-1.6227 3.638-3.6381v-17.516c0-2.0153-1.6227-3.6379-3.638-3.6379h-44.868v-21.559h37.323c2.0153 0 3.6377-1.6227 3.6377-3.6377v-17.516c0-2.0151-1.6228-3.6381-3.6377-3.6381h-37.323v-19.403h44.868c2.0156 0 3.638-1.6229 3.638-3.6381v-17.516c0-2.0156-1.6227-3.6381-3.638-3.6381zm118.44 0c-2.4547 0-4.4465 1.9919-4.4465 4.4465v106.44c0 2.4549 1.9917 4.4466 4.4465 4.4466h41.634c0.47894 0 0.91676-0.0985 1.3479-0.23643 29.512-2.5306 52.683-27.265 52.683-57.433s-23.171-54.903-52.683-57.433c-0.43122-0.1482-0.86904-0.23557-1.3479-0.23557h-41.634zm121.94 0c-2.947 0-3.9884 1.9919-2.3578 4.4465l29.205 43.993 6.0971 9.1624 1.1455 1.7178v50.696c0 2.9472 2.3752 5.3224 5.3224 5.3224h16.303c2.947 0 5.3222-2.3752 5.3222-5.3224v-50.494l1.2805-1.92 5.9287-8.9603 0.1679-0.20216 29.205-43.993c1.631-2.4547 0.5562-4.4462-2.3917-4.4462h-18.729c-2.9468 0-6.6222 1.9916-8.2529 4.4462l-20.616 31.024-20.616-31.024c-1.631-2.4547-5.3397-4.4462-8.2866-4.4462h-18.729zm-509.73 24.792c18.157 0 32.877 14.719 32.877 32.876s-14.719 32.876-32.877 32.876c-18.157 0-32.876-14.719-32.876-32.876s14.719-32.876 32.876-32.876zm409.07 0h14.552c18.157 0 32.876 14.719 32.876 32.876s-14.719 32.876-32.876 32.876h-14.552z"/>
  <path d="m467.52 145.56c-2.8552-0.0985-6.8929 1.7648-6.8929 3.9749v107.59c0 2.9471 2.2608 5.3224 5.0655 5.3224h15.517c2.8045 0 5.065-2.3752 5.065-5.3224v-56.456l60.592 62.52c2.0011 2.0647 9.1693-0.21843 9.1693-3.1666v-107.59c0-2.9469-2.2606-5.3223-5.0656-5.3223h-15.516c-2.8048 0-5.0654 2.3754-5.0654 5.3223v58.477l-60.592-64.541c-0.49162-0.52511-1.325-0.77525-2.2759-0.80951zm276.57 0.472c-12.815 0.0514-27.384 4.6364-38.535 16.169-1.0324 1.0663-1.0184 2.0971 0.0574 3.2338l14.362 15.091c0.94245 0.99025 1.9482 0.96319 2.9816 0 5.1326-4.7812 12.975-8.3516 21.127-8.6236 17.067-0.56966 30.97 14.364 31.29 32.236 8e-3 0.40861 8e-3 0.83949 0 1.2805-0.32123 17.873-14.223 32.806-31.29 32.236-8.1516-0.27069-15.995-3.8426-21.127-8.6236-1.0336-0.96319-2.0388-0.99025-2.9816 0l-14.362 15.091c-1.0802 1.135-1.0966 2.1668-0.0574 3.2336 11.151 11.532 25.72 16.11 38.535 16.169 30.675 0.14819 55.588-25.956 55.911-58.106v-1.2805c-0.32449-32.151-25.236-58.246-55.911-58.106zm-740.72 1.0786c-1.8649 0-3.3663 1.5767-3.3663 3.5367v17.718c0 1.9595 1.5023 3.5367 3.3663 3.5367h36.644v87.007c0 1.9593 1.5023 3.5367 3.3659 3.5367h18.915c1.865 0 3.3659-1.5768 3.3659-3.5367 0-26.092 4.89e-4 -73.225 0-108.26 0.12473-1.9549-1.5006-3.5368-3.3659-3.5368zm96.559 0c-2.0564 0-3.0152 1.5767-2.1478 3.5367l49.435 111.8c1.1874 2.6842 5.5765 2.6842 6.7646 0l49.467-111.8c0.86768-1.9593-0.0937-3.5367-2.1477-3.5367h-17.6c-2.0567 0-4.4226 1.5767-5.2899 3.5367l-6.0591 13.709h-43.344l-6.0591-13.709c-0.86776-1.9593-3.2011-3.5367-5.2578-3.5367zm133.2 0c-2.336 0-3.3205 1.7465-2.2121 3.9074l22.057 43.015c-13.444 4.5162-23.179 17.758-23.179 33.382 0 19.348 14.928 35.032 33.342 35.032h46.55c2.3364 0 4.2319-1.9917 4.2319-4.4462v-106.44c0-2.4545-1.8955-4.4462-4.2319-4.4462h-16.158c-2.3358 0-4.2316 1.9917-4.2316 4.4462v40.827h-9.5531l-21.223-41.365c-1.1095-2.1609-3.8834-3.9074-6.2196-3.9074zm145.71 0c-1.8645 0-3.3658 1.5767-3.3658 3.5367v87.007h-22.282c-1.865 0-3.3661 1.5767-3.3661 3.5367v17.718c0 1.9593 1.5006 3.5367 3.3661 3.5367h69.184c1.865 0 3.3661-1.5768 3.3661-3.5367v-17.718c0-1.9595-1.5006-3.5367-3.3661-3.5367h-22.281v-87.007c0-1.9593-1.5006-3.5367-3.3661-3.5367zm221.69 0c-1.918 0-3.4624 1.6229-3.4624 3.6376v17.516c0 2.0155 1.5445 3.6379 3.4624 3.6379h42.703v21.559h-35.522c-1.9183 0-3.4625 1.6228-3.4625 3.6382v17.516c0 2.0157 1.5444 3.638 3.4625 3.638h35.522v19.403h-42.703c-1.918 0-3.4624 1.6228-3.4624 3.6379v17.516c0 2.0155 1.5445 3.6378 3.4624 3.6378h63.861c1.9182 0 3.4624-1.6229 3.4624-3.6378v-108.06c0-2.0152-1.5445-3.6376-3.4624-3.6376zm-461.49 39.883h23.275l-11.637 26.309zm127.69 25.87h22.569v25.87h-22.569c-6.7991 0-12.311-5.7911-12.311-12.935 0-7.1436 5.5119-12.935 12.311-12.935z"/>
 </g>
 <rect x="1522.1" y="-1170.5" width="0" height="7.4958" ry=".11023" stroke-width="8.5662"/>
 <g fill="#305ef2">
  <path d="m374.7 344.1h-21.505v-23.25h21.505c6.4783 0 11.73 5.2047 11.73 11.625 0 6.4202-5.2518 11.625-11.73 11.625zm121.67 23.25h-22.177l11.089-23.645zm-425.05 34.051c1.8274 0 3.299-1.4586 3.299-3.2692v-15.743c0-1.8114-1.4716-3.2696-3.299-3.2696h-40.688v-19.375h33.845c1.8279 0 3.2991-1.4585 3.2991-3.2698v-15.742c0-1.8116-1.4715-3.2696-3.2991-3.2696h-33.845v-17.438h40.688c1.8274 0 3.299-1.4585 3.299-3.2696v-15.742c0-1.8114-1.4716-3.2695-3.299-3.2695h-60.849c-1.8278 0-3.299 1.4586-3.299 3.2695v97.115c0 1.8112 1.4716 3.2692 3.299 3.2692zm196.56 1.7932c1.7766 0 3.2071-1.417 3.2071-3.1786v-78.198h21.23c1.777 0 3.2073-1.417 3.2073-3.1786v-15.925c0-1.7609-1.4298-3.1786-3.2073-3.1786h-65.92c-1.777 0-3.2073 1.4171-3.2073 3.1786v15.925c0 1.7611 1.4298 3.1786 3.2073 3.1786h21.23v78.198c0 1.7609 1.4298 3.1786 3.2073 3.1786zm138.83 0c2.2258 0 3.1638-1.5697 2.1078-3.5117l-21.016-38.66c12.809-4.0589 22.085-15.96 22.085-30.002 0-17.389-14.223-31.485-31.769-31.485h-44.353c-2.2261 0-4.0322 1.7901-4.0322 3.996v95.668c0 2.206 1.8061 3.996 4.0322 3.996h15.395c2.2257 0 4.032-1.79 4.032-3.996v-36.692h9.1025l20.221 37.177c1.0572 1.9421 3.7002 3.5117 5.9261 3.5117zm126.92 0c1.9594 0 2.8729-1.417 2.0465-3.1786l-47.102-100.48c-1.1313-2.4124-5.3135-2.4124-6.4454 0l-47.133 100.48c-0.8269 1.7609 0.0893 3.1786 2.0463 3.1786h16.77c1.9597 0 4.2139-1.417 5.0404-3.1786l5.7732-12.322h41.299l5.7732 12.322c0.82698 1.7609 3.0501 3.1786 5.0097 3.1786z" stroke-width="8.5662"/>
  <path d="m102.21 403.2 36.714-55.034-33.27-50.433h25.355l21.545 33.885 21.105-33.885h25.136l-33.417 51.222 36.714 54.245h-26.161l-23.817-36.475-23.89 36.475z" stroke-width="3.7176"/>
 </g>
</svg>
