<svg width="600pt" height="266.92pt" version="1.1" viewBox="0 0 600 266.92" xmlns="http://www.w3.org/2000/svg">
 <g transform="matrix(1.2906 0 0 -1.2906 160.18 518.9)">
  <g transform="matrix(6.6842,0,0,6.6842,-34.013,401.94)">
   <path d="m0 0c-5.786 0-10.829-3.179-13.479-7.886l3.238-1.821c2.013 3.576 5.844 5.993 10.241 5.993 6.486 0 11.744-5.258 11.744-11.744s-5.258-11.744-11.744-11.744c-4.39 0-8.217 2.41-10.232 5.978l-3.239-1.821c2.652-4.699 7.691-7.871 13.471-7.871 8.537 0 15.458 6.921 15.458 15.458s-6.921 15.458-15.458 15.458" fill="#fabf17"/>
  </g>
  <g transform="matrix(6.6842,0,0,6.6842,-9.8275,284.95)">
   <path d="m0 0c-0.714-1.26-2.067-2.111-3.618-2.111-2.295 0-4.156 1.861-4.156 4.156s1.861 4.156 4.156 4.156c1.558 0 2.915-0.857 3.627-2.126l3.234 1.82c-1.347 2.397-3.915 4.017-6.861 4.017-4.345 0-7.867-3.522-7.867-7.867s3.522-7.867 7.867-7.867c2.94 0 5.503 1.613 6.853 4.002z" fill="#fabf17"/>
  </g>
  <g transform="matrix(6.6842,0,0,6.6842,-33.969,402.07)">
   <path d="m0 0c-5.789 0-10.836-3.182-13.487-7.893l3.24-1.822c2.014 3.579 5.848 5.998 10.247 5.998 6.49 0 11.751-5.263 11.751-11.754 0-6.492-5.261-11.754-11.751-11.754-4.393 0-8.222 2.412-10.238 5.983l-3.24-1.823c2.653-4.702 7.695-7.877 13.478-7.877 8.542 0 15.467 6.926 15.467 15.471 0 8.544-6.925 15.471-15.467 15.471" fill="#fabf17"/>
  </g>
  <g transform="matrix(6.6842,0,0,6.6842,-9.768,284.98)">
   <path d="m0 0c-0.714-1.261-2.068-2.112-3.62-2.112-2.297 0-4.159 1.862-4.159 4.159s1.862 4.159 4.159 4.159c1.559 0 2.916-0.858 3.628-2.127l3.237 1.821c-1.348 2.399-3.918 4.021-6.865 4.021-4.348 0-7.872-3.525-7.872-7.874 0-4.348 3.524-7.874 7.872-7.874 2.941 0 5.506 1.615 6.857 4.006z" fill="#fabf17"/>
  </g>
 </g>
 <g transform="matrix(.21112 0 0 .21112 120.97 209.62)">
  <g transform="matrix(26.427,0,0,-26.427,822.49,-786.24)">
   <path d="m0 0c-0.384-0.448-0.607-1.231-0.607-2.765v-1.343c0-1.519 0.223-2.302 0.607-2.734 0.304-0.351 0.703-0.495 1.183-0.495 0.703 0 1.279 0.287 1.694 1.183l2.11-0.912c-0.703-1.71-2.046-2.509-3.804-2.509-1.071 0-1.902 0.287-2.558 0.815-1.071 0.847-1.63 2.35-1.63 4.636v1.454c0 2.222 0.559 3.693 1.63 4.556 0.656 0.512 1.487 0.848 2.558 0.848 1.726 0 3.101-0.784 3.804-2.59l-2.11-0.911c-0.383 0.991-1.039 1.263-1.694 1.263-0.496 0-0.879-0.16-1.183-0.496"/>
  </g>
  <g transform="matrix(26.427,0,0,-26.427,1061.3,-786.24)">
   <path d="m0 0c-0.384-0.448-0.608-1.231-0.608-2.765v-1.343c0-1.519 0.224-2.302 0.608-2.734 0.304-0.351 0.703-0.495 1.183-0.495 0.479 0 0.879 0.144 1.183 0.495 0.383 0.432 0.607 1.215 0.607 2.734v1.343c0 1.534-0.224 2.317-0.607 2.765-0.304 0.336-0.688 0.496-1.183 0.496-0.496 0-0.879-0.16-1.183-0.496m-1.375-8.76c-1.071 0.847-1.63 2.35-1.63 4.636v1.454c0 2.222 0.559 3.693 1.63 4.556 0.656 0.512 1.487 0.832 2.558 0.848 1.071-0.016 1.902-0.336 2.558-0.848 1.071-0.863 1.63-2.334 1.63-4.556v-1.518c0-2.222-0.559-3.725-1.63-4.572-0.656-0.528-1.487-0.815-2.558-0.815s-1.902 0.287-2.558 0.815"/>
  </g>
  <g transform="matrix(26.427,0,0,-26.427,1363.1,-537.42)">
   <path d="m0 0-1.806 6.57-0.736-6.57h-2.222l1.391 11.989h2.254l2.062-7.577 2.062 7.577h2.238l1.407-11.989h-2.222l-0.751 6.57-1.791-6.57z"/>
  </g>
  <g transform="matrix(26.427,0,0,-26.427,1587.9,-854.25)">
   <path d="m0 0h6.365v-2.238h-3.967v-2.542h3.439v-2.238h-3.439v-2.733h3.967v-2.238h-6.365z"/>
  </g>
  <g transform="matrix(26.427,0,0,-26.427,1903.5,-596.56)">
   <path d="m0 0c0.672 0 1.183 0.24 1.519 0.719 0.335 0.496 0.495 1.247 0.495 2.27v1.903c0 0.847-0.16 1.502-0.495 1.95-0.336 0.447-0.847 0.671-1.519 0.671h-1.167v-7.513zm-3.565 9.751h3.837c1.279 0 2.302-0.495 3.021-1.359 0.719-0.847 1.119-2.03 1.119-3.421v-2.142c0-1.518-0.4-2.781-1.119-3.676-0.719-0.879-1.742-1.391-3.021-1.391h-3.837z"/>
  </g>
  <g transform="matrix(26.427,0,0,-26.427,2108.8,-689.92)">
   <path d="m0 0-3.357 6.218h2.59l1.966-3.788 1.966 3.788h2.59l-3.357-6.218v-5.771h-2.398z"/>
  </g>
 </g>
 <g transform="translate(3.8098e-6 358.46)">
  <g transform="matrix(5.5789 0 0 -5.5789 535.38 -221.85)">
   <path d="m0 0-0.847-3.533h2.222l-0.847 3.533c-0.054 0.234-0.11 0.517-0.168 0.847-0.059 0.331-0.094 0.581-0.104 0.752-0.011-0.171-0.04-0.416-0.088-0.736-0.048-0.319-0.104-0.607-0.168-0.863m2.238-7.13-0.367 1.551h-3.214l-0.368-1.551h-2.446l3.438 11.99h1.934l3.469-11.99z"/>
  </g>
  <g transform="matrix(5.5789 0 0 -5.5789 294.61 -234.71)">
   <path d="m0 0c-0.384-0.447-0.607-1.231-0.607-2.766v-1.342c0-1.519 0.223-2.302 0.607-2.734 0.304-0.351 0.703-0.495 1.183-0.495 0.703 0 1.279 0.287 1.694 1.183l2.11-0.912c-0.703-1.71-2.046-2.509-3.804-2.509-1.071 0-1.902 0.287-2.558 0.815-1.071 0.847-1.63 2.35-1.63 4.636v1.454c0 2.223 0.559 3.693 1.63 4.556 0.656 0.512 1.487 0.848 2.558 0.848 1.726 0 3.101-0.784 3.804-2.59l-2.11-0.911c-0.383 0.991-1.039 1.263-1.694 1.263-0.496 0-0.879-0.16-1.183-0.496"/>
  </g>
  <g transform="matrix(5.5789 0 0 -5.5789 329.62 -249.07)">
   <path d="m0 0h6.06v-2.238h-3.662v-2.542h3.134v-2.238h-3.134v-2.733h3.662v-2.238h-6.06z"/>
  </g>
  <g transform="matrix(5.5789 0 0 -5.5789 373.31 -249.07)">
   <path d="m0 0h2.11l3.204-7.018v7.018h2.19v-11.989h-2.11l-3.204 6.922v-6.922h-2.19z"/>
  </g>
  <g transform="matrix(5.5789 0 0 -5.5789 434.34 -236.58)">
   <path d="m0 0h-2.234v2.238h6.865v-2.238h-2.233v-9.751h-2.398z"/>
  </g>
  <g transform="matrix(5.5789 0 0 -5.5789 486.93 -215.89)">
   <path d="m0 0c0.895 0 1.551 0.56 1.551 1.87v0.032c0 1.199-0.656 1.807-1.551 1.807h-1.151v-3.709zm-1.151-6.042h-2.398v11.989h3.821c2.11 0 3.676-1.695 3.676-3.965v-0.271c0-1.535-0.703-2.782-1.806-3.453l1.758-4.3h-2.413l-1.551 3.804h-1.087z"/>
  </g>
  <g transform="matrix(5.5789 0 0 -5.5789 566.14 -249.07)">
   <path d="m0 0h2.398v-9.751h3.483v-2.238h-5.881z"/>
  </g>
 </g>
 <g transform="translate(3.8098e-6 358.46)">
  <path d="m303.6-117.43q0-2.8876-2.1657-4.8729-2.0755-1.9852-7.3995-3.6998-9.9262-3.3388-14.709-8.5726-4.6924-5.324-4.6924-12.453v-1.0828q0-4.0607 1.534-7.4898 1.6243-3.429 4.3314-5.8655 2.7072-2.4364 6.4069-3.79 3.79-1.3536 8.0312-1.3536 8.9336 0 14.258 4.8729 5.3241 4.8729 6.4069 12.182l-12.002 3.5193q-0.7219-4.4217-3.1583-6.1362-2.4364-1.8048-5.5045-1.8048-3.2486 0-5.2338 1.8048-1.9852 1.7145-1.9852 4.5119v0.63166q0 3.0681 3.0681 5.3241 3.1583 2.1657 9.6555 4.4217 7.8507 2.7071 12.182 7.4898 4.3314 4.7826 4.3314 12.182v0.99262q0 4.2412-1.6243 7.8507t-4.5119 6.2264q-2.7974 2.5267-6.6776 3.9705t-8.3019 1.4438q-8.5726 0-14.619-4.4217-6.046-4.5119-7.3093-13.085l12.633-3.79q0.45118 4.4217 3.0681 6.5874 2.6169 2.0755 6.2264 2.0755 3.3388 0 5.5045-2.0755 2.256-2.0755 2.256-5.0533z"/>
  <path d="m346.63-153.97q-2.0755 0-3.79 0.7219-1.6243 0.63167-2.8876 2.0755-1.6243 1.895-2.5267 5.5045-0.90239 3.6095-0.90239 10.107v7.58q0 6.4069 0.90239 10.016 0.90238 3.6095 2.5267 5.4143 1.2633 1.4438 2.9779 2.1657 1.7145 0.63167 3.6998 0.63167 2.9779 0 5.4143-1.4438t4.151-5.2338l11.911 5.1436q-2.9779 7.2191-8.5726 10.738-5.5045 3.4291-12.904 3.4291-4.5119 0-8.1214-1.1731-3.5193-1.1731-6.3167-3.4291-4.5119-3.6095-6.8581-10.016-2.3462-6.4972-2.3462-16.153v-8.2117q0-9.3848 2.3462-15.701 2.3462-6.4069 6.8581-10.016 2.7974-2.1657 6.3167-3.429 3.6095-1.3536 8.1214-1.3536 7.3093 0 12.904 3.5193t8.5726 11.099l-11.911 5.1436q-1.6243-4.151-4.2412-5.5948-2.5267-1.534-5.324-1.534z"/>
  <path d="m372.93-98.024v-67.679h13.536v26.981h18.318v-26.981h13.536v67.679h-13.536v-28.064h-18.318v28.064z"/>
  <path d="m465.42-98.024-8.0312-40.968-8.0312 40.968h-12.633l-11.55-67.679h12.543l6.2264 40.697 7.6702-40.697h11.551l8.0312 40.517 5.8655-40.517h12.543l-11.46 67.679z"/>
  <path d="m495.66-98.024v-67.679h35.464v12.633h-21.928v14.348h18.95v12.633h-18.95v15.431h21.928v12.633z"/>
  <path d="m539.8-98.024v-67.679h13.536v67.679z"/>
  <path d="m560.57-98.024v-8.3922l23.552-46.653h-22.018v-12.633h37.449v8.9336l-23.281 46.112h23.733v12.633z"/>
 </g>
</svg>
