<svg width="800" height="377.92" version="1.1" xmlns="http://www.w3.org/2000/svg">
 <g fill="#ee128b">
  <path d="m154.04 213.61c0 19.512 0 31.836-2.0539 42.105-3.0809 10.27-7.1887 14.377-14.377 14.377-4.1078 0-7.1887-1.027-9.2426-3.0809s-4.1078-6.1618-5.1348-12.324c-1.027-6.1617-2.0539-10.27-3.0809-22.593-1.027-12.324-1.027-27.728-1.027-48.267s1.027-36.97 2.0539-49.294 2.0539-21.566 4.1078-27.728c2.0539-6.1617 4.1078-9.2426 6.1618-11.297 2.0539-2.0539 4.1078-3.0809 7.1887-3.0809 6.1618 0 7.1887 3.0809 10.27 12.323 3.0809 9.2426 3.0809 22.593 3.0809 43.132h44.159c0-13.35 0-24.647-2.0539-35.944-1.027-10.27-4.1078-20.539-8.2157-28.755-4.1078-9.2426-10.27-15.404-17.458-20.539-8.2157-5.1348-18.485-8.2157-30.809-8.2157-9.2426 0-18.485 2.0539-25.674 7.1887-8.2157 5.1348-14.377 12.323-20.539 22.593-6.1617 10.27-10.27 23.62-13.35 40.051-3.0809 16.431-5.1348 36.97-5.1348 59.564 0 43.132 5.1348 74.968 15.404 96.534 10.27 21.566 26.701 32.863 50.321 32.863 12.323 0 22.593-3.0809 30.809-8.2157s14.377-13.35 18.485-22.593 7.1887-19.512 8.2157-29.782 0-26.701 0-40.051z" stroke-width="10.27"/>
  <path d="m318.36 122.21c-3.0809-16.431-7.1887-29.782-13.35-40.051-6.1618-10.27-12.323-17.458-20.539-21.566-8.2157-4.1078-16.431-6.1618-26.701-6.1618s-19.512 2.0539-26.701 6.1618c-8.2157 4.1078-14.377 11.297-20.539 21.566-6.1618 10.27-10.27 23.62-13.35 40.051-3.0809 16.431-4.1078 36.97-4.1078 60.59s1.027 44.159 4.1078 60.59c3.0809 16.431 7.1887 29.782 13.35 40.051 6.1617 10.27 12.323 17.458 20.539 21.566s16.431 6.1617 26.701 6.1617 19.512-2.0539 26.701-6.1617c8.2157-4.1078 14.377-11.297 20.539-21.566 6.1617-10.27 10.27-23.62 13.35-40.051 3.0809-16.431 4.1078-36.97 4.1078-60.59 1.027-23.62-1.027-44.159-4.1078-60.59zm-42.105 87.291c0 24.647-1.027 42.105-4.1078 50.321-3.0809 9.2426-8.2157 11.297-13.35 11.297-6.1617 0-9.2426-2.0539-11.297-11.297-3.0809-9.2426-4.1078-25.674-4.1078-50.321v-52.375c0-24.647 1.027-39.024 4.1078-48.267s7.1887-13.35 12.323-13.35c6.1618 0 10.27 4.1078 12.323 13.35 3.0809 9.2426 4.1078 22.593 4.1078 48.267z" stroke-width="10.27"/>
  <path d="m427.21 197.18c-4.1078-6.1618-16.431-21.566-30.809-34.917-9.2426-8.2157-17.458-15.404-24.647-23.62-5.1348-6.1618-8.2157-13.35-8.2157-21.566 0-7.1887 1.027-12.323 4.1078-16.431 5.1348-6.1618 13.35-6.1618 17.458-6.1618s7.1887 1.027 10.27 3.0809c7.1887 7.1887 6.1618 16.431 6.1618 19.512v13.35l40.051 1.027c0-23.62-3.0809-42.105-11.297-55.456-9.2426-13.35-24.647-19.512-44.159-19.512-18.485 0-37.997 6.1618-47.24 19.512-10.27 12.324-18.485 28.755-18.485 47.24 0 9.2426 1.027 19.512 4.1078 27.728 3.0809 8.2157 8.2157 15.404 12.324 21.566 4.1078 6.1618 20.539 26.701 28.755 32.863 11.297 9.2426 19.512 17.458 24.647 23.62 5.1348 6.1618 8.2157 14.377 8.2157 22.593 0 6.1618-2.0539 11.297-5.1348 16.431-3.0809 5.1348-7.1887 7.1887-12.324 7.1887-4.1078 1.027-8.2157-1.027-11.297-3.0809-3.0809-2.0539-4.1078-6.1617-6.1618-9.2426-1.027-4.1078-2.0539-7.1887-2.0539-11.297v-16.431l-41.078-1.027c0 9.2426 1.027 21.566 3.0809 30.809 2.0539 9.2426 4.1078 17.458 8.2157 24.647 4.1078 7.1887 10.27 13.35 17.458 17.458 7.1887 4.1078 20.539 7.1887 31.836 7.1887 19.512 0 33.89-6.1618 45.186-18.485 10.27-12.323 16.431-28.755 16.431-48.267 0-9.2426-1.027-18.485-4.1078-26.701-3.0809-10.27-7.1887-17.458-11.297-23.62z" stroke-width="10.27"/>
  <polygon transform="matrix(10.27 0 0 10.27 -62.644 -67.779)" points="49.2 12.5 49.2 36.6 52.8 36.6 52.8 18.9 55.4 36.6 57.8 36.6 60.7 18.9 60.7 36.6 64.7 36.6 64.7 24.5 64.7 12.5 59 12.5 56.9 24.8 55 12.5"/>
  <path d="m715.79 83.184c-6.1617-10.27-12.323-17.458-20.539-21.566s-17.458-6.1618-27.728-6.1618-19.512 2.0539-27.728 6.1618-14.377 11.297-20.539 21.566c-6.1618 10.27-10.27 23.62-13.35 40.051-3.0809 16.431-4.1078 36.97-4.1078 60.59s1.027 44.159 4.1078 60.59c3.0809 16.431 7.1887 29.782 13.35 40.051 6.1617 10.27 12.323 17.458 20.539 21.566s17.458 6.1617 27.728 6.1617 19.512-2.0539 27.728-6.1617 14.377-11.297 20.539-21.566c6.1618-10.27 10.27-23.62 13.35-40.051 3.0809-16.431 4.1078-36.97 4.1078-60.59s-1.027-44.159-4.1078-60.59c-3.0809-16.431-7.1887-29.782-13.35-40.051zm-30.809 127.34c0 25.674-1.027 42.105-4.1078 51.348-3.0809 9.2426-7.1887 13.35-13.35 13.35-6.1617 0-10.27-4.1078-13.35-13.35-3.0809-9.2426-4.1078-25.674-4.1078-51.348v-52.375c0-25.674 1.027-42.105 4.1078-51.348 3.0809-9.2426 7.1887-13.35 13.35-13.35 6.1618 0 10.27 4.1078 13.35 13.35 3.0809 9.2426 4.1078 25.674 4.1078 51.348z" stroke-width="10.27"/>
  <path d="m698.33 1.5625e-7h-597.69c-55.456 0-100.64 45.186-100.64 100.64v176.64c0 55.456 45.186 100.64 100.64 100.64h598.72c55.456 0 100.64-45.186 100.64-100.64v-176.64c-1.027-55.456-46.213-100.64-101.67-100.64zm89.345 277.28c0 49.294-40.051 88.318-88.318 88.318h-598.72c-49.294 0-88.318-40.051-88.318-88.318v-176.64c0-49.294 40.051-88.318 88.318-88.318h598.72c49.294 0 88.318 40.051 88.318 88.318z" stroke-width="10.27"/>
 </g>
</svg>
