<svg width="559.28pt" height="601.53pt" version="1.1" viewBox="0 0 559.28 601.53" xmlns="http://www.w3.org/2000/svg">
 <g transform="translate(-653.2 -216.23)">
  <g fill="#005e00">
   <path d="m1038.7 235.74c21.05-15.27 47.94-20.91 73.58-19.22 20.74 1.16 41.53 8.25 57.42 21.91 10.82 9.02 19.59 20.79 24.46 34.07 2.72 7.19 3.59 14.89 4.27 22.5-0.62 8.58-2 17.27-5.58 25.18-5.1 11.84-14.21 21.47-24.39 29.15-4.82 3.73-10.3 6.48-15.31 9.92 8.22 2.76 16.78 4.95 24.14 9.74 17.53 10.28 30.18 28.35 33.82 48.35 4 21.74-0.61 44.9-12.33 63.63-10.56 16.38-25.8 29.69-43.36 38.12-20.29 9.67-43.42 12.08-65.57 9.7-23.81-2.3-47.1-12.5-63.8-29.82-14.9-14.93-23.43-35.43-25.6-56.24l59.08-6.43c1.7 11.38 5.18 23.27 13.86 31.34 8.16 9.02 20.57 13.77 32.65 12.97 9.33 0.41 18.51-3.21 25.68-9.05 9.91-7.63 15.7-19.54 17.54-31.74 1.01-11.41 0.79-23.43-4.34-33.93-4.99-11.32-15.37-20.05-27.38-23-12.38-3.23-25.19 0.04-37.35 2.73l5.47-47.16c11.7-0.49 24.12-1.23 34.26-7.78 9.23-5.76 15.34-15.94 16.52-26.7 0.28-6.31 0.6-12.86-1.97-18.78-3.63-10.45-13.46-17.87-24.17-19.82-10.79-2.31-22.59-0.07-31.55 6.46-10.65 7.71-16.05 20.82-17.2 33.6l-56.22-9.05c0.72-6.94 3.17-13.57 5.34-20.16 5.29-15.75 14.35-30.69 28.03-40.49z"/>
   <path d="m659.7 217.52h64.415v135.99l130.4-135.99h85.599l-119.08 119.41 126.43 187.4-83.01-0.01-88.29-143.58-52.05 50.84v92.93h-64.415z"/>
   <path d="m653.2 553.25h535.42v20.7h-535.42z"/>
   <path d="m1188.6 586.02v15.82h-535.42v-15.82z"/>
   <path d="m653.2 617.3h535.42v11.815h-535.42z"/>
  </g>
  <g transform="translate(-.11642 -248.05)">
   <g fill="#005e00">
    <path d="m684.97 978.29q-12.622 0-19.347-9.4146t-6.7247-29.072q0-10.035 1.8622-16.967 1.9657-6.9317 5.3798-11.277 3.4141-4.3452 8.0697-6.2075 4.6556-1.9657 10.139-1.9657 4.5521 0 8.4835 1.2415 3.9314 1.138 6.4144 2.8968l-2.7934 7.7593q-2.483-1.6553-5.3798-2.6899-2.7934-1.0346-6.5178-1.0346-8.2766 0-12.001 6.9317-3.7245 6.8282-3.7245 21.312 0 14.588 3.9314 22.45 3.9314 7.8628 12.829 7.8628 4.2418 0 6.8282-1.0346 2.6899-1.0346 5.1729-2.6899l2.5864 7.3455q-2.3795 1.8622-6.3109 3.2072-3.8279 1.345-8.8974 1.345z"/>
    <path d="m775.35 940.94q0 8.3801-1.5519 15.312-1.4484 6.8282-4.6556 11.794-3.1037 4.8625-7.9662 7.5524-4.7591 2.6899-11.277 2.6899-6.5178 0-11.38-2.6899-4.7591-2.6899-7.9663-7.5524-3.1037-4.966-4.6556-11.794-1.5519-6.9317-1.5519-15.312 0-8.3801 1.5519-15.312 1.5519-6.9317 4.6556-11.794 3.2072-4.966 7.9663-7.6559 4.8625-2.7934 11.38-2.7934 6.5178 0 11.277 2.7934 4.8625 2.6899 7.9662 7.6559 3.2072 4.8625 4.6556 11.794 1.5519 6.9317 1.5519 15.312zm-9.932 0q0-6.5178-0.82766-11.898-0.82763-5.3798-2.6899-9.2077-1.8622-3.9314-4.8625-6.104-2.8968-2.1726-7.1386-2.1726-4.2417 0-7.242 2.1726-2.8968 2.1726-4.759 6.104-1.8623 3.8279-2.7934 9.2077-0.82763 5.3798-0.82763 11.898 0 6.5178 0.82763 11.898 0.93112 5.3798 2.7934 9.2077 1.8622 3.8279 4.759 6.0005 3.0003 2.0692 7.242 2.0692 4.2418 0 7.1386-2.0692 3.0003-2.1726 4.8625-6.0005 1.8623-3.8279 2.6899-9.2077 0.82766-5.3798 0.82766-11.898z"/>
    <path d="m817.61 970.32q5.5867 0 8.587-3.1037 3.1038-3.1037 3.1038-8.3801 0-2.7934-0.93112-4.966t-2.483-3.9314q-1.4484-1.7588-3.4141-3.2072t-4.0348-2.8968q-2.3795-1.6553-4.9659-3.5176-2.5864-1.8622-4.759-4.3452-2.0692-2.483-3.4141-5.7936t-1.345-7.7593q0-4.3452 1.4484-7.8628 1.5518-3.5176 4.1383-6.0005 2.6899-2.483 6.3109-3.8279 3.7245-1.345 7.9662-1.345 4.1383 0 7.6558 1.0346 3.5176 1.0346 5.8971 2.483l-2.8968 7.3455q-2.1726-1.4484-4.759-2.1726-2.483-0.82766-5.2763-0.82766-5.0694 0-8.1732 2.7934-3.0003 2.6899-3.0003 7.9662 0 2.8968 0.93115 5.0694 1.0346 2.1726 2.5864 3.9314 1.6553 1.7588 3.7244 3.2072 2.1726 1.4484 4.5521 3.0003 2.3796 1.5519 4.8625 3.4141 2.483 1.8622 4.4487 4.3452 2.0692 2.3795 3.3106 5.6902 1.345 3.2072 1.345 7.6559 0 4.0348-1.2415 7.6559-1.2415 3.621-3.9314 6.4144-2.5864 2.6899-6.6213 4.3452-3.9314 1.5519-9.3112 1.5519-4.966 0-8.6904-1.138t-6.6213-3.0003l2.8968-7.449q2.6899 1.6553 5.4832 2.6899 2.8968 0.93112 6.6213 0.93112z"/>
    <path d="m909.61 913.52c0.89663 4.1383 1.8622 8.518 2.8968 13.139 1.0346 4.6211 2.1036 9.2077 3.2072 13.76 1.1725 4.5521 2.345 8.9663 3.5176 13.243s2.2761 8.1732 3.3106 11.691c0.82766-3.8624 1.6208-8.1387 2.3795-12.829 0.75869-4.759 1.4829-9.725 2.1726-14.898 0.75869-5.1729 1.4484-10.518 2.0692-16.036 0.62075-5.5177 1.138-11.035 1.5519-16.553h9.1043c-1.5864 13.863-3.3796 26.623-5.3798 38.279-1.9312 11.656-4.2073 22.795-6.8282 33.417h-9.4146c-1.0346-3.3796-2.1726-7.1386-3.4141-11.277-1.1725-4.1383-2.345-8.4146-3.5176-12.829-1.1725-4.4832-2.3106-9.0008-3.4141-13.553-1.1036-4.5521-2.1036-8.9663-3.0003-13.243-0.89663 4.2762-1.8967 8.6904-3.0003 13.243-1.1036 4.5521-2.2416 9.0698-3.4141 13.553-1.1725 4.4142-2.3795 8.6904-3.621 12.829-1.1725 4.1383-2.2761 7.8973-3.3106 11.277h-9.4146c-2.6209-10.622-4.9315-21.761-6.9317-33.417-1.9312-11.656-3.69-24.416-5.2763-38.279h9.4146c0.41382 5.5177 0.93111 11.035 1.5519 16.553 0.62075 5.4488 1.276 10.794 1.9657 16.036 0.75868 5.1729 1.5174 10.139 2.2761 14.898 0.75868 4.6901 1.5518 8.9663 2.3795 12.829 1.0346-3.5176 2.1381-7.4145 3.3106-11.691s2.3106-8.6904 3.4141-13.243c1.1725-4.5521 2.2761-9.1388 3.3106-13.76s2.0002-9.0008 2.8968-13.139z"/>
    <path d="m973.86 905.04h9.3112v71.696h-9.3112z"/>
    <path transform="scale(.75)" d="m1392.9 1204.5c-5.4258 0-10.346 0.9205-14.76 2.7597-4.3222 1.7473-8.0471 4.6432-11.174 8.6895-3.0348 3.9544-5.3799 9.1058-7.0352 15.451-1.6552 6.3454-2.4824 14.023-2.4824 23.035 0 8.6445 0.8272 16.141 2.4824 22.486 1.7473 6.2535 4.1391 11.448 7.1739 15.586 3.1267 4.0463 6.8049 7.0823 11.035 9.1055 4.2303 1.9312 8.827 2.8964 13.793 2.8964 4.0463 0 7.9094-0.4145 11.588-1.2422 3.6785-0.8276 6.7592-1.8396 9.2422-3.0351v-44.969h-25.156v12.416h12.742v24.967c-2.0232 0.6437-4.4616 0.9648-7.3125 0.9648-3.4026 0-6.4833-0.7356-9.2422-2.207s-5.1039-3.7698-7.0351-6.8965-3.4473-7.1727-4.5508-12.139c-1.0116-4.966-1.5176-10.944-1.5176-17.934 0-13.059 1.7476-22.807 5.2422-29.244 3.4946-6.5293 9.2415-9.793 17.242-9.793 3.2187 0 6.0698 0.506 8.5527 1.5176 2.483 0.9196 4.7814 2.1145 6.8965 3.5859l3.8633-10.346c-2.1151-1.4714-4.8748-2.7597-8.2774-3.8633-3.4026-1.1955-7.1723-1.7929-11.31-1.7929z"/>
    <path d="m1094.6 976.74v-71.696h32.175v7.9662h-22.864v22.243h20.692v7.7593h-20.692v25.761h24.52v7.9662z"/>
    <path d="m1159.7 906.08q7.242-1.7588 13.967-1.7588 5.3798 0 9.725 1.2415 4.3453 1.2415 7.449 3.9314t4.759 6.9317q1.7588 4.2418 1.7588 10.242 0 7.449-2.8968 12.105-2.7933 4.5521-7.6559 6.9317 1.2415 2.0692 3.1037 5.6902 1.9657 3.5176 3.9314 7.8628 2.0692 4.2418 3.9314 8.7939 1.9657 4.5521 3.3107 8.6904h-9.3112q-1.138-3.1037-2.8968-7.0351-1.6554-3.9314-3.5176-7.7593-1.8622-3.9314-3.7244-7.449-1.8623-3.621-3.3107-6.104-1.6553 0.20692-3.4141 0.31037-1.7588 0.10346-3.5176 0.10346h-2.5864v27.934h-9.1042zm9.1042 35.072h3.9314q7.1386 0 10.966-3.2072 3.8279-3.3106 3.8279-11.277 0-4.0348-1.0345-6.7247-0.9311-2.7934-2.7934-4.3452-1.7588-1.6553-4.3452-2.3795-2.483-0.72421-5.5867-0.72421-2.6899 0-4.966 0.31038z"/>
   </g>
  </g>
  <g fill="#005e00">
   <path d="m899.47 745.77h9.3051v32.763l21.69-32.763h9.51l-19.86 30.293 20.05 40.175h-9.66l-16.47-33.035-5.2599 7.6285v25.407h-9.3051z"/>
   <path d="m662.93 745.77h9.1518v70.468h-9.1518z"/>
   <path d="m737.14 816.24q-2.4405-5.9994-5.5927-12.914-3.0506-7.0163-6.5079-14.033-3.3556-7.118-6.9146-14.033-3.559-7.0163-7.0163-13.016v53.995h-8.5416v-70.468h7.6265q3.8641 6.3045 7.4231 12.914 3.6607 6.6096 6.9146 13.118 3.254 6.4062 6.1012 12.711 2.9489 6.2028 5.3894 11.796v-50.538h8.5416v70.468z"/>
   <path d="m773.76 816.24v-70.468h31.624v7.8298h-22.473v22.168h19.93v7.6264h-19.93v32.845z"/>
   <path d="m875.21 781.05q0 8.2365-1.5253 15.05-1.4236 6.7113-4.5759 11.592-3.0506 4.7793-7.8298 7.4231-4.6776 2.6438-11.084 2.6438-6.4062 0-11.185-2.6438-4.6776-2.6438-7.8298-7.4231-3.0506-4.8809-4.5759-11.592-1.5253-6.813-1.5253-15.05 0-8.2366 1.5253-15.05 1.5253-6.813 4.5759-11.592 3.1523-4.8809 7.8298-7.5248 4.7792-2.7455 11.185-2.7455 6.4062 0 11.084 2.7455 4.7792 2.6439 7.8298 7.5248 3.1523 4.7792 4.5759 11.592 1.5253 6.813 1.5253 15.05zm-9.7619 0q0-6.4063-0.81349-11.694-0.81349-5.2876-2.6438-9.05-1.8304-3.8641-4.7792-5.9995-2.8472-2.1354-7.0164-2.1354-4.1691 0-7.118 2.1354-2.8472 2.1354-4.6776 5.9995-1.8304 3.7624-2.7455 9.05-0.81349 5.2877-0.81349 11.694 0 6.4062 0.81349 11.694 0.91518 5.2876 2.7455 9.05t4.6776 5.8978q2.9489 2.0337 7.118 2.0337t7.0164-2.0337q2.9489-2.1354 4.7792-5.8978t2.6438-9.05q0.81349-5.2877 0.81349-11.694z"/>
   <path d="m988.24 745.77c1.627 5.0842 3.22 10.237 4.7792 15.457 1.627 5.1521 3.1862 10.575 4.6776 16.27 1.5592 5.6945 3.0845 11.728 4.5758 18.1 1.5592 6.3723 3.1184 13.253 4.6776 20.642h-9.1518c-0.54233-3.0505-1.1186-6.067-1.7287-9.0498-0.54233-2.9828-1.1186-5.9656-1.7287-8.9484h-22.168c-0.67791 2.9828-1.288 5.9656-1.8304 8.9484s-1.0846 5.9993-1.627 9.0498h-8.8467c1.4914-7.3891 3.0167-14.27 4.5759-20.642s3.0845-12.406 4.5759-18.1c1.5592-5.6944 3.1184-11.118 4.6776-16.27 1.627-5.2199 3.254-10.372 4.8809-15.457zm-4.9826 10.372c-1.6948 5.6266-3.3218 11.287-4.8809 16.982-1.5592 5.6945-3.0506 11.524-4.4742 17.49h18.609c-1.3558-5.9656-2.8133-11.796-4.3725-17.49-1.5592-5.6944-3.1862-11.355-4.8809-16.982z"/>
   <path d="m1066.9 816.24q-2.4405-5.9994-5.5927-12.914-3.0506-7.0163-6.5079-14.033-3.3557-7.118-6.9147-14.033-3.559-7.0163-7.0163-13.016v53.995h-8.5417v-70.468h7.6265q3.864 6.3045 7.4231 12.914 3.6607 6.6096 6.9146 13.118 3.254 6.4062 6.1012 12.711 2.9489 6.2028 5.3894 11.796v-50.538h8.5416v70.468z"/>
   <path d="m1127.3 745.77q2.4404 7.6264 4.7793 15.456 2.4404 7.7281 4.6775 16.27 2.3388 8.5417 4.5759 18.1 2.3387 9.5585 4.6775 20.642h-9.1517q-0.8135-4.5758-1.7287-9.05-0.8135-4.4742-1.7286-8.9484h-22.168q-1.0169 4.4742-1.8304 8.9484-0.8134 4.4742-1.627 9.05h-8.8467q2.2371-11.084 4.5759-20.642t4.5759-18.1q2.3388-8.5416 4.6776-16.27 2.4405-7.8299 4.8809-15.456zm-4.9826 10.372q-2.5422 8.4399-4.881 16.982-2.3388 8.5417-4.4741 17.49h18.608q-2.0337-8.9484-4.3725-17.49t-4.8809-16.982z"/>
   <path d="m1202.8 808.41v7.8298h-31.421v-70.468h9.1518v62.639z"/>
  </g>
 </g>
</svg>
