<svg width="800" height="309.72" version="1.1" viewBox="0 0 800 309.72" xmlns="http://www.w3.org/2000/svg">
 <g transform="matrix(1.2055 0 0 1.1993 399.17 24.83)" fill="#fff" stroke-width="3.771">
  <path d="m228.63 150.77a15.18 15.18 0 0 1 15.4 1.74c5.52 4.35 7.86 11.33 9.73 17.83a99.59 99.59 0 0 1 1.41 41.14c-0.63 4-3 8.66-7.45 9.21a6.06 6.06 0 0 1-6.69-5.44c-0.79-9.22 2.56-18.48 0.47-27.63-0.57-3-3.6-5.62-6.71-4.89-4 1.3-6.65 5-8.61 8.54-4.09 7.75-6.44 16.26-9.09 24.57-1.82 6-4.76 12.31-10.53 15.44-9.46 5.13-22.9 4.06-29.71-4.91-5.88-8-9.86-17.21-15.32-25.48-1.46-1.86-3.48-4.69-6.23-3.69-2.69 0.73-3.38 3.9-3.38 6.33 0.41 9.06 4.79 17.29 6.27 26.14 0.86 3.6-1.46 8.44-5.72 7.81-4 0.46-6.4-3.39-7.76-6.56-6-14.68-9.24-31.07-5.85-46.79 1.56-7.25 4-14.82 9.62-20s15.14-6.3 21.28-1.37c8.76 6.81 12.45 17.83 19.83 25.81 4.07 4.51 11.93 4.73 15.58-0.4 7.97-12.17 8.49-30.87 23.46-37.4z"/>
  <path d="m294.69 163.11h17.31v20.89h20.5v16.95h-20.55q0 10.42 0 20.85h-17.26v-20.88h-20.86v-16.92h20.86z"/>
  <path d="m94.08 189.39a15.43 15.43 0 0 1 13.78-5.89c0 3 0.07 6.09 0.16 9.14-3.74-0.79-8.33-0.9-10.6 2.79-4.83 7.76-2.73 17.4-3.21 26h-9.44v-37.5h9.49c-0.06 1.85-0.12 3.65-0.18 5.46z"/>
  <path d="m0 184h9.13c0 0.76-0.05 2.27-0.07 3 6.35-5.34 17-4.4 22 2.23s5 16.28 2 23.83c-3.72 9.12-16.47 11.64-24 5.71 0.09 5.89 0.05 11.8 0.05 17.69h-9.11zm13.5 8.4c-7.88 4.56-6.76 20.78 3.37 21.62 7.85-0.6 9.81-10.49 7.41-16.63-1.28-4.49-6.56-7.15-10.78-5.02z"/>
  <path d="m52.61 184.58c7.27-2.2 16.25-1.15 21.44 4.88 5.4 6.47 5.93 16.36 2 23.69-6.19 11.38-24.77 11.89-32 1.34-6.68-9.71-3.5-26.17 8.56-29.91zm3.82 7.7c-8.72 3.84-7.75 20.09 2.19 21.55 6.34 0.87 10.59-6 10.08-11.64 0.3-6.19-5.85-12.81-12.27-9.91z"/>
 </g>
 <path d="m758.06 14.746h21.521v159.98h-21.521z" fill="#fff" stroke="#39331d" stroke-width=".34142"/>
 <g transform="matrix(1.3964 0 0 1.3964 -390.28 -113.11)">
  <polygon points="279.5 202.6 281 99.6 361.4 100.4 356.9 202.6" fill="#fff"/>
  <path d="m340.1 105.4 15.4 1.2-2.5 32.6-16.9-1.3c0.3-5.3-0.3-10.2-2.3-14s-5-6.2-9.8-6.6c-12.4-1-16.1 18.9-17 31.7-0.9 11.7-0.4 30.4 12.3 31.4 10.4 0.9 12.5-10.1 13.4-15.6l18.6 1.4c-2.3 21.5-16.7 29.8-32 28.7-26.7-2-34.2-24.4-32.3-49.3 1.9-24.8 13.3-44.6 34.9-43 11.4 0.9 15.4 8.2 17.4 11.5z"/>
  <polygon points="365.9 178.8 367.5 115.8 415 115.8 414.3 178.8" fill="#fff"/>
  <path d="m412 136.1h-4.6c-0.3-4.9-2.5-7.2-6.8-7.2-7.6 0-12.1 5.8-12.1 16.6v22.1h9.2v4.9h-24.4v-4.9h7.2v-38.5h-7.5v-4.9h15.6v8.5c3-6.8 7.9-9.9 15-9.9 2.5 0 5.3 0.4 8.5 1.2z"/>
  <polygon points="422.4 219.3 423.8 100.8 463.9 100.8 462.5 219.3" fill="#fff"/>
  <path d="m457.4 201.6v6.9h-31.9v-6.9h10.5v-55.5h-10.5v-6.9h21.5v62.4zm-17.4-91.4c3.6 0 6.8 3.5 6.8 7.5s-2.9 7.4-6.8 7.4c-3.6 0-6.8-3.2-6.8-7.4-0.1-4.1 2.9-7.5 6.8-7.5z"/>
  <polygon points="473.6 214.7 476.5 81 596.3 85.4 599.4 212" fill="#fff"/>
  <path d="m565.7 162.6c-0.4-13.1-0.9-28.8-0.9-44.7h-0.3c-3.2 13.8-7.4 29.4-11.1 42.1l-12 42.4h-17.4l-10.5-42c-3.2-13-6.5-28.4-8.9-42.5h-0.3c-0.4 14.7-1 31.4-1.6 45l-1.9 41.2h-20.6l6.3-108.7h29.6l9.7 36.3c3.2 12.5 6.2 26.1 8.4 38.9h0.6c2.6-12.5 6.1-27 9.4-39.1l10.4-36.2h29.3l5.3 108.7h-21.6z"/>
  <polygon points="605.5 197 607.4 102.4 690.3 106 687.7 199.8" fill="#fff"/>
  <path d="m628.7 152.4v0.6c-0.9 20.6 6.1 31.6 20.5 32.3 11.1 0.4 18.5-5.5 21.8-17.3l10.1 0.4c-4.6 16.6-15.7 24.7-33.4 23.9-21.2-0.9-34.6-17.3-33.6-42 1-24.5 15.9-39.8 36.2-38.9 21.9 0.9 33.4 15.9 32.7 43.3zm21.2-33.9c-11.5-0.4-18.7 8.4-20.9 26.2l39.4 1.6c0.3-17.8-6.1-27.2-18.5-27.8z"/>
  <polygon points="702.4 198.5 698.3 104.7 778.9 104.7 782.5 196.7" fill="#fff"/>
  <path d="m715.7 128.6c-0.1 9.2 0.4 34.2 0.6 36.8 0.6 20.6 0.6 21.2 9.4 21.2 2 0 2.3 0.3 2.3 2.5 0 1.4-0.1 1.9-1.4 1.9-3.6 0.1-7.4 0-11 0.1-3.7 0.1-7.4 0.4-11.1 0.6-1.3 0-1.4-0.9-1.4-2.2 0-1.6 0-2.2 2.2-2.3 6.3-0.6 7.1-0.6 7.2-9.5 0-4.5-0.3-36.2-0.7-49.6 0-2.5-0.3-4-2.3-6.5-3.6-4.2-4.3-4.3-7.1-4.5-2.7-0.1-2.9-0.3-2.9-2.2 0-1.2 0.1-2.2 1.2-2.3 2.2 0 7.9 0.1 9.7 0.1 2.5 0 8.8-0.7 11.7-0.7 0.9 0 1.4 0.9 2 1.4 13.8 17.3 27.4 35 42 51.3-0.3-12.3 0-23.8-0.1-32.3-0.4-16-3.9-17.3-9.8-17.2-1.9 0-1.9-0.6-2-2.2 0-1.2 0-2.2 1.2-2.2 2.6 0 9.9 0.1 11.8 0.1s9.4-0.7 11-0.7c0.9 0 1.2 0.6 1.2 2 0 1.6 0 2.5-1.4 2.5-5.9 0.1-7.6 2.5-7.9 10.4-0.3 7.2-0.3 50.6 0.1 63.6 0 2.5-0.4 2.5-2.7 2.5-0.3 0-0.6-0.1-3.3-3.6z"/>
 </g>
</svg>
