<svg width="800" height="389.48" version="1.1" viewBox="0 0 800 389.48" xml:space="preserve" xmlns="http://www.w3.org/2000/svg"><defs><clipPath id="clipPath23236"><path d="m0 0h595.28v841.89h-595.28z"/></clipPath></defs><g transform="matrix(1.3333 0 0 -1.3333 -1116.7 449.57)"><g transform="matrix(47.801 0 0 47.801 -1444 -1952.8)"><g clip-path="url(#clipPath23236)"><path transform="matrix(.01569 0 0 -.01569 47.73 47.907)" d="m0 0v389.48h800.06l-0.06445-389.48z"/><path d="m51.374 44.447h8.725v3.277h-8.725z" fill="#00b0e6"/></g></g><path d="m957.94 201.65c-0.15513-1.1851-0.74459-2.0786-0.74459-2.0786s-0.59256-0.59256-1.6257-0.8966c-14.259-5.786-30.152-3.8563-30.152-3.8563-25.707 2.8201-42.032 18.562-47.225 38.917-7.7282 30.435 7.5823 52.118 11.29 56.715 9.0498 10.846 23.153 18.568 36.965 20.355 17.684 2.5254 30.748-1.6381 36.097-3.4096 0 0 5.9318-1.9359 10.393-4.9142 2.2244-1.483 2.5254-2.0817 2.5254-2.0817s0.14582-0.28852-0.44985-2.6681l-4.1417-21.838c-0.14893-0.89039-0.75389-1.3309-0.75389-1.3309s-0.30094-0.15513-2.3765 1.182c-13.368 9.512-28.955 8.3238-28.955 8.3238-11.901-0.73837-25.707-6.9867-29.858-22.722-3.7136-13.945 0.13961-25.685 8.4696-32.662 5.6278-4.9018 14.398-7.4334 23.606-6.9804 10.095 0.72907 18.118 4.7436 17.529 4.4582 0 0 0.44054 0.1396 0.8935 0.28541 2.0848 1.0393 2.5254 0.8873 2.5254 0.8873s0.44364-0.43434 0.14581-1.7715z" fill="#fff" stroke-width="3.1024"/><g transform="translate(145.96 -191.87)" fill="#020203" stroke-width="3.1023"><path d="m958.84 471.72c-6.4993 5.1653-12.332 7.4982-18.998 7.4982-7.0049 0-12.338-4.1695-12.338-9.6667 0-1.9979 1.002-4.1694 2.668-5.5003 3.1674-2.668 4.3339-3.1674 17.336-7.0049 19.34-5.6648 27.34-14.668 27.34-31.162 0-12.676-3.8375-22.339-11.339-28.839-8.0008-6.8374-19.336-10.504-32.167-10.504-13.172 0-26.67 4.337-38.509 12.502l12.335 23.332c9.0028-7.8301 17.004-11.33 25.504-11.33 8.5002 0 14.001 4.3308 14.001 10.83 0 5.9998-3.8344 8.8353-17.336 12.837-12.332 3.67-17.168 5.6679-21.173 9.0028-5.8261 4.8364-8.8322 12.167-8.8322 22.001 0 22.339 15.338 37.506 37.842 37.506 11.668 0 24.002-3.1705 35.17-9.0028z"/><path d="m1031.6 389.3h-28.839v86.678h-23.506v24.505h76.347v-24.505h-24.002z"/><path d="m1104.2 466.13-12.167-35.499h24.005zm-20.168-57.507-7.6658-19.33h-30.505l42.672 111.18h31.504l41.84-111.18h-30.837l-7.1725 19.33z"/><path d="m1206.7 450.63c5.5003 0 9.6666 0.99273 12.335 2.9999 3.1673 2.3298 5.5003 6.8312 5.5003 10.833 0 3.9988-2.333 8.4971-5.5003 10.839-2.6681 1.9948-6.8344 2.9968-12.335 2.9968h-5.3328v-27.669zm58.177-61.344h-36.005l-27.505 42.672v-42.672h-28.836v111.18h44.834c12.67 0 20.841-2.9968 27.337-9.8342 6.0028-6.3348 9.5023-15.331 9.5023-24.505 0-9.8342-3.8345-19.172-10.166-24.669-3.8343-3.3349-7.5012-5.1684-14.168-6.6668z"/></g><path d="m846.3 54.961h582.46v106.98h-582.46z" fill="#a2daf4"/><g transform="translate(0 154)"><path d="m1144.1-41.018c3.0443 0 5.3503 0.54946 6.8271 1.6604 1.753 1.2895 3.0443 3.781 3.0443 5.996 0 2.2133-1.2913 4.7031-3.0443 5.9995-1.4768 1.1041-3.7828 1.6587-6.8271 1.6587h-2.9517v-15.315zm32.2-33.953h-19.928l-15.224 23.618v-23.618h-15.96v61.538h24.815c7.0125 0 11.535-1.6587 15.131-5.4431 3.3225-3.5063 5.2594-8.4858 5.2594-13.563 0-5.4431-2.1223-10.612-5.6268-13.654-2.1223-1.8458-4.1519-2.8606-7.8419-3.69z" fill="#020203" stroke-width="1.7171"/><path d="m870.55-74.971v61.538h16.713v-23.765h22.413v23.765h16.713v-61.538h-16.713v25.021h-22.413v-25.021z"/><path d="m937.17-74.971v61.538h16.906v-61.538z"/><path d="m972.14-74.971v46.951h-13.718v14.588h44.246v-14.588h-13.718v-46.951z"/><path d="m1012.3-55.07q0.097-0.09661 0.097-0.19321 0.097 0 0.1932-0.09661 2.6084-2.8982 5.893-5.4099 3.2846-2.4152 7.5353-2.6084 0.097 0 0.1932-0.09661 0.1932 0 0.2898 0 0.097 0 0.1932-0.09661 0.1932 0 0.2898 0 0.3864 0 0.7729 0 0.483 0.09661 0.8694 0.19321 1.5457 0.28982 2.8982 1.1593 1.4491 0.86945 2.2219 2.1253 0.097 0.19321 0.1933 0.38642 0.097 0.19321 0.1932 0.38642 0.1932 0.67624 0.2898 1.2559 0.097 0.57964 0.097 1.0627 0 2.6084-2.3185 4.3473-2.222 1.8355-4.8304 2.8016-1.0626 0.38642-2.0287 0.57964-0.966 0.28982-1.8355 0.48303-0.097 0-0.1932 0-0.097 0.09661-0.1932 0.09661-4.7337 1.1593-8.8878 3.671-4.154 2.6084-5.6997 7.4387-0.2899 0.96606-0.5797 2.0287-0.1932 1.0627-0.2898 2.2219-0.097 0.38642-0.097 0.67624 0 0.38642 0 0.77285 0 0.77285 0 1.5457 0.097 0.77285 0.2898 1.5457 0.2898 1.9321 0.9661 3.8642 0.6762 1.9321 1.7389 3.4778 3.0914 5.1201 7.9217 7.3421 4.9269 2.2219 10.24 2.2219 1.2559 0 2.5118-0.19321 1.3525-0.09661 2.705-0.28982 3.4778-0.57964 6.859-1.9321 3.4778-1.3525 6.376-3.188l-5.3133-11.883q-2.6084 1.9321-5.5066 3.3812t-6.2794 1.4491q-0.1932 0-0.3864 0t-0.3864 0q-2.222-0.28982-4.1541-2.0287-1.9321-1.6423-1.9321-3.5744 0-0.28982 0-0.57964 0.097-0.28982 0.2898-0.57964 0.1932-0.67624 0.6762-1.2559 0.4831-0.57964 1.0627-1.0627 1.0627-0.86946 3.0914-1.6423 2.0287-0.67624 4.2507-1.3525 1.8355-0.48303 3.5744-0.96606 1.7389-0.38642 2.8982-0.77285 5.4099-1.9321 8.1149-6.4726 2.705-4.4439 2.8016-9.4674 0-0.19321 0-0.28982t0-0.19321q0-0.57964-0.097-1.1593 0-0.57964 0-1.0627-0.5797-5.0235-3.2846-9.564-2.6084-4.5405-7.0523-6.9556-1.6423-0.77285-3.3812-1.3525-1.7389-0.48303-3.4778-0.86946-1.4491-0.28982-2.8982-0.38642-1.4491-0.19321-2.8016-0.19321-0.2898 0-0.5796 0-0.1932 0-0.483 0-5.7964 0.19321-11.4 2.5118-5.6031 2.4152-9.9504 6.376z"/><path d="m1080.5-74.971v61.538h37.773v-13.428h-21.253v-10.723h19.998v-13.138h-19.998v-24.248z"/><path d="m1209.3-32.44-6.7348-19.65h13.288zm-11.163-31.831-4.2431-10.7h-16.885l23.62 61.538h17.438l23.16-61.538h-17.069l-3.9701 10.7z" fill="#020203" stroke-width="1.7172"/><path d="m1247.5-74.971v61.538h16.23l23.186-31.59q0.8694-1.3525 1.6423-2.8982 0.8694-1.4491 1.6423-2.9948 0.5796-1.2559 1.1593-2.5118 0.5796-1.2559 1.1592-2.4152-0.097 1.0627-0.2898 2.0287-0.097 0.96606-0.1932 2.0287-0.1932 1.9321-0.2898 3.9608-0.097 2.0287-0.097 4.1541v30.238h16.133v-61.538h-16.133l-23.379 31.783q-0.9661 1.1593-1.8355 2.705-0.8695 1.6423-1.6423 3.3812-0.5796 1.2559-1.1593 2.4152-0.483 1.2559-0.966 2.3185 0.483-2.9948 0.7728-6.0862t0.2898-6.1828v-30.334z"/><path d="m1362.1-15.752v-18.355q-3.188 3.2846-6.6658 5.3133-3.4779 2.0287-8.0184 2.0287h-1.449q-6.6659-0.57964-10.337-5.6998-3.5744-5.1201-3.8642-11.11 0-0.19321 0-0.48303 0-0.19321 0-0.38642 0-5.4099 2.8015-10.24 2.8016-4.7337 8.3082-6.376 1.3524-0.38642 2.5117-0.57964 1.2559-0.19321 2.3186-0.19321 4.2506 0 7.7285 2.1253 3.4778 2.2219 6.6658 5.4099v-18.355q-1.3525-0.57964-2.705-1.0627-1.2559-0.48303-2.6084-0.86946-2.6083-0.67624-5.3133-1.0627-2.6084-0.48303-5.3133-0.48303-0.5797 0-1.1593 0-0.483 0-1.0627 0-0.5796 0-1.1592 0.09661-0.4831 0-1.0627 0.09661-12.172 1.1593-19.514 10.433-7.2455 9.3708-7.2455 21.35 0 11.883 7.2455 21.157 7.342 9.3708 19.514 10.82 0.483 0 0.966 0 0.4831 0.09661 0.9661 0.09661 0.3864 0 0.8695 0 0.483 0.09661 0.966 0.09661 4.2507 0 8.4048-1.0627 4.2506-0.96606 8.2115-2.705z"/><path d="m1370.7-74.971v61.538h37.773v-13.428h-21.253v-10.723h19.998v-13.138h-19.998v-10.433h21.253v-13.815z"/></g></g></svg>
