<svg enable-background="new 0 0 665 153" version="1.1" viewBox="0 0 665 153" xml:space="preserve" xmlns="http://www.w3.org/2000/svg">
<g fill="#f00">
	<path class="st1" d="m639.4 0h4.1c6 1 12 3.7 15.9 8.6 3.3 3.9 5 8.9 5.6 13.9v3.1c-0.8 7.6-4.9 14.9-11.7 18.7-10 6.4-24.6 3.4-31.4-6.3-6.1-8.1-6.2-20.1-0.1-28.2 4.1-5.7 10.8-9 17.6-9.8z"/>
	<path class="st1" d="m30.6 32.5c15.9-9.3 36.3-10.6 53.2-3.4 13.1 5.6 23.2 16.7 29 29.5-8.5 4-17 8-25.6 12-2-4.9-4.5-9.8-8.6-13.3-9.7-9-26.1-9.5-36.3-1-6.5 5.4-10.3 13.5-11.6 21.7-2.1 14-0.2 30.4 10.8 40.5 9.2 8.2 24.1 9.2 34.4 2.4 6.7-4.4 10.5-11.8 13.4-19 8.3 4.1 16.5 8.5 24.7 12.9-3.8 10.5-10.8 19.8-19.8 26.4-21.5 15.9-54 14.6-73.8-3.7-12.8-11.2-19.3-28.2-20.4-45v-7.9c0.8-7.9 2.1-15.9 5.4-23.2 5-12 13.8-22.5 25.2-28.9z"/>
	<path class="st1" d="m261.9 32.8c13.7-8.4 30.5-8.9 46.1-7.9 11.8 1.2 24.5 4.1 32.9 13 5.9 6 7.2 14.9 7.3 23 0.1 24 0.1 87.6 0.1 87.6h-29.6s0.2-6 0-9c-10.6 7.6-23.5 12.3-36.7 11.9-13.5 0-27.9-5.2-36-16.5-9.2-12.5-8.7-30.9 0.8-43.1 6.5-8.8 17-13.4 27.3-16 15.1-3.4 30.6-5.7 45.4-10.7-0.2-5.2-1.2-10.9-5.5-14.2-5.7-4.3-13.3-4.4-20.1-3.8-6.2 0.6-12.9 2.7-16.8 7.9-2.3 2.8-2.6 6.5-2.6 9.9-9.8 0-19.6-1-29.4-1.4 0-12.1 6.2-24.3 16.8-30.7m28.6 63.6c-5.9 1-12.1 2.3-16.6 6.5-6.1 5.5-5.1 17 2.3 20.9 8.4 4.4 18.6 3.7 27.3 0.7 7.4-2.5 14.6-8.2 15.6-16.4 0.6-6.3 0.3-12.8 0.2-19.2-9.1 4-18.9 6-28.8 7.5z"/>
	<path class="st1" d="m514 37c11.1-8.3 25.1-12.7 39-12.4 17 0.1 33.8 7.6 45.4 19.9 9.5 9.9 15.7 22.9 17.2 36.5 2.5 19.5-4.7 40-19 53.6-10.9 10.9-25.9 17.2-41.2 18.4h-6.9c-4.4-0.5-8.8-1.1-13.1-2.2-18.1-4.7-33.7-17.8-41.6-34.7-5.4-11.7-7.3-25-5.2-37.7 2.6-16.4 11.9-31.6 25.4-41.4z"/>
	<path class="st1" d="m470.4 29.4c6.9-3.1 14.5-4 22-3.8 0.1 9.8 0.1 19.7 0 29.5-10.9 0-22.6 2.6-30.2 11.1-6.5 6.9-8 16.7-8.2 25.8-0.1 18.9 0.1 37.8-0.1 56.7-9.3-0.1-18.6-0.1-27.8 0-0.3-40.2-0.2-80.3-0.1-120.5h27.9c0.2 5.4 0 10.8 0.1 16.2 4.2-6.1 9.3-12.1 16.4-15z"/>
	<path class="st1" d="m119 26.8c10.1-0.1 20.2 0 30.3 0 0.1 20.4 0 40.8 0.1 61.2 0.1 5.3-0.4 10.6 1 15.8 1.8 7.5 6.4 14.8 13.4 18.4 6.1 3.3 19.9 3 25.8-0.6 8.7-5.2 13.2-15.6 13.3-25.5 0.1-23.1 0-46.2 0-69.2 10.1-0.1 20.2-0.1 30.3 0 0.1 22.4 0 44.8 0 67.2 0.1 16.2-6.4 32.7-18.6 43.7-9 8.6-22.2 13.7-34.6 14.3-14.5 0.5-34.1-5.4-44.1-15.9-11.1-11-16.8-26.6-16.9-42-0.1-22.6 0-45 0-67.4z"/>
<path class="st1" d="m358.7 6h29.8v21.9l25.4 0.3v26.4h-25.4s-1.6 63.4 0 67.2c3 7.1 25.4 3.3 25.4 3.3v23.7s-30.3 5.5-44.2-3c-10.9-6-10.7-19.9-11-30.7 0.1-36.3 0-109.1 0-109.1z"/></g>
</svg>
