<svg width="800" height="265.66" version="1.1" viewBox="0 0 800 265.66" xmlns="http://www.w3.org/2000/svg">
 <defs>
  <linearGradient id="linear-gradient" x1="167.02" x2="494.11" y1="285.87" y2="614.24" gradientTransform="matrix(.57619 0 0 .57619 -57.61 -126.46)" gradientUnits="userSpaceOnUse">
   <stop stop-color="#ecc334" offset="0"/>
   <stop stop-color="#eb8b4c" offset="1"/>
  </linearGradient>
 </defs>
 <g transform="matrix(.57619 0 0 .57619 -57.61 -126.46)">
  <path d="m1453.1 368.5h35.292v109.72c0 21.074-13.719 42.352-35.292 49.266v47.117h-35.303v-47.101c-21.915-7.9758-34.913-28.209-34.913-49.283v-109.72h34.913v109.72c0 8.9213 8.1475 17.285 17.842 17.285 9.6958 0 17.46-8.3638 17.46-17.285v-109.72z"/>
  <path d="m680.88 527.14c-29.082 0-52.742-23.645-52.742-52.72v-105.87c0-29.067 23.66-53.122 52.742-53.122 29.075 0 52.72 24.055 52.72 53.122h-35.271c0-9.699-7.7499-17.829-17.45-17.829-9.6913 0-17.836 8.1296-17.836 17.829v105.87c0 9.692 8.1446 17.427 17.836 17.427 9.6998 0 17.45-7.7351 17.45-17.427h35.271c0 29.075-23.645 52.72-52.72 52.72z"/>
  <path d="m802.25 527.84c-29.469 0-53.13-21.355-53.13-48.003v-111.4h35.301v111.4c0 8.7664 7.7429 16.137 17.829 16.137 9.6843 0 17.442-7.3709 17.442-16.137v-111.4h35.286v111.4c0 26.648-23.646 48.003-52.728 48.003z"/>
  <rect x="953.85" y="368.56" width="34.906" height="157.99"/>
  <path d="m905.18 378.36v-9.7976h-34.884v157.99h34.884l-0.17472-103.24c-0.0528-21.738 35.65-23.383 35.65-23.383v-31.601s-25.268 2.4267-35.476 10.033z"/>
  <path d="m1058.5 527.84c-29.074 0-52.72-21.385-52.72-48.079v-63.822c0-26.311 23.646-47.712 52.72-47.712 29.082 0 52.743 21.401 52.743 47.712v63.822c0 26.694-23.66 48.079-52.743 48.079zm0-127.7c-9.6842 0-17.45 7.0378-17.45 15.8v63.822c0 8.7819 7.7655 16.168 17.45 16.168 9.699 0 17.434-7.3865 17.434-16.168v-63.822c0-8.7625-7.7352-15.8-17.434-15.8z"/>
  <path d="m1179.9 432.42c29.09 0 52.736 21.401 52.736 47.715 0 26.649-23.646 48.064-52.736 48.064-29.469 0-53.114-21.416-53.114-48.064h35.293c0 9.1306 7.7506 16.123 17.821 16.123 9.7068 0 17.442-6.992 17.442-16.123 0-8.7664-7.7352-15.789-17.821-15.789-29.09 0-52.735-21.416-52.735-47.715 0-26.659 23.645-48.06 53.114-48.06 29.09 0 52.736 21.401 52.736 48.06h-35.294c0-9.1189-7.7352-16.126-17.442-16.126-10.07 0-17.821 7.0068-17.821 16.126 0 8.7664 7.7506 15.789 17.821 15.789z"/>
  <rect x="1246.2" y="368.41" width="34.914" height="158.14"/>
  <path d="m1350.5 491.16h17.457v35.369h-17.457c-29.09 0-52.72-23.721-52.72-52.887v-158.98h34.899v53.744l35.278 0.045v34.444h-35.278v70.749c0 9.7371 8.1444 17.518 17.821 17.518z"/>
  <path d="m630.35 592.52v-0.3846c0-10.362 7.1329-17.59 16.722-17.59 7.9039 0 14.024 3.951 14.795 12.048h-6.5053c-0.72323-4.5795-3.2775-6.9396-8.2407-6.9396-6.0729 0-10.024 4.7221-10.024 12.433v0.38647c0 7.7576 3.7109 12.337 10.072 12.337 4.7709 0 8.145-2.4108 8.8195-7.2773h6.2652c-1.0122 8.2885-6.8918 12.482-15.085 12.482-10.795 0-16.819-6.8909-16.819-17.494z"/>
  <path d="m699.12 575.07h6.4096v14.65h15.469v-14.65h6.4575v34.458h-6.4575v-14.65h-15.469v14.65h-6.4096z"/>
  <path d="m775.49 575.07h8.3852l11.373 34.458h-6.6498l-2.7475-8.5306h-13.156l-2.6988 8.5306h-6.0241zm-1.3011 21.254h10.168l-5.0607-16.001z"/>
  <path d="m831.82 575.07h7.6638l14.506 24.916v-24.916h5.8309v34.458h-6.6507l-15.517-26.41v26.41h-5.8328v-34.458z"/>
  <path d="m899.04 575.07h7.6638l14.506 24.916v-24.916h5.8309v34.458h-6.6507l-15.517-26.41v26.41h-5.8328v-34.458z"/>
  <path d="m966.26 575.07h21.543v5.0617h-15.132v9.4442h12.144v4.8197h-12.144v10.073h15.95v5.0598h-22.361v-34.458z"/>
  <path d="m1025.7 575.07h6.4106v29.349h14.697v5.1086h-21.108v-34.458z"/>
 </g>
 <path d="m132.83 3.5352e-6c-73.361 0-132.83 59.471-132.83 132.83 0 73.361 59.471 132.83 132.83 132.83s132.83-59.471 132.83-132.83c0-73.361-59.471-132.83-132.83-132.83z" fill="url(#linear-gradient)" stroke-width=".5762"/>
 <path d="m133.01 224.26c-7.3145 0-13.243-5.9184-13.243-13.233s5.9287-13.233 13.243-13.233 13.241 5.9184 13.241 13.233-5.9265 13.233-13.241 13.233zm36.18-91.514c0 14.471-9.4206 29.082-24.234 33.829v20.296h-24.241v-20.285c-15.048-5.4766-23.973-19.37-23.973-33.84v-75.341h23.973v75.341c0 6.1258 5.5944 11.869 12.251 11.869 6.6578 0 11.989-5.743 11.989-11.869v-75.341h24.234z" fill="#fff" stroke-width=".5762"/>
</svg>
