<svg version="1.1" viewBox="0 0 775.56 800" xmlns="http://www.w3.org/2000/svg">
 <path d="m446.95 145.07 0.46179 6.597-1.2534 88.268-5.9374 82.067-8.1143 53.106-4.6839 14.645-13.524 13.854c120-11.55 213.22-97.108 213.22-201.08 0-11.052-1.271-21.824-3.2985-32.391-1.2124-0.88772-2.5979-2.07-3.6944-2.7708-3.9391-2.5174-8.3468-4.3116-12.798-5.7394-3.5368-1.1344-7.1586-1.9696-10.819-2.6388-3.6606-0.6692-7.3519-1.1795-11.017-1.7812-15.583-2.5581-31.254-4.4071-46.971-5.9373-15.078-1.468-30.205-2.7812-45.322-3.8263s-30.247-1.845-45.388-2.3749c-0.28569-0.0103-0.57207 0.0104-0.85767 0zm-298.52 26.586c2.6-2.1741 5.2834-4.2762 8.1803-6.0693 3.366-2.0834 6.8972-3.8429 10.555-5.2776 4.3978-1.7248 9.0374-2.733 13.722-3.4964 4.6844-0.76342 9.3857-1.3074 14.052-2.0451 10.205-1.6134 20.479-3.0667 30.742-4.2881s20.506-2.1862 30.808-2.9687c12.988-0.98651 26.03-1.5498 39.054-1.9131 13.024-0.36331 26.03-0.51769 39.054-0.72567 18.863-0.30123 37.734-0.62519 56.603-0.65971 18.583-0.034 37.176 0.22125 55.745 0.85762l-4.5519-67.026-7.1908-41.232s-1.5826-5.4712-4.0242-12.073c-1.2208-3.3007-2.6804-6.9087-4.2221-10.225-1.5417-3.3168-3.1462-6.3329-4.8158-8.5762-0.92163-1.2382-2.4439-2.6291-3.7603-3.9582-10.54-1.1844-21.202-1.9791-32.128-1.9791-120.53 0-220.1 74.494-237.82 171.65z" fill="#b91315"/>
 <g transform="matrix(4.0698 0 0 4.0698 -247.29 -461.88)">
  <g transform="matrix(1.323 0 0 1.323 9.0559 -44.891)" fill="#b91315">
   <path d="m54.654 233.81c0.75139 0 1.5214-0.16618 2.2542 0 0.5992 0.13589 1.1451 0.46437 1.6629 0.79514 0.70043 0.44745 1.9216 1.589 1.9216 1.589l6.4668-4.9887s-1.8285-1.3042-2.8085-1.8477c-0.87728-0.48646-1.7861-0.92977-2.7346-1.2564-1.3405-0.46166-2.7306-0.81607-4.1388-0.98062-1.4192-0.16583-2.8623-0.11384-4.2866 0-1.3556 0.10835-2.7184 0.28111-4.0279 0.64803-1.0374 0.29069-2.0478 0.70291-2.9932 1.2195-0.71377 0.38997-1.373 0.88069-1.9955 1.4042-0.70656 0.59429-1.356 1.2589-1.9585 1.9585-0.68968 0.80085-1.2247 1.6462-1.6756 2.602-0.60666 1.2862-1.2437 4.0865-1.2437 4.0865s-0.0306 3.0107 6e-3 5.1171c0.0162 0.9204 0.43809 3.0193 0.69578 3.8996 0.2145 0.73276 0.5806 1.4073 0.96078 2.0694 0.47779 0.83211 0.99594 1.5643 1.6629 2.2542 0.58135 0.60125 1.1851 1.1818 1.8107 1.7368 0.5958 0.52858 1.1719 1.0935 1.8477 1.5151 0.80437 0.50183 1.6864 0.88554 2.5867 1.1825 0.94458 0.31155 1.9301 0.51394 2.9193 0.6174 1.1638 0.12172 2.3404 0 3.5106 0 0.84993 0 1.7041 0.085 2.5498 0 1.2756-0.12819 2.5572-0.34738 3.7692-0.76521 1.0416-0.35906 2.0054-0.92162 2.9563-1.4781 0.7961-0.46595 2.2911-1.552 2.2911-1.552l-5.7278-5.0626s-1.2725 1.097-1.9955 1.5151c-0.6018 0.34798-1.2402 0.67261-1.9216 0.81041-0.92965 0.18802-1.9036 0.11247-2.8454 0-0.93128-0.11122-1.9041-0.22676-2.7346-0.66259-0.81883-0.42972-1.4799-1.1352-2.0694-1.8477-0.68676-0.8301-1.3753-1.7332-1.6629-2.7715-0.57541-2.0774-0.45634-4.3601 0-6.4668 0.15754-0.72732 0.5281-1.4022 0.92383-2.0324 0.46043-0.73328 0.96966-1.4767 1.6629-1.9955 0.88132-0.65947 1.9524-1.0891 3.0302-1.3125 0.43421-0.09 0.88688 0 1.3303 0z"/>
   <path d="m68.918 227.12h9.6818l7.5385 18.275 7.3537-18.275h9.497l-15.834 35.746s-0.84777 1.3006-1.3588 1.8814c-0.50473 0.57367-1.0871 1.0765-1.6723 1.5678-0.40027 0.336-0.79539 0.69054-1.2542 0.94068-0.88076 0.48013-2.822 1.0452-2.822 1.0452h-6.5848v-6.637l3.5537 0.0523s1.0973-0.43744 1.5678-0.7839c0.48612-0.35797 0.92603-0.79982 1.2542-1.3065 0.42912-0.66246 0.6213-1.4522 0.88842-2.1949 0.23493-0.65322 0.62712-1.9859 0.62712-1.9859l-12.436-28.325z"/>
   <path d="m107.9 216.46h9.041v32.14s0.18367 1.2014 0.57486 1.6201c0.38883 0.41618 1.5678 0.67938 1.5678 0.67938h4.1285v6.5325h-6.2712s-1.5883-0.31321-2.3517-0.57486c-0.68601-0.23513-1.45-0.3391-2.0904-0.67938-0.67019-0.35611-1.2983-0.71623-1.8814-1.202-0.59691-0.49726-1.1717-1.1424-1.6201-1.7768-0.46775-0.66196-1.0452-2.2994-1.0452-2.2994l-0.0522-34.439z"/>
  </g>
  <path d="m206.01 255.66h12.75l9.955 24.252 9.7098-24.252h12.897l-18.488 40.224h-8.3857zm-29.784 1.9418h5.0627v-11.929h12.206v11.929h8.0448v6.9352h-8.0448v22.678h8.0448v8.669h-8.0448s-2.8624-0.44639-4.2305-0.90157c-0.94218-0.31348-1.8487-0.74515-2.7047-1.2483-0.91284-0.53657-1.82-1.1211-2.566-1.8725-0.64185-0.6465-1.1377-1.4314-1.5951-2.2193-0.44666-0.76938-1.1096-2.4273-1.1096-2.4273v-22.678h-5.0627z" fill="#fff"/>
 </g>
</svg>
