<svg width="449.04pt" height="600pt" version="1.1" viewBox="0 0 449.04 600" xmlns="http://www.w3.org/2000/svg">
 <g transform="matrix(4.8368 0 0 4.8368 -2.7844 -5.103)" fill="#fff" stroke="#000" stroke-width="9.75">
  <g fill="#fff" stroke="#000" stroke-width="9.75">
   <path transform="scale(.75)" d="m115.21 1.4082c-2.0042-0.026991-3.4737 0.32182-5.0762 0.66211l2e-3 -0.00195-37.904 8.0371-0.04492 0.0098c-1.9878 0.45073-4.7958 1.0784-7.5645 2.1992-1.3843 0.5604-2.787 1.1643-4.3535 2.5527-1.1635 1.0312-2.5618 3.227-2.8379 5.668-1.5071-2.205-3.1868-4.2643-4.9863-6.1465l-0.03125-0.03516-0.03125-0.03125c-8.06-8.1973-19.249-10.307-30.588-7.9786-0.14752-0.13149-0.26013-0.3325-0.41016-0.45508-1.871-1.5287-4.0945-2.5582-6.8535-2.6914-2.759-0.13318-6.289 1.1464-8.3516 3.8105-1.3503 1.7441-1.9046 3.7646-2.1875 5.8652-0.73013 0.96052-1.3199 1.9762-1.6504 2.8848-0.75585 2.0779-0.91229 3.9977-0.76172 5.9219 0.15058 1.9241 0.45378 3.869 2.1484 6.1035 0.23405 0.30862 0.61067 0.61464 0.92773 0.92578l4.2598 58.926c-0.81765 0.53501-1.6002 1.1098-2.3379 1.7324-3.1511 2.6593-5.8105 6.4651-5.8105 11.227 2e-8 2.2699 1.0779 5.2565 3.125 6.9609s4.1698 2.0541 5.791 2.1602c3.2425 0.21212 5.6742-0.47309 7.8672-0.92773l10.338-2.1426 2.5898 33.473c0.54438 7.0344 1.6916 11.439 3.2031 16.473l0.03711 0.12305 0.04102 0.12305c0.93182 2.7085 2.2634 5.339 4.7246 7.3125 2.4612 1.9734 5.6247 2.6582 8.248 2.6582 2.41 0 5.4198-1.1536 7.1211-3.1738s2.0942-4.1068 2.2402-5.6875c0.29206-3.1614-0.32601-5.5096-0.43945-6.4219l-0.01953-0.15821-0.02734-0.15625c-0.90705-5.1985-1.784-7.4606-2.1113-13.213l-2e-3 -0.0371-2.5059-36.918 0.91016-0.25782c0.07811 0.3504 0.16441 0.69543 0.26758 1.0274 4.653 15.261 8.8281 32.624 10.238 49.426v0.0215l2e-3 0.0215c0.13015 1.4403 0.12445 3.7304 0.88086 6.5039 0.37821 1.3868 0.94918 3.034 2.457 4.6875 1.5078 1.6535 4.2532 2.9219 6.6699 2.9219 5.211 0 9.4867-3.3407 11.764-6.4941 2.277-3.1534 3.5506-6.3641 4.8164-8.9453l0.06836-0.14062 22.492-51.959 0.0703-0.19141c0.78379-2.1745 1.9456-5.4506 2.6543-8.7188 0.35435-1.6341 0.67856-3.1846 0.49609-5.3359-0.0912-1.0757-0.26323-2.4204-1.3359-4.0625-1.0718-1.6407-3.5817-3.2002-5.6914-3.3574-4.7188-0.35488-9.4156 2.5595-11.639 5.6484-2.2061 3.0653-3.3265 6.1698-4.7402 9.3457l-12.336 25.398c-1.343-4.8186-2.7514-9.4734-4.2539-13.889 3.1973-0.73455 5.2954-3.3556 6.334-5.4902l-0.08203 0.16211c13.825-26.497 30.612-59.742 40.562-74.264l0.0566-0.08008 0.0527-0.08203c2.1612-3.3664 2.8367-7.0289 2.8496-10.32v-0.04102c-6e-3 -2.2799-0.0238-4.542-1.7363-7.1797s-5.4048-3.9586-7.6055-3.9883zm-85.959 24.105c1.2363-0.06293 2.4272 0.07947 3.5293 0.39062 4.1139 1.9006 8.3672 8.7967 10.094 15.66l0.0156 0.05468c0.49477 1.8969 0.56225 2.7592 0.22656 4.4297-0.94084 4.1367-3.4121 8.2712-6.6426 11.176l-8.2734 6.7305-1.9922-37.658c0.6071-0.1802 1.1877-0.5527 1.793-0.65039 0.42079-0.06792 0.8379-0.11184 1.25-0.13281zm33.369 5.3535c1.1397 0.95546 2.3911 1.7462 3.7285 2.2773 4.0724 1.6174 8.3297 1.4399 12.516 0.49219l-0.10547 0.023437 10.047-2.0996-21.369 43.82c-2.4271-0.79948-5.1819-1.1041-8.1523-0.73047l-0.04102 0.0059-0.04297 0.0059c-5.26 0.73009-9.9062 1.5411-14.207 2.3945l5.9961-5.5742c3.9211-3.5114 7.6874-7.043 10.285-12.129 2.5926-5.0759 3.6315-11.272 3.1523-19.086-0.17153-3.2672-0.81026-6.4103-1.8066-9.4004z" color="#000000" color-rendering="auto" dominant-baseline="auto" fill="#fff" image-rendering="auto" shape-rendering="auto" solid-color="#000000" stroke="none" style="font-feature-settings:normal;font-variant-alternates:normal;font-variant-caps:normal;font-variant-ligatures:normal;font-variant-numeric:normal;font-variant-position:normal;isolation:auto;mix-blend-mode:normal;shape-padding:0;text-decoration-color:#000000;text-decoration-line:none;text-decoration-style:solid;text-indent:0;text-orientation:mixed;text-transform:none;white-space:normal"/>
  </g>
 </g>
 <g transform="matrix(4.8368 0 0 4.8368 -2.7844 -5.103)">
  <path transform="scale(.75)" d="m115.12 7.9082c-0.94489-0.012725-2.1441 0.20216-3.6387 0.51953l-37.859 8.0273c-3.8386 0.87039-10.412 2.4917-9.7441 4.9844 1.6202 5.7765 6.8451 7.3752 13.549 5.8574l17.521-3.6602c2.6723-0.57082 5.3732-1.3808 3.7461 2.4707l-27.484 56.359c-2.1279 4.0949-1.8609 6.8343-1.6263 9.7324 0.10846 1.9939 2.0384 4.2112 3.5124 4.1925 0.7482-0.04264 1.4897-0.63924 2.1686-2.0347 13.786-26.421 30.362-59.457 40.965-74.931 1.2987-2.023 1.811-4.4602 1.8203-6.834-9e-3 -3.5298-0.85092-4.6556-2.9297-4.6836zm-55.027 73.191c-17.661 2.4513-28.559 5.7202-40.439 8.9228-7.18 1.8479-12.389 6.127-12.389 10.572 0 3.6797 4.5853 2.7369 8.964 1.8291l17.567-3.6421 3.1601 40.834c0.51027 6.5936 1.4633 10.163 2.9473 15.105 1.4342 4.1688 3.342 5.5859 6.8262 5.5859 4.0664 0 2.8145-5.2304 2.4725-7.9812-0.83013-4.7577-1.8381-7.6331-2.1982-13.961l-2.8602-42.138 21.832-6.1943c2.3141-0.67884 3.4021-1.8696 3.4915-3.3796 0.13659-2.309-1.9149-6.4912-9.3739-5.553z" fill="#000e3b" stroke-width="1.3333"/>
  <g fill="#fe0047">
   <path d="m7.6549 11.961c-0.32249-7.1727 6.1798-4.7454 6.4907-1.8001 8.5955-2.7957 16.031-1.7304 21.664 3.9987 4.2039 4.3969 7.3294 10.188 7.6461 16.312 0.66066 10.65-2.7454 14.385-8.4661 19.508l-18.07 16.8c-0.8489 0.66169-4.4224 0.62166-5.29-0.31l-3.4843-48.195c-2.4608 1.1334-2.9769-5.4189-0.49078-6.3136zm6.9451 4.4887 2.1163 39.959c0.02541 0.9971 0.64034 0.95977 1.3423 0.35876l12.531-10.198c3.2049-2.8711 5.5879-6.8149 6.5268-11.023 0.41426-2.0295 0.25561-3.6921-0.2323-5.5627-1.5395-6.1201-5.0363-12.888-10.624-15.194-3.9-1.23-8.17-0.36-11.66 1.66z"/>
   <path d="m80.45 62c1.9455 0.14286-0.18631 6.4552-1.3174 9.5932l-16.764 38.724c-2.0604 4.2015-3.7525 8.8526-8.0585 8.8526-2.4122 0-2.4188-3.5908-2.65-6.15-1.1016-13.126-4.3246-26.453-7.88-38.11-0.55836-1.7964 0.03473-2.9507 1.3101-3.5438 2.7915-1.013 4.4821 1.9902 5.4418 4.5533 2.751 7.5279 5.1502 16.335 7.3081 25.631l15.111-31.113c2.2369-5.0086 3.4989-8.7439 7.4982-8.4369z"/>
  </g>
 </g>
</svg>
