<svg width="800" height="475.33" data-name="Layer 1" version="1.1" viewBox="0 0 800 475.33" xmlns="http://www.w3.org/2000/svg">
 <g transform="matrix(.73544 0 0 .73544 -188.35 -93.284)">
  <path class="cls-1" d="m671.91 274.71v-147.22c-7.13-0.38-14.33-0.65-21.67-0.65h-204.18v509.41h204.18c70 0 130.78-17.8 177.4-50.63v-310.91z"/>
  <path class="cls-1" d="m671.91 126.84v0.65c151.16 8.21 254.5 102.65 254.5 254.05 0 90.43-36.89 160.51-98.77 204.08v50.63h168.9v-361.54h155.72v-147.87z"/>
  <path class="cls-1" d="m294.53 675.58c29.86 0 51.47 19.52 51.47 47.42 0 28.36-21.59 48-51.45 48h-38.44v-95.42zm0 74.13c15.42 0 27.34-11.51 27.34-26.67 0-14.75-11.92-26.12-27.34-26.12h-14.72v52.79z"/>
  <path class="cls-1" d="m429 771.05h-22.72v-3.79a33.92 33.92 0 0 1-18.65 5.19c-18.37 0-33.79-15.3-33.79-35.52s15.42-35.52 33.79-35.52a33.92 33.92 0 0 1 18.65 5.2v-3.61h22.72zm-22.71-23.59v-21.06a17.6 17.6 0 0 0-14.17-6.4c-9.26 0-16 7.58-16 17s6.72 16.85 16 16.85a17.43 17.43 0 0 0 14.16-6.39z"/>
  <path class="cls-1" d="m514.94 732.16v38.89h-22.85v-35.24c0-9.69-4.91-14.32-12.34-14.32-4.2 0-8.69 2.39-12.62 6.88v42.68h-22.71v-68.05h22.71v4.63a29.09 29.09 0 0 1 18.79-6.74c17.25-0.04 29.02 11.9 29.02 31.27z"/>
  <path class="cls-1" d="m576.08 743.11h21.45c-1.54 17.55-16 29.48-34.77 29.48-21.45 0-37.16-14.88-37.16-35.66 0-20.63 15.71-35.52 37.16-35.52 18.79 0 33.23 11.94 34.77 29.49h-21.45c-1.12-6.18-6.31-10.25-13.32-10.25-9.68 0-15.56 7-15.56 16.28s5.88 16.43 15.56 16.43c7.01 0 12.24-4.07 13.32-10.25z"/>
  <path class="cls-1" d="m677.45 743.25 0.14 0.42h-48.51c1.82 6.18 6.59 11 15.28 11 4.77 0 8.41-1.82 10.38-4.91h22.43c-3.22 14-16.26 22.88-33.09 22.88-22.29 0-37.15-14.88-37.15-35.66 0-20.63 14.44-35.52 36.17-35.52 19.77 0 34.77 13.62 34.77 34.12a47.59 47.59 0 0 1-0.42 7.67zm-48.65-12.91h27.76c-1.26-7.44-6.17-11.34-13.46-11.34-7.71 0-12.62 4.46-14.3 11.34z"/>
  <path class="cls-1" d="m738.58 696.78v74.27h-23.69v-74.27h-30.43v-21.2h84.41v21.2z"/>
  <path class="cls-1" d="m832.25 743.25 0.14 0.42h-48.52c1.83 6.18 6.59 11 15.29 11 4.76 0 8.41-1.82 10.37-4.91h22.47c-3.23 14-16.27 22.88-33.09 22.88-22.3 0-37.16-14.88-37.16-35.66 0-20.63 14.44-35.52 36.17-35.52 19.78 0 34.78 13.62 34.78 34.12a47.59 47.59 0 0 1-0.45 7.67zm-48.66-12.91h27.77c-1.27-7.44-6.17-11.38-13.47-11.38-7.71 0.04-12.61 4.5-14.3 11.38z"/>
  <path class="cls-1" d="m867.44 771.05h-22.71v-99.68h22.71z"/>
  <path class="cls-1" d="m950 743.25 0.14 0.42h-48.48c1.82 6.18 6.59 11 15.28 11 4.77 0 8.41-1.82 10.37-4.91h22.44c-3.23 14-16.27 22.88-33.09 22.88-22.3 0-37.16-14.88-37.16-35.66 0-20.63 14.45-35.52 36.18-35.52 19.77 0 34.77 13.62 34.77 34.12a47.59 47.59 0 0 1-0.45 7.67zm-48.65-12.91h27.76c-1.23-7.44-6.11-11.34-13.43-11.34-7.68 0-12.62 4.46-14.3 11.34z"/>
  <path class="cls-1" d="m1002 771.05h-21.59l-29.46-68.05h24l16.26 39.31 16.26-39.31h24z"/>
  <path class="cls-1" d="m1039.1 679.51c0-7.44 5.89-12.91 13.32-12.91s13.32 5.47 13.32 12.91-6 12.78-13.32 12.78-13.32-5.48-13.32-12.78zm24.81 91.54h-22.71v-68.05h22.71z"/>
  <path class="cls-1" d="m1095.3 747.74c1 5.9 5.89 8.57 13 8.57 6 0 9.68-1.83 9.68-4.77 0-2.25-2.11-4.08-6.6-4.78l-13.73-2.39c-11.78-2-19.91-8.56-19.91-20.49 0-14.32 12.19-22.75 30.28-22.75 14.44 0 30.85 5.62 31.83 23.59h-20.19c-0.42-5.19-5.19-7.58-11.5-7.58-5.89 0-8.55 2.24-8.55 4.91 0 2.25 1.68 4.35 7 5.34l12.76 2.1c12.76 2.39 21.17 8.57 21.17 20.64 0 15.73-14.16 23-31.83 23s-32.25-7.45-33.65-25.55z"/>
  <path class="cls-1" d="m1151.2 679.51c0-7.44 5.89-12.91 13.32-12.91s13.32 5.47 13.32 12.91-6 12.78-13.32 12.78-13.32-5.48-13.32-12.78zm24.81 91.54h-22.71v-68.05h22.71z"/>
  <path class="cls-1" d="m1262.1 736.93c0 20.78-15.42 36.23-36.87 36.23s-36.88-15.45-36.88-36.23c0-20.49 15.43-35.52 36.88-35.52s36.87 15.03 36.87 35.52zm-21.45 0.15c0-8.85-6.17-16-15.28-16s-15.42 7.16-15.42 16c0 9.12 6.17 16.42 15.42 16.42s15.28-7.3 15.28-16.42z"/>
  <path class="cls-1" d="m1343.9 732.16v38.89h-22.89v-35.24c0-9.69-4.9-14.32-12.33-14.32-4.21 0-8.7 2.39-12.62 6.88v42.68h-22.72v-68.05h22.72v4.63a29.09 29.09 0 0 1 18.79-6.74c17.27-0.04 29.05 11.9 29.05 31.27z"/>
 </g>
</svg>
