<svg width="800" height="340.43" version="1.1" viewBox="0 0 800 340.43" xmlns="http://www.w3.org/2000/svg">
 <g transform="matrix(3.4043 0 0 3.4043 0 7.1094e-6)" fill="#d00a11" fill-rule="evenodd">
  <g fill="#d00a11" fill-rule="nonzero">
   <polygon points="197.04 62.142 180.69 62.142 180.69 0 197.04 0 197.04 21.995 214.88 0 233.41 0 212.36 25.138 234.1 62.142 216.44 62.142 202.23 36.655 197.04 42.672"/>
   <polygon points="69.712 62.142 52.946 62.142 75.37 0 87.055 0 109.48 62.142 92.713 62.142 89.864 52.891 72.74 52.891"/>
   <path d="m27.415 15.249c-1.6239-1.1718-3.6003-1.7496-5.5985-1.6366h-5.8774v34.04h6.6743c1.7013 0.0867 3.3652-0.51983 4.613-1.6815 1.2478-1.1617 1.9734-2.7797 2.0115-4.4858v-21.406c0.06362-1.7898-0.59324-3.5302-1.823-4.8301zm12.064 40.776c-4.2437 4.2812-10.211 6.1074-16.566 6.1074h-22.912v-62.132h22.912c6.4054 0 12.372 1.8362 16.616 6.1074 7.1923 7.2451 6.4054 15.189 6.4054 24.949 0 9.7599 0.78697 17.724-6.4054 24.949z"/>
   <path d="m152.17 62.132-10.908-23.122h-5.1004v23.122h-16.536v-62.132h25.811c13.677 0 21.039 9.7699 21.039 19.959 0.0627 6.9165-3.8639 13.248-10.081 16.257l13.339 25.947z"/>
   <path d="m163.84 65.766c7.6189 0 11.72 5.3805 11.72 10.992 0.0349 3.8091-2.1524 7.2962-5.6157 8.9529l7.4302 14.289-9.783-0.016488-6.0762-12.734h-2.8411v12.734h-9.2115v-34.218zm56.947 0c2.1518 0 4.103 0.35967 5.8533 1.079 1.7504 0.71934 3.2438 1.7902 4.4803 3.2125s2.192 3.2044 2.8664 5.346c0.67446 2.1417 1.0117 4.6349 1.0117 7.4795 0 2.8447-0.33723 5.3379-1.0117 7.4795-0.67445 2.1417-1.6299 3.9237-2.8664 5.346s-2.7299 2.4932-4.4803 3.2125c-1.7504 0.71934-3.7015 1.079-5.8533 1.079h-11.899v-34.234zm-16.401 0v7.9752h-14.283v6.4444h5.1427v5.3985h-5.1427v6.3119h14.283v8.1043h-23.41v-34.234zm17.261 7.708h-3.5255v18.919h3.5255c1.3681 0 2.4731-0.6205 3.315-1.8615 0.84192-1.241 1.2629-3.0645 1.2629-5.4705v-4.2549c0-2.406-0.42096-4.2295-1.2629-5.4705-0.84191-1.241-1.9469-1.8615-3.315-1.8615z"/>
  </g>
 </g>
</svg>
