<svg width="1731.4pt" height="461.89pt" version="1.1" viewBox="0 0 1731.4 461.89" xmlns="http://www.w3.org/2000/svg">
 <g transform="translate(-33.25,-20.86)">
  <path d="m33.25 20.88h179.78c31.7 0.2 63.93 7.98 90.54 25.66 25.24 16.47 44.43 41.32 55.8 69.09 10.49 25.38 15 52.99 14.76 80.38v84.02c-0.04 11.64 0.2 23.3-0.57 34.94-1.76 28.99-7.56 58.1-20.12 84.44-12.06 25.57-31.4 47.95-56.07 62.04-26.34 15.32-57.19 21.145-87.39 21.295h-176.73v-461.86m118.01 97.5v256.86h46.7c12.73-0.22 26.15-2.81 36.29-10.99 9.06-7.22 14.145-18.77 14.255-30.26v-167.97c0.63-11.55-4.675-22.69-12.275-31.12-9.6-10.69-23.97-16.39-38.21-16.52z"/>
  <path d="m423.3 482.74 167.38-461.85h85.97l167.32 461.85h-123.41l-25.51-71.61h-122.27l-24.96 71.61z"/>
  <path d="m916.54 482.74v-461.88h186.5c21.98 0.32 44.25 2.06 65.29 8.85 15.05 4.81 29.09 12.67 41.08 22.95 14.26 12.23 26.67 26.77 35.69 43.29 9.22 16.77 14.7 35.48 16.63 54.48 3.55 33.42-3 68.87-22.87 96.48-12.61 17.76-30.54 31.32-50.35 40.15l103.84 195.68h-134.08l-81.5-174.1h-35.905v174.1z"/>
  <path d="m1368 20.885h118.86v162.36l131.14-162.36h138.79l-154.79 183.96 162.63 277.9h-132.44l-106.7-189.94-38.625 44.51v145.44h-118.88z"/>
 </g>
</svg>
