<svg width="577.32" height="800" version="1.0" viewBox="0 0 577.32 800" xmlns="http://www.w3.org/2000/svg">
 <path d="m288.69 6.134e-7c-159.34 0-288.69 129.35-288.69 288.69s129.35 288.63 288.69 288.63 288.63-129.29 288.63-288.63-129.29-288.69-288.63-288.69zm114.43 113.92v288.42l-194.64 67.893v-214.51l-96.742 33.85v-71.034l291.38-104.63z" fill="#001a4b" fill-rule="evenodd" stroke-width="2.0515"/>
 <g transform="matrix(.82474 0 0 .82474 91.39 567.91)" fill="#001a4b">
  <path d="m191.08 280.3v-81.508h-79.561v81.508h-36.164v-187.77h36.164v75.11h79.561v-75.11h36.164v187.77z" style="white-space:pre"/>
  <path d="m364.08 185.99q0-15.022-3.3382-26.984-3.06-11.962-10.015-20.307-6.9546-8.3455-18.082-12.518-11.127-4.451-27.262-4.451-6.3982 0-11.962 0.27818-5.5637 0-10.015 0.55637v126.57q3.8946 0.55637 8.9019 1.1127 5.2855 0.27818 10.849 0.27818 13.353 0 24.48-3.6164 11.127-3.8946 19.195-11.684 8.0674-8.0674 12.518-20.307 4.7291-12.24 4.7291-28.931zm38.946-2.7818q0 24.202-7.511 42.562t-21.42 30.878q-13.631 12.24-32.826 18.638-18.917 6.1201-41.728 6.1201-14.744 0-27.54-0.55637-12.796-0.27819-24.758-0.83456v-187.22q11.127-0.55637 26.984-0.83455 16.135-0.55637 33.66-0.55637 21.698 0 39.224 5.0073 17.804 5.0073 30.044 16.135 12.518 11.127 19.195 28.653 6.6764 17.247 6.6764 42.006z" style="white-space:pre"/>
 </g>
</svg>
