<svg width="600pt" height="186.52pt" version="1.1" viewBox="0 0 600 186.52" xmlns="http://www.w3.org/2000/svg">
 <g transform="matrix(.19429 0 0 .19429 413.48 2.9656e-5)">
  <path d="m960 0v960h-960v-960z" fill="#c61e1e"/>
 </g>
 <g transform="matrix(.19429 0 0 .19429 413.48 2.9656e-5)" fill="#fff">
  <path d="m219 89.16c11.7-3.28 23.94-3.23 35.98-2.79 16.59 1.41 33.24 4.54 48.52 11.35 14.57 6.54 27.34 17.91 34.1 32.52 5.9816 13.611 6.9752 28.73 5.19 43.39-1.0178 7.5679-2.3245 15.248-3.51 21.98 7.63-13.34 16.19-26.32 27.15-37.17 10.118-10.489 22.575-19.213 36.369-24.071 11.335-4.0597 22.349-5.0623 34.041-3.7191 13.42 1.9 26.4 6.26 38.76 11.72 16.44 6.97 31.41 17.35 43.84 30.14 18.42 19.4 30.76 45.56 29.93 72.66 12.1-8.47 25.94-15.59 41.03-15.88 14.83-1 29.46 4.33 41.42 12.87 16.49 11.44 28.75 27.79 39.26 44.64 4.74 7.54 8.75 15.49 12.73 23.45 7.42 14.34 12.58 29.99 13.93 46.13 0.63452 8.227 0.38472 14.183-0.73 21.3-2.2 11.88-7.14 23.86-16.55 31.83-3.47 2.8-9.1871 5.231-12.42 4.77-3.3-0.6-5.25-3.64-7.55-5.78-28.01-29.82-61.94-53.4-97.21-73.81-79.13-44.98-168.61-71.11-259.22-78.18-27.477-2.438-56.837-2.2063-82.11-1.81-2.19-0.12-4.76 0.5-6.47-1.27-11.13-8.83-18.86-21.2-25.07-33.8-7.5-14.52-12.04-30.4-14.71-46.47-2.91-18.96-1.94-39.25 7.01-56.55 7.47-13.87 21.19-23.54 36.29-27.45z"/>
  <path d="m183.47 287.51c14.49-0.64 38.235-0.40878 43.54-0.25 6.784 0.0953 24.856 1.0928 38.07 1.7 63.76 4.11 127.27 15.84 187.5 37.42 75.27 26.49 144.96 69.15 201.95 125.08 50.6 49.4 91.27 108.61 121.3 172.55 22.96 49.39 40.4 101.53 49.54 155.3 1.74 10.1 2.68 20.29 2.31 30.55-24.73-6.07-50.09-9.36-75.46-11.04-12.37-0.86-24.82-0.41-37.22-0.54-8.34 0.3-16.74-0.42-25.01 0.82-34.51 1.77-68.63 8.38-102.01 17.15-36.53 10.14-72.1 23.74-106.07 40.56-10.1 5.26-20.46 10.04-30.29 15.8-14.73 8.36-29.42 16.83-43.41 26.38 0.01-16.32-0.07-32.65 0.61-48.95-0.03-21.36 0.01-42.72-0.02-64.08-0.72-12.32-0.35-24.67-0.73-37-0.63-5.64-0.84-11.3-0.82-16.96-3.15-57.51-8.54-115.29-22.72-171.3-5.06-22.18-12.51-43.72-20.51-64.99-14.8-37.27-34.6-72.67-59.77-103.95-33.22-41.99-75.32-76.28-120.78-104.25z"/>
  <path d="m189.64 328.48c9.69 7.46 18.37 16.21 26.63 25.23 24.66 25.88 47.61 53.44 68.26 82.65 9.42 13.87 18.63 27.98 25.99 43.08 5.95 12.81 11.6 26.29 12 40.61 0.19 9.18-4.28 18.41-12.26 23.19-11.23 6.55-24.72 6.41-37.31 5.91-21.07-2.11-41.94-6.45-62.05-13.1-15.53-5.51-31.23-12.07-43.32-23.61-9.87-9.15-15.91-22.75-14.18-36.32 2.44-18.75 13.6-34.98 25.91-48.78 7.06-8.59 15.56-15.84 24.1-22.9 0.91-0.92 2.57-1.84 2.01-3.4-5.27-24.18-10.87-48.31-15.78-72.56z"/>
 </g>
 <path d="m9.1009e-6 170.79h400v15.73h-400z" fill="#17803d" style="paint-order:stroke fill markers"/>
 <g transform="matrix(1.3055 0 0 1.5659 720.61 -1461.1)" fill="#c61e1e" stroke-width="1px" aria-label="DAS">
  <path d="m-298.47 948.15q0 3.9648-1.7383 7.1875-1.7188 3.2227-4.5898 5-1.9922 1.2305-4.4531 1.7773-2.4414 0.54688-6.4453 0.54688h-7.3438v-29.082h7.2656q4.2578 0 6.7578 0.625 2.5195 0.60547 4.2578 1.6797 2.9688 1.8555 4.6289 4.9414t1.6602 7.3242zm-4.043-0.0586q0-3.418-1.1914-5.7617-1.1914-2.3438-3.5547-3.6914-1.7188-0.97656-3.6523-1.3477-1.9336-0.39062-4.6289-0.39062h-3.6328v22.441h3.6328q2.793 0 4.8633-0.41016 2.0898-0.41016 3.8281-1.5234 2.168-1.3867 3.2422-3.6523 1.0938-2.2656 1.0938-5.6641z"/>
  <path d="m-269.25 962.67h-4.1211l-2.8516-8.1055h-12.578l-2.8516 8.1055h-3.9258l10.586-29.082h5.1562zm-8.1641-11.426-5.0976-14.277-5.1172 14.277z"/>
  <path d="m-243.86 954.36q0 1.6992-0.80078 3.3594-0.78125 1.6602-2.207 2.8125-1.5625 1.25-3.6523 1.9531-2.0703 0.70312-5 0.70312-3.1445 0-5.6641-0.58594-2.5-0.58593-5.0976-1.7383v-4.8438h0.27343q2.207 1.8359 5.0977 2.832 2.8906 0.9961 5.4297 0.9961 3.5938 0 5.5859-1.3477 2.0117-1.3476 2.0117-3.5938 0-1.9336-0.95703-2.8516-0.9375-0.91797-2.8711-1.4258-1.4648-0.39063-3.1836-0.64453-1.6992-0.25391-3.6133-0.64453-3.8672-0.82032-5.7422-2.793-1.8555-1.9922-1.8555-5.1758 0-3.6524 3.0859-5.9766 3.0859-2.3438 7.832-2.3438 3.0664 0 5.625 0.58594t4.5312 1.4453v4.5703h-0.27344q-1.6602-1.4062-4.375-2.3242-2.6953-0.9375-5.5273-0.9375-3.1055 0-5 1.2891-1.875 1.2891-1.875 3.3203 0 1.8164 0.9375 2.8516t3.3008 1.582q1.25 0.27343 3.5547 0.66406 2.3047 0.39062 3.9062 0.80078 3.2422 0.85937 4.8828 2.5977 1.6406 1.7383 1.6406 4.8633z"/>
 </g>
 <g transform="matrix(1.2421 0 0 1.4382 515.8 -1356.8)" fill="#c61e1e" stroke-width="1px" aria-label="FRANKFURTER">
  <path d="m-394.44 988.11h-13.379v5.4102h12.402v5.625h-12.402v12.422h-7.4609v-29.082h20.84z"/>
  <path d="m-372.96 991.39q0-1.0938-0.44922-1.875t-1.543-1.2305q-0.76171-0.3125-1.7773-0.3711-1.0156-0.0781-2.3633-0.0781h-2.7148v7.832h2.3047q1.7969 0 3.0078-0.17578t2.0312-0.80078q0.78125-0.60547 1.1328-1.3281 0.37109-0.74219 0.37109-1.9727zm11.699 20.176h-9.1602l-7.9297-10.664h-3.457v10.664h-7.4609v-29.082h12.578q2.5781 0 4.4336 0.29297t3.4766 1.2695q1.6406 0.97657 2.5977 2.5391 0.97656 1.543 0.97656 3.8867 0 3.2226-1.5039 5.2539-1.4844 2.0312-4.2578 3.3789z"/>
  <path d="m-331.06 1011.6h-7.7539l-2.0117-5.8789h-10.781l-2.0117 5.8789h-7.5586l10.742-29.082h8.6328zm-11.582-11.211-3.5742-10.43-3.5742 10.43z"/>
  <path d="m-300.4 1011.6h-7.2266l-12.344-19.961v19.961h-6.875v-29.082h8.9648l10.605 16.66v-16.66h6.875z"/>
  <path d="m-265.79 1011.6h-9.1992l-8.6914-11.641-1.7578 2.1289v9.5117h-7.5v-29.082h7.5v13.164l10.391-13.164h8.6914l-11.367 13.457z"/>
  <path d="m-241.24 988.11h-13.379v5.4102h12.402v5.625h-12.402v12.422h-7.4609v-29.082h20.84z"/>
  <path d="m-210.59 1001q0 5.3906-3.2812 8.2617t-9.668 2.8711q-6.3867 0-9.668-2.8711-3.2617-2.8711-3.2617-8.2422v-18.574h7.5391v18.145q0 3.0274 1.2695 4.5117 1.2695 1.4844 4.1211 1.4844 2.8125 0 4.1016-1.4258 1.3086-1.4257 1.3086-4.5703v-18.145h7.5391z"/>
  <path d="m-187.25 991.39q0-1.0938-0.44922-1.875t-1.543-1.2305q-0.76172-0.3125-1.7773-0.3711-1.0156-0.0781-2.3633-0.0781h-2.7148v7.832h2.3047q1.7969 0 3.0078-0.17578t2.0312-0.80078q0.78125-0.60547 1.1328-1.3281 0.3711-0.74219 0.3711-1.9727zm11.699 20.176h-9.1602l-7.9297-10.664h-3.457v10.664h-7.4609v-29.082h12.578q2.5781 0 4.4336 0.29297t3.4766 1.2695q1.6406 0.97657 2.5977 2.5391 0.97656 1.543 0.97656 3.8867 0 3.2226-1.5039 5.2539-1.4844 2.0312-4.2578 3.3789z"/>
  <path d="m-149.48 988.11h-9.082v23.457h-7.5v-23.457h-9.082v-5.625h25.664z"/>
  <path d="m-123.93 1011.6h-21.035v-29.082h21.035v5.625h-13.574v5.0195h12.598v5.625h-12.598v7.1875h13.574z"/>
  <path d="m-101.31 991.39q0-1.0938-0.44922-1.875t-1.543-1.2305q-0.76172-0.3125-1.7773-0.3711-1.0156-0.0781-2.3633-0.0781h-2.7148v7.832h2.3047q1.7969 0 3.0078-0.17578t2.0312-0.80078q0.78125-0.60547 1.1328-1.3281 0.3711-0.74219 0.3711-1.9727zm11.699 20.176h-9.1602l-7.9297-10.664h-3.457v10.664h-7.4609v-29.082h12.578q2.5781 0 4.4336 0.29297t3.4766 1.2695q1.6406 0.97657 2.5977 2.5391 0.97656 1.543 0.97656 3.8867 0 3.2226-1.5039 5.2539-1.4844 2.0312-4.2578 3.3789z"/>
 </g>
 <g transform="matrix(1.5286 0 0 1.8642 725.98 -1835.9)" fill="#c61e1e" stroke-width="1px" aria-label="FERNSEHEN">
  <path d="m-454.09 1049.4h-13.379v5.4102h12.402v5.625h-12.402v12.422h-7.4609v-29.082h20.84z"/>
  <path d="m-427.88 1072.8h-21.035v-29.082h21.035v5.625h-13.574v5.0196h12.598v5.625h-12.598v7.1875h13.574z"/>
  <path d="m-405.27 1052.6q0-1.0938-0.44922-1.875-0.44922-0.7813-1.543-1.2305-0.76172-0.3125-1.7774-0.3711-1.0156-0.078-2.3633-0.078h-2.7148v7.832h2.3047q1.7969 0 3.0078-0.1758 1.2109-0.1757 2.0312-0.8007 0.78125-0.6055 1.1328-1.3282 0.3711-0.7421 0.3711-1.9726zm11.699 20.176h-9.1602l-7.9297-10.664h-3.457v10.664h-7.4609v-29.082h12.578q2.5781 0 4.4336 0.293t3.4766 1.2695q1.6406 0.9766 2.5977 2.5391 0.97656 1.543 0.97656 3.8867 0 3.2227-1.5039 5.2539-1.4844 2.0313-4.2578 3.3789z"/>
  <path d="m-363.8 1072.8h-7.2266l-12.344-19.961v19.961h-6.875v-29.082h8.9648l10.605 16.66v-16.66h6.875z"/>
  <path d="m-333.06 1063.7q0 4.2969-3.6524 6.9922-3.6328 2.6758-9.8828 2.6758-3.6133 0-6.3086-0.625-2.6758-0.6445-5.0195-1.6211v-6.9726h0.82031q2.3242 1.8554 5.1953 2.8515 2.8906 0.9961 5.5469 0.9961 0.68359 0 1.7969-0.1172t1.8164-0.3906q0.85937-0.3516 1.4062-0.8789 0.5664-0.5273 0.5664-1.5625 0-0.957-0.82031-1.6406-0.80078-0.7032-2.3633-1.0742-1.6406-0.3907-3.4766-0.7227-1.8164-0.3516-3.418-0.8789-3.6719-1.1914-5.293-3.2227-1.6016-2.0507-1.6016-5.0781 0-4.0625 3.6328-6.6211 3.6523-2.5781 9.375-2.5781 2.8711 0 5.6641 0.5664 2.8125 0.5469 4.8633 1.3867v6.6992h-0.80078q-1.7578-1.4062-4.3164-2.3437-2.5391-0.957-5.1953-0.957-0.9375 0-1.875 0.1367-0.91797 0.1172-1.7773 0.4687-0.76172 0.293-1.3086 0.8985-0.54688 0.5859-0.54688 1.3476 0 1.1524 0.87891 1.7774 0.8789 0.6054 3.3203 1.1132 1.6016 0.3321 3.0664 0.6446 1.4844 0.3125 3.1836 0.8593 3.3398 1.0938 4.9219 2.9883 1.6016 1.875 1.6016 4.8828z"/>
  <path d="m-306.87 1072.8h-21.035v-29.082h21.035v5.625h-13.574v5.0196h12.598v5.625h-12.598v7.1875h13.574z"/>
  <path d="m-274.48 1072.8h-7.5v-12.812h-11.074v12.812h-7.5v-29.082h7.5v10.645h11.074v-10.645h7.5z"/>
  <path d="m-246.01 1072.8h-21.035v-29.082h21.035v5.625h-13.574v5.0196h12.598v5.625h-12.598v7.1875h13.574z"/>
  <path d="m-213.25 1072.8h-7.2266l-12.344-19.961v19.961h-6.875v-29.082h8.9648l10.605 16.66v-16.66h6.875z"/>
 </g>
</svg>
