<svg width="800" height="205.81" space="preserve" version="1.1" viewBox="0 0 800 205.81" xmlns="http://www.w3.org/2000/svg">
 <link rel="stylesheet" type="text/css"/>
 <link rel="stylesheet" type="text/css"/>
 <g transform="matrix(.53597 0 0 .53597 .0060545 -.0055543)">
  <path d="m208.7 5.7-207.2 358.7c-3.1 5.4-1.3 12.4 4.2 15.5 1.7 1 3.7 1.5 5.7 1.5h50.5c26.7 0 51.4-14.3 64.8-37.4l106-183.5c13.1-22.8 37.5-36.8 63.8-36.8l-68.1-118c-3.1-5.4-10-7.3-15.5-4.2-1.8 1-3.2 2.4-4.2 4.2z" fill="#fd0"/>
  <path d="m209.1 381.4h216.5c6.3 0 11.3-5.1 11.3-11.3 0-2-0.5-3.9-1.5-5.7l-108.3-187.6c-13.6-23.6-47.7-23.6-61.4 0l-87.4 151.3c-13.6 23.8 3.5 53.3 30.8 53.3z" fill="#004899"/>
  <polygon points="580.9 381.4 621.1 381.4 568.6 305 619.2 239.7 581.5 239.7 536.4 299.1 536.4 239.7 502 239.7 502 381.4 536.4 381.4 536.4 316.3" fill="#004899"/>
  <path d="m661.3 381.4h65.1v-28.3h-51.7v-113.4h-34.7v120.5c0 11.7 9.5 21.2 21.3 21.2z" fill="#004899"/>
  <path d="m811.9 237.2c-48.5 0-74.3 35.3-74.3 73.6 0 38.1 26.4 73.2 75.1 73.2s73.2-36 73.2-74.3c0.1-37.9-25-72.5-74-72.5zm0 119.3c-26.4 0-37.9-21.9-37.9-46.8 0-24.5 11.7-45.1 38.7-45.1 26.6 0 37 21.5 37 46.2 0.1 24.5-10.8 45.7-37.8 45.7z" fill="#004899"/>
  <path d="m945.4 384c32.8 0 52.4-16.6 52.4-43.4 0-25.8-16.4-35.3-35.1-43.6-15.1-6.8-26.2-9.6-26.2-19.6 0-8.5 6.2-12.8 17-12.8 11.1 0 22.1 5.5 27 8.5l13.4-23.8c-6.4-4.7-18.9-12.1-42.8-12.1-26.6 0-47.2 15.7-47.2 40.4 0 23.2 12.1 34.5 29.6 43 16.6 8.5 31.3 10.9 31.3 21.9 0 8.1-7 14-20.4 14-15.5 0-26.6-8.1-29.8-10.2l-14 23.8c6.3 5.2 21.4 13.9 44.8 13.9" fill="#004899"/>
  <polygon points="1122.1 268.1 1122.1 239.7 1010.4 239.7 1010.4 268.1 1048.9 268.1 1048.9 381.4 1083.4 381.4 1083.4 268.1" fill="#004899"/>
  <path d="m1161.9 381.4h76.3v-28.3h-63.5v-31.5h53.2v-26.4h-53.2v-27.2h62v-28.3h-96v120.5c0 11.7 9.5 21.2 21.2 21.2z" fill="#004899"/>
  <path d="m1358.7 341.4c-7.4-12.1-13-18.1-17.2-21.1v-0.4c15.8-3.8 30.9-15.3 30.9-38.5 0-27.2-19.6-41.7-54-41.7h-50.2v141.7h34.5v-56h1.7c5.8 0 8.1 1.3 17.2 15.5l25.1 40.4h37.4zm-41.3-39.8h-14.9v-36.2h13.6c15.5 0 22.3 6.2 22.3 18.1 0.1 11.5-6.7 18.1-21 18.1z" fill="#004899"/>
  <path d="m1440.2 384c32.8 0 52.4-16.6 52.4-43.4 0-25.8-16.4-35.3-35.1-43.6-15.1-6.8-26.2-9.6-26.2-19.6 0-8.5 6.2-12.8 17-12.8 11.1 0 22.1 5.5 27 8.5l13.4-23.8c-6.4-4.7-18.9-12.1-42.8-12.1-26.6 0-47.2 15.7-47.2 40.4 0 23.2 12.1 34.5 29.6 43 16.6 8.5 31.3 10.9 31.3 21.9 0 8.1-7 14-20.4 14-15.5 0-26.6-8.1-29.8-10.2l-14 23.8c6.3 5.1 21.4 13.9 44.8 13.9" fill="#004899"/>
  <path d="m548.1 41.3h-46.1v141.7h44.9c56.4 0 82.3-31.9 82.3-72.8s-25.5-68.9-81.1-68.9zm1.5 114.5h-13.2v-87.3h12.1c30.4 0 44.4 13.2 44.4 42.6s-14.1 44.7-43.3 44.7z" fill="#004899"/>
  <path d="m823.4 183h32.6l52.8-141.7h-34.5l-26.6 80.7c-3.4 10.6-6.4 21.5-6.8 23.4h-0.4c-0.6-1.9-3.4-12.6-7-23.4l-22.6-66.3c-2.9-8.6-11-14.4-20.1-14.4h-22z" fill="#004899"/>
  <path d="m987.3 38.7c-48.5 0-74.3 35.3-74.3 73.6 0 38.1 26.4 73.2 75.1 73.2s73.2-36 73.2-74.3c0.1-37.8-25-72.5-74-72.5zm0 119.4c-26.4 0-37.9-21.9-37.9-46.8 0-24.5 11.7-45.1 38.7-45.1 26.6 0 37 21.5 37 46.2 0.1 24.4-10.7 45.7-37.8 45.7z" fill="#004899"/>
  <path d="m1120.8 185.6c32.8 0 52.3-16.6 52.3-43.4 0-25.8-16.4-35.3-35.1-43.6-15.1-6.8-26.2-9.5-26.2-19.5 0-8.5 6.2-12.8 17-12.8 11.1 0 22.1 5.5 27 8.5l13.4-23.8c-6.4-4.7-18.9-12.1-42.8-12.1-26.6 0-47.3 15.8-47.3 40.4 0 23.2 12.1 34.5 29.6 43 16.6 8.5 31.3 10.9 31.3 21.9 0 8.1-7 14.1-20.4 14.1-15.5 0-26.6-8.1-29.8-10.2l-14 23.8c6.5 5 21.6 13.7 45 13.7" fill="#004899"/>
  <path d="m739 183h37.5l-55.8-141.7h-33l-54 141.7h34.7l9.8-28.4h50.8zm-51.3-56 8.3-24.2c4-11.7 6.4-22.1 7.2-24.7h0.4c1.9 8.3 4.2 16.6 7 24.7l8.6 24.2z" fill="#004899"/>
 </g>
</svg>
