<svg width="799.98" height="400" version="1.1" viewBox="0 0 211.66 105.83" xmlns="http://www.w3.org/2000/svg">
 <defs>
  <clipPath id="clipPath14868">
   <path d="m67.92 654.68h16.025v-15.149h-16.025z"/>
  </clipPath>
  <clipPath id="clipPath14872">
   <path d="m67.92 639.53h16.025v15.15h-16.025z"/>
  </clipPath>
 </defs>
 <path d="m65.149 36.561 3.4021-11.45 3.4859 11.45zm16.968 10.004-8.9278-27.028c-0.20259-0.59379-0.42613-0.985-0.68461-1.1666-0.25149-0.18163-0.66365-0.27943-1.2295-0.27943h-4.939c-0.56585 0-0.985 0.10479-1.2505 0.30039-0.27245 0.1956-0.489 0.57982-0.66365 1.1457l-9.0117 27.028c-0.11177 0.13972-0.16766 0.41915-0.16766 0.84528 0 0.65666 0.3912 0.97801 1.1876 0.97801h3.7025c0.33532 0 0.61475-0.01397 0.82432-0.04191 0.21656-0.02794 0.38422-0.0978 0.50996-0.20957 0.13273-0.11177 0.2445-0.28642 0.3423-0.50996 0.0978-0.23053 0.20259-0.52393 0.32135-0.89418l1.4041-4.7224h10.164l1.4391 4.6386c0.11876 0.39819 0.23053 0.70556 0.3423 0.9361 0.11177 0.22354 0.2445 0.39819 0.38422 0.53092 0.13972 0.12574 0.31436 0.20259 0.50996 0.23053s0.45408 0.04191 0.76844 0.04191h3.954c0.78939 0 1.1876-0.32135 1.1876-0.97801 0-0.1956-7e-3 -0.32833-0.02096-0.39819-0.01397-0.07684-0.06287-0.22354-0.1467-0.44709m-4.3871 10.877h-2.8502c-0.73351 0-1.2225 0.10479-1.467 0.32135-0.23752 0.20957-0.35628 0.64269-0.35628 1.2994v16.039l-8.4249-16.081c-0.33532-0.68461-0.67064-1.1177-0.99897-1.2994-0.32833-0.18862-0.90117-0.27943-1.7185-0.27943h-2.6406c-0.73351 0-1.2225 0.10479-1.467 0.32135-0.23752 0.20957-0.35628 0.64269-0.35628 1.2994v27.063c0 0.64968 0.11177 1.0828 0.33532 1.2994 0.23053 0.20957 0.71255 0.31436 1.4461 0.31436h2.8921c0.73351 0 1.2295-0.10479 1.467-0.31436 0.2445-0.21656 0.36326-0.64968 0.36326-1.2994v-16.088l8.4179 16.13c0.3423 0.67762 0.67064 1.1107 0.99897 1.2994 0.32833 0.18163 0.90117 0.27244 1.7255 0.27244h2.6336c0.74049 0 1.2295-0.10479 1.467-0.31436 0.2445-0.21656 0.36326-0.64968 0.36326-1.2994v-27.063c0-0.65666-0.11876-1.0898-0.36326-1.2994-0.23752-0.21656-0.72652-0.32135-1.467-0.32135m14.125-2.5638 7.3421 7.3421v36.976h-92.562v-36.983l7.3351-7.3351c1.0828-1.0828 1.0828-2.8432 0-3.926l-7.3351-7.3351v-36.983h92.562v36.976l-7.3421 7.3421c-1.0828 1.0828-1.0828 2.8432 0 3.926m13.979-54.88h-105.83v46.805l6.1126 6.1126-6.1126 6.1195v46.798h105.83v-46.798l-6.1196-6.1195 6.1196-6.1126zm-58.778 81.44h-11.96l12.588-17.695c0.20259-0.28642 0.32833-0.51695 0.38422-0.68461s0.08383-0.36326 0.08383-0.59379v-3.4021c0-0.65666-0.11876-1.0898-0.36326-1.2994-0.23752-0.21656-0.72652-0.32135-1.467-0.32135h-18.177c-0.65666 0-1.0828 0.11876-1.2784 0.36326-0.20259 0.23752-0.30039 0.74049-0.30039 1.5089v2.5568c0 0.76145 0.0978 1.2714 0.30039 1.5089 0.1956 0.23752 0.62174 0.36326 1.2784 0.36326h11.219l-12.414 17.695c-0.31436 0.40518-0.47503 0.80336-0.47503 1.1946v3.4929c0 0.64968 0.12574 1.0828 0.36326 1.2994 0.2445 0.20957 0.73351 0.31436 1.474 0.31436h18.743c0.64968 0 1.0758-0.11876 1.2784-0.35628 0.1956-0.2445 0.30039-0.74748 0.30039-1.5159v-2.5498c0-0.76844-0.10479-1.2714-0.30039-1.5089-0.20259-0.2445-0.62872-0.37025-1.2784-0.37025m-5.5677-45.135c0 1.1666-0.07684 2.1376-0.23053 2.9201-0.16067 0.77542-0.41216 1.4111-0.76844 1.8931-0.35628 0.48202-0.82432 0.81734-1.4041 1.0199-0.57982 0.1956-1.2994 0.30039-2.1446 0.30039h-3.4859v-18.387h3.4859c1.6137 0 2.7734 0.47503 3.4859 1.4251 0.70556 0.95007 1.0618 2.5149 1.0618 4.7014zm6.0846-12.295c-0.99198-2.0189-2.3472-3.5069-4.0657-4.4709-1.7115-0.96404-3.8771-1.4461-6.4828-1.4461h-8.7183c-0.73351 0-1.2295 0.11177-1.467 0.32135-0.23752 0.21656-0.36326 0.64968-0.36326 1.2994v27.063c0 0.65666 0.12574 1.0828 0.36326 1.2994 0.23752 0.20957 0.73351 0.31436 1.467 0.31436h9.7801c4.6246 0 7.7822-1.97 9.4867-5.91 0.3912-0.90815 0.67064-1.8233 0.82432-2.7454 0.16067-0.92212 0.23752-2.0957 0.23752-3.5138v-5.7423c0-1.6137-0.07684-2.8921-0.23752-3.8282-0.15369-0.94308-0.43312-1.8163-0.82432-2.6406" fill="#fff"/>
 <g transform="translate(-7.53e-7 -.00035693)">
  <g transform="matrix(6.9858 0 0 -6.9858 -374.76 4573.4)">
   <g clip-path="url(#clipPath14868)" opacity=".5">
    <g clip-path="url(#clipPath14872)">
     <g transform="translate(77.216 642.64)">
      <path d="m0 0v7.813l-2.182-0.873v3.317l3.184 1.778h-9.422v-6.699l-0.876-0.876 0.876-0.875v-6.7h6.238v3.115z" fill="#fff"/>
     </g>
     <path d="m83.945 654.68h-1.95v-12.035h1.95z" fill="#fff"/>
    </g>
   </g>
  </g>
 </g>
</svg>
