<svg width="800" height="413.66" version="1.1" viewBox="0 0 800 413.66" xml:space="preserve" xmlns="http://www.w3.org/2000/svg"><defs><clipPath id="clipPath10010-4"><path d="m202.23 326.73h25.786v13.333h-25.786z"/></clipPath></defs><g transform="matrix(1.3333 0 0 -1.3333 -1454.5 1028.6)"><g transform="matrix(23.269 0 0 23.269 -3614.9 -7141.4)" fill="#fff"><g clip-path="url(#clipPath10010-4)" fill="#fff"><g transform="translate(210.87 336.9)"><path d="m0 0 0.439-1.442h-0.868zm-1.527-2.933h0.466c0.043 0 0.078 2e-3 0.105 5e-3 0.026 4e-3 0.048 0.013 0.064 0.028 0.016 0.013 0.03 0.035 0.043 0.064 0.012 0.028 0.026 0.066 0.04 0.112l0.177 0.595h1.28l0.182-0.584c0.015-0.05 0.029-0.089 0.043-0.118 0.014-0.028 0.031-0.051 0.048-0.067 0.018-0.016 0.04-0.026 0.065-0.03 0.025-3e-3 0.057-5e-3 0.096-5e-3h0.498c0.1 0 0.15 0.041 0.15 0.124 0 0.025 0 0.042-2e-3 0.05-2e-3 9e-3 -8e-3 0.028-0.019 0.057l-1.125 3.404c-0.025 0.075-0.054 0.124-0.086 0.147-0.032 0.024-0.084 0.035-0.155 0.035h-0.622c-0.071 0-0.124-0.012-0.158-0.037s-0.061-0.073-0.083-0.145l-1.135-3.404c-0.015-0.018-0.022-0.054-0.022-0.107 0-0.083 0.05-0.124 0.15-0.124" fill="#fff"/></g><g transform="translate(212.03 332.82)"><path d="m0 0h-0.359c-0.093 0-0.155-0.014-0.185-0.04-0.03-0.027-0.045-0.082-0.045-0.164v-2.021l-1.061 2.026c-0.043 0.086-0.085 0.141-0.126 0.164s-0.113 0.035-0.217 0.035h-0.332c-0.093 0-0.155-0.014-0.185-0.04-0.03-0.027-0.046-0.082-0.046-0.164v-3.409c0-0.083 0.015-0.137 0.043-0.164 0.029-0.027 0.09-0.04 0.182-0.04h0.365c0.093 0 0.154 0.013 0.185 0.04 0.03 0.027 0.045 0.081 0.045 0.164v2.026l1.061-2.032c0.043-0.086 0.085-0.14 0.126-0.163 0.041-0.024 0.113-0.035 0.217-0.035h0.332c0.093 0 0.154 0.013 0.185 0.04 0.03 0.027 0.045 0.081 0.045 0.164v3.409c0 0.082-0.015 0.137-0.045 0.164-0.031 0.026-0.092 0.04-0.185 0.04" fill="#fff"/></g><g transform="translate(222.75 329.24)"><path d="m0 0c0-0.128-0.104-0.232-0.232-0.232h-2.292c-0.129 0-0.233 0.104-0.233 0.232v5.732h-1.736c-0.111 0-0.202 0.09-0.202 0.202v0.534c0 0.072 0.031 0.14 0.085 0.188l2.013 1.765c0.012 0.01 0.025 0.02 0.038 0.029 0.079 0.057 0.174 0.087 0.272 0.087h2.085c0.112 0 0.202-0.09 0.202-0.202zm-8.063 5.278-0.881-0.881c-0.136-0.136-0.136-0.358 0-0.494l0.881-0.882v-4.702h-11.617v4.659l0.924 0.924c0.136 0.137 0.136 0.359 0 0.495l-0.924 0.924v4.66h11.617zm-12.453 5.538v-5.896l0.77-0.77-0.77-0.771v-5.896h25.786v13.333z" fill="#fff"/></g><g transform="translate(205.8 329.01)"><path d="m0 0h2.361c0.082 0 0.136 0.015 0.161 0.045 0.025 0.031 0.038 0.094 0.038 0.191v0.322c0 0.096-0.013 0.159-0.038 0.19-0.025 0.03-0.079 0.046-0.161 0.046h-1.506l1.586 2.23c0.025 0.035 0.041 0.064 0.048 0.085 7e-3 0.022 0.011 0.047 0.011 0.075v0.429c0 0.082-0.015 0.137-0.046 0.164-0.03 0.027-0.092 0.04-0.185 0.04h-2.29c-0.083 0-0.136-0.015-0.161-0.045-0.026-0.031-0.038-0.094-0.038-0.191v-0.321c0-0.097 0.012-0.161 0.038-0.191 0.025-0.03 0.078-0.045 0.161-0.045h1.413l-1.564-2.23c-0.04-0.051-0.059-0.101-0.059-0.15v-0.44c0-0.083 0.015-0.137 0.045-0.164 0.031-0.026 0.093-0.04 0.186-0.04" fill="#fff"/></g><g transform="translate(206.45 337.03)"><path d="m0 0h0.439c0.204 0 0.35-0.06 0.439-0.18 0.09-0.119 0.134-0.317 0.134-0.592v-0.772c0-0.147-9e-3 -0.269-0.029-0.367-0.02-0.099-0.052-0.178-0.096-0.239-0.045-0.061-0.104-0.103-0.177-0.129-0.073-0.025-0.164-0.037-0.271-0.037h-0.439zm-0.648-3.067h1.232c0.582 0 0.98 0.249 1.195 0.745 0.05 0.115 0.084 0.23 0.104 0.346 0.02 0.117 0.029 0.264 0.029 0.442v0.724c0 0.204-9e-3 0.365-0.029 0.483s-0.054 0.228-0.104 0.332c-0.125 0.254-0.296 0.442-0.512 0.563-0.216 0.122-0.489 0.182-0.817 0.182h-1.098c-0.093 0-0.155-0.013-0.185-0.04s-0.046-0.081-0.046-0.163v-3.41c0-0.082 0.016-0.137 0.046-0.164 0.03-0.026 0.092-0.04 0.185-0.04" fill="#fff"/></g></g></g></g></svg>
