<svg width="800" height="412.94" enable-background="new 0 0 788.1 406.8" version="1.1" viewBox="0 0 800 412.94" xml:space="preserve" xmlns="http://www.w3.org/2000/svg">
<style type="text/css">
	.st0{fill-rule:evenodd;clip-rule:evenodd;fill:#E10600;}
</style>
<path d="m800-1.5117e-5v412.94h-800v-182.62l23.855-23.855-23.855-23.855v-182.62zm-412.94 387.06v-144.25l-28.626-28.626c-4.2634-4.2634-4.2634-11.065 0-15.328l28.626-28.626v-144.35h-361.17v144.35l28.626 28.626c4.2634 4.2634 4.2634 11.065 0 15.328l-28.626 28.626v144.35h361.17zm-83.746-162.92h-11.166c-2.8423 0-4.771 0.40604-5.6846 1.2181s-1.4211 2.5378-1.4211 5.0755v62.632l-32.889-62.733c-1.3196-2.6393-2.6393-4.3649-3.8574-5.0755-1.3196-0.71057-3.5528-1.1166-6.6996-1.1166h-10.253c-2.8423 0-4.771 0.40604-5.6846 1.2181s-1.4211 2.5378-1.4211 5.0755v105.57c0 2.5378 0.40604 4.2634 1.3196 5.0755s2.7408 1.2181 5.6846 1.2181h11.268c2.8423 0 4.771-0.40604 5.6846-1.2181s1.4211-2.5378 1.4211-5.0755v-62.733l32.889 62.936c1.3196 2.6393 2.6393 4.3649 3.8574 5.0755 1.3196 0.71057 3.5528 1.1166 6.6997 1.1166h10.252c2.8423 0 4.771-0.40604 5.6846-1.2181s1.4211-2.5378 1.4211-5.0755v-105.67c0-2.5378-0.50755-4.2634-1.4211-5.0755s-2.8423-1.2181-5.6846-1.2181zm-114.71 95.115c0.81208 0.91359 1.1166 2.9438 1.1166 5.8876v9.948c0 3.0453-0.40604 4.974-1.1166 5.8876-0.81208 0.91359-2.4362 1.4211-4.974 1.4211h-73.087c-2.8423 0-4.771-0.40604-5.7861-1.2181-0.91359-0.81208-1.4211-2.5378-1.4211-5.0755v-13.602c0-1.5226 0.60906-3.0453 1.8272-4.6695l48.42-69.027h-43.751c-2.5378 0-4.2634-0.50755-4.974-1.4211-0.81208-0.91359-1.1166-2.9438-1.1166-5.8876v-10.049c0-3.0453 0.40604-4.974 1.1166-5.8876 0.81208-0.91359 2.4362-1.4211 4.974-1.4211h70.854c2.8423 0 4.771 0.40604 5.7861 1.2181 0.91359 0.81208 1.4211 2.5378 1.4211 5.0755v13.298c0 0.91359-0.10151 1.6242-0.30453 2.3347s-0.71057 1.5226-1.5226 2.6393l-49.131 69.027h46.695c2.5378 0.10151 4.1619 0.50755 4.974 1.5226zm132.37-135.82c0.10151 0.30453 0.10151 0.81208 0.10151 1.5226 0 2.5378-1.5226 3.8574-4.6695 3.8574h-15.43c-1.2181 0-2.2332-0.10151-2.9438-0.20302s-1.4211-0.40604-2.0302-0.91359c-0.50755-0.50755-1.0151-1.2181-1.5226-2.0302-0.40604-0.91359-0.91359-2.1317-1.3196-3.6544l-5.583-18.069h-39.69l-5.4815 18.475c-0.40604 1.4211-0.81208 2.6393-1.2181 3.4513-0.40604 0.91359-0.81208 1.5226-1.3196 2.0302-0.60906 0.50755-1.2181 0.81208-2.0302 0.81208-0.81208 0.10151-1.9287 0.20302-3.2483 0.20302h-14.414c-3.1468 0-4.6694-1.3196-4.6694-3.8574 0-1.6242 0.20302-2.7408 0.71057-3.3498l35.224-105.47c0.71057-2.2332 1.5226-3.7559 2.5378-4.4664 1.0151-0.81208 2.6393-1.1166 4.8725-1.1166h19.287c2.2332 0 3.8574 0.40604 4.771 1.1166 1.0151 0.71057 1.8272 2.2332 2.6393 4.5679l34.919 105.37c0.20302 0.50755 0.40604 1.1166 0.50755 1.7257zm-39.893-40.807-13.602-44.664-13.298 44.664zm-92.273-38.675c0.60906 3.6544 0.91359 8.6284 0.91359 14.922v22.434c0 5.4815-0.30453 10.049-0.91359 13.704s-1.7257 7.2072-3.2483 10.76c-6.5982 15.43-18.982 23.043-37.051 23.043h-38.168c-2.8423 0-4.771-0.40604-5.6846-1.2181s-1.4211-2.5378-1.4211-5.0755v-105.57c0-2.5377 0.50755-4.2634 1.4211-5.0755s2.8423-1.2181 5.6846-1.2181h34.006c10.151 0 18.576 1.9287 25.276 5.6846 6.6997 3.7559 11.978 9.5419 15.836 17.46 1.7257 3.1468 2.8423 6.5982 3.3498 10.151zm-26.9 13.805c0-8.5268-1.4211-14.617-4.1619-18.373-2.7408-3.6544-7.3087-5.583-13.602-5.583h-13.602v71.768h13.602c3.3498 0 6.0906-0.40604 8.4253-1.1166 2.2332-0.81208 4.0604-2.1317 5.4815-3.9589 1.4211-1.9287 2.3347-4.3649 2.9438-7.4102s0.91359-6.8012 0.91359-11.369z" fill="#fff" stroke-width="1.0151"/>
		<g transform="matrix(1.0151 0 0 1.0151 0 -1.5117e-5)" clip-rule="evenodd" fill="#e10600" fill-rule="evenodd">
		<path class="st0" d="m711.7 247h2.4v-10.9l3.9 10.9h2.1l3.9-10.9v10.9h2.4v-14.2h-3.5l-3.8 11.1-3.9-11.1h-3.5z"/>
		<path class="st0" d="m698.7 235h4.5v12h2.4v-12h4.5v-2.2h-11.4z"/>
		<path class="st0" d="m666.6 247 85.1-85.2h-51.2l-85.1 85.2z"/>
		</g><path class="st0" d="m664.28 201.9h-104.56c-31.874 0-37.457 1.7257-51.161 15.328-12.79 12.79-33.498 33.397-33.498 33.397h45.273l10.76-10.862c7.1057-7.1057 10.76-7.8163 25.682-7.8163h77.249z" stroke-width="1.0151"/><path class="st0" d="m507.14 211.14c-9.4404 8.9329-29.945 28.829-41.01 39.589h-48.725s39.081-38.878 60.703-60.297c22.332-21.317 33.498-26.088 74.508-26.088h149.22l-32.28 32.28h-113.89c-28.727 0-35.224 1.9287-48.522 14.516z" stroke-width="1.0151"/>
</svg>
