<svg id="a" width="800" height="400" version="1.1" viewBox="0 0 211.67 105.83" xmlns="http://www.w3.org/2000/svg">
 <g id="b" transform="translate(21.319 -45.155)">
  <g id="c" transform="matrix(8.6628 0 0 -8.6628 -3929.9 5926)">
   <path id="d" d="m458.72 674.64 0.392 1.322 0.403-1.322h-0.795m1.958-1.155-1.03 3.12-0.079 0.135-0.142 0.032h-0.57l-0.145-0.035-0.076-0.132-1.04-3.12-0.02-0.098c0-0.075 0.046-0.113 0.137-0.113h0.427l0.096 5e-3 0.059 0.025 0.039 0.059 0.037 0.103 0.162 0.545h1.173l0.167-0.535 0.04-0.109 0.044-0.061 0.059-0.027 0.088-5e-3h0.457c0.091 0 0.137 0.038 0.137 0.113l-2e-3 0.047-0.018 0.051m-0.506-1.256h-0.329l-0.169-0.036-0.042-0.15v-1.852l-0.972 1.857-0.115 0.149c-0.038 0.022-0.104 0.032-0.199 0.032h-0.304l-0.17-0.036-0.041-0.15v-3.124l0.039-0.15 0.167-0.037h0.334l0.169 0.037 0.042 0.15v1.856l0.972-1.861 0.115-0.15c0.038-0.022 0.104-0.032 0.199-0.032h0.304l0.17 0.037 0.041 0.15v3.124l-0.041 0.15-0.17 0.036m1.631 0.296 0.847-0.847v-4.269h-10.685v4.269l0.847 0.847c0.125 0.125 0.125 0.328 0 0.453l-0.847 0.847v4.27h10.685v-4.269l-0.847-0.847c-0.125-0.125-0.125-0.328 0-0.454m1.613 6.335h-12.217v-5.402l0.706-0.706-0.706-0.706v-5.403h12.217v5.403l-0.706 0.706 0.706 0.706v5.402m-6.785-9.401h-1.38l1.453 2.043 0.044 0.079 0.01 0.069v0.393l-0.042 0.15-0.17 0.036h-2.098l-0.148-0.041-0.034-0.175v-0.294l0.034-0.175 0.148-0.042h1.295l-1.433-2.043-0.054-0.138v-0.402l0.041-0.15 0.171-0.037h2.163l0.148 0.041 0.034 0.175v0.295l-0.034 0.174-0.148 0.042m-0.643 5.211c0-0.135-8e-3 -0.247-0.026-0.337l-0.089-0.219-0.162-0.118c-0.067-0.023-0.15-0.034-0.248-0.034h-0.402v2.122h0.402c0.187 0 0.321-0.055 0.403-0.165 0.081-0.109 0.122-0.29 0.122-0.542v-0.707m0.703 1.419c-0.115 0.233-0.271 0.405-0.469 0.516s-0.448 0.167-0.749 0.167h-1.006l-0.17-0.037-0.041-0.15v-3.124l0.041-0.15 0.17-0.037h1.129c0.533 0 0.898 0.228 1.095 0.683 0.045 0.105 0.077 0.21 0.095 0.317s0.027 0.242 0.027 0.405v0.663c0 0.187-9e-3 0.335-0.027 0.442-0.018 0.109-0.05 0.21-0.095 0.305" fill="#fff"/>
   <path id="e" d="m466.54 666.64h-3.13v5.402l-0.706 0.706 0.706 0.706v5.402h5.342c-1.274-0.458-1.96-1.227-2.212-1.539v-2.851h3.555v1.549c0.105 0.175 0.44 0.334 0.845 0.334 0.422 0 0.739-0.159 0.844-0.352v-1.584c-0.052-0.193-0.334-0.475-0.967-1.056l-4.277-3.907v-2.81" fill="#626773"/>
   <path id="f" d="m463.41 666.64v5.402l-0.706 0.706 0.706-0.706v-5.402m-0.706 6.108 0.706 0.706v5.402-5.402l-0.706-0.706" fill="#001524"/>
   <path id="g" d="m475.63 669.68h-3.895v0.141l2.727 2.411c0.662 0.577 1.062 1.055 1.168 1.325v-3.877m0 7.166c-0.336 0.632-1.142 1.521-2.505 2.011h2.505v-2.011" fill="#626773"/>
  </g>
 </g>
</svg>
