<svg width="800.94" height="413.43" enable-background="new 0 0 788.1 406.8" version="1.1" viewBox="0 0 800.94 413.43" xml:space="preserve" xmlns="http://www.w3.org/2000/svg">
<path d="m0 0.0062149v182.83l23.883 23.883-23.883 23.883v182.83h800.94v-413.43h-800.94zm25.916 25.916h361.6v144.52l-28.66 28.66c-4.2685 4.2685-4.2685 11.078 0 15.347l28.66 28.66v144.52h-361.6v-144.52l28.658-28.66c4.2685-4.2685 4.2685-11.078 0-15.347l-28.658-28.66zm561.83 41.416c14.342 0 27.249 1.4663 38.723 4.4008 11.474 2.6678 21.353 6.269 29.639 10.804 8.6051 4.2684 15.617 9.0701 21.035 14.406 5.7367 5.3355 10.199 10.671 13.386 16.006v78.031c-2.231 2.6678-5.1 5.6023-8.6058 8.8036s-7.8084 6.2688-12.907 9.2033c6.0554 4.5352 10.678 8.938 13.864 13.206 3.5058 4.0016 6.0554 7.2021 7.6489 9.603v82.834c-1.5936 2.9346-4.78 7.0695-9.5606 12.405-4.4619 5.0687-10.837 10.136-19.123 15.205-7.9677 4.8019-18.006 8.937-30.118 12.405-12.11 3.7348-26.772 5.604-43.982 5.604-14.023 0-26.294-1.2004-36.811-3.6014-10.199-2.401-19.121-5.3356-26.77-8.8036-7.3303-3.4681-13.386-6.9364-18.166-10.404-4.7806-3.7348-8.2865-6.8024-10.518-9.2033v-67.627h76.489v33.612c0.63741 1.3338 2.0709 3.203 4.3019 5.604s6.0564 3.6014 11.475 3.6014c5.4184 0 9.2434-1.2004 11.475-3.6014 2.231-2.4009 3.6645-4.27 4.3019-5.604v-48.818c-0.63741-1.3338-1.9133-3.201-3.8255-5.6019-1.9122-2.6678-5.7357-4.0011-11.473-4.0011h-37.766v-51.221h37.288c5.418 0 9.2434-1.2004 11.475-3.6014 2.2314-2.401 3.6645-4.2681 4.3019-5.6019v-42.017c-0.63741-1.3338-2.0709-3.201-4.3019-5.6019s-6.0564-3.6014-11.475-3.6014c-5.4184 0-9.2434 1.2004-11.475 3.6014-2.2314 2.401-3.6645 4.2681-4.3019 5.6019v26.011h-76.489v-60.024c2.231-2.1341 5.5772-4.9359 10.039-8.404 4.4619-3.7348 10.358-7.3362 17.688-10.804 7.3303-3.4681 16.255-6.4026 26.772-8.8036 10.836-2.6678 23.424-4.0011 37.766-4.0011z" stroke-width="1.0163"/><g transform="translate(259.36 -79.594)"><g transform="matrix(31.025 0 0 -31.025 8.5422 177.43)"><path d="m0 0 0.439-1.442h-0.868zm-1.527-2.933h0.466c0.043 0 0.078 2e-3 0.105 5e-3 0.026 4e-3 0.048 0.013 0.064 0.028 0.016 0.013 0.03 0.035 0.043 0.064 0.012 0.028 0.026 0.066 0.04 0.112l0.177 0.595h1.28l0.182-0.584c0.015-0.05 0.029-0.089 0.043-0.118 0.014-0.028 0.031-0.051 0.048-0.067 0.018-0.016 0.04-0.026 0.065-0.03 0.025-3e-3 0.057-5e-3 0.096-5e-3h0.498c0.1 0 0.15 0.041 0.15 0.124 0 0.025 0 0.042-2e-3 0.05-2e-3 9e-3 -8e-3 0.028-0.019 0.057l-1.125 3.404c-0.025 0.075-0.054 0.124-0.086 0.147-0.032 0.024-0.084 0.035-0.155 0.035h-0.622c-0.071 0-0.124-0.012-0.158-0.037s-0.061-0.073-0.083-0.145l-1.135-3.404c-0.015-0.018-0.022-0.054-0.022-0.107 0-0.083 0.05-0.124 0.15-0.124"/></g><g transform="matrix(31.025 0 0 -31.025 44.531 304.01)"><path d="m0 0h-0.359c-0.093 0-0.155-0.014-0.185-0.04-0.03-0.027-0.045-0.082-0.045-0.164v-2.021l-1.061 2.026c-0.043 0.086-0.085 0.141-0.126 0.164s-0.113 0.035-0.217 0.035h-0.332c-0.093 0-0.155-0.014-0.185-0.04-0.03-0.027-0.046-0.082-0.046-0.164v-3.409c0-0.083 0.015-0.137 0.043-0.164 0.029-0.027 0.09-0.04 0.182-0.04h0.365c0.093 0 0.154 0.013 0.185 0.04 0.03 0.027 0.045 0.081 0.045 0.164v2.026l1.061-2.032c0.043-0.086 0.085-0.14 0.126-0.163 0.041-0.024 0.113-0.035 0.217-0.035h0.332c0.093 0 0.154 0.013 0.185 0.04 0.03 0.027 0.045 0.081 0.045 0.164v3.409c0 0.082-0.015 0.137-0.045 0.164-0.031 0.026-0.092 0.04-0.185 0.04"/></g><g transform="matrix(31.025 0 0 -31.025 -148.75 422.21)"><path d="m0 0h2.361c0.082 0 0.136 0.015 0.161 0.045 0.025 0.031 0.038 0.094 0.038 0.191v0.322c0 0.096-0.013 0.159-0.038 0.19-0.025 0.03-0.079 0.046-0.161 0.046h-1.506l1.586 2.23c0.025 0.035 0.041 0.064 0.048 0.085 7e-3 0.022 0.011 0.047 0.011 0.075v0.429c0 0.082-0.015 0.137-0.046 0.164-0.03 0.027-0.092 0.04-0.185 0.04h-2.29c-0.083 0-0.136-0.015-0.161-0.045-0.026-0.031-0.038-0.094-0.038-0.191v-0.321c0-0.097 0.012-0.161 0.038-0.191 0.025-0.03 0.078-0.045 0.161-0.045h1.413l-1.564-2.23c-0.04-0.051-0.059-0.101-0.059-0.15v-0.44c0-0.083 0.015-0.137 0.045-0.164 0.031-0.026 0.093-0.04 0.186-0.04"/></g><g transform="matrix(31.025 0 0 -31.025 -128.59 173.4)"><path d="m0 0h0.439c0.204 0 0.35-0.06 0.439-0.18 0.09-0.119 0.134-0.317 0.134-0.592v-0.772c0-0.147-9e-3 -0.269-0.029-0.367-0.02-0.099-0.052-0.178-0.096-0.239-0.045-0.061-0.104-0.103-0.177-0.129-0.073-0.025-0.164-0.037-0.271-0.037h-0.439zm-0.648-3.067h1.232c0.582 0 0.98 0.249 1.195 0.745 0.05 0.115 0.084 0.23 0.104 0.346 0.02 0.117 0.029 0.264 0.029 0.442v0.724c0 0.204-9e-3 0.365-0.029 0.483s-0.054 0.228-0.104 0.332c-0.125 0.254-0.296 0.442-0.512 0.563-0.216 0.122-0.489 0.182-0.817 0.182h-1.098c-0.093 0-0.155-0.013-0.185-0.04s-0.046-0.081-0.046-0.163v-3.41c0-0.082 0.016-0.137 0.046-0.164 0.03-0.026 0.092-0.04 0.185-0.04"/></g></g></svg>
