<svg width="800" height="327.84" version="1.1" viewBox="0 48.245 800 327.84" xmlns="http://www.w3.org/2000/svg">
 <link rel="stylesheet" type="text/css"/>
 <link rel="stylesheet" type="text/css"/>
 <style lang="en" type="text/css"/>
 <style lang="en" type="text/css"/>
 <style lang="en" type="text/css"/>
 <g transform="matrix(.53597 0 0 -.53597 317.3 1418.2)">
  <path d="m900.61 2556.1-1492.6-0.095v-270.46l35.665-35.074-35.665-35.665v-270.46h1182.9v302.04h309.7zm-1454-38.744h533.2l-0.59034-215.77-40.42-40.424c-5.9443-6.5387-5.9443-16.642 0-22.586l40.42-40.424v-215.78h-532.61v213.99l42.202 42.206c6.5387 6.5387 6.5387 16.646 0 22.59l-42.202 42.202zm1295.2-8.7531c30.591 0 54.678-7.7683 74.157-33.759h7e-3c1.138-1.4638 1.9751-2.693 1.9751-4.3656v-59.683c0-1.602-0.66784-3.115-1.8257-4.2198l-60.984-50.635h57.416c2.9733 0 5.3897-2.4162 5.3896-5.3896v-45.792c0-2.9733-2.4164-5.386-5.3896-5.386h-141.49c-2.9733 0-5.3896 2.4127-5.3896 5.386v37.498c0 1.6106 0.67096 3.128 1.2572 3.6878l86.401 82.284c1.1382 1.1021 1.7965 2.6142 1.7965 4.2016v19.055c0 10.506-29.845 10.506-29.845 0v-16.158c0-2.9733-2.4165-5.386-5.3896-5.386h-48.831c-2.9733 0-5.3896 2.4127-5.3896 5.386v35.151c0 1.6726 0.8113 3.0271 1.9751 4.3656 23.22 25.082 49.444 33.759 74.157 33.759zm-472.47-51.272c0.59443 0 1.1876 4e-4 1.782-0.594 0 0-4.4e-4 -0.594 0.59399-0.594l11.293-60.634c0-0.5945 4.4e-4 -1.1876-0.59399-1.782h-0.59399c-10.105-1.7833-19.617-5.352-28.533-11.891-8.9165-5.9443-15.454-13.67-20.804-22.586 0 0 4.4e-4 -0.594-0.59399-0.594-0.59443-0.5944-1.1876-0.5944-1.782 0l-53.499 30.909-0.59399 0.594c-0.59286 0-0.59337 0.5951-4e-3 1.188 9.5109 16.644 22.587 31.506 39.232 43.394s35.075 19.023 54.097 22.59zm37.447-14.861c12.483 0 24.966-1.7829 37.45-5.3495 19.616-5.9443 36.853-15.456 51.713-28.533 0.59443-0.5944 0.59399-1.1876 0.59399-1.782v-0.5939l-40.42-46.368c-0.59443-0.5944-1.1876-0.594-1.782-0.594h-0.59399c-7.7276 6.5387-16.646 11.889-26.751 14.861-10.105 2.9718-20.803 3.5654-30.315 1.782h-0.59399c-0.59443 0-1.1916 0.5935-1.1916 1.188l-10.105 62.416c0 0.5944 0.59719 1.188 1.1916 1.188 6.5387 1.1888 13.671 1.7856 20.804 1.7856zm-152.77-53.499h0.59763l54.687-29.127c0.59443 0 1.1884-0.5931 0.59399-1.782v-0.5939c-4.7555-8.9166-7.7287-19.022-8.3231-29.721-0.59442-10.699 1.1889-20.807 4.7555-30.319v-0.594c0-0.5945-0.59354-1.188-1.188-1.188l-57.66-21.992h-0.59399c-0.59443 0-1.188 0.5935-1.188 1.188-5.9443 15.455-9.5111 32.099-9.5111 49.337v7.7254c1.1889 20.21 7.1325 39.829 16.049 56.473 0.59443 0.5944 1.1876 0.5939 1.782 0.5939zm239.56-2.9808h1.782c14.266-13.078 25.56-29.127 33.289-48.149 5.9443-19.616 9.5121-39.233 8.3231-58.254h-4e-3c0-0.5944-0.59355-1.188-1.188-1.188h-0.59399l-61.822 2.9736c-0.59443 0-1.188 0.5935-1.188 1.188v0.5939c0.59443 10.105-1.1889 20.209-4.7555 30.315-4.1611 10.105-10.104 18.427-17.237 24.966 0 0 4.4e-4 0.5976-0.59399 0.5976 0 0.5944-4.4e-4 1.1876 0.59399 1.7819l42.8 44.582zm-124.83-38.037c-1.7832-1.1888-3.5663-2.9721-5.3495-4.7555h4.1616c4.161 0 8.3204-1.1872 11.887-2.376l1.782-14.267 1.7856 14.267c4.7555 1.7833 8.9141 2.376 13.075 2.376h4.1656c-1.1889 1.1888-2.9717 3.5667-5.3495 4.7555 10.7-2.972 20.21-10.103 26.154-19.018-1.7832 1.1889-4.1603 2.3749-5.9435 3.5639 0.59443-1.1888 1.1876-2.3781 1.782-4.1615 1.1889-4.1611 1.7824-8.3204 1.188-11.887l-13.079-5.9435 14.267 2.97c2.3777-2.9721 4.7583-6.5381 5.9472-10.699 0.59443-1.1889 0.59355-2.9726 1.188-4.1616 0.59443 1.7833 2.3755 4.164 2.9699 5.9472v-1.1916c0-10.7-3.5664-20.802-10.105-28.53 0.59443 1.7832 1.1916 4.7542 1.1916 6.5375-1.1889-1.1889-2.3786-1.7848-3.5676-2.9736-3.5666-2.3777-7.1324-4.1611-10.699-4.7555l-10.105 10.703 7.1315-12.485c-1.7832-2.9721-4.7565-6.5393-8.3231-8.9171-1.1889-1.1889-2.3749-1.7815-3.5639-2.376 1.7832-0.5944 4.1598-0.5939 6.5375-0.5939-4.7555-1.7833-10.105-2.9736-16.049-2.9736-5.3499 0-10.699 1.1903-16.049 2.9736 2.3777 0 4.7543 0.5939 6.5375 0.5939-1.1889 0.5945-2.3786 1.1872-3.5676 2.376-3.5666 2.3777-6.5399 5.9449-8.3231 8.9171l7.1351 12.485-10.105-10.703c-3.5666 0.5944-7.1324 2.3777-10.699 4.7555-1.1889 0.5944-2.3786 1.7847-3.5676 2.9736 0-1.7833 0.59354-4.1599 1.188-6.5375-6.5387 7.7275-10.105 17.83-10.105 28.53v1.1916c0.59443-2.3777 1.7848-4.1639 2.9736-5.9472 0 1.1889 0.59354 2.9726 1.188 4.1616 1.1889 4.161 3.5659 7.7268 5.9435 10.699l14.267-2.97-13.079 5.9435c-0.59443 3.5667 3e-3 7.726 1.1916 11.887 0.59443 1.1888 1.1876 2.9725 1.782 4.1615-1.7832-0.5944-4.1603-1.7805-5.9435-3.5639 5.9443 8.9165 15.454 16.046 26.154 19.018zm-77.871-66.578h1.7856s-4.4e-4 -0.594 0.59399-0.594c4.1611-9.5109 9.509-17.833 17.831-24.966 7.7276-7.1332 17.237-11.889 26.748-14.861h0.59763c0.59443-0.5944 0.59399-1.1875 0.59399-1.7819l-18.428-58.848s4.4e-4 -0.594-0.59399-0.594c-0.59443-0.5944-1.1876-0.594-1.782-0.594-18.427 5.3499-35.668 14.858-51.123 28.53-14.86 12.483-26.154 29.128-33.883 46.962 0 0.5944-4.4e-4 1.1876 0.59399 1.7819l0.59763 0.5977zm163.47-8.3267 61.228-4.7519h0.59398c0.59443-0.5945 0.59399-1.1912 0.59399-1.7856-1.1889-19.021-6.5377-38.042-16.643-56.469-9.5109-17.238-22.588-32.1-38.638-43.394-0.59443-0.5944-1.1876-0.5944-1.782 0 0 0-0.59399-4e-4 -0.59399 0.594l-36.262 49.931c-0.59443 0.5944-0.59443 1.1912 0 1.7856 0 0-4.4e-4 0.594 0.59399 0.594 8.322 5.9443 15.455 13.67 20.21 23.18 5.3499 9.5109 7.7281 19.617 8.9171 29.127v0.594c0 0.5944 1.1876 0.594 1.782 0.594zm-52.307-44.578h0.59399c0.59443 0 1.1876 4e-4 1.782-0.594l34.48-51.123 0.59399-0.594c0-0.5944 4.4e-4 -1.1876-0.59399-1.782-16.049-10.7-34.477-18.429-54.093-21.996-20.21-2.3777-40.422-1.1884-58.848 4.1616-0.59443 0-1.1916 0.5935-1.1916 1.1879v0.594l16.646 59.446c0 0.5944 0.59355 1.188 1.188 1.188h0.59399c9.5109-2.9721 20.209-3.569 30.315-1.7856 10.7 1.7832 20.211 5.9468 28.533 11.297zm-1.782-100.46c5.3499 0 10.105-4.1608 10.105-10.105-0.59443-5.9443-4.7584-10.105-10.703-10.105-5.3499 0-9.5074 4.1607-9.5074 10.105 0 5.3499 4.1608 10.105 10.105 10.105zm-165.85-11.293h17.831v-52.905h21.398l4e-3 -15.455h-39.232zm110.56 0h17.834v-52.905h21.398v-15.455h-39.232zm-42.202-11.891c6.5387 0 10.7-2.3765 15.455-6.5375v5.3495h16.643v-55.281h-16.643v5.3495s-5.9432-6.5375-16.643-6.5375c-15.455 0-25.56 10.698-25.56 28.53 0 15.455 11.293 29.127 26.748 29.127zm202.11 0c6.5387 0 10.7-2.3765 15.455-6.5375v5.3495h16.643v-55.281h-16.643v5.3495s-5.9432-6.5375-16.643-6.5375c-15.455 0-25.56 10.698-25.56 28.53 0 15.455 11.293 29.127 26.748 29.127zm-64.792-1.188c7.1331 0 11.888-2.3797 16.643-7.1351v5.9471h16.049v-47.555c0-17.238-13.669-26.154-29.124-26.154-13.672 0-24.968 7.134-26.751 19.022h18.428c2.3777-3.5666 4.756-4.7555 8.9171-4.7555 5.9443 0 11.293 2.9726 11.293 8.9171v4.1579c-2.9721-2.9721-8.9163-6.5375-15.455-6.5375-14.266 0-23.778 11.888-23.778 26.748s9.512 27.345 23.778 27.345zm-48.743-0.594h16.643v-54.687h-16.643z"/>
 </g>
 <g transform="matrix(.79251 0 0 .79251 0 10.018)" stroke-width="4.0201">
  <path d="m321.61 232.37c0-0.40201-0.40201-0.80402-0.40201-1.608l-34.975-105.73c-0.80402-2.4121-1.608-4.0201-2.8141-4.4221-0.80402-0.80402-2.4121-1.206-4.8241-1.206h-19.296c-2.01 0-4.0201 0.40201-4.8241 1.206-1.206 0.80402-2.01 2.4121-2.4121 4.4221l-35.377 105.73c-0.40201 0.40201-0.80402 1.608-0.80402 3.2161 0 2.4121 1.608 4.0201 4.8241 4.0201h17.688c0.80402 0 1.608-0.40201 2.01-0.80402s0.80402-1.206 1.206-2.01 0.80402-2.01 1.206-3.6181l5.6281-18.492h39.799l5.6281 18.09c0.40201 1.608 0.80402 2.8141 1.206 3.6181s0.80402 1.608 1.608 2.01c0.40201 0.40201 1.206 0.80402 2.01 0.80402h18.492c3.2161 0 4.8241-1.206 4.8241-4.0201-0.40201-0.40201-0.40201-1.206-0.40201-1.206zm-67.136-41.005 13.668-44.623 13.668 44.623z"/>
  <path d="m685.43 373.07c0 5.2261-4.0201 9.2462-9.2462 9.2462s-8.4422-4.4221-8.4422-9.2462 3.2161-8.8442 8.8442-8.8442c4.8241-0.40201 8.8442 3.6181 8.8442 8.8442zm-44.623-1.206c0 4.0201-3.2161 8.8442-8.4422 8.8442-4.8241 0-7.6382-4.0201-7.6382-8.8442 0-4.4221 2.4121-8.8442 7.6382-8.8442 5.6281 0 8.4422 4.0201 8.4422 8.8442zm-92.06 1.206c0 5.2261-4.0201 9.2462-9.2462 9.2462s-8.4422-4.4221-8.4422-9.2462 3.2161-8.8442 8.8442-8.8442c4.8241-0.40201 8.8442 3.6181 8.8442 8.8442zm-237.59-93.668v105.73c0 2.4121-0.40201 4.0201-1.608 5.2261-0.80402 0.80402-2.8141 1.206-5.6281 1.206h-10.452c-3.2161 0-5.2261-0.40201-6.8342-1.206s-2.4121-2.4121-4.0201-5.2261l-32.965-63.116v62.714c0 2.4121-0.40201 4.0201-1.206 5.2261-0.80402 0.80402-2.8141 1.206-5.6281 1.206h-11.256c-2.8141 0-4.8241-0.40201-5.6281-1.206s-1.206-2.4121-1.206-5.2261v-105.33c0-2.4121 0.40201-4.4221 1.206-5.2261s2.8141-1.206 5.6281-1.206h10.452c3.2161 0 5.6281 0.40201 6.8342 1.206s2.4121 2.4121 4.0201 5.2261l32.965 62.714v-62.714c0-2.4121 0.40201-4.4221 1.206-5.2261s2.8141-1.206 5.6281-1.206h11.256c2.8141 0 4.8241 0.40201 5.6281 1.206s1.608 2.4121 1.608 5.2261zm-121.81-126.63c-0.40201-3.6181-1.608-7.2362-3.2161-10.452-4.0201-8.0402-9.2462-13.668-15.678-17.286-6.8342-3.6181-15.276-5.6281-25.327-5.6281h-34.573c-2.8141 0-4.8241 0.40201-5.6281 1.206s-1.608 2.4121-1.608 5.2261v105.33c0 2.4121 0.40201 4.0201 1.608 5.2261 0.80402 0.80402 2.8141 1.206 5.6281 1.206h38.191c18.09 0 30.553-7.6382 36.985-23.317 1.608-3.6181 2.8141-7.2362 3.2161-10.854 0.80402-3.6181 0.80402-8.0402 0.80402-13.668v-22.513c0.40201-6.0302 0-10.854-0.40201-14.472zm-27.337 37.789c0 4.4221-0.40201 8.4422-0.80402 11.256-0.80402 3.2161-1.608 5.6281-2.8141 7.2362-1.206 2.01-3.2161 3.2161-5.6281 4.0201s-5.2261 1.206-8.4422 1.206h-13.668v-71.96h13.668c6.4322 0 10.854 2.01 13.668 5.6281s4.0201 10.05 4.0201 18.492zm443.42 24.523-5.6282 16.482h-16.884l-5.6281-16.482 14.07-10.05zm-415.28 159.2v10.05c0 3.2161-0.40201 4.8241-1.206 6.0302-0.80402 0.80402-2.4121 1.206-4.8241 1.206h-73.568c-2.8141 0-4.8241-0.40201-5.6281-1.206s-1.608-2.4121-1.608-5.2261v-13.668c0-1.608 0.80402-3.2161 2.01-4.8241l48.643-69.146h-43.819c-2.4121 0-4.0201-0.40201-4.8241-1.608-0.80402-0.80402-1.206-2.8141-1.206-6.0302v-10.05c0-2.8141 0.40201-4.8241 1.206-6.0302 0.80402-0.80402 2.4121-1.206 4.8241-1.206h71.156c2.8141 0 4.8241 0.40201 5.6281 1.206s1.206 2.4121 1.206 5.2261v13.266c0 0.80402 0 1.608-0.40201 2.4121s-0.80402 1.608-1.608 2.8141l-49.045 69.146h46.633c2.4121 0 4.4221 0.40201 4.8241 1.608 1.206 0.80402 1.608 2.8141 1.608 6.0302z"/>
 </g>
</svg>
