<svg width="800" height="412.94" version="1.1" viewBox="0 0 800 412.94" xml:space="preserve" xmlns="http://www.w3.org/2000/svg"><g transform="matrix(1.3333 0 0 -1.3333 -400.81 3408.1)"><path d="m300.61 2556.1v-136.96l17.891-17.892-17.891-17.892v-136.96h600v309.71zm19.414-19.414h270.88v-108.26l-21.47-21.47c-3.1975-3.1975-3.1975-8.2991 0-11.497l21.47-21.468v-108.26h-270.88v108.26l21.47 21.468c3.1975 3.1975 3.1975 8.2992 0 11.497l-21.47 21.47zm495.93-61.832c1.138-1.4638 1.9741-2.6939 1.9741-4.3665v-59.684c0-1.602-0.66555-3.1141-1.8234-4.2189l-60.986-50.636h57.419c2.9733 0 5.3901-2.4153 5.39-5.3887v-45.79c0-2.9733-2.4168-5.3886-5.39-5.3886h-141.49c-2.9733 0-5.3902 2.4153-5.3902 5.3886v37.495c0 1.6106 0.67275 3.1296 1.259 3.6894l86.401 82.285c1.1382 1.1021 1.7956 2.6124 1.7956 4.1998v19.056c0 10.506-29.844 10.506-29.844 0v-16.157c0-2.9733-2.417-5.3886-5.3901-5.3886h-48.831c-2.9733 0-5.3902 2.4153-5.3902 5.3886v35.15c0 1.6726 0.8103 3.0281 1.9741 4.3666 23.22 25.082 49.445 33.759 74.158 33.759 30.591 0 54.68-7.7684 74.159-33.759zm-432.59 28.257c-2.1317 0-3.5774-0.3049-4.2626-0.914-0.68528-0.609-1.066-1.903-1.066-3.8064v-79.177c0-1.9033 0.38077-3.1973 1.066-3.8064 0.68514-0.609 2.1308-0.9139 4.2626-0.9139h28.626c13.552 0 22.84 5.7095 27.788 17.282 1.142 2.6646 1.9793 5.3298 2.4361 8.0706 0.45681 2.7407 0.68589 6.166 0.68589 10.277v16.826c0 4.7202-0.22908 8.4517-0.68589 11.192-0.38065 2.6646-1.218 5.2528-2.5122 7.6128-2.893 5.9384-6.8521 10.278-11.877 13.095-5.0248 2.817-11.344 4.2627-18.958 4.2627zm111.38 0c-1.675 0-2.893-0.2275-3.6543-0.8365-0.7613-0.5329-1.3696-1.6751-1.9025-3.35l-26.418-79.103c-0.38065-0.4568-0.5337-1.294-0.5337-2.5122 0-1.9033 1.1422-2.8926 3.5023-2.8926h10.811c0.98977 0 1.8272 0.076 2.4362 0.1522 0.60899 0 1.0669 0.2291 1.5237 0.6098 0.38066 0.3807 0.68404 0.8371 0.98853 1.5222 0.30462 0.6091 0.60937 1.5225 0.91399 2.5884l4.112 13.855h29.767l4.188-13.551c0.3045-1.142 0.68404-2.0552 0.98853-2.7403 0.38078-0.6091 0.76143-1.1416 1.1421-1.5222 0.45681-0.3807 0.99076-0.61 1.5237-0.6859 0.53297-0.077 1.2932-0.1521 2.2066-0.1521h11.573c2.3602 0 3.5022 0.9892 3.5022 2.8924 0 0.5331-1.3e-4 0.9136-0.0757 1.1421-0.0757 0.4567-0.22933 0.9134-0.38164 1.2941l-26.189 79.027c-0.60912 1.7511-1.2186 2.8933-1.98 3.4262-0.68503 0.5329-1.9034 0.8365-3.5783 0.8365zm-96.231-17.358h10.201c4.7203 0 8.147-1.4472 10.203-4.188 2.0556-2.8169 3.1206-7.3842 3.1206-13.779v-17.968c0-3.426-0.22759-6.2429-0.6844-8.5268-0.45668-2.284-1.1422-4.1104-2.2081-5.5568-1.0658-1.3703-2.4356-2.3608-4.1105-2.9699-1.7511-0.533-3.8078-0.838-6.3201-0.838h-10.201zm102.7-3.122 10.201-33.497h-20.174zm-118.23-94.632c-1.9032 0-3.1211-0.3808-3.7304-1.066-0.53283-0.6853-0.83795-2.1308-0.83783-4.4148v-7.5382c0-2.2079 0.22884-3.7295 0.83783-4.4148 0.53309-0.6852 1.8271-1.0659 3.7304-1.0661h32.813l-36.315-51.77c-0.91361-1.2183-1.3702-2.3603-1.3702-3.5023v-10.201c0-1.9032 0.38077-3.1974 1.0659-3.8064 0.76131-0.609 2.2085-0.9138 4.3402-0.9138h54.815c1.9033 0 3.1211 0.3807 3.7302 1.066 0.53296 0.6852 0.83795 2.1307 0.83795 4.4147v7.4622c0 2.2078-0.22883 3.7295-0.83795 4.4147-0.60912 0.7613-1.827 1.0658-3.7302 1.1421h-35.021l36.848 51.77c0.60912 0.8375 0.98977 1.4471 1.1421 1.9799 0.15256 0.533 0.22809 1.0652 0.22809 1.7505v9.9729c0 1.9034-0.37941 3.1973-1.0646 3.8064-0.76142 0.6091-2.2084 0.914-4.3401 0.914zm91.13 0c-2.1317 0-3.5774-0.3049-4.2627-0.914-0.68515-0.6091-1.066-1.903-1.066-3.8064v-79.177c0-1.9034 0.30475-3.1974 0.99002-3.8065 0.68515-0.609 2.0548-0.9139 4.2627-0.9139h8.4507c2.1317 0 3.579 0.3049 4.2641 0.9139 0.68527 0.6091 1.066 1.9031 1.066 3.8065v47.05l24.666-47.202c0.98977-1.9794 1.9789-3.2734 2.8925-3.8063 0.98977-0.5331 2.666-0.8379 5.026-0.8379h7.6888c2.1317 0 3.5789 0.3048 4.2642 0.9138 0.68515 0.609 1.0646 1.9032 1.0646 3.8064v79.253c0 1.9034-0.37941 3.1973-1.0646 3.8064-0.68527 0.6091-2.1325 0.914-4.2642 0.914h-8.3746c-2.1317 0-3.5776-0.3049-4.2627-0.914-0.68527-0.6091-1.066-1.903-1.066-3.8064v-46.974l-24.668 47.05c-0.98977 1.9794-1.9789 3.2735-2.8924 3.8064-0.98977 0.5329-2.6646 0.8379-5.0246 0.8379z"/></g></svg>
