<svg id="a" width="800" height="400" version="1.1" viewBox="0 0 211.67 105.83" xmlns="http://www.w3.org/2000/svg">
 <g id="b" transform="translate(21.319 -45.155)">
  <g id="c" transform="matrix(8.6628 0 0 -8.6628 -3664.2 5926)">
   <path id="d" d="m428.04 674.64 0.393 1.322 0.403-1.322h-0.796m1.959-1.155-1.031 3.12-0.078 0.135-0.143 0.032h-0.569l-0.145-0.035-0.076-0.132-1.041-3.12-0.019-0.098c0-0.075 0.045-0.113 0.137-0.113h0.427l0.096 5e-3 0.059 0.025 0.039 0.059 0.037 0.103 0.162 0.545h1.173l0.167-0.535 0.039-0.109 0.044-0.061 0.06-0.027 0.088-5e-3h0.456c0.092 0 0.138 0.038 0.138 0.113l-3e-3 0.047-0.017 0.051m-0.506-1.256h-0.329l-0.169-0.036-0.042-0.15v-1.852l-0.972 1.857-0.115 0.149c-0.038 0.022-0.104 0.032-0.199 0.032h-0.304l-0.17-0.036-0.042-0.15v-3.124l0.04-0.15 0.167-0.037h0.334l0.169 0.037 0.042 0.15v1.856l0.972-1.861 0.115-0.15c0.037-0.022 0.104-0.032 0.199-0.032h0.304l0.17 0.037 0.041 0.15v3.124l-0.041 0.15-0.17 0.036m1.631 0.296 0.847-0.847v-4.269h-10.685v4.269l0.846 0.847c0.126 0.125 0.126 0.328 0 0.453l-0.846 0.847v4.27h10.685v-4.269l-0.847-0.847c-0.126-0.125-0.126-0.328 0-0.454m1.613 6.335h-12.217v-5.402l0.706-0.706-0.706-0.706v-5.403h12.217v5.403l-0.706 0.706 0.706 0.706v5.402m-6.785-9.401h-1.38l1.453 2.043 0.044 0.079 0.01 0.069v0.393l-0.042 0.15-0.17 0.036h-2.098l-0.148-0.041-0.035-0.175v-0.294l0.035-0.175 0.148-0.042h1.295l-1.433-2.043-0.055-0.138v-0.402l0.042-0.15 0.17-0.037h2.164l0.148 0.041 0.034 0.175v0.295l-0.034 0.174-0.148 0.042m-0.643 5.211c0-0.135-9e-3 -0.247-0.027-0.337l-0.088-0.219-0.162-0.118c-0.067-0.023-0.15-0.034-0.248-0.034h-0.402v2.122h0.402c0.187 0 0.321-0.055 0.403-0.165 0.081-0.109 0.122-0.29 0.122-0.542v-0.707m0.702 1.419c-0.114 0.233-0.27 0.405-0.469 0.516-0.198 0.111-0.447 0.167-0.748 0.167h-1.006l-0.17-0.037-0.042-0.15v-3.124l0.042-0.15 0.17-0.037h1.129c0.533 0 0.898 0.228 1.094 0.683 0.046 0.105 0.078 0.21 0.096 0.317s0.027 0.242 0.027 0.405v0.663c0 0.187-9e-3 0.335-0.027 0.442-0.018 0.109-0.05 0.21-0.096 0.305" fill="#001524"/>
   <path id="e" d="m437.76 666.64h-5.03v5.402l-0.706 0.705v1e-3l0.706 0.706v5.402h7.598l-2.568-1.434v-2.674l1.76 0.703v-6.3h-1.76v-2.511" fill="#626a76"/>
   <path id="f" d="m443.38 669.15h1.573v9.705h-1.573z" fill="#626a76"/>
  </g>
 </g>
</svg>
