<svg width="800" height="286.2" version="1.1" viewBox="0 0 211.67 75.723" xmlns="http://www.w3.org/2000/svg">
 <path class="logo-icon-bg" d="m0 75.723h75.723v-75.723h-75.723z" fill="#006464" stroke-width="1.2813"/>
 <path class="logo-icon-icon" d="m37.738 31.56 6.5455 5.9262v6.0147h-3.0073v-5.7494h-6.8109v5.7494h-3.2727v-6.0147zm-0.08847-2.8304-8.4916 7.7836v9.0217h7.3418v-5.8377h2.6535v5.8377h7.0763v-9.0217zm0.21229-7.2001c-9.0217 0-16.328 7.3148-16.328 16.328 0 9.0217 7.3062 16.337 16.328 16.337 9.0132 0 16.328-7.3148 16.328-16.337 0-9.0132-7.3148-16.328-16.328-16.328zm0 30.427c-7.7836 0-14.09-6.3154-14.09-14.098 0-7.7751 6.3066-14.09 14.09-14.09s14.09 6.3154 14.09 14.09c0 7.783-6.3067 14.098-14.09 14.098z" fill="#fff" stroke-width=".88453"/>
 <g transform="matrix(.98907 0 0 .98907 35.082 -74.996)" fill="#231f20">
  <g transform="matrix(.97766 0 0 .97766 -6.1337 85.264)">
   <path class="logo-icon-letters" d="m141.1 23.7c-1.1 0.8-1.8 1.9-2 3.2-0.3 1.8 0 3.1 0.9 4 0.4 0.4 0.8 0.7 1.2 1s0.8 0.6 1.3 0.8c0.4 0.2 0.8 0.4 1.2 0.7 0.4 0.2 0.7 0.4 1 0.7 0.2 0.1 0.7 0.5 0.4 1.9-0.1 0.6-0.4 1.1-0.9 1.4-0.5 0.4-1.1 0.5-1.7 0.4s-1-0.4-1.4-0.8l-0.6-0.8-2.9 2.1 0.6 0.8c1 1.3 2.2 2 3.8 2.2h0.1c1.5 0.1 2.9-0.2 4.1-0.8l0.1-0.1c1.4-0.9 2.1-2.2 2.4-3.8 0.3-1.9 0-3.3-0.8-4.3-0.7-0.8-1.5-1.4-2.5-2.1-0.8-0.5-1.6-0.9-2.3-1.4-0.2-0.2-0.5-0.5-0.4-1.4 0.1-0.4 0.2-0.6 0.6-0.9 0.3-0.2 0.7-0.3 1.1-0.2s0.7 0.3 1 0.6l0.5 0.7 2.9-2.1-0.5-0.8c-0.8-1.1-1.9-1.8-3.3-2.1-1.5 0-2.8 0.3-3.9 1.1"/>
   <path class="logo-icon-letters" d="m79.1 17.6h3.6v15.8c0 2.3-0.8 4.2-2.4 5.8-1.6 1.4-3.6 2.2-5.8 2.2s-4.2-0.7-5.8-2.2c-1.6-1.6-2.4-3.5-2.4-5.8v-2.4c0-2.3 0.8-4.2 2.4-5.8s3.6-2.4 5.8-2.4c1.3 0 2.5 0.3 3.5 0.9 0.4 0.2 0.7 0.4 1.1 0.7zm-7.8 19c0.9 0.9 2 1.4 3.3 1.4s2.3-0.4 3.2-1.3 1.4-2 1.4-3.3v-2.4c0-1.3-0.4-2.3-1.4-3.2-0.9-0.9-2-1.4-3.2-1.4-1.3 0-2.3 0.4-3.3 1.4-0.9 0.9-1.4 2-1.4 3.2v2.3c0 1.3 0.5 2.4 1.4 3.3zm15.7-11.3c-1.6 1.6-2.4 3.5-2.4 5.8v2.3c0 2.3 0.8 4.2 2.4 5.8 1.6 1.4 3.5 2.2 5.8 2.2s4.3-0.8 5.9-2.3l0.7-0.7-2.6-2.6-0.7 0.7c-0.9 1-2.1 1.5-3.4 1.5-1.2 0-2.3-0.4-3.3-1.3-0.8-0.8-1.2-1.6-1.3-2.6h12.9v-3c0-2.3-0.8-4.2-2.4-5.8s-3.5-2.4-5.8-2.4c-2.2-0.1-4.2 0.7-5.8 2.4m2.6 2.5c0.9-0.9 2-1.4 3.3-1.4s2.3 0.4 3.2 1.4c0.8 0.8 1.2 1.6 1.3 2.6h-9.1c0.1-1 0.5-1.9 1.3-2.6m15.6-2.5c-1.6 1.6-2.4 3.5-2.4 5.8v2.3c0 2.3 0.8 4.2 2.4 5.8 1.6 1.4 3.5 2.2 5.8 2.2s4.3-0.8 5.9-2.3l0.7-0.7-2.6-2.6-0.7 0.7c-1 1-2.1 1.5-3.4 1.5s-2.3-0.4-3.3-1.3c-0.9-0.9-1.4-2-1.4-3.3v-2.4c0-1.3 0.4-2.3 1.4-3.2 0.9-0.9 2-1.4 3.3-1.4 1.4 0 2.5 0.5 3.4 1.5l0.7 0.7 2.5-2.5-0.6-0.7c-1.6-1.7-3.6-2.6-5.9-2.6-2.2 0-4.2 0.8-5.8 2.5m15.8 0c-1.6 1.6-2.4 3.5-2.4 5.8v2.3c0 2.3 0.8 4.2 2.4 5.8 1.6 1.4 3.5 2.2 5.8 2.2 1.2 0 2.4-0.3 3.5-0.7 0.6-0.3 1.2-0.7 1.8-1.1 0.2 0.3 0.4 0.6 0.7 0.9 0.7 0.6 1.6 0.9 2.6 0.9h1.3v-3.6h-0.7c-0.9 0-1-1-1-1.7v-5c0-2.3-0.8-4.2-2.4-5.8s-3.5-2.4-5.8-2.4c-2.2-0.1-4.2 0.7-5.8 2.4m1.2 8v-2.3c0-1.3 0.4-2.3 1.4-3.2 0.9-0.9 2-1.4 3.3-1.4s2.3 0.4 3.2 1.4c0.9 0.9 1.4 2 1.4 3.2v2.3c0 1.3-0.4 2.3-1.4 3.3-0.9 0.9-2 1.4-3.2 1.4s-2.3-0.4-3.3-1.3c-1-1-1.4-2.1-1.4-3.4"/>
   <path class="logo-icon-letters" d="m152.8 25.3c-1.6 1.6-2.4 3.5-2.4 5.8v2.3c0 2.3 0.8 4.2 2.4 5.8 1.6 1.4 3.5 2.2 5.8 2.2 1.2 0 2.4-0.2 3.5-0.7 0.6-0.3 1.2-0.7 1.8-1.1 0.2 0.3 0.4 0.6 0.7 0.9 0.7 0.6 1.6 0.9 2.6 0.9h1.3v-3.6h-0.7c-0.9 0-1-1-1-1.7v-5c0-2.3-0.8-4.2-2.4-5.8s-3.6-2.4-5.8-2.4c-2.2-0.1-4.1 0.7-5.8 2.4m1.2 8v-2.3c0-1.3 0.4-2.3 1.4-3.2 0.9-0.9 2-1.4 3.3-1.4s2.3 0.4 3.2 1.4c0.9 0.9 1.4 2 1.4 3.2v2.3c0 1.3-0.4 2.3-1.4 3.3-0.9 0.9-2 1.4-3.2 1.4-1.3 0-2.3-0.4-3.3-1.3-0.9-1-1.4-2.1-1.4-3.4"/>
  </g>
  <g stroke-width=".34635">
   <path d="m160.98 119.97v-10.238h1.6468v4.3328h4.2913v-4.3328l1.6885-9e-5v10.238l-1.6885 1.5e-4v-4.4731h-4.2913v4.4731z"/>
   <path d="m170.07 109.73h2.6575c1.1236 0 2.2362 0.1131 3.2721 0.57504 2.9336 1.472 3.2938 5.9157 1.2261 8.2429-1.2272 1.2408-2.8882 1.4126-4.5617 1.4199h-2.5938v-10.238m1.6711 1.5448v7.1764h1.4106c1.0072 0 2.0114-0.12872 2.7508-0.87283 1.3335-1.4755 1.3126-3.9934-0.0346-5.4481-0.67793-0.71303-1.5969-0.85551-2.5318-0.85551z"/>
  </g>
 </g>
</svg>
