<svg version="1.1" viewBox="0 0 192.88 118.9" xmlns="http://www.w3.org/2000/svg">
 <g transform="translate(-203.12 -327.57)">
  <path transform="translate(203.12,327.57)" d="m54.844-0.0058594-54.844 31.875 0.015625 0.24609v54.891l54.838 31.893v-0.00586l0.003906 0.00586 54.838-31.893v-55.139l-0.00781 0.003906v-0.001953l-54.844-31.875z" fill="#c5030e"/>
  <path transform="translate(200 324.65)" d="m159 45v39h17.5c10.803 0 19.5-8.697 19.5-19.5s-8.697-19.5-19.5-19.5zm9 8h7.5c6.371 0 11.5 5.129 11.5 11.5s-5.129 11.5-11.5 11.5h-7.5z" fill="#1a1a1a"/>
  <path transform="translate(200 324.65)" d="m121 45v39h9v-15h15v15h9v-39h-9v15h-15v-15z" fill="#1a1a1a"/>
  <path d="m211 368.65v17h7.5c4.709 0 8.5-3.791 8.5-8.5s-3.791-8.5-8.5-8.5zm4 4h3.5c2.493 0 4.5 2.007 4.5 4.5s-2.007 4.5-4.5 4.5h-3.5z" fill="#fff"/>
  <path d="m229 368.65v17h12v-4h-8v-2.5h6.5v-4h-6.5v-2.5h8v-4z" fill="#fff"/>
  <path d="m245 368.65v17h12v-4h-8v-13z" fill="#fff"/>
  <path d="m258.5 368.65v9.5c0 4.155 3.345 7.5 7.5 7.5s7.5-3.345 7.5-7.5v-9.5h-4v9.5c0 1.939-1.561 3.5-3.5 3.5s-3.5-1.561-3.5-3.5v-9.5z" fill="#fff"/>
  <path d="m275 368.65 5.5 8.5-5.5 8.5h5l3-4.625 3 4.625h5l-5.5-8.5 5.5-8.5h-5l-3 4.625-3-4.625z" fill="#fff"/>
  <path d="m293 368.65v17h12v-4h-8v-2.5h6.5v-4h-6.5v-2.5h8v-4z" fill="#fff"/>
  <path transform="translate(200 324.65)" d="m11 63.5v21h5v-11.812l4.3438 6.8438h2.3125l4.3438-6.8438v11.812h5v-21h-5l-5.5 8.625-5.5-8.625z" fill="#fff"/>
  <path d="m236 388.15v12.5c0 4.986 4.014 9 9 9s9-4.014 9-9v-12.5h-5v12.5c0 2.216-1.784 4-4 4s-4-1.784-4-4v-12.5z" fill="#fff"/>
  <rect x="276.5" y="388.15" width="5" height="21" ry="0" fill="#fff"/>
  <path d="m295.03 387.65c-3.8985 0.17105-7.5753 2.4336-9.4062 6.1875-2.6632 5.4603-0.39779 12.024 5.0625 14.688s12.024 0.39779 14.688-5.0625l-4.4688-2.1875c-0.97152 2.0042-3.0295 3.375-5.4062 3.375-3.3137 0-6-2.6863-6-6s2.6863-6 6-6c2.3767 0 4.4347 1.3708 5.4062 3.375l4.4688-2.1875c-1.0759-2.206-2.8565-3.9866-5.0625-5.0625-1.7063-0.83224-3.5092-1.2028-5.2812-1.125z" fill="#fff"/>
  <path d="m268.84 394.97 4.8741-1.375c-1.0576-2.2356-2.622-5.9076-8.3589-5.9076-4.6628 0-7.908 2.3936-7.8987 6.5259 0.0163 7.2358 10.926 6.1794 10.935 9.138 4e-3 1.2255-1.3756 2.0371-2.7036 1.9902-1.5543-0.0548-2.7932-0.78748-4.6402-3.417l-4.5464 1.7112c1.5218 3.233 3.6166 6.0076 8.8772 6.0076 5.6829 0 8.2107-2.6239 8.209-6.3621-4e-3 -7.3206-10.876-6.5088-10.859-9.667 6e-3 -1.0961 0.77416-1.5082 2.6389-1.3339 1.5922 0.14884 2.8374 1.4974 3.4719 2.6897z" fill="#fff"/>
 </g>
</svg>
