<svg data-name="Ebene 1" version="1.1" viewBox="0 0 381.07 76.33" xmlns="http://www.w3.org/2000/svg">
 <defs>
  <style>.cls-1{fill:none;}.cls-2{fill:#ed1c29;}.cls-3{fill:#fff;}.cls-4{clip-path:url(#a);}.cls-5{fill:url(#c);}.cls-6{fill:#ec1f2a;}.cls-7{fill:url(#b);}</style>
  <clipPath id="a" transform="translate(0 .04)">
   <path class="cls-1" d="m85.81 35.85a13.94 13.94 0 1 1 9 17.57 13.94 13.94 0 0 1-9-17.57z" fill="none"/>
  </clipPath>
  <radialGradient id="c" cx="92.39" cy="1874.2" r="20.86" gradientTransform="translate(.03 -1840.5)" gradientUnits="userSpaceOnUse">
   <stop stop-color="#e2e2e2" offset=".22"/>
   <stop stop-color="#dee0e1" offset=".35"/>
   <stop stop-color="#d3dcdf" offset=".47"/>
   <stop stop-color="#c1d4dc" offset=".59"/>
   <stop stop-color="#a7c9d7" offset=".7"/>
   <stop stop-color="#85bbd1" offset=".81"/>
   <stop stop-color="#5dabca" offset=".92"/>
   <stop stop-color="#3a9cc4" offset="1"/>
  </radialGradient>
  <radialGradient id="b" cx="92.51" cy="1874.2" r="7.54" gradientTransform="translate(.03 -1840.5)" gradientUnits="userSpaceOnUse">
   <stop stop-color="#fff" offset=".43"/>
   <stop stop-color="#fff" stop-opacity="0" offset="1"/>
  </radialGradient>
 </defs>
 <polygon class="cls-2" points="380.97 76.33 0 76.2 0.03 0 381 0.13" fill="#ed1c29"/>
 <polygon class="cls-3" points="195.06 22.7 195.06 53.84 201.28 53.84 201.28 22.7" fill="#fff"/>
 <polygon class="cls-3" points="246.12 22.7 246.12 38.47 239.39 22.7 234.08 22.7 234.08 53.84 240.11 53.84 240.11 37.83 246.97 53.84 252.15 53.84 252.15 22.7" fill="#fff"/>
 <path class="cls-3" d="m306.37 53.83-5.63-13.46c3.46-1.72 3.81-4.84 3.81-8.18 0-6-1.61-9.48-7.86-9.48h-9.95v31.12h6.26v-12.12h2l4.88 12.12zm-7.75-21.66c0 1.79-0.13 3.93-2.49 3.93h-3.13v-7.8h3.16c2.36 0 2.49 2.09 2.49 3.89z" fill="#fff"/>
 <path class="cls-3" d="m215.12 31.28c0-2.31 0.7-3.43 2.84-3.43s2.84 1.13 2.84 3.43v14c0 2.33-0.7 3.43-2.84 3.43s-2.84-1.13-2.84-3.43zm12 7c0-7.52 0.21-9.84-2.25-12.82a8.38 8.38 0 0 0-6.87-3.11 8.2 8.2 0 0 0-6.84 3.11c-2.49 3-2.25 5.28-2.25 12.82s-0.21 9.84 2.25 12.83a8.19 8.19 0 0 0 6.8 3.06 8.32 8.32 0 0 0 6.87-3.13c2.49-3 2.25-5.31 2.25-12.82z" fill="#fff"/>
 <path class="cls-3" d="m132.85 43.37h-5.23l2.63-13.54zm8.5 10.46-8-31.12h-6.22l-8 31.12h6.38l0.88-4.85h7.61l0.88 4.85z" fill="#fff"/>
 <polygon class="cls-3" points="257.92 22.7 257.92 28.31 262.77 28.31 262.77 22.7" fill="#fff"/>
 <polygon class="cls-3" points="276.79 22.7 276.79 28.31 281.65 28.31 281.65 22.7" fill="#fff"/>
 <path class="cls-3" d="m272.34 43.37h-5.23l2.63-13.54zm8.5 10.46-8-31.12h-6.22l-8 31.12h6.38l0.89-4.85h7.59l0.89 4.85z" fill="#fff"/>
 <polygon class="cls-3" points="170.63 22.7 170.63 28.23 176.96 28.23 176.96 53.84 183.16 53.84 183.16 28.23 189.48 28.23 189.48 22.7" fill="#fff"/>
 <polygon class="cls-3" points="166.24 22.7 160.04 22.7 153.82 36.09 153.82 22.7 147.6 22.7 147.6 53.84 153.82 53.84 153.82 45.61 155.56 41.98 161.35 53.84 168 53.84 159.32 36.41" fill="#fff"/>
 <path class="cls-3" d="m77.56 53.83-5.63-13.46c3.46-1.72 3.81-4.84 3.81-8.18 0-6-1.61-9.48-7.86-9.48h-9.95v31.12h6.19v-12.12h2.07l4.88 12.12zm-7.78-21.66c0 1.79-0.13 3.93-2.49 3.93h-3.17v-7.8h3.16c2.39 0 2.49 2.09 2.49 3.89z" fill="#fff"/>
 <path class="cls-3" d="m17.46 28.3h2.41c2.84 0 3.35 1.62 3.35 4.89v10.16c0 3.27-0.51 4.88-3.35 4.88h-2.41zm-6 25.53h9.44c5.52 0 8.45-3 8.45-9.41v-12.38c0-6.38-2.92-9.41-8.45-9.41h-9.47v31.2z" fill="#fff"/>
 <polygon class="cls-3" points="42.67 48.23 42.67 40.94 49.4 40.94 49.4 35.33 42.67 35.33 42.67 28.31 51.09 28.31 51.09 22.7 36.48 22.7 36.48 53.84 51.09 53.84 51.09 48.23" fill="#fff"/>
 <path class="cls-3" d="m84.21 35.39a15.65 15.65 0 1 1 10.06 19.71 15.65 15.65 0 0 1-10.09-19.66zm1.6 0.5a13.94 13.94 0 1 1 9 17.57 13.94 13.94 0 0 1-9-17.57z" fill="#fff"/>
 <g class="cls-4" clip-path="url(#a)">
  <circle class="cls-5" cx="99.2" cy="40.32" r="14.59" fill="url(#c)"/>
 </g>
 <g class="cls-4" clip-path="url(#a)" fill="#ec1f2a">
  <path class="cls-6" transform="translate(0 .04)" d="m103.43 52.18-0.24 0.17-0.13 0.22-0.11 0.12-0.27 0.17-0.16 0.19-0.21 0.11-0.16 0.08h-0.15l-0.21 0.35-0.13 0.35v0.22a7.52 7.52 0 0 0 0.91-0.22v-0.11l0.16-0.16 0.27-0.29 0.13-0.23 0.21-0.19 0.08-0.27v-0.22l0.11-0.16v-0.16h-0.16z"/>
  <polygon class="cls-6" points="99.44 29.76 99.25 29.78 99.09 29.78 98.82 29.81 98.77 29.94 98.77 30.13 98.9 30.24 99.04 30.35 99.33 30.51 99.63 30.45 99.92 30.24 99.95 30.02 100.03 29.92 99.95 29.73 99.63 29.65"/>
  <path class="cls-6" transform="translate(0 .04)" d="m95.66 28.79h0.24l0.4-0.05 0.21 0.09h0.32l0.21 0.11h0.32l0.27 0.11 0.2 0.13 0.27 0.18 0.21 0.09 0.13-0.09 0.08-0.16 0.19-0.3 0.29-0.07 0.32 0.08 0.43 0.13h0.83l0.58-0.1 0.16-0.3 0.24-0.48v-1.16l-0.21-0.11-0.3-0.18-0.11-0.19-0.27-0.3a15.31 15.31 0 0 0-2.79-0.07l-0.11 0.38v0.18l-0.11 0.14-0.08 0.22-0.11 0.16-0.21 0.11-0.21 0.14h-0.29l-0.24 0.05h-0.21l-0.19 0.16-0.19 0.27-0.13 0.19-0.16 0.22h-0.16l0.11 0.22z"/>
  <path class="cls-6" transform="translate(0 .04)" d="m87 43.74-0.14-0.16-0.13-0.11-0.11-0.16v-0.9l-0.24-0.11h-0.1l-0.16-0.11v-0.19l0.13-0.16 0.24-0.05 0.19-0.11 0.16-0.22v-1.11l0.07-0.22v-0.28l0.09-0.22-0.11-0.22v-0.24l-0.16-0.17v-0.4l-0.16-0.13v-0.47l0.05-0.13 0.08-0.3-0.16-0.19-0.11-0.18-0.19-0.09-0.19-0.11v-0.19l-0.13-0.27-0.51-0.37a13.87 13.87 0 0 0 0.83 10.14l0.19-0.22 0.11-0.28 0.19-0.22 0.32-0.32 0.22-0.54v-0.46l0.12-0.18-0.11-0.23z"/>
  <polygon class="cls-6" points="98.71 33.73 98.8 33.94 98.82 34.13 98.98 34.13 99.12 33.94 99.12 33.65 99.01 33.51 98.85 33.57"/>
  <polygon class="cls-6" points="99.84 33.57 99.76 33.4 99.92 33.24 99.87 33.05 99.65 33.14 99.52 33.38 99.49 33.54 99.39 33.7 99.55 33.83 99.47 33.97 99.41 34.1 99.3 34.21 99.17 34.26 99.09 34.4 99.2 34.48 99.33 34.61 99.6 34.58 99.81 34.64 99.97 34.56 99.95 34.4 99.89 34.23 99.95 34.02 100.03 33.89 99.97 33.7"/>
  <polygon class="cls-6" points="103.49 39.97 103.19 39.79 103 39.81 102.9 39.97 103.08 40.14 103.38 40.19 103.62 40.14"/>
  <path class="cls-6" transform="translate(0 .04)" d="m93.59 29.56h0.24l0.17-0.18-0.06-0.21v-0.88l0.11-0.16 0.19-0.23h0.13l0.13-0.16 0.27-0.13 0.16-0.13 0.19-0.11v-0.24l0.11-0.28-0.11-0.27a14.6 14.6 0 0 0-5.23 2.71l0.16 0.29 0.21 0.08 0.19 0.08 0.11 0.08 0.16 0.13 0.28 0.05h0.56l0.11-0.23v-0.14l-0.11-0.19h-0.24l-0.08-0.16 0.07-0.21 0.16 0.08h0.21l0.19 0.05 0.13-0.05 0.27 0.13 0.29 0.11 0.19 0.11v0.19h-0.21l-0.16 0.05-0.16 0.11v0.4l0.19 0.05 0.16-0.13h0.51l0.19-0.16 0.05-0.22-0.05-0.16 0.13-0.16z"/>
  <polygon class="cls-6" points="105.1 40.64 104.83 40.54 104.56 40.64 104.72 40.89 104.88 40.83 105.07 40.78"/>
  <path class="cls-6" transform="translate(0 .04)" d="m107.43 29-0.35 0.29v0.3l0.11 0.35-0.19 0.24-0.32 0.16-0.22-0.18-0.16 0.15-0.16 0.28-0.19 0.27-0.27 0.16v0.24l0.24 0.35-0.19 0.24-0.35 0.11-0.46-0.05-0.29-0.35 0.27-0.22 0.15-0.18v-0.28l-0.19-0.36h-0.4l-0.4-0.25-0.47-0.11-0.35 0.13-0.37 0.18-0.37 0.41-0.27 0.22-0.27 0.48-0.27 0.22-0.32 0.22-0.35 0.3v0.93l0.13 0.32h0.27l0.11-0.16h0.32l0.24-0.08v0.38l0.11 0.35h0.32l0.4-0.3 0.29-0.27v-0.28l-0.19-0.23v-0.62l0.46-0.59 0.24-0.29 0.08-0.3 0.16 0.11 0.11 0.46-0.16 0.32-0.13 0.27-0.21 0.18v0.32l0.2 0.37 0.13 0.24h0.38l0.08 0.24-0.21 0.13-0.21 0.19-0.4 0.13a0.39 0.39 0 0 0-0.16 0.32l-0.16 0.22-0.08 0.24-0.27-0.08-0.4 0.08h-0.43l-0.21-0.13v-0.22l0.19-0.24v-0.22l-0.32 0.05-0.16 0.15v0.25l-0.27 0.16-0.24 0.08h-0.24l-0.16 0.16-0.24 0.13-0.37 0.07-0.42-0.16h-0.6v0.77l-0.11 0.16-0.21 0.3a0.57 0.57 0 0 1-0.51 0l-0.35-0.16-0.21-0.14-0.19 0.19-0.16 0.31-0.24 0.41-0.13 0.38 0.11 0.21 0.19 0.22 0.21 0.27 0.21 0.48h0.27l0.4-0.13 0.46 0.05 0.16-0.35v-0.19l0.29-0.11 0.32-0.16h0.89l0.29-0.11 0.26 0.08 0.24 0.24 0.05 0.32 0.13 0.35v0.54l-0.4 0.24-0.27-0.24v0.35l0.27 0.24 0.4-0.08 0.13-0.27 0.32-0.16 0.23 0.24v-0.25l-0.11-0.34-0.13-0.25v-0.27l-0.08-0.25v-0.34l0.16-0.16 0.2 0.25v0.36l0.11 0.34 0.16 0.16v0.27l0.08 0.25 0.19 0.22 0.24 0.24 0.24-0.3 0.11-0.32-0.11-0.3 0.13-0.13h0.8l0.38-0.16v-0.52l0.16-0.13h0.24l0.29 0.09 0.05 0.3 0.14 0.14h0.27l0.4 0.09 0.24 0.11v0.27l-0.35 0.24-0.43 0.19-0.34 0.06-0.32-0.16h-0.77l-0.19 0.16v0.27l-0.08 0.24 0.27 0.4 0.35 0.09h0.84l0.38 0.11 0.16 0.19v0.22l-0.16 0.3-0.32 0.11-0.21 0.27-0.21 0.29-0.13 0.27-0.21 0.11-0.3-0.24-0.16-0.24-0.21-0.05-0.32-0.11-0.11-0.23-0.19-0.16-0.24 0.12-0.21 0.22-0.35-0.16-0.27-0.16-0.13 0.03-0.35-0.16-0.27-0.16-0.21-0.16-0.21-0.22 0.08-0.15-0.21-0.23-0.21-0.22h-0.29l-0.48-0.32-0.35-0.16h-0.67l-0.37-0.11-0.33-0.11-0.32-0.24-0.27 0.13-0.35 0.11-0.29 0.22h-0.35l-0.29 0.41-0.26 0.16-0.29 0.22h-0.43l-0.28 0.17-0.27 0.31-0.16 0.23-0.24 0.16-0.33 0.39-0.13 0.27-0.08 0.29v0.32l-0.05 0.34v0.23l-0.16 0.27-0.13 0.27 0.08 0.32v0.4l0.11 0.2 0.24 0.11v0.91l0.17 0.27 0.21 0.23v0.3l0.27 0.16v0.23l0.19 0.13 0.24 0.27 0.27 0.16 0.4-0.05 0.37 0.1 0.33 0.1h0.35l0.32 0.11 0.16 0.19 0.13 0.27 0.27 0.22-0.11 0.24-0.13 0.24-0.11 0.32 0.11 0.4v0.36l-0.08 0.29-0.11 0.24-0.13 0.27v0.21l-0.19 0.29-0.16 0.31h-0.24l-0.13 0.19v0.22l-0.06 0.29-0.16 0.3-0.21 0.37-0.08 0.24-0.16 0.27 0.08 0.22v0.84l0.08 0.12a13.4 13.4 0 0 0 3.57 0.34l0.59-0.32 0.21-0.11 0.24-0.16 0.13-0.19 0.27-0.27 0.11-0.24 0.27-0.26h0.59l0.16-0.35 0.27-0.24 0.13-0.32 0.08-0.24-0.08-0.29 0.13-0.27 0.11-0.24 0.27-0.11 0.16-0.13 0.08-0.24 0.19-0.16h0.27l0.24-0.16 0.27-0.19 0.08-0.29 0.29-0.22 0.27-0.24 0.28-0.1 0.43-0.14 0.56-0.08v-0.27l0.24-0.16 0.4-0.13 0.27-0.24 0.13-0.19v-0.11l0.29-0.35 0.24-0.37 0.16-0.22 0.27-0.24-0.13-0.27h-0.21l-0.32 0.16-0.27 0.11h-0.24l-0.27 0.13-0.24-0.08v-0.22l-0.26-0.45v-0.25l-0.08-0.29-0.26-0.32-0.24-0.23a0.66 0.66 0 0 0-0.21-0.29v-0.46l-0.21-0.52v-0.84l0.16-0.13 0.21 0.16 0.13 0.3 0.16 0.31 0.13 0.3v0.65l0.16 0.21 0.27 0.16 0.19 0.16 0.08 0.34v0.25l0.19 0.13 0.21-0.08 0.27-0.14 0.16-0.22 0.38-0.16 0.4-0.19 0.51-0.32 0.34-0.4 0.32-0.3 0.11-0.24-0.11-0.24-0.15-0.22v-0.23l-0.17-0.28-0.24 0.16h-0.27l-0.24-0.19-0.2-0.19-0.27-0.16-0.29-0.25-0.08-0.27 0.27-0.19 0.22 0.3 0.32 0.11 0.44 0.19h0.39l0.32 0.27 0.24 0.08 0.24-0.19 0.2-0.16 0.32-0.09 0.33 0.09 0.35 0.31 0.24 0.25 0.24 0.11 0.13 0.27-0.08 0.24 0.08 0.32v0.67l0.08 0.32 0.11 0.35 0.24-0.46 0.32-0.29 0.32-0.22a14.31 14.31 0 0 0-5.25-15zm1.85 10v0.24l0.08 0.16v0.24l-0.13 0.24-0.23 0.12-0.24-0.11-0.11-0.27a0.52 0.52 0 0 0 0-0.35 0.85 0.85 0 0 1-0.08-0.35v-0.3l-0.08-0.27-0.16-0.18v-0.45l0.13-0.22h0.35l0.24-0.13 0.35 0.27-0.13 0.22-0.21 0.31v0.37l0.21-0.08 0.24-0.09v0.45zm1.45-1.66-0.29 0.05-0.29-0.12v-0.37l0.19-0.12h0.27l0.16 0.16v0.23z"/>
  <polygon class="cls-6" points="100.54 37.96 100.32 37.99 100.19 38.23 100.22 38.53 100.32 38.58 100.48 38.44 100.48 38.23"/>
 </g>
 <g class="cls-4" clip-path="url(#a)">
  <circle class="cls-7" cx="92.3" cy="33.22" r="8.23" fill="url(#b)"/>
 </g>
 <path class="cls-3" d="m98.42 54.75-0.32-0.43a21.23 21.23 0 0 0 3.14-3 22 22 0 0 1-5.15-1l-1.19 3.72-0.51-0.17 1.18-3.62a21 21 0 0 1-4.75-2.28 19.42 19.42 0 0 0 0.78 4.29l-0.51 0.17a21.52 21.52 0 0 1-0.83-4.84 17.17 17.17 0 0 1-3.62-3.29 18.12 18.12 0 0 0 0.72 3.72l-0.5 0.19a18.14 18.14 0 0 1-0.8-4.67 11.39 11.39 0 0 1-1.5-3l0.51-0.16a9.91 9.91 0 0 0 1 2.17 17 17 0 0 1 1.23-5.9 10.2 10.2 0 0 1-1.3-3.12l0.51-0.13a10.16 10.16 0 0 0 1 2.57 16.78 16.78 0 0 1 3.24-4.8 4.05 4.05 0 0 1-0.14-2.64 1 1 0 0 1 0.22-0.36l0.43 0.31a1.12 1.12 0 0 0-0.11 0.25 3.25 3.25 0 0 0 0 2 17.65 17.65 0 0 1 3.62-2.75 1.88 1.88 0 0 1 0-1.38 2 2 0 0 1 0.43-0.71l0.38 0.39a1.47 1.47 0 0 0-0.32 0.5 1.56 1.56 0 0 0 0 1 15.72 15.72 0 0 1 2.74-1.14 17.4 17.4 0 0 1 2.47-0.59 1.12 1.12 0 0 1 0.7-0.35v0.24c0.38 0 0.75-0.08 1.15-0.11v0.54a11.78 11.78 0 0 0-1.56 0.16c-0.08 0.43 0.8 1.21 2.23 1.69a3.79 3.79 0 0 0 2.55 0.16 1.16 1.16 0 0 0 0.21-0.16 13.87 13.87 0 0 0-1.18-1l0.35-0.43c0.29 0.24 0.59 0.51 0.89 0.78l0.21-0.22a1 1 0 0 1 0.29 0.7 14.4 14.4 0 0 1 1.61 1.88 16.62 16.62 0 0 1 1.53 2.49 1.53 1.53 0 0 0 0.62-0.78 2.67 2.67 0 0 0 0.08-0.48h0.54a2.8 2.8 0 0 1-0.08 0.64 2 2 0 0 1-0.89 1.1 16.69 16.69 0 0 1 1.34 4.34 3.2 3.2 0 0 0 1.21-1.64 1.57 1.57 0 0 0 0.11-0.35l0.62 0.1a2 2 0 0 1-0.13 0.43 3.91 3.91 0 0 1-1.64 2.07 17.72 17.72 0 0 1 0 4.77c-0.05 0.32-0.11 0.67-0.19 1a9.91 9.91 0 0 0 2.39-1.5l0.35 0.41a11.07 11.07 0 0 1-2.87 1.74 17.7 17.7 0 0 1-2.47 5.5 10.25 10.25 0 0 0 2.14-1.21l0.32 0.43a11.19 11.19 0 0 1-3.06 1.56 18.21 18.21 0 0 1-3.38 3.3l-0.41-0.45a15.63 15.63 0 0 0 2.79-2.6 17.1 17.1 0 0 1-4.88 0.55 23.38 23.38 0 0 1-3.54 3.4zm3.89-3.92a15.67 15.67 0 0 0 5-0.75 16.65 16.65 0 0 0 2.76-5.6 17 17 0 0 1-4.85 0.86 20.19 20.19 0 0 1-2.94 5.49zm-6.06-1a21.69 21.69 0 0 0 5.42 0.94 20.1 20.1 0 0 0 3-5.44 23 23 0 0 1-6.65-1zm-5.45-2.55a19.78 19.78 0 0 0 4.93 2.41l1.83-5.52a21.83 21.83 0 0 1-6-3.07 19 19 0 0 0-0.78 6.22zm-4.18-4a16.22 16.22 0 0 0 3.62 3.59 20.38 20.38 0 0 1 0.86-6.16 16 16 0 0 1-3.43-3.54 16.32 16.32 0 0 0-1 6.15zm11.61 0.46a20.83 20.83 0 0 0 6.65 1c0.05-0.13 0.08-0.27 0.13-0.4a21.11 21.11 0 0 0 1-5.17 20.33 20.33 0 0 1-6-0.94zm8.31-4.57a22.81 22.81 0 0 1-1 5.43 1.43 1.43 0 0 1-0.08 0.22 15.33 15.33 0 0 0 4.83-0.93 9.88 9.88 0 0 0 0.24-1.32 17.5 17.5 0 0 0 0.08-4.4 9.21 9.21 0 0 1-4 1zm-14.8 1.36a21.28 21.28 0 0 0 6 3.11l1.8-5.6a20.66 20.66 0 0 1-5.39-2.76 20.58 20.58 0 0 0-2.29 4.86 1.35 1.35 0 0 0-0.11 0.34zm-3.83-4a15.89 15.89 0 0 0 3.35 3.64 0.19 0.19 0 0 1 0-0.16 22.42 22.42 0 0 1 2.36-5 9.67 9.67 0 0 1-2.62-3.16 0.24 0.24 0 0 1 0-0.12 18.16 18.16 0 0 0-3.09 4.8zm12.28 1.18a19.37 19.37 0 0 0 5.85 0.91 20.57 20.57 0 0 0-0.46-5 15.41 15.41 0 0 1-3.81-0.75zm5.93-4.07a19.87 19.87 0 0 1 0.46 4.93 9 9 0 0 0 4-1 16.31 16.31 0 0 0-1.31-4.4 7.07 7.07 0 0 1-3.12 0.47zm-11.7 1.21a18.21 18.21 0 0 0 5.26 2.7l1.58-4.83a18.37 18.37 0 0 1-3.51-1.68 19 19 0 0 0-3.33 3.81zm-3-3.51c0 0.08 0.08 0.19 0.13 0.27a8.89 8.89 0 0 0 2.45 2.9 20.91 20.91 0 0 1 3.27-3.75 7.66 7.66 0 0 1-2.27-2.23 15.82 15.82 0 0 0-3.61 2.8zm14.58 1.76a7 7 0 0 0 3-0.43 17 17 0 0 0-1.5-2.44 19.36 19.36 0 0 0-1.37-1.63 1.31 1.31 0 0 1-0.35 0.27 2.92 2.92 0 0 1-1.34 0.22 18.63 18.63 0 0 1 1.56 4.01zm-4.08-0.72a17.5 17.5 0 0 0 3.51 0.72 16.59 16.59 0 0 0-1.66-4.06l-0.7-0.16zm-3.75-1.66a17.72 17.72 0 0 0 3.25 1.5l1.15-3.54a3.76 3.76 0 0 1-0.62-0.27 15.46 15.46 0 0 0-3.79 2.31zm-2.67-2.44a6.63 6.63 0 0 0 2.2 2.11 16.72 16.72 0 0 1 3.67-2.35 2.18 2.18 0 0 1-1.13-1.39 14.89 14.89 0 0 0-2.07 0.51 16.12 16.12 0 0 0-2.69 1.09z" fill="#fff"/>
 <rect x="313.5" y=".12" width="67.57" height="76.2"/>
 <path class="cls-3" d="m322.54 28.23v-5.45h22.46v5.48h-8.2v25.91h-6.11v-25.94z" fill="#fff"/>
 <path class="cls-3" d="m346.46 22.78h6.33l6.3 20.39 6.3-20.41h6.38l-10.4 31.28h-4.58z" fill="#fff"/>
</svg>
