<svg width="211.67mm" height="106.84mm" version="1.1" viewBox="0 0 211.67 106.84" xmlns="http://www.w3.org/2000/svg">
 <defs>
  <clipPath id="a">
   <path d="m0 0h839.06v595.28h-839.06z"/>
  </clipPath>
 </defs>
 <g transform="translate(25.262 -46.154)">
  <g transform="matrix(4.5238 0 0 -4.5238 -2912.6 1009.3)">
   <g clip-path="url(#a)">
    <g transform="translate(641.5 195.31)">
     <path d="m0 0c-0.646-0.109-1.348-1.902-1.541-2.555-0.198-0.683-1.441-1.172-1.655 0.315-0.349 2.417 1.131 7.393 2.467 9.538 0.413 0.66 1.156 0.786 1.749 0.527 0.875-0.389 0.931-1.233 1.147-2.231 0.404-1.849 1.848-5.244 3.448-6.114 0.487-0.266 0.963-0.266 1.45 0 1.598 0.87 3.041 4.265 3.444 6.114 0.22 0.998 0.274 1.842 1.147 2.231 0.592 0.259 1.339 0.133 1.753-0.527 1.332-2.145 2.816-7.121 2.467-9.538-0.214-1.487-1.456-0.998-1.658-0.315-0.192 0.653-0.894 2.447-1.54 2.555-0.223 0.04-2.591-3.906-6.222-3.906-3.922 0-6.201 3.95-6.456 3.906" fill="#f58220"/>
    </g>
    <g transform="translate(642.52 206.93)">
     <path d="m0 0c-0.266-0.666-0.305-0.729-0.766-1.305-0.463-0.581-0.302-1.267 0.045-1.709 0.357-0.454 0.821-0.519 1.148-0.535 0.431-0.02 0.853 0.178 1.397 0.265 0.753 0.122 1.688 0.08 2.913 0.096 0.326 5e-3 0.659 8e-3 0.981 0 1.229-0.014 2.164 0.026 2.917-0.092 0.544-0.09 0.966-0.286 1.394-0.265 0.33 0.014 0.792 0.08 1.148 0.534 0.347 0.44 0.506 1.111 0.046 1.707-0.459 0.598-0.498 0.644-0.763 1.307-0.708 1.766-3.078 5.942-5.208 5.958-2.159 0.016-4.537-4.18-5.252-5.961m8.386-0.487c0.178-1.372-2.04-1.105-3.145-1.113-1.052-0.012-3.311-0.275-3.173 1.214 0.093 1.024 1.621 4.142 3.175 4.142 1.547 0 3.014-3.247 3.143-4.243" fill="#f58220"/>
    </g>
    <g transform="translate(648.9 208.52)">
     <path d="m0 0c0.356 0 0.639-0.283 0.639-0.638 0-0.349-0.283-0.637-0.639-0.637-0.346 0-0.634 0.288-0.634 0.637 0 0.355 0.288 0.638 0.634 0.638" fill="#f58220"/>
    </g>
    <g transform="translate(646.59 208.52)">
     <path d="m0 0c0.353 0 0.636-0.283 0.636-0.638 0-0.349-0.283-0.637-0.636-0.637s-0.639 0.288-0.639 0.637c0 0.355 0.286 0.638 0.639 0.638" fill="#f58220"/>
    </g>
    <g transform="translate(675.17 189.28)">
     <path d="m0 0c-2.913 0.062-2.289 9.199-2.15 11.3 0.09 1.383 0.405 2.415 1.661 2.559 1.198 0.132 1.758-0.916 1.652-1.541 2.699 2.854 7.389 1.609 8.297-1.775 0.79-2.076 0.428-4.496-1.091-6.139-1.742-1.879-5.102-2.294-7.195-0.751-0.2-0.968-0.212-1.831-0.116-2.678-0.016-0.616-0.36-0.972-1.058-0.975m4.004 11.104c-3.515 7e-3 -3.292-6.129-0.183-6.209 2.04-0.068 2.85 1.601 2.855 3.374 0 1.427-0.968 2.835-2.672 2.835" fill="#f58220"/>
    </g>
    <g transform="translate(678.71 207.03)">
     <path d="m0 0c-0.03-0.353-0.051-0.63-0.027-0.963 0.065-1.124 0.506-2.272 1.818-2.286 0.506-8e-3 0.881 0.185 1.155 0.48 0.13-0.21 0.069-0.52 0.438-0.549 0.207-0.015 0.4 0.094 0.46 0.521 0.075 0.554-0.023 2.352-0.264 3.052l-3e-3 -3e-3c-0.084 0.218-0.267 0.327-0.481 0.314-0.297-0.02-0.389-0.364-0.389-0.64-0.04-0.948-0.255-2.35-0.916-2.343-0.699 0.011-0.79 1.813-0.785 2.343 0 0.276-0.054 0.631-0.419 0.678-0.288 0.04-0.562-0.256-0.587-0.604" fill="#f58220"/>
    </g>
    <g transform="translate(673.93 207.03)">
     <path d="m0 0c-0.146-1.299 0.095-3.232 1.794-3.249 0.508-8e-3 0.883 0.185 1.156 0.48 0.13-0.21 0.069-0.52 0.437-0.549 0.207-0.015 0.402 0.094 0.461 0.521 0.075 0.554-0.023 2.352-0.266 3.052v-3e-3c-0.084 0.218-0.268 0.327-0.483 0.314-0.299-0.02-0.387-0.364-0.387-0.64-0.043-0.948-0.255-2.35-0.918-2.343-0.698 0.011-0.788 1.813-0.788 2.343 3e-3 0.276-0.052 0.631-0.414 0.678-0.291 0.04-0.592-0.21-0.592-0.604" fill="#f58220"/>
    </g>
    <g transform="translate(670.85 203.96)">
     <path d="m0 0c0.084 0.057 0.152 0.293 0.114 0.486-0.068 0.307-0.068 0.538-0.071 0.878 1.329-0.355 1.09-1.597 2.118-1.486 0.244 0.029 0.234 0.283 0.229 0.386-0.026 0.555-0.953 1.513-1.65 1.617 0.665 0.135 1.488 1.003 1.467 1.468 0 0.287-0.233 0.443-0.487 0.367-0.133-0.041-0.239-0.15-0.323-0.261-0.361-0.598-0.826-0.963-1.384-1.185-2e-3 0.166-7e-3 0.568 0 1.003 4e-3 0.304-0.144 0.502-0.483 0.48-0.395-0.024-0.494-0.318-0.543-0.662-0.093-0.659-0.053-1.885 0.135-2.525 0.142-0.484 0.419-0.86 0.878-0.566" fill="#f58220"/>
    </g>
    <g transform="translate(665.47 205.79)">
     <path d="m0 0c0-0.755 0.445-1.509 1.156-1.751 0.822-0.274 1.875-0.056 2.298 0.731 0.115 0.213-0.018 0.525-0.295 0.525-0.101-3e-3 -0.226-0.095-0.362-0.223-0.217-0.208-0.506-0.347-0.96-0.277-0.44 0.069-0.755 0.422-0.755 1.008 0 0.376 0.304 0.707 0.684 0.799 0.367 0.08 0.586-0.018 0.756-0.11 0.166-0.095 0.107-0.216 0.357-0.286 0.307-0.084 0.41 0.07 0.489 0.229 0.154 0.315-0.24 0.869-0.846 1.051-1.234 0.372-2.522-0.354-2.522-1.696" fill="#f58220"/>
    </g>
    <g transform="translate(660.33 204.34)">
     <path d="m0 0c-8e-3 0.161-0.013 0.443 0 0.756 0.03 0.646 0.142 1.429 0.505 1.595 0.458 0.213 0.636-0.305 0.662-0.665 0.051-0.691 0.056-1.99 0.361-2.116 0.098-0.041 0.203-0.034 0.307-7e-3 0.307 0.102 0.328 1.478 0.375 2.123 0.022 0.314 0.179 0.886 0.661 0.665 0.358-0.166 0.475-0.949 0.505-1.595 0.013-0.313 6e-3 -0.595 0-0.756-6e-3 -0.386 0.407-0.587 0.649-0.258 0.39 0.536 0.4 2.213 0.046 2.81-0.282 0.473-0.735 0.704-1.192 0.751-0.408 0.045-0.867-0.057-1.183-0.332-8e-3 -5e-3 -0.01-5e-3 -0.018 0-0.273 0.242-0.651 0.343-1.01 0.342-0.516-3e-3 -1.048-0.231-1.364-0.761-0.355-0.597-0.343-2.274 0.047-2.81 0.241-0.329 0.657-0.128 0.649 0.258" fill="#f58220"/>
    </g>
    <g transform="translate(656.04 205.7)">
     <path d="m0 0c-0.078 0.628 0.396 1.201 1.014 1.157 0.252-0.016 0.44-0.198 0.48-0.423 0.031-0.179-0.031-0.381-0.222-0.554-0.359-0.324-1.24-0.439-1.272-0.18m-1.085 0.03c0-1.104 0.756-1.772 1.634-1.895 0.43-0.063 1.043-0.03 1.459 0.187 0.283 0.143 0.561 0.441 0.292 0.692-0.115 0.103-0.234 0.042-0.557-0.091-0.394-0.165-1.366-0.168-1.566 0.416 0.491-0.078 1.044 6e-3 1.502 0.177 0.644 0.236 0.93 0.845 0.825 1.432-0.145 0.819-0.83 1.093-1.607 1.055-0.894-0.041-1.925-0.693-1.982-1.973" fill="#f58220"/>
    </g>
    <g transform="translate(681.12 207.97)">
     <path d="m0 0c0.033 0.239-0.35 0.191-0.543 0.193-0.185 2e-3 -0.575 0.047-0.552-0.212 0.013-0.177 0.279-0.717 0.552-0.717 0.268 0 0.522 0.565 0.543 0.736" fill="#f58220"/>
    </g>
    <g transform="translate(658.91 201.4)">
     <path d="m0 0c-0.451-3.754 0.274-9.343 5.448-9.402 1.54-0.017 2.679 0.536 3.516 1.397 0.389-0.615 0.205-1.508 1.322-1.59 0.64-0.051 1.231 0.267 1.405 1.506 0.226 1.603-0.071 6.806-0.805 8.839l-5e-3 -0.011c-0.251 0.623-0.819 0.946-1.463 0.908-0.908-0.06-1.184-1.06-1.179-1.856-0.126-2.74-0.778-6.799-2.791-6.777-2.121 0.023-2.395 5.244-2.391 6.777 6e-3 0.796-0.16 1.826-1.266 1.967-0.883 0.114-1.791-0.61-1.791-1.758" fill="#f58220"/>
    </g>
   </g>
  </g>
 </g>
</svg>
