<?xml version="1.0" encoding="UTF-8"?>
<!-- Generator: Adobe Illustrator 18.0.0, SVG Export Plug-In . SVG Version: 6.00 Build 0)  -->
<!DOCTYPE svg  PUBLIC '-//W3C//DTD SVG 1.1//EN'  'http://www.w3.org/Graphics/SVG/1.1/DTD/svg11.dtd'>
<svg id="Ebene_1" enable-background="new 0 0 392 190.9" version="1.1" viewBox="0 0 392 190.9" xml:space="preserve" xmlns="http://www.w3.org/2000/svg" xmlns:xlink="http://www.w3.org/1999/xlink">
	<path d="m56.3 1.9s-54.4 0-54.4 54.4v78.3s0 54.4 54.4 54.4h279.4s54.4 0 54.4-54.4v-78.3s0-54.4-54.4-54.4h-279.4z" fill="#fff"/>
	<path d="m56.3 1.9s-54.4 0-54.4 54.4v78.3s0 54.4 54.4 54.4h279.4s54.4 0 54.4-54.4v-78.3s0-54.4-54.4-54.4h-279.4z" fill="none" stroke="#000" stroke-width="3.7328"/>
	<path d="m79.2 17.2s-51.4 0-51.4 51.4v58.3s0 51.4 51.4 51.4h241.6s51.4 0 51.4-51.4v-58.3s0-51.4-51.4-51.4h-241.6z" fill="#fff"/>
	<path d="m59.4 9.3s-48.4 0-48.4 48.4v75.5s0 48.4 48.4 48.4h273.2s48.4 0 48.4-48.4v-75.5s0-48.4-48.4-48.4h-273.2z" fill="#fff"/>
			<defs>
				<path id="SVGID_1_" d="m59.4 9.3s-48.4 0-48.4 48.4v75.5s0 48.4 48.4 48.4h273.2s48.4 0 48.4-48.4v-75.5s0-48.4-48.4-48.4h-273.2z"/>
			</defs>
			<clipPath id="SVGID_2_">
				<use overflow="visible" xlink:href="#SVGID_1_"/>
			</clipPath>
			<path d="m295.1 5.7c4.3 1.7 19.6 3.7 32.8 5.5 33.2 4.4 61.2 49 39.2 108-14.3 38.3-61.2 57.4-115.4 66.2-34.4 5.6 26.1 0.7 36.3 1 93.4 3.1 94.9-29.1 96.1-32.3 2-5.2 2.6-99.5 0.7-107.3-2-7.8-13.4-27.4-28.4-37.6-7.1-4.7-61.3-3.5-61.3-3.5z" clip-path="url(#SVGID_2_)" fill="#D0D0D0"/>
			<defs>
				<path id="SVGID_3_" d="m59.4 9.3s-48.4 0-48.4 48.4v75.5s0 48.4 48.4 48.4h273.2s48.4 0 48.4-48.4v-75.5s0-48.4-48.4-48.4h-273.2z"/>
			</defs>
			<clipPath id="SVGID_4_">
				<use overflow="visible" xlink:href="#SVGID_3_"/>
			</clipPath>
			<path d="m182.3 9.7c-7.3 0-26.5 0.3-42.7 2.4-37.5 4.9-84.8 17.7-107.9 53.2-39.9 61.1 1.1 115.3 24.9 115.7 7.9 0.1 11.1 14.9 11.1 14.9s-11-1-44.5-20.3c-20.6-11.9-18.6-73.2-17.3-77.4 3.3-11.2-2.1-61.5 10.5-74 12.7-12.5 18.3-17.5 40.8-18.4 22.5-0.8 78.8 0.4 82.1 0.4s43 1.3 43 1.3v2.2z" clip-path="url(#SVGID_4_)" fill="#D0D0D0"/>
	<path d="m59.4 9.3s-48.4 0-48.4 48.4v75.5s0 48.4 48.4 48.4h273.2s48.4 0 48.4-48.4v-75.5s0-48.4-48.4-48.4h-273.2z" fill="none" stroke="#000" stroke-width="2.133"/>
	<path d="m273.3 119.8 24.2-52h-33.2l-26.6 57.2c-3.6 7.8-4.2 14-1.6 18.8s7.7 7.2 15.5 7.2h48.7l2.6-5.6 7.1-15.2h-33.2c-2.2 0-3.6-1.2-4.2-3.7-0.6-2.2-0.3-4.4 0.7-6.7zm-24-31.2 9.7-20.8h-58.1c-12.7 0-30.2 1.7-34.5 10.9 0 0 7 9.7-4.5 34.4-5.9 12.7-14.4 20.9-23.6 27.8 4 7.5 11.2 10.1 23.8 10.1h75.4s-4.8-2.9-6.6-8c-2-5.9 0.3-12.8 0.3-12.8h-49.8c-2.2 0-3.6-1.2-4.2-3.7-0.6-2.2-0.3-4.5 0.7-6.7h36.1l9.7-20.8h-36.1c1.1-2.3 2.9-4.5 5.6-6.7 2.9-2.4 5.4-3.7 7.6-3.7h48.5zm-91.1 20.8c5.9-12.7 6.9-22.8 2.9-30.3s-12.3-11.3-25-11.3c0 0-49-0.1-58.2 0s-11.1 6.1-11.1 6.1l-31.7 67.9s-3.9 9.2 6 9.2h56.1c12.6 0 24.5-3.8 35.5-11.3 11.2-7.6 19.6-17.7 25.5-30.3zm-27.3-13.2c-2.2 5.2-11.8 24.1-11.8 24.1-0.4 0.9-4.4 8.5-11.5 8.6-7.1 0.2-28.7 0.2-28.7 0.2-2.5 0-5.6-0.4-4.2-3.7 1.5-3.4 13.5-28.9 17.3-36.3 1.3-2.5 4-2.2 4-2.2h32c3 0.2 5.2 4.1 2.9 9.3z" fill="#CC192C"/>
			<defs>
				<path id="SVGID_5_" d="m273.3 119.8 24.2-52h-33.2l-26.6 57.2c-3.6 7.8-4.2 14-1.6 18.8s7.7 7.2 15.5 7.2h48.7l2.6-5.6 7.1-15.2h-33.2c-2.2 0-3.6-1.2-4.2-3.7-0.6-2.2-0.3-4.4 0.7-6.7zm-24-31.2 9.7-20.8h-58.1c-12.7 0-30.2 1.7-34.5 10.9 0 0 7 9.7-4.5 34.4-5.9 12.7-14.4 20.9-23.6 27.8 4 7.5 11.2 10.1 23.8 10.1h75.4s-4.8-2.9-6.6-8c-2-5.9 0.3-12.8 0.3-12.8h-49.8c-2.2 0-3.6-1.2-4.2-3.7-0.6-2.2-0.3-4.5 0.7-6.7h36.1l9.7-20.8h-36.1c1.1-2.3 2.9-4.5 5.6-6.7 2.9-2.4 5.4-3.7 7.6-3.7h48.5zm-91.1 20.8c5.9-12.7 6.9-22.8 2.9-30.3s-12.3-11.3-25-11.3c0 0-49-0.1-58.2 0s-11.1 6.1-11.1 6.1l-31.7 67.9s-3.9 9.2 6 9.2h56.1c12.6 0 24.5-3.8 35.5-11.3 11.2-7.6 19.6-17.7 25.5-30.3zm-27.3-13.2c-2.2 5.2-11.8 24.1-11.8 24.1-0.4 0.9-4.4 8.5-11.5 8.6-7.1 0.2-28.7 0.2-28.7 0.2-2.5 0-5.6-0.4-4.2-3.7 1.5-3.4 13.5-28.9 17.3-36.3 1.3-2.5 4-2.2 4-2.2h32c3 0.2 5.2 4.1 2.9 9.3z"/>
			</defs>
			<clipPath id="SVGID_6_">
				<use overflow="visible" xlink:href="#SVGID_5_"/>
			</clipPath>
			<path d="m80.7 83.2h55.1c15.5-0.4 18.6-15.3 21.3-20.4s8.3 22.2 8.3 22.2 7.8 31-42.1 63.7c-2.5 1.7-19.2 7-28.4 6-9-1-56.3 1.7-58.5 0.9-2.2-0.9-11.9-6.1-8.5-6.5 8.9-0.9 24.8-4.8 34.7-26.3 6.4-13.6 18.1-39.6 18.1-39.6z" clip-path="url(#SVGID_6_)" fill="#A01720"/>
			<defs>
				<path id="SVGID_7_" d="m273.3 119.8 24.2-52h-33.2l-26.6 57.2c-3.6 7.8-4.2 14-1.6 18.8s7.7 7.2 15.5 7.2h48.7l2.6-5.6 7.1-15.2h-33.2c-2.2 0-3.6-1.2-4.2-3.7-0.6-2.2-0.3-4.4 0.7-6.7zm-24-31.2 9.7-20.8h-58.1c-12.7 0-30.2 1.7-34.5 10.9 0 0 7 9.7-4.5 34.4-5.9 12.7-14.4 20.9-23.6 27.8 4 7.5 11.2 10.1 23.8 10.1h75.4s-4.8-2.9-6.6-8c-2-5.9 0.3-12.8 0.3-12.8h-49.8c-2.2 0-3.6-1.2-4.2-3.7-0.6-2.2-0.3-4.5 0.7-6.7h36.1l9.7-20.8h-36.1c1.1-2.3 2.9-4.5 5.6-6.7 2.9-2.4 5.4-3.7 7.6-3.7h48.5zm-91.1 20.8c5.9-12.7 6.9-22.8 2.9-30.3s-12.3-11.3-25-11.3c0 0-49-0.1-58.2 0s-11.1 6.1-11.1 6.1l-31.7 67.9s-3.9 9.2 6 9.2h56.1c12.6 0 24.5-3.8 35.5-11.3 11.2-7.6 19.6-17.7 25.5-30.3zm-27.3-13.2c-2.2 5.2-11.8 24.1-11.8 24.1-0.4 0.9-4.4 8.5-11.5 8.6-7.1 0.2-28.7 0.2-28.7 0.2-2.5 0-5.6-0.4-4.2-3.7 1.5-3.4 13.5-28.9 17.3-36.3 1.3-2.5 4-2.2 4-2.2h32c3 0.2 5.2 4.1 2.9 9.3z"/>
			</defs>
			<clipPath id="SVGID_8_">
				<use overflow="visible" xlink:href="#SVGID_7_"/>
			</clipPath>
			<path d="m262 65.4-11.3 26.3-20.5 0.1c-7.7 1.1-26.2 0.3-29.9 1.2-20.5 4.7-14.2 16.1-14.2 16.1l24.4 0.1 18.6-14.4-14 28.6-34.9 3.8s-10.7 12.6-3.6 12.6h42.9l15-12.4-4 15.1 12 12.1-98.8-0.7-7.1-7.1-2-6s27.9 3.1 29.9-7.3c1.3-6.5 0.2-12.7 9-21.6 4.2-4.2-3.5-29.5 22.1-32.8 10.3-1.4 47.2-0.5 47.2-0.5l19.5-13-0.3-0.2z" clip-path="url(#SVGID_8_)" fill="#A01720"/>
			<defs>
				<path id="SVGID_9_" d="m273.3 119.8 24.2-52h-33.2l-26.6 57.2c-3.6 7.8-4.2 14-1.6 18.8s7.7 7.2 15.5 7.2h48.7l2.6-5.6 7.1-15.2h-33.2c-2.2 0-3.6-1.2-4.2-3.7-0.6-2.2-0.3-4.4 0.7-6.7zm-24-31.2 9.7-20.8h-58.1c-12.7 0-30.2 1.7-34.5 10.9 0 0 7 9.7-4.5 34.4-5.9 12.7-14.4 20.9-23.6 27.8 4 7.5 11.2 10.1 23.8 10.1h75.4s-4.8-2.9-6.6-8c-2-5.9 0.3-12.8 0.3-12.8h-49.8c-2.2 0-3.6-1.2-4.2-3.7-0.6-2.2-0.3-4.5 0.7-6.7h36.1l9.7-20.8h-36.1c1.1-2.3 2.9-4.5 5.6-6.7 2.9-2.4 5.4-3.7 7.6-3.7h48.5zm-91.1 20.8c5.9-12.7 6.9-22.8 2.9-30.3s-12.3-11.3-25-11.3c0 0-49-0.1-58.2 0s-11.1 6.1-11.1 6.1l-31.7 67.9s-3.9 9.2 6 9.2h56.1c12.6 0 24.5-3.8 35.5-11.3 11.2-7.6 19.6-17.7 25.5-30.3zm-27.3-13.2c-2.2 5.2-11.8 24.1-11.8 24.1-0.4 0.9-4.4 8.5-11.5 8.6-7.1 0.2-28.7 0.2-28.7 0.2-2.5 0-5.6-0.4-4.2-3.7 1.5-3.4 13.5-28.9 17.3-36.3 1.3-2.5 4-2.2 4-2.2h32c3 0.2 5.2 4.1 2.9 9.3z"/>
			</defs>
			<clipPath id="SVGID_10_">
				<use overflow="visible" xlink:href="#SVGID_9_"/>
			</clipPath>
			<path d="m299.5 67.1-26.5 10.7-22.5 52.4s-3.9 11.4-15.8 14.7c-2 0.5 10.8 9.6 10.8 9.6l23.4 0.7s30.5 0.6 28.1 0.7c9.2-0.3 17.2-28.1 17.2-28.1l-19.9 11.4s-25.9 0.8-27.5 0c-4.7-2.4 13.5-18.4 13.5-18.4l19.2-53.7z" clip-path="url(#SVGID_10_)" fill="#A01720"/>
	<path d="m309.3 67.8-9.2 20.9s22.9-1.2 38.6-7.6c12.8-6.2 23.2-13.3 22.5-25.5-1.4-10.5-15.7-16.7-27.3-18.9-12.5-1.9-27.9-3.2-47.2 1-30.3 7.7-34.9 19-34.9 19h10.9s2-4.5 17.2-10.4c29.6-11.5 60.1-1.8 60.7 5.9 1.6 15.2-31.3 15.6-31.3 15.6z" fill="#CC192C"/>
			<defs>
				<path id="SVGID_11_" d="m309.3 67.8-9.2 20.9s22.9-1.2 38.6-7.6c12.8-6.2 23.2-13.3 22.5-25.5-1.4-10.5-15.7-16.7-27.3-18.9-12.5-1.9-27.9-3.2-47.2 1-30.3 7.7-34.9 19-34.9 19h10.9s2-4.5 17.2-10.4c29.6-11.5 60.1-1.8 60.7 5.9 1.6 15.2-31.3 15.6-31.3 15.6z"/>
			</defs>
			<clipPath id="SVGID_12_">
				<use overflow="visible" xlink:href="#SVGID_11_"/>
			</clipPath>
			<path d="m297.4 90.6 17-13.3c43.1-7.5 39.6-22.8 39.6-22.8l11.7-4.2 4.6 17.4-50.7 25.8-22.2-2.9z" clip-path="url(#SVGID_12_)" fill="#A01720"/>
			<defs>
				<path id="SVGID_13_" d="m309.3 67.8-9.2 20.9s22.9-1.2 38.6-7.6c12.8-6.2 23.2-13.3 22.5-25.5-1.4-10.5-15.7-16.7-27.3-18.9-12.5-1.9-27.9-3.2-47.2 1-30.3 7.7-34.9 19-34.9 19h10.9s2-4.5 17.2-10.4c29.6-11.5 60.1-1.8 60.7 5.9 1.6 15.2-31.3 15.6-31.3 15.6z"/>
			</defs>
			<clipPath id="SVGID_14_">
				<use overflow="visible" xlink:href="#SVGID_13_"/>
			</clipPath>
			<path d="m352.4 48.5s-7.5-7.2-23.3-10.1c-16.8-3-40.6-1.4-58.1 7.2-8.2 4-11.7 7.7-11.7 7.7l-12.8 5.4s14.3 3.9 20-0.2c37.1-25.9 61-10.9 62.5-10.6s8.7 5.9 10 5.6c1.3-0.2 13.4-5 13.4-5z" clip-path="url(#SVGID_14_)" fill="#A01720"/>
	<path d="m293.3 104.2c2.8 0.5 46.4-0.9 60.3-17.9l6.6-15.5s-0.1-0.1-0.7 0.7c-3.6 4.5-12 20.4-61.5 22.5l-4.7 10.2z" fill="#CC192C"/>
			<defs>
				<path id="SVGID_15_" d="m293.3 104.2c2.8 0.5 46.4-0.9 60.3-17.9l6.6-15.5s-0.1-0.1-0.7 0.7c-3.6 4.5-12 20.4-61.5 22.5l-4.7 10.2z"/>
			</defs>
			<clipPath id="SVGID_16_">
				<use overflow="visible" xlink:href="#SVGID_15_"/>
			</clipPath>
			<path d="m290.6 105.9 10.8-7.3c21-1.4 25.1-2.5 38.3-8.1 13.9-5.9 20.9-21.7 20.9-21.7s-3.5 25.5-3.6 26.4-23.8 7.6-28 8.2c-9.4 1.3-37.5 2.4-37.5 2.4l-0.9 0.1z" clip-path="url(#SVGID_16_)" fill="#A01720"/>
</svg>
