<svg width="800" height="311.17" version="1.1" viewBox="0 0 800 311.17" xml:space="preserve" xmlns="http://www.w3.org/2000/svg"><defs><clipPath id="clipPath252"><path d="m426.48 626.89-29.735-100.87-96.759 28.522 29.735 100.87z"/></clipPath><linearGradient id="linearGradient264" x2="1" gradientTransform="matrix(-21.096 -71.566 -71.566 21.096 388.04 654.34)" gradientUnits="userSpaceOnUse"><stop stop-color="#4f4c4d" offset="0"/><stop stop-color="#4f4c4d" offset=".21818"/><stop stop-color="#393536" offset=".57576"/><stop offset=".85454"/><stop offset="1"/></linearGradient><linearGradient id="linearGradient1765" x1="798.31" x2="835.51" y1="597.59" y2="683.81" gradientTransform="matrix(2.7099 0 0 2.7099 -1244.1 -1022.1)" gradientUnits="userSpaceOnUse"><stop stop-color="#ededed" offset="0"/><stop stop-color="#ececec" offset=".22414"/><stop stop-color="#eaeaea" stop-opacity=".94118" offset=".32375"/><stop stop-color="#c8c8c8" offset=".49492"/><stop stop-color="#c6c6c6" offset=".7381"/><stop stop-color="#d9d9d9" offset=".87751"/><stop stop-color="#ededed" offset="1"/></linearGradient></defs><g transform="matrix(1.3333 0 0 -1.3333 -970.14 1108.2)"><path d="m743.73 831.15s-34.329-121.26-2.8025-233.38h403.53l2.8024 233.38z" fill="url(#linearGradient1765)"/><g transform="matrix(2.7099 0 0 2.7099 236.72 -886.29)"><g clip-path="url(#clipPath252)"><path d="m336.01 633.77s-12.669-44.748-1.035-86.121h67.579v78.711c0 3.645 0.567 7.41-8.809 7.41z" fill="url(#linearGradient264)"/></g></g><g transform="matrix(2.7099 0 0 2.7099 -1244.1 -1022.1)" fill="#316abc"><path d="m798.74 604.18h-16.116v11.816h16.116z"/><path d="m798.82 619.6h-16.277v42.15h16.277z"/></g><g transform="matrix(2.7099 0 0 2.7099 802 748.5)"><path d="m0 0v-27.726c2.346 0 3.788 0.317 4.33 0.948 0.541 0.636 0.812 2.358 0.812 5.168v16.38c0 1.908-0.091 3.131-0.271 3.668-0.179 0.538-0.593 0.933-1.238 1.185-0.644 0.253-1.854 0.377-3.633 0.377m-16.275 7.211h12.177c7.86 0 13.175-0.242 15.948-0.728 2.768-0.485 4.875-1.285 6.32-2.395 1.443-1.111 2.345-2.347 2.706-3.71 0.36-1.362 0.543-4.04 0.543-8.03v-14.764c0-3.782-0.266-6.311-0.795-7.589-0.528-1.275-1.448-2.273-2.763-2.993-1.314-0.721-2.938-1.222-4.872-1.511-1.933-0.284-4.845-0.429-8.738-0.429h-20.526z"/></g><g transform="matrix(2.7099 0 0 2.7099 1041.3 718.31)"><path d="m0 0h-16.276v7.326c0 2.13-0.173 3.46-0.523 3.989-0.346 0.526-1.114 0.792-2.3 0.792-1.339 0-2.19-0.321-2.551-0.965-0.36-0.642-0.541-2.029-0.541-4.164v-19.578c0-2.049 0.181-3.386 0.541-4.009 0.361-0.627 1.173-0.937 2.436-0.937 1.21 0 2.004 0.313 2.378 0.938 0.372 0.627 0.56 2.096 0.56 4.41v5.3h16.276v-1.645c0-4.362-0.458-7.454-1.373-9.281-0.914-1.824-2.938-3.424-6.07-4.796-3.131-1.374-6.99-2.06-11.578-2.06-4.768 0-8.698 0.582-11.791 1.744-3.094 1.164-5.142 2.773-6.147 4.829-1.006 2.057-1.506 5.151-1.506 9.281v12.316c0 3.036 0.154 5.314 0.462 6.833 0.31 1.518 1.232 2.981 2.764 4.385 1.534 1.408 3.66 2.513 6.38 3.321 2.719 0.807 5.843 1.212 9.376 1.212 4.792 0 8.748-0.625 11.867-1.872 3.117-1.25 5.169-2.807 6.146-4.669 0.978-1.861 1.47-4.76 1.47-8.697z"/></g><g transform="matrix(2.7099 0 0 2.7099 -1244.1 -1022.1)"><path d="m865.47 619.6h-16.276v42.148h16.276z"/><path d="m865.39 664.6h-16.116v11.818h16.116z"/></g><g transform="matrix(2.7099 0 0 2.7099 1237.8 756.3)"><path d="m0 0c3.858-6.88 7.718-13.76 11.493-20.723 3.901 6.78 7.509 13.853 11.32 20.723 2.38-0.116 5.224 0.232 7.314-0.174-5.561-9.705-10.727-19.806-16.196-29.604h-4.702c-4.355 8.067-8.941 15.902-13.234 24.032h-10.971c-0.407-7.663-0.058-16.08-0.175-24.032h-6.617v23.857c-3.715 0.406-8.184 0.059-12.19 0.175v5.746z" fill="#fff" fill-rule="evenodd"/></g></g></svg>
