<svg width="800" height="222.44" version="1.1" viewBox="0 0 211.67 58.856" xmlns="http://www.w3.org/2000/svg">
 <defs>
  <linearGradient id="linearGradient732" x1="1.9196e-7" x2="211.67" y1="-3.1466" y2="62.001" gradientTransform="matrix(.99998 0 0 .99998 -4.4168 -1.233)" gradientUnits="userSpaceOnUse">
   <stop stop-color="#de2b0c" offset="0"/>
   <stop stop-color="#cc2a0a" offset=".28895"/>
   <stop stop-color="#8e240c" offset=".649"/>
   <stop stop-color="#6f2312" offset="1"/>
  </linearGradient>
 </defs>
 <g transform="matrix(1.0436 0 0 1.0436 -.00033851 2.551e-6)" fill="url(#linearGradient732)" stroke-width=".84234">
  <path d="m-4.312e-4 -1.5141e-6h11q10.651 0 14.387 0.96111 3.7714 0.96112 5.7269 3.1579 1.9555 2.1968 2.4444 4.9085 0.48889 2.6773 0.48889 10.572v19.462q0 7.4829-0.73333 10.023-0.6984 2.5058-2.4793 3.9474-1.781 1.4073-4.4 1.9909-2.619 0.5492-7.892 0.5492h-18.543zm14.702 9.5081v36.557q3.1777 0 3.9111-1.2357 0.73333-1.27 0.73333-6.8308v-21.59q0-3.7758-0.24444-4.8399t-1.1174-1.5446q-0.873-0.51488-3.2825-0.51488z" opacity=".98504" stop-color="#000000" style="-inkscape-stroke:none;font-feature-settings:normal;font-variant-caps:normal;font-variant-ligatures:normal;font-variant-numeric:normal;font-variation-settings:normal"/>
  <path d="m53.641-1.5141e-6v7.2427h-14.527v-7.2427zm0 10.023v45.549h-14.527v-45.549z" opacity=".98504" stop-color="#000000" style="-inkscape-stroke:none;font-feature-settings:normal;font-variant-caps:normal;font-variant-ligatures:normal;font-variant-numeric:normal;font-variation-settings:normal"/>
  <path d="m90.616 33.598h-18.263v9.8514q0 3.0893 0.45397 3.9817 0.45396 0.89245 1.7461 0.89245 1.6063 0 2.1301-1.1671 0.55872-1.2014 0.55872-4.5996v-6.0069h13.374v3.3639q0 4.222-0.55872 6.4875-0.5238 2.2655-2.5143 4.8399t-5.0634 3.8788q-3.038 1.27-7.6475 1.27-4.4698 0-7.892-1.27t-5.3428-3.4668q-1.8857-2.2312-2.619-4.8742-0.73333-2.6773-0.73333-7.7575v-13.284q0-5.9726 1.6412-9.4051 1.6412-3.4668 5.3777-5.2861 3.7364-1.8536 8.5904-1.8536 5.9365 0 9.7777 2.2312 3.8762 2.1968 5.4127 5.8697 1.5714 3.6385 1.5714 10.263zm-14.143-7.4143v-3.3296q0-3.5355-0.38413-4.5653-0.38412-1.0298-1.5714-1.0298-1.4667 0-1.8159 0.89246-0.34921 0.85813-0.34921 4.7026v3.3296z" opacity=".98504" stop-color="#000000" style="-inkscape-stroke:none;font-feature-settings:normal;font-variant-caps:normal;font-variant-ligatures:normal;font-variant-numeric:normal;font-variation-settings:normal"/>
  <path d="m127.56 10.022v45.549h-14.353l0.24444-3.7758q-1.4667 2.2998-3.6317 3.4668-2.1301 1.1327-4.9238 1.1327-3.1777 0-5.273-1.0984-2.0952-1.0984-3.1079-2.9176-0.97777-1.8192-1.2222-3.7758-0.24445-1.9909-0.24445-7.8605v-30.721h14.108v30.996q0 5.3205 0.31428 6.3158 0.3492 0.99543 1.8159 0.99543 1.5714 0 1.8508-1.0298 0.31428-1.0298 0.31428-6.6248v-30.652z" opacity=".98504" stop-color="#000000" style="-inkscape-stroke:none;font-feature-settings:normal;font-variant-caps:normal;font-variant-ligatures:normal;font-variant-numeric:normal;font-variation-settings:normal"/>
  <path d="m162.73-1.5141e-6v11.122h-8.73v44.452h-14.702v-44.452h-8.6951v-11.122z" opacity=".98504" stop-color="#000000" style="-inkscape-stroke:none;font-feature-settings:normal;font-variant-caps:normal;font-variant-ligatures:normal;font-variant-numeric:normal;font-variation-settings:normal"/>
  <path d="m202.82-1.5141e-6 -7.4728 55.572h-22.314l-8.4856-55.572h15.504c1.7925 15.31 3.073 28.25 3.8413 38.822 0.76823-10.687 1.5714-20.184 2.4095-28.49l1.0127-10.332z" opacity=".98504" stop-color="#000000" style="-inkscape-stroke:none;font-feature-settings:normal;font-variant-caps:normal;font-variant-ligatures:normal;font-variant-numeric:normal;font-variation-settings:normal"/>
 </g>
</svg>
