<svg width="800" height="396.6" version="1.1" xmlns="http://www.w3.org/2000/svg">
 <path d="m627.54 0.0031474v194.18h28.959l6.1612-21.743h137.34v-172.44zm151.03 57.031-40.179 84.792h-8.9179l-32.004-67.725h-12.825v39.076c0 8.3664 3.7877 10.812 9.2775 10.812a25.315 25.315 0 0 0 14.24-4.3631l6.6403 15.558a46.338 46.338 0 0 1-25.603 7.791c-15.199 0-25.123-8.726-25.123-27.712v-41.161l-14.983-1.1267v-16.517h14.983l0.57535-27.137h20.113v27.137h27.545l16.493 37.949a92.393 92.393 0 0 1 5.202 15.87 112.96 112.96 0 0 1 5.2982-15.942l16.517-37.949h22.75z" fill="#fff" stroke-width="2.3973"/>
 <g fill="#fff" stroke-width="2.3973">
  <path d="m181.4 0.0031461v280.32h-28.959l-7.3357-25.867c-13.88 18.843-35.12 30.11-62.138 30.11-49.408 0-82.972-37.038-82.972-91.458 0-51.66 34.737-89.157 82.972-89.157 23.158 0 44.014 9.2537 57.535 24.692-0.76715-15.822-1.1507-30.493-1.1507-49.408v-79.232zm-40.538 194.18c0-31.644-19.682-53.269-49.386-53.269-29.343 0-49.026 21.576-49.026 53.269 0 31.692 19.682 53.651 49.026 53.651 30.086 0.0719 49.386-21.552 49.386-53.651z"/>
  <path d="m214.99 47.204c0-13.904 10.02-25.076 26.226-25.076s26.25 11.171 26.25 25.459c0 13.904-10.428 24.692-26.25 24.692-16.206 0-26.226-11.171-26.226-25.076zm5.0105 60.987h42.072v172.12h-42.072z"/>
  <path d="m456.96 188.07a194.3 194.3 0 0 1-1.5342 20.089h-123.51c5.3939 27.784 27.018 42.432 54.802 42.432 19.682 0 33.562-5.7773 45.547-16.206l17.74 27.018a101.48 101.48 0 0 1-67.122 23.973c-55.139 0-93.013-37.421-93.013-91.458 0-50.559 36.655-90.307 88.698-90.307 48.666-0.048 78.391 32.747 78.391 84.455zm-124.66-8.4864h84.814c-1.1507-27.401-17.38-41.689-39.363-41.689-22.678 0-40.826 15.055-45.453 41.689z"/>
  <path d="m605.96 244.05v36.271h-136.24v-11.987l64.057-105.31c3.8596-6.5684 7.3357-11.987 11.579-18.915-9.589 0.38357-13.88 0.38357-21.216 0.38357h-50.941v-36.295h131.61v11.987l-59.931 98.794c-5.0105 8.4864-10.02 16.613-16.206 25.483 10.812-0.38357 18.531-0.38357 27.401-0.38357z"/>
 </g>
 <g transform="matrix(.5988 0 0 .5988 -817 254.62)" fill="#fff" stroke-width="462.23">
  <path d="m1720.4 234.94v-156.55h23.701l0.2175 156.55z" style="white-space:pre"/>
  <path d="m1804.1 136.23q18.917 0 29.354 9.3498 10.654 9.3498 10.654 26.745v62.622h-15.873l-4.3487-14.568q-11.524 16.525-34.572 16.525-13.699 0-22.179-7.1754-8.2626-7.3929-8.2626-20.004 0-16.308 13.264-25.223 13.264-9.1324 35.877-9.1324 5.2184 0 12.176 0.43487v-4.3487q0-15.003-19.787-15.003-13.916 0-30.224 7.8277l-6.7405-18.047q21.961-10.002 40.661-10.002zm-7.8277 82.843q10.654 0 17.395-7.3929 6.958-7.3928 7.1754-20.439-5.8708-0.65231-11.307-0.65231-12.829 0-20.004 4.3487-7.1754 4.3487-7.1754 12.394 0 11.742 13.916 11.742z" style="white-space:pre"/>
  <path d="m1894.2 237.12q-20.874 0-37.617-10.654l9.3498-16.743q12.829 8.0452 26.527 8.0452 6.5231 0 10.437-2.6092 3.9138-2.8267 3.9138-7.3928 0-3.2616-3.0441-6.0882-3.0441-3.0441-6.3057-4.3487-3.0441-1.5221-9.3497-3.9139-13.046-5.001-20.222-11.742-7.1754-6.958-7.1754-18.047 0-12.829 9.7847-20.004 10.002-7.1754 24.57-7.1754 16.743 0 31.746 8.6975l-8.2626 15.873q-10.872-5.6534-21.526-5.6534-13.699 0-13.699 8.2626 0 4.3487 4.3488 7.6103 4.5662 3.0441 13.264 6.0882 14.133 5.2185 21.526 12.176 7.6103 6.958 7.6103 18.265 0 13.481-10.002 21.526-9.7847 7.8277-25.875 7.8277z" style="white-space:pre"/>
  <path d="m2046.8 137.97h26.092v0.65231l-46.097 97.194h-10.22l-45.879-97.194v-0.65231h26.092l18.917 43.487q3.9138 8.9149 6.0882 18.265 2.8267-10.872 6.0882-18.265z" style="white-space:pre"/>
  <path d="m2093.6 117.75q-6.7406 0-10.872-3.9139-3.9139-4.1313-3.9139-10.22 0-6.0882 3.9139-10.002 4.1313-4.1313 10.872-4.1313 6.7405 0 10.654 4.1313 4.1313 4.1313 4.1313 10.22 0 5.8708-4.1313 10.002-4.1313 3.9139-10.654 3.9139zm-11.959 117.2v-96.977h23.701v96.977z" style="white-space:pre"/>
  <path d="m2126.5 234.94v-156.55h23.701l0.2175 156.55z" style="white-space:pre"/>
  <path d="m2171.5 234.94v-156.55h23.701l0.2174 156.55z" style="white-space:pre"/>
  <path d="m2255.2 136.23q18.917 0 29.354 9.3498 10.654 9.3498 10.654 26.745v62.622h-15.873l-4.3487-14.568q-11.524 16.525-34.572 16.525-13.698 0-22.179-7.1754-8.2626-7.3929-8.2626-20.004 0-16.308 13.264-25.223 13.264-9.1324 35.877-9.1324 5.2185 0 12.176 0.43487v-4.3487q0-15.003-19.787-15.003-13.916 0-30.224 7.8277l-6.7405-18.047q21.961-10.002 40.661-10.002zm-7.8277 82.843q10.654 0 17.395-7.3929 6.958-7.3928 7.1755-20.439-5.8708-0.65231-11.307-0.65231-12.829 0-20.004 4.3487-7.1754 4.3487-7.1754 12.394 0 11.742 13.916 11.742z" style="white-space:pre"/>
  <path d="m2345.3 237.12q-20.874 0-37.617-10.654l9.3498-16.743q12.829 8.0452 26.527 8.0452 6.5231 0 10.437-2.6092 3.9138-2.8267 3.9138-7.3928 0-3.2616-3.0441-6.0882-3.0441-3.0441-6.3056-4.3487-3.0442-1.5221-9.3498-3.9139-13.046-5.001-20.222-11.742-7.1754-6.958-7.1754-18.047 0-12.829 9.7847-20.004 10.002-7.1754 24.57-7.1754 16.743 0 31.746 8.6975l-8.2626 15.873q-10.872-5.6534-21.526-5.6534-13.699 0-13.699 8.2626 0 4.3487 4.3488 7.6103 4.5662 3.0441 13.264 6.0882 14.133 5.2185 21.526 12.176 7.6103 6.958 7.6103 18.265 0 13.481-10.002 21.526-9.7847 7.8277-25.875 7.8277z" style="white-space:pre"/>
 </g>
</svg>
