<svg width="1e3" height="542.49" data-name="Layer 1" version="1.1" viewBox="0 0 1e3 542.49" xmlns="http://www.w3.org/2000/svg">
 <defs>
  <radialGradient id="radial-gradient" cx="944.52" cy="281.8" r="760.12" gradientTransform="matrix(.96114 0 0 -.96114 -2.3692 539.58)" gradientUnits="userSpaceOnUse">
   <stop stop-color="#fff" offset=".01"/>
   <stop stop-color="#cbffff" offset=".03"/>
   <stop stop-color="#96ffff" offset=".06"/>
   <stop stop-color="#68ffff" offset=".08"/>
   <stop stop-color="#43ffff" offset=".11"/>
   <stop stop-color="#25ffff" offset=".14"/>
   <stop stop-color="#1ff" offset=".16"/>
   <stop stop-color="#04ffff" offset=".19"/>
   <stop stop-color="aqua" offset=".22"/>
   <stop stop-color="blue" stop-opacity="0" offset="1"/>
  </radialGradient>
 </defs>
 <g transform="translate(-2.465 -23.934)" stroke-width=".96114">
  <path d="m709.22 375.13c-13.84 3.1718-50.267 4.9979-50.267 4.9979l-4.6134 14.417s18.165-1.5378 31.429-0.19223c0 0 4.3251-0.48057 4.8057 4.9018a83.1 83.1 0 0 1-0.38446 10.38s-0.28834 3.2679-4.9018 4.0368c-4.9979 0.86502-39.214 2.1145-39.214 2.1145l-5.5746 18.742s-2.0184 4.3251 2.5951 3.0756c4.3251-1.1534 40.176-7.8813 44.885-6.9202 4.9979 1.2495 10.572 7.8813 8.9386 14.033-1.9223 7.4969-37.677 30.372-59.494 28.738 0 0-11.438 0.76891-21.145-14.705-9.0347-14.705 3.4601-42.674 3.4601-42.674s-5.6707-13.071-1.5378-17.397c0 0 2.499-2.2106 9.6114-2.7873l8.7463-18.165s-9.9958 0.6728-15.955-6.6318c-5.5746-7.0163-5.959-10.188-1.73-12.11 4.5173-2.2106 46.135-9.8036 74.776-8.8424 0 0 9.9958-0.96114 18.55 16.339-0.0961 0 4.1329 7.0163-2.9795 8.6502zm-107.74 69.778c-3.6523 8.6502-13.36 17.877-25.374 12.11-12.014-5.7668-30.852-44.501-30.852-44.501s-7.2085-14.417-8.5541-14.129c0 0-1.5378-2.7873-2.499 12.975-0.96113 15.763 0.19223 46.423-6.0552 51.229-5.959 4.8057-13.168 2.8834-16.916-2.7873-3.364-5.5746-4.8057-18.838-2.9795-42.098 2.2106-23.26 7.593-48.057 14.513-55.842 6.9202-7.7852 12.495-2.1145 14.609-0.0961 0 0 9.2269 8.3619 24.509 32.967l2.6912 4.5173s13.84 23.26 15.282 23.163c0 0 1.1534 1.0572 2.1145 0.28834 1.4417-0.38446 0.86502-7.8813 0.86502-7.8813s-2.8834-25.278-15.474-68.145c0 0-1.9223-5.3824-0.57669-10.38s6.3435-2.6912 6.3435-2.6912 19.607 9.8036 29.026 41.713c9.323 32.198 2.9795 60.936-0.6728 69.586zm-96.306-81.985c-1.6339 3.2679-2.5951 7.9774-10.861 9.2269 0 0-79.102 5.3824-82.85 10.957 0 0-2.7873 3.2679 1.5378 4.229 4.3251 0.96114 22.202 3.2679 30.852 3.7484 9.2269 0.0961 40.368 0.38445 51.517 14.321 0 0 6.6318 6.6318 6.3435 21.626-0.28834 15.378-2.9795 20.761-8.9386 26.335-6.2474 5.1901-59.879 29.219-94.48-7.6891 0 0-15.955-17.781 5.4785-31.237 0 0 15.474-9.323 54.785 1.6339 0 0 11.918 4.3251 11.341 8.6502-0.6728 4.6134-9.8036 9.5152-23.067 9.2269-12.879-0.38445-22.298-6.5357-20.472-5.5746 1.73 0.6728-13.84-7.4969-18.646-1.9223-4.8057 5.094-3.6523 8.2658 1.0572 11.438 12.014 6.8241 58.437 4.4212 72.277-10.957 0 0 5.4785-6.2474-2.8834-11.341-8.3619-4.8057-32.294-7.6891-41.617-8.1697-8.9386-0.48057-42.194 0.0961-47-8.7463 0 0-4.8057-5.959 0.48057-22.875 5.5746-17.685 44.308-24.509 61.032-26.047 0 0 46.038-1.6339 54.496 7.7852a7.2277 7.2277 0 0 1-0.38445 5.3824zm-130.71 103.71c-5.5746 4.1329-17.397 2.3067-20.761-2.3067-3.364-4.1329-4.5173-20.568-3.8445-46.327 0.67279-26.047 1.2495-58.341 6.8241-63.435 5.959-5.1901 9.6114-0.6728 11.918 2.8834 2.499 3.4601 5.4785 7.3046 6.1513 15.474 0.67279 8.1697 2.499 51.036 2.499 51.036s2.499 38.638-2.7873 42.674zm12.014-138.21c-16.243 5.3824-27.392 3.5562-36.812-0.48057-4.1329 7.2085-6.5357 9.4191-9.7075 9.8997-4.6134 0.48056-8.7463-6.9202-9.5152-9.323-0.7689-1.8262-2.9795-4.9018-0.28834-12.206-9.2269-8.2658-9.8997-19.415-8.3619-26.912 2.3067-8.6502 17.877-41.521 65.261-45.366 0 0 23.163-1.73 27.104 10.669h0.6728s22.491 0.0961 22.01 20.088c-0.28834 20.088-24.99 45.077-50.364 53.631zm-44.212-44.501c-4.8057 7.6891-4.9979 12.303-2.7873 15.474 5.4785-8.3619 15.474-21.529 30.18-31.525-11.341 0.96113-20.857 5.8629-27.392 16.051zm65.453-12.879c-14.898 2.2106-37.965 22.202-48.922 38.542 16.82 3.0756 46.519 1.9223 59.687-24.893-0.0961 0 6.2474-16.628-10.765-13.648zm404.45 154.84c-8.9386 15.57-34.024 48.057-67.472 40.464-11.053 26.816-20.28 53.824-25.566 94.384 0 0-1.1534 7.8813-7.6891 5.094-6.4396-2.3067-17.204-13.071-19.319-27.969-2.3067-19.607 6.4396-52.766 24.221-90.731-5.1901-8.458-8.7463-20.568-5.6707-37.773 0 0 4.5173-31.91 36.523-60.744 0 0 3.8446-3.364 6.0552-2.3067 2.499 1.0572 1.3456 11.438-0.6728 16.435-2.0184 4.9979-16.339 29.795-16.339 29.795s-8.9386 16.724-6.4396 29.891c16.82-25.855 55.073-78.044 78.813-61.609 7.9774 5.6707 11.63 18.069 11.63 31.429-0.0961 11.822-2.8834 24.317-8.0736 33.64zm-6.9202-40.944s-1.3456-10.284-11.341 1.0572c-8.6502 9.5152-24.221 27.488-36.812 51.805 13.168-1.4417 25.855-8.6502 29.699-12.303 6.2474-5.5746 20.761-20.568 18.454-40.56zm-466.63 13.071c-1.8262 23.259-10.765 62.378-74.104 81.697-41.809 12.591-81.312 6.5357-102.84 1.0572-0.48056 8.5541-1.4417 12.206-2.7873 13.648-1.8262 1.8262-15.474 9.7075-22.971-1.4417-3.364-5.2862-5.094-14.898-6.0552-23.452-48.441-22.298-70.74-54.4-71.605-55.842-1.0572-1.0572-12.11-12.591-1.0572-26.72 10.38-12.783 44.308-25.566 74.873-30.756 1.0572-26.143 4.1329-45.846 7.7852-54.881 4.4212-10.476 9.9958-1.0572 14.802 6.0552 4.0368 5.2862 6.4396 28.065 6.6318 46.231 19.992-0.96113 31.814 0.48057 54.112 4.5173 29.026 5.2862 48.441 20.088 46.711 36.908-1.2495 16.532-16.435 23.356-22.202 23.836-6.0552 0.48057-15.474-3.8445-15.474-3.8445-6.4396-3.0756-0.48056-5.7668 7.3046-9.1308 8.458-4.1329 6.5357-8.3619 6.5357-8.3619-3.1718-9.2269-40.848-15.667-78.333-15.667-0.19223 20.664 0.86502 54.977 1.3456 74.969 26.239 4.9979 45.846 4.0368 45.846 4.0368s95.729-2.6912 98.613-63.819-95.441-119.95-168.2-138.6c-72.662-19.03-113.8-5.7668-117.35-3.9407-3.8445 1.9223-0.28834 2.499-0.28834 2.499a68.692 68.692 0 0 1 10.765 2.8834c7.2085 2.3067 1.6339 6.0552 1.6339 6.0552-12.399 3.9407-26.335 1.4417-29.026-4.229-2.6912-5.6707 1.8262-10.765 7.0163-18.069 5.1901-7.6891 10.861-7.4008 10.861-7.4008 89.866-31.141 199.34 25.182 199.34 25.182 102.55 51.997 120.05 112.93 118.12 136.58zm-271.23-3.1718c-10.188 4.9979-3.1718 12.206-3.1718 12.206 19.127 20.568 42.674 33.448 65.069 41.425 2.5951-35.466 2.2106-47.961 2.499-65.838-34.985 2.4028-55.169 7.9774-64.396 12.206z" fill="#fff"/>
  <path d="m1002.5 387.53v12.687a4.9595 4.9595 0 0 1-4.9979 4.9979h-60.455c0 3.1718 0.0961 5.959 0.0961 8.5541a461.35 461.35 0 0 1-2.5951 51.229 4.9883 4.9883 0 0 1-4.9018 4.5173h-13.071a4.6519 4.6519 0 0 1-3.4601-1.5378 4.5654 4.5654 0 0 1-1.1534-3.6523 452.27 452.27 0 0 0 2.6912-50.556c0-2.6912 0-5.4785-0.0961-8.5541h-59.783a4.9595 4.9595 0 0 1-4.9979-4.9979v-12.687a4.9595 4.9595 0 0 1 4.9979-4.9979h58.918a442.94 442.94 0 0 0-7.7852-60.744 4.4212 4.4212 0 0 1 0.86502-3.4601 4.056 4.056 0 0 1 3.1718-1.5378h14.129a4.6231 4.6231 0 0 1 4.5173 3.7484 487.54 487.54 0 0 1 7.6891 61.993h61.224a5.0844 5.0844 0 0 1 4.9979 4.9979z" fill="#fff"/>
  <path d="m194.44 220.01h-0.0961m-0.6728 0.0961c-0.28834 0-0.57668-0.0961-0.86502-0.0961a2.6623 2.6623 0 0 0 0.86502 0.0961zc-0.28834 0-0.57668-0.0961-0.86502-0.0961a2.6623 2.6623 0 0 0 0.86502 0.0961z" fill="none"/>
 </g>
 <path d="m917.73 262.97a421.86 421.86 0 0 0-741.9-74.969 4.921 4.921 0 0 0-0.57668 4.3251 4.6903 4.6903 0 0 0 3.0756 3.0756l10.957 3.7484a7.1797 7.1797 0 0 0 1.9223 0.28834 6.3339 6.3339 0 0 0 5.094-2.6912 399.37 399.37 0 0 1 330.53-175.12 399.91 399.91 0 0 1 368.21 244.03 5.7668 5.7668 0 0 0 5.2862 3.5562h13.071a4.402 4.402 0 0 0 3.7484-2.0184 4.2098 4.2098 0 0 0 0.57668-4.229zm-726.52-66.799a2.8065 2.8065 0 0 1-0.86502-0.19222 2.8065 2.8065 0 0 0 0.86502 0.19222zm706.44 71.316a3.8926 3.8926 0 0 0 0.86502 0.48057c-0.28834-0.19222-0.57668-0.28834-0.86502-0.48057z" fill="url(#radial-gradient)" stroke-width=".96114"/>
</svg>
