<svg width="800" height="433.99" data-name="Layer 1" version="1.1" viewBox="0 0 800 433.99" xmlns="http://www.w3.org/2000/svg">
 <defs>
  <radialGradient id="radial-gradient" cx="944.52" cy="281.8" r="760.12" gradientTransform="matrix(.76891 0 0 -.76891 -1.8953 431.67)" gradientUnits="userSpaceOnUse">
   <stop stop-color="#fff" offset=".01"/>
   <stop stop-color="#cbffff" offset=".03"/>
   <stop stop-color="#96ffff" offset=".06"/>
   <stop stop-color="#68ffff" offset=".08"/>
   <stop stop-color="#43ffff" offset=".11"/>
   <stop stop-color="#25ffff" offset=".14"/>
   <stop stop-color="#1ff" offset=".16"/>
   <stop stop-color="#04ffff" offset=".19"/>
   <stop stop-color="aqua" offset=".22"/>
   <stop stop-color="blue" stop-opacity="0" offset="1"/>
  </radialGradient>
 </defs>
 <g stroke-width=".76891">
  <path d="m565.41 280.96c-11.072 2.5374-40.214 3.9983-40.214 3.9983l-3.6908 11.534s14.532-1.2303 25.143-0.15379c0 0 3.4601-0.38445 3.8446 3.9214a66.48 66.48 0 0 1-0.30756 8.3042s-0.23068 2.6143-3.9214 3.2294c-3.9983 0.69202-31.371 1.6916-31.371 1.6916l-4.4597 14.994s-1.6147 3.4601 2.076 2.4605c3.4601-0.92269 32.14-6.305 35.908-5.5362 3.9983 0.99959 8.458 6.3051 7.1509 11.226-1.5378 5.9975-30.141 24.298-47.595 22.99 0 0-9.15 0.61512-16.916-11.764-7.2277-11.764 2.7681-34.14 2.7681-34.14s-4.5366-10.457-1.2302-13.917c0 0 1.9992-1.7685 7.6891-2.2298l6.9971-14.532s-7.9966 0.53823-12.764-5.3055c-4.4597-5.613-4.7672-8.1504-1.384-9.6883 3.6139-1.7685 36.908-7.8429 59.821-7.074 0 0 7.9966-0.76891 14.84 13.071-0.0769 0 3.3063 5.613-2.3836 6.9202zm-86.195 55.823c-2.9218 6.9202-10.688 14.302-20.299 9.6882-9.6114-4.6134-24.682-35.6-24.682-35.6s-5.7668-11.534-6.8433-11.303c0 0-1.2303-2.2298-1.9992 10.38s0.15378 37.138-4.8441 40.983c-4.7672 3.8446-10.534 2.3067-13.533-2.2298-2.6912-4.4597-3.8446-15.071-2.3836-33.678 1.7685-18.608 6.0744-38.445 11.611-44.674 5.5362-6.2282 9.9958-1.6916 11.687-0.0769 0 0 7.3815 6.6895 19.607 26.374l2.153 3.6139s11.072 18.608 12.226 18.531c0 0 0.92269 0.8458 1.6916 0.23067 1.1534-0.30756 0.69202-6.305 0.69202-6.305s-2.3067-20.222-12.379-54.516c0 0-1.5378-4.3059-0.46134-8.3042s5.0748-2.153 5.0748-2.153 15.686 7.8429 23.221 33.371c7.4584 25.758 2.3836 48.749-0.53824 55.669zm-77.045-65.588c-1.3072 2.6143-2.076 6.3819-8.6887 7.3815 0 0-63.281 4.3059-66.28 8.7656 0 0-2.2298 2.6143 1.2303 3.3832 3.4601 0.76891 17.762 2.6143 24.682 2.9987 7.3815 0.0769 32.294 0.30757 41.214 11.457 0 0 5.3055 5.3055 5.0748 17.3-0.23068 12.303-2.3836 16.608-7.1509 21.068-4.9979 4.1521-47.903 23.375-75.584-6.1513 0 0-12.764-14.225 4.3828-24.99 0 0 12.379-7.4584 43.828 1.3072 0 0 9.5345 3.4601 9.0731 6.9202-0.53824 3.6908-7.8429 7.6122-18.454 7.3815-10.303-0.30756-17.839-5.2286-16.378-4.4597 1.384 0.53824-11.072-5.9975-14.917-1.5378-3.8446 4.0752-2.9219 6.6126 0.8458 9.15 9.6114 5.4593 46.75 3.537 57.822-8.7656 0 0 4.3828-4.9979-2.3067-9.0731-6.6895-3.8445-25.835-6.1513-33.294-6.5357-7.1509-0.38446-33.755 0.0769-37.6-6.9971 0 0-3.8446-4.7672 0.38445-18.3 4.4597-14.148 35.447-19.607 48.826-20.837 0 0 36.831-1.3071 43.597 6.2282a5.7822 5.7822 0 0 1-0.30756 4.3059zm-104.57 82.965c-4.4597 3.3063-13.917 1.8454-16.608-1.8454-2.6912-3.3063-3.6139-16.455-3.0756-37.061 0.53824-20.837 0.99958-46.673 5.4593-50.748 4.7672-4.1521 7.6891-0.53824 9.5345 2.3067 1.9992 2.7681 4.3828 5.8437 4.921 12.379 0.53823 6.5357 1.9992 40.829 1.9992 40.829s1.9992 30.91-2.2298 34.14zm9.6114-110.57c-12.995 4.3059-21.914 2.845-29.449-0.38445-3.3063 5.7668-5.2286 7.5353-7.766 7.9198-3.6908 0.38446-6.9971-5.5361-7.6122-7.4584-0.61513-1.4609-2.3836-3.9214-0.23067-9.7652-7.3815-6.6126-7.9198-15.532-6.6895-21.529 1.8454-6.9202 14.302-33.217 52.209-36.293 0 0 18.531-1.384 21.683 8.5349h0.53823s17.992 0.0769 17.608 16.07c-0.23067 16.07-19.992 36.062-40.291 42.905zm-35.37-35.6c-3.8445 6.1513-3.9983 9.842-2.2298 12.379 4.3828-6.6895 12.379-17.224 24.144-25.22-9.0731 0.76891-16.685 4.6903-21.914 12.841zm52.363-10.303c-11.918 1.7685-30.372 17.762-39.137 30.833 13.456 2.4605 37.215 1.5378 47.749-19.915-0.0769 0 4.9979-13.302-8.6118-10.918zm323.56 123.87c-7.1508 12.456-27.219 38.445-53.977 32.371-8.8425 21.453-16.224 43.059-20.453 75.507 0 0-0.92269 6.3051-6.1513 4.0752-5.1517-1.8454-13.763-10.457-15.455-22.375-1.8454-15.686 5.1517-42.213 19.377-72.585-4.1521-6.7664-6.9971-16.455-4.5366-30.218 0 0 3.6139-25.528 29.219-48.595 0 0 3.0756-2.6912 4.8441-1.8454 1.9992 0.8458 1.0765 9.15-0.53824 13.148-1.6147 3.9983-13.071 23.836-13.071 23.836s-7.1509 13.379-5.1517 23.913c13.456-20.684 44.058-62.435 63.051-49.287 6.3819 4.5366 9.3038 14.455 9.3038 25.143-0.0769 9.4576-2.3067 19.453-6.4588 26.912zm-5.5362-32.756s-1.0765-8.2273-9.0731 0.8458c-6.9202 7.6122-19.377 21.991-29.449 41.444 10.534-1.1534 20.684-6.9202 23.759-9.842 4.9979-4.4597 16.608-16.455 14.763-32.448zm-373.31 10.457c-1.4609 18.608-8.6118 49.902-59.283 65.357-33.448 10.073-65.05 5.2286-82.273 0.8458-0.38446 6.8433-1.1534 9.7652-2.2298 10.919-1.4609 1.4609-12.379 7.766-18.377-1.1534-2.6912-4.229-4.0752-11.918-4.8441-18.761-38.753-17.839-56.592-43.52-57.284-44.674-0.8458-0.8458-9.6883-10.073-0.8458-21.376 8.3042-10.226 35.447-20.453 59.898-24.605 0.8458-20.914 3.3063-36.677 6.2282-43.905 3.537-8.3811 7.9967-0.8458 11.841 4.8441 3.2294 4.229 5.1517 22.452 5.3055 36.985 15.993-0.76891 25.451 0.38446 43.29 3.6139 23.221 4.229 38.753 16.07 37.369 29.526-0.99958 13.225-13.148 18.684-17.762 19.069-4.8441 0.38446-12.379-3.0756-12.379-3.0756-5.1517-2.4605-0.38446-4.6135 5.8437-7.3046 6.7664-3.3063 5.2286-6.6895 5.2286-6.6895-2.5374-7.3815-32.679-12.533-62.666-12.533-0.15378 16.532 0.69202 43.982 1.0765 59.975 20.991 3.9983 36.677 3.2294 36.677 3.2294s76.583-2.153 78.89-51.056c2.3067-48.903-76.353-95.96-134.56-110.88-58.13-15.224-91.039-4.6135-93.884-3.1525-3.0756 1.5378-0.23067 1.9992-0.23067 1.9992a54.954 54.954 0 0 1 8.6118 2.3067c5.7668 1.8454 1.3071 4.8441 1.3071 4.8441-9.9189 3.1525-21.068 1.1534-23.221-3.3832-2.1529-4.5366 1.4609-8.6118 5.613-14.455 4.1521-6.1513 8.6887-5.9206 8.6887-5.9206 71.893-24.913 159.47 20.145 159.47 20.145 82.043 41.598 96.037 90.347 94.499 109.26zm-216.99-2.5374c-8.1504 3.9983-2.5374 9.7651-2.5374 9.7651 15.301 16.455 34.14 26.758 52.055 33.14 2.0761-28.373 1.7685-38.369 1.9992-52.67-27.988 1.9223-44.135 6.382-51.517 9.7652z" fill="#fff"/>
  <path d="m800 290.88v10.15a3.9676 3.9676 0 0 1-3.9983 3.9983h-48.364c0 2.5374 0.0769 4.7672 0.0769 6.8433a369.08 369.08 0 0 1-2.076 40.983 3.9906 3.9906 0 0 1-3.9214 3.6139h-10.457a3.7215 3.7215 0 0 1-2.7681-1.2303 3.6523 3.6523 0 0 1-0.92269-2.9218 361.82 361.82 0 0 0 2.1529-40.445c0-2.153 0-4.3828-0.0769-6.8433h-47.826a3.9676 3.9676 0 0 1-3.9983-3.9983v-10.15a3.9676 3.9676 0 0 1 3.9983-3.9983h47.134a354.35 354.35 0 0 0-6.2282-48.595 3.537 3.537 0 0 1 0.69202-2.7681 3.2448 3.2448 0 0 1 2.5374-1.2302h11.303a3.6985 3.6985 0 0 1 3.6139 2.9987 390.03 390.03 0 0 1 6.1513 49.595h48.98a4.0675 4.0675 0 0 1 3.9983 3.9983z" fill="#fff"/>
  <path d="m153.58 156.86h-0.0769m-0.53823 0.0769c-0.23068 0-0.46135-0.0769-0.69202-0.0769a2.1299 2.1299 0 0 0 0.69202 0.0769zc-0.23068 0-0.46135-0.0769-0.69202-0.0769a2.1299 2.1299 0 0 0 0.69202 0.0769z" fill="none"/>
 </g>
 <path d="m734.18 210.37a337.49 337.49 0 0 0-593.52-59.975 3.9368 3.9368 0 0 0-0.46134 3.4601 3.7523 3.7523 0 0 0 2.4605 2.4605l8.7656 2.9988a5.7438 5.7438 0 0 0 1.5378 0.23067 5.0671 5.0671 0 0 0 4.0752-2.153 319.5 319.5 0 0 1 264.43-140.1 319.93 319.93 0 0 1 294.57 195.23 4.6135 4.6135 0 0 0 4.229 2.845h10.457a3.5216 3.5216 0 0 0 2.9988-1.6147 3.3678 3.3678 0 0 0 0.46134-3.3832zm-581.22-53.439a2.2452 2.2452 0 0 1-0.69202-0.15378 2.2452 2.2452 0 0 0 0.69202 0.15378zm565.15 57.053a3.1141 3.1141 0 0 0 0.69202 0.38445c-0.23067-0.15378-0.46134-0.23067-0.69202-0.38445z" fill="url(#radial-gradient)" stroke-width=".76891"/>
</svg>
