<svg enable-background="new 0 0 318 456" version="1.1" viewBox="0 0 318 456" xml:space="preserve" xmlns="http://www.w3.org/2000/svg">
<style type="text/css">
	.st0{fill:#F85397;}
</style>
	<path d="m77.7 214.1c-15.6 48.6-23 77-22.2 85 1.6 16.3 11.7 24.4 29.9 24.4 14.9 0 31.2-5.3 48.9-15.8 1-5.1 2.5-10.7 4.3-16.4l54.9-170.7c-10.7-10.3-23.4-15.5-37.9-15.5-18.6 0-33.8 8.2-45.7 24.5-6.3 9.1-16.9 37.3-32.2 84.5m212.3-179.8-82.7 257.5c-6.5 20.1 1.8 30 24.7 30l-1.5 4.3h-85.8c-2.9 0-5.4-2.3-7.4-7-2.1-4.6-3.3-6.9-3.6-6.9-18.8 10.3-35.3 15.4-49.6 15.4-33.7 0-57.5-10-71.4-30.2-13.8-20.1-15.1-48-3.6-83.5 11.3-35.5 30.4-63.2 57-83.2s56.9-30 90.9-30c14.4 0 27.1 4.7 38.3 14.2l26-80.7c6.4-20-1.8-30-24.7-30l1.4-4.2h85.8c11.4 0 13.5 11.5 6.2 34.3"/>
	<path class="st0" d="m313.7 291.7c0 18.7-15.1 33.9-33.8 33.9s-33.9-15.2-34-33.9c0-18.7 15.2-33.9 34-33.9 18.7 0 33.8 15.2 33.8 33.9"/>
<g transform="translate(57)">
	<path d="m-43.2 415.6c0 9.7 0.3 15.4 1 17 1.4 3.3 3.9 4.9 7.6 4.9 3 0 5.9-1.1 8.8-3.2-0.1-1-0.2-2.1-0.2-3.3v-34c-2.8-2.1-5.7-3.1-8.6-3.1-3.7 0-6.3 1.6-7.6 4.9-0.7 1.8-1 7.4-1 16.8zm31.1-35.8v51.4c0 4 2.3 6 6.9 6v0.9h-17.3c-0.6 0-1.2-0.5-1.9-1.4s-1.1-1.4-1.2-1.4c-3.1 2.1-6.1 3.1-9 3.1-6.8 0-12.2-2-16.3-6s-6.1-9.6-6.1-16.7 2-12.6 6.1-16.6 9.5-6 16.3-6c2.9 0 5.8 0.9 8.6 2.8v-16.1c0-4-2.3-6-6.9-6v-0.9h17.3c2.3 0 3.5 2.3 3.5 6.9z"/>
	<path d="m3.5 384.6c-1.4-1.3-2-3-2-4.8 0-1.9 0.7-3.5 2-4.8 1.4-1.3 3-2 4.9-2s3.5 0.7 4.9 2 2 3 2 4.8c0 1.9-0.7 3.5-2 4.8-1.4 1.3-3 2-4.9 2s-3.5-0.7-4.9-2zm-8.9 8.9h17.3c2.3 0 3.5 2.3 3.5 6.9v30.8c0 4 2.3 6 6.9 6v0.9h-27.7v-0.9c4.6 0 6.9-2 6.9-6v-30.8c0-4-2.3-6-6.9-6v-0.9z"/>
	<path d="m40.5 399.8 10 24.5 10-24.5c0.4-1 0.6-1.9 0.6-2.8 0-1.8-1.7-2.8-5-2.8v-0.9h11.2v0.9c-2.5 0.1-4.4 2-5.9 5.8l-15.3 38h-2.8c-1 0-1.8-0.3-2.3-0.9-0.1-0.1-0.8-1.9-2.1-5.4l-12.6-31.6c-1.2-2.9-2.2-4.5-3.1-5.1-0.8-0.5-2.2-0.8-4.1-0.8v-0.9h16.4c1.7 0.2 3.5 2.3 5 6.5"/>
	<path d="m77.9 384.6c-1.4-1.3-2-3-2-4.8 0-1.9 0.7-3.5 2-4.8 1.4-1.3 3-2 4.9-2s3.5 0.7 4.9 2 2 3 2 4.8c0 1.9-0.7 3.5-2 4.8-1.4 1.3-3 2-4.9 2s-3.6-0.7-4.9-2zm-8.9 8.9h17.3c2.3 0 3.5 2.3 3.5 6.9v30.8c0 4 2.3 6 6.9 6v0.9h-27.7v-0.9c4.6 0 6.9-2 6.9-6v-30.8c0-4-2.3-6-6.9-6v-0.9z"/>
	<path d="m117.2 400.3v30.8c0 4 2.3 6 6.9 6v0.9h-27.6v-0.9c4.6 0 6.9-2 6.9-6v-30.8c0-4-2.3-6-6.9-6v-0.9h17.3c0.5 0 1.1 0.4 1.9 1.3 0.7 0.9 1.1 1.3 1.3 1.3 3.1-2.1 6.1-3.1 9-3.1 14.9 0 22.4 5.3 22.4 15.8v22.3c0 4 2.3 6 6.9 6v0.9h-27.6v-0.9c4.6 0 6.9-2 6.9-6v-21.4c0-10.6-2.9-15.8-8.6-15.8-3 0-5.9 1.1-8.8 3.2-0.1 1.1 0 2.2 0 3.3"/>
	<path d="m163.7 384.6c-1.4-1.3-2-3-2-4.8 0-1.9 0.7-3.5 2-4.8 1.4-1.3 3-2 4.9-2s3.5 0.7 4.9 2 2 3 2 4.8c0 1.9-0.7 3.5-2 4.8-1.4 1.3-3 2-4.9 2s-3.5-0.7-4.9-2zm-8.9 8.9h17.2c2.3 0 3.5 2.3 3.5 6.9v30.8c0 4 2.3 6 6.9 6v0.9h-27.6v-0.9c4.6 0 6.9-2 6.9-6v-30.8c0-4-2.3-6-6.9-6v-0.9z"/>
	<path d="m234.2 399.8 10 24.4 9.9-24.4c0.4-1 0.6-1.9 0.6-2.7 0-1.8-1.7-2.7-5.1-2.7v-0.9h11.4v0.9c-2.5 0.1-4.4 2-5.9 5.8l-10.3 25.4-4.8 12.1-4.9 12.1c-2 4.2-4.5 6.3-7.4 6.3-1.9 0-3.5-0.7-4.9-2s-2-3-2-4.8c0-1.9 0.7-3.5 2-4.8s2.9-2 4.8-2c1.8 0 3.3 0.6 4.7 1.8 1.2 1 2.1 1.5 2.8 1.5 0.4 0 0.7-0.2 0.9-0.7l1-2-0.9-2.6-1.3-3.3c-0.1-0.1-2.1-5.4-2.1-5.4l-12.6-31.6c-1.1-2.8-2.2-4.5-3.1-5.1-0.8-0.5-2.2-0.8-4.1-0.8v-0.9h16.1c1.9 0.1 3.7 2.2 5.2 6.4"/>
	<path d="m203 394.3h12.1v-0.9h-12.1v-12h-8.6c0 8-2.8 12-8.3 12h-3.8v0.9c4.6 0 6.9 2 6.9 6v30.8c0 4-2.3 6-6.9 6v0.9h27.6v-0.9c-4.6 0-6.9-2-6.9-6v-36.8z"/>
</g>
</svg>
