<?xml version="1.0" encoding="UTF-8"?>
<svg viewBox="0 0 300 50.46" xmlns="http://www.w3.org/2000/svg">
 <path d="m193.32 24.17c16.779-25.367-1.972 2.906 15.991-24.16h-47.618c18.1 27.23-1.278-1.881 15.991 24.16-18.474 27.823 3.508-5.328-17.413 26.297h50.46c-18.477-27.804 2.222 3.344-17.413-26.297zm-85.68 26.28 50.855 0.015-18.581-50.42-13.38-0.03-18.894 50.44zm-57.885 0.015h56.5v-50.46l-19.522 7e-3 -8.862 27.453-8.573-27.461h-19.545v50.46zm-28.784 0c18.541 0 25.23-9.645 25.23-26.06 0.327-13.292-8.917-24.614-23.454-24.403h-22.743v50.46h20.966z" fill-rule="evenodd"/>
 <path d="m214.34 0.086v50.3h5.03v-23.618h30.353v23.618h5.03v-50.3h-5.03v22.12h-30.353v-22.12h-5.03zm44.619 0v50.3h15.448c7.555 0 11.44-1.153 15.864-3.739 7.623-4.492 9.731-11.847 9.731-21.239 0-9.46-2.044-16.949-9.53-21.373-4.764-2.859-8.64-3.947-17.76-3.947h-13.753zm5.04 4.564h8.913c7.623 0 10.96 0.949 14.771 3.264 5.785 3.471 7.218 9.805 7.218 17.292 0 6.602-0.687 12.388-5.315 16.13-4.02 3.199-7.758 4.49-16.674 4.49h-8.913v-41.18z" fill="#999"/>
</svg>
