<svg width="800" height="448.18" version="1.1" viewBox="0 0 800 448.18" xml:space="preserve" xmlns="http://www.w3.org/2000/svg"><link rel="stylesheet" type="text/css"/><link rel="stylesheet" type="text/css"/><style lang="en" type="text/css"/><style lang="en" type="text/css"/><path d="m0 0v293.22h800v-293.22zm70.025 66.679h68.352c48.684 0 77.978 29.573 77.978 78.814 0 51.892-29.573 80.068-77.978 80.068h-68.352zm157.07 0h60.958l27.201 86.764 27.899-86.764h61.1v158.88h-177.16zm241.46 0h41.987l59.424 158.88h-160.84zm110.06 0h150.79l-51.474 75.327 56.217 83.555h-160.28l56.495-83.555z" fill="#011552" stroke-width="1.3949"/><g transform="matrix(4.6784 0 0 4.6784 0 -1233.5)" fill="#011552"><path d="m20.858 339.47v20h-4.5359v-8.5143h-10.826v8.5143h-4.5359v-20h4.5359v7.5714h10.826v-7.5714z" stroke-width="2.2299" style="white-space:pre"/><path d="m33.665 339.47q5.318 0 8.2941 2.5143 3.0005 2.5143 3.0005 7.2286v0.0286q0 3.2286-1.3661 5.5428-1.3661 2.2857-3.9031 3.4857t-6.0498 1.2h-8.782v-20zm6.6597 9.7429q0-2.9714-1.732-4.5143-1.7076-1.5714-4.9277-1.5714h-4.391v12.686h4.3666q3.1957 0 4.9277-1.7143 1.7564-1.7429 1.7564-4.8571z" stroke-width="2.2" style="white-space:pre"/></g></svg>
