<svg width="956.22" height="238.47" version="1.1" viewBox="0 0 956.22 238.47" xmlns="http://www.w3.org/2000/svg">
 <g transform="matrix(1.0001 0 0 1.0001 156.17 39.759)" fill="#dc5014">
  <path d="m479.89-39.667 50.847-0.07343 71.57 191.85-193.92 0.014 71.508-191.78z" stroke-width="1.1655"/>
  <g transform="matrix(1.1655,0,0,1.1655,-160.62,-39.755)">
   <path d="m137.86 0.013c24.6 0.013 49.2-0.025 73.8 0.025 20.925 0.338 42.737 7.2 57.2 22.95 14.875 15.838 20.4 38.26 20.11 59.51-0.012 21.25-5.338 43.713-20.262 59.56-14.438 15.65-36.25 22.21-57.05 22.537-24.6 0.075-49.19 0-73.79 0.037-0.025-54.875 0-109.75-0.012-164.62z"/>
   <path d="m300.05 0.013c21.04-0.013 42.07 0.025 63.11-0.013 9.463 29.938 18.838 59.913 28.26 89.86 9.588-29.938 19.11-59.9 28.7-89.85h63.12c0.012 54.862 0 109.74 0.012 164.6-61.05 0.063-122.11-0.063-183.16 0.063-0.125-54.888-0.012-109.78-0.05-164.66z"/>
   <path d="m663.29 0.025c52.02-0.025 104.04-0.013 156.06-0.013-17.712 26.04-35.388 52.1-53.11 78.11 19.263 28.862 38.638 57.662 57.95 86.5h-165.74c19.487-28.8 38.913-57.638 58.42-86.41-17.813-26.1-35.737-52.13-53.587-78.19z"/>
  </g>
 </g>
 <g transform="matrix(.44588 0 0 .44588 599.54 131.4)" fill="#666" stroke-width="1.1655">
  <path d="m269.18 179.89c12.457-11.83 35.403-8.0865 44.43 6.3522-3.2787 2.5199-6.5562 5.027-9.8488 7.5329-4.7496-6.921-14.321-11.69-22.367-7.6051-4.1668 2.1994-3.4675 8.7124 0.64104 10.571 8.9304 4.6738 20.061 4.6971 27.915 11.539 8.3919 7.372 5.9874 22.437-3.6283 27.682-14.788 8.217-36.846 4.3276-44.582-11.815 3.5549-2.1562 7.1389-4.2834 10.738-6.3965 4.4582 8.7847 15.676 13.695 24.87 9.4292 4.1808-1.676 5.1727-7.9991 1.4569-10.665-8.7555-5.7694-20.44-5.1866-28.745-11.918-7.3138-5.9303-7.0049-18.037-0.88814-24.709z"/>
  <path d="m133.23 174.38c4.7356-0.21912 9.4852-0.15967 14.235-0.11655 0.0583 13.171-0.0431 26.356 0.0431 39.526-0.0152 5.0852 1.253 11.422 6.5701 13.506 4.6738 1.6609 10.884 1.4429 14.264-2.6656 2.6807-3.4535 2.8113-8.0865 2.8999-12.267-0.014-12.675 0.0291-25.336-0.0291-38.012 4.6738-0.15968 9.3593-0.13171 14.045-0.0874 0 13.141 0.0291 26.283-0.014 39.41 0.014 7.0398-1.5 14.657-6.745 19.727-5.9151 5.7554-14.744 6.8615-22.641 6.323-6.9058-0.43707-14.115-3.1621-18.153-9.0469-4.0945-5.7251-4.647-13.04-4.4582-19.849 0.0291-12.151 0.0734-24.301-0.0152-36.458z"/>
  <path d="m387.52 174.26c17.541-0.0431 35.083-0.0291 52.624-0.014v11.918c-6.4105 0.0291-12.807-0.014-19.202 0.0291-0.0291 17.53 0.014 35.071-0.014 52.589-4.7636 0.0291-9.5283 0.0291-14.278 0-0.0443-17.541 0.014-35.071-0.0291-52.612-6.3662-0.0291-12.734 0-19.1-0.014-0.014-3.9768-0.014-7.9408 0-11.904z"/>
  <path d="m517.72 174.25c12.734 0.71448 25.992-1.8509 38.331 2.1714 11.335 3.7297 13.812 18.59 8.8429 28.194-2.2145 4.2682-6.7158 6.4396-10.956 8.1937 4.837 8.625 9.5434 17.323 14.307 25.992-4.9675 0.014-9.9211-0.0291-14.875 0.0874-4.8218-7.9839-9.0038-16.352-13.681-24.418-2.6959 0.014-5.3615 0.0291-8.0271 0.0431-0.0291 8.1005 0 16.186-0.014 24.287-4.6482 0.0291-9.2952 0.014-13.928-0.014 0-21.504-0.014-43.022 0-64.524m13.942 11.667c-0.014 5.8137-0.0291 11.626 0.014 17.454 5.3615-0.15968 10.883 0.59675 16.158-0.78674 7.0515-1.5152 7.5037-13.331 0.78674-15.603-5.464-1.7483-11.32-0.91728-16.959-1.063z"/>
  <path d="m0 238.8c7.576-21.607 15.164-43.23 22.815-64.819 4.5165-0.014 9.0469-0.014 13.563 0 7.5912 21.621 15.21 43.207 22.786 64.819-4.7927 0-9.5866 0.014-14.379 0.0431-1.69-4.7787-3.2495-9.5866-4.837-14.394-7.2846-0.0431-14.569-0.0291-21.84-0.014-1.6609 4.7939-3.3078 9.5866-4.9675 14.365-4.3859 0.014-8.7707 0.014-13.141 0m28.833-45.701c-2.4045 6.9641-4.8078 13.943-7.182 20.921 4.9675 0.0291 9.9514 0.0291 14.934 0-2.7542-6.8766-3.992-14.54-7.7508-20.921z"/>
  <path d="m648.84 174.25c4.6855-0.014 9.3942-0.014 14.103 0 0.0152 21.519 0.0152 43.022 0 64.536-4.7088 0.0291-9.4176 0.0291-14.115-0.0291 0.0151-21.504 0-43.008 0.0151-64.513z"/>
  <path d="m763.6 173.97c4.5013-0.014 9.0038-0.014 13.534-0.014 7.6774 21.592 15.222 43.23 22.829 64.833-4.823 0.014-9.6448 0.014-14.468 0-1.6178-4.7939-3.2052-9.5866-4.7927-14.38-7.3289 0.10257-14.657-0.21912-21.984 0.18882-1.4861 4.8078-3.0887 9.5866-4.9384 14.278-4.3416-0.0874-8.6693-0.0874-12.996-0.0874 7.5912-21.606 15.199-43.206 22.815-64.819m6.2939 18.255c-2.4325 7.2846-4.9978 14.511-7.4455 21.796 4.9687 0 9.9362 0.014 14.905-0.014-2.4768-7.2555-4.7204-14.612-7.4594-21.782z"/>
 </g>
 <g transform="matrix(2.2621 0 0 2.2621 238.45 765.52)" fill="#666" stroke-width="1px" aria-label="HD">
  <path d="m-105.41-281.2h6.52v-12.64h11.64v12.64h6.52v-29.6h-6.52v11.48h-11.64v-11.48h-6.52z"/>
  <path d="m-74.63-281.2h9.08c8.92 0 15.84-3.84 15.84-14.96 0-10.8-6.8-14.64-15.84-14.64h-9.08zm6.48-5.28v-18.88h2.96c6.48 0 8.96 2.96 8.96 9.28 0 6.72-2.44 9.6-8.88 9.6z"/>
 </g>
</svg>
