<svg width="528.98pt" height="600pt" version="1.1" viewBox="0 0 528.98 600" xmlns="http://www.w3.org/2000/svg">
 <g transform="matrix(5.5102 0 0 5.5102 -679.71 -4004.1)">
  <g transform="matrix(.11212 0 0 .11212 119.18 715.23)">
   <path d="m134.23 211.74 373.02-109.81 289.23 146.83-33.16 384.41-358.54 172.38-241.03-216.15-29.52-377.66" fill="#271f1d"/>
  </g>
  <path d="m175.29 730.67c2.0775-0.2332 4.1887-0.0774 6.2225 0.39242 1.5999 0.4081 3.0608 1.2064 4.5408 1.9172 2.1482 1.0595 4.2638 2.1829 6.4075 3.2503 1.2557 0.68168 2.5496 1.3017 3.7324 2.1078 0.56731 0.44174 1.1526 1.0292 1.2008 1.7872 0.074 0.73661-0.46305 1.3387-0.98552 1.7816-1.2759 1.0158-2.8489 1.5427-4.3816 2.0372-3.3523 0.97766-6.9659 1.2355-10.375 0.39241-0.71531-0.16033-1.4082-0.4025-2.0742-0.70634-2.4688-1.1627-4.7964-2.591-7.1733-3.9241-1.8186-1.0505-3.682-2.0304-5.3985-3.2447-0.54265-0.41372-1.0674-1.027-1.0068-1.7524 0.11099-0.54378 0.45744-1.0214 0.89582-1.3544 1.0741-0.84873 2.3847-1.3095 3.6674-1.7367 1.5427-0.45968 3.1247-0.79267 4.728-0.9474m-1.3208 3.5384c0.76352 0.48099 1.5405 0.9373 2.3421 1.351 2.1089 1.147 4.2212 2.285 6.3279 3.4342 1.1851 0.60655 2.3152 1.3196 3.5373 1.8499 0.61777 0.34644 1.258 0.69849 1.9688 0.79828 0.37362 0.0544 0.73432-0.036 1.0814-0.16677 0.47214-0.2088 0.58889-0.47668 0.24836-0.68308-0.43726-0.31842-0.9104-0.58526-1.3723-0.86443-3.5328-1.8881-7.0679-3.7739-10.603-5.6597-0.57853-0.33747-1.1941-0.60543-1.8107-0.86218-0.52619-0.21243-1.1526-0.24368-1.683-0.0353-0.70678 0.29666-0.59097 0.46823-0.0368 0.83802z" fill="#fff" stroke-width=".11212"/>
  <path d="m155.04 736.93c2.1885-0.39129 4.4836-0.49556 6.6351 0.14688 0.60801 0.19117 1.1837 0.45379 1.7466 0.74422l11.285 6.5333c0.97842 0.58194 1.9139 1.1223 2.665 1.9363 0.32066 0.31842 0.40154 0.84777 0.26236 1.221-0.25339 0.59759-0.83976 0.94964-1.3645 1.2838-1.5203 0.81846-3.1628 1.3723-4.7874 1.9408l-9.8527 3.4717-20.161-13.422 6.9513-2.1089c2.1897-0.6458 4.3838-1.2826 6.6206-1.7468m-2.517 3.4263 13.637 8.5669c0.64216-0.40861 1.766-0.44737 1.5932-1.1985-0.7254-0.76128-1.6549-1.2804-2.5406-1.8298l-8.2418-5.0879c-0.66149-0.38904-1.3465-0.8263-2.137-0.85209-0.79492-0.0381-1.5645 0.20315-2.3108 0.40138z" fill="#fff" stroke-width=".11212"/>
  <path d="m136.61 747.41 6.5869 4.7173 0.37223 6.323-6.4894-4.8682z" fill="#f7f6f4" stroke-width=".11212"/>
  <path d="m202.47 751.98c0.57368-2.3e-4 1.15 0.20542 1.6098 0.54269 1.0427 0.78034 1.4968 2.0921 1.693 3.3321 0.0934 0.51761 0.15533 1.159 0.11299 1.598l-1.316 15.641c-0.0628 1.3903-0.43278 2.7514-0.92722 4.0463-0.77249 1.9094-1.8926 3.7481-3.5328 5.033-0.6671 0.53592-1.4811 0.82294-2.2435 1.1929l-25.905 11.992c-0.79828 0.34756-1.7042 0.56171-2.5664 0.33747-1.166-0.22872-2.0854-1.1492-2.5697-2.1998-0.47875-0.9743-0.6032-2.0663-0.69626-3.1326l-0.13902-16.153c0.10539-2.8971 1.0606-5.7842 2.8108-8.1061 0.8521-1.1111 1.9082-2.1157 3.2122-2.6662l29.448-11.266c0.31787-0.13445 0.68768-0.19068 1.0091-0.19243zm-6.0052 8.595-4.3143 12.99-3.1662-10.004-4.6596 1.8836 5.7875 16.371 3.1362-1.4116 7.6125-21.565-4.3961 1.7356m-24.658 9.8428-0.0135 4.5699 3.5351-1.4082-0.13903 14.93 4.3334-1.9452 0.34645-14.865 3.4779-1.4676 0.12557-4.4342z" fill="#fff" stroke-width=".11212"/>
  <path d="m146.47 754.65 16.621 11.969 0.10875 6.4726-4.6495-3.4656 0.61328 24.05-7.0466-6.1295-1.0562-23.549-4.2011-3.1526z" fill="#fff" stroke-width=".11212"/>
  <path d="m137.36 756.92 6.3851 4.8794 1.2053 19.562-6.1687-5.3704z" fill="#fff" stroke-width=".11212"/>
 </g>
 <g transform="matrix(1.6219 0 0 1.6219 -1341.4 438.4)" fill="#fff" stroke="#271f1d">
  <g transform="matrix(1.0433 0 0 -1.0433 827.61 14.236)">
   <path d="m0 0v-79.7h26.5c5 0 8.7 0.2 11.2 0.8s4.6 1.5 6.4 2.9c1.7 1.4 2.9 3.4 3.6 5.8 0.7 2.5 1 7.2 1 14.3v27.7c0 7.5-0.2 12.5-0.7 15.2-0.5 2.6-1.6 4.9-3.5 7.1-1.9 2.1-4.7 3.6-8.2 4.6-3.6 0.9-10.4 1.3-20.5 1.3h-15.5zm20.8-13.5v-52.7h0.3c1.5 0 2.7 0.2 3.7 0.5 0.9 0.3 1.6 0.8 2 1.5 0.4 0.6 0.6 1.8 0.8 3.4s0.3 3.8 0.3 6.4v30.8c0 3.6-0.1 5.8-0.4 6.9-0.2 1.1-0.8 1.9-1.7 2.5-0.9 0.5-2.4 0.7-4.7 0.7z" fill="#fff" fill-rule="evenodd" stroke="#271f1d"/>
  </g>
  <g transform="matrix(1.0433 0 0 -1.0433 913.23 12.525)">
   <path d="m0 0c-4.6 0-8.6-0.7-12-2.2-3.5-1.5-6.2-3.7-8.2-6.5-2.1-2.7-3.3-5.8-3.7-9.1-0.3-3.4-0.5-9-0.5-16.9v-13.6c0-8.2 0.2-13.9 0.5-17.1 0.5-3.3 1.7-6.4 3.8-9.3 2.2-2.7 4.9-4.9 8.4-6.3s7.4-2 11.7-2c4.5 0 8.5 0.7 11.9 2.1 3.5 1.6 6.2 3.7 8.2 6.5 2.1 2.7 3.3 5.8 3.7 9.2 0.4 3.3 0.5 8.9 0.5 16.9v13.6c0 8.1-0.1 13.8-0.6 17.1-0.3 3.3-1.6 6.3-3.7 9.2-2.1 2.7-4.9 4.9-8.4 6.3-3.4 1.4-7.3 2.1-11.6 2.1m0-13.4c-1.1 0-2.1-0.5-2.7-1.3-0.3-0.6-0.5-1.4-0.7-2.6-0.1-1.3-0.2-3-0.2-5v-36.9c0-2.4 0.1-4.2 0.1-5.7 0.2-1.4 0.3-2.4 0.5-3s0.5-1 1-1.4c0.6-0.3 1.2-0.4 1.9-0.4s1.4 0.2 1.9 0.5c0.5 0.4 0.9 0.9 1.1 1.6 0.4 1.3 0.6 4.2 0.6 8.9v36.4c0 3.7-0.2 6-0.6 7.2-0.5 1.1-1.5 1.7-2.9 1.7" fill="#fff" fill-rule="evenodd" stroke="#271f1d"/>
  </g>
  <g transform="translate(-4.7702 98.936)">
   <g transform="matrix(1.0433 0 0 -1.0433 1077.7 -85.207)">
    <path d="m0 0v-13.1h21.4v13.1h-21.1z" fill="#fff" fill-rule="evenodd" stroke="#271f1d"/>
   </g>
   <g transform="matrix(1.0433 0 0 -1.0433 1077.4 -65.281)">
    <path d="m0 0v-60.8h21.6v60.8h-21.3z" fill="#fff" fill-rule="evenodd" stroke="#271f1d"/>
   </g>
  </g>
  <g transform="matrix(1.0433 0 0 -1.0433 1104.6 14.218)">
   <path d="m0 0v-16.4h12.3v-63.3h21.5v63.3h12.3v16.4h-45.8z" fill="#fff" fill-rule="evenodd" stroke="#271f1d"/>
  </g>
  <g transform="translate(0 99.006)">
   <g transform="matrix(1.0433 0 0 -1.0433 948.52 -84.79)">
    <path d="m0 0v-79.7h24.4c8.4 0 13.9 0.5 16.7 1.4 2.8 1 4.8 2.8 6.1 5.5 1.3 2.6 1.9 6.6 1.9 12v7.3c0 5.2-0.9 9.1-2.7 11.7-1.6 2.4-4.7 4.1-9 5.1 3.8 1 6.5 2.3 7.9 4 1.6 2 2.3 5.2 2.3 9.9 0 6.9-1 11.9-3.2 15-2.1 3.1-4.9 5.3-8.3 6.3-3.5 1-8.4 1.5-15 1.5h-20.8zm20.8-13.5v-18.2h2.4c2.1 0 3.5 0.5 4.2 1.7 0.3 0.6 0.5 1.6 0.7 3 0.1 1.4 0.1 3.3 0.1 5.7s-0.1 4.2-0.6 5.3c-0.6 1.1-1.2 1.8-2.1 2-0.8 0.3-2.2 0.5-4.4 0.5zm0-29.8v-22.9l0.3 0.1c3 0 4.9 0.4 5.9 1.4 0.9 1 1.2 3 1.2 6.2v7.4c0 1.8 0 3.2-0.2 4.2s-0.5 1.8-0.9 2.2c-0.5 0.5-1.2 0.8-2.1 0.9-1 0.3-2.3 0.4-3.9 0.5z" fill="#fff" fill-rule="evenodd" stroke="#271f1d"/>
   </g>
   <g transform="matrix(1.0433 0 0 -1.0433 1009.3 -84.79)">
    <path d="m0 0v-79.7h24.4c8.4 0 13.9 0.5 16.7 1.4 2.8 1 4.8 2.8 6.1 5.5 1.3 2.6 1.9 6.6 1.9 12v7.3c0 5.2-0.9 9.1-2.7 11.7-1.6 2.4-4.7 4.1-9 5.1 3.8 1 6.5 2.3 7.9 4 1.6 2 2.3 5.2 2.3 9.9 0 6.9-1 11.9-3.2 15-2.1 3.1-4.9 5.3-8.3 6.3-3.5 1-8.4 1.5-15 1.5h-20.8zm20.8-13.5v-18.2h2.4c2.1 0 3.5 0.5 4.2 1.7 0.3 0.6 0.5 1.6 0.7 3 0.1 1.4 0.1 3.3 0.1 5.7s-0.1 4.2-0.6 5.3c-0.6 1.1-1.2 1.8-2.1 2-0.8 0.3-2.2 0.5-4.4 0.5zm0-29.8v-22.9l0.3 0.1c3 0 4.9 0.4 5.9 1.4 0.9 1 1.2 3 1.2 6.2v7.4c0 1.8 0 3.2-0.2 4.2s-0.5 1.8-0.9 2.2c-0.5 0.5-1.2 0.8-2.1 0.9-1 0.3-2.3 0.4-3.9 0.5z" fill="#fff" fill-rule="evenodd" stroke="#271f1d"/>
   </g>
  </g>
 </g>
</svg>
