<svg id="a" width="1441.4pt" height="290.53pt" version="1.1" viewBox="0 0 1441.4 290.53" xmlns="http://www.w3.org/2000/svg">
 <path id="b" d="m0 0h141.81c29.2 0 61.577 10.98 82.33 24.415 30.19 19.74 52.53 51.12 61.15 86.16 9.88 38.57 2.56 81.07-19.48 114.2-17.6 27.01-44.5 47.83-75.08 58.04-16.98 5.72-32.907 7.715-52.9 7.715h-137.83v-290.53" fill="#cd1e55"/>
 <path id="c" d="m1284.1 23.335c10.9-3.73 23.72 3.16 27.36 13.95 3.53 9.17 0.05 20.54-8.13 26.04-3.69 2.43-8.04 4.28-12.54 4.05-10.39 0.6-20.41-7.46-22.29-17.67-2.84-11.07 4.56-23.45 15.6-26.37z" fill="#cd1e55"/>
 <path id="d" d="m920.66 80.625c15.41-4.37 32.52-3.85 47.12 3.1 7.65 3.57 14.58 9.32 18.09 17.15 2.38 4.81 3.01 10.2 3.23 15.5l-32.6 0.11c-0.0173-1.7548-0.65-5.07-2.72-6.6-5.43-4.55-13.32-4.8-19.87-2.92-2.556 0.81877-5.4972 1.891-7.3151 3.9276-1.7616 1.7616-2.3429 4.3915-1.7103 6.5892 0.62627 2.0851 2.393 3.8869 4.4454 4.6332 8.84 3.4 18.53 2.49 27.69 4.4 9.2 1.49 18.79 3.7 26.16 9.75 12.51 10.97 12.9 32.47 1.4 44.33-10.19 10.74-25.34 15.01-39.74 15.71-16.01 0.59-33.24-3.13-45.17-14.45-6.71-6.32-9.49-15.58-9.63-24.59l33-0.08c0 7.8309 7.6109 9.8389 13.76 10.2 6.36 0.05 13.22 0.96 18.93-2.54 2.9972-1.4331 4.3313-5.7767 2.6238-8.522-2.4366-3.9888-8.1983-4.3437-12.007-4.8003-4.0994-0.32942-7.8522-0.42719-11.626-0.83068-10.91-1.1697-22.13-3.0471-31.111-9.6871-7.88-5.74-11.53-15.7-11.55-25.2-0.51-9.16 3.17-18.46 9.93-24.69 5.2-5.03 11.89-8.16 18.67-10.49z" fill="#cd1e55"/>
 <path id="e" d="m516.24 80.325c13.42-1.65 27.37 1.9 38.67 9.27 12.32 7.98 21.31 20.88 24.62 35.17 3.16 13.58 1.5 28.33-5.05 40.68-7.68 14.85-22.07 26.05-38.39 29.73-13.77 3.04-28.68 1.3-41.07-5.56-15.31-8.2-26.47-23.67-29.43-40.78-2.77-14.08 0.27-29.1 7.79-41.27 9.07-15.07 25.46-25.21 42.86-27.24m0.78 34.58c-9.05 2.26-16.59 10.08-17.94 19.41-2.26 11.41 5.23 23.56 16.29 26.97 9.44 2.99 20.68-0.32 26.64-8.33 4.81-5.8 5.9-13.98 4.13-21.15-3.17-12.15-16.94-20.34-29.12-16.9z" fill="#cd1e55"/>
 <path id="f" d="m334.35 81.46h51.37c4.39-0.1 8.75 0.515 13.12 0.805 16.58 2.38 31.81 12.54 40.34 26.96 4.94 8.01 7.42 17.31 8.18 26.64 0.62 16.92-6.63 33.98-19.45 45.1-9.92 8.66-22.9 13.955-36.14 13.895h-57.42v-113.4m48.7 33.625c-13.11 1.85-23.05 16.36-19.01 29.19 2.34 9.8 11.75 17.24 21.79 17.47 13.4 1.17 25.82-11.55 24.35-24.93-0.21-13.46-14.08-24.15-27.13-21.73z" fill="#cd1e55"/>
 <path id="g" d="m602.3 81.475h31.705l33.03 56.378 33.01-56.378h31.975v113.38h-31.945v-56.865l-17.08 28.175h-31.92l-16.99-28.175v56.865h-31.785z" fill="#cd1e55"/>
 <path id="h" d="m795.81 81.525c11.63-0.02 23.27-0.05 34.9 0.02 15.42 37.81 31.15 75.5 46.59 113.3-42.75 0.03-85.49 0.01-128.23 0.01 15.54-37.79 31.06-75.6 46.74-113.33m-0.27 84.44c11.72 0.07 23.45 0.08 35.17 0.01-5.54-14.16-11.19-28.31-17.55-42.13-6.45 13.78-11.79 28.06-17.62 42.12z" fill="#cd1e55"/>
 <path id="i" d="m1016.5 81.455h32.095v29.865h34.035v-29.865h31.93v113.4h-31.93v-56.63h-34.035v56.63h-32.095z" fill="#cd1e55"/>
 <path id="j" d="m1142.6 81.465h31.99l38.445 64.6v-64.6h31.915v113.39h-31.83l-38.635-64.49v64.49h-31.885z" fill="#cd1e55"/>
 <path id="k" d="m1274.2 194.86v-113.4h31.86v113.4z" fill="#cd1e55"/>
 <path id="l" d="m1327.7 81.475h33.54l23.175 39.19 23.175-39.19h33.8l-41.6 68.97-0.27 44.41h-30.48l-0.05-44.41z" fill="#cd1e55"/>
 <g id="m" transform="translate(-29.23,-30.245)" fill="#cd1e55">
  <path id="n" d="m363.55 316.33v-69.791h12.127v69.791z"/>
  <path id="o" d="m412.62 316.74v-70.237h15.81l32.938 46.904v-46.904h15.097v70.237h-16.304l-32.444-45.802v45.802z"/>
  <path id="p" d="m529.41 316.76v-58.331h-23.304v-11.877h62.412v11.877h-23.25v58.331z"/>
  <path id="q" d="m597.92 316.76v-70.264h50.955v11.886h-37.079v15.577h34.501v11.838h-34.501v19.124h38.392v11.838z"/>
  <path id="r" d="m682.95 316.55v-70.011h29.581q11.158 0 16.191 1.9102 5.0806 1.8625 8.1195 6.6859 3.0388 4.8234 3.0388 11.032 0 7.8798-4.6058 13.038-4.6058 5.1099-13.77 6.4471 4.5583 2.6744 7.5022 5.8741 2.9914 3.1997 8.0245 11.366l8.4993 13.658h-16.809l-10.161-15.234q-5.413-8.1663-7.4072-10.268-1.9942-2.149-4.2259-2.9132-2.2317-0.81184-7.0748-0.81184h-2.8489v29.227zm14.055-40.402h10.399q10.114 0 12.63-0.85964 2.5165-0.85961 3.941-2.9609 1.4245-2.1013 1.4245-5.2532 0-3.534-1.8993-5.683-1.8518-2.1968-5.2705-2.7699-1.7094-0.23889-10.256-0.23889h-10.968z"/>
  <path id="s" d="m776.27 316.74v-70.237h15.81l32.938 46.904v-46.904h15.097v70.237h-16.304l-32.444-45.802v45.802z"/>
  <path id="t" d="m943.88 316.38h-16.356l-6.5018-15.882h-29.766l-6.1463 15.882h-15.95l29.004-69.92h15.899zm-27.684-27.663-10.261-25.946-10.058 25.946z"/>
  <path id="u" d="m983.03 316.76v-58.331h-23.304v-11.877h62.412v11.877h-23.251v58.331z"/>
  <path id="v" d="m1052.2 316.33v-69.791h12.127v69.791z"/>
  <path id="w" d="m1097.9 282.13q0-10.682 3.5065-17.93 2.6168-5.3408 7.1177-9.5848 4.5531-4.244 9.9437-6.2945 7.1699-2.7657 16.538-2.7657 16.957 0 27.11 9.5848 10.205 9.5848 10.205 26.656 0 16.928-10.101 26.513-10.101 9.5371-27.005 9.5371-17.114 0-27.214-9.4894-10.101-9.5371-10.101-26.227zm15.962-0.47685q0 11.874 6.0185 18.025 6.0186 6.1037 15.282 6.1037 9.2633 0 15.177-6.056 5.9662-6.1037 5.9662-18.264 0-12.017-5.8093-17.93-5.7569-5.913-15.334-5.913-9.5774 0-15.439 6.0083-5.8615 5.9607-5.8615 18.025z"/>
  <path id="x" d="m1205.3 316.74v-70.237h15.81l32.938 46.904v-46.904h15.097v70.237h-16.304l-32.444-45.802v45.802z"/>
  <path id="y" d="m1373.2 316.38h-16.356l-6.5018-15.882h-29.766l-6.1462 15.882h-15.95l29.004-69.92h15.899zm-27.684-27.663-10.261-25.946-10.058 25.946z"/>
  <path id="z" d="m1403.4 316.78v-70.244h15.834v58.311h39.371v11.933z"/>
 </g>
 <path id="aa" d="m74.345 132.77v59.54h119.26v-59.54l-59.632-59.62z" fill="#fff"/>
 <flowRoot id="ab" transform="matrix(.75 0 0 .75 -29.23 -30.245)" fill="#000000" font-family="Arial" font-size="40px" font-weight="900" letter-spacing="0px" stroke-width="1px" word-spacing="0px" style="line-height:25px" xml:space="preserve"><flowRegion id="ac" font-family="Arial" font-weight="900"/><flowPara id="ad"/></flowRoot>
</svg>
