<svg enable-background="new 0 0 860 114" version="1.1" viewBox="0 0 860 114" xml:space="preserve" xmlns="http://www.w3.org/2000/svg">
<g transform="matrix(5.5072 0 0 5.5072 -38 -33.043)">
	<path d="m16.9 6.4h-10c1.6 0 1.8 1.2 1.8 3.3v16.6h4.5v-16.6c0-2.1 0-2.8 1.8-2.8 3.5 0 6.9 2.9 6.9 9.5 0 6.4-2.1 9.2-5.2 9.7-0.4 0.1-0.9 0.2-1.3 0.2h1.4c6.2 0 10-4.2 10-9.9 0-5.9-3.7-10-9.9-10zm55.5 15.4c-1.3-2.8-2.1-5-5.4-5.6 2.8-0.3 5.7-1.6 5.7-4.9 0-3.2-2.1-4.9-6.7-4.9h-10.4c1.6 0 1.8 1.2 1.8 3.3v16.6h4.5v-16.7c0-2.1 0.4-2.8 2.1-2.8 2.8 0 4.2 2 4.2 4.7 0 3.1-2.5 5-3.8 5.2 1.1 0.1 1.7 1.1 2 1.7 0.8 1.9 1.2 4.8 2.8 6.6 1.1 1.3 3 1.3 4.2 1.3h3.3c-2-0.1-3.5-2.6-4.3-4.5zm30.4-5.5c2.9 0.1 5.3 1.4 5.3 3.1v-6.2c0 1.7-2.3 3-5.3 3.1zm1.2 9.5c-1.6 0-1.7-0.7-1.8-2.8v-13.4c0-2.1 0.2-2.8 1.8-2.8 3.2 0 6.8 2.1 7.6 3.9l-1.4-4.4h-14.3c1.6 0 1.8 1.2 1.8 3.3v16.6h13.9l1.4-4.8c-0.8 1.9-5.7 4.4-9 4.4zm18.1-0.1c-1.6 0-1.7-0.6-1.8-2.7v-13.8c0-1.8 0.3-2.8 1.8-2.8h-8.1c1.6 0 1.8 1.2 1.8 3.3v16.7h13.9l1.4-4.8c-0.8 1.7-5.8 4.1-9 4.1zm-87.8-11.4c0-1.4-0.1-7.5 2.9-8.2-4.3 0.3-7.8 3.1-7.8 8.1 0 6.1 5 11 11.9 12.5-3.3-0.8-7-4.6-7-12.4zm11.9-8.2c3 0.8 2.9 6.8 2.9 8.2 0 7.8-3.8 11.5-6.9 12.4 6.9-1.4 11.9-6.4 11.9-12.5 0-5-3.6-7.8-7.9-8.1zm41.8 19.9c-5.3 0-7.4-4.3-7.4-9.9 0-5.3 1.8-9.7 7-9.7 3.7 0 6 2.6 6.5 6.4v-5.3c-1.5-0.8-4.3-1.5-6.6-1.5-7.1 0-11.7 3.4-11.7 10.5 0 6.5 4.7 10 11.8 10 2.9 0 5.6-0.9 6.8-1.6v-4.2c-0.7 2.9-3 5.3-6.4 5.3z"/>
</g>
<g transform="scale(1.1752 .85092)" fill="#D0006F">
	<path d="m582.5 61.4 20.8-28-18.3-25.7h8.5l9.7 13.8c2 2.9 3.5 5.1 4.3 6.6 1.2-2 2.6-4 4.2-6.1l10.8-14.3h7.7l-18.8 25.3 20.3 28.4h-8.8l-13.5-19.2c-0.8-1.1-1.5-2.3-2.3-3.6-1.2 2-2.1 3.3-2.6 4l-13.5 18.8h-8.5z"/>
	<path d="m632.5 61.4 20.8-28-18.3-25.7h8.5l9.7 13.8c2 2.9 3.5 5.1 4.3 6.6 1.2-2 2.6-4 4.2-6.1l10.8-14.3h7.7l-18.7 25.3 20.3 28.4h-8.8l-13.5-19.2c-0.8-1.1-1.5-2.3-2.3-3.6-1.2 2-2.1 3.3-2.6 4l-13.5 18.7-8.6 0.1z"/>
	<path d="m682.6 61.4 20.8-28-18.4-25.7h8.5l9.7 13.8c2 2.9 3.5 5.1 4.3 6.6 1.2-2 2.6-4 4.2-6.1l10.8-14.3h7.7l-18.7 25.3 20.3 28.4h-8.8l-13.5-19.2c-0.8-1.1-1.5-2.3-2.3-3.6-1.2 2-2.1 3.3-2.6 4l-13.5 18.7-8.5 0.1z"/>
</g>
</svg>
