<svg width="800" height="387.56" space="preserve" version="1.1" viewBox="0 0 800 387.56" xmlns="http://www.w3.org/2000/svg">
 <link rel="stylesheet" type="text/css"/>
 <link rel="stylesheet" type="text/css"/>
 <g transform="matrix(9.0909 0 0 9.0909 9.0909 -55.369)" fill-rule="evenodd">
  <g transform="translate(-1,6)">
   <polygon points="0 30 44 30 44 29 0 29"/>
   <polygon points="50 30 88 30 88 29 50 29"/>
   <path d="m47 28s-1.9032 0.02164-2 1.9701c0 0.90746 0.58856 1.9542 2 2.0299 0.57015-0.05274 1.8328-0.1709 2-2.0299 0-0.3898-0.24552-1.8674-2-1.9701"/>
   <g transform="translate(4)">
    <path d="m15.719 19.463v-8.1059c-1.103-2.3054-3.6765-3.8298-6.5807-3.8298-4.0805 0-7.4629 3.5694-7.4629 7.8454 0 4.3132 3.3823 7.8828 7.4629 7.8828 2.9042 0 5.4777-1.5242 6.5807-3.7925zm0 4.722v-2.3422c-1.4706 1.8591-3.7866 2.9003-6.5807 2.9003-4.9996 0-9.0437-4.2019-9.0437-9.3704 0-5.1312 4.1544-9.3328 9.0437-9.3328 2.7942 0 5.1102 1.0411 6.5807 2.9003v-8.8495h1.5439v24.094z"/>
    <path d="m31.159 7.5271c-4.1542 0-7.6468 3.5696-7.6468 7.8457 0 4.3129 3.4926 7.8828 7.6468 7.8828 4.1911 0 7.6835-3.5699 7.6835-7.8828 0-4.2761-3.4924-7.8457-7.6835-7.8457m0 17.216c-5.0732 0-9.2276-4.2019-9.2276-9.3702 0-5.1312 4.1544-9.3331 9.2276-9.3331 5.1102 0 9.2643 4.2019 9.2643 9.3331 0 5.1683-4.1542 9.3702-9.2643 9.3702"/>
    <polygon points="43.621 6.0398 51.084 14.109 58.546 6.0398 59.613 7.118 52.113 15.224 59.723 23.367 58.657 24.445 51.084 16.34 43.584 24.445 42.518 23.367 50.054 15.224 42.554 7.118"/>
    <polygon points="63.766 6.0398 71.229 14.109 78.692 6.0398 79.758 7.118 72.258 15.224 79.868 23.367 78.802 24.445 71.229 16.34 63.729 24.445 62.663 23.367 70.2 15.224 62.7 7.118"/>
   </g>
  </g>
 </g>
 <g transform="matrix(8.33 0 0 8.33 -211.82 -194.71)" stroke-width=".4097">
  <path d="m120.83 67.737v-3.321c-0.45189-0.9445-1.5063-1.5691-2.6961-1.5691-1.6718 0-3.0575 1.4624-3.0575 3.2142 0 1.7671 1.3857 3.2296 3.0575 3.2296 1.1898 0 2.2442-0.62446 2.6961-1.5538zm0 1.9346v-0.95959c-0.60248 0.76168-1.5514 1.1882-2.6961 1.1882-2.0483 0-3.7052-1.7215-3.7052-3.839 0-2.1022 1.702-3.8236 3.7052-3.8236 1.1448 0 2.0936 0.42655 2.6961 1.1882v-3.6256h0.63254v9.8714z"/>
  <path d="m106.4 59.8v9.871h0.63281v-5.2558c0.45189-0.9445 1.3719-1.5684 2.5617-1.5684 1.6718 0 2.9922 1.4622 3.057 3.2129v3.6112h0.648v-3.6112c0-2.1022-1.7019-3.8223-3.705-3.8223-1.1448 0-1.9592 0.42582-2.5617 1.1875v-3.625z"/>
 </g>
</svg>
