<svg width="800" height="470.67" enable-background="new 0 -0.001 1000 588.334" space="preserve" version="1.1" viewBox="0 -.001 800 470.67" xmlns="http://www.w3.org/2000/svg">
 <link rel="stylesheet" type="text/css"/>
 <link rel="stylesheet" type="text/css"/>
 <style lang="en" type="text/css"/>
 <style lang="en" type="text/css"/>
 <path d="m633.55 441.32c-2.3664 1.12-5.3568 1.3624-9.348 1.3624h-1.7488v-18.718c0-3.208 0.37679-4.0312 5.608-4.0312 4.8704 0 12.474 3.4472 12.474 11.138 0 3.9168-1.8688 7.6728-6.9848 10.25m-74.633 24.214c-12.458 0-18.767-12.734-18.767-23.313 0-14.022 9.0008-23.42 18.798-23.42 10.924 0 19.203 7.7096 19.203 23.806 0 11.364-8.3 22.926-19.234 22.926m-297.71-17.054 7.5512-15.341h0.372l7.672 15.341zm-106.58-6.9768c-2.324 1.1376-5.2624 1.3736-9.1848 1.3736h-1.7168v-18.667c0-3.244 0.3776-4.0784 5.5144-4.0784 4.776 0 12.249 3.1888 12.249 10.982-2e-3 3.972-1.8384 7.7888-6.8616 10.39m-98.29 22.88c-8.42 0-12.28-2.4184-12.28-12.097v-41.713c0-2.7064 0.1728-5.2128 1.052-5.4328 1.2248-0.4312 3.5088-0.7544 7.5464-0.7544 14.919 0 34.049 6.52 34.049 29.874 0 19.231-15.265 30.123-30.367 30.123m722.16-27.608-2.7656-0.7952c-8.1744-2.2424-12.954-4.6424-12.954-8.6488 0-3.844 4.5296-6.7144 10.939-6.7144 9.9288 0 14.338 5.4248 17.102 10.72l5.5248-0.5688c-1.372-5.444-2.2568-9.3672-2.7496-12.494-1.64-0.32319-3.6496-0.64399-6.5464-1.116-3.6496-0.6504-7.676-0.972-11.566-0.972-19.748 0-30.054 7.3736-30.054 16.43 0 8.5672 11.573 12.818 21.999 15.783l1.8904 0.556c7.792 2.084 12.578 4.8856 12.578 9.6144 0 5.2048-5.1008 7.6544-11.646 7.6544-12.322 0-19.674-8.6232-22.303-13.262l-5.54 1.0472c1.12 3.984 2.3096 7.3936 3.2568 10.405l0.4768 1.5504c-0.948-0.1888-1.6816-0.3672-1.6864-0.3672-2.9576-0.7952-5.9272-2.4344-10.316-6.2264-7.808-6.728-15.977-14.982-23.653-22.595 5.1944-3.9216 11.399-8.0016 18.076-12.172 6.4416-4.0872 10.275-4.1936 17.338-4.6704v-3.28h-33.188v2.7048l4.7072 0.0112c3.3464 0.2456 1.9848 2.4264 0.25119 3.8704-7.184 6.0816-14.735 12.017-23.774 18.584v-12.502c0-8.6392 0.9888-9.4752 9.164-9.9624v-2.7048h-38.63v2.7048c8.6616 0.4872 9.6504 1.3232 9.6504 9.9624v27.323c0 3.1096-0.136 5.3832-0.676 6.9328-0.8056 2.0888-3.492 2.472-5.4248 2.1784-2.628-0.408-4.7024-2.372-6.456-4.2312-1.9216-2.02-3.8336-4.064-5.7872-6.0752-3.5856-3.708-8.22-9.8016-9.964-12.044 9.2264-2.3296 16.082-6.492 16.082-13.542 0-4.7248-3.7392-8.6216-8.7296-10.626-4.8544-2.0064-11.348-2.5832-21.071-2.5832h-39.621l0.80159 2.7048c8.3568 0.4872 8.5464 1.3232 8.5464 9.9624v11.394c-0.4184-15.577-19.91-26.086-42.924-26.086-18.292 0-28.775 5.4376-35.635 12.59 4.1936-8.2264 6.9848-13.449 7.3728-14.07 5.9136-9.6752 7.4832-9.5592 17.229-10.446v-3.7016h-41.605v3.7016l6.6248 0.4408c7.4824 0.44559 8.0056 1.3512 5.7384 7.6184-2.4408 6.4832-8.876 21.834-14.971 34.706l-0.3408-0.5984-26.466-45.942h-12.175l-22.806 45.942-0.3504 0.5984-16.532-36.649c-2.0944-4.5048-1.5704-5.1328 4.8752-5.6768l5.5672-0.4408v-3.7016h-54.31v3.7016c8.008 0.65759 11.138 0.65759 15.841 9.78l2.1216 4.1816h-25.932l-19.396 32.146-22.187-32.146h-29.808v2.6936c10.018 0.5592 11.034 1.936 10.15 12.162l-1.3928 16.398c-0.6336 7.384-1.3984 11.689-2.032 14.202-0.2192 0.8592-0.3552 1.9064-1.0992 2.0736-0.8752 0.1312-2.8072-2.9112-4.4512-5.8856-4.6288-8.284-9.8656-17.862-15.113-27.517l-8.284-15.347-8.4152 1.136-24.371 41.964c-0.2832 0.4856-0.556 0.928-0.8168 1.3456-0.932 1.236-1.88 2.3984-2.8328 3.064-2.728 1.9528-9.772 2.4408-14.726 2.4408-3.8384 0-6.6824-0.0888-8.6664-0.7392-2.2248-0.7328-2.4768-2.9424-2.4768-7.1528v-13.075h6.1944c10.646 0 11.013 0.3296 12.254 7.472h5.4464v-19.169h-5.4464c-1.2416 6.172-1.608 6.4856-12.254 6.4856h-6.1944v-15.486c0-2.8488 0.2456-3.244 4.9528-3.244h2.1056c6.556 0 10.646 0.4872 12.626 1.864 1.98 1.3032 3.3408 3.9752 4.5824 7.9544l5.4408-0.2488c-0.6176-6.0856-1.2256-12.016-1.3568-13.39h-58.681v2.6936c8.2952 0.4872 9.2904 1.5216 9.2904 10.297v26.789c0 6.1904-0.5088 8.284-4.1576 9.1528-1.2832 0.2888-2.6544 0.316-3.928-0.0624-1.0624-0.3032-1.9528-0.9624-2.8216-1.628-1.9536-1.628-4.6504-4.384-8.808-8.6872-3.556-3.728-8.0808-9.3312-9.7984-11.605 9.0592-2.3504 15.798-6.5768 15.798-13.72 0-4.7936-3.6704-8.4456-8.5768-10.467-4.7712-2.0376-11.144-2.7624-20.701-2.7624l-39.866 0.028c-2.8216-3.3952-6.0952-6.0472-9.3736-8.0768-11.766-7.056-29.666-9.6608-51.255-9.6608h-51.252v4.236c11.411 0.6544 12.814 1.4144 12.814 13.149v35.842c0 11.741-1.4032 13.082-14.217 13.731v3.5032h45.286c40.542 0 73.716-11.474 73.716-38.53 0-4.1016-1.3096-7.8016-3.3096-11.036h1.1048s1.7392-0.0408 3.3304 0.2112c0.168 0.0312 1.3984 0.3 2.1784 0.992 1.5352 1.392 1.828 3.8984 1.828 8.6016v26.789c0 8.7608-0.9792 9.6624-9.672 10.159v2.8216h38.687v-2.8216c-8.4416-0.4968-9.4256-1.3984-9.4256-10.159v-9.7504h1.6024c2.3192 0 4.0376 1.2248 5.1432 2.9328 4.3352 6.4472 8.944 13.803 16.154 17.342 4.8904 2.3888 10.206 2.456 15.542 2.456h80.863v-2.8216h-3.5352c-5.6024-0.4096-5.728-1.808-4.0216-5.3l3.6608-7.6232h19.983l4.3936 8.116c1.5816 2.9168 1.3352 4.32-3.1688 4.7296l-3.6592 0.0784v2.8216h53.81v-2.8216c-8.2368-0.4184-11.022-1.4768-11.53-4.4832-0.5136-2.5128-0.6336-6.4096-0.2512-13.395l0.8904-18.022h0.2512l23.738 38.722h5.7856l25-41.558h0.508l0.3824 28.577c0.1248 9.008-0.2512 9.5832-9.7664 10.159v2.8216h39.687v-2.5704c-9.1264-0.5704-9.3784-1.4032-9.76-10.411l-1.2728-27.205c-0.324-7.3608 0.016-9.0408 6.3472-9.7312l25.826 49.954h13.401l23.329-43.902h0.3464l25.591 43.902h13.406c5-10.913 9.9384-20.423 14.249-29.147-0.0888 0.7592-0.1464 1.5184-0.1464 2.2736 0 14.734 16.651 27.689 42.332 27.689 24.119 0 42.526-11.646 42.946-28.466v14.831c0 8.6504-0.9952 9.4784-9.8552 9.9592v2.8592h40.129v-2.8592c-8.6048-0.4816-9.5992-1.3096-9.5992-9.9592v-10.202h1.6184c2.372 0 4.12 1.2048 5.2472 2.8904 3.052 4.5872 6.0424 9.3 10.017 13.17 3.7592 3.6504 8.5352 6.0264 13.746 6.6248 2.6504 0.3128 5.316 0.2968 7.9816 0.2968h42.61v-2.8216c-8.7872-0.4816-10.028-1.3096-9.7768-9.9592v-12.81h0.2464c9.0328 8.7232 21.93 20.466 26.638 25.59h31.001c3.3464 0.5144 8.248 1.1264 12.599 1.136h-6e-3c1.22 0.064 2.456 0.1064 3.692 0.1064 19.486 0 31.933-7.2112 31.933-17.062-2e-3 -9.3768-9.9368-13.539-21.504-16.829" fill="#fff" stroke-width=".8"/>
 <path d="m393.34 253.06c0.724 2.0376 1.4632 4.0856 2.296 6.0784 0.9552 2.2704 2.0072 4.4832 3.196 6.6296-8.5112 4.5752-15.903 9.7392-21.531 14.097-1.6936-4.7816 0.71279-9.6856 2.3496-14.441 0.3016-0.9296 0.6976-1.872 1.0928-2.7856h0.1376c0.6824-0.0832 2.1736-0.164 2.8424-0.316 1.4472-0.2856 3.3344-0.4768 3.5656-2.3488 0.04-0.3144 0.04-0.6016 0.04-0.8872-0.0128-2.3512 1.6808-11.558 2.2832-14.918 1.516 3.4832 3.196 7.4312 3.7144 8.8656-8e-4 0.0136 0.0136 0.0136 0.0136 0.0264m-63.008-73.569c5.9976 7.7136 11.312 15.672 15.957 23.868 0-0.0544 0-0.1112 0.0136-0.1784 0.1232-0.62799 0.4784-1.2032 1.1072-1.392 0.51919-0.164 0.94319 0.2184 1.216 0.6264 0.3688 0.6016 0.6552 1.2296 1.08 1.8032 0.56 0.7112 1.0104 1.42 1.8848 1.7216 0.8064 0.3016 1.8576 0.5488 2.6784 0.8064 0.8472 0.2592 1.3512 0.3968 2.1856 0.6424 1.42 0.3832 2.7736 1.0392 3.7424 2.1576 0.5608 0.656 0.984 1.4768 1.6264 2.0624 0.73759 0.6704 1.544 1.2736 2.4176 1.7512 4.1672 2.4168 9.0992 3.3984 13.907 3.3856 2.2968-3.756 5.7512-6.516 11.149-6.2704 3.9624 0.164 6.6264 1.9128 8.9064 4.344 7.432-1.42 13.554-5.7232 18.784-10.956 0.79439-0.79199 1.832-1.9128 3.1032-3.0048l-2.8424-3.744c-1.5576-0.028-2.8 0.0832-4.3712 0.0528-1.2024 0-2.788-0.2576-3.8816-0.7912-1.024-0.52-1.9664-1.4008-2.1448-2.5752-0.0824-0.6296 0.1112-1.284-0.0264-1.8856-0.1512-0.5736-1.0376-0.8128-1.352-1.2424-0.2464-0.384-0.152-0.956 0.068-1.3184 0.0128-0.0552 0.436-0.5888 0.5048-0.5456-0.0688-0.056-0.1208-0.0968-0.1904-0.152-0.5184-0.396-1.1064-0.75759-0.9016-1.5432 0.1504-0.616 1.1744-0.8544 0.6704-1.6184-0.2064-0.28-0.4672-0.5176-0.7248-0.7448-0.8624-0.6832-1.4216-1.2976-1.5168-1.976-0.0416-1.2688 2.1712-2.7376 3.36-3.8576 0.6984-0.6688 1.1624-1.5096 1.0248-2.5-0.1504-1.2096-0.43759-2.3504-0.47919-3.572-0.0128-0.6016 0-1.2168 0.0416-1.8456-0.9 1.5504-2.8968 1.6816-2.8968 1.6816 1.7624-2.5216 1.5032-3.2456 1.4912-5.3296-0.2184-2.5608 2.1304-4.684 2.1976-4.72-1.9944-1.0312-3.1144 1.2368-3.1968 1.1768 0.3696-6.1424 6.3112-5.2608 6.244-5.3432-2.7456-1.8576-2.6896-4.6168-2.6896-4.6432 0.6816 0.8112 1.4736 1.52 2.5128 1.8776 1.1336 0.3752 2.3208 0.628 3.524 0.7104 1.1896 0.068 2.4184-0.1704 3.58-0.3768 1.6128-0.292 3.2112-0.6472 4.7952-0.9688 8.6488-2.5752 13.962 1.8768 13.978 1.932-1.1208-1.6928-0.6992-2.9232-0.672-2.9648 0.3576 0.9784 1.0792 1.3872 1.8864 2.2816 0.8176 0.8816 3.812 2.7816 5.9144 4.2904 2.092 1.504 2.9656 4.9864 3.0328 4.9864 3.4168-0.4376 4.332 2.3504 4.4688 2.8488-2.4192-1.5792-2.1192 3.2304-2.076 4.3368 0.0392 2.1312 0.052 4.2704-0.4248 6.3672-1.1064 4.7264-4.5904 8.928-8.7992 11.277-0.9696 0.5416-2.116 1.116-2.5944 2.18-0.0952 0.184-0.0824 0.452 0 0.77359 0.4512-0.25279 0.9832-0.42399 1.4208-0.54799 1.1064-0.2808 3.948-0.9632 4.3296 0.68319 0.2352 0.8952 0.684 3.136 1.0112 3.5392 0.3016 0.3672 1.1752 1.0768 2.0496 2.116 0.5336 0.52 1.0248 1.0936 1.4912 1.6952 1.2408 1.5832 2.3208 3.3064 3.2352 5.108 1.3248 2.5688 2.3512 5.2736 3.144 8.036 1.1064 3.7144 1.8168 7.5952 2.2664 11.474 0.3552 2.9504 0.5752 5.944 0.6432 8.936 0.0264 1.3392 0.012 2.7032-0.0128 4.044 7.268-8.0888 13.455-17.036 18.307-26.805 8.9184-17.971 13.279-37.952 13.429-58 0.572-76.799-58.323-145.43-152.01-128.87-16.913 2.9992-33.622 9.4608-48.403 18.116-15.847 9.2768-30.056 21.757-40.507 36.908-5.4376 7.8488-10.246 16.141-14.414 24.749 11.762 5.512 29.591 14.911 48.281 28.594 19.044 13.922 35.354 29.523 48.47 46.346m27.487 43.172c-0.66959 0.056-1.3392 0.0832-2.008 0.1096 0.7376 1.7488 1.448 3.5512 2.1312 5.3296 0.1096-0.4112 0.3544-0.8488 0.8184-1.1768 1.312-0.8456 2.9248-0.0832 4.072 0.7392 3.32 2.3344 6.8296 3.0856 10.587 2.6504 0.3832-1.4888 0.78-2.9512 1.1888-4.3984-1.7496-0.5064-3.4832-1.0392-5.2056-1.5856-2.0088-0.6688-4.0032-1.3936-6.0936-1.6672-1.8152-0.2464-3.6736-0.0824-5.4904-8e-4m42.242-222.66c-40.37 0-77.721 12.966-108.13 34.946 0.0688 0.096 0.328 0.24 1.1616-0.2656 8.5104-5.4584 17.87-9.8504 27.173-13.696 2.8144-1.1752 5.6696-2.2544 8.5392-3.2856 28.074-10.02 58.417-12.883 87.529-7.78 11.45 2.0016 22.638 5.2312 33.361 9.6512 31.342 12.903 59.088 35.746 75.318 65.753 17.746 32.802 23.606 73.083 13.989 109.3-5.6696 21.347-16.598 41.116-30.998 57.796-14.822 17.174-33.335 31.136-53.854 40.823-21.038 9.9168-44.168 15.217-67.433 15.354-0.8336 1.9952-1.2696 4.056-1.8848 6.1752-0.164 0.5752-0.2192 1.1752-0.4376 1.72-0.5888 1.5736-2.3224 1.3672-3.716 1.3112-0.6296-0.0248-1.7624-0.136-2.4048-0.216-1.6656 2.0488-3.2248 4.1784-4.208 6.3376l-0.1224 0.2184c-1.7624 3.7984-2.828 6.092-1.5448 9.2888 0.46479 1.12 0.56079 2.4048 0.42479 3.58-0.1112 1.1736-0.41119 2.3904-1.3528 3.1704-1.0112 0.82-2.2144 0.7112-3.4432 0.764-2.4864 0.0832-4.8504 0.164-7.1176 1.2296 0 0-0.0272 0.028-0.0408 0.028-2.7872 1.3248-5.4232 2.9504-8.348 3.9624-2.8008 0.956-6.052 1.4328-8.7024-0.1376-0.464-0.2736-0.8752-0.6544-1.3528-0.8752-0.4232-0.2184-0.9016-0.2184-1.352-0.2872-1.7496-0.2576-2.9104-1.0232-3.3192-2.1168-0.2592-0.764-0.1096-1.556 0.2872-2.2672 0.4376-0.7376 1.188-0.7656 1.9816-0.656 0.5736 0.0832 1.1328 0.2184 1.7064 0.2048 1.0248 0 2.0504-0.2592 2.992-0.6424 1.872-0.8184 3.484-2.1168 4.9736-3.484 1.352-1.2704 3.1424-2.7856 4.74-4.1376 1.2848-1.08 2.5008-2.1048 3.2656-2.816 1.3392-1.284 3.852-3.7688 6.1336-7.8424 0.6016-1.092 1.7624-4.016 2.7064-7.0488-0.3152-0.1904-0.6152-0.3832-0.9024-0.6016-1.12-0.84719-2.6224-1.7472-2.1168-3.3328 0.328-0.9984 0.7912-1.9392 1.2024-2.8952-37.884-4.9736-60.221-21.778-60.153-21.778 12.337 2.9512 25.275 4.1528 38.308 3.744-0.2592-0.2456-0.50559-0.5472-0.65519-0.9016-0.2192-0.46399-0.2864-0.98319-0.2744-1.4768 0.028-0.5456 0.2056-1.0904 0.64319-1.4328 0.0824-0.0832 0.1776-0.136 0.2864-0.1784 0.2456-0.0832 0.5064-0.028 0.7792 0 1.1744 0.2048 2.3776 0.2184 3.5792 0.1624 0.83359-0.0528 1.6664-0.1904 2.5272-0.3816 0.4368-0.0816 0.86-0.2168 1.284-0.3424 0.7104-0.2032 1.4072-0.4232 2.0904-0.6688 0.6824-0.2168 1.2968-0.628 1.8984-0.98399 1.5712-0.9544 3.0336-2.0216 4.3576-3.2784 2.4864-2.4048 4.168-3.88 5.984-6.8296 0.0952-0.1376 0.2176-0.4512 0.3152-0.7112 1.3928-3.58 2.2944-7.3512 3.0736-11.041 0.068-0.2576 0.2184-1.064 0.4224-2.2112-0.0824-0.056-0.1504-0.0832-0.2176-0.1376-1.4064-0.88719-3.0736-2.1592-2.4184-4.1816 0.4376-1.3096 0.6424-1.392 1.12-2.6768 0.4232-1.1752 1.108-3.7704 1.5984-5.7512 0.5872-2.2952 1.1888-4.5888 1.7624-6.9-0.8328 0.0968-1.652 0.2736-2.4456 0.616-2.0216 0.8872-3.7704 2.144-5.7512 3.1 0.492 1.7216 0.956 3.444 1.3928 5.1656 0.1648 0.71119 0.0552 1.392-0.3136 1.9936-0.3688 0.6296-0.9704 1.0656-1.6944 1.2296-0.2056 0.0544-0.4088 0.0816-0.6424 0.0816h-0.0944c-1.2032-0.0528-2.2544-0.9016-2.528-2.0488-0.5328-2.1312-1.1336-4.264-1.7488-6.392-0.3696-0.3016-0.6296-0.628-0.792-0.8752-2.3224 0.0392-2.9512-1.5984-3.1016-2.2968-0.0144 0-0.0272-0.0264-0.0544-0.0264-2.4736-1.0512-2.1312-3.456-2.1312-3.456-0.7376-0.1232-1.216-0.8592-1.5032-1.6248-0.8048-2.0096 0.9968-3.5248 2.6232-4.1264 0.2048-0.0672 0.45039-0.1232 0.76559-0.1784-0.99759-2.608-2.0504-5.2048-3.1704-7.7984-2.0768-0.5488-2.2952-1.7248-2.2536-1.6952-1.8728 0.0264-2.4456-2.1872-2.3912-2.2704-2.4168-0.1904-2.6216-3.3312-2.6216-3.3312-1.3528-0.4112-1.7504-1.4752-1.6672-2.3504 0.0536-0.6296 0.7112-1.1752 1.544-1.5984 0 0 0.0264 0 0.0264-0.0144 0.5184-0.2456 1.08-0.464 1.64-0.6544-5.0824-9.672-11.148-19.011-18.143-27.993-13.375-17.182-29.181-32.68-46.983-46.054-15.711-11.81-31.804-21.475-47.214-28.382-2.9104 6.392-5.4784 12.95-7.6376 19.638-5.7096 17.713-8.688 36.246-8.8928 54.837-0.0136 0.67759-0.0136 1.3472-0.0136 2.0016 0 102.08 82.734 184.78 184.77 184.78 102.05 0 184.79-82.706 184.79-184.77 0.01359-102.05-82.721-184.78-184.77-184.78m20.3 227.8c-2.9784 1.12-6.4464 2.2424-10.274 3.144 3.6752 5.028 7.4192 10.028 11.285 14.918l0.0272 0.0264c0.1104 0.0832 1.1344 1.2296 2.5144 2.7344 0.3152-2.2704 0.5472-4.592 0.6152-6.916 0.1224-4.3032-1.3376-10.233-4.0448-13.769-0.0408-0.056-0.0936-0.0824-0.1232-0.1384" fill="#fff" stroke-width=".8"/>
</svg>
