<svg enable-background="new 0 0 551.333 194" space="preserve" version="1.1" viewBox="0 0 460.06 162.88" xmlns="http://www.w3.org/2000/svg">
 <link href="" rel="stylesheet" type="text/css"/>
 <style type="text/css"/>
 <g transform="matrix(6.2754 0 0 6.2754 -1.3482 -232.83)" fill="#00abee">
  <path d="m18.797 50.036c0 2.2461-1.8242 4.0703-4.0703 4.0703s-4.0664-1.8242-4.0664-4.0703 1.8203-4.0664 4.0664-4.0664 4.0703 1.8203 4.0703 4.0664"/>
  <path d="m6.7148 48.076c0.25-0.35547 1.8281-2.6562 3.7422-3.5195l-2.7539-5.8438c-4e-3 -0.0117-4.6055 1.9766-7.4883 7.4922 0 0 6.4727 1.9023 6.5 1.8711z"/>
  <path d="m11.895 44.029c2.9961-1.0742 5.5898-0.0469 5.5898-0.0469l2.5547-5.8906s-4.9453-2.2266-10.691 0"/>
  <path d="m22.621 48.15c-0.25-0.34766-1.8164-2.6328-3.7148-3.4883l2.7344-5.8008c4e-3 -0.0156 4.5703 1.9609 7.4336 7.4336 0 0-6.4297 1.8906-6.4531 1.8555z"/>
  <path d="m6.707 52.036c0.2461 0.34375 1.7969 2.6094 3.6758 3.457l-2.7031 5.7422c-8e-3 0.0156-4.5274-1.9414-7.3633-7.3594 0 0 6.3633-1.875 6.3906-1.8398z"/>
  <path d="m11.891 56.13c2.9961 1.0703 5.5898 0.0469 5.5898 0.0469l2.5586 5.8906s-4.9492 2.2266-10.695 0"/>
  <path d="m22.59 52.13c-0.25 0.34765-1.8125 2.6289-3.7031 3.4805l2.7227 5.7852c4e-3 0.0117 4.5586-1.9531 7.4141-7.4141 0 0-6.4102-1.8867-6.4336-1.8516z"/>
  <path d="m37.047 47.326h0.64843c0.47657 0 0.83594-0.10547 1.082-0.31641 0.24219-0.21093 0.36719-0.51953 0.36719-0.92578 0-0.40234-0.1289-0.70703-0.38281-0.92187-0.25391-0.21875-0.61719-0.32422-1.0859-0.32422h-0.6289zm-0.9375-3.0469h1.8086c0.67578 0 1.2031 0.16015 1.582 0.47656 0.38281 0.32031 0.57031 0.76172 0.57031 1.3281 0 0.58594-0.21484 1.0352-0.64453 1.3398-0.42969 0.30859-1.0586 0.46093-1.8867 0.46093h-1.4297z"/>
  <path d="m41.805 45.857h0.58203c0.33594 0 0.59375-0.043 0.76953-0.13281 0.17969-0.0859 0.26953-0.21485 0.26953-0.375 0-0.16797-0.0781-0.29297-0.23437-0.38281-0.16016-0.0859-0.38282-0.12891-0.67578-0.12891h-0.71094zm-0.9375-1.5781h1.8281c0.53516 0 0.94532 0.0781 1.2305 0.23828 0.28516 0.16015 0.42969 0.39453 0.42969 0.69531 0 0.30469-0.15625 0.53516-0.46094 0.69531-0.14844 0.0742-0.33203 0.13281-0.54687 0.16797 0.17968 0.0234 0.32422 0.0547 0.42968 0.0977 0.22266 0.0859 0.34766 0.24609 0.38282 0.47656 0.0312 0.23437 0.0664 0.44141 0.10547 0.61719l0.0117 0.0547c0.0352 0.13282 0.0664 0.24219 0.0937 0.32422 0.0273 0.0859 0.0586 0.16407 0.0977 0.23438h-0.99219c-0.0234-0.0469-0.043-0.11328-0.0625-0.19531-0.0156-0.0859-0.0391-0.20704-0.0664-0.36329l-0.0469-0.32421c-0.0351-0.23829-0.0937-0.39844-0.18359-0.47266-0.0859-0.0742-0.25781-0.10938-0.51172-0.10938h-0.80078v1.4688h-0.9375z"/>
  <path d="m45.117 47.884v-3.6055h2.9961v0.55859h-2.0586v0.89453h1.9375v0.55859h-1.9375v1.0352h2.1211v0.55859z"/>
  <path d="m51.309 45.29c-8e-3 -0.16796-0.0781-0.29687-0.20703-0.38671-0.1289-0.0937-0.30859-0.14063-0.53515-0.14063-0.21094 0-0.38672 0.043-0.52735 0.13281-0.14062 0.0859-0.21093 0.19922-0.21093 0.32813 0 0.11328 0.0625 0.20312 0.1914 0.28125 0.13281 0.0703 0.36328 0.14844 0.70313 0.23047l0.58593 0.14062c0.39063 0.0937 0.66407 0.21485 0.82422 0.35547 0.16407 0.14453 0.2461 0.33984 0.2461 0.58984 0 0.33204-0.17188 0.60547-0.50782 0.81641-0.33984 0.21094-0.77343 0.31641-1.3047 0.31641-0.60938 0-1.0664-0.10157-1.3672-0.30469-0.29297-0.19531-0.44141-0.49219-0.44141-0.88672v-0.0352h0.92578c-0.0117 0.21094 0.0586 0.37891 0.21485 0.49219 0.15625 0.11719 0.3789 0.17578 0.66797 0.17578 0.2539 0 0.46484-0.0469 0.63281-0.14062 0.16797-0.0977 0.25-0.21485 0.25-0.36328 0-0.0937-0.0508-0.17188-0.15625-0.23438-0.10156-0.0625-0.28906-0.125-0.5625-0.1914l-0.58594-0.14063c-0.45703-0.10937-0.77734-0.23828-0.96484-0.38281s-0.27735-0.33985-0.27735-0.58203c0-0.33985 0.15235-0.61328 0.46485-0.83203 0.3125-0.21485 0.71094-0.32032 1.1992-0.32032 0.55078 0 0.97265 0.0937 1.2656 0.28516 0.26953 0.17578 0.40625 0.41406 0.40625 0.71484l-4e-3 0.082z"/>
  <path d="m54.137 47.326h0.64844c0.47265 0 0.83203-0.10547 1.0781-0.31641 0.2461-0.21093 0.36719-0.51953 0.36719-0.92578 0-0.40234-0.125-0.70703-0.38281-0.92187-0.25391-0.21875-0.61719-0.32422-1.0859-0.32422h-0.625zm-0.9375-3.0469h1.8047c0.67578 0 1.2031 0.16015 1.5859 0.47656 0.37891 0.32031 0.57032 0.76172 0.57032 1.3281 0 0.58594-0.21485 1.0352-0.64453 1.3398-0.42969 0.30859-1.0586 0.46093-1.8906 0.46093h-1.4258z"/>
  <path d="m57.934 47.884v-3.6055h2.9961v0.55859h-2.0625v0.89453h1.9414v0.55859h-1.9414v1.0352h2.125v0.55859z"/>
  <path d="m62.559 47.884h-0.85937v-3.6055h1.3125l1.6445 2.7188v-2.7188h0.85938v3.6055h-1.293l-1.6641-2.7539z"/>
  <path d="m35.957 55.841v-3.7852h2.7891v0.42969h-2.1719v1.1914h2.0586v0.42969h-2.0586v1.7344z"/>
  <path d="m39.605 55.841v-3.7852h2.7578v0.42969h-2.1406v1.1914h2.0586v0.42969h-2.0586v1.3047h2.1992v0.42969z"/>
  <path d="m43.969 53.716h1.0781c0.30468 0 0.53906-0.0508 0.70703-0.15235 0.16797-0.10156 0.25-0.24609 0.25-0.43359 0-0.22656-0.0859-0.39063-0.26563-0.49219-0.17578-0.10156-0.46094-0.15234-0.85547-0.15234h-0.91406zm-0.61719-1.6602h1.8047c0.45703 0 0.81641 0.0859 1.0781 0.25781 0.25781 0.17188 0.39062 0.41016 0.39062 0.71094 0 0.3125-0.14062 0.55469-0.42187 0.73047-0.13282 0.082-0.28907 0.14844-0.47266 0.1914 0.19922 0.0195 0.35156 0.0625 0.44531 0.13282 0.13672 0.0977 0.23047 0.28906 0.28125 0.58203 0.0391 0.23047 0.0742 0.42187 0.10938 0.57812l0.0351 0.16797c0.0274 0.11719 0.0547 0.20703 0.0742 0.26953 0.0234 0.0664 0.0508 0.11719 0.0742 0.16016h-0.65625c-0.0391-0.10156-0.0781-0.22266-0.11328-0.36719-0.0352-0.14844-0.0742-0.34375-0.12109-0.59765l-0.0274-0.16016c-0.0391-0.20703-0.12109-0.35547-0.25-0.4375-0.125-0.0859-0.32422-0.12891-0.58984-0.12891h-1.0234v1.6953h-0.61719z"/>
  <path d="m48.172 55.841h-0.61719v-3.7852h0.80469l2.2109 3.1719v-3.1719h0.61328v3.7852h-0.82812l-2.1836-3.1406z"/>
  <path d="m54.535 53.091c-8e-3 -0.16797-0.0781-0.30079-0.21485-0.39454-0.13672-0.0977-0.32422-0.14453-0.5664-0.14453-0.22266 0-0.41016 0.0469-0.5586 0.13672-0.14843 0.0898-0.22265 0.20313-0.22265 0.33985 0 0.11328 0.0703 0.20703 0.20312 0.28515 0.13672 0.0742 0.38672 0.15625 0.7461 0.23828l0.61328 0.14453c0.41406 0.0977 0.70312 0.21875 0.875 0.36719 0.16797 0.14453 0.2539 0.34766 0.2539 0.60547 0 0.33984-0.17578 0.62109-0.53515 0.83594-0.35547 0.21875-0.81641 0.32812-1.375 0.32812-0.64453 0-1.1289-0.10547-1.4453-0.3125-0.30859-0.20312-0.46484-0.50781-0.46484-0.91406v-0.0312h0.98047c-0.0156 0.21484 0.0586 0.38281 0.22266 0.50391 0.16406 0.12109 0.40234 0.17968 0.70703 0.17968 0.26953 0 0.48828-0.0469 0.66797-0.14453 0.17578-0.10156 0.26562-0.22265 0.26562-0.37109 0-0.10156-0.0547-0.17969-0.16406-0.24219-0.10938-0.0664-0.3086-0.1289-0.59766-0.19922l-0.61719-0.14453c-0.48046-0.11328-0.82031-0.24609-1.0195-0.39453-0.19531-0.14844-0.29687-0.34766-0.29687-0.59766 0-0.34765 0.16406-0.6289 0.49609-0.85156 0.32813-0.22265 0.75-0.33594 1.2656-0.33594 0.58203 0 1.0234 0.10157 1.3359 0.29688 0.28516 0.17969 0.42969 0.42578 0.42969 0.73437l-4e-3 0.082z"/>
  <path d="m56.504 55.759v-3.707h3.168v0.57422h-2.1758v0.92188h2.0469v0.57422h-2.0469v1.0625h2.2383v0.57421z"/>
  <path d="m60.543 52.052h0.98828v1.4961h1.9922v-1.4961h0.98828v3.707h-0.98828v-1.6367h-1.9922v1.6367h-0.98828z"/>
  <path d="m65.527 55.759v-3.707h3.168v0.57422h-2.1797v0.92188h2.0469v0.57422h-2.0469v1.0625h2.2422v0.57421z"/>
  <path d="m70.414 55.759h-0.91015v-3.707h1.3867l1.7383 2.7969v-2.7969h0.90625v3.707h-1.3633l-1.7578-2.8281z"/>
 </g>
</svg>
