<svg width="600pt" height="348.33pt" version="1.1" viewBox="0 0 600 348.33" xmlns="http://www.w3.org/2000/svg">
 <g transform="matrix(6.1944 0 0 6.1944 3237.8 -3607.9)" fill="#012060" style="shape-inside:url(#rect865-9);white-space:pre" aria-label="HD">
  <path d="m-448.28 620.76v-20.01h-4.29v7.86h-9.45v-7.86h-4.26v20.01h4.26v-8.43h9.45v8.43z"/>
  <path d="m-436.43 620.76c6.24 0 10.59-3.96 10.59-10.02 0-6-4.35-9.99-10.62-9.99h-7.89v20.01zm-0.03-3.75h-3.63v-12.51h3.66c4.08 0 6.24 2.73 6.24 6.24 0 3.42-2.31 6.27-6.27 6.27z"/>
 </g>
 <g transform="matrix(.41057 0 0 -.41057 -195.09 509.87)">
  <path d="m475.17 999.79c0 25.412 13.56 41.874 28.482 50.957l308.19 177.74c13.781 8.12 23.026 13.37 37.853 13.37 14.28 0 25.45-5.0712 38.814-13.37l305.07-176.17c22.006-11.588 31.597-30.674 31.597-54.665v-359.17c0-32.304-13.961-45.969-39.167-60l-301.67-174.17c-9.5809-5.5275-18.885-10.859-33.622-10.859-17.171 0-25.263 5.3704-34.711 10.859l-309.17 178.33c-19.197 11.968-31.667 26.068-31.667 53.333z" fill="#012060"/>
  <path d="m850.17 819.33v-267.2c0-9.9404-9.9339-20.647-22.033-20.647-6.4261 0-10.013 2.1972-15.75 5.4212l-93.422 53.937c-11.716 7.8858-18.794 20.496-18.794 34.325v280l66.667 12.5z" fill="#df029f"/>
  <path d="m610.33 969.29c0 11.733 7.92 17.188 14.805 20.923l187.84 108.8c4.05 2.3263 8.637 5.005 14.414 5.005 12.285 0 22.779-10.162 22.779-21.357v-263.33l-225.53 128.24c-8.6409 4.7717-14.314 11.292-14.314 21.721z" fill="#ff0394"/>
 </g>
</svg>
