<svg version="1.1" viewBox="0 0 179.38 300" xmlns="http://www.w3.org/2000/svg">
 <link href="" rel="stylesheet" type="text/css"/>
 <style type="text/css"/>
 <defs>
  <clipPath id="a">
   <path d="m0 0h2267.7v3792.5h-2267.7z"/>
  </clipPath>
 </defs>
 <g transform="translate(-.80754 -751.36)">
  <g transform="matrix(.79104 0 0 -.79104 .80754 1051.4)">
   <g transform="scale(.1)">
    <g clip-path="url(#a)">
     <path d="m0 0h2267.7v3034h-2267.7z" fill="#091b39"/>
     <path d="m446.24 717.46c-2.832-8.961-5.41-20.281-7.078-29.742-12.019 4.5-32.305 8.961-54.25 8.961-49.285 0-61.094-22.149-61.094-59.899 0-48.832 17.219-64.402 59.692-64.402 27.597 0 47.879 6.621 60.625 10.383 0.933-6.84 2.82-19.114 4.472-26.653-16.75-3.539-46.222-8.007-74.777-8.007-57.793 0-87.976 19.558-87.976 84.418 0 70.539 35.859 88.48 101.42 88.48 21.465 0 45.762-1.891 58.965-3.539" fill="#fff"/>
     <path d="m606.42 691.51c0 9.187-0.227 18.386-1.641 27.597h39.16c-1.418-9.211-1.66-18.41-1.66-27.597v-113.46c0-9.199 0.242-18.41 1.66-27.602h-39.16c1.414 9.192 1.641 18.403 1.641 27.602v46.937h-76.406v-46.937c0-9.199 0.222-18.41 1.64-27.602h-39.16c1.426 9.192 1.66 18.403 1.66 27.602v113.46c0 9.187-0.234 18.386-1.66 27.597h39.16c-1.418-9.211-1.64-18.41-1.64-27.597v-42.953h76.406v42.953" fill="#fff"/>
     <path d="m741.19 619.55h53.543l-26.648 67.719zm-61.562-69.102c4.941 9.192 8.965 18.633 12.969 27.602l62.043 141.06h34.668l59.675-141.06c3.782-8.969 8.496-18.41 13.204-27.602h-44.571c-0.715 9.192-3.301 19.11-6.601 27.602l-7.786 19.578h-70.757l-7.793-19.578c-3.301-8.262-5.649-17.942-6.367-27.602h-38.684" fill="#fff"/>
     <path d="m1092 719.11c-1.43-9.211-1.64-18.41-1.64-27.597v-113.46c0-9.199 0.21-18.41 1.64-27.602h-36.11c1.43 9.192 1.66 18.403 1.66 27.602v98.129l-47.89-92.239h-24.292l-49.531 93.879v-99.769c0-9.199 0.242-18.41 1.66-27.602h-36.086c1.406 9.192 1.633 18.403 1.633 27.602v113.46c0 9.187-0.227 18.386-1.633 27.597h43.645l53.523-99.558 51.431 99.558h41.99" fill="#fff"/>
     <path d="m1144 550.45c1.42 9.192 2.6 18.403 2.6 27.602v113.46c0 9.187-1.18 18.386-2.6 27.597h68.65c45.29 0 65.82-19.578 65.82-53.789 0-39.39-26.66-54.492-58.99-54.492-10.84 0-17.73 2.5-22.51 4.531v16.532c4.02-0.461 7.9-0.77 11.9-0.77 19.34 0 35.63 9.91 35.63 32.789 0 17.469-11.08 31.379-35.14 31.379h-26.91v-117.24c0-9.199 1.18-18.41 4.26-27.602h-42.71" fill="#fff"/>
     <path d="m1366.2 578.05c0-9.199 0.25-18.41 1.66-27.602h-39.16c1.42 9.192 1.66 18.403 1.66 27.602v113.46c0 9.187-0.24 18.386-1.66 27.597h39.16c-1.41-9.211-1.66-18.41-1.66-27.597v-113.46" fill="#fff"/>
     <path d="m1566.2 634.43c0 47.89-16.98 62.75-55.91 62.75-45.76 0-57.55-21.711-57.55-62.282 0-48.117 16.04-63.218 54.72-63.218 45.77 0 58.74 21.941 58.74 62.75zm-150.02-2.141c0 68.66 35.85 88.711 96.24 88.711 58.26 0 90.33-19.59 90.33-84.219 0-68.652-36.08-88.679-95.76-88.679-58.95 0-90.81 19.558-90.81 84.187" fill="#fff"/>
     <path d="m1679.1 669.32v-91.269c0-9.199 0.24-18.41 1.64-27.602h-32.55c1.42 9.192 1.65 18.403 1.65 27.602v113.46c0 9.187-1.65 18.386-3.3 27.597h31.86l98.59-119.61v92.012c0 9.187-0.25 18.386-1.67 27.597h32.33c-1.42-9.211-1.64-18.41-1.64-27.597v-141.06h-28.32l-98.59 118.87" fill="#fff"/>
     <path d="m1857.6 582.06c14.17-5.2 32.08-10.149 49.54-10.149 26.42 0 39.38 10.852 39.38 25.25 0 36.781-95.52 10.129-95.52 71.942 0 30.199 23.35 51.898 73.36 51.898 16.03 0 39.16-3.07 51.89-6.141-3.78-8.007-7.09-16.281-10.86-24.539-9.66 2.602-26.18 6.86-42.68 6.86-13.22 0-36.56-4.5-36.56-23.129 0-37.75 95.77-11.082 95.77-72.653 0-33.027-27.14-53.296-78.79-53.296-20.29 0-40.34 3.539-52.59 7.539l7.06 26.418" fill="#fff"/>
     <path d="m656.52 290.53h45.774c11.551 0 18.875 1.649 27.598 4l-2.356-27.84h-108.52c1.426 9.219 1.653 18.418 1.653 27.618v113.44c0 9.211-0.227 18.41-1.653 27.602h39.161c-1.414-9.192-1.661-18.391-1.661-27.602v-117.22" fill="#fff"/>
     <path d="m807.19 364.59h58.731l-4.727-23.11h-54.004v-50.949h52.832c11.563 0 19.094 1.418 27.598 3.778l-4.726-27.618h-113.21c1.406 9.219 1.648 18.418 1.648 27.618v113.44c0 9.211-0.242 18.41-1.648 27.602h109.43l-5.176-27.821c-7.55 2.117-15.343 4-27.597 4h-39.153v-46.941" fill="#fff"/>
     <path d="m977.17 335.82h53.548l-26.65 67.7zm-61.563-69.129c4.954 9.219 8.957 18.641 12.981 27.618l62.039 141.04h34.661l59.68-141.04c3.78-8.977 8.49-18.399 13.21-27.618h-44.59c-0.7 9.219-3.29 19.11-6.6 27.618l-7.79 19.57h-70.747l-7.793-19.57c-3.301-8.258-5.664-17.938-6.367-27.618h-38.684" fill="#fff"/>
     <path d="m1287 433.71c-2.83-8.961-5.41-20.301-7.06-29.473-12.27 4.231-36.09 8.953-58.04 8.953-50.23 0-61.08-23.601-61.08-60.609 0-46.961 14.85-64.652 55.43-64.652 15.1 0 32.31 2.832 37.51 4.48v19.11c0 9.199-0.24 17.929-1.42 26.902l37.49 4.238c-1.17-8.488-1.41-17.23-1.41-25.961v-17.679c0-8.731 0.24-17.688 1.41-26.411-1.41 0-3.3 0.231-4.7 0.231-14.63 0-40.09-8.488-76.19-8.488-56.84 0-85.86 21.23-85.86 84.679 0 70.289 35.85 88.219 101.41 88.219 21.71 0 49.07-1.898 62.51-3.539" fill="#fff"/>
     <path d="m1338.6 407.75c0 9.211-1.19 18.41-2.6 27.602h41.05c-1.42-9.192-2.61-18.391-2.61-27.602v-68.398c0-40.582 12.29-50.481 48.61-50.481 18.87 0 33.01 3.078 37.02 4.25v114.63c0 9.211-1.17 18.41-2.59 27.602h41.04c-1.42-9.192-2.59-18.391-2.59-27.602v-107.79c0-9.199 0.23-18.402 1.64-27.602-1.9 0-3.53 0.25-5.18 0.25-12.74 0-44.58-8.257-74.06-8.257-60.15 0-79.73 13.437-79.73 77.367v66.031" fill="#fff"/>
     <path d="m1583 364.59h58.72l-4.71-23.11h-54.01v-50.949h52.83c11.56 0 19.09 1.418 27.6 3.778l-4.73-27.618h-113.21c1.42 9.219 1.65 18.418 1.65 27.618v113.44c0 9.211-0.23 18.41-1.65 27.602h109.43l-5.18-27.821c-7.54 2.117-15.32 4-27.59 4h-39.15v-46.941" fill="#fff"/>
     <path d="m1701.2 1479.4-0.45 1.22-217.1 565.62-199.63-45.18 120.41-396.41-654.11 138.07-67.911-152.12 870.06-270c25.03-7.76 52.81-7.53 79.17 2.58 62.36 23.94 93.49 93.88 69.56 156.22" fill="#9c975c"/>
     <path d="m2148 2375.3c-28.17 82.32-117.74 126.22-200.03 98.06l-555.4-189.97-473.2-161.88-137.21-46.92-632.12-213.47-0.704-0.22c-16.445-5.75-30.046-18.93-35.605-36.86-9.316-29.99 7.473-61.86 37.449-71.18l454.11-138.39 56.453 146.89-234.17 47.73 275.8 60.56 115.17 26.07 465.41 105.3 199.63 45.18 550.13 124.47c5.37 1.22 10.9 2.79 16.22 4.59 82.33 28.16 126.23 117.72 98.07 200.04" fill="#36ade4"/>
     <path d="m661.76 1761.4-56.453-146.89-217.22-532.53c-4.031-10.54 0.809-22.58 11.23-27.21 10.801-4.83 23.465 0.03 28.274 10.83l254.76 525 67.911 152.12 68.297 153.04-115.17-26.07-41.633-108.29" fill="#ed1c24"/>
     <path d="m1197.3 2792.3-1.76 4.58c-7.15 18.43-21.79 33.92-41.73 41.57-37.51 14.41-79.6-4.31-94.02-41.81l-277.57-722.06 137.21 46.92 195.17 437.18 101.92-335.55 176.11 60.25-195.33 508.92" fill="#ed1c24"/>
     <path d="m0 3034h2267.7v758.5h-2267.7z" fill="#ed1c24"/>
     <path d="m2081.3 3449.7h-0.6v-67.28h13.41v27.32h5.67c0.03-0.46 16.74-27.05 16.74-27.05l13.71-0.27h1.05s-17.78 27.89-18.44 28.9c9.26 2.69 14.57 9.26 14.57 18.38 0 12.69-8.65 20-23.7 20zm21.64-10.29c7.57 0 11.71-3.49 11.71-9.71 0-7.96-6.38-9.71-11.71-9.71h-9.36v19.42h9.36" fill="#fff"/>
     <path d="m2040.3 3415.2c0-35.46 26.45-62.24 61.55-62.24 35.32 0 62.02 26.78 62.02 62.24 0 35.53-26.6 62.28-61.8 62.28-35.22 0-61.77-26.75-61.77-62.28zm11.61 0.17c0 28.75 21.6 50.41 50.16 50.41 28.59 0 50.17-21.66 50.17-50.41 0-28.9-21.43-50.64-49.88-50.64-28.76 0-50.45 21.74-50.45 50.64" fill="#fff"/>
     <path d="m611.27 3547.3h39.804v-264.39h-43.183v-67.79h322.39v127.24h-69.668v-59.45h-113.97v104.82h91.828v67.71h-91.828v91.86h113.97v-58.92h69.668v126.68h-319.01v-67.76" fill="#fff"/>
     <path d="m1215.7 3282.9h-92.35v264.39h53.43v67.76h-201.4v-67.76h52.408v-264.39h-52.408v-67.79h312.16v127.39h-71.84v-59.6" fill="#fff"/>
     <path d="m419.5 3547.3h40.516l-66.067-202.53h-1.094l-61.035 202.53h42.129v67.76h-181.43v-67.76h43.171l109.23-332.27h86.047l113.58 332.27h35.262v67.76h-160.31v-67.76" fill="#fff"/>
     <path d="m1515.3 3547.3h32.51v-206.7c0-45.38-28.81-62.4-64.47-62.4-42.59 0-60.77 26.48-60.77 65.94v203.16h31.85v67.76h-170.65v-67.76h43.25v-209.04c0-97.77 70.36-127.81 146.51-127.81 54.93 0 144.15 20.02 144.15 113.06v223.79h36.44v67.76h-138.82v-67.76" fill="#fff"/>
     <path d="m1918.4 3416.6 86.98 130.74h51.28v67.76h-163.11v-63.64h33.53l-49.7-74.78-54.56 74.78h35.17v63.64h-172.44v-67.76h34.16l89.08-126.61-90.18-137.78h-41.61v-67.79h157.23v63.62h-37.32l55.06 83.05 56.68-83.05h-37.2v-63.62h185.21v67.79h-44.25l-94.01 133.65" fill="#fff"/>
     <path d="m885.13 908.75 119.77 29.891 4.05 33.379c-7.19-3.692-13.989-6.532-24.106-8.95l-49.922-13.211v37.661l49.973 13.2 4.05 28.61-54.023-14.18v35.31l37.305 10.01c10.793 2.59 17.832 2.66 24.453 2.36l4.46 33.77-113.86-28.36c1.172-8.38 1.348-16.89 1.348-24.89v-108.56c0-7.828-1.438-18.488-3.391-25.57-0.039-0.137-0.074-0.328-0.113-0.469zm-8.879-62.168 497.87 69.77 17.35 67.168-515.22-128.42v-8.52" fill="#fff"/>
     <path d="m1151.8 975.27 50.88 12.679c-1.18 8.403-1.35 16.921-1.35 24.911v108.56c0 7.82 0.04 16.09 1.15 24.87 0.02 0.16 0.07 0.52 0.07 0.52l-50.92-12.72s0.04-0.3 0.07-0.48c1.12-8.18 1.44-16.38 1.44-24.23v-39.21l-61.81-15.4v39.2c0 8.03 0.17 16.52 1.35 25.41l-48.99-12.17c1.19-8.4 1.35-16.84 1.35-24.83v-108.54c0-7.988-0.12-16.57-1.3-25.539l48.94 12.187s-0.04 0.364-0.07 0.524c-1.11 8.179-1.28 16.547-1.28 24.418v41.62l61.81 15.41v-41.64c0-9.308-0.34-17.929-1.34-25.55" fill="#fff"/>
     <path d="m1254.8 1000.9 50.28 12.51-0.3 1.98c-1.15 7.31-2.35 14.88-2.35 22.65v40.5l56.08 13.44 4.04 28.59-60.12-14.4v35.99l44.27 11.22c10.77 2.58 17.14 2.67 24.44 2.35l4.07 34.13-120.28-30.03c1.17-8.38 1.22-16.77 1.22-24.77v-108.56c0-8-0.16-16.67-1.35-25.6" fill="#fff"/>
    </g>
   </g>
  </g>
 </g>
</svg>
