<svg width="298.99pt" height="298.55pt" version="1.1" viewBox="0 0 298.99 298.55" xmlns="http://www.w3.org/2000/svg">
 <defs>
  <linearGradient id="a" x1="208.11" x2="297.96" y1="64.393" y2="336.11" gradientUnits="userSpaceOnUse">
   <stop stop-color="#009dba" offset="0"/>
   <stop stop-color="#00527b" offset="1"/>
  </linearGradient>
 </defs>
 <g transform="translate(-50.478 -50.711)" fill="url(#a)">
  <path d="m67.47 51.62c3.71-1.18 7.65-0.865 11.48-0.885h248.05c12.11 0.24 22.58 11.255 22.47 23.335v251.96c0.04 12.04-10.47 22.905-22.52 23.195h-248.93c-4.02 0.1-8.14 0.095-11.94-1.385-9-3.21-15.55-12.27-15.59-21.85v-251.04c-0.35-10.43 6.92-20.5 16.98-23.33" fill="url(#a)"/>
 </g>
 <path d="m107.76 13.199h38.65v95.39c7.15-6.07 17.055-7.6 26.145-7.32 6.7 0.13 13.69 2.61 18.04 7.89 3.9 4.78 5.58 11.03 5.68 17.11v96.11h-38.49v-89.07c-0.09-3.42 0.01-7.31-2.37-10.05-1.64-2.16-5.3-1.92-6.75 0.32-1.62 2.57-2.23 5.66-2.15 8.67v90.13h-38.755z" fill="#fff"/>
 <path d="m34.062 106.79c10.22-6.12 22.74-7.16 34.35-5.72 10.62 1.09 21.19 5.96 27.66 14.66 5.83 7.9 8.38 17.82 8.44 27.55v20.745h-49.44v30.315c-0.14 3.27 1.77 7.28 5.48 7.3 4.21 0.65 7.545-3.41 7.475-7.35v-23.095h36.531v17.49c0 5.2793-0.86373 10.445-3.4558 15.235-4.85 9.99-15.4 15.84-25.99 17.8-12.81 2.28-26.63 2.14-38.63-3.37-12.16-5.65-19.99-18.73-20.07-32.02 0.06-15.67-0.03-31.33 0.05-47 0.57-12.65 6.38-25.89 17.6-32.54m20.505 21.43v16.33h11.28v-16.33c0-3.6607-2.5062-6.7222-5.3072-6.8375-3.539 0.086-5.9728 2.9145-5.9728 6.8375z" fill="#fff"/>
 <path d="m205.97 110.69c6.13-6.24 15.08-8.35 23.5-9.22 12.59-0.79 26.01-0.66 37.33 5.66 6.41 3.45 12.64 10.294 12.64 17.04v16.64h-34.02v-12.64c0.25-3.29-2.4098-6.83-5.9098-6.54-3.49-0.11-5.99 2.6029-5.99 6.64l-0.07 6.7822c-0.0169 1.637 0.55953 3.1693 1.79 4.4378 5.7 6.37 14.13 8.93 21.61 12.53 9.07 4.12 18.26 9.75 22.91 18.92 3.93 7.49 3.11 16.26 1.92 24.33-1 7.11-2.81 14.84-8.54 19.7-6.56 5.53-15.48 6.67-23.73 7.4-11.95 0.95-24.87 0.82-35.4-5.66-7.3-4.29-12.11-12.05-13.66-20.27-0.6071-2.6446-0.83752-5.3036-0.83752-7.9723v-9.4277h33.993v14.32c-0.1 2.41 0.775 4.78 2.215 6.69 2.92 2.44 8.17 2.11 10.07-1.45 1.83-3.45 1.19-7.53 1.24-11.28 0.07-4.4-3.94-7.17-7.32-9.17-9.75-5.1-19.35-10.49-28.79-16.13-8.73-5.78-12.24-16.71-12.41-26.75-0.03-8.61 1.3-18.06 7.46-24.58z" fill="#fff"/>
 <path d="m195.99 227.15h51.545l7.41 33 8.14-33h17.918v3.8658c0 2.3326-0.2715 2.9091-0.65751 4.304-5.61 16.7-11.12 33.43-16.75 50.12l-16.11-0.04-13.22-39.025h-5.22v38.905l-18.69 0.15v-39.055h-14.365z" fill="#fff"/>
 <path d="m192.58 257.17a15.037 15.094 0 0 1-15.037 15.094 15.037 15.094 0 0 1-15.037-15.094 15.037 15.094 0 0 1 15.037-15.094 15.037 15.094 0 0 1 15.037 15.094z" fill="#fff" style="paint-order:markers fill stroke"/>
</svg>
