<svg version="1.1" viewBox="0 0 800 181.64" xml:space="preserve" xmlns="http://www.w3.org/2000/svg"><defs><clipPath id="a"><path d="m70.996 643.51h331.15v68.976h-331.15z"/></clipPath></defs><g transform="matrix(1.3333 0 0 -1.3333 -94.661 1039.7)"><g transform="matrix(1.4933 0 0 1.4933 -35.024 -300.85)" fill="#da1356"><g clip-path="url(#a)" fill="#da1356"><g transform="translate(79.924 667.13)"><path d="m0 0c2.445 9.983 10.417 24.865 22.21 24.865 3.933 0 6.267-2.125 6.267-6.058 0-3.506-1.489-7.119-3.613-9.886-4.883-6.371-17.109-8.285-24.864-8.921m-0.426-2.132 1.383 0.218c11.367 1.272 34.96 3.29 34.96 18.702 0 6.694-6.378 10.095-12.324 10.095-16.475 0-32.522-16.9-32.522-33.261 0-9.139 5.742-16.685 15.308-16.685 7.755 0 14.978 4.675 20.079 10.306 0.53 0.643 2.766 3.193 2.766 4.15 0 0.531-0.21 0.741-0.747 0.741-0.532 0-0.846-0.427-1.167-0.853-3.508-4.996-10.522-9.669-16.684-9.669-7.546 0-11.263 5.211-11.263 12.226v2.438l0.211 1.592" fill="#da1356"/></g><g transform="translate(128.12 699.35)"><path d="m0 0c0.349 0.859 1.16 3.054 1.16 3.913 0 2.2-2.543 2.389-4.514 2.389l-1.844-0.098c-0.811 0-1.39 0.383-1.39 1.047 0 1.342 2.312 1.245 3.465 1.245 4.625 0.187 9.488 1.244 13.302 3.626 0.23 0.097 0.692 0.384 1.04 0.384 0.574 0 0.923-0.384 0.923-0.86 0-0.475-0.58-1.906-0.691-2.29l-19.772-53.252c-0.461-1.145-1.16-2.48-1.16-3.821 0-0.761 0.468-1.621 1.621-1.621 2.774 0 8.67 6.68 10.06 8.684 0.343 0.475 0.81 1.243 1.734 1.243 0.459 0 0.579-0.285 0.579-0.67 0-1.718-3.703-5.631-4.856-6.777-2.662-2.767-9.249-8.3-14.105-8.3-3.004 0-3.584 1.522-3.584 3.725 0 2.669 1.153 5.917 2.082 8.397l15.95 43.036" fill="#da1356"/></g><g transform="translate(179.06 686.39)"><path d="m0 0v3.759c0 5.778-3.983 8.767-10.745 8.767-7.867 0-12.073-3.954-12.073-10.312v-22.734c0-5.972 4.541-9.926 12.185-9.926 6.762 0 10.416 3.178 10.416 8.481v4.143h16.398v-5.107c0-11.662-10.745-19.947-27.254-19.947-18.836 0-29.7 10.215-29.7 23.509v20.715c0 13.295 11.305 23.51 29.7 23.51 17.389 0 27.476-8.475 27.476-20.135v-4.723h-16.403" fill="#da1356"/></g><g transform="translate(227.62 661.79)"><path d="m0 0c0-4.939-3.024-7.566-8.174-7.566-5.156 0-8.182 2.627-8.182 7.566v15.642c0 4.842 3.026 7.567 8.182 7.567 5.15 0 8.174-2.725 8.174-7.567v-15.642m14.782 1.922v11.701c0 12.309-9.522 19.268-22.956 19.268-13.443 0-22.846-6.959-22.846-19.268v-11.701c0-12.416 9.403-19.171 22.846-19.171 13.434 0 22.956 6.755 22.956 19.171" fill="#da1356"/></g><g transform="translate(275.89 681.16)"><path d="m0 0c-12.092 2.116-16.683-1.719-16.683-6.761v-29.058h-15.23v48.43h12.875l0.784-10.291c2.913 9.18 9.186 12.309 18.591 10.493l-0.337-12.813" fill="#da1356"/></g><g transform="translate(309.4 681.16)"><path d="m0 0c-12.092 2.116-16.683-1.719-16.683-6.761v-29.058h-15.231v48.43h12.877l0.783-10.291c2.912 9.18 9.185 12.309 18.591 10.493l-0.337-12.813" fill="#da1356"/></g><g transform="translate(340.66 673.29)"><path d="m0 0h-16.126v4.944c0 3.934 3.136 6.761 8.065 6.761 4.927 0 8.061-2.928 8.061-6.761v-4.944m13.886-11.703v0.707h-12.878v-1.817c0-3.531-2.687-6.355-8.174-6.355-5.937 0-8.96 3.027-8.96 7.264v6.758h30.012v7.668c0 10.998-8.287 18.868-22.06 18.868-13.665 0-22.623-7.971-22.623-18.968v-12.41c0-11.098 9.184-18.765 22.736-18.765 12.876 0 21.947 6.255 21.947 17.05" fill="#da1356"/></g><g transform="translate(387.37 661.79)"><path d="m0 0c0-4.943-3.023-7.567-8.176-7.567-5.149 0-8.175 2.624-8.175 7.567v15.638c0 4.843 3.026 7.567 8.175 7.567 5.153 0 8.176-2.724 8.176-7.567v-15.638m14.781 1.917v11.704c0 12.308-9.517 19.27-22.957 19.27-13.439 0-22.844-6.962-22.844-19.27v-11.704c0-12.409 9.405-19.168 22.844-19.168 13.44 0 22.957 6.759 22.957 19.168" fill="#da1356"/></g><g transform="translate(296.31 703.09)"><path d="m0 0c0-1.537-1.055-2.578-2.902-2.578h-2.453v7.236h2.453c1.847 0 2.902-1.041 2.902-2.578v-2.08m1.785-0.108v2.282c0 2.235-1.661 4.037-4.595 4.037h-4.332v-10.341h4.332c2.934 0 4.595 1.801 4.595 4.022" fill="#da1356"/></g><g transform="translate(300.16 698.96)"><path d="m0 0v10.341h7.484v-1.553h-5.699v-2.686h4.285v-1.474h-4.285v-3.075h5.699v-1.553z" fill="#da1356"/></g><g transform="translate(319.6 702.97)"><path d="m0 0h-3.275l1.613 4.209zm3.447-4.006-4.224 10.341h-1.676l-4.162-10.341h1.831l0.982 2.608h4.359l1.011-2.608z" fill="#da1356"/></g><g transform="translate(331.86 698.96)"><path d="m0 0-4.844 6.148-0.855 1.181v-7.329h-1.738v10.341h1.57l4.704-6.195 0.839-1.165v7.36h1.737v-10.341z" fill="#da1356"/></g><g transform="translate(342.87 703.09)"><path d="m0 0c0-1.537-1.056-2.578-2.904-2.578h-2.453v7.236h2.453c1.848 0 2.904-1.041 2.904-2.578v-2.08m1.785-0.108v2.282c0 2.235-1.66 4.037-4.595 4.037h-4.332v-10.341h4.332c2.935 0 4.595 1.801 4.595 4.022" fill="#da1356"/></g><g transform="translate(352.05 702.97)"><path d="m0 0h-3.276l1.612 4.209zm3.444-4.006-4.222 10.341h-1.675l-4.161-10.341h1.83l0.981 2.608h4.364l1.006-2.608z" fill="#da1356"/></g><g transform="translate(356.87 698.96)"><path d="m0 0v10.341h1.785v-8.788h5.977v-1.553z" fill="#da1356"/></g><g transform="translate(370.49 698.64)"><path d="m0 0c-2.872 0-4.392 1.568-4.392 3.866v6.802h1.8v-6.802c0-1.49 0.884-2.313 2.654-2.313 1.816 0 2.577 0.823 2.577 2.313v6.802h1.801v-6.802c0-2.235-1.505-3.866-4.44-3.866" fill="#da1356"/></g><g transform="translate(384.68 706.18)"><path d="m0 0c-0.495 0.978-1.443 1.894-2.933 1.894-1.987 0-3.044-1.257-3.044-2.981v-1.987c0-1.678 1.087-2.92 3.107-2.92 1.427 0 2.406 0.807 2.901 1.925l1.476-0.667c-0.605-1.429-2.126-2.811-4.47-2.811-3.106 0-4.816 2.051-4.816 4.535v1.862c0 2.515 1.802 4.597 4.877 4.597 2.235 0 3.867-1.382 4.409-2.779l-1.507-0.668" fill="#da1356"/></g><g transform="translate(389.18 710.18)"><path d="m0 0h-1.009l0.778 2.313h1.768zm0.483-11.211h-1.786v10.341h1.786z" fill="#da1356"/></g><g transform="translate(397.68 702.97)"><path d="m0 0h-3.278l1.616 4.209zm3.447-4.006-4.224 10.341h-1.676l-4.16-10.341h1.831l0.977 2.608h4.364l1.009-2.608z" fill="#da1356"/></g></g></g><g transform="matrix(.51635 0 0 .51636 215.39 370.44)"><g transform="matrix(1 0 0 -1 377.4 945.01)"><path d="m485.34 153.02c14.554-2.928 19.605 3.3954 19.605 17.95v227.99c0 18.403-8.3145 18.611-22.535 15.99l-159.04-31.37c-5.67-1.3166-9.8766-6.212-9.84-13.54v-166.04c0.0165-15.642 6.3664-15.183 21.68-19.07l150.13-31.91" fill="#da1356"/></g><g transform="matrix(1 0 0 -1 377.4 945.01)"><path d="m353.79 234.49-3.94 18.235h-8.515v20.195h7.235v43.03c0.34 6.24 1.81 12.73 5.72 17.76 3.92 5.07 10.26 7.92 16.6 8.17 6.24 0.27 12.78 0.21 18.51-2.62l-1.47-19.06c-3.6 0.37-7.51 1.34-10.95-0.21-3.14-1.78-3.3975-5.75-3.3275-8.96v-38.11h16.228v-20.195h-16.228v-20.435l-19.862 2.2m39.1 18.235 27.101 87.955h28.869l27.69-87.955h-26.5l-2.72 8.705-12.75 52.8-14.63-61.505z" fill="#fff"/></g></g></g></svg>
