<svg width="800" height="518.68" version="1.1" viewBox="0 0 800 518.68" xmlns="http://www.w3.org/2000/svg">
 <link rel="stylesheet" type="text/css"/>
 <path d="m591.3 0v361.74h-428.09v-361.74z" fill-rule="evenodd"/>
 <path d="m305.75 102.09c-0.53626 0.64913-0.89983 1.0403-1.2089 1.471-12.631 17.587-25.262 35.173-37.877 52.771-2.6419 3.6846-4.8842 7.5933-6.2357 11.956-0.93921 3.0321-1.8024 6.088-2.7595 9.1143-5.8589 18.528-11.839 37.019-17.559 55.59-2.6001 8.4408-6.659 15.854-13.182 21.85-8.836 8.1221-17.65 16.268-26.512 24.362-3.8828 3.5464-7.7099 7.1472-9.8165 12.088-2.5443 5.968-3.9339 12.291-5.2897 18.609-0.52668 2.4546 0.18926 4.4257 2.6287 5.5237 1.816 0.81696 3.5547 1.9066 5.4504 2.4293 14.248 3.9281 28.435 3.8994 42.48-1.0194 3.4639-1.2134 6.3862-3.2249 8.5519-6.2583 0.93431-1.3087 1.2545-2.711 1.2163-4.3356-0.0657-2.8023-0.14993-5.645 0.22581-8.409 1.1778-8.6688 3.8271-16.995 6.2409-25.371 4.5681-15.85 12.512-29.714 24.219-41.376 8.5368-8.5037 18.044-15.809 27.792-22.836 1.6978-1.2233 3.1083-1.3587 4.9089-0.35848 11.601 6.445 23.238 12.825 34.855 19.24 7.2682 4.0132 14.543 8.0125 22.376 10.853 0.62927 0.22831 1.3071 0.32271 1.9625 0.47913 0.0791-0.11938 0.15918-0.23909 0.23877-0.3588-0.55537-1.0801-1.0347-2.2084-1.6793-3.2324-2.7062-4.2977-5.516-8.5306-8.1887-12.849-6.1479-9.9325-9.8679-20.699-9.7229-32.442 0.12124-9.8365 1.6777-19.516 5.5196-28.697 1.1282-2.6968 1.0368-2.8597-1.5962-4.0397-8.3866-3.7593-16.589-7.8555-23.896-13.517-13.376-10.363-22.075-23.399-23.141-41.237zm22.947-40.387c-0.76129 1.3353-1.4918 2.6964-2.1223 4.0971-4.0401 8.9764-6.1889 18.454-7.2509 28.194-1.0168 9.3247 1.0476 17.976 6.1695 25.822 5.5218 8.4584 13.227 14.548 21.927 19.374 7.7611 4.306 16.218 6.8032 24.844 8.7437 2.3661 0.53251 2.4046 0.64697 1.3856 2.8208-4.2827 9.138-7.6493 18.578-9.468 28.539-1.0294 5.6373-1.5909 11.27-0.54765 16.98 1.2784 6.9984 3.9336 13.488 7.3227 19.671 3.4263 6.2509 7.1263 12.351 10.61 18.571 2.4304 4.3399 2.5751 8.7237 0.0754 13.194-0.7419 1.3272-1.1917 3.0124-1.1846 4.5309 0.0278 5.4528 1.1476 10.715 3.6821 15.585 5.1631 9.9214 13.619 15.929 23.803 19.782 6.4573 2.4426 13.244 3.5535 20.029 4.5926 6.0328 0.92401 11.8 0.18231 16.871-3.4767 5.5123-3.9777 10.051-8.8949 13.496-14.789 2.2975-3.9308 3.4066-8.1523 3.6812-12.723 0.15316-2.5512 0.81177-5.1976 1.8304-7.5448 2.2442-5.1705 4.7645-10.228 7.3427-15.244 10.27-19.981 20.602-39.928 30.919-59.885 1.0356-2.0032 1.4253-2.1587 3.64-1.9526 3.2628 0.3036 6.5306 0.55656 9.2172 0.7824 2.5912-0.14655 4.5903-0.21318 6.5808-0.37949 11.548-0.96412 22.63-3.4724 32.799-9.3938 6.2326-3.6291 10.866-8.5685 13.457-15.271 4.3169-11.168 5.9934-22.879 6.7245-34.76 0.0731-1.1903-0.51622-1.6392-1.6587-1.6777-4.2415-0.14192-7.2349 1.8869-9.3624 5.3806-1.4139 2.3216-2.7358 4.699-4.1023 7.0493-4.1026 7.0574-10.11 11.413-18.144 12.995-7.3898 1.4556-14.762 1.02-22.195 0.32239-7.1534-0.67134-13.527-3.108-19.333-7.2258-7.3199-5.1918-14.595-10.448-21.959-15.576-6.5211-4.5417-13.522-8.16-21.298-10.016-12.214-2.9155-24.612-2.6998-37-1.7228-10.511 0.82899-20.995 1.998-31.492 3.0096-1.9758 0.19037-3.9555 0.49795-5.9316 0.48437-2.4809-0.0171-4.9618-0.47234-7.4397-0.44644-4.4431 0.0463-8.756-0.65375-13.067-1.6321-11.22-2.5465-18.991-9.0149-22.901-19.947-1.5712-4.3939-2.1971-8.9541-2.251-13.604-0.0417-3.4465-9e-3 -6.9401-1.5654-10.105-0.6979-1.4198-1.7645-2.7643-2.9572-3.8059-1.4413-1.2588-2.2371-0.98849-3.1757 0.65714zm60.758-25.22c-2.4126 1.6494-4.8867 3.2197-7.2051 4.9937-7.1675 5.4842-14.2 11.149-21.443 16.53-2.6028 1.9338-5.6729 3.2296-8.482 4.8974-0.51872 0.30758-1.1615 1.0126-1.1482 1.5179 0.12448 4.5614 0.037 9.1689 0.67314 13.668 1.2671 8.939 6.0904 13.945 14.954 15.677 3.7991 0.7423 7.7244 0.99898 11.604 1.1307 9.2069 0.3123 18.37-0.28703 27.52-1.1007l3.9206-0.35982 7.8385-0.74966c10.779-1.0249 21.521-1.8132 32.366-0.53157 9.0004 1.0635 17.408 3.5776 25.248 8.1273 7.3215 4.2489 13.762 9.6462 20.136 15.146 0.79882 0.68923 1.618 1.3553 2.725 2.2806-0.35723-4.4118-0.59508-8.438-1.0282-12.443-0.67819-6.2753-1.6534-12.522-2.2017-18.807-0.71974-8.2513-3.2635-15.835-7.5194-22.886-3.72-6.163-9.0238-10.217-16.128-11.514-6.0408-1.1026-12.133-1.9576-18.228-2.7165-9.2252-1.1486-18.135-3.2234-26.342-7.8136-3.9795-2.2256-8.0406-4.3088-12.104-6.3796-8.627-4.397-17.041-4.2141-25.155 1.3319z" fill="#fff" fill-rule="evenodd"/>
 <link rel="stylesheet" type="text/css"/>
 <style lang="en" type="text/css"/>
 <style lang="en" type="text/css"/>
 <style lang="en" type="text/css"/>
 <g transform="matrix(4.6273 0 0 4.6273 4.6681 -558.31)">
  <path d="m171.88 214.11v1.4025h-10.408v-1.4025zm-4.309-6.0281 1.5556 3.6953 1.5775-3.6953h1.1758l-2.2129 5.1734h-1.1685l-2.2056-5.1734zm-1.6438 0v0.97555h-1.636v4.1978h-1.1831v-4.1978h-1.636v-0.97555z" fill-rule="evenodd"/>
  <path d="m145.88 208.15a13.856 12.298 0 0 0-13.855 12.299 13.856 12.298 0 0 0 13.855 12.297 13.856 12.298 0 0 0 13.855-12.297 13.856 12.298 0 0 0-13.855-12.299zm0 7.7949a4.47 4.5025 0 0 1 4.4707 4.5039 4.47 4.5025 0 0 1-4.4707 4.502 4.47 4.5025 0 0 1-4.4707-4.502 4.47 4.5025 0 0 1 4.4707-4.5039z" stop-color="#000000" stroke-width="12.414"/>
  <path d="m120.32 208.91c3.7689 0.31247 7.2789 1.2714 8.812 5.085 1.5615 3.8838 1.1198 7.5484-2.2398 10.638l3.991 7.3617-9.0524-0.0352c-0.34174-7e-3 -0.7889-0.43684-0.98771-0.77977-0.70067-1.2071-1.2515-2.4995-1.9952-3.6781-0.2581-0.40889-0.89261-0.81074-1.391-0.86133h-3.7094v5.2515h-9.3145v-22.982zm-6.5373 7.5053v3.469l4.5197-0.0126c1.1246-0.0391 1.7715-0.65261 1.7328-1.7829-0.0387-1.1361-0.74164-1.6551-1.8594-1.6691z" fill-rule="evenodd"/>
  <path d="m87.695 208.08a13.856 12.298 0 0 0-13.855 12.299 13.856 12.298 0 0 0 13.855 12.297 13.856 12.298 0 0 0 13.855-12.297 13.856 12.298 0 0 0-13.855-12.299zm0 7.7949a4.47 4.5025 0 0 1 4.4707 4.5039 4.47 4.5025 0 0 1-4.4707 4.502 4.47 4.5025 0 0 1-4.4707-4.502 4.47 4.5025 0 0 1 4.4707-4.5039z" stop-color="#000000" stroke-width="12.414"/>
  <path d="m71.688 209.01v7.4081h-8.2073v15.484h-9.3297v-15.503h-8.2618v-7.3886z" fill-rule="evenodd"/>
  <path d="m27.271 208.74v17.341h8.5972v5.8162h-15.734v-23.157z" fill-rule="evenodd"/>
  <path d="m16.546 208.7v5.5188h-10.275v3.6367h10.254v4.699h-10.272v3.7046h10.279v5.627h-17.542v-23.186z" fill-rule="evenodd"/>
 </g>
</svg>
