<svg width="600pt" height="551.72pt" version="1.1" viewBox="0 0 600 551.72" xmlns="http://www.w3.org/2000/svg">
 <g transform="matrix(1.0003 0 0 -1.0003 258.51 920.38)" fill="#fff">
  <path d="m67.453 530.81c-5.7827 4.7305-27.838 22.382-24.984 49.836 0.69677 4.9438 8.968 10.997 1.3888 24.562-11.471 20.491-29.776 46.314-28.331 71.976 0.88163 15.822 5.8917 36.071 18.026 61.572-10.343 2.0998-31.004 7.437-43.641 15.168-16.595 10.115-46.371 30.829-41.93 72.009 4.0384 19.448 4.9248 31.426 15.926 50.163 9.8306-1.4315 10.722-16.452 10.456-22.671 1.4646-37.152 20.244-63.989 100.36-52.77 13.722 0.72047 54.595 7.7403 85.826-0.12798 38.545-9.769 62.738-48.717 92.566-50.694 81.333-11.395 57.112 43.498 88.281 39.342 0 0-0.97643-56.694-22.306-74.099-23.292-18.974-62.07-23.904-87.485-19.59 0 0-62.487-119.09-63.904-128.33 3.4459-18.846-17.391-44.503-35.275-51.371-12.338-4.7589-54.505 6.3989-64.975 15.026"/>
  <path d="m223.88 786.41c-5.996 3.5929-35.365 36.806-71.568 39.507-26.634 4.1048-53.576-1.2087-78.56-2.8203-23.614-1.5073-44.361-2.6164-58.225 2.2325-22.861 8.0152-17.561 38.19-18.472 45.949 17.296 3.3369 51.035 44.484 76.394 48.627 14.997 2.4648 37.948-15.632 53.585-21.093 40.982-14.372 70.649 5.3609 88.371-45.987 5.4746-15.817 7.6692-63.24 8.475-66.416"/>
  <path d="m-72.375 811.62c-1.7206-14.457 8.4466-39.048 19.922-50.689 16.642-18.87 42.323-31.445 56.239-37.014-7.655-20.287-9.2429-31.961-10.352-47.632-0.047399-39.953 27.402-66.776 30.757-77.896-21.316 4.9106-93.287 51.68-96.51 49.433-31.758-22.202-60.7-45.958-76.593-82.854-4.1143-9.5083-20.889-62.97-16.249-72.147-2.5027-26.634-78.493-27.188-92.799-10.84-2.5833 2.9625 5.6642 36.929 13.812 45.176 8.4229 8.4987 57.088 48.091 64.894 65.539 4.5314 10.091 31.284 96.979 38.531 121.42 1.787 5.9534 66.065 95.315 68.345 97.505"/>
 </g>
 <g transform="matrix(.94581 0 0 .94581 -66.803 242.91)" fill="#fff" stroke-width="1.0368">
  <g transform="matrix(.81181 0 0 .81181 135 12.739)">
   <path d="m7.36e-4 296.5h64.24v21.218h-38.082v13.515h38.082v17.62h-38.082v13.655h38.082v21.151h-64.24z"/>
   <path d="m76.646 296.5h26.19v65.303h31.342v21.856h-57.532z"/>
  </g>
  <g transform="matrix(.81181 0 0 .81181 153.54 12.739)">
   <path d="m559.35 294.11v4.6717h5.9262v12.145h5.9155v-12.145h5.9246v-4.6717z"/>
   <path d="m579.54 294.11 6.2937 16.817h7.8895l6.2922-16.817h-5.9808l-4.257 11.688-4.2556-11.688z"/>
   <path d="m134.22 297.59v28.035h30.165v58.019h34.008v-58.019h30.165v-28.035z"/>
   <path d="m346.45 383.65 0.0207-86.054h50.326c25.16 0 42.333 10.023 42.333 34.515 0 9.6298-3.8673 18.31-11.073 23.992l14.65 27.548h-35.023l-10.109-19.912h-17.247v19.912h-33.877m33.877-58.04v13.084h16.47c3.8702 0.0504 6.6456-2.6857 6.6456-6.5422 0-3.9784-3.0176-6.5422-6.6456-6.5422z"/>
   <path d="m559.52 316.84h40.394v5.6868h-40.394z"/>
   <path d="m496.99 294.66a49.928 45.918 0 0 0-49.927 45.918 49.928 45.918 0 0 0 49.927 45.918 49.928 45.918 0 0 0 49.929-45.918 49.928 45.918 0 0 0-49.929-45.918zm0 29.105a16.279 16.813 0 0 1 16.28 16.813 16.279 16.813 0 0 1-16.28 16.813 16.279 16.813 0 0 1-16.278-16.813 16.279 16.813 0 0 1 16.278-16.813z" style="paint-order:markers stroke fill"/>
   <path d="m286.4 294.66a49.928 45.918 0 0 0-49.927 45.918 49.928 45.918 0 0 0 49.927 45.918 49.928 45.918 0 0 0 49.929-45.918 49.928 45.918 0 0 0-49.929-45.918zm0 29.105a16.279 16.813 0 0 1 16.28 16.813 16.279 16.813 0 0 1-16.28 16.813 16.279 16.813 0 0 1-16.278-16.813 16.279 16.813 0 0 1 16.278-16.813z" style="paint-order:markers stroke fill"/>
  </g>
 </g>
</svg>
