<svg width="800" height="83.873" version="1.1" viewBox="0 0 211.67 22.191" xmlns="http://www.w3.org/2000/svg" xmlns:xlink="http://www.w3.org/1999/xlink">
 <defs>
  <linearGradient id="b" x2="3.436" y1="17.075" y2="17.075" gradientTransform="matrix(1.9915 0 0 .73437 .0013023 1.9044)" gradientUnits="userSpaceOnUse" xlink:href="#a"/>
  <linearGradient id="a">
   <stop stop-color="#fff" offset="0"/>
   <stop stop-color="#fff" stop-opacity="0" offset="1"/>
  </linearGradient>
  <linearGradient id="c" x2="3.281" y1="8.058" y2="8.058" gradientTransform="matrix(2.0853 0 0 .70138 .0013023 1.9044)" gradientUnits="userSpaceOnUse" xlink:href="#a"/>
  <linearGradient id="d" x1="22.006" x2="25.441" y1="17.074" y2="17.074" gradientTransform="matrix(1.9914 0 0 .73441 .0013023 1.9044)" gradientUnits="userSpaceOnUse" xlink:href="#a"/>
  <linearGradient id="e" x1="21.017" x2="24.298" y1="8.058" y2="8.058" gradientTransform="matrix(2.0852 0 0 .7014 .0013023 1.9044)" gradientUnits="userSpaceOnUse" xlink:href="#a"/>
  <linearGradient id="f" x1="46.389" x2="49.824" y1="17.075" y2="17.075" gradientTransform="matrix(1.9915 0 0 .73437 .0013023 1.9044)" gradientUnits="userSpaceOnUse" xlink:href="#a"/>
  <linearGradient id="g" x1="44.304" x2="47.586" y1="8.058" y2="8.058" gradientTransform="matrix(2.0853 0 0 .70138 .0013023 1.9044)" gradientUnits="userSpaceOnUse" xlink:href="#a"/>
 </defs>
 <g transform="matrix(.16092 0 0 .16092 -26.45 -.00010468)">
  <path class="st8" d="m1074.9 0h157.74l-19.837 137.9h-137.9z" fill="#3df4b4"/>
  <path class="st9" d="m1143.9 24c24.5 0 44.4 20.2 44.4 45h8.9v-54h-53.2v9zm-53.2 45v54h53.2v-9c-24.5 0-44.4-20.2-44.4-45z" fill="#112136"/>
 </g>
 <path d="m29.363 1.8937v13.801h13.004v4.6003h-18.144a1.643 1.643 0 0 1-1.643-1.6416v-16.76zm44.14 17.492-7.622-15.084a1.6591 1.6591 0 0 1 1.4807-2.4074h5.2669l6.144 12.755c0.01618 0.03352 0.06171 0.0322 0.07779 0l5.3326-11.78c0.26824-0.59415 0.85971-0.97505 1.5115-0.97505h6.2272l-8.1679 17.411c-0.28433 0.60354-0.89056 0.98846-1.5585 0.98846h-7.2103c-0.62634 0-1.1977-0.3514-1.4807-0.90933zm49.526-17.047 10.461 10.016v-10.461h6.7408l1e-3 0.0027v16.709a1.6899 1.6899 0 0 1-1.6896 1.6899h-4.6674a1.6497 1.6497 0 0 1-1.1454-0.46405l-11.282-10.689v11.152h-6.7395v-16.778c0-0.89457 0.72424-1.6202 1.6202-1.6202h5.6062c0.4104 0 0.80203 0.1596 1.0944 0.44528zm-102.67 4.0558v-4.501h-18.687c-0.9214 0-1.6684 0.74705-1.6684 1.6671v2.8339zm-20.351 9.3012v4.6003h18.884c0.92274 0 1.6698-0.74839 1.6698-1.6698v-2.9305zm-0.0026824-7.001h20.083v4.4769h-20.084z" fill="#fff" fill-rule="evenodd" stroke-width="1.3412"/>
 <path d="m0.0013023 13.17 6.8428 2.5241v-2.5241z" fill="url(#b)" fill-rule="evenodd" stroke-width="1.3412"/>
 <path d="m0.0013023 6.3974 6.8428 2.3015v-2.3015z" fill="url(#c)" fill-rule="evenodd" stroke-width="1.3412"/>
 <path d="m64.177 6.3947v-4.501h-18.687a1.6684 1.6684 0 0 0-1.6671 1.6671v2.8339zm-20.35 9.3012v4.6003h18.883a1.6698 1.6698 0 0 0 1.6698-1.6698v-2.9305zm-0.0054-7.001h20.083v4.4769h-20.083z" fill="#fff" fill-rule="evenodd" stroke-width="1.3412"/>
 <path d="m43.818 13.17 6.8414 2.5241v-2.5241z" fill="url(#d)" fill-rule="evenodd" stroke-width="1.3412"/>
 <path d="m43.818 6.3974 6.8414 2.3015v-2.3015z" fill="url(#e)" fill-rule="evenodd" stroke-width="1.3412"/>
 <path d="m112.74 6.3947v-4.501h-18.687a1.6684 1.6684 0 0 0-1.6671 1.6671v2.8339zm-20.35 9.3012v4.6003h18.884a1.6698 1.6698 0 0 0 1.6684-1.6698v-2.9305zm-0.0039-7.001h20.082v4.4769h-20.083z" fill="#fff" fill-rule="evenodd" stroke-width="1.3412"/>
 <path d="m92.383 13.17 6.8428 2.5241v-2.5241z" fill="url(#f)" fill-rule="evenodd" stroke-width="1.3412"/>
 <path d="m92.383 6.3974 6.8428 2.3015v-2.3015z" fill="url(#g)" fill-rule="evenodd" stroke-width="1.3412"/>
 <g transform="matrix(1.3412 0 0 1.3412 22.194 -.00011191)">
  <path transform="translate(-38.561,-86.648)" d="m150.19 86.648a2.374 2.374 0 0 0-2.38 2.38v14.166h18.89a2.375 2.375 0 0 0 2.38-2.38v-14.166h-15.717z" fill="#112136" fill-rule="evenodd"/>
  <path d="m126.06 6.092v-3.19h-12.391v3.175h7.522l-3.886 1.21 0.492 1.642c0.997-0.16 1.862-0.241 2.603-0.241 0.733 0 1.312 0.073 1.737 0.22 0.425 0.146 0.63 0.337 0.616 0.586-0.015 0.352-0.235 0.587-0.66 0.719s-1.151 0.198-2.177 0.183c-1.034 0-1.767-0.059-2.207-0.183-0.44-0.125-0.675-0.338-0.704-0.638h-3.937c0.036 0.557 0.132 1.048 0.286 1.459 0.146 0.41 0.388 0.792 0.71 1.129 0.323 0.337 0.734 0.616 1.247 0.821 0.513 0.213 1.144 0.374 1.906 0.491 0.763 0.118 1.657 0.169 2.684 0.169 2.456 0 4.2-0.271 5.235-0.821 1.026-0.55 1.554-1.503 1.569-2.86 0.014-0.968-0.264-1.671-0.821-2.119-0.565-0.447-1.46-0.703-2.691-0.762z" fill="#3df4b4"/>
 </g>
 <g transform="matrix(.27951 0 0 .27951 58.032 -.04104)" fill="#fff" stroke="#000">
  <g transform="matrix(1.0897 0 0 .87006 -5.1182 -.011367)" opacity=".98" stroke-width="1.1116" aria-label="L">
   <g fill="#fff" opacity="1">
    <path transform="scale(.89353 1.1192)" d="m550.19 0.16211v17.471h19.582v-4.8691h-12.621v-12.602h-0.62305z" color="#ffffff" color-rendering="auto" dominant-baseline="auto" fill="#fff" image-rendering="auto" shape-rendering="auto" solid-color="#ffffff" stop-color="#ffffff" stroke="none" style="font-feature-settings:normal;font-variant-alternates:normal;font-variant-caps:normal;font-variant-east-asian:normal;font-variant-ligatures:normal;font-variant-numeric:normal;font-variant-position:normal;font-variation-settings:normal;inline-size:0;isolation:auto;mix-blend-mode:normal;shape-margin:0;shape-padding:0;text-decoration-color:#ffffff;text-decoration-line:none;text-decoration-style:solid;text-indent:0;text-orientation:mixed;text-transform:none;white-space:normal"/>
   </g>
  </g>
  <g transform="matrix(1.095 0 0 .86592 -5.1182 -.011367)" opacity=".98" stroke-width="1.1166" aria-label="N">
   <g fill="#fff" opacity="1">
    <path d="m464.7 0.18229v19.639h6.1208v-11.129l10.249 11.129h5.8325v-19.639h-6.0965v11.039l-10.024-11.039z" color="#ffffff" color-rendering="auto" dominant-baseline="auto" fill="#fff" image-rendering="auto" shape-rendering="auto" solid-color="#ffffff" stop-color="#ffffff" stroke="none" style="font-feature-settings:normal;font-variant-alternates:normal;font-variant-caps:normal;font-variant-east-asian:normal;font-variant-ligatures:normal;font-variant-numeric:normal;font-variant-position:normal;font-variation-settings:normal;inline-size:0;isolation:auto;mix-blend-mode:normal;shape-margin:0;shape-padding:0;text-decoration-color:#ffffff;text-decoration-line:none;text-decoration-style:solid;text-indent:0;text-orientation:mixed;text-transform:none;white-space:normal"/>
   </g>
  </g>
 </g>
</svg>
