<svg width="661.62" height="83.873" version="1.1" viewBox="0 0 175.05 22.191" xmlns="http://www.w3.org/2000/svg" xmlns:xlink="http://www.w3.org/1999/xlink">
 <defs>
  <linearGradient id="b" x2="3.436" y1="17.075" y2="17.075" gradientTransform="matrix(1.9915 0 0 .73437 -7.1472e-5 1.8911)" gradientUnits="userSpaceOnUse" xlink:href="#a"/>
  <linearGradient id="a">
   <stop stop-color="#fff" offset="0"/>
   <stop stop-color="#fff" stop-opacity="0" offset="1"/>
  </linearGradient>
  <linearGradient id="c" x2="3.281" y1="8.058" y2="8.058" gradientTransform="matrix(2.0853 0 0 .70138 -7.1472e-5 1.8911)" gradientUnits="userSpaceOnUse" xlink:href="#a"/>
  <linearGradient id="d" x1="22.006" x2="25.441" y1="17.074" y2="17.074" gradientTransform="matrix(1.9914 0 0 .73441 -7.1472e-5 1.8911)" gradientUnits="userSpaceOnUse" xlink:href="#a"/>
  <linearGradient id="e" x1="21.017" x2="24.298" y1="8.058" y2="8.058" gradientTransform="matrix(2.0852 0 0 .7014 -7.1472e-5 1.8911)" gradientUnits="userSpaceOnUse" xlink:href="#a"/>
  <linearGradient id="f" x1="46.389" x2="49.824" y1="17.075" y2="17.075" gradientTransform="matrix(1.9915 0 0 .73437 -7.1472e-5 1.8911)" gradientUnits="userSpaceOnUse" xlink:href="#a"/>
  <linearGradient id="g" x1="44.304" x2="47.586" y1="8.058" y2="8.058" gradientTransform="matrix(2.0853 0 0 .70138 -7.1472e-5 1.8911)" gradientUnits="userSpaceOnUse" xlink:href="#a"/>
  <linearGradient id="h" x1="442.07" x2="508.29" y1="215.17" y2="215.17" gradientTransform="matrix(.42826 0 0 .42826 -42.735 -81.303)" gradientUnits="userSpaceOnUse">
   <stop stop-color="#10253d" offset="0"/>
   <stop stop-color="#004199" offset="1"/>
  </linearGradient>
 </defs>
 <path d="m29.363 1.8938v13.801h13.004v4.6003h-18.144a1.643 1.643 0 0 1-1.643-1.6416v-16.76zm44.14 17.492-7.6233-15.084a1.6591 1.6591 0 0 1 1.4807-2.4074h5.2669l6.144 12.755c0.01609 0.03353 0.0617 0.03219 0.07779 0l5.3326-11.78c0.26824-0.59415 0.85971-0.97505 1.5115-0.97505h6.2272l-8.1679 17.411c-0.28433 0.60354-0.89055 0.98846-1.5585 0.98846h-7.2103c-0.62634 0-1.1977-0.35139-1.4807-0.90933zm49.526-17.047 10.461 10.016v-10.461h6.7408l1e-3 0.00268v16.709a1.6899 1.6899 0 0 1-1.6899 1.6899h-4.6674a1.6497 1.6497 0 0 1-1.1454-0.46405l-11.282-10.689v11.152h-6.7395v-16.778c0-0.89458 0.72424-1.6202 1.6202-1.6202h5.6062c0.41041 0 0.80204 0.1596 1.0944 0.44528zm-102.67 4.0558v-4.501h-18.687c-0.9214 0-1.6684 0.74839-1.6684 1.6671v2.8339zm-20.351 9.3012v4.6003h18.884c0.92274 0 1.6698-0.74839 1.6698-1.6698v-2.9305zm-0.0040236-7.001h20.083v4.4769h-20.083z" fill="#fff" fill-rule="evenodd" stroke-width="1.3412"/>
 <path d="m-7.2896e-5 13.171 6.8428 2.5241v-2.5241z" fill="url(#b)" fill-rule="evenodd" stroke-width="1.3412"/>
 <path d="m-7.2896e-5 6.3975 6.8428 2.3015v-2.3015z" fill="url(#c)" fill-rule="evenodd" stroke-width="1.3412"/>
 <path d="m64.177 6.3948v-4.501h-18.687a1.6684 1.6684 0 0 0-1.6671 1.6671v2.8339zm-20.35 9.3012v4.6003h18.883a1.6698 1.6698 0 0 0 1.6698-1.6698v-2.9305zm-0.0054-7.001h20.083v4.4769h-20.083z" fill="#fff" fill-rule="evenodd" stroke-width="1.3412"/>
 <path d="m43.83 13.171 6.8414 2.5241v-2.5241z" fill="url(#d)" fill-rule="evenodd" stroke-width="1.3412"/>
 <path d="m43.83 6.3975 6.8414 2.3015v-2.3015z" fill="url(#e)" fill-rule="evenodd" stroke-width="1.3412"/>
 <path d="m112.74 6.3948v-4.501h-18.687a1.6684 1.6684 0 0 0-1.6671 1.6671v2.8339zm-20.35 9.3012v4.6003h18.884a1.6698 1.6698 0 0 0 1.6684-1.6698v-2.9305zm-4e-3 -7.001h20.082v4.4769h-20.083z" fill="#fff" fill-rule="evenodd" stroke-width="1.3412"/>
 <path d="m92.381 13.171 6.8428 2.5241v-2.5241z" fill="url(#f)" fill-rule="evenodd" stroke-width="1.3412"/>
 <path d="m92.381 6.3975 6.8428 2.3015v-2.3015z" fill="url(#g)" fill-rule="evenodd" stroke-width="1.3412"/>
 <path d="m149.72 1.0213e-5a3.184 3.184 0 0 0-3.192 3.192v18.999h25.335a3.1853 3.1853 0 0 0 3.192-3.192v-18.999h-21.08z" fill="url(#h)" fill-rule="evenodd" stroke-width="1.3412"/>
 <path d="m157.01 9.442c-9e-3 -0.25483 0.12742-0.4721 0.42248-0.64914s0.72827-0.32457 1.3077-0.42248c0.58074-0.097907 1.2876-0.14753 2.1338-0.15692 0.63975 0 1.2004 0.00939 1.6725 0.038895 0.4721 0.040236 0.83557 0.07913 1.0917 0.12741 0.25482 0.059013 0.45198 0.11803 0.6089 0.19716 0.15692 0.077789 0.25483 0.14753 0.29506 0.20654a0.57671 0.57671 0 0 1 0.0791 0.21593c0.0188 0.19716-0.0993 0.35408-0.35407 0.48283-0.25483 0.12741-0.69742 0.23471-1.3466 0.32323-0.64914 0.099248-1.5638 0.17704-2.7441 0.25483-1.4163 0.09925-2.6851 0.30579-3.7956 0.63975-1.1118 0.3353-2.0064 0.73766-2.6743 1.2299-0.67864 0.49222-1.191 1.022-1.5343 1.6027a3.4066 3.4066 0 0 0-0.52173 1.8106v2.9386h18.094v-4.2663h-11.908c0.13814-0.28433 0.57135-0.52038 1.2876-0.70815a14.548 14.548 0 0 1 2.3122-0.37285 83.031 83.031 0 0 0 2.7535-0.28567c1.0032-0.11802 1.7596-0.26556 2.2908-0.42248 1.3278-0.38358 2.2425-0.8758 2.7535-1.4646 0.51099-0.59012 0.73766-1.3479 0.68803-2.2814-0.0778-1.6336-0.87446-2.8031-2.3887-3.5206-1.5156-0.70815-3.7366-1.073-6.6577-1.073-2.9399 0-5.2012 0.51234-6.7757 1.5155-1.5732 1.0019-2.3605 2.3498-2.3605 4.041z" fill="#fff" stroke-width="1.3412"/>
</svg>
