<svg width="800" height="83.873" version="1.1" viewBox="0 0 211.67 22.191" xmlns="http://www.w3.org/2000/svg" xmlns:xlink="http://www.w3.org/1999/xlink">
 <defs>
  <linearGradient id="b" x2="3.436" y1="17.075" y2="17.075" gradientTransform="matrix(1.9915 0 0 .73437 .0013023 1.9044)" gradientUnits="userSpaceOnUse" xlink:href="#a"/>
  <linearGradient id="a">
   <stop stop-color="#10253d" offset="0"/>
   <stop stop-color="#10253d" stop-opacity="0" offset="1"/>
  </linearGradient>
  <linearGradient id="c" x2="3.281" y1="8.058" y2="8.058" gradientTransform="matrix(2.0853 0 0 .70138 .0013023 1.9044)" gradientUnits="userSpaceOnUse" xlink:href="#a"/>
  <linearGradient id="d" x1="22.006" x2="25.441" y1="17.074" y2="17.074" gradientTransform="matrix(1.9914 0 0 .73441 .0013023 1.9044)" gradientUnits="userSpaceOnUse" xlink:href="#a"/>
  <linearGradient id="e" x1="21.017" x2="24.298" y1="8.058" y2="8.058" gradientTransform="matrix(2.0852 0 0 .7014 .0013023 1.9044)" gradientUnits="userSpaceOnUse" xlink:href="#a"/>
  <linearGradient id="f" x1="46.389" x2="49.824" y1="17.075" y2="17.075" gradientTransform="matrix(1.9915 0 0 .73437 .0013023 1.9044)" gradientUnits="userSpaceOnUse" xlink:href="#a"/>
  <linearGradient id="g" x1="44.304" x2="47.586" y1="8.058" y2="8.058" gradientTransform="matrix(2.0853 0 0 .70138 .0013023 1.9044)" gradientUnits="userSpaceOnUse" xlink:href="#a"/>
 </defs>
 <g transform="matrix(.16092 0 0 .16092 -26.45 -.00010468)">
  <path class="st8" d="m1074.9 0h157.74l-19.837 137.9h-137.9z" fill="#3df4b4"/>
  <path class="st9" d="m1143.9 24c24.5 0 44.4 20.2 44.4 45h8.9v-54h-53.2v9zm-53.2 45v54h53.2v-9c-24.5 0-44.4-20.2-44.4-45z" fill="#112136"/>
 </g>
 <path d="m29.363 1.8937v13.801h13.004v4.6003h-18.144a1.643 1.643 0 0 1-1.643-1.6416v-16.76zm44.14 17.492-7.622-15.084a1.6591 1.6591 0 0 1 1.4807-2.4074h5.2669l6.144 12.755c0.01618 0.03352 0.06171 0.0322 0.07779 0l5.3326-11.78c0.26824-0.59415 0.85971-0.97505 1.5115-0.97505h6.2272l-8.1679 17.411c-0.28433 0.60354-0.89056 0.98846-1.5585 0.98846h-7.2103c-0.62634 0-1.1977-0.3514-1.4807-0.90933zm49.526-17.047 10.461 10.016v-10.461h6.7408l1e-3 0.0027v16.709a1.6899 1.6899 0 0 1-1.6896 1.6899h-4.6674a1.6497 1.6497 0 0 1-1.1454-0.46405l-11.282-10.689v11.152h-6.7395v-16.778c0-0.89457 0.72424-1.6202 1.6202-1.6202h5.6062c0.4104 0 0.80203 0.1596 1.0944 0.44528zm-102.67 4.0558v-4.501h-18.687c-0.9214 0-1.6684 0.74705-1.6684 1.6671v2.8339zm-20.351 9.3012v4.6003h18.884c0.92274 0 1.6698-0.74839 1.6698-1.6698v-2.9305zm-0.0026824-7.001h20.083v4.4769h-20.084z" fill="#10253d" fill-rule="evenodd" stroke-width="1.3412"/>
 <path d="m0.0013023 13.17 6.8428 2.5241v-2.5241z" fill="url(#b)" fill-rule="evenodd" stroke-width="1.3412"/>
 <path d="m0.0013023 6.3974 6.8428 2.3015v-2.3015z" fill="url(#c)" fill-rule="evenodd" stroke-width="1.3412"/>
 <path d="m64.177 6.3947v-4.501h-18.687a1.6684 1.6684 0 0 0-1.6671 1.6671v2.8339zm-20.35 9.3012v4.6003h18.883a1.6698 1.6698 0 0 0 1.6698-1.6698v-2.9305zm-0.0054-7.001h20.083v4.4769h-20.083z" fill="#10253d" fill-rule="evenodd" stroke-width="1.3412"/>
 <path d="m43.818 13.17 6.8414 2.5241v-2.5241z" fill="url(#d)" fill-rule="evenodd" stroke-width="1.3412"/>
 <path d="m43.818 6.3974 6.8414 2.3015v-2.3015z" fill="url(#e)" fill-rule="evenodd" stroke-width="1.3412"/>
 <path d="m112.74 6.3947v-4.501h-18.687a1.6684 1.6684 0 0 0-1.6671 1.6671v2.8339zm-20.35 9.3012v4.6003h18.884a1.6698 1.6698 0 0 0 1.6684-1.6698v-2.9305zm-0.0039-7.001h20.082v4.4769h-20.083z" fill="#10253d" fill-rule="evenodd" stroke-width="1.3412"/>
 <path d="m92.383 13.17 6.8428 2.5241v-2.5241z" fill="url(#f)" fill-rule="evenodd" stroke-width="1.3412"/>
 <path d="m92.383 6.3974 6.8428 2.3015v-2.3015z" fill="url(#g)" fill-rule="evenodd" stroke-width="1.3412"/>
 <g transform="translate(59.468 5.6453)" stroke-width="1.3412">
  <path d="m112.44-5.6454a3.184 3.184 0 0 0-3.192 3.192v18.999h25.335a3.1853 3.1853 0 0 0 3.192-3.192v-18.999h-21.08z" fill="#112136" fill-rule="evenodd"/>
  <path d="m119.74 3.7966c-9e-3 -0.25483 0.12742-0.4721 0.42248-0.64914s0.72827-0.32457 1.3077-0.42248c0.58074-0.097907 1.2876-0.14753 2.1338-0.15692 0.63975 0 1.2004 0.00939 1.6725 0.038895 0.4721 0.040236 0.83557 0.07913 1.0917 0.12741 0.25482 0.059013 0.45198 0.11803 0.6089 0.19716 0.15692 0.077789 0.25483 0.14753 0.29506 0.20654a0.57671 0.57671 0 0 1 0.0791 0.21593c0.0188 0.19716-0.0992 0.35408-0.35407 0.48283-0.25483 0.12741-0.69742 0.23471-1.3466 0.32323-0.64914 0.099248-1.5638 0.17704-2.7441 0.25483-1.4163 0.099248-2.6851 0.30579-3.7956 0.63975-1.1118 0.3353-2.0064 0.73766-2.6743 1.2299-0.67864 0.49222-1.191 1.022-1.5343 1.6027a3.4066 3.4066 0 0 0-0.52172 1.8106v2.9386h18.094v-4.2663h-11.908c0.13814-0.28433 0.57135-0.52038 1.2876-0.70815a14.548 14.548 0 0 1 2.3122-0.37285 83.031 83.031 0 0 0 2.7535-0.28567c1.0032-0.11803 1.7596-0.26556 2.2908-0.42248 1.3278-0.38358 2.2425-0.8758 2.7535-1.4646 0.51099-0.59013 0.73766-1.3479 0.68803-2.2814-0.0778-1.6336-0.87446-2.8031-2.3887-3.5206-1.5155-0.70815-3.7366-1.073-6.6577-1.073-2.9399 0-5.2012 0.51234-6.7757 1.5155-1.5732 1.0019-2.3605 2.3498-2.3605 4.041z" fill="#3df4b4"/>
 </g>
 <g transform="matrix(.27951 0 0 .27951 58.032 -.04104)" fill="#10253d" stroke="#000">
  <g transform="matrix(1.0897 0 0 .87006 -5.1182 -.011367)" opacity=".98" stroke-width="1.1116" aria-label="L">
   <g fill="#10253d" opacity="1">
    <path transform="scale(.89353 1.1192)" d="m550.19 0.16211v17.471h19.582v-4.8691h-12.621v-12.602h-0.62305z" color="#10253d" color-rendering="auto" dominant-baseline="auto" fill="#10253d" image-rendering="auto" shape-rendering="auto" solid-color="#10253d" stop-color="#10253d" stroke="none" style="font-feature-settings:normal;font-variant-alternates:normal;font-variant-caps:normal;font-variant-east-asian:normal;font-variant-ligatures:normal;font-variant-numeric:normal;font-variant-position:normal;font-variation-settings:normal;inline-size:0;isolation:auto;mix-blend-mode:normal;shape-margin:0;shape-padding:0;text-decoration-color:#10253d;text-decoration-line:none;text-decoration-style:solid;text-indent:0;text-orientation:mixed;text-transform:none;white-space:normal"/>
   </g>
  </g>
  <g transform="matrix(1.095 0 0 .86592 -5.1182 -.011367)" opacity=".98" stroke-width="1.1166" aria-label="N">
   <g fill="#10253d" opacity="1">
    <path d="m464.7 0.18229v19.639h6.1208v-11.129l10.249 11.129h5.8325v-19.639h-6.0965v11.039l-10.024-11.039z" color="#10253d" color-rendering="auto" dominant-baseline="auto" fill="#10253d" image-rendering="auto" shape-rendering="auto" solid-color="#10253d" stop-color="#10253d" stroke="none" style="font-feature-settings:normal;font-variant-alternates:normal;font-variant-caps:normal;font-variant-east-asian:normal;font-variant-ligatures:normal;font-variant-numeric:normal;font-variant-position:normal;font-variation-settings:normal;inline-size:0;isolation:auto;mix-blend-mode:normal;shape-margin:0;shape-padding:0;text-decoration-color:#10253d;text-decoration-line:none;text-decoration-style:solid;text-indent:0;text-orientation:mixed;text-transform:none;white-space:normal"/>
   </g>
  </g>
 </g>
</svg>
