<svg width="661.61" height="83.873" version="1.1" viewBox="0 0 175.05 22.191" xmlns="http://www.w3.org/2000/svg" xmlns:xlink="http://www.w3.org/1999/xlink">
 <defs>
  <linearGradient id="b" x2="3.436" y1="17.075" y2="17.075" gradientTransform="matrix(1.9915 0 0 .73437 -7.4638e-5 1.8951)" gradientUnits="userSpaceOnUse" xlink:href="#a"/>
  <linearGradient id="a">
   <stop stop-color="#10253d" offset="0"/>
   <stop stop-color="#10253d" stop-opacity="0" offset="1"/>
  </linearGradient>
  <linearGradient id="c" x2="3.281" y1="8.058" y2="8.058" gradientTransform="matrix(2.0853 0 0 .70138 -7.4638e-5 1.8951)" gradientUnits="userSpaceOnUse" xlink:href="#a"/>
  <linearGradient id="d" x1="22.006" x2="25.441" y1="17.074" y2="17.074" gradientTransform="matrix(1.9914 0 0 .73441 -7.4638e-5 1.8951)" gradientUnits="userSpaceOnUse" xlink:href="#a"/>
  <linearGradient id="e" x1="21.017" x2="24.298" y1="8.058" y2="8.058" gradientTransform="matrix(2.0852 0 0 .7014 -7.4638e-5 1.8951)" gradientUnits="userSpaceOnUse" xlink:href="#a"/>
  <linearGradient id="f" x1="46.389" x2="49.824" y1="17.075" y2="17.075" gradientTransform="matrix(1.9915 0 0 .73437 -7.4638e-5 1.8951)" gradientUnits="userSpaceOnUse" xlink:href="#a"/>
  <linearGradient id="g" x1="44.304" x2="47.586" y1="8.058" y2="8.058" gradientTransform="matrix(2.0853 0 0 .70138 -7.4638e-5 1.8951)" gradientUnits="userSpaceOnUse" xlink:href="#a"/>
  <linearGradient id="h" x1="442.07" x2="508.29" y1="215.17" y2="215.17" gradientTransform="matrix(.42826 0 0 .42826 -42.735 -81.303)" gradientUnits="userSpaceOnUse">
   <stop stop-color="#10253d" offset="0"/>
   <stop stop-color="#004199" offset="1"/>
  </linearGradient>
 </defs>
 <path d="m29.363 1.8951v13.801h13.004v4.6003h-18.144a1.643 1.643 0 0 1-1.643-1.6416v-16.76zm44.14 17.492-7.6233-15.084a1.6591 1.6591 0 0 1 1.4807-2.4074h5.2669l6.144 12.755c0.01609 0.03353 0.0617 0.03219 0.07779 0l5.3326-11.78c0.26824-0.59415 0.85971-0.97505 1.5115-0.97505h6.2272l-8.1679 17.411c-0.28433 0.60354-0.89055 0.98846-1.5585 0.98846h-7.2103c-0.62634 0-1.1977-0.35139-1.4807-0.90933zm49.526-17.047 10.461 10.016v-10.461h6.7408l1e-3 0.00268v16.709a1.6899 1.6899 0 0 1-1.6899 1.6899h-4.6674a1.6497 1.6497 0 0 1-1.1454-0.46405l-11.282-10.689v11.152h-6.7395v-16.778c0-0.89458 0.72424-1.6202 1.6202-1.6202h5.6062c0.41041 0 0.80204 0.1596 1.0944 0.44528zm-102.67 4.0571v-4.5024h-18.687c-0.9214 0-1.6684 0.74705-1.6684 1.6671v2.8353zm-20.351 9.2998v4.6003h18.884c0.92274 0 1.6698-0.74839 1.6698-1.6698v-2.9305zm-0.0040236-7.001h20.083v4.4769h-20.083z" fill="#10253d" fill-rule="evenodd" stroke-width="1.3412"/>
 <path d="m-7.2896e-5 13.173 6.8428 2.5241v-2.5241z" fill="url(#b)" fill-rule="evenodd" stroke-width="1.3412"/>
 <path d="m-7.2896e-5 6.3962 6.8428 2.3015v-2.3015z" fill="url(#c)" fill-rule="evenodd" stroke-width="1.3412"/>
 <path d="m64.177 6.3975v-4.5037h-18.687a1.6684 1.6684 0 0 0-1.6671 1.6671v2.8366zm-20.35 9.2998v4.6003h18.883a1.6698 1.6698 0 0 0 1.6698-1.6698v-2.9305zm-0.0054-7.001h20.083v4.4769h-20.083z" fill="#10253d" fill-rule="evenodd" stroke-width="1.3412"/>
 <path d="m43.825 13.173 6.8414 2.5241v-2.5241z" fill="url(#d)" fill-rule="evenodd" stroke-width="1.3412"/>
 <path d="m43.825 6.3962 6.8414 2.3015v-2.3015z" fill="url(#e)" fill-rule="evenodd" stroke-width="1.3412"/>
 <path d="m112.74 6.3975v-4.5037h-18.687a1.6684 1.6684 0 0 0-1.6671 1.6671v2.8366zm-20.35 9.2998v4.6003h18.884a1.6698 1.6698 0 0 0 1.6684-1.6698v-2.9305zm-4e-3 -7.001h20.082v4.4769h-20.083z" fill="#10253d" fill-rule="evenodd" stroke-width="1.3412"/>
 <path d="m92.393 13.173 6.8428 2.5241v-2.5241z" fill="url(#f)" fill-rule="evenodd" stroke-width="1.3412"/>
 <path d="m92.393 6.3962 6.8428 2.3015v-2.3015z" fill="url(#g)" fill-rule="evenodd" stroke-width="1.3412"/>
 <path d="m149.72 1.0188e-5a3.184 3.184 0 0 0-3.192 3.192v18.999h25.335a3.1853 3.1853 0 0 0 3.192-3.192v-18.999h-21.08z" fill="url(#h)" fill-rule="evenodd" stroke-width="1.3412"/>
 <path d="m169.07 8.1706v-4.2784h-16.619v4.2583h10.088l-5.2119 1.6228 0.65987 2.2022c1.3372-0.21459 2.4973-0.32323 3.4911-0.32323 0.9831 0 1.7596 0.09791 2.3296 0.29506 0.57001 0.19582 0.84496 0.45198 0.82618 0.78594-0.0201 0.4721-0.31518 0.78728-0.88519 0.96432s-1.5437 0.26556-2.9198 0.24544c-1.3868 0-2.3699-0.07913-2.96-0.24544-0.59013-0.16765-0.90531-0.45332-0.94421-0.85568h-5.2803c0.0483 0.74704 0.17704 1.4056 0.38358 1.9568 0.19582 0.54989 0.52039 1.0622 0.95225 1.5142 0.43321 0.45198 0.98444 0.82618 1.6725 1.1011 0.68803 0.28567 1.5343 0.50161 2.5563 0.65853 1.0233 0.15826 2.2224 0.22666 3.5998 0.22666 3.294 0 5.633-0.36346 7.0212-1.1011 1.3761-0.73766 2.0842-2.0158 2.1043-3.8358 0.0188-1.2983-0.35407-2.2411-1.1011-2.842-0.75777-0.59951-1.9581-0.94286-3.6092-1.022z" fill="#fff" stroke-width="1.3412"/>
</svg>
