<svg width="799.58" height="83.873" version="1.1" viewBox="0 0 211.56 22.191" xmlns="http://www.w3.org/2000/svg" xmlns:xlink="http://www.w3.org/1999/xlink">
 <defs>
  <linearGradient id="b" x2="3.436" y1="17.075" y2="17.075" gradientTransform="matrix(1.9915 0 0 .73437 .0013023 1.9045)" gradientUnits="userSpaceOnUse" xlink:href="#a"/>
  <linearGradient id="a">
   <stop stop-color="#10253d" offset="0"/>
   <stop stop-color="#10253d" stop-opacity="0" offset="1"/>
  </linearGradient>
  <linearGradient id="c" x2="3.281" y1="8.058" y2="8.058" gradientTransform="matrix(2.0853 0 0 .70138 .0013023 1.9045)" gradientUnits="userSpaceOnUse" xlink:href="#a"/>
  <linearGradient id="d" x1="22.006" x2="25.441" y1="17.074" y2="17.074" gradientTransform="matrix(1.9914 0 0 .73441 .0013023 1.9045)" gradientUnits="userSpaceOnUse" xlink:href="#a"/>
  <linearGradient id="e" x1="21.017" x2="24.298" y1="8.058" y2="8.058" gradientTransform="matrix(2.0852 0 0 .7014 .0013023 1.9045)" gradientUnits="userSpaceOnUse" xlink:href="#a"/>
  <linearGradient id="f" x1="46.389" x2="49.824" y1="17.075" y2="17.075" gradientTransform="matrix(1.9915 0 0 .73437 .0013023 1.9045)" gradientUnits="userSpaceOnUse" xlink:href="#a"/>
  <linearGradient id="g" x1="44.304" x2="47.586" y1="8.058" y2="8.058" gradientTransform="matrix(2.0853 0 0 .70138 .0013023 1.9045)" gradientUnits="userSpaceOnUse" xlink:href="#a"/>
 </defs>
 <g transform="matrix(.16092 0 0 .16092 -26.45 1.5462e-5)">
  <path class="st8" d="m1074.9 0h157.74l-19.837 137.9h-137.9z" fill="#3df4b4"/>
  <path class="st9" d="m1143.9 24c24.5 0 44.4 20.2 44.4 45h8.9v-54h-53.2v9zm-53.2 45v54h53.2v-9c-24.5 0-44.4-20.2-44.4-45z" fill="#112136"/>
 </g>
 <path d="m29.363 1.8938v13.801h13.004v4.6003h-18.144a1.643 1.643 0 0 1-1.643-1.6416v-16.76zm44.14 17.492-7.622-15.084a1.6591 1.6591 0 0 1 1.4807-2.4074h5.2669l6.144 12.755c0.01618 0.03352 0.06171 0.0322 0.07779 0l5.3326-11.78c0.26824-0.59415 0.85971-0.97505 1.5115-0.97505h6.2272l-8.1679 17.411c-0.28433 0.60354-0.89056 0.98846-1.5585 0.98846h-7.2103c-0.62634 0-1.1977-0.3514-1.4807-0.90933zm49.526-17.047 10.461 10.016v-10.461h6.7408l1e-3 0.0027v16.709a1.6899 1.6899 0 0 1-1.6899 1.6899h-4.6674a1.6497 1.6497 0 0 1-1.145-0.46405l-11.282-10.689v11.152h-6.7395v-16.778c0-0.89457 0.72424-1.6202 1.6202-1.6202h5.6062c0.41041 0 0.80204 0.1596 1.0944 0.44528zm-102.67 4.0558v-4.501h-18.687c-0.9214 0-1.6684 0.74704-1.6684 1.6671v2.8339zm-20.351 9.3012v4.6003h18.884c0.92274 0 1.6698-0.74839 1.6698-1.6698v-2.9305zm-0.0026824-7.001h20.083v4.4769h-20.084z" fill="#10253d" fill-rule="evenodd" stroke-width="1.3412"/>
 <path d="m0.0013023 13.171 6.8428 2.5241v-2.5241z" fill="url(#b)" fill-rule="evenodd" stroke-width="1.3412"/>
 <path d="m0.0013023 6.3975 6.8428 2.3015v-2.3015z" fill="url(#c)" fill-rule="evenodd" stroke-width="1.3412"/>
 <path d="m64.177 6.3948v-4.501h-18.687a1.6684 1.6684 0 0 0-1.6671 1.6671v2.8339zm-20.35 9.3012v4.6003h18.883a1.6698 1.6698 0 0 0 1.6698-1.6698v-2.9305zm-0.0054-7.001h20.083v4.4769h-20.083z" fill="#10253d" fill-rule="evenodd" stroke-width="1.3412"/>
 <path d="m43.818 13.171 6.8414 2.5241v-2.5241z" fill="url(#d)" fill-rule="evenodd" stroke-width="1.3412"/>
 <path d="m43.818 6.3975 6.8414 2.3015v-2.3015z" fill="url(#e)" fill-rule="evenodd" stroke-width="1.3412"/>
 <path d="m112.74 6.3948v-4.501h-18.687a1.6684 1.6684 0 0 0-1.6671 1.6671v2.8339zm-20.35 9.3012v4.6003h18.884a1.6698 1.6698 0 0 0 1.6684-1.6698v-2.9305zm-0.0039-7.001h20.082v4.4769h-20.083z" fill="#10253d" fill-rule="evenodd" stroke-width="1.3412"/>
 <path d="m92.383 13.171 6.8428 2.5241v-2.5241z" fill="url(#f)" fill-rule="evenodd" stroke-width="1.3412"/>
 <path d="m92.383 6.3975 6.8428 2.3015v-2.3015z" fill="url(#g)" fill-rule="evenodd" stroke-width="1.3412"/>
 <g transform="translate(59.468 5.6454)" stroke-width="1.3412">
  <path d="m112.44-5.6454a3.184 3.184 0 0 0-3.192 3.192v18.999h25.335a3.1853 3.1853 0 0 0 3.192-3.192v-18.999h-21.08z" fill="#112136" fill-rule="evenodd"/>
  <path d="m119.74 3.7966c-9e-3 -0.25483 0.12742-0.4721 0.42248-0.64914s0.72827-0.32457 1.3077-0.42248c0.58074-0.097907 1.2876-0.14753 2.1338-0.15692 0.63975 0 1.2004 0.00939 1.6725 0.038895 0.4721 0.040236 0.83557 0.07913 1.0917 0.12741 0.25482 0.059013 0.45198 0.11803 0.6089 0.19716 0.15692 0.077789 0.25483 0.14753 0.29506 0.20654a0.57671 0.57671 0 0 1 0.0791 0.21593c0.0188 0.19716-0.0992 0.35408-0.35407 0.48283-0.25483 0.12741-0.69742 0.23471-1.3466 0.32323-0.64914 0.099248-1.5638 0.17704-2.7441 0.25483-1.4163 0.099248-2.6851 0.30579-3.7956 0.63975-1.1118 0.3353-2.0064 0.73766-2.6743 1.2299-0.67864 0.49222-1.191 1.022-1.5343 1.6027a3.4066 3.4066 0 0 0-0.52172 1.8106v2.9386h18.094v-4.2663h-11.908c0.13814-0.28433 0.57135-0.52038 1.2876-0.70815a14.548 14.548 0 0 1 2.3122-0.37285 83.031 83.031 0 0 0 2.7535-0.28567c1.0032-0.11803 1.7596-0.26556 2.2908-0.42248 1.3278-0.38358 2.2425-0.8758 2.7535-1.4646 0.51099-0.59013 0.73766-1.3479 0.68803-2.2814-0.0778-1.6336-0.87446-2.8031-2.3887-3.5206-1.5155-0.70815-3.7366-1.073-6.6577-1.073-2.9399 0-5.2012 0.51234-6.7757 1.5155-1.5732 1.0019-2.3605 2.3498-2.3605 4.041z" fill="#3df4b4"/>
 </g>
 <g transform="matrix(.44392 0 0 .44392 56.983 4.6234e-7)" fill="#10253d" stroke="#000">
  <g transform="matrix(.70892 0 0 .56718 .11983 -.092884)" stroke-width="1.1085">
   <path transform="scale(.89448 1.118)" d="m503.71 0.14648v16.893h6.7148v-5.8984h12.262v-4.625h-12.262v-1.8516h12.637v-4.5176h-0.62109z" color="#000000" color-rendering="auto" dominant-baseline="auto" fill="#10253d" image-rendering="auto" shape-rendering="auto" solid-color="#000000" stop-color="#000000" stroke="none" style="font-feature-settings:normal;font-variant-alternates:normal;font-variant-caps:normal;font-variant-east-asian:normal;font-variant-ligatures:normal;font-variant-numeric:normal;font-variant-position:normal;font-variation-settings:normal;inline-size:0;isolation:auto;mix-blend-mode:normal;shape-margin:0;shape-padding:0;text-decoration-color:#000000;text-decoration-line:none;text-decoration-style:solid;text-indent:0;text-orientation:mixed;text-transform:none;white-space:normal"/>
  </g>
  <g transform="matrix(.71174 0 0 .56495 .11983 -.064297)" stroke-width="1.072">
   <path transform="scale(.89093 1.1224)" d="m525.24 0.10156v16.893h6.7598v-5.4199h6.6328c1.3072 0 2.0884 0.24744 2.4609 0.57031 0.41067 0.3775 0.68945 0.99931 0.68945 1.9512v1.3066c0 0.36415-0.0161 0.6278 0.0723 0.9082 0.0255 0.0811 0.0445 0.14979 0.0742 0.22852 0.0298 0.07873 0.0479 0.18044 0.2168 0.31445l0.17774 0.14062h6.5976v-0.72852l-0.0996-0.12305c-0.048-0.05714-0.10811-0.1624-0.15234-0.35547l-2e-3 -0.0039v-0.0039c-0.0313-0.12407-0.0703-0.56001-0.0703-1.1484v-1.6504c0-1.2451-0.4472-2.2967-1.3086-3.0781l-6e-3 -0.00391-8e-3 -0.00586c-0.52407-0.44468-1.1921-0.77372-1.9258-1.0449 0.65906-0.25685 1.2635-0.56874 1.7578-0.97461 0.89164-0.73215 1.3555-1.71 1.3555-2.8184v-0.2129c0-0.4921-0.12047-0.9786-0.28711-1.5078v-0.00391l-2e-3 -0.00195c-0.19597-0.59627-0.64837-1.1472-1.3106-1.625-0.68368-0.49334-1.6023-0.86078-2.7891-1.1523-1.2195-0.2996-2.7857-0.44922-4.7148-0.44922zm6.7598 4.4688h7.1445c0.49962 0 0.94244 0.041843 1.2402 0.10938 0.30504 0.06918 0.51977 0.16752 0.65821 0.26367 0.12989 0.090224 0.20473 0.18996 0.28515 0.32812 0.0615 0.17123 0.10352 0.32859 0.10352 0.46875v0.042969c0 0.16897-0.0415 0.32696-0.10547 0.50195-0.0806 0.1554-0.15047 0.24765-0.2832 0.33984-0.13844 0.09615-0.35317 0.19449-0.65821 0.26367-0.29779 0.067532-0.74061 0.10938-1.2402 0.10938h-7.1445z" color="#000000" color-rendering="auto" dominant-baseline="auto" fill="#10253d" image-rendering="auto" shape-rendering="auto" solid-color="#000000" stop-color="#000000" stroke="none" style="font-feature-settings:normal;font-variant-alternates:normal;font-variant-caps:normal;font-variant-east-asian:normal;font-variant-ligatures:normal;font-variant-numeric:normal;font-variant-position:normal;font-variation-settings:normal;inline-size:0;isolation:auto;mix-blend-mode:normal;shape-margin:0;shape-padding:0;text-decoration-color:#000000;text-decoration-line:none;text-decoration-style:solid;text-indent:0;text-orientation:mixed;text-transform:none;white-space:normal"/>
  </g>
 </g>
</svg>
