<svg width="2567.1pt" height="2036.8pt" version="1.1" viewBox="0 0 2567.1 2036.8" xmlns="http://www.w3.org/2000/svg">
 <path d="m52.94 1279h1479.3c27.288 0 41.003 15.836 41.003 44.961 0 118.06 0.9894 570.22 0.9894 666.22 0 25.025-9.0486 41.002-41.992 41.002h-1153.7c-218.44 0-378.5-182.81-378.5-362.24v-344.99c0-30.681 11.594-44.961 52.879-44.961" fill="#e75f72" fill-rule="evenodd" stroke-width="16.165"/>
 <path d="m2551.5 888.76s-0.5652 185.42-61.714 246.43c-51.948 51.947-106.58 56.76-196.32 56.76v-591.79s61.997-4.3881 91.862 25.478c47.418 47.418 52.088 107.86 52.088 191.51h16.277v-453.51h-16.277c0 83.512-4.6713 144.09-52.088 191.36-29.866 30.008-91.862 25.479-91.862 25.479v-562.08c89.739 0 132.34 4.9544 184.29 56.76 61.007 61.007 61.714 246.43 61.714 246.43h15.429v-321.59h-497.95v17.552h92.146v1175.4h-92.146v17.552h510.14v-321.73zm-756.42 246.43c-51.948 51.947-106.72 56.76-196.32 56.76v-1173.8h84.079v-18.118h-320.6v17.552h92.146v1175.4h-92.146v17.552h509.99v-321.73h-15.428s-0.7073 185.42-61.714 246.43m-676.3 0c-51.947 51.947-106.58 56.76-196.32 56.76v-1173.8h84.078v-18.118h-320.6v17.552h92.146v1175.4h-92.146v17.552h509.99v-321.73h-15.428s-0.5652 185.42-61.714 246.43m-685.64 0c-51.947 51.947-106.72 56.76-196.32 56.76v-591.79s61.854-4.3881 91.862 25.478c47.277 47.418 51.948 107.86 51.948 191.51h16.278v-453.51h-16.278c0 83.512-4.6712 144.09-51.948 191.36-30.008 30.008-91.862 25.479-91.862 25.479v-562.08c89.598 0 132.2 4.9544 184.15 56.76 61.147 61.007 61.714 246.43 61.714 246.43h15.57v-321.59h-497.95v17.552h92.005v1175.4h-92.005v17.552h509.99v-321.73h-15.429s-0.7074 185.42-61.714 246.43" fill="#fff" fill-rule="evenodd" stroke-width="16.183"/>
 <path d="m1610.6 1310.1v58.408h185.77v629.86h65.205v-629.86h157.08l261.41 668.29 283.75-726.69h-70.871l-212.88 556.39-212.89-556.39z" fill="#fff"/>
 <g transform="translate(-78.4 2452.3)" fill="#fff" stroke-width="16.165">
  <path d="m1443.5-495.2v-646.99h-46.659v688.27l230.17-3e-5v-41.285z"/>
  <path d="m1030.1-820.25v-280.8h59.808c47.788 0 82.57 7.3527 110.85 20.643 39.022 19.653 64.049 66.17 64.049 119.75 0 89.782-59.808 140.4-165.14 140.4zm163.02 28.843c72.815-19.511 119.47-85.68 119.47-168.25 0-63.906-26.016-115.51-72.815-147.47-38.033-24.742-79.318-35.063-153.12-35.063h-103.21v688.27h46.659v-325.05h21.774l232.44 325.05h57.546l-236.69-325.05c47.788-2.1209 59.664-4.1003 87.944-12.442"/>
  <path d="m882.98-453.91h46.8v-690.39h-46.8z"/>
  <path d="m525.91-742.9h255.34c-3.2516 65.038-9.7551 89.781-32.661 125.98-48.78 77.34-160.76 133.05-266.09 133.05-177.02 0-325.9-141.39-325.9-310.63 0-171.22 151-314.73 329.15-314.73 74.936 0 152.13 25.874 208.54 72.249 23.895 19.653 35.912 33.085 68.431 75.359l38.032-28.984c-39.022-46.375-55.424-62.917-86.953-86.67-64.049-48.497-144.36-74.228-226.92-74.228-207.56 0-378.07 159.91-378.07 355.03 0 193.98 169.38 353.9 374.82 353.9 104.2 0 208.54-43.264 275.86-115.51 53.304-56.838 71.684-114.52 71.684-219.86v-6.2211h-305.26z"/>
 </g>
</svg>
