<svg enable-background="new 0 0 522.7 421.8" version="1.1" viewBox="0 0 522.7 421.8" xml:space="preserve" xmlns="http://www.w3.org/2000/svg">
<g fill="#fff">
	<path d="m133.9 315.8h18.8l-2.5 7.8c8.2-6.5 16.4-9.8 24.2-9.8 6.5 0 11.5 2 14.7 6.5 3.7 4.1 4.5 9.4 3.7 16-0.8 2.9-2 7.8-3.7 13.5l-13.5 43h-18.8l13.5-41.8c1.2-4.5 2-7.8 2.5-9.4 0.8-3.3 0-5.3-1.2-7-1.6-1.6-3.7-2.5-7-2.5s-6.5 0.8-9.8 3.3c-3.7 2-6.5 4.9-9 9.4-2.5 3.7-5.3 11.1-8.6 21.7l-8.6 27h-18.8l24.1-77.7zm120.7 54 14.7 8.6c-4.5 4.9-10.2 8.6-16.8 11.5s-13.5 4.1-20.9 4.1c-11.9 0-20.5-3.3-25.8-9.8s-7.3-15.2-4.8-26.2c2-12.3 8.6-22.9 18.4-31.5s20.9-13.1 32.7-13.1c7 0 13.5 1.6 18 4.9 4.9 3.3 8.6 7.8 10.6 13.5s2.5 12.3 1.2 19.2c-0.4 2-0.8 4.9-2 7.8h-61c-0.8 5.3 0.4 9.4 2.9 12.7 2.9 3.3 7 4.9 12.7 4.9 7 0.4 13.6-1.6 20.1-6.6zm9-24.1c-0.8-4.9-2-8.2-4.9-10.6-2.9-2.5-6.5-3.7-11.1-3.7-4.5 0-9 1.2-13.1 3.7s-7.8 6.1-10.6 10.6h39.7zm43.8-29.9h16.8l-3.3 10.6c6.5-8.2 13.5-12.3 20.5-12.3 1.6 0 3.7 0.4 4.9 1.2l-9.8 16.8c-1.2-0.4-2-0.8-2.9-0.8-3.7 0-7.4 2-10.6 6.5-3.7 4.1-7.4 12.7-11.5 25.8l-9 28.7h-18.8l23.7-76.5zm106 0-2.9 9.4c-2.5-4.1-5.3-6.5-9-8.6-3.3-1.6-7-2.5-11.1-2.5-7 0-14.3 2-21.7 5.7s-13.5 9.4-18.4 16-8.2 13.5-9.4 21.3c-1.2 6.5-0.8 12.7 0.8 18 2 5.3 4.9 9.8 9.4 12.7 4.5 3.3 9.8 4.5 16 4.5 8.6 0 16.8-3.3 25-9.4-2 5.3-3.7 9.4-6.1 12.3-2 2.9-5.3 4.9-9 6.5s-7.8 2.5-11.9 2.5c-7.8 0-13.5-2.5-17.6-7.8l-17.6 8.6c2 4.9 5.7 9 11.1 11.9 5.3 3.3 11.9 4.9 20.1 4.9 9.8 0 18-2 25.4-6.1s12.7-9.4 16.4-15.1c2.5-3.7 5.7-11.9 9.4-24.2l19.6-61-18.5 0.4zm-25.3 16c5.7 0 9.8 2 12.7 5.3 2.9 3.7 3.7 7.8 2.9 13.5-0.8 4.5-2.9 9-5.7 12.7-2.9 3.7-6.5 7-10.6 9.4-4.1 2.5-8.2 3.3-12.7 3.3-5.7 0-10.2-1.6-13.1-4.9-2.9-3.7-3.7-7.8-2.5-13.5 1.2-7 4.9-12.7 10.2-17.6 6.1-6.2 12.2-8.2 18.8-8.2zm54.4-16h18.4l6.5 45.4 34.8-45.4h20.5l-79.4 104h-19.6l29.1-38.5-10.3-65.5z"/>
	<path d="m93.7 316.6h-36.8l7.8-25h-32.8l-31.9 99.9h72.4c13.9 0 22.1-7.4 25-16l3.7-9.8h-59.8l7.8-25h37.3l7.3-24.1z"/>
	<path d="m38.9 270.8c3.3-9.4 11.5-17.2 25.8-17.2h64.7l-1.2 4.5c-1.6 5.3-10.2 23.3-29.1 23.3h-63.5l3.3-10.6z"/>
</g>
<path d="m269.3 0c-76.9 0-139.2 62.3-139.2 139.2s62.3 139.2 139.2 139.2 139.2-62.3 139.2-139.2-62.3-139.2-139.2-139.2z" fill="#fff"/>
<path d="m284.3 188.7c-2.9 8.6-11.1 16-25 16h-72.4l31.9-99.9h32.7l-7.8 25h36.8l-7.4 24.2h-37.1l-7.8 25h59.8zm1.6-94.2h-63.4l3.3-10.6c3.3-9.4 11.5-17.2 25.8-17.2h64.7l-1.2 4.5c-1.7 5.3-10.3 23.3-29.2 23.3zm44.9 110.2c-9.2 0-16.7-7.5-16.7-16.7s7.5-16.7 16.7-16.7 16.7 7.5 16.7 16.7-7.5 16.7-16.7 16.7z"/></svg>
