<svg version="1.1" viewBox="0 0 5103.3 935.1" xmlns="http://www.w3.org/2000/svg">
 <g transform="matrix(110.65 0 0 -110.65 4955.6 .27271)" fill="#ffb400">
  <path d="m0 0c-0.336-1.016-1.293-1.714-2.374-1.714l-0.311-1.219h1.466l-1.045-3.895h1.745l1.854 6.828h-1.335" fill="#ffb400"/>
 </g>
 <g fill="#fff">
  <g transform="matrix(111.27 0 0 -111.27 3829.1 757.27)">
   <path d="m0 0 0.327 1.219h4.332c0.205 0 0.396 0.167 0.425 0.373 0.014 0.102-0.015 0.204-0.081 0.279-0.06 0.069-0.142 0.107-0.232 0.107h-2.771c-0.425 0-0.795 0.162-1.041 0.455-0.247 0.294-0.342 0.687-0.266 1.108 0.172 0.963 0.984 1.573 1.852 1.573h4.53l-0.326-1.219h-4.392c-0.19 0-0.364-0.153-0.423-0.372-0.023-0.089-5e-3 -0.178 0.051-0.252 0.06-0.078 0.155-0.124 0.253-0.124h2.786c0.426 0 0.795-0.162 1.041-0.457 0.245-0.294 0.33-0.688 0.26-1.112-0.158-0.951-0.896-1.578-1.869-1.578h-4.456" fill="#fff"/>
  </g>
  <g transform="matrix(110.65 0 0 -110.65 3273.2 189.79)">
   <path d="m0 0c-1.52 0-2.152-0.786-2.569-2.346l-0.743-2.768h1.318l0.736 2.768c0.156 0.584 0.531 1.127 1.258 1.127h1.549l0.321 1.219h-1.87" fill="#fff"/>
  </g>
  <g transform="matrix(110.65 0 0 -110.65 3908.4 189.79)">
   <path d="m0 0h-2.039l0.459 1.715h-1.317l-1.83-6.829h1.317l1.043 3.896h2.041l0.326 1.218" fill="#fff"/>
  </g>
  <g transform="matrix(110.65 0 0 -110.65 2021.4 437.53)">
   <path d="m0 0-0.191-0.714c-0.135-0.502-0.58-0.942-1.2-0.942h-2.474l0.717 2.676h2.44c0.867 0 0.771-0.791 0.708-1.02zm-0.708 2.239h-3.431l-1.805-6.736h1.318l0.435 1.622h2.8c1.203 0 2.119 0.759 2.413 1.845l0.192 0.714c0.291 1.08-9e-3 2.555-1.922 2.555" fill="#fff"/>
  </g>
  <g transform="matrix(110.65 0 0 -110.65 2786.5 437.53)">
   <path d="m0 0-0.191-0.714c-0.135-0.502-0.58-0.942-1.2-0.942h-1.88c-0.867 0-0.771 0.79-0.708 1.02l0.191 0.714c0.134 0.502 0.6 0.942 1.2 0.942h1.879c0.868 0 0.772-0.791 0.709-1.02zm-0.709 2.239h-1.879c-1.127 0-2.119-0.759-2.414-1.846l-0.191-0.714c-0.292-1.08-0.022-2.554 1.922-2.554h1.88c1.203 0 2.119 0.759 2.413 1.845l0.192 0.714c0.291 1.08-9e-3 2.555-1.923 2.555" fill="#fff"/>
  </g>
  <path d="m855.61 58.062c48.88-38.92 111.61-59.707 174.05-57.96h490.25l-38.573 143.83h-487.61c-16.093-0.0933-32.093 4.74-45.627 13.42-21.44 13.6-36.773 35.707-43.933 59.893-3.92 12.48-4.4533 26.067-0.88 38.693 6.6267 24.307 27 43.987 51.24 50.507 11.853 3.5467 24.307 2.5 36.493 2.6466h241.39c42.4 0.50667 85.453 13.433 118.59 40.473 18.8 15.24 34.28 34.64 44.693 56.507 12.493 25.867 17.707 54.84 17.36 83.44-0.3866 27.64-5.5733 55.093-13.8 81.44-13.8 43.853-38.467 84.533-72.467 115.64-33.067 30.56-74.547 51.493-118.36 61.453-24.467 5.64-49.627 7.8867-74.707 7.42h-480.35l38.653-143.73h481.75c43.773-0.92 83.187-37.507 88.08-80.893 2.64-22.773-4.9466-46.693-20.84-63.32-11.347-11.907-26.813-19.907-43.187-21.84-9.32-1.08-18.72-0.42001-28.067-0.59335h-232.12c-33.76 0.28-67.893-6.9934-97.653-23.193-31.52-16.933-57.427-44.187-72.347-76.747-13.253-28.453-18.213-60.4-16.16-91.613 5.4533-75.88 44.28-148.57 104.13-195.48z" stroke-width="1.3333"/>
  <path d="m159.78 231.61c37.653-23.867 81.453-37.92 125.92-40.667 11.547-0.81333 23.133-0.42001 34.693-0.51335h229.29c28.88 0.34666 58.093 7.66 82.493 23.433 20.72 13.227 37.48 32.493 47.867 54.76 12.68 26.787 16.147 57.24 12.947 86.507-4.84 41.747-21.12 82.52-48.253 114.81-24.6 29.507-58.213 51.133-94.973 62.067-25.44 7.8267-52.213 10.32-78.733 9.5867l-275.96 0.0133c-12.56 0.16-25.413 4.6533-34.213 13.867-9.5733 9.6933-13.907 23.453-14.6 36.813-0.76 13 8.4933 25.653 20.933 29.267 4.24 1.4533 8.7734 0.97998 13.173 1.0466h431.08l-35.707 132.39h-398.08c-27.533 0.36-55.68 0.20664-82.053-8.7533-43.72-13.853-79.027-51.173-90.72-95.48-6-22.467-6-46.173-2.5734-69.053 9.36-61.533 24.24-122.29 45.347-180.88 14.653-39.627 30.213-79.627 55.133-114.11 15.493-21.573 34.64-40.653 56.987-55.107m131.44 101.41c-14.2 2.7733-27.053 10.013-39.36 17.347-20.587 12.827-37.147 31.62-48.507 52.967h295.63c18.2 0.0267 37.2-8.66 45.973-25.167 5.7867-10.96 8.4933-25.213 1.8267-36.4-5.44-8.9867-16.307-12.907-26.4-13.013-53.733-1.6933-107.52-2.5867-161.28-1.1733-22.68 0.82667-45.493 1.5067-67.88 5.44z" stroke-width="1.3333"/>
 </g>
</svg>
