<svg enable-background="new 0 0 165.109 126.582" version="1.1" viewBox="0 0 800 614.04" xml:space="preserve" xmlns="http://www.w3.org/2000/svg"><defs><linearGradient id="t" x1="449.98" x2="449.98" y1="96.65" y2="39.506" gradientTransform="matrix(1 0 0 -1 .04 125.8)" gradientUnits="userSpaceOnUse"><stop stop-color="#FFEC00" offset="0"/><stop stop-color="#F6A500" offset="1"/></linearGradient><linearGradient id="m" x1="449.98" x2="449.98" y1="96.65" y2="39.506" gradientTransform="matrix(1 0 0 -1 .04 125.8)" gradientUnits="userSpaceOnUse"><stop stop-color="#FAB900" offset="0"/><stop stop-color="#F29100" offset="1"/></linearGradient><linearGradient id="k" x1="449.98" x2="449.98" y1="96.65" y2="39.506" gradientTransform="matrix(1 0 0 -1 .04 125.8)" gradientUnits="userSpaceOnUse"><stop stop-color="#FFEC00" offset="0"/><stop stop-color="#FCC200" offset="1"/></linearGradient><linearGradient id="i" x1="235.13" x2="235.13" y1="84.909" y2="39.869" gradientTransform="matrix(1 0 0 -1 .04 125.8)" gradientUnits="userSpaceOnUse"><stop stop-color="#554930" offset=".1374"/><stop stop-color="#1D1800" offset="1"/></linearGradient><linearGradient id="g" x1="381.8" x2="381.8" y1="84.909" y2="39.866" gradientTransform="matrix(1 0 0 -1 .04 125.8)" gradientUnits="userSpaceOnUse"><stop stop-color="#554930" offset=".1374"/><stop stop-color="#1D1800" offset="1"/></linearGradient><linearGradient id="e" x1="411.54" x2="411.54" y1="84.909" y2="39.868" gradientTransform="matrix(1 0 0 -1 .04 125.8)" gradientUnits="userSpaceOnUse"><stop stop-color="#554930" offset=".1374"/><stop stop-color="#1D1800" offset="1"/></linearGradient><linearGradient id="c" x1="349.51" x2="349.51" y1="84.909" y2="39.866" gradientTransform="matrix(1 0 0 -1 .04 125.8)" gradientUnits="userSpaceOnUse"><stop stop-color="#554930" offset=".1374"/><stop stop-color="#1D1800" offset="1"/></linearGradient><linearGradient id="b" x1="309.01" x2="309.01" y1="84.909" y2="39.869" gradientTransform="matrix(1 0 0 -1 .04 125.8)" gradientUnits="userSpaceOnUse"><stop stop-color="#554930" offset=".1374"/><stop stop-color="#1D1800" offset="1"/></linearGradient><linearGradient id="a" x1="273.16" x2="273.16" y1="84.91" y2="39.87" gradientTransform="matrix(1 0 0 -1 .04 125.8)" gradientUnits="userSpaceOnUse"><stop stop-color="#554930" offset=".1374"/><stop stop-color="#1D1800" offset="1"/></linearGradient><linearGradient id="ae" x1="296.58" x2="324.26" y1="77.136" y2="38.885" gradientTransform="matrix(1 0 0 -1 .04 125.8)" gradientUnits="userSpaceOnUse"><stop stop-color="#978059" offset="0"/><stop stop-color="#907A54" offset=".1444"/><stop stop-color="#7B6945" offset=".3596"/><stop stop-color="#5A4C2D" offset=".6188"/><stop stop-color="#2D250B" offset=".9101"/><stop stop-color="#1D1800" offset="1"/></linearGradient><linearGradient id="ad" x1="314.8" x2="310.89" y1="48.73" y2="48.73" gradientTransform="matrix(1 0 0 -1 .04 125.8)" gradientUnits="userSpaceOnUse"><stop stop-color="#6D5F1D" offset="0"/><stop stop-color="#675A1B" offset=".0434"/><stop stop-color="#473D0F" offset=".302"/><stop stop-color="#302907" offset=".5514"/><stop stop-color="#221C02" offset=".7857"/><stop stop-color="#1D1800" offset=".989"/></linearGradient><linearGradient id="ac" x1="336.66" x2="363.43" y1="77.674" y2="39.419" gradientTransform="matrix(1 0 0 -1 .04 125.8)" gradientUnits="userSpaceOnUse"><stop stop-color="#978059" offset="0"/><stop stop-color="#907A54" offset=".1444"/><stop stop-color="#7B6945" offset=".3596"/><stop stop-color="#5A4C2D" offset=".6188"/><stop stop-color="#2D250B" offset=".9101"/><stop stop-color="#1D1800" offset="1"/></linearGradient><linearGradient id="ab" x1="346.73" x2="346.73" y1="48.895" y2="49.952" gradientTransform="matrix(1 0 0 -1 .04 125.8)" gradientUnits="userSpaceOnUse"><stop stop-color="#6D5F1D" offset="0"/><stop stop-color="#1D1800" offset=".989"/></linearGradient><linearGradient id="aa" x1="353.37" x2="349.81" y1="69.7" y2="69.7" gradientTransform="matrix(1 0 0 -1 .04 125.8)" gradientUnits="userSpaceOnUse"><stop stop-color="#6D5F1D" offset="0"/><stop stop-color="#1D1800" offset=".989"/></linearGradient><linearGradient id="z" x1="218.24" x2="248.28" y1="83.743" y2="39.354" gradientTransform="matrix(1 0 0 -1 .04 125.8)" gradientUnits="userSpaceOnUse"><stop stop-color="#978059" offset="0"/><stop stop-color="#907A54" offset=".1444"/><stop stop-color="#7B6945" offset=".3596"/><stop stop-color="#5A4C2D" offset=".6188"/><stop stop-color="#2D250B" offset=".9101"/><stop stop-color="#1D1800" offset="1"/></linearGradient><linearGradient id="y" x1="228.37" x2="258.41" y1="90.039" y2="45.648" gradientTransform="matrix(1 0 0 -1 .04 125.8)" gradientUnits="userSpaceOnUse"><stop stop-color="#978059" offset="0"/><stop stop-color="#907A54" offset=".1444"/><stop stop-color="#7B6945" offset=".3596"/><stop stop-color="#5A4C2D" offset=".6188"/><stop stop-color="#2D250B" offset=".9101"/><stop stop-color="#1D1800" offset="1"/></linearGradient><linearGradient id="x" x1="221.84" x2="250.81" y1="83.704" y2="40.907" gradientTransform="matrix(1 0 0 -1 .04 125.8)" gradientUnits="userSpaceOnUse"><stop stop-color="#978059" offset="0"/><stop stop-color="#907A54" offset=".1444"/><stop stop-color="#7B6945" offset=".3596"/><stop stop-color="#5A4C2D" offset=".6188"/><stop stop-color="#2D250B" offset=".9101"/><stop stop-color="#1D1800" offset="1"/></linearGradient><linearGradient id="w" x1="261.78" x2="295.45" y1="84.748" y2="46.087" gradientTransform="matrix(1 0 0 -1 .04 125.8)" gradientUnits="userSpaceOnUse"><stop stop-color="#978059" offset="0"/><stop stop-color="#907A54" offset=".1444"/><stop stop-color="#7B6945" offset=".3596"/><stop stop-color="#5A4C2D" offset=".6188"/><stop stop-color="#2D250B" offset=".9101"/><stop stop-color="#1D1800" offset="1"/></linearGradient><linearGradient id="v" x1="279.77" x2="279.77" y1="68.362" y2="61.934" gradientTransform="matrix(1 0 0 -1 .04 125.8)" gradientUnits="userSpaceOnUse"><stop stop-color="#978059" offset="0"/><stop stop-color="#907A54" offset=".1444"/><stop stop-color="#7B6945" offset=".3596"/><stop stop-color="#5A4C2D" offset=".6188"/><stop stop-color="#2D250B" offset=".9101"/><stop stop-color="#1D1800" offset="1"/></linearGradient><linearGradient id="s" x1="243.85" x2="278" y1="69.28" y2="30.063" gradientTransform="matrix(1 0 0 -1 .04 125.8)" gradientUnits="userSpaceOnUse"><stop stop-color="#978059" offset="0"/><stop stop-color="#907A54" offset=".1444"/><stop stop-color="#7B6945" offset=".3596"/><stop stop-color="#5A4C2D" offset=".6188"/><stop stop-color="#2D250B" offset=".9101"/><stop stop-color="#1D1800" offset="1"/></linearGradient><linearGradient id="r" x1="290.93" x2="319.44" y1="73.899" y2="35.819" gradientTransform="matrix(1 0 0 -1 .04 125.8)" gradientUnits="userSpaceOnUse"><stop stop-color="#978059" offset="0"/><stop stop-color="#907A54" offset=".1444"/><stop stop-color="#7B6945" offset=".3596"/><stop stop-color="#5A4C2D" offset=".6188"/><stop stop-color="#2D250B" offset=".9101"/><stop stop-color="#1D1800" offset="1"/></linearGradient><linearGradient id="q" x1="335.24" x2="363.85" y1="78.418" y2="40.241" gradientTransform="matrix(1 0 0 -1 .04 125.8)" gradientUnits="userSpaceOnUse"><stop stop-color="#978059" offset="0"/><stop stop-color="#907A54" offset=".1444"/><stop stop-color="#7B6945" offset=".3596"/><stop stop-color="#5A4C2D" offset=".6188"/><stop stop-color="#2D250B" offset=".9101"/><stop stop-color="#1D1800" offset="1"/></linearGradient><linearGradient id="p" x1="372.06" x2="392.43" y1="78.612" y2="38.438" gradientTransform="matrix(1 0 0 -1 .04 125.8)" gradientUnits="userSpaceOnUse"><stop stop-color="#978059" offset="0"/><stop stop-color="#907A54" offset=".1444"/><stop stop-color="#7B6945" offset=".3596"/><stop stop-color="#5A4C2D" offset=".6188"/><stop stop-color="#2D250B" offset=".9101"/><stop stop-color="#1D1800" offset="1"/></linearGradient><linearGradient id="o" x1="400.88" x2="424.67" y1="79.966" y2="40.931" gradientTransform="matrix(1 0 0 -1 .04 125.8)" gradientUnits="userSpaceOnUse"><stop stop-color="#978059" offset="0"/><stop stop-color="#907A54" offset=".1444"/><stop stop-color="#7B6945" offset=".3596"/><stop stop-color="#5A4C2D" offset=".6188"/><stop stop-color="#2D250B" offset=".9101"/><stop stop-color="#1D1800" offset="1"/></linearGradient>
		<radialGradient id="j" cx="18.307" cy="120.19" r="124.88" gradientTransform="matrix(4.8615 0 0 -4.8615 -1.1476 610.22)" gradientUnits="userSpaceOnUse">
		<stop stop-color="#E9BC00" offset="0"/>
		<stop stop-color="#C0900A" offset="1"/>
	</radialGradient>
		<radialGradient id="h" cx="116.79" cy="79.704" r="14.043" gradientTransform="matrix(4.8615 0 0 -4.8615 -1.1476 610.22)" gradientUnits="userSpaceOnUse">
		<stop stop-color="#E9BC00" offset=".4121"/>
		<stop stop-color="#C0900A" offset="1"/>
	</radialGradient>
		<radialGradient id="d" cx="71.785" cy="77.22" r="44.626" gradientTransform="matrix(4.8615 0 0 -4.8615 -1.1476 610.22)" gradientUnits="userSpaceOnUse">
		<stop stop-color="#E9BC00" offset=".4066"/>
		<stop stop-color="#B6720A" offset=".8846"/>
	</radialGradient>
</defs>
<g transform="matrix(4.8615 0 0 4.8615 -1.3421 -1.3466)">
			<path d="m128.36 29.829 32.966-28.023h-130.34c-9.452 0-17.824 7.066-19.485 16.437l-8.816 48.743c-1.1 5.789 0.285 11.55 3.804 15.808 3.545 4.289 8.991 6.749 14.941 6.749h92.313c5.618 0 11.182-2.107 15.661-5.934 4.439-3.793 7.424-8.936 8.401-14.479l2.647-14.988c1.216-6.905-0.552-13.8-4.848-18.916-1.998-2.384-4.545-4.144-7.239-5.397zm5.278 23.114-2.647 14.984c-1.445 8.195-9.022 14.701-17.253 14.701h-92.298c-8.108 7e-3 -13.49-6.416-11.96-14.378l8.823-48.791c1.062-6.022 6.629-10.739 12.678-10.739h111.53l-29.957 25.467 4.23-0.025c4.839 0 10.576 2.008 13.514 5.508 2.982 3.551 4.196 8.388 3.337 13.273z"/>
	</g><g transform="matrix(4.8615 0 0 4.8615 -1.3421 -1.3466)">
				<radialGradient id="u" cx="12.589" cy="127.38" r="119.17" gradientTransform="matrix(1 0 0 -1 .04 125.8)" gradientUnits="userSpaceOnUse">
				<stop stop-color="#584F32" offset=".1374"/>
				<stop offset="1"/>
			</radialGradient>
			<path d="m130.72 29.277 34.116-29h-134.89c-9.777 0-18.443 7.311-20.161 17.009l-9.123 50.443c-1.138 5.991 0.294 11.953 3.935 16.358 3.669 4.438 9.306 6.983 15.466 6.983h95.526c5.814 0 11.571-2.18 16.207-6.141 4.596-3.923 7.684-9.246 8.694-14.982l2.74-15.51c1.259-7.146-0.571-14.281-5.018-19.575-2.067-2.466-4.702-4.289-7.491-5.585zm5.462 23.919-2.74 15.507c-1.494 8.48-9.336 15.212-17.854 15.212h-95.514c-8.389 8e-3 -13.959-6.638-12.377-14.877l9.132-50.492c1.098-6.231 6.859-11.113 13.116-11.113h115.42l-31.001 26.354 4.38-0.026c5.006 0 10.945 2.078 13.984 5.701 3.086 3.674 4.341 8.68 3.452 13.734z" fill="url(#u)"/>
	</g><g transform="matrix(4.8615 0 0 4.8615 -1.3421 -1.3466)">
			<radialGradient id="n" cx="53.897" cy="82.199" r="83.464" gradientTransform="matrix(1 0 0 -1 .04 125.8)" gradientUnits="userSpaceOnUse">
			<stop stop-color="#FEEE00" offset="0"/>
			<stop stop-color="#F1CF00" offset="1"/>
		</radialGradient>
		<path d="m142.51 8.721h-111.53c-6.049 0-11.616 4.717-12.678 10.739l-8.823 48.79c-1.529 7.962 3.853 14.384 11.961 14.377h92.297c8.229 0 15.808-6.506 17.253-14.701l2.647-14.984c0.858-4.885-0.354-9.722-3.337-13.272-2.938-3.5-8.675-5.508-13.514-5.508l-4.23 0.025z" fill="url(#n)"/>
	</g><g transform="matrix(4.8615 0 0 4.8615 -1.3421 -1.3466)">
				<radialGradient id="l" cx="109.7" cy="92.803" r="52.869" gradientTransform="matrix(1 0 0 -1 .04 125.8)" gradientUnits="userSpaceOnUse">
				<stop stop-color="#776848" offset="0"/>
				<stop stop-color="#746648" offset=".1401"/>
				<stop stop-color="#6A6049" offset=".3488"/>
				<stop stop-color="#595346" offset=".6003"/>
				<stop stop-color="#32302E" offset=".8828"/>
				<stop offset="1"/>
			</radialGradient>
			<polygon points="114.34 33.847 114.78 33.847 145.82 7.433 145.4 7.433" fill="url(#l)"/>
	</g><path d="m149.26 41.051c-29.407 0-56.472 22.932-61.635 52.208l-42.893 237.19c-5.581 29.101 7.8028 53.963 31.561 64.503-4.1129-10.263-5.3234-22.183-2.8829-34.916l42.898-237.2c5.1678-29.271 32.237-52.203 61.625-52.203h478.74l34.804-29.587z" fill="url(#j)" stroke-width="4.8615"/><path d="m641.57 206.01c-1.2689-2.5572-2.6836-5.0366-4.2344-7.4284-0.0194-0.0292-0.0438-0.0632-0.0632-0.0972-0.70978-1.0987-1.4585-2.1585-2.2314-3.2135-0.0875-0.11668-0.16529-0.24308-0.2528-0.35976-0.86049-1.157-1.7453-2.2898-2.6836-3.3934-0.45213-0.53963-0.91397-1.0744-1.3904-1.5994-0.15071-0.16529-0.31114-0.32572-0.47643-0.49101-0.33059-0.3549-0.66603-0.71465-1.0112-1.0647-0.17988-0.18474-0.36948-0.35489-0.54936-0.53477-0.32572-0.32572-0.66603-0.65631-1.0063-0.97717-0.18473-0.17988-0.38892-0.35003-0.58338-0.52505-0.34517-0.316-0.70006-0.632-1.0598-0.94313-0.17501-0.1653-0.37433-0.32087-0.56393-0.48616-0.3792-0.31114-0.74868-0.632-1.1279-0.94314-0.18474-0.14584-0.3792-0.28683-0.55422-0.43267-0.41323-0.316-0.81187-0.64173-1.23-0.95287-0.17015-0.1264-0.33544-0.24793-0.5056-0.37433-0.44726-0.32087-0.89452-0.64659-1.3418-0.96745-0.14585-0.10209-0.30628-0.20905-0.46671-0.316-0.47643-0.32572-0.95286-0.65631-1.4439-0.97231-0.13126-0.0924-0.2771-0.17501-0.40836-0.26252-0.51047-0.33059-1.0355-0.66603-1.5606-0.98689-0.11181-0.0729-0.23335-0.14099-0.34517-0.21391-0.54935-0.33059-1.1133-0.66117-1.687-0.98689-0.10209-0.0535-0.1896-0.10696-0.28683-0.1653-0.58825-0.33544-1.1814-0.66603-1.7842-0.98689-0.0924-0.0437-0.15557-0.0827-0.24307-0.1264-0.62714-0.32572-1.2591-0.65631-1.896-0.97231-0.0583-0.0292-0.11667-0.0583-0.17501-0.0875-0.66117-0.33059-1.3175-0.65145-1.9835-0.96259-0.0486-0.0195-0.0972-0.0437-0.13126-0.0632-0.69034-0.32086-1.3807-0.632-2.0807-0.93828-0.034-0.01-0.0632-0.0243-0.0875-0.034-0.70978-0.31114-1.4293-0.61255-2.1439-0.9091-0.0243-5e-3 -0.0438-0.01-0.0681-0.0243-0.72437-0.29656-1.4633-0.58339-2.2023-0.86049-11.429-4.317-23.87-6.6214-35.3-6.6214l-18.226 0.10695 26.345 29.597 20.569-0.12154c15.299 5e-3 32.422 4.1323 46.471 11.692z" fill="url(#h)" stroke-width="4.8615"/><g transform="matrix(4.8615 0 0 4.8615 -1.3421 -1.3466)">
				<radialGradient id="f" cx="75.104" cy="89.207" r="28.383" gradientTransform="matrix(1 0 0 -1 .04 125.8)" gradientUnits="userSpaceOnUse">
				<stop stop-color="#584F32" offset="0"/>
				<stop offset="1"/>
			</radialGradient>
			<path d="m107.88 61.956h-73.098l1.343-7.184h7.348c13.893 0 14.187-0.251 21.713-6.68 1.094-0.935 13.178-11.606 13.178-11.606h-38.953l1.291-7.138h57.26l-28.955 25.424h40.116z" fill="url(#f)"/>
	</g><path d="m529.68 264.5c-0.1264-0.15557-0.316-0.23821-0.51046-0.23821h-193.24l139.43-122.42c0.21391-0.1896 0.28197-0.48129 0.18474-0.74381-0.10209-0.26253-0.34517-0.43268-0.63686-0.43268h-278.37c-0.32572 0-0.60283 0.23335-0.66603 0.54935l-6.2762 34.707c-0.034 0.19446 0.0146 0.39865 0.14098 0.54449 0.1264 0.15557 0.316 0.24308 0.51046 0.24308h187.59c-0.15557 0.14098-0.35004 0.31114-0.53477 0.47157-0.97231 0.86049-2.3044 2.0273-3.9038 3.442-4.9685 4.39-12.64 11.152-20.803 18.357-3.5052 3.0919-7.0881 6.2519-10.613 9.3536-8.0556 7.1027-26.32 23.131-26.335 23.146-0.20905 0.18474-0.39865 0.34031-0.52505 0.46671-9.1591 7.7979-16.087 13.71-22.368 18.197-0.01 5e-3 -0.0146 0.01-0.0292 0.0194-0.2528 0.18474-5.0317 3.3788-6.5145 4.2441-5e-3 0-0.01 5e-3 -0.01 0.01-0.01 5e-3 -0.0195 5e-3 -0.0292 0.01l-0.0146 0.0146c-15.956 9.3098-31.498 9.7766-76.166 9.8203h-35.723c-0.316 0-0.60283 0.22363-0.6563 0.54935l-6.5388 34.925c-0.034 0.19932 0.0243 0.39864 0.14098 0.54935s0.31114 0.24308 0.51532 0.24308h355.37c0.32086 0 0.60769-0.23822 0.67089-0.55422l6.0332-34.925c0.0681-0.19932 0.01-0.39864-0.12154-0.54449zm-242.86-8.8966s5e-3 -5e-3 0.0146-5e-3c8.848-4.6768 17.283-11.891 30.38-23.073 5.1338-4.39 61.683-54.333 61.683-54.333 0.21391-0.1896 1.1619-1.6578 1.1619-1.6578 0.20418-0.1896 0.28683-0.4813 0.18474-0.74382-0.10209-0.25766-0.35003-0.43268-0.63686-0.43268h-182.38l5.5033-30.424h265.7l-134.2 117.84c-1.0501 1.0258-1.1133 1.8328-0.70978 2.387 0.15557 0.2285 0.64658 0.43268 0.92855 0.43268h186.94l-5.2991 30.642h-340.82l5.7269-30.642h29.019c44.551 0.0486 60.555-0.55908 76.812-9.9953z" fill="url(#d)" stroke-width="4.8615"/><line x1="335.93" x2="475.36" y1="264.26" y2="141.84" fill="none" stroke="#fef160" stroke-linecap="round" stroke-width="1.3447"/><path d="m474.91 140.66h-278.37c-0.32572 0-0.60283 0.23335-0.66603 0.54935l-6.2762 34.707" fill="none" stroke="#fef375" stroke-linecap="round" stroke-width="1.3447"/><path d="m523.8 299.97 6.038-34.925c0.0389-0.19932-0.0243-0.39864-0.14584-0.54935" fill="none" stroke="#fef160" stroke-linecap="round" stroke-width="1.3447"/><path d="m167.25 300.28c0.11181 0.15071 0.30628 0.24308 0.51046 0.24308h355.37c0.32086 0 0.60769-0.23822 0.67089-0.55422" fill="none" stroke="#fef160" stroke-linecap="round" stroke-width="1.3447"/><path d="m174.29 264.26c-0.316 0-0.60283 0.22363-0.65631 0.54935l-6.5388 34.925c-0.034 0.19932 0.0243 0.39864 0.14099 0.54935" fill="none" stroke="#fef160" stroke-linecap="round" stroke-width="1.3447"/><g transform="matrix(2.5619 0 0 2.5619 -537.97 360.17)"><path d="m465.75 73.372c1.396-6.39 2.217-14.422-9.757-16.228l18.043-15.342h-40.415l-1.726 9.929h15.374l-15.767 15.522 14.448 0.013c3.488 0 3.17 2.717 3.008 3.629l-0.242 1.479c-0.423 2.371-2.172 3.479-4.24 3.479h-16.771l-1.694 9.891h20.766c11.923-3e-3 17.359-4.978 18.973-12.372z" fill="url(#t)"/><path d="m474.04 41.802h-1.403l-18.623 15.847 1.983-0.504zm-26.029 25.966c-0.406-0.645-1.2-1.146-2.7-1.146l-13.148-0.012-0.653 0.645 14.448 0.014c0.934-3e-3 1.588 0.196 2.053 0.499zm1.411-16.683h-17.409l-0.112 0.645h15.374zm15.686 21.644c-1.61 7.394-7.049 12.367-18.974 12.367h-20.01l-0.109 0.646h20.766c11.924 0 17.358-4.977 18.974-12.369 0.973-4.455 1.659-9.707-2.067-13.093 3 3.383 2.332 8.267 1.42 12.449z" fill="url(#m)"/><path d="m457.31 57.383-1.317-0.225-1.829 0.468c0.071 0.01 2.705 0.274 2.776 0.284 3.466 0.551 5.829 1.638 7.418 3.051-1.41-1.605-3.64-2.875-7.048-3.578zm-23.69-15.581-1.726 9.929 0.979-0.664 1.483-8.529h37.347l2.332-0.735zm15.063 26.659c0.503 0.85 0.365 1.924 0.275 2.434l-0.242 1.479c-0.423 2.371-2.172 3.479-4.24 3.479h-16.771l-1.694 9.891 0.98-0.697 1.45-8.456h16.771c2.067 0 3.817-1.108 4.24-3.481l0.241-1.476c0.119-0.683 0.325-2.357-1.01-3.173zm-1.414-16.731-15.767 15.522 2.147-0.654 15.767-15.495z" fill="url(#k)"/><path d="m219.5 85.734h30.097l1.709-9.883h-18.858c-0.115 0-0.236-0.056-0.311-0.146-0.076-0.094-0.104-0.219-0.088-0.329l1.109-6.446c0.039-0.199 0.212-0.352 0.426-0.352h18.988l1.67-9.663h-18.87c-0.126 0-0.241-0.052-0.313-0.146-0.08-0.083-0.116-0.213-0.094-0.327l1.109-6.398c0.038-0.206 0.214-0.352 0.423-0.352h19.013l1.705-9.89h-29.901c-4.842 0-8.356 3.402-9.115 7.809l-4.954 28.515c-0.66 3.877 1.372 7.608 6.255 7.608z" fill="url(#i)"/><path d="m389.74 47.064c-12.849 0-17.109 7.58-18.323 14.44l-4.202 24.237h16.124l4.251-24.544c0.45-2.527 2.646-4.594 5.413-4.594h1.757l1.711-9.543z" fill="url(#g)"/><path d="m411.87 72.096 2.617-15.124c0.026-0.208 0.209-0.357 0.414-0.357h11.393l1.639-9.549h-11.251c-0.126 0-0.245-0.057-0.315-0.148-0.082-0.096-0.112-0.22-0.09-0.338l1.428-8.047-17.517 7.408-4.619 26.372c-2.143 12.58 6.674 13.821 12.293 13.821 8.117 0 13.762-2.31 13.762-2.31l1.214-7.975h-7.959c-2.15 3e-3 -3.638-0.357-3.009-3.753z" fill="url(#e)"/><path d="m356.76 47.065h-8.767c-7.939 0-13.372 4.434-14.517 11.051l-2.897 16.792c-0.497 3.965 0.884 10.715 11.454 10.833h9.187c7.854-0.058 13.225-4.474 14.363-11.054l2.881-16.7c0.666-3.991-0.809-10.922-11.704-10.922zm-8.08 29.833h-1.687c-0.87 0-1.496-0.73-1.367-1.629l3.175-18.111c0.156-0.71 0.741-1.409 1.758-1.409h1.879c0.758 0 1.276 0.661 1.108 1.615l-3.175 18.112c-0.175 1.01-1.127 1.422-1.691 1.422z" fill="url(#c)"/><path d="m315.11 57.369-4.931 28.365s2.134-0.09 5.155-0.711c5.638-1.158 10.652-4.659 11.927-11.805l2.785-16.185c0.73-4.082-1.458-9.982-11.546-9.976l-8.774 4e-3c-7.943 5e-3 -13.432 4.438-14.654 11.053l-7.129 40.977 16.156-5.896 6.225-35.838c0.14-0.922 0.805-1.604 1.938-1.606h1.661c1e-3 2e-3 1.416 0.015 1.187 1.618z" fill="url(#b)"/><path d="m289.8 74.471c0.739-3.541 9e-3 -6.865-1.834-9.506-1.34-1.912-3.216-3.233-5.358-3.785-1.543-0.401-7.89-1.599-7.89-1.599-1.379-0.285-1.688-0.884-1.688-1.496 0-0.61 0.289-1.458 1.75-1.458h17.271l1.438-8.531c-3.872-0.726-13.16-2.015-21.635-1.058-8.479 0.956-12.814 4.449-14.295 11.045 0 0.015-4e-3 0.034-4e-3 0.045-0.617 3.496 0.176 7.067 2.188 9.81 1.697 2.314 4.438 3.683 6.811 4.097 2.469 0.431 6.795 0.886 6.795 0.886 0.826 0.1 1.313 0.891 1.176 1.682-0.135 0.791-0.826 1.252-1.491 1.252h-18.591l-1.531 9.049s8.676 1.123 19.355 1.24c12.422 0.013 16.237-5.462 17.533-11.673z" fill="url(#a)"/><path d="m248.89 85.023h-30.098c-1.81 0-3.227-0.514-4.263-1.358 1.055 1.255 2.703 2.069 4.974 2.069h30.098l1.709-9.883h-0.834zm37.569-21.754c0.28 0.311 0.549 0.633 0.797 0.985 1.843 2.641 2.573 5.964 1.834 9.505-1.296 6.211-5.11 11.688-17.534 11.673-8.75-0.097-16.15-0.869-18.541-1.145l-0.104 0.613s8.676 1.123 19.355 1.24c12.424 0.017 16.238-5.461 17.534-11.671 0.739-3.542 9e-3 -6.864-1.834-9.506-0.446-0.633-0.953-1.196-1.507-1.694zm-33.046-4.353-1.547 8.951h-18.99c-0.212 0-0.388 0.152-0.426 0.354l-1.233 7.153c-0.019 0.108 0.012 0.233 0.088 0.328 0.074 0.092 0.192 0.146 0.311 0.146h0.352l1.194-6.916c0.039-0.199 0.212-0.353 0.426-0.353h18.988l1.67-9.663zm162.43-11.856h0.347l1.508-8.527-0.903 0.383-1.356 7.659c-0.021 0.118 0.012 0.242 0.091 0.339 0.066 0.09 0.184 0.146 0.313 0.146zm-149.29 24.973c2.469 0.431 6.795 0.886 6.795 0.886 0.131 0.015 0.248 0.052 0.361 0.101-0.186-0.427-0.563-0.752-1.07-0.813 0 0-4.328-0.454-6.798-0.884-1.846-0.323-3.901-1.229-5.53-2.7 1.703 1.898 4.115 3.038 6.242 3.41zm-31.998-13.155h0.344l1.178-6.833c0.038-0.206 0.214-0.352 0.423-0.352h19.014l1.705-9.89h-0.832l-1.584 9.178h-19.014c-0.209 0-0.382 0.146-0.421 0.351l-1.219 7.072c-0.022 0.115 0.014 0.244 0.093 0.328 0.072 0.094 0.187 0.146 0.313 0.146zm186.35 24.235s-5.646 2.31-13.763 2.31c-3.06 0-7.065-0.372-9.735-2.743 2.623 3.014 7.103 3.454 10.447 3.454 8.117 0 13.762-2.31 13.762-2.31l1.214-7.975h-0.821zm-129.57-27.198h-17.27c-1.428 0-1.731 0.806-1.748 1.411h-4e-3s-0.098 1.39 1.377 1.884c-0.312-0.187-0.486-0.409-0.579-0.645-0.028-0.073-0.048-0.146-0.062-0.221-3e-3 -9e-3 -3e-3 -0.018-6e-3 -0.027-0.014-0.077-0.02-0.154-0.02-0.231 0-0.066 6e-3 -0.136 0.014-0.208 3e-3 -0.023 6e-3 -0.048 0.012-0.073 6e-3 -0.049 0.018-0.097 0.03-0.147 8e-3 -0.027 0.015-0.056 0.024-0.085 0.156-0.485 0.593-0.945 1.67-0.945h17.271l1.438-8.531c-0.25-0.047-0.52-0.096-0.807-0.146zm102.71-0.022h-1.758c-2.768 0-4.959 2.066-5.412 4.594l-4.252 24.542h-15.288l-0.124 0.713h16.124l4.251-24.544c0.45-2.527 2.646-4.594 5.413-4.594h1.757l1.711-9.543h-0.837zm33.046-8.828-1.517 8.837h-11.393c-0.205 0-0.387 0.15-0.413 0.358l-2.617 15.125c-0.374 2.02 5e-3 2.96 0.822 3.395-0.284-0.56-0.349-1.407-0.111-2.685l2.617-15.124c0.026-0.208 0.209-0.357 0.414-0.357h11.393l1.639-9.549zm-61.297 2.711c2.049 2.318 2.32 5.339 1.961 7.501l-2.878 16.698c-1.143 6.58-6.512 11-14.366 11.053h-9.187c-4.201-0.047-6.948-1.143-8.705-2.694 1.691 1.92 4.597 3.354 9.416 3.408h9.187c7.854-0.058 13.225-4.474 14.363-11.054l2.881-16.7c0.398-2.391 0.025-5.832-2.672-8.212zm-38.218-0.013c1.747 1.992 2.123 4.506 1.755 6.562l-2.787 16.186c-1.273 7.144-6.286 10.644-11.927 11.804-1.882 0.388-3.417 0.568-4.311 0.647l-0.135 0.774s2.134-0.092 5.155-0.711c5.638-1.159 10.652-4.66 11.927-11.805l2.785-16.186c0.417-2.306-0.109-5.197-2.462-7.271z" fill="#1d1800"/><path d="m315.63 57.895c0.146-1.246-0.321-2.009-1.172-2.6 0.046 0.102 0.189 0.439 0.329 0.817 0.239 0.235 0.409 0.618 0.318 1.257l-4.931 28.365 0.768-0.857z" fill="url(#ae)"/><path d="m312.26 55.753h1.661s0.879 0.011 1.138 0.801c-0.042-0.172-0.147-0.638-0.188-0.717-0.261-0.784-1.131-0.795-1.131-0.795h-2.189c-1.137 1e-3 -1.799 0.685-1.94 1.606l-6.224 35.838-14.633 5.34-0.813 1.267 16.156-5.896 6.225-35.838c0.139-0.921 0.804-1.604 1.938-1.606z" fill="url(#ad)"/><path d="m353.1 55.393c0.062 0.125 0.18 0.484 0.28 0.87 0.176 0.281 0.253 0.658 0.173 1.103l-3.175 18.112c-0.176 1.01-1.128 1.422-1.691 1.422 0 0-2.914 0.031-3.146-0.049-5e-3 -2e-3 -0.014-4e-3 -0.021-8e-3 -0.109-0.029-0.212-0.072-0.308-0.126 0.23 0.427 0.676 0.706 1.214 0.706h2.787c0.563 0 1.517-0.41 1.692-1.422l3.174-18.11c0.129-0.736 0.032-1.829-0.979-2.498z" fill="url(#ac)"/><path d="m348.1 56.446-3.34 19.043c-0.082 0.573 0.148 1.073 0.552 1.364-0.032-0.047-0.07-0.088-0.099-0.138 0.096 0.054 0.197 0.097 0.308 0.126l9e-3 3e-3c-6e-3 -0.017 0.212 9e-3 0.488 0.041 0.306 0.013 0.711 0.017 1.12 0.017 0 0-3e-3 -2e-3 -3e-3 -4e-3h-0.132c-0.87 0-1.496-0.73-1.367-1.629l3.175-18.111" fill="url(#ab)"/><path d="m348.81 57.158c0.156-0.71 0.741-1.409 1.759-1.409h1.878c0.109 0 0.209 0.017 0.305 0.042 0.02 4e-3 0.036 0.012 0.053 0.019 0.082 0.027 0.162 0.062 0.233 0.106 6e-3 3e-3 0.011 8e-3 0.017 0.012 0.132 0.084 0.241 0.194 0.329 0.332-0.011-0.036-0.021-0.069-0.03-0.104-0.014-0.056-0.029-0.114-0.047-0.167-0.019-0.064-0.035-0.122-0.055-0.178-5e-3 -0.019-0.011-0.042-0.02-0.061-0.047-0.146-0.088-0.264-0.12-0.333-0.23-0.236-0.566-0.38-0.95-0.38h-2.306c-1.013 0-1.604 0.7-1.757 1.409" fill="url(#aa)"/><path d="m231.17 75.902c-0.017 0.109 0.011 0.234 0.088 0.328 0.074 0.094 0.194 0.146 0.311 0.146h18.836l0.906-0.524h-20.133z" fill="url(#z)"/><path d="m234.18 59.294c0.071 0.094 0.187 0.147 0.313 0.147h18.821l0.933-0.525h-20.152l-9e-3 0.051c-0.021 0.115 0.014 0.243 0.094 0.327z" fill="url(#y)"/><path d="m257.22 41.803h-29.901c-4.842 0-8.356 3.402-9.115 7.809l-4.954 28.515c-0.406 2.383 0.212 4.709 1.879 6.148-1.267-1.445-1.714-3.512-1.354-5.623l4.957-28.517c0.756-4.406 4.271-7.809 9.112-7.809h28.466l0.821-0.566z" fill="url(#x)"/><path d="m260.87 69.188c-0.209-0.232-0.412-0.471-0.6-0.727-2.011-2.74-2.804-6.313-2.187-9.809 3e-3 -0.011 3e-3 -0.03 3e-3 -0.045 1.48-6.596 5.816-10.09 14.295-11.045 7.547-0.85 15.732 0.077 20.169 0.803 0.308 0.05 0.941-0.27 0.941-0.27-3.872-0.726-13.16-2.015-21.636-1.058-8.479 0.956-12.813 4.449-14.295 11.045 0 0.015-2e-3 0.034-2e-3 0.045-0.617 3.496 0.176 7.068 2.187 9.809 0.337 0.459 0.722 0.869 1.125 1.252z" fill="url(#w)"/><path d="m286.62 63.418c-8e-3 -7e-3 -0.015-0.013-0.022-0.02-0.453-0.424-0.94-0.798-1.457-1.123-0.045-0.029-0.088-0.058-0.136-0.086-0.118-0.072-0.241-0.138-0.364-0.205-0.106-0.057-0.211-0.113-0.315-0.165-0.106-0.052-0.212-0.101-0.318-0.149-0.141-0.062-0.282-0.12-0.426-0.174-0.085-0.032-0.171-0.068-0.256-0.098-0.236-0.081-0.476-0.156-0.718-0.219-1.543-0.401-7.89-1.599-7.89-1.599-0.911-0.189-1.352-0.516-1.549-0.893-0.297-0.2-0.544-0.372-0.632-0.425 0.681 1.09 1.582 1.6 2.708 1.842 0 0 6.344 1.199 7.887 1.598 1.478 0.381 2.821 1.134 3.955 2.188-0.151-0.163-0.308-0.321-0.467-0.472z" fill="url(#v)"/><path d="m274.35 73.602c0.164 0.293 0.232 0.645 0.172 0.998-0.135 0.793-0.825 1.252-1.49 1.252h-18.59l-1.532 9.049 0.711-0.578 1.346-7.945h18.591c0.668 0 1.356-0.458 1.493-1.251 0.103-0.624-0.177-1.24-0.701-1.525z" fill="url(#s)"/><path d="m318.5 47.06-8.774 4e-3c-7.943 5e-3 -13.432 4.438-14.653 11.053l-7.129 40.977 0.658-0.242 6.994-40.209c1.223-6.614 6.71-11.049 14.654-11.053l8.774-3e-3c4.445-4e-3 7.356 1.143 9.161 2.774-1.74-1.907-4.777-3.304-9.685-3.301z" fill="url(#r)"/><path d="m356.76 47.065h-8.767c-7.939 0-13.372 4.434-14.517 11.051l-2.897 16.792c-0.297 2.363 0.077 5.717 2.664 8.066-2.109-2.306-2.414-5.35-2.14-7.541l2.896-16.792c1.146-6.616 6.577-11.051 14.518-11.051h8.767c4.433 0 7.305 1.148 9.109 2.777-1.751-1.901-4.739-3.302-9.633-3.302z" fill="url(#q)"/><path d="m396.47 47.06-6.729 5e-3c-12.849 0-17.109 7.58-18.323 14.44l-4.202 24.237 0.747-0.771 3.979-22.94c1.214-6.86 5.477-14.44 18.325-14.44l5.266-3e-3z" fill="url(#p)"/><path d="m415.37 47.065-8e-3 0.04c-0.022 0.117 8e-3 0.242 0.09 0.337 0.071 0.092 0.188 0.148 0.316 0.148h11.236l0.835-0.525zm-2.875 28.371c0.508 0.81 1.543 0.939 2.814 0.939h6.524l0.909-0.523h-7.959c-0.921 0-1.723-0.071-2.288-0.416zm-11.875-28.971 15.923-6.732 1.068-1.2-17.517 7.408-4.619 26.372c-0.962 5.651 0.291 9.011 2.467 11-1.847-2.041-2.823-5.295-1.939-10.477z" fill="url(#o)"/></g>
</svg>
