<svg width="158.75mm" height="124.06mm" version="1.1" viewBox="0 0 158.75 124.06" xmlns="http://www.w3.org/2000/svg">
 <g transform="translate(-235.33 15.666)" stroke-width="6.3582">
  <path d="m235.33 108.11v-19.17h14.096v3.6432h-9.906v3.9675h8.539v3.4016h-8.539v4.5461h10.186v3.6114z"/>
  <path d="m265.76 102.64c0 1.6468-0.64217 3.0138-1.9202 4.1137-1.278 1.0936-2.9502 1.6404-5.0166 1.6404-0.89014 0-1.7485-0.0954-2.5878-0.29883-0.83292-0.20346-1.5132-0.43871-2.06-0.71211-0.55316-0.27341-1.0364-0.55316-1.4624-0.83928-0.41328-0.27976-0.73119-0.52137-0.92829-0.72483l-0.2734-0.29883 2.4606-2.6577c0.0572 0.0509 0.13988 0.12716 0.25433 0.22889 0.10173 0.10173 0.33062 0.2734 0.68032 0.52137s0.70576 0.46415 1.0872 0.64217c0.36877 0.18439 0.83927 0.35606 1.3988 0.50866 0.55316 0.15895 1.1063 0.23525 1.6531 0.23525 0.71847 0 1.2971-0.17803 1.7612-0.53409 0.45143-0.35605 0.68032-0.81384 0.68032-1.3606 0-0.63582-0.31155-1.208-0.92829-1.7104-0.62946-0.50229-1.7676-1.0936-3.427-1.7676-3.0583-1.189-4.5779-3.0265-4.5779-5.5125 0-1.5895 0.61039-2.893 1.8312-3.9166 1.2271-1.0237 2.8294-1.5387 4.8322-1.5387 0.78205 0 1.545 0.08901 2.2699 0.26068 0.72483 0.17803 1.3352 0.38149 1.8184 0.61674 0.48322 0.24161 0.92829 0.47686 1.3034 0.71211 0.38785 0.24161 0.66125 0.43871 0.82021 0.60402l0.2734 0.2734-2.4606 2.6577c-0.13352-0.12716-0.29883-0.28612-0.52137-0.47686-0.22253-0.19074-0.67396-0.44507-1.3543-0.76934-0.69304-0.31791-1.3861-0.47686-2.0982-0.47686-0.76933 0-1.367 0.17167-1.7994 0.52137-0.426 0.34334-0.63582 0.75026-0.63582 1.2017 0 0.57223 0.24161 1.0555 0.71847 1.4687 0.48322 0.41328 1.3988 0.87107 2.734 1.3861 3.6559 1.4242 5.4744 3.427 5.4744 6.0021"/>
  <path d="m270.39 89.897v9.7216h6.2183c1.5959 0 2.912-0.45779 3.9103-1.367 1.0046-0.91557 1.5069-2.0791 1.5069-3.4843 0-1.3988-0.50229-2.5623-1.5069-3.4906-0.99823-0.91557-2.3144-1.3797-3.9103-1.3797zm-1.0936-0.96008h7.4772c1.8566 0 3.3825 0.55316 4.5715 1.6595 1.1826 1.1 1.7803 2.486 1.7803 4.1455s-0.61039 3.0519-1.8121 4.1646c-1.208 1.1127-2.734 1.6722-4.5969 1.6722h-6.3264v7.528h-1.0936z"/>
  <path d="m289.77 104.82c1.6849 1.6976 3.764 2.5433 6.2246 2.5433 2.467 0 4.5461-0.84563 6.231-2.5433 1.6913-1.6976 2.5369-3.7958 2.5369-6.2946 0-2.5051-0.84563-4.6033-2.5369-6.3009-1.6849-1.6976-3.764-2.5433-6.231-2.5433-2.4606 0-4.5397 0.84564-6.2246 2.5433-1.6849 1.6976-2.5305 3.7958-2.5305 6.3009 0 2.4988 0.84563 4.5969 2.5305 6.2946m-0.75026-13.282c1.9138-1.9138 4.2472-2.8739 7.0067-2.8739s5.0865 0.95372 6.9812 2.8485c1.9011 1.9011 2.8484 4.2282 2.8484 6.9813 0 2.7594-0.96008 5.0929-2.8739 7.013-1.9202 1.9138-4.2536 2.8739-7.0067 2.8739-2.7594 0-5.0865-0.94737-6.9876-2.8485-1.8947-1.9011-2.8421-4.2282-2.8421-6.9812 0-2.7531 0.95372-5.0929 2.8739-7.013"/>
  <path d="m335.04 89.897v18.21h-1.0936v-18.21h-6.7142v-0.96008h14.516v0.96008z"/>
  <path d="m311.62 89.897v9.3083h6.4344c1.5514 0 2.804-0.43871 3.764-1.3161 0.96008-0.87107 1.4369-1.9837 1.4369-3.338 0-1.3479-0.47686-2.467-1.4369-3.338-0.96008-0.87742-2.2126-1.3161-3.764-1.3161zm-1.0936-0.96008h7.6934c1.8057 0 3.2808 0.53408 4.4126 1.5895 1.1508 1.0555 1.7231 2.3907 1.7231 3.9993 0 1.4369-0.47686 2.6768-1.4306 3.7068-0.94737 1.03-2.1872 1.6595-3.7259 1.8757l5.9767 7.9986h-1.3734l-5.9449-7.9413h-6.2374v7.9413h-1.0936z"/>
  <path d="m346.72 95.743c0.75026 0.68668 1.9329 1.2653 3.5606 1.7358 2.0092 0.60402 3.5034 1.3734 4.5016 2.3017 0.99823 0.93465 1.4942 2.0918 1.4942 3.4779 0 1.4751-0.5468 2.7022-1.6404 3.6687-1.1 0.96644-2.5878 1.4497-4.4634 1.4497-0.82656 0-1.6023-0.0827-2.3398-0.26069-0.74391-0.17167-1.3543-0.37513-1.8375-0.61038-0.48322-0.24161-0.90922-0.47686-1.2716-0.71211-0.36878-0.24161-0.62946-0.43872-0.79477-0.60403l-0.25433-0.2734 0.7757-0.79477 0.23525 0.23525c0.089 0.0954 0.32426 0.27976 0.70575 0.5468 0.37514 0.26069 0.7757 0.48958 1.1953 0.68033 0.41964 0.19074 0.97279 0.36877 1.6468 0.53408 0.69304 0.16531 1.4052 0.24797 2.1554 0.24797 1.4242 0 2.5751-0.37513 3.4652-1.1381 0.88378-0.75662 1.3288-1.6976 1.3288-2.8294 0-1.189-0.40692-2.1618-1.2208-2.9184-0.80749-0.75662-2.219-1.4433-4.2282-2.0664-1.6404-0.51501-2.9248-1.1953-3.8467-2.041-0.92193-0.84564-1.3924-1.8439-1.3924-2.9947 0-1.3352 0.53409-2.4542 1.6023-3.3571s2.486-1.3543 4.2345-1.3543c1.1318 0 2.1745 0.17167 3.1282 0.52137 0.94737 0.34334 1.6086 0.68032 1.9965 1.0109l0.5468 0.52137-0.76933 0.79477c-0.13352-0.14624-0.31155-0.32427-0.55952-0.52137-0.24161-0.20346-0.78205-0.4705-1.615-0.80749s-1.7167-0.50865-2.6704-0.50865c-1.5323 0-2.7213 0.36241-3.5415 1.0809-0.83292 0.71847-1.2526 1.5514-1.2526 2.4797 0 0.98551 0.38149 1.8184 1.1254 2.5051"/>
  <path d="m368.08 92.583v15.52h-4.1582v-15.52h-5.5888v-3.6432h15.336v3.6432z"/>
  <path d="m374.63 88.938h4.7114l5.1183 13.772 5.1247-13.772h4.4952l-7.6489 19.163h-4.1646z"/>
 </g>
 <g transform="translate(96.384 -86.805)">
  <g transform="matrix(.35278 0 0 -.35278 -96.384 210.86)">
   <path d="m96.134 222.68c0 71.227 57.727 128.97 128.95 128.97 71.245 0 128.99-57.745 128.99-128.97s-57.745-128.97-128.99-128.97c-71.227 0-128.95 57.745-128.95 128.97" fill="#fff"/>
   <path d="m225.09 351.65c-40.173 0-76.075-18.383-99.703-47.184h84.924v-34.892h-105.4c-3.7848-9.6783-6.4162-19.951-7.7859-30.621h77.066v-34.874h-76.742c1.568-10.688 4.3976-20.961 8.4167-30.639h104.44v-34.874h-82.996c23.664-27.467 58.683-44.859 97.774-44.859 71.227 0 128.97 57.727 128.97 128.97 0 71.227-57.745 128.97-128.97 128.97" fill="#009cd8"/>
  </g>
 </g>
</svg>
