<svg enable-background="new 0 0 800 108.1" version="1.1" viewBox="0 0 800 108.1" xml:space="preserve" xmlns="http://www.w3.org/2000/svg">
<g fill="#424850">
	<path d="m378.7 21.9c-19.4 0-27.5 10.1-32.9 30l-9.5 35.4h16.9l9.4-35.4c2-7.5 6.8-14.4 16.1-14.4h19.8l4.1-15.6h-23.9z"/>
	<polygon points="408.6 87.4 421.9 37.5 448.1 37.5 452.2 21.9 426.1 21.9 432 0 415.1 0 391.7 87.4"/>
	<path d="m234 50.5-2.5 9c-1.8 7.1-8.1 12-15.3 12.1h-31.7l9-34.3h31.4c11.1 0 9.9 10.1 9 13.1l0.1 0.1zm-9-28.6h-44l-23.1 86.2h16.9l5.6-20.7h35.9c14.4 0.2 27.1-9.5 30.8-23.4l2.4-9c3.8-13.8 0-32.7-24.6-32.7l0.1-0.4z"/>
	<path d="m322.4 50.5-2.5 9c-1.8 7.1-8.1 12-15.3 12.1h-24c-11.1 0-9.9-10.1-9-13.1l2.5-9c1.8-7 8.1-11.9 15.4-12.1h24c11.1 0.1 9.9 10.2 8.9 13.1zm-8.9-28.6h-24.1c-14.4 0-27.1 9.7-30.9 23.6l-2.5 9c-3.7 14 0 32.9 24.6 32.9h24c14.5 0.2 27.2-9.4 30.9-23.4l2.4-9c3.8-13.8 0-32.7-24.6-32.7l0.2-0.4z"/>
	<path d="m443 87.6 4.2-15.7h55.7c2.7-0.1 5-2.1 5.5-4.8 0.2-1.3-0.2-2.6-1-3.6-0.7-0.9-1.8-1.4-3-1.4h-35.9c-5.1 0.2-10.1-2-13.5-5.9-3.2-4-4.5-9.2-3.5-14.2 2-11.7 12.1-20.3 24-20.3h58.5l-4.2 15.7h-56.5c-2.7 0.2-4.9 2.1-5.4 4.8-0.3 1.1-0.1 2.3 0.6 3.2 0.8 1 2 1.6 3.3 1.6h35.9c5.1-0.2 10.1 2 13.5 5.9 3.2 4 4.4 9.3 3.3 14.3-1.6 11.9-12 20.7-24 20.3h-57.5z"/>
	<path d="m23.7 46.6h34.1c2.6 0.2 5.1-1.5 5.9-4 0.7-1.7-0.2-3.6-1.9-4.3-0.5-0.2-1-0.3-1.5-0.2 0 0-23.5-0.9-27.6 0.9-3.9 1.4-7.1 4.2-9 7.8v-0.2zm47.2 25.4c-1.3 5.1-4.1 15.3-4.1 15.3h-48.6c-5.5 0.3-10.8-1.9-14.4-6.1-3.2-3.9-4.5-9-3.5-14 1.4-9.2 3.9-18.1 7.5-26.7 2.3-6.2 6.6-11.4 12.3-14.8 4.5-2.4 9.5-3.7 14.6-3.8h28.8c11.7 0 18.8 9.5 16.2 21.5-2 11.2-11.7 19.2-23 19.2h-34c-3.1 0-5.7 2.5-5.7 5.6v0.2c-0.1 1.8 1.3 3.3 3 3.5l50.9 0.1z"/>
	<path d="m75.7 87.4h56.2c15.7 0.6 29.3-10.8 31.4-26.4 1.3-6.3-0.2-12.9-4.1-17.9-4.2-4.8-10.4-7.5-16.8-7.3h-29.6c-2.6 0-5.1-1.1-6.8-3.2-1.5-2-2.1-4.5-1.4-7 1-5 5.3-8.7 10.4-9h56.5l4.5-16.6h-57.6c-15.3 0.2-28.4 11.3-31 26.4-2.6 11 4.2 22 15.2 24.6 1.9 0.5 3.9 0.6 5.9 0.5h29.2c2.4 0 4.7 1 6.3 2.9 1.7 2 2.5 4.6 2.2 7.2-0.9 5.1-5.3 8.9-10.5 9h-55.5l-4.5 16.6v0.2z"/>
</g>
<g fill="#F7A60A">
	<path d="m583.7 72.2h-17.5c-4.8 0.4-9.5-1.6-12.6-5.3-2.9-4.7-3.7-10.3-2.2-15.6l3.3-12.2c1.3-5 4.2-9.4 8.2-12.7 4.7-3.5 10.4-5.4 16.2-5.4h16.2c4.8-0.4 9.5 1.6 12.6 5.2 2.9 4.7 3.7 10.3 2.2 15.6l-3.3 12.2c-1.3 4.9-4.1 9.3-8 12.6-4.3 3.7-9.6 5.7-15.1 5.6zm-5.9-66.5c-18 0-33.8 12.1-38.6 29.5l-3.2 12.2c-3.3 10-1.9 21 3.9 29.8 5.3 6.9 14.2 10.4 26.3 10.4h17.5c18.2 0.4 34.2-11.9 38.6-29.5l3.3-12.2c3.3-10 1.8-20.9-4-29.7-5.3-7-14.2-10.4-26.2-10.4h-17.6z"/>
	<path d="m703 87.5h75l4.5-16.4h-57.2l4.8-17.9h48.7l3.5-13.5h-48.7l2.7-10c0.9-4.3 4.6-7.4 9-7.8h50.1l4.6-16.3h-52.5c-14.5 0-24.9 9-29.2 24.9l-15.3 56.9v0.1z"/>
	<polygon points="643.2 5.7 621.8 87.6 639.6 87.6 654.1 32.2 676.2 87.6 676.5 87.6 694 87.6 694.3 87.6 715.6 5.7 697.8 5.7 683.4 61 661.3 5.7 661 5.7 643.5 5.7"/>
</g>
</svg>
