<svg width="800" height="402.14" version="1.1" viewBox="0 0 211.67 106.4" xmlns="http://www.w3.org/2000/svg">
 <link rel="stylesheet" type="text/css"/>
 <link rel="stylesheet" type="text/css"/>
 <style lang="en" type="text/css"/>
 <style lang="en" type="text/css"/>
 <g transform="matrix(.47188 0 0 .47188 36.986 6.8254)">
  <path d="m17.246 54.342c1.1408-8.7252 6.2741-13.51 13.261-13.51 6.8445 0 11.693 4.9255 12.406 13.51zm45.059 31.805v-13.51c-8.5556 5.9106-16.969 8.7252-25.096 8.7252-12.406 0-20.106-6.3328-20.106-16.747v-0.28146h46.771v-0.70364c0-23.08-12.976-36.73-33.509-36.73-20.961 0-34.65 13.088-34.65 33.071 0 21.391 13.261 34.76 36.361 34.76 11.407 0 21.246-2.8146 30.23-8.5845z" fill="#066ac6" font-family="'FONTSPRING DEMO - Humanist 521 BT'" font-size="535.4px" font-weight="bold" letter-spacing="0px" stroke-width="3.5415" word-spacing="0px"/>
  <path d="m323.55 138.18c1.1408-8.7252 6.2741-13.51 13.261-13.51 6.8445 0 11.693 4.9255 12.406 13.51zm45.059 31.805v-13.51c-8.5556 5.9106-16.969 8.7252-25.096 8.7252-12.406 0-20.106-6.3328-20.106-16.747v-0.28146h46.771v-0.70364c0-23.08-12.976-36.73-33.509-36.73-20.961 0-34.65 13.088-34.65 33.071 0 21.391 13.261 34.76 36.361 34.76 11.407 0 21.246-2.8146 30.23-8.5845z" fill="#066ac6" font-family="'FONTSPRING DEMO - Humanist 521 BT'" font-size="535.4px" font-weight="bold" letter-spacing="0px" stroke-width="3.5415" word-spacing="0px"/>
  <path d="m73.987 41.356v23.982c0 20.258 5.7614 29.44 24.227 29.44 6.9432 0 13.886-1.3117 20.682-3.7893l-0.14775-15.886c-4.7273 2.1861-9.0114 3.3521-13 3.3521-8.716 0-10.341-3.6436-10.341-12.971v-24.128h23.341v-14.456h-23.341v-20.734h-3.25l-27.921 30.936v4.2535z" fill="#066ac6" font-family="'FONTSPRING DEMO - Humanist 521 BT'" font-size="554.58px" font-weight="bold" letter-spacing="0px" stroke-width="3.6683" word-spacing="0px"/>
  <path d="m153.97 29.379q9.2143-4.9626 23.1-0.06445 6.9107 2.3846 12.542 11.15 5.503 8.765 5.503 19.915 0 13.985-6.0149 21.268-6.1429 7.476-11.838 10.183-5.9509 2.8357-12.286 2.8357-6.2069 0-10.942-2.2557t-7.0387-6.0582l-0.12801 0.06445q0 3.2224-2.8795 5.7359-2.9434 2.5135-7.3586 2.5135t-7.2947-2.9002-2.8795-7.4116v-78.885q0-4.5114 2.8795-7.4116t7.3586-2.9002q4.4792 0 7.2947 2.9002 2.8795 2.9002 2.8795 7.4116v29.518q2.3676-3.0291 7.1027-5.607zm-7.1027 24.942v12.503q0 9.474 5.311 11.73 5.375 2.2557 7.4226 2.2557 4.7351 0 9.4063-4.0603 4.7351-4.0603 4.7351-15.725 0-8.7006-3.2634-14.565-3.3914-5.9293-10.43-5.9293-5.311 0-9.2783 4.0603-3.9033 4.1247-3.9033 9.7318z" fill="#066ac6" font-family="'Seconda Round'" font-size="497.08px" font-weight="900" letter-spacing="0px" stroke-width="3.288" word-spacing="0px"/>
  <path d="m-11.361 113.17q9.2143-4.9625 23.1-0.0645 6.9107 2.3846 12.542 11.15 5.503 8.765 5.503 19.915 0 13.985-6.0149 21.268-6.1429 7.476-11.838 10.183-5.9509 2.8357-12.286 2.8357-6.2068 0-10.942-2.2557-4.7351-2.2557-7.0387-6.0582l-0.12798 0.0645q0 3.2224-2.8795 5.7359-2.9434 2.5135-7.3586 2.5135t-7.2947-2.9002-2.8795-7.4116v-78.885q0-4.5114 2.8795-7.4116t7.3586-2.9002q4.4792 0 7.2947 2.9002 2.8795 2.9002 2.8795 7.4116v29.518q2.3676-3.0291 7.1027-5.607zm-7.1027 24.942v12.503q0 9.474 5.311 11.73 5.375 2.2557 7.4226 2.2557 4.7351 0 9.4063-4.0603 4.7351-4.0603 4.7351-15.725 0-8.7006-3.2634-14.565-3.3914-5.9293-10.43-5.9293-5.311 0-9.2783 4.0603-3.9033 4.1247-3.9033 9.7318z" fill="#066ac6" font-family="'Seconda Round'" font-size="497.08px" font-weight="900" letter-spacing="0px" stroke-width="3.288" word-spacing="0px"/>
  <path d="m72.094 168.95c0.70541 4.682 4.3735 7.023 11.004 7.023 5.6432 0 11.427-1.7902 18.058-4.9574v-11.154c-2.3984 0.96394-4.3735 1.6525-6.4897 1.6525s-2.6805-1.3771-2.6805-3.9935v-25.338c0-15.423-7.7594-22.308-26.805-22.308-11.569 0-21.021 2.341-29.062 7.7115l-0.28215 15.836c7.6183-6.8853 15.519-10.19 22.573-10.19 8.6058 0 12.838 2.7541 12.838 8.9509 0 0.55082 0 1.1016-0.1411 1.7902-25.818 7.2984-38.374 11.98-38.374 24.374 0 11.705 6.4896 17.764 19.046 17.764 7.6183 0 14.249-2.341 20.315-7.1607zm-0.98756-9.364c-3.8091 2.6164-7.3361 3.9935-10.44 3.9935-4.5146 0-7.1951-2.6164-7.1951-6.7476 0-5.7836 5.6432-8.6755 17.635-12.807z" fill="#066ac6" font-family="'FONTSPRING DEMO - Humanist 521 BT'" font-size="526.8px" font-weight="bold" letter-spacing="0px" stroke-width="3.4846" word-spacing="0px"/>
  <path d="m105.41 171.43c6.6307 3.1672 14.249 4.8197 22.996 4.8197 17.353 0 26.805-7.5738 26.805-20.518 0-8.5378-4.2324-13.771-13.685-17.764-11.569-4.9574-18.34-6.4722-18.34-10.466 0-3.1672 2.6805-4.9574 7.7594-4.9574 6.0664 0 12.838 2.341 20.88 6.4722v-14.046c-6.9129-3.4426-14.108-5.0951-22.291-5.0951-15.378 0-25.253 8.1246-25.253 20.105 0 12.669 8.1826 15.148 21.021 20.38 6.7718 2.7541 10.299 4.4066 10.299 7.8492 0 3.1672-3.2448 4.8197-9.8756 4.8197-4.3735 0-11.427-1.7902-20.315-5.7836z" fill="#066ac6" font-family="'FONTSPRING DEMO - Humanist 521 BT'" font-size="526.8px" font-weight="bold" letter-spacing="0px" stroke-width="3.4846" word-spacing="0px"/>
  <path d="m226.17 121.99v78.464q0 4.4874-2.8732 7.589-2.8732 2.9696-7.3426 2.9696t-7.3426-2.9696-2.8732-7.589v-27.914q-3.4478 4.3554-8.3642 6.2692-4.9802 2.0457-9.8966 2.0457-4.8525 0-11.876-2.5737-7.0234-2.5737-12.514-11.482-5.4272-8.8428-5.4272-20.259 0-14.188 6.0018-21.777 5.938-7.589 11.812-10.493 5.7464-2.8376 12.195-2.8376 6.1933 0 10.918 2.3097 4.7248 2.2437 7.0873 6.1372h0.0638q0-3.2996 2.9371-5.8732 3.0009-2.5737 7.3426-2.5737 4.4056 0 7.2788 2.9696 2.8732 3.0356 2.8732 7.589zm-20.432 30.686v-12.802q0-6.5991-4.0225-10.493-4.0864-3.8275-8.1088-3.8275-7.4703 0-11.046 5.8732-3.5756 5.8732-3.5756 14.584 0 8.6448 3.2563 14.716t10.407 6.0712q5.2995 0 9.2581-4.1574 3.8309-4.1574 3.8309-9.9647z" fill="#066ac6" font-family="'Seconda Round'" font-size="502.44px" font-weight="900" letter-spacing="0px" stroke-width="3.3235" word-spacing="0px"/>
  <path d="m297.06 122.49v46.189q0 4.2387-3.0261 6.9814-3.1636 2.7427-7.634 2.7427-4.5392 0-7.634-2.431t-3.0949-5.61h-0.13755q-2.3383 3.366-7.2902 5.6724-4.8142 2.3687-10.179 2.3687-9.2158 0-14.58-2.9297-6.9463-3.8024-9.0783-12.903-1.3068-5.2984-1.3068-13.028v-27.053q0-4.2387 2.9573-6.9191 3.0261-2.7427 7.7028-2.7427t7.7028 2.7427q3.0261 2.6804 3.0261 6.9191v30.107q0 6.171 2.2696 9.1631 2.2696 2.9297 7.3589 2.9297 5.1581 0 8.3905-3.8647 3.1636-3.8024 3.1636-9.2877v-29.048q0-4.2387 3.0261-6.9191 3.0261-2.7427 7.7028-2.7427t7.634 2.7427q3.0261 2.6804 3.0261 6.9191z" fill="#066ac6" font-family="'Seconda Round'" font-size="506.81px" font-weight="900" letter-spacing="0px" stroke-width="3.3523" word-spacing="0px"/>
  <path d="m-23.128 2.3931 6.3119 59.332-60.595-15.149-0.96922-38.873z" fill="#f03919"/>
  <path d="m200.21-14.464 10.207 106.49 56.807-3.7872-8.3138-89.629z" fill="#81b517"/>
 </g>
</svg>
