<svg width="800" height="395.79" version="1.1" viewBox="0 0 211.67 104.72" xmlns="http://www.w3.org/2000/svg">
 <link rel="stylesheet" type="text/css"/>
 <link rel="stylesheet" type="text/css"/>
 <style lang="en" type="text/css"/>
 <style lang="en" type="text/css"/>
 <g transform="matrix(.45558 0 0 .45558 14.224 3.1107)">
  <path d="m-5.8736 62.848c1.3429-10.272 7.3863-15.905 15.612-15.905 8.0577 0 13.765 5.7986 14.605 15.905zm53.047 37.443v-15.905c-10.072 6.9584-19.977 10.272-29.545 10.272-14.605 0-23.67-7.4554-23.67-19.715v-0.33134h55.061v-0.82838c0-27.171-15.276-43.241-39.449-43.241-24.677 0-40.792 15.408-40.792 38.934 0 25.183 15.612 40.922 42.807 40.922 13.43 0 25.013-3.3135 35.588-10.106z" fill="#066ac6" font-family="'FONTSPRING DEMO - Humanist 521 BT'" font-size="535.4px" font-weight="bold" letter-spacing="0px" stroke-width="3.5415" word-spacing="0px"/>
  <path d="m60.925 47.561v28.234c0 23.849 6.7827 34.659 28.522 34.659 8.174 0 16.348-1.5442 24.348-4.461l-0.17393-18.702c-5.5653 2.5737-10.609 3.9463-15.305 3.9463-10.261 0-12.174-4.2894-12.174-15.27v-28.405h27.479v-17.018h-27.479v-24.409h-3.8261l-32.87 36.419v5.0075z" fill="#066ac6" font-family="'FONTSPRING DEMO - Humanist 521 BT'" font-size="554.58px" font-weight="bold" letter-spacing="0px" stroke-width="3.6683" word-spacing="0px"/>
  <path d="m155.09 33.461q10.848-5.8422 27.195-0.07588 8.1358 2.8073 14.765 13.126 6.4785 10.319 6.4785 23.445 0 16.464-7.0811 25.038-7.2318 8.8013-13.936 11.988-7.0058 3.3384-14.464 3.3384-7.3071 0-12.882-2.6556-5.5745-2.6556-8.2864-7.1321l-0.15068 0.0759q0 3.7936-3.3899 6.7527-3.4652 2.9591-8.6631 2.9591t-8.5878-3.4143-3.3899-8.7254v-92.869q0-5.3111 3.3899-8.7254t8.6631-3.4143 8.5878 3.4143q3.3899 3.4143 3.3899 8.7254v34.75q2.7873-3.5661 8.3618-6.601zm-8.3618 29.363v14.719q0 11.153 6.2525 13.809 6.3279 2.6555 8.7384 2.6555 5.5745 0 11.074-4.78 5.5745-4.78 5.5745-18.513 0-10.243-3.8419-17.147-3.9926-6.9803-12.279-6.9803-6.2525 0-10.923 4.78-4.5952 4.8559-4.5952 11.457z" fill="#066ac6" font-family="'Seconda Round'" font-size="497.08px" font-weight="900" letter-spacing="0px" stroke-width="3.288" word-spacing="0px"/>
  <path d="m223.75 19.323-7.5743 133.64 53.651 4.4183 10.099-151.94z" fill="#81b517"/>
  <path d="m307.75 153.58-7.5743-109.83 53.651-4.4184 10.099 128.13z" fill="#81b517"/>
  <path d="m190.69 206.62 5.6807-76.611-56.807 1.578-6.9431 91.444z" fill="#81b517"/>
  <path d="m379.11 23.009-1.2624 91.286 54.283 1.8935 1.2624-112.12z" fill="#81b517"/>
 </g>
</svg>
