<svg width="566.17pt" height="571.66pt" version="1.1" viewBox="0 0 566.17 571.66" xmlns="http://www.w3.org/2000/svg">
 <defs>
  <linearGradient id="b" x1="389.64" x2="389.64" y1="177.69" y2="125.17" gradientUnits="userSpaceOnUse">
   <stop stop-color="#3347b8" offset="0"/>
   <stop stop-color="#259fe1" offset="1"/>
  </linearGradient>
  <linearGradient id="a" x1="200.53" x2="200.53" y1="286.68" y2="233.94" gradientUnits="userSpaceOnUse">
   <stop stop-color="#505458" offset="0"/>
   <stop stop-color="#d0d6db" offset="1"/>
  </linearGradient>
 </defs>
 <g transform="matrix(.75187 0 0 .75187 -37.233 456.9)">
  <path d="m49.52 24.665h753.02v127.97h-753.02v-127.97" fill="#58595b"/>
 </g>
 <g transform="matrix(.75187 0 0 .75187 -37.039 457.19)">
  <path d="m55.775 30.765h740v114.97h-740v-114.97"/>
 </g>
 <g transform="matrix(6.679 0 0 6.679 47.318 -6.0111)">
  <path d="m20.4 47.5-2 6-10.4 0.2 6-8.2z" fill="#e19b26"/>
  <path d="m15.3 31.1-5.7-4.1-8.1 5.8 10.1 3.2z" fill="#db2b2c"/>
  <path d="m23.8 37.3-3.2 9.6-13.1-4.2 8.3-11.2z" fill="#eb6a45"/>
  <path d="m20.6 46.9-13.1-4.2 16.3-5.4z" fill="#d14d28"/>
  <path d="m23.8 37.3-8-5.8 3.7 7.2z" fill="#e05627"/>
  <path d="m20.6 46.9 3.2-9.6-4.3 1.4z" fill="#b64126"/>
  <path d="m15.3 31.1-5.7-4.1 2 9z" fill="#c02232"/>
  <path d="m20.4 47.5-6.4-2 4.4 8z" fill="#bb782a"/>
  <path d="m50.1 47.5 2 6 10.5 0.2-6.1-8.2z" fill="#4051a2"/>
  <path d="m69.1 32.8-8.1-5.8-5.7 4.1 3.6 4.9z" fill="#72459a"/>
  <path d="m46.8 37.3 3.1 9.6 13.2-4.2-8.4-11.2z" fill="#5d3e88"/>
  <path d="m49.9 46.9 13.2-4.2-16.3-5.4z" fill="#472e7c"/>
  <path d="m46.8 37.3 7.9-5.8-3.6 7.2z" fill="#543387"/>
  <path d="m55.3 31.1 5.7-4.1-2.1 9z" fill="#5c2c7a"/>
  <path d="m50.1 47.5 6.4-2-4.4 8z" fill="#27397c"/>
  <path d="m26.6 52.1-5.1 3.7 3.1 10 6-8.3z" fill="#2d7abd"/>
  <path d="m46.5 65.5 3-9.5-5.7-4.1-3.5 4.9z" fill="#374599"/>
  <path d="m35.3 45.7-8.1 6 8 11.2 8.1-11.4z" fill="#2d73b9"/>
  <path d="m27.2 51.7 8 11.2 0.1-17.2z" fill="#4389c8"/>
  <path d="m35.3 45.7 8 5.8-8-1.3z" fill="#0d589b"/>
  <path d="m27.2 51.7 8.1-6 5e-6 4.5z" fill="#3c7fc1"/>
  <path d="m43.8 51.9 5.7 4.1-9.2 0.8z" fill="#2b3b82"/>
  <path d="m26.6 52.1 4 5.4-9.1-1.7z" fill="#2572b5"/>
  <path d="m17 23.6-6.3-0.1-3.3-9.9 9.6 3.3z" fill="#dd2532"/>
  <path d="m31.1 13.7 2.2-6.6-8-6 0.1 10.6z" fill="#991b3b"/>
  <path d="m27.8 23.7-10.1-0.1v-13.8l13.2 4.6z" fill="#a51d32"/>
  <path d="m17.7 23.6v-13.8l10.1 13.9z" fill="#be234d"/>
  <path d="m27.8 23.7 3.1-9.3-5.8 5.6z" fill="#931f3b"/>
  <path d="m17.7 23.6 10.1 0.1-2.7-3.7z" fill="#99223e"/>
  <path d="m31.1 13.7 2.2-6.6001-7.9 4.6001z" fill="#861631"/>
  <path d="m17 23.6v-6.7l-6.3 6.6z" fill="#b42126"/>
  <path d="m53.6 23.4 6.4-0.1 3.2-9.9-9.6 3.3z" fill="#6e3b96"/>
  <path d="m45.3 0.9-8 6 2.2 6.7 5.8-2z" fill="#a5287f"/>
  <path d="m42.9 23.5 10-0.1v-13.8l-13.2 4.6z" fill="#873c94"/>
  <path d="m52.9 23.4v-13.8l-10 13.9z" fill="#9f60a6"/>
  <path d="m42.9 23.5-3.2-9.3 5.8 5.7z" fill="#6f2c73"/>
  <path d="m52.9 23.4-10 0.1 2.6-3.7z" fill="#7d3b83"/>
  <path d="m39.5 13.6-2.2-6.7 8 4.7z" fill="#90276c"/>
  <path d="m53.6 23.4v-6.7l6.4 6.6z" fill="#5f2e7b"/>
  <path d="m49.9 46.9-3.1-9.6 4.3 1.4z" fill="#362266"/>
 </g>
 <g transform="matrix(.75187 0 0 .75187 -37.233 456.9)" fill="#777" opacity=".5">
  <path d="m49.52 24.665h753.02v63.985h-753.02v-63.985" fill="#777" opacity="1"/>
 </g>
 <g transform="translate(-38.056 263.18)" fill="url(#a)">
  <path d="m290.52 233.91a27.315 26.46 0 0 0-27.315 26.459 27.315 26.46 0 0 0 27.315 26.459 27.315 26.46 0 0 0 27.315-26.459 27.315 26.46 0 0 0-27.315-26.459zm0 10.516a16.459 15.943 0 0 1 16.459 15.943 16.459 15.943 0 0 1-16.459 15.943 16.459 15.943 0 0 1-16.459-15.943 16.459 15.943 0 0 1 16.459-15.943z" style="paint-order:stroke fill markers"/>
  <path d="m71.568 234.77h38.875v10.395h-27.556v9.8684h23.984v9.9322h-23.984v10.925h27.687v9.9962h-39.007z" stroke-width=".75187"/>
  <path d="m132.06 234.77h11.534v30.706c0.0451 4.6992 3.1015 9.2706 7.7706 10.459 3.5037 0.4436 7.4059 0.3233 10.225-2.0977 3.203-2.5714 3.7518-7.0074 3.8045-10.857v-28.21h11.349v31.255c-0.24812 6.2706-2.6879 12.819-7.9285 16.609-5.5638 4.0902-12.872 4.5488-19.504 3.7518-5.0826-0.6842-10.045-3.1729-13.09-7.3683-3.0451-4.1729-4.0488-9.4435-4.1616-14.504z" stroke-width=".75187"/>
  <path d="m200.53 234.75h24.635c4.8947-0.0301 9.9172 1.594 13.564 4.9248 5.1127 5.1954 5.7443 13.714 2.7819 20.143-1.7744 3.9248-5.5262 6.2556-9.1803 8.1728l12.481 17.849h-13.616l-10.316-15.917-9.0431-0.26316v16.18h-11.306v-51.09m11.306 10.398v14.218h12.614c3.6842 8e-3 7.2932-3.0376 7.1503-6.8721 0.4812-3.7368-2.7669-7.2255-6.4435-7.3458z" stroke-width=".75187"/>
 </g>
 <g transform="translate(-1.2597 372.03)" fill="url(#b)" stroke-width=".75187">
  <path d="m314.46 127.62c9.4736-4.9022 21.481-2.3985 29.661 3.9849l-6.0225 8.7818c-4.3308-3.218-9.6916-5.7744-15.203-5.0526-5.5767 1.2639-5.7698 6.927-1.1504 8.6766 6.9172 2.7819 15.286 3.0075 20.707 8.7217 5.4285 6.3834 3.6766 17.481-3.4586 21.917-6.6315 4.1428-15.105 3.7669-22.361 1.6391-4.2932-1.4812-8.7442-3.5037-11.699-7.0525l6.7292-7.842c4.4135 3.7594 10.007 6.4435 15.88 6.3458 2.1512-0.0928 4.827-0.75939 6.1954-2.7744 1.3351-2.3124 0.84809-3.9198-1.1832-5.2453-6.921-4.2637-16.267-3.4844-22.32-9.4312-5.8345-6.6916-3.7594-18.586 4.2255-22.669z"/>
  <path d="m362.7 125.95h42.616v10.331h-15.669v40.751h-11.297v-40.751h-15.65z"/>
  <path d="m415.04 177 22.067-51.699h10.21l22.188 51.699h-12.052l-4.5939-11.368h-21.338l-4.7368 11.368h-11.744m20.564-21.643h13l-6.4999-15.481z"/>
  <path d="m489.64 125.9h24.635c4.8947-0.0301 9.9172 1.594 13.564 4.9248 5.1127 5.1954 5.7443 13.714 2.7819 20.143-1.7744 3.9248-5.5262 6.2556-9.1803 8.1728l12.481 17.849h-13.616l-10.316-15.917-9.0431-0.26315v16.18h-11.306v-51.09m11.306 10.398v14.218h12.615c3.6842 7e-3 7.2931-3.0376 7.1503-6.8721 0.48119-3.7368-2.7669-7.2255-6.4435-7.3458z"/>
 </g>
 <path d="m115.11 162.63h126.32l41.662-121.22 40.241 121.22h128.07l-104.35 75.618 39.562 121.41-103.52-80.482-102.52 79.814 41.345-120.74z" fill="#e0e0e0" style="paint-order:stroke fill markers"/>
</svg>
