<svg width="754.85" height="150.69" version="1.1" viewBox="0 0 754.85 150.69" xmlns="http://www.w3.org/2000/svg">
 <g transform="matrix(.15461 0 0 .15461 -.0011859 5.1376)" fill="#005587" stroke-width="7.3383">
  <path d="m454.24 386.34c-38.893 57.239-104.2 91.729-173.18 92.463-99.801 0-187.86-73.383-209.14-173.92l-0.73383-3.6692h488c1.4677-13.943 2.2015-27.886 2.2015-41.095v-2.2015c0-159.24-125.49-289.13-281.06-289.13s-280.32 129.15-280.32 288.4c0 159.24 125.49 289.13 281.06 289.13 105.67 0 201.07-60.174 249.5-157.04l7.3383-13.943h-76.318c-2.2015 3.6692-5.1368 7.3383-7.3383 11.007zm-386.73-157.04c13.943-110.07 105.67-193 212.08-193s198.87 82.923 212.08 193l0.73383 3.6692h-425.62v-3.6692z"/>
  <path d="m875.46 547.05c-30.087 0-60.174-5.8706-88.794-16.878-27.152-10.274-51.368-26.418-71.916-46.965-21.281-20.547-37.425-45.498-47.699-72.649-11.007-30.087-16.878-61.642-16.144-93.93v-336.83h64.577v330.96c-0.73383 24.216 2.9353 49.167 11.741 71.916 15.41 40.361 46.231 72.649 85.858 89.527 40.361 16.144 85.124 16.144 124.75 0 19.08-8.0721 36.692-19.813 51.368-35.224 15.41-15.41 27.152-34.49 35.224-54.304 8.806-22.749 13.943-47.699 13.943-71.916v-330.96h64.577v336.83c0 32.289-6.6045 63.843-19.08 93.93-22.749 54.304-66.045 97.6-121.08 120.35-27.152 10.274-57.239 16.144-87.326 16.144z"/>
  <path d="m1195.4 531.64v-318.48c0-23.483 2.9353-46.231 8.0721-68.98 6.6045-29.353 19.814-56.505 37.425-80.721 22.015-29.353 51.368-52.836 85.124-67.512 40.361-18.346 90.261-27.886 148.23-27.886h11.008v68.98h-11.008c-36.692-0.73384-72.649 5.1368-107.14 16.878-24.216 8.0722-46.231 22.749-63.11 41.095-13.943 16.144-24.95 35.224-30.821 55.771-5.8706 19.813-8.806 41.095-8.806 61.642v319.22z"/>
  <path d="m2528.8 531.64v-290.6c0.7338-21.281-2.2015-42.562-9.5398-62.376-6.6045-16.878-16.144-32.289-29.353-45.498-11.741-12.475-25.684-22.015-41.094-28.619-33.022-13.943-70.448-13.943-103.47 0-16.144 6.6045-30.087 16.144-41.828 28.619-12.475 13.209-22.749 28.619-29.353 45.498-8.0721 19.813-11.741 40.361-12.475 61.642v290.6h-128.42v-296.47c0-36.692 7.3383-73.383 21.281-107.87 12.475-31.555 31.555-60.908 55.771-85.124 24.216-23.483 52.102-42.562 83.657-55.037 65.311-25.684 137.96-26.418 203.27-0.73384 31.555 12.475 60.174 31.555 83.657 55.037 24.216 24.216 43.296 53.57 55.771 85.124 13.209 34.49 19.08 71.182 18.346 107.87v295.73h-126.22z"/>
  <path d="m2999.9 546.31c-154.84 0-281.06-129.15-281.06-288.4 0-159.24 125.49-289.13 281.06-289.13 154.84 0 280.32 129.15 280.32 289.13 0 14.677-1.4677 30.087-2.9354 44.03l-0.7338 4.403h-438.1l2.2015 5.8707c26.418 88.06 118.15 137.96 206.21 111.54 22.015-6.6045 43.296-17.612 60.908-33.022 0 0 8.0722-7.3383 9.5398-8.0722h136.49l-3.6691 8.0722c-46.965 94.664-143.83 154.84-250.24 155.57zm0-461.58c-73.383 0.73383-137.96 48.433-159.24 118.88l-2.2015 5.8706h322.89l-2.2015-5.8706c-21.281-71.182-85.858-118.88-159.24-118.88z"/>
  <path d="m3324.3-17.268v-3.6692h138.69c16.878 132.82 60.174 344.17 98.334 440.3 40.361-95.398 86.592-306.74 103.47-440.3h115.95c17.612 132.82 63.11 335.36 104.2 440.3 38.159-104.2 80.722-306.74 98.333-440.3h137.96v3.6692c-32.289 207.67-92.463 421.95-143.83 548.91h-173.18c-35.958-87.326-63.11-178.32-81.455-271.52-16.878 95.398-54.304 207.67-80.722 271.52h-172.45c-60.908-138.69-126.95-372.05-145.3-548.91z"/>
  <path d="m4179.2 507.42v-104.94h5.8706c48.433 13.209 97.6 21.281 147.5 22.749h28.619c44.764 0 79.254-13.943 79.254-59.44 0-34.49-30.087-47.699-62.376-56.505l-85.124-22.749c-62.376-16.144-113.74-59.44-113.74-153.37 0-110.81 90.995-156.31 201.8-156.31h28.619c34.49 0 102.74 8.806 133.56 20.547v104.94h-5.8706c-41.828-9.5398-85.124-15.41-127.69-16.878h-25.684c-40.361 0-74.117 8.0722-74.117 47.699 0 31.555 23.483 43.296 51.368 50.634l85.124 23.483c82.189 22.015 124.75 70.448 124.75 158.51 0 121.82-88.06 168.05-209.88 168.05h-28.619c-52.102-2.2015-104.2-11.007-153.37-26.418z"/>
  <circle cx="4765.5" cy="416.43" r="116.68"/>
  <path d="m1788.3-30.477c-155.57 0-282.53 129.15-282.53 289.13s126.22 289.13 282.53 289.13 282.53-129.15 282.53-289.13-126.95-289.13-282.53-289.13zm0 499.74c-108.61 0-197.4-94.664-197.4-209.88s88.794-209.88 197.4-209.88 197.4 94.664 197.4 209.88-88.06 209.88-197.4 209.88z"/>
 </g>
 <g transform="translate(612.04 -125.3)" fill="#005587" stroke-width="1.735">
  <path d="m-115.55 260.1c0 12.492 4.3029 15.893 13.811 15.893 4.9969 0 8.467-1.1798 10.48-3.6089 1.735-2.0126 2.5679-4.8581 2.5679-8.3976v-34.84c0-0.48581-0.27761-0.76341-0.83282-0.76341h-2.8455c-0.55521 0-0.83282 0.2776-0.83282 0.76341v14.921h-0.1388c-1.5962-2.0126-4.8581-3.3313-8.7446-3.3313-9.2304 0-13.464 4.9969-13.464 16.101zm4.5805-2.9149c0-4.9275 0.83282-8.3282 2.5679-10.202 1.5962-1.6656 3.4701-2.3596 6.8014-2.3596 5.5521 0 8.3976 3.4007 8.3976 9.2304v9.508c0 3.0537-0.41641 4.6499-1.4574 6.1074-1.2492 1.735-3.6089 2.6373-7.1484 2.6373-3.3313 0-5.2051-0.55522-6.6626-2.1514-1.735-1.9432-2.4985-4.8581-2.4985-10.41z" style="white-space:pre"/>
  <path d="m-81.126 259.75c0 11.382 3.6089 16.24 13.672 16.24 3.2619 0 5.9685-0.41641 8.2588-1.3186 1.8044-0.62462 1.6656-1.1798 1.5268-1.8738l-0.48581-1.5962c-0.2082-0.62462-0.76342-0.83282-1.6656-0.48582-2.2903 0.90223-4.8581 1.388-7.6342 1.388-6.5932 0-8.814-2.8455-9.0916-11.174h17.906c1.9432 0 2.5679-0.69402 2.5679-2.6373v-5.6909c0-4.3723-0.90222-7.0096-3.0537-9.0222-2.0126-1.8738-4.9969-2.8455-8.9528-2.8455-9.508 0-13.048 5.0663-13.048 16.24zm4.5805-2.7761c0-9.7162 2.5679-12.353 8.5364-12.353 2.6373 0 4.5805 0.76341 5.7603 2.2208 1.1798 1.388 1.5962 3.1231 1.5962 6.4544v2.6373c0 0.97162-0.2082 1.041-0.97162 1.041z" style="white-space:pre"/>
  <path d="m-48.299 265.58c0 3.5395 1.041 6.1768 3.1231 7.9118 2.0126 1.6656 5.1357 2.4985 9.4386 2.4985 4.7193 0 7.426-0.76342 9.4386-2.4985s3.0537-4.3723 3.0537-7.9118v-23.319c0-0.62461-0.27761-0.90222-0.76342-0.90222h-2.9149c-0.48581 0-0.83282 0.34701-0.83282 0.90222v22.764c0 2.7761-0.41641 4.0253-1.5962 5.1357-1.388 1.3186-3.5395 1.9432-6.3849 1.9432-2.9843 0-5.0663-0.55522-6.2461-1.6656-1.3186-1.1104-1.8044-2.6373-1.8044-5.4133v-22.694c0-0.62461-0.34701-0.97162-0.97162-0.97162h-2.5679c-0.55521 0-0.97162 0.48581-0.97162 1.1104z" style="white-space:pre"/>
  <path d="m-17.762 244.55c0 0.55522 0.2082 0.76342 0.69402 0.76342h4.2335v19.294c0 3.5395 0.76342 6.1768 2.2903 7.9812 1.5962 1.8738 4.1641 2.7761 7.773 2.7761h3.2619c0.55521 0 0.83282-0.2776 0.83282-0.76341v-2.3597c0-0.69402-0.41641-0.76342-0.83282-0.76342h-2.4985c-2.4985 0-4.1641-0.55521-5.0663-1.735-0.83282-1.041-1.2492-2.9149-1.2492-5.6909v-18.738h8.12c0.48581 0 0.69402-0.2082 0.69402-0.69401v-2.5679c0-0.48582-0.2082-0.69402-0.69402-0.69402h-8.12v-7.8424c0-0.55522-0.27761-0.83282-0.76342-0.83282h-2.9149c-0.48581 0-0.83282 0.34701-0.83282 0.83282v7.8424l-4.2335 0.90222c-0.48581 0.0694-0.69402 0.34701-0.69402 0.90222z" style="white-space:pre"/>
  <path d="m6.1117 273.14c-0.069402 0.0694-0.069402 0.1388-0.069402 0.20821 0 0.41641 0.27761 0.76341 0.90222 0.97162 2.2209 0.90222 6.0379 1.6656 9.4386 1.6656 4.7887 0 8.0506-1.1798 9.855-3.4701 1.3186-1.5962 1.9432-3.7477 1.9432-6.4544v-0.69402c0-2.5679-0.55521-4.5805-1.735-6.1073-1.1798-1.4574-3.6783-2.5679-7.5648-3.3313l-1.8044-0.34701c-3.1231-0.62461-4.5111-1.1798-5.4133-2.082-0.76342-0.76341-1.1104-1.8738-1.1104-3.4007v-0.48581c0-1.5962 0.48581-2.7761 1.388-3.6089 0.97162-0.90222 2.7761-1.388 5.4827-1.388 2.082 0 4.3723 0.347 6.8708 1.041 0.90222 0.2082 1.388-0.0694 1.5962-0.90222l0.41641-1.8044c0.1388-0.62462-0.2082-1.041-1.041-1.2492-2.4291-0.62462-4.9969-0.97163-7.773-0.97163-7.426 0-11.104 2.9843-11.104 9.0222v0.69401c0 3.4701 1.1798 5.8991 3.5395 7.2178 1.2492 0.76342 3.0537 1.3186 5.4133 1.735l1.9432 0.34701c2.4291 0.48581 4.0253 0.97162 4.8581 1.4574 1.388 0.90222 1.8738 2.082 1.8738 4.6499v0.41641c0 2.0126-0.55521 3.5395-1.735 4.4417-1.1798 0.90223-3.1231 1.388-5.8991 1.388s-5.5521-0.55522-8.3976-1.6656c-0.69402-0.27761-1.1104-0.0694-1.3186 0.69401z" style="white-space:pre"/>
  <path d="m34.08 259.26c0 6.5932 1.041 11.035 4.0253 13.742 2.1514 2.0126 5.3439 2.9843 9.5774 2.9843 2.7067 0 5.9685-0.62462 7.9118-1.388 1.388-0.55522 1.4574-0.83282 1.1798-1.735l-0.48581-1.5962c-0.2082-0.62462-0.76342-0.83282-1.6656-0.48581-2.2209 0.90222-4.4417 1.3186-6.732 1.3186-3.2619 0-5.6215-0.90222-7.0096-2.6373-1.6656-2.0126-2.2209-5.2051-2.2209-10.688v-1.1798c0-3.2619 0-4.8581 0.83282-7.5648 0.48581-1.388 1.1104-2.4985 1.9432-3.2619 1.4574-1.4574 3.5395-2.1514 6.2461-2.1514 2.5679 0 5.0663 0.76341 7.6342 2.3596 0.55521 0.34701 0.97162 0.27761 1.1798-0.1388l1.1798-1.9432c0.0694-0.2082 0.1388-0.34701 0.1388-0.55521 0-0.20821-0.0694-0.41641-0.2082-0.55521-2.2209-1.6656-6.2461-3.0537-9.9244-3.0537-4.0253 0-7.1484 1.041-9.3692 3.1231-2.8455 2.6373-4.2335 7.0096-4.2335 13.117z" style="white-space:pre"/>
  <path d="m64.201 274.32c0 0.76342 0.27761 1.041 1.1104 1.041h2.1515c0.90222 0 1.2492-0.2082 1.2492-1.041v-21.376c0-2.3597 0.41641-4.1641 1.2492-5.4133 1.3186-1.9432 3.6089-2.9149 6.8014-2.9149 2.3597 0 4.2335 0.41641 5.6215 1.3186 2.2903 1.4574 3.1925 3.7477 3.1925 8.12v20.335c0 0.76342 0.34701 0.97162 1.2492 0.97162h2.0126c0.90222 0 1.2492-0.1388 1.2492-0.97162v-20.057c0-4.0947-0.55521-7.079-1.6656-8.9528-1.8044-3.1231-5.4133-4.6499-10.757-4.6499-2.5679 0-4.7887 0.48582-6.5238 1.5268-1.041 0.62462-1.8044 1.3186-2.4291 2.082v-15.199c0-0.48581-0.27761-0.76341-0.83282-0.76341h-2.8455c-0.55521 0-0.83282 0.2776-0.83282 0.76341z" style="white-space:pre"/>
 </g>
</svg>
