<svg width="264.58mm" height="21.577mm" version="1.1" viewBox="0 0 264.58 21.577" xmlns="http://www.w3.org/2000/svg">
 <defs>
  <clipPath id="c">
   <path d="m122 310.14h597.9v45.337h-597.9z"/>
  </clipPath>
  <clipPath id="b">
   <path d="m142.98 310.14h555.92v45.337h-555.92z"/>
  </clipPath>
  <clipPath id="a">
   <path d="m122 310.14h597.9v45.337h-597.9z"/>
  </clipPath>
 </defs>
 <g transform="translate(-66.739 -92.164)">
  <g transform="matrix(.47593 0 0 -.47593 -1.3114 261.35)">
   <g clip-path="url(#c)">
    <g transform="translate(697.43 310.14)">
     <path d="m0 0h-145.82c-0.813 0-1.473 0.66-1.473 1.474v42.39c0 0.814 0.66 1.473 1.473 1.473h145.82c0.814 0 1.473-0.659 1.473-1.473v-42.39c0-0.814-0.659-1.474-1.473-1.474" fill="#d50032"/>
    </g>
    <g transform="translate(670.2 339.12)">
     <path d="m0 0c-0.027-0.644 0.14-1.037 0.386-1.382 0.273-0.394 0.665-0.723 1.158-0.98 0.551-0.287 1.197-0.512 1.926-0.671 0.797-0.174 1.612-0.335 2.429-0.479 1.475-0.233 2.934-0.527 4.331-0.873 1.461-0.363 2.756-0.904 3.853-1.613 1.139-0.738 2.048-1.721 2.696-2.919 0.655-1.208 0.948-2.749 0.869-4.577-0.08-1.775-0.534-3.292-1.355-4.507-0.804-1.193-1.84-2.163-3.081-2.892-1.219-0.713-2.421-1.24-3.91-1.517-1.46-0.27-3.093-0.354-4.521-0.292-3.544 0.156-8.775 2.192-11.4 5.782-0.208 0.287-0.463 0.778 0.098 1.353 0.565 0.572 3.261 3.315 3.261 3.315 0.544 0.576 1.073 0.168 1.3-0.162 1.533-2.244 4.591-3.92 6.995-4.024 1.264-0.056 1.414-6e-3 2.204 0.099 0.715 0.093 1.351 0.278 1.946 0.55 0.545 0.247 1.003 0.578 1.361 1.038 0.333 0.427 0.573 0.964 0.573 1.729 0 0.675-0.139 1.213-0.451 1.648-0.339 0.475-0.806 0.84-1.364 1.129-0.631 0.329-1.354 0.536-2.153 0.686-0.856 0.162-1.708 0.303-2.535 0.423-1.365 0.173-2.724 0.452-4.034 0.827-1.354 0.385-2.567 0.932-3.601 1.623-1.074 0.717-1.941 1.646-2.579 2.763-0.648 1.145-0.946 2.442-0.875 4.079 0.071 1.652 0.483 3.101 1.219 4.312 0.728 1.198 1.682 2.185 2.841 2.937 1.131 0.733 2.435 1.272 3.873 1.599 2.795 0.634 5.594 0.527 8.367-0.35 2.99-0.946 5.332-3.186 6.437-4.811 0.204-0.298 0.408-0.9-0.01-1.339-0.449-0.472-3.033-3.04-3.033-3.04-0.566-0.544-1.149-0.418-1.475 0.057-1.616 2.38-3.7 3.447-6.118 3.607-2.594 0.171-5.508-0.411-5.628-3.128" fill="#fff"/>
    </g>
    <g transform="translate(641 347.93)">
     <path d="m0 0c0.938 0 1.161-0.303 1.329-0.899l5.704-18.178 5.983 18.015c0.218 0.733 0.431 1.062 1.387 1.062h4.48c0.497 0 1.08-0.379 0.824-1.21l-9.781-28.731c-0.183-0.489-0.325-0.982-1.113-0.982h-2.745c-0.927 0-1.082 0.399-1.31 1.004l-5.578 16.523-5.264-16.523c-0.225-0.605-0.384-1.004-1.307-1.004h-2.961c-0.944 0-1.039 0.507-1.207 0.982l-9.783 28.731c-0.255 0.831 0.328 1.21 0.824 1.21h4.48c0.958 0 1.169-0.329 1.388-1.062l5.983-18.015 5.696 18.193c0.165 0.598 0.398 0.884 1.336 0.884z" fill="#fff"/>
    </g>
    <g transform="translate(614.47 323.35)">
     <path d="m0 0h-13.447v5.905h11.3c0.555 0 1.004 0.449 1.004 1.003l1e-3 4.343c0 0.554-0.45 1.007-1.004 1.007h-11.301v5.964h13.376c0.555 0 1.003 0.512 1.003 1.065l2e-3 4.342c0 0.555-0.448 0.955-1.005 0.955h-18.72c-0.552 0-1.004-0.4-1.004-0.955v-28.975c0-0.554 0.452-0.993 1.004-0.993h18.791c0.553 0 1.003 0.439 1.003 0.989l1e-3 4.346c0 0.551-0.451 1.004-1.004 1.004" fill="#fff"/>
    </g>
    <g transform="translate(585.62 317.01)">
     <path d="m0 0c-0.869 0-1.094 0.044-1.694 0.693-0.961 1.037-15.484 17.343-15.484 17.343v-17.049c0-0.554-0.45-0.987-1.004-0.987h-4.327c-0.554 0-1.004 0.433-1.004 0.987v28.964c0 0.554 0.45 0.961 1.004 0.961h1.476c0.636 0 1.125-0.137 1.541-0.584 0.412-0.449 15.4-17.413 15.4-17.413v17.036c0 0.554 0.45 0.972 1.004 0.972h4.327c0.554 0 1.004-0.418 1.004-0.972v-28.964c0-0.554-0.45-0.987-1.004-0.987z" fill="#fff"/>
    </g>
    <g transform="translate(181.82 310.93)">
     <path d="m0 0-14.677 9.645-22.686-9.616 13.359 15.68-14.83 9.731h23.128l15.706 18.408v-18.408h22.416l-22.416-9.55z" fill="#1d0f44"/>
    </g>
    <g transform="translate(209.66 345.8)">
     <path d="m0 0c0.785 0 1.423 0.639 1.423 1.424l3e-3 6.165c0 0.785-0.639 1.423-1.424 1.423h-24.034v-9.014z" fill="#1d0f44"/>
    </g>
    <g transform="translate(209.66 310.85)">
     <path d="m0 0c0.785 0 1.423 0.638 1.423 1.423l3e-3 6.165c0 0.785-0.639 1.424-1.424 1.424h-24.034v-9.014z" fill="#1d0f44"/>
    </g>
    <g transform="translate(532.22 354.83)">
     <path d="m0 0h-30.027c-0.787 0-1.429-0.641-1.429-1.428v-6.174c0-0.787 0.642-1.428 1.429-1.428h10.498v-33.564c0-0.788 0.641-1.428 1.429-1.428h6.174c0.788 0 1.428 0.64 1.428 1.428v33.564h10.498c0.788 0 1.428 0.641 1.428 1.428v6.174c0 0.787-0.64 1.428-1.428 1.428" fill="#1d0f44"/>
    </g>
   </g>
   <g clip-path="url(#b)">
    <g transform="translate(404.01 336.01)">
     <path d="m0 0c-0.325-0.861-0.783-1.614-1.36-2.238-0.569-0.618-1.22-1.007-1.999-1.357-0.767-0.345-2.139-0.553-4.813-0.553h-6.935v13.936h9.099c0.972 0 1.865-0.177 2.656-0.526 0.799-0.352 1.495-0.835 2.065-1.436 0.564-0.596 1.005-1.328 1.307-2.173 0.317-0.879 0.476-1.834 0.476-2.838 0-0.994-0.167-1.941-0.496-2.815m8.514 8.953c-0.712 1.938-1.775 3.656-3.159 5.107-1.381 1.444-3.078 2.61-5.046 3.465-1.974 0.858-4.222 1.294-6.679 1.294h-16.335c-0.788 0-1.428-0.641-1.428-1.428v-41.123c0-0.789 0.64-1.429 1.428-1.429h6.172c0.788 0 1.428 0.64 1.428 1.429l-2e-3 10.535h8.737c2.455 0 4.689 0.424 6.644 1.262 1.952 0.837 3.641 1.994 5.023 3.44 1.378 1.442 2.447 3.132 3.178 5.024 0.726 1.879 1.094 4.264 1.094 6.351 0 2.116-0.355 4.159-1.055 6.073" fill="#1d0f44"/>
    </g>
    <g transform="translate(351.11 342.2)">
     <path d="m0 0c-0.04-0.91 0.196-1.463 0.542-1.952 0.389-0.554 0.94-1.02 1.636-1.383 0.774-0.403 1.688-0.721 2.716-0.945 1.126-0.245 2.278-0.473 3.427-0.677 2.085-0.329 4.143-0.743 6.115-1.231 2.06-0.512 3.887-1.277 5.435-2.278 1.608-1.041 2.886-2.426 3.804-4.117 0.925-1.706 1.337-3.879 1.224-6.458-0.11-2.505-0.752-4.644-1.91-6.362-1.133-1.682-2.596-3.053-4.349-4.079-1.719-1.006-3.415-1.749-5.516-2.14-2.06-0.382-4.366-0.5-6.38-0.412-5 0.219-12.381 3.09-16.084 8.157-0.295 0.406-0.656 1.099 0.139 1.909 0.796 0.808 4.6 4.679 4.6 4.679 0.768 0.81 1.514 0.237 1.832-0.228 2.167-3.168 6.481-5.532 9.872-5.68 1.782-0.078 1.995-8e-3 3.109 0.139 1.011 0.132 1.907 0.395 2.745 0.778 0.77 0.349 1.415 0.816 1.923 1.464 0.469 0.602 0.743 1.454 0.81 2.439 0.064 0.95-0.2 1.713-0.638 2.327-0.477 0.669-1.136 1.183-1.927 1.593-0.889 0.463-1.908 0.757-3.036 0.968-1.208 0.227-2.412 0.428-3.578 0.596-1.925 0.245-3.844 0.638-5.691 1.166-1.911 0.545-3.621 1.316-5.08 2.292-1.517 1.012-2.742 2.324-3.639 3.9-0.917 1.614-1.337 3.444-1.237 5.756 0.101 2.328 0.681 4.374 1.72 6.084 1.027 1.691 2.376 3.083 4.01 4.143 1.596 1.035 3.436 1.795 5.466 2.256 3.945 0.895 7.893 0.746 11.805-0.493 4.218-1.335 7.603-4.573 9.165-6.866 0.286-0.42 0.57-1.085-0.039-1.772-0.611-0.687-4.334-4.331-4.334-4.331-0.804-0.768-1.625-0.589-2.08 0.082-2.285 3.357-5.225 4.863-8.637 5.088-3.659 0.242-7.772-0.578-7.94-4.412" fill="#1d0f44"/>
    </g>
   </g>
   <g clip-path="url(#a)">
    <g transform="translate(328.66 326.71)">
     <path d="m0 0c-0.691-1.696-1.645-3.132-2.834-4.268-1.19-1.139-2.588-2.009-4.156-2.586-1.593-0.588-3.318-0.886-5.127-0.886-1.849 0-3.595 0.298-5.187 0.886-1.562 0.575-2.934 1.44-4.08 2.57-1.155 1.139-2.093 2.58-2.787 4.284-0.701 1.715-1.055 3.745-1.055 6.035 0 2.289 0.354 4.32 1.055 6.035 0.692 1.7 1.639 3.139 2.811 4.277 1.168 1.136 2.557 2.014 4.131 2.612 1.59 0.605 3.331 0.911 5.174 0.911 1.802 0 3.523-0.306 5.111-0.911 1.568-0.595 2.955-1.482 4.125-2.635 1.175-1.16 2.124-2.613 2.819-4.315 0.7-1.717 1.054-3.727 1.054-5.974 0-2.288-0.354-4.319-1.054-6.035m3.602 22.793c-2.034 1.939-4.429 3.432-7.123 4.441-2.674 1-5.541 1.508-8.518 1.508-2.94 0-5.795-0.508-8.486-1.508-2.713-1.006-5.129-2.5-7.18-4.437-2.053-1.939-3.707-4.345-4.914-7.154-1.209-2.806-1.822-6.019-1.822-9.55 0-3.568 0.603-6.79 1.79-9.575 1.187-2.789 2.82-5.186 4.853-7.124 2.029-1.937 4.426-3.431 7.124-4.441 2.673-1.001 5.539-1.508 8.518-1.508 3.26 0 6.302 0.551 9.042 1.637 2.757 1.091 5.156 2.663 7.131 4.669 1.964 1.996 3.521 4.412 4.627 7.182 1.101 2.759 1.659 5.841 1.659 9.16 0 3.529-0.613 6.742-1.82 9.551-1.209 2.807-2.851 5.212-4.881 7.149" fill="#1d0f44"/>
    </g>
    <g transform="translate(451.12 326.71)">
     <path d="m0 0c-0.692-1.696-1.645-3.132-2.834-4.268-1.191-1.139-2.589-2.009-4.156-2.586-1.593-0.588-3.318-0.886-5.127-0.886-1.849 0-3.595 0.298-5.187 0.886-1.562 0.575-2.935 1.44-4.08 2.57-1.156 1.139-2.094 2.58-2.787 4.284-0.701 1.715-1.056 3.745-1.056 6.035 0 2.289 0.355 4.32 1.056 6.035 0.692 1.7 1.638 3.139 2.81 4.277 1.169 1.136 2.558 2.014 4.131 2.612 1.59 0.605 3.331 0.911 5.174 0.911 1.803 0 3.524-0.306 5.112-0.911 1.567-0.595 2.955-1.482 4.125-2.635 1.175-1.16 2.124-2.613 2.819-4.315 0.699-1.717 1.054-3.727 1.054-5.974 0-2.288-0.355-4.319-1.054-6.035m3.602 22.793c-2.034 1.939-4.43 3.432-7.123 4.441-2.674 1-5.541 1.508-8.519 1.508-2.94 0-5.794-0.508-8.485-1.508-2.713-1.006-5.129-2.5-7.18-4.437-2.053-1.939-3.707-4.345-4.915-7.154-1.209-2.806-1.821-6.019-1.821-9.55 0-3.568 0.603-6.79 1.79-9.575 1.187-2.789 2.82-5.186 4.852-7.124 2.03-1.937 4.427-3.431 7.124-4.441 2.674-1.001 5.539-1.508 8.518-1.508 3.26 0 6.303 0.551 9.043 1.637 2.757 1.091 5.155 2.663 7.13 4.669 1.965 1.996 3.522 4.412 4.628 7.182 1.1 2.759 1.659 5.841 1.659 9.16 0 3.529-0.613 6.742-1.82 9.551-1.209 2.807-2.851 5.212-4.881 7.149" fill="#1d0f44"/>
    </g>
    <g transform="translate(249.2 354.83)">
     <path d="m0 0h-6.192c-0.788 0-1.429-0.641-1.429-1.428v-27.222c0-1.16-0.194-2.177-0.578-3.024-0.381-0.841-0.907-1.554-1.566-2.119-0.679-0.582-1.498-1.034-2.431-1.346-0.964-0.321-2.591-0.483-3.724-0.483-1.138 0-2.857 0.163-3.842 0.487-0.956 0.312-1.795 0.767-2.494 1.353-0.673 0.563-1.205 1.272-1.584 2.108-0.384 0.848-0.578 1.865-0.578 3.024v27.222c0 0.787-0.641 1.428-1.428 1.428h-6.171c-0.788 0-1.428-0.641-1.428-1.428v-27.439c0-2.517 0.471-4.78 1.402-6.725 0.926-1.937 2.217-3.611 3.837-4.972 1.605-1.348 3.486-2.377 5.59-3.057 2.075-0.669 4.328-1.009 6.696-1.009 2.329 0 4.562 0.34 6.637 1.009 2.11 0.682 3.976 1.715 5.545 3.069 1.574 1.359 2.841 3.028 3.764 4.96 0.93 1.948 1.403 4.211 1.403 6.725v27.439c0 0.787-0.642 1.428-1.429 1.428" fill="#1d0f44"/>
    </g>
    <g transform="translate(292.6 313.24)">
     <path d="m0 0-10.027 12.438s8.096 2.945 8.096 13.214c0 2.115-0.356 4.158-1.056 6.073-0.712 1.937-1.775 3.655-3.159 5.107-1.38 1.443-3.078 2.609-5.046 3.465-1.974 0.858-4.221 1.293-6.679 1.293h-16.317c-0.788 0-1.428-0.641-1.428-1.427v-41.124c0-0.788 0.64-1.429 1.428-1.429h6.154c0.788 0 1.428 0.641 1.428 1.429l-1e-3 33.52h9.139c0.972 0 1.865-0.176 2.656-0.525 0.799-0.353 1.495-0.836 2.064-1.437 0.565-0.596 1.005-1.328 1.308-2.173 0.315-0.879 0.475-1.834 0.475-2.838 0-0.993-0.166-1.941-0.495-2.815-0.325-0.86-0.783-1.614-1.36-2.238-0.569-0.618-1.22-1.007-2-1.357-0.768-0.345-2.139-0.552-4.813-0.552h-3.822c-0.757 0-1.337-0.681-0.758-1.617l14.293-18.799c0.266-0.374 0.7-0.599 1.162-0.599h7.892c1.163 0 1.938 1.069 0.866 2.391" fill="#1d0f44"/>
    </g>
    <g transform="translate(501.29 313.24)">
     <path d="m0 0-10.027 12.438s8.096 2.945 8.096 13.214c0 2.115-0.356 4.158-1.056 6.073-0.711 1.937-1.775 3.655-3.159 5.107-1.38 1.443-3.078 2.609-5.046 3.465-1.974 0.858-4.221 1.293-6.679 1.293h-16.317c-0.787 0-1.428-0.641-1.428-1.427v-41.124c0-0.788 0.641-1.429 1.428-1.429h6.155c0.787 0 1.427 0.641 1.427 1.429l-1e-3 33.52h9.139c0.972 0 1.865-0.176 2.656-0.525 0.799-0.353 1.495-0.836 2.065-1.437 0.564-0.596 1.004-1.328 1.307-2.173 0.316-0.879 0.475-1.834 0.475-2.838 0-0.993-0.166-1.941-0.495-2.815-0.325-0.86-0.783-1.614-1.36-2.238-0.569-0.618-1.22-1.007-2-1.357-0.768-0.345-2.138-0.552-4.812-0.552h-3.823c-0.757 0-1.337-0.681-0.758-1.617l14.293-18.799c0.266-0.374 0.7-0.599 1.162-0.599h7.892c1.163 0 1.938 1.069 0.866 2.391" fill="#1d0f44"/>
    </g>
   </g>
  </g>
 </g>
</svg>
