<svg width="800pt" height="328.87pt" version="1.1" viewBox="0 0 800 328.87" xmlns="http://www.w3.org/2000/svg">
 <g transform="matrix(1.7446 0 0 1.7446 -156.19 -253.38)" fill="#fff">
  <path d="m479.36 145.24v25.645l52.905-6.5 15.81 129.64-323.98 39.72-4.25-34.745h-130.32v-153.76z" fill="#fff"/>
 </g>
 <g transform="matrix(1.7446 0 0 1.7446 -156.19 -253.38)">
  <path d="m157.18 235.2-1.192-5.577q-0.298-1.3623-0.298-1.4049l-0.17029-0.72373q-0.21286-1.192-0.42573-2.682-0.55344 1.7455-1.4475 3.7889l-2.9801 6.5987zm-2.9801-21.073h7.961l2.5543 10.643h-1.49l5.4918 22.649h-8.5145l-1.4049-5.8324h-11.111l-2.682 5.8324h-8.9402l15.794-31.929h2.6395z" stroke-width="1.0643" style="white-space:pre"/>
  <path d="m203.82 240.39-0.85147 7.0246h-18.264l3.9168-31.93h8.0889l-3.0653 24.905z" stroke-width="1.0643" style="white-space:pre"/>
  <path d="m237.61 247.41h-8.5147l-1.4049-5.8326h-11.112l-2.6821 5.8326h-8.9404l15.795-31.93h9.1107zm-11.537-12.219-1.192-5.5771q-0.0851-0.51088-0.21287-0.97919-0.12772-0.51088-0.21286-0.76632-0.0426-0.25544-0.0426-0.38316-0.25544-1.5326-0.42573-2.6821-0.17029 0.46831-0.38316 1.1069-0.46831 1.4475-1.0643 2.6821l-2.9801 6.5989z" stroke-width="1.0643" style="white-space:pre"/>
  <path d="m297.39 219.73-1.2751 10.413q-0.14168 1.3459-0.49587 1.3459-0.21252 0-0.49587-0.21251l-0.77922-0.63755q-1.9126-1.5584-5.1712-2.4794-3.1877-0.99173-6.3755-0.99173-7.2255 0-11.901 4.392-4.6753 4.3212-4.6753 11.051 0 6.3046 4.0378 10.342 4.1086 3.967 10.484 3.967 3.2586 0 6.8005-0.85006 3.6128-0.9209 4.8878-2.0543 0.21251-0.28336 0.42503-0.28336 0.28335 0 0.28335 0.35419 0 0.42503-0.0708 0.77923l-0.99174 11.547q0 0.5667-0.77923 0.9209-1.9126 0.9209-5.6671 1.6293-3.6836 0.70839-6.8005 0.70839-11.547 0-18.985-7.438t-7.438-18.985q0-12.113 8.4298-20.472 8.4298-8.3589 20.685-8.3589 6.2338 0 12.68 2.6919 3.1877 1.3459 3.1877 2.4085z" stroke-width="1.771" style="white-space:pre"/>
  <path d="m350.93 268.61h-14.168l-2.3377-9.7049h-18.489l-4.4628 9.7049h-14.876l26.281-53.129h15.159zm-19.197-20.331-1.9835-9.2798q-0.14167-0.85006-0.35419-1.6293-0.21252-0.85006-0.35419-1.2751-0.0708-0.42503-0.0708-0.63754-0.42503-2.5502-0.70839-4.4628-0.28335 0.77922-0.63754 1.8418-0.77922 2.4085-1.771 4.4628l-4.9587 10.98z" stroke-width="1.771" style="white-space:pre"/>
  <path d="m401.27 268.61h-15.655l-12.68-21.039-2.5502 21.039h-13.459l6.5171-53.129h17.285q18.772 0 18.772 16.151 0 8.1464-4.6753 12.538-2.0543 1.9835-6.588 3.8253zm-15.443-36.34q0-2.621-1.9835-3.967-1.9835-1.4168-5.7379-1.4168h-2.5502l-1.7001 12.113h2.4085q4.2503 0 6.8713-1.8418 2.6919-1.8418 2.6919-4.8878z" stroke-width="1.771" style="white-space:pre"/>
  <path d="m444.09 215.48-1.4168 11.688h-11.192l-5.1004 41.44h-13.459l5.1712-41.44h-11.476l1.4168-11.688z" stroke-width="1.771" style="white-space:pre"/>
  <path d="m479.8 215.48-1.4168 11.688h-15.655l-1.1334 9.1382h15.089l-1.4168 11.688h-15.159l-1.0626 8.9256h16.293l-1.4876 11.688h-29.681l6.5171-53.129z" stroke-width="1.771" style="white-space:pre"/>
  <path d="m141.55 171.48-0.85574 7.0599h-9.456l-0.6846 5.5196h9.1137l-0.85574 7.0599h-9.1565l-0.64181 5.3912h9.8411l-0.89854 7.0599h-17.928l3.9364-32.09h2.824l0.94132-1.3264h11.98l-0.98411 1.3264z" stroke-width="1.0697" style="white-space:pre"/>
  <path d="m176.09 171.48-17.2 32.09h-6.8887l-8.3862-32.09h8.6429l3.6797 14.633q0.77016 3.0806 0.98409 5.8618 0.25672-0.72737 0.55623-1.6259 0.51344-1.198 1.2836-2.7811l8.215-16.088z" stroke-width="1.0697" style="white-space:pre"/>
  <path d="m197.07 171.48-0.85574 7.0599h-9.456l-0.6846 5.5196h9.1137l-0.85574 7.0599h-9.1565l-0.64181 5.3912h9.8411l-0.89853 7.0599h-17.928l3.9364-32.09h2.824l0.94132-1.3264h11.98l-0.98411 1.3264z" stroke-width="1.0697" style="white-space:pre"/>
  <path d="m234.43 171.48-3.9364 32.09h-8.8996l-8.5573-14.376q-0.98409-1.7115-1.3692-2.5244-1.2836-2.4388-2.5672-5.4339v1.4548q0 3.4657-0.3423 6.0757l-1.797 14.804h-8.1295l3.9364-32.09h8.7713l9.1563 15.489 1.3692 2.5672 1.2408 2.4816 0.6418 1.198q0-1.0269 0.0428-1.3264 0.0856-2.011 0.34229-4.1931l2.011-16.216z" stroke-width="1.0697" style="white-space:pre"/>
  <path d="m259.1 171.48-0.85573 7.0598h-9.4558l-0.68459 5.5195h9.1136l-0.85573 7.0598h-9.1564l-0.6418 5.3911h9.8409l-0.89852 7.0598h-17.928l3.9364-32.09z" stroke-width="1.0697" style="white-space:pre"/>
  <path d="m300.25 203.57h-8.1295l-0.38508-14.376v-1.0697q0-1.1552 0.0428-1.7542 0.0428-1.1552 0.34229-3.5513-0.12836 0.2995-0.25672 0.59901-0.0856 0.25672-0.17115 0.51344l-0.12836 0.38508q-1.0697 2.5244-1.7115 3.7652l-7.8728 15.489h-4.2787l-2.7811-12.408q-0.0856-0.38508-0.59901-3.0806-0.38508-2.3961-0.72738-5.7762-0.0856 0.55622-0.25672 1.3264-0.12836 0.72738-0.17114 0.85574-0.55623 2.6528-1.2836 5.1772l-4.1075 13.906h-8.3862l10.14-32.09h8.0439l2.4388 10.825q0.17115 0.68458 0.55623 2.8239 0.51344 2.7811 0.85573 5.605 0.17115-0.47065 0.59902-1.6259 0.0428-0.0856 0.17114-0.42787 0.17115-0.34229 0.29951-0.6418 0.21393-0.51344 0.47065-1.1124l0.29951-0.59902 7.5732-14.847h8.3862z" stroke-width="1.0697" style="white-space:pre"/>
  <path d="m327.15 171.48-0.85572 7.0598h-9.4558l-0.6846 5.5195h9.1136l-0.85572 7.0598h-9.1564l-0.6418 5.3911h9.8409l-0.89852 7.0598h-17.928l3.9364-32.09z" stroke-width="1.0697" style="white-space:pre"/>
  <path d="m364.46 171.48-3.9364 32.09h-8.8996l-8.5573-14.376q-0.98411-1.7115-1.3692-2.5244-1.2836-2.4388-2.5672-5.4339v1.4548q0 3.4657-0.3423 6.0757l-1.797 14.804h-8.1295l3.9364-32.09h8.7713l9.1564 15.489 1.3692 2.5672 1.2408 2.4816 0.6418 1.198q0-1.0269 0.0428-1.3264 0.0856-2.011 0.3423-4.1931l2.011-16.216z" stroke-width="1.0697" style="white-space:pre"/>
  <path d="m390.1 171.48-0.85573 7.0598h-6.7603l-3.0806 25.03h-8.1295l3.1234-25.03h-6.9314l0.85574-7.0598z" stroke-width="1.0697" style="white-space:pre"/>
 </g>
</svg>
