<svg width="800" height="186.56" clip-rule="evenodd" fill-rule="evenodd" stroke-linejoin="round" stroke-miterlimit="2" version="1.1" viewBox="0 0 800 186.56" xmlns="http://www.w3.org/2000/svg">
 <path d="m117.65 139.92h28.497v-1.968l-17.309-14.949 18.292-22.424 19.277 28.524-10.031 8.8492v1.968h64.326v-1.968l-12.423-10.726-3.7802-5.5818 17.183-21.065 19.277 28.524-10.031 8.8492v1.968h48.284a93.282 93.282 0 0 1-161.56 0zm4.4998-100.32a93.266 93.266 0 0 1 152.56 0h-24.701v1.9653l17.505 14.555-18.096 22.032-18.885-27.93 9.8346-8.6559v-1.9653h-64.917v1.9653l14.361 11.942 2.3895 3.5306-17.344 21.114-18.877-27.93 9.8319-8.6559v-1.9653zm-16.995 53.678a93.277 93.277 0 0 1 9.4023-40.81l29.821 43.978-20.848 25.374-10.31 9.3943a93.247 93.247 0 0 1-8.0626-37.937zm186.56 0a93.245 93.245 0 0 1-7.2464 36.039l-0.62557-0.61214-31.472-46.421 20.459-24.982 8.2264-7.3135a93.234 93.234 0 0 1 10.659 43.29zm-90.047 24.185-23.847-35.182 17.237-21.049 23.876 35.212-17.264 21.017" fill="#c03" stroke-width="2.6848"/>
 <path d="m367.64 37.244c20.263 0 38.946 14.163 38.946 50.158 0 38.16-22.418 54.878-44.45 54.878-9.6386 0-16.917-2.36-22.029-6.8839v31.665l15.733 8.264v1.968h-62.941v-1.968l9.8346-8.264v-116.84l-10.621-8.6559v-1.9653h40.125l6.4893 14.555c5.708-10.031 14.949-16.915 28.916-16.915zm-17.505 95.793c8.8546 0 17.309-9.2466 17.309-41.306 0-30.293-6.8839-38.949-16.324-38.949-5.1146 0-8.2613 2.1667-11.013 6.1v70.614c2.752 2.556 5.8986 3.5413 10.031 3.5413zm132.58-95.205c5.1119 0 9.0479 0.39467 14.163 1.772l-1.38 36.782h-1.9653l-23.406-24.98c-4.1346 3.3426-7.0826 6.8839-9.4399 11.601v66.681l15.733 8.2639v1.968h-62.941v-1.968l9.8346-8.2639v-79.463l-10.621-8.6559v-1.9653h40.125l7.4746 16.719c4.524-10.031 12.393-18.491 22.424-18.491zm118.02 67.862 4.1347 1.7693c-7.0826 20.064-22.032 34.817-49.178 34.817-31.273 0-52.712-20.652-52.712-51.732 0-35.405 22.029-53.308 54.092-53.308 27.536 0 47.6 14.364 47.6 45.438v5.5093h-61.762c0.98534 25.57 11.411 37.961 27.144 37.961 16.324 0 24.588-9.0479 30.682-20.456zm-43.664-63.73c-8.264 0-14.359 10.229-14.359 41.502h26.161v-4.1293c-0.19868-27.342-3.1466-37.373-11.803-37.373zm135.53 33.832-29.901-33.241c-2.752-0.59067-4.328-0.78934-7.2759-0.78934-6.2933 0-13.177 4.5266-13.177 12.788 0 5.7026 2.3573 10.229 10.82 12.981l19.664 6.6853c18.491 6.1 29.506 14.753 29.506 32.065 0 23.21-22.228 35.996-44.456 35.996-13.768 0-26.746-2.164-41.5-5.3133l0.59066-38.157h1.9653l30.097 37.964c3.3426 0.78397 5.3079 0.97996 8.2559 0.97996 8.8546 0 14.753-5.8986 14.753-14.751 0-7.0826-3.5413-12.391-11.212-15.148l-19.666-7.2759c-19.277-7.0826-26.36-18.295-26.36-32.653 0-20.061 18.491-30.685 40.52-30.685 13.376 0 25.374 1.576 40.52 4.328l-1.1813 34.226h-1.9653zm97.763 0-29.898-33.241c-2.7546-0.59067-4.328-0.78934-7.2786-0.78934-6.2933 0-13.177 4.5266-13.177 12.788 0 5.7026 2.36 10.229 10.82 12.981l19.666 6.6853c18.488 6.1 29.504 14.753 29.504 32.065 0 23.21-22.228 35.996-44.453 35.996-13.768 0-26.749-2.164-41.502-5.3133l0.59067-38.157h1.9653l30.097 37.964c3.3426 0.78397 5.3079 0.97996 8.2586 0.97996 8.8519 0 14.751-5.8986 14.751-14.751 0-7.0826-3.5386-12.391-11.212-15.148l-19.666-7.2759c-19.277-7.0826-26.357-18.295-26.357-32.653 0-20.061 18.488-30.685 40.52-30.685 13.373 0 25.372 1.576 40.52 4.328l-1.1813 34.226h-1.9653m-692.61 29.898 4.1266 1.7693c-7.0799 20.064-22.026 34.817-49.173 34.817-31.273 0-52.709-20.652-52.709-51.732 0-35.405 22.029-53.308 54.092-53.308 27.536 0 47.6 14.364 47.6 45.438v5.5093h-61.765c0.97997 25.57 11.411 37.961 27.144 37.961 16.324 0 24.585-9.0479 30.685-20.456zm-43.666-63.73c-8.2639 0-14.359 10.229-14.359 41.502h26.156v-4.1293c-0.19331-27.342-3.1466-37.373-11.797-37.373" fill="#231f20" stroke-width="2.6848"/>
</svg>
