<svg clip-rule="evenodd" fill-rule="evenodd" stroke-linejoin="round" stroke-miterlimit="1.414" version="1.1" viewBox="0 0 400 399.95" xmlns="http://www.w3.org/2000/svg">
 <g transform="matrix(10.396 0 0 10.396 -8.7946 -7.3497)" fill-rule="nonzero">
  <path d="m20.08 39.18c10.599 0 19.244-8.64 19.244-19.239 0-10.595-8.645-19.234-19.244-19.234-10.597 0-19.234 8.639-19.234 19.234 0 10.599 8.637 19.239 19.234 19.239" fill="#6b3"/>
  <path d="m16.783 12.579c0.405-1.229 1.485-2.271 3.382-2.271h8.484l-0.181 0.596c-0.225 0.711-1.348 3.088-3.798 3.088h-8.375l0.488-1.413m7.028 6.472h-4.866l1.033-3.235h-4.275l-4.208 13.099h4.278l2.141-6.661h4.785l1.112-3.203m-1.815 7.634c0 1.263 0.963 2.23 2.232 2.23 1.263 0 2.267-0.967 2.267-2.23a2.256 2.256 0 0 0-2.267-2.274c-1.269 0-2.232 1.006-2.232 2.274" fill="#fff"/>
 </g>
</svg>
