<svg width="600pt" height="180.77pt" version="1.1" viewBox="0 0 600 180.77" xmlns="http://www.w3.org/2000/svg">
 <g transform="matrix(2.1624 0 0 2.1624 -24.348 -30.862)" fill="#fff">
  <path d="m111.2 29.94c-0.06-8.33 7.425-15.78 15.765-15.63 8.09-0.31 15.66 6.55 16.14 14.61v30.08c-0.29 3.14 2.78 5.93 5.89 5.47 2.73-0.22 4.885-2.8 4.745-5.5v-30.02c0.42-8.48 8.725-15.5 17.175-14.6 7.93 0.42 14.74 7.61 14.7 15.55v44.27h-10.78v-44.17c0.09-2.61-2.2202-4.91-4.8102-4.92-2.87-0.36-5.6 2.11-5.59 4.98l-0.2 30.92c-0.64 8.37-8.89 15.13-17.22 14.18-7.51-0.52-14.02-7.04-14.48-14.56l-0.17-30.63c0.05-4.09-5.23-6.34-8.35-3.96-1.98 1.3-2.215 3.83-2.195 5.99v42.17h-10.62z"/>
  <path d="m50.58 31.03c-0.06-8.22 7.19-15.63 15.44-15.63 7.34-0.08 14.68-0.05 22.02-0.01 9.7578 0 15.692 6.2687 15.73 15.64-0.06 13.39 0.05 29.74 0 43.13h-8.535c-0.02-5.68 0.01-11.365 0-17.045-12.03-0.02-24.04 0-36.07 0 0 5.68 0.01 11.365 0 17.045h-8.585c0-14.37-0.09-28.75 0-43.13m8.585-0.1305c-0.21 5.85 0.08 11.71 0 17.56 12.03 0.01 24.04 0.02 36.07 0-0.05-5.5 0.1-12.05 0-17.56 0-3.6445-3.0247-6.9629-6.7581-7.0497l-22.547 0.15c-3.55 0.17-6.755 3.309-6.765 6.8997z"/>
  <path d="m193.11 30.91c0-8.864 6.8954-15.525 15.88-15.525h64.06c8.476 0 15.68 7.1619 15.68 15.595v43.185h-12.795v-12.845l-70.055 0.02v12.825h-12.77v-43.255m12.77-0.02v17.58h70.055v-17.51c0-2.5828-2.149-2.725-3.885-2.725h-62.13c-1.73 0-3.9814 0.27433-4.04 2.655z"/>
  <path d="m11.26 31.97c-0.02-7.93 6.8202-15.11 14.75-15.45 1.0401-0.04113 2.0472-0.08025 3.1208-0.08025h15.104v6.4402h-17.255c-4.5-0.03-9.2402 3.6494-9.2402 8.13l-0.07975 13.2h26.575v6.43h-26.585l0.08975 23.55h-6.48z"/>
 </g>
 <g transform="matrix(1.0191 0 0 1.0191 129.75 147.7)" fill="#fff">
  <path transform="scale(.75)" d="m323.93 12.666-25.094 30.588h8.3359l6.2188-7.3867h28.559l6.2168 7.3871h8.3359l-25.092-30.588zm3.7402 4.6406 11.199 13.68h-22.398z" stroke-width="1.3333"/>
  <path d="m88.44 32.42v-22.85h26.086c6.3155 0 7.9616 3.7164 7.9616 5.842-0.10281 1.9383-1.1492 3.7906-2.9881 4.8578 2.92 0.44 6.19 1.9995 6.19 5.73 0 3.9612-3.1771 6.4197-6.8499 6.42-9.16 0.03-21.23 0.06-30.4 0m5.115-19.1v5.9295h21.08c2.4671 0 2.8553-1.8049 2.8553-2.9648 0-1.0892-0.59032-2.9648-2.8353-2.9648h-21.1m0 15.33h22.615c3.4104 0 4.4002-1.4376 4.4002-3.03 0-1.8819-1.2709-3.03-4.4002-3.03h-22.615z"/>
  <path d="m192.55 9.5852h5.005v18.895h24.885v3.96h-29.89z"/>
  <path d="m272.67 9.5297h25.33c6.0748 0 8.7737 2.1086 8.7737 7.0079 0 4.7612-3.4789 5.6499-6.4737 6.5626l9.99 9.3405h-5.57l-10.57-9.3405h-16.49v9.3405h-4.9898m4.9898-19.111v6.0802h21.44c1.5847 0 2.7012-1.3463 2.7012-2.9457-0.0255-1.4443-1.2331-3.1345-2.7012-3.1345z"/>
  <path d="m176.72 9.5852h5.0053v22.855h-5.0053z"/>
  <path d="m147.03 9.4995-18.82 22.941h6.252l4.6641-5.54h21.419l4.6626 5.54h6.252l-18.819-22.941zm2.8052 3.4805 8.3994 10.26h-16.799z"/>
  <path d="m42.651 9.4995-18.82 22.941h6.252l4.6641-5.54h21.419l4.6626 5.54h6.252l-18.819-22.941zm2.8052 3.4805 8.3994 10.26h-16.799z"/>
 </g>
</svg>
