<svg width="798.87mm" height="207.13mm" version="1.1" viewBox="0 0 798.87 207.13" xmlns="http://www.w3.org/2000/svg">
 <g transform="matrix(.35278 0 0 -.35278 869.85 207.13)">
  <path d="m-286.73 0h-2093.5c-47.227 0-85.512 38.285-85.512 85.511v416.11c0 47.227 38.285 85.511 85.512 85.511h2093.5c47.227 0 85.511-38.284 85.511-85.511v-416.11c0-47.226-38.284-85.511-85.511-85.511" fill="#006fe8"/>
 </g>
 <g transform="translate(-6.4e-7 .47843)">
  <g transform="translate(.0083994 590.21)">
   <g transform="matrix(.35278 0 0 -.35278 176.05 -502.79)">
    <path d="m0 0c0 7.788-6.31 14.104-14.104 14.104-7.789 0-14.099-6.316-14.099-14.104 0-7.789 6.31-14.099 14.099-14.099 7.794 0 14.104 6.31 14.104 14.099m-97.998 3.901v44.066c0 38.99 12.086 61.603 30.804 61.603 2.729 0 9.357-0.387 9.357-2.342 0-5.065-3.12-5.452-3.12-9.738 0-10.533 5.467-17.945 15.995-17.945 6.628 0 14.422 5.07 14.422 12.869 0 18.327-17.543 25.347-32.749 25.347-37.443 0-65.126-28.075-65.126-94.754v-19.106h-30.026v-8.97h30.026v-136.48h-30.026v-8.97h92.026v8.97h-31.583v136.48h31.583v8.97zm-258.88 18.981 245.55-245.56 245.55 245.56-118.75 118.66h-253.69zm245.55-285.35-285.36 285.35 146.79 146.8h277.02l146.9-146.79z" fill="#fff"/>
   </g>
   <g transform="matrix(.35278 0 0 -.35278 256.28 -537.34)">
    <path d="m0 0h209.11v-44.953h-159.74v-76.661h141.68v-44.953h-141.68v-114.39h-49.368z" fill="#fff"/>
   </g>
   <g transform="matrix(.35278 0 0 -.35278 376.55 -521.2)">
    <path d="m0 0h-89.104v45.756h227.98v-45.756h-89.103v-235.2h-49.77z" fill="#fff"/>
   </g>
   <g transform="matrix(.35278 0 0 -.35278 439.67 -537.34)">
    <path d="m0 0h54.586l84.688-215.94 84.288 215.94h53.381l-116.8-282.96h-43.348z" fill="#fff"/>
   </g>
  </g>
  <g transform="translate(-101.15 590.21)">
   <g transform="matrix(.35278 0 0 -.35278 675.25 -537.34)">
    <path d="m0 0h31.708l-33.313-124.82h160.14l33.314 124.82h32.109l-75.457-280.96h-32.11l34.117 126.43h-160.15l-34.116-126.43h-31.708z" fill="#fff"/>
   </g>
   <g transform="matrix(.35278 0 0 -.35278 793.22 -448.56)">
    <path d="m0 0c46.96 0 87.498 15.653 116 44.15 22.477 22.477 35.32 52.981 35.32 87.498 0 26.491-8.428 47.362-23.68 62.212-18.463 18.463-48.164 28.497-85.491 28.497h-41.743l-59.803-222.36zm-23.681 251.66h67.831c46.559 0 85.09-13.245 109.57-37.327 20.068-20.068 30.504-46.559 30.504-80.675 0-42.946-15.654-80.675-44.151-109.57-33.715-33.715-84.287-53.382-144.09-53.382h-95.124z" fill="#fff"/>
   </g>
  </g>
 </g>
</svg>
