<svg width="800" height="215.44" version="1.1" viewBox="0 0 211.67 57.003" xmlns="http://www.w3.org/2000/svg">
 <path d="m69.156 56.997c-0.09903-0.0031-0.17689-0.01263-0.17689-0.02154 0-0.0089-0.05-0.01597-0.11106-0.01597-0.13339 0-0.69035-0.0403-1.0326-0.07477-2.8734-0.28884-5.5455-1.1575-7.9534-2.5854-0.12967-0.07689-0.24631-0.13577-0.25916-0.13086-0.01486 0.0059-0.02377 0.03417-0.02414 0.07942-9.1e-4 0.11404-0.04168 0.30727-0.0958 0.45442-0.214 0.58175-0.75992 1.0389-1.4752 1.2354-0.38649 0.10616-0.103 0.10026-4.8154 0.10014-4.7453 0-4.4346 0.0071-4.8022-0.10843-0.35526-0.11144-0.67291-0.30199-0.93008-0.55792-0.37916-0.3773-0.59887-0.81257-0.67476-1.3368-0.02303-0.15995-0.02526-2.6937-0.0208-26.095l0.0048-25.917 0.03603-0.1481c0.16608-0.68451 0.53592-1.1954 1.1149-1.54 0.24174-0.1439 0.57204-0.26033 0.81726-0.28807 0.05282-0.0059704 0.09242-0.016668 0.08803-0.023758-0.0045-0.0070964 0.03833-0.015418 0.09494-0.018484 0.09212-0.0049942 8.2778-0.004422 8.5209 6.2197e-4 0.05486 0.0011319 0.0961 0.0079111 0.09168 0.015063-0.0045 0.0071524 0.05252 0.02239 0.12655 0.033865 0.16285 0.025244 0.47511 0.12692 0.63126 0.20555 0.21292 0.10722 0.41937 0.25906 0.60676 0.44624 0.32896 0.3286 0.52355 0.68534 0.64347 1.1797 0.02786 0.11492 0.02972 0.51645 0.03841 8.0443l0.0089 7.9234 0.0448 0.18101c0.11188 0.45208 0.3609 0.7893 0.71016 0.96176 0.21563 0.10646 0.30623 0.12449 0.61845 0.12308 0.34438-0.0016 0.4449-0.027 0.95442-0.24158 2.139-0.90078 4.602-1.5403 6.6645-1.7305 0.74757-0.06893 1.7401-0.0871 2.4519-0.0449 1.9285 0.11436 3.7292 0.49082 5.4948 1.1488 4.1044 1.5295 7.5943 4.5146 9.8294 8.4074 1.5951 2.7781 2.4962 5.9167 2.6616 9.2696 0.02117 0.42721 0.02117 1.6398 1.82e-4 2.0586-0.11823 2.3571-0.55714 4.4758-1.3705 6.6151-0.29148 0.76665-0.78206 1.8192-1.1811 2.5342-1.306 2.3398-3.0226 4.3488-5.0797 5.9451-2.1785 1.6905-4.6718 2.8692-7.3344 3.4674-0.86301 0.1939-1.8923 0.34367-2.7331 0.39769-0.1715 0.01114-0.31689 0.02749-0.32305 0.03677-0.01077 0.01597-1.4498 0.02712-1.8606 0.01449zm-0.73638-10.511c2.4861-0.24003 4.6701-1.4529 6.1549-3.418 1.1081-1.4666 1.7372-3.1285 1.936-5.1144 0.04145-0.41465 0.04168-1.5508 3.94e-4 -1.9582-0.14833-1.4617-0.54025-2.7478-1.1966-3.9266-0.44766-0.80398-0.90196-1.4049-1.5537-2.0552-0.47611-0.47506-0.82471-0.76029-1.3669-1.1184-1.2267-0.8103-2.5367-1.2612-4.0974-1.4103-0.28372-0.02712-1.3075-0.02708-1.6456 0-0.96028 0.07707-1.7496 0.229-2.5342 0.48779-1.6394 0.54075-3.0574 1.4748-4.3304 2.8526l-0.18721 0.20264 0.0056 4.9973c0.0052 4.9797 0.0056 4.998 0.03963 5.1783 0.10208 0.54024 0.23877 0.94091 0.49128 1.4399 0.31377 0.62008 0.75817 1.1964 1.1978 1.5532 0.17195 0.13959 0.48858 0.34501 0.88299 0.57284 1.3006 0.75127 2.6111 1.2969 3.7436 1.5587 0.43406 0.10033 0.7157 0.14483 1.193 0.18859 0.16013 0.01486 1.0104-0.0059 1.2671-0.03083zm-60.984 9.5557c-0.21929-0.01783-0.53817-0.10527-0.77093-0.21132-0.2077-0.094646-0.43907-0.2602-0.62844-0.44969-0.33747-0.33765-0.53896-0.72408-0.63533-1.2184-0.029456-0.15111-0.030756-0.57886-0.038709-12.794l-0.0082284-12.638-1.6538-0.008956c-1.8239-0.009876-1.7561-0.006095-2.1056-0.11742-0.35105-0.11183-0.63869-0.2882-0.90653-0.55589-0.33054-0.33034-0.5644-0.76979-0.62825-1.1805-0.010138-0.065198-0.023497-0.11541-0.029685-0.11158-0.0061573 0.0038-0.016059-0.0499-0.02193-0.11939-0.012016-0.14212-0.01071-6.6782 0.0013682-6.8128 0.0042914-0.04751 0.014435-0.08225 0.022614-0.07719 0.0081786 0.0051 0.014933-0.01163 0.01502-0.03703 0-0.02541 0.01808-0.11657 0.040003-0.20255 0.19994-0.78428 0.79085-1.3963 1.5647-1.6205 0.31337-0.09081 0.31095-0.0907 2.0586-0.09078 1.272 0 1.6182-0.0044 1.6311-0.02065 0.00947-0.01189 0.024367-0.28853 0.035214-0.6541 0.010364-0.34845 0.029865-0.79645 0.043367-0.99556 0.30354-4.4788 1.8091-8.2725 4.3949-11.074 0.21951-0.23784 0.75455-0.76723 0.99389-0.98341 2.1006-1.8974 4.8219-3.1974 7.8246-3.7381 0.8162-0.14696 1.7864-0.25744 2.493-0.28388 0.15838-0.0059269 0.29247-0.017638 0.29796-0.026028 6e-3 -0.0091674 0.7112-0.016593 1.769-0.018627 1.7765-0.0034145 2.0039-0.0010573 1.9905 0.020599-0.0041 0.006574 0.05655 0.02119 0.1347 0.03249 0.30382 0.043928 0.712 0.213 0.96671 0.40041 0.06335 0.046614 0.18949 0.15952 0.2803 0.25089 0.32976 0.33184 0.53684 0.73607 0.61687 1.2042 0.03031 0.17732 0.0315 0.31935 0.0328 3.884 0.0012 3.3469-0.0012 3.7132-0.0253 3.8386-0.11635 0.60485-0.45686 1.1155-0.97734 1.4655-0.34888 0.23464-0.79821 0.37055-1.3343 0.40358-0.62561 0.03854-1.7559 0.27179-2.4777 0.5113-1.7855 0.59243-3.0091 1.5665-3.6765 2.9264-0.36232 0.73843-0.54206 1.4791-0.59469 2.4507-0.01545 0.28553-0.01512 0.36011 0.0017 0.38038 0.01868 0.02251 0.45077 0.02522 4.0484 0.02522 4.3869 0 4.1247-0.0054 4.4633 0.09108 0.34547 0.09842 0.66529 0.28432 0.93206 0.54181 0.33322 0.32162 0.51745 0.64317 0.64739 1.1299l0.03677 0.1378 0.01129 3.3652c0.0062 1.8508 0.01166 3.4244 0.01211 3.4968 0.0017 0.26385-0.08233 0.61461-0.21273 0.8885-0.10582 0.22227-0.25566 0.4302-0.45117 0.62612-0.34422 0.34493-0.74116 0.55041-1.2263 0.6348-0.18635 0.03243-0.25089 0.03284-4.2291 0.02782l-4.0398-0.0051-0.0172 25.374-0.03555 0.14201c-0.11707 0.46786-0.30677 0.81047-0.62427 1.1275-0.27333 0.27291-0.60025 0.46644-0.96862 0.57338-0.32399 0.09405-0.10017 0.08959-4.7227 0.09442-2.3441 0.0024-4.2879 0.0024-4.3196 0zm25.185-0.027488c-0.55192-0.08852-1.0182-0.34341-1.3887-0.75919-0.28467-0.31941-0.46515-0.68767-0.55596-1.1344-0.0289-0.14216-0.02998-0.76687-0.02998-17.204 0-16.33 0.0012-17.063 0.02949-17.213 0.18159-0.96231 0.94166-1.7125 1.9016-1.8769 0.18164-0.03109 0.30311-0.03198 4.4372-0.03198 4.1473 0 4.255 7.58e-4 4.4372 0.03224 1.0133 0.17501 1.7835 0.97544 1.9149 1.9899 0.02192 0.16919 0.02414 2.1382 0.02006 17.19l-0.0045 16.999-0.03566 0.15274c-0.12291 0.52698-0.31904 0.88058-0.68715 1.2391-0.30073 0.29293-0.67536 0.48988-1.1445 0.60177-0.11675 0.02786-0.35671 0.02972-4.443 0.03269-3.4477 0.0025-4.3462-0.0012-4.4512-0.01783zm117.11-0.0078c-0.50404-0.09015-0.89752-0.29568-1.26-0.65813-0.34259-0.34259-0.5306-0.68507-0.6465-1.1777l-0.0349-0.1481-4e-3 -12.77c-4e-3 -11.973-6e-3 -12.771-0.0323-12.79-0.0353-0.02596-3.0496-0.03042-3.0979-0.0046-0.0163 0.0088-0.0353 0.02916-0.0417 0.04526-0.013 0.03168-0.3079 0.89379-2.4519 7.1627-0.77539 2.2672-1.8986 5.5513-2.4961 7.298-0.59744 1.7468-1.5256 4.4607-2.0625 6.031-0.53695 1.5703-1.118 3.269-1.2913 3.7749-0.17325 0.50592-0.34727 0.98888-0.38669 1.0733-0.20958 0.44845-0.61695 0.9243-1.0782 1.2594-0.42196 0.30656-0.93591 0.53234-1.4261 0.62651l-0.19479 0.03748h-7.4708l-0.19405-0.03729c-0.97043-0.18647-1.8829-0.84762-2.3444-1.6988-0.11032-0.20341-0.13821-0.28409-0.48223-1.3937-0.18182-0.58652-1.0477-3.3805-1.9242-6.2088a175041 175041 0 0 0-2.1046-6.7908c-0.28101-0.90667-0.53927-1.7141-0.57385-1.7943-0.13298-0.30846-0.27253-0.5012-0.42967-0.59346-0.10631-0.0624-0.24297-0.0627-0.3475-6.91e-4 -0.17068 0.10122-0.33917 0.33806-0.45963 0.6462-0.0364 0.09279-1.1469 3.6632-2.468 7.9341-1.3212 4.271-2.4166 7.8061-2.4343 7.8559-0.20248 0.56899-0.68474 1.1501-1.2787 1.5408-0.30786 0.20252-0.67498 0.36874-0.99477 0.45044-0.37078 0.09472-0.0678 0.08766-4.048 0.09416-2.6182 0.0045-3.7082 7.47e-4 -3.8259-0.01226-1.2432-0.13848-2.4362-1.0609-2.8302-2.1883-0.05969-0.17068-0.91287-2.6466-1.9365-5.6196a30270 30270 0 0 0-0.94639-2.7481c-0.23067-0.66975-0.49958-1.451-0.59754-1.7361-0.09795-0.28509-0.36822-1.07-0.60062-1.7443-0.23238-0.67426-0.50268-1.4592-0.60063-1.7443-0.09795-0.28513-0.36685-1.0663-0.59755-1.7361a29891 29891 0 0 1-0.94674-2.7483 35036 35036 0 0 0-1.2043-3.4968c-0.37256-1.0815-0.7983-2.3182-0.9461-2.7481a2852.2 2852.2 0 0 0-0.60056-1.7443 3157.6 3157.6 0 0 1-0.60062-1.7443 4395.8 4395.8 0 0 0-0.69124-2.0076c-0.23233-0.67427-0.50258-1.4592-0.60053-1.7443a3182.3 3182.3 0 0 0-0.50821-1.4771c-0.18157-0.52731-0.34326-1.0197-0.35942-1.0943-0.02192-0.10206-0.02897-0.20464-0.02786-0.41528 0.0015-0.25373 0.0052-0.2932 0.04535-0.42436 0.1595-0.5249 0.53485-0.86991 1.1046-1.0153 0.26574-0.0678 0.29371-0.06817 5.003-0.06278l4.5253 0.0052 0.18922 0.03769c0.25006 0.04979 0.58315 0.16216 0.81113 0.27362 0.71983 0.35196 1.3322 0.9863 1.6135 1.6714 0.0483 0.11777 0.2959 0.95818 0.95971 3.2582 0.0588 0.20364 0.26972 0.93303 0.46876 1.6209a5622.7 5622.7 0 0 1 0.48546 1.6785c0.0679 0.23532 0.28647 0.99063 0.48544 1.6785 0.19899 0.68784 0.41747 1.4432 0.48544 1.6785 0.068 0.23532 0.28646 0.99063 0.48544 1.6785 0.19902 0.68784 0.41747 1.4432 0.48543 1.6785 0.97896 3.3892 0.89848 3.1206 1.0013 3.3422 0.16273 0.35065 0.34293 0.52442 0.54246 0.52318 0.23814-0.0015 0.45844-0.25274 0.64784-0.7388 0.0282-0.07241 0.42105-1.2868 0.873-2.6987 0.87464-2.7325 2.1828-6.8168 3.5235-11.001 0.45102-1.4075 0.83521-2.5976 0.85377-2.6447 0.27024-0.68563 0.90585-1.3427 1.6524-1.7082 0.26391-0.12921 0.60386-0.24322 0.86886-0.2914l0.20389-0.03707h5.9404l0.19743 0.03774c1.1496 0.2197 2.1928 1.0903 2.5477 2.1262 0.0327 0.09503 0.15271 0.46898 0.26696 0.831 0.11426 0.36203 0.2621 0.82854 0.32856 1.0367 0.0665 0.20816 0.23661 0.74502 0.37816 1.193 0.14156 0.448 0.28977 0.91452 0.32937 1.0367 0.0396 0.12219 0.24686 0.77382 0.46058 1.4481 0.21373 0.67426 0.46161 1.4555 0.55086 1.7361 0.0893 0.28057 0.33007 1.0396 0.53519 1.6867 0.20511 0.64711 0.44598 1.4061 0.53528 1.6867 0.29092 0.91414 1.2334 3.8828 1.3322 4.1962 0.24895 0.78992 0.40869 1.2732 0.46077 1.394 0.12867 0.29847 0.28773 0.51211 0.43855 0.58915 0.0983 0.0502 0.24802 0.05485 0.33197 0.01033 0.1673-0.08876 0.31681-0.2988 0.44832-0.62992 0.0279-0.07019 1.12-3.7602 2.4268-8.2 1.3069-4.4398 2.3913-8.1116 2.4099-8.1595 0.0999-0.25842 0.2904-0.57153 0.49864-0.81972 0.56022-0.66764 1.3722-1.1088 2.1922-1.1911 0.13061-0.01311 3.111-0.0166 10.704-0.01263 9.8224 0.0052 10.532 0.0074 10.657 0.03351 0.42607 0.08876 0.79749 0.27845 1.1055 0.5646 0.27305 0.25366 0.42859 0.4878 0.61691 0.9286 0.15267 0.35735 0.21392 0.53991 0.24798 0.73905 0.0242 0.14195 0.0264 1.596 0.0264 17.141 0 16.747-6.2e-4 16.988-0.0319 17.173-0.0832 0.48594-0.30102 0.90613-0.65108 1.2562-0.31979 0.31982-0.69681 0.52589-1.1682 0.6386l-0.1481 0.03529-4.3196 0.0033c-4.0854 0.0031-4.3285 0.0017-4.4841-0.026zm-113.26-43.702c-1.3872-0.12035-2.6039-0.58954-3.6087-1.3916-0.25696-0.20511-0.73687-0.68206-0.93137-0.92562-0.69723-0.87308-1.1186-1.8735-1.272-3.0196-0.042912-0.32079-0.042738-1.2448 3.11e-4 -1.5633 0.2609-1.9307 1.259-3.4646 2.9073-4.4682 0.76503-0.4658 1.7972-0.79863 2.7398-0.88348 0.11767-0.010592 0.21871-0.026246 0.22456-0.034798 0.0162-0.023652 0.92414-0.020505 0.93204 0.0032341 0.0035 0.010324 0.03737 0.018776 0.07533 0.018776 0.1881 0 0.74242 0.08821 1.0916 0.17371 1.8354 0.44938 3.349 1.6509 4.145 3.2902 0.82643 1.702 0.81614 3.7238-0.02749 5.4081-0.44422 0.8868-1.1913 1.726-2.0475 2.2998-0.91454 0.61295-1.9701 0.98075-3.1182 1.0865-0.17158 0.01579-0.9503 0.02021-1.1108 0.0063zm117.36 0.0014c-0.6491-0.04071-1.24-0.15281-1.812-0.34378-1.9474-0.65016-3.4275-2.1641-3.9872-4.0784-0.34776-1.1894-0.32736-2.497 0.057-3.6553 0.31057-0.93583 0.80625-1.7132 1.5517-2.4337 0.5084-0.49133 1.1796-0.93291 1.8627-1.2255 0.67432-0.28883 1.5212-0.4904 2.2002-0.52368 0.11991-0.0058775 0.21805-0.016942 0.21805-0.024585 0-0.0076499 0.11106-0.013907 0.24683-0.013907 0.15359 0 0.24683 0.0062194 0.24683 0.016457 0 0.00941 0.0495 0.016457 0.11571 0.016457 0.16136 0 0.55177 0.042802 0.83487 0.091525 1.3089 0.22527 2.4855 0.81469 3.3751 1.6907 0.51345 0.5056 0.86618 0.98382 1.164 1.5781 0.3407 0.67988 0.53348 1.3597 0.615 2.1688 0.026 0.25975 0.0215 0.92538-8e-3 1.2092-0.18465 1.7583-1.0227 3.241-2.4187 4.2794-0.89285 0.66411-2.0116 1.0891-3.2024 1.2166-0.23275 0.02492-0.86581 0.04385-1.0596 0.03172z" fill="#fff" stroke-width=".062194"/>
 <g transform="matrix(.98677 0 0 .98677 -12.488 -21.305)" fill="#fff">
  <path d="m185.3 39.345h20.485l-17.845 21.255v9.72h18.47v8.055h-21.11z"/>
  <path d="m218.71 39.345h8.45v39.03h-8.45v-7.15h5.13l-0.02-10.045h-5.11z"/>
  <path d="m196.64 60.545 9.665-10.875v10.875z"/>
 </g>
</svg>
