<svg width="800.02" height="367.23" enable-background="new 0 0 1600 900" version="1.1" viewBox="0 0 800.02 367.23" xml:space="preserve" xmlns="http://www.w3.org/2000/svg">
<path d="m362.79 0.63584c2.976 0 5.3876 2.4116 5.392 5.3893l3e-3 355.81c0 2.976-2.4133 5.3893-5.3938 5.392h-43.125c-3.064 0-5.5467-2.416-5.5467-5.3964v-307.28c0-2.9804-2.4133-5.3964-5.392-5.3964v7e-3l-49.429-3e-3c-2.9733-3e-3 -5.3831-2.416-5.3849-5.3938l-3e-3 -37.732c0-2.976 2.4116-5.3876 5.3876-5.3938l103.49-3e-3" fill="#fa4b14" stroke-width=".88889"/><g fill="#002846" stroke-width=".88889"><path d="m172.52 43.125c0 2.9804-2.4133 5.3938-5.392 5.3938h-43.127c-10.781 0-21.564 5.3876-21.564 21.564v35.448c0 2.9804 2.4133 5.3982 5.392 5.3982l146.22-0.0116c2.9778 0 5.3938 2.4133 5.3938 5.392l-3e-3 244.89h3e-3c0 2.9804-2.4178 5.3938-5.3982 5.3938h-43.123c-2.9787 0-5.392-2.416-5.3938-5.3938v-4e-3l4e-3 -196.36c0-2.9778-2.4133-5.392-5.392-5.392l-92.32 3e-3c-2.976 7e-3 -5.3849 2.4133-5.3876 5.3876l-3e-3 196.37c0 2.9778-2.416 5.392-5.3938 5.392l-43.121-3e-3c-2.9778 0-5.392-2.4133-5.392-5.392v-196.37l-0.0027-3e-3c-0.0044-2.976-2.416-5.3893-5.392-5.3893l-37.738-3e-3c-2.976-3e-3 -5.3876-2.4116-5.3893-5.3876v-37.738c0-2.9778 2.4133-5.392 5.392-5.392h37.736c2.9778 0 5.3938-2.4116 5.3938-5.3876v-35.447c0-48.522 37.736-70.086 75.474-70.086h43.125c2.9778 0 5.392 2.4133 5.392 5.3893z"/><path d="m708.38 91.649c75.478 0 91.645 48.517 91.645 107.82v161.72c0 2.9778-2.4133 5.3938-5.392 5.3938h-43.13c-2.976-3e-3 -5.3893-2.416-5.3893-5.3938v-161.72c0-32.351-5.3876-59.305-48.517-59.305-37.74 0-59.305 26.955-59.305 70.082l9e-3 150.95c0 2.9778-2.416 5.3938-5.3938 5.3938h-43.127c-2.9778 0-5.3938-2.416-5.3938-5.3938v-161.72c0-32.351-5.392-59.305-48.522-59.305-26.952 0-59.299 16.175-59.299 70.082l4e-3 150.95c0 2.9778-2.4178 5.3938-5.3982 5.3938l-43.125 4e-3c-2.9778 0-5.3938-2.416-5.3938-5.3982v-258.77c0-2.976 2.4133-5.3849 5.3893-5.3893l37.74-0.0027s4.0444 0.01156 5.3893 5.392l5.3938 21.563c0.56266 2.256 1.9164 2.5307 2.9627 2.328 1.0729-0.20711 2.4267-2.328 2.4267-2.328 10.781-16.171 32.344-32.341 70.085-32.341 43.13 0 59.303 21.564 70.082 37.736 0 0 1.3093 1.9324 2.6276 1.9324 1.2667 0 2.7671-1.9324 2.7671-1.9324 16.17-21.566 43.126-37.737 80.862-37.737"/></g>
</svg>
