<svg width="800" height="511.49" enable-background="new 0 0 1600 900" version="1.1" viewBox="0 0 800 511.49" xml:space="preserve" xmlns="http://www.w3.org/2000/svg">
<path d="m362.8 0.63839c2.976 0 5.3876 2.4115 5.392 5.3893l3e-3 355.81c0 2.976-2.4133 5.3893-5.3938 5.392h-43.125c-3.064 0-5.5467-2.416-5.5467-5.3964v-307.28c0-2.9804-2.4133-5.3964-5.392-5.3964v7e-3l-49.428-3e-3c-2.9733-3e-3 -5.3831-2.416-5.3849-5.3938l-3e-3 -37.732c0-2.976 2.4116-5.3875 5.3876-5.3938l103.49-2e-3" fill="#4ba0e0" stroke-width=".88889"/>
<path d="m172.52 43.129c0 2.9804-2.4133 5.3938-5.392 5.3938h-43.127c-10.781 0-21.564 5.3876-21.564 21.564v35.448c0 2.9804 2.4133 5.3982 5.392 5.3982l146.22-0.0116c2.9778 0 5.3938 2.4133 5.3938 5.392l-3e-3 244.89h3e-3c0 2.9804-2.4178 5.3938-5.3982 5.3938h-43.123c-2.9778 0-5.392-2.416-5.3938-5.3938v-4e-3l4e-3 -196.36c0-2.9778-2.4133-5.392-5.392-5.392l-92.317 3e-3c-2.976 7e-3 -5.3849 2.4133-5.3876 5.3876l-3e-3 196.37c0 2.9778-2.416 5.392-5.3938 5.392l-43.121-3e-3c-2.9778 0-5.392-2.4133-5.392-5.392v-196.37l-3e-3 -3e-3c-4e-3 -2.976-2.416-5.3893-5.392-5.3893l-37.738-3e-3c-2.976-3e-3 -5.3876-2.4116-5.3893-5.3876v-37.738c0-2.9778 2.4133-5.392 5.392-5.392h37.736c2.9778 0 5.3938-2.4116 5.3938-5.3876v-35.448c0-48.522 37.736-70.086 75.474-70.086h43.125c2.9778 0 5.392 2.4133 5.392 5.3893zm535.84 48.518c75.478 0 91.649 48.517 91.649 107.82v161.73c0 2.9778-2.4133 5.3938-5.392 5.3938h-43.13c-2.976-3e-3 -5.3893-2.416-5.3893-5.3938v-161.73c0-32.35-5.3876-59.305-48.517-59.305-37.74 0-59.305 26.955-59.305 70.082l7e-3 150.95c0 2.9778-2.416 5.3938-5.3938 5.3938h-43.127c-2.9778 0-5.3938-2.416-5.3938-5.3938v-161.73c0-32.35-5.392-59.305-48.522-59.305-26.952 0-59.299 16.175-59.299 70.082l4e-3 150.95c0 2.9778-2.4178 5.3938-5.3982 5.3938l-43.125 4e-3c-2.9778 0-5.3938-2.416-5.3938-5.3982v-258.77c0-2.976 2.4133-5.3849 5.3893-5.3893l37.74-3e-3s4.0444 0.0116 5.3893 5.392l5.3938 21.563c0.56266 2.256 1.9164 2.5307 2.9627 2.328 1.0729-0.20711 2.4267-2.328 2.4267-2.328 10.781-16.171 32.344-32.341 70.084-32.341 43.13 0 59.303 21.564 70.082 37.736 0 0 1.3093 1.9324 2.6276 1.9324 1.2667 0 2.7671-1.9324 2.7671-1.9324 16.171-21.565 43.127-37.737 80.862-37.737m-631.49 330.17h-26.928c-0.69423 0-1.2569 0.56178-1.2578 1.256l-0.15111 87.159c-8.9e-4 0.696 0.56266 1.2604 1.2578 1.2604h27.078c32.028 0 42.276-17.934 42.276-44.837 8.9e-4 -26.903-10.247-44.838-42.275-44.838zm-1.2827 78.145h-12.832c-0.69511 0-1.2578-0.56355-1.2578-1.2578v-64.1c0-0.69511 0.56356-1.2578 1.2578-1.2578h12.832c24.341 0 30.748 11.531 30.748 33.309 0 21.779-6.4062 33.307-30.748 33.307zm188.29-26.903c-0.67378-1.0587 0-1.28 0-1.28 11.471-2.5484 19.137-10.169 19.216-24.123 0.0818-14.391-12.178-25.839-26.57-25.839h-42.562c-0.73155 0-1.3253 0.59378-1.3253 1.3253v87.036c0 0.72534 0.58845 1.3138 1.3129 1.3138h10.184c0.72533 0 1.3138-0.58844 1.3138-1.3138v-35.824c0-0.71644 0.58044-1.2969 1.2969-1.2969h21.16c0.65866 0 1.2729 0.33511 1.6293 0.88889l23.581 36.681c0.34578 0.53778 0.94223 0.86311 1.5813 0.86311h5.8507c0.69956 0 1.2667-0.56711 1.2667-1.2667v-7.7378c0-0.81245-0.232-1.608-0.66756-2.2933zm-37.137-11.528c-0.71467 0-1.2933-0.57955-1.2933-1.2942v-25.598c0-0.71467 0.57955-1.2933 1.2933-1.2933h26.889c11.531 0 16.655 3.8444 16.655 14.092s-5.1244 14.092-16.655 14.092h-26.889zm175.7-38.87-30.809 78.351c-0.0302 0.16-0.0595 0.31467-0.0898 0.47467v8.7227c0 0.70845 0.57423 1.2827 1.2827 1.2827h7.6827c0.82844 0 1.2827-1.2827 1.2827-1.2827l7.8329-19.676c0.19734-0.49511 0.67645-0.82045 1.2098-0.82045h36.947c0.52 0 0.98755 0.31645 1.1813 0.79823l7.9147 19.698c0 8.9e-4 0.45333 1.2747 1.2773 1.28l2e-3 2e-3h7.6862l4e-3 -4e-3v4e-3c0.72533 0 1.2791-0.55733 1.2791-1.2827v-8.7307c-0.0293-0.15467-0.0578-0.30489-0.0871-0.45956l-30.844-78.359c-0.20089-0.51022-0.69333-0.84622-1.2418-0.84622h-11.268c-0.54756 2e-3 -1.0409 0.33778-1.2418 0.848zm-8.0196 54.667 14.444-36.735c0.16711-0.424 0.76711-0.424 0.93422 0l14.435 36.743c0.16 0.40711-0.14045 0.84711-0.57778 0.84711h-28.652c-0.44178 0-0.74489-0.44445-0.58311-0.85511zm226.73 34.165c-0.73333 0-1.3289-0.59467-1.3289-1.3289v-62.359c0-0.47111-0.64712-0.6-0.82845-0.16533l-26.119 62.687c-0.29422 0.70666-0.984 1.1662-1.7493 1.1662h-10.499c-0.76533 0-1.4551-0.46044-1.7493-1.1662l-26.122-62.692c-0.18133-0.43466-0.82845-0.30489-0.82845 0.16534v62.364c0 0.73333-0.59466 1.3289-1.3289 1.3289h-10.154c-0.73334 0-1.3289-0.59467-1.3289-1.3289v-87.021c0-0.73156 0.59378-1.3253 1.3253-1.3253h14.025c0.78845 0 1.4978 0.47912 1.7929 1.2098l28.818 71.429c0.28978 0.71911 1.3076 0.71911 1.5982 0l28.818-71.429c0.29511-0.73155 1.0044-1.2098 1.7929-1.2098h14.025c0.73155 0 1.3253 0.59378 1.3253 1.3253v87.021c0 0.73333-0.59467 1.3289-1.3289 1.3289zm134.18-88.832-30.809 78.351c-0.03 0.16-0.06 0.31467-0.09 0.47467v8.7227c0 0.70845 0.5742 1.2827 1.2826 1.2827h7.6827c0.8284 0 1.2827-1.2827 1.2827-1.2827l7.8329-19.676c0.1973-0.49511 0.6764-0.82045 1.2097-0.82045h36.947c0.52 0 0.9876 0.31645 1.1813 0.79823l7.9147 19.698c0 8.9e-4 0.4533 1.2747 1.2773 1.28v2e-3h7.6862v-4e-3 4e-3c0.7253 0 1.2791-0.55733 1.2791-1.2827v-8.7307c-0.029-0.15467-0.058-0.30489-0.087-0.45956l-30.844-78.359c-0.2009-0.51022-0.6933-0.84622-1.2417-0.84622h-11.268c-0.5484 2e-3 -1.0409 0.33778-1.2418 0.848zm-8.0195 54.667 14.444-36.735c0.1671-0.424 0.7671-0.424 0.9342 0l14.435 36.743c0.16 0.40711-0.1404 0.84711-0.5778 0.84711h-28.652c-0.4418 0-0.7449-0.44445-0.5831-0.85511z" fill="#fff" stroke-width=".88889"/>
</svg>
