<svg width="7.3994mm" height="2.9607mm" version="1.1" viewBox="0 0 7.3994 2.9607" xmlns="http://www.w3.org/2000/svg">
 <defs>
  <clipPath id="a">
   <path d="m208.76 392.39h20.975v8.393h-20.975z"/>
  </clipPath>
 </defs>
 <g transform="translate(180.59 -5.9899)">
  <g transform="matrix(.35278 0 0 -.35278 -254.24 147.38)" fill="#fff">
   <g clip-path="url(#a)" fill="#fff">
    <g transform="translate(228.89 394.56)" fill="#fff">
     <path d="m0 0c-0.17-0.033-0.301-0.108-0.392-0.224-0.092-0.116-0.137-0.275-0.137-0.477 0-0.201 0.045-0.36 0.137-0.476 0.091-0.117 0.222-0.191 0.392-0.225-0.1 0.1-0.169 0.203-0.209 0.309-0.039 0.106-0.059 0.231-0.059 0.377 0 0.145 0.02 0.27 0.059 0.377 0.04 0.105 0.109 0.219 0.209 0.339m0.704-0.224c-0.091 0.116-0.222 0.191-0.392 0.224 0.099-0.121 0.169-0.234 0.208-0.339 0.04-0.107 0.06-0.232 0.06-0.377h0.261c0 0.211-0.046 0.376-0.137 0.492m-2.651-1.794v2.055l-0.417-0.155c0.012 2e-3 0.024 3e-3 0.036 3e-3 0.078-1e-3 0.117-0.04 0.117-0.115v-1.788c0-0.104-0.052-0.156-0.156-0.156h0.576c-0.104 0-0.156 0.052-0.156 0.156m0.43 2.018c0.116-0.021 0.19-0.109 0.221-0.265 0.031-0.155 0.047-0.306 0.047-0.451 0-0.146-0.016-0.296-0.047-0.452s-0.105-0.244-0.221-0.265c0.166 0 0.296 0.072 0.39 0.215 0.093 0.143 0.14 0.316 0.14 0.517 0 0.202-0.047 0.369-0.14 0.502-0.094 0.133-0.224 0.199-0.39 0.199m-1.828 0c0.1-0.12 0.169-0.234 0.208-0.339 0.04-0.107 0.059-0.232 0.059-0.377 0-0.146-0.019-0.271-0.059-0.377-0.039-0.106-0.108-0.209-0.208-0.309 0.17 0.034 0.301 0.108 0.392 0.225 0.091 0.116 0.137 0.275 0.137 0.476 0 0.202-0.046 0.361-0.137 0.477s-0.222 0.191-0.392 0.224m-0.312 0c-0.17-0.033-0.301-0.108-0.392-0.224-0.092-0.116-0.138-0.275-0.138-0.477 0-0.201 0.046-0.36 0.138-0.476 0.091-0.117 0.222-0.191 0.392-0.225-0.099 0.1-0.169 0.203-0.208 0.309-0.04 0.106-0.06 0.231-0.06 0.377 0 0.145 0.02 0.27 0.06 0.377 0.039 0.105 0.109 0.219 0.208 0.339m-1.598-1.277v1.308l-0.417-0.155c0.012 2e-3 0.024 2e-3 0.036 2e-3 0.078 0 0.116-0.039 0.116-0.115v-1.04c0-0.104-0.052-0.156-0.155-0.156h0.576c-0.104 0-0.156 0.052-0.156 0.156m0.53 1.29c-0.104 0-0.189-0.017-0.256-0.05 0.112 0 0.175-8e-3 0.187-0.022 0.013-0.014 0.019-0.034 0.019-0.056 0-0.023 0.013-0.051 0.04-0.085 0.027-0.033 0.063-0.049 0.106-0.049 0.044 0 0.077 0.012 0.1 0.037s0.034 0.056 0.034 0.094c0 0.037-0.012 0.068-0.037 0.093s-0.089 0.038-0.193 0.038m-2.324-1.312c-0.071 0.044-0.108 0.109-0.112 0.196v1.103h-0.417c0.103 0 0.155-0.052 0.155-0.156v-0.947c0-0.103 0.029-0.184 0.087-0.243 0.059-0.058 0.141-0.087 0.246-0.087 0.106 0 0.216 0.031 0.328 0.094-0.034-4e-3 -0.065-7e-3 -0.094-7e-3 -0.078 0-0.142 0.016-0.193 0.047m0.791 0.022v1.277h-0.417c0.104 0 0.156-0.052 0.156-0.156v-1.277h0.417c-0.104 0-0.156 0.052-0.156 0.156m-2.293 1.277c0.1-0.12 0.17-0.234 0.209-0.339 0.033-0.09 0.052-0.194 0.057-0.312h-0.843c6e-3 0.118 0.024 0.222 0.057 0.312 0.04 0.105 0.109 0.219 0.209 0.339-0.17-0.033-0.301-0.108-0.392-0.224-0.084-0.107-0.129-0.249-0.136-0.427h-10.745v-0.065h10.744c2e-3 -0.194 0.048-0.348 0.137-0.461 0.091-0.117 0.222-0.191 0.392-0.225-0.1 0.1-0.169 0.203-0.209 0.309-0.039 0.106-0.059 0.231-0.059 0.377h1.109c0 0.211-0.046 0.376-0.137 0.492s-0.222 0.191-0.393 0.224m6.565 5.696c0.104-0.013 0.165-0.06 0.183-0.14 0.017-0.081 0.026-0.165 0.026-0.252-5e-3 -0.736-6e-3 -1.496-4e-3 -2.281 3e-3 -0.784 4e-3 -1.542 4e-3 -2.273h0.529v4.325c0 0.249-0.023 0.462-0.069 0.641-0.045 0.178-0.182 0.331-0.408 0.457-0.07 0.031-0.161 0.046-0.274 0.046-0.11 0-0.194-0.015-0.255-0.046-0.083-0.043-0.155-0.094-0.216-0.15-0.057 0.052-0.126 0.102-0.209 0.15-0.07 0.031-0.163 0.046-0.281 0.046-0.113 0-0.196-0.015-0.248-0.046-0.236-0.126-0.375-0.279-0.419-0.457-0.043-0.179-0.065-0.392-0.065-0.641 0-0.714 1e-3 -1.436 3e-3 -2.166s4e-3 -1.45 4e-3 -2.159h0.529v4.554c0 0.087 8e-3 0.17 0.023 0.248 0.015 0.079 0.077 0.127 0.186 0.144 0.109-0.013 0.172-0.06 0.19-0.14 0.017-0.081 0.026-0.165 0.026-0.252-5e-3 -0.736-7e-3 -1.496-7e-3 -2.281v-2.273h0.542c0 0.731-1e-3 1.489-3e-3 2.273-2e-3 0.785-3e-3 1.545-3e-3 2.281 0 0.087 9e-3 0.17 0.026 0.248 0.017 0.079 0.081 0.127 0.19 0.144m-3.294-4.672v0.281h-0.34c-0.161 0-0.254 0.041-0.281 0.124-0.026 0.083-0.039 0.174-0.039 0.274 0 0.737 1e-3 1.477 3e-3 2.222 3e-3 0.745 4e-3 1.486 4e-3 2.222h-0.536v-4.28c0-0.248 0.022-0.463 0.065-0.644 0.044-0.181 0.181-0.332 0.412-0.454 0.065-0.031 0.168-0.042 0.307-0.036 0.139 7e-3 0.274 0.012 0.405 0.016zm-3.352-0.275h0.549v5.398h-0.549zm-3.045 0c-5e-3 0.493-7e-3 0.985-7e-3 1.477v2.771c0 0.213 0.022 0.439 0.066 0.676 0.043 0.238 0.18 0.383 0.411 0.435 0.131 0.039 0.295 0.055 0.494 0.049 0.198-7e-3 0.369-0.01 0.513-0.01v-0.497h-0.634c-0.161 0-0.255-0.049-0.281-0.147s-0.039-0.197-0.039-0.297c0-0.235 1e-3 -0.47 3e-3 -0.706 2e-3 -0.235 3e-3 -0.47 3e-3 -0.705h0.432v-0.51c-0.097-5e-3 -0.169-7e-3 -0.219-7e-3h-0.213v-0.065c-9e-3 -0.828-9e-3 -1.649 0-2.464z" fill="#fff"/>
    </g>
   </g>
  </g>
 </g>
</svg>
