<svg width="800" height="511.5" enable-background="new 0 0 1600 900" version="1.1" viewBox="0 0 800 511.5" xml:space="preserve" xmlns="http://www.w3.org/2000/svg">
<path d="m362.79 0.63823c2.976 0 5.3876 2.4116 5.392 5.3893l3e-3 355.81c0 2.976-2.4133 5.3893-5.3938 5.392h-43.125c-3.064 0-5.5467-2.416-5.5467-5.3964v-307.28c0-2.9804-2.4133-5.3964-5.392-5.3964v7e-3l-49.429-3e-3c-2.9733-3e-3 -5.3831-2.416-5.3849-5.3938l-3e-3 -37.732c0-2.976 2.4116-5.3876 5.3876-5.3938l103.49-3e-3" fill="#fa4b14" stroke-width=".88889"/><g transform="matrix(.88889 0 0 .88889 -311.36 -142.9)" fill="#002846"><path d="m544.36 209.28c0 3.353-2.715 6.068-6.066 6.068h-48.518c-12.129 0-24.26 6.061-24.26 24.26v39.879c0 3.353 2.715 6.073 6.066 6.073l164.5-0.013c3.35 0 6.068 2.715 6.068 6.066l-3e-3 275.5h3e-3c0 3.353-2.72 6.068-6.073 6.068h-48.513c-3.351 0-6.066-2.718-6.068-6.068v-5e-3l5e-3 -220.91c0-3.35-2.715-6.066-6.066-6.066l-103.86 3e-3c-3.348 8e-3 -6.058 2.715-6.061 6.061l-3e-3 220.92c0 3.35-2.718 6.066-6.068 6.066l-48.511-3e-3c-3.35 0-6.066-2.715-6.066-6.066v-220.91l-3e-3 -3e-3c-5e-3 -3.348-2.718-6.063-6.066-6.063l-42.455-3e-3c-3.348-3e-3 -6.061-2.713-6.063-6.061v-42.455c0-3.35 2.715-6.066 6.066-6.066h42.453c3.35 0 6.068-2.713 6.068-6.061v-39.879c0-54.587 42.453-78.847 84.908-78.847h48.516c3.35 0 6.066 2.715 6.066 6.063z"/><path d="m1147.2 263.87c84.913 0 103.1 54.582 103.1 121.3v181.94c0 3.35-2.715 6.068-6.066 6.068h-48.521c-3.348-3e-3 -6.063-2.718-6.063-6.068v-181.94c0-36.395-6.061-66.718-54.582-66.718-42.458 0-66.718 30.324-66.718 78.842l0.01 169.82c0 3.35-2.718 6.068-6.068 6.068h-48.518c-3.35 0-6.068-2.718-6.068-6.068v-181.94c0-36.395-6.066-66.718-54.587-66.718-30.321 0-66.711 18.197-66.711 78.842l5e-3 169.82c0 3.35-2.72 6.068-6.073 6.068l-48.516 5e-3c-3.35 0-6.068-2.718-6.068-6.073v-291.12c0-3.348 2.715-6.058 6.063-6.063l42.458-3e-3s4.55 0.013 6.063 6.066l6.068 24.258c0.633 2.538 2.156 2.847 3.333 2.619 1.207-0.233 2.73-2.619 2.73-2.619 12.129-18.192 36.387-36.384 78.845-36.384 48.521 0 66.716 24.26 78.842 42.453 0 0 1.473 2.174 2.956 2.174 1.425 0 3.113-2.174 3.113-2.174 18.191-24.262 48.517-42.454 90.97-42.454"/><path d="m909.52 736.19c0.816 0 1.477-0.661 1.477-1.477v-97.794c0-0.822-0.667-1.489-1.489-1.489h-11.415c-0.822 0-1.489 0.667-1.489 1.489v97.794c0 0.816 0.661 1.477 1.477 1.477z"/><path d="m850.63 736.19c0.824 0 1.493-0.668 1.493-1.493v-97.779c0-0.822-0.667-1.489-1.489-1.489h-15.759c-0.886 0-1.683 0.538-2.014 1.359l-32.38 80.259c-0.326 0.808-1.469 0.808-1.795 0l-32.38-80.259c-0.331-0.821-1.128-1.359-2.014-1.359h-15.759c-0.822 0-1.489 0.667-1.489 1.489v97.779c0 0.824 0.668 1.493 1.493 1.493h11.409c0.824 0 1.493-0.668 1.493-1.493v-70.073c0-0.529 0.727-0.675 0.931-0.186l29.351 70.442c0.331 0.794 1.106 1.31 1.966 1.31h11.797c0.86 0 1.635-0.517 1.966-1.311l29.348-70.436c0.203-0.488 0.931-0.343 0.931 0.186v70.068c0 0.824 0.668 1.493 1.493 1.493z"/><path d="m703.94 736.19c0.824 0 1.493-0.668 1.493-1.493v-9.979c0-0.82-0.665-1.484-1.484-1.484h-50.347c-0.789 0-1.428-0.639-1.428-1.428v-28.81c0-0.789 0.639-1.428 1.428-1.428h47.468c0.82 0 1.484-0.665 1.484-1.484v-9.987c0-0.82-0.665-1.484-1.484-1.484h-47.468c-0.789 0-1.428-0.639-1.428-1.428v-27.373c0-0.789 0.639-1.428 1.428-1.428h50.347c0.82 0 1.484-0.665 1.484-1.484v-9.979c0-0.822-0.667-1.489-1.489-1.489h-64.674c-0.822 0-1.489 0.667-1.489 1.489v97.779c0 0.824 0.668 1.493 1.493 1.493h64.666z"/><path d="m454.3 635.43h-47.942c-0.823 0-1.489 0.667-1.489 1.489v97.779c0 0.824 0.668 1.493 1.493 1.493h11.408c0.824 0 1.493-0.668 1.493-1.493v-40.225c0-0.81 0.657-1.467 1.467-1.467h30.2c18.664 0 33.03-8.59 33.107-28.626 0.061-16.119-13.619-28.95-29.737-28.95zm-3.371 44.623h-30.2c-0.81 0-1.467-0.657-1.467-1.467v-28.747c0-0.804 0.652-1.456 1.456-1.456h30.211c12.956 0 18.714 4.32 18.714 15.835s-5.758 15.835-18.714 15.835z"/><path d="m1021.6 736.19c0.824 0 1.493-0.668 1.493-1.493v-9.979c0-0.82-0.665-1.484-1.484-1.484h-50.347c-0.789 0-1.428-0.639-1.428-1.428v-28.81c0-0.789 0.639-1.428 1.428-1.428h47.468c0.82 0 1.484-0.665 1.484-1.484v-9.987c0-0.82-0.665-1.484-1.484-1.484h-47.468c-0.789 0-1.428-0.639-1.428-1.428v-27.373c0-0.789 0.639-1.428 1.428-1.428h50.347c0.82 0 1.484-0.665 1.484-1.484v-9.979c0-0.822-0.667-1.489-1.489-1.489h-64.674c-0.823 0-1.489 0.667-1.489 1.489v97.779c0 0.824 0.668 1.493 1.493 1.493h64.666z"/><path d="m577.46 693.01c-0.757-1.189 0-1.438 0-1.438 12.889-2.864 21.503-11.426 21.592-27.104 0.092-16.17-13.683-29.033-29.854-29.033h-47.824c-0.822 0-1.489 0.667-1.489 1.489v97.796c0 0.815 0.661 1.476 1.476 1.476h11.443c0.815 0 1.476-0.661 1.476-1.476v-40.252c0-0.805 0.652-1.457 1.457-1.457h23.776c0.74 0 1.43 0.376 1.83 0.999l26.496 41.215c0.389 0.605 1.058 0.97 1.777 0.97h6.573c0.786 0 1.423-0.637 1.423-1.423v-8.695c0-0.913-0.26-1.807-0.75-2.577zm-41.728-12.952c-0.803 0-1.454-0.651-1.454-1.454v-28.763c0-0.803 0.651-1.454 1.454-1.454h30.213c12.956 0 18.714 4.32 18.714 15.835s-5.757 15.835-18.714 15.835h-30.213z"/><path d="m1122.3 693.01c-0.757-1.189 0-1.438 0-1.438 12.889-2.864 21.503-11.426 21.592-27.104 0.092-16.17-13.684-29.033-29.854-29.033h-47.824c-0.823 0-1.489 0.667-1.489 1.489v97.796c0 0.815 0.661 1.476 1.476 1.476h11.443c0.815 0 1.476-0.661 1.476-1.476v-40.252c0-0.805 0.652-1.457 1.457-1.457h23.776c0.74 0 1.43 0.376 1.83 0.999l26.496 41.215c0.389 0.605 1.058 0.97 1.777 0.97h6.573c0.786 0 1.423-0.637 1.423-1.423v-8.695c0-0.913-0.26-1.807-0.75-2.577zm-41.728-12.952c-0.803 0-1.454-0.651-1.454-1.454v-28.763c0-0.803 0.651-1.454 1.454-1.454h30.213c12.956 0 18.714 4.32 18.714 15.835s-5.757 15.835-18.714 15.835h-30.213z"/><path d="m1248.8 736.19c0.824 0 1.493-0.668 1.493-1.493v-9.979c0-0.82-0.665-1.484-1.484-1.484h-50.347c-0.789 0-1.428-0.639-1.428-1.428v-28.81c0-0.789 0.639-1.428 1.428-1.428h47.468c0.82 0 1.484-0.665 1.484-1.484v-9.987c0-0.82-0.665-1.484-1.484-1.484h-47.468c-0.789 0-1.428-0.639-1.428-1.428v-27.373c0-0.789 0.639-1.428 1.428-1.428h50.347c0.82 0 1.484-0.665 1.484-1.484v-9.979c0-0.822-0.667-1.489-1.489-1.489h-64.674c-0.823 0-1.489 0.667-1.489 1.489v97.779c0 0.824 0.668 1.493 1.493 1.493h64.666z"/></g>
</svg>
