<svg width="5.5865mm" height="3.0339mm" version="1.1" viewBox="0 0 5.5865 3.0339" xmlns="http://www.w3.org/2000/svg">
 <defs>
  <clipPath id="a">
   <path d="m226.81 354.14h15.836v8.6h-15.836z"/>
  </clipPath>
 </defs>
 <g transform="translate(20.517 -145.61)">
  <g transform="matrix(.35278 0 0 -.35278 -17.954 145.61)">
   <path d="m0 0v-7.623l8.573-0.977-0.95 8.6z" fill="#e2001a"/>
  </g>
  <g transform="matrix(.35278 0 0 -.35278 -20.397 146.51)">
   <path d="m0 0v-1.021h-0.34v-0.44h0.34v-1.081h0.481v1.081h0.82v0.44h-0.82v0.581h1.02v0.44z"/>
  </g>
  <path d="m-19.79 147.4h0.1838v-0.90382h-0.1838z"/>
  <g transform="matrix(.35278 0 0 -.35278 -18.9 147.4)">
   <path d="m0 0h-1.781v2.562h0.5v-2.122h0.86v0.341l0.421 0.02z" fill-rule="evenodd"/>
  </g>
  <g transform="matrix(.35278 0 0 -.35278 -18.081 147.4)">
   <path d="m0 0h-0.421v1.661l-0.64-0.56-0.641 0.56 0.02-1.661h-0.44v2.562l1.061-0.941 1.061 0.941z" fill-rule="evenodd"/>
  </g>
  <g transform="matrix(.35278 0 0 -.35278 -15.758 147.09)">
   <path d="m0 0-0.507-0.897h-0.559l0.816 1.287-0.794 1.249h0.559l0.485-0.882 0.492 0.882h0.559l-0.786-1.249 0.808-1.287h-0.559z" fill="#fff" fill-rule="evenodd"/>
  </g>
  <g transform="matrix(.35278 0 0 -.35278 -100.53 273.58)">
   <g clip-path="url(#a)">
    <g transform="translate(235.63 358.79)">
     <path d="m0 0h-0.419v-0.676h0.419v-0.448h-0.889v1.124h-0.347l1e-3 0.404h0.346v1.029h0.889v-0.448h-0.419v-0.581h0.419zm0.015 0h-0.015v0.404h0.015c0.161 0 0.309 0.147 0.309 0.294 0 0.169-0.155 0.287-0.309 0.287h-0.015v0.448h0.015c0.624 0 0.786-0.5 0.786-0.728 0-0.117-0.044-0.33-0.265-0.47 0.236-0.066 0.405-0.301 0.405-0.595 0-0.177-0.155-0.764-0.919-0.764h-0.022v0.448h0.015c0.25 0 0.404 0.161 0.404 0.33 0 0.162-0.118 0.346-0.404 0.346" fill="#fff" fill-rule="evenodd"/>
    </g>
    <g transform="translate(238.09 358.12)">
     <path d="m0 0c-0.456 0-0.823 0.368-0.823 0.823 0 0.456 0.367 0.823 0.823 0.823v0.5h-0.015c-0.727 0-1.322-0.588-1.322-1.323 0-0.727 0.595-1.323 1.322-1.323h0.015zv-0.5c0.728 8e-3 1.316 0.596 1.316 1.323 0 0.728-0.588 1.316-1.316 1.323v-0.5c0.456 0 0.823-0.367 0.823-0.823 0-0.455-0.367-0.823-0.823-0.823" fill="#fff" fill-rule="evenodd"/>
    </g>
   </g>
  </g>
 </g>
</svg>
