<svg width="800" height="511.49" enable-background="new 0 0 1600 900" version="1.1" viewBox="0 0 800 511.49" xml:space="preserve" xmlns="http://www.w3.org/2000/svg">
<path d="m362.8 0.63734c2.976 0 5.3876 2.4116 5.392 5.3893l3e-3 355.81c0 2.976-2.4133 5.3893-5.3938 5.392h-43.125c-3.064 0-5.5467-2.416-5.5467-5.3964v-307.28c0-2.9804-2.4133-5.3964-5.392-5.3964v7e-3l-49.428-3e-3c-2.9733-3e-3 -5.3831-2.416-5.3849-5.3938l-3e-3 -37.732c0-2.976 2.4116-5.3876 5.3876-5.3938l103.49-2e-3" fill="#aa3c96" stroke-width=".88889"/><path d="m799.81 432.46-26.293 42.571c-0.2551 0.41333-0.3911 0.89067-0.3911 1.3769v33.823c0 0.696-0.5645 1.2604-1.2605 1.2604h-10.274c-0.696 0-1.2604-0.56444-1.2604-1.2604v-33.823c0-0.48622-0.1351-0.96267-0.3911-1.3769l-26.293-42.571c-0.1227-0.19912-0.1884-0.42845-0.1884-0.66223v-8.6178c0-0.69601 0.5644-1.2604 1.2604-1.2604h6.2169c0.4427 0 0.8533 0.232 1.0809 0.61244l24.225 40.378c0.2204 0.36711 0.752 0.36711 0.9724 0l24.225-40.378c0.2275-0.37955 0.6382-0.61244 1.0808-0.61244h6.2169c0.696 0 1.2605 0.56444 1.2605 1.2604v8.6178c9e-4 0.23378-0.064 0.46311-0.1867 0.66223zm-129.32 77.72-0.029-8.9031c0-0.72-0.5867-1.3031-1.3076-1.3031h-42.175c-0.72267 0-1.3076-0.58578-1.3076-1.3084l0.0373-75.439c0-0.72267-0.58489-1.3084-1.3076-1.3084h-10.18c-0.72178 0-1.3076 0.58578-1.3076 1.3076v86.958c0 0.72177 0.58489 1.3076 1.3076 1.3076h54.963c0.7245 0 1.3103-0.58755 1.3076-1.3111zm-568.26-48.593h-39.642c-0.70311 0-1.2729-0.56978-1.2729-1.2729v-25.608c0-0.70222 0.568-1.2711 1.2702-1.2729l42.246-0.0924c0.70222-2e-3 1.2702-0.57067 1.2702-1.2729v-8.8764c0-0.70311-0.56978-1.2729-1.2729-1.2729h-55.037c-0.70311 0-1.2729 0.56978-1.2729 1.2729v87.028c0 0.70311 0.56978 1.2729 1.2729 1.2729h10.249c0.70311 0 1.2738-0.57067 1.2729-1.2738l-0.0373-35.842c-8.9e-4 -0.70312 0.56978-1.2738 1.2729-1.2738h39.681c0.70311 0 1.2729-0.56978 1.2729-1.2729v-8.9689c-2e-3 -0.704-0.57156-1.2738-1.2738-1.2738zm70.28-456.2c0-2.976-2.4133-5.3893-5.392-5.3893h-43.125c-37.738 0-75.474 21.564-75.474 70.086v35.448c0 2.976-2.416 5.3876-5.3938 5.3876h-37.736c-2.9778 0-5.392 2.4133-5.392 5.392v37.738c3e-3 2.976 2.4133 5.3849 5.3893 5.3876l37.738 3e-3c2.976 0 5.3876 2.4133 5.392 5.3893l3e-3 3e-3v196.37c0 2.9778 2.4133 5.392 5.392 5.392l43.121 3e-3c2.9778 0 5.3938-2.4133 5.3938-5.392l3e-3 -196.37c3e-3 -2.9733 2.4116-5.3804 5.3876-5.3876l92.317-3e-3c2.9778 0 5.392 2.4133 5.392 5.392l-4e-3 196.36v4e-3c3e-3 2.9778 2.416 5.3938 5.3938 5.3938h43.123c2.9804 0 5.3982-2.4133 5.3982-5.3938h-3e-3l3e-3 -244.89c0-2.9778-2.416-5.392-5.3938-5.392l-146.22 0.0116c-2.9778 0-5.392-2.4178-5.392-5.3982v-35.448c0-16.178 10.784-21.564 21.564-21.564h43.127c2.9778 0 5.392-2.4133 5.392-5.3938zm535.84 86.257c-37.736 0-64.693 16.171-80.863 37.736 0 0-1.5004 1.9324-2.7671 1.9324-1.3182 0-2.6276-1.9324-2.6276-1.9324-10.779-16.171-26.952-37.736-70.082-37.736-37.74 0-59.303 16.171-70.085 32.341 0 0-1.3538 2.1209-2.4267 2.328-1.0462 0.20266-2.4-0.072-2.9627-2.328l-5.3938-21.563c-1.3449-5.3804-5.3893-5.392-5.3893-5.392l-37.74 3e-3c-2.976 4e-3 -5.3893 2.4133-5.3893 5.3893v258.77c0 2.9831 2.416 5.3982 5.3938 5.3982l43.125-4e-3c2.9804 0 5.3982-2.416 5.3982-5.3938l-4e-3 -150.95c0-53.907 32.346-70.082 59.299-70.082 43.13 0 48.522 26.955 48.522 59.305v161.73c0 2.9778 2.416 5.3938 5.3938 5.3938h43.127c2.9778 0 5.3938-2.416 5.3938-5.3938l-9e-3 -150.95c0-43.127 21.564-70.082 59.305-70.082 43.13 0 48.517 26.955 48.517 59.305v161.73c0 2.9778 2.4134 5.392 5.3894 5.3938h43.13c2.9787 0 5.392-2.416 5.392-5.3938v-161.73c9e-4 -59.305-16.17-107.82-91.648-107.82m-500.05 330.27h11.256c0.54756 0 1.04 0.33511 1.2409 0.84445l30.808 78.27c0.0293 0.15467 0.0578 0.30489 0.0871 0.45867v8.7209c0 0.72444-0.55378 1.2809-1.2782 1.2809v-4e-3l-4e-3 4e-3h-7.6774l-2e-3 -2e-3c-0.82312-6e-3 -1.2756-1.2782-1.2756-1.2782l-8.9e-4 -2e-3 -7.9058-19.676c-0.19377-0.48177-0.66044-0.79822-1.1804-0.79822h-36.905c-0.53245 0-1.0116 0.32445-1.208 0.81956l-7.824 19.653s-0.45422 1.2809-1.2809 1.2809h-7.6747c-0.70755 0-1.2809-0.57333-1.2809-1.2809v-8.7129c0.0302-0.15911 0.0596-0.31466 0.0898-0.47377l30.774-78.262c0.20089-0.50845 0.69333-0.84356 1.2409-0.84356zm-8.6685 56.304h28.62c0.43644 0 0.73689-0.44 0.57689-0.84622l-14.418-36.701c-0.16623-0.42401-0.76623-0.42401-0.93334 0l-14.428 36.693c-0.16178 0.41067 0.14133 0.85422 0.58222 0.85422zm325.15 33.27c0.72534 0 1.3129-0.58756 1.3129-1.3129v-86.936c0-0.73156-0.59289-1.3236-1.3236-1.3236h-10.149c-0.73156 0-1.3236 0.59289-1.3236 1.3236v86.936c0 0.72533 0.58756 1.3129 1.3129 1.3129zm-100.41 0c0.73245 0 1.3271-0.59378 1.3271-1.3271v-86.922c0-0.73156-0.59289-1.3236-1.3236-1.3236h-14.009c-0.78756 0-1.496 0.47822-1.7902 1.2089l-28.785 71.349c-0.28978 0.71822-1.3067 0.71822-1.5964 0l-28.785-71.349c-0.29422-0.73067-1.0036-1.208-1.7902-1.208h-14.009c-0.73155 0-1.3236 0.59289-1.3236 1.3236v86.922c0 0.73244 0.59378 1.3271 1.3271 1.3271h10.142c0.73245 0 1.3271-0.59378 1.3271-1.3271v-62.293c0-0.47023 0.64623-0.60001 0.82756-0.16534l26.092 62.621c0.29423 0.70577 0.98311 1.1653 1.7476 1.1653h10.487c0.76445 0 1.4533-0.45956 1.7476-1.1653l26.09-62.616c0.18044-0.43378 0.82755-0.30489 0.82755 0.16533v62.288c0 0.73244 0.59378 1.3271 1.3271 1.3271z" fill="#fff" stroke-width=".88889"/>
</svg>
