<svg width="800" height="512.76" enable-background="new 0 0 1600 900" version="1.1" viewBox="0 0 800 512.76" xml:space="preserve" xmlns="http://www.w3.org/2000/svg">
<path d="m362.79 0.63822c2.976 0 5.3876 2.4115 5.392 5.3893l3e-3 355.81c0 2.976-2.4133 5.3893-5.3938 5.392h-43.125c-3.064 0-5.5467-2.416-5.5467-5.3964v-307.28c0-2.9804-2.4133-5.3964-5.392-5.3964v7e-3l-49.428-3e-3c-2.9733-3e-3 -5.3831-2.416-5.3849-5.3938l-3e-3 -37.732c0-2.976 2.4116-5.3875 5.3876-5.3938l103.49-3e-3" fill="#ffaf00" stroke-width=".88889"/>
<g transform="matrix(.88889 0 0 .88889 -312.03 -143.54)" fill="#fff"><path d="m545.11 210.01c0 3.353-2.715 6.068-6.066 6.068h-48.518c-12.129 0-24.26 6.061-24.26 24.26v39.879c0 3.353 2.715 6.073 6.066 6.073l164.5-0.013c3.35 0 6.068 2.715 6.068 6.066l-3e-3 275.5h3e-3c0 3.353-2.72 6.068-6.073 6.068h-48.513c-3.35 0-6.066-2.718-6.068-6.068v-5e-3l5e-3 -220.91c0-3.35-2.715-6.066-6.066-6.066l-103.86 3e-3c-3.348 8e-3 -6.058 2.715-6.061 6.061l-3e-3 220.92c0 3.35-2.718 6.066-6.068 6.066l-48.511-3e-3c-3.35 0-6.066-2.715-6.066-6.066v-220.91l-3e-3 -3e-3c-5e-3 -3.348-2.718-6.063-6.066-6.063l-42.455-3e-3c-3.348-3e-3 -6.061-2.713-6.063-6.061v-42.455c0-3.35 2.715-6.066 6.066-6.066h42.453c3.35 0 6.068-2.713 6.068-6.061v-39.879c0-54.587 42.453-78.847 84.908-78.847h48.516c3.35 0 6.066 2.715 6.066 6.063z"/><path d="m1147.9 264.59c84.913 0 103.1 54.582 103.1 121.3v181.94c0 3.35-2.715 6.068-6.066 6.068h-48.521c-3.348-3e-3 -6.063-2.718-6.063-6.068v-181.94c0-36.394-6.061-66.718-54.582-66.718-42.458 0-66.718 30.324-66.718 78.842l0.01 169.82c0 3.35-2.718 6.068-6.068 6.068h-48.518c-3.35 0-6.068-2.718-6.068-6.068v-181.94c0-36.394-6.066-66.718-54.587-66.718-30.321 0-66.711 18.197-66.711 78.842l5e-3 169.82c0 3.35-2.72 6.068-6.073 6.068l-48.516 5e-3c-3.35 0-6.068-2.718-6.068-6.073v-291.12c0-3.348 2.715-6.058 6.063-6.063l42.458-3e-3s4.55 0.013 6.063 6.066l6.068 24.258c0.633 2.538 2.156 2.847 3.333 2.619 1.207-0.233 2.73-2.619 2.73-2.619 12.129-18.192 36.387-36.384 78.845-36.384 48.521 0 66.716 24.26 78.842 42.453 0 0 1.473 2.174 2.956 2.174 1.425 0 3.113-2.174 3.113-2.174 18.191-24.261 48.518-42.453 90.97-42.453"/><path d="m1251 735.43v-97.814c0-0.81-0.657-1.467-1.467-1.467h-11.458c-0.81 0-1.467 0.657-1.467 1.467v74.695c0 0.69-0.897 0.957-1.275 0.38l-49.218-75.21c-0.544-0.831-1.47-1.331-2.462-1.331h-13.271c-0.81 0-1.467 0.657-1.467 1.468l0.045 97.82c0 0.81 0.657 1.466 1.467 1.466h11.458c0.81 0 1.467-0.657 1.467-1.468l-0.04-74.75c0-0.689 0.896-0.957 1.274-0.38l49.175 75.207c0.54 0.826 1.46 1.326 2.447 1.33l13.318 0.054c0.812 4e-3 1.472-0.654 1.472-1.467z"/><path d="m806.44 647.64v-10.039c0-0.805-0.653-1.458-1.458-1.458h-77.685c-0.805 0-1.458 0.653-1.458 1.458v10.039c0 0.805 0.653 1.458 1.458 1.458h30.147c0.805 0 1.457 0.652 1.458 1.457l0.04 84.884c0 0.805 0.653 1.457 1.458 1.457h11.477c0.805 0 1.458-0.653 1.458-1.459l-0.04-84.882c0-0.805 0.652-1.459 1.458-1.459h30.23c0.804 2e-3 1.457-0.651 1.457-1.456z"/><path d="m1035.8 634.71c-30.226 0-47.496 21.59-47.496 51.813 0 30.226 17.271 51.816 47.496 51.816 30.226 0 47.497-21.59 47.497-51.816 0-30.223-17.271-51.813-47.497-51.813zm0 90.674c-21.59 0-33.104-15.83-33.104-38.861 0-23.028 11.514-38.858 33.104-38.858s33.104 15.83 33.104 38.858c0 23.031-11.513 38.861-33.104 38.861z"/><path d="m901.27 736.9c0.816 0 1.477-0.661 1.477-1.477v-97.784c0-0.822-0.667-1.489-1.489-1.489h-11.414c-0.822 0-1.489 0.667-1.489 1.489v97.784c0 0.816 0.661 1.477 1.477 1.477z"/><path d="m440.33 637.1-34.614 88.028c-0.034 0.179-0.067 0.354-0.101 0.533v9.8c0 0.796 0.645 1.441 1.441 1.441h8.632c0.93 0 1.441-1.441 1.441-1.441l8.801-22.106c0.222-0.557 0.76-0.922 1.359-0.922h41.51c0.584 0 1.11 0.355 1.328 0.897l8.892 22.13s0.509 1.432 1.435 1.438l2e-3 2e-3h8.635l4e-3 -4e-3v4e-3c0.815 0 1.437-0.626 1.437-1.441v-9.809c-0.033-0.174-0.065-0.343-0.098-0.516l-34.652-88.037c-0.226-0.573-0.779-0.95-1.395-0.95h-12.66c-0.617 2e-3 -1.171 0.379-1.397 0.953zm-9.01 61.418 16.228-41.272c0.187-0.477 0.862-0.477 1.05 0l16.217 41.281c0.18 0.457-0.158 0.952-0.649 0.952h-32.192c-0.495 0-0.835-0.5-0.654-0.961z"/><path d="m651.05 705.24-3e-3 -3e-3h-11.514l-3e-3 3e-3h-0.016c-1.099 0-1.441 1.438-1.441 1.438h0.019c-2.879 10.073-10.073 18.708-25.906 18.708-21.59 0-33.104-15.83-33.104-38.861 0-23.028 11.514-38.858 33.104-38.858 14.392 0 23.028 7.194 25.906 17.271 0 0 0.342 1.438 1.441 1.438h11.51l4e-3 3e-3c0.815 0 1.589-0.334 1.437-1.441-2.879-17.271-17.271-30.226-40.299-30.226-30.226 0-47.496 21.59-47.496 51.813 0 30.226 17.271 51.816 47.496 51.816 24.469 0 37.42-14.393 40.299-31.663l-0.021-0.021c0.137-1.077-0.612-1.411-1.413-1.417z"/></g>
</svg>
