<svg width="800" height="168.48" version="1.1" viewBox="0 0 800 168.48" xmlns="http://www.w3.org/2000/svg">
 <g transform="translate(-4.386e-5 1.3396e-5)" fill="#d2190a" stroke-width="5.5392">
  <path class="a" d="m518.65 80.998a25.763 25.763 0 0 0-15.344 7.9044v77.732a109.32 109.32 0 0 1-18.146 1.3737 111.27 111.27 0 0 1-18.152-1.3737v-116.14l1.623-1.6119h13.488a19.265 19.265 0 0 1 19.548 14.657 48.955 48.955 0 0 1 32.127-15.133 29.28 29.28 0 0 1 27.225 16.064 57.547 57.547 0 0 1 35.839-16.064c20.495 0 30.936 15.82 30.936 37.007v52.118a39.594 39.594 0 0 0 5.8162 23.043 34.897 34.897 0 0 1-22.572 7.8989c-14.651 0-19.537-7.8989-19.537-22.578v-49.543c0-12.352-6.0488-15.349-10.94-15.349a24.051 24.051 0 0 0-14.889 8.1371v77.493a112.22 112.22 0 0 1-18.379 1.3737 113.43 113.43 0 0 1-18.158-1.3737v-70.049c0-12.352-5.3398-15.593-10.464-15.593"/>
  <path class="a" d="m660.19 3.7203a40.807 40.807 0 0 1 17.221-3.7168 39.328 39.328 0 0 1 17.216 3.7168 33.917 33.917 0 0 1 0 26.987 43.516 43.516 0 0 1-17.216 3.4897 39.561 39.561 0 0 1-17.221-3.4897 34.808 34.808 0 0 1-2.7696-13.499 34.044 34.044 0 0 1 2.7696-13.488m40.719 162.85a112.19 112.19 0 0 1-18.396 1.3793 113.45 113.45 0 0 1-18.146-1.3793v-76.995c0-7.6884-2.7696-13.51-10.94-13.51h-3.4786a42.552 42.552 0 0 1-1.407-12.336 50.567 50.567 0 0 1 1.407-13.017c7.201-0.69794 15.344-1.1688 20.495-1.1688h5.1293c15.349 0 25.364 10.696 25.364 27.696z"/>
  <path class="a" d="m800 62.824a61.856 61.856 0 0 1-1.3959 13.294l-27.696-0.46529v53.52c0 6.9849 3.041 10.94 10.242 10.94h13.028a53.481 53.481 0 0 1 3.0189 17.205 30.311 30.311 0 0 1-0.92505 8.1592 254.59 254.59 0 0 1-29.995 2.3375c-21.187 0-30.97-10.259-30.97-32.354v-59.58l-18.146 0.21603a51.797 51.797 0 0 1 0-25.835l18.146 0.47637v-13.488c0-16.064 5.5946-21.874 19.78-21.874h14.191l1.6285 1.6174v33.745l27.696-0.47637a62.172 62.172 0 0 1 1.3959 12.563"/>
 </g>
 <g transform="translate(-4.386e-5 1.3396e-5)" fill="#fff" stroke-width="5.5392">
  <path class="b" d="m175.68 140.09a52.816 52.816 0 0 1 2.7696 17.205 31.13 31.13 0 0 1-0.68132 8.1537 159.56 159.56 0 0 1-25.137 2.3375c-20.938 0-28.843-10.248-28.843-32.349v-127.89l1.3903-1.623h14.197c14.402 0 19.792 5.578 19.792 21.869v101.37c0 6.9794 2.7696 10.94 10.22 10.94z"/>
  <path class="b" d="m201.59 3.7203a40.896 40.896 0 0 1 17.227-3.7168 39.295 39.295 0 0 1 17.216 3.7168 34 34 0 0 1 0 26.987 43.499 43.499 0 0 1-17.216 3.4897 39.6 39.6 0 0 1-17.227-3.4897 35.191 35.191 0 0 1-2.7696-13.499 34.415 34.415 0 0 1 2.7696-13.488m40.719 162.85a112.05 112.05 0 0 1-18.379 1.3793 113.28 113.28 0 0 1-18.146-1.3793v-76.995c0-7.6884-2.7696-13.51-10.934-13.51h-3.4786a42.303 42.303 0 0 1-1.407-12.336 50.246 50.246 0 0 1 1.407-13.017c7.201-0.69794 15.349-1.1688 20.495-1.1688h5.1127c15.366 0 25.364 10.696 25.364 27.696z"/>
  <path class="b" d="m325.69 80.998a25.824 25.824 0 0 0-15.382 7.9044v77.732a109.18 109.18 0 0 1-18.146 1.3737 111.1 111.1 0 0 1-18.13-1.3737v-116.14l1.6119-1.6119h13.494a19.282 19.282 0 0 1 19.564 14.657 48.895 48.895 0 0 1 32.094-15.133 29.269 29.269 0 0 1 27.22 16.064 57.547 57.547 0 0 1 35.844-16.064c20.456 0 30.931 15.82 30.931 37.007v52.118a39.295 39.295 0 0 0 5.8439 23.043 35.002 35.002 0 0 1-22.572 7.8989c-14.662 0-19.559-7.8989-19.559-22.578v-49.543c0-12.352-6.0488-15.349-10.934-15.349a24.007 24.007 0 0 0-14.884 8.1371v77.493a122.01 122.01 0 0 1-36.52 0v-70.049c0-12.352-5.3564-15.593-10.464-15.593"/>
  <path class="b" d="m82.806 39.332c13.527 0 19.814-5.1127 19.814-17.454a69.595 69.595 0 0 0-1.4402-14.18h-62.92c-13.239 0-38.221-2.1658-38.221 20.656 0 0.22157-0.033235 0.4099-0.038774 0.63701v137.63a113.55 113.55 0 0 0 19.066 1.3793 103.28 103.28 0 0 0 18.152-1.3793v-63.994h49.786a67.65 67.65 0 0 0 1.8723-15.105 70.071 70.071 0 0 0-1.8723-15.36h-49.786v-14.673c0-5.8051-0.23265-12.087-0.23265-18.141h45.826z"/>
 </g>
</svg>
