<svg enable-background="new 0 0 285 150" version="1.1" viewBox="0 0 153.6 144.2" xml:space="preserve" xmlns="http://www.w3.org/2000/svg">
<g transform="translate(-65.75)"><path d="m157.1 43.2v-15.4h-16.7c-6.9 0-12.5 5.6-12.5 12.5v15.5h16.7c6.9-0.1 12.5-5.7 12.5-12.6" fill="#222d56"/><path d="m175.6 0h-66.1c-8.2 0-14.9 7.2-14.9 16v51.4c0 8.9 6.7 16.1 14.9 16.1h66.1c8.2 0 14.9-7.2 14.9-16.1v-51.4c0-8.8-6.7-16-14.9-16m9.7 65.8c0 6.9-5.6 12.5-12.5 12.5h-32.4c-6.9 0-12.5-5.6-12.5-12.5v-10.1h-15.7c-6.9 0-12.5-5.6-12.5-12.5v-25.5c0-6.9 5.6-12.5 12.5-12.5h32.4c6.9 0 12.5 5.6 12.5 12.5v10.1h15.7c7 0 12.5 5.6 12.5 12.5z" fill="#32a2dc"/></g><g fill="#222d56"><path d="m6.7 123h12.5v6.2h-12.5v14.4h-6.7v-24c0-6.7 3.9-11.2 11-11.2h10.8v6.6h-10.7c-3.2 0-4.4 1.3-4.4 4.5z"/><path d="m59.4 125.8c0 10.2-7.3 18.3-17.2 18.3-10 0-17.3-8.1-17.3-18.3s7.3-18.3 17.3-18.3c9.9 0.1 17.2 8.2 17.2 18.3m-6.8 0c0-6.5-4.7-11.9-10.5-11.9s-10.5 5.4-10.5 11.9c0 6.6 4.7 12 10.5 12 5.8 0.1 10.5-5.4 10.5-12"/><path d="m79.8 144.2c-9.6 0-17.1-8-17.1-18.3s7.5-18.3 17.1-18.3c7.9 0 13.9 4.4 16.1 11.7h-7.3c-1.6-3.2-4.7-5.6-8.8-5.6-5.8 0-10.4 5.6-10.4 12.2 0 6.7 4.6 12.3 10.4 12.3 4 0 7.2-2.5 8.8-5.7h7.2c-2.3 7.1-8.2 11.7-16 11.7"/><path d="m103.7 140.6c-2.3-2.3-3.6-5.6-3.6-9.2v-23.1h6.8v23.2c0 3.7 2.3 6 6 6 3.8 0 6.1-2.3 6.1-6v-23.2h6.7v23.1c0 3.6-1.3 6.8-3.6 9.2-2.3 2.3-5.6 3.6-9.3 3.6-3.6 0-6.8-1.3-9.1-3.6"/><path d="m147.2 116.6c-1.7 1.6-2.9 3.9-2.9 9.4 0 4.9-0.6 10.5-5.3 14.3-2.7 2.3-6.5 3.3-11.1 3.2v-6.4c2.4 0 5.1-0.4 6.9-1.9 1.7-1.4 2.8-3.7 2.8-9.3 0-6.7 1.6-11.1 5.3-14.3 2.5-2.2 6.2-3.3 10.7-3.4v6.4c-2.8 0.2-5.1 0.9-6.4 2"/></g>
</svg>
