<svg width="715.47" height="409.98" viewBox="0 0 572.37 327.98" xmlns="http://www.w3.org/2000/svg">
 <g fill="#0f0f0f">
  <path d="m2.35 3.265c1.7-2.22 4.47-3.38 7.24-3.23 42.35 0 84.7 1e-3 127.05 0 3.23-0.11 6.6 1.24 8.4 4.02 1.56 2.14 1.27 4.92 1.33 7.42-0.1 9.35 0.02 18.7-0.03 28.06 0.27 4.48-3.5 8.37-7.82 8.97-3.61 0.51-7.27 0.22-10.9 0.27-26.21 0-52.42-0.03-78.62 1e-3 0.18 16.07 0.09 32.14 0.04 48.21 11.85-0.32 23.72-0.03 35.57-0.17 3.49 0.06 7.57-0.27 10.21 2.48 3.19 2.77 3.08 7.34 3.1 11.19-0.13 8.69 0.15 17.38-0.14 26.06-0.03 4.39-3.47 8.83-8.08 8.85-13.47 0.17-26.95-0.04-40.42 0.07-0.27 37.31-0.02 74.63-0.12 111.95 0.14 5.06-4.46 9.53-9.51 9.34-9.68 0.07-19.37-0.02-29.06 0.03-3.94 0.25-8.2-1.8-9.68-5.61-1.22-3.77-0.66-7.8-0.76-11.69 1e-3 -78 0.02-156-1e-3 -234 0.16-4.1-0.82-8.91 2.21-12.23z"/>
  <path d="m321.11 1.065c2.62-1.33 5.66-1.02 8.51-1.06 9 0.14 18.01-0.09 27.01 0.07 3.96-0.11 7.7 2.75 8.58 6.61 0.64 3.56 0.32 7.21 0.38 10.81-0.02 79.35-1e-3 158.69-1e-3 238.04-0.1 2.9-0.06 6.33-2.49 8.37-2.2 2.25-5.41 2.92-8.45 2.86-9.35 0.03-18.7 0.03-28.05 1e-3 -4.13 0.19-8.49-2.35-9.63-6.44-0.53-2.92-0.26-5.9-0.31-8.84 0.02-80.69-1e-3 -161.38 0.02-242.07-0.25-3.37 1.57-6.64 4.44-8.36z"/>
  <path d="m377.49 80.53c0.7-4.23 4.59-8.2 9.1-7.75 13.25 0 26.5 1e-3 39.75 0 16.26 20.25 32.2 40.77 48.41 61.06 6.88-7.88 13.15-16.32 19.74-24.46 9.5-12.22 19.27-24.2 28.68-36.48 13.8-0.22 27.62-0.14 41.42-0.05 4.82 0.18 10.26 6.72 6.3 10.96-22.54 28.59-45.16 57.11-67.69 85.71 10.68 14.36 22.12 28.16 33.11 42.3 11.68 14.66 23.19 29.46 34.9 44.1 2.49 2.56 0.33 6.37-1.82 8.38-2.48 2.7-6.44 2.42-9.78 2.51-11.67-0.11-23.34 0.1-34.99-0.1-1.43 0.15-2.14-1.35-3.01-2.18-12.48-16.15-25.28-32.04-37.9-48.08-2.97-3.67-5.67-7.56-8.9-11.02-13.5 16.95-26.83 34.03-40.33 50.96-2.75 3.32-5.09 6.99-8.13 10.05-10.85 0.84-21.83 0.08-32.73 0.36-4.36-0.23-9.45 0.8-13.06-2.27-2.38-2.1-4.25-6.15-1.71-8.84 22.56-28.75 45.48-57.23 67.84-86.12-22.42-28.3-44.73-56.69-67.21-84.94-0.79-1.26-2.32-2.48-1.99-4.1z"/>
  <path d="m162.07 192.2c0.06-0.1 0.17-0.31 0.23-0.41-0.06 0.1-0.17 0.31-0.23 0.41z"/>
  <path d="m142.97 216.25c0.08-0.09 0.25-0.28 0.34-0.37-0.09 0.09-0.26 0.28-0.34 0.37z"/>
  <path d="m414.95 290.98c2.11 0.09 4.22 0.1 6.34 0.04 0.03 2.07 0.06 4.14 0.1 6.22-2.18-0.01-4.35-0.01-6.52-0.01 0.01-2.09 0.04-4.17 0.08-6.25z"/>
  <path d="m477.95 291c2.15 0.07 4.31 0.07 6.47-1e-3 0.08 2.09 0.12 4.18 0.14 6.28-2.23-0.03-4.46-0.03-6.68-0.03 1e-3 -2.08 0.03-4.16 0.07-6.24z"/>
  <path d="m139.26 291.25c2.1-0.02 4.19-0.02 6.29 1e-3 0.03 1.91 0.06 3.83 0.09 5.76-2.15 0.09-4.3 0.09-6.45 0.03 0-1.94 0.02-3.87 0.07-5.8z"/>
  <path d="m306.46 291.13c2.03-0.05 4.07-0.05 6.12-1e-3 0.02 11.96-0.03 23.92 0.02 35.88-2.06 0.09-4.12 0.09-6.18 0.03-0.1-11.97-0.17-23.94 0.04-35.9z"/>
  <g transform="translate(-32.38 -35.505)">
   <path d="m266.1 329.49c2.02-0.08 4.05-0.09 6.07-0.03 0.07 2.37 0.12 4.74 0.18 7.12 2.29-0.03 4.58 0 6.88 0.09 0 1.73-0.02 3.48-0.02 5.22-2.33 0.06-4.65 0.13-6.97 0.22 0.18 4.75-0.37 9.56 0.37 14.27 1.62 2.07 4.46 0.91 6.65 0.87-0.01 1.61-0.05 3.23-0.05 4.85-4.1 1.65-10.35 2.16-12.57-2.57-1.26-5.7-0.32-11.62-0.61-17.4-0.82-0.08-2.45-0.24-3.27-0.32 0.01-1.64 0.01-3.29 0.04-4.92 0.76-0.1 2.29-0.29 3.05-0.39 0.11-2.34 0.19-4.67 0.25-7.01z"/>
   <path d="m32.41 336.39c2.01 0.04 4.03 0.04 6.04 0.02 0.16 0.64 0.48 1.93 0.63 2.57 2.37-1.52 4.88-3.33 7.86-2.97 3.03-0.16 5.43 1.85 7.43 3.86 2.91-2.48 6.53-4.6 10.51-3.77 4.18 0.25 7.35 4.08 7.59 8.12 0.25 6.15-0.08 12.32 0.15 18.48-2.12 0.02-4.23 0.03-6.35 0.05-0.22-5.85 0.48-11.76-0.33-17.56-0.93-4.84-8.77-4.62-9.85 0-1.12 5.75-0.35 11.67-0.46 17.5-2.13 0.02-4.25 0.04-6.37 0.07-0.23-5.83 0.51-11.73-0.32-17.51-0.62-3.31-4.84-4.49-7.52-2.89-2.07 1-2.66 3.49-2.67 5.6-0.15 4.93 0.06 9.87-0.02 14.8-2.12-0.03-4.23-0.05-6.35-0.07 0.13-8.77 0.1-17.53 0.03-26.3z"/>
   <path d="m91.31 336.38c2.1 0.03 4.2 0.04 6.29 0.03 0.11 5.81-0.51 11.68 0.3 17.46 1.02 5.17 9.69 4.84 10.58-0.25 0.62-5.63-0.03-11.33 0.32-16.99 2.13-0.06 4.27-0.06 6.4 0.01 0.15 8.61 0.15 17.22-0.01 25.84-1.76 0.08-3.53 0.15-5.3 0.23-0.59-0.84-1.17-1.68-1.76-2.52-2.53 2.1-5.74 3.82-9.13 3.01-4.58-0.28-7.73-4.81-7.68-9.15-0.13-5.89-0.03-11.78-0.01-17.67z"/>
   <path d="m136.8 337.8c4.882-3.106 11.19-1.67 15.88 1.09l-1.92 4.23c-3.52-0.66-7.75-3.88-10.85-1.02-0.527 0.486-1 2.434-0.41 2.84 3.1 2.126 7.07 2.535 10.44 4.19 4.778 2.345 4.446 10.164-0.16 12.6-5.591 2.957-12.16 1.09-17.27-1.84 0.6-1.59 1.27-3.15 1.91-4.71 3.62 1.47 7.315 4.066 11.4 2.82 1.785-0.544 2.665-2.979 1.59-3.93-2.963-2.621-7.658-2.275-11.03-4.39-4.14-2.597-3.579-9.336 0.42-11.88z"/>
   <path d="m201.56 338.6c5.21-3.8 13.25-3.56 18.03 0.87 1.19 2.17-1.72 3.58-2.74 5.2-2.73-2.1-6.15-4.16-9.69-2.78-6.51 2.53-6.4 13.32 0.26 15.61 3.46 1.48 6.84-0.74 9.65-2.56 1.25 1.12 2.49 2.26 3.73 3.4-4.81 6.25-14.94 6.81-20.54 1.33-6.13-5.43-5.39-16.39 1.3-21.07z"/>
   <path d="m298.83 339.82c4.6-5.09 13.8-5.27 18.35-1e-3 2.98 3.2 3.53 7.79 3.67 11.97-6.46 0.4-12.93 1e-3 -19.4 0.26 0.54 2.88 2.52 5.456 5.59 6.08 3.398 0.69 6.38-1.03 9.06-2.74 0.91 1.18 3.26 1.83 3.05 3.54-5.33 6.59-17.31 5.94-21.86-1.27-3.42-5.41-3-13.17 1.54-17.83m2.2 7.81c4.61 0.15 9.22 0.12 13.83 0.11-1.16-3.07-2.96-6.92-6.86-6.74-3.85-0.17-5.98 3.42-6.97 6.63z"/>
   <path d="m366.93 339.93c4.76-5.24 14.4-5.5 18.81 0.33 2.72 3.2 3.23 7.53 3.19 11.58-6.47 0.31-12.94-0.07-19.4 0.23 0.64 3.53 3.782 6.336 7.49 6.26 2.622-0.054 4.73-1.67 7.04-2.63 1.59 0.25 2.6 1.74 3.88 2.6-4.72 6.03-14.39 6.8-20.18 1.92-5.75-5.01-6.13-14.82-0.83-20.29m2.87 7.81c4.37-0.05 8.73-0.05 13.09-0.12-1.07-2.23-1.831-5.05-4.37-6.09-4.104-1.675-8.82 1.92-8.72 6.21z"/>
   <path d="m447.31 336.39c2.13 0.03 4.26 0.02 6.39-0.02 0.05 8.79 0.01 17.58 0.03 26.37-2.15-0.01-4.3-0.01-6.45-0.01 0-8.78-0.04-17.56 0.03-26.34z"/>
   <path d="m476.31 337.33c4.88-2.47 10.85-1.18 15.27 1.71-0.78 1.41-1.54 2.82-2.35 4.21-3.47-1.28-7.808-3.889-10.99-1.02-0.461 0.415-0.398 2.084 0.08 2.48 3.661 3.03 9.598 2.368 12.66 6.24 2.889 3.653 0.908 9.854-3.55 11.46-5.532 1.994-11.95 0.43-16.45-3.2 1.04-1.15 1.48-3.28 3.02-3.75 3.74 1.76 8.123 4.676 11.94 2.37 1.084-0.655 1.352-2.965 0.38-3.76-3.068-2.507-7.687-2.199-11.06-4.3-4.428-2.759-3.38-10.16 1.05-12.44z"/>
   <path d="m510.4 336.4c2.1 0.02 4.2 0.02 6.3-0.02 0.05 8.79 0 17.58 0.03 26.37-2.12-0.02-4.24-0.04-6.35-0.05 0.13-8.76 0.09-17.53 0.02-26.3z"/>
   <path d="m544.4 336.62c5.01-1.41 10.98-0.6 14.72 3.28 4.98 4.87 5.27 13.64 0.61 18.83-5.47 6.45-16.87 6.28-21.96-0.56-5.84-6.95-2.2-19.13 6.63-21.55m1.85 5.35c-3.71 1.2-5.71 5.19-4.96 8.94 0.27 4.89 5.79 8.23 10.32 6.63 5.87-1.82 7.08-10.79 2.27-14.39-2.11-1.68-5.12-2.11-7.63-1.18z"/>
   <path d="m587.28 339.66c2.34-2.2 5.26-4.13 8.65-3.62 4.45-0.17 8.45 3.58 8.7 7.99 0.26 6.23 0.01 12.48 0.11 18.71-2.13-0.02-4.25-0.03-6.36-0.04-0.05-5.85 0.45-11.74-0.24-17.55-1.31-5.31-10.25-4.26-10.7 1.04-0.48 5.43 0.07 10.89-0.25 16.34-2.07 0.06-4.13 0.06-6.18-0.02 0.05-8.62 0-17.25 0.04-25.87 2.02-0.08 4.05-0.06 6.08 0.08 0.04 0.74 0.11 2.21 0.15 2.94z"/>
   <path d="m171.82 336.63c2.04-0.06 4.09-0.06 6.14-0.01 0.02 8.63-0.03 17.26 0.02 25.89-2.05 0.08-4.11 0.08-6.17 0-0.14-8.63-0.15-17.26 0.01-25.88z"/>
   <path d="m403.35 336.62c2.08 0.09 4.4-0.57 6.36 0.38 2.59 5.61 4.08 11.68 6.61 17.33 3.49-5.16 4.43-11.56 7.12-17.12 1.74-1.46 4.45-0.35 6.57-0.52-3.22 8.8-7.1 17.35-10.4 26.12-2.06 0.09-4.11 0.09-6.15-0.05-3.03-8.84-7.35-17.21-10.11-26.14z"/>
  </g>
 </g>
 <path d="m240.44 135.35c9.306 8.927 15.12 21.46 15.12 35.37 0 27.09-21.958 49.05-49.05 49.05-15.05 0-28.503-6.784-37.5-17.45l-34.475 32.35c17.922 19.941 43.928 32.475 72.85 32.475 54.07 0 97.9-43.831 97.9-97.9 0-26.666-10.657-50.844-27.95-68.5m-145.93 130.25c-109.2 89-54.6 44.5 0 0zl30.875-39c-3.1-6.433-4.825-13.655-4.825-21.275 0-27.09 21.958-49.05 49.05-49.05 3.61 0 7.112 0.41 10.5 1.15l33-41.75c-12.883-6.239-27.35-9.725-42.625-9.725-54.07 0-97.9 43.831-97.9 97.9 0 23.412 8.216 44.904 21.925 61.75z" fill="#dd234c"/>
</svg>
