<svg width="97.64mm" height="92.286mm" version="1.1" viewBox="0 0 97.64 92.286" xmlns="http://www.w3.org/2000/svg">
 <g transform="translate(65.829 -102.69)">
  <g transform="matrix(.28222 0 0 .28222 -65.829 102.69)">
   <path d="m345.94 276.36v-276.3h-345.91v276.33l345.91-0.0313" fill="#013686"/>
   <path d="m0.031329 38.148c24.236-8.3817 49.977-13.489 76.861-14.742 120.02-5.593 225.7 66.881 269.08 173.21v-6.0004c-45.199-104.43-150.39-175.08-269.58-169.51-26.68 1.2533-52.264 6.2354-76.36 14.445v2.6007" fill="#fff"/>
   <path d="m345.94 327v-43.585l-345.86 0.12534v43.46h345.86" fill="#bc0400"/>
   <g fill="#fff">
    <g transform="matrix(21.073,0,0,-19.043,-2559.9,15862)">
     <path d="m123.21 816c-0.605 0-1.002 0.282-1.002 0.704 0 0.46 0.404 0.737 1.037 0.737 0.556 0 0.914-0.198 0.956-0.526h-0.667c-0.038 0.124-0.137 0.188-0.293 0.188-0.229 0-0.351-0.132-0.351-0.386 0-0.247 0.111-0.369 0.343-0.369 0.172 0 0.274 0.064 0.313 0.196h0.651c-0.065-0.343-0.43-0.544-0.987-0.544"/>
     <path d="m128.2 816.04c-0.015 0.044-0.026 0.089-0.034 0.14-0.187-0.124-0.392-0.183-0.644-0.183-0.396 0-0.632 0.158-0.632 0.396 0 0.227 0.179 0.364 0.537 0.42 0.469 0.073 0.72 0.053 0.72 0.157v0.033c0 0.079-0.091 0.12-0.263 0.12-0.19 0-0.301-0.053-0.327-0.153h-0.61c0.065 0.308 0.377 0.453 0.952 0.453 0.355 0 0.602-0.056 0.743-0.176 0.126-0.109 0.133-0.246 0.133-0.432v-0.51c0-0.12 0.031-0.191 0.1-0.214v-0.051zm-0.464 0.554c-0.149-0.028-0.217-0.068-0.217-0.15 0-0.094 0.095-0.16 0.243-0.16 0.225 0 0.385 0.094 0.385 0.237v0.155c-0.114-0.049-0.263-0.054-0.411-0.082"/>
     <path d="m129.35 817.39h0.647v-0.185c0.138 0.147 0.335 0.219 0.613 0.219 0.492 0 0.675-0.16 0.675-0.506v-0.877h-0.663v0.679c0 0.249-0.015 0.368-0.278 0.368-0.24 0-0.335-0.104-0.335-0.325v-0.722h-0.659z"/>
     <path d="m124.59 817.87h0.663v-0.653c0.152 0.145 0.346 0.211 0.62 0.211 0.423 0 0.652-0.158 0.652-0.457v-0.928h-0.663v0.679c0 0.249-0.015 0.368-0.278 0.368-0.24 0-0.335-0.104-0.335-0.325v-0.722h-0.659z"/>
     <path d="m131.73 817.39h0.648v-0.185c0.137 0.147 0.335 0.219 0.613 0.219 0.491 0 0.675-0.16 0.675-0.506v-0.877h-0.663v0.679c0 0.249-0.016 0.368-0.278 0.368-0.241 0-0.336-0.104-0.336-0.325v-0.722h-0.659z"/>
     <path d="m136.09 816.47c-0.118-0.295-0.48-0.465-0.998-0.465-0.625 0-1.017 0.269-1.017 0.709 0 0.452 0.4 0.726 1.017 0.726 0.636 0 1.032-0.277 1.032-0.747 0-0.025 0-0.053-3e-3 -0.078h-1.368c0-0.191 0.126-0.293 0.362-0.293 0.179 0 0.293 0.051 0.339 0.148zm-0.602 0.393c-3e-3 0.176-0.148 0.277-0.377 0.277-0.213 0-0.35-0.096-0.377-0.277z"/>
     <path d="m136.49 817.87h0.663v-1.827h-0.663z"/>
    </g>
    <path d="m-4.02e-6 276.42h0.376l95.912-276.42h-39.183l-57.105 271.9v4.5277"/>
    <path d="m2.2403 276.42 174.81-276.39h-44.118l-132.21 276.39h1.5197"/>
   </g>
   <g fill="#013686" stroke="#013686" stroke-width="6.7994">
    <path d="m117.78 166.99v-89.05h55.586l1.7077 24.346h-31.114v11.625h25.364v24.299h-25.568l-0.0157 28.78z" stroke-miterlimit="3.864"/>
    <path d="m334.67 166.87-27.62-46.217 24.863-42.582h-28.56l-10.716 18.502-11.045-18.502h-28.639l25.599 42.88-26.555 45.919 28.09-0.0313 12.784-21.886 13.066 21.918h28.733z"/>
    <path d="m227.32 141.25 0.17234-37.851c0-4.324-3.8384-8.1937-8.225-8.1937-4.3867 0-7.9274 3.8697-7.9274 8.1937l-0.0157 37.741c0 4.324 3.5564 7.8177 7.943 7.8177 4.3867 0 8.0527-3.384 8.0527-7.708zm-53.533-18.283c0-24.8 20.414-44.901 45.622-44.901 25.192 0 45.606 20.1 45.606 44.901 0 24.8-20.414 44.901-45.606 44.901-25.208 0-45.622-20.1-45.622-44.901z" stroke-miterlimit="3.864"/>
    <path d="m126.85 181.77h52.719v18.988h-32.258v11.954h26.508v17.578h-26.508v13.849h32.665v18.988h-53.126z"/>
    <path d="m183.55 181.77h20.899l9.8387 47.47 9.4314-47.47h17.515l9.9484 47 10.136-47h16.904l-19.051 81.357h-18.643l-9.635-46.311-9.3217 46.311h-19.066z"/>
    <path d="m293.94 234.67c1.5197 6.7994 5.8594 10.199 13.442 10.199 4.9507 0 7.8804-2.4597 7.8804-5.6244 0-5.969-4.9507-5.7497-14.241-8.554-15.87-4.6844-23.547-11.249-23.547-24.612 0-15.479 11.421-26.962 30.111-26.962 13.74 0 23.343 7.144 27.793 20.398l-17.891 5.969c-2.115-5.8594-5.5617-8.1937-11.311-8.1937-4.2457 0-7.1754 2.6947-7.1754 5.8437 0 4.8097 4.5434 5.0447 12.831 7.3947 6.8777 1.9897 13.238 3.2744 18.69 8.319 4.4494 4.1047 6.768 10.089 6.768 17.343 0 6.815-2.4127 13.254-6.862 18.064-5.7654 6.2197-13.849 9.6194-23.453 9.6194-17.782 0-29.406-9.1494-32.743-24.863z"/>
    <path d="m101.38 182.08v40.875l-24.456-40.828h-23.563l-0.20367 80.934 20.837-0.047v-46.891l27.918 46.938h19.724v-80.934z"/>
   </g>
   <g fill="#fff">
    <path d="m117.74 166.85v-89.065h55.601l1.7077 24.346h-31.114v11.625h25.349v24.299h-25.568l-0.0157 28.795z"/>
    <path d="m334.64 166.73-27.636-46.217 24.863-42.598h-28.56l-10.7 18.502-11.061-18.502h-28.639l25.599 42.896-26.555 45.919 28.106-0.0313 12.768-21.886 13.082 21.918h28.733"/>
    <path d="m227.28 141.11 0.17234-37.867c0-4.3084-3.8227-8.178-8.2094-8.178-4.4024 0-7.943 3.8697-7.943 8.178l-0.0157 37.757c0 4.3084 3.5564 7.8177 7.9587 7.8177 4.3867 0 8.037-3.3997 8.037-7.708zm-53.518-18.299c0-24.785 20.414-44.901 45.606-44.901s45.622 20.116 45.622 44.901c0 24.8-20.429 44.901-45.622 44.901s-45.606-20.1-45.606-44.901"/>
    <path d="m126.81 181.78h52.719v18.988h-32.258v11.954h26.524v17.578h-26.524v13.834h32.665v18.988h-53.126z"/>
    <path d="m183.5 181.78h20.915l9.8387 47.47 9.4157-47.47h17.515l9.9484 47 10.136-47h16.92l-19.066 81.342h-18.643l-9.635-46.295-9.3217 46.295h-19.066l-18.957-81.342"/>
    <path d="m293.89 234.69c1.5197 6.7994 5.875 10.199 13.442 10.199 4.9507 0 7.8804-2.4597 7.8804-5.6244 0-5.969-4.9507-5.7497-14.241-8.554-15.87-4.6844-23.547-11.264-23.547-24.612 0-15.479 11.421-26.962 30.111-26.962 13.74 0 23.343 7.144 27.793 20.382l-17.891 5.9847c-2.115-5.8594-5.546-8.2094-11.311-8.2094-4.2457 0-7.1754 2.6947-7.1754 5.8594 0 4.8097 4.5434 5.0447 12.831 7.3947 6.8777 1.9897 13.238 3.2744 18.69 8.319 4.4494 4.1047 6.7837 10.089 6.7837 17.343 0 6.7994-2.4283 13.254-6.8777 18.064-5.7654 6.204-13.849 9.6037-23.453 9.6037-17.782 0-29.406-9.1337-32.743-24.847l19.709-4.3397"/>
    <path d="m101.35 181.98v40.89l-24.456-40.859h-23.563l-0.20367 80.95 20.837-0.047v-46.891l27.918 46.938h19.724v-80.95l-20.257-0.0313"/>
   </g>
  </g>
 </g>
</svg>
