<?xml version="1.0" encoding="UTF-8"?>
<!-- Created with Inkscape (http://www.inkscape.org/) -->
<svg id="svg4348" width="1e3" height="189.55" version="1.1" xmlns="http://www.w3.org/2000/svg" xmlns:cc="http://creativecommons.org/ns#" xmlns:dc="http://purl.org/dc/elements/1.1/" xmlns:rdf="http://www.w3.org/1999/02/22-rdf-syntax-ns#">
 <metadata id="metadata4353">
  <rdf:RDF>
   <cc:Work rdf:about="">
    <dc:format>image/svg+xml</dc:format>
    <dc:type rdf:resource="http://purl.org/dc/dcmitype/StillImage"/>
    <dc:title/>
   </cc:Work>
  </rdf:RDF>
 </metadata>
 <g id="layer1" transform="translate(-661.41 -1948.3)">
  <g id="g4410" transform="matrix(.19525 0 0 .19525 588.74 1105.3)">
   <g id="g4434" transform="translate(0 194.59)">
    <g id="g4506" transform="matrix(.97891 0 0 .97891 -533.82 2192.3)">
     <g id="flowRoot4576" transform="matrix(33.922 0 0 33.922 -25083 -7795.5)" fill="#232323">
      <path id="path4585" d="m901.26 312.86 3.9078-3.3392c0.93246 1.1614 2.4532 2.836 5.4732 2.836 1.3021 0 2.4219-0.42968 3.3594-1.2891 0.48176-0.45573 0.86262-0.98958 1.1426-1.6016 0.27993-0.61197 0.41991-1.276 0.41992-1.9922-1e-5 -0.76822-0.15301-1.4811-0.45898-2.1387-0.30601-0.65754-0.72593-1.2142-1.2598-1.6699-0.45574-0.37759-0.97006-0.65754-1.543-0.83984-0.57293-0.18228-1.1914-0.27342-1.8555-0.27344-0.69011 2e-5 -1.3965 0.12697-2.1191 0.38086-0.72266 0.25392-1.39 0.63478-2.002 1.1426l-3.8043-0.48828 1.7969-14.844h15.25v4.8047h-10.882l-0.42969 4.3945c0.61197-0.13019 1.8-0.1953 2.6204-0.19532 1.0937 2e-5 2.207 0.15302 3.3398 0.45899 1.1328 0.30601 2.194 0.86265 3.1836 1.6699 1.1198 0.88543 1.9922 1.9922 2.6172 3.3203 0.62498 1.3281 0.93748 2.7539 0.9375 4.2774-2e-5 1.3802-0.2702 2.6595-0.81054 3.8379-0.54039 1.1784-1.2793 2.2005-2.2168 3.0664-0.93752 0.86589-2.0313 1.543-3.2812 2.0312-1.25 0.48828-2.5846 0.73242-4.0039 0.73242-4.5137 0-6.9853-1.8861-9.3811-4.282z" fill="#232323"/>
     </g>
     <g id="g5" transform="matrix(9.7041 0 0 9.7041 917.77 1960.1)" fill="#232323">
      <g id="g15" fill="#232323">
       <path id="path17" class="st1" d="m54.7 18.1c-1.5-0.4-3.8-0.7-5.5-0.7-4.5 0-8 1.3-10.2 3.9-1.5 2-2.5 4.5-2.5 10.8v2.1h21v15.4h-21v52.5h-18.2v-52.5h-17.5v-15.4h17.5v-2.8c0-10.9 2.5-17.5 7.3-22.1s11.9-8 21.1-8c3.6 0 7 0.3 10.8 1.3z"/>
       <path id="path19" class="st1" d="m107.2 50.3c-1.3-0.4-3.9-0.7-6.6-0.7-8 0-14.3 5.7-16.5 9.8v42.7h-18.2v-67.9h17.5v6.8c4.1-5 11.5-8.3 19.7-8.3 2.7 0 4.2 0.3 6.2 0.6z"/>
       <path id="path21" class="st1" d="m180.7 102.1h-17.5v-5.5c-5.6 4.8-12 6.9-18.9 6.9-10.1 0-19.6-4.5-25.6-11.5-5.3-6.2-8.7-14.6-8.7-23.8 0-20 14.8-35.4 33.3-35.4 7.7 0 14.6 2.5 19.9 6.9v-5.5h17.5zm-18.2-44.1c-3.8-5-9.8-8.4-16.8-8.4-10.6 0-17.5 8.8-17.5 18.6 0 10.6 7.7 18.5 17.9 18.5 6.9 0 12.9-3.4 16.4-8.4z"/>
       <path id="path23" class="st1" d="m196.1 102.1v-67.9h17.5v5.5c5.2-4.2 11.6-6.9 19.2-6.9 9.4 0 17.9 4.2 23.5 10.9 4.5 5.3 7 12.2 7 23.8v34.6h-18.2v-36c0-6.7-1.5-10.2-4.1-12.7-2.4-2.4-6-3.8-10.2-3.8-7.7 0-14 4.9-16.5 8.4v44.1z"/>
       <path id="path25" class="st1" d="m338.9 88.2c-8 10.6-18.1 15.3-30.8 15.3-21 0-36.4-15.7-36.4-35.3 0-19.7 15.8-35.4 36.5-35.4 11.8 0 22.3 5.5 28.6 13.6l-12.8 11.3c-3.6-4.8-9.1-8.1-15.7-8.1-10.5 0-18.3 8.3-18.3 18.6 0 10.6 7.7 18.5 18.8 18.5 7.4 0 13.3-4.5 16.2-9z"/>
       <path id="path27" class="st1" d="m405.2 91.3c-6.6 7.8-17.4 12.2-27.9 12.2-20.3 0-35.6-14-35.6-35.3 0-18.9 12.9-35.4 33-35.4 18.8 0 32.1 15.8 32.1 34.7 0 1.8-0.1 3.6-0.4 5.2h-47c1 9.5 8.7 16.1 18.3 16.1 7.7 0 13.9-4.3 17.1-7.8zm-17-31.9c-0.6-6-6-11.9-13.4-11.9-7.6 0-13.7 5.7-14.6 11.9z"/>
      </g>
     </g>
     <circle id="path4325" transform="matrix(26.644 0 0 26.644 -6423.3 -17404)" cx="436.64" cy="751.53" r="6.8521" fill="#42d782" fill-rule="evenodd"/>
    </g>
   </g>
  </g>
 </g>
</svg>
