<?xml version="1.0" encoding="UTF-8"?>
<svg id="svg6746" width="171.98mm" height="32.408mm" xmlns:cc="http://creativecommons.org/ns#" xmlns:dc="http://purl.org/dc/elements/1.1/" xmlns:rdf="http://www.w3.org/1999/02/22-rdf-syntax-ns#" version="1.1" viewBox="0 0 171.98 32.408" xmlns="http://www.w3.org/2000/svg">
 <link id="dark-mode" href="" rel="stylesheet" type="text/css"/>
 <style id="dark-mode-custom-style" type="text/css"/>
 <metadata id="metadata6743">
  <rdf:RDF>
   <cc:Work rdf:about="">
    <dc:format>image/svg+xml</dc:format>
    <dc:type rdf:resource="http://purl.org/dc/dcmitype/StillImage"/>
    <dc:title/>
   </cc:Work>
  </rdf:RDF>
 </metadata>
 <path id="path6396" d="m146.85 21.198c0 3.2481-2.6324 5.8805-5.8805 5.8805-3.247 0-5.8805-2.6324-5.8805-5.8805 0-3.2481 2.6336-5.8805 5.8805-5.8805 3.248 0 5.8805 2.6324 5.8805 5.8805" fill="#0082e6"/>
 <g id="g858" transform="translate(1.0639e-6 -4.0569e-6)" fill="#232323">
  <path id="path6400" d="m164.79 11.365 5.6377-6.926v-3.5513h-18.867v5.3276h10.153l-5.5807 6.6033v3.8295c1.1538-0.57802 2.4853-0.8881 3.7292-0.8881 3.4624 0 6.1256 2.442 6.1256 5.6821 0 3.3301-2.8855 5.6377-5.8155 5.6377-2.352 0-4.4828-1.2872-5.771-3.1067l-4.306 3.5958c2.7521 3.1067 6.4368 4.8385 10.299 4.8385 6.4369 0 11.587-4.395 11.587-10.965 0-4.7051-2.93-8.4343-7.1916-10.077"/>
  <g id="g848">
   <path id="path6404" d="m61.739 31.963v-21.531h5.5499v1.7318c1.6417-1.3316 3.6836-2.1753 6.0812-2.1753 2.9744 0 5.6821 1.3327 7.4583 3.4624 1.4205 1.6873 2.2186 3.8626 2.2186 7.5473v10.965h-5.7711v-11.409c0-2.1308-0.48792-3.2412-1.286-4.0404-0.75586-0.75473-1.9096-1.1994-3.2412-1.1994-2.442 0-4.4394 1.5551-5.2386 2.6643v13.984z"/>
   <path id="path6408" d="m123.73 18.423c-0.17774-1.9085-1.9085-3.7737-4.2616-3.7737-2.3976 0-4.3505 1.8207-4.6173 3.7737zm5.372 10.122c-2.0875 2.4865-5.5054 3.8626-8.8344 3.8626-6.4368 0-11.276-4.4395-11.276-11.188 0-5.9934 4.0849-11.231 10.477-11.231 5.9478 0 10.166 5.0152 10.166 11.009 0 0.57802-0.0446 1.1549-0.13347 1.6428h-14.916c0.31025 3.0189 2.7522 5.1052 5.8155 5.1052 2.4409 0 4.395-1.3761 5.4154-2.4854z"/>
   <path id="path6412" d="m51.274 17.98c-1.1994-1.5984-3.1078-2.6632-5.3276-2.6632-3.3735 0-5.5499 2.7966-5.5499 5.9033 0 3.3746 2.4432 5.86 5.6833 5.86 2.1753 0 4.0837-1.0648 5.1942-2.6632zm5.771 13.984h-5.5487v-1.7318c-1.7762 1.5095-3.8181 2.1753-5.9934 2.1753-3.1968 0-6.2157-1.4205-8.1242-3.6403-1.6873-1.953-2.7533-4.6162-2.7533-7.5473 0-6.3479 4.7062-11.231 10.567-11.231 2.4409 0 4.6162 0.79804 6.3035 2.1753v-1.7318h5.5487z"/>
   <path id="path6416" d="m107.67 27.568c-2.5298 3.3734-5.7266 4.8384-9.7659 4.8384-6.6591 0-11.542-4.9718-11.542-11.186 0-6.2601 5.0152-11.232 11.587-11.232 3.728 0 7.0582 1.7318 9.0556 4.306l-4.0849 3.5958c-1.1538-1.5094-2.8844-2.5754-4.9707-2.5754-3.3301 0-5.8155 2.6199-5.8155 5.9056 0 3.3735 2.4409 5.8588 5.9478 5.8588 2.3531 0 4.2183-1.4194 5.1497-2.8399z"/>
   <path id="path6420" d="m33.739 15.538c-0.39902-0.13347-1.2427-0.22234-2.0863-0.22234-2.5298 0-4.5284 1.8207-5.2386 3.1078v13.541h-5.771v-21.531h5.5499v2.1753c1.2871-1.5984 3.6403-2.6187 6.259-2.6187 0.84366 0 1.3316 0.087903 1.9529 0.17774z"/>
   <path id="path6424" d="m17.091 5.3276c-0.48795-0.13347-1.1982-0.22234-1.7318-0.22234-1.4205 0-2.5298 0.40015-3.2401 1.2438-0.48909 0.6202-0.79919 1.4205-0.79919 3.4179v0.6658h6.6592v4.8829h-6.6592v16.647h-5.771v-16.647h-5.5487v-4.8829h5.5487v-0.88814c0-3.4624 0.79919-5.5487 2.3086-7.0149 1.5095-1.4638 3.7725-2.5298 6.7025-2.5298 1.1549 0 2.2209 0.088872 3.4191 0.40015z"/>
  </g>
 </g>
</svg>
