<svg width="639.06pt" height="799.41pt" version="1.1" viewBox="0 0 639.06 799.41" xmlns="http://www.w3.org/2000/svg">
 <path d="m2.8e-5 795.26 639.04-0.01v4.16h-639.04z" fill="#00a8e7"/>
 <g transform="matrix(1.0651 0 0 1.0651 -65.738 -254.9)">
  <g fill="#00a8e7">
   <path d="m345.38 628.7c13.66 9.2 51.12 9 91.06-0.51 49.65-11.8 87.55-33.75 84.37-49.08-0.53-2.5-2.25-4.76-5.01-6.63-13.77-9.25-51.18-9.02-91.05 0.47-39.93 9.5-73.88 26.2-82.52 40.67-1.82 2.96-2.47 5.88-1.92 8.32 0.52 2.55 2.24 4.82 5.07 6.76"/>
   <path d="m661.7 839.29v-29.33c-30.05 11.14-58.51 20.85-85.5 29.33z"/>
   <path d="m276.23 629.29c0.31-0.17 0.73-0.17 0.89 0.16 0.27 0.31 0.16 0.75-0.06 0.96-15.64 13.34-22.64 25.97-20.41 36.59 1.16 5.64 4.95 10.63 11.15 14.81 27.89 18.76 101.92 18.96 180.05 0.42 98.61-23.49 173.5-68.34 166.77-100.2-2.33-10.59-13.8-18.9-33.19-23.8-0.36-0.18-0.61-0.47-0.51-0.94 0.09-0.32 0.46-0.57 0.79-0.54 31.83 5.19 50.53 16.2 53.82 31.94 1.53 6.99-0.22 14.7-5.07 22.75-20.31 33.96-92.01 70.58-178.42 91.11-86.4 20.46-165.95 19.83-198-1.72-7.63-5.19-12.21-11.27-13.69-18.39-3.28-15.77 9.1-34.14 35.88-53.15m147.51-61c60.55-14.37 113.34-9.46 117.71 11.01 0.79 3.87-0.13 8.18-2.83 12.56-11.28 18.81-51.07 39.07-99.24 50.57-60.57 14.3-113.33 9.43-117.68-10.97-4.27-20.44 41.39-48.79 102.04-63.17m43.99 208.54c-121.08 28.72-233.29 27.26-279.33-3.66-11.22-7.57-18.02-16.65-20.23-27.13-3.5-16.54 5.19-35.74 25.1-55.56 0.27-0.21 0.7-0.21 0.94 0 0.26 0.21 0.32 0.79 0.11 1.05-9.83 12.95-13.64 25.13-11.31 36.08 1.84 8.88 7.75 16.72 17.47 23.19 42.25 28.44 147.65 29.27 262.25 2.16 80.65-19.23 152.94-49.16 198.97-82.27l3e-4 -431.37h-599.98l3e-3 599.98h55.197c-4.24-5.92-7.19-12.25-8.63-19.01-0.7-3.41-1.05-6.88-1.05-10.34 0-14.81 6.35-30.67 18.93-47.3 0.14-0.2 0.6-0.31 0.88-0.04l0.26 0.9c-7.07 13.02-9.43 25.31-7.07 36.59 3.42 16.18 16.33 29.31 36.66 39.2h311.45c4.07-0.93 8.11-1.77 12.2-2.75 66.01-15.71 128.4-37.42 181.15-63v-73.16c-49.5 31.3-118.08 58.45-193.97 76.44"/>
  </g>
  <g fill="#fff">
   <path d="m661.72 809.96v-36.42c0 0.01-0.01 0.01-0.01 0.01v36.42c0-0.01 0.01-0.01 0.01-0.01"/>
   <path d="m468.34 839.29h107.87c26.98-8.48 55.44-18.19 85.5-29.33v-36.4c-52.76 25.57-115.14 47.28-181.15 62.98-4.09 0.99-8.15 1.83-12.22 2.75"/>
   <path d="m120.23 800.1c-2.34-11.27 0-23.56 7.08-36.59l-0.26-0.89c-0.27-0.28-0.74-0.17-0.89 0.03-12.57 16.63-18.92 32.48-18.92 47.3 0 3.46 0.34 6.93 1.05 10.34 1.45 6.77 4.4 13.1 8.64 19h39.97c-20.33-9.88-33.24-23-36.67-39.19"/>
   <path d="m254.04 700.83c32.06 21.55 111.59 22.18 198 1.71 86.42-20.52 158.12-57.14 178.42-91.11 4.84-8.05 6.6-15.74 5.06-22.74-3.28-15.73-21.97-26.76-53.8-31.93-0.35-0.04-0.71 0.21-0.8 0.53-0.09 0.46 0.14 0.76 0.51 0.93 19.4 4.91 30.86 13.22 33.18 23.81 6.73 31.87-68.15 76.71-166.76 100.2-78.13 18.55-152.16 18.34-180.06-0.42-6.2-4.18-9.97-9.18-11.14-14.81-2.24-10.63 4.77-23.24 20.41-36.59 0.22-0.2 0.33-0.66 0.05-0.96-0.16-0.32-0.57-0.32-0.89-0.16-26.77 19.02-39.14 37.38-35.87 53.14 1.48 7.13 6.06 13.21 13.69 18.4"/>
   <path d="m661.72 700.38v-29.7l-0.01 0.01v29.7z"/>
   <path d="m200.48 750.8c-9.73-6.47-15.62-14.32-17.47-23.19-2.33-10.95 1.48-23.13 11.31-36.09 0.2-0.26 0.14-0.84-0.12-1.05-0.23-0.19-0.65-0.19-0.94 0-19.89 19.83-28.59 39.02-25.1 55.58 2.22 10.47 9.02 19.54 20.25 27.12 46.02 30.91 158.25 32.39 279.32 3.67 75.89-17.99 144.46-45.15 193.98-76.44v-29.71c-46.04 33.11-118.32 63.03-198.99 82.27-114.58 27.11-219.99 26.28-262.24-2.16"/>
   <path d="m342.22 613.62c8.66-14.48 42.6-31.17 82.54-40.68 39.86-9.49 77.27-9.7 91.04-0.46 2.77 1.87 4.49 4.14 5 6.63 3.18 15.32-34.71 37.28-84.36 49.09-39.95 9.5-77.4 9.69-91.06 0.5-2.83-1.94-4.54-4.2-5.07-6.76-0.54-2.44 0.1-5.35 1.91-8.32m97.15 28.81c48.18-11.5 87.98-31.75 99.26-50.57 2.69-4.38 3.6-8.69 2.81-12.57-4.35-20.46-57.14-25.37-117.7-10.99-60.65 14.37-106.3 42.73-102.03 63.16 4.34 20.4 57.09 25.28 117.66 10.97"/>
   <path d="m408.45 357.03h-0.22l-21.94-42.65h-23.82v79.86h22.02v-43.67h0.16l23.18 43.67h22.59v-79.86h-21.97zm70.66 19.18c-10.78 0-14.34-11.13-14.34-21.92 0-10.74 3.56-21.96 14.34-21.96 9.58 0 11.74 8.88 12.19 11.79h22.56c-1.98-20.06-13.36-31.59-34.1-31.62-23.21 0-38.25 16.63-38.25 41.79 0 23.64 13.83 41.82 38.25 41.82 22.03 0 34.43-17.11 34.43-33.19h-22.84c-1.39 7.49-4.4 13.29-12.24 13.29m-207.64-34.89c0-17.38-9.9-26.94-27.88-26.94h-38.49v79.86h22.86v-27.16h7.89c1.05 2.11 13.27 27.16 13.27 27.16h24.63s-13.91-27.57-16.03-31.43c8.41-3.67 13.75-11.76 13.75-21.49m-29.31 7.42h-14.2v-16.01h14.2c4.92 0 7.36 2.69 7.36 8.03 0 5.26-2.44 7.98-7.36 7.98m344.53-15.83v-18.64h-62.2v79.97h62.2v-18.61h-37.44v-12.1h31.03v-18.56h-31.03v-12.06zm-450.01 61.33h24.77v-27.03h27.03v-18.69h-27.03v-15.61h33.96v-18.64h-58.73zm167.6-79.86-27 79.86h24.22l2.78-10.59h24.52l2.96 10.59h24.57l-26.96-79.86zm4.68 52.65 7.64-28.62 7.96 28.62z"/>
   <path d="m350.65 496.01v-80.45h-38.92l-62.22 76.78v32.34h-59.18v-0.2c25.65-16.61 59.66-28.24 59.66-65.21 0-30.67-22.47-45.34-55.59-45.34-36.6 0-59.87 22.73-57.71 62.39h36.8c-0.46-17.63 4.87-29.67 20.56-29.67 9.09 0 16.41 4.57 16.41 17.6 0 10.63-11.4 16.35-18.37 20.91-17.47 11.29-36.95 22.28-48.4 39.09-6.67 9.74-10.56 21.84-9.75 35.7h118.01v-28.73h58v28.73h40.7v-28.73h18.42v-35.21zm-40.7 0h-33.22l33.22-40.42z"/>
  </g>
 </g>
 <g transform="translate(2.8e-5,2.66e-4)">
  <path d="m375.83 662.8h10.747c-0.4371 5.5869-2.1111 11.606-6.7384 15.178-4.5954 3.6571-11.025 3.1773-16.324 1.578-4.3182-1.1728-8.3804-3.5931-12.922-3.6464-2.8148 0.44781-3.7637 3.4225-5.0432 5.5443h-10.417c0.8743-5.1818 1.45-11.174 5.7255-14.831 5.0538-5.0218 12.986-3.8917 19.106-1.7379 4.6274 1.3114 9.3294 4.9046 14.138 2.2284 0.5757-1.45 1.1515-2.8841 1.7272-4.3128z" fill="#00a7e3" stroke-width="1.0662"/>
  <path d="m492.74 662.79h25.781v92.563h-25.781z" fill="#00a7e3" stroke-width="1.0662"/>
  <path d="m15.263 693.98c9.5852-7.922 22.945-8.8602 34.716-6.4932 7.89 1.514 15.396 5.8215 19.927 12.581 5.4057 7.9646 6.6852 17.912 6.4826 27.327h-49.483c0.9276 4.0516 2.0578 8.5723 5.7042 11.067 5.7895 3.9343 14.117 2.4096 18.776-2.6122h24.011c-2.6549 6.4399-7.1756 12.165-13.274 15.663-10.342 6.0241-23.158 6.9517-34.599 3.881-9.0415-2.399-17.39-8.3378-21.495-16.899-7.0263-14.628-3.817-34.257 9.2334-44.514m16.025 11.856c-2.4523 2.0684-3.3266 5.2777-3.8704 8.3164h24.544c-0.43714-2.5696-0.83164-5.3097-2.6442-7.3035-4.3075-5.3417-12.997-5.2671-18.03-1.0129z" fill="#00a7e3" stroke-width="1.0662"/>
  <path d="m90.905 694.44c6.9612-6.4242 16.916-7.7667 26.025-8.0551 9.3478 0.29834 19.79 1.1834 26.9 7.9954 3.7889 3.3016 5.5689 8.2838 5.728 13.226h-22.952c-1.432-6.9313-10.491-9.1191-15.712-5.0916-1.1436 1.5712-1.5016 4.4054 0.34806 5.6186 3.3513 2.3171 7.6076 2.4464 11.476 3.2817 7.4286 1.4221 15.255 2.8143 21.55 7.2794 9.7556 6.9512 9.1887 22.952 0.43756 30.5-7.0407 6.1159-16.776 7.6076-25.796 7.8661-9.9147 0.21878-20.675-1.5215-28.312-8.3534-4.4452-3.9082-6.8319-9.671-6.9711-15.528h24.334c0.71601 3.58 3.1822 7.2048 7.0706 7.6822 3.8187 0.50717 8.7014 0.42761 11.207-3.0032 1.4917-2.7944-0.46739-6.0662-3.4309-6.633-10.094-3.053-21.401-3.0231-30.361-9.2285-9.0396-5.9269-9.5567-20.555-1.5414-27.556z" fill="#00a8e7" stroke-width=".99445"/>
  <path d="m186.85 695.38c4.3288-5.9068 11.446-9.2334 18.739-8.9988 9.4573-0.79966 18.797 4.4674 23.553 12.581 6.2373 9.8305 6.909 22.007 5.363 33.255-1.2794 7.005-4.1476 14.095-9.7558 18.744-10.417 8.9348-28.297 8.3378-36.923-2.8681v29.044h-25.706v-89.258h24.731v7.5008m7.4581 10.289c-5.2458 2.1004-7.1756 8.1778-7.3568 13.381-0.20258 5.4697-0.1706 11.707 3.6571 16.078 3.6891 4.4141 11.366 4.4994 15.087 0.0853 3.785-4.0196 3.817-9.9051 3.7211-15.076-0.0107-4.4141-0.90628-9.2334-4.2009-12.421-2.7402-2.9214-7.2929-3.3052-10.907-2.0471z" fill="#00a7e3" stroke-width="1.0662"/>
  <path d="m250.23 695.37c7.2182-7.9326 18.808-8.8069 28.873-8.9668 9.7451 0.0426 21.004 0.15994 28.489 7.3782 5.1498 4.8939 4.073 12.411 4.7767 18.819 0.3092 11.44-0.16 22.892 0.2558 34.332 0.032 2.996 1.3435 5.571 2.5483 8.2578h-26.687l-0.5118-6.1254c-5.9387 6.6745-15.332 8.3271-23.862 7.9753-6.2373-0.28788-12.773-2.2284-17.038-7.0157-4.5527-4.766-5.5763-11.91-4.3288-18.168 1.1942-6.0454 6.0667-10.758 11.664-12.976 7.5381-2.9427 15.673-3.5931 23.627-4.7233 3.092-0.58641 6.6211-1.0342 8.8389-3.5292 0.6823-2.4416 1.0342-5.9281-1.578-7.3569-5.459-3.5825-15.012-2.1218-16.334 5.2138h-23.681c0.51179-4.6913 1.4714-9.6492 4.9472-13.114m21.239 35.174c-3.0387 1.4181-3.7637 5.9068-1.514 8.3164 4.3821 5.4057 13.999 3.3052 16.569-2.8681 1.2368-3.3479 0.693-7.037 0.8316-10.524-5.2244 1.9085-10.875 2.6016-15.886 5.0752z" fill="#00a7e3" stroke-width="1.0662"/>
  <path d="m363.18 687.66c8.2418-2.303 17.838-1.8552 24.907 3.4119 5.4377 3.913 8.0605 10.747 8.0392 17.305l0.064 46.945h-25.856c-0.011-12.453 0.075-24.864-0.032-37.317-0.1493-3.4865-0.4052-7.6234-3.4652-9.8731-3.0067-1.8872-7.0263-1.5247-10.097 0.0213-3.6891 2.1751-4.8726 6.8024-4.8833 10.822-0.085 12.101 0 24.246-0.032 36.347h-25.914v-67.443h24.966v8.6203c3.2946-3.8917 7.2396-7.5168 12.304-8.8389z" fill="#00a7e3" stroke-width="1.0662"/>
  <path d="m437.47 686.74c11.227-1.2794 23.531 0.38384 32.36 8.0072 12.443 10.939 14.415 30.664 7.037 45.005-4.8726 9.5639-15.055 15.556-25.514 16.889-7.5167 0.86363-15.343 0.60774-22.497-2.0471-8.2525-2.9854-15.385-9.3293-18.541-17.614-4.3395-11.153-3.9023-24.406 2.1111-34.854 5.1391-8.9029 15.023-14.213 25.045-15.385m2.996 18.883c-4.9259 1.8765-6.973 7.4528-7.1116 12.347-0.1706 5.5869-0.5864 11.92 2.9534 16.654 3.6465 5.2458 12.475 5.0858 16.046-0.15993 2.8894-4.1476 3.0174-9.468 2.9747-14.33-0.1919-4.3395-0.7357-9.1588-3.9983-12.347-2.7508-2.8788-7.2289-3.3692-10.865-2.1644z" fill="#00a7e3" stroke-width="1.0662"/>
 </g>
</svg>
