<svg width="800" height="242.53" version="1.1" xmlns="http://www.w3.org/2000/svg">
 <g transform="matrix(.91977 0 0 .91977 0 5.1499e-6)" stroke-width=".43855">
  <path d="m45.637 0.001722h68.482c25.282 0 45.636 21.516 45.636 48.243v46.23l-20.791 44.495-48.072 20.788h-45.257c-25.282 4.4e-4 -45.636-21.516-45.636-48.243v-63.272c0-26.726 20.353-48.243 45.636-48.243z" fill="#db1d11"/>
  <path d="m36.64 24.966c-1.8359 0-3.3129 1.4771-3.3129 3.3129v102.4c0 1.8359 1.477 3.313 3.3129 3.313h26.825c1.8358 0 3.313-1.4771 3.313-3.313v-22.81h37.947c1.8358 0 3.313-1.4801 3.313-3.3159v-26.822c0-1.8358-1.4771-3.316-3.313-3.316h-37.947v-15.997h56.586c1.8358 0 3.3129-1.4772 3.3129-3.313v-26.824c0-1.8358-1.4771-3.3129-3.3129-3.3129h-56.586z" fill="#fff"/>
  <path d="m142.28 91.16c-1.836 0-3.3161 1.4771-3.3161 3.3129l1.8e-4 44.495h-48.072c-1.8358 0-3.3128 1.4771-3.3128 3.3129v14.161c0 1.8359 1.4772 3.316 3.3129 3.316h48.072v34.186c0 1.8358 1.4802 3.3129 3.316 3.3129h14.161c1.8358 0 3.3128-1.4771 3.3128-3.3129v-34.186l34.283-2.1e-4c1.8324 0 3.3186-1.4836 3.3159-3.316v-14.161c0-1.8358-1.4801-3.3129-3.3159-3.3129h-34.283v-44.495c0-1.8358-1.477-3.3129-3.3128-3.3129z" fill="#8c1914"/>
 </g>
 <g transform="matrix(4.1002 0 0 4.1002 -3268 134.17)" fill="#8c1914" style="shape-inside:url(#rect856);white-space:pre" aria-label="franken">
  <path d="m857.46-20.046c0-1.8 1.24-2.92 2.96-2.92h1.28c1.32 0 1.96-1.08 1.96-2.2 0-1.08-0.64-2.16-1.96-2.16h-2.36c-3.84 0-7.04 3.36-7.04 7.84v20.64c0 0.96 1.08 1.6 2.52 1.6 1.4 0 2.64-0.64 2.64-1.6v-13.64h4.88c0.84 0 1.32-0.92 1.32-1.88 0-0.92-0.48-1.88-1.32-1.88h-4.88z"/>
  <path d="m876.86-11.966c0.96 0 1.88-1.04 1.88-2.28 0-1.2-0.92-2.24-1.88-2.24h-1.24c-2.2 0-4.12 1.76-4.92 3.48v-1.64c0-0.96-1.04-1.6-2.32-1.6-1.48 0-2.52 0.64-2.52 1.6v15.76c0 0.8 1.04 1.64 2.52 1.64 1.44 0 2.64-0.84 2.64-1.64v-7.16c0-3.64 2.28-5.92 4.6-5.92z"/>
  <path d="m887.34-16.486c-2.84 0-6.4 1.24-6.4 2.88 0 1.16 0.6 2.56 1.76 2.56 0.96 0 1.48-1.24 4.56-1.24 2.64 0 3.52 1.96 3.52 3.68v0.52h-1.64c-5.52 0-9.32 1.28-9.32 5.88 0 3.64 2.36 5.32 5.2 5.32 2.76 0 4.64-1.52 6.08-3.16v1.16c0 0.92 1 1.64 2.32 1.64 1.44 0 2.52-0.72 2.52-1.64v-9.8c0-4.04-2.36-7.8-8.6-7.8zm3.44 11.92c0 1.96-2.04 3.84-3.68 3.84-1.2 0-2.12-0.68-2.12-2.16 0-2.24 2.52-2.52 5.2-2.52h0.6z"/>
  <path d="m904.94-8.3661c0-2.24 1.64-3.6 3.28-3.6 1.92 0 3.48 1.8 3.48 3.6v9.48c0 1.08 1.36 1.64 2.56 1.64 1.28 0 2.6-0.56 2.6-1.64v-9.48c0-4.44-3.2-8.12-6.88-8.12-2.68 0-4.6 1.48-5.36 3.04v-1.2c0-0.96-1.04-1.6-2.28-1.6-1.52 0-2.56 0.64-2.56 1.6v15.76c0 0.8 1.04 1.64 2.56 1.64 1.4 0 2.6-0.84 2.6-1.64z"/>
  <path d="m936.54-13.006c0.28-0.28 0.44-0.6 0.44-0.96 0-1.16-1.4-2.48-2.52-2.48-0.4 0-0.76 0.16-1.04 0.4l-7.52 7.08v-16.76c0-0.96-1.2-1.6-2.64-1.6-1.48 0-2.52 0.64-2.52 1.6v26.84c0 0.8 1.04 1.64 2.52 1.64 1.44 0 2.64-0.84 2.64-1.64v-4.4l2.48-2.28 5.4 7.96c0.32 0.44 0.76 0.68 1.28 0.68 1.24 0 2.92-1.36 2.92-2.56 0-0.28-0.08-0.56-0.28-0.84l-5.88-8.4z"/>
  <path d="m948.1-16.486c-4.88 0-8.76 3.68-8.76 8v3.4c0 4.92 4 8.2 9.68 8.2 4.28 0 7.04-1.96 7.04-3.32 0-0.8-0.76-2.28-1.96-2.28s-2.28 1.52-4.92 1.52c-2.8 0-4.68-1.52-4.68-3.84v-0.6h8.12c1.8 0 3.72-0.16 3.72-3.56 0-4.44-3.84-7.52-8.24-7.52zm-3.6 8.04v-1.12c0-1.92 1.68-3.12 3.48-3.12 1.92 0 3.52 1.28 3.52 3.16 0 0.88-0.32 1.08-1.16 1.08z"/>
  <path d="m964.58-8.3661c0-2.24 1.64-3.6 3.28-3.6 1.92 0 3.48 1.8 3.48 3.6v9.48c0 1.08 1.36 1.64 2.56 1.64 1.28 0 2.6-0.56 2.6-1.64v-9.48c0-4.44-3.2-8.12-6.88-8.12-2.68 0-4.6 1.48-5.36 3.04v-1.2c0-0.96-1.04-1.6-2.28-1.6-1.52 0-2.56 0.64-2.56 1.6v15.76c0 0.8 1.04 1.64 2.56 1.64 1.4 0 2.6-0.84 2.6-1.64z"/>
 </g>
 <g transform="matrix(2.7077 0 0 2.7077 -2082.2 234.2)" fill="#db1d11" style="shape-inside:url(#rect856-0);white-space:pre" aria-label="PLUS">
  <path d="m852.9 1.3539c0 0.92 1.08 1.4 2.12 1.4 1.08 0 2.12-0.48 2.12-1.4v-9.88h4.96c5.04 0 9-2.44 9-8.84v-0.32c0-6.44-3.84-8.8-8.76-8.8h-7.8c-1 0-1.64 0.64-1.64 1.36zm9.2-24.08c2.96 0 4.76 1.64 4.76 5.16v0.48c0 3.52-1.8 5.2-4.76 5.2h-4.96v-10.84z"/>
  <path d="m889.34 2.7539c0.84 0 1.28-0.96 1.28-1.88 0-0.96-0.44-1.88-1.28-1.88h-10.4v-24.12c0-0.96-1.04-1.36-2.12-1.36-1.04 0-2.12 0.4-2.12 1.36v26.48c0 0.92 0.96 1.4 1.88 1.4z"/>
  <path d="m907.1-5.9261c0 3.52-1.84 5.16-4.92 5.16-3.04 0-4.88-1.64-4.88-5.16v-19.2c0-0.96-1.08-1.36-2.12-1.36-1.08 0-2.12 0.4-2.12 1.36v19.2c0 6.48 4 8.92 9.12 8.92 5.16 0 9.16-2.44 9.16-8.92v-19.2c0-0.96-1.08-1.36-2.12-1.36-1.08 0-2.12 0.4-2.12 1.36z"/>
  <path d="m923.7-0.76609c-4.44 0-5.4-3.16-6.84-3.16-1 0-1.84 1.32-1.84 2.28 0 2 3.64 4.72 8.84 4.72 5.28 0 9.12-2.8 9.12-8.52 0-10.64-13-7.96-13-13.88 0-2.52 2.08-3.64 5-3.64 3.4 0 4.44 1.52 5.52 1.52 1.2 0 1.76-1.48 1.76-2.28 0-2.2-4.68-2.88-7.28-2.88-4.28 0-9.24 1.76-9.24 7.68 0 9.6 13 6.84 13 13.92 0 2.88-2.16 4.24-5.04 4.24z"/>
 </g>
 <g transform="matrix(1.3564 0 0 1.3564 393.24 -76.403)" fill="#8c1914" style="shape-inside:url(#rect2635-7-7);white-space:pre" aria-label="HD">
  <path d="m266.25 56.331h6.12v27.36h-6.12v-10.64h-7.6v10.64h-6.08v-27.36h6.08v10.64h7.6z"/>
  <path d="m286.25 56.331q3.68 0 6.84 1.84 3.16 1.8 4.96 4.96 1.84 3.12 1.84 6.84t-1.84 6.88q-1.8 3.12-4.96 4.96t-6.84 1.84h-9.88v-27.32zm0 21.2q3.12 0 5.32-2.2 2.24-2.2 2.24-5.32 0-3.16-2.24-5.36-2.2-2.24-5.32-2.24h-3.8v15.12z"/>
 </g>
</svg>
