<svg width="904.14pt" height="441.77pt" version="1.1" viewBox="0 0 904.14 441.77" xmlns="http://www.w3.org/2000/svg">
 <path d="m164.84 284.65c0 45.519-36.902 82.42-82.42 82.42s-82.42-36.902-82.42-82.42 36.902-82.42 82.42-82.42 82.42 36.902 82.42 82.42" fill="#4679c6" stroke-width=".20854"/>
 <g fill="#21201f">
  <path d="m416.32 146.85 79.021-97.066v-49.779h-264.43v74.669h142.31l-78.22 92.549v53.668c16.179-8.0894 34.843-12.446 52.263-12.446 48.532 0 85.865 34.222 85.865 79.642 0 46.666-40.443 79.021-81.511 79.021-32.973 0-62.84-18.043-80.883-43.554l-60.354 50.396c38.574 43.558 90.22 67.822 144.35 67.822 90.218 0 162.39-61.597 162.39-153.69 0-65.952-41.066-118.22-100.8-141.24" stroke-width=".20854"/>
  <path d="m595.94 224.35h15.775l63.005 73.32v-73.32h22.105v113h-15.831l-63.059-73.34v73.34h-21.995z"/>
  <path d="m839.86 224.35-48.439 113h23.12l10.34-24.741h45.8l10.34 24.741h23.12l-48.44-113zm7.9204 35.489 14.271 32.829h-28.541z" stroke-width=".99591"/>
  <path d="m747.74 319.69c11.184 0 18.836-8.6811 18.836-19.424s-7.6513-19.572-18.836-19.572c-11.182 0-18.836 8.8297-18.836 19.572s7.6535 19.424 18.836 19.424zm0-56.653c21.632 0 37.966 16.628 37.966 37.229 0 20.602-16.335 37.083-37.966 37.083-21.629 0-37.964-16.481-37.964-37.083s16.335-37.229 37.964-37.229" stroke-width=".20928"/>
 </g>
</svg>
