<?xml version="1.0" encoding="UTF-8"?>
<!-- Created with Inkscape (http://www.inkscape.org/) -->
<svg id="svg4348" width="1e3" height="185.43" version="1.1" xmlns="http://www.w3.org/2000/svg" xmlns:cc="http://creativecommons.org/ns#" xmlns:dc="http://purl.org/dc/elements/1.1/" xmlns:rdf="http://www.w3.org/1999/02/22-rdf-syntax-ns#">
 <metadata id="metadata4353">
  <rdf:RDF>
   <cc:Work rdf:about="">
    <dc:format>image/svg+xml</dc:format>
    <dc:type rdf:resource="http://purl.org/dc/dcmitype/StillImage"/>
    <dc:title/>
   </cc:Work>
  </rdf:RDF>
 </metadata>
 <g id="layer1" transform="translate(-376.62 -1682.9)">
  <g id="g4410" transform="matrix(.19525 0 0 .19525 588.74 1105.3)">
   <g id="g4434" transform="translate(0 194.59)">
    <g id="g4506" transform="matrix(.97891 0 0 .97891 -533.82 2192.3)">
     <g id="g5" transform="matrix(9.493 0 0 9.493 -572.11 571.67)" fill="#232323">
      <g id="g15" fill="#232323">
       <path id="path17" class="st1" d="m54.7 18.1c-1.5-0.4-3.8-0.7-5.5-0.7-4.5 0-8 1.3-10.2 3.9-1.5 2-2.5 4.5-2.5 10.8v2.1h21v15.4h-21v52.5h-18.2v-52.5h-17.5v-15.4h17.5v-2.8c0-10.9 2.5-17.5 7.3-22.1s11.9-8 21.1-8c3.6 0 7 0.3 10.8 1.3l-2.8 15.5z"/>
       <path id="path19" class="st1" d="m107.2 50.3c-1.3-0.4-3.9-0.7-6.6-0.7-8 0-14.3 5.7-16.5 9.8v42.7h-18.2v-67.9h17.5v6.8c4.1-5 11.5-8.3 19.7-8.3 2.7 0 4.2 0.3 6.2 0.6l-2.1 17z"/>
       <path id="path21" class="st1" d="m180.7 102.1h-17.5v-5.5c-5.6 4.8-12 6.9-18.9 6.9-10.1 0-19.6-4.5-25.6-11.5-5.3-6.2-8.7-14.6-8.7-23.8 0-20 14.8-35.4 33.3-35.4 7.7 0 14.6 2.5 19.9 6.9v-5.5h17.5v67.9zm-18.2-44.1c-3.8-5-9.8-8.4-16.8-8.4-10.6 0-17.5 8.8-17.5 18.6 0 10.6 7.7 18.5 17.9 18.5 6.9 0 12.9-3.4 16.4-8.4v-20.3z"/>
       <path id="path23" class="st1" d="m196.1 102.1v-67.9h17.5v5.5c5.2-4.2 11.6-6.9 19.2-6.9 9.4 0 17.9 4.2 23.5 10.9 4.5 5.3 7 12.2 7 23.8v34.6h-18.2v-36c0-6.7-1.5-10.2-4.1-12.7-2.4-2.4-6-3.8-10.2-3.8-7.7 0-14 4.9-16.5 8.4v44.1h-18.2z"/>
       <path id="path25" class="st1" d="m338.9 88.2c-8 10.6-18.1 15.3-30.8 15.3-21 0-36.4-15.7-36.4-35.3 0-19.7 15.8-35.4 36.5-35.4 11.8 0 22.3 5.5 28.6 13.6l-12.8 11.3c-3.6-4.8-9.1-8.1-15.7-8.1-10.5 0-18.3 8.3-18.3 18.6 0 10.6 7.7 18.5 18.8 18.5 7.4 0 13.3-4.5 16.2-9l13.9 10.5z"/>
       <path id="path27" class="st1" d="m405.2 91.3c-6.6 7.8-17.4 12.2-27.9 12.2-20.3 0-35.6-14-35.6-35.3 0-18.9 12.9-35.4 33-35.4 18.8 0 32.1 15.8 32.1 34.7 0 1.8-0.1 3.6-0.4 5.2h-47c1 9.5 8.7 16.1 18.3 16.1 7.7 0 13.9-4.3 17.1-7.8l10.4 10.3zm-17-31.9c-0.6-6-6-11.9-13.4-11.9-7.6 0-13.7 5.7-14.6 11.9h28z"/>
      </g>
     </g>
     <path id="path4325" transform="matrix(26.065 0 0 26.065 -7753.5 -18371)" d="m443.49 751.53c0 3.7843-3.0678 6.8521-6.8521 6.8521s-6.8521-3.0678-6.8521-6.8521 3.0678-6.8521 6.8521-6.8521 6.8521 3.0678 6.8521 6.8521" fill="#8900a8" fill-rule="evenodd"/>
     <g id="flowRoot4519" transform="matrix(33.496 0 0 33.496 -8966.9 -14028)" fill="#232323">
      <path id="path4528" d="m385.55 459.13v-4.4506l11.747-17.845h6.1809v17.511h3.5664v4.7852h-3.5664v5.7121h-5.3906v-5.7121zm6.0978-4.7852h6.4397v-9.7149z" fill="#232323"/>
     </g>
    </g>
   </g>
  </g>
 </g>
</svg>
