<svg version="1.1" viewBox="0 0 430.54 430.54" xmlns="http://www.w3.org/2000/svg">
 <g transform="translate(-74.177 -364.79)">
  <g transform="matrix(.69864 0 0 .69864 15.556 256.69)">
   <circle transform="matrix(.96543 0 0 .96543 156.38 61.477)" cx="243.31" cy="415.68" r="308.9" fill="#fff"/>
   <g transform="translate(.89357 -237.97)" fill="#dc0a17">
    <path d="m179.45 853.45 43.109-2.7006c0.93348 7.0015 2.8339 12.336 5.7012 16.003 4.6676 5.9346 11.336 8.9019 20.004 8.9019 6.468 3e-5 11.452-1.517 14.953-4.551 3.5006-3.0339 5.251-6.5514 5.2511-10.552-1e-4 -3.8008-1.6671-7.2015-5.0011-10.202-3.3341-3.0006-11.069-5.8345-23.205-8.5018-19.871-4.4676-34.041-10.402-42.509-17.804-8.5352-7.4015-12.803-16.837-12.803-28.306-1e-5 -7.5348 2.1838-14.653 6.5514-21.355 4.3676-6.7013 10.936-11.969 19.704-15.803 8.7685-3.834 20.788-5.7511 36.058-5.7512 18.737 1.5e-4 33.024 3.4842 42.859 10.452 9.8353 6.9683 15.687 18.054 17.554 33.257l-42.709 2.5005c-1.1337-6.6013-3.5175-11.402-7.1515-14.403-3.6342-3.0005-8.6519-4.5008-15.053-4.501-5.2678 1.2e-4 -9.2354 1.117-11.903 3.3507-2.6673 2.2339-4.0009 4.9512-4.0008 8.1517-6e-5 2.3339 1.1002 4.4344 3.3007 6.3013 2.1337 1.9338 7.2014 3.7342 15.203 5.4012 19.804 4.2677 33.99 8.5852 42.559 12.953 8.5684 4.3677 14.803 9.7855 18.704 16.253 3.9007 6.4681 5.8511 13.703 5.8512 21.705-1.4e-4 9.402-2.6007 18.071-7.8016 26.006-5.2012 7.935-12.469 13.953-21.805 18.054-9.3354 4.1009-21.105 6.1513-35.307 6.1513-24.939 0-42.209-4.801-51.811-14.403s-15.037-21.805-16.303-36.608z"/>
    <path d="m425.6 877.75h-51.611l-7.1015 24.205h-46.31l55.112-146.63h49.41l55.112 146.63h-47.41zm-9.502-31.707-16.203-52.711-16.103 52.711z"/>
    <path d="m484.31 755.33h137.73v36.208h-46.21v110.42h-45.31v-110.42h-46.21z"/>
   </g>
   <path transform="translate(0 152.36)" d="m388.06 2.375c-168.34 2.1323-304.16 139.28-304.16 308.12 0 170.18 137.95 308.12 308.12 308.12s308.12-137.95 308.12-308.12-137.95-308.12-308.12-308.12c-1.3295 0-2.6432-0.01679-3.9688 0zm-191.03 260 53.375 67.031 53.062-67.031 53.156 67.031 53.25-67.031h273.06c2.5591 15.643 3.9062 31.695 3.9062 48.062 0 163.2-132.3 295.5-295.5 295.5s-295.47-132.3-295.47-295.5c0-12.998 0.84184-25.789 2.4688-38.344l45.812 57.312z" fill="#dc0a17"/>
   <g transform="translate(1.0459e-8 -2.1573)" fill="#fff">
    <path d="m135.08 402.84h14.151v-26.589h26.947v-10.994h-26.947v-14.872h31.094v-11.896h-45.246z"/>
    <path d="m201.54 402.84h14.151v-25.145h14.149c3.5444 2e-5 6.0978 0.78116 7.6602 2.3434 1.5622 1.5623 2.5845 4.0258 3.0668 7.3906 0.17965 1.2616 0.31443 2.5983 0.40432 4.0102 0.0898 1.4119 0.20991 2.7936 0.36032 4.145 0.15032 1.3514 0.33047 2.6432 0.54048 3.8755 0.2099 1.2322 0.52575 2.359 0.94754 3.3804h14.149c-0.66019-0.90217-1.1557-2.0138-1.4866-3.335-0.33104-1.3212-0.57125-2.6877-0.72064-4.0996-0.1495-1.4119-0.25448-2.8092-0.31493-4.1918-0.0606-1.3826-0.12108-2.5846-0.18153-3.6059-0.11925-1.6228-0.34433-3.23-0.67525-4.8216-0.33104-1.5916-0.85684-3.0787-1.5774-4.4613-0.72069-1.3826-1.6517-2.5694-2.7931-3.5605-1.1415-0.99107-2.5842-1.7268-4.3279-2.2073v-0.18154c3.6049-1.4412 6.2037-3.544 7.7963-6.3083 1.5925-2.7642 2.3888-6.0387 2.3888-9.8234-6e-5 -2.4039-0.43556-4.6873-1.3065-6.8501-0.87106-2.1628-2.1326-4.0556-3.7847-5.6784-1.6522-1.6227-3.6348-2.8994-5.948-3.8301-2.3132-0.93052-4.912-1.3958-7.7963-1.3959h-34.7zm14.151-53.357h15.502c3.1832 5e-5 5.6014 0.70602 7.2545 2.1179 1.653 1.412 2.4795 3.6802 2.4796 6.8048-5e-5 3.2456-0.82658 5.5895-2.4796 7.0317-1.6531 1.4422-4.0712 2.1633-7.2545 2.1633h-15.502z"/>
    <path d="m273.84 402.84h14.33l5.0472-14.33h24.064l4.8656 14.33h14.69l-24.064-64.351h-14.509zm31.455-48.489h0.17878l8.1112 23.613h-16.674z"/>
    <path d="m356.5 402.84h13.249v-43.081h0.17878l26.771 43.081h14.149v-64.351h-13.249v43.172h-0.17878l-26.859-43.172h-14.061z"/>
    <path d="m437.24 402.84h14.151v-20.731l8.1112-8.202 19.377 28.933h17.755l-27.579-38.936 25.145-25.415h-17.664l-25.145 26.677v-26.677h-14.151z"/>
    <path d="m517.47 402.84h48.849v-11.896h-34.698v-15.774h31.182v-10.994h-31.182v-13.791h33.977v-11.896h-48.128z"/>
    <path d="m589.94 402.84h13.249v-43.081h0.17878l26.771 43.081h14.149v-64.351h-13.249v43.172h-0.17879l-26.859-43.172h-14.061z"/>
   </g>
  </g>
 </g>
</svg>
