<svg style="isolation:isolate" version="1.1" viewBox="0 0 785.48 249.21" xmlns="http://www.w3.org/2000/svg">
 <link href="" rel="stylesheet" type="text/css"/>
 <style type="text/css"/>
 <path d="m249.21 124.6a124.6 124.6 0 0 1-124.6 124.6 124.6 124.6 0 0 1-124.6-124.6 124.6 124.6 0 0 1 124.6-124.6 124.6 124.6 0 0 1 124.6 124.6z" fill="#bc1913" stroke-width="124.6" vector-effect="non-scaling-stroke"/>
 <path d="m206.75 91.339c0 3.8594-3.1243 6.7999-6.7999 6.7999h-138.02c-3.8594 0-6.7999-3.1243-6.7999-6.7999v-23.524c0-3.8594 3.1243-6.7999 6.7999-6.7999h138.02c3.8594 0 6.7999 3.1243 6.7999 6.7999z" fill="#fff" stroke="rgba(0,0,0,0)"/>
 <path d="m158.97 141.7c0 3.8594-3.1243 6.7999-6.7999 6.7999h-90.237c-3.8594 0-6.7999-3.1243-6.7999-6.7999v-23.524c0-3.8594 3.1243-6.7999 6.7999-6.7999h90.237c3.8594 0 6.7999 3.1243 6.7999 6.7999z" fill="#fff" stroke="rgba(0,0,0,0)"/>
 <path d="m105.12 191.87c0 3.8594-3.1243 6.7999-6.7999 6.7999h-36.572c-3.8594 0-6.7999-3.1243-6.7999-6.7999v-23.524c0-3.8594 3.1243-6.7999 6.7999-6.7999h36.572c3.8594 0 6.7999 3.1243 6.7999 6.7999z" fill="#fff" stroke="rgba(0,0,0,0)"/>
 <g fill="#fff" stroke="rgba(0,0,0,0)">
  <path d="m349.55 43.005c0 0.73512 0 1.4702-0.18378 2.0216 0 0.55134-0.18378 1.1027-0.36756 1.4702-0.18378 0.36756-0.36756 0.55134-0.73513 0.73513-0.18378 0.18378-0.55134 0.18378-0.9189 0.18378h-29.773v27.567h28.119c0.36756 0 0.55134 0 0.9189 0.18378 0.18378 0.18378 0.55135 0.36756 0.73513 0.73512s0.36756 0.73513 0.36756 1.2865c0 0.55134 0.18378 1.2865 0.18378 2.2054 0 0.73512 0 1.4703-0.18378 2.0216 0 0.55134-0.18378 1.1027-0.36756 1.4703-0.18378 0.36756-0.36757 0.55134-0.73513 0.73512-0.18378 0.18378-0.55134 0.36756-0.9189 0.36756h-28.119v33.816c0 0.36756 0 0.55135-0.18378 0.91891-0.18379 0.18378-0.55135 0.55134-0.91891 0.55134-0.36756 0.18378-0.91891 0.18378-1.654 0.36756-0.73513 0.18379-1.4702 0.18379-2.5729 0.18379-0.91891 0-1.8378 0-2.5729-0.18379-0.73512-0.18378-1.2865-0.18378-1.654-0.36756s-0.73513-0.36756-0.91891-0.55134-0.18378-0.55135-0.18378-0.91891v-75.167c0-1.654 0.36756-2.7567 1.2865-3.4918 0.91891-0.73512 1.8378-0.91891 2.7567-0.91891h36.572c0.36756 0 0.55134 0 0.91891 0.18378 0.18378 0.18378 0.55134 0.36756 0.73512 0.73512s0.36756 0.91891 0.36756 1.4703v2.3892z"/>
  <path d="m420.12 117.8c0 0.36756 0 0.55135-0.18378 0.91891-0.18378 0.18378-0.36756 0.55134-0.73512 0.55134-0.36757 0.18378-0.91891 0.36756-1.8378 0.36756-0.73512 0-1.8378 0.18379-2.9405 0.18379s-2.0216 0-2.7567-0.18379c-0.73512 0-1.2865-0.18378-1.654-0.36756s-0.73512-0.36756-0.91891-0.73512c-0.18378-0.36757-0.36756-0.73513-0.55134-1.2865l-7.535-19.113c-0.91891-2.2054-1.8378-4.227-2.7567-6.0648-0.91891-1.8378-2.0216-3.3081-3.3081-4.7783-1.2865-1.2865-2.7567-2.3892-4.5945-3.1243s-3.8594-1.1027-6.2486-1.1027h-7.3512v34.551c0 0.36756-0.18379 0.55134-0.36757 0.91891-0.18378 0.18378-0.55134 0.36756-0.9189 0.55134-0.36757 0.18378-0.91891 0.18378-1.654 0.36756-0.73512 0.18378-1.4702 0.18378-2.5729 0.18378s-1.8378 0-2.5729-0.18378c-0.73513-0.18378-1.2865-0.18378-1.654-0.36756-0.36757-0.18378-0.73513-0.36756-0.91891-0.55134s-0.18378-0.55135-0.18378-0.91891v-75.167c0-1.654 0.36756-2.7567 1.2865-3.4918 0.9189-0.73512 1.8378-0.91891 2.7567-0.91891h17.275c2.0216 0 3.6756 0 5.1459 0.18378 1.2865 0.18378 2.5729 0.18378 3.6756 0.36756 3.1243 0.55134 5.881 1.4703 8.2702 2.5729 2.3892 1.1027 4.4108 2.5729 6.0648 4.4108 1.654 1.8378 2.9405 3.8594 3.6756 6.2486 0.73512 2.3892 1.2865 4.9621 1.2865 7.7188s-0.36756 5.1459-1.1027 7.3513c-0.73512 2.2054-1.8378 4.0432-3.1243 5.6972s-2.9405 3.1243-4.9621 4.227c-1.8378 1.2865-4.0432 2.2054-6.4323 3.1243 1.2865 0.55134 2.5729 1.2865 3.6756 2.2054 1.1027 0.91891 2.0216 2.0216 3.1243 3.3081 0.9189 1.2865 1.8378 2.7567 2.7567 4.4108 0.9189 1.654 1.654 3.4918 2.5729 5.5134l7.3513 17.827c0.55134 1.4702 0.9189 2.5729 1.1027 3.1243-0.36756 0.73513-0.18378 1.2865-0.18378 1.4702zm-16.357-56.972c0-3.1243-0.73513-5.881-2.2054-8.0864-1.4702-2.2054-3.8594-3.8594-7.1675-4.7783-1.1027-0.36756-2.2054-0.55134-3.4918-0.55134-1.2865 0-3.1243-0.18378-5.1459-0.18378h-9.0053v27.383h10.476c2.7567 0 5.3297-0.36756 7.3512-1.1027 2.0216-0.73513 3.8594-1.654 5.1459-2.9405 1.4702-1.2865 2.3892-2.7567 3.1243-4.4108 0.73513-1.4703 0.91891-3.3081 0.91891-5.3297z" fill-rule="evenodd"/>
  <path d="m496.58 115.6c0.36757 0.9189 0.55135 1.654 0.55135 2.2054 0 0.55135-0.18378 0.91891-0.55135 1.2865-0.36756 0.36756-0.9189 0.55134-1.654 0.55134-0.73512 0-1.8378 0.18379-3.1243 0.18379s-2.3892 0-3.1243-0.18379c-0.73513 0-1.2865-0.18378-1.8378-0.36756-0.55134-0.18378-0.73512-0.36756-0.9189-0.55134s-0.36756-0.55135-0.55135-0.91891l-6.9837-19.848h-33.632l-6.6161 19.481c-0.18378 0.36756-0.36756 0.73512-0.55134 0.91891-0.18379 0.18378-0.55135 0.55134-0.91891 0.73512s-0.91891 0.36756-1.654 0.36756c-0.73513 0-1.654 0.18378-2.9405 0.18378s-2.2054 0-2.9405-0.18378c-0.73513-0.18378-1.2865-0.36756-1.654-0.55134-0.36756-0.36756-0.55134-0.73513-0.36756-1.2865 0-0.55134 0.18378-1.2865 0.55135-2.2054l27.2-75.35c0.18378-0.55134 0.36756-0.91891 0.73512-1.1027 0.18378-0.36756 0.73513-0.55134 1.1027-0.73512 0.55135-0.18378 1.1027-0.36756 2.0216-0.36756s1.8378-0.18378 3.1243-0.18378 2.3892 0 3.3081 0.18378c0.91891 0 1.654 0.18378 2.2054 0.36756 0.55134 0.18378 0.9189 0.36756 1.2865 0.73512 0.36756 0.36756 0.55134 0.73512 0.73512 1.1027zm-34.918-66.529-13.967 40.432h28.302z" fill-rule="evenodd"/>
  <path d="m571.38 115.05c0 0.91891-0.18378 1.4702-0.36756 2.2054-0.36756 0.55134-0.73513 1.1027-1.1027 1.4702s-0.9189 0.73512-1.4702 0.73512c-0.55134 0-1.1027 0.18378-1.654 0.18378h-3.4918c-1.1027 0-2.0216-0.18378-2.9405-0.36756s-1.654-0.73512-2.3892-1.2865c-0.73513-0.55134-1.4702-1.4702-2.2054-2.3892-0.73512-1.1027-1.4702-2.3892-2.3892-4.0432l-24.994-46.129c-1.2865-2.3892-2.5729-4.9621-3.8594-7.535s-2.5729-5.1459-3.6756-7.535h-0.18378c0 2.9405 0.18378 6.0648 0.18378 9.1891v58.443c0 0.36757 0 0.55135-0.18378 0.91891-0.18378 0.18378-0.55134 0.55134-0.9189 0.55134-0.36757 0.18378-0.91891 0.18378-1.654 0.36757-0.73513 0.18378-1.4702 0.18378-2.5729 0.18378s-2.0216 0-2.5729-0.18378c-0.73513-0.18379-1.2865-0.18379-1.654-0.36757-0.36757-0.18378-0.73513-0.36756-0.91891-0.55134s-0.18378-0.55134-0.18378-0.91891v-74.983c0-1.654 0.55134-2.9405 1.4702-3.4918 0.91891-0.73512 2.0216-1.1027 3.1243-1.1027h5.3297c1.2865 0 2.3892 0.18378 3.1243 0.36756 0.91891 0.18378 1.654 0.55134 2.2054 1.1027 0.73512 0.55134 1.2865 1.1027 2.0216 2.0216 0.55135 0.91891 1.2865 2.0216 2.0216 3.3081l19.113 35.654c1.1027 2.2054 2.3892 4.227 3.3081 6.4323 1.1027 2.0216 2.2054 4.0432 3.1243 6.0648 1.1027 2.0216 2.0216 4.0432 2.9405 5.881 0.9189 2.0216 2.0216 3.8594 2.9405 5.881 0-3.3081-0.18378-6.7999-0.18378-10.292v-54.4c0-0.36756 0-0.55134 0.18378-0.73512s0.55134-0.55134 0.9189-0.73512c0.36757-0.18378 0.91891-0.36756 1.654-0.36756 0.73512 0 1.654-0.18378 2.7567-0.18378 0.9189 0 1.8378 0 2.5729 0.18378 0.73513 0 1.2865 0.18378 1.654 0.36756 0.36756 0.18378 0.73512 0.36756 0.9189 0.73512 0.18378 0.18378 0.18378 0.55134 0.18378 0.73512v74.615z"/>
  <path d="m645.99 117.8c0 0.36756 0 0.55135-0.18378 0.91891-0.18378 0.18378-0.36756 0.55134-0.91891 0.73512-0.36756 0.18378-0.9189 0.36757-1.654 0.36757-0.73512 0.18378-1.654 0.18378-2.7567 0.18378-1.4702 0-2.5729 0-3.4918-0.18378-0.91891-0.18379-1.654-0.36757-2.0216-0.73513-0.55134-0.36756-0.9189-0.73512-1.1027-1.1027l-29.773-40.616v40.616c0 0.36757 0 0.55135-0.18378 0.91891-0.18378 0.18378-0.55134 0.55134-0.9189 0.55134-0.36757 0.18378-0.91891 0.18378-1.654 0.36757-0.73512 0.18378-1.4702 0.18378-2.5729 0.18378-0.91891 0-1.8378 0-2.5729-0.18378-0.73513-0.18379-1.2865-0.18379-1.654-0.36757-0.36757-0.18378-0.73513-0.36756-0.91891-0.55134s-0.18378-0.55134-0.18378-0.91891v-77.923c0-0.36756 0-0.55134 0.18378-0.91891 0.18378-0.18378 0.55134-0.36756 0.91891-0.55134 0.36756-0.18378 0.9189-0.18378 1.654-0.36756 0.73512-0.18378 1.654-0.18378 2.5729-0.18378 1.1027 0 1.8378 0 2.5729 0.18378 0.73513 0.18378 1.2865 0.18378 1.654 0.36756 0.36756 0.18378 0.73512 0.36756 0.9189 0.55134s0.18378 0.55134 0.18378 0.91891v36.021l28.67-36.021c0.18378-0.36756 0.55134-0.73512 0.9189-0.91891 0.36757-0.18378 0.73513-0.36756 1.2865-0.55134 0.55135-0.18378 1.1027-0.18378 1.8378-0.36756 0.73512 0 1.654-0.18378 2.7567-0.18378s2.0216 0 2.5729 0.18378c0.73513 0.18378 1.2865 0.18378 1.654 0.36756 0.36757 0.18378 0.73513 0.36756 0.73513 0.55134 0.18378 0.18378 0.18378 0.55134 0.18378 0.73513 0 0.55134-0.18378 1.1027-0.36756 1.654s-0.73513 1.2865-1.4702 2.2054l-26.832 32.162 29.037 38.594c0.73513 1.1027 1.1027 1.8378 1.2865 2.2054-0.55134 0.55135-0.36756 0.73513-0.36756 1.1027z"/>
  <path d="m704.8 115.05c0 0.73513 0 1.4702-0.18378 2.0216 0 0.55134-0.18379 1.1027-0.36757 1.4702-0.18378 0.36756-0.36756 0.73512-0.73512 0.73512-0.18378 0.18378-0.55135 0.18378-0.91891 0.18378h-38.962c-0.91891 0-1.8378-0.36756-2.7567-0.9189-0.91891-0.73513-1.2865-1.8378-1.2865-3.4918v-72.41c0-1.654 0.36756-2.7567 1.2865-3.4918 0.9189-0.73512 1.8378-0.91891 2.7567-0.91891h38.594c0.36756 0 0.55134 0 0.9189 0.18378 0.18379 0.18378 0.55135 0.36756 0.73513 0.73512s0.36756 0.91891 0.36756 1.4703c0.18378 0.55134 0.18378 1.2865 0.18378 2.0216s0 1.4702-0.18378 2.0216-0.18378 1.1027-0.36756 1.4703c-0.18378 0.36756-0.36756 0.55134-0.73513 0.73512-0.18378 0.18378-0.55134 0.18378-0.9189 0.18378h-31.794v25.729h27.2c0.36756 0 0.55134 0.18378 0.9189 0.36756 0.18378 0.18378 0.55135 0.36756 0.73513 0.73512s0.36756 0.73512 0.36756 1.4703c0 0.55134 0.18378 1.2865 0.18378 2.0216s0 1.4702-0.18378 2.0216c0 0.55134-0.18378 0.91891-0.36756 1.2865-0.18378 0.36756-0.36757 0.55134-0.73513 0.73512-0.18378 0.18378-0.55134 0.18378-0.9189 0.18378h-27.2v29.037h32.162c0.36756 0 0.55134 0 0.91891 0.18378 0.36756 0.18378 0.55134 0.36757 0.73512 0.73513s0.36757 0.73512 0.36757 1.4702c0.18378 0.55134 0.18378 1.1027 0.18378 2.0216z"/>
  <path d="m783.83 115.05c0 0.91891-0.18379 1.4702-0.36757 2.2054-0.36756 0.55134-0.73512 1.1027-1.1027 1.4702-0.36757 0.36756-0.91891 0.73512-1.4703 0.73512-0.55134 0.18378-1.1027 0.18378-1.654 0.18378h-3.6756c-1.1027 0-2.0216-0.18378-2.9405-0.36756-0.91891-0.18378-1.654-0.73512-2.3892-1.2865-0.73513-0.55134-1.4702-1.4702-2.2054-2.3892-0.73512-1.1027-1.4702-2.3892-2.3892-4.0432l-24.994-46.129c-1.2865-2.3892-2.5729-4.9621-3.8594-7.535s-2.5729-5.1459-3.6756-7.535h-0.18378c0 2.9405 0.18378 6.0648 0.18378 9.1891v58.443c0 0.36757 0 0.55135-0.18378 0.91891-0.18379 0.18378-0.55135 0.55134-0.91891 0.55134-0.36756 0.18378-0.91891 0.18378-1.654 0.36757-0.73513 0.18378-1.4702 0.18378-2.5729 0.18378s-2.0216 0-2.5729-0.18378c-0.73512-0.18379-1.2865-0.18379-1.654-0.36757s-0.73513-0.36756-0.91891-0.55134-0.18378-0.55134-0.18378-0.91891v-74.983c0-1.654 0.55135-2.9405 1.4702-3.4918 0.91891-0.73512 2.0216-1.1027 3.1243-1.1027h5.3297c1.2865 0 2.3892 0.18378 3.1243 0.36756 0.91891 0.18378 1.654 0.55134 2.2054 1.1027 0.73512 0.55134 1.2865 1.1027 2.0216 2.0216 0.55135 0.91891 1.2865 2.0216 2.0216 3.3081l19.113 35.654c1.1027 2.2054 2.3892 4.227 3.3081 6.4323 1.1027 2.0216 2.2054 4.0432 3.1243 6.0648s2.0216 4.0432 2.9405 5.881c0.91891 2.0216 2.0216 3.8594 2.9405 5.881 0-3.3081-0.18378-6.7999-0.18378-10.292v-54.4c0-0.36756 0-0.55134 0.18378-0.73512s0.55134-0.55134 0.91891-0.73512c0.36756-0.18378 0.9189-0.36756 1.654-0.36756 0.73512 0 1.654-0.18378 2.7567-0.18378 0.9189 0 1.8378 0 2.5729 0.18378 0.73512 0 1.2865 0.18378 1.654 0.36756s0.73512 0.36756 0.9189 0.73512c0.18379 0.18378 0.18379 0.55134 0.18379 0.73512z"/>
  <path d="m338.71 155.66c0 0.55134 0 1.1027-0.18378 1.654 0 0.55135-0.18379 0.91891-0.36757 1.1027-0.18378 0.36756-0.36756 0.55134-0.55134 0.55134-0.18378 0.18378-0.36756 0.18378-0.73513 0.18378h-23.708v22.054h22.421c0.18379 0 0.36757 0 0.73513 0.18378 0.18378 0.18378 0.36756 0.36756 0.55134 0.55135 0.18378 0.18378 0.36757 0.55134 0.36757 1.1027 0 0.36757 0.18378 1.1027 0.18378 1.654 0 0.55134 0 1.1027-0.18378 1.654 0 0.36756-0.18379 0.73512-0.36757 1.1027-0.18378 0.36757-0.36756 0.55135-0.55134 0.73513s-0.36756 0.18378-0.73513 0.18378h-22.421v27.016c0 0.18378 0 0.55135-0.18379 0.73513-0.18378 0.18378-0.36756 0.36756-0.73512 0.55134s-0.73513 0.18378-1.2865 0.36756c-0.55134 0-1.2865 0.18379-2.0216 0.18379-0.73513 0-1.4702 0-2.0216-0.18379-0.55134 0-1.1027-0.18378-1.2865-0.36756-0.36756-0.18378-0.55134-0.36756-0.73512-0.55134s-0.18378-0.36757-0.18378-0.73513v-59.913c0-1.2865 0.36756-2.2054 1.1027-2.7567 0.73513-0.55134 1.4702-0.73513 2.2054-0.73513h29.037c0.18379 0 0.36757 0 0.73513 0.18379 0.36756 0.18378 0.36756 0.36756 0.55134 0.73512 0.18379 0.36756 0.36757 0.73513 0.36757 1.1027v1.654z"/>
  <path d="m387.96 213c0 0.55134 0 1.1027-0.18378 1.654 0 0.36756-0.18378 0.73512-0.36756 1.1027-0.18378 0.36757-0.36756 0.55135-0.55134 0.73513s-0.36757 0.18378-0.73513 0.18378h-31.059c-0.73512 0-1.4702-0.18378-2.2054-0.73512-0.73513-0.55135-1.1027-1.4702-1.1027-2.7567v-57.707c0-1.2865 0.36756-2.2054 1.1027-2.7567 0.73512-0.55134 1.4702-0.73513 2.2054-0.73513h30.691c0.18378 0 0.55134 0 0.73512 0.18379 0.18379 0.18378 0.36757 0.36756 0.55135 0.73512s0.18378 0.73513 0.36756 1.1027c0 0.36756 0.18378 0.9189 0.18378 1.654 0 0.55134 0 1.1027-0.18378 1.654 0 0.36756-0.18378 0.73513-0.36756 1.1027s-0.36756 0.55134-0.55135 0.55134c-0.18378 0.18378-0.55134 0.18378-0.73512 0.18378h-25.362v20.216h21.87c0.18379 0 0.55135 0 0.73513 0.18378l0.55134 0.55134c0.18378 0.18378 0.18378 0.55135 0.36757 1.1027 0 0.55134 0.18378 1.1027 0.18378 1.654 0 0.55135 0 1.1027-0.18378 1.4702 0 0.36757-0.18379 0.73513-0.36757 1.1027l-0.55134 0.55134c-0.18378 0.18379-0.36756 0.18379-0.73513 0.18379h-21.686v23.156h25.729c0.18378 0 0.55135 0 0.73513 0.18378l0.55134 0.55134c0.18378 0.36757 0.36756 0.73513 0.36756 1.1027-0.18378 0.73513 0 1.2865 0 1.8378z"/>
  <path d="m445.12 215.39c0 0.18378 0 0.55135-0.18378 0.73513s-0.36756 0.36756-0.73513 0.55134c-0.36756 0.18378-0.73512 0.18378-1.4702 0.36756-0.73512 0.18379-1.4702 0.18379-2.3892 0.18379-0.91891 0-1.654 0-2.2054-0.18379-0.55134 0-0.91891-0.18378-1.2865-0.36756s-0.55134-0.36756-0.73512-0.55134c-0.18379-0.18378-0.36757-0.55135-0.55135-0.91891l-5.881-15.254c-0.73513-1.654-1.4702-3.3081-2.2054-4.7783-0.73512-1.4702-1.654-2.7567-2.7567-3.6756-1.1027-1.1027-2.2054-1.8378-3.6756-2.3892-1.4702-0.55135-3.1243-0.91891-5.1459-0.91891h-5.6972v27.567c0 0.18379 0 0.55135-0.18378 0.73513s-0.36756 0.36756-0.73512 0.55134c-0.36757 0.18379-0.73513 0.18379-1.2865 0.36757-0.55135 0-1.2865 0.18378-2.0216 0.18378-0.73512 0-1.4702 0-2.0216-0.18378-0.55135 0-0.91891-0.18378-1.2865-0.36757-0.36756-0.18378-0.55135-0.36756-0.73513-0.55134s-0.18378-0.36756-0.18378-0.73513v-59.913c0-1.2865 0.36756-2.2054 1.1027-2.7567 0.73513-0.55134 1.4702-0.73512 2.2054-0.73512h13.784c1.654 0 2.9405 0 4.0432 0.18378 1.1027 0 2.0216 0.18378 2.9405 0.18378 2.5729 0.36756 4.7783 1.1027 6.6161 2.0216 1.8378 0.91891 3.4918 2.2054 4.7783 3.4918 1.2865 1.4702 2.2054 3.1243 2.9405 4.9621 0.73513 1.8378 0.91891 3.8594 0.91891 6.0648s-0.36756 4.0432-0.91891 5.881c-0.55134 1.8378-1.4702 3.3081-2.5729 4.5945-1.1027 1.2865-2.3892 2.3892-4.0432 3.4918-1.4702 0.91891-3.3081 1.8378-5.1459 2.3892 1.1027 0.55135 2.0216 1.1027 2.9405 1.8378 0.91891 0.73513 1.654 1.654 2.3892 2.5729 0.73512 0.91891 1.4702 2.2054 2.2054 3.4918 0.73513 1.2865 1.2865 2.7567 2.0216 4.4108l5.881 14.335c0.55134 1.2865 0.73513 2.0216 0.91891 2.5729 0.18378 0.55134 0.36756 0.18378 0.36756 0.55134zm-13.048-45.578c0-2.5729-0.55135-4.5945-1.654-6.4324-1.1027-1.8378-3.1243-2.9405-5.6972-3.8594-0.9189-0.18378-1.8378-0.36757-2.7567-0.55135-1.1027-0.18378-2.3892-0.18378-4.0432-0.18378h-7.1675v21.87h8.4539c2.2054 0 4.227-0.18378 5.881-0.73513 1.654-0.55134 2.9405-1.2865 4.0432-2.3892 1.1027-0.9189 1.8378-2.2054 2.3892-3.4918 0.36757-1.1027 0.55135-2.5729 0.55135-4.227z" fill-rule="evenodd"/>
  <path d="m506.5 213c0 0.73512-0.18378 1.2865-0.36756 1.654-0.18378 0.55134-0.55134 0.9189-0.91891 1.1027-0.36756 0.18379-0.73512 0.55135-1.2865 0.73513-0.55135 0.18378-0.91891 0.18378-1.2865 0.18378h-2.7567c-0.91891 0-1.654 0-2.3892-0.18378-0.73513-0.18378-1.2865-0.55134-1.8378-0.91891-0.55135-0.55134-1.2865-1.1027-1.8378-2.0216-0.55134-0.91891-1.2865-1.8378-1.8378-3.1243l-19.848-36.756c-1.1027-1.8378-2.0216-3.8594-3.1243-6.0648s-2.0216-4.0432-2.9405-6.0648h-0.18378c0 2.3892 0.18378 4.7783 0.18378 7.3512v46.68c0 0.18378 0 0.55135-0.18378 0.73513-0.18379 0.18378-0.36757 0.36756-0.73513 0.55134s-0.73512 0.18378-1.2865 0.36757c-0.55134 0.18378-1.2865 0.18378-2.0216 0.18378-0.91891 0-1.4702 0-2.0216-0.18378-0.55134-0.18379-0.9189-0.18379-1.2865-0.36757-0.36756-0.18378-0.55134-0.36756-0.73512-0.55134s-0.18378-0.36756-0.18378-0.73513v-59.729c0-1.2865 0.36756-2.2054 1.1027-2.9405 0.73512-0.55134 1.654-0.91891 2.3892-0.91891h4.227c0.91891 0 1.8378 0 2.5729 0.18379 0.73513 0.18378 1.2865 0.36756 1.8378 0.73512 0.55135 0.36756 1.1027 0.91891 1.4702 1.654 0.55135 0.73513 1.1027 1.4702 1.654 2.5729l15.254 28.486c0.91891 1.654 1.8378 3.4918 2.7567 5.1459 0.91891 1.654 1.654 3.3081 2.5729 4.9621 0.73513 1.654 1.654 3.1243 2.3892 4.7783 0.73512 1.4702 1.654 3.1243 2.3892 4.5945 0-2.5729-0.18378-5.3297-0.18378-8.2702v-43.372c0-0.18378 0-0.36756 0.18378-0.73512 0.18379-0.36756 0.36757-0.36756 0.73513-0.55134 0.36756-0.18379 0.73513-0.18379 1.2865-0.36757 0.55134 0 1.2865-0.18378 2.2054-0.18378 0.73513 0 1.4703 0 2.0216 0.18378 0.55134 0 0.91891 0.18378 1.2865 0.36757 0.36756 0.18378 0.55134 0.36756 0.73512 0.55134s0.18378 0.36756 0.18378 0.73512v59.545z"/>
  <path d="m558.51 198.48c0 3.1243-0.55134 5.6972-1.654 8.0864s-2.7567 4.4108-4.5945 6.0648c-2.0216 1.654-4.4108 2.9405-6.9837 3.6756-2.7567 0.91891-5.5134 1.2865-8.6377 1.2865-2.2054 0-4.227-0.18378-6.0648-0.55135-1.8378-0.36756-3.4918-0.73512-4.9621-1.2865-1.4702-0.55134-2.7567-1.1027-3.6756-1.654-0.9189-0.55134-1.654-1.1027-2.0216-1.4702-0.36756-0.36756-0.73513-0.9189-0.91891-1.4702-0.18378-0.55134-0.18378-1.4702-0.18378-2.3892 0-0.73513 0-1.2865 0.18378-1.8378 0.18378-0.55134 0.18378-0.9189 0.36756-1.1027 0.18379-0.36756 0.36757-0.55134 0.55135-0.55134 0.18378-0.18378 0.36756-0.18378 0.73512-0.18378 0.55135 0 1.1027 0.36756 2.0216 0.91891 0.9189 0.55134 2.0216 1.1027 3.3081 1.8378 1.2865 0.73512 2.9405 1.2865 4.7783 1.8378 1.8378 0.55135 4.0432 0.91891 6.6161 0.91891 1.8378 0 3.4918-0.18378 5.1459-0.73513 1.4702-0.55134 2.9405-1.2865 4.0432-2.2054 1.1027-0.91891 2.0216-2.0216 2.5729-3.3081 0.55134-1.2865 0.9189-2.9405 0.9189-4.5945 0-1.8378-0.36756-3.4918-1.2865-4.7783-0.9189-1.2865-2.0216-2.3892-3.3081-3.4918-1.2865-0.9189-2.9405-1.8378-4.5945-2.7567-1.8378-0.73512-3.4918-1.654-5.3297-2.5729-1.8378-0.91891-3.6756-1.8378-5.3297-2.7567-1.654-1.1027-3.3081-2.2054-4.5945-3.6756s-2.3892-3.1243-3.3081-4.9621c-0.91891-1.8378-1.2865-4.227-1.2865-6.7999 0-2.7567 0.55134-5.1459 1.4702-7.1675 0.9189-2.0216 2.3892-3.8594 4.0432-5.3297 1.8378-1.4702 3.8594-2.5729 6.2486-3.3081 2.3892-0.73513 4.9621-1.1027 7.9026-1.1027 1.4702 0 2.9405 0.18378 4.4108 0.36756s2.7567 0.55134 4.0432 0.91891c1.2865 0.36756 2.3892 0.9189 3.4918 1.4702 0.91891 0.55134 1.654 0.9189 2.0216 1.2865 0.36757 0.36756 0.55135 0.55134 0.55135 0.73512 0.18378 0.18378 0.18378 0.36756 0.18378 0.73513 0 0.36756 0.18378 0.55134 0.18378 1.1027v3.1242c0 0.55134-0.18378 0.9189-0.18378 1.1027-0.18378 0.36757-0.18378 0.55135-0.36756 0.73513s-0.36757 0.18378-0.55135 0.18378c-0.36756 0-0.9189-0.18378-1.654-0.73512-0.73512-0.55135-1.654-0.91891-2.9405-1.654-1.1027-0.55134-2.3892-1.1027-4.0432-1.654-1.4702-0.55134-3.3081-0.73512-5.1459-0.73512s-3.3081 0.18378-4.7783 0.73512c-1.2865 0.55135-2.3892 1.1027-3.3081 1.8378-0.91891 0.73513-1.4702 1.8378-2.0216 2.9405-0.55134 1.1027-0.73512 2.2054-0.73512 3.4918 0 1.8378 0.36756 3.3081 1.2865 4.5945 0.9189 1.2865 2.0216 2.3892 3.3081 3.4918 1.4702 0.9189 2.9405 1.8378 4.7783 2.7567s3.4918 1.654 5.3297 2.5729c1.8378 0.9189 3.6756 1.8378 5.3297 2.7567 1.8378 1.1027 3.3081 2.2054 4.7783 3.6756s2.5729 2.9405 3.3081 4.9621c0.18378 1.8378 0.55134 4.0432 0.55134 6.6161z"/>
  <path d="m606.85 213c0 0.55134 0 1.1027-0.18378 1.654 0 0.36756-0.18378 0.73512-0.36756 1.1027-0.18378 0.36757-0.36756 0.55135-0.55134 0.73513-0.18379 0.18378-0.55135 0.18378-0.73513 0.18378h-31.059c-0.73512 0-1.4702-0.18378-2.2054-0.73512-0.73513-0.55135-1.1027-1.4702-1.1027-2.7567v-57.707c0-1.2865 0.36756-2.2054 1.1027-2.7567 0.73512-0.55134 1.4702-0.73513 2.2054-0.73513h30.691c0.18378 0 0.55134 0 0.73512 0.18379 0.18378 0.18378 0.36757 0.36756 0.55135 0.73512s0.18378 0.73513 0.36756 1.1027c0 0.36756 0.18378 0.9189 0.18378 1.654 0 0.55134 0 1.1027-0.18378 1.654 0 0.36756-0.18378 0.73513-0.36756 1.1027s-0.36757 0.55134-0.55135 0.55134c-0.18378 0.18378-0.55134 0.18378-0.73512 0.18378h-25.362v20.216h21.686c0.18378 0 0.55135 0 0.73513 0.18378l0.55134 0.55134c0.18378 0.18378 0.18378 0.55135 0.36756 1.1027 0 0.55134 0.18378 1.1027 0.18378 1.654 0 0.55135 0 1.1027-0.18378 1.4702-0.18378 0.36757-0.18378 0.73513-0.36756 1.1027l-0.55134 0.55134c-0.18378 0.18379-0.36757 0.18379-0.73513 0.18379h-21.686v23.156h25.729c0.18378 0 0.55134 0 0.73513 0.18378l0.55134 0.55134c0.18378 0.18379 0.36756 0.73513 0.36756 1.1027 0.18378 0.73513 0.18378 1.2865 0.18378 1.8378z"/>
  <path d="m667.49 215.39c0 0.18378 0 0.55135-0.18378 0.73513s-0.36756 0.36756-0.73512 0.55134c-0.36757 0.18378-0.73513 0.18378-1.2865 0.36756-0.55135 0-1.2865 0.18379-2.0216 0.18379-0.9189 0-1.654 0-2.0216-0.18379-0.55135 0-0.91891-0.18378-1.2865-0.36756s-0.55134-0.36756-0.73513-0.55134c-0.18378-0.18378-0.18378-0.36757-0.18378-0.73513v-28.67h-29.405v28.67c0 0.18378 0 0.55135-0.18378 0.73513s-0.36756 0.36756-0.73512 0.55134-0.73513 0.18378-1.2865 0.36756c-0.55134 0-1.2865 0.18379-2.0216 0.18379-0.73512 0-1.4702 0-2.0216-0.18379-0.55134 0-1.1027-0.18378-1.2865-0.36756s-0.55134-0.36756-0.73512-0.55134c-0.18379-0.18378-0.18379-0.36757-0.18379-0.73513v-62.118c0-0.18378 0-0.55134 0.18379-0.73512 0.18378-0.18378 0.36756-0.36756 0.73512-0.55135 0.36756-0.18378 0.73513-0.18378 1.2865-0.36756 0.55134 0 1.2865-0.18378 2.0216-0.18378 0.91891 0 1.4703 0 2.0216 0.18378 0.55134 0 0.91891 0.18378 1.2865 0.36756 0.36756 0.18379 0.55134 0.18379 0.73512 0.55135 0.18378 0.18378 0.18378 0.36756 0.18378 0.73512v25.913h29.405v-25.913c0-0.18378 0-0.55134 0.18378-0.73512 0.18379-0.18378 0.36757-0.36756 0.73513-0.55135 0.36756-0.18378 0.73512-0.18378 1.2865-0.36756 0.55134 0 1.2865-0.18378 2.0216-0.18378 0.73513 0 1.4702 0 2.0216 0.18378 0.55134 0 0.9189 0.18378 1.2865 0.36756 0.36756 0.18379 0.55134 0.18379 0.73512 0.55135 0.18378 0.18378 0.18378 0.36756 0.18378 0.73512z"/>
  <path d="m720.79 213c0 0.55134 0 1.1027-0.18378 1.654-0.18378 0.55134-0.18378 0.73512-0.36756 1.1027-0.18379 0.36757-0.36757 0.55135-0.55135 0.73513s-0.55134 0.18378-0.73512 0.18378h-31.059c-0.73513 0-1.4702-0.18378-2.2054-0.73512-0.73512-0.55135-1.1027-1.4702-1.1027-2.7567v-57.707c0-1.2865 0.36757-2.2054 1.1027-2.7567 0.73513-0.55134 1.4702-0.73513 2.2054-0.73513h30.691c0.18379 0 0.55135 0 0.73513 0.18379 0.18378 0.18378 0.36756 0.36756 0.55134 0.73512s0.18378 0.73513 0.36757 1.1027c0 0.36756 0.18378 0.9189 0.18378 1.654 0 0.55134 0 1.1027-0.18378 1.654 0 0.36756-0.18379 0.73513-0.36757 1.1027s-0.36756 0.55134-0.55134 0.55134c-0.18378 0.18378-0.55134 0.18378-0.73513 0.18378h-25.362v20.216h21.686c0.18378 0 0.55134 0 0.73512 0.18378s0.36757 0.36756 0.55135 0.55134 0.18378 0.55135 0.36756 1.1027c0 0.55134 0.18378 1.1027 0.18378 1.654 0 0.55135 0 1.1027-0.18378 1.4702-0.18378 0.36757-0.18378 0.73513-0.36756 1.1027-0.18378 0.18378-0.36757 0.36756-0.55135 0.55134-0.18378 0.18379-0.55134 0.18379-0.73512 0.18379h-21.686v23.156h25.729c0.18378 0 0.55134 0 0.73512 0.18378s0.36756 0.36756 0.55135 0.55134c0.18378 0.18379 0.36756 0.73513 0.36756 1.1027 0.18378 0.73513 0.18378 1.2865 0.18378 1.8378z"/>
  <path d="m783.64 213c0 0.73512-0.18378 1.2865-0.36756 1.654-0.18378 0.36756-0.55134 0.9189-0.9189 1.1027-0.36757 0.18379-0.73513 0.55135-1.2865 0.73513-0.55135 0.18378-0.91891 0.18378-1.2865 0.18378h-2.7567c-0.91891 0-1.654 0-2.3892-0.18378-0.73512-0.18378-1.2865-0.55134-1.8378-0.91891-0.55135-0.55134-1.2865-1.1027-1.8378-2.0216-0.55134-0.91891-1.2865-1.8378-1.8378-3.1243l-19.848-36.756c-1.1027-1.8378-2.0216-3.8594-3.1243-6.0648-1.1027-2.0216-2.0216-4.0432-2.9405-6.0648h-0.18378c0 2.3892 0.18378 4.7783 0.18378 7.3512v46.68c0 0.18378 0 0.55135-0.18378 0.73513s-0.36757 0.36756-0.73513 0.55134-0.73512 0.18378-1.2865 0.36757c-0.55134 0-1.2865 0.18378-2.0216 0.18378-0.73513 0-1.4702 0-2.0216-0.18378-0.55134 0-0.9189-0.18379-1.2865-0.36757-0.36756-0.18378-0.55134-0.36756-0.73512-0.55134s-0.18378-0.36756-0.18378-0.73513v-59.729c0-1.2865 0.36756-2.2054 1.1027-2.9405 0.73512-0.55134 1.654-0.91891 2.3892-0.91891h4.227c0.91891 0 1.8378 0 2.5729 0.18379 0.73513 0.18378 1.2865 0.36756 1.8378 0.73512 0.55135 0.36756 1.1027 0.91891 1.4702 1.654 0.55135 0.73513 1.1027 1.4702 1.654 2.5729l15.254 28.486c0.91891 1.654 1.8378 3.4918 2.7567 5.1459 0.91891 1.654 1.654 3.3081 2.5729 4.9621 0.73513 1.654 1.654 3.1243 2.3892 4.7783 0.73512 1.4702 1.654 3.1243 2.3892 4.5945 0-2.5729-0.18379-5.3297-0.18379-8.2702v-43.372c0-0.18378 0-0.36756 0.18379-0.73512 0.18378-0.18378 0.36756-0.36756 0.73512-0.55134 0.36756-0.18379 0.73513-0.18379 1.2865-0.36757 0.55134 0 1.2865-0.18378 2.2054-0.18378 0.73512 0 1.4702 0 2.0216 0.18378 0.55134 0 0.91891 0.18378 1.2865 0.36757 0.36756 0.18378 0.55134 0.36756 0.73512 0.55134 0.18379 0.18378 0.18379 0.36756 0.18379 0.73512v59.545z"/>
  <path d="m785.48 136.55s-56.421 2.2054-99.426 2.2054h-277.88c-43.372 0-99.426-2.2054-99.426-2.2054s56.972-2.2054 99.426-2.2054h277.88c43.005 0 99.426 2.2054 99.426 2.2054z"/>
 </g>
</svg>
