<svg width="800" height="72.693" version="1.1" viewBox="0 0 211.67 19.233" xmlns="http://www.w3.org/2000/svg">
 <g transform="translate(297.85 -21.92)">
  <g fill="#ad1a2a">
   <path d="m-297.85 40.838v-18.615h13.062v3.5463h-7.9129v4.3161h7.345v3.521h-7.345v7.2314z" style="white-space:pre"/>
   <path d="m-277.24 30.237h2.0319q1.7542 0 2.4483-0.51743 0.70672-0.51743 0.70672-1.8047 0-1.1737-0.70672-1.6785-0.69411-0.51743-2.3348-0.51743h-2.1454zm-5.0986 10.601v-18.615h8.4051q3.4579 0 5.1995 1.2115 1.7542 1.1989 1.7542 3.5715 0 1.9435-1.1484 3.1298-1.1358 1.1737-3.2434 1.4513v0.10096q1.5523 0 2.4231 0.64363 0.88341 0.63101 1.2873 2.095 0.12626 0.42909 0.42909 2.5998 0.31551 2.1581 0.79508 3.8113h-5.5655q-0.23983-1.3504-0.4417-3.092-0.20196-1.7542-0.27765-2.1581-0.20196-1.0475-0.78244-1.4892-0.56793-0.44171-1.7542-0.44171h-1.9814v7.1809z" style="white-space:pre"/>
   <path d="m-252.9 33.631-2.36-7.7614-2.5871 7.7614zm-12.494 7.2062 7.1935-18.615h6.2723l7.345 18.615h-5.7675l-1.2873-3.6472h-7.3197l-1.2873 3.6472z" style="white-space:pre"/>
   <path d="m-242.61 40.838v-18.615h7.345l5.8936 13.239v-13.239h4.4171v18.615h-7.1052l-6.0451-13.668v13.668z" style="white-space:pre"/>
   <path d="m-221.47 40.838v-18.615h5.1995v8.1274l6.0451-8.1274h5.7674l-6.4616 8.1779 6.979 10.437h-6.0703l-6.2596-9.9195v9.9195z" style="white-space:pre"/>
   <path d="m-201.94 40.838v-18.615h13.731v3.5715h-8.708v3.7987h8.2915v3.5463h-8.2915v3.9754h8.9604v3.723z" style="white-space:pre"/>
   <path d="m-185.05 40.838v-18.615h7.345l5.8936 13.239v-13.239h4.4171v18.615h-7.1052l-6.0451-13.668v13.668z" style="white-space:pre"/>
  </g>
  <g fill="#3c1e13">
   <path d="m-150.36 30.577h2.2969q1.6533 0 2.4357-0.60577 0.79508-0.60577 0.79508-1.8804 0-1.2494-0.78245-1.8173-0.76985-0.58053-2.4483-0.58053h-2.2969zm-5.1743 10.26v-18.615h8.5313q3.6472 0 5.515 1.5144 1.8804 1.5018 1.8804 4.4297 0 2.8648-1.8552 4.4676-1.8552 1.5902-5.1743 1.5902h-3.723v6.613z" style="white-space:pre"/>
   <path d="m-137.06 40.838v-18.615h5.1491v15.018h8.2662v3.5968z" style="white-space:pre"/>
   <path d="m-122.52 22.223h5.2248v11.093q0 2.0445 0.90866 3.0793 0.90866 1.0349 2.7007 1.0349 1.7921 0 2.7638-1.0727 0.98436-1.0727 0.98436-3.0415v-11.093h4.9976v11.56q0 3.5841-2.3348 5.4772-2.3221 1.893-6.7392 1.893-4.2278 0-6.3732-1.9183-2.1328-1.9183-2.1328-5.6917z" style="white-space:pre"/>
   <path d="m-97.329 34.843v0.12621q0 1.262 0.73197 1.994 0.74459 0.71935 2.0066 0.71935 1.5018 0 2.259-0.50481 0.76982-0.51743 0.76982-1.5144 0-1.4261-3.256-2.2338-0.7572-0.18929-1.1611-0.29026-3.6851-0.98438-4.9724-2.2212-1.2873-1.2368-1.2873-3.4706 0-2.4483 2.1328-3.988t5.6539-1.5397q3.7356 0 5.6412 1.3756 1.9057 1.3756 1.9057 4.0763v0.31551h-5.1743v-0.08833q0-1.1484-0.60578-1.7416-0.59313-0.60577-1.7416-0.60577-1.1232 0-1.8047 0.53005-0.68149 0.53005-0.68149 1.3882 0 1.4008 4.0763 2.3726 1.0854 0.2524 1.6911 0.41647 2.5619 0.66887 3.7608 1.9561 1.1989 1.2746 1.1989 3.3444 0 2.8522-2.1959 4.3792-2.1959 1.5144-6.3606 1.5144-3.7861 0-5.7675-1.6154t-1.9814-4.6947z" style="white-space:pre"/>
  </g>
 </g>
</svg>
