<svg width="800" height="130.76" version="1.1" viewBox="0 0 800 130.76" xml:space="preserve" xmlns="http://www.w3.org/2000/svg"><g fill="#fff" stroke-width=".41667"><path class="st0" d="m0 6.4917h71.646v28.658h-38.208v17.908h34.625v27.462h-34.625v45.375h-33.438z"/><path class="st0" d="m91.55 6.4917h49.471c39.917 0 41.279 30.363 41.279 35.825 0 22.517-13.817 31.9-25.075 35.825l33.433 47.763h-40.429l-25.246-39.404v39.404h-33.437v-119.41zm41.625 53.733c11.942 0 15.696-6.8208 15.696-13.817 0-6.6542-3.7542-13.646-15.696-13.646h-8.1875v27.462z"/><path class="st0" d="m204.62 6.4917h71.646v28.658h-38.212v16.717h34.625v26.271h-34.625v19.1h38.212v28.658h-71.646z"/><path class="st0" d="m299.95 6.4917h71.646v28.658h-38.212v16.717h34.625v26.271h-34.625v19.1h38.212v28.658h-71.646z"/><path class="st0" d="m673.77 6.4917h33.433l20.979 72.842 20.979-72.842h33.438l17.404 119.41h-32.071l-8.8708-69.258-20.129 69.258h-21.492l-20.129-69.258-8.8708 69.258h-32.071z"/><path class="st0" d="m412.87 125.95v-0.05h68.917v0.05h28.658v-28.712h-14.329v-90.746h-88.021v52.196c0 3.7542 0.17083 7.5083-0.17084 11.263-1.3625 18.592-12.796 26.779-23.712 27.292v28.713h28.658zm25.929-62.483v-28.317h23.879v62.088h-36.504c11.433-6.9917 12.625-19.442 12.625-33.771z"/></g><g stroke-width=".41667"><path class="st1" d="m517.85 65.592c0-36.225 29.367-65.592 65.592-65.592s65.592 29.367 65.592 65.592" fill="#416ab2"/><path class="st2" d="m517.85 65.167c0 36.225 29.367 65.592 65.592 65.592s65.592-29.367 65.592-65.592" fill="#fed00d"/></g> </svg>
