<svg width="900.28pt" height="410.02pt" version="1.1" viewBox="0 0 900.28 410.02" xmlns="http://www.w3.org/2000/svg">
 <g transform="translate(-49.676 -44.954)">
  <path d="m642.52 301.09h307.44l-153.91 153.88h-307.5z" fill="#505453"/>
 </g>
 <path d="m600.85 283.5v91.036h18.365v-37.72h27.085v37.72h18.366v-91.036l-18.366-1.6e-4v36.275h-27.085v-36.275z" fill="#fff"/>
 <path d="m681.67 283.5h32.61c7.52-0.26 15.51 1.2353 21.12 6.5253 5.49 5.08 8.025 12.65 8.105 20.01v36.02c0.07 6.63-1.275 13.53-5.405 18.89-4.96 6.79-13.62 9.6905-21.82 9.5905h-34.61zm18.43 16.785v57.325h17.06c4.66-0.3 8.31-4.955 7.96-9.545v-38.1c0.34-4.89-3.76-9.59-8.69-9.68z" fill="#fff"/>
 <g transform="translate(140.68 478.68)" fill="#43c4ca">
  <path d="m179.61-173.57h-13.934c4.7067 0.23301 9.3668 0.23301 13.934 0zm-52.985-96.418c0 37.374 91.804 37.794 91.804 3.4019 0-20.598-24.372-25.165-53.684-26.889-62.073-4.5203-103.5-25.258-106.34-85.187l99.493-99.54c35.277-2.8427 72.232 6.897 96.604 29.079l-49.351 49.49c-18.221-21.11-73.583-13.934-75.634 15.099-1.7242 22.275 20.132 26.842 46.601 29.871 58.205 6.2446 115.2 15.099 115.2 88.449 0 58.997-54.803 90.266-111.7 92.643-4.5669 0.23301-9.227 0.23301-13.934 0-57.273-2.3767-112.5-34.159-111.7-96.418z"/>
  <path d="m24.936-278.33h-89.334v104.76h-76.286v-303.19h231.23l-67.059 67.106h-87.89v64.077h89.334z"/>
  <path d="m339.77-399.77h-70.461l77.358-76.566h70.414v225.5l-77.311 77.637z"/>
 </g>
</svg>
