<svg width="800" height="344.55" version="1.1" viewBox="0 0 800 344.55" xmlns="http://www.w3.org/2000/svg">
 <path d="m118.63 190.96c12.387 0 22.331 3.544 29.832 10.632 7.5009 7.088 11.251 16.825 11.251 29.212 0 13.213-3.544 24.223-10.632 33.032-6.7336 8.368-15.299 14.5-25.697 18.397l-1.657 0.59663 20.232 61.728h-29.109l-17.754-58.218h-29.522l-9.703 58.218h-27.251l26.219-153.6zm166.55 0-4.129 23.741h-71.431l-7.0192 40.051h63.999l-3.9225 23.741h-64.205l-7.2256 42.115h72.257l-3.9225 23.948h-99.301l26.219-153.6zm79.371 0c12.112 0 21.815 3.4408 29.109 10.322 7.2944 6.8816 10.942 16.447 10.942 28.696 0 17.479-5.7805 31.242-17.342 41.289-11.148 9.6883-23.896 14.705-38.244 15.051l-1.6008 0.0192h-34.27l-9.703 58.218h-27.251l26.219-153.6zm88.042 0-22.09 129.65h67.508l-3.9225 23.948h-95.379l26.012-153.6zm168.93 0 24.567 153.6h-29.109l-4.5418-29.109h-57.599l-14.038 29.109h-29.935l76.798-153.6zm54.413 0 22.916 67.508 45.212-67.508h31.586l-66.476 92.695-10.322 60.902h-28.49l10.529-60.696-35.922-92.901zm-76.09 29.728-35.302 71.844h45.831zm-486.17-6.6063h-35.715l-8.4643 49.547h35.302c7.7074 0 14.279-2.8214 19.716-8.4643 5.4364-5.6429 8.1547-13.075 8.1547-22.296 0-5.7805-1.7204-10.357-5.1612-13.729s-8.0514-5.058-13.832-5.058zm245.09 0h-33.238l-8.4643 49.134h32.412c7.845 0 14.451-2.8214 19.819-8.4643s8.0514-13.075 8.0514-22.296c0-5.7805-1.6172-10.288-4.8515-13.522-3.2343-3.2344-7.8106-4.8515-13.729-4.8515zm-133.33-202.14-16.516 97.443c-1.7892 10.047-0.55053 18.236 3.716 24.567 4.2666 6.3311 11.699 9.4966 22.296 9.4966 20.383 0 32.69-10.79 36.921-32.369l0.23959-1.2818 16.722-97.856h27.87l-17.342 101.16c-3.0279 17.479-10.46 31.036-22.296 40.67-11.836 9.6342-26.907 14.451-45.212 14.451-18.718 0-32.653-5.3332-41.806-16-8.8665-10.333-12.017-23.928-9.4529-40.784l0.26604-1.6414 16.929-97.856zm421.67-1.6516c19.681 0 34.408 5.8838 44.18 17.651 9.4844 11.421 12.745 26.635 9.783 45.641l-0.2865 1.7383-5.1612 29.728c-3.716 20.92-12.18 36.507-25.393 46.76-13.213 10.254-29.247 15.38-48.102 15.38-19.681 0-34.442-5.8149-44.283-17.445-9.5512-11.288-12.847-26.498-9.8862-45.63l0.2865-1.7501 5.1612-29.935c3.7161-20.92 12.18-36.507 25.393-46.76 13.213-10.254 29.316-15.38 48.309-15.38zm-463.82 1.6516-3.9225 23.741h-69.16l-7.4321 42.322h63.379l-3.9225 23.741h-63.173l-10.942 63.792h-27.664l26.219-153.6zm261.4 0-4.3354 23.535h-41.702l-22.09 130.06h-28.283l22.503-130.06h-41.909l3.9225-23.535zm83.349 0c11.148 0 20.06 3.0279 26.735 9.0837s10.013 14.382 10.013 24.98c0 5.6429-0.86019 10.907-2.5806 15.793-1.7204 4.8859-3.8537 8.774-6.3999 11.664-2.5462 2.8903-5.058 5.402-7.5353 7.5353-2.2021 1.8962-4.078 3.276-5.6276 4.1391l-0.56584 0.29946-2.6838 1.2387c0.5505 0.13764 1.2043 0.4129 1.9612 0.82579 0.75697 0.4129 2.1677 1.4107 4.2322 2.9935s3.8881 3.4064 5.4709 5.4708c1.5828 2.0645 3.0279 4.9203 4.3354 8.5676 1.3075 3.6472 1.9612 7.6041 1.9612 11.871 0 10.735-2.6494 19.957-7.9482 27.664-5.2988 7.7074-11.664 13.213-19.096 16.516-6.9012 3.0672-14.218 4.7104-21.95 4.9295l-1.7916 0.0254h-70.399l26.219-153.6zm226.55 0-22.09 129.65h67.508l-3.9225 23.948h-95.379l26.012-153.6zm-110.58 22.296c-10.735 0-20.06 3.3376-27.974 10.013-7.5972 6.4081-12.689 16.273-15.276 29.594l-0.31034 1.6831-4.5418 26.425c-2.0645 12.249-0.79139 22.193 3.8193 29.832 4.6106 7.6386 13.109 11.458 25.496 11.458 10.598 0 19.888-3.3376 27.87-10.013 7.6756-6.4184 12.806-16.304 15.392-29.658l0.29803-1.6191 4.3354-26.425c2.0645-12.112 0.82581-22.021-3.716-29.728-4.5418-7.7074-13.006-11.561-25.393-11.561zm-133.31 64.205h-36.128l-7.6386 44.593h37.573c6.6064 0 12.421-2.2365 17.445-6.7095 5.0236-4.473 7.5353-10.907 7.5353-19.303 0-5.7805-1.7204-10.322-5.1612-13.626-3.4408-3.3032-7.9826-4.9547-13.626-4.9547zm8.4643-64.412h-33.651l-7.4321 42.322h33.444c7.0192 0 13.041-2.2709 18.064-6.8128 5.0236-4.5418 7.5353-10.942 7.5353-19.2 0-5.3676-1.6172-9.4278-4.8515-12.18-3.2344-2.7526-7.6042-4.1289-13.109-4.1289z" fill="#fff"/>
 <polygon transform="matrix(0 3.8456 -3.8456 0 135.36 35.256)" points="35.2 35.2 -9.1679 25.968 13.325 9.1679" fill="#bd1958" fill-rule="evenodd"/>
</svg>
