<svg width="800" height="125.87" version="1.1" xmlns="http://www.w3.org/2000/svg">
 <g transform="matrix(1.3764 0 0 1.3764 209.8 -367.55)" fill="#fff">
  <path d="m-66.783 332.74c-7.3489 15.025-22.738 25.394-40.492 25.394-24.957 0-45.149-20.373-45.149-45.549 0-25.139 20.191-45.549 45.149-45.549 12.26 0 23.356 4.9478 31.506 12.952l-12.551 12.624c-4.9478-4.7295-11.605-7.64-18.954-7.64-15.134 0-27.431 12.369-27.431 27.613 0 15.28 12.297 27.649 27.431 27.649 7.2762 0 13.861-2.8741 18.773-7.5308l21.719 0.0363z"/>
  <path d="m-28.608 269.1h-3.2015s-2.2556 0.14553-4.584 1.4916c-2.1465 1.237-4.6204 3.7836-4.6204 3.7836s-24.12 24.994-26.121 26.849c-1.9646 1.819-4.4748 2.6558-8.0038 2.6558h-30.014c-5.3844 0.10919-9.7137 4.5112-9.7137 9.8956 0 5.4935 4.4021 9.8956 9.8956 9.8956h32.597c3.1651 0 6.4758 0 8.404-1.0187 1.8918-1.0187 3.1651-2.0737 3.1651-2.0737l18.773-18.845s2.7286-2.8013 2.7286-0.32743v51.77s-0.14552 5.3116 4.7659 5.3116h11.533c4.6931 0 4.7659-5.3116 4.7659-5.3116v-70.906c0-6.9124-3.2743-13.17-10.369-13.17"/>
  <path d="m-7.6529 278.69c0-8.0038 5.4571-9.7864 10.769-9.7864h5.8209c6.1484 0 9.0588 2.4012 11.133 9.0588l17.281 55.117h0.25466l17.063-55.117c2.0373-6.6577 4.9478-9.0588 11.133-9.0588h5.5663c5.3116 0 10.769 1.7827 10.769 9.7864v69.997c0 4.9478-2.4375 9.6773-8.8405 9.6773s-8.8405-4.7295-8.8405-9.6773v-53.189h-0.21829l-18.518 57.045c-1.3461 4.111-4.3657 5.8209-8.4767 5.8209s-7.1306-1.7099-8.4767-5.8209l-18.518-57.045h-0.21829v53.189c0 4.9478-2.4375 9.6773-8.8405 9.6773-6.4394 0-8.8405-4.7295-8.8405-9.6773v-69.997z"/>
  <path d="m91.296 280.51c0-8.8405 4.584-11.605 11.605-11.605h46.604c5.7846 0 10.041 1.6735 10.041 7.9674s-4.2566 8.0038-10.041 8.0038h-38.382v20.301h33.652c5.2025 0 9.3135 1.4188 9.3135 7.6036 0 6.1847-4.111 7.6036-9.3135 7.6036h-33.652v21.756h39.364c5.7846 0 10.041 1.7099 10.041 8.0038s-4.2566 7.9674-10.041 7.9674h-47.586c-7.0215 0-11.605-2.765-11.605-11.605v-65.995z"/>
  <path d="m229.41 342.32c17.681 0 23.757-13.788 23.757-30.16 0-16.408-7.8583-28.05-23.757-28.05-15.898 0-23.757 11.642-23.757 28.05 0 16.371 5.4571 30.16 23.757 30.16m0-73.889c28.013 0 43.22 18.663 43.22 43.73 0 24.12-14.007 45.84-43.22 45.84-30.633 0-43.22-19.937-43.22-45.84 0-25.066 15.207-43.73 43.22-43.73"/>
  <path d="m278.26 280.29c0-8.0766 3.9291-11.424 12.224-11.424 4.0383 0 7.64 1.5644 9.7501 5.1297l34.089 55.881h0.25467v-51.588c0-6.3303 3.5653-9.4226 9.3499-9.4226 5.8573 0 9.3863 3.0924 9.3863 9.4226v67.996c0 7.7127-3.3107 12.115-11.496 12.115-6.1848 0-8.2221-1.3097-10.696-5.2388l-33.871-54.353h-0.21829v50.206c0 6.2939-3.5653 9.3863-9.3862 9.3863s-9.3862-3.0924-9.3862-9.3863v-68.723z"/>
  <path d="m360.88 280.29c0-8.6586 4.5112-11.424 11.424-11.424h45.694c5.7118 0 9.8956 1.6735 9.8956 7.8582s-4.1838 7.8583-9.8956 7.8583h-37.618v20.955h32.997c5.0933 0 9.168 1.4188 9.168 7.4945 0 6.0392-4.0746 7.4581-9.168 7.4581h-32.997v22.192h38.564c5.7118 0 9.8592 1.6735 9.8592 7.8583 0 6.1484-4.1474 7.8219-9.8592 7.8219h-46.64c-6.9124 0-11.424-2.7286-11.424-11.424v-66.65z"/>
 </g>
</svg>
