<svg version="1.1" viewBox="0 0 800 323.23" xml:space="preserve" xmlns="http://www.w3.org/2000/svg"><g transform="matrix(1.3333 0 0 -1.3333 -1146.1 1175.9)"><g transform="matrix(4.6083 0 0 4.6083 1210.1 696.97)"><path d="m0 0c-0.85 0-1.555-0.29-2.115-0.87s-0.84-1.337-0.84-2.273c0-0.956 0.28-1.728 0.84-2.318s1.265-0.885 2.115-0.885c0.824 0 1.517 0.3 2.081 0.9 0.563 0.599 0.845 1.364 0.845 2.293 0 0.922-0.277 1.679-0.831 2.269-0.553 0.589-1.252 0.884-2.095 0.884m-2.837 2.214v-1.186c0.488 0.488 1.015 0.853 1.582 1.097 0.566 0.244 1.173 0.366 1.818 0.366 1.404 0 2.596-0.531 3.578-1.592 0.982-1.06 1.473-2.421 1.473-4.082 0-1.601-0.507-2.94-1.522-4.018-1.015-1.077-2.217-1.616-3.608-1.616-0.619 0-1.196 0.111-1.729 0.331-0.534 0.221-1.065 0.582-1.592 1.083v-5.071h-2.678v14.688z" fill="#00acd7"/></g><path d="m1244 724.7h12.433v-67.083h-12.433z" fill="#00acd7"/><g transform="matrix(4.6083 0 0 4.6083 1266.7 707.17)"><path d="m0 0h2.728v-5.179c0-1.008 0.069-1.709 0.208-2.101s0.362-0.697 0.669-0.914 0.685-0.326 1.134-0.326c0.45 0 0.831 0.107 1.145 0.321s0.546 0.529 0.698 0.944c0.113 0.31 0.169 0.972 0.169 1.987v5.268h2.698v-4.557c0-1.878-0.148-3.163-0.445-3.854-0.362-0.844-0.896-1.491-1.601-1.943-0.705-0.451-1.601-0.677-2.688-0.677-1.18 0-2.134 0.264-2.862 0.791s-1.24 1.262-1.537 2.204c-0.211 0.652-0.316 1.839-0.316 3.558z" fill="#00acd7"/></g><g transform="matrix(4.6083 0 0 4.6083 1352.2 700.25)"><path d="m0 0-1.67-1.67c-0.679 0.672-1.295 1.008-1.849 1.008-0.303 0-0.54-0.064-0.711-0.193-0.172-0.128-0.257-0.288-0.257-0.479 0-0.145 0.054-0.279 0.163-0.401 0.108-0.122 0.377-0.288 0.805-0.499l0.989-0.494c1.041-0.514 1.756-1.038 2.144-1.572 0.389-0.533 0.584-1.159 0.584-1.878 0-0.955-0.351-1.752-1.053-2.392-0.702-0.639-1.642-0.958-2.822-0.958-1.568 0-2.82 0.613-3.756 1.838l1.661 1.809c0.316-0.369 0.687-0.667 1.112-0.895 0.425-0.227 0.802-0.341 1.131-0.341 0.356 0 0.643 0.086 0.86 0.257 0.218 0.172 0.327 0.369 0.327 0.593 0 0.416-0.393 0.821-1.177 1.216l-0.909 0.455c-1.74 0.876-2.609 1.973-2.609 3.291 0 0.85 0.327 1.577 0.983 2.18s1.494 0.904 2.516 0.904c0.698 0 1.355-0.153 1.971-0.459 0.616-0.307 1.138-0.747 1.567-1.32" fill="#00acd7"/></g><g fill="#fff"><g transform="matrix(4.6083 0 0 4.6083 1411.1 712.75)"><path d="m0 0-1.027 2.594h-10.669v-2.594h4.167v-11.964h2.715v11.964z" fill="#fff"/></g><g transform="matrix(4.6083 0 0 4.6083 1445.6 724.71)"><path d="m0 0-4.256-10.754-2.156 5.445h-3.041l3.662-9.251h3.07l5.762 14.56z" fill="#fff"/></g></g><g transform="matrix(4.6083 0 0 4.6083 945.77 866.92)"><path d="m0 0c-3.51 0-6.828-1.629-9.345-4.587-0.26-0.306-0.515-0.637-0.764-0.988 0.8 0.693 1.712 1.286 2.7 1.748 1.481 0.686 3.131 1.069 4.854 1.069 1.392 0 2.724-0.25 3.956-0.708 1.43-0.612 2.511-1.564 3.286-2.711h6.228c-2.053 3.755-6.328 6.177-10.915 6.177" fill="#00acd7"/></g><g fill="#fff"><path d="m1204.1 736.19h-19.516v73.724h19.516z"/><g transform="matrix(4.6083 0 0 4.6083 1206.4 828.9)"><path d="m0 0c0-1.441-1.169-2.61-2.61-2.61s-2.61 1.169-2.61 2.61 1.169 2.61 2.61 2.61 2.61-1.169 2.61-2.61" fill="#fff"/></g><g transform="matrix(4.6083 0 0 4.6083 1265.7 809.91)"><path d="m0 0v-12.157c-0.69-0.444-1.488-0.703-2.341-0.703-2.302 0-3.725 1.73-3.782 3.491v9.369h-4.074v-10.681c2e-3 -3.07 2.304-5.877 7.105-5.877 2.701 0 5.474 1.044 7.165 2.581h1e-3v13.977z" fill="#fff"/></g><g transform="matrix(4.6083 0 0 4.6083 1123.5 736.19)"><path d="m0 0v12.157c0.69 0.444 1.488 0.703 2.34 0.703 2.302 0 3.725-1.73 3.783-3.491v-9.369h4.074v10.681c-2e-3 3.07-2.304 5.877-7.105 5.877-2.701 0-5.474-1.044-7.165-2.581h-1e-3v-13.977z" fill="#fff"/></g><g transform="matrix(4.6083 0 0 4.6083 1039.1 780.26)"><path d="m0 0c0.241 1.86 1.978 3.303 4.006 3.303 2.029 0 3.634-1.443 3.856-3.303zm4.148 6.848c-5.006-0.025-8.459-3.568-8.459-8.39 0-4.984 3.43-8.39 8.459-8.39 2.69 0 5.365 0.858 7.176 2.26l-2.166 2.704h-1e-3c-1.337-0.971-3.436-1.491-5.285-1.302-1.94 0.2-3.434 1.213-3.895 3.186h11.882c2e-3 6e-3 3e-3 0.011 3e-3 0.011 0.09 0.493 0.123 1.012 0.14 1.531 0.161 4.969-3.22 8.413-7.854 8.39" fill="#fff"/></g><g transform="matrix(4.6083 0 0 4.6083 1335.4 779.47)"><path d="m0 0c-2.594 0.936-3.944 1.327-3.906 2.41 0.029 0.841 0.791 1.189 1.689 1.189 1.012 0 1.68-0.292 2.14-0.522 0.461-0.23 0.837-0.583 0.837-0.583l2.812 2.279s-2.007 2.317-5.728 2.317c-2.824 0-5.947-1.412-5.947-4.796 0-3.207 2.571-4.22 4.458-4.88 1.888-0.66 3.4-1.175 3.315-2.148-0.092-1.055-0.994-1.469-2.083-1.469-1.077 0-2.768 0.481-3.83 1.708 0 0-0.098 0.105-0.369 0.512l-2.798-2.257c0.023-0.038 0.041-0.065 0.041-0.065 0.158-0.255 2.256-3.489 6.752-3.489 4.681 0 6.511 2.727 6.511 4.876 0 2.455-1.301 3.982-3.894 4.918" fill="#fff"/></g><g transform="matrix(4.6083 0 0 4.6083 1014.9 809.36)"><path d="m0 0-0.012 0.12h-13.513l-3.603-4.369h11.851c-1.37-5.075-5.993-8.814-11.501-8.814-6.586 0-11.925 5.43-11.925 11.925 0 4.031 1.438 7.376 3.67 9.975 2.692 3.137 6.248 4.864 10.011 4.864 5.322 0 10.22-3.031 12.251-7.388h1.33c-2.554 5.637-8.341 9.431-15.113 9.431-0.093 0-0.187 0-0.28-1e-3 -9.46-0.147-16.871-7.562-16.871-16.88 0-9.309 7.572-16.881 16.88-16.881 9.307 0 16.88 7.572 16.88 16.881 0 0.386-0.025 0.763-0.055 1.137" fill="#fff"/></g></g></g></svg>
