<svg width="800" height="345.21" version="1.1" viewBox="0 0 800 345.21" xml:space="preserve" xmlns="http://www.w3.org/2000/svg"><g transform="matrix(3.4982 0 0 3.4982 1262.5 -1483.9)" fill="#9d9d9c" style="shape-inside:url(#rect889);white-space:pre" aria-label="trend"><path d="m-226.99 493.23h5.3125v7.832h3.1641v4.5898h-3.1641v16.66h-5.3125v-16.66h-2.7344v-4.5898h2.7344z"/><path d="m-216.89 501.06h4.5703v2.6758q0.74219-1.582 1.9727-2.4024 1.2305-0.82031 2.6953-0.82031 1.0352 0 2.168 0.54688l-1.6602 4.5898q-0.9375-0.46875-1.543-0.46875-1.2305 0-2.0898 1.5234-0.83984 1.5234-0.83984 5.9766l0.0195 1.0352v8.5938h-5.293z"/><path d="m-181.56 513.23h-17.129q0.3711 2.2656 1.9727 3.6133 1.6211 1.3281 4.1211 1.3281 2.9883 0 5.1367-2.0898l4.4922 2.1094q-1.6797 2.3828-4.0234 3.5352-2.3438 1.1328-5.5664 1.1328-5 0-8.1445-3.1445-3.1445-3.1641-3.1445-7.9102 0-4.8633 3.125-8.0664 3.1445-3.2227 7.8711-3.2227 5.0195 0 8.1641 3.2227 3.1445 3.2031 3.1445 8.4766zm-5.3516-4.1992q-0.52735-1.7774-2.0898-2.8906-1.543-1.1133-3.5938-1.1133-2.2266 0-3.9062 1.25-1.0547 0.78125-1.9531 2.7539z"/><path d="m-177.24 501.06h5.3125v2.168q1.8164-1.5234 3.2812-2.1094 1.4844-0.60547 3.0273-0.60547 3.1641 0 5.3711 2.207 1.8555 1.875 1.8555 5.5469v14.043h-5.2734v-9.3164q0-3.8086-0.35156-5.0586-0.33203-1.25-1.1914-1.8945-0.83985-0.66406-2.0898-0.66406-1.6211 0-2.793 1.0938-1.1523 1.0742-1.6016 2.9883-0.23437 0.9961-0.23437 4.3164v8.5352h-5.3125z"/><path d="m-137.53 492.86h5.3125v29.453h-5.3125v-2.2461q-1.5625 1.4844-3.1445 2.1484-1.5625 0.64453-3.3984 0.64453-4.1211 0-7.1289-3.1836-3.0078-3.2031-3.0078-7.9492 0-4.9219 2.9102-8.0664t7.0703-3.1445q1.9141 0 3.5938 0.72266 1.6797 0.72265 3.1055 2.168zm-5.6055 12.578q-2.4805 0-4.1211 1.7578-1.6406 1.7383-1.6406 4.4726 0 2.7539 1.6602 4.5312 1.6797 1.7774 4.1211 1.7774 2.5195 0 4.1797-1.7383 1.6602-1.7578 1.6602-4.5898 0-2.7734-1.6602-4.4922t-4.1992-1.7188z"/></g><g transform="matrix(7.0426 0 0 -7.0426 131.72 22.913)"><path d="m0 0c-3.51 0-6.828-1.629-9.345-4.587-0.26-0.306-0.515-0.637-0.764-0.988 0.8 0.693 1.712 1.286 2.7 1.748 1.481 0.686 3.131 1.069 4.854 1.069 1.392 0 2.724-0.25 3.956-0.708 1.43-0.612 2.511-1.564 3.286-2.711h6.228c-2.053 3.755-6.328 6.177-10.915 6.177" fill="#9d9d9c"/></g><g transform="matrix(1.1462 0 0 1.1462 .029406 -.051908)"><path d="m459.33 194.34h-26.021v-98.296h26.021z" fill="#113e74" stroke-width="1.3333"/><g transform="matrix(6.1442 0 0 -6.1442 462.39 70.728)"><path d="m0 0c0-1.441-1.169-2.61-2.61-2.61s-2.61 1.169-2.61 2.61 1.169 2.61 2.61 2.61 2.61-1.169 2.61-2.61" fill="#113e74"/></g><g transform="matrix(6.1442 0 0 -6.1442 541.46 96.047)"><path d="m0 0v-12.157c-0.69-0.444-1.488-0.703-2.341-0.703-2.302 0-3.725 1.73-3.782 3.491v9.369h-4.074v-10.681c2e-3 -3.07 2.304-5.877 7.105-5.877 2.701 0 5.474 1.044 7.165 2.581h1e-3v13.977z" fill="#113e74"/></g><g transform="matrix(6.1442 0 0 -6.1442 351.86 194.34)"><path d="m0 0v12.157c0.69 0.444 1.488 0.703 2.34 0.703 2.302 0 3.725-1.73 3.783-3.491v-9.369h4.074v10.681c-2e-3 3.07-2.304 5.877-7.105 5.877-2.701 0-5.474-1.044-7.165-2.581h-1e-3v-13.977z" fill="#113e74"/></g><g transform="matrix(6.1442 0 0 -6.1442 239.33 135.58)"><path d="m0 0c0.241 1.86 1.978 3.303 4.006 3.303 2.029 0 3.634-1.443 3.856-3.303zm4.148 6.848c-5.006-0.025-8.459-3.568-8.459-8.39 0-4.984 3.43-8.39 8.459-8.39 2.69 0 5.365 0.858 7.176 2.26l-2.166 2.704h-1e-3c-1.337-0.971-3.436-1.491-5.285-1.302-1.94 0.2-3.434 1.213-3.895 3.186h11.882c2e-3 6e-3 3e-3 0.011 3e-3 0.011 0.09 0.493 0.123 1.012 0.14 1.531 0.161 4.969-3.22 8.413-7.854 8.39" fill="#113e74"/></g><g transform="matrix(6.1442 0 0 -6.1442 634.39 136.63)"><path d="m0 0c-2.594 0.936-3.944 1.327-3.906 2.41 0.029 0.841 0.791 1.189 1.689 1.189 1.012 0 1.68-0.292 2.14-0.522 0.461-0.23 0.837-0.583 0.837-0.583l2.812 2.279s-2.007 2.317-5.728 2.317c-2.824 0-5.947-1.412-5.947-4.796 0-3.207 2.571-4.22 4.458-4.88 1.888-0.66 3.4-1.175 3.315-2.148-0.092-1.055-0.994-1.469-2.083-1.469-1.077 0-2.768 0.481-3.83 1.708 0 0-0.098 0.105-0.369 0.512l-2.798-2.257c0.023-0.038 0.041-0.065 0.041-0.065 0.158-0.255 2.256-3.489 6.752-3.489 4.681 0 6.511 2.727 6.511 4.876 0 2.455-1.301 3.982-3.894 4.918" fill="#113e74"/></g><g transform="matrix(6.1442 0 0 -6.1442 207.07 96.78)"><path d="m0 0-0.012 0.12h-13.513l-3.603-4.369h11.851c-1.37-5.075-5.993-8.814-11.501-8.814-6.586 0-11.925 5.43-11.925 11.925 0 4.031 1.438 7.376 3.67 9.975 2.692 3.137 6.248 4.864 10.011 4.864 5.322 0 10.22-3.031 12.251-7.388h1.33c-2.554 5.637-8.341 9.431-15.113 9.431-0.093 0-0.187 0-0.28-1e-3 -9.46-0.147-16.871-7.562-16.871-16.88 0-9.309 7.572-16.881 16.88-16.881 9.307 0 16.88 7.572 16.88 16.881 0 0.386-0.025 0.763-0.055 1.137" fill="#113e74"/></g></g></svg>
