<!DOCTYPE svg  PUBLIC '-//W3C//DTD SVG 1.0//EN'  'http://www.w3.org/TR/2001/REC-SVG-20010904/DTD/svg10.dtd' [
<!ENTITY ns_flows "http://ns.adobe.com/Flows/1.0/">
<!ENTITY ns_extend "http://ns.adobe.com/Extensibility/1.0/">
<!ENTITY ns_ai "http://ns.adobe.com/AdobeIllustrator/10.0/">
<!ENTITY ns_graphs "http://ns.adobe.com/Graphs/1.0/">
<!ENTITY ns_vars "http://ns.adobe.com/Variables/1.0/">
<!ENTITY ns_imrep "http://ns.adobe.com/ImageReplacement/1.0/">
<!ENTITY ns_sfw "http://ns.adobe.com/SaveForWeb/1.0/">
<!ENTITY ns_custom "http://ns.adobe.com/GenericCustomNamespace/1.0/">
<!ENTITY ns_adobe_xpath "http://ns.adobe.com/XPath/1.0/">
<!ENTITY ns_svg "http://www.w3.org/2000/svg">
<!ENTITY ns_xlink "http://www.w3.org/1999/xlink">
]>
<svg enable-background="new 0 0 487.621 243.559" overflow="visible" viewBox="0 0 487.62 243.56" xml:space="preserve" xmlns="http://www.w3.org/2000/svg">
		<g fill="#78B420">
					<path d="M55.308,212.747H45.261v-2.843h23.671v2.843H58.847v30.124h-3.539V212.747z"/>
					<path d="m106.08 227.1h-11.517v12.99h17.261v2.777h-20.828v-32.967h20.094v2.843h-16.527v11.486h11.518v2.871z"/>
					<path d="m192.12 227.1h-11.518v12.99h17.261v2.777h-20.828v-32.967h20.094v2.843h-16.527v11.486h11.518v2.871z"/>
					<path d="m135.32 209.9h3.652v30.189h15.59v2.777h-19.242v-32.966z"/>
					<path d="m237.48 209.9h3.508l-10.296 32.967h-3.191l-10.203-32.967h3.41l8.292 27.818 8.48-27.818z"/>
					<path d="m343.13 209.9v32.967h-3.735v-32.967h3.735z"/>
					<path d="m267.36 209.9v32.967h-3.735v-32.967h3.735z"/>
					<path d="m380.23 243.41c-7.547 0-12.775-6.75-12.775-16.728 0-10.468 5.565-17.315 13.155-17.315 7.8 0 12.818 6.896 12.818 16.679 0 11.299-5.945 17.364-13.156 17.364h-0.042zm0.212-2.7c6.14 0 9.611-6.566 9.611-14.477 0-6.93-3.115-14.168-9.567-14.168s-9.654 6.98-9.654 14.528c0 7.343 3.471 14.116 9.566 14.116h0.044z"/>
					<path d="m420.1 242.87h-3.005v-32.967h4.912l15.013 26.302v-26.302h2.981v32.967h-2.852l-17.05-30.124v30.124z"/>
					<path d="m302.25 209.37c5.824 0 9.808 3.541 10.938 8.062l-3.188 0.625c-0.827-2.858-3.231-5.812-7.75-5.812-3.645 0-6.375 2.074-6.375 5.25 0 2.971 2.889 4.617 9.188 6.938 6.014 2.216 9.625 4.346 9.625 9.812 0 5.917-4.75 9.312-11.25 9.312-5.828 0-9.809-3.808-11.5-8.375l3.125-1.312c1.797 3.921 4.234 6.812 8.625 6.812 4.25 0 7.438-2.148 7.438-6.062 0-3.759-2.328-5.076-8.625-7.438-5.335-2.001-10.125-4.063-10.125-9.312-1e-3 -4.182 4.106-8.5 9.874-8.5z"/>
				<path d="m172.12 4.372 2.125 55-2.125 0.25c-5.625-28.125-34.022-48.75-69.375-48.75-33.649 0-72.5 24.708-72.5 85.75 0 52.637 37.447 82.5 75.375 82.5 17.313 0 39.125-7.011 39.125-19.25v-41.875c0-22.711-1.763-27.492-21.75-28.08l-0.25-2.17 71.75-0.29v2.415c-16-1-22.625 6.881-22.625 23.767v55.483c0 3.861-37.938 18-67.375 18-57.02 0-104.5-38.317-104.5-91.25 0-47.329 43.972-94 100.25-94 29.875 0 51.75 13.25 59.75 13.25 5.156 0 9.468-5.436 10-10.75h2.125z"/>
				<path d="m170 4.372 141.12-0.25v37.625h-1.375c-4.625-23.5-12.907-28.875-43.125-28.875h-35.25c-6.667 0-10 2.292-10 10.125v63.625h43.5c23.139 0 25.5-3.75 29.625-25h1.5v58h-1.25c-2.75-17.75-7.143-24.875-30.75-24.875h-42.5v71.375c0 8.082 2.41 10.125 15.75 10.125h43.625c24.062 0 30.444-6.261 43.5-30.125l2.3 1.375-13.55 38.25h-141.12v-0.875c15.75-3.625 21.875-2.376 21.875-22.625v-127.12c0-23.026-6.815-27.063-23.125-28.75l-0.75-2z"/>
					<path d="m396.88 0.122c47.262 0 90.625 33.417 90.625 93.625 0 63.426-47.533 93.75-91.75 93.75-49.7 0-87.375-38.949-87.375-93.75 0-57.102 40.067-93.625 88.5-93.625zm-57.75 94.25c0 57.685 26.666 83.403 57.5 83.403 34.571 0 59.835-27.359 59.835-84.278 0-66.801-32.986-83.693-59.585-83.693-31.112-1e-3 -57.75 25.342-57.75 84.568z"/>
		</g>
	</svg>
