<svg width="282.93pt" height="80.267pt" version="1.1" viewBox="0 0 282.93 80.267" xmlns="http://www.w3.org/2000/svg">
 <g transform="matrix(.42837 0 0 .42837 .64897 -.052258)">
  <path d="m172.12 4.372 2.125 55-2.125 0.25c-5.625-28.125-34.022-48.75-69.375-48.75-33.649 0-72.5 24.708-72.5 85.75 0 52.637 37.447 82.5 75.375 82.5 17.313 0 39.125-7.011 39.125-19.25v-41.875c0-22.711-1.763-27.492-21.75-28.08l-0.25-2.17 71.75-0.29v2.415c-16-1-22.625 6.881-22.625 23.767v55.483c0 3.861-37.938 18-67.375 18-57.02 0-104.5-38.317-104.5-91.25 0-47.329 43.972-94 100.25-94 29.875 0 51.75 13.25 59.75 13.25 5.156 0 9.468-5.436 10-10.75z" fill="#78b420"/>
  <path d="m170 4.372 141.12-0.25v37.625h-1.375c-4.625-23.5-12.907-28.875-43.125-28.875h-35.25c-6.667 0-10 2.292-10 10.125v63.625h43.5c23.139 0 25.5-3.75 29.625-25h1.5v58h-1.25c-2.75-17.75-7.143-24.875-30.75-24.875h-42.5v71.375c0 8.082 2.41 10.125 15.75 10.125h43.625c24.062 0 30.444-6.261 43.5-30.125l2.3 1.375-13.55 38.25h-141.12v-0.875c15.75-3.625 21.875-2.376 21.875-22.625v-127.12c0-23.026-6.815-27.063-23.125-28.75z" fill="#78b420"/>
  <path d="m396.88 0.122c47.262 0 90.625 33.417 90.625 93.625 0 63.426-47.533 93.75-91.75 93.75-49.7 0-87.375-38.949-87.375-93.75 0-57.102 40.067-93.625 88.5-93.625zm-57.75 94.25c0 57.685 26.666 83.403 57.5 83.403 34.571 0 59.835-27.359 59.835-84.278 0-66.801-32.986-83.693-59.585-83.693-31.112-1e-3 -57.75 25.342-57.75 84.568z" fill="#78b420"/>
 </g>
 <g transform="translate(-16.144 -26.693)" fill="#78b420">
  <path transform="scale(.75)" d="m316.15 37.34v51.006h5.7989v-24.238h24.098v24.238h5.7989v-51.006h-2e-3l-5.7969-1.56e-4v21.82h-24.098v-21.82h-5.7949z" stroke-width="1.3333"/>
  <path d="m271.61 28.005h8.5062c4.2098 0 8.3575 0.39204 11.924 2.845 5.53 3.72 7.03 9.7158 7.03 17.19-0.05 6.15-2.55 12.81-8.15 15.94-3.4663 1.9816-7.3384 2.2802-11.254 2.2802h-8.0558m4.28-34.55v30.83h5.0915c2.9793 0 5.9275-0.35664 8.4485-2.0902 4.02-2.69 5.25-7.86 5.35-12.43 0.12-4.95-0.69-10.68-4.85-13.92-2.5531-1.9787-5.6478-2.39-8.7779-2.39z"/>
 </g>
</svg>
