<svg width="800" height="87.688" version="1.1" viewBox="0 0 800 87.688" xmlns="http://www.w3.org/2000/svg">
 <path class="cls-2" d="m47.642-1.936e-6h376.05l-47.642 87.688h-376.05" fill="#ff1818" stroke-width=".62099"/>
 <path d="m423.69-1.936e-6h376.31l-47.642 87.688h-376.31" stroke-width=".62099"/>
 <path d="m161.84 50.67c-0.43264 0.35917-0.60406 0.77548-0.8163 1.1428-1.1836 2.106-2.3428 4.2284-3.5182 6.3344-1.3795 2.457-2.7754 4.9222-4.1631 7.3793-1.8938 3.3713-3.7876 6.7344-5.6814 10.114-0.42447 0.75098-0.88975 1.4938-1.2408 2.2856-0.25305 0.55508-0.58773 0.67753-1.1591 0.67753-6.2936-0.0163-43.108-0.0163-55.222-8e-3 -2.6774 0-5.363 0.0163-8.016-0.31835-3.0774-0.38366-6.1222-0.93874-9.118-1.7714-2.6203-0.7265-5.1753-1.6163-7.6568-2.7264-4.4978-1.9999-8.4813-4.7263-11.689-8.465-2.3509-2.7427-4.0488-5.8773-5.1263-9.371-1.3224-4.2447-1.7142-8.5711-1.3142-12.971 0.45713-4.9876 1.9591-9.6486 4.5957-13.942 2.2693-3.706 5.1263-6.8895 8.6445-9.4363 2.3917-1.7387 4.9631-3.159 7.7711-4.1876 1.7714-0.64487 3.5754-1.2 5.4039-1.5754 2.2938-0.47344 4.6447-0.49794 6.9875-0.49794 26.734 0.0163 53.467 8e-3 80.201 8e-3h0.82446c0.19591 0 0.42447-0.13877 0.55508 0.0653 0.13876 0.22857-0.0653 0.43264-0.16326 0.62039-0.77548 1.404-5.9018 10.416-7.6078 13.55-0.39182 0.71017-0.7918 0.86526-1.5591 0.8571-5.2406-0.049-10.481-0.0245-15.722-0.0245-7.5262 0-15.052 8e-3 -22.57 0-0.53875 0-0.7918 0.18775-1.053 0.67753-1.2898 2.3917-18.538 33.101-19.64 35.068-0.10612 0.18775-0.26938 0.35917-0.25305 0.62038 0.22856 0.13877 0.48161 0.0653 0.71833 0.0653 3.7876 8e-3 12.171-0.10612 12.595-0.0163 0.39998 0.0735 0.47345-0.39183 0.62038-0.63672 0.9469-1.6326 13.82-24.399 14.228-25.574 0.26938-0.75099 0.97138-1.1265 2.0244-1.0938 4.359 0.12244 29.64 0.0163 37.917 0.0327 0.71018 0 1.1102 0.0163 1.3224-0.93875 0.43264-1.9346 1.2979-3.7386 2.204-5.5181 0.95506-1.8693 2.0489-3.6325 3.3141-5.2896 1.804-2.3672 3.959-4.3916 6.3426-6.1712 2.2693-1.6979 4.759-3.0121 7.3711-4.0815 1.7877-0.73466 3.6733-1.2244 5.5753-1.5999 2.3672-0.47344 4.7508-0.60405 7.1507-0.60405 16.195 8e-3 32.407 0 48.602 0.0245 3.7386 0 7.3874 0.70201 10.971 1.755 4.6774 1.3795 8.8649 3.657 12.661 6.7262 1.1918 0.96323 2.3672 1.9999 3.2978 3.1346 1.4448 1.7469 2.8652 3.559 3.91 5.6161 0.53059 1.053 1.004 2.1387 1.551 3.1917 0.9469 1.7877 1.2 3.7794 1.8122 5.7875 0.65304-1.1591 13.159-23.624 14.497-26.032 0.13061-0.2204 0.26938-0.20407 0.59589-0.21223 0.87344-0.0163 0.57957-0.0163 0.87344-0.0163h48.153c1.551 0 1.5591 8e-3 0.79997 1.3469-1.9591 3.4937-20.407 36.382-22.775 40.578-0.2857 0.48978-0.52243 1.004-0.80813 1.4938-0.20407 0.36734-0.0735 0.4408 0.26938 0.41631 0.17142-0.0163 0.351 0 0.53059 0h52.969c0.79182 0 0.82448 0.049 0.45711 0.71834-0.47344 0.87343-9.3874 16.767-11.265 20.122-0.18779 0.32652-0.34285 0.57957-0.83262 0.5714-20.138-0.0163-40.276-0.0163-60.414-0.0163-2.1632 0-4.2284-0.45712-6.2528-1.2081-2.5468-0.93874-4.808-2.3754-6.9466-4.0162-1.7142-1.3142-3.2162-2.857-4.6447-4.4733-2.0979-2.3917-3.8284-5.0202-5.2406-7.869-0.54692-1.0857-1.0122-2.2122-1.5836-3.4611-0.13061 1.0449-0.65304 1.8203-0.97139 2.6856-0.27754 0.75099-0.88976 1.5101-1.3224 2.2774-1.404 2.506-3.1917 4.7508-5.2161 6.7344-2.7836 2.7182-5.9753 4.9141-9.5833 6.514-2.3346 1.0285-4.7182 1.8203-7.1997 2.3101-2.0816 0.41631-4.2039 0.53875-6.3344 0.53875-15.322-8e-3 -30.644 0-45.974 0-4.4896 0-8.8568-0.86527-13.175-2.0326-2.8244-0.75916-5.5263-1.8856-8.1466-3.1917-3.5917-1.7958-6.8242-4.106-9.469-7.1099-3.0529-3.4611-5.1671-7.4691-6.163-12.024-0.30203-1.1346-0.57141-2.2856-0.71017-3.559zm74.47-24.219h-13.028c-0.35917 0-0.75099-0.0571-0.98771 0.36733-1.2898 2.3264-21.158 37.558-21.036 37.835 0.16326 0.36733 0.62854 0.19591 0.96322 0.19591 3.8366 8e-3 7.6732 0.0327 11.51 0.0327 0.84078 0 1.2244-0.30203 1.5836-0.98771 1.2653-2.3509 20.203-36.154 20.995-37.443z" fill="#fff" stroke-width=".8163"/>
 <g transform="matrix(.62336 0 0 .62336 273.39 -351.97)" fill="#fd1818">
  <path d="m608.3 579.67h13.15l-8.55 113.9h-15.987l1.9775-26.825h-63.53l-27.02 26.825h-16.237zm-59.89 74.11h51.5l4.08-54.46z"/>
  <path d="m313.83 579.67h52.44c9.8281 0 18.35 1.29 24.92 7.53 5.36 5.13 5.5 13.24 3.94 20.01-3.7 13.21-13.07 24.14-23.98 32.12-7.91 6.15-17.32 10.08-26.82 13.05-5.5518 1.5426-9.9974 2.48-17.048 2.48h-38.592l-21.5 38.715h-14.68m43.72-51.675h38.98c7.5403 0 14.63-2.91 21.23-6.24 8.7-5.1 17.22-11.78 21-21.46 2.22-5.23 2.3945-11.316-1.57-16.61-3.31-3.92-8.79-4.44-13.58-4.69h-40.26z"/>
  <path d="m435.82 579.67h15.129l-54.709 101.03h81.07l-6.02 12.875h-97.569z"/>
  <path d="m660.72 579.67h17.398l7.7425 57.19 69.18-57.19h16.701l-86.372 70.91-23.191 42.995h-15.798l23.908-44.053z"/>
 </g>
</svg>
