<svg version="1.1" viewBox="0 0 224 32" xmlns="http://www.w3.org/2000/svg">
 <path d="m56.236 18.232c-0.21102 0.17519-0.29464 0.37825-0.39816 0.55742-0.57733 1.0272-1.1427 2.0624-1.716 3.0897-0.67288 1.1984-1.3537 2.4009-2.0306 3.5993-0.92372 1.6444-1.8474 3.2848-2.7712 4.9331-0.20704 0.3663-0.43399 0.72862-0.6052 1.1148-0.12343 0.27075-0.28667 0.33047-0.56538 0.33047-3.0698-8e-3 -21.027-8e-3 -26.935-4e-3 -1.306 0-2.6159 8e-3 -3.9099-0.15528-1.501-0.18713-2.9862-0.45788-4.4474-0.864-1.2781-0.35436-2.5243-0.78835-3.7347-1.3298-2.1938-0.97548-4.1368-2.3053-5.7016-4.1289-1.1467-1.3378-1.9748-2.8667-2.5004-4.5708-0.64501-2.0704-0.83613-4.1806-0.64103-6.3267 0.22296-2.4327 0.95557-4.7062 2.2416-6.8005 1.1069-1.8076 2.5004-3.3604 4.2165-4.6027 1.1666-0.84807 2.4208-1.5409 3.7904-2.0425 0.86399-0.31454 1.7439-0.58529 2.6358-0.76844 1.1188-0.23093 2.2655-0.24288 3.4082-0.24288 13.04 8e-3 26.079 4e-3 39.119 4e-3h0.40214c0.09556 0 0.20704-0.06769 0.27075 0.03185 0.06769 0.11148-0.03185 0.21102-0.07963 0.3026-0.37825 0.68483-2.8787 5.0805-3.7108 6.6094-0.19111 0.3464-0.38621 0.42204-0.76048 0.41806-2.5562-0.02389-5.1123-0.01195-7.6685-0.01195-3.671 0-7.342 4e-3 -11.009 0-0.26278 0-0.38621 0.09158-0.51362 0.33047-0.62909 1.1666-9.0421 16.145-9.5796 17.105-0.0518 0.09158-0.13139 0.17519-0.12343 0.3026 0.11148 0.06769 0.23491 0.03185 0.35038 0.03185 1.8474 4e-3 5.9365-0.05176 6.1435-8e-3 0.19509 0.03583 0.23093-0.19112 0.30259-0.31056 0.46186-0.79631 6.7408-11.901 6.9398-12.474 0.13139-0.3663 0.47381-0.54946 0.98743-0.53353 2.1262 0.05972 14.457 8e-3 18.494 0.01593 0.3464 0 0.54149 8e-3 0.64501-0.45788 0.21102-0.94363 0.63307-1.8236 1.075-2.6915 0.46584-0.91178 0.99937-1.7718 1.6165-2.58 0.87992-1.1547 1.9311-2.1421 3.0937-3.0101 1.1069-0.82816 2.3212-1.4692 3.5953-1.9908 0.87196-0.35834 1.7917-0.59723 2.7194-0.78038 1.1547-0.23093 2.3173-0.29464 3.4878-0.29464 7.8994 4e-3 15.807 0 23.706 0.01194 1.8236 0 3.6033 0.34241 5.3512 0.85604 2.2814 0.67288 4.324 1.7837 6.1754 3.2808 0.5813 0.46982 1.1546 0.97548 1.6085 1.5289 0.70474 0.85205 1.3975 1.736 1.9072 2.7393 0.2588 0.51362 0.48973 1.0432 0.75649 1.5568 0.46186 0.87196 0.58529 1.8435 0.88391 2.8229 0.31852-0.56538 6.4183-11.523 7.0712-12.697 0.0637-0.1075 0.13139-0.09954 0.29065-0.10352 0.42603-8e-3 0.28269-8e-3 0.42603-8e-3h23.487c0.7565 0 0.76048 4e-3 0.39019 0.65696-0.95557 1.7041-9.9539 17.746-11.109 19.792-0.13936 0.23889-0.25482 0.48973-0.39418 0.72862-0.0995 0.17917-0.0358 0.215 0.13139 0.20306 0.0836-8e-3 0.17121 0 0.25881 0h25.836c0.38621 0 0.40214 0.02389 0.22297 0.35038-0.23093 0.42603-4.5788 8.1781-5.4946 9.8145-0.0916 0.15926-0.16722 0.28269-0.40612 0.27871-9.8225-8e-3 -19.645-8e-3 -29.467-8e-3 -1.0551 0-2.0624-0.22297-3.0499-0.58927-1.2422-0.45788-2.3451-1.1586-3.3883-1.9589-0.83612-0.64103-1.5687-1.3935-2.2655-2.1819-1.0233-1.1666-1.8674-2.4487-2.5562-3.8382-0.26676-0.52955-0.49371-1.079-0.77242-1.6882-0.0637 0.50964-0.31853 0.88789-0.47381 1.3099-0.13537 0.3663-0.43399 0.73659-0.64501 1.1109-0.68483 1.2223-1.5568 2.3173-2.5442 3.2848-1.3577 1.3259-2.9145 2.3969-4.6743 3.1773-1.1387 0.50168-2.3013 0.88789-3.5117 1.1268-1.0153 0.20306-2.0505 0.26278-3.0897 0.26278-7.4734-4e-3 -14.947 0-22.424 0-2.1899 0-4.32-0.42204-6.4262-0.99141-1.3776-0.37022-2.6955-0.91968-3.9736-1.5567-1.7519-0.87594-3.3286-2.0027-4.6186-3.4679-1.4891-1.6882-2.5203-3.6431-3.0061-5.8648-0.14732-0.55344-0.27871-1.1148-0.3464-1.736zm36.324-11.813h-6.3546c-0.17519 0-0.3663-0.02787-0.48177 0.17917-0.62909 1.1347-10.32 18.319-10.26 18.455 0.07963 0.17917 0.30658 0.09556 0.46982 0.09556 1.8713 4e-3 3.7427 0.01593 5.614 0.01593 0.4101 0 0.59723-0.14732 0.77242-0.48177 0.61714-1.1467 9.8543-17.634 10.241-18.263z" fill="#999" stroke-width=".39816"/>
 <path d="m208.17 8.12h-5.0983l-2.0797 14.886h5.0929c3.3225 0 3.8591-1.413 5.1261-7.71 1.366-6.787-2.249-7.176-3.041-7.176z" fill="#a52b31"/>
 <path d="m219.27-5e-4 -48.656 5e-4c-4.278 4.3962e-5 -4.283 3.527-4.283 3.527l-3.779 24.162c-0.779 4.162 3.371 4.303 3.371 4.303h49.704c3.345 0 3.986-3.242 3.986-3.242l4.014-24.028c0.69794-4.6178-1.1813-4.7215-4.356-4.7215zm-29.813 27.442h-4.837l1.489-10.206h-8.745l-1.68 10.206h-5.024l3.527-24h5.397l-1.423 9.0225h8.314l1.542-9.022h5.155zm26.706-14.419c-1.5072 9.3242-1.1377 14.419-11.108 14.419h-9.5722l3.454-24h9.466c1.8866 0 9.0877 0.28455 7.768 9.581z" fill="#a52b31"/>
</svg>
