<svg width="469.62" height="800" version="1.1" viewBox="0 0 124.25 211.67" xmlns="http://www.w3.org/2000/svg">
 <g transform="translate(23.95 51.008)">
  <path d="m65.666-51.008c0.47363 0.23717 0.9472 0.47345 1.4208 0.23717 0.47363 0 0.71045-0.23717 1.184-0.23717 0.71045 0 2.368 0.23717 2.8416 0.71063 0.47363 0.47345 0.47363 0.94717 0.47363 1.6576 0.47363 0.23717 0.94721 0.23717 1.4208 0.71063 0.23682 0.47345 0.71045 1.184 0.94721 1.8944 0.23682 0.71063 0.71045 1.4208 0.71045 2.1312 0.47363 0.47345 0.71045 0.94726 0.9472 1.6576v1.184c0 0.23717 0.23682 0.71063 0.47363 1.1841 0.47363 1.184 0.9472 2.6048 1.184 3.7888 0.47363 1.6576 0.94721 3.552 1.4208 5.2096 0.23682 0.71063 0.71045 1.184 0.94721 1.8944 0.71036 2.1312 1.184 4.2624 1.8944 6.3936 0.23682 1.1841 0.47363 2.3681 0.71045 3.5521s0.23682 2.368 0.47363 3.7888c0 0.47345 0.23682 0.71063 0.23682 1.184v0.94726c0 0.71063 0.71045 1.4208 0.47363 2.368-0.9472 1.184-2.1312 2.1313-3.552 3.0784-1.4208 0.71063-2.8416 1.6576-4.2624 2.368-1.4208 0.71063-2.6048 1.6576-4.0256 2.6048-1.4208 0.94726-3.0784 1.1841-4.4992 2.1313 0.9472 0.94717 1.8944 1.8944 2.8416 2.8416 0.9472 0.94717 2.1312 1.8944 3.0784 2.8416 2.1312 1.8944 4.736 2.8416 6.6304 4.9728 1.6576 1.8944 3.3152 4.4992 4.736 6.8673 1.184 1.8943 2.1312 3.7888 3.0784 5.6832 0.23682 0.71063 0.71036 1.184 1.184 1.8943 0.71045 1.4208 0.94721 3.0784 1.4208 4.4992 0.47363 1.4208 1.6576 3.5521 3.0784 4.2624 0.47363 0.23717 0.71036 0 0.9472 0.23717 0.47363 0.23717 0.71045 0.94717 0.9472 1.4208 0.23682 0.47345 0 0.94717 0.23682 1.4208 0 0.47345 0.47363 0.94717 0.47363 1.4208 0.71036 1.4208 1.184 2.8416 1.6576 4.2624 0.23682 1.184 0.47363 2.1312 0.71036 3.3152 0.23682 1.184 0.47363 2.1312 0.71045 3.3152 0.23682 0.94726-0.23682 1.8944-0.23682 2.8416 0 1.8944 0.47363 3.7889 0.94721 5.4464 0.47363 1.8944 0.9472 3.7889 0.71045 5.6832 0 1.8944-0.47363 3.7889-0.71045 5.6832-0.23682 4.0257-0.71036 8.0513-0.71036 12.077 0 1.8944-0.47363 3.7888-0.71045 5.6832s-0.47363 3.7888-0.47363 5.92c-0.23682 1.8943-0.23682 4.4992-0.23682 6.3936 0 0.47345 0.23682 0.94726 0.23682 1.4208 0 0.47345-0.23682 0.71063-0.23682 1.184 0 0.47345 0.23682 0.94726 0.23682 1.1841 0.23682 5.6832-0.71045 11.13-1.4208 16.102-0.23682 0.94727-0.23682 1.6576-0.47363 2.6048 0 0.94726 0.23682 1.8944 0.23682 2.8416 0 1.4208-0.47363 3.0784-0.94721 4.736-0.47363 1.6576-0.71036 3.3152-0.71036 4.9729-0.23682 2.368-0.9472 4.9728-1.4208 6.8672-0.23682 0.71063-0.71036 1.6576-0.47363 2.1312 0 0.94726 1.184 1.184 1.184 2.1312 0.23682 1.8944-1.4208 2.8416-1.8944 4.2624 0.47363 1.184 1.184 2.368 1.184 4.4992-0.47363 1.184-1.4208 1.6575-2.368 2.368-1.184 0.94717-2.1312 1.4208-3.3152 2.368-0.47363 0.23717-0.9472 0.94726-1.6576 1.184-0.71045 0.23717-1.4208 0.23717-2.6048 0.47345-0.71036 0-1.6576 0.23717-2.6048 0.47345-1.6576 0.23718-3.7888 0.71063-5.2096 0.23718-0.9472-0.23718-1.8944-1.184-2.8416-1.4208-0.47363-0.23717-0.71045-0.23717-0.9472-0.47345-0.23682-0.47345 0-1.4208 0.23682-1.8944 0.47363-0.47345 1.6576-0.71063 2.368-1.184 0.47363-0.23717 0.9472-0.71063 1.4208-1.1841 1.4208-1.184 2.8416-2.6048 4.4992-3.3152-0.23682-1.4208 1.184-1.8944 1.184-2.8416 0-0.71063-0.71045-1.4208-0.47363-2.1313 0-0.47345 0.47363-0.94717 0.47363-1.4208 0-0.94717-0.23682-1.8944 0-2.8416 0-0.71063 0.47363-1.8944 0.71036-2.6048 0.23682-0.71062 0.9472-1.6576 0.9472-2.1312 0-1.1841-0.47363-2.6049-0.71036-4.0257-0.23682-1.4208-0.23682-2.8416-0.47363-4.2624-0.23682-1.4208-0.23682-2.8416-0.23682-4.2624v-4.4992c-0.47363-4.2624-0.23682-8.9985-0.23682-13.498 0-2.1312-0.47363-4.4992 0.23682-6.1569-0.23682-0.47345-0.23682-1.4208-0.71045-1.8943-1.4208 2.1312-2.368 4.9728-3.552 7.5776 0 0 0 0.23718-0.23682 0.23718-0.47363 1.1841-1.6576 2.1312-2.6048 3.3152-4.2624 5.92-8.0512 11.603-12.077 17.523-1.184 1.6576-2.6048 3.3152-4.0256 4.9728-0.47363 0.47346-1.184 1.4208-1.4208 1.4208h-0.9472c-0.47363 0-0.71036 0.23717-0.94721 0.23717-0.9472 0-1.6576-1.184-2.6048-1.184-0.47363 0.94718-0.94721 1.8944-1.4208 2.8416-0.47363 0.94718-1.184 1.8944-1.4208 2.8416-0.23682 1.184-0.47363 2.368-0.71045 3.7888-0.23682 0.47345-0.47363 0.94726-0.71045 1.6576-0.23682 0.47345-0.23682 1.184-0.47363 1.8944-0.47363 1.184-1.184 1.8944-2.1312 2.6048-0.47363 0.23718-0.71036 0.71063-1.184 0.71063-0.9472 0.47345-2.6048 0.23717-3.552 0-0.9472-0.47345-1.8944-1.6576-2.1312-2.6048-0.9472-2.368-1.184-6.1569-0.9472-9.2353 0.23682-1.6575 0.23682-3.0783 0.71045-4.4991 0.71036-1.8944 1.6576-3.3152 2.1312-5.4465 0.47363-2.6048 0.71036-4.736 2.1312-6.6304 0.47363-0.47345 1.184-1.184 1.6576-1.4208 0.47363 0 0.9472 0.23718 1.4208 0 0.71045-0.23717 1.4208-0.47345 1.8944-0.94717 1.6576-1.184 2.368-2.8416 3.3152-4.736 2.1312-4.9728 4.736-9.472 7.5776-13.734 1.184-1.8944 1.8944-3.5521 3.3152-4.4992 0.47363-0.47345 1.184-0.47345 1.8944-0.94717 0.71045-0.23717 1.8944-1.8944 1.8944-2.6049 0-0.23717 0-0.71063-0.23682-1.184 0-1.4208 0-2.8416-0.23682-4.0256-0.23682-1.8944 0-3.7888-0.23682-5.4464-0.23682-0.71063-0.71045-1.184-0.71045-1.8944-0.23682-0.71063-0.23682-1.8943-0.23682-2.6048 0-0.47345 0.23682-0.94717 0.23682-1.4208 0-0.47345-0.47363-1.184-0.71045-1.8944-0.23682-0.71063-0.47363-1.4208-0.47363-2.1312 0-0.47345 0.23682-1.184 0.23682-1.6576 0-1.4208-0.9472-2.1312-0.71045-3.7888 0-0.71063 0.71045-1.184 0.71045-1.6576 0-0.23717-0.71045-1.184-1.184-1.6576-0.47363-0.47345-0.9472-1.4208-0.9472-1.8944-0.23682-1.4208 0-3.552 0-5.4464 0-1.8943-0.23682-3.552-0.23682-4.9728 0.23682-1.184 0.71036-2.1313 0.9472-3.3152 0-0.71063 0-1.8944-0.23682-2.368-0.23682-0.47345-0.9472-0.71063-1.184-1.184-0.23682-0.47345-0.23682-0.71063-0.47363-1.1841-1.6576 0-1.6576-1.4208-2.1312-3.0783-0.47372-1.6577-0.71054-3.3152-0.23691-4.9729-0.47363-0.47345-1.4208-0.71063-1.8944-1.184-0.23682-0.47345-0.47363-1.1841-0.9472-1.4208-0.47363-0.47345-1.4208-0.71063-2.368-1.1841-0.71045-0.47345-1.4208-1.184-1.8944-1.6575-0.47363-0.23717-1.184-0.23717-1.6576-0.47345-0.94721-0.47345-1.8944-2.1313-2.6048-2.368-0.71045-0.47345-1.6576-0.23717-2.368-0.47345-1.4208-0.47345-2.6048-1.4208-3.552-1.8944-0.71036-0.23717-1.4208-0.71063-1.8944-0.94717-0.47363-0.23717-0.71036-1.184-1.4208-1.6576-0.47363-0.47345-1.184-0.94717-1.6576-1.4208-0.47363-0.47345-0.71036-1.4208-1.184-2.1312-0.47363-0.71063-1.6576-0.94726-1.8944-1.6576-0.47363-0.71063-0.71045-1.8944-0.47363-3.0784 0.23682-1.4208 1.184-2.1313 2.368-2.8416 0.47363-0.23717 0.9472-0.71063 1.184-1.184 0.47363-0.47345 1.184-0.47345 1.184-1.184 0.23682-0.71063-0.23682-0.71063-0.47363-1.1841-1.4208 0-2.6048 0-3.7888-0.47345-0.9472-0.23717-1.4208-0.94726-2.1312-1.184-0.47363-0.23717-0.47363-0.94726-0.9472-1.1841-0.71036 0.23717-0.9472 0.94726-1.6576 1.1841-0.71045 0-1.6576-0.47345-2.368-0.71063-0.47363-0.23717-0.9472-0.71063-1.184-0.94717-0.47363-0.71063-0.94721-0.47345-1.184-0.94726-0.23682-0.47345 0-0.94717-0.23682-1.4208-0.23682-0.47345-1.184-0.71063-1.4208-1.184-0.47363-0.47345-0.94721-0.94717-1.184-1.4208-0.23682-0.47345-0.9472-0.94717-1.184-1.4208-0.47363-0.47345-0.9472-0.94717-1.184-1.4208-0.47363-0.94717-0.71036-4.2624-0.47363-5.2096 0.23682-0.94717 1.184-2.8416 1.6576-3.3152 0.71036-1.184 2.1312-1.8943 3.3152-2.6048 1.4208-0.94717 2.8416-1.184 4.9728-0.94717 3.3152 0.23717 6.1568 1.4208 8.0512 4.0256 1.4208-0.23717 1.8944 0.71063 2.8416 1.6576 0.94721 0.71063 1.8944 1.8943 1.8944 3.3152 0 0.71063-0.47363 0.94726-0.47363 1.4208 0.9472 0.23717 1.8944 1.6576 2.8416 1.6576 0.47363 0 1.184-1.184 1.8944-1.6576 0.47363-0.47345 1.4208-1.184 2.1312-1.4208 0.47363-0.23717 1.184-0.23717 1.6576-0.23717 1.184-0.23717 1.8944-0.47345 3.3152-0.23717 1.6576 0.23717 3.0784-0.23717 4.9728-0.23717 0.71045-0.47345 1.184-1.4208 1.8944-2.1313 0.47363-0.71063 1.184-1.6575 1.184-2.6048 0.23682-1.184 0-2.6048 0-3.7888s0.23682-2.368 0.47363-3.5521c0.23682-0.94717 0.23682-2.368 0.47363-3.552 0.23682-1.184 0.71036-2.368 0.71036-3.3152 0-0.47345-0.23682-1.184-0.47363-1.8943-0.23682-0.71063-0.47363-1.4208-0.47363-1.8944v-1.8944c-0.23682-0.71063-0.9472-1.184-0.9472-1.8943-1.8944 0-4.2624 0.23717-4.9728-1.4208-0.23682-0.47345-0.23682-1.1841 0-1.8944-22.022 11.603-44.755 23.443-67.015 35.283-1.184 0.47345-2.6048 1.184-3.0784 2.1313-0.47363 0.71063-0.23682 1.6575-0.23682 2.6048 0 0.47345-0.23682 1.184-0.47363 1.8943 0 0.71063 0 1.6576-0.23682 2.1313-0.47363 1.184-1.8944 2.1312-3.7888 1.8944-0.9472-0.23717-2.6048-1.6576-2.8416-2.3681-0.23682-0.71063 0-1.6576 0-2.6048s-0.23682-1.8944 0-2.368c0.23682-0.94726 1.4208-2.3681 2.6048-2.6048 0.47363-0.23717 1.4208 0 2.1312 0 0.71045 0 1.4208 0.23628 1.8944 0.23628 0.71036 0 1.6576-0.71063 2.368-1.184 2.1312-1.184 4.4992-2.368 6.6304-3.552 20.365-10.893 41.677-22.496 61.805-33.152-0.23682-1.184-0.23682-3.3152 0.9472-3.552 1.4208-0.23717 2.1312 0.47345 3.0784-0.23717 0.23682-0.23717 0.47363-0.23717 0.71045-0.47345 0.47363-0.23717 0.94721-0.94717 1.184-1.184 0.23682-0.23717 0.71045-0.94717 1.184-1.4208 0.47363-0.47345 0.71045-1.184 1.4208-1.184 0.9472-0.23717 1.184 0.23717 1.6576 0.23717 0.23682-1.8944 1.6576-2.1313 1.8944-2.6049zm-1.8944 9.7089c0 3.552 1.6576 5.9199 2.6048 8.5248 0.9472 2.6048 1.8944 4.9728 2.6048 8.0512 0.23682 1.4208 0.71045 3.0784 0.9472 4.4992 0.23682 1.8943 0 3.552 0.47363 5.4464 0.23682 0 0.9472-0.47345 0.9472-0.71063 0.23682-0.71063 0-2.368 0-3.552 0-3.5521 0.47363-6.8672 0.23682-10.182 0-1.6576-0.71045-3.3152-0.9472-4.9728-0.47363-1.6576-0.71036-3.3152-1.4208-4.4992-1.184 0-0.9472-1.6576-1.4208-2.3681-1.8944 0.23717-3.0784 0.23717-4.0256-0.23628z" stroke-width="2.368"/>
 </g>
</svg>
