<svg width="598.74" height="201.38" version="1.1" viewBox="0 0 158.42 53.282" xmlns="http://www.w3.org/2000/svg">
 <g transform="translate(-.00061487)">
  <path d="m21.771 34.072c0 2.5-0.921 4.31-2.603 5.97 1.481 1.66 1.992 2.75 1.992 5.45 0 4.56-3.481 7.79-8.033 7.79h-4.2924c-3.573 0-6.544-2.44-7.715-5.4-0.20099-0.52 0.05-1.04 0.661-1.04h4.451l0.82 0.42 0.36 0.36c0.402 0.42 0.812 0.62 1.732 0.62h3.3224c1.791 0 2.962-0.98 2.962-2.75v-0.15c0-1.77-1.171-2.86-2.912-2.86h-4.2924c-4.552 0-8.225-3.79-8.225-8.41v-10.27c6e-7 -4.621 3.673-8.411 8.225-8.411h5.2634c4.552 0 8.284 3.79 8.284 8.411m-12.828-3.374c-1.74 0-3.179 1.447-3.179 3.214v10.58c0 1.77 1.439 3.23 3.179 3.23h3.8754c1.74 0 3.179-1.46 3.179-3.23v-10.58c0-1.767-1.439-3.214-3.179-3.214z" fill="#666"/>
  <path d="m49.889 34.072c0 4.62-3.732 8.41-8.234 8.41h-5.263c-4.552 0-8.284-3.79-8.284-8.41v-10.27c0-4.621 3.732-8.411 8.284-8.411h5.263c4.502 0 8.234 3.79 8.234 8.411m-12.777-3.374c-1.749 0-3.222 1.447-3.222 3.214v10.58c0 1.77 1.473 3.23 3.222 3.23h3.773c1.791 0 3.23-1.46 3.23-3.23v-10.58c0-1.767-1.439-3.214-3.23-3.214z" fill="#666"/>
  <path d="m62.312 15.913h5.982c0.661 0 1.172 0.519 1.172 1.188v2.652c0 0.678-0.511 1.197-1.172 1.197h-5.982v12.772c0 1.76 1.431 3.21 3.171 3.21h2.811c0.661 0 1.172 0.52 1.172 1.2v2.65c0 0.67-0.511 1.19-1.172 1.19h-3.48c-4.544 0-8.234-3.74-8.276-8.36v-25.33c0-0.619 0.561-1.138 1.172-1.138h3.422c0.669 0 1.18 0.519 1.18 1.138" fill="#c3c3c4"/>
  <path d="m88.271 40.872c-0.25 0.73-0.72 1.1-1.48 1.1h-3.73c-0.77 0-1.33-0.37-1.53-1.1l-7.723-23.408c-0.31-0.878 0.41-1.548 1.23-1.548h2.863c0.77 0 1.28 0.352 1.48 1.08l5.52 17.706 5.52-17.706c0.21-0.728 0.77-1.08 1.54-1.08h2.81c0.76 0 1.53 0.611 1.23 1.548" fill="#c3c3c4"/>
  <path d="m158.42 0h-56.96v42.102h56.96z" fill="#0397d7"/>
 </g>
 <g transform="translate(-.00061487)" fill="#c3c3c4">
  <path d="m107.29 36.702h45.31v-31.29h-45.31z"/>
 </g>
 <g transform="translate(-.00061487)" fill="#0397d7">
  <path d="m147.25 21.69 2.19-4.77-10.6-5.02-2.19 4.769"/>
  <path d="m122.96 16.666-2.19-4.77-10.6 5.021 2.19 4.769"/>
  <path d="m130.04 38.022-10.58-5.01 2.18-4.75 8.41 3.97m0 5.8 10.62-5.02-2.18-4.75-8.45 3.98v0.01h0.01"/>
 </g>
</svg>
