<svg version="1.1" viewBox="0 0 300 219.39" xml:space="preserve" xmlns="http://www.w3.org/2000/svg"><g transform="matrix(1.25 0 0 -1.25 88.011 154.96)"><g transform="matrix(.24436 0 0 .24436 -71.592 -52.273)" fill="#f25a1a"><path d="m562.11 2.9766h-124.61v359.12c0 17.152-6.125 31.613-18.387 43.379-11.757 11.757-26.214 17.636-43.367 17.636h-246.29v-420.13h-124.61v718.23h124.61v-172.75h265.04c46.551 0 86.004-16.41 118.36-49.258 32.836-32.836 49.261-72.289 49.261-118.36v-377.86"/><path d="m986.98 2.9766h-124.61v531.87c0 17.152-6.129 31.613-18.391 43.379-11.757 11.757-26.214 17.636-43.367 17.636h-112.01v125.35h130.75c46.555 0 86.012-16.41 118.36-49.258 32.836-32.836 49.265-72.289 49.265-118.36v-550.62"/></g></g></svg>
