<svg width="800" height="368.65" version="1.1" viewBox="0 0 800 368.65" xmlns="http://www.w3.org/2000/svg">
 <path d="m0.95174 166.61h798.1v33.51h-798.1z" stroke-width="11.067"/>
 <g fill="#b80001" stroke-width="11.067">
  <path d="m2.8331 0.95173h46.513v54.581h49.357v-55.522h49.346v154.16h-49.357v-63.191h-49.357v63.191h-46.502zm264.78 0h-51.261l-55.997 151.28h48.395l4.7366-24.878h54.094l7.6028 24.889h48.395l-55.975-151.28zm-43.647 96.723 17.076-55.522 17.087 55.533h-34.163zm221.1-27.766s24.679-6.7064 23.727-32.558c0 0 4.7476-35.424-37.959-36.398-42.717-0.94067-93.004-0.94067-93.004-0.94067v153.2h94.897s41.755 1.9145 42.717-43.094c0 0 5.6994-37.339-30.378-40.205zm-61.686-40.227h28.464c14.221 0 12.339 13.391 12.339 13.391 0 13.413-7.6028 14.387-7.6028 14.387h-33.2zm35.126 89.054h-34.174v-32.558s15.184-0.95174 30.367-0.95174 15.184 16.268 15.184 16.268c1.9035 15.327-11.377 17.242-11.377 17.242zm80.654-118.72v152.26h127.17v-33.51h-80.654v-27.777h73.073v-36.387h-73.073v-19.168h76.88v-34.484c-0.0221 0-128.13-0.94067-123.39-0.94067zm275.21 106.28s-5.6993-17.231-21.824-17.231c0 0 37.959-7.6692 36.066-45.019 0 0 2.8441-40.205-34.174-42.12-37.007-1.9145-100.6-1.9145-100.6-1.9145v153.2h45.55v-62.25s15.184-3.8291 22.786 15.316c7.6028 19.156 21.824 45.971 21.824 45.971h55.997zm-47.454-43.094h-28.464v-32.558s12.339-0.94067 28.464-0.94067 16.124 14.365 16.124 14.365c1.9256 19.145-16.124 19.145-16.124 19.145z"/>
  <path d="m2.55e-6 213.54v36.376h46.502v117.77h47.454v-119.68h45.551v-34.473zm305.55 98.626c1.9145-28.729 0-97.675 0-97.675h46.524v99.379c0 16.655-7.2819 32.68-20.429 42.751a140.1 140.1 0 0 1-1.8813 1.3944c-9.296 6.5294-20.507 9.6944-31.85 9.6944h-35.413c-16.844 0-33.056-7.8463-42.64-21.824a52.036 52.036 0 0 1-3.4971-5.8432 54.581 54.581 0 0 1-5.7547-24.491l-0.88534-100.1h47.443v94.786s-2.8331 25.863 23.727 25.863c26.56 0 24.668-23.937 24.668-23.937zm245.8 4.7808s-7.6028-16.268-21.824-14.376c0 0 37.97-14.376 36.077-42.12 0 0 5.6994-44.045-43.658-45.019l-91.101-0.94067v153.2h47.454v-62.239s12.339-4.7808 18.979 9.5616c6.64 14.387 25.63 51.715 25.63 51.715h54.094l-25.664-49.767zm-74.977-41.179v-32.558h30.146c6.6954 0 12.727 4.6037 14.01 11.244 0.28773 1.494 0.45373 3.1761 0.45373 5.0243 0 12.45-8.5435 17.242-14.243 17.242-5.6772 0.0221-30.367-0.95174-30.367-0.95174zm164.19-62.228h47.443v59.362l48.417-59.362h59.76l-53.12 59.362 55.035 92.872-55.997 2.8773-32.27-65.105-23.727 25.852 0.96281 36.376-46.502 0.9628z"/>
 </g>
</svg>
