<svg version="1.1" viewBox="0 0 2616.3 500" xmlns="http://www.w3.org/2000/svg">
 <g transform="translate(-248.12 72.78)">
  <g fill="#fff">
   <path d="m2221.2 225.22c-4.5992 4.5595-13.758 8.0089-26.921 8.0089h-4.0045c-13.163 0-22.322-3.4494-26.921-8.0089-6.8591-6.8988-9.7138-16.058-9.7138-38.934v-40.679c0-22.917 2.8547-32.075 9.7138-38.934 4.5992-4.5992 13.758-8.0089 26.921-8.0089h4.0045c13.163 0 22.322 3.4097 26.921 8.0089 6.8591 6.8591 9.7138 16.018 9.7138 38.934v40.679c0 22.877-2.8547 32.036-9.7138 38.934m99.834-87.622c0-59.552-19.666-92.222-64.349-104.24-33.582-7.4539-56.697-6.0662-65.816-6.3041h-8.0486c-79.574 0-119.66 33.78-119.66 110.54v69.146c0 121.72 124.42 105.15 167.91 83.777-0.079 4.0441 1.9428 46.824-10.428 54.754-6.9384 4.4406-15.899 10.19-34.771 10.19-20.062 0-46.19-1.6256-68.512-7.3746-14.313-3.4494-19.031 0.75332-20.736 10.467l-6.0265 35.525c-0.5948 4.0045-1.1498 9.1587-1.1498 11.458 0 7.4539 2.8943 10.11 15.185 12.648 43.811 8.9605 73.31 9.7138 102.45 8.683 51.503-1.8238 69.027-8.7622 87.345-27.674 14.868-15.463 26.604-47.142 26.604-90.596"/>
   <path d="m731.63 199.76c-6.3041-1.1102-19.547-1.7049-27.595-1.7049h-6.3437c-26.485 0-37.428 4.5992-37.428 25.89v2.2996c0 21.291 12.093 26.485 32.234 26.485h4.0441c13.242 0 21.846-4.0441 27.04-8.6433 6.3437-5.749 8.0486-12.648 8.0486-28.19zm19.586 89.803c-11.538 17.247-39.133 28.745-75.411 28.745h-8.6036c-57.569 0-93.252-30.489-93.252-88.614v-6.3437c0-64.468 36.278-85.125 113.35-85.125h4.0441c14.947 0 31.679 1.1102 40.283 2.2599v-12.093c0-11.498-1.7049-19.547-9.7534-25.335-6.9384-4.5992-15.582-6.3041-34.573-6.3041-20.102 0-44.287 4.0441-66.768 9.7931-14.353 3.4494-17.802-1.1498-19.547-10.943l-4.5992-30.489c-0.55507-4.0441-1.1498-9.238-1.1498-11.538 0-7.4539 2.2996-11.498 13.837-14.947 24.185-6.8988 59.314-12.648 98.367-12.648 46.071 0 76.045 9.1984 94.402 28.19 14.987 15.542 21.886 37.983 21.886 71.922v170.92c0 11.538-4.5992 16.137-19.586 16.137h-27.04c-13.242 0-17.802-2.8943-21.291-13.282l-3.4494-10.309"/>
   <path d="m1107.6 296.46c0 10.943-4.0441 16.692-19.586 16.692h-52.93c-15.542 0-19.586-5.749-19.586-16.692v-162.87c0-13.242-1.7048-21.331-6.3437-26.485-4.5992-5.1939-13.798-7.4539-25.296-7.4539h-1.1498c-11.498 0-20.736 2.2599-25.335 7.4539-4.5992 5.1543-6.3041 12.687-6.3041 26.485v162.87c0 10.943-4.0441 16.692-19.586 16.692h-52.93c-15.542 0-19.586-5.749-19.586-16.692v-249.19c0-11.538 4.5992-16.137 19.586-16.137h27.04c13.242 0 17.842 2.2996 21.291 13.242l3.4494 10.943h1.7445c18.397-19.586 44.882-29.34 78.82-29.34h2.2996c33.384 0 56.419 6.8988 75.966 26.406 18.436-17.207 46.071-26.406 78.305-26.406h2.2996c33.939 0 58.124 8.0486 73.072 23.551 15.542 16.137 21.291 37.428 21.291 76.006v170.92c0 10.943-4.0044 16.692-19.586 16.692h-52.93c-15.542 0-19.546-5.749-19.546-16.692v-162.87c0-13.242-1.7445-21.331-6.3437-26.485-4.5992-5.1939-13.837-7.4539-25.335-7.4539h-1.1498c-11.498 0-20.736 2.2599-25.296 7.4539-4.6388 5.1543-6.3437 12.687-6.3437 26.485zm282.93-85.204c0 12.687 2.2995 21.846 8.0485 27.635 5.7887 5.749 14.392 7.4539 25.93 7.4539h5.1939c15.502 0 22.996-4.0045 28.19-11.458 6.304-9.8327 6.8988-23.63 6.8988-50.115v-24.701c0-26.485 0-43.772-7.5332-52.375-5.7093-6.8988-13.758-9.238-28.745-9.238h-2.2996c-12.648 0-21.846 2.3392-28.19 8.6433-6.3437 6.3437-7.4935 14.947-7.4935 30.489zm1.1498-169.77c16.137-9.7931 38.022-15.502 65.578-15.502h5.1939c32.274 0 60.424 10.903 75.411 31.045 13.242 17.842 19.586 42.622 19.586 94.957v41.472c0 42.582-8.6433 77.076-29.379 96.107-22.441 20.696-51.186 28.745-98.367 28.745h-11.538c-53.525 0-80.565-10.903-96.702-28.19-12.093-13.242-22.996-35.089-22.996-81.715v-268.18c0-10.943 3.4494-16.732 18.952-16.732h53.565c15.502 0 19.547 5.7886 19.547 16.732v101.26zm350.89 6.3437c0-10.943 4.0441-16.692 19.507-16.692h52.97c15.542 0 19.586 5.749 19.586 16.692v170.33c0 36.278-8.0486 59.869-25.89 76.006-20.776 18.397-52.375 24.146-97.852 24.146-45.476 0-77.116-5.749-97.852-24.146-17.802-16.137-25.89-39.727-25.89-76.006v-170.33c0-10.943 4.0441-16.692 19.626-16.692h52.93c15.542 0 19.546 5.749 19.546 16.692v162.28c0 13.837 1.7446 21.331 6.3437 26.485 4.5992 5.1939 13.758 7.4935 25.296 7.4935s20.736-2.2996 25.296-7.4935c4.5992-5.1543 6.3834-13.242 6.3834-26.485zm201.1 14.392c13.798-22.441 32.789-31.084 64.468-31.084h22.996c12.093 0 16.692 2.8943 16.692 16.137v41.987c0 12.648-4.0044 16.097-15.542 16.097h-17.247c-21.846 0-35.683 4.0441-43.732 12.093-7.4935 7.4935-9.7931 20.736-9.7931 39.727v139.28c0 10.943-4.0441 16.692-19.586 16.692h-52.93c-15.542 0-19.546-5.749-19.546-16.692v-249.19c0-11.538 4.5595-16.137 19.546-16.137h27.635c13.242 0 17.842 2.8943 20.696 13.203l4.5992 17.881zm-1393.7 232.3c0 15.978-2.2996 17.683-19.983 17.683h-55.349c-17.683 0-20.538-1.7049-20.538-17.683v-128.98h-110.14v128.98c0 15.978-2.26 17.683-19.983 17.683h-56.499c-17.088 0-19.388-1.7049-19.388-17.683v-333.84c0-15.978 2.2996-17.683 19.983-17.683h55.904c17.723 0 19.983 1.7049 19.983 17.683v127.27h110.14v-127.27c0-15.978 2.2996-17.683 19.983-17.683h55.904c17.683 0 19.983 1.7049 19.983 17.683"/>
  </g>
  <path d="m2843.3-77.34h-456.59c-16.573 0.95156-21.331 8.2072-21.331 21.053v456.71c0 0.19824 0.1189 0.35684 0.1189 0.51543 1.2291 15.661 8.3658 20.3 20.934 20.3h20.538c3.1322 0.23789 6.3437 0.35684 9.6345 0.35684l340.66-0.11895c40.917-1.1498 68.234-10.269 85.442-27.952 14.947-15.542 21.648-37.983 21.648-71.922v-377.73c-0.9119-16.573-8.3261-21.212-21.053-21.212" fill="#981d1e"/>
  <path d="m2864.4 321.6v-377.73c-0.9119-16.573-8.3261-21.212-21.053-21.212h-456.63c-16.533 0.95156-21.291 8.2072-21.291 21.053v456.71c0 0.19824 0.119 0.35683 0.119 0.51542 1.1894 15.661 8.3657 20.26 20.934 20.26h20.498c3.1322 0.23789 6.3834 0.39648 9.6345 0.39648l340.66-0.11894c40.917-1.1894 68.274-10.269 85.442-27.952 14.987-15.542 21.688-37.983 21.688-71.922" fill="#a72024"/>
  <path d="m2763.3 381.94c25.256-1.467 42.542-6.7402 51.265-15.701 4.5199-4.6785 10.626-14.511 10.626-44.604v-335.7c-0.793-19.269-7.9693-23.591-27.238-23.591h-53.842c-20.538 0-30.41 2.3392-45.595 9.7931l-116.84 57.728c-14.472 6.8591-18.198 18.199-10.705 32.71l25.097 49.283c6.7798 12.925 18.198 11.419 31.758 5.2336l65.42-28.745h3.8062v293.59" fill="#fff"/>
 </g>
</svg>
