<svg width="800" height="354.33" space="preserve" version="1.1" viewBox="0 0 800 354.33" xmlns="http://www.w3.org/2000/svg">
 <link href="" rel="stylesheet" type="text/css"/>
 <g fill="#1c282e" stroke-width="1.4545">
  <path class="st0" d="m0 132.95h22.545v35.927h34.618v-35.927h22.545v92.655h-22.545v-36.8h-34.618v36.8h-22.545z"/>
  <path class="st0" d="m153.75 208.73h-33.455l-5.6727 16.873h-26.327l36.073-92.655h25.745l35.636 92.655h-26.327zm-5.6727-17.018-5.9636-17.6c-1.7455-5.5273-3.6364-12.509-4.9455-19.927h-0.58182c-1.1636 7.2727-3.2 14.4-4.9454 19.927l-5.8182 17.6z"/>
  <path class="st0" d="m194.47 132.95h22.255l26.764 34.618c4.3636 5.8182 8.5818 11.636 14.691 20.509h0.29091c-1.3091-8.8727-1.4546-14.836-1.4546-23.127v-32h22.255v93.527h-18.909l-29.673-37.236c-4.5091-5.8182-9.0182-11.636-14.982-20.509h-0.43637c1.3091 8.8727 1.6 14.836 1.6 23.127v33.891h-22.4z"/>
  <path class="st0" d="m297.89 132.95h30.4c33.891 0 52.945 17.455 52.945 46.109 0 28.945-20.073 46.545-53.091 46.545h-30.255zm29.382 72.582c20.655 0 30.836-8.2909 30.836-26.764 0-17.745-10.036-25.891-30.691-25.891h-6.9818v52.655z"/>
  <path class="st0" d="m410.47 188.8-32.727-55.855h26.909l9.0182 19.345c3.0546 6.8364 5.5273 12.073 8 18.327h0.43636c2.4727-6.2546 4.8-11.491 7.8546-18.327l9.0182-19.345h26.909l-32.873 55.855v36.8h-22.545z"/>
 </g>
 <g fill="#ff9d00">
  <g stroke-width="1.4545">
   <path class="st1" d="m465.75 209.02 15.418-10.909 2.3273 0.72727c4.6546 7.1273 10.327 10.182 17.6 10.182 6.8364 0 11.345-3.6364 11.345-8.4364 0-5.0909-3.0546-8.1454-18.909-14.836-17.745-7.2727-24.145-15.418-24.145-28.945 0-14.836 13.673-26.327 32.727-26.327 14.255 0 25.455 5.9636 32.582 16.436l-15.273 11.345-2.3273-0.58182c-3.4909-5.2364-8.4364-8.4364-14.836-8.4364-6.1091 0-9.6 3.2-9.6 7.2727s1.8909 6.1091 18.473 13.382c18.327 8 24.436 16.291 24.436 28.218 0 16.873-14.4 29.673-34.618 29.673-14.691 0.2909-27.055-5.9636-35.2-18.764z"/>
   <path class="st1" d="m543.71 153.31v-20.364h80.291v20.364h-28.655v72.291h-22.836v-72.291z"/>
   <path class="st1" d="m681.45 208.73h-33.455l-5.6727 16.873h-26.327l36.073-92.655h25.745l35.636 92.655h-26.327zm-5.6727-17.018-5.9636-17.6c-1.7454-5.5273-3.6364-12.509-4.9454-19.927h-0.58182c-1.1636 7.2727-3.2 14.4-4.9454 19.927l-5.8182 17.6z"/>
   <path class="st1" d="m800 223.27-1.0182 2.3273h-23.709l-22.836-34.473h-7.4182v34.473h-22.836v-92.655h33.309c23.418 0 35.2 9.8909 35.2 29.818 0 11.927-5.6727 20.364-16.145 24.727zm-54.982-49.309h9.0182c9.8909 0 14.836-3.4909 14.836-11.2 0-8.2909-4.8-11.491-14.836-11.491h-9.0182z"/>
  </g>
  <polygon class="st1" transform="scale(1.4545)" points="292.5 42.5 296.6 66.6 275 55.2 253.4 66.6 257.5 42.5 240 25.4 264.2 21.9 275 0 285.8 21.9 310 25.4"/>
  <polygon class="st1" transform="scale(1.4545)" points="382.5 42.5 386.6 66.6 365 55.2 343.4 66.6 347.5 42.5 330 25.4 354.2 21.9 365 0 375.8 21.9 400 25.4"/>
  <polygon class="st1" transform="scale(1.4545)" points="472.5 42.5 476.6 66.6 455 55.2 433.4 66.6 437.5 42.5 420 25.4 444.2 21.9 455 0 465.8 21.9 490 25.4"/>
  <polygon class="st1" transform="scale(1.4545)" points="202.5 42.5 206.6 66.6 185 55.2 163.4 66.6 167.5 42.5 150 25.4 174.2 21.9 185 0 195.8 21.9 220 25.4"/>
  <polygon class="st1" transform="scale(1.4545)" points="112.5 42.5 116.6 66.6 95 55.2 73.4 66.6 77.5 42.5 60 25.4 84.2 21.9 95 0 105.8 21.9 130 25.4"/>
 </g>
 <g transform="matrix(3.6869 0 0 3.6869 1842.8 425.72)" fill="#1c282e" stroke-width="1px" aria-label="2">
  <path d="m-283.11-19.362h-19.44l11.4-13.56q0.04-0.04 0.04-0.04 0.04-0.04 0.08-0.08 0.72-0.8 1.32-1.84 0.6-1.08 0.6-2.16v-0.52q-0.2-1.16-1.08-1.8-0.84-0.68-2-0.68-2.08 0-2.68 1.32t-0.68 3.04h-6.08q0.04-2.12 0.64-4.04 0.64-1.96 2.32-3.36 1.12-0.92 2.6-1.44t3-0.6q0.16-0.04 0.36-0.04t0.36 0 0.32 0q0.2 0 0.4 0.04 3.16 0.2 5.84 2.12 2.68 1.88 2.96 5.36v0.64q0 2.04-1.08 3.84-1.04 1.76-2.44 3.28l-4.52 5.08h7.76z" fill="#1c282e"/>
 </g>
</svg>
