<svg width="800" height="317.9" version="1.1" viewBox="0 0 211.67 84.11" xmlns="http://www.w3.org/2000/svg">
 <g fill="#74ceff" stroke-width="19.933">
  <path d="m34.209 17.778c-7.8737 0-13.216 3.6279-16.226 6.4783l1.8737-16.585c0.43853-3.7873-2.2923-7.1959-6.0797-7.6145-3.7873-0.43853-7.1959 2.2923-7.6145 6.0797l-6.1195 54.378c-0.43853 3.7873 2.2923 7.1959 6.0597 7.6345 0.27907 0.01993 0.5382 0.03987 0.79733 0.03987 3.4485 0 6.4385-2.6113 6.8371-6.1195l3.1295-27.887c4.1661-5.8405 9.1095-3.4485 8.7308-1.6345l-3.0897 27.568c-0.43853 3.7873 2.2923 7.1959 6.0797 7.6145 0.25913 0.03987 0.51827 0.03987 0.7774 0.03987 3.4485 0 6.4385-2.5913 6.8371-6.1195l4.0863-36.259c0.4186-3.7674-2.2724-7.6145-6.0797-7.6145"/>
  <path d="m81.052 37.851c-0.21927 1.4352-0.4186 2.8106-0.49833 4.0664-0.51827 8.4119-2.392 19.634-2.4717 20.093-0.55813 3.3887-3.4883 5.7607-6.7973 5.7607-0.3588 0-0.75747-0.01993-1.1362-0.07973-2.8903-0.49833-5.0232-2.7109-5.6013-5.4019-2.2325 1.8339-6.9767 5.2225-11.442 5.2225-6.1195 0-10.206-4.5847-10.206-12.757 0-8.1727 5.0033-12.359 11.482-15.07 6.1195-2.5515 13.016-3.0498 13.016-7.6544 0-1.794-1.0166-3.8272-2.5515-3.8272-3.4684 0-4.0863 4.0664-4.4651 4.3455-1.1163 3.1295-4.3654 5.1029-7.7341 4.485-3.7475-0.69767-6.2391-4.2857-5.5614-8.0132 0.21927-1.1561 2.5116-11.282 18.538-11.282 5.98 0 10.226 1.5548 12.997 4.784 4.0265 4.6445 3.1495 10.565 2.4319 15.329m-22.584 11.023c-2.0531 1.2757-2.2923 5.6212-0.25913 6.8969 2.0531 1.2757 5.1029 1.2757 6.3787-1.2757s1.5349-9.9467 1.5349-9.9467c-1.2757 1.2757-5.6212 3.0498-7.6544 4.3255"/>
  <path d="m207.19 17.638c-3.5681-1.3355-7.5348 0.45847-8.8703 4.0265l-8.1328 24.917-2.8704-22.903c-0.51826-3.7674-3.9867-6.3986-7.7541-5.8803s-6.4185 3.9867-5.9003 7.7541l7.1162 42.697-0.7774 2.0731h-4.1063c-3.8073 0-6.8969 3.0897-6.8969 6.8969s3.0897 6.8969 6.8969 6.8969h8.8703c2.8704 0 5.4418-1.794 6.4584-4.4651l19.993-53.142c1.3355-3.5481-0.45847-7.5348-4.0265-8.8703"/>
  <path d="m124.05 44.21c-1.0764 10.664-4.3255 18.678-9.9268 22.046-1.1163 0.6578-4.1461 1.5149-5.3621 1.5149-3.7873 0-8.5315-3.0897-11.043-7.0963l-1.7143 16.744c-0.3588 3.5481-3.3488 6.1993-6.8371 6.1993-0.2392 0-0.4784-0.01993-0.7176-0.03987-3.7873-0.39867-6.5381-3.7873-6.1594-7.5747l5.4019-52.584c0.37873-3.7873 3.7475-6.5381 7.5547-6.1594 2.9501 0.299 5.2624 2.4518 5.9601 5.1627 5.0232 2.0332 5.3621-0.91693 8.5713-3.7076 2.8903-2.4917 10.864-0.897 12.817 2.3721 2.392 3.9667 2.7707 10.026 1.4551 23.123m-20.91 10.046c2.8106 0 5.1229-2.0531 5.6212-5.8803 0.51827-3.8272 1.0166-7.9135 1.3156-12.299 0.25914-3.6079-0.5382-6.0797-3.6079-6.0797s-5.1029 2.2923-5.6212 5.3621c-0.49834 3.0498-1.3555 8.1129-1.7342 13.016-0.25913 3.3089 1.2359 5.8803 4.0265 5.8803"/>
  <path d="m168.38 44.21c-1.0764 10.664-4.3255 18.678-9.9268 22.046-1.0963 0.6578-4.1461 1.5149-5.3621 1.5149-3.7873 0-8.5315-3.0897-11.043-7.0963l-1.7143 16.744c-0.3588 3.5481-3.3488 6.1993-6.8371 6.1993-0.2392 0-0.4784-0.01993-0.7176-0.03987-3.7873-0.39867-6.5381-3.7873-6.1594-7.5747l5.4019-52.584c0.37873-3.7873 3.7475-6.5381 7.5547-6.1594 2.9501 0.299 5.2624 2.4518 5.9601 5.1627 5.0232 2.0332 5.3621-0.91693 8.5713-3.7076 2.8903-2.4917 10.864-0.897 12.817 2.3721 2.392 3.9667 2.7707 10.026 1.4551 23.123m-20.91 10.046c2.8106 0 5.1229-2.0531 5.6212-5.8803 0.51827-3.8272 1.0166-7.9135 1.3156-12.299 0.25914-3.6079-0.5382-6.0797-3.6079-6.0797s-5.1029 2.2923-5.6212 5.3621c-0.49834 3.0498-1.3555 8.1129-1.7342 13.016-0.25913 3.3089 1.2359 5.8803 4.0265 5.8803"/>
 </g>
</svg>
