<svg width="800" height="110.65" enable-background="new 0 0 2168.99048 300" version="1.1" viewBox="0 0 800 110.65" xml:space="preserve" xmlns="http://www.w3.org/2000/svg">
<g fill="#706f6f" stroke-width=".36883"><path class="st1" d="m654.49 1.3549h-59.419v16.718h18.298v62.015h20.448v-62.015h18.302l2.3694-16.718zm-86.071 37.278c0 21.801-4.5219 24.625-10.171 24.625h-6.7747v-45.296h6.2115c6.0975 0 10.733 2.3722 10.733 20.673m22.248 0.67578c0-16.04-3.9517-26.885-12.873-33.097-6.327-4.4053-13.333-4.8572-18.751-4.8572h-27.793v78.735h28.581c10.618 0 16.945-3.5013 21.915-9.489 7.1151-8.4739 8.9217-19.09 8.9217-31.29m-97.143 10.054h-10.163l3.1635-12.878c1.3515-5.309 1.916-9.6 2.1455-12.537 0.10981 2.9368 0.67437 7.5673 1.467 11.07l3.3873 14.345zm30.049 30.725-23.837-78.735h-21.011l-25.303 78.735h21.236l4.2954-15.137h18.637l4.0671 15.137h21.915zm-62.244-78.735h-59.419v16.718h18.298v62.015h20.448v-62.015h18.296l2.3751-16.718zm-63.151 51.282c0-15.814-12.201-19.654-20.673-21.799l-8.0177-2.0344c-5.8751-1.4684-7.6813-4.066-7.6813-6.6663 0-3.1635 2.8242-5.6483 8.0206-5.6483 5.4218 0 12.424 2.0344 17.733 5.5373l9.7143-14.346c-7.0026-4.8572-17.169-7.6813-28.126-7.6813-17.621 0-30.5 10.391-30.5 25.981 0 13.555 7.7938 19.768 19.203 22.819l9.2636 2.3694c5.4204 1.4698 7.9052 2.9396 7.9052 6.4394 0 4.2925-3.1606 7.2306-11.069 7.2306-8.0221 0-16.492-3.048-22.14-6.327l-7.1181 15.813c7.9092 4.1815 17.17 7.1196 29.033 7.1196 20.445 0 34.452-9.9437 34.452-28.806m-63.376-51.282h-59.419v16.718h18.299v62.015h20.448v-62.015h18.296l2.3737-16.718z"/><path class="st1" d="m240.75 17.96c4.8586 0 8.1331 1.2431 8.1331 7.7938 0 8.5849-2.9354 10.279-9.261 10.279h-5.8751v-18.073h7.0027zm30.163 7.9067c0-17.96-11.748-24.512-31.744-24.512h-25.64v78.735h20.218v-28.012h6.327c25.754-1e-5 30.839-14.573 30.839-26.208"/><path class="st1" d="m198.46 1.3549h-20.218v51.736c0 7.6828-2.0358 11.748-9.2636 11.748-7.1181 0-9.375-4.8586-9.375-12.088v-51.397h-20.334v53.543c0 10.504 0.90387 12.426 3.8392 16.717 4.7458 6.4354 13.331 9.8283 25.757 9.8283 15.588 0 24.398-6.1016 27.673-12.654 1.6965-3.162 1.9217-6.2115 1.9217-12.989v-54.447zm-94.432 48.007h-10.166l3.1634-12.878c1.3544-5.309 1.9189-9.6 2.1456-12.537 0.11263 2.9368 0.67578 7.5673 1.4698 11.07l3.3872 14.345zm30.048 30.725-23.835-78.735h-21.012l-25.302 78.735h21.236l4.2939-15.137h18.639l4.066 15.137zm-77.492 0v-78.735h-20.218v28.917h-16.155v-28.917h-20.218v78.735h20.218v-33.097h16.155v33.097z"/></g><path class="st0" d="m664.97 42.39c-12.499 0-22.633 10.132-22.633 22.629 0 12.506 10.135 22.633 22.633 22.633 12.506 0 22.629-10.128 22.629-22.633 0-12.497-10.123-22.629-22.629-22.629zm1.9916 41.608c-10.878 0-19.695-8.9217-19.695-19.923 0-10.999 8.8173-19.92 19.695-19.92 10.873 0 19.695 8.9217 19.695 19.92 0 11.002-8.8217 19.923-19.695 19.923z" fill="#df063b" stroke-width=".36883"/><path class="st2" d="m668.21 82.099c-10.265 0-18.607-8.347-18.607-18.612s8.3426-18.613 18.607-18.613c4.1058 0 7.9092 1.34 10.987 3.5997-3.3574-2.7001-7.6086-4.3183-12.235-4.3183-10.878 0-19.695 8.9217-19.695 19.92 0 11.002 8.8173 19.923 19.695 19.923 9.5701 0 17.544-6.9101 19.32-16.067-1.9959 8.1232-9.3363 14.166-18.073 14.166z" fill="#fff" stroke-width=".36883"/><g fill="#706f6f"><path class="st1" d="m668.21 44.876c-10.265 0-18.607 8.3485-18.607 18.613s8.3426 18.612 18.607 18.612c10.269 0 18.616-8.347 18.616-18.612s-8.347-18.613-18.616-18.613zm1.8462 33.816c-8.8715 0-16.097-7.2251-16.097-16.107 0-8.8774 7.2251-16.102 16.097-16.102 8.8859 0 16.107 7.225 16.107 16.102 0 8.8815-7.2206 16.107-16.107 16.107z" stroke-width=".36883"/><path transform="matrix(.36883 0 0 .36883 -.0021782 .00055)" d="m1798 148.9v42.63l41.1-21.33z"/></g><g fill="#df063b"><path class="st0" d="m800 1.3549h-21.344l-11.183 30.726c-1.3572 4.0671-2.9396 9.0371-4.1814 15.361h-0.11545c-1.2417-7.0026-2.1442-9.9393-3.7267-14.796l-9.9393-31.291h-22.254l26.775 78.735h18.182zm-63.941 0h-59.419v16.718h18.296v62.015h20.449v-62.015h18.296l2.3751-16.718z" stroke-width=".36883"/><path transform="matrix(.36883 0 0 .36883 -.0021782 .00055)" d="m 2064.9,300 17,-48.23 H 0 V 300 Z"/></g></svg>
