<svg width="800" height="93.167" enable-background="new 0 0 2168.99048 300" version="1.1" viewBox="0 0 800 93.167" xml:space="preserve" xmlns="http://www.w3.org/2000/svg">
<g fill="#fff" stroke-width=".36883"><path class="st1" d="m595.07 1.3544v16.718h18.298v62.015h12.039c-0.81423-3.1582-1.2415-6.4037-1.2724-9.665 0.11091-9.441 3.538-18.542 9.6816-25.712v-26.638h18.302l2.3693-16.718z"/><path class="st1" d="m531.25 1.356v78.734h28.581c10.618 0 16.945-3.5012 21.915-9.4889 7.115-8.4738 8.9216-19.09 8.9216-31.29l-8.7e-4 -2e-3c0-16.04-3.9516-26.885-12.873-33.097-6.3267-4.4052-13.333-4.8572-18.751-4.8572zm20.224 16.605h6.2114c6.0974 0 10.733 2.3721 10.733 20.673l1e-3 -2e-3c0 21.801-4.5219 24.625-10.171 24.625h-6.7746z"/><path class="st1" d="m478.73 1.356-25.303 78.734h21.236l4.2954-15.137h18.637l4.0672 15.137h21.916l-23.837-78.734zm9.9449 22.595c0.10981 2.9368 0.67439 7.5672 1.467 11.07l3.3873 14.345h-10.163l3.1635-12.878c1.3515-5.309 1.916-9.5999 2.1455-12.537z"/><path class="st1" d="m401.91 1.356v16.718h18.298v62.015h20.448v-62.015h18.296l2.3751-16.718z"/><path class="st1" d="m369.15 0c-17.621 0-30.5 10.391-30.5 25.981 0 13.555 7.7937 19.768 19.203 22.819l9.2635 2.3693c5.4204 1.4698 7.9052 2.9396 7.9052 6.4394 0 4.2925-3.1607 7.2306-11.069 7.2306-8.022 0-16.492-3.048-22.14-6.327l-7.118 15.813c7.9091 4.1815 17.17 7.1196 29.033 7.1196 20.445 0 34.452-9.9436 34.452-28.806l8.7e-4 -1e-3c0-15.814-12.201-19.654-20.673-21.799l-8.0176-2.0344c-5.875-1.4684-7.6812-4.0658-7.6812-6.6661 0-3.1635 2.8242-5.6483 8.0205-5.6483 5.4217 0 12.424 2.0344 17.733 5.5372l9.7141-14.346c-7.0029-4.8572-17.169-7.6812-28.126-7.6812z"/><path class="st1" d="m275.39 1.357v16.718h18.299v62.015h20.448v-62.015h18.296l2.3736-16.718z"/><path class="st1" d="m240.75 17.959c4.8586 0 8.133 1.2431 8.133 7.7937 0 8.5848-2.9354 10.279-9.2609 10.279h-5.875v-18.073h7.0026zm30.163 7.9066c0-17.96-11.748-24.512-31.744-24.512h-25.64v78.734h20.218v-28.012h6.3269c25.754-1e-5 30.839-14.573 30.839-26.208"/><path class="st1" d="m198.47 1.3544h-20.218v51.736c0 7.6827-2.0358 11.748-9.2635 11.748-7.118 0-9.3749-4.8586-9.3749-12.088v-51.397h-20.334v53.543c0 10.504 0.90387 12.426 3.8392 16.717 4.7458 6.4353 13.331 9.8282 25.757 9.8282 15.588 0 24.398-6.1015 27.673-12.654 1.6965-3.162 1.9217-6.2114 1.9217-12.989v-54.447zm-94.431 48.007h-10.166l3.1634-12.878c1.3544-5.309 1.9189-9.5999 2.1456-12.537 0.11263 2.9368 0.67578 7.5672 1.4698 11.07zm30.048 30.725-23.835-78.734h-21.012l-25.302 78.734h21.236l4.2939-15.137h18.639l4.066 15.137zm-77.491 0v-78.734h-20.218v28.917h-16.155v-28.917h-20.218v78.734h20.218v-33.097h16.155v33.097z"/><path class="st1" d="m198.47 1.3544h-20.218v51.736c0 7.6827-2.0358 11.748-9.2635 11.748-7.118 0-9.3749-4.8586-9.3749-12.088v-51.397h-20.334v53.543c0 10.504 0.90387 12.426 3.8392 16.717 4.7458 6.4354 13.331 9.8282 25.757 9.8282 15.588 0 24.398-6.1016 27.673-12.654 1.6965-3.162 1.9217-6.2114 1.9217-12.989v-54.447z"/><path class="st1" d="m104.03 49.361h-10.166l3.1634-12.878c1.3544-5.309 1.9189-9.5999 2.1456-12.537 0.11263 2.9368 0.67578 7.5672 1.4698 11.07zm30.048 30.725-23.835-78.734h-21.012l-25.302 78.734h21.236l4.2939-15.137h18.639l4.066 15.137z"/><path class="st1" d="m56.591 80.086v-78.734h-20.218v28.917h-16.155v-28.917h-20.218v78.734h20.218v-33.097h16.155v33.097z"/></g><g fill="#df063b"><path class="st0" d="m676.64 1.3544v16.718h18.296v26.191a40.241 40.241 0 0 1 9.682 26.159 40.241 40.241 0 0 1-1.3044 9.665h12.071v-62.015h17.556l21.089 62.016h18.182l27.787-78.734h-21.344l-11.183 30.726c-1.3572 4.0671-2.9395 9.037-4.1813 15.361h-0.1155c-1.2417-7.0025-2.1442-9.9393-3.7266-14.796l-9.9393-31.291h-13.451z" stroke-width=".08748"/><path d="m687.12 70.422a22.745 22.745 0 0 1-22.745 22.745 22.745 22.745 0 0 1-22.745-22.745 22.745 22.745 0 0 1 22.745-22.745 22.745 22.745 0 0 1 22.745 22.745z" stop-color="#000000" stroke-width=".81033"/></g></svg>
