<svg width="600pt" height="147.06pt" version="1.1" viewBox="0 0 600 147.06" xmlns="http://www.w3.org/2000/svg">
 <defs>
  <clipPath id="b">
   <path d="m309.92 187.1h2.299v9.471h-2.299z"/>
  </clipPath>
  <clipPath id="c">
   <path d="m302.43 173.81h53.664v35.776h-53.664z"/>
  </clipPath>
  <linearGradient id="a" x1="289.58" x2="889.58" y1="-699.33" y2="-699.33" gradientUnits="userSpaceOnUse">
   <stop stop-color="#fa00ff" offset="0"/>
   <stop stop-color="#ae00ff" offset="1"/>
  </linearGradient>
 </defs>
 <g transform="translate(-289.58 772.87)" fill="url(#a)">
  <path d="m330.68-625.82h558.9v-147.03h-558.9z"/>
  <g transform="matrix(15.524 0 0 -15.524 -4521.5 2278.7)">
   <g clip-path="url(#b)" fill="url(#a)">
    <g transform="translate(312.21 196.57)" fill="url(#a)">
     <path d="m0 0-2.297-5e-3v-9.465h2.297v9.47" fill="url(#a)"/>
    </g>
   </g>
  </g>
 </g>
 <g transform="matrix(15.524 0 0 -15.524 259.24 147.05)">
  <path d="m0 0h3.664z" fill="#7742a5"/>
 </g>
 <g transform="matrix(15.524 0 0 -15.524 -4811.1 3051.5)" fill="#fff">
  <g clip-path="url(#c)" fill="#fff">
   <g transform="translate(337.58 192.28)" fill="#fff">
    <path d="m0 0c-0.374 0.278-1.001 0.537-1.884 0.776l-0.115 0.032c-0.486 0.128-0.813 0.264-0.982 0.406-0.171 0.141-0.255 0.33-0.255 0.566 0 0.232 0.096 0.422 0.29 0.57 0.193 0.149 0.445 0.222 0.753 0.222 0.301 0 0.605-0.062 0.912-0.189s0.607-0.315 0.899-0.564l0.382 0.878zm-1.847-3.115c-0.222-0.186-0.504-0.278-0.848-0.278-0.369 0-0.74 0.107-1.112 0.322-0.371 0.215-0.748 0.54-1.13 0.973l-0.056-0.09c0.041 0.41 0.06 0.906 0.06 1.487v0.39c0.393-0.345 1.003-0.629 1.832-0.853 0.674-0.18 1.107-0.355 1.298-0.525s0.287-0.411 0.287-0.725c0-0.283-0.112-0.517-0.331-0.701m8.801 5.359c0.399 0 0.774-0.091 1.124-0.274 0.35-0.182 0.701-0.469 1.053-0.86v2.809c-0.313 0.152-0.626 0.283-0.938 0.376l-3.044-2e-3c-0.113-0.036-0.223-0.079-0.331-0.122-0.56-0.228-1.064-0.571-1.511-1.031-0.278-0.285-0.515-0.587-0.711-0.91v2.063h-2.596v-0.367c-0.276 0.15-0.562 0.275-0.858 0.367h-2.854c-0.382-0.143-0.721-0.356-1.016-0.635l-0.205-0.213v0.848h-2.557v-4.594c0-0.673-0.018-1.158-0.052-1.452-0.035-0.295-0.093-0.541-0.175-0.738-0.102-0.241-0.275-0.424-0.518-0.551-0.243-0.126-0.54-0.19-0.892-0.19s-0.65 0.064-0.895 0.19c-0.245 0.127-0.417 0.31-0.516 0.551-0.082 0.197-0.139 0.443-0.174 0.738-0.034 0.294-0.051 0.779-0.051 1.452v4.594h-2.565v-2.62l-0.401 2.62h-2.551l-1.437-4.858c-0.082-0.287-0.146-0.533-0.193-0.737s-0.08-0.39-0.096-0.558c-0.036 0.31-0.119 0.681-0.252 1.115l-0.051 0.167-1.425 4.871h-2.544l-1.456-9.471h2.382l0.562 4.111c0.047 0.348 0.088 0.697 0.122 1.047s0.065 0.703 0.09 1.06c0.056-0.395 0.175-0.892 0.355-1.489 0.034-0.125 0.06-0.216 0.077-0.277l1.288-4.452h1.705l1.285 4.452c0.017 0.061 0.045 0.152 0.084 0.277 0.176 0.597 0.294 1.096 0.354 1.495 0.026-0.417 0.055-0.801 0.087-1.153s0.068-0.673 0.106-0.96l0.569-4.111h2.389l-0.12 0.809c0.314-0.323 0.72-0.57 1.22-0.741l0.218-0.068h3.664l0.219 0.068c0.543 0.185 0.973 0.459 1.292 0.822 0.402-0.338 0.817-0.596 1.245-0.774 0.105-0.043 0.213-0.081 0.322-0.116h2.922c0.45 0.152 0.843 0.383 1.179 0.693l0.118 0.116-4e-3 -0.809h2.604l-4e-3 2.058c0.36-0.602 0.848-1.109 1.465-1.522 0.344-0.236 0.72-0.414 1.128-0.536h2.94c0.332 0.096 0.666 0.225 1.002 0.387v2.816c-0.352-0.396-0.703-0.685-1.053-0.866-0.35-0.184-0.725-0.274-1.124-0.274-0.721 0-1.316 0.247-1.782 0.747-0.465 0.497-0.698 1.125-0.698 1.881 0 0.811 0.228 1.47 0.685 1.974 0.458 0.505 1.056 0.757 1.795 0.757" fill="#fff"/>
   </g>
  </g>
 </g>
 <path d="m3.8189 2.0413v22.245h6.1318v-8.0566h22.044v-6.1465h-22.044v-8.042zm10.619 27.431c-5.9611 0.093142-10.79 4.9678-10.79 10.96 0 5.9767 4.8289 10.867 10.79 10.96v0.03075h17.558v-6.1626h-5.6514v-9.6724h5.6514v-6.1157h-17.388zm-3e-3 6.1128h6.3647v9.6724h-6.3647c-2.577-0.09314-4.6582-2.2201-4.6582-4.8281s2.0812-4.735 4.6582-4.8281zm-10.616 19.455v6.6753c5.7904 0.326 10.417 5.1227 10.417 10.991s-4.6261 10.68-10.417 10.991v6.6914c9.4851-0.31047 17.123-8.135 17.123-17.682 0-9.5472-7.6375-17.371-17.123-17.666zm21.624 14.266v7.1572h6.5362v-7.1572zm-11.005 24.807v0.01613c-5.9612 0.09315-10.79 4.9827-10.79 10.944 0 5.9922 4.8289 10.867 10.79 10.976v0.0146h17.558v-6.1464h-5.6514v-9.687h5.6514v-6.1172h-17.388zm-3e-3 6.1245h6.3647v9.6709h-6.3647c-2.577-0.0776-4.6582-2.2187-4.6582-4.8267s2.0813-4.735 4.6582-4.8281zm-10.616 21.555v6.148h16.983v9.6548h-16.983v6.1318h28.176v-6.1318h-5.6514v-9.6548h5.6514v-6.148z" fill="#fff"/>
</svg>
