<svg width="962.52pt" height="502.12pt" version="1.1" viewBox="0 0 962.52 502.12" xmlns="http://www.w3.org/2000/svg">
 <path d="m939.21 9.6504c-15.589-6.3841-43.204-9.6504-82.697-9.6504h-277.19l-18.856 73.937h238.14c16.332 0 27.17 0.4454 32.218 1.3362 11.729 2.6724 17.668 8.7596 17.668 18.262 0 5.1964-1.4847 13.214-4.4541 24.2l-44.986 176.68c-5.0479 19.746-11.58 31.772-19.598 36.375-7.8688 4.454-23.903 6.6811-47.955 6.6811h-132.88l55.082-219.88h-104.67l-66.217 260.41h-51.964l96.207-378h-105.41l-42.907 168.36h-189.74l31.178-123.53h-104.67l-115.51 457.28h801.88c42.165 0 56.715-29.1 61.614-48.104l92.941-366.42c4.1571-16.332 6.0872-29.397 6.0872-39.344 0.1485-19.301-7.7203-32.218-23.309-38.602zm-768.92 232.65h189.74l-34.593 135.7h-189.89zm631.58 259.82c38.75 0 54.933-21.973 61.614-48.104 5.0479-19.895 92.941-366.42 92.941-366.42" stroke-width="1.4847"/>
 <g transform="translate(-46.75 -35.88)" fill="#fff">
  <path d="m98.55 448.73c3.8-2.07 8.21-1.98 12.4-2.02 20.04 0.01 40.09-0.07 60.14 0.05-1.28 4.29-2.38 8.64-3.49 12.98-17.87 0.23-35.74-0.01-53.61 0.11-3.28-0.37999-6.15 2.25-6.8 5.35-3.06 11.58-6.19 23.15-9.2 34.75-1.56 4.56 2.3 9.24 6.99 9.01 16.47 0.07 32.95 0.06 49.43 0-1.06 4.76-2.52 9.43-3.67 14.18-21.21 0.01-42.43 0.04-63.64 0-6.15 0.52-12.1-4.76-12.21-10.94-0.28-3.87 1.14-7.55 2.08-11.24 3.43-12.96 6.93-25.91 10.35-38.87 1.65-5.78 5.75-10.82 11.23-13.36z"/>
  <path d="m166.65 523.14 45.08-76.435h30.16l5.13 76.435h-22.91l-1.01-12.215h-26.78l-7.45 12.215h-22.22m38.11-26.155h17.33l-2.1-25.065z"/>
  <path d="m286.6 446.69h22.24l11.42 48.745 34.8-48.745h24.07l-20.35 76.45h-19.78l9.02-39.785-26.35 39.785h-23.03l-1.06-39.785-10.7 39.785h-20.76z"/>
  <path d="m396.69 459.01 3.11-12.37h62.21c3.1 0.09 6.66-0.05 8.99 2.39 2.89 2.45 3.69 6.44 2.77 10.02l-5.84 21.92c-2.19 8.63-10.41 15.42-19.34 15.69h-41.33l-6.57 26.465h-21.1l14.78-55.955h19.8l-3.64 14.615h30.46c4.4103-0.0895 8.2924-3.232 9.6131-7.3586l2.2509-9.1972c0.84047-3.6666-3.2369-6.2191-6.8241-6.2191z"/>
  <path d="m496.2 446.7h19.99l-14.06 52.345c-1.3569 6.2748 0.7171 9.95 6.83 9.95h26.1c6.3965-0.0525 7.1308-3.3028 8.96-9l12.77-47.92c0.48-1.76 0.27-3.595 0.26-5.375h22.15l-17.75 66.905c-1.28 6.52-6.2076 9.585-14.41 9.585h-55.98c-8.0913 0-13.98-8.355-11.33-15.485z"/>
  <path d="m616 446.7h63.16l-3.3 11.655h-48.86c-5.1098-0.0964-9.6635 1.6007-10.77 5.73l-2.1788 6.5746c-1.023 3.818 0.82865 6.3503 4.8488 6.3503h36.15c8.16 0.12 14.313 8.4757 12.03 16.995l-3.7703 13.483c-2.4661 9.2036-12.679 15.699-22.32 15.622h-61.15l3.95-14.135h49.23c3.71 0.08 7.8-0.67 10.47-3.45 2.36-2.58 3.52-6.16 3.6-9.6 0.33-3.31-2.95-5.89-6.03-5.88l-37.08-0.02c-9.2531 0-12.834-7.0453-11.273-14.419l5.0562-18.582c2.965-8.0809 8.3844-10.447 18.237-10.323z"/>
  <path d="m725.21 446.72h76.94l-4.13 15.26h-25.83l-17.36 61.135h-26.02l16.49-61.135h-24.42z"/>
  <path d="m807 446.72h26.85l5.25 44.085 27.622-44.085h27.958l-46.556 76.395h-33.824z"/>
 </g>
</svg>
