<svg width="800" height="384.59" version="1.1" viewBox="0 0 211.67 101.76" xmlns="http://www.w3.org/2000/svg">
 <g transform="matrix(8.1117 0 0 8.1117 -705.7 -211.36)">
  <path d="m86.998 26.057v12.545h26.095v-12.545zm6.299 8.4503c0 0.0485-0.0469 0.0922-0.10162 0.0922h-0.53781c-0.0532 0-0.0969-0.0438-0.0969-0.0922v-1.9121h-2.3467v1.9121c0 0.0485-0.0422 0.0922-0.0969 0.0922h-0.53782c-0.0531 0-0.10162-0.0438-0.10162-0.0922v-4.2838c0-0.0547 0.036-0.0782 0.0844-0.086l0.56752-0.0766c0.0594-6e-3 0.0844 0.0422 0.0844 0.0844v1.8526h2.3467v-1.7745c0-0.0547 0.036-0.0782 0.0844-0.086l0.56908-0.0766c0.0594-6e-3 0.0829 0.0422 0.0829 0.0844zm2.4561 0.0922h-1.7307c-0.0485 0-0.0969-0.0438-0.0969-0.0969v-4.2666c0-0.0547 0.0485-0.0985 0.0969-0.0985h1.7307c1.4149 0 2.0528 0.45965 2.0528 2.2279 0 1.776-0.63787 2.2341-2.0528 2.2341m16.805 3.4692h-12.354v-11.479h12.354z"/>
  <path d="m95.668 30.687h-1.0022v3.3504h1.0022c0.97088 0 1.393-0.23608 1.393-1.6838s-0.42213-1.6666-1.393-1.6666"/>
  <path d="m108.22 32.727h-1.4727v1.504c0 0.0922-0.0453 0.13758-0.12038 0.13758h-0.48935c-0.0766 0-0.12195-0.0453-0.12195-0.12976v-1.5118h-1.4727c-0.0922 0-0.12976-0.0532-0.12976-0.13133v-0.42837c0-0.0766 0.0453-0.12195 0.12976-0.12195h1.4727v-1.5118c0-0.061 0.0438-0.10631 0.11257-0.10631h0.48935c0.0766 0 0.12976 0.0453 0.12976 0.12976v1.4868h1.4727c0.0829 0 0.13602 0.0547 0.13602 0.13132v0.42838c0 0.0782-0.0438 0.12351-0.13602 0.12351"/>
 </g>
</svg>
