<svg enable-background="new 0 0 800 203.9" version="1.1" viewBox="0 0 800 203.9" xml:space="preserve" xmlns="http://www.w3.org/2000/svg">
<path d="m644.25 101.94c0 56.318-45.625 101.94-101.94 101.94s-101.94-45.625-101.94-101.94 45.625-101.94 101.94-101.94 101.94 45.625 101.94 101.94" fill="#93c124" stroke-width="2.3763"/><path d="m424.92 118.34h63.922l6.8913-27.09 6.8913 27.09h7.8418l5.4655 20.199 14.733-107.41 11.406 135.45 7.1289-48.239h11.644s6.6536-12.119 11.644-12.119c5.4655 0.23763 11.406 12.119 11.406 12.119h27.803" fill="none" stroke="#fff" stroke-linecap="round" stroke-linejoin="round" stroke-miterlimit="10" stroke-width="6.656"/><path d="m611.7 130.46c-6.6536 0-12.119-5.4655-12.119-12.119s5.4655-12.119 12.119-12.119 12.119 5.4655 12.119 12.119-5.4655 12.119-12.119 12.119" fill="#f4cc25" stroke-width="2.3763"/><path d="m611.7 109.55c4.7526 0 8.7923 4.0397 8.7923 8.7923 0 4.9902-4.0397 8.7923-8.7923 8.7923-4.9902 0-8.7923-4.0397-8.7923-8.7923 0-4.9902 3.8021-8.7923 8.7923-8.7923m0-6.6536c-8.5547 0-15.446 6.8913-15.446 15.446s6.8913 15.446 15.446 15.446 15.446-6.8913 15.446-15.446-6.8913-15.446-15.446-15.446" fill="#fff" stroke-width="2.3763"/><text x="616.3056" y="159.97165" fill="#4a4a49" font-family="Ubuntu-Bold" font-size="149.11px" stroke-width=".99995"> </text>
<g transform="matrix(2.3763 0 0 2.3763 -103.57 -110.5)" fill="#4a4a49">
		<path d="m43.6 113.8v-47.2l9.4-1.5v15.8c0.6-0.2 1.4-0.4 2.4-0.6s2-0.3 2.9-0.3c2.7 0 4.9 0.4 6.7 1.1s3.2 1.7 4.3 3.1c1.1 1.3 1.8 2.9 2.3 4.8 0.5 1.8 0.7 3.9 0.7 6.1v18.6h-9.4v-17.4c0-3-0.4-5.1-1.2-6.4s-2.2-1.9-4.3-1.9c-0.8 0-1.6 0.1-2.4 0.3-0.7 0.1-1.4 0.3-1.9 0.4v25.1h-9.5z"/>
		<path d="m77.5 97.6c0-2.9 0.4-5.5 1.3-7.7s2.1-4.1 3.6-5.5c1.5-1.5 3.1-2.6 5-3.3 1.9-0.8 3.9-1.1 5.9-1.1 4.7 0 8.4 1.4 11.1 4.3 2.7 2.8 4.1 7 4.1 12.6 0 0.5 0 1.2-0.1 1.8 0 0.6-0.1 1.2-0.1 1.7h-21.2c0.2 1.9 1.1 3.5 2.7 4.6s3.7 1.7 6.4 1.7c1.7 0 3.4-0.1 5-0.4 1.7-0.3 3-0.7 4.1-1.2l1.3 7.6c-0.5 0.3-1.2 0.5-2 0.8s-1.8 0.5-2.8 0.6c-1 0.2-2.1 0.4-3.3 0.5s-2.3 0.2-3.5 0.2c-3 0-5.6-0.4-7.8-1.3s-4-2.1-5.5-3.6c-1.4-1.5-2.5-3.4-3.2-5.5s-1-4.4-1-6.8zm22-3.6c0-0.8-0.2-1.6-0.4-2.3-0.2-0.8-0.6-1.4-1.1-2s-1.1-1.1-1.8-1.4c-0.7-0.4-1.6-0.6-2.7-0.6-1 0-1.9 0.2-2.7 0.6-0.8 0.3-1.4 0.8-1.9 1.4s-0.9 1.3-1.2 2.1-0.4 1.5-0.6 2.3l12.4-0.1z"/>
	<g transform="translate(109.79 113.82)">
		<path d="m17-6.5c0.9 0 1.8 0 2.6-0.1s1.5-0.1 2-0.2v-7.1c-0.3-0.1-0.9-0.1-1.6-0.2-0.8-0.1-1.4-0.1-2.1-0.1-0.9 0-1.7 0.1-2.5 0.2s-1.4 0.3-2 0.6-1 0.7-1.4 1.2c-0.3 0.5-0.5 1.1-0.5 1.9 0 1.5 0.5 2.5 1.4 3.1 1 0.4 2.4 0.7 4.1 0.7zm-0.7-27.4c2.8 0 5.1 0.3 6.9 0.9s3.3 1.5 4.4 2.7 1.9 2.6 2.4 4.3 0.7 3.5 0.7 5.6v19.5c-1.3 0.3-3.2 0.6-5.6 1s-5.3 0.6-8.7 0.6c-2.1 0-4.1-0.2-5.8-0.6s-3.2-1-4.5-1.8c-1.3-0.9-2.2-2-2.9-3.4s-1-3.1-1-5.1c0-1.9 0.4-3.6 1.1-4.9 0.8-1.3 1.8-2.4 3.1-3.2s2.8-1.4 4.5-1.7c1.7-0.4 3.4-0.6 5.2-0.6 1.2 0 2.3 0.1 3.2 0.2 1 0.1 1.7 0.2 2.3 0.4v-0.9c0-1.6-0.5-2.9-1.4-3.8s-2.6-1.4-5-1.4c-1.6 0-3.2 0.1-4.7 0.4-1.5 0.2-2.9 0.5-4 0.9l-1.2-7.5c0.5-0.2 1.2-0.3 2-0.5s1.7-0.4 2.7-0.5c1-0.2 2-0.3 3-0.4 1.1-0.1 2.2-0.2 3.3-0.2z" fill="#4a4a49"/>
	</g>
	<g transform="translate(142.92 113.82)">
		<path d="m17.6 0.6c-2.7 0-4.9-0.3-6.7-0.9-1.7-0.5-3-1.3-4-2.3s-1.6-2.2-2-3.6c-0.3-1.4-0.5-3-0.5-4.8v-36.3l9.4-1.5v36c0 0.8 0.1 1.6 0.2 2.3s0.4 1.2 0.7 1.7c0.4 0.5 0.9 0.8 1.6 1.1s1.6 0.5 2.7 0.6l-1.4 7.7z"/>
		<path d="m22.5-41.2 9.4-1.5v9.7h11.2v7.8h-11.3v11.6c0 2 0.3 3.5 1 4.7s2.1 1.8 4.2 1.8c1 0 2-0.1 3.1-0.3s2.1-0.5 2.9-0.8l1.3 7.3c-1.1 0.5-2.4 0.9-3.8 1.2s-3.1 0.5-5.1 0.5c-2.6 0-4.7-0.3-6.3-1-1.7-0.7-3-1.7-4-2.9-1-1.3-1.7-2.8-2.1-4.5-0.4-1.8-0.6-3.7-0.6-5.8l0.1-27.8z"/>
	</g>
	<g transform="translate(187.6 113.82)">
		<path d="m4.4 0v-47.2l9.4-1.5v15.8c0.6-0.2 1.4-0.4 2.4-0.6s2-0.3 2.9-0.3c2.7 0 4.9 0.4 6.7 1.1s3.2 1.7 4.3 3.1c1.1 1.3 1.8 2.9 2.3 4.8 0.5 1.8 0.7 3.9 0.7 6.1v18.7h-9.4v-17.5c0-3-0.4-5.1-1.2-6.4s-2.2-1.9-4.3-1.9c-0.8 0-1.6 0.1-2.4 0.3-0.7 0.1-1.4 0.3-1.9 0.4v25.1h-9.5z" fill="#4a4a49"/>
	</g>
	<g transform="translate(319.38 113.82)">
		<path d="m4.1-41.2 9.4-1.5v9.7h11.2v7.8h-11.3v11.6c0 2 0.3 3.5 1 4.7s2.1 1.8 4.2 1.8c1 0 2-0.1 3.1-0.3s2.1-0.5 2.9-0.8l1.4 7.3c-1.1 0.5-2.4 0.9-3.8 1.2s-3.1 0.5-5.1 0.5c-2.6 0-4.7-0.3-6.3-1-1.7-0.7-3-1.7-4-2.9-1-1.3-1.7-2.8-2.1-4.5-0.4-1.8-0.6-3.7-0.6-5.8v-27.8z" fill="#4a4a49"/>
	</g>
		<path d="m359.7 113.8c-2.1-4.2-4.3-9.1-6.5-14.7s-4.2-11.7-6.2-18.3h9.9c0.4 1.6 0.9 3.4 1.4 5.3 0.6 1.9 1.2 3.8 1.8 5.8 0.6 1.9 1.2 3.8 1.8 5.6s1.2 3.5 1.8 5c0.5-1.5 1.1-3.2 1.8-5 0.6-1.8 1.2-3.7 1.8-5.6 0.6-2 1.2-3.9 1.8-5.8s1.1-3.7 1.5-5.3h9.7c-2 6.6-4.1 12.7-6.3 18.3s-4.3 10.5-6.5 14.7h-7.8z" fill="#4a4a49"/>
</g>
</svg>
