<?xml version="1.0" encoding="UTF-8"?>
<!-- Created with Inkscape (http://www.inkscape.org/) -->
<svg id="svg442563" width="286.47" height="149.5" version="1.1" xmlns="http://www.w3.org/2000/svg" xmlns:cc="http://creativecommons.org/ns#" xmlns:dc="http://purl.org/dc/elements/1.1/" xmlns:rdf="http://www.w3.org/1999/02/22-rdf-syntax-ns#">
 <metadata id="metadata442568">
  <rdf:RDF>
   <cc:Work rdf:about="">
    <dc:format>image/svg+xml</dc:format>
    <dc:type rdf:resource="http://purl.org/dc/dcmitype/StillImage"/>
    <dc:title/>
   </cc:Work>
  </rdf:RDF>
 </metadata>
 <g id="layer1" transform="translate(-255.74 -471.32)" fill="#00aad4">
  <path id="path135642" d="m351.04 471.32-95.303 60.376h190.34l-95.038-60.376z"/>
  <path id="path135646" d="m328.15 618.86h-20.656v-33.436h-30.818v33.436h-20.656v-80.436h20.656v28.841h30.818v-28.841h20.656v80.436z"/>
  <path id="path135650" d="m374.57 620.82c-26.156 0-44.415-17.342-44.415-42.184s18.259-42.184 44.415-42.184c14.117 0 25.118 3.4794 32.696 10.35l1.1488 1.0494-14.536 15.453-1.1709-1.193c-4.6945-4.7939-10.118-6.8484-18.137-6.8484-13.807 0-23.086 9.3889-23.086 23.373 0 13.973 9.2785 23.373 23.086 23.373 7.0472 0 12.128-1.8557 14.901-3.2143v-10.096h-14.238v-18.811h34.22v42.902l-0.83948 0.43079c-9.9302 5.0369-21.385 7.5995-34.043 7.5995"/>
  <path id="path135654" d="m508.15 618.86h-16.149l-25.549-62.276h-14.061v62.276h-20.656v-62.276h-22.655v-18.159h73.311l18.656 48.182 18.977-48.182h22.18l-34.054 80.436z"/>
 </g>
</svg>
