<svg width="800" height="485.87" version="1.1" viewBox="0 0 800 485.87" xml:space="preserve" xmlns="http://www.w3.org/2000/svg"><g transform="matrix(1.3333 0 0 -1.3333 -170.95 1453.4)"><g fill="#3cb9d2"><path d="m542.85 955.46-207.32 134.58-207.32-134.58z"/><path d="m128.28 944.73h52.562v-55.475h49.368v55.475h52.567v-157.32h-52.567v56.48h-49.368v-56.48h-52.562z"/><path d="m289.56 865.67v0.45073c0 46.941 37.054 81.989 86.699 81.989 26.95 0 50.234-8.9899 67.303-23.81l-29.426-35.494c-10.332 8.7521-21.784 12.209-34.81 12.209-20.436 0-33.775-14.23-33.775-35.563v-0.45073c0-22.249 16.444-36.034 36.019-36.034 8.9849 0 13.923 2.11 17.97 4.3488v10.56h-26.955v36.628h76.149v-72.781c-17.073-13.928-42.374-23.582-70.899-23.582-48.971 0-88.274 32.785-88.274 81.528"/><path d="m669.5 944.73-30.541-88.383-30.541 88.383h-159.42v-44.097h41.779v-113.2h52.538v113.2h24.191l45.861-113.2h50.289l63.771 157.3z"/><path d="m128.4 776.16h10.902v-19.604h20.1v19.604h10.897v-49.541h-10.897v19.887h-20.1v-19.887h-10.902z"/><path d="m218.43 751.25v0.14364c0 8.4896-6.226 15.568-15.003 15.568s-14.864-6.9343-14.864-15.429v-0.13869c0-8.4946 6.231-15.573 15.003-15.573 8.7769 0 14.864 6.9343 14.864 15.429m-41.264 0v0.14364c0 14.082 11.115 25.617 26.4 25.617s26.256-11.392 26.256-25.479v-0.13869c0-14.087-11.11-25.622-26.395-25.622-15.29 0-26.261 11.392-26.261 25.479"/><path d="m236.69 776.16h11.749l13.022-20.947 13.022 20.947h11.749v-49.541h-10.827v32.344l-13.943-21.165h-0.28233l-13.799 20.952v-32.131h-10.689z"/><path d="m295.29 776.16h37.371v-9.6982h-26.539v-10.05h23.354v-9.6932h-23.354v-10.406h26.89v-9.6932h-37.723z"/><path d="m384.6 763.78v0.14364c0 2.8282-1.9119 4.6014-4.6708 4.6014-2.9025 0-4.8144-2.0555-4.8144-5.0274v-0.14364c0-2.1942 0.84698-3.8188 2.9025-6.1567 4.3142 1.6296 6.5827 3.4672 6.5827 6.5827m-0.56465-26.118-9.4852 9.6239c-3.2592-1.694-4.6014-4.1012-4.6014-6.5084v-0.14364c0-3.4672 2.9025-5.8001 6.9344-5.8001 2.4766 0 4.8838 1.06 7.1523 2.8282m6.0824-6.226c-4.0318-3.3285-8.7769-5.5227-14.508-5.5227-9.4802 0-16.633 5.5227-16.633 14.3v0.13869c0 6.3003 3.3978 10.758 9.6288 13.591-2.4072 3.3978-3.4721 6.5084-3.4721 9.9062v0.14364c0 6.7957 5.4484 13.022 15.008 13.022 8.4203 0 13.943-5.5178 13.943-12.457v-0.14364c0-6.652-4.2498-10.54-10.406-12.947l6.5827-6.5827c1.6296 2.5459 3.2542 5.4484 4.8144 8.4896l7.9943-4.3835c-1.907-3.4721-4.0318-7.1523-6.5084-10.481l7.291-7.286-7.9993-5.5921z"/><path d="m430.82 751.25v0.14364c0 14.082 10.971 25.617 25.974 25.617 8.9156 0 14.3-2.4072 19.466-6.7907l-6.865-8.2816c-3.8238 3.1848-7.2216 5.0224-12.952 5.0224-7.9299 0-14.225-7.0086-14.225-15.429v-0.13869c0-9.0592 6.226-15.716 15.003-15.716 3.9625 0 7.504 0.99557 10.263 2.9768v7.073h-10.971v9.4158h21.516v-21.516c-5.0967-4.3191-12.105-7.8556-21.165-7.8556-15.424 0-26.043 10.827-26.043 25.479"/><path d="m514.12 747.36-6.5827 16.068-6.5827-16.068zm-11.461 29.159h10.045l21.234-49.898h-11.392l-4.5321 11.115h-20.947l-4.5321-11.115h-11.115z"/><path d="m560.69 752.1c5.3097 0 8.3509 2.8332 8.3509 7.0086v0.13869c0 4.6757-3.2542 7.078-8.5639 7.078h-10.827v-14.225zm-21.942 24.062h22.651c6.3004 0 11.179-1.7683 14.438-5.0224 2.7589-2.7589 4.2498-6.657 4.2498-11.323v-0.14364c0-7.9943-4.3241-13.022-10.619-15.36l12.1-17.692h-12.739l-10.614 15.855h-8.5639v-15.855h-10.902z"/><path d="m597.99 766.33v-29.867h8.4203c8.9205 0 14.934 6.018 14.934 14.795v0.13869c0 8.7769-6.0131 14.934-14.934 14.934zm-10.902 9.8369h19.322c15.573 0 26.331-10.684 26.331-24.627v-0.14364c0-13.943-10.758-24.77-26.331-24.77h-19.322z"/><path d="m639.6 776.16h37.371v-9.6982h-26.539v-10.05h23.354v-9.6932h-23.354v-10.406h26.89v-9.6932h-37.723z"/><path d="m684.19 776.16h10.05l23.215-30.506v30.506h10.758v-49.541h-9.2722l-23.993 31.492v-31.492h-10.758z"/></g></g></svg>
