<svg width="764.5" height="800" fill="none" version="1.1" viewBox="0 0 764.5 800" xmlns="http://www.w3.org/2000/svg">
 <path d="m764.5 625.54h-764.5v12.491h764.5z" fill="#ee2d2b" stroke-width="1.6837"/>
 <g transform="matrix(1.1475 0 0 1.1475 36.959 228.13)" stroke-width="1.3944">
  <path d="m55.35 312.1v-9.0792l3.9064-0.0321c0.09259 0 0.29339 0.0153 0.55582 0.0153 7.8898 0 15.533-3.1779 22.156-7.2399 8.5537-5.257 13.139-14.451 14.606-24.172 0.33968-2.2478 0.5713-4.5431 0.49405-6.823 0 0 1.4e-4 -7.5969-0.01534-7.5969v-410.19c-0.18532-4.9926-1.8683-21.645-15.455-29.506-10.221-6.512-19.254-7.0237-21.77-7.0237-0.26257 0-0.44775-2e-5 -0.55596 0.0155l-4.2151-0.0775v-9.0326h198.35v9.0481l-2.7024 0.062c-0.10877 0-0.2775-0.0155-0.54104-0.0155-2.517 0-11.533 0.51167-21.831 7.0548-13.572 7.861-15.131 24.575-15.301 29.506l-0.0781 6.9772-0.0153 1.9537v4.3258l0.18546 122.45h175.51l0.18545-122.44s0-6.2794-0.0153-6.2794v-6.9153c-0.17012-5.0082-1.7904-21.707-15.456-29.615-10.221-6.512-19.238-7.0237-21.77-7.0237-0.26215 0-0.44761-2e-5 -0.53964 0.0155l-2.7024-0.062 0.0153-9.2032h198.38l-0.0153 9.1877-4.2614 0.0775c-0.0934 0-0.27887-0.0155-0.55638-0.0155-2.517 0-11.533 0.51167-21.831 7.0548-13.526 7.83-15.194 24.482-15.379 29.397v410.27h-0.0307v7.6596c-0.0307 0.82132-0.57172 21.862 15.471 31.149 10.221 6.512 19.238 7.0238 21.755 7.0238 0.27749 0 0.46295 0 0.55637-0.0153l4.2767 0.0474v9.0792h-198.41l0.0767-9.266h2.6717c0.0767 0 0.23148 0.0153 0.46295 0.0153 2.517 0 11.472-0.30957 21.863-6.915 12.583-7.272 14.9-22.125 15.316-28.172v-0.14083l0.0614-174.25h-176.36l-0.35558 171.62 0.17014 4.8373c0.40159 6.0476 3.4582 19.893 16.12 27.212 10.221 6.512 18.775 5.9375 21.292 5.9375 0.27749 0 0.46295 0 0.55498-0.0153l2.3942 0.0307v9.0792h-197.23zm93.731-46.663h9.0833v-223.13h284.97v223.24h9.0987v-425.46h-9.0987v193.52h-284.97v-193.5h-9.0833z" fill="url(#paint0_linear_29_544)" fill-opacity=".3"/>
  <path d="m55.35 312.1v-9.0792l3.9064-0.0321c0.09259 0 0.29339 0.0153 0.55582 0.0153 7.8898 0 15.533-3.1779 22.156-7.2399 8.5537-5.257 13.139-14.451 14.606-24.172 0.33968-2.2478 0.5713-4.5431 0.49405-6.823 0 0 1.4e-4 -7.5969-0.01534-7.5969v-410.19c-0.18532-4.9926-1.8683-21.645-15.455-29.506-10.221-6.512-19.254-7.0237-21.77-7.0237-0.26257 0-0.44775-2e-5 -0.55596 0.0155l-4.2151-0.0775v-9.0326h198.35v9.0481l-2.7024 0.062c-0.10877 0-0.2775-0.0155-0.54104-0.0155-2.517 0-11.533 0.51167-21.831 7.0548-13.572 7.861-15.131 24.575-15.301 29.506l-0.0781 6.9772-0.0153 1.9537v4.3258l0.18546 122.45h175.51l0.18545-122.44s0-6.2794-0.0153-6.2794v-6.9153c-0.17012-5.0082-1.7904-21.707-15.456-29.615-10.221-6.512-19.238-7.0237-21.77-7.0237-0.26215 0-0.44761-2e-5 -0.53964 0.0155l-2.7024-0.062 0.0153-9.2032h198.38l-0.0153 9.1877-4.2614 0.0775c-0.0934 0-0.27887-0.0155-0.55638-0.0155-2.517 0-11.533 0.51167-21.831 7.0548-13.526 7.83-15.194 24.482-15.379 29.397v410.27h-0.0307v7.6596c-0.0307 0.82132-0.57172 21.862 15.471 31.149 10.221 6.512 19.238 7.0238 21.755 7.0238 0.27749 0 0.46295 0 0.55637-0.0153l4.2767 0.0474v9.0792h-198.41l0.0767-9.266h2.6717c0.0767 0 0.23148 0.0153 0.46295 0.0153 2.517 0 11.472-0.30957 21.863-6.915 12.583-7.272 14.9-22.125 15.316-28.172v-0.14083l0.0614-174.25h-176.36l-0.35558 171.62 0.17014 4.8373c0.40159 6.0476 3.4582 19.893 16.12 27.212 10.221 6.512 18.775 5.9375 21.292 5.9375 0.27749 0 0.46295 0 0.55498-0.0153l2.3942 0.0307v9.0792h-197.23zm93.731-46.663h9.0833v-223.13h284.97v223.24h9.0987v-425.46h-9.0987v193.52h-284.97v-193.5h-9.0833z" fill="url(#paint1_linear_29_544)" fill-opacity=".6"/>
  <path d="m57.652 309.81v-4.5124l3.9062-0.0307c0.09259 0 0.29339 0.0153 0.55582 0.0153 2.5167 0 11.549-0.51176 21.832-7.0544 15.98-9.2409 15.425-30.282 15.409-31.181v-7.5969h-0.01548v-414.76c-0.18518-4.9926-1.8683-21.645-15.455-29.506-10.221-6.5122-19.254-7.0238-21.77-7.0238-0.26243 0-0.44775-1e-5 -0.55582 0.0155l-4.2151-0.0775v-4.4654h193.8v4.4809l-2.7024 0.062c-0.10737 0-0.27749-0.0155-0.53964-0.0155-2.517 0-11.533 0.51167-21.833 7.0548-13.571 7.861-15.146 24.56-15.316 29.506l-0.0614 6.9772-0.0153 1.9537v4.3258l0.18546 127.02h180.06l0.18546-127v-6.2794h-0.0153v-6.9153c-0.17012-5.0081-1.7918-21.707-15.456-29.615-10.221-6.5122-19.238-7.0238-21.77-7.0238-0.26216 0-0.44762-1e-5 -0.54104 0.0155l-2.701-0.062-0.0167-4.605h193.83l0.0153 4.5895-4.2614 0.0775c-0.092 0-0.27749-0.0155-0.55498-0.0155-2.517 0-11.533 0.51167-21.833 7.0548-13.525 7.83-15.192 24.482-15.378 29.397v414.84h-0.0307v7.6596c-0.0307 0.82133-0.57172 21.862 15.47 31.149 10.221 6.512 19.239 7.0238 21.756 7.0238 0.27749 0 0.46295 0 0.55498-0.0153l4.2767 0.046v4.5124h-193.86v-4.4956h2.6717c0.0767 0 0.23148 0.0153 0.46295 0.0153 2.517 0 11.549-0.51176 21.925-7.1172 12.583-7.272 14.9-22.125 15.316-28.173v-0.13945l0.0614-178.82h-180.88l0.0614 178.88v0.0614c0.4016 6.0477 2.7178 20.901 15.378 28.219 10.221 6.512 19.238 7.0238 21.755 7.0238 0.27889 0 0.46296 0 0.55638-0.0153l2.6871 0.0307v4.5124zm89.181-42.097h13.633v-223.13h280.42v223.24h13.649v-430.03h-13.649v193.52h-280.42v-193.5h-13.633z" fill="url(#paint2_linear_29_544)"/>
  <path d="m57.652 309.81v-4.5124l3.9062-0.0307c0.09259 0 0.29339 0.0153 0.55582 0.0153 2.5167 0 11.549-0.51175 21.832-7.0544 15.98-9.2409 15.425-30.282 15.409-31.181v-7.5983h-0.01548v-414.76c-0.18518-4.9926-1.8681-21.645-15.455-29.506-10.221-6.5121-19.254-7.0238-21.77-7.0238-0.26243 0-0.44775-1e-5 -0.55582 0.0155l-4.2151-0.0775v-4.4654h193.8v4.4809l-2.7024 0.062c-0.10737 0-0.27749-0.0155-0.53964-0.0155-2.517 0-11.533 0.51167-21.833 7.0549-13.571 7.861-15.131 24.575-15.301 29.506l-0.0767 6.9773-0.0153 1.9536v4.326l0.18546 127.02h180.06l0.18546-127v-6.2796h-0.0153v-6.9153c-0.17012-5.0081-1.7918-21.707-15.456-29.615-10.221-6.5121-19.238-7.0238-21.77-7.0238-0.26216 0-0.44762-1e-5 -0.54104 0.0155l-2.701-0.062 0.0153-4.636h193.83l-0.0153 4.6205-4.2614 0.0775c-0.092 0-0.27749-0.0155-0.55498-0.0155-2.517 0-11.533 0.51167-21.833 7.0549-13.525 7.83-15.192 24.482-15.378 29.397v414.84h-0.0307v7.6596c-0.0307 0.82272-0.57172 21.862 15.47 31.15 10.223 6.512 19.239 7.0238 21.756 7.0238 0.27749 0 0.46295 0 0.55498-0.0153l4.2767 0.046v4.5124h-193.86l0.0781-4.6978h2.6703c0.0781 0 0.23148 0.0153 0.46435 0.0153 2.5156 0 11.471-0.31096 21.862-6.915 12.583-7.272 14.9-22.125 15.316-28.173v-0.13936l0.06273-178.82h-180.89l0.0614 178.88v0.0627c0.4016 6.0463 2.7178 20.901 15.378 28.219 10.221 6.512 19.238 7.0238 21.755 7.0238 0.27889 0 0.46296 0 0.55638-0.0153l2.6871 0.0307v4.5124zm89.181-42.097h13.633v-223.13h280.42v223.24h13.649v-430.03h-13.649v193.52h-280.42v-193.5h-13.633z" fill="url(#paint3_linear_29_544)"/>
  <path d="m57.652 309.81v-4.5124l3.9064-0.0307c0.09259 0 0.29325 0.0153 0.55582 0.0153 7.8898 0 15.533-3.1793 22.156-7.2413 8.5537-5.2556 13.139-14.451 14.606-24.172 0.33968-2.2478 0.5713-4.5431 0.49405-6.8216 0 0 0-7.5983-0.01534-7.5983v-414.76c-0.18532-4.9926-1.8683-21.645-15.455-29.506-10.221-6.5121-19.254-7.0238-21.77-7.0238-0.26243 0-0.44775-1e-5 -0.55582 0.0155l-4.2151-0.0775v-4.4654h193.8v4.4809l-2.7024 0.062c-0.10738 0-0.2775-0.0155-0.53965-0.0155-2.517 0-11.535 0.51167-21.833 7.0549-13.572 7.861-15.131 24.575-15.301 29.506l-0.0767 6.9773-0.0153 1.9536v4.326l0.18548 127.02h180.06l0.18546-127s0-6.2796-0.0153-6.2796v-6.9153c-0.17012-5.0081-1.7918-21.707-15.456-29.615-10.221-6.5121-19.239-7.0238-21.77-7.0238-0.26354 0-0.449-1e-5 -0.54104 0.0155l-2.7024-0.062 0.0153-4.636h193.83l-0.0153 4.6205-4.2614 0.0775c-0.092 0-0.27749-0.0155-0.55499-0.0155-2.517 0-11.535 0.51167-21.833 7.0549-13.526 7.83-15.192 24.482-15.378 29.397v414.84h-0.0307v7.6596c-0.0321 0.82272-0.57172 21.862 15.47 31.15 10.221 6.512 19.239 7.0238 21.755 7.0238 0.27889 0 0.46435 0 0.55638-0.0153l4.2767 0.046v4.5124h-193.86l0.0781-4.6978h2.6703c0.0767 0 0.23148 0.0153 0.46295 0.0153 2.517 0 11.472-0.31096 21.863-6.915 12.583-7.272 14.9-22.125 15.316-28.173v-0.13944l0.0614-178.82h-180.91l-0.35418 176.18 0.16874 4.8373c0.40159 6.0463 3.4596 19.893 16.12 27.211 10.221 6.512 18.775 5.9389 21.292 5.9389 0.27749 0 0.46295 0 0.55638-0.0153l2.3928 0.0307v4.5124h-192.68zm89.182-42.097h13.633v-223.13h280.42v223.24h13.65v-430.03h-13.65v193.52h-280.42v-193.5h-13.633z" fill="url(#paint4_linear_29_544)"/>
  <path d="m57.653 309.81v-4.5124l3.9062-0.0307c0.09273 0 0.29339 0.0153 0.55596 0.0153 7.8897 0 15.532-3.1793 22.156-7.2413 8.5536-5.2556 13.139-14.451 14.606-24.172 0.33968-2.2478 0.5713-4.5431 0.49405-6.8216 0 0 0-7.5983-0.01548-7.5983v-414.76c-0.18518-4.9926-1.8681-21.645-15.455-29.506-10.221-6.5121-19.254-7.0238-21.77-7.0238-0.26243 0-0.44775-1e-5 -0.55582 0.0155l-4.2151-0.0775v-4.4654h193.8v4.4809l-2.7024 0.062c-0.10738 0-0.2775-0.0155-0.53965-0.0155-2.517 0-11.535 0.51167-21.833 7.0549-13.572 7.861-15.131 24.575-15.301 29.506l-0.0767 6.9773-0.0153 1.9536v4.326l0.18546 127.02h180.06l0.18407-127s0-6.2796-0.0153-6.2796v-6.9153c-0.16873-5.0081-1.7904-21.707-15.455-29.615-10.221-6.5121-19.239-7.0238-21.771-7.0238-0.26215 0-0.44761-1e-5 -0.53964 0.0155l-2.7024-0.062 0.0153-4.636h193.83l-0.0153 4.6205-4.2614 0.0775c-0.092 0-0.27749-0.0155-0.55638-0.0155-2.5156 0-11.533 0.51167-21.831 7.0549-13.526 7.83-15.194 24.482-15.378 29.397v414.84h-0.0321v7.6596c-0.0307 0.82272-0.57032 21.862 15.471 31.15 10.221 6.512 19.238 7.0238 21.755 7.0238 0.27888 0 0.46434 0 0.55637-0.0153l4.2767 0.046v4.5124h-193.86l0.0767-4.6978h2.6717c0.0767 0 0.23147 0.0153 0.46295 0.0153 2.517 0 11.472-0.31096 21.863-6.915 12.583-7.272 14.9-22.125 15.316-28.173v-0.13944l0.0614-178.82h-180.91l-0.35558 176.18 0.17013 4.8373c0.4016 6.0463 3.4596 19.893 16.12 27.211 10.221 6.512 18.775 5.9389 21.292 5.9389 0.2775 0 0.46296 0 0.55638-0.0153l2.3928 0.0307v4.5124h-192.68zm89.182-42.097h13.633v-223.13h280.42v223.24h13.649v-430.03h-13.649v193.52h-280.42v-193.5h-13.633z" fill="url(#paint5_linear_29_544)"/>
 </g>
 <defs>
  <linearGradient id="paint0_linear_29_544" x1="74.14" x2="363.13" y1="279.98" y2="97.38" gradientTransform="matrix(1.3944 0 0 1.3944 -.32273 -199.3)" gradientUnits="userSpaceOnUse">
   <stop stop-color="#DD972C" offset="0"/>
   <stop stop-color="#F8CB45" offset=".26462"/>
   <stop stop-color="#F2AC2F" offset=".65468"/>
   <stop stop-color="#FDDB50" offset="1"/>
  </linearGradient>
  <linearGradient id="paint1_linear_29_544" x1="71.693" x2="362.74" y1="171" y2="270.64" gradientTransform="matrix(1.3944 0 0 1.3944 -.32273 -199.3)" gradientUnits="userSpaceOnUse">
   <stop stop-color="#DD972C" offset="0"/>
   <stop stop-color="#B55727" offset=".26462"/>
   <stop stop-color="#F2AC2F" offset=".48525"/>
   <stop stop-color="#E5B544" offset=".82586"/>
   <stop stop-color="#FDDB50" offset="1"/>
  </linearGradient>
  <linearGradient id="paint2_linear_29_544" x1="41.359" x2="390.69" y1="183.55" y2="183.55" gradientTransform="matrix(1.3944 0 0 1.3944 -.32273 -199.3)" gradientUnits="userSpaceOnUse">
   <stop stop-color="#EE9322" offset=".2066"/>
   <stop stop-color="#F2AC2F" offset=".4014"/>
   <stop stop-color="#F8CB45" offset=".6663"/>
   <stop stop-color="#FCDE54" offset=".8749"/>
   <stop stop-color="#FEE55A" offset="1"/>
  </linearGradient>
  <linearGradient id="paint3_linear_29_544" x1="306.74" x2="214.57" y1="334.3" y2="182.23" gradientTransform="matrix(1.3944 0 0 1.3944 -.32273 -199.3)" gradientUnits="userSpaceOnUse">
   <stop stop-color="#B55727" offset=".4326"/>
   <stop stop-color="#BD6829" stop-opacity=".9612" offset=".4596"/>
   <stop stop-color="#CB8331" stop-opacity=".8833" offset=".514"/>
   <stop stop-color="#D89D3A" stop-opacity=".7999" offset=".5722"/>
   <stop stop-color="#E4B442" stop-opacity=".7114" offset=".6339"/>
   <stop stop-color="#EEC749" stop-opacity=".6161" offset=".7005"/>
   <stop stop-color="#F6D54E" stop-opacity=".5105" offset=".7741"/>
   <stop stop-color="#FCDE52" stop-opacity=".3867" offset=".8605"/>
   <stop stop-color="#FEE153" stop-opacity=".2" offset=".9908"/>
  </linearGradient>
  <linearGradient id="paint4_linear_29_544" x1="216.03" x2="216.03" y1="313.5" y2="182.12" gradientTransform="matrix(1.3944 0 0 1.3944 -.32273 -199.3)" gradientUnits="userSpaceOnUse">
   <stop stop-color="#B55727" stop-opacity=".7" offset="0"/>
   <stop stop-color="#BF6C2A" stop-opacity=".6419" offset=".144"/>
   <stop stop-color="#DCA43C" stop-opacity=".4766" offset=".5534"/>
   <stop stop-color="#F2CE4C" stop-opacity=".3585" offset=".8458"/>
   <stop stop-color="#FEE153" stop-opacity=".3" offset=".9908"/>
  </linearGradient>
  <linearGradient id="paint5_linear_29_544" x1="65.167" x2="151.51" y1="357.52" y2="9.5119" gradientTransform="matrix(1.3944 0 0 1.3944 -.32273 -199.3)" gradientUnits="userSpaceOnUse">
   <stop stop-color="#B55727" stop-opacity=".7" offset="0"/>
   <stop stop-color="#BF6C2A" stop-opacity=".6419" offset=".41809"/>
   <stop stop-color="#F2CE4C" stop-opacity=".3585" offset=".8458"/>
   <stop stop-color="#FEE153" stop-opacity=".3" offset=".9908"/>
  </linearGradient>
 </defs>
 <g transform="matrix(1.6593 0 0 1.6593 -811.72 -26.894)" fill="#000" stroke-width="218.92">
  <path d="m489.2 424.92h15.55v27.908h28.835v-27.908h15.55v72.087h-15.55v-29.35h-28.835v29.35h-15.55z" style="white-space:pre"/>
  <path d="m579.93 424.92v72.087h-15.55v-72.087z" style="white-space:pre"/>
  <path d="m603.82 473.53q1.8537 4.6342 5.458 7.5177 3.7074 2.7805 8.4445 2.7805 3.8103 0 6.4879-1.8537 2.7805-1.8537 2.7805-5.3551 0-5.0461-7.5177-7.7237l-8.6505-3.0895q-7.9296-2.8835-12.564-7.8266-4.6342-4.9431-4.6342-12.77 0-4.9431 1.7507-8.8565 1.7507-4.0163 4.9431-6.7968 3.1924-2.8835 7.4147-4.4282 4.3252-1.5447 9.4744-1.5447 8.0326 0 14.623 4.1193 6.5908 4.1193 9.8863 11.431l-12.873 7.4147q-1.6477-3.6044-4.5312-6.076-2.7805-2.5746-6.7968-2.5746-3.6044 0-5.87 1.7507-2.1626 1.7507-2.1626 4.6342 0 2.5746 1.8537 4.2223t5.1491 2.8835l9.3714 3.6044q8.7535 3.2954 12.873 8.3416 4.2223 4.9431 4.2223 12.255 0 5.458-2.1626 9.6803-2.0596 4.2223-5.561 7.1058t-8.1356 4.4282q-4.5312 1.5447-9.5773 1.5447-4.5312 0-8.6505-1.2358-4.1193-1.1328-7.6207-3.2954-3.5014-2.2656-6.2819-5.561t-4.4282-7.6207z" style="white-space:pre"/>
  <path d="m647.48 424.92h53.551v14.417h-18.949v57.67h-15.55v-57.67h-19.052z" style="white-space:pre"/>
  <path d="m721.66 420.89 3.9955 5.8123c-4.4742 1.9111-8.3953 4.5061-11.753 7.7966-3.3641 3.3641-6.0406 7.3122-8.0316 11.843-1.9223 4.5312-2.8839 9.4055-2.8839 14.623s0.96154 10.092 2.8839 14.623c1.991 4.5312 4.6675 8.4794 8.0316 11.843 3.4327 3.3641 7.4502 6.0406 12.05 8.0316 4.5999 1.9223 9.5082 2.8839 14.726 2.8839s10.126-0.96153 14.726-2.8839c4.5999-1.991 8.582-4.6675 11.946-8.0316 3.4327-3.3641 6.1106-7.3122 8.0329-11.843 1.991-4.5312 2.9865-9.4055 2.9865-14.623s-0.99553-10.092-2.9865-14.623c-1.9223-4.5312-4.6002-8.4794-8.0329-11.843-3.2904-3.2904-7.1763-5.8854-11.649-7.7966l3.9955-5.8123zm12.792 18.605 6.227 9.0582 6.2189-9.0447c0.79546 0.24005 1.5735 0.52258 2.3287 0.86043 2.6775 1.1671 4.9773 2.7461 6.8997 4.7371 1.991 1.991 3.536 4.3588 4.6344 7.105 1.1671 2.7462 1.7506 5.6648 1.7506 8.7542s-0.58345 6.0067-1.7506 8.7529c-1.0985 2.7462-2.6435 5.1153-4.6344 7.1063-1.9223 1.991-4.2221 3.57-6.8997 4.7371-2.6089 1.1671-5.4581 1.7506-8.5476 1.7506s-5.9727-0.58345-8.6502-1.7506c-2.6089-1.1671-4.9087-2.7461-6.8997-4.7371-1.9223-1.991-3.4673-4.3601-4.6344-7.1063-1.0985-2.7462-1.6479-5.6634-1.6479-8.7529s0.54945-6.008 1.6479-8.7542c1.1671-2.7462 2.7121-5.114 4.6344-7.105 1.991-1.991 4.2908-3.57 6.8997-4.7371 0.78927-0.34404 1.5982-0.63132 2.4233-0.87394z" style="white-space:pre"/>
  <path d="m805.56 497.01h-15.344v-72.087h23.995q5.87 0 10.71 1.5447t8.2386 4.5312q3.5014 2.8835 5.458 7.2088 1.9567 4.2223 1.9567 9.7833 0 7.7236-4.2223 13.079-4.1193 5.2521-10.607 7.7237l19.876 28.217h-18.228l-17.713-26.363h-4.1193zm0-39.133h8.7535q4.6342 0 7.6207-2.4716 3.0895-2.5746 3.0895-7.1058 0-4.6342-3.0895-7.0028-2.9865-2.4716-7.6207-2.4716h-8.7535z" style="white-space:pre"/>
  <path d="m869.82 424.92v72.087h-15.55v-72.087z" style="white-space:pre"/>
  <path d="m921 424.92 28.938 72.087h-16.168l-6.0759-15.55h-27.496l-6.0759 15.55h-15.859l29.041-72.087zm-16.065 43.252h18.125l-9.1654-23.583z" style="white-space:pre"/>
 </g>
</svg>
