<svg version="1.1" viewBox="0 0 800 179.83" xml:space="preserve" xmlns="http://www.w3.org/2000/svg"><defs><linearGradient id="b" x2="1" gradientTransform="matrix(34.8 0 0 34.8 4.509 4.408)" gradientUnits="userSpaceOnUse"><stop stop-color="#d31213" offset="0"/><stop stop-color="#d31213" offset="1"/></linearGradient><clipPath id="c"><path d="m0 0.01h39.309v8.837h-39.309z"/></clipPath><radialGradient id="a" cx="-.24299" cy="-.082335" r="1" gradientTransform="matrix(0 -4.7269 -4.9505 0 57.038 473.57)" gradientUnits="userSpaceOnUse"><stop stop-color="#ec352e" offset="0"/><stop stop-color="#e63129" offset=".29412"/><stop stop-color="#9c0005" offset=".78823"/><stop stop-color="#670000" offset="1"/></radialGradient></defs><g transform="matrix(1.3333 0 0 -1.3333 -.0017319 179.84)"><g transform="matrix(15.264 0 0 15.264 -.018213 -.15728)"><path d="m4.78 8.737-0.271-8.581 30.354-0.04s4.407-0.116 4.446 4.254c0.039 4.367-3.712 4.446-4.215 4.446z" fill="url(#b)"/></g><g transform="matrix(18.264 0 0 18.228 -1004.3 -8563.9)"><path d="m54.988 473.52c0-2.043 1.656-3.7 3.699-3.7s3.699 1.657 3.699 3.7-1.656 3.699-3.699 3.699-3.699-1.656-3.699-3.699" fill="url(#a)"/></g><g transform="matrix(15.264 0 0 15.264 -.018213 -.15728)"><g clip-path="url(#c)"><g transform="translate(10.889,2.174)"><path d="m0 0h-0.861l0.697 2.47c0.128 0.441-0.057 0.549-0.619 0.549l0.093 0.335 1.694 0.141zm0.712 3.894c-0.292 0-0.463 0.241-0.385 0.533 0.079 0.263 0.363 0.484 0.641 0.484 0.292 0 0.484-0.235 0.399-0.527-0.079-0.277-0.378-0.49-0.655-0.49" fill="#fff"/></g><g transform="translate(15.929 4.8)"><path d="m0 0c-0.114 0.086-0.214 0.186-0.334 0.257-0.122 0.071-0.278 0.128-0.456 0.128-0.221 0-0.47-0.078-0.541-0.334-0.064-0.222 0.121-0.357 0.299-0.485l0.242-0.157c0.334-0.221 0.683-0.518 0.512-1.102-0.206-0.727-0.903-1.011-1.622-1.011-0.342 0-0.605 0.05-0.968 0.149l0.206 0.712c0.256-0.207 0.505-0.413 0.875-0.413 0.42 0 0.62 0.206 0.677 0.413 0.071 0.228-0.107 0.376-0.3 0.505-0.412 0.291-0.953 0.541-0.768 1.19 0.149 0.533 0.655 0.981 1.523 0.981 0.306 0 0.562-0.063 0.854-0.135z" fill="#fff"/></g><g transform="translate(19.985 5.1496)"><path d="m0 0h-0.933l-0.569-1.986c-0.142-0.492-0.149-0.619 0.313-0.619 0.078 0 0.164 6e-3 0.37 0.056l-0.128-0.441c-0.213-0.035-0.384-0.064-0.548-0.064-0.691 0-1.139 0.12-0.89 0.996l0.591 2.058h-0.555l0.121 0.427h0.555l0.15 0.526 1.075 0.747-0.363-1.273h0.932z" fill="#fff"/></g><g transform="translate(22.94 5.256)"><path d="m0 0c-0.64 0-0.925-0.783-1.11-1.416-0.185-0.634-0.328-1.367 0.263-1.367 0.633 0 0.904 0.691 1.11 1.409 0.2 0.698 0.314 1.374-0.263 1.374m-0.91-3.16c-1.225 0-1.41 0.79-1.119 1.786 0.342 1.188 1.018 1.751 2.093 1.751 1.104 0 1.416-0.761 1.118-1.793-0.335-1.161-1.004-1.744-2.092-1.744" fill="#fff"/></g><g transform="translate(26.62 2.174)"><path d="m0 0h-0.862l0.698 2.47c0.128 0.441-0.057 0.549-0.619 0.549l0.092 0.335 1.694 0.141zm0.711 3.894c-0.291 0-0.462 0.241-0.384 0.533 0.079 0.263 0.363 0.484 0.641 0.484 0.292 0 0.484-0.235 0.398-0.527-0.078-0.277-0.377-0.49-0.655-0.49" fill="#fff"/></g><g transform="translate(31.912,4.6935)"><path d="m0 0c-0.114 0.043-0.257 0.107-0.385 0.107-0.654 0-0.981-0.363-1.189-1.068l-0.455-1.558h-0.861l0.698 2.427c0.127 0.441-0.057 0.54-0.619 0.54l0.092 0.335 1.694 0.15-0.264-0.734 0.05-0.014c0.3 0.548 0.641 0.748 1.011 0.748 0.135 0 0.27-0.015 0.463-0.05z" fill="#fff"/></g><g transform="translate(34.926 5.2697)"><path d="m0 0c-0.434 0-0.755-0.406-0.84-0.747h1.16c0.114 0.334 0.135 0.747-0.32 0.747m-0.968-1.14c-0.157-0.662-0.121-1.501 0.776-1.501 0.284 0 0.548 0.057 0.811 0.15l-0.136-0.478c-0.376-0.121-0.74-0.191-1.117-0.191-1.145 0-1.637 0.704-1.295 1.899 0.327 1.132 1.032 1.639 2.021 1.639 1.054 0 1.26-0.613 0.969-1.518z" fill="#fff"/></g><g transform="translate(6.4359,2.1857)"><path d="m0 0c-0.27 4e-3 -0.319 0.182-0.135 0.78l0.415 1.423c0.193 0.668 0.356 1.537-0.716 1.555-0.663 0.01-1.201-0.382-1.617-0.829l0.846 2.785-2.059-0.143-0.12-0.408c0.688-0.011 0.913-0.144 0.747-0.683l-1.53-5 1.096-0.012 0.633 2.169c0.23 0.762 0.937 1.38 1.382 1.373 0.374-6e-3 0.423-0.208 0.34-0.546-0.028-0.113-0.056-0.218-0.084-0.33l-0.415-1.423c-0.322-1.067 0.102-1.311 0.729-1.32 0.424-7e-3 0.733 0.173 0.926 0.298l0.166 0.476c-0.202-0.084-0.377-0.169-0.604-0.165" fill="#fff"/></g></g></g></g></svg>
