<svg version="1.1" viewBox="0 0 287 247.06" xmlns="http://www.w3.org/2000/svg">
 <path d="m282.42 227.75c-0.56628-0.30889-1.1325-0.61772-1.7504-0.92661 0.82362-0.56629 1.3385-0.97814 1.6474-1.287 1.8533-1.6989 2.7799-3.861 2.7799-6.3836 0-4.2214-2.7799-7.6706-6.641-9.1121-0.66926-0.20582-2.4196-0.77216-4.4789-0.77216-1.493 0-2.6256 0.20592-3.1919 0.36036-1.1841 0.25736-1.6474 0.46328-2.2137 0.66921-1.5444 0.66925-2.7285 1.7504-3.1404 2.1622-2.5225 2.3681-2.9859 4.7876-3.2948 8.0309h8.9063c0-0.51481 0-0.92666 0.15445-1.4415 0.5148-1.6988 1.9563-1.9562 2.5741-1.9562 1.8018 0 2.5226 1.5959 2.5226 3.1918 0 1.2356-0.30888 2.0078-0.56629 2.471-0.92666 1.6989-2.471 1.8533-4.2215 1.9048h-1.3385v6.9498h2.4196c1.287 0.0515 2.4196 0 3.5007 0.77227 1.3901 0.92655 1.493 2.471 1.493 3.0374 0 2.0592-1.4415 3.7581-3.5522 3.7581-1.493 0-2.883-0.8237-3.4492-2.2137-0.15444-0.3603-0.20587-0.66919-0.30889-1.5444h-9.1122c0.15445 1.6473 0.25741 2.9344 0.8237 4.4787 1.9563 5.1482 6.9499 7.1045 12.047 7.156 3.2948 0 6.2807-0.87518 8.8033-2.9859 3.6031-3.0376 4.1179-6.6926 4.1694-8.4945 0-1.6989-0.46334-2.9344-0.66926-3.5006-0.46327-1.1326-1.3378-2.8314-3.9119-4.3244zm-24.968 12.561c3.9641-4.7876 4.4789-10.039 4.4789-12.201 0-5.4569-2.4711-10.914-6.6411-14.466-1.6474-1.3899-6.0748-4.4788-12.304-4.5302-5.4055 0-10.862 2.5225-14.414 6.6409-4.0155 4.7877-4.5304 10.142-4.5304 12.304 0 4.8906 2.0593 9.8842 5.56 13.385s8.4423 5.5601 13.385 5.5601c5.457 0 10.914-2.5226 14.466-6.6927zm-4.8392-12.201c0 3.3462-1.8018 5.7143-2.6256 6.5895-0.87518 0.92666-3.2948 3.0374-7.0014 3.0374-2.4711 0-5.0452-1.0296-6.7955-2.8314-2.5226-2.5224-2.8315-5.5598-2.8315-6.7953 0-2.5225 1.0811-5.0965 2.883-6.8468 2.4711-2.4196 5.56-2.7799 6.744-2.7799 3.9641 0 7.5677 2.5225 9.0092 6.2291 0.36037 1.0295 0.61778 2.265 0.61778 3.3976zm-8.34-20.129h8.0826v-8.3913h-8.0826zm-10.862 0h8.2365v-8.3398h-8.2365zm-22.136 32.33c3.9634-4.7876 4.4782-10.039 4.4782-12.201 0-5.4569-2.471-10.914-6.6405-14.466-1.6474-1.3899-6.0748-4.4788-12.304-4.5302-5.4055 0-10.863 2.5225-14.415 6.6409-4.0149 4.7877-4.5297 10.142-4.5297 12.304 0 4.8906 2.0593 9.8842 5.5594 13.385 3.5008 3.5008 8.4429 5.5601 13.385 5.5601 5.4571 0 10.914-2.5226 14.466-6.6927zm-4.8392-12.201c0 3.3462-1.8018 5.7143-2.6256 6.5895-0.87517 0.92666-3.2949 3.0374-7.0014 3.0374-2.471 0-5.0451-1.0296-6.7955-2.8314-2.5226-2.5224-2.8315-5.5598-2.8315-6.7953 0-2.5225 1.0811-5.0965 2.8829-6.8468 2.4711-2.4196 5.56-2.7799 6.744-2.7799 3.9641 0 7.5677 2.5225 9.0092 6.2291 0.36037 1.0295 0.61778 2.265 0.61778 3.3976zm-40.463 18.224h9.2666v-36.345h-9.2666zm-7.4127-5.2512c4.4273-5.148 4.5818-10.656 4.5818-13.179 0-2.2651-0.25741-3.655-0.51482-4.6332-1.2356-5.5598-4.9416-10.708-10.502-12.51-2.9859-0.92658-6.0748-0.77222-7.0015-0.77222h-14.312v32.509l-13.178-32.715h-7.5678l-13.421 33.67-6.7588-9.5259c1.7504-0.72069 2.4196-1.081 3.2433-1.5959 1.8018-1.2355 4.8902-4.2729 4.9416-9.9357 0-5.6113-2.8309-8.7002-4.5812-10.039-2.8315-2.2137-5.7144-2.3681-9.1637-2.3681h-13.488v36.345h9.2151v-11.686l7.4133 11.686h18.429l1.6989-5.0968h12.304l1.7504 5.0968h23.062c2.8315-0.0515 5.3026-0.0515 8.0311-1.0811 3.1403-1.184 4.9936-3.2433 5.8167-4.17zm-69.703-18.275c0 3.2433-2.1622 4.5817-3.2948 4.9421-1.0296 0.36037-2.2652 0.30889-2.5741 0.36037h-2.9344v-10.039h3.0889c1.9563 0.0515 3.8611 0.15444 4.9937 2.0077 0.51481 0.8237 0.72074 1.8018 0.72074 2.7284zm28.571 10.914h-7.4133l3.6037-11.429zm36.55-5.4054c0 0.82371-0.1545 7.1043-4.7878 9.112-1.2356 0.51482-2.4711 0.51482-3.8611 0.56629h-5.2511v-19.82h3.6552c1.6989 0 3.0374 0 4.6333 0.61778 3.0374 1.1325 4.7363 3.9124 5.354 7.0013 0.25741 1.1841 0.25741 2.0077 0.25741 2.5225zm-92.2-10.142h7.2582v-8.1854h-23.578v8.1339h7.1044v28.211h9.2151zm-27.593 28.16h9.2666v-36.345h-9.2666zm-13.744 0h9.2151v-36.345h-9.2666v13.797h-11.068v-13.797h-9.3181v36.345h9.3181v-13.694h11.119z" fill="#002350" stroke-width=".061287"/>
 <g transform="translate(-4.1293 130.35)" stroke-width="2.2331">
  <path d="m22.628-34.048c0-27.134 14.564-51.647 38.003-69.15l26.826 22.063c-17.956 13.198-29.202 32.105-29.202 53.105 0 39.887 40.573 72.222 90.623 72.222 50.052 0 90.625-32.333 90.625-72.222 0-20.998-11.244-39.905-29.198-53.103l26.165-20.658c22.358 17.398 36.158 41.328 36.158 67.743 0 53.183-55.961 96.297-125 96.297-69.038 0-125-43.114-125-96.297z" fill="#002350"/>
  <path d="m155.02-88.546c38.646 2.845 68.861 27.775 68.861 58.107 0 32.246-34.137 58.379-76.251 58.379-36.323 0-66.711-19.443-74.386-45.479l35.999-6.0293c4.0039 13.644 19.671 23.82 38.384 23.82 21.744 0 39.376-13.742 39.376-30.696s-17.632-30.694-39.376-30.694c-5.1428 0-10.051 0.76818-14.553 2.1661zm40.588-1.38c-13.644-6.5563-29.635-10.328-46.729-10.328-17.289 0-33.452 3.861-47.198 10.558l-20.518-25.922c19.251-9.3298 42.04-14.727 66.468-14.727 25.229 0 48.712 5.7591 68.357 15.661z" fill="#e10032"/>
 </g>
</svg>
