<svg width="800" height="338.97" version="1.1" viewBox="0 0 211.67 89.686" xmlns="http://www.w3.org/2000/svg">
 <g transform="translate(1.42e-8 .0053554)" fill="#fff">
  <g transform="matrix(2.5467 0 0 2.4476 -222.71 -243.83)" opacity=".996" stroke-width=".29341" aria-label="tv">
   <path d="m162.49 122.63q-0.78634 0-1.2323-0.50467-0.39904-0.45772-0.39904-1.1502v-3.2745h-0.68071v-0.91544h0.68071v-1.8074h1.1971v1.8074h1.1502v0.91544h-1.1502v3.2158q0 0.69245 0.65724 0.69245h0.49293v1.0211z"/>
   <path d="m168.38 122.63h-0.97412l-2.183-5.9504h1.2675l1.4084 4.1899 1.3966-4.1899h1.2675z"/>
  </g>
  <path d="m-1.42e-8 3.664v43.646l13.389 9.2482v-19.752h24.426v19.752h13.389v-52.893h-13.389v19.752h-24.426v-19.752z" opacity=".99102" stroke-width="41.518"/>
  <path d="m145.58 3.664 13.389 9.2482v43.645h-13.389z" opacity=".99102" stroke-width="41.518"/>
  <path d="m97.825-0.0051819a30.317 30.317 0 0 0-30.111 30.316 30.317 30.317 0 0 0 30.316 30.316 30.317 30.317 0 0 0 30.316-30.316 30.317 30.317 0 0 0-30.316-30.316 30.317 30.317 0 0 0-0.20514 0zm0.1974 13.594a16.696 16.696 0 0 1 16.695 16.695 16.696 16.696 0 0 1-16.695 16.695 16.696 16.696 0 0 1-16.695-16.695 16.696 16.696 0 0 1 16.695-16.695z" opacity=".98803" stroke-width="41.408"/>
 </g>
 <path d="m162.44 79.385a10.302 10.302 0 0 1-10.302 10.302 10.302 10.302 0 0 1-10.302-10.302 10.302 10.302 0 0 1 10.302-10.302 10.302 10.302 0 0 1 10.302 10.302z" fill="#80c31b" opacity=".99102" stroke-width="42.134"/>
</svg>
