<svg version="1.1" viewBox="0 0 600 264.14" xmlns="http://www.w3.org/2000/svg">
 <g transform="translate(331.4 -299.48)" fill="#610439">
  <path d="m-301.16 299.48-29.98 1.8234v196.38h30.956v-107.37s12.06-3.3925 29.132-3.3925c23.951-0.22719 23.238 13.161 23.238 23.832v86.93h31.719v-85.107c0-5.9029 0.10317-8.8567-0.16996-14.078-1.0667-21.114-16.164-37.471-46.221-37.698-18.094-0.22683-38.673 4.0709-38.673 4.0709v-65.389z"/>
  <path d="m-110.04 360.76c-5.7355 0.0318-28.938 0.99028-43.38 4.3677-19.252 4.3133-31.605 16.088-33.33 33.797-0.34061 3.405-0.50904 5.4544-0.50904 13.4v85.361h31.719v-87.397c0-7.7185 0.57996-12.464 5.5974-17.004 5.6982-4.9943 18.616-5.6801 25.994-6.3608 5.2212-0.45414 15.223-0.9329 15.223-0.9329v-25.189c-0.0247-0.0247-0.49508-0.0466-1.3146-0.0413z"/>
  <path d="m-331.4 516.55v17.683c45.519 19.752 115.91 30.438 174.03 29.302 62.25-1.135 119.46-11.113 170.09-29.047v-17.259c-45.178 17.708-110.3 28.379-173.1 29.514-58.119 0.90813-123.18-9.7602-171.02-30.192z"/>
  <path d="m50.767 360.17v137.47h20.869v-59.956h54.545v59.956h20.869v-137.47h-20.869v58.852h-54.545v-58.852h-20.869z"/>
  <path d="m171.22 360.21v137.47h46.816c10.194 0 18.837-2.1725 25.948-6.5145 7.1737-4.4049 12.803-9.8125 16.894-16.231 3.0833-4.7825 5.0659-9.746 6.0729-14.906 1.0697-5.223 1.6561-15.547 1.6562-31.027-1e-4 -14.41-0.34909-24.163-1.1042-29.26-0.75524-5.097-2.8957-10.6-6.2937-16.452-9.1246-15.417-23.032-23.077-41.848-23.077h-48.141zm20.869 19.764h24.954c10.635 1.5e-4 18.786 3.8062 24.512 11.483 2.7687 3.7758 4.4498 7.9784 5.0791 12.698 0.69207 4.7196 1.104 13.283 1.1042 25.616-1.1e-4 12.774-0.36457 21.147-0.99374 25.175-0.56646 3.9645-1.9305 7.691-4.1958 11.152-5.5377 7.9918-14.053 12.035-25.506 12.035h-24.954v-98.16z"/>
 </g>
</svg>
