<svg version="1.1" viewBox="0 0 878.98 200.7" xmlns="http://www.w3.org/2000/svg">
 <defs>
  <clipPath id="a">
   <path d="m1 2h1445.7v354h-1445.7z"/>
  </clipPath>
 </defs>
 <g transform="translate(-9.8858 -19.043)">
  <g clip-path="url(#a)" fill="#610439">
   <path d="m142.1 219.69c-44.145 0.76794-97.642-7.2821-132.22-22.207v-13.445c36.34 15.417 85.77 23.583 129.91 22.815 47.624-0.82366 97.206-8.8277 131.53-22.307v13.04c-38.399 13.661-81.889 21.294-129.22 22.103"/>
   <path d="m32.871 19.043-0.0097 49.776s15.635-3.2534 29.378-3.1101c22.845 0.22511 34.293 12.505 35.1 28.542 0.2059 4.072 0.16434 6.3201 0.16434 10.7v64.805h-24.097v-66.186c0-8.1006 0.5135-18.162-17.687-18.074-12.963 0.05829-22.115 2.5483-22.115 2.5483v81.712h-23.515v-149.21l22.781-1.4996"/>
   <path d="m179.12 65.58c-0.29085-0.05087-21.512 0.48994-34.047 3.37-14.62 3.3408-23.992 12.171-25.301 25.669-0.2518 2.5942-0.37272 4.2419-0.37272 10.169v64.967h24.075l-2e-3 -66.428c0-5.8265 0.45518-9.5307 4.2611-12.946 4.317-3.8692 14.165-4.4311 19.794-4.8912 3.8643-0.31752 11.59-0.676 11.59-0.676l2e-3 -19.235"/>
   <path d="m322.36 109.93v-7.2045c0-23.058-12.899-39.07-35.114-39.07-21.233 0-35.114 15.216-35.114 41.471 0 30.907 16.495 41.634 37.234 41.634 14.54 0 22.544-4.3318 31.035-12.653l-10.615-9.7626c-5.8792 5.7607-10.778 8.3313-20.09 8.3313-13.554 0-21.068-8.8082-21.068-22.745zm-16.495-11.371h-37.239c0.16433-4.9589 0.49179-7.357 2.1247-11.044 2.6134-6.0832 8.66-10.245 16.495-10.245 7.837 0 13.719 4.1619 16.328 10.245 1.6378 3.6869 2.1321 6.0851 2.2921 11.044"/>
   <path d="m512.58 147.62c-13.556 0-24.988-2.2481-34.788-11.689l10.945-10.737c6.696 6.7276 15.681 8.4839 23.842 8.4839 10.124 0 18.13-3.5027 18.13-11.204 0-5.4389-3.0984-8.9564-11.1-9.6008l-13.239-1.1213c-15.511-1.2794-24.494-8.1663-24.494-22.421 0-15.843 13.886-24.818 31.195-24.818 12.415 0 23.031 2.5631 30.706 9.1301l-10.458 10.41c-5.2206-4.3244-12.568-5.9257-20.407-5.9257-9.9686 0-15.027 4.3219-15.027 10.407 0 4.7964 2.6115 8.4864 11.434 9.2882l13.065 1.1188c15.513 1.2819 24.661 8.4864 24.661 22.898 0 16.975-14.702 25.781-34.465 25.781"/>
   <path d="m630.01 110.8v-7.207c0-23.058-12.905-39.075-35.12-39.075-21.231 0-35.117 15.216-35.117 41.474 0 30.907 16.495 41.638 37.237 41.638 14.54 0 22.547-4.3362 31.041-12.655l-10.621-9.7751c-5.8792 5.7706-10.778 8.3363-20.083 8.3363-13.561 0-21.078-8.8033-21.078-22.735zm-16.498-11.371h-37.244c0.16992-4.9638 0.49176-7.3719 2.1246-11.052 2.6141-6.0826 8.6582-10.245 16.497-10.245 7.8395 0 13.721 4.1619 16.333 10.245 1.6329 3.6801 2.1247 6.0882 2.2897 11.052"/>
   <path d="m803.96 110.8v-7.207c0-23.058-12.912-39.075-35.12-39.075-21.241 0-35.12 15.216-35.12 41.474 0 30.907 16.496 41.638 37.241 41.638 14.537 0 22.537-4.3362 31.027-12.655l-10.611-9.7751c-5.8791 5.7706-10.785 8.3363-20.087 8.3363-13.563 0-21.073-8.8033-21.073-22.735zm-16.503-11.371h-37.241c0.16126-4.9638 0.48999-7.3719 2.121-11.052 2.6171-6.0826 8.6636-10.245 16.503-10.245 7.8326 0 13.712 4.1619 16.329 10.245 1.6372 3.6801 2.121 6.0882 2.2884 11.052"/>
   <path d="m233.91 44.931h7.3477v-13.939h-10.453c-14.625 0-21.849 9.6802-22.624 20.586v94.217h16.584v-64.766h16.493v-14.976h-16.493v-11.681c0-5.9275 2.9408-9.4402 9.145-9.4402"/>
   <path d="m666.03 29.235-6e-3 36.747s11.765-2.3982 22.115-2.2965c17.185 0.1718 25.793 9.2393 26.401 21.078 0.15496 3.009 0.12402 4.668 0.12402 7.9022v53.056h-18.128v-54.073c0-5.984 0.38458-13.414-13.309-13.351-9.7551 0.04652-16.645 1.8847-16.645 1.8847v65.539h-17.694v-115.38l17.141-1.107"/>
   <path d="m394.41 146.04v-51.966c0-9.1406-0.8428-16.064 7.3478-23.799 4.818-4.6512 16.689-6.6767 25.654-6.6718 8.2389-5e-3 20.841 2.0205 25.659 6.6718 7.9722 7.7347 7.3477 14.658 7.3477 23.799v51.966h-16.384v-49.558c0-12.398-5.3688-17.951-16.624-18.113-12.19 0.33426-16.621 5.7148-16.621 18.113v49.558h-16.381"/>
   <path d="m822.84 146.04v-51.966c0-9.1406-0.84345-16.064 7.3489-23.799 4.8187-4.6512 16.689-6.6767 25.65-6.6718 8.2421-5e-3 20.844 2.0205 25.662 6.6718 7.969 7.7347 7.3489 14.658 7.3489 23.799v51.966h-16.385v-49.558c0-12.398-5.3706-17.951-16.627-18.113-12.186 0.33426-16.62 5.7148-16.62 18.113v49.558h-16.379"/>
   <path d="m380.97 63.614c-3.2119 0.07504-14.428 0.27598-22.035 2.0732-10.218 2.4081-16.757 8.7698-17.682 18.479-0.17679 1.8729-0.25677 3.0525-0.25677 7.3235v54.577h16.829v-55.641c0-4.1886 0.31262-6.8534 2.9725-9.3168 3.0258-2.779 9.9077-3.1957 13.83-3.5083 2.0757-0.1817 4.7356-0.04341 6.3419-0.11845v-13.869"/>
  </g>
 </g>
</svg>
