<svg width="641.03pt" height="225pt" version="1.1" viewBox="0 0 641.03 225" xmlns="http://www.w3.org/2000/svg">
 <path d="m590.7 4.7161 50.317 0.030801 0.0103 220.15-19.158 0.0616-0.041-202.46-40.646-0.06161 9.5173-17.72z" fill="#08124c" stroke-width="1.0267"/>
 <path d="m2.9835e-7 225h23.133v-224.93h-23.133z" fill="#08124c"/>
 <path d="m455.7 158.58h-65.676v65.676h65.676z" fill="#e53427"/>
 <path d="m15.132 224.93v-224.93h65.734v80.98h55.837v-80.98h65.743v224.93h-65.743v-87.524h-55.837v87.524z" fill="#a8a6a6"/>
 <path d="m200.09 98.51h9.0371c10.489 0 18.16-1.8055 23.003-5.4165 4.8338-3.611 7.2602-9.2759 7.2602-16.995 0-9.0275-2.2545-15.457-6.773-19.268-4.509-3.8212-12.104-5.7318-22.765-5.7318h-9.7631zm-57.423 126.42v-224.93h64.005c25.057 0 42.53 1.1559 52.407 3.4486 9.8777 2.3118 18.389 6.1807 25.554 11.607 8.0818 6.1521 14.301 13.985 18.647 23.51 4.3561 9.5243 6.5342 20.023 6.5342 31.496 0 17.415-4.2797 31.572-12.83 42.482-8.5499 10.919-21.007 18.151-37.39 21.742l61.272 90.648h-69.259l-51.519-88.002v88.002z" fill="#a8a6a6"/>
 <path d="m324.34 94.279v-36.971h-50.325v-57.308h166.39v57.308h-50.334v37.824z" fill="#a8a6a6"/>
 <path d="m136.77 80.99h15.925v-80.703h-15.925z" fill="#08124c"/>
 <path d="m259.31 57.117h15.925v-57.06h-15.925z" fill="#08124c"/>
 <path d="m390 92.864h-65.676v65.686h65.676z" fill="#e53427"/>
</svg>
