<svg width="800" height="479.57" version="1.1" viewBox="0 0 800 479.57" xmlns="http://www.w3.org/2000/svg">
 <g transform="matrix(12.065 0 0 12.065 -207.57 -1.2307)" fill="none" fill-rule="evenodd">
  <g fill-rule="nonzero">
   <path transform="translate(17)" d="m66.51 19.731v4.912c-1.808-0.166-13.03-1.13-18.037-1.387v-21.754c4.996-0.274 14.411-1.058 17.69-1.357v4.882c-4.186 0.22-8.444 0.437-12.68 0.62v4.622c3.451-0.042 6.898-0.092 10.342-0.15v4.506c-3.446-0.066-6.892-0.108-10.342-0.15v4.62c4.353 0.187 8.74 0.41 13.027 0.636zm-21.52-3.146c0-5.074-5.804-6.082-9.848-6.55-1.717-0.203-6.059-0.847-6.059-2.34 0-1.208 1.586-2.21 5.039-2.21 2.69 0 4.975 0.613 7.057 1.91 0.293 0.178 0.672 0.118 0.896-0.141l2.458-2.88c-3.04-2.126-6.596-2.889-10.08-2.889-6 0-10.537 2.209-10.537 6.297 0 4.6 5.247 5.692 8.542 6.197 3.081 0.468 7.36 0.653 7.36 2.646 0 1.822-3.43 2.652-5.96 2.652-1.884 0-3.757-0.428-6.483-1.721-0.284-0.133-0.623-0.06-0.828 0.177l-2.526 2.945c3.509 1.947 7.553 2.587 9.949 2.587 5.562 0 11.015-2.044 11.015-6.68h4e-3zm-29.921-6.293c-3.202-0.035-6.405-0.07-9.605-0.124v-9.586c-1.754-0.148-3.508-0.308-5.26-0.48v24.534c1.75-0.174 3.504-0.33 5.26-0.468v-9.588c3.2-0.054 6.402-0.097 9.605-0.126v9.036c1.67-0.094 3.341-0.171 5.013-0.234v-21.754c-1.672-0.066-3.343-0.144-5.013-0.234z" fill="#ff3c28"/>
   <path transform="translate(17)" d="m17.544 32.901h-2.461v6.928h-1.516v-6.928h-2.47v-1.25h6.447zm9.387 6.929h-1.373c-0.232 0.015-0.452-0.103-0.566-0.305l-1.72-2.62c-0.052-0.086-0.125-0.158-0.212-0.208-0.107-0.048-0.225-0.07-0.342-0.063h-0.65v3.195h-1.52v-8.187h2.493c0.481-9e-3 0.962 0.05 1.427 0.173 0.356 0.094 0.69 0.259 0.98 0.484 0.247 0.196 0.44 0.452 0.561 0.744 0.125 0.302 0.187 0.626 0.183 0.952 0 0.266-0.04 0.53-0.122 0.782-0.08 0.24-0.198 0.464-0.35 0.666-0.16 0.205-0.351 0.382-0.567 0.527-0.236 0.156-0.495 0.275-0.767 0.355 0.098 0.056 0.19 0.124 0.271 0.201 0.09 0.081 0.168 0.173 0.234 0.274zm-3.913-4.274c0.254 4e-3 0.507-0.033 0.75-0.108 0.195-0.062 0.374-0.163 0.527-0.297 0.135-0.125 0.24-0.28 0.306-0.452 0.07-0.182 0.105-0.375 0.103-0.57 0.02-0.365-0.131-0.718-0.41-0.955-0.367-0.25-0.81-0.368-1.253-0.334h-0.973v2.716zm8.252-2.693v2.267h2.861v1.169h-2.861v2.312h3.631v1.216h-5.147v-8.187h5.147v1.211zm13.567-1.212v8.188h-0.78c-0.105 3e-3 -0.208-0.017-0.303-0.059-0.09-0.05-0.17-0.118-0.234-0.201l-4.269-5.453c0.024 0.25 0.036 0.48 0.036 0.702v5.022h-1.34v-8.187h0.795c0.056-4e-3 0.112-4e-3 0.168 0 0.043 4e-3 0.085 0.015 0.124 0.033 0.038 0.02 0.074 0.045 0.105 0.075 0.04 0.04 0.078 0.082 0.112 0.126l4.288 5.474c-0.012-0.131-0.02-0.262-0.028-0.389-7e-3 -0.126-2e-3 -0.257-2e-3 -0.36v-4.97h1.328zm10.779 4.089c6e-3 0.565-0.095 1.125-0.299 1.652-0.19 0.485-0.477 0.926-0.844 1.296-0.372 0.369-0.817 0.655-1.306 0.842-0.541 0.205-1.117 0.306-1.696 0.3h-3.118v-8.188h3.109c0.58-8e-3 1.155 0.095 1.696 0.304 0.986 0.375 1.768 1.15 2.15 2.134 0.208 0.528 0.313 1.092 0.308 1.66zm-1.56 0c6e-3 -0.41-0.055-0.817-0.18-1.207-0.106-0.334-0.281-0.643-0.515-0.905-0.226-0.247-0.504-0.44-0.814-0.568-0.342-0.136-0.708-0.203-1.076-0.197h-1.59v5.757h1.581c0.368 6e-3 0.734-0.062 1.076-0.199 0.31-0.126 0.589-0.32 0.814-0.568 0.234-0.262 0.41-0.57 0.515-0.906 0.128-0.389 0.192-0.797 0.19-1.207z" fill="#fff"/>
  </g>
 </g>
</svg>
