<svg width="800" height="296.2" enable-background="new 0 0 1260 720" version="1.0" viewBox="0 0 800 296.2" xml:space="preserve" xmlns="http://www.w3.org/2000/svg">
<path d="m800 236.75v59.362c-22.044-1.7357-157.43-13.539-217.92-16.663v-262.53c60.49-3.645 174.09-13.018 213.67-16.663v59.362c-50.336 2.2565-101.71 5.3808-152.92 7.6372v55.63c41.571-0.6075 83.402-1.1282 124.89-1.7357v54.502c-41.571-0.60751-82.795-1.1282-124.89-1.7357v55.63c52.853 1.8225 105.71 4.079 157.17 7.2033zm-259.49-37.839c0-61.011-69.777-73.508-118.98-79.41-20.655-2.2564-73.508-10.154-73.508-28.553 0-14.667 18.92-26.557 61.011-26.557 32.458 0 59.883 7.6372 85.311 23.172 3.645 2.2565 8.1579 1.1282 10.762-1.7357l29.421-35.062c-36.711-25.429-79.41-35.062-121.24-35.062-72.38 0-127.14 26.557-127.14 75.765 0 55.63 63.268 68.648 103.19 74.637 37.318 5.9015 88.696 7.6372 88.696 31.938 0 22.044-41.571 31.938-71.773 31.938-22.651 0-45.476-5.3808-78.282-20.655-3.645-1.7357-7.6372-0.60751-10.154 2.2564l-30.202 35.583c42.092 23.78 91.3 31.33 120.11 31.33 67.26 0.95465 132.78-23.953 132.78-79.583zm-361.12-76.025c-38.447-0.6075-77.414-0.6075-116.12-1.7357v-115.25c-21.176-1.7357-42.092-3.645-63.268-5.9015v296.2c21.176-2.2564 42.092-4.2525 63.268-5.9015v-115.69c38.447-0.60751 76.893-1.1282 116.12-1.7357v108.83c20.048-1.1282 40.095-2.2565 60.49-2.864v-262.27c-20.048-0.60751-40.095-1.7357-60.49-2.864z" fill="#ff3c28" stroke-width=".86787"/>
</svg>
