<svg width="398.94mm" height="68.345mm" version="1.1" viewBox="0 0 398.94 68.345" xmlns="http://www.w3.org/2000/svg">
 <g transform="translate(216.48 -114.66)">
  <g transform="matrix(.35278 0 0 .35278 -216.48 114.66)" fill="#ff640a">
   <path d="m212.22 0.36026c10.73-1.19 21.5 0.77 31.94 3.13 9.09 2.37 18.28 5.32 26.02 10.82 4.43 3.14 8.3 7.76 8.88 13.35 0.67 7.79-3.19 16.42-10.68 19.56-5.88 2.84-12.52 0.97-18.37-0.91-10.82-3.52-21.57-8.62-33.21-8.11-6.26 0.31-12.82 2.7-16.77 7.77-3.36 4.48-4.39 11.42-0.54 15.94 3.42 3.97 8.47 6.01 13.25 7.85 15.94 5.52 32.98 8.55 47.59 17.4 10.16 6.03 18.55 15.48 21.96 26.93 5.21 17.43 2.94 37.43-7.61 52.48-9.87 14.29-26.23 23.21-43.15 26.02-7.53 1.42-15.23 1.22-22.85 0.96-13.15-0.86-26.49-2.78-38.63-8.14-5.83-2.7-11.53-6.57-14.61-12.38-4.34-8.41-1.88-20.24 6.48-25.2 5.14-3.13 11.54-2.8 17.15-1.29 10.06 2.59 19.53 7.35 29.91 8.69 8.36 1.21 17.56 0.3 24.58-4.75 6.83-4.87 10.23-14.32 7.58-22.34-2.82-6.41-9.62-9.68-15.83-12.02-17.74-6.4-37.24-8.98-53.07-19.9-8.9-5.95-15.26-15.48-17.18-26.04-2.42-14.37 0.06-29.8 8.11-42.09 10.61-16.55 29.79-26.08 49.05-27.73z"/>
   <path d="m455.69 27.67c10.87-16.12 29.56-26.66 48.98-27.6 16.01-0.72 32.7 4.08 44.65 15.05 10.8 9.68 16.8 24.15 16.73 38.59 0.48 14.47-5.56 28.19-12.96 40.3-9.81 15.77-22.31 29.6-34.54 43.5-4.54 5.43-9.66 10.42-13.56 16.34 16.13 0.28 32.27-0.09 48.41 0.18 6.6 0.12 13.55 3.36 16.34 9.65 2.81 6.46 2.81 14.67-1.5 20.49-3.84 4.93-10.47 6.56-16.45 6.53-29.03-0.03-58.06 0.01-87.09-0.02-7.09-0.02-15.41-2.17-18.8-9.06-3.64-6.72-1.73-15.09 3.13-20.67 22.69-27.31 48.1-52.47 67.99-82.02 4.33-6.62 7.84-14.19 7.78-22.25 0.14-8.7-5.84-17.37-14.4-19.56-6.86-1.58-14.88 0.09-19.54 5.65-5.44 6.33-6.73 14.85-9.51 22.46-1.69 4.75-4.15 9.7-8.74 12.24-5.15 2.56-11.39 2.1-16.59-0.07-6.47-2.77-10.36-9.78-10.4-16.68-0.22-11.7 3.36-23.46 10.07-33.05z"/>
   <path d="m638 2.0803c9.45-2.27 20.17-1.67 28.32 4.06 8.22 5.63 12.19 15.8 12.42 25.49 0.12 27.86-0.16 55.73 0.14 83.6 5.88-0.28 12.38 0.23 17.01 4.3 7.89 6.36 7.92 20 0 26.35-4.61 4.13-11.11 4.64-17.01 4.25-0.32 8.55 0.03 17.1-0.16 25.65-0.16 4.88-1.71 10.05-5.43 13.4-4.3 3.58-10.19 4.01-15.55 3.77-4.51-0.1-9.29-1.38-12.42-4.81-3.31-3.6-4.35-8.64-4.52-13.38-0.19-8.22 0.16-16.44-0.17-24.66-20.95 0.2-41.91 0.02-62.86 0.11-6.57 0.18-13.79-2.48-17-8.56-3.2-5.77-1.97-13.05 1.55-18.4 20.04-36.01 39.84-72.16 59.83-108.2 3.41-6.09 8.92-11.31 15.85-12.97m-10.4 66.54c-7.3 15.53-15.22 30.77-22.25 46.43 11.8 0.27 23.61 0.16 35.41 0.05-0.08-24.26 0.16-48.53-0.12-72.79-4.76 8.55-8.6 17.59-13.04 26.31z"/>
   <path d="m3.4803 9.4103c7.57-10.89 26.75-10.45 33.37 1.22 2.55 4.21 2.84 9.26 2.91 14.05 0.02 17.74-0.04 35.47 0.02 53.21 18.51-0.06 37.05 0.38 55.55-0.22-0.14-18.98-0.03-37.97-0.07-56.96-0.04-7.29 4.18-14.69 11.09-17.46 7.54-2.95 17.13-2.1 23.04 3.82 3.47 3.58 5.34 8.58 5.36 13.54 0.02 50.71-0.01 101.42 0.02 152.13 0.08 6.4-2.85 13.07-8.45 16.46-8.37 5.07-20.86 3.99-27.05-4.03-2.97-3.8-4.15-8.73-4.03-13.49 0.09-18.99-0.06-37.98 0.09-56.97-18.5-0.6-37.04-0.17-55.55-0.22-0.06 18.07-0.01 36.14-0.01 54.2 0.03 5.97-0.7 12.47-4.81 17.13-5.74 6.86-16.13 7.91-24.07 4.7-6.92-2.9-11.01-10.43-10.88-17.77 0-50.36 0.02-100.72-0.01-151.08-0.02-4.3 0.96-8.72 3.48-12.26z"/>
   <path d="m982.03 6.0403c15.78-2.52 31.76-3.57 47.72-3.86 16.47-0.04 33.27 1.02 48.93 6.56 16 5.44 30.39 16.22 39.19 30.77 7.95 12.96 11.65 28.13 12.69 43.19 1.1 19.94-0.7 40.53-8.88 58.97-5.14 11.89-13.17 22.58-23.55 30.39-12.9 9.74-28.67 14.89-44.48 17.39-17.15 2.77-34.58 2.46-51.85 1.43-6.61-0.5-13.24-0.95-19.77-2.12-0.03-60.91-0.03-121.81 0-182.72m40.76 28.96c-0.63 6.54-0.14 13.13-0.28 19.69 0.05 34.73-0.11 69.46 0.08 104.19 11.65 1.1 23.85 0.95 34.8-3.68 10.52-4.38 18.95-13.08 23.58-23.44 6.77-14.99 7.89-31.88 6.75-48.1-1.31-15.36-7.03-31.58-19.98-40.91-12.79-9.52-29.77-10.02-44.95-7.75z"/>
   <path d="m310.43 8.3403c3.78-3.68 9.18-5.15 14.36-5.15 21.98 0.02 43.96-0.01 65.94 0.01 4.79 0.03 9.85 0.74 13.71 3.81 7.9 5.97 8.93 18.57 2.82 26.18-3.16 4.15-8.34 6.38-13.46 6.63-7.35 0.46-14.7-0.22-22.04-0.14-9.33 0.03-18.66-0.02-27.99 0.02-0.02 12.73-0.04 25.46 0.01 38.19 14.68 0.13 29.36 0.01 44.04 0.05 6.1-0.07 12.36 2.79 15.63 8.07 4.9 7.65 3.21 18.78-3.98 24.41-4.13 3.25-9.55 4.17-14.68 4.04-13.67-0.01-27.34-0.09-41.01 0.03 0.02 13.26-0.17 26.53 0.11 39.79 15.95-0.21 31.91-0.01 47.86-0.12 4.75-0.12 9.75 0.94 13.4 4.15 7.92 6.71 8.12 20.29 0.62 27.4-3.68 3.57-8.91 5.09-13.96 4.99-22.02-0.01-44.05-0.02-66.07 0-5.83 0.08-12.01-1.52-16.16-5.83-3.41-3.48-5.4-8.31-5.33-13.19 0.02-48.99 0.02-97.98 0-146.97 0.1-5.91 1.81-12.16 6.18-16.37z"/>
   <path d="m805.98 3.7503c13.59-0.13 27.18-0.04 40.77-0.05 0.03 24.14 0 48.27 0.01 72.41 19.81 0.13 39.62 0.13 59.42 0 0.12-24.1 0.13-48.2 0-72.29 13.52-0.29 27.04-0.06 40.57-0.12 0.02 61.99 0.02 123.99 0 185.98-13.53-0.05-27.05 0.17-40.57-0.12 0.17-20.95 0.03-41.91 0.07-62.87-0.06-4.94 0.22-9.88-0.22-14.81-19.74 0.12-39.47 0.06-59.2 0.04-0.17 25.91-0.01 51.84-0.08 77.76-13.59-0.01-27.18 0.09-40.77-0.06 0.06-61.95 0.05-123.91 0-185.87z"/>
  </g>
 </g>
</svg>
