<svg width="1417pt" height="708.76pt" version="1.1" viewBox="0 0 1417 708.76" xmlns="http://www.w3.org/2000/svg">
 <path d="m111.58 0h1202.6c64.752 0 102.87 45.055 102.87 103.44 0.05 123.33 0.01 250.69 0.02 374.03 0.9584 72.84-43.729 113.15-110.98 113.36h-138.22c-7.18 6.18-13.47 13.115-20.65 19.285-26.41 25.1-54.85 48.56-87.02 65.95-39.21 21.95-84.24 33.28-129.16 32.68-13.18-0.06-26.36-1.75-39.1-5.15-8.88-2.65-18.03-5.81-24.84-12.37-13.528-14.146-6.8333-29.276 4.7411-42.942l51.129-57.453h-811.34c-76.59 0-111.58-26.331-111.58-113.36l0.02-374.03c0-70.257 37.059-103.44 111.56-103.44z" fill="#499b2c"/>
 <g transform="translate(-90.98,-45.035)" fill="#fff">
  <path d="m1056 104.1h314.34c53.183 0 76.624 31.984 76.624 81.895v305.55c0 57.571-26.093 85.145-76.624 85.145h-131.88c-26.65 26.62-54.3 52.17-84.24 75.07-16.29 12.13-33.13 23.7-51.32 32.8-23.08 11.95-48.66 20.22-74.86 19.96-2.05-0.12-4.37 0.27-6.05-1.12 17.53-10.09 30.99-25.96 41.56-42.96 15.76-25.6 25.61-54.6 32.38-83.75h-39.935c-48.571 0-81.65-34.534-81.65-85.145l0.355-305.55c0-52.475 30.83-81.895 81.295-81.895z"/>
  <path transform="scale(.75)" d="m278.99 201.88v503.87h137.37v-205.22h157.41v205.22h137.37v-503.87h-137.37v186.51h-157.41v-186.51z" stroke-width="1.3333"/>
  <path transform="scale(.75)" d="m813.97 201.88v111.31h122.91v392.56h136.85v-392.56h122.91v-111.31z" stroke-width="1.3333"/>
 </g>
 <path d="m1109.9 106.49h85.47l-0.13 377.4h-96.08v-266.31l-65.506 59.374-53.028-64.904z" fill="#499b2c"/>
</svg>
