<svg width="637.71pt" height="300.25pt" version="1.1" viewBox="0 0 637.71 300.25" xmlns="http://www.w3.org/2000/svg">
 <g transform="translate(-1.07,-92.35)" fill="#fff">
  <path d="m38.63 92.35h70.18l-12.39 66.85 51.32-0.14 12.58-66.71h70.44c-11.17 63.63-22.44 127.25-33.55 190.89-24.11 1.52-48.08 4.77-72.15 6.69l8.7-53.1 38.65-9.75h-88.8l-11.35 69.46c-23.75 3.23-47.48 6.62-71.19 10.2 12.3-71.5 25.25-142.9 37.56-214.39z"/>
  <path d="m248.62 92.35h154l-11.59 67.56h-42.3l-19.96 113.8c-25.324 1.2335-49.475 2.9513-70.26 4.68l18.88-108.97 37.55-9.51h-77.88z"/>
  <path d="m404.82 92.35h75.6l28.64 137.89 1.39-39.15 51.82-98.74h76.51l-100.22 177.88c-32.012-0.27842-64.507-0.57287-95.485 0.3664z"/>
  <path d="m282.9 319.71h15.73l-11.1 71.22h-15.62z"/>
  <path d="m104.47 326.3h16.96l-3.96 24.993h24.104l4.006-24.993h17.05l-10.42 64.84h-16.74l4.3-26.695h-24.33l-4.14 26.695h-16.89z"/>
  <path d="m415.15 326.29h57.9l9.58 39.56 21.67-39.56h18.21l-37.25 64.57h-13.37l-13.36-50.385h-14.85l-7.9 50.385h-16.73l7.8-50.385-13.69 2.5e-4z"/>
  <path d="m226.95 353.94c6.88-7.57 18.12-9.93 27.86-7.73 5.27 1.19 10.02 4.83 12.09 9.89 2.22 4.84 1.69 10.33 0.91 15.44l-33.3 0.08c-0.54507 3.2265 0.17 7.01 3.34 8.56 4.54 2.53 10.37 1.11 13.7-2.76h14.73c-5.94 14.46-25.45 19.01-38.5 11.77-5.28-3.05-8.53-9.11-8.4-15.17 0.07-7.26 2.31-14.87 7.57-20.08m9.43 8.57 18.62-0.12c-0.71437-2.36-1.4463-4.4678-4.4-6.02-5.46-2.52-11.96 0.83-14.22 6.14z"/>
  <path d="m352.18 379.8c-4.83-15.76 8.17-34.25 24.82-34.34 4.99-0.44 9.46 2.16 13.14 5.25l0.46-3.795h15.35l-6.61 44.265h-15.26l0.14-4.55c-3.53 2.87-7.52 5.52-12.21 5.82-8.48 1.14-17.49-4.3-19.83-12.65m24.17-20.4c-6.82 1.27-11.04 9.94-7.72 16.03 2.5 3.83 7.75 3.82 11.71 2.76 6.01-1.97 9.01-9.52 6.6-15.19-2.08-3.75-6.75-4.4-10.59-3.6z"/>
  <path d="m169.51 346.91h15.46l-3.62 26.16c-0.62273 5.4045 1.3808 6.5177 6.1508 6.774 2.618 0.1334 5.2998-0.21071 6.9492-2.384 2.17-2.46 2.46-5.7157 3.07-8.97l3.17-21.58h15.73c-1.4 9.7-2.97 19.3-4.63 28.96-1.18 6.3-5.73 11.64-11.62 14.09-6.95 2.82-14.76 3.17-22.09 1.86-5.03-0.91-10.35-3.62-12.12-8.74-1.56-5.06-0.48-10.42 0.36-15.5z"/>
  <path d="m298.29 346.85h17.58l6.99 22.41 14.2-22.41h17.07l-29.53 43.91h-10.39z"/>
 </g>
</svg>
