<svg width="638.04" height="800" version="1.1" xml:space="preserve" xmlns="http://www.w3.org/2000/svg"><defs><radialGradient id="radialGradient4502" cx="360" cy="-3.979e-13" r="360" gradientTransform="matrix(0 .88616 -.88616 0 319.02 -319.02)" gradientUnits="userSpaceOnUse"><stop stop-color="#185abb" offset="0"/><stop stop-color="#072d5e" offset=".83973"/><stop stop-color="#06234b" offset="1"/></radialGradient></defs>
  <path d="m0 0h638.04v638.04h-638.04z" fill="url(#radialGradient4502)" stroke-width=".38888"/><path d="m204.4 426.52-13.215-22.729h-11.1l-8.4574 43.608h11.893l4.493-23.786 13.743 23.786h10.307l8.4574-43.608h-11.893zm18.765 20.879h34.622l2.1143-10.836h-22.993l1.3215-6.8717h20.615l1.8501-9.5146h-20.615l1.0572-5.8145h22.729l2.1143-10.572h-34.622zm103.34-43.608-12.422 24.844-3.4358-24.844h-10.307l-12.95 24.844-2.6429-24.844h-12.686l6.0787 43.608h10.307l13.479-24.844 3.7001 24.844h10.307l22.729-43.608zm26.429 12.158q0.26429-1.3215 1.4536-2.1144 1.1893-0.79283 3.3037-0.79283 2.9072 0 5.8144 1.0572t5.5502 3.1715l7.6645-8.4573q-3.1715-2.643-7.1359-4.0966-3.9644-1.4535-9.5146-1.4535-7.6645 0-12.95 3.8322-5.2859 3.8322-6.343 9.911-1.3215 6.6073 2.7751 9.2502 4.0966 2.643 10.704 4.2287 4.2287 1.0572 5.5502 1.9823 1.3215 0.92495 1.0572 2.2464h-0.26429q-0.2643 1.5858-1.5858 2.3786-1.3215 0.79293-3.7001 0.79293-3.7001 0-7.0038-1.3214-3.3037-1.3215-5.9466-3.9644l-8.1931 7.9287q3.1715 3.4358 8.0609 5.2859 4.8894 1.85 10.704 1.85 7.6645 0 13.215-3.7001 5.5502-3.7001 6.8716-10.307 1.0572-6.0788-2.6429-8.986t-10.836-4.493q-4.2287-1.0572-5.5501-1.85-1.3215-0.79289-1.0572-2.3787zm67.923-76.645 75.588-82.724-16.122 82.724zm135.58 0h-29.601l29.337-151.44h-59.466l-137.7 151.44h-128.18q3.4358-12.422 13.347-20.879 9.911-8.4574 24.976-8.4574h60.259q12.422 0 23.39-4.8894t19.161-13.215q8.1931-8.3252 13.083-19.426 4.8894-11.1 4.8894-23.522 0-12.686-4.8894-23.786t-13.083-19.293-19.161-13.082q-10.968-4.8894-23.39-4.8894h-116.82l-8.986 45.723h125.8q5.8144 0 10.175 4.6251 4.3608 4.6251 4.3608 10.704 0 6.0787-4.3608 10.704t-10.175 4.6251h-60.259q-15.858 0-29.997 5.2859-14.14 5.2858-25.504 15.065-11.365 9.7788-19.161 23.39-7.7966 13.611-11.232 29.997l-6.6073 35.68q-3.7001 3.9643-17.047 16.65-13.347 12.686-19.69 10.572-2.9072-1.0572-3.0394-4.6251-0.13218-3.568-0.13218-5.418l26.958-138.49h-50.48l-3.9644 19.954t-8.5895 43.873q-8.5895 43.873-8.5895 44.137 0 0.26405-3.9644 20.747-3.7001 18.236-5.8144 34.094-2.1144 15.858 2.1143 24.579 6.6073 13.743 19.954 9.3824 13.347-4.3609 27.619-16.386 14.272-12.025 26.826-26.561t17.575-21.143h294.95l-8.7217 45.723h30.658q6.8716 0 12.157-4.3609 5.2859-4.3608 6.6074-11.232l6.0787-30.129h29.337zm-380.05-151.44h-19.293q-13.743 0-24.315 8.7217t-12.95 22.201l-2.9072 14.8h50.48z" fill="#fff" stroke-width=".26429"/>
<rect y="652.76" width="638.04" height="147.24" rx="0" ry="0" fill="#06234b" stroke-width=".49694"/><g transform="matrix(6.9964 0 0 6.9964 -4489.8 -3959.5)" fill="#f1d768" style="shape-inside:url(#rect818);white-space:pre" aria-label="ARABIC"><path d="m668.98 672.63h-3.54l-0.576 1.512h-2.52l3.624-8.784h2.496l3.612 8.784h-2.52zm-0.732-1.884-1.032-2.712-1.044 2.712z"/><path d="m677.61 674.14-1.56-2.628h-0.888v2.628h-2.316v-8.784h3.552q1.08 0 1.908 0.396t1.284 1.104 0.456 1.608q0 0.876-0.408 1.548-0.408 0.66-1.152 1.044l1.8 3.084zm0.096-5.676q0-0.516-0.348-0.84-0.348-0.336-0.996-0.336h-1.2v2.304h1.2q0.66 0 0.996-0.3 0.348-0.312 0.348-0.828z"/><path d="m687.31 672.63h-3.54l-0.576 1.512h-2.52l3.624-8.784h2.496l3.612 8.784h-2.52zm-0.732-1.884-1.032-2.712-1.044 2.712z"/><path d="m696.97 669.52q0.36 0.096 0.684 0.372 0.336 0.276 0.552 0.708t0.216 0.972q0 1.224-0.852 1.896-0.84 0.672-2.352 0.672h-4.044v-8.784h3.948q1.452 0 2.22 0.624t0.768 1.848q0 0.6-0.336 1.068-0.324 0.456-0.804 0.624zm-3.48-2.244v1.608h1.308q0.48 0 0.744-0.204 0.264-0.216 0.264-0.588 0-0.432-0.264-0.624-0.252-0.192-0.684-0.192zm1.632 4.98q0.456 0 0.708-0.204 0.264-0.216 0.264-0.624 0-0.396-0.264-0.624-0.252-0.228-0.72-0.228h-1.62v1.68z"/><path d="m699.66 674.14v-8.784h2.316v8.784z"/><path d="m712.31 671.57q-0.48 1.26-1.608 1.992t-2.724 0.732q-1.344 0-2.436-0.588t-1.716-1.62q-0.612-1.044-0.612-2.34 0-1.284 0.612-2.316 0.624-1.032 1.716-1.62 1.092-0.6 2.436-0.6 1.596 0 2.724 0.732t1.608 1.98l-2.136 0.84q-0.336-0.672-0.888-1.044t-1.308-0.372q-0.672 0-1.236 0.312-0.552 0.312-0.876 0.864-0.312 0.552-0.312 1.224t0.312 1.224q0.324 0.552 0.876 0.876 0.564 0.312 1.236 0.312 0.792 0 1.356-0.384 0.576-0.396 0.828-1.056z"/></g></svg>
