<svg version="1.1" viewBox="0 0 565.66 800" xml:space="preserve" xmlns="http://www.w3.org/2000/svg"><defs><linearGradient id="b" x1="-232.13" x2="-232.13" y1="-147.91" y2="-153.66" gradientTransform="matrix(.48216 0 0 -.48216 -51.39 847.7)" gradientUnits="userSpaceOnUse"><stop stop-color="#118793" offset="0"/><stop stop-color="#053d47" offset="1"/></linearGradient><linearGradient id="a" x1="-232.13" x2="-232.13" y1="-173.79" y2="-190.22" gradientTransform="matrix(.48216 0 0 -.48216 -51.39 847.7)" gradientUnits="userSpaceOnUse"><stop stop-color="#174853" offset="0"/><stop stop-color="#1a4a55" offset=".72072"/><stop stop-color="#8799a2" offset="1"/></linearGradient></defs><g transform="matrix(1.3333 0 0 -1.3333 295.01 2018.9)"><g transform="matrix(20.527 0 0 20.527 4320.4 -17851)" fill="#fff"><path d="m-221.17 914.25h0.42603v4.259h-0.42603z"/><path d="m-218.19 914.56c0.226 0 0.435 0.055 0.626 0.165 0.191 0.112 0.342 0.268 0.454 0.469 0.114 0.201 0.171 0.413 0.171 0.637s-0.057 0.437-0.171 0.64c-0.113 0.203-0.267 0.36-0.46 0.472-0.191 0.114-0.396 0.171-0.614 0.171-0.222 0-0.433-0.057-0.634-0.171-0.199-0.112-0.352-0.263-0.46-0.455-0.106-0.191-0.16-0.406-0.16-0.645 0-0.365 0.12-0.67 0.359-0.915 0.242-0.245 0.538-0.368 0.889-0.368zm-1.621-0.31v4.367h0.402v-1.758c0.17 0.209 0.36 0.364 0.571 0.466 0.21 0.104 0.441 0.157 0.692 0.157 0.446 0 0.826-0.162 1.141-0.487 0.316-0.322 0.474-0.714 0.474-1.175 0-0.456-0.159-0.845-0.477-1.167-0.319-0.323-0.702-0.483-1.15-0.484-0.257 0-0.489 0.055-0.697 0.165-0.209 0.11-0.393 0.275-0.554 0.495v-0.579h-0.402" fill-rule="evenodd"/><path d="m-213.14 916.15c-0.054 0.216-0.133 0.389-0.237 0.518-0.103 0.13-0.239 0.234-0.409 0.313s-0.348 0.119-0.535 0.119c-0.309 0-0.575-0.1-0.797-0.299-0.162-0.144-0.284-0.362-0.367-0.651zm0-0.848 0.342-0.18c-0.112-0.22-0.242-0.398-0.388-0.533-0.147-0.135-0.312-0.238-0.495-0.31-0.184-0.069-0.391-0.104-0.623-0.104-0.513 0-0.915 0.168-1.204 0.504-0.29 0.338-0.435 0.719-0.435 1.144 0 0.399 0.123 0.756 0.368 1.068 0.311 0.398 0.727 0.597 1.248 0.597 0.537 0 0.965-0.204 1.285-0.611 0.228-0.288 0.344-0.647 0.348-1.077h-2.832c8e-3 -0.367 0.125-0.668 0.351-0.904 0.225-0.233 0.504-0.35 0.836-0.35 0.16 0 0.316 0.028 0.466 0.084 0.153 0.056 0.282 0.13 0.388 0.223 0.107 0.093 0.221 0.242 0.345 0.449" fill-rule="evenodd"/><path d="m-212.09 917.4h0.414v-0.461c0.124 0.182 0.254 0.317 0.391 0.405 0.137 0.091 0.28 0.137 0.428 0.137 0.112 0 0.232-0.036 0.36-0.108l-0.212-0.341-0.214 0.055c-0.135 0-0.266-0.056-0.391-0.168-0.125-0.11-0.221-0.282-0.287-0.515-0.05-0.18-0.075-0.543-0.075-1.089v-1.066h-0.414v3.151"/><path d="m-208.64 917.09c-0.225 0-0.434-0.056-0.625-0.168-0.191-0.11-0.344-0.266-0.458-0.466-0.112-0.201-0.167-0.413-0.167-0.637 0-0.222 0.056-0.435 0.17-0.637 0.114-0.203 0.267-0.361 0.458-0.475 0.193-0.112 0.399-0.168 0.619-0.168 0.222 0 0.433 0.056 0.632 0.168 0.198 0.112 0.351 0.263 0.457 0.454 0.108 0.192 0.162 0.407 0.162 0.646 0 0.365-0.12 0.67-0.362 0.915-0.239 0.245-0.534 0.368-0.886 0.368zm1.622 0.31v-3.151h-0.4v0.542c-0.17-0.207-0.361-0.362-0.573-0.466-0.211-0.105-0.441-0.157-0.692-0.157-0.446 0-0.827 0.161-1.144 0.484-0.315 0.324-0.472 0.718-0.472 1.181 0 0.454 0.159 0.842 0.478 1.164s0.701 0.484 1.149 0.484c0.259 0 0.493-0.055 0.701-0.165 0.211-0.11 0.395-0.276 0.553-0.496v0.58h0.4" fill-rule="evenodd"/><path d="m-206.16 914.25h0.40491v4.367h-0.40491z"/><path d="m-204.98 917.4h0.40796v-3.151h-0.40796zm0.203 1.297c0.092 0 0.172-0.033 0.237-0.099 0.066-0.065 0.098-0.145 0.099-0.237 0-0.091-0.033-0.169-0.099-0.235-0.065-0.065-0.145-0.098-0.237-0.098-0.091 0-0.169 0.033-0.235 0.098-0.066 0.066-0.098 0.144-0.098 0.235 0 0.092 0.032 0.172 0.098 0.237 0.066 0.066 0.144 0.099 0.235 0.099" fill-rule="evenodd"/><path d="m-202.21 917.09c-0.226 0-0.434-0.056-0.625-0.168-0.191-0.11-0.344-0.266-0.458-0.466-0.112-0.201-0.168-0.413-0.168-0.637 0-0.222 0.057-0.435 0.171-0.637 0.114-0.203 0.266-0.361 0.458-0.475 0.193-0.112 0.399-0.168 0.619-0.168 0.222 0 0.433 0.056 0.631 0.168 0.199 0.112 0.352 0.263 0.458 0.454 0.108 0.192 0.162 0.407 0.162 0.646 0 0.365-0.121 0.67-0.362 0.915-0.239 0.245-0.534 0.368-0.886 0.368zm1.622 0.31v-3.151h-0.4v0.542c-0.17-0.207-0.361-0.362-0.573-0.466-0.211-0.105-0.441-0.157-0.692-0.157-0.446 0-0.827 0.161-1.144 0.484-0.315 0.324-0.472 0.718-0.472 1.181 0 0.454 0.159 0.842 0.478 1.164 0.318 0.322 0.701 0.484 1.149 0.484 0.259 0 0.492-0.055 0.701-0.165 0.21-0.11 0.395-0.276 0.553-0.496v0.58h0.4" fill-rule="evenodd"/></g><g transform="matrix(20.527 0 0 20.527 4320.4 -17851)" fill-rule="evenodd"><g transform="translate(-45.513 3.7963)" stroke-width=".48216"><path d="m-155.16 934.79v-10.964c0-1.9961-1.215-3.7078-2.946-4.4358l-5.2073-0.37608h-4.5901l-1.0607-2.9942-1.3693 2.9942h-0.60269c-2.6567 0-4.8071 2.1552-4.8071 4.8119v10.964c0 2.6567 2.1504 4.8119 4.8071 4.8119h10.969c2.6567 0 4.8071-2.1552 4.8071-4.8119" fill="url(#b)"/><path d="m-170.94 939.6c-2.6567 0-4.8076-2.1553-4.8076-4.812v-3.9595a13.152 10.805 0 0 1 10.292-4.0781 13.152 10.805 0 0 1 10.291 4.0942v3.9434c0 2.6567-2.1495 4.812-4.8062 4.812z" fill="url(#a)"/><path d="m-167.51 937.1c-0.57246-0.0197-1.3818-0.16603-1.8844-0.59999-0.49662-0.42912-2.0105-0.79079-2.5168-0.91615-0.50626-0.13019-0.93046-0.3135-1.7357-0.53047 0.3809 5e-3 1.9574-0.0434 2.3818-0.14949 0.4243-0.1109 2.3529-0.35193 2.7627-0.31818 0.97395 0.0771 2.0781-0.70877 1.6876-1.5525-0.47734-1.027-1.1957-1.186-1.8707-2.3142-2.5651-4.2912 2.8447-8.0231 2.9942-8.809 0.18804-1.027 2.377-2.893 2.377-2.893h3.3462c0.66046 0 1.2893 0.13347 1.8618 0.37474l-2e-3 2e-3h1e-3c0.053 2.0202-0.35182 5.6702-3.8812 9.2381-2.4638 2.4976-4.3106 0.72343-4.7012 0.52574-0.27965-0.13982-0.60737 0.54956-0.59773 0.92565 0.0241 1.2006 1.562 1.4898 2.2611 2.9266 0.32304 0.6702 0.17365 1.6008-0.26511 2.2614 0.40983-0.24108 1.1572-2.1263 1.2632-3.2401 0.0482 5.0337-2.594 4.9951-3.0086 5.053-0.11813 0.0156-0.28257 0.0232-0.4734 0.0167z" fill="#fff"/></g><path d="m-205.68 940.13 1.209-2.625h0.06l1.202 2.625h-0.362l-0.871-1.911-0.878 1.911zm-2.135 0.579h0.794v-3.204h0.362v3.204h0.791v0.345h-1.947v-0.345" fill="#fff"/><path d="m-213.02 940.9c-0.57318-0.0181-1.382-0.16409-1.8838-0.60059-0.49899-0.431-2.0101-0.79392-2.5151-0.91992s-0.93077-0.31088-1.7388-0.52588c0.381 0 1.9573-0.0428 2.3833-0.15381 0.426-0.11 2.3542-0.3504 2.7642-0.3164 0.973 0.078 2.076-0.70727 1.686-1.5513-0.475-1.03-1.1971-1.1859-1.8721-2.3159-2.565-4.292 2.8481-8.0216 2.9942-8.8066 0.19178-1.0259 2.374-2.8858 2.3789-2.8899l3.3442-2e-4c0.66098-4e-5 1.2902 0.13239 1.8633 0.37354 0.0518 2.0203-0.35215 5.6676-3.8804 9.2358-2.469 2.496-4.3097 0.72187-4.7007 0.52587-0.28301-0.141-0.61005 0.54972-0.60206 0.92872 0.026 1.197 1.5647 1.4853 2.2617 2.9253 0.324 0.67 0.17478 1.5988-0.26221 2.2588 0.40699-0.24 1.1557-2.1257 1.2627-3.2417 0.047 5.035-2.5968 4.9992-3.0088 5.0552-0.11824 0.0162-0.28354 0.0251-0.47461 0.019z" fill="#fff"/></g></g></svg>
