<svg width="533.33pt" height="269.79pt" version="1.1" viewBox="0 0 533.33 269.79" xmlns="http://www.w3.org/2000/svg">
 <g transform="translate(-120.82 -344.82)" fill="#e3000f">
  <path d="m120.82 344.83h80.425v269.78h-80.425z"/>
  <path d="m326.95 344.83c20.34-0.11 40.93 0.54 60.7 5.77 17.27 4.44 33.53 12.96 46.65 25.08 13.27 12.3 23.92 27.46 30.77 44.21 7.9 18.99 11.03 39.67 11.11 60.15-0.27 18.21-2.31 36.58-8.11 53.92-5.24 16.12-13.81 31.26-25.6 43.49-11.32 11.75-25.44 20.64-40.63 26.47-19.34 7.47-40.17 10.41-60.82 10.69h-97.395v-269.78zm-26.325 46.47v43.18l32.205-4.09v151.48h50.445v-204.42z"/>
  <path d="m507.34 344.83 146.8-2.5e-4v60.51h-80.915v46h63.295l-16.19 60.475h-47.105v102.8h-65.88z"/>
 </g>
</svg>
