<svg width="1430.9pt" height="1455pt" version="1.1" viewBox="0 0 1430.9 1455" xmlns="http://www.w3.org/2000/svg">
 <g transform="translate(1318.7 3432)" fill="#d2202a" stroke-width="2.7059">
  <path d="m-151.14-3177.1-432.34-249.61c-12.247-7.0706-27.34-7.0706-39.587 0l-432.34 249.61c-12.25 7.0705-19.794 20.14-19.794 34.284v499.23c0 14.141 7.544 27.21 19.794 34.284l432.34 249.61c12.247 7.0705 27.34 7.0705 39.587 0l432.34-249.61c12.247-7.0733 19.794-20.143 19.794-34.284v-499.23c3e-3 -14.144-7.5441-27.213-19.794-34.284m-73.376 488.86c0 8.4857-4.5324 16.33-11.879 20.573l-355 204.96c-7.3465 4.2402-16.403 4.2402-23.752 0l-355-204.96c-7.3492-4.2429-11.879-12.085-11.879-20.573v-409.92c0-8.4857 4.527-16.327 11.876-20.57l355-204.96c7.3519-4.2429 16.406-4.2429 23.752 0l355 204.96c7.3465 4.2429 11.879 12.085 11.879 20.57z"/>
  <path d="m-776.84-3102.4-86.532 49.962c-4.9004 2.8276-7.9175 8.0582-7.9175 13.714v291.19c0 5.6581 3.0198 10.883 7.9175 13.714l86.538 49.959c6.5294 3.7747 11.874 0.6819 11.874-6.8595v-404.82c0-7.5441-5.3442-10.629-11.879-6.8568"/>
  <path d="m-343.18-3052.5-241.94-139.68c-9.9848-5.7636-18.154-1.0499-18.154 10.483v588.06c0 4.4079 4.7732 7.1625 8.594 4.9545l90.502-52.248c4.8977-2.8303 7.9175-8.0582 7.9175-13.714v-360.64c0-3.8586 2.7844-5.5282 6.1884-3.7206l59.576 31.681c2.457 1.307 3.9966 3.8641 3.9966 6.6511v281.25c0 7.5467 5.3469 10.634 11.884 6.8567l71.447-41.311c4.895-2.8304 7.9094-8.0555 7.9094-13.708v-291.2c-5e-3 -5.6553-3.0252-10.883-7.9229-13.711"/>
 </g>
 <g transform="translate(1318.7 3432)">
  <g fill="#d2202a" stroke-width="2.7059">
   <path d="m-1268.9-2245.7h-46.758c-1.6776 0-3.0387 1.3665-3.0387 3.0441v261.85c0 1.6723 1.3611 3.0387 3.0387 3.0387h46.761c1.6749 0 3.0387-1.3664 3.0387-3.0387v-261.85c0-1.6776-1.3665-3.0441-3.0414-3.0441"/>
   <path d="m-1084.7-2245.7h-46.011c-1.6777 0-3.0388 1.3665-3.0388 3.0441v118.16l-38.586-119.1c-0.4086-1.2556-1.5775-2.1025-2.8926-2.1025h-49.748c-1.6776 0-3.0387 1.3665-3.0387 3.0441v261.85c0 1.6723 1.3584 3.0387 3.0387 3.0387h46.008c1.6777 0 3.0388-1.3664 3.0388-3.0387v-136.26l46.079 137.23c0.4168 1.2339 1.5749 2.0727 2.8791 2.0727h42.269c1.6749 0 3.0387-1.3664 3.0387-3.0387v-261.85c0-1.6803-1.3611-3.0468-3.036-3.0468"/>
   <path d="m-944.19-2246.4h-61.348c-24.913 0-42.315 17.404-42.315 42.318v27.681c0 16.604 5.6878 30.166 17.361 41.433l75.365 74.618 0.23542 0.3437c0.54118 0.763 0.55471 0.8307 0.55471 1.0661v32.122h-40.681v-33.624c0-1.6722-1.3611-3.0387-3.0387-3.0387h-46.758c-1.6777 0-3.0387 1.3665-3.0387 3.0387v40.773c0 25.538 17.004 42.691 42.315 42.691h61.348c25.135 0 42.686-17.556 42.686-42.691v-35.16c0-16.2-5.6743-29.746-17.358-41.436l-75.552-74.807c-0.60342-0.6062-0.60342-0.617-0.60342-1.2177v-24.264h40.681v33.245c0 1.6804 1.3638 3.0387 3.0414 3.0387h46.755c1.6777 0 3.0387-1.3583 3.0387-3.0387v-40.773c-3e-3 -24.913-17.553-42.318-42.688-42.318"/>
   <path d="m-813.94-2245.7h-46.755c-1.6777 0-3.0387 1.3665-3.0387 3.0441v261.85c0 1.6723 1.3611 3.0387 3.0387 3.0387h46.755c1.6777 0 3.0414-1.3664 3.0414-3.0387v-261.85c0-1.6776-1.3638-3.0441-3.0414-3.0441"/>
   <path d="m-669.53-2246.4h-61.348c-24.913 0-42.312 17.404-42.312 42.318v184.41c0 25.135 17.402 42.691 42.312 42.691h61.348c25.135 0 42.686-17.556 42.686-42.691v-105.11c0-1.6777-1.3611-3.036-3.0387-3.036h-72.567c-1.6804 0-3.0414 1.3583-3.0414 3.036v43.013c0 1.6776 1.3611 3.0387 3.0414 3.0387h22.77v51.91h-40.681v-169.74h40.681v33.245c0 1.6804 1.3611 3.0387 3.0387 3.0387h46.761c1.6777 0 3.0387-1.3583 3.0387-3.0387v-40.773c-3e-3 -24.913-17.556-42.318-42.688-42.318"/>
   <path d="m-445.76-2245.7h-46.755c-1.675 0-3.036 1.3665-3.036 3.0441v101.33h-40.678v-101.33c0-1.6776-1.3638-3.0441-3.0387-3.0441h-46.758c-1.6777 0-3.036 1.3665-3.036 3.0441v261.85c0 1.6723 1.3584 3.0387 3.036 3.0387h46.758c1.675 0 3.0387-1.3664 3.0387-3.0387v-111.42h40.678v111.42c0 1.6723 1.3611 3.0387 3.036 3.0387h46.755c1.6804 0 3.0414-1.3664 3.0414-3.0387v-261.85c0-1.6776-1.3611-3.0441-3.0414-3.0441"/>
   <path d="m-268.94-2245.7h-140.28c-1.675 0-3.036 1.3665-3.036 3.0441v43.016c0 1.6777 1.3611 3.0387 3.036 3.0387h43.719v215.79c0 1.6722 1.3665 3.0387 3.0414 3.0387h46.755c1.675 0 3.036-1.3665 3.036-3.0387v-215.79h43.725c1.675 0 3.0387-1.361 3.0387-3.0387v-43.016c3e-3 -1.6776-1.3611-3.0441-3.036-3.0441"/>
  </g>
  <g transform="matrix(2.7059 0 0 2.7059 -1318.7 -3432)" opacity=".6">
   <g fill="#d2202a">
    <path d="m528.55 438.84c-0.214-0.264-0.534-0.418-0.874-0.418h-18.109c-0.538 0-1.001 0.384-1.102 0.911l-11.896 61.71-12.027-61.712c-0.104-0.527-0.564-0.909-1.103-0.909h-18.108c-0.34 0-0.659 0.154-0.873 0.418-0.213 0.264-0.296 0.609-0.225 0.941l20.735 96.77c0.111 0.517 0.568 0.887 1.098 0.887h20.874c0.528 0 0.986-0.37 1.098-0.887l20.736-96.77c0.07-0.331-0.012-0.677-0.224-0.941"/>
    <path d="m452.79 438.42h-51.84c-0.62 0-1.124 0.505-1.124 1.125v15.897c0 0.62 0.504 1.123 1.124 1.123h16.156v79.747c0 0.621 0.504 1.123 1.124 1.123h17.278c0.62 0 1.124-0.502 1.124-1.123v-79.747h16.157c0.621 0 1.123-0.503 1.123-1.123v-15.897c1e-3 -0.62-0.501-1.125-1.122-1.125"/>
   </g>
  </g>
 </g>
</svg>
