<svg width="711.99pt" height="711.85pt" version="1.1" viewBox="0 0 711.99 711.85" xmlns="http://www.w3.org/2000/svg">
 <g transform="matrix(7.1186 0 0 7.1186 -104.64 925.43)">
  <path d="m105-43.3v-73.4l-45-13.3-45 13.3v73.4l45 13.3z" fill="#d50032"/>
  <path d="m81-55-1.6-8.4h1.6l0.9 5.4 0.9-5.4h1.5l-1.5 8.4zm-5.5 0v-6.9h-1.6v-1.4h4.8v1.4h-1.6v6.9zm-7.2 0v-6.9h-1.6v-1.4h4.8v1.4h-1.5v6.9zm-7.6 0v-8.3h1.6v3.4h1.4v-3.4h1.6v8.3h-1.6v-3.5h-1.4v3.5zm-3.7 0.1c-1.4 0-2.4-0.7-2.4-2.2v-4.2c0-1.4 1.1-2.2 2.4-2.2s2.3 0.7 2.3 2v0.9h-1.5v-0.7c0-0.4-0.3-0.7-0.8-0.7s-0.7 0.3-0.7 0.8v4.2c0 0.5 0.3 0.8 0.7 0.8 0.5 0 0.7-0.3 0.7-0.7v-1.2h-0.8v-1.3h2.4v2.5c0 1.3-0.9 2-2.3 2zm-5.6-0.1v-8.3h1.6v8.3zm-3.5 0.1c-1.4 0-2.2-0.9-2.3-2.4h1.5c0 0.5 0.2 1.1 0.7 1.1s0.6-0.4 0.6-0.8c0-0.5-0.3-0.8-0.8-1.3l-0.7-0.7c-0.7-0.7-1.2-1.4-1.2-2.3 0-1.2 0.7-2.2 2.2-2.2 1 0 2 0.5 2.1 2.4h-1.4c-0.1-0.6-0.2-1.1-0.7-1.1-0.4 0-0.6 0.3-0.6 0.7s0.5 0.9 0.9 1.2l0.7 0.7c0.8 0.8 1.3 1.5 1.3 2.4-0.1 1.4-0.9 2.3-2.3 2.3zm-8.5-0.1v-8.3h1.7l1.8 4.5v-4.5h1.5v8.3h-1.5l-2-5v5zm-3.2 0v-8.3h1.6v8.3z" fill="#fff"/>
  <path d="m60.3-70.1v-36.5l11.5 3.1c4.7 1.3 6.7 4.1 6.7 9.4v19l-6.7 1.8v-19.5c0-1.4-0.5-2.1-1.8-2.3l-1.7-0.2v22.9zm-0.6 0-8-2.2v-32.1l8-2.2zm-11.4-3.1-6.6-1.8v-26.7l6.7-1.8v30.3z" fill="#fff"/>
 </g>
 <g transform="translate(-27.036 270.14)">
  <path d="m739.03 20.58v128.42h-132.22v-128.42z" fill="#fff"/>
  <g transform="translate(-22.962 -310.24)">
   <path transform="scale(.75)" d="m865.33 477.33-1e-5 90.672h17.926v-37.227h16.146v37.227h17.928v-90.672h-17.928v36.973h-16.146v-36.973z" stroke-width="1.3333"/>
   <path d="m718.98 358c5.09-0.03 10.525 1.12 14.355 4.69 3.3 3.13 4.75 7.8 4.68 12.28v33.06c0.03 4.5-1.01 9.35-4.29 12.64-3.76 3.96-9.455 5.345-14.745 5.335h-18.975v-68.005zm-5.695 56.54h3.9915c4.1347 0 6.9485-2.2498 6.9485-6.4698v-33.98c0-3.4822-2.5013-4.6298-6.9485-4.6298h-3.9915z"/>
  </g>
 </g>
</svg>
