<svg width="211.67mm" height="27.436mm" version="1.1" viewBox="0 0 211.67 27.436" xmlns="http://www.w3.org/2000/svg">
 <defs>
  <clipPath id="a">
   <path d="m0 0h595.28v841.89h-595.28z"/>
  </clipPath>
 </defs>
 <g transform="translate(27.009 -122.69)">
  <g transform="matrix(3.7335 0 0 -3.7335 184.66 134.55)">
   <path d="m0 0h-1.983v1.833h-1.832v-1.833h-1.982v-1.832h1.982v-1.834h1.832v1.834h1.983z" fill="#1266ac"/>
  </g>
  <g transform="matrix(3.7335 0 0 -3.7335 18.932 134.28)">
   <path d="m0 0h-2.372v3.104h-4.205l0.43-0.584v-6.764h3.775v3.126h2.372v-3.126h3.775v7.348h-3.775z" fill="#1266ac"/>
  </g>
  <g transform="matrix(3.7335 0 0 -3.7335 -25.407 122.69)">
   <path d="m0 0h-0.429l0.429-0.584v-6.764h3.776v7.348z" fill="#1266ac"/>
  </g>
  <g transform="matrix(3.7335 0 0 -3.7335 37.898 126.88)">
   <path d="m0 0h3.059v-6.228h3.775v6.228h3.105v1.118h-9.939z" fill="#1266ac"/>
  </g>
  <g transform="matrix(3.7335 0 0 -3.7335 -1191.2 2946.9)">
   <g clip-path="url(#a)">
    <g transform="translate(360.96 755.25)">
     <path d="m0 0h-1e-3c-0.012 0.654-0.54 1.183-1.196 1.19h-9.14l0.435-0.584v-6.764h3.775v2.641h4.935c0.654 0.01 1.18 0.537 1.192 1.19h2e-3v2.055c0 0.097 0 0.186-2e-3 0.272m-3.772-2h-1e-3c-4e-3 -0.219-0.181-0.396-0.402-0.398h-1.952v2.468h1.944v-2e-3h4e-3c0.222 0 0.402-0.177 0.406-0.399h1e-3z" fill="#1266ac"/>
    </g>
   </g>
  </g>
  <g transform="matrix(3.7335 0 0 -3.7335 94.038 122.69)">
   <path d="m0 0h-4.211l0.436-0.588v-6.76h3.775v2e-3h5.202v1.118h-5.202v2.005h4.43v1.119h-4.43v1.984h5.202v1.118h-5.202z" fill="#1266ac"/>
  </g>
 </g>
</svg>
