<svg width="451.47pt" height="364.46pt" version="1.1" viewBox="0 0 451.47 364.46" xmlns="http://www.w3.org/2000/svg">
 <path d="m213.55 0.56213c28.56-2.54 57.89 3.55 82.81 17.82 24.83 14 45.23 35.71 57.65 61.36 10.25 20.92 15.09 44.45 14.13 67.7-1.07 28.05-10.72 55.72-27.45 78.27-19.28 26.32-47.93 45.61-79.61 53.45-28.34 7.18-58.86 5.24-86.09-5.4-27.87-10.8-52.1-30.71-68.09-55.96-15.6-24.33-23.37-53.54-21.97-82.4 1.3-34.36 15.89-67.99 39.99-92.5 23.21-24.12 55.3-39.35 88.63-42.34" fill="#ab182b"/>
 <path d="m158.6 63.652c9.16-3.48 20.32 1.58 23.9 10.65 3.04 6.79 1.44 15.19-3.68 20.54-4.6 4.96-11.96 7.19-18.52 5.48-7.5-1.71-13.45-8.42-14.45-16.02-1.32-8.75 4.33-17.92 12.75-20.65z" fill="#fff"/>
 <path d="m199.1 87.092c18.56-11.94 42-13.84 63.25-9.55 15.07 3.06 28.41 11.95 38.72 23.14l-25.99 27.94c-5.24-5.1-10.82-10.05-17.46-13.23-6.63-3.01-14.09-3.63-21.27-2.98-11.17 1.32-21.07 8.81-26.31 18.63-5.48 9.91-6.5 21.82-4.34 32.81 1.99 9.97 7.66 19.38 16.3 24.93 8.68 5.88 19.82 7.06 29.93 4.99 9.72-2.12 17.79-8.48 25.03-14.99l24.92 25.23c-7.6 8.2-16.44 15.32-26.4 20.43-10.81 5.4-23.11 6.98-35.08 6.91-15.26 0.17-30.51-4.35-43.29-12.68-11.99-7.67-21.39-18.96-27.43-31.8h-23.525v-76.54c7.43 4.72 16.575 6.59 25.235 4.88 11.34-2.11 21.3-10.43 25.3-21.26 0.97-2.22 1.11-4.85 2.41-6.86z" fill="#fff"/>
 <path d="m2.833 310.75c3.72-2.56 9.29 0.17 9.64 4.63 0.64 4.38-4.44 8.46-8.52 6.5-4.71-1.46-5.37-8.73-1.12-11.13z" fill="#ab182b"/>
 <path d="m440.73 311.29h10.74v52.25h-10.74z" fill="#ab182b"/>
 <path d="m60.983 315.36 10.76-0.01-0.01 9.85 9.05 0.02-0.02 9.28-9.04-0.01c0.25 6.08-0.39 12.22 0.3 18.27 1.64 3.32 5.95 1.54 8.62 0.65l-0.07 8.9c-4.61 1.86-9.99 2.77-14.7 0.71-3.26-1.51-4.79-5.28-4.81-8.7-0.17-6.62 0.03-13.24-0.09-19.86l-4.64 0.07 0.02-9.3 4.65-0.01z" fill="#ab182b"/>
 <path d="m22.303 327.28c5.36-3.95 13.44-3.63 18.46 0.76 2.35 1.91 3.95 5.02 7.13 5.67 1.96 0.65 4.6379 0.73234 4.82 3.71 0.35 8.68 0.08 17.38 0.22 26.07h-10.01c-0.22-8.37 0.62-16.82-0.57-25.13-0.7-6.54-11.74-8.78-13.57-1.85-0.98 8.94-0.27 17.98-0.45 26.96l-10.07 0.02c0.04-8.39-0.01-16.77 0.01-25.15 0.01-3.96 0.73-8.45 4.03-11.06z" fill="#ab182b"/>
 <path d="m90.673 329.61c7.06-7 20.09-7 26.63 0.71 4.32 4.8 5.17 11.57 4.98 17.78l-27.15 0.09c0.80168 2.7983 2.24 5.32 4.93 6.47 4.77 2.38 10.42 0.53 14.21-2.83l6.15 5.54c-7.48 9.14-22.89 9.41-30.82 0.77-7.04-7.84-6.48-21.22 1.07-28.53m4.46 11.7 16.7 0.02c-0.65-4.18-3.72-8.62-8.45-8.15-4.63-0.22-7.32 4.18-8.25 8.13z" fill="#ab182b"/>
 <path d="m144.12 326.13c2.07-1.4 4.64-1.54 7.02-1.95l0.1 11.42c-4.72 0.13-9.88 2.29-11.38 7.15-1.89 6.75-0.67 13.87-0.99 20.79-3.59-0.02-7.17-0.01-10.76-0.02 0.04-12.77 0.06-25.53-0.01-38.29 3.59-0.01 7.19-0.02 10.78-0.01-0.02 2.55-0.05 5.11-0.09 7.67 1.47-2.47 2.85-5.16 5.33-6.76z" fill="#ab182b"/>
 <path d="m159.46 330.32c7.83-8.03 22.25-7.81 29.82 0.49l-6.61 7.12c-3.15-3.05-7.78-5.45-12.15-3.48-8 3.27-8.11 16.61-0.05 19.87 4.46 2.14 9.27-0.27 12.66-3.24l6.34 6.39c-2.78 2.61-5.78 5.25-9.57 6.19-7.57 2.13-16.44-0.06-21.49-6.26-6.51-7.58-5.98-20 1.05-27.08z" fill="#ab182b"/>
 <path d="m207.63 324.63c8.51-1.21 17.82 3.12 21.52 11.07 4.31 8.46 1.37 19.74-6.56 24.99-8.5 5.93-21.44 4.74-28.19-3.3-4.69-5.2-5.88-12.96-3.66-19.5 2.45-7.23 9.39-12.36 16.89-13.26m-1.86 10.18c-7.07 3.39-7.26 14.9-0.53 18.76 4.09 2.74 10.16 1.72 13.08-2.25 3.12-4.3 2.86-11.01-1.11-14.71-2.93-2.95-7.75-3.66-11.44-1.8z" fill="#ab182b"/>
 <path d="m235.98 335.11c0.01-5.21 4.21-9.73 9.33-10.35 5.51-1.26 10.94 1.51 14.46 5.62 2.94-4.74 8.9-6.97 14.25-5.43 3.91 0.8 6.71 3.76 9.37 6.51 1.4355 1.7241 3.7921 1.809 5.7735 2.5304 0.83428 0.30374 2.1283 0.68443 2.2065 1.4196 0.71 9.33 0.12 18.73 0.29 28.1l-9.92-0.03c-0.04-6.68 0.05-13.35-0.03-20.02-0.2-2.91-0.1-6.11-1.94-8.54-1.79-2.53-5.39-3.23-8.22-2.29-2.51 1.13-2.72 4.3-2.82 6.7-0.12 8.05-0.06 16.1-0.03 24.15h-9.99c-0.05-6.68 0.07-13.36-0.04-20.04-0.19-3.07-0.23-6.53-2.41-8.95-2.09-2.45-6.26-3.14-8.78-0.98-1.63 1.82-1.56 4.49-1.73 6.78-0.09 7.73-0.02 15.46-0.01 23.2l-9.96-0.01c0.14-9.45-0.24-18.92 0.2-28.37z" fill="#ab182b"/>
 <path d="m352.3 326.2c2.07-1.46 4.69-1.58 7.11-2.02l0.02 11.42c-4.76 0.16-9.97 2.38-11.35 7.36-1.63 6.71-0.59 13.73-0.83 20.57h-10.92l-0.01-38.31 10.94-0.02-0.12 7.65c1.4-2.43 2.76-5.06 5.16-6.65z" fill="#ab182b"/>
 <path d="m369.68 328.59c8.22-6.31 20.78-5.28 27.98 2.13l-6.69 7.2c-3.05-2.8-7.22-5.24-11.47-3.73-6.94 2.25-8.82 12.02-4.36 17.38 2.27 2.87 6.27 4.19 9.82 3.26 2.48-0.61 4.47-2.3 6.48-3.79l6.35 6.44c-3.01 2.79-6.34 5.6-10.49 6.4-7.9 1.91-17.05-0.97-21.67-7.85-5.95-8.37-4.19-21.21 4.05-27.44z" fill="#ab182b"/>
 <path d="m299.64 327.77c7.3-2.94 15.69-4.19 23.28-1.63 5.48 1.89 8.5 7.66 8.6 13.21 0.18 8.06-0.01 16.12 0.07 24.18l-10.46-0.01 0.21-4.04c-5.26 5.27-14.18 6.47-20.42 2.32-6.36-4.39-6.12-15.35 0.65-19.24 6.06-3.42 13.51-2.72 19.96-0.87-0.48-2.54-1.04-5.61-3.73-6.72-5.01-2.01-10.54-0.52-15.45 1.07l-2.71-8.27m9.31 20.17c-2.81 1.62-2.96 6.34-0.02 7.92 3.55 1.78 8.45 1.06 11.12-1.95 1.49-1.64 1.18-3.97 1.39-6-4.01-1.17-8.67-2.27-12.49 0.03z" fill="#ab182b"/>
 <path d="m403.51 327.74c7.51-2.93 16.2-4.32 23.89-1.32 5.17 2.04 7.8 7.64 7.98 12.94 0.24 8.06-0.01 16.12 0.1 24.18h-10.52l0.19-4.09c-5.16 5.28-14.01 6.48-20.24 2.44-6.56-4.33-6.29-15.57 0.64-19.41 6.07-3.37 13.44-2.56 19.88-0.78-0.58-2.42-0.96-5.41-3.49-6.59-5.06-2.22-10.77-0.7-15.77 0.94l-2.66-8.31m9.46 20.1c-3 1.52-3.19 6.44-0.15 8.04 3.32 1.68 7.74 1.06 10.54-1.38 1.86-1.63 1.77-4.25 2.11-6.48-3.98-1.29-8.63-2.34-12.5-0.18z" fill="#ab182b"/>
 <path d="m0.91305 326.21c3.5 1.46 7.37 1.37 10.84-0.11l-0.06 37.45h-10.76z" fill="#ab182b"/>
</svg>
