<svg width="800" height="261.19" version="1.1" viewBox="0 0 800 261.19" xml:space="preserve" xmlns="http://www.w3.org/2000/svg">
<linearGradient id="SVGID_1_" x1="250" x2="250" y1="2.14" y2="165.25" gradientTransform="matrix(1.6 0 0 -1.6 0 264.44)" gradientUnits="userSpaceOnUse">
	<stop stop-color="#4C90F7" offset="0"/>
	<stop stop-color="#00458F" offset="1"/>
</linearGradient>
<path class="st0" d="m223.83 61.798-104.8-60.478c-3.0399-1.7599-6.5598-1.7599-9.5997 0l-104.64 60.478c-3.0399 1.7599-4.7999 4.9598-4.7999 8.3197v120.96c0 3.3599 1.7599 6.5598 4.7999 8.3197l104.64 60.478c3.0399 1.76 6.5598 1.76 9.5997 0l104.64-60.478c3.0399-1.7599 4.7998-4.9598 4.7998-8.3197v-120.96c0.16-3.5199-1.7599-6.7198-4.6399-8.3197m-17.759 118.4c0 2.0799-1.12 3.9999-2.8799 4.9598l-85.917 49.598c-1.76 0.95997-3.9999 0.95997-5.7598 0l-85.917-49.598c-1.7599-0.95997-2.8799-2.8799-2.8799-4.9598v-99.197c0-2.0799 1.12-3.9999 2.8799-4.9598l85.917-49.598c1.76-0.95997 3.9999-0.95997 5.7598 0l85.917 49.598c1.7599 0.95997 2.8799 2.8799 2.8799 4.9598zm-133.76-100.32c1.6-0.95997 2.8799-0.16 2.8799 1.6v98.077c0 1.76-1.28 2.5599-2.8799 1.6l-20.959-12.16c-1.12-0.63998-1.9199-1.9199-1.9199-3.3599v-70.398c0-1.44 0.79998-2.5599 1.9199-3.3599l20.959-12m104.96 12c1.12 0.63998 1.9199 1.9199 1.9199 3.3599v70.558c0 1.44-0.79997 2.5599-1.9199 3.3599l-17.279 10.08c-1.6 0.95998-2.8799 0.16-2.8799-1.6v-68.318c0-0.63998-0.31999-1.28-0.95997-1.6l-14.4-7.6798c-0.79998-0.47998-1.44 0-1.44 0.95997v87.357c0 1.44-0.79997 2.5599-1.9199 3.3599l-21.919 12.64c-0.95997 0.47999-2.0799-0.15999-2.0799-1.28v-142.4c0-2.7199 1.9199-3.9999 4.3199-2.5599l58.558 33.759m442.87-23.519v20.639c0 0.79998-0.63998 1.44-1.44 1.44h-21.119v103.84c0 0.79998-0.63998 1.44-1.44 1.44h-22.559c-0.79997 0-1.44-0.63998-1.44-1.44v-103.84h-21.119c-0.79997 0-1.44-0.63998-1.44-1.44v-20.639c0-0.79998 0.63998-1.44 1.44-1.44h67.518c0.95998 0 1.6 0.63998 1.6 1.44zm67.838 77.118c7.9998-2.7199 12.96-9.9197 12.96-19.039v-39.199c0-12-8.4797-20.319-20.479-20.319h-48.319c-0.79998 0-1.44 0.63998-1.44 1.44v125.92c0 0.79998 0.63998 1.44 1.44 1.44h22.559c0.79997 0 1.44-0.63998 1.44-1.44v-47.679h7.9998l12.48 47.999c0.15999 0.63998 0.79997 1.12 1.28 1.12h23.519c0.47998 0 0.79997-0.16 1.12-0.63998 0.31999-0.31999 0.31999-0.79998 0.16-1.28zm-12.32-22.399h-19.679v-32.639h19.679zm-195.83-55.038v107.2c0 12-8.4797 20.479-20.479 20.479h-29.439c-12.16 0-20.319-8.1598-20.319-20.479v-107.2c0-0.79998 0.63999-1.44 1.44-1.44h22.559c0.79998 0 1.44 0.63998 1.44 1.44v103.84h19.679v-103.84c0-0.79998 0.63998-1.44 1.44-1.44h22.239c0.79997 0 1.44 0.63998 1.44 1.44zm77.758 105.6v20.639c0 0.79998-0.63998 1.44-1.44 1.44h-58.398c-0.79997 0-1.44-0.63998-1.44-1.44v-125.92c0-0.79998 0.63998-1.44 1.44-1.44h22.559c0.79998 0 1.44 0.63998 1.44 1.44v103.84h34.559c0.63998 0 1.28 0.63998 1.28 1.44zm215.51-105.12c-0.15999-0.63998-0.79997-1.12-1.44-1.12h-29.919c-0.63998 0-1.28 0.47998-1.44 1.12l-26.879 125.6c-0.16 0.95997 0.47998 1.76 1.44 1.76h25.599c0.63998 0 1.28-0.47999 1.44-1.12l2.2399-12.32c0.15999-0.63998 0.79997-1.12 1.44-1.12h22.239c0.63998 0 1.28 0.47999 1.44 1.12l2.2399 12.32c0.16 0.63998 0.79998 1.12 1.44 1.12h25.599c0.95997 0 1.6-0.79998 1.44-1.76zm-9.4397 88.637h-14.08c-0.47998 0-0.95997-0.47998-0.79997-0.95997l7.0398-39.679c0.16-0.95997 1.44-0.95997 1.6 0l7.0398 39.679c0.15999 0.47999-0.31999 0.95997-0.79998 0.95997zm-462.23-90.237c0.79997 0 1.44 0.63998 1.44 1.44v125.92c0 0.79998-0.63998 1.44-1.44 1.44h-22.399c-0.79997 0-1.44-0.63998-1.44-1.44v-125.92c0-0.79998 0.63998-1.44 1.44-1.44h22.399m88.477 0c0.79997 0 1.44 0.63998 1.44 1.44v125.92c0 0.79998-0.63998 1.44-1.44 1.44h-20.319c-0.63998 0-1.12-0.31999-1.44-0.95997l-22.079-65.918v65.438c0 0.79998-0.63998 1.44-1.44 1.44h-22.079c-0.79997 0-1.44-0.63998-1.44-1.44v-125.92c0-0.79998 0.63999-1.44 1.44-1.44h23.839c0.63998 0 1.28 0.47999 1.44 0.95997l18.559 57.278v-56.638c0-0.79998 0.63998-1.44 1.44-1.44l22.079-0.16" fill="url(#SVGID_1_)" stroke-width="1.6"/>
</svg>
