<svg id="a" version="1.1" viewBox="0 0 800 467.92" xml:space="preserve" xmlns="http://www.w3.org/2000/svg"><g id="b" transform="matrix(1.3333 0 0 -1.3333 431.91 1756.2)"><g id="c" transform="matrix(26.456 0 0 26.456 -9072.9 -11945)"><g id="d" transform="translate(331.71 496.14)"><path id="e" d="m0 0c0 0.288-0.226 0.512-0.513 0.512s-0.503-0.242-0.503-0.521 0.225-0.503 0.503-0.503c0.279 0 0.513 0.234 0.513 0.512m-0.117-1.195h-0.772v-4.501h0.772zm4.231-0.763v0.763h-2.246c-0.269 0-0.53-0.017-0.755-0.188-0.252-0.189-0.404-0.504-0.404-0.818v-0.602c0-0.655 0.539-1.006 1.15-1.006h0.953c0.323 0 0.502-0.126 0.502-0.467 0-0.395-0.053-0.647-0.512-0.647h-2.102v-0.773h2.309c0.35 0 0.566 0.027 0.808 0.306 0.18 0.206 0.288 0.476 0.288 0.754v0.566c0 0.584-0.413 1.033-1.006 1.033h-1.006c-0.342 0-0.62 0.072-0.62 0.468v0.179c0 0.279 0.252 0.432 0.511 0.432zm4.573-2.615v2.238c0 0.799-0.486 1.14-1.25 1.14h-2.479v-0.763h2.372c0.512 0 0.584-0.288 0.593-0.728h-1.842c-0.7 0-1.141-0.413-1.141-1.123v-0.809c0-0.718 0.512-1.078 1.186-1.078h1.474c0.673 0 1.087 0.458 1.087 1.123m-0.773 0.153c0-0.332-0.216-0.503-0.539-0.503h-1.105c-0.306 0-0.557 0.189-0.557 0.512v0.44c0 0.368 0.18 0.557 0.548 0.557h1.473c0.099 0 0.18-0.027 0.18-0.144zm3.503 2.462v0.763h-0.575c-0.809 0-1.203-0.395-1.203-1.203v-3.298h0.772v3.091c0 0.548 0.251 0.656 0.736 0.647z" fill="#252453"/></g><g id="f" transform="translate(353.38 501.29)"><path id="g" d="m0 0-9.198-5.106h4.325l1.236-4.085 1.252 4.085h1.309l-1.358-4.116 2.434 1.449zm-6.969-6.35v-4.503h-1.231v4.503h-1.023v-6.915l4.823 2.872-1.371 4.043z" fill="#282657"/></g></g></g></svg>
