<svg width="800" height="137.7" version="1.1" viewBox="0 0 800 137.7" xml:space="preserve" xmlns="http://www.w3.org/2000/svg">
<g transform="matrix(1.4094 0 0 1.4094 -36.505 -385.76)" fill="#fff">
	<polygon points="173.2 310.6 173.2 286.9 271.2 286.9 271.2 310.6"/>
	<path d="m222.2 298.7"/>
	<polygon points="205.9 359.1 205.9 310.3 238.1 310.3 238.1 359.1"/>
	<path d="m222 334.7"/>
<path d="m288.6 359.1c-0.7-1.8-2.2-6.5-2.9-13.4 0-0.2-0.2-58.8-0.2-58.8h32.5l-0.2 60.3s0.2 8.1 8.3 12z" clip-rule="evenodd" fill-rule="evenodd"/><polygon points="484.5 307.1 437.7 307.1 437.7 323.4 477.6 323.5 477.6 342.5 437.5 342.5 437.6 359.1 405.4 359.1 405.4 286.8 484.3 286.9" clip-rule="evenodd" fill-rule="evenodd"/><polygon points="500.3 307.1 547.1 307.1 547.1 323.4 507.2 323.5 507.2 342.5 547.3 342.5 547.6 359 579.7 359.1 579.5 286.8 500.5 286.9" clip-rule="evenodd" fill-rule="evenodd"/><path d="m30.5 313-0.1 58 563.1 0.4v-97.7h-567.6v5.6c0 22.6 38.3 23 38.4-0.3l523.3 0.1-0.1 86.5h-529.7v-52.6z" clip-rule="evenodd" fill-rule="evenodd"/><path d="m381.3 359.1c0.7-1.8 2.2-6.5 2.9-13.4 0-0.2 0.2-58.8 0.2-58.8h-32.5l0.2 60.3s-0.2 8.1-8.3 12z" clip-rule="evenodd" fill-rule="evenodd"/><g clip-rule="evenodd" fill-rule="evenodd">
	<path d="m74 359.1s-1.6-2.9-2.2-9.8l30.1-1.7s0.5 7.4 5.6 11.5z"/>
	<path d="m74 359.1s-1.6-2.9-2.2-9.8l30.1-1.7s0.5 7.4 5.6 11.5z" stroke="#fff" stroke-miterlimit="3.8637" stroke-width=".25"/>
	<path d="m131.8 315.1 29.8-1.7s-0.9-13.1-10.9-20.2c-10.1-7.1-25.8-8.1-37.9-7.3s-21.7 2.7-30.3 10.7c-8.5 8-6.9 19-6.3 21.2 0.5 2.3 1.8 11.4 18.7 18.5 0 0 7.8 2.7 11.1 3.6 3.2 0.9 14.8 3 18.3 4.3s9.2 3.1 9.8 9.2c0.3 3.5-2.4 5.6-2.4 5.6h31.5s3.3-6.4 0.8-15.9-9.4-16.2-24.7-20.4c-15.4-4.2-20.8-4.9-23.8-5.6-3.1-0.7-9.4-2.3-10.1-5.2s0.1-7.9 8.5-8.9 13.8 2.5 15.6 5.8c1.6 3.1 1.8 3.9 2 4.7 0.3 0.9 0.3 1.6 0.3 1.6z"/>
	<path d="m131.8 315.1 29.8-1.7s-0.9-13.1-10.9-20.2c-10.1-7.1-25.8-8.1-37.9-7.3s-21.7 2.7-30.3 10.7c-8.5 8-6.9 19-6.3 21.2 0.5 2.3 1.8 11.4 18.7 18.5 0 0 7.8 2.7 11.1 3.6 3.2 0.9 14.8 3 18.3 4.3s9.2 3.1 9.8 9.2c0.3 3.5-2.4 5.6-2.4 5.6h31.5s3.3-6.4 0.8-15.9-9.4-16.2-24.7-20.4c-15.4-4.2-20.8-4.9-23.8-5.6-3.1-0.7-9.4-2.3-10.1-5.2s0.1-7.9 8.5-8.9 13.8 2.5 15.6 5.8c1.6 3.1 1.8 3.9 2 4.7 0.3 0.9 0.3 1.6 0.3 1.6z" stroke="#fff" stroke-miterlimit="3.8637" stroke-width=".25"/>
</g></g>
</svg>
