<svg width="600" height="263.56" version="1.1" viewBox="0 0 158.75 69.732" xmlns="http://www.w3.org/2000/svg">
 <path d="m93.957 32.37-0.1107 0.87583-4.1468 32.515h64.791l4.26-33.391zm8.6719 3.6979h4.047l-1.3539 10.705h13.517l1.3624-10.705h4.0507l-3.2843 25.934h-4.0507l1.4232-11.021h-13.553l-1.3916 11.021h-4.0519zm26.355 0h7.6148c2.3599 0 4.3062 0.41358 5.7902 1.1678h0.0122c1.5327 0.77851 2.7613 1.7881 3.6614 2.9924 0.91232 1.2164 1.5692 2.5788 1.9584 4.0629 0.38926 1.5084 0.58389 2.9924 0.58389 4.3913 0 1.9463-0.29194 3.7588-0.83934 5.3888-0.57172 1.6543-1.3502 3.0532-2.3355 4.221-0.97314 1.1799-2.1531 2.0923-3.479 2.737-1.3137 0.6447-2.7491 0.97314-4.294 0.97314h-11.933zm3.6128 3.406-0.10948 0.87583-2.2747 18.246h5.4861c1.4719 0 2.8099-0.27978 3.9412-0.87582 1.0826-0.57172 2.0071-1.3502 2.7126-2.299 0.69337-0.94881 1.2043-2.0314 1.5205-3.2235 0.32844-1.1921 0.49874-2.3964 0.49874-3.6006 0-1.2286-0.19463-2.4207-0.57172-3.5276s-0.93665-2.0801-1.6787-2.9073v-0.01216c-0.75418-0.82717-1.6908-1.484-2.7734-1.9584-1.1069-0.48657-2.372-0.71769-3.7588-0.71769z" color="#000000" color-rendering="auto" fill="#a7a5a5" image-rendering="auto" shape-rendering="auto" solid-color="#000000" stroke-width="1.2164" style="font-feature-settings:normal;font-variant-alternates:normal;font-variant-caps:normal;font-variant-ligatures:normal;font-variant-numeric:normal;font-variant-position:normal;isolation:auto;mix-blend-mode:normal;shape-padding:0;text-decoration-color:#000000;text-decoration-line:none;text-decoration-style:solid;text-indent:0;text-transform:none;white-space:normal"/>
 <path d="m68.05 30.757-21.84-21.8v-4.1229c0-3.9856-4.3287-5.7921-7.5232-3.3866-2.2636-2.0046-5.7038-1.9244-7.8728 0.22169l-29.134 29.088c-2.24 2.2357-2.24 5.8487 0 8.0846l21.804 21.758c0 2.4904 0.0047 4.2733 0.0047 4.7923 0 3.014 4.1822 6.3157 7.698 2.8725 2.2541 1.8867 5.6142 1.7688 7.7314-0.33961l29.134-29.083c2.24-2.2357 2.24-5.8487 0-8.0846m-63.574 5.32c-0.72302-0.7311-0.72302-1.9008 0-2.6272l29.069-29.013c0.629-0.6272 1.583-0.7074 2.302-0.2452l-19.574 19.572c-2.6653 3.0187-1.3374 7.4428 4.1161 7.4428h3.0717s0.0047 13.73 0.0189 23.829zm22.939 28.249v-5.3629l0.0047-31.606h-6.5107c-1.9942-0.0095-2.2494-0.42923-1.1484-1.5188l18.907-18.91 2.495-2.4901c0.04254-0.056599 0.08978-0.099053 0.14177-0.1415 0.04254-0.042455 0.08978-0.070752 0.1276-0.099053 0.58127-0.42922 0.83174 0.1415 0.86007 0.8443 0.0047 0.10848 0 0.21697-0.0047 0.33017v44.717c0.10869 1.8537-0.85063 2.3301-0.85063 2.415l-12.414 12.381c-0.07089 0.06604-0.13232 0.13207-0.19375 0.18868-0.04726 0.03773-0.08506 0.08019-0.1276 0.1132-0.01418 0.01415-0.03307 0.03304-0.04726 0.04243-0.05198 0.04243-0.09924 0.08489-0.1465 0.12263-0.0047 0-0.0095 0.0047-0.0095 0.0047-0.05671 0.03773-0.09452 0.07547-0.1465 0.10848-0.6805 0.45279-0.93097 0.06604-0.94041-1.1367m37.818-28.253-29.067 29.004c-0.57653 0.57543-1.4413 0.69337-2.1218 0.34904l11.106-11.095c0-0.09905 1.0586-1.0094 1.0586-3.014v-36.861l19.026 18.994c0.73246 0.72636 0.73246 1.8961 0 2.6272" fill="#238cc6" stroke-width=".43926"/>
</svg>
