<svg width="800" height="800" data-name="Ebene 1" version="1.1" viewBox="0 0 800 800" xmlns="http://www.w3.org/2000/svg">
 <path class="cls-1" d="m88.607 5.0557c-16.245-0.31392-37.128 7.6047-50.615 3.1406-18.291-1.846-16.282 68.494-29.254 28.006l-0.1621 0.10352c-5.97 54.6-9.4988 231.48 16.281 280.33 8.901 14.437 5.8619-20.298 57.422-21.709 14.003-4.83-16.119-55.794-20.244-67.789-14.708-16.391-72.563 5.1015-45.752-42.605 59.701-41.683-35.007-20.949 1.0312-94.762 2.334-21.004-6.5137-45.318 25.779-32.564 27.463-13.785 37.068 18.779 56.064 21.33 17.802-18.508-24.639-46.84-3.9063-72.783-2.0963-0.44098-4.3237-0.65242-6.6445-0.69726zm417.72 0.65039c5.6445 1.0313 8.7923 6.133 2.5508 7.4356-2.4968 8.3039 7.3262 7.9254 8.3574 2.2266 8.7924 0.163 5.3197 7.7598 4.7227 14.436 7.0017-5.861 13.134-6.0772 14.383-16.281v-0.0547c0.271-3.5278 5.2634-6.1877 11.125-7.7617zm62.035 0c7.6527 1.8996-6.5136 13.189 6.5664 11.887-6.187 13.46 2.3885 21.437 14.438 25.996 4.5591-1.085-0.325-25.019-2.2246-30.121-3.0936-2.3338-12.212-6.3506-1.6289-7.7617zm-452.38 0.0566c12.754 2.931-0.7061 22.741 7.8692 27.137 14.871 7.816 26.214-16.879 17.856-27.137zm50.316 0c-2.442 42.117 12.81 8.4679 29.852 16.555 10.638 18.616 5.6438 51.125-4.4512 68.33 12.429-3.853 29.525 3.9619 31.045 13.84 1.899 11.94-26.432 13.841-31.859 18.834-3.4735 3.3106-2.9305 10.529-9.4434 10.529-28.332-10.855-12.428-44.288-23.283-65.129-10.258-2.0621-10.475 3.5809-14.166 8.3027-34.192 8.087-14.328 34.627-12.754 60.896-0.7598 8.467 3.5817 21.438-5.4278 21.709-12.592 0.326-9.7697-8.954-10.312-18.289-0.1616-3.8808-6.7251-29.647-8.5175-30.326-4.1531-0.61279-7.0291 17.361-12.436 19.361-11.452 4.505-20.734 5.9161-21.385 20.787-2.8224 0-5.428-0.81434-7.7618-0.54297-25.346-71.641-24.423 35.168 7.2188 43.418 27.896-4.34 25.021 133.73 64.641 130.26 2.225-31.859 9.7694-36.526 41.357-27.137 8.466 24.531-3.5281 56.88-34.953 36.527-1.845 68.548 67.245 22.307 57.15 86.35-6.513 25.021 10.368 33.378 27.844 44.721 15.034 9.986 18.019 61.33 43.799 43.42-10.312-10.149-2.2262-47.003-16.283-51.453-13.026-4.0163-22.144 4.235-30.23-5.4258-6.5553-8.52-7.6319-20.048-2.7676-29.635 33.216-25.454-23.934-50.638-22.197-84.396 42.225 14.22 49.605 73.163 96.498 86.08 10.746 11.668 17.531 36.146 34.41 15.522 14.709-2.931 10.801 17.314 21.113 14.111 7.0556-2.226 0.813-19.485-1.6836-21.33-18.725 1.899-91.396-65.508-51.613-76.363 4.396 0.597 23.12 18.506 27.137 1.6269 0.054-25.618-29.579-39.294 6.6758-55.576 4.8304-8.521-7.0023-28.712 8.3027-25.781 7.979 22.035 33.596 28.495 40.543 50.91-34.518 10.204-14.11-8.4124-31.912-17.422-10.204 10.963 4.1794 19.429 5.4277 26.322-3.4193 34.844-49.391 38.48 5.4258 62.795 24.043 30.611 49.77 9.4984 75.279 37.232 3.636 15.739 83.907 58.778 52.482 16.281-5.156-39.458 29.58-11.668 45.482-8.8457 10.584-1.1397 21.166-7.6539 32.998-2.2265 9.172 12.808 25.835 10.476 37.992 13.299 4.9388 3.4735 15.902 9.0635 6.6757-0.543-3.528-30.176 17.857-1.0314 9.1192 10.475-7.7608-8.195-10.367 12.538-12.158 17.205 14.437 32.456 18.508-16.228 29.363 35.658-19.81 6.35-54.873 9.8768-57.152 29.633 19.159-2.6594 46.677 4.7768 56.066-6.0782-13.515-3.2564-32.023 2.0621-46.08-0.8144 11.669-9.1719 37.558-21.492 53.84-12.754-4.1791 3.1481-0.9218 12.05 4.9941 12.43-3.962 12.7 15.087 12.645 16.281 21.709 2.4966-0.054 3.3644-1.627 6.0781-1.627 4.613 3.7997 4.288 13.731 14.709 10.203 2.551 7.4898 51.505 6.8395 56.064 1.4121-1.791-6.7299-13.676-0.5429-16.281-0.5429-10.367-15.142-10.368-6.3511-26.107-4.9942-0.6578-8.3552-8.8401-13.986-16.879-11.615-7.218-7.0011-10.095-18.235-26.377-16.281-0.977-5.4276-2.6038-10.204-8.0312-10.855 4.5594-6.947 2.6054-21.276-5.8614-24.369-1.683-10.312 1.9533-23.716 16.281-18.289 10.855 11.18 4.7217 41.736 27.137 39.891 5.211 6.8383 27.788 4.0706 20.516-9.4434-12.212 12.972-27.408-17.205-6.4043-5.4277 2.0081-9.8238 11.669 3.3645 5.8613-10.856 0-1.0313 20.028-8.1959 21.711-1.3574-7.3269 8.901 10.856 10.476 7.5449 25.184 24.749 0.489-14.926-30.991 3.0391-27.951-0.3256-6.8382-4.7223-10.69 2.4961-14.924 2.6051 0.6513-0.7596 3.472 0.8144 4.666 10.91 3.799 25.021 5.3208 34.953 13.842 4.7219 0.2714 6.9475-7.1658 0.8145-6.6231-0.3799-14.871-14.709-32.185-1.0859-42.334-0.7598-2.8222-4.7766-1.4102-7.4903-1.4102 0.3799-3.9079-0.3799-8.6308 0-13.244 4.5894-1.6632 9.0363-3.6959 13.297-6.0782-4.2875 6.5667-2.6586 19.377 7.8164 15.74 1.574 0.8683-0.1097 5.1555 2.9297 4.2871 3.7449-8.25-12.754-26.214 0-27.137v-43.42c0.218 12.049-3.2008 16.336-12.373 23.555-11.018-6.4583-14.708 2.8233-6.4043 8.8477-0.5427 0.5427-2.2794 0.5429-3.582 0.5429-0.977 5.0475 1.7352 6.6218 5.4258 5.4278 0.977 9.8779-6.1858 6.1317-11.342 4.4492-8.087 1.1942 2.7676 9.3901 2.7676 10.856 1.412 15.577-18.887 16.554-23.066 1.9004-5.5903 3.04-9.0633-7.4361-6.0782-11.344-9.4979 0.597-7.4349-7.8148-12.482-13.242 4.4504-9.932-4.5582-25.727 7.2188-29.092 6.2956-13.352-2.1186-12.809-9.9883-11.615-25.292-7.2186-21.002 17.91-34.408 6.6211-3.4192 2.0083-1.6838 9.3901-5.8086 10.856-14.763-14.817 16.066-18.019 9.1191-35.658s-13.893 15.359-22.469 13.514c-7.9239-13.677 26.594-33.594 9.7148-39.836-7.924-1.031-1.1396 20.026-9.9863 10.854-14.926 0.109 4.1238-17.746 4.9922-25.182 0.8684-7.435 0.2722-24.098-9.1172-17.693-0.6513-6.459 16.825-5.9714 3.582-12.213-0.5969-3.9366-0.9595-7.9052-1.0859-11.885-3.1764 4.6026-8.3098 7.4695-13.894 7.7598 0.3799-12.754-6.4039-7.3801 4.4511-22.414 18.888 9.987 8.7926-40.814 4.125-44.83 2.388-17.26-28.06-14.6-31.045-4.4512-1.791-0.4342-0.6508-3.7451-2.4961-4.125-14.871 16.282-51.669 0.38149-67.951-10.854-24.043-12.646-21.549-34.573-36.094-43.42-7.6526 0.977-6.4586 28.928 0 31.316 2.8766-0.4885 6.5147-1.6826 6.1348 3.3106 2.4966 2.0624 7.7065 1.4657 9.4433 4.3965 11.601 15.958 28.326 27.453 47.381 32.564 3.6364 3.691 1.1401 10.638 3.6367 15.197 12.591-0.597 8.4117 6.8379 18.887 8.6289 19.538 1.356-23.067 42.116-23.881 24.043-2.8765 2.985-14.546 4.5589-8.3047 9.9863-3.9077 3.6906-4.5582 8.4129 2.1718 5.4278-11.017 7.5984-2.5511 11.615 5.8614 3.8535-3.1479 9.1184 9.7696 2.2257 5.4277-2.4961 7.002-4.0708 16.499-6.9491 23.283-10.26 12.429 40.325-45.047 42.714-74.898 37.666-17.802-6.839-15.956-32.618 6.6758-31.262-4.9389-3.3107-2.4961-2.334-2.4961-7.2187-9.715 4.831-30.719 3.9089-32.564 19.377-14.382 2.171-17.855-12.484-25.236-19.92-16.663-5.427-27.789-16.768-23.881-38.478 4.614-20.516 25.128 9.7141 21.709 19.104 0 10.909 10.965 12.048 23.285 13.025 6.079 24.912 7.9228-19.647 24.965-13.84 1.7912-11.126 16.988-10.692 10.258-24.912 9.226-5.482 2.3347-22.252-11.613-15.793-2.6595-6.133-11.236-6.2961-11.67-14.654-18.942 6.892-16.988-10.259-18.02-21.711-0.4885-5.6442-7.9226-6.133-4.1777-14.111 2.3881-5.0474 6.9461-3.201 11.668-4.7207 3.6364-1.14 0.6517-17.694-2.7676-18.779-34.627-6.622-18.617 46.785-48.305 30.123-14.599-3.094-2.8218 45.699-22.469 37.666-8.467-9.66-46.839-13.082-37.992-33.76 14.003-1.682-1.3021-12.264 7.4903-17.691 20.244 6.4043 16.825-42.388 49.389 3.3106 2.008-19.321 11.29-24.043 25.238-30.719 3.202 0 24.042 11.777 16.66-5.4277-11.181-5.9159 9.4981-10.04 10.529-3.0391 7.2185-0.814 4.6135-7.6521 7.2187-12.754 1.629-7.1647 36.093-4.8865 20.516-13.57 7.7067-4.559-1.6271-9.4436-8.5742-7.1641-6.3501-6.296-5.3201-20.026-8.6308-29.361-3.962 6.133 3.5826 18.886-2.4961 22.414-9.8427-11.746-13.126-27.651-8.7383-42.334 10.855-15.686-20.352-1.79-16.281-23.5 1.7142-1.5593 3.8825-2.5292 6.1875-2.7676-13.731-0.977-41.954 12.047-33.867 32.074-24.043 14.871-40.652-12.807-43.42-32.074h-51.125c-0.977 11.615-21.71 11.126-23.447 0h-39.238c9.1183 2.225 0.8124 35.656-7.8711 35.439s-7.8144-31.695 3.4746-35.439h-68.441c1.737 15.251 12.972 23.175 10.856 41.52-23.392 14.817-20.08 9.2807-25.508-14.111-11.18-9.335-16.337-12.103-10.529-27.408zm465.02 0.26953c7.6527 14.056 4.4511 32.996 4.4511 48.41 10.42 3.9078 2.2787 21.603 18.887 13.842 1.0855-1.7368 0.487-4.995 1.084-7.166 8.7381 5.2645 21.222-4.9374 8.3594-3.6348-6.7298-3.7447-4.0716-16.282 4.9922-10.529 0 3.365 2.2255 7.4887 5.4277 4.7207-2.3338-5.21 3.8535-11.613 0-17.691-8.9985-0.65047-8.0388-21.462-11.389-3.8887 0.021 0.0121 0.026 0.0231 0.047 0.0352h-0.057c0-0.0224 0.01-0.0129 0.01-0.0352-14.589-8.3408 4.4414-14.578 4.4414-24.062zm-96.772 23.445c-9.1176 1.8453 2.6597 10.529 5.4277 9.9863 4.4505-0.8684 0.8681-11.235-5.4277-9.9863zm-14.002 5.5918c-2.6051 0.597-3.6917 6.2402-1.6836 8.0312 2.9851-0.4885 2.8776-5.6974 1.6836-8.0312zm104.17 13.885c-0.7386-0.0458-1.386 0.063-1.8066 0.38867-3.6365 3.0936 8.1414 9.3346 7.2187 2.4961-0.1628-1.2212-3.1961-2.7474-5.4121-2.8848zm-33.447 1.0391c-5.0475-0.3256-1.6294 5.1564 0.8672 5.4277 1.194-1.3568 0.164-4.4508-0.8672-5.4277zm1.1718 11.154c-1.0431 0.0229-1.6196 1.1795-1.1718 3.9883 1.9395 4.4593 4.6801 8.5252 8.0859 11.996v0.43359c3.5417-6.3502-3.7847-16.487-6.9141-16.418zm61.91 12.607c-2.5006 0.4905-1.5622 5.038 1.2871 4.5156 1.5739-0.7056 1.3026-3.6351 0-4.4492-0.502-0.12211-0.9299-0.13647-1.2871-0.0664zm-2.2949 25.52c-5.0475 1.6826 6e-4 10.693 4.4511 8.9023-0.6973-3.2995-2.2299-6.3648-4.4511-8.9023zm4.9394 10.1c-1.248 9.389-1.3578 22.957 9.1172 23.771-1.357-16.554 13.298-4.0161 10.856 3.3652-7.8157-2.7137-0.9769 3.8537-10.258 0.54296-0.9226 3.257-4.3415 12.103 1.0859 13.568 3.3106-13.406 16.825 1.7375 13.297 10.855 6.2958 1.8998 2.4423 6.1337 2.8223 10.855 0.4886 6.947 9.9321 14.926 10.258 18.562 0.3799 4.8302-8.359 11.94 3.039 13.297-0.597 1.6282-2.4961 1.6827-2.4961 4.125v0.1054c3.799 3.5821 11.56 0.054 15.793-1.0859 4.939-8.575 11.995-29.633-2.2246-36.525 5.3189-5.265 2.7135-25.563-6.9473-14.383 0.6512-3.8533 2.1157-7.8699-2.1718-10.529 1.248-11.723-28.493-35.114-42.17-36.525zm-143.17 44.469c-1.0379-0.37388-2.1863-0.285-3.1543 0.24414-4.5048 3.2022 6.676 8.8479 5.4277 1.9551-0.4082-1.0246-1.2358-1.8253-2.2734-2.1992zm280.27 14.305c-3.5209-0.0404-6.6895 2.13-7.9238 5.4277-4.2334-4.9386-9.0098-0.75947-5.4277 5.4277-10.909-4.233-6.4043 11.181-13.84 10.855-3.8534-0.2171-6.1328-13.082-9.9863-2.2266-5.7471-5.5316-10.293 0.79924-10.809 7.5586 11.526 13.666 10.562 5.6947 21.99-1.0976-2.2795 5.7528-2.4968 14.109 6.1328 14.109 0.4342 6.3501 4.5578 7.9243 8.0313 3.3653 9.1181 9.4442 12.81 1.0324 1.9551-4.7207-3.0393-6.0246 4.7208-10.585-1.6836-13.027-1.6282-7.11 6.6218-22.361 7.4902-7.4356 1.3654-0.12364 2.742-0.0133 4.0703 0.32618zm0.4356 25.4c-3.7992 5.5904-10.855 12.81 0 14.221zm-79.166 13.182c-1.2759 0.2722-2.5162 1.3924-2.8418 3.4277-2.4423-0.054-4.1797 0.4339-4.1797 3.0391 2.3338 2.388 3.7995-1.1949 5.4277-1.9004 1.1588 0.7127 2.4931 1.0887 3.8535 1.0859h0.543l-0.2188-0.2715c1.764-3.9348-0.4575-5.8345-2.5839-5.3808zm28 3.1894c-1.7886 0.1909-4.3019 2.2056-4.9532 3.5489 1.8454 2.388 6.4043-0.2168 6.4043-3.0391-0.3392-0.4342-0.855-0.5734-1.4511-0.5098zm25.277 7.834c-5.9159 0.6513-5.9702 7.8162 0 8.3047-0.2445-2.7628-0.2445-5.5419 0-8.3047zm25.672 6.1328c-3.5278 1.5196-8.0338 2.2269-6.5684 7.6543 3.0394-0.1629 4.2889-2.1183 6.5684-3.041zm-16.568 3.8985c-6.8215 0.848-14.221 7.0381-5.7402 11.787 0.8141-0.4885-0.3254-3.0391 0.8144-3.0391 2.443 4.9389 13.025 1.1943 13.025-3.0391-0.1222-4.8031-4.0067-6.2177-8.0996-5.7089zm10.078 11.738c-1.953 0.087-4.3521 1.189-7.2421 3.6856 2.8222 5.1565-2.823 5.3727-4.4512 10.203 5.9703 2.9308 7.0563-8.2491 10.856-2.4961h0.2714c-6.2957 6.7842 2.2791 4.3952 7.3809 4.9922 0.8955-7.7746-0.9555-16.647-6.8145-16.385zm-214.3 1.7305c-9.6064-1.249-11.396 9.9859-18.832 12.754 9.3893 3.203 14.219-7.3265 18.832-12.754zm151.96 1.2695c-4.8439-1.2212-10.36 7.4197-6.2891 13.281-12.428 3.365-15.141 36.309-0.8672 40.705-0.9226 1.9539-3.3664 3.1493-2.2266 6.3515-4.3419-0.054-4.7752 3.7987-2.4414 6.3496-18.833 11.777 17.639 23.717-6.1328 33.486-7.5982 10.584 10.474 17.26 4.7207 4.4511 12.32-12.971 24.37 19.104 21.33 1.8985 7.0014 6.1329 7.816-7.8152 0.3262-3.0391-1.9539-6.1872-10.747-4.2864-0.3262-8.3027 1.8453-2.985 2.3883-9.4453-3.0391-6.6231-2.5508-1.4654-2.8768-4.9922-7.2187-4.9922-3.5821-5.21-10.257-16.498 0.5977-19.104 0.8141-0.6513-0.1625-2.7134 0.8144-3.039 5.9156-2.5509 11.884 12.646 11.342 0v-0.1114c2.9116-3.8238 7.8171-5.5516 12.482-4.3964-6.5772-9.4914-8.7886-21.34-6.0781-32.564 5.4274-4.07-1.2483-8.9536 0-14.924-5.5356-0.2171-7.7064-3.7456-12.754-4.4512-1.0855-3.0665-2.6256-4.5695-4.2402-4.9766zm-147.42 6.2051c-2.0082 0.1332-3.7658 0.5162-4.8106 1.0996-1.791 5.5358-1.7906 8.3041 3.6368 10.529 0.1086 1.7368-1.4102 1.6282-1.4102 3.5821 7.9244 5.3731 8.5199-7.6534 14.978-8.3047 1.9133-5.4546-6.37-7.3057-12.394-6.9063zm208.05 11.896c-1.2212-0.156-2.3889 0.521-1.9004 2.502 0.6513 1.1398 3.6365 1.7368 4.125 0 0.2714-1.3569-1.0035-2.346-2.2246-2.502zm0.9804 8.8672c-3.3226-0.2057-6.7486 3.2262-0.1679 5.3633-3.854 6.9471-14.6-6.0249-16.934 2.7675-1.3026-8.141-18.345-9.3894-7.4903-0.2714-2.6595 3.6906-7.654-4.2347-8.9023 1.6269 0.5427 1.8454 2.7686 0.3265 4.1797 1.1406-0.9769 9.2267 6.6208 11.18 8.6289 16.608-3.5278-0.054-10.202-7.3263-7.7598 1.6289-14.654 7.6526 8.3028 5.4277 8.3028 5.4277-18.887 8.412 13.08 10.854 14.166 18.832 0.5428 6.893-8.7908 8.847-5.4258 18.236-0.488 9.3353-16.283 2.063-16.283 10.855 0.1085 6.622 12.267 12.972 8.3047 24.912 3.4735 4.0163 6.5128-4.0708 9.9863-0.8144-9.172 3.8531 4.0165 25.725 3.3652 12.156 6.2416 1.8996 10.799-2.9306 4.9375-7.164l0.055-0.053c2.2796-4.722-1.3574-9.5531-1.3574-14.98 1.9539 0.2171 1.3585 2.8768 3.041 3.3652 4.3962-2.1167 3.9612 0.977 6.5664 2.8223v-24.098c-0.9859-0.01-1.9684-0.1157-2.9316-0.3261 0.3256-2.4966-0.2163-8.7391 2.9316-9.6074v-63.445c-1.0999 0.5186-2.3421 0.6527-3.5273 0.3809 0.2645-3.8059-1.692-5.2399-3.6856-5.3633zm-217.97 22.941c-6.1333-1.194-14.328 7.9234-12.809 12.482 1.954 6.567 21.275-5.5353 12.809-12.482zm116.83 12.018c-1.7681 0.5317-2.7037 3.3906-5.3496 2.373-2.388 3.1479-1.0857 8.5218 3.0391 4.4512 1.8452 1.4654 0.2165 5.9699 2.2246 6.8926 6.4586-1.357 3.0406-8.251 2.2265-13.244-0.8683-0.5698-1.5512-0.6499-2.1406-0.4726zm-680.2 17.68v120.66c21.981 6.621 22.578 27.679 35.441 41.465-2.334 9.7693 5.536 11.233 10.529 14.652 40.489-43.474-7.3802-24.151-4.9921-57.584-25.02-32.677-11.997-94.983-40.979-119.19zm762.66 6.4004c-1.4697 0.1551-3.282 0.7198-5.4258 1.6289-3.9077 7.4356 1.7906 11.343 9.1719 9.6601 1.9948-8.5482 0.6629-11.755-3.7461-11.289zm-28.166 3.5273c-2.3881-0.036-3.582 0.8881-3.582 2.7695 1.4111 2.6594 6.35-0.5443 3.582-2.7695zm-42.768 4.668c-2.9362 0.1388-6.6894 2.7647-7.707 4.5625 2.7134 2.2253 8.9556 0.1619 11.344-1.4121-0.4068-2.422-1.8749-3.2338-3.6367-3.1504zm-581.22 13.35c-4.3433-0.4015-9.5123 3.5266-15.74 13.56v0.2168c-40.217 15.848-13.079 55.09 8.6309 75.551 19.376 40.108 1.0852 76.526 53.242 98.236 27.571 36.745-10.421-76.311-17.205-82.986-6.7917-19.8-10.107-102.84-28.928-104.58zm245.97 118.05c-0.7494 0.023-1.6155 0.1568-2.6094 0.418-2.4291 0.5624-3.9224 3.0105-3.3106 5.4277 2.1879 18.012 17.16-6.1934 5.92-5.8457zm69.197 8.0645c-4.8344-0.4672-8.0154 2.6059-6.5703 12.273 10.855 1.3569 14.762 10.855 29.742 9.2812 2.93 14.328 18.834 18.778 32.564 15.738-2.877 11.886 16.227 4.0695 15.521 15.522-24.369 17.802-67.952 25.401-92.646 43.963 51.67-9.661 97.152-27.788 154.79-24.314-2.985 8.5753-20.462 2.2788-24.695 9.3887 19.865 2.985 6.5123 3.0393 2.496 14.654l0.2715-0.2149c11.669 1.411 15.035-20.68 33-12.973-5.048 5.8617-15.469 6.295-19.377 13.242 34.464-19.05 56.554-12.266 92.646-17.693-25.183-7.9783-48.141-0.3239-75.984-4.1231-7.435-26.54-79.13 1.7366-103.12-0.5429 25.889-15.794 63.826-19.54 90.692-34.358-17.314-2.117-30.123 10.313-47.436 9.1192-9.66-16.337-41.411-18.236-57.693-31.262-3.4937-6.3093-16.146-16.923-24.203-17.701zm290.42 32.408c11.723 11.126-9.1739 9.6068-9.4453 14.654 2.9308 12.972 31.697-14.98 9.4453-14.654zm34.68 1.9004c-2.6594 1.2483-5.318 2.7682-8.086 0.543-1.1941 4.8846 9.4428 5.6442 8.086-0.543zm5.1113 9.8437c-3.2166 0.6163-5.9666 3.4255-7.2285 9.5313l0.1621-0.2715c3.962 2.2795 4.1799 5.3745 1.9004 9.6621 8.6834-7.0556 5.9703 10.204 13.352 7.2188 0.543 14.545 9.0093 3.2022 13.568 0 0.76 7.2184 12.05 8.2482 10.856-0.4356-2.9308 0.6513-6.4051-2.116-9.0645-4.0156 5.8621-4.3965-1.9526-17.043-8.3027-11.615-3.2225-6.038-9.8812-11.101-15.242-10.074zm-54.156 7.0606c-1.448 0.1205-2.6034 1.0331-2.461 3.0683 1.5196 1.4111 5.5907 3.5289 7.4903 1.4122 0.6106-2.6798-2.6161-4.6814-5.0293-4.4805zm-191.41 27.713c-14.094-0.2697-30.02 2.8032-40.359 5.6933h-0.2168c7.924 2.6052 24.261-1.3556 33.596 1.9551-4.722 5.8078-17.747 3.4731-21.709 10.203 9.4532 1.8338 19.083-2.1894 24.422-10.203 7.4896-0.3257 14.926-0.7073 17.477-6.1347-4.0165-0.9634-8.5108-1.4238-13.209-1.5137zm150.62 13.476c-3.2589 0.3028-6.2809 1.6345-7.2578 4.1582 4.0704 2.2795 10.149 0.056 10.529-4.123-1.0719-0.1221-2.1852-0.1361-3.2715-0.035z" fill="#fff" stroke-width="5.4274"/>
 <g fill="#575656" stroke-width="5.4274">
  <path class="cls-2" d="m387.68 53.46c15.739 4.8304 21.221-33.161 11.615-40.488-13.189-7.8155-22.578 37.992-11.615 40.488"/>
  <path class="cls-2" d="m320.81 129.5c10.258-0.32564 4.7218-23.664 5.4274-33.324 14.654-16.282 10.855-39.132 10.855-58.779-22.469-23.284-31.425 24.043-22.741 41.031-7.1099 11.126-7.5984 46.784 6.6757 51.072"/>
  <path class="cls-2" d="m645.86 36.526c-0.37992-2.2252-2.5509-4.8847-4.9932-3.3107a3.962 3.962 0 0 0 4.9932 3.3107"/>
  <path class="cls-2" d="m485.05 103.66c10.529-1.8453 6.8928-84.776-8.3582-49.661-19.701 11.343 3.5278 42.605-11.343 51.886-5.4274 20.244 23.664 16.825 19.701-2.2252"/>
  <path class="cls-2" d="m293.08 86.839c1.4111-8.8467-11.615-35.387-18.345-33.596-9.8236 5.156 6.5672 51.669 18.345 33.596"/>
  <path class="cls-2" d="m248.14 106.76c-18.29 0-5.8073 39.457 5.4274 31.045 2.8765-2.1167 0.97693-17.151 3.5821-21.33 10.204-9.1723 12.483-36.744 4.7218-50.258-6.133-3.962-17.693 13.351-24.423 1.4111-1.2483 2.4966 0.70556 6.0244-1.0855 9.1723 9.7151 6.6757 13.297 15.468 11.777 29.959"/>
  <path class="cls-2" d="m436.74 89.01c-15.414-45.373-35.929-15.414-28.005 15.522 14.6 17.856 28.548 1.8996 28.005-15.522"/>
  <path class="cls-2" d="m453.13 80.651c6.0787-8.1411-6.5672-15.631-4.7218-2.2252a5.7531 5.7531 0 0 0 4.7218 2.2252"/>
  <path class="cls-2" d="m362.71 120.87c10.366 9.118-5.9159 45.536 15.522 40.217 15.848-7.2184-0.92266-41.465 8.8467-54.274 2.2252-11.235-4.6133-19.756 4.1791-23.338-48.847-3.6906-34.681 6.6757-28.548 37.178"/>
  <path class="cls-2" d="m397.07 108.98a3.9077 3.9077 0 0 0 6.133-3.0936c-2.0081-3.0936-6.6757-0.54274-6.133 3.0936"/>
  <path class="cls-2" d="m293.08 137.8c-3.5821 0.27137-4.5047-6.8385-1.1398-7.7612 3.365-0.92266 4.3962 7.4898 1.1398 7.7612m-10.855-27.137c-8.1411 1.4111-2.4423 41.357 5.4274 39.674 3.365-3.6364 6.6214-9.8236 13.351-8.5753 5.4274-2.6594 8.3582-27.137-1.6825-26.106-12.863 14.111-7.5984-3.0394-17.205-4.9932"/>
  <path class="cls-2" d="m348.55 142.25c4.6133-0.43419 2.6052-11.886-1.9539-9.9864-3.365 1.3569-2.0081 10.312 1.9539 9.9864"/>
  <path class="cls-2" d="m325.64 183.55c4.8847 0.86839 9.8779-4.7218 16.282-1.0855 11.777-42.551-43.419-37.286-16.282 1.0855"/>
  <path class="cls-2" d="m75.55 179.1a39.24 39.24 0 0 1 13.08-2.4966c4.0706-13.08-20.787-10.855-13.08 2.4966"/>
  <path class="cls-2" d="m142.14 238.81c45.916 36.906 58.67-74.41 8.3039-68.277-31.045 5.2103-31.045 53.297-8.3039 68.277"/>
  <path class="cls-2" d="m779.1 187.73c4.0706-6.6214-7.5984-3.4735 0 0"/>
  <path class="cls-2" d="m247 255.09c26.54 27.137 28.602-15.685 16.282-30.773-15.468-8.9552-26.54-37.666-44.939-37.992-13.297 2.7137-11.832 25.563-6.9471 39.403 6.4586 18.453 23.284 16.825 35.495 29.417"/>
  <path class="cls-2" d="m315.82 229.36c-4.6676 0.43419-5.4274-6.73-6.9471-10.855-27.68-68.44-21.71 0.65129-5.4274 19.702 12.103 5.4274 18.833-4.0706 27.734 14.98 8.2497-8.2497-1.9539-31.045-5.4274-41.303-6.6757-19.104-7.3813 17.531-9.7151 17.748"/>
  <path class="cls-2" d="m362.44 189.96c-11.723 2.3338-6.8385 18.942-7.2184 26.323-7.4356 10.855-7.0014 50.529 9.118 49.118 7.1099-1.791-0.70557-21.384 1.6825-27.734 21.71-6.8928 11.886-46.893-3.5821-47.707"/>
  <path class="cls-2" d="m701.38 204.4s0.59701 0 0.59701 0.27137c8.0868-1.791-3.4193-7.8697-0.59701-0.27137"/>
  <path class="cls-2" d="m469.8 206.24c6.8928 2.768 1.3026-7.2727 0 0"/>
  <path class="cls-2" d="m402.06 247.65c15.739 0.65128 5.4274-35.984-4.3962-32.564-10.855 3.8535-7.0556 32.022 4.3962 32.564"/>
  <path class="cls-2" d="m512.51 231.86c-4.0163 0-7.8698-5.156-10.855-1.1398a5.4572 5.4572 0 0 0 10.855 1.1398"/>
  <path class="cls-2" d="m459.81 264.04c1.6825-5.4274-9.0095-20.407-16.282-18.073-14.274 4.7761 12.537 28.765 16.282 18.073"/>
  <path class="cls-2" d="m632.89 246.57a7.3813 7.3813 0 0 0-10.258 9.3894 15.142 15.142 0 0 0 10.258-9.3894"/>
  <path class="cls-2" d="m652.32 255.09c-2.5509 0-4.6133 1.0312-5.4274-2.768-5.1018 1.194-7.327 5.4274-11.94 6.9471 1.1398 8.2497 18.128 1.791 17.205-4.1791"/>
  <path class="cls-2" d="m725.81 280.98c9.2266 2.7137 10.855-14.545 9.7151-21.384-9.3894-3.962-13.786 20.136-9.7151 21.384"/>
  <path class="cls-2" d="m627.9 271.8c2.2795 3.1479-2.7137 2.9851-3.5821 4.7218 2.0624 2.9851 0.54274 7.1099-0.86839 10.855 8.7381 3.2022 6.6757-10.855 9.1723-16.282-5.4274-3.365-9.8236 0.59702-8.0326-9.1723-5.4274 3.0394-5.9159 16.282 3.3107 9.7151"/>
  <path class="cls-2" d="m402.39 275.39c-10.095 16.282 13.406 19.43 21.71 26.377 2.9308-13.786-10.366-32.022-21.71-26.377"/>
  <path class="cls-2" d="m576.55 384.69c1.3568-1.9539 4.6676 0.27137 4.1791 2.768-1.6282 2.0081-5.4274-0.32565-4.1791-2.768m-89.552-23.284c69.037 29.796 18.019-38.318 63.772 0 13.514 4.3962 11.832 0 10.529 12.754-23.826 4.6133-14.166 29.091-17.476 43.419-10.041 0.97694-23.121-19.919-37.178-13.569 3.0393 13.514 28.494 27.137 40.217 15.251 13.514 10.475 30.339 7.6526 45.265 4.7218-2.9308-19.43-11.506-19.539 6.9471-31.642-10.855-37.123 59.267-8.901 50.204-44.125-0.37992-8.7924 9.8236-16.282 6.3501-25.78-9.8236-3.4193-10.366 14.763-17.205 6.4044-5.4274 2.1167-3.6364 9.9322 2.4966 7.7612 7.2727 9.0638-3.9077 27.408-13.026 17.205-12.592 5.4274-27.137 1.8996-36.364 13.569-1.9539 0-23.066-12.266-19.647 2.2252 12.809 6.5672-5.4274 16.554-8.3582 7.4898-0.4342-6.7843 10.366-11.343 8.901-18.562-11.832-18.073 21.275-7.1642 27.463-5.8616 6.8928-0.32565 6.2415-6.8928 8.0326-13.84 2.768-10.855 27.897-11.723 22.469-25.563 6.2415-0.59701 15.902 0.48847 16.282-8.8467 7.924 2.9851 13.894-10.855 13.894-18.616-6.4043 0-12.103 5.9159-11.398-4.9932a17.259 17.259 0 0 0-9.9322 9.1723c13.514 0-1.5197 3.4193-3.0936 8.3039 4.1791 13.731-22.198 12.917-32.564 14.437a13.243 13.243 0 0 0-4.1248 7.4898c9.0095 4.9932-12.972 17.313-14.708 5.4274-1.4654 3.962-5.4274 6.133-7.2184 0.86839-27.897 25.617-35.278-5.4274-54.274-18.073-23.175 8.2497 17.476 19.81 18.019 30.285-15.957 8.2497-28.06 9.118-41.574-5.8616-38.535-17.313-41.031 12.972-12.483 28.602"/>
  <path class="cls-2" d="m235.39 290.96c-26.757-16.282-25.346 26.16-11.94 37.449s49.444 58.507 58.779 26.052c1.4111-28.765-31.479-50.475-46.567-63.501"/>
  <path class="cls-2" d="m503.61 323.69c10.855 0-6.6214-14.437-4.1248-16.934-49.552-42.985-31.805 13.134 4.1248 16.934"/>
  <path class="cls-2" d="m778.83 300.35c-0.37992-1.8453-5.1018-2.9851-5.4274-0.27137a8.0326 8.0326 0 0 0 5.4274 0.27137"/>
  <path class="cls-2" d="m773.24 307.84a25.78 25.78 0 0 0 5.8616 5.4274 6.2958 6.2958 0 0 0 1.9539-6.6214c-2.3338 0-7.0014-0.81412-7.8155 1.3568"/>
  <path class="cls-2" d="m787.41 331.99c1.5197 7.924 7.2185-2.1167 0 0"/>
  <path class="cls-2" d="m414.27 362.23c10.855 27.734 28.982 52.592 65.129 56.879 21.71-12.537-6.2958-28.765-3.0394-52.429-17.096 3.3107-22.252-23.392-34.138-22.469-8.7924 0.65129 1.6825 21.167-3.0394 24.695-8.4125 6.2415-15.794-10.855-24.695-6.6757"/>
  <path class="cls-2" d="m377.1 374.17c12.863 6.2958 27.788-7.1642 19.973-18.616-9.9322-14.654-26.323 2.0081-19.973 18.616"/>
  <path class="cls-2" d="m778.51 355.28c-2.9308-8.6838-9.3351 2.3881 0 0"/>
  <path class="cls-2" d="m775.2 362.23c-1.6282 0.92266-1.5197 5.4274 0.54274 5.4274 4.559 0.70556 3.4193-7.7612-0.54274-5.4274"/>
  <path class="cls-2" d="m655.36 379.92c1.194 8.7924 21.71 1.0312 14.166-10.258-4.7761-3.6364-14.817 5.4274-14.166 10.258"/>
  <path class="cls-2" d="m633.16 397.45c-17.748 16.662-14.491 6.73-22.198-9.4437-18.29 8.6296 9.2809 21.113 11.126 33.324 5.8616 1.194 6.6214-3.5821 6.3501-7.4898 10.855 0.43419 19.81-7.4898 17.748-18.019-3.0936 2.3881-9.7151-0.37992-13.026 1.6282"/>
  <path class="cls-2" d="m690.58 392.73c-1.6282-7.5441-15.142 2.8765-11.615 10.855 5.4274 6.7843 12.863-4.9389 11.615-10.855"/>
  <path class="cls-2" d="m668.98 396.91c-24.966-3.0936-3.9077 22.469 0 0"/>
  <path class="cls-2" d="m788.22 409.39c3.5821 0.59701 4.8304-8.901 0.86839-8.0326-2.3881 0.54274-4.0706 7.4898-0.86839 8.0326"/>
  <path class="cls-2" d="m783.23 419.65c13.46-4.2876-6.2415-13.406 0 0"/>
  <path class="cls-2" d="m662.85 427.68a2.0081 2.0081 0 0 0 1.9539-0.54274c0.48846-3.6906-4.2877-1.7368-1.9539 0.54274"/>
  <path class="cls-2" d="m645.1 445.43v-1.3568c-3.5278-2.4966-3.4735 3.7992 0 1.3568"/>
  <path class="cls-2" d="m764.4 456.28c1.791-3.9077-1.5197-9.2809-4.9932-8.901-13.297 1.4654 1.194 17.096 4.9932 8.901"/>
  <path class="cls-2" d="m687.54 473.76c-1.6825-5.8073-2.8222-17.422-9.9864-16.282-15.468 2.9308 2.6594 38.806 9.9864 16.282"/>
  <path class="cls-2" d="m710.99 476.26c-1.5197-0.70556-2.2795 0.97693-4.3962 0.54274-0.75984-6.1872 7.5441-15.685-4.1791-10.855-3.6364 6.3501 5.156 21.71 8.5753 10.258"/>
  <path class="cls-2" d="m764.94 479.29c0-1.4654 0.92266-3.5821 0.27137-4.9932-5.8616-2.3338-5.6988 5.8616-0.27137 4.9932"/>
  <path class="cls-2" d="m767.71 482.06c0.70556-0.59702 1.574-1.0312 1.4111-2.4966-2.1167-1.791-3.9077 1.574-1.4111 2.4966"/>
  <path class="cls-2" d="m727.76 485.43c-2.1167-0.92266-3.7449 2.171-3.0393 4.1248 2.171 0 2.8222-1.9539 3.0393-4.1248"/>
  <path class="cls-2" d="m739.7 514.79c0.65129-3.365-2.4966-2.2795-2.4966 0.32564 0.86839 1.0312 1.7368 0 2.4966-0.32564"/>
  <path class="cls-2" d="m782.69 542.74c-1.574-2.1167-5.4274 0-4.7218 2.171 1.8453 1.3026 4.2334-0.43419 4.7218-2.171"/>
  <path class="cls-2" d="m8.7381 36.201c12.972 40.488 10.963-29.851 29.254-28.005 15.414 5.1018 40.488-5.9702 57.259-2.4423-20.733 25.943 21.71 54.274 3.9077 72.782-18.996-2.5509-28.602-35.115-56.065-21.33-32.293-12.754-23.446 11.56-25.78 32.564-36.038 73.813 58.67 53.08-1.0312 94.763-26.811 47.707 31.045 26.214 45.753 42.605 4.1248 11.995 34.247 62.958 20.244 67.788-51.56 1.4111-48.521 36.147-57.422 21.71-25.78-48.847-22.252-225.73-16.282-280.33m91.94 327.33c33.216-53.514 36.309 66.649 44.668 91.018 6.7843 6.6757 44.776 119.73 17.205 82.985-52.157-21.71-33.867-58.128-53.243-98.236-21.71-20.461-48.847-59.702-8.6296-75.55m255.79 110.12a4.4505 4.4505 0 0 1 3.3107-5.4274c15.902-4.1791-0.97693 24.64-3.3107 5.4274m119.4 86.839c13.786-3.8535 37.503-8.0326 53.569-4.1791-2.5509 5.4274-9.9864 5.8073-17.476 6.133a23.881 23.881 0 0 1-24.423 10.204c3.962-6.73 16.988-4.3962 21.71-10.204-9.3351-3.3107-25.672 0.65129-33.596-1.9539m67.137 11.886c4.0163-11.615 17.368-11.669-2.4966-14.654 4.2334-7.1099 21.71-0.81411 24.695-9.3894-57.639-3.4735-103.12 14.654-154.79 24.315 24.695-18.562 68.277-26.16 92.646-43.962 0.70556-11.452-18.399-3.6364-15.522-15.522-13.731 3.0394-29.634-1.4111-32.564-15.739-14.98 1.5739-18.887-7.924-29.742-9.2809-3.8535-25.78 25.183-4.6676 30.773 5.4274 16.282 13.026 48.033 14.925 57.693 31.262 17.313 1.194 30.122-11.235 47.436-9.118-26.866 14.817-64.803 18.562-90.692 34.356 23.989 2.2795 95.685-25.997 103.12 0.54274 27.843 3.7992 50.801-3.8535 75.984 4.1248-36.092 5.4274-58.182-1.3568-92.646 17.693 3.9077-6.9471 14.328-7.3813 19.376-13.243-17.965-7.7069-21.33 14.383-32.999 12.972m127.06-3.8535c-0.37991 4.1791-6.4586 6.4043-10.529 4.1248 1.3026-3.365 6.2415-4.6133 10.529-4.1248m42.551-36.744c-1.8996 2.1167-5.9702 0-7.4898-1.4111-0.37992-5.4274 8.4668-2.8765 7.4898 1.4111m9.3351-23.284c22.252-0.32564-6.5129 27.626-9.4437 14.654 0.27137-5.0475 21.167-3.5278 9.4437-14.654m26.594 2.4423c2.768 2.2252 5.4274 0.70556 8.0868-0.54274 1.3568 6.1872-9.2809 5.4274-8.0868 0.54274m5.9702 18.833c3.365-16.282 17.313-9.118 22.469 0.54274 6.3501-5.4274 14.166 7.2185 8.3039 11.615 2.6594 1.8996 6.133 4.6676 9.0638 4.0163 1.194 8.6838-10.095 7.6526-10.855 0.43419-4.559 3.2022-13.026 14.545-13.569 0-7.3813 2.9851-4.6676-14.274-13.351-7.2184 2.2795-4.2876 2.0624-7.3813-1.8996-9.6608m-198.26-224.69c-1.5197-4.559 6.6757-13.677 12.809-12.483 8.4668 6.9471-10.855 19.05-12.809 12.483m-1.6282-50.909c7.4356-2.768 9.2266-14.003 18.833-12.754-4.6133 5.4274-9.4437 15.957-18.833 12.754m18.562-4.1791c4.1791-2.3338 19.756-1.4654 17.205 5.8073-6.4586 0.65129-7.0556 13.677-14.98 8.3039 0-1.9539 1.5197-1.8453 1.4111-3.5821-5.4274-2.2252-5.4274-4.9932-3.6364-10.529m-57.151-93.786c1.2483 6.8928-9.9322 1.2483-5.4274-1.9539a3.8535 3.8535 0 0 1 5.4274 1.9539m2.768-112.94c-2.0081-1.791-0.92266-7.4356 1.6825-8.0326 1.194 2.3338 1.3026 7.5441-1.6825 8.0326m17.476-29.579c-1.2483 10.204-7.3813 10.421-14.383 16.282 0.59701-6.6757 4.0706-14.274-4.7218-14.437-1.0312 5.6988-10.855 6.0787-8.3582-2.2252 6.2415-1.3026 3.0936-6.4043-2.5509-7.4356h41.14c-5.8616 1.574-10.855 4.2334-11.126 7.7612m3.6364 25.997c-2.768 0.54274-14.545-8.1411-5.4274-9.9864 6.2958-1.2483 9.8779 9.118 5.4274 9.9864m47.164-25.997c1.8996 5.1018 6.7843 29.037 2.2252 30.122-12.049-4.559-20.624-12.537-14.437-25.997-13.08 1.3026 1.0855-9.9864-6.5672-11.886h17.151c-10.583 1.4111-1.4654 5.4274 1.6282 7.7612m4.1248 36.526c1.0312 0.97693 2.0624 4.0706 0.86839 5.4274-2.4966-0.27137-5.9159-5.753-0.86839-5.4274m8.0868 27.137a39.783 39.783 0 0 1-8.0868-11.995c-1.791-11.235 12.809 3.962 8.0868 12.429m30.773-25.726c0.92266 6.8385-10.855 0.59702-7.2185-2.4966 1.6825-1.3026 7.0014 0.86839 7.2185 2.4966m32.999-21.71c3.365-17.693 2.3881 3.2022 11.398 3.8535 3.8535 6.0787-2.3338 12.483 0 17.693-3.2022 2.768-5.4274-1.3568-5.4274-4.7218-9.0638-5.753-11.723 6.7843-4.9932 10.529 12.863-1.3026 0.37992 8.9009-8.3582 3.6364-0.59701 2.171 0 5.4274-1.0855 7.1642-16.608 7.7612-8.4668-9.9322-18.887-13.84 0-15.414 3.2022-34.356-4.4505-48.412h36.255c0 9.498-19.104 15.739-4.3962 24.098m124.56 201.41c-1.4654-5.4274 3.0394-6.133 6.5672-7.6526v4.6133c-2.2795 0.92266-3.5278 2.8765-6.5672 3.0394m-0.75984 19.376c-3.7992-5.753-4.8847 5.4274-10.855 2.4966 1.6282-4.8304 7.2727-5.0475 4.4505-10.204 11.56-9.9864 15.251 2.3338 14.057 12.7-5.1018-0.59702-13.677 1.791-7.3813-4.9932m-3.0394 12.212c-0.97693-3.962 4.6676-2.7137 4.1248 0-0.48846 1.7368-3.4735 1.1398-4.1248 0m-15.577-45.373a47.11 47.11 0 0 0 0 8.3039c-5.9702-0.48847-5.9159-7.6526 0-8.3039m4.1791 18.779c-1.1398 0 0 2.5509-0.81411 3.0394-13.569-7.5984 13.514-18.887 13.84-6.0787 0 4.2334-10.583 7.9783-13.026 3.0394m21.71-28.765c-10.855-1.4111-3.7992-8.6296 0-14.22zm-48.467-12.374c0.43419-6.8385 5.0475-13.351 10.855-7.7612 3.8535-10.855 6.133 2.0081 9.9864 2.2252 7.4356 0.32564 2.9308-15.088 13.84-10.855-3.5821-6.1872 1.194-10.366 5.4274-5.4274a8.3582 8.3582 0 0 1 7.924-5.4274v18.562a12.049 12.049 0 0 0-4.0706-0.32565c-0.86839-14.925-9.118 0.32565-7.4898 7.4356 6.4044 2.4423-1.3568 7.0014 1.6825 13.026 10.855 5.7531 7.1642 14.166-1.9539 4.7218-3.4735 4.559-7.5984 2.9851-8.0326-3.365-8.6296 0-8.4125-8.3582-6.133-14.111-11.506 6.8385-10.421 14.925-22.198 0.86839m-7.4898 18.507c0.86839-1.791 5.0475-4.7761 6.4044-3.0394 0 2.8223-4.559 5.4274-6.4044 3.0394m-20.244-1.0855h-0.54274a7.327 7.327 0 0 1-3.8535-1.0855c-1.6282 0.70556-3.0936 4.2876-5.4274 1.8996 0-2.6052 1.7368-3.0936 4.1791-3.0394 0.86838-5.4274 8.2497-4.3419 5.4274 1.9539m-62.307-138.29c1.3026 0.81412 1.5739 3.7449 0 4.4505-3.2564 0.59701-4.0163-5.4274 0-4.4505m0.86838 34.356c-4.4505 1.791-9.498-7.2184-4.4505-8.901a19.701 19.701 0 0 1 4.4505 8.901m29.362 209.99c-2.0081-0.92266-0.37992-5.4274-2.2252-6.8928-4.1248 4.0706-5.4274-1.3026-3.0394-4.4505 3.5278 1.3568 4.0163-4.1791 7.4898-1.8996 0.81411 4.9932 4.2334 11.886-2.2252 13.243m15.251 21.71c-2.3881 1.574-8.6296 3.6364-11.343 1.4111 1.6282-2.8765 10.258-7.8697 11.343-1.4111m-6.4043-131.56c0-2.4423 1.8996-2.4966 2.4966-4.1248-11.398-1.3568-2.6594-8.4668-3.0393-13.297-0.32565-3.6364-9.7693-11.615-10.258-18.562-0.37991-4.7218 3.4736-8.9552-2.8222-10.855 3.5278-9.118-9.9864-24.261-13.297-10.855-5.4274-1.4654-2.0081-10.312-1.0855-13.569 9.2809 3.3107 2.4423-3.2564 10.258-0.54274 2.4423-7.3813-12.212-19.919-10.855-3.365-10.475-0.81411-10.366-14.383-9.118-23.772 13.677 1.4111 43.419 24.803 42.171 36.526 4.2876 2.6594 2.8222 6.6757 2.171 10.529 9.6608-11.18 12.266 9.118 6.9471 14.383 14.22 6.8928 7.1642 27.951 2.2252 36.526-4.2334 1.1398-11.995 4.6676-15.794 1.0855m41.357 95.522c0.54274 12.646-5.4274-2.5509-11.343 0-0.97694 0.32565 0 2.3881-0.81412 3.0394-10.855 2.6052-4.1791 13.894-0.59701 19.104 4.3419 0 4.6676 3.5278 7.2184 4.9932 5.4274-2.8222 4.8847 3.6364 3.0394 6.6214-10.421 4.0163-1.6282 2.1167 0.32565 8.3039 7.4898-4.7761 6.6757 9.1723-0.32565 3.0394 3.0394 17.205-9.0095-14.871-21.33-1.8996 5.753 12.809-12.32 6.133-4.7218-4.4505 23.772-9.7693-12.7-21.71 6.133-33.487-2.3338-2.5509-1.8996-6.4043 2.4423-6.3501-1.1398-3.2022 1.3026-4.3962 2.2252-6.3501-14.274-4.3962-11.56-37.341 0.86839-40.706-5.4274-7.8155 6.1872-20.57 10.529-8.3039 5.0475 0.70557 7.2184 4.2334 12.754 4.4505-1.2483 5.9702 5.4274 10.855 0 14.925a40.488 40.488 0 0 0 6.0787 32.564 12.049 12.049 0 0 0-12.483 4.3962m4.1791 28.223c2.768 2.2252-2.171 5.4274-3.5821 2.768q0-2.8222 3.5821-2.768m22.741-1.8996c8.5753-3.6364 11.832-1.7368 9.1723 9.6608-7.3813 1.6825-13.08-2.2252-9.1723-9.6608m23.012 50.638c5.8616 4.2334 1.3026 9.0638-4.939 7.1642 0.65129 13.569-12.537-8.3039-3.365-12.157-3.4735-3.2564-6.5129 4.8304-9.9864 0.81411 3.962-11.94-8.1954-18.29-8.3039-24.912 0-8.7924 15.794-1.5197 16.282-10.855-3.365-9.3894 5.9702-11.343 5.4274-18.236-1.0855-7.9783-33.053-10.421-14.166-18.833 0 0-22.958 2.2252-8.3039-5.4274-2.4423-8.9552 4.2334-1.6825 7.7612-1.6282-2.0081-5.4274-9.6065-7.3813-8.6296-16.608-1.4111-0.81411-3.6364 0.70556-4.1791-1.1398 1.2483-5.8616 6.2415 2.0624 8.901-1.6282-10.855-9.118 6.1872-7.8697 7.4898 0.27137 2.3338-8.7924 13.08 4.1791 16.934-2.768-10.529-3.4193 4.559-10.149 3.8535 0a5.4274 5.4274 0 0 0 3.5278-0.37992v63.446c-3.1479 0.86838-2.6052 7.1099-2.9308 9.6065a14.166 14.166 0 0 0 2.9308 0.32565v24.098c-2.6052-1.8453-2.171-4.9389-6.5672-2.8222-1.6825-0.48847-1.0855-3.1479-3.0394-3.365 0 5.4274 3.6364 10.258 1.3568 14.98m-679.13-269.85c1.7368 0.32565 8.4125 26.54 8.5753 30.448 0.54274 9.3351-2.2795 18.616 10.312 18.29 9.0095-0.27137 4.6676-13.243 5.4274-21.71-1.574-26.269-21.438-52.809 12.754-60.896 3.6906-4.7218 3.9077-10.366 14.166-8.3039 10.855 20.841-5.0475 54.274 23.284 65.129 6.5129 0 5.9702-7.2184 9.4437-10.529 5.4274-4.9932 33.758-6.8928 31.859-18.833-1.5197-9.8779-18.616-17.693-31.045-13.84 10.095-17.205 15.088-49.715 4.4505-68.331-17.042-8.0868-32.293 25.563-29.851-16.554h41.357c-5.8073 15.305-0.65129 18.073 10.529 27.408 5.4274 23.392 2.1167 28.928 25.509 14.111 2.1167-18.345-9.118-26.269-10.855-41.52h68.44c-11.289 3.7449-12.157 35.224-3.4735 35.441s16.988-33.216 7.8697-35.441h39.24c1.7368 11.126 22.469 11.615 23.446 0h51.126c2.768 19.267 19.376 46.947 43.419 32.076-8.0868-20.027 20.136-33.053 33.867-32.076a10.855 10.855 0 0 0-6.1872 2.768c-4.0706 21.71 27.137 7.8155 16.282 23.501a45.59 45.59 0 0 0 8.7381 42.334c6.0787-3.5278-1.4654-16.282 2.4966-22.415 3.3107 9.3351 2.2795 23.066 8.6296 29.362 6.9471-2.2795 16.282 2.6052 8.5753 7.1642 15.577 8.6838-18.887 6.4043-20.516 13.569-2.6052 5.1018 0 11.94-7.2185 12.754-1.0312-7.0014-21.71-2.8765-10.529 3.0394 7.3813 17.205-13.46 5.4274-16.662 5.4274-13.948 6.6757-23.229 11.398-25.237 30.719-32.564-45.699-29.145 3.0936-49.389-3.3107-8.7924 5.4274 6.5129 16.011-7.4898 17.693-8.8467 20.678 29.525 24.098 37.992 33.758 19.647 8.0326 7.8697-40.76 22.469-37.666 29.688 16.662 13.677-36.744 48.304-30.122 3.4193 1.0855 6.4044 17.639 2.768 18.779-4.7218 1.5197-9.2809-0.32564-11.669 4.7218-3.7449 7.9783 3.6906 8.4668 4.1791 14.111 1.0312 11.452-0.92266 28.602 18.019 21.71 0.4342 8.3582 9.0095 8.521 11.669 14.654 13.948-6.4586 20.841 10.312 11.615 15.794 6.73 14.22-8.4668 13.786-10.258 24.912-17.042-5.8073-18.887 38.752-24.966 13.84-12.32-0.97693-23.284-2.1167-23.284-13.026 3.4193-9.3894-17.096-39.62-21.71-19.104-3.9077 21.71 7.2184 33.053 23.881 38.48 7.3813 7.4356 10.855 22.09 25.237 19.919 1.8453-15.468 22.849-14.545 32.564-19.376 0 4.8847-2.4423 3.9077 2.4966 7.2184-22.632-1.3568-24.478 24.423-6.6757 31.262 29.851 5.0475 87.327 2.6594 74.898-37.666-6.7843 3.3107-16.282 6.1872-23.284 10.258 4.3419 4.7218-8.5753 11.615-5.4274 2.4966-8.4125 7.7612-16.879 3.7449-5.8616-3.8535-6.73 2.9851-6.0787-1.7368-2.171-5.4274-6.2415-5.4274 5.4274-7.0014 8.3039-9.9864 0.81411 18.073 43.419-22.687 23.881-24.043-10.475-1.791-6.2958-9.2266-18.887-8.6296-2.4966-4.559 0-11.506-3.6364-15.197a86.187 86.187 0 0 1-47.381-32.564c-1.7368-2.9308-6.9471-2.3338-9.4437-4.3962 0.37992-4.9932-3.2564-3.7992-6.133-3.3107-6.4586-2.3881-7.6526-30.339 0-31.316 14.545 8.8467 12.049 30.773 36.092 43.419 16.282 11.235 53.08 27.137 67.951 10.855 1.8453 0.37992 0.70557 3.6906 2.4966 4.1248 2.9851-10.149 33.433-12.809 31.045 4.4505 4.6676 4.0163 14.763 54.817-4.1248 44.83-10.855 15.034-4.0706 9.6608-4.4505 22.415a18.019 18.019 0 0 0 13.894-7.7612 100.57 100.57 0 0 0 1.0855 11.886c13.243 6.2415-4.2334 5.753-3.5821 12.212 9.3894-6.4043 9.9864 10.258 9.118 17.693-0.86838 7.4356-19.919 25.292-4.9932 25.183 8.8467 9.1723 2.0624-11.886 9.9864-10.855 16.879 6.2415-17.639 26.16-9.7151 39.837 8.5753 1.8453 15.522-31.153 22.469-13.514s-23.881 20.841-9.118 35.658c4.1248-1.4654 2.3881-8.8467 5.8073-10.855 13.406 11.289 9.118-13.84 34.41-6.6214 7.8697-1.194 16.282-1.7368 9.9864 11.615-11.777 3.365-2.768 19.159-7.2184 29.091 5.0475 5.4274 2.9851 13.84 12.483 13.243-2.9851 3.9077 0.48846 14.383 6.0787 11.343 4.1791 14.654 24.478 13.677 23.066-1.8996 0-1.4654-10.855-9.6608-2.768-10.855 5.156 1.6825 12.32 5.4274 11.343-4.4505-3.6906 1.194-6.4044-0.37992-5.4274-5.4274 1.3026 0 3.0394 0 3.5821-0.54274-8.3039-6.0244-4.6133-15.305 6.4043-8.8467 9.1723-7.2184 12.592-11.506 12.374-23.555v43.419c-12.754 0.92266 3.7449 18.887 0 27.137-3.0394 0.86838-1.3568-3.4193-2.9308-4.2876-10.475 3.6364-12.103-9.1723-7.8155-15.739a90.258 90.258 0 0 1-13.297 6.0787c-0.37992 4.6133 0.37992 9.3351 0 13.243 2.7137 0 6.73-1.4111 7.4898 1.4111-13.623 10.149 0.70556 27.463 1.0855 42.334 6.133-0.54274 3.9077 6.8928-0.81411 6.6214-9.9322-8.521-24.043-10.041-34.953-13.84-1.574-1.194 1.791-4.0163-0.81412-4.6676-7.2184 4.2334-2.8222 8.0868-2.4966 14.925-17.965-3.0394 21.71 28.44-3.0394 27.951 3.3107-14.708-14.871-16.282-7.5441-25.183-1.6825-6.8385-21.71 0.32565-21.71 1.3569 5.8073 14.22-3.8535 1.0312-5.8616 10.855-21.004-11.777-5.8073 18.399 6.4043 5.4274 7.2727 13.514-15.305 16.282-20.516 9.4437-22.415 1.8453-16.282-28.711-27.137-39.891-14.328-5.4274-17.965 7.9783-16.282 18.29 8.4668 3.0936 10.421 17.422 5.8616 24.369 5.4274 0.65129 7.0556 5.4274 8.0326 10.855 16.282-1.9539 19.159 9.2809 26.377 16.282a13.189 13.189 0 0 1 16.879 11.615c15.739-1.3569 15.739-10.149 26.106 4.9932 2.6052 0 14.491-6.1872 16.282 0.54274-4.559 5.4274-53.514 6.0787-56.065-1.4111-10.421 3.5278-10.095-6.4043-14.708-10.204-2.7137 0-3.5821 1.574-6.0787 1.6282-1.194-9.0638-20.244-9.0095-16.282-21.71-5.9159-0.37992-9.1723-9.2809-4.9932-12.429-16.282-8.7381-42.171 3.5821-53.84 12.754 14.057 2.8765 32.564-2.4423 46.079 0.81411-9.3894 10.855-36.906 3.4193-56.065 6.0787 2.2795-19.756 37.341-23.284 57.151-29.634-10.855-51.886-14.925-3.2022-29.362-35.658 1.791-4.6676 4.3962-25.4 12.157-17.205 8.7381-11.506-12.646-40.651-9.118-10.475 9.2266 9.6065-1.7368 4.0163-6.6757 0.54275-12.157-2.8223-28.82-0.48847-37.992-13.297-11.832-5.4274-22.415 1.0855-32.999 2.2252-15.902-2.8222-50.638-30.611-45.482 8.8467 31.425 42.497-48.847-0.54274-52.483-16.282-25.509-27.734-51.235-6.6214-75.278-37.232-54.817-24.315-8.8467-27.951-5.4274-62.795-1.2483-6.8928-15.631-15.36-5.4274-26.323 17.802 9.0095-2.6052 27.626 31.913 17.422-6.9471-22.415-32.564-28.874-40.543-50.909-15.305-2.9308-3.4735 17.259-8.3039 25.78-36.255 16.282-6.6214 29.959-6.6757 55.577-4.0163 16.879-22.741-1.0312-27.137-1.6282-39.783 10.855 32.89 78.263 51.615 76.364 2.4966 1.8453 8.7381 19.104 1.6825 21.33-10.312 3.2022-6.4043-17.042-21.113-14.111-16.879 20.624-23.664-3.8535-34.41-15.522-46.893-12.917-54.274-71.859-96.499-86.079-1.7368 33.758 55.414 58.942 22.198 84.396a27.897 27.897 0 0 0 2.768 29.634c8.0868 9.6608 17.205 1.4111 30.231 5.4274 14.057 4.4505 5.9702 41.303 16.282 51.452-25.78 17.91-28.765-33.433-43.799-43.419-17.476-11.343-34.356-19.701-27.843-44.722 10.095-64.043-58.996-17.802-57.151-86.35 31.425 20.353 43.419-11.995 34.953-36.526-31.588-9.3894-39.132-4.7218-41.357 27.137-39.62 3.4735-36.744-134.6-64.64-130.26-31.642-8.2497-32.564-115.06-7.2185-43.419 2.3338-0.27137 4.9389 0.54274 7.7612 0.54274 0.65129-14.871 9.9322-16.282 21.384-20.787 5.4274-2.0081 8.3039-20.136 12.483-19.376m16.825-78.1c-8.5753-4.3962 4.8847-24.206-7.8697-27.137h25.726c8.3582 10.258-2.9851 34.953-17.856 27.137m-118.1 289.23c28.982 24.206 15.957 86.513 40.977 119.19-2.3881 33.433 45.482 14.111 4.9932 57.585-4.9932-3.4193-12.863-4.8847-10.529-14.654-12.863-13.786-13.46-34.844-35.441-41.465zm742.2-322.12h-695.9a52.049 52.049 0 0 0-52.049 51.886v694.27a55.197 55.197 0 0 0 52.7 53.84h695.9a54.98 54.98 0 0 0 51.398-53.84v-694.27a52.049 52.049 0 0 0-52.049-51.886"/>
 </g>
 <g fill="#fcc400">
  <path class="cls-3" d="m623.45 114.9c29.471 4.9389 8.1411 56.445-16.988 54.274-12.972 0-29.145-3.365-36.852-14.763-8.7381-9.4437-19.756-28.82-4.9932-37.178 7.1099-4.3419 8.1954 8.1411 9.0638 11.452a25.943 25.943 0 0 0 49.769-14.057" stroke-width="5.4274"/>
  <path class="cls-3" d="m369.5 650.04h49.932v136.5h-49.932zm50.529-37.992c1.8453 30.828-52.972 31.316-51.072 0-1.7368-30.828 52.592-30.882 51.072 0" stroke-width="5.4274"/>
  <polygon class="cls-3" transform="scale(5.4274)" points="108.21 110.47 108.21 118.19 99.26 118.19 99.26 144.92 90.01 144.92 90.01 118.19 81.22 118.19 81.22 110.47"/>
  <path class="cls-3" d="m659.43 786.54-59.376-186.97h54.925l19.701 73.433a638.75 638.75 0 0 1 15.522 65.455h0.54274c4.7218-23.012 9.9864-44.668 15.522-64.64l20.298-74.355h53.243l-61.33 186.97z" stroke-width="5.4274"/>
 </g>
</svg>
