<?xml version="1.0" encoding="UTF-8"?>
<svg id="svg37" width="157.27" height="157.17" version="1.1" viewBox="0 0 157.27 157.17" xmlns="http://www.w3.org/2000/svg" xmlns:cc="http://creativecommons.org/ns#" xmlns:dc="http://purl.org/dc/elements/1.1/" xmlns:rdf="http://www.w3.org/1999/02/22-rdf-syntax-ns#">
 <metadata id="metadata41">
  <rdf:RDF>
   <cc:Work rdf:about="">
    <dc:format>image/svg+xml</dc:format>
    <dc:type rdf:resource="http://purl.org/dc/dcmitype/StillImage"/>
    <dc:title/>
   </cc:Work>
  </rdf:RDF>
 </metadata>
 <defs id="defs9">
  <linearGradient id="Gradient_bez_nazwy_62" x1="15.47" x2="112" y1="29.45" y2="104.61" gradientUnits="userSpaceOnUse">
   <stop id="stop4" stop-color="#fff" stop-opacity="0" offset="0"/>
   <stop id="stop6" stop-color="#6c89bd" offset="1"/>
  </linearGradient>
  <linearGradient id="linearGradient959" x1="14.794" x2="142.92" y1="64.371" y2="64.371" gradientUnits="userSpaceOnUse">
   <stop id="stop953" stop-color="#1352a1" offset="0"/>
   <stop id="stop955" stop-color="#6c89bd" offset="1"/>
  </linearGradient>
 </defs>
 <g id="g951" transform="translate(-.03 -.022938)">
  <g id="g938" fill="#1352a1">
   <path id="path17" class="cls-3" d="m54.34 73.23h-6.85v12.66c0 2.62 0.81 3.57 3.09 3.57a15.1 15.1 0 0 0 3.76-0.61v9.5a41.45 41.45 0 0 1-7.79 0.73c-4 0-6-0.47-7.93-1.73-2.89-2-4.1-4.75-4-9.31v-14.81h-5.1v-8.65h5.1v-11.35h12.88v11.35h6.85z"/>
   <path id="path19" class="cls-3" d="m79.58 98.65h-9.94l-12.75-34.08h13.76l6 18 5.91-18h9.6z"/>
   <path id="path21" class="cls-3" d="m114.43 98.65v-21.47c0-3-0.73-4.15-2.81-4.15-2.47 0-3.67 1.67-3.67 5.16v20.46h-13.35v-34.05h12.4v4.81h0.13a8.07 8.07 0 0 1 2.87-3.61 13.06 13.06 0 0 1 7-1.87 12 12 0 0 1 8.11 2.88c2.21 2.07 2.75 4 2.75 10v21.84z"/>
  </g>
  <g id="g942">
   <path id="path13" class="cls-1" d="m131.56 20.38a78.72 78.72 0 0 0-124.15 25.05l11.49 6.39a65.67 65.67 0 1 1-4.6 14.73h-13.3a78.59 78.59 0 1 0 130.56-46.17z" fill="url(#Gradient_bez_nazwy_62)"/>
   <path id="path13-0" d="m155.98 64.291-0.0488 0.0801h-13.012a65.67 65.67 0 1 1-128.6 2.4199h-0.03125c0.15364-0.80847 0.31709-1.6154 0.50196-2.4199h-13.4c-3.3616 17.973-0.34985 35.437 7.2871 50.291l0.14453-0.0996a78.59 78.59 0 0 0 147.16-50.272z" fill="url(#linearGradient959)"/>
  </g>
 </g>
 <g id="g933" transform="translate(-.03 -.022938)">
  <path id="path15" class="cls-2" d="m19.93 48.77a6.7 6.7 0 1 1-6.7-6.71 6.7 6.7 0 0 1 6.7 6.71z" fill="#1352a1"/>
 </g>
</svg>
