<svg width="112" height="46.4" version="1.1" viewBox="0 0 105 43.5" xmlns="http://www.w3.org/2000/svg">
 <path class="st0" d="m85.8 28.1c0 5.3 4.3 9.6 9.6 9.6s9.6-4.3 9.6-9.6v-16h-6v16c0 2-1.6 3.5-3.5 3.5-2 0-3.5-1.6-3.5-3.5v-16h-6zm-36.2 3.2v6.1h6.1v-6.1zm-6.1-31.3h-31.3v6.1h-6v-6.1h-6.2v43.5h43.5zm-37.4 37.4v-25.2h6v25.2zm12.6 0v-6l10.1-13.1h-10.1v-6h18.7v6l-10.1 13.1h10.1v6zm49.2 0v-6h3.5l4.5 6h7.4l-6.1-8c2.3-1.8 3.7-4.5 3.7-7.6 0-5.3-4.3-9.6-9.6-9.6h-9.6v25.2zm0-12.1v-7.1h3.5c2 0 3.5 1.6 3.5 3.5 0 2-1.6 3.5-3.5 3.5h-3.5z" fill="#fff"/>
</svg>
