<svg width="800" height="239.86" version="1.1" viewBox="0 0 800 239.86" xml:space="preserve" xmlns="http://www.w3.org/2000/svg">
<path d="m135.07 0.00749h108.92v21.769h-108.92z" fill="#d51726" stroke-width="1.7693"/><g fill="#133370"><path transform="matrix(1.7692 0 0 1.7694 87.165 200.49)" d="m0 0c0 6.629-3.298 9.943-9.896 9.943h-17.204c-6.571 0-9.855-3.295-9.855-9.885v-0.369h-12.305v2.051c-0.273 13.672 6.576 20.508 20.549 20.508h20.508c13.672 0 20.508-6.846 20.508-20.536v-41.07h-12.305z"/><path d="m135.01 218.11h108.92v21.774h-108.92z" stroke-width="1.7693"/><path d="m135.01 87.244h108.92v21.774h-108.92z" stroke-width="1.7693"/><path d="m135.01 174.49h108.92v21.774h-108.92z" stroke-width="1.7693"/><path d="m135.01 43.646h108.92v21.773h-108.92z" stroke-width="1.7693"/><path d="m135.01 130.88h108.92v21.774h-108.92z" stroke-width="1.7693"/><path d="m357.23 239.87-65.397-72.753v72.753h-21.768v-109.01h21.768l65.308 72.648v-72.648h21.768v109.01z" stroke-width="1.7693"/><path d="m488.61 239.87-32.669-72.76-32.669 72.76h-25.38l47.167-109.01h21.768l47.167 109.01z" stroke-width="1.7693"/><path d="m599.54 239.87v-87.233h-43.466l-0.0743-21.774h108.85v21.774h-43.539v87.233z" stroke-width="1.7693"/><path d="m730.98 239.87-47.164-108.86 25.324-0.14509 32.717 72.779 32.676-72.779h25.382l-47.167 109.01z" stroke-width="1.7693"/></g></svg>
