<svg width="474.88" height="142.52" version="1.1" viewBox="0 0 379.9 114.02" xmlns="http://www.w3.org/2000/svg">
 <path d="m64.33 0.00536c17.194-5e-3 34.333-5e-3 51.77 0.05-6e-3 3.3776-6e-3 7.3034-6e-3 10.67h-51.774c4.3e-4 -3.9062 0-7.1456-4.3e-4 -10.726z" fill="#c5282f"/>
 <g transform="translate(-35.19 -170.48)" fill="#fff">
  <path d="m99.48 191.4c17.204-0.06 34.667-0.06 51.804-0.06v10.262c-17.29 4e-5 -34.474 4e-5 -51.774 4e-5v-10.262z"/>
  <path d="m99.53 211.8h51.754v10.527h-51.774c0-3.49 0-7.037 0.02037-10.527z"/>
  <path d="m246.73 232.65h10.221c7.42 17.23 14.969 34.578 22.649 51.708h-11.99c-5.63-11.3-10.47-22.922-15.63-34.442-5.29 11.45-10.542 22.932-15.692 34.442h-12.058c7.63-17.17 14.9-34.528 22.5-51.708z"/>
  <path d="m403.08 232.65c3.9024 0 8.0981 0.0364 12.011 0.0364-7.16 17.36-14.88 34.5-22.28 51.76-3.45-0.1-6.89-0.1-10.33-0.03-7.48-17.21-15.02-34.496-22.37-51.766h12.02c5.08 11.42 10.075 22.853 15.33 34.246 5.8501-11.799 11.094-23.719 15.619-34.246z"/>
  <path d="m76.8 232.65h10.43c0 11.777 0.05001 23.595-0.04 35.356-0.13 5.37-2.03 11.41-7.04 14.14-5.88 3.16-12.74 2.2118-19.13 2.2118-6.78 0-14.36 1.1582-20.22-3.1418-4.94-3.56-5.57-10.18-5.61-15.78 3.44-0.06 6.87-0.06 10.31-0.03 0.42 3.25 1.33 7.35 5.07 8.18 4.78 0.68 9.4222 0.37716 14.376 0.37716 3.6194 0 6.2036 0.46284 8.7136-1.2872 2.54-1.59 3.24-4.86 3.16-7.65 0-10.882 0.01966-21.698-0.02-32.376z"/>
  <path d="m99.51 243.18v-10.527h51.774v10.527h-51.774z"/>
  <path d="m163.6 232.65h10.401c10.191 11.555 20.51 22.936 30.87 34.276 0.02-11.41 0.10621-22.876 0.0562-34.276 3.5 0 6.9238 0 10.424 0.0764 0 17.21-0.05 34.422 0.02 51.632h-10.42c-10.26-11.42-20.57-22.792-30.78-34.252-0.08 11.42-0.05 22.84-0.04 34.26-3.4538-8e-3 -7.011-8e-3 -10.531-8e-3v-51.708z"/>
  <path d="m299.39 243.18v-10.527c17.276 0 34.574-0.0764 51.774 0v10.527c-6.81 0-13.889 0-20.775-6.2e-4 0.0704 13.798-0.0462 27.309-0.0462 41.182h-10.304c0.073-14.328 0.01-27.42 0.01-41.192-6.83 0.03-13.829 0.0106-20.659 0.0106z"/>
  <path d="m99.51 253.38h51.774v10.262h-51.774v-10.262z"/>
  <path d="m99.51 273.97h51.774v10.395h-51.774v-10.395z"/>
 </g>
</svg>
