<svg width="482.15pt" height="153.5pt" version="1.1" viewBox="0 0 482.15 153.5" xmlns="http://www.w3.org/2000/svg">
 <g fill="#3cade2">
  <path d="m419.37 0.66026v30.675h6.9756v-11.855h11.654v11.855h6.9756v-30.675h-6.9756v11.84h-11.654v-11.84z"/>
  <path d="m463.21 0.65538c10.546 0 18.94 2.4561 18.94 15.46 0 11.859-9.0807 15.179-18.94 15.22h-10.995v-30.68zm-3.6552 7.0402v16.84h4.7231c5.3264 0.15757 9.4713-2.6202 9.5652-8.4195 0-6.3473-4.312-8.4202-9.5652-8.4202z"/>
 </g>
 <g transform="matrix(.93132 0 0 .93132 404.74 317.39)" fill="#3cade2" stroke-width=".75">
  <path d="m-87.585-235.3c-8.952-1.119-10.071-10.071-8.952-14.546 0-3.3568 1.119-12.308 3.3569-14.546 1.119-2.2379 5.5948-6.7138 7.833-6.7138 0 0-1.119 7.833 1.119 12.308 1.119 4.4758 6.7138 12.308 6.7138 12.308s-2.2379 11.19-10.071 11.19zm-110.78-29.092c3.3569-4.4758 6.7138-7.833 11.19-5.5948 3.3569 2.2379 0 10.071-2.2379 12.308-3.3569 2.2379-12.308 6.7138-12.308 6.7138s0-7.833 3.3568-13.427zm-194.7 60.42c-4.4758 8.952-11.19 23.498-22.379 12.308 0 0-8.952-13.427 2.2379-22.379 10.071-10.071 26.855-15.665 26.855-15.665s-2.2379 17.903-6.7138 25.736zm140.99-110.78c4.4758 1.119-4.4758 30.212-8.952 34.688 0 0 3.3569-35.807 8.952-34.688zm104.06 20.141c1.119-7.833 4.4758-20.141 7.833-19.022 4.4758 0 3.3568 8.952 0 20.141-4.4758 11.19-11.19 21.26-11.19 21.26s1.119-14.546 3.3568-22.379zm163.37 33.567c-2.2379-4.4758-3.3568-3.3568-4.4758-1.119 0 3.3569-11.19 26.855-20.141 27.974-8.952 0-16.784-12.308-19.022-14.546 3.3568-11.19 31.331-33.569 31.331-33.569s-4.4758-5.5949-8.952-7.833c-4.4758-2.2379-6.7138 0-8.952 2.2379-2.2379 2.2379-19.022 30.212-19.022 30.212s-5.5948-10.071-5.5948-12.308c3.3568-7.833 3.3568-14.546-2.2379-16.784-4.4758-1.119-8.952 2.2379-12.308 6.7138-3.3569 3.3568 3.3569 20.141 3.3569 20.141s-7.833 10.071-15.665 7.833c1.119-13.427-2.2379-24.617-6.7138-26.855-8.952-3.3569-4.4758 0-10.071 1.119-16.784 1.119-20.141 14.546-24.617 21.26-4.4758 7.833-12.308 4.4758-12.308 4.4758 0-1.119-1.119-36.926-15.665-25.736-16.784 13.427 4.4758 31.331 4.4758 31.331s-3.3568 12.308-10.071 13.427c-6.7138 0-11.19-16.784-10.071-24.617 7.833-7.833 36.926-64.9 12.308-72.733-21.26-2.2379-26.855 77.205-26.855 77.205s-13.427 19.022-24.617 21.26c-11.19 1.119-10.071-8.952-10.071-12.308 3.3568 0 3.3568-1.119 7.833-2.2379 15.665-6.7138 30.212-33.569 8.952-35.806-22.379-2.2379-31.331 33.569-31.331 34.688-1.119 1.119-5.5948 11.19-13.427 12.308-7.833 0-11.19-14.546-11.19-14.546s4.4758-3.3568 8.952-7.833c3.3569-4.4758 12.308-24.617-3.3568-25.736-14.546-2.2379-27.974 23.498-27.974 23.498v-5.5948c10.071-11.19 32.45-62.662 8.952-64.9-21.26 0-23.498 73.852-23.498 73.852s-12.308 23.498-19.022 23.498c-6.7138 0-7.833-26.855-6.7138-27.974 1.119-1.119 12.308-23.498-1.119-23.498-12.308-1.119-13.427 31.331-13.427 32.45 0 0-8.952 19.022-14.546 19.022-6.7138 0-5.5948-16.784-3.3568-23.498 2.2379-7.833 8.952-23.498 1.119-25.736-8.952-1.119-14.546 17.903-14.546 22.379-2.2379 3.3569-17.903 11.19-17.903 11.19 4.4758-38.044 2.2379-73.852 2.2379-78.33 4.4758-2.2379 11.19-11.19 0-13.427-10.084-2.2397-14.56 8.9498-14.56 8.9498s-7.833 3.3568-23.498 5.5948c-14.546 3.3568-25.736 2.2379-25.736 2.2379 0 8.952 8.952 17.903 11.19 20.141 2.2379 1.119 4.4758 0 5.5948 0s19.022-7.833 30.212-14.546c1.119 1.119 0 69.376-3.3569 77.205-7.833 3.3568-44.758 16.784-49.234 32.45-3.3569 12.308-1.119 33.569 23.498 32.45 33.569-1.119 41.402-61.543 41.402-61.543l19.022-11.19s-3.3569 24.617 8.952 26.855c12.308 3.3569 24.617-16.784 24.617-16.784s4.4758 20.141 15.665 21.26c11.19 0 22.379-22.379 22.379-22.379v12.308c0 2.2379 0 5.5948 4.4758 5.5948 4.4758-1.119 11.19-6.7138 11.19-6.7138s0-10.071 1.119-14.546c0-4.4758 12.308-29.093 19.022-27.974 7.833 1.119-2.2379 16.784-4.4758 16.784s-7.833 1.119-10.071 5.5948c-1.119 3.3569 4.4758 4.4758 4.4758 4.4758s3.3568 21.26 14.546 23.498c11.19 3.3569 22.379-14.546 22.379-14.546s1.119 15.665 17.903 15.665c17.903 0 32.45-23.498 32.45-23.498s0 22.379 21.26 22.379c20.141 1.119 19.022-22.379 21.26-22.379 13.427 0 12.308-4.4758 12.308-1.119 0 3.3569-2.2379 22.379 19.022 22.379 20.141-1.119 20.141-20.141 22.379-21.26 14.546 1.119 20.141-10.071 20.141-10.071l5.5948 8.952s-7.833 20.141-8.952 23.498c0 4.4758 6.7138 6.7138 6.7138 6.7138l8.9625-20.145s8.952 15.665 21.26 14.546c19.022 0 31.331-38.044 30.212-41.401"/>
  <path d="m-370.69-191.67c5.5948-7.833 228.27-35.806 330.1-13.427 19.022 5.5948 11.19 24.617 1.119 21.26-77.205-26.855-268.55-17.903-322.26-2.2379-2.2379 0-10.071-3.3569-8.952-5.5948"/>
 </g>
</svg>
