<svg id="b" version="1.1" viewBox="0 0 454.45 254.41" xmlns="http://www.w3.org/2000/svg">
 <defs id="c">
  <clipPath id="a">
   <path id="d" d="m33 248.43h374.17v-215.43h-374.17z"/>
  </clipPath>
 </defs>
 <g id="e" transform="translate(-101.35 -108.01)">
  <g id="f" transform="matrix(1.25 0 0 -1.25 52.761 412.47)">
   <g id="g" clip-path="url(#a)">
    <g id="h" transform="translate(339.49 83.663)">
     <path id="i" d="m0 0c-4.211-19.22-22.981-35.509-42.356-37.938-70.176-6.519-140.02-6.518-210.19-2e-3 -19.375 2.432-38.148 18.718-42.358 37.94-6.544 39.335-6.544 76.94 0 116.27 4.21 19.223 22.983 35.506 42.358 37.94 70.174 6.515 140.02 6.515 210.19 0 19.375-2.432 38.146-18.717 42.356-37.94 6.546-39.334 6.546-76.941 0-116.27" fill="#f9a82c"/>
    </g>
    <g id="j" transform="translate(315.74 93.422)">
     <path id="k" d="m0 0c-3.754-16.277-19.16-29.662-35.598-31.885-59.032-5.379-117.6-5.379-176.64 0-16.434 2.22-31.844 15.611-35.598 31.885-5.318 33.248-5.318 64.464 1e-3 97.71 3.75 16.274 19.165 29.664 35.597 31.886 59.035 5.38 117.61 5.38 176.64 0 16.438-2.221 31.844-15.612 35.598-31.886 5.324-33.243 5.324-64.465 0-97.71" fill="#eaeaea"/>
    </g>
    <g id="l" transform="translate(280.14 223.02)">
     <path id="m" d="m0 0c-59.032 5.38-117.6 5.38-176.64 0-16.431-2.222-31.846-15.611-35.596-31.886-4.302-26.895-5.122-52.461-2.462-78.848 33.64-12.043 77.25-22.457 125.94-21.37 49.51 1.105 93.406 11.907 127.03 23.647 2.39 25.584 1.509 50.453-2.674 76.571-3.754 16.275-19.16 29.665-35.598 31.886" fill="#fff"/>
    </g>
    <g id="n" transform="translate(296.88 102.77)">
     <path id="o" d="m0 0c-3.778 0-6.977-1.741-8.556-4.657-2.539-4.693-0.095-10.955 5.45-13.959 1.916-1.037 4.03-1.586 6.112-1.586 3.778 0 6.975 1.741 8.554 4.657 2.542 4.693 0.098 10.956-5.448 13.96-1.916 1.037-4.03 1.585-6.112 1.585m4.009-36.93c-5.126 0-10.295 1.331-14.947 3.849-14.089 7.628-19.971 24.143-13.111 36.815 4.4 8.122 13.006 12.971 23.022 12.971 1.619 0 3.246-0.131 4.861-0.392l54.52 100.7 16.126-8.734-4.219-7.789 29.409-15.927-10.443-19.282 4e-3 -3e-3 -10.916-20.155-29.408 15.923-28.56-52.746c9.51-8.666 12.378-21.761 6.706-32.232-4.408-8.136-13.022-12.993-23.044-12.993" fill="#393637"/>
    </g>
    <g id="p" transform="translate(299.88 86.315)">
     <path id="q" d="m0 0c-1.461 0-2.958 0.392-4.331 1.135-3.662 1.984-5.465 6.051-3.935 8.879 0.913 1.685 2.879 2.693 5.261 2.693 1.461 0 2.957-0.393 4.329-1.135 3.662-1.984 5.466-6.051 3.934-8.878-0.913-1.687-2.879-2.694-5.258-2.694m53.836 138.54-3.568-6.592-51.522-95.159c-0.926 0.077-1.853 0.115-2.779 0.115-11.243 1e-3 -21.327-5.721-26.317-14.933-7.844-14.491-1.285-33.285 14.621-41.896 5.199-2.814 10.984-4.302 16.731-4.302 11.249 0 21.342 5.731 26.339 14.957 6.063 11.191 3.701 24.932-5.368 34.7l25.439 46.982 22.817-12.354 6.59-3.568 3.57 6.59 7.346 13.564 3.57 6.592-4e-3 2e-3 6.873 12.691 3.57 6.591-6.591 3.569-22.818 12.357 0.649 1.199 3.57 6.591-6.591 3.569-9.535 5.165zm-53.836-146.04c4.957 0 9.539 2.352 11.849 6.62 3.531 6.52 0.416 15.044-6.958 19.039-2.551 1.38-5.276 2.038-7.897 2.038-4.958-1e-3 -9.542-2.355-11.851-6.62-3.53-6.522-0.415-15.044 6.959-19.039 2.551-1.38 5.277-2.038 7.898-2.038m56.858 135.88 9.536-5.164-4.219-7.79 29.408-15.927-7.586-14.008-16.095 8.713 4.369 8.075-5.958 3.23-4.371-8.077-6.6 3.573-2.855-5.273 6.598-3.571-4.61-8.522 5.96-3.227 4.612 8.519 16.098-8.716-7.347-13.565-29.409 15.922-31.812-58.752c9.768-7.249 13.477-19.729 8.174-29.519-3.852-7.111-11.486-11.032-19.749-11.032-4.367 0-8.912 1.097-13.163 3.398-12.292 6.655-17.484 20.864-11.599 31.735 3.847 7.102 11.471 11.009 19.726 11.008 2.25 0 4.549-0.291 6.828-0.886l54.064 99.856" fill="#f9a82c"/>
    </g>
    <g id="r" transform="translate(201.61 175.8)">
     <path id="s" d="m0 0v7.201c0 3.174-2.106 5.853-4.996 6.721v14.543h7.939c1.548 0 2.802 1.256 2.802 2.805 0 1.548-1.254 2.802-2.802 2.802h-7.939v7.241c0 1.546-1.255 2.802-2.803 2.802-1.547 0-2.804-1.256-2.804-2.802v-7.241h-7.939c-1.547 0-2.806-1.254-2.806-2.802 0-1.549 1.259-2.805 2.806-2.805h7.939v-14.544c-2.887-0.869-4.995-3.547-4.995-6.72v-7.201c-32.309-5.973-57.362-47.901-57.362-81.251 0-35.988 130.32-35.988 130.32 0 0 33.35-25.049 75.279-57.361 81.251" fill="#e9e9e9"/>
    </g>
    <g id="t" transform="translate(155.72 91.824)">
     <path id="u" d="m0 0h-13.584c-1.898 0-2.467 0.571-3.513 2.185l-10.069 15.956c-1.614 2.566-2.564 5.414-2.564 5.414h-0.19v-21.275c0-1.521-0.759-2.28-2.279-2.28h-12.442c-1.52 0-2.281 0.759-2.281 2.28v68.1c0 1.52 0.761 2.28 2.281 2.28h12.442c1.52 0 2.279-0.76 2.279-2.28v-40.935h0.19l13.107 17.571c1.141 1.518 1.521 2.183 3.42 2.183h11.682c1.521 0 2.281-0.758 2.281-2.28 0-0.474-0.285-1.232-0.76-1.709l-14.911-17 16.62-24.221c0.381-0.57 0.57-1.235 0.57-1.709 0-1.521-0.761-2.28-2.279-2.28" fill="#f9a82c"/>
    </g>
    <g id="v" transform="translate(176.83 114.24)">
     <path id="w" d="m0 0h-18.141c-1.521 0-2.28 0.666-2.28 2.186v7.216c0 1.521 0.759 2.28 2.28 2.28h18.141c1.519 0 2.278-0.759 2.278-2.28v-7.216c0-1.52-0.759-2.186-2.278-2.186" fill="#393637"/>
    </g>
    <g id="x" transform="translate(207.27 90.494)">
     <path id="y" d="m0 0c-6.46 0-15.578 2.089-15.578 15.102v26.215h-4.369c-1.519 0-2.184 0.76-2.184 2.281v4.651c0 1.522 0.665 2.28 2.184 2.28h4.369v5.7c0 1.615 0.381 2.469 1.519 2.945l11.778 4.747c0.474 0.189 0.951 0.476 1.521 0.476 1.424 0 2.278-0.854 2.278-2.28v-11.588h6.744c1.519 0 2.279-0.758 2.279-2.28v-4.651c0-1.521-0.76-2.281-2.279-2.281h-6.744v-26.691c0-4.842 2.281-6.077 5.13-6.077h1.614c1.901 0 3.041-1.046 3.041-2.945 0-3.324-5.034-5.604-11.303-5.604" fill="#393637"/>
    </g>
    <g id="z" transform="translate(272.44 136.94)">
     <path id="aa" d="m0 0-14.533-43.025c-0.474-1.519-1.139-2.09-2.849-2.09h-13.772c-1.71 0-2.47 0.571-2.945 2.09l-14.53 43.025c-0.191 0.666-0.381 1.331-0.381 1.804 0 1.522 0.76 2.28 2.28 2.28h13.106c1.615 0 2.374-0.569 2.755-2.088l5.794-21.752c1.139-4.368 1.711-10.351 1.711-10.351h0.189s0.759 5.983 1.995 10.351l6.077 21.752c0.477 1.519 1.141 2.088 2.85 2.088h10.354c1.519 0 2.277-0.758 2.277-2.28 0-0.569-0.189-1.138-0.378-1.804" fill="#393637"/>
    </g>
   </g>
  </g>
 </g>
</svg>
