<svg version="1.1" viewBox="0 0 482.1 57" xml:space="preserve" xmlns="http://www.w3.org/2000/svg">
<g transform="translate(-427,-359.6)" fill="#da1f3d">
	<polygon points="483.3 362.7 465.4 362.7 445.6 384.4 449.1 362.7 435.2 362.7 427 414.7 440.8 414.7 444.4 391.8 459 414.7 475.4 414.7 457.7 388.4"/>
	<path d="m504 409.9-0.6 4.8h11.8l5.7-35.8h-12l-0.9 5.1c-3.2-4.3-7.1-6.3-12-6.3-10.6 0-18.8 9.1-18.8 21.6 0 10.1 6 16.7 14.1 16.7 4.9 0 9.2-2 12.7-6.1zm-14-11.9c0-5.8 3.7-10.1 8.9-10.1 4.5 0 7.6 3.1 7.6 7.5 0 5.9-3.8 10.2-8.8 10.2-4.6 0.1-7.7-2.9-7.7-7.6z"/>
	<path d="m542.8 378.4 3-18.8h-12.3l-8.7 55h11.8l0.8-4.9c3.6 4.3 7.4 6.3 12.2 6.3 10.7 0 18.8-9.1 18.8-21.6 0-10-6.1-16.6-14.2-16.6-4.5 0-8.7 2-12.8 6 0.7-2 1.2-3.8 1.4-5.4zm12.8 17c0 5.8-3.7 10-8.9 10-4.5 0-7.6-3.1-7.6-7.5 0-5.9 3.8-10.2 8.8-10.2 4.6 0.1 7.7 3.1 7.7 7.7z"/>
	<path d="m585.6 399.8h26.9c0.1-1.5 0.3-2.6 0.3-3.6 0-11.1-7.3-18.5-18.4-18.5-12.2 0-20.7 8.4-20.7 20.7 0 11.1 6.7 17.7 18.5 17.7 6.5 0 11.8-1.9 16-5.8l-6.8-6.9c-3.1 2.8-5.7 4.1-8.9 4.1-4.4 0-6.8-2.4-6.8-7v-0.7zm15.3-7.3h-14.5c1.5-4.1 4.4-6.3 7.9-6.3 3.9 0 6.4 2.4 6.6 6.3z"/>
	<polygon points="629.6 414.7 638.4 359.7 625.7 359.7 616.9 414.7"/>
	<path d="m641.8 400.9-6.8 9.7c3.3 4 8.1 6 14.2 6 5.1 0 9.2-1.7 12.3-4.8 3.9-4 4.4-8.9 5.4-15l5.4-33.9h-14l-4.6 28.9c-1.4 8.6-2 12.7-6.3 12.7-2-0.1-3.6-1.4-5.6-3.6z"/>
	<path d="m674.1 398.5c0 10.6 7.3 17.7 18.5 17.7 12.9 0 21.6-8.9 21.6-20.7 0-10.8-7.3-17.9-18.9-17.9-12.3 0-21.2 8.7-21.2 20.9zm21-10.6c4.3 0 7.1 2.7 7.1 7.2 0 6.2-3.7 10.7-9 10.7-4.1 0-6.9-2.8-6.9-7.2 0-6 3.9-10.7 8.8-10.7z"/>
	<path d="m723.1 378.9-2.2 13.7c-0.7 4.4-1.2 7.8-1.2 10.2 0 8 6.3 13.3 17 13.3 6.2 0 11-1.7 14.4-4.9 4.1-4 4.9-9.4 6-16.1l2.5-16.2h-12.6l-2.3 14.2c-1.4 8.7-1.9 13.4-7.6 13.4-3.1 0-4.8-1.8-4.8-5.2 0-0.7 0.3-3.2 0.9-7.5l2.3-14.8h-12.4z"/>
	<path d="m762.5 414.7h12.5l2.5-16.4c1-6.3 3.7-9.4 8.6-9.4 1.4 0 2.7 0.2 4.1 0.6l2.5-11.3c-0.9-0.1-1.7-0.3-2.5-0.3-5 0-8.8 2.5-11 7l0.9-6.1h-12.1z"/>
	<path d="m792.8 414.7h12.5l2.5-16.7c1-6.7 3.3-10 7.9-10 3.2 0 4.9 1.6 4.9 4.7 0 0.7-0.1 1.7-0.3 3l-3 19h12.7l3-18.8c0.4-2.5 0.7-4.7 0.7-6.8 0-7.2-4.3-11.4-11.7-11.4-4.8 0-8.4 2.2-12.2 6.8l0.9-5.6h-12.1z"/>
	<path d="m866.6 409.9-0.6 4.8h11.8l5.7-35.8h-12l-0.8 5.2c-3.2-4.3-7.1-6.3-12-6.3-10.6 0-18.8 9.1-18.8 21.6 0 10.1 6 16.7 14.1 16.7 4.8-0.1 9.1-2.1 12.6-6.2zm-13.9-11.9c0-5.8 3.7-10.1 8.9-10.1 4.5 0 7.6 3.1 7.6 7.5 0 5.9-3.8 10.2-8.8 10.2-4.6 0.1-7.7-2.9-7.7-7.6z"/>
	<polygon points="900.3 414.7 909.1 359.7 896.4 359.7 887.6 414.7"/>
</g>
</svg>
