<svg width="364.11" viewBox="0 0 364.12 151.75" xmlns="http://www.w3.org/2000/svg">
 <g transform="translate(-17.941 2.799)">
  <g transform="matrix(.31249 0 0 .31249 17.307 -2.74)">
   <path transform="translate(2.035 -.186)" d="m0 0v485.62h724.9v-485.62z" fill="#ff3801"/>
   <path d="m8.7102 201.86c6.669 35.085 19.754 69.739 42.75 97.475 21.327 26.166 50.995 44.697 82.9 55.175 34.805 11.908 72.706 15.084 108.9 8.275 29.665-5.7891 58.124-18.383 81.65-37.45 31.325-25.106 53.442-61.066 63.15-99.9l-86.825 17c0.92985-28.876 1.855-58.53 2.125-87.425 32.535-7.2289 64.404-20.919 89.15-43.675 18.737-17.027 32.531-40.074 35.9-65.4 9.2086-1.4698 18.476-2.5052 27.675-4.075 40.114-6.729 80.131-14.552 119.22-25.9 7.7188 19.097 14.846 38.468 20.175 58.375 5.3892 19.797 9.2752 40.058 10.775 60.525 3.8794 76.678-20.657 154.56-68.5 214.7-22.697 28.636-50.435 53.298-81.6 72.375-46.363 28.546-100.08 44.52-154.35 47.6-23.846 1.7697-47.944 0.53921-71.35-4.5-31.855-6.639-62.359-18.732-91.225-33.6-10.108-5.3192-20.346-10.556-29.625-17.275-28.406-19.627-54.913-42.639-75.25-70.725-12.478-16.957-22.296-35.653-30.725-54.9-0.50993-1.1498-1.0701-2.3102-1.6-3.45l0.49992-137.05c0.49992 10.823 1.9757 32.52 6.1751 53.827z" fill="#fff"/>
  </g>
  <g fill="#ff3801">
   <path d="m335.72-2.7325v50.644h18.608c4.8836 7.2e-5 11.276-0.19596 17.225-3.8902 5.9488-3.6942 10.507-11.377 10.507-21.397s-4.5579-17.695-10.507-21.389c-5.949-3.6937-12.342-3.9684-17.225-3.9684zm10.507 10.444h8.1009c3.6642 0 8.5966-0.23232 11.624 2.3045 3.4582 2.8978 4.9591 8.0969 4.9059 12.609-0.0537 4.5546-1.7404 9.7218-5.2574 12.616-2.9625 2.4381-7.6084 2.3045-11.273 2.3045h-8.1009z"/>
   <path d="m280.14-2.7169v50.627h10.511v-20.014h23.678v20.014l10.511-9.33e-4v-50.627l-10.511 9.329e-4v20.102h-23.678v-20.101z"/>
  </g>
 </g>
</svg>
