<svg width="1036.9" height="208" version="1.1" viewBox="0 0 829.46 166.4" xmlns="http://www.w3.org/2000/svg">
 <g transform="matrix(.48092 0 0 .48092 -.02002 0)" fill="#d6153e">
  <path d="m0 0h1439v346h-1439v-145.86c15.85 34.59 40.37 65.22 70.83 88.06 42.59 32.21 96.95 48.32 150.21 44.69 30.85-1.76 61.31-10.04 88.81-24.13 28.21-14.46 53.28-35 72.95-59.86 35.33-44.11 53.18-101.61 49.79-157.96-1.42-16.68-4.36-33.24-8.98-49.34-2.78-9.47-6.01-18.87-10.74-27.57-34.73 7.22-69.86 12.57-105.23 15.42-4.48 20.07-15.56 38.68-31.46 51.79-16.48 13.87-37.05 22.19-58.07 26.18-3.01 23.76-6.14 47.56-11.25 70.98 23.51-2.14 46.84-7.21 68.82-15.91-5.64 16.6-14.65 31.93-25.51 45.64-6.31 7.68-13.38 14.81-21.47 20.63-24.79 19.35-56.16 30.5-87.69 29.86-20.23 0.25-40.36-4.54-58.78-12.78-27.62-12.43-50.82-34.26-65.16-60.92-10.06-18.29-15.55-38.86-17.07-59.62v-125.3m518 31.61c0 94.74-1e-3 189.48 1e-3 284.22h890.37c0.02-94.74 0.02-189.47 0-284.21-296.79-0.03-593.58-1e-3 -890.38-1e-3"/>
  <path d="m868.14 90.18c14.78-1.39 30.05 0.12 43.79 5.99 17.91 7.34 32.6 21.93 40.14 39.75 6.98 15.67 8.42 33.25 6.74 50.17-1.93 16.8-8.48 33.29-19.83 45.96-12.1 13.62-29.38 22.27-47.36 24.69-16.5 2.11-33.79 0.64-49.02-6.39-14.94-6.6-27.56-18.27-35.23-32.7-9.41-17.46-12.14-38.03-9.59-57.56 2.07-16.59 8.82-32.77 20.06-45.25 12.87-14.2 31.32-22.77 50.3-24.66m3.28 40.42c-8.19 1.71-15.19 7.49-18.92 14.91-6.03 10.72-6.72 23.48-5.88 35.48 0.84 11.76 5.17 24.2 14.96 31.44 7.01 4.78 16.22 6.57 24.4 4.07 8.29-1.95 14.97-8.32 18.6-15.86 5.76-10.92 5.88-23.68 5.09-35.69-1.09-11.9-5.95-24.6-16.52-31.13-6.51-3.67-14.44-5.15-21.73-3.22"/>
  <path d="m625.83 93.64c28.74 0 57.48-1e-3 86.22 0 17.67 0.52 35.74 7.13 47.73 20.48 11.87 13.06 17.42 30.64 19.04 47.93 1.43 17.43 0 35.53-7.15 51.67-5.52 12.56-15.2 23.28-27.31 29.76-14.68 8.16-31.78 10.32-48.32 10.53-23.4-0.03-46.8 1e-3 -70.2-0.02-0.02-53.45 0-106.9-1e-3 -160.35m49.53 119.18c11.77-0.46 24.17 1.62 35.33-3.09 8.35-3.4 14.23-11.15 16.75-19.63 3.09-10.55 3.43-22.1-0.02-32.6-2.83-8.51-9.14-15.91-17.5-19.37-10.87-4.81-23-3.26-34.53-3.52-0.06 26.07-1e-3 52.14-0.03 78.21"/>
  <path d="m982.83 93.64c16.44-1e-3 32.89 0 49.34 0 1e-3 18.5-0.02 37 0.02 55.49 14.77-18.45 29.54-36.9 44.19-55.46 20.4-0.1 40.81 0.02 61.22-0.06-19.53 20.74-38.74 41.78-58.23 62.55 22.56 32.59 45.14 65.17 67.65 97.8-20.56 0.06-41.13 0.09-61.7-0.02-13.02-20.78-26.21-41.46-39.33-62.19-4.94 4.6-9.16 9.91-13.8 14.8-0.06 15.82 0 31.63-0.03 47.44-16.44 1e-3 -32.88 1e-3 -49.32 0-0.02-53.45 0-106.9-1e-3 -160.35"/>
  <path d="m1154.4 196.05c1e-3 -34.15 0-68.29 1e-3 -102.44 16.4 0.04 32.8 0.04 49.2 0 1e-3 25.79 0 51.58 1e-3 77.37 0.04 6.69-0.22 13.38 0.39 20.05 1e-3 7.38 1.59 15.47 7.04 20.83 5.66 5.81 14.52 6.47 22.11 5.39 7.23-0.91 13.13-6.55 15.43-13.3 3-7.99 1.99-16.64 2.42-24.98 1e-3 -28.44-1e-3 -56.89 0-85.33 16.46-1e-3 32.91 1e-3 49.37-1e-3 -0.02 29.45 0 58.89-1e-3 88.34-0.08 8.64 0.42 17.36-1.14 25.91-1.84 12.35-6.9 24.67-16.3 33.18-11.26 10.56-26.95 14.52-41.91 16.02-16.32 1.14-33.11 0.8-48.77-4.39-11.28-3.56-21.61-10.67-28.07-20.67-6.83-10.65-9.55-23.46-9.78-35.97"/>
 </g>
 <g transform="matrix(.48092 0 0 .48092 -.02002 0)" fill="#fff">
  <path d="m307.64 29.45c35.37-2.85 70.5-8.2 105.23-15.42 4.73 8.7 7.96 18.1 10.74 27.57 4.62 16.1 7.56 32.66 8.98 49.34 3.39 56.35-14.46 113.85-49.79 157.96-19.67 24.86-44.74 45.4-72.95 59.86-27.5 14.09-57.96 22.37-88.81 24.13-53.26 3.63-107.62-12.48-150.21-44.69-30.46-22.84-54.98-53.47-70.83-88.06v-74.84c1.52 20.76 7.01 41.33 17.07 59.62 14.34 26.66 37.54 48.49 65.16 60.92 18.42 8.24 38.55 13.03 58.78 12.78 31.53 0.64 62.9-10.51 87.69-29.86 8.09-5.82 15.16-12.95 21.47-20.63 10.86-13.71 19.87-29.04 25.51-45.64-21.98 8.7-45.31 13.77-68.82 15.91 5.11-23.42 8.24-47.22 11.25-70.98 21.02-3.99 41.59-12.31 58.07-26.18 15.9-13.11 26.98-31.72 31.46-51.79"/>
  <path d="m518 31.61c296.8 0 593.59-0.02 890.38 1e-3 0.02 94.74 0.02 189.47 0 284.21h-890.37c-0.02-94.74-1e-3 -189.48-1e-3 -284.22m350.14 58.57c-18.98 1.89-37.43 10.46-50.3 24.66-11.24 12.48-17.99 28.66-20.06 45.25-2.55 19.53 0.18 40.1 9.59 57.56 7.67 14.43 20.29 26.1 35.23 32.7 15.23 7.03 32.52 8.5 49.02 6.39 17.98-2.42 35.26-11.07 47.36-24.69 11.35-12.67 17.9-29.16 19.83-45.96 1.68-16.92 0.24-34.5-6.74-50.17-7.54-17.82-22.23-32.41-40.14-39.75-13.74-5.87-29.01-7.38-43.79-5.99m-242.31 3.46c1e-3 53.45-1e-3 106.9 1e-3 160.35 23.4 0.03 46.8-1e-3 70.2 0.02 16.54-0.21 33.64-2.37 48.32-10.53 12.11-6.48 21.79-17.2 27.31-29.76 7.15-16.14 8.58-34.24 7.15-51.67-1.62-17.29-7.17-34.87-19.04-47.93-11.99-13.35-30.06-19.96-47.73-20.48-28.74-1e-3 -57.48 0-86.22 0m357 0c1e-3 53.45-1e-3 106.9 1e-3 160.35 16.44 1e-3 32.88 1e-3 49.32 0 0.03-15.81-0.03-31.62 0.03-47.44 4.64-4.89 8.86-10.2 13.8-14.8 13.12 20.73 26.31 41.41 39.33 62.19 20.57 0.11 41.14 0.08 61.7 0.02-22.51-32.63-45.09-65.21-67.65-97.8 19.49-20.77 38.7-41.81 58.23-62.55-20.41 0.08-40.82-0.04-61.22 0.06-14.65 18.56-29.42 37.01-44.19 55.46-0.04-18.49-1e-3 -36.99-0.02-55.49-16.45 0-32.9-1e-3 -49.34 0m171.56 102.41c0.23 12.51 2.95 25.32 9.78 35.97 6.46 10 16.79 17.11 28.07 20.67 15.66 5.19 32.45 5.53 48.77 4.39 14.96-1.5 30.65-5.46 41.91-16.02 9.4-8.51 14.46-20.83 16.3-33.18 1.56-8.55 1.06-17.27 1.14-25.91 1e-3 -29.45 0-58.89 1e-3 -88.34-16.46 0.02-32.91 0-49.37 1e-3 -1e-3 28.44 1e-3 56.89 0 85.33-0.43 8.34 0.58 16.99-2.42 24.98-2.3 6.75-8.2 12.39-15.43 13.3-7.59 1.08-16.45 0.42-22.11-5.39-5.45-5.36-7.03-13.45-7.04-20.83-0.61-6.67-0.35-13.36-0.39-20.05v-77.37c-16.4 0.04-32.8 0.04-49.2 0-1e-3 34.15 0 68.29-1e-3 102.44"/>
  <path d="m871.42 130.6c7.29-1.93 15.22-0.45 21.73 3.22 10.57 6.53 15.43 19.23 16.52 31.13 0.79 12.01 0.67 24.77-5.09 35.69-3.63 7.54-10.31 13.91-18.6 15.86-8.18 2.5-17.39 0.71-24.4-4.07-9.79-7.24-14.12-19.68-14.96-31.44-0.84-12-0.15-24.76 5.88-35.48 3.73-7.42 10.73-13.2 18.92-14.91"/>
  <path d="m675.36 212.82c0.02-26.07-0.03-52.14 0.03-78.21 11.53 0.26 23.66-1.29 34.53 3.52 8.36 3.46 14.67 10.86 17.5 19.37 3.45 10.5 3.11 22.05 0.02 32.6-2.52 8.48-8.4 16.23-16.75 19.63-11.16 4.71-23.56 2.63-35.33 3.09"/>
 </g>
 <g transform="matrix(.50045 0 0 .50045 466.89 -82.124)" fill="#d6153e">
  <path d="m600 164.1v110.3h-34.6v-40.9h-34.6v40.9h-34.7v-110.3h34.7v37.8h34.6v-37.8z"/>
  <path d="m696.2 171.4c8.8 4.8 15.7 11.4 20.7 19.8s7.6 17.7 7.6 28-2.5 19.6-7.6 28c-5 8.4-11.9 15-20.7 19.8s-18.5 7.2-29.2 7.2h-49.6v-110.1h49.6c10.7 0 20.4 2.5 29.2 7.3zm-12.7 65c4.2-4.4 6.3-10.1 6.3-17.1s-2.1-12.7-6.3-17.1-9.7-6.5-16.5-6.5h-15v47.3h15c6.8-0.1 12.3-2.3 16.5-6.6z"/>
 </g>
</svg>
