<svg width="800" height="706.41" version="1.1" viewBox="0 0 800 706.41" xml:space="preserve" xmlns="http://www.w3.org/2000/svg">
<g transform="matrix(4.7031 0 0 4.7031 0 -4.1356e-6)">
	<rect width="170.1" height="113.8" fill="#f03a26"/>
	<path d="m67.7 109.2c41.9 0 74.2-33.8 74.2-75.4 0-9.7-3.1-23.1-6.6-29.3-12.1 2.5-23.6 4.2-34.5 5-3.8 16.2-17.2 23.4-29.4 25.7-0.4 3.6-1.9 15.6-3.7 23.3 12.9-1 22.6-5.2 22.6-5.2-2 6.2-7.8 16.2-15.1 21.5-12.8 10.1-30.4 13.2-47 6.3-17.1-7.2-28.2-24.2-28.2-42.6v27.1c12.7 27.3 39 43.6 67.7 43.6z" fill="#fff"/>
</g>
<g transform="matrix(4.7031 0 0 4.7031 0 -4.1356e-6)" fill="#fff">
	<path d="m0 147.4 1-5.7h4.4l-0.3 3.3c0.9 0.4 2.4 0.8 4.3 0.8 2.7 0 5.6-0.7 5.6-3.3 0-2.2-3.3-2.3-4.7-2.5-4.6-0.5-8.3-2.2-7.4-7.2 0.9-4.6 5.4-6.7 10.6-6.7 4.2 0 6.3 1.2 7.6 2.6-0.4 2-0.6 3-1 4.9h-4.3l0.2-2.7c-0.9-0.4-1.8-0.6-3.5-0.6-2.3 0-4.5 0.7-4.8 2.6-0.3 1.7 1.1 2.3 3.8 2.6 4.9 0.6 9.2 2.2 8.5 7.4-0.5 4.6-3.9 7.3-11.4 7.3-3.6-0.1-6.8-1-8.6-2.8z"/>
	<path d="m44.9 128.4c-0.3 1.8-0.8 3.7-1.1 5.4h-4.4l0.3-2.9c-0.9-0.2-1.8-0.3-2.7-0.3-5.4 0-8.3 4-8.9 7.6-0.6 3.5 0.1 7.3 6.2 7.3 1.8 0 4.5-0.9 6.1-2.2l2.3 3.6c-2.9 2.3-5.9 3.3-9.2 3.3-8.8 0-11.5-5.7-10.3-12.1 0.9-5.9 6.1-12 14.6-12 2.7 0 5.1 0.8 7.1 2.3z"/>
	<path d="m70.1 145.2-0.8 4.5h-9.6l0.8-4.5h2.3l1-5.5h-10.1l-1 5.5h2.3l-0.8 4.5h-9.6l0.8-4.5h2.5l2.5-14.2h-2.5l0.8-4.5h9.7l-0.8 4.5h-2.3l-0.8 4.4h10.1l0.8-4.4h-2.3l0.8-4.5h9.8l-0.8 4.5h-2.5l-2.5 14.2z"/>
	<path d="m100.2 149.7h-5.1l-1.7-7.4-1-5.4-2.8 5.4-4.2 7.4h-5.1l-3-18.7h-2.3l0.8-4.4h10.3l-0.8 4.4h-2.4l1.5 11.7 8.1-15.2h3.3l2.8 15.2 5.5-11.7h-2.7l0.8-4.4h10.4l-0.8 4.4h-2.2z"/>
	<path d="m127 145.1 0.8-3.4h4.3l-1.4 8h-19.9l0.8-4.5h2.6l2.5-14.3h-2.4l0.8-4.4h19.2l-1.4 7.8h-4.2l0.4-3.4h-7.7l-0.9 4.8h7l-0.8 4.4h-7l-0.9 5z"/>
	<path d="m145 145.2-0.8 4.5h-10.2l0.8-4.5h2.6l2.6-14.2h-2.5l0.8-4.5h10.1l-0.8 4.5h-2.6l-2.5 14.2z"/>
	<path d="m155.1 134.1h-4.6l1.3-7.6h18.2l-0.4 2.1-14.8 16.5h7.5l0.7-3.5h4.7l-1.4 8.1h-19.2l0.5-2.7 14.3-16h-6.2z"/>
</g>
</svg>
