<svg width="800" height="689.61" version="1.1" viewBox="0 0 800 689.61" xmlns="http://www.w3.org/2000/svg">
 <path d="m795.51 523.06h-781.47v-523.06h781.47z" fill="#ff3700" stroke-width="19.503"/>
 <path d="m325.11 502c192.69 0 340.91-155.24 340.91-346.37 0-44.661-14.237-105.9-30.424-134.57-55.583 11.507-108.24 19.308-158.36 23.208-17.357 73.915-78.986 106.87-135.15 117.6-1.7552 16.382-8.5812 71.77-16.967 106.87 59.288-4.6806 103.56-23.793 103.56-23.793-8.9712 28.474-35.69 74.5-69.43 98.684-58.703 46.611-139.64 60.848-215.89 29.059-78.596-32.96-129.3-111.17-129.3-195.61v124.62c58.118 125.21 179.23 200.29 311.07 200.29z" fill="#fff" stroke-width="19.503"/>
 <g transform="matrix(19.503 0 0 19.503 -9.7513 -6.2409)">
  <path d="m2.27 33.21 1.03-0.76 0.56-0.35h-0.5l0.14-0.83h1.92l-0.14 0.83h-0.37l-1.47 1.14 0.94 1.52h0.53l-0.14 0.82h-1.58l0.13-0.75-0.63-1.02-0.6 0.44-0.09 0.51h0.51l-0.14 0.82h-1.87l0.14-0.82h0.46l0.48-2.66h-0.48l0.14-0.83h1.7l-0.14 0.83h-0.33zm15.72 1.52 0.15-0.64h0.8l-0.26 1.49h-3.71l0.15-0.83h0.48l0.47-2.66h-0.45l0.14-0.82h3.58l-0.25 1.45h-0.78l0.07-0.63h-1.43l-0.15 0.89h1.31l-0.15 0.82h-1.31l-0.16 0.93zm1.93-2.63 0.14-0.83h1.83l-0.14 0.83h-0.44l-0.47 2.65h1.35l0.14-0.62h0.8l-0.25 1.45h-3.51l0.15-0.82h0.4l0.47-2.66zm8.37 2.63 0.15-0.64h0.8l-0.26 1.49h-3.71l0.14-0.83h0.49l0.47-2.66h-0.45l0.14-0.82h3.58l-0.25 1.45h-0.78l0.07-0.63h-1.43l-0.16 0.89h1.31l-0.14 0.82h-1.31l-0.16 0.93zm3.35 0.02-0.15 0.83h-1.89l0.15-0.83h0.49l0.47-2.65h-0.48l0.14-0.83h1.87l-0.14 0.83h-0.49l-0.47 2.65zm0.57 0.83 0.14-0.82h0.42l0.48-2.66h-0.48l0.14-0.83h1.16l1.82 2.68 0.33-1.85h-0.49l0.14-0.83h1.82l-0.14 0.83h-0.44l-0.61 3.48h-0.6l-1.88-2.73-0.34 1.91h0.48l-0.14 0.82zm-24.51-2.72-0.39 0.63h1.14l-0.15-0.63-0.15-0.76zm0.94 1.4h-1.82l-0.3 0.49h0.44l-0.15 0.83h-1.8l0.15-0.83h0.38l1.7-2.66h-0.4l0.14-0.82h1.8l0.9 3.48h0.39l-0.15 0.83h-1.8l0.15-0.83h0.47zm3.52-1.32h1.02c0.15 0 0.27-0.02 0.37-0.05 0.09-0.03 0.16-0.08 0.21-0.13s0.08-0.11 0.1-0.17c0.01-0.06 0.02-0.11 0.02-0.16 0-0.12-0.04-0.21-0.13-0.26-0.09-0.06-0.22-0.08-0.41-0.08h-1.02zm-0.32 1.81h1.02c0.06 0 0.13 0 0.22-0.01 0.08-0.01 0.16-0.03 0.24-0.06s0.14-0.08 0.2-0.15 0.1-0.16 0.12-0.28a0.37 0.37 0 0 0-0.02-0.24 0.364 0.364 0 0 0-0.12-0.15 0.44 0.44 0 0 0-0.21-0.08c-0.08-0.01-0.17-0.02-0.26-0.02h-1.02zm-1.51 0.83 0.15-0.83h0.47l0.47-2.66h-0.46l0.14-0.82h2.37c0.2 0 0.38 0.02 0.54 0.06s0.3 0.1 0.42 0.18 0.21 0.19 0.27 0.32c0.07 0.13 0.1 0.28 0.1 0.46 0 0.09-0.01 0.18-0.03 0.27-0.02 0.1-0.05 0.19-0.1 0.28s-0.12 0.18-0.21 0.27-0.21 0.16-0.35 0.23c0.2 0.09 0.34 0.23 0.42 0.4s0.1 0.37 0.06 0.61c-0.05 0.25-0.13 0.45-0.26 0.61-0.12 0.16-0.26 0.28-0.43 0.37s-0.35 0.15-0.56 0.18-0.42 0.05-0.64 0.05h-2.37zm28.87 0.1c-0.35-0.01-0.66-0.06-0.94-0.14-0.28-0.09-0.5-0.22-0.67-0.39l0.19-1.06h0.81l-0.06 0.62c0.08 0.04 0.19 0.07 0.33 0.1s0.29 0.05 0.47 0.05c0.13 0 0.25-0.01 0.38-0.03s0.24-0.05 0.34-0.1 0.18-0.11 0.24-0.19 0.09-0.18 0.09-0.3c0-0.1-0.03-0.18-0.1-0.24a0.698 0.698 0 0 0-0.24-0.13c-0.09-0.03-0.19-0.05-0.29-0.06s-0.18-0.02-0.25-0.04c-0.22-0.02-0.42-0.06-0.6-0.12s-0.34-0.13-0.47-0.24a0.854 0.854 0 0 1-0.28-0.39c-0.06-0.16-0.07-0.36-0.03-0.59a1.344 1.344 0 0 1 0.69-0.95c0.18-0.1 0.38-0.18 0.6-0.23s0.45-0.07 0.7-0.07c0.2 0 0.37 0.01 0.52 0.04s0.28 0.06 0.39 0.11a1.302 1.302 0 0 1 0.5 0.35c-0.02 0.09-0.04 0.17-0.05 0.25-0.01 0.07-0.03 0.15-0.04 0.22s-0.03 0.14-0.04 0.21-0.03 0.15-0.04 0.24h-0.79l0.04-0.51a1.07 1.07 0 0 0-0.27-0.09c-0.1-0.02-0.22-0.03-0.38-0.03-0.11 0-0.21 0.01-0.31 0.02a0.8 0.8 0 0 0-0.48 0.23 0.45 0.45 0 0 0-0.11 0.23c-0.03 0.16 0.01 0.27 0.14 0.34 0.12 0.07 0.31 0.12 0.57 0.15 0.23 0.03 0.45 0.07 0.65 0.13s0.38 0.14 0.53 0.24 0.26 0.24 0.34 0.4 0.1 0.37 0.06 0.62c-0.02 0.21-0.08 0.4-0.17 0.57s-0.23 0.31-0.4 0.42c-0.17 0.12-0.39 0.2-0.64 0.26-0.29 0.07-0.59 0.1-0.93 0.1"/>
 </g>
</svg>
