<svg width="800" height="123.22" clip-rule="evenodd" fill-rule="evenodd" image-rendering="optimizeQuality" shape-rendering="geometricPrecision" version="1.1" viewBox="0 0 22585 3478.4" xmlns="http://www.w3.org/2000/svg">
 <g transform="matrix(1.0979 0 0 1.0979 -11.114 1.5702)" fill="#ff5a32">
  <path d="m6613.7 2035.1h531.66v497.36q0 175.79-72.89 295.84-68.601 120.05-184.37 197.23-111.48 72.889-252.97 107.19-137.2 34.301-270.12 34.301-137.2 0-278.69-34.301-137.2-34.301-252.97-107.19-111.48-77.177-184.37-197.23-68.602-120.05-68.602-295.84v-1895.1q0-175.79 68.602-295.84 72.889-124.34 184.37-197.23 115.77-77.177 252.97-111.48 141.49-34.301 278.69-34.301 132.92 0 270.12 34.301 141.49 34.301 252.97 111.48 115.77 72.89 184.37 197.23 72.89 120.05 72.89 295.84v501.65h-531.66v-484.5q0-55.739-25.725-90.04-21.438-38.588-60.027-60.026-34.301-25.726-77.177-34.301-42.876-12.863-85.752-12.863-90.04 0-175.79 42.876-81.465 42.876-81.465 154.35v1865.1q0 111.48 81.465 154.35 85.752 42.876 175.79 42.876 42.876 0 85.752-8.5756 42.876-12.862 77.177-34.3 38.589-25.726 60.027-60.027 25.725-38.588 25.725-94.327z" style="white-space:pre"/>
  <path d="m7757.8 3119.9v-3069.9h531.66v2611.2h844.66v458.77z" style="white-space:pre"/>
  <path d="m10780 3119.9q-34.301-154.35-64.314-304.42-30.013-154.35-60.026-308.71h-651.72l-120.05 613.13h-510.22v-77.177l703.17-2992.7h510.22l703.17 2992.7v77.177zm-450.2-2246.7q-60.027 295.84-120.05 591.69-55.739 291.56-115.76 587.4h471.64z" style="white-space:pre"/>
  <path d="m13180 2532.5q0 175.79-72.889 295.84-68.602 120.05-184.37 197.23-111.48 72.889-252.97 107.19-137.2 34.301-270.12 34.301-137.2 0-278.69-34.301-137.2-34.301-252.97-107.19-111.48-77.177-184.37-197.23-68.602-120.05-68.602-295.84v-497.36h527.38v484.5q0 55.739 21.438 94.327 25.726 34.301 64.314 60.027 38.588 21.438 81.464 34.3 47.164 8.5756 90.04 8.5756t85.752-8.5756q47.164-12.862 85.752-34.3 38.589-25.726 60.027-60.027 25.725-38.588 25.725-94.327v-205.8q0-102.9-8.575-175.79t-42.876-124.34q-30.013-55.739-90.04-98.615-60.026-42.876-158.64-90.04-150.07-72.89-282.98-137.2-128.63-68.601-227.24-167.22-94.328-98.615-154.35-244.39-55.739-150.07-55.739-385.88v-252.97q0-175.79 68.602-295.84 68.601-124.34 175.79-197.23 111.48-77.177 248.68-111.48 137.2-34.301 270.12-34.301t270.12 34.301q137.2 34.301 244.39 111.48 111.48 72.89 180.08 197.23 68.602 120.05 68.602 295.84v501.65h-527.38v-484.5q0-111.48-77.177-154.35-77.176-42.876-158.64-42.876-34.301 0-77.177 8.5752-38.588 8.5755-77.177 30.014-34.3 21.438-60.026 60.026-21.438 38.588-21.438 98.615v201.52q0 98.615 8.575 171.5 12.863 72.889 38.589 128.63 30.013 55.739 81.464 102.9 55.739 42.876 145.78 85.752 167.22 77.177 304.42 150.07 137.2 72.89 231.53 175.79 98.615 98.615 150.07 244.39 55.739 145.78 55.739 368.73z" style="white-space:pre"/>
  <path d="m15203 2532.5q0 175.79-72.889 295.84-68.601 120.05-184.37 197.23-111.48 72.889-252.97 107.19-137.2 34.301-270.12 34.301-137.2 0-278.69-34.301-137.2-34.301-252.97-107.19-111.48-77.177-184.37-197.23-68.601-120.05-68.601-295.84v-497.36h527.38v484.5q0 55.739 21.438 94.327 25.726 34.301 64.314 60.027 38.588 21.438 81.464 34.3 47.164 8.5756 90.04 8.5756t85.752-8.5756q47.164-12.862 85.752-34.3 38.588-25.726 60.026-60.027 25.726-38.588 25.726-94.327v-205.8q0-102.9-8.575-175.79t-42.876-124.34q-30.013-55.739-90.04-98.615-60.026-42.876-158.64-90.04-150.07-72.89-282.98-137.2-128.63-68.601-227.24-167.22-94.327-98.615-154.35-244.39-55.739-150.07-55.739-385.88v-252.97q0-175.79 68.601-295.84 68.602-124.34 175.79-197.23 111.48-77.177 248.68-111.48 137.2-34.301 270.12-34.301t270.12 34.301q137.2 34.301 244.39 111.48 111.48 72.89 180.08 197.23 68.601 120.05 68.601 295.84v501.65h-527.38v-484.5q0-111.48-77.177-154.35-77.177-42.876-158.64-42.876-34.301 0-77.177 8.5752-38.588 8.5755-77.177 30.014-34.3 21.438-60.026 60.026-21.438 38.588-21.438 98.615v201.52q0 98.615 8.575 171.5 12.863 72.889 38.589 128.63 30.013 55.739 81.464 102.9 55.739 42.876 145.78 85.752 167.22 77.177 304.42 150.07 137.2 72.89 231.53 175.79 98.614 98.615 150.07 244.39 55.738 145.78 55.738 368.73z" style="white-space:pre"/>
  <path d="m15811 3119.9v-3069.9h531.66v3069.9z" style="white-space:pre"/>
  <path d="m18023 2035.1h531.66v497.36q0 175.79-72.889 295.84-68.601 120.05-184.37 197.23-111.48 72.889-252.97 107.19-137.2 34.301-270.12 34.301-137.2 0-278.69-34.301-137.2-34.301-252.97-107.19-111.48-77.177-184.37-197.23-68.601-120.05-68.601-295.84v-1895.1q0-175.79 68.601-295.84 72.889-124.34 184.37-197.23 115.77-77.177 252.97-111.48 141.49-34.301 278.69-34.301 132.92 0 270.12 34.301 141.49 34.301 252.97 111.48 115.77 72.89 184.37 197.23 72.889 120.05 72.889 295.84v501.65h-531.66v-484.5q0-55.739-25.725-90.04-21.438-38.588-60.027-60.026-34.3-25.726-77.177-34.301-42.875-12.863-85.752-12.863-90.04 0-175.79 42.876-81.464 42.876-81.464 154.35v1865.1q0 111.48 81.464 154.35 85.752 42.876 175.79 42.876 42.877 0 85.752-8.5756 42.877-12.862 77.177-34.3 38.589-25.726 60.027-60.027 25.725-38.588 25.725-94.327z" style="white-space:pre"/>
  <path d="m20582 2532.5c0 117.19-24.296 215.81-72.889 295.84-45.734 80.035-107.19 145.78-184.37 197.23-74.318 48.593-158.64 84.323-252.97 107.19-91.467 22.867-181.51 34.301-270.12 34.301-91.467 0-184.37-11.434-278.69-34.301-91.47-22.867-175.79-58.597-252.97-107.19-74.317-51.451-135.78-117.19-184.37-197.23-45.733-80.035-68.601-178.65-68.601-295.84v-497.36h527.38v484.5c0 37.159 7.147 68.602 21.438 94.327 17.151 22.867 38.589 42.876 64.313 60.027 25.727 14.292 52.881 25.725 81.465 34.3 31.443 5.717 61.455 8.5756 90.039 8.5756s57.17-2.8586 85.754-8.5756c31.442-8.5752 60.026-20.008 85.752-34.3 25.725-17.151 45.733-37.16 60.026-60.027 17.151-25.726 25.726-57.168 25.726-94.327v-205.8c0-68.602-2.86-127.2-8.575-175.79-5.718-48.593-20.011-90.04-42.877-124.34-20.009-37.159-50.023-70.031-90.04-98.615s-92.897-58.597-158.64-90.04c-100.04-48.593-194.37-94.328-282.98-137.2-85.752-45.734-161.5-101.47-227.24-167.22-62.885-65.743-114.34-147.21-154.36-244.39-37.158-100.04-55.738-228.67-55.738-385.88v-252.97c0-117.19 22.867-215.81 68.601-295.84 45.735-82.893 104.33-148.64 175.79-197.23 74.319-51.451 157.21-88.61 248.68-111.48 91.47-22.867 181.51-34.313 270.12-34.313 88.612 0 178.65 11.445 270.12 34.313 91.47 22.867 172.93 60.026 244.4 111.48 74.317 48.593 134.34 114.34 180.08 197.23 45.733 80.035 68.602 178.65 68.602 295.84v501.67l-527.38-0.037v-484.5c0-74.319-25.726-125.77-77.177-154.35-51.452-28.584-104.33-42.876-158.64-42.876-22.866 0-48.592 2.8582-77.176 8.5752-25.726 5.7168-51.451 15.721-77.177 30.013-22.866 14.292-42.875 34.301-60.026 60.026-14.292 25.725-21.438 58.597-21.438 98.615v201.52c0 65.743 2.858 122.91 8.575 171.5 8.576 48.593 21.439 91.469 38.588 128.63 20.01 37.159 47.164 71.46 81.466 102.9 37.159 28.584 85.75 57.168 145.78 85.752 111.48 51.451 212.95 101.47 304.42 150.07 91.468 48.593 168.64 107.19 231.53 175.79 65.743 65.743 115.77 147.21 150.06 244.39 37.16 97.186 55.74 220.1 55.74 368.73z" style="white-space:pre"/>
 </g>
 <g transform="matrix(1.0632 0 0 1.0632 1.0632 56.389)" fill-rule="nonzero">
  <path d="m4755 192c0-104-82-188-185-192h-4386c-103 4-185 88-185 192v2786c0 106 86 192 192 192h4371c106 0 192-86 192-192v-2786z" fill="#ff5a32"/>
  <path d="m0 1772c144 392 421 698 786 940 304 175 642 303 1019 301 1269-6 2074-931 2068-2065-1-288-86-561-194-809-216 72-669 166-901 193-45 354-362 602-797 699 0 61-15 454-21 518 179-28 397-67 580-121-209 805-1026 1157-1746 876-477-187-790-582-794-1343v812z" fill="#fefefe"/>
 </g>
</svg>
