<svg width="800" height="443.26" version="1.1" viewBox="-.39954 -.39954 24.09 13.342" xmlns="http://www.w3.org/2000/svg">
 <g transform="translate(1.107e-5 .029891)">
  <path d="m14.601 9.6058h-15.001v-10.038h15.001z" fill="#f03a26"/>
  <g transform="matrix(1.7089 0 0 -1.7089 5.5716 9.2028)">
   <path d="m0 0c2.164 0 3.829 1.743 3.829 3.891 0 0.501-0.16 1.191-0.342 1.511-0.623-0.13-1.216-0.217-1.779-0.26-0.194-0.831-0.888-1.202-1.517-1.321-0.019-0.184-0.097-0.806-0.189-1.2 0.665 0.054 1.163 0.268 1.163 0.268-0.101-0.32-0.401-0.838-0.78-1.109-0.66-0.522-1.569-0.683-2.425-0.326-0.884 0.369-1.454 1.247-1.454 2.195v-1.4c0.654-1.406 2.014-2.249 3.494-2.249" fill="#fff"/>
  </g>
 </g>
 <g transform="translate(1.107e-5 .029891)">
  <path d="m19.201 2.9709v-1.3432h-1.5192v1.3432h-0.75704v-3.3973h0.75704v1.3586h1.5192v-1.3586h0.74678v3.3973z" fill="#040606"/>
  <g transform="matrix(1.7089 0 0 -1.7089 21.356 2.2673)">
   <path d="m0 0h0.378c0.431 0 0.55 0.318 0.55 0.605s-0.136 0.573-0.55 0.573h-0.378zm0.378 1.579c0.684 0 0.988-0.46 0.988-0.98s-0.293-1.008-0.988-1.008h-0.815v1.988z" fill="#040606"/>
  </g>
 </g>
 <g transform="translate(1.107e-5 .029891)">
  <g transform="matrix(1.7089 0 0 -1.7089 .92877 11.504)">
   <path d="m0 0-0.114-0.182h0.331l-0.044 0.182-0.043 0.221zm0.272-0.406h-0.527l-0.087-0.14h0.128l-0.042-0.241h-0.52l0.043 0.241h0.11l0.493 0.768h-0.116l0.041 0.237h0.52l0.262-1.005h0.114l-0.043-0.241h-0.522l0.043 0.241h0.137z" fill="#040606"/>
  </g>
  <g transform="matrix(1.7089 0 0 -1.7089 3.7573 11.921)">
   <path d="m0 0 0.082 0.465h-0.157l0.041 0.238h0.539l-0.04-0.238h-0.127l-0.082-0.469c-0.073-0.42-0.318-0.578-0.649-0.578-0.306 0-0.561 0.151-0.486 0.578l0.082 0.469h-0.12l0.041 0.238h0.538l-0.041-0.238h-0.157l-0.082-0.469c-0.039-0.218 0.04-0.336 0.253-0.336 0.199 0 0.328 0.128 0.365 0.34" fill="#040606"/>
  </g>
  <g transform="matrix(1.7089 0 0 -1.7089 4.5357 12.636)">
   <path d="m0 0 0.055 0.306h0.235l-0.016-0.178c0.046-0.021 0.132-0.043 0.23-0.043 0.147 0 0.3 0.036 0.3 0.178 0 0.12-0.176 0.123-0.254 0.137-0.249 0.029-0.445 0.118-0.4 0.388 0.046 0.248 0.291 0.362 0.573 0.362 0.226 0 0.34-0.066 0.409-0.143-0.021-0.105-0.034-0.162-0.052-0.265h-0.229l0.012 0.148c-0.048 0.023-0.098 0.034-0.187 0.034-0.124 0-0.24-0.038-0.259-0.143-0.018-0.089 0.056-0.124 0.202-0.142 0.266-0.032 0.497-0.118 0.46-0.401-0.025-0.247-0.212-0.391-0.613-0.391-0.199 5e-3 -0.37 0.055-0.466 0.153" fill="#040606"/>
  </g>
  <g transform="matrix(1.7089 0 0 -1.7089 6.9049 12.849)">
   <path d="m0 0 0.041 0.238h0.149l0.137 0.778h-0.188l-0.041-0.176h-0.226l0.071 0.406h1.109l-0.071-0.408h-0.226l0.014 0.178h-0.185l-0.137-0.778h0.149l-0.041-0.238z" fill="#040606"/>
  </g>
  <g transform="matrix(1.7089 0 0 -1.7089 9.9766 11.665)">
   <path d="m0 0c0.203 0 0.222 0.119 0.222 0.189 0 0.101-0.085 0.128-0.167 0.128h-0.295l-0.055-0.317zm-0.18-0.217h-0.155l-0.041-0.233h0.146l-0.042-0.242h-0.54l0.043 0.242h0.128l0.136 0.765h-0.137l0.04 0.239h0.698c0.201 0 0.39-0.057 0.404-0.305 0.016-0.277-0.176-0.431-0.4-0.452l0.192-0.247h0.151l-0.043-0.242h-0.443l0.039 0.213z" fill="#040606"/>
  </g>
  <g transform="matrix(1.7089 0 0 -1.7089 11.941 12.438)">
   <path d="m0 0-0.043-0.24h-0.548l0.043 0.24h0.142l0.135 0.765h-0.137l0.041 0.241h0.541l-0.04-0.241h-0.143l-0.135-0.765z" fill="#040606"/>
  </g>
  <g transform="matrix(1.7089 0 0 -1.7089 13.416 11.504)">
   <path d="m0 0-0.114-0.182h0.331l-0.044 0.182-0.043 0.221zm0.272-0.406h-0.526l-0.088-0.14h0.128l-0.042-0.241h-0.52l0.043 0.241h0.11l0.493 0.768h-0.116l0.041 0.237h0.52l0.262-1.005h0.114l-0.043-0.241h-0.522l0.043 0.241h0.137z" fill="#040606"/>
  </g>
 </g>
</svg>
