<svg width="906.13" height="607.04" viewBox="0 0 906.13 607.02" xmlns="http://www.w3.org/2000/svg">
 <g transform="translate(198.78 8.291)">
  <path d="m-198.77-8.2915v607.02h906.12v-607.02z" fill="#ff3801"/>
  <path transform="matrix(1.25 0 0 1.25 -201.32 -8.06)" d="m8.7102 201.86c6.669 35.085 19.754 69.739 42.75 97.475 21.327 26.166 50.995 44.697 82.9 55.175 34.805 11.908 72.706 15.084 108.9 8.275 29.665-5.7891 58.124-18.383 81.65-37.45 31.325-25.106 53.442-61.066 63.15-99.9l-86.825 17c0.92985-28.876 1.855-58.53 2.125-87.425 32.535-7.2289 64.404-20.919 89.15-43.675 18.737-17.027 32.531-40.074 35.9-65.4 9.2086-1.4698 18.476-2.5052 27.675-4.075 40.114-6.729 80.131-14.552 119.22-25.9 7.7188 19.097 14.846 38.468 20.175 58.375 5.3892 19.797 9.2752 40.058 10.775 60.525 3.8794 76.678-20.657 154.56-68.5 214.7-22.697 28.636-50.435 53.298-81.6 72.375-46.363 28.546-100.08 44.52-154.35 47.6-23.846 1.7697-47.944 0.53921-71.35-4.5-31.855-6.639-62.359-18.732-91.225-33.6-10.108-5.3192-20.346-10.556-29.625-17.275-28.406-19.627-54.913-42.639-75.25-70.725-12.478-16.957-22.296-35.653-30.725-54.9-0.50993-1.1498-1.0701-2.3102-1.6-3.45l0.49992-137.05c0.49992 10.823 1.9757 32.52 6.1751 53.827z" fill="#fff"/>
 </g>
</svg>
