<svg version="1.1" viewBox="0 0 800 666.74" xml:space="preserve" xmlns="http://www.w3.org/2000/svg"><defs><linearGradient id="r" x2="1" gradientTransform="matrix(.046035 -6.5105 6.5105 .046035 351.93 139.9)" gradientUnits="userSpaceOnUse"><stop stop-color="#fff" offset="0"/><stop stop-color="#fff" stop-opacity=".4" offset=".5"/><stop stop-color="#fff" stop-opacity="0" offset="1"/></linearGradient><linearGradient id="q" x2="1" gradientTransform="matrix(.046035 -6.5105 6.5105 .046035 351.93 139.9)" gradientUnits="userSpaceOnUse"><stop stop-color="#020204" offset="0"/><stop stop-color="#030203" offset=".5"/><stop stop-color="#fff" offset="1"/></linearGradient><linearGradient id="p" x2="1" gradientTransform="matrix(.95292 -6.0685 6.0685 .95292 347.02 139.93)" gradientUnits="userSpaceOnUse"><stop stop-color="#fff" offset="0"/><stop stop-color="#dadada" offset=".3"/><stop stop-color="#feffff" offset=".7"/><stop stop-color="#6d6d6d" offset="1"/></linearGradient><linearGradient id="o" x2="1" gradientTransform="matrix(-11.742 -.34871 .34871 -11.742 357.8 136.9)" gradientUnits="userSpaceOnUse"><stop stop-color="#4d4d4d" offset="0"/><stop stop-color="#cbcbcb" offset=".5"/><stop stop-color="#fff" offset=".89999"/><stop stop-color="#656565" offset="1"/></linearGradient><linearGradient id="n" x2="1" gradientTransform="matrix(-7.529 -7.3322 7.3322 -7.529 353.78 140.65)" gradientUnits="userSpaceOnUse"><stop stop-color="#e7e7e7" offset="0"/><stop stop-color="#959595" offset=".60001"/><stop stop-color="#444" offset="1"/></linearGradient><linearGradient id="m" x2="1" gradientTransform="matrix(-.95292 0 0 -.95292 349.27 132.06)" gradientUnits="userSpaceOnUse"><stop stop-color="#3c3c3c" offset="0"/><stop stop-color="#919191" offset="1"/></linearGradient><linearGradient id="l" x2="1" gradientTransform="matrix(-5.4252 -.032224 .032224 -5.4252 352.09 137.9)" gradientUnits="userSpaceOnUse"><stop stop-color="#ebebeb" offset="0"/><stop stop-color="#9a9a9a" offset=".5"/><stop stop-color="#aeaeae" offset="1"/></linearGradient><linearGradient id="k" x2="1" gradientTransform="matrix(-.017263 1.8241 -1.8241 -.017263 351.82 140.06)" gradientUnits="userSpaceOnUse"><stop stop-color="#020204" offset="0"/><stop stop-color="#6f6d72" offset=".39999"/><stop stop-color="#332e36" offset=".5"/><stop stop-color="#d1d1d1" offset=".60001"/><stop stop-color="#8e9191" offset=".8"/><stop stop-color="#929090" offset="1"/></linearGradient><linearGradient id="j" x2="1" gradientTransform="matrix(-.012913 -1.6649 1.6649 -.012913 347.7 141.8)" gradientUnits="userSpaceOnUse"><stop stop-color="#616161" offset="0"/><stop stop-color="#787878" offset=".5"/><stop stop-color="#919191" offset=".8"/><stop stop-color="#676767" offset="1"/></linearGradient><linearGradient id="i" x2="1" gradientTransform="matrix(.023018 1.6112 -1.6112 .023018 349.36 140.14)" gradientUnits="userSpaceOnUse"><stop stop-color="#ddd" offset="0"/><stop stop-color="#adadad" offset=".2"/><stop stop-color="#ebebeb" offset=".5"/><stop stop-color="#939393" offset="1"/></linearGradient><linearGradient id="h" x2="1" gradientTransform="matrix(-.046035 1.4961 -1.4961 -.046035 351.08 140.21)" gradientUnits="userSpaceOnUse"><stop stop-color="#ebebeb" offset="0"/><stop stop-color="#a8a8a8" offset=".2"/><stop stop-color="#eaeaea" offset=".39999"/><stop stop-color="#9c9c9c" offset="1"/></linearGradient><linearGradient id="g" x2="1" gradientTransform="matrix(-.023018 1.6342 -1.6342 -.023018 354.52 140.17)" gradientUnits="userSpaceOnUse"><stop stop-color="#b5b5b5" offset="0"/><stop stop-color="#828282" offset=".3"/><stop stop-color="#b5b5b5" offset=".39999"/><stop stop-color="#777" offset="1"/></linearGradient><linearGradient id="f" x2="1" gradientTransform="matrix(0 1.6929 -1.6929 0 352.71 140.09)" gradientUnits="userSpaceOnUse"><stop stop-color="#cacaca" offset="0"/><stop stop-color="#858585" offset=".3"/><stop stop-color="#cacaca" offset=".5"/><stop stop-color="#8b8b8b" offset="1"/></linearGradient><linearGradient id="e" x2="1" gradientTransform="matrix(.016112 -1.7424 1.7424 .016112 355.94 141.8)" gradientUnits="userSpaceOnUse"><stop stop-color="#616161" offset="0"/><stop stop-color="#787878" offset=".10001"/><stop stop-color="#919191" offset=".39999"/><stop stop-color="#676767" offset=".60001"/><stop stop-color="#979797" offset="1"/></linearGradient><radialGradient id="a" cx="0" cy="0" r="1" gradientTransform="matrix(8.2011 0 0 4.9313 350.74 136.56)" gradientUnits="userSpaceOnUse"><stop stop-color="#e7e7e7" offset="0"/><stop stop-color="#959595" offset=".60001"/><stop stop-color="#444" offset="1"/></radialGradient><radialGradient id="b" cx="0" cy="0" r="1" gradientTransform="matrix(3.9294 5.6873 -2.3971 1.5229 347.53 132.73)" gradientUnits="userSpaceOnUse"><stop stop-color="#171717" offset="0"/><stop stop-color="#020204" offset=".3"/><stop stop-color="#fff" offset=".60001"/><stop stop-color="#fff" offset="1"/></radialGradient><clipPath id="s"><path d="m345.83 131.94h11.905v9.922h-11.905z"/></clipPath><radialGradient id="c" cx="0" cy="0" r="1" gradientTransform="matrix(-4.6321 0 0 -3.5505 357.82 137.32)" gradientUnits="userSpaceOnUse"><stop stop-color="#d4d4d4" offset="0"/><stop stop-color="#545454" offset="1"/></radialGradient><clipPath id="u"><path d="m355.02 139.87c2.699-3.548-1.831-6.017-3.508-5.907l-2.048 0.237c-2.553 0.628-4.213 3.399-2.347 5.67 4e-3 2e-3 -0.252-5e-3 -0.252-5e-3 -2.151-3.213 1.112-5.518 2.2-5.859l1.958-0.685c4.844-0.078 6.686 2.294 6.705 4.445v0.065c-6e-3 0.749-0.234 1.468-0.632 2.043z"/></clipPath><mask id="d" x="0" y="0" width="1" height="1" maskUnits="userSpaceOnUse"><g clip-path="url(#t)"><path d="m344.67 139.87 0.048-6.756 13.978 0.099-0.048 6.756z" fill="url(#r)"/></g></mask><clipPath id="t"><path d="m-1279.7 1757.4h3251v-3250.9h-3251z"/></clipPath></defs><g transform="matrix(1.3333 0 0 -1.3333 .00017511 666.74)"><g transform="matrix(50.399 0 0 50.399 -17429 -6649.5)"><g clip-path="url(#u)"><g mask="url(#d)"><path d="m355.02 139.87c2.699-3.548-1.831-6.017-3.508-5.907l-2.048 0.237c-2.553 0.628-4.213 3.399-2.347 5.67 4e-3 2e-3 -0.252-5e-3 -0.252-5e-3 -2.151-3.213 1.112-5.518 2.2-5.859l1.958-0.685c4.844-0.078 6.686 2.294 6.705 4.445v0.065c-6e-3 0.749-0.234 1.468-0.632 2.043z" fill="url(#q)"/></g></g></g><g transform="matrix(50.399 0 0 50.399 -17429 -6649.5)"><path d="m346.53 139.87c-1.18-1.582-1.231-4.481 2.664-6.119l0.298 0.433c-1.477 0.193-4.722 2.618-2.482 5.686z" fill="url(#p)"/></g><g transform="matrix(50.399 0 0 50.399 -17429 -6649.5)"><path d="m355.29 139.87c1.781-2.287 0.588-5.261-3.688-5.854l-2.236 0.052c-3.071 1.078-4.085 3.577-2.482 5.803h-0.256c-2.021-3.217 0.822-5.504 2.532-6.015 0.801-0.238 1.993-0.426 1.993-0.426 3.886-0.28 8.345 2.878 5.828 6.441z" fill="url(#o)"/></g><g transform="matrix(50.399 0 0 50.399 -17429 -6649.5)"><path d="m351.99 133.66c4.197 0.5 6.765 3.274 4.753 6.213l-1.152 3e-3c2.173-3.442-0.993-5.794-3.601-6.216" fill="url(#c)"/></g><g transform="matrix(50.399 0 0 50.399 -17429 -6649.5)"><g clip-path="url(#s)"><g transform="translate(355.59 139.87)"><path d="m0 0 1.152-2e-3c2.013-2.94-0.555-5.714-4.752-6.213 2.608 0.421 5.774 2.773 3.6 6.215z" fill="none" stroke="#020204" stroke-width=".012"/></g></g></g><g transform="matrix(50.399 0 0 50.399 -17429 -6649.5)"><path d="m347.74 139.74 0.104-0.361 5.083-1.061-3.159-6.045 0.163-0.333s3.143 3.787 5.072 6.252c0.526 0.767-0.179 1.533-0.687 1.538z" fill="url(#n)"/></g><g transform="matrix(50.399 0 0 50.399 -17429 -6649.5)"><path d="m351.87 137.78-3.902-5.819h1e-3l0.664 0.344 3.702 5.714z" fill="url(#b)"/></g><g transform="matrix(50.399 0 0 50.399 -17429 -6649.5)"><path d="m348.35 132.17-0.385-0.208 1.963-0.021-0.1 0.237z" fill="url(#m)"/></g><g transform="matrix(50.399 0 0 50.399 -17429 -6649.5)"><path d="m346.43 137.78h5.441l0.398 0.196-5.462 3e-3z" fill="url(#l)"/></g><g transform="matrix(50.399 0 0 50.399 96.429 393.1)"><path d="m0 0 0.081-0.197-0.869-1.486-0.523-0.269z" fill="#fff"/></g><g transform="matrix(50.399 0 0 50.399 -17429 -6649.5)"><path d="m346.78 137.97 5.436-0.012-3.917-5.82 1.546-2e-3s3.243 3.924 4.91 6.018c0.329 0.388 0.448 1.36-0.567 1.392l-6.376 0.016z" fill="url(#a)"/></g><g transform="matrix(50.399 0 0 50.399 -17429 -6649.5)"><path d="m348.38 141.86 0.8-1.833 0.409 7e-3 0.772 1.781v0.037l-0.612 6e-3 -0.363-1.044-0.372 1.046zm5.417-1e-3 8e-3 -1.824 0.547 1e-3v0.566h0.288c0.749 9e-3 0.777 1.204-0.028 1.257zm0.572-0.762-4e-3 0.264s0.11 3e-3 0.163-0.012c0.136-0.075 0.124-0.2-6e-3 -0.251-0.022-4e-3 -0.047-6e-3 -0.071-6e-3 -0.043 0-0.082 5e-3 -0.082 5e-3m-1.392 0.753-0.022-1.162c-0.026-0.224-0.121-0.201-0.228-0.201-0.106 0-0.206-0.022-0.227 0.197v1.171l-0.608 1e-3 0.012-1.11c0-0.621 0.453-0.756 0.826-0.756 0.372-1e-3 0.827 0.106 0.825 0.752v1.116zm-2.616 3e-3v-1e-3h0.016l-0.016-0.037 7e-3 -1.786 0.547 2e-3v0.566l0.322-0.565 0.641-2e-3 -0.472 0.707c0.448 0.148 0.603 1.038-0.232 1.116zm0.572-0.762-4e-3 0.265s0.109 2e-3 0.162-0.014c0.136-0.074 0.123-0.199-5e-3 -0.25-0.022-4e-3 -0.048-5e-3 -0.071-5e-3 -0.044 0-0.082 4e-3 -0.082 4e-3m-3.586 0.76-0.617-1.813h0.581l0.081 0.303h0.609l0.08-0.309 0.582 3e-3 -0.635 1.816zm0.346-0.57 0.171-0.508-0.335-2e-3zm7.914 0.569-0.617-1.813h0.582l0.08 0.304h0.609l0.081-0.31 0.581 3e-3 -0.634 1.816zm0.346-0.57 0.172-0.507-0.335-3e-3z" fill="url(#k)"/></g><g transform="matrix(50.399 0 0 50.399 -17429 -6649.5)"><path d="m347.39 141.8-0.584-1.716 0.465-4e-3 0.086 0.323 0.687 2e-3 0.08-0.306 0.452-6e-3 -0.605 1.709zm0.302-0.342 0.257-0.734-0.496-3e-3z" fill="url(#j)"/></g><g transform="matrix(50.399 0 0 50.399 -17429 -6649.5)"><path d="m348.48 141.8 0.739-1.691h0.315l0.743 1.691-0.468 7e-3 -0.427-1.168-0.458 1.17z" fill="url(#i)"/></g><g transform="matrix(50.399 0 0 50.399 -17429 -6649.5)"><path d="m350.43 140.09v-7e-3l0.407-1e-3 0.018 0.744 0.456-0.73 0.444-0.011-0.436 0.653c0.382 0.149 0.653 0.939-0.174 1.037l-0.698 8e-3zm0.428 1.345s0.213-5e-3 0.267-0.021c0.189-0.058 0.16-0.315 0.031-0.366-0.061-0.013-0.298-0.013-0.298-0.013z" fill="url(#h)"/></g><g transform="matrix(50.399 0 0 50.399 -17429 -6649.5)"><path d="m353.88 140.1 0.419-7e-3 -3e-3 0.587s0.336-0.031 0.476 0.014c0.486 0.083 0.591 1.005-0.183 1.098l-0.711 9e-3zm0.425 1.326s0.21-4e-3 0.264-0.02c0.191-0.059 0.144-0.307 0.014-0.358-0.052-0.011-0.208-0.011-0.254-0.011h-0.015z" fill="url(#g)"/></g><g transform="matrix(50.399 0 0 50.399 -17429 -6649.5)"><path d="m351.95 141.79 0.014-1.055c8e-3 -0.547 0.388-0.679 0.76-0.679 0.373 0 0.762 0.133 0.753 0.646v1.087h-0.427l-0.028-1.113c-0.026-0.225-0.192-0.274-0.298-0.274-0.106 1e-3 -0.271 0.045-0.294 0.264l-4e-3 1.13z" fill="url(#f)"/></g><g transform="matrix(50.399 0 0 50.399 -17429 -6649.5)"><path d="m355.65 141.79-0.583-1.717 0.464-5e-3 0.087 0.324 0.686 2e-3 0.081-0.306 0.451-5e-3 -0.604 1.708zm0.303-0.343 0.257-0.734-0.497-2e-3z" fill="url(#e)"/></g></g></svg>
