<svg width="936.97pt" height="115.86pt" version="1.1" viewBox="0 0 936.97 115.86" xmlns="http://www.w3.org/2000/svg">
 <g transform="translate(-73.905 -223.66)">
  <path d="m73.905 223.66h40.72v61.035h10.085l39.14-26.85h54.83l-57.94 37.27 66.73 42.885h-55.2l-45.85-32.585h-11.795v32.585h-40.72z"/>
  <path d="m757.98 223.69h41.11v114.31h-41.11z"/>
  <path d="m245.14 264.45c15.02-8.29 32.79-7.44 49.38-8.42 11.33 0.04 22.67-0.42 33.98 0.42 10.41 0.26 20.88 0.85 31.1 3.04 5.74 1.21 11.48 3.53 15.65 7.81 4.12 4.11 6.5 9.92 6.43 15.74l0.06 54.97h-41.16c-0.03-4.78 0.07-9.55-0.10001-14.32-2.54 6.32-8.36 10.67-14.7 12.72-11 3.67-22.76 2.76-34.17 3.12-15.02-0.13-30.26 0.26-44.97-3.23-7.22-1.58-13.48-7.13-15.14-14.44-2.33-9.22-1.1-20.79 6.96-26.92 7.03-4.93 15.87-5.84 24.14-6.99 19.31-1.16 38.7-1.52 58-0.09 7.04 0.82 14.81 2.91 18.89 9.25-0.24-5.19 0.57-10.49-0.61-15.58-0.9-3.64-4.88-4.91-8.06-5.78-10.26-2.25-20.83-1.22-31.24-1.47-6.83 0.33-14.15-1.04-20.44 2.3-1.79 0.88-2.62 2.73-3.38 4.44l-40.56 0.02c0.19-6.81 3.79-13.43 9.94-16.59m39.96 39.27c-4.37 0.57-9.16 1.23-12.52 4.37-2.62 2.78-2 7.61 1.12 9.75 4.64 3.24 10.55 3.19 15.97 3.65 10.27 0.17 20.55 0.3 30.82 0 5.72-0.64 12.02-0.1 16.99-3.53 3.6-2.43 3.89-8.43 0.11-10.85-5.61-3.49-12.54-3.72-18.95-3.82-11.18 0.09-22.39-0.43-33.54 0.43z"/>
  <path d="m477.42 257.27c16.11-1.8 32.49-1.78 48.52 0.84 8.34 1.54 16.89 3.99 23.55 9.47 7.32 6.18 9.86 16.22 9.88 25.44l0.04 44.98h-40.72l0.01-40.05c-0.01-4.04-0.56-8.35-3.01-11.69-1.96-2.78-5.08-4.53-8.31-5.42-8.28-2.11-16.89-1.71-25.36-1.78-7.43-0.03-15.03 0.37-22.09 2.85-4.62 1.57-8.39 5.37-9.87 10.02-1.81 5.48-1.63 11.34-1.59 17.04v29.03h-40.78v-80.13h39.72l0.14 18.76c2.23-4.54 4.58-9.32 8.8-12.35 6.02-4.64 13.76-5.91 21.07-7.01z"/>
  <path d="m595.56 264.44c15.02-8.29 32.79-7.44 49.38-8.42 11.33 0.04 22.67-0.42 33.98 0.42 10.41 0.26 20.88 0.85 31.1 3.04 5.74 1.21 11.48 3.53 15.65 7.81 4.12 4.11 6.5 9.92 6.43 15.74l0.06 54.97h-41.16c-0.03-4.78 0.07-9.55-0.1-14.32-2.54 6.32-8.36 10.67-14.7 12.72-11 3.67-22.76 2.76-34.17 3.12-15.02-0.13-30.26 0.26-44.97-3.23-7.22-1.58-13.48-7.13-15.14-14.44-2.33-9.22-1.1-20.79 6.96-26.92 7.03-4.93 15.87-5.84 24.14-6.99 19.31-1.16 38.7-1.52 58-0.09 7.04 0.82 14.81 2.91 18.89 9.25-0.24-5.19 0.57-10.49-0.61-15.58-0.9-3.64-4.88-4.91-8.06-5.78-10.26-2.25-20.83-1.22-31.24-1.47-6.83 0.33-14.15-1.04-20.44 2.3-1.79 0.88-2.62 2.73-3.38 4.44l-40.56 0.02c0.19-6.81 3.79-13.43 9.94-16.59m39.96 39.27c-4.37 0.57-9.16 1.23-12.52 4.37-2.62 2.78-2 7.61 1.12 9.75 4.64 3.24 10.55 3.19 15.97 3.65 10.27 0.17 20.55 0.3 30.82 0 5.72-0.64 12.02-0.1 16.99-3.53 3.6-2.43 3.89-8.43 0.11-10.85-5.61-3.49-12.54-3.72-18.95-3.82-11.18 0.09-22.39-0.43-33.54 0.43z"/>
 </g>
 <g transform="matrix(.62281 0 0 .62281 235.61 -134.36)">
  <path d="m869.07 220.77c19.4-3.77 39.2-5.04 58.93-4.92 27.32-0.12 54.63-0.19 81.95 0 16.39-0.03 32.76 0.92 49.1 2.16 14.13 1.45 28.78 2.67 41.68 9.12 8.35 4.09 15.26 11.4 17.83 20.45 3.22 11.27 3.7 23.65-0.13 34.83-2.97 8.62-10.21 15.33-18.76 18.3-12.25 4.18-25.34 4.56-38.04 6.4 14.21 1.65 28.57 2.87 42.4 6.72 6.18 1.69 12.03 5.17 15.71 10.52 5.16 7.43 6.67 16.79 6.32 25.67 0.52 10.5-2.72 21.35-9.78 29.26-7.27 8.13-17.68 12.65-28.11 15.13-12.99 2.99-26.38 3.44-39.64 3.91-32.49 1.36-65.02 0.87-97.54 1-28.4-0.11-56.96 0.46-85.13-3.75-9.71-1.5-19.59-3.92-27.67-9.77-8.63-5.93-14.26-15.55-16.28-25.73-1.94-8.43-1.32-17.13-0.81-25.68l70.44-0.04c0.4 5.77-0.25 12.09 2.68 17.3 4.55 5.98 12.6 7.35 19.55 8.65 19.3 2.48 38.82 1.21 58.22 1.9 18.01-0.19 36.03-0.11 54.04-0.72 8.8-0.63 19.45-1.43 24.87-9.48 3.97-7.12 2.75-17.73-4.31-22.54-3.25-2.3-7.21-3.26-11.08-3.85-15.46-1.65-31.03-1.23-46.55-1.29h-45.145v-34.46c21.74-0.05 43.485 0.08 65.215-0.08 6.98 0.03 13.94-0.58 20.87-1.33 4.78-0.62 9.82-1.78 13.45-5.17 4.56-4.19 5.45-11.35 3.27-16.96-1.68-4.38-5.74-7.3-9.94-9.03-7.49-3.08-15.69-3.37-23.66-3.92-21.34-0.52-42.71-1.17-64.05-0.37-11.68 0.27-23.42-0.09-35.02 1.46-6.28 1.08-13.16 3.05-17.03 8.52-2.97 4.17-2.58 9.59-1.6 14.35h-71.76c0.29-11.95 0.75-24.48 6.44-35.29 2.63-5.16 6.93-9.31 11.97-12.1 8.35-4.74 17.76-7.23 27.1-9.17z" fill="#005caa"/>
 </g>
</svg>
