<svg id="b" width="534.82" height="187.47" version="1.1" viewBox="0 0 141.5 49.602" xmlns="http://www.w3.org/2000/svg">
 <defs id="c">
  <radialGradient id="a" cx="0" cy="0" r="1" gradientTransform="matrix(498.97 184.69 -170.52 204.1 251.18 96.634)" gradientUnits="userSpaceOnUse">
   <stop id="d" stop-color="#a49b8b" offset="0"/>
   <stop id="e" stop-color="#615a4b" offset="1"/>
  </radialGradient>
 </defs>
 <g id="f" transform="translate(135.81 46.761)">
  <path id="g" transform="matrix(.26459 0 0 .26459 -144.5 -51.65)" d="m32.848 18.479h333.29v15.396h-333.29zm258.31 28.697c8.3564 0 14.645 2.8915 19.785 8.043 7.4304 7.4191 7.3242 16.603 7.3242 29.283 0 12.68 0.10623 21.86-7.3242 29.283-5.1401 5.1514-11.429 8.0547-19.785 8.0547-8.3564 0-14.758-2.9033-19.895-8.0547-7.4342-7.4229-7.2305-16.603-7.2305-29.283 0-12.68-0.20376-21.864 7.2305-29.283 5.1364-5.1514 11.538-8.043 19.895-8.043zm-131.93 0.59961h14.334v73.432h-14.334zm-71.471 0.0078h14.324v31.982l25.889-31.982h17.424l-24.34 29.186 26.078 44.238h-16.705l-18.859-33.402-9.4863 11.33v22.072h-14.324zm105.63 0h12.789l29.076 44.965v-44.965h14.346v73.424h-12.789l-29.08-45.062v45.062h-14.342zm185.27 0.24805h9.8223v59.844h67.482v-59.844h9.8242v129.51h-9.8242v-60.928h-67.482v60.928h-9.8223zm100.6 2e-3h43.477c13.458 0 24.732 4.1839 32.371 11.822 13.102 13.092 12.555 33.65 12.555 51.111 0 17.46 0.54761 41.651-12.555 54.748-7.6387 7.638-18.912 11.823-32.371 11.822h-43.477zm9.8203 8.7305v112.04h31.293c10.362 0 20.369-2.3648 27.826-10.004 10.369-10.549 9.6406-33.468 9.6406-47.838 0-14.37 0.72799-33.649-9.6406-44.201-7.4569-7.6383-17.464-10-27.826-10zm-197.92 3.1895c-3.9231 0-7.231 1.5541-9.2832 3.9238-2.793 3.0841-3.4961 6.486-3.4961 20.625 0 14.124 0.70306 17.515 3.4961 20.625 2.0523 2.3546 5.3601 3.9062 9.2832 3.9062 3.908 0 7.127-1.5516 9.168-3.9062 2.7818-3.1105 3.6211-6.5011 3.6211-20.625 0-14.139-0.83931-17.541-3.6211-20.625-2.0409-2.3697-5.26-3.9238-9.168-3.9238zm-204.98 74.236h4.8008l8.2773 34.033 9.2969-34.033h4.0059l9.3359 34.033 8.2383-34.033h4.8008l-10.809 42.209h-4.1953l-9.373-33.791-9.373 33.791h-4.1953zm61.189 0h26.195v4.0332h-21.697v14.881h18.504v4.0312h-18.504v15.23h21.697v4.0332h-26.195zm37.807 0h4.5058v38.176h19.91v4.0352h-24.416zm23.369 0h28.932v4.0312h-12.207v38.178h-4.5058v-38.178h-12.219zm44.004 0h37.908l11.939 34.143 11.928-34.143h5.1621l-15.084 42.211h-4.0098l-13.65-38.178h-17.48v38.178h-4.4941v-38.178h-12.219zm-10.299 36.635h5.5742v5.5742h-5.5742zm-209.4 19.719h333.29v15.406h-333.29z" fill="url(#a)" stroke-width="3.7795"/>
 </g>
</svg>
