<svg width="676.17" height="222.4" version="1.1" viewBox="0 0 676.17 222.4" xml:space="preserve" xmlns="http://www.w3.org/2000/svg">
<path d="m33.2 112.69c-2.9143 6.3429-4.3429 9.5429-7.2571 16v50.457c-10.4 1.6571-15.6 2.5143-25.943 4.2857v-183.43c10.4 1.7714 15.6 2.6286 25.943 4.2857v66.971c2.6857-7.7143 4-11.486 6.6857-19.029 7.2571-18.229 10.914-27.029 18.171-44.171 12.057 1.7714 18.057 2.5714 30.114 4.1714-11.371 22.857-22.343 45.771-33.086 68.914 12.4 30 25.029 59.886 38.629 89.314-11.886 1.5429-17.829 2.3429-29.714 4-8.1714-20.4-16-41.029-23.543-61.771zm88.286-95.6v149.26c-10.571 1.1428-15.829 1.7714-26.4 3.0857v-155.37c10.514 1.2572 15.829 1.8857 26.4 3.0286zm96.514 8.2286v132.8c-10.457 0.62857-15.657 0.97142-26.114 1.7714-8.8-20.457-13.2-30.914-22-52.4-4.6857-13.6-7.0286-20.457-11.714-34.4-0.22857 0.22858-0.34286 0.34286-0.57143 0.57143 2.0571 17.886 3.3714 44.286 3.3714 60.057v28.686c-10.457 0.91429-15.657 1.4286-26.057 2.5143v-146.4c10.4 1.0857 15.657 1.6 26.057 2.5143 8 20.629 16.286 41.2 24.8 61.657 3.1429 8.6857 6.1714 17.6 9.3143 26.114 0.22858-0.22857 0.34286-0.34286 0.57143-0.57143-2.2286-17.029-3.7143-40.457-3.7143-53.086v-31.543c10.4 0.74286 15.6 1.0857 26.057 1.7143zm12.057 89.486v-46.171c-1.1428-25.029 17.6-43.943 42.343-42.971 23.943 0.91429 43.2 19.029 42.343 43.943v44.229c0.85714 24.914-18.343 43.029-42.343 43.943-24.743 0.97143-43.486-17.943-42.343-42.971zm57.257-0.8v-44.571c0-11.943-5.0286-18.4-14.914-18.571-9.8857-0.22857-14.914 6.1143-14.914 18.229v45.257c0 12.171 5.0286 18.457 14.914 18.229 9.8286-0.17143 14.914-6.5714 14.914-18.571zm174.46-88.914c-9.6 43.943-19.429 87.829-29.429 131.66-11.2-0.51429-16.8-0.74286-27.943-1.1429-3.7143-17.2-5.6-25.771-9.3143-42.8-3.1428-13.829-5.4286-31.2-6.1714-41.543h-0.74286c-0.74286 10.343-2.9714 27.714-6.1714 41.429-3.7143 16.914-5.6 25.314-9.3143 42.114-11.2-0.17143-16.8-0.22857-28-0.28571l-29.486-125.66c10.971 0.11429 16.457 0.17143 27.429 0.11429 4.1143 23.714 6.1714 35.6 10.286 59.371 1.4857 9.1428 4.1143 24.629 5.4286 35.029h0.74285c1.3143-10.4 3.9429-25.886 5.4286-35.029 4.1143-23.086 6.1714-34.686 10.286-57.886 11.029-0.17143 16.571-0.34285 27.6-0.68571 4.1143 23.257 6.1714 34.971 10.229 58.514 1.4857 9.3714 4.1143 25.143 5.4286 35.886h0.74286c1.3143-10.629 3.9429-26.457 5.4286-35.886 4.1143-24.457 6.1714-36.8 10.229-61.6 10.857-0.62857 16.343-0.91428 27.314-1.6zm75.314 111.37v28.057c-22.971-2.3429-46.057-4.2857-69.086-5.7714v-134.06c22.457-1.4286 44.857-3.3143 67.257-5.5428v28c-16.286 0.97143-24.457 1.4286-40.8 2.2286v28.571c14.8-0.22857 22.229-0.34286 37.086-0.62857v26.8c-14.8-0.22858-22.229-0.34286-37.086-0.57143v30.514c17.086 0.85715 25.6 1.3143 42.629 2.4zm75.657 5.5429v31.6c-21.657-3.0286-43.371-5.7143-65.086-8v-147.77c10.571-1.1429 15.829-1.7143 26.4-2.9714v124.06c15.543 1.1428 23.257 1.7714 38.686 3.0857zm63.371-106.63c-10.171 1.0857-15.257 1.6-25.429 2.5714v141.26c-10.857-1.7143-16.286-2.5714-27.086-4.1143v-134.63c-10.171 0.91429-15.257 1.3143-25.429 2.1714v-30.8c26.057-3.6 52-7.5429 78-11.829-0.0571 14.171-0.0571 21.257-0.0571 35.371zm-510.4 153.31h-8v32.971h-5.6v-32.971h-7.9429v-5.2571h21.543zm41.6 27.829v5.2h-19.257v-38.229h18.743v5.2h-13.257v11.086h12.171v5.0857h-12.171v11.714h13.771zm41.029-0.0571v5.2572h-18.171v-38.229h5.5429v32.971zm41.371 0.0571v5.2h-19.257v-38.229h18.743v5.2h-13.2v11.086h12.171v5.0857h-12.171v11.714h13.714zm20.914-33.086h5.7714l4.5714 21.086c0.74286 3.3714 1.3714 7.0857 1.8857 10.171h0.22857c0.57143-3.0286 1.2-6.8 1.8857-10.171l4.6286-21.086h5.7143l-9.3714 38.229h-6zm52.457 0v38.229h-5.5428v-38.229zm22.514 27.771h5.6c0.0571 3.9429 2.1714 5.8286 5.5429 5.8286 3.6571 0 5.4857-2.1714 5.4857-5.2571 0-7.6-16-8.0571-16-19.371 0-5.5429 4.0571-9.6571 10.457-9.6571 6.5714 0 10.457 4.2286 10.629 10.686h-5.6c-0.11429-3.6571-2-5.4286-4.9714-5.4286-3.0857 0-4.9143 1.7714-4.9143 4.4571 0 7.4857 16.057 7.4857 16.057 19.314 0 5.6571-4 10.514-11.143 10.514-6.7429 0.11429-11.143-4.1143-11.143-11.086zm50.514-27.771v38.229h-5.5429v-38.229zm23.429 26.114v-14c0-8 4.3428-12.857 11.714-12.857 7.3143 0 11.714 4.8572 11.714 12.857v14c0 8-4.3429 12.857-11.714 12.857s-11.714-4.8571-11.714-12.857zm17.657 0v-14c0-4.8-2.0571-7.4286-6-7.4286-4 0-6 2.6286-6 7.4286v14c0 4.8 2 7.4286 6 7.4286 3.9429 0 6-2.6286 6-7.4286zm51.771-26.114v38.229h-5.5429l-8.5143-18.743c-1.1429-2.8572-2.7429-6.8-3.6572-9.2572l-0.17143 0.11429c0.4 3.8286 0.62858 9.5429 0.62858 13.143v14.743h-5.4857v-38.229h5.5429l8.8 19.486c1.1429 2.5714 2.5714 6.1143 3.4857 8.4l0.17143-0.11429c-0.45714-3.7714-0.74286-9.4857-0.74286-12.914v-14.914h5.4857z" fill="#fff" stroke-width=".57143"/>
</svg>
