<svg version="1.1" viewBox="0 0 800 271.21" xml:space="preserve" xmlns="http://www.w3.org/2000/svg"><g transform="matrix(1.3333 0 0 -1.3333 98.209 690.49)"><path d="m-73.657 314.46h395.34v203.41h-395.34z" fill="#284575"/><path d="m321.68 314.46h204.66v203.41h-204.66z" fill="#ab2e30"/><g transform="matrix(27.837 0 0 27.837 424.65 510.59)"><path d="m0 0c1.802 0 3.262-1.523 3.262-3.402s-1.46-3.402-3.262-3.402-3.262 1.523-3.262 3.402 1.46 3.402 3.262 3.402" fill="#f49437"/></g><g transform="matrix(27.837 0 0 27.837 56.03 484.33)"><path d="m0 0.0085h2.146l-2.347-2.3555 2.574-2.5815h-2.286l-1.4435 1.4305v-1.4305h-1.679v4.937h1.679v-1.3865z" fill="#fff"/></g><g transform="matrix(27.837 0 0 27.837 241.04 451.31)"><path transform="matrix(.026942 0 0 -.026942 -8.6591 14.031)" d="m188.65 471.55v49.217h62.168v134.69h70.578v-134.69h62.168v-49.217z" fill="#fff"/></g><g transform="matrix(27.837 0 0 27.837 454.75 344.96)"><path d="m0 0h-1.779v3.803h-1.012l0.244 1.187h2.547z" fill="#284575"/></g></g></svg>
