<svg version="1.0" viewBox="0 0 741.64 447.83" xmlns="http://www.w3.org/2000/svg">
 <defs>
  <radialGradient id="a" cx="-822.27" cy="348.03" r="100.18" gradientTransform="matrix(1 0 0 .82468 0 61.019)" gradientUnits="userSpaceOnUse">
   <stop stop-color="#0055d4" offset="0"/>
   <stop stop-color="#0055d4" stop-opacity="0" offset="1"/>
  </radialGradient>
  <radialGradient id="b" cx="-822.27" cy="348.03" r="100.18" gradientTransform="matrix(1 0 0 .82468 0 61.019)" gradientUnits="userSpaceOnUse">
   <stop stop-color="#00aad4" offset="0"/>
   <stop stop-color="#00aad4" stop-opacity="0" offset="1"/>
  </radialGradient>
  <radialGradient id="c" cx="-822.27" cy="348.03" r="100.18" gradientTransform="matrix(1 0 0 .82468 0 61.019)" gradientUnits="userSpaceOnUse">
   <stop stop-color="#60f" offset="0"/>
   <stop stop-color="#5500d4" stop-opacity="0" offset="1"/>
  </radialGradient>
  <linearGradient id="d" x1="159.42" x2="183.29" y1="79.261" y2="46.409" gradientUnits="userSpaceOnUse">
   <stop stop-color="#125ac5" offset="0"/>
   <stop stop-color="#1aa2f7" offset="1"/>
  </linearGradient>
 </defs>
 <g transform="matrix(.25171 0 0 .25171 -110.81 -22.679)" fill-rule="evenodd">
  <path transform="matrix(9.3015 -2.4923 2.4923 9.3015 8175.5 -4371.8)" d="m-722.09 348.03a100.18 82.617 0 1 1-200.36 0 100.18 82.617 0 1 1 200.36 0z" fill="url(#a)"/>
  <path transform="matrix(9.3015 -2.4923 2.4923 9.3015 8195.7 -4319)" d="m-722.09 348.03a100.18 82.617 0 1 1-200.36 0 100.18 82.617 0 1 1 200.36 0z" fill="url(#a)"/>
  <path transform="matrix(9.3015 -2.4923 2.4923 9.3015 8214.2 -4287.2)" d="m-722.09 348.03a100.18 82.617 0 1 1-200.36 0 100.18 82.617 0 1 1 200.36 0z" fill="url(#a)"/>
  <path transform="matrix(9.3015 -2.4923 2.4923 9.3015 8234.5 -4234.3)" d="m-722.09 348.03a100.18 82.617 0 1 1-200.36 0 100.18 82.617 0 1 1 200.36 0z" fill="url(#a)"/>
  <path transform="matrix(3.8796 7.0186 -6.8691 4.1385 6766 5418.3)" d="m-722.09 348.03a100.18 82.617 0 1 1-200.36 0 100.18 82.617 0 1 1 200.36 0z" fill="url(#c)"/>
  <path transform="matrix(3.8796 7.0186 -6.8691 4.1385 7416.8 5202.8)" d="m-722.09 348.03a100.18 82.617 0 1 1-200.36 0 100.18 82.617 0 1 1 200.36 0z" fill="url(#b)"/>
  <path transform="matrix(8.588 -2.3012 2.3012 8.588 7724.7 -3900.3)" d="m-722.09 348.03a100.18 82.617 0 1 1-200.36 0 100.18 82.617 0 1 1 200.36 0z" fill="url(#a)"/>
  <path d="m1186.4 673.17 82.853 136.71 89.067-66.282 4e-4 546.83-132.56 49.712-5e-4 99.423c0 6.7096 4.7635 6.0381 10.459 6.038l421.15 1e-4c6.4777-1e-4 10.742-2.4518 10.742-10.707l-3e-4 -94.756-119.23-49.71-1e-4 -772.6c0-8.1921-3.5119-12.076-13.149-12.076l-111.13 5e-5z" fill="#fff"/>
 </g>
 <g transform="matrix(3.5538 0 0 3.5538 30.898 6.6255)" fill="url(#d)">
  <path d="m136.86 78.39 3.1605-1.2541 0.0263-27.895-3.1237-1.1353 0.0124-3.6401h13.507l-0.0127 3.6652-3.1037 1.0506 0.0127 10.374 10.436 0.0628 0.04-10.313-2.9787-1.1547-0.0179-3.6755 13.454-0.0089v3.7028l-2.889 0.86548-0.041 23.56 0.0153 4.5768 2.9146 1.2387v3.4445l-13.49 0.03554v-3.6222l2.879-0.97225 0.0314-11.66-10.279 0.05025 4e-3 11.28 2.9856 1.3238v3.5583l-13.52 0.0063z"/>
  <path d="m171.53 79.491-6e-3 -1.6071c0.1767-0.10317 2.6493-0.54849 2.7755-0.72043 0.13885-0.17191 0.41008-0.38452 0.40861-0.76281l-0.1002-25.927c0-0.3439 0-0.80582-0.13933-0.96059-0.12622-0.15474-0.19626-0.17113-0.37295-0.27429l-2.5659-0.82365v-3.9495h16.246c10.402 0.41536 12.182 9.5606 12.221 18.64 0.0446 10.51-3.84 18.224-12.447 18.784h-16.02zm14.559-3.8263c2.4813-0.04662 4.3643-2.7943 5.276-5.3651 0.91167-2.5709 0.98073-6.1232 0.99451-7.6929-0.0388-1.9403-0.25658-5.6337-1.3284-7.9161-1.0718-2.2824-3.1333-4.1822-5.2581-4.1506l-3.6984 0.05905-0.0333 25.106z"/>
 </g>
</svg>
