<svg width="800" height="765.22" version="1.1" viewBox="0 0 800 765.22" xml:space="preserve" xmlns="http://www.w3.org/2000/svg"><defs>
<linearGradient id="linearGradient1205" x1="43.179" x2="13.346" y1="2.8679" y2="66.117" gradientUnits="userSpaceOnUse"><stop stop-color="#d85e9c" offset="0"/><stop stop-color="#d63f85" offset=".17603"/><stop stop-color="#d30d5f" offset=".35091"/><stop stop-color="#a70240" offset="1"/></linearGradient><linearGradient id="linearGradient3014" x1="43.179" x2="13.346" y1="2.8679" y2="66.117" gradientUnits="userSpaceOnUse"><stop stop-color="#d85e9c" offset="0"/><stop stop-color="#d63f85" offset=".17603"/><stop stop-color="#d30559" offset=".46383"/><stop stop-color="#a70240" offset="1"/></linearGradient></defs>
<path d="m800 342.03a336.23 336.23 0 0 1-336.23 336.23 336.23 336.23 0 0 1-336.23-336.23 336.23 336.23 0 0 1 336.23-336.23 336.23 336.23 0 0 1 336.23 336.23z" fill="#d30559" stop-color="#000000" stroke-width="32.671"/><path d="m672.46 428.99a336.23 336.23 0 0 1-336.23 336.23 336.23 336.23 0 0 1-336.23-336.23 336.23 336.23 0 0 1 336.23-336.23 336.23 336.23 0 0 1 336.23 336.23z" fill="#d85e9c" stop-color="#000000" stroke-width="32.671"/><path d="m701.45 336.23a336.23 336.23 0 0 1-336.23 336.23 336.23 336.23 0 0 1-336.23-336.23 336.23 336.23 0 0 1 336.23-336.23 336.23 336.23 0 0 1 336.23 336.23z" fill="#7c1228" stop-color="#000000" stroke-width="32.671"/><path d="m336.23 92.754a336.23 336.23 0 0 0-302.83 191.03 336.23 336.23 0 0 0-4.4158 52.446 336.23 336.23 0 0 0 336.23 336.23 336.23 336.23 0 0 0 302.83-191.03 336.23 336.23 0 0 0 4.4158-52.446 336.23 336.23 0 0 0-336.23-336.23z" fill="#690718" stop-color="#000000" stroke-width="32.671"/>
<path d="m436.51 7.7446a336.23 336.23 0 0 0-308.98 334.28 336.23 336.23 0 0 0 267.63 328.29 336.23 336.23 0 0 0 306.28-334.09 336.23 336.23 0 0 0-264.93-328.49z" fill="#67000e" stop-color="#000000" stroke-width="32.671"/><path d="m336.23 92.754a336.23 336.23 0 0 0-120.86 23.37 336.23 336.23 0 0 0-87.84 225.91 336.23 336.23 0 0 0 336.23 336.23 336.23 336.23 0 0 0 120.86-23.37 336.23 336.23 0 0 0 87.84-225.91 336.23 336.23 0 0 0-336.23-336.23z" fill="#570009" stop-color="#000000" stroke-width="32.671"/><g transform="matrix(8.1183 0 0 8.1183 126.79 77.059)" fill="#fff"><path class="st0" d="m42 61.8c0-0.4 0.4-0.7 0.8-0.7s0.7 0.4 0.7 0.8l-0.3 3.4c0 0.5-0.5 0.9-1 0.9l-7.4-0.6c-0.5 0-0.9-0.5-0.9-1s0.5-0.9 1-0.9l6.8 0.6z"/><path class="st0" d="m37 58c-0.1 0.4-0.5 0.7-0.9 0.7-0.4-0.1-0.7-0.4-0.7-0.8 0-0.5 0-0.8 0.1-1.4 0.5-3.1 2.6-3.3 4.6-3l3.3 0.5c0.6 0.1 1 0.6 0.9 1.2-0.1 0.4-0.3 0.7-0.6 0.8v0.1c0.5 0.5 0.4 1.5 0.3 1.8-0.2 1.6-1.1 2.5-2.7 2.3-1.9-0.3-2.4-1.5-2.2-3.1 0.1-0.8 0.3-1.2 0.6-1.6v-0.1c-2.1-0.3-2.5 0.7-2.6 2zm5.2-2.1-1.2-0.2-0.1 0.8c-0.2 1.3 0.2 1.5 0.6 1.6 0.3 0 0.9 0 1-0.8 0-0.4 0-1-0.3-1.4z"/><path class="st0" d="m45.9 43.5h0.3c0.5 0.1 0.7 0.6 0.6 1.1-0.1 0.4-0.4 0.6-0.8 0.6l-2 0.2c0 0.2-0.1 0.4-0.1 0.6l-0.3 1 1.4 0.4c0.5 0.2 0.9 0.7 0.7 1.2s-0.7 0.9-1.2 0.7l-7.6-2.1c-0.5-0.2-0.9-0.7-0.7-1.2l0.6-2c0.8-2.7 2.5-3 4.7-2.4 1.4 0.4 2.4 1 2.7 2.1h0.1zm-5-0.1c-2.2-0.6-2.5 0.3-2.7 1.2l-0.2 0.9 4.2 1.2 0.2-0.8c0.2-1 0.4-1.9-1.5-2.5z"/><path class="st0" d="m37 37c0.2-0.6 0.8-1 1.4-0.8s0.9 0.9 0.7 1.5-0.8 1-1.4 0.8c-0.7-0.2-0.9-0.9-0.7-1.5zm3.2 2.2c-0.6-0.2-0.9-0.8-0.7-1.4s0.8-0.9 1.4-0.7l6.5 2.1c0.6 0.2 0.9 0.8 0.7 1.4s-0.8 0.9-1.4 0.7z"/><path class="st0" d="m44.7 36.2c-1.9-0.7-4.1-2.4-3-5.3s3.8-2.7 5.7-2 4 2.4 3 5.3c-1.1 2.9-3.8 2.7-5.7 2zm2-5.2c-1.3-0.5-2.8-0.7-3.3 0.6s0.8 2.1 2.1 2.6 2.8 0.7 3.3-0.6-0.8-2.1-2.1-2.6z"/><path class="st0" d="m42.1 23.3c0.3-0.6 0.9-1 1.5-0.7s0.8 1 0.5 1.6-0.9 1-1.5 0.7-0.7-1-0.5-1.6zm10.2 5.6-7.1-3.1c-0.6-0.2-0.8-0.9-0.6-1.5s0.9-0.8 1.5-0.6l6.5 2.8c2.4 1.1 4.1 2.2 3.1 4.6l-0.2 0.4c-0.2 0.5-0.8 0.7-1.3 0.5s-0.7-0.8-0.5-1.3c0.3-0.6 0-1.2-1.4-1.8z"/><path class="st0" d="m48 20.7c-0.2 0.4-0.7 0.6-1.1 0.4s-0.6-0.6-0.5-1c0.1-0.5 0.3-0.9 0.5-1.5 1.4-3.1 3.7-2.6 5.7-1.7l3.3 1.4c0.6 0.3 0.8 0.9 0.6 1.5-0.2 0.4-0.5 0.6-0.9 0.7v0.1c0.3 0.7-0.1 1.7-0.2 2-0.7 1.6-1.9 2.2-3.5 1.5-1.9-0.8-2.1-2.2-1.4-3.8 0.4-0.8 0.7-1.2 1-1.4l0.1-0.1c-2.1-0.9-2.8 0-3.3 1.3zm6-0.6-1.2-0.5-0.3 0.8c-0.6 1.3-0.3 1.7 0.2 1.8 0.3 0.1 0.9 0.2 1.2-0.5 0.1-0.5 0.2-1.1 0.1-1.6z"/></g><g transform="matrix(7.204 0 0 7.204 182.69 110.93)" fill="url(#linearGradient1205)">
		<path class="st0" d="m29.4 13.3v-0.8h-21.9c-3 0-5.5-2.5-5.5-5.5s2.5-5.5 5.5-5.5h32.1c3 0 5.5 2.5 5.5 5.5 0 1.5419 0.12994 3.5357-0.6 4.8l-1.4 2.5c-7.4 13.5-15.6 34.6-17.3 49.3-0.5 3.6-3.3 6.3-6.9 6.3-3.9 0-6.8-3-6.8-6.8 0-0.5 0-0.8 0.1-1.5 2.1-13.2 10.4-34.9 17.2-48.3z" fill="url(#linearGradient3014)"/>
	</g><path d="m668.27 480.28a336.23 336.23 0 0 1-272.49 190.18 336.23 336.23 0 0 0 67.98 7.8012 336.23 336.23 0 0 0 120.86-23.37 336.23 336.23 0 0 0 83.65-174.62z" fill="#b30236" stop-color="#000000" stroke-width="32.671"/></svg>
