<svg width="341.95pt" height="349.13pt" version="1.1" viewBox="0 0 341.95 349.13" xmlns="http://www.w3.org/2000/svg">
 <defs>
  <linearGradient id="a" x1="164.99" x2="506.94" y1="243.18" y2="243.18" gradientUnits="userSpaceOnUse">
   <stop stop-color="#d00100" offset="0"/>
   <stop stop-color="#e00001" offset=".5"/>
   <stop stop-color="#ff0600" offset="1"/>
  </linearGradient>
 </defs>
 <g transform="translate(-164.99 -68.61)" fill="url(#a)">
  <path d="m268.48 68.61h169.97l0.06 44.052-84.097 203.87h-58.843l83.01-200.81h-58.315v37.885h-51.785z"/>
  <path transform="scale(.75)" d="m225.52 434.35c-9.1237 5.5572-5.8824 16.381 1.8867 23.588 40.48 36.893 86.481 69.294 138.88 86.641 29.626 8.0445 55.06 12.631 81.676 12.406 28.196 0.0107 58.287-5.1148 81.678-12.406 52.4-17.347 98.399-49.747 138.88-86.641 7.6905-6.8066 11.01-18.031 1.8867-23.588-4.3201-2.4942-10.547 2.3077-15.16 4.7344-72.018 38.059-135.33 66.719-207.28 67.062-73.466-1.3522-153.69-33.108-207.28-67.062-4.7766-2.7578-10.235-7.5101-15.16-4.7344z" stroke-width="1.3333"/>
 </g>
</svg>
