<svg width="772.43" height="800" version="1.1" viewBox="0 0 204.37 211.67" xmlns="http://www.w3.org/2000/svg">
 <link rel="stylesheet" type="text/css"/>
 <link rel="stylesheet" type="text/css"/>
 <style lang="en" type="text/css"/>
 <style lang="en" type="text/css"/>
 <style lang="en" type="text/css"/>
 <path d="m178.75 210.31c-2.5882 1.0111-9.9185 1.3564-15.252 1.3564-89.979 0-163.5-73.979-163.5-164.5 0-7.2591 0.47734-13.336 1.3956-20.353 0.74376-5.892 6.0274-9.7192 11.823-12.001 29.891-11.77 114.94-17.092 190.88-13.902 1.7908 79.508-5.5609 170.01-11.563 192.26-2.1503 8.0174-6.2232 14.283-13.788 17.138" fill="#cd202c" fill-rule="evenodd" stroke-width="10.092"/>
 <path d="m133.24 128.83c0 10.919-8.5336 19.456-19.456 19.456-10.922 0-19.46-8.5372-19.46-19.456 0-10.93 8.5372-19.655 19.46-19.655 10.922 0 19.456 8.7259 19.456 19.655m-2.0008-59.977c0 10.335-7.3232 17.872-17.455 17.872-10.118 0-17.676-7.5368-17.676-17.872 0-10.114 7.5582-17.854 17.676-17.854 10.132 0 17.455 7.7397 17.455 17.854m27.797 60.369c0-17.277-10.104-26.58-17.85-31.778 7.1274-4.945 15.882-14.28 15.882-29.371 0-25.028-19.655-40.283-43.284-40.283-23.618 0-43.501 15.255-43.501 40.283 0 15.091 8.7544 24.426 15.91 29.371-7.7361 5.1978-17.676 14.5-17.676 31.778 0 27.406 20.271 42.277 45.267 42.277 25.017 0 45.253-14.871 45.253-42.277" fill="#fff" fill-rule="evenodd" stroke-width="10.092"/>
</svg>
