<svg width="580.42pt" height="599.99pt" version="1.1" viewBox="0 0 580.42 599.99" xmlns="http://www.w3.org/2000/svg">
 <g transform="matrix(2.1116 0 0 2.1116 -341.02 -113.24)">
  <path d="m371 53.63c22.662 0.07141 43.633 0.45087 64.62 1.75 0.6496 13.893 0.70405 27.533 0.75207 40.506-1.6975 67.238-3.9543 133.44-12.762 198.62-2.1 10.3-2.87 21.33-8.74 30.39-3.1 5.48-8.54 9.27-14.4 11.3-3.3131 1.2584-12.308 1.5701-18.652 1.5701 0 0-10.014-0.0286-14.798-0.55014-43.757-5.0573-90.943-23.189-121.33-46.92-27.79-22.09-50.3-50.83-64.73-83.3-7.009-15.71-12.203-32.26-15.347-49.179-2.3794-14.161-4.0417-26.729-4.1147-39.839 0.49815-8.7755 0.7907-16.927 1.7099-25.018 0.51737-4.4013 1.6646-8.6366 4.8014-11.974 5.22-5.15 12.29-7.75 19.16-9.87 57.667-14.348 109.55-17.49 183.83-17.49z" fill="#af0917"/>
 </g>
 <path d="m323.14 79.129c-67.674 0-122.63 50.893-122.63 113.55 0 32.797 15.21 62.184 39.242 82.896-27.737 21.855-45.374 54.512-45.374 90.878 0 65.803 57.691 118.99 128.76 118.99 71.072 0 128.61-53.189 128.61-118.99 0-36.397-17.592-69.022-45.374-90.878 24.069-20.716 39.242-50.071 39.242-82.896 0-62.657-54.803-113.55-122.48-113.55zm-0.61317 68.928c27.326 0 49.513 21.613 49.513 48.249 0 26.637-22.188 48.249-49.513 48.249-27.326 0-49.359-21.613-49.359-48.249 0-26.637 22.035-48.249 49.359-48.249zm-0.76646 161.08c29.874 0 54.111 24.248 54.111 54.235s-24.24 54.418-54.111 54.418c-29.874 0-53.959-24.429-53.959-54.418 0-29.987 24.085-54.235 53.959-54.235z" fill="#fff" stroke-width="2.5452"/>
</svg>
