<!DOCTYPE svg  PUBLIC '-//W3C//DTD SVG 1.1//EN'  'http://www.w3.org/Graphics/SVG/1.1/DTD/svg11.dtd'>
<svg width="380pt" height="324pt" version="1.1" viewBox="0 0 380 324" xmlns="http://www.w3.org/2000/svg">
 <g id="a" fill="#003f7d">
  <path d="m0 0h380v162h-380v-162m166.26 39.14c-10.31 3.51-20.01 9.92-25.85 19.28-7.52 12.14-7.71 28.43-0.62 40.8 5.67 9.77 15.53 16.5 26.05 20.15 15.76 5.55 33.12 4.46 49.05 0.2 6.69-1.69 12.94-4.75 19.66-6.32-4.88-7.31-9.66-14.68-14.48-22.02-2.25 2.39-4.81 4.6-7.96 5.69-6.79 2.51-13.96 4.15-21.18 4.7-8.72 0.07-18.02-1.95-24.69-7.88-6.66-5.89-8.02-16.48-3.73-24.13 3.17-5.66 9.16-9.08 15.23-10.84 10-2.86 20.74-1.97 30.69 0.66 4.21 0.99 7.94 3.35 10.8 6.58 4.14-7.66 8.31-15.29 12.49-22.92-7.29-1.56-14.18-4.65-21.58-5.78-14.5-2.39-29.8-3.04-43.88 1.83m-124.33-0.63c0.54 4.48 0.34 9 0.36 13.5 0.01 20.64-0.02 41.29 0.01 61.94 0.01 2.07-0.17 4.14-0.36 6.21 25.35-0.01 50.71 0.01 76.07-0.01 1.89 0.01 3.77 0.18 5.65 0.39-0.06-6.56-0.03-13.13-0.03-19.69-4.5 0.55-9.04 0.35-13.57 0.37h-44.48c-0.02-18.75 0.01-37.5-0.02-56.25-0.01-2.16 0.17-4.32 0.35-6.47-7.99 0.03-15.99 0.01-23.98 0.01m217.8-0.01c0.54 4.81 0.32 9.65 0.35 14.48 0.01 20.34-0.01 40.69 0.01 61.04 0 2.05-0.18 4.1-0.37 6.15 8.01-0.02 16.01-0.03 24.02 0-0.82-9.96-0.17-19.98-0.38-29.97 9.54-0.03 19.09 0.05 28.63-0.03 8.17-0.06 16.76-2.56 22.45-8.69 8.63-9.09 8.64-24.8 0.16-33.99-5.66-6.27-14.33-8.88-22.58-8.95-17.43-0.08-34.86 0.02-52.29-0.04m-202.48 95.13c-1.8 4.86-3.66 9.69-5.53 14.52 1.29-0.01 2.58-0.01 3.87 0 0.23-0.77 0.68-2.29 0.91-3.06 2.22-0.03 4.45-0.14 6.68-0.1 0.4 1.05 0.81 2.1 1.21 3.15 1.45 0 2.91 0 4.36 0.02-1.98-4.84-3.98-9.66-5.88-14.53h-5.62m109.13 1.66c-1.74-0.03-3.49-0.04-5.23-0.06 0 4.04 0 8.09 0.01 12.13 4.18-0.03 8.36-0.03 12.53 0v-2.44c-2.95 0.01-5.9 0.01-8.85 0.01v-2.73c2 0 4 0.01 5.99 0.02v-2.33c-2 0-3.99 0.01-5.99 0.01 0-0.56 0-1.67 0.01-2.23h8.89c-0.02-0.56-0.07-1.69-0.1-2.25-1.96-0.6-3.85-1.44-5.91-1.58-0.34 0.36-1.01 1.09-1.35 1.45m31.36-1.66c0.01 4.84 0.01 9.68 0 14.52h3.71c-0.01-3.16-0.01-6.32-0.01-9.47 2.85 3.16 5.78 6.26 8.61 9.45 0.8 0.01 2.41 0.02 3.21 0.02-0.02-4.84-0.02-9.67 0-14.51-0.93 0-2.78-0.01-3.71-0.01v8.19c-2.5-2.68-4.99-5.38-7.35-8.18-1.49-0.01-2.98-0.01-4.46-0.01m-126.73 3.51c-1.8 1.7-0.67 4.86 1.8 5.06 2.11 0.98 6.06-0.32 6.34 2.78-2.88 0.4-5.79 0.05-8.48-1.05-0.25 0.87-0.5 1.75-0.75 2.63 3.5 0.68 7.36 1.94 10.77 0.25 2.3-0.96 2.8-4.73 0.32-5.77-2.38-0.96-5.03-0.88-7.43-1.76 1.12-2.9 5.34-1.1 7.61-0.58 0.31-0.66 0.93-1.96 1.24-2.62-3.73-0.55-8.39-1.98-11.42 1.06m15.03 0.02c-1.74 1.66-0.69 4.79 1.74 5.01 2.12 1.01 6.17-0.32 6.38 2.85-2.87 0.33-5.75 0-8.43-1.09-0.26 0.88-0.51 1.76-0.75 2.64 3.68 0.7 7.97 2.14 11.39-0.17 2.16-1.43 1.63-5.19-1.04-5.65-2.14-1.1-6.09 0.28-6.6-2.77 2.55-0.4 5.11-0.16 7.53 0.71 0.31-0.65 0.92-1.96 1.23-2.61-3.74-0.56-8.42-1.98-11.45 1.08m14.07-1.92c0.01 4.04 0.01 8.07 0 12.11 4.19-0.01 8.39-0.02 12.58 0.01-0.07-0.82-0.1-1.65-0.1-2.47-2.92 0.04-5.85 0.04-8.78 0.04-0.01-0.91-0.02-1.81-0.03-2.72 2.01-0.01 4.01 0 6.01 0v-2.33c-1.99 0.01-3.98 0.01-5.96 0.02-0.03-0.73-0.06-1.45-0.09-2.18 2.97-0.06 5.94-0.06 8.92-0.05 0-0.6 0.01-1.82 0.01-2.42-4.19 0-8.37 0.01-12.56-0.01m15.53-0.04c0.01 4.05 0.01 8.1 0 12.14 0.73 0.01 2.19 0.01 2.92 0.01 0-2.9 0-5.8 0.01-8.71 1.34 2.66 2.67 5.34 4.01 8 1.37-2.67 2.75-5.34 4.14-8 0.01 2.9 0.01 5.8 0 8.71 0.83-0.01 2.48-0.01 3.31-0.01-0.02-4.03-0.02-8.06 0-12.09h-4.57c-0.91 1.79-1.83 3.58-2.77 5.36-0.83-1.75-1.63-3.51-2.41-5.27-1.55-0.05-3.1-0.09-4.64-0.14m17.49 0.04c0.01 4.03 0.01 8.07 0 12.1 3.51-0.18 7.17 0.51 10.58-0.55 2.67-1.09 2.08-4.53 0.17-6.04 1.35-1.38 2.02-4.31-0.26-5.13-3.44-0.71-7-0.27-10.49-0.38m14.81 0.01c0 4.04-0.01 8.07 0.04 12.11 3.6-0.02 7.19-0.03 10.79 0 0-0.95 0.01-1.89 0.01-2.83-2.38 0.01-4.77 0.01-7.15 0.01-0.01-3.1-0.01-6.2 0.01-9.3-1.24 0-2.47 0.01-3.7 0.01m28.79-0.07c-0.06 4.06-0.05 8.11-0.04 12.16 4.18 0 8.36 0 12.54 0.01-0.01-0.61-0.01-1.82-0.02-2.43-2.95 0.01-5.9 0.01-8.85 0 0-0.68 0-2.04 0.01-2.71 1.99-0.01 3.99 0 5.99 0v-2.31c-2.03-0.01-4.05-0.02-6.07-0.05 0.03-0.55 0.1-1.64 0.14-2.19 2.93 0.01 5.86 0.01 8.8 0.01v-2.43c-4.16 0.01-8.33 0.04-12.5-0.06m44.35 0.06c-1.75 4.05-3.57 8.06-5.35 12.09 0.79 0.01 2.35 0.02 3.14 0.02 0.3-0.61 0.89-1.84 1.19-2.45 2.1-0.01 4.2-0.01 6.3-0.01 0.41 0.82 0.81 1.65 1.22 2.47 0.89-0.01 2.67-0.03 3.57-0.03-1.86-4.04-3.83-8.03-5.65-12.08-1.47 0-2.95 0-4.42-0.01m9.96 0.11c0 0.71 0 2.13 0.01 2.84 1.58-0.01 3.16-0.02 4.75-0.02 0 3.09 0 6.19-0.01 9.29 0.92 0 2.77 0.01 3.7 0.01-0.01-3.1-0.01-6.2-0.01-9.29 1.58 0 3.16-0.01 4.74-0.01 0.01-0.93 0.02-1.87 0.03-2.8-4.4 0-8.81 0.01-13.21-0.02m26.38 0.27c-3.21 0.71-5.52 4.15-4.52 7.39 1.79 6.64 13.78 6.1 14.43-0.99 0.63-5.21-5.63-7.89-9.91-6.4m33.65-0.38c-1.75 4.05-3.58 8.05-5.34 12.09 0.78 0.01 2.34 0.02 3.12 0.03 0.3-0.62 0.9-1.85 1.19-2.46 2.1-0.01 4.2-0.01 6.31-0.01 0.4 0.82 0.81 1.65 1.22 2.47 0.89-0.01 2.67-0.02 3.57-0.03-1.86-4.04-3.83-8.02-5.65-12.07-1.47-0.01-2.95-0.01-4.42-0.02m25.74 0.01c0.02 4.03 0.02 8.06 0 12.09 4.19 0 8.37 0 12.56 0.01-0.01-0.61-0.02-1.82-0.02-2.43-2.96 0.01-5.91 0.01-8.86-0.01 0-0.68 0.01-2.03 0.02-2.7 1.99-0.01 3.99 0 5.99 0 0-0.58 0-1.73-0.01-2.3-2.03-0.01-4.05-0.04-6.08-0.07 0.04-0.54 0.12-1.63 0.16-2.17h8.8v-2.42h-12.56m-70.2 0c0.02 4.03 0.01 8.06 0.01 12.1 0.92 0 2.77-0.01 3.69-0.01-0.02-4.03-0.02-8.06 0.01-12.09h-3.71m23.12 0c0.02 4.03 0.02 8.06 0.01 12.09h3.31c-0.01-2.71-0.02-5.41-0.02-8.11 2.59 2.64 4.89 5.59 7.71 7.99 0.62 0.07 1.87 0.2 2.5 0.27 0-4.08-0.01-8.16 0.01-12.24h-3.32c0.01 2.08 0.01 4.15 0.01 6.23-1.94-2.04-3.87-4.1-5.71-6.23h-4.5m33.87 0c0.02 4.03 0.01 8.06 0 12.1 3.61-0.01 7.23-0.01 10.84 0 0-0.7 0.01-2.11 0.01-2.82-2.39 0.01-4.77 0.01-7.15 0.01-0.01-3.09-0.01-6.19 0.01-9.29h-3.71z"/>
  <path d="m283.36 55.9c8.22 0.02 16.45-0.07 24.67 0.04 3.62 0.14 7.92 0.61 10.22 3.8 3.28 5.11 0.22 13.03-6.17 13.52-9.52 1.06-19.15 0.22-28.72 0.48v-17.84z"/>
  <path d="m57.35 142.8c0.81-2.19 1.62-4.38 2.45-6.56 0.9 2.18 1.79 4.37 2.67 6.56h-5.12z"/>
  <path d="m136.87 137.46c1.79 0.39 6.18-0.79 4.82 2.41-1.61 0.39-3.27 0.32-4.9 0.35l0.08-2.76z"/>
  <path d="m220.9 142.92c0.74-1.82 1.5-3.63 2.26-5.44 0.77 1.81 1.55 3.62 2.31 5.44-1.53-0.01-3.05 0-4.57 0z"/>
  <path d="m258.42 138.44c2.34-1.05 5.86 0.63 5.33 3.5-0.46 3.49-6.16 3.81-7.32 0.62-0.6-1.63 0.3-3.61 1.99-4.12z"/>
  <path d="m290.89 142.92c0.75-1.83 1.5-3.65 2.26-5.47 0.77 1.82 1.54 3.64 2.3 5.47-1.52-0.01-3.04-0.01-4.56 0z"/>
  <path d="m136.82 145.13c0.01-1.05 0.01-2.1 0.01-3.15 1.8 0.18 6.56-0.61 4.91 2.6-1.56 0.59-3.28 0.39-4.92 0.55z"/>
 </g>
 <g id="b" fill="#fff">
  <path d="m166.26 39.14c14.08-4.87 29.38-4.22 43.88-1.83 7.4 1.13 14.29 4.22 21.58 5.78-4.18 7.63-8.35 15.26-12.49 22.92-2.86-3.23-6.59-5.59-10.8-6.58-9.95-2.63-20.69-3.52-30.69-0.66-6.07 1.76-12.06 5.18-15.23 10.84-4.29 7.65-2.93 18.24 3.73 24.13 6.67 5.93 15.97 7.95 24.69 7.88 7.22-0.55 14.39-2.19 21.18-4.7 3.15-1.09 5.71-3.3 7.96-5.69 4.82 7.34 9.6 14.71 14.48 22.02-6.72 1.57-12.97 4.63-19.66 6.32-15.93 4.26-33.29 5.35-49.05-0.2-10.52-3.65-20.38-10.38-26.05-20.15-7.09-12.37-6.9-28.66 0.62-40.8 5.84-9.36 15.54-15.77 25.85-19.28z"/>
  <path d="m41.93 38.51c7.99 0 15.99 0.02 23.98-0.01-0.18 2.15-0.36 4.31-0.35 6.47 0.03 18.75 0 37.5 0.02 56.25h44.48c4.53-0.02 9.07 0.18 13.57-0.37 0 6.56-0.03 13.13 0.03 19.69-1.88-0.21-3.76-0.38-5.65-0.39-25.36 0.02-50.72 0-76.07 0.01 0.19-2.07 0.37-4.14 0.36-6.21-0.03-20.65 0-41.3-0.01-61.94-0.02-4.5 0.18-9.02-0.36-13.5z"/>
  <path d="m259.73 38.5c17.43 0.06 34.86-0.04 52.29 0.04 8.25 0.07 16.92 2.68 22.58 8.95 8.48 9.19 8.47 24.9-0.16 33.99-5.69 6.13-14.28 8.63-22.45 8.69-9.54 0.08-19.09 0-28.63 0.03 0.21 9.99-0.44 20.01 0.38 29.97-8.01-0.03-16.01-0.02-24.02 0 0.19-2.05 0.37-4.1 0.37-6.15-0.02-20.35 0-40.7-0.01-61.04-0.03-4.83 0.19-9.67-0.35-14.48m23.63 17.4v17.84c9.57-0.26 19.2 0.58 28.72-0.48 6.39-0.49 9.45-8.41 6.17-13.52-2.3-3.19-6.6-3.66-10.22-3.8-8.22-0.11-16.45-0.02-24.67-0.04z"/>
  <path d="m57.25 133.63h5.62c1.9 4.87 3.9 9.69 5.88 14.53-1.45-0.02-2.91-0.02-4.36-0.02-0.4-1.05-0.81-2.1-1.21-3.15-2.23-0.04-4.46 0.07-6.68 0.1-0.23 0.77-0.68 2.29-0.91 3.06-1.29-0.01-2.58-0.01-3.87 0 1.87-4.83 3.73-9.66 5.53-14.52m0.1 9.17h5.12c-0.88-2.19-1.77-4.38-2.67-6.56-0.83 2.18-1.64 4.37-2.45 6.56z"/>
  <path d="m166.38 135.29c0.34-0.36 1.01-1.09 1.35-1.45 2.06 0.14 3.95 0.98 5.91 1.58 0.03 0.56 0.08 1.69 0.1 2.25h-8.89c-0.01 0.56-0.01 1.67-0.01 2.23 2 0 3.99-0.01 5.99-0.01v2.33c-1.99-0.01-3.99-0.02-5.99-0.02v2.73c2.95 0 5.9 0 8.85-0.01v2.44c-4.17-0.03-8.35-0.03-12.53 0-0.01-4.04-0.01-8.09-0.01-12.13 1.74 0.02 3.49 0.03 5.23 0.06z"/>
  <path d="m197.74 133.63c1.48 0 2.97 0 4.46 0.01 2.36 2.8 4.85 5.5 7.35 8.18v-8.19c0.93 0 2.78 0.01 3.71 0.01-0.02 4.84-0.02 9.67 0 14.51-0.8 0-2.41-0.01-3.21-0.02-2.83-3.19-5.76-6.29-8.61-9.45 0 3.15 0 6.31 0.01 9.47h-3.71c0.01-4.84 0.01-9.68 0-14.52z"/>
  <path d="m71.01 137.14c3.03-3.04 7.69-1.61 11.42-1.06-0.31 0.66-0.93 1.96-1.24 2.62-2.27-0.52-6.49-2.32-7.61 0.58 2.4 0.88 5.05 0.8 7.43 1.76 2.48 1.04 1.98 4.81-0.32 5.77-3.41 1.69-7.27 0.43-10.77-0.25 0.25-0.88 0.5-1.76 0.75-2.63 2.69 1.1 5.6 1.45 8.48 1.05-0.28-3.1-4.23-1.8-6.34-2.78-2.47-0.2-3.6-3.36-1.8-5.06z"/>
  <path d="m86.04 137.16c3.03-3.06 7.71-1.64 11.45-1.08-0.31 0.65-0.92 1.96-1.23 2.61-2.42-0.87-4.98-1.11-7.53-0.71 0.51 3.05 4.46 1.67 6.6 2.77 2.67 0.46 3.2 4.22 1.04 5.65-3.42 2.31-7.71 0.87-11.39 0.17 0.24-0.88 0.49-1.76 0.75-2.64 2.68 1.09 5.56 1.42 8.43 1.09-0.21-3.17-4.26-1.84-6.38-2.85-2.43-0.22-3.48-3.35-1.74-5.01z"/>
  <path d="m100.11 135.24c4.19 0.02 8.37 0.01 12.56 0.01 0 0.6-0.01 1.82-0.01 2.42-2.98-0.01-5.95-0.01-8.92 0.05 0.03 0.73 0.06 1.45 0.09 2.18 1.98-0.01 3.97-0.01 5.96-0.02v2.33c-2 0-4-0.01-6.01 0 0.01 0.91 0.02 1.81 0.03 2.72 2.93 0 5.86 0 8.78-0.04 0 0.82 0.03 1.65 0.1 2.47-4.19-0.03-8.39-0.02-12.58-0.01 0.01-4.04 0.01-8.07 0-12.11z"/>
  <path d="m115.64 135.2c1.54 0.05 3.09 0.09 4.64 0.14 0.78 1.76 1.58 3.52 2.41 5.27 0.94-1.78 1.86-3.57 2.77-5.36h4.57c-0.02 4.03-0.02 8.06 0 12.09-0.83 0-2.48 0-3.31 0.01 0.01-2.91 0.01-5.81 0-8.71-1.39 2.66-2.77 5.33-4.14 8-1.34-2.66-2.67-5.34-4.01-8-0.01 2.91-0.01 5.81-0.01 8.71-0.73 0-2.19 0-2.92-0.01 0.01-4.04 0.01-8.09 0-12.14z"/>
  <path d="m133.13 135.24c3.49 0.11 7.05-0.33 10.49 0.38 2.28 0.82 1.61 3.75 0.26 5.13 1.91 1.51 2.5 4.95-0.17 6.04-3.41 1.06-7.07 0.37-10.58 0.55 0.01-4.03 0.01-8.07 0-12.1m3.74 2.22-0.08 2.76c1.63-0.03 3.29 0.04 4.9-0.35 1.36-3.2-3.03-2.02-4.82-2.41m-0.05 7.67c1.64-0.16 3.36 0.04 4.92-0.55 1.65-3.21-3.11-2.42-4.91-2.6 0 1.05 0 2.1-0.01 3.15z"/>
  <path d="m147.94 135.25c1.23 0 2.46-0.01 3.7-0.01-0.02 3.1-0.02 6.2-0.01 9.3 2.38 0 4.77 0 7.15-0.01 0 0.94-0.01 1.88-0.01 2.83-3.6-0.03-7.19-0.02-10.79 0-0.05-4.04-0.04-8.07-0.04-12.11z"/>
  <path d="m176.73 135.18c4.17 0.1 8.34 0.07 12.5 0.06v2.43c-2.94 0-5.87 0-8.8-0.01-0.04 0.55-0.11 1.64-0.14 2.19 2.02 0.03 4.04 0.04 6.07 0.05v2.31c-2 0-4-0.01-5.99 0-0.01 0.67-0.01 2.03-0.01 2.71 2.95 0.01 5.9 0.01 8.85 0 0.01 0.61 0.01 1.82 0.02 2.43-4.18-0.01-8.36-0.01-12.54-0.01-0.01-4.05-0.02-8.1 0.04-12.16z"/>
  <path d="m221.08 135.24c1.47 0.01 2.95 0.01 4.42 0.01 1.82 4.05 3.79 8.04 5.65 12.08-0.9 0-2.68 0.02-3.57 0.03-0.41-0.82-0.81-1.65-1.22-2.47-2.1 0-4.2 0-6.3 0.01-0.3 0.61-0.89 1.84-1.19 2.45-0.79 0-2.35-0.01-3.14-0.02 1.78-4.03 3.6-8.04 5.35-12.09m-0.18 7.68c1.52 0 3.04-0.01 4.57 0-0.76-1.82-1.54-3.63-2.31-5.44-0.76 1.81-1.52 3.62-2.26 5.44z"/>
  <path d="m231.04 135.35c4.4 0.03 8.81 0.02 13.21 0.02-0.01 0.93-0.02 1.87-0.03 2.8-1.58 0-3.16 0.01-4.74 0.01 0 3.09 0 6.19 0.01 9.29-0.93 0-2.78-0.01-3.7-0.01 0.01-3.1 0.01-6.2 0.01-9.29-1.59 0-3.17 0.01-4.75 0.02-0.01-0.71-0.01-2.13-0.01-2.84z"/>
  <path d="m257.42 135.62c4.28-1.49 10.54 1.19 9.91 6.4-0.65 7.09-12.64 7.63-14.43 0.99-1-3.24 1.31-6.68 4.52-7.39m1 2.82c-1.69 0.51-2.59 2.49-1.99 4.12 1.16 3.19 6.86 2.87 7.32-0.62 0.53-2.87-2.99-4.55-5.33-3.5z"/>
  <path d="m291.07 135.24c1.47 0.01 2.95 0.01 4.42 0.02 1.82 4.05 3.79 8.03 5.65 12.07-0.9 0.01-2.68 0.02-3.57 0.03-0.41-0.82-0.82-1.65-1.22-2.47-2.11 0-4.21 0-6.31 0.01-0.29 0.61-0.89 1.84-1.19 2.46-0.78-0.01-2.34-0.02-3.12-0.03 1.76-4.04 3.59-8.04 5.34-12.09m-0.18 7.68c1.52-0.01 3.04-0.01 4.56 0-0.76-1.83-1.53-3.65-2.3-5.47-0.76 1.82-1.51 3.64-2.26 5.47z"/>
  <path d="m316.81 135.25h12.56v2.42h-8.8c-0.04 0.54-0.12 1.63-0.16 2.17 2.03 0.03 4.05 0.06 6.08 0.07 0.01 0.57 0.01 1.72 0.01 2.3-2 0-4-0.01-5.99 0-0.01 0.67-0.02 2.02-0.02 2.7 2.95 0.02 5.9 0.02 8.86 0.01 0 0.61 0.01 1.82 0.02 2.43-4.19-0.01-8.37-0.01-12.56-0.01 0.02-4.03 0.02-8.06 0-12.09z"/>
  <path d="m246.61 135.25h3.71c-0.03 4.03-0.03 8.06-0.01 12.09-0.92 0-2.77 0.01-3.69 0.01 0-4.04 0.01-8.07-0.01-12.1z"/>
  <path d="m269.73 135.25h4.5c1.84 2.13 3.77 4.19 5.71 6.23 0-2.08 0-4.15-0.01-6.23h3.32c-0.02 4.08-0.01 8.16-0.01 12.24-0.63-0.07-1.88-0.2-2.5-0.27-2.82-2.4-5.12-5.35-7.71-7.99 0 2.7 0.01 5.4 0.02 8.11h-3.31c0.01-4.03 0.01-8.06-0.01-12.09z"/>
  <path d="m303.6 135.25h3.71c-0.02 3.1-0.02 6.2-0.01 9.29 2.38 0 4.76 0 7.15-0.01 0 0.71-0.01 2.12-0.01 2.82-3.61-0.01-7.23-0.01-10.84 0 0.01-4.04 0.02-8.07 0-12.1z"/>
  <path d="m26.84 188.42c11.4 0.02 22.8-0.02 34.21 0.01 5.67-0.04 11.7 1.61 15.62 5.95 5.96 6.39 5.64 17.58-0.88 23.48-4.2 3.94-10.19 5.14-15.79 5.03-5.82-0.01-11.64-0.02-17.46-0.01 0.06 6.67-0.18 13.34 0.17 20-5.29-0.06-10.59-0.03-15.89-0.02 0.33-18.14 0.3-36.3 0.02-54.44m15.69 11.59c0.01 3.96 0.01 7.93 0 11.89 6.45-0.18 12.96 0.44 19.38-0.36 4.23-0.46 6.11-5.91 3.73-9.19-1.57-1.94-4.27-2.2-6.59-2.31-5.5-0.12-11.01-0.01-16.52-0.03z"/>
  <path d="m127.79 194.46c4.71 0.02 9.42 0.02 14.14-0.01-0.39 9.18 0.03 18.36-0.23 27.54-0.17 6.27-3.52 12.54-9.26 15.38-7.58 3.74-16.59 3.71-24.69 1.89-7.28-1.59-13.31-7.81-13.95-15.35-0.69-9.8 0.1-19.66-0.43-29.47 4.72 0.05 9.43 0.05 14.14 0-0.36 8.51-0.06 17.02-0.19 25.53-0.01 2.62-0.14 5.74 2.09 7.6 3.24 2.63 7.79 2.59 11.72 2.07 3.34-0.39 6.82-2.84 6.77-6.5 0.08-9.55 0.22-19.12-0.11-28.68z"/>
  <path d="m156.86 194.47c10.33 0.05 20.66-0.08 30.99 0.06 4.53 0.26 10.23 0.47 12.87 4.82 3.22 5.77 0.63 13.38-5.25 16.27 2.63 1.09 5.42 2.45 6.79 5.11 2.62 5.22 1.54 12.64-3.6 15.94-4.91 3.2-11.03 3.19-16.68 3.16-8.38-0.02-16.76-0.02-25.14 0 0.33-15.11 0.29-30.25 0.02-45.36m13.97 8.67c0.01 3.3 0.01 6.59 0.02 9.88 5.26-0.21 10.61 0.52 15.81-0.47 4.41-0.92 4.43-8.61-0.19-9.14-5.18-0.62-10.43-0.15-15.64-0.27m0.01 16.89v11.13c5.47-0.28 11.15 0.76 16.47-0.84 4.57-1.33 4.41-9.04-0.37-9.89-5.32-0.83-10.74-0.23-16.1-0.4z"/>
  <path d="m216.02 194.47c4.72 0 9.44 0.01 14.15 0-0.38 11.61-0.07 23.23-0.17 34.84 10.45-0.09 20.91 0.19 31.35-0.16-0.03 3.61-0.02 7.22-0.02 10.83-15.08-0.34-30.18-0.09-45.27-0.13 0.18-15.12 0.26-30.26-0.04-45.38z"/>
  <path d="m271.76 194.46c4.71 0.02 9.42 0.03 14.14-0.02-0.27 15.14-0.27 30.29 0 45.42-4.72-0.06-9.44-0.04-14.16-0.02 0.33-15.12 0.29-30.26 0.02-45.38z"/>
  <path d="m306.23 200.22c7.01-5.26 16.18-6.71 24.74-6.24 6.68 0.39 13.02 2.66 19.53 3.96-2.07 4.19-4.16 8.36-6.17 12.57-4.2-4.35-10.5-5.65-16.32-5.71-5.44 0.15-11.56 1.78-14.72 6.57-3.33 5.09-1.35 12.57 4.04 15.37 8.82 4.92 21.93 3.34 27.78-5.41 2.76 4.04 5.54 8.07 8.37 12.05-6.28 2.74-12.52 5.92-19.44 6.65-9.61 1.12-20.18-0.12-28.07-6.15-10.4-7.94-10.29-25.89 0.26-33.66z"/>
  <path d="m50.96 248.94c7.2-6.67 17.81-7.26 27.1-6.39 8.05 0.6 15.75 3.15 23.59 4.89-1.97 3.83-3.87 7.69-5.76 11.56-3.53-3.88-8.87-4.83-13.79-5.66-5.35-0.75-10.88-1.24-16.22-0.12-2.11 0.49-4.55 1.42-5.27 3.7-0.36 2.9 3.03 3.73 5.21 4.19 8.98 1.53 18.37 0.99 27.05 4.1 3.83 1.36 7.55 3.83 9.27 7.65 2.5 5.68 1.31 12.84-3.04 17.3-4.23 4.42-10.36 6.3-16.25 7.16-8.11 1.02-16.4 0.65-24.41-0.98-4.79-0.96-9.32-2.85-14.03-4.07 2.05-4.94 4.16-9.85 6.11-14.82 4.09 5.14 10.78 6.83 16.94 7.91 5.61 0.73 11.53 0.95 16.96-0.89 2.64-0.83 5.01-3.35 4.47-6.29-1.74-2.42-5.11-2.4-7.78-2.9-10.07-1.4-21.12-0.8-30.03-6.42-6.81-4.45-5.74-14.94-0.12-19.92z"/>
  <path d="m139.76 244.42c5.34-0.12 10.68-0.04 16.02-0.06l-4.56 4.53c4.02 0.03 8.05 0.07 12.07-0.16-0.02 3.13-0.02 6.27-0.01 9.4-11.06-0.36-22.13-0.07-33.19-0.16v8.35c7.5-0.07 15.01 0.17 22.5-0.17-0.04 3-0.04 6-0.03 9-7.48-0.35-14.98-0.11-22.47-0.17v10.2c11.06-0.08 22.13 0.18 33.19-0.15-0.01 3.13-0.01 6.25 0.01 9.39-15.72-0.39-31.45-0.08-47.18-0.16 0.27-15.12 0.28-30.25 0-45.36 6.91 0.01 13.83 0 20.74 0 0.99-1.48 1.93-2.99 2.91-4.48z"/>
  <path d="m177.75 248.9c5.81 0.01 11.62-0.02 17.43 0.02 6.1 8.52 14.07 15.5 20.98 23.36-0.06-7.8 0.18-15.59-0.16-23.38 4.24 0 8.48 0 12.72-0.01-0.31 15.12-0.29 30.26-0.01 45.37-3.59-0.03-7.19-0.01-10.78-0.03-2.67-4.24-6.39-7.64-9.76-11.29-6.08-6.28-12.12-12.59-17.87-19.16 0.07 10.16-0.2 20.32 0.16 30.48-4.23-0.03-8.47-0.02-12.7-0.01 0.27-15.11 0.29-30.24-0.01-45.35z"/>
  <path d="m246.39 275.35c3.82-8.81 8.16-17.42 11.47-26.45 5.66-0.01 11.32-0.01 16.97 0.01 6.46 15.37 14.24 30.16 21.1 45.36-4.58-0.04-9.17-0.02-13.75-0.03-1.25-3.12-2.71-6.14-4.17-9.17-7.93-0.01-15.87 0.02-23.8-0.01-1.47 3.02-2.91 6.05-4.13 9.18-4.06 0.01-8.11-0.01-12.16 0.02 3.03-6.21 5.58-12.63 8.47-18.91m19.49-18.29c-2.83 6.86-5.63 13.73-8.45 20.59 5.7 0.01 11.4 0.01 17.11 0.01-2.88-6.87-5.75-13.74-8.66-20.6z"/>
  <path d="m293.08 248.7c16.49 0.34 33.01 0.31 49.51 0.02-0.03 3.62-0.03 7.23 0.01 10.85-5.95-0.3-11.91-0.12-17.86-0.16 0.09 11.62-0.2 23.23 0.16 34.84-4.71-0.01-9.43-0.01-14.14 0 0.38-11.61 0.07-23.23 0.17-34.84-5.95 0.05-11.91-0.17-17.86 0.18 0.04-3.63 0.03-7.26 0.01-10.89z"/>
 </g>
 <g id="c" fill="#b51621">
  <path d="m0 162h380v162h-380v-162m26.84 26.42c0.28 18.14 0.31 36.3-0.02 54.44 5.3-0.01 10.6-0.04 15.89 0.02-0.35-6.66-0.11-13.33-0.17-20 5.82-0.01 11.64 0 17.46 0.01 5.6 0.11 11.59-1.09 15.79-5.03 6.52-5.9 6.84-17.09 0.88-23.48-3.92-4.34-9.95-5.99-15.62-5.95-11.41-0.03-22.81 0.01-34.21-0.01m100.95 6.04c0.33 9.56 0.19 19.13 0.11 28.68 0.05 3.66-3.43 6.11-6.77 6.5-3.93 0.52-8.48 0.56-11.72-2.07-2.23-1.86-2.1-4.98-2.09-7.6 0.13-8.51-0.17-17.02 0.19-25.53-4.71 0.05-9.42 0.05-14.14 0 0.53 9.81-0.26 19.67 0.43 29.47 0.64 7.54 6.67 13.76 13.95 15.35 8.1 1.82 17.11 1.85 24.69-1.89 5.74-2.84 9.09-9.11 9.26-15.38 0.26-9.18-0.16-18.36 0.23-27.54-4.72 0.03-9.43 0.03-14.14 0.01m29.07 0.01c0.27 15.11 0.31 30.25-0.02 45.36 8.38-0.02 16.76-0.02 25.14 0 5.65 0.03 11.77 0.04 16.68-3.16 5.14-3.3 6.22-10.72 3.6-15.94-1.37-2.66-4.16-4.02-6.79-5.11 5.88-2.89 8.47-10.5 5.25-16.27-2.64-4.35-8.34-4.56-12.87-4.82-10.33-0.14-20.66-0.01-30.99-0.06m59.16 0c0.3 15.12 0.22 30.26 0.04 45.38 15.09 0.04 30.19-0.21 45.27 0.13 0-3.61-0.01-7.22 0.02-10.83-10.44 0.35-20.9 0.07-31.35 0.16 0.1-11.61-0.21-23.23 0.17-34.84-4.71 0.01-9.43 0-14.15 0m55.74-0.01c0.27 15.12 0.31 30.26-0.02 45.38 4.72-0.02 9.44-0.04 14.16 0.02-0.27-15.13-0.27-30.28 0-45.42-4.72 0.05-9.43 0.04-14.14 0.02m34.47 5.76c-10.55 7.77-10.66 25.72-0.26 33.66 7.89 6.03 18.46 7.27 28.07 6.15 6.92-0.73 13.16-3.91 19.44-6.65-2.83-3.98-5.61-8.01-8.37-12.05-5.85 8.75-18.96 10.33-27.78 5.41-5.39-2.8-7.37-10.28-4.04-15.37 3.16-4.79 9.28-6.42 14.72-6.57 5.82 0.06 12.12 1.36 16.32 5.71 2.01-4.21 4.1-8.38 6.17-12.57-6.51-1.3-12.85-3.57-19.53-3.96-8.56-0.47-17.73 0.98-24.74 6.24m-255.27 48.72c-5.62 4.98-6.69 15.47 0.12 19.92 8.91 5.62 19.96 5.02 30.03 6.42 2.67 0.5 6.04 0.48 7.78 2.9 0.54 2.94-1.83 5.46-4.47 6.29-5.43 1.84-11.35 1.62-16.96 0.89-6.16-1.08-12.85-2.77-16.94-7.91-1.95 4.97-4.06 9.88-6.11 14.82 4.71 1.22 9.24 3.11 14.03 4.07 8.01 1.63 16.3 2 24.41 0.98 5.89-0.86 12.02-2.74 16.25-7.16 4.35-4.46 5.54-11.62 3.04-17.3-1.72-3.82-5.44-6.29-9.27-7.65-8.68-3.11-18.07-2.57-27.05-4.1-2.18-0.46-5.57-1.29-5.21-4.19 0.72-2.28 3.16-3.21 5.27-3.7 5.34-1.12 10.87-0.63 16.22 0.12 4.92 0.83 10.26 1.78 13.79 5.66 1.89-3.87 3.79-7.73 5.76-11.56-7.84-1.74-15.54-4.29-23.59-4.89-9.29-0.87-19.9-0.28-27.1 6.39m88.8-4.52c-0.98 1.49-1.92 3-2.91 4.48-6.91 0-13.83 0.01-20.74 0 0.28 15.11 0.27 30.24 0 45.36 15.73 0.08 31.46-0.23 47.18 0.16-0.02-3.14-0.02-6.26-0.01-9.39-11.06 0.33-22.13 0.07-33.19 0.15v-10.2c7.49 0.06 14.99-0.18 22.47 0.17-0.01-3-0.01-6 0.03-9-7.49 0.34-15 0.1-22.5 0.17v-8.35c11.06 0.09 22.13-0.2 33.19 0.16-0.01-3.13-0.01-6.27 0.01-9.4-4.02 0.23-8.05 0.19-12.07 0.16l4.56-4.53c-5.34 0.02-10.68-0.06-16.02 0.06m37.99 4.48c0.3 15.11 0.28 30.24 0.01 45.35 4.23-0.01 8.47-0.02 12.7 0.01-0.36-10.16-0.09-20.32-0.16-30.48 5.75 6.57 11.79 12.88 17.87 19.16 3.37 3.65 7.09 7.05 9.76 11.29 3.59 0.02 7.19 0 10.78 0.03-0.28-15.11-0.3-30.25 0.01-45.37-4.24 0.01-8.48 0.01-12.72 0.01 0.34 7.79 0.1 15.58 0.16 23.38-6.91-7.86-14.88-14.84-20.98-23.36-5.81-0.04-11.62-0.01-17.43-0.02m68.64 26.45c-2.89 6.28-5.44 12.7-8.47 18.91 4.05-0.03 8.1-0.01 12.16-0.02 1.22-3.13 2.66-6.16 4.13-9.18 7.93 0.03 15.87 0 23.8 0.01 1.46 3.03 2.92 6.05 4.17 9.17 4.58 0.01 9.17-0.01 13.75 0.03-6.86-15.2-14.64-29.99-21.1-45.36-5.65-0.02-11.31-0.02-16.97-0.01-3.31 9.03-7.65 17.64-11.47 26.45m46.69-26.65c0.02 3.63 0.03 7.26-0.01 10.89 5.95-0.35 11.91-0.13 17.86-0.18-0.1 11.61 0.21 23.23-0.17 34.84 4.71-0.01 9.43-0.01 14.14 0-0.36-11.61-0.07-23.22-0.16-34.84 5.95 0.04 11.91-0.14 17.86 0.16-0.04-3.62-0.04-7.23-0.01-10.85-16.5 0.29-33.02 0.32-49.51-0.02z"/>
  <path d="m42.53 200.01c5.51 0.02 11.02-0.09 16.52 0.03 2.32 0.11 5.02 0.37 6.59 2.31 2.38 3.28 0.5 8.73-3.73 9.19-6.42 0.8-12.93 0.18-19.38 0.36 0.01-3.96 0.01-7.93 0-11.89z"/>
  <path d="m170.83 203.14c5.21 0.12 10.46-0.35 15.64 0.27 4.62 0.53 4.6 8.22 0.19 9.14-5.2 0.99-10.55 0.26-15.81 0.47-0.01-3.29-0.01-6.58-0.02-9.88z"/>
  <path d="m170.84 220.03c5.36 0.17 10.78-0.43 16.1 0.4 4.78 0.85 4.94 8.56 0.37 9.89-5.32 1.6-11 0.56-16.47 0.84v-11.13z"/>
  <path d="m265.88 257.06c2.91 6.86 5.78 13.73 8.66 20.6-5.71 0-11.41 0-17.11-0.01 2.82-6.86 5.62-13.73 8.45-20.59z"/>
 </g>
</svg>
