<svg width="600pt" height="503.35pt" version="1.1" viewBox="0 0 600 503.35" xmlns="http://www.w3.org/2000/svg">
 <defs>
  <clipPath id="presentation_clip_path">
   <rect width="31750" height="13100"/>
  </clipPath>
  <linearGradient id="gradient1" x1="15875" x2="15875" y2="13100" gradientUnits="userSpaceOnUse">
   <stop stop-color="#0074ff" offset="0"/>
   <stop stop-color="#0d2381" offset="1"/>
  </linearGradient>
 </defs>
 <g class="SlideGroup" transform="scale(.018898)">
  <g class="Slide" clip-path="url(#presentation_clip_path)">
   <g class="Page">
    <g class="com.sun.star.drawing.PolyPolygonShape">
     <rect class="BoundingBox" x="-1" width="31752" height="13101" fill="none"/>
     <path d="m0 0h31750v13100h-31750z" fill="url(#gradient1)"/>
    </g>
    <g class="com.sun.star.drawing.PolyPolygonShape">
     <rect class="BoundingBox" x="4212" y="10965" width="1358" height="1263" fill="none"/>
     <path d="m5120 11731-224-507-235 507zm-325-766h213l560 1262h-235l-135-302h-616l-134 302h-236z" fill="#fff"/>
    </g>
    <g class="com.sun.star.drawing.ClosedBezierShape">
     <rect class="BoundingBox" x="5668" y="10954" width="1011" height="1296" fill="none"/>
     <path d="m5669 12043 134-161c124 107 247 172 415 172 134 0 224-65 224-172 0-87-45-141-291-194-269-65-426-141-426-367v-11c0-205 179-356 437-356 190 0 336 54 482 162l-124 162c-123-86-246-130-358-130-135 0-213 65-213 151 0 97 56 141 302 194 292 65 426 162 426 367 0 248-202 388-470 388-191 0-381-75-538-205z" fill="#fff"/>
    </g>
    <g class="com.sun.star.drawing.ClosedBezierShape">
     <rect class="BoundingBox" x="6833" y="10954" width="1011" height="1296" fill="none"/>
     <path d="m6834 12043 134-161c124 107 247 172 404 172s246-65 246-172c0-87-56-141-302-194-280-65-426-141-426-367v-11c0-205 179-356 437-356 202 0 347 54 482 162l-124 162c-123-86-246-130-369-130-124 0-202 65-202 151 0 97 56 141 303 194 280 65 425 162 425 367 0 248-190 388-470 388-202 0-381-75-538-205z" fill="#fff"/>
    </g>
    <g class="com.sun.star.drawing.PolyPolygonShape">
     <rect class="BoundingBox" x="8099" y="10975" width="977" height="1253" fill="none"/>
     <path d="m8100 10976h963v194h-739v323h661v205h-661v335h751v194h-975z" fill="#fff"/>
    </g>
    <g class="com.sun.star.drawing.PolyPolygonShape">
     <rect class="BoundingBox" x="9332" y="10975" width="1279" height="1253" fill="none"/>
     <path d="m9332 10976h247l392 582 403-582h235v1251h-224v-906l-414 604h-11l-404-593v895h-224z" fill="#fff"/>
    </g>
    <g class="com.sun.star.drawing.ClosedBezierShape">
     <rect class="BoundingBox" x="10934" y="10975" width="1089" height="1253" fill="none"/>
     <path d="m11539 12033c157 0 258-54 258-173 0-108-90-172-269-172h-370v345zm-67-540c157 0 247-53 247-161v-11c0-97-79-151-224-151h-337v323zm-538-517h594c146 0 258 32 336 108 56 54 79 118 79 205 0 151-79 237-180 280 146 54 258 140 258 313 0 226-190 345-482 345h-605z" fill="#fff"/>
    </g>
    <g class="com.sun.star.drawing.PolyPolygonShape">
     <rect class="BoundingBox" x="12267" y="10975" width="910" height="1253" fill="none"/>
     <path d="m12268 10976h224v1046h683v205h-907z" fill="#fff"/>
    </g>
    <g class="com.sun.star.drawing.PolyPolygonShape">
     <rect class="BoundingBox" x="13410" y="10609" width="976" height="1619" fill="none"/>
     <path d="m14015 10609 202 87-235 172h-180zm-605 367h964v205h-740v323h650v194h-650v335h751v194h-975z" fill="#fff"/>
    </g>
    <g class="com.sun.star.drawing.PolyPolygonShape">
     <rect class="BoundingBox" x="14642" y="10975" width="977" height="1253" fill="none"/>
     <path d="m14643 10976h963v194h-728v323h650v205h-650v335h739v194h-974z" fill="#fff"/>
    </g>
    <g class="com.sun.star.drawing.PolyPolygonShape">
     <rect class="BoundingBox" x="16423" y="10975" width="1145" height="1253" fill="none"/>
     <path d="m16424 10976h213l706 863v-863h224v1251h-191l-728-895v895h-224z" fill="#fff"/>
    </g>
    <g class="com.sun.star.drawing.PolyPolygonShape">
     <rect class="BoundingBox" x="17768" y="10965" width="1369" height="1263" fill="none"/>
     <path d="m18676 11731-224-507-236 507zm-325-766h213l571 1262h-246l-135-302h-616l-134 302h-236z" fill="#fff"/>
    </g>
    <g class="com.sun.star.drawing.PolyPolygonShape">
     <rect class="BoundingBox" x="19079" y="10975" width="1066" height="1253" fill="none"/>
     <path d="m19494 11181h-415v-205h1064v205h-425v1046h-224z" fill="#fff"/>
    </g>
    <g class="com.sun.star.drawing.PolyPolygonShape">
     <rect class="BoundingBox" x="20378" y="10975" width="237" height="1253" fill="none"/>
     <path d="m20379 10976h235v1251h-235z" fill="#fff"/>
    </g>
    <g class="com.sun.star.drawing.ClosedBezierShape">
     <rect class="BoundingBox" x="20894" y="10954" width="1368" height="1296" fill="none"/>
     <path d="m22014 11612v-11c0-237-179-442-437-442-257 0-436 205-436 442 0 248 190 442 448 442 246 0 425-194 425-431zm-1120 0v-11c0-345 291-647 695-647 392 0 672 302 672 647 0 356-280 647-684 647-392 0-683-291-683-636z" fill="#fff"/>
    </g>
    <g class="com.sun.star.drawing.PolyPolygonShape">
     <rect class="BoundingBox" x="22518" y="10975" width="1134" height="1253" fill="none"/>
     <path d="m22519 10976h212l695 863v-863h224v1251h-190l-717-895v895h-224z" fill="#fff"/>
    </g>
    <g class="com.sun.star.drawing.PolyPolygonShape">
     <rect class="BoundingBox" x="23862" y="10965" width="1358" height="1263" fill="none"/>
     <path d="m24759 11731-224-507-224 507zm-325-766h213l572 1262h-236l-145-302h-605l-135 302h-235z" fill="#fff"/>
    </g>
    <g class="com.sun.star.drawing.PolyPolygonShape">
     <rect class="BoundingBox" x="25431" y="10975" width="921" height="1253" fill="none"/>
     <path d="m25431 10976h236v1046h683v205h-919z" fill="#fff"/>
    </g>
    <g class="com.sun.star.drawing.PolyPolygonShape">
     <rect class="BoundingBox" x="26574" y="10975" width="976" height="1253" fill="none"/>
     <path d="m26574 10976h964v194h-740v323h661v205h-661v335h751v194h-975z" fill="#fff"/>
    </g>
    <g class="com.sun.star.drawing.ClosedBezierShape">
     <rect class="BoundingBox" x="21599" y="3148" width="6814" height="6557" fill="none"/>
     <path d="m25936 3148h-4336c33 0 56 205 56 324v5908c0 119-23 324-56 324h2061c-22 0-56-205-56-324v-2091h2331c1635 0 2475-960 2475-2060 0-1110-840-2081-2475-2081zm-359 2825h-1972v-1434h1972c695 0 1042 205 1042 690 0 518-347 744-1042 744z" fill="#fff"/>
    </g>
    <g class="com.sun.star.drawing.ClosedBezierShape">
     <rect class="BoundingBox" x="11203" y="2900" width="8348" height="7053" fill="none"/>
     <path d="m18317 7364c-22 54-157 173-235 237h-11l-56 54c-460 334-1759 572-2162 572-1110 0-2532-475-2532-1801 0-1337 1422-1801 2532-1801 963 0 1859 248 2117 475 0 0 34 32 45 32 78 65 201 183 224 237l1075-1876c-67 22-246-21-347-54-11 0-504-151-504-151-112-32-235-75-370-107-549-141-1322-281-2408-281-2174 0-4482 1186-4482 3526 0 2350 2308 3526 4482 3526 1333 0 2341-313 2946-518l560-194c123-43 325-86 359-65z" fill="#fff"/>
    </g>
    <g class="com.sun.star.drawing.ClosedBezierShape">
     <rect class="BoundingBox" x="3450" y="3148" width="6847" height="6611" fill="none"/>
     <path d="m9960 8173h-4515v-4701c0-119 33-324 56-324h-2050c33 0 56 205 56 324v5908c0 119-23 324-56 324h6509c123 0 336 32 336 54v-1639c0 32-213 54-336 54z" fill="#fff"/>
    </g>
   </g>
  </g>
 </g>
 <g transform="matrix(1.5789 0 0 1.5789 .00015197 -8.2303)">
  <g fill="#fff">
   <path d="m26.84 188.42c11.4 0.02 22.8-0.02 34.21 0.01 5.67-0.04 11.7 1.61 15.62 5.95 5.96 6.39 5.64 17.58-0.88 23.48-4.2 3.94-10.19 5.14-15.79 5.03-5.82-0.01-11.64-0.02-17.46-0.01 0.06 6.67-0.18 13.34 0.17 20-5.29-0.06-10.59-0.03-15.89-0.02 0.33-18.14 0.3-36.3 0.02-54.44m15.69 11.59c0.01 3.96 0.01 7.93 0 11.89 6.45-0.18 12.96 0.44 19.38-0.36 4.23-0.46 6.11-5.91 3.73-9.19-1.57-1.94-4.27-2.2-6.59-2.31-5.5-0.12-11.01-0.01-16.52-0.03z"/>
   <path d="m127.79 194.46c4.71 0.02 9.42 0.02 14.14-0.01-0.39 9.18 0.03 18.36-0.23 27.54-0.17 6.27-3.52 12.54-9.26 15.38-7.58 3.74-16.59 3.71-24.69 1.89-7.28-1.59-13.31-7.81-13.95-15.35-0.69-9.8 0.1-19.66-0.43-29.47 4.72 0.05 9.43 0.05 14.14 0-0.36 8.51-0.06 17.02-0.19 25.53-0.01 2.62-0.14 5.74 2.09 7.6 3.24 2.63 7.79 2.59 11.72 2.07 3.34-0.39 6.82-2.84 6.77-6.5 0.08-9.55 0.22-19.12-0.11-28.68z"/>
   <path d="m156.86 194.47c10.33 0.05 20.66-0.08 30.99 0.06 4.53 0.26 10.23 0.47 12.87 4.82 3.22 5.77 0.63 13.38-5.25 16.27 2.63 1.09 5.42 2.45 6.79 5.11 2.62 5.22 1.54 12.64-3.6 15.94-4.91 3.2-11.03 3.19-16.68 3.16-8.38-0.02-16.76-0.02-25.14 0 0.33-15.11 0.29-30.25 0.02-45.36m13.97 8.67c0.01 3.3 0.01 6.59 0.02 9.88 5.26-0.21 10.61 0.52 15.81-0.47 4.41-0.92 4.43-8.61-0.19-9.14-5.18-0.62-10.43-0.15-15.64-0.27m0.01 16.89v11.13c5.47-0.28 11.15 0.76 16.47-0.84 4.57-1.33 4.41-9.04-0.37-9.89-5.32-0.83-10.74-0.23-16.1-0.4z"/>
   <path d="m216.02 194.47c4.72 0 9.44 0.01 14.15 0-0.38 11.61-0.07 23.23-0.17 34.84 10.45-0.09 20.91 0.19 31.35-0.16-0.03 3.61-0.02 7.22-0.02 10.83-15.08-0.34-30.18-0.09-45.27-0.13 0.18-15.12 0.26-30.26-0.04-45.38z"/>
   <path d="m271.76 194.46c4.71 0.02 9.42 0.03 14.14-0.02-0.27 15.14-0.27 30.29 0 45.42-4.72-0.06-9.44-0.04-14.16-0.02 0.33-15.12 0.29-30.26 0.02-45.38z"/>
   <path d="m306.23 200.22c7.01-5.26 16.18-6.71 24.74-6.24 6.68 0.39 13.02 2.66 19.53 3.96-2.07 4.19-4.16 8.36-6.17 12.57-4.2-4.35-10.5-5.65-16.32-5.71-5.44 0.15-11.56 1.78-14.72 6.57-3.33 5.09-1.35 12.57 4.04 15.37 8.82 4.92 21.93 3.34 27.78-5.41 2.76 4.04 5.54 8.07 8.37 12.05-6.28 2.74-12.52 5.92-19.44 6.65-9.61 1.12-20.18-0.12-28.07-6.15-10.4-7.94-10.29-25.89 0.26-33.66z"/>
   <path d="m50.96 248.94c7.2-6.67 17.81-7.26 27.1-6.39 8.05 0.6 15.75 3.15 23.59 4.89-1.97 3.83-3.87 7.69-5.76 11.56-3.53-3.88-8.87-4.83-13.79-5.66-5.35-0.75-10.88-1.24-16.22-0.12-2.11 0.49-4.55 1.42-5.27 3.7-0.36 2.9 3.03 3.73 5.21 4.19 8.98 1.53 18.37 0.99 27.05 4.1 3.83 1.36 7.55 3.83 9.27 7.65 2.5 5.68 1.31 12.84-3.04 17.3-4.23 4.42-10.36 6.3-16.25 7.16-8.11 1.02-16.4 0.65-24.41-0.98-4.79-0.96-9.32-2.85-14.03-4.07 2.05-4.94 4.16-9.85 6.11-14.82 4.09 5.14 10.78 6.83 16.94 7.91 5.61 0.73 11.53 0.95 16.96-0.89 2.64-0.83 5.01-3.35 4.47-6.29-1.74-2.42-5.11-2.4-7.78-2.9-10.07-1.4-21.12-0.8-30.03-6.42-6.81-4.45-5.74-14.94-0.12-19.92z"/>
   <path d="m139.76 244.42c5.34-0.12 10.68-0.04 16.02-0.06l-4.56 4.53c4.02 0.03 8.05 0.07 12.07-0.16-0.02 3.13-0.02 6.27-0.01 9.4-11.06-0.36-22.13-0.07-33.19-0.16v8.35c7.5-0.07 15.01 0.17 22.5-0.17-0.04 3-0.04 6-0.03 9-7.48-0.35-14.98-0.11-22.47-0.17v10.2c11.06-0.08 22.13 0.18 33.19-0.15-0.01 3.13-0.01 6.25 0.01 9.39-15.72-0.39-31.45-0.08-47.18-0.16 0.27-15.12 0.28-30.25 0-45.36 6.91 0.01 13.83 0 20.74 0 0.99-1.48 1.93-2.99 2.91-4.48z"/>
   <path d="m177.75 248.9c5.81 0.01 11.62-0.02 17.43 0.02 6.1 8.52 14.07 15.5 20.98 23.36-0.06-7.8 0.18-15.59-0.16-23.38 4.24 0 8.48 0 12.72-0.01-0.31 15.12-0.29 30.26-0.01 45.37-3.59-0.03-7.19-0.01-10.78-0.03-2.67-4.24-6.39-7.64-9.76-11.29-6.08-6.28-12.12-12.59-17.87-19.16 0.07 10.16-0.2 20.32 0.16 30.48-4.23-0.03-8.47-0.02-12.7-0.01 0.27-15.11 0.29-30.24-0.01-45.35z"/>
   <path d="m246.39 275.35c3.82-8.81 8.16-17.42 11.47-26.45 5.66-0.01 11.32-0.01 16.97 0.01 6.46 15.37 14.24 30.16 21.1 45.36-4.58-0.04-9.17-0.02-13.75-0.03-1.25-3.12-2.71-6.14-4.17-9.17-7.93-0.01-15.87 0.02-23.8-0.01-1.47 3.02-2.91 6.05-4.13 9.18-4.06 0.01-8.11-0.01-12.16 0.02 3.03-6.21 5.58-12.63 8.47-18.91m19.49-18.29c-2.83 6.86-5.63 13.73-8.45 20.59 5.7 0.01 11.4 0.01 17.11 0.01-2.88-6.87-5.75-13.74-8.66-20.6z"/>
   <path d="m293.08 248.7c16.49 0.34 33.01 0.31 49.51 0.02-0.03 3.62-0.03 7.23 0.01 10.85-5.95-0.3-11.91-0.12-17.86-0.16 0.09 11.62-0.2 23.23 0.16 34.84-4.71-0.01-9.43-0.01-14.14 0 0.38-11.61 0.07-23.23 0.17-34.84-5.95 0.05-11.91-0.17-17.86 0.18 0.04-3.63 0.03-7.26 0.01-10.89z"/>
  </g>
  <g fill="#b51621">
   <path d="m0 162h380v162h-380v-162m26.84 26.42c0.28 18.14 0.31 36.3-0.02 54.44 5.3-0.01 10.6-0.04 15.89 0.02-0.35-6.66-0.11-13.33-0.17-20 5.82-0.01 11.64 0 17.46 0.01 5.6 0.11 11.59-1.09 15.79-5.03 6.52-5.9 6.84-17.09 0.88-23.48-3.92-4.34-9.95-5.99-15.62-5.95-11.41-0.03-22.81 0.01-34.21-0.01m100.95 6.04c0.33 9.56 0.19 19.13 0.11 28.68 0.05 3.66-3.43 6.11-6.77 6.5-3.93 0.52-8.48 0.56-11.72-2.07-2.23-1.86-2.1-4.98-2.09-7.6 0.13-8.51-0.17-17.02 0.19-25.53-4.71 0.05-9.42 0.05-14.14 0 0.53 9.81-0.26 19.67 0.43 29.47 0.64 7.54 6.67 13.76 13.95 15.35 8.1 1.82 17.11 1.85 24.69-1.89 5.74-2.84 9.09-9.11 9.26-15.38 0.26-9.18-0.16-18.36 0.23-27.54-4.72 0.03-9.43 0.03-14.14 0.01m29.07 0.01c0.27 15.11 0.31 30.25-0.02 45.36 8.38-0.02 16.76-0.02 25.14 0 5.65 0.03 11.77 0.04 16.68-3.16 5.14-3.3 6.22-10.72 3.6-15.94-1.37-2.66-4.16-4.02-6.79-5.11 5.88-2.89 8.47-10.5 5.25-16.27-2.64-4.35-8.34-4.56-12.87-4.82-10.33-0.14-20.66-0.01-30.99-0.06m59.16 0c0.3 15.12 0.22 30.26 0.04 45.38 15.09 0.04 30.19-0.21 45.27 0.13 0-3.61-0.01-7.22 0.02-10.83-10.44 0.35-20.9 0.07-31.35 0.16 0.1-11.61-0.21-23.23 0.17-34.84-4.71 0.01-9.43 0-14.15 0m55.74-0.01c0.27 15.12 0.31 30.26-0.02 45.38 4.72-0.02 9.44-0.04 14.16 0.02-0.27-15.13-0.27-30.28 0-45.42-4.72 0.05-9.43 0.04-14.14 0.02m34.47 5.76c-10.55 7.77-10.66 25.72-0.26 33.66 7.89 6.03 18.46 7.27 28.07 6.15 6.92-0.73 13.16-3.91 19.44-6.65-2.83-3.98-5.61-8.01-8.37-12.05-5.85 8.75-18.96 10.33-27.78 5.41-5.39-2.8-7.37-10.28-4.04-15.37 3.16-4.79 9.28-6.42 14.72-6.57 5.82 0.06 12.12 1.36 16.32 5.71 2.01-4.21 4.1-8.38 6.17-12.57-6.51-1.3-12.85-3.57-19.53-3.96-8.56-0.47-17.73 0.98-24.74 6.24m-255.27 48.72c-5.62 4.98-6.69 15.47 0.12 19.92 8.91 5.62 19.96 5.02 30.03 6.42 2.67 0.5 6.04 0.48 7.78 2.9 0.54 2.94-1.83 5.46-4.47 6.29-5.43 1.84-11.35 1.62-16.96 0.89-6.16-1.08-12.85-2.77-16.94-7.91-1.95 4.97-4.06 9.88-6.11 14.82 4.71 1.22 9.24 3.11 14.03 4.07 8.01 1.63 16.3 2 24.41 0.98 5.89-0.86 12.02-2.74 16.25-7.16 4.35-4.46 5.54-11.62 3.04-17.3-1.72-3.82-5.44-6.29-9.27-7.65-8.68-3.11-18.07-2.57-27.05-4.1-2.18-0.46-5.57-1.29-5.21-4.19 0.72-2.28 3.16-3.21 5.27-3.7 5.34-1.12 10.87-0.63 16.22 0.12 4.92 0.83 10.26 1.78 13.79 5.66 1.89-3.87 3.79-7.73 5.76-11.56-7.84-1.74-15.54-4.29-23.59-4.89-9.29-0.87-19.9-0.28-27.1 6.39m88.8-4.52c-0.98 1.49-1.92 3-2.91 4.48-6.91 0-13.83 0.01-20.74 0 0.28 15.11 0.27 30.24 0 45.36 15.73 0.08 31.46-0.23 47.18 0.16-0.02-3.14-0.02-6.26-0.01-9.39-11.06 0.33-22.13 0.07-33.19 0.15v-10.2c7.49 0.06 14.99-0.18 22.47 0.17-0.01-3-0.01-6 0.03-9-7.49 0.34-15 0.1-22.5 0.17v-8.35c11.06 0.09 22.13-0.2 33.19 0.16-0.01-3.13-0.01-6.27 0.01-9.4-4.02 0.23-8.05 0.19-12.07 0.16l4.56-4.53c-5.34 0.02-10.68-0.06-16.02 0.06m37.99 4.48c0.3 15.11 0.28 30.24 0.01 45.35 4.23-0.01 8.47-0.02 12.7 0.01-0.36-10.16-0.09-20.32-0.16-30.48 5.75 6.57 11.79 12.88 17.87 19.16 3.37 3.65 7.09 7.05 9.76 11.29 3.59 0.02 7.19 0 10.78 0.03-0.28-15.11-0.3-30.25 0.01-45.37-4.24 0.01-8.48 0.01-12.72 0.01 0.34 7.79 0.1 15.58 0.16 23.38-6.91-7.86-14.88-14.84-20.98-23.36-5.81-0.04-11.62-0.01-17.43-0.02m68.64 26.45c-2.89 6.28-5.44 12.7-8.47 18.91 4.05-0.03 8.1-0.01 12.16-0.02 1.22-3.13 2.66-6.16 4.13-9.18 7.93 0.03 15.87 0 23.8 0.01 1.46 3.03 2.92 6.05 4.17 9.17 4.58 0.01 9.17-0.01 13.75 0.03-6.86-15.2-14.64-29.99-21.1-45.36-5.65-0.02-11.31-0.02-16.97-0.01-3.31 9.03-7.65 17.64-11.47 26.45m46.69-26.65c0.02 3.63 0.03 7.26-0.01 10.89 5.95-0.35 11.91-0.13 17.86-0.18-0.1 11.61 0.21 23.23-0.17 34.84 4.71-0.01 9.43-0.01 14.14 0-0.36-11.61-0.07-23.22-0.16-34.84 5.95 0.04 11.91-0.14 17.86 0.16-0.04-3.62-0.04-7.23-0.01-10.85-16.5 0.29-33.02 0.32-49.51-0.02z"/>
   <path d="m42.53 200.01c5.51 0.02 11.02-0.09 16.52 0.03 2.32 0.11 5.02 0.37 6.59 2.31 2.38 3.28 0.5 8.73-3.73 9.19-6.42 0.8-12.93 0.18-19.38 0.36 0.01-3.96 0.01-7.93 0-11.89z"/>
   <path d="m170.83 203.14c5.21 0.12 10.46-0.35 15.64 0.27 4.62 0.53 4.6 8.22 0.19 9.14-5.2 0.99-10.55 0.26-15.81 0.47-0.01-3.29-0.01-6.58-0.02-9.88z"/>
   <path d="m170.84 220.03c5.36 0.17 10.78-0.43 16.1 0.4 4.78 0.85 4.94 8.56 0.37 9.89-5.32 1.6-11 0.56-16.47 0.84z"/>
   <path d="m265.88 257.06c2.91 6.86 5.78 13.73 8.66 20.6-5.71 0-11.41 0-17.11-0.01 2.82-6.86 5.62-13.73 8.45-20.59z"/>
  </g>
 </g>
 <g transform="matrix(.028346 0 0 .028346 -198.76 -213.63)">
  <g class="Master_Slide"></g>
 </g>
</svg>
