<!DOCTYPE svg  PUBLIC '-//W3C//DTD SVG 1.1//EN'  'http://www.w3.org/Graphics/SVG/1.1/DTD/svg11.dtd' [
	<!ENTITY ns_svg "http://www.w3.org/2000/svg">
	<!ENTITY ns_xlink "http://www.w3.org/1999/xlink">
]>
<svg enable-background="new 0 0 147.385 113.099" overflow="visible" version="1.1" viewBox="0 0 147.38 113.1" xml:space="preserve" xmlns="http://www.w3.org/2000/svg">
	<g fill="#EC008C">
		<path d="M7.063,42.925v26.938H0V42.925H7.063z"/>
		<path d="m21.343 57.737c2.207 0 3.827 0.09 4.859 0.27 1.031 0.168 1.865 0.58 2.502 1.237v-1.681c0-0.998-0.198-1.662-0.594-1.991-0.469-0.39-1.374-0.585-2.718-0.585h-4.176c-1.08 0-1.801 0.087-2.16 0.259-0.372 0.197-0.558 0.628-0.558 1.292h-6.857c0-2.44 0.665-4.082 1.997-4.924 1.15-0.709 3.31-1.064 6.477-1.064h8.222c4.953 0 7.43 2.278 7.43 6.834v12.479h-6.686v-2.148c-0.984 1.03-1.839 1.698-2.564 2.003-0.727 0.305-1.947 0.458-3.663 0.458h-4.841c-2.4 0-4.116-0.33-5.147-0.991-1.284-0.805-1.926-2.271-1.926-4.398v-1.586c0-2.379 0.869-3.93 2.609-4.65 1.307-0.543 3.905-0.814 7.794-0.814zm7.505 5.946c0-0.775-0.223-1.272-0.666-1.491-0.564-0.303-1.775-0.454-3.635-0.454h-3.132c-1.428 0-2.388 0.164-2.879 0.491-0.492 0.352-0.738 0.934-0.738 1.745 0 0.654 0.281 1.104 0.846 1.346 0.539 0.279 1.499 0.418 2.88 0.418h2.016c2.268 0 3.719-0.163 4.354-0.491 0.635-0.304 0.954-0.824 0.954-1.564z"/>
	</g>
	<circle cx="90.835" cy="56.55" r="56.55" fill="#EC008C"/>
	<g fill="#fff">
		<path d="m47.501 50.487h2.085c1.677 0 3.042 0.257 4.097 0.77 1.294 0.632 2.037 1.634 2.229 3.005l0.09-11.462h7.063v26.875h-6.631v-3.463c-0.443 1.252-1.156 2.172-2.139 2.756-1.126 0.68-2.707 1.02-4.744 1.02h-2.048c-4.134 0-6.919-0.73-8.356-2.189-1.139-1.16-1.707-3.109-1.707-5.848v-3.426c0-2.763 0.557-4.707 1.671-5.832 1.436-1.471 4.233-2.206 8.39-2.206zm0.523 14.188h4.159c1.494 0 2.546-0.217 3.155-0.648 0.729-0.539 1.094-1.488 1.094-2.844v-1.891c0-1.367-0.329-2.298-0.986-2.791-0.657-0.468-1.745-0.702-3.263-0.702h-4.159c-1.566 0-2.605 0.282-3.119 0.846-0.395 0.444-0.592 1.266-0.592 2.467v2.25c0 1.176 0.197 1.986 0.592 2.43 0.514 0.588 1.553 0.883 3.119 0.883z"/>
		<path d="m74.21 50.487h4.934c3.887 0 6.578 0.524 8.074 1.572 1.674 1.168 2.512 3.354 2.512 6.559v3.182h-17.135v1.141c0 0.967 0.346 1.637 1.041 2.012 0.682 0.398 1.781 0.598 3.301 0.598h2.172c1.686 0 2.822-0.223 3.408-0.67 0.395-0.303 0.592-0.811 0.592-1.523h6.621v0.848c0 2.211-0.908 3.771-2.727 4.684-1.447 0.732-3.643 1.1-6.586 1.1h-5.275c-2.943 0-5.125-0.473-6.549-1.418-2.033-1.375-3.051-3.887-3.051-7.535v-1.848c0-3.324 0.795-5.662 2.387-7.013 1.351-1.127 3.445-1.689 6.281-1.689zm3.533 4.437c-2.285 0-3.707 0.142-4.27 0.423-0.586 0.317-0.879 1.052-0.879 2.203h10.299c0-1.104-0.334-1.827-1.004-2.167-0.658-0.305-2.04-0.459-4.146-0.459z"/>
		<path d="m110.48 69.675v-3.037c-0.635 1.248-1.555 2.119-2.759 2.611-1.205 0.492-2.813 0.738-4.825 0.738-3.164 0-5.458-0.365-6.884-1.098-2.396-1.221-3.595-3.641-3.595-7.26v-10.892h7.063v10.885c0 1.869 1.521 2.803 4.565 2.803h1.617c1.546 0 2.738-0.354 3.577-1.061 0.826-0.719 1.24-1.748 1.24-3.09v-9.538h7.063v18.938h-7.062z"/>
		<path d="m119.56 50.737h9.146l3.605 5.127 3.605-5.127h9.127l-7.334 8.975 7.998 9.963h-8.912l-4.482-6.387-4.484 6.387h-8.932l8.018-9.963-7.355-8.975z"/>
	</g>
</svg>
