<svg enable-background="new 0 0 284 103.1" version="1.1" viewBox="0 0 284 103.1" xml:space="preserve" xmlns="http://www.w3.org/2000/svg">
<style type="text/css">
	.st0{fill:#FF003B;}
</style>
	<path class="st0" d="m24.8 90.1 29.5-21.3 17.8 12.9-29.5 21.4-17.8-13z"/>
	<path class="st0" d="M6.9,34.3l29.4,21.5l-6.8,20.9L0,55.2L6.9,34.3z"/>
	<path class="st0" d="m54.4 0-11.3 34.7-22 0.1 11.3-34.8h22z"/>
	<path class="st0" d="m58.9 13.8 36.4-0.1 6.9 20.9-36.5 0.1-6.8-20.9z"/>
	<path class="st0" d="m90.5 42.8 10.9 34.8-18 12.8-10.9-34.9 18-12.7z"/>
	<path class="st0" d="m140.9 64.4c0 2.6 1.2 3.3 4.3 3.3h2.1c3.7 0 5.4-2.3 8.9-8.7h1.7l-1.7 10.6h-26.3v-1.6c3.4-0.4 3.9-0.7 3.9-3.4v-24.1c0-2.7-0.5-3-3.9-3.4v-1.7h15v1.7c-3.4 0.4-3.9 0.7-3.9 3.4v23.9z"/>
	<path class="st0" d="m181.1 64.3c0 1.7 0.3 2.7 1.6 2.7 0.7 0 1.4-0.2 2-0.5l0.3 1.1c-1.4 1.7-3.3 2.6-5.6 2.6-2.6 0-4.4-1.6-4.9-4.3-1.6 2.1-4.1 4.2-7.6 4.2-4 0-6.6-2.4-6.6-6.3 0-4.2 3-5.9 6.7-7.3l7.4-2.7v-4.2c0-2.8-0.9-4.8-3.5-4.8-2.3 0-3.3 1.8-3.3 4.1 0 1 0.1 2 0.4 3l-4.1 0.5c-1.3-0.4-2.2-1.5-2.2-3.1 0-4.1 4.2-6.2 9.6-6.2 6.3 0 9.7 2.3 9.7 8v13.2zm-6.7 0.4v-9.1l-4.2 1.7c-2.1 0.8-3.3 1.9-3.3 4.6 0 2.5 1.2 4.3 3.8 4.3 1.4 0.1 2.3-0.5 3.7-1.5z"/>
	<path class="st0" d="m186.3 53.2c0-11.2 7.1-18.3 16.5-18.3 10.3 0 15.9 8 15.9 17 0 11.2-7.1 18.3-16.5 18.3-10.4 0-15.9-8-15.9-17zm24.7-0.4c0-8.2-2.6-15.9-8.7-15.9-5.7 0-8.3 7.4-8.3 15.3 0 8.2 2.6 15.9 8.7 15.9 5.7 0.1 8.3-7.4 8.3-15.3z"/>
	<path class="st0" d="m230.7 43.8h6.4v2.2h-6.4v16.2c0 3 1.1 4.3 3.4 4.3 1.4 0 2.4-0.4 3.7-1.4l0.6 0.9c-1.6 2.4-4 4.2-7.5 4.2-4 0-6.9-2.1-6.9-7.6v-16.6h-3v-1.1c3.4-1.5 6.3-4.3 8.4-7.5h1.5v6.4z"/>
	<path class="st0" d="m249.2 65.5c0 2 1.1 2.3 4.2 2.5v1.6h-14v-1.6c2.3-0.1 3.1-0.4 3.1-2.1v-17.3l-2.9-1.7v-0.9l8.7-2.7h1.1l-0.2 7.2c2.3-5.3 3.8-7.2 6.7-7.2 1 0 1.8 0.3 2.1 0.8v5.3h-0.9c-3 0-5.4 0.1-7.9 2.6v13.5z"/>
	<path class="st0" d="m280.2 64.3c0 1.7 0.3 2.7 1.6 2.7 0.7 0 1.4-0.2 2-0.5l0.3 1.1c-1.4 1.7-3.3 2.6-5.6 2.6-2.6 0-4.4-1.6-4.9-4.3-1.6 2.1-4.1 4.2-7.6 4.2-4 0-6.6-2.4-6.6-6.3 0-4.2 3-5.9 6.7-7.3l7.4-2.7v-4.2c0-2.8-0.9-4.8-3.5-4.8-2.3 0-3.3 1.8-3.3 4.1 0 1 0.1 2 0.4 3l-4.1 0.5c-1.3-0.4-2.2-1.5-2.2-3.1 0-4.1 4.2-6.2 9.6-6.2 6.3 0 9.7 2.3 9.7 8v13.2zm-6.8 0.4v-9.1l-4.2 1.7c-2.1 0.8-3.3 1.9-3.3 4.6 0 2.5 1.2 4.3 3.8 4.3 1.4 0.1 2.3-0.5 3.7-1.5z"/>
</svg>
