<svg width="600pt" height="464.79pt" version="1.1" viewBox="0 0 600 464.79" xmlns="http://www.w3.org/2000/svg">
 <g transform="matrix(1.0769 0 0 1.0769 -25.481 -395.01)" fill="#49a6e1">
  <path d="m150.45 367.57c11.45-1.39 23.01-0.4 34.51-0.72 3.85 0.12 8.78-0.79 11.42 2.78 2.19 2.52 1.72 6.18 0.28 8.95-15.38 33.56-13.61 74.2 4.27 106.46 2.92 6.02 7.99 10.99 9.42 17.69 1.75 7.61-0.76 15.88-6.16 21.47-22.94 24.68-36.21 58.06-36.46 91.75-0.32 19.02 3.37 38.08 10.76 55.61 2.11 3.91-0.27 9.19-4.56 10.24-15.43 1.13-31.59 0.06-45.61-7.09-24.01-11.44-40.11-37.1-40.36-63.65-0.09-57.04 0-114.08-0.05-171.12-0.07-17.29 5.99-34.62 17.3-47.76 11.34-13.42 27.78-22.47 45.24-24.61z"/>
  <path d="m298.26 367.43c14.23-2.05 29.17 2.08 40.6 10.74 12.98 9.79 21.28 25.53 21.83 41.8 0.71 13.67-3.93 27.54-12.79 37.98-8.21 10-20.08 16.91-32.81 19.15-14.42 2.63-29.8-0.89-41.7-9.42-13.98-9.86-22.83-26.54-23.18-43.65-0.45-12.15 3.42-24.35 10.56-34.17 8.71-12.19 22.62-20.55 37.49-22.43z"/>
  <path d="m417.35 367.49c3.43-1.06 7.11-0.52 10.65-0.63 9.31 0.2 18.71-0.61 27.95 0.96 18.34 2.73 35.34 13.1 46.36 27.99 9.22 12.37 14.4 27.73 14.23 43.18 0.03 54.66 0 109.32 0.01 163.98 0.03 7.01 0.14 14.08-1.3 20.98-3.6 18.49-14.75 35.41-30.45 45.85-13.64 9.29-30.5 13.33-46.88 12.12-3.39-0.34-6.27-3.46-6.19-6.88 0.08-2.53 1.29-4.82 2.15-7.14 14.16-35.72 12.18-77.33-5.04-111.65-4.92-9.95-11.09-19.27-18.24-27.74-3.24-3.85-7.16-7.33-8.88-12.19-3.05-7.4-1.74-16.18 2.99-22.58 21.6-31.89 26.02-74.44 11.73-110.17-0.97-2.58-2.29-5.02-3.08-7.66-1-3.26 0.76-7.19 3.99-8.42z"/>
  <path d="m295.45 554.52c15.11-2.38 31.07 0.78 43.96 9.07 12.51 7.9 22.14 20.22 26.78 34.27 4.86 14.68 4.14 31.12-2.01 45.32-5.64 13.32-16.01 24.55-28.77 31.34-12.28 6.47-26.74 9.09-40.45 6.57-15.94-2.6-30.69-11.65-40.33-24.57-8.84-11.46-13.49-26.04-12.98-40.5 0.28-16.48 7.43-32.67 19.28-44.1 9.31-9.22 21.58-15.36 34.52-17.4z"/>
 </g>
 <g transform="matrix(.50386 0 0 .50386 -330.71 173.6)" fill="#fff">
  <path d="m986.06 445.42c10.5-0.01 20.99 0.02 31.49-0.02-0.01 43.46 0.02 86.92-0.01 130.37-9.85-0.09-19.7 0-29.54-0.04 0.01-3.97-0.02-7.93 0.25-11.89-4.64 7.16-12.4 12.06-20.78 13.45-11.78 2.03-24.61-1.21-33.52-9.32-8.48-7.61-13.03-18.72-14.57-29.83-1.65-13.9 0.06-28.85 8.01-40.71 7.01-10.85 19.69-17.62 32.57-17.67 9.15-0.18 19.35 0.91 26.28 7.54-0.37-13.96-0.04-27.92-0.18-41.88m-20.65 61.19c-5.85 1.07-10.7 5.5-12.91 10.93-2.75 6.78-2.71 14.54-0.49 21.46 1.72 5.3 5.64 10.11 11.07 11.86 6.25 2.31 13.81 0.44 18.27-4.53 4.01-4.38 5.47-10.5 5.62-16.29 0.24-6.45-1.32-13.29-5.66-18.23-3.83-4.47-10.19-6.38-15.9-5.2z"/>
  <path d="m1041.1 445.43c10.27-0.01 20.53-0.02 30.8 0-0.07 8.2-0.04 16.41-0.02 24.61-10.25 0.02-20.5 0.01-30.75 0.02-0.03-8.21 0.01-16.42-0.03-24.63z"/>
  <path d="m1469.5 445.4c10.37 0.09 20.74-0.1 31.11 0.11-7.27 9.06-14.32 18.29-21.55 27.38-8.1-0.1-16.2-0.05-24.29-0.03 4.85-9.18 9.86-18.28 14.73-27.46z"/>
  <path d="m1100.9 456.56c10.19 0.01 20.37 0.02 30.56-0.01-0.01 8.98 0.01 17.96-0.01 26.94 6.51-0.04 13.02 0.04 19.54-0.06v24.62c-6.51-0.03-13.02-0.01-19.52-0.01 0 9.66-0.05 19.32 0.01 28.99-0.03 3.2 1.22 6.52 3.89 8.43 4.84 3.53 11.17 3.61 16.91 3.32-0.02 9.09-0.01 18.17-0.01 27.26-9.68 1.16-19.67 0.51-28.99-2.4-7.61-2.46-14.85-7.13-18.83-14.23-3.2-5.56-4.48-12.05-4.41-18.4 0.02-10.99 0.02-21.97 0-32.95-4.03-0.03-8.05-0.01-12.07-0.03 0.15-8.19 0.03-16.38 0.06-24.57 4.3 0.03 8.59 0.02 12.9 0.02-0.05-8.97-0.01-17.95-0.03-26.92z"/>
  <path d="m706.61 480.59c8.76-1.97 18.66-0.83 25.93 4.78 3.58 2.62 6.06 6.4 8.08 10.29 9.12-14.06 28.58-19.84 43.97-13.38 7.41 3.03 12.59 10.03 14.6 17.64 2.47 8.13 1.74 16.69 1.83 25.06v50.82c-10.44-0.12-20.88-0.08-31.31-0.01-0.09-18.93 0.02-37.86-0.06-56.79-0.22-3.27-0.34-7.17-3.05-9.44-3.69-2.41-8.54-1.09-12.18 0.74-7.32 4.47-9.49 13.77-9.9 21.77-0.19 14.57-0.02 29.14-0.08 43.71-10.49-0.1-20.98-0.03-31.46-0.03-0.03-19.27 0.03-38.54-0.03-57.81-0.07-3.59-0.99-8.43-5.09-9.39-5.66-1.13-11.87 1.57-15 6.43-3.67 5.6-4.99 12.46-4.9 19.08-0.08 13.89-0.03 27.78-0.03 41.67-10.52 0.02-21.03 0-31.55 0.01 0-31.27 0.06-62.53-0.03-93.8 10.09-0.01 20.18 0.01 30.27 0-0.04 4.8 0.1 9.63-0.56 14.4 4.98-7.19 11.82-13.63 20.55-15.75z"/>
  <path d="m837.93 486.85c10.64-6.62 23.73-8.28 35.97-6.47 10.46 1.74 20.44 7.48 26.31 16.45 7.56 11.03 9.02 25.1 7.21 38.07-19.7 0.03-39.4-0.02-59.1 0.02 1.58 6.98 6.56 13.21 13.54 15.33 11.86 3.88 24.37-1.4 34.13-8.1 3.85 7.38 7.76 14.73 11.64 22.1-13.23 10.52-30.82 15.16-47.54 13.17-9.84-1.11-19.48-4.86-27.04-11.33-12.63-10.62-18.57-28.05-16.38-44.26 1.43-14.02 9.07-27.61 21.26-34.98m15.79 20.87c-2.44 2.48-3.55 5.85-4.73 9.03 9.21 0.21 18.44 0.02 27.66 0.1-0.42-3.48-1.26-7.1-3.81-9.67-4.87-5.54-14.37-4.76-19.12 0.54z"/>
  <path d="m1183.4 488.26c11.07-7.79 25.32-9.89 38.5-7.81 9.73 1.69 18.94 6.85 24.86 14.85 8.39 11.22 10.31 26.07 8.2 39.63-19.7-0.07-39.39 0.03-59.09-0.05 1.67 7.05 6.72 13.32 13.79 15.44 11.84 3.74 24.26-1.5 33.98-8.19 3.72 7.36 7.73 14.57 11.46 21.93-4.76 4.6-11.08 7.43-17.21 9.84-17.88 6.45-39.4 5.54-55.02-6.05-14.36-10.61-21.14-29.57-18.48-47.02 1.65-12.79 8.27-25.18 19.01-32.57m18.14 19.29c-2.55 2.52-3.83 5.95-4.83 9.31 9.14-0.04 18.29-0.03 27.44 0.01-0.11-3.94-1.54-7.95-4.56-10.59-5.06-4.5-13.54-3.57-18.05 1.27z"/>
  <path d="m1302.6 504.04c4.24-14.16 18.45-25.78 33.67-23.6 0.01 10.35-0.04 20.71 0.02 31.07-8.51-1.35-18.22-0.12-24.61 6.16-5.72 5.45-7.43 13.67-7.54 21.28-0.04 12.28 0 24.55-0.01 36.83-10.44-0.06-20.87-0.09-31.3 0.01-0.05-31.29 0.02-62.57-0.04-93.86 10.05 0.03 20.11 0 30.16 0.01-0.2 7.36 0.21 14.74-0.35 22.1z"/>
  <path d="m1391.5 487.56c6.21-5.34 14.66-8.33 22.84-7.07-0.06 10.34-0.06 20.67 0 31.01-8.54-1.35-18.29-0.08-24.68 6.22-5.67 5.51-7.37 13.71-7.47 21.33-0.07 12.25-0.01 24.49-0.03 36.74-10.45-0.11-20.9-0.06-31.34-0.03-0.02-31.28 0.04-62.56-0.03-93.84 10.07 0.04 20.14 0.02 30.21 0.02-0.07 7.34 0.27 14.7-0.43 22.03 2.3-6.23 5.76-12.13 10.93-16.41z"/>
  <path d="m1427.3 491.85c14.95-10.07 33.86-14.47 51.63-10.99 9.96 1.95 19.58 7.55 24.7 16.54 4.21 7.08 5.29 15.51 5.13 23.62-0.03 18.25-0.02 36.49-0.01 54.74-9.61-0.06-19.22 0.01-28.82-0.04-0.03-3.95 0.06-7.89 0.37-11.82-10.36 17.43-37.86 18.46-51.12 3.93-7.5-8.24-9.88-21.35-4.76-31.4 4-7.45 11.86-11.78 19.58-14.49 10.7-3.65 22.1-4.68 33.34-4.85 0.39-4.63-1.84-9.61-6.63-10.87-11.35-3.36-22.88 2.24-32.48 7.92-3.58-7.46-7.29-14.86-10.93-22.29m29.42 47.88c-3.68 2.41-4.56 7.96-1.68 11.33 2.76 2.99 7.48 3.44 11.14 2.01 7.22-2.63 11.91-10.34 11.57-17.93-7.15 0.14-14.98 0.3-21.03 4.59z"/>
  <path d="m1560.1 496.28c4.95-7.83 12.69-14.08 21.95-15.8 8.83-1.49 18.36-1.06 26.51 2.97 6.39 3.14 11.08 9.14 13.19 15.88 3.13 9.26 1.95 19.14 2.17 28.72 0.01 15.89-0.02 31.78 0.02 47.67-10.47 0.06-20.94-0.05-31.41 0.06-0.09-18.62 0.04-37.25-0.06-55.88 0.03-4.18-1.27-9.15-5.58-10.79-7.18-2.36-15.85 0.44-20.18 6.69-3.49 5-4.82 11.25-4.72 17.27 0.04 14.22 0 28.44 0.03 42.66-10.53 0.03-21.05-0.05-31.57 0.04-0.07-31.25 0.09-62.5-0.08-93.75 10.1-0.18 20.2-0.03 30.31-0.08-0.08 4.78 0.12 9.59-0.58 14.34z"/>
  <path d="m1653 493.03c13.38-13.35 34.87-16.58 52.31-10.29 8.14 3.07 15.12 9.03 19.4 16.62 6.12 10.69 7.36 23.56 5.54 35.59-19.69-0.09-39.37-0.01-59.06-0.05 1.57 7 6.6 13.21 13.57 15.35 11.82 3.83 24.42-1.29 34.06-8.16 3.88 7.48 8.11 14.78 11.61 22.44-16.81 12.72-40.01 17.07-60 9.94-13.37-4.69-24.18-15.86-28.56-29.33-5.89-17.59-2.22-38.8 11.13-52.11m18.91 23.8c9.19 0.05 18.39-0.05 27.58 0.05 0.12-7.18-5.86-14.34-13.42-13.48-7.46 0.09-12.53 6.74-14.16 13.43z"/>
  <path d="m1783.5 480.54c17.99-3.01 37.89 1.79 50.74 15.21 15.75 16.3 17.27 44.12 3.54 62.11-8.34 11.11-21.67 17.77-35.31 19.46-17.71 2.41-37.17-2.83-49.38-16.36-15-16.2-15.89-43.03-2.85-60.64 7.8-10.8 20.27-17.57 33.26-19.78m6.71 25.72c-6.59 1.25-12.38 5.86-15.07 11.99-3.19 7.17-3.07 15.9 0.73 22.82 5.41 10.33 19.95 13.63 29.6 7.34 13.06-8.14 13.14-29.84 0.74-38.64-4.55-3.34-10.49-4.52-16-3.51z"/>
  <path d="m1040.8 481.95c10.45-0.02 20.9 0 31.35-0.01 0.03 31.27-0.01 62.55 0.02 93.83-10.45-0.05-20.9-0.09-31.34 0.02-0.03-31.28 0.02-62.56-0.03-93.84z"/>
 </g>
</svg>
