<svg width="917.72pt" height="174.72pt" version="1.1" viewBox="0 0 917.72 174.72" xmlns="http://www.w3.org/2000/svg">
 <g transform="translate(-26.24 -29.251)" fill="#878b8e">
  <path d="m754.47 29.52c2.24-1.06 4.45 1.21 4.4 3.44 0.38 8.85-0.08 17.72 0.22 26.57h14.82c2.2203 0 3.8164 0.35 4.27 2.55 0.51 3.94 0.51 7.97 0.1 11.92-0.57359 2.09-2.1911 2.75-4.27 2.75h-15c0.10248 17.067-0.23766 34.151 0.11958 51.204 0 4.1079 2.071 5.9048 5.591 6.3117 3.3547 0.35774 6.8389-0.0929 10.359-0.0359 2.2332 0 3.1901 1.3528 3.7067 3.1041l2.3897 11.7c0.15687 2.0618-0.37427 3.8335-2.8965 4.2657-10.6 1.56-21.94 2.42-32.18-1.38-4.16-1.8-8.41-4.34-10.35-8.65-2.12-4.76-2.42-10.11-2.52-15.25 0.04-17.1-0.06-34.2 0.05-51.3-11.865 0-12.927 0.70596-14.19-1.83-0.76359-2.2734-0.78149-11.853 0.46-14.31 1.0362-1.3145 1.1217-1.08 13.73-1.08-0.07-5.52-0.06-11.04-0.06-16.56-0.08-2 0.48-4.5 2.67-5.15 6.2-2.73 12.31-5.69 18.58-8.27"/>
  <path d="m779.2 64.64c-1.07-1.93 0.78-4.43 2.85-4.53 5.64-0.3 11.29 0 16.94-0.14 2.29 0.1 5.67-0.36 6.65 2.38 6.8 14.22 13.56 28.47 20.36 42.69 2.96 6.37 6.2 12.62 8.74 19.18 9.41-19.95 19.2-39.71 28.75-59.58 0.91-2 2.01-4.4 4.55-4.53 4.64-0.32 9.29 0.02 13.94-0.13 2.6 0.09 5.5-0.36 7.82 1.13 2.02 2.14 0.08 4.71-0.92 6.81-13.96 27.73-27.71 55.57-41.85 83.21-1.3094 1.669-3.2756 1.9961-5.3255 1.9812h-12.198c-2.4737 0-5.6219-0.0678-6.8759-2.5021-14.694-28.534-28.951-57.324-43.431-85.969"/>
 </g>
 <g transform="translate(-26.24 -29.251)" fill="#fff">
  <path d="m755.96 32.01 0.04 30.48 19.49 0.03-0.02 11.24h-19.47l0.03 55.25c0.0236 3.7 2.26 7.17 5.9 7.85 4.53 0.81 9.17 0.3 13.75 0.24l2.79 13.22c-8.66 1.31-17.57 1.84-26.24 0.37-5.66-1.22-11.9-4-14.25-9.69-1.46-4.17-1.66-8.67-1.74-13.05v-54.19l-14.42 0.02-0.05-11.26 14.49-0.08-0.01-21.603z"/>
  <path d="m781.64 63.02h21.04l32.01 68.99 32.98-69.02 20.33 0.02-43.8 87.07-18.8-0.16z"/>
 </g>
 <g transform="translate(-26.24 -29.251)" fill="#b71f3b">
  <path d="m889.85 40.881 3.4311-5.4005c10.64 8.29 19.49 19.01 24.99 31.38 12.24 26.11 9.71 58.73-6.96 82.35-13.075 19.056-34.371 32.399-57.352 35.206-3.6966 0.47749-7.8485 0.97701-11.389 0.96502-8.1874 0.0935-15.7-1.5308-22.679-3.2015-5.82-1.64-11.33-4.17-16.82-6.66l3.83-6.17c3.8 2.95 8.55 4.22 12.99 5.9 25.75 7.95 55.52 1.36 75.12-17.25 12.26-11.59 20.92-27.25 23.31-44.01 3.05-17.34-0.72-35.62-9.44-50.82-4.73-8.31-11.751-16.159-19.031-22.289z"/>
  <path d="m217.6 57.76c14.15-1.87 29.61-1.09 41.98 6.77 11 7.02 17.45 19.58 18.73 32.37 1.18 12.92 0.53 26.81-6.1 38.31-6.65 11.9-19.73 19.12-33.08 20.44-12.77 1.02-26.43 0.56-37.85-5.91-12.03-6.83-19.35-20.14-20.83-33.66-1.44-13.83-0.32-28.87 7.84-40.63 6.64-9.8 17.73-15.93 29.31-17.69m6.84 21.88c-3.82 0.88-7.32 3.1-9.72 6.2-4.36 5.71-4.91 13.23-5.14 20.15 0.12 6.81 0.54 14.08 4.28 20 6.89 10.96 26.06 10.52 31.91-1.23 3.28-7.08 3.39-15.1 3.21-22.76-0.31-6.73-1.96-14.15-7.39-18.66-4.64-4.07-11.28-4.81-17.15-3.7z"/>
  <path d="m593.84 56.97 23.03 0.06-20.85 18.97h-13.19z"/>
  <path d="m26.24 58.01c13.08-0.02 26.17 0 39.26-0.01v5.12c-4.62 0.73-12.31 0.5-12.69 6.81-0.15 21.69 0.01 43.38-0.08 65.07 0.04 2.97 0.09 6.64 2.92 8.42 2.56 1.3 5.53 1.28 8.34 1.34 5.78-0.04 11.73 0.39 17.32-1.45 2.9-0.74 4.52-3.47 6.19-5.71 3-4.59 5.94-9.28 7.89-14.43 1.7-0.11 3.41-0.18 5.11-0.23-0.73 8.99-1.32 18-1.97 27-24.09 0.14-48.19 0.02-72.29 0.06 0.01-1.73 0.01-3.45 0.01-5.18 3.29-0.33 6.85-0.16 9.8-1.86 2.01-1.2 2.51-3.73 2.46-5.89-0.04-22.02 0.02-44.03-0.03-66.05-0.06-6.21-7.6-6.97-12.23-7.94 0-1.69-0.01-3.38-0.01-5.07z"/>
  <path d="m381.75 59h26.74v18h-26.74z"/>
  <path d="m515.75 59.01 26.75-0.01v18l-26.75-0.01z"/>
  <path d="m331.11 84.23c8.71-2.59 19.04-1.62 26.13 4.48 5.36 4.76 8.71 11.48 10.44 18.36 2.18 9.46 2.14 19.55-0.64 28.88-2.56 8.74-9.47 16.22-18.23 18.93-9.91 2.86-21.41 0.84-28.82-6.63l0.01 31.75h-27v-95h25l-0.01 9.19c3.55-4.23 7.64-8.41 13.12-9.96m-2.76 18.35c-4.48 1.4-7.44 5.77-8.04 10.3-0.95 6.29-1.19 13.59 2.88 18.91 3.42 4.53 10.92 5.59 15.02 1.41 3.57-3.37 3.95-8.63 4.24-13.22 0.03-5.23-0.42-11.17-4.36-15.06-2.49-2.58-6.36-3.3-9.74-2.34z"/>
  <path d="m450.74 95.51c4.47-5.51 10.17-10.57 17.36-11.92 7.58-1.31 16.18-1.11 22.5 3.84 6.32 4.72 8.24 13.07 8.4 20.55 0.01 15.34-0.01 30.68 0 46.02l-26.77-0.01c0.01-12.99 0.04-25.98 0-38.97-0.08-3.63-0.91-8.05-4.48-9.84-3.95-1.95-9.32-1.12-12.1 2.43-2.6 3.21-2.9 7.56-3.13 11.53-0.06 11.62 0 23.24-0.02 34.87l-26.75-0.02v-68.98h25.01z"/>
  <path d="m584.58 83.88c10.2-1.67 21.15-1.46 30.74 2.79 9.27 4.03 16.3 12.63 18.71 22.42 1.79 7.32 1.65 15.13-0.53 22.35-2.92 9.83-10.69 18.03-20.26 21.67-8.48 3.32-17.86 3.44-26.79 2.36-10.58-1.42-20.38-7.67-25.89-16.83-5.31-8.82-5.96-19.82-3.56-29.66 3.29-12.82 14.62-22.82 27.58-25.1m7.89 17.67c-6.42 1.63-9.62 8.51-9.88 14.65-0.36 6.33-0.17 13.79 4.85 18.42 4.41 4.56 12.56 4.19 16.74-0.52 3.68-4.07 4.22-9.84 4.32-15.08-0.12-5.36-1.03-11.42-5.39-15.06-2.83-2.63-6.97-3.32-10.64-2.41z"/>
  <path d="m672.77 95.43c4.52-5.46 10.19-10.53 17.38-11.85 7.55-1.29 16.1-1.09 22.41 3.82 6.32 4.7 8.28 13.04 8.44 20.52v46.08l-26.76-0.01c-0.01-12.99 0.03-25.99-0.01-38.98-0.08-3.62-0.91-8.03-4.47-9.82-3.75-1.86-8.83-1.24-11.69 1.95-2.99 3.18-3.29 7.82-3.54 11.96-0.07 11.63 0 23.27-0.03 34.9h-26.75l0.01-69 25 0.01z"/>
  <path d="m110.14 93.12c4.27-5.39 11.08-8.21 17.77-9.04 6.57-0.19 13.87-0.6 19.54 3.35 4.59 3.02 6.82 8.52 7.21 13.83 0.42 12.55-0.3 25.1-0.14 37.65-0.17 2.71 1.52 5.29 3.93 6.45 2.28 0.65 4.7 0.33 7.04 0.41l0.03 4.11c-5.47 1.91-11.76 3.38-17.29 0.95-3.26-1.4-4.79-4.8-5.69-8.01-4.64 5.34-11.31 9.17-18.51 9.19-4.92 0.4-10.31-0.42-13.96-4.02-5.47-4.72-6.18-13.04-3.78-19.5 1.73-4.68 5.8-8.03 10.3-9.92 8.49-3.61 17.54-5.75 25.92-9.65-0.02-5.43 0.42-11.65-3.45-16-4.35-5.37-12.71-4.46-17.94-0.93 0.56 2.65 1.27 5.29 1.41 8-0.01 6.71-11.58 8.72-13.68 2.31-1.22-3-0.78-6.65 1.29-9.18m12.57 30.56c-4.41 4.19-5.63 11.21-3.02 16.68 1.81 3.3 5.8 4.79 9.42 4.43 5.42-0.03 9.88-3.76 13.17-7.73-0.25-7.61 0.38-15.22 0.23-22.83-6.95 2.24-14.36 4.29-19.8 9.45z"/>
  <path d="m381.75 85 26.76 0.03 0.03 68.92-26.79 0.05z"/>
  <path d="m515.76 85h26.74v69l-26.75 0.01z"/>
  <path d="m917.43 164.7c5.1-1.21 10.71-0.82 15.4 1.65 6.64 3.16 11.25 10.26 11.13 17.66 0.11 7.38-4.48 14.46-11.1 17.62-7.34 3.83-16.86 2.9-23.33-2.27-5.52-4.27-8.46-11.6-7.24-18.49 1.14-7.85 7.56-14.24 15.14-16.17z"/>
 </g>
</svg>
