<svg version="1.0" viewBox="0 0 350 317" xmlns="http://www.w3.org/2000/svg">
 <g transform="translate(-129.4 -200.39)">
  <path d="m144.91 378.79h-15.506v-58.784h15.506v58.784z" fill="#a664a1"/>
  <path d="m192.19 365.31c0-1.6691-0.48394-2.7357-1.4518-3.1999-1.2247-0.65183-3.8616-0.97775-7.901-0.97775h-6.8147c-3.111 0-5.1949 0.34568-6.2616 1.0568-1.0765 0.7506-1.6098 2.0049-1.6098 3.7431 0 1.4123 0.61233 2.3703 1.837 2.8938 1.1753 0.60246 3.269 0.89874 6.2714 0.89874h4.3752c4.9382 0 8.0986-0.34567 9.4813-1.0568 1.3827-0.65184 2.074-1.7679 2.074-3.358m-16.345-12.928c4.8098 0 8.3356 0.19753 10.578 0.5827 2.2518 0.37529 4.069 1.274 5.4517 2.716v-3.6641c0-2.1827-0.43456-3.6246-1.2938-4.3456-1.0172-0.84935-2.9925-1.274-5.9159-1.274h-9.0961c-2.3506 0-3.9209 0.18765-4.7011 0.56294-0.80987 0.42468-1.2148 1.3629-1.2148 2.8049h-14.933c0-5.3135 1.4518-8.8887 4.3653-10.726 2.5086-1.5407 7.2196-2.311 14.133-2.311h17.945c10.805 0 16.217 4.9579 16.217 14.884v27.17h-14.676v-4.7505c-2.1432 2.2518-4.0098 3.7036-5.59 4.3653-1.5802 0.66172-4.2369 0.99752-7.9702 0.99752h-10.548c-5.2246 0-8.9677-0.71111-11.21-2.153-2.795-1.7481-4.1974-4.9283-4.1974-9.5504v-3.4468c0-5.1653 1.8963-8.5331 5.6888-10.103 2.8444-1.1753 8.5035-1.758 16.968-1.758" fill="#a664a1"/>
  <path d="m204.86 517.39v-317l274.53 158.5-274.53 158.5z" fill="#a664a1"/>
  <path d="m206.28 348.74v-11.21h7.7332v-9.7183h15.506v9.7183h23.93v11.21h-23.93v15.851c0 1.5111 0.48394 2.5086 1.4419 2.9728 0.96789 0.55308 2.4691 0.81974 4.5135 0.81974 2.4987 0 4.1876-0.34567 5.0468-1.0568 0.85923-0.70121 1.2938-2.0148 1.2938-3.9308v-2.7456h13.471v4.9974c0 4.2073-1.3728 7.5159-4.1184 9.9257-3.0123 2.6765-7.4665 4.0197-13.353 4.0197h-6.0937c-5.3628 0-9.501-0.95801-12.405-2.8641-3.5357-2.3604-5.3036-6.2221-5.3036-11.585v-16.405h-7.7332z" fill="#fff"/>
  <path d="m272.23 337.54v7.8418c0.9185-3.0419 2.8148-5.274 5.6986-6.706 2.4098-1.1654 5.5801-1.7481 9.501-1.7481 5.6394 0 9.659 1.2444 12.059 3.7431 2.4098 2.4888 3.6246 6.6468 3.6246 12.474l-0.15802 3.5851h-13.353c0-2.7851-0.46419-4.7308-1.3827-5.8468-1.0765-1.274-3.0814-1.916-6.0048-1.916-2.8542 0-5.0567 0.57283-6.6072 1.6987-1.6197 1.1259-2.4296 2.9036-2.4296 5.3135v23.002h-15.506v-41.441h14.558z" fill="#fff"/>
  <path d="m333.51 367.93h3.674c4.8592 0 8.0492-0.44443 9.5899-1.3333 1.4814-0.9185 2.2222-2.7456 2.2222-5.4912v-5.6888c0-2.795-0.74074-4.632-2.2222-5.511-1.4814-0.87899-4.6814-1.3135-9.5899-1.3135h-3.674c-3.6147 0-6.2616 0.56294-7.9406 1.6888-1.679 1.1259-2.5086 3.1209-2.5086 5.9949v3.9604c0 2.8345 0.83948 4.8098 2.5283 5.9258 1.6691 1.1753 4.3061 1.7679 7.9208 1.7679m-9.0171-31.002h23.071c4.8098 0 8.5924 1.0172 11.368 3.0616 3.7135 2.716 5.5702 7.1702 5.5702 13.343v9.8961c0 6.2023-1.837 10.647-5.4912 13.343-2.7752 2.0148-6.5875 3.0221-11.447 3.0221h-23.071c-4.8394 0-8.6418-1.0074-11.407-3.0221-3.6839-2.7456-5.5307-7.1998-5.5307-13.343v-9.8961c0-6.232 1.8172-10.676 5.4517-13.343 2.7654-2.0444 6.5974-3.0616 11.486-3.0616" fill="#fff"/>
  <path d="m372.18 337.53h15.506v41.441h-15.506v-41.441zm0-17.343h15.506v12.128h-15.506v-12.128z" fill="#fff"/>
  <path d="m419.81 369.93h5.511c3.7431 0 6.2122-0.22715 7.3875-0.67158 1.1852-0.37531 1.7777-1.2049 1.7777-2.5086 0-1.2444-0.46417-2.1432-1.3827-2.7061-0.90862-0.47408-2.6864-0.7111-5.3036-0.7111h-14.518c-7.2393 0-12.148-1.0173-14.716-3.0616-2.6468-1.9753-3.9703-5.8369-3.9703-11.555 0-4.7011 1.8074-7.9307 5.432-9.7084 2.7752-1.3827 7.2591-2.074 13.452-2.074h10.775c9.8862 0 16.365 0.81974 19.437 2.4493 2.9925 1.7185 4.4838 5.0567 4.4838 9.9948h-15.466c-0.41481-1.2247-1.2839-1.995-2.5876-2.3111-1.2839-0.30617-4.2666-0.46419-8.938-0.46419-4.711 0-7.664 0.15802-8.8492 0.46419-1.1753 0.31604-1.7679 1.1852-1.7679 2.5876 0 0.93826 0.59258 1.5802 1.7679 1.9259 1.1259 0.36543 3.6246 0.54321 7.4764 0.54321h10.736c8.3652 0 14.014 1.3432 16.918 4.0196 1.995 1.837 2.9925 5.0369 2.9925 9.5998 0 5.5406-1.4518 9.2245-4.3653 11.061-2.9629 1.8666-8.8492 2.795-17.669 2.795h-14.627c-7.2196 0-12.266-0.97776-15.15-2.953-2.9135-1.9851-4.3653-5.5406-4.3653-10.657h15.97c0 1.353 0.56296 2.3407 1.6987 2.9432 1.1259 0.6617 3.7431 0.9975 7.8616 0.9975" fill="#fff"/>
 </g>
</svg>
