<svg version="1.1" viewBox="0 0 346.4 302.01" xmlns="http://www.w3.org/2000/svg">
 <defs>
  <radialGradient id="a" cx="284.27" cy="-52.427" r="147.42" gradientTransform="matrix(-2.8393 0 7.5048e-8 -1.3329 1103 -69.348)" gradientUnits="userSpaceOnUse">
   <stop stop-color="#e78ea5" offset="0"/>
   <stop stop-color="#de5e7f" offset=".36417"/>
   <stop stop-color="#d93d66" offset=".56121"/>
   <stop stop-color="#d7345f" offset=".83026"/>
   <stop stop-color="#d93f68" offset="1"/>
  </radialGradient>
 </defs>
 <filter x="-.010603" y="-.01382" width="1.0212" height="1.0276" color-interpolation-filters="sRGB">
  <feGaussianBlur stdDeviation="1.5259926"/>
 </filter>
 <path d="m225.23 26.04h0.999v5.4679h-0.999z" fill="#a71739"/>
 <path d="m207.91 54.12h2.6894v5h-2.6894z" fill="#a71739"/>
 <path d="m283.52 5.0105c-26.076 0.16858-57.475 19.401-70.988 41.278-13.393 21.683 15.096 213.27 56.55 220.77 41.522 7.5219 63.182-0.48591 76.315-11.397l-28.961-48.237-24.107 11.864-27.943-159.23 25.03 0.68672 5.4228-55.222c-3.816-0.37734-7.594-0.54504-11.319-0.52096zm-283.52 11.343v244.66h104.48v-44.116h-44.116v-200.55zm92.613 0v42.767h34.1v201.9h61.711l9e-5 -201.9 36.799-3.2e-4 -4e-5 -42.767z" fill="#a71739" fill-rule="evenodd"/>
 <path d="m284.52 0.0105c-26.076 0.16858-57.475 19.401-70.988 41.278-13.393 21.683 15.096 213.27 56.55 220.77 41.522 7.5219 63.182-0.48591 76.315-11.397l-28.961-48.237-24.107 11.864-27.943-159.23 25.03 0.68672 5.4229-55.222c-3.816-0.37734-7.5941-0.54504-11.319-0.52096zm-283.52 11.343v244.66h104.48v-44.116h-44.116v-200.55zm92.613 0v42.767h34.1v201.9h61.711v-201.9h36.799v-42.767z" fill="#d01244" fill-rule="evenodd"/>
 <g fill="url(#a)">
  <g fill="url(#a)" fill-rule="evenodd">
   <path d="m1 11.35v118.85c19.743-4.8104 40.356-4.8397 60.362-1.6039v-117.25z"/>
   <path d="m284.52 0.0105c-0.7354 5e-3 -1.4775 0.0297-2.2207 0.0645-0.2135 0.01-0.4285 0.0247-0.6426 0.0371-0.5703 0.033-1.1425 0.073-1.7168 0.12304-0.2051 0.0179-0.4097 0.0347-0.6152 0.0547-0.6947 0.0677-1.3905 0.1465-2.0899 0.23828-0.068 9e-3 -0.1351 0.0163-0.2031 0.0254-0.7535 0.10131-1.5117 0.21917-2.2695 0.34766-0.231 0.0392-0.4621 0.0833-0.6934 0.125-0.5312 0.0956-1.0629 0.19616-1.5957 0.30469-0.2779 0.0566-0.5557 0.11374-0.834 0.17383-0.6641 0.14335-1.3284 0.2943-1.9941 0.45703-0.08 0.0196-0.1601 0.0368-0.2403 0.0566-0.7613 0.1887-1.5247 0.39219-2.2871 0.60547-0.2503 0.07-0.4997 0.1461-0.75 0.21875-0.435 0.12618-0.8697 0.25865-1.3047 0.39257-1.1654 0.35899-2.3315 0.73758-3.4941 1.1504-0.019 7e-3 -0.038 0.0147-0.057 0.0215-1.1457 0.40768-2.2884 0.84723-3.4278 1.3047-0.226 0.0907-0.452 0.18082-0.6777 0.27343-1.177 0.48313-2.3499 0.98634-3.5156 1.5195-0.01 5e-3 -0.019 0.011-0.029 0.0156-1.1776 0.53908-2.3476 1.106-3.5098 1.6934-0.1412 0.0713-0.2829 0.14086-0.4238 0.21289-1.1851 0.60583-2.3631 1.2338-3.5274 1.8867-0.01 5e-3 -0.02 0.0102-0.029 0.0156-1.147 0.64373-2.2795 1.3135-3.4023 2-0.1189 0.0727-0.2389 0.14369-0.3574 0.2168-1.1412 0.70396-2.2695 1.4268-3.3809 2.1719-0.024 0.0162-0.048 0.0326-0.072 0.0488-1.1188 0.75142-2.2205 1.5244-3.3047 2.3145-0.046 0.0335-0.093 0.066-0.1386 0.0996-1.1097 0.81139-2.2011 1.6417-3.2696 2.4902-1.0855 0.8621-2.1474 1.7436-3.1855 2.6406s-2.0511 1.8095-3.0369 2.7379c-4e-4 3.2e-4 0-3.3e-4 0 0l-2.1e-4 28.071-15.625 3e-4c-0.0664 0.79995-0.1241 1.6273-0.174 2.4821-0.0145 0.24854-0.024 0.51257-0.0371 0.76563-0.0309 0.59585-0.0607 1.198-0.084 1.8184-0.059 1.5691-0.0887 3.2233-0.0996 4.9414-1e-3 0.20371-5e-3 0.40562-6e-3 0.61133-5e-3 1.6168 0.0168 3.3077 0.0527 5.043 0.0286 1.3801 0.0808 2.8295 0.13477 4.2793 0.0317 0.85072 0.0515 1.6676 0.0918 2.541 0.10697 2.3182 0.23943 4.7057 0.40625 7.1719 9e-5 1e-3 -8e-5 3e-3 0 4e-3 0.0387 0.57174 0.0949 1.1807 0.13672 1.7598 0.13989 1.9357 0.28804 3.8897 0.46289 5.9023 0.0997 1.1474 0.21916 2.3375 0.33008 3.5078 0.14502 1.5305 0.28921 3.0563 0.45313 4.623 0.13191 1.2605 0.27983 2.5501 0.42382 3.832 0.16694 1.4866 0.33462 2.9754 0.51758 4.4883 0.16897 1.3968 0.35076 2.8116 0.53321 4.2285 0.19214 1.4926 0.3888 2.9915 0.5957 4.5039 0.19312 1.4115 0.39381 2.8312 0.59961 4.2578 0.22334 1.5485 0.45529 3.1061 0.69336 4.6699 0.2164 1.4213 0.43371 2.8435 0.66207 4.2754 0.2542 1.5939 0.5222 3.1964 0.791 4.8008 0.2431 1.4503 0.4834 2.8987 0.7383 4.3555 0.2719 1.5543 0.5606 3.1146 0.8457 4.6738 0.2783 1.5218 0.5511 3.0422 0.8418 4.5664 0.2938 1.5406 0.6058 3.0804 0.9121 4.6211 0.2976 1.4966 0.5854 2.9937 0.8945 4.4883 0.099 0.47675 0.2069 0.94939 0.3067 1.4258 0.518 2.4733 1.0427 4.9444 1.5918 7.4024 0.2862 1.2812 0.5903 2.5473 0.8847 3.8223 0.3473 1.5034 0.6942 3.0073 1.0528 4.5 20.326 1.2715 40.785 1.3263 61.031-0.91797l-20.795-118.5 25.031 0.6875 5.4218-55.223c-0.9546-0.0944-1.9057-0.17578-2.8554-0.24414-0.9491-0.0684-1.8944-0.12493-2.8379-0.16797-1.8873-0.0859-3.7624-0.12142-5.625-0.10937zm-73.924 54.11c0.49876-6.0137 1.464-10.45 2.9354-12.832 3.2831-5.3152 7.6277-10.471 12.69-15.239l-2.1e-4 -14.695h-132.61v42.766h34.102v95.609c19.801 6.9504 41.061 12.026 61.709 15.439v-111.05z"/>
  </g>
 </g>
 <g transform="translate(-655.48 -236.74)" fill="#fff">
  <path d="m659.59 538.16h-3.4032v-29.588h3.4032z"/>
  <path d="m683.56 538.16h-3.3815q-0.19509-1.0405-0.39018-3.9451-2.2543 4.5304-7.6734 4.5304-3.685 0-5.6575-1.9509-1.9726-1.9509-1.9726-4.6821 0-3.3165 2.8179-5.4408 2.8179-2.146 9.581-2.146 0.91041 0 2.9046 0.0867 0-2.6012-0.41185-3.75-0.39017-1.1705-1.6908-1.8642-1.3006-0.69364-3.4249-0.69364-5.1806 0-6.026 3.9451l-3.1431-0.54191q1.1488-6.0477 9.6677-6.0477 4.5304 0 6.4162 2.0159 1.9075 1.9942 1.9075 6.9364v9.2992q0 2.3194 0.47689 4.2486zm-3.7717-10.947q-2.0809-0.13006-3.1648-0.13006-4.0318 0-6.2645 1.3223t-2.2327 3.8584q0 1.604 1.1922 2.7312 1.2139 1.1272 3.4899 1.1272 3.0781 0 5.0506-2.2327 1.9942-2.2327 1.9942-5.2457 0-0.60694-0.065-1.4306z"/>
  <path d="m699.84 535.82v2.6879q-1.7991 0.23844-3.1214 0.23844-6.3512 0-6.3512-6.633v-13.179h-3.8801v-2.6662h3.8801l0.15174-5.5058 3.1648-0.30347v5.8093h4.8989v2.6662h-4.8989v13.743q0 3.3815 3.5116 3.3815 1.1705 0 2.6445-0.23844z"/>
  <path d="m728.3 531.63 3.1648 0.65029q-0.86706 2.7962-3.3815 4.6388-2.5145 1.8208-5.9177 1.8208-4.487 0-7.2616-3.1431-2.7746-3.1648-2.7746-8.2804 0-5.224 2.883-8.4321 2.883-3.2298 7.2399-3.2298 4.2919 0 6.8931 2.9697 2.6228 2.9697 2.6879 8.8873h-15.91q0 4.9639 2.0809 6.698t4.4003 1.7341q4.1835 0 5.896-4.3136zm-0.19509-6.6547q-0.0434-1.8425-0.60694-3.2731-0.56358-1.4306-1.9075-2.4278-1.3439-1.0188-3.2298-1.0188-2.5361 0-4.3136 1.8208-1.7558 1.8208-1.9726 4.8989z"/>
  <path d="m754.25 538.16h-3.1864v-14.068q0-3.0347-1.3222-4.2702-1.3223-1.2356-3.2081-1.2356-2.6012 0-4.3786 2.0809-1.7558 2.0809-1.7558 5.4841v12.009h-3.4032v-21.893h3.1648v4.0318q2.6662-4.6388 6.9148-4.6388 2.4494 0 4.1619 1.2789 1.7341 1.2572 2.3627 2.8396 0.6503 1.5824 0.6503 5.7226z"/>
  <path d="m778.2 508.57v29.588h-3.0997v-3.75q-2.2977 4.3353-6.9148 4.3353-3.8367 0-6.3078-3.2081-2.4711-3.2298-2.4711-8.1503 0-5.0289 2.4494-8.3671 2.4494-3.3598 6.5029-3.3598 3.9451 0 6.4379 3.5983v-10.686zm-3.4032 16.149q0-2.883-1.7558-4.6171t-4.0968-1.7341q-2.5361 0-4.1835 2.2544-1.6257 2.2543-1.6257 6.3295 0 4.4003 1.4957 6.698 1.5173 2.2977 4.1402 2.2977 2.3844 0 4.2052-1.9942t1.8208-4.6821z"/>
  <path d="m802.17 538.16h-3.3815q-0.19509-1.0405-0.39018-3.9451-2.2543 4.5304-7.6734 4.5304-3.685 0-5.6575-1.9509-1.9726-1.9509-1.9726-4.6821 0-3.3165 2.8179-5.4408 2.8179-2.146 9.581-2.146 0.91041 0 2.9046 0.0867 0-2.6012-0.41185-3.75-0.39017-1.1705-1.6908-1.8642-1.3006-0.69364-3.4249-0.69364-5.1806 0-6.026 3.9451l-3.1431-0.54191q1.1488-6.0477 9.6677-6.0477 4.5304 0 6.4162 2.0159 1.9075 1.9942 1.9075 6.9364v9.2992q0 2.3194 0.47689 4.2486zm-3.7717-10.947q-2.0809-0.13006-3.1648-0.13006-4.0318 0-6.2645 1.3223t-2.2327 3.8584q0 1.604 1.1922 2.7312 1.2139 1.1272 3.4899 1.1272 3.078 0 5.0506-2.2327 1.9942-2.2327 1.9942-5.2457 0-0.60694-0.065-1.4306z"/>
  <path d="m822.98 531.63 3.1648 0.65029q-0.86705 2.7962-3.3815 4.6388-2.5145 1.8208-5.9176 1.8208-4.487 0-7.2616-3.1431-2.7746-3.1648-2.7746-8.2804 0-5.224 2.883-8.4321 2.883-3.2298 7.2399-3.2298 4.2919 0 6.8931 2.9697 2.6228 2.9697 2.6879 8.8873h-15.91q0 4.9639 2.0809 6.698t4.4003 1.7341q4.1836 0 5.896-4.3136zm-0.19508-6.6547q-0.0434-1.8425-0.60695-3.2731-0.56358-1.4306-1.9075-2.4278-1.3439-1.0188-3.2298-1.0188-2.5361 0-4.3136 1.8208-1.7558 1.8208-1.9726 4.8989z"/>
  <path d="m848.93 538.16h-3.1864v-14.068q0-3.0347-1.3222-4.2702-1.3223-1.2356-3.2081-1.2356-2.6012 0-4.3786 2.0809-1.7558 2.0809-1.7558 5.4841v12.009h-3.4032v-21.893h3.1648v4.0318q2.6662-4.6388 6.9148-4.6388 2.4494 0 4.1619 1.2789 1.7341 1.2572 2.3627 2.8396 0.6503 1.5824 0.6503 5.7226z"/>
  <path d="m868.72 530.48 3.078 0.54191q-0.65029 3.62-2.883 5.6792-2.2327 2.0376-5.5708 2.0376-4.5304 0-6.9148-3.3382-2.3627-3.3382-2.3627-8.1503 0-4.9856 2.4928-8.2804 2.5145-3.3165 6.8281-3.3165 3.5766 0 5.7226 2.146 2.1676 2.1243 2.6879 5.5058l-3.078 0.58526q-0.86705-5.4191-5.2457-5.4191-2.8179 0-4.3353 2.4061-1.5174 2.3844-1.5174 6.1994 0 4.2052 1.4957 6.5463 1.5174 2.3194 4.2486 2.3194 4.2269 0 5.3541-5.4624z"/>
  <path d="m893.65 538.16h-3.3815q-0.19509-1.0405-0.39018-3.9451-2.2543 4.5304-7.6734 4.5304-3.685 0-5.6575-1.9509-1.9726-1.9509-1.9726-4.6821 0-3.3165 2.8179-5.4408 2.8179-2.146 9.581-2.146 0.91041 0 2.9046 0.0867 0-2.6012-0.41185-3.75-0.39018-1.1705-1.6908-1.8642-1.3006-0.69364-3.4249-0.69364-5.1807 0-6.026 3.9451l-3.1431-0.54191q1.1488-6.0477 9.6677-6.0477 4.5304 0 6.4162 2.0159 1.9075 1.9942 1.9075 6.9364v9.2992q0 2.3194 0.47688 4.2486zm-3.7717-10.947q-2.0809-0.13006-3.1648-0.13006-4.0318 0-6.2645 1.3223t-2.2327 3.8584q0 1.604 1.1922 2.7312 1.2139 1.1272 3.4899 1.1272 3.078 0 5.0506-2.2327 1.9942-2.2327 1.9942-5.2457 0-0.60694-0.065-1.4306z"/>
  <path d="m897.05 532.48 3.2515-0.67197q1.0838 4.1402 6.8497 4.1402 2.1243 0 3.5983-0.95376t1.474-2.6879q0-2.5795-3.75-3.2731l-4.6171-0.86706q-2.7096-0.52023-4.3136-2.0376t-1.604-4.0101q0-2.7529 2.1893-4.5954 2.1893-1.8642 5.896-1.8642 7.1315 0 8.8006 5.5708l-3.1214 0.67197q-1.3439-3.4249-5.5275-3.4249-2.0809 0-3.4249 0.86705-1.3223 0.84538-1.3223 2.3844 0 2.4278 3.4032 3.0564l4.2702 0.75867q6.698 1.2139 6.698 6.4812 0 3.013-2.4928 4.8772-2.4928 1.8425-6.633 1.8425-7.7818 0-9.6243-6.2645z"/>
  <path d="m937.78 538.16h-3.3815q-0.19509-1.0405-0.39017-3.9451-2.2544 4.5304-7.6734 4.5304-3.685 0-5.6575-1.9509-1.9726-1.9509-1.9726-4.6821 0-3.3165 2.8179-5.4408 2.8179-2.146 9.581-2.146 0.91041 0 2.9046 0.0867 0-2.6012-0.41186-3.75-0.39017-1.1705-1.6908-1.8642-1.3006-0.69364-3.4249-0.69364-5.1807 0-6.026 3.9451l-3.1431-0.54191q1.1488-6.0477 9.6677-6.0477 4.5304 0 6.4162 2.0159 1.9075 1.9942 1.9075 6.9364v9.2992q0 2.3194 0.47688 4.2486zm-3.7717-10.947q-2.0809-0.13006-3.1648-0.13006-4.0318 0-6.2645 1.3223t-2.2327 3.8584q0 1.604 1.1922 2.7312 1.2139 1.1272 3.4899 1.1272 3.078 0 5.0506-2.2327 1.9942-2.2327 1.9942-5.2457 0-0.60694-0.065-1.4306z"/>
  <path d="m948.71 535.73a2.417 2.428 0 0 1-2.417 2.428 2.417 2.428 0 0 1-2.417-2.428 2.417 2.428 0 0 1 2.417-2.428 2.417 2.428 0 0 1 2.417 2.428z"/>
  <path d="m969.69 531.63 3.1648 0.65029q-0.86705 2.7962-3.3815 4.6388-2.5145 1.8208-5.9176 1.8208-4.487 0-7.2616-3.1431-2.7746-3.1648-2.7746-8.2804 0-5.224 2.883-8.4321 2.883-3.2298 7.2399-3.2298 4.2919 0 6.8931 2.9697 2.6228 2.9697 2.6879 8.8873h-15.91q0 4.9639 2.0809 6.698t4.4003 1.7341q4.1835 0 5.896-4.3136zm-0.19509-6.6547q-0.0433-1.8425-0.60694-3.2731-0.56358-1.4306-1.9075-2.4278-1.3439-1.0188-3.2298-1.0188-2.5361 0-4.3136 1.8208-1.7558 1.8208-1.9726 4.8989z"/>
  <path d="m975.43 532.48 3.2515-0.67197q1.0838 4.1402 6.8497 4.1402 2.1243 0 3.5983-0.95376t1.474-2.6879q0-2.5795-3.75-3.2731l-4.6171-0.86706q-2.7096-0.52023-4.3136-2.0376-1.6041-1.5174-1.6041-4.0101 0-2.7529 2.1893-4.5954 2.1893-1.8642 5.896-1.8642 7.1315 0 8.8006 5.5708l-3.1214 0.67197q-1.3439-3.4249-5.5275-3.4249-2.0809 0-3.4249 0.86705-1.3223 0.84538-1.3223 2.3844 0 2.4278 3.4032 3.0564l4.2702 0.75867q6.698 1.2139 6.698 6.4812 0 3.013-2.4928 4.8772-2.4928 1.8425-6.633 1.8425-7.7818 0-9.6243-6.2645z"/>
  <path d="m707.02 516.27v21.893h-3.4032v-21.893z"/>
  <path d="m707.12 510.46a1.8315 1.886 0 0 1-1.8315 1.886 1.8315 1.886 0 0 1-1.8315-1.886 1.8315 1.886 0 0 1 1.8315-1.886 1.8315 1.886 0 0 1 1.8315 1.886z"/>
 </g>
</svg>
