<svg version="1.1" viewBox="0 0 583.27 236.63" xmlns="http://www.w3.org/2000/svg">
 <defs>
  <clipPath id="d">
   <path d="m386.63 457.56 7.709 13.354 16.544-9.552-7.71-13.353"/>
  </clipPath>
  <clipPath id="c">
   <path d="m400.16 463.27-1.977-7.562s3.244-0.043 4.972-0.043c1.854 0 3.076 0.759 3.413 1.897 0.368 1.244 0.421 1.853 0.631 2.991 0.384 2.072-1.189 2.717-2.242 2.717h-4.797m2.71-5.895c-1.077 5e-3 -1.93 0.011-1.93 0.011l1.09 4.198h2.112c0.847 0 0.867-0.809 0.768-1.301-0.118-0.59-0.295-1.338-0.511-1.928-0.155-0.42-0.516-0.98-1.518-0.98h-0.011m-10.974 5.891-1.981-7.584h2.234l0.789 2.948h3.135l-0.758-2.948h2.19l1.961 7.579h-2.19l-0.745-2.86h-3.135l0.748 2.865h-2.248"/>
  </clipPath>
  <clipPath id="b">
   <path d="m362.98 450.34h44.505v17.794h-44.505v-17.794"/>
  </clipPath>
  <linearGradient id="a" x2="1" gradientTransform="matrix(7.229 12.521 12.521 -7.229 394.88 452.81)" gradientUnits="userSpaceOnUse">
   <stop stop-color="#343334" offset="0"/>
   <stop stop-color="#d5d7d8" offset=".17033"/>
   <stop stop-color="#a9acae" offset=".39011"/>
   <stop stop-color="#7c7e81" offset=".52747"/>
   <stop stop-color="#c6c8ca" offset=".64285"/>
   <stop stop-color="#515153" offset=".72528"/>
   <stop stop-color="#808285" offset=".82967"/>
   <stop stop-color="#dcddde" offset="1"/>
  </linearGradient>
 </defs>
 <g transform="matrix(13.482 0 0 -13.482 -4907.3 6311.2)">
  <g clip-path="url(#d)">
   <g clip-path="url(#c)">
    <g clip-path="url(#b)">
     <path d="m362.98 450.34h44.505v17.794h-44.505v-17.794" fill="url(#a)"/>
    </g>
   </g>
  </g>
 </g>
 <g transform="matrix(13.482 0 0 -13.482 551.6 105.86)">
  <path d="m0 0 0.036-7e-3c-0.118-0.592-0.295-1.34-0.513-1.934-0.154-0.428-0.534-1.006-1.553-1.004h-0.011c-1.076 5e-3 -1.929 0.011-1.929 0.011h-0.047l1.109 4.272h2.141c0.329 0 0.546-0.122 0.674-0.304 0.129-0.18 0.17-0.414 0.17-0.638 0-0.143-0.017-0.282-0.041-0.403l-0.072 0.014c0.023 0.117 0.04 0.252 0.04 0.389-5e-3 0.433-0.153 0.865-0.771 0.868h-2.084l-1.083-4.17-0.036 9e-3v0.037c2e-3 0 0.853-7e-3 1.93-0.011h0.01c0.988 2e-3 1.33 0.543 1.484 0.955 0.216 0.587 0.392 1.334 0.51 1.923zm0.047 2.987v-0.037h-4.769l-1.969-7.535-0.036 9e-3 1e-3 0.037c5e-3 0 3.244-0.042 4.971-0.042 1.845 1e-3 3.047 0.753 3.377 1.87 0.368 1.242 0.42 1.848 0.631 2.988 0.04 0.215 0.059 0.415 0.059 0.599-0.039 1.574-1.368 2.078-2.301 2.081v0.073c0.952-2e-3 2.338-0.526 2.338-2.147 0-0.189-0.019-0.393-0.059-0.613-0.211-1.136-0.264-1.748-0.633-2.995-0.344-1.159-1.586-1.923-3.448-1.923-1.728 0-4.972 0.043-4.972 0.043h-0.047l1.995 7.635h4.826v-0.036zm-7.68-9e-3 0.035-9e-3 -0.753-2.888h-3.211l0.748 2.866h-2.172l-1.961-7.511h2.158l0.788 2.948h3.212l-0.759-2.948h2.114l1.943 7.505h-2.142v0.037l0.035-9e-3 -0.035 9e-3v0.037h2.237l-1.981-7.653h-2.266l0.759 2.948h-3.06l-0.789-2.948h-2.309l1.999 7.658h2.325l-0.748-2.865h3.058l0.746 2.86h0.029v-0.037" fill="#404041"/>
 </g>
 <g transform="matrix(1.4517 0 0 1.4517 -1588.7 -323.03)">
  <g transform="matrix(4.0166,0,0,4.0166,-3369.7,-1213.3)">
   <path d="m1124.5 398.05h40.428v-40.581h-40.428z" fill="#ec1c24"/>
   <path d="m1111.4 381.84h2.617v-9.748h-2.617z" fill="#ec1c24"/>
   <g transform="matrix(1,0,0,-1,211.15,964.74)" clip-path="url(#id155)">
    <g transform="translate(911.43,587.11)">
     <path d="m0 0s0.179 1.405-0.729 1.405h-2.894s-0.433 0.037-0.433-0.556h-2.344c0 1.657 1.755 1.974 1.755 1.974h4.746s1.838-0.349 1.838-1.929v-4.857h-1.784v0.605s-0.252-0.579-1.246-0.579h-3.582c-1.126 0-1.986 0.88-1.986 1.992s0.761 1.945 1.955 1.945zm-0.161-1.781c0 0.268-0.256 0.489-0.57 0.489h-3.201c-0.314 0-0.57-0.221-0.57-0.489v-0.331c0-0.266 0.256-0.485 0.57-0.485h3.201c0.314 0 0.57 0.219 0.57 0.485v0.331" fill="#ec1c24"/>
    </g>
    <g transform="translate(930.32,589.94)">
     <path d="m0 0v-3.772s0.089-1.357-1.548-1.357h-2.028c-0.702 0-0.692 0.963-0.692 0.963v4.166h-2.439v-4.166s-0.363-2.688 2.491-2.688h2.378c1.859 0 1.838 0.912 1.838 0.912v-1.087h2.446v7.029h-2.446" fill="#fff"/>
    </g>
    <g transform="translate(937.08,582.92)">
     <path d="m0 0v4.008s0.02 1.185 1.175 1.185h1.976c0.685 0 0.945-1.028 0.945-1.028v-4.165h2.439v4.165s0.364 2.851-2.491 2.851h-2.053c-1.704 0-1.991-1.019-1.991-1.019v1.03h-2.447v-7.027h2.447" fill="#fff"/>
    </g>
    <g transform="translate(945.47,587.88)">
     <path d="m0 0s0.27 2.026 1.952 2.026h4.315c2.02 0 1.979-1.521 1.979-1.521v-2.392h-5.859s-0.218-1.579 0.651-1.579h2.602c0.727 0 0.653 0.714 0.653 0.714h1.981s0.197-2.131-2.197-2.131h-3.908c-1.934 0-2.169 2.147-2.169 2.147zm6.333-0.64s0.237 1.183-0.773 1.183c-0.707 0-1.551 0.032-2.494 0.032-0.944 0-0.774-1.25-0.774-1.25l4.041 0.035" fill="#fff"/>
    </g>
   </g>
  </g>
 </g>
</svg>
