<svg version="1.0" viewBox="0 0 215 163" xmlns="http://www.w3.org/2000/svg">
 <g transform="translate(-1094.2 -222.48)">
  <g transform="matrix(4.0166 0 0 4.0166 -3369.7 -1213.3)">
   <path d="m1124.5 398.05h40.428v-40.581h-40.428v40.581z" fill="#ec1c24"/>
   <path d="m1111.4 381.84h2.617v-9.748h-2.617v9.748z" fill="#ec1c24"/>
   <g transform="matrix(1 0 0 -1 211.15 964.74)" clip-path="url(#id155)">
    <g transform="translate(911.43 587.11)">
     <path d="m0 0s0.179 1.405-0.729 1.405h-2.894s-0.433 0.037-0.433-0.556h-2.344c0 1.657 1.755 1.974 1.755 1.974h4.746s1.838-0.349 1.838-1.929v-4.857h-1.784v0.605s-0.252-0.579-1.246-0.579h-3.582c-1.126 0-1.986 0.88-1.986 1.992s0.761 1.945 1.955 1.945h4.704zm-0.161-1.781c0 0.268-0.256 0.489-0.57 0.489h-3.201c-0.314 0-0.57-0.221-0.57-0.489v-0.331c0-0.266 0.256-0.485 0.57-0.485h3.201c0.314 0 0.57 0.219 0.57 0.485v0.331" fill="#ec1c24"/>
    </g>
    <g transform="translate(930.32 589.94)">
     <path d="m0 0v-3.772s0.089-1.357-1.548-1.357h-2.028c-0.702 0-0.692 0.963-0.692 0.963v4.166h-2.439v-4.166s-0.363-2.688 2.491-2.688h2.378c1.859 0 1.838 0.912 1.838 0.912v-1.087h2.446v7.029h-2.446" fill="#fff"/>
    </g>
    <g transform="translate(937.08 582.92)">
     <path d="m0 0v4.008s0.02 1.185 1.175 1.185h1.976c0.685 0 0.945-1.028 0.945-1.028v-4.165h2.439v4.165s0.364 2.851-2.491 2.851h-2.053c-1.704 0-1.991-1.019-1.991-1.019v1.03h-2.447v-7.027h2.447" fill="#fff"/>
    </g>
    <g transform="translate(945.47 587.88)">
     <path d="m0 0s0.27 2.026 1.952 2.026h4.315c2.02 0 1.979-1.521 1.979-1.521v-2.392h-5.859s-0.218-1.579 0.651-1.579h2.602c0.727 0 0.653 0.714 0.653 0.714h1.981s0.197-2.131-2.197-2.131h-3.908c-1.934 0-2.169 2.147-2.169 2.147v2.736zm6.333-0.64s0.237 1.183-0.773 1.183c-0.707 0-1.551 0.032-2.494 0.032-0.944 0-0.774-1.25-0.774-1.25l4.041 0.035" fill="#fff"/>
    </g>
   </g>
  </g>
 </g>
</svg>
