<svg version="1.1" viewBox="0 0 281.4 372.6" xml:space="preserve" xmlns="http://www.w3.org/2000/svg">
<style type="text/css">
	.st0{fill:#00A7E0;}
</style>
<g transform="translate(-155.9,-151.1)">
				<path d="m168.4 515.7h3.2c0.5 1.5 0.8 2.8 0.8 3.9s-0.1 2-0.3 2.7c-2.3 0.4-4.8 0.6-7.5 0.6-5.8 0-8.7-3-8.7-9v-55.3l0.6-0.5h3.4c1.8 0 3.1 0.5 3.8 1.4s1.1 2.4 1.1 4.4v47.9c0.2 2.6 1.3 3.9 3.6 3.9z"/>
				<path d="m215.6 518.5c-0.7 2.1-1.8 3.7-3.4 4.6-3.5-0.6-5.8-2.5-7-5.4-4.2 4-8.4 6-12.8 6-2.2 0-4.2-0.3-5.8-1-1.7-0.7-3.1-1.7-4.2-2.9s-2-2.6-2.5-4.1c-0.6-1.5-0.8-3.2-0.8-4.9 0-4.8 1.5-8.4 4.6-10.9s7.1-3.7 12.2-3.7c1.5 0 2.9 0 4.3 0.1s2.8 0.2 4.1 0.5v-3.4c0-5.3-2.4-7.9-7.2-7.9-3.3 0-7.9 1.1-13.8 3.4-1.7-1.5-2.6-3.7-2.6-6.6 6-2.7 12-4 18.2-4 4.6 0 8.1 1.2 10.6 3.6s3.8 6.1 3.8 11v18c-0.1 3.7 0.7 6.2 2.3 7.6zm-21.7-2c3.7 0 7.2-1.8 10.4-5.3v-8.3c-1.2-0.1-2.4-0.2-3.7-0.3s-2.6-0.1-4-0.1c-2.7 0-4.8 0.7-6.3 2s-2.2 3.1-2.2 5.2 0.5 3.8 1.6 5c0.9 1.2 2.4 1.8 4.2 1.8z"/>
				<path d="m267.8 479.2c1.1-0.2 2.3-0.4 3.9-0.4 1.5 0 3 0.2 4.3 0.6l0.3 0.7-12.4 19.4 14.1 21.6c-2.2 1.4-4.2 2.1-6.1 2.1s-3.5-0.9-4.8-2.7l-8.8-13.4-9.5 15.5c-0.7 0.2-2 0.4-3.8 0.4s-3.4-0.2-4.6-0.7l-0.3-0.7 13.8-21.4-12.6-19.6c1.9-1.4 3.8-2.1 5.8-2.1s3.7 0.9 5 2.7l7.5 11.6z"/>
				<path d="m319.9 518.5c-0.7 2.1-1.8 3.7-3.4 4.6-3.5-0.6-5.8-2.5-7-5.4-4.2 4-8.4 6-12.8 6-2.2 0-4.2-0.3-5.8-1-1.7-0.7-3.1-1.7-4.2-2.9s-2-2.6-2.5-4.1c-0.6-1.5-0.8-3.2-0.8-4.9 0-4.8 1.5-8.4 4.6-10.9s7.1-3.7 12.2-3.7c1.5 0 2.9 0 4.3 0.1s2.8 0.2 4.1 0.5v-3.4c0-5.3-2.4-7.9-7.2-7.9-3.3 0-7.9 1.1-13.8 3.4-1.7-1.5-2.6-3.7-2.6-6.6 6-2.7 12-4 18.2-4 4.6 0 8.1 1.2 10.6 3.6s3.8 6.1 3.8 11v18c-0.2 3.7 0.7 6.2 2.3 7.6zm-21.8-2c3.7 0 7.2-1.8 10.4-5.3v-8.3c-1.2-0.1-2.4-0.2-3.7-0.3s-2.6-0.1-4-0.1c-2.7 0-4.8 0.7-6.3 2s-2.2 3.1-2.2 5.2 0.5 3.8 1.6 5c1 1.2 2.4 1.8 4.2 1.8z"/>
				<path d="m328.3 483.4c0.6-2.2 1.7-3.8 3.3-4.8 4 0.9 6.7 3.5 8 7.8 2.3-5.2 6.2-7.8 11.5-7.8 1.4 0 3 0.2 4.6 0.5 0 3.4-0.7 6.3-2.2 8.6-0.5-0.2-1.7-0.3-3.6-0.4-4 0-7.1 2.2-9.4 6.7v28.6c-1.1 0.2-2.6 0.4-4.5 0.4s-3.4-0.1-4.5-0.4v-30.1c0.1-4-1-7-3.2-9.1z"/>
				<path d="m387.2 479.2c1.1-0.2 2.3-0.4 3.9-0.4 1.5 0 2.9 0.2 4.3 0.6l0.3 0.7-12.4 19.4 14.1 21.6c-2.2 1.4-4.2 2.1-6.1 2.1s-3.5-0.9-4.8-2.7l-8.8-13.4-9.5 15.5c-0.7 0.2-2 0.4-3.8 0.4s-3.4-0.2-4.6-0.7l-0.3-0.7 13.8-21.4-12.6-19.6c1.9-1.4 3.8-2.1 5.8-2.1s3.7 0.9 5 2.7l7.5 11.6z"/>
				<path d="m437.3 518.5c-0.7 2.1-1.8 3.7-3.4 4.6-3.5-0.6-5.8-2.5-7-5.4-4.2 4-8.4 6-12.8 6-2.2 0-4.2-0.3-5.8-1-1.7-0.7-3.1-1.7-4.2-2.9s-2-2.6-2.5-4.1c-0.6-1.5-0.8-3.2-0.8-4.9 0-4.8 1.5-8.4 4.6-10.9s7.2-3.7 12.2-3.7c1.5 0 2.9 0 4.3 0.1s2.8 0.2 4.1 0.5v-3.4c0-5.3-2.4-7.9-7.2-7.9-3.3 0-7.9 1.1-13.8 3.4-1.7-1.5-2.6-3.7-2.6-6.6 6-2.7 12-4 18.2-4 4.6 0 8.1 1.2 10.6 3.6s3.8 6.1 3.8 11v18c-0.2 3.7 0.6 6.2 2.3 7.6zm-21.8-2c3.7 0 7.2-1.8 10.4-5.3v-8.3c-1.2-0.1-2.4-0.2-3.7-0.3s-2.6-0.1-4-0.1c-2.7 0-4.8 0.7-6.3 2s-2.2 3.1-2.2 5.2 0.5 3.8 1.6 5c1 1.2 2.4 1.8 4.2 1.8z"/>
		</g>
<g transform="translate(-155.9,-151.1)" fill="#00a7e0">
	<path class="st0" d="m300.9 210.5s-2.8 1.4-4.2 2.2c-1.3-0.8-4.1-2.2-4.1-2.2-26.9-15.5-72.2-41.7-92.1-53.2 0.3 0.4 0.5 0.8 0.8 1.2 10 17.5 30.4 53 44.1 76.9 13.7 7.9 23.6 13.7 23.7 13.8 6.2 3.4 12.4 5.6 19.2 6.7 2.6 0.5 5.4 0.8 8.3 0.9h0.3c2.9-0.1 5.6-0.4 8.3-0.9 6.8-1.1 13-3.3 19.2-6.7 0-0.1 10-5.9 23.7-13.8 13.8-23.9 34.2-59.5 44.1-76.9 0.2-0.4 0.5-0.8 0.8-1.2-19.9 11.6-65.2 37.7-92.1 53.2"/>
	<path class="st0" d="m292.7 366.2s2.8-1.4 4.2-2.2c1.3 0.8 4.1 2.2 4.1 2.2 26.9 15.5 72.2 41.7 92.1 53.2-0.3-0.4-0.5-0.8-0.8-1.2-10-17.5-30.4-53-44.2-76.9-13.7-7.9-23.6-13.7-23.7-13.8-6.2-3.4-12.4-5.6-19.2-6.7-2.6-0.5-5.4-0.8-8.3-0.9h-0.3c-2.9 0.1-5.6 0.4-8.3 0.9-6.8 1.1-13 3.3-19.2 6.7 0 0.1-10 5.9-23.7 13.8-13.8 23.9-34.2 59.5-44.1 76.9-0.2 0.4-0.5 0.8-0.8 1.2 20-11.5 65.3-37.7 92.2-53.2"/>
	<path class="st0" d="m430.3 181.1c5.5-9.5 2.2-21.7-7.2-27.2-3-1.8-6.5-2.7-9.9-2.7-7.1 0-13.7 3.8-17.3 10-45.1 78.8-55.4 96.8-58.5 101.1l0.2 0.1c-3.3 6-5.4 12-6.4 18.3-0.5 2.7-0.8 5.3-0.8 7.9 0.1 2.4 0.3 5.1 0.8 7.7 1 6.4 3.1 12.3 6.4 18.4l-0.2 0.1c3.1 4.3 13.4 22.3 58.5 101.1 3.5 6.1 10.2 10 17.3 10 3.5 0 6.9-0.9 9.9-2.7 9.5-5.5 12.7-17.7 7.2-27.2 0 0-41.6-72.2-61.2-106l-0.8-1.4 0.8-1.4c19.5-34 61.2-106.1 61.2-106.1"/>
	<path class="st0" d="m162.9 395.9c-5.5 9.5-2.2 21.7 7.2 27.2 3 1.8 6.5 2.7 9.9 2.7 7.1 0 13.7-3.8 17.3-10 45.1-78.8 55.4-96.8 58.5-101.1l-0.2-0.1c3.3-6 5.4-12 6.4-18.3 0.5-2.7 0.8-5.3 0.8-7.9-0.1-2.4-0.3-5.1-0.8-7.7-1-6.4-3.1-12.3-6.4-18.4l0.2-0.1c-3.1-4.3-13.4-22.3-58.5-101.1-3.5-6.1-10.2-10-17.3-10-3.5 0-6.9 0.9-9.9 2.7-9.5 5.5-12.7 17.7-7.2 27.2 0 0 41.6 72.2 61.2 106l0.8 1.4-0.8 1.4c-19.6 34-61.2 106.1-61.2 106.1"/>
</g>
</svg>
