<svg version="1.1" viewBox="0 0 800 269.95" xml:space="preserve" xmlns="http://www.w3.org/2000/svg"><defs><clipPath id="a"><path d="m87.476 372.76h108.51v58.11h-108.51z"/></clipPath></defs><g transform="matrix(1.3333 0 0 -1.3333 1.661e-6 269.95)"><g transform="matrix(7.8798 0 0 7.8798 -812.67 -3033.8)"><g clip-path="url(#a)"><g transform="translate(155.51 402.89)"><path d="m0 0v3.874h-4.344c-0.448 0-0.862-0.079-1.243-0.235-0.381-0.157-0.709-0.373-0.985-0.65-0.277-0.276-0.489-0.601-0.638-0.974-0.15-0.373-0.224-0.783-0.224-1.231v-6.286h3.896v4.562c0 0.626 0.291 0.94 0.873 0.94zm-13.641 3.896h-3.959c-2.046 0-3.068-1.03-3.068-3.09v-7.076c0-1.986 1.045-2.978 3.135-2.978h5.755c2-0.015 3 1.008 3 3.068v5.189h-3.851v-3.331c0-0.702-0.344-1.052-1.03-1.052h-2.262c-0.582 0-0.873 0.365-0.873 1.097v3.269c0 0.672 0.298 1.008 0.896 1.008h2.194c0.022 0 0.041-3e-3 0.063-4e-3zm-8.37-10.099v6.942c-0.031 2.09-1.061 3.135-3.091 3.135h-4.971v3.941h-3.851l1e-3 -7.815h7.03c0.672 0 1.008-0.328 1.008-0.985v-3.404c0-0.657-0.322-0.985-0.963-0.985h-7.075l-1e-3 -3.874h8.822c2.045 0 3.075 1.015 3.091 3.045m-13.257 0.045v6.964c0 2.06-1.045 3.09-3.135 3.09h-8.24v-3.739h6.785c0.478 0 0.716-0.239 0.716-0.717v-4.433c0-0.329-0.186-0.493-0.559-0.493h-3.001c-0.403 0-0.605 0.164-0.605 0.493v0.358c0 0.328 0.202 0.492 0.605 0.492h1.385v3.113h-2.908c-1.955 0-2.933-1.18-2.933-3.538v-1.59c0.015-2.06 1.015-3.09 3-3.09h5.755c2.09 0 3.135 1.03 3.135 3.09m-17.107 0.656h3.874v13.25h-3.874z" fill="#009fe3"/></g><g transform="translate(162.33 401.92)"><path d="m0 0v-8.256h3.932v10.015c0 0.452-0.075 0.867-0.226 1.243-0.151 0.377-0.365 0.704-0.644 0.983s-0.61 0.498-0.994 0.656-0.803 0.237-1.254 0.237h-2.351v-3.929h0.701c0.602 0 0.881-0.316 0.836-0.949m10.667-4.184 2.418 4.768v-4.768zm6.282-4.023v13.085h-6.102l-5.107-10.215v-2.87h7.345v-4.09h3.864z" fill="#5bc5f2"/></g><g transform="translate(106.01 389.72)"><path d="m0 0v0.553h-2.85v-0.553h1.117v-3.506h0.616v3.506zm3.421-3.506v1.864c0 0.627-0.36 1.061-1.004 1.061-0.285 0-0.547-0.109-0.747-0.325v1.459h-0.581v-4.059h0.581v1.773c0 0.433 0.262 0.633 0.587 0.633 0.326 0 0.582-0.194 0.582-0.633v-1.773zm3.369 4.059h-0.524v-0.616h0.524zm-1.232 0h-0.524v-0.616h0.524zm1.528-4.059v2.89h-0.581v-1.761c0-0.445-0.274-0.644-0.599-0.644s-0.581 0.193-0.581 0.644v1.761h-0.582v-1.847c0-0.325 0.068-0.598 0.291-0.815 0.171-0.165 0.416-0.262 0.712-0.262 0.291 0 0.57 0.108 0.77 0.325v-0.291zm3.409 2.651c-0.199 0.199-0.41 0.274-0.69 0.274-0.325 0-0.621-0.143-0.769-0.348v0.313h-0.57v-2.89h0.581v1.756c0 0.399 0.262 0.65 0.576 0.65 0.199 0 0.302-0.063 0.433-0.194zm1.528 1.425h-0.616v-0.616h0.616zm-0.017-1.186h-0.581v-2.89h0.581zm3.722-2.89v1.847c0 0.325-0.068 0.599-0.291 0.815-0.171 0.166-0.416 0.263-0.712 0.263-0.291 0-0.57-0.109-0.77-0.325v0.29h-0.57v-2.89h0.582v1.761c0 0.445 0.273 0.645 0.598 0.645s0.582-0.194 0.582-0.645v-1.761zm3.557 0.017v2.873h-0.564v-0.307c-0.216 0.262-0.45 0.342-0.758 0.342-0.291 0-0.536-0.092-0.695-0.251-0.28-0.28-0.326-0.684-0.326-1.175 0-0.49 0.046-0.895 0.326-1.174 0.159-0.16 0.399-0.257 0.689-0.257 0.297 0 0.536 0.08 0.747 0.331v-0.371c0-0.387-0.188-0.735-0.678-0.735-0.285 0-0.445 0.086-0.627 0.257l-0.371-0.371c0.302-0.279 0.581-0.382 1.02-0.382 0.77 0 1.237 0.513 1.237 1.22m-0.581 1.482c0-0.456-0.063-0.906-0.587-0.906-0.525 0-0.593 0.45-0.593 0.906s0.068 0.907 0.593 0.907c0.524 0 0.587-0.451 0.587-0.907m4.264-0.222v0.257c0 0.82-0.45 1.391-1.225 1.391-0.742 0-1.226-0.542-1.226-1.477 0-1.1 0.576-1.482 1.3-1.482 0.507 0 0.786 0.154 1.083 0.45l-0.371 0.348c-0.205-0.205-0.376-0.297-0.701-0.297-0.473 0-0.735 0.314-0.735 0.81zm-0.576 0.405h-1.299c5e-3 0.176 0.017 0.262 0.074 0.393 0.091 0.217 0.302 0.365 0.576 0.365 0.273 0 0.478-0.148 0.57-0.365 0.057-0.131 0.074-0.217 0.079-0.393m3.831 0.969c-0.199 0.199-0.41 0.274-0.69 0.274-0.324 0-0.621-0.143-0.769-0.348v0.313h-0.57v-2.89h0.581v1.756c0 0.399 0.262 0.65 0.576 0.65 0.2 0 0.302-0.063 0.433-0.194zm5.393-2.651v0.553h-1.955v3.506h-0.616v-4.059zm3.392 1.277v0.257c0 0.82-0.45 1.391-1.226 1.391-0.741 0-1.225-0.542-1.225-1.477 0-1.1 0.575-1.482 1.3-1.482 0.507 0 0.786 0.154 1.083 0.45l-0.371 0.348c-0.205-0.205-0.376-0.297-0.701-0.297-0.473 0-0.736 0.314-0.736 0.81zm-0.576 0.405h-1.3c6e-3 0.176 0.018 0.262 0.075 0.393 0.091 0.217 0.302 0.365 0.575 0.365 0.274 0 0.479-0.148 0.571-0.365 0.056-0.131 0.074-0.217 0.079-0.393m3.831 0.969c-0.199 0.199-0.41 0.274-0.69 0.274-0.325 0-0.621-0.143-0.769-0.348v0.313h-0.57v-2.89h0.581v1.756c0 0.399 0.262 0.65 0.576 0.65 0.199 0 0.302-0.063 0.433-0.194zm3.272-2.651v1.847c0 0.325-0.068 0.599-0.29 0.815-0.171 0.166-0.417 0.263-0.713 0.263-0.291 0-0.57-0.109-0.77-0.325v0.29h-0.57v-2.89h0.582v1.761c0 0.445 0.273 0.645 0.598 0.645s0.582-0.194 0.582-0.645v-1.761zm3.489 0.884c0 0.513-0.319 0.769-0.861 0.815l-0.456 0.04c-0.308 0.028-0.399 0.159-0.399 0.33 0 0.217 0.177 0.371 0.525 0.371 0.273 0 0.53-0.057 0.712-0.211l0.365 0.371c-0.268 0.233-0.638 0.325-1.072 0.325-0.604 0-1.088-0.32-1.088-0.884 0-0.507 0.313-0.753 0.855-0.798l0.461-0.04c0.28-0.023 0.388-0.148 0.388-0.342 0-0.274-0.279-0.399-0.633-0.399-0.285 0-0.598 0.062-0.832 0.302l-0.382-0.382c0.342-0.336 0.741-0.416 1.214-0.416 0.69 0 1.203 0.313 1.203 0.918m3.466 0.393v0.257c0 0.82-0.45 1.391-1.225 1.391-0.742 0-1.226-0.542-1.226-1.477 0-1.1 0.576-1.482 1.3-1.482 0.507 0 0.786 0.154 1.083 0.45l-0.371 0.348c-0.205-0.205-0.376-0.297-0.701-0.297-0.473 0-0.735 0.314-0.735 0.81zm-0.576 0.405h-1.299c5e-3 0.176 0.017 0.262 0.074 0.393 0.091 0.217 0.302 0.365 0.576 0.365 0.273 0 0.478-0.148 0.57-0.365 0.057-0.131 0.074-0.217 0.079-0.393m4.145-1.682v1.847c0 0.325-0.069 0.599-0.291 0.815-0.171 0.166-0.416 0.263-0.713 0.263-0.29 0-0.57-0.109-0.769-0.325v0.29h-0.57v-2.89h0.581v1.761c0 0.445 0.274 0.645 0.599 0.645s0.581-0.194 0.581-0.645v-1.761zm3.58 0v4.059h-0.582v-1.459c-0.211 0.25-0.45 0.325-0.758 0.325-0.291 0-0.541-0.097-0.701-0.257-0.291-0.291-0.325-0.781-0.325-1.22s0.034-0.935 0.325-1.226c0.16-0.159 0.416-0.256 0.707-0.256 0.313 0 0.547 0.08 0.764 0.342v-0.308zm-0.582 1.448c0-0.513-0.074-0.963-0.598-0.963-0.525 0-0.604 0.45-0.604 0.963s0.079 0.958 0.604 0.958c0.524 0 0.598-0.445 0.598-0.958m4.264-0.171v0.257c0 0.82-0.45 1.391-1.225 1.391-0.741 0-1.226-0.542-1.226-1.477 0-1.1 0.576-1.482 1.3-1.482 0.507 0 0.787 0.154 1.083 0.45l-0.371 0.348c-0.205-0.205-0.376-0.297-0.701-0.297-0.473 0-0.735 0.314-0.735 0.81zm-0.575 0.405h-1.3c6e-3 0.176 0.017 0.262 0.074 0.393 0.091 0.217 0.302 0.365 0.576 0.365s0.479-0.148 0.57-0.365c0.057-0.131 0.074-0.217 0.08-0.393m3.831 0.969c-0.2 0.199-0.411 0.274-0.69 0.274-0.325 0-0.622-0.143-0.77-0.348v0.313h-0.57v-2.89h0.582v1.756c0 0.399 0.262 0.65 0.575 0.65 0.2 0 0.303-0.063 0.434-0.194z" fill="#009fe3"/></g></g></g></g></svg>
