<svg width="830.06" height="340.16" version="1.1" viewBox="0 0 830.06 340.16" xmlns="http://www.w3.org/2000/svg">
 <g transform="translate(-.52637 .00023327)" fill="#3f9" stroke-width="1.9985">
  <path class="cls-1" d="m780.78 25.563h22.264q0 68.202 0 136.4-11.184 0-22.305 0 0.0622-68.202 0.0415-136.4z"/>
  <path class="cls-1" d="m512 43.096c10.561-4.378 23.156 5.9342 20.562 17.18-1.3279 10.644-15.002 16.703-23.778 10.561-10.416-6.1002-8.2996-24.131 3.2161-27.741z"/>
  <path class="cls-1" d="m266.69 58.263c9.2333 0 18.446-0.18674 27.679 0.20749-0.37348 26.559 0 53.117-0.14524 79.676h32.659v23.841q-30.086 0-60.172 0 0.0415-51.852-0.0208-103.72z"/>
  <path class="cls-1" d="m433.65 58.263h27.492q0 39.921 0 79.884h32.659q0 11.91 0 23.841-30.065 0-60.172 0z"/>
  <path class="cls-1" d="m346.03 86.108c13.279-11.868 35.273-12.574 48.283 0.16599v-7.7601h25.376q0 41.768 0 83.515h-25.916c0-1.8052 0-5.3947 0.1245-7.1999-15.437 14.109-42.618 11.889-54.943-5.208-13.321-18.902-11.121-48.283 7.0754-63.513zm22.388 15.997c-16.869 5.872-15.209 33.613 1.6807 38.22 13.196 3.9008 27.202-8.2996 24.899-21.932-0.66397-12.574-15.085-21.454-26.579-16.288z"/>
  <path class="cls-1" d="m552.05 86.918c12.636-13.321 36.103-13.425 48.739 0v-8.4448h24.318v75.215a35.896 35.896 0 0 1-15.645 30.065c-12.449 8.2996-28.571 9.0673-42.639 5.2495-12.595-3.4651-23.426-13.736-25.355-26.974h28.696c5.291 8.2996 17.491 7.8846 24.899 2.9464 4.876-3.3406 4.7308-9.6483 4.7723-14.898-8.0714 6.3492-18.487 10.665-28.903 8.8806a34.568 34.568 0 0 1-25.957-18.674c-8.4033-16.973-6.1832-39.465 7.0754-53.366zm22.015 13.985c-13.362 7.6979-12.034 31.974 3.4858 36.29 12.449 3.6103 25.293-8.2996 23.28-20.853 0.166-13.155-15.562-21.662-26.766-15.437z"/>
  <path class="cls-1" d="m645.79 91.296c12.346-16.226 38.759-19.898 53.532-4.9175v-7.9469h25.355v83.515h-25.936c0-1.8052 0-5.3947 0.10375-7.1999-15.188 13.611-41.311 12.076-54.113-4.0046-12.781-16.91-12.532-42.847 1.0582-59.446zm27.555 10.769c-15.188 5.4362-15.79 29.049-2.0749 36.539 12.449 7.3036 30.148-3.6518 28.717-18.197 0.82996-13.259-14.441-23.965-26.642-18.259z"/>
  <path class="cls-1" d="m504.2 78.514q12.698 0 25.376 0 0 41.726 0 83.494h-25.376z"/>
 </g>
 <g transform="matrix(4.5485 0 0 4.5485 316.14 -85.309)" fill="#3f9">
  <path d="m-62.505 29.755v0.3l0.1 0.1 8.9 5.1c0.1 0.1 0.2 0.1 0.3 0l0.1-0.1c1.7-3.1 4.7-5.2 8.2-5.8 0 0 0.1 0 0.1-0.1 0.1-0.1 0.1-0.2 0.1-0.3l-1.9-10s0-0.1-0.1-0.1c0-0.1-0.1-0.1-0.2-0.1-6.6 1.2-12.3 5.2-15.6 11"/>
  <path d="m-67.605 49.255c0 0.1 0.1 0.2 0.2 0.2h0.1l9.6-3.6c0.1 0 0.2-0.1 0.2-0.2v-0.1c-1.3-3.2-1.1-6.9 0.6-9.9v-0.1c0-0.1-0.1-0.2-0.1-0.3l-9-4.9h-0.1c-0.1 0-0.2 0-0.3 0.1-3.1 5.7-3.5 12.7-1.2 18.8"/>
  <path d="m-55.405 65.255c0.1 0 0.2 0 0.3-0.1l0.1-0.1 3-9.8c0-0.1 0-0.2-0.1-0.3h-0.1c-3.3-1-6.1-3.4-7.4-6.6-0.1-0.1-0.2-0.2-0.3-0.1l-9.4 4.1-0.2-0.1v0.3c2.6 6.1 7.8 10.7 14.1 12.7"/>
  <path d="m-35.405 65.655c0.1-0.1 0.1-0.2 0.1-0.3v-0.1l-5.8-8.5c-0.1-0.1-0.2-0.1-0.3-0.1h-0.1c-2.9 2-6.5 2.6-9.8 1.6h-0.1c-0.1 0-0.2 0.1-0.2 0.2l-2.8 9.9v0.1c0 0.1 0.1 0.2 0.2 0.2 6.4 1.9 13.3 0.7 18.8-3"/>
  <path d="m-22.405 50.355c0-0.1-0.1-0.2-0.2-0.3h-0.1l-10.2-0.8c-0.1 0-0.2 0.1-0.3 0.1v0.1c-0.2 3.5-2 6.7-4.8 8.7 0 0-0.1 0-0.1 0.1-0.1 0.1-0.1 0.2 0 0.3l6.1 8.3 0.1 0.1h0.3c5.4-3.9 8.8-9.9 9.2-16.6"/>
  <path d="m-26.205 30.655h-0.3s-0.1 0-0.1 0.1l-7 7.4c-0.1 0.1-0.1 0.2 0 0.3v0.1c2.5 2.4 3.9 5.7 3.7 9.2v0.1c0 0.1 0.1 0.2 0.2 0.2l10.2 0.5h0.1c0.1 0 0.2-0.1 0.2-0.2 0.4-6.6-2.2-13.1-7-17.7"/>
  <path d="m-44.205 21.555c-0.1 0-0.2 0.1-0.2 0.2v0.1l1.5 10.1c0 0.1 0.1 0.2 0.2 0.2h0.2c3.4-0.5 6.9 0.5 9.5 2.8 0 0 0.1 0 0.1 0.1 0.1 0 0.2 0 0.3-0.1l6.7-7.8 0.1-0.1c0-0.1 0-0.2-0.1-0.3-5-4.3-11.7-6.3-18.3-5.2"/>
  <path d="m-38.605 49.255c0.1-0.3 0.2-0.7 0.2-1.1-0.2 0.2-0.4 0.3-0.5 0.5-0.5 0.4-1.2 0.7-1.8 0.8l-1.8-1.7 1.2 2.1c-0.3 0.6-0.8 1.2-1.4 1.6-0.2 0.1-0.4 0.3-0.6 0.4 0.4 0.1 0.7 0.1 1.1 0.1-1.7 0.6-3.6 0.6-5.3 0 0.4 0 0.7-0.1 1.1-0.2-0.8-0.4-1.5-1.1-2-1.9l1.2-2.1-1.6 1.8c-0.7-0.1-1.3-0.4-1.8-0.8-0.2-0.1-0.4-0.3-0.6-0.5 0 0.4 0.1 0.7 0.2 1.1-1.1-1.4-1.6-3-1.6-4.8v-0.3c0.1 0.3 0.3 0.7 0.5 1 0-0.2 0.1-0.5 0.2-0.7 0.2-0.7 0.5-1.3 1-1.8l2.3 0.5-2.2-1c-0.1-0.9 0.1-1.8 0.5-2.6-0.4 0.1-0.7 0.3-1 0.6 1-1.6 2.6-2.7 4.4-3.2-0.3 0.2-0.6 0.5-0.9 0.8h0.7c0.7 0 1.4 0.1 2 0.4l0.3 2.4 0.3-2.4c0.6-0.3 1.3-0.4 2-0.4h0.7c-0.3-0.3-0.6-0.5-0.9-0.8 1.8 0.5 3.3 1.6 4.4 3.1-0.3-0.2-0.6-0.4-1-0.6 0.1 0.2 0.2 0.4 0.3 0.7 0.2 0.6 0.3 1.3 0.2 2l-2.2 1 2.4-0.6c0.5 0.5 0.8 1.1 1 1.8 0.1 0.2 0.1 0.5 0.2 0.7 0.2-0.3 0.3-0.7 0.5-1v0.3c-0.2 1.7-0.7 3.4-1.7 4.8m-6.2-13.3c-4.7 0-8.5 3.8-8.5 8.4s3.8 8.5 8.4 8.5c4.7 0 8.5-3.8 8.5-8.4s-3.8-8.4-8.4-8.5"/>
  <polygon transform="translate(-69.505 18.755)" points="21.3 24.6 22.6 28.7 26.8 28.7 28.1 24.6 24.7 22.1"/>
 </g>
 <g transform="translate(-.52637 .00023327)" stroke-width="1.925">
  <path d="m693.16 225.4a20.127 20.127 0 0 1 20.376 2.3031c7.3036 5.7682 10.374 14.981 12.864 23.592a131.53 131.53 0 0 1 1.8674 54.425c-0.82996 5.3325-3.9216 11.453-9.8558 12.18a7.9676 7.9676 0 0 1-8.8391-7.1792c-1.0582-12.2 3.3821-24.442 0.62247-36.56-0.76771-3.9423-4.7723-7.4282-8.8806-6.4737-5.3325 1.7222-8.7976 6.5982-11.391 11.308-5.4155 10.25-8.5278 21.517-12.034 32.493-2.4069 7.9676-6.2247 16.288-13.923 20.438-12.449 6.7849-30.294 5.374-39.299-6.4944-7.7809-10.603-13.051-22.824-20.272-33.717-1.9297-2.4691-4.6063-6.2247-8.2996-4.876-3.5481 0.9752-4.461 5.1665-4.461 8.2996 0.53947 11.993 6.2247 22.824 8.2996 34.589 1.1412 4.7723-1.9297 11.163-7.5734 10.374-5.3117 0.60172-8.4656-4.4818-10.271-8.6731-7.9469-19.421-12.221-41.104-7.7394-61.915 2.0749-9.586 5.3117-19.587 12.719-26.434 7.4074-6.8472 20.044-8.2996 28.156-1.8052 11.599 9.0051 16.475 23.592 26.247 34.132 5.374 5.9757 15.79 6.2247 20.604-0.49798 10.582-16.163 11.287-40.855 31.082-49.507z"/>
  <path d="m780.56 241.73h22.824v27.575h27.202v22.43h-27.181q0 13.798 0 27.575h-22.824v-27.596h-27.596v-22.388h27.596z"/>
  <path d="m515.16 276.5a20.396 20.396 0 0 1 18.238-7.8016c0 4.0253 0 8.0506 0.20749 12.097-4.959-1.0582-11.038-1.1827-14.026 3.6933-6.3907 10.271-3.6103 23.011-4.1498 34.443q-6.2247 0-12.449 0v-49.611h12.574c-0.24898 2.4899-0.31123 4.7723-0.39423 7.1792z"/>
  <path d="m390.68 269.32h12.076v4.0046c8.4033-7.0754 22.45-5.8305 29.173 2.9464 6.7227 8.7768 6.6604 21.537 2.5936 31.518-4.9175 12.076-21.807 15.416-31.746 7.5526 0.12449 7.8016 0 15.624 0 23.426h-12.076zm17.865 11.121c-10.374 6.038-8.9428 27.492 4.461 28.592 10.374-0.78847 12.968-13.86 9.7935-21.994a10.374 10.374 0 0 0-14.255-6.5982z"/>
  <path d="m460.3 270.13c9.6068-2.9049 21.496-1.5147 28.364 6.4529a28.903 28.903 0 0 1 2.6144 31.352c-8.2996 15.064-32.783 15.728-42.349 1.7637-8.7976-12.844-4.5855-34.609 11.37-39.568zm5.042 10.188c-11.536 5.0835-10.25 26.579 2.9049 28.509 8.2996 1.1619 14.006-7.8846 13.342-15.396 0.33198-8.2374-7.7394-16.952-16.246-13.113z"/>
 </g>
</svg>
