<svg enable-background="new 0 0 225.8 75" version="1.1" viewBox="0 0 225.8 75" xml:space="preserve" xmlns="http://www.w3.org/2000/svg">
<g transform="translate(0 .00063524)" fill="#fff">
	<path d="m173.7 14.9h-6.7l0.4-2h15.7l-0.4 2h-6.7l-4 20.9h-2.3l4-20.9z"/>
	<path d="m191.2 32.9 11.5-20h2.5l-13.3 22.9h-2.5l-4.4-22.9h2.5l3.7 20z"/>
	<polygon points="64.7 12.8 64.7 30.4 71.9 30.4 71.9 35.6 58.8 35.6 58.8 12.8"/>
	<path d="m82.8 22.1c-2.3-0.1-4.3 1.8-4.3 4.1v0.3c0 2.5 1.6 4.6 4.2 4.6 2.4 0.1 4.5-1.8 4.5-4.3v-0.2c0.1-2.4-1.7-4.4-4-4.5h-0.4m-9.9 4.5c0-5.1 3.8-9.6 8.8-9.6 2 0 3.9 0.8 5.2 2.2v-1.9h5.5v18.3h-5.6v-1.8c-1.4 1.4-3.4 2.3-5.5 2.2-5 0.1-8.4-3.6-8.4-9.4"/>
	<polygon points="101.6 12.8 101.6 30.4 108.8 30.4 108.8 35.6 95.7 35.6 95.7 12.8"/>
	<path d="m116.8 35.6h-5.5v-18.3h5.5v18.3zm-6-23c-0.1-1.8 1.3-3.4 3.1-3.5s3.4 1.3 3.5 3.1v0.4c0 1.9-1.5 3.4-3.4 3.4-1.8 0-3.3-1.4-3.3-3.2l0.1-0.2"/>
	<path d="m128.4 21.6c-2.6 0-3.9 2.1-3.9 4.4s1.4 4.3 3.8 4.3c2.3 0 4.2-1.8 4.2-4.1v-0.2c0.1-2.4-1.3-4.4-4.1-4.4m-9.3 4.5c0-5 3.1-9.1 8-9.1 2.1-0.1 4.1 0.8 5.5 2.4v-2.1h5.3v16.1c0 5.7-4.2 8.6-9.4 8.6-4.5 0-8.4-2.3-9-6.4h6.2c0.6 1.1 1.7 1.7 2.9 1.5 1.9 0 3.7-0.9 3.7-2.9v-1.4c-1.5 1.3-3.3 2-5.3 2.1-4.6 0.1-7.8-3.8-7.9-8.8"/>
	<path d="m150.1 22.1c-2.3-0.1-4.3 1.8-4.3 4.1v0.3c0 2.5 1.6 4.6 4.1 4.6 2.4 0.1 4.4-1.8 4.5-4.3v-0.2c0.1-2.4-1.6-4.4-4-4.6l-0.3 0.1m-9.9 4.5c0-5.1 3.8-9.6 8.8-9.6 2 0 3.9 0.8 5.3 2.2v-1.9h5.5v18.3h-5.6v-1.8c-1.4 1.4-3.4 2.3-5.5 2.2-5 0.1-8.5-3.6-8.5-9.4"/>
</g>
<g transform="translate(0 .00063524)" fill="#fff">
	<path d="m7 11v0.3l0.1 0.1 8.9 5.1c0.1 0.1 0.2 0.1 0.3 0l0.1-0.1c1.7-3.1 4.7-5.2 8.2-5.8 0 0 0.1 0 0.1-0.1 0.1-0.1 0.1-0.2 0.1-0.3l-1.9-10s0-0.1-0.1-0.1c0-0.1-0.1-0.1-0.2-0.1-6.6 1.2-12.3 5.2-15.6 11"/>
	<path d="m1.9 30.4c0 0.1 0.1 0.2 0.2 0.2h0.1l9.6-3.6c0.1 0 0.2-0.1 0.2-0.2v-0.1c-1.3-3.2-1.1-6.9 0.6-9.9v-0.1c0-0.1-0.1-0.2-0.1-0.3l-9-4.8h-0.1c-0.1 0-0.2 0-0.3 0.1-3.1 5.7-3.5 12.7-1.2 18.7"/>
	<path d="m14.1 46.5c0.1 0 0.2 0 0.3-0.1l0.1-0.1 3-9.8c0-0.1 0-0.2-0.1-0.3h-0.1c-3.3-1-6.1-3.4-7.4-6.6-0.1-0.1-0.2-0.2-0.3-0.1l-9.4 4.1-0.2-0.1v0.3c2.6 6.1 7.8 10.7 14.1 12.7"/>
	<path d="m34.1 46.9c0.1-0.1 0.1-0.2 0.1-0.3v-0.1l-5.8-8.5c-0.1-0.1-0.2-0.1-0.3-0.1h-0.1c-2.9 2-6.5 2.6-9.8 1.6h-0.1c-0.1 0-0.2 0.1-0.2 0.2l-2.8 9.9v0.1c0 0.1 0.1 0.2 0.2 0.2 6.4 1.9 13.3 0.7 18.8-3"/>
	<path d="m47.1 31.6c0-0.1-0.1-0.2-0.2-0.3h-0.1l-10.2-0.8c-0.1 0-0.2 0.1-0.3 0.1v0.1c-0.2 3.5-2 6.7-4.8 8.7 0 0-0.1 0-0.1 0.1-0.1 0.1-0.1 0.2 0 0.3l6.1 8.3 0.1 0.1h0.3c5.4-3.9 8.8-9.9 9.2-16.6"/>
	<path d="m43.3 11.9h-0.3s-0.1 0-0.1 0.1l-7 7.4c-0.1 0.1-0.1 0.2 0 0.3v0.1c2.5 2.4 3.9 5.7 3.7 9.2v0.1c0 0.1 0.1 0.2 0.2 0.2l10.2 0.5h0.1c0.1 0 0.2-0.1 0.2-0.2 0.4-6.6-2.2-13.1-7-17.7"/>
	<path d="m25.3 2.8c-0.1 0-0.2 0.1-0.2 0.2v0.1l1.5 10.1c0 0.1 0.1 0.2 0.2 0.2h0.2c3.4-0.5 6.9 0.5 9.5 2.8 0 0 0.1 0 0.1 0.1 0.1 0 0.2 0 0.3-0.1l6.7-7.7 0.1-0.1c0-0.1 0-0.2-0.1-0.3-5-4.4-11.7-6.4-18.3-5.3"/>
</g>
<path d="m24.7 17.3c-4.7 0-8.5 3.8-8.5 8.5s3.8 8.5 8.5 8.5 8.5-3.8 8.5-8.4c-0.1-4.8-3.9-8.6-8.5-8.6" fill="#fff"/>
<g transform="translate(0 .00063524)" fill="#001423">
	<path d="m30.9 30.5c0.1-0.3 0.2-0.7 0.2-1.1-0.2 0.2-0.4 0.3-0.5 0.5-0.5 0.4-1.2 0.7-1.8 0.8l-1.8-1.7 1.2 2.1c-0.3 0.6-0.8 1.2-1.4 1.6-0.2 0.1-0.4 0.3-0.6 0.4 0.4 0.1 0.7 0.1 1.1 0.1-1.7 0.6-3.6 0.6-5.3 0 0.4 0 0.7-0.1 1.1-0.2-0.8-0.4-1.5-1.1-2-1.9l1.2-2.1-1.6 1.8c-0.7-0.1-1.3-0.4-1.8-0.8-0.2-0.1-0.4-0.3-0.6-0.5 0 0.4 0.1 0.7 0.2 1.1-1.1-1.4-1.6-3-1.6-4.8v-0.3c0.1 0.3 0.3 0.7 0.5 1 0-0.2 0.1-0.5 0.2-0.7 0.2-0.7 0.5-1.3 1-1.8l2.3 0.5-2.2-1c-0.1-0.9 0.1-1.8 0.5-2.6-0.4 0.1-0.7 0.3-1 0.6 1-1.6 2.6-2.7 4.4-3.2-0.3 0.2-0.6 0.5-0.9 0.8h0.7c0.7 0 1.4 0.1 2 0.4l0.3 2.4 0.3-2.4c0.6-0.3 1.3-0.4 2-0.4h0.7c-0.3-0.3-0.6-0.5-0.9-0.8 1.8 0.5 3.3 1.6 4.4 3.1-0.3-0.2-0.6-0.4-1-0.6 0.1 0.2 0.2 0.4 0.3 0.7 0.2 0.6 0.3 1.3 0.2 2l-2.2 1 2.4-0.6c0.5 0.5 0.8 1.1 1 1.8 0.1 0.2 0.1 0.5 0.2 0.7 0.2-0.3 0.3-0.7 0.5-1v0.3c-0.2 1.7-0.7 3.4-1.7 4.8m-6.2-13.3c-4.7 0-8.5 3.8-8.5 8.4s3.8 8.5 8.4 8.5c4.7 0 8.5-3.8 8.5-8.4s-3.8-8.4-8.4-8.5"/>
	<polygon points="26.8 28.7 28.1 24.6 24.7 22.1 21.3 24.6 22.6 28.7"/>
</g>
<path d="M178.3,45.2h47.6L220,75h-47.6L178.3,45.2z" fill="#fff"/>
<path d="m184.4 49.3 6.5 12.3 11.4-12.3h2.2l-4.2 22h-2.6l3.4-17.5-9.9 10.4-1.8-0.1-5.6-10.4-3.7 17.6h-2.5l4.8-22h2zm25.4 0.2h11.8l-0.3 2-7 6.6c4.1 1.2 5.4 2 5.3 6.7-0.4 2-1.4 3.7-3 5.1-1.4 1.2-3.1 1.7-5.1 2-3.7-0.2-4.8-1-6.7-3.6l1.6-1.3c1.4 1.9 2.1 2.8 5.1 2.8 0.8 0 1.5-0.1 2.2-0.4 0.6-0.3 1.2-0.6 1.7-1.1 1.2-1 1.8-2.2 2.1-3.5 0.2-1.4 0-2.5-0.8-3.5-0.7-1.3-3.5-2-5.3-1.4l-0.7-1.2 7.8-7.1h-9.1l0.4-2.1z" fill="#001423"/>
<path d="m117.4 45.2h57.7l-5.9 29.8h-57.7l5.9-29.8z" fill="#fff"/>
<g transform="translate(-50.763 .00063801)" fill="#001423">
	<path d="m168 71.2 4.3-22h7.5c3.4 0 5.3 1.8 5.3 4.4 0 2.8-1.8 5.2-4.5 6 2.2 0.3 3.8 2.1 3.7 4.3 0 0.4 0 0.8-0.1 1.2-0.8 3.7-4.2 6.3-8 6.2l-8.2-0.1zm14.1-7.1c0-2-1.5-3.4-4-3.4h-5.8l-1.7 8.6h5.8c2.7 0.1 5-1.7 5.6-4.3 0.1-0.3 0.1-0.6 0.1-0.9zm0.8-10c0-1.9-1.4-3-3.6-3h-5.1l-1.5 7.8h5.1c2.4 0.1 4.5-1.5 5-3.9 0-0.3 0-0.6 0.1-0.9z"/>
	<path d="m203.3 57.4 0.5-2.5h2.2l-3.2 16.3h-2.2l0.5-2.5c-1.8 1.8-4.2 2.8-6.7 2.8-3.6 0.2-6.8-2.5-7-6.2v-0.6c0-0.6 0.1-1.1 0.2-1.7 1-4.8 5.2-8.3 10.1-8.5 2.3-0.1 4.4 1 5.6 2.9zm-1.7 8.7 1.2-6.1c-0.7-2.2-2.8-3.7-5.1-3.6-3.8 0.2-7.1 2.9-7.9 6.6-0.1 0.4-0.1 0.9-0.1 1.3-0.1 2.9 2.1 5.2 5 5.3h0.4c2.6 0 5-1.3 6.5-3.5z"/>
	<path d="m211.9 60.7-2.1 10.5h-2.2l3.2-16.3h2.2l-0.6 3.3c1.6-1.8 3.8-3.7 6.1-3.7 0.5 0 1.1 0.1 1.5 0.3l-0.6 1.9c-0.5-0.2-1.1-0.3-1.6-0.3-2 0.1-4.3 2-5.9 4.3z"/>
</g>
</svg>
