<svg width="800.36" height="265.72" enable-background="new 0 0 225.8 75" version="1.1" viewBox="0 0 800.36 265.72" xml:space="preserve" xmlns="http://www.w3.org/2000/svg">
<g transform="matrix(3.543 0 0 3.543 2.5962e-6 8.3008e-6)" fill="#fff">
	<path d="m173.7 14.9h-6.7l0.4-2h15.7l-0.4 2h-6.7l-4 20.9h-2.3z"/>
	<path d="m191.2 32.9 11.5-20h2.5l-13.3 22.9h-2.5l-4.4-22.9h2.5z"/>
	<polygon points="71.9 35.6 58.8 35.6 58.8 12.8 64.7 12.8 64.7 30.4 71.9 30.4"/>
	<path d="m82.8 22.1c-2.3-0.1-4.3 1.8-4.3 4.1v0.3c0 2.5 1.6 4.6 4.2 4.6 2.4 0.1 4.5-1.8 4.5-4.3v-0.2c0.1-2.4-1.7-4.4-4-4.5h-0.4m-9.9 4.5c0-5.1 3.8-9.6 8.8-9.6 2 0 3.9 0.8 5.2 2.2v-1.9h5.5v18.3h-5.6v-1.8c-1.4 1.4-3.4 2.3-5.5 2.2-5 0.1-8.4-3.6-8.4-9.4"/>
	<polygon points="108.8 35.6 95.7 35.6 95.7 12.8 101.6 12.8 101.6 30.4 108.8 30.4"/>
	<path d="m116.8 35.6h-5.5v-18.3h5.5zm-6-23c-0.1-1.8 1.3-3.4 3.1-3.5s3.4 1.3 3.5 3.1v0.4c0 1.9-1.5 3.4-3.4 3.4-1.8 0-3.3-1.4-3.3-3.2l0.1-0.2"/>
	<path d="m128.4 21.6c-2.6 0-3.9 2.1-3.9 4.4s1.4 4.3 3.8 4.3c2.3 0 4.2-1.8 4.2-4.1v-0.2c0.1-2.4-1.3-4.4-4.1-4.4m-9.3 4.5c0-5 3.1-9.1 8-9.1 2.1-0.1 4.1 0.8 5.5 2.4v-2.1h5.3v16.1c0 5.7-4.2 8.6-9.4 8.6-4.5 0-8.4-2.3-9-6.4h6.2c0.6 1.1 1.7 1.7 2.9 1.5 1.9 0 3.7-0.9 3.7-2.9v-1.4c-1.5 1.3-3.3 2-5.3 2.1-4.6 0.1-7.8-3.8-7.9-8.8"/>
	<path d="m150.1 22.1c-2.3-0.1-4.3 1.8-4.3 4.1v0.3c0 2.5 1.6 4.6 4.1 4.6 2.4 0.1 4.4-1.8 4.5-4.3v-0.2c0.1-2.4-1.6-4.4-4-4.6l-0.3 0.1m-9.9 4.5c0-5.1 3.8-9.6 8.8-9.6 2 0 3.9 0.8 5.3 2.2v-1.9h5.5v18.3h-5.6v-1.8c-1.4 1.4-3.4 2.3-5.5 2.2-5 0.1-8.5-3.6-8.5-9.4"/>
</g>


<g transform="matrix(.50389 0 0 .50389 -100.25 -.0001317)"><g transform="matrix(7.0313 0 0 7.0313 198.95 .00028)"><path d="m7 11v0.3l0.1 0.1 8.9 5.1c0.1 0.1 0.2 0.1 0.3 0l0.1-0.1c1.7-3.1 4.7-5.2 8.2-5.8 0 0 0.1 0 0.1-0.1 0.1-0.1 0.1-0.2 0.1-0.3l-1.9-10s0-0.1-0.1-0.1c0-0.1-0.1-0.1-0.2-0.1-6.6 1.2-12.3 5.2-15.6 11" fill="#8a358b"/><path d="m1.9 30.4c0 0.1 0.1 0.2 0.2 0.2h0.1l9.6-3.6c0.1 0 0.2-0.1 0.2-0.2v-0.1c-1.3-3.2-1.1-6.9 0.6-9.9v-0.1c0-0.1-0.1-0.2-0.1-0.3l-9-4.8h-0.1c-0.1 0-0.2 0-0.3 0.1-3.1 5.7-3.5 12.7-1.2 18.7" fill="#005ea7"/><path d="m14.1 46.5c0.1 0 0.2 0 0.3-0.1l0.1-0.1 3-9.8c0-0.1 0-0.2-0.1-0.3h-0.1c-3.3-1-6.1-3.4-7.4-6.6-0.1-0.1-0.2-0.2-0.3-0.1l-9.4 4.1-0.2-0.1v0.3c2.6 6.1 7.8 10.7 14.1 12.7" fill="#439ad2"/><path d="m34.1 46.9c0.1-0.1 0.1-0.2 0.1-0.3v-0.1l-5.8-8.5c-0.1-0.1-0.2-0.1-0.3-0.1h-0.1c-2.9 2-6.5 2.6-9.8 1.6h-0.1c-0.1 0-0.2 0.1-0.2 0.2l-2.8 9.9v0.1c0 0.1 0.1 0.2 0.2 0.2 6.4 1.9 13.3 0.7 18.8-3" fill="#2ea557"/><path d="m47.1 31.6c0-0.1-0.1-0.2-0.2-0.3h-0.1l-10.2-0.8c-0.1 0-0.2 0.1-0.3 0.1v0.1c-0.2 3.5-2 6.7-4.8 8.7 0 0-0.1 0-0.1 0.1-0.1 0.1-0.1 0.2 0 0.3l6.1 8.3 0.1 0.1h0.3c5.4-3.9 8.8-9.9 9.2-16.6" fill="#fde122"/><path d="m43.3 11.9h-0.3s-0.1 0-0.1 0.1l-7 7.4c-0.1 0.1-0.1 0.2 0 0.3v0.1c2.5 2.4 3.9 5.7 3.7 9.2v0.1c0 0.1 0.1 0.2 0.2 0.2l10.2 0.5h0.1c0.1 0 0.2-0.1 0.2-0.2 0.4-6.6-2.2-13.1-7-17.7" fill="#ef9026"/><path d="m25.3 2.8c-0.1 0-0.2 0.1-0.2 0.2v0.1l1.5 10.1c0 0.1 0.1 0.2 0.2 0.2h0.2c3.4-0.5 6.9 0.5 9.5 2.8 0 0 0.1 0 0.1 0.1 0.1 0 0.2 0 0.3-0.1l6.7-7.7 0.1-0.1c0-0.1 0-0.2-0.1-0.3-5-4.4-11.7-6.4-18.3-5.3" fill="#e1362b"/></g><g transform="matrix(.9111 0 0 .9111 .87474 .31849)"><path class="cls-1" d="m357.91 163.95c7.83-11.18 19.37-20 32.57-23.74-2 1.91-4 3.69-5.86 5.72a44.54 44.54 0 0 1 17.79 1.44c1 0.53 2.75 0.43 3 1.75 1.09 6 1.2 12.07 2.1 18.06 1.31-6.11 1.24-12.42 2.4-18.56 6.39-3 13.74-3.42 20.68-2.68a66.08 66.08 0 0 0-6-5.8c13.35 3.67 24.76 12.66 32.86 23.73-2.64-1.26-5.1-2.87-7.63-4.33 2.79 6.53 4.58 13.58 4 20.72-5.73 2.62-11.66 4.87-17.09 8.06 6.14-1 12.2-2.55 18.29-3.86 4.51 5.45 8 11.91 9 19 1.42-2.37 2.53-4.9 3.79-7.35 0 13.61-4.25 27.31-12.66 38.09 0.63-2.74 1.37-5.45 1.91-8.21-5.36 4.6-11.45 8.78-18.55 10-4.57-4.38-8.34-9.53-13-13.82 2.71 5.76 6.48 10.95 9.26 16.69a42.48 42.48 0 0 1-15.18 14.36c2.62 0.34 5.25 0.54 7.9 0.82-12.49 4.62-26.86 5-39.27 0 2.51-0.28 5-0.47 7.55-0.77a43.27 43.27 0 0 1-15.26-14.44c3-5.61 6.44-11 9.44-16.6-4.77 4.12-8.49 9.31-13 13.73-7.22-1-13.19-5.44-18.72-9.83 0.58 2.67 1.32 5.31 1.81 8-8.39-10.84-12.36-24.5-12.74-38.09 1.39 2.54 2.7 5.12 4.17 7.61 0.63-7.21 4.4-13.6 8.81-19.15 6.09 1.32 12.15 2.8 18.29 3.89-5.4-3.32-11.4-5.45-17.11-8.14-0.57-7.09 1.29-14 3.93-20.53-2.52 1.38-5 2.91-7.47 4.29m23.34 25c3.25 10.38 6.81 20.67 10 31.06 10.91-0.05 21.83 0.06 32.75-0.06 3.2-10.37 6.79-20.62 10-31-8.86-6.3-17.56-12.84-26.45-19.11-8.77 6.38-17.51 12.81-26.34 19.1z" fill="#fff"/><path d="m395 133.69c11.08-2.42 22.67-1.3 33.45 2a65.79 65.79 0 0 1 36.23 30.31 65 65 0 0 1 0 63.19 65.76 65.76 0 0 1-30.16 27.87c-13.45 5.87-28.88 7.56-43.1 3.61a64.45 64.45 0 0 1-34.48-22.2 65.15 65.15 0 0 1-14.43-37.42c-1.58-24.89 12.61-49.88 34.85-61.16a57 57 0 0 1 17.64-6.2m-37 30.26c2.52-1.38 5-2.91 7.47-4.29-2.64 6.5-4.5 13.44-3.93 20.53 5.71 2.69 11.71 4.82 17.11 8.14-6.14-1.09-12.2-2.57-18.29-3.89-4.41 5.55-8.18 11.94-8.81 19.15-1.47-2.49-2.78-5.07-4.17-7.61 0.38 13.59 4.35 27.25 12.74 38.09-0.49-2.69-1.23-5.33-1.81-8 5.53 4.39 11.5 8.86 18.72 9.83 4.49-4.42 8.21-9.61 13-13.73-3 5.61-6.42 11-9.44 16.6a43.27 43.27 0 0 0 15.26 14.44c-2.52 0.3-5 0.49-7.55 0.77 12.41 5 26.78 4.65 39.27 0-2.65-0.28-5.28-0.48-7.9-0.82a42.48 42.48 0 0 0 15.18-14.36c-2.78-5.74-6.55-10.93-9.26-16.69 4.65 4.29 8.42 9.44 13 13.82 7.1-1.21 13.19-5.39 18.55-10-0.54 2.76-1.28 5.47-1.91 8.21 8.41-10.78 12.63-24.48 12.66-38.09-1.26 2.45-2.37 5-3.79 7.35-1-7.07-4.5-13.53-9-19-6.09 1.31-12.15 2.84-18.29 3.86 5.43-3.19 11.36-5.44 17.09-8.06 0.61-7.14-1.18-14.19-4-20.72 2.53 1.46 5 3.07 7.63 4.33-8.1-11.07-19.51-20.06-32.86-23.73a66.08 66.08 0 0 1 6 5.8c-6.94-0.74-14.29-0.31-20.68 2.68-1.16 6.14-1.09 12.45-2.4 18.56-0.9-6-1-12.09-2.1-18.06-0.26-1.32-2-1.22-3-1.75a44.54 44.54 0 0 0-17.79-1.44c1.83-2 3.91-3.81 5.86-5.72-13.2 3.73-24.74 12.56-32.57 23.74z"/><path d="m381.25 188.92c8.83-6.29 17.57-12.72 26.34-19.1 8.89 6.27 17.59 12.81 26.45 19.11-3.2 10.37-6.79 20.62-10 31-10.92 0.12-21.84 0-32.75 0.06-3.24-10.39-6.8-20.68-10-31.06z"/></g></g>
<path d="m779.45 265.72h-168.65l20.904-105.58h168.65z" fill="#fff" stroke-width="3.543"/>
<path d="m653.32 174.67 23.029 43.579 40.39-43.579h7.7946l-14.88 77.945h-9.2117l12.046-62.002-35.075 36.847-6.3774-0.3543-19.841-36.847-13.109 62.356h-8.8574l17.006-77.945zm117.27 0h8.5031l-15.943 77.945h-8.8574l14.881-69.088-19.132 8.5031-2.1258-6.3774z" stroke-width="3.543"/>
<path d="m415.95 160.14h204.43l-20.904 105.58h-204.43z" fill="#fff" stroke-width="3.543"/>
<g transform="matrix(3.543 0 0 3.543 -179.85 -.0014817)">
	<path d="m168 71.2 4.3-22h7.5c3.4 0 5.3 1.8 5.3 4.4 0 2.8-1.8 5.2-4.5 6 2.2 0.3 3.8 2.1 3.7 4.3 0 0.4 0 0.8-0.1 1.2-0.8 3.7-4.2 6.3-8 6.2zm14.1-7.1c0-2-1.5-3.4-4-3.4h-5.8l-1.7 8.6h5.8c2.7 0.1 5-1.7 5.6-4.3 0.1-0.3 0.1-0.6 0.1-0.9zm0.8-10c0-1.9-1.4-3-3.6-3h-5.1l-1.5 7.8h5.1c2.4 0.1 4.5-1.5 5-3.9 0-0.3 0-0.6 0.1-0.9z"/>
	<path d="m203.3 57.4 0.5-2.5h2.2l-3.2 16.3h-2.2l0.5-2.5c-1.8 1.8-4.2 2.8-6.7 2.8-3.6 0.2-6.8-2.5-7-6.2v-0.6c0-0.6 0.1-1.1 0.2-1.7 1-4.8 5.2-8.3 10.1-8.5 2.3-0.1 4.4 1 5.6 2.9zm-1.7 8.7 1.2-6.1c-0.7-2.2-2.8-3.7-5.1-3.6-3.8 0.2-7.1 2.9-7.9 6.6-0.1 0.4-0.1 0.9-0.1 1.3-0.1 2.9 2.1 5.2 5 5.3h0.4c2.6 0 5-1.3 6.5-3.5z"/>
	<path d="m211.9 60.7-2.1 10.5h-2.2l3.2-16.3h2.2l-0.6 3.3c1.6-1.8 3.8-3.7 6.1-3.7 0.5 0 1.1 0.1 1.5 0.3l-0.6 1.9c-0.5-0.2-1.1-0.3-1.6-0.3-2 0.1-4.3 2-5.9 4.3z"/>
</g>
</svg>
