<svg width="1035.8" height="340.17" version="1.1" viewBox="0 0 1035.8 340.17" xmlns="http://www.w3.org/2000/svg">
 <path class="cls-1" d="m986.03 25.571h22.264q0 68.202 0 136.4-11.184 0-22.305 0 0.0622-68.202 0.0415-136.4z" fill="#3f9" stroke-width="1.9985"/>
 <g transform="matrix(4.5485 0 0 4.5485 316.14 -85.301)" fill="#3f9">
  <path d="m-62.505 29.755v0.3l0.1 0.1 8.9 5.1c0.1 0.1 0.2 0.1 0.3 0l0.1-0.1c1.7-3.1 4.7-5.2 8.2-5.8 0 0 0.1 0 0.1-0.1 0.1-0.1 0.1-0.2 0.1-0.3l-1.9-10s0-0.1-0.1-0.1c0-0.1-0.1-0.1-0.2-0.1-6.6 1.2-12.3 5.2-15.6 11"/>
  <path d="m-67.605 49.255c0 0.1 0.1 0.2 0.2 0.2h0.1l9.6-3.6c0.1 0 0.2-0.1 0.2-0.2v-0.1c-1.3-3.2-1.1-6.9 0.6-9.9v-0.1c0-0.1-0.1-0.2-0.1-0.3l-9-4.9h-0.1c-0.1 0-0.2 0-0.3 0.1-3.1 5.7-3.5 12.7-1.2 18.8"/>
  <path d="m-55.405 65.255c0.1 0 0.2 0 0.3-0.1l0.1-0.1 3-9.8c0-0.1 0-0.2-0.1-0.3h-0.1c-3.3-1-6.1-3.4-7.4-6.6-0.1-0.1-0.2-0.2-0.3-0.1l-9.4 4.1-0.2-0.1v0.3c2.6 6.1 7.8 10.7 14.1 12.7"/>
  <path d="m-35.405 65.655c0.1-0.1 0.1-0.2 0.1-0.3v-0.1l-5.8-8.5c-0.1-0.1-0.2-0.1-0.3-0.1h-0.1c-2.9 2-6.5 2.6-9.8 1.6h-0.1c-0.1 0-0.2 0.1-0.2 0.2l-2.8 9.9v0.1c0 0.1 0.1 0.2 0.2 0.2 6.4 1.9 13.3 0.7 18.8-3"/>
  <path d="m-22.405 50.355c0-0.1-0.1-0.2-0.2-0.3h-0.1l-10.2-0.8c-0.1 0-0.2 0.1-0.3 0.1v0.1c-0.2 3.5-2 6.7-4.8 8.7 0 0-0.1 0-0.1 0.1-0.1 0.1-0.1 0.2 0 0.3l6.1 8.3 0.1 0.1h0.3c5.4-3.9 8.8-9.9 9.2-16.6"/>
  <path d="m-26.205 30.655h-0.3s-0.1 0-0.1 0.1l-7 7.4c-0.1 0.1-0.1 0.2 0 0.3v0.1c2.5 2.4 3.9 5.7 3.7 9.2v0.1c0 0.1 0.1 0.2 0.2 0.2l10.2 0.5h0.1c0.1 0 0.2-0.1 0.2-0.2 0.4-6.6-2.2-13.1-7-17.7"/>
  <path d="m-44.205 21.555c-0.1 0-0.2 0.1-0.2 0.2v0.1l1.5 10.1c0 0.1 0.1 0.2 0.2 0.2h0.2c3.4-0.5 6.9 0.5 9.5 2.8 0 0 0.1 0 0.1 0.1 0.1 0 0.2 0 0.3-0.1l6.7-7.8 0.1-0.1c0-0.1 0-0.2-0.1-0.3-5-4.3-11.7-6.3-18.3-5.2"/>
  <path d="m-38.605 49.255c0.1-0.3 0.2-0.7 0.2-1.1-0.2 0.2-0.4 0.3-0.5 0.5-0.5 0.4-1.2 0.7-1.8 0.8l-1.8-1.7 1.2 2.1c-0.3 0.6-0.8 1.2-1.4 1.6-0.2 0.1-0.4 0.3-0.6 0.4 0.4 0.1 0.7 0.1 1.1 0.1-1.7 0.6-3.6 0.6-5.3 0 0.4 0 0.7-0.1 1.1-0.2-0.8-0.4-1.5-1.1-2-1.9l1.2-2.1-1.6 1.8c-0.7-0.1-1.3-0.4-1.8-0.8-0.2-0.1-0.4-0.3-0.6-0.5 0 0.4 0.1 0.7 0.2 1.1-1.1-1.4-1.6-3-1.6-4.8v-0.3c0.1 0.3 0.3 0.7 0.5 1 0-0.2 0.1-0.5 0.2-0.7 0.2-0.7 0.5-1.3 1-1.8l2.3 0.5-2.2-1c-0.1-0.9 0.1-1.8 0.5-2.6-0.4 0.1-0.7 0.3-1 0.6 1-1.6 2.6-2.7 4.4-3.2-0.3 0.2-0.6 0.5-0.9 0.8h0.7c0.7 0 1.4 0.1 2 0.4l0.3 2.4 0.3-2.4c0.6-0.3 1.3-0.4 2-0.4h0.7c-0.3-0.3-0.6-0.5-0.9-0.8 1.8 0.5 3.3 1.6 4.4 3.1-0.3-0.2-0.6-0.4-1-0.6 0.1 0.2 0.2 0.4 0.3 0.7 0.2 0.6 0.3 1.3 0.2 2l-2.2 1 2.4-0.6c0.5 0.5 0.8 1.1 1 1.8 0.1 0.2 0.1 0.5 0.2 0.7 0.2-0.3 0.3-0.7 0.5-1v0.3c-0.2 1.7-0.7 3.4-1.7 4.8m-6.2-13.3c-4.7 0-8.5 3.8-8.5 8.4s3.8 8.5 8.4 8.5c4.7 0 8.5-3.8 8.5-8.4s-3.8-8.4-8.4-8.5"/>
  <polygon transform="translate(-69.505,18.755)" points="28.1 24.6 24.7 22.1 21.3 24.6 22.6 28.7 26.8 28.7"/>
 </g>
 <g transform="translate(205.25 .0084308)" fill="#fff" stroke-width="1.925">
  <path d="m693.16 225.4a20.127 20.127 0 0 1 20.376 2.3031c7.3036 5.7682 10.374 14.981 12.864 23.592a131.53 131.53 0 0 1 1.8674 54.425c-0.82996 5.3325-3.9216 11.453-9.8558 12.18a7.9676 7.9676 0 0 1-8.8391-7.1792c-1.0582-12.2 3.3821-24.442 0.62247-36.56-0.76771-3.9423-4.7723-7.4282-8.8806-6.4737-5.3325 1.7222-8.7976 6.5982-11.391 11.308-5.4155 10.25-8.5278 21.517-12.034 32.493-2.4069 7.9676-6.2247 16.288-13.923 20.438-12.449 6.7849-30.294 5.374-39.299-6.4944-7.7809-10.603-13.051-22.824-20.272-33.717-1.9297-2.4691-4.6063-6.2247-8.2996-4.876-3.5481 0.9752-4.461 5.1665-4.461 8.2996 0.53947 11.993 6.2247 22.824 8.2996 34.589 1.1412 4.7723-1.9297 11.163-7.5734 10.374-5.3117 0.60172-8.4656-4.4818-10.271-8.6731-7.9469-19.421-12.221-41.104-7.7394-61.915 2.0749-9.586 5.3117-19.587 12.719-26.434 7.4074-6.8472 20.044-8.2996 28.156-1.8052 11.599 9.0051 16.475 23.592 26.247 34.132 5.374 5.9757 15.79 6.2247 20.604-0.49798 10.582-16.163 11.287-40.855 31.082-49.507z"/>
  <path d="m780.56 241.73h22.824v27.575h27.202v22.43h-27.181q0 13.798 0 27.575h-22.824v-27.596h-27.596v-22.388h27.596z"/>
  <path d="m515.16 276.5a20.396 20.396 0 0 1 18.238-7.8016c0 4.0253 0 8.0506 0.20749 12.097-4.959-1.0582-11.038-1.1827-14.026 3.6933-6.3907 10.271-3.6103 23.011-4.1498 34.443q-6.2247 0-12.449 0v-49.611h12.574c-0.24898 2.4899-0.31123 4.7723-0.39423 7.1792z"/>
  <path d="m390.68 269.32h12.076v4.0046c8.4033-7.0754 22.45-5.8305 29.173 2.9464 6.7227 8.7768 6.6604 21.537 2.5936 31.518-4.9175 12.076-21.807 15.416-31.746 7.5526 0.12449 7.8016 0 15.624 0 23.426h-12.076zm17.865 11.121c-10.374 6.038-8.9428 27.492 4.461 28.592 10.374-0.78847 12.968-13.86 9.7935-21.994a10.374 10.374 0 0 0-14.255-6.5982z"/>
  <path d="m460.3 270.13c9.6068-2.9049 21.496-1.5147 28.364 6.4529a28.903 28.903 0 0 1 2.6144 31.352c-8.2996 15.064-32.783 15.728-42.349 1.7637-8.7976-12.844-4.5855-34.609 11.37-39.568zm5.042 10.188c-11.536 5.0835-10.25 26.579 2.9049 28.509 8.2996 1.1619 14.006-7.8846 13.342-15.396 0.33198-8.2374-7.7394-16.952-16.246-13.113z"/>
 </g>
 <g transform="matrix(4.5325 0 0 4.5325 -.13888 .85175)" fill="#3f9">
  <path d="m173.7 14.9h-6.7l0.4-2h15.7l-0.4 2h-6.7l-4 20.9h-2.3z"/>
  <path d="m191.2 32.9 11.5-20h2.5l-13.3 22.9h-2.5l-4.4-22.9h2.5z"/>
  <polygon points="58.8 12.8 64.7 12.8 64.7 30.4 71.9 30.4 71.9 35.6 58.8 35.6"/>
  <path d="m82.8 22.1c-2.3-0.1-4.3 1.8-4.3 4.1v0.3c0 2.5 1.6 4.6 4.2 4.6 2.4 0.1 4.5-1.8 4.5-4.3v-0.2c0.1-2.4-1.7-4.4-4-4.5h-0.4m-9.9 4.5c0-5.1 3.8-9.6 8.8-9.6 2 0 3.9 0.8 5.2 2.2v-1.9h5.5v18.3h-5.6v-1.8c-1.4 1.4-3.4 2.3-5.5 2.2-5 0.1-8.4-3.6-8.4-9.4"/>
  <polygon points="95.7 12.8 101.6 12.8 101.6 30.4 108.8 30.4 108.8 35.6 95.7 35.6"/>
  <path d="m116.8 35.6h-5.5v-18.3h5.5zm-6-23c-0.1-1.8 1.3-3.4 3.1-3.5s3.4 1.3 3.5 3.1v0.4c0 1.9-1.5 3.4-3.4 3.4-1.8 0-3.3-1.4-3.3-3.2l0.1-0.2"/>
  <path d="m128.4 21.6c-2.6 0-3.9 2.1-3.9 4.4s1.4 4.3 3.8 4.3c2.3 0 4.2-1.8 4.2-4.1v-0.2c0.1-2.4-1.3-4.4-4.1-4.4m-9.3 4.5c0-5 3.1-9.1 8-9.1 2.1-0.1 4.1 0.8 5.5 2.4v-2.1h5.3v16.1c0 5.7-4.2 8.6-9.4 8.6-4.5 0-8.4-2.3-9-6.4h6.2c0.6 1.1 1.7 1.7 2.9 1.5 1.9 0 3.7-0.9 3.7-2.9v-1.4c-1.5 1.3-3.3 2-5.3 2.1-4.6 0.1-7.8-3.8-7.9-8.8"/>
  <path d="m150.1 22.1c-2.3-0.1-4.3 1.8-4.3 4.1v0.3c0 2.5 1.6 4.6 4.1 4.6 2.4 0.1 4.4-1.8 4.5-4.3v-0.2c0.1-2.4-1.6-4.4-4-4.6l-0.3 0.1m-9.9 4.5c0-5.1 3.8-9.6 8.8-9.6 2 0 3.9 0.8 5.3 2.2v-1.9h5.5v18.3h-5.6v-1.8c-1.4 1.4-3.4 2.3-5.5 2.2-5 0.1-8.5-3.6-8.5-9.4"/>
 </g>
</svg>
