<svg width="1128.8" height="340.16" version="1.1" viewBox="0 0 1128.8 340.16" xmlns="http://www.w3.org/2000/svg">
 <path d="m992.84 226.61a19.913 19.913 0 0 1 20.16 2.2788c7.2262 5.7072 10.265 14.822 12.728 23.342a130.13 130.13 0 0 1 1.8476 53.849c-0.8211 5.2758-3.88 11.332-9.7515 12.051a7.8833 7.8833 0 0 1-8.7452-7.1031c-1.047-12.071 3.3463-24.183 0.6159-36.172-0.7596-3.9006-4.7218-7.3493-8.7865-6.4052-5.2758 1.7039-8.7043 6.5282-11.27 11.188-5.358 10.142-8.4373 21.288-11.907 32.148-2.3814 7.8833-6.1586 16.115-13.775 20.221-12.318 6.713-29.972 5.3171-38.882-6.4256-7.6985-10.49-12.913-22.582-20.057-33.36-1.9092-2.443-4.5574-6.1586-8.2116-4.8244-3.5105 0.96488-4.4137 5.1119-4.4137 8.2116 0.53375 11.866 6.1586 22.582 8.2116 34.222 1.1291 4.7218-1.9092 11.045-7.4932 10.265-5.2554 0.59534-8.376-4.4343-10.162-8.5812-7.8629-19.215-12.091-40.668-7.6571-61.261 2.0529-9.4845 5.2554-19.379 12.584-26.154s19.831-8.2116 27.858-1.786c11.476 8.9096 16.3 23.342 25.969 33.771 5.3171 5.9125 15.623 6.1586 20.385-0.49271 10.47-15.992 11.168-40.422 30.753-48.983z" fill="#fff" stroke-width="1.9985"/>
 <path d="m1079.3 242.76h22.582v27.283h26.914v22.192h-26.893q0 13.652 0 27.283h-22.582v-27.304h-27.304v-22.151h27.304z" fill="#fff" stroke-width="1.9985"/>
 <path d="m816.74 277.17a20.18 20.18 0 0 1 18.045-7.7189c0 3.9826 0 7.9655 0.20526 11.968-4.9066-1.047-10.921-1.1701-13.877 3.6542-6.323 10.162-3.572 22.767-4.1058 34.078q-6.1586 0-12.318 0v-49.085h12.441c-0.24612 2.4635-0.30788 4.7218-0.39008 7.1031z" fill="#fff" stroke-width="1.9985"/>
 <path d="m693.59 270.07h11.948v3.9621c8.3142-7.0005 22.213-5.7685 28.864 2.9151 6.6513 8.6836 6.59 21.309 2.5661 31.184-4.8653 11.948-21.576 15.253-31.41 7.4728 0.12306 7.7189 0 15.458 0 23.177h-11.948zm17.676 11.003c-10.265 5.9738-8.8483 27.201 4.4137 28.289 10.265-0.78011 12.831-13.714 9.6897-21.761a10.265 10.265 0 0 0-14.104-6.5282z" fill="#fff" stroke-width="1.9985"/>
 <path d="m762.46 270.87c9.5049-2.8741 21.268-1.4986 28.063 6.3847a28.597 28.597 0 0 1 2.5867 31.02c-8.2116 14.904-32.436 15.561-41.9 1.745-8.7043-12.708-4.5369-34.242 11.25-39.149zm4.9884 10.08c-11.414 5.0297-10.142 26.298 2.8741 28.207 8.2116 1.1496 13.857-7.8011 13.2-15.233 0.32831-8.1498-7.6576-16.772-16.074-12.974z" fill="#fff" stroke-width="1.9985"/>
 <path class="cls-1" d="m1092.4 27.725h22.386q0 68.576 0 137.15-11.245 0-22.428 0 0.063-68.576 0.042-137.15z" fill="#3f9" stroke-width="9.4315"/>
 <g transform="matrix(4.7193 0 0 4.7193 206.37 .0018923)" fill="#3f9" stroke-width=".2119" aria-label="6">
  <path d="m169 20.908q1.6283 0 2.9435 0.53234 1.3465 0.50102 2.2859 1.4404 0.97073 0.93941 1.5031 2.2546 0.53233 1.3152 0.53233 2.9122 0 1.5657-0.56365 2.8809-0.53233 1.3152-1.5344 2.2546-0.97073 0.93941-2.3798 1.4717-1.3778 0.53234-3.0374 0.53234-1.691 0-3.1001-0.53234-1.4091-0.53233-2.4425-1.4717-1.002-0.97073-1.5657-2.2859-0.53234-1.3152-0.53234-2.8496 0-1.002 0.25051-2.0667 0.25051-1.096 0.97073-2.3485l6.0749-10.866h5.3547zm-0.25051 4.3213q-1.1273 0-1.9415 0.72022-0.78284 0.72022-0.78284 2.098 0 1.3152 0.78284 2.0667 0.81416 0.75153 1.9415 0.75153 1.1273 0 1.9101-0.75153 0.81416-0.75153 0.81416-2.0667 0-1.3778-0.81416-2.098-0.78285-0.72022-1.9101-0.72022z" stroke-width=".2119"/>
 </g>
 <g transform="matrix(1.0055 0 0 1.0055 2.5137e-6 -.005508)" fill="#3f9">
  <g transform="matrix(4.5485 0 0 4.5485 316.14 -85.301)">
   <path d="m-62.505 29.755v0.3l0.1 0.1 8.9 5.1c0.1 0.1 0.2 0.1 0.3 0l0.1-0.1c1.7-3.1 4.7-5.2 8.2-5.8 0 0 0.1 0 0.1-0.1 0.1-0.1 0.1-0.2 0.1-0.3l-1.9-10s0-0.1-0.1-0.1c0-0.1-0.1-0.1-0.2-0.1-6.6 1.2-12.3 5.2-15.6 11"/>
   <path d="m-67.605 49.255c0 0.1 0.1 0.2 0.2 0.2h0.1l9.6-3.6c0.1 0 0.2-0.1 0.2-0.2v-0.1c-1.3-3.2-1.1-6.9 0.6-9.9v-0.1c0-0.1-0.1-0.2-0.1-0.3l-9-4.9h-0.1c-0.1 0-0.2 0-0.3 0.1-3.1 5.7-3.5 12.7-1.2 18.8"/>
   <path d="m-55.405 65.255c0.1 0 0.2 0 0.3-0.1l0.1-0.1 3-9.8c0-0.1 0-0.2-0.1-0.3h-0.1c-3.3-1-6.1-3.4-7.4-6.6-0.1-0.1-0.2-0.2-0.3-0.1l-9.4 4.1-0.2-0.1v0.3c2.6 6.1 7.8 10.7 14.1 12.7"/>
   <path d="m-35.405 65.655c0.1-0.1 0.1-0.2 0.1-0.3v-0.1l-5.8-8.5c-0.1-0.1-0.2-0.1-0.3-0.1h-0.1c-2.9 2-6.5 2.6-9.8 1.6h-0.1c-0.1 0-0.2 0.1-0.2 0.2l-2.8 9.9v0.1c0 0.1 0.1 0.2 0.2 0.2 6.4 1.9 13.3 0.7 18.8-3"/>
   <path d="m-22.405 50.355c0-0.1-0.1-0.2-0.2-0.3h-0.1l-10.2-0.8c-0.1 0-0.2 0.1-0.3 0.1v0.1c-0.2 3.5-2 6.7-4.8 8.7 0 0-0.1 0-0.1 0.1-0.1 0.1-0.1 0.2 0 0.3l6.1 8.3 0.1 0.1h0.3c5.4-3.9 8.8-9.9 9.2-16.6"/>
   <path d="m-26.205 30.655h-0.3s-0.1 0-0.1 0.1l-7 7.4c-0.1 0.1-0.1 0.2 0 0.3v0.1c2.5 2.4 3.9 5.7 3.7 9.2v0.1c0 0.1 0.1 0.2 0.2 0.2l10.2 0.5h0.1c0.1 0 0.2-0.1 0.2-0.2 0.4-6.6-2.2-13.1-7-17.7"/>
   <path d="m-44.205 21.555c-0.1 0-0.2 0.1-0.2 0.2v0.1l1.5 10.1c0 0.1 0.1 0.2 0.2 0.2h0.2c3.4-0.5 6.9 0.5 9.5 2.8 0 0 0.1 0 0.1 0.1 0.1 0 0.2 0 0.3-0.1l6.7-7.8 0.1-0.1c0-0.1 0-0.2-0.1-0.3-5-4.3-11.7-6.3-18.3-5.2"/>
   <path d="m-38.605 49.255c0.1-0.3 0.2-0.7 0.2-1.1-0.2 0.2-0.4 0.3-0.5 0.5-0.5 0.4-1.2 0.7-1.8 0.8l-1.8-1.7 1.2 2.1c-0.3 0.6-0.8 1.2-1.4 1.6-0.2 0.1-0.4 0.3-0.6 0.4 0.4 0.1 0.7 0.1 1.1 0.1-1.7 0.6-3.6 0.6-5.3 0 0.4 0 0.7-0.1 1.1-0.2-0.8-0.4-1.5-1.1-2-1.9l1.2-2.1-1.6 1.8c-0.7-0.1-1.3-0.4-1.8-0.8-0.2-0.1-0.4-0.3-0.6-0.5 0 0.4 0.1 0.7 0.2 1.1-1.1-1.4-1.6-3-1.6-4.8v-0.3c0.1 0.3 0.3 0.7 0.5 1 0-0.2 0.1-0.5 0.2-0.7 0.2-0.7 0.5-1.3 1-1.8l2.3 0.5-2.2-1c-0.1-0.9 0.1-1.8 0.5-2.6-0.4 0.1-0.7 0.3-1 0.6 1-1.6 2.6-2.7 4.4-3.2-0.3 0.2-0.6 0.5-0.9 0.8h0.7c0.7 0 1.4 0.1 2 0.4l0.3 2.4 0.3-2.4c0.6-0.3 1.3-0.4 2-0.4h0.7c-0.3-0.3-0.6-0.5-0.9-0.8 1.8 0.5 3.3 1.6 4.4 3.1-0.3-0.2-0.6-0.4-1-0.6 0.1 0.2 0.2 0.4 0.3 0.7 0.2 0.6 0.3 1.3 0.2 2l-2.2 1 2.4-0.6c0.5 0.5 0.8 1.1 1 1.8 0.1 0.2 0.1 0.5 0.2 0.7 0.2-0.3 0.3-0.7 0.5-1v0.3c-0.2 1.7-0.7 3.4-1.7 4.8m-6.2-13.3c-4.7 0-8.5 3.8-8.5 8.4s3.8 8.5 8.4 8.5c4.7 0 8.5-3.8 8.5-8.4s-3.8-8.4-8.4-8.5"/>
   <polygon transform="translate(-69.505,18.755)" points="21.3 24.6 22.6 28.7 26.8 28.7 28.1 24.6 24.7 22.1"/>
  </g>
  <g transform="matrix(4.5325 0 0 4.5325 -.13888 .85175)">
   <path d="m173.7 14.9h-6.7l0.4-2h15.7l-0.4 2h-6.7l-4 20.9h-2.3z"/>
   <path d="m191.2 32.9 11.5-20h2.5l-13.3 22.9h-2.5l-4.4-22.9h2.5z"/>
   <polygon points="58.8 12.8 64.7 12.8 64.7 30.4 71.9 30.4 71.9 35.6 58.8 35.6"/>
   <path d="m82.8 22.1c-2.3-0.1-4.3 1.8-4.3 4.1v0.3c0 2.5 1.6 4.6 4.2 4.6 2.4 0.1 4.5-1.8 4.5-4.3v-0.2c0.1-2.4-1.7-4.4-4-4.5h-0.4m-9.9 4.5c0-5.1 3.8-9.6 8.8-9.6 2 0 3.9 0.8 5.2 2.2v-1.9h5.5v18.3h-5.6v-1.8c-1.4 1.4-3.4 2.3-5.5 2.2-5 0.1-8.4-3.6-8.4-9.4"/>
   <polygon points="95.7 12.8 101.6 12.8 101.6 30.4 108.8 30.4 108.8 35.6 95.7 35.6"/>
   <path d="m116.8 35.6h-5.5v-18.3h5.5zm-6-23c-0.1-1.8 1.3-3.4 3.1-3.5s3.4 1.3 3.5 3.1v0.4c0 1.9-1.5 3.4-3.4 3.4-1.8 0-3.3-1.4-3.3-3.2l0.1-0.2"/>
   <path d="m128.4 21.6c-2.6 0-3.9 2.1-3.9 4.4s1.4 4.3 3.8 4.3c2.3 0 4.2-1.8 4.2-4.1v-0.2c0.1-2.4-1.3-4.4-4.1-4.4m-9.3 4.5c0-5 3.1-9.1 8-9.1 2.1-0.1 4.1 0.8 5.5 2.4v-2.1h5.3v16.1c0 5.7-4.2 8.6-9.4 8.6-4.5 0-8.4-2.3-9-6.4h6.2c0.6 1.1 1.7 1.7 2.9 1.5 1.9 0 3.7-0.9 3.7-2.9v-1.4c-1.5 1.3-3.3 2-5.3 2.1-4.6 0.1-7.8-3.8-7.9-8.8"/>
   <path d="m150.1 22.1c-2.3-0.1-4.3 1.8-4.3 4.1v0.3c0 2.5 1.6 4.6 4.1 4.6 2.4 0.1 4.4-1.8 4.5-4.3v-0.2c0.1-2.4-1.6-4.4-4-4.6l-0.3 0.1m-9.9 4.5c0-5.1 3.8-9.6 8.8-9.6 2 0 3.9 0.8 5.3 2.2v-1.9h5.5v18.3h-5.6v-1.8c-1.4 1.4-3.4 2.3-5.5 2.2-5 0.1-8.5-3.6-8.5-9.4"/>
  </g>
 </g>
</svg>
