<svg width="921.89" height="340.16" version="1.1" viewBox="0 0 921.89 340.16" xmlns="http://www.w3.org/2000/svg">
 <g transform="matrix(4.5734 0 0 4.5734 317.87 -85.775)" fill="#3f9">
  <path d="m-62.505 29.755v0.3l0.1 0.1 8.9 5.1c0.1 0.1 0.2 0.1 0.3 0l0.1-0.1c1.7-3.1 4.7-5.2 8.2-5.8 0 0 0.1 0 0.1-0.1 0.1-0.1 0.1-0.2 0.1-0.3l-1.9-10s0-0.1-0.1-0.1c0-0.1-0.1-0.1-0.2-0.1-6.6 1.2-12.3 5.2-15.6 11"/>
  <path d="m-67.605 49.255c0 0.1 0.1 0.2 0.2 0.2h0.1l9.6-3.6c0.1 0 0.2-0.1 0.2-0.2v-0.1c-1.3-3.2-1.1-6.9 0.6-9.9v-0.1c0-0.1-0.1-0.2-0.1-0.3l-9-4.9h-0.1c-0.1 0-0.2 0-0.3 0.1-3.1 5.7-3.5 12.7-1.2 18.8"/>
  <path d="m-55.405 65.255c0.1 0 0.2 0 0.3-0.1l0.1-0.1 3-9.8c0-0.1 0-0.2-0.1-0.3h-0.1c-3.3-1-6.1-3.4-7.4-6.6-0.1-0.1-0.2-0.2-0.3-0.1l-9.4 4.1-0.2-0.1v0.3c2.6 6.1 7.8 10.7 14.1 12.7"/>
  <path d="m-35.405 65.655c0.1-0.1 0.1-0.2 0.1-0.3v-0.1l-5.8-8.5c-0.1-0.1-0.2-0.1-0.3-0.1h-0.1c-2.9 2-6.5 2.6-9.8 1.6h-0.1c-0.1 0-0.2 0.1-0.2 0.2l-2.8 9.9v0.1c0 0.1 0.1 0.2 0.2 0.2 6.4 1.9 13.3 0.7 18.8-3"/>
  <path d="m-22.405 50.355c0-0.1-0.1-0.2-0.2-0.3h-0.1l-10.2-0.8c-0.1 0-0.2 0.1-0.3 0.1v0.1c-0.2 3.5-2 6.7-4.8 8.7 0 0-0.1 0-0.1 0.1-0.1 0.1-0.1 0.2 0 0.3l6.1 8.3 0.1 0.1h0.3c5.4-3.9 8.8-9.9 9.2-16.6"/>
  <path d="m-26.205 30.655h-0.3s-0.1 0-0.1 0.1l-7 7.4c-0.1 0.1-0.1 0.2 0 0.3v0.1c2.5 2.4 3.9 5.7 3.7 9.2v0.1c0 0.1 0.1 0.2 0.2 0.2l10.2 0.5h0.1c0.1 0 0.2-0.1 0.2-0.2 0.4-6.6-2.2-13.1-7-17.7"/>
  <path d="m-44.205 21.555c-0.1 0-0.2 0.1-0.2 0.2v0.1l1.5 10.1c0 0.1 0.1 0.2 0.2 0.2h0.2c3.4-0.5 6.9 0.5 9.5 2.8 0 0 0.1 0 0.1 0.1 0.1 0 0.2 0 0.3-0.1l6.7-7.8 0.1-0.1c0-0.1 0-0.2-0.1-0.3-5-4.3-11.7-6.3-18.3-5.2"/>
  <path d="m-38.605 49.255c0.1-0.3 0.2-0.7 0.2-1.1-0.2 0.2-0.4 0.3-0.5 0.5-0.5 0.4-1.2 0.7-1.8 0.8l-1.8-1.7 1.2 2.1c-0.3 0.6-0.8 1.2-1.4 1.6-0.2 0.1-0.4 0.3-0.6 0.4 0.4 0.1 0.7 0.1 1.1 0.1-1.7 0.6-3.6 0.6-5.3 0 0.4 0 0.7-0.1 1.1-0.2-0.8-0.4-1.5-1.1-2-1.9l1.2-2.1-1.6 1.8c-0.7-0.1-1.3-0.4-1.8-0.8-0.2-0.1-0.4-0.3-0.6-0.5 0 0.4 0.1 0.7 0.2 1.1-1.1-1.4-1.6-3-1.6-4.8v-0.3c0.1 0.3 0.3 0.7 0.5 1 0-0.2 0.1-0.5 0.2-0.7 0.2-0.7 0.5-1.3 1-1.8l2.3 0.5-2.2-1c-0.1-0.9 0.1-1.8 0.5-2.6-0.4 0.1-0.7 0.3-1 0.6 1-1.6 2.6-2.7 4.4-3.2-0.3 0.2-0.6 0.5-0.9 0.8h0.7c0.7 0 1.4 0.1 2 0.4l0.3 2.4 0.3-2.4c0.6-0.3 1.3-0.4 2-0.4h0.7c-0.3-0.3-0.6-0.5-0.9-0.8 1.8 0.5 3.3 1.6 4.4 3.1-0.3-0.2-0.6-0.4-1-0.6 0.1 0.2 0.2 0.4 0.3 0.7 0.2 0.6 0.3 1.3 0.2 2l-2.2 1 2.4-0.6c0.5 0.5 0.8 1.1 1 1.8 0.1 0.2 0.1 0.5 0.2 0.7 0.2-0.3 0.3-0.7 0.5-1v0.3c-0.2 1.7-0.7 3.4-1.7 4.8m-6.2-13.3c-4.7 0-8.5 3.8-8.5 8.4s3.8 8.5 8.4 8.5c4.7 0 8.5-3.8 8.5-8.4s-3.8-8.4-8.4-8.5"/>
  <polygon transform="translate(-69.505 18.755)" points="22.6 28.7 26.8 28.7 28.1 24.6 24.7 22.1 21.3 24.6"/>
 </g>
 <g transform="translate(-.53835 .00016043)">
  <path d="m786.47 226.61a19.913 19.913 0 0 1 20.16 2.2788c7.2262 5.7072 10.265 14.822 12.728 23.342a130.13 130.13 0 0 1 1.8476 53.849c-0.82116 5.2758-3.88 11.332-9.7515 12.051a7.8833 7.8833 0 0 1-8.7452-7.1031c-1.047-12.071 3.3463-24.183 0.61586-36.172-0.75959-3.9006-4.7218-7.3493-8.7865-6.4052-5.2758 1.7039-8.7043 6.5282-11.27 11.188-5.358 10.142-8.4373 21.288-11.907 32.148-2.3814 7.8833-6.1586 16.115-13.775 20.221-12.318 6.713-29.972 5.3171-38.882-6.4256-7.6985-10.49-12.913-22.582-20.057-33.36-1.9092-2.443-4.5574-6.1586-8.2116-4.8244-3.5105 0.96488-4.4137 5.1119-4.4137 8.2116 0.53375 11.866 6.1586 22.582 8.2116 34.222 1.1291 4.7218-1.9092 11.045-7.4932 10.265-5.2554 0.59534-8.376-4.4343-10.162-8.5812-7.8629-19.215-12.091-40.668-7.6571-61.261 2.0529-9.4845 5.2554-19.379 12.584-26.154s19.831-8.2116 27.858-1.786c11.476 8.9096 16.3 23.342 25.969 33.771 5.3171 5.9125 15.623 6.1586 20.385-0.49271 10.47-15.992 11.168-40.422 30.753-48.983z" stroke-width="1.9985"/>
  <path d="m872.93 242.76h22.582v27.283h26.914v22.192h-26.893q0 13.652 0 27.283h-22.582v-27.304h-27.304v-22.151h27.304z" stroke-width="1.9985"/>
  <path d="m610.37 277.17a20.18 20.18 0 0 1 18.045-7.7189c0 3.9826 0 7.9655 0.20526 11.968-4.9066-1.047-10.921-1.1701-13.877 3.6542-6.323 10.162-3.572 22.767-4.1058 34.078q-6.1586 0-12.318 0v-49.085h12.441c-0.24612 2.4635-0.30788 4.7218-0.39008 7.1031z" stroke-width="1.9985"/>
  <path d="m487.22 270.07h11.948v3.9621c8.3142-7.0005 22.213-5.7685 28.864 2.9151 6.6513 8.6836 6.59 21.309 2.5661 31.184-4.8653 11.948-21.576 15.253-31.41 7.4728 0.12306 7.7189 0 15.458 0 23.177h-11.948zm17.676 11.003c-10.265 5.9738-8.8483 27.201 4.4137 28.289 10.265-0.78011 12.831-13.714 9.6897-21.761a10.265 10.265 0 0 0-14.104-6.5282z" stroke-width="1.9985"/>
  <path d="m556.09 270.87c9.5049-2.8741 21.268-1.4986 28.063 6.3847a28.597 28.597 0 0 1 2.5867 31.02c-8.2116 14.904-32.436 15.561-41.9 1.745-8.7043-12.708-4.5369-34.242 11.25-39.149zm4.9884 10.08c-11.414 5.0297-10.142 26.298 2.8741 28.207 8.2116 1.1496 13.857-7.8011 13.2-15.233 0.32831-8.1498-7.6576-16.772-16.074-12.974z" stroke-width="1.9985"/>
  <path class="cls-1" d="m886.05 27.723h22.386q0 68.576 0 137.15-11.245 0-22.428 0 0.0628-68.576 0.0425-137.15z" fill="#3f9" stroke-width="9.4315"/>
  <path class="cls-1" d="m514.83 43.332c10.619-4.4021 23.283 5.9666 20.675 17.274-1.3352 10.703-15.084 16.795-23.909 10.619-10.473-6.1337-8.3451-24.264 3.2338-27.894z" fill="#3f9" stroke-width="9.4315"/>
  <path class="cls-1" d="m268.15 58.585c9.2838 0 18.547-0.18778 27.831 0.20864-0.37551 26.705 0 53.408-0.14606 80.115h32.838v23.972q-30.251 0-60.501 0 0.0415-52.139-0.0208-104.29z" fill="#3f9" stroke-width="9.4315"/>
  <path class="cls-1" d="m436.04 58.585h27.643q0 40.14 0 80.322h32.838q0 11.975 0 23.972-30.23 0-60.501 0z" fill="#3f9" stroke-width="9.4315"/>
  <path class="cls-1" d="m347.93 86.58c13.352-11.934 35.467-12.643 48.547 0.16692v-7.8029h25.515q0 41.997 0 83.975h-26.058c0-1.8151 0-5.4244 0.12515-7.2394-15.522 14.187-42.853 11.954-55.244-5.2365-13.394-19.006-11.182-48.547 7.1143-63.861zm22.511 16.085c-16.962 5.9043-15.292 33.798 1.6899 38.43 13.269 3.9222 27.351-8.3451 25.035-22.052-0.66759-12.643-15.167-21.572-26.725-16.377z" fill="#3f9" stroke-width="9.4315"/>
  <path class="cls-1" d="m555.09 87.397c12.705-13.394 36.301-13.498 49.005 0v-8.4914h24.451v75.627a36.093 36.093 0 0 1-15.731 30.23c-12.518 8.3451-28.728 9.1172-42.873 5.2785-12.664-3.4841-23.554-13.811-25.495-27.122h28.853c5.3201 8.3451 17.587 7.9279 25.035 2.9625 4.9029-3.3589 4.7566-9.7014 4.7986-14.98-8.1158 6.3843-18.589 10.724-29.062 8.9294a34.758 34.758 0 0 1-26.1-18.777c-8.4494-17.066-6.2172-39.681 7.1143-53.658zm22.135 14.062c-13.436 7.7401-12.1 32.15 3.505 36.489 12.518 3.6301 25.432-8.3451 23.408-20.967 0.16707-13.227-15.647-21.781-26.913-15.522z" fill="#3f9" stroke-width="9.4315"/>
  <path class="cls-1" d="m649.33 91.795c12.414-16.315 38.972-20.007 53.828-4.9444v-7.9907h25.495v83.975h-26.079c0-1.8151 0-5.4244 0.1043-7.2394-15.272 13.686-41.538 12.142-54.409-4.0266-12.852-17.003-12.601-43.082 1.064-59.775zm27.706 10.828c-15.272 5.4659-15.877 29.208-2.0863 36.74 12.518 7.3437 30.314-3.6719 28.874-18.297 0.83451-13.332-14.52-24.097-26.788-18.359z" fill="#3f9" stroke-width="9.4315"/>
  <path class="cls-1" d="m506.95 78.944q12.768 0 25.515 0 0 41.955 0 83.952h-25.515z" fill="#3f9" stroke-width="9.4315"/>
  <g transform="matrix(4.7193 0 0 4.7193 .0018877 0)" fill="#3f9" stroke-width=".2119" aria-label="4">
   <path d="m170.19 31.367h-9.3315v-2.693l9.1436-15.657h4.885v14.029h2.5677v4.3213h-2.5677v3.5698h-4.6971zm0-4.3213v-6.8264l-3.8516 6.8264z" stroke-width=".2119"/>
  </g>
 </g>
</svg>
