<svg width="237.04" height="75.676" clip-rule="evenodd" fill-rule="evenodd" image-rendering="optimizeQuality" shape-rendering="geometricPrecision" text-rendering="geometricPrecision" space="preserve" version="1.1" viewBox="0 0 1519.9 511.76" xmlns="http://www.w3.org/2000/svg">
 <g transform="matrix(1.3584 0 0 1.3584 15.703 1023.9)" fill-rule="evenodd">
  <g transform="matrix(4.3292 0 0 -4.3292 -418.9 2948.4)" fill="#ec6e00">
   <path d="m154.46 843.9v-6.4667h11.939c3.9214 0 7.1299 3.2085 7.1299 7.13v10.667h-11.939c-3.9215 0-7.13-3.2085-7.13-7.13z"/>
   <path d="m106.3 793.9v11.608c0 2.7623 2.0724 5.1329 4.718 5.6123l0.6568 0.0785c0.108 7e-3 0.2165 0.0102 0.3262 0.0102l22.804-0.0102h19.658v23h-42.462c-13.948 0-25.359-11.412-25.359-25.359v-14.94h13.095z"/>
  </g>
  <path d="m164.7-563.47v50.256c0 11.959-8.9706 22.222-20.425 24.298l-2.8422 0.33897c-0.46886 0.0303-0.93858 0.0442-1.4135 0.0442l-98.722-0.0442h-85.106v99.574h183.83c60.383 0 109.79-49.404 109.79-109.79v-64.68h-56.692z" fill="#8f8f8d"/>
 </g>
 <path d="m587.18 332.42v-219.83h43.686v219.83zm136.66 2.8001c-44.059 0-66.087-15.869-66.087-47.606 0-17.922 7.4667-30.898 22.403-38.925 14.934-8.0269 35.564-13.255 61.888-15.682v-7.0009c0-7.4667-2.2861-12.695-6.861-15.683-4.5742-2.987-11.155-4.4794-19.742-4.4794-6.9082 0-13.629 0.83982-20.163 2.5191-6.5334 1.6817-12.882 3.9216-19.042 6.7217l-9.5214-24.923c8.775-3.7334 18.343-6.5807 28.704-8.541s19.742-2.9408 28.143-2.9408c18.67 0 33.231 4.2946 43.686 12.882 10.455 8.5871 15.683 22.683 15.683 42.286v90.171c-6.5352 3.5461-14.843 6.3-24.923 8.26-10.081 1.9603-21.47 2.9411-34.165 2.9411zm18.203-82.05c-14.935 1.4924-25.904 4.4797-32.905 8.9602-7.0002 4.4815-10.501 12.415-10.501 23.803 0 8.5892 2.3343 14.935 7.0013 19.043 4.6676 4.1064 11.481 6.1601 20.443 6.1601 6.5345 0 11.855-1.0267 15.962-3.0804zm158.5 79.25v-105.57c0-6.1601-1.6817-11.201-5.041-15.121-3.361-3.9206-9.1491-5.8805-17.363-5.8805-4.1074 0-7.3729 0.23305-9.8007 0.69985-2.4271 0.4668-5.3206 1.2601-8.6816 2.3805v123.5h-43.685v-142.54c7.8408-3.5472 17.082-6.3007 27.723-8.261 10.642-1.9603 22.496-2.9408 35.564-2.9408 22.776 0 39.299 4.2481 49.566 12.742 10.267 8.4944 15.402 20.21 15.402 35.145v105.85zm133.3 2.8001c-18.436 0-33.37-6.9075-44.76-20.723-11.434-13.815-17.129-33.138-17.129-57.967 0-24.457 5.8343-43.546 17.549-57.267 11.669-13.722 26.371-20.584 44.059-20.584 8.401 0 15.682 1.0267 21.843 3.0804 6.1612 2.054 11.202 4.668 15.122 7.8418l-8.9612 24.083c-2.4278-1.8668-4.9473-3.3141-7.5612-4.3408-2.6139-1.027-6.0677-1.54-10.361-1.54-9.3352 0-16.335 4.1078-21.003 12.322-4.6676 8.2148-7.0002 20.162-7.0002 35.845 0 15.308 2.426 27.163 7.2805 35.565 4.8538 8.4003 11.668 12.6 20.443 12.6 7.4667 0 13.536-2.0527 18.202-6.1601l9.2408 26.323c-3.5472 3.36-8.3076 6.0204-14.282 7.9804-5.9743 1.9603-13.535 2.9411-22.683 2.9411zm97.171-63.008c2.988 22.03 15.122 33.044 36.405 33.044 8.0276 0 15.448-0.74639 22.263-2.2399 6.8137-1.4935 12.461-3.4538 16.942-5.8805l9.801 27.163c-6.3462 3.1742-14.047 5.787-23.103 7.8408-9.0536 2.0537-19.369 3.0807-30.944 3.0807-22.963 0-40.838-7.0013-53.626-21.003-12.788-14.001-19.182-33.23-19.182-57.686 0-23.897 5.9739-42.846 17.922-56.848 11.948-14.002 28.657-21.003 50.126-21.003s37.478 6.9086 48.025 20.723c10.548 13.815 15.822 33.79 15.822 59.927zm24.923-67.769c-18.483 0-27.724 15.449-27.724 46.393l52.647-7.7946c0-13.255-2.1009-22.963-6.3-29.216-4.2008-6.2545-10.408-9.3825-18.623-9.3825zm94.092 127.98v-219.83h43.685v219.83zm138.9 2.8001c-21.284 0-37.712-7.2336-49.288-21.702-11.574-14.469-17.362-33.371-17.362-56.708 0-23.336 5.7408-42.192 17.222-56.567 11.482-14.375 27.864-21.563 49.147-21.563 21.282 0 37.759 7.1881 49.426 21.563 11.668 14.375 17.502 33.231 17.502 56.567 0 23.337-5.7881 42.239-17.362 56.708-11.574 14.469-28.003 21.702-49.286 21.702zm0-129.38c-8.6816 0-14.656 4.5266-17.969 13.582-3.3151 9.0536-4.9945 21.33-4.9945 36.824 0 15.308 1.6794 27.35 4.9945 36.125 3.3128 8.7744 9.287 13.161 17.969 13.161 8.8675 0 14.888-4.3398 18.108-13.021 3.2207-8.6806 4.8538-20.77 4.8538-36.265 0-15.869-1.6331-28.236-4.8538-37.105-3.2204-8.8678-9.2408-13.301-18.108-13.301zm148.7 128.82c-14.935 0-26.231-4.1547-33.884-12.462-7.6549-8.3086-11.482-18.716-11.482-31.224v-81.21h-16.521v-28.284h16.521v-32.064l43.687-11.155v43.219h23.243v28.284h-23.243v77.85c0 11.761 4.6666 17.642 14.001 17.642 2.4278 0 5.5085-0.55919 9.2419-1.6796v26.884c-1.6807 0.74639-4.7139 1.6334-9.1019 2.6601-4.3863 1.027-8.541 1.5407-12.461 1.5407" fill="#8f8f8d" fill-rule="nonzero"/>
 <g transform="matrix(4.2431 0 0 4.2431 289.01 748.58)" fill="#ec6e00" font-family="Ubuntu" font-size="40px" font-weight="300" letter-spacing="0px" stroke-width="1px" word-spacing="0px" aria-label="televisión">
  <path d="m136.38-76.972h8.24v2.2h-8.24v11q0 1.76 0.28 2.88 0.32 1.08 0.88 1.68t1.36 0.8 1.76 0.2q1.64 0 2.64-0.36 1-0.4 1.56-0.72l0.64 2.16q-0.56 0.36-1.96 0.84-1.4 0.44-3.04 0.44-1.92 0-3.24-0.48-1.28-0.52-2.08-1.52-0.76-1.04-1.08-2.56t-0.32-3.6v-19.04l2.6-0.48z"/>
  <path d="m148.17-66.652q0-2.72 0.76-4.72 0.8-2.04 2.04-3.4 1.28-1.36 2.88-2 1.64-0.68 3.36-0.68 3.8 0 6.04 2.48 2.28 2.48 2.28 7.64 0 0.32-0.04 0.64 0 0.32-0.04 0.6h-14.52q0.12 3.8 1.88 5.84t5.6 2.04q2.12 0 3.36-0.4t1.8-0.68l0.48 2.24q-0.56 0.32-2.12 0.76-1.52 0.44-3.6 0.44-2.72 0-4.64-0.8t-3.16-2.24-1.8-3.4q-0.56-2-0.56-4.36zm14.68-1.64q-0.08-3.24-1.52-5.04t-4.08-1.8q-1.4 0-2.52 0.56-1.08 0.56-1.92 1.52-0.8 0.92-1.28 2.16-0.44 1.24-0.52 2.6z"/>
  <path d="m176.6-55.932q-1.32-0.04-2.32-0.36-0.96-0.28-1.64-0.88-0.64-0.64-1-1.6-0.32-1-0.32-2.48v-25.6l2.6-0.48v26q0 0.96 0.16 1.56 0.2 0.56 0.56 0.92 0.36 0.32 0.92 0.48 0.6 0.16 1.4 0.28z"/>
  <path d="m180.36-66.652q0-2.72 0.76-4.72 0.8-2.04 2.04-3.4 1.28-1.36 2.88-2 1.64-0.68 3.36-0.68 3.8 0 6.04 2.48 2.28 2.48 2.28 7.64 0 0.32-0.04 0.64 0 0.32-0.04 0.6h-14.52q0.12 3.8 1.88 5.84t5.6 2.04q2.12 0 3.36-0.4t1.8-0.68l0.48 2.24q-0.56 0.32-2.12 0.76-1.52 0.44-3.6 0.44-2.72 0-4.64-0.8t-3.16-2.24-1.8-3.4q-0.56-2-0.56-4.36zm14.68-1.64q-0.08-3.24-1.52-5.04t-4.08-1.8q-1.4 0-2.52 0.56-1.08 0.56-1.92 1.52-0.8 0.92-1.28 2.16-0.44 1.24-0.52 2.6z"/>
  <path d="m209.79-59.092q0.84-1.72 1.72-3.92 0.88-2.24 1.68-4.6 0.84-2.4 1.52-4.8 0.72-2.44 1.2-4.56h2.6q-0.72 2.84-1.6 5.6t-1.88 5.4q-0.96 2.64-2.04 5.08-1.04 2.44-2.04 4.6h-2.48q-1.04-2.16-2.08-4.6t-2.04-5.08q-0.96-2.64-1.84-5.4t-1.6-5.6h2.76q0.48 2.12 1.16 4.56 0.72 2.4 1.52 4.8 0.84 2.36 1.72 4.6 0.88 2.2 1.72 3.92z"/>
  <path d="m225.37-56.292h-2.6v-20.68h2.6zm0.6-26.92q0 0.92-0.56 1.48-0.56 0.52-1.36 0.52t-1.36-0.52q-0.56-0.56-0.56-1.48t0.56-1.44q0.56-0.56 1.36-0.56t1.36 0.56q0.56 0.52 0.56 1.44z"/>
  <path d="m236.46-58.132q2.24 0 3.68-0.72 1.48-0.76 1.48-2.52 0-0.84-0.28-1.44-0.24-0.6-0.84-1.08t-1.6-0.92q-0.96-0.44-2.4-1.04-1.16-0.48-2.2-0.96-1.04-0.52-1.84-1.16-0.8-0.68-1.28-1.6t-0.48-2.24q0-2.52 1.88-4.08 1.92-1.56 5.24-1.56 2.12 0 3.48 0.36 1.4 0.36 1.96 0.64l-0.6 2.32q-0.48-0.24-1.64-0.64-1.12-0.4-3.32-0.4-0.88 0-1.68 0.2-0.76 0.16-1.36 0.56-0.6 0.36-0.96 0.96-0.36 0.56-0.36 1.4t0.32 1.44 0.92 1.08q0.64 0.44 1.52 0.84 0.92 0.4 2.08 0.88 1.2 0.48 2.28 1 1.12 0.48 1.96 1.2 0.84 0.68 1.36 1.68 0.52 0.96 0.52 2.44 0 2.8-2.12 4.24-2.08 1.44-5.72 1.44-2.72 0-4.16-0.48-1.44-0.44-1.92-0.68l0.68-2.36q0.12 0.08 0.52 0.28 0.4 0.16 1.08 0.4 0.68 0.2 1.6 0.36 0.96 0.16 2.2 0.16z"/>
  <path d="m251.93-56.292h-2.6v-20.68h2.6zm0.6-26.92q0 0.92-0.56 1.48-0.56 0.52-1.36 0.52t-1.36-0.52q-0.56-0.56-0.56-1.48t0.56-1.44q0.56-0.56 1.36-0.56t1.36 0.56q0.56 0.52 0.56 1.44z"/>
  <path d="m276.43-66.612q0 2.44-0.72 4.44-0.68 2-1.96 3.4-1.24 1.4-2.96 2.2-1.72 0.76-3.8 0.76t-3.8-0.76q-1.72-0.8-3-2.2-1.24-1.4-1.96-3.4-0.68-2-0.68-4.44t0.68-4.44q0.72-2 1.96-3.4 1.28-1.44 3-2.2 1.72-0.8 3.8-0.8t3.8 0.8q1.72 0.76 2.96 2.2 1.28 1.4 1.96 3.4 0.72 2 0.72 4.44zm-2.76 0q0-3.88-1.8-6.16-1.8-2.32-4.88-2.32t-4.88 2.32q-1.8 2.28-1.8 6.16t1.8 6.16 4.88 2.28 4.88-2.28 1.8-6.16zm-1.16-18.56-6.84 5.56-1.32-1.52 6.32-6.08z"/>
  <path d="m282.07-76.252q1.16-0.32 3.12-0.72t4.8-0.4q2.36 0 3.92 0.68 1.6 0.68 2.52 1.96 0.96 1.24 1.36 3t0.4 3.88v11.56h-2.6v-10.72q0-2.2-0.32-3.72-0.28-1.52-1-2.48-0.68-0.96-1.84-1.36-1.12-0.44-2.84-0.44-1.84 0-3.2 0.2-1.32 0.2-1.72 0.36v18.16h-2.6z"/>
 </g>
</svg>
