<svg version="1.1" viewBox="0 0 477.97 237.16" xml:space="preserve" xmlns="http://www.w3.org/2000/svg"><defs><clipPath id="a"><path d="m0 113.03v-113.64h227.4v113.64" clip-rule="evenodd"/></clipPath><clipPath id="t"><path d="m0 113.03v-113.64h227.4v113.64" clip-rule="evenodd"/></clipPath><clipPath id="s"><path d="m0 113.03v-113.64h227.4v113.64" clip-rule="evenodd"/></clipPath><clipPath id="r"><path d="m0 113.03v-113.64h227.4v113.64" clip-rule="evenodd"/></clipPath><clipPath id="q"><path d="m0 113.03v-113.64h227.4v113.64" clip-rule="evenodd"/></clipPath><clipPath id="p"><path d="m0 113.03v-113.64h227.4v113.64" clip-rule="evenodd"/></clipPath><clipPath id="o"><path d="m0 113.03v-113.64h227.4v113.64" clip-rule="evenodd"/></clipPath><clipPath id="n"><path d="m0 113.03v-113.64h227.4v113.64" clip-rule="evenodd"/></clipPath><clipPath id="m"><path d="m0 113.03v-113.64h227.4v113.64" clip-rule="evenodd"/></clipPath><clipPath id="l"><path d="m0 113.03v-113.64h227.4v113.64" clip-rule="evenodd"/></clipPath><clipPath id="k"><path d="m0 113.03v-113.64h227.4v113.64" clip-rule="evenodd"/></clipPath><clipPath id="j"><path d="m0 113.03v-113.64h227.4v113.64" clip-rule="evenodd"/></clipPath><clipPath id="i"><path d="m0 113.03v-113.64h227.4v113.64" clip-rule="evenodd"/></clipPath><clipPath id="h"><path d="m0 113.03v-113.64h227.4v113.64" clip-rule="evenodd"/></clipPath><clipPath id="g"><path d="m0 113.03v-113.64h227.4v113.64" clip-rule="evenodd"/></clipPath><clipPath id="f"><path d="m0 113.03v-113.64h227.4v113.64" clip-rule="evenodd"/></clipPath><clipPath id="e"><path d="m0 113.03v-113.64h227.4v113.64" clip-rule="evenodd"/></clipPath><clipPath id="d"><path d="m0 113.03v-113.64h227.4v113.64" clip-rule="evenodd"/></clipPath><clipPath id="c"><path d="m0 113.03v-113.64h227.4v113.64" clip-rule="evenodd"/></clipPath><clipPath id="b"><path d="m0 113.03v-113.64h227.4v113.64" clip-rule="evenodd"/></clipPath></defs><g transform="matrix(1.3333 0 0 -1.3333 -274.78 537.58)"><path d="m281.67 363.82s-52.885-27.383-20.17-93.324c13.159-12.28 68.134-54.03 107 14.735-8.9801-11.42-48.335-49.118-94.21-12.28-3.6884 6.1406-35.297 37.698 7.3801 90.869z" fill="none" stroke="#ff0100" stroke-miterlimit="10" stroke-width="1.5977"/><g transform="matrix(1.6393 0 0 1.6371 198.66 223.35)" clip-path="url(#a)"><path d="m50.642 85.802s-32.261-16.727-12.304-57.007c8.027-7.501 41.563-33.004 65.272 9.001-5.478-6.976-29.485-30.004-57.47-7.501-2.25 3.751-21.532 23.028 4.502 55.507z" fill="#f90713"/></g><g transform="matrix(1.6393 0 0 1.6371 198.66 223.35)" clip-path="url(#f)"><path d="m188.84 43.872 4.8 14.777s-4.43 0.075-4.43 0.075 2.03 4.951 2.03 4.951 18.68 0.075 18.68 0.075v-12.752l7.28 12.752h5.25l-7.73-14.102s-3.23-6.076-6.75-6.301c-3.53 0-3.3 1.8-3.3 1.8v16.202l-1.58-2.7h-3.75l-4.8-14.777h-5.7z" fill="#ff0100"/></g><g transform="matrix(1.6393 0 0 1.6371 198.66 223.35)" clip-path="url(#e)"><path d="m188.84 43.872 4.8 14.777s-4.43 0.075-4.43 0.075 2.03 4.951 2.03 4.951 18.68 0.075 18.68 0.075v-12.752l7.28 12.752h5.25l-7.73-14.102s-3.23-6.076-6.75-6.301c-3.53 0-3.3 1.8-3.3 1.8v16.202l-1.58-2.7h-3.75l-4.8-14.777h-5.7z" fill="none" stroke="#ff0100" stroke-miterlimit="10" stroke-width=".9003"/></g><g transform="matrix(1.6393 0 0 1.6371 198.66 223.35)" clip-path="url(#t)"><path d="m85.228 64.35-4.876-15.002s-2.251-6.001 3.301-6.001c5.551 0 6.152-0.075 6.152-0.075s1.95 4.65 1.95 4.65h-5.251s-1.201-0.15-0.451 2.026c0.676 2.175 4.577 14.402 4.577 14.402h-5.402z"/></g><g transform="matrix(1.6393 0 0 1.6371 198.66 223.35)" clip-path="url(#s)"><path d="m91.905 43.647 4.577 14.402s1.725 5.025 7.278 5.926h3.38s4.87 0.45 4.35-7.651c-2.33-7.876-3.75-12.677-3.75-12.677h-5.78l2.62 7.201h-3.97l1.2 4.425s4.65 0.075 4.65 0.075v2.251s-2.7 5.475-5.7-0.6c-1.877-5.926-4.128-13.352-4.128-13.352h-4.727z"/></g><g transform="matrix(1.6393 0 0 1.6371 198.66 223.35)" clip-path="url(#r)"><path d="m91.289 43.197 0.1875 0.58594 4.5781 14.406 2e-3 0.0059s1.8312 5.2836 7.6309 6.2246l0.0371 0.0059h3.416l-0.043-2e-3s1.4014 0.12513 2.6894-0.88086c1.288-1.006 2.4181-3.1084 2.1523-7.248l-4e-3 -0.05078-0.0137-0.04687c-2.33-7.876-3.75-12.678-3.75-12.678l-0.0957-0.32226h-6.7598l2.6211 7.2012h-3.916l1.4434 5.3184 4.5449 0.07422v1.6641c-0.0396 0.07398-0.65716 1.2433-1.5 1.7324-0.43467 0.25226-0.85076 0.33915-1.3906 0.06641-0.53699-0.27129-1.2214-0.98277-1.9434-2.4375-1.8715-5.9113-4.1132-13.301-4.1132-13.301l-0.0957-0.31836zm1.2324 0.90039h3.7793c0.10396 0.34282 2.196 7.249 4.0293 13.037l0.0117 0.0332 0.0137 0.03125c0.77375 1.5669 1.5473 2.4481 2.3574 2.8574 0.81013 0.40928 1.6327 0.26727 2.248-0.08984 1.2307-0.71422 1.9023-2.168 1.9023-2.168l0.0469-0.0957v-2.7988l-4.7539-0.07617-0.95703-3.5293h4.0234l-2.6191-7.2012h4.8008c0.0697 0.23559 1.386 4.6839 3.6348 12.285 0.24491 3.9336-0.79304 5.6576-1.8066 6.4492-1.017 0.79426-2.0508 0.69531-2.0508 0.69531l-0.0215-2e-3h-3.3438c-5.2915-0.86914-6.9082-5.623-6.9082-5.623z" color="#000000" color-rendering="auto" dominant-baseline="auto" image-rendering="auto" shape-rendering="auto" solid-color="#000000" style="font-feature-settings:normal;font-variant-alternates:normal;font-variant-caps:normal;font-variant-ligatures:normal;font-variant-numeric:normal;font-variant-position:normal;isolation:auto;mix-blend-mode:normal;shape-padding:0;text-decoration-color:#000000;text-decoration-line:none;text-decoration-style:solid;text-indent:0;text-orientation:mixed;text-transform:none;white-space:normal"/></g><g transform="matrix(1.6393 0 0 1.6371 198.66 223.35)" clip-path="url(#q)"><path d="m106.24 68.475c0-0.825-0.68-1.575-1.51-1.575-0.9 0-1.57 0.75-1.57 1.575 0 0.9 0.67 1.575 1.57 1.575 0.83 0 1.51-0.675 1.51-1.575z"/></g><g transform="matrix(1.6393 0 0 1.6371 198.66 223.35)" clip-path="url(#p)"><path d="m104.73 66.412c-1.1709 0-2.0586 0.97347-2.0586 2.0625-1e-5 1.142 0.91476 2.0625 2.0586 2.0625 1.0944 0 1.998-0.91686 1.998-2.0625 0-1.093-0.87428-2.0625-1.998-2.0625zm0 0.97461c0.53623 0 1.0215 0.53086 1.0215 1.0879 0 0.65436-0.45588 1.0879-1.0215 1.0879-0.65617 0-1.082-0.42991-1.082-1.0879 0-0.56097 0.45295-1.0879 1.082-1.0879z" color="#000000" color-rendering="auto" dominant-baseline="auto" image-rendering="auto" shape-rendering="auto" solid-color="#000000" style="font-feature-settings:normal;font-variant-alternates:normal;font-variant-caps:normal;font-variant-ligatures:normal;font-variant-numeric:normal;font-variant-position:normal;isolation:auto;mix-blend-mode:normal;shape-padding:0;text-decoration-color:#000000;text-decoration-line:none;text-decoration-style:solid;text-indent:0;text-orientation:mixed;text-transform:none;white-space:normal"/></g><g transform="matrix(1.6393 0 0 1.6371 198.66 223.35)" clip-path="url(#o)"><path d="m111.64 68.625c0-0.9-0.68-1.575-1.58-1.575-0.82 0-1.57 0.675-1.57 1.575 0 0.825 0.75 1.575 1.57 1.575 0.9 0 1.58-0.75 1.58-1.575z"/></g><g transform="matrix(1.6393 0 0 1.6371 198.66 223.35)" clip-path="url(#n)"><path d="m110.06 66.562c-1.0876 0-2.0586 0.89158-2.0586 2.0625 0 1.1206 0.94124 2.0625 2.0586 2.0625 1.1709 0 2.0664-0.96953 2.0664-2.0625 0-1.1456-0.92257-2.0625-2.0664-2.0625zm0 0.97461c0.65617 0 1.0918 0.43353 1.0918 1.0879 0 0.55703-0.46272 1.0879-1.0918 1.0879-0.52265 0-1.082-0.55844-1.082-1.0879 0-0.62908 0.52965-1.0879 1.082-1.0879z" color="#000000" color-rendering="auto" dominant-baseline="auto" image-rendering="auto" shape-rendering="auto" solid-color="#000000" style="font-feature-settings:normal;font-variant-alternates:normal;font-variant-caps:normal;font-variant-ligatures:normal;font-variant-numeric:normal;font-variant-position:normal;isolation:auto;mix-blend-mode:normal;shape-padding:0;text-decoration-color:#000000;text-decoration-line:none;text-decoration-style:solid;text-indent:0;text-orientation:mixed;text-transform:none;white-space:normal"/></g><g transform="matrix(1.6393 0 0 1.6371 198.66 223.35)" clip-path="url(#m)"><path d="m110.74 43.722 3.6 12.151 1.35 4.876s0.97 3.076 2.85 3.151c1.8 0.15 4.28-0.15 5.33-4.951 0.97-4.801 0.82-5.251 0.82-5.251s0.3-2.325 0.9 0.75c0.53 3.076 1.8 9.002 1.8 9.002l0.15 0.375h5.18l-4.43-15.978s-0.97-4.05-2.7-4.05c-1.72-0.075-3.52-0.075-4.42 2.25-0.53 2.401-1.81 8.476-1.81 8.476s-0.45 2.401-0.9-0.6c-0.45-3-2.77-10.201-2.77-10.201h-4.95z"/></g><g transform="matrix(1.6393 0 0 1.6371 198.66 223.35)" clip-path="url(#l)"><path d="m110.14 43.271 0.17187 0.57812 3.5996 12.146 1.3496 4.8809 2e-3 0.0078s0.25454 0.81337 0.76562 1.6465c0.51011 0.83153 1.3121 1.766 2.4902 1.8164 0.9399 0.07714 2.1314 0.04034 3.2227-0.69336 1.096-0.73692 2.0319-2.1385 2.5723-4.6094v-0.0059c0.48643-2.4076 0.69504-3.7293 0.78125-4.4629 0.0114-0.09737 8e-3 -0.11545 0.0156-0.19336 0.017 0.07929 0.0238 0.06387 0.041 0.15234 0.53501 3.102 1.8008 9.0098 1.8008 9.0098l8e-3 0.03711 0.27735 0.69336h6.0781l-4.584-16.533s-0.24978-1.0445-0.73047-2.1055c-0.24035-0.53047-0.53603-1.07-0.91797-1.5039-0.38095-0.43278-0.88033-0.78139-1.4863-0.7832-0.86259-0.03749-1.7933-0.06852-2.6738 0.25-0.88569 0.32039-1.6834 1.0284-2.1699 2.2852l-0.0117 0.03125-8e-3 0.0332c-0.51492 2.3327-1.6782 7.8556-1.7539 8.2148-0.0285-0.14316-0.0444-0.12295-0.0723-0.30859-0.468-3.12-2.7852-10.271-2.7852-10.271l-0.10156-0.3125zm1.207 0.90039h4.0137c0.16869 0.5291 2.2431 7.0512 2.6582 9.8184 0.11544 0.76984 0.21278 1.1957 0.37891 1.5059 0.0831 0.15509 0.21276 0.34876 0.49414 0.38281 0.28139 0.03405 0.46541-0.14587 0.55078-0.25976 0.17075-0.22778 0.22258-0.45014 0.27735-0.64844 0.0533-0.19303 0.0824-0.34694 0.084-0.35547l2e-3 -0.0098c3e-3 -0.01387 1.2636-5.993 1.7969-8.4121 0.41263-1.0532 0.96207-1.5075 1.627-1.748 0.66931-0.24211 1.4906-0.23642 2.3438-0.19922l0.01 2e-3h0.01c0.25687 0 0.52796 0.15304 0.81446 0.47852 0.28649 0.32547 0.55699 0.79922 0.77539 1.2812 0.4368 0.96406 0.67187 1.9434 0.67187 1.9434l2e-3 0.0078 4.2754 15.416h-4.2832l-0.0234-0.05664c-0.0104-0.04874-1.2652-5.9071-1.7891-8.9473v-0.0039l-2e-3 -0.0059c-0.15339-0.78614-0.27463-1.2304-0.43555-1.5371-0.0805-0.15338-0.16615-0.31941-0.42578-0.39648-0.12981-0.03854-0.29175-0.01706-0.39844 0.03711-0.10668 0.05417-0.16921 0.12176-0.21484 0.18164-0.18251 0.23954-0.20767 0.44685-0.25 0.63867-0.0423 0.19182-0.0625 0.35547-0.0625 0.35547l-0.0137 0.10156 0.0156 0.04687c5.1e-4 8e-3 2e-3 0.0164 2e-3 0.05078-8.7e-4 0.09253-0.0101 0.28501-0.0508 0.63086-0.0812 0.6908-0.28537 1.9953-0.76758 4.3828-0.50962 2.3301-1.3389 3.4789-2.1953 4.0547-0.85645 0.57583-1.7981 0.61449-2.6563 0.54297h-0.02c-0.69816-0.02785-1.3217-0.66699-1.7656-1.3906-0.44392-0.72364-0.67383-1.4473-0.67383-1.4473l-1.3457-4.8652z" color="#000000" color-rendering="auto" dominant-baseline="auto" image-rendering="auto" shape-rendering="auto" solid-color="#000000" style="font-feature-settings:normal;font-variant-alternates:normal;font-variant-caps:normal;font-variant-ligatures:normal;font-variant-numeric:normal;font-variant-position:normal;isolation:auto;mix-blend-mode:normal;shape-padding:0;text-decoration-color:#000000;text-decoration-line:none;text-decoration-style:solid;text-indent:0;text-orientation:mixed;text-transform:none;white-space:normal"/></g><g transform="matrix(1.6393 0 0 1.6371 198.66 223.35)" clip-path="url(#k)"><path d="m130.24 43.797 5.93 20.028h7.65s5.48 0 6.08-5.551c0.07-4.801-0.45-5.851-0.45-5.851s-0.68-2.925-3.75-5.551c-3-2.55-5.18-3.15-5.18-3.15s-4.35 0.075-4.35 0.075 1.73 4.876 1.73 4.876h1.95s3.3 1.05 4.12 5.025c0.08 1.425 0 3.226 0 3.226s0.15 1.8-3.67 1.8c-1.13-2.926-5.63-15.002-5.63-15.002s-4.43 0.075-4.43 0.075z"/></g><g transform="matrix(1.6393 0 0 1.6371 198.66 223.35)" clip-path="url(#j)"><path d="m134.98 43.266-5.3398 0.0918 0.16797 0.56641 6.0254 20.352h7.9863s1.4647 0.0037 3.0098-0.73828c1.5451-0.74193 3.2018-2.2938 3.5176-5.2148l2e-3 -0.02148v-0.01953c0.0352-2.4172-0.0774-3.9008-0.20313-4.7949-0.0628-0.44704-0.12781-0.74746-0.18164-0.94336-0.0374-0.13594-0.0559-0.17346-0.0762-0.22266l-8e-3 -0.02148c-8e-3 -0.03444-0.73603-3.0728-3.8887-5.7695-3.0554-2.5971-5.3535-3.2422-5.3535-3.2422l-0.0625-0.01563-5.0391 0.08594 2.0449 5.7656h2.1681c0.0682 0.02132 2.9977 0.95294 3.7715 4.6465 0.0722 1.3779-2e-3 3.1348-2e-3 3.1348v0.0293l2e-3 0.02734s7e-3 0.02186-0.0215 0.12695c-0.0284 0.10509-0.0908 0.25508-0.25391 0.42188-0.30244 0.30932-1.083 0.67098-2.6484 0.72656-1.2405-3.2297-5.5059-14.672-5.5059-14.672zm5.4609 0.9082c0.0594 0.01639 2.0655 0.57489 4.9668 3.041 2.9695 2.54 3.6035 5.3105 3.6035 5.3105l0.0117 0.05078 0.0234 0.04687s7e-3 0.0072 0.0488 0.1582c0.0415 0.15101 0.10174 0.41449 0.16016 0.83008 0.11614 0.82628 0.22424 2.2701 0.19141 4.6289-0.28871 2.6173-1.666 3.8401-3.0078 4.4844-1.3449 0.64582-2.6191 0.65039-2.6191 0.65039h-7.3144l-5.666-19.137 3.5195-0.06055c0.17229 0.46235 4.4088 11.828 5.5215 14.709l0.11133 0.28711h0.30859c1.9807 0 3.0341-0.46876 3.5879-1.0352 0.27691-0.2832 0.41763-0.584 0.48047-0.81641 0.0628-0.23241 0.0488-0.43555 0.0488-0.43555l2e-3 0.05664s0.0821-1.8085 0-3.2715l-2e-3 -0.0332-8e-3 -0.03125c-0.86512-4.1937-4.4238-5.3633-4.4238-5.3633l-0.0664-0.02148h-1.7012l-1.416-3.9863z" color="#000000" color-rendering="auto" dominant-baseline="auto" image-rendering="auto" shape-rendering="auto" solid-color="#000000" style="font-feature-settings:normal;font-variant-alternates:normal;font-variant-caps:normal;font-variant-ligatures:normal;font-variant-numeric:normal;font-variant-position:normal;isolation:auto;mix-blend-mode:normal;shape-padding:0;text-decoration-color:#000000;text-decoration-line:none;text-decoration-style:solid;text-indent:0;text-orientation:mixed;text-transform:none;white-space:normal"/></g><g transform="matrix(1.6393 0 0 1.6371 198.66 223.35)" clip-path="url(#i)"><path d="m155.45 64.35-4.88-15.002s-2.17-6.001 3.31-6.001c5.55 0 6.22-0.075 6.22-0.075s1.95 4.65 1.95 4.65h-5.25s-1.2-0.15-0.52 2.026c0.67 2.175 4.65 14.402 4.65 14.402h-5.48z"/></g><g transform="matrix(1.6393 0 0 1.6371 198.66 223.35)" clip-path="url(#h)"><path d="m174.73 43.722h-4.95s-5.63-0.225-5.55 4.951c0 5.175 2.25 15.152 16.95 15.152l-1.8-4.651-3.67 0.075s-3.68-0.525-4.65-3.3h6.9l-1.2-4.201h-6.75s-0.9-3.601 2.02-3.601c2.93 0 4.13 0.075 4.13 0.075l-1.43-4.5z"/></g><g transform="matrix(1.6393 0 0 1.6371 198.66 223.35)" clip-path="url(#g)"><path d="m169.78 43.271c-0.0306-0.0013-1.4894-0.06-2.9805 0.57031-1.5056 0.63644-3.0595 2.0852-3.0195 4.832v0.0039c1e-5 7.23e-4 -1e-5 0.0012 0 2e-3 7e-4 2.6526 0.57082 6.5323 3.0547 9.7832 2.4854 3.2529 6.8939 5.8125 14.346 5.8125h0.65625l-2.1504-5.5586-3.9277 0.08008c-0.0267-0.0043-2.689-0.52393-3.8633-2.3984h6.6621l-1.457-5.1016h-6.668c-0.0479-0.24786-0.15858-0.66148-0.0625-1.2793 0.0609-0.39143 0.19869-0.74703 0.4375-0.99414s0.58518-0.42578 1.2227-0.42578c2.9223 0 4.1035 0.07422 4.1035 0.07422l0.65625 0.04102-1.7305-5.4414h-5.2598zm-0.0176 0.90039h4.6389l1.1406 3.5898c-0.33062-0.01683-1.0308-0.06445-3.5117-0.06445-0.82253 0-1.4574 0.27114-1.8711 0.69922-0.41369 0.42808-0.5986 0.9736-0.67773 1.4824-0.15826 1.0176 0.0937 1.9785 0.0937 1.9785l0.084 0.33984h6.7617l0.94336 3.3008h-6.9375l0.20899 0.59961c1.0812 3.0931 5.0117 3.5977 5.0117 3.5977l0.0371 0.0039 3.3906-0.06836 1.4258 3.6836c-6.7818-0.16174-10.716-2.475-12.949-5.3984-2.3146-3.0294-2.8711-6.7199-2.8711-9.2422v-0.0078c-0.0375-2.4249 1.1825-3.4496 2.4707-3.9941s2.6113-0.5 2.6113-0.5z" color="#000000" color-rendering="auto" dominant-baseline="auto" image-rendering="auto" shape-rendering="auto" solid-color="#000000" style="font-feature-settings:normal;font-variant-alternates:normal;font-variant-caps:normal;font-variant-ligatures:normal;font-variant-numeric:normal;font-variant-position:normal;isolation:auto;mix-blend-mode:normal;shape-padding:0;text-decoration-color:#000000;text-decoration-line:none;text-decoration-style:solid;text-indent:0;text-orientation:mixed;text-transform:none;white-space:normal"/></g><path d="m375.85 243.88c-5.1407-0.11474-11.859 1.3757-19.428 3.7324-10.092 3.1423-21.641 7.909-32.566 12.867-21.851 9.9164-41.211 20.611-41.211 20.611l-0.0254 0.0137-0.0254 0.0156s-39.522 25.796-64.605 54.047h-2e-3c-6.2552 7.0802-9.7056 12.763-11.131 17.395-1.4252 4.6317-0.76334 8.2754 1.2227 10.908 3.972 5.2656 12.616 6.4902 19.369 6.4277 6.8275-2e-3 16.572-3.1118 24.705-6.1934 8.1355-3.0826 14.619-6.1641 14.619-6.1641l-0.55274-1.4922c-14.468 3.9395-22.264 3.6542-25.57 1.5058-1.6533-1.0742-2.3195-2.5374-2.373-4.4805-0.0536-1.9431 0.59717-4.334 1.7188-6.877 4.4804-10.158 16.262-22.543 16.293-22.576l4e-3 -4e-3c34.285-33.498 77.284-55.543 77.375-55.59l0.0137-6e-3c0.0125-6e-3 7.4547-3.4304 16.18-7.0898 8.7323-3.6626 18.81-7.5572 23.709-8.4414h8e-3c4.9796-0.95786 11.557-0.94072 14.684-1.5352 0.39076-0.0743 0.73179-0.15742 1.0371-0.27343s0.59725-0.24548 0.84375-0.57617 0.25571-0.92547 0.0644-1.2637c-0.19126-0.3382-0.45274-0.54595-0.77929-0.76757-1.3062-0.8865-3.9878-1.9114-8.9863-3.5137v-2e-3h-2e-3c-1.3358-0.42237-2.8743-0.63949-4.5879-0.67773zm-0.0176 1.6328c1.5948 0.0238 2.9814 0.20822 4.1211 0.56836 4.8178 1.5443 7.3652 2.6048 8.3301 3.2188-0.11445 0.0283-0.18123 0.0572-0.32227 0.084-2.6836 0.51029-9.4439 0.52836-14.676 1.5332-5.3142 0.95916-15.283 4.8643-24.045 8.5391s-16.242 7.1191-16.242 7.1191l-0.0156 6e-3 -0.0137 8e-3s-43.25 22.131-77.799 55.889l-0.02 0.02s-11.912 12.382-16.619 23.055c-1.1768 2.6682-1.9156 5.2408-1.8516 7.5644 0.0641 2.3237 1.0229 4.4281 3.0996 5.7774 3.1909 2.0731 8.7802 2.4931 17.793 0.79297-2.4357 1.0471-2.6547 1.263-5.9863 2.5254-8.0685 3.0572-17.816 6.0879-24.146 6.0879h-6e-3c-6.5294 0.0603-14.734-1.3574-18.08-5.793-1.6729-2.2178-2.2896-5.1902-0.9707-9.4766 1.3188-4.2859 4.6337-9.8241 10.799-16.803l2e-3 -2e-3c24.822-27.957 64.166-53.691 64.254-53.748 0.0337-0.0186 19.317-10.669 41.078-20.545 10.89-4.9423 22.397-9.6861 32.381-12.795 7.4879-2.3316 14.149-3.6965 18.936-3.625z" color="#000000" color-rendering="auto" dominant-baseline="auto" image-rendering="auto" shape-rendering="auto" solid-color="#000000" style="font-feature-settings:normal;font-variant-alternates:normal;font-variant-caps:normal;font-variant-ligatures:normal;font-variant-numeric:normal;font-variant-position:normal;isolation:auto;mix-blend-mode:normal;shape-padding:0;text-decoration-color:#000000;text-decoration-line:none;text-decoration-style:solid;text-indent:0;text-orientation:mixed;text-transform:none;white-space:normal"/><g transform="matrix(1.6393 0 0 1.6371 198.66 223.35)" clip-path="url(#d)"><path d="m41.339 81.527s-15.756 7.501-23.783 7.501c-8.1029 0.075-20.557-3.226-5.402-20.403 15.23-17.177 39.313-32.929 39.313-32.929s47.191-26.104 59.273-22.278c12.15 3.9 2.1 2.7-4.13 3.9-6.23 1.126-24.458 9.527-24.458 9.527s-26.334 13.501-47.34 34.054c0 0-28.96 30.304 6.527 20.628z"/></g><g transform="matrix(1.6393 0 0 1.6371 198.66 223.35)" clip-path="url(#c)"><path d="m38.338 2.1664s-3.602 2.0252-3.977 5.5507c-0.3 3.4509 1.876 13.502 1.876 13.502s15.83 43.656 45.315 70.809c29.488 27.082 43.368 23.102 25.358-16.802 1.65 8.326 8.18 40.884-41.713-16.052 0 0-21.157-27.004-24.308-39.98 0 0-3.452-8.101-3.302-14.252 0.526-1.8002 0.751-2.7753 0.751-2.7753z"/></g><path d="m262.69 225.32-1.5762 0.88671s-6.2554 3.4221-6.9238 9.6973v0.016c-0.26618 3.0577 0.52769 8.5359 1.3613 13.375s1.7285 8.9668 1.7285 8.9668l0.0117 0.0527 0.0176 0.0508s25.952 71.591 74.496 116.23v2e-3c12.115 11.111 22.636 19.051 31.199 23.705 8.5637 4.6542 15.246 6.1358 19.697 3.7812 2.2258-1.1772 3.7706-3.3316 4.5527-6.2773 0.78212-2.9458 0.84995-6.703 0.20898-11.322-1.2819-9.2385-5.4215-21.94-12.82-38.311l-2.8672-6.3418 1.3555 6.8262c0.67644 3.4087 1.8394 9.2577 1.9434 14.611 0.052 2.6768-0.16584 5.2256-0.80274 7.2441-0.63689 2.0186-1.6498 3.4626-3.2012 4.1894-1.5514 0.72683-3.7751 0.78252-6.9746-0.36328s-7.3216-3.4894-12.51-7.4082c-10.374-7.8357-25.017-21.949-45.438-45.219-0.0212-0.027-8.6538-11.032-17.941-24.697-9.299-13.682-19.228-30.084-21.744-40.43l-0.0156-0.0645-0.0254-0.0605s-5.5587-13.191-5.3438-22.939c0.80972-2.7875 1.2051-4.4434 1.2051-4.4434zm-2.5859 3.7031c-0.19794 0.75734-0.17845 0.76645-0.59766 2.1992l-0.0293 0.0996-2e-3 0.10352c-0.25361 10.386 5.4766 23.666 5.4766 23.666l-0.041-0.125c2.6496 10.897 12.643 27.219 21.977 40.951 9.3336 13.733 18.02 24.803 18.02 24.803l0.0137 0.0176 0.0137 0.0156c20.467 23.324 35.154 37.5 45.689 45.457 5.2676 3.9788 9.4954 6.4074 12.934 7.6387s6.138 1.2667 8.1914 0.30469 3.327-2.8745 4.0469-5.1562c0.71993-2.2817 0.93094-4.9755 0.87696-7.7559-0.0523-2.6922-0.37172-5.4565-0.75-7.9922 5.5612 13.144 8.8874 23.734 9.959 31.457 0.62237 4.4852 0.52868 8.0568-0.17188 10.695-0.70055 2.6385-1.9595 4.3243-3.7539 5.2734-3.5888 1.8982-9.814 0.77847-18.189-3.7734-8.3754-4.5519-18.826-12.422-30.881-23.479-48.072-44.21-73.995-115.39-74.053-115.55-0.01-0.0464-0.88478-4.0767-1.707-8.8496-0.8264-4.797-1.5679-10.363-1.3438-12.957 0.38794-3.6063 2.6435-5.7387 4.3223-7.043z" color="#000000" color-rendering="auto" dominant-baseline="auto" image-rendering="auto" shape-rendering="auto" solid-color="#000000" style="font-feature-settings:normal;font-variant-alternates:normal;font-variant-caps:normal;font-variant-ligatures:normal;font-variant-numeric:normal;font-variant-position:normal;isolation:auto;mix-blend-mode:normal;shape-padding:0;text-decoration-color:#000000;text-decoration-line:none;text-decoration-style:solid;text-indent:0;text-orientation:mixed;text-transform:none;white-space:normal"/><g transform="matrix(1.6393 0 0 1.6371 198.66 223.35)" clip-path="url(#b)"><path d="m217.27 45.147h-140.07v1.65h140.07v-1.65z" fill="#fff"/></g></g></svg>
