<svg width="800" height="750.07" enable-background="new 0 0 230 216" version="1.1" viewBox="0 0 800 750.07" xml:space="preserve" xmlns="http://www.w3.org/2000/svg">
<g transform="translate(-.073 534.31)" fill="#fff" stroke-width="3.4805"><path d="m0.073 213.98v-121.79l21.655-3.0141v124.8z"/><path d="m110.69 213.98h-17.75l-1.6045-5.8646c-7.8102 5.1511-17.04 7.6362-25.738 7.6362-15.808 0-22.55-10.824-22.55-25.742 0-17.576 7.6362-24.322 25.213-24.322h20.771v-9.0632c0-9.5817-2.6626-12.954-16.515-12.954-7.8102 0-16.327 1.065-23.97 2.6626l-2.6626-16.511c8.1721-2.4816 20.061-4.0791 29.657-4.0791 27.155 0 35.146 9.5852 35.146 31.244v56.993zm-21.655-32.668h-15.979c-7.1071 0-9.0562 1.9525-9.0562 8.5237 0 6.0316 1.9491 8.6977 8.7012 8.6977 6.3901 0 12.255-2.13 16.337-4.4411v-12.78z"/><path d="m153.9 215.75c-9.2337 0-21.84-2.1266-29.831-4.9736l3.021-16.511c7.2777 2.1335 16.866 3.7311 25.742 3.7311 9.5887 0 11.009-2.13 11.009-8.7012 0-5.3251-1.065-7.9877-15.091-11.364-21.123-5.1476-23.608-10.469-23.608-27.162 0-17.395 7.6292-25.028 32.306-25.028 7.9912 0 18.471 1.0615 25.926 3.0106l-2.137 17.225c-6.5642-1.2425-17.044-2.4885-23.789-2.4885-9.4077 0-11.009 2.1266-11.009 7.4552 0 6.9261 0.52904 7.4621 12.251 10.48 24.148 6.3901 26.455 9.5852 26.455 27.339 0 16.692-5.1441 26.988-31.244 26.988z"/><path d="m270.93 198c8.3427 0 17.047-1.2425 26.459-4.0826l3.3726 16.33c-9.7697 3.7276-21.485 5.5026-31.784 5.5026-27.162 0-36.566-12.599-36.566-33.381v-22.898c0-18.29 8.1652-33.726 35.856-33.726 27.698 0 33.914 16.153 33.914 34.794v18.46h-48.111v4.4446c0 10.473 3.7241 14.555 16.859 14.555zm-16.859-36.395h27.513v-4.2601c0-8.1722-2.485-13.849-13.132-13.849-10.657 0-14.381 5.6801-14.381 13.849z"/><path d="m339.61 215.75c-9.2337 0-21.84-2.1266-29.828-4.9736l3.021-16.511c7.2846 2.1335 16.866 3.7311 25.742 3.7311 9.5956 0 11.016-2.13 11.016-8.7012 0-5.3251-1.0685-7.9877-15.095-11.364-21.12-5.1476-23.608-10.469-23.608-27.162 0-17.395 7.6292-25.028 32.309-25.028 7.9912 0 18.467 1.0615 25.923 3.0106l-2.13 17.225c-6.5711-1.2425-17.047-2.4885-23.792-2.4885-9.4112 0-11.002 2.1266-11.002 7.4552 0 6.9261 0.52903 7.4621 12.248 10.48 24.144 6.3901 26.459 9.5852 26.459 27.339-0.0104 16.692-5.165 26.988-31.262 26.988z"/><path d="m432.83 212.38c-4.6151 1.9595-13.497 3.3761-18.996 3.3761-15.805 0-23.789-7.4552-23.789-22.898v-48.114h-12.965v-17.228h12.965v-21.481l21.659-3.0141v24.496h22.191l-1.4166 17.225h-20.775v45.274c0 4.6151 2.13 7.6327 7.8102 7.6327 3.1916 0 7.1002-0.71001 10.828-1.7785z"/><path d="m487.87 146.51c-8.3392 3.7311-15.091 7.6362-22.901 12.606v55.754h-21.662v-86.469h18.29l1.4166 9.5922c4.7961-3.1986 15.088-9.2337 22.721-11.364z"/><path d="m534.1 198c8.3427 0 17.044-1.2425 26.455-4.0826l3.3726 16.33c-9.7662 3.7276-21.481 5.5026-31.78 5.5026-27.165 0-36.58-12.599-36.58-33.381v-22.898c0-18.29 8.1721-33.726 35.87-33.726 27.698 0 33.907 16.153 33.907 34.794v18.46h-48.114v4.4446c0 10.473 3.7241 14.555 16.87 14.555zm-16.87-36.395h27.52v-4.2601c0-8.1722-2.492-13.849-13.139-13.849-10.657 0-14.381 5.6801-14.381 13.849z"/><path d="m576.69 213.98v-121.79l21.662-3.0141v124.8z"/><path d="m620.23 213.98v-121.79l21.659-3.0141v124.8z"/><path d="m726.21 213.98h-17.757l-1.5975-5.8646c-7.8102 5.1511-17.04 7.6362-25.742 7.6362-15.798 0-22.543-10.824-22.543-25.742 0-17.576 7.6257-24.322 25.206-24.322h20.768v-9.0632c0-9.5817-2.6626-12.954-16.504-12.954-7.8171 0-16.334 1.065-23.97 2.6626l-2.666-16.511c8.1652-2.4816 20.061-4.0791 29.654-4.0791 27.165 0 35.153 9.5852 35.153 31.244zm-21.666-32.668h-15.975c-7.1036 0-9.0562 1.9525-9.0562 8.5237 0 6.0316 1.9526 8.6977 8.7012 8.6977 6.3867 0 12.251-2.13 16.327-4.4411v-12.78z"/><path d="m768.82 215.75c-9.2232 0-21.83-2.1266-29.821-4.9701l3.0176-16.511c7.2811 2.13 16.87 3.7276 25.742 3.7276 9.5852 0 11.005-2.1266 11.005-8.6977 0-5.3251-1.0615-7.9912-15.088-11.364-21.126-5.1476-23.615-10.476-23.615-27.165 0-17.395 7.6362-25.032 32.313-25.032 7.9912 0 18.464 1.065 25.923 3.0176l-2.13 17.221c-6.5676-1.2425-17.044-2.4885-23.792-2.4885-9.4077 0-11.005 2.1266-11.005 7.4586 0 6.9227 0.53251 7.4586 12.251 10.476 24.148 6.3936 26.455 9.5852 26.455 27.343 0 16.685-5.1476 26.984-31.255 26.984z"/></g>
<g transform="translate(-.073 534.31)" stroke-width="3.4805"><path d="m386.59-183.28c-0.96061 1.6567-1.6497 4.5733-1.5279 6.4841l15.192 241.1c0.12182 1.9108 0.95017 3.4735 1.8481 3.4735h3.1986c0.86315 0 1.6671-1.5627 1.782-3.4735l14.66-241.1c0.11485-1.9108-0.5534-4.8413-1.4896-6.512l-14.823-26.483c-0.93624-1.6706-2.485-1.6811-3.4457-0.0278z" fill="#e8128c"/><path d="m425.35-220.68c-1.8412-0.51859-2.9514 0.57079-2.4572 2.4189l7.8868 29.647c0.49422 1.8481 2.0709 4.3993 3.5048 5.6627l181.23 159.76c1.434 1.2634 3.1255 1.782 3.7589 1.1486 0.63345-0.63693 1.6498-1.6567 2.2588-2.2658 0.60908-0.60908 0.0731-2.2832-1.1973-3.7171l-160.12-180.87c-1.2704-1.434-3.8181-3.0315-5.6592-3.5501z" fill="#e9262a"/><path d="m620.38-452.74c1.2634-1.4374 1.7855-3.129 1.152-3.7624-0.63345-0.63345-1.6497-1.6532-2.2588-2.2623-0.61256-0.61256-2.2832-0.0731-3.7171 1.1973l-180.86 160.12c-1.434 1.2704-3.0315 3.8146-3.5536 5.6558l-8.2452 29.215c-0.51859 1.8412 0.56732 2.948 2.4189 2.4572l29.647-7.8763c1.8516-0.49074 4.4028-2.0674 5.6662-3.5048z" fill="#3cb659"/><path d="m465.63-255.91c-1.9108-0.11486-4.8413 0.55339-6.5085 1.4896l-26.476 14.823c-1.6671 0.93625-1.6776 2.4885-0.0244 3.4492l26.525 15.394c1.6567 0.96061 4.5733 1.6497 6.4841 1.5279l241.11-15.192c1.9108-0.12182 3.4735-0.95017 3.4735-1.8481v-3.1986c0-0.86316-1.5627-1.6672-3.4735-1.782z" fill="#f68a29"/><path d="m418.91-296.38c0.96061-1.6567 1.6498-4.5733 1.5279-6.4841l-14.36-227.98c-0.11834-1.9108-0.91536-3.4735-1.7646-3.4735h-3.035c-0.82139 0-1.5836 1.5627-1.6985 3.4735l-13.856 227.98c-0.11485 1.9108 0.5534 4.8413 1.4896 6.512l13.856 24.76c0.93625 1.6706 2.4851 1.6811 3.4457 0.0278z" fill="#855fa8"/><path d="m380.75-260.18c1.8412 0.51859 2.948-0.5708 2.4572-2.4189l-7.3716-27.722c-0.49075-1.8481-2.0674-4.3993-3.5048-5.6627l-171.36-151.06c-1.4374-1.2669-3.1011-1.8098-3.6997-1.2077-0.59864 0.59864-1.5627 1.5662-2.1405 2.144-0.57776 0.57776-0.0104 2.224 1.2564 3.658l151.4 171.02c1.2704 1.434 3.8146 3.0315 5.6558 3.5501z" fill="#fecc11"/><path d="m353.06-213.37c-1.8481 0.49074-4.3993 2.0674-5.6627 3.5048l-151.06 171.36c-1.2669 1.434-1.8098 3.1046-1.2112 3.7032 0.59864 0.60212 1.5627 1.5662 2.144 2.144s2.2275 0.01392 3.658-1.2564l171.01-151.4c1.434-1.2704 3.0315-3.8146 3.5501-5.6558l7.7092-27.311c0.51859-1.8412-0.5708-2.948-2.4189-2.4572z" fill="#4066b0"/><path d="m373.41-235.57c1.6706-0.93625 1.6811-2.4851 0.0244-3.4492l-24.802-14.385c-1.6567-0.96061-4.5733-1.6498-6.4841-1.5279l-227.98 14.357c-1.9108 0.12182-3.4735 0.91188-3.4735 1.7611v3.0315c0 0.81791 1.5627 1.5836 3.4735 1.6985l227.98 13.877c1.9108 0.11486 4.8413-0.55687 6.512-1.4896z" fill="#54c7db"/></g>
</svg>
