<svg version="1.1" viewBox="0 0 1e3 1437.1" xml:space="preserve" xmlns="http://www.w3.org/2000/svg"><g transform="matrix(1.25 0 0 -1.25 -39.37 2039.2)"><path d="m31.896 486.58v24.873h17.204v124.36h-17.204v24.873h49.746v-149.24h16.582v-24.873z" fill="#20303a"/><path d="m162.28 617.28c-36.626 0-48.251-19.646-50.717-41.584h32.257c1.307 13.832 8.6283 19.302 18.655 19.302 13.598 0 17.775-15.063 17.813-22.347l0.0648-8.8092s-6.5544 0.38864-11.335 0.38864c-37.39 0-62.701-14.471-62.701-42.167 0-27.4 18.131-39.965 40.159-39.965 27.198 0 36.726 20.792 36.726 20.792v-16.323h43.528v24.873h-16.582v63.672c0 24.367-13.116 42.167-47.867 42.167zm7.9671-70.927c3.0628-0.01 6.3824-0.2605 9.9103-0.7125v-9.9751c0.0249-17.686-8.143-28.435-22.023-28.435-11.351 0-19.432 8.3287-19.432 17.813 0 11.252 10.105 21.378 31.545 21.31z" fill="#20303a"/><path d="m246.01 486.58v61.768h26.751c0-20.457 14.621-38.715 34.858-38.715 15.93 0 24.712 10.255 24.712 22.389 0 38.127-85.295 22.025-85.295 82.167 0 26.91 18.102 48.449 52.259 48.449 27.284 0 36.258-19.566 36.258-19.566v16.582h25.909l-2e-5 -58.659h-27.471c0 15.188-9.9627 35.826-31.345 35.826-12.898 0-23.058-7.3386-23.058-18.591 0-36.57 85.595-19.513 85.595-83.296 0-30.391-22.272-50.648-54.458-50.648-26.685 0-38.391 18.496-38.391 18.496v-16.203z" fill="#20303a"/><path d="m766.65 617.28c-36.626 0-48.251-19.646-50.717-41.584h32.257c1.307 13.832 8.6283 19.302 18.655 19.302 13.598 0 17.775-15.063 17.813-22.347l0.0648-8.8092s-6.5545 0.38864-11.335 0.38864c-37.39 0-62.701-14.471-62.701-42.167 0-27.4 18.131-39.965 40.159-39.965 27.198 0 36.726 20.792 36.726 20.792v-16.323h43.528v24.873h-16.582v63.672c0 24.367-13.116 42.167-47.867 42.167zm7.9671-70.927c3.0627-0.0104 6.3824-0.26049 9.9103-0.7125v-9.9751c0.0259-17.686-8.143-28.435-22.023-28.435-11.351 0-19.432 8.3287-19.432 17.813 0 11.252 10.105 21.378 31.545 21.31z" fill="#20303a"/><path d="m431.94 617.21c-32.799 0-57.648-22.08-57.648-68.53 0-42.88 20.855-66.652 59.203-66.652 30.408 0 55.031 20.767 55.77 45.6h-32.451c-1.3282-12.406-9.9853-21.893-24.355-21.893-20.647 0-25.845 20.45-25.845 39.9h83.363v9.3921c0 41.3-24.242 62.182-58.037 62.182zm1.1659-22.8c12.029 0 24.095-11.866 24.031-28.047h-49.616c0 15.138 12.639 28.047 25.585 28.047z" fill="#20303a"/><path d="m498.26 486.58v24.873h10.207l27.103 41.472-24.873 36.256h-9.3274v24.873h52.855v-24.873h-10.364l16.582-24.873 16.582 24.873h-10.364v24.873h49.331v-24.873h-9.9492l-24.873-36.419 28.188-41.309h10.158v-24.873h-54.928v24.873h10.364l-18.655 29.126-18.097-29.126h11.879v-24.873z" fill="#20303a"/><path d="m645.43 589.18h-16.582v24.873h17.618v29.512l31.091 7.7975v-37.309h24.873v-24.873h-24.873v-64.255c0-12.421 6.8739-17.396 23.007-13.644v-23.665s-10.324-1.5558-20.458-1.5558c-22.904 0-34.72 7.1189-34.72 30.121z" fill="#20303a"/><path d="m552.47 1049.9-61.086 100.86h-258.55v241.5l139.22 238.66h281.28l-141.16-238.66h118.43l200.3-342.36-186.1-103.7z" fill="#44dd3a"/><path d="m232.84 707.54v238.66h258.55l61.086 103.7h278.44l-200.3-342.36z" fill="#3bb33b"/><path d="m232.84 707.54-199.96 342.28 199.96 342.45 139.22-241.5-60.429-100.94 60.429-103.62z" fill="#338a3b"/></g></svg>
