<svg version="1.1" viewBox="0 0 1520.7 1436.1" xml:space="preserve" xmlns="http://www.w3.org/2000/svg"><g transform="translate(-.5 -.55)" fill="#20303a" stroke-width="1.25"><path d="m0.5 1431v-31.091h21.505v-155.45h-21.505v-31.091h62.182v186.55h20.728v31.091z"/><path d="m163.48 1267.6c-45.782 0-60.314 24.558-63.396 51.98h40.321c1.6338-17.29 10.785-24.128 23.319-24.128 16.998 0 22.219 18.829 22.266 27.934l0.081 11.012s-8.193-0.4858-14.169-0.4858c-46.738 0-78.376 18.089-78.376 52.709 0 34.25 22.664 49.956 50.199 49.956 33.998 0 45.908-25.99 45.908-25.99v20.404h54.41v-31.091h-20.728v-79.59c0-30.459-16.395-52.709-59.834-52.709zm9.9589 88.659c3.8285 0.013 7.978 0.3256 12.388 0.8906v12.469c0.0311 22.108-10.179 35.544-27.529 35.544-14.189 0-24.29-10.411-24.29-22.266 0-14.065 12.631-26.723 39.431-26.638z"/><path d="m268.14 1431v-77.21h33.439c0 25.571 18.276 48.394 43.572 48.394 19.912 0 30.89-12.819 30.89-27.986 0-47.659-106.62-27.531-106.62-102.71 0-33.638 22.628-60.561 65.324-60.561 34.105 0 45.322 24.458 45.322 24.458v-20.728h32.386l-3e-5 73.324h-34.339c0-18.985-12.453-44.782-39.181-44.782-16.122 0-28.822 9.1732-28.822 23.239 0 45.712 106.99 24.391 106.99 104.12 0 37.989-27.84 63.31-68.072 63.31-33.356 0-47.989-23.12-47.989-23.12v20.254z"/><path d="m918.94 1267.6c-45.782 0-60.314 24.558-63.396 51.98h40.321c1.6338-17.29 10.785-24.128 23.319-24.128 16.998 0 22.219 18.829 22.266 27.934l0.081 11.012s-8.1931-0.4858-14.169-0.4858c-46.738 0-78.376 18.089-78.376 52.709 0 34.25 22.664 49.956 50.199 49.956 33.998 0 45.908-25.99 45.908-25.99v20.404h54.41v-31.091h-20.728v-79.59c0-30.459-16.395-52.709-59.834-52.709zm9.9589 88.659c3.8284 0.013 7.978 0.3256 12.388 0.8906v12.469c0.0324 22.108-10.179 35.544-27.529 35.544-14.189 0-24.29-10.411-24.29-22.266 0-14.065 12.631-26.723 39.431-26.638z"/><path d="m500.56 1267.7c-40.999 0-72.06 27.6-72.06 85.662 0 53.6 26.069 83.315 74.004 83.315 38.01 0 68.789-25.959 69.712-57h-40.564c-1.6602 15.508-12.482 27.366-30.444 27.366-25.809 0-32.306-25.562-32.306-49.875h104.2v-11.74c0-51.625-30.302-77.728-72.546-77.728zm1.4574 28.5c15.036 0 30.119 14.832 30.039 35.059h-62.02c0-18.922 15.799-35.059 31.981-35.059z"/><path d="m583.46 1431v-31.091h12.759l33.879-51.84-31.091-45.32h-11.659v-31.091h66.069v31.091h-12.955l20.728 31.091 20.728-31.091h-12.955v-31.091h61.664v31.091h-12.436l-31.091 45.524 35.235 51.636h12.698v31.091h-68.66v-31.091h12.955l-23.319-36.408-22.621 36.408h14.849v31.091z"/><path d="m767.42 1302.7h-20.728v-31.091h22.022v-36.89l38.864-9.7469v46.636h31.091v31.091h-31.091v80.319c0 15.526 8.5924 21.745 28.759 17.055v29.581s-12.905 1.9447-25.572 1.9447c-28.63 0-43.4-8.8986-43.4-37.651z"/></g><g transform="translate(-.5 -.55)" stroke-width="1.25"><path d="m651.22 726.82-76.358-126.08h-323.19v-301.88l174.02-298.32h351.6l-176.45 298.32h148.04l250.38 427.95-232.62 129.62z" fill="#44dd3a"/><path d="m251.68 1154.8v-298.32h323.19l76.358-129.62h348.05l-250.38 427.95z" fill="#3bb33b"/><path d="m251.68 1154.8-249.95-427.85 249.95-428.06 174.02 301.88-75.536 126.18 75.536 129.52z" fill="#338a3b"/></g><g transform="translate(-.5 -.55)"><g transform="matrix(6.284 0 0 6.284 756.75 566.14)" fill="#d6d6d6"><path d="m69.216 4.0096h2.6553v19.466h-2.6553v4.0101h10.426v-4.0101h-2.5382v-8.3316h9.4499v8.3316h-2.6163v4.0101h10.387v-4.0101h-2.5382v-19.466h2.5382v-4.0105h-10.388v4.0101h2.616v7.0464h-9.449v-7.0464h2.538v-4.0101h-10.426z"/><path d="m98.948 4.0096h2.4917v19.466h-2.4917v4.0101h9.305q2.7253-0.0389 4.7498-0.31147 2.0245-0.31146 3.7765-1.3626 2.5696-1.5962 3.6986-4.633 1.168-3.0757 1.168-7.3194 0-3.3482-0.77866-6.2293-0.77866-2.92-2.6474-4.8277-1.6741-1.713-3.8933-2.2192-2.1802-0.50613-6.1125-0.584h-9.266zm10.006 0q1.129 0 1.9077 0.1168 0.81759 0.0779 1.6352 0.42826 0.85653 0.3504 1.5573 1.1291 0.73972 0.77866 1.2848 2.1024 0.54506 1.3626 0.77866 2.9978t0.2336 3.0368q0 2.4917-0.66186 4.7888-0.66186 2.2581-1.9077 3.4261-1.0123 0.93439-2.2192 1.2069-1.168 0.23359-2.9589 0.27253h-2.0245v-19.506z"/></g></g></svg>
