<svg width="704.23" height="256.08" version="1.1" viewBox="0 0 704.23 256.08" xmlns="http://www.w3.org/2000/svg" xmlns:xlink="http://www.w3.org/1999/xlink">
 <defs>
  <linearGradient id="b" x2="39.799" y1="19.9" y2="19.9" gradientTransform="matrix(17.694 0 0 6.4343 0 -8.8203e-6)" gradientUnits="userSpaceOnUse">
   <stop stop-color="#0416c5" offset="0"/>
   <stop stop-color="#002dc3" offset=".239"/>
   <stop stop-color="#840339" offset=".644"/>
   <stop stop-color="#d00606" offset="1"/>
  </linearGradient>
  <linearGradient id="e" x2="31.59" y1="15.795" y2="15.795" gradientTransform="scale(2.0893 .47863)" gradientUnits="userSpaceOnUse">
   <stop stop-color="#0c2cae" offset=".001"/>
   <stop stop-color="#3959c6" offset=".281"/>
   <stop stop-color="#b72f56" offset=".644"/>
   <stop stop-color="#a20a0d" offset="1"/>
  </linearGradient>
  <radialGradient id="d" cx="12.856" cy="0" r="40.563" gradientTransform="scale(2.0893 .47863)" gradientUnits="userSpaceOnUse">
   <stop stop-color="#fff" offset="0"/>
   <stop stop-color="#fff" stop-opacity="0" offset="1"/>
  </radialGradient>
  <filter id="c" x="-.068" y="-.188" width="1.136" height="1.375">
   <feGaussianBlur in="SourceAlpha" result="shadowBlurInner1" stdDeviation="4.5"/>
   <feOffset in="shadowBlurInner1" result="shadowOffsetInner1"/>
   <feComposite in="shadowOffsetInner1" in2="SourceAlpha" k2="-1" k3="1" operator="arithmetic" result="shadowInnerInner1"/>
   <feColorMatrix in="shadowInnerInner1" values="0 0 0 0 0 0 0 0 0 0 0 0 0 0 0 0 0 0 0.44 0"/>
  </filter>
  <path id="a" d="m66 0v6.766c-33.032-1.815-66 8.354-66 8.354v-15.12z"/>
  <mask id="f" fill="#ffffff">
   <use width="100%" height="100%" fill-rule="evenodd" xlink:href="#a"/>
  </mask>
 </defs>
 <path d="m704.23-8.8203e-6h-704.23v256.08h704.23z" fill="url(#b)" stroke-width="10.67"/>
 <path transform="matrix(10.67 0 0 10.67 0 -8.8203e-6)" d="m66 0h-66v24h66z" filter="url(#c)"/>
 <use transform="matrix(10.67 0 0 10.67 0 -8.8203e-6)" width="100%" height="100%" fill="url(#d)" fill-opacity=".8" fill-rule="evenodd" opacity=".6" xlink:href="#a"/>
 <path transform="matrix(10.67 0 0 10.67 0 -8.8203e-6)" d="m66 0h-66v24h66z" fill="url(#e)" fill-opacity=".8" mask="url(#f)"/>
 <path d="m524.06 218.53h63.572v-180.1h-63.572zm-294.87 0.0107v-54.524h-50.79v-125.59h-63.594v180.11zm198.34-115.01c-7.9385-7.2983-19.195-15.258-37.665-15.258-21.97 0-40.354 15.472-40.354 40.152 0 25.886 19.43 41.048 42.595 41.048 14.618 0 24.595-5.1216 33.184-13.017l29.129 43.609c-18.022 16.517-38.978 23.282-67.99 23.282-55.943 0-98.784-37.975-98.784-94.857 0-56.893 42.072-94.857 98.015-94.857 25.896 0 50.523 6.5087 67.99 22.514z" fill="#fff" fill-rule="evenodd" stroke-width="10.67"/>
</svg>
