<?xml version="1.0" encoding="UTF-8"?>
<svg id="svg31" width="899.06pt" height="121.12pt" version="1.1" viewBox="0 0 899.06 121.12" xmlns="http://www.w3.org/2000/svg" xmlns:cc="http://creativecommons.org/ns#" xmlns:dc="http://purl.org/dc/elements/1.1/" xmlns:rdf="http://www.w3.org/1999/02/22-rdf-syntax-ns#">
 <metadata id="metadata37">
  <rdf:RDF>
   <cc:Work rdf:about="">
    <dc:format>image/svg+xml</dc:format>
    <dc:type rdf:resource="http://purl.org/dc/dcmitype/StillImage"/>
    <dc:title/>
   </cc:Work>
  </rdf:RDF>
 </metadata>
 <path id="path6092" d="m724.09 121.03-52.425-20.638-52.363 20.726 9.9416-43.814-42.433-30.988 58.569-6.44 26.138-39.877 26.256 39.834 58.588 6.3423-42.342 31.059z" fill="#fdfe00"/>
 <g id="g1016" transform="translate(-37.995 -142.9)" fill="#009de0">
  <g id="g951" transform="translate(156.97)">
   <path id="path868" d="m639.02 200.9h64.171v14.354h-21.53v43.776h-21.111v-43.776h-21.53z"/>
   <path id="path870" d="m706.04 200.9h22.09l15.379 41.833 15.146-41.833h21.437l-25.352 58.131h-22.882z"/>
  </g>
  <g id="g901" transform="matrix(1.2134 0 0 1 -106.85 303.77)">
   <path id="path852" d="m119.37-102.87h17.963v43.816h28.034v14.315h-45.997z"/>
   <path id="path854" d="m173.58-102.87h48.138v12.411h-30.136v9.2391h27.955v11.856h-27.955v11.46h31.008v13.165h-49.011z"/>
   <path id="path856" d="m261.53-65.797v-12.094h27.757v34.141h-10.633v-3.2772c-1.2279 0.54247-2.3457 0.96719-3.4828 1.3341-4.071 1.2953-8.9086 1.9431-14.513 1.9431-6.8997 0-12.53-1.1765-16.892-3.5293-4.3353-2.3528-7.7057-5.8553-10.111-10.508-2.3792-4.6526-3.5687-9.9925-3.5687-16.02 0-6.3444 1.3085-11.856 3.9256-16.535 2.6169-4.7054 6.45-8.2743 11.499-10.706 3.9388-1.8769 9.2391-2.8153 15.901-2.8153 6.4238 0 11.222 0.58165 14.394 1.7448 3.1986 1.1631 5.8421 2.9741 7.9304 5.4324 2.1149 2.432 3.7009 5.5248 4.7584 9.2787l-17.328 3.0928c-0.71362-2.194-1.9297-3.8726-3.6479-5.0357-1.6918-1.1631-3.8596-1.7448-6.5032-1.7448-3.9388 0-7.0844 1.3747-9.4372 4.1238-2.3264 2.7227-3.4895 7.0448-3.4895 12.966 0 6.2916 1.1763 10.786 3.5291 13.482 2.3792 2.6963 5.6836 4.0446 9.9131 4.0446 2.0091 0 3.9256-0.29073 5.7498-0.87238 1.8239-0.58166 3.9122-1.573 6.265-2.9741v-5.472z"/>
   <path id="path858" d="m299.99-102.87h48.138v12.411h-30.136v9.2391h27.955v11.856h-27.955v11.46h31.008v13.165h-49.01z"/>
   <path id="path860" d="m358.84-102.87h16.773l21.888 32.158v-32.158h16.932v58.131h-16.932l-21.769-31.92v31.92h-16.892z"/>
   <path id="path862" d="m426.68-102.87h26.686q7.8908 0 12.729 2.1413 4.8772 2.1413 8.0494 6.1461 3.1722 4.005 4.5996 9.3185 1.4276 5.3135 1.4276 11.261 0 9.3185-2.1413 14.473-2.1017 5.1151-5.8687 8.6044-3.7668 3.4499-8.089 4.5998-5.9083 1.586-10.706 1.586h-26.686zm17.963 13.165v31.762h4.4013q5.6308 0 8.0098-1.2293 2.3792-1.2689 3.7275-4.3617 1.3481-3.1326 1.3481-10.111 0-9.2391-3.0134-12.649-3.0136-3.4101-9.9925-3.4101z"/>
   <path id="path864" d="m489.53-102.87h48.138v12.411h-30.136v9.2391h27.955v11.856h-27.955v11.46h31.008v13.165h-49.011z"/>
   <path id="path866" d="m548.38-102.87h16.773l21.888 32.158v-32.158h16.932v58.131h-16.932l-21.769-31.92v31.92h-16.892z"/>
  </g>
 </g>
</svg>
