<svg enable-background="new 0 0 551.333 194" space="preserve" version="1.1" viewBox="0 0 460.06 162.88" xmlns="http://www.w3.org/2000/svg">
 <link href="" rel="stylesheet" type="text/css"/>
 <style type="text/css"/>
 <g transform="matrix(6.2744 0 0 6.2744 -1.348 -465.56)" fill="#00abee">
  <path d="m18.797 87.138c0 2.2461-1.8242 4.0703-4.0703 4.0703s-4.0664-1.8242-4.0664-4.0703 1.8203-4.0703 4.0664-4.0703 4.0703 1.8242 4.0703 4.0703"/>
  <path d="m6.7148 85.173c0.25-0.35157 1.8281-2.6524 3.7422-3.5156l-2.7539-5.8438c-4e-3 -0.0156-4.6055 1.9727-7.4883 7.4883 0 0 6.4727 1.9062 6.5 1.8711z"/>
  <path d="m11.895 81.126c2.9961-1.0703 5.5898-0.043 5.5898-0.043l2.5547-5.8945s-4.9453-2.2266-10.691 0"/>
  <path d="m22.621 85.251c-0.25-0.34765-1.8164-2.6328-3.7148-3.4922l2.7344-5.8008c4e-3 -0.0117 4.5703 1.9609 7.4336 7.4375 0 0-6.4297 1.8906-6.4531 1.8555z"/>
  <path d="m6.707 89.138c0.2461 0.34375 1.7969 2.6055 3.6758 3.457l-2.7031 5.7422c-8e-3 0.0117-4.5274-1.9414-7.3633-7.3633 0 0 6.3633-1.8711 6.3906-1.8359z"/>
  <path d="m11.891 93.232c2.9961 1.0703 5.5898 0.0469 5.5898 0.0469l2.5586 5.8906s-4.9492 2.2266-10.695 0"/>
  <path d="m22.59 89.232c-0.25 0.34766-1.8125 2.625-3.7031 3.4805l2.7227 5.7852c4e-3 0.0117 4.5586-1.957 7.4141-7.4141 0 0-6.4102-1.8867-6.4336-1.8516z"/>
  <path d="m36.113 84.986v-3.6094h0.9375v3.0508h1.8984v0.5586z"/>
  <path d="m39.621 84.986v-3.6094h3v0.5586h-2.0625v0.89843h1.9414v0.55469h-1.9414v1.0391h2.125v0.5586z"/>
  <path d="m43.402 81.376h0.9375v3.6094h-0.9375z"/>
  <path d="m46.195 83.048h0.51563c0.29687 0 0.52344-0.0508 0.67969-0.14453 0.16015-0.0977 0.23828-0.23047 0.23828-0.41016s-0.0703-0.31641-0.20703-0.41406c-0.13672-0.0937-0.33594-0.14453-0.59766-0.14453h-0.62891zm-0.9375-1.6719h1.7461c0.5 0 0.88672 0.0977 1.1523 0.28906 0.26953 0.19141 0.40234 0.46875 0.40234 0.82813 0 0.36719-0.14453 0.64062-0.42968 0.82812-0.28907 0.1875-0.71094 0.28125-1.2695 0.28125h-0.66407v1.3828h-0.9375z"/>
  <path d="m48.996 84.337 2.2383-2.293 0.10937-0.10937h-2.2383v-0.5586h3.25v0.66797l-2.2422 2.293-0.0859 0.0898h2.3516v0.5586h-3.3828z"/>
  <path d="m53.164 81.376h0.9336v3.6094h-0.9336z"/>
  <path d="m57.309 85.056c-0.78515 0-1.3828-0.16016-1.7891-0.47656-0.40625-0.32032-0.61328-0.78516-0.61328-1.3984 0-0.57422 0.20313-1.0312 0.61328-1.3672 0.40625-0.33984 0.95313-0.50781 1.6484-0.50781 0.59375 0 1.0469 0.10547 1.3555 0.3125 0.30469 0.20703 0.46094 0.51172 0.46094 0.91406h-0.92969c-4e-3 -0.23437-0.0781-0.40234-0.22266-0.51172-0.14062-0.10156-0.36719-0.15625-0.67578-0.15625-0.42187 0-0.74609 0.11328-0.97656 0.34375-0.23047 0.22657-0.34375 0.55078-0.34375 0.97266 0 0.43359 0.11719 0.75781 0.35547 0.98047 0.23437 0.22265 0.58203 0.33594 1.0352 0.33594 0.23828 0 0.4961-0.0274 0.78125-0.082v-0.80078h-0.88281v-0.55859h1.8203v1.8008c-0.53906 0.13281-1.0859 0.19922-1.6367 0.19922"/>
  <path d="m35.957 92.943v-3.7852h2.7891v0.42578h-2.1719v1.1953h2.0586v0.42968h-2.0586v1.7344z"/>
  <path d="m39.605 92.943v-3.7852h2.7578v0.42578h-2.1406v1.1953h2.0586v0.42968h-2.0586v1.3047h2.1992v0.42969z"/>
  <path d="m43.969 90.818h1.0781c0.30468 0 0.53906-0.0508 0.70703-0.15235 0.16797-0.10546 0.25-0.24609 0.25-0.43359 0-0.22656-0.0859-0.39062-0.26563-0.49219-0.17578-0.10547-0.46094-0.15625-0.85547-0.15625h-0.91406zm-0.61719-1.6602h1.8047c0.45703 0 0.81641 0.0859 1.0781 0.25781 0.25781 0.17188 0.39062 0.41016 0.39062 0.71094 0 0.3086-0.14062 0.55078-0.42187 0.72656-0.13282 0.0859-0.28907 0.14844-0.47266 0.19532 0.19922 0.0195 0.35156 0.0625 0.44531 0.1289 0.13672 0.0977 0.23047 0.29297 0.28125 0.58594 0.0391 0.22656 0.0742 0.42188 0.10938 0.57813l0.0351 0.16796c0.0274 0.11329 0.0547 0.20313 0.0742 0.26954 0.0234 0.0625 0.0508 0.11718 0.0742 0.16015h-0.65625c-0.0391-0.10156-0.0781-0.22656-0.11328-0.37109-0.0352-0.14453-0.0742-0.34375-0.12109-0.59375l-0.0274-0.16016c-0.0391-0.20703-0.12109-0.35547-0.25-0.4414-0.125-0.082-0.32422-0.125-0.58984-0.125h-1.0234v1.6953h-0.61719z"/>
  <path d="m48.172 92.943h-0.61719v-3.7852h0.80469l2.2109 3.1719v-3.1719h0.61328v3.7852h-0.82812l-2.1836-3.1406z"/>
  <path d="m54.535 90.193c-8e-3 -0.16797-0.0781-0.30078-0.21485-0.39844-0.13672-0.0937-0.32422-0.14062-0.5664-0.14062-0.22266 0-0.41016 0.0469-0.5586 0.13671-0.14843 0.0899-0.22265 0.20313-0.22265 0.33594 0 0.11328 0.0703 0.21094 0.20312 0.28906 0.13672 0.0742 0.38672 0.15235 0.7461 0.23829l0.61328 0.14453c0.41406 0.0976 0.70312 0.21875 0.875 0.36718 0.16797 0.14454 0.2539 0.34766 0.2539 0.60547 0 0.33985-0.17578 0.6211-0.53515 0.83594-0.35547 0.21875-0.81641 0.32813-1.375 0.32813-0.64453 0-1.1289-0.10547-1.4453-0.3125-0.30859-0.20704-0.46484-0.50782-0.46484-0.91407v-0.0351h0.98047c-0.0156 0.21875 0.0586 0.38672 0.22266 0.50781s0.40234 0.17969 0.70703 0.17969c0.26953 0 0.48828-0.0508 0.66797-0.14844 0.17578-0.0977 0.26562-0.22266 0.26562-0.37109 0-0.0977-0.0547-0.17969-0.16406-0.24219-0.10938-0.0625-0.3086-0.12891-0.59766-0.19531l-0.61719-0.14454c-0.48046-0.11328-0.82031-0.24609-1.0195-0.39453-0.19531-0.14843-0.29687-0.34765-0.29687-0.59765 0-0.34766 0.16406-0.63282 0.49609-0.85547 0.32813-0.21875 0.75-0.33203 1.2656-0.33203 0.58203 0 1.0234 0.10156 1.3359 0.29687 0.28516 0.17969 0.42969 0.42578 0.42969 0.73438l-4e-3 0.082z"/>
  <path d="m56.504 92.861v-3.707h3.168v0.57421h-2.1758v0.92188h2.0469v0.57031h-2.0469v1.0664h2.2383v0.57422z"/>
  <path d="m60.543 89.154h0.98828v1.4961h1.9922v-1.4961h0.98828v3.707h-0.98828v-1.6406h-1.9922v1.6406h-0.98828z"/>
  <path d="m65.527 92.861v-3.707h3.168v0.57421h-2.1797v0.92188h2.0469v0.57031h-2.0469v1.0664h2.2422v0.57422z"/>
  <path d="m70.414 92.861h-0.91015v-3.707h1.3867l1.7383 2.7969v-2.7969h0.90625v3.707h-1.3633l-1.7578-2.832z"/>
 </g>
</svg>
