<svg width="800" height="339.91" version="1.1" viewBox="0 0 800 339.91" xml:space="preserve" xmlns="http://www.w3.org/2000/svg">
<circle class="st0" cx="681.79" cy="267.8" r="11.977" fill="#00aeef" stroke-width="5.2073"/><g transform="matrix(5.4566 0 0 5.4566 -21314 15.887)"><path d="m3973 2.9h3.7v23.1h-3.7z"/><path d="m3993.9 18.9v1h-11.2c0 0.5 0.2 1 0.4 1.5 0.2 0.4 0.5 0.8 0.9 1.1s0.8 0.6 1.3 0.7c0.5 0.2 1 0.3 1.5 0.3 0.9 0 1.7-0.2 2.3-0.5s1.2-0.8 1.6-1.4l2.4 2c-1.4 2-3.5 2.9-6.3 2.9-1.1 0-2.2-0.2-3.1-0.5-1-0.4-1.8-0.9-2.5-1.5-0.7-0.7-1.3-1.5-1.7-2.4s-0.6-2-0.6-3.2 0.2-2.3 0.6-3.2c0.4-1 0.9-1.8 1.6-2.5s1.5-1.2 2.5-1.6c0.9-0.4 2-0.6 3.1-0.6 1 0 2 0.2 2.8 0.5 0.9 0.3 1.6 0.8 2.2 1.5s1.1 1.5 1.5 2.5c0.5 0.9 0.7 2.1 0.7 3.4zm-3.7-1.6c0-0.5-0.1-0.9-0.2-1.3s-0.3-0.8-0.6-1.1-0.6-0.6-1.1-0.8c-0.4-0.2-1-0.3-1.5-0.3-1.1 0-2 0.3-2.8 1s-1.2 1.5-1.3 2.6h7.5zm-2.4-12.9h4.2l-4.3 4.4h-2.9z"/><path d="m4013.7 11c1 0 1.8 0.2 2.5 0.5s1.2 0.8 1.7 1.3c0.4 0.6 0.8 1.2 1 1.9s0.3 1.4 0.3 2.2v9.2h-3.7v-8.1c0-0.4 0-0.9-0.1-1.3-0.1-0.5-0.2-0.9-0.4-1.3s-0.5-0.7-0.8-0.9c-0.4-0.2-0.8-0.4-1.4-0.4s-1.1 0.1-1.5 0.4c-0.4 0.2-0.7 0.6-1 0.9-0.3 0.4-0.5 0.8-0.6 1.3s-0.2 1-0.2 1.4v8h-3.7v-8.9c0-0.9-0.2-1.7-0.7-2.3-0.4-0.6-1.1-0.9-2.1-0.9-0.6 0-1 0.1-1.4 0.4-0.4 0.2-0.7 0.5-1 0.9s-0.4 0.8-0.6 1.3c-0.1 0.4-0.2 0.9-0.2 1.4v8.1h-3.7v-14.7h3.5v2.4h0.1c0.2-0.4 0.4-0.7 0.7-1s0.6-0.6 1-0.9 0.8-0.5 1.3-0.6c0.5-0.2 1-0.2 1.6-0.2 1.1 0 2.1 0.3 2.8 0.8 0.8 0.5 1.3 1.2 1.7 2 0.5-0.9 1.1-1.6 2-2.1 0.8-0.6 1.8-0.8 2.9-0.8z"/><path d="m4031.2 24.2c-0.5 0.7-1 1.2-1.9 1.6-0.8 0.4-1.7 0.6-2.8 0.6-0.6 0-1.2-0.1-1.8-0.2-0.6-0.2-1.2-0.4-1.8-0.8-0.5-0.4-1-0.8-1.3-1.4-0.4-0.6-0.5-1.3-0.5-2.2 0-1.1 0.3-2 0.9-2.6 0.6-0.7 1.4-1.2 2.4-1.5s2.1-0.6 3.3-0.7 2.4-0.2 3.5-0.2v-0.4c0-0.9-0.3-1.6-1-2s-1.5-0.7-2.4-0.7c-0.8 0-1.5 0.2-2.2 0.5s-1.3 0.7-1.8 1.2l-1.9-2.2c0.8-0.8 1.8-1.4 2.9-1.7 1.1-0.4 2.2-0.6 3.3-0.6 1.3 0 2.4 0.2 3.2 0.6s1.5 0.8 2 1.4 0.8 1.3 1 2 0.3 1.5 0.3 2.2v8.9h-3.4zm0-4.8h-0.8c-0.6 0-1.2 0-1.9 0.1s-1.3 0.2-1.8 0.3c-0.6 0.2-1 0.4-1.4 0.7s-0.6 0.7-0.6 1.3c0 0.3 0.1 0.6 0.2 0.9l0.6 0.6c0.2 0.1 0.5 0.2 0.8 0.3s0.6 0.1 0.9 0.1c1.3 0 2.2-0.3 2.9-1s1-1.6 1-2.8v-0.5z"/><path d="m4037.7 11.4h3.5v2.4h0.1c0.3-0.7 0.9-1.4 1.7-1.9 0.8-0.6 1.8-0.8 2.9-0.8 1 0 1.8 0.2 2.5 0.5s1.2 0.8 1.7 1.3c0.4 0.6 0.8 1.2 1 1.9s0.3 1.4 0.3 2.2v9.2h-3.7v-8.1c0-0.4 0-0.9-0.1-1.3-0.1-0.5-0.2-0.9-0.4-1.3s-0.5-0.7-0.8-0.9c-0.4-0.2-0.8-0.4-1.4-0.4s-1.1 0.1-1.5 0.4c-0.4 0.2-0.8 0.5-1.1 0.9s-0.5 0.8-0.6 1.3-0.2 1-0.2 1.5v8.1h-3.7v-15z"/></g><g transform="matrix(5.2073 0 0 5.2073 -20747 169.38)"><path d="m4057.9 2.9v10.3h0.1c0.2-0.2 0.4-0.5 0.7-0.8s0.6-0.5 1-0.7 0.9-0.4 1.4-0.6 1.1-0.2 1.8-0.2c1 0 2 0.2 2.9 0.6s1.6 0.9 2.3 1.6c0.6 0.7 1.1 1.5 1.5 2.4 0.3 0.9 0.5 1.9 0.5 3s-0.2 2.1-0.5 3-0.8 1.8-1.4 2.5-1.4 1.3-2.3 1.7-1.9 0.6-3 0.6c-1 0-2-0.2-2.9-0.7-0.9-0.4-1.6-1.1-2.1-2h-0.1v2.2h-3.5v-22.9zm8.4 15.8c0-0.6-0.1-1.1-0.3-1.7s-0.4-1.1-0.8-1.5c-0.3-0.4-0.8-0.8-1.3-1.1s-1.2-0.4-1.9-0.4-1.3 0.1-1.8 0.4-1 0.7-1.4 1.1-0.7 1-0.9 1.5c-0.2 0.6-0.3 1.1-0.3 1.7s0.1 1.1 0.3 1.7 0.5 1.1 0.9 1.5 0.8 0.8 1.4 1.1c0.5 0.3 1.1 0.4 1.8 0.4s1.3-0.1 1.9-0.4c0.5-0.3 1-0.7 1.3-1.1s0.6-1 0.8-1.5c0.3-0.6 0.3-1.2 0.3-1.7z"/><path d="m4072.4 2.9h3.7v23.1h-3.7z"/><path d="m4093.3 18.9v1h-11.2c0 0.5 0.2 1 0.4 1.5 0.2 0.4 0.5 0.8 0.9 1.1s0.8 0.6 1.3 0.7c0.5 0.2 1 0.3 1.5 0.3 0.9 0 1.7-0.2 2.3-0.5s1.2-0.8 1.6-1.4l2.4 2c-1.4 2-3.5 2.9-6.3 2.9-1.1 0-2.2-0.2-3.1-0.5-1-0.4-1.8-0.9-2.5-1.5-0.7-0.7-1.3-1.5-1.7-2.4s-0.6-2-0.6-3.2 0.2-2.3 0.6-3.2c0.4-1 0.9-1.8 1.6-2.5s1.5-1.2 2.5-1.6c0.9-0.4 2-0.6 3.1-0.6 1 0 2 0.2 2.8 0.5 0.9 0.3 1.6 0.8 2.2 1.5s1.1 1.5 1.5 2.5c0.5 0.9 0.7 2.1 0.7 3.4zm-3.7-1.6c0-0.5-0.1-0.9-0.2-1.3s-0.3-0.8-0.6-1.1-0.6-0.6-1.1-0.8c-0.4-0.2-1-0.3-1.5-0.3-1.1 0-2 0.3-2.8 1s-1.2 1.5-1.3 2.6h7.5z"/><path d="m4109 26.1h-3.5v-2.4h-0.1c-0.3 0.7-0.9 1.4-1.7 1.9-0.8 0.6-1.8 0.8-2.9 0.8-1 0-1.8-0.2-2.5-0.5s-1.2-0.8-1.7-1.3c-0.4-0.6-0.8-1.2-1-1.9s-0.3-1.4-0.3-2.2v-9.2h3.7v8.1c0 0.4 0 0.9 0.1 1.3 0.1 0.5 0.2 0.9 0.4 1.3s0.5 0.7 0.8 0.9c0.4 0.2 0.8 0.4 1.4 0.4s1.1-0.1 1.5-0.4c0.4-0.2 0.8-0.5 1.1-0.9s0.5-0.8 0.6-1.3 0.2-1 0.2-1.5v-8.1h3.7v15z"/><path d="m4126.9 13.1h-3.8v-3.4h-1.5v3.4h-2.5v1.4h2.5v8.4c0 0.5 0.1 0.9 0.2 1.4 0.2 0.6 0.5 1.1 1.1 1.4 0.5 0.3 1 0.4 1.5 0.4 0.7 0 1.4-0.1 2-0.4 0.2-0.1 0.3-0.1 0.2-0.2-0.1-0.3-0.1-0.7-0.2-1 0-0.1 0-0.2-0.1-0.3-0.1 0-0.2 0.1-0.3 0.1-0.4 0.2-0.9 0.3-1.4 0.3-0.8 0-1.5-0.3-1.6-1-0.1-0.2-0.1-0.5-0.1-0.7v-8.4h3.1c0.8 0 1.1 0.3 1.3 0.8 0.8 2.2 1.7 4.3 2.5 6.5 0.5 1.4 1.1 2.9 1.7 4.2h1.4c0.7-1.9 1.5-3.9 2.2-5.8 0.9-2.4 1.8-4.8 2.7-7.1v-0.1h-1.5c-0.1 0-0.1 0.1-0.1 0.1-0.4 1-0.8 2.1-1.2 3.1-0.8 2.2-1.7 4.5-2.5 6.7-0.1 0.2-0.2 0.5-0.3 0.7v-0.1c-0.3-0.7-0.6-1.4-0.8-2.1-0.9-2.3-1.8-4.6-2.7-6.8-0.1-0.3-0.3-0.6-0.5-0.8-0.4-0.8-1.3-0.7-1.3-0.7zm-0.3 2.6"/></g><g transform="matrix(11.673 0 0 11.673 0 -2.0995)">
		<linearGradient id="SVGID_1_" x2="26.152" y1="14.71" y2="14.71" gradientUnits="userSpaceOnUse">
			<stop stop-color="#00AEEF" offset=".010357"/>
			<stop stop-color="#01AAEC" offset=".2096"/>
			<stop stop-color="#059FE4" offset=".3967"/>
			<stop stop-color="#0A8CD5" offset=".579"/>
			<stop stop-color="#1271C0" offset=".7582"/>
			<stop stop-color="#1D4FA6" offset=".9337"/>
			<stop stop-color="#21409A" offset="1"/>
		</linearGradient>
		<path class="st1" d="m13.1 8.8c4 0 7.3 3.3 7.3 7.3s-3.1 7.2-7.1 7.3h-0.3c-4 0-7.3-3.3-7.3-7.3v-10.7s-4.5-4.6-4.8-4.9c-0.5-0.5-0.9-0.4-0.9 0.2v15.5c0 7.2 5.9 13.1 13.1 13.1 4.8 0 8.9-2.5 11.2-6.4 1.2-2 1.9-4.3 1.9-6.7 0-7.2-5.9-13.1-13.1-13.1-2.7 0-5.2 0.8-7.3 2.2" fill="url(#SVGID_1_)"/>
		<linearGradient id="SVGID_2_" x1="7.0907" x2="28.755" y1="18.203" y2="8.8869" gradientUnits="userSpaceOnUse">
			<stop stop-color="#005EAD" offset="0"/>
			<stop stop-color="#0071BD" offset=".12"/>
			<stop stop-color="#008CD3" offset=".3275"/>
			<stop stop-color="#009FE3" offset=".5397"/>
			<stop stop-color="#00AAEC" offset=".7576"/>
			<stop stop-color="#00AEEF" offset=".9896"/>
		</linearGradient>
		<path class="st2" d="m10.8 9.2c0.7-0.2 1.3-0.4 2.3-0.4 4 0 7.3 3.3 7.3 7.3 0 3.9-2.9 7-6.8 7.3-4 0.3-7.6-2.8-7.9-6.7 0 11.8 14.1 13 18.5 6.1 0.2-0.3 0.4-0.6 0.5-0.9 0.9-1.7 1.4-3.7 1.4-5.8 0-7.2-5.9-13.1-13.1-13.1-2.7 0-5.2 0.8-7.3 2.2l3.4 3.4c0.5 0.6 1.1 0.8 1.7 0.6z" fill="url(#SVGID_2_)"/>
	</g>
</svg>
