<svg version="1.1" viewBox="0 0 800 208.51" xml:space="preserve" xmlns="http://www.w3.org/2000/svg"><g transform="matrix(1.3333 0 0 -1.3333 25.696 882.81)"><path d="m562.31 662.1h-563.16c-10.174 0-18.421-8.3171-18.421-18.576v-85.18c0-10.262 8.2465-18.579 18.421-18.579h519.69c11.904-9.9878 32.721-27.404 35.774-29.619 4.3123-3.1327 12.22-6.2625 19.168-3.1298 6.9511 3.1298 6.9511 12.762 6.9511 12.762v123.75c0 10.259-8.2493 18.576-18.421 18.576" fill="#007d99"/><path transform="matrix(.75 0 0 -.75 0 396.85)" d="m10.586-326.4v107.26h81.125v-26.051h-51.598v-81.207zm535.74 0.47461v26.004h32.588v80.779h29.393v-80.455h24.922l32.906 82.447h27.158l43.447-108.78h-32.268l-24.279 67.424-24.602-67.424zm-111.66 2.8965v20.994h-9.7441v23.443h9.7441v33.707c0 19.767 10.35 27.43 27.701 27.43 8.0678 0 14.918-1.8414 20.092-4.7539v-22.83c-3.4996 1.6858-7.1546 2.7598-10.959 2.7598-5.3283 0-7.916-2.4503-7.916-8.2754v-28.037h19.18v-23.443h-19.18v-20.994zm-301.96 19.154c-24.354 0-41.555 19.152-41.555 43.359v0.30859c0 25.742 18.267 43.057 44.141 43.057 16.44 0 27.856-6.7444 35.77-16.855l-15.98-13.332c-5.9379 5.825-11.417 8.4297-18.266 8.4297-8.9822 0-15.526-4.5981-17.811-13.637h55.102c0.15427-1.9944 0.15429-4.1402 0.15429-5.9766 0-24.361-13.092-45.354-41.555-45.354zm262.58 0c-11.722 0-19.33 6.5887-24.658 13.482v-11.643h-28.922v82.893h28.922v-44.895c0-9.0424 5.1749-13.941 12.178-13.941 6.8486 0 11.566 4.899 11.566 13.941v44.895h28.922v-54.242c0-18.849-10.506-30.49-28.008-30.49zm128.28 0c-24.358 0-41.555 19.152-41.555 43.359v0.30859c0 25.742 18.267 43.057 44.141 43.057 16.44 0 27.856-6.7444 35.77-16.855l-15.98-13.332c-5.9379 5.825-11.417 8.4297-18.27 8.4297-8.9784 0-15.523-4.5981-17.807-13.637h55.102c0.15052-1.9944 0.15039-4.1402 0.15039-5.9766 0-24.361-13.088-45.354-41.551-45.354zm-227.28 0.61328c-14.152 0-24.045 2.6029-33.332 6.4336l5.9336 20.531c7.3076-2.9088 14.006-4.5957 22.684-4.5957 11.108 0 16.436 4.9048 16.436 13.484v1.3809c-4.7187-1.6858-12.176-3.2227-19.785-3.2227-19.334 0-32.271 8.8899-32.271 26.053v0.30469c0 16.549 12.027 25.588 27.703 25.588 10.807 0 18.57-4.1358 24.203-10.42v8.582h28.613v-47.652c0-11.646-2.5854-20.226-8.8281-26.355-6.5438-6.5889-16.59-10.111-31.355-10.111zm-125.42 1.2266 32.877 83.508h26.334l32.877-83.508h-29.988l-15.83 48.418-15.826-48.418zm-37.998 19.611c7.9135 0 13.242 5.8209 14.307 15.018h-28.613c1.5202-9.0424 6.6942-15.018 14.307-15.018zm390.86 0c7.9135 0 13.242 5.8209 14.307 15.018h-28.617c1.524-9.0424 6.6981-15.018 14.311-15.018zm-226.67 27.273c4.2634 0 8.3737 0.9178 11.264 2.1445v3.832c0 8.2748-5.9341 13.637-14.307 13.637-5.9342 0-10.197-3.3722-10.197-9.043v-0.30469c0-6.1299 4.8677-10.266 13.24-10.266z" fill="#fff"/></g></svg>
