<svg version="1.1" viewBox="-14.2 0 815.9 117.9" xmlns="http://www.w3.org/2000/svg">
 <polygon points="133 81.7 168.2 81.7 168.2 94.5 118.2 94.5 118.2 23.7 133 23.7"/>
 <path d="m177.9 42h13.6v52.4h-13.6v-52.4zm0-20.6h13.6v12.8h-13.6v-12.8z"/>
 <path d="m229.3 52.7c-8.7 0-11.7 8.2-11.7 15.6 0 5.9 1.8 16.2 11.7 16.2 10 0 11.7-10.2 11.7-16.2 0-7.4-3-15.6-11.7-15.6zm-11.2-3.9 0.2-0.2c2.2-3.3 6.3-8.2 15.2-8.2 11.5 0 21.8 8.9 21.8 27.2 0 14.6-6.5 28.4-22.1 28.4-5.7 0-11.8-2.1-15.2-8l-0.2-0.2v6.6h-13.3v-70.7h13.6v25.1z"/>
 <path d="m296.6 63.4c0-9.3-6.1-11.9-10.6-11.9s-10.6 2.7-10.6 11.9h21.2zm-21.8 9.1c0 2.9 1.2 12.5 12.3 12.5 3.8 0 7.8-2.3 8.9-6.1h14.1c0 5.8-7.4 17.1-23.7 17.1-14 0-25.2-7.9-25.2-28.4 0-14.3 7.3-27.2 24.8-27.2 18.6 0 24.8 12.7 24.8 32l-36 0.1z"/>
 <path d="m317.7 42h13v8.9h0.2c2.9-5.3 6-10.4 14.4-10.4 0.9 0 1.8 0.1 2.7 0.2v14c-1.2-0.2-2.7-0.2-3.9-0.2-10.7 0-12.7 6.7-12.7 12.5v27.5h-13.6v-52.5h-0.1z"/>
 <path d="m373.4 42h8.7v9.9h-8.7v28.4c0 3.1 0.1 4.2 5.8 4.2 0.9 0 1.9-0.1 2.9-0.3v10.5c-2.2 0.2-4.3 0.3-6.5 0.3h-1.8c-11.8 0-14-4.5-14-11.3v-31.8h-7.2v-9.9h7.2v-14.2h13.6v14.2z"/>
 <path d="m419.7 68.8c-1.7 0.9-3.1 1.7-5.8 2.2l-3.6 0.7c-6.3 1.2-9.5 2.9-9.5 8.2 0 4.5 3.1 6.5 6.9 6.5 3.2 0 12-1.6 12-12.2v-5.4zm13.6 15.3c0 6.3 1.5 7.7 3.2 8.2v2.2h-15.1c-0.5-1.2-1.3-3.2-1.3-6.1-4.2 4.3-7.5 7.7-16.8 7.7-9.4 0-16.2-5.5-16.2-16.2 0-8.7 5.5-14.9 14.4-16.2l13.3-2c1.9-0.3 4.8-0.8 4.8-4.3s-2-5.9-8.4-5.9c-7.3 0-8.5 3.2-9.1 7.2h-13.6c0.1-3.8 2.7-18 22.4-18.2 18.7 0 22.3 8.4 22.3 15.9v27.7h0.1z"/>
 <path d="m468.5 84.4c10 0 11.7-10.2 11.7-16.2 0-7.4-3.1-15.6-11.7-15.6-8.7 0-11.7 8.2-11.7 15.6 0 6 1.8 16.2 11.7 16.2zm24.8 10.1h-13.3v-6.6l-0.2 0.2c-3.4 5.9-9.5 8-15.2 8-15.6 0-22.1-13.8-22.1-28.4 0-18.3 10.2-27.2 21.8-27.2 8.9 0 13 4.8 15.2 8.2l0.2 0.2v-25.2h13.6v70.8z"/>
 <path d="m529.5 82.2h14.4c12 0 16.1-12.1 16.1-23.7 0-20.9-10-22.6-16.3-22.6h-14.2v46.3zm-14.5-58.5h31.2c23.8 0 28.8 20.3 28.8 33.7 0 15.2-6 37-29.4 37h-30.6v-70.7z" fill="#6e6e70"/>
 <path d="m585.6 42h13.6v52.4h-13.6v-52.4zm0-20.6h13.6v12.8h-13.6v-12.8z" fill="#6e6e70"/>
 <path d="m646.9 67.7c0-8.4-4.1-15.3-11.8-15.3-5.1 0-10.8 3.7-10.8 15.9 0 6.7 2.8 14.6 10.9 14.6 9.3-0.1 11.7-8 11.7-15.2zm13.5-25.7v49.2c0 9.1-0.7 24.1-26.3 24.1-10.8 0-22.3-4.6-22.9-15.6h15c0.6 2.7 1.7 5.3 9.7 5.3 7.4 0 10.9-3.5 10.9-12v-6.2l-0.2-0.1c-2.3 3.8-5.7 7.7-14 7.7-12.6 0-22.6-8.8-22.6-27.1 0-18 10.3-26.9 21.8-26.9 9.8 0 13.7 5.7 15.4 9.2h0.2v-7.6h13z" fill="#6e6e70"/>
 <path d="m673.2 42h13.6v52.4h-13.6v-52.4zm0-20.6h13.6v12.8h-13.6v-12.8z" fill="#6e6e70"/>
 <path d="m715.4 42h8.7v9.9h-8.7v28.4c0 3.1 0.1 4.2 5.8 4.2 0.9 0 1.9-0.1 2.9-0.3v10.5c-2.2 0.2-4.3 0.3-6.5 0.3h-1.8c-11.8 0-14-4.5-14-11.3v-31.8h-7.2v-9.9h7.2v-14.2h13.6v14.2z" fill="#6e6e70"/>
 <path d="m761.7 68.8c-1.7 0.9-3.1 1.7-5.8 2.2l-3.6 0.7c-6.3 1.2-9.5 2.9-9.5 8.2 0 4.5 3.1 6.5 6.9 6.5 3.2 0 12-1.6 12-12.2v-5.4zm13.6 15.3c0 6.3 1.5 7.7 3.2 8.2v2.2h-15.1c-0.5-1.2-1.3-3.2-1.3-6.1-4.2 4.3-7.5 7.7-16.8 7.7-9.4 0-16.2-5.5-16.2-16.2 0-8.7 5.5-14.9 14.4-16.2l13.3-2c1.9-0.3 4.8-0.8 4.8-4.3s-2-5.9-8.4-5.9c-7.3 0-8.5 3.2-9.1 7.2h-13.6c0.1-3.8 2.7-18 22.4-18.2 18.7 0 22.3 8.4 22.3 15.9v27.8l0.1-0.1z" fill="#6e6e70"/>
 <polygon points="801.7 94.5 788.1 94.5 788.1 23.7 801.7 23.7" fill="#6e6e70"/>
 <path d="m-14.2 9.2v7.3c17.2-7.8 38.2-4.7 52.3 9.5 18.2 18.2 18.2 47.8 0 66l-0.2 0.2c-14.1 14-35 17-52.1 9.2v7.3c0 5.1 4.1 9.2 9.2 9.2h34c7.5-3.1 14.5-7.7 20.6-13.8v-0.1c24.8-24.9 25.1-65 0.5-89.5l-0.3-0.3c-6.5-6.5-14.2-11.2-22.4-14.2h-32.4c-5.1 0-9.2 4.1-9.2 9.2z" fill="#1D71B8"/>
 <path d="m94.5 0h-42.4c2.2 1.7 4.3 3.6 6.4 5.6l0.5 0.5c29.6 29.6 29.8 77.6 0.3 107.1-0.1 0.1-0.2 0.1-0.2 0.2-1.6 1.6-3.3 3.1-5 4.5h40.4c5.1 0 9.2-4.1 9.2-9.2v-99.5c0-5.1-4.1-9.2-9.2-9.2z" fill="#1D71B8"/>
 <path d="m16 48.8c6 6 6 15.6 0 21.6-5.9 6-15.6 5.9-21.6 0-6-6-6-15.6 0-21.6s15.6-6 21.6 0zm13.2 34.7c0.1-0.1 0.2-0.1 0.2-0.2 13.3-13.3 13.4-34.9 0.1-48.2-0.1-0.1-0.2-0.2-0.3-0.2-11.9-11.7-30.3-12.8-43.5-3.4v55.7c13.3 9.2 31.6 8 43.5-3.7z" fill="#1D71B8"/>
 <path d="m59.3 113.2c29.5-29.5 29.4-77.5-0.3-107.1l-0.5-0.5c-2-2-4.2-3.9-6.4-5.6h-24.8c8.2 3 15.9 7.7 22.5 14.2l0.3 0.3c24.5 24.5 24.3 64.6-0.5 89.5v0.1c-6.1 6.1-13.1 10.7-20.6 13.8h25c1.7-1.4 3.4-2.9 5-4.5 0.1-0.1 0.2-0.2 0.3-0.2z" fill="#F3F3F3"/>
 <path d="m37.9 92.3c0.1-0.1 0.2-0.1 0.2-0.2 18.2-18.2 18.2-47.8 0-66-14.1-14.3-35.1-17.4-52.3-9.6v15c13.2-9.4 31.6-8.3 43.5 3.4 0.1 0.1 0.2 0.2 0.3 0.2 13.3 13.3 13.2 34.9-0.1 48.2-0.1 0.1-0.2 0.1-0.2 0.2-11.9 11.7-30.2 12.9-43.4 3.7v14.2c17 7.9 37.9 4.8 52-9.1z" fill="#F3F3F3"/>
 <path d="m-5.6 70.3c6 6 15.6 6 21.6 0 6-5.9 5.9-15.6 0-21.6-6-6-15.6-6-21.6 0-5.9 6-5.9 15.6 0 21.6z" fill="#F3F3F3"/>
</svg>
