<svg enable-background="new 0 0 800 213.9" version="1.1" viewBox="0 0 800 213.9" xml:space="preserve" xmlns="http://www.w3.org/2000/svg">





<g fill="#00225C"><path d="m751 29.2 13.6 64.6h5.2l13.6-64.6h16.6l-18.2 78.5h-29.3l-15-64.6v0.3h-20.8v64.4h-15.9v-64.5h-21v-14.1h71.2z"/><polygon points="622.4 29.2 622.4 181.8 651.6 181.8 651.6 29.2"/><path d="m602.2 106.8c0-25.5-11.4-36.6-39.7-36.6-20.9 0-44.2 6.4-44.2 6.4l0.9 20.3s26.6-1.8 41-1.8c8.7 0 12.9 2.4 12.9 11.8v6.8l-23.3 1.8c-24 1.8-38.2 8.7-38.2 33.3 0 23.1 10.9 35.8 33.8 35.8 16.4 0 32.1-7.6 32.1-7.6 9.2 6.1 16.6 7.6 31.2 7.6l0.9-22c-5.9-1.1-6.8-3.7-7.2-10.2l-0.2-45.6zm-29.2 27.1v23.4s-12 3.5-21.3 3.5c-7.8 0-10.7-5.2-10.7-12.9 0-7.8 4.6-11.5 12.2-12.2l19.8-1.8z"/><polygon points="477.5 72.8 455.9 114 444.8 116 444.8 29.2 415.5 29.2 415.5 181.8 444.8 181.8 444.8 141.3 456.8 139.3 478.7 181.8 511.7 181.8 481.8 124.5 510.2 72.8"/><path d="m353.1 70.2c-37.9 0-50.1 23.3-50.1 56.9s12.2 57.3 50.1 57.3 50.1-23.8 50.1-57.3c0-33.6-12.1-56.9-50.1-56.9zm0 89.4c-16.1 0-20.5-11.4-20.5-32.5s4.4-32.1 20.5-32.1 20.5 10.9 20.5 32.1-4.4 32.5-20.5 32.5z"/><polygon points="295.2 155.2 252.8 155.2 252.8 33.6 222.7 33.6 222.7 181.8 295.2 181.8"/></g>
<path d="m131 3.8c3.2 4.3 2.4 10.4-1.9 13.6l-72.1 54.3c-3.3 2.8-3.7 7.8-0.9 11.1 2.6 3.1 7.1 3.6 10.5 1.4l77-58c4.4-3.1 10.4-2.1 13.5 2.2 3.1 4.2 2.2 10.1-1.9 13.3l-19.2 14.5c-3.1 3-3.2 8-0.2 11.1 2.7 2.8 7.1 3.2 10.3 0.9l0.1-0.1 8.4-6.3c4.4-3.1 10.4-2.1 13.5 2.2 3.1 4.2 2.2 10.1-1.9 13.3l-94.8 71.3c-3.1 3.1-3.2 8-0.1 11.1 2.7 2.8 7.1 3.2 10.3 0.9l0.1-0.1 33-24.9c4.3-3.2 10.4-2.4 13.6 1.9 3.2 4.2 2.4 10.4-1.9 13.6l-11.8 8.8c-3.1 3.1-3.2 8.1-0.1 11.1 2.8 2.8 7.1 3.2 10.3 0.8l0.1-0.1 12.9-9.7c4.3-3.2 10.4-2.4 13.6 1.9s2.4 10.4-1.9 13.6l-41.6 31.3c-4.4 3.1-10.4 2.2-13.5-2.2-2.9-4.1-2.3-9.8 1.6-13.1l-0.1 0.1c3.3-2.9 3.6-7.8 0.8-11.1-2.7-3.1-7.4-3.6-10.6-1.1l-39.9 30.1c-4.2 3.4-10.3 2.7-13.6-1.5-3.4-4.2-2.7-10.3 1.5-13.6 0.2-0.1 0.3-0.2 0.5-0.4l18.4-13.8c3.1-3.1 3.2-8 0.2-11.1-2.7-2.8-7.1-3.2-10.2-0.9l-0.1 0.1-2.9 2.2c-4.3 3.2-10.4 2.4-13.6-1.9s-2.4-10.4 1.9-13.6l89.3-67.3c3.1-3.1 3.2-8 0.1-11.1-2.8-2.8-7.1-3.2-10.3-0.9l-0.1 0.1-90.3 68c-4.3 3.2-10.4 2.4-13.6-1.9s-2.4-10.4 1.9-13.6l32.5-24.5c3.1-3 3.2-8 0.2-11.1-2.7-2.8-7.1-3.2-10.2-0.9l-0.1 0.1-12.1 9.1c-4.2 3.3-10.3 2.5-13.6-1.7-3.2-4.3-2.5-10.4 1.8-13.7 0.1-0.1 0.2-0.1 0.2-0.2l38.8-29.2 0.1-0.1c3.2-2.9 3.4-7.9 0.5-11.1-2.7-2.9-7.2-3.4-10.5-1l-0.1 0.1 1.1-0.8c-4.4 3.2-10.4 2.4-13.6-2-3.3-4.3-2.4-10.4 2-13.6l33.5-25.2c4.2-3.3 10.3-2.6 13.6 1.6s2.6 10.3-1.6 13.6c-0.1 0.1-0.2 0.2-0.4 0.2l-5.5 4.2c-3.3 2.8-3.6 7.8-0.9 11.1 2.6 3.1 7.2 3.6 10.5 1.2l-2.4 1.8 48.2-36.2c4.4-3.3 10.4-2.4 13.7 1.8z" fill="#2697CF"/>
</svg>
