<svg width="800" height="209.41" space="preserve" version="1.1" viewBox="0 0 800 209.41" xmlns="http://www.w3.org/2000/svg">
 <g fill="#fff">
  <g transform="translate(0 .35866)" font-family="Arial" font-size="40px" font-weight="900">
   <path d="m605.17 108.84h30.411v34.439h33.231v-34.439h30.546v98.417h-30.546v-39.81h-33.231v39.81h-30.411z" style="white-space:pre"/>
   <path d="m709.43 108.84h45.181q13.359 0 21.55 3.6252 8.2574 3.6252 13.628 10.406 5.3706 6.7804 7.7875 15.776 2.4167 8.9958 2.4167 19.066 0 15.776-3.6252 24.504-3.558 8.6602-9.9357 14.568-6.3776 5.8406-13.695 7.7874-10.003 2.6853-18.126 2.6853h-45.181zm30.411 22.288v53.774h7.4517q9.5329 0 13.561-2.0811 4.0281-2.1482 6.3106-7.3846 2.2825-5.3035 2.2825-17.119 0-15.642-5.102-21.415-5.1022-5.7734-16.918-5.7734z" style="white-space:pre"/>
  </g>
  <g transform="matrix(.77585 0 0 .77585 -3.7241e-7 -71.119)">
   <g transform="matrix(4.6296 0 0 4.6296 -17.593 -3.2407)">
    <path class="st4" d="m36.3 20.5c-9 0-15 5.6-15 13.9 0 8.6 5.9 14.1 15.1 14.1 10 0 14.6-7.4 14.6-14.2 0.1-9.4-7.6-13.8-14.7-13.8zm0 21.6c-3.6 0-5.9-2.9-5.9-7.6 0-4.6 2.3-7.6 5.9-7.6 4.2 0 5.7 4 5.7 7.7 0.1 3.7-1.7 7.5-5.7 7.5z" fill="#fff"/>
   </g>
   <path class="st4" d="m89.815 220.37v-11.111c0-11.111-9.2593-19.444-23.611-19.444h-27.315v-96.296h-38.889v126.85z" stroke-width="4.6296"/>
   <path class="st4" d="m297.69 220.37 52.315-126.85h-41.204l-27.315 78.241-26.389-78.241h-44.444l51.389 126.85z" stroke-width="4.6296"/>
   <path class="st4" d="m397.69 187.96c-11.111-6.4815-14.352-22.685-14.352-25v-0.46297h87.5s0.46296-2.7778 0.46296-5.0926c0-12.963-1.8518-30.556-14.352-45.37-11.111-13.426-27.778-19.907-49.537-19.907-39.815 0-65.741 25.463-65.741 64.815 0 19.444 5.5556 64.815 70.833 64.815 8.3333 0 40.278-1.3889 57.407-36.111-6.4815-2.7778-10.185-4.1667-17.593-7.4074-8.7963-3.7037-13.426 2.3148-16.667 5.5556-11.574 11.111-27.315 10.185-37.963 4.1667zm-15.278-47.222c3.7037-24.537 20.833-25.926 25.926-25.926 6.9444 0 12.963 2.3148 17.13 6.9444 5.5556 6.0185 5.0926 16.667-6.0185 18.519-24.537 3.7037-26.852 7.8704-37.5 17.13 0.46297-3.7037-0.46296-9.2593 0.46297-16.667z" stroke-width="4.6296"/>
  </g>
  <g transform="matrix(.77585 0 0 .77585 -3.7241e-7 -71.118)">
   <g transform="matrix(4.6296 0 0 4.6296 -17.593 -3.2394)">
    <path class="st4" d="m100.1 50.9v15.9c0 1.7 0 2.9-0.9 4.1-1.1 1.6-2.8 1.7-3.6 1.7-0.7 0-2.7 0-3.9-1.8-0.9-1.3-0.9-2.7-0.9-5 0 0-0.1-1.4-0.1-3.8s-1.9-3-3.7-3h-5v8.9c0 2 0.2 5.8 3.7 8.4 2.1 1.5 5.2 2.5 9.5 2.5 6.1 0 10.3-1.6 12.2-5.3 1.2-2.3 1.2-5.3 1.2-6.5v-16h-8.5z" fill="#fff"/>
   </g>
   <g transform="matrix(4.6296 0 0 4.6296 -17.593 -3.2394)">
    <path class="st4" d="m3.8 50.9v27.4h7.9v-15.1l12.7 15.1h5.5v-27.4h-7.9v14.5l-11.7-14.5z" fill="#fff"/>
   </g>
   <path class="st4" d="m375.92 231.94h-118.06v30.555h34.722v95.37h40.278v-95.37h43.055c8.7963 0 22.222-1.3889 26.852 7.4074v-14.352c-0.46297-15.741-2.3148-23.611-26.852-23.611z" stroke-width="4.6296"/>
   <path class="st4" d="m623.61 358.8h-43.981s-25.926-43.518-28.241-47.685c-6.0185-9.2592-13.426-5.0926-13.426-5.0926v52.778h-39.352v-126.39h59.259c7.8703 0 13.426 0 19.444 1.3889 23.611 4.6296 28.704 24.074 28.704 34.259 0 5.0926-0.92593 10.185-3.2407 14.352-5.0926 10.648-12.5 15.278-15.741 17.13zm-86.111-55.555s6.4815-12.037 12.5-16.204c3.2407-2.3148 8.3333-4.6296 10.648-5.5555 4.6296-1.8518 7.4074-6.0185 7.4074-10.648 0-4.1667-2.3148-7.4074-4.6296-8.7963-3.2407-2.3148-9.7222-2.3148-13.426-2.3148h-12.5z" stroke-width="4.6296"/>
   <path class="st4" d="m668.05 326.39c-11.111-6.4815-14.352-22.685-14.352-25v-0.46296h87.5s0.46295-2.7778 0.46295-5.0926c0-12.963-1.8518-30.555-14.352-45.37-11.111-13.426-27.778-19.907-49.537-19.907-39.815 0-65.741 25.463-65.741 64.815 0 19.444 5.5555 64.815 70.833 64.815 8.3333 0 40.278-1.3889 57.407-36.111-6.4815-2.7778-10.185-4.1667-17.593-7.4074-8.7963-3.7037-13.426 2.3148-16.667 5.5555-11.574 11.111-27.778 10.648-37.963 4.1667zm-15.278-46.759c3.7037-24.537 20.833-25.926 25.926-25.926 6.9444 0 12.963 2.3148 17.13 6.9444 5.5555 6.0185 5.0926 16.667-6.0185 18.518-24.537 3.7037-26.852 7.8703-37.5 17.13 0.46296-4.1667-0.46296-9.2592 0.46296-16.667z" stroke-width="4.6296"/>
   <path class="st4" d="m251.39 357.87c-0.46297-6.9444-0.92593-17.13-0.92593-30.555v-52.315c0-7.4074 0-22.222-14.815-34.722-11.574-9.2592-26.852-10.185-39.352-10.185-14.815 0-31.018 2.7778-55.555 11.111 8.3333 19.907 8.7963 24.537 25.463 20.37 5.0926-1.3889 10.185-2.3148 16.204-2.3148 23.148-0.46296 26.389 9.7222 27.315 20.833-3.7037-0.46297-10.648-1.3889-18.055-1.3889-13.889 0-25 1.8518-34.259 5.5555-12.037 5.5555-26.389 16.204-26.389 37.963 0 6.9444 6.9444 36.111 39.352 37.037h2.7778c10.185 0 18.518-2.3148 24.537-7.4074 3.7037-3.2407 9.2592-8.7963 12.037-11.111v3.2407c0 5.5555 0.46296 9.2592 0.46296 13.889 0 0.46297 0.46297 0.92593 0.92593 0.92593h39.352c0.46296 0.46296 0.92593 0 0.92593-0.92593zm-66.203-52.315c0.92593-0.46296 2.3148-0.46296 4.1666-0.46296 5.0926-0.46296 13.426-1.8518 19.907-5.5555v31.944c-2.7778 1.3889-10.185 4.1666-18.055 4.1666-12.5 0-19.444-5.0926-19.444-14.352 0-4.1667 1.3889-12.5 13.426-15.741z" stroke-width="4.6296"/>
  </g>
 </g>
</svg>
