<svg width="800" height="361.57" space="preserve" version="1.1" viewBox="0 0 800 361.57" xmlns="http://www.w3.org/2000/svg">
 <g transform="matrix(4.6296 0 0 4.6296 -17.593 -3.2407)">
  <path class="st0" d="m136.1 54.6c1.2-1.6 2.7-3 4.5-4.1l11.1-49.8h-11l-10.8 48.5c3.2 1 5.2 3.1 6.2 5.4z" fill="#047d3f"/>
  <path class="st1" d="m138.5 0.7h12.9l-30 29.1h-12.8z" fill="#02994c"/>
  <path class="st0" d="m158.4 38.2 8.3 11.4h8.4l-11.4-16.4z" fill="#047d3f"/>
  <path class="st2" d="m166.1 20.8-7.2 7-2.8 12.6 2.3-2.2 5.3-5 12.9-12.4z" fill="#4ab86a"/>
  <path class="st1" d="m155.1 9.7-4.3 19.7c1.2 0.8 2.3 1.9 3 3.3 0.8 1.5 1.3 3.2 1.3 5.1v3.7h-6.9l-1.2 5.7h7.7l1.5-6.7 2.7-12.6 3.9-18.1h-7.7z" fill="#02994c"/>
  <path class="st3" d="m153.5 39.9h-41.7l-3.2-10.1h36.9c4.4 0 8 3.6 8 8z"/>
  <path class="st2" d="m153.5 39.9h-41.7l-3.2-10.1h36.9c4.4 0 8 3.6 8 8z" fill="#4ab86a"/>
 </g>
 <g transform="matrix(4.6296 0 0 4.6296 -17.593 -3.2407)" fill="#333">
  <path class="st4" d="m100.1 50.9v15.9c0 1.7 0 2.9-0.9 4.1-1.1 1.6-2.8 1.7-3.6 1.7-0.7 0-2.7 0-3.9-1.8-0.9-1.3-0.9-2.7-0.9-5 0 0-0.1-1.4-0.1-3.8s-1.9-3-3.7-3h-5v8.9c0 2 0.2 5.8 3.7 8.4 2.1 1.5 5.2 2.5 9.5 2.5 6.1 0 10.3-1.6 12.2-5.3 1.2-2.3 1.2-5.3 1.2-6.5v-16h-8.5z"/>
  <path class="st4" d="m3.8 50.9v27.4h7.9v-15.1l12.7 15.1h5.5v-27.4h-7.9v14.5l-11.7-14.5z"/>
  <path class="st4" d="m85 50.8h-25.5v6.6h7.5v20.6h8.7v-20.6h9.3c1.9 0 4.8-0.3 5.8 1.6v-3.1c-0.1-3.4-0.5-5.1-5.8-5.1z"/>
  <path class="st4" d="m138.5 78.2h-9.5s-5.6-9.4-6.1-10.3c-1.3-2-2.9-1.1-2.9-1.1v11.4h-8.5v-27.3h12.8c1.7 0 2.9 0 4.2 0.3 5.1 1 6.2 5.2 6.2 7.4 0 1.1-0.2 2.2-0.7 3.1-1.1 2.3-2.7 3.3-3.4 3.7zm-18.6-12s1.4-2.6 2.7-3.5c0.7-0.5 1.8-1 2.3-1.2 1-0.4 1.6-1.3 1.6-2.3 0-0.9-0.5-1.6-1-1.9-0.7-0.5-2.1-0.5-2.9-0.5h-2.7z"/>
  <path class="st4" d="m36.3 20.5c-9 0-15 5.6-15 13.9 0 8.6 5.9 14.1 15.1 14.1 10 0 14.6-7.4 14.6-14.2 0.1-9.4-7.6-13.8-14.7-13.8zm0 21.6c-3.6 0-5.9-2.9-5.9-7.6 0-4.6 2.3-7.6 5.9-7.6 4.2 0 5.7 4 5.7 7.7 0.1 3.7-1.7 7.5-5.7 7.5z"/>
  <path class="st4" d="m23.2 48.3v-2.4c0-2.4-2-4.2-5.1-4.2h-5.9v-20.8h-8.4v27.4z"/>
  <path class="st4" d="m68.1 48.3 11.3-27.4h-8.9l-5.9 16.9-5.7-16.9h-9.6l11.1 27.4z"/>
  <path class="st4" d="m89.7 41.3c-2.4-1.4-3.1-4.9-3.1-5.4v-0.1h18.9s0.1-0.6 0.1-1.1c0-2.8-0.4-6.6-3.1-9.8-2.4-2.9-6-4.3-10.7-4.3-8.6 0-14.2 5.5-14.2 14 0 4.2 1.2 14 15.3 14 1.8 0 8.7-0.3 12.4-7.8-1.4-0.6-2.2-0.9-3.8-1.6-1.9-0.8-2.9 0.5-3.6 1.2-2.5 2.4-5.9 2.2-8.2 0.9zm-3.3-10.2c0.8-5.3 4.5-5.6 5.6-5.6 1.5 0 2.8 0.5 3.7 1.5 1.2 1.3 1.1 3.6-1.3 4-5.3 0.8-5.8 1.7-8.1 3.7 0.1-0.8-0.1-2 0.1-3.6z"/>
  <path class="st4" d="m148.1 71.2c-2.4-1.4-3.1-4.9-3.1-5.4v-0.1h18.9s0.1-0.6 0.1-1.1c0-2.8-0.4-6.6-3.1-9.8-2.4-2.9-6-4.3-10.7-4.3-8.6 0-14.2 5.5-14.2 14 0 4.2 1.2 14 15.3 14 1.8 0 8.7-0.3 12.4-7.8-1.4-0.6-2.2-0.9-3.8-1.6-1.9-0.8-2.9 0.5-3.6 1.2-2.5 2.4-6 2.3-8.2 0.9zm-3.3-10.1c0.8-5.3 4.5-5.6 5.6-5.6 1.5 0 2.8 0.5 3.7 1.5 1.2 1.3 1.1 3.6-1.3 4-5.3 0.8-5.8 1.7-8.1 3.7 0.1-0.9-0.1-2 0.1-3.6z"/>
  <path class="st4" d="m58.1 78c-0.1-1.5-0.2-3.7-0.2-6.6v-11.3c0-1.6 0-4.8-3.2-7.5-2.5-2-5.8-2.2-8.5-2.2-3.2 0-6.7 0.6-12 2.4 1.8 4.3 1.9 5.3 5.5 4.4 1.1-0.3 2.2-0.5 3.5-0.5 5-0.1 5.7 2.1 5.9 4.5-0.8-0.1-2.3-0.3-3.9-0.3-3 0-5.4 0.4-7.4 1.2-2.6 1.2-5.7 3.5-5.7 8.2 0 1.5 1.5 7.8 8.5 8h0.6c2.2 0 4-0.5 5.3-1.6 0.8-0.7 2-1.9 2.6-2.4v0.7c0 1.2 0.1 2 0.1 3 0 0.1 0.1 0.2 0.2 0.2h8.5c0.1 0.1 0.2 0 0.2-0.2zm-14.3-11.3c0.2-0.1 0.5-0.1 0.9-0.1 1.1-0.1 2.9-0.4 4.3-1.2v6.9c-0.6 0.3-2.2 0.9-3.9 0.9-2.7 0-4.2-1.1-4.2-3.1 0-0.9 0.3-2.7 2.9-3.4z"/>
 </g>
</svg>
