<svg width="800pt" height="329.58pt" version="1.1" viewBox="0 0 800 329.58" xmlns="http://www.w3.org/2000/svg">
 <g transform="matrix(1.882 0 0 1.882 -75.707 -291.61)">
  <path transform="scale(.75)" d="m63.236 206.6c-8.2501 0-9.5996 3.1716-9.5996 10.607v126.86c0 58.438 23.004 95.943 80.857 95.943h92.588c8.2501 0 9.5996-3.1692 9.5996-10.605v-33.17c0-7.4358-1.3495-10.608-9.5996-10.608l-67.229 3e-4c-33.883 0-46.213-14.194-46.213-51.82v-116.6c0-7.4358-1.3495-10.607-9.5996-10.607z" stroke-width="1.3333"/>
 </g>
 <g transform="matrix(1.882 0 0 1.882 -75.707 -291.61)" fill="#58585a">
  <path transform="scale(.75)" d="m183.93 206.67c-8.2501 0-9.5996 3.1531-9.5996 10.589l2e-3 33.469c0 7.4358 1.3495 10.607 9.5996 10.607h64.053c38.754 0 50.037 11.702 49.34 52.627v115.52c0 7.4358 1.3495 10.607 9.5996 10.607h40.809c8.2501 0 9.5996-3.1712 9.5996-10.607v-115.52c-1.3e-4 -22.064 1.1732-38.764 22.252-48.633l47.895 133.7c7.4818 18.455 18.69 41.06 40.492 41.06h44.107c18.934 0 28.526-22.459 34.89-41.06l72.204-186.34c0.78561-2.0207 2.5155-6.0186-0.32031-6.0186h-60.227c-4.271 0-4.9647 3.2134-6 6.0986l-56.85 168.61c-1.9711 5.8267-9.6087 5.8146-11.693 0l-58.191-168.61c-0.77917-2.4-1.1962-6.0987-7.5508-6.0987z" fill="#58585a" stroke-width="1.3333"/>
 </g>
 <path d="m265.08 165.43a50.664 50.664 0 0 1-50.664 50.664 50.664 50.664 0 0 1-50.664-50.664 50.664 50.664 0 0 1 50.664-50.664 50.664 50.664 0 0 1 50.664 50.664z" fill="#d10019" stop-color="#000000" stroke-width="5.2052" style="paint-order:stroke markers fill"/>
</svg>
