<svg width="211.67mm" height="102.07mm" version="1.1" viewBox="0 0 211.67 102.07" xmlns="http://www.w3.org/2000/svg">
 <defs>
  <clipPath id="c">
   <path d="m0 0h595.28v841.89h-595.28z"/>
  </clipPath>
  <linearGradient id="a" x2="1" gradientTransform="matrix(-.60753 25.299 25.299 .60753 266.96 399.89)" gradientUnits="userSpaceOnUse">
   <stop stop-color="#b73132" offset="0"/>
   <stop stop-color="#b73132" offset=".0024643"/>
   <stop stop-color="#c24b33" offset=".23627"/>
   <stop stop-color="#c24b33" offset=".23715"/>
   <stop stop-color="#a92830" offset=".6978"/>
   <stop stop-color="#a92830" offset=".70175"/>
   <stop stop-color="#f14643" offset="1"/>
  </linearGradient>
  <clipPath id="d">
   <path d="m0 0h595.28v841.89h-595.28z"/>
  </clipPath>
  <clipPath id="e">
   <path d="m0 0h595.28v841.89h-595.28z"/>
  </clipPath>
  <linearGradient id="b" x2="1" gradientTransform="matrix(-.60753 25.299 25.299 .60753 374.7 402.47)" gradientUnits="userSpaceOnUse">
   <stop stop-color="#b73132" offset="0"/>
   <stop stop-color="#c24b33" offset=".23627"/>
   <stop stop-color="#a92830" offset=".6978"/>
   <stop stop-color="#f14643" offset="1"/>
  </linearGradient>
 </defs>
 <g transform="translate(26.009 -51.103)">
  <g transform="matrix(4.1484 0 0 -4.1484 -1343 1821.1)">
   <path d="m323.56 426.67c-3.571 0-6.081-2.403-6.081-5.561v-13.433c0-3.162 2.419-5.611 6.081-5.611h38.909c3.612 0 6.034 2.449 6.034 5.611v13.433c0 3.158-2.56 5.561-6.034 5.561z" fill="url(#b)"/>
  </g>
  <g transform="matrix(4.1484 0 0 -4.1484 -1343 1821.1)">
   <g clip-path="url(#e)">
    <g transform="translate(362.44 408.21)">
     <path d="m0 0c0.016-0.315-0.215-0.601-0.58-0.613h-1.675v-0.016c-12.019-0.152-24.034 0.016-36.055 0.016-0.366 0.012-0.599 0.298-0.583 0.613v10.532h-3.234c-9e-3 -3.435 0-6.868 4e-3 -10.32 0-2.165 1.341-3.198 3.669-3.198 12.145 0.018 24.289-0.01 36.433-0.016v0.016c0.527 0 1.052 4e-3 1.583 0 2.329 0 3.668 1.033 3.668 3.198 9e-3 3.978 0.013 7.939 0 11.909 0 2.165-1.344 3.171-3.671 3.194-1.554 0.011-7.062 7e-3 -8.622 7e-3v-2.375h8.483c0.365-0.015 0.596-0.301 0.58-0.609zm-6.036 8.274c-0.892 0-1.285-0.348-1.454-0.561-0.104-0.165-0.303-0.546-0.303-1.576 0-0.965 0.185-1.361 0.303-1.541 0.077-0.105 0.457-0.605 1.454-0.605 0.877 0 1.27 0.377 1.423 0.605 0.271 0.361 0.333 0.907 0.333 1.541 0 0.927-0.152 1.335-0.319 1.576-0.167 0.213-0.544 0.561-1.437 0.561m0-6.644c-1.393 0-2.951 0.042-3.919 0.909-1.09 0.968-1.163 2.706-1.163 3.598 0 0.88 0.073 2.621 1.163 3.602 0.968 0.846 2.526 0.896 3.919 0.896s2.947-0.05 3.919-0.896c1.089-0.981 1.165-2.722 1.165-3.602 0-0.892-0.076-2.63-1.165-3.598-0.972-0.867-2.526-0.909-3.919-0.909m-8.973 5.809v3.089h3.256v-8.793h-3.256v3.361h-2.888v-3.361h-3.238v8.793h3.238v-3.089zm-13.599-5.036c-0.319-0.411-0.589-0.591-0.892-0.698-0.53-0.104-0.968-0.117-1.503 0-0.435 0.122-0.861 0.376-1.024 0.968v7.855h3.174l-0.168-4.556c0-0.151 0.016-0.255 0.152-0.255 0.122 0 0.229 0.166 0.29 0.255l3.193 3.995c0.258 0.334 0.531 0.668 1.527 0.668 1.862 0 1.894-1.319 1.894-1.759v-7.141h-3.258l0.169 4.568c0 0.123 0 0.261-0.139 0.261-0.09 0-0.18-0.138-0.301-0.261zm-3.726 8.125-2.599-3.342c-0.152-0.2-0.275-0.368-0.348-0.503-0.091-0.162-0.138-0.301-0.138-0.423 0-0.137 0.06-0.27 0.138-0.411 0.068-0.123 0.157-0.23 0.242-0.346l3.012-3.676v-0.092h-3.572l-2.572 3.54c-0.199 0.274-0.438 0.623-0.438 0.968 0 0.321 0.195 0.683 0.529 1.166l2.163 3.119z" fill="#fff"/>
    </g>
    <g transform="translate(320.93 423.53)">
     <path d="m0 0v-1.166c0-0.171-3e-3 -0.306-0.012-0.419-8e-3 -0.11-0.028-0.195-0.054-0.256-0.021-0.066-0.057-0.109-0.099-0.137-0.046-0.024-0.1-0.036-0.167-0.036-0.037 0-0.074 0-0.116 6e-3 -0.04 4e-3 -0.082 6e-3 -0.121 0.013v-0.714c0.066-0.017 0.125-0.027 0.189-0.042 0.061-4e-3 0.13-0.014 0.2-0.014 0.072-5e-3 0.161-5e-3 0.26-5e-3 0.188 0 0.353 0.024 0.496 0.076 0.141 0.048 0.261 0.119 0.35 0.223 0.052 0.054 0.104 0.123 0.149 0.2 0.046 0.078 0.083 0.166 0.11 0.257 0.028 0.102 0.039 0.205 0.042 0.319v0.842h0.843v-1.866h1.215v2.719z" fill="#fff"/>
    </g>
    <g transform="translate(326.65 422.64)">
     <path d="m0 0h-0.497v0.886h-1.214v-2.719h1.214v0.971h0.471c0.053-0.228 0.163-0.418 0.323-0.576 0.162-0.159 0.373-0.279 0.634-0.361 0.26-0.085 0.563-0.129 0.917-0.129 0.413 0 0.759 0.061 1.045 0.174 0.284 0.116 0.5 0.282 0.646 0.501 0.144 0.214 0.218 0.474 0.22 0.781-2e-3 0.303-0.076 0.561-0.22 0.78-0.146 0.218-0.362 0.382-0.646 0.495-0.286 0.12-0.632 0.176-1.045 0.176-0.34 0-0.632-0.041-0.882-0.114-0.252-0.078-0.457-0.19-0.62-0.334-0.162-0.145-0.277-0.323-0.346-0.531m1.211-0.472c2e-3 0.125 0.028 0.233 0.077 0.326 0.052 0.091 0.129 0.161 0.22 0.212 0.092 0.051 0.205 0.075 0.333 0.075 0.127 0 0.238-0.024 0.33-0.075 0.096-0.051 0.165-0.121 0.217-0.212 0.051-0.093 0.077-0.201 0.077-0.326 0-0.13-0.026-0.237-0.077-0.332-0.052-0.091-0.121-0.163-0.217-0.204-0.092-0.052-0.203-0.082-0.33-0.082-0.128 0-0.241 0.03-0.333 0.082-0.091 0.041-0.168 0.113-0.22 0.204-0.049 0.095-0.075 0.202-0.077 0.332" fill="#fff"/>
    </g>
    <g transform="translate(331.75 422.72)">
     <path d="m0 0c4e-3 0.1 0.022 0.188 0.055 0.267 0.027 0.076 0.064 0.141 0.114 0.194 0.049 0.061 0.102 0.108 0.168 0.149 0.037 0.023 0.096 0.043 0.171 0.068 0.077 0.025 0.167 0.043 0.27 0.067 0.101 0.026 0.211 0.046 0.325 0.065 0.117 0.021 0.23 0.046 0.347 0.067 0.113 0.022 0.224 0.04 0.327 0.061 0.102 0.025 0.194 0.041 0.275 0.066 0.079 0.019 0.141 0.038 0.183 0.061 0.114 0.062 0.211 0.146 0.286 0.248 0.076 0.107 0.129 0.233 0.162 0.382h-1.287c-0.027-0.036-0.063-0.069-0.108-0.097-0.043-0.022-0.095-0.043-0.16-0.062-0.066-0.018-0.145-0.034-0.237-0.052-0.096-0.015-0.203-0.037-0.334-0.055-0.126-0.021-0.239-0.049-0.339-0.079-0.099-0.032-0.194-0.071-0.276-0.112-0.083-0.039-0.163-0.086-0.241-0.136-0.059-0.037-0.117-0.083-0.181-0.145-0.06-0.058-0.128-0.128-0.194-0.212-0.079-0.079-0.145-0.182-0.202-0.298-0.056-0.118-0.1-0.251-0.13-0.394-0.033-0.151-0.049-0.303-0.049-0.47 0-0.231 0.042-0.442 0.129-0.636 0.087-0.193 0.21-0.359 0.372-0.505 0.166-0.14 0.365-0.254 0.605-0.33 0.235-0.077 0.506-0.119 0.813-0.119 0.277 0 0.527 0.027 0.749 0.081 0.226 0.052 0.429 0.139 0.604 0.25 0.189 0.113 0.33 0.251 0.424 0.407 0.092 0.164 0.139 0.334 0.139 0.534 0 0.223-0.04 0.414-0.121 0.566-0.081 0.156-0.196 0.279-0.34 0.375-0.148 0.092-0.317 0.16-0.514 0.202-0.198 0.039-0.412 0.062-0.649 0.062-0.114 0-0.231-0.013-0.346-0.035-0.118-0.021-0.227-0.051-0.331-0.092-0.105-0.039-0.201-0.089-0.282-0.147-0.083-0.053-0.146-0.122-0.197-0.196m0.843-1.315c-0.115 0-0.219 0.027-0.313 0.075-0.091 0.048-0.164 0.105-0.218 0.187-0.055 0.074-0.079 0.161-0.084 0.253 0 0.119 0.025 0.218 0.074 0.304 0.048 0.086 0.12 0.147 0.214 0.189 0.089 0.043 0.2 0.071 0.327 0.071 0.15 0 0.271-0.028 0.367-0.071 0.098-0.045 0.165-0.11 0.211-0.192 0.045-0.085 0.069-0.186 0.069-0.301-1e-3 -0.108-0.031-0.197-0.079-0.272-0.055-0.074-0.13-0.135-0.225-0.179-0.098-0.039-0.212-0.064-0.343-0.064" fill="#fff"/>
    </g>
   </g>
  </g>
  <g transform="matrix(4.1484 0 0 -4.1484 46.233 75.417)">
   <path d="m0 0h1.388l1.088 1.581-0.053-0.744v-0.837h1.216v2.719h-1.401l-1.061-1.488 0.042 0.651v0.837h-1.219z" fill="#fff"/>
  </g>
  <g transform="matrix(4.1484 0 0 -4.1484 63.558 64.138)">
   <path d="m0 0v-2.719h1.213v1.021l-0.153 1.07 0.724-2.091h0.689l0.728 2.091-0.157-1.07v-1.021h1.215v2.719h-1.617l-0.512-1.409-0.514 1.409z" fill="#fff"/>
  </g>
  <g transform="matrix(4.1484 0 0 -4.1484 -1343 1821.1)">
   <g clip-path="url(#d)">
    <g transform="translate(343.8 422.17)">
     <path d="m0 0c0-0.308 0.076-0.567 0.223-0.785 0.146-0.215 0.362-0.381 0.645-0.497 0.288-0.114 0.635-0.174 1.048-0.174 0.416 0 0.763 0.06 1.051 0.174 0.283 0.116 0.496 0.282 0.645 0.497 0.144 0.218 0.218 0.477 0.218 0.785 0 0.303-0.074 0.561-0.218 0.775-0.149 0.22-0.362 0.386-0.645 0.499-0.288 0.12-0.635 0.176-1.051 0.176-0.413 0-0.76-0.056-1.048-0.176-0.283-0.113-0.499-0.279-0.645-0.499-0.147-0.214-0.223-0.472-0.223-0.775m1.283 0c2e-3 0.125 0.026 0.232 0.077 0.325 0.055 0.092 0.128 0.161 0.22 0.213 0.094 0.051 0.207 0.074 0.334 0.074 0.125 0 0.235-0.023 0.33-0.074 0.094-0.052 0.167-0.121 0.219-0.213 0.053-0.093 0.077-0.2 0.08-0.325-3e-3 -0.13-0.027-0.237-0.08-0.332-0.052-0.091-0.125-0.163-0.219-0.208-0.095-0.049-0.205-0.078-0.33-0.078-0.127 0-0.24 0.029-0.334 0.078-0.092 0.045-0.165 0.117-0.22 0.208-0.051 0.095-0.075 0.202-0.077 0.332" fill="#fff"/>
    </g>
    <g transform="translate(351.83 421.64)">
     <path d="m0 0h-1.324c-0.043-0.068-0.11-0.12-0.211-0.157-0.096-0.036-0.22-0.054-0.373-0.054-0.224 0-0.4 0.038-0.523 0.12-0.12 0.087-0.18 0.197-0.18 0.345h2.632c0 0.371-0.075 0.681-0.227 0.941-0.151 0.253-0.373 0.454-0.668 0.589-0.299 0.134-0.665 0.202-1.105 0.202-0.416 0-0.771-0.055-1.059-0.175-0.288-0.114-0.505-0.277-0.654-0.496-0.148-0.218-0.225-0.476-0.225-0.779 0-0.307 0.077-0.567 0.225-0.781 0.149-0.219 0.366-0.385 0.654-0.501 0.288-0.113 0.643-0.174 1.059-0.174 0.567 0 1.013 0.081 1.346 0.238 0.328 0.157 0.541 0.384 0.633 0.682m-2.677 0.837c0.032 0.152 0.116 0.271 0.243 0.35 0.133 0.082 0.309 0.12 0.523 0.12 0.203 0 0.364-0.041 0.481-0.125 0.116-0.079 0.183-0.196 0.202-0.345z" fill="#fff"/>
    </g>
   </g>
  </g>
  <g transform="matrix(4.1484 0 0 -4.1484 -1343 1821.1)">
   <path d="m323.56 426.67c-3.571 0-6.081-2.403-6.081-5.561v-13.433c0-3.162 2.419-5.611 6.081-5.611h38.909c3.612 0 6.034 2.449 6.034 5.611v13.433c0 3.158-2.56 5.561-6.034 5.561z" fill="url(#a)"/>
  </g>
  <g transform="matrix(4.1484 0 0 -4.1484 -1343 1821.1)">
   <g clip-path="url(#c)">
    <g transform="translate(362.44 408.21)">
     <path d="m0 0c0.016-0.315-0.215-0.601-0.58-0.613h-1.675v-0.016c-12.019-0.152-24.034 0.016-36.055 0.016-0.366 0.012-0.599 0.298-0.583 0.613v10.532h-3.234c-9e-3 -3.435 0-6.868 4e-3 -10.32 0-2.165 1.341-3.198 3.669-3.198 12.145 0.018 24.289-0.01 36.433-0.016v0.016c0.527 0 1.052 4e-3 1.583 0 2.329 0 3.668 1.033 3.668 3.198 9e-3 3.978 0.013 7.939 0 11.909 0 2.165-1.344 3.171-3.671 3.194-1.554 0.011-7.062 7e-3 -8.622 7e-3v-2.375h8.483c0.365-0.015 0.596-0.301 0.58-0.609zm-6.036 8.274c-0.892 0-1.285-0.348-1.454-0.561-0.104-0.165-0.303-0.546-0.303-1.576 0-0.965 0.185-1.361 0.303-1.541 0.077-0.105 0.457-0.605 1.454-0.605 0.877 0 1.27 0.377 1.423 0.605 0.271 0.361 0.333 0.907 0.333 1.541 0 0.927-0.152 1.335-0.319 1.576-0.167 0.213-0.544 0.561-1.437 0.561m0-6.644c-1.393 0-2.951 0.042-3.919 0.909-1.09 0.968-1.163 2.706-1.163 3.598 0 0.88 0.073 2.621 1.163 3.602 0.968 0.846 2.526 0.896 3.919 0.896s2.947-0.05 3.919-0.896c1.089-0.981 1.165-2.722 1.165-3.602 0-0.892-0.076-2.63-1.165-3.598-0.972-0.867-2.526-0.909-3.919-0.909m-8.973 5.809v3.089h3.256v-8.793h-3.256v3.361h-2.888v-3.361h-3.238v8.793h3.238v-3.089zm-13.599-5.036c-0.319-0.411-0.589-0.591-0.892-0.698-0.53-0.104-0.968-0.117-1.503 0-0.435 0.122-0.861 0.376-1.024 0.968v7.855h3.174l-0.168-4.556c0-0.151 0.016-0.255 0.152-0.255 0.122 0 0.229 0.166 0.29 0.255l3.193 3.995c0.258 0.334 0.531 0.668 1.527 0.668 1.862 0 1.894-1.319 1.894-1.759v-7.141h-3.258l0.169 4.568c0 0.123 0 0.261-0.139 0.261-0.09 0-0.18-0.138-0.301-0.261zm-3.726 8.125-2.599-3.342c-0.152-0.2-0.275-0.368-0.348-0.503-0.091-0.162-0.138-0.301-0.138-0.423 0-0.137 0.06-0.27 0.138-0.411 0.068-0.123 0.157-0.23 0.242-0.346l3.012-3.676v-0.092h-3.572l-2.572 3.54c-0.199 0.274-0.438 0.623-0.438 0.968 0 0.321 0.195 0.683 0.529 1.166l2.163 3.119z" fill="#fff"/>
    </g>
    <g transform="translate(320.93 423.53)">
     <path d="m0 0v-1.166c0-0.171-3e-3 -0.306-0.012-0.419-8e-3 -0.11-0.028-0.195-0.054-0.256l-0.099-0.137-0.167-0.036-0.116 6e-3 -0.121 0.013v-0.714l0.189-0.042 0.2-0.014c0.072-5e-3 0.161-5e-3 0.26-5e-3 0.188 0 0.353 0.024 0.496 0.076 0.141 0.048 0.261 0.119 0.35 0.223l0.149 0.2c0.046 0.078 0.083 0.166 0.11 0.257 0.028 0.102 0.039 0.205 0.042 0.319v0.842h0.843v-1.866h1.215v2.719z" fill="#fff"/>
    </g>
    <g transform="translate(326.65 422.64)">
     <path d="m0 0h-0.497v0.886h-1.214v-2.719h1.214v0.971h0.471c0.053-0.228 0.163-0.418 0.323-0.576 0.162-0.159 0.373-0.279 0.634-0.361 0.26-0.085 0.563-0.129 0.917-0.129 0.413 0 0.759 0.061 1.045 0.174 0.284 0.116 0.5 0.282 0.646 0.501 0.144 0.214 0.218 0.474 0.22 0.781-2e-3 0.303-0.076 0.561-0.22 0.78-0.146 0.218-0.362 0.382-0.646 0.495-0.286 0.12-0.632 0.176-1.045 0.176-0.34 0-0.632-0.041-0.882-0.114-0.252-0.078-0.457-0.19-0.62-0.334-0.162-0.145-0.277-0.323-0.346-0.531m1.211-0.472c2e-3 0.125 0.028 0.233 0.077 0.326 0.052 0.091 0.129 0.161 0.22 0.212 0.092 0.051 0.205 0.075 0.333 0.075 0.127 0 0.238-0.024 0.33-0.075 0.096-0.051 0.165-0.121 0.217-0.212 0.051-0.093 0.077-0.201 0.077-0.326 0-0.13-0.026-0.237-0.077-0.332-0.052-0.091-0.121-0.163-0.217-0.204-0.092-0.052-0.203-0.082-0.33-0.082-0.128 0-0.241 0.03-0.333 0.082-0.091 0.041-0.168 0.113-0.22 0.204-0.049 0.095-0.075 0.202-0.077 0.332" fill="#fff"/>
    </g>
    <g transform="translate(331.75 422.72)">
     <path d="m0 0c4e-3 0.1 0.022 0.188 0.055 0.267l0.114 0.194 0.168 0.149 0.171 0.068c0.077 0.025 0.167 0.043 0.27 0.067 0.101 0.026 0.211 0.046 0.325 0.065 0.117 0.021 0.23 0.046 0.347 0.067 0.113 0.022 0.224 0.04 0.327 0.061 0.102 0.025 0.194 0.041 0.275 0.066l0.183 0.061c0.114 0.062 0.211 0.146 0.286 0.248 0.076 0.107 0.129 0.233 0.162 0.382h-1.287l-0.108-0.097-0.16-0.062c-0.066-0.018-0.145-0.034-0.237-0.052-0.096-0.015-0.203-0.037-0.334-0.055-0.126-0.021-0.239-0.049-0.339-0.079-0.099-0.032-0.194-0.071-0.276-0.112l-0.241-0.136-0.181-0.145-0.194-0.212c-0.079-0.079-0.145-0.182-0.202-0.298-0.056-0.118-0.1-0.251-0.13-0.394-0.033-0.151-0.049-0.303-0.049-0.47 0-0.231 0.042-0.442 0.129-0.636 0.087-0.193 0.21-0.359 0.372-0.505 0.166-0.14 0.365-0.254 0.605-0.33 0.235-0.077 0.506-0.119 0.813-0.119 0.277 0 0.527 0.027 0.749 0.081 0.226 0.052 0.429 0.139 0.604 0.25 0.189 0.113 0.33 0.251 0.424 0.407 0.092 0.164 0.139 0.334 0.139 0.534 0 0.223-0.04 0.414-0.121 0.566-0.081 0.156-0.196 0.279-0.34 0.375-0.148 0.092-0.317 0.16-0.514 0.202-0.198 0.039-0.412 0.062-0.649 0.062-0.114 0-0.231-0.013-0.346-0.035-0.118-0.021-0.227-0.051-0.331-0.092-0.105-0.039-0.201-0.089-0.282-0.147zm0.843-1.315c-0.115 0-0.219 0.027-0.313 0.075-0.091 0.048-0.164 0.105-0.218 0.187-0.055 0.074-0.079 0.161-0.084 0.253 0 0.119 0.025 0.218 0.074 0.304 0.048 0.086 0.12 0.147 0.214 0.189 0.089 0.043 0.2 0.071 0.327 0.071 0.15 0 0.271-0.028 0.367-0.071 0.098-0.045 0.165-0.11 0.211-0.192 0.045-0.085 0.069-0.186 0.069-0.301-1e-3 -0.108-0.031-0.197-0.079-0.272-0.055-0.074-0.13-0.135-0.225-0.179-0.098-0.039-0.212-0.064-0.343-0.064" fill="#fff"/>
    </g>
   </g>
  </g>
  <g transform="matrix(4.1484 0 0 -4.1484 46.233 75.417)">
   <path d="m0 0h1.388l1.088 1.581-0.053-0.744v-0.837h1.216v2.719h-1.401l-1.061-1.488 0.042 0.651v0.837h-1.219z" fill="#fff"/>
  </g>
  <g transform="matrix(4.1484 0 0 -4.1484 63.558 64.138)">
   <path d="m0 0v-2.719h1.213v1.021l-0.153 1.07 0.724-2.091h0.689l0.728 2.091-0.157-1.07v-1.021h1.215v2.719h-1.617l-0.512-1.409-0.514 1.409z" fill="#fff"/>
  </g>
 </g>
</svg>
