<svg width="460.75pt" height="229.02pt" version="1.1" viewBox="0 0 460.75 229.02" xmlns="http://www.w3.org/2000/svg">
 <g transform="translate(-29.64,-49.605)" fill="#fff">
  <path d="m29.64 49.605h61.62v118.96l50.24 0.02v52.145h-111.86z"/>
  <path d="m145.46 131v-81.395h61.305v105.46c0.39 4.96 0.75 10.8 5.03 14.1 3.97 2.91 9.44 2.83 13.98 1.55 5.43-1.54 6.95-7.87 6.87-12.82v-108.28h130.37l23.645 36.275 24.455-36.275h71.03l-58.14 80.945 65.38 90.175h-71.539l-31.186-46.805-30.975 46.805h-70.89l65.96-90.175-56.54-76.96v86.41c0.22 7.27-0.54 14.5-0.59 21.76-0.54 15.76-6.82 31.54-18.59 42.26-14.23 13.85-34.5 19.73-54 19.65-18.31-0.03-37.44-4.13-52.13-15.6-7.04-6.32-13.67-13.47-17.53-22.23-3.89-7.39-4.83-15.83-5.62-24.01-0.51-10.27-0.235-20.56-0.295-30.83z"/>
 </g>
 <path d="m301.66 178.78h6.935v50.135h-6.935z" fill="#fd4f02"/>
 <path d="m358.19 205.14c2.69-8.57 12.02-13.17 20.61-12.24l0.08 7.03c-3.76 0-8.07 0.21-10.95 3.08-3.9717 4.3642-3.3498 8.7872-3.3498 14.535v11.295h-7.4506l-0.03962-4.4202c0.0157-10.136-0.2189-14.428 1.1-19.28z" fill="#fd4f02"/>
 <path d="m174.66 210.38c-0.19-8.63 7.11-16.51 15.64-17.28 6.19-0.86 12.09 2.06 16.32 6.4 4.02-3.08 8.35-6.55 13.7-6.51 9.53-0.71 19.03 7.6 18.71 17.33l-0.03 18.575h-7.07l-0.07-18.555c0.01-6.4-7.03-11.66-13.19-9.81-4.51 0.93-8.25 5.12-8.05 9.82l-0.0104 18.545h-7.4336v-15.841c0-1.7439-0.19721-3.485-0.39593-5.2238-1.72-6.6-10.39-9.76-16.06-6.05-2.47 1.81-4.72 4.49-4.86 7.68l-0.25 19.435h-6.87z" fill="#fd4f02"/>
 <path d="m332.95 193.1a18.01 17.96 0 0 0-18.01 17.96 18.01 17.96 0 0 0 18.01 17.96 18.01 17.96 0 0 0 18.01-17.96 18.01 17.96 0 0 0-18.01-17.96zm0.0146 7.4399a10.928 10.71 0 0 1 10.928 10.709 10.928 10.71 0 0 1-10.928 10.709 10.928 10.71 0 0 1-10.928-10.709 10.928 10.71 0 0 1 10.928-10.709z" fill="#fd4f02" style="paint-order:normal"/>
 <path d="m385.51 215.08c-2.9-10.11 5.35-21.46 15.82-22.04 6.55-0.75 12.48 2.89 16.76 7.53l-4.69 4.95c-3.02-2.32-6.08-5.16-10.08-5.42-4.61-0.03-9.33 2.97-10.63 7.52-2.62 6.74 3.64 14.52 10.69 14.18 3.95-0.28 6.99-3.16 9.98-5.46l4.85 5.02c-3.33 3.34-7.18 6.53-12.01 7.24-9.02 1.94-18.87-4.46-20.69-13.52z" fill="#fd4f02"/>
 <path d="m426.7 202.7c3.1-5.62 9.13-9.73 15.66-9.74 8.8-0.35 18.39 6.8978 18.39 15.48v20.4l-17.42-2.5e-4c-6.24 0.21-12.76-2.87-15.86-8.42-3.24-5.25-3.72-12.23-0.77-17.72m7.14 2.14c-4.21 5.29-1.23 13.82 4.94 16.08 2.1276 0.74816 4.5124 1.0015 6.9306 1.0015h8.0567v-9.8361c0-3.4605-1.2356-6.7311-3.8372-9.2155-4.65-4.3-12.63-3.32-16.09 1.97z" fill="#fd4f02"/>
 <path d="m287.68 178.77h6.935v50.135h-6.935z" fill="#fd4f02"/>
 <path d="m247.59 202.7c3.1-5.62 9.13-9.73 15.66-9.74 8.8-0.35 18.39 6.8978 18.39 15.48v20.4h-17.42c-6.24 0.21-12.76-2.87-15.86-8.42-3.24-5.25-3.72-12.23-0.77-17.72m7.14 2.14c-4.21 5.29-1.23 13.82 4.94 16.08 2.1276 0.74816 4.5124 1.0015 6.9306 1.0015h8.0567v-9.8361c0-3.4605-1.2356-6.7311-3.8372-9.2155-4.65-4.3-12.63-3.32-16.09 1.97z" fill="#fd4f02"/>
</svg>
