<svg width="200mm" height="75.95mm" version="1.1" viewBox="0 0 200 75.95" xmlns="http://www.w3.org/2000/svg">
 <path d="m74.124 75.516c-0.076421-0.076384-0.13897-2.5137-0.13897-5.4164v-5.2773l-22.095-0.10783-1.5277-3.5427c-0.84026-1.9484-1.8744-4.2277-2.298-5.0653l-0.7703-1.5226 0.67649-1.1864c7.1625-12.562 17.14-22.614 28.828-29.046 2.6837-1.4767 5.6685-2.8712 5.8204-2.7193 0.0652 0.06523 0.11444 2.5177 0.10934 5.45l-0.0094 5.3314-2.7519 1.8069c-6.6727 4.3812-12.893 10.32-17.992 17.176-0.95928 1.2899-1.7441 2.4476-1.7441 2.5728 0 0.16082 2.0287 0.21131 6.929 0.17253l6.929-0.05495 0.05854-2.5528 0.05851-2.5528h10.407v5.2097h4.1677v10.628h-4.1677v10.836h-5.1749c-2.8463 0-5.2376-0.06251-5.314-0.13897z" fill="#ffd000" stroke-width="3.7795"/>
 <g fill="#fff" stroke-width="3.7795">
  <path d="m0.057341 37.887 0.052686-37.773 7.387-0.054878 7.3874-0.054765 1.7819 1.0841c4.4685 2.7186 9.3955 6.2687 13.257 9.5516 3.9995 3.401 9.044 8.7484 11.677 12.378l0.43699 0.60234 3.9394-3.9586c4.3374-4.3589 7.0386-6.61 11.441-9.5349 4.8151-3.1992 9.4597-5.5891 14.275-7.3458 4.7304-1.7258 10.519-3.0696 10.865-2.5227 0.21332 0.33634 0.23195 11.233 0.01965 11.534-0.08421 0.11913-0.76263 0.48317-1.5077 0.809-2.7896 1.22-7.4932 3.6985-10.298 5.4266-6.04 3.7211-11.127 7.7782-16.597 13.236-3.9651 3.9568-6.6912 7.1319-9.9102 11.542-1.133 1.5522-2.1538 2.8239-2.2685 2.8259-0.11467 0.0042-0.82945-0.95482-1.5885-2.1262-5.6677-8.7473-15.35-18.954-23.44-24.708l-1.8544-1.319-0.10416 29.036-0.10424 29.037-14.901 0.10942z"/>
  <path d="m97.202 55.201v-5.3287h3.7251l0.9572 2.6644c0.52649 1.4655 1.0277 2.9042 1.1139 3.1973s0.22949 0.53261 0.31838 0.53227c0.0889-3.22e-4 0.46919-0.8796 0.84506-1.9539s0.88977-2.5128 1.142-3.1967l0.45861-1.2434h3.7644l-0.0637 5.2698-0.0638 5.2698-2.4747 0.14279-0.13062-7.4849-2.5344 7.4853-1.9286-0.14332-2.4865-7.3421-0.03704 7.4604h-2.6053z"/>
  <path d="m114.45 60.424c-2.2111-0.8491-3.5069-2.7402-3.5069-5.1178 0-2.5058 0.96699-4.1888 2.9328-5.1042 2.3127-1.0769 5.2225-0.67177 6.9248 0.96404 2.594 2.4927 2.0257 7.1485-1.0822 8.8667-1.2793 0.70718-3.9326 0.90428-5.2682 0.39133zm4.2194-2.6262c2.064-1.5743 1.3953-5.0781-1.1125-5.8295-2.9663-0.88871-5.125 2.2727-3.5552 5.2063 0.69996 1.3079 3.3127 1.6568 4.6677 0.62332z"/>
  <path d="m125.72 60.708c-0.12828-0.01209-0.2948-0.04879-0.37005-0.0813-0.0752-0.0325-0.21536-0.07362-0.31136-0.09143-0.096-0.01776-0.19597-0.05095-0.22204-0.07366-0.0261-0.02268-0.0989-0.05053-0.16173-0.0618-0.10719-0.01928-0.45335-0.18508-0.55184-0.26441-0.0246-0.01965-0.091-0.05888-0.14805-0.08708-0.13485-0.06678-0.3044-0.19068-0.33448-0.24438-0.0129-0.02343-0.0418-0.04241-0.0639-0.04241-0.034 0-0.12148-0.06236-0.33438-0.23822-0.0404-0.03326-0.052-0.29469-0.0129-0.29469 0.0291 0 0.0566-0.02721 0.44965-0.4461 0.17098-0.18221 0.37746-0.40165 0.45887-0.48767 0.0814-0.08598 0.168-0.18935 0.19245-0.22964 0.0246-0.04033 0.1285-0.16278 0.23127-0.27216 0.15141-0.16108 0.20798-0.20167 0.29797-0.21373 0.0952-0.01285 0.11823-0.0042 0.16109 0.06138 0.12351 0.18852 0.43804 0.43336 0.73069 0.56889 0.0569 0.02646 0.12491 0.0669 0.15099 0.09003 0.0261 0.02305 0.15031 0.06172 0.27617 0.08579 0.12582 0.02419 0.25734 0.0638 0.29227 0.08825 0.0479 0.03364 0.15095 0.04449 0.41956 0.0446 0.30153 1.21e-4 0.38781-0.01096 0.56329-0.07219 0.11399-0.03976 0.2572-0.08039 0.31828-0.09029 0.0611-0.0098 0.11104-0.03024 0.11104-0.04547 0-0.01512 0.0432-0.04947 0.0962-0.07631 0.14664-0.07434 0.37258-0.32273 0.42164-0.46352 0.053-0.15205 0.0568-0.37927 0.01-0.58242-0.0283-0.12261-0.0693-0.1858-0.22238-0.34273-0.10326-0.10583-0.20546-0.19238-0.22719-0.19238-0.0215 0-0.0636-0.02683-0.0931-0.05934-0.0295-0.0325-0.10805-0.07397-0.17453-0.09188-0.0665-0.01776-0.15606-0.05764-0.19911-0.08829-0.043-0.03061-0.14555-0.07015-0.22775-0.0878-0.0823-0.01776-0.16471-0.05038-0.18334-0.07279-0.0185-0.0223-0.10938-0.05601-0.20175-0.07468-0.0924-0.01852-0.20946-0.05786-0.26022-0.08712-0.0507-0.0291-0.164-0.06259-0.25164-0.074-0.0876-0.01134-0.22598-0.05129-0.30739-0.08848-0.0814-0.03742-0.21021-0.07665-0.28622-0.08757-0.076-0.01096-0.15435-0.03935-0.17408-0.06312-0.0197-0.02381-0.11078-0.06467-0.20224-0.09082-0.0915-0.02608-0.18637-0.06437-0.21079-0.08485-0.0246-0.02041-0.10435-0.06625-0.17763-0.10163-0.21759-0.10507-0.33861-0.17684-0.37005-0.21944-0.0163-0.02192-0.0696-0.06089-0.11842-0.08629-0.12532-0.0652-0.51518-0.45906-0.53582-0.54134-0.01-0.03779-0.0352-0.07551-0.0574-0.08398-0.0219-0.0083-0.063-0.05941-0.0907-0.11316-0.028-0.05374-0.0684-0.11104-0.0901-0.12733-0.0219-0.01625-0.0549-0.10953-0.0738-0.20723-0.0185-0.0977-0.0501-0.19763-0.0698-0.22205-0.072-0.08976-0.0797-0.17628-0.0761-0.84374 4e-3 -0.67298 0.014-0.77495 0.10227-1.0066 0.025-0.06512 0.0457-0.14581 0.0464-0.17926 6.5e-4 -0.03364 0.0348-0.10602 0.0753-0.1612 0.0407-0.05518 0.074-0.13104 0.074-0.16857 0-0.03742 0.0298-0.09808 0.0667-0.13451 0.0367-0.03628 0.088-0.11304 0.11411-0.17023 0.0432-0.09471 0.22544-0.30878 0.4476-0.5258 0.0208-0.02041 0.0845-0.08368 0.14143-0.14075 0.12658-0.12676 0.27674-0.23524 0.41401-0.29903 0.0566-0.02646 0.12075-0.07309 0.1423-0.10386 0.0215-0.03061 0.0558-0.0559 0.0761-0.0559 0.0204 0 0.0808-0.0325 0.13443-0.07189 0.0535-0.03953 0.15277-0.08092 0.22039-0.09195 0.0677-0.01096 0.16546-0.04588 0.21747-0.07748 0.052-0.03175 0.17854-0.07079 0.28123-0.08712 0.10269-0.01625 0.24004-0.05526 0.30523-0.08655 0.0921-0.04418 0.24076-0.06486 0.6661-0.09267 0.74199-0.04845 1.5339-0.0034 1.8765 0.10688 0.12846 0.04131 0.2765 0.07514 0.32904 0.07514 0.0525 0 0.12733 0.02495 0.16618 0.0556 0.0388 0.03061 0.14646 0.07132 0.23906 0.09056 0.0926 0.01928 0.19914 0.05889 0.23678 0.08814 0.0378 0.0291 0.11675 0.06894 0.17586 0.08821 0.0591 0.01928 0.13111 0.06115 0.16003 0.09313 0.0291 0.03213 0.0687 0.05809 0.0883 0.05809 0.0344 0 0.0976 0.04433 0.40656 0.28501 0.1387 0.10806 0.18379 0.2177 0.10862 0.26415-0.0178 0.01096-0.057 0.06108-0.0878 0.11157-0.0606 0.09955-0.41438 0.49126-0.68688 0.76044-0.0935 0.09249-0.17023 0.1796-0.17023 0.19359 0 0.01398-0.11324 0.13519-0.25164 0.26929-0.13841 0.1341-0.25164 0.25655-0.25164 0.27209 0 0.08976-0.26169 0.04883-0.33298-0.05208-0.0204-0.02872-0.0804-0.07483-0.1333-0.10212-0.0529-0.02721-0.0962-0.0613-0.0962-0.07563 0-0.01436-0.0622-0.04724-0.13814-0.07313-0.076-0.02608-0.15998-0.06678-0.18659-0.0909-0.0268-0.02419-0.13587-0.0562-0.2428-0.07136-0.10688-0.01512-0.23943-0.05136-0.2945-0.08047-0.1421-0.07514-0.66016-0.07876-0.7723-0.0053-0.0427 0.02797-0.16875 0.06539-0.28002 0.08315-0.1228 0.01965-0.22617 0.05473-0.26302 0.08931-0.0333 0.03137-0.10424 0.06573-0.15749 0.07638-0.0532 0.01058-0.11705 0.0503-0.14184 0.08814-0.025 0.0378-0.0706 0.07684-0.10163 0.0867-0.031 0.0098-0.0566 0.03515-0.0566 0.05597 0 0.02079-0.0355 0.10326-0.079 0.18304-0.0992 0.18191-0.11656 0.53185-0.031 0.62622 0.028 0.03099 0.0509 0.07359 0.0509 0.09464 0 0.04566 0.38037 0.4159 0.42731 0.4159 0.0178 0 0.0799 0.03213 0.13773 0.07143 0.0578 0.03927 0.16278 0.08697 0.23323 0.1059 0.0705 0.0189 0.16282 0.05885 0.20523 0.08855 0.0424 0.02986 0.15023 0.06289 0.23958 0.07366 0.0894 0.01096 0.20262 0.04422 0.25164 0.07427 0.0491 0.03024 0.15575 0.06376 0.23716 0.07495 0.0814 0.01096 0.20066 0.04679 0.26495 0.07922 0.0643 0.0325 0.19751 0.07185 0.29604 0.08761 0.0985 0.01587 0.22205 0.0539 0.27451 0.0847 0.0524 0.03099 0.1457 0.06463 0.20723 0.0751 0.0615 0.01058 0.14521 0.04237 0.18588 0.07083 0.0407 0.02835 0.12729 0.06913 0.19245 0.09037 0.0651 0.02116 0.15605 0.06996 0.20209 0.10828 0.046 0.03832 0.10031 0.06973 0.12064 0.06973 0.0204 0 0.0683 0.03326 0.10651 0.074 0.0383 0.04071 0.0838 0.07419 0.10136 0.07438 0.0394 4.87e-4 0.2835 0.22439 0.2835 0.26014 0 0.01436 0.0333 0.0412 0.074 0.05975 0.0407 0.01852 0.074 0.05246 0.074 0.07536 0 0.02305 0.0321 0.06282 0.0717 0.08867 0.0395 0.0257 0.0803 0.074 0.0908 0.10704 0.0106 0.03288 0.0382 0.05998 0.0615 0.05998 0.0234 0 0.0424 0.01134 0.0424 0.02532s0.0355 0.07729 0.0787 0.14064c0.0432 0.06334 0.0967 0.17476 0.11901 0.24767 0.0223 0.07287 0.0681 0.19 0.10216 0.26026 0.0547 0.11308 0.0636 0.19812 0.0768 0.74082 0.017 0.69856-0.017 1.0978-0.10832 1.2679-0.0336 0.0627-0.0612 0.14895-0.0612 0.1917s-0.0318 0.12476-0.071 0.18228c-0.039 0.05752-0.0804 0.14732-0.0918 0.19956-0.0113 0.05227-0.0432 0.11735-0.0706 0.14464-0.0272 0.02721-0.0759 0.09086-0.10798 0.14128-0.1499 0.23535-0.22428 0.33214-0.36355 0.47312-0.15734 0.15923-0.49179 0.42534-0.53457 0.42534-0.0136 0-0.0603 0.03288-0.10371 0.07298-0.0433 0.04014-0.13187 0.08727-0.19676 0.10477-0.0649 0.01739-0.118 0.04297-0.118 0.05665 0 0.02797-0.11841 0.07933-0.25164 0.10904-0.0489 0.01096-0.10945 0.0378-0.1347 0.05945-0.0253 0.02192-0.13179 0.05896-0.23686 0.08262-0.10503 0.02381-0.25002 0.06474-0.3222 0.09131-0.0721 0.02646-0.26536 0.06043-0.42928 0.07525-0.34923 0.03137-1.6153 0.03061-1.9523-0.0017z"/>
  <path d="m134.71 60.485c-0.0348-0.02457-0.0774-0.08776-0.0941-0.14064-0.0204-0.06455-0.0299-1.4235-0.0276-4.137 2e-3 -2.2226-7e-3 -4.0743-0.02-4.1151-0.0128-0.04082-0.0381-0.08379-0.0562-0.09577-0.0182-0.01209-0.66043-0.02192-1.4273-0.0223-1.3128-4.88e-4 -1.3971-0.0036-1.4432-0.05461-0.0434-0.048-0.049-0.16142-0.049-0.99998 0-0.80813 7e-3 -0.95542 0.0461-1.0116l0.0461-0.0658h4.0943c4.1971 0 4.2179 4.88e-4 4.3472 0.1124 0.0464 0.04018 0.0518 0.03987 0.0518-0.0031 0-0.02646 0.0246-0.06111 0.0546-0.07722 0.0499-0.02683 2.5424-0.05359 2.5625-0.02759 0.0943 0.12178 0.22219 0.36113 0.23674 0.44326 0.0106 0.059 0.044 0.13606 0.0746 0.17132 0.0306 0.03515 0.07 0.14547 0.0874 0.24491s0.0514 0.20239 0.0753 0.22881c0.0242 0.02646 0.0575 0.11032 0.0746 0.18648 0.017 0.07616 0.0644 0.18769 0.10529 0.2479 0.0414 0.06089 0.0743 0.15182 0.0743 0.20492 0 0.05253 0.0268 0.12971 0.0598 0.17151 0.0329 0.04184 0.0751 0.15352 0.0936 0.24824s0.0574 0.203 0.0864 0.2406c0.0291 0.0378 0.0675 0.13984 0.0856 0.22715s0.051 0.17374 0.0732 0.19211c0.0219 0.01852 0.0565 0.10261 0.0767 0.18731 0.02 0.08466 0.0601 0.18433 0.089 0.22144 0.0287 0.03704 0.0616 0.1237 0.0728 0.19241 0.0113 0.06871 0.0476 0.1697 0.0809 0.22443s0.0714 0.15794 0.0848 0.22942c0.0132 0.07147 0.0509 0.1666 0.0833 0.21139 0.0325 0.04479 0.0732 0.14555 0.0902 0.22394 0.0174 0.07839 0.0527 0.17537 0.079 0.21551 0.0265 0.04018 0.0595 0.13591 0.0738 0.21275 0.0144 0.07684 0.0502 0.17302 0.0802 0.21373 0.0299 0.04071 0.0642 0.12688 0.0763 0.19154 0.0121 0.06463 0.0527 0.17121 0.0901 0.23682s0.0774 0.17189 0.0887 0.23618c0.0113 0.06425 0.045 0.14793 0.0748 0.18591s0.0636 0.12529 0.0748 0.194c0.0113 0.06871 0.0476 0.1697 0.0809 0.22443s0.0716 0.15832 0.0849 0.23021c0.0219 0.11637 0.13999 0.27303 0.20851 0.27628 0.011 4.87e-4 0.0348-0.06803 0.0526-0.15231 0.0182-0.08428 0.058-0.19419 0.0888-0.24423 0.0306-0.05008 0.065-0.1443 0.076-0.20942s0.0452-0.15417 0.0759-0.19786c0.0306-0.04369 0.0699-0.14211 0.0871-0.21868 0.017-0.07657 0.0573-0.1725 0.0894-0.2132 0.0321-0.04067 0.0581-0.10348 0.0581-0.13958 0-0.08572 0.0584-0.25205 0.0885-0.25205 0.031 0 0.0576-0.07208 0.0908-0.24654 0.0147-0.07861 0.0533-0.17616 0.0853-0.21672 0.0318-0.04059 0.067-0.13296 0.0778-0.20526 0.011-0.07234 0.0443-0.16282 0.0745-0.20111s0.0691-0.13319 0.0864-0.21093c0.0174-0.07771 0.0563-0.17265 0.0864-0.21093 0.0302-0.03829 0.0642-0.13262 0.0757-0.20961 0.0121-0.07982 0.0516-0.17639 0.0922-0.22465 0.0392-0.04656 0.0713-0.12026 0.0715-0.1638 1.4e-4 -0.04354 0.0329-0.1491 0.0727-0.23463s0.0812-0.2022 0.0919-0.25931c0.0106-0.05711 0.0428-0.13368 0.0716-0.17015 0.0287-0.03666 0.0616-0.11297 0.0735-0.16996 0.0117-0.05699 0.047-0.148 0.0783-0.2022 0.031-0.05424 0.0704-0.16082 0.0869-0.23682 0.0166-0.07604 0.0546-0.172 0.0846-0.21328 0.0299-0.04127 0.0696-0.14596 0.0882-0.23267 0.0185-0.0867 0.0587-0.18932 0.0892-0.22806 0.0306-0.03878 0.0643-0.12964 0.0751-0.20194 0.011-0.0723 0.0435-0.1624 0.0728-0.20016 0.0291-0.0378 0.0695-0.13531 0.0896-0.21672 0.02-0.08141 0.0562-0.16978 0.0802-0.19634 0.0242-0.02646 0.0596-0.11252 0.0792-0.19094 0.063-0.25258 0.0359-0.24771 1.3694-0.24922 0.63417-6.5e-4 1.1691-9.75e-4 1.1888-6.5e-4s0.0517 0.05367 0.0712 0.11841c0.0325 0.10821 0.0291 0.1268-0.0404 0.22945-0.0417 0.06142-0.0853 0.15832-0.0969 0.21532-0.0117 0.05699-0.0449 0.13704-0.0738 0.1779-0.0287 0.04086-0.0679 0.1313-0.0866 0.20099-0.0189 0.06969-0.0668 0.18814-0.10669 0.26317-0.0399 0.07506-0.0726 0.15779-0.0727 0.18387-8e-5 0.02608-0.0329 0.10069-0.0731 0.16581-0.0401 0.06512-0.0734 0.15402-0.0739 0.19756-4.8e-4 0.04354-0.0321 0.11679-0.0705 0.16282-0.0382 0.04603-0.0779 0.13655-0.088 0.20111-0.0102 0.06459-0.0437 0.15152-0.0746 0.19317-0.031 0.04165-0.0777 0.15027-0.10416 0.24136-0.0265 0.09109-0.067 0.18115-0.0897 0.20016-0.0231 0.0189-0.0508 0.08402-0.062 0.14449-0.0113 0.06047-0.0444 0.14993-0.0738 0.19876-0.0295 0.04883-0.0747 0.16369-0.10084 0.25515-0.0261 0.0915-0.0666 0.18217-0.0898 0.20152-0.0234 0.01928-0.0512 0.08731-0.0619 0.15103-0.0106 0.06372-0.0425 0.14623-0.0708 0.18334-0.028 0.03704-0.0682 0.12646-0.0892 0.19858-0.0208 0.07211-0.0565 0.1595-0.0793 0.19423-0.0231 0.03477-0.0606 0.12688-0.084 0.20477-0.0234 0.0779-0.0622 0.16369-0.086 0.19064-0.0238 0.02683-0.0588 0.12457-0.0777 0.21698-0.0189 0.09237-0.0534 0.18391-0.077 0.20338-0.0234 0.01965-0.061 0.09755-0.0837 0.17348s-0.0692 0.19071-0.10371 0.25504c-0.0344 0.06437-0.0627 0.14717-0.0627 0.18406 0 0.03704-0.0261 0.09298-0.0576 0.12469-0.0317 0.03175-0.0731 0.11486-0.0919 0.18478-0.0189 0.06992-0.0583 0.16097-0.0878 0.20239s-0.0634 0.12812-0.0751 0.19272c-0.0117 0.06459-0.0597 0.18924-0.10617 0.277-0.0465 0.0878-0.0846 0.17945-0.0846 0.20375 0 0.02419-0.0253 0.08568-0.0564 0.13644-0.031 0.05076-0.071 0.14683-0.0887 0.21347-0.0178 0.06663-0.0571 0.15001-0.0878 0.18523-0.0306 0.03515-0.0638 0.11528-0.0738 0.17783-0.01 0.06259-0.0439 0.14646-0.0753 0.1864s-0.0664 0.12521-0.0776 0.1895c-0.0113 0.06425-0.0511 0.16346-0.0885 0.22046s-0.0769 0.15904-0.0878 0.22681c-0.0106 0.06777-0.0444 0.14555-0.0746 0.17287-0.0302 0.02721-0.0638 0.10511-0.0747 0.17287-0.0106 0.06777-0.0508 0.16981-0.0889 0.22681-0.0382 0.057-0.0782 0.15311-0.0892 0.21358s-0.0384 0.12537-0.0611 0.14419c-0.0227 0.0189-0.0597 0.0963-0.0822 0.17223-0.0227 0.07593-0.0692 0.19071-0.10371 0.25504-0.0344 0.06437-0.0628 0.13856-0.0628 0.16486 0 0.02646-0.0333 0.11044-0.074 0.18693-0.0407 0.0765-0.0886 0.19729-0.10651 0.26842-0.0178 0.07113-0.0657 0.1604-0.10609 0.19839l-0.0735 0.06905h-0.92564c-0.70865 0-0.93633-0.0091-0.97129-0.03787-0.0249-0.02079-0.0611-0.09963-0.0802-0.17503-0.0193-0.07544-0.0594-0.16868-0.0897-0.20723-0.0302-0.03855-0.0646-0.12631-0.0761-0.19502-0.0113-0.06871-0.0456-0.15628-0.0756-0.19457-0.0302-0.03829-0.0634-0.11822-0.0739-0.17764-0.0106-0.05941-0.0455-0.15163-0.0777-0.20496-0.0321-0.05333-0.0763-0.1646-0.0981-0.24722-0.0219-0.08266-0.0594-0.17223-0.0834-0.1991-0.0242-0.02683-0.053-0.10212-0.0644-0.16724-0.0113-0.06512-0.0514-0.16505-0.0893-0.22205-0.0378-0.057-0.0782-0.15545-0.0897-0.2188-0.0113-0.06334-0.0523-0.16993-0.0905-0.23682-0.0383-0.06694-0.0698-0.14525-0.07-0.17405-1.7e-4 -0.02872-0.0403-0.12726-0.0892-0.2188s-0.0888-0.19623-0.0888-0.23267c0-0.03628-0.02-0.08277-0.0443-0.10299-0.0246-0.02041-0.0634-0.10065-0.0864-0.1787-0.0234-0.07805-0.0625-0.17306-0.0872-0.21108-0.0249-0.03802-0.0597-0.13425-0.0774-0.21384-0.0178-0.07956-0.0581-0.17752-0.0896-0.21762-0.0317-0.04014-0.0663-0.12159-0.077-0.181-0.0106-0.05941-0.0498-0.16131-0.0867-0.22643-0.037-0.06512-0.0765-0.16505-0.088-0.22205-0.0113-0.057-0.0461-0.14517-0.0769-0.19593-0.031-0.05076-0.056-0.11093-0.056-0.13368 0-0.02268-0.0385-0.1211-0.0856-0.21853-0.047-0.09747-0.0951-0.22212-0.10677-0.27708-0.0117-0.05492-0.0454-0.1415-0.075-0.19241-0.0295-0.05091-0.0693-0.1525-0.0884-0.22579-0.0193-0.07329-0.0523-0.15322-0.0737-0.17764-0.0215-0.02457-0.0541-0.10156-0.0728-0.1714-0.0185-0.06985-0.0665-0.18841-0.10636-0.26347-0.0399-0.07506-0.0726-0.15779-0.0727-0.18387-6e-5 -0.02608-0.0265-0.09071-0.0589-0.14366-0.0321-0.05291-0.0744-0.1595-0.0935-0.23682-0.0193-0.07733-0.0527-0.1683-0.0746-0.20217-0.0215-0.03402-0.0596-0.12884-0.084-0.21108-0.0246-0.08224-0.0633-0.16509-0.0861-0.18414-0.0231-0.0189-0.0582-0.1039-0.0786-0.18856-0.02-0.08466-0.0602-0.18727-0.0886-0.22798-0.0283-0.0407-0.0603-0.12438-0.0709-0.18595s-0.0501-0.15768-0.0881-0.21362-0.0784-0.15212-0.0898-0.21373c-0.0113-0.06161-0.0384-0.13202-0.06-0.15643-0.0215-0.02457-0.0549-0.10435-0.0743-0.17764-0.0193-0.07329-0.0598-0.17363-0.0899-0.22299-0.0302-0.0494-0.0695-0.15443-0.0871-0.2335-0.0178-0.07907-0.0572-0.1756-0.0879-0.21456-0.0306-0.03897-0.0644-0.12257-0.0751-0.18576-0.0106-0.06319-0.0444-0.13757-0.075-0.16528-0.0306-0.02759-0.0709-0.12355-0.0894-0.21305-0.0257-0.12314-0.0421-0.15435-0.068-0.12846-0.0242 0.02381-0.0367 0.29321-0.0421 0.89873-8e-3 0.83618-0.01 0.86622-0.0699 0.9163-0.0571 0.04777-0.17423 0.05182-1.5093 0.05182-0.79604 0-1.4505 0.0033-1.4544 0.0076-4e-3 0.0042-0.014 1.9071-0.0223 4.2289-0.0129 3.5181-0.0219 4.2296-0.0558 4.2705-0.0363 0.04392-0.15258 0.04895-1.1258 0.04895-0.91767 0-1.095-0.0068-1.1488-0.04449z"/>
  <path d="m151.69 55.235v-5.3287h2.3684v10.658h-2.3684z"/>
  <path d="m156.19 55.235v-5.3287h7.342v2.1316h-4.7368v1.8947h4.4999v2.3684h-4.4999v1.8947h4.9738v2.3684h-7.579z"/>
  <path d="m165.66 55.235v-5.3287h2.7189c1.8873 0 2.9957 0.11078 3.624 0.36219 2.2326 0.89332 2.4016 4.3899 0.26578 5.4992-0.3131 0.1626-0.54871 0.38415-0.52358 0.49232 0.025 0.10817 0.58465 1.0657 1.2434 2.1278s1.1977 1.9863 1.1977 2.0537c0 0.06739-0.63639 0.12257-1.4142 0.12257h-1.4142l-1.1318-2.1273c-0.90807-1.7067-1.2372-2.1281-1.6647-2.1316-0.51348-0.0042-0.53291 0.07336-0.53291 2.1273v2.1316h-2.3684zm5.3155-1.5922c0.45917-0.65559 0.45887-0.77064-4e-3 -1.233-0.24695-0.24692-0.80484-0.37217-1.6579-0.37217h-1.2857v2.1316h1.2892c1.0637 0 1.3537-0.09207 1.6579-0.52637z"/>
  <path d="m177.03 56.324v-4.264l-2.9605-0.14098-0.14559-2.0132h8.5534v2.1316h-2.8312l-0.12941 8.4079-2.4868 0.14317z"/>
  <path d="m183.66 55.235v-5.3287h7.3421v2.1316h-4.7368v1.8947h4.4999v2.3684h-4.4999v1.8947h4.9738v2.3684h-7.579z"/>
  <path d="m193.14 55.235v-5.3287h2.3684v8.2892h4.4999v2.3684h-6.8685z"/>
  <path d="m176.56 70.395v-5.3287l3.1974 0.01058 4.3816 7.1837v-7.2188l2.4868 0.14317 0.0637 5.2698 0.0638 5.2698h-3.2741l-4.4322-7.1149-0.13077 7.1149h-2.3561z"/>
  <path d="m97.455 70.395v-5.3287h7.1051v2.3684h-4.7368v1.8947h4.5259l-0.14437 2.25-4.3816 0.13621v4.0085h-2.3684z"/>
  <path d="m106.22 70.395v-5.3287h7.342v2.3684h-4.7368v1.6401l4.3816 0.13621 0.14438 2.25h-4.526v2.1316h4.9734v2.1316h-7.579z"/>
  <path d="m115.69 70.368v-5.3525l3.0306 0.083c2.3966 0.06561 3.1638 0.17038 3.6677 0.50075 0.97526 0.63945 1.4166 1.4823 1.393 2.6601-0.0268 1.3432-0.53362 2.3242-1.4228 2.7548l-0.69808 0.33811 2.556 4.25-1.3373 0.07208c-0.73549 0.03965-1.4511-0.0418-1.5903-0.181s-0.68318-1.0775-1.2089-2.0852c-0.70722-1.3556-1.079-1.8322-1.4295-1.8322-0.43237 0-0.47962 0.1807-0.54209 2.0723l-0.0684 2.0723h-2.3499zm5.438-1.4985c0.52996-0.99023-0.28294-1.675-1.9884-1.675h-1.0814v2.1316h1.4127c1.1526 0 1.4577-0.08406 1.657-0.45653z"/>
  <path d="m125.4 70.395v-5.3287h3.2013l4.2591 6.89 0.131-6.89h2.5926v10.658h-3.2515l-4.4458-7.2204-0.13077 7.2204h-2.3561z"/>
  <path d="m138.04 75.505c-0.53756-0.24412-1.0333-0.53484-1.1017-0.64611s0.21154-0.60185 0.62211-1.0902l0.74649-0.88788 0.99828 0.49406c1.1388 0.56364 2.2921 0.45354 2.6713-0.255 0.33483-0.62562-0.34185-1.3084-1.7577-1.7737-2.3454-0.77075-3.1062-1.5621-3.0636-3.1864 0.0299-1.1377 0.36843-1.741 1.4326-2.5526 0.77321-0.58975 1.0609-0.66092 2.6717-0.66092 1.3292 0 1.9741 0.1107 2.446 0.41994 0.79732 0.5224 0.79649 0.64202-0.0106 1.5571-0.63541 0.7206-0.67339 0.73096-1.5573 0.42361-1.0883-0.3784-1.986-0.2476-2.2977 0.33483-0.33142 0.61927-0.0655 1.0903 0.79309 1.4045 2.5678 0.93989 2.903 1.1259 3.4324 1.905 1.0249 1.5083 0.39402 3.5776-1.381 4.5297-1.0903 0.58473-3.3389 0.57713-4.6446-0.01587z"/>
  <path d="m146.24 70.395v-5.3287h7.3421v2.3684h-4.9738v0.82892c0 0.45592 0.0799 0.84574 0.17763 0.8663 0.0977 0.02041 0.97697 0.06497 1.9539 0.0988 0.97696 0.03364 1.9628 0.0703 2.1908 0.08107 0.32991 0.0155 0.41446 0.23535 0.41446 1.0768v1.0572l-4.6186 0.13561v1.8947l5.0921 0.1344v2.1155h-7.579z"/>
  <path d="m155.72 70.395v-5.3287h2.3684v4.0263h4.4999v-4.0263h2.3684v10.658h-2.3684v-4.4999h-4.4999v4.4999h-2.3684z"/>
  <path d="m167.08 70.395v-5.3287h7.3681l-0.14438 2.25-4.8551 0.135v0.82064c0 0.48971 0.11939 0.82741 0.29605 0.83735 0.16282 0.0091 1.202 0.03591 2.3092 0.05923l2.0132 0.04248 0.0718 1.1163 0.0718 1.1162-4.6435 0.13591v1.8947l5.0921 0.13444v2.1155h-7.579z"/>
 </g>
</svg>
