<svg width="677.28" height="800" version="1.1" viewBox="0 0 677.28 800" xmlns="http://www.w3.org/2000/svg">
 <path d="m345.69 677.09c66.073-1.2046 130.33-21.813 184.78-59.262 29.116-19.301 54.687-43.479 75.586-71.471 142.39-183.55 61.86-452.69-157.93-527.87-219.79-75.174-448.29 88.285-448.12 320.59-0.017637 12.649 0.66933 25.289 2.0577 37.862 16.462 235.81 342.95 423.06 342.95 423.06s-79.29-124.28-25.515-123.46c3.9858 0.13306 19.331 0.68082 26.201 0.54872z" fill="#f9ced7" stroke-width="13.718"/>
 <path d="m650.64 338.39a312.08 312.08 0 1 1-312.08-312.08 312.08 312.08 0 0 1 312.08 312.08" fill="#fd92a3" stroke-width="13.718"/>
 <path d="m338.56 22.407c-174.48 0-315.99 141.53-315.99 315.99 2e-6 174.48 141.53 315.97 315.99 315.97 174.48 0 315.99-141.5 315.99-315.97 0-174.48-141.53-315.99-315.99-315.99zm0 7.7967c170.24 0 308.17 137.95 308.17 308.2 0 170.24-137.92 308.17-308.17 308.17-170.24 0-308.17-137.92-308.17-308.17 1e-6 -170.24 137.92-308.2 308.17-308.2z" fill="#fff" stroke-width="13.718"/>
 <path d="m624.3 336.47a286.16 286.16 0 1 1-286.16-286.16 286.16 286.16 0 0 1 286.16 286.16" fill="#f1f2f2" stroke-width="13.718"/>
 <g fill="#262262" stroke-width="13.718">
  <path d="m154.74 517.68h244.18"/>
  <path d="m154.73 512.88v9.6186h244.19v-9.6186z"/>
  <path d="m154.88 476.39v-42.526h6.5846v25.515c4.615-5.5584 11.433-8.8168 18.656-8.9167 7.0706-0.37971 13.948 2.3813 18.794 7.5449 10.253 10.324 10.253 26.989 0 37.313-4.6036 5.0009-11.038 7.9213-17.833 8.0936-7.1202 0.27436-14.016-2.5237-18.931-7.6821-6.5596-6.166-7.2705-13.213-7.2705-19.342zm39.782 13.718c3.4968-3.7045 5.4156-8.6241 5.35-13.718-0.0192-5.1844-2.1493-10.137-5.8987-13.718-3.5564-3.768-8.5376-5.8602-13.718-5.7616-5.1788-0.24226-10.2 1.8164-13.718 5.6244-7.5602 7.9026-7.5602 20.356 0 28.259 3.5148 3.8274 8.5244 5.9314 13.718 5.7615 5.2654-0.0411 10.26-2.3392 13.718-6.3103m62.417 5.4872c-4.8772 5.1167-11.732 7.8688-18.794 7.5449-6.9285 0.0247-13.549-2.862-18.245-7.9564-4.7688-4.9184-7.3847-11.532-7.2705-18.382-0.0864-7.1129 2.7388-13.953 7.8192-18.931 4.8311-5.1983 11.704-8.0079 18.794-7.6821 6.8023 0.14061 13.249 3.0664 17.833 8.0936 10.238 10.278 10.238 26.898 0 37.176m-18.656 0.82308c5.2076 0.24651 10.248-1.8704 13.718-5.7615 3.8394-3.8479 5.9234-9.1078 5.7616-14.541-0.10152-5.1398-2.1626-10.047-5.7616-13.718-3.507-3.824-8.5359-5.8858-13.718-5.6244-5.1626-0.15144-10.147 1.8924-13.718 5.6244-3.6989 3.6037-5.7779 8.5537-5.7615 13.718-0.1166 5.0773 1.7534 9.9997 5.2128 13.718 3.4358 3.9808 8.6396 6.4184 14.267 6.5846zm77.506-15.776c0.18615 6.0701-2.0898 11.958-6.3103 16.324-4.1383 4.3408-9.9173 6.7321-15.913 6.5846-6.0396 0.16928-11.869-2.2224-16.05-6.5846-4.1072-4.4195-6.2801-10.296-6.0359-16.324v-28.808h6.859v28.808c-0.07 4.1261 1.5682 8.0977 4.5269 10.974 2.886 2.945 6.8514 4.5807 10.974 4.5269 8.4996-0.14664 15.355-7.0016 15.501-15.501v-28.945h6.4474zm26.201 22.497c-9.7747 2.0829-18.872-5.6563-18.382-15.638v-53.5h6.859v17.559h11.66v6.3103h-11.66v28.533c-0.81101 6.6907 5.0031 12.3 11.66 11.249v5.6244zm12.621-57.478h-6.7218v-11.797h6.5846v11.797zm0 56.518h-6.7218v-50.482h6.5846v50.482zm59.262 17.696h-6.5846v-25.515c-4.6711 5.4858-11.454 8.7276-18.656 8.9167-7.0613 0.32388-13.917-2.4282-18.794-7.5449-5.0881-5.0301-7.9109-11.914-7.8192-19.068-0.12894-6.8525 2.4887-13.472 7.2705-18.382 4.5987-4.9899 11.048-7.8674 17.833-7.9564 7.1642-0.29631 14.11 2.502 19.068 7.6821 5.1874 4.8489 8.0363 11.696 7.8192 18.794v42.937zm-45.132-42.526c-0.0165 5.1643 2.0626 10.114 5.7615 13.718 3.59 3.7033 8.5617 5.7417 13.718 5.6244 5.1788 0.24226 10.2-1.8164 13.718-5.6244 7.6144-7.8276 7.6144-20.294 0-28.122-3.4698-3.8911-8.5104-6.0081-13.718-5.7616-5.2694 0.0233-10.271 2.3245-13.718 6.3103-3.6552 4.173-5.7615 8.1607-5.7615 13.855zm96.712 3.2923c0.16557 6.0927-2.1633 11.989-6.4474 16.324-4.1283 4.3553-9.9141 6.7495-15.913 6.5846-6.0364 0.15213-11.86-2.2368-16.05-6.5846-4.1439-4.4057-6.365-10.279-6.1731-16.324v-28.808h6.859v28.808c-0.0343 4.1467 1.6549 8.1213 4.6641 10.974 2.8528 2.9105 6.7617 4.5434 10.837 4.5269 8.446-0.21921 15.22-7.0536 15.364-15.501v-28.945h6.859zm58.439 4.9385c-1.7364 5.2162-5.1027 9.7366-9.6026 12.895-4.3679 3.1078-9.5919 4.7851-14.953 4.8013-7.0753 0.32786-13.957-2.365-18.931-7.4077-10.716-10.4-10.716-27.599 0-37.999 5.0636-5.3617 12.259-8.1793 19.617-7.6821 6.7136 0.41908 13.005 3.4174 17.559 8.368 4.5354 4.5025 7.1006 10.62 7.1333 17.01v3.7038h-44.309c0.39082 4.8952 2.71 9.4349 6.4474 12.621 3.7535 3.3724 8.6762 5.1446 13.718 4.9385 7.432 0.20412 14.21-4.224 17.01-11.112h7.1333zm-5.35-12.621c-0.8298-4.4361-3.1536-8.4542-6.5846-11.386-11.502-9.8978-29.406-3.5475-32.1 11.386zm-97.26 44.721h103.43"/>
  <path d="m420.99 512.88v9.6186h103.45v-9.6186z"/>
  <path d="m200.83 140.99-45.544 283.55h92.596l10.563-86.56 81.896 86.56 81.896-86.56 10.563 86.56h92.596l-45.544-283.55-139.51 145.41z"/>
 </g>
</svg>
