<svg version="1.1" viewBox="0 0 49.36 58.27" xmlns="http://www.w3.org/2000/svg">
 <clipPath id="a">
  <path d="m0 0h49.36v58.27h-49.36z"/>
 </clipPath>
 <clipPath id="am">
  <path d="m18.06 30.91h0.53l0.73-5.8-0.48-0.51-0.78 6.31z"/>
 </clipPath>
 <clipPath id="al">
  <path d="m30.31 25.12 0.71 5.79h0.53l-0.78-6.28-0.46 0.49z"/>
 </clipPath>
 <clipPath id="ak">
  <path d="m34.95 10.34 3.3 20.57h0.09l-3.33-20.76-0.06 0.19z"/>
 </clipPath>
 <clipPath id="aj">
  <path d="m30.75 24.7 0.76 6.21h0.09l-0.78-6.41-0.07 0.2z"/>
 </clipPath>
 <clipPath id="ai">
  <path d="m24.81 30.84v0.13l5.94-6.27 0.07-0.2-6.01 6.34z"/>
 </clipPath>
 <clipPath id="ah">
  <path d="m18.87 24.7 5.94 6.27v-0.13l-6.01-6.34 0.07 0.2z"/>
 </clipPath>
 <clipPath id="ag">
  <path d="m18.02 30.91h0.09l0.76-6.21-0.07-0.2-0.78 6.41z"/>
 </clipPath>
 <clipPath id="af">
  <path d="m11.28 30.91h0.08l3.31-20.57-0.06-0.19-3.33 20.76z"/>
 </clipPath>
 <clipPath id="ae">
  <path d="m14.67 10.34 6.65 6.93 0.06-0.07-6.77-7.05 0.06 0.19z"/>
 </clipPath>
 <clipPath id="ad">
  <path d="m21.32 17.27 3.49 3.64v-0.13l-3.43-3.58-0.06 0.07z"/>
 </clipPath>
 <clipPath id="ac">
  <path d="m24.81 20.78v0.13l3.24-3.38-0.06-0.06-3.18 3.31z"/>
 </clipPath>
 <clipPath id="ab">
  <path d="m27.99 17.47 0.06 0.06 6.9-7.19 0.06-0.19-7.02 7.32z"/>
 </clipPath>
 <clipPath id="aa">
  <path d="m22.91 18.82 0.48 0.49a2.19 2.19 0 0 1 2.84 0l0.48-0.5a2.85 2.85 0 0 0-1.9-0.74 2.7 2.7 0 0 0-1.9 0.75"/>
 </clipPath>
 <clipPath id="z">
  <path d="m25 14.58 0.77 0.06c0.9-1.65 1.89-3.15 1.89-3.15v-1.12c-0.61 0.8-2.17 3.35-2.66 4.2"/>
 </clipPath>
 <clipPath id="y">
  <path d="m22 20.87a2.81 2.81 0 1 1 2.81 2.8 2.81 2.81 0 0 1-2.81-2.8m1.31-10.45c-2.1 2.94-4 6.45-4.6 8.84a6.33 6.33 0 1 0 6.29-4.65c0.93-1.59 1.91-3.18 2.63-4.19h-4.32z"/>
 </clipPath>
 <clipPath id="x">
  <path d="m22 20.87a2.77 2.77 0 1 1 2.77 2.76 2.77 2.77 0 0 1-2.77-2.76m-0.09 0a2.86 2.86 0 1 0 2.9-2.87 2.85 2.85 0 0 0-2.81 2.87"/>
 </clipPath>
 <clipPath id="w">
  <path d="m18.67 19.24a6.37 6.37 0 1 0 6.33-4.67l-0.07 0.09h0.07a6.22 6.22 0 1 1-6.21 4.61c0.5-2.17 2.26-5.54 4.58-8.8v-0.09c-1.83 2.57-4 6.26-4.62 8.87"/>
 </clipPath>
 <clipPath id="v">
  <path d="m23.29 10.37 0.05 0.09h4.18l0.16-0.09h-4.39z"/>
 </clipPath>
 <clipPath id="u">
  <path d="m27.52 10.46c-0.67 1-1.61 2.44-2.58 4.13v0.07l0.06-0.09c1-1.69 2-3.26 2.64-4.19z"/>
 </clipPath>
 <g clip-path="url(#a)">
  <path d="m25.2 49.32c4.8165-0.08781 9.5008-1.5901 13.47-4.32 2.1225-1.407 3.9865-3.1695 5.51-5.21 10.38-13.38 4.5094-33-11.513-38.48s-32.679 6.4357-32.667 23.37c-0.0012857 0.92207 0.048792 1.8435 0.15 2.76 1.2 17.19 25 30.84 25 30.84s-5.78-9.06-1.86-9c0.29055 0.0097 1.4092 0.04963 1.91 0.04z" fill="#f9ced7"/>
  <path d="m47.43 24.63a22.75 22.75 0 1 1-22.75-22.75 22.75 22.75 0 0 1 22.75 22.75" fill="#fd92a3"/>
  <path d="m24.68 1.5957c-12.719 2e-7 -23.035 10.317-23.035 23.035 1e-7 12.719 10.317 23.033 23.035 23.033 12.719 0 23.035-10.315 23.035-23.033 0-12.719-10.317-23.035-23.035-23.035zm0 0.56836c12.41 0 22.465 10.056 22.465 22.467 0 12.41-10.054 22.465-22.465 22.465-12.41 0-22.465-10.054-22.465-22.465 1e-7 -12.41 10.054-22.467 22.465-22.467z" fill="#fff"/>
  <path d="m45.51 24.49a20.86 20.86 0 1 1-20.86-20.86 20.86 20.86 0 0 1 20.86 20.86" fill="#f1f2f2"/>
  <g fill="#262262">
   <path d="m11.28 37.7h17.8"/>
   <path d="m11.279 37.35v0.70117h17.801v-0.70117z"/>
   <path d="m11.29 34.69v-3.1h0.48v1.86c0.33642-0.40519 0.83341-0.64272 1.36-0.65 0.51543-0.02768 1.0168 0.17359 1.37 0.55 0.74744 0.75262 0.74744 1.9674 0 2.72-0.33559 0.36455-0.80466 0.57744-1.3 0.59-0.51904 0.02-1.0217-0.18397-1.38-0.56-0.47818-0.44948-0.53-0.9632-0.53-1.41zm2.9 1c0.25491-0.27005 0.39478-0.62867 0.39-1-0.0014-0.37793-0.15668-0.73898-0.43-1-0.25925-0.27468-0.62237-0.42719-1-0.42-0.37752-0.01766-0.74354 0.13241-1 0.41-0.55112 0.57608-0.55112 1.4839 0 2.06 0.25622 0.27901 0.6214 0.43238 1 0.42 0.38383-3e-3 0.74794-0.17052 1-0.46m4.55 0.4c-0.35553 0.37299-0.85525 0.57361-1.37 0.55-0.50507 0.0018-0.98767-0.20863-1.33-0.58-0.34763-0.35854-0.53832-0.84067-0.53-1.34-0.0063-0.51851 0.19965-1.0171 0.57-1.38 0.35217-0.37894 0.85322-0.58375 1.37-0.56 0.49587 0.01025 0.9658 0.22353 1.3 0.59 0.74629 0.7492 0.74629 1.9608 0 2.71m-1.36 0.06c0.37962 0.01797 0.74706-0.13635 1-0.42 0.27988-0.2805 0.4318-0.66393 0.42-1.06-0.0074-0.37468-0.15765-0.73239-0.42-1-0.25565-0.27876-0.62224-0.42906-1-0.41-0.37634-0.01104-0.73972 0.13795-1 0.41-0.26964 0.2627-0.42119 0.62354-0.42 1-0.0085 0.37012 0.12782 0.72895 0.38 1 0.25046 0.29019 0.6298 0.46788 1.04 0.48zm5.65-1.15c0.01357 0.44249-0.15234 0.87168-0.46 1.19-0.30167 0.31643-0.72294 0.49075-1.16 0.48-0.44027 0.01234-0.86525-0.16201-1.17-0.48-0.2994-0.32217-0.4578-0.75054-0.44-1.19v-2.1h0.5v2.1c-0.0051 0.30078 0.11432 0.5903 0.33 0.8 0.21038 0.21468 0.49945 0.33392 0.8 0.33 0.6196-0.01069 1.1193-0.5104 1.13-1.13v-2.11h0.47zm1.91 1.64c-0.71255 0.15184-1.3757-0.41233-1.34-1.14v-3.9h0.5v1.28h0.85v0.46h-0.85v2.08c-0.05912 0.48773 0.36471 0.8966 0.85 0.82v0.41zm0.92-4.19h-0.49v-0.86h0.48v0.86zm0 4.12h-0.49v-3.68h0.48v3.68zm4.32 1.29h-0.48v-1.86c-0.34051 0.3999-0.83495 0.63622-1.36 0.65-0.51475 0.02361-1.0145-0.17701-1.37-0.55-0.37091-0.36668-0.57668-0.86848-0.57-1.39-0.0094-0.49953 0.18142-0.98207 0.53-1.34 0.33523-0.36375 0.80538-0.57351 1.3-0.58 0.52225-0.0216 1.0286 0.18239 1.39 0.56 0.37815 0.35347 0.58582 0.85262 0.57 1.37v3.13zm-3.29-3.1c-0.0012 0.37646 0.15036 0.7373 0.42 1 0.2617 0.26996 0.62412 0.41855 1 0.41 0.37752 0.01766 0.74354-0.13241 1-0.41 0.55507-0.57061 0.55507-1.4794 0-2.05-0.25294-0.28365-0.62038-0.43797-1-0.42-0.38412 0.0017-0.74873 0.16945-1 0.46-0.26645 0.3042-0.42 0.59489-0.42 1.01zm7.05 0.24c0.01207 0.44414-0.1577 0.87397-0.47 1.19-0.30094 0.31749-0.72271 0.49202-1.16 0.48-0.44004 0.01109-0.86453-0.16306-1.17-0.48-0.30208-0.32116-0.46399-0.74931-0.45-1.19v-2.1h0.5v2.1c-0.0025 0.30228 0.12064 0.59202 0.34 0.8 0.20796 0.21217 0.49291 0.3312 0.79 0.33 0.61569-0.01598 1.1095-0.51419 1.12-1.13v-2.11h0.5zm4.26 0.36c-0.12658 0.38025-0.37197 0.70977-0.7 0.94-0.31841 0.22655-0.69922 0.34882-1.09 0.35-0.51577 0.0239-1.0174-0.1724-1.38-0.54-0.78116-0.75811-0.78116-2.0119 0-2.77 0.36912-0.39085 0.89362-0.59625 1.43-0.56 0.4894 0.03055 0.94803 0.24912 1.28 0.61 0.33062 0.32822 0.51761 0.77414 0.52 1.24v0.27h-3.23c0.02849 0.35685 0.19755 0.68778 0.47 0.92 0.27362 0.24584 0.63247 0.37503 1 0.36 0.54177 0.01488 1.0359-0.30792 1.24-0.81h0.52zm-0.39-0.92c-0.06049-0.32338-0.22989-0.61629-0.48-0.83-0.83848-0.72152-2.1436-0.2586-2.34 0.83zm-7.09 3.26h7.54"/>
   <path d="m30.689 37.35v0.70117h7.541v-0.70117z"/>
  </g>
 </g>
 <g clip-path="url(#am)">
  <path d="m18.06 24.6h1.25v6.3h-1.25z" fill="none"/>
 </g>
 <g clip-path="url(#al)">
  <path d="m30.31 24.63h1.25v6.28h-1.25z" fill="none"/>
 </g>
 <g clip-path="url(#a)">
  <path d="m14.64 10.24-3.32 20.67h6.75l0.77-6.31 5.97 6.31 5.97-6.31 0.77 6.31h6.75l-3.32-20.67-10.17 10.6-10.17-10.6z" fill="#262262"/>
 </g>
 <g clip-path="url(#ak)">
  <path transform="matrix(.98722 -.15936 .15936 .98722 -2.8001 6.0999)" d="m33.32 10.01h6.65v21.03h-6.65z" fill="none"/>
 </g>
 <g clip-path="url(#aj)">
  <path transform="matrix(.99246 -.12256 .12256 .99246 -3.1599 4.03)" d="m30.36 24.48h1.63v6.46h-1.63z" fill="none"/>
 </g>
 <g clip-path="url(#ai)">
  <path transform="matrix(.72549 -.68823 .68823 .72549 -11.45 26.759)" d="m23.41 23.33h8.81v8.82h-8.81z" fill="none"/>
 </g>
 <g clip-path="url(#ah)">
  <path transform="matrix(.67159 -.74092 .74092 .67159 -13.391 25.27)" d="m17.4 23.34h8.82v8.79h-8.82z" fill="none"/>
 </g>
 <g clip-path="url(#ag)">
  <path transform="matrix(.18412 -.9829 .9829 .18412 -12.18 40.74)" d="m15.22 26.7h6.45v2.01h-6.45z" fill="none"/>
 </g>
 <g clip-path="url(#af)">
  <path d="m11.28 10.15h3.39v20.76h-3.39z" fill="none"/>
 </g>
 <g clip-path="url(#ae)">
  <path transform="matrix(.72369 -.69012 .69012 .72369 -4.49 16.21)" d="m13.09 8.8h9.81v9.82h-9.81z" fill="none"/>
 </g>
 <g clip-path="url(#ad)">
  <path transform="matrix(.76165 -.64799 .64799 .76165 -6.8498 19.49)" d="m20.53 16.51h5.06v5.08h-5.06z" fill="none"/>
 </g>
 <g clip-path="url(#ac)">
  <path transform="matrix(.72285 -.69101 .69101 .72285 -5.9298 23.58)" d="m24.07 16.83h4.72v4.72h-4.72z" fill="none"/>
 </g>
 <g clip-path="url(#ab)">
  <path d="m27.99 10.15h7.02v7.38h-7.02z" fill="none"/>
 </g>
 <g clip-path="url(#aa)">
  <path d="m22.91 18.07h3.79v1.24h-3.79z" fill="none"/>
 </g>
 <g clip-path="url(#z)">
  <path transform="matrix(.50679 -.86207 .86207 .50679 2.2199 28.89)" d="m23.84 10.28h5.03v4.45h-5.03z" fill="none"/>
 </g>
 <g clip-path="url(#y)">
  <path d="m18.49 10.42h12.64v16.72h-12.64z" fill="none"/>
 </g>
 <g clip-path="url(#x)">
  <path transform="matrix(.30037 -.95382 .95382 .30037 -2.55 38.27)" d="m21.24 17.29h7.15v7.16h-7.15z" fill="none"/>
 </g>
 <g clip-path="url(#w)">
  <path transform="matrix(.4437 -.89618 .89618 .4437 -3.0204 32.69)" d="m14.47 9.35h20.71v18.87h-20.71z" fill="none"/>
 </g>
 <g clip-path="url(#v)">
  <path transform="matrix(.0090756 -.99996 .99996 .0090756 14.84 35.809)" d="m25.42 8.22h0.13v4.39h-0.13z" fill="none"/>
 </g>
 <g clip-path="url(#u)">
  <path transform="matrix(.52592 -.85054 .85054 .52592 1.8203 28.29)" d="m23.74 10.2h5.1v4.62h-5.1z" fill="none"/>
 </g>
</svg>
