<svg width="800" height="227.65" version="1.1" viewBox="0 0 800 227.65" xmlns="http://www.w3.org/2000/svg">
 <path d="m767.11 86.017c-15.443-8.6417-35.767-12.643-63.773-12.643-28.566 0-50.41 4.961-66.813 15.043-3.2006 2.0804-6.4013 4.3209-9.1218 6.7214v-55.611h-83.217v51.05a63.933 63.933 0 0 0-16.003-9.0418c-13.763-5.5211-31.606-8.1616-54.411-8.1616-27.526 0-47.77 3.4407-61.932 10.402l-4.4809 2.4805v-8.4817h-83.217v68.014c0 9.2819-3.2006 9.4419-5.2811 9.4419-1.6003 0-3.5207-0.4801-3.5207-3.0406v-74.415h-80.176l-12.482-77.776-56.811 59.212-1.5203-0.88017 28.726-42.889h-87.778l-6.6413 9.2819a377.68 377.68 0 0 0-16.083 24.565l-47.209-49.29-35.367 220.04h89.058l3.7608-30.646 36.167 38.248 36.247-38.248 3.7608 30.646h89.058l-0.96019-6.0012a74.015 74.015 0 0 0 40.008 10.402c11.202 0 20.964-1.7604 29.286-4.4009h81.056v-7.6815l2.7205 1.5203c14.483 7.2014 34.887 10.562 64.253 10.562 29.926 0 50.73-3.3607 65.453-10.642l4.4809-2.4005v8.6417h83.137v-17.604c2.8006 2.4005 5.8412 4.7209 9.1218 6.7213 16.323 10.242 38.248 15.203 66.813 15.203 17.043 0 39.048-1.1202 57.852-9.762 22.404-10.402 38.728-31.766 38.728-67.213 0-33.207-14.483-51.21-32.887-61.452" fill="#c2242f" stroke-width=".80016"/>
 <g fill="#fffffe" stroke-width=".80016">
  <path d="m340.95 94.419h49.85v109.38h-48.25v-12.162h-0.40008c-5.201 6.9614-21.124 16.563-45.129 16.563-27.526 0-48.25-12.402-48.25-42.809v-70.974h49.85v58.012c0 13.763 7.4415 19.764 19.204 19.764 15.523 0 23.125-9.762 23.125-26.165zm210.36 74.175c0 28.006-24.325 38.728-77.215 38.728-52.01 0-74.655-10.722-76.255-38.088h58.892c0.56011 4.3209 2.8006 7.1214 6.1612 8.7217 3.6007 1.6003 8.6417 2.0004 14.243 2.0004 12.803 0 16.563-3.4407 16.563-8.4017 0-3.2006-1.6003-6.1612-6.8014-6.7213l-48.81-4.961c-28.966-2.9606-37.447-14.483-37.447-33.367 0-25.605 24.005-36.487 72.815-36.487 34.087 0 71.534 6.1612 72.494 36.887h-56.411a7.2014 7.2014 0 0 0-3.8408-6.7213c-2.8006-1.6003-7.3615-2.8006-14.803-2.8006-14.963 0-17.764 3.3607-17.764 7.5215 0 2.8006 2.5605 5.7612 13.363 6.8014l47.69 4.1608c26.965 2.4005 37.207 14.243 37.207 32.807"/>
  <path d="m561.07 83.777h49.45v-27.285h-49.45z"/>
  <path d="m561.07 203.8h49.45v-109.38h-49.45z"/>
  <path d="m731.35 157.07h52.01c-5.121 45.049-45.689 50.25-79.856 50.25-45.769 0-81.616-13.923-81.616-58.972 0-44.489 35.847-58.412 81.616-58.412 46.729 0 74.495 12.002 79.936 48.09h-52.09a15.603 15.603 0 0 0-9.3619-13.683c-4.5609-2.4005-11.522-3.3607-17.924-3.3607-22.244 0-30.006 12.242-30.006 26.805 0 16.643 9.922 27.365 29.606 27.365 13.923 0 24.245-4.0008 27.686-18.084"/>
  <path d="m128.83 121.3-11.602-12.002a17.203 17.203 0 0 1 23.205 0zm82.416-85.857-43.529 45.369a56.491 56.491 0 0 0-28.486-14.243 394.48 394.48 0 0 1 16.643-26.005l6.3213-8.8018h-48.57l-1.6003 2.3205a335.43 335.43 0 0 0-26.085 42.649l-39.608-41.288-26.885 167.47h54.651l6.2412-51.21 48.49 51.21 48.41-51.21 6.2412 51.21h54.731z"/>
 </g>
 <path d="m128.83 145.87a22.725 22.725 0 0 1-22.805-22.645 22.725 22.725 0 0 1 22.805-22.725 22.725 22.725 0 0 1 22.725 22.725 22.725 22.725 0 0 1-22.725 22.645m1.2002-73.295c7.5215-12.803 15.443-25.605 21.284-33.767h-34.727c-16.883 23.605-32.727 52.01-37.207 71.214a50.89 50.89 0 0 0 49.37 63.853c28.326-0.08 51.21-22.725 51.21-50.65a50.89 50.89 0 0 0-49.93-50.65" fill="#c2242f" stroke-width=".80016"/>
</svg>
