<svg width="900pt" height="902.85pt" version="1.1" viewBox="0 0 900 902.85" xmlns="http://www.w3.org/2000/svg">
 <g transform="translate(-1242.2 -513.61)">
  <path d="m1316.4 513.61c-48.325 0-74.169 24.376-74.169 57.46v638.04h900v-638.04c0-33.084-25.844-57.46-74.17-57.46z" fill="#168fd0"/>
  <path d="m1316.4 513.61c-48.325 0-74.169 24.376-74.169 57.46v624.41c167.86-295.41 441.25-518.07 879.99-666.38-12.481-9.7237-30.662-15.486-54.158-15.486z" fill="#70c2e8"/>
  <path d="m1316.4 1416.5c-48.325 0-74.169-24.376-74.169-57.46v-149.89h900v149.89c0 33.084-25.844 57.46-74.17 57.46z" fill="#fff"/>
 </g>
 <path d="m271.45 756.33c15.408-8.0123 36.2-7.4255 52.754-1.6024l-4.146 14.061c-11.355-3.6789-24.938-5.5748-36.51-1.3091-11.665 4.6043-17.389 14.445-18.533 23.699-1.578 11.782-0.49505 25.12 10.582 34.51 8.3849 7.1322 23.02 8.7121 34.499 4.8752l-0.55693-23.112-16.832-0.3385-0.12379-13.362 34.158-0.2708v48.074c-17.636 5.7779-39.728 8.2155-56.714 0.023-18.193-8.8701-24.103-25.82-24.165-40.92-0.68069-16.386 6.1881-34.6 25.588-44.328z" fill="#168fd0" stroke-width="2.6426"/>
 <path d="m441.71 752.69c17.116-2.0441 37.622-5.0419 52.086 4.1561 15.73 11.969 13.44 35.18-5.876 44.355 15.7 11.855 12.415 30.217 19.255 45.048h-17.929c-4.5502-10.833-4.3694-22.473-9.9742-33.056-3.1038-6.3364-13.168-5.6324-20.37-6.0639v39.12h-17.191v-93.559m17.191 11.56v30.524c7.7443-0.4087 17.176 0.795 22.781-4.2925 6.9307-6.5408 7.1718-17.578-1.2355-23.461-5.8459-4.1335-14.344-2.4983-21.546-2.7707z" fill="#168fd0" stroke-width="2.6161"/>
 <path d="m595.73 752.67c16.052-1.8289 34.636-4.7192 49.009 2.5516 18.005 9.1902 16.082 31.274-2.0141 39.809 22.002 8.5579 23.314 32.99 6.2864 45.07-14.953 8.7385-35.582 7.2256-53.282 5.5546v-92.985m17.242 11.155v26.396c7.7817-0.5193 17.577 0.6097 22.948-4.6289 4.6995-4.9676 5.1878-12.69 0.3662-17.658-5.432-5.487-15.441-3.7935-23.315-4.1096m0 38.477v31.274c6.1643-0.2484 12.573 0.113 18.554-1.2871 11.81-3.7483 13.458-16.009 7.5986-23.438-5.4014-6.6838-17.089-6.0515-26.153-6.5483z" fill="#168fd0" stroke-width="2.625"/>
 <path d="m50.704 751.52-5.9399 94.775h15.98l4.2847-74.848 21.875 73.062h16.721l21.875-73.062 4.2847 74.848h15.98l-5.9399-94.775h-21.87l-22.689 65.719-22.69-65.719z" fill="#168fd0"/>
 <path d="m186.85 751.5-30.19 94.814h17.095l8.6367-27.834h30.577l8.6367 27.834 17.095 4e-4 -30.189-94.815zm10.83 13.676 12.85 41.364h-25.699z" fill="#168fd0"/>
 <path d="m345.72 751.5v94.8h15.986v-42.794h42v42.794h15.984v-94.8h-15.984v38.005h-42v-38.005z" fill="#168fd0"/>
 <path d="m522.73 751.52h53.98v12.975h-37.995v25.99h36.02v13.045h-36.02v29.035h39.97v13.745h-55.955z" fill="#168fd0"/>
 <g transform="matrix(.62647 0 0 .62647 163.5 148.93)" fill="#168fd0">
  <path d="m845.23 961.49h114.76v23.32l-43.555-2.5e-4v128.37l-27.805 2e-4v-128.37h-43.395z"/>
  <path d="m971 961.49h30.23l36.05 123.93 37.347-123.93 29.173 2.5e-4 -51.967 151.69-31.873-2e-4z"/>
 </g>
 <g transform="translate(-5.4806)" fill="#fffffe">
  <path d="m155.46 76.385h114.76v23.32l-43.555-2.48e-4v128.37l-27.805 2.5e-4v-128.37h-43.395z"/>
  <path d="m281.22 76.385h30.23l36.05 123.92 37.347-123.93 29.173 2.51e-4 -51.967 151.69-31.873-2.5e-4z"/>
  <path d="m647.24 199.13c8.09-14.89 18.27-28.5 27.59-42.63 7.03 2.96 14.29 5.68 20.42 10.32 3.6 2.48 7.66 5.48 8.42 10.1 0.57 2.96-1.89 5.19-3.08 7.64-4.1 7.44-8.93 14.42-13.44 21.62-3.12 4.75-7.07 8.92-11.45 12.53-6.41-3.58-12.04-8.41-18.62-11.69-3.71-2.06-6.54-5.29-9.84-7.89z"/>
  <path d="m464.69 226.76c6.12-3.56 12.67-6.42 18.33-10.73 1.78 1.88 3.28 4.15 2.83 6.88-0.77 9.1-2.9 18.1-6.21 26.61-1.84 4.87-2.75 10.68-7.18 13.99-3.27 2.41-6.75 4.52-10.12 6.78-6.51 4-11.62 9.78-16.9 15.19-10.14 11.23-20.14 22.61-29.61 34.42-26.72 32.18-52.61 65.12-81.23 95.67-12.18 12.5-24.69 24.68-37.04 37.01-11.69 11.76-25.17 21.51-38.14 31.78-11.83 8.38-24.16 16.04-36.64 23.4-18.38 10-38.08 17.83-58.65 21.9-20.13 3.93-41.23 4.12-61.11-1.27-15.98-4.06-30.84-12.26-42.93-23.44-18.38-17.11-31.17-40.17-35.77-64.87-2.73-13.2-2.28-26.77-2.02-40.15 1.3164-17.795 6.2023-32.369 11.539-47.319 5.7719-16.09 13.246-31.577 23.441-45.331 11.11-14.78 25.24-26.88 39.59-38.38 7.15-5.84 15.18-10.55 23.55-14.41 18.18-8.31 37.69-13.53 57.49-16.1 16.94-2.06 33.782-2.99 51.06-2.99l134.7-0.19 0.24 7.58c-2.73 1.63-5.1452 2.5324-8.91 3.18-21.26 3.09-42.58 6.02-64.02 7.49-13.393 0.5337-26.766 1.5365-40.151 2.2288-27.111 1.2369-57.475 1.8605-81.488 7.2011-13.724 3.1717-27.019 7.3185-38.77 12.65-20.18 10.05-39.56 22.34-55.4 38.55-11.03 12.01-21.218 25.435-24.81 41.89-3.83 18.64-4.06 38.31 0.88 56.78 5.18 19.16 16.19 36.81 31.44 49.56 15.81 13.13 36.45 19.45 56.81 19.91 22.3 0.96 44.24-5.42 64.37-14.57 32.68-14.84 61.29-37.1 87.61-61.21 29.54-26.77 57.49-55.26 84.15-84.88 24.75-26.94 49.39-53.96 74.13-80.9 4.58-5.02 8.9-10.56 14.94-13.91z"/>
  <path d="m820.72 236.22c8.44 5.74 17.56 10.43 27.22 13.73 13.92 3.7 28.98 5.42 40.92 14.18-0.82 6.26-1.62 12.65-4.27 18.46-1.98 4.73-5.01 8.89-8.02 13-2.66 4.35-4.97 8.9-7.44 13.36-11.96-1.14-24.05-4.55-36.05-1.77-8.42 2.5-15.09 8.64-20.59 15.25-17.29 19.11-27.73 43.64-46.84 61.21-4.09 4.41-9.52 7.2-14.22 10.86-2.36 1.95-5.56 2.22-8.14 3.79-5.12 2.8-10.89 3.95-16.42 5.64-2.24 0.74-4.6 0.96-6.93 0.92-5.67-0.08-11.41 0.27-16.99-0.93-9.95-2-19.24-7.41-25.63-15.32-6.7-9.04-10.59-19.77-13.75-30.46-9.65 10.18-20.03 19.65-30.59 28.87-7.6095 5.7222-13.597 9.1293-20.63 13.32-10.74 6.55-21.25 13.48-31.76 20.37-12.12 8.06-24.47 16.53-33.35 28.24-9.64 15.17-16.46 31.87-23.93 48.16-4.63 10.74-8.81 21.67-13.72 32.3-4.95 11.63-11.29 22.6-17.45 33.62-4.4 7.77-9.89 14.84-15.41 21.83-9.55 12.52-21.75 23.15-35.94 30.09-13.28 6.65-28.13 9.35-42.8 10.75-19.99 0.48-40.04 0.37-59.95-1.66-13.722-1.5271-23.218-2.9331-33.9-4.96-3.6889-1.3273-8.8274-2.001-10.637-5.8484-0.47987-0.90382-0.36653-1.5591-0.17056-2.3912 0.57282-1.7824 2.0287-3.15 3.6389-4.138 1.2493-0.80596 2.6019-0.23348 3.7845-0.0256 18.903 3.3174 38.383 3.6627 57.264 0.0332 17.54-3.02 34.38-9.34 50.17-17.47 17.49-9.35 33.2-21.82 46.81-36.21 14.43-14.48 24.69-32.31 35.88-49.25 8.17-15.51 16.12-31.14 24.15-46.73 6.54-13.17 13.02-26.41 21.22-38.65 10.89-16.42 24.67-30.86 40.42-42.67 16.25-12.64 35.38-20.83 51.92-33.04 4.86-3.63 10.02-7.26 13.57-12.25-5.42-3.59-12.03-2.57-18.17-2.43-4.01 0.08-7.77 1.5-11.52 2.76 1.3-15.74 7.24-30.54 13.18-45.01 2.42-5.19 4.54-11.29 9.97-14.09 10.3-5.14 22-5.98 33.27-7.25 7.05-0.1 14.1-0.89 21.16-0.34 6.4 0.09 13.02 0.35 19.04 2.77 5.47 3.18 12.06 6.41 13.52 13.22 0.91 7.15-1.15 14.48-4.75 20.64-5.19 10.91-13.43 19.89-21.23 28.98 1.5 4.03 2.55 8.25 4.56 12.08 3.34 6.65 10.36 11.4 17.87 11.57 8.37 1.61 16.91-0.54 24.63-3.77 4.86-2.28 10.15-3.98 14.17-7.69 6.51-5.83 13.84-10.86 19.31-17.77 9.26-11.4 15.7-24.81 25.42-35.86-1.58-2.21-5.26-3.88-4.35-7.07 1.52-5.81 3.55-11.51 5.93-17.03 3.95-10.16 10.27-19.1 16.55-27.92z"/>
  <path d="m110.95 551.39c8.07 3.52 16.02 7.39 23.33 12.33 3.15 2.14 5.91 5.49 5.97 9.47-0.43 2.25-1.91 4.09-3.03 6.03-7.35 12.06-14.16 24.74-24.59 34.51-9.56-6.33-19.05-12.75-28.59-19.11 7.56-15.25 18.35-28.55 26.91-43.23z"/>
 </g>
</svg>
