<svg width="600pt" height="154.11pt" version="1.1" viewBox="0 0 600 154.11" xmlns="http://www.w3.org/2000/svg">
 <g transform="matrix(17.639 0 0 -17.639 -8691.1 5653.3)">
  <g transform="translate(492.72 315.04)">
   <path d="m0 0c0 1.826 0.97 2.912 2.235 2.912 0.601 0 1.139-0.274 1.539-0.775 0.422 0.501 0.97 0.775 1.497 0.775 1.34 0 2.299-1.074 2.299-2.912v-3.115h-1.624v3.401c0 0.49-0.284 0.836-0.675 0.836-0.389 0-0.685-0.346-0.685-0.836v-3.401h-1.612v3.401c0 0.49-0.296 0.836-0.687 0.836-0.39 0-0.675-0.346-0.675-0.836v-3.401h-1.612z" fill="#a60f25"/>
  </g>
  <g transform="translate(504.59 314.75)">
   <path d="m0 0c0 0.871-0.338 1.313-1.002 1.313-0.538 0-0.928-0.454-0.928-1.17s0.379-1.181 1.012-1.181c0.169 0 0.38 0.059 0.654 0.155v-1.933c-0.305-0.072-0.538-0.096-0.717-0.096-1.529 0-2.625 1.289-2.625 3.055 0 1.791 1.118 3.056 2.625 3.056 1.054 0 1.961-0.657 2.383-1.707 0.232-0.573 0.232-1.17 0.232-1.85v-2.47h-1.634z" fill="#a60f25"/>
  </g>
  <path d="m507.13 317.83h1.666v-5.908h-1.666zm0.833 2.674c0.528 0 0.959-0.478 0.959-1.075s-0.431-1.086-0.959-1.086c-0.527 0-0.96 0.489-0.96 1.086s0.433 1.075 0.96 1.075" fill="#a60f25"/>
  <g transform="translate(512.85 315.21)">
   <path d="m0 0c0 0.549-0.316 0.932-0.76 0.932-0.442 0-0.759-0.383-0.759-0.932v-3.294h-1.634v2.996c0 1.922 1.012 3.031 2.393 3.031 0.791 0 1.497-0.417 1.962-1.133 0.348-0.55 0.433-1.146 0.433-1.898v-2.996h-1.635z" fill="#a60f25"/>
  </g>
  <g transform="translate(516.41 314.14)">
   <path d="m0 0c0.601 0 1.055-0.525 1.055-1.193 0-0.657-0.475-1.182-1.055-1.182s-1.054 0.525-1.054 1.182c0 0.668 0.453 1.193 1.054 1.193" fill="#a60f25"/>
  </g>
  <g transform="translate(519.98 319.27)">
   <path d="m0 0v-1.444h1.297v-1.73h-1.297v-1.863c0-0.417 0.137-0.572 0.548-0.572h0.749v-1.743h-0.612c-1.592 0-2.32 0.764-2.32 2.447v4.905z" fill="#a60f25"/>
  </g>
  <g transform="translate(524.11 313.81)">
   <path d="m0 0c0.063 0.358 0.147 0.752 0.253 1.194l0.685 2.828h1.688l-1.382-4.869c-0.222-0.776-0.633-1.146-1.244-1.146s-1.012 0.37-1.233 1.146l-1.393 4.869h1.688l0.696-2.828c0.105-0.43 0.179-0.824 0.242-1.194" fill="#a60f25"/>
  </g>
 </g>
</svg>
