<svg width="601.62" height="474.09" version="1.1" viewBox="0 0 159.18 125.44" xmlns="http://www.w3.org/2000/svg">
 <defs>
  <clipPath id="e">
   <path d="m986.64 446.96h22.66v11.34h-22.66z"/>
  </clipPath>
  <radialGradient id="f" cx=".35997" cy="-.002866" r="1" gradientTransform="matrix(36.32 38.786 -54.089 50.651 -.516 -2.705)" gradientUnits="userSpaceOnUse">
   <stop stop-color="#fb0001" offset="0"/>
   <stop stop-color="#7e0101" offset="1"/>
  </radialGradient>
  <clipPath id="c">
   <path d="m455.55 110.25h19.607v15.45h-19.607z"/>
  </clipPath>
  <clipPath id="d">
   <path d="m455.55 110.25h19.607v15.45h-19.607z"/>
  </clipPath>
 </defs>
 <g transform="matrix(1.6601 0 0 1.6601 32.069 0)">
  <path d="m 0,28.624 c 0,15.81 12.816,28.62 28.625,28.62 15.808,0 28.624,-12.81 28.624,-28.62 C 57.249,12.807 44.433,0 28.625,0 12.816,0 0,12.807 0,28.624" fill="url(#f)"/>
  <g transform="matrix(8.6011 0 0 -8.6011 -8504.2 3921.7)">
   <g clip-path="url(#e)">
    <g transform="translate(992.03,453.65)">
     <path d="m0 0c-1.516 0-2.745-0.456-2.745-1.018s1.229-1.017 2.745-1.017 2.745 0.455 2.745 1.017-1.229 1.018-2.745 1.018" fill="#fff"/>
    </g>
    <g transform="translate(990.92,452.4)">
     <path d="m0 0c0.048 0.068 0.086 0.144 0.115 0.224-0.029 0.081-0.067 0.157-0.115 0.225-0.244 0.347-0.64 0.347-0.885 0-0.047-0.068-0.085-0.144-0.114-0.225 0.029-0.08 0.067-0.156 0.114-0.224 0.245-0.347 0.641-0.347 0.885 0" fill="#050301"/>
    </g>
    <g transform="translate(994.02,452.4)">
     <path d="m0 0c0.048 0.068 0.086 0.144 0.115 0.224-0.029 0.081-0.067 0.157-0.115 0.225-0.244 0.347-0.64 0.347-0.884 0-0.048-0.068-0.086-0.144-0.115-0.225 0.029-0.08 0.067-0.156 0.115-0.224 0.244-0.347 0.64-0.347 0.884 0" fill="#050301"/>
    </g>
    <g transform="translate(990.22,454.67)">
     <path d="M 0,0 C 0.233,0.233 0.391,0.451 0.327,0.515 0.263,0.58 0,0.465 -0.233,0.233 -0.465,0 -0.58,-0.263 -0.515,-0.327 -0.451,-0.391 -0.233,-0.233 0,0" fill="#fff"/>
    </g>
    <g transform="translate(990.44,452.96)">
     <path d="m0 0c0.031-0.048-0.012-0.131-0.095-0.185-0.084-0.054-0.177-0.058-0.208-0.01s0.012 0.131 0.095 0.185c0.084 0.054 0.177 0.058 0.208 0.01" fill="#fff"/>
    </g>
    <g transform="translate(993.6,452.96)">
     <path d="m0 0c0.031-0.048-0.011-0.131-0.095-0.185s-0.177-0.058-0.208-0.01 0.012 0.131 0.095 0.185c0.084 0.054 0.177 0.058 0.208 0.01" fill="#fff"/>
    </g>
   </g>
  </g>
 </g>
 <g transform="matrix(8.119 0 0 -8.119 -3698.6 1020.5)" fill="#fff">
  <g clip-path="url(#d)" fill="#fff">
   <g transform="translate(459.44 110.57)">
    <path d="m0 0 7e-3 -0.057c0-0.074-0.027-0.137-0.08-0.188-0.054-0.051-0.115-0.077-0.184-0.077-0.065 0-0.121 0.02-0.168 0.059-0.048 0.039-0.079 0.089-0.093 0.149l-0.383 1.712c-0.014 0.072-0.051 0.131-0.111 0.177-0.06 0.047-0.125 0.07-0.197 0.07h-0.579v-1.902c0-0.074-0.027-0.137-0.08-0.188-0.054-0.051-0.117-0.077-0.188-0.077-0.072 0-0.134 0.026-0.186 0.077s-0.079 0.114-0.079 0.188v1.902h-0.718c-0.089 0-0.163-0.03-0.224-0.091s-0.091-0.135-0.091-0.224v-1.587c0-0.074-0.026-0.137-0.077-0.188s-0.114-0.077-0.188-0.077-0.137 0.026-0.189 0.077c-0.053 0.051-0.079 0.114-0.079 0.188v1.587c0 0.234 0.083 0.433 0.249 0.598 0.165 0.164 0.365 0.246 0.599 0.246h1.83c0.201 0 0.378-0.062 0.531-0.187 0.154-0.126 0.253-0.283 0.295-0.474z" fill="#fff"/>
   </g>
   <g transform="translate(460.42 111.6)">
    <path d="m0 0h1.491l-0.129 0.576c-0.014 0.071-0.051 0.13-0.11 0.177-0.06 0.046-0.126 0.069-0.197 0.069h-0.622c-0.07 0-0.134-0.023-0.193-0.071-0.06-0.048-0.097-0.106-0.111-0.175zm2.264-1.016 7e-3 -0.057c0-0.074-0.027-0.136-0.081-0.188-0.053-0.051-0.116-0.076-0.188-0.076-0.064 0-0.119 0.019-0.166 0.058-0.046 0.039-0.077 0.089-0.091 0.148l-0.136 0.602h-1.731l-0.132-0.602c-0.014-0.059-0.045-0.109-0.093-0.148s-0.104-0.058-0.168-0.058c-0.071 0-0.133 0.025-0.186 0.076-0.052 0.052-0.079 0.114-0.079 0.188l8e-3 0.057 0.382 1.707c0.043 0.19 0.141 0.348 0.295 0.473s0.33 0.188 0.528 0.188h0.622c0.2 0 0.377-0.063 0.531-0.188s0.252-0.281 0.295-0.469z" fill="#fff"/>
   </g>
   <g transform="translate(462.83 112.11)">
    <path d="m0 0c0 0.233 0.082 0.432 0.247 0.596 0.164 0.165 0.363 0.247 0.597 0.247h0.962c0.198 0 0.373-0.063 0.527-0.188s0.252-0.281 0.295-0.469l0.383-1.711 7e-3 -0.057c0-0.074-0.027-0.136-0.08-0.187-0.054-0.052-0.116-0.077-0.185-0.077-0.064 0-0.12 0.019-0.168 0.059-0.047 0.039-0.078 0.088-0.093 0.148l-0.382 1.706c-0.015 0.074-0.052 0.134-0.111 0.179-0.06 0.045-0.124 0.068-0.193 0.068h-0.962c-0.088 0-0.163-0.031-0.224-0.091-0.06-0.061-0.091-0.136-0.091-0.224v-1.581c0-0.074-0.026-0.136-0.077-0.188-0.051-0.051-0.114-0.076-0.187-0.076-0.074 0-0.137 0.025-0.188 0.077-0.051 0.051-0.077 0.113-0.077 0.187v1.386z" fill="#fff"/>
   </g>
   <g transform="translate(466.01 112.12)">
    <path d="m0 0c0 0.227 0.081 0.421 0.243 0.584 0.162 0.162 0.358 0.243 0.587 0.243h1.337c0.172 0 0.318-0.061 0.44-0.182 0.121-0.122 0.182-0.268 0.182-0.44 0-0.069-0.025-0.13-0.075-0.182-0.05-0.053-0.111-0.079-0.182-0.079-0.072 0-0.133 0.025-0.184 0.077-0.052 0.051-0.077 0.112-0.077 0.184 0 0.069-0.035 0.104-0.104 0.104h-1.337c-0.086 0-0.159-0.03-0.219-0.09-0.059-0.06-0.089-0.132-0.089-0.216v-0.995c0-0.084 0.03-0.155 0.089-0.215 0.06-0.06 0.133-0.09 0.219-0.09h1.265c0.043 0 0.08 0.015 0.111 0.045 0.031 0.029 0.047 0.067 0.047 0.112 0 0.084-0.036 0.134-0.108 0.151-0.071 0.016-0.126 0.048-0.164 0.094-0.038 0.047-0.057 0.101-0.057 0.163 0 0.069 0.025 0.13 0.075 0.182 0.05 0.053 0.112 0.079 0.186 0.079 0.155 0 0.293-0.074 0.415-0.222 0.114-0.14 0.171-0.289 0.171-0.447 0-0.188-0.066-0.348-0.198-0.481-0.133-0.132-0.292-0.198-0.478-0.198h-1.265c-0.229 0-0.425 0.081-0.587 0.243-0.162 0.163-0.243 0.357-0.243 0.584z" fill="#fff"/>
   </g>
   <g transform="translate(469.97 111.6)">
    <path d="m0 0h1.491l-0.129 0.576c-0.014 0.071-0.051 0.13-0.11 0.177-0.06 0.046-0.126 0.069-0.197 0.069h-0.622c-0.07 0-0.134-0.023-0.194-0.071-0.059-0.048-0.096-0.106-0.11-0.175zm2.263-1.016 8e-3 -0.057c0-0.074-0.027-0.136-0.081-0.188-0.053-0.051-0.116-0.076-0.188-0.076-0.064 0-0.119 0.019-0.166 0.058-0.046 0.039-0.077 0.089-0.091 0.148l-0.136 0.602h-1.731l-0.132-0.602c-0.014-0.059-0.045-0.109-0.093-0.148s-0.104-0.058-0.168-0.058c-0.071 0-0.134 0.025-0.186 0.076-0.052 0.052-0.079 0.114-0.079 0.188l8e-3 0.057 0.382 1.707c0.043 0.19 0.141 0.348 0.295 0.473s0.33 0.188 0.528 0.188h0.622c0.2 0 0.377-0.063 0.531-0.188s0.252-0.281 0.295-0.469z" fill="#fff"/>
   </g>
   <g transform="translate(474.9 112.95)">
    <path d="m0 0c0.072 0 0.132-0.024 0.181-0.073 0.048-0.049 0.073-0.109 0.073-0.181 0-0.069-0.025-0.128-0.073-0.177-0.049-0.049-0.109-0.073-0.181-0.073h-1.849c-0.045 0-0.084-0.017-0.118-0.05-0.033-0.034-0.05-0.073-0.05-0.119 0-0.086 0.045-0.142 0.133-0.168l1.634-0.476-0.025 3e-3c0.152-0.031 0.279-0.11 0.379-0.236 0.1-0.127 0.15-0.267 0.15-0.423 0-0.186-0.066-0.345-0.197-0.476s-0.289-0.197-0.475-0.197h-1.849c-0.069 0-0.129 0.024-0.179 0.073s-0.075 0.109-0.075 0.181c0 0.069 0.026 0.128 0.077 0.177s0.11 0.073 0.177 0.073h1.849c0.045 0 0.084 0.017 0.118 0.05 0.033 0.034 0.05 0.073 0.05 0.118 0 0.086-0.045 0.142-0.133 0.169l-1.634 0.476 0.025-3e-3c-0.152 0.031-0.279 0.109-0.379 0.236s-0.15 0.267-0.15 0.423c0 0.183 0.066 0.342 0.198 0.474 0.133 0.133 0.291 0.199 0.474 0.199z" fill="#fff"/>
   </g>
  </g>
 </g>
 <g transform="matrix(8.119 0 0 -8.119 -3698.6 1020.5)">
  <g clip-path="url(#c)">
   <g transform="translate(465.27 121.64)">
    <path d="m0 0c-2.666 0-4.828-0.801-4.828-1.789 0-0.989 2.162-1.79 4.828-1.79 2.667 0 4.828 0.801 4.828 1.79 0 0.988-2.161 1.789-4.828 1.789" fill="#fff"/>
   </g>
   <g transform="translate(463.32 119.43)">
    <path d="m0 0c0.084 0.119 0.151 0.252 0.202 0.395-0.051 0.142-0.118 0.275-0.202 0.394-0.43 0.611-1.126 0.611-1.555 0-0.084-0.119-0.151-0.252-0.202-0.394 0.051-0.143 0.118-0.276 0.202-0.395 0.429-0.611 1.125-0.611 1.555 0" fill="#010202"/>
   </g>
   <g transform="translate(468.78 119.43)">
    <path d="m0 0c0.084 0.119 0.151 0.252 0.202 0.395-0.051 0.142-0.118 0.275-0.202 0.394-0.429 0.611-1.126 0.611-1.555 0-0.084-0.119-0.151-0.252-0.202-0.394 0.051-0.143 0.118-0.276 0.202-0.395 0.429-0.611 1.126-0.611 1.555 0" fill="#010202"/>
   </g>
   <g transform="translate(462.1 123.43)">
    <path d="m0 0c0.409 0.409 0.688 0.793 0.575 0.906s-0.575-0.088-0.984-0.497-0.61-0.871-0.497-0.984 0.497 0.166 0.906 0.575" fill="#fff"/>
   </g>
   <g transform="translate(462.49 120.42)">
    <path d="m0 0c0.055-0.085-0.02-0.23-0.167-0.325s-0.311-0.103-0.365-0.018c-0.055 0.085 0.02 0.231 0.167 0.325 0.147 0.095 0.31 0.103 0.365 0.018" fill="#fff"/>
   </g>
   <g transform="translate(468.04 120.42)">
    <path d="m0 0c0.055-0.085-0.02-0.23-0.167-0.325s-0.311-0.103-0.365-0.018c-0.055 0.085 0.02 0.231 0.167 0.325 0.147 0.095 0.31 0.103 0.365 0.018" fill="#fff"/>
   </g>
  </g>
 </g>
</svg>
