<svg width="1561.4pt" height="1379.9pt" version="1.1" viewBox="0 0 1561.4 1379.9" xmlns="http://www.w3.org/2000/svg">
 <path d="m635.52 257.88c10.48-4.61 23.17-4.02 33.07 1.79 5.95 3.45 10.82 8.75 13.72 14.99l98.49 219.39 98.93-220.21c3.07-6.15 8.04-11.44 14.2-14.56l17.38 113.04-97.27 216.87c-3.6 8.21-10.61 14.81-18.97 18-5.98 2.42-12.58 2.68-18.94 2.21-12.15-0.93-23.53-8.84-28.45-20.02l-97.38-217.09-97.97 218.36c-6.13 12.5-20.37 20.27-34.2 18.7-11.1-0.96-21.44-7.81-26.76-17.58-5.24-9.28-5.88-21.02-1.64-30.79l129-287.25c3.52-7.03 9.61-12.67 16.79-15.85z" fill="#71bf44"/>
 <g transform="translate(-68.934 -59.819)" fill="#2f8432">
  <path d="m804.66 60.83c13.46-0.84 27.496-1.3176 40.43-0.79 13.68 1.02 25.53 11.57 29.41 24.52 3.6 11.23 1.77 24.16-5.17 33.75-5.92 8.48-15.92 14.16-26.33 14.33-38.52-1-77.25 3.87-114.15 15.05-70.14 20.95-133.23 64.22-178.62 121.57-50.72 63.5-79.24 144.42-78.98 225.73-0.27 7.31 0.84 14.83-1.33 21.95-2.45 8.69-8.26 16.38-15.97 21.08-9.39 5.84-21.55 6.86-31.81 2.76-10.47-4.08-18.68-13.33-21.61-24.17-1.88-6.03-1.15-12.39-1.28-18.6-0.81-84.7 24.08-169.41 70.37-240.33 41.04-63.27 98.72-115.7 165.83-150.16 52.35-27.09 110.39-43.04 169.21-46.69z"/>
  <path d="m962.86 319.1c16.43-9.77 40.42-3.11 48.88 14.27l128.6 286.3c5.49 11.44 3.96 25.8-3.69 35.91-7.41 10-20.41 15.31-32.71 13.41-11.04-1.59-21.07-8.87-25.9-18.93l-24.16-53.81h-101.45l25.13-54.985h51.66l-79.81-177.68c-8.1951-19.766-0.71129-35.317 13.45-44.48z"/>
  <path d="m1255.4 486.63c15.43-4.25 32.9 3.58 40.33 17.67 2.34 4.23 3.76 8.95 4.36 13.74 1.51 47.55-4.46 95.4-18.24 140.96-22.29 74.59-65.13 142.82-122.41 195.51-53.47 49.43-119.58 85.16-190.4 102.22-26.9 6.55-54.44 10.43-82.1 11.65-10.31 0.59-23.689 0.7038-30.95 0.53-13.77-0.44-26.13-10.43-30.56-23.29-4.26-11.85-2.45-25.85 5.27-35.88 6.44-8.75 17.3-14.23 28.24-13.51 53.64 1.12 107.57-9.6 156.41-31.93 65.54-29.66 121.66-79.52 159.19-140.87 36.71-59.42 55.46-129.63 53.68-199.44-1.27-16.82 10.71-33.49 27.18-37.36z"/>
 </g>
 <g transform="translate(-68.934 -59.819)" fill="#71bf44">
  <path d="m1262.7 1154.7c4.11-4.5 10.29-6.87 16.35-6.45 7.96-0.17 15.3 4.9 19.08 11.72 3.73 6.69 4.695 14.51 4.905 22.06v198.76h89.955c5.17 0.09 10.5 1.46 14.59 4.76 11.79 9.68 12.09 30.53 0.21 40.25-4.43 3.52-10.26 4.69-15.79 4.75h-105.98c-8.48 0.27-17.9-1.1-24.08-7.46-6.15-6.73-7.575-16.28-7.905-25.05v-217.98c0.31-8.98 2.235-18.64 8.665-25.36z"/>
  <path d="m179.89 1150c7.85-2.71 16.97-1.37 23.62 3.63 5.18 3.68 8.73 9.26 10.75 15.23l67.51 169.47c7.37-17.09 13.91-34.58 20.9-51.85 16.07-40.24 32.09-80.49 48.14-120.74 2.68-6.44 7.7-11.96 14.11-14.81 9.27-4.38 21.08-2.37 28.41 4.8 3.48 3.12 5.96 7.19 7.63 11.54l91.74 230.28c3.96 10.4 2.42 22.91-4.46 31.76-5.1 6.8-13.68 11-22.23 10.23-10.87-0.74-19.96-9.26-23.2-19.38l-67.34-168.99-67.75 170.55c-3.23 8.47-10.59 15.54-19.59 17.4-8.62 1.94-18.32-0.22-24.71-6.49-3.77-3.43-6.34-7.96-8.05-12.71l-67.12-168.67-67.15 168.7c-1.79 5.09-4.67 9.83-8.79 13.37-7.67 7.04-19.89 8.34-28.82 2.96-12.85-7.36-17.6-24.64-12.61-38.16l92.65-232.51c3.04-7.11 8.97-13.14 16.36-15.61z"/>
  <path d="m635.99 1151.9c7.36-4.25 16.89-4.47 24.41-0.49 6.16 3.02 10.79 8.6 13.32 14.91l92.03 230.98c5.34 13.33 1.03 30.42-11.31 38.33-7.14 4.68-16.78 5.23-24.36 1.3-5.88-2.92-10.45-8.12-13.06-14.09l-16.889-42.372h-73.301l19.8-48.732h34.13l-32.11-80.605-67.83 170.55c-2.46 6.56-7.38 12.2-13.66 15.34-7.94 3.98-17.97 3.19-25.15-2.04-11.42-7.89-15.28-23.9-10.77-36.68l92.31-231.72c2.35-6.11 6.75-11.43 12.44-14.68z"/>
  <path d="m782.6 1156.6c4.52-2.97 10.05-3.835 15.37-3.835h134.05c7.16 0.05 14.82-0.615 21.38 2.865 6.77 3.43 10.66 10.89 11.39 18.24 0.87 7.66-0.61 16.09-5.98 21.93-4.42 4.95-11.28 6.89-17.72 7h-47.86v173.24c-0.08 10.36 0.29 20.74-0.45 31.1-0.73 7.87-2.93 16.17-8.8 21.82-6.6 7.01-18.1 8.1-26.28 3.31-4.28-2.6-7.69-6.59-9.67-11.18-3.61-7.79-3.955-16.58-3.785-25.01v-193.28h-48.315c-6.64-0.14-13.75-2.37-17.95-7.8-5.18-6.39-6.14-15.19-4.88-23.07 0.93-6.11 4.23-11.97 9.5-15.33z"/>
  <path d="m1022.5 1161.4c5.1-6.39 13.63-8.515 21.47-8.665h120.03c7.25-0.04 15.1 2.705 18.98 9.215 5.06 8.43 5.07 19.79 0.19 28.3-3.61 6.41-11.13 9.415-18.2 9.475h-100.48v63.01h87.55c5.05-0.11 10.38-0.175 14.98 2.245 6.46 3 10.1 10.05 10.77 16.91 0.82 7.55-0.79 15.98-6.48 21.42-4.26 4.2-10.5 5.4-16.28 5.42h-90.54v73.495h103.56c6.65-0.01 13.7 2.555 17.62 8.175 4.58 6.14 5.23 14.26 4.22 21.63-0.98 6.04-4.28 11.94-9.6 15.18-3.97 2.46-8.72 3.23-13.31 3.28h-121.02c-8.09 0.13-16.99-1.52-22.73-7.69-6.19-7.01-7.425-16.84-7.755-25.81v-208.01c0.03-9.49 0.925-19.85 7.025-27.58z"/>
  <path d="m1462.5 1161.4c5.1-6.39 13.63-8.515 21.47-8.665h120.03c7.25-0.04 15.1 2.705 18.98 9.215 5.06 8.43 5.07 19.79 0.19 28.3-3.61 6.41-11.13 9.415-18.2 9.475h-100.48v63.01h87.55c5.05-0.11 10.38-0.175 14.98 2.245 6.46 3 10.1 10.05 10.77 16.91 0.82 7.55-0.79 15.98-6.48 21.42-4.26 4.2-10.5 5.4-16.28 5.42h-90.54v73.495h103.56c6.65-0.01 13.7 2.555 17.62 8.175 4.58 6.14 5.23 14.26 4.22 21.63-0.98 6.04-4.28 11.94-9.6 15.18-3.97 2.46-8.72 3.23-13.31 3.28h-121.02c-8.09 0.13-16.99-1.52-22.73-7.69-6.19-7.01-7.425-16.84-7.755-25.81v-208.01c0.03-9.49 0.925-19.85 7.025-27.58z"/>
 </g>
</svg>
