<svg id="e" version="1.1" viewBox="0 0 435.9 104" xml:space="preserve" xmlns="http://www.w3.org/2000/svg" xmlns:xlink="http://www.w3.org/1999/xlink">
<g id="f" transform="translate(-60.777 1441.3)">
	<g id="g">
		<defs id="h">
			<polygon id="d" points="1 2 1 1 2 1"/>
		</defs>
		<defs id="i">
			<polygon id="c" points="-1 -2 -1 -1 -2 -1"/>
		</defs>
		<clipPath id="b">
			<use id="j" width="100%" height="100%" xlink:href="#d"/>
		</clipPath>
		<clipPath id="a" clip-path="url(#b)">
			<use id="k" width="100%" height="100%" xlink:href="#c"/>
		</clipPath>
		<path id="l" d="m75.4 61.1" clip-path="url(#a)"/>
	</g>
</g>
<g id="m" transform="translate(-60.777 1441.3)"><path id="n" d="m75.577-1367.2v-0.3l-14.8-0.4 14.7 15.9z" fill="#1a75a4"/><path id="o" d="m145.78-1357.7 15.2 3.2-5.8-15.5z" fill="#3c80ad"/><path id="p" d="m83.877-1357.6-8.3-9.9-0.1 15.5z" fill="#84a7c9"/><path id="q" d="m155.18-1370 5.8 15.5 7.4-13.4z" fill="#9bb6d3"/><path id="r" d="m146.28-1400.3 3.7-7.3-15.6-33.7z"/><path id="s" d="m168.38-1367.9-18.4-39.7-3.7 7.3 8.9 30.3z"/><path id="t" d="m122.78-1380.2-14.6-29.8-6.1 13 3.6 16.8 9 42.9z" fill="#9bb7d3"/><path id="u" d="m122.78-1380.2 11.6-61.1-20.3 43.3z" fill="#3c80ad"/><path id="v" d="m83.877-1357.6 10.4-22.6-10.6-22.1-8.1 34.8z" fill="#9bb6d3"/><path id="w" d="m126.88-1401.8 9.3 21.7v-0.1 0.1l10.1-20.2-11.9-41z"/><path id="x" d="m145.78-1357.7 9.4-12.3-8.9-30.3-10.1 20.1z" fill="#6d9ac0"/><path id="y" d="m108.18-1410-15.4-31.2 1.5 61z"/><path id="z" d="m94.277-1380.2-1.5-61-9.1 38.9z" fill="#b0c4dc"/><path id="aa" d="m75.477-1367.5h0.1l17.2-73.7-32 73.3z" fill="#4a87b1"/><path id="ab" d="m105.68-1380.2-3.6-16.8-7.8 16.8 20.4 42.9z" fill="#558cb6"/><path id="ac" d="m129.38-1366.7 6.8-13.4-9.3-21.7-4.1 21.6z" fill="#9bb6d3"/><path id="ad" d="m122.78-1380.2-8.1 42.9 14.7-29.4z"/><path id="ae" d="m146.28-1400.3 3.7-7.3-15.6-33.7z" fill="#e3eaf3"/><path id="af" d="m108.18-1410-15.4-31.2 1.5 61z" fill="#e3eaf4"/><path id="ag" d="m114.68-1337.3 14.7-29.4-6.6-13.5z" fill="#e3eaf3"/><path id="ah" d="m168.38-1367.9-18.4-39.7-3.7 7.3 8.9 30.3z" fill="#c3d2e5"/><path id="ai" d="m126.88-1401.8 9.3 21.7v-0.1 0.1l10.1-20.2-11.9-41z" fill="#c8d6e8"/></g>
<g id="aj" transform="translate(-60.777 1441.3)" fill="#2a4b84"><g id="ak"><path id="al" d="m223.28-1393.9h-0.1l-8.7 24.4h-2.7l-8.4-24.4h-0.1l-3.4 23.9h-7.6l6.5-39.5h5.3l9.5 25.4 9.1-25.4h5.4l5.8 39.5h-7.6z"/><path id="am" d="m242.28-1408.6h9.3c7.2 0 11.5 2.8 11.5 10.5 0 2.8-1 5.9-3.4 7.5 4.5 0.8 6.6 5.4 6.6 9.7 0 7.6-5.3 10.9-12.3 10.9h-11.8zm7.5 16.1h0.9c3.7 0 5.5-1.1 5.5-5.1 0-3.9-2.2-5-5.4-5h-1zm0 16.4h1.6c4 0 7.5-0.5 7.5-5.5s-4.1-5.2-7.9-5.2h-1.2z"/><path id="an" d="m292.38-1376.6h10.6v6.5h-18.1v-38.5h7.5z"/><path id="ao" d="m327.28-1370h-7.5v-38.6h7.5z"/><path id="ap" d="m356.78-1382.6h0.1l8.6-26h8.1l-15 39.5h-4.4l-14.7-39.5h8.1z"/><path id="aq" d="m393.28-1402v8.5h12v6.5h-12v10.4h12.4v6.5h-19.9v-38.5h19.9v6.5h-12.4z"/></g><path id="ar" d="m438.38-1408.6c-7.8 0-14.2 6.3-14.2 14.2v24.4h58.3c7.8 0 14.2-6.3 14.2-14.2v-24.4zm15.7 13.8h-4.2l-2.4 15.3h-5.1l2.4-15.3h-4.2l0.7-4.3h13.5zm14.7 15.3h-3.9l-5.1-19.6h5.5l2.9 11.9 6.6-11.9h5.5z"/></g>
</svg>
