<svg space="preserve" version="1.1" viewBox="0 0 1067.9 588.9" xmlns="http://www.w3.org/2000/svg">
 <link href="" rel="stylesheet" type="text/css"/>
 <style type="text/css"/>
 <style type="text/css">.st0{fill:#C51326;}</style>
 <path class="st0" d="m778.7 435.6h-38.8v149.2h-50.8v-149.2h-38.8v-47.9h128.5v47.9z" fill="#c51326"/>
 <path class="st0" d="m1003.4 387.6c8.5 0 16.6 1.2 24.5 3.5s14.7 5.8 20.6 10.5 10.6 10.5 14.1 17.5 5.3 15.2 5.3 24.5v17.4c0 9.2-1.8 17.3-5.3 24.5s-8.2 13.2-14.1 18.1-12.7 8.7-20.6 11.3-16 3.9-24.5 3.9h-12.7v66h-50.8v-197.2zm-12.7 83.7h12.2c4.5 0 8.5-1.4 12.2-4.1 3.6-2.7 5.4-7.4 5.4-13.9 0-6.3-1.8-10.9-5.4-13.6s-7.7-4.1-12.2-4.1h-12.2z" fill="#c51326"/>
 <path class="st0" d="m902.3 398.3c-4.4-3.4-9.2-6.1-14.5-8.2l-20.7 44.8-0.4 0.8c0.4 0.4 0.8 0.7 1.1 1.2 2.2 2.8 3.2 5.9 3.2 9.3v79.7c0 3.5-1.1 6.6-3.2 9.5-2.2 2.9-5.6 4.3-10.2 4.3s-8-1.4-10.1-4.3-3.1-6-3.1-9.5v-79.7c0-3.5 1-6.6 3.1-9.3 0.5-0.6 1-1.2 1.6-1.6l-0.2-0.3-20.8-45.1c-5.6 2.1-10.6 4.9-15 8.5-5.9 4.7-10.6 10.6-14.1 17.9s-5.3 15.9-5.3 25.9v88.8c0 10.2 1.8 18.9 5.3 26.2s8.2 13.2 14.1 17.9 12.7 8.1 20.5 10.4c7.8 2.2 15.8 3.4 24.1 3.4 8.5 0 16.5-1.1 24.2-3.4 7.7-2.2 14.5-5.7 20.5-10.4s10.7-10.6 14.2-17.9 5.3-16 5.3-26.2v-89c0-10-1.8-18.6-5.3-25.9-3.6-7.2-8.4-13.2-14.3-17.8z" fill="#c51326"/>
 <path d="m343.8 0.9 69 359.2h-82.8l-26.6-138.6-96.7 209.2-96.7-209.2-26.6 138.6h-83.4l69.6-359.2h39.4l97.7 217.6 98.4-217.6h38.7" fill="#c51326"/>
 <path d="m995.1 0.9 69 359.2h-82.7l-26.7-138.6-96.7 209.2-96.7-209.2-26.6 138.6h-83.4l69.7-359.2h39.3l97.7 217.6 98.4-217.6h38.7" fill="#c51326"/>
 <path class="st0" d="m571 0c33.3 0 65.1 10.3 91.1 26.5l-15.2 79.1c-23.8-14.6-52-23.4-76-23.4-53.7 0-97.3 44.2-97.3 98.7s41.7 98.7 104.7 98.7h71.2l-15.5 80.5h-49.6c-113.5 0-190.6-80.4-190.6-179.6 0-101.6 73.6-180.5 177.2-180.5" fill="#c51326"/>
</svg>
