<svg version="1.1" viewBox="0 0 249.89 72.381" xml:space="preserve" xmlns="http://www.w3.org/2000/svg">
<g transform="translate(-14.41 -13.119)">
	<path d="m31.3 61.7v23.3h-6.3v-23.3h-8.9v-5h24.1v5zm31.4 23.3v-12h-11.3v12h-6.3v-28.3h6.3v11.3h11.3v-11.3h6.3v28.3zm25.5 0.5c-6.9 0-11.9-3.6-11.9-10.9v-17.9h6.3v17.7c0 3.7 1.7 6.5 5.7 6.5s5.8-2.8 5.8-6.5v-17.7h6.3v17.7c-0.1 7.3-5.3 11.1-12.2 11.1zm-6.3-31.8v-4.7h4.5v4.7zm8.2 0v-4.7h4.5v4.7zm33.6 31.3-2.9-8.1c-1-2.8-1.6-3.6-4.7-3.6h-2.3v11.7h-6.2v-28.3h11.6c4.8 0 9.6 1.9 9.6 7.5 0 3.9-2.9 6.2-6.5 6.9 2.5 0.5 3.6 1.8 4.5 4.2l3.7 9.7zm-6.9-24.1h-3v8.2h2.8c2.9 0 5.9-0.9 5.9-4.3 0-3.3-2.7-3.9-5.7-3.9zm19.1 24.1v-28.3h6.3v28.3zm30.2 0-10.5-23.2v23.2h-5.6v-28.3h9.2l10.5 23.2v-23.2h5.6v28.3zm30.5 0.5c-9.1 0-15.5-5.3-15.5-14.6 0-9 6.9-14.6 15.6-14.6 2.8 0 6.1 0.4 8.8 1.3l-0.3 4.8c-2.3-1.1-4.8-1.6-7.3-1.6-6.2 0-10.3 3.9-10.3 10.2 0 5.7 2.9 10.2 9 10.2 1.5 0 3-0.2 4.4-0.7v-6.1h-3.7v-4.1h9.3v13.7c-3.2 1-6.5 1.5-10 1.5zm17-0.5v-28.3h18.5v4.3h-12.3v7.4h11.8v4.3h-11.8v7.9h12.7v4.4zm41.5 0-10.5-23.2v23.2h-5.6v-28.3h9.2l10.5 23.2v-23.2h5.6v28.3z" fill="#006cb7"/>
</g>
<g transform="translate(0 35.336)" fill="#006cb7"><g transform="matrix(1.0365 0 0 1.0365 0 .21746)"><path d="m107.18-28.651c0-4.1122-2.175-4.7019-5.0862-4.7019h-1.6469v9.3815h1.6429c1.9642 0.02174 5.0901-0.35035 5.0901-4.6796zm1.1576 0.04219c0 2.081-0.45344 3.2098-1.6449 4.2754-1.3833 1.116-2.6337 1.4104-4.5166 1.4165h-2.8488v-11.384h3.3731c1.8437 0 3.1157 0.41019 4.1056 1.332 1.1298 1.1897 1.5315 2.4396 1.5315 4.3599z"/><path d="m88.674-34.255v11.268h1.0986v-5.3894h6.3833v5.3894h1.0986v-11.268h-1.0986v4.9748h-6.3833v-4.9748z" stroke-width=".043674"/></g><g transform="matrix(.081074 0 0 .081074 0 -34.256)"><path d="m698.77 42.42c0.04-14.14-0.08-28.28 0.06-42.42 30.21 0.06 60.41 0 90.61 0.03 5.93 0.08 12.11 1.97 16.38 6.24 4.45 4.52 6.23 11.06 6.11 17.28-0.03 87.34 0.02 174.68-0.03 262.01 0.74 3.66-3.92 5.07-6.19 2.78-28.5-25.01-58.07-48.78-87.92-72.15-13.17-9.78-28.02-17.85-44.28-20.87-17.94-3.46-37.11-0.69-53.15 8.13-17.64 9.5-31.22 26.04-37.51 45.02-5.46 15.73-4.99 32.91-1.56 49.03 3.97 18.7 13.04 35.89 23.91 51.47-21.12 0.19-42.25 0.04-63.38 0.08-15.95-24.96-21.51-55.36-19.51-84.61 5.29-49.38 38.7-95.69 85.56-113.41 22.07-8.51 46.32-10.75 69.73-7.87 28.93 3.48 56.07 17.65 76.33 38.46 0.16-40.04 0.04-80.08 0.06-120.12 0.1-6.05-1.78-12.9-7.31-16.16-6.67-4.06-14.79-2.43-22.17-2.66-8.58-0.44-17.18 0.35-25.74-0.26z"/><path d="m1048.3 144.42c11.4-1.98 23-2.5 34.56-2.41-0.01 17.28 0.02 34.56-0.02 51.84-20.54 0.07-40.05 8.32-57.27 18.96-28.83 17.96-52.77 42.39-76.19 66.71-12.52 12.81-24.67 25.98-37.08 38.88-2.33 2.26-6.95 0.74-6.22-2.91-0.1-34.99-0.03-69.99-0.04-104.98 0.19-5.59-0.32-11.87-4.42-16.09-3.52-3.96-9.08-5.16-14.15-5.2-12.62-0.02-25.23 0-37.84-0.01-0.03-14.15-0.02-28.3 0-42.46 29.95-0.01 59.9 0 89.86 0 6.29-0.14 12.88 1.84 17.35 6.45 4.13 4.36 5.76 10.48 5.91 16.36 0.06 8.34-0.08 16.68 0.06 25.02 12.56-12.21 26.3-23.3 41.31-32.35 13.85-7.8 28.34-15.18 44.18-17.81z"/><path d="m182.61 148.72c19.98-7.5 42.38-9.1 62.94-3.01 14.21 4.19 27.04 13.09 35.57 25.26 3.86 5.3 6.64 11.28 9.05 17.37 22.31-25.59 54.63-42.21 88.41-45.56 18.68-2.19 38.31-0.31 55.19 8.45 22.51 11.23 38.52 33.62 43.33 58.15 2.93 13.18 2.12 26.73 2.23 40.12-0.01 13.29 0.01 26.57-0.01 39.86-18.83 0.02-37.65 0.02-56.48 0-0.01-16.27-0.01-32.54 0-48.81 0-9.95-0.22-20.37-4.83-29.43-3.5-7.37-10.32-12.95-18.14-15.19-14.52-4.3-30.4-1.57-43.71 5.24-17.75 8.95-32.15 23.01-46.34 36.65-16.89 16.48-33.26 33.49-49.11 50.95-1.98 2.44-6.45 1.31-6.34-2.05-0.18-17.73 0.05-35.47-0.11-53.2-0.08-9.87-2.43-20.2-8.91-27.9-5.66-6.74-14.26-10.26-22.83-11.32-13.69-1.85-27.57 2.01-39.34 8.94-16.04 9.35-29.51 22.36-42.76 35.2-26.48 25.54-51.54 52.48-76.97 79.04-1.89 2.83-7.25 1.89-6.72-1.94-0.12-35.99-0.01-71.99-0.05-107.99-0.16-4.81-1.26-9.95-4.74-13.49-3.49-3.53-8.64-4.76-13.46-4.83-12.82-0.08-25.65 0.08-38.48-0.08 0.12-14.15-0.07-28.29 0.1-42.43 30.12 0.08 60.25 0 90.38 0.03 6.01-0.05 12.31 1.8 16.61 6.19 4.41 4.28 6.14 10.61 6.15 16.62 0.08 8.35-0.06 16.71 0.07 25.06 19.87-19.48 43.08-36.16 69.3-45.9z"/></g></g></svg>
