<svg enable-background="new 0 0 800 800" version="1.1" viewBox="0 0 800 800" xml:space="preserve" xmlns="http://www.w3.org/2000/svg">





<g fill="#FA9200"><path d="m475.9 7.2-4.6 16.8c7.9 1.4 15.7 3.2 23.4 5.2l4.4-16.7c-7.7-2-15.5-3.7-23.4-5.2"/><path d="m517.5 17.6-4.7 16.6c202.1 61.8 315.8 275.7 254 477.9s-275.7 315.8-477.8 254-315.9-275.7-254.1-477.8c54.9-179.4 231.7-292.6 417.6-267.3l4.7-16.9c-18.9-2.7-37.9-4-57-4.1-220.8-0.2-400 178.8-400.2 399.7s178.8 400.1 399.7 400.3 400.1-178.8 400.3-399.7c0.1-175.8-114.5-331.1-282.5-382.7"/><path d="m589.2 583.2c-100.9 139.3-295.7 170.5-435 69.5s-170.5-295.7-69.5-435.1 295.7-170.5 435-69.5c120.8 87.5 162.6 248.5 99.7 383.7l15.4 8c77.7-165.6 6.4-362.9-159.3-440.5s-362.9-6.3-440.5 159.3-6.4 362.9 159.3 440.5c144.9 68 317.8 22.5 410.5-107.9l-15.6-8z"/><path d="m626.3 556.7-15.4-8c-3.4 6.4-7.1 12.7-11 18.8l15.4 8c3.9-6.1 7.6-12.4 11-18.8"/><path d="m0.1 400.7c0-154.3 125.1-279.3 279.3-279.3s279.3 125.1 279.3 279.3-125 279.4-279.2 279.4c-154.3 0-279.4-125.1-279.4-279.4"/></g>


<g fill="#fff"><path d="m87.2 375.9h-0.6v94.3h-26.9v-134.7h24.2l42 56.6h2.1l42-56.6h24.2v134.7h-26.6v-94.3h-0.5c-0.5 1.6-1.1 3.4-1.9 5.1-0.7 1.8-1.5 3.1-2.4 4.8-0.9 1.8-2 3.5-3.2 5.1l-18.8 25.3h-27.2l-18.8-25.2c-1.3-1.6-2.4-3.3-3.3-5.1l-2.4-4.8c-0.7-1.9-1.4-3.6-1.9-5.2"/><path d="m368.8 428.8h26.9c0 5.7 3.4 10.3 10.4 13.7 8.6 3.8 18 5.5 27.3 5.1 9.7 0.6 19.3-1.2 28.2-5.1 5.8-2.5 9.5-8.2 9.6-14.5-0.1-5.5-3.9-10.3-9.3-11.7-9.5-2.9-19.5-4.2-29.5-3.7-21.4 0-36.9-2.9-46.5-8.8s-14.4-15.7-14.4-29.4c-0.7-12.6 5.3-24.5 15.8-31.5 10.5-7.2 25.9-10.8 46.2-10.8 8.6-0.1 17.2 1 25.5 3.1 7 1.8 13.6 4.8 19.5 8.8 5.2 3.5 9.4 8.2 12.5 13.6 3 5.4 4.5 11.5 4.4 17.6h-26.9c-0.2-6.1-3.9-11.5-9.6-13.8-8-3.7-16.7-5.5-25.5-5.1-23.3 0-35 6-35 18.1 0 5.2 3.5 9.7 8.5 11 9 2.6 18.5 3.7 27.9 3.2 22.3 0 38.4 3.1 48.5 9.4s15.1 16.2 15 29.8c0.7 13-5.6 25.5-16.4 32.8-11 7.3-27.2 11-48.4 11-8.9 0.1-17.8-0.9-26.4-3.1-7.2-1.8-14.1-4.8-20.4-8.8-5.4-3.5-9.9-8.1-13.2-13.6-3.1-5.3-4.8-11.4-4.7-17.6"/><path d="m335.5 401.1c5.3 2.6 9.7 6.7 12.9 11.6 3.1 5.1 4.6 11 4.4 17 1.4 20.9-14.4 39-35.3 40.4-1.7 0.1-3.4 0.1-5.1 0h-94.1v-134.6h88.9c21-1.4 39.1 14.5 40.4 35.5 0.1 1.6 0.1 3.3 0 4.9 0.4 9.9-4.1 19.3-12.1 25.2m-28.3-41.4h-61.7v30.9h61.7c3.6 0.2 7.2-1.1 9.8-3.7 2.5-2.6 3.8-6.2 3.7-9.8v-4c0.4-6.9-4.9-12.9-11.8-13.2h-1.6m5.3 55.1h-67.4v30.9h67.4c6.9 0.4 12.9-4.9 13.2-11.8v-5.7c0.5-6.9-4.6-12.9-11.4-13.4-0.6 0-1.2-0.1-1.8 0"/></g>
</svg>
