<svg version="1.1" viewBox="0 0 625.1 159.5" xml:space="preserve" xmlns="http://www.w3.org/2000/svg">
<g fill="#0877b9"><path d="m189.9 65.7v-41.5h-1.7s-4.9 13.3-28.2 18.5c-9.9-24.4-33.9-41.7-61.8-41.7-22.3 0-42 11-54.1 27.8-1.9-2-4.5-3.2-7.3-3.2-5.1 0-9.5 3.8-10.1 8.9 0 0.4-0.3 0.7-0.6 0.8s-0.8 0.1-1.1-0.1l-0.3-0.2c-1.8-1.5-4.2-2.3-6.6-2.3-5.7 0-10.3 4.6-10.3 10.3 0 2.6 1 5 2.7 7 0.3 0.3 0.3 0.7 0.2 1.1-0.2 0.4-0.5 0.6-0.9 0.6-5.5 0.3-9.8 4.8-9.8 10.3s4.3 10 9.8 10.3c0.4 0 0.8 0.3 0.9 0.6 0.2 0.4 0.1 0.8-0.2 1.1-1.6 1.9-2.5 4.3-2.5 6.8 0 5.7 4.6 10.3 10.3 10.3 2.3 0 4.5-0.7 6.3-2.1 0.1-0.2 0.4-0.3 0.6-0.4 0.5-0.1 1.1 0.2 1.2 0.7v0.2c0.6 5.3 5 9.2 10.3 9.2 0.8 0 1.6-0.1 2.3-0.3 11.1 21.3 33.5 35.9 59.2 35.9 24.5 0 46-13.3 57.6-33.1h3.1c17.1 0 30.9-12.8 30.9-29.9h-79.3c-17.1 0-30.9 12.8-30.9 29.9h69.3c-10.9 16.4-29.6 27.2-50.7 27.2-23.5 0-43.9-13.4-54.1-33 1.7-1.7 2.8-4 2.9-6.5 0-0.4 0.3-0.7 0.6-0.9 0.4-0.2 0.8-0.1 1.1 0.2 1.9 1.6 4.3 2.5 6.7 2.5 5.7 0 10.3-4.6 10.3-10.3 0-2.4-0.8-4.7-2.3-6.5-0.3-0.1-0.6-0.5-0.6-0.9v-0.1c0-0.5 0.4-1 0.9-1h0.2c4-0.3 7.3-2.8 8.8-6.3h117.2zm-153.2 7.5c-6.3 0-11.5-5.2-11.5-11.5s5.2-11.5 11.5-11.5 11.5 5.2 11.5 11.5c0 6.4-5.1 11.5-11.5 11.5m36.6-13.3c-0.8-4.4-4.5-8-9-8.5-0.3 0.1-0.6 0.1-0.9-0.1s-0.5-0.5-0.5-0.9v-0.4c0.1-0.2 0.2-0.4 0.4-0.5 1.5-1.8 2.4-4.2 2.4-6.5 0-5.7-4.6-10.3-10.3-10.3-2.4 0-4.8 0.9-6.6 2.4l-0.2 0.2c-0.3 0.3-0.7 0.4-1.1 0.3-0.2-0.1-0.4-0.3-0.6-0.5 10.8-17 29.7-28.2 51.2-28.2 25.1 0 46.6 15.2 55.9 36.9-4.4 0.6-9.3 1-14.8 1h-29.2l-1.7 15.1z"/><g transform="translate(0,-6.5141)"><polygon transform="translate(-30.7 -36.586)" points="602 75.7 651.8 75.7 650.4 87.2 631.5 87.2 624.6 144.3 612.2 144.3 619.1 87.2 600.6 87.2"/><polygon transform="translate(-30.7 -36.586)" points="602 75.7 651.8 75.7 650.4 87.2 631.5 87.2 624.6 144.3 612.2 144.3 619.1 87.2 600.6 87.2"/><polygon transform="translate(-30.7 -36.586)" points="268.8 96.6 268.6 96.6 255.5 144.3 243 144.3 262 75.7 275.6 75.7 285 118.9 304.6 75.7 317.8 75.7 320.5 144.3 308.5 144.3 306.7 97.9 306.6 97.9 285 144.3 279.1 144.3"/><polygon transform="translate(-30.7 -36.586)" points="339.1 132.9 369.3 132.9 368 144.3 325.3 144.3 333.5 75.7 369.9 75.7 368.5 87.2 344.5 87.2 342.6 103.4 363.7 103.4 362.3 114.9 341.2 114.9"/><path d="m371.9 39.114c23.2 0 30.1 18.5 30.1 33.4 0 20.4-12 35.2-27.5 35.2h-30.1l8.1-68.6zm-13.8 57.2h11.6c13.8 0 19.4-12.1 19.4-23.9 0-12.1-6.8-21.7-19.6-21.7h-6z"/><polygon transform="translate(-30.7 -36.586)" points="442.9 75.7 455.3 75.7 447.1 144.3 434.7 144.3"/><path d="m473.2 107.71h-12.7l-1.8-15h-18.1l-5.6 15h-13.7l28.5-69.5h13.2zm-29-24.7h13.5l-3.1-30.4h-0.2z"/><path d="m517.1 55.714c-3.8-3.2-10-6-14.4-6-4.5 0-8.2 3-8.2 7.5 0 9.9 21.4 11.2 21.4 30.4 0 11.1-6.7 21-19.7 21-8.5 0-14.6-2.5-19.8-6.5l1.9-12c4.7 4 11.6 7 16.5 7 5.1 0 8.4-3 8.4-7.5 0-11.4-21.4-12.7-21.4-30.7 0-11.9 8.7-20.7 20.5-20.7 5.6 0 11.6 1.9 16.7 5.4z"/><polygon transform="translate(-30.7 -36.586)" points="564.4 132.9 594.7 132.9 593.3 144.3 550.7 144.3 558.9 75.7 595.3 75.7 593.9 87.2 569.9 87.2 567.9 103.4 589 103.4 587.7 114.9 566.6 114.9"/><polygon transform="translate(-30.7 -36.586)" points="268.8 96.6 268.6 96.6 255.5 144.3 243 144.3 262 75.7 275.6 75.7 285 118.9 304.6 75.7 317.8 75.7 320.5 144.3 308.5 144.3 306.7 97.9 306.6 97.9 285 144.3 279.1 144.3"/><polygon transform="translate(-30.7 -36.586)" points="339.1 132.9 369.3 132.9 368 144.3 325.3 144.3 333.5 75.7 369.9 75.7 368.5 87.2 344.5 87.2 342.6 103.4 363.7 103.4 362.3 114.9 341.2 114.9"/><path d="m371.9 39.114c23.2 0 30.1 18.5 30.1 33.4 0 20.4-12 35.2-27.5 35.2h-30.1l8.1-68.6zm-13.8 57.2h11.6c13.8 0 19.4-12.1 19.4-23.9 0-12.1-6.8-21.7-19.6-21.7h-6z"/><polygon transform="translate(-30.7 -36.586)" points="442.9 75.7 455.3 75.7 447.1 144.3 434.7 144.3"/><path d="m473.2 107.71h-12.7l-1.8-15h-18.1l-5.6 15h-13.7l28.5-69.5h13.2zm-29-24.7h13.5l-3.1-30.4h-0.2z"/><path d="m517.1 55.714c-3.8-3.2-10-6-14.4-6-4.5 0-8.2 3-8.2 7.5 0 9.9 21.4 11.2 21.4 30.4 0 11.1-6.7 21-19.7 21-8.5 0-14.6-2.5-19.8-6.5l1.9-12c4.7 4 11.6 7 16.5 7 5.1 0 8.4-3 8.4-7.5 0-11.4-21.4-12.7-21.4-30.7 0-11.9 8.7-20.7 20.5-20.7 5.6 0 11.6 1.9 16.7 5.4z"/><polygon transform="translate(-30.7 -36.586)" points="564.4 132.9 594.7 132.9 593.3 144.3 550.7 144.3 558.9 75.7 595.3 75.7 593.9 87.2 569.9 87.2 567.9 103.4 589 103.4 587.7 114.9 566.6 114.9"/></g><g transform="translate(0,-6.5141)"><path d="m591.7 166.01h-7.6l-1.1-8.9h-10.9l-3.4 8.9h-8.2l17.1-41.2h7.9zm-17.4-14.6h8.1l-1.8-18h-0.1z"/><path d="m591.7 166.01h-7.6l-1.1-8.9h-10.9l-3.4 8.9h-8.2l17.1-41.2h7.9zm-17.4-14.6h8.1l-1.8-18h-0.1z"/><polygon transform="translate(-30.7 -36.586)" points="251.9 162 259.4 162 254.4 202.6 247 202.6"/><polygon transform="translate(-30.7 -36.586)" points="309.4 162 339.3 162 338.4 168.8 327.1 168.8 323 202.6 315.5 202.6 319.6 168.8 308.6 168.8"/><path d="m376.1 166.01h-7.6l-1.1-8.9h-10.9l-3.4 8.9h-8.2l17.1-41.2h7.9zm-17.4-14.6h8.1l-1.8-18h-0.1z"/><polygon transform="translate(-30.7 -36.586)" points="461.6 195.8 477.4 195.8 476.6 202.6 453.3 202.6 458.2 162 465.7 162"/><polygon transform="translate(-30.7 -36.586)" points="534.9 162 542.3 162 537.4 202.6 529.9 202.6"/><polygon transform="translate(-30.7 -36.586)" points="251.9 162 259.4 162 254.4 202.6 247 202.6"/><polygon transform="translate(-30.7 -36.586)" points="309.4 162 339.3 162 338.4 168.8 327.1 168.8 323 202.6 315.5 202.6 319.6 168.8 308.6 168.8"/><path d="m376.1 166.01h-7.6l-1.1-8.9h-10.9l-3.4 8.9h-8.2l17.1-41.2h7.9zm-17.4-14.6h8.1l-1.8-18h-0.1z"/><polygon transform="translate(-30.7 -36.586)" points="461.6 195.8 477.4 195.8 476.6 202.6 453.3 202.6 458.2 162 465.7 162"/><polygon transform="translate(-30.7 -36.586)" points="534.9 162 542.3 162 537.4 202.6 529.9 202.6"/></g></g>
<g transform="translate(0,-6.5141)"><polygon class="st1" transform="translate(-30.7 -36.586)" points="523.2 52.9 524.6 43.1 655.8 43.1 654.5 52.9" fill="#c44638"/><polygon class="st0" transform="translate(-30.7 -36.586)" points="392 52.9 393.4 43.1 524.6 43.1 523.2 52.9" fill="#fff"/><polygon class="st2" transform="translate(-30.7 -36.586)" points="260.8 52.9 262.1 43.1 393.4 43.1 392 52.9" fill="#2b8f3f"/><path transform="translate(-30.7 -36.586)" d="m655.8 43.1-1.3 9.8h-131.3l1.4-9.8z" fill="#c51112"/><path transform="translate(-30.7 -36.586)" d="m524.6 43.1-1.4 9.8h-131.2l1.4-9.8z" fill="#fff"/><path transform="translate(-30.7 -36.586)" d="m393.4 43.1-1.4 9.8h-131.2l1.3-9.8z" fill="#2e9336"/></g>
</svg>
