<svg version="1.1" viewBox="0 0 800 204.45" xml:space="preserve" xmlns="http://www.w3.org/2000/svg"><g transform="matrix(1.3333 0 0 -1.3333 -266.94 1299.2)"><g transform="matrix(5.7571 0 0 5.7571 359.65 842.86)"><path d="m0 0c-0.849 0-1.172-0.807-1.172-1.554 0-0.764 0.323-1.588 1.172-1.588s1.172 0.807 1.172 1.588c0 0.756-0.297 1.554-1.172 1.554m0-3.787c-1.359 0-2.089 0.942-2.089 2.233s0.815 2.191 2.089 2.191c1.342 0 2.089-0.866 2.089-2.191 0-1.291-0.747-2.233-2.089-2.233" fill="#2f6abc"/></g><g transform="matrix(5.7571 0 0 5.7571 389.91 853.28)"><path d="m0 0c-0.128 0.051-0.281 0.076-0.416 0.076-0.578 0-0.595-0.586-0.595-0.823v-0.51h0.935v-0.611h-0.926v-3.634h-0.866v3.634h-0.807v0.611h0.807v0.493c0 0.696 0.187 1.468 1.248 1.468 0.212 0 0.476-0.016 0.671-0.093z" fill="#2f6abc"/></g><g transform="matrix(5.7571 0 0 5.7571 406.38 853.28)"><path d="m0 0c-0.127 0.051-0.28 0.076-0.416 0.076-0.578 0-0.595-0.586-0.595-0.823v-0.51h0.935v-0.611h-0.926v-3.634h-0.866v3.634h-0.807v0.611h0.807v0.493c0 0.696 0.187 1.468 1.248 1.468 0.212 0 0.476-0.016 0.671-0.093z" fill="#2f6abc"/></g><g transform="matrix(5.7571 0 0 5.7571 419.53 843.16)"><path d="m0 0c-0.722 0-1.061-0.772-1.061-1.316h2.012c0 0.603-0.229 1.316-0.951 1.316m-1.053-1.842c0-0.781 0.493-1.401 1.316-1.401 0.383 0 0.892 0.11 1.231 0.297l0.051-0.662c-0.424-0.162-0.959-0.229-1.417-0.229-1.393 0-2.056 0.908-2.056 2.233 0 1.163 0.739 2.19 1.92 2.19 1.265 0 1.774-0.976 1.774-2.174v-0.254z" fill="#2f6abc"/></g><g transform="matrix(5.7571 0 0 5.7571 450.52 821.6)"><path d="m0 0v2.505c0 0.594-0.11 1.163-0.84 1.163-0.79 0-1.037-0.688-1.037-1.358v-2.31h-0.849v3.269c0 0.323-8e-3 0.654-0.042 0.976h0.798l0.026-0.73c0.288 0.535 0.764 0.815 1.375 0.815 1.053 0 1.427-0.67 1.427-1.647v-2.683z" fill="#2f6abc"/></g><g transform="matrix(5.7571 0 0 5.7571 471.79 843.16)"><path d="m0 0c-0.722 0-1.061-0.772-1.061-1.316h2.012c0 0.603-0.229 1.316-0.951 1.316m-1.053-1.842c0-0.781 0.493-1.401 1.316-1.401 0.382 0 0.892 0.11 1.231 0.297l0.051-0.662c-0.424-0.162-0.959-0.229-1.418-0.229-1.392 0-2.054 0.908-2.054 2.233 0 1.163 0.738 2.19 1.919 2.19 1.265 0 1.774-0.976 1.774-2.174v-0.254z" fill="#2f6abc"/></g><g transform="matrix(5.7571 0 0 5.7571 500.04 841.69)"><path d="m0 0c-0.11 0.042-0.229 0.051-0.348 0.051-0.832 0-1.053-0.858-1.053-1.52v-2.021h-0.849v3.269c0 0.323-9e-3 0.654-0.043 0.976h0.799l0.025-0.815c0.178 0.45 0.611 0.9 1.155 0.9 0.119 0 0.238 0 0.356-0.033z" fill="#2f6abc"/></g><g transform="matrix(5.7571 0 0 5.7571 533.58 821.6)"><path d="m0 0-1.851 2.191v-2.191h-0.849v6.122h0.849v-3.626l1.69 1.749h1.036l-1.86-1.884 2.055-2.361z" fill="#2f6abc"/></g><g transform="matrix(5.7571 0 0 5.7571 557.14 833.58)"><path d="m0 0h-0.136c-0.688 0-1.741-0.06-1.741-0.909 0-0.458 0.374-0.67 0.79-0.67 0.815 0 1.087 0.636 1.087 1.35zm0.051-2.081-0.026 0.671c-0.254-0.475-0.797-0.764-1.333-0.764-0.764 0-1.409 0.382-1.409 1.214 0 1.104 1.053 1.486 2.301 1.486 0.11 0 0.288 0 0.416-8e-3v0.178c0 0.62-0.306 0.96-0.968 0.96-0.433 0-0.866-0.102-1.248-0.34l-0.051 0.653c0.39 0.162 0.951 0.281 1.375 0.281 1.096 0 1.724-0.476 1.724-1.614v-1.774c0-0.365 0.017-0.654 0.051-0.943z" fill="#2f6abc"/></g><g transform="matrix(5.7571 0 0 5.7571 584.27 821.6)"><path d="m0 0v2.505c0 0.594-0.11 1.163-0.84 1.163-0.79 0-1.037-0.688-1.037-1.358v-2.31h-0.849v3.269c0 0.323-8e-3 0.654-0.042 0.976h0.798l0.025-0.73c0.289 0.535 0.764 0.815 1.376 0.815 1.053 0 1.426-0.67 1.426-1.647v-2.683z" fill="#2f6abc"/></g><g transform="matrix(5.7571 0 0 5.7571 609.73 833.58)"><path d="m0 0h-0.136c-0.687 0-1.74-0.06-1.74-0.909 0-0.458 0.373-0.67 0.789-0.67 0.815 0 1.087 0.636 1.087 1.35zm0.051-2.081-0.025 0.671c-0.255-0.475-0.799-0.764-1.334-0.764-0.764 0-1.409 0.382-1.409 1.214 0 1.104 1.053 1.486 2.301 1.486 0.111 0 0.289 0 0.416-8e-3v0.178c0 0.62-0.305 0.96-0.968 0.96-0.433 0-0.866-0.102-1.248-0.34l-0.051 0.653c0.391 0.162 0.951 0.281 1.376 0.281 1.095 0 1.723-0.476 1.723-1.614v-1.774c0-0.365 0.017-0.654 0.051-0.943z" fill="#2f6abc"/></g><path d="m621.18 856.84h4.8877v-35.245h-4.8877z" fill="#2f6abc"/><g fill="#fff"><g transform="matrix(5.7571 0 0 5.7571 229.83 880.26)"><path d="m0 0v2.726c0 0.518-0.161 0.942-0.756 0.942-0.696 0-0.942-0.696-0.942-1.35v-2.318h-0.849v2.726c0 0.518-0.162 0.942-0.756 0.942-0.696 0-0.951-0.696-0.951-1.35v-2.318h-0.849v3.269c0 0.323-9e-3 0.654-0.043 0.976h0.799l0.025-0.73c0.28 0.544 0.722 0.815 1.299 0.815 0.671 0 1.112-0.399 1.24-0.866 0.204 0.527 0.756 0.866 1.299 0.866 0.925 0 1.342-0.628 1.342-1.503v-2.827z" fill="#fff"/></g><g transform="matrix(5.7571 0 0 5.7571 251.1 901.82)"><path d="m0 0c-0.722 0-1.061-0.773-1.061-1.316h2.012c0 0.603-0.229 1.316-0.951 1.316m-1.053-1.842c0-0.782 0.493-1.402 1.316-1.402 0.382 0 0.892 0.111 1.231 0.297l0.051-0.662c-0.424-0.161-0.959-0.229-1.418-0.229-1.392 0-2.055 0.909-2.055 2.233 0 1.164 0.739 2.191 1.919 2.191 1.266 0 1.775-0.977 1.775-2.174v-0.254z" fill="#fff"/></g><g transform="matrix(5.7571 0 0 5.7571 276.32 901.43)"><path d="m0 0c-0.875 0-1.061-0.832-1.061-1.545 0-0.696 0.203-1.571 1.07-1.571 0.823 0 1.078 0.9 1.078 1.571 0 0.679-0.263 1.545-1.087 1.545m1.163-3.677-0.051 0.705c-0.263-0.535-0.747-0.798-1.333-0.798-1.282 0-1.757 1.112-1.757 2.233 0 1.129 0.475 2.191 1.757 2.191 0.527 0 1.07-0.289 1.282-0.79v2.581h0.85v-4.848c0-0.467 0.016-0.874 0.042-1.274z" fill="#fff"/></g><path d="m294.01 904.7h4.8878v-24.439h-4.8878zm0 9.7755h4.8878v-4.7381h-4.8878z"/><g transform="matrix(5.7571 0 0 5.7571 315.23 901.82)"><path d="m0 0c-0.722 0-1.061-0.773-1.061-1.316h2.012c0 0.603-0.229 1.316-0.951 1.316m-1.053-1.842c0-0.782 0.493-1.402 1.316-1.402 0.382 0 0.892 0.111 1.231 0.297l0.051-0.662c-0.424-0.161-0.959-0.229-1.418-0.229-1.392 0-2.055 0.909-2.055 2.233 0 1.164 0.739 2.191 1.919 2.191 1.266 0 1.775-0.977 1.775-2.174v-0.254z" fill="#fff"/></g><g transform="matrix(5.7571 0 0 5.7571 346.22 880.26)"><path d="m0 0v2.505c0 0.594-0.11 1.163-0.84 1.163-0.79 0-1.036-0.688-1.036-1.358v-2.31h-0.849v3.269c0 0.323-9e-3 0.654-0.043 0.976h0.798l0.026-0.73c0.288 0.535 0.764 0.815 1.375 0.815 1.053 0 1.427-0.67 1.427-1.647v-2.683z" fill="#fff"/></g><g transform="matrix(5.7571 0 0 5.7571 368.85 901.43)"><path d="m0 0c-0.815 0-1.087-0.858-1.087-1.537 0-0.671 0.255-1.579 1.079-1.579 0.866 0 1.069 0.875 1.069 1.579 0 0.705-0.186 1.537-1.061 1.537m0.221-3.77c-0.544 0-1.07 0.28-1.282 0.781v-2.522h-0.849v4.738c0 0.493-0.017 0.926-0.043 1.342h0.807l0.034-0.73c0.229 0.501 0.798 0.815 1.35 0.815 1.29 0 1.74-1.062 1.74-2.191 0-1.112-0.475-2.233-1.757-2.233" fill="#fff"/></g><g transform="matrix(5.7571 0 0 5.7571 398.43 900.35)"><path d="m0 0c-0.11 0.042-0.229 0.051-0.348 0.051-0.832 0-1.053-0.858-1.053-1.52v-2.021h-0.849v3.269c0 0.323-8e-3 0.654-0.042 0.977h0.798l0.025-0.815c0.179 0.45 0.612 0.9 1.155 0.9 0.119 0 0.238 0 0.357-0.034z" fill="#fff"/></g><g transform="matrix(5.7571 0 0 5.7571 412.64 901.53)"><path d="m0 0c-0.849 0-1.172-0.807-1.172-1.554 0-0.764 0.323-1.588 1.172-1.588s1.172 0.807 1.172 1.588c0 0.756-0.297 1.554-1.172 1.554m0-3.787c-1.358 0-2.089 0.942-2.089 2.233s0.815 2.191 2.089 2.191c1.342 0 2.089-0.866 2.089-2.191 0-1.291-0.747-2.233-2.089-2.233" fill="#fff"/></g><path d="m430.19 914.48h4.9396v-4.7381h-4.9396zm-1.3184-45.314c-1.2723 0-2.5446 0.0979-3.7651 0.39148l0.29361 3.7651c0.53541-0.19574 1.1744-0.29361 1.7617-0.29361 2.7346 0 3.0282 2.0553 3.0282 4.3005v27.375h4.9396v-27.962c0-4.2487-1.5199-7.5763-6.2579-7.5763"/><g transform="matrix(5.7571 0 0 5.7571 451.46 901.82)"><path d="m0 0c-0.722 0-1.061-0.773-1.061-1.316h2.012c0 0.603-0.229 1.316-0.951 1.316m-1.053-1.842c0-0.782 0.492-1.402 1.316-1.402 0.382 0 0.892 0.111 1.231 0.297l0.051-0.662c-0.424-0.161-0.959-0.229-1.418-0.229-1.392 0-2.055 0.909-2.055 2.233 0 1.164 0.739 2.191 1.919 2.191 1.266 0 1.775-0.977 1.775-2.174v-0.254z" fill="#fff"/></g><g transform="matrix(5.7571 0 0 5.7571 482.3 880.26)"><path d="m0 0-1.851 2.191v-2.191h-0.849v6.122h0.849v-3.626l1.69 1.749h1.036l-1.86-1.884 2.055-2.361z" fill="#fff"/></g><g transform="matrix(5.7571 0 0 5.7571 500.09 879.72)"><path d="m0 0c-0.909 0-1.079 0.629-1.079 1.452v2.276h-0.78v0.611h0.78v0.917l0.858 0.28v-1.197h0.951v-0.611h-0.951v-2.378c0-0.365 0.094-0.679 0.527-0.679 0.161 0 0.314 0.034 0.466 0.102l0.043-0.629c-0.255-0.093-0.552-0.144-0.815-0.144" fill="#fff"/></g><g transform="matrix(5.7571 0 0 5.7571 507.23 880.26)"><path d="m0 0v0.688l2.361 2.946h-2.267v0.611h3.218v-0.687l-2.353-2.938h2.369v-0.62z" fill="#fff"/></g><g transform="matrix(5.7571 0 0 5.7571 540.81 901.82)"><path d="m0 0c-0.722 0-1.061-0.773-1.061-1.316h2.012c0 0.603-0.229 1.316-0.951 1.316m-1.053-1.842c0-0.782 0.492-1.402 1.316-1.402 0.382 0 0.891 0.111 1.231 0.297l0.051-0.662c-0.424-0.161-0.959-0.229-1.418-0.229-1.392 0-2.054 0.909-2.054 2.233 0 1.164 0.738 2.191 1.919 2.191 1.265 0 1.774-0.977 1.774-2.174v-0.254z" fill="#fff"/></g><g transform="matrix(5.7571 0 0 5.7571 571.8 880.26)"><path d="m0 0v2.505c0 0.594-0.11 1.163-0.841 1.163-0.789 0-1.035-0.688-1.035-1.358v-2.31h-0.85v3.269c0 0.323-8e-3 0.654-0.042 0.976h0.798l0.026-0.73c0.288 0.535 0.764 0.815 1.375 0.815 1.053 0 1.427-0.67 1.427-1.647v-2.683z" fill="#fff"/></g><g transform="matrix(5.7571 0 0 5.7571 591.5 879.72)"><path d="m0 0c-0.908 0-1.078 0.629-1.078 1.452v2.276h-0.781v0.611h0.781v0.917l0.857 0.28v-1.197h0.951v-0.611h-0.951v-2.378c0-0.365 0.094-0.679 0.527-0.679 0.161 0 0.314 0.034 0.467 0.102l0.043-0.629c-0.255-0.093-0.553-0.144-0.816-0.144" fill="#fff"/></g><g transform="matrix(5.7571 0 0 5.7571 613.5 900.35)"><path d="m0 0c-0.11 0.042-0.229 0.051-0.348 0.051-0.832 0-1.053-0.858-1.053-1.52v-2.021h-0.849v3.269c0 0.323-8e-3 0.654-0.043 0.977h0.799l0.025-0.815c0.178 0.45 0.612 0.9 1.155 0.9 0.119 0 0.238 0 0.357-0.034z" fill="#fff"/></g><g transform="matrix(5.7571 0 0 5.7571 633.84 880.26)"><path d="m0 0-0.026 0.722c-0.289-0.535-0.756-0.816-1.367-0.816-1.053 0-1.418 0.688-1.418 1.665v2.674h0.849v-2.496c0-0.594 0.111-1.172 0.841-1.172 0.79 0 1.027 0.688 1.027 1.359v2.309h0.849v-3.268c0-0.323 9e-3 -0.654 0.043-0.977z" fill="#fff"/></g><g transform="matrix(5.7571 0 0 5.7571 674.26 880.26)"><path d="m0 0v2.726c0 0.518-0.161 0.942-0.755 0.942-0.697 0-0.944-0.696-0.944-1.35v-2.318h-0.848v2.726c0 0.518-0.161 0.942-0.756 0.942-0.696 0-0.951-0.696-0.951-1.35v-2.318h-0.849v3.269c0 0.323-9e-3 0.654-0.042 0.976h0.798l0.025-0.73c0.28 0.544 0.722 0.815 1.299 0.815 0.671 0 1.112-0.399 1.24-0.866 0.204 0.527 0.755 0.866 1.299 0.866 0.925 0 1.342-0.628 1.342-1.503v-2.827z" fill="#fff"/></g><g transform="matrix(5.7571 0 0 5.7571 659.45 853.28)"><path d="m0 0c-0.127 0.051-0.28 0.076-0.416 0.076-0.577 0-0.594-0.586-0.594-0.823v-0.51h0.934v-0.611h-0.925v-3.634h-0.867v3.634h-0.807v0.611h0.807v0.493c0 0.696 0.187 1.468 1.248 1.468 0.213 0 0.476-0.016 0.671-0.093z" fill="#fff"/></g><g transform="matrix(5.7571 0 0 5.7571 679.05 821.6)"><path d="m0 0-0.025 0.722c-0.289-0.535-0.756-0.815-1.367-0.815-1.053 0-1.418 0.687-1.418 1.664v2.674h0.849v-2.496c0-0.594 0.11-1.171 0.84-1.171 0.79 0 1.028 0.687 1.028 1.358v2.309h0.849v-3.268c0-0.323 8e-3 -0.654 0.042-0.977z" fill="#fff"/></g><path d="m690.1 856.84h4.8877v-35.245h-4.8877z"/><g transform="matrix(5.7571 0 0 5.7571 711.61 842.77)"><path d="m0 0c-0.875 0-1.061-0.832-1.061-1.545 0-0.697 0.204-1.571 1.07-1.571 0.823 0 1.078 0.9 1.078 1.571 0 0.679-0.263 1.545-1.087 1.545m1.163-3.676-0.05 0.704c-0.264-0.535-0.748-0.798-1.334-0.798-1.282 0-1.757 1.113-1.757 2.233 0 1.13 0.475 2.191 1.757 2.191 0.527 0 1.07-0.289 1.282-0.79v2.582h0.85v-4.849c0-0.467 0.017-0.874 0.042-1.273z" fill="#fff"/></g><g transform="matrix(5.7571 0 0 5.7571 743.14 833.58)"><path d="m0 0h-0.136c-0.688 0-1.741-0.06-1.741-0.909 0-0.458 0.374-0.67 0.79-0.67 0.815 0 1.087 0.636 1.087 1.35zm0.051-2.081-0.026 0.671c-0.254-0.475-0.798-0.764-1.333-0.764-0.764 0-1.409 0.382-1.409 1.214 0 1.104 1.052 1.486 2.301 1.486 0.11 0 0.289 0 0.416-8e-3v0.178c0 0.62-0.306 0.96-0.968 0.96-0.433 0-0.866-0.102-1.248-0.34l-0.051 0.653c0.39 0.162 0.951 0.281 1.375 0.281 1.096 0 1.724-0.476 1.724-1.614v-1.774c0-0.365 0.017-0.654 0.051-0.943z" fill="#fff"/></g></g><g transform="matrix(5.7571 0 0 5.7571 800.2 921.1)"><path d="m0 0c0-5.114-4.145-9.258-9.259-9.258-5.113 0-9.257 4.144-9.257 9.258 0 5.113 4.144 9.259 9.258 9.259 5.113 0 9.258-4.146 9.258-9.259" fill="#2f6abc"/></g><g transform="matrix(5.7571 0 0 5.7571 757.53 921.05)"><path d="m0 0 2e-3 2e-3 -2e-3 2e-3 -2e-3 -2e-3zm-1.293-1.295 4e-3 -4e-3v-1.127c0-0.339-0.275-0.615-0.615-0.615h-2.782c-0.339 0-0.614 0.276-0.614 0.615v4.869c0 0.34 0.275 0.615 0.614 0.615h2.782c0.34 0 0.615-0.275 0.615-0.615v-1.141l-4e-3 -3e-3 1.293-1.295 3.556 3.566 6e-3 1.303-1.282-1e-3 -1.618-1.618v0.096c0 0.849-0.688 1.537-1.537 1.537h-4.841c-0.847 0-1.536-0.688-1.536-1.537v-6.684c0-0.849 0.689-1.536 1.536-1.536h4.841c0.849 0 1.537 0.687 1.537 1.536v0.084l1.618-1.617 1.282-3e-3v1.296l-3.562 3.574z" fill="#fff"/></g></g></svg>
