<svg version="1.1" viewBox="0 0 279.68 162.4" xmlns="http://www.w3.org/2000/svg">
 <link href="" rel="stylesheet" type="text/css"/>
 <style type="text/css"/>
 <defs>
  <style>.cls-1{fill:#0095da;}.cls-2{fill:#fff200;}.cls-3{fill:#fff;}</style>
 </defs>
 <g transform="translate(366.29 -4.3202)">
  <path class="cls-1" d="m-166.33 64.44a60.12 60.12 0 1 1-60.12-60.12 60.12 60.12 0 0 1 60.12 60.12z" fill="#0095da"/>
  <path class="cls-2" d="m-248.77 92.4h-17.8l6-61.56q0.86-8.82 3.81-12.58t10.89-3.77q11.37 0 13.41 13.77l5.47 36.25h0.53l5.47-36.25q1.08-6.94 4.42-10.38a12.06 12.06 0 0 1 9-3.39c5.37 0 9 1.22 11 3.66s3.18 6.67 3.75 12.69l6 61.56h-17.86l-3.54-60.91-9.23 51.21a13.09 13.09 0 0 1-3.32 7 8.17 8.17 0 0 1-12 0.11 13.73 13.73 0 0 1-3.32-7.1l-9.25-51.22z" fill="#fff200"/>
  <g fill="#fff">
   <path class="cls-3" d="m-262.18 105.07-3.14-8.57c-0.13-0.34-0.25-0.67-0.37-1v1.14s-0.17 8.16-0.17 8.44h-0.84s0.22-9.54 0.24-9.9h1.65c2.69 7.59 2.88 8.08 3.06 8.67 0.2-0.59 0.39-1.06 3.13-8.67h1.67s0.09 9.66 0.11 9.9h-0.91c0-0.25-0.12-8.37-0.12-8.37v-1.21c-0.16 0.39-0.3 0.83-0.44 1.23l-3.07 8.35z"/>
   <polygon class="cls-3" transform="translate(-286.57 4.3202)" points="32.33 90.85 37.56 90.85 37.56 91.59 33.29 91.59 33.29 95.22 37.21 95.22 37.21 95.97 33.29 95.97 33.29 100.01 37.94 100.01 37.94 100.75 32.33 100.75"/>
   <path class="cls-3" d="m-246.88 95.17h3.31c2.64 0 4.12 1.43 4.12 5 0 4.64-2.7 5-5 5h-2.43v-9.9zm3.14 9.15c3.06 0 3.38-2.43 3.38-4.25 0-2.35-0.62-4.18-3.44-4.18h-2.14v8.43z"/>
   <polygon class="cls-3" transform="translate(-286.57 4.3202)" points="49.39 90.85 50.33 90.85 50.33 100.75 49.39 100.75"/>
   <path class="cls-3" d="m-226.98 105.07-1.46-4.08h-3.72l-1.7 4.08h-0.92l4.21-9.9h0.93l3.67 9.9zm-3.23-8.85-1.65 4.1h3.11z"/>
   <path class="cls-3" d="m-217.57 97.85h-2.23c0-0.73-0.17-1.56-1.36-1.56a1.23 1.23 0 0 0-1.41 1.15c0 0.79 0.78 1.09 1.58 1.35l0.81 0.25c1.84 0.57 2.81 1.32 2.81 3 0 2.4-1.86 3.23-3.8 3.23-2.83 0-4.08-1-4.08-3v-0.23h2.41v0.11c0 0.8 0.25 1.74 1.6 1.74a1.34 1.34 0 0 0 1.5-1.41c0-0.87-0.55-1.1-1.65-1.46l-0.65-0.21c-1.78-0.58-2.92-1.17-2.92-2.94 0-2 1.49-3 3.83-3s3.56 0.94 3.56 2.84z"/>
   <polygon class="cls-3" transform="translate(-286.57 4.3202)" points="76.75 96.3 73.73 96.3 73.73 100.75 71.18 100.75 71.18 90.85 73.73 90.85 73.73 94.75 76.75 94.75 76.75 90.85 79.3 90.85 79.3 100.75 76.75 100.75"/>
   <path class="cls-3" d="m-201.18 105.32c-3.17 0-4.49-1.19-4.49-5 0-2.72 0.5-5.36 4.66-5.36 3.52 0 4.41 1.81 4.41 4.81 0 3.81-1.13 5.54-4.58 5.54zm0.11-9c-1.88 0-2 2-2 4.24 0 2.72 0.49 3.48 1.9 3.48s1.93-0.94 1.93-4.1c0-2-0.11-3.62-1.85-3.62z"/>
   <path class="cls-3" d="m-192.21 105.07h-2.55v-9.9h4.19c1.89 0 3.47 0.24 3.47 3.14 0 2.33-1.26 3.17-3.43 3.17h-1.7v3.59zm0.84-4.91c1.21 0 1.78-0.34 1.78-1.91 0-1.16-0.4-1.76-1.58-1.76h-1v3.67z"/>
  </g>
 </g>
 <path class="cls-1" d="m0.47593 144.38q-0.47 6.45-0.47 9.64a10.36 10.36 0 0 0 0.45 3.39 4.77 4.77 0 0 0 2.24 2.32 2.24 2.24 0 0 0 0.89 0.45c0.09 0 0.13 0 0.13-0.13a3.23 3.23 0 0 0-0.49-1.08 9.67 9.67 0 0 1-0.6-3.88q0-0.8 0.09-1.71 0.3-6.65 2.13-20.64a4.3 4.3 0 0 0 0.32-1.45c0-0.76-0.41-1.15-1.21-1.15a2.1 2.1 0 0 0-2.24 1.79q-0.45 1.8-1.26 12.45zm9 16.08c1.69 0 3.1-1.54 4.22-4.64s1.91-4.64 2.36-4.64 1 0.85 1.25 2.56 0.44 3.07 0.54 4.08 0.57 1.52 1.38 1.52c0.55 0 1.11-0.69 1.69-2.08s1.27-2.08 2.09-2.08c1.18 0.06 2 0.89 2.47 2.48s0.9 2.39 1.33 2.39 0.61-0.13 0.67-0.38a8.48 8.48 0 0 0 0.08-1.42 9.11 9.11 0 0 0-1.12-4.13 4 4 0 0 0-3.56-2.35 3.38 3.38 0 0 0-2.77 1.82 17.15 17.15 0 0 0-1.16-4.08q-0.76-1.74-2.16-1.74-3.75 0.28-6.43 9c-0.05 0-0.07-0.15-0.07-0.44q0-3.65 2.63-16.35-3.16 0-3.78 2.19a65.72 65.72 0 0 0-1.9 13.48q0 4.61 2.24 4.82zm22.88 0c1.69 0 3.09-1.54 4.21-4.64s1.91-4.64 2.37-4.64 1 0.85 1.25 2.56 0.43 3.07 0.54 4.08 0.56 1.52 1.37 1.52c0.56 0 1.12-0.69 1.7-2.08s1.27-2.08 2.08-2.08c1.19 0.06 2 0.89 2.47 2.48s0.91 2.39 1.33 2.39 0.62-0.13 0.67-0.38a7.24 7.24 0 0 0 0.09-1.42 9.24 9.24 0 0 0-1.12-4.13 4 4 0 0 0-3.6-2.35 3.39 3.39 0 0 0-2.78 1.82 16.7 16.7 0 0 0-1.16-4.08c-0.51-1.16-1.23-1.74-2.15-1.74q-3.75 0.28-6.44 9s-0.07-0.15-0.07-0.44q0-3.65 2.63-16.35c-2.11 0-3.37 0.73-3.77 2.19a65.72 65.72 0 0 0-1.9 13.48c0 3.07 0.74 4.68 2.24 4.82zm23.46-7.87a0.62 0.62 0 0 0-0.17 0.34c0 0.12 0.11 0.18 0.34 0.18a15.27 15.27 0 0 0 2.58-0.49 15.81 15.81 0 0 0 5.44-2.76 6.06 6.06 0 0 0 2.41-3.94 2.34 2.34 0 0 0-1-2 4.26 4.26 0 0 0-2.5-0.69 10.7 10.7 0 0 0-7.55 2.75 9.9 9.9 0 0 0-3 7.63 7.25 7.25 0 0 0 2.41 5.31 7.81 7.81 0 0 0 5.09 1.73 10.4 10.4 0 0 0 5.18-1.16 9.32 9.32 0 0 0 2.86-2.25 4.24 4.24 0 0 0 0.83-1.32c0-0.18-0.05-0.26-0.15-0.26a4.07 4.07 0 0 0-1 0.65 13 13 0 0 1-6.46 2.07 6 6 0 0 1-4.08-1.41 4.6 4.6 0 0 1-1.59-3.61 8.67 8.67 0 0 1 2.26-6.32 6.43 6.43 0 0 1 4.69-2.28c0.83 0 1.24 0.39 1.24 1.17q0 1.95-3.56 4a33.49 33.49 0 0 0-4.26 2.69zm14-6.3a28.07 28.07 0 0 1 0.41 5.67 22.73 22.73 0 0 1-0.17 2.83 26.42 26.42 0 0 0-0.17 3q0 2.19 0.9 2.19a2.15 2.15 0 0 0 1.42-0.51c0.4-0.34 0.64-1.58 0.7-3.73a10.3 10.3 0 0 1 1.9-5.75 7.79 7.79 0 0 1 4.12-3.19c1.55-0.44 2.32-0.87 2.32-1.29a1.45 1.45 0 0 0-0.36-0.78c-0.23-0.33-1-0.49-2.2-0.49q-3 0.11-5.83 3.85 0-5-2.31-5c-0.68 0-1.06 0.26-1.15 0.78a12.69 12.69 0 0 0 0.42 2.37zm28.26 6.3a0.65 0.65 0 0 0-0.18 0.34c0 0.12 0.12 0.18 0.35 0.18a15.45 15.45 0 0 0 2.58-0.49 15.75 15.75 0 0 0 5.43-2.76 6 6 0 0 0 2.46-3.94 2.34 2.34 0 0 0-1-2 4.26 4.26 0 0 0-2.5-0.69 10.7 10.7 0 0 0-7.55 2.75 9.87 9.87 0 0 0-3 7.63 7.25 7.25 0 0 0 2.42 5.31 7.81 7.81 0 0 0 5.09 1.73 10.42 10.42 0 0 0 5.18-1.16 9.45 9.45 0 0 0 2.86-2.25 4.47 4.47 0 0 0 0.83-1.32c0-0.18 0-0.26-0.15-0.26a4.07 4.07 0 0 0-1 0.65 13 13 0 0 1-6.46 2.07 5.92 5.92 0 0 1-4.08-1.41 4.58 4.58 0 0 1-1.6-3.61 8.71 8.71 0 0 1 2.2-6.32 6.46 6.46 0 0 1 4.69-2.28c0.83 0 1.25 0.39 1.25 1.17 0 1.3-1.22 2.62-3.56 4a33.49 33.49 0 0 0-4.26 2.69zm17.64-8.27a21.86 21.86 0 0 0-5.16 0.66c-0.24 0-0.51 0.32-0.8 1a4.07 4.07 0 0 0-0.43 1.62c0 0.17 0.23 0.26 0.64 0.26l5.5-1c-0.1 1.38-0.15 2.67-0.15 3.88a27.82 27.82 0 0 0 1 8.8c0.69 1.91 1.17 2.86 1.44 2.86 0.1 0 0.16-0.17 0.17-0.53q0-1.15-0.13-6.31 0-3.23 0.54-9c1.16-0.13 3.12-0.48 5.86-1 1-0.2 1.47-0.37 1.47-0.52 0-0.32-2.35-0.54-7-0.66a142.18 142.18 0 0 1 2.17-14.45 3.26 3.26 0 0 0-3.59 3q-0.52 3-1.53 11.58zm14.18 16.14q2.81 0 6.34-4.26c1.54 2.21 2.9 3.31 4.06 3.31s2.46-1 3.64-3.09 1.91-5.56 2.24-10.5q-4 10-5.95 10a5.4 5.4 0 0 1-2.39-2.54 21.34 21.34 0 0 0 0.88-6.34v-1l-2.48 5.55a28 28 0 0 1-1.91-4.43 2.38 2.38 0 0 0-2.33 1.31 44.19 44.19 0 0 0 2.6 5.57c-1.58 2-3 3.07-4.29 3.07s-2.59-4.07-4.19-11.92c-0.08-0.33-0.4-0.49-1-0.49a2.21 2.21 0 0 0-1.3 0.33 1.15 1.15 0 0 0-0.46 1q2.85 14.15 6.46 14.45zm29.28-8.69a2.25 2.25 0 0 0 1.58-0.57c0.41-0.37 0.62-1.45 0.62-3.24a6.34 6.34 0 0 0-1-3.79 3.35 3.35 0 0 0-2.84-1.37 8.42 8.42 0 0 0-7.36 3.78 13.31 13.31 0 0 0-2.71 7 8.89 8.89 0 0 0 1.22 4.72 3.64 3.64 0 0 0 3.19 2 7.41 7.41 0 0 0 5.45-2.63c1.66-1.75 2.72-2.63 3.18-2.63a3.22 3.22 0 0 1 2.46 1.66c0.8 1.1 1.35 1.65 1.66 1.65a0.31 0.31 0 0 0 0.32-0.19 1.27 1.27 0 0 0 0.07-0.37 8.47 8.47 0 0 0-1.3-3.26 3.85 3.85 0 0 0-3.22-2.37c-1.22 0-2.6 0.78-4.16 2.36s-2.77 2.36-3.64 2.36c-1.28-0.06-1.93-1.26-1.94-3.58a9.34 9.34 0 0 1 1.96-5.14c1.3-1.89 2.58-2.83 3.87-2.83 1.05 0 1.69 0.94 1.9 2.8 0.05 2.43 0.26 3.64 0.65 3.64zm16.06-8.31a13.74 13.74 0 0 0-3.63-0.66 6.87 6.87 0 0 0-3.15 0.83 2.61 2.61 0 0 0-1.66 2.41 6.8 6.8 0 0 0 0.6 2.3 21.33 21.33 0 0 0 3.77 5q3.18 3.5 3.18 4.63a2.19 2.19 0 0 1-1.39 0.49 11 11 0 0 1-2.14-0.42 5.29 5.29 0 0 1-2.75-1.83c-0.28-0.31-0.46-0.46-0.56-0.46s-0.08 0-0.08 0.14a3.65 3.65 0 0 0 0.49 1.59 7.2 7.2 0 0 0 3 2.8 7.42 7.42 0 0 0 2.8 0.76 4.58 4.58 0 0 0 2.6-0.8 2.34 2.34 0 0 0 1.2-2c0-1.64-1.17-3.7-3.51-6.16s-3.5-4.27-3.5-5.44c0-0.7 0.79-1.11 2.38-1.22a7.1 7.1 0 0 1 5.1 2c0.76 0.68 1.25 1 1.46 1s0.12 0 0.12-0.15a4 4 0 0 0-0.66-1.39 6.05 6.05 0 0 0-3.65-3.48zm21.66-0.14a59.85 59.85 0 0 0 4.77 10.58c1.77 3 3.78 4.49 6.06 4.49 2.39-0.18 4-2.08 4.77-5.68a71.59 71.59 0 0 0 1.22-14.81q0-2-0.09-4.35a2.44 2.44 0 0 0-2.68 1.92q0.06 1.71 0.06 3.24a82.88 82.88 0 0 1-0.76 12.68q-0.75 4.7-2.84 4.7-1.62 0-3.84-4.32a95.37 95.37 0 0 1-4.63-10.73q-2.37-6.45-2.37-7.65v-0.35c0-0.57-0.4-0.85-1.19-0.85s-1.43 0.18-1.55 0.53a4.91 4.91 0 0 0-0.18 1.49c0 1 0.06 2.18 0.18 3.67s0.18 2.79 0.18 3.9a55.14 55.14 0 0 1-0.46 7.38 44.53 44.53 0 0 0-0.46 5.41 11.6 11.6 0 0 0 0.46 3.5c0.31 0.94 0.72 1.45 1.23 1.54 0.51 0 1-1.67 1.34-5q0.56-5.55 0.73-11.3zm22.07 9.27a0.62 0.62 0 0 0-0.17 0.34c0 0.12 0.11 0.18 0.34 0.18a15.27 15.27 0 0 0 2.58-0.49 15.81 15.81 0 0 0 5.44-2.76 6 6 0 0 0 2.41-3.94 2.34 2.34 0 0 0-1-2 4.26 4.26 0 0 0-2.5-0.69 10.7 10.7 0 0 0-7.55 2.75 9.9 9.9 0 0 0-3 7.63 7.25 7.25 0 0 0 2.41 5.31 7.81 7.81 0 0 0 5.09 1.73 10.4 10.4 0 0 0 5.18-1.16 9.32 9.32 0 0 0 2.86-2.25 4.24 4.24 0 0 0 0.83-1.32c0-0.18-0.05-0.26-0.14-0.26a4 4 0 0 0-1 0.65 13 13 0 0 1-6.46 2.07 6 6 0 0 1-4.08-1.41 4.6 4.6 0 0 1-1.59-3.61 8.67 8.67 0 0 1 2.21-6.32 6.43 6.43 0 0 1 4.69-2.28c0.83 0 1.24 0.39 1.24 1.17q0 1.95-3.56 4a33.49 33.49 0 0 0-4.26 2.69zm14.68-5.55a24.29 24.29 0 0 0-1 6.12q0 4.36 1.7 6a5.75 5.75 0 0 0 4.12 1.64 5.47 5.47 0 0 0 4.12-2 14.36 14.36 0 0 0 2.88-6.13 18.19 18.19 0 0 0-0.22 3 8.9 8.9 0 0 0 0.63 3.44c0.42 1 0.78 1.53 1.07 1.53 0.72 0 1.07-0.3 1.07-0.88 0-0.26 0-0.93-0.17-2s-0.17-1.89-0.17-2.43a14.11 14.11 0 0 1 0.21-2.21 15.33 15.33 0 0 0 0.21-2.46c0-2-0.64-3.07-1.9-3.07-1 0.13-2.11 1.91-3.34 5.36s-2.69 5.09-4.34 5.09q-2.78 0-3-4.8a16.55 16.55 0 0 1 1-5.68 9.69 9.69 0 0 0 0.87-3.38c0-0.6-0.54-0.9-1.61-0.9q-1.08 0-2.1 3.72zm19.76 5.58a0.7 0.7 0 0 0-0.17 0.34c0 0.12 0.11 0.18 0.34 0.18a15.27 15.27 0 0 0 2.58-0.49 15.72 15.72 0 0 0 5.44-2.76 6 6 0 0 0 2.41-3.94 2.34 2.34 0 0 0-1-2 4.26 4.26 0 0 0-2.5-0.69 10.7 10.7 0 0 0-7.55 2.75 9.9 9.9 0 0 0-3 7.63 7.25 7.25 0 0 0 2.41 5.31 7.81 7.81 0 0 0 5.09 1.73 10.4 10.4 0 0 0 5.18-1.16 9.32 9.32 0 0 0 2.86-2.25 4.24 4.24 0 0 0 0.83-1.32c0-0.18 0-0.26-0.14-0.26a3.81 3.81 0 0 0-1 0.65 13 13 0 0 1-6.46 2.07 6 6 0 0 1-4.01-1.48 4.6 4.6 0 0 1-1.59-3.61 8.67 8.67 0 0 1 2.17-6.28 6.43 6.43 0 0 1 4.69-2.28c0.83 0 1.24 0.39 1.24 1.17q0 1.95-3.56 4a33.49 33.49 0 0 0-4.26 2.69zm22-9.13a13.74 13.74 0 0 0-3.63-0.66 6.86 6.86 0 0 0-3.14 0.83 2.59 2.59 0 0 0-1.66 2.38 7 7 0 0 0 0.59 2.3 21.47 21.47 0 0 0 3.78 5q3.18 3.5 3.18 4.63a2.21 2.21 0 0 1-1.39 0.49 10.86 10.86 0 0 1-2.14-0.41 5.31 5.31 0 0 1-2.76-1.83c-0.27-0.31-0.46-0.46-0.56-0.46s-0.07 0-0.07 0.14a3.52 3.52 0 0 0 0.49 1.59 7.2 7.2 0 0 0 3 2.8 7.37 7.37 0 0 0 2.72 0.75 4.55 4.55 0 0 0 2.59-0.8 2.33 2.33 0 0 0 1.21-2c0-1.64-1.17-3.7-3.51-6.16s-3.51-4.27-3.51-5.44c0-0.7 0.8-1.11 2.39-1.22a7.06 7.06 0 0 1 5.09 2c0.77 0.68 1.25 1 1.46 1s0.13 0 0.13-0.15a4 4 0 0 0-0.66-1.39 6.09 6.09 0 0 0-3.66-3.48z" fill="#0095da"/>
</svg>
