<svg version="1.1" viewBox="0 0 120.24 120.24" xmlns="http://www.w3.org/2000/svg">
 <link href="" rel="stylesheet" type="text/css"/>
 <style type="text/css"/>
 <defs>
  <style>.cls-1{fill:#0095da;}.cls-2{fill:#fff200;}.cls-3{fill:#fff;}</style>
 </defs>
 <g transform="translate(286.57 -4.3202)">
  <path class="cls-1" d="m-166.33 64.44a60.12 60.12 0 1 1-60.12-60.12 60.12 60.12 0 0 1 60.12 60.12z" fill="#0095da"/>
  <path class="cls-2" d="m-248.77 92.4h-17.8l6-61.56q0.86-8.82 3.81-12.58t10.89-3.77q11.37 0 13.41 13.77l5.47 36.25h0.53l5.47-36.25q1.08-6.94 4.42-10.38a12.06 12.06 0 0 1 9-3.39c5.37 0 9 1.22 11 3.66s3.18 6.67 3.75 12.69l6 61.56h-17.86l-3.54-60.91-9.23 51.21a13.09 13.09 0 0 1-3.32 7 8.17 8.17 0 0 1-12 0.11 13.73 13.73 0 0 1-3.32-7.1l-9.25-51.22z" fill="#fff200"/>
  <g fill="#fff">
   <path class="cls-3" d="m-262.18 105.07-3.14-8.57c-0.13-0.34-0.25-0.67-0.37-1v1.14s-0.17 8.16-0.17 8.44h-0.84s0.22-9.54 0.24-9.9h1.65c2.69 7.59 2.88 8.08 3.06 8.67 0.2-0.59 0.39-1.06 3.13-8.67h1.67s0.09 9.66 0.11 9.9h-0.91c0-0.25-0.12-8.37-0.12-8.37v-1.21c-0.16 0.39-0.3 0.83-0.44 1.23l-3.07 8.35z"/>
   <polygon class="cls-3" transform="translate(-286.57 4.3202)" points="37.56 91.59 33.29 91.59 33.29 95.22 37.21 95.22 37.21 95.97 33.29 95.97 33.29 100.01 37.94 100.01 37.94 100.75 32.33 100.75 32.33 90.85 37.56 90.85"/>
   <path class="cls-3" d="m-246.88 95.17h3.31c2.64 0 4.12 1.43 4.12 5 0 4.64-2.7 5-5 5h-2.43v-9.9zm3.14 9.15c3.06 0 3.38-2.43 3.38-4.25 0-2.35-0.62-4.18-3.44-4.18h-2.14v8.43z"/>
   <polygon class="cls-3" transform="translate(-286.57 4.3202)" points="50.33 100.75 49.39 100.75 49.39 90.85 50.33 90.85"/>
   <path class="cls-3" d="m-226.98 105.07-1.46-4.08h-3.72l-1.7 4.08h-0.92l4.21-9.9h0.93l3.67 9.9zm-3.23-8.85-1.65 4.1h3.11z"/>
   <path class="cls-3" d="m-217.57 97.85h-2.23c0-0.73-0.17-1.56-1.36-1.56a1.23 1.23 0 0 0-1.41 1.15c0 0.79 0.78 1.09 1.58 1.35l0.81 0.25c1.84 0.57 2.81 1.32 2.81 3 0 2.4-1.86 3.23-3.8 3.23-2.83 0-4.08-1-4.08-3v-0.23h2.41v0.11c0 0.8 0.25 1.74 1.6 1.74a1.34 1.34 0 0 0 1.5-1.41c0-0.87-0.55-1.1-1.65-1.46l-0.65-0.21c-1.78-0.58-2.92-1.17-2.92-2.94 0-2 1.49-3 3.83-3s3.56 0.94 3.56 2.84z"/>
   <polygon class="cls-3" transform="translate(-286.57 4.3202)" points="73.73 100.75 71.18 100.75 71.18 90.85 73.73 90.85 73.73 94.75 76.75 94.75 76.75 90.85 79.3 90.85 79.3 100.75 76.75 100.75 76.75 96.3 73.73 96.3"/>
   <path class="cls-3" d="m-201.18 105.32c-3.17 0-4.49-1.19-4.49-5 0-2.72 0.5-5.36 4.66-5.36 3.52 0 4.41 1.81 4.41 4.81 0 3.81-1.13 5.54-4.58 5.54zm0.11-9c-1.88 0-2 2-2 4.24 0 2.72 0.49 3.48 1.9 3.48s1.93-0.94 1.93-4.1c0-2-0.11-3.62-1.85-3.62z"/>
   <path class="cls-3" d="m-192.21 105.07h-2.55v-9.9h4.19c1.89 0 3.47 0.24 3.47 3.14 0 2.33-1.26 3.17-3.43 3.17h-1.7v3.59zm0.84-4.91c1.21 0 1.78-0.34 1.78-1.91 0-1.16-0.4-1.76-1.58-1.76h-1v3.67z"/>
  </g>
 </g>
</svg>
