<svg enable-background="new 0 0 360.3 359.6" version="1.1" viewBox="0 0 360.3 359.6" xml:space="preserve" xmlns="http://www.w3.org/2000/svg">
<linearGradient id="a" x1=".4883" x2="361.24" y1="592.94" y2="236.58" gradientTransform="matrix(1 0 0 -1 0 595.28)" gradientUnits="userSpaceOnUse">
	<stop stop-color="#fb0" offset="0"/>
	<stop stop-color="#FFB100" offset=".2896"/>
	<stop stop-color="#FF9600" offset=".7812"/>
	<stop stop-color="#f80" offset="1"/>
</linearGradient>
<path d="M0,0h267.8c43.1,0,92.5,25.6,92.5,89.2v270.4H93.9c-37.4,0-93.9-20.1-93.9-89V0z" fill="url(#a)"/>
<polygon points="15.2 121.5 23.2 64.8 44.1 64.8 51 83.6 63.2 64.8 84.1 64.8 76.1 121.5 57 121.5 61 92 47.2 110.9 38.5 92 35 121.5" fill="#fff"/>
<path d="m106 122.4c-15.9 0-22.8-7.5-22.8-20 0-13.2 10.1-26.4 26.9-26.4 12.1 0 18.2 6.4 18.2 15.4 0 11.1-11 15.5-26.1 14.3 2.5 3.4 9.9 4.2 20.4 1.2l0.5 12.8c-5.3 1.4-10.9 2.7-17.1 2.7zm-3.3-27.8c5.6 1 9.9-1.1 9.9-3.9 0-4.4-8.4-2.8-9.9 3.9z" fill="#fff"/>
<path d="m325.6 122.4c-15.9 0-22.8-7.5-22.8-20 0-13.2 10.1-26.4 26.9-26.4 12.1 0 18.3 6.4 18.3 15.4 0 11.1-11 15.5-26.1 14.3 2.5 3.4 9.9 4.2 20.4 1.2l0.5 12.8c-5.3 1.4-11 2.7-17.2 2.7zm-3.3-27.8c5.6 1 9.9-1.1 9.9-3.9 0-4.4-8.4-2.8-9.9 3.9z" fill="#fff"/>
<path d="m132 102.3 6-42.8h20.3l-5.9 41.8c-1.2 6.2-0.1 8 5.9 7.5l-1.6 12.1c-3.8 2-8.8 1.8-10.4 1.8-8.7 0-14.9-4.6-14.9-13.6-0.1-2.5 0.1-4.2 0.6-6.8z" fill="#fff"/>
<path d="m161.3 102.3c0-17.5 15-26.3 28.9-26.3 14.8 0 22.4 9.1 22.4 21 0 15.2-13.3 25.6-29.3 25.6-12.6 0-22-8.2-22-20.3zm24.5 4.7c7.7 0 10.1-15.5 2.1-15.5-7.6 0-9.7 15.5-2.1 15.5z" fill="#fff"/>
<path d="m248.2 81.4 2.9-21.9h20.3l-6 44c-0.6 4.6-0.2 5.9 4.4 5.3l-1.8 12.2c-14.5 4.1-21.1 0.6-23.4-5.5-3.6 5.4-10.8 7-14.4 7-8.2 0-14.8-7.1-14.8-19.8 0-14.5 9.4-26.8 21.9-26.8 5.6 0.1 8.2 2 10.9 5.5zm-8 25.1c8.3 0 10-14.8 2-14.8-7.7 0.1-9.7 14.8-2 14.8z" fill="#fff"/>
<polygon points="280.7 59.6 301.6 59.6 299.9 72.8 279.1 72.8" fill="#fff"/>
<path d="m278.5 77.1h20.4l-4 28c-0.3 2.3-0.4 4.4 4.6 3.9l-1.8 12c-3.1 1-7.9 1.5-11 1.5-8.9 0-13-4-13-10.4 0-1.6 0.4-4.6 0.8-7l4-28z" fill="#fff"/>
<path d="m162.2 151.3c26 0 52.8 1.1 59.5 7 2.9 2.5 5.4 5.7 5.4 7.8 0 1.8-1.9 3.9-4.3 4-21.4 0.5-93.1 5.6-103 5.6-12.3 0-18.4-9.3-18.4-14.5 0.1-10 40.3-9.9 60.8-9.9z" fill="#fff"/>
<path d="m158.5 134.5c2.3 0 4.6 1.6 4.6 7 0 10.2-39.1 144.2-44.5 164.6-0.9 3.2-2.6 4.5-5.1 4.5-4.9 0-11.5-10.1-11.5-15 0-15.4 41.1-133 49.9-155.5 1.1-3 4.5-5.6 6.6-5.6z" fill="#fff"/>
<path d="m191.5 194.8c11 0 16 6 16 14.6 0 11.6-14.1 37.1-16.4 64.3 21.1-46.1 46.9-77.4 62.8-87.6 2.4-1.6 6.1-1.4 7.3 1.5 1.1 2.9 1.1 5.5-0.6 7.1-31.8 29.1-52.4 80.4-61 111-0.8 2.8-2.3 5.3-5 5.3s-6.1-2.8-8.4-7.9c-2.6-5.9-7.8-10.2-7.8-31.1 0-25.3 11.4-49.6 11.4-56.8 0-2.7-0.9-3.3-6.4-3.3-10.8 0-20.6 4.1-23.3 4.1-2.5 0-4.4-2-4.4-4.1 0-1.9 1.5-4.9 4.6-8 3.5-3.5 21.2-9.1 31.2-9.1z" fill="#fff"/>
</svg>
