<svg width="691.15pt" height="196.3pt" version="1.1" viewBox="0 0 691.15 196.3" xmlns="http://www.w3.org/2000/svg">
 <path d="m691.15 124.91a45.414 23.506 0 0 1-45.414 23.506 45.414 23.506 0 0 1-45.414-23.506 45.414 23.506 0 0 1 45.414-23.506 45.414 23.506 0 0 1 45.414 23.506z" fill="#eb088a" style="paint-order:stroke fill markers"/>
 <path d="m12.631 22.2c10.75-12.44 26.73-19.48 42.93-21.01 17.12-1.86 35.62 0.65 49.71 11.23 6.57 4.78 11.85 11.08 16.4 17.76 7.24-9.35 15.77-18.14 26.6-23.25 13.73-6.36 29.37-7.05 44.22-5.64 14.84 1.49 29.92 7.66 39.19 19.77 8.87 11.27 11.91 25.98 12.03 40.04v135.16h-64.49v-127.22c-0.31-4.88-0.09-10.85-4.33-14.18-5.39-3.53-13.88-2.71-17.63 2.86-2.69 3.88-3.005 8.76-3.045 13.33v125.2h-64.495v-121.16c-0.07-5.23 0.24-10.62-1.34-15.67-2.41-7.72-13.63-8.58-19.03-3.62-4.37 4.18-4.82 10.67-4.88 16.35v124.1h-64.47v-139.2c-0.08-12.62 4.13-25.4 12.63-34.87z" fill="#eb088a"/>
 <path d="m630.45 109.3c5.1821 0 5.2982 0.28077 5.3152 5.6598h9.807c3.2498 0 4.4986 0.22114 5.6946 2.5555 2.0518 4.0129 3.5504 8.3093 5.5184 12.375 1.81-4.05 3.51-8.15 5.32-12.2 1.0577-3.0324 4.0388-3.1584 6.7968-2.8904 1.601 0.16301 4.1098 0.22971 4.1098 2.0371 4e-3 0.74179-0.28593 1.4317-0.56659 2.1233-2.77 6.18-5.75 12.28-8.66 18.4-1.07 2.5143-4.6755 2.38-7.18 2.38-2.5228 0-6.15-0.14696-7.26-2.34-2.55-5.14-4.88-10.38-7.37-15.54l-6.3 0.02c-0.12037 3.3889-0.0521 6.7947 0.20473 10.178 0.0897 1.1305 0.9294 0.96863 1.7368 0.98519 0.75115-0.0278 1.5434-0.155 2.2746-0.2848 1.2601-0.22367 2.4599-0.45797 2.7138-0.0685 1.66 2.19 1.2 6.71-2.16 6.91-4.87 0.76-11.6 1.09-14.45-3.83-0.77957-1.7249-0.90009-3.6808-0.95709-5.5864-0.0809-2.7051 0.1879-5.4641 0.0471-8.1336-2.0756 0.21414-4.49-0.46039-4.874-2.4594-0.099-0.48857-0.066-0.97258-0.066-1.328 0-0.2925 0.0154-0.63419 0.066-1.0118 0.19736-2.1529 2.8689-2.3445 4.794-2.291 0-5.2854 0.21995-5.6598 5.4448-5.6598z" fill="#fff"/>
 <g transform="translate(-54.409 -51.88)" fill="#008fca">
  <path d="m365.99 52.025h104.26c-13.41 5.99-26.02 14.655-34.05 27.175-5.03 7.62-8.17 16.36-9.9 25.3-14.78 0.01-29.55-0.02-44.33 0.01-5.96 0.11-12.43 0.37-17.46 3.97-6.47 4.61-5.61 16.05 1.53 19.59 4.61 2.25 9.87 2.42 14.9 2.59l32.685 0.03v39.3l-37.695 0.03c-5.34 0.16-11.11 0.19-15.77 3.17-5.49 3.75-5.98 12.04-2.81 17.44 3.37 5.07 10.21 5 15.62 5.43l51.655 0.13v51.99l-55.615-0.01c-21.03-0.27-43.61-3.63-60.24-17.57l-0.02-123.6c-0.23-10.45-2.7-20.83-7.03-30.33 8.5-11.39 21.7-18.35 35.34-21.52 9.46-2.26 19.22-3.195 28.93-3.125z"/>
  <path d="m481.88 57.59c15.78-5.28 32.71-6.31 49.22-5.06 15.59 1.27 31.5 5.57 43.95 15.42 10.56 8.21 17.79 20.22 20.98 33.13 2.95 11.06 2.93 22.58 2.85 33.94v112.98h-64.83v-123.02c0.09-6.93-1.98-14.95-8.54-18.48-6.64-3.3-15.55-3.18-21.39 1.71-4.97 4.43-5.975 11.5-5.935 17.81v121.98h-64.795v-125.08c0.01-13 3.1-26.25 10.4-37.15 8.92-13.46 22.89-23.08 38.09-28.17z"/>
  <path d="m566.17 51.88h179.14v53.585h-52.24l-0.08 40.745c-12.33 1.1-24.95 4.28-34.99 11.84-6.16 4.63-11.09 11.88-10.53 19.88 0.43 7.82 5.79 14.37 12 18.67 9.81 6.76 21.73 9.72 33.47 10.75l-0.06 40.65h-58.845v-142.54h-27.995c-1.44-14.41-7.15-28.685-17.68-38.865-6.36-6.31-14.11-10.95-22.19-14.72z"/>
 </g>
</svg>
