<svg id="i" width="158.75mm" height="64.771mm" version="1.1" viewBox="0 0 158.75 64.771" xmlns="http://www.w3.org/2000/svg">
 <defs id="j">
  <clipPath id="e">
   <path id="k" d="m327.09 130.06h23.114v9.431h-23.114z"/>
  </clipPath>
  <clipPath id="f">
   <path id="l" d="m326.24 129.68h25.636v10.16h-25.636z"/>
  </clipPath>
  <clipPath id="g">
   <path id="m" d="m327.09 130.06h23.114v9.431h-23.114z"/>
  </clipPath>
  <clipPath id="h">
   <path id="n" d="m326.24 129.68h25.636v10.16h-25.636z"/>
  </clipPath>
 </defs>
 <g id="o" transform="translate(96.384 -116.45)">
  <g id="p" transform="matrix(6.8681 0 0 -6.8681 -2342.9 1074.5)" clip-path="url(#e)">
   <g id="q" transform="translate(335.39 134.34)">
    <path id="r" d="m0 0c0 0.114 0.04 0.212 0.121 0.292 0.08 0.081 0.178 0.121 0.292 0.121s0.211-0.04 0.292-0.121c0.08-0.08 0.121-0.178 0.121-0.292s-0.041-0.212-0.121-0.292c-0.081-0.081-0.178-0.121-0.292-0.121s-0.212 0.04-0.292 0.121c-0.081 0.08-0.121 0.178-0.121 0.292" fill="#fff"/>
   </g>
   <g id="s" transform="translate(337.53 137.79)">
    <path id="t" d="m0 0c0.013 0.088 0.02 0.171 0.02 0.246v0.238c0 0.214-0.021 0.391-0.062 0.531-0.041 0.138-0.099 0.249-0.171 0.331-0.073 0.082-0.161 0.141-0.265 0.175-0.105 0.035-0.217 0.053-0.337 0.053-0.215 0-0.392-0.043-0.531-0.128-0.139-0.086-0.25-0.201-0.332-0.346-0.082-0.146-0.144-0.313-0.184-0.503-0.042-0.189-0.068-0.388-0.081-0.597zm-1.952-0.133c0-0.063-2e-3 -0.128-5e-3 -0.194-4e-3 -0.066-5e-3 -0.15-5e-3 -0.251 0-0.209 0.013-0.427 0.038-0.654 0.025-0.228 0.081-0.433 0.166-0.617 0.085-0.183 0.211-0.335 0.379-0.455 0.167-0.12 0.39-0.179 0.668-0.179 0.279 0 0.508 0.04 0.687 0.122 0.181 0.083 0.323 0.182 0.427 0.299s0.182 0.235 0.233 0.356c0.05 0.12 0.088 0.218 0.114 0.293l0.141-0.028c-0.018-0.07-0.055-0.169-0.109-0.299-0.053-0.129-0.138-0.259-0.256-0.388-0.117-0.13-0.274-0.244-0.474-0.342-0.199-0.097-0.456-0.146-0.772-0.146s-0.608 0.05-0.877 0.151-0.501 0.247-0.697 0.436c-0.196 0.19-0.347 0.416-0.455 0.678-0.107 0.262-0.161 0.555-0.161 0.877 0 0.278 0.055 0.548 0.166 0.81 0.11 0.263 0.262 0.495 0.455 0.697 0.192 0.202 0.418 0.365 0.678 0.488 0.259 0.124 0.537 0.185 0.834 0.185 0.177 0 0.366-0.031 0.569-0.094 0.202-0.064 0.39-0.166 0.564-0.308 0.174-0.143 0.319-0.331 0.436-0.564 0.117-0.235 0.175-0.525 0.175-0.873z" fill="#ef3424"/>
   </g>
  </g>
  <g id="u" transform="matrix(6.8681 0 0 -6.8681 -2342.9 1074.5)" clip-path="url(#f)">
   <g id="v" transform="translate(338.98 139.37)">
    <path id="w" d="m0 0h3.005l-2.361-3.934h1.337c0.183 0 0.333 0.036 0.45 0.109 0.117 0.072 0.212 0.164 0.285 0.274 0.072 0.111 0.129 0.229 0.171 0.356 0.041 0.126 0.08 0.247 0.118 0.36h0.076l-0.123-1.232h-3.3l2.361 3.934h-0.815c-0.158 0-0.296-4e-3 -0.413-0.014-0.117-9e-3 -0.223-0.043-0.317-0.1-0.095-0.057-0.184-0.148-0.265-0.274-0.083-0.127-0.171-0.307-0.266-0.541h-0.076z" fill="#ef3424"/>
   </g>
  </g>
  <g id="x" transform="matrix(6.8681 0 0 -6.8681 -2342.9 1074.5)" clip-path="url(#g)">
   <g id="y" transform="translate(342.57 139.37)">
    <path id="z" d="m0 0h3.005l-2.36-3.934h1.336c0.183 0 0.334 0.036 0.451 0.109 0.117 0.072 0.211 0.164 0.284 0.274 0.073 0.111 0.13 0.229 0.171 0.356 0.041 0.126 0.08 0.247 0.118 0.36h0.076l-0.123-1.232h-3.299l2.36 3.934h-0.815c-0.158 0-0.296-4e-3 -0.412-0.014-0.117-9e-3 -0.223-0.043-0.318-0.1s-0.184-0.148-0.265-0.274c-0.083-0.127-0.171-0.307-0.266-0.541h-0.076z" fill="#ef3424"/>
   </g>
   <g id="aa" transform="translate(346.73 137.33)">
    <path id="ab" d="m0 0c0-0.449 0.035-0.806 0.104-1.071 0.07-0.266 0.162-0.469 0.275-0.612 0.114-0.142 0.247-0.235 0.398-0.279 0.152-0.044 0.313-0.066 0.484-0.066 0.17 0 0.332 0.022 0.484 0.066 0.151 0.044 0.284 0.137 0.398 0.279 0.114 0.143 0.205 0.346 0.275 0.612 0.069 0.265 0.104 0.622 0.104 1.071 0 0.379-0.025 0.697-0.076 0.953s-0.128 0.464-0.232 0.625c-0.105 0.162-0.236 0.277-0.394 0.347-0.158 0.069-0.344 0.104-0.559 0.104s-0.401-0.035-0.559-0.104c-0.159-0.07-0.289-0.185-0.394-0.347-0.104-0.161-0.181-0.369-0.232-0.625s-0.076-0.574-0.076-0.953m-0.948 0c0 0.31 0.068 0.597 0.204 0.863 0.136 0.265 0.31 0.494 0.521 0.687 0.212 0.193 0.449 0.343 0.711 0.45 0.263 0.108 0.52 0.162 0.773 0.162s0.51-0.054 0.773-0.162c0.262-0.107 0.499-0.257 0.711-0.45 0.211-0.193 0.385-0.422 0.521-0.687 0.136-0.266 0.204-0.553 0.204-0.863 0-0.297-0.064-0.577-0.19-0.839s-0.292-0.491-0.498-0.687c-0.205-0.196-0.44-0.351-0.706-0.465-0.265-0.113-0.537-0.17-0.815-0.17s-0.55 0.057-0.815 0.17c-0.266 0.114-0.501 0.269-0.706 0.465-0.206 0.196-0.372 0.425-0.498 0.687-0.127 0.262-0.19 0.542-0.19 0.839" fill="#ef3424"/>
   </g>
   <g id="ac" transform="translate(328.63 137.54)">
    <path id="ad" d="m0 0c0 0.329 0.046 0.607 0.138 0.834 0.091 0.228 0.205 0.413 0.341 0.555s0.283 0.246 0.441 0.313c0.158 0.066 0.303 0.099 0.436 0.099 0.189 0 0.341-0.066 0.455-0.199s0.171-0.338 0.171-0.616v-3.143c-0.819-0.235-1.49-0.116-1.982 0.088zm2.797 0.313c0 0.253 0.039 0.474 0.118 0.663 0.079 0.19 0.182 0.345 0.308 0.465s0.269 0.21 0.427 0.27 0.316 0.09 0.474 0.09c0.202 0 0.362-0.06 0.478-0.18 0.117-0.12 0.176-0.288 0.176-0.502v-2.468c-0.601 0.011-1.274-0.121-1.981-0.474zm-3.612-1.885c0.389-0.383 1.669-1.399 3.548-0.43 1.04 0.537 2.06 0.477 2.86 0.253v2.27c0 0.942-0.461 1.413-1.384 1.413-0.196 0-0.371-0.025-0.526-0.076s-0.289-0.119-0.403-0.204c-0.113-0.085-0.208-0.181-0.284-0.289-0.076-0.107-0.136-0.218-0.18-0.332h-0.019c-0.076 0.323-0.236 0.553-0.479 0.693-0.244 0.138-0.523 0.208-0.839 0.208-0.354 0-0.656-0.088-0.905-0.265-0.25-0.177-0.441-0.456-0.574-0.835h-0.019v0.996h-1.526v-0.133h0.73z" fill="#ef3424"/>
   </g>
  </g>
  <g id="ae" transform="matrix(6.8681 0 0 -6.8681 -2342.9 1074.5)" clip-path="url(#h)">
   <g id="af" transform="translate(344.3 133.5)">
    <path id="ag" d="m0 0v-1.582h1.348v1.582h0.679v-3.328h-0.679v1.647h-1.348v-1.647h-0.675v3.328z" fill="#ef3424"/>
   </g>
   <g id="ah" transform="translate(348.01 130.23)">
    <path id="ai" d="m0 0c0.202 0 0.375 0.024 0.518 0.072 0.143 0.049 0.264 0.114 0.361 0.197 0.098 0.082 0.176 0.176 0.233 0.283 0.058 0.105 0.102 0.217 0.131 0.334 0.03 0.117 0.05 0.233 0.059 0.35s0.014 0.227 0.014 0.33c0 0.252-0.016 0.48-0.047 0.684-0.031 0.205-0.093 0.379-0.184 0.524-0.092 0.145-0.221 0.256-0.387 0.334-0.167 0.078-0.385 0.117-0.656 0.117-0.062 0-0.118-1e-3 -0.168-2e-3 -0.05-2e-3 -0.09-6e-3 -0.122-0.012v-3.197c0.091-9e-3 0.173-0.014 0.248-0.014m-0.924 3.277c0.159 0 0.317 2e-3 0.476 6e-3 0.159 5e-3 0.317 7e-3 0.476 7e-3 0.14 0 0.288-9e-3 0.443-0.028 0.156-0.018 0.31-0.052 0.462-0.1s0.297-0.113 0.434-0.194 0.258-0.184 0.364-0.308c0.106-0.125 0.19-0.273 0.252-0.445 0.062-0.171 0.093-0.372 0.093-0.603 0-0.227-0.031-0.427-0.093-0.598s-0.146-0.319-0.25-0.444-0.223-0.228-0.357-0.308c-0.134-0.082-0.273-0.146-0.417-0.194-0.145-0.049-0.288-0.082-0.43-0.101-0.141-0.019-0.272-0.028-0.394-0.028-0.177 0-0.354 2e-3 -0.53 5e-3 -0.175 3e-3 -0.352 4e-3 -0.529 4e-3z" fill="#ef3424"/>
   </g>
   <g id="aj" transform="translate(334.88 130.28)">
    <path id="ak" d="m0 0h0.596v3.108h-0.522v0.109h1.187v-3.217h0.522v-0.108h-1.783z" fill="#fff"/>
   </g>
   <g id="al" transform="translate(342.2 132.2)">
    <path id="am" d="m0 0c0.01 0.072 0.015 0.139 0.015 0.202v0.193c0 0.176-0.016 0.321-0.05 0.434-0.033 0.114-0.08 0.204-0.139 0.272-0.059 0.067-0.132 0.115-0.217 0.143s-0.177 0.043-0.274 0.043c-0.176 0-0.32-0.035-0.434-0.105-0.113-0.07-0.204-0.164-0.271-0.283s-0.117-0.256-0.15-0.411c-0.034-0.155-0.056-0.318-0.066-0.488zm-1.594-0.108c0-0.052-1e-3 -0.105-4e-3 -0.159-2e-3 -0.055-4e-3 -0.123-4e-3 -0.206 0-0.17 0.011-0.349 0.031-0.535 0.021-0.186 0.066-0.354 0.136-0.503 0.069-0.15 0.172-0.274 0.309-0.372 0.137-0.099 0.319-0.148 0.546-0.148s0.414 0.034 0.561 0.101 0.263 0.148 0.348 0.244 0.148 0.193 0.189 0.291c0.042 0.098 0.072 0.178 0.093 0.24l0.116-0.023c-0.015-0.057-0.045-0.138-0.089-0.244s-0.113-0.212-0.209-0.318c-0.095-0.106-0.224-0.199-0.386-0.279-0.163-0.08-0.373-0.12-0.631-0.12s-0.497 0.041-0.716 0.124c-0.219 0.082-0.409 0.201-0.568 0.356-0.16 0.155-0.284 0.34-0.372 0.554-0.088 0.215-0.131 0.454-0.131 0.717 0 0.228 0.045 0.449 0.135 0.663s0.214 0.404 0.371 0.57c0.158 0.165 0.342 0.298 0.554 0.399 0.211 0.101 0.438 0.151 0.681 0.151 0.144 0 0.299-0.026 0.464-0.077 0.165-0.052 0.318-0.136 0.46-0.252 0.142-0.117 0.261-0.27 0.356-0.461 0.095-0.192 0.143-0.429 0.143-0.713z" fill="#fff"/>
   </g>
   <g id="an" transform="translate(339.19 133.5)">
    <path id="ao" d="m0 0v-0.109h0.45l-1.037-2.433-0.998 2.433h0.524v0.109h-1.577v-0.109h0.378l1.308-3.224h0.205l1.358 3.224h0.27v0.109z" fill="#fff"/>
   </g>
   <g id="ap" transform="translate(334.22 134.98)">
    <path id="aq" d="m0 0c-0.208 0.067-0.44 0.099-0.665 0.112v-4.816h-0.522v-0.108h1.857v0.108h-0.67z" fill="#fff"/>
   </g>
  </g>
 </g>
</svg>
