<svg version="1.1" viewBox="0 0 620 117" xmlns="http://www.w3.org/2000/svg">
 <g transform="translate(-14.149 -208.87)" fill="#f03120">
  <path d="m294.4 254.64c0.33692-2.3783 0.51529-4.5782 0.51529-6.5997v-6.3619c0-5.7673-0.55493-10.504-1.6648-14.25-1.09-3.726-2.6161-6.679-4.5782-8.8987-1.9423-2.1999-4.3205-3.7656-7.115-4.6971s-5.807-1.4072-9.0176-1.4072c-5.7673 0-10.524 1.1495-14.25 3.4485-3.726 2.2792-6.6988 5.371-8.8987 9.2753-2.1999 3.9044-3.8647 8.3834-4.9548 13.477-1.1099 5.0935-1.8234 10.425-2.1603 16.014zm-52.382 3.5674c0 1.6846-0.0396 3.4287-0.11891 5.2124-0.0991 1.7837-0.13874 4.0233-0.13874 6.7385 0 5.589 0.33693 11.436 1.0108 17.54 0.69367 6.1043 2.1801 11.614 4.4593 16.529 2.2792 4.9151 5.6682 8.978 10.167 12.209 4.4989 3.2305 10.464 4.816 17.936 4.816 7.452 0 13.596-1.09 18.432-3.29s8.6411-4.8755 11.436-8.0069 4.8755-6.3223 6.243-9.5528c1.3477-3.2107 2.3585-5.8268 3.0521-7.8682l3.8052 0.75312c-0.51529 1.8828-1.4864 4.5386-2.9134 8.0069-1.4468 3.4882-3.726 6.9565-6.8772 10.445-3.1512 3.4683-7.3727 6.5204-12.724 9.1366-5.3313 2.6359-12.228 3.944-20.711 3.944-8.4825 0-16.311-1.3477-23.525-4.0629-7.2141-2.7152-13.437-6.6196-18.689-11.693-5.252-5.0935-9.3149-11.158-12.209-18.194-2.8738-7.0357-4.3205-14.864-4.3205-23.505 0-7.4718 1.4864-14.706 4.4593-21.741s7.0159-13.259 12.189-18.689c5.1728-5.4304 11.237-9.7906 18.194-13.1 6.9366-3.3098 14.408-4.9548 22.376-4.9548 4.7367 0 9.8302 0.8324 15.261 2.5368 5.4304 1.6846 10.464 4.4593 15.122 8.2645 4.6575 3.8251 8.5618 8.8591 11.693 15.122 3.1512 6.2826 4.7169 14.091 4.7169 23.406z"/>
  <path d="m333.19 212.17h80.604l-63.322 105.54h35.853c4.9151 0 8.9384-0.97114 12.09-2.9332 3.1314-1.9423 5.6682-4.3998 7.6303-7.3727 1.9423-2.953 3.4683-6.1439 4.5782-9.5329 1.09-3.389 2.1603-6.6196 3.171-9.6519h2.0414l-3.3098 33.038h-88.492l63.302-105.52h-21.86c-4.2413 0-7.9276 0.11891-11.059 0.37656s-5.9655 1.1495-8.5024 2.6756c-2.5567 1.5261-4.9349 3.9836-7.1348 7.3727s-4.5782 8.2249-7.115 14.488h-2.0414z"/>
  <path d="m429.44 212.17h80.604l-63.302 105.54h35.853c4.8953 0 8.9384-0.97114 12.07-2.9332 3.1314-1.9423 5.6682-4.3998 7.6303-7.3727 1.9423-2.953 3.4683-6.1439 4.5782-9.5329 1.09-3.389 2.1603-6.6196 3.171-9.6519h2.0414l-3.3098 33.038h-88.492l63.322-105.52h-21.88c-4.2413 0-7.9078 0.11891-11.059 0.37656-3.1314 0.25765-5.9655 1.1495-8.5222 2.6756-2.5368 1.5261-4.9151 3.9836-7.115 7.3727s-4.5782 8.2249-7.115 14.488h-2.0414z"/>
  <path d="m541.08 266.84c0 12.03 0.93149 21.623 2.7945 28.738 1.863 7.115 4.3205 12.585 7.3727 16.41 3.0521 3.8052 6.6196 6.3024 10.682 7.4916 4.0629 1.1891 8.3834 1.7639 12.962 1.7639s8.8987-0.57475 12.981-1.7639c4.0629-1.1891 7.6303-3.6863 10.682-7.4916 3.0521-3.8251 5.4899-9.2951 7.3727-16.41 1.8432-7.115 2.7945-16.707 2.7945-28.738 0-10.167-0.67385-18.689-2.0414-25.547-1.3477-6.8772-3.4287-12.466-6.2232-16.787-2.7945-4.3205-6.3223-7.4123-10.564-9.2753-4.2413-1.8828-9.2357-2.8143-15.003-2.8143s-10.762 0.93149-15.003 2.8143c-4.2413 1.863-7.7492 4.9548-10.544 9.2753-2.7945 4.3206-4.8755 9.9095-6.2232 16.787-1.3675 6.8574-2.0414 15.38-2.0414 25.547m-25.428 0c0-8.3042 1.8234-16.014 5.47-23.129 3.6467-7.1348 8.3042-13.279 13.992-18.451 5.6682-5.153 12.01-9.1762 19.066-12.07 7.0357-2.8738 13.933-4.3205 20.711-4.3205s13.695 1.4468 20.731 4.3205c7.0358 2.8936 13.398 6.9168 19.066 12.07 5.688 5.1728 10.346 11.317 13.992 18.451 3.6467 7.115 5.47 14.825 5.47 23.129 0 7.9672-1.7044 15.479-5.0935 22.514-3.389 7.0159-7.8483 13.18-13.338 18.432-5.5295 5.252-11.832 9.3942-18.947 12.466-7.115 3.0323-14.408 4.5584-21.88 4.5584-7.452 0-14.745-1.5261-21.86-4.5584-7.115-3.0719-13.437-7.2141-18.947-12.466-5.5097-5.252-9.9491-11.416-13.338-18.432-3.4089-7.0358-5.0935-14.547-5.0935-22.514"/>
  <path d="m55.61 261.25c0-8.8195 1.2288-16.271 3.6863-22.376 2.4576-6.1042 5.5097-11.059 9.1564-14.864 3.6467-3.8251 7.5907-6.6196 11.832-8.4033 4.2214-1.7837 8.1258-2.6558 11.693-2.6558 5.0737 0 9.1366 1.7639 12.189 5.3313 3.0521 3.5476 4.598 9.0573 4.598 16.529v84.29c-21.959 6.3223-39.975 3.1116-53.155-2.3585zm75.015-8.3834c0-6.7781 1.0504-12.724 3.171-17.797 2.1206-5.0935 4.8755-9.2555 8.2645-12.466 3.389-3.2305 7.2141-5.6286 11.455-7.2538 4.2214-1.6053 8.4627-2.3981 12.704-2.3981 5.4304 0 9.7113 1.6053 12.843 4.816 3.1314 3.2305 4.6971 7.7096 4.6971 13.477v66.195c-16.113-0.27747-34.168 3.2503-53.135 12.704zm-96.875 50.558c10.425 10.266 44.771 37.537 95.151 11.515 27.905-14.389 55.255-12.763 76.739-6.7583v-60.924c0-25.249-12.387-37.874-37.141-37.874-5.252 0-9.9491 0.67384-14.111 2.0215-4.1422 1.3675-7.7492 3.1909-10.801 5.47-3.0323 2.299-5.589 4.8755-7.6303 7.7492-2.0215 2.8936-3.6467 5.8466-4.8358 8.9186h-0.49548c-2.0414-8.6609-6.3223-14.844-12.843-18.57-6.5205-3.726-14.032-5.589-22.514-5.589-9.4933 0-17.579 2.3585-24.278 7.115s-11.812 12.209-15.38 22.376h-0.51529v-26.696h-40.946v3.5476h19.601z"/>
 </g>
</svg>
