<svg width="726.99" height="800" version="1.1" viewBox="0 0 726.99 800" xml:space="preserve" xmlns="http://www.w3.org/2000/svg"><defs><clipPath id="clipPath18724"><path d="m45.638 402.29h17v4.705h-17z"/></clipPath></defs>

<g transform="matrix(2.8432 0 0 2.8432 -1573.5 -726.06)" fill="#fff"><g transform="matrix(47.059 0 0 -47.059 716.18 255.36)"><path d="m0 0-0.495-0.495-0.248-0.247-0.742 0.742-0.496-0.495-0.495-0.496-0.99-0.99 0.495-0.495 0.99 0.99 0.496 0.495 0.742-0.742 0.496 0.495 0.247 0.247 0.496-0.495 0.99-0.99 0.496 0.495-0.496 0.495-0.495 0.495-0.495 0.496z" fill="#fff"/></g><g transform="matrix(47.059 0 0 -47.059 692.89 348.58)"><path d="m0 0-0.743-0.743 0.495-0.495 0.743 0.743 0.248-0.248-0.496-0.495-0.247-0.248-0.248-0.247-0.99 0.99 0.248 0.248 0.247 0.248 0.248 0.247-0.495 0.495-0.248-0.248-0.248-0.247-0.247-0.247-0.495-0.496 1.485-1.485 0.495-0.496 0.495 0.496 0.248 0.247 1.238 1.238-0.247 0.248-0.495 0.495-0.496 0.495z" fill="#fff"/></g></g>
<g transform="matrix(1.3632 0 0 1.3632 -1117.1 225.27)" fill="#fff"><g transform="matrix(47.059 0 0 -47.059 819.21 314.17)"><path d="m0 0h0.779l0.479-0.786 0.479 0.786h0.78v-2.236h-0.745v1.109l-0.514-0.796h-0.012l-0.515 0.796v-1.109h-0.731z" fill="#fff"/></g><g transform="matrix(47.059 0 0 -47.059 -1594.6 19408)"><g clip-path="url(#clipPath18724)" fill="#fff"><g transform="translate(53.743 404.62)"><path d="m0 0v6e-3c0 0.668 0.527 1.166 1.233 1.166 0.383 0 0.693-0.128 0.935-0.338l-0.418-0.505c-0.147 0.124-0.31 0.195-0.495 0.195-0.291 0-0.501-0.224-0.501-0.527v-7e-3c0-0.316 0.22-0.533 0.533-0.533 0.128 0 0.198 0.019 0.256 0.051v0.224h-0.384v0.479h1.083v-1.035c-0.243-0.198-0.581-0.335-0.987-0.335-0.696 0-1.255 0.466-1.255 1.159" fill="#fff"/></g><g transform="translate(55.879 404.62)"><path d="m0 0v6e-3c0 0.668 0.527 1.166 1.233 1.166 0.383 0 0.693-0.128 0.936-0.338l-0.419-0.505c-0.147 0.124-0.31 0.195-0.495 0.195-0.291 0-0.501-0.224-0.501-0.527v-7e-3c0-0.316 0.22-0.533 0.533-0.533 0.128 0 0.198 0.019 0.256 0.051v0.224h-0.384v0.479h1.083v-1.035c-0.243-0.198-0.581-0.335-0.987-0.335-0.696 0-1.255 0.466-1.255 1.159" fill="#fff"/></g><g transform="translate(58.784 405.11)"><path d="m0 0h-0.657v0.631h2.06v-0.631h-0.657v-1.6h-0.746z" fill="#fff"/></g><g transform="translate(60.113 405.74)"><path d="m0 0h0.835l0.434-1.253 0.433 1.253h0.823l-0.906-2.247h-0.714z" fill="#fff"/></g></g></g></g></svg>
