<svg width="400" height="400" clip-rule="evenodd" fill-rule="evenodd" image-rendering="optimizeQuality" shape-rendering="geometricPrecision" text-rendering="geometricPrecision" version="1.1" viewBox="0 0 11137 11137" xml:space="preserve" xmlns="http://www.w3.org/2000/svg"><circle cx="5568.7" cy="5568.6" r="3480.3" fill="#fff" style="paint-order:stroke fill markers"/><g transform="matrix(24.39 0 0 24.39 -11802 -573.8)"><g transform="rotate(-3,712.22,251.84)"><path d="m712.22 23.531c-30.963 0-60.482 6.1767-87.406 17.344l38.062 91.844c15.199-6.3014 31.866-9.8125 49.344-9.8125 17.467 0 34.121 3.5182 49.312 9.8125l38.062-91.875c-26.914-11.157-56.426-17.312-87.375-17.312z" fill="#8ec244"/><path d="m501.22 164.47c-11.158 26.915-17.312 56.425-17.312 87.375s6.1544 60.46 17.312 87.375l91.875-38.031c-6.3014-15.199-9.8125-31.866-9.8125-49.344s3.5112-34.145 9.8125-49.344z" fill="#229ed4"/><path d="m923.19 164.47-91.844 38.031c6.3014 15.199 9.7812 31.866 9.7812 49.344s-3.4799 34.145-9.7812 49.344l91.844 38.031c11.16-26.917 17.344-56.422 17.344-87.375s-6.1837-60.458-17.344-87.375z" fill="#8ec244"/><path d="m662.84 370.97-38.031 91.844c26.924 11.167 56.443 17.344 87.406 17.344 30.953 0 60.458-6.1837 87.375-17.344l-38.031-91.844c-15.199 6.3014-31.866 9.7812-49.344 9.7812-17.488 0-34.169-3.4729-49.375-9.7812z" fill="#229ed4"/><path d="m799.59 40.844-38.062 91.875c31.533 13.065 56.74 38.252 69.812 69.781l91.844-38.031c-23.145-55.824-67.768-100.48-123.59-123.62z" fill="#b2ce3b"/><path d="m624.81 40.875c-55.811 23.148-100.45 67.778-123.59 123.59l91.875 38.031c13.068-31.52 38.261-56.713 69.781-69.781z" fill="#2ea86f"/><path d="m593.09 301.19-91.875 38.031c23.139 55.815 67.783 100.45 123.59 123.59l38.031-91.844c-31.508-13.071-56.685-38.27-69.75-69.781z" fill="#207ab8"/><path d="m831.34 301.19c-13.068 31.52-38.261 56.713-69.781 69.781l38.031 91.844c55.821-23.144 100.45-67.773 123.59-123.59z" fill="#2ea86f"/></g><path d="m712.22 23.531c-30.963 0-60.482 6.1767-87.406 17.344l38.062 91.844c15.199-6.3014 31.866-9.8124 49.344-9.8124 17.467 0 34.121 3.5181 49.312 9.8124l38.062-91.875c-26.914-11.157-56.426-17.312-87.375-17.312z" fill="#8ec244"/><path d="m501.22 164.47c-11.158 26.915-17.312 56.425-17.312 87.375s6.1544 60.46 17.312 87.375l91.875-38.031c-6.3014-15.199-9.8125-31.866-9.8125-49.344s3.5112-34.145 9.8125-49.344z" fill="#229ed4"/><path d="m923.19 164.47-91.844 38.031c6.3014 15.199 9.7812 31.866 9.7812 49.344s-3.4799 34.145-9.7812 49.344l91.844 38.031c11.16-26.917 17.344-56.422 17.344-87.375s-6.1837-60.458-17.344-87.375z" fill="#8ec244"/><path d="m662.84 370.97-38.031 91.844c26.924 11.167 56.443 17.344 87.406 17.344 30.953 0 60.458-6.1837 87.375-17.344l-38.031-91.844c-15.199 6.3014-31.866 9.7811-49.344 9.7811-17.488 0-34.169-3.4728-49.375-9.7811z" fill="#229ed4"/><path d="m799.59 40.844-38.062 91.875c31.533 13.065 56.74 38.252 69.812 69.781l91.844-38.031c-23.145-55.824-67.768-100.48-123.59-123.62z" fill="#b2ce3b"/><path d="m624.81 40.875c-55.811 23.148-100.45 67.778-123.59 123.59l91.875 38.031c13.068-31.52 38.261-56.713 69.781-69.781z" fill="#2ea86f"/><path d="m593.09 301.19-91.875 38.031c23.139 55.815 67.783 100.45 123.59 123.59l38.031-91.844c-31.508-13.071-56.685-38.27-69.75-69.781z" fill="#207ab8"/><path d="m831.34 301.19c-13.068 31.52-38.261 56.713-69.781 69.781l38.031 91.844c55.821-23.144 100.45-67.773 123.59-123.59z" fill="#2ea86f"/></g><path d="m3334.3 6030.4v1352.7h444.1v-737.31l223.37 338h118.6l223.37-338v737.31h444.11v-1352.7h-453.99l-272.78 431.59-272.78-431.59zm2981.2 1352.7h-425.52v-661.41l-412.46 661.41h-438.49v-1352.4h444.97v666.38l394.81-666.38h436.66zm887.01-1029.7h-184.27v413.46h184.27c204.14 0 209.17-413.46 0-413.46zm42.871 730.18h-227.14v299.6h-452.26v-1352.4h679.41c757.07-7.3254 729.48 1058.8 0 1052.7z" stroke-width="32.093"/><path class="fil5" d="m5472.5 5796h-1674.5c19.253-165.03 77.563-320.7 174.93-465.93 97.367-145.78 279.45-317.95 546.79-515.99 163.38-121.57 268.45-213.44 314.65-276.7 45.658-63.26 68.762-122.67 68.762-179.33 0-61.06-22.554-113.32-67.662-157.33-45.108-43.458-102.31-64.91-171.08-64.91-70.962 0-129.82 22.554-174.93 67.112-45.658 45.108-103.41 204.09-118.82 317.95l-539.64 9.9017c9.9018-200.24 71.513-414.77 129.82-503.34 58.31-88.565 140.83-155.68 246.99-202.99 106.71-47.308 253.59-70.412 441.73-70.412 196.39 0 348.76 22.554 458.23 67.112 108.91 44.558 194.74 113.31 256.89 205.74 62.71 92.966 94.066 196.94 94.066 311.9 0 122.12-35.756 238.74-107.26 350.41-71.513 111.11-201.89 233.79-391.12 366.91-112.21 77.563-187.58 132.03-225.54 163.38-37.956 31.355-82.514 71.512-133.68 122.12h871.89v454.38zm1197.5-375.71h-1015.4v-458.78l1015.4-1207.4h485.18v1233.8h252.49v431.83h-252.49v375.71h-485.18v-375.71zm0-431.83v-633.7l-536.34 633.7z" fill-rule="nonzero" stroke-width=".55009"/></svg>
