<svg width="1e3pt" height="249.06pt" version="1.1" viewBox="0 0 1e3 249.06" xmlns="http://www.w3.org/2000/svg">
 <path d="m712.78 13.22h68.285v53.87h90.76l28.42 108.2 29.25-108.2h70.51l-60.47 176.74h-80.44l-45.42-135.68-32.61 2.5e-4 2.7e-4 63.86c-0.08 6.2 0.29 13.29 5.1 17.83 3.06 3.29 7.62 4.45 11.95 4.84 6.6 0.44 13.23 0.02 19.8-0.77l0.04 50.37-85.67 2.6e-4c-7.53-12.33-8.015-27.26-7.925-41.28l-11.58-94.85h-30.045v-41.06h30.045z" fill="#df1a00"/>
 <path d="m478.95 0h68.551l2.3e-4 109.96 1.5685-4.7035c2.78-8.9 7.7-17.24 14.95-23.21 13.07-10.96 30.25-15.3 46.83-17.36 23.91-2.67 48.24-2.1 71.88 2.5 11.47 3.04 23.1 7.84 30.87 17.22 8.8 10.34 10.46 24.54 10.73 37.61 0.12 26.99 0.03 53.99 0.05 80.98-0.09 14.02 0.37 28.95 7.9 41.28h-69c-2.99-4.5-3.25-8.9968-3.25-16.07-4.53 2.2-7.54 6.44-11.82 9-10.8 6.73-23.39 10.39-36.07 11.06-9.55 1.65-19.22 0.37-28.73-0.81-8.56-1.71-16.9-4.87-24.24-9.62-4.28-2.66-7.4388-6.85-11.669-9.57v16.365h-68.551v-49.545c-3.62 7.33-7.52 14.71-12.78 21.03-6.61 7.78-14.2 14.9-23.21 19.81-13.72 7.47-29.18 11.98-44.83 12.33-11.32 1.88-22.75-0.04-33.99-1.46-15.89-3.09-31.76-9.08-44.03-19.93-6.16-4.85-11-11.15-15.43-17.56-2.1062-3.4122-4.7031-7.8606-6.63-11.207l1e-5 45.777h-68.04v-103.9c-0.55-6.89-2.05-14.68-7.81-19.19-5.72-4.4-13.3-4.25-20.13-3.69-5.64 0.78-11.04 4.17-13.77 9.24-3.74 6.89-4.805 14.9-4.455 22.66v94.88h-68.405v-94.87c-0.43-8.75 0.41-18.7-5.57-25.89-4.45-5.67-12.19-6.62-18.92-6.23-7.73-0.16-15.36 4.59-18.4 11.73-2.41 5.79-3.455 12.1-3.625 18.34v96.92h-68.925v-175.69h66.71l0.21 22.52c2.8449-2.7554 4.91-4.94 7.33-7.43 10.57-11.7 26.06-18.16 41.6-19.48 16.25-2.3 33.65 1.37 46.64 11.68 5.57 4 9.33 9.82 12.79 15.61 3.51-3.77 6.6-7.96 10.61-11.26 10.97-9.16 24.87-14.5 39.05-15.9 17.56-2.2 36.72 0.08 51.32 10.8 12.07 8.55 18.82 22.81 21.17 37.11l0.44885 2.7602c0.45736-1.035 0.73536-1.6285 1.0512-2.2202 5.27-9.48 11.2-18.83 19.51-25.96 14.1-12.47 32.39-19.57 50.93-21.96 21.42-2.81 43.85-1.12 63.93 7.24 14.99 6.03 28.02 16.62 36.98 30.05 3.27 4.63 6.1262 10.569 8.67 15.427v-117.18m136.78 108.74c-3.57 2.94-5.12 7.93-5.53 12.41h-62.699v43.01c6.42-6.63 14.389-12.06 22.989-15.47 21.9-8.91 45.85-9.65 68.9-13.53 5.46-1.06 11.37-2.26 15.54-6.24 5.41-5.83 4.39-16.16-1.86-21.01-4.83-3.73-11.11-4.79-17.06-5-7.04 0.13-14.71 1.11-20.28 5.83m-235.28 3.96c-6.21 1.31-11.78 5.16-15.22 10.48-4.55 7.04-6.25 15.5-6.87 23.74-0.26 12.77-0.92 26.2 4.7 38.05 3.2 7.17 9.63 13.01 17.47 14.49 8.03 1.39 17.02 0.9 23.77-4.13 6.68-5.01 10.08-13.21 11.63-21.19 2.15-12.24 2.17-24.89-0.16-37.11-1.82-8.32-5.69-17.04-13.38-21.46-6.55-3.99-14.61-3.84-21.94-2.87m261.86 58.41c-9.28 2.69-19.3 3.54-27.75 8.57-7.4 4.59-8.73 16.22-2.6 22.37 5.78 6.66 15.39 8.38 23.72 6.72 7.89-1.29 15.46-5.94 19.06-13.25 2.934-5.3102 3.5827-9.8504 3.5402-15.458l-0.10958-14.482c-5.3 1.91-10.391 4.11-15.861 5.53z"/>
</svg>
