<svg width="738.28" height="201.43" version="1.1" viewBox="0 0 195.34 53.296" xmlns="http://www.w3.org/2000/svg">
 <path d="m55.86 11.99v36.946c0 2.4151 1.9441 4.3596 4.3594 4.3596h130.76c2.4151 0 4.3594-1.9444 4.3594-4.3596v-32.587c0-2.4151-1.9443-4.3594-4.3594-4.3594h-135.12z" fill="#ff544d" stroke-width="1.2067"/>
 <path d="m43.337 11.333c-0.256-2.0861-1.624-11.582-7.772-11.328-5.305 0.28039-6.848 5.2566-8.49 9.1485-1.957 5.3265-2.636 6.4125-5.409 6.4125-2.998-0.14-4.809-4.32-6.018-6.0776-0.98-1.4602-3.584-5.9643-7.2965-5.8241-2.0217 0-5.1816 1.029-7.1747 6.1398-1.8042 5.4929-1.1209 11.031-0.64861 13.407 1.5782 5.886 2.5041 9.353 5.2784 8.953 2.9818-0.208 1.3225-4.729 0.5501-7.098-0.4939-1.476-2.2276-6.391-0.2428-7.537 2.0842-1.3445 3.9734 3.7517 5.946 6.7679 1.7773 3.0918 2.951 6.6664 9.0006 6.781 3.7813 0 6.0011-2.1797 7.0981-4.2565 1.621-3.3486 3.5894-14.678 7.8652-14.786 3.1189 0.12404 2.2832 5.3284 2.2397 7.2172-0.12269 2.0956-1.5215 6.4443 1.9791 6.8715 4.0748 0.07031 3.6056-10.982 3.0939-14.792z" fill="#fff" stroke-width="1.2067"/>
 <g transform="matrix(.70833 0 0 .70833 -28.355 94.698)" fill="#fff" style="shape-inside:url(#rect2387);white-space:pre" aria-label="Biografías">
  <path d="m143.58-101.35q1.8 0 3.24 0.48 1.48 0.44 2.52 1.4 1.08 0.92 1.64 2.36 0.6 1.4 0.6 3.32 0 1.72-0.72 3.12-0.72 1.36-2.04 2.04 2 0.8 3.08 2.48 1.12 1.68 1.12 4.36 0 4.12-2.48 6.28-2.44 2.16-6.76 2.16h-10.44v-28zm-5.04 4.8v6.08h4.76q1.56 0 2.4-0.64 0.88-0.68 0.88-2.4t-0.88-2.36q-0.84-0.68-2.52-0.68zm0 10.88v7.52h4.76q2.44 0 3.48-0.96 1.04-1 1.04-2.8t-1.04-2.76q-1.04-1-3.48-1z"/>
  <path d="m155.01-99.314q0-1.36 0.88-2.28 0.92-0.92 2.32-0.92t2.28 0.92q0.92 0.92 0.92 2.28t-0.92 2.28q-0.88 0.92-2.28 0.92t-2.32-0.92q-0.88-0.92-0.88-2.28zm5.68 5.8v20.16h-4.96v-20.16z"/>
  <path d="m163.79-83.434q0-2.2 0.68-4.08 0.68-1.92 2-3.32t3.2-2.2q1.92-0.8 4.36-0.8t4.32 0.8q1.92 0.8 3.24 2.2t2 3.32q0.68 1.88 0.68 4.08t-0.68 4.12q-0.68 1.88-2 3.28t-3.24 2.2q-1.88 0.8-4.32 0.8t-4.36-0.8q-1.88-0.8-3.2-2.2t-2-3.28q-0.68-1.92-0.68-4.12zm5.2 0q0 1.24 0.32 2.36 0.36 1.12 1 1.96t1.56 1.36q0.96 0.48 2.16 0.48t2.12-0.48q0.96-0.52 1.6-1.36t0.96-1.96q0.36-1.12 0.36-2.36t-0.36-2.36q-0.32-1.12-0.96-1.96t-1.6-1.32q-0.92-0.52-2.12-0.52t-2.16 0.52q-0.92 0.48-1.56 1.32t-1 1.96q-0.32 1.12-0.32 2.36z"/>
  <path d="m187.49-87.034q0-1.56 0.56-2.8 0.6-1.28 1.6-2.16t2.36-1.36 2.88-0.48q1.96 0 3.72 0.88l3.8-2 1.96 3.28-2.88 1.44q0.8 1.4 0.8 3.2 0 1.6-0.6 2.84-0.56 1.24-1.56 2.12-1 0.84-2.36 1.32-1.36 0.44-2.88 0.44t-2.92-0.44q-0.96 0.56-0.96 1.52 0 1.48 1.88 1.48h4.12q3.2 0 5.12 1.52 1.96 1.48 1.96 4.4 0 1.88-0.8 3.2t-2.12 2.16q-1.28 0.84-2.92 1.2-1.64 0.4-3.32 0.4-1.92 0-3.6-0.44-1.68-0.4-2.92-1.24-1.2-0.84-1.92-2.08-0.68-1.24-0.68-2.88 0-1.24 0.4-2.24 0.44-1.04 1.24-1.76-0.48-0.56-0.76-1.36t-0.28-1.76q0-1.44 0.68-2.48 0.68-1.08 1.8-1.76-0.68-0.8-1.04-1.84t-0.36-2.32zm5.68 13.44q-0.64 0-1.2-0.04t-1.12-0.12q-0.44 0.68-0.44 1.84 0 1.44 1.28 2.16t3.24 0.72q1.8 0 3-0.56t1.2-1.92q0-1.28-0.92-1.68t-2.32-0.4zm-1.04-13.44q0 1.24 0.76 2 0.8 0.72 2 0.72t1.96-0.72q0.8-0.76 0.8-2 0-1.28-0.8-2.04-0.76-0.76-1.96-0.76t-2 0.76q-0.76 0.76-0.76 2.04z"/>
  <path d="m206.36-73.354v-20.16h4.96v3.28q1.08-1.8 2.64-2.68 1.6-0.92 3.32-0.92 0.32 0 0.72 0.04 0.44 0.04 0.8 0.12v4.84q-0.92-0.56-2.08-0.56-1.08 0-2.08 0.48-0.96 0.48-1.72 1.52-0.72 1.04-1.16 2.76-0.44 1.68-0.44 4.12v7.16z"/>
  <path d="m220.42-83.434q0-2.32 0.64-4.24t1.88-3.28 3-2.12q1.8-0.76 4.08-0.76 1.68 0 3.12 0.72 1.48 0.68 2.16 1.52v-1.92h4.96v20.16h-4.96v-2.08q-0.72 1-2.08 1.72-1.32 0.68-3.2 0.68-2.28 0-4.08-0.76-1.76-0.76-3-2.12t-1.88-3.28-0.64-4.24zm5.2 0q0 1.52 0.4 2.68 0.44 1.12 1.16 1.92 0.72 0.76 1.64 1.16t1.88 0.4 1.88-0.4 1.6-1.16q0.72-0.8 1.12-1.92 0.44-1.16 0.44-2.68 0-1.48-0.44-2.64-0.4-1.16-1.12-1.92-0.68-0.8-1.6-1.2t-1.88-0.4-1.88 0.4-1.64 1.2q-0.72 0.76-1.16 1.92-0.4 1.16-0.4 2.64z"/>
  <path d="m242.92-93.514h2.56v-1.04q0-3.68 1.92-5.4t5.04-1.72q0.8 0 1.44 0.08 0.68 0.04 1.24 0.24v4.48q-0.64-0.28-1.2-0.4-0.56-0.16-1.2-0.16-1.04 0-1.68 0.6-0.6 0.56-0.6 1.92v1.4h4.24v4.24h-4.24v15.92h-4.96v-15.92h-2.56z"/>
  <path d="m263.03-93.514v20.16h-4.96v-20.16zm-3.36-8.16h6.72l-5.48 5.92h-3.8z"/>
  <path d="m266.45-83.434q0-2.32 0.64-4.24t1.88-3.28 3-2.12q1.8-0.76 4.08-0.76 1.68 0 3.12 0.72 1.48 0.68 2.16 1.52v-1.92h4.96v20.16h-4.96v-2.08q-0.72 1-2.08 1.72-1.32 0.68-3.2 0.68-2.28 0-4.08-0.76-1.76-0.76-3-2.12t-1.88-3.28-0.64-4.24zm5.2 0q0 1.52 0.4 2.68 0.44 1.12 1.16 1.92 0.72 0.76 1.64 1.16t1.88 0.4 1.88-0.4 1.6-1.16q0.72-0.8 1.12-1.92 0.44-1.16 0.44-2.68 0-1.48-0.44-2.64-0.4-1.16-1.12-1.92-0.68-0.8-1.6-1.2t-1.88-0.4-1.88 0.4-1.64 1.2q-0.72 0.76-1.16 1.92-0.4 1.16-0.4 2.64z"/>
  <path d="m296.87-93.834q2.04 0 3.72 0.92 1.68 0.88 2.6 2.36l-2.96 2.72q-0.68-0.92-1.6-1.32-0.92-0.44-1.76-0.44-0.72 0-1.28 0.44-0.56 0.4-0.56 1.24 0 0.68 0.48 1.16 0.52 0.48 1.44 0.8 1.04 0.36 2.28 0.8 1.28 0.4 2.4 1.08 1.12 0.64 1.84 1.68 0.76 1.04 0.76 2.64 0 1.36-0.52 2.6-0.48 1.2-1.44 2.12-0.92 0.92-2.24 1.48-1.32 0.52-2.96 0.52-1.56 0-2.88-0.48-1.32-0.52-2.32-1.28-1-0.8-1.72-1.76-0.72-1-1.08-1.92l3.96-2.12q0.56 1.48 1.56 2.4t2.48 0.92q1.16 0 1.8-0.52 0.68-0.52 0.68-1.64 0-0.64-0.44-1.04t-1.16-0.72q-0.72-0.36-1.64-0.64-0.88-0.28-1.8-0.68-0.84-0.36-1.6-0.8-0.72-0.44-1.28-1.08t-0.88-1.52-0.32-2.04 0.44-2.2q0.48-1.08 1.32-1.88 0.84-0.84 2-1.32 1.2-0.48 2.68-0.48z"/>
 </g>
</svg>
