<!DOCTYPE svg  PUBLIC '-//W3C//DTD SVG 1.1//EN'  'http://www.w3.org/Graphics/SVG/1.1/DTD/svg11.dtd'>
<svg enable-background="new 0 0 600 218.26" version="1.1" viewBox="0 0 600 218.26" xml:space="preserve" xmlns="http://www.w3.org/2000/svg">
<g transform="translate(-292.55 -33.025)">
		<path d="m521.32 82.131v151.29c0 9.892 7.966 17.857 17.856 17.857h335.52c9.891 0 17.856-7.966 17.856-17.857v-133.44c0-9.891-7.966-17.857-17.856-17.857h-353.36l-0.025-1e-3z" fill="#FF8C1F"/>
		<path d="m521.32 82.131-0.046 1e-3 0.046-1e-3z" fill="#FF544D"/>
		<path d="m470.04 79.439c-1.05-8.543-6.651-47.429-31.826-46.39-21.725 1.147-28.045 21.526-34.769 37.464-8.014 21.813-10.793 26.262-22.148 26.262-12.279-0.574-19.697-17.692-24.647-24.89-4.014-5.979-14.677-24.425-29.88-23.852-8.28 0-21.22 4.214-29.382 25.145-7.388 22.493-4.589 45.173-2.655 54.905 6.464 24.102 10.256 38.302 21.616 36.665 12.212-0.857 5.416-19.368 2.253-29.072-2.023-6.04-9.123-26.168-0.995-30.862 8.535-5.507 16.271 15.363 24.351 27.715 7.278 12.662 12.085 27.301 36.859 27.771 15.485 0 24.575-8.927 29.068-17.432 6.638-13.713 14.699-60.109 32.209-60.552 12.772 0.508 9.35 21.82 9.172 29.556-0.502 8.582-6.231 26.391 8.105 28.141 16.687 0.288 14.766-44.973 12.67-60.575l-1e-3 1e-3z" fill="#fff"/>
	<g fill="#fff">
		<path d="m596.73 148.22c-1.563-3.05-3.245-5.239-5.044-6.569-1.798-1.407-3.909-2.111-6.334-2.111-2.268 0-4.145 0.704-5.63 2.111-1.486 1.408-2.229 3.207-2.229 5.396 0 2.346 0.86 4.34 2.58 5.982 1.721 1.642 3.871 3.167 6.452 4.574 2.658 1.329 5.474 2.697 8.445 4.105 3.05 1.407 5.865 3.089 8.445 5.044 2.659 1.877 4.849 4.184 6.569 6.921 1.72 2.736 2.58 6.139 2.58 10.205 0 3.988-0.626 7.585-1.877 10.791-1.251 3.128-3.05 5.787-5.396 7.977-2.268 2.189-5.044 3.871-8.328 5.044-3.206 1.173-6.764 1.76-10.674 1.76-3.754 0-7.233-0.587-10.439-1.76-3.128-1.251-5.903-2.933-8.328-5.044-2.424-2.111-4.457-4.536-6.1-7.272-1.642-2.815-2.775-5.787-3.401-8.915l12.316-7.742c0.626 2.189 1.408 4.301 2.346 6.334s2.072 3.832 3.402 5.396c1.328 1.485 2.854 2.697 4.574 3.636 1.721 0.86 3.715 1.291 5.981 1.291 3.206 0 5.787-0.821 7.742-2.464 1.955-1.721 2.933-4.457 2.933-8.211 0-2.268-0.86-4.145-2.581-5.63-1.642-1.486-3.753-2.854-6.333-4.105-2.581-1.33-5.357-2.659-8.328-3.988-2.894-1.408-5.631-3.089-8.211-5.044-2.581-2.033-4.731-4.458-6.452-7.272-1.643-2.894-2.463-6.53-2.463-10.909 0-3.128 0.547-6.021 1.643-8.681 1.173-2.736 2.737-5.082 4.692-7.037 2.033-2.033 4.418-3.637 7.155-4.81 2.736-1.173 5.708-1.76 8.914-1.76 5.474 0 10.205 1.291 14.193 3.871 4.065 2.581 7.232 6.256 9.501 11.026l-12.315 7.86z"/>
		<path d="m672.47 183.65h-40.702c0.076 1.643 0.429 3.284 1.057 4.927 0.625 1.563 1.523 2.972 2.697 4.223 1.173 1.251 2.581 2.268 4.223 3.05 1.721 0.782 3.715 1.173 5.982 1.173 3.362 0 6.1-0.704 8.211-2.111 2.111-1.485 4.027-3.598 5.748-6.334l11.729 4.34c-1.173 2.424-2.542 4.652-4.105 6.686-1.564 2.033-3.402 3.793-5.513 5.278-2.112 1.408-4.575 2.542-7.391 3.401-2.736 0.782-5.904 1.174-9.501 1.174-5.083 0-9.423-0.938-13.021-2.815s-6.53-4.262-8.798-7.155c-2.268-2.972-3.949-6.256-5.044-9.854-1.018-3.597-1.525-7.155-1.525-10.674 0-3.52 0.508-7.077 1.525-10.675 1.096-3.597 2.776-6.842 5.044-9.735 2.268-2.972 5.2-5.396 8.798-7.272s7.938-2.815 13.021-2.815c4.927 0 9.11 0.938 12.551 2.815 3.52 1.799 6.373 4.145 8.563 7.038 2.269 2.814 3.91 5.942 4.927 9.384 1.018 3.44 1.526 6.764 1.526 9.97l-2e-3 5.981zm-27.565-22.756c-1.877 0-3.558 0.353-5.044 1.056-1.408 0.626-2.659 1.486-3.754 2.581-1.017 1.017-1.877 2.189-2.58 3.519-0.704 1.33-1.174 2.698-1.407 4.105h25.454c-0.315-1.485-0.785-2.894-1.41-4.224-0.624-1.33-1.445-2.503-2.461-3.519-1.02-1.096-2.271-1.955-3.757-2.581-1.407-0.625-3.088-0.938-5.043-0.938h2e-3z"/>
		<path d="m679.76 209.46v-59.115h14.545v9.618c2.111-3.519 4.692-6.138 7.742-7.858 3.128-1.799 6.373-2.698 9.735-2.698 0.627 0 1.33 0.039 2.11 0.117 0.86 0.078 1.643 0.195 2.346 0.352v14.193c-1.798-1.095-3.831-1.643-6.099-1.643-2.111 0-4.145 0.469-6.1 1.407-1.877 0.938-3.559 2.425-5.044 4.458-1.407 2.033-2.541 4.73-3.402 8.094-0.859 3.284-1.29 7.311-1.29 12.081v20.997l-14.543-3e-3z"/>
		<path d="m718.05 133.33c0-2.658 0.86-4.888 2.58-6.686 1.799-1.799 4.066-2.698 6.804-2.698 2.736 0 4.965 0.899 6.686 2.698 1.799 1.798 2.698 4.027 2.698 6.686s-0.899 4.888-2.698 6.687c-1.721 1.798-3.949 2.697-6.686 2.697s-5.005-0.899-6.804-2.697c-1.719-1.799-2.58-4.028-2.58-6.687zm16.656 17.009v59.119h-14.544v-59.115l14.544-4e-3z"/>
		<path d="m797.57 183.65h-40.702c0.076 1.643 0.429 3.284 1.057 4.927 0.626 1.563 1.525 2.972 2.697 4.223 1.174 1.251 2.581 2.268 4.224 3.05 1.72 0.782 3.714 1.173 5.981 1.173 3.362 0 6.1-0.704 8.211-2.111 2.111-1.485 4.027-3.598 5.748-6.334l11.729 4.34c-1.173 2.424-2.542 4.652-4.105 6.686s-3.401 3.793-5.513 5.278c-2.111 1.408-4.575 2.542-7.391 3.401-2.736 0.782-5.903 1.174-9.501 1.174-5.083 0-9.423-0.938-13.021-2.815-3.597-1.877-6.529-4.262-8.797-7.155-2.269-2.972-3.949-6.256-5.044-9.854-1.018-3.598-1.526-7.155-1.526-10.674 0-3.52 0.509-7.077 1.526-10.675 1.095-3.597 2.776-6.842 5.044-9.735 2.268-2.972 5.2-5.396 8.798-7.272 3.597-1.877 7.937-2.815 13.021-2.815 4.927 0 9.11 0.938 12.551 2.815 3.519 1.799 6.373 4.145 8.563 7.038 2.268 2.814 3.91 5.942 4.927 9.384 1.018 3.44 1.526 6.764 1.526 9.97l-3e-3 5.981zm-27.566-22.756c-1.877 0-3.559 0.353-5.044 1.056-1.408 0.626-2.66 1.486-3.754 2.581-1.018 1.017-1.877 2.189-2.58 3.519-0.704 1.33-1.174 2.698-1.407 4.105h25.453c-0.313-1.485-0.781-2.894-1.406-4.223-0.627-1.329-1.447-2.503-2.464-3.519-1.016-1.096-2.267-1.955-3.753-2.581-1.408-0.625-3.09-0.938-5.045-0.938z"/>
		<path d="m823.08 148.46c3.987 0 7.624 0.898 10.908 2.697 3.284 1.721 5.826 4.027 7.624 6.921l-8.68 7.977c-1.329-1.799-2.894-3.089-4.692-3.871-1.799-0.86-3.519-1.29-5.161-1.29-1.408 0-2.66 0.43-3.754 1.29-1.095 0.782-1.643 1.994-1.643 3.636 0 1.33 0.469 2.464 1.407 3.402 1.016 0.938 2.423 1.72 4.223 2.346 2.033 0.704 4.262 1.485 6.686 2.346 2.503 0.782 4.849 1.838 7.038 3.167 2.189 1.252 3.988 2.894 5.396 4.927 1.486 2.033 2.229 4.613 2.229 7.742 0 2.658-0.508 5.2-1.525 7.624-0.938 2.346-2.346 4.418-4.224 6.217-1.798 1.799-3.987 3.245-6.568 4.34-2.58 1.017-5.474 1.525-8.68 1.525-3.05 0-5.865-0.47-8.446-1.408-2.58-1.017-4.848-2.268-6.803-3.753-1.955-1.564-3.637-3.284-5.045-5.161-1.406-1.955-2.462-3.832-3.166-5.631l11.612-6.217c1.095 2.894 2.62 5.239 4.574 7.038 1.955 1.799 4.379 2.698 7.272 2.698 2.268 0 4.027-0.509 5.278-1.525 1.329-1.017 1.994-2.619 1.994-4.809 0-1.252-0.431-2.269-1.29-3.05-0.86-0.782-1.994-1.486-3.402-2.111-1.407-0.704-3.01-1.33-4.809-1.877-1.721-0.548-3.48-1.213-5.279-1.995-1.642-0.703-3.206-1.485-4.691-2.346-1.409-0.86-2.66-1.916-3.754-3.167-1.096-1.251-1.955-2.737-2.58-4.457-0.627-1.721-0.939-3.715-0.939-5.982s0.43-4.418 1.29-6.451c0.938-2.111 2.228-3.949 3.87-5.513 1.643-1.643 3.598-2.933 5.865-3.871 2.346-0.938 4.966-1.408 7.859-1.408h6e-3z"/>
	</g>
</g>
</svg>
