<svg width="137.93pt" height="97.209pt" version="1.1" viewBox="0 0 137.93 97.209" xmlns="http://www.w3.org/2000/svg">
 <path d="m69.283 1.1699c3.79-1.73 8.56-1.64 11.9 1.01 4.66 3.61 6.44 9.56 7.91 15.02 2.42 10.61 2.7 21.87 0.19 32.49-0.75 3.77-6.02 6.66-8.88 3.25-2.59-3.98-0.63-9-0.59-13.39 0.08-4.33 1.3-9.53-1.73-13.14-2.89-2.75-6.81-0.01-8.58 2.64-5.7 8.11-6.89 18.29-10.9 27.18-5.03 10.65-22.01 11.82-28.73 2.25-4.35-6.18-7.49-13.12-11.62-19.44-1-1.35-2.43-3.18-4.35-2.69-2.43 0.31-3.06 3.1-2.98 5.14 0.21 7.24 4.01 13.78 4.8 20.92 0.4 2.73-1.96 5.56-4.82 5.02-3.29-0.22-4.75-3.64-5.84-6.27-3.87-10.31-6.35-21.56-4.36-32.56 1.12-6.29 2.98-12.98 7.85-17.45 4.35-4.05 11.78-4.66 16.37-0.66 6.37 5.22 9.19 13.35 14.63 19.35 3.33 3.84 10.21 3.78 12.79-0.88 3.53-6.71 5.49-14.17 9.22-20.79 1.81-3.01 4.48-5.57 7.72-7z" fill="#fff"/>
 <g transform="matrix(.07264 0 0 .07264 -44.628 73.089)" fill="#fff">
  <path d="m1922.8 28.95c-0.32-2.49 1.85-4.51 4.3-4.38 14.64-0.18 29.29-0.02 43.93-0.07 2.71-0.26 6.1 1.14 5.87 4.36 0.38 15.3-0.06 30.63 0.22 45.93 15.32-0.12 30.65 0.02 45.97-0.06 1.91 0.05 4.18-0.09 5.7 1.36 1.32 1.28 1.13 3.27 1.26 4.96-0.05 11.34 0.03 22.68-0.04 34.02 0.21 2.76-2.29 4.84-4.92 4.66-16.02 0.08-32.03-0.01-48.05 0.04-0.01 38.75 0 77.5 0 116.24 0.42 9.55 1.39 19.48 6.04 28.01 3.97 7.16 11.16 12.12 18.99 14.22 8.41 2.49 17.27 2.42 25.96 2.54 2.81-0.22 5.11 2.38 4.97 5.11 0.11 11.03-0.03 22.07 0.06 33.11-0.09 2.02 0.2 4.24-0.86 6.07-1.07 1.81-3.33 2.28-5.25 2.41-20.93 0.25-42.65-0.4-62.06-9.12-14.86-6.42-27.11-18.6-33.47-33.5-7.96-18.5-8.94-39.03-8.63-58.89 0.01-65.67-0.01-131.35 0.01-197.02z"/>
  <path d="m685.57 80.57c18.85-8.58 39.89-11.06 60.43-10.57 19.7-0.42 39.82 0.79 58.49 7.61 9.9 3.55 19.27 9.04 26.29 16.98 10.38-12.17 25.98-18.28 41.26-21.52 13.78-2.95 27.92-3.3 41.95-3.07 22.42-0.51 45.61 2.6 65.57 13.37 15.61 8.3 28.37 22.47 33.42 39.57 5.44 17.82 4.85 36.64 4.78 55.05-0.02 48.03 0.03 96.07-0.02 144.1 0.08 3.11-2.75 5.57-5.79 5.39-13.94 0.04-27.87 0.02-41.81 0.02-2.43 0.08-5.36-0.85-6.06-3.44-0.59-2.65-0.29-5.38-0.34-8.06 0.02-44.66 0-89.31 0.01-133.97-0.49-12.03-0.05-24.18-2.03-36.1-1.62-9.41-7.66-17.87-16.16-22.25-13.36-6.92-28.93-6.88-43.58-6.36-13.32 0.75-28.02 3.95-36.84 14.83-7.32 8.86-7.25 20.93-7.79 31.8-0.74 23-0.18 46.02-0.35 69.03 0.09 29.98-0.08 59.96-0.32 89.94-0.35 2.75-3 4.64-5.69 4.56-14.01 0.05-28.04 0.03-42.05 0.01-2.41 0.09-5.16-0.89-5.89-3.39-0.66-3.3-0.18-6.7-0.3-10.04-0.13-47.67 0.3-95.35-0.28-143.02-0.9-12.39 0.56-26.03-6.61-36.93-6.78-10.21-19.22-14.56-30.86-16.09-11.89-1.32-24.02-1.4-35.85 0.58-10.35 1.88-21.17 6.43-26.84 15.79-5.35 8.15-5.46 18.21-5.99 27.59-0.96 22.99-0.42 46.02-0.56 69.03-0.03 30.3 0.06 60.61-0.04 90.91 0.17 3.18-2.67 5.71-5.76 5.56-14.2 0.02-28.41 0.06-42.61-0.02-3.04 0.17-5.94-2.37-5.59-5.52-0.02-52.63-0.01-105.27-0.01-157.9-0.08-16.6 1.07-33.76 7.82-49.15 7.03-15.55 20.61-27.4 36-34.32z"/>
  <path d="m1154.6 70.85c12.1-1.2 24.27-0.82 36.42-0.81 21.02 0.79 42.73 4.01 61.16 14.78 14.41 8.37 25.51 21.93 31.53 37.41 8.85 22.45 10.75 46.85 11.26 70.75 0.18 26.19-0.43 52.88-8.23 78.11-4.96 16.75-14.71 32.52-29.26 42.54-18.13 12.79-40.72 16.95-62.46 18.08-20.33 0.7-40.94 0.72-60.86-3.88-13.76-3.17-27.21-8.79-38.03-18.02-11.15-9.27-18.86-22.11-23.45-35.76-8.12-24.45-9.08-50.5-9.19-76.04 0.33-18.8 1.09-37.76 5.32-56.15 3.25-14.58 8.62-29.08 18.31-40.65 8.25-10.21 19.53-17.68 31.7-22.4 11.42-4.51 23.59-6.76 35.78-7.96m7.02 46.94c-8.13 0.93-16.39 2.96-23.19 7.68-6.5 4.41-10.91 11.29-13.52 18.59-3.89 10.51-4.42 21.8-5.56 32.84-1.79 19.06-1.26 38.26 0.9 57.26 1.19 12.33 3.21 25.39 11 35.46 6.13 8.05 15.93 12.27 25.7 13.84 12.26 1.87 24.74 1.85 37.09 0.95 10.73-0.93 22.06-3.56 30.05-11.26 8.37-8.11 11.71-19.85 13.31-31.07 1.61-13.61 2.95-27.3 2.8-41.02 0.18-13.43-1.15-26.84-2.64-40.17-1.53-11.09-4.52-22.71-12.4-31.07-7.49-7.97-18.58-11.06-29.14-12.13-11.43-1.01-22.98-1.03-34.4 0.1z"/>
  <path d="m1776.4 70.6c25.65-2.01 51.41 0.66 76.7 4.98 3.31 0.71 6.75 1.03 9.92 2.3 2.6 1.3 2.37 4.59 2.47 7.06-0.14 10.98 0.18 21.98-0.15 32.95 0.02 3.47-3.65 4.52-6.44 3.8-23.04-4.03-46.36-7.62-69.82-6.86-10.01 0.44-20.31 1.52-29.37 6.1-5.8 2.94-10.61 8.38-11.59 14.95-1.45 7.03 0.82 14.84 6.46 19.46 8.38 6.97 19.01 10.24 29.07 13.96 20.07 7.6 40.68 14.1 59.68 24.21 11.3 6.12 22.29 14.01 28.72 25.43 9.59 16.82 10.66 37.46 6.31 56.03-4.12 17.04-15.5 31.91-30.53 40.83-21.14 12.89-46.55 16.1-70.87 16.22-24.03-0.37-48.25-3.28-71.13-10.85-2.9-0.68-5.65-2.91-5.59-6.11-0.01-12.06-0.13-24.14 0.07-36.21-0.03-2.74 3.16-4.32 5.57-3.41 27.42 8.55 56.42 13.28 85.16 10.52 9.95-1.17 20.35-3.21 28.5-9.43 10.8-8.07 12.63-26.28 2.54-35.62-5.7-5.53-13.19-8.61-20.41-11.59-19.15-7.2-38.57-13.68-57.5-21.43-13.94-5.85-28.02-13.42-36.96-26.04-11.32-16.06-13.43-37.17-9.39-56.02 3.82-17.28 14.97-32.79 30.22-41.79 14.59-8.67 31.62-12.11 48.36-13.44z"/>
  <path d="m2097.9 76.25c26.38-4.84 53.28-7.16 80.1-6.04 15.81 0.79 31.75 2.73 46.77 7.93 15.42 5.62 30.18 14.65 39.68 28.33 11.59 16.35 14.86 36.9 15.27 56.51 0.07 25.36 0 50.71 0.04 76.07-0.35 17.65-1.66 35.97-9.66 52.04-5.88 11.87-15.91 21.33-27.56 27.47-19.41 10.3-41.75 13.87-63.54 13.44-21.56 0.24-43.64-1.31-63.89-9.25-15.25-5.82-29.24-16-37.65-30.19-9.91-16.27-11.76-36.07-9.93-54.68 1.78-16.37 8.48-32.44 20.15-44.23 10.98-11.27 25.73-18.18 40.85-21.92 20.41-5.2 41.72-5.1 62.59-3.62 11.58 0.87 23.06 2.66 34.47 4.74-0.18-11.65 0.2-23.86-4.69-34.73-3.4-7.79-10.29-13.6-18.05-16.77-7.91-3.22-16.44-4.45-24.89-5.22-25.39-1.94-50.88 0.32-76 4.04-2.29 0.29-4.66 0.87-6.86 0.04-1.98-0.93-2.18-3.29-2.12-5.18 0.06-11.03-0.08-22.06 0.06-33.08-0.05-2.8 1.98-5.45 4.86-5.7m46.12 138.77c-7.83 2.64-14.87 7.99-18.7 15.41-7.34 13.96-6.19 33.32 5.89 44.34 9.97 8.88 23.8 11.49 36.75 11.97 9.29-0.1 18.69 0.56 27.88-1.23 8.06-1.47 16.28-4.57 21.94-10.75 4.85-5.33 6.49-12.68 7.12-19.66 1.09-12.76 0.35-25.58 0.64-38.37-17.09-4.54-34.92-5.67-52.54-5.48-9.75-0.07-19.69 0.63-28.98 3.77z"/>
  <path d="m2406.4 70.59c14.84-1.19 29.76-0.32 44.64-0.6 2.96-0.5 5.65 2.02 5.42 5.03 0.05 11.98-0.01 23.96 0.03 35.94 0.19 2.47-1.07 5.36-3.81 5.64-14.95 0.82-30.17-1.25-44.9 2.13-7.94 1.83-15.93 5.64-20.59 12.58-5.12 7.11-6.2 16.11-6.69 24.63-1.16 20.66-0.65 41.37-0.76 62.06-0.02 35.04 0.03 70.08-0.03 105.12 0.27 2.86-2.56 4.54-5.11 4.35-14.5 0.06-29.01 0.03-43.5 0.01-2.7 0.18-5.78-1.45-5.35-4.55-0.05-43.64-0.01-87.29-0.02-130.93 0.4-20.04-1.37-40.31 2.46-60.12 2.4-14.27 9.28-27.79 19.81-37.77 15.61-14.93 37.29-21.6 58.4-23.52z"/>
  <path d="m1323.7 81c-0.46-2.76 1.02-6.28 4.26-6.18 15.34-0.18 30.7-0.01 46.05-0.08 2.77-0.18 6.41 0.92 6.64 4.21 2.86 42.24 11.61 84.02 25.14 124.12 8.08 24.68 17.8 48.84 29.37 72.1 2.84-3.39 4.06-7.82 6.14-11.69 26.44-57.81 44.45-119.99 48.75-183.59-0.12-2.76 2.11-5.15 4.91-5.06 15.32-0.2 30.65-0.01 45.98-0.09 2.62-0.28 6.03 1.12 5.65 4.3-1.35 40.24-11.08 79.72-23.92 117.72-14.97 43.77-34.56 85.81-56.3 126.59-1.29 2.93-4.46 4.27-7.51 4.14-15.61 0.01-31.21 0.02-46.82 0-3.22 0.01-6.79-1.11-8.24-4.24-20.68-38.59-40.2-77.99-54.71-119.38-14-39.55-22.65-81-25.39-122.87z"/>
  <path d="m1593.2 75.29c1.85-0.65 3.87-0.54 5.84-0.56 13.63 0.07 27.27-0.04 40.91 0.05 2.41-0.2 5.39 1.28 5.06 4.1 0.05 25.02 0 50.05 0.02 75.07 0.53 55.02 0.11 110.05 0.27 165.07-0.06 2 0.12 4.07-0.49 6.02-0.95 2.19-3.71 2.39-5.76 2.46-14.33-0.02-28.66 0.07-42.98-0.04-2.55 0.15-5.32-1.59-5.03-4.39-0.04-81.02 0.02-162.04-0.03-243.06-0.16-1.8 0.25-4.03 2.19-4.72z"/>
 </g>
 <g transform="matrix(.16437 0 0 .16437 -38.287 -60.983)">
  <path d="m918.86 376.3c-0.36-2.83 2.29-5.26 5.04-5.19 14.3-0.13 28.61-0.01 42.92-0.06 2.94-0.37 6.33 1.9 6.01 5.13 0.04 31.37 0.01 62.75 0.02 94.13-0.05 17.98 0.16 35.97-0.11 53.95-17.93 0.78-35.92 0.17-53.87 0.32-31.02-0.05-62.04 0-93.06-0.02-3.08 0.42-6.4-2-6.2-5.23-0.05-14.03 0.03-28.06-0.04-42.09-0.03-1.94-0.07-4.23 1.61-5.58 2.1-1.83 5.04-1.28 7.63-1.37 30.01 0.04 60.02 0.01 90.03 0.02 0.03-31.34-0.01-62.67 0.02-94.01z" fill="#fff"/>
  <g transform="translate(-1650.2 296.31)">
   <path d="m2623 174c30.34-0.02 60.67 0.04 91.01-0.03 2.19 0.05 4.74-0.25 6.57 1.33 2.1 1.89 2.14 5.06 2.09 7.7-0.6 13.66 0.51 27.36-0.49 40.99-0.51 2.86-3.42 4.61-6.18 4.26-30.97-0.01-61.94 0.08-92.91-0.05-0.2 30.59-0.06 61.19-0.06 91.78-0.11 1.93 0.22 4.22-1.3 5.71-1.34 1.77-3.74 1.78-5.71 1.82-13.67-0.05-27.34 0.03-41-0.03-3.64 0.52-6.69-2.92-6.04-6.44 0.06-30.93-0.03-61.85 0.04-92.77 17.95-0.15 35.94 0.46 53.87-0.32 0.27-17.98 0.06-35.97 0.11-53.95z" fill="#fff" opacity=".5"/>
  </g>
 </g>
</svg>
