<svg width="800" height="302.86" version="1.1" viewBox="0 0 211.67 80.131" xmlns="http://www.w3.org/2000/svg">
 <path d="m53.961 12.251v61.846c0 3.3427 2.6912 6.0339 6.0339 6.0339h145.64c3.3427 0 6.0339-2.6912 6.0339-6.0339v-55.813c0-3.3427-2.6912-6.0339-6.0339-6.0339z" fill="#01da95" stroke-width="1.6967"/>
 <g transform="matrix(1.6967 0 0 1.6967 -45.78 -233.61)" fill="#fff" stroke-width=".65375">
  <path d="m66.457 151.34v9.1002h4.6599v1.8828h-6.6996v-10.983z"/>
  <path d="m71.974 152.14q0-0.53345 0.34518-0.89432 0.36087-0.36087 0.91002-0.36087t0.89433 0.36087q0.36087 0.36087 0.36087 0.89432 0 0.53346-0.36087 0.89433-0.34518 0.36087-0.89433 0.36087t-0.91002-0.36087q-0.34518-0.36087-0.34518-0.89433zm2.228 2.275v7.9077h-1.9456v-7.9077z"/>
  <path d="m76.261 156.96q0-0.6119 0.21966-1.0983 0.23535-0.50208 0.6276-0.84726t0.92571-0.53346 1.1297-0.18828q0.76881 0 1.4592 0.34518l1.4905-0.78449 0.76881 1.2866-1.1297 0.56484q0.3138 0.54915 0.3138 1.2552 0 0.6276-0.23535 1.114-0.21966 0.48639-0.61191 0.83156-0.39225 0.32949-0.92571 0.51777-0.53346 0.17259-1.1297 0.17259-0.59622 0-1.1454-0.17259-0.37656 0.21966-0.37656 0.59622 0 0.58053 0.73743 0.58053h1.6161q1.2552 0 2.0083 0.59621 0.76881 0.58053 0.76881 1.7259 0 0.73742-0.3138 1.2552-0.3138 0.51777-0.83157 0.84726-0.50208 0.32948-1.1454 0.47069-0.64329 0.1569-1.3023 0.1569-0.75312 0-1.4121-0.17259-0.65898-0.1569-1.1454-0.48638-0.4707-0.32949-0.75312-0.81588-0.26673-0.48639-0.26673-1.1297 0-0.48638 0.1569-0.87863 0.17259-0.40794 0.48639-0.69036-0.18828-0.21966-0.29811-0.53346-0.10983-0.31379-0.10983-0.69035 0-0.56484 0.26673-0.97278 0.26673-0.42363 0.70605-0.69035-0.26673-0.3138-0.40794-0.72174t-0.14121-0.91002zm2.228 5.2718q-0.25104 0-0.4707-0.0157t-0.43932-0.0471q-0.17259 0.26673-0.17259 0.72174 0 0.56483 0.50208 0.84725t1.2709 0.28242q0.70605 0 1.1767-0.21966t0.4707-0.75312q0-0.50207-0.36087-0.65897t-0.91002-0.1569zm-0.40794-5.2718q0 0.48639 0.29811 0.7845 0.3138 0.28242 0.7845 0.28242t0.76881-0.28242q0.3138-0.29811 0.3138-0.7845 0-0.50208-0.3138-0.80018-0.29811-0.29811-0.76881-0.29811t-0.7845 0.29811q-0.29811 0.2981-0.29811 0.80018z"/>
  <path d="m83.648 158.37q0-0.91002 0.25104-1.6631 0.25104-0.75311 0.73743-1.2866t1.1767-0.83157q0.70605-0.29811 1.6004-0.29811 0.65898 0 1.2238 0.28242 0.58053 0.26673 0.84726 0.59622v-0.75312h1.9456v7.9077h-1.9456v-0.81588q-0.28242 0.39225-0.81588 0.67467-0.51777 0.26673-1.2552 0.26673-0.89433 0-1.6004-0.29811-0.69036-0.29811-1.1767-0.83157-0.48639-0.53345-0.73743-1.2866-0.25104-0.75312-0.25104-1.6631zm2.0397 0q0 0.59621 0.1569 1.0512 0.17259 0.43932 0.45501 0.75312 0.28242 0.29811 0.64329 0.45501t0.73743 0.1569 0.73743-0.1569 0.6276-0.45501q0.28242-0.3138 0.43932-0.75312 0.17259-0.45501 0.17259-1.0512 0-0.58053-0.17259-1.0355-0.1569-0.45501-0.43932-0.75312-0.26673-0.31379-0.6276-0.47069t-0.73743-0.1569-0.73743 0.1569-0.64329 0.47069q-0.28242 0.29811-0.45501 0.75312-0.1569 0.45501-0.1569 1.0355z"/>
  <path d="m96.978 158.37q0-0.91002 0.21966-1.6631 0.23535-0.75311 0.69036-1.2866t1.1297-0.83157 1.569-0.29811q0.59622 0 1.114 0.26673 0.53345 0.25104 0.80018 0.58053v-3.9225h1.9456v11.108h-1.9456v-0.81588q-0.0784 0.1569-0.25104 0.32949-0.17258 0.1569-0.42362 0.29811t-0.56484 0.21966q-0.3138 0.0941-0.67467 0.0941-0.89432 0-1.569-0.29811t-1.1297-0.83157q-0.45501-0.53345-0.69036-1.2866-0.21966-0.75312-0.21966-1.6631zm2.0397 0q0 1.1767 0.53346 1.8043 0.53345 0.61191 1.3023 0.61191t1.2866-0.61191q0.53346-0.6276 0.53346-1.8043 0-1.1768-0.53346-1.7887-0.51776-0.62759-1.2866-0.62759t-1.3023 0.62759q-0.53346 0.61191-0.53346 1.7887z"/>
  <path d="m113.38 159h-5.4444q0.0157 0.32949 0.14121 0.65898 0.12552 0.3138 0.36087 0.56484t0.56484 0.40794q0.34518 0.1569 0.80019 0.1569 0.67466 0 1.0983-0.28242 0.42363-0.29811 0.76881-0.84726l1.569 0.58053q-0.23535 0.48639-0.54915 0.89432-0.3138 0.40794-0.73742 0.70605-0.42363 0.28242-0.98847 0.45501-0.54915 0.1569-1.2709 0.1569-1.0198 0-1.7416-0.37656-0.72173-0.37656-1.1767-0.95709-0.45501-0.59621-0.67467-1.318-0.20397-0.72174-0.20397-1.4278 0-0.70605 0.20397-1.4278 0.21966-0.72173 0.67467-1.3023 0.45501-0.59622 1.1767-0.97278 0.72174-0.37656 1.7416-0.37656 0.98846 0 1.6788 0.37656 0.70604 0.36087 1.1454 0.9414 0.45501 0.56484 0.65898 1.2552t0.20397 1.3336zm-3.6871-3.0438q-0.37656 0-0.67467 0.14121-0.28242 0.12552-0.50208 0.34518-0.20397 0.20396-0.34518 0.47069t-0.18828 0.54915h3.4047q-0.0628-0.29811-0.18828-0.56484-0.12552-0.26673-0.32949-0.47069-0.20397-0.21966-0.50208-0.34518-0.28242-0.12552-0.67466-0.12552z"/>
  <path d="m71.761 171.38q-0.3138-0.83157-0.9414-1.365-0.6276-0.54915-1.773-0.54915-0.64329 0-1.2081 0.23535-0.56484 0.21966-0.98846 0.69036-0.42363 0.45501-0.67467 1.161-0.25104 0.69036-0.25104 1.6474 0 0.95708 0.25104 1.6631 0.25104 0.69036 0.67467 1.161 0.42363 0.45501 0.98846 0.69036 0.56484 0.21966 1.2081 0.21966 1.1454 0 1.773-0.53346 0.6276-0.54914 0.9414-1.3807l1.8357 0.4707q-0.39225 1.5847-1.569 2.4633-1.1767 0.86294-2.9811 0.86294-1.0355 0-1.9769-0.36087-0.92571-0.36087-1.6474-1.0669-0.72174-0.70605-1.1454-1.7573-0.42363-1.0512-0.42363-2.4319t0.42363-2.4319 1.1454-1.7573q0.72174-0.70605 1.6474-1.0669 0.9414-0.36087 1.9769-0.36087 1.8043 0 2.9811 0.87864 1.1767 0.86294 1.569 2.4476z"/>
  <path d="m74.883 174.73q0-0.91002 0.25104-1.6631 0.25104-0.75312 0.73743-1.2866 0.48639-0.53345 1.1767-0.83156 0.70605-0.29811 1.6004-0.29811 0.65898 0 1.2238 0.28242 0.58053 0.26673 0.84726 0.59621v-0.75311h1.9456v7.9077h-1.9456v-0.81587q-0.28242 0.39224-0.81588 0.67466-0.51777 0.26673-1.2552 0.26673-0.89433 0-1.6004-0.29811-0.69036-0.29811-1.1767-0.83156-0.48639-0.53346-0.73743-1.2866-0.25104-0.75311-0.25104-1.6631zm2.0397 0q0 0.59622 0.1569 1.0512 0.17259 0.43931 0.45501 0.75311 0.28242 0.29811 0.64329 0.45501t0.73743 0.1569 0.73743-0.1569 0.6276-0.45501q0.28242-0.3138 0.43932-0.75311 0.17259-0.45501 0.17259-1.0512 0-0.58053-0.17259-1.0355-0.1569-0.455-0.43932-0.75311-0.26673-0.3138-0.6276-0.4707t-0.73743-0.1569-0.73743 0.1569-0.64329 0.4707q-0.28242 0.29811-0.45501 0.75311-0.1569 0.45501-0.1569 1.0355z"/>
  <path d="m89.314 178.69v-5.2718q0-0.59622-0.26673-0.84726t-0.70605-0.25104q-0.72174 0-1.2238 0.84726-0.48639 0.84725-0.48639 2.6202v2.9026h-1.9456v-7.9077h1.9456v1.2709q0.43932-0.65897 0.97278-1.0198 0.53346-0.37656 1.3023-0.37656 0.73743 0 1.3336 0.39225 0.61191 0.37656 0.87864 1.2395 0.42363-0.76881 1.0512-1.1924 0.6276-0.43932 1.365-0.43932 1.114 0 1.7259 0.64329 0.6276 0.64328 0.6276 1.7886v5.6013h-1.9456v-5.2718q0-0.59622-0.26673-0.84726t-0.70605-0.25104q-0.70605 0-1.2081 0.81588-0.50208 0.80018-0.50208 2.479v3.0752z"/>
  <path d="m105.24 174.73q0 0.91002-0.23534 1.6631-0.21966 0.75312-0.67467 1.2866-0.45501 0.53345-1.1297 0.83156-0.67466 0.29811-1.569 0.29811-0.59622 0-1.1297-0.25104-0.51777-0.26673-0.7845-0.59621v3.9225h-1.9456v-11.108h1.9456v0.81587q0.07845-0.15689 0.25104-0.31379 0.17259-0.17259 0.42363-0.3138t0.56483-0.21966q0.3138-0.0941 0.67467-0.0941 0.89433 0 1.569 0.29811t1.1297 0.83156q0.45501 0.53346 0.67467 1.2866 0.23534 0.75311 0.23534 1.6631zm-2.0397 0q0-1.1767-0.53345-1.7886-0.53346-0.6276-1.3023-0.6276-0.7688 0-1.3023 0.6276-0.51777 0.61191-0.51777 1.7886t0.51777 1.8043q0.53346 0.61191 1.3023 0.61191 0.76881 0 1.3023-0.61191 0.53345-0.6276 0.53345-1.8043z"/>
  <path d="m113.99 175.36h-5.4444q0.0157 0.32949 0.14121 0.65897 0.12552 0.3138 0.36087 0.56484t0.56484 0.40794q0.34518 0.1569 0.80018 0.1569 0.67467 0 1.0983-0.28242 0.42363-0.29811 0.76881-0.84726l1.569 0.58053q-0.23535 0.48639-0.54915 0.89433t-0.73743 0.70604q-0.42362 0.28242-0.98846 0.45501-0.54915 0.1569-1.2709 0.1569-1.0198 0-1.7416-0.37656-0.72173-0.37656-1.1767-0.95708-0.45501-0.59622-0.67467-1.318-0.20397-0.72173-0.20397-1.4278t0.20397-1.4278q0.21966-0.72174 0.67467-1.3023 0.45501-0.59621 1.1767-0.97277 0.72174-0.37656 1.7416-0.37656 0.98847 0 1.6788 0.37656 0.70604 0.36087 1.1454 0.94139 0.45501 0.56484 0.65898 1.2552 0.20397 0.69035 0.20397 1.3336zm-3.6871-3.0438q-0.37655 0-0.67466 0.14121-0.28242 0.12552-0.50208 0.34518-0.20397 0.20397-0.34518 0.4707t-0.18828 0.54914h3.4047q-0.0628-0.2981-0.18828-0.56483-0.12552-0.26673-0.32949-0.4707-0.20397-0.21966-0.50208-0.34518-0.28242-0.12552-0.67467-0.12552z"/>
  <path d="m115.4 174.73q0-0.86295 0.26673-1.6004 0.26672-0.75312 0.78449-1.3023 0.51777-0.54914 1.2552-0.86294 0.75311-0.3138 1.7102-0.3138 0.95708 0 1.6945 0.3138 0.75312 0.3138 1.2709 0.86294 0.51777 0.54915 0.7845 1.3023 0.26673 0.73742 0.26673 1.6004t-0.26673 1.6161q-0.26673 0.73743-0.7845 1.2866-0.51776 0.54914-1.2709 0.86294-0.73743 0.3138-1.6945 0.3138-0.95709 0-1.7102-0.3138-0.73743-0.3138-1.2552-0.86294-0.51777-0.54915-0.78449-1.2866-0.26673-0.75311-0.26673-1.6161zm2.0397 0q0 0.48639 0.12552 0.92571 0.14121 0.43931 0.39224 0.7688 0.25104 0.32949 0.61191 0.53346 0.37656 0.18828 0.84726 0.18828t0.83156-0.18828q0.37656-0.20397 0.6276-0.53346t0.37656-0.7688q0.14121-0.43932 0.14121-0.92571t-0.14121-0.92571q-0.12552-0.43931-0.37656-0.7688t-0.6276-0.51777q-0.36086-0.20397-0.83156-0.20397t-0.84726 0.20397q-0.36087 0.18828-0.61191 0.51777-0.25103 0.32949-0.39224 0.7688-0.12552 0.43932-0.12552 0.92571z"/>
  <path d="m126.84 170.78v1.2709q0.43932-0.62759 1.0512-1.0042 0.6276-0.39225 1.3964-0.39225 1.0669 0 1.7416 0.59622 0.69035 0.59621 0.69035 1.7886v5.6484h-1.9456v-5.0678q0-0.70605-0.3138-1.0042t-0.81587-0.29811q-0.36087 0-0.69036 0.21966-0.3138 0.20397-0.56484 0.61191t-0.40794 1.0042q-0.14121 0.59622-0.14121 1.3807v3.1537h-1.9456v-7.9077z"/>
  <path d="m140.68 175.36h-5.4444q0.0157 0.32949 0.14121 0.65897 0.12552 0.3138 0.36086 0.56484 0.23535 0.25104 0.56484 0.40794 0.34518 0.1569 0.80019 0.1569 0.67467 0 1.0983-0.28242 0.42363-0.29811 0.76881-0.84726l1.569 0.58053q-0.23535 0.48639-0.54914 0.89433-0.3138 0.40794-0.73743 0.70604-0.42363 0.28242-0.98847 0.45501-0.54914 0.1569-1.2709 0.1569-1.0198 0-1.7416-0.37656-0.72174-0.37656-1.1768-0.95708-0.45501-0.59622-0.67466-1.318-0.20397-0.72173-0.20397-1.4278t0.20397-1.4278q0.21965-0.72174 0.67466-1.3023 0.45501-0.59621 1.1768-0.97277 0.72173-0.37656 1.7416-0.37656 0.98846 0 1.6788 0.37656 0.70605 0.36087 1.1454 0.94139 0.455 0.56484 0.65897 1.2552 0.20397 0.69035 0.20397 1.3336zm-3.6871-3.0438q-0.37656 0-0.67467 0.14121-0.28242 0.12552-0.50208 0.34518-0.20396 0.20397-0.34517 0.4707t-0.18828 0.54914h3.4047q-0.0628-0.2981-0.18828-0.56483-0.12552-0.26673-0.32949-0.4707-0.20397-0.21966-0.50207-0.34518-0.28242-0.12552-0.67467-0.12552z"/>
  <path d="m144.71 170.65q0.80019 0 1.4592 0.36087 0.65898 0.34518 1.0198 0.9257l-1.161 1.0669q-0.26673-0.36087-0.6276-0.51777-0.36087-0.17259-0.69036-0.17259-0.28241 0-0.50207 0.17259-0.21966 0.1569-0.21966 0.48639 0 0.26673 0.18828 0.45501 0.20397 0.18828 0.56483 0.31379 0.40794 0.14121 0.89433 0.3138 0.50208 0.1569 0.9414 0.42363 0.43931 0.25104 0.72173 0.65898 0.29811 0.40794 0.29811 1.0355 0 0.53346-0.20397 1.0198-0.18828 0.4707-0.56483 0.83157-0.36087 0.36086-0.87864 0.58052-0.51777 0.20397-1.1611 0.20397-0.6119 0-1.1297-0.18828-0.51777-0.20397-0.91002-0.50208-0.39224-0.31379-0.67466-0.69035-0.28242-0.39225-0.42363-0.75312l1.5533-0.83156q0.21966 0.58052 0.61191 0.94139t0.97277 0.36087q0.45501 0 0.70605-0.20397 0.26673-0.20397 0.26673-0.64329 0-0.25104-0.17259-0.40794-0.17259-0.15689-0.45501-0.28241-0.28242-0.14121-0.64328-0.25104-0.34518-0.10983-0.70605-0.26673-0.32949-0.14121-0.6276-0.3138-0.28242-0.17259-0.50208-0.42363-0.21965-0.25104-0.34517-0.59622-0.12552-0.34517-0.12552-0.80018t0.17259-0.86295q0.18827-0.42363 0.51776-0.73742 0.32949-0.32949 0.7845-0.51777 0.4707-0.18828 1.0512-0.18828z"/>
 </g>
 <path d="m42.369 11.08c-0.25024-2.0396-1.5877-11.323-7.5975-11.075-5.1866 0.27421-6.6953 5.1393-8.3003 8.9444-1.9129 5.2073-2.5765 6.2694-5.2875 6.2694-2.9315-0.1371-4.7023-4.2237-5.8841-5.942-0.95837-1.4275-3.5039-5.831-7.1334-5.6939-1.9765 0-5.0658 1.006-7.0143 6.0027-1.7639 5.3703-1.0959 10.785-0.63417 13.108 1.5429 5.7548 2.4482 9.1437 5.1605 8.753 2.9152-0.20398 1.293-4.6228 0.5379-6.9402-0.48282-1.4418-2.1779-6.2474-0.23737-7.3676 2.0378-1.3144 3.8847 3.6678 5.8132 6.6168 1.7376 3.0227 2.8851 6.5175 8.7993 6.6295 3.6969 0 5.867-2.1309 6.9397-4.1614 1.5848-3.2739 3.5092-14.35 7.6895-14.455 3.0492 0.12115 2.2322 5.2093 2.1898 7.0559-0.11994 2.0488-1.4876 6.3003 1.9348 6.7181 3.9838 0.06872 3.525-10.737 3.0248-14.461z" fill="#fff" stroke-width=".78445"/>
 <g transform="translate(-106.1 32.904)" fill="#004e7e" stroke-width=".48473">
  <path d="m300.33-14.373v13.572h-2.443v-10.16l-2.5982 1.5511v-2.6369l3.9748-2.3267z" style="white-space:pre"/>
  <path d="m302.58-1.7705 4.8473-6.2627q0.62046-0.77557 0.83374-1.3185 0.21328-0.56229 0.21328-1.144 0-0.83374-0.42656-1.2991-0.40718-0.48473-1.2409-0.48473-0.73679 0-1.2021 0.46534-0.44594 0.44595-0.56229 1.3185l-2.2491-0.42656q0.0582-0.77557 0.36839-1.4348 0.32961-0.65923 0.85312-1.144 0.54291-0.48473 1.2603-0.75618 0.73679-0.27145 1.5899-0.27145 0.96946 0 1.7256 0.29084 0.75619 0.29084 1.2603 0.81435 0.52351 0.52351 0.79495 1.2603 0.27146 0.7174 0.27146 1.5705 0 0.81435-0.27146 1.6093-0.27144 0.79496-0.8919 1.6093l-3.3156 4.3238h4.7698v2.2491h-8.6282z" style="white-space:pre"/>
 </g>
</svg>
