<!DOCTYPE svg  PUBLIC '-//W3C//DTD SVG 1.1//EN'  'http://www.w3.org/Graphics/SVG/1.1/DTD/svg11.dtd'>
<svg enable-background="new 0 0 600 177.98" version="1.1" viewBox="0 0 600 177.98" xml:space="preserve" xmlns="http://www.w3.org/2000/svg">
	<path d="m186.55 40.039v123.38c0 8.065 6.492 14.559 14.558 14.559h384.33c8.065 0 14.558-6.493 14.558-14.559v-108.82c0-8.065-6.492-14.558-14.558-14.558h-398.89z" fill="#FF544D"/>
	<path d="m186.55 40.039-0.03 1e-3 0.03-1e-3z" fill="#01DA95"/>
	<path d="m144.73 37.847c-0.858-6.968-5.424-38.679-25.953-37.832-17.718 0.938-22.869 17.556-28.354 30.553-6.534 17.786-8.802 21.414-18.062 21.414-10.011-0.469-16.062-14.427-20.098-20.296-3.273-4.876-11.966-19.918-24.366-19.449-6.751 0-17.304 3.436-23.959 20.503-6.025 18.343-3.743 36.835-2.166 44.771 5.271 19.656 8.362 31.232 17.627 29.898 9.957-0.695 4.416-15.79 1.837-23.704-1.649-4.929-7.438-21.343-0.811-25.167 6.96-4.49 13.269 12.528 19.856 22.601 5.936 10.325 9.854 22.263 30.058 22.646 12.628 0 20.04-7.279 23.704-14.215 5.413-11.183 11.986-49.015 26.266-49.374 10.415 0.414 7.624 17.794 7.479 24.102-0.41 6.998-5.081 21.52 6.608 22.946 13.609 0.235 12.042-36.673 10.334-49.397z" fill="#fff"/>
<g fill="#fff">
	<path d="M262.35,76.597v11.478h-28.98v14.062h23.243v11.481h-23.243v18.461h29.938v11.475h-42.375V76.597H262.35z"/>
	<path d="m285.91 93.816c3.252 0 6.218 0.733 8.896 2.2 2.679 1.403 4.751 3.284 6.218 5.644l-7.078 6.504c-1.084-1.467-2.359-2.519-3.826-3.156-1.467-0.701-2.869-1.052-4.209-1.052-1.147 0-2.168 0.351-3.061 1.052-0.893 0.638-1.339 1.626-1.339 2.965 0 1.084 0.383 2.009 1.147 2.774 0.829 0.765 1.977 1.402 3.443 1.913 1.658 0.574 3.476 1.211 5.452 1.913 2.041 0.638 3.954 1.498 5.739 2.582 1.785 1.021 3.252 2.359 4.4 4.018 1.211 1.658 1.816 3.763 1.816 6.313 0 2.168-0.414 4.24-1.243 6.218-0.765 1.913-1.913 3.603-3.443 5.069-1.467 1.467-3.252 2.646-5.356 3.539-2.104 0.829-4.464 1.243-7.078 1.243-2.486 0-4.782-0.382-6.887-1.147-2.104-0.829-3.953-1.85-5.548-3.061-1.594-1.275-2.965-2.679-4.113-4.209-1.147-1.594-2.009-3.125-2.582-4.591l9.47-5.07c0.893 2.359 2.136 4.272 3.73 5.739s3.57 2.2 5.93 2.2c1.85 0 3.284-0.415 4.305-1.244 1.084-0.828 1.626-2.136 1.626-3.922 0-1.02-0.351-1.849-1.052-2.486-0.702-0.638-1.627-1.212-2.774-1.722-1.147-0.574-2.455-1.084-3.922-1.53-1.402-0.447-2.838-0.989-4.305-1.627-1.339-0.573-2.614-1.211-3.825-1.913-1.148-0.701-2.168-1.562-3.062-2.582-0.893-1.021-1.594-2.232-2.104-3.635-0.511-1.403-0.766-3.029-0.766-4.878 0-1.85 0.351-3.604 1.052-5.262 0.766-1.722 1.817-3.22 3.157-4.495 1.339-1.339 2.933-2.392 4.782-3.156 1.915-0.765 4.051-1.148 6.41-1.148z"/>
	<path d="m336.83 142.5c-0.829 0.255-1.817 0.479-2.966 0.67-1.084 0.255-2.486 0.382-4.208 0.382-5.038 0-9.119-1.466-12.244-4.399-3.061-2.934-4.591-7.397-4.591-13.392v-21.044h-7.461v-10.14h7.461v-12.053l11.861-7.461v19.514h12.722v10.139h-12.722v20.853c0 2.997 0.542 5.069 1.626 6.218 1.084 1.084 2.646 1.626 4.687 1.626 1.085 0 2.073-0.128 2.966-0.383s1.849-0.638 2.869-1.147v10.617z"/>
	<path d="m343.51 143.55v-48.206h11.861v7.843c1.722-2.869 3.826-5.006 6.313-6.408 2.551-1.467 5.197-2.2 7.939-2.2 0.51 0 1.084 0.032 1.722 0.096 0.701 0.063 1.339 0.159 1.913 0.287v11.574c-1.467-0.894-3.125-1.34-4.975-1.34-1.722 0-3.379 0.383-4.974 1.148-1.53 0.765-2.901 1.977-4.113 3.635-1.147 1.657-2.072 3.857-2.773 6.6-0.702 2.679-1.053 5.963-1.053 9.853v17.121l-11.86-3e-3z"/>
	<path d="m421.15 122.51h-33.191c0.064 1.339 0.352 2.679 0.861 4.018 0.51 1.275 1.243 2.423 2.2 3.443 0.956 1.021 2.104 1.85 3.443 2.487 1.402 0.638 3.028 0.956 4.878 0.956 2.742 0 4.974-0.573 6.695-1.722 1.722-1.211 3.284-2.934 4.688-5.165l9.564 3.539c-0.956 1.977-2.072 3.794-3.348 5.452s-2.773 3.093-4.495 4.305c-1.722 1.147-3.73 2.072-6.026 2.773-2.231 0.638-4.814 0.957-7.747 0.957-4.146 0-7.685-0.766-10.618-2.296s-5.324-3.476-7.174-5.835c-1.85-2.423-3.221-5.102-4.113-8.034-0.829-2.934-1.243-5.835-1.243-8.704 0-2.87 0.414-5.771 1.243-8.705 0.893-2.933 2.264-5.579 4.113-7.938 1.85-2.424 4.24-4.4 7.174-5.931s6.473-2.296 10.618-2.296c4.017 0 7.429 0.766 10.234 2.296 2.869 1.467 5.197 3.38 6.982 5.739 1.85 2.296 3.188 4.847 4.018 7.652s1.243 5.516 1.243 8.13v4.879zm-22.478-18.557c-1.531 0-2.902 0.287-4.113 0.861-1.148 0.51-2.168 1.211-3.062 2.104-0.828 0.828-1.53 1.785-2.104 2.869s-0.957 2.2-1.148 3.348h20.757c-0.255-1.211-0.638-2.359-1.148-3.443s-1.18-2.04-2.009-2.869c-0.828-0.894-1.849-1.595-3.061-2.104-1.147-0.511-2.518-0.766-4.112-0.766z"/>
	<path d="m439.78 95.347v7.747c1.785-2.55 3.922-4.591 6.408-6.121 2.551-1.595 5.389-2.392 8.514-2.392 4.336 0 7.875 1.211 10.617 3.635 2.806 2.423 4.209 6.058 4.209 10.904v34.435h-11.861v-30.895c0-2.87-0.638-4.91-1.913-6.122s-2.933-1.817-4.974-1.817c-1.467 0-2.869 0.446-4.209 1.339-1.275 0.829-2.423 2.072-3.443 3.73s-1.849 3.699-2.486 6.122c-0.574 2.423-0.861 5.229-0.861 8.418v19.226h-11.86v-48.207l11.859-2e-3z"/>
	<path d="m475.84 118.68c0-3.508 0.542-6.76 1.626-9.757 1.084-3.061 2.678-5.707 4.782-7.939 2.104-2.231 4.655-3.985 7.652-5.261 3.061-1.275 6.536-1.913 10.426-1.913s7.333 0.638 10.33 1.913c3.061 1.275 5.644 3.029 7.748 5.261s3.698 4.879 4.782 7.939c1.084 2.997 1.626 6.249 1.626 9.757 0 3.507-0.542 6.791-1.626 9.852-1.084 2.997-2.678 5.611-4.782 7.844-2.104 2.231-4.687 3.985-7.748 5.261-2.997 1.275-6.44 1.913-10.33 1.913s-7.365-0.638-10.426-1.913c-2.997-1.275-5.548-3.029-7.652-5.261s-3.698-4.847-4.782-7.844c-1.084-3.061-1.626-6.345-1.626-9.852zm12.435 0c0 1.977 0.255 3.857 0.765 5.643 0.574 1.786 1.371 3.349 2.392 4.688s2.264 2.423 3.73 3.252c1.53 0.766 3.252 1.147 5.165 1.147s3.604-0.382 5.07-1.147c1.53-0.829 2.806-1.913 3.825-3.252 1.021-1.34 1.786-2.901 2.296-4.688 0.574-1.785 0.861-3.666 0.861-5.643 0-1.978-0.287-3.858-0.861-5.644-0.51-1.786-1.275-3.348-2.296-4.688-1.02-1.339-2.295-2.391-3.825-3.156-1.467-0.829-3.157-1.243-5.07-1.243s-3.635 0.414-5.165 1.243c-1.467 0.766-2.71 1.817-3.73 3.156-1.021 1.34-1.817 2.901-2.392 4.688-0.51 1.786-0.765 3.667-0.765 5.644z"/>
	<path d="m546.44 93.816c3.253 0 6.218 0.733 8.896 2.2 2.678 1.403 4.75 3.284 6.217 5.644l-7.078 6.504c-1.084-1.467-2.359-2.519-3.826-3.156-1.467-0.701-2.87-1.052-4.209-1.052-1.147 0-2.168 0.351-3.061 1.052-0.893 0.638-1.34 1.626-1.34 2.965 0 1.084 0.383 2.009 1.148 2.774 0.829 0.765 1.977 1.402 3.443 1.913 1.658 0.574 3.476 1.211 5.452 1.913 2.041 0.638 3.954 1.498 5.739 2.582 1.785 1.021 3.252 2.359 4.399 4.018 1.212 1.658 1.817 3.763 1.817 6.313 0 2.168-0.414 4.24-1.243 6.218-0.765 1.913-1.913 3.603-3.443 5.069-1.467 1.467-3.252 2.646-5.356 3.539-2.104 0.829-4.464 1.243-7.078 1.243-2.487 0-4.783-0.382-6.887-1.147-2.104-0.829-3.954-1.85-5.548-3.061-1.595-1.275-2.966-2.679-4.113-4.209-1.147-1.594-2.009-3.125-2.583-4.591l9.47-5.07c0.894 2.359 2.137 4.272 3.73 5.739 1.595 1.467 3.571 2.2 5.931 2.2 1.85 0 3.284-0.415 4.305-1.244 1.084-0.828 1.626-2.136 1.626-3.922 0-1.02-0.351-1.849-1.053-2.486-0.701-0.638-1.626-1.212-2.773-1.722-1.147-0.574-2.455-1.084-3.922-1.53-1.403-0.447-2.838-0.989-4.305-1.627-1.339-0.573-2.614-1.211-3.826-1.913-1.147-0.701-2.168-1.562-3.061-2.582s-1.594-2.232-2.104-3.635-0.765-3.029-0.765-4.878c0-1.85 0.351-3.604 1.052-5.262 0.766-1.722 1.817-3.22 3.156-4.495 1.34-1.339 2.934-2.392 4.783-3.156 1.914-0.765 4.05-1.148 6.41-1.148z"/>
</g>
</svg>
