<!DOCTYPE svg  PUBLIC '-//W3C//DTD SVG 1.1//EN'  'http://www.w3.org/Graphics/SVG/1.1/DTD/svg11.dtd'>
<svg enable-background="new 0 0 600 167.09" version="1.1" viewBox="0 0 600 167.09" xml:space="preserve" xmlns="http://www.w3.org/2000/svg">
<g transform="translate(48.381 137.1)">
	<path d="m126.76-99.495v115.83c0 7.572 6.096 13.669 13.668 13.669h397.52c7.571 0 13.667-6.097 13.667-13.669v-102.16c0-7.572-6.096-13.667-13.667-13.667h-411.2 0.014z" fill="#01DA95"/>
	<g fill="#fff">
		<path d="m170.71-27.004v24.565h-11.655v-62.762h23.669c3.288 0 6.157 0.479 8.607 1.435 2.511 0.957 4.572 2.301 6.187 4.035 1.613 1.674 2.809 3.676 3.586 6.007 0.837 2.332 1.255 4.872 1.255 7.621 0 2.75-0.418 5.291-1.255 7.621-0.777 2.332-1.973 4.363-3.586 6.098-1.614 1.673-3.676 2.988-6.187 3.944-2.45 0.956-5.319 1.435-8.607 1.435l-12.014 1e-3zm11.565-10.76c2.57 0 4.572-0.656 6.007-1.972 1.494-1.375 2.242-3.497 2.242-6.366s-0.748-4.961-2.242-6.275c-1.435-1.375-3.437-2.063-6.007-2.063h-11.564v16.676h11.564z"/>
		<path d="m203.83-25.757c0-3.467 0.478-6.635 1.435-9.504 0.956-2.869 2.36-5.319 4.214-7.352 1.853-2.032 4.094-3.616 6.725-4.752 2.689-1.136 5.737-1.704 9.145-1.704 2.511 0 4.842 0.539 6.993 1.614 2.212 1.017 3.825 2.151 4.842 3.407v-4.305h11.117v45.188h-11.123v-4.662c-1.076 1.494-2.63 2.779-4.662 3.855-1.973 1.016-4.363 1.524-7.173 1.524-3.407 0-6.455-0.567-9.146-1.704-2.63-1.135-4.871-2.719-6.724-4.752-1.854-2.031-3.258-4.482-4.215-7.352-0.956-2.869-1.435-6.037-1.435-9.504l7e-3 3e-3zm11.655 0c0 2.271 0.299 4.273 0.896 6.007 0.658 1.674 1.524 3.107 2.601 4.303 1.076 1.137 2.301 2.003 3.676 2.601 1.375 0.599 2.779 0.897 4.214 0.897s2.839-0.299 4.214-0.897 2.57-1.464 3.587-2.601c1.075-1.195 1.912-2.629 2.51-4.303 0.658-1.733 0.986-3.736 0.986-6.007 0-2.212-0.328-4.185-0.986-5.917-0.598-1.734-1.435-3.168-2.51-4.305-1.017-1.195-2.212-2.092-3.587-2.689-1.374-0.598-2.779-0.896-4.214-0.896s-2.839 0.299-4.214 0.896-2.6 1.494-3.676 2.689c-1.076 1.137-1.942 2.57-2.601 4.305-0.598 1.732-0.896 3.705-0.896 5.917z"/>
		<path d="m257.45-2.438v-45.188h11.117v7.352c1.614-2.689 3.586-4.691 5.918-6.007 2.391-1.374 4.871-2.062 7.441-2.062 0.479 0 1.016 0.029 1.614 0.09 0.657 0.059 1.255 0.148 1.793 0.269v10.849c-1.375-0.838-2.929-1.256-4.663-1.256-1.613 0-3.168 0.359-4.662 1.076-1.435 0.717-2.72 1.853-3.855 3.406-1.075 1.555-1.942 3.617-2.6 6.187-0.657 2.511-0.986 5.589-0.986 9.234v16.048l-11.117 2e-3z"/>
		<path d="m316.99-3.42c-0.777 0.238-1.704 0.447-2.779 0.627-1.017 0.239-2.331 0.359-3.945 0.359-4.722 0-8.547-1.375-11.476-4.125-2.869-2.749-4.304-6.934-4.304-12.551v-19.725h-6.992v-9.504h6.993v-11.297l11.117-6.993v18.29h11.924v9.504h-11.924v19.545c0 2.81 0.508 4.752 1.524 5.828 1.016 1.016 2.48 1.523 4.393 1.523 1.017 0 1.943-0.119 2.779-0.357 0.837-0.24 1.733-0.598 2.69-1.076v9.952z"/>
		<path d="m321.48-60.642c0-2.032 0.658-3.736 1.973-5.111 1.375-1.375 3.108-2.062 5.2-2.062s3.796 0.688 5.11 2.062c1.375 1.375 2.063 3.078 2.063 5.111 0 2.032-0.688 3.735-2.063 5.11-1.314 1.375-3.019 2.062-5.11 2.062s-3.825-0.687-5.2-2.062c-1.314-1.374-1.973-3.077-1.973-5.11zm12.732 13v45.187h-11.117v-45.187h11.117z"/>
		<path d="m339.81-25.757c0-3.467 0.418-6.635 1.255-9.504 0.896-2.869 2.212-5.319 3.945-7.352s3.885-3.616 6.455-4.752 5.559-1.704 8.966-1.704c2.271 0 4.393 0.508 6.365 1.525 2.032 0.955 3.557 2.061 4.572 3.316v-22.414h11.118v63.477h-11.118v-4.662c-0.299 0.598-0.776 1.225-1.434 1.882-0.658 0.599-1.465 1.165-2.421 1.704-0.957 0.537-2.032 0.956-3.228 1.255-1.196 0.358-2.48 0.538-3.855 0.538-3.407 0-6.396-0.568-8.966-1.703-2.57-1.137-4.723-2.721-6.455-4.752-1.733-2.033-3.049-4.483-3.945-7.353-0.836-2.868-1.254-6.036-1.254-9.501zm11.655 0c0 4.482 1.016 7.919 3.048 10.31 2.032 2.332 4.513 3.498 7.441 3.498 2.93 0 5.38-1.166 7.353-3.498 2.032-2.391 3.048-5.826 3.048-10.31s-1.016-7.89-3.048-10.222c-1.973-2.391-4.424-3.586-7.353-3.586s-5.409 1.195-7.441 3.586c-2.032 2.332-3.048 5.738-3.048 10.222z"/>
		<path d="m389.45-25.757c0-3.467 0.479-6.635 1.435-9.504 0.957-2.869 2.361-5.319 4.214-7.352s4.095-3.616 6.725-4.752c2.689-1.136 5.738-1.704 9.145-1.704 2.511 0 4.842 0.539 6.994 1.614 2.211 1.017 3.825 2.151 4.842 3.407v-4.305h11.117v45.188h-11.117v-4.662c-1.076 1.494-2.631 2.779-4.663 3.855-1.972 1.016-4.363 1.524-7.172 1.524-3.407 0-6.456-0.567-9.146-1.704-2.63-1.135-4.871-2.719-6.725-4.752-1.853-2.031-3.257-4.482-4.214-7.352-0.956-2.867-1.435-6.035-1.435-9.501zm11.656 0c0 2.271 0.299 4.273 0.896 6.007 0.658 1.674 1.524 3.107 2.601 4.303 1.075 1.137 2.301 2.003 3.676 2.601 1.375 0.599 2.779 0.897 4.214 0.897s2.839-0.299 4.214-0.897 2.57-1.464 3.586-2.601c1.076-1.195 1.913-2.629 2.511-4.303 0.657-1.733 0.986-3.736 0.986-6.007 0-2.212-0.329-4.185-0.986-5.917-0.598-1.734-1.435-3.168-2.511-4.305-1.016-1.195-2.211-2.092-3.586-2.689s-2.779-0.896-4.214-0.896-2.84 0.299-4.214 0.896c-1.375 0.598-2.601 1.494-3.676 2.689-1.076 1.137-1.942 2.57-2.601 4.305-0.598 1.732-0.896 3.705-0.896 5.917z"/>
		<path d="m440.85-47.641h31.917v4.305l-19.365 31.379h20.621v9.504h-34.607v-4.304l19.545-31.38h-18.11v-9.504z"/>
		<path d="m476.22-25.757c0-3.288 0.509-6.336 1.524-9.146 1.017-2.869 2.511-5.35 4.482-7.441 1.973-2.092 4.363-3.736 7.173-4.932 2.869-1.195 6.127-1.793 9.772-1.793 3.646 0 6.874 0.598 9.683 1.793 2.869 1.195 5.29 2.84 7.262 4.932 1.973 2.092 3.467 4.572 4.483 7.441 1.016 2.81 1.524 5.857 1.524 9.146 0 3.287-0.509 6.365-1.524 9.234-1.017 2.81-2.511 5.26-4.483 7.352-1.972 2.093-4.393 3.735-7.262 4.931-2.81 1.195-6.037 1.793-9.683 1.793s-6.903-0.598-9.772-1.793c-2.81-1.195-5.2-2.838-7.173-4.931-1.972-2.092-3.466-4.542-4.482-7.352-1.015-2.869-1.524-5.947-1.524-9.234zm11.655 0c0 1.853 0.239 3.616 0.718 5.29 0.538 1.674 1.285 3.138 2.241 4.393 0.956 1.256 2.122 2.271 3.496 3.049 1.435 0.717 3.049 1.076 4.842 1.076s3.377-0.359 4.752-1.076c1.435-0.777 2.63-1.793 3.586-3.049 0.957-1.255 1.674-2.719 2.152-4.393 0.537-1.674 0.807-3.438 0.807-5.29s-0.27-3.616-0.807-5.29c-0.479-1.674-1.195-3.138-2.152-4.393-0.956-1.256-2.151-2.242-3.586-2.959-1.375-0.777-2.959-1.166-4.752-1.166s-3.407 0.389-4.842 1.166c-1.374 0.717-2.54 1.703-3.496 2.959-0.956 1.255-1.703 2.719-2.241 4.393-0.479 1.674-0.718 3.437-0.718 5.29z"/>
	</g>
	<path d="m87.496-101.57c-0.803-6.54-5.092-36.311-24.365-35.514-16.632 0.879-21.47 16.48-26.617 28.682-6.135 16.698-8.263 20.104-16.956 20.104-9.4-0.439-15.079-13.544-18.869-19.055-3.073-4.577-11.235-18.699-22.875-18.259-6.338 0-16.245 3.226-22.493 19.249-5.656 17.221-3.515 34.582-2.034 42.035 4.948 18.453 7.851 29.321 16.549 28.069 9.349-0.654 4.146-14.826 1.725-22.256-1.548-4.625-6.984-20.035-0.761-23.627 6.534-4.215 12.457 11.762 18.642 21.218 5.572 9.693 9.252 20.899 28.218 21.259 11.855 0 18.814-6.833 22.254-13.344 5.082-10.499 11.253-46.019 24.658-46.355 9.777 0.389 7.157 16.705 7.021 22.627-0.385 6.57-4.77 20.204 6.205 21.543 12.774 0.22 11.304-34.43 9.699-46.374v-2e-3z" fill="#fff"/>
</g>
</svg>
