<!DOCTYPE svg  PUBLIC '-//W3C//DTD SVG 1.1//EN'  'http://www.w3.org/Graphics/SVG/1.1/DTD/svg11.dtd'>
<svg enable-background="new 0 0 600 170.34" version="1.1" viewBox="0 0 600 170.34" xml:space="preserve" xmlns="http://www.w3.org/2000/svg">
	<path d="m178.53 38.32v118.08c0 7.719 6.214 13.934 13.934 13.934h393.6c7.719 0 13.933-6.215 13.933-13.934v-104.15c0-7.719-6.214-13.933-13.933-13.933h-407.54l0.012 1e-3z" fill="#FF544D"/>
	<path d="m178.53 38.32-0.028 1e-3 0.028-1e-3z" fill="#FF544D"/>
	<path d="m138.5 36.221c-0.82-6.667-5.189-37.017-24.839-36.205-16.955 0.896-21.888 16.8-27.137 29.24-6.251 17.024-8.42 20.494-17.284 20.494-9.585-0.446-15.375-13.807-19.237-19.424-3.134-4.667-11.452-19.063-23.319-18.614-6.462 0-16.562 3.289-22.931 19.624-5.767 17.557-3.583 35.256-2.073 42.848 5.044 18.815 8.003 29.892 16.87 28.615 9.53-0.665 4.227-15.114 1.758-22.688-1.578-4.713-7.119-20.42-0.775-24.083 6.661-4.297 12.699 11.991 19.004 21.631 5.681 9.882 9.432 21.307 28.768 21.673 12.085 0 19.18-6.967 22.687-13.604 5.181-10.703 11.472-46.912 25.138-47.256 9.968 0.396 7.297 17.03 7.158 23.066-0.393 6.698-4.863 20.597 6.325 21.962 13.022 0.224 11.522-35.1 9.887-47.279z" fill="#fff"/>
<g fill="#fff">
	<path d="m254.89 94.503c-1.221-3.234-3.052-5.89-5.493-7.964-2.441-2.137-5.89-3.205-10.345-3.205-2.502 0-4.852 0.458-7.049 1.373-2.197 0.854-4.12 2.197-5.768 4.029-1.647 1.77-2.96 4.027-3.937 6.773-0.977 2.686-1.465 5.891-1.465 9.613s0.488 6.957 1.465 9.703c0.977 2.686 2.289 4.943 3.937 6.775 1.647 1.77 3.57 3.111 5.768 4.027 2.197 0.854 4.547 1.281 7.049 1.281 4.455 0 7.903-1.037 10.345-3.111 2.441-2.137 4.272-4.822 5.493-8.057l10.71 2.746c-1.525 6.164-4.577 10.955-9.154 14.373-4.577 3.356-10.375 5.035-17.394 5.035-4.028 0-7.873-0.702-11.535-2.105-3.601-1.404-6.805-3.479-9.612-6.226s-5.035-6.164-6.683-10.253-2.472-8.818-2.472-14.189 0.823-10.101 2.472-14.189c1.647-4.089 3.875-7.507 6.683-10.253 2.808-2.747 6.012-4.822 9.612-6.226 3.662-1.404 7.507-2.105 11.535-2.105 7.019 0 12.816 1.709 17.394 5.126 4.577 3.357 7.629 8.117 9.154 14.282l-10.71 2.747z"/>
	<path d="m268.86 114.1c0-3.356 0.519-6.469 1.557-9.338 1.037-2.929 2.563-5.461 4.577-7.598s4.455-3.814 7.323-5.035c2.93-1.221 6.256-1.831 9.979-1.831 3.724 0 7.019 0.61 9.887 1.831 2.93 1.221 5.401 2.898 7.415 5.035 2.015 2.136 3.54 4.668 4.578 7.598 1.037 2.869 1.556 5.981 1.556 9.338s-0.519 6.5-1.556 9.43c-1.038 2.868-2.563 5.371-4.578 7.506-2.014 2.137-4.485 3.814-7.415 5.035-2.868 1.221-6.163 1.832-9.887 1.832-3.723 0-7.049-0.611-9.979-1.832-2.868-1.221-5.31-2.898-7.323-5.035-2.014-2.135-3.54-4.638-4.577-7.506-1.039-2.93-1.557-6.073-1.557-9.43zm11.901 0c0 1.893 0.244 3.693 0.732 5.402 0.549 1.708 1.312 3.203 2.288 4.485 0.977 1.281 2.167 2.319 3.57 3.112 1.465 0.732 3.112 1.099 4.943 1.099s3.448-0.366 4.853-1.099c1.464-0.793 2.685-1.831 3.661-3.112 0.977-1.282 1.709-2.776 2.197-4.485 0.549-1.709 0.824-3.51 0.824-5.402s-0.275-3.691-0.824-5.4c-0.488-1.709-1.221-3.205-2.197-4.486s-2.197-2.289-3.661-3.021c-1.404-0.793-3.021-1.189-4.853-1.189-1.83 0-3.479 0.396-4.943 1.189-1.403 0.732-2.594 1.74-3.57 3.021s-1.739 2.777-2.288 4.486c-0.488 1.708-0.732 3.508-0.732 5.4z"/>
	<path d="m349.36 137.9v-30.759c0-2.32-0.519-3.968-1.557-4.944-1.037-0.977-2.41-1.465-4.119-1.465-2.808 0-5.188 1.647-7.141 4.944-1.893 3.295-2.838 8.391-2.838 15.287v16.937h-11.351v-46.133h11.353v7.415c1.708-2.563 3.601-4.547 5.675-5.95 2.075-1.465 4.608-2.196 7.599-2.196 2.868 0 5.462 0.762 7.781 2.288 2.38 1.464 4.089 3.876 5.127 7.231 1.647-2.99 3.692-5.309 6.134-6.957 2.441-1.709 5.096-2.563 7.964-2.563 4.334 0 7.69 1.25 10.07 3.753 2.441 2.502 3.662 5.981 3.662 10.437v32.682h-11.352v-30.76c0-2.318-0.519-3.967-1.557-4.943-1.037-0.977-2.411-1.465-4.119-1.465-2.747 0-5.097 1.586-7.05 4.76-1.953 3.113-2.93 7.935-2.93 14.465v17.943l-11.351-7e-3z"/>
	<path d="m437.63 117.76h-31.767c0.061 1.282 0.336 2.564 0.824 3.846 0.488 1.221 1.189 2.318 2.105 3.295 0.915 0.977 2.014 1.771 3.295 2.381 1.343 0.609 2.899 0.916 4.669 0.916 2.624 0 4.761-0.55 6.408-1.648 1.648-1.16 3.144-2.808 4.485-4.943l9.155 3.387c-0.916 1.893-1.983 3.631-3.204 5.219-1.221 1.586-2.655 2.959-4.303 4.119-1.647 1.099-3.57 1.983-5.768 2.654-2.136 0.611-4.607 0.916-7.415 0.916-3.967 0-7.354-0.732-10.162-2.197s-5.096-3.326-6.865-5.584c-1.771-2.319-3.082-4.883-3.937-7.689-0.794-2.809-1.19-5.585-1.19-8.332 0-2.746 0.396-5.523 1.19-8.33 0.854-2.808 2.166-5.34 3.937-7.598 1.77-2.32 4.059-4.212 6.865-5.676 2.808-1.465 6.195-2.197 10.162-2.197 3.845 0 7.11 0.732 9.795 2.197 2.747 1.402 4.975 3.234 6.684 5.492 1.77 2.197 3.051 4.639 3.845 7.324 0.793 2.685 1.189 5.278 1.189 7.781l3e-3 4.667zm-21.514-17.76c-1.465 0-2.777 0.275-3.937 0.824-1.099 0.488-2.075 1.16-2.93 2.014-0.793 0.794-1.465 1.709-2.014 2.746-0.549 1.038-0.915 2.106-1.099 3.205h19.865c-0.244-1.16-0.61-2.258-1.098-3.296s-1.13-1.953-1.923-2.747c-0.794-0.854-1.77-1.525-2.93-2.014-1.096-0.488-2.407-0.732-3.934-0.732z"/>
	<path d="m441.3 114.1c0-3.539 0.427-6.774 1.281-9.703 0.916-2.93 2.259-5.432 4.028-7.508 1.771-2.074 3.967-3.691 6.592-4.852 2.624-1.159 5.676-1.739 9.154-1.739 2.319 0 4.486 0.519 6.5 1.556 2.075 0.977 3.631 2.106 4.669 3.389v-22.888h11.352v64.815h-11.352v-4.76c-0.306 0.609-0.794 1.25-1.465 1.922-0.672 0.61-1.495 1.189-2.472 1.739s-2.075 0.977-3.296 1.282c-1.221 0.365-2.532 0.549-3.937 0.549-3.479 0-6.53-0.58-9.154-1.739s-4.821-2.776-6.592-4.853c-1.77-2.074-3.112-4.576-4.028-7.506-0.853-2.929-1.28-6.163-1.28-9.704zm11.901 0c0 4.578 1.038 8.087 3.113 10.528 2.074 2.38 4.607 3.57 7.598 3.57s5.493-1.19 7.507-3.57c2.075-2.441 3.113-5.95 3.113-10.528 0-4.577-1.038-8.056-3.113-10.436-2.014-2.441-4.516-3.662-7.507-3.662-2.99 0-5.523 1.221-7.598 3.662-2.075 2.379-3.113 5.859-3.113 10.436z"/>
	<path d="m492.4 78.485c0-2.075 0.672-3.814 2.015-5.218 1.403-1.404 3.173-2.106 5.309-2.106 2.137 0 3.876 0.702 5.219 2.106 1.403 1.404 2.105 3.143 2.105 5.218s-0.702 3.814-2.105 5.218c-1.343 1.403-3.082 2.105-5.219 2.105-2.136 0-3.905-0.702-5.309-2.105-1.343-1.403-2.015-3.142-2.015-5.218zm13 13.275v46.14h-11.352v-46.14h11.352z"/>
	<path d="m510.95 114.1c0-3.539 0.488-6.774 1.465-9.703 0.977-2.93 2.41-5.432 4.303-7.508 1.892-2.074 4.181-3.691 6.865-4.852 2.747-1.159 5.859-1.739 9.338-1.739 2.563 0 4.943 0.55 7.141 1.647 2.258 1.038 3.906 2.197 4.943 3.479v-4.393h11.353v46.14h-11.353v-4.761c-1.098 1.525-2.685 2.838-4.76 3.938-2.014 1.037-4.455 1.556-7.323 1.556-3.479 0-6.592-0.58-9.338-1.739-2.686-1.16-4.975-2.777-6.866-4.852-1.892-2.076-3.326-4.578-4.303-7.508-0.977-2.929-1.465-6.164-1.465-9.703v-2e-3zm11.902 0c0 2.319 0.305 4.363 0.915 6.134 0.671 1.708 1.557 3.173 2.654 4.394 1.099 1.16 2.351 2.045 3.754 2.655s2.838 0.915 4.303 0.915 2.898-0.305 4.303-0.915c1.403-0.61 2.624-1.495 3.661-2.655 1.099-1.221 1.953-2.686 2.563-4.394 0.672-1.771 1.007-3.814 1.007-6.134 0-2.258-0.335-4.271-1.007-6.041-0.61-1.771-1.465-3.235-2.563-4.395-1.037-1.221-2.258-2.137-3.661-2.746-1.404-0.611-2.838-0.916-4.303-0.916s-2.899 0.305-4.303 0.916c-1.403 0.609-2.655 1.525-3.754 2.746-1.098 1.16-1.983 2.624-2.654 4.395-0.611 1.769-0.915 3.783-0.915 6.041z"/>
</g>
</svg>
