<!DOCTYPE svg  PUBLIC '-//W3C//DTD SVG 1.1//EN'  'http://www.w3.org/Graphics/SVG/1.1/DTD/svg11.dtd'>
<svg enable-background="new 0 0 600 156.67" version="1.1" viewBox="0 0 600 156.67" xml:space="preserve" xmlns="http://www.w3.org/2000/svg">
	<path d="m164.21 35.246v108.61c0 7.099 5.715 12.814 12.814 12.814h410.19c7.099 0 12.814-5.715 12.814-12.814v-95.797c0-7.099-5.716-12.814-12.814-12.814h-423l-2e-3 2e-3z" fill="#01DA95"/>
	<path d="m164.21 35.245h-0.025 0.025z" fill="#ff0"/>
	<path d="m127.39 33.314c-0.752-6.132-4.773-34.046-22.848-33.3-15.594 0.825-20.129 15.453-24.956 26.894-5.752 15.657-7.748 18.851-15.9 18.851-8.813-0.412-14.139-12.699-17.691-17.866-2.88-4.293-10.535-17.534-21.448-17.122-5.943 0-15.232 3.025-21.091 18.049-5.304 16.147-3.295 32.426-1.907 39.413 4.64 17.302 7.361 27.493 15.517 26.319 8.766-0.613 3.888-13.901 1.617-20.868-1.452-4.336-6.549-18.785-0.714-22.153 6.127-3.952 11.681 11.029 17.479 19.895 5.225 9.088 8.675 19.597 26.458 19.933 11.116 0 17.642-6.407 20.866-12.512 4.766-9.844 10.552-43.147 23.12-43.465 9.169 0.365 6.712 15.664 6.584 21.215-0.36 6.161-4.473 18.944 5.818 20.2 11.98 0.206 10.6-32.282 9.096-43.483z" fill="#fff"/>
<g fill="#fff">
	<path d="m194.54 125.81v-58.96h18.445c3.481 0 6.851 0.562 10.107 1.685 3.313 1.123 6.261 2.892 8.844 5.306s4.632 5.475 6.148 9.18c1.572 3.707 2.358 8.143 2.358 13.309s-0.786 9.602-2.358 13.307c-1.517 3.707-3.565 6.767-6.148 9.182-2.583 2.414-5.531 4.183-8.844 5.306-3.257 1.122-6.626 1.685-10.107 1.685h-18.445zm14.993-10.108c2.358 0 4.717-0.28 7.075-0.843 2.358-0.561 4.464-1.543 6.317-2.947 1.908-1.46 3.453-3.426 4.632-5.896 1.18-2.526 1.769-5.755 1.769-9.687 0-3.93-0.589-7.131-1.769-9.602-1.179-2.526-2.723-4.492-4.632-5.895-1.854-1.461-3.959-2.471-6.317-3.033s-4.717-0.842-7.075-0.842h-4.043v38.744l4.043 1e-3z"/>
	<path d="m283.9 107.28h-29.227c0.056 1.178 0.309 2.357 0.758 3.537 0.449 1.123 1.095 2.133 1.938 3.031 0.842 0.898 1.853 1.629 3.032 2.19 1.235 0.562 2.667 0.843 4.295 0.843 2.415 0 4.38-0.506 5.896-1.517 1.517-1.067 2.893-2.583 4.128-4.548l8.422 3.115c-0.842 1.741-1.824 3.342-2.947 4.801-1.123 1.461-2.442 2.725-3.959 3.791-1.516 1.01-3.284 1.824-5.306 2.442-1.966 0.562-4.239 0.843-6.822 0.843-3.65 0-6.767-0.674-9.35-2.021s-4.688-3.061-6.316-5.139c-1.629-2.133-2.836-4.492-3.622-7.074-0.729-2.584-1.095-5.139-1.095-7.665s0.365-5.081 1.095-7.665c0.786-2.582 1.993-4.912 3.622-6.99 1.628-2.133 3.733-3.874 6.316-5.222s5.699-2.021 9.35-2.021c3.537 0 6.541 0.674 9.012 2.021 2.527 1.292 4.576 2.976 6.148 5.054 1.629 2.021 2.808 4.268 3.538 6.738 0.729 2.471 1.095 4.856 1.095 7.158v4.298zm-19.793-16.34c-1.348 0-2.555 0.252-3.622 0.758-1.011 0.449-1.909 1.066-2.695 1.853-0.729 0.729-1.348 1.572-1.853 2.526-0.506 0.955-0.843 1.938-1.011 2.948h18.276c-0.225-1.067-0.562-2.077-1.011-3.032-0.449-0.954-1.038-1.797-1.769-2.526-0.729-0.786-1.628-1.403-2.695-1.853-1.01-0.449-2.217-0.674-3.62-0.674z"/>
	<path d="m329.01 103.91c0 3.257-0.421 6.232-1.263 8.928-0.786 2.695-1.993 4.997-3.622 6.906-1.628 1.909-3.649 3.397-6.064 4.464-2.414 1.066-5.222 1.601-8.422 1.601-2.134 0-4.155-0.449-6.064-1.348-1.854-0.954-3.257-2.021-4.211-3.2v21.057h-10.446v-59.634h10.443v4.38c0.28-0.562 0.729-1.123 1.348-1.685 0.617-0.618 1.376-1.179 2.274-1.685s1.909-0.898 3.032-1.18c1.122-0.336 2.33-0.505 3.621-0.505 3.2 0 6.008 0.534 8.423 1.601 2.414 1.066 4.436 2.555 6.064 4.464s2.835 4.211 3.621 6.906c0.843 2.695 1.264 5.671 1.264 8.928l2e-3 2e-3zm-10.949 0c0-4.212-0.954-7.412-2.863-9.603-1.909-2.246-4.239-3.369-6.99-3.369-2.752 0-5.082 1.123-6.991 3.369-1.853 2.19-2.779 5.391-2.779 9.603s0.927 7.44 2.779 9.686c1.909 2.19 4.239 3.284 6.991 3.284 2.751 0 5.081-1.094 6.99-3.284 1.909-2.246 2.863-5.475 2.863-9.686z"/>
	<path d="m332.12 103.91c0-3.089 0.477-5.952 1.432-8.591 0.954-2.695 2.358-5.025 4.211-6.99 1.853-1.966 4.099-3.51 6.738-4.633 2.695-1.123 5.755-1.685 9.181-1.685 3.425 0 6.457 0.562 9.096 1.685 2.695 1.123 4.97 2.667 6.822 4.633 1.854 1.965 3.257 4.295 4.211 6.99 0.955 2.639 1.432 5.502 1.432 8.591s-0.477 5.979-1.432 8.675c-0.954 2.639-2.358 4.941-4.211 6.906s-4.127 3.51-6.822 4.633c-2.639 1.123-5.671 1.685-9.096 1.685-3.426 0-6.486-0.562-9.181-1.685-2.64-1.123-4.886-2.668-6.738-4.633s-3.257-4.268-4.211-6.906c-0.955-2.695-1.432-5.587-1.432-8.675zm10.95 0c0 1.741 0.225 3.397 0.674 4.97 0.505 1.572 1.207 2.947 2.105 4.127 0.898 1.179 1.993 2.133 3.284 2.863 1.348 0.674 2.864 1.01 4.549 1.01s3.172-0.336 4.464-1.01c1.348-0.73 2.471-1.685 3.369-2.863 0.898-1.18 1.572-2.555 2.021-4.127 0.505-1.572 0.758-3.229 0.758-4.97s-0.253-3.397-0.758-4.97c-0.449-1.572-1.123-2.947-2.021-4.127s-2.021-2.105-3.369-2.779c-1.292-0.73-2.779-1.096-4.464-1.096s-3.201 0.365-4.549 1.096c-1.291 0.674-2.386 1.6-3.284 2.779s-1.601 2.555-2.105 4.127c-0.45 1.573-0.674 3.229-0.674 4.97z"/>
	<path d="m380.79 125.81v-42.453h10.444v6.906c1.516-2.525 3.369-4.407 5.559-5.643 2.246-1.291 4.576-1.938 6.991-1.938 0.449 0 0.954 0.028 1.516 0.084 0.618 0.057 1.18 0.141 1.685 0.254v10.19c-1.291-0.786-2.751-1.179-4.38-1.179-1.516 0-2.976 0.336-4.38 1.01-1.348 0.674-2.555 1.741-3.621 3.201-1.011 1.46-1.825 3.396-2.442 5.812-0.618 2.358-0.927 5.25-0.927 8.675v15.076l-10.445 5e-3z"/>
	<path d="m436.04 124.88c-0.73 0.225-1.601 0.421-2.611 0.589-0.954 0.225-2.189 0.338-3.705 0.338-4.437 0-8.03-1.292-10.781-3.875-2.695-2.582-4.043-6.514-4.043-11.791v-18.53h-6.569v-8.929h6.569v-10.612l10.444-6.57v17.182h11.202v8.929h-11.202v18.361c0 2.639 0.477 4.463 1.432 5.475 0.954 0.953 2.33 1.432 4.127 1.432 0.955 0 1.825-0.113 2.611-0.338s1.628-0.561 2.526-1.01v9.349z"/>
	<path d="m478.3 107.28h-29.227c0.057 1.178 0.31 2.357 0.759 3.537 0.449 1.123 1.095 2.133 1.937 3.031 0.843 0.898 1.854 1.629 3.032 2.19 1.235 0.562 2.667 0.843 4.296 0.843 2.414 0 4.379-0.506 5.896-1.517 1.516-1.067 2.892-2.583 4.127-4.548l8.423 3.115c-0.843 1.741-1.825 3.342-2.948 4.801-1.123 1.461-2.442 2.725-3.958 3.791-1.517 1.01-3.285 1.824-5.307 2.442-1.965 0.562-4.239 0.843-6.822 0.843-3.649 0-6.766-0.674-9.349-2.021s-4.688-3.061-6.317-5.139c-1.628-2.133-2.836-4.492-3.622-7.074-0.729-2.584-1.095-5.139-1.095-7.665s0.365-5.081 1.095-7.665c0.786-2.582 1.994-4.912 3.622-6.99 1.628-2.133 3.734-3.874 6.317-5.222s5.699-2.021 9.349-2.021c3.537 0 6.541 0.674 9.013 2.021 2.526 1.292 4.576 2.976 6.148 5.054 1.628 2.021 2.808 4.268 3.537 6.738s1.095 4.856 1.095 7.158v4.298zm-19.793-16.34c-1.348 0-2.555 0.252-3.622 0.758-1.01 0.449-1.908 1.066-2.694 1.853-0.73 0.729-1.348 1.572-1.854 2.526-0.505 0.955-0.842 1.938-1.011 2.948h18.277c-0.225-1.067-0.562-2.077-1.011-3.032-0.449-0.954-1.039-1.797-1.769-2.526-0.73-0.786-1.629-1.403-2.695-1.853-1.01-0.449-2.217-0.674-3.621-0.674z"/>
	<path d="m496.44 82.012c2.863 0 5.475 0.646 7.833 1.937 2.358 1.236 4.184 2.893 5.475 4.97l-6.232 5.728c-0.955-1.291-2.078-2.218-3.369-2.779-1.292-0.617-2.526-0.927-3.706-0.927-1.011 0-1.909 0.31-2.695 0.927-0.786 0.562-1.179 1.432-1.179 2.611 0 0.954 0.337 1.768 1.011 2.441 0.729 0.674 1.74 1.236 3.031 1.686 1.46 0.505 3.061 1.066 4.801 1.684 1.797 0.563 3.481 1.32 5.054 2.274 1.572 0.898 2.864 2.077 3.875 3.538 1.066 1.459 1.6 3.313 1.6 5.559 0 1.909-0.364 3.734-1.095 5.475-0.674 1.685-1.685 3.172-3.032 4.464-1.291 1.292-2.863 2.33-4.716 3.116-1.854 0.73-3.931 1.096-6.233 1.096-2.189 0-4.211-0.338-6.063-1.012-1.854-0.729-3.481-1.628-4.886-2.695-1.403-1.123-2.61-2.357-3.621-3.705-1.011-1.404-1.77-2.752-2.274-4.043l8.338-4.465c0.786 2.078 1.882 3.763 3.285 5.055 1.404 1.291 3.145 1.937 5.222 1.937 1.629 0 2.892-0.364 3.79-1.095 0.955-0.73 1.432-1.881 1.432-3.453 0-0.898-0.309-1.629-0.926-2.189-0.618-0.563-1.432-1.067-2.442-1.517-1.011-0.505-2.162-0.954-3.454-1.348-1.234-0.394-2.498-0.87-3.79-1.432-1.179-0.505-2.302-1.067-3.368-1.685-1.011-0.617-1.909-1.376-2.695-2.274-0.786-0.897-1.404-1.965-1.854-3.2s-0.674-2.668-0.674-4.295c0-1.629 0.31-3.174 0.927-4.633 0.674-1.517 1.601-2.836 2.779-3.959 1.18-1.18 2.583-2.105 4.211-2.779 1.681-0.676 3.562-1.013 5.64-1.013z"/>
	<path d="m557.9 66.848v58.96h-10.621v-44.137l-11.286 6.738v-11.454l17.267-10.107h4.64z"/>
</g>
</svg>
