<!DOCTYPE svg  PUBLIC '-//W3C//DTD SVG 1.1//EN'  'http://www.w3.org/Graphics/SVG/1.1/DTD/svg11.dtd'>
<svg enable-background="new 0 0 600 155.471" version="1.1" viewBox="0 0 600 155.47" xml:space="preserve" xmlns="http://www.w3.org/2000/svg">
	<path d="m162.95 34.977v107.78c0 7.046 5.674 12.72 12.72 12.72h411.62c7.045 0 12.719-5.674 12.719-12.72v-95.061c0-7.045-5.674-12.714-12.719-12.714h-424.34z" fill="#01DA95"/>
	<path d="m162.95 34.974-0.021 4e-3h0.021v-4e-3z" fill="#ff0"/>
	<path d="m162.95 34.975-0.024 1e-3 0.024-1e-3z" fill="#ff0"/>
	<path d="m126.42 33.059c-0.748-6.085-4.735-33.785-22.669-33.045-15.477 0.819-19.978 15.335-24.771 26.688-5.703 15.534-7.684 18.709-15.771 18.709-8.749-0.412-14.033-12.605-17.556-17.732-2.862-4.259-10.457-17.399-21.288-16.99-5.896 0-15.115 3.002-20.929 17.91-5.263 16.021-3.27 32.178-1.892 39.114 4.604 17.169 7.305 27.279 15.397 26.118 8.698-0.609 3.857-13.799 1.604-20.712-1.44-4.3-6.498-18.637-0.708-21.984 6.08-3.923 11.591 10.943 17.345 19.742 5.185 9.019 8.608 19.446 26.256 19.78 11.03 0 17.505-6.357 20.706-12.416 4.729-9.769 10.471-42.818 22.943-43.132 9.099 0.362 6.66 15.544 6.533 21.054-0.357 6.112-4.438 18.799 5.773 20.045 11.887 0.205 10.519-32.035 9.025-43.146v-3e-3z" fill="#fff"/>
<g fill="#fff">
		<path d="m230.03 67.219v10.026h-26.153v13.368h21.056v10.026h-21.056v25.066h-10.865v-58.487l37.018 1e-3z"/>
		<path d="m230.45 103.98c0-3.063 0.474-5.904 1.421-8.522 0.947-2.674 2.34-4.985 4.178-6.936 1.838-1.949 4.066-3.481 6.685-4.595 2.674-1.114 5.71-1.671 9.107-1.671s6.405 0.557 9.023 1.671c2.674 1.114 4.93 2.646 6.769 4.595 1.838 1.95 3.23 4.262 4.178 6.936 0.947 2.618 1.42 5.459 1.42 8.522s-0.473 5.933-1.42 8.606c-0.947 2.618-2.34 4.901-4.178 6.852-1.838 1.949-4.095 3.481-6.769 4.596-2.618 1.113-5.626 1.671-9.023 1.671-3.398 0-6.434-0.558-9.107-1.671-2.62-1.114-4.85-2.646-6.686-4.596-1.84-1.95-3.233-4.234-4.181-6.853-0.945-2.673-1.417-5.541-1.417-8.605zm10.862 0c0 1.727 0.223 3.37 0.668 4.93 0.502 1.561 1.198 2.925 2.089 4.095 0.892 1.17 1.978 2.117 3.259 2.841 1.337 0.669 2.841 1.003 4.513 1.003 1.671 0 3.146-0.334 4.428-1.003 1.337-0.724 2.451-1.671 3.343-2.841 0.891-1.17 1.56-2.534 2.005-4.095 0.501-1.56 0.752-3.202 0.752-4.93 0-1.727-0.251-3.37-0.752-4.93-0.445-1.56-1.114-2.925-2.005-4.095-0.892-1.17-2.006-2.089-3.343-2.757-1.281-0.725-2.757-1.086-4.428-1.086-1.672 0-3.176 0.361-4.513 1.086-1.281 0.668-2.367 1.587-3.259 2.757-0.891 1.17-1.587 2.535-2.089 4.095-0.445 1.56-0.668 3.204-0.668 4.93z"/>
		<path d="m279.19 125.71v-42.116h10.361v6.852c1.504-2.507 3.342-4.372 5.515-5.598 2.228-1.281 4.539-1.922 6.935-1.922 0.445 0 0.947 0.028 1.504 0.084 0.613 0.057 1.17 0.14 1.671 0.251v10.11c-1.281-0.78-2.729-1.17-4.345-1.17-1.504 0-2.952 0.334-4.345 1.003-1.337 0.668-2.534 1.727-3.593 3.175-1.003 1.448-1.811 3.37-2.423 5.765-0.613 2.34-0.919 5.209-0.919 8.606v14.956l-10.361 4e-3z"/>
		<path d="m334.49 125.71v-28.075c0-2.117-0.474-3.621-1.42-4.512-0.947-0.892-2.201-1.337-3.761-1.337-2.562 0-4.734 1.504-6.517 4.512-1.727 3.009-2.59 7.661-2.59 13.955v15.455h-10.359v-42.111h10.361v6.769c1.56-2.34 3.286-4.15 5.18-5.432 1.894-1.337 4.206-2.005 6.935-2.005 2.618 0 4.986 0.696 7.103 2.089 2.173 1.337 3.732 3.537 4.679 6.601 1.504-2.729 3.37-4.847 5.598-6.351 2.229-1.56 4.651-2.339 7.27-2.339 3.955 0 7.019 1.142 9.191 3.426 2.228 2.283 3.342 5.459 3.342 9.524v29.83h-10.36v-28.074c0-2.116-0.474-3.62-1.421-4.512s-2.2-1.337-3.76-1.337c-2.507 0-4.651 1.448-6.434 4.345-1.782 2.841-2.674 7.241-2.674 13.202v16.377h-10.363z"/>
		<path d="m403.05 125.04v-6.769c-1.56 2.229-3.453 4.039-5.682 5.432-2.172 1.337-4.623 2.005-7.353 2.005-3.787 0-6.907-1.059-9.358-3.175-2.395-2.117-3.593-5.292-3.593-9.525v-30.08h10.361v26.988c0 2.507 0.557 4.289 1.671 5.348s2.563 1.587 4.345 1.587c1.226 0 2.423-0.361 3.593-1.086 1.17-0.779 2.2-1.894 3.092-3.342 0.891-1.448 1.587-3.23 2.089-5.348 0.557-2.117 0.835-4.567 0.835-7.353v-16.795h10.361v42.111l-10.361 2e-3z"/>
		<path d="m431.77 66.55v59.156h-10.36v-59.156h10.36z"/>
		<path d="m437.78 103.98c0-3.23 0.445-6.183 1.337-8.856 0.891-2.674 2.2-4.958 3.927-6.852s3.815-3.37 6.267-4.429c2.506-1.059 5.348-1.587 8.522-1.587 2.34 0 4.512 0.501 6.518 1.504 2.061 0.946 3.564 2.005 4.512 3.175v-4.011h10.36v42.111h-10.36v-4.346c-1.003 1.393-2.451 2.591-4.345 3.594-1.839 0.946-4.066 1.42-6.685 1.42-3.175 0-6.017-0.529-8.522-1.588-2.451-1.058-4.54-2.534-6.268-4.428-1.727-1.895-3.035-4.178-3.927-6.852-0.89-2.672-1.336-5.624-1.336-8.855zm10.862 0c0 2.117 0.278 3.982 0.836 5.598 0.612 1.56 1.42 2.896 2.423 4.011 1.003 1.059 2.145 1.866 3.426 2.424 1.281 0.557 2.59 0.835 3.927 0.835s2.646-0.278 3.927-0.835c1.281-0.558 2.396-1.365 3.343-2.424 1.002-1.113 1.782-2.45 2.339-4.011 0.613-1.615 0.919-3.481 0.919-5.598 0-2.061-0.306-3.899-0.919-5.515-0.557-1.615-1.337-2.952-2.339-4.011-0.947-1.114-2.062-1.949-3.343-2.507-1.281-0.557-2.59-0.835-3.927-0.835s-2.646 0.278-3.927 0.835c-1.281 0.558-2.423 1.393-3.426 2.507-1.003 1.059-1.811 2.396-2.423 4.011-0.558 1.616-0.836 3.455-0.836 5.515z"/>
		<path d="m524.97 67.215v58.491h-10.527v-43.785l-11.196 6.685v-11.364l17.128-10.026 4.595-1e-3z"/>
	<path d="m547.2 82.329c0-2.145 0.361-4.134 1.085-5.969 0.749-1.86 1.783-3.462 3.101-4.806 1.317-1.37 2.868-2.429 4.65-3.179 1.809-0.774 3.772-1.162 5.892-1.162 2.118 0 4.069 0.388 5.853 1.162 1.809 0.75 3.372 1.809 4.689 3.179 1.317 1.344 2.338 2.945 3.062 4.806 0.75 1.835 1.124 3.824 1.124 5.969s-0.374 4.146-1.124 6.008c-0.724 1.834-1.744 3.437-3.062 4.806-1.317 1.344-2.881 2.39-4.689 3.14-1.783 0.774-3.733 1.162-5.853 1.162s-4.083-0.388-5.892-1.162c-1.782-0.75-3.333-1.796-4.65-3.14-1.317-1.369-2.352-2.972-3.101-4.806-0.724-1.861-1.085-3.864-1.085-6.008zm3.1 0c0 1.705 0.271 3.307 0.813 4.806 0.568 1.473 1.356 2.752 2.364 3.837s2.223 1.95 3.644 2.597c1.447 0.62 3.049 0.93 4.806 0.93 1.758 0 3.347-0.31 4.768-0.93 1.447-0.646 2.675-1.512 3.683-2.597 1.007-1.085 1.782-2.364 2.325-3.837 0.568-1.499 0.853-3.101 0.853-4.806s-0.284-3.295-0.853-4.768c-0.543-1.499-1.318-2.791-2.325-3.876-1.008-1.085-2.235-1.938-3.683-2.558-1.421-0.646-3.01-0.969-4.768-0.969-1.757 0-3.358 0.322-4.806 0.969-1.421 0.62-2.636 1.473-3.644 2.558s-1.796 2.377-2.364 3.876c-0.541 1.473-0.813 3.062-0.813 4.768zm10.465 1.201h-1.473v7.054h-2.797v-16.511h5.93c1.705 0 2.983 0.439 3.837 1.318 0.853 0.878 1.278 2.015 1.278 3.41 0 1.215-0.349 2.235-1.046 3.062-0.672 0.802-1.537 1.305-2.597 1.512l4.922 7.209h-3.179l-4.875-7.054zm-1.473-6.743v4.03h3.101c0.853 0 1.459-0.168 1.821-0.504 0.361-0.361 0.542-0.865 0.542-1.512 0-0.646-0.181-1.137-0.542-1.473-0.361-0.361-0.969-0.542-1.821-0.542h-3.101z"/>
</g>
</svg>
