<svg width="800" height="363.62" version="1.1" viewBox="0 0 211.67 96.21" xmlns="http://www.w3.org/2000/svg">
 <g transform="matrix(.99997 0 0 .99997 .0022032 -.0010959)">
  <path d="m100.35 91.497c-1e-5 2.613 2.1034 4.7168 4.7166 4.7168h101.89c2.613 0 4.7166-2.1037 4.7166-4.7168l-4e-5 -53.011h-111.32z" stroke-width="1.3056"/>
  <path d="m79.557 20.805c-0.46997-3.8296-2.9813-21.262-14.267-20.795-9.7387 0.51475-12.571 9.6498-15.586 16.794-3.5926 9.7781-4.839 11.772-9.9296 11.772-5.5036-0.25699-8.8281-7.9305-11.048-11.157-1.799-2.6806-6.5793-10.949-13.395-10.692-3.7113 0-9.5121 1.889-13.171 11.271-3.3121 10.084-2.0577 20.25-1.1907 24.612 2.8972 10.805 4.5969 17.17 9.6898 16.436 5.4739-0.38182 2.4278-8.6813 1.0098-13.03-0.90668-2.7096-4.0893-11.732-0.44572-13.836 3.8261-2.4682 7.2942 6.8872 10.915 12.424 3.2627 5.6758 5.4173 12.238 16.523 12.448 6.9415 0 11.017-4.0014 13.03-7.8139 2.9758-6.1472 6.5893-26.945 14.439-27.143 5.7255 0.22769 4.1914 9.7816 4.1115 13.249-0.22525 3.847-2.7931 11.83 3.6331 12.614 7.4803 0.12909 6.619-20.16 5.6796-27.154z" stroke-width="2.2152"/>
  <path d="m100.34 21.992h111.33v10.996h-111.33z" stroke-width="1.3247"/>
 </g>
 <g transform="matrix(.69737 0 0 .69737 3.0376 226.72)" fill="#fff" stroke-width="1.0333">
  <path d="m278.81-252.32h-3.8233v-3.8233h-22.733v3.8233h-3.8233v3.8233h-3.8233v15.19h3.8233v3.8233h3.8233v3.72h18.91v3.8233h3.8233v7.5432h-3.8233v3.8233h-15.19v-3.8233h-3.8233v-3.8233h-7.5432v7.5432h3.8233v3.8233h3.8233v3.8233h22.733v-3.8233h3.8233v-3.8233h3.8233v-15.086h-3.8233v-3.8233h-3.8233v-3.8233h-18.91v-3.72h-3.8233v-7.5432h3.8233v-3.8233h15.19v3.8233h3.8233v3.8233h7.5432v-7.6466h-3.8233z"/>
  <path d="m230.98-225.76v22.733h7.5432v-53.113h-7.5432v22.733h-22.733v-22.733h-7.5432v53.113h7.5432v-22.733z"/>
  <path d="m160.14-214.39h3.8233v3.8233h3.8233v3.8233h3.8233v3.8233h7.5432v-3.8233h3.8233v-3.8233h3.8233v-3.8233h3.8233v-3.8233h3.8233v-37.923h-7.5432v34.1h-3.8233v3.8233h-3.8233v3.8233h-7.5432v-3.8233h-3.8233v-3.8233h-3.8233v-34.1h-7.5432v37.923h3.8233v3.8233z"/>
 </g>
</svg>
