<svg width="800" height="168.99" version="1.1" viewBox="0 0 800 168.99" xmlns="http://www.w3.org/2000/svg">
 <path class="cls-1" d="m162.81 0h16.487q0 84.481 0 168.99h-16.487q0.0536-84.436 0-168.99z" fill="#fff" stroke-width="1.7423"/>
 <path d="m93.719 42.601a15.621 15.621 0 0 1 15.838 1.7672c5.6722 4.4942 8.0941 11.649 10.014 18.348a102.17 102.17 0 0 1 1.4399 42.325c-0.63268 4.1233-3.0543 8.9011-7.6576 9.4682a6.2179 6.2179 0 0 1-6.872-5.6067c-0.8073-9.4682 2.6398-19.002 0.47989-28.362a6.1305 6.1305 0 0 0-6.8939-5.0395c-4.1451 1.3526-6.8506 5.1269-8.8574 8.7268-4.2107 7.963-6.5452 16.711-9.3594 25.264-1.8762 6.1961-4.887 12.653-10.908 15.882-9.7304 5.2794-23.562 4.1888-30.543-5.0395-6.0432-8.2466-10.123-17.715-15.751-26.179-1.5053-1.9199-3.578-4.8433-6.4141-3.796-2.8362 1.0472-3.4689 3.9924-3.4689 6.5452 0.4146 9.3157 4.9307 17.78 6.5452 26.878 0.87272 3.7088-1.5053 8.7268-5.8907 8.0504-4.1451 0.45817-6.5448-3.4907-7.9849-6.7632-6.1742-15.097-9.5119-31.961-6.0213-48.128 1.6144-7.4614 4.1233-15.272 9.9047-20.551 5.7814-5.2794 15.555-6.5452 21.817-1.3963 9.0103 7.0031 12.807 18.326 20.399 26.529a10.516 10.516 0 0 0 16.035-0.39279c8.2247-12.653 8.7704-31.808 24.151-38.527z" fill="#fff" stroke-width="2.1817"/>
 <g transform="matrix(4.1216 0 0 4.1216 .001046 0)" fill="#3f9">
  <g transform="matrix(.16481 0 0 .16481 -95.485 -2.2231)">
   <path class="cls-1" d="m974.97 97.71 2.91 5.07h4.52l-3.66-5.64 0.16-0.07c0.82-0.33 1.53-0.88 2.04-1.6 0.58-0.92 0.87-1.99 0.84-3.07v-0.1c0.04-0.74-0.1-1.48-0.4-2.16s-0.75-1.28-1.32-1.76c-1.48-1.05-3.27-1.56-5.08-1.46h-10.2v15.86h3.74v-5.16h6.28l0.16 0.09zm-6.32-3.23v-4.37h6.26c0.83-0.06 1.66 0.11 2.4 0.48 0.26 0.18 0.47 0.43 0.6 0.71 0.14 0.29 0.19 0.6 0.17 0.92v0.07c0.02 0.32-0.05 0.65-0.2 0.94s-0.38 0.53-0.66 0.69c-0.79 0.39-1.66 0.56-2.53 0.5z"/>
   <path class="cls-1" d="m1006.7 93.44h-11.2v-3.35h12.41v-3.15h-16.37v15.83h3.96v-6.32h11.2v-3.02z"/>
   <path class="cls-1" d="m1006.7 118.1h-11.2v-3.34h12.41v-3.16h-16.37v15.85h3.96v-6.32h11.2z"/>
   <path class="cls-1" d="m980.23 120.85v-3.02h-11.43v-3.07h13.08v-3.16h-17.04v15.85h17.19v-3.16h-13.22v-3.44h11.43z"/>
   <path class="cls-1" d="m982.15 164.27v-13.11c-7.44 0-16.71-2.65-25.46-7.14-9.32-4.64-17.5-11.28-23.96-19.44v-0.1h0.12c10.36-5.83 16.6-13.94 19.12-24.63 2.58-11.03 0.89-24.4-5.04-39.73-3.05-7.79-6.83-15.28-11.29-22.36l-15.48 14.24c5.2 3.99 11.1 11.9 15.42 20.68 5.1 10.33 7.49 20.67 6.73 29.13-0.24 4.47-1.69 8.8-4.2 12.51s-5.98 6.67-10.04 8.55c4.19 12.21 18.34 33.92 45.02 38.36h0.1v0.09c0.7 9.33-0.89 18.7-4.62 27.28-2.43 5.5-6.12 10.35-10.78 14.14-5.66 4.4-12.4 7.19-19.52 8.07 1.46 1.12 2.91 2.18 4.37 3.13 35.64-4.38 39.5-36.21 39.5-49.68z"/>
   <path class="cls-1" d="m1036.8 72.69c4.37-8.74 10.2-16.69 15.42-20.68l-15.48-14.25c-4.41 7.07-8.15 14.53-11.16 22.3-5.93 15.34-7.63 28.71-5.04 39.73 2.5 10.69 8.74 18.75 19.12 24.63h0.12l-0.09 0.1c-6.42 8.23-14.6 14.91-23.94 19.55-8.74 4.49-18.03 7.08-25.46 7.14v13.11c0 13.47 3.85 45.3 39.51 49.67 1.46-0.95 2.91-2.01 4.37-3.13-7.12-0.88-13.87-3.67-19.53-8.07-4.65-3.81-8.34-8.65-10.78-14.14-3.73-8.58-5.31-17.95-4.62-27.28v-0.09h0.09c26.68-4.44 40.78-26.22 45.02-38.36-4.06-1.89-7.53-4.85-10.04-8.57-2.51-3.71-3.97-8.03-4.21-12.51-0.77-8.48 1.68-18.82 6.7-29.14z"/>
   <path class="cls-1" d="m1040 78.99c-0.67 1.69-1.28 3.39-1.81 5.13 13.58 10.78 23.48 25.51 28.31 42.16 4.84 16.65 4.38 34.39-1.31 50.77s-16.33 30.58-30.45 40.65c-14.12 10.06-31.02 15.49-48.35 15.53-17.34 0.04-34.26-5.31-48.42-15.32-14.16-10-24.87-24.16-30.63-40.51s-6.3-34.09-1.53-50.76c4.76-16.67 14.59-31.45 28.13-42.29-0.52-1.73-1.12-3.47-1.79-5.16-15.52 11.4-27.04 27.41-32.91 45.74-5.87 18.34-5.8 38.06 0.22 56.35 6.01 18.29 17.66 34.21 33.26 45.49 15.61 11.28 34.38 17.33 53.64 17.29 19.25-0.04 38-6.16 53.57-17.49 15.56-11.34 27.15-27.3 33.09-45.62 5.94-18.31 5.94-38.04 0-56.35s-17.52-34.28-33.09-45.62h0.07z"/>
   <path class="cls-1" d="m986.2 66.27c9.95 0 19.82 1.79 29.13 5.29 0.42-1.73 0.87-3.45 1.37-5.13-19.78-7.04-41.39-7.04-61.17 0 0.5 1.68 0.96 3.39 1.37 5.13 9.37-3.51 19.3-5.31 29.3-5.29z"/>
  </g>
  <g transform="matrix(.31395 0 0 .31395 -168.06 -74.743)">
   <path class="cls-1" d="m906.35 320.15c-1.43-0.56-2.96-0.83-4.49-0.79h-7.6v13.86h7.6c1.53 0.04 3.06-0.23 4.49-0.79 1.14-0.45 2.1-1.25 2.76-2.28 0.66-1.12 0.99-2.4 0.94-3.7v-0.31c0.05-1.3-0.28-2.59-0.94-3.71-0.66-1.03-1.63-1.82-2.76-2.26zm0.72 6.35c0.03 0.82-0.19 1.63-0.63 2.32-0.45 0.65-1.1 1.15-1.85 1.41-0.97 0.35-1.99 0.51-3.02 0.48h-4.37v-8.73h4.37c1.03-0.03 2.05 0.13 3.02 0.48 0.75 0.27 1.4 0.77 1.85 1.42 0.44 0.7 0.66 1.51 0.63 2.33z"/>
   <path class="cls-1" d="m920.79 327.26h10v-2.47h-10v-2.85h11.34v-2.55h-14.29v13.85h14.41v-2.55h-11.45v-3.43z"/>
   <path class="cls-1" d="m954.1 327.26h10v-2.47h-10v-2.85h11.34v-2.55h-14.3v13.85h14.41v-2.55h-11.45z"/>
   <path class="cls-1" d="m984.71 325.94c-1.05-0.4-2.15-0.67-3.27-0.79l-2.94-0.42c-0.74-0.08-1.46-0.29-2.12-0.63-0.2-0.1-0.37-0.25-0.49-0.43-0.12-0.19-0.19-0.41-0.2-0.63v-0.08c0-0.26 0.09-0.52 0.25-0.73s0.38-0.36 0.63-0.44c0.89-0.29 1.83-0.42 2.77-0.37h0.28c1.04 0 2.07 0.15 3.06 0.43 0.94 0.26 1.84 0.67 2.65 1.21l1.35-2.09c-0.66-0.45-1.37-0.81-2.12-1.09-0.75-0.29-1.54-0.49-2.33-0.61-0.9-0.13-1.8-0.2-2.71-0.19h-0.27c-1.7-0.1-3.39 0.25-4.91 1.02-0.52 0.3-0.96 0.73-1.25 1.26-0.3 0.53-0.44 1.12-0.42 1.73v0.08c-0.02 0.69 0.18 1.38 0.57 1.95 0.44 0.6 1.04 1.06 1.72 1.34 0.93 0.4 1.92 0.66 2.93 0.79l2.94 0.42c0.68 0.07 1.35 0.21 2.01 0.4 0.41 0.11 0.79 0.32 1.11 0.59 0.11 0.11 0.2 0.24 0.26 0.39s0.09 0.3 0.08 0.46v0.08c0 0.28-0.1 0.56-0.28 0.78-0.17 0.22-0.42 0.38-0.69 0.46-0.98 0.31-2 0.45-3.03 0.4h-0.25c-0.8 0-1.59-0.07-2.38-0.21-0.79-0.13-1.57-0.33-2.32-0.59-0.7-0.24-1.37-0.55-1.99-0.94l-1.16 2.27c1.14 0.64 2.37 1.11 3.65 1.4 1.39 0.32 2.82 0.48 4.24 0.47h0.22c2.35 0 4.09-0.34 5.23-1.02 0.54-0.3 0.99-0.75 1.29-1.29s0.44-1.16 0.41-1.77v-0.08c0.02-0.74-0.19-1.46-0.61-2.07-0.49-0.65-1.15-1.15-1.9-1.44z"/>
   <path class="cls-1" d="m1003.4 319.39h-8.65v13.86h2.97v-4.6h5.71c1.41 0.1 2.82-0.29 3.97-1.13 0.46-0.43 0.81-0.96 1.04-1.55s0.32-1.22 0.27-1.85v-0.21c0.05-0.63-0.04-1.26-0.27-1.85s-0.59-1.12-1.05-1.55c-1.15-0.83-2.56-1.22-3.98-1.12zm2.33 4.76c0.02 0.29-0.03 0.57-0.14 0.83-0.12 0.26-0.3 0.49-0.53 0.66-0.64 0.36-1.38 0.52-2.12 0.47h-5.23v-4.13h5.39c0.7-0.06 1.41 0.1 2.02 0.46 0.21 0.18 0.38 0.41 0.49 0.67s0.15 0.54 0.13 0.82v0.23z"/>
   <path class="cls-1" d="m1019.6 319.39-6.44 13.86h3.04l1.21-2.68h8.99l1.2 2.68h3.23l-6.44-13.86h-4.78zm-1.16 8.87 2.99-6.63 0.34-0.97h0.25l0.37 0.97 2.97 6.63z"/>
   <path class="cls-1" d="m1050.6 331.91h-0.15l-0.96-1.83-6.27-10.69h-5.6v13.85h2.97v-12.53h0.15l0.96 1.85 6.29 10.68h5.6v-13.85h-2.98v12.53z"/>
   <path class="cls-1" d="m1043.1 316.61c0.11-0.1 0.23-0.18 0.37-0.22 0.14-0.05 0.28-0.07 0.43-0.05 0.25 0 0.5 0.06 0.73 0.17 0.26 0.12 0.55 0.25 0.86 0.41 0.33 0.17 0.68 0.31 1.03 0.42 0.39 0.11 0.78 0.17 1.19 0.17 0.45 0.02 0.89-0.07 1.3-0.25 0.38-0.19 0.7-0.48 0.93-0.84 0.31-0.49 0.55-1.03 0.72-1.59l-1.67-0.25c-0.07 0.34-0.23 0.64-0.47 0.89-0.24 0.18-0.54 0.27-0.84 0.25-0.35-0.02-0.69-0.12-0.98-0.29-0.37-0.2-0.79-0.4-1.25-0.59-0.5-0.2-1.04-0.3-1.58-0.29-0.67-0.03-1.32 0.2-1.83 0.63-0.54 0.54-0.93 1.22-1.11 1.96l1.67 0.52c0.11-0.37 0.28-0.72 0.52-1.02z"/>
   <path class="cls-1" d="m1066.9 319.39-6.45 13.86h3.04l1.21-2.68h8.99l1.2 2.68h3.23l-6.44-13.86h-4.77zm-1.16 8.87 2.99-6.63 0.34-0.97h0.25l0.37 0.97 2.97 6.63z"/>
   <path class="cls-1" d="m843.44 289.57c-2.04-0.81-4.17-1.34-6.35-1.59l-5.78-0.79c-1.38-0.15-2.73-0.54-3.97-1.17-0.38-0.17-0.7-0.45-0.93-0.8s-0.36-0.75-0.37-1.16v-0.14c0-0.49 0.16-0.97 0.46-1.36s0.71-0.67 1.18-0.81c1.67-0.54 3.43-0.76 5.18-0.67h0.52c2.01 0 4.01 0.26 5.95 0.79 1.83 0.49 3.56 1.28 5.13 2.33l2.76-4.25c-1.33-0.84-2.75-1.54-4.22-2.1-1.46-0.55-2.97-0.95-4.51-1.18-1.77-0.26-3.55-0.38-5.33-0.36h-0.52c-4.2 0-7.39 0.66-9.57 1.99-1.03 0.58-1.87 1.43-2.45 2.46-0.57 1.03-0.86 2.2-0.81 3.38v0.18c-0.03 1.35 0.36 2.69 1.12 3.81 0.86 1.16 2.03 2.06 3.37 2.61 1.84 0.76 3.78 1.26 5.77 1.49l5.78 0.79c1.26 0.16 2.51 0.43 3.73 0.79 0.76 0.21 1.46 0.58 2.07 1.08 0.21 0.19 0.37 0.43 0.49 0.69s0.17 0.54 0.16 0.83v0.15c0 1.04-0.61 1.81-1.82 2.31-1.84 0.59-3.78 0.84-5.71 0.75h-0.43c-1.6 0-3.19-0.14-4.76-0.43-1.55-0.27-3.07-0.66-4.55-1.17-1.35-0.46-2.64-1.08-3.86-1.82l-2.38 4.59c2.24 1.25 4.64 2.18 7.14 2.78 2.76 0.64 5.58 0.95 8.41 0.93h0.48c4.58 0 7.97-0.66 10.18-1.98 1.06-0.59 1.93-1.47 2.52-2.53s0.87-2.26 0.81-3.48v-0.19c0.03-1.42-0.39-2.8-1.2-3.97-0.95-1.25-2.22-2.2-3.69-2.76z"/>
   <path class="cls-1" d="m881.84 289.55c0 3.17-0.81 5.58-2.43 7.22s-4 2.47-7.14 2.48h-0.33c-3.23 0-5.67-0.82-7.33-2.46s-2.49-4.05-2.51-7.24v-12.6h-6.08v12.2c0 5.09 1.34 8.92 4.01 11.47 2.68 2.55 6.64 3.83 11.9 3.82h0.29c5.17 0 9.07-1.28 11.69-3.85s3.95-6.38 3.97-11.45v-12.2h-6.04v12.6z"/>
   <path class="cls-1" d="m925.02 286.2v-0.44c0-2.98-0.84-5.2-2.54-6.64s-4.27-2.17-7.75-2.17h-17.01v26.86h6.04v-8.81h10.97c3.48 0 6.06-0.73 7.75-2.18 1.7-1.45 2.54-3.66 2.54-6.62zm-6.04 0.04c0.03 0.52-0.07 1.04-0.29 1.5-0.23 0.47-0.57 0.87-1 1.16-1.24 0.68-2.64 0.98-4.05 0.88h-9.88v-7.59h10.26c1.31-0.11 2.63 0.16 3.79 0.79 0.41 0.32 0.73 0.74 0.93 1.21 0.21 0.48 0.29 0.99 0.24 1.51v0.53z"/>
   <path class="cls-1" d="m961.47 298.58h-22.28v-6.19h19.4v-5.01h-19.4v-5.22h22.04v-5.22h-28.08v26.85h28.31v-5.22z"/>
   <path class="cls-1" d="m993.32 294.09c1.43-0.55 2.67-1.49 3.58-2.72 1.03-1.54 1.55-3.36 1.49-5.21v-0.26c0.07-1.26-0.16-2.51-0.67-3.66s-1.28-2.17-2.26-2.96c-1.95-1.55-4.8-2.33-8.56-2.33h-16.56v26.86h6.04v-8.81h10.71l5.11 8.81h7.31l-6.19-9.71zm-1.01-8.02c0.04 0.55-0.07 1.1-0.32 1.59-0.24 0.49-0.62 0.91-1.08 1.21-1.36 0.69-2.89 1-4.42 0.9h-10.12v-7.58h10.45c1.94 0 3.34 0.29 4.2 0.86 0.44 0.31 0.79 0.74 1.01 1.23 0.23 0.49 0.32 1.03 0.27 1.57v0.22z"/>
   <path class="cls-1" d="m1036.3 294.63c-1.61 1.5-3.49 2.66-5.55 3.43-2.14 0.78-4.41 1.17-6.7 1.15h-0.33c-2.13 0.04-4.24-0.32-6.23-1.08-1.64-0.61-3.08-1.66-4.16-3.04-0.98-1.33-1.5-2.95-1.47-4.61v-0.22c-0.03-1.66 0.48-3.28 1.47-4.61 1.08-1.38 2.52-2.43 4.16-3.04 1.99-0.76 4.1-1.12 6.23-1.08h0.33c1.54-0.01 3.08 0.13 4.6 0.43 1.34 0.28 2.64 0.74 3.85 1.38 1.29 0.69 2.5 1.54 3.6 2.51l3.73-3.92c-1.99-1.89-4.35-3.34-6.94-4.27-2.85-0.95-5.84-1.41-8.84-1.36h-0.29c-2.48-0.03-4.95 0.3-7.33 0.98-2.05 0.58-3.98 1.54-5.69 2.83-1.55 1.18-2.81 2.69-3.7 4.43-0.88 1.76-1.33 3.7-1.3 5.66v0.3c-0.02 1.97 0.42 3.91 1.3 5.67 0.89 1.73 2.15 3.24 3.7 4.42 1.7 1.29 3.63 2.25 5.69 2.83 2.38 0.69 4.85 1.02 7.33 0.99h0.29c3.08 0.05 6.14-0.44 9.05-1.44 2.62-0.94 4.99-2.45 6.95-4.43l-3.75-3.95z"/>
   <path class="cls-1" d="m1075.8 280.13c-1.64-1.28-3.5-2.24-5.5-2.83-2.28-0.68-4.65-1.01-7.03-0.98h-0.34c-2.38-0.03-4.76 0.3-7.04 0.98-1.99 0.6-3.86 1.57-5.48 2.87-1.5 1.19-2.71 2.7-3.56 4.42-0.85 1.77-1.28 3.71-1.25 5.67v0.29c-0.02 1.95 0.4 3.88 1.25 5.64 0.85 1.71 2.06 3.21 3.56 4.39 1.63 1.29 3.49 2.26 5.48 2.86 2.28 0.68 4.66 1.02 7.04 0.99h0.34c2.38 0.02 4.75-0.31 7.03-0.99 1.99-0.59 3.86-1.55 5.5-2.83 1.5-1.18 2.71-2.68 3.56-4.39 0.85-1.74 1.28-3.66 1.25-5.59v-0.52c0.02-1.94-0.41-3.87-1.25-5.62-0.85-1.7-2.06-3.2-3.56-4.37zm-1.26 10.39c0.03 1.62-0.47 3.21-1.42 4.53-1.02 1.36-2.39 2.42-3.97 3.06-1.87 0.77-3.88 1.14-5.91 1.09h-0.34c-2.02 0.04-4.02-0.33-5.89-1.09-1.58-0.63-2.95-1.69-3.97-3.05-0.95-1.32-1.44-2.92-1.4-4.55v-0.22c-0.04-1.65 0.45-3.26 1.4-4.61 1.01-1.37 2.39-2.43 3.97-3.06 1.87-0.76 3.87-1.14 5.89-1.09h0.34c2.02-0.04 4.04 0.33 5.91 1.09 1.58 0.64 2.95 1.7 3.97 3.06 0.95 1.34 1.46 2.96 1.42 4.61v0.22z"/>
   <path class="cls-1" d="m1114 279.11c-1.69-1.44-4.28-2.17-7.76-2.17h-17v26.86h6.04v-8.81h10.96c3.48 0 6.07-0.73 7.76-2.18 1.7-1.45 2.54-3.66 2.54-6.62v-0.44c0-2.98-0.84-5.2-2.54-6.64zm-3.51 7.14c0.04 0.52-0.06 1.04-0.29 1.5-0.23 0.47-0.57 0.87-1 1.16-1.23 0.68-2.64 0.98-4.04 0.88h-9.88v-7.61h10.26c1.31-0.11 2.63 0.16 3.78 0.79 0.41 0.32 0.73 0.73 0.94 1.21 0.2 0.48 0.29 1 0.24 1.51v0.55z"/>
   <path class="cls-1" d="m1141.2 276.95h-9.81l-12.38 26.86h6.16l2.28-5.08h17.31l2.27 5.08h6.52l-12.34-26.86zm-11.65 17.14 5.65-12.57 0.68-1.94h0.48l0.71 1.94 5.61 12.57z"/>
  </g>
 </g>
</svg>
