<!DOCTYPE svg  PUBLIC '-//W3C//DTD SVG 1.1//EN'  'http://www.w3.org/Graphics/SVG/1.1/DTD/svg11.dtd'>
<svg enable-background="new 0 0 600 207.52" version="1.1" viewBox="0 0 600 207.52" xml:space="preserve" xmlns="http://www.w3.org/2000/svg">
	<path d="m217.51 46.687v143.86c0 9.404 7.57 16.976 16.975 16.976h348.53c9.404 0 16.975-7.571 16.975-16.976v-126.89c0-9.403-7.57-16.974-16.975-16.974h-365.51l3e-3 2e-3z" fill="#FF544D"/>
	<path d="m217.51 46.683-0.033 1e-3 0.033-1e-3z" fill="#FF544D"/>
	<path d="m168.75 44.128c-0.997-8.123-6.322-45.096-30.262-44.109-20.657 1.093-26.667 20.469-33.058 35.623-7.618 20.739-10.26 24.968-21.058 24.968-11.675-0.544-18.728-16.821-23.437-23.665-3.817-5.685-13.953-23.223-28.408-22.677-7.872 0-20.176 4.006-27.937 23.906-7.024 21.388-4.364 42.949-2.525 52.205 6.146 22.918 9.75 36.415 20.553 34.86 11.61-0.813 5.149-18.413 2.142-27.641-1.923-5.743-8.674-24.882-0.945-29.344 8.116-5.235 15.472 14.607 23.152 26.353 6.92 12.038 11.49 25.957 35.046 26.403 14.724 0 23.366-8.487 27.639-16.574 6.312-13.038 13.976-57.151 30.624-57.571 12.145 0.483 8.891 20.748 8.722 28.102-0.479 8.16-5.925 25.093 7.706 26.756 15.866 0.274 14.038-42.76 12.046-57.595z" fill="#fff"/>
<g fill="#fff">
	<path d="m309.76 113.99c-1.487-3.94-3.718-7.175-6.691-9.702-2.975-2.603-7.175-3.903-12.603-3.903-3.049 0-5.911 0.558-8.588 1.673-2.677 1.041-5.019 2.677-7.026 4.907-2.007 2.156-3.605 4.907-4.796 8.253-1.189 3.271-1.784 7.175-1.784 11.71 0 4.536 0.595 8.477 1.784 11.822 1.19 3.271 2.789 6.022 4.796 8.253 2.008 2.156 4.35 3.792 7.026 4.907 2.677 1.041 5.539 1.562 8.588 1.562 5.428 0 9.628-1.265 12.603-3.792 2.974-2.603 5.204-5.874 6.691-9.814l13.049 3.346c-1.858 7.51-5.576 13.347-11.153 17.51-5.576 4.09-12.64 6.134-21.189 6.134-4.907 0-9.592-0.854-14.053-2.564-4.387-1.71-8.29-4.238-11.71-7.584-3.421-3.346-6.135-7.51-8.142-12.491-2.008-4.981-3.012-10.744-3.012-17.287s1.004-12.305 3.012-17.287c2.007-4.981 4.721-9.145 8.142-12.491 3.42-3.346 7.323-5.873 11.71-7.583 4.461-1.71 9.146-2.565 14.053-2.565 8.55 0 15.613 2.082 21.189 6.245 5.577 4.09 9.294 9.889 11.153 17.398l-13.049 3.343z"/>
	<path d="m327.65 94.477c0-2.527 0.818-4.646 2.454-6.356 1.71-1.71 3.866-2.565 6.469-2.565 2.602 0 4.721 0.855 6.356 2.565 1.71 1.71 2.565 3.829 2.565 6.356 0 2.528-0.855 4.647-2.565 6.357-1.636 1.71-3.755 2.564-6.356 2.564-2.603 0-4.759-0.854-6.469-2.564-1.636-1.71-2.454-3.829-2.454-6.357zm15.837 16.172v56.207h-13.824v-56.211l13.824 4e-3z"/>
	<path d="m367.83 110.64v9.034c2.082-2.974 4.572-5.354 7.473-7.138 2.974-1.858 6.282-2.788 9.926-2.788 5.056 0 9.182 1.413 12.379 4.238 3.271 2.825 4.907 7.063 4.907 12.714v40.148h-13.829v-36.023c0-3.346-0.744-5.725-2.23-7.138-1.487-1.413-3.42-2.119-5.8-2.119-1.71 0-3.346 0.521-4.907 1.562-1.486 0.967-2.825 2.416-4.015 4.35s-2.156 4.313-2.899 7.138c-0.67 2.825-1.004 6.097-1.004 9.814v22.417h-13.829v-56.203l13.828-6e-3z"/>
	<path d="m463.32 142.32h-38.7c0.074 1.562 0.408 3.122 1.004 4.684 0.595 1.487 1.449 2.825 2.564 4.015s2.454 2.156 4.015 2.9c1.636 0.743 3.532 1.115 5.688 1.115 3.197 0 5.8-0.669 7.807-2.008 2.008-1.412 3.829-3.42 5.465-6.022l11.153 4.127c-1.115 2.305-2.416 4.424-3.903 6.356-1.487 1.934-3.234 3.606-5.242 5.02-2.007 1.338-4.35 2.416-7.026 3.233-2.602 0.744-5.613 1.116-9.033 1.116-4.833 0-8.96-0.893-12.38-2.677-3.42-1.785-6.208-4.053-8.364-6.804-2.156-2.825-3.755-5.948-4.796-9.368-0.967-3.42-1.45-6.804-1.45-10.149s0.483-6.729 1.45-10.149c1.041-3.42 2.64-6.505 4.796-9.257 2.156-2.825 4.944-5.13 8.364-6.914 3.42-1.785 7.547-2.677 12.38-2.677 4.684 0 8.662 0.892 11.934 2.677 3.346 1.71 6.06 3.94 8.141 6.691 2.156 2.677 3.718 5.65 4.685 8.923 0.967 3.271 1.45 6.431 1.45 9.479v5.689zm-26.208-21.637c-1.785 0-3.384 0.334-4.796 1.004-1.339 0.595-2.528 1.412-3.569 2.453-0.967 0.967-1.784 2.082-2.453 3.346-0.67 1.265-1.115 2.565-1.339 3.903h24.202c-0.298-1.412-0.744-2.751-1.339-4.015s-1.375-2.379-2.342-3.346c-0.967-1.041-2.156-1.858-3.569-2.454-1.338-0.594-2.936-0.891-4.795-0.891z"/>
	<path d="M551.65,92.549v74.311h-14.543l-27.249-49.045v49.041h-13.795V92.549h14.543l27.282,49.046V92.549H551.65z"/>
	<path d="m503.16 79.821c1.219-2.724 3.047-4.945 5.483-6.666 2.438-1.792 5.018-2.688 7.741-2.688 1.792 0 3.298 0.251 4.516 0.753 1.219 0.431 2.33 0.932 3.333 1.506 1.004 0.501 2.007 1.003 3.011 1.505 1.004 0.43 2.15 0.646 3.44 0.646 1.219 0 2.401-0.395 3.548-1.184 1.219-0.859 2.33-2.007 3.333-3.44l6.989 5.914c-1.219 2.724-3.046 4.981-5.483 6.773-2.438 1.721-5.018 2.581-7.741 2.581-1.792 0-3.297-0.216-4.516-0.646-1.219-0.502-2.365-1.004-3.44-1.505-1.004-0.574-2.007-1.075-3.011-1.506-0.932-0.502-2.043-0.752-3.333-0.752-1.219 0-2.438 0.43-3.655 1.29-1.147 0.788-2.223 1.899-3.226 3.333l-6.989-5.914z"/>
</g>
</svg>
