<svg width="751.17" height="201.43" version="1.1" viewBox="0 0 198.75 53.295" xmlns="http://www.w3.org/2000/svg">
 <path d="m55.861 48.936c-1.3e-5 2.4151 1.9441 4.3596 4.3594 4.3596h134.17c2.4151 0 4.3594-1.9444 4.3594-4.3596v-32.587c0-2.4151-1.9443-4.3594-4.3594-4.3594h-138.53z" fill="#ff544d" stroke-width="1.2067"/>
 <path d="m43.338 11.333c-0.256-2.0861-1.624-11.582-7.772-11.328-5.305 0.28039-6.848 5.2566-8.49 9.1485-1.957 5.3265-2.636 6.4125-5.409 6.4125-2.998-0.13999-4.809-4.32-6.018-6.0776-0.98-1.4602-3.584-5.9643-7.2965-5.8241-2.0217 0-5.1816 1.029-7.1747 6.1398-1.8042 5.4929-1.1209 11.031-0.64861 13.407 1.5782 5.886 2.5041 9.353 5.2784 8.953 2.9818-0.208 1.3225-4.729 0.5501-7.098-0.4939-1.476-2.2276-6.391-0.24278-7.537 2.0842-1.3445 3.9734 3.7517 5.946 6.7679 1.7773 3.0918 2.951 6.6664 9.0006 6.781 3.7813 0 6.0011-2.1797 7.0981-4.2565 1.621-3.3486 3.5894-14.678 7.8652-14.786 3.1189 0.12404 2.2832 5.3284 2.2397 7.2172-0.12268 2.0956-1.5215 6.4443 1.9791 6.8715 4.0748 0.07031 3.6056-10.982 3.0939-14.792z" fill="#004e7e" stroke-width="1.2067"/>
 <g transform="matrix(.70833 0 0 .70833 -81.098 77.872)" fill="#fff" style="shape-inside:url(#rect2321-6);white-space:pre" aria-label="Amenábar">
  <path d="m221.45-56.201h-8.88l-2.04 6.6h-5.6l9.48-28h5.2l9.48 28h-5.6zm-7.4-4.8h5.92l-2.96-9.72z"/>
  <path d="m242.51-49.601v-13.44q0-1.52-0.68-2.16t-1.8-0.64q-1.84 0-3.12 2.16-1.24 2.16-1.24 6.68v7.4h-4.96v-20.16h4.96v3.24q1.12-1.68 2.48-2.6 1.36-0.96 3.32-0.96 1.88 0 3.4 1 1.56 0.96 2.24 3.16 1.08-1.96 2.68-3.04 1.6-1.12 3.48-1.12 2.84 0 4.4 1.64 1.6 1.64 1.6 4.56v14.28h-4.96v-13.44q0-1.52-0.68-2.16t-1.8-0.64q-1.8 0-3.08 2.08-1.28 2.04-1.28 6.32v7.84z"/>
  <path d="m281.01-58.081h-13.88q0.04 0.84 0.36 1.68 0.32 0.8 0.92 1.44t1.44 1.04q0.88 0.4 2.04 0.4 1.72 0 2.8-0.72 1.08-0.76 1.96-2.16l4 1.48q-0.6 1.24-1.4 2.28t-1.88 1.8q-1.08 0.72-2.52 1.16-1.4 0.4-3.24 0.4-2.6 0-4.44-0.96t-3-2.44q-1.16-1.52-1.72-3.36-0.52-1.84-0.52-3.64t0.52-3.64q0.56-1.84 1.72-3.32 1.16-1.52 3-2.48t4.44-0.96q2.52 0 4.28 0.96 1.8 0.92 2.92 2.4 1.16 1.44 1.68 3.2t0.52 3.4zm-9.4-7.76q-0.96 0-1.72 0.36-0.72 0.32-1.28 0.88-0.52 0.52-0.88 1.2t-0.48 1.4h8.68q-0.16-0.76-0.48-1.44t-0.84-1.2q-0.52-0.56-1.28-0.88-0.72-0.32-1.72-0.32z"/>
  <path d="m288.63-69.761v3.24q1.12-1.6 2.68-2.56 1.6-1 3.56-1 2.72 0 4.44 1.52 1.76 1.52 1.76 4.56v14.4h-4.96v-12.92q0-1.8-0.8-2.56t-2.08-0.76q-0.92 0-1.76 0.56-0.8 0.52-1.44 1.56t-1.04 2.56q-0.36 1.52-0.36 3.52v8.04h-4.96v-20.16z"/>
  <path d="m303.84-59.681q0-2.32 0.64-4.24t1.88-3.28 3-2.12q1.8-0.76 4.08-0.76 1.68 0 3.12 0.72 1.48 0.68 2.16 1.52v-1.92h4.96v20.16h-4.96v-2.08q-0.72 1-2.08 1.72-1.32 0.68-3.2 0.68-2.28 0-4.08-0.76-1.76-0.76-3-2.12t-1.88-3.28-0.64-4.24zm5.2 0q0 1.52 0.4 2.68 0.44 1.12 1.16 1.92 0.72 0.76 1.64 1.16t1.88 0.4 1.88-0.4 1.6-1.16q0.72-0.8 1.12-1.92 0.44-1.16 0.44-2.68 0-1.48-0.44-2.64-0.4-1.16-1.12-1.92-0.68-0.8-1.6-1.2t-1.88-0.4-1.88 0.4-1.64 1.2q-0.72 0.76-1.16 1.92-0.4 1.16-0.4 2.64zm4.84-18.24h6.72l-5.48 5.92h-3.8z"/>
  <path d="m346.62-59.681q0 2.32-0.6 4.24-0.56 1.92-1.72 3.28t-2.88 2.12-4 0.76q-0.92 0-1.72-0.24-0.8-0.2-1.44-0.56t-1.08-0.76q-0.44-0.44-0.64-0.84v2.08h-4.96v-28.32h4.96v10q0.68-0.84 2-1.48 1.36-0.68 2.88-0.68 2.28 0 4 0.76t2.88 2.12 1.72 3.28q0.6 1.92 0.6 4.24zm-5.2 0q0-3-1.36-4.56-1.36-1.6-3.32-1.6t-3.32 1.6q-1.32 1.56-1.32 4.56t1.32 4.6q1.36 1.56 3.32 1.56t3.32-1.56q1.36-1.6 1.36-4.6z"/>
  <path d="m348.48-59.681q0-2.32 0.64-4.24t1.88-3.28 3-2.12q1.8-0.76 4.08-0.76 1.68 0 3.12 0.72 1.48 0.68 2.16 1.52v-1.92h4.96v20.16h-4.96v-2.08q-0.72 1-2.08 1.72-1.32 0.68-3.2 0.68-2.28 0-4.08-0.76-1.76-0.76-3-2.12t-1.88-3.28-0.64-4.24zm5.2 0q0 1.52 0.4 2.68 0.44 1.12 1.16 1.92 0.72 0.76 1.64 1.16t1.88 0.4 1.88-0.4 1.6-1.16q0.72-0.8 1.12-1.92 0.44-1.16 0.44-2.68 0-1.48-0.44-2.64-0.4-1.16-1.12-1.92-0.68-0.8-1.6-1.2t-1.88-0.4-1.88 0.4-1.64 1.2q-0.72 0.76-1.16 1.92-0.4 1.16-0.4 2.64z"/>
  <path d="m372.02-49.601v-20.16h4.96v3.28q1.08-1.8 2.64-2.68 1.6-0.92 3.32-0.92 0.32 0 0.72 0.04 0.44 0.04 0.8 0.12v4.84q-0.92-0.56-2.08-0.56-1.08 0-2.08 0.48-0.96 0.48-1.72 1.52-0.72 1.04-1.16 2.76-0.44 1.68-0.44 4.12v7.16z"/>
 </g>
</svg>
