<!DOCTYPE svg  PUBLIC '-//W3C//DTD SVG 1.1//EN'  'http://www.w3.org/Graphics/SVG/1.1/DTD/svg11.dtd'>
<svg enable-background="new 0 0 600 251.04" version="1.1" viewBox="0 0 600 251.04" xml:space="preserve" xmlns="http://www.w3.org/2000/svg">
	<path d="m263.12 56.476v174.03c0 11.376 9.157 20.535 20.534 20.535h295.81c11.376 0 20.534-9.158 20.534-20.535v-153.49c0-11.376-9.158-20.534-20.534-20.534h-316.35z" fill="#01DA95"/>
	<path d="m263.12 56.476-0.041 1e-3h0.041v-1e-3z" fill="#ff0"/>
	<path d="m204.13 53.381c-1.206-9.827-7.65-54.552-36.604-53.358-24.988 1.32-32.258 24.76-39.99 43.093-9.217 25.088-12.413 30.206-25.475 30.206-14.123-0.661-22.656-20.35-28.35-28.628-4.617-6.879-16.881-28.094-34.368-27.434-9.522 0-24.406 4.847-33.794 28.92-8.499 25.874-5.28 51.96-3.056 63.154 7.434 27.726 11.795 44.053 24.862 42.171 14.045-0.982 6.229-22.272 2.592-33.437-2.327-6.947-10.493-30.099-1.145-35.497 9.818-6.333 18.716 17.672 28.008 31.879 8.372 14.563 13.9 31.4 42.395 31.94 17.812 0 28.267-10.267 33.435-20.05 7.635-15.772 16.906-69.137 37.047-69.644 14.69 0.584 10.754 25.099 10.55 33.995-0.578 9.871-7.167 30.354 9.322 32.367 19.193 0.331 16.983-51.729 14.573-69.674l-2e-3 -3e-3z" fill="#fff"/>
<g fill="#fff">
	<path d="m373.97 191.78c-1.799 2.789-4.587 5.353-8.364 7.691-3.688 2.338-8.545 3.508-14.571 3.508-5.666 0-11.153-0.99-16.46-2.969-5.216-2.07-9.848-5.086-13.896-9.044-4.047-4.046-7.284-9.083-9.714-15.11-2.338-6.027-3.507-13.087-3.507-21.18 0-8.096 1.214-15.156 3.643-21.182 2.519-6.026 5.847-11.019 9.983-14.976 4.228-4.047 9.04-7.061 14.437-9.04 5.396-2.068 11.018-3.103 16.864-3.103 5.217 0 9.984 0.765 14.301 2.294 4.317 1.439 8.096 3.508 11.334 6.206 3.327 2.608 6.115 5.756 8.364 9.444 2.249 3.599 4.003 7.556 5.262 11.873l-16.055 4.183c-2.249-5.396-5.262-9.715-9.04-12.953-3.688-3.237-8.409-4.856-14.166-4.856-3.777 0-7.33 0.675-10.658 2.024-3.238 1.259-6.116 3.193-8.635 5.801-2.429 2.608-4.362 5.937-5.801 9.984-1.35 4.047-2.024 8.814-2.024 14.301 0 5.666 0.675 10.523 2.024 14.57 1.438 4.048 3.372 7.376 5.801 9.984 2.429 2.607 5.262 4.542 8.5 5.801 3.238 1.17 6.701 1.754 10.389 1.754 3.508 0 6.521-0.539 9.039-1.619 2.519-1.078 4.632-2.473 6.341-4.182s3.014-3.598 3.913-5.666c0.989-2.159 1.619-4.318 1.889-6.477h-17.539v-14.571h34.538v47.625h-14.705l-1.487-10.115z"/>
	<path d="m399.53 167.89c0-4.946 0.765-9.534 2.294-13.761 1.528-4.318 3.777-8.051 6.745-11.199 2.969-3.147 6.566-5.621 10.794-7.42 4.317-1.799 9.219-2.698 14.705-2.698 5.487 0 10.344 0.899 14.571 2.698 4.317 1.799 7.96 4.272 10.929 7.42 2.968 3.148 5.217 6.881 6.745 11.199 1.529 4.227 2.294 8.814 2.294 13.761s-0.765 9.579-2.294 13.896c-1.528 4.228-3.777 7.915-6.745 11.063-2.969 3.147-6.611 5.621-10.929 7.42-4.228 1.799-9.084 2.699-14.571 2.699-5.486 0-10.388-0.9-14.705-2.699-4.228-1.799-7.825-4.271-10.794-7.42-2.968-3.148-5.217-6.836-6.745-11.063-1.529-4.317-2.294-8.95-2.294-13.896zm17.54 0c0 2.788 0.36 5.442 1.079 7.96 0.81 2.52 1.935 4.723 3.373 6.611 1.439 1.889 3.193 3.418 5.262 4.588 2.159 1.078 4.588 1.618 7.286 1.618s5.082-0.54 7.15-1.618c2.159-1.17 3.958-2.699 5.396-4.588 1.439-1.889 2.519-4.092 3.238-6.611 0.81-2.518 1.214-5.172 1.214-7.96s-0.404-5.441-1.214-7.96c-0.72-2.519-1.799-4.723-3.238-6.611-1.438-1.889-3.237-3.373-5.396-4.452-2.068-1.169-4.452-1.754-7.15-1.754s-5.127 0.585-7.286 1.754c-2.068 1.079-3.822 2.563-5.262 4.452-1.438 1.889-2.563 4.093-3.373 6.611-0.72 2.519-1.079 5.172-1.079 7.96z"/>
	<path d="m494.51 106.21v95.522h-16.729v-95.522h16.729z"/>
	<path d="m502.78 133.73h8.635v-3.508c0-8.275 2.159-14.346 6.477-18.214s9.983-5.801 16.999-5.801c1.799 0 3.418 0.09 4.857 0.27 1.528 0.09 2.923 0.36 4.182 0.81v15.111c-1.438-0.63-2.788-1.08-4.047-1.35-1.259-0.359-2.608-0.54-4.048-0.54-2.338 0-4.227 0.675-5.666 2.024-1.35 1.259-2.023 3.418-2.023 6.477v4.722h14.301v14.301h-14.301v53.698h-16.73v-53.694h-8.634l-2e-3 -14.306z"/>
</g>
</svg>
