<!DOCTYPE svg  PUBLIC '-//W3C//DTD SVG 1.1//EN'  'http://www.w3.org/Graphics/SVG/1.1/DTD/svg11.dtd'>
<svg enable-background="new 0 0 600 153.26" version="1.1" viewBox="0 0 600 153.26" xml:space="preserve" xmlns="http://www.w3.org/2000/svg">
	<path d="m160.64 34.478-0.024 1e-3 0.024-1e-3z" fill="#ff0"/>
	<path d="m160.64 34.479v106.24c0 6.944 5.591 12.536 12.536 12.536h414.3c6.944 0 12.535-5.591 12.535-12.536v-93.707c0-6.945-5.591-12.536-12.535-12.536h-426.84z" fill="#01DA95"/>
	<path d="m124.62 32.589c-0.737-5.998-4.672-33.305-22.348-32.575-15.257 0.807-19.694 15.116-24.414 26.309-5.628 15.315-7.578 18.44-15.553 18.44-8.62-0.404-13.832-12.424-17.306-17.478-2.819-4.199-10.307-17.151-20.982-16.748-5.813 0-14.9 2.959-20.632 17.655-5.189 15.797-3.224 31.723-1.865 38.554 4.538 16.925 7.201 26.895 15.179 25.745 8.575-0.601 3.803-13.598 1.582-20.412-1.42-4.244-6.406-18.376-0.698-21.671 5.993-3.866 11.426 10.788 17.099 19.462 5.111 8.891 8.486 19.17 25.883 19.5 10.873 0 17.257-6.268 20.411-12.24 4.662-9.63 10.322-42.209 22.618-42.519 8.969 0.356 6.565 15.322 6.44 20.754-0.353 6.026-4.375 18.531 5.691 19.76 11.718 0.202 10.368-31.58 8.895-42.536z" fill="#fff"/>
<g fill="#fff">
	<path d="m190.14 123v-57.549h18.006c3.397 0 6.687 0.548 9.865 1.645 3.234 1.096 6.111 2.822 8.633 5.18 2.521 2.356 4.521 5.344 6.002 8.961 1.534 3.618 2.302 7.948 2.302 12.99 0 5.043-0.768 9.373-2.302 12.99-1.48 3.618-3.48 6.604-6.002 8.962-2.521 2.356-5.399 4.083-8.633 5.18-3.179 1.096-6.468 1.644-9.865 1.644l-18.006-3e-3zm14.635-9.865c2.302 0 4.604-0.274 6.906-0.822s4.357-1.507 6.166-2.878c1.863-1.425 3.37-3.343 4.521-5.755 1.151-2.466 1.727-5.618 1.727-9.454 0-3.837-0.575-6.961-1.727-9.373-1.151-2.467-2.658-4.385-4.521-5.755-1.809-1.425-3.864-2.412-6.166-2.96-2.303-0.548-4.604-0.822-6.906-0.822h-3.946v37.82l3.946-1e-3z"/>
	<path d="m278.5 104.92h-28.527c0.055 1.151 0.302 2.302 0.74 3.453 0.438 1.096 1.068 2.083 1.891 2.96s1.809 1.589 2.96 2.138c1.206 0.548 2.604 0.821 4.192 0.821 2.357 0 4.275-0.493 5.755-1.479 1.48-1.041 2.823-2.521 4.029-4.439l8.222 3.042c-0.822 1.699-1.781 3.261-2.878 4.687-1.097 1.425-2.384 2.658-3.864 3.699-1.479 0.987-3.206 1.781-5.18 2.385-1.918 0.548-4.138 0.822-6.659 0.822-3.563 0-6.604-0.658-9.126-1.974s-4.576-2.987-6.166-5.016c-1.589-2.082-2.768-4.385-3.535-6.905-0.713-2.521-1.068-5.016-1.068-7.482s0.355-4.96 1.068-7.481c0.768-2.521 1.946-4.796 3.535-6.823 1.59-2.083 3.646-3.782 6.166-5.098 2.521-1.315 5.563-1.974 9.126-1.974 3.453 0 6.386 0.658 8.797 1.974 2.467 1.261 4.467 2.905 6.002 4.933 1.59 1.974 2.74 4.166 3.453 6.577 0.712 2.412 1.068 4.741 1.068 6.989l-1e-3 4.191zm-19.321-15.95c-1.315 0-2.493 0.247-3.535 0.74-0.986 0.438-1.863 1.041-2.631 1.809-0.713 0.713-1.315 1.535-1.809 2.467s-0.822 1.891-0.986 2.877h17.841c-0.22-1.041-0.549-2.027-0.987-2.959-0.438-0.933-1.014-1.754-1.727-2.467-0.712-0.768-1.589-1.37-2.631-1.809-0.986-0.438-2.165-0.658-3.535-0.658z"/>
	<path d="m322.9 101.63c0 3.179-0.411 6.084-1.233 8.715-0.768 2.631-1.946 4.878-3.535 6.742-1.59 1.863-3.563 3.315-5.92 4.356-2.357 1.042-5.098 1.563-8.222 1.563-2.083 0-4.057-0.438-5.92-1.315-1.809-0.932-3.179-1.974-4.11-3.124v20.554h-10.195v-58.21h10.195v4.274c0.273-0.548 0.712-1.096 1.315-1.644 0.603-0.604 1.343-1.151 2.22-1.645s1.863-0.877 2.959-1.151c1.097-0.329 2.275-0.493 3.536-0.493 3.124 0 5.864 0.521 8.222 1.563 2.356 1.041 4.33 2.493 5.919 4.357 1.59 1.863 2.769 4.11 3.535 6.741 0.822 2.631 1.233 5.536 1.233 8.715l1e-3 2e-3zm-10.689 0c0-4.11-0.932-7.235-2.796-9.373-1.863-2.192-4.138-3.288-6.823-3.288s-4.96 1.096-6.823 3.288c-1.809 2.138-2.714 5.263-2.714 9.373s0.905 7.263 2.714 9.455c1.863 2.138 4.138 3.206 6.823 3.206s4.96-1.068 6.823-3.206c1.865-2.192 2.796-5.345 2.796-9.455z"/>
	<path d="m327.44 101.63c0-3.015 0.466-5.81 1.398-8.386 0.932-2.632 2.302-4.906 4.11-6.824s4.001-3.426 6.577-4.521c2.631-1.097 5.618-1.645 8.962-1.645 3.343 0 6.303 0.548 8.879 1.645 2.631 1.096 4.851 2.604 6.659 4.521 1.81 1.918 3.18 4.193 4.111 6.824 0.932 2.575 1.397 5.371 1.397 8.386s-0.466 5.837-1.397 8.468c-0.932 2.576-2.302 4.823-4.111 6.742-1.809 1.918-4.028 3.426-6.659 4.521-2.576 1.097-5.536 1.645-8.879 1.645-3.344 0-6.331-0.548-8.962-1.645-2.576-1.097-4.769-2.604-6.577-4.521-1.809-1.919-3.179-4.166-4.11-6.742-0.933-2.631-1.398-5.453-1.398-8.468zm10.688 0c0 1.699 0.22 3.316 0.658 4.851 0.493 1.535 1.178 2.878 2.055 4.028 0.877 1.151 1.946 2.083 3.207 2.796 1.315 0.657 2.795 0.986 4.439 0.986s3.097-0.329 4.357-0.986c1.315-0.713 2.411-1.645 3.288-2.796 0.877-1.15 1.535-2.493 1.974-4.028 0.493-1.534 0.739-3.151 0.739-4.851s-0.246-3.316-0.739-4.851c-0.438-1.535-1.097-2.878-1.974-4.029-0.877-1.15-1.973-2.055-3.288-2.713-1.261-0.712-2.713-1.068-4.357-1.068s-3.124 0.356-4.439 1.068c-1.261 0.658-2.33 1.563-3.207 2.713-0.877 1.151-1.562 2.494-2.055 4.029-0.438 1.535-0.658 3.152-0.658 4.851z"/>
	<path d="m375.32 123v-41.437h10.194v6.742c1.48-2.467 3.289-4.303 5.427-5.509 2.192-1.261 4.467-1.891 6.824-1.891 0.438 0 0.932 0.027 1.479 0.082 0.603 0.055 1.151 0.137 1.645 0.247v9.948c-1.261-0.768-2.686-1.151-4.275-1.151-1.48 0-2.905 0.329-4.275 0.986-1.315 0.658-2.494 1.699-3.535 3.124-0.986 1.426-1.781 3.316-2.385 5.673-0.603 2.303-0.904 5.125-0.904 8.469v14.717h-10.195z"/>
	<path d="m429.8 122.1c-0.713 0.22-1.563 0.411-2.549 0.576-0.932 0.219-2.138 0.329-3.618 0.329-4.33 0-7.837-1.261-10.523-3.782-2.631-2.521-3.946-6.358-3.946-11.511v-18.087h-6.413v-8.715h6.413v-10.359l10.194-6.413v16.772h10.936v8.715h-10.936v17.923c0 2.576 0.467 4.357 1.398 5.344 0.932 0.932 2.274 1.397 4.028 1.397 0.932 0 1.781-0.109 2.549-0.328 0.767-0.22 1.589-0.549 2.466-0.987l1e-3 9.126z"/>
	<path d="m471.98 104.92h-28.529c0.055 1.151 0.302 2.302 0.74 3.453 0.438 1.096 1.069 2.083 1.892 2.96 0.821 0.877 1.809 1.589 2.959 2.138 1.206 0.548 2.604 0.821 4.193 0.821 2.356 0 4.275-0.493 5.755-1.479 1.48-1.041 2.823-2.521 4.028-4.439l8.222 3.042c-0.821 1.699-1.781 3.261-2.877 4.687-1.097 1.425-2.385 2.658-3.864 3.699-1.479 0.987-3.206 1.781-5.18 2.385-1.918 0.548-4.138 0.822-6.659 0.822-3.563 0-6.604-0.658-9.126-1.974s-4.577-2.987-6.166-5.016c-1.59-2.082-2.768-4.385-3.535-6.905-0.713-2.521-1.069-5.016-1.069-7.482s0.356-4.96 1.069-7.481c0.768-2.521 1.945-4.796 3.535-6.823 1.59-2.083 3.645-3.782 6.166-5.098s5.563-1.974 9.126-1.974c3.453 0 6.386 0.658 8.797 1.974 2.467 1.261 4.467 2.905 6.002 4.933 1.589 1.974 2.74 4.166 3.453 6.577 0.712 2.412 1.068 4.741 1.068 6.989v4.191zm-19.321-15.95c-1.315 0-2.494 0.247-3.536 0.74-0.986 0.438-1.863 1.041-2.631 1.809-0.712 0.713-1.315 1.535-1.809 2.467s-0.822 1.891-0.986 2.877h17.841c-0.22-1.041-0.548-2.027-0.986-2.959-0.438-0.933-1.015-1.754-1.727-2.467-0.713-0.768-1.59-1.37-2.631-1.809-0.987-0.438-2.165-0.658-3.535-0.658z"/>
	<path d="m490.24 80.256c2.795 0 5.344 0.63 7.646 1.891 2.303 1.206 4.084 2.822 5.345 4.851l-6.084 5.591c-0.933-1.261-2.028-2.165-3.289-2.713-1.261-0.604-2.467-0.904-3.617-0.904-0.987 0-1.864 0.301-2.631 0.904-0.768 0.548-1.151 1.397-1.151 2.548 0 0.933 0.329 1.727 0.986 2.385 0.713 0.657 1.699 1.206 2.96 1.645 1.425 0.493 2.987 1.041 4.687 1.644 1.754 0.549 3.398 1.288 4.933 2.221 1.535 0.877 2.796 2.027 3.782 3.452 1.042 1.426 1.563 3.234 1.563 5.427 0 1.863-0.356 3.645-1.069 5.344-0.657 1.645-1.644 3.097-2.959 4.357-1.261 1.261-2.796 2.274-4.604 3.042-1.809 0.713-3.837 1.068-6.084 1.068-2.138 0-4.111-0.328-5.92-0.986-1.809-0.712-3.398-1.589-4.769-2.631-1.37-1.096-2.549-2.302-3.535-3.617-0.986-1.37-1.727-2.686-2.22-3.946l8.14-4.357c0.767 2.027 1.836 3.672 3.206 4.933s3.069 1.891 5.098 1.891c1.589 0 2.822-0.355 3.699-1.068 0.932-0.713 1.397-1.836 1.397-3.371 0-0.877-0.301-1.589-0.904-2.138-0.603-0.548-1.397-1.041-2.384-1.479-0.986-0.493-2.11-0.932-3.371-1.315-1.206-0.384-2.439-0.85-3.699-1.397-1.151-0.493-2.248-1.042-3.289-1.645-0.986-0.603-1.863-1.343-2.631-2.22s-1.37-1.919-1.809-3.124c-0.438-1.206-0.658-2.604-0.658-4.193s0.302-3.097 0.904-4.521c0.658-1.479 1.563-2.768 2.714-3.864 1.15-1.15 2.521-2.056 4.11-2.713 1.642-0.664 3.478-0.992 5.507-0.992z"/>
	<path d="m528.98 118.9 20.555-26.556c1.754-2.192 2.932-4.057 3.535-5.591 0.603-1.59 0.904-3.206 0.904-4.851 0-2.357-0.604-4.193-1.809-5.509-1.151-1.37-2.905-2.056-5.262-2.056-2.083 0-3.782 0.658-5.098 1.974-1.261 1.261-2.056 3.124-2.384 5.59l-9.537-1.809c0.164-2.192 0.685-4.22 1.562-6.084 0.932-1.863 2.138-3.48 3.618-4.851 1.534-1.37 3.315-2.439 5.344-3.206 2.083-0.768 4.33-1.151 6.741-1.151 2.741 0 5.18 0.411 7.317 1.233s3.919 1.973 5.344 3.453c1.48 1.479 2.604 3.261 3.371 5.344 0.768 2.028 1.151 4.248 1.151 6.659 0 2.302-0.384 4.577-1.151 6.824s-2.028 4.521-3.782 6.823l-14.059 18.334h20.225v9.537h-36.586v-4.107z"/>
</g>
</svg>
