<!DOCTYPE svg  PUBLIC '-//W3C//DTD SVG 1.1//EN'  'http://www.w3.org/Graphics/SVG/1.1/DTD/svg11.dtd'>
<svg enable-background="new 0 0 600 169.09" version="1.1" viewBox="0 0 600 169.09" xml:space="preserve" xmlns="http://www.w3.org/2000/svg">
	<path d="m177.24 38.042v117.21c0 7.663 6.169 13.833 13.833 13.832h395.11c7.663 0 13.833-6.169 13.833-13.832v-103.38c0-7.663-6.171-13.833-13.833-13.833h-408.94z" fill="#01DA95"/>
	<path d="m177.24 38.042h-0.028 0.028z" fill="#ff0"/>
	<path d="m137.5 35.956c-0.813-6.617-5.151-36.746-24.657-35.939-16.835 0.887-21.732 16.676-26.941 29.025-6.205 16.902-8.359 20.349-17.158 20.349-9.514-0.446-15.262-13.71-19.099-19.286-3.11-4.633-11.364-18.925-23.148-18.48-6.415 0-16.44 3.265-22.765 19.481-5.725 17.431-3.557 35.001-2.059 42.542 5.009 18.671 7.946 29.67 16.748 28.407 9.462-0.665 4.196-15.009 1.746-22.526-1.567-4.683-7.068-20.277-0.771-23.913 6.613-4.266 12.607 11.903 18.866 21.474 5.64 9.81 9.363 21.151 28.559 21.516 11.997 0 19.041-6.916 22.521-13.505 5.144-10.625 11.389-46.576 24.955-46.916 9.896 0.394 7.245 16.907 7.107 22.9-0.39 6.649-4.828 20.447 6.279 21.803 12.929 0.223 11.44-34.845 9.816-46.934l1e-3 2e-3z" fill="#fff"/>
<g fill="#fff">
		<path d="m210.08 72.677h13.269l14.993 39.724 14.996-39.724h13.269v63.617h-11.814v-39.258l-12.178 33.444h-8.546l-12.178-33.444v39.262h-11.814l3e-3 -63.621z"/>
		<path d="m274.17 112.66c0-3.332 0.515-6.422 1.545-9.27 1.029-2.908 2.545-5.423 4.544-7.543 1.999-2.121 4.423-3.787 7.271-4.999 2.908-1.212 6.211-1.817 9.906-1.817 3.696 0 6.968 0.605 9.815 1.817 2.908 1.212 5.362 2.878 7.361 4.999 2 2.12 3.515 4.635 4.544 7.543 1.03 2.848 1.546 5.938 1.546 9.27 0 3.333-0.516 6.453-1.546 9.361-1.029 2.848-2.544 5.332-4.544 7.453-1.999 2.12-4.453 3.787-7.361 4.998-2.848 1.212-6.119 1.818-9.815 1.818-3.695 0-6.998-0.606-9.906-1.818-2.847-1.209-5.271-2.875-7.271-4.996-1.998-2.121-3.513-4.605-4.543-7.453-1.031-2.924-1.546-6.047-1.546-9.373v0.01zm11.815 0c0 1.879 0.242 3.666 0.727 5.363 0.546 1.695 1.303 3.18 2.272 4.453 0.969 1.271 2.15 2.303 3.544 3.09 1.454 0.727 3.09 1.09 4.908 1.09 1.817 0 3.423-0.363 4.816-1.09 1.454-0.787 2.666-1.818 3.636-3.09 0.969-1.272 1.696-2.758 2.181-4.453 0.545-1.697 0.818-3.484 0.818-5.363 0-1.878-0.273-3.666-0.818-5.361-0.484-1.697-1.212-3.182-2.181-4.454-0.97-1.272-2.182-2.272-3.636-2.999-1.394-0.787-2.999-1.182-4.816-1.182-1.818 0-3.454 0.395-4.908 1.182-1.394 0.727-2.575 1.727-3.544 2.999-0.97 1.272-1.727 2.757-2.272 4.454-0.483 1.688-0.726 3.477-0.726 5.366l-1e-3 -5e-3z"/>
		<path d="m352.24 135.3c-0.787 0.243-1.727 0.454-2.817 0.636-1.03 0.243-2.363 0.364-3.999 0.364-4.786 0-8.664-1.394-11.632-4.181-2.908-2.787-4.362-7.028-4.362-12.723v-19.994h-7.09v-9.635h7.09v-11.45l11.269-7.089v18.54h12.088v9.634h-12.088v19.813c0 2.848 0.516 4.816 1.546 5.906 1.029 1.031 2.514 1.545 4.453 1.545 1.029 0 1.969-0.121 2.817-0.363s1.757-0.605 2.727-1.09l-2e-3 10.087z"/>
		<path d="m354.5 112.66c0-3.332 0.516-6.422 1.545-9.27 1.03-2.908 2.545-5.423 4.544-7.543 2-2.121 4.423-3.787 7.271-4.999 2.908-1.212 6.21-1.817 9.906-1.817 3.695 0 6.968 0.605 9.815 1.817 2.908 1.212 5.362 2.878 7.361 4.999 1.999 2.12 3.514 4.635 4.544 7.543 1.03 2.848 1.545 5.938 1.545 9.27 0 3.333-0.515 6.453-1.545 9.361-1.03 2.848-2.545 5.332-4.544 7.453-1.999 2.12-4.453 3.787-7.361 4.998-2.848 1.212-6.12 1.818-9.815 1.818-3.696 0-6.998-0.606-9.906-1.818-2.848-1.209-5.271-2.875-7.272-4.996-1.998-2.121-3.513-4.605-4.543-7.453-1.033-2.924-1.55-6.047-1.55-9.373l5e-3 0.01zm11.815 0c0 1.879 0.242 3.666 0.728 5.363 0.545 1.695 1.303 3.18 2.271 4.453 0.97 1.271 2.151 2.303 3.545 3.09 1.454 0.727 3.09 1.09 4.907 1.09s3.424-0.363 4.817-1.09c1.454-0.787 2.666-1.818 3.635-3.09 0.97-1.272 1.697-2.758 2.182-4.453 0.545-1.697 0.817-3.484 0.817-5.363 0-1.878-0.272-3.666-0.817-5.361-0.484-1.697-1.212-3.182-2.182-4.454-0.969-1.272-2.181-2.272-3.635-2.999-1.394-0.787-2.999-1.182-4.817-1.182-1.817 0-3.453 0.395-4.907 1.182-1.394 0.727-2.575 1.727-3.545 2.999-0.969 1.272-1.727 2.757-2.271 4.454-0.486 1.695-0.728 3.483-0.728 5.361z"/>
		<path d="m450.41 128.76c-1.212 1.878-3.091 3.605-5.635 5.18-2.484 1.576-5.756 2.363-9.815 2.363-3.817 0-7.513-0.666-11.088-1.999-3.514-1.394-6.635-3.423-9.361-6.089-2.727-2.727-4.907-6.12-6.544-10.18-1.575-4.059-2.362-8.815-2.362-14.268s0.817-10.21 2.453-14.27c1.697-4.059 3.938-7.422 6.726-10.087 2.849-2.727 6.09-4.756 9.726-6.089 3.635-1.394 7.422-2.09 11.359-2.09 3.515 0 6.726 0.515 9.635 1.545 2.908 0.969 5.452 2.363 7.634 4.18 2.242 1.757 4.12 3.878 5.635 6.362 1.515 2.423 2.696 5.089 3.544 7.998l-10.814 2.818c-1.515-3.637-3.545-6.545-6.089-8.725-2.484-2.182-5.665-3.272-9.543-3.272-2.545 0-4.938 0.455-7.18 1.363-2.182 0.848-4.12 2.151-5.816 3.908-1.636 1.757-2.938 3.999-3.908 6.726-0.909 2.727-1.363 5.938-1.363 9.633 0 3.818 0.454 7.09 1.363 9.816 0.97 2.727 2.272 4.969 3.908 6.726s3.544 3.06 5.726 3.907c2.181 0.788 4.514 1.182 6.998 1.182 2.362 0 4.393-0.363 6.089-1.09s3.12-1.666 4.271-2.818c1.151-1.15 2.029-2.423 2.636-3.816 0.666-1.454 1.091-2.908 1.272-4.363h-11.814v-9.814h23.266v32.081h-9.906l-1.003-6.818z"/>
		<path d="m482.76 111.41v24.901h-11.815v-63.62h23.993c3.333 0 6.241 0.485 8.725 1.454 2.545 0.969 4.636 2.333 6.271 4.09 1.636 1.696 2.848 3.726 3.635 6.089 0.849 2.363 1.272 4.938 1.272 7.725s-0.424 5.361-1.272 7.725c-0.787 2.363-1.999 4.423-3.635 6.18-1.636 1.697-3.727 3.029-6.271 4-2.483 0.969-5.393 1.453-8.725 1.453l-12.178 3e-3zm11.724-10.905c2.604 0 4.635-0.667 6.089-2 1.515-1.393 2.271-3.545 2.271-6.453s-0.757-5.028-2.271-6.361c-1.454-1.394-3.484-2.09-6.089-2.09h-11.717v16.904h11.717z"/>
	<path d="m532.35 71.233h15.856v3.386h-5.925v19.186h-4.007v-19.186h-5.925v-3.386zm24.151 0 5.925 14.84 5.925-14.84h4.175v22.572h-4.006v-14.277l-4.909 12.189h-2.37l-4.909-12.189v14.277h-4.006v-22.572h4.175z"/>
</g>
</svg>
