<!DOCTYPE svg  PUBLIC '-//W3C//DTD SVG 1.1//EN'  'http://www.w3.org/Graphics/SVG/1.1/DTD/svg11.dtd'>
<svg enable-background="new 0 0 600 151.859" version="1.1" viewBox="0 0 600 151.86" xml:space="preserve" xmlns="http://www.w3.org/2000/svg">
<path d="m159.17 34.163v105.28c0 6.882 5.539 12.421 12.421 12.421h416c6.882 0 12.423-5.539 12.423-12.421v-92.852c0-6.882-5.541-12.421-12.423-12.421h-428.39l-0.025-2e-3z" fill="#01DA95"/>
<path d="m159.17 34.163-0.025 1e-3 0.025-1e-3z" fill="#ff0"/>
<path d="m123.49 32.291c-0.729-5.943-4.628-32.999-22.144-32.277-15.118 0.8-19.514 14.979-24.191 26.068-5.576 15.175-7.512 18.271-15.413 18.271-8.543-0.397-13.705-12.31-17.146-17.317-2.795-4.16-10.213-16.994-20.791-16.595-5.761 0-14.764 2.932-20.443 17.494-5.142 15.652-3.195 31.432-1.849 38.203 4.497 16.771 7.135 26.648 15.04 25.511 8.496-0.595 3.769-13.475 1.567-20.228-1.407-4.203-6.347-18.208-0.691-21.473 5.938-3.831 11.321 10.689 16.942 19.284 5.063 8.81 8.408 18.995 25.646 19.321 10.774 0 17.1-6.21 20.226-12.128 4.618-9.542 10.227-41.823 22.41-42.129 8.887 0.354 6.506 15.183 6.382 20.563-0.35 5.972-4.335 18.362 5.64 19.58 11.609 0.202 10.273-31.289 8.815-42.148z" fill="#fff"/>
<g fill="#fff">
	<path d="m188.72 66.888h11.571l13.077 34.634 13.076-34.634h11.571v55.478h-10.303v-34.238l-10.62 29.165h-7.45l-10.62-29.165v34.237h-10.304l2e-3 -55.477z"/>
	<path d="m272.04 122.36v-6.42c-1.479 2.113-3.276 3.831-5.39 5.151-2.061 1.269-4.386 1.902-6.975 1.902-3.593 0-6.552-1.004-8.876-3.012-2.271-2.008-3.408-5.02-3.408-9.035v-28.53h9.828v25.599c0 2.378 0.528 4.068 1.585 5.072s2.431 1.506 4.121 1.506c1.162 0 2.298-0.343 3.408-1.03 1.109-0.739 2.087-1.796 2.932-3.17 0.846-1.374 1.506-3.064 1.981-5.072 0.528-2.008 0.793-4.332 0.793-6.975v-15.93h9.827v39.944h-9.826z"/>
	<path d="m299.98 66.253v56.112h-9.827v-56.112h9.827z"/>
	<path d="m332.57 122.13c-0.687 0.212-1.506 0.396-2.457 0.555-0.898 0.212-2.061 0.317-3.487 0.317-4.174 0-7.556-1.215-10.145-3.646-2.536-2.431-3.804-6.129-3.804-11.096v-17.434h-6.181v-8.401h6.182v-9.985l9.827-6.183v16.168h10.541v8.401h-10.541v17.276c0 2.483 0.449 4.201 1.348 5.151 0.897 0.898 2.192 1.348 3.883 1.348 0.898 0 1.718-0.105 2.457-0.317 0.739-0.211 1.532-0.528 2.378-0.95v8.796z"/>
	<path d="m338.78 70.932c0-1.797 0.581-3.303 1.743-4.518 1.216-1.215 2.748-1.823 4.597-1.823 1.85 0 3.355 0.608 4.518 1.823 1.215 1.215 1.823 2.721 1.823 4.518 0 1.796-0.608 3.302-1.823 4.518-1.162 1.215-2.668 1.822-4.518 1.822s-3.382-0.607-4.597-1.822c-1.162-1.216-1.743-2.722-1.743-4.518zm11.254 11.491v39.944h-9.828v-39.948l9.828 4e-3z"/>
	<path d="m356.74 82.421h5.072v-2.061c0-4.861 1.268-8.428 3.804-10.699s5.865-3.408 9.986-3.408c1.057 0 2.008 0.053 2.853 0.159 0.898 0.053 1.718 0.211 2.457 0.476v8.876c-0.845-0.37-1.638-0.634-2.377-0.793-0.74-0.211-1.532-0.316-2.378-0.316-1.374 0-2.483 0.396-3.329 1.188-0.792 0.74-1.188 2.008-1.188 3.805v2.773h8.401v8.401h-8.401v31.543h-9.827v-31.542h-5.072v-8.402z"/>
	<path d="m411.13 122.36v-6.42c-1.479 2.113-3.276 3.831-5.39 5.151-2.061 1.269-4.386 1.902-6.975 1.902-3.593 0-6.552-1.004-8.876-3.012-2.272-2.008-3.408-5.02-3.408-9.035v-28.53h9.828v25.599c0 2.378 0.528 4.068 1.585 5.072s2.431 1.506 4.121 1.506c1.162 0 2.298-0.343 3.407-1.03 1.11-0.739 2.088-1.796 2.933-3.17 0.846-1.374 1.506-3.064 1.981-5.072 0.528-2.008 0.793-4.332 0.793-6.975v-15.93h9.827v39.944h-9.826zm-7.846-56.112h13.314l-10.857 11.729h-7.529l5.072-11.729z"/>
	<path d="m453.12 122.13c-0.688 0.212-1.506 0.396-2.457 0.555-0.898 0.212-2.061 0.317-3.487 0.317-4.174 0-7.556-1.215-10.145-3.646-2.536-2.431-3.805-6.129-3.805-11.096v-17.434h-6.182v-8.401h6.182v-9.985l9.828-6.183v16.168h10.541v8.401h-10.541v17.276c0 2.483 0.449 4.201 1.347 5.151 0.898 0.898 2.193 1.348 3.884 1.348 0.898 0 1.717-0.105 2.457-0.317 0.739-0.211 1.532-0.528 2.377-0.95l1e-3 8.796z"/>
	<path d="m499.04 102.4c0 3.065-0.396 5.865-1.189 8.401-0.739 2.536-1.875 4.702-3.407 6.499-1.532 1.796-3.435 3.196-5.707 4.2-2.271 1.004-4.913 1.506-7.925 1.506-1.216 0-2.352-0.159-3.408-0.476-1.057-0.265-2.008-0.634-2.853-1.109-0.846-0.476-1.559-0.978-2.141-1.506-0.581-0.581-1.004-1.137-1.268-1.665v4.121h-9.828v-56.112h9.828v19.813c0.898-1.109 2.219-2.087 3.963-2.933 1.796-0.898 3.698-1.347 5.706-1.347 3.012 0 5.653 0.502 7.925 1.505 2.272 1.004 4.174 2.404 5.706 4.201 1.532 1.796 2.669 3.962 3.408 6.498 0.794 2.538 1.189 5.338 1.19 8.404zm-10.303 0c0-3.962-0.898-6.974-2.694-9.034-1.797-2.114-3.989-3.171-6.578-3.171s-4.781 1.057-6.578 3.171c-1.743 2.061-2.615 5.072-2.615 9.034 0 3.963 0.872 7.001 2.615 9.114 1.797 2.061 3.989 3.091 6.578 3.091s4.781-1.03 6.578-3.091c1.795-2.113 2.694-5.151 2.694-9.114z"/>
	<path d="m505.09 102.4c0-2.905 0.449-5.6 1.347-8.083 0.898-2.536 2.22-4.729 3.963-6.578 1.744-1.85 3.857-3.303 6.341-4.359 2.536-1.057 5.415-1.585 8.639-1.585 3.223 0 6.076 0.528 8.56 1.585 2.536 1.057 4.676 2.51 6.419 4.359 1.744 1.849 3.064 4.042 3.963 6.578 0.898 2.483 1.348 5.178 1.348 8.083 0 2.906-0.449 5.627-1.348 8.164-0.898 2.482-2.219 4.649-3.963 6.498-1.743 1.85-3.883 3.303-6.419 4.359-2.483 1.057-5.337 1.585-8.56 1.585-3.224 0-6.104-0.528-8.639-1.585-2.483-1.058-4.597-2.51-6.341-4.359-1.743-1.849-3.064-4.016-3.963-6.498-0.898-2.537-1.347-5.258-1.347-8.164zm10.303 0c0 1.639 0.212 3.197 0.634 4.677 0.476 1.479 1.137 2.773 1.981 3.883 0.846 1.109 1.876 2.008 3.091 2.694 1.269 0.635 2.695 0.951 4.28 0.951s2.985-0.316 4.2-0.951c1.269-0.687 2.325-1.585 3.17-2.694 0.846-1.109 1.479-2.404 1.902-3.883 0.476-1.479 0.713-3.038 0.713-4.677 0-1.638-0.237-3.196-0.713-4.676-0.423-1.479-1.057-2.773-1.902-3.883-0.845-1.109-1.901-1.981-3.17-2.615-1.215-0.688-2.615-1.03-4.2-1.03s-3.012 0.343-4.28 1.03c-1.215 0.634-2.245 1.506-3.091 2.615-0.845 1.109-1.506 2.404-1.981 3.883-0.422 1.479-0.634 3.038-0.634 4.676z"/>
	<path d="m563.06 66.253v56.112h-9.827v-56.112h9.827z"/>
</g>
</svg>
