<svg id="a" version="1.1" viewBox="0 0 571.39 540.84" xmlns="http://www.w3.org/2000/svg">
 <path id="b" d="m403.17 353.1c-1.0204-8.8261-2.2958-21.53-2.2958-32.702 0-6.9385 0.91832-34.845 0.91832-57.345 0-18.979-4.0814-52.702-4.0814-71.017 0-11.02 0.81628-25.968-0.40816-31.223 8.7751-5.7141 16.479-9.3363 40.661-24.03 7.8567-4.7447 22.856-12.755 22.856-22.398 0-4.2855-1.1735-7.0915-7.2446-12.092-4.2855-3.4181-8.8261-4.3875-13.979-4.3875-12.347 0-17.959 12.347-28.264 18.673-15.816 9.6424-24.183 14.438-27.396 16.224-1.3264-0.61222-6.6834-3.7753-15.305-3.7753-9.0302 0-19.54 4.0305-19.54 15.765 0 5.3569 1.6836 11.173-5.4589 14.948-4.0305 2.5508-23.672 13.775-44.59 26.376-17.602 10.663-25.815 9.7955-33.263 14.285-6.8364 4.1324-8.673 9.2853-8.673 13.775 0 3.9793 2.5508 8.9792 3.4182 10.102 4.7447 6.0712 8.9792 9.3363 16.428 9.3363 12.653 0 23.111-11.02 42.651-24.896 12.143-8.673 23.315-17.653 29.845-17.653 5.8161 0 9.8975 4.3875 9.8975 22.5 0 60.558-3.7243 70.15-3.7243 112.19 0 7.5506 0.3061 21.53 0.56118 27.345h-32.09v-99.23l-61.834 52.14-61.834-52.14v99.23h-200.43v-353.1h195.1l67.144 70.66 67.14-70.66h196.07v150.96c-6.2242 9.5913-25.152 42.038-37.906 75.2-4.1834 10.816-6.1222 18.622-11.582 18.622-6.0711 0-6.5304-5.9181-7.1426-11.275-1.2245-11.633-3.8264-33.314-5.0507-41.273-2.2958-15.458-5.3569-31.783-22.602-31.783-12.806 0-26.172 6.9895-26.172 26.07 0 10.816 5.4589 29.641 14.846 54.385 3.6733 9.7444 23.315 61.222 26.172 68.67 5.1528 13.673 12.398 17.397 23.57 17.397 14.387 0 19.336-5.2549 25.253-25.406 4.9997-17.142 13.52-45.151 20.612-62.65v114.16h-122.31zm168.21-195.97v195.97h-32.243v-143.36c6.8874-14.948 23.519-41.069 32.243-52.6m-32.243-26.121v-131.02l32.243 19.387v71.732c-7.9588 8.2649-24.489 28.417-32.243 39.896m-259.12-98.875-17.75 18.673-48.109-50.56 61.019 26.784 4.8468 5.1018zm2.1428 274.98h22.245l6.0201-5.0507v-18.775l-28.264 23.826zm-68.058 45.967h26.529v-47.447l-26.529-22.347v69.793z" fill="#fff"/>
 <path id="c" d="m571.39 524.54c0 8.9524-7.3519 16.304-16.304 16.304h-538.69c-9.0024 0-16.354-7.3519-16.354-16.304v-130.58c0-8.9524 7.3519-16.304 16.354-16.304h538.69c8.9524 0 16.304 7.3519 16.304 16.304z" fill="#ef3436"/>
 <path id="d" d="m70.666 475.56-3.3509-8.1521-8.2022-3.3509h-8.2022l-2.3506 0.90023-1.0003 2.3006v17.705l1.0003 2.3006 2.3506 0.95025h8.2022l8.2022-3.3509 3.3509-8.1522v-1.1503zm-1.8505-34.259-0.85022-4.1511-2.3006-3.4509-3.4509-2.3506-4.1511-0.85023h-7.1519l-2.3506 0.90024-1.0003 2.3006v16.104l1.0003 2.3506 2.3506 1.0003h7.1519l4.1511-0.85022 3.4509-2.3006 2.3006-3.4009 0.85022-4.2511v-1.0503zm13.904 34.709-1.8005 9.0524-5.0013 7.2519-7.3519 4.9513-9.0024 1.8505h-18.905l-3.651-1.5004-1.5004-3.651v-69.218l1.5004-3.651 3.651-1.5004h17.905l8.7023 1.7005 7.1019 4.8012 4.7512 7.1019 1.7505 8.7023c0 5.2514-1.5504 9.8026-4.7012 13.654l-0.90024 2.3006 1.0503 2.3006 4.7513 7.0518 1.6504 8.8023z" fill="#1f141b"/>
 <path id="e" d="m116.15 462 6.5017-1.9505 4.1011-5.2014 0.7502-2.7007 0.30007-5.2014v-1.4004l-0.30007-5.2014-0.7502-2.7007-4.1011-5.2014-6.5017-1.9505h-8.2022l-2.3506 0.95025-1.0003 2.3006v24.907l1.0003 2.3006 2.3506 1.0503h8.2022zm11.453 8.0521-0.95026 1.2503 0.45012 1.1503 9.6526 18.255 0.85022 2.9008-1.7505 3.951-3.901 1.5504-5.4014-3.3009-11.303-21.306-1.3003-1.2003-1.7005-0.40011h-4.3011l-2.3506 1.0503-1.0003 2.4006v17.605l-1.5004 3.651-3.601 1.5004h-1.8505l-3.651-1.5004-1.4504-3.651v-69.218l1.5004-3.651 3.651-1.5004h18.455l7.602 1.2003 6.5517 3.4509 5.1013 5.3014 3.3509 6.6017 0.85021 3.801 0.25008 6.3017-0.25008 6.3517-0.85021 3.751-4.3011 7.9521-6.8518 5.7515z" fill="#1f141b"/>
 <path id="f" d="m172.15 429.46-1.5004-1.5004-1.5004 1.5004-7.802 38.96-0.25006 1.7505 0.50013 1.2003 1.6004 0.50013h14.904l1.6504-0.50013 0.45012-1.2003-0.25006-1.7505-7.8021-38.96zm11.253 56.215-1.1503-2.4006-2.4006-1.0503h-18.405l-2.4006 1.0503-1.1503 2.4006-1.8505 9.3024-1.8505 3.5509-3.5509 1.3004h-0.35009l-3.701-1.1003-1.7004-3.751 0.10002-1.0503 0.15005-1.0003 13.454-66.568 3.0008-5.8015 5.9516-2.4506h6.2016l6.0016 2.4506 2.9508 5.8015 13.454 66.568 0.20006 1.0003 0.05 1.0503-1.6504 3.751-3.751 1.1003h-0.3501l-3.5509-1.3004-1.8505-3.5509-1.8505-9.3024z" fill="#1f141b"/>
 <path id="g" d="m223.34 460.15-2.1006-5.8516-1.4504-1.9505-1.0503 1.7004 0.10003 2.1506 0.15003 4.6512v33.109l-1.5004 3.651-3.701 1.5004h-1.7004l-3.701-1.5004-1.5004-3.651v-69.218l1.5004-3.651 3.701-1.5004h1.0503l3.901 0.90024 2.8508 3.4509 14.804 34.609 2.1506 5.8515 1.4504 1.9505 1.0003-1.7004-0.10002-2.1506-0.10003-4.6512v-33.109l1.5004-3.651 3.651-1.5004h1.7505l3.651 1.5004 1.5004 3.651v69.218l-1.5004 3.651-3.651 1.5004h-1.0503l-3.901-0.90024-2.8508-3.4509-14.854-34.609z" fill="#1f141b"/>
 <path id="h" d="m290.04 488.2 6.5017-1.9505 4.1011-5.2014 0.4001-1.1503 0.3501-1.8005 0.25006-2.9508 0.05-4.4012v-22.756l-0.05-4.4512-0.25006-2.9508-0.3501-1.7504-0.4001-1.2003-4.1011-5.2014-6.5017-1.9505h-8.2022l-2.3506 0.95025-1.0003 2.3006v51.264l1.0003 2.2506 2.3506 0.95025h8.2022zm-18.455 10.903-3.651-1.5004-1.5004-3.651v-69.218l1.5004-3.651 3.651-1.5004h18.455l7.602 1.2003 6.5517 3.4509 5.1013 5.3014 3.3509 6.6017 0.45011 1.8005 0.4001 2.3506 0.20006 3.3509 0.05 5.0013v21.406l-0.05 5.0013-0.20006 3.4009-0.4001 2.3506-0.45011 1.7505-3.3509 6.6517-5.1013 5.2514-6.5517 3.4509-7.602 1.2003h-18.455z" fill="#1f141b"/>
 <path id="i" d="m362.49 460.15-2.1006-5.8516-1.4504-1.9505-1.0503 1.7004 0.10002 2.1506 0.15004 4.6512v33.109l-1.5004 3.651-3.701 1.5004h-1.7004l-3.701-1.5004-1.5004-3.651v-69.218l1.5004-3.651 3.701-1.5004h1.0003l3.951 0.90024 2.8508 3.4509 14.804 34.609 2.1506 5.8515 1.4504 1.9505 1.0003-1.7004-0.10002-2.1506-0.10002-4.6512v-33.109l1.5004-3.651 3.651-1.5004h1.7505l3.651 1.5004 1.5004 3.651v69.218l-1.5004 3.651-3.651 1.5004h-1.0503l-3.901-0.90024-2.8508-3.4509-14.854-34.609z" fill="#1f141b"/>
 <path id="j" d="m420.97 463.71-2.3506 0.95025-1.0003 2.2506v18.055l1.0003 2.3006 2.3506 0.95025h22.506l3.651 1.4504 1.4504 3.701v0.60016l-1.4504 3.651-3.651 1.5004h-32.809l-3.601-1.5004-1.5004-3.651v-69.218l1.5004-3.651 3.601-1.5004h32.809l3.651 1.5004 1.4504 3.651v0.60016l-1.4504 3.701-3.651 1.4504h-22.506l-2.3506 0.90024-1.0003 2.3006v16.354l1.0003 2.3506 2.3506 0.95025h12.853l3.701 1.5004 1.5004 3.701-1.5004 3.651-3.701 1.5004h-12.853z" fill="#1f141b"/>
 <path id="k" d="m496.76 419.59 3.601 1.5504 1.7004 3.601 10.453 64.467 1.5004 1.5004 1.5004-1.5004 10.553-65.467 1.8005-3.6009 3.6009-1.2503h0.3501l3.751 1.1003 1.6504 3.751-0.05 1.0003-0.20005 1.0503-10.653 66.568-2.9508 5.8015-6.0516 2.4506h-5.7515l-6.0016-2.4506-2.9508-5.8015-4.1511-27.157-0.55015-4.7513-0.45012-5.2014-0.35008-4.4012-0.10003-2.6507-0.80021-0.80021-0.80022 0.80021-0.15003 2.6507-0.3501 4.4012-0.45012 5.2014-0.55014 4.7513-4.1511 27.157-2.9508 5.8015-6.0016 2.4506h-5.7515l-6.0516-2.4506-2.9508-5.8015-10.653-66.568-0.20005-1.0503-0.05-1.0003 1.6504-3.751 3.751-1.1003h0.35009l3.601 1.2503 1.8005 3.6009 10.603 65.467 1.4504 1.5004 1.5004-1.5004 10.453-64.467 1.7004-3.601 3.601-1.5504h1.1503z" fill="#1f141b"/>
</svg>
