<svg width="800" height="813.56" version="1.1" viewBox="0 0 800 813.56" xmlns="http://www.w3.org/2000/svg">
 <g transform="matrix(13.559 0 0 13.559 0 1.5527e-5)" fill="none" fill-rule="evenodd">
  <path d="m54.835 38.905v21.095h-54.835v-21.095zm-22.065 4.6334h-3.9574v11.741h3.9574c3.6946 0 5.8292-2.1817 5.8292-5.879 0-3.6806-2.1347-5.8622-5.8292-5.8622zm-13.35 0h-2.3645v11.741h2.3645v-5.3127h4.6798v5.3127h2.3645v-11.741h-2.3645v4.1969h-4.6798zm13.35 2.1317c2.2496 0 3.3005 1.349 3.3005 3.7305 0 2.4148-1.0509 3.7472-3.3005 3.7472h-1.5928v-7.4777z" fill="#f7f908"/>
  <g fill-rule="nonzero">
   <path d="m25.377 27.873 6.265-6.233v11.382h19.121v-33.022h-18.905l-6.481 6.438-6.472-6.438h-18.905v33.022h19.121v-11.382z" fill="#f7f908"/>
   <path d="m30.145 27.872h-2.6221l2.6221-2.6061zm-9.5074 5.1504h2.6385v-5.1229l-2.6385-2.6224zm0.084134-33.022 4.655 4.6309 2.2096-2.1885zm34.186 1.9247-2.8774-1.9247v33.022h2.8774z" fill="#00aacd"/>
   <path d="m58.423 5.1975c-0.87408-0.8695-2.1606-0.72294-2.9168-0.30286-1.1196 0.61547-1.9838 2.1299-2.5141 2.6867-5.7254 5.9694-7.2673 11.577-7.8075 12.75-0.10797 0.24429-0.29453 0.45923-0.61862 0.45923-0.24556 0-0.47141-0.13676-0.54994-0.51786-0.2455-1.1431-0.40268-3.1068-0.58923-5.6273-0.09818-1.3385-1.0999-1.954-2.3274-1.6316-1.1884 0.30292-1.7285 1.065-1.6205 2.3936 0.07865 1.0356 0.31429 2.0614 0.94282 4.8653 0.14726 0.68391 1.4534 6.4677 2.5828 8.0895 1.3749 1.9735 3.8595 1.2798 3.8987-0.44937 0.01965-1.0162 0.12774-1.7879 0.40273-2.8138 1.0115-3.4976 2.3471-5.7836 3.3881-7.8549 2.357-4.67 5.0381-6.8389 5.0381-6.8389 2.406-0.79138 2.9364-2.0126 3.0837-2.4034 0.16691-0.44942 0.4517-1.9735-0.39282-2.804zm-20.103 22.266c0-0.62533 0.08844-3.1655 0.08844-5.2074 0-1.7195-0.50085-4.8263-0.50085-6.4871 0-0.99658 0-2.1592-0.03929-2.6574 0.80529-0.5178 1.5909-1.0454 3.8399-2.3057 0.80523-0.44942 2.3962-1.1724 2.3962-2.4132 0-0.83041-0.77579-2.0125-1.9936-1.7487-1.0999 0.23448-1.0705 1.0942-2.8381 2.1786-1.4339 0.8793-2.1998 1.3092-2.4945 1.4753-0.11776-0.04889-0.60882-0.34195-1.3946-0.34195-0.82488 0-1.7776 0.37124-1.7776 1.4264 0 0.48852 0.15724 1.0161-0.50073 1.358-0.36344 0.23448-2.6417 1.5632-4.547 2.7062-1.6105 0.96723-2.3569 0.88905-3.0345 1.2896-0.62853 0.3713-0.78558 0.93794-0.78558 1.3483 0 0.36156 0.22591 0.82061 0.31423 0.9184 0.43212 0.54709 0.81514 0.8499 1.5026 0.8499 1.149 0 2.1114-1.0063 3.889-2.2569 1.1097-0.78152 2.6122-1.9149 3.2113-1.9149 0.53035 0 0.90347 0.40053 0.90347 2.0419 0 5.4906-0.33382 6.4286-0.33382 10.239 0 0.68385 0.02944 1.9539 0.04909 2.4815 0.01959 0.69365-0.01965 2.6769-0.05894 3.4195-0.01965 0.60567 0.54009 2.7061 2.298 2.4229 1.8266-0.29306 2.2489-1.3776 2.2685-2.12 0.01965-0.723-0.12762-2.7159-0.22585-3.7126-0.12774-0.82061-0.23582-1.9735-0.23582-2.9895z" fill="#ff3c3c"/>
  </g>
 </g>
</svg>
