<svg width="664.88" height="942.32" version="1.1" viewBox="0 0 664.88 942.32" xml:space="preserve" xmlns="http://www.w3.org/2000/svg" xmlns:xlink="http://www.w3.org/1999/xlink">
<path d="m0 472.76h664.2v469.56h-664.2v-469.56" fill="#fff"/>
<g transform="translate(0 -.3389)" fill="#fff">
	<defs>
		<rect id="SVGID_1_" x="-26.5" y="-44.2" width="1277.6" height="876.8"/>
	</defs>
	<clipPath id="SVGID_2_">
		<use width="100%" height="100%" xlink:href="#SVGID_1_"/>
	</clipPath>
	<g transform="matrix(21.209,0,0,-21.209,-3171.4,4197.6)" clip-path="url(#SVGID_2_)" fill="#fff">
		<g transform="translate(155.38,192.8)" fill="#fff">
			<path d="m16.3-14.2c-0.1 0.5-0.1 1.2-0.1 1.8 0 0.4 0.1 1.9 0.1 3.1 0 1-0.2 2.9-0.2 3.9v1.7c0.5 0.3 0.9 0.5 2.2 1.3 0.4 0.3 1.2 0.7 1.2 1.2 0 0.2-0.1 0.4-0.4 0.7-0.2 0.2-0.5 0.2-0.8 0.2-0.7 0-1-0.7-1.5-1-0.9-0.5-1.3-0.8-1.5-0.9-0.1 0-0.4 0.2-0.8 0.2-0.5 0-1.1-0.2-1.1-0.9 0-0.3 0.1-0.6-0.3-0.8-0.2-0.1-1.3-0.8-2.4-1.4-1-0.6-1.4-0.5-1.8-0.8-0.5-0.2-0.6-0.5-0.6-0.7s0.1-0.5 0.2-0.6c0.3-0.3 0.5-0.5 0.9-0.5 0.7 0 1.3 0.6 2.3 1.4 0.7 0.5 1.3 1 1.6 1s0.5-0.2 0.5-1.2c0-3.3-0.2-3.8-0.2-6.1v-1.5h-1.8v5.4l-3.4-2.9-3.2 2.8v-5.4h-11v19.3h10.7l3.7-3.9 3.7 3.9h10.7v-8.3c-0.3-0.5-1.4-2.3-2.1-4.1-0.2-0.6-0.3-1-0.6-1s-0.4 0.3-0.4 0.6c-0.1 0.6-0.2 1.8-0.3 2.3-0.1 0.8-0.3 1.7-1.2 1.7-0.7 0-1.4-0.4-1.4-1.4 0-0.6 0.3-1.6 0.8-3 0.2-0.5 1.3-3.4 1.4-3.8 0.3-0.7 0.7-1 1.3-1 0.8 0 1.1 0.3 1.4 1.4 0.3 0.9 0.7 2.5 1.1 3.4v-6.3h-6.7zm9.2 10.7v-10.7h-1.8v7.8c0.4 0.9 1.3 2.3 1.8 2.9m-1.8 1.4v7.2l1.8-1.1v-3.9c-0.5-0.4-1.4-1.5-1.8-2.2m-14.2 5.5-1-1-2.6 2.7 3.3-1.5zm0.1-15.1h1.2l0.3 0.3v1zm-3.7-2.5h1.5v2.6l-1.5 1.2z" fill="#fff"/>
		</g>
	</g>
</g>
<g transform="translate(2775.7 -202.16)" fill="#231f20"><path d="m-2646 884.92h-29.306v-124.22h29.306v43.653q9.448-12.51 26.157-12.51 12.16 0 20.996 6.4736 17.321 12.685 17.321 41.204 0 13.21-4.1991 23.882-4.0241 10.498-12.947 17.146-8.8355 6.5611-21.17 6.5611-16.709 0-26.157-12.335zm0-45.403q0 11.897 4.549 17.934 4.6365 6.0362 13.122 6.0362 8.4856 0 12.947-6.0362 4.549-6.0362 4.549-17.934 0-11.81-4.6365-17.934-4.549-6.1237-12.86-6.1237-8.4857 0-13.122 6.1237-4.549 6.1237-4.549 17.934z"/><path d="m-2516.8 793.06q4.374 0 6.9985 0.52488l0.9623 0.0875v24.845q-3.4118-0.61237-7.7858-0.61237-12.597 0-18.721 7.3484-6.0362 7.3484-6.0362 23.182v36.48h-29.306v-90.805h29.306v14.259q1.3123-3.3243 4.4616-6.911 6.736-8.1357 20.121-8.3982z"/><path d="m-2420 828.23v32.193q0 7.1734 0.7873 13.385 0.7874 6.2112 1.5747 8.6606l0.7873 2.4495h-28.169q-1.0497-2.9744-2.012-9.6229-10.06 11.81-29.131 11.81-14.784 0-23.27-6.911-8.4857-6.911-8.4857-19.596 0-11.635 7.3484-18.371 3.0619-2.8869 8.1358-5.1614 7.4358-3.3243 19.071-5.3363 4.3741-0.69985 6.0362-0.87481l5.5113-0.78733 4.6365-0.87481q4.1116-0.78733 6.736-2.7994 2.537-1.9246 2.537-5.9487 0-3.6742-3.4993-6.2112-3.4992-2.6244-9.7104-2.6244-13.384 0-15.222 10.935h-27.644q0.5249-9.5354 5.6862-16.709 2.9744-4.1116 7.6109-7.1734 10.323-6.8235 29.131-6.8235 41.554 0 41.554 36.392zm-42.691 19.596-5.1614 1.2247q-10.235 2.7994-10.235 10.323 0 8.7481 11.81 8.7481 9.0105 0 13.647-5.0739 4.724-5.1614 4.724-14.259v-7.086q-3.0619 2.8869-8.7481 4.549z"/><path d="m-2318.3 884.92h-29.306v-50.564q0-9.6229-3.0619-13.735-3.0618-4.1991-9.9728-4.1991-16.359 0-16.359 22.308v46.19h-29.306v-90.805h29.306v13.647q1.8371-4.2866 5.5113-7.6983 8.3107-8.1357 23.182-8.2232 13.472 0 21.783 8.3107 8.2232 8.2232 8.2232 25.632z"/><path d="m-2243.2 760.69h29.306v124.22h-29.306v-10.148q-9.4479 12.335-26.157 12.335-12.335 0-21.17-6.5611-17.146-12.685-17.146-41.029 0-13.385 4.199-24.057 4.4616-10.848 13.035-17.146 8.8356-6.4736 21.083-6.4736 16.709 0 26.157 12.51zm0 78.82q0-11.81-4.6365-17.934-4.549-6.1237-13.035-6.1237-8.3107 0-12.947 6.1237-4.549 6.1237-4.549 17.934 0 11.897 4.4615 17.934 4.549 6.0362 13.035 6.0362 8.4856 0 13.035-6.0362 4.6365-6.0362 4.6365-17.934z"/></g><g transform="translate(2834.4 -280.15)" fill="#231f20"><path d="m-2587.3 1105.3h-29.306v-50.564q0-9.6229-3.0618-13.734-3.0618-4.1991-9.9728-4.1991-16.359 0-16.359 22.308v46.19h-29.306v-90.805h29.306v13.647q1.8371-4.2866 5.5113-7.6984 8.3107-8.1357 23.182-8.2232 13.472 0 21.783 8.3107 8.2233 8.2232 8.2233 25.632z"/><path d="m-2483.8 1067.9h-63.949q1.4872 8.8356 6.1237 13.385 4.724 4.549 11.985 4.549 4.9864 0 8.923-2.0995 3.9367-2.0996 6.0362-5.8613h28.694q-4.3741 14.172-16.009 21.87-11.635 7.6983-27.819 7.6983-22.395 0-34.642-12.772-12.16-12.772-12.16-33.943 0-20.908 11.897-34.468 5.8612-6.6486 14.872-10.323 9.098-3.7617 20.121-3.7617 21.52 0 33.855 13.035t12.335 35.605zm-46.102-33.943q-7.3484 0-11.985 4.6365-4.5491 4.549-5.8613 13.472h35.167q-2.7119-18.109-17.321-18.109z"/><path d="m-2359.8 1105.3h-31.581l-16.271-56.163-16.272 56.163h-31.581l-28.431-90.805h31.493l14.784 59.924 17.759-59.924h24.582l17.759 60.012 14.784-60.012h31.406z"/></g></svg>
