<svg width="374.33" height="104.67" version="1.1" viewBox="0 0 99.043 27.694" xmlns="http://www.w3.org/2000/svg">
 <g transform="translate(375.33 757.15)">
  <g stroke="#000" stroke-width="1.0258">
   <path d="m-374.81-755.59h5.283l5.9705 15.813 5.9705-15.813h5.283v25.329h-4.704v-15.632l-4.8488 13.316h-3.4014l-4.8488-13.316v15.632h-4.704z"/>
   <path d="m-336.61-730.26v-2.931q-1.0132 1.4474-2.4606 2.352-1.4112 0.86844-3.1843 0.86844-2.4606 0-4.0527-1.375-1.556-1.375-1.556-4.1251v-13.027h4.4869v11.688q0 1.6283 0.7237 2.3158 0.72369 0.68752 1.8816 0.68752 0.79607 0 1.556-0.47041 0.75989-0.50659 1.3388-1.4474 0.57895-0.9408 0.90462-2.3158 0.36185-1.375 0.36185-3.1843v-7.2732h4.4869v18.237z"/>
   <path d="m-323.69-755.88v25.619h-4.4869v-25.619z"/>
   <path d="m-308.65-730.37q-0.4704 0.14474-1.1217 0.2533-0.61515 0.14474-1.5921 0.14474-2.8586 0-4.6317-1.6645-1.7369-1.6645-1.7369-5.0659v-7.9607h-2.8224v-3.8356h2.8224v-4.5593l4.4869-2.8224v7.3817h4.8126v3.8356h-4.8126v7.8883q0 1.7007 0.61514 2.352 0.61514 0.61515 1.7731 0.61515 0.61514 0 1.1217-0.14474t1.0856-0.43422z"/>
   <path d="m-305.65-753.75q0-1.2303 0.79606-2.0625 0.83226-0.83225 2.0987-0.83225t2.0625 0.83225q0.83225 0.83226 0.83225 2.0625 0 1.2303-0.83225 2.0625-0.79607 0.83226-2.0625 0.83226t-2.0987-0.83226q-0.79606-0.83225-0.79606-2.0625zm5.1382 5.2468v18.237h-4.4869v-18.237z"/>
   <path d="m-278.36-755.59-6.6942 11.652 7.8883 13.678h-5.2106l-5.2468-9.1548-5.2468 9.1548h-5.2106l7.8883-13.678-6.6942-11.652h5.1383l4.1251 7.1646 4.1251-7.1646z"/>
  </g>
 </g>
</svg>
