<svg enable-background="new 0 0 841.89 595.28" version="1.1" viewBox="0 0 309.44 66.867" xml:space="preserve" xmlns="http://www.w3.org/2000/svg"><path d="m76.949 11.65c-0.876-5.252-5.18-11.642-19.656-11.642-5.225 0-10.52 1.66-11.896 8.094l-3.56 15.25-3.595-15.278c-1.482-6.405-6.624-8.067-11.807-8.067-14.776 0-18.859 6.391-19.734 11.643l-6.532 39.192c-1.134 6.794 3.571 13.199 10.504 14.309 6.935 1.105 14.724-2.11 15.815-10.291l1.47-8.659 3.229 12.235c1.198 4.867 5.38 6.878 10.692 6.878s9.329-1.702 10.701-6.906l3.086-12.207 1.492 8.659c1.396 7.85 7.627 10.457 13.75 10.457 0.681 0 1.374-0.054 2.066-0.166 6.933-1.109 11.637-7.515 10.504-14.309z" fill="#ee1e49"/><path d="m295.44 0.01h-29.357c-9.699 0-14.005 6.149-14.005 13.735 0 7.587 4.515 13.737 11.583 13.737h3.17l-1.213 26.323c0 7.025 6.488 11.51 15.145 11.51 8.98 0 15.144-4.484 15.144-11.51l-1.213-26.323h3.169c7.068 0 11.583-6.15 11.583-13.737-1e-3 -7.586-4.005-13.735-14.006-13.735z" fill="#50b848"/><path d="m129.79 0c-8.657 0-13.479 3.96-14.727 9.618l-3.527 16.906-3.53-16.906c-2.015-8.377-9.688-9.618-14.728-9.618-6.39 0-17.489 3.402-12.802 15.11l10.342 26.272c-3.773 1.238-5.675 4.997-5.675 10.701 0 2.058 0.534 4.141 1.604 6.065 1.14 2.045 5.769 8.719 17.546 8.719 16.548 0 22.124-11.263 24.114-15.85 0.13-0.318 14.183-35.908 14.183-35.908 4.688-11.707-6.43-15.109-12.8-15.109z" fill="#7e1226"/><path d="m193.82 9.55c-2.972-5.086-9.677-9.538-22.499-9.538-11.689 0-20.79 5.361-25.444 15.187-3.75 7.916-4.419 21.724-4.451 22.13-4.361 0-9.61 4.769-9.61 12.489 0 12.573 8 15.499 15.047 15.499 8.263 0 15.504-4.241 17.771-13.186 1.262-4.977 4.39-26.679 6.687-26.679l0.416 0.038s-1.312 24.54-1.312 27.107c0 7.023 4.83 12.72 13.933 12.72 5.085 0 8.978-1.375 11.369-3.816 2.394-2.439 3.703-5.741 3.636-9.157-0.011-0.553-0.279-13.647-1.261-25.517-0.36-4.363-1.037-11.722-4.282-17.277z" fill="#febf33"/><path d="m238.21 18.83c-1.547 0-6.208 0.709-6.208 0.709s1.111-8.274 0.018-12.955c-0.994-4.255-5.859-6.566-10.915-6.566-14.971 0-21.333 6.395-20.728 15.37 0.04 0.595 1.421 21.249 1.451 21.672 0.974 13.279 2.185 29.807 29.142 29.807 19.796 0 28.941-12.077 28.941-24.006 1e-3 -15.794-7.531-24.031-21.701-24.031zm-2.703 23.63c-0.225 1.345-1.604 2.226-3.082 1.968-1.477-0.258-2.493-1.56-2.27-2.903 0.226-1.343 1.604-2.224 3.082-1.965 1.475 0.255 2.493 1.555 2.27 2.9z" fill="#27aae1"/></svg>
