<svg width="789.39" height="131.48" version="1.1" viewBox="0 0 208.86 34.786" xmlns="http://www.w3.org/2000/svg">
 <g transform="translate(375.33 711.9)">
  <g fill="#fff" stroke="#fff" stroke-width="1.0258">
   <path d="m-374.81-710.34h5.283l5.9705 15.813 5.9705-15.813h5.283v25.329h-4.704v-15.632l-4.8488 13.316h-3.4014l-4.8488-13.316v15.632h-4.704z"/>
   <path d="m-336.61-685.01v-2.931q-1.0132 1.4474-2.4606 2.352-1.4112 0.86844-3.1843 0.86844-2.4606 0-4.0527-1.375-1.556-1.375-1.556-4.1251v-13.027h4.4869v11.688q0 1.6283 0.7237 2.3158 0.72369 0.68752 1.8816 0.68752 0.79607 0 1.556-0.47041 0.75989-0.50659 1.3388-1.4474 0.57895-0.94081 0.90462-2.3158 0.36185-1.375 0.36185-3.1843v-7.2732h4.4869v18.237z"/>
   <path d="m-323.69-710.63v25.619h-4.4869v-25.619z"/>
   <path d="m-308.65-685.12q-0.4704 0.14473-1.1217 0.25329-0.61515 0.14474-1.5921 0.14474-2.8586 0-4.6317-1.6645-1.7369-1.6645-1.7369-5.0659v-7.9607h-2.8224v-3.8356h2.8224v-4.5593l4.4869-2.8224v7.3817h4.8126v3.8356h-4.8126v7.8883q0 1.7007 0.61514 2.352 0.61514 0.61515 1.7731 0.61515 0.61514 0 1.1217-0.14474t1.0856-0.43422z"/>
   <path d="m-305.65-708.49q0-1.2303 0.79606-2.0625 0.83226-0.83226 2.0987-0.83226t2.0625 0.83226q0.83225 0.83225 0.83225 2.0625 0 1.2303-0.83225 2.0625-0.79607 0.83225-2.0625 0.83225t-2.0987-0.83225q-0.79606-0.83226-0.79606-2.0625zm5.1382 5.2468v18.237h-4.4869v-18.237z"/>
   <path d="m-296.61-694.13q0-2.0987 0.50659-3.8356 0.54277-1.7369 1.5921-2.9672 1.0494-1.2303 2.6053-1.9178 1.556-0.68751 3.6185-0.68751 1.375 0 2.5691 0.61514 1.2303 0.57896 1.8454 1.3388v-9.0462h4.4869v25.619h-4.4869v-1.8816q-0.18092 0.36185-0.57896 0.75989-0.39803 0.36185-0.97699 0.68751-0.57896 0.32567-1.3027 0.50659-0.7237 0.21711-1.556 0.21711-2.0625 0-3.6185-0.68751-1.556-0.68752-2.6053-1.9178-1.0494-1.2303-1.5921-2.9672-0.50659-1.7369-0.50659-3.8356zm4.704 0q0 2.7139 1.2303 4.1613 1.2303 1.4112 3.0034 1.4112t2.9672-1.4112q1.2303-1.4474 1.2303-4.1613t-1.2303-4.1251q-1.1941-1.4474-2.9672-1.4474t-3.0034 1.4474q-1.2303 1.4112-1.2303 4.1251z"/>
   <path d="m-258.78-692.68h-12.556q0.0362 0.75988 0.32567 1.5198 0.28947 0.7237 0.83225 1.3027 0.54277 0.57896 1.3027 0.94081 0.79606 0.36185 1.8454 0.36185 1.556 0 2.5329-0.65133 0.97699-0.68751 1.7731-1.954l3.6185 1.3388q-0.54277 1.1217-1.2665 2.0625-0.7237 0.9408-1.7007 1.6283-0.97699 0.65133-2.2796 1.0494-1.2665 0.36185-2.931 0.36185-2.352 0-4.0165-0.86844t-2.7139-2.2073q-1.0494-1.375-1.556-3.0395-0.47041-1.6645-0.47041-3.2928t0.47041-3.2928q0.50658-1.6645 1.556-3.0034 1.0494-1.375 2.7139-2.2435 1.6645-0.86844 4.0165-0.86844 2.2796 0 3.8718 0.86844 1.6283 0.83225 2.6415 2.1711 1.0494 1.3027 1.5198 2.8948 0.47041 1.5921 0.47041 3.0757zm-8.5035-7.0199q-0.86844 0-1.556 0.32567-0.65133 0.28948-1.1579 0.79606-0.4704 0.47041-0.79607 1.0856-0.32566 0.61515-0.43421 1.2665h7.8521q-0.14474-0.68751-0.43422-1.3026-0.28948-0.61515-0.75988-1.0856-0.4704-0.50659-1.1579-0.79607-0.65133-0.28948-1.556-0.28948z"/>
   <path d="m-237.98-694.13q0 2.0987-0.54277 3.8356-0.50659 1.7369-1.556 2.9672-1.0494 1.2303-2.6053 1.9178-1.556 0.68751-3.6185 0.68751-1.375 0-2.6053-0.57896-1.1941-0.61514-1.8092-1.375v9.0462h-4.4869v-25.619h4.4869v1.8816q0.18093-0.36185 0.57896-0.7237 0.39803-0.39804 0.97699-0.7237 0.57896-0.32567 1.3027-0.50659 0.7237-0.21711 1.556-0.21711 2.0625 0 3.6185 0.68751 1.556 0.68752 2.6053 1.9178 1.0494 1.2303 1.556 2.9672 0.54277 1.7369 0.54277 3.8356zm-4.704 0q0-2.7139-1.2303-4.1251-1.2303-1.4474-3.0034-1.4474t-3.0034 1.4474q-1.1941 1.4112-1.1941 4.1251t1.1941 4.1613q1.2303 1.4112 3.0034 1.4112t3.0034-1.4112q1.2303-1.4474 1.2303-4.1613z"/>
   <path d="m-235.05-694.13q0-1.9902 0.61514-3.6909 0.61515-1.7369 1.8092-3.0034t2.8948-1.9902q1.7369-0.7237 3.9442-0.7237t3.908 0.7237q1.7369 0.7237 2.931 1.9902t1.8092 3.0034q0.61514 1.7007 0.61514 3.6909t-0.61514 3.727q-0.61515 1.7007-1.8092 2.9672t-2.931 1.9902q-1.7007 0.7237-3.908 0.7237t-3.9442-0.7237q-1.7007-0.7237-2.8948-1.9902t-1.8092-2.9672q-0.61514-1.7369-0.61514-3.727zm4.704 0q0 1.1217 0.28948 2.1349 0.32566 1.0132 0.90462 1.7731t1.4112 1.2303q0.86843 0.43422 1.954 0.43422t1.9178-0.43422q0.86844-0.47041 1.4474-1.2303t0.86844-1.7731q0.32566-1.0132 0.32566-2.1349t-0.32566-2.1349q-0.28948-1.0132-0.86844-1.7731t-1.4474-1.1941q-0.83225-0.47041-1.9178-0.47041t-1.954 0.47041q-0.83226 0.43422-1.4112 1.1941t-0.90462 1.7731q-0.28948 1.0132-0.28948 2.1349z"/>
   <path d="m-213.22-685.01v-18.237h4.4869v2.9672q0.97699-1.6283 2.3882-2.4244 1.4474-0.83225 3.0034-0.83225 0.28948 0 0.65133 0.0362 0.39803 0.0362 0.7237 0.10855v4.3784q-0.83226-0.50659-1.8816-0.50659-0.97699 0-1.8816 0.43422-0.86844 0.43421-1.556 1.375-0.65132 0.94081-1.0494 2.4968-0.39803 1.5198-0.39803 3.727v6.4771z"/>
   <path d="m-186.8-685.12q-0.4704 0.14473-1.1217 0.25329-0.61514 0.14474-1.5921 0.14474-2.8586 0-4.6317-1.6645-1.7369-1.6645-1.7369-5.0659v-7.9607h-2.8224v-3.8356h2.8224v-4.5593l4.4869-2.8224v7.3817h4.8126v3.8356h-4.8126v7.8883q0 1.7007 0.61514 2.352 0.61514 0.61515 1.7731 0.61515 0.61515 0 1.1217-0.14474 0.50659-0.14474 1.0856-0.43422z"/>
   <path d="m-166.98-692.68h-12.556q0.0362 0.75988 0.32567 1.5198 0.28948 0.7237 0.83225 1.3027 0.54278 0.57896 1.3027 0.94081 0.79607 0.36185 1.8454 0.36185 1.556 0 2.5329-0.65133 0.977-0.68751 1.7731-1.954l3.6185 1.3388q-0.54278 1.1217-1.2665 2.0625-0.7237 0.9408-1.7007 1.6283-0.97699 0.65133-2.2796 1.0494-1.2665 0.36185-2.931 0.36185-2.352 0-4.0165-0.86844t-2.7139-2.2073q-1.0494-1.375-1.556-3.0395-0.47041-1.6645-0.47041-3.2928t0.47041-3.2928q0.50659-1.6645 1.556-3.0034 1.0494-1.375 2.7139-2.2435t4.0165-0.86844q2.2796 0 3.8718 0.86844 1.6283 0.83225 2.6415 2.1711 1.0494 1.3027 1.5198 2.8948t0.4704 3.0757zm-8.5034-7.0199q-0.86844 0-1.556 0.32567-0.65132 0.28948-1.1579 0.79606-0.47041 0.47041-0.79607 1.0856-0.32567 0.61515-0.43422 1.2665h7.8521q-0.14474-0.68751-0.43422-1.3026-0.28948-0.61515-0.75989-1.0856-0.4704-0.50659-1.1579-0.79607-0.65133-0.28948-1.556-0.28948z"/>
  </g>
 </g>
</svg>
