<svg width="769.22" height="104.67" version="1.1" viewBox="0 0 203.52 27.694" xmlns="http://www.w3.org/2000/svg">
 <g transform="translate(375.33 349.89)">
  <g fill="#fff" stroke="#fff" stroke-width="1.0258">
   <path d="m-374.81-348.33h5.283l5.9705 15.813 5.9705-15.813h5.283v25.329h-4.704v-15.632l-4.8488 13.316h-3.4014l-4.8488-13.316v15.632h-4.704z"/>
   <path d="m-336.61-323v-2.931q-1.0132 1.4474-2.4606 2.352-1.4112 0.86843-3.1843 0.86843-2.4606 0-4.0527-1.375-1.556-1.375-1.556-4.1251v-13.027h4.4869v11.688q0 1.6283 0.7237 2.3158 0.72369 0.68751 1.8816 0.68751 0.79607 0 1.556-0.4704 0.75989-0.50659 1.3388-1.4474 0.57895-0.94081 0.90462-2.3158 0.36185-1.375 0.36185-3.1843v-7.2732h4.4869v18.237z"/>
   <path d="m-323.69-348.62v25.619h-4.4869v-25.619z"/>
   <path d="m-308.65-323.11q-0.4704 0.14474-1.1217 0.25329-0.61515 0.14474-1.5921 0.14474-2.8586 0-4.6317-1.6645-1.7369-1.6645-1.7369-5.0659v-7.9607h-2.8224v-3.8356h2.8224v-4.5593l4.4869-2.8224v7.3817h4.8126v3.8356h-4.8126v7.8883q0 1.7007 0.61514 2.352 0.61514 0.61514 1.7731 0.61514 0.61514 0 1.1217-0.14474t1.0856-0.43422z"/>
   <path d="m-305.65-346.48q0-1.2303 0.79606-2.0625 0.83226-0.83225 2.0987-0.83225t2.0625 0.83225q0.83225 0.83225 0.83225 2.0625t-0.83225 2.0625q-0.79607 0.83225-2.0625 0.83225t-2.0987-0.83225q-0.79606-0.83225-0.79606-2.0625zm5.1382 5.2468v18.237h-4.4869v-18.237z"/>
   <path d="m-297.29-341.24h2.3158v-0.9408q0-3.329 1.7369-4.885t4.5593-1.556q0.7237 0 1.3027 0.0724 0.61514 0.0362 1.1217 0.21711v4.0527q-0.57896-0.25329-1.0856-0.36185-0.50659-0.14474-1.0855-0.14474-0.94081 0-1.5198 0.54278-0.54278 0.50658-0.54278 1.7369v1.2665h3.8356v3.8356h-3.8356v14.402h-4.4869v-14.402h-2.3158z"/>
   <path d="m-272.3-323v-2.931q-1.0132 1.4474-2.4606 2.352-1.4112 0.86843-3.1843 0.86843-2.4606 0-4.0527-1.375-1.556-1.375-1.556-4.1251v-13.027h4.4869v11.688q0 1.6283 0.7237 2.3158 0.7237 0.68751 1.8816 0.68751 0.79607 0 1.556-0.4704 0.75988-0.50659 1.3388-1.4474t0.90463-2.3158q0.36184-1.375 0.36184-3.1843v-7.2732h4.4869v18.237zm-3.5823-25.619h6.0791l-4.9573 5.3554h-3.4376z"/>
   <path d="m-252.96-323.11q-0.4704 0.14474-1.1217 0.25329-0.61514 0.14474-1.5921 0.14474-2.8586 0-4.6317-1.6645-1.7369-1.6645-1.7369-5.0659v-7.9607h-2.8224v-3.8356h2.8224v-4.5593l4.4869-2.8224v7.3817h4.8126v3.8356h-4.8126v7.8883q0 1.7007 0.61514 2.352 0.61515 0.61514 1.7731 0.61514 0.61515 0 1.1217-0.14474t1.0855-0.43422z"/>
   <path d="m-231.83-332.12q0 2.0987-0.54277 3.8356-0.50659 1.7369-1.556 2.9672t-2.6053 1.9178q-1.556 0.68751-3.6185 0.68751-0.83225 0-1.556-0.21711-0.7237-0.18092-1.3027-0.50659-0.57895-0.32566-0.97699-0.68751-0.39803-0.39803-0.57896-0.75988v1.8816h-4.4869v-25.619h4.4869v9.0462q0.61515-0.75988 1.8092-1.3388 1.2303-0.61515 2.6053-0.61515 2.0625 0 3.6185 0.68752 1.556 0.68751 2.6053 1.9178t1.556 2.9672q0.54277 1.7369 0.54277 3.8356zm-4.704 0q0-2.7139-1.2303-4.1251-1.2303-1.4474-3.0034-1.4474t-3.0034 1.4474q-1.1941 1.4112-1.1941 4.1251t1.1941 4.1613q1.2303 1.4112 3.0034 1.4112t3.0034-1.4112q1.2303-1.4474 1.2303-4.1613z"/>
   <path d="m-228.9-332.12q0-1.9902 0.61515-3.6909 0.61514-1.7369 1.8092-3.0034 1.1941-1.2665 2.8948-1.9902 1.7369-0.7237 3.9442-0.7237t3.908 0.7237q1.7369 0.7237 2.931 1.9902t1.8092 3.0034q0.61514 1.7007 0.61514 3.6909t-0.61514 3.727q-0.61514 1.7007-1.8092 2.9672-1.1941 1.2665-2.931 1.9902-1.7007 0.7237-3.908 0.7237t-3.9442-0.7237q-1.7007-0.72369-2.8948-1.9902-1.1941-1.2665-1.8092-2.9672-0.61515-1.7369-0.61515-3.727zm4.704 0q0 1.1217 0.28948 2.1349 0.32567 1.0132 0.90463 1.7731 0.57895 0.75988 1.4112 1.2303 0.86844 0.43422 1.954 0.43422 1.0856 0 1.9178-0.43422 0.86844-0.4704 1.4474-1.2303 0.57896-0.75989 0.86844-1.7731 0.32566-1.0132 0.32566-2.1349t-0.32566-2.1349q-0.28948-1.0132-0.86844-1.7731-0.57896-0.75988-1.4474-1.1941-0.83225-0.4704-1.9178-0.4704-1.0855 0-1.954 0.4704-0.83226 0.43422-1.4112 1.1941-0.57896 0.75989-0.90463 1.7731-0.28948 1.0132-0.28948 2.1349z"/>
   <path d="m-202.27-348.62v25.619h-4.4869v-25.619z"/>
   <path d="m-180.56-348.62q1.6283 0 2.9672 0.54277 1.3388 0.54278 2.2796 1.5198 0.97699 0.94081 1.4836 2.2073 0.54277 1.2303 0.54277 2.6415 0 1.556-0.61514 2.8586t-1.7731 2.2073q1.556 0.86844 2.4606 2.3882 0.90463 1.5198 0.90463 3.6909 0 1.8454-0.68752 3.329-0.65132 1.4474-1.8092 2.4606-1.1217 0.977-2.6053 1.5198-1.4836 0.54277-3.1481 0.54277t-3.1481-0.54277-2.6415-1.5198q-1.1217-1.0132-1.8092-2.4606-0.65133-1.4836-0.65133-3.329 0-2.1711 0.86844-3.6909 0.90462-1.5198 2.4606-2.3882-1.1579-0.90462-1.7731-2.2073-0.57896-1.3027-0.57896-2.8586 0-1.4112 0.50659-2.6415 0.54277-1.2665 1.4836-2.2073 0.97699-0.97699 2.3158-1.5198 1.3388-0.54277 2.9672-0.54277zm0 14.402q-1.556 0-2.6415 0.94081-1.0494 0.9408-1.0494 2.7139t1.0494 2.7139q1.0855 0.94081 2.6415 0.94081t2.6053-0.94081q1.0856-0.9408 1.0856-2.7139t-1.0856-2.7139q-1.0494-0.94081-2.6053-0.94081zm0-10.566q-1.375 0-2.2073 0.86844-0.83226 0.86844-0.83226 2.2796 0 1.4474 0.83226 2.352 0.83225 0.86844 2.2073 0.86844 1.375 0 2.2073-0.86844 0.83225-0.90462 0.83225-2.352 0-1.4112-0.83225-2.2796-0.83226-0.86844-2.2073-0.86844z"/>
  </g>
 </g>
</svg>
