<svg version="1.1" viewBox="0 0 724.73 198.41" xmlns="http://www.w3.org/2000/svg">
 <g transform="translate(12.366 -433.16)">
  <g transform="translate(-862.29 -98.859)">
   <g transform="translate(-336.8 -230.46)" fill="#fff">
    <path d="m1400.9 850.49-18.207 5.1969c1.8431 5.1955 2.7576 11.626 2.7576 18.348v56.636h20.469v-55.292c4.749-4.2647 10.096-7.0353 14.212-7.0353 5.3446 0 6.894 2.6088 6.894 11.454v50.873h20.151v-57.131c0-4.8976-0.44-8.2313-1.5203-11.136-2.4395-6.7224-10.093-11.313-18.808-11.313-4.581 0-9.9196 1.2168-14.035 3.3586-3.3705 1.8247-5.978 3.6566-9.0505 5.7979 0-3.2028-1.0385-6.5547-2.8636-9.7575z" fill-rule="evenodd"/>
    <path d="m1690.9 850.49-18.207 5.1969c1.8431 5.1955 2.7576 11.626 2.7576 18.348v56.636h20.469v-55.292c4.749-4.2647 10.096-7.0353 14.212-7.0353 5.3446 0 6.894 2.6088 6.894 11.454v50.873h20.151v-57.131c0-4.8976-0.44-8.2313-1.5203-11.136-2.4395-6.7224-10.093-11.313-18.808-11.313-4.581 0-9.9196 1.2168-14.035 3.3586-3.3705 1.8247-5.978 3.6566-9.0505 5.7979 0-3.2028-1.0385-6.5547-2.8636-9.7575z" fill-rule="evenodd"/>
    <path d="m1631.9 850c-10.256 0-17.962 3.3098-24.297 10.418-6.8135 7.55-9.6487 16.774-9.6487 30.659 0 24.325 14.324 40.028 36.532 40.028 10.865 0 20.243-3.442 29.156-10.697l-7.8309-12.131c-6.2055 5.1562-12.686 7.726-19.647 7.726-10.423 0-16.326-6.8056-16.326-18.738v-0.59431h44.713v-4.6845c0-16.168-3.1883-26.585-10.278-33.84-4.9901-5.1376-13.442-8.1455-22.374-8.1455zm0.3145 14.788c4.0694 0 6.9442 1.5246 8.9147 4.5447 1.8047 2.8726 2.4121 5.8962 2.4121 11.641v0.90893h-23.388v-0.31463c0-10.718 4.3448-16.78 12.061-16.78z" fill-rule="evenodd"/>
    <path d="m1542.2 816.22-21.123 4.9324c0.9223 3.2384 1.5369 10.667 1.5369 18.085v91.428h20.98v-56.687c4.6317-4.1604 11.303-7.2556 16.405-7.2556 5.8739 0 8.042 2.9604 8.042 10.83v53.112h20.194v-55.293c0-7.5687-0.4579-10.173-2.0015-14.654-2.4851-6.9466-10.498-11.294-20.552-11.294-8.0202 0-16.971 3.4043-22.374 8.5066 0-0.92278 0.2859-4.1625 0.2859-6.648v-15.762c0-7.5687-0.4526-14.97-1.394-19.301z" fill-rule="evenodd"/>
    <path d="m1324.7 850.07-19.976 3.7849v49.695c0 7.8822 0.4635 11.985 1.6821 15.455 2.5658 7.4213 11.94 12.546 22.85 12.546 8.1592 0 15.429-2.5396 20.432-7.3946 1.3662 3.175 3.4967 5.761 6.063 7.5699l14.404-8.2007c-3.0275-3.6367-4.6961-8.9381-4.6961-14.088v-59.192l-19.38 4.0653v54.531c-1.5139 3.8028-7.5789 7.4297-12.582 7.4297-3.027 0-6.0619-1.5403-7.1142-3.6448-1.0705-2.1227-1.6822-5.727-1.6822-12.687v-49.87z" fill-rule="evenodd"/>
    <path transform="translate(449.75 405.05)" d="m883.8 425.45a9.8706 9.8706 0 0 1-9.8706 9.8706 9.8706 9.8706 0 0 1-9.8706-9.8706 9.8706 9.8706 0 0 1 9.8706-9.8706 9.8706 9.8706 0 0 1 9.8706 9.8706z"/>
    <path transform="translate(475.75 405.05)" d="m883.8 425.45a9.8706 9.8706 0 0 1-9.8706 9.8706 9.8706 9.8706 0 0 1-9.8706-9.8706 9.8706 9.8706 0 0 1 9.8706-9.8706 9.8706 9.8706 0 0 1 9.8706 9.8706z"/>
    <path d="m1204.9 850.49-18.188 5.1875c1.8431 5.1955 2.75 11.621 2.75 18.344v56.656h20.469v-55.312c4.749-4.2647 10.103-7.0312 14.219-7.0312 5.3446 0 6.875 2.6231 6.875 11.469v50.875h20.156v-57.125c0-0.86492-0.034-1.6326-0.062-2.4062 2.9957-1.7662 9.9702-3.8982 12.469-3.8982 5.3446 0 6.875 3.7088 6.875 12.554v50.875h20.156v-57.125c0-4.8976-0.4197-8.2512-1.5-11.156-2.4395-6.7224-10.098-11.312-18.812-11.312-6.4359-0.11237-16.954 4.1853-21.688 9.0625-3.1789-5.4706-10.05-9.0625-17.75-9.0625-4.581 0-9.947 1.2332-14.062 3.375-3.3705 1.8247-5.9588 3.6399-9.0313 5.7812 0-3.2028-1.0499-6.5472-2.875-9.75h-5e-4z" fill-rule="evenodd"/>
    <path d="m1507.8 872.52 7.8459-13.667s-8.0836-8.4841-26.599-8.4841c-14.427 0-30.6 14.309-30.6 41.386 0 27.33 15.243 39.294 31.637 39.747 15.761 0.42832 23.285-6.9062 23.285-6.9062l-6.3273-14.112s-28.371 15.683-28.093-18.729 28.853-19.235 28.853-19.235z"/>
   </g>
   <path transform="translate(0 152.36)" d="m1482.8 379.66c-41.001 0-75.734 29.018-87.531 69.094 2.3575 2.0576 4.7611 4.4198 7.2187 7.1562 16.838 18.748 13.281 37.987 13.281 51.25v39.5c16.756 19.327 40.587 31.406 67.031 31.406 50.715 0 91.812-44.426 91.812-99.219s-41.098-99.188-91.812-99.188z" fill="#fff"/>
   <path d="m1518.8 700.77v-25.055h-49.036s-0.933-8.0414 10.022-19.686c16.493-17.532 42.864-24.122 41.668-59.669-0.5878-17.642-8.7285-39.869-40.952-40.193-32.228-0.32342-41.878 37.225-41.878 37.225l18.612 10.022s2.4843-5.7323 6.4983-11.775c3.909-5.8844 9.5897-11.725 18.199-11.849 10.947-0.15715 18.828 13.735 13.243 26.129-8.2136 18.23-27.515 27.654-44.383 47.962-7.247 8.7252-9.3062 23.677-9.3062 31.498l1e-4 15.391h77.312z" fill="#17357b"/>
  </g>
 </g>
</svg>
