<svg width="715.53" height="800" version="1.1" viewBox="0 0 715.53 800" xml:space="preserve" xmlns="http://www.w3.org/2000/svg"><defs><clipPath id="clipPath29502"><path d="m356.66 447.04h-1.96l1.582-1.168-0.614-1.875 1.599 1.185 1.61-1.203-0.642 1.9 1.616 1.168h-1.976l-0.602 1.923z"/></clipPath><clipPath id="clipPath29702"><path d="m356.66 447.04h-1.96l1.582-1.168-0.614-1.875 1.599 1.185 1.61-1.203-0.642 1.9 1.616 1.168h-1.976l-0.602 1.923z"/></clipPath></defs><g transform="matrix(1.1925 0 0 -1.1925 .017553 3378.6)"><g clip-path="url(#clipPath29502)"><g transform="translate(353.6,447.18)"><path d="m0 0h-0.113l0.092-0.066-0.035-0.108 0.091 0.067 0.091-0.067-0.035 0.108 0.091 0.066h-0.113l-0.034 0.111z" fill="#fff"/></g><g transform="translate(354.27,447.18)"><path d="m0 0h-0.113l0.092-0.066-0.035-0.108 0.091 0.067 0.091-0.067-0.035 0.108 0.091 0.066h-0.113l-0.034 0.111z" fill="#fff"/></g></g><g clip-path="url(#clipPath29702)"><path d="m363.31 443.3h-10.003v0.404h10.003z" fill="#bb1645"/></g><path d="m447.31 2320-16.871-47.425-16.923 47.425h-16.1l-14.66-69.646h15.483l9.0015 42.487 15.071-42.487h16.203l15.071 42.487 8.9501-42.487h15.534l-14.66 69.646z" fill="#3359b0"/><g transform="matrix(51.437,0,0,51.437,353.78,2320)"><path d="m7.5283e-5 3.0572e-5v-0.86002c0-0.079002-0.070002-0.195-0.219-0.2h-0.031001c-0.149 5e-3 -0.219 0.121-0.219 0.2v0.86002h-0.29201v-0.86002c0-0.23301 0.192-0.48501 0.50401-0.49401h0.046001c0.31101 0.01 0.50301 0.26101 0.50301 0.49401v0.86002z" fill="#3359b0"/></g><g transform="matrix(51.437,0,0,51.437,251.34,2250.3)"><path d="m0 0h0.815v0.294h-0.519v0.238h0.523v0.294h-0.523v0.232h0.524v0.294h-0.82z" fill="#3359b0"/></g><g transform="matrix(51.437,0,0,51.437,214.62,2292.8)"><path d="m1.4547e-5 1.8701e-5c-0.048001 0.017-0.076002 0.027001-0.188 0.067001-0.117 0.042001-0.113 0.152-0.037001 0.201 0.060001 0.040001 0.142 0.044001 0.25901-0.013 0.018-9e-3 0.114-0.072002 0.114-0.072002l0.151 0.213c-0.019 0.013-0.039001 0.027001-0.055001 0.038001-0.038001 0.026001-0.084002 0.050001-0.085002 0.051001h-1e-3c-0.087002 0.051001-0.189 0.078002-0.29801 0.078002-0.088002 0-0.181-0.019-0.25901-0.072002-0.109-0.075002-0.166-0.177-0.166-0.30301 0-0.31601 0.28501-0.40001 0.39301-0.43101 0.137-0.040001 0.181-0.086002 0.192-0.139l-1e-3 -1e-3c0.01-0.047001-0.013-0.097002-0.058001-0.127-0.068002-0.045001-0.16-0.050001-0.29201 0.015-0.053001 0.026001-0.108 0.062001-0.153 0.095002l-0.158-0.24101-6e-3 -9e-3 0.092002-0.065002 0.015-9e-3c0.067001-0.044001 0.17-0.109 0.38001-0.109 0.28301 0 0.47201 0.169 0.47201 0.42001 0 0.191-0.105 0.32901-0.31101 0.41301" fill="#3359b0"/></g><g transform="matrix(51.437,0,0,51.437,150.21,2320)"><path d="m0 0v-0.86c0-0.079-0.07-0.195-0.219-0.2h-0.031c-0.149 5e-3 -0.219 0.121-0.219 0.2v0.86h-0.292v-0.86c0-0.233 0.192-0.485 0.504-0.494h0.046c0.311 0.01 0.503 0.261 0.503 0.494v0.86z" fill="#3359b0"/></g><g transform="matrix(51.437,0,0,51.437,582.59,2320)"><path d="m0 0-0.3-0.996-0.299 0.996h-1.146v-0.298h0.348v-1.055h0.309v1.055h0.247l0.344-1.055h0.395l0.44 1.353z" fill="#3359b0"/></g><g transform="matrix(51.437,0,0,51.437,57.312,2251.1)"><path d="m0 0 0.293 0.825 0.175-0.825h0.301l-0.285 1.354h-0.313l-0.328-0.923-0.329 0.923h-0.313l-0.285-1.354h0.301l0.175 0.825 0.293-0.825z" fill="#3359b0"/></g><g transform="matrix(51.437,0,0,51.437,421.1,2833.1)"><path d="m0 0h-1e-3c-1.735 0-2.918-0.852-3.323-2.383-0.4 0.182-0.873 0.283-1.384 0.283-2.171 0-3.479-1.334-3.479-3.662v-3.081h2.249v2.95c0 1.125 0.445 1.753 1.23 1.753 0.811 0 1.229-0.602 1.229-1.753v-2.95h2.249v5.051c0 1.124 0.444 1.752 1.229 1.752 0.811 0 1.23-0.602 1.23-1.752v-5.051h2.249v5.181c0 2.328-1.308 3.662-3.478 3.662" fill="#3359b0"/></g></g><g transform="matrix(2.6373 0 0 2.6373 803.47 -1477.7)" fill="#3359b0" style="shape-inside:url(#rect891);white-space:pre" aria-label="PARIS"><path d="m-216.67 853.26v10.02h-5.8594v-28.438h11.094q3.2031 0 5.625 1.1719 2.4414 1.1719 3.75 3.3398 1.3086 2.1484 1.3086 4.9024 0 4.1797-2.8711 6.6016-2.8516 2.4023-7.9102 2.4023zm0-4.7461h5.2344q2.3242 0 3.5352-1.0938 1.2305-1.0938 1.2305-3.125 0-2.0898-1.2305-3.3789t-3.3984-1.3281h-5.3711z"/><path d="m-184.15 857.42h-10.273l-1.9531 5.8594h-6.2305l10.586-28.438h5.4297l10.645 28.438h-6.2305zm-8.6914-4.7461h7.1094l-3.5742-10.645z"/><path d="m-162.76 852.87h-4.668v10.41h-5.8594v-28.438h10.566q5.0391 0 7.7734 2.2461 2.7344 2.2461 2.7344 6.3476 0 2.9102-1.2695 4.8633-1.25 1.9336-3.8086 3.0859l6.1524 11.621v0.27343h-6.2891zm-4.668-4.7461h4.7266q2.207 0 3.418-1.1133 1.2109-1.1328 1.2109-3.1055 0-2.0117-1.1523-3.1641-1.1328-1.1523-3.4961-1.1523h-4.707z"/><path d="m-141.53 863.28h-5.8594v-28.438h5.8594z"/><path d="m-121.36 855.82q0-1.6602-1.1719-2.5391-1.1719-0.89843-4.2188-1.875-3.0469-0.99609-4.8242-1.9531-4.8438-2.6172-4.8438-7.0508 0-2.3047 1.2891-4.1016 1.3086-1.8164 3.7305-2.832 2.4414-1.0156 5.4688-1.0156 3.0469 0 5.4297 1.1133 2.3828 1.0938 3.6914 3.1055 1.3281 2.0117 1.3281 4.5703h-5.8594q0-1.9531-1.2305-3.0273-1.2305-1.0938-3.457-1.0938-2.1484 0-3.3398 0.91797-1.1914 0.89843-1.1914 2.3828 0 1.3867 1.3867 2.3242 1.4062 0.9375 4.1211 1.7578 5 1.5039 7.2852 3.7305t2.2852 5.5469q0 3.6914-2.793 5.8008-2.793 2.0898-7.5195 2.0898-3.2812 0-5.9766-1.1914-2.6953-1.2109-4.1211-3.3008-1.4062-2.0898-1.4062-4.8438h5.8789q0 4.707 5.625 4.707 2.0898 0 3.2617-0.83984 1.1719-0.85938 1.1719-2.3828z"/></g></svg>
