<svg space="preserve" version="1.1" viewBox="0 0 800 296.43" xmlns="http://www.w3.org/2000/svg">
 <link href="" rel="stylesheet" type="text/css"/>
 <style type="text/css"/>
 <style type="text/css">.st0{fill:#FFFFFF;}
	.st1{fill:#D61F2C;}
	.st2{fill:#F3F2F3;}
	.st3{fill:#9B9696;}
	.st4{fill:#EFEFEF;}
	.st5{fill:#9A9595;}</style>
 <g transform="matrix(47.574 0 0 -47.574 -7012.6 3759.2)">
  <path d="m157.99 72.788h6.231v6.231h-6.231z" fill="#ecedea"/>
  <g transform="translate(160.62 74.522)">
   <path d="m0 0v1.007h-1.007v-1.007h-0.378v2.33h0.378v-0.993h1.007v0.993h0.381v-2.33z" fill="#8c898a"/>
  </g>
  <g transform="translate(162.75 75.726)">
   <path d="m0 0c0 0.281-0.035 0.484-0.105 0.609-0.071 0.125-0.216 0.187-0.436 0.187h-0.429v-1.667h0.429c0.225 0 0.374 0.083 0.449 0.248 0.036 0.084 0.061 0.174 0.073 0.269 0.013 0.095 0.019 0.213 0.019 0.354m-0.541-1.204h-0.806v2.33h0.806c0.358 0 0.603-0.091 0.735-0.272 0.131-0.182 0.197-0.466 0.197-0.854 0-0.197-0.013-0.365-0.039-0.502s-0.072-0.261-0.138-0.372c-0.129-0.22-0.381-0.33-0.755-0.33" fill="#8c898a"/>
  </g>
 </g>
 <g transform="matrix(47.574 0 0 -47.574 -7012.6 3759.2)">
  <path d="m147.4 79.018h10.004v-6.23h-10.004z" fill="#e31935" fill-rule="evenodd"/>
  <g transform="translate(155.35 77.095)">
   <path d="m0 0-0.587-1.687-0.586 1.687h-1.315v1.08l-0.883-0.174v-3.075c0-0.426 0.265-0.691 0.692-0.691h0.719v0.827h-0.339c-0.113 0-0.189 0.042-0.189 0.197v0.985h0.689l0.769-1.973h0.887l1.101 2.824zm-4.487-2e-3h-1.886v-2.82h0.883v1.971h0.602c0.124 0 0.188-0.061 0.188-0.189v-1.782h0.883v2.149c0 0.397-0.273 0.671-0.67 0.671" fill="#fff"/>
  </g>
 </g>
</svg>
