<?xml version="1.0" encoding="UTF-8"?>
<svg id="svg26" width="837.86mm" height="178.65mm" version="1.1" viewBox="0 0 2968.8 633.01" xmlns="http://www.w3.org/2000/svg" xmlns:cc="http://creativecommons.org/ns#" xmlns:dc="http://purl.org/dc/elements/1.1/" xmlns:rdf="http://www.w3.org/1999/02/22-rdf-syntax-ns#">
 <metadata id="metadata32">
  <rdf:RDF>
   <cc:Work rdf:about="">
    <dc:format>image/svg+xml</dc:format>
    <dc:type rdf:resource="http://purl.org/dc/dcmitype/StillImage"/>
   </cc:Work>
  </rdf:RDF>
 </metadata>
 <g id="g12" transform="translate(1325.6 16.692)" fill="#fff">
  <g id="g10" fill="#fff">
   <path id="path2" d="m329.97-15.989c9.85 0.175 19.7-1.5125 29.562-0.2 33.588 0.575 67.2 5.8125 99.25 16.012 47.962 15.538 92.75 41.988 127.75 78.475 38.125 39.125 64.275 89.325 76.712 142.39 12.275 54.938 11.725 112.81-2.2375 167.38-13.75 51.912-40.838 100.52-79.225 138.25-38.175 37.625-86.675 64.2-138.32 78.062-26.388 7.2-53.675 10.288-80.888 11.9-8.35-0.1125-16.7-0.4875-25.038-0.025-3.45 0.2625-6.8375-0.2875-10.188-0.825-56.85-2.6-113.21-19.638-161.22-50.325-43.562-27.55-79.438-66.888-103.12-112.64 20.638-43.725 30.3-92.075 31.775-140.22 1.5875-56.288-7.6125-113.68-31.775-164.89 22.825-44.288 57.088-82.587 98.775-109.91 25.15-16.562 52.688-29.512 81.425-38.488 28.1-8.8 57.4-13.425 86.775-14.938m-4.1375 160.2c-44.7 5.7-86.4 33.55-106.95 73.938-13.4 25.262-19.675 54.162-18.85 82.7-0.9 41.65 13.788 84.325 43.275 114.28 18.275 18.075 41.425 31.262 66.45 37.288 28.988 7.0375 59.85 6.2375 88.4-2.4875 21.15-6.925 41.112-18.238 56.75-34.212 19.162-18.488 31.975-42.888 38.712-68.5 6.9875-27.8 7.675-57.15 2.1375-85.275-5.0875-25.512-16.175-50.05-33.175-69.862-14.85-17.45-34.3-30.825-55.625-39.15-25.675-9.9875-53.938-12.225-81.125-8.7125z"/>
   <path id="path4" d="m1103.2-5.976h166.25c0.3896 120.68-0.7648 241.4 0.5906 362.06 1.3579 41.234 31.508 79.671 72.947 86.535 45.588 10.348 103.84-2.6567 123.8-49.503 15.931-38.953 8.4183-81.809 10.146-122.79v-276.29c55.421-0.025 110.84-0.0125 166.26-0.0125-0.3383 124.35 0.7271 248.73-0.6375 373.06-2.6305 75.111-34.408 153.55-99.962 194.86-72.066 45.478-162.59 49.442-244.61 36.319-71.927-11.672-140.41-56.024-169.82-124.32-33.798-70.287-23.337-149.91-24.969-225.23 0-84.898-0.01-169.8 0-254.69z"/>
   <path id="path6" d="m-521.22-5.351s177.49 0.025 266.22-0.0125c6.7125-0.275 13.362 1.075 20.088 0.625 49.462 1.6125 98.988 12.475 143.44 34.562 30.512 15.238 58.588 35.7 81.438 61.088 41.425 45.525 65.562 105.25 72.038 166.15 5.3625 50.162 1.85 101.72-13.675 149.91-17.088 52.788-49.425 101.1-94.038 134.49-25.325 19.462-54.188 34.025-84.3 44.462-35.325 12.112-72.65 17.762-109.89 18.738-93.775-0.0375-281.32-0.0125-281.32-0.0125v-152.5s180.02-0.025 270.04 0.0125c35.938-0.2875 73.175-11.425 99.525-36.712 14.7-13.575 25.525-31.012 32.45-49.7 12.138-33.775 13.8-70.812 7.2875-105.94-4.3375-22.738-13-45.038-27.675-63.138-15.1-19.55-36.85-33.138-60.062-41.012-20.638-6.875-42.538-8.325-64.125-8.5125h-257.44z"/>
   <path id="path8" d="m882.5-5.251 201.71-0.0625c-73.2 99.464-147.11 198.45-220.73 297.63 78.6 102.11 240.46 312.34 240.46 312.34l-203.94-0.1s-115.02-155.43-172.19-233.01c0 0-24.85 0.025-37.275-0.05 5.025-24.438 6.9306-49.389 7.025-74.338s-4.0662-50.353-7.55-73.2c12.875 0.1125 38.65 0.025 38.65 0.025z"/>
  </g>
 </g>
 <g id="g24" transform="translate(-.0308 1.2367e-7)">
  <g id="g22" transform="translate(1325.6 16.692)">
   <path id="path14" d="m-745.59 170.45c21.662-5.525 44.962-5.525 66.362 1.2 17.8 5.725 33.95 17.5 43.288 33.9 10.788 18.588 13.188 41.288 9.3 62.2-3.6 20.412-16.55 37.588-30.675 52.088-15.9 17.062-49.15 49.788-49.15 49.788l77.75 0.025 0.05 58.05-165.7 0.025-0.025-48.25s26.338-26.562 40.262-39.038c15.788-16.262 32.475-31.588 48.338-47.788 10.738-10.012 18.675-24.225 17.738-39.288 0.1-11.15-7.1125-21.688-17.312-26.012-10.888-4.3375-23.25-3.1875-34.088 0.7-12.7 4.975-23.675 13.912-32.225 24.438-11.879-13.518-19.581-22.189-35.938-40.836 15.625-18.888 38.088-35.189 62.025-41.201z" fill="#fff"/>
   <path id="path16" d="m-1325.5 172.14 255.58 0.0125v255.61l-255.6-0.0125z" fill="#f38724"/>
   <path id="path18" d="m-1070 172.15 62.35 0.0375 115.11 147.49 0.0375-147.52 65.712 0.125-0.0875 255.5-62.7 0.0625-116.24-148.3 0.1875 148.22h-64.375z" fill="#fff"/>
   <path id="path20" d="m-521.2 172.15h65.575l-35.375 71.462-42.088 84.775 41.25 0.0125-1e-3 -26.675 19.564-40.288 39.712 0.025 0.1 66.938 31.938 0.1125-0.1 58.038-31.688-0.1125-0.15 41.338h-59.375v-41.238l-112.5-0.025 0.0625-44.4z" fill="#fff"/>
  </g>
 </g>
</svg>
