<svg width="800" height="585.57" version="1.1" viewBox="0 0 800 585.57" xmlns="http://www.w3.org/2000/svg">
 <defs>
  <clipPath id="clipPath323">
   <rect width="196.82" height="144.07" fill="none"/>
  </clipPath>
  <clipPath id="clipPath329">
   <rect width="196.82" height="144.07" fill="none"/>
  </clipPath>
  <clipPath id="clipPath335">
   <rect width="196.82" height="144.07" fill="none"/>
  </clipPath>
 </defs>
 <path d="m765.26 0-397.64 33.142 6.1578 73.841-373.78 31.126 34.606 415.56 390.58-32.517-6.2066-74.459 381.02-31.704-34.557-414.99z" fill="#872eb1" stroke-width="4.0646"/>
 <path transform="matrix(4.0646 0 0 4.0646 0 -.00406)" d="m149.71 22.759-0.872 7.186q-6.288-7.816-19.682-6.7a33.327 33.327 0 0 0-17.24 6.461 36.316 36.316 0 0 0-11.818 14.84 38.7 38.7 0 0 0-3.315 14.491 19.606 19.606 0 0 0-7.158-11.516q-7-5.3-17.834-4.4a29.771 29.771 0 0 0-10.37 2.824 28.155 28.155 0 0 0-8.939 6.754l0.781-6.809-25.932 2.163-7.725 67.7 27.518-2.292 3.784-32.555q1.5-12.873 11.243-13.686 6.942-0.577 7.539 6.6a29.214 29.214 0 0 1-0.155 4.061l-3.907 34.044 27.518-2.3 4.243-37.377c0.111-0.98 0.178-1.947 0.226-2.915a30.853 30.853 0 0 0 4.624 11.259 27.747 27.747 0 0 0 11.175 9.8 26.046 26.046 0 0 0 13.456 2.558 25.086 25.086 0 0 0 17.41-8.808l-0.71 6.191 25.932-2.161 7.725-67.7zm-5.937 42.79a10.7 10.7 0 0 1-8.36 4.866 9.347 9.347 0 0 1-7.483-2.26 10.866 10.866 0 0 1-3.252-7.388q-0.577-6.942 2.427-11.362a10.705 10.705 0 0 1 8.36-4.862 9.364 9.364 0 0 1 7.483 2.256 10.893 10.893 0 0 1 3.252 7.392q0.577 6.942-2.427 11.358" clip-path="url(#clipPath335)" fill="#fff"/>
 <g transform="matrix(4.0646 0 0 4.0646 0 -.00406)">
  <path d="m136.26 142.51a7.3 7.3 0 0 1-2.55 1.162 13.052 13.052 0 0 1-3.188 0.393 9.487 9.487 0 0 1-6.718-2.2q-2.385-2.207-2.391-6.5l-0.024-9.994-3.756 0.012-0.016-5.427 3.756-8e-3 -0.013-5.928 7.051-0.016 0.016 5.921 6.06-0.016 0.012 5.425-6.06 0.016 0.021 9.906a3.321 3.321 0 0 0 0.793 2.372 2.936 2.936 0 0 0 2.241 0.829 4.532 4.532 0 0 0 2.847-0.912z" clip-path="url(#clipPath329)"/>
  <path d="m163.86 119.3-10.2 24.35-7.281 0.016-10.279-24.295 7.281-0.02 6.777 16.529 6.923-16.562z" clip-path="url(#clipPath323)"/>
 </g>
</svg>
