<svg version="1.1" viewBox="0 0 213.6 63.7" xml:space="preserve" xmlns="http://www.w3.org/2000/svg">
<style type="text/css">
	.st0{fill:#F39200;}
</style>
<g transform="translate(-63.3,-57.9)" fill="#fff"><path d="m221.9 120.9"/><path d="m208.7 75h-14.7l3.5-10.6h63.5l-3.2 10.6h-36.5v45.4h-12.7v-45.4z"/><path d="m257.6 120.9"/><path d="m242 120.5-13.4-44.3h13.8l2.4 12c1.4 6.9 3.7 13.1 5 20h0.2c1.4-6.7 3.2-13.4 5.1-19.8l9.2-30.5h12.6l-20 62.6z"/></g><g transform="translate(-63.3,-57.9)" fill="#f39200"><path class="st0" d="m63.5 99.4c0-3.9-0.1-7.1-0.2-10h8.4l0.4 4.3h0.2c1.3-2 4.4-5.1 9.7-5.1 6.4 0 11.2 4.3 11.2 13.5v18.5h-9.8v-17.4c0-4-1.4-6.8-4.9-6.8-2.7 0-4.3 1.8-5 3.7-0.2 0.6-0.3 1.5-0.3 2.5v18h-9.7z"/><path class="st0" d="m127 113.2c0 2.9 0.1 5.8 0.5 7.6h-8.8l-0.6-3.1h-0.1c-2 2.5-5.3 3.9-9 3.9-6.3 0-10.1-4.6-10.1-9.6 0-8.1 7.3-12 18.4-12v-0.4c0-1.7-0.9-4.1-5.7-4.1-3.2 0-6.6 1.1-8.6 2.4l-1.8-6.3c2.2-1.2 6.5-2.8 12.2-2.8 10.4 0 13.7 6.1 13.7 13.6zm-9.4-7.2c-5.1 0-9.1 1.2-9.1 4.9 0 2.5 1.6 3.7 3.9 3.7 2.4 0 4.4-1.6 5.1-3.6 0.1-0.5 0.2-1.1 0.2-1.6z"/><path class="st0" d="m134.7 75h9.9v18.2h0.1c1-1.4 2.3-2.5 3.9-3.3 1.5-0.8 3.3-1.2 5.1-1.2 6.2 0 10.9 4.3 10.9 13.7v18.2h-9.7v-17.2c0-4.1-1.4-6.9-5.1-6.9-2.6 0-4.2 1.6-4.9 3.5-0.2 0.6-0.3 1.4-0.3 2.1v18.6h-9.7z"/><path class="st0" d="m179.7 108.2c0.2 4 4.3 5.9 8.8 5.9 3.3 0 7.4-0.9 10-1.8v7.1c-3.2 1.3-7.1 2-11.3 2-10.6 0-16.7-6.1-16.7-15.9 0-7.9 4.9-16.7 15.8-16.7 10.1 0 13.9 7.9 13.9 15.6 0 1.6-0.2 3.1-0.3 3.9zm11.5-6.6c0-2.4-1-6.3-5.5-6.3-4.1 0-5.7 3.8-6 6.3z"/></g>
</svg>
