<svg version="1.1" viewBox="0 0 508.02 64.467" xml:space="preserve" xmlns="http://www.w3.org/2000/svg">
<path d="m188.75 1.9e-5h-154.1c-19.136 7.71e-4 -34.648 14.527-34.648 32.328 4.5e-5 17.801 15.512 32.137 34.648 32.138h154.1l22.67-32.233z" clip-rule="evenodd" fill-rule="evenodd" stroke-width=".97675"/><path d="m333.65 1.9e-5h139.72c19.136 7.71e-4 34.648 14.527 34.648 32.328-4e-5 17.801-15.512 32.137-34.648 32.138h-139.72l-21.268-32.233z" clip-rule="evenodd" fill-rule="evenodd" stroke-width=".97675"/><path d="m188.45 0 0.0293 6.4648c-13.337 1.5061-23.421 12.779-23.438 26.201 2e-3 13.526 10.227 24.863 23.682 26.256l0.0254 5.5449h144.9l-3.9e-4 -5.5957c13.354-1.4879 23.46-12.769 23.477-26.205-0.00663-13.444-10.115-24.736-23.477-26.225v-6.4414z" clip-rule="evenodd" fill="#fff" fill-rule="evenodd"/><path class="st0" d="m230.35 53.366h6.9l15.8-25.9 0.1 25.9 7.9 0.1 0.1-42.1h-6.5l-16.2 26.9v-26.8h-8z" clip-rule="evenodd" fill-rule="evenodd"/>
<path d="m352.1 32.333a21.911 22.176 0 0 1-21.911 22.176 21.911 22.176 0 0 1-21.911-22.176 21.911 22.176 0 0 1 21.911-22.176 21.911 22.176 0 0 1 21.911 22.176z" style="paint-order:stroke fill markers"/>
<path d="m270.55 53.366 8.2 0.1v-18.5h14v18.4l8.1 0.1 0.1-42.2h-8.1l-0.1 15.8-14 0.1v-15.8l-8.1-0.1z" clip-rule="evenodd" fill-rule="evenodd"/>
<path class="st0" d="m194.15 53.366 8.1 0.1 0.1-18.4 12.9 18.4h9.4l-16-23.4 14.6-18.7h-9.7l-11.2 14.2-0.1-14.1h-8.2z" clip-rule="evenodd" fill-rule="evenodd"/>
<path d="m112.15 53.166 47.1 0.1v-41.9l-8.2-0.1v34.8h-11.2l-0.1-34.7-8.1-0.1v34.8h-11.3v-34.7l-8.2-0.1z" clip-rule="evenodd" fill="#fff" fill-rule="evenodd"/>
<path d="m367.25 11.066-7.2988 42.199h7.9004l4.5-25.9 8.7988 25.9h7.3008l8.7988-25.9 4.5 25.9h7.9004l-7.2988-42.199h-7.8008l-9.75 28.75-9.75-28.75z" clip-rule="evenodd" fill="#fff" fill-rule="evenodd"/>
<path class="st1" d="m415.55 53.266h6.2962l16.404-25.6v25.6l8.2 3e-6v-42l-6.8-3e-6 -16.1 26.6v-26.5h-8.1z" clip-rule="evenodd" fill="#fff" fill-rule="evenodd"/>
<path d="m51.252 27.166h-13.9v-15.9h-8.3v42h8.3v-18.4h13.9v18.4h8.3v-41.9l-8.2-0.1z" clip-rule="evenodd" fill="#fff" fill-rule="evenodd"/>
<path d="m81.38 11.166-15.828 42.1h8.3008l3.7988-8.6992h16.201l3.7988 8.6992h8.3008l-15.828-42.1zm4.3721 11.801 5.499 14h-11z" clip-rule="evenodd" fill="#fff" fill-rule="evenodd"/>
<path class="st1" d="m467.03 19.076c3.6662 0 6.122 0.6325 6.122 4.349 0 3.5913-2.4382 4.349-6.122 4.349h-2.878v-8.6979zm-11.178 34.19h8.2v-17.853h5.4602c2.3966 0 4.892-0.72231 7.8398-3.0465 5.3-4.2 6.2-18.4-5.5-20.5-1.7026-0.33107-3.9378-0.6-7.3911-0.6h-8.6089z" clip-rule="evenodd" fill="#fff" fill-rule="evenodd"/>
<path class="st2" d="m330.45 46.866c7.9 0 14.3-6.4 14.3-14.3s-6.4-14.3-14.3-14.3-14.3 6.4-14.3 14.3 6.5 14.3 14.3 14.3z" clip-rule="evenodd" fill="#e63309" fill-rule="evenodd"/>
</svg>
