<svg width="572.08pt" height="211.97pt" version="1.1" viewBox="0 0 572.08 211.97" xmlns="http://www.w3.org/2000/svg">
 <defs>
  <linearGradient id="a" x1="454.78" x2="512.95" y1="172.62" y2="156.86" gradientUnits="userSpaceOnUse">
   <stop stop-color="#91181d" offset="0"/>
   <stop stop-color="#d92d29" offset="1"/>
  </linearGradient>
 </defs>
 <g transform="translate(-17.44 -4.7064)">
  <path d="m486.73 4.86c12.57-0.91 25.12 2.34 36.84 6.65 19.29 7.95 36.38 21.54 48 38.91 11.06 15.98 17.18 35.21 17.92 54.59 0.39 17.5-2.93 35.19-10.39 51.08-13.51 29.31-41.32 51.26-72.72 58.35-7.03 1.62-14.3 2.7-21.52 2.03-17.197-17.111-34.462-38.108-46.35-56.02-2.83-5.29-6.83-10.5-6.18-16.86 0.16473-1.8145 1.3198-3.24 3.47-3.24 23.933 0.11634 48.764 1.3189 76.19 0 16.35-1.02 33.16-2.25 48.37-8.89 8.25-3.5 15.76-9.67 18.85-18.31 3.15-9.72 2.55-20.18 0.93-30.13-3.17-17.54-11.68-34.2-24.51-46.63-14.81-15.41-34.8-25.26-55.52-29.87-4.38-1.11-8.91-1.17-13.38-1.66z" fill="url(#a)"/>
 </g>
 <g fill="#fff">
  <path d="m51.98 40.274c0.02-4.36 4.3-8.02 8.6-7.68 4.5-0.06 8.49 4.14 8.28 8.63 0.04 20.02-0.03 40.05 0.03 60.08 0.16 3.2-1.07 6.66-3.92 8.37-4.46 2.86-10.83 1.26-13.77-3.06-11.42-14.82-22.65-29.78-34.07-44.6-0.08 13.61 0.11 27.22-0.08 40.83 0.08 4.91-4.69 9.24-9.61 8.33-4.34-0.35-7.7-4.58-7.35-8.88 0.04-20.68-0.09-41.36 0.07-62.03 0.73-8.05 12.09-9.94 17.16-4.75 2.82 2.89 5.05 6.29 7.52 9.48 9.03 11.91 18.18 23.73 27.11 35.72 0.01-13.48-0.04-26.96 0.03-40.44z"/>
  <path d="m93.93 37.674c10.67-4.03 22.43-5.24 33.68-3.41 8.07 1.33 15.84 5.89 19.82 13.2 3.12 5.73 4.06 12.38 3.93 18.83-0.11 12.63 0.16 25.27-0.11 37.9-0.51 6.86-9.89 9.28-14.6 4.99-2.35-1.79-2.47-4.91-2.58-7.61-10.56 12.47-31.29 14.29-43.97 4.12-7.85-6.51-9.29-18.34-5.55-27.42 2.91-7.05 9.98-11.36 17.14-13.09 10.81-2.62 22.23-1.46 32.82 1.65-0.08-4.9-0.91-10.32-4.8-13.72-5.2-4.54-12.61-4.69-19.13-4.12-4.5 0.28-8.74 1.85-13.04 3.06-4.17 1.03-8.82-2.35-8.87-6.69-0.34-3.42 2.1-6.6 5.26-7.69m9.05 42.04c-3.43 3.32-4.17 8.95-2 13.15 1.75 3.24 5.24 5.18 8.74 5.94 7.88 1.45 17.16-0.41 22.17-7.12 3.02-3.86 2.9-8.98 2.84-13.62-6.78-2.35-14.04-3.54-21.21-2.78-3.8 0.49-7.76 1.65-10.54 4.43z"/>
  <path d="m159.79 41.264c0.55-4.6 5.14-8.3 9.78-7.6 3.94-0.04 6.78 3.35 7.94 6.81 6.36 16.52 12.86 32.98 19.17 49.51 6.84-17.03 13.3-34.21 20.19-51.22 1.9-5.02 8.63-6.7 12.9-3.71 3.58 2.32 4.41 7.34 2.65 11.04-8.46 19.46-16.94 38.91-25.4 58.36-1.71 4.23-5.66 7.91-10.48 7.64-4.79 0.29-8.68-3.37-10.36-7.56-8.32-19.01-16.59-38.05-24.92-57.06-0.78-1.97-1.62-4.04-1.47-6.21z"/>
  <path d="m248.4 38.124c9.81-4.15 20.72-5.32 31.27-4.36 7.53 0.76 15.25 3.57 20.21 9.54 5.73 6.51 7.13 15.59 6.98 23.98-0.15 12.4 0.21 24.82-0.17 37.22-0.98 6.7-10.3 9.14-14.85 4.43-2.26-1.77-2.2-4.81-2.25-7.41-4.9 5.47-11.61 9.36-18.94 10.28-8.98 1.24-18.99-0.35-25.79-6.76-10.9-9.78-8.71-30.34 4.64-36.94 12.45-6.27 27.35-5.1 40.35-1.22 0.12-5.44-1.2-11.62-6.04-14.81-6.78-4.43-15.5-3.63-23.09-2.26-4.42 0.86-9.48 4.21-13.7 0.99-4.56-3.04-3.64-10.65 1.38-12.68m13.85 38.93c-5.73 2.22-8.68 9.28-6.28 14.93 2.26 5.15 8.27 7.42 13.59 7.23 7.18 0.33 15.08-2.61 18.73-9.13 2.18-3.66 1.67-8.04 1.71-12.1-8.84-2.85-18.87-4.46-27.75-0.93z"/>
  <path d="m326.53 35.344c3.83-3.01 10.22-2.06 12.77 2.17 2.26 3.55 1.27 7.91 1.43 11.87 2.8-5.47 6.37-10.92 11.86-13.99 3.51-1.94 8.08-2.8 11.77-0.91 5.67 3 5.51 12.65-0.41 15.3-3.6 1.42-7.63 1.68-10.93 3.85-7.69 4.48-11.51 13.41-12.09 22-0.45 9.25 0.06 18.53-0.25 27.79-0.28 5.63-6.61 9.33-11.78 7.44-3.54-1.2-5.98-4.83-5.84-8.55-0.03-19.69-0.01-39.38-0.01-59.07-0.13-2.98 0.97-6.13 3.48-7.9z"/>
  <path d="m408.24 35.104c3.56-1.86 8.19-2.46 11.75-0.3 5.37 3.48 4.58 13.23-1.71 15.28-3.95 1.19-8.18 1.88-11.55 4.43-7.38 4.99-10.5 14.2-10.83 22.77-0.18 8.67 0.1 17.34-0.12 26.01-0.22 4.59-4.67 8.48-9.28 7.95-4.66 0.14-8.61-4.33-8.34-8.91-0.03-19.69 0.01-39.38-0.02-59.07-0.11-2.53 0.64-5.15 2.39-7.02 3.5-3.79 10.33-3.46 13.42 0.68 2.85 3.52 1.67 8.33 1.94 12.49 2.7-5.75 6.6-11.29 12.35-14.31z"/>
  <path d="m450.79 34.384c9.53-1.39 19.66-1.68 28.77 1.91 6.64 2.61 11.98 8.15 14.43 14.83 1.93 5.13 2.39 10.69 2.28 16.13-0.12 12.32 0.15 24.66-0.12 36.97-0.61 6.69-9.73 9.24-14.48 5.06-2.52-1.79-2.64-5.05-2.63-7.85-10.16 12.19-30.04 14.35-42.82 5.18-9.07-6.36-10.99-19.54-6.4-29.15 2.98-6.24 9.22-10.3 15.76-12 11.09-2.98 22.92-1.87 33.81 1.38-0.01-5.31-1.16-11.28-5.8-14.55-6.4-4.53-14.89-3.86-22.24-2.7-4.63 0.53-9.31 4.14-13.92 1.75-4.96-2.28-5.1-10.04-0.44-12.74 4.26-2.26 9.09-3.28 13.8-4.22m-3.36 45.77c-2.83 3.03-3.31 7.67-2.11 11.51 2 5.21 7.95 7.62 13.21 7.55 7.22 0.38 15.34-2.33 19.1-8.9 2.31-3.66 1.79-8.15 2.02-12.26-6.77-2.34-14.01-3.53-21.16-2.78-4.04 0.48-8.23 1.82-11.06 4.88z"/>
  <path d="m85.1 145.89c2.2-1.08 4.75 0.9 4.61 3.27l0.06 52.22c0.11 1.95-0.67 4.8-3.12 4.63-2.06 0.29-3.71-1.78-3.48-3.73l-0.04-51.98c-0.12-1.67 0.23-3.68 1.97-4.41z"/>
  <path d="m299.27 146.92c2.05-2.59 5.61-0.54 7.47 1.29-2.7 3.09-5.63 6-8.82 8.58-1.35 1.26-3.3198 0.84223-4.88 0.64 1.35-3.88 3.79-7.26 6.23-10.51z"/>
  <path d="m6.91 152.44c0-1.5164 1.5627-2.6274 3.1-2.6274 2.0577 0 3.1 1.2842 3.1 2.6274l0.1 11.02c4.2591 0 11.215-0.0178 12.01 0.19 1.1952 0.39337 1.7979 1.5268 1.7912 2.6488-0.0065 1.1028-0.60166 2.1944-1.8012 2.5612-1.1532 0.30166-7.6517 0.1734-11.96 0.26l-0.01 24.18c-0.04 2.35 0.6 5.2 2.96 6.28 2.89 1.65 6.18 0.16 9.25 0.49 1.66 1.2 1.97 4.18-0.2 4.97-4.54 2.05-10.25 1.93-14.44-0.92-3.09-2.21-4.1-6.2-4.05-9.81l-0.04-25.01c-2.7243 0-6.72-0.0406-6.72-3.12 0-2.8398 4.0678-2.79 6.75-2.79z"/>
  <path d="m43.251 165.02c6.57-3.77 15.44-3.39 21.49 1.27 5.39 4.23 8.11 11.28 7.82 18.04-0.05 1.41-1.48 2.69-2.9 2.57l-30.5 0.06c0.71 2.99 1.45 6.09 3.45 8.52 4.38 5.95 13.39 6.97 19.57 3.35 1.7-1 3.17-2.33 4.86-3.35 2.48-1.08 4.83 2.29 3.15 4.25-8.01 9.07-23.97 9.29-31.96 0.08-8.97-9.96-6.85-28.02 5.02-34.79m1.4 6.12c-3.28 2.68-4.62 6.87-5.49 10.86h27.16c-0.89-4.24-2.21-8.83-5.84-11.54-4.56-3.58-11.58-3.25-15.83 0.68z"/>
  <path d="m111.07 165.02c6.57-3.77 15.44-3.39 21.49 1.27 5.39 4.23 8.11 11.28 7.82 18.04-0.05 1.41-1.48 2.69-2.9 2.57l-30.5 0.06c0.71 2.99 1.45 6.09 3.45 8.52 4.38 5.95 13.39 6.97 19.57 3.35 1.7-1 3.17-2.33 4.86-3.35 2.48-1.08 4.83 2.29 3.15 4.25-8.01 9.07-23.97 9.29-31.96 0.08-8.97-9.96-6.85-28.02 5.02-34.79m1.4 6.12c-3.28 2.68-4.62 6.87-5.49 10.86h27.16c-0.89-4.24-2.21-8.83-5.84-11.54-4.56-3.58-11.58-3.25-15.83 0.68z"/>
  <path d="m289.99 163.05c8.09-1.9 17.24 0.8 22.43 7.42 6.37 7.8 6.47 19.97 0.13 27.81-5.29 6.87-14.79 9.84-23.11 7.63-8.58-2.04-15.25-9.89-16.05-18.65-1.59-10.75 5.95-21.89 16.6-24.21m0.06 6.02c-6.66 2.22-10.62 9.46-10.11 16.27 0.01 8.55 7.9 16.38 16.61 15.36 9.71-0.47 16.26-11.31 13.53-20.33-1.73-8.73-11.62-14.38-20.03-11.3z"/>
  <path d="m334.02 170.12c4.32-7.07 13.76-9.46 21.24-6.35 5.77 2.22 9.17 8.47 9.1 14.49 0.04 7.7-0.02 15.4 0.03 23.1-0.09 1.49 0.17 3.58-1.53 4.26-1.81 1.18-4.8-0.13-4.84-2.4-0.21-7.63 0.06-15.28-0.08-22.91-0.09-3.7-1.4-7.68-4.54-9.89-4.81-3.28-12.01-2.57-15.98 1.75-2.13 2.17-3.26 5.2-3.36 8.23-0.2 7.63 0.17 15.29-0.15 22.92-0.14 2.23-3.01 3.44-4.83 2.31-1.99-0.96-1.47-3.56-1.62-5.36 0.1-11.34-0.11-22.69 0.09-34.03-0.2-2.41 2.77-4.3 4.81-2.9 2.37 1.39 1.48 4.51 1.66 6.78z"/>
  <path d="m145.5 167.15c-1.54-3.48 4.43-6.12 5.92-2.56l13.99 33.53 12.89-31.19c0.73-1.55 1.23-3.6 3.14-4.08 2.56-0.37 4.83 2.58 3.46 4.89l-15.59 35.34c-0.60727 1.7414-1.9126 3.2293-4.0295 3.2293-2.8377 0-3.7371-2.9233-4.7605-4.8893z"/>
  <path d="m202.91 150.82a3.9101 4.0181 0 0 1-3.9101 4.0181 3.9101 4.0181 0 0 1-3.9101-4.0181 3.9101 4.0181 0 0 1 3.9101-4.0181 3.9101 4.0181 0 0 1 3.9101 4.0181z" style="paint-order:normal"/>
  <path d="m196.9 163.54c2.11-1.72 5.255-0.33081 5.255 2.83v36.808c0 1.5501-0.86048 2.8647-3.0246 2.8647-1.7062 0-3.418-1.0232-3.3654-2.7928v-33.95c0-2.0908-0.17468-4.8894 1.135-5.76z"/>
  <path d="m221.88 163.82c6.73-2.4 14.48-0.93 20.51 2.68 2.37 1.41 1.06 5.81-1.88 5.23-4.96-2.01-10.35-4.95-15.82-2.98-3.37 0.95-5.94 5.54-3.08 8.37 5.95 4.89 14.9 4.07 20.47 9.65 4.96 5.09 2.7 14.4-3.44 17.51-8.16 4.33-18.43 1.8-25.55-3.46-2.53-1.95 0.59-6.39 3.25-4.5 5.46 3.31 12.44 6.4 18.71 3.45 3.6-1.46 4.88-7.02 1.51-9.39-6.27-4.32-15.34-3.44-20.5-9.59-4.35-5.76-0.9-14.82 5.82-16.97z"/>
  <path d="m263.14 150.82a3.9101 4.0181 0 0 1-3.9101 4.0181 3.9101 4.0181 0 0 1-3.9101-4.0181 3.9101 4.0181 0 0 1 3.9101-4.0181 3.9101 4.0181 0 0 1 3.9101 4.0181z" style="paint-order:normal"/>
  <path d="m257.13 163.54c2.11-1.72 5.255-0.33081 5.255 2.83v36.808c0 1.5501-0.86048 2.8647-3.0246 2.8647-1.7062 0-3.418-1.0232-3.3654-2.7928v-33.95c0-2.0908-0.17468-4.8894 1.135-5.76z"/>
 </g>
</svg>
