<svg width="115.91pt" height="156.23pt" version="1.1" viewBox="0 0 115.91 156.23" xmlns="http://www.w3.org/2000/svg">
 <defs>
  <linearGradient id="a" x1="454.78" x2="512.95" y1="172.62" y2="156.86" gradientUnits="userSpaceOnUse">
   <stop stop-color="#91181d" offset="0"/>
   <stop stop-color="#d92d29" offset="1"/>
  </linearGradient>
 </defs>
 <g transform="matrix(.73703 0 0 -.73703 -318.59 159.69)">
  <path d="m486.73 4.86c12.57-0.91 25.12 2.34 36.84 6.65 19.29 7.95 36.38 21.54 48 38.91 11.06 15.98 17.18 35.21 17.92 54.59 0.39 17.5-2.93 35.19-10.39 51.08-13.51 29.31-41.32 51.26-72.72 58.35-7.03 1.62-14.3 2.7-21.52 2.03-17.197-17.111-34.462-38.108-46.35-56.02-2.83-5.29-6.83-10.5-6.18-16.86 0.16473-1.8145 1.3198-3.24 3.47-3.24 23.933 0.11634 48.764 1.3189 76.19 0 16.35-1.02 33.16-2.25 48.37-8.89 8.25-3.5 15.76-9.67 18.85-18.31 3.15-9.72 2.55-20.18 0.93-30.13-3.17-17.54-11.68-34.2-24.51-46.63-14.81-15.41-34.8-25.26-55.52-29.87-4.38-1.11-8.91-1.17-13.38-1.66z" fill="url(#a)"/>
 </g>
 <g transform="translate(-24.58 -20.527)">
  <path d="m67.684 93.56c8.7116-7.7752 23.004-8.4591 32.516-1.7601 7.04 5.17 8.73 15.27 5.82 23.16-2.15 5.97-7 10.34-11.69 14.37l-17.29 14.41h25.99c2.58-0.11 5.02 1.67 5.39 4.29 0.7 3.21-2.16 6.3-5.37 6.13h-33.06c-3.05-0.13-6.69 0.27-9.08-2.01-2.31-2.65-1.3-6.88 1.32-8.93l23.74-20.24c2.9-2.74 5.91-5.49 7.87-9.02 2.17-3.95 2.16-9.36-1.01-12.78-3.76-4.22-10.58-4.51-15.17-1.52-2.9754 1.7141-5.551 5.8052-7.39 6.61-3.18 1.67-8.03-0.49-7.96-4.36 0.01392-3.7935 3.0254-6.2461 5.3738-8.3499z" fill="#fff"/>
 </g>
</svg>
