<svg width="756.73" height="443" version="1.1" viewBox="0 0 200.21 117.21" xmlns="http://www.w3.org/2000/svg">
 <link href="" rel="stylesheet" type="text/css"/>
 <style type="text/css"/>
 <g transform="matrix(.43169 0 0 .43169 215.65 27.125)" fill="#173e7d" stroke-width="1px" aria-label="Mecklenburg-Vorpommern">
  <path d="m-388.84 199.62h-3.6133v-24.492l-5.7422 24.062h-3.3008l-5.625-24.062v24.492h-3.6133v-28.652h6.3672l3.7305 16.445q0.42969 1.9531 0.9375 5.2539 0.50781-3.3984 0.9375-5.2539l3.8281-16.445h6.0938z"/>
  <path d="m-370.95 192.79v1.0742q0 3.0469-1.8359 4.6875-1.7188 1.543-4.7656 1.543-3.4375 0-5.2148-1.9726-1.582-1.7578-1.582-4.8633v-9.2774q0-3.457 2.0508-5.3125 1.8164-1.6406 4.8828-1.6406 3.1641 0 4.9024 1.9141 1.5625 1.7578 1.5625 4.707v5.7617h-9.7461v4.2773q0 3.2227 3.125 3.2227 1.6602 0 2.3633-0.76172 0.70312-0.78125 0.70312-2.6367v-0.72265zm-3.4766-6.3086v-3.0859q0-1.6016-0.82032-2.4805-0.82031-0.87891-2.3242-0.87891-1.5234 0-2.3438 0.87891-0.82031 0.85937-0.82031 2.4805v3.0859z"/>
  <path d="m-354.07 191.93v1.9727q0 3.0469-1.8164 4.668-1.6797 1.5234-4.707 1.5234-3.3203 0-5.0586-1.9336-1.5625-1.7383-1.5625-4.8047v-10q0-2.8125 1.7383-4.5508 1.8359-1.8164 4.8438-1.8164 3.1836 0 4.9609 1.9531 1.4648 1.6211 1.4648 4.1406v1.8164h-3.6133v-1.0742q0-3.6133-2.8125-3.6133-2.9688 0-2.9688 3.7305v8.9844q0 2.0898 0.70312 3.0469 0.72266 0.9375 2.3047 0.9375 1.5625 0 2.2266-0.87891 0.6836-0.89843 0.6836-2.9883v-1.1133z"/>
  <path d="m-335.44 199.62h-3.9062l-4.9805-11.465-2.3242 3.0859v8.3789h-3.6133v-29.551h3.6133v16.055l6.2305-8.6719h4.1602l-5.625 7.9102z"/>
  <path d="m-328.97 199.62h-3.6133v-29.551h3.6133z"/>
  <path d="m-311.34 192.79v1.0742q0 3.0469-1.8359 4.6875-1.7188 1.543-4.7656 1.543-3.4375 0-5.2148-1.9726-1.582-1.7578-1.582-4.8633v-9.2774q0-3.457 2.0508-5.3125 1.8164-1.6406 4.8828-1.6406 3.1641 0 4.9023 1.9141 1.5625 1.7578 1.5625 4.707v5.7617h-9.7461v4.2773q0 3.2227 3.125 3.2227 1.6602 0 2.3633-0.76172 0.70313-0.78125 0.70313-2.6367v-0.72265zm-3.4766-6.3086v-3.0859q0-1.6016-0.82031-2.4805-0.82031-0.87891-2.3242-0.87891-1.5234 0-2.3438 0.87891-0.82031 0.85937-0.82031 2.4805v3.0859z"/>
  <path d="m-294.11 199.62h-3.6133v-16.445q0-2.7539-2.207-2.7539-1.7383 0-3.7109 2.0117v17.188h-3.6133v-22.168h3.3594l0.11719 2.0703q2.4414-2.4609 4.9023-2.4609 4.7656 0 4.7656 5.332z"/>
  <path d="m-286.3 179.25q2.3828-2.1875 4.9023-2.1875 2.8711 0 4.1602 2.2656 0.9375 1.6602 0.9375 4.2773v10.352q0 2.2266-0.89844 3.7695-1.3281 2.2852-4.1602 2.2852-2.3242 0-5.0195-2.1875l-0.0977 1.7969h-3.4375v-29.551h3.6133zm0 15.723q1.8945 1.7773 3.7695 1.7773 2.6172 0 2.6172-3.1445v-9.8438q0-1.8359-0.60546-2.6367-0.60547-0.80078-2.0117-0.80078-1.7578 0-3.7695 1.7188z"/>
  <path d="m-259.17 199.62h-3.2617l-0.17578-1.9336q-2.5 2.3242-5.1367 2.3242-4.5703 0-4.5703-5.625v-16.934h3.6133v16.719q0 1.3086 0.46875 1.8555 0.46875 0.54688 1.6016 0.54688 2.0508 0 3.8477-1.8945v-17.227h3.6133z"/>
  <path d="m-245.3 181.24q-4.1992 0.19531-5.918 4.2383v14.141h-3.6133v-22.168h3.4766v3.6523q1.4844-2.1289 2.7344-2.9688t3.3203-1.0742z"/>
  <path d="m-238.19 191.75q-0.0781 0.0977-0.11718 0.15625-0.48828 0.58594-0.48828 1.0352 0 0.5664 0.50781 0.9375 0.50781 0.37109 1.9922 0.8789l4.082 1.4258q2.9688 1.0352 4.1602 2.3047 1.2109 1.2695 1.2109 3.3984 0 3.7695-3.1055 5.5273-2.2656 1.2695-5.5664 1.2695t-5.5469-1.2891q-2.793-1.6016-2.793-4.7656 0-3.6914 4.1602-5.6836-2.3633-0.83984-2.3633-2.9102 0-0.9375 0.42968-1.6406 0.44922-0.72265 1.5039-1.543-1.0156-0.44922-1.6406-1.7578t-0.625-3.0469v-3.1445q0-3.3789 2.6367-4.9023 1.6797-0.97656 4.1797-0.97656t4.2578 1.0352q1.8555-1.7578 3.6133-1.7578h0.64453v2.8711q-0.85938-0.13672-1.1328-0.13672-0.78125 0-1.543 0.60547 0.85937 1.25 0.85937 3.2226v3.2227q0 6.0156-6.6992 6.0156-1.7188 0-2.6172-0.35156zm5.8398-5.4883v-3.1836q0-1.543-0.87891-2.4024-0.85937-0.85937-2.4023-0.85937-1.5234 0-2.4024 0.8789-0.8789 0.87891-0.8789 2.3828v3.1836q0 1.3672 0.8789 2.1875 0.89844 0.82031 2.4024 0.82031 1.5234 0 2.4023-0.80078 0.87891-0.82031 0.87891-2.207zm-5.3711 11.582q-2.793 1.4844-2.793 3.7305 0 1.8945 1.3476 2.9102 1.3672 1.0156 3.8672 1.0156 4.9609 0 4.9609-3.0859 0-1.25-0.74219-1.9336-0.74219-0.66406-2.8906-1.3867z"/>
  <path d="m-216.69 189.49h-8.8086v-3.4766h8.8086z"/>
  <path d="m-199.13 170.97-5.7226 28.652h-4.7656l-5.4492-28.652h3.7695q1.875 10.215 4.082 25 0.5664-4.5898 1.3476-8.8477l2.9492-16.152z"/>
  <path d="m-196.45 193.39v-9.9219q0-3.1445 1.9531-4.8633 1.8359-1.6211 4.9805-1.6211 3.5156 0 5.3125 1.9531 1.5039 1.6406 1.5039 4.5312v9.9219q0 3.3203-1.9727 5.0976-1.7969 1.6016-4.9023 1.6016-3.4766 0-5.3125-2.0312-1.5625-1.7383-1.5625-4.668zm10.137 0.17578v-10.02q0-1.5039-0.89843-2.4219-0.89844-0.91797-2.3828-0.91797-1.4844 0-2.3633 0.89844t-0.8789 2.4414v10.02q0 1.5625 0.85937 2.4414 0.85938 0.85938 2.4024 0.85938 1.543 0 2.4023-0.85938 0.85937-0.8789 0.85937-2.4414z"/>
  <path d="m-169.05 181.24q-4.1992 0.19531-5.918 4.2383v14.141h-3.6133v-22.168h3.4766v3.6523q1.4844-2.1289 2.7344-2.9688t3.3203-1.0742z"/>
  <path d="m-162.39 179.21q2.4414-2.1094 5.0781-2.1094 2.793 0 4.1406 2.3438 0.85937 1.5234 0.85937 3.5547v10.566q0 2.5-0.9375 4.1602-1.2891 2.2461-4.082 2.2461-2.4805 0-4.9805-2.1484v10.352h-3.6133v-30.723h3.4375zm0.0781 15.723q1.9141 1.7774 3.8086 1.7774 1.3867 0 2.0117-0.83985 0.625-0.85937 0.625-2.7734v-9.4141q0-1.5039-0.72265-2.4023-0.72266-0.91797-1.9141-0.91797-1.8555 0-3.8086 1.7383z"/>
  <path d="m-148.41 193.39v-9.9219q0-3.1445 1.9531-4.8633 1.8359-1.6211 4.9805-1.6211 3.5156 0 5.3125 1.9531 1.5039 1.6406 1.5039 4.5312v9.9219q0 3.3203-1.9727 5.0976-1.7969 1.6016-4.9023 1.6016-3.4766 0-5.3125-2.0312-1.5625-1.7383-1.5625-4.668zm10.137 0.17578v-10.02q0-1.5039-0.89844-2.4219t-2.3828-0.91797q-1.4844 0-2.3633 0.89844-0.87891 0.89844-0.87891 2.4414v10.02q0 1.5625 0.85938 2.4414 0.85937 0.85938 2.4023 0.85938t2.4023-0.85938q0.85938-0.8789 0.85938-2.4414z"/>
  <path d="m-108.93 199.62h-3.6133v-16.152q0-2.9297-2.1289-2.9297-1.6602 0-3.2227 2.0703v17.012h-3.6133v-16.445q0-2.6367-2.2852-2.6367-1.6406 0-3.125 1.7578v17.324h-3.6133v-22.168h3.2617l0.13672 1.9336q2.1484-2.2852 4.668-2.2852 2.8516 0 4.1406 2.7148 1.8164-2.7148 4.8633-2.7148 4.5312 0 4.5312 5.5469z"/>
  <path d="m-83.074 199.62h-3.6133v-16.152q0-2.9297-2.1289-2.9297-1.6602 0-3.2227 2.0703v17.012h-3.6133v-16.445q0-2.6367-2.2852-2.6367-1.6406 0-3.125 1.7578v17.324h-3.6133v-22.168h3.2617l0.13672 1.9336q2.1484-2.2852 4.668-2.2852 2.8516 0 4.1406 2.7148 1.8164-2.7148 4.8633-2.7148 4.5312 0 4.5312 5.5469z"/>
  <path d="m-65.633 192.79v1.0742q0 3.0469-1.8359 4.6875-1.7188 1.543-4.7656 1.543-3.4375 0-5.2148-1.9726-1.582-1.7578-1.582-4.8633v-9.2774q0-3.457 2.0508-5.3125 1.8164-1.6406 4.8828-1.6406 3.1641 0 4.9023 1.9141 1.5625 1.7578 1.5625 4.707v5.7617h-9.7461v4.2773q0 3.2227 3.125 3.2227 1.6602 0 2.3633-0.76172 0.70312-0.78125 0.70312-2.6367v-0.72265zm-3.4766-6.3086v-3.0859q0-1.6016-0.82031-2.4805-0.82031-0.87891-2.3242-0.87891-1.5234 0-2.3438 0.87891-0.82031 0.85937-0.82031 2.4805v3.0859z"/>
  <path d="m-52.02 181.24q-4.1992 0.19531-5.918 4.2383v14.141h-3.6133v-22.168h3.4766v3.6523q1.4844-2.1289 2.7344-2.9688t3.3203-1.0742z"/>
  <path d="m-35.75 199.62h-3.6133v-16.445q0-2.7539-2.207-2.7539-1.7383 0-3.7109 2.0117v17.188h-3.6133v-22.168h3.3594l0.11719 2.0703q2.4414-2.4609 4.9023-2.4609 4.7656 0 4.7656 5.332z"/>
 </g>
 <path d="m91.294 32.091v34.14h4.1114v-16.113h15.496v16.113h9.6555c9.7692 0 14.501-4.6863 14.508-17.434 4e-3 -7.3838-1.4518-16.706-15.298-16.706h-8.8654v14.409h-15.496v-14.409zm23.866 3.4696h3.4941c8.627 0 12.052 3.5914 12.038 13.78-0.0137 10.188-3.4959 13.508-12.038 13.508h-3.4941z" fill="#999" stroke-width=".39351"/>
 <g transform="matrix(.98201 0 0 .98201 -1.0017e-6 -1.7223e-6)">
  <g transform="matrix(.28453 0 0 .28453 166.01 3.2985)">
   <path transform="matrix(.3349 0 0 .3349 -165.41 -424.54)" d="m-491.22 2024.1c-9.789 0-17.362 2.3916-22.707 7.1758-5.5937 4.9313-8.3906 11.805-8.3906 20.609 0 9.0806 2.7969 17.076 8.3906 23.994 4.4897 5.6489 10.434 11.574 17.85 17.775 7.995 6.8449 13.589 12.576 16.781 17.186 3.1833 4.5909 4.7832 9.2725 4.7832 14.057 0 4.7106-1.4529 8.4101-4.3418 11.078-2.8981 2.6772-6.9086 4.0117-12.033 4.0117-11.629 0-17.445-6.3855-17.445-19.174v-7.7657h-16.633v10.268c0 9.1543 2.437 16.405 7.3223 21.75 5.9802 6.5046 14.84 9.752 26.57 9.752 10.129 0 18.107-2.5859 23.922-7.7657 6.0814-5.4649 9.127-12.972 9.127-22.521 0-6.155-1.4172-12.08-4.2324-17.775-3.4409-7.1118-11.4-15.989-23.885-26.643-7.6546-6.569-12.954-11.888-15.898-15.936-2.9257-4.0481-4.3789-8.1154-4.3789-12.219 0-3.6801 1.0687-6.6597 3.2031-8.9414 2.6221-2.8889 6.5592-4.3438 11.812-4.3438 6.2009 0 10.46 2.0166 12.77 6.0372 1.7112 2.944 2.5762 7.2033 2.5762 12.77v4.1582h16.486v-5.8516c0-9.835-2.4199-17.408-7.25-22.707-5.4005-5.9802-13.533-8.9785-24.398-8.9785zm-347.28 2.0605v126.6h16.635v-58.846h31.758v-13.652h-31.758v-40.443h36.689v-13.654zm67.768 0v126.6h55.385v-13.617h-38.752v-45.228h32.459v-13.652h-32.459v-40.443h36.838v-13.654zm70.854 0v126.6h16.635v-56.969l13.469-0.3301 23.221 57.299h17.406l-25.098-61.09c6.3758-2.7693 11.235-6.9193 14.574-12.44 3.3305-5.5201 5.0039-12.152 5.0039-19.908 0-9.4394-2.5951-17.012-7.7656-22.707-6.3298-6.9646-15.879-10.451-28.631-10.451zm86.672 0v126.6h16.305v-56.527l-0.36914-38.566v-4.9317c7.0842 26.699 17.269 60.041 30.545 100.03h22.779v-126.6h-16.486v47.658c0 9.1266 0.0549 21.113 0.18359 35.953l0.11133 9.9376 0.0723 6.2929c-7.6546-27.325-17.728-60.612-30.213-99.842zm176.43 0v126.6h55.385v-13.617h-38.75v-45.228h32.457v-13.652h-32.457v-40.443h36.838v-13.654zm69.273 0v126.6h16.451v-59.986h33.672v59.986h16.488v-126.6h-16.488v53.324h-33.672v-53.324zm89.811 0v126.6h55.387v-13.617h-38.752v-45.228h32.459v-13.652h-32.459v-40.443h36.838v-13.654zm70.855 0v126.6h16.303v-56.527l-0.36914-38.566v-4.9317c7.0842 26.699 17.269 60.041 30.545 100.03h22.781v-126.6h-16.488v47.658c0 9.1266 0.0549 21.113 0.18359 35.953l0.11133 9.9376 0.0742 6.2929c-7.6546-27.325-17.73-60.612-30.215-99.842zm-476.41 13.654h8.3535c8.5102 0 14.554 1.6095 18.143 4.8203 3.6249 3.2937 5.4473 8.4465 5.4473 15.457 0 15.236-8.3831 22.852-25.137 22.852h-6.8066z" fill="#00d2ff"/>
  </g>
  <g transform="translate(-.001029)" fill="#00d2ff" stroke-width=".85089">
   <path d="m26.808 0h4.1158v32.695h-4.1158z"/>
   <path d="m26.808 67.45h4.1158v14.848h-4.1158z"/>
  </g>
 </g>
 <g transform="matrix(.98201 0 0 .98201 -1.0017e-6 -1.7223e-6)">
  <g transform="translate(-.0010295 -3.3808e-6)" fill="#173e7d" stroke-width=".85089">
   <path d="m19.435 32.695h7.3722v34.756h-8.1848l-11.251-20.264v20.264h-7.3722v-34.757l7.6912 8.51e-4 11.744 21.648z"/>
   <path d="m43.221 32.69c8.3549 0 12.43 3.8546 12.982 12.112v10.459c-0.63221 8.8425-4.6272 12.187-12.982 12.187h-12.298v-34.754zm-0.72411 6.58-3.6878-0.0026v21.632h3.6878c3.6546 0 6.2217-1.5282 6.2217-6.3843v-8.9386c0-4.611-2.3332-6.3068-6.2217-6.3068" fill-rule="evenodd"/>
   <path d="m72.208 38.85-4.8935-0.0017v8.9812h4.8935c2.9841 0 4.9275-1.6907 4.9275-4.7097 0-3.0198-1.3767-4.2698-4.9275-4.2698m-0.56159 15.246 6.2005 13.353h8.3039l-7.3662-14.734c4.1592-1.6482 5.8074-4.9982 5.7223-9.5019-0.12848-6.8506-3.5491-10.519-12.615-10.519h-12.112v34.755h7.6844v-13.328z" fill-rule="evenodd"/>
  </g>
 </g>
</svg>
