<svg width="510.49" height="503.71" version="1.1" viewBox="0 0 135.06 133.27" xmlns="http://www.w3.org/2000/svg">
 <link href="" rel="stylesheet" type="text/css"/>
 <style type="text/css"/>
 <g transform="translate(-.0019169 1.7223e-6)" fill="#173e7d" stroke-width=".43169px">
  <path d="m47.792 113.3h-1.5598v-10.573l-2.4788 10.387h-1.4249l-2.4283-10.387v10.573h-1.5598v-12.369h2.7487l1.6104 7.0991q0.18549 0.84313 0.40471 2.268 0.21922-1.467 0.40471-2.268l1.6526-7.0991h2.6306z"/>
  <path d="m55.515 110.35v0.46372q0 1.3153-0.79254 2.0235-0.74199 0.6661-2.0573 0.6661-1.4839 0-2.2512-0.85155-0.68293-0.75883-0.68293-2.0994v-4.005q0-1.4924 0.88531-2.2934 0.78412-0.70823 2.1079-0.70823 1.3659 0 2.1163 0.82629 0.67452 0.75883 0.67452 2.032v2.4873h-4.2073v1.8465q0 1.3912 1.349 1.3912 0.71669 0 1.0202-0.32882 0.30353-0.33726 0.30353-1.1382v-0.31196zm-1.5008-2.7234v-1.3322q0-0.69139-0.35412-1.0708-0.35412-0.37942-1.0033-0.37942-0.65764 0-1.0118 0.37942-0.35412 0.37098-0.35412 1.0708v1.3322z"/>
  <path d="m62.802 109.98v0.8516q0 1.3153-0.78412 2.0151-0.72511 0.65763-2.032 0.65763-1.4333 0-2.1837-0.83471-0.67452-0.75041-0.67452-2.0741v-4.3169q0-1.2141 0.75041-1.9645 0.79254-0.78412 2.091-0.78412 1.3743 0 2.1416 0.84313 0.63234 0.69982 0.63234 1.7875v0.78412h-1.5598v-0.46372q0-1.5598-1.2141-1.5598-1.2816 0-1.2816 1.6104v3.8785q0 0.90214 0.30353 1.3153 0.31196 0.40471 0.99492 0.40471 0.67452 0 0.9612-0.37941 0.2951-0.38785 0.2951-1.29v-0.4806z"/>
  <path d="m70.844 113.3h-1.6863l-2.15-4.9493-1.0033 1.3322v3.6171h-1.5598v-12.757h1.5598v6.9308l2.6896-3.7436h1.7959l-2.4283 3.4148z"/>
  <path d="m73.637 113.3h-1.5598v-12.757h1.5598z"/>
  <path d="m81.248 110.35v0.46372q0 1.3153-0.79254 2.0235-0.74199 0.6661-2.0573 0.6661-1.4839 0-2.2512-0.85155-0.68293-0.75883-0.68293-2.0994v-4.005q0-1.4924 0.88531-2.2934 0.78412-0.70823 2.1079-0.70823 1.3659 0 2.1163 0.82629 0.67452 0.75883 0.67452 2.032v2.4873h-4.2073v1.8465q0 1.3912 1.349 1.3912 0.71669 0 1.0202-0.32882 0.30353-0.33726 0.30353-1.1382v-0.31196zm-1.5008-2.7234v-1.3322q0-0.69139-0.35412-1.0708-0.35412-0.37942-1.0033-0.37942-0.65764 0-1.0118 0.37942-0.35412 0.37098-0.35412 1.0708v1.3322z"/>
  <path d="m88.686 113.3h-1.5598v-7.0991q0-1.1888-0.95274-1.1888-0.75041 0-1.602 0.86844v7.4199h-1.5598v-9.5697h1.4502l0.05059 0.89373q1.0539-1.0624 2.1163-1.0624 2.0573 0 2.0573 2.3018z"/>
  <path d="m92.057 104.51q1.0286-0.94432 2.1163-0.94432 1.2394 0 1.7959 0.97804 0.40471 0.71669 0.40471 1.8465v4.4688q0 0.9612-0.38785 1.6273-0.57333 0.98649-1.7959 0.98649-1.0033 0-2.1669-0.94432l-0.04218 0.77571h-1.4839v-12.757h1.5598zm0 6.7875q0.81784 0.76725 1.6273 0.76725 1.1298 0 1.1298-1.3574v-4.2495q0-0.79254-0.26137-1.1382-0.26138-0.34569-0.86843-0.34569-0.75882 0-1.6273 0.74199z"/>
  <path d="m103.77 113.3h-1.408l-0.0759-0.83472q-1.0792 1.0033-2.2175 1.0033-1.9729 0-1.9729-2.4283v-7.3102h1.5598v7.2174q0 0.56491 0.20235 0.801 0.20236 0.23608 0.6914 0.23608 0.88531 0 1.661-0.81784v-7.4367h1.5598z"/>
  <path d="m109.76 105.36q-1.8128 0.0843-2.5547 1.8296v6.1045h-1.5598v-9.5697h1.5008v1.5767q0.6408-0.91902 1.1804-1.2816 0.53962-0.36257 1.4333-0.46372z"/>
  <path d="m112.83 109.9q-0.0337 0.0422-0.0506 0.0674-0.21078 0.25294-0.21078 0.44688 0 0.24451 0.21921 0.40471 0.21922 0.1602 0.86002 0.37942l1.7622 0.6155q1.2816 0.44689 1.7959 0.99492 0.52274 0.54803 0.52274 1.467 0 1.6273-1.3406 2.3861-0.97803 0.54803-2.403 0.54803-1.4249 0-2.3945-0.55649-1.2057-0.69139-1.2057-2.0573 0-1.5935 1.7959-2.4536-1.0202-0.36255-1.0202-1.2563 0-0.40471 0.18548-0.70823 0.19393-0.31196 0.64922-0.6661-0.43842-0.19392-0.70823-0.75882-0.2698-0.5649-0.2698-1.3153v-1.3574q0-1.4586 1.1382-2.1163 0.72511-0.42157 1.8043-0.42157 1.0792 0 1.838 0.44688 0.801-0.75882 1.5598-0.75882h0.27824v1.2394q-0.37099-0.059-0.48902-0.059-0.33726 0-0.6661 0.26138 0.37099 0.53961 0.37099 1.3912v1.3912q0 2.5969-2.892 2.5969-0.74199 0-1.1298-0.15176zm2.521-2.3692v-1.3743q0-0.66609-0.37941-1.0371-0.37099-0.37098-1.037-0.37098-0.65764 0-1.0371 0.37941-0.37941 0.37942-0.37941 1.0286v1.3743q0 0.59021 0.37941 0.94432 0.38785 0.35412 1.0371 0.35412 0.65763 0 1.037-0.34568 0.37941-0.35412 0.37941-0.95274zm-2.3186 4.9998q-1.2057 0.6408-1.2057 1.6104 0 0.81783 0.58175 1.2563 0.5902 0.43842 1.6694 0.43842 2.1416 0 2.1416-1.3322 0-0.53961-0.3204-0.83471-0.32039-0.28667-1.2478-0.59863z"/>
  <path d="m122.11 108.93h-3.8026v-1.5008h3.8026z"/>
 </g>
 <g transform="translate(-84.469 16.281)" fill="#173e7d" stroke-width=".43169px">
  <path d="m129.69 100.93-2.4704 12.369h-2.0573l-2.3524-12.369h1.6273q0.80942 4.4097 1.7622 10.792 0.24451-1.9814 0.58174-3.8195l1.2731-6.9727z"/>
  <path d="m130.84 110.61v-4.2832q0-1.3574 0.84313-2.0994 0.79254-0.69982 2.15-0.69982 1.5176 0 2.2934 0.84314 0.64922 0.70823 0.64922 1.9561v4.2832q0 1.4333-0.8516 2.2006-0.7757 0.69139-2.1163 0.69139-1.5008 0-2.2934-0.87685-0.67452-0.7504-0.67452-2.0151zm4.376 0.0759v-4.3255q0-0.64922-0.38784-1.0455-0.38785-0.39628-1.0286-0.39628-0.6408 0-1.0202 0.38785-0.37941 0.38784-0.37941 1.0539v4.3255q0 0.67451 0.37098 1.0539 0.37099 0.37098 1.0371 0.37098 0.66609 0 1.037-0.37098 0.37099-0.37942 0.37099-1.0539z"/>
  <path d="m142.67 105.36q-1.8128 0.0843-2.5548 1.8296v6.1045h-1.5598v-9.5697h1.5008v1.5767q0.6408-0.91902 1.1804-1.2816 0.53961-0.36257 1.4333-0.46372z"/>
  <path d="m145.55 104.49q1.0539-0.9106 2.1922-0.9106 1.2057 0 1.7874 1.0118 0.37098 0.65764 0.37098 1.5345v4.5612q0 1.0792-0.40471 1.7959-0.55649 0.96962-1.7622 0.96962-1.0708 0-2.15-0.92744v4.4689h-1.5598v-13.263h1.4839zm0.0337 6.7875q0.82629 0.76728 1.6441 0.76728 0.59862 0 0.86843-0.36255 0.26981-0.37098 0.26981-1.1972v-4.064q0-0.64922-0.31196-1.037-0.31197-0.39628-0.8263-0.39628-0.801 0-1.6441 0.75041z"/>
  <path d="m151.58 110.61v-4.2832q0-1.3574 0.84313-2.0994 0.79254-0.69982 2.15-0.69982 1.5176 0 2.2934 0.84314 0.64921 0.70823 0.64921 1.9561v4.2832q0 1.4333-0.85159 2.2006-0.7757 0.69139-2.1163 0.69139-1.5008 0-2.2934-0.87685-0.67451-0.7504-0.67451-2.0151zm4.376 0.0759v-4.3255q0-0.64922-0.38785-1.0455t-1.0286-0.39628q-0.6408 0-1.0202 0.38785-0.37942 0.38784-0.37942 1.0539v4.3255q0 0.67451 0.37099 1.0539 0.37098 0.37098 1.037 0.37098 0.66606 0 1.037-0.37098 0.37099-0.37942 0.37099-1.0539z"/>
  <path d="m168.63 113.3h-1.5598v-6.9727q0-1.2647-0.91902-1.2647-0.71669 0-1.3912 0.89373v7.3439h-1.5598v-7.0992q0-1.1382-0.9865-1.1382-0.70823 0-1.349 0.75882v7.4786h-1.5598v-9.5697h1.408l0.059 0.83471q0.92745-0.9865 2.0151-0.9865 1.231 0 1.7875 1.172 0.78412-1.172 2.0994-1.172 1.9561 0 1.9561 2.3946z"/>
  <path d="m179.79 113.3h-1.5598v-6.9727q0-1.2647-0.91903-1.2647-0.71669 0-1.3912 0.89373v7.3439h-1.5598v-7.0992q0-1.1382-0.9865-1.1382-0.70823 0-1.349 0.75882v7.4786h-1.5598v-9.5697h1.408l0.059 0.83471q0.92744-0.9865 2.0151-0.9865 1.231 0 1.7875 1.172 0.78412-1.172 2.0994-1.172 1.9561 0 1.9561 2.3946z"/>
  <path d="m187.32 110.35v0.46372q0 1.3153-0.79254 2.0235-0.74199 0.6661-2.0573 0.6661-1.4839 0-2.2512-0.85155-0.68293-0.75883-0.68293-2.0994v-4.005q0-1.4924 0.88531-2.2934 0.78412-0.70823 2.1078-0.70823 1.3659 0 2.1163 0.82629 0.67451 0.75883 0.67451 2.032v2.4873h-4.2073v1.8465q0 1.3912 1.349 1.3912 0.71669 0 1.0202-0.32882 0.30353-0.33726 0.30353-1.1382v-0.31196zm-1.5008-2.7234v-1.3322q0-0.69139-0.35412-1.0708-0.35412-0.37942-1.0033-0.37942-0.65763 0-1.0118 0.37942-0.35412 0.37098-0.35412 1.0708v1.3322z"/>
  <path d="m193.19 105.36q-1.8128 0.0843-2.5548 1.8296v6.1045h-1.5598v-9.5697h1.5008v1.5767q0.6408-0.91902 1.1804-1.2816 0.53961-0.36257 1.4333-0.46372z"/>
  <path d="m200.22 113.3h-1.5598v-7.0991q0-1.1888-0.95274-1.1888-0.75041 0-1.602 0.86844v7.4199h-1.5598v-9.5697h1.4502l0.0506 0.89373q1.0539-1.0624 2.1163-1.0624 2.0573 0 2.0573 2.3018z"/>
 </g>
 <path d="m91.292 32.091v34.14h4.1114v-16.113h15.496v16.113h9.6555c9.7692 0 14.501-4.6863 14.508-17.434 4e-3 -7.3838-1.4518-16.706-15.298-16.706h-8.8654v14.409h-15.496v-14.409zm23.866 3.4696h3.4941c8.627 0 12.052 3.5914 12.038 13.78-0.0137 10.188-3.4959 13.508-12.038 13.508h-3.4941z" fill="#999" stroke-width=".39351"/>
 <g transform="matrix(.98201 0 0 .98201 -.0019179 0)">
  <g transform="matrix(.28453 0 0 .28453 166.01 3.2985)">
   <path transform="matrix(.3349 0 0 .3349 -165.41 -424.54)" d="m-491.22 2024.1c-9.789 0-17.362 2.3916-22.707 7.1758-5.5937 4.9313-8.3906 11.805-8.3906 20.609 0 9.0806 2.7969 17.076 8.3906 23.994 4.4897 5.6489 10.434 11.574 17.85 17.775 7.995 6.8449 13.589 12.576 16.781 17.186 3.1833 4.5909 4.7832 9.2725 4.7832 14.057 0 4.7106-1.4529 8.4101-4.3418 11.078-2.8981 2.6772-6.9086 4.0117-12.033 4.0117-11.629 0-17.445-6.3855-17.445-19.174v-7.7657h-16.633v10.268c0 9.1543 2.437 16.405 7.3223 21.75 5.9802 6.5046 14.84 9.752 26.57 9.752 10.129 0 18.107-2.5859 23.922-7.7657 6.0814-5.4649 9.127-12.972 9.127-22.521 0-6.155-1.4172-12.08-4.2324-17.775-3.4409-7.1118-11.4-15.989-23.885-26.643-7.6546-6.569-12.954-11.888-15.898-15.936-2.9257-4.0481-4.3789-8.1154-4.3789-12.219 0-3.6801 1.0687-6.6597 3.2031-8.9414 2.6221-2.8889 6.5592-4.3438 11.812-4.3438 6.2009 0 10.46 2.0166 12.77 6.0372 1.7112 2.944 2.5762 7.2033 2.5762 12.77v4.1582h16.486v-5.8516c0-9.835-2.4199-17.408-7.25-22.707-5.4005-5.9802-13.533-8.9785-24.398-8.9785zm-347.28 2.0605v126.6h16.635v-58.846h31.758v-13.652h-31.758v-40.443h36.689v-13.654zm67.768 0v126.6h55.385v-13.617h-38.752v-45.228h32.459v-13.652h-32.459v-40.443h36.838v-13.654zm70.854 0v126.6h16.635v-56.969l13.469-0.3301 23.221 57.299h17.406l-25.098-61.09c6.3758-2.7693 11.235-6.9193 14.574-12.44 3.3305-5.5201 5.0039-12.152 5.0039-19.908 0-9.4394-2.5951-17.012-7.7656-22.707-6.3298-6.9646-15.879-10.451-28.631-10.451zm86.672 0v126.6h16.305v-56.527l-0.36914-38.566v-4.9317c7.0842 26.699 17.269 60.041 30.545 100.03h22.779v-126.6h-16.486v47.658c0 9.1266 0.0549 21.113 0.18359 35.953l0.11133 9.9376 0.0723 6.2929c-7.6546-27.325-17.728-60.612-30.213-99.842zm176.43 0v126.6h55.385v-13.617h-38.75v-45.228h32.457v-13.652h-32.457v-40.443h36.838v-13.654zm69.273 0v126.6h16.451v-59.986h33.672v59.986h16.488v-126.6h-16.488v53.324h-33.672v-53.324zm89.811 0v126.6h55.387v-13.617h-38.752v-45.228h32.459v-13.652h-32.459v-40.443h36.838v-13.654zm70.855 0v126.6h16.303v-56.527l-0.36914-38.566v-4.9317c7.0842 26.699 17.269 60.041 30.545 100.03h22.781v-126.6h-16.488v47.658c0 9.1266 0.0549 21.113 0.18359 35.953l0.11133 9.9376 0.0742 6.2929c-7.6546-27.325-17.73-60.612-30.215-99.842zm-476.41 13.654h8.3535c8.5102 0 14.554 1.6095 18.143 4.8203 3.6249 3.2937 5.4473 8.4465 5.4473 15.457 0 15.236-8.3831 22.852-25.137 22.852h-6.8066z" fill="#00d2ff"/>
  </g>
  <g transform="translate(-.001029)" fill="#00d2ff" stroke-width=".85089">
   <path d="m26.808 0h4.1158v32.695h-4.1158z"/>
   <path d="m26.808 67.45h4.1158v14.848h-4.1158z"/>
  </g>
 </g>
 <g transform="matrix(.98201 0 0 .98201 -.0019179 0)">
  <g transform="translate(-.0010295 -3.3808e-6)" fill="#173e7d" stroke-width=".85089">
   <path d="m19.435 32.695h7.3722v34.756h-8.1848l-11.251-20.264v20.264h-7.3722v-34.757l7.6912 8.51e-4 11.744 21.648z"/>
   <path d="m43.221 32.69c8.3549 0 12.43 3.8546 12.982 12.112v10.459c-0.63221 8.8425-4.6272 12.187-12.982 12.187h-12.298v-34.754zm-0.72411 6.58-3.6878-0.0026v21.632h3.6878c3.6546 0 6.2217-1.5282 6.2217-6.3843v-8.9386c0-4.611-2.3332-6.3068-6.2217-6.3068" fill-rule="evenodd"/>
   <path d="m72.208 38.85-4.8935-0.0017v8.9812h4.8935c2.9841 0 4.9275-1.6907 4.9275-4.7097 0-3.0198-1.3767-4.2698-4.9275-4.2698m-0.56159 15.246 6.2005 13.353h8.3039l-7.3662-14.734c4.1592-1.6482 5.8074-4.9982 5.7223-9.5019-0.12848-6.8506-3.5491-10.519-12.615-10.519h-12.112v34.755h7.6844v-13.328z" fill-rule="evenodd"/>
  </g>
 </g>
</svg>
