<svg width="519.84" height="331.97" version="1.1" viewBox="0 0 137.54 87.835" xmlns="http://www.w3.org/2000/svg">
 <link href="" rel="stylesheet" type="text/css"/>
 <style type="text/css"/>
 <path d="m92.966 32.679v34.765h4.1867v-16.408h15.78v16.408h9.8324c9.9482 0 14.766-4.7722 14.774-17.754 4e-3 -7.519-1.4783-17.012-15.578-17.012h-9.0278v14.673h-15.78v-14.673zm24.303 3.5332h3.5581c8.7851 0 12.273 3.6572 12.259 14.032-0.014 10.375-3.56 13.755-12.259 13.755h-3.5581z" fill="#999" stroke-width=".40072"/>
 <g transform="translate(-.00054837)">
  <g transform="matrix(.28453 0 0 .28453 166.01 3.2985)">
   <path transform="matrix(.3349 0 0 .3349 -165.41 -424.54)" d="m-491.22 2024.1c-9.789 0-17.362 2.3916-22.707 7.1758-5.5937 4.9313-8.3906 11.805-8.3906 20.609 0 9.0806 2.7969 17.076 8.3906 23.994 4.4897 5.6489 10.434 11.574 17.85 17.775 7.995 6.8449 13.589 12.576 16.781 17.186 3.1833 4.5909 4.7832 9.2725 4.7832 14.057 0 4.7106-1.4529 8.4101-4.3418 11.078-2.8981 2.6772-6.9086 4.0117-12.033 4.0117-11.629 0-17.445-6.3855-17.445-19.174v-7.7657h-16.633v10.268c0 9.1543 2.437 16.405 7.3223 21.75 5.9802 6.5046 14.84 9.752 26.57 9.752 10.129 0 18.107-2.5859 23.922-7.7657 6.0814-5.4649 9.127-12.972 9.127-22.521 0-6.155-1.4172-12.08-4.2324-17.775-3.4409-7.1118-11.4-15.989-23.885-26.643-7.6546-6.569-12.954-11.888-15.898-15.936-2.9257-4.0481-4.3789-8.1154-4.3789-12.219 0-3.6801 1.0687-6.6597 3.2031-8.9414 2.6221-2.8889 6.5592-4.3438 11.812-4.3438 6.2009 0 10.46 2.0166 12.77 6.0372 1.7112 2.944 2.5762 7.2033 2.5762 12.77v4.1582h16.486v-5.8516c0-9.835-2.4199-17.408-7.25-22.707-5.4005-5.9802-13.533-8.9785-24.398-8.9785zm-347.28 2.0605v126.6h16.635v-58.846h31.758v-13.652h-31.758v-40.443h36.689v-13.654zm67.768 0v126.6h55.385v-13.617h-38.752v-45.228h32.459v-13.652h-32.459v-40.443h36.838v-13.654zm70.854 0v126.6h16.635v-56.969l13.469-0.3301 23.221 57.299h17.406l-25.098-61.09c6.3758-2.7693 11.235-6.9193 14.574-12.44 3.3305-5.5201 5.0039-12.152 5.0039-19.908 0-9.4394-2.5951-17.012-7.7656-22.707-6.3298-6.9646-15.879-10.451-28.631-10.451zm86.672 0v126.6h16.305v-56.527l-0.36914-38.566v-4.9317c7.0842 26.699 17.269 60.041 30.545 100.03h22.779v-126.6h-16.486v47.658c0 9.1266 0.0549 21.113 0.18359 35.953l0.11133 9.9376 0.0723 6.2929c-7.6546-27.325-17.728-60.612-30.213-99.842zm176.43 0v126.6h55.385v-13.617h-38.75v-45.228h32.457v-13.652h-32.457v-40.443h36.838v-13.654zm69.273 0v126.6h16.451v-59.986h33.672v59.986h16.488v-126.6h-16.488v53.324h-33.672v-53.324zm89.811 0v126.6h55.387v-13.617h-38.752v-45.228h32.459v-13.652h-32.459v-40.443h36.838v-13.654zm70.855 0v126.6h16.303v-56.527l-0.36914-38.566v-4.9317c7.0842 26.699 17.269 60.041 30.545 100.03h22.781v-126.6h-16.488v47.658c0 9.1266 0.0549 21.113 0.18359 35.953l0.11133 9.9376 0.0742 6.2929c-7.6546-27.325-17.73-60.612-30.215-99.842zm-476.41 13.654h8.3535c8.5102 0 14.554 1.6095 18.143 4.8203 3.6249 3.2937 5.4473 8.4465 5.4473 15.457 0 15.236-8.3831 22.852-25.137 22.852h-6.8066z" fill="#00d2ff"/>
  </g>
  <g transform="translate(-.001029)" fill="#00d2ff" stroke-width=".85089">
   <path d="m26.808 0h4.1158v32.695h-4.1158z"/>
   <path d="m26.808 67.45h4.1158v14.848h-4.1158z"/>
  </g>
 </g>
 <g transform="translate(-.00054837)">
  <g transform="translate(-.0010295 -3.3808e-6)" fill="#173e7d" stroke-width=".85089">
   <path d="m19.435 32.695h7.3722v34.756h-8.1848l-11.251-20.264v20.264h-7.3722v-34.757l7.6912 8.51e-4 11.744 21.648z"/>
   <path d="m43.221 32.69c8.3549 0 12.43 3.8546 12.982 12.112v10.459c-0.63221 8.8425-4.6272 12.187-12.982 12.187h-12.298v-34.754zm-0.72411 6.58-3.6878-0.0026v21.632h3.6878c3.6546 0 6.2217-1.5282 6.2217-6.3843v-8.9386c0-4.611-2.3332-6.3068-6.2217-6.3068" fill-rule="evenodd"/>
   <path d="m72.208 38.85-4.8935-0.0017v8.9812h4.8935c2.9841 0 4.9275-1.6907 4.9275-4.7097 0-3.0198-1.3767-4.2698-4.9275-4.2698m-0.56159 15.246 6.2005 13.353h8.3039l-7.3662-14.734c4.1592-1.6482 5.8074-4.9982 5.7223-9.5019-0.12848-6.8506-3.5491-10.519-12.615-10.519h-12.112v34.755h7.6844v-13.328z" fill-rule="evenodd"/>
  </g>
 </g>
</svg>
