<svg width="800" height="202.86" version="1.1" viewBox="0 0 800 202.86" xmlns="http://www.w3.org/2000/svg">
 <path d="m253.75 50.787c6.0369 0 11.191 1.1977 15.462 3.593 4.2708 2.3953 8.4613 5.7617 12.572 10.099v-7.9628c0-2.5248 1.2523-3.7872 3.757-3.7872h25.047c2.3762 0 3.5643 1.2624 3.5643 3.7872v89.047c0 16.702-5.2662 30.427-15.799 41.173-10.532 10.747-24.083 16.12-40.653 16.12-7.6424 0-14.996-1.4566-22.06-4.3698s-12.844-6.7004-17.34-11.362c-1.5413-1.3595-1.6056-2.9456-0.19268-4.7582l12.62-17.285c1.0276-1.0358 1.9909-1.5537 2.89-1.5537 0.70645 0 1.3166 0.25896 1.8303 0.77686 5.4589 5.0496 12.555 7.5744 21.29 7.5744 8.4131 0 14.691-2.2496 18.833-6.749 4.1423-4.4993 6.2135-9.8888 6.2135-16.168v-10.099c-3.8533 4.208-7.9796 7.542-12.379 10.002-4.3992 2.46-9.6173 3.6901-15.654 3.6901-8.3489 0-15.783-2.2335-22.301-6.7004-6.5186-4.4669-11.528-10.52-15.028-18.159-3.5001-7.6391-5.2502-16.185-5.2502-25.636 0-14.566 3.9497-26.753 11.849-36.561 7.8993-9.8078 18.143-14.712 30.73-14.712zm-96.676 0c10.276 0 19.202 2.6543 26.781 7.9628 7.5782 5.3085 13.23 12.316 16.955 21.024 3.7249 8.7073 5.5873 18.467 5.5873 29.278 0 2.6543-1.3166 3.9814-3.9497 3.9814h-62.906c1.4129 3.949 3.9818 7.2507 7.7067 9.9049s8.1883 3.9814 13.39 3.9814c7.1929 0 14.225-1.5861 21.097-4.7583 0.77066-0.38843 1.4771-0.58264 2.1193-0.58264 0.83489 0 1.8303 0.58264 2.9863 1.7479l11.271 15.926c0.64222 0.77686 0.867 1.6346 0.67433 2.5733-0.19268 0.9387-0.73855 1.667-1.6377 2.1849-11.239 6.7328-23.762 10.099-37.57 10.099-6.8076 0-13.358-1.3757-19.652-4.1271-6.2938-2.7514-11.737-6.4414-16.328-11.07s-8.2526-10.132-10.982-16.508c-2.7294-6.3767-4.0942-13.029-4.0942-19.956 0-8.8691 2.007-17.22 6.0208-25.054 4.0139-7.8333 9.7939-14.226 17.34-19.179 7.5461-4.9525 15.943-7.4287 25.191-7.4287zm219.27 0c9.3122 0 17.902 2.2982 25.769 6.8946 7.8672 4.5964 14.065 10.86 18.592 18.79 4.5277 7.9304 6.7915 16.589 6.7915 25.976s-2.2638 18.046-6.7915 25.976c-4.5277 7.9304-10.725 14.194-18.592 18.79-7.8672 4.5964-16.457 6.8946-25.769 6.8946-9.3122 0-17.87-2.2982-25.673-6.8946s-13.952-10.844-18.448-18.742c-4.4956-7.9628-6.7434-16.638-6.7434-26.025s2.2478-18.046 6.7434-25.976c4.4956-7.9304 10.645-14.194 18.448-18.79 7.803-4.5964 16.361-6.8946 25.673-6.8946zm106.79 0c10.725 0 20.808 3.1074 30.249 9.3223 0.89911 0.71212 1.445 1.5537 1.6376 2.5248 0.1926 0.97107-0.032 1.9098-0.67434 2.8161l-13.776 19.13c-0.70643 1.0358-1.6377 1.5537-2.7937 1.5537-0.70643 0-1.445-0.19422-2.2157-0.58264-3.8533-2.5248-7.9957-3.7872-12.427-3.7872-5.5231 0-10.115 1.9583-13.776 5.875-3.6607 3.9167-5.491 8.8529-5.491 14.809 0 5.9559 1.8303 10.892 5.491 14.809 3.6606 3.9167 8.2526 5.875 13.776 5.875 4.5598 0 8.9269-1.1329 13.101-3.3988 0.77066-0.38843 1.4771-0.58264 2.1194-0.58264 1.0918 0 1.8945 0.45316 2.4083 1.3595l13.776 19.713c1.2202 2.0716 0.83487 3.7224-1.156 4.9525-9.248 5.9559-19.331 8.9339-30.249 8.9339-9.3122 0-17.87-2.2982-25.673-6.8946s-13.952-10.86-18.448-18.79c-4.4956-7.9304-6.7434-16.589-6.7434-25.976s2.2478-18.046 6.7434-25.976c4.4956-7.9304 10.645-14.194 18.448-18.79 7.803-4.5964 16.361-6.8946 25.673-6.8946zm141.43 0c9.3122 0 17.902 2.2982 25.769 6.8946 7.8672 4.5964 14.065 10.86 18.592 18.79 4.5277 7.9304 6.7915 16.589 6.7915 25.976s-2.2638 18.046-6.7915 25.976c-4.5277 7.9304-10.725 14.194-18.592 18.79-7.8672 4.5964-16.457 6.8946-25.769 6.8946-9.3122 0-17.87-2.2982-25.673-6.8946s-13.952-10.844-18.448-18.742c-4.4956-7.9628-6.7434-16.638-6.7434-26.025s2.2478-18.046 6.7434-25.976c4.4956-7.9304 10.645-14.194 18.448-18.79 7.803-4.5964 16.361-6.8946 25.673-6.8946zm95.617 0c6.6791 0 12.925 1.1491 18.737 3.4473 5.8121 2.2982 10.484 5.1629 14.017 8.594 1.4129 1.8127 1.2844 3.5606-0.38533 5.2438l-12.716 13.692c-0.89911 0.90634-1.7982 1.3595-2.6973 1.3595s-1.8303-0.32369-2.7937-0.97107c-5.1378-3.0427-9.7939-4.564-13.968-4.564-4.8809 0-7.3213 1.1329-7.3213 3.3988 0 1.1006 0.81881 2.1525 2.4565 3.156 1.6377 1.0034 3.7731 1.9583 6.4062 2.8647 2.6331 0.90633 5.5392 1.9421 8.7182 3.1074s6.374 2.6381 9.5852 4.4184c3.2111 1.7803 6.1332 3.8519 8.7663 6.2149s4.7685 5.4056 6.4062 9.1281c1.6377 3.7224 2.4565 7.8819 2.4565 12.478 0 8.8044-3.5162 16.298-10.549 22.48-7.0323 6.1825-16.425 9.2737-28.178 9.2737-15.156 0-27.648-5.3409-37.474-16.023-1.6056-2.1364-1.4129-4.208 0.57799-6.2149l11.849-12.915c0.89911-0.90633 1.8945-1.3595 2.9863-1.3595 1.2202 0 2.2799 0.45317 3.179 1.3595 7.0644 5.438 13.583 8.157 19.556 8.157 2.8258 0 4.9451-0.33988 6.358-1.0196s2.1193-1.926 2.1193-3.7386c0-1.4242-0.81882-2.7028-2.4565-3.8357-1.6377-1.1329-3.773-2.1849-6.4062-3.156-2.6331-0.97107-5.5392-2.0069-8.7182-3.1074-3.179-1.1006-6.3741-2.5086-9.5852-4.2242s-6.1332-3.7063-8.7663-5.9721-4.7685-5.2114-6.4062-8.8368c-1.6377-3.6253-2.4565-7.7038-2.4565-12.236 0-8.7397 3.5162-15.958 10.549-21.655 7.0324-5.697 15.751-8.5454 26.155-8.5454zm-658.62 0c11.881 0 21.033 3.8034 27.455 11.41 6.4222 7.6067 9.6333 18.564 9.6333 32.871v53.312c0 2.5248-1.2523 3.7872-3.757 3.7872h-25.047c-2.3762 0-3.5643-1.2624-3.5643-3.7872v-46.709c0-5.8912-1.4129-10.682-4.2387-14.372-2.8258-3.6901-6.936-5.5351-12.331-5.5351-4.624 0-8.6861 1.7965-12.186 5.3895-3.5001 3.593-5.2502 7.5582-5.2502 11.896v49.331c0 2.5248-1.2202 3.7872-3.6607 3.7872h-24.854c-2.5047 0-3.757-1.2624-3.757-3.7872v-91.863c0-2.5248 1.2523-3.7872 3.757-3.7872h24.854c2.4404 0 3.6607 1.2624 3.6607 3.7872v9.1281c7.7067-9.9049 17.468-14.857 29.285-14.857zm496.1 1.9421c2.5046 0 3.757 1.2624 3.757 3.7872v91.863c0 2.5248-1.2524 3.7872-3.757 3.7872h-24.854c-2.5047 0-3.757-1.2624-3.757-3.7872v-91.863c0-2.5248 1.2523-3.7872 3.757-3.7872zm-181.31 29.035c-5.5231 0-10.115 1.9745-13.776 5.9235-3.6607 3.8843-5.491 8.8044-5.491 14.76 0 5.9559 1.8303 10.892 5.491 14.809 3.6607 3.9167 8.2526 5.875 13.776 5.875s10.163-1.9745 13.92-5.9236c3.757-3.949 5.6355-8.8691 5.6355-14.76 0-5.8912-1.8785-10.811-5.6355-14.76s-8.397-5.9235-13.92-5.9235zm248.22 0c-5.5231 0-10.115 1.9745-13.776 5.9235-3.6606 3.8843-5.491 8.8044-5.491 14.76 0 5.9559 1.8303 10.892 5.491 14.809 3.6607 3.9167 8.2526 5.875 13.776 5.875s10.163-1.9745 13.92-5.9236c3.757-3.949 5.6355-8.8691 5.6355-14.76 0-5.8912-1.8785-10.811-5.6355-14.76s-8.3971-5.9235-13.92-5.9235zm-361.47 0c-5.5873 0-10.211 1.8936-13.872 5.6808-3.6607 3.7872-5.491 8.6587-5.491 14.615 0 5.8912 1.8143 10.617 5.4428 14.178 3.6286 3.5606 8.2686 5.3409 13.92 5.3409s10.308-1.7803 13.968-5.3409 5.491-8.2865 5.491-14.178c0-5.9559-1.8464-10.827-5.5392-14.615s-8.3328-5.6808-13.92-5.6808zm-106.02-6.1178c-4.4313 0-8.1723 1.3595-11.223 4.0785-3.0506 2.719-5.1538 6.1825-6.3098 10.39h35.451c-1.2844-4.4669-3.4359-7.9952-6.4543-10.585-3.0184-2.5895-6.8397-3.8843-11.464-3.8843zm387.77-75.647c5.2662 0 9.6654 1.7965 13.198 5.3895 3.5322 3.593 5.2983 8.0437 5.2983 13.352 0 5.0496-1.7661 9.2899-5.2983 12.721s-7.9314 5.1467-13.198 5.1467c-5.0093 0-9.2319-1.7156-12.668-5.1467-3.4359-3.4311-5.1538-7.6715-5.1538-12.721 0-5.3085 1.718-9.7593 5.1538-13.352s7.6585-5.3895 12.668-5.3895z" fill="#10323d"/>
 <path d="m763.49 136.05c0-5.1791 1.734-9.5813 5.202-13.207 3.468-3.6253 7.7067-5.438 12.716-5.438 5.1378 0 9.521 1.8288 13.15 5.4866 3.6286 3.6577 5.4428 8.0437 5.4428 13.158 0 5.0496-1.8143 9.3223-5.4428 12.818-3.6286 3.4959-8.0117 5.2438-13.15 5.2438-5.0093 0-9.248-1.7479-12.716-5.2438s-5.202-7.7686-5.202-12.818z" fill="#d8d024"/>
</svg>
