<svg version="1.1" viewBox="0 0 800 454.26" xml:space="preserve" xmlns="http://www.w3.org/2000/svg"><g transform="matrix(1.3333 0 0 -1.3333 -1464.5 849.74)"><g fill="#fff"><path d="m1098.4 297.19v47.743h8.1443l25.885-42.61v42.61h5.2527v-47.743h-8.1434l-25.884 42.675v-42.675zm54.136 20.161h19.1v1.314c0 3.1736-0.571 5.3194-1.6966 6.4579-1.1387 1.1261-3.3823 1.6956-6.7315 1.6956h-2.3421c-3.3286 0-5.549-0.56938-6.6662-1.6956-1.1049-1.1385-1.6635-3.2843-1.6635-6.4579zm8.3942-20.609c-5.0449 0-8.5696 0.98507-10.583 2.9443-2.0045 1.9703-3.0108 5.4171-3.0108 10.353v8.0232c0 4.9582 0.9956 8.4284 3 10.388 2.0028 1.9688 5.5043 2.9537 10.529 2.9537h2.3421c5.0449 0 8.5696-0.98499 10.585-2.9537 2.0027-1.9593 3.0091-5.4295 3.0091-10.388v-5.1003l-24.266-0.0331c0-0.33931 0-0.72248-0.083-1.1385v-1.7518c0-3.4795 0.5545-5.8111 1.6651-6.9933 1.1156-1.1931 3.36-1.784 6.7316-1.784h2.342c3.0091 0 5.1004 0.4378 6.2831 1.3017 1.171 0.86533 1.8595 2.375 2.0458 4.5313h5.198c-0.2483-3.655-1.4334-6.2934-3.5222-7.9133-2.0913-1.6302-5.4083-2.4401-9.9393-2.4401h-2.3429zm24.889 42.556v5.6467h4.9713v-5.6467zm0-42.108v33.766h4.9713v-33.766zm14.231 0v34.281c0 5.0232 0.9286 8.4932 2.7907 10.409 1.8595 1.9143 5.1657 2.8668 9.9376 2.8668 4.6957 0 8.045-0.93079 10.037-2.802 1.9812-1.872 2.9768-4.9903 2.9768-9.3467 0-2.5283-0.4303-4.4768-1.2803-5.8453-0.8549-1.368-2.2659-2.3965-4.2364-3.1089 2.7584-0.56938 4.7065-1.8056 5.8453-3.6886 1.128-1.882 1.6957-4.913 1.6957-9.1063 0-5.1767-0.8855-8.8332-2.6591-10.966-1.7735-2.1348-4.7602-3.2085-8.952-3.2085-0.72 0-1.5004 0.0331-2.3213 0.0993-0.8193 0.0662-1.7189 0.16386-2.6822 0.28386v4.5873c0.6455-0.15393 1.2918-0.264 1.9589-0.33931 0.6703-0.0745 1.3572-0.1109 2.0913-0.1109 2.8775 0 4.8149 0.624 5.7997 1.8728 0.9856 1.2579 1.4789 3.8518 1.4789 7.7815 0 4.4445-0.5131 7.2569-1.5542 8.4173-1.0395 1.1712-3.077 1.7516-6.1184 1.7516h-3.6893v4.1374h2.8253c2.4944 0 4.2348 0.56855 5.2196 1.6957 0.9857 1.1385 1.4773 3.175 1.4773 6.1288 0 2.7818-0.5545 4.685-1.685 5.726-1.1164 1.0394-3.2284 1.553-6.3261 1.553-3.0331 0-5.0681-0.55696-6.1076-1.6631-1.0394-1.1167-1.5542-3.6565-1.5542-7.6402v-33.766h-5.0011zm39.611 20.161h19.1v1.314c0 3.1736-0.5711 5.3194-1.6974 6.4579-1.1388 1.1261-3.3815 1.6956-6.7308 1.6956h-2.3429c-3.3277 0-5.5489-0.56938-6.6662-1.6956-1.104-1.1385-1.6626-3.2843-1.6626-6.4579zm8.3942-20.609c-5.045 0-8.5697 0.98507-10.583 2.9443-2.0044 1.9703-3.0107 5.4171-3.0107 10.353v8.0232c0 4.9582 0.9956 8.4284 3 10.388 2.0027 1.9688 5.5034 2.9537 10.528 2.9537h2.3429c5.045 0 8.5688-0.98499 10.584-2.9537 2.0028-1.9593 3.01-5.4295 3.01-10.388v-5.1003l-24.266-0.0331c0-0.33931 0-0.72248-0.083-1.1385v-1.7518c0-3.4795 0.5628-5.8111 1.6651-6.9933 1.1148-1.1931 3.36-1.784 6.7308-1.784h2.3429c3.0091 0 5.1004 0.4378 6.2822 1.3017 1.171 0.86533 1.8604 2.375 2.0466 4.5313h5.1981c-0.2483-3.655-1.4334-6.2934-3.5222-7.9133-2.0913-1.6302-5.4083-2.4401-9.9402-2.4401h-2.342zm23.96 16.002v4.4882h17.929v-4.4882zm22.701 32.19h5.4514l10.901-41.296 10.966 41.296h7.4979l11.032-41.296 10.903 41.296h5.5167l-13.015-47.743h-6.7655l-11.416 42.041-11.229-42.041h-7.0163zm70.838-27.582h19.099v1.314c0 3.1736-0.571 5.3194-1.6973 6.4579-1.1388 1.1261-3.3815 1.6956-6.7308 1.6956h-2.3429c-3.3269 0-5.549-0.56938-6.6654-1.6956-1.1048-1.1385-1.6626-3.2843-1.6626-6.4579zm8.3934-20.609c-5.045 0-8.5697 0.98507-10.582 2.9443-2.0044 1.9703-3.0115 5.4171-3.0115 10.353v8.0232c0 4.9582 0.9955 8.4284 3.0008 10.388 2.0019 1.9688 5.5034 2.9537 10.528 2.9537h2.3429c5.045 0 8.5697-0.98499 10.585-2.9537 2.0028-1.9593 3.01-5.4295 3.01-10.388v-5.1003l-24.266-0.0331c0-0.33931 0-0.72248-0.083-1.1385v-1.7518c0-3.4795 0.5627-5.8111 1.6642-6.9933 1.1156-1.1931 3.36-1.784 6.7308-1.784h2.3429c3.0091 0 5.1004 0.4378 6.283 1.3017 1.1711 0.86533 1.8596 2.375 2.0458 4.5313h5.1989c-0.2483-3.655-1.4342-6.2934-3.5239-7.9133-2.0904-1.6302-5.4074-2.4401-9.9384-2.4401h-2.3429zm24.89 0.44855v47.743h4.9705v-47.743zm15.356 0v47.743h4.9705v-47.743zm19.178 20.161h19.1v1.314c0 3.1736-0.571 5.3194-1.6974 6.4579-1.1387 1.1261-3.3823 1.6956-6.7315 1.6956h-2.3421c-3.3277 0-5.549-0.56938-6.6654-1.6956-1.1048-1.1385-1.6634-3.2843-1.6634-6.4579zm8.3942-20.609c-5.045 0-8.5697 0.98507-10.583 2.9443-2.0044 1.9703-3.0108 5.4171-3.0108 10.353v8.0232c0 4.9582 0.9956 8.4284 3 10.388 2.0028 1.9688 5.5043 2.9537 10.529 2.9537h2.3421c5.0449 0 8.5696-0.98499 10.586-2.9537 2.0019-1.9593 3.0091-5.4295 3.0091-10.388v-5.1003l-24.266-0.0331c0-0.33931 0-0.72248-0.083-1.1385v-1.7518c0-3.4795 0.5545-5.8111 1.6651-6.9933 1.1156-1.1931 3.36-1.7839 6.7308-1.7839h2.342c3.01 0 5.1013 0.43779 6.2831 1.3017 1.1718 0.86532 1.8604 2.375 2.0466 4.5313h5.1981c-0.2483-3.655-1.4334-6.2934-3.5231-7.9133-2.0913-1.6302-5.4074-2.4401-9.9393-2.4401h-2.3421zm23.96 16.002v4.4882h17.928v-4.4882zm27.34 16.418c0 6.0966 1.2579 10.344 3.7862 12.751 2.5183 2.3969 6.984 3.601 13.397 3.601h6.0645c5.8775 0 10.212-0.99642 13.003-2.9988 2.7907-1.9919 4.181-5.1118 4.181-9.3481v-2.0139h-5.4513v0.58014c0 3.2843-0.8317 5.5817-2.4952 6.8738-1.675 1.2922-4.8596 1.9375-9.5553 1.9375h-4.2025c-3.2731 0-5.6267-0.18621-7.0601-0.54786-1.4226-0.36083-2.6483-0.97399-3.6554-1.8275-0.9087-0.78786-1.565-1.8502-1.9374-3.1736-0.3724-1.325-0.5545-3.7002-0.5545-7.1486v-13.592c0-3.427 0.1903-5.8018 0.5545-7.1268 0.3724-1.3233 1.0287-2.3861 1.9374-3.1742 1.0071-0.85299 2.2104-1.4656 3.6008-1.8275 1.3903-0.36166 3.7539-0.54704 7.1147-0.54704h4.2025c3.0323 0 5.1782 0.16386 6.4362 0.48248 1.2695 0.31614 2.3528 0.86384 3.2714 1.6303 0.8549 0.73406 1.4574 1.7298 1.8182 2.9878 0.3476 1.2601 0.5214 3.4255 0.5214 6.4798v2.9552h-13.244v4.8372h18.695v-7.9783c0-6.1185-1.2579-10.377-3.787-12.774-2.5175-2.3967-6.984-3.5897-13.397-3.5897h-6.0645c-6.413 0-10.879 1.193-13.397 3.5897-2.5283 2.3969-3.7862 6.6551-3.7862 12.774zm76.956 1.7947v-33.766h-4.8174v4.5858c-0.7862-1.7066-2.0888-2.9769-3.9054-3.7978-1.8182-0.82014-4.2149-1.2362-7.1809-1.2362-4.4111 0-7.498 0.89677-9.2715 2.6806-1.7727 1.784-2.6582 4.9035-2.6582 9.3808v22.153h4.9688v-21.102c0-3.5028 0.5214-5.8111 1.5766-6.9285 1.0386-1.1058 3.0869-1.663 6.1175-1.663 3.5032 0 6.0645 0.79945 7.6841 2.4075 1.6089 1.598 2.4182 4.1482 2.4182 7.6298v19.656zm15.357-14.14v-5.5161c0-3.5029 0.8193-6.0536 2.4505-7.6511 1.632-1.5871 4.2587-2.3862 7.8703-2.3862 3.2731 0 5.4397 0.5909 6.523 1.7621 1.0842 1.1822 1.6196 3.8955 1.6196 8.1434v5.7784c0 4.2692-0.5379 6.9947-1.6196 8.177-1.0833 1.1712-3.2499 1.762-6.523 1.762-3.6116 0-6.2383-0.79862-7.8703-2.387-1.6304-1.598-2.4505-4.1592-2.4505-7.6824zm-4.9689-19.626v47.743h4.9689v-18.782c0.9625 1.8601 2.2642 3.1956 3.8962 4.0163 1.6304 0.82097 3.8417 1.2363 6.6216 1.2363 4.8058 0 8.198-0.99583 10.179-2.977 1.9812-1.9916 2.966-5.4493 2.966-10.364v-8.0124c0-4.8925-0.9848-8.3396-2.966-10.332-1.9813-1.9811-5.3735-2.977-10.179-2.977-2.9123 0-5.2205 0.44855-6.9286 1.3572-1.7081 0.90761-2.9661 2.341-3.787 4.2895v-5.1984zm41.47 20.161h19.1v1.314c0 3.1736-0.571 5.3194-1.6965 6.4579-1.1388 1.1261-3.3823 1.6956-6.7316 1.6956h-2.3421c-3.3277 0-5.5489-0.56938-6.6662-1.6956-1.104-1.1385-1.6634-3.2843-1.6634-6.4579zm8.3942-20.609c-5.0441 0-8.5688 0.98507-10.582 2.9443-2.0044 1.9703-3.0115 5.4171-3.0115 10.353v8.0232c0 4.9582 0.9964 8.4284 3.0008 10.388 2.0027 1.9688 5.5043 2.9537 10.528 2.9537h2.3421c5.045 0 8.5697-0.98499 10.585-2.9537 2.0028-1.9593 3.01-5.4295 3.01-10.388v-5.1003l-24.266-0.0331c0-0.33931 0-0.72248-0.083-1.1385v-1.7518c0-3.4795 0.5545-5.8111 1.6643-6.9933 1.1156-1.1931 3.3608-1.7839 6.7316-1.7839h2.3421c3.0099 0 5.1012 0.43779 6.283 1.3017 1.171 0.86532 1.8596 2.375 2.0466 4.5313h5.1981c-0.2483-3.655-1.4334-6.2934-3.5231-7.9133-2.0913-1.6302-5.4082-2.4401-9.9393-2.4401h-2.3429zm24.89 0.44855v33.766h4.7736v-4.618c0.8193 1.7293 2.1219 3.0092 3.9169 3.8299 1.7967 0.82097 4.1711 1.2363 7.1156 1.2363 4.4326 0 7.5302-0.89669 9.3037-2.6806 1.7727-1.784 2.6582-4.9146 2.6582-9.4022v-22.131h-5.0011v21.07c0 3.5246-0.5131 5.8438-1.5542 6.9606-1.0394 1.1062-3.0546 1.6643-6.0422 1.6643-3.5354 0-6.1076-0.81103-7.7487-2.4196-1.6303-1.6199-2.4513-4.1701-2.4513-7.6498v-19.626z"/><path d="m1677.6 567.19 20.056-0.86532v-0.51559l-0.083-0.50731-0.083-0.49903-0.1076-0.4891-0.1324-0.48083-0.1572-0.47007-0.1821-0.45931-0.1986-0.44773-0.2152-0.43531-0.24-0.42289-0.2566-0.40966-0.2813-0.39558-0.298-0.38152-0.3145-0.36579-0.331-0.35007-0.3476-0.33435-0.3641-0.31696-0.3807-0.29959-0.389-0.28138-0.4055-0.26234-0.4221-0.24331-0.4303-0.22262-0.4386-0.20276-0.4552-0.18207-0.4634-0.15973-0.4718-0.13738-0.48-0.1142-0.4882-0.091-0.4966-0.0662-0.5048-0.0414-0.5131-0.0166-0.5131 8e-3 -0.5131 0.0331-0.5049 0.0579-0.4965 0.0852-0.4883 0.10924-0.48 0.13324-0.4717 0.15559-0.4552 0.17793-0.4469 0.19944-0.4386 0.21932-0.4221 0.24-0.4138 0.25986-0.3972 0.27807-0.3807 0.2971-0.3641 0.31365-0.3476 0.33104-0.3311 0.34676-0.3144 0.36248-0.298 0.37738-0.2813 0.39145-0.2649 0.40552-0.24 0.41793-0.2234 0.43034-0.2069 0.44193-0.1821 0.45269-0.1572 0.46345-0.1407 0.47255-0.1159 0.48166-0.091 0.48993-0.083 0.49738-0.083 0.50483v1.0279zm-279.13 50.017v20.097l26.991-0.0414 25.273-8e-3 23.612-0.0331 22.045-0.0662 20.457-0.11255 19.002-0.168 17.603-0.23421 16.183-0.312 14.935-0.40055 13.624-0.50069 12.491-0.61076 11.369-0.73241 10.308-0.90497 9.3004-1.0483 8.3884-1.2045 7.5707-1.4092 6.8111-1.6654 6.1059-1.893 5.496-2.2884 4.9424-2.6563 4.3655-3.1138 3.7663-3.6218 3.1051-4.0615 2.3429-4.3956 1.6751-4.5823 1.1023-4.702 0.5876-4.7142 0.2814-4.7776v-4.8914l-0.1159-5.0551-0.2152-5.2688-0.2565-5.4944-20.056 0.86533 0.2565 5.4944 0.2152 5.033 0.1158 4.5834v4.1042l-0.2069 3.5979-0.4303 3.0628-0.5545 2.5001-0.7283 2.0653-0.9269 1.7209-1.1379 1.5456-1.5641 1.4972-2.1642 1.5417-2.8973 1.5548-3.7656 1.5023-4.6899 1.4995-5.6317 1.3502-6.6273 1.2526-7.68 1.125-8.7501 0.97018-9.8359 0.82676-10.977 0.73241-12.175 0.61076-13.468 0.50069-14.699 0.40055-16.103 0.312-17.446 0.23421-18.923 0.168-20.456 0.11255-21.967 0.0662-23.612 0.0331-25.273 8e-3 -26.991-0.0414v0.0414zm-275.3-116.8h-20.135l-0.1324 9.9004-0.4552 9.3858-0.6538 8.9254-0.72 8.4803-0.7862 8.0508-0.7614 7.6747-0.571 7.3532-0.331 7.0467v6.7564l0.4386 6.5974 1.099 6.4544 1.9225 6.2875 2.8303 6.017 3.9071 5.6044 4.9109 4.9711 5.8858 4.3528 6.7886 3.7493 7.7421 3.2396 8.7791 2.7842 9.9053 2.4238 11.158 2.0758 12.536 1.7849 13.962 1.547 15.555 1.3239 17.234 1.0771 18.961 0.88519 20.854 0.70758 22.794 0.54455 24.861 0.39807 27.016 0.26483 29.216 0.14814 31.505 0.0497v-20.056l-31.505-0.0496-29.138-0.14814-26.858-0.26566-24.703-0.39807-22.637-0.54455-20.618-0.70758-18.725-0.88527-16.841-1.0771-15.083-1.2456-13.412-1.4686-11.749-1.7056-10.214-1.9193-8.7261-2.1085-7.2852-2.3123-5.9322-2.4534-4.6659-2.5696-3.5255-2.6222-2.6301-2.6898-1.9398-2.7732-1.4947-3.1073-1.0568-3.6128-0.7034-4.2528-0.3642-4.9459v-5.6549l0.3311-6.2607 0.571-6.8814 0.6869-7.5172 0.7862-8.1288 0.8028-8.7162 0.6537-9.3191 0.4552-9.936 0.2069-10.53zm275.3-116.76v-20.135 0.0414l-31.505 3e-3 -29.177 0.0248-26.975 0.0745-24.823 0.14317-22.754 0.23586-20.814 0.35256-18.962 0.49075-17.154 0.65463-15.516 0.84024-13.923 1.088-12.496 1.2811-11.119 1.6156-9.8664 1.933-8.7791 2.3143-7.7412 2.7563-6.8293 3.3413-6.0033 4.0274-5.0284 4.737-3.9856 5.4691-2.9487 5.9504-1.9217 6.2569-1.0998 6.5089-0.4387 6.7054v6.9641l0.3311 7.325 0.571 7.7873 0.7614 8.1943 0.7448 8.743 0.7614 9.3146 0.6538 9.9093 0.4552 10.567 0.1324 11.248h20.134l-0.2069-11.798-0.4552-11.039-0.6537-10.303-0.7614-9.5505-0.8276-8.8212-0.6869-8.116-0.571-7.3154-0.3311-6.6171v-5.8629l0.3642-5.0537 0.7034-4.2279 1.0568-3.5049 1.3763-2.8821 1.8621-2.4815 2.5117-2.3767 3.408-2.2973 4.6262-2.24 5.9322-2.1279 7.2852-1.9208 8.765-1.697 10.253-1.4579 11.789-1.2814 13.452-1.0096 15.122-0.84009 16.919-0.65462 18.725-0.49075 20.657-0.35256 22.676-0.23586 24.743-0.14317 26.897-0.0745 29.177-0.0248 31.505-3e-3v0.0414zm285.37 106.7v20.135l10.068-10.067 0.1324-11.248 0.4552-10.567 0.6538-9.9093 0.7614-9.3146 0.7448-8.743 0.7614-8.1943 0.571-7.7873 0.331-7.325 0.01-6.9642-0.4386-6.7054-1.0999-6.5088-1.9216-6.2569-2.9487-5.9504-3.9857-5.4691-5.0284-4.737-6.0041-4.0274-6.8284-3.3413-7.7413-2.7563-8.779-2.3143-9.8665-1.933-11.119-1.6156-12.497-1.2811-13.923-1.088-15.515-0.84024-17.155-0.65462-18.961-0.49076-20.815-0.35255-22.754-0.23587-24.822-0.14317-26.976-0.0745-29.176-0.0248-31.506-0.0414v20.135l31.506-0.0331 29.176 0.0248 26.897 0.0745 24.742 0.14317 22.677 0.23586 20.657 0.35256 18.725 0.49076 16.919 0.65462 15.122 0.84008 13.452 1.0096 11.789 1.2814 10.253 1.4579 8.765 1.697 7.2852 1.9208 5.9322 2.1279 4.6253 2.24 3.4089 2.2973 2.5117 2.3767 1.8621 2.4814 1.3762 2.8822 1.0569 3.5048 0.7034 4.228 0.3641 5.0537v5.8629l-0.331 6.6171-0.571 7.3154-0.6869 8.116-0.8276 8.8212-0.7614 9.5504-0.6538 10.303-0.4551 11.039-0.2069 11.798 10.068-10.068zm10.068 10.068h-20.135v1.0295l0.083 0.504 0.091 0.49572 0.1159 0.48745 0.1407 0.47752 0.1572 0.46758 0.1821 0.45766 0.1986 0.44524 0.2235 0.43448 0.24 0.42207 0.2648 0.40883 0.2814 0.39476 0.2979 0.38069 0.3145 0.36496 0.331 0.35007 0.3476 0.33269 0.3641 0.31697 0.3807 0.29875 0.3973 0.28056 0.4055 0.26151 0.4221 0.24249 0.4386 0.22262 0.4469 0.20193 0.4551 0.17958 0.4718 0.1589 0.48 0.13572 0.4882 0.11256 0.4966 0.0885 0.5048 0.0662 0.5131 0.0414 0.5214 8e-3 0.5131-8e-3 0.5131-0.0414 0.5048-0.0662 0.4966-0.0885 0.4883-0.11256 0.48-0.13572 0.4634-0.1589 0.4552-0.17958 0.4469-0.20193 0.4386-0.22262 0.4221-0.24249 0.4055-0.26151 0.3972-0.28056 0.3807-0.29875 0.3642-0.31697 0.3475-0.33269 0.3311-0.35007 0.3145-0.36496 0.2979-0.38069 0.2814-0.39476 0.2648-0.40883 0.24-0.42207 0.2235-0.43448 0.1986-0.44524 0.182-0.45766 0.1573-0.46758 0.1324-0.47752 0.1159-0.48745 0.091-0.49572 0.083-0.504v-1.0295zm-73.483 10.067h63.415v-20.135h-63.415zv-20.135l-0.5214 8e-3 -0.5131 0.0414-0.5048 0.0662-0.4966 0.0885-0.4883 0.11255-0.48 0.13572-0.4634 0.1589-0.4552 0.17959-0.4469 0.20193-0.4303 0.22262-0.4221 0.24248-0.4055 0.26152-0.3973 0.28055-0.3806 0.29876-0.3642 0.31696-0.3476 0.33352-0.331 0.35007-0.3145 0.36497-0.2979 0.37986-0.2814 0.39476-0.2648 0.408-0.24 0.42207-0.2235 0.43448-0.1986 0.44524-0.1821 0.45766-0.1572 0.46758-0.1324 0.47752-0.1159 0.48745-0.091 0.49572-0.083 0.50317v2.059l0.083 0.504 0.091 0.49572 0.1159 0.48745 0.1324 0.47752 0.1572 0.46758 0.1821 0.45766 0.1986 0.44524 0.2235 0.43448 0.24 0.42207 0.2648 0.40883 0.2814 0.39476 0.2979 0.38069 0.3145 0.36496 0.331 0.35007 0.3476 0.33352 0.3642 0.31697 0.3806 0.29875 0.3973 0.28056 0.4055 0.26151 0.4221 0.24249 0.4303 0.22262 0.4469 0.20193 0.4552 0.17958 0.4634 0.1589 0.48 0.13572 0.4883 0.11173 0.4966 0.0885 0.5048 0.0662 0.5131 0.0414 0.5214 8e-3zm-63.416-83.55v20.135l1.6237 0.0662 1.4094 0.29462 1.3258 0.46179 1.2927 0.60663 1.3109 0.8467 1.3407 1.0621 1.3812 1.3337 1.4342 1.6212 1.4599 1.8464 1.4168 2.0493 1.4657 2.3052 1.4474 2.4615 1.44 2.633 1.4442 2.7421 1.4615 2.8663 1.4872 2.93 1.4888 3.0077 1.5385 3.024 1.6022 3.0562 1.6758 3.0266 1.7611 3.0116 1.8596 2.9349 2.0467 2.9135 2.1674 2.7901 2.3785 2.6443 2.6392 2.5136 2.9139 2.32 3.1986 2.0264 3.4949 1.7076 3.7639 1.2491 4.0047 0.76635 4.1404 0.29958v-20.135l-1.6238-0.0662-1.4093-0.29462-1.3258-0.4618-1.2927-0.60662-1.3109-0.84645-1.3407-1.0624-1.3812-1.3337-1.4342-1.6214-1.4599-1.8462-1.4168-2.0493-1.4657-2.3054-1.4474-2.4612-1.44-2.633-1.4442-2.7419-1.4607-2.8666-1.4888-2.9293-1.4872-3.0081-1.5393-3.0241-1.6022-3.0563-1.6758-3.0265-1.7612-3.0118-1.8595-2.9346-2.0467-2.9136-2.1674-2.7901-2.3785-2.6443-2.6392-2.5136-2.9139-2.3202-3.1978-2.0262-3.4957-1.7075-3.7639-1.2492-4.0047-0.76634zm-63.415 63.416v20.135l4.1404-0.29959 4.0047-0.76634 3.7638-1.2491 3.4949-1.7076 3.1987-2.0264 2.9139-2.32 2.64-2.5136 2.3776-2.6443 2.1675-2.7901 2.0466-2.9135 1.8596-2.9348 1.7611-3.0116 1.6767-3.0266 1.6014-3.0562 1.5385-3.024 1.4888-3.0077 1.488-2.9299 1.4607-2.8663 1.4441-2.7421 1.44-2.6329 1.4475-2.4616 1.4656-2.3052 1.4168-2.0493 1.4599-1.8464 1.4342-1.6212 1.3821-1.3337 1.3398-1.0621 1.3109-0.8467 1.2927-0.60662 1.3258-0.4618 1.4102-0.29462 1.6229-0.0662v-20.135l-4.1404 0.29959-4.0047 0.76634-3.7638 1.2492-3.4949 1.7075-3.1987 2.0262-2.9139 2.3202-2.6392 2.5135-2.3776 2.6443-2.1683 2.7902-2.0458 2.9136-1.8596 2.9346-1.7619 3.0118-1.6759 3.0266-1.6013 3.0563-1.5394 3.0241-1.488 3.008-1.4888 2.9294-1.4607 2.8665-1.4433 2.7419-1.4408 2.633-1.4466 2.4613-1.4657 2.3054-1.4176 2.0492-1.4591 1.8463-1.435 1.6214-1.3813 1.3336-1.3406 1.0624-1.3109 0.84645-1.2927 0.60662-1.3258 0.46179-1.4102 0.29462-1.6229 0.0662zm-63.416-63.416v20.135l1.6237 0.0662 1.4094 0.29462 1.3258 0.46179 1.2927 0.60663 1.3109 0.8467 1.3407 1.0621 1.3812 1.3337 1.4342 1.6212 1.4599 1.8464 1.4177 2.0493 1.4656 2.3052 1.4466 2.4615 1.44 2.633 1.445 2.7421 1.4607 2.8663 1.488 2.93 1.488 3.0077 1.5385 3.024 1.6022 3.0562 1.6758 3.0266 1.7611 3.0116 1.8596 2.9349 2.0467 2.9135 2.1674 2.7901 2.3785 2.6443 2.6392 2.5136 2.9139 2.32 3.1986 2.0264 3.4949 1.7076 3.7639 1.2491 4.0047 0.76635 4.1404 0.29958v-20.135l-1.6238-0.0662-1.4093-0.29462-1.3258-0.4618-1.2927-0.60662-1.3109-0.84645-1.3407-1.0624-1.3812-1.3337-1.4342-1.6214-1.4599-1.8462-1.4168-2.0493-1.4657-2.3054-1.4474-2.4612-1.44-2.633-1.4442-2.7419-1.4607-2.8666-1.488-2.9293-1.488-3.0081-1.5393-3.0241-1.6022-3.0563-1.6758-3.0265-1.7612-3.0118-1.8595-2.9346-2.0467-2.9136-2.1674-2.7901-2.3785-2.6443-2.6392-2.5136-2.9131-2.3202-3.1986-2.0262-3.4957-1.7075-3.7639-1.2492-4.0047-0.76634zm-63.415 63.416v20.135l4.1404-0.29959 4.0047-0.76634 3.7647-1.2491 3.4949-1.7076 3.1978-2.0264 2.9139-2.32 2.64-2.5136 2.3776-2.6443 2.1675-2.7901 2.0466-2.9135 1.8596-2.9348 1.7611-3.0116 1.6767-3.0266 1.6014-3.0562 1.5385-3.024 1.4888-3.0077 1.488-2.9299 1.4607-2.8663 1.4441-2.7421 1.44-2.6329 1.4475-2.4616 1.4656-2.3052 1.4168-2.0493 1.4599-1.8464 1.435-1.6212 1.3813-1.3337 1.3398-1.0621 1.3109-0.8467 1.2927-0.60662 1.3258-0.4618 1.4102-0.29462 1.6229-0.0662v-20.135l-4.1404 0.29959-4.0047 0.76634-3.763 1.2492-3.4957 1.7075-3.1987 2.0262-2.9131 2.3202-2.64 2.5135-2.3776 2.6443-2.1675 2.7902-2.0466 2.9136-1.8596 2.9346-1.7619 3.0118-1.6759 3.0266-1.6013 3.0563-1.5394 3.0241-1.488 3.008-1.4888 2.9294-1.4607 2.8665-1.4433 2.7419-1.4408 2.633-1.4466 2.4613-1.4657 2.3054-1.4176 2.0492-1.4591 1.8463-1.4342 1.6214-1.3821 1.3336-1.3406 1.0624-1.3109 0.84645-1.2919 0.60662-1.3266 0.46179-1.4094 0.29462-1.6237 0.0662zm0 20.135v-20.135l-0.5214 8e-3 -0.5131 0.0414-0.5048 0.0662-0.4966 0.0885-0.4883 0.11255-0.48 0.13572-0.4634 0.1589-0.4552 0.17959-0.4469 0.20193-0.4386 0.22262-0.4221 0.24248-0.4055 0.26152-0.3972 0.28055-0.3807 0.29876-0.3642 0.31696-0.3475 0.33352-0.3311 0.35007-0.3145 0.36497-0.2979 0.37986-0.2814 0.39476-0.2648 0.408-0.24 0.42207-0.2234 0.43448-0.1987 0.44524-0.182 0.45766-0.1573 0.46758-0.1324 0.47752-0.1159 0.48745-0.091 0.49572-0.083 0.50317v2.059l0.083 0.504 0.091 0.49572 0.1159 0.48745 0.1324 0.47752 0.1573 0.46758 0.182 0.45766 0.1987 0.44524 0.2234 0.43448 0.24 0.42207 0.2648 0.40883 0.2814 0.39476 0.2979 0.38069 0.3145 0.36496 0.3311 0.35007 0.3475 0.33352 0.3642 0.31697 0.3807 0.29875 0.3972 0.28056 0.4055 0.26151 0.4221 0.24249 0.4386 0.22262 0.4469 0.20193 0.4552 0.17958 0.4634 0.1589 0.48 0.13572 0.4883 0.11173 0.4966 0.0885 0.5048 0.0662 0.5131 0.0414 0.5214 8e-3z"/><path d="m1335.1 490.34v20.135l0.5213-8e-3 0.5131-0.0414 0.5049-0.0662 0.4965-0.0885 0.4883-0.11255 0.48-0.13572 0.4634-0.1589 0.4552-0.17959 0.4469-0.20193 0.4304-0.22262 0.422-0.24248 0.4055-0.26152 0.3973-0.28055 0.3807-0.29876 0.3641-0.31696 0.3476-0.33269 0.331-0.35007 0.3145-0.36497 0.298-0.38069 0.2813-0.39476 0.2649-0.40882 0.24-0.42207 0.2234-0.43449 0.1986-0.44524 0.1821-0.45765 0.1572-0.46759 0.1325-0.47752 0.1158-0.48744 0.091-0.49573 0.083-0.504v-2.059l-0.083-0.50317-0.091-0.49573-0.1158-0.48745-0.1325-0.47751-0.1572-0.46759-0.1821-0.45766-0.1986-0.44524-0.2234-0.43448-0.24-0.42207-0.2649-0.408-0.2813-0.39476-0.298-0.37986-0.3145-0.36497-0.331-0.35006-0.3476-0.33352-0.3641-0.31697-0.3807-0.29876-0.3973-0.28055-0.4055-0.26151-0.422-0.24249-0.4304-0.22262-0.4469-0.20193-0.4552-0.17959-0.4634-0.15889-0.48-0.13573-0.4883-0.11172-0.4965-0.0885-0.5049-0.0662-0.5131-0.0414-0.5213-8e-3zm-63.416-63.416v20.135l1.6229 0.0662 1.4102 0.29462 1.3258 0.46179 1.2927 0.60663 1.3109 0.8467 1.3407 1.0621 1.3812 1.3337 1.4342 1.6212 1.4599 1.8464 1.4168 2.0493 1.4657 2.3052 1.4474 2.4615 1.44 2.633 1.4442 2.7421 1.4615 2.8663 1.4872 2.93 1.488 3.0077 1.5393 3.024 1.6022 3.0562 1.6758 3.0266 1.7611 3.0116 1.8596 2.9349 2.0466 2.9135 2.1675 2.7901 2.3785 2.6443 2.6391 2.5136 2.9131 2.32 3.1987 2.0264 3.4957 1.7076 3.7639 1.2491 4.0046 0.76635 4.1405 0.29958v-20.135l-1.6238-0.0662-1.4093-0.29462-1.3258-0.4618-1.2927-0.60662-1.3109-0.84645-1.3407-1.0624-1.3813-1.3337-1.4342-1.6214-1.4598-1.8462-1.4177-2.0493-1.4656-2.3054-1.4467-2.4612-1.44-2.633-1.4449-2.7419-1.4607-2.8666-1.488-2.9293-1.488-3.0081-1.5385-3.0241-1.6022-3.0563-1.6759-3.0265-1.7619-3.0118-1.8588-2.9346-2.0466-2.9136-2.1674-2.7901-2.3785-2.6443-2.6392-2.5136-2.9139-2.3202-3.1978-2.0262-3.4957-1.7075-3.7639-1.2492-4.0047-0.76634zm-63.415 63.416v20.135l4.1404-0.29959 4.0047-0.76634 3.7638-1.2491 3.4949-1.7076 3.1986-2.0264 2.914-2.32 2.6391-2.5136 2.3785-2.6443 2.1675-2.7901 2.0466-2.9135 1.8588-2.9348 1.7619-3.0116 1.6759-3.0266 1.6013-3.0562 1.5393-3.024 1.488-3.0077 1.4889-2.9299 1.4607-2.8663 1.4433-2.7421 1.4408-2.6329 1.4466-2.4616 1.4657-2.3052 1.4176-2.0493 1.4591-1.8464 1.435-1.6212 1.3821-1.3337 1.3398-1.0621 1.3109-0.8467 1.2919-0.60662 1.3266-0.4618 1.4102-0.29462 1.6229-0.0662v-20.135l-4.1404 0.29959-4.0047 0.76634-3.7639 1.2492-3.4949 1.7075-3.1986 2.0262-2.9139 2.3202-2.64 2.5135-2.3777 2.6443-2.1674 2.7902-2.0466 2.9136-1.8596 2.9346-1.7611 3.0118-1.6759 3.0266-1.6022 3.0563-1.5385 3.0241-1.4888 3.008-1.488 2.9294-1.4607 2.8665-1.4441 2.7419-1.44 2.633-1.4475 2.4613-1.4656 2.3054-1.4169 2.0492-1.4598 1.8463-1.4342 1.6214-1.3813 1.3336-1.3407 1.0624-1.3109 0.84645-1.2926 0.60662-1.3258 0.46179-1.4102 0.29462-1.6229 0.0662zm-63.416-63.416v20.135l1.6237 0.0662 1.4094 0.29462 1.3258 0.46179 1.2927 0.60663 1.3109 0.8467 1.3407 1.0621 1.3812 1.3337 1.4342 1.6212 1.4599 1.8464 1.4168 2.0493 1.4657 2.3052 1.4474 2.4615 1.44 2.633 1.445 2.7421 1.4607 2.8663 1.4872 2.93 1.4888 3.0077 1.5385 3.024 1.6022 3.0562 1.6758 3.0266 1.7611 3.0116 1.8596 2.9349 2.0466 2.9135 2.1675 2.7901 2.3785 2.6443 2.6391 2.5136 2.9131 2.32 3.1987 2.0264 3.4957 1.7076 3.7639 1.2491 4.0046 0.76635 4.1405 0.29958v-20.135l-1.6238-0.0662-1.4093-0.29462-1.3258-0.4618-1.2927-0.60662-1.3109-0.84645-1.3407-1.0624-1.3813-1.3337-1.4342-1.6214-1.4598-1.8462-1.4177-2.0493-1.4656-2.3054-1.4467-2.4612-1.44-2.633-1.4449-2.7419-1.4599-2.8666-1.4888-2.9293-1.488-3.0081-1.5385-3.0241-1.6022-3.0563-1.6759-3.0265-1.7611-3.0118-1.8596-2.9346-2.0466-2.9136-2.1674-2.7901-2.3785-2.6443-2.6392-2.5136-2.9139-2.3202-3.1978-2.0262-3.4957-1.7075-3.7639-1.2492-4.0047-0.76634zm0 20.135v-20.135l-0.5214 8e-3 -0.5131 0.0414-0.5048 0.0662-0.4966 0.0886-0.4882 0.11172-0.48 0.13572-0.4635 0.1589-0.4551 0.17959-0.4469 0.20193-0.4387 0.22262-0.422 0.24248-0.4056 0.26152-0.3972 0.28055-0.3807 0.29876-0.3641 0.31696-0.3476 0.33269-0.331 0.35007-0.3145 0.36497-0.298 0.37986-0.2813 0.39476-0.2649 0.40883-0.24 0.42207-0.2234 0.43448-0.1986 0.44607-0.1821 0.45765-0.1572 0.46759-0.1325 0.47752-0.1158 0.48744-0.091 0.49573-0.083 0.504v2.059l0.083 0.50318 0.091 0.49572 0.1158 0.48745 0.1325 0.47752 0.1572 0.46758 0.1821 0.45766 0.1986 0.44524 0.2234 0.43448 0.24 0.42207 0.2649 0.40883 0.2813 0.39476 0.298 0.37986 0.3145 0.36496 0.331 0.35007 0.3476 0.33352 0.3641 0.31697 0.3807 0.29875 0.3972 0.28056 0.4056 0.26151 0.422 0.24249 0.4387 0.22262 0.4469 0.20193 0.4551 0.17958 0.4635 0.1589 0.48 0.13572 0.4882 0.11173 0.4966 0.0885 0.5048 0.0662 0.5131 0.0414 0.5214 8e-3z"/></g></g></svg>
