<svg enable-background="new 0 0 131 2937" version="1.1" viewBox="0 0 800 193.14" xml:space="preserve" xmlns="http://www.w3.org/2000/svg">
<g transform="matrix(7.9836 0 0 7.9836 -5.2852 -1.1017)" fill="#dbc63b">
				<path d="m0.662 12.204v11.584h6.028v-11.584c4e-3 -3.328 2.701-6.024 6.028-6.027 3.32 0 6.024 2.705 6.024 6.027v11.584h6.026v-11.584c0-6.646-5.406-12.06-12.054-12.06-6.642 3e-3 -12.052 5.413-12.052 12.06z"/>
				<path d="m52.426 12.204c0 6.646 5.404 12.056 12.056 12.056s12.059-5.406 12.059-12.056c0-6.646-5.406-12.06-12.059-12.06-6.649 3e-3 -12.056 5.413-12.056 12.06zm6.027 0c4e-3 -3.328 2.701-6.024 6.028-6.027 3.328 3e-3 6.025 2.7 6.029 6.027-4e-3 3.327-2.701 6.023-6.029 6.026-3.328-2e-3 -6.024-2.699-6.028-6.026z"/>
				<path d="m100.87 6.182v-6.021c-4.939 0-9.271 2.382-11.629 5.925-2.35-3.56-6.633-5.948-11.646-5.948v6.021c3.761 0 6.753 2.701 6.753 6.023 0 3.318-2.992 6.021-6.753 6.021v6.021c5.013 0 9.271-2.383 11.628-5.925 2.352 3.558 6.688 5.949 11.646 5.949v-6.021c-3.727 0-6.754-2.701-6.754-6.021 1e-3 -3.322 3.029-6.024 6.755-6.024z"/>
				<path d="m38.779 6.161c-3.387 0-5.243 2.868-5.513 3.711h11.122c-0.245-0.841-1.923-3.711-5.609-3.711zm-11.961 6.05c0-6.676 5.043-12.064 12.396-12.064 6.69 0 11.708 5.566 11.708 12.853 0 0 0 1.063-0.339 1.886h-17.159c0.728 1.354 2.504 3.972 5.701 3.972 2.943 0 4.162-0.445 6.762-2.023l3.064 4.654c-2.768 2.256-6.959 2.841-9.688 2.841-6.062-5e-3 -12.445-4.536-12.445-12.119z"/>
			</g>
</svg>
