<svg width="800" height="242.5" enable-background="new 0 0 1599.999 900" version="1.1" viewBox="0 0 800 242.5" xml:space="preserve" xmlns="http://www.w3.org/2000/svg">
<g transform="matrix(.51808 0 0 .51808 -10.81 -117.46)">
		<linearGradient id="SVGID_1_" x1="73.962" x2="325.87" y1="466.99" y2="718.9" gradientUnits="userSpaceOnUse">
			<stop stop-color="#04BAEE" offset=".25"/>
			<stop stop-color="#164193" offset="1"/>
		</linearGradient>
		<polygon points="20.866 520.09 20.866 636.77 349.98 694.79 349.98 520.14" fill="url(#SVGID_1_)"/>
		<linearGradient id="SVGID_2_" x1="20.866" x2="607.9" y1="460.16" y2="460.16" gradientUnits="userSpaceOnUse">
			<stop stop-color="#04BAEE" offset=".25"/>
			<stop stop-color="#0087C5" offset=".4369"/>
			<stop stop-color="#164193" offset=".75"/>
		</linearGradient>
		<rect x="20.866" y="283.56" width="587.04" height="353.21" fill="url(#SVGID_2_)"/>
			<linearGradient id="SVGID_3_" x1="81.175" x2="295.44" y1="460.39" y2="460.39" gradientUnits="userSpaceOnUse">
				<stop stop-color="#fff" offset=".6679"/>
				<stop stop-color="#C0C6C9" offset="1"/>
			</linearGradient>
			<path d="m246.52 582c-17.4-37.778-88.896-135.25-109.98-159.35v159.35h-55.359v-243.23h48.668c7.91 7.725 103.08 124.81 109.88 143.55v-143.55h55.722v243.23h-48.927z" fill="url(#SVGID_3_)"/>
		<linearGradient id="Vlak_1_" x1="265.06" x2="638.22" y1="399" y2="464.8" gradientUnits="userSpaceOnUse">
			<stop stop-color="#04BAEE" offset=".25"/>
			<stop stop-color="#164193" offset=".75"/>
		</linearGradient>
		<polygon points="607.9 281.82 607.9 636.77 295.44 582 295.44 226.71" fill="url(#Vlak_1_)"/>
		<path d="m499.68 317.94 55.847 9.848v243.75l-55.847-9.847v-106.93h-93.837l2e-3 90.383-55.863-9.839-4e-3 -243.76 55.865 9.85v100.5h93.837z" fill="#fff"/>
		<g fill="#203b76">
			<path d="m783.12 544.92c-10.49-18.627-21.837-37.019-34.047-55.181-12.211-18.157-25.206-35.299-38.979-51.423v106.6h-36.161v-162.72h29.821c5.165 5.166 10.878 11.507 17.141 19.02 6.259 7.514 12.639 15.538 19.137 24.068 6.494 8.534 12.952 17.376 19.372 26.534 6.417 9.158 12.445 17.963 18.081 26.416v-96.038h36.395v162.72z"/>
			<path d="m851.45 382.19h36.631v162.72h-36.631z"/>
			<path d="m925.65 544.92v-162.72h109.89v30.761h-73.26v31.934h65.042v30.056h-65.042v39.213h78.662v30.76z"/>
			<path d="m1131.6 548.2c-11.428 0-21.29-1.607-29.586-4.814-8.299-3.207-15.145-7.668-20.545-13.384-5.401-5.713-9.392-12.522-11.975-20.428-2.584-7.903-3.875-16.632-3.875-26.181v-101.2h36.63v98.151c0 6.575 0.742 12.173 2.231 16.79 1.486 4.619 3.523 8.376 6.105 11.271 2.583 2.898 5.713 4.971 9.392 6.222 3.676 1.254 7.708 1.878 12.092 1.878 8.923 0 16.162-2.737 21.72-8.219 5.555-5.478 8.336-14.793 8.336-27.943v-98.151h36.63v101.2c0 9.55-1.332 18.315-3.991 26.298-2.664 7.984-6.732 14.834-12.21 20.546-5.481 5.716-12.446 10.137-20.899 13.267-8.452 3.131-18.472 4.697-30.055 4.697z"/>
			<path d="m1343.3 399.57c1.875 6.421 3.944 13.66 6.211 21.72 2.267 8.064 4.688 16.4 7.268 25.007 2.575 8.61 5.195 17.222 7.851 25.83 2.656 8.61 5.236 16.594 7.738 23.95 2.043-7.984 4.128-16.672 6.252-26.064 2.12-9.392 4.128-19.096 6.013-29.117 1.886-10.016 3.735-19.995 5.544-29.938 1.809-9.94 3.5-19.526 5.074-28.765h38.05c-5.511 27.238-11.85 54.869-19.016 82.889-7.165 28.023-14.922 54.634-23.264 79.836h-33.504c-5.471-15.028-10.783-30.797-15.938-47.314-5.158-16.514-10.236-33.069-15.233-49.663-5.016 16.594-10.031 33.149-15.047 49.663-5.016 16.517-10.266 32.286-15.75 47.314h-33.479c-8.336-25.202-16.078-51.813-23.229-79.836-7.154-28.019-13.48-55.65-18.983-82.889h39.684c1.569 9.239 3.302 18.825 5.191 28.765 1.886 9.942 3.853 19.922 5.9 29.938 2.044 10.02 4.127 19.724 6.252 29.117 2.124 9.392 4.289 18.081 6.49 26.064 2.822-7.668 5.566-15.809 8.233-24.42 2.664-8.608 5.254-17.219 7.764-25.83 2.51-8.608 4.821-16.907 6.938-24.89 2.118-7.983 4.04-15.105 5.765-21.368h31.225z"/>
			<path d="m1500.9 516.97c5.166 0 9.43-0.429 12.797-1.291 3.365-0.859 6.065-2.033 8.102-3.523 2.032-1.485 3.441-3.247 4.226-5.283 0.781-2.033 1.174-4.304 1.174-6.81 0-5.32-2.506-9.744-7.514-13.266-5.011-3.523-13.619-7.316-25.829-11.389-5.323-1.878-10.648-4.029-15.968-6.457-5.323-2.426-10.097-5.478-14.323-9.158-4.227-3.676-7.672-8.138-10.332-13.385-2.664-5.242-3.992-11.623-3.992-19.137s1.409-14.283 4.227-20.312c2.818-6.024 6.809-11.153 11.975-15.38 5.165-4.226 11.425-7.473 18.785-9.744 7.356-2.267 15.651-3.405 24.889-3.405 10.956 0 20.428 1.174 28.412 3.522 7.984 2.349 14.559 4.931 19.724 7.749l-10.567 28.882c-4.542-2.348-9.591-4.421-15.145-6.222-5.558-1.798-12.25-2.701-20.076-2.701-8.769 0-15.068 1.214-18.903 3.64-3.838 2.429-5.753 6.146-5.753 11.154 0 2.976 0.704 5.481 2.113 7.513 1.409 2.036 3.405 3.874 5.988 5.519 2.583 1.644 5.555 3.133 8.923 4.461 3.365 1.332 7.081 2.701 11.154 4.109 8.453 3.134 15.809 6.222 22.072 9.275 6.259 3.053 11.465 6.615 15.615 10.684 4.146 4.073 7.239 8.846 9.276 14.323 2.033 5.481 3.052 12.133 3.052 19.959 0 15.186-5.323 26.967-15.968 35.34-10.647 8.376-26.691 12.562-48.136 12.562-7.202 0-13.699-0.433-19.489-1.291-5.793-0.862-10.918-1.919-15.38-3.17-4.461-1.252-8.299-2.583-11.506-3.992-3.21-1.409-5.911-2.736-8.101-3.991l10.332-29.117c4.85 2.664 10.838 5.048 17.963 7.162 7.123 2.114 15.852 3.17 26.183 3.17z"/>
		</g>
</g>
</svg>
