<svg version="1.1" viewBox="0 0 145 145.2" xmlns="http://www.w3.org/2000/svg">
 <path class="st0" d="m0 0h145v145.1h-145z" fill="#fff"/>
 <path d="m0 0h72.9v25.1h-72.9z" fill="#e6e6e6"/>
 <path d="m72.9 0h72.1v25.1h-72.1z" fill="#727171"/>
 <path d="m0 113.7h145v31.5h-145z" fill="#e6001a"/>
 <path class="st4" d="m14.3 80.1 2.7 18 2.9-18h4.7l2.9 18h0.1l2.7-18h4.7l-4.4 24.3h-5.6l-2.7-17.6h-0.1l-2.7 17.6h-5.5l-4.4-24.3zm28.1 7.1c0.1-1.4 0.5-2.7 1.1-4 0.6-1.1 1.4-2 2.5-2.6 1.4-0.7 2.9-1 4.4-0.9 1.5-0.1 3 0.3 4.4 0.9 1.1 0.6 1.9 1.5 2.5 2.6 0.6 1.3 1 2.6 1.1 4a43.613 43.613 0 0 1 0 10.2c-0.1 1.4-0.5 2.7-1.1 4-0.6 1.1-1.4 2-2.5 2.6-1.4 0.6-2.9 1-4.4 0.9-1.5 0.1-3-0.2-4.4-0.9-1.1-0.6-2-1.5-2.5-2.6-0.6-1.3-1-2.6-1.1-4-0.3-3.4-0.3-6.8 0-10.2zm4.8 9.3c0 0.9 0.2 1.9 0.5 2.8 0.2 0.6 0.5 1.2 1 1.6 1.1 0.7 2.4 0.7 3.5 0 0.5-0.4 0.9-0.9 1-1.6 0.3-0.9 0.4-1.8 0.5-2.8 0.1-1.2 0.1-2.5 0.1-4.2 0-1.6 0-3-0.1-4.1 0-0.9-0.2-1.9-0.5-2.8-0.2-0.6-0.5-1.2-1-1.6-1.1-0.7-2.4-0.7-3.5 0-0.5 0.4-0.9 1-1 1.6-0.3 0.9-0.4 1.8-0.5 2.8-0.1 1.1-0.1 2.5-0.1 4.1s0 3 0.1 4.2zm30.9-16.4c1.7-0.1 3.4 0.4 4.8 1.5 1.2 1.3 1.8 3 1.7 4.7 0.1 1.4-0.3 2.8-1 4-0.7 1.1-1.8 1.8-3.1 2v0.1c1 0.1 1.9 0.5 2.7 1.2 0.7 0.8 1 1.9 1.1 3 0 0.5 0.1 0.9 0.1 1.5 0 0.5 0 1.1 0.1 1.8 0.1 1.3 0.1 2.3 0.2 3 0.1 0.6 0.4 1.1 0.9 1.4v0.2h-5.3c-0.3-0.3-0.4-0.7-0.5-1.2-0.1-0.4-0.1-0.9-0.1-1.4l-0.1-4.7c0-0.8-0.3-1.6-0.7-2.2-0.6-0.6-1.4-0.9-2.2-0.8h-2.7v10.3h-5v-24.4zm-2.1 10.7c1 0.1 2-0.2 2.7-0.8 0.7-0.8 1.1-1.8 1-2.8 0-2.2-1.1-3.4-3.4-3.4h-2.3v7zm20.4-10.7h4.9v20.3h8.7v4h-13.6zm31 0c1.4-0.1 2.8 0.2 4.1 0.8 1 0.5 1.9 1.4 2.4 2.4 0.6 1.2 1 2.4 1.2 3.7 0.2 1.6 0.3 3.2 0.3 4.9 0 1.9-0.1 3.7-0.4 5.6-0.2 1.4-0.6 2.7-1.3 3.9-0.6 1-1.5 1.8-2.6 2.3-1.3 0.5-2.7 0.8-4 0.7h-7.7v-24.3zm-1 20.7c0.7 0 1.4-0.1 2.1-0.4 0.6-0.3 1-0.9 1.2-1.5 0.3-0.9 0.6-1.8 0.6-2.7 0.1-1.1 0.1-2.5 0.1-4.2 0-1.4 0-2.6-0.1-3.6-0.1-0.9-0.2-1.8-0.6-2.6-0.2-0.6-0.7-1.2-1.3-1.6-0.7-0.4-1.5-0.6-2.2-0.5h-2.1v17.1zm-80.7-65.9c-2.7-0.9-5.7 0.5-6.7 3.2l-4.7 13.5-8.8-14.2c-1.3-2.6-4.5-3.5-7-2.2-1.2 0.6-2.1 1.7-2.5 2.9l-7.9 22.9c-0.9 2.7 0.5 5.7 3.2 6.6s5.7-0.5 6.6-3.2l4.7-13.4 8.8 14.2c1.4 2.5 4.5 3.5 7.1 2.1 1.2-0.6 2-1.7 2.5-2.9l7.9-22.9c1-2.7-0.5-5.7-3.2-6.6zm85.3 24.1-6.7-7 12.3-7.8c2.3-1.5 3-4.6 1.5-6.9s-4.6-3-6.9-1.5l-16.6 10.5 1.7-4.8c1-2.7-0.5-5.7-3.2-6.7s-5.7 0.5-6.7 3.2l-7.9 23c-0.9 2.7 0.5 5.7 3.2 6.7 2.7 0.9 5.7-0.5 6.7-3.2l3.6-10.5 11.6 12.1c2 2 5.2 2.1 7.3 0.2s2-5.2 0.1-7.3zm-40-24.1c-2.7-0.9-5.7 0.5-6.7 3.2l-2.9 8.4h-12l1.7-4.9c0.9-2.7-0.5-5.7-3.2-6.6s-5.7 0.5-6.6 3.2l-7.9 22.8c-0.9 2.7 0.5 5.7 3.2 6.6s5.7-0.5 6.6-3.2l2.9-8.5h12l-1.7 5c-0.9 2.7 0.5 5.7 3.2 6.6s5.7-0.5 6.6-3.2l7.9-22.9c1.1-2.6-0.4-5.6-3.1-6.5z" fill="#3f3a3a"/>
 <path class="st5" d="m45.7 34.9c-2.7-0.9-5.7 0.5-6.7 3.2l-4.7 13.5-8.8-14.2c-1.3-2.6-4.5-3.5-7-2.2-1.2 0.6-2.1 1.7-2.5 2.9l-7.9 22.9c-0.9 2.7 0.5 5.7 3.2 6.6s5.7-0.5 6.6-3.2l4.7-13.4 8.8 14.2c1.4 2.5 4.5 3.5 7.1 2.1 1.2-0.6 2-1.7 2.5-2.9l7.9-22.9c1-2.7-0.5-5.7-3.2-6.6zm85.3 24.1-6.7-7 12.3-7.8c2.3-1.5 3-4.6 1.5-6.9s-4.6-3-6.9-1.5l-16.6 10.5 1.7-4.8c1-2.7-0.5-5.7-3.2-6.7s-5.7 0.5-6.7 3.2l-7.9 23c-0.9 2.7 0.5 5.7 3.2 6.7 2.7 0.9 5.7-0.5 6.7-3.2l3.6-10.5 11.6 12.1c2 2 5.2 2.1 7.3 0.2s2-5.2 0.1-7.3zm-40-24.1c-2.7-0.9-5.7 0.5-6.7 3.2l-2.9 8.4h-12l1.7-4.9c0.9-2.7-0.5-5.7-3.2-6.6s-5.7 0.5-6.6 3.2l-7.9 22.8c-0.9 2.7 0.5 5.7 3.2 6.6s5.7-0.5 6.6-3.2l2.9-8.5h12l-1.7 5c-0.9 2.7 0.5 5.7 3.2 6.6s5.7-0.5 6.6-3.2l7.9-22.9c1.1-2.6-0.4-5.6-3.1-6.5z" fill="#3f3a3a"/>
 <path class="st0" d="m42.1 119.4v14.3c0 4.2-1.9 6-6 6-4.2 0-5.3-2.7-5.3-5.8v-0.9h3.7v0.6c0 2.1 0.3 3.1 1.8 3.1s1.8-1 1.8-3.1v-14.2zm9.5 0h5l5.3 19.9h-4.2l-0.9-4.2h-5.3l-0.9 4.2h-4.2zm0.5 12.4h3.9l-1.9-9h-0.1zm14.6-12.4h7c4.1 0 5.5 3 5.5 6 0 4.1-2.5 6-6.3 6h-2.1v8h-4v-20zm4 9h1.8c1.6 0 2.7-0.9 2.7-3 0-2-0.8-3.1-2.8-3.1h-1.7zm15.7-9h5l5.3 19.9h-4.2l-0.9-4.2h-5.3l-0.9 4.2h-4.2zm0.5 12.4h3.9l-1.9-9h-0.1zm18.7-12.4 4.9 13.7h0.1v-13.7h3.7v19.9h-4.6l-4.9-14h-0.1v14h-3.7v-19.9z" fill="#fff"/>
</svg>
