<svg width="800" height="193.51" version="1.1" viewBox="0 0 211.67 51.2" xmlns="http://www.w3.org/2000/svg">
 <g transform="translate(-24.675 -85.105)">
  <g transform="matrix(1.2461 0 0 1.2461 -6.0725 -33.545)" fill="#f1faee" stroke-width="10.459">
   <path d="m24.675 96.104h14.017v6.398q3.1435-3.9202 6.361-5.5845 3.2175-1.7012 7.8404-1.7012 6.2501 0 9.7635 3.7353 3.5504 3.6983 3.5504 11.465v24.963h-15.126v-21.598q0-3.6983-1.3684-5.2146-1.3684-1.5533-3.8462-1.5533-2.7368 0-4.438 2.0711-1.7012 2.071-1.7012 7.4335v18.861h-15.052z" style="white-space:pre"/>
   <path d="m129.71 120.03 14.312 1.6272q-1.1834 4.475-3.8832 7.7664-2.6997 3.2545-6.9158 5.0667-4.1791 1.8122-10.651 1.8122-6.2501 0-10.429-1.1465-4.1421-1.1834-7.1377-3.7723-2.9956-2.6258-4.6968-6.1392t-1.7012-9.3197q0-6.0652 2.071-10.096 1.5163-2.9586 4.1421-5.2886 2.6258-2.3669 5.3995-3.5134 4.4009-1.8122 11.28-1.8122 9.6156 0 14.645 3.4394 5.0667 3.4395 7.1007 10.059l-14.164 1.8861q-0.6657-2.5148-2.4409-3.7722-1.7382-1.2944-4.6968-1.2944-3.7353 0-6.0652 2.6997-2.2929 2.6628-2.2929 8.0992 0 4.8448 2.2929 7.3596t5.8433 2.5148q2.9586 0 4.9557-1.5163 2.0341-1.5163 3.0326-4.6598z" style="white-space:pre"/>
   <path d="m194.54 119.48h-30.178q0.40711 3.6243 1.9601 5.3995 2.182 2.5518 5.6954 2.5518 2.219 0 4.2161-1.1095 1.2204-0.70268 2.6258-2.4779l14.83 1.3683q-3.4024 5.9173-8.2102 8.5061-4.8078 2.5518-13.795 2.5518-7.8034 0-12.278-2.182-4.475-2.219-7.4336-6.9898-2.9216-4.8078-2.9216-11.28 0-9.2087 5.8803-14.904 5.9173-5.6954 16.31-5.6954 8.4321 0 13.314 2.5518 4.8818 2.5518 7.4336 7.3965 2.5518 4.8448 2.5518 12.611zm-15.311-7.2117q-0.44372-4.3639-2.3669-6.2501-1.8861-1.8861-4.9927-1.8861-3.5873 0-5.7324 2.8477-1.3683 1.7752-1.7382 5.2886z" style="white-space:pre"/>
   <path d="m75.748 95.428h15.052v8.9958h-15.052zm0 12.965h15.052v26.988h-15.052z" style="white-space:pre"/>
  </g>
 </g>
</svg>
