<svg width="800" height="467.92" version="1.1" viewBox="0 0 800 467.92" xmlns="http://www.w3.org/2000/svg">
 <g transform="matrix(2.3499 0 0 2.3499 1.1644 0)" fill="#ff6700">
  <path d="m48.322 46.694c-13.285-0.012-25.487 5.434-34.168 14.144-8.713 8.691-14.154 20.899-14.154 34.161v44.146h36.684v-43.383c0.023-5.279 1.288-9.815 3.415-13.306 2.169-3.447 4.961-5.498 8.223-5.498 3.28 0 6.062 2.051 8.231 5.498 2.138 3.49 3.392 8.026 3.403 13.306v43.382h36.684v-44.145c0.012-13.262-5.441-25.47-14.143-34.16-8.691-8.711-20.872-14.157-34.175-14.145"/>
  <path d="m136.14 34.808c3.686-3.685 5.965-8.793 5.965-14.426 0-5.629-2.279-10.722-5.965-14.407-3.696-3.709-8.801-5.975-14.427-5.975s-10.719 2.266-14.418 5.975c-3.684 3.685-5.975 8.778-5.975 14.407 0 5.633 2.291 10.741 5.975 14.426l4.504 4.516c7.514 7.513 8.048 9.493 0.905 16.652l-4.088 4.087c-3.359 3.371-5.43 7.995-5.43 13.119v65.962h37.076v-65.962c0-5.124-2.083-9.748-5.432-13.119l-4.099-4.087c-7.144-7.144-6.62-9.139 0.894-16.665"/>
  <path d="m201.84 110.42c-2.163 3.995-4.951 6.35-8.223 6.372-3.262-0.022-6.075-2.377-8.223-6.372-2.139-4.03-3.403-9.242-3.413-15.353 0.01-6.125 1.274-11.337 3.413-15.376 2.148-3.991 4.961-6.34 8.223-6.36 3.272 0.02 6.061 2.369 8.223 6.36 1.59 3.013 2.691 6.655 3.152 10.841h36.729c-1.082-11.517-6.219-21.948-13.939-29.645-8.692-8.714-20.884-14.156-34.164-14.144-13.284-0.012-25.484 5.43-34.166 14.144-8.722 8.69-14.164 20.898-14.155 34.18-9e-3 13.285 5.434 25.475 14.155 34.152 6.674 6.699 18.32 14.16 34.166 14.16 11.896 0 22.912-4.365 31.318-11.517 6.132-5.215 15.224-15.658 16.786-32.279h-36.729c-0.462 4.206-1.563 7.852-3.153 10.837"/>
  <path d="m339.45 132.73c0-1.22-0.355-2.377-0.966-3.335l-20.079-30.383 13.905-25.252c5.136-8.722 2.238-19.968-6.488-25.108-8.722-5.14-19.98-2.25-25.116 6.484l-16.605 29.68v-19.79c0-10.137-8.226-18.342-18.356-18.342-10.12 0-18.34 8.206-18.34 18.342v74.12h36.696v-29.031l19.352 29.031 29.597-0.022c3.535 0 6.4-2.86 6.4-6.394"/>
 </g>
 <g transform="matrix(4.3184 0 0 4.3184 2882.9 -1082.7)" fill="#fff" aria-label="SCHWEIZ">
  <path d="m-655.22 331.08q5.04 0 8.2 2.04 3.16 2 3.84 5.8l-8.56 1.72q-0.68-2.96-3.44-2.96-0.92 0-1.52 0.4-0.56 0.4-0.56 1.16 0 0.96 1.04 1.24l5.24 1.36q4.04 1.04 6 2.96t1.96 5.12q0 2.44-1.12 4.28-1.08 1.84-2.88 2.88-1.8 1-3.76 1.48-1.96 0.52-4.04 0.52-5.2 0-8.68-2.32-3.48-2.36-4.08-6.12l8.92-1.64q0.84 3.16 3.84 3.16 2.36 0 2.36-1.52 0-0.92-1.2-1.24l-5.48-1.44q-3.84-0.92-5.68-2.84t-1.84-5q0-4.36 3.24-6.68 3.24-2.36 8.2-2.36z"/>
  <path d="m-621.8 346.96 8.88 1.68q-0.8 4.8-4.56 7.64-3.76 2.8-9.52 2.8-6.16 0-10.4-4.04-4.2-4.08-4.2-9.96t4.2-9.92q4.24-4.08 10.4-4.08 5.24 0 9.2 2.84 4 2.8 4.84 7.36l-8.88 1.6q-0.48-1.84-1.8-2.88-1.32-1.08-3.36-1.08-2.4 0-4.08 1.8-1.64 1.76-1.64 4.36t1.64 4.4q1.68 1.76 4.08 1.76 2 0 3.32-1.12 1.36-1.16 1.88-3.16z"/>
  <path d="m-584.53 331.68v26.8h-8.84v-9.8h-8.28v9.8h-8.84v-26.8h8.84v9.56h8.28v-9.56z"/>
  <path d="m-543.3 331.68-7.32 26.8h-9.52l-3.08-13.52-3.08 13.52h-9.52l-7.32-26.8h8.96l3.76 13.68 3.04-13.68h8.32l3.04 13.68 3.76-13.68z"/>
  <path d="m-520.06 351.24v7.24h-21.84v-26.8h21.64v7.24h-12.8v2.96h11.72v6.4h-11.72v2.96z"/>
  <path d="m-508.76 358.48h-8.84v-26.8h8.84z"/>
  <path d="m-482.32 351.08v7.4h-23.84v-5.72l11.88-13.68h-11.56v-7.4h23.04v6.88l-10.52 12.52z"/>
 </g>
</svg>
