<svg enable-background="new 0 0 500.035 143.375" version="1.1" viewBox="0 0 1178.4 1181.6" xml:space="preserve" xmlns="http://www.w3.org/2000/svg"><g transform="matrix(2.3568 0 0 2.3568 -2632.5 331.6)"><g transform="translate(1117 -140.7)"><polyline points="368.41 59.095 385.58 59.095 385.58 83.814 409.59 83.814 409.59 59.095 426.75 59.095 426.75 124.81 409.59 124.81 409.59 98.141 385.58 98.141 385.58 124.81 368.41 124.81"/><path d="m441.34 59.105h27.46c17.677 0 31.23 13.121 31.23 32.102 0 19.212-12.79 33.63-31.067 33.63h-27.623m17.416-14.765h7.544c10.134 0 16.403-8.07 16.403-19.128 0-10.051-6.705-17.505-15.889-17.505h-8.059v36.633z"/><rect x="368.36" y="44.921" width="131.35" height="7.217"/><rect x="368.37" y="131.92" width="131.46" height="7.219"/></g><g transform="translate(1117 -140.7)" fill="#ff6700"><path d="m48.322 46.694c-13.285-0.012-25.487 5.434-34.168 14.144-8.713 8.691-14.154 20.899-14.154 34.161v44.146h36.684v-43.383c0.023-5.279 1.288-9.815 3.415-13.306 2.169-3.447 4.961-5.498 8.223-5.498 3.28 0 6.062 2.051 8.231 5.498 2.138 3.49 3.392 8.026 3.403 13.306v43.382h36.684v-44.145c0.012-13.262-5.441-25.47-14.143-34.16-8.691-8.711-20.872-14.157-34.175-14.145"/><path d="m136.14 34.808c3.686-3.685 5.965-8.793 5.965-14.426 0-5.629-2.279-10.722-5.965-14.407-3.696-3.709-8.801-5.975-14.427-5.975s-10.719 2.266-14.418 5.975c-3.684 3.685-5.975 8.778-5.975 14.407 0 5.633 2.291 10.741 5.975 14.426l4.504 4.516c7.514 7.513 8.048 9.493 0.905 16.652l-4.088 4.087c-3.359 3.371-5.43 7.995-5.43 13.119v65.962h37.076v-65.962c0-5.124-2.083-9.748-5.432-13.119l-4.099-4.087c-7.144-7.144-6.62-9.139 0.894-16.665"/><path d="m201.84 110.42c-2.163 3.995-4.951 6.35-8.223 6.372-3.262-0.022-6.075-2.377-8.223-6.372-2.139-4.03-3.403-9.242-3.413-15.353 0.01-6.125 1.274-11.337 3.413-15.376 2.148-3.991 4.961-6.34 8.223-6.36 3.272 0.02 6.061 2.369 8.223 6.36 1.59 3.013 2.691 6.655 3.152 10.841h36.729c-1.082-11.517-6.219-21.948-13.939-29.645-8.692-8.714-20.884-14.156-34.164-14.144-13.284-0.012-25.484 5.43-34.166 14.144-8.722 8.69-14.164 20.898-14.155 34.18-9e-3 13.285 5.434 25.475 14.155 34.152 6.674 6.699 18.32 14.16 34.166 14.16 11.896 0 22.912-4.365 31.318-11.517 6.132-5.215 15.224-15.658 16.786-32.279h-36.729c-0.462 4.206-1.563 7.852-3.153 10.837"/><path d="m339.45 132.73c0-1.22-0.355-2.377-0.966-3.335l-20.079-30.383 13.905-25.252c5.136-8.722 2.238-19.968-6.488-25.108-8.722-5.14-19.98-2.25-25.116 6.484l-16.605 29.68v-19.79c0-10.137-8.226-18.342-18.356-18.342-10.12 0-18.34 8.206-18.34 18.342v74.12h36.696v-29.031l19.352 29.031 29.597-0.022c3.535 0 6.4-2.86 6.4-6.394"/></g></g><g transform="matrix(1.3333 0 0 -1.3333 -928.2 916.09)"><g transform="matrix(13.547 0 0 13.547 1438.1 229.86)"><path d="m0 0h-1.564v-1.564h-1.36v1.564h-1.564v1.36h1.564v1.564h1.36v-1.564h1.564z" fill="#211d1d"/></g><g transform="matrix(13.547 0 0 13.547 1185.1 87.068)"><path d="m0 0c-0.066 0.56-0.147 1.368-0.147 2.079 0 0.441 0.06 2.215 0.06 3.645 0 1.206-0.261 3.349-0.261 4.514 0 0.7 0.052 1.649-0.025 1.984 0.558 0.361 1.046 0.593 2.585 1.524 0.499 0.302 1.45 0.812 1.45 1.426 0 0.273-0.072 0.451-0.459 0.769-0.271 0.216-0.561 0.279-0.889 0.279-0.785 0-1.139-0.786-1.797-1.189-1.003-0.613-1.535-0.916-1.741-1.03-0.082 0.037-0.423 0.24-0.973 0.24-0.573 0-1.24-0.257-1.24-1.002-1e-3 -0.342 0.108-0.712-0.349-0.952-0.255-0.161-1.503-0.874-2.831-1.676-1.12-0.676-1.642-0.621-2.114-0.906-0.437-0.263-0.551-0.591-0.551-0.875 0-0.254 0.16-0.572 0.216-0.643 0.301-0.385 0.571-0.594 1.045-0.594 0.802 0 1.469 0.702 2.708 1.583 0.773 0.551 1.483 1.122 1.897 1.122 0.372 0 0.629-0.28 0.629-1.43 0-3.849-0.234-4.46-0.234-7.13 0-0.48 0.018-1.368 0.035-1.738h-2.041v6.305l-3.93-3.311-3.929 3.311v-6.305h-12.734v22.441h12.397l4.266-4.491 4.267 4.491h12.462v-9.596c-0.394-0.608-1.599-2.671-2.409-4.777-0.266-0.687-0.388-1.185-0.737-1.185-0.384 0-0.416 0.378-0.452 0.719-0.079 0.737-0.244 2.115-0.321 2.623-0.148 0.981-0.343 2.02-1.439 2.02-0.811 0-1.663-0.445-1.663-1.66 0-0.687 0.348-1.883 0.944-3.455 0.234-0.62 1.483-3.892 1.663-4.365 0.329-0.87 0.787-1.107 1.5-1.107 0.912 0 1.228 0.336 1.603 1.616 0.32 1.091 0.861 2.869 1.311 3.983v-7.257zm10.69 12.455v-12.455h-2.049v9.113c0.437 0.947 1.494 2.61 2.049 3.342m-2.049 1.661v8.325l2.049-1.231v-4.561c-0.504-0.524-1.556-1.805-2.049-2.533m-16.468 6.282-1.13-1.188-3.056 3.216 3.879-1.704zm0.137-17.475h1.412l0.383 0.321v1.19zm-4.328-2.923h1.688v3.016l-1.688 1.421z" fill="#211d1d"/></g><path d="m838.07-199.16h491.88v239.78h-491.88z" fill="#211d1d"/><g transform="matrix(13.547 0 0 13.547 994.47 -32.771)"><path d="m0 0h1.788v-2.499h2.355v2.499h1.789v-6.864h-1.789v2.826h-2.355v-2.826h-1.788z" fill="#fff"/></g><g transform="matrix(13.547 0 0 13.547 1112.2 -104.92)"><path d="m0 0h0.846c1.356 0.029 1.894 0.558 1.894 1.932 0 1.25-0.673 1.856-1.894 1.856h-0.846zm-1.788 5.326h2.951c2.106 0 3.365-1.278 3.365-3.403 0-2.25-1.278-3.461-3.365-3.461h-2.951z" fill="#fff"/></g></g></svg>
