<svg version="1.1" viewBox="0 0 457.45 284.35" xmlns="http://www.w3.org/2000/svg">
 <g transform="matrix(.80206 0 0 .80206 348.02 -294.84)">
  <path d="m-337.34 717.85h-25.666l-5.959-16.606h-33.18l-6.366 16.606h-25.395l35.553-95.24h26.21l34.808 95.24zm-38.13-35.444-9.955-30.35-10.09 30.35h20.05z"/>
  <path d="m-245.92 677.52q0 8.582-1.354 14.652-2.099 9.419-10.02 17.16-11.241 10.954-30.07 10.954-19.16 0-29.932-11.163-5.688-5.861-7.788-14.722-1.49-6.279-1.49-16.885v-54.91h24.04v51.56q0 6.21 0.203 9.28 0.677 9.698 8.6 13.536 3.251 1.605 7.178 1.605 8.804 0 13.273-6.349 3.318-4.675 3.318-18.07v-51.56h24.04v54.91z"/>
  <path d="m-162.55 686.47q0 25.277-20.587 32.947-7.178 2.703-15.44 2.703-17.336 0-32.17-11.323l10.293-20.893q10.835 10.52 21.2 10.52 4.673 0 7.923-2.338 3.792-2.63 3.792-7.451 0-4.383-4.199-7.305-3.115-2.192-10.497-4.456-8.939-2.849-11.241-3.945-3.657-1.68-6.23-3.945-7.381-6.575-7.381-19.871 0-13.88 7.652-23.01 8.939-10.739 23.837-10.739 14.966 0 29.323 8.109l-9.616 20.16q-7.855-6.575-15.846-6.575-3.86 0-6.907 2.119-3.454 2.411-3.454 6.429 0 3.945 4.537 6.794 2.032 1.315 12.19 4.529 12.731 4.02 18.15 11.396 4.673 6.283 4.673 16.14z"/>
  <path d="m-92.46 643.33h-19.91v74.52h-24.04v-74.52h-19.571v-20.722h63.52v20.722z"/>
  <path d="m-5.107 717.85h-29.932l-22.889-36.56v36.56h-24.04v-95.24h37.38q16.388 0 24.24 10.117 6.366 8.163 6.366 19.19 0 12.629-7.314 20.16-4.673 4.814-12.867 6.698l29.05 39.07zm-33.86-64.54q0-5.093-3.589-8.582-3.386-3.279-10.903-3.279h-4.469v23.792h4.469q7.585 0 10.903-3.279 3.589-3.558 3.589-8.652z"/>
  <path d="m29.02 717.85h-24.04v-95.24h24.04z"/>
  <path d="m136.43 717.85h-25.666l-5.959-16.606h-33.18l-6.366 16.606h-25.395l35.553-95.24h26.21l34.808 95.24zm-38.13-35.444-9.955-30.35-10.09 30.35h20.05z"/>
 </g>
 <g transform="scale(1.3476)" fill="#ff6700">
  <path d="m48.322 46.694c-13.285-0.012-25.487 5.434-34.168 14.144-8.713 8.691-14.154 20.899-14.154 34.161v44.146h36.684v-43.383c0.023-5.279 1.288-9.815 3.415-13.306 2.169-3.447 4.961-5.498 8.223-5.498 3.28 0 6.062 2.051 8.231 5.498 2.138 3.49 3.392 8.026 3.403 13.306v43.382h36.684v-44.145c0.012-13.262-5.441-25.47-14.143-34.16-8.691-8.711-20.872-14.157-34.175-14.145"/>
  <path d="m136.14 34.808c3.686-3.685 5.965-8.793 5.965-14.426 0-5.629-2.279-10.722-5.965-14.407-3.696-3.709-8.801-5.975-14.427-5.975s-10.719 2.266-14.418 5.975c-3.684 3.685-5.975 8.778-5.975 14.407 0 5.633 2.291 10.741 5.975 14.426l4.504 4.516c7.514 7.513 8.048 9.493 0.905 16.652l-4.088 4.087c-3.359 3.371-5.43 7.995-5.43 13.119v65.962h37.076v-65.962c0-5.124-2.083-9.748-5.432-13.119l-4.099-4.087c-7.144-7.144-6.62-9.139 0.894-16.665"/>
  <path d="m201.84 110.42c-2.163 3.995-4.951 6.35-8.223 6.372-3.262-0.022-6.075-2.377-8.223-6.372-2.139-4.03-3.403-9.242-3.413-15.353 0.01-6.125 1.274-11.337 3.413-15.376 2.148-3.991 4.961-6.34 8.223-6.36 3.272 0.02 6.061 2.369 8.223 6.36 1.59 3.013 2.691 6.655 3.152 10.841h36.729c-1.082-11.517-6.219-21.948-13.939-29.645-8.692-8.714-20.884-14.156-34.164-14.144-13.284-0.012-25.484 5.43-34.166 14.144-8.722 8.69-14.164 20.898-14.155 34.18-9e-3 13.285 5.434 25.475 14.155 34.152 6.674 6.699 18.32 14.16 34.166 14.16 11.896 0 22.912-4.365 31.318-11.517 6.132-5.215 15.224-15.658 16.786-32.279h-36.729c-0.462 4.206-1.563 7.852-3.153 10.837"/>
  <path d="m339.45 132.73c0-1.22-0.355-2.377-0.966-3.335l-20.079-30.383 13.905-25.252c5.136-8.722 2.238-19.968-6.488-25.108-8.722-5.14-19.98-2.25-25.116 6.484l-16.605 29.68v-19.79c0-10.137-8.226-18.342-18.356-18.342-10.12 0-18.34 8.206-18.34 18.342v74.12h36.696v-29.031l19.352 29.031 29.597-0.022c3.535 0 6.4-2.86 6.4-6.394"/>
 </g>
</svg>
