<svg enable-background="new 0 0 500.035 143.375" version="1.1" viewBox="0 0 500.03 143.38" xml:space="preserve" xmlns="http://www.w3.org/2000/svg"><g fill="#fff"><polyline points="368.41 59.095 385.58 59.095 385.58 83.814 409.59 83.814 409.59 59.095 426.75 59.095 426.75 124.81 409.59 124.81 409.59 98.141 385.58 98.141 385.58 124.81 368.41 124.81"/><path d="m441.34 59.105h27.46c17.677 0 31.23 13.121 31.23 32.102 0 19.212-12.79 33.63-31.067 33.63h-27.623m17.416-14.765h7.544c10.134 0 16.403-8.07 16.403-19.128 0-10.051-6.705-17.505-15.889-17.505h-8.059v36.633z"/><rect x="368.36" y="44.921" width="131.35" height="7.217"/><rect x="368.37" y="131.92" width="131.46" height="7.219"/></g><g fill="#ff6700"><path d="m48.322 46.694c-13.285-0.012-25.487 5.434-34.168 14.144-8.713 8.691-14.154 20.899-14.154 34.161v44.146h36.684v-43.383c0.023-5.279 1.288-9.815 3.415-13.306 2.169-3.447 4.961-5.498 8.223-5.498 3.28 0 6.062 2.051 8.231 5.498 2.138 3.49 3.392 8.026 3.403 13.306v43.382h36.684v-44.145c0.012-13.262-5.441-25.47-14.143-34.16-8.691-8.711-20.872-14.157-34.175-14.145"/><path d="m136.14 34.808c3.686-3.685 5.965-8.793 5.965-14.426 0-5.629-2.279-10.722-5.965-14.407-3.696-3.709-8.801-5.975-14.427-5.975s-10.719 2.266-14.418 5.975c-3.684 3.685-5.975 8.778-5.975 14.407 0 5.633 2.291 10.741 5.975 14.426l4.504 4.516c7.514 7.513 8.048 9.493 0.905 16.652l-4.088 4.087c-3.359 3.371-5.43 7.995-5.43 13.119v65.962h37.076v-65.962c0-5.124-2.083-9.748-5.432-13.119l-4.099-4.087c-7.144-7.144-6.62-9.139 0.894-16.665"/><path d="m201.84 110.42c-2.163 3.995-4.951 6.35-8.223 6.372-3.262-0.022-6.075-2.377-8.223-6.372-2.139-4.03-3.403-9.242-3.413-15.353 0.01-6.125 1.274-11.337 3.413-15.376 2.148-3.991 4.961-6.34 8.223-6.36 3.272 0.02 6.061 2.369 8.223 6.36 1.59 3.013 2.691 6.655 3.152 10.841h36.729c-1.082-11.517-6.219-21.948-13.939-29.645-8.692-8.714-20.884-14.156-34.164-14.144-13.284-0.012-25.484 5.43-34.166 14.144-8.722 8.69-14.164 20.898-14.155 34.18-9e-3 13.285 5.434 25.475 14.155 34.152 6.674 6.699 18.32 14.16 34.166 14.16 11.896 0 22.912-4.365 31.318-11.517 6.132-5.215 15.224-15.658 16.786-32.279h-36.729c-0.462 4.206-1.563 7.852-3.153 10.837"/><path d="m339.45 132.73c0-1.22-0.355-2.377-0.966-3.335l-20.079-30.383 13.905-25.252c5.136-8.722 2.238-19.968-6.488-25.108-8.722-5.14-19.98-2.25-25.116 6.484l-16.605 29.68v-19.79c0-10.137-8.226-18.342-18.356-18.342-10.12 0-18.34 8.206-18.34 18.342v74.12h36.696v-29.031l19.352 29.031 29.597-0.022c3.535 0 6.4-2.86 6.4-6.394"/></g></svg>
