<svg enable-background="new 0 0 635 123" version="1.1" viewBox="0 0 597.12 105.87" xml:space="preserve" xmlns="http://www.w3.org/2000/svg">
<path d="m304.13 34.126h-42.069c-7.406 7e-3 -13.407 6.013-13.402 13.422 2e-3 7.407 6.016 13.407 13.422 13.4h7.591l0.027 40.92 26.821-0.01-0.027-40.91h7.616c7.409 7e-3 13.422-5.993 13.422-13.4 8e-3 -7.409-5.994-13.415-13.401-13.422" fill="#af000c"/>
<path d="m577.64 64.378c-10.094-4.476-15.413-6.151-15.588-9.81-0.158-3.249 3.354-3.843 4.59-3.843 7.12 0 7.665 7.207 7.665 8.865h21.716c0-12.345-11.13-25.062-30.145-25.057-16.337-6e-3 -27.407 11.137-27.407 21.68 0 3.992 1.809 11.969 19.478 19.811 10.092 4.479 15.413 6.153 15.586 9.81 0.16 3.254-3.355 4.173-4.591 4.173-7.119 0-7.663-7.537-7.663-9.192h-21.715c0 12.342 11.127 25.062 30.14 25.055 16.342 8e-3 27.411-11.137 27.411-21.678 0-3.992-1.811-11.97-19.477-19.814" fill="#af000c"/>
<path d="m147.59 80.748c-1.588 2.913-3.632 4.643-6.021 4.652-2.392-0.01-4.435-1.739-6.018-4.652-1.559-2.957-2.485-6.771-2.488-11.245 3e-3 -4.464 0.929-8.281 2.488-11.23 1.583-2.915 3.629-4.64 6.018-4.657 2.389 0.018 4.432 1.742 6.021 4.657 1.154 2.191 1.959 4.859 2.303 7.915h26.854c-0.788-8.414-4.551-16.048-10.188-21.666-6.356-6.371-15.272-10.352-24.988-10.349-9.714-3e-3 -18.629 3.978-24.983 10.349-6.376 6.352-10.358 15.27-10.349 24.981-0.01 9.719 3.973 18.632 10.349 24.991 0.015 0.017 0 0.044 0 0.044 6.354 6.371 15.27 10.354 24.983 10.349 9.716 5e-3 18.632-3.978 24.988-10.349 0 0-0.017-0.027 0-0.044 5.638-5.628 9.4-13.252 10.188-21.661h-26.854c-0.344 3.048-1.149 5.716-2.303 7.915" fill="#f57c14"/>
<path d="m35.332 34.136c-9.711-2e-3 -18.632 3.978-24.983 10.349-6.371 6.352-10.354 15.27-10.349 24.984v32.466h26.826l-5e-3 -14.311v-17.603c0.01-3.868 0.937-7.169 2.498-9.733 1.578-2.524 3.622-4.017 6.013-4.029 2.396 0.013 4.437 1.505 6.018 4.029 1.559 2.564 2.485 5.865 2.493 9.733v31.913h26.821v-32.466c0.01-9.714-3.972-18.632-10.346-24.984-6.354-6.371-15.267-10.351-24.986-10.348" fill="#f57c14"/>
<path d="m242.48 53.934c3.76-6.376 1.641-14.601-4.738-18.362-6.381-3.761-14.603-1.642-18.365 4.74l-12.147 21.705v-14.469c0-7.404-6.005-13.412-13.412-13.412-7.406 0-13.415 6.008-13.415 13.412v54.384h26.827v-21.404l14.208 21.852s17.233-8e-3 22.155-8e-3c3.923 0 5.736-3.936 2.525-8.765l-13.81-21.212z" fill="#f57c14"/>
<path d="m99.534 25.45c2.7-2.698 4.365-6.425 4.365-10.541 0-4.121-1.665-7.845-4.365-10.551-2.698-2.693-6.428-4.358-10.544-4.358s-7.843 1.665-10.543 4.365c-2.695 2.699-4.368 6.423-4.368 10.544 0 4.116 1.673 7.843 4.368 10.541l3.295 3.296c5.497 5.499 5.887 6.954 0.662 12.179l-2.997 3c-2.456 2.453-3.968 5.842-3.968 9.583v48.425h27.108v-48.426c0-3.741-1.517-7.13-3.972-9.583l-2.994-2.992c-5.23-5.227-4.84-6.69 0.662-12.187z" fill="#f57c14"/>
<path d="m523.69 44.576c-6.362-6.386-15.295-10.377-25.028-10.367-9.731-0.01-18.662 3.981-25.028 10.367-6.386 6.361-10.368 15.292-10.365 25.028v32.33h26.876v-31.779c5e-3 -3.874 0.931-7.185 2.492-9.748 1.586-2.527 3.629-4.024 6.025-4.037 2.398 0.013 4.447 1.51 6.03 4.037 1.566 2.563 2.487 5.874 2.495 9.748v31.779h26.868v-32.33c0.013-9.736-3.977-18.667-10.365-25.028" fill="#af000c"/>
<path d="m449.58 44.613c-6.361-6.387-15.3-10.371-25.025-10.368-9.736-2e-3 -18.669 3.981-25.028 10.368-6.381 6.36-10.375 15.297-10.365 25.028-0.01 9.729 3.984 18.664 10.365 25.025 0 2e-3 5e-3 2e-3 5e-3 2e-3h-5e-3c0.586 0.591 1.986 1.836 2.061 1.9 6.161 5.262 14.239 8.474 22.968 8.469 8.708 5e-3 16.776-3.197 22.938-8.447 0.095-0.081 1.507-1.339 2.088-1.922 6.386-6.363 10.378-15.299 10.376-25.027-1e-3 -9.731-3.993-18.668-10.378-25.028m-19.003 36.283c-1.588 2.925-3.629 4.649-6.022 4.664-2.399-0.015-4.442-1.739-6.022-4.664-1.572-2.959-2.493-6.773-2.501-11.255 8e-3 -4.477 0.929-8.304 2.501-11.258 1.58-2.92 3.623-4.647 6.022-4.664 2.394 0.017 4.435 1.744 6.022 4.666 1.562 2.955 2.49 6.779 2.498 11.256-8e-3 4.477-0.937 8.296-2.498 11.255" fill="#af000c"/>
<path d="m376.72 44.613c-6.358-6.387-15.297-10.371-25.022-10.368-9.736-2e-3 -18.67 3.981-25.028 10.368-6.384 6.36-10.373 15.297-10.368 25.028-5e-3 9.729 3.984 18.664 10.368 25.025 0 2e-3 5e-3 2e-3 5e-3 2e-3h-5e-3c0.585 0.591 1.986 1.836 2.061 1.9 6.161 5.262 14.239 8.474 22.968 8.469 8.708 5e-3 16.773-3.197 22.938-8.447 0.094-0.081 1.51-1.339 2.085-1.922 6.389-6.363 10.381-15.299 10.378-25.027 1e-3 -9.731-3.991-18.668-10.38-25.028m-19 36.283c-1.584 2.925-3.629 4.649-6.022 4.664-2.399-0.015-4.445-1.739-6.025-4.664-1.566-2.959-2.49-6.773-2.501-11.255 0.011-4.477 0.935-8.304 2.501-11.258 1.58-2.92 3.626-4.647 6.025-4.664 2.394 0.017 4.438 1.744 6.022 4.666 1.563 2.955 2.492 6.779 2.497 11.256-5e-3 4.477-0.933 8.296-2.497 11.255" fill="#af000c"/>
</svg>
