<svg width="800.04" height="467.21" enable-background="new 0 0 1260 720" version="1.0" viewBox="0 0 800.04 467.21" xml:space="preserve" xmlns="http://www.w3.org/2000/svg">
<g transform="matrix(.85291 0 0 .85291 117.71 7.583e-6)"><path d="m102.14 74.255c-21.159 0-40.539 8.6022-54.381 22.544-13.843 13.843-22.544 33.222-22.544 54.381v70.201h58.336v-69.114c0-8.4044 1.9775-15.622 5.4381-21.159s7.91-8.701 13.052-8.7999c5.2404 0 9.6898 3.2629 13.052 8.7999s5.4381 12.755 5.4381 21.159v69.015h58.336v-70.201c0-21.159-8.6022-40.539-22.544-54.381-13.744-13.843-33.123-22.445-54.184-22.445" fill="#ff6700" stroke-width=".98875"/><path d="m241.75 55.37c5.8336-5.8336 9.492-13.941 9.492-22.939 0-8.9977-3.6584-17.105-9.492-22.939-5.8336-5.8336-13.941-9.492-22.939-9.492-8.9976 0-17.105 3.6584-22.939 9.492-5.8336 5.8336-9.492 13.941-9.492 22.939 0 8.9977 3.6584 17.105 9.492 22.939l7.119 7.119c11.964 11.964 12.755 15.128 1.4831 26.499l-6.5258 6.5258c-5.3393 5.3393-8.6022 12.755-8.6022 20.863v104.91h58.93v-104.91c0-8.1078-3.2629-15.523-8.6022-20.863l-6.5258-6.5258c-11.371-11.371-10.481-14.535 1.3843-26.499z" fill="#ff6700" stroke-width=".98875"/><g transform="matrix(.98875 0 0 .98875 -222.86 -88.988)"><path d="m575.6 267.6c-3.5 6.4-8 10.2-13.2 10.2-5.3 0-9.8-3.8-13.2-10.2-3.4-6.5-5.5-14.9-5.5-24.7s2-18.2 5.5-24.7c3.5-6.4 8-10.2 13.2-10.2 5.3 0 9.8 3.8 13.2 10.2 2.5 4.8 4.3 10.7 5.1 17.4h59.1c-1.7-18.5-10-35.3-22.4-47.6-14-14-33.6-22.8-55-22.8s-41 8.7-55 22.8c-14 14-22.8 33.6-22.8 55s8.7 41 22.8 55c10.8 10.8 29.5 22.8 55 22.8 19.1 0 36.8-7 50.4-18.6 9.9-8.4 24.5-25.2 27-51.9h-59.1c-0.8 6.6-2.6 12.5-5.1 17.3z" fill="#ff6700"/></g><path d="m563.98 211.1c0-1.9775-0.59325-3.7573-1.4831-5.3393l-31.937-48.35 22.148-40.143c8.2066-13.843 3.5595-31.739-10.283-39.946s-31.739-3.5595-39.946 10.283l-26.4 47.164v-31.442c0-16.117-13.052-29.168-29.168-29.168-16.117 0-29.168 13.052-29.168 29.168v117.86h58.336v-46.175l30.75 46.175h47.065c5.537 0.0989 10.085-4.4494 10.085-10.085z" fill="#ff6700" stroke-width=".98875"/></g><g transform="matrix(.85291 0 0 .85291 117.71 7.583e-6)" fill="#020202" stroke-width=".98875"><path d="m596.61 96.008h26.499v38.166h37.177v-38.166h26.499v101.64h-26.499v-41.231h-37.177v41.231h-26.499z"/><path d="m709.33 96.008h42.418c27.29 0 48.251 20.269 48.251 49.635 0 29.761-19.775 52.008-48.053 52.008h-42.714v-101.64zm26.993 78.804h11.667c15.622 0 25.312-12.458 25.312-29.564 0-15.523-10.382-27.092-24.521-27.092h-12.458z"/><rect x="596.51" y="74.156" width="203.09" height="11.173"/><rect x="596.51" y="208.63" width="203.29" height="11.173"/></g><g transform="matrix(.99788 0 0 .99788 -224.92 -161.42)"><path d="m870 580.7-3-12.4h-25.7l-3 12.4h-19.6l27.5-95.9h15.5l27.7 95.9zm-17.8-57-6.8 28.3h17.8l-6.8-28.3c-0.4-1.9-0.9-4.1-1.3-6.8-0.5-2.7-0.8-4.6-0.8-6-0.1 1.4-0.3 3.3-0.7 5.9-0.5 2.5-0.9 4.8-1.4 6.9z"/><path d="m507 390.2c-3.1 3.6-4.9 9.8-4.9 22.1v10.7c0 12.2 1.8 18.4 4.9 21.9 2.4 2.8 5.6 3.9 9.4 3.9 5.6 0 10.2-2.3 13.5-9.4l16.8 7.3c-5.6 13.7-16.4 20.1-30.5 20.1-8.6 0-15.2-2.3-20.4-6.5-8.6-6.8-13-18.8-13-37.1v-11.6c0-17.8 4.5-29.5 13-36.4 5.3-4.1 11.9-6.8 20.4-6.8 13.8 0 24.8 6.3 30.5 20.7l-16.8 7.3c-3.1-7.9-8.3-10.1-13.5-10.1-3.9 0-7 1.3-9.4 3.9z"/><path d="m568.3 460.3c-8.6-6.8-13-18.8-13-37.1v-11.6c0-17.8 4.5-29.5 13-36.4 5.3-4.1 11.9-6.7 20.4-6.8 8.6 0.1 15.2 2.7 20.4 6.8 8.6 6.9 13 18.6 13 36.4v12.2c0 17.8-4.5 29.8-13 36.6-5.3 4.2-11.9 6.5-20.4 6.5-8.5-0.1-15.2-2.4-20.4-6.6zm11-70.1c-3.1 3.6-4.9 9.8-4.9 22.1v10.7c0 12.2 1.8 18.4 4.9 21.9 2.4 2.8 5.6 3.9 9.4 3.9s7-1.2 9.4-3.9c3.1-3.5 4.9-9.7 4.9-21.9v-10.7c0-12.3-1.8-18.5-4.9-22.1-2.4-2.7-5.5-3.9-9.4-3.9s-7 1.3-9.4 3.9z"/><path d="m670.6 465.5-14.5-52.5-5.9 52.6h-17.8l11.2-95.9h18l16.5 60.6 16.5-60.6h17.9l11.2 95.9h-17.7l-6-52.6-14.3 52.6h-15.1z"/><path d="m738.6 369.7h50.9v17.9h-31.7v20.3h27.5v17.9h-27.5v21.9h31.7v17.9h-50.9z"/><path d="m805.6 369.7h30.7c10.2 0 18.4 3.9 24.1 10.9 5.7 6.8 9 16.2 9 27.4v17.1c0 12.2-3.2 22.2-9 29.4-5.7 7-14 11.1-24.1 11.1h-30.7zm28.6 78c5.4 0 9.4-1.9 12.2-5.7 2.7-3.9 3.9-10 3.9-18.2v-15.2c0-6.8-1.3-12-3.9-15.6-2.7-3.6-6.8-5.4-12.2-5.4h-9.3v60.1z"/><path d="m896.3 419.4-26.9-49.7h20.7l15.7 30.3 15.7-30.3h20.7l-26.9 49.7v46.1h-19.2z"/><path d="m507 505.3c-3.1 3.6-4.9 9.8-4.9 22.1v10.7c0 12.2 1.8 18.4 4.9 21.9 2.4 2.8 5.6 3.9 9.4 3.9 5.6 0 10.2-2.3 13.5-9.4l16.8 7.3c-5.6 13.7-16.4 20.1-30.5 20.1-8.6 0-15.2-2.3-20.4-6.5-8.6-6.8-13-18.8-13-37.1v-11.6c0-17.8 4.5-29.5 13-36.4 5.3-4.1 11.9-6.8 20.4-6.8 13.8 0 24.8 6.3 30.5 20.7l-16.8 7.3c-3.1-7.9-8.3-10.1-13.5-10.1-3.9-0.1-7 1.2-9.4 3.9z"/><path d="m557.2 484.7h48.5v17.9h-29.3v20.3h25.1v17.9h-25.1v21.9h29.3v17.9h-48.5z"/><path d="m619.8 484.7h16.8l25.6 56.1v-56.1h17.5v95.9h-16.7l-25.6-55.3v55.3h-17.5v-95.9z"/><path d="m707.3 502.6h-17.9v-17.9h54.9v17.9h-17.8v78h-19.2z"/><path d="m773.5 580.6h-19.2v-95.9h30.6c16.8 0 29.4 13.5 29.4 31.7v2.2c0 12.3-5.6 22.2-14.5 27.6l14.1 34.4h-19.3l-12.4-30.5h-8.7zm9.2-48.4c7.2 0 12.4-4.5 12.4-14.9v-0.2c0-9.6-5.3-14.5-12.4-14.5h-9.2v29.6z"/><path d="m896.3 484.7h19.2v78h27.8v17.9h-47z"/></g><g transform="matrix(.99788 0 0 .99788 -224.92 -161.42)"><path d="m333.2 351.5c-46.3 0-86.6 25.4-107.8 63l25.9 14.6c16.1-28.6 46.7-47.9 81.9-47.9 51.9 0 93.9 42 93.9 93.9s-42 93.9-93.9 93.9c-35.1 0-65.7-19.3-81.8-47.8l-25.9 14.6c21.2 37.6 61.5 62.9 107.7 62.9 68.3 0 123.6-55.3 123.6-123.6s-55.3-123.6-123.6-123.6z" fill="#fdc600"/><path d="m362.2 491.5c-5.7 10.1-16.5 16.9-28.9 16.9-18.4 0-33.2-14.9-33.2-33.2s14.9-33.2 33.2-33.2c12.4 0 23.3 6.8 29 17l25.9-14.5c-10.8-19.2-31.3-32.1-54.9-32.1-34.7 0-62.9 28.2-62.9 62.9s28.2 62.9 62.9 62.9c23.5 0 44-12.9 54.8-32z" fill="#fdc600"/><g transform="matrix(.8 0 0 .8 496.18 338.13)"><g transform="translate(45.521 48.856)"><path d="m-249.2-32.4c-57.9 0-108.3 31.8-134.8 78.9l32.4 18.2c20.1-35.8 58.5-60 102.4-60 64.9 0 117.5 52.6 117.5 117.5s-52.6 117.5-117.5 117.5c-43.9 0-82.2-24.1-102.4-59.8l-32.4 18.2c26.5 47 76.9 78.7 134.7 78.7 85.4 0 154.6-69.2 154.6-154.6 0.2-85.3-69.1-154.6-154.5-154.6z" fill="#fdc600"/></g><g transform="translate(40.855 48.856)"><path d="m-208.3 142.8c-7.1 12.6-20.7 21.1-36.2 21.1-23 0-41.6-18.6-41.6-41.6s18.6-41.6 41.6-41.6c15.6 0 29.2 8.6 36.3 21.2l32.4-18.2c-13.5-24-39.1-40.2-68.6-40.2-43.5 0-78.7 35.3-78.7 78.7s35.3 78.7 78.7 78.7c29.4 0 55.1-16.2 68.5-40.1z" fill="#fdc600"/></g></g><g transform="translate(560.5 425.67)" fill="#fdc600"><path d="m-120.2 198.5v-24.5h3.9c2.2 0 3.9 0.8 5 2.3 1.2 1.4 1.7 3.7 1.7 6.9v5.4c0 3.5-0.6 6-1.7 7.6s-2.8 2.3-5 2.3zm-6.2 5.8h10.8c3.8 0 6.9-1.5 9-4.1s3.3-6.4 3.3-11.2v-6c0-4.7-1.2-8.3-3.2-10.8-2.1-2.6-5.2-4.1-9.1-4.1h-10.8z"/><path d="m-155.8 204.3h6.3v-15.5h10.8v15.5h6.3v-36.2h-6.3v14.9h-10.8v-14.9h-6.3z"/></g></g><g transform="matrix(1.0092 0 0 1.0092 4.0776e-6 -71.607)"><g transform="matrix(.98875 0 0 .98875 -222.86 -88.988)"><path d="m935.8 520h16.8v-20.5h13v20.5h16.8v15h-16.8v20.5h-13v-20.5h-16.8z" fill="#fdc600"/></g><g transform="matrix(.98875 0 0 .98875 -222.86 -88.988)"><path d="m1008.5 579.7 0.9-82.9-15.8 12.1v-20.5l20.5-14.9h13v106.2z" fill="#fdc600"/></g></g></svg>
