<svg enable-background="new 0 0 800 334.9" version="1.1" viewBox="0 0 800 334.9" xml:space="preserve" xmlns="http://www.w3.org/2000/svg">






<g fill="#fff"><path d="m190.7 141.1h20.5l8.5 25.3 8.3-25.3h19.2l-20 47.4c-1.6 3.8-3 6.7-4.3 8.5-1.3 1.9-3 3.4-5.4 4.6s-5.8 1.8-9.9 1.8c-2.2 0-6.1-0.3-11.5-1v-12.6c3.2 0.3 5.6 0.5 7 0.5 4.3 0 7-1.6 8-5l-20.4-44.2z"/><path d="m309.3 202.4h-21.3l-7.4-15.8c-1.8-3.7-3-6.1-4-7s-2.2-1.4-4-1.4v24.2h-18.9v-61.1h18.9v23.5c1.6-0.2 2.9-0.6 3.8-1.8s2.4-4.2 4.3-9.3c1.4-3.8 2.9-6.6 4.3-8.2s3.8-2.9 7-3.5c3.2-0.8 8.3-1.1 15.4-1.1v12.8h-1c-3.2 0-5.6 0.6-7.2 1.8-1.6 1.3-2.9 3.2-3.8 5.9s-2.1 4.8-3.2 6.1-2.7 2.4-4.8 3.2c2.7 1 5.1 2.4 7.2 4.6s4.2 5.6 6.4 10.2l8.3 16.9z"/><path d="m315.8 141.1h31.4c6.9 0 12 1.6 15.4 5 3.4 3.2 5.1 7.8 5.1 13.9 0 6.2-1.9 11-5.6 14.4-3.7 3.5-9.4 5.3-17 5.3h-10.4v22.7h-19v-61.3h0.1zm19.1 26.1h4.6c3.7 0 6.2-0.6 7.7-1.9s2.2-2.9 2.2-4.8-0.6-3.5-1.9-5c-1.3-1.3-3.7-2.1-7.2-2.1h-5.4v13.8z"/><path d="m415 192.3h-21.4l-3 10.1h-19.4l23-61.1h20.6l23 61.1h-19.8l-3-10.1zm-3.8-13.3-6.7-21.9-6.7 21.9h13.4z"/><path d="m439.8 126.9h10.9v10.4h-10.9v-10.4zm4.7 14.2h18.9v61.1h-18.9v-61.1zm12.9-14.2h11v10.4h-11v-10.4z"/><path d="m477 141.1h18.9v21.4h20.6v-21.4h19v61.1h-19v-24.6h-20.6v24.8h-18.9v-61.3z"/><path d="m585.4 192.3h-21.4l-3 10.1h-19.4l23-61.1h20.6l23 61.1h-19.8l-3-10.1zm-3.8-13.3-6.7-21.9-6.7 21.9h13.4z"/>





<path d="m461 265c-15.7 0-28.3 12.6-28.3 28.3s12.6 28.3 28.3 28.3 28.3-12.6 28.3-28.3-12.7-28.3-28.3-28.3m0 41.2c-7.2 0-13-5.8-13-13s5.8-13 13-13 13 5.8 13 13c0.1 7.3-5.8 13-13 13"/><path d="m428.8 280.6v-14.6h-13.1v-14.2l-15.8 6.4v7.8h-9.8v14.6h9.8v18.9c0 6.6 1.9 11.8 5.6 15.5s9.1 5.6 15.7 5.6h7.8v-14.6h-5.4c-5.4 0-7.8-2.4-7.8-7.8v-17.6h13z"/><path d="m368 272.3v23.8c0 5.4-4.5 9.9-9.9 9.9s-9.9-4.5-9.9-9.9v-29.6l-15.8 6.4v22.9c0 14.2 11.5 25.8 25.8 25.8s25.8-11.5 25.8-25.8v-29.8l-16 6.3z"/><polygon points="309.6 320.5 325.4 320.5 325.4 251.7 309.6 258.1"/><path d="m277 265c-6.6 0-12.3 2.2-16.5 6.6l-2.2-5.3-12.8 5.1v63.5h15.8v-18.7c4.2 3.7 9.4 5.4 15.7 5.4 7.2 0 13.9-2.9 18.9-8.3 4.8-5.3 7.5-12.3 7.5-20 0-15.9-11.7-28.3-26.4-28.3m-2.4 41.2c-7.4 0-13.3-5.8-13.3-13s5.9-13 13.3-13 13.3 5.8 13.3 13-6 13-13.3 13"/><path d="m525.6 265c-15.7 0-28.3 12.6-28.3 28.3s12.6 28.3 28.3 28.3 28.3-12.6 28.3-28.3-12.6-28.3-28.3-28.3m11.2 42h-5.3l-7.5-18.2h-7.5v9.4c0 2.1 1 3.4 3.4 3.4h3.4v5.6h-4.3c-5.6 0-8.6-3.2-8.6-8.5v-9.7h-4.2v-5.3h4.2v-3.8l6.1-2.4v6.2h12l5.9 15.2 5.9-15.4h6.6l-10.1 23.5z"/></g>
<g fill="#FF6700">
	<path d="m370.6 0c-8.3 0-14.9 6.7-14.9 14.9v99h29.9v-99c0-8.2-6.9-14.9-15-14.9z"/>
	<path d="m111.2 28.8c3-3 5-7 5-11.8s-1.8-8.8-5-11.8c-3-3-7-4.8-11.8-4.8-4.5 0-8.8 1.9-11.8 4.8-3 3-5 7.4-5 11.8 0 4.6 1.9 8.6 5 11.8l3.7 3.7c6.1 6.2 6.4 7.7 0.8 13.6l-3.2 3.4c-2.7 2.9-4.3 6.6-4.3 10.7v53.8h30.2v-53.8c0-4.2-1.8-8-4.3-10.7l-3.2-3.4c-5.8-5.9-5.4-7.4 0.8-13.6l3.1-3.7z"/>
	<path d="m260.8 81.1 11.5-20.8c4-7.2 1.8-16.5-5.3-20.6-2.2-1.3-4.6-2.1-7-2.1-5.3-0.2-10.7 2.4-13.4 7.4l-13.6 24.3v-16.2c0-8.2-6.7-14.9-14.9-14.9-8.3 0-14.9 6.7-14.9 14.9v61h29.9v-23.9l15.8 23.7h24.2c2.7 0 5-2.2 5-5.3 0-1-0.2-1.9-0.8-2.9l-16.5-24.6z"/>
	<path d="m39.5 38.6c-10.9 0-20.8 4.5-27.8 11.5-7.1 7.2-11.7 16.9-11.7 27.8v36h29.9v-35.2c0-4.3 1-8 2.7-10.9 1.8-2.9 4-4.5 6.7-4.5s5 1.8 6.7 4.5c1.8 2.9 2.7 6.6 2.7 10.9v35.4h29.9v-36.2c0-10.9-4.5-20.8-11.7-28-6.6-7-16.5-11.3-27.4-11.3z"/>
	<path d="m165 90.7c-1.8 3.4-4 5.3-6.7 5.3s-5-1.9-6.7-5.3-2.7-7.7-2.7-12.5 1.1-9.4 2.7-12.5c1.8-3.4 4-5.3 6.7-5.3s5 1.9 6.7 5.3c1.3 2.4 2.2 5.4 2.6 8.8h29.9c-1-9.3-5.1-17.9-11.5-24.3-7-7-17.1-11.5-27.8-11.5-10.9 0-21 4.5-28 11.5s-11.5 17.1-11.5 28c0.2 10.9 4.3 21 11.5 28 5.4 5.4 14.9 11.5 28 11.5 9.6 0 18.7-3.5 25.6-9.6 5.1-4.3 12.3-13 13.8-26.4h-30.2c-0.2 3.6-1.2 6.6-2.4 9z"/>
	<path d="m760.5 38.4c-10.9 0-20.8 4.5-28 11.5s-11.5 17-11.5 28v36h29.8v-35.3c0-4.3 1-8 2.7-10.9s4-4.5 6.7-4.5 5 1.8 6.7 4.5c1.8 2.9 2.7 6.6 2.7 10.9v35.5h30.4v-36.3c0-10.9-4.5-21-11.7-28-7-7.1-17.1-11.4-27.8-11.4z"/>
	<path d="m314.1 38.4c-10.9 0-20.8 4.5-28 11.5s-11.7 17.1-11.7 28 4.5 21 11.7 28c6.9 6.9 16.8 11.5 28.2 11.5 11.7 0 21.8-5 28-11.8 8.5-9.3 8.8-19.7 8.8-19.7h-26.7s-3.7 9.3-9.9 9.3c-2.7 0-4.8-1.9-6.7-5.3-1.3-2.2-2.1-5.1-2.6-8h46.6s3.4-19.2-9.4-32c-8-7.2-17.4-11.5-28.3-11.5zm8.5 32.3-17.3 0.2c0.5-2.2 1.3-4.3 1.9-5.9 1.3-2.9 4-5.3 6.7-5.3s5 1.9 6.7 5.3c1 1.4 1.6 3.8 2 5.7z"/>
	<path d="m595.8 38.4c-10.9 0-20.8 4.5-27.8 11.5s-11.7 17.1-11.7 28 4.5 21 11.7 28c6.9 6.9 16.8 11.5 28.2 11.5 11.8 0 21.8-5 28-11.8 8.5-9.3 8.8-19.7 8.8-19.7h-26.7s-3.7 9.3-9.9 9.3c-2.7 0-5-1.9-6.7-5.3-1.3-2.2-2.1-5.1-2.6-8h46.6s3.4-19.2-9.4-32c-7.8-7.2-17.3-11.5-28.5-11.5zm-8.4 32.5c0.5-2.2 1.1-4.3 1.9-5.9 1.4-2.9 4-5.3 6.7-5.3s4.8 1.9 6.7 5.3c0.8 1.6 1.6 4 1.9 5.8l-17.2 0.1z"/>
	<path d="m429.8 38.6c-21.8 0-39.4 17.8-39.4 39.5 0 21.9 17.6 39.7 39.5 39.7 21.8 0 39.5-17.8 39.5-39.7-0.1-21.8-17.7-39.5-39.6-39.5zm0 57.2c-5.3 0-9.4-8-9.4-17.8 0-9.9 4.2-17.8 9.4-17.8s9.4 8 9.4 17.8-4.2 17.8-9.4 17.8z"/>
	<path d="m537.1 0c-8.3 0-14.9 6.7-14.9 14.9v24.5c-3-0.8-6.4-1.1-9.4-1.1-10.9 0-20.8 4.5-28 11.5s-11.5 17.1-11.5 28 4.5 21 11.5 28c4.5 4.5 14.4 11.5 28 11.5s23.5-7 28-11.5c7-7 11.2-17 11.2-28v-62.9c0-8.2-6.7-14.9-14.9-14.9zm-24.5 95.8c-5.3 0-9.4-8-9.4-17.8 0-9.9 4.3-17.8 9.4-17.8 5.3 0 9.4 8 9.4 17.8s-4.1 17.8-9.4 17.8z"/>
	<path d="m677.8 38.6c-21.8 0-39.5 17.8-39.5 39.7s17.6 39.7 39.5 39.7c21.8 0 39.5-17.8 39.5-39.7-0.2-22.1-17.8-39.7-39.5-39.7zm0 57.2c-5.3 0-9.4-8-9.4-17.8 0-9.9 4.2-17.8 9.4-17.8s9.4 8 9.4 17.8-4.2 17.8-9.4 17.8z"/>
</g>
</svg>
