<svg width="800" height="210.07" enable-background="new 0 0 834 219" version="1.1" viewBox="0 0 800 210.07" xml:space="preserve" xmlns="http://www.w3.org/2000/svg"><path d="m800 0v107.43l-33.628 20.034 18.754-56.893h-18.082l-17.292 56.463-17.087-56.463h-59.741zm-96.281 87.753v62.24h-17.009v-62.24h-14.134v95.58l66.628-39.687-18.925-55.893z" fill="#fff" stroke-width=".95923"/><path d="m269.01 139.44h-32.119c-6.1007 0-8.7146-2.3664-8.7146-8.5918v-1.8648l40.96-16.688v-7.8475c0-10.96-4.7319-16.689-15.937-16.689h-18.798c-10.583 0-17.055 4.8576-17.055 15.943v29.517c0 5.4849 0.74628 9.7141 5.2297 13.449 3.858 3.2374 7.9664 3.4897 12.821 3.4897h33.613zm-40.96-33.126c0-6.2235 4.3578-7.9722 9.836-7.9722h11.829c4.7309 0 8.4652 1.7439 8.4652 6.9736v0.99664l-30.129 12.33zm319.18-18.557h-18.804c-10.583 0-17.05 4.8566-17.05 15.941v29.516c0 5.4858 0.74149 9.7161 5.2249 13.45 3.8571 3.2355 7.9741 3.4868 12.822 3.4868h33.612v-10.711h-32.115c-6.0998 0-8.7156-2.3664-8.7156-8.5938v-1.8628l40.954-16.687v-7.8465c7e-3 -10.962-4.7233-16.694-15.929-16.694zm4.9803 18.557-30.129 12.33v-12.33c0-6.2235 4.3578-7.9722 9.836-7.9722h11.827c4.7367 0 8.4652 1.7439 8.4652 6.9736zm-353.28 39.859c4.2331-3.4926 5.1031-7.8532 5.1031-13.083v-67.376h-10.706v22.042h-25.52c-10.084 0-16.185 6.4767-16.185 16.44v29.273c0 10.584 5.601 16.687 16.308 16.687h18.799c4.3559-6e-3 8.8384-1.2518 12.201-3.9837zm-27.889-6.7328c-4.7319 0-8.7146-1.6192-8.7146-6.9736v-25.406c0-5.3554 3.3612-8.5928 8.7146-8.5928h19.67c1.4945 0 2.6149 0.87098 2.6149 2.4921v30.516c0 5.482-4.3578 7.9722-9.3362 7.9722h-12.949zm404.31-34.992v45.704h10.706v-42.84c0-7.599 3.4858-9.0926 10.212-8.9688h3.7372v-10.586h-7.9712c-11.207 0-16.684 5.4801-16.684 16.692zm69.341-16.692h-18.799c-10.085 0-16.309 4.7367-16.309 15.194v47.201h10.707v-44.211c0-5.8552 3.8571-7.5981 9.0878-7.5981h11.951c5.1041 0 8.965 1.8676 8.965 7.5981v44.211h10.581v-47.201c-9.6e-4 -10.587-5.976-15.194-16.184-15.194zm-157.22 48.444c0 1.8696-0.6235 3.2393-2.7376 3.2393h-19.172c-5.4772 0-8.3348-2.9832-8.3348-8.4633v-43.22h-10.707v46.203c0 4.9813 1.246 8.5938 4.8556 12.083 3.7372 3.6173 6.8547 4.1074 11.827 4.1074h24.281c0 6.353-0.25515 11.334-8.094 11.334h-32.865v10.836h35.853c9.9597 0 15.809-6.9746 15.809-16.69v-67.875h-10.707l-9e-3 48.444zm-422.87-48.444h10.707v62.394h-10.707zm333.11 62.394h20.418c9.3324 0 15.063-6.3501 15.063-15.567v-31.008c0-11.086-6.7213-15.82-17.304-15.82h-34.363v10.587h32.866c7.0945 0 8.094 3.9846 8.2139 10.091h-25.518c-9.7122 0-15.811 5.7343-15.811 15.567v11.212c9.6e-4 9.9636 7.0974 14.938 16.435 14.938zm-5.7266-23.909c0-5.1031 2.4902-7.7209 7.5942-7.7209h20.415c1.3755 0 2.4978 0.37315 2.4978 1.9904v11.96c0 4.6072-2.987 6.9746-7.4695 6.9746h-15.312c-4.2331 0-7.7189-2.6177-7.7189-7.0945l-7e-3 -6.1094zm-381.29-20.302c0-5.8552 3.86-7.5981 9.0878-7.5981h11.951c5.106 0 8.965 1.8695 8.965 7.5981v44.211h10.582v-47.201c0-10.587-5.976-15.194-16.186-15.194h-18.798c-10.083 9.59e-4 -16.308 4.7377-16.308 15.195v47.201h10.706zm357.39 27.53v-29.273c0-9.9635-6.0998-16.44-16.186-16.44h-25.52v-22.042h-10.707v67.376c0 5.2278 0.87099 9.5904 5.1041 13.079 3.3621 2.7376 7.8446 3.9798 12.2 3.9798h18.799c10.705 2e-3 16.31-6.095 16.31-16.679zm-32.37 5.9703c-4.9784 0-9.3372-2.4902-9.3372-7.9703v-30.516c0-1.6192 1.1194-2.4902 2.6149-2.4902h19.669c5.3535 0 8.7146 3.2374 8.7146 8.5918v24.906c0 5.7362-3.6106 7.4753-8.7146 7.4753h-12.947zm-265.89-61.15c3.859 0 7.0964-3.2345 7.0964-7.0935 0-3.9847-3.1137-7.0983-7.0964-7.0983s-6.9717 3.365-6.9717 7.2221c9.59e-4 3.8609 3.1127 6.9698 6.9717 6.9698zm232.41 20.053h3.7352v-10.586h-7.9684c-11.204 0-16.682 5.4801-16.682 16.689v45.704h10.706v-42.843c0-7.5942 3.4849-9.083 10.209-8.9631zm-208.51 48.323c3.859 3.2355 7.9683 3.4868 12.824 3.4868h33.612v-10.711h-32.119c-6.0998 0-8.7137-2.3664-8.7137-8.5918v-1.8657l40.958-16.689v-7.8465c0-10.96-4.7309-16.689-15.936-16.689h-18.798c-10.583 0-17.056 4.8576-17.056 15.943v29.517c-9.59e-4 5.4791 0.74628 9.7113 5.2278 13.446zm5.4772-40.352c0-6.2235 4.3578-7.9722 9.836-7.9722h11.826c4.7319 0 8.4652 1.7439 8.4652 6.9736v0.99664l-30.128 12.33z" fill="#fff" stroke-width=".95923"/><path d="m109.19 179.7c-4.6513 0-10.424 3.6556-10.424 11.048 0 7.4811 5.8552 11.093 10.715 11.093 3.364 0 5.9798-1.2067 7.8906-3.5731l-1.5779-1.413c-1.5779 1.7784-3.5309 2.6983-6.3127 2.6983-3.6134 0-7.766-2.4921-8.0969-7.8091h18.106c0.0422-0.3386 0.0844-0.6235 0.0844-1.0398 0-7.3506-5.6911-11.004-10.384-11.004zm-7.765 10.009c0.37314-5.317 4.3597-7.7304 7.765-7.7304 3.4475 0 7.3928 2.4134 7.8072 7.7304zm-8.9688-5.1511c-1.413-3.1175-4.5688-4.8576-7.9329-4.8576-4.6513 0-10.298 3.5712-10.298 11.09 0 7.481 5.6058 11.051 10.298 11.051 3.364 0 6.5612-1.8283 7.9329-4.9007v4.6158c0 4.2791-3.1578 6.2312-6.6868 6.2312-3.4878 0-5.647-1.1252-6.5199-1.8676v2.3338c0.8729 0.73957 2.9487 1.8216 6.5199 1.8216 3.8216 0 9.2614-2.0364 9.2614-8.5189v-21.603h-2.5746zm-7.7257 14.998c-3.53 0-7.9319-2.7818-7.9319-8.7664 0-6.023 4.4019-8.8125 7.9319-8.8125 3.6144 0 7.8494 2.658 7.8494 8.8125 0 6.1084-4.235 8.7664-7.8494 8.7664zm-48.544-19.855c-4.6523 0-10.424 3.6556-10.424 11.048 0 7.4811 5.8552 11.093 10.714 11.093 3.364 0 5.9818-1.2067 7.8906-3.5731l-1.5789-1.413c-1.5779 1.7784-3.529 2.6983-6.3127 2.6983-3.6125 0-7.7659-2.4921-8.0969-7.8091h18.106c0.04221-0.3386 0.08249-0.6235 0.08249-1.0398 9.59e-4 -7.3506-5.6882-11.004-10.381-11.004zm-7.7659 10.009c0.37314-5.317 4.3597-7.7304 7.7659-7.7304 3.4475 0 7.3918 2.4134 7.8062 7.7304zm-20.389-17.238h-8.0144v29.078h8.0144c8.4719 0 14.411-6.4374 14.411-14.497 9.59e-4 -8.142-5.9386-14.581-14.411-14.581zm0 26.794h-5.3976v-24.513h5.3976c7.3094 0 11.836 5.3189 11.836 12.291 0 6.9046-4.5266 12.223-11.836 12.223zm59.881-14.707c-1.4101-3.1175-4.5679-4.8576-7.9319-4.8576-4.6504 0-10.296 3.5712-10.296 11.09 0 7.481 5.6048 11.051 10.296 11.051 3.364 0 6.5621-1.8283 7.9319-4.9007v4.6158c0 4.2791-3.1559 6.2312-6.6859 6.2312-3.4878 0-5.647-1.1252-6.5189-1.8676v2.3338c0.8729 0.73957 2.9487 1.8216 6.5189 1.8216 3.8216 0 9.2624-2.0364 9.2624-8.5189v-21.603h-2.5765zm-7.7228 14.998c-3.5309 0-7.9329-2.7818-7.9329-8.7664 0-6.023 4.4019-8.8125 7.9329-8.8125 3.6134 0 7.8484 2.658 7.8484 8.8125 0 6.1084-4.236 8.7664-7.8484 8.7664zm227.11-23.348h-2.5746v3.7372h-2.9084v2.1602h2.9084v15.747c0 2.988 1.7842 3.9367 3.6125 3.9367 1.5789 0 2.4921-0.2964 3.4053-0.78178v-2.2053c-0.91415 0.45947-1.6604 0.74053-2.7405 0.74053-1.1213 0-1.7026-0.69928-1.7026-2.0345v-15.405h4.5266v-2.1602h-4.5266zm95.097-3.7372h2.6168v2.3252h-2.6168zm-54.525 12.087c-1.411-3.1175-4.5669-4.8576-7.9309-4.8576-4.6523 0-10.299 3.5712-10.299 11.09 0 7.481 5.6048 11.051 10.299 11.051 3.364 0 6.5592-1.8283 7.9309-4.9007v4.6158h2.5755v-21.603h-2.5755zm-7.7247 14.998c-3.53 0-7.9309-2.7818-7.9309-8.7664 0-6.023 4.401-8.8125 7.9309-8.8125 3.6134 0 7.8494 2.658 7.8494 8.8125 0 6.1084-4.236 8.7664-7.8494 8.7664zm80.436-19.816c-4.8163 0-7.7218 3.9866-8.0566 5.6489v-5.4388h-2.5746v21.603h2.5746v-12.966c0.54101-2.9448 3.5722-6.5631 7.6432-6.5631 3.4887 0 6.1458 2.0758 6.1458 6.9343v12.59h2.5736v-12.59c9.6e-4 -6.6436-4.0681-9.2182-8.306-9.2182zm-102.24 6.73v-6.5218h-2.6178v21.6h2.6178v-11.424c0.70503-5.1501 3.9453-7.9741 8.1391-8.0134 0.57938 0 0.99761 0 1.4954 0.0825v-2.3664c-0.49784-0.0412-0.91607-0.0902-1.4552-0.0902-4.7328 3e-3 -7.7218 3.3285-8.1794 6.7328zm-163.99-6.73c-4.8163 0-7.7228 3.9866-8.0566 5.6489v-5.4388h-2.5746v21.603h2.5746v-12.966c0.54005-2.9448 3.5722-6.5631 7.6432-6.5631 3.4887 0 6.1448 2.0758 6.1448 6.9343v12.59h2.5765v-12.59c-9.6e-4 -6.6436-4.0719-9.2182-8.3079-9.2182zm216.4 12.837c-0.78945 3.2825-3.5319 6.9784-7.4763 6.9784-3.4897 0-5.8964-1.8696-5.8964-6.73v-12.882h-2.5755v12.882c0 6.6062 3.7372 9.012 7.9731 9.012 4.942 0 7.5578-3.9434 7.9751-5.7352v5.4446h2.5755v-21.603h-2.5755zm31.642-12.627h2.6168v21.603h-2.6168zm-14.16-0.2494c-3.3631 0-6.518 1.6988-7.9309 4.7741v-12.004h-2.6168v29.08h2.5746v-4.613c1.412 3.0715 4.5688 4.8978 7.9731 4.8978 4.6523 0 10.259-3.577 10.259-11.051 0-7.5127-5.6499-11.084-10.259-11.084zm-0.2494 19.855c-3.5712 0-7.8484-2.658-7.8484-8.7664 0-6.1487 4.2772-8.8125 7.8484-8.8125 3.5722 0 7.9329 2.7779 7.9329 8.8125 0 5.9846-4.3607 8.7664-7.9329 8.7664zm-186.58-19.855c-4.6101 0-10.464 3.6556-10.464 11.048 0 7.4811 5.8542 11.093 10.464 11.093 4.6101 0 10.466-3.6163 10.466-11.093-9.6e-4 -7.3947-5.8571-11.048-10.466-11.048zm0 19.855c-3.53 0-7.8906-2.7818-7.8906-8.8077 0-5.9818 4.3607-8.7712 7.8906-8.7712 3.53 0 7.8916 2.7779 7.8916 8.7712 0 6.0259-4.3626 8.8077-7.8916 8.8077zm89.613-13.795-3.4878-1.2029c-2.9909-1.0398-4.9842-2.1621-4.9842-5.1108 0-2.8624 2.6168-4.9813 6.5602-4.9813 3.7391 0 6.3137 2.1189 7.3938 4.5266l2.2427-0.82974c-1.3698-3.1156-4.777-5.9751-9.6364-5.9751-5.2317 0-9.177 3.1981-9.177 7.2633 0 4.1554 2.9496 6.0624 6.9765 7.483l3.6134 1.2518c3.1568 1.0811 5.9808 2.3703 5.9808 5.8954 0 3.4954-3.5319 5.4878-7.3938 5.4878-3.9022 0-6.9746-2.3271-8.1381-5.4878l-2.2417 0.95443c1.3698 3.9885 5.5636 6.8154 10.381 6.8154 5.0686 0 10.011-2.9487 10.011-7.7746-9.6e-4 -4.6149-3.5309-6.7338-8.0998-8.3156zm-106.6-1.2029c-1.4129-3.1175-4.5679-4.8576-7.9741-4.8576-4.6101 0-10.257 3.5712-10.257 11.09 0 7.481 5.6067 11.051 10.257 11.051 3.4062 0 6.5612-1.8283 7.9741-4.9007v4.6158h2.5755v-29.077h-2.5755zm-7.7247 14.998c-3.5722 0-7.9319-2.7818-7.9319-8.7664 0-6.023 4.3597-8.8125 7.9319-8.8125s7.8494 2.658 7.8494 8.8125c9.6e-4 6.1084-4.2762 8.7664-7.8494 8.7664zm273.95-14.998c-1.4187-3.1175-4.5679-4.8576-7.9338-4.8576-4.6532 0-10.294 3.5712-10.294 11.09 0 7.481 5.6058 11.051 10.294 11.051 3.364 0 6.5612-1.8283 7.9338-4.9007v4.6158c0 4.2791-3.1568 6.2312-6.6926 6.2312-3.4878 0-5.648-1.1252-6.5199-1.8676v2.3338c0.8729 0.73957 2.9487 1.8216 6.5199 1.8216 3.8206 0 9.2614-2.0364 9.2614-8.5189v-21.603h-2.5755l7e-3 4.6043zm-7.7237 14.998c-3.5367 0-7.9338-2.7818-7.9338-8.7664 0-6.023 4.401-8.8125 7.9338-8.8125 3.6125 0 7.8465 2.658 7.8465 8.8125 9.6e-4 6.1084-4.2331 8.7664-7.8465 8.7664zm-224.33-13.086v-6.5218h-2.6149v21.6h2.6149v-11.424c0.70696-5.1501 3.9463-7.9741 8.141-8.0134 0.5813 0 0.99664 0 1.4945 0.0825v-2.3664c-0.49785-0.0412-0.91319-0.0902-1.4542-0.0902-4.7338 3e-3 -7.7228 3.3285-8.1813 6.7328zm39.699 0.91415h4.6523v4.6561h-4.6523zm-26.036-8.682v1.248h-2.1583v2.1602h2.1583v19.445h2.5746v-19.445h6.5621v-2.1602h-6.5621v-1.2067c0-3.2806 1.4542-4.4048 3.7803-4.4048 1.3285 0 2.4911 0.37698 3.3218 0.8729l0.99473-1.9108c-1.1204-0.70408-2.6983-1.2067-4.3588-1.2067-2.9487 0-6.3127 1.2048-6.3127 6.6082z" fill="#fff" stroke-width=".95923"/></svg>
