<svg width="800" height="210.07" enable-background="new 0 0 834 219" version="1.1" viewBox="0 0 800 210.07" xml:space="preserve" xmlns="http://www.w3.org/2000/svg"><path d="m720.28 88.633 18.92 56.446-66.625 40.09v-96.536h14.135v62.864h17.008v-62.864zm-47.358-17.361h59.744l17.086 57.027 17.293-57.027h18.083l-18.753 57.462 33.626-20.232v-108.5z" fill="#252453" stroke-width=".95923"/><path d="m40.71 151.66v-44.656c0-5.787-3.858-7.6777-8.9659-7.6777h-11.95c-5.2269 0-9.0887 1.765-9.0887 7.6777v44.656h-10.705v-47.677c0-10.569 6.2245-15.347 16.308-15.347h18.8c10.209 0 16.184 4.6542 16.184 15.347v47.677h-10.582m23.896 0v-63.023h10.708v63.023zm5.2288-72.584c-3.86 0-6.9717-3.1434-6.9717-7.0446 0-3.8993 2.988-7.295 6.9717-7.295s7.0964 3.1453 7.0964 7.1693c0 3.9002-3.2365 7.1703-7.0964 7.1703m59.505 27.296c0-5.2806-3.7333-7.0456-8.4652-7.0456h-11.827c-5.4772 0-9.835 1.765-9.835 8.0528v12.454l30.128-12.454zm-30.002 23.902v1.8887c0 6.2878 2.613 8.6772 8.7137 8.6772h32.119v10.821h-33.612c-4.8547 0-8.964-0.25419-12.824-3.5233-4.4815-3.7717-5.2288-8.0489-5.2288-13.583v-29.813c0-11.196 6.4729-16.103 17.056-16.103h18.798c11.206 0 15.936 5.789 15.936 16.859v7.9233l-40.958 16.853m93.988-28.303c0-1.6355-1.1204-2.518-2.6139-2.518h-19.671c-5.3535 0-8.7146 3.2729-8.7146 8.681v25.659c0 5.4101 3.9837 7.0446 8.7146 7.0446h12.949c4.9775 0 9.3362-2.5142 9.3362-8.0528zm5.6038 45.664c-3.3621 2.7645-7.8456 4.024-12.201 4.024h-18.8c-10.708 0-16.308-6.1659-16.308-16.858v-29.561c0-10.064 6.1007-16.605 16.184-16.605h25.52v-22.266h10.706v68.054c9.5e-4 5.2835-0.86907 9.6844-5.1012 13.212m59.25-41.263c0-5.2806-3.7343-7.0456-8.4652-7.0456h-11.828c-5.4782 0-9.835 1.765-9.835 8.0528v12.454l30.129-12.454zm-30.002 23.902v1.8887c0 6.2878 2.613 8.6772 8.7146 8.6772h32.119v10.821h-33.612c-4.8556 0-8.9631-0.25419-12.822-3.5233-4.4844-3.7717-5.2297-8.0489-5.2297-13.583v-29.813c0-11.196 6.4729-16.103 17.055-16.103h18.799c11.205 0 15.936 5.789 15.936 16.859v7.9233l-40.959 16.853m74.066-30.947c-6.7233-0.12374-10.21 1.3861-10.21 9.059v43.271h-10.706v-46.164c0-11.322 5.4772-16.856 16.682-16.856h7.9693v10.69h-3.7352m55.144 8.8077c0-5.4091-3.3612-8.681-8.7146-8.681h-19.669c-1.4954 0-2.6149 0.88249-2.6149 2.518v30.816c0 5.5367 4.3588 8.0508 9.3362 8.0508h12.948c5.1041 0 8.7146-1.7573 8.7146-7.5444zm-5.6 43.525h-18.8c-4.3568 0-8.8393-1.2604-12.2-4.024-4.234-3.5261-5.1041-7.929-5.1041-13.21v-68.056h10.708v22.266h25.52c10.084 0 16.184 6.542 16.184 16.605v29.561c0 10.692-5.6038 16.858-16.308 16.858m70.706-29.942c0-1.6336-1.1204-2.0106-2.4911-2.0106h-20.416c-5.1041 0-7.5942 2.6408-7.5942 7.7976v6.166c0 4.5295 3.4868 7.1683 7.7199 7.1683h15.313c4.4825 0 7.4686-2.3885 7.4686-7.0446zm-4.3568 29.942h-20.418c-9.3362 0-16.434-5.0331-16.434-15.094v-11.324c0-9.9348 6.0988-15.723 15.812-15.723h25.518c-0.12183-6.164-1.1194-10.193-8.2139-10.193h-32.867v-10.69h34.362c10.583 0 17.303 4.777 17.303 15.973v31.326c0 9.3074-5.7266 15.725-15.062 15.725m64.23 22.386h-35.854v-10.941h32.868c7.8427 0 8.0921-5.0302 8.0921-11.447h-24.276c-4.9803 0-8.093-0.5036-11.828-4.1516-3.6077-3.5223-4.8537-7.1703-4.8537-12.2v-46.669h10.707v43.647c0 5.5367 2.8652 8.5544 8.3405 8.5544h19.172c2.1161 0 2.7376-1.3822 2.7376-3.2719v-48.929h10.708v68.555c-9.6e-4 9.8139-5.8532 16.854-15.813 16.854m69.837-67.674c0-5.2806-3.7324-7.0456-8.4633-7.0456h-11.828c-5.4782 0-9.835 1.765-9.835 8.0528v12.454l30.127-12.454zm-30.002 23.902v1.8887c0 6.2878 2.6139 8.6772 8.7137 8.6772h32.119v10.821h-33.612c-4.8547 0-8.964-0.25419-12.822-3.5233-4.4825-3.7717-5.2278-8.0489-5.2278-13.583v-29.813c0-11.196 6.4729-16.103 17.053-16.103h18.802c11.205 0 15.933 5.789 15.933 16.859v7.9233l-40.958 16.853m74.065-30.947c-6.7223-0.12374-10.209 1.3861-10.209 9.059v43.271h-10.706v-46.164c0-11.322 5.4791-16.856 16.684-16.856h7.9684v10.69h-3.7372m54.031 52.333v-44.656c0-5.787-3.8609-7.6777-8.9669-7.6777h-11.951c-5.2269 0-9.0859 1.765-9.0859 7.6777v44.656h-10.708v-47.677c0-10.569 6.2235-15.347 16.309-15.347h18.799c10.209 0 16.182 4.6542 16.182 15.347v47.677h-10.578" fill="#252453" stroke-width=".95923"/><path d="m20.228 185.44c0-5.1875-3.1894-8.1583-8.8221-8.1583h-8.2245v16.418h8.2235c5.6336-9.6e-4 8.823-3.0744 8.823-8.26zm3.1396 0c0 6.2446-4.5353 10.978-11.963 10.978h-8.2235v13.296h-3.1386v-35.254h11.364c7.4254 3e-3 11.961 4.7837 11.961 10.979m5.483 11.232c0 7.2518 5.2825 10.624 9.5204 10.624 4.3367 0 9.4216-3.224 9.4216-10.624 0-7.4552-5.0839-10.677-9.4216-10.677-4.2379-2e-3 -9.5204 3.3707-9.5204 10.677zm18.791-7.5559v-5.5866h3.0916v26.186h-3.0916v-5.5904c-1.6441 3.7247-5.483 5.9424-9.5204 5.9424-5.6326 0-12.36-4.3319-12.36-13.396 0-9.1185 6.777-13.449 12.36-13.449 4.0374 2e-3 7.8254 2.117 9.5204 5.8935m16.597-3.1751c-2.941 0-4.7847 1.6134-4.7847 3.8321 0 2.0153 1.0945 3.4254 4.1861 4.4825l2.3933 0.85468c4.5861 1.6614 7.7765 3.1741 7.7765 7.6547 0 4.8355-4.7847 7.3026-9.2211 7.3026-4.3856 0-8.2734-2.3175-9.6192-6.6456l2.6408-0.80768c1.246 3.2758 3.8878 4.682 6.9784 4.682 3.0897 0 6.0317-1.459 6.0317-4.5823 0-2.6676-1.8945-3.9252-4.9851-5.036l-2.8403-1.0062c-4.5362-1.6134-6.5295-3.6777-6.5295-6.8998 0-3.93 3.5376-6.5487 7.9741-6.5487 3.9856 0 6.777 2.0153 8.2734 5.34l-2.6427 0.85468c-1.1453-2.2149-2.8902-3.4772-5.6317-3.4772m21.828 0c-2.94 0-4.7847 1.6134-4.7847 3.8321 0 2.0153 1.0974 3.4254 4.187 4.4825l2.3933 0.85468c4.5861 1.6614 7.7746 3.1741 7.7746 7.6547 0 4.8355-4.7847 7.3026-9.2201 7.3026-4.3856 0-8.2753-2.3175-9.6192-6.6456l2.6427-0.80768c1.2441 3.2758 3.8878 4.682 6.9765 4.682s6.0307-1.459 6.0307-4.5823c0-2.6676-1.8945-3.9252-4.9832-5.036l-2.8403-1.0062c-4.5362-1.6134-6.5305-3.6777-6.5305-6.8998 0-3.93 3.5386-6.5487 7.9741-6.5487 3.9894 0 6.7789 2.0153 8.2734 5.34l-2.6427 0.85468c-1.1444-2.2149-2.8892-3.4772-5.6317-3.4772m15.501 10.731c0 7.2518 5.2834 10.624 9.5204 10.624 4.3357 0 9.4197-3.224 9.4197-10.624 0-7.4552-5.0839-10.677-9.4197-10.677-4.236-2e-3 -9.5204 3.3707-9.5204 10.677zm18.791-7.5559v-5.5866h3.0916v26.186h-3.0916v-5.5904c-1.6451 3.7247-5.483 5.9424-9.5204 5.9424-5.6326 0-12.36-4.3319-12.36-13.396 0-9.1185 6.777-13.449 12.36-13.449 4.0374 2e-3 7.8264 2.117 9.5204 5.8935m30.553-5.5866v26.186h-3.0916v-6.5976c-0.4988 2.165-3.6384 6.9516-9.5693 6.9516-5.0839 0-9.5693-2.9218-9.5693-10.929v-15.612h3.0906v15.61c0 5.8906 2.8921 8.1573 7.0791 8.1573 4.7348 0 8.023-4.4777 8.9707-8.4585v-15.308h3.0897" fill="#252453" stroke-width=".95923"/></svg>
