<svg width="389.63pt" height="65.205pt" viewBox="0 0 389.63 65.205" xmlns="http://www.w3.org/2000/svg">
 <g fill="#bebebe">
  <path d="m0.0125 0.25957c4.68 0.02 9.36 0 14.05 0.02 8.39 13.63 16.79 27.27 25.18 40.91-0.03-13.65-0.56-27.28-0.65-40.93 5.31 0.02 10.62 0 15.94 0.02-0.02 21.59-0.03 43.18 0 64.77-4.86 0.02-9.73 0.01-14.6 0.01-8.24-13.19-16.4-26.42-24.67-39.59-0.06 13.19 0.23 26.39 0.35 39.58-5.21 0.02-10.41 0.01-15.61 0.01 0-21.6-0.01-43.2 0.01-64.8z"/>
  <path d="m63.382 0.27957c5.51-0.01 11.02-0.03 16.53 0.01-0.06 21.59-0.03 43.18-0.01 64.77-5.51 0-11.01 0.01-16.52-0.01 0.03-21.59 0.02-43.18 0-64.77z"/>
  <path d="m86.682 0.26957c14.05 0.01 28.1-0.02 42.14 0.02-0.03 4.83-0.03 9.66 0.01 14.5-4.25 0.03-8.5 0-12.75 0.02 0.03 16.73-0.01 33.47 0.02 50.2-5.54 0.09-11.08 0.04-16.63 0.04 0.05-16.75 0-33.5 0.03-50.24-4.27-0.01-8.54-0.01-12.82 0v-14.54z"/>
  <path d="m135.49 0.26957c11.18 0.01 22.37-0.03 33.56 0.02 5.7 0.03 11.78 0.74 16.53 4.16 8.86 6.71 11.15 20.27 5.56 29.75-2.77 4.72-7.69 8.07-13.11 8.88 5.8 7.35 11.59 14.72 17.51 21.98-6.38-0.02-12.77 0.04-19.15-0.04-7.66-10.72-15.35-21.42-23.03-32.13 4.9-0.03 9.8 0.06 14.7-0.02 3.46-0.04 7.45-1.2 9.2-4.46 1.5-3.34 1.51-7.76-1.1-10.57-2.3-2.52-5.93-3.03-9.17-3.04-4.97 0-9.94 0-14.91 0.01 0.03 16.73 0 33.47 0.02 50.21-5.54 0.08-11.08 0.03-16.62 0.03 0.03-21.59 0.02-43.18 0.01-64.78z"/>
  <path d="m226.29 0.43957c10.29-1.18 21.13 2.43 28.23 10.06 11.03 11.23 11.74 30.64 1.61 42.68-9.91 12.62-29.35 15.62-42.98 7.51-7.08-4.03-12.43-10.9-14.7-18.71-2.07-7.49-1.33-15.67 1.68-22.81 4.66-10.23 14.85-17.86 26.16-18.73m0.96 13.9c-9.59 1.33-16.9 11.13-15.48 20.72 0.96 9.32 9.79 16.92 19.17 16.38 9.98-0.13 18.71-9.45 17.93-19.46-0.02-10.83-11-19.73-21.62-17.64z"/>
 </g>
 <path d="m286.69 0.059569c3.16 0 6.32 0 9.49 0.01-0.01 9.24 0.02 18.48-0.03 27.72 8.9 0.02 17.8 0.03 26.7 0-0.06-9.24-0.01-18.48-0.03-27.72 3.16-0.01 6.32-0.02 9.48 0v64.75c-3.16-0.01-6.32-0.01-9.47-0.01 0.02-9.4-0.06-18.81 0.04-28.21-8.91-0.04-17.82-0.04-26.73 0 0.09 9.4 0.01 18.81 0.04 28.21-3.17 0-6.33 0-9.49 0.01v-64.76z" fill="#d2d2d2"/>
 <path d="m338.19 0.10957c11.28 0.61 23.22-1.83 33.92 2.81 8.48 3.59 13.96 11.91 16.25 20.58 2.65 8.89 0.92 18.6-3.16 26.78-4.78 8.95-14.98 13.74-24.8 14.38-7.41 0.33-14.82 0.09-22.23 0.14 0.06-21.56 0.02-43.13 0.02-64.69m9.4 8.56c0.04 15.84-0.02 31.69 0.03 47.53 8.55 0.09 18.26 0.68 25.17-5.35 11.58-10.42 9.3-32.7-4.95-39.71-6.27-3.21-13.46-2.39-20.25-2.47z" fill="#d2d2d2"/>
 <path d="m264.18 49.94c5.03 0.01 10.07 0 15.11 0.01 0.02 5.03 0 10.07 0.02 15.11h-15.18c0.04-5.04-0.02-10.08 0.05-15.12z" fill="#b9e637"/>
</svg>
