<svg version="1.1" viewBox="0 0 1080.9 563.59" xmlns="http://www.w3.org/2000/svg">
 <path d="m976.5 0h-872.22c-57.498 0-104.28 46.771-104.28 104.25v355.09c0 57.484 46.782 104.25 104.28 104.25h872.31c57.498 0 104.28-46.771 104.28-104.25v-355.09c-0.0871-57.484-46.869-104.25-104.37-104.25z" fill="#8bb922" fill-rule="evenodd"/>
 <g transform="translate(102.19,94.935)" fill="#fff" fill-rule="evenodd">
  <path d="m91.909 80.913c54.361 0 80.758 27.958 80.758 77.952v116.8c0 8.8839-3.1362 12.019-12.022 12.019h-21.344c-8.886 0-11.674-3.1355-11.674-12.019v-115.58c0-25.258-13.939-38.061-42.339-38.061-12.458 0-24.829 1.5677-37.286 5.0516-1.9166 0.78387-2.7006 1.9161-2.7006 3.9194v144.75c0 8.8839-2.7006 12.019-11.674 12.019h-21.344c-8.886 0-12.022-3.1355-12.022-12.019v-159.56c0-12.455 2.7006-17.071 15.158-22.123 22.128-8.8839 47.392-13.152 76.489-13.152z"/>
  <path d="m248.72 86.748c9.3216 0 12.022 2.7 12.022 11.671v192.05c0 57.832-29.533 86.487-88.511 86.487-9.3216 0-12.458-3.1355-12.458-12.455v-16.984c0-9.3194 3.1362-12.455 12.458-12.455 31.014 0 43.472-15.939 43.472-45.813v-190.92c0-8.8839 3.1362-11.671 12.458-11.671h20.56v0.0871zm-8.9731-75.252c18.208 0 23.696 5.8355 23.696 23.255v3.4839c0 18.203-6.1853 23.69-23.696 23.69h-2.7006c-18.208 0-23.696-5.4-23.696-23.69v-3.4839c0-17.419 5.4013-23.255 23.696-23.255z"/>
  <path d="m382.97 80.913c55.494 0 83.023 26.739 83.023 79.955v100.51c0 13.587-3.1362 17.419-13.939 22.123-15.507 6.6194-38.767 10.103-69.868 10.103-33.018 0-55.494-5.0516-67.952-15.503-12.458-10.103-18.643-25.955-18.643-47.381 0-46.161 24.829-62.448 88.076-62.448 2.7006 0 15.158 0.78387 37.286 1.9161v-10.887c0-25.258-10.89-38.41-38.767-38.41-18.992 0-32.582 6.1839-40.771 18.639-5.8369 8.1871-7.7535 8.8839-16.727 5.8355l-15.507-6.6194c-8.5375-3.9194-10.89-9.6677-6.6209-17.419 14.026-26.826 40.858-40.413 80.41-40.413zm38.07 126.12c-27.181-1.1323-41.119-1.9161-42.339-1.9161-27.965 0-37.286 8.1871-37.286 25.258 0 17.419 8.189 25.955 36.502 25.955 16.727 0 29.533-1.1323 38.767-3.1355 2.7006-1.1323 4.2688-2.7 4.2688-5.4v-40.761h0.0871z"/>
  <path d="m708.96 80.913c50.877 0 76.054 25.606 76.054 77.255v117.58c0 8.8839-2.7006 12.019-11.674 12.019h-21.344c-8.886 0-12.022-3.1355-12.022-12.019v-116.1c0-25.258-12.458-37.626-37.635-37.626-11.674 0-24.044 2.3516-37.635 6.9677 2.7006 7.4032 4.2688 17.071 4.2688 29.09v117.58c0 8.8839-3.1362 12.019-12.022 12.019h-20.995c-8.886 0-12.022-3.1355-12.022-12.019v-116.01c0-25.258-12.806-37.626-38.07-37.626-11.238 0-21.344 1.5677-31.014 4.6161-1.9166 0.78387-3.1362 2.3516-3.1362 4.6161v144.32c0 8.8839-2.7006 12.019-11.674 12.019h-21.344c-8.886 0-12.022-3.1355-12.022-12.019v-159.39c0-12.455 3.1362-17.071 15.158-22.123 21.344-8.8839 45.04-13.152 70.652-13.152 20.56 0 36.502 4.2677 48.089 12.803 21.431-8.5355 43.994-12.803 68.387-12.803z"/>
  <path d="m854.19 237.25c18.643 0 24.829 6.1839 24.829 24.823v3.4839c0 18.987-6.1853 24.823-24.829 24.823h-3.1362c-18.643 0-24.829-5.8355-24.829-24.823v-3.4839c0-18.639 6.1853-24.823 24.829-24.823zm10.019-236.64c8.886 0 12.458 3.1355 12.022 12.019l-5.4013 184.3c-0.34847 8.8839-3.1362 11.671-12.022 11.671h-12.022c-8.886 0-11.674-2.7-12.022-11.671l-5.0528-184.3c-0.34847-8.8839 3.1362-12.019 12.022-12.019h22.476z"/>
 </g>
</svg>
