<svg width="800" height="292.01" version="1.1" viewBox="0 0 800 292.01" xmlns="http://www.w3.org/2000/svg">
 <g fill="#e50071" stroke-width="10.256">
  <path class="cls-1" d="m385.74 213.38h-141.86v-205.13a8.2564 8.2564 0 0 1 8.2667-8.2667 8.2667 8.2667 0 0 1 8.2769 8.2667v188.58h125.31a8.2667 8.2667 0 0 1 0 16.533m-95.538-41.754a8.2051 8.2051 0 0 1-8.2667-8.2667v-155.09a8.2051 8.2051 0 0 1 8.2667-8.2667 8.2051 8.2051 0 0 1 8.2667 8.2667v155.09a8.2051 8.2051 0 0 1-8.2667 8.2667" data-name="Path 41"/>
  <path class="cls-1" d="m690.48 217.34a107.44 107.44 0 0 1-72.133-27.764 102.65 102.65 0 0 1-35.395-80.79 102.33 102.33 0 0 1 32.215-75.467 106.12 106.12 0 0 1 76.841-31.436 104.29 104.29 0 0 1 76.154 31.744 104.26 104.26 0 0 1 31.877 76.287 102.75 102.75 0 0 1-32.051 76.113 107.43 107.43 0 0 1-77.508 31.313m1.4974-198.89a88.985 88.985 0 0 0-65.272 26.667 85.282 85.282 0 0 0-27.221 63.672 85.631 85.631 0 0 0 29.744 68.318 90.164 90.164 0 0 0 61.251 23.672 90.256 90.256 0 0 0 65.918-26.585 85.672 85.672 0 0 0 27.077-64.277 87.179 87.179 0 0 0-27.015-64.615 87.179 87.179 0 0 0-64.482-26.913m-1.0256 161.01a66.533 66.533 0 0 1-47.446-19.744 67.149 67.149 0 0 1-20.697-50.41 67.077 67.077 0 0 1 19.949-49.138 66.338 66.338 0 0 1 48.831-20.195 65.785 65.785 0 0 1 48.79 20.267 67.99 67.99 0 0 1 19.774 49.477 68.349 68.349 0 0 1-20.01 49.528 66.923 66.923 0 0 1-49.19 20.215m0.6359-122.91a49.672 49.672 0 0 0-37.097 15.282 50.421 50.421 0 0 0-15.138 37.477 50.574 50.574 0 0 0 15.61 38.503 49.918 49.918 0 0 0 35.99 15.118 50.256 50.256 0 0 0 37.426-15.262 51.631 51.631 0 0 0 15.241-37.949 51.385 51.385 0 0 0-15.026-37.949 49.231 49.231 0 0 0-37.005-15.282" data-name="Path 42"/>
  <path class="cls-1" d="m783.52 292.01h-179.35a7.8667 7.8667 0 0 1-7.3949-8.2667 7.8769 7.8769 0 0 1 7.3949-8.2769h179.35a7.8769 7.8769 0 0 1 7.3949 8.2769 7.8667 7.8667 0 0 1-7.3949 8.2667" data-name="Path 43"/>
  <path class="cls-1" d="m783.52 254.68h-179.35a7.8667 7.8667 0 0 1-7.3949-8.2667 7.8769 7.8769 0 0 1 7.3949-8.2769h179.35a7.8769 7.8769 0 0 1 7.3949 8.2769 7.8667 7.8667 0 0 1-7.3949 8.2667" data-name="Path 44"/>
  <path class="cls-1" d="m195.62 214.21h-31.713a27.487 27.487 0 0 1-21.097-9.8667l-110.94-131.62a8.2667 8.2667 0 0 1 1.0256-11.641 8.2667 8.2667 0 0 1 11.641 1.0256l110.89 131.63a11.056 11.056 0 0 0 8.4513 3.9282h15.179v-189.39a8.2769 8.2769 0 0 1 8.2769-8.2667 8.2667 8.2667 0 0 1 8.2667 8.2667zm-187.61 0a8.1436 8.1436 0 0 1-8.0103-8.2667v-205.94h30.769a26.369 26.369 0 0 1 20.451 9.8154l107.57 131.67a8.4513 8.4513 0 0 1-0.9641 11.641 7.8564 7.8564 0 0 1-11.282-1.0256l-107.6-131.64a10.523 10.523 0 0 0-8.2051-3.9282h-14.718v189.41a8.1436 8.1436 0 0 1-8.0308 8.2667" data-name="Path 45"/>
  <path class="cls-1" d="m460.03 259.67a8.2564 8.2564 0 0 1-8.2667-8.2667v-217.14a8.2564 8.2564 0 0 1 8.2667-8.2667 8.2564 8.2564 0 0 1 8.2667 8.2667v217.14a8.2564 8.2564 0 0 1-8.2667 8.2667m-37.744 0a8.2667 8.2667 0 0 1-8.2667-8.2667v-243.08a8.2769 8.2769 0 0 1 8.2667-8.2769 8.2769 8.2769 0 0 1 8.2769 8.2769v243.08a8.2769 8.2769 0 0 1-8.2769 8.2667m119.82-145.31a8.2051 8.2051 0 0 1-6.1538-2.7282 8.2667 8.2667 0 0 1 0.58461-11.672 44.308 44.308 0 0 0 14.615-34.821 44.933 44.933 0 0 0-14.482-34.872 54.462 54.462 0 0 0-38.903-13.672 8.2564 8.2564 0 0 1-8.2667-8.2667 8.2667 8.2667 0 0 1 8.2667-8.2769 71.128 71.128 0 0 1 50.144 18.072 61.426 61.426 0 0 1 19.774 46.964 60.81 60.81 0 0 1-20.041 47.149 8.2564 8.2564 0 0 1-5.5385 2.1231m-53.703-13.846a8.2564 8.2564 0 0 1-8.2667-8.2667 8.2564 8.2564 0 0 1 8.2667-8.2667 28.636 28.636 0 0 0 18.349-5.0359 17.015 17.015 0 0 0 5.4154-14.092c0-9.2308-3.1385-18.708-26.41-18.708a8.2667 8.2667 0 0 1-8.2667-8.2667 8.2769 8.2769 0 0 1 8.2667-8.2769c37.364 0 42.933 22.092 42.933 35.241a32.821 32.821 0 0 1-11.487 26.882 44.236 44.236 0 0 1-28.8 8.7897" data-name="Path 46"/>
 </g>
</svg>
