<svg version="1.1" viewBox="0 0 250.7 64" xml:space="preserve" xmlns="http://www.w3.org/2000/svg">
<path d="m237.1 1.1h13.7v27.9h-13.7v-27.9" fill="#ffcb00"/><path d="m222.3 0v10.021l0.98438-0.10742v0.5625h0.0195c0.28109-0.431 0.64588-0.5625 0.95508-0.5625 1.0026 0 1.3398 0.64662 1.3398 1.5742v2.2109h1.5547c-0.70141-0.29672-1.2207-0.96176-1.2207-1.8066 0-1.1525 0.96546-1.9785 2.043-1.9785s2.041 0.82605 2.041 1.9785c0 0.84489-0.51929 1.5099-1.2207 1.8066h2.8281c-0.67519-0.13893-1.0312-0.6025-1.0312-1.4219v-1.377h-0.59961l0.23438-0.9375h0.34765v-0.74023l1.1152-0.43164v1.1719h0.63671v0.9375h-0.6289v1.3027c0 0.36542 0.2826 0.4668 0.5918 0.4668 0.10307 0 0.19536-0.01877 0.28906-0.04687l-0.30664 1.0762h1.5723c-0.7063-0.33764-1.1504-1.0753-1.1504-1.7422 0-1.1056 0.87051-2.0332 1.9199-2.0332 0.52922 0.00638 1.0136 0.22476 1.3848 0.57422v-2.0469l-1.0566 1.0039h-0.86133l0.68359-1.0684h1.2344v-8.3867zm12.334 10.852c-0.48723 0-0.86329 0.45965-0.86329 0.9375v0.13086l1.3594-0.91797c-0.11244-0.12181-0.29933-0.15039-0.49609-0.15039zm-10.703 0.06641c-0.32794 0-0.55273 0.20611-0.55273 0.64648v2.1348h1.1055v-2.1348c0-0.43101-0.2248-0.64648-0.55274-0.64648zm4.0625 0.02734c-0.51533-0.0094-0.93594 0.4124-0.94531 0.92774v0.01953c0 0.51533 0.4124 0.92578 0.92773 0.92578 0.51533 0.0094 0.93592-0.41045 0.94532-0.92578 9e-3 -0.51533-0.41241-0.9379-0.92774-0.94727zm8.0059 0.41016-1.9004 1.2383c0.13118 0.18739 0.38411 0.27148 0.59961 0.27148 0.39353 0 0.75876-0.18608 1.0586-0.42969l0.24219 0.36328zm0 2.1602c-0.12503 0.06987-0.25351 0.13093-0.38672 0.18359h0.38672z" fill="#211e5f"/><path d="m222.2 14.3h14.8v13.7h-14.8v-13.7" fill="#e40072"/><path d="m237.1 14.3h13v13.7h-13v-13.7" fill="#e84e24"/><g fill="#211e5f"><path d="m11 27.6h0.2c3-4.6 6.9-6 10.2-6 10.7 0 14.3 6.9 14.3 16.8v23.6l-11.9 1.2v-24c0-4.6-2.4-6.9-5.9-6.9s-5.9 2.2-5.9 6.9v22.8l-12 1.2v-40.4l11-1.2z"/><path d="m40.4 42.7c0-12.3 10.3-21.1 21.8-21.1s21.8 8.8 21.8 21.1-10.3 21.1-21.8 21.1-21.8-8.8-21.8-21.1zm21.8 9.9c5.5 0.1 10-4.4 10.1-9.9s-4.4-10-9.9-10.1-10 4.4-10.1 9.9v0.2c0 5.5 4.4 9.9 9.9 9.9z"/><path d="m86.5 33.3 2.5-10h3.7v-7.9l11.9-4.6v12.5h6.8v10h-6.7v13.9c0 3.9 3 5 6.3 5 1.1 0 2.1-0.2 3.1-0.5l-3.4 11.9c-0.6 0.1-1.2 0.1-1.8 0.1-10.5 0-16-5.1-16-15.7v-14.7z"/><path d="m131.5 50.2c1.4 2 4.1 2.9 6.4 2.9 4.2 0 8.1-2 11.3-4.6l6.2 9.3c-5.2 3.6-11 6.2-17.8 6.2-12.5 0-21.1-11-21.1-20.6 0-11.8 9.3-21.7 20.5-21.7 8.3 0.1 15.8 4.8 19.5 12.2zm11-17c-1.2-1.3-3.2-1.6-5.3-1.6-5.2 0-9.2 4.9-9.2 10v1.4zm10-27.9-12 11.4h-9.2l7.3-11.4z"/><path d="m173.9 7.6v54.4l-11.9 1.2v-54.4z"/><path d="m195 50.2c1.4 2 4.1 2.9 6.4 2.9 4.2 0 8.1-2 11.3-4.6l6.2 9.3c-5.2 3.6-11 6.2-17.8 6.2-12.5 0-21.1-11-21.1-20.6 0-11.8 9.3-21.7 20.5-21.7 8.3 0.1 15.9 4.8 19.5 12.2zm10.9-17c-1.2-1.3-3.2-1.6-5.2-1.6-5.2 0-9.2 4.9-9.2 10v1.4zm10-27.9-12 11.4h-9.3l7.4-11.4z"/></g>
<path d="m237.8 8.6029v5.0971l-1.115 0.11244v-5.0971z" fill="#211e5f" stroke-width=".093697"/><path d="m239.63 12.594c0.13117 0.18739 0.38416 0.27172 0.59966 0.27172 0.39352 0 0.75894-0.18739 1.0588-0.43101l0.58092 0.87138c-0.48722 0.33731-1.0307 0.58092-1.6678 0.58092-1.1712 0-1.977-1.0307-1.977-1.9302 0-1.1056 0.87138-2.0332 1.9208-2.0332 0.77768 0.00937 1.4898 0.44974 1.8271 1.1431zm1.0213-1.5928c-0.11243-0.12181-0.29983-0.14992-0.48722-0.14992-0.48722 0-0.86201 0.45911-0.86201 0.93697v0.13118zm0.93697-2.6141-1.1244 1.0681h-0.87138l0.69336-1.0681z" fill="#211e5f" stroke-width=".093697"/></svg>
