<svg enable-background="new 0 0 318.9 69.5" version="1.1" viewBox="0 0 318.9 69.5" xml:space="preserve" xmlns="http://www.w3.org/2000/svg">
<style type="text/css">
	.st0{fill:#1D95A9;enable-background:new    ;}
	.st1{fill:#40DDCE;}
	.st2{fill:#35C8C2;enable-background:new    ;}
	.st3{fill:#40E1D1;enable-background:new    ;}
	.st4{fill:#1D99AA;}
	.st5{fill:#2AB0B9;enable-background:new    ;}
</style>
<path class="st0" d="m52.6 0.2h-41.1c-3.1 0-11.5 1.8-11.5 12.7 0.1 35.4 0 37.4 0 53.2 0 3.2 3.3 5.3 7.9-0.4 44.1-55.6 44.4-56.3 46.6-59.1 1-1.2 4.9-6.4-1.9-6.4z"/><path class="st1" d="m15.5 0.2h68.4c14.5 0 13.2 11 13.2 11.3v53.3c0 6.4-6.5 4.2-6.5 4.2s-57.9-42.5-78.9-58.1c-5.8-4.4-4.2-10.7 3.8-10.7z"/><path class="st2" d="m11.7 10.9c6 4.5 15.1 11.2 25 18.5 15.6-19.9 16.2-20.8 17.8-22.8 1-1.2 4.9-6.4-1.9-6.4h-37.2c-7.9 0-9.5 6.3-3.7 10.7z"/><path class="st3" d="m207.1 34.5v-22.8c0-11.6-11.9-11.7-12.3-11.7h-71.4c-0.5 0-12.4 0.1-12.4 11.7v45.6c0 11.7 11.9 11.7 12.4 11.7h71.4c0.4 0 12.4-0.1 12.3-11.7v-22.8z"/><path class="st4" d="m124.5 0.2h71.6c7.4 0 11 3.6 11 10.7 0.1 30.8 0 30.9 0 46.3 0 0.8-1 3.6-3.3 4.9-3.9 2.3-8.1 2.6-11.9 0.5-1.5-0.8-1.5-0.8-70.8-52.4-3.6-2.6-1.9-10 3.4-10z"/><path class="st3" d="m266.3 69.4h41.1c3.1 0 11.6-1.8 11.6-12.7-0.1-35.4 0-37.4 0-53.2 0-3.2-3.3-5.3-7.9 0.4-44.2 55.5-44.4 56.2-46.6 59-1.1 1.3-5 6.5 1.8 6.5z"/><path class="st4" d="m304.4 69.5h-68.4c-14.5 0-13.2-11-13.2-11.3v-53.3c0-6.4 6.5-4.2 6.5-4.2s57.9 42.6 78.8 58.2c5.9 4.3 4.3 10.6-3.7 10.6z"/><path class="st5" d="m308.1 58.9c-6.1-4.6-15.5-11.5-25.6-18.9-15.9 20.2-16.5 21.1-18.1 23-1 1.2-4.9 6.4 1.9 6.4h39.6c6.6-0.7 7.7-6.5 2.2-10.5z"/>
</svg>
