<svg width="800" height="800" clip-rule="evenodd" fill-rule="evenodd" stroke-linejoin="round" stroke-miterlimit="1.4142" version="1.1" viewBox="0 0 800 800" xml:space="preserve" xmlns="http://www.w3.org/2000/svg">
    <g transform="translate(0,400)" fill="#c8081e" fill-rule="nonzero" stroke-width="2"><path d="m400-400c-220.91 0-400 179.09-400 400s179.09 400 400 400 400-179.09 400-400-179.09-400-400-400m0 106.49c78.318 0 151.96 30.51 207.35 85.906 55.446 55.444 85.98 129.17 85.98 207.61s-30.534 152.16-85.98 207.61c-55.394 55.396-129.04 85.906-207.35 85.906s-151.96-30.51-207.35-85.906c-55.444-55.444-85.98-129.17-85.98-207.61s30.536-152.16 85.98-207.61c55.394-55.396 129.04-85.906 207.35-85.906"/><path d="m609.84-96.08c-7.762-28.648-33.884-47.416-62.286-46.846-0.062-2e-3 -0.138-0.016-0.198-0.016-56.944-0.226-307.23 0.118-307.36 0.126 3.74 1.716 24.954 6.278 12.656 44.512-7.298 26.688-62.222 230.81-64.646 239.83 0 0 85.62-0.134 125.88 0 3.792 0.014 4.964-1.574 5.854-4.898 14.314-53.264 51.198-189.68 55.546-204.55 3.254-11.154 10.41-18.466 22.59-18.622 22.71-0.29 45.432-0.532 68.126 0.062 14.812 0.39 20.142 8.252 16.306 22.57-11.226 41.876-41.018 150.95-46.724 174.42-4.812 19.818 4.154 31.186 24.372 32.304 1.476 0.082 121.1 0.252 121.22 0.244-3.74-1.716-24.952-6.278-12.654-44.514 0 0 30.574-112.91 35.496-131.27 4.132-15.416 7.93-30.902 7.972-46.906 0-0.338 0-8.5-2.158-16.46"/></g>
</svg>
