<svg width="800" height="138.59" version="1.1" viewBox="0 0 800 138.59" xml:space="preserve" xmlns="http://www.w3.org/2000/svg"><g transform="matrix(1.3333 0 0 -1.3333 531.75 466.48)"><g transform="matrix(1.8067 0 0 1.8067 321.72 -198.38)"><g transform="translate(-66.71 294.08)"><path d="m0 0-9.941 2e-3v-0.077c4.641-1e-3 3.624-5.691 2.346-9.609l0.144-0.059c0.125 0.319 0.254 0.644 0.385 0.97 0.012 0.034 0.023 0.058 0.036 0.092 3e-3 9e-3 6e-3 0.013 0.01 0.022 1.659 4.124 3.812 8.583 7.02 8.582z" fill="#fd101e"/></g><g transform="translate(-113.49 287.74)"><path d="m0 0c-6e-3 3.822 2.926 6.72 8.346 6.72 0.988 0 1.912-0.108 2.787-0.293v0.251c-1.277 0.182-2.567 0.305-3.747 0.305-8.073 1e-3 -15.913-5.137-15.9-13.965 0.023-15.813 25.087-14.368 25.104-25.634 7e-3 -4.546-3.941-7.247-9.531-7.246-10.613 2e-3 -14.635 9.753-15.214 18.978h-0.113l0.932-19.042 3.724 1.647c1.976-0.725 6.211-1.78 10.389-1.781 9.711-1e-3 18.058 5.598 18.044 14.954-0.024 16.34-24.804 13.839-24.821 25.106" fill="#fd101e"/></g><g transform="translate(-323.68 247.9)"><path d="m0 0c-8.694 1e-3 -8.717 15.616-8.729 23.324-0.011 7.512-0.035 23.259 8.66 23.258 8.694-2e-3 8.718-15.749 8.729-23.259 0.011-7.709 0.034-23.325-8.66-23.323m-0.069 46.845c-11.856 2e-3 -21.496-9.484-21.475-23.518 0.022-14.956 10.592-23.523 21.544-23.525 10.952-1e-3 21.498 8.562 21.476 23.518-0.021 14.034-9.69 23.523-21.545 23.525" fill="#fd101e"/></g><g transform="translate(-184.86 248.35)"><path d="m0 0c-4.178 1e-3 -4.519 1.912-4.529 8.434l-0.038 25.63c-0.013 8.829 0.152 11.662 7.83 11.661l-1e-3 0.198-25.574 4e-3v-0.198c6.097-1e-3 6.103-3.691 6.114-11.663l0.034-22.401c0.011-7.709 0.017-11.728-6.08-11.727v-0.132l36.753-6e-3 8.009 20.688-0.293-1e-3c-4.031-11.167-11.273-20.488-22.225-20.487" fill="#fd101e"/></g><g transform="translate(-355.94 265.64)"><path d="m0 0v-0.017l-23.508 28.664-19.364 3e-3 1e-3 -0.198c4.007 0 5.976-1.646 7.25-3.647l4.5-5.854 31.376-38.669-0.029 19.42z" fill="#fd101e"/></g><g transform="translate(-281.56 283.15)"><path d="m0 0c-2.21 5.601-2.726 10.938 2.581 10.937v0.198l-24.107 4e-3v-0.199c4.065 0 6.329-3.755 9.502-11.531l15.129-36.636 5.692 14.702-0.126 0.32z" fill="#fd101e"/></g><g transform="translate(-231.31 248.35)"><path d="m0 0c-2.992 0-3.39 1.779-3.397 6.458l-0.025 16.801c6.267-1e-3 10.957-3.033 10.629-10.61h0.17l0.928 21.282h-0.169c-0.328-7.709-5.292-10.475-11.558-10.475l-0.033 22.204 5.646-1e-3c10.782-1e-3 13.953-5.668 14.927-15.617h0.17l-1.436 15.878-35.213 6e-3c-6.431 0-8.474 1.67-5.594 9.173h-0.2c-2.87-7.479-6.185-9.161-12.577-9.172l-1.466 1e-3v-0.198c8.246-1e-3 7.323-7.57 5.176-13.962h0.13c0.127 0.324 0.248 0.65 0.367 0.975 3.949 9.986 7.403 12.687 13.064 12.957 5.361-0.299 5.381-3.996 5.393-11.634l0.033-22.401c0.012-7.709 0.018-11.728-6.079-11.727v-0.132l37.825-6e-3 2.681 19.633-0.17 1e-3c-1.732-11.662-6.406-19.436-19.222-19.434" fill="#fd101e"/></g><g transform="translate(-136.24 259.87)"><path d="m0 0-15.128 36.636-5.684-14.744 0.1-0.257 0.017 0.046 6.302-16.234 1.611-4.129 0.758-1.908c2.153-5.601 2.783-11.004-2.58-11.003v-0.132l24.163-4e-3v0.132c-4.065 0-6.329 3.822-9.559 11.597" fill="#fd101e"/></g><g transform="translate(-365.18 294.29)"><path d="m0 0 1e-3 -0.198c7.188-1e-3 8.936-7.262 9.278-14.925h0.224c0.235 8.316 1.612 14.924 9.071 14.923v0.197z" fill="#fd101e"/></g><g transform="translate(-388.01 263.29)"><path d="m0 0h-0.224c-0.235-8.316-1.612-14.924-9.071-14.923l1e-3 -0.197 18.573-3e-3v0.198c-7.189 1e-3 -8.937 7.262-9.279 14.925" fill="#fd101e"/></g><g transform="translate(-88.563 280.76)"><path d="m0 0c-0.847 0-0.871 1.868-0.875 2.644l0.033 10.771 3.866-1e-3v0.109c-3.041 1e-3 -4.393 1.707-4.792 4.087v0.316c-1.699-2.585-3.704-4.402-6.138-4.401v-0.11h2.709l-1e-3 -9.709c8e-3 -4.168 1.452-4.857 3-4.857 1.428 1e-3 2.608 0.682 3.175 1.976l-0.046 0.02c-0.231-0.507-0.556-0.845-0.931-0.845" fill="#fd101e"/></g><g transform="translate(-75.093 282.51)"><path d="m0 0c-0.329-0.525-0.714-0.954-1.155-1.118-0.974-0.364-1.552 0.831-2.387 3.128l-2.639 7.145c-0.772 2.075-1.854 2.683-3.122 2.208-1.564-0.585-2.694-2.143-3.321-3.575l0.05-0.043c0.232 0.487 0.527 1.057 0.844 1.176 0.997 0.372 1.525-1.394 1.858-2.282l2.405-6.496c0.979-2.673 2.581-3.547 4.643-2.776 0.298 0.112 0.58 0.265 0.853 0.435 0.046 0.025 0.07 0.035 0.125 0.068 0.66 0.395 1.164 0.934 1.496 1.361 0.312 0.401 0.476 0.708 0.476 0.708z" fill="#fd101e"/></g></g></g></svg>
