<svg width="800" height="718.72" version="1.1" viewBox="0 0 211.67 190.16" xmlns="http://www.w3.org/2000/svg">
 <g transform="matrix(4.6527 0 0 4.6527 -60.529 -529.74)" fill="#d9151b" style="shape-inside:url(#rect859);white-space:pre" aria-label="UHD">
  <path d="m32.913 151.82v-4.2439q0-0.24341 0.10583-0.34925 0.11642-0.11641 0.35983-0.11641h0.381q0.24342 0 0.34925 0.11641 0.11642 0.10584 0.11642 0.34925v3.9476q0 1.0689 0.3175 1.5663 0.3175 0.48683 1.2912 0.48683 0.97366 0 1.2912-0.48683 0.3175-0.49741 0.3175-1.5663v-3.9476q0-0.24341 0.10583-0.34925 0.11642-0.11641 0.35983-0.11641h0.381q0.24342 0 0.34925 0.11641 0.11642 0.10584 0.11642 0.34925v4.2439q0 1.4393-0.70908 2.1802-0.6985 0.73025-2.2119 0.73025t-2.2225-0.73025q-0.6985-0.74083-0.6985-2.1802z"/>
  <path d="m40.184 154.15v-6.5828q0-0.24341 0.10583-0.34925 0.11642-0.11641 0.35983-0.11641h0.381q0.24342 0 0.34925 0.11641 0.11642 0.10584 0.11642 0.34925v2.667h3.1856v-2.667q0-0.24341 0.10583-0.34925 0.11642-0.11641 0.35983-0.11641h0.381q0.24342 0 0.34925 0.11641 0.11642 0.10584 0.11642 0.34925v6.5828q0 0.24342-0.11642 0.35984-0.10583 0.10583-0.34925 0.10583h-0.381q-0.24342 0-0.35983-0.10583-0.10583-0.11642-0.10583-0.35984v-2.7516h-3.1856v2.7516q0 0.24342-0.11642 0.35984-0.10583 0.10583-0.34925 0.10583h-0.381q-0.24342 0-0.35983-0.10583-0.10583-0.11642-0.10583-0.35984z"/>
  <path d="m47.518 154.15v-6.5828q0-0.24341 0.10583-0.34925 0.11642-0.11641 0.35983-0.11641h1.6827q1.8732 0 2.9104 0.96308t1.0372 2.794-1.0372 2.794-2.9104 0.96308h-1.6827q-0.24342 0-0.35983-0.10583-0.10583-0.11642-0.10583-0.35984zm1.3123-0.65616h0.94191q1.2171 0 1.8521-0.6985 0.64558-0.70908 0.64558-1.9367 0-1.2277-0.64558-1.9262-0.635-0.70908-1.8521-0.70908h-0.94191z"/>
 </g>
 <g transform="matrix(1.2182 0 0 1.2182 5.1772e-7 21.237)" stroke-width=".28959">
  <path d="m67.389-1.5716-3.5814-3.5713c-3.5475-3.5577-7.8187-3.6184-11.802 0.36863l-2.8374 2.8408c-3.9871 3.9836-3.9197 8.2482-0.37201 11.802l3.5779 3.5713c3.551 3.5643 7.8222 3.6255 11.806-0.36185l2.834-2.8407c3.9906-3.9871 3.9263-8.2548 0.37537-11.809m-17.937 17.937-3.5845-3.5678c-3.551-3.5541-7.8152-3.622-11.799 0.36863l-2.8408 2.8407c-3.9871 3.9805-3.9228 8.2447-0.37202 11.802l11.485 11.478c1.3257 1.3189 2.817 1.1262 3.8382 0.10822 1.0179-1.0179 1.1904-2.4857-0.1319-3.8149l-2.6446-2.6344c0.72034-0.15218 1.603-0.70003 2.6446-1.7383l3.03-3.037c3.9937-3.9836 3.9228-8.2447 0.37537-11.806m-14.238 22.296-7.6056-7.6024c-3.5541-3.5541-7.8152-3.622-11.806 0.36524l-2.8407 2.834c-3.9836 3.9871-3.9228 8.2548-0.36524 11.809l7.5989 7.6126c1.3324 1.3223 2.817 1.1228 3.8382 0.11159 1.0179-1.0247 1.1938-2.5025-0.13528-3.818l-7.5346-7.5448c-1.4305-1.4238-1.3866-2.7697 0.21982-4.3725l3.0097-3.0097c1.603-1.6064 2.9489-1.6537 4.376-0.21982l7.5381 7.5346c1.3189 1.3291 2.7967 1.1531 3.8149 0.13527 1.0213-1.0213 1.2175-2.5093-0.10821-3.8351m77.637 9.5876-47.177 47.169c-4.7482 4.7513-10.197 4.7513-14.94 0l-47.169-47.174c-4.7513-4.7482-4.7513-10.193 0-14.944l47.169-47.169c4.7513-4.7513 10.193-4.7513 14.94 0l47.172 47.166c4.7513 4.7482 4.7513 10.193 3e-3 14.944m-52.674-49.625c-1.4339-1.4271-2.7765-1.3866-4.3796 0.21982l-3.0088 3.0118c-1.603 1.5996-1.6469 2.9454-0.21305 4.3725l3.4392 3.4462c1.4305 1.4339 2.7697 1.3899 4.3796-0.21643l3.0097-3.0132c1.5996-1.5962 1.6436-2.9489 0.21644-4.3725l-3.4427-3.4493zm-14.494 21.39c1.4271 1.4271 1.3832 2.7731-0.21982 4.3725l-3.0097 3.0132c-1.6097 1.603-2.9454 1.6469-4.376 0.21305l-3.4462-3.4462c-1.4305-1.4238-1.3899-2.7697 0.21305-4.3725l3.0097-3.0132c1.6097-1.603 2.9489-1.6436 4.3827-0.21644l3.4462 3.4493z" fill="#e6e6e6"/>
  <path d="m40.129 10.148c-2.0084 0.03809-4.0714 1.0274-6.0635 3.0228l-2.8326 2.8326c-3.9871 3.9836-3.9309 8.2523-0.38009 11.81l11.484 11.475c1.3257 1.3189 2.8192 1.1266 3.8371 0.1086 1.0213-1.0179 1.1956-2.4899-0.12669-3.8191l-2.6425-2.6335c0.71695-0.15218 1.6009-0.69934 2.6425-1.7375l3.0317-3.0317c3.9906-3.9836 3.9219-8.2523 0.37102-11.81l-3.5823-3.5649c-1.7738-1.7788-3.7291-2.6896-5.7374-2.6516zm-0.01734 5.3838c0.71567-0.03166 1.4114 0.31812 2.1267 1.0317l3.449 3.449c1.4271 1.4271 1.3767 2.7748-0.22624 4.3712l-3.0046 3.0135c-1.6097 1.603-2.9463 1.6477-4.3801 0.21719l-3.4519-3.449c-1.4271-1.4238-1.3824-2.7714 0.2172-4.3712l3.0046-3.0135c0.80487-0.80319 1.5468-1.2172 2.2625-1.2488z" fill="#d9151b"/>
  <path d="m58.075-7.7884c-2.0092 0.038094-4.0714 1.0217-6.0635 3.0135l-2.8409 2.8418c-3.9877 3.9836-3.9182 8.2467-0.37067 11.801l3.5747 3.5747c3.5475 3.5612 7.8262 3.6252 11.81-0.36199l2.8326-2.8417c3.9934-3.9862 3.924-8.2548 0.37358-11.809l-3.5765-3.5747c-1.7738-1.7788-3.7282-2.6806-5.7374-2.6425zm-0.02611 5.3847c0.71483-0.03293 1.4098 0.30906 2.1267 1.0226l3.449 3.4479c1.4305 1.4238 1.379 2.7805-0.21719 4.3801l-3.0135 3.0135c-1.6064 1.6064-2.9405 1.6511-4.3712 0.21719l-3.449-3.4476c-1.4339-1.4271-1.3824-2.7714 0.2172-4.3712l3.0147-3.0135c0.7998-0.80487 1.5295-1.2159 2.2443-1.2488z" fill="#d9151b"/>
  <path d="m35.219 38.655c1.3223 1.3291 1.1296 2.817 0.10483 3.8382-1.0179 1.0179-2.4924 1.1938-3.8149-0.13528l-7.5346-7.5346c-1.4271-1.4339-2.7765-1.3866-4.376 0.21982l-3.0132 3.0097c-1.603 1.603-1.6469 2.9454-0.21982 4.3725l7.5346 7.5448c1.3291 1.3156 1.1531 2.7933 0.13865 3.818-1.0213 1.0112-2.5093 1.2106-3.8382-0.11498l-7.6024-7.6091c-3.5541-3.5541-3.6184-7.8222 0.36863-11.809l2.8408-2.834c3.9906-3.9871 8.2517-3.9228 11.802-0.36524l7.6091 7.5989z" fill="#d9151b"/>
  <path d="m60.91 33.306c-4.7482 4.7482-4.7482 10.193 0 14.94l47.169 47.172c4.7513 4.7513 10.197 4.7513 14.947 0l47.169-47.172c4.7482-4.7482 4.7447-10.197 0-14.94l-47.169-47.166c-4.7513-4.7548-10.197-4.7548-14.944 0l-47.174 47.166z" fill="#d9151b"/>
  <path d="m123.35 19.365c0-5.5834-3.4969-8.3429-7.7918-8.3429-4.295 0-7.7883 2.7595-7.7883 8.3429v42.813c0 5.5799 3.4969 8.3464 7.7883 8.3464 4.295 0 7.7918-2.7664 7.7918-8.3464z" fill="#fff"/>
 </g>
</svg>
