<svg width="800" height="539.85" version="1.1" viewBox="0 0 800 539.85" xmlns="http://www.w3.org/2000/svg">
 <link rel="stylesheet" type="text/css"/>
 <link rel="stylesheet" type="text/css"/>
 <style lang="en" type="text/css"/>
 <style lang="en" type="text/css"/>
 <style lang="en" type="text/css"/>
 <g transform="matrix(10.797 0 0 10.797 0 .0080976)" fill-rule="evenodd">
  <path d="m35.542 10.84-10.808-9.033-23.53 23.203 12.058 12.34z" fill="#ff6d00" fill-rule="nonzero"/>
  <path d="m28.945 6.81-1.538-1.535c-1.524-1.527-3.359-1.554-5.07 0.159l-1.218 1.22c-1.713 1.711-1.685 3.543-0.161 5.07l1.538 1.533c1.524 1.53 3.359 1.557 5.07-0.154l1.218-1.221c1.713-1.712 1.686-3.545 0.16-5.072zm-7.705 7.704-1.54-1.533c-1.524-1.526-3.357-1.555-5.067 0.159l-1.22 1.22c-1.712 1.71-1.686 3.541-0.16 5.07l4.932 4.93c0.57 0.567 1.211 0.483 1.649 0.046 0.438-0.438 0.512-1.068-0.056-1.638l-1.135-1.132c0.308-0.065 0.688-0.3 1.135-0.747l1.301-1.304c1.715-1.71 1.685-3.542 0.161-5.07zm-6.114 9.576-3.267-3.265c-1.527-1.527-3.358-1.555-5.071 0.157l-1.22 1.218c-1.712 1.712-1.685 3.546-0.158 5.072l3.265 3.269c0.571 0.569 1.21 0.484 1.649 0.049 0.436-0.44 0.512-1.075-0.059-1.64l-3.237-3.241c-0.613-0.612-0.595-1.19 0.095-1.878l1.294-1.293c0.687-0.69 1.266-0.71 1.879-0.094l3.237 3.237c0.567 0.57 1.201 0.494 1.639 0.057 0.438-0.44 0.522-1.078-0.046-1.648zm33.345 4.118-20.263 20.262c-2.04 2.041-4.38 2.041-6.418 0l-20.26-20.26c-2.04-2.04-2.04-4.378 0-6.418l20.262-20.262c2.04-2.041 4.378-2.041 6.417 0l20.261 20.26c2.041 2.038 2.041 4.378 2e-3 6.417zm-22.625-21.315c-0.616-0.614-1.192-0.596-1.88 0.095l-1.294 1.292c-0.687 0.687-0.707 1.266-0.091 1.878l1.478 1.48c0.614 0.617 1.19 0.598 1.88-0.093l1.293-1.294c0.686-0.686 0.706-1.266 0.093-1.878zm-6.226 9.187c0.614 0.613 0.594 1.192-0.094 1.878l-1.293 1.294c-0.691 0.69-1.264 0.708-1.88 0.093l-1.48-1.481c-0.613-0.612-0.596-1.19 0.092-1.878l1.293-1.294c0.691-0.69 1.267-0.707 1.882-0.093l1.48 1.48z" fill="#e6e6e6" fill-rule="nonzero"/>
  <path d="m25.626 21.79c-2.04 2.04-2.04 4.379 0 6.418l20.261 20.262c2.04 2.041 4.379 2.041 6.42 0l20.26-20.26c2.04-2.04 2.038-4.38 0-6.419l-20.26-20.26c-2.041-2.041-4.38-2.041-6.418 0l-20.263 20.26" fill="#ff6d00"/>
  <path d="m36.445 24.05c-0.95-0.226-1.25-0.318-1.25-0.732 0-0.57 0.804-0.655 1.284-0.655 0.44 0 0.99 0.102 1.475 0.273 0.124 0.042 0.247 0.079 0.371 0.079 0.343 0 0.502-0.263 0.613-0.521l0.074-0.18c0.041-0.11 0.08-0.232 0.08-0.36 0-0.284-0.18-0.514-0.495-0.63-0.752-0.285-1.543-0.344-2.075-0.344-2.089 0-3.286 0.89-3.286 2.441 0 1.725 1.428 2.044 2.941 2.38l0.026 6e-3c0.836 0.186 1.238 0.296 1.238 0.755 0 0.165 0 0.67-1.387 0.67-0.555 0-1.133-0.108-1.768-0.332a1.204 1.204 0 0 0-0.372-0.079c-0.342 0-0.502 0.263-0.611 0.52l-0.09 0.21a1.03 1.03 0 0 0-0.08 0.361c0 0.285 0.18 0.514 0.492 0.629 0.627 0.249 1.44 0.375 2.414 0.375 2.167 0 3.361-0.873 3.361-2.457 0-1.724-1.436-2.057-2.955-2.409zm16.615 0.346-4.999-3.147a0.63 0.63 0 0 0-0.964 0.534v6.292a0.63 0.63 0 0 0 0.964 0.534l5-3.147a0.63 0.63 0 0 0 0-1.066zm-7.298 3.2c-0.068-0.318-0.236-0.467-0.531-0.467-0.068 0-0.207 0.016-0.292 0.03-0.151 0.02-0.28 0.029-0.382 0.029-0.766 0-1.24-0.24-1.24-1.434v-2.914h1.71c0.512 0 0.751-0.24 0.751-0.753v-0.206c0-0.514-0.239-0.754-0.752-0.754h-1.71v-1.095c0-0.515-0.239-0.754-0.752-0.754h-0.468c-0.514 0-0.753 0.24-0.753 0.754v1.095h-0.435c-0.513 0-0.752 0.24-0.752 0.754v0.206c0 0.514 0.239 0.753 0.752 0.753h0.435v3.092c0 2.008 0.964 2.985 2.95 2.985 0.379 0 0.734-0.057 1.001-0.105 0.37-0.067 0.572-0.287 0.572-0.62 0-0.074-0.022-0.195-0.046-0.315l-0.058-0.28zm19.855 0.28-0.06-0.28c-0.066-0.318-0.235-0.467-0.53-0.467a2.32 2.32 0 0 0-0.291 0.03c-0.152 0.02-0.28 0.029-0.383 0.029-0.765 0-1.24-0.24-1.24-1.434v-2.914h1.71c0.513 0 0.752-0.24 0.752-0.753v-0.206c0-0.514-0.24-0.754-0.753-0.754h-1.71v-1.095c0-0.515-0.238-0.754-0.752-0.754h-0.468c-0.514 0-0.753 0.24-0.753 0.754v1.095h-0.434c-0.514 0-0.753 0.24-0.753 0.754v0.206c0 0.514 0.24 0.753 0.753 0.753h0.434v3.092c0 2.008 0.965 2.985 2.95 2.985 0.38 0 0.734-0.057 1.002-0.105 0.368-0.067 0.572-0.287 0.572-0.62 0-0.074-0.023-0.194-0.046-0.315zm-6.505-6.172c0 0.07-0.016 0.224-0.03 0.3l-0.03 0.147c-0.092 0.427-0.229 0.674-0.662 0.674-0.09 0-0.206-0.01-0.34-0.022a6.843 6.843 0 0 0-0.642-0.037c-0.326 0-0.771 0.037-1.08 0.12v5.13c0 0.513-0.239 0.753-0.752 0.753h-0.469c-0.513 0-0.753-0.24-0.753-0.754v-5.797c0-0.49 0.221-0.78 0.695-0.912a8.855 8.855 0 0 1 3.412-0.267c0.414 0.05 0.651 0.292 0.651 0.665z" fill="#fffffe"/>
 </g>
</svg>
