<svg width="800" height="559.16" enable-background="new 0 0 1600 900" version="1.1" viewBox="0 0 800 559.16" xml:space="preserve" xmlns="http://www.w3.org/2000/svg">
<g transform="matrix(.78977 0 0 .78977 -231.41 -76.612)">
		<path d="m879.21 438.14-245.05 245.03c-24.666 24.681-52.969 24.681-77.621 0l-245.02-245.02c-24.676-24.674-24.676-52.955 0-77.629l245.03-245c24.681-24.695 52.955-24.695 77.614 0l245.03 245c24.681 24.653 24.681 52.948 0.021 77.615z" fill="#e6e6e6"/>
		<path d="m475.93 388.34c6.882 6.888 5.867 14.619 0.561 19.928-5.295 5.281-12.962 6.203-19.814-0.693l-39.154-39.143c-7.414-7.446-14.42-7.203-22.726 1.136l-15.648 15.634c-8.343 8.324-8.564 15.313-1.144 22.716l39.139 39.185c6.906 6.846 5.988 14.52 0.715 19.836-5.306 5.266-13.03 6.295-19.939-0.586l-39.482-39.528c-18.471-18.464-18.796-40.636 1.911-61.344l14.752-14.727c20.722-20.708 42.859-20.365 61.323-1.901zm167.13-208.98c18.442 18.471 18.778 40.636-1.943 61.337l-14.734 14.769c-20.693 20.7-42.872 20.379-61.315 1.872l-18.6-18.55c-18.425-18.464-18.768-40.614 1.951-61.315l14.733-14.755c20.694-20.708 42.888-20.379 61.308-1.916zm-19.585 18.921-17.886-17.913c-7.445-7.425-14.419-7.203-22.744 1.143l-15.648 15.649c-8.311 8.31-8.554 15.306-1.1 22.708l17.871 17.907c7.438 7.446 14.391 7.217 22.744-1.129l15.641-15.649c8.296-8.303 8.539-15.32 1.122-22.716zm-73.591 74.257c18.435 18.485 18.792 40.636-1.944 61.329l-15.741 15.77c-5.402 5.387-10 8.238-13.734 9.025l13.73 13.691c6.867 6.902 5.974 14.519 0.682 19.814-5.295 5.287-13.048 6.295-19.939-0.565l-59.657-59.622c-18.446-18.486-18.771-40.63 1.94-61.315l14.752-14.755c20.693-20.722 42.851-20.379 61.293-1.915zm-19.593 18.934-17.896-17.913c-7.446-7.417-14.405-7.217-22.773 1.129l-15.627 15.649c-8.321 8.31-8.532 15.306-1.108 22.708l17.9 17.906c7.442 7.446 14.37 7.217 22.726-1.114l15.634-15.655c8.332-8.297 8.565-15.3 1.144-22.71z" fill="#5ece18"/>
		<path d="m609.53 360.54c-24.616 24.619-24.616 52.851 0 77.475l244.53 244.52c24.616 24.634 52.862 24.634 77.485 0l244.53-244.52c24.63-24.624 24.602-52.858 0-77.475l-244.53-244.52c-24.623-24.63-52.869-24.63-77.471 0z" fill="#5ece18"/>
	<path d="m1093.7 345.37-169.8-169.8c-23.051-23.051-60.772-23.051-83.823 0l-169.8 169.8c-23.051 23.051-23.051 60.772 0 83.823l169.8 169.8c23.051 23.051 60.772 23.051 83.823 0l169.8-169.8c23.053-23.051 23.053-60.771 1e-3 -83.823z" fill="#fff00a"/>
	<path d="m1163.7 327c-9.837 0-16.694 3.737-21.738 3.827-2.6 0.046-15.258 0.145-16.183-7.753-2.363-20.189-17.601-29.851-30.662-29.84-5.981 5e-3 -10.653 2.389-14.57 1.519-4.426-1.03-11.487-14.093-28.355-14.33-16.794-0.236-29.905 10.526-29.905 27.308 0 0 0.181 18.178 0.181 21.774 0 5.225-9.987-2.067-27.06-2.067-27.226 0-36.515 13.677-42.756 13.096-8.166-0.243-10.143-14.206-41.274-13.561-7.394 0.153-16.568 3.901-22.374 3.815s-9.816-2.069-13.989-1.902c-14.14 0.565-17.019 6.934-21.399 6.867-2.877 0.317-9.898-9.031-33.253-9.031-7.396 0-15.834 3.92-21.639 3.834-5.806-0.086-10.449-2.017-14.625-1.963-8.6 0.111-16.874 6.788-20.477 6.926-3.089 0.055-3.569-0.512-6.284-1.812-8.621-4.127-18.845-6.27-30.183-6.27-13.962 0-23.27 4.36-25.807 4.007-7.451-1.851-4.448-14.207-28.978-16.021h-57.98c-16.643 0-32.059 12.628-31.267 31.174 1.236 28.94 24.78 26.72 26.084 32.697 0.549 2.517-3.721 6.734-8.152 12.266-6.288 7.852-19.59 21.092-19.59 38.893 0 16.757 17.645 27.052 30.668 27.429h61.501c9.649 0 12.776-4.114 17.589-4.141 7.655 0.062 8.335 6.267 29.082 6.975h7.149c8.899-0.327 15.165-1.999 21.806-3.76 2.035-0.54 5.024-1.439 5.024 8.559 0 15.107 10.038 30.835 29.815 30.887 14.841-0.052 28.921-13.914 30.958-30.847 0 0 1-5.354 4.422-5.408 14.295-0.224 23.128-5.671 25.028-3.835 2.354 2.276 1.064 9.203 1.064 9.203 1.329 16.756 10.038 30.835 29.815 30.887 19.416 0 29.478-11.751 29.478-31.137 0-2.815 2.629-5.118 5.901-5.118 9.678 0 17.249-2.4 24.412-5.385s12.382-9.926 17.251-9.926 17.993 14.723 44.721 15.34c27.585 0 30.234-11.045 38.457-10.59s6.568 8.625 23.514 9.498c11.016 0 15.235-2.528 20.938-2.528s9.088 2.231 14.206 2.231 10.558-3.584 16.601-3.584 8.622 3.923 19.869 3.923c15.119 0 18.036-14.581 26.726-14.581 8.691 0 10.13 14.642 29.174 14.642s28.702-13.019 28.702-30.586v-48.552c1.559-32.002-16.671-53.049-51.636-53.049z" fill="#3ea100"/>
	<path d="m673.6 416.04h-39.319l46.558-62.103c1.38-1.835 2.656-4.015 2.656-7.506 0-5.85-4.812-9.937-11.701-9.937h-57.98c-6.077 0-11.023 4.989-11.023 11.122s4.946 11.122 11.023 11.122h36.356l-47.428 61.486c-1.4 1.862-2.658 3.823-2.658 7.279 0 6.088 5.153 11.23 11.25 11.23h62.267c6.097 0 11.247-5.195 11.247-11.346 0-6.152-5.151-11.347-11.248-11.347z" fill="#fff"/>
	<path d="m727.12 346.6c-17.273 0-27.111 6.862-32.322 12.618-1.765 1.956-2.737 4.422-2.737 6.943 0 5.473 4.464 9.926 9.951 9.926 2.411 0 4.116-0.563 6.301-2.091 4.823-3.461 10.651-7.158 18.807-7.158 10.46 0 16.707 5.077 16.707 13.58v2.598h-24.433c-8.784 0-16.77 2.506-22.488 7.055-6.328 5.034-9.673 12.291-9.673 20.985 0 17.923 13.002 29.965 32.354 29.965h7.149c28.431 0 39.499-19.258 39.499-37.874v-23.497c0-20.696-14.621-33.05-39.115-33.05zm16.707 59.45c0 9.946-8.396 15.889-16.512 15.889h-5.588c-7.67 0-11.891-3.865-11.891-10.882 0-6.521 4.354-10.112 12.261-10.112h21.73z" fill="#fff"/>
	<path d="m817.29 346.6c-9.888 0-18.248 3.656-22.167 8.342 0-2.788-5.63-7.187-11.055-7.187-6.232 0-11.301 5.058-11.301 11.277v106.94c0 6.218 5.07 11.277 11.301 11.277 6.232 0 11.301-5.058 11.301-11.277v-32.008c4.996 4.453 12.997 7.059 21.921 7.059 26.221 0 40.079-16.358 40.079-47.307 0-31.263-13.484-47.114-40.079-47.114zm-2.705 72.519c-11.968 0-18.036-8.486-18.036-25.22 0-16.851 6.068-25.393 18.036-25.393 11.97 0 18.038 8.542 18.038 25.393-1e-3 16.734-6.069 25.22-18.038 25.22z" fill="#fff"/>
	<path d="m907.54 346.6c-9.89 0-18.249 3.656-22.168 8.342 0-3.262-5.63-7.187-11.055-7.187-6.231 0-11.301 5.058-11.301 11.277v106.94c0 6.218 5.07 11.277 11.301 11.277 6.229 0 11.299-5.058 11.299-11.277v-32.008c4.996 4.453 12.999 7.059 21.923 7.059 26.219 0 40.079-16.358 40.079-47.307 1e-3 -31.263-13.483-47.114-40.078-47.114zm-2.706 72.519c-11.967 0-18.038-8.486-18.038-25.22 0-16.851 6.07-25.393 18.038-25.393s18.035 8.542 18.035 25.393c1e-3 16.734-6.067 25.22-18.035 25.22z" fill="#fff"/>
	<g fill="#fff">
		<path d="m1094 336.48c6.732 0 12.19-5.455 12.19-12.187 0-6.734-5.458-12.19-12.19-12.19s-12.19 5.456-12.19 12.19c0 6.732 5.458 12.187 12.19 12.187z"/>
		<path d="m1094 347.76c-6.232 0-11.301 5.058-11.301 11.277v69.75c0 6.218 5.07 11.277 11.301 11.277s11.301-5.058 11.301-11.277v-69.75c1e-3 -6.219-5.069-11.277-11.301-11.277z"/>
	</g>
	<path d="m1163.3 346.6c-13.65 0-20.976 4.65-24.09 8.385 0-3.867-5.624-7.23-11.063-7.23-6.232 0-11.301 5.058-11.301 11.277v70.136c0 6.209 4.859 10.891 11.301 10.891 6.443 0 11.301-4.682 11.301-10.891v-42.968c0-12.768 6.032-18.975 18.444-18.975 10.85 0 16.127 5.767 16.127 17.627v44.317c0 6.31 4.753 10.891 11.301 10.891 6.337 0 11.301-4.785 11.301-10.891v-48.171c-1e-3 -22.825-11.212-34.398-33.321-34.398z" fill="#fff"/>
	<path d="m1034.9 385.81c0-4.323-0.704-15.384-7.234-24.657-6.797-9.659-17.654-14.556-32.266-14.556-27.069 0-42.592 17.102-42.592 46.921 0 31.075 15.328 47.5 44.33 47.5 13.659 0 23.904-4.962 27.439-8.28 2.272-2.017 3.576-4.852 3.576-7.782 0-5.473-4.464-9.928-9.948-9.928-2.867 0-4.635 0.978-6.665 2.266-4.57 3.042-9.422 3.293-14.401 3.293-13.278 0-21.333-6.891-21.714-18.491h46.823c12.652 0 12.652-3.773 12.652-16.286zm-58.826-2.797c1.202-10.635 8.365-16.95 19.325-16.95 12.172 0 16.766 8.937 17.073 16.95z" fill="#fff"/>
	<path d="m1067.8 418.03h-4.354l0.061-107.16c0-6.218-5.07-11.277-11.301-11.277-6.232 0-11.301 5.058-11.301 11.277v103.66c0 15.947 6.286 25.274 19.058 25.274 1.965 0 5.016 0.26 7.214 0.26 5.904 0 10.53-5.487 10.53-11.375 0-5.89-5.035-10.657-9.907-10.657z" fill="#fff"/>
	<path d="m868.93 283.98c-4.868 14.875-12.404 21.404-26.365 19.76-12.592-1.48-24.491-16.137-19.33-35.732 4.683-17.781 13.907-24.898 26.65-23.097 19.358 2.736 24.152 23.462 19.045 39.069z" fill="#3ea100"/>
	<path d="m946.87 532.98c-9.098 20.381-39.712 42.861-74.943 33.009-30.364-8.488-44.004-29.969-50.771-53.583-4.435-15.477 11.044-19.535 17.494-8.419 7.663 13.212 23.274 27.15 44.965 29.366 17.298 1.766 34.973-4.624 45.987-14.421 7.92-7.044 23.429 0.247 17.268 14.048z" fill="#3ea100"/>
	<path d="m938.37 255.23c-6.526-21.551-15.636-37.34-32.889-35.177-0.94 0.118-1.868 0.311-2.777 0.584 0 0-20.797 3.874-14.594 42.201 0.482 4.235 1.415 8.567 2.765 12.741 1e-3 5e-3 3e-3 0.011 4e-3 0.016l1e-3 -2e-3c4.928 15.231 15.347 28.336 29.209 26.738 20.442-2.354 24.232-27.45 18.281-47.101z" fill="#3ea100"/>
	<g fill="#5ece18">
		<path d="m1054.5 752.19c1.495 0.683 2.722 1.361 3.676 2.315 2.313 2.313 2.587 5.583 0.953 9.121-4.084 8.984-10.619 16.878-17.562 23.821-23.687 23.687-48.461 23.141-71.602 0-25.185-25.184-20.964-50.638-3.539-68.063 19.194-19.194 43.287-19.602 66.293 3.404 3.948 3.948 3.13 7.756 0.544 10.342l-42.201 42.201c10.21 9.666 23.553 11.027 38.525-3.945 5.036-5.036 8.577-10.756 11.162-15.792 0.817-1.634 1.497-2.858 2.452-3.813 2.178-2.178 4.899-2.178 8.986-0.543zm-43.97-19.194c-11.162-9.801-22.869-10.619-32.264-1.224-9.393 9.393-8.301 20.827 1.363 32.125z"/>
		<path d="m1062.4 692.84-47.917-6.808c-1.906-0.271-3.676-0.95-4.765-2.038-1.498-1.498-1.498-3.676 0.954-6.128l6.534-6.534c4.765-4.765 8.438-5.717 14.429-4.899l28.724 4.49-4.765-28.449c-1.091-5.991 0.135-9.664 4.899-14.429l5.719-5.72c2.45-2.449 4.628-2.449 6.125-0.952 1.089 1.089 1.768 2.858 2.041 4.763l6.806 47.919 52.136 6.941c1.909 0.274 3.675 0.955 4.765 2.043 1.498 1.498 1.498 3.676-0.952 6.126l-6.535 6.535c-4.765 4.765-8.438 5.717-14.429 4.899l-32.945-4.899 5.311 32.534c1.089 5.989-0.138 9.666-4.902 14.431l-5.717 5.717c-2.449 2.449-4.628 2.449-6.126 0.952-1.089-1.089-1.769-2.856-2.043-4.765z"/>
		<path d="m1099 617.29-5.036 5.037c-4.22 4.219-7.761 4.217-11.98-2e-3l-1.906-1.906c-4.219-4.219-4.219-7.758 0-11.977l5.037-5.036-11.165-11.164c-4.219-4.219-4.219-7.758 0-11.98l4.357-4.356c4.219-4.219 7.758-4.219 11.977 0l11.164 11.164 16.881-16.881c4.219-4.219 7.758-4.219 11.978 0l1.906 1.906c4.219 4.219 4.222 7.761 0 11.98l-16.881 16.881 28.041 28.041c11.435 11.436 18.924 9.664 26.819 1.77 1.224-1.224 2.449-2.724 3.404-3.948 0.68-0.954 1.767-2.315 2.313-2.861 2.178-2.178 4.357-2.448 7.488-0.407l3.13 2.043c0.817 0.544 2.449 1.633 3.13 2.313 2.587 2.587 2.721 5.717 0.274 9.255-2.452 3.539-5.039 6.943-8.169 10.073-17.016 17.016-34.305 18.516-53.091-0.269z"/>
		<path d="m1145.4 561.34c-4.084-4.084-4.63-8.169-1.772-13.206 5.174-9.255 11.844-17.831 18.516-24.501 3.13-3.13 6.669-6.4 10.345-9.258 3.811-2.993 7.486-2.856 10.345 2e-3 0.544 0.544 1.77 2.039 2.315 2.858l1.089 1.633c2.994 4.627 3.539 7.351 0.272 10.618-1.904 1.904-5.854 4.763-9.667 8.576-3.266 3.266-7.621 8.438-9.662 12.388l48.324 48.323c4.221 4.221 4.221 7.761 0 11.982l-4.356 4.356c-4.22 4.219-7.758 4.219-11.98-2e-3z"/>
		<path d="m1197.9 510.02c-1.498-0.68-2.587-1.495-3.404-2.313-2.587-2.586-2.041-5.853-0.952-8.577 2.587-6.669 10.484-17.287 18.107-24.911 19.057-19.056 37.025-20.417 57.036-0.406l33.895 33.894c4.902 4.902 3.812 8.712 1.228 12.931-3.541 5.72-13.888 18.513-21.646 26.271-18.922 18.922-37.707 23.278-52.817 8.169-15.246-15.246-10.347-34.031 7.215-51.593 6.941-6.941 13.068-10.89 16.47-12.931l-2.041-2.041c-8.441-8.44-17.562-9.123-28.589 1.904-5.445 5.445-8.438 10.89-11.16 16.064-0.82 1.632-1.635 2.995-2.587 3.947-2.178 2.178-4.63 2.178-8.851 0.409zm66.84-7.758c-4.084 2.176-8.849 5.854-13.206 10.21-10.753 10.754-12.659 19.194-5.582 26.272 6.943 6.943 15.112 5.038 26.276-6.126 3.947-3.948 7.895-8.712 10.07-12.797z"/>
	</g>
</g>
</svg>
