<svg width="920.51pt" height="633.68pt" version="1.1" viewBox="0 0 920.51 633.68" xmlns="http://www.w3.org/2000/svg">
 <g transform="translate(-39.451 -180.32)">
  <g fill="#ed1d24">
   <path d="m959.96 256.95v20.034c0 42.728-14.914 56.36-65.84 74.903l-72.71 25.004v-128.09l65.58-22.6c43.06-14.558 72.97-7.943 72.97 30.75zm-72.94-3.82-22.43 7.71-0.21 73.04 24.131-8.307c21.512-8.4149 24.789-16.164 24.789-32.31v-19.978c-1.4158-16.28-6.3798-26.287-26.28-20.156z"/>
   <path d="m806.57 253.92v128.07l-43.08 14.86v-51.357l-38.89 13.408-0.2 51.429-43.905 15.14v-128.07l44.145-15.222-0.2 49.655 39.05-13.426v-49.624z"/>
  </g>
 </g>
 <g transform="matrix(3.8963 0 0 3.8963 106.03 -271.89)">
  <path d="m115.57 101.5c8.76 0 15.86-7.091 15.86-15.856 0-8.759-7.1-15.862-15.86-15.862s-15.86 7.103-15.86 15.862c0 8.765 7.1 15.856 15.86 15.856" fill="#ed1d24"/>
  <path d="m131.52 101.83-37.197 12.89v15.36l10.437-3.69s0.07 40.39 0 42.5c0 12.43-13.984 8.38-18.16 5.24-1.296-0.96-10.925-7.66-10.925-7.66 9.349-3.32 23.964-15.29 16.737-31.56-9.049-16.59-25.018-11.16-25.018-11.16l-43.735 15.29v15.08l6.33-2.22v20.99l-28.19-26.47-29.005 10.15-8e-3 15.1 8.753-3.22v43.01l-8.622 3.07v17.89l33.021-11.51v-37.61l20.819 19.6v21.9l52.102-18.26v-12.5c6.642 7.52 21.251 8.6 30.681 5.78 11.67-3.5 22-10.91 22-26.05 0-5.41-0.02-71.94-0.02-71.94zm-67.117 38.78c2.588-0.08 4.684 2.59 4.833 5.23 0.151 2.68 0.658 6.57-3.183 8.37-3.106 1.07-12.26 4.49-12.26 4.49v-14.56s6.325-2.25 9.475-3.32c0.385-0.14 0.765-0.2 1.135-0.21z" fill="#ed1d24"/>
  <path d="m30.528 181.2v38.42l10.566-3.69v-38.42l-10.571 3.69z" fill="#fff"/>
  <path d="m65.318 193.12c4.979-4.95 10.122-9.61 10.122-16.59 0-9.24-7.416-10.26-15.319-7.51-9.903 3.45-16.019 10.36-16.181 22.07l10.122-3.57c-0.055-3.82 1.19-8.02 5.519-9.53 2.349-0.82 4.6-0.25 4.6 2.4 0 6.59-10.012 12.78-16.4 21.93-3.029 4.32-3.714 7.99-3.714 12.57l31.055-10.88v-9.5l-17.491 6.14c2.004-2.16 4.927-4.77 7.687-7.53" fill="#fff"/>
 </g>
</svg>
