<svg version="1.1" viewBox="0 0 403.6 100" xmlns="http://www.w3.org/2000/svg">
 <g transform="scale(1.9417)">
  <path class="st0" d="m11.7 17.4c-1 0-1.9 0.8-1.9 1.9v9.8l-6-10.6c-0.4-0.6-1-1-1.8-1-1.1 0-2 0.9-2 2v16.1c0 1 0.9 1.9 1.9 1.9s1.8-0.8 1.8-1.9v-9.8l6.1 10.6c0.4 0.6 1 1 1.7 1 1.1 0 2-0.9 2-2v-16.1c0.1-1-0.8-1.9-1.8-1.9"/>
  <path class="st0" d="m11.7 17.4c-1 0-1.9 0.8-1.9 1.9v9.8l-6-10.6c-0.4-0.6-1-1-1.8-1-1.1 0-2 0.9-2 2v16.1c0 1 0.9 1.9 1.9 1.9s1.8-0.8 1.8-1.9v-9.8l6.1 10.6c0.4 0.6 1 1 1.7 1 1.1 0 2-0.9 2-2v-16.1c0.1-1-0.8-1.9-1.8-1.9"/>
  <path class="st0" d="m26.4 23.6c0 1.5-0.7 2.2-2.1 2.2h-3.3v-4.4h3.3c1.3-0.1 2.1 0.8 2.1 2.2m3.6 11-3.4-5.6c0.7-0.3 1.4-0.7 1.9-1.2 1.1-1 1.6-2.5 1.6-4.2s-0.6-3.2-1.7-4.3-2.5-1.6-4.2-1.6h-4.9c-1.2 0-2.2 1-2.2 2.2v15.7c0 1 0.8 1.9 1.9 1.9 1 0 1.9-0.8 1.9-1.9v-6.2h1.7l4.3 7.1c0.3 0.6 0.9 0.9 1.6 0.9 1 0 1.8-0.9 1.8-1.8-0.1-0.4-0.2-0.7-0.3-1"/>
  <path class="st0" d="m26.4 23.6c0 1.5-0.7 2.2-2.1 2.2h-3.3v-4.4h3.3c1.3-0.1 2.1 0.8 2.1 2.2m3.6 11-3.4-5.6c0.7-0.3 1.4-0.7 1.9-1.2 1.1-1 1.6-2.5 1.6-4.2s-0.6-3.2-1.7-4.3-2.5-1.6-4.2-1.6h-4.9c-1.2 0-2.2 1-2.2 2.2v15.7c0 1 0.8 1.9 1.9 1.9 1 0 1.9-0.8 1.9-1.9v-6.2h1.7l4.3 7.1c0.3 0.6 0.9 0.9 1.6 0.9 1 0 1.8-0.9 1.8-1.8-0.1-0.4-0.2-0.7-0.3-1"/>
  <path class="st0" d="m60.6 19.4c0-1.1 0.9-2 2-2s1.9 0.9 1.9 2v16c0 1.1-0.8 2-1.9 2s-2-0.9-2-2zm2-5c-1.2 0-2.2-1-2.2-2.2s1-2.2 2.2-2.2 2.2 1 2.2 2.2-1 2.2-2.2 2.2"/>
  <path class="st0" d="m71.8 28.3c-2.1-0.8-3.6-2.4-3.6-5.2 0-3.3 2.8-5.7 6.6-5.7 2.6 0 3.9 0.4 5.2 0.9 0.8 0.3 1.3 1 1.3 1.8 0 1-0.8 1.8-1.8 1.8-0.3 0-0.6-0.1-0.9-0.2-0.9-0.5-2.5-0.8-3.8-0.8-1.6 0-2.6 0.8-2.6 2.1 0 1 0.8 1.6 1.6 1.9l3.7 1.2c2.5 0.8 4 2.5 4 5.3 0 3.3-2.7 6-6.8 6-2.2 0-4.1-0.4-5.5-1.1-0.7-0.3-1.2-1-1.2-1.7 0-1 0.8-1.9 1.9-1.9 0.3 0 0.6 0.1 0.9 0.2 1 0.5 2.3 0.9 3.9 0.9 1.8 0 2.8-0.7 2.8-2 0-1.4-1.1-1.9-2.5-2.4z"/>
  <path class="st0" d="m84.8 19.4c0-1.1 0.9-2 2-2s1.9 0.9 1.9 2v16c0 1.1-0.8 2-1.9 2s-2-0.9-2-2zm2-5c-1.2 0-2.2-1-2.2-2.2s1-2.2 2.2-2.2 2.2 1 2.2 2.2-1 2.2-2.2 2.2"/>
  <path class="st0" d="m104.5 25c0-2.4-1.6-4.1-4.1-4.1-2.6 0-4.1 1.5-4.1 4.1v4.7c0 2.5 1.5 4 4.1 4s4.1-1.5 4.1-4zm3.9 4.4c0 2.3-0.8 4.3-2.2 5.8-1.4 1.4-3.5 2.2-5.8 2.2s-4.3-0.8-5.8-2.2c-1.4-1.4-2.2-3.5-2.2-5.8v-4c0-2.3 0.8-4.3 2.2-5.8 1.4-1.4 3.5-2.2 5.8-2.2s4.3 0.8 5.8 2.2c1.4 1.4 2.2 3.5 2.2 5.8z"/>
  <path class="st0" d="m123.4 24.7c0-2.3-1.4-3.7-3.7-3.7-1.3 0-2.5 0.2-3.7 0.5v13.9c0 1.1-0.9 2-1.9 2-1.1 0-2-0.9-2-2v-14.7c0-1.1 0.6-2 1.7-2.3 1.9-0.6 3.9-1 5.9-1 2.2 0 4.1 0.7 5.5 2.1s2.1 3.3 2.1 5.5v10.4c0 1.1-0.9 2-2 2s-1.9-0.9-1.9-2z"/>
  <path class="st0" d="m55.6 17.4c-0.8 0-1.7 0.5-1.9 1.4l-3.4 11.5-3.2-11.4c-0.2-0.7-1.1-1.6-2.1-1.6-0.8 0-1.5 0.4-1.9 1.1l5 17.4c0.3 0.9 1.1 1.6 2.1 1.6 0.9 0 1.8-0.6 2.1-1.6l5.1-15.9c0.1-0.2 0.1-0.4 0.1-0.6 0-1.1-0.9-1.9-1.9-1.9"/>
  <path class="st0" d="m39.7 30.3-3.4-11.5c-0.2-0.8-1.1-1.4-1.9-1.4-1.1 0-1.9 0.9-1.9 2 0 0.2 0 0.4 0.1 0.6l5 15.8c0.3 0.9 1.1 1.6 2.1 1.6s1.9-0.7 2.1-1.6l1.7-5.8-1.9-6.6z"/>
  <path class="st0" d="m176.9 12.7c-1.9-3.2-4.4-5.9-7.4-8-2.2-1.6-4.7-2.8-7.4-3.6-2.3-0.7-4.8-1.1-7.4-1.1h-26.2l18.5 12.2c0.3 0.5 0.6 0.9 0.9 1.4 2 3.6 3.2 7.7 3.2 12.1 0 2-0.3 4-0.7 5.9-0.7 2.8-1.8 5.3-3.4 7.6l-17 12.2h24.6c2.6 0 5.1-0.4 7.4-1.1 2.7-0.8 5.2-2 7.4-3.6 3-2.1 5.5-4.9 7.4-8 2.2-3.8 3.5-8.3 3.5-13s-1.2-9.2-3.4-13" fill="#f37a6a" fill-opacity=".97222"/>
  <path class="st0" d="m168.1 12.7c-1.9-3.2-4.4-5.9-7.4-8-2.2-1.6-4.7-2.8-7.4-3.6-2.3-0.7-4.8-1.1-7.4-1.1h-17.4l9.7 4.1c0.7 0.4 1.4 0.8 2.1 1.3 1.3 0.9 2.5 1.9 3.6 3 1.5 1.5 2.9 3.3 4 5.2 2 3.6 3.2 7.7 3.2 12.1 0 2-0.3 4-0.7 5.9-1.1 4.4-3.4 8.3-6.5 11.4-1.7 1.7-3.6 3.1-5.7 4.2l-12.4 4.2h20.1c2.6 0 5.1-0.4 7.4-1.1 2.7-0.8 5.2-2 7.4-3.6 3-2.1 5.5-4.9 7.4-8 2.2-3.8 3.5-8.3 3.5-13s-1.3-9.2-3.5-13" fill="#fae804"/>
  <path class="st0" d="m159.3 12.7c-1.9-3.2-4.4-5.9-7.4-8-2.2-1.6-4.7-2.8-7.4-3.6-2.3-0.7-4.8-1.1-7.4-1.1h-14.8l5 1.4c4 0.5 7.7 1.9 10.9 4 1.3 0.9 2.5 1.9 3.6 3 1.5 1.5 2.9 3.3 4 5.2 2 3.6 3.2 7.7 3.2 12.1 0 2-0.3 4-0.7 5.9-1.1 4.4-3.4 8.3-6.5 11.4-2.1 2.1-4.6 3.8-7.3 5.1-2.2 1-4.7 1.7-7.2 2l-5 1.4h14.8c2.6 0 5.1-0.4 7.4-1.1 2.7-0.8 5.2-2 7.4-3.6 3-2.1 5.5-4.9 7.4-8 2.2-3.8 3.5-8.3 3.5-13s-1.3-9.3-3.5-13.1" fill="#bed630"/>
  <path class="st0" d="m150.4 12.7c-1.9-3.2-4.4-5.9-7.4-8-2.2-1.6-4.7-2.8-7.4-3.6-2.3-0.7-4.8-1.1-7.4-1.1h-10.8v0.1c-6.1 0.5-11.6 3.1-15.8 7.1 1.5-1.3 6.8-5.3 15.8-5.9 0.6 0 1.3-0.1 2-0.1 5.1 0 9.8 1.6 13.7 4.2 1.3 0.9 2.5 1.9 3.6 3 1.5 1.5 2.9 3.3 4 5.2 2 3.6 3.2 7.7 3.2 12.1 0 2-0.3 4-0.7 5.9-1.1 4.4-3.4 8.3-6.5 11.4-2.1 2.1-4.6 3.8-7.3 5.1-3.1 1.4-6.4 2.1-10 2.1-0.7 0-1.4 0-2-0.1-5.8-0.4-10.1-2.2-12.8-3.8-1.5-0.9-2.5-1.7-3-2.1 4.2 4 9.7 6.6 15.8 7.1 0.7 0.1 1.3 0.1 2 0.1h8.8c2.6 0 5.1-0.4 7.4-1.1 2.7-0.8 5.2-2 7.4-3.6 3-2.1 5.5-4.9 7.4-8 2.2-3.8 3.5-8.3 3.5-13s-1.2-9.2-3.5-13" fill="#27b682"/>
 </g>
 <g transform="matrix(.10696 0 0 .10696 344.64 -4.6566)" fill="#999">
  <path d="m514 43.535c19.492 0.0805 36.811 23.152 37.24 39.48v288c-0.63 19.41-17.81 36.545-37.24 36.965h-412.95c-24.412 2.0648-49.483-14.556-50.015-36.965v-288c1.4423-22.585 16.26-38.038 37.415-39.48zm-374.96 77.495v198.24h44.495v-82.752h68.955v82.752h44.815v-198.24h-44.815v76.47h-68.955v-76.47h-44.495m190.26 0v198.24h59.225c68.463 0 95.674-40.784 96.023-99.121 0-66.526-30.659-99.121-96.023-99.121z"/>
  <path d="m373.74 157.06h20.543c30.168 0 44.522 25.179 44.525 63.115 0 40.737-13.045 63.115-44.525 63.115h-20.543z"/>
 </g>
</svg>
