<svg version="1.1" viewBox="0 0 403.6 100" xmlns="http://www.w3.org/2000/svg">
 <g transform="scale(1.9417)" fill="#fff">
  <path class="st0" d="m11.7 17.4c-1 0-1.9 0.8-1.9 1.9v9.8l-6-10.6c-0.4-0.6-1-1-1.8-1-1.1 0-2 0.9-2 2v16.1c0 1 0.9 1.9 1.9 1.9s1.8-0.8 1.8-1.9v-9.8l6.1 10.6c0.4 0.6 1 1 1.7 1 1.1 0 2-0.9 2-2v-16.1c0.1-1-0.8-1.9-1.8-1.9"/>
  <path class="st0" d="m11.7 17.4c-1 0-1.9 0.8-1.9 1.9v9.8l-6-10.6c-0.4-0.6-1-1-1.8-1-1.1 0-2 0.9-2 2v16.1c0 1 0.9 1.9 1.9 1.9s1.8-0.8 1.8-1.9v-9.8l6.1 10.6c0.4 0.6 1 1 1.7 1 1.1 0 2-0.9 2-2v-16.1c0.1-1-0.8-1.9-1.8-1.9"/>
  <path class="st0" d="m26.4 23.6c0 1.5-0.7 2.2-2.1 2.2h-3.3v-4.4h3.3c1.3-0.1 2.1 0.8 2.1 2.2m3.6 11-3.4-5.6c0.7-0.3 1.4-0.7 1.9-1.2 1.1-1 1.6-2.5 1.6-4.2s-0.6-3.2-1.7-4.3-2.5-1.6-4.2-1.6h-4.9c-1.2 0-2.2 1-2.2 2.2v15.7c0 1 0.8 1.9 1.9 1.9 1 0 1.9-0.8 1.9-1.9v-6.2h1.7l4.3 7.1c0.3 0.6 0.9 0.9 1.6 0.9 1 0 1.8-0.9 1.8-1.8-0.1-0.4-0.2-0.7-0.3-1"/>
  <path class="st0" d="m26.4 23.6c0 1.5-0.7 2.2-2.1 2.2h-3.3v-4.4h3.3c1.3-0.1 2.1 0.8 2.1 2.2m3.6 11-3.4-5.6c0.7-0.3 1.4-0.7 1.9-1.2 1.1-1 1.6-2.5 1.6-4.2s-0.6-3.2-1.7-4.3-2.5-1.6-4.2-1.6h-4.9c-1.2 0-2.2 1-2.2 2.2v15.7c0 1 0.8 1.9 1.9 1.9 1 0 1.9-0.8 1.9-1.9v-6.2h1.7l4.3 7.1c0.3 0.6 0.9 0.9 1.6 0.9 1 0 1.8-0.9 1.8-1.8-0.1-0.4-0.2-0.7-0.3-1"/>
  <path class="st0" d="m60.6 19.4c0-1.1 0.9-2 2-2s1.9 0.9 1.9 2v16c0 1.1-0.8 2-1.9 2s-2-0.9-2-2zm2-5c-1.2 0-2.2-1-2.2-2.2s1-2.2 2.2-2.2 2.2 1 2.2 2.2-1 2.2-2.2 2.2"/>
  <path class="st0" d="m71.8 28.3c-2.1-0.8-3.6-2.4-3.6-5.2 0-3.3 2.8-5.7 6.6-5.7 2.6 0 3.9 0.4 5.2 0.9 0.8 0.3 1.3 1 1.3 1.8 0 1-0.8 1.8-1.8 1.8-0.3 0-0.6-0.1-0.9-0.2-0.9-0.5-2.5-0.8-3.8-0.8-1.6 0-2.6 0.8-2.6 2.1 0 1 0.8 1.6 1.6 1.9l3.7 1.2c2.5 0.8 4 2.5 4 5.3 0 3.3-2.7 6-6.8 6-2.2 0-4.1-0.4-5.5-1.1-0.7-0.3-1.2-1-1.2-1.7 0-1 0.8-1.9 1.9-1.9 0.3 0 0.6 0.1 0.9 0.2 1 0.5 2.3 0.9 3.9 0.9 1.8 0 2.8-0.7 2.8-2 0-1.4-1.1-1.9-2.5-2.4z"/>
  <path class="st0" d="m84.8 19.4c0-1.1 0.9-2 2-2s1.9 0.9 1.9 2v16c0 1.1-0.8 2-1.9 2s-2-0.9-2-2zm2-5c-1.2 0-2.2-1-2.2-2.2s1-2.2 2.2-2.2 2.2 1 2.2 2.2-1 2.2-2.2 2.2"/>
  <path class="st0" d="m104.5 25c0-2.4-1.6-4.1-4.1-4.1-2.6 0-4.1 1.5-4.1 4.1v4.7c0 2.5 1.5 4 4.1 4s4.1-1.5 4.1-4zm3.9 4.4c0 2.3-0.8 4.3-2.2 5.8-1.4 1.4-3.5 2.2-5.8 2.2s-4.3-0.8-5.8-2.2c-1.4-1.4-2.2-3.5-2.2-5.8v-4c0-2.3 0.8-4.3 2.2-5.8 1.4-1.4 3.5-2.2 5.8-2.2s4.3 0.8 5.8 2.2c1.4 1.4 2.2 3.5 2.2 5.8z"/>
  <path class="st0" d="m123.4 24.7c0-2.3-1.4-3.7-3.7-3.7-1.3 0-2.5 0.2-3.7 0.5v13.9c0 1.1-0.9 2-1.9 2-1.1 0-2-0.9-2-2v-14.7c0-1.1 0.6-2 1.7-2.3 1.9-0.6 3.9-1 5.9-1 2.2 0 4.1 0.7 5.5 2.1s2.1 3.3 2.1 5.5v10.4c0 1.1-0.9 2-2 2s-1.9-0.9-1.9-2z"/>
  <path class="st0" d="m55.6 17.4c-0.8 0-1.7 0.5-1.9 1.4l-3.4 11.5-3.2-11.4c-0.2-0.7-1.1-1.6-2.1-1.6-0.8 0-1.5 0.4-1.9 1.1l5 17.4c0.3 0.9 1.1 1.6 2.1 1.6 0.9 0 1.8-0.6 2.1-1.6l5.1-15.9c0.1-0.2 0.1-0.4 0.1-0.6 0-1.1-0.9-1.9-1.9-1.9"/>
  <path class="st0" d="m39.7 30.3-3.4-11.5c-0.2-0.8-1.1-1.4-1.9-1.4-1.1 0-1.9 0.9-1.9 2 0 0.2 0 0.4 0.1 0.6l5 15.8c0.3 0.9 1.1 1.6 2.1 1.6s1.9-0.7 2.1-1.6l1.7-5.8-1.9-6.6z"/>
 </g>
 <path class="st0" d="m343.5 24.66c-3.6893-6.2136-8.5437-11.456-14.369-15.534-4.2718-3.1068-9.1262-5.4369-14.369-6.9903-4.466-1.3592-9.3204-2.1359-14.369-2.1359h-50.874l35.922 23.689c0.58252 0.97087 1.165 1.7476 1.7476 2.7184 3.8835 6.9903 6.2136 14.951 6.2136 23.495 0 3.8835-0.58252 7.767-1.3592 11.456-1.3592 5.4369-3.4952 10.291-6.6019 14.757l-33.01 23.689h47.767c5.0485 0 9.9029-0.7767 14.369-2.1359 5.2427-1.5534 10.097-3.8835 14.369-6.9903 5.8252-4.0777 10.68-9.5146 14.369-15.534 4.2718-7.3786 6.7961-16.117 6.7961-25.243 0-9.1262-2.3301-17.864-6.6019-25.243" fill="#f37a6a" fill-opacity=".97222" stroke-width="1.9417"/>
 <path class="st0" d="m326.41 24.66c-3.6893-6.2136-8.5437-11.456-14.369-15.534-4.2718-3.1068-9.1262-5.4369-14.369-6.9903-4.466-1.3592-9.3204-2.1359-14.369-2.1359h-33.786l18.835 7.9612c1.3592 0.7767 2.7184 1.5534 4.0777 2.5243 2.5243 1.7476 4.8544 3.6893 6.9903 5.8252 2.9126 2.9126 5.6311 6.4078 7.767 10.097 3.8835 6.9903 6.2136 14.951 6.2136 23.495 0 3.8835-0.58252 7.767-1.3592 11.456-2.1359 8.5437-6.6019 16.117-12.621 22.136-3.301 3.301-6.9903 6.0194-11.068 8.1553l-24.078 8.1553h39.029c5.0486 0 9.9029-0.7767 14.369-2.1359 5.2427-1.5534 10.097-3.8835 14.369-6.9903 5.8252-4.0777 10.68-9.5146 14.369-15.534 4.2718-7.3786 6.7961-16.117 6.7961-25.243 0-9.1262-2.5243-17.864-6.7961-25.243" fill="#fae804" stroke-width="1.9417"/>
 <path class="st0" d="m309.32 24.66c-3.6893-6.2136-8.5437-11.456-14.369-15.534-4.2718-3.1068-9.1262-5.4369-14.369-6.9903-4.466-1.3592-9.3204-2.1359-14.369-2.1359h-28.738l9.7087 2.7184c7.767 0.97087 14.951 3.6893 21.165 7.767 2.5243 1.7476 4.8544 3.6893 6.9903 5.8252 2.9126 2.9126 5.6311 6.4078 7.767 10.097 3.8835 6.9903 6.2136 14.951 6.2136 23.495 0 3.8835-0.58252 7.767-1.3592 11.456-2.1359 8.5437-6.6019 16.117-12.621 22.136-4.0777 4.0777-8.932 7.3786-14.175 9.9029-4.2718 1.9417-9.1262 3.301-13.981 3.8835l-9.7087 2.7184h28.738c5.0485 0 9.9029-0.7767 14.369-2.1359 5.2427-1.5534 10.097-3.8835 14.369-6.9903 5.8252-4.0777 10.68-9.5146 14.369-15.534 4.2718-7.3786 6.7961-16.117 6.7961-25.243s-2.5243-18.058-6.7961-25.437" fill="#bed630" stroke-width="1.9417"/>
 <path class="st0" d="m292.04 24.66c-3.6893-6.2136-8.5437-11.456-14.369-15.534-4.2718-3.1068-9.1262-5.4369-14.369-6.9903-4.466-1.3592-9.3204-2.1359-14.369-2.1359h-20.971v0.19417c-11.845 0.97087-22.524 6.0194-30.68 13.786 2.9126-2.5243 13.204-10.291 30.68-11.456 1.165 0 2.5243-0.19417 3.8835-0.19417 9.9029 0 19.029 3.1068 26.602 8.1553 2.5243 1.7476 4.8544 3.6893 6.9903 5.8252 2.9126 2.9126 5.6311 6.4078 7.767 10.097 3.8835 6.9903 6.2136 14.951 6.2136 23.495 0 3.8835-0.58252 7.767-1.3592 11.456-2.1359 8.5437-6.602 16.117-12.621 22.136-4.0777 4.0777-8.932 7.3786-14.175 9.9029-6.0194 2.7184-12.427 4.0777-19.417 4.0777-1.3592 0-2.7184 0-3.8835-0.19418-11.262-0.7767-19.612-4.2718-24.854-7.3786-2.9126-1.7476-4.8544-3.301-5.8252-4.0777 8.1553 7.767 18.835 12.816 30.68 13.786 1.3592 0.19418 2.5243 0.19418 3.8835 0.19418h17.087c5.0486 0 9.9029-0.7767 14.369-2.1359 5.2427-1.5534 10.097-3.8835 14.369-6.9903 5.8252-4.0777 10.68-9.5146 14.369-15.534 4.2718-7.3786 6.7961-16.117 6.7961-25.243 0-9.1262-2.3301-17.864-6.7961-25.243" fill="#27b682" stroke-width="1.9417"/>
 <g transform="matrix(.10696 0 0 .10696 344.64 -4.6566)" fill="#fff">
  <path d="m514 43.535c19.492 0.0805 36.811 23.152 37.24 39.48v288c-0.63 19.41-17.81 36.545-37.24 36.965h-412.95c-24.412 2.0648-49.483-14.556-50.015-36.965v-288c1.4423-22.585 16.26-38.038 37.415-39.48zm-374.96 77.495v198.24h44.495v-82.752h68.955v82.752h44.815v-198.24h-44.815v76.47h-68.955v-76.47h-44.495m190.26 0v198.24h59.225c68.463 0 95.674-40.784 96.023-99.121 0-66.526-30.659-99.121-96.023-99.121z"/>
  <path d="m373.74 157.06h20.543c30.168 0 44.522 25.179 44.525 63.115 0 40.737-13.045 63.115-44.525 63.115h-20.543z"/>
 </g>
</svg>
