<svg width="800" height="253.61" version="1.1" viewBox="0 0 800 253.61" xml:space="preserve" xmlns="http://www.w3.org/2000/svg"><defs><clipPath id="clipPath218"><path d="m99.799 777.92h121.3v38.455h-121.3z"/></clipPath></defs><g transform="matrix(1.3333 0 0 -1.3333 -133.07 1290.8)"><g transform="matrix(4.9463 0 0 4.9463 -393.84 -3069.9)" fill="#213661"><g clip-path="url(#clipPath218)" fill="#213661"><g transform="translate(117.99 792.18)"><path d="m0 0v-1.461h-1.216v-2.838c0-0.613 0.019-0.967 0.055-1.066 0.071-0.177 0.216-0.264 0.437-0.264 0.165 0 0.4 0.06 0.707 0.177l0.154-1.417c-0.412-0.187-0.878-0.276-1.399-0.276-0.454 0-0.818 0.09-1.091 0.276-0.273 0.187-0.457 0.45-0.55 0.798-0.071 0.254-0.108 0.774-0.108 1.558v3.052h-0.911v1.461h0.911v1.386l1.795 1.078v-2.464z" fill="#213661"/></g><g transform="translate(124.07 787.41)"><path d="m0 0 1.769-0.299c-0.241-0.704-0.612-1.229-1.116-1.572-0.504-0.341-1.117-0.511-1.839-0.511-1.003 0-1.776 0.283-2.323 0.849-0.644 0.658-0.965 1.58-0.965 2.766 0 1.168 0.324 2.101 0.971 2.804 0.551 0.592 1.261 0.89 2.133 0.89 0.969 0 1.73-0.301 2.278-0.904 0.634-0.693 0.951-1.712 0.951-3.055l-9e-3 -0.209h-4.501c0.01-0.553 0.159-0.978 0.445-1.28 0.287-0.304 0.633-0.454 1.038-0.454 0.584 0 0.973 0.326 1.168 0.975m0.083 1.922c-0.015 0.53-0.154 0.927-0.416 1.195-0.261 0.267-0.571 0.403-0.931 0.403-0.383 0-0.704-0.14-0.964-0.42-0.267-0.28-0.398-0.675-0.391-1.178zm-2.32 4.143 0.872 1.54h2.001l-1.747-1.54z" fill="#213661"/></g><path d="m127.76 794.83h1.795v-9.637h-1.795z"/><g transform="translate(135.93 787.41)"><path d="m0 0 1.767-0.299c-0.239-0.704-0.61-1.229-1.114-1.572-0.504-0.341-1.118-0.511-1.839-0.511-1.003 0-1.778 0.283-2.323 0.849-0.644 0.658-0.965 1.58-0.965 2.766 0 1.168 0.324 2.101 0.971 2.804 0.551 0.592 1.26 0.89 2.132 0.89 0.971 0 1.73-0.301 2.281-0.904 0.632-0.693 0.949-1.712 0.949-3.055l-8e-3 -0.209h-4.503c0.01-0.553 0.159-0.978 0.446-1.28 0.285-0.304 0.633-0.454 1.038-0.454 0.583 0 0.972 0.326 1.168 0.975m0.082 1.922c-0.015 0.53-0.153 0.927-0.414 1.195-0.262 0.267-0.574 0.403-0.934 0.403-0.381 0-0.702-0.14-0.963-0.42-0.268-0.28-0.396-0.675-0.393-1.178zm-2.32 4.143 0.873 1.54h2.001l-1.746-1.54z" fill="#213661"/></g><g transform="translate(141.32 785.19)"><path d="m0 0-2.694 6.984h1.892l1.25-3.564 0.38-1.194 0.379 1.185 1.258 3.573h1.831l-2.647-6.984z" fill="#213661"/></g><path d="m146.93 794.83h1.796v-1.704h-1.796zm0-2.653h1.796v-6.984h-1.796z"/><g transform="translate(150.5 787.18)"><path d="m0 0 1.823 0.286c0.151-0.741 0.618-1.111 1.404-1.111 0.419 0 0.732 0.072 0.937 0.211 0.207 0.145 0.311 0.328 0.311 0.556 0 0.152-0.044 0.272-0.131 0.362-0.091 0.089-0.283 0.165-0.573 0.231-1.471 0.33-2.407 0.645-2.804 0.944-0.497 0.374-0.746 0.882-0.746 1.532s0.243 1.17 0.732 1.56c0.487 0.392 1.196 0.587 2.126 0.587 0.886 0 1.561-0.148 2.024-0.437 0.461-0.291 0.786-0.759 0.974-1.408l-1.685-0.32c-0.151 0.558-0.574 0.837-1.27 0.837-0.44 0-0.753-0.052-0.938-0.16-0.186-0.109-0.279-0.246-0.279-0.419 0-0.153 0.082-0.281 0.246-0.381 0.163-0.105 0.691-0.263 1.583-0.47 0.999-0.236 1.678-0.523 2.036-0.862 0.351-0.339 0.527-0.791 0.527-1.351 0-0.679-0.271-1.238-0.816-1.678-0.544-0.441-1.296-0.659-2.254-0.659-0.873 0-1.585 0.181-2.137 0.547s-0.915 0.901-1.09 1.603" fill="#213661"/></g><path d="m158.62 794.83h1.795v-1.704h-1.795zm0-2.653h1.795v-6.984h-1.795z"/><g transform="translate(162.18 788.79)"><path d="m0 0c0 0.684 0.16 1.309 0.479 1.87 0.32 0.561 0.739 0.983 1.254 1.264 0.516 0.282 1.098 0.422 1.743 0.422 1.083 0 1.935-0.362 2.554-1.085 0.62-0.721 0.929-1.565 0.929-2.529 0-0.722-0.161-1.371-0.483-1.95-0.323-0.578-0.746-1.016-1.269-1.307-0.525-0.293-1.1-0.437-1.723-0.437-1.002 0-1.832 0.326-2.496 0.974-0.659 0.649-0.988 1.574-0.988 2.778m1.824-0.097c0-0.706 0.161-1.237 0.489-1.6 0.326-0.36 0.72-0.539 1.183-0.539 0.451 0 0.837 0.181 1.159 0.542 0.321 0.364 0.482 0.899 0.482 1.608 0 0.691-0.162 1.218-0.489 1.581-0.328 0.363-0.721 0.545-1.176 0.545-0.451 0-0.839-0.182-1.162-0.545-0.326-0.363-0.486-0.894-0.486-1.592" fill="#213661"/></g><g transform="translate(177.06 785.19)"><path d="m0 0h-1.796v3.571c0 0.716-0.034 1.191-0.1 1.429-0.067 0.238-0.193 0.421-0.375 0.547-0.184 0.128-0.392 0.193-0.624 0.193-0.299 0-0.57-0.083-0.811-0.247-0.243-0.166-0.414-0.393-0.511-0.684-0.099-0.289-0.147-0.837-0.147-1.639v-3.17h-1.796v6.984h1.658v-1.017c0.294 0.396 0.628 0.688 0.997 0.885 0.369 0.198 0.779 0.295 1.23 0.295 0.523 0 0.965-0.115 1.324-0.346 0.361-0.23 0.607-0.525 0.745-0.89 0.138-0.36 0.206-0.885 0.206-1.566z" fill="#213661"/></g><g transform="translate(111.16 802)"><path d="m0 0h-1.796v3.571c0 0.715-0.034 1.192-0.101 1.429-0.068 0.237-0.192 0.42-0.375 0.547-0.183 0.128-0.39 0.191-0.623 0.191-0.3 0-0.569-0.082-0.813-0.246-0.242-0.166-0.413-0.392-0.51-0.683-0.097-0.29-0.148-0.837-0.148-1.64v-3.169h-1.794v6.984h1.657v-1.016c0.294 0.393 0.627 0.687 0.996 0.883 0.371 0.197 0.781 0.295 1.231 0.295 0.524 0 0.964-0.116 1.324-0.345 0.36-0.231 0.608-0.528 0.746-0.889 0.137-0.362 0.206-0.885 0.206-1.569z" fill="#213661"/></g><g transform="translate(112.48 808.98)"><path d="m0 0h1.88l1.617-4.95 1.589 4.95h1.874l-2.388-6.721-0.457-1.302c-0.201-0.487-0.721-0.843-0.919-1.071-0.2-0.226-0.673-0.4-0.981-0.523-0.307-0.121-0.686-0.182-1.133-0.182-0.347 0-0.686 0.036-1.015 0.108l0.374 1.488c0.279-0.053 0.529-0.08 0.751-0.08 0.341 0 0.621 0.092 0.84 0.278s0.401 0.524 0.542 1.014z" fill="#213661"/></g><g transform="translate(120.27 805.59)"><path d="m0 0c0 0.684 0.159 1.307 0.48 1.87 0.319 0.561 0.738 0.983 1.254 1.263 0.517 0.281 1.097 0.422 1.742 0.422 1.084 0 1.936-0.361 2.555-1.083s0.93-1.566 0.93-2.532c0-0.719-0.163-1.369-0.484-1.948-0.322-0.58-0.747-1.015-1.271-1.308-0.523-0.291-1.096-0.437-1.722-0.437-1.001 0-1.832 0.325-2.493 0.974-0.662 0.65-0.991 1.577-0.991 2.779m1.823-0.099c0-0.705 0.163-1.237 0.49-1.597 0.327-0.361 0.721-0.541 1.182-0.541 0.451 0 0.838 0.182 1.16 0.543 0.321 0.364 0.482 0.9 0.482 1.607 0 0.691-0.163 1.218-0.49 1.582-0.327 0.362-0.719 0.544-1.175 0.544-0.451 0-0.839-0.182-1.163-0.544-0.325-0.364-0.486-0.895-0.486-1.594" fill="#213661"/></g><g transform="translate(135.16 802)"><path d="m0 0h-1.796v3.571c0 0.715-0.033 1.192-0.101 1.429-0.067 0.237-0.192 0.42-0.375 0.547-0.183 0.128-0.39 0.191-0.622 0.191-0.3 0-0.57-0.082-0.814-0.246-0.242-0.166-0.412-0.392-0.51-0.683-0.098-0.29-0.147-0.837-0.147-1.64v-3.169h-1.795v6.984h1.656v-1.016c0.296 0.393 0.629 0.687 0.998 0.883 0.37 0.197 0.78 0.295 1.23 0.295 0.524 0 0.965-0.116 1.325-0.345 0.361-0.231 0.608-0.528 0.745-0.889 0.137-0.362 0.206-0.885 0.206-1.569z" fill="#213661"/></g><g transform="translate(138.87 802)"><path d="m0 0h-1.795v6.984h1.658v-0.992c0.282 0.464 0.537 0.772 0.761 0.925 0.223 0.152 0.483 0.229 0.776 0.229 0.409 0 0.798-0.116 1.168-0.347l-0.558-1.606c-0.292 0.201-0.57 0.302-0.832 0.302-0.246 0-0.465-0.078-0.65-0.234-0.188-0.155-0.323-0.439-0.405-0.847-0.081-0.409-0.123-1.159-0.123-2.252z" fill="#213661"/></g><g transform="translate(146.59 804.22)"><path d="m0 0 1.768-0.297c-0.239-0.706-0.61-1.23-1.115-1.572-0.503-0.342-1.117-0.513-1.839-0.513-1.004 0-1.777 0.284-2.324 0.85-0.644 0.659-0.965 1.58-0.965 2.766 0 1.166 0.325 2.102 0.973 2.804 0.55 0.593 1.26 0.889 2.132 0.889 0.968 0 1.729-0.3 2.278-0.905 0.634-0.69 0.951-1.707 0.951-3.054l-9e-3 -0.209h-4.502c0.01-0.552 0.159-0.978 0.446-1.28s0.632-0.453 1.039-0.453c0.582 0 0.972 0.325 1.167 0.974m0.083 1.923c-0.016 0.529-0.155 0.928-0.417 1.196-0.26 0.267-0.57 0.4-0.931 0.4-0.381 0-0.703-0.138-0.963-0.416-0.267-0.283-0.399-0.677-0.392-1.18zm-2.32 4.142 0.872 1.542h2l-1.746-1.542z" fill="#213661"/></g><g transform="translate(150.16 801.59)"><path d="m0 0 2.044-0.298c0.032-0.255 0.128-0.435 0.29-0.543 0.159-0.108 0.413-0.162 0.762-0.162 0.4 0 0.724 0.056 0.972 0.166 0.173 0.079 0.308 0.211 0.403 0.394 0.095 0.185 0.143 0.51 0.143 0.976v1.02c-0.27-0.382-0.573-0.67-0.909-0.861-0.337-0.191-0.709-0.286-1.119-0.286-0.75 0-1.382 0.286-1.893 0.862-0.592 0.658-0.886 1.548-0.886 2.672 0 1.192 0.277 2.093 0.834 2.701 0.556 0.606 1.229 0.911 2.021 0.911 0.417 0 0.799-0.095 1.143-0.285 0.343-0.19 0.651-0.476 0.919-0.856v0.979h1.685v-6.255c0-1.002-0.109-1.729-0.328-2.18-0.22-0.45-0.557-0.791-1.013-1.021-0.455-0.229-1.087-0.344-1.894-0.344-0.746 0-1.342 0.085-1.791 0.254-0.447 0.169-0.79 0.422-1.026 0.758-0.238 0.336-0.357 0.724-0.357 1.164zm1.63 4.06c0-0.744 0.141-1.287 0.424-1.627 0.284-0.342 0.624-0.512 1.024-0.512 0.431 0 0.799 0.173 1.106 0.518s0.459 0.87 0.459 1.574c0 0.725-0.146 1.262-0.441 1.609-0.293 0.348-0.655 0.522-1.086 0.522-0.423 0-0.778-0.17-1.062-0.511-0.283-0.341-0.424-0.866-0.424-1.573" fill="#213661"/></g><path d="m158.61 811.63h1.796v-1.706h-1.796zm0-2.653h1.796v-6.984h-1.796z"/><g transform="translate(162.17 805.59)"><path d="m0 0c0 0.684 0.16 1.307 0.48 1.87 0.318 0.561 0.737 0.983 1.255 1.263 0.515 0.281 1.096 0.422 1.741 0.422 1.085 0 1.935-0.361 2.556-1.083 0.618-0.722 0.928-1.566 0.928-2.532 0-0.719-0.16-1.369-0.483-1.948-0.323-0.58-0.746-1.015-1.27-1.308-0.524-0.291-1.098-0.437-1.723-0.437-1.003 0-1.833 0.325-2.494 0.974-0.661 0.65-0.99 1.577-0.99 2.779m1.823-0.099c0-0.705 0.163-1.237 0.49-1.597 0.326-0.361 0.721-0.541 1.183-0.541 0.451 0 0.836 0.182 1.16 0.543 0.322 0.364 0.482 0.9 0.482 1.607 0 0.691-0.163 1.218-0.491 1.582-0.327 0.362-0.72 0.544-1.174 0.544-0.452 0-0.841-0.182-1.164-0.544-0.324-0.364-0.486-0.895-0.486-1.594" fill="#213661"/></g><g transform="translate(177.06 802)"><path d="m0 0h-1.795v3.571c0 0.715-0.034 1.192-0.1 1.429-0.067 0.237-0.194 0.42-0.376 0.547-0.183 0.128-0.39 0.191-0.623 0.191-0.298 0-0.57-0.082-0.812-0.246-0.243-0.166-0.414-0.392-0.51-0.683-0.1-0.29-0.148-0.837-0.148-1.64v-3.169h-1.795v6.984h1.657v-1.016c0.295 0.393 0.628 0.687 0.997 0.883 0.37 0.197 0.781 0.295 1.23 0.295 0.523 0 0.965-0.116 1.324-0.345 0.359-0.231 0.608-0.528 0.744-0.889 0.14-0.362 0.207-0.885 0.207-1.569z" fill="#213661"/></g><g transform="translate(188.04 783.54)"><path d="m0 0 0.026 27.536 8.201 0.026v-3.114c4.449 3.479 9.406 4.346 15.105 1.401l-7.047-7.104c-4.262 0.817-7.182-1.519-7.299-4.808l0.02-13.937z" fill="#213661"/></g><g transform="translate(214.37 805.92)"><path d="m0 0-7.397-7.474 0.039-14.91h8.837v15.455c-0.238 3.077-0.646 5.643-1.479 6.929" fill="#213661"/></g><g transform="translate(183.16 778.55)"><path d="m0 0v37.209h37.321v-37.209zm-82.733 37.209h82.11v-37.209h-82.108zm120.68 0.623h-121.3l2e-3 -38.455h121.3z" fill="#213661"/></g></g></g></g></svg>
