<svg width="800" height="277.3" version="1.1" viewBox="0 0 600 207.97" xmlns="http://www.w3.org/2000/svg">
 <g transform="matrix(.84507 0 0 .84507 0 .086646)" fill="#fff">
  <path d="m436.5-0.10254v170.07c0 8.854 1.335 17.78 7.805 23.79 4.9494 4.3649 9.9678 4.24 15.69 4.24 8.9774 0 17.21-3.86 25.26-7.33v45.31c-12.327 6.7592-25.096 10.02-41.755 10.02-25.31 0-41.767-9.3171-52.195-23.41-9.23-13-11.835-29.433-11.835-44.97v-72.525h-29.93v-47.245h29.93v-47.86z"/>
  <path d="m114.43 53.687c25.425 0 45.288 11.394 56.048 30.238 7.4016 12.48 8.0994 26.724 7.9211 44.075v113.94h-57v-110.96c0-16.998-7.8553-28.319-25.298-28.319-14.178 0-28.518 6.3594-38.942 15.559v123.72h-57.155v-183.98h56.315v17.32c18.411-14.315 34.973-21.606 58.111-21.603z"/>
  <path d="m208.74 57.97h55.915l0.09 25.48c8.8118-12.43 15.944-17.102 27.339-21.39 11.249-4.2086 23.704-4.5153 35.601-4.0895l-0.18 47.25c-9.22-0.15-18.63-0.79-27.61 1.75-14.21 4.9352-25.694 11.937-34.13 23.385v111.59h-57.025z"/>
  <path d="m505.8 57.97 74.955 183.98h54.29l74.955-183.98h-58.041l-44.059 117.84-44.06-117.84z"/>
 </g>
 <g transform="matrix(.84507 0 0 .84507 0 .086646)">
  <path d="m456.44 57.97h28.655v47.125h-28.655z" fill="#00afe6"/>
 </g>
</svg>
