<svg width="193.66pt" height="120.76pt" version="1.1" viewBox="0 0 193.66 120.76" xmlns="http://www.w3.org/2000/svg">
 <path d="m149.78 16.897v30.535h5.855v-12.974h8.5312v12.974h5.8535v-30.535h-5.8535v11.774h-8.5312v-11.774z" fill="#0063aa"/>
 <path d="m172.78 16.897h8.6038c3.6608 5e-3 6.8215 0.43014 9.134 3.117 3.8419 4.1735 3.9871 21.003-0.83275 25.223-2.4264 1.938-5.3144 2.195-8.3012 2.195h-8.6038m5.84-24.825v19.01h3.2199c1.9252 0 3.9214-0.47416 4.8751-2.3502 1.4725-3.2753 1.5997-10.588 0-13.77-0.95983-2.0863-2.7849-2.89-4.8751-2.89z" fill="#0063aa"/>
 <g transform="scale(.59145)" fill-rule="evenodd" style="isolation:isolate">
  <path d="m191.51 53.205c-8.5417 5.2396-21.615 11.677-32.292 17.891-5.0937-9.8125-13.12-18.62-23.75-24.917-10.536-6.2396-23.661-10.443-40.323-8.8802-14.75 1.3906-25.786 6.9479-35.141 14.802-9.1927 7.7083-16.234 17.526-20.161 29.776-4.4896 14.016-3.6458 30.411 0.92708 42.724 4.4271 11.932 11.896 22.01 20.901 29.042 8.8698 6.9323 21.385 12.812 36.25 13.688 16.104 0.94792 28.708-3.9219 39.578-10.359 6.8906 10.13 14.089 19.948 20.901 30.151-12.359 7.8958-26.094 14.115-43.281 16.276-19.104 2.401-37.312-1.0729-51.229-6.6614-26.729-10.729-48.604-32.531-58.266-60.667-5.3802-15.672-7.2604-34.844-4.0677-52.156 6.026-32.661 24.37-55.505 49.016-69.917 12.536-7.3333 27.792-13 46.24-13.87 24.786-1.1719 43.755 5.9479 58.818 15.167 15.443 9.4479 27.016 22.312 35.88 37.911z" fill="#0063aa"/>
  <path d="m193.16 57.21c4.8385 8.7865 7.651 19.604 9.25 31.63h68.432v32.552c7.474-10.036 14.609-22.016 22.198-32.552h34.401c-18.74 28.172-37.969 55.865-56.969 83.786h-39.208c-0.43229-17.88-0.0625-36.563-0.18749-54.75-9-0.4323-18.807-0.0625-28.115-0.1823 0.0469 18.479-0.25521 36.609-0.3698 54.932h-39.766v-54.75c-12.208-0.4323-25.219-0.0625-37.729-0.1823-0.11453-1.4114 1.2708-2.4114 2.0313-3.5156 5.6979-8.2969 11.875-17.297 17.943-25.339h19.974c-0.77084-5.4583-2.4792-9.9792-4.2552-14.427 10.635-5.7656 21.521-11.453 32.37-17.203" fill="#f9b41b"/>
 </g>
</svg>
