<svg width="800" height="525.83" version="1.1" xmlns="http://www.w3.org/2000/svg">
 <g transform="matrix(1.3333 0 0 1.3333 0 -.0026667)" fill="#f25822">
  <path d="m348.64 72.76c-1.1108-7.3868-6.4426-22.16-32.324-22.16-29.269 0-38.655 28.436-38.655 55.762 0 27.27 9.3862 55.707 38.655 55.707 21.049 0 29.325-8.3865 32.99-27.436h61.427c0 40.988-33.268 78.089-92.696 78.089-65.704 0-102.91-46.375-102.91-106.36 0-63.982 40.377-106.36 102.91-106.36 55.762 0.2777 86.031 21.827 91.474 72.757h-60.873z"/>
  <path d="m102.91 162.09c15.94 0 40.377-10.552 40.377-55.762 0-45.209-24.437-55.707-40.377-55.707s-40.377 10.497-40.377 55.707c0 45.209 24.437 55.762 40.377 55.762m0-162.06c61.705 0 102.97 44.32 102.97 106.3 0 62.038-41.266 106.36-102.97 106.36-61.705 0-102.91-44.32-102.91-106.36 0-61.983 41.21-106.3 102.91-106.3"/>
  <path d="m479.42 134.64c0 5.1096 0.8331 14.662 2.2771 18.328 4.5542 12.219 18.161 14.773 29.824 14.773 10.275 0 25.881-3.3879 25.881-18.439 0-10.552-8.7753-13.385-43.765-23.326-32.157-9.1085-68.814-17.939-68.814-58.872 0-46.931 40.044-67.092 81.866-67.092 44.098 0 83.032 23.271 84.754 72.757h-59.15c1.1663-7.6645-2.2771-19.328-7.3868-22.715-5.1096-3.7211-12.219-5.1096-18.495-5.1096-8.4976 0-22.438 2.2771-22.438 13.607 1.1108 14.496 30.158 17.661 58.872 25.604 28.714 7.9977 57.151 21.327 57.151 58.595 0 52.873-48.652 69.925-93.862 69.925-22.993 0-88.697-13.218-89.308-78.033h62.594z"/>
 </g>
 <g transform="matrix(3.1868 0 0 3.1868 26.212 3.3168e-6)" stroke-width="22.343">
  <path d="m50.079 165h10.777v-18.67h0.15178c2.5804 3.8705 7.058 5.9196 11.763 5.9196 11.46 0 17.228-9.7902 17.228-20.263 0-11.156-5.5402-21.098-17.835-21.098-4.8571 0-9.1071 1.8973-11.688 6.0714h-0.15178v-5.0089h-10.246zm19.808-20.871c-6.9821 0-9.4107-6.0714-9.4107-12.446s2.2768-12.674 9.3348-12.674c6.9062 0 9.4107 6.4509 9.4107 12.674 0 6.375-2.2768 12.446-9.3348 12.446z" style="white-space:pre"/>
  <path d="m128.81 111.95h-10.777v20.567c0 7.9688-2.5045 11.232-8.3482 11.232-5.0089 0-6.9062-3.1875-6.9062-9.6384v-22.161h-10.777v24.134c0 9.7143 2.8839 16.165 14.344 16.165 4.5536 0 9.2589-2.125 11.991-6.5268h0.22768v5.4643h10.246z" style="white-space:pre"/>
  <path d="m131.81 151.19h10.777v-54.188h-10.777z" style="white-space:pre"/>
  <path d="m144.58 165h10.777v-18.67h0.15179c2.5804 3.8705 7.058 5.9196 11.763 5.9196 11.46 0 17.228-9.7902 17.228-20.263 0-11.156-5.5402-21.098-17.835-21.098-4.8572 0-9.1072 1.8973-11.688 6.0714h-0.15179v-5.0089h-10.246zm19.808-20.871c-6.9821 0-9.4107-6.0714-9.4107-12.446s2.2768-12.674 9.3348-12.674c6.9062 0 9.4107 6.4509 9.4107 12.674 0 6.375-2.2768 12.446-9.3348 12.446z" style="white-space:pre"/>
 </g>
</svg>
