<svg width="800" height="152.74" version="1.1" viewBox="0 0 211.67 40.412" xmlns="http://www.w3.org/2000/svg">
 <defs>
  <linearGradient id="f" x2="1" gradientTransform="matrix(45.097 -5.4008 -5.4008 -45.097 1012.1 525.18)" gradientUnits="userSpaceOnUse">
   <stop stop-color="#3254ad" offset="0"/>
   <stop stop-color="#87339d" offset=".50396"/>
   <stop stop-color="#ef2f52" offset="1"/>
  </linearGradient>
  <linearGradient id="e" x2="1" gradientTransform="matrix(45.097 -5.4008 -5.4008 -45.097 1012.3 527.47)" gradientUnits="userSpaceOnUse">
   <stop stop-color="#3254ad" offset="0"/>
   <stop stop-color="#87339d" offset=".50396"/>
   <stop stop-color="#ef2f52" offset="1"/>
  </linearGradient>
  <linearGradient id="d" x2="1" gradientTransform="matrix(45.097 -5.4008 -5.4008 -45.097 1012.1 525.57)" gradientUnits="userSpaceOnUse">
   <stop stop-color="#3254ad" offset="0"/>
   <stop stop-color="#87339d" offset=".50396"/>
   <stop stop-color="#ef2f52" offset="1"/>
  </linearGradient>
  <linearGradient id="c" x2="1" gradientTransform="matrix(45.097 -5.4008 -5.4008 -45.097 1012.2 526.6)" gradientUnits="userSpaceOnUse">
   <stop stop-color="#3254ad" offset="0"/>
   <stop stop-color="#87339d" offset=".50396"/>
   <stop stop-color="#ef2f52" offset="1"/>
  </linearGradient>
  <linearGradient id="b" x2="1" gradientTransform="matrix(45.097 -5.4008 -5.4008 -45.097 1011.8 523.25)" gradientUnits="userSpaceOnUse">
   <stop stop-color="#3254ad" offset="0"/>
   <stop stop-color="#87339d" offset=".50396"/>
   <stop stop-color="#ef2f52" offset="1"/>
  </linearGradient>
  <linearGradient id="a" x2="1" gradientTransform="matrix(45.097 -5.4008 -5.4008 -45.097 1011.3 518.41)" gradientUnits="userSpaceOnUse">
   <stop stop-color="#3254ad" offset="0"/>
   <stop stop-color="#87339d" offset=".50396"/>
   <stop stop-color="#ef2f52" offset="1"/>
  </linearGradient>
 </defs>
 <g transform="translate(29.441 -110.79)">
  <g transform="matrix(3.0031 0 0 -3.0031 -3057.3 1698.3)">
   <g transform="translate(1072.1 522.8)">
    <path d="m0 0h-2.778v2.353h-0.751v-5.358h0.751v2.352h2.778v-2.352h0.751v5.358h-0.751z" fill="#ef2f52"/>
   </g>
   <g transform="translate(1076 520.45)">
    <path d="m0 0h-0.972v4.053h0.972c1.199 0 1.996-0.706 1.996-2.019 0-1.32-0.789-2.034-1.996-2.034m0.053 4.706h-1.776v-5.359h1.776c1.639 0 2.717 0.987 2.717 2.687 0 1.692-1.078 2.672-2.717 2.672" fill="#ef2f52"/>
   </g>
   <path d="m1030.1 526.83c0-0.997 0.476-2.418 0.476-5.085 0-1.548-0.247-2.357-0.247-2.981 0-0.399 0.323-0.722 0.721-0.722 0.399 0 0.722 0.323 0.722 0.722 0 0.469-0.242 1.18-0.242 2.971 0 3.631 0.47 4.138 0.47 5.095 0 0.523-0.425 0.949-0.95 0.949s-0.95-0.426-0.95-0.949" fill="url(#f)"/>
   <path d="m1055.7 527.63c-0.274-1e-3 -0.607-0.158-0.726-0.406l-4.112-8.787c-0.169-0.354-0.019-0.78 0.336-0.949 0.099-0.048 0.203-0.069 0.307-0.069 0.265 0 0.521 0.149 0.643 0.405l0.86 1.8c0.118 0.248 0.368 0.406 0.643 0.406h4.126c0.274 0 0.523-0.157 0.642-0.404l0.867-1.804c0.178-0.368 0.631-0.515 0.993-0.312 0.33 0.187 0.445 0.61 0.281 0.952l-4.133 8.765c-0.119 0.246-0.452 0.403-0.725 0.403zm-1.656-5.837 1.446 3.03c0.086 0.18 0.342 0.18 0.429 1e-3l1.457-3.03c0.075-0.157-0.039-0.34-0.215-0.34h-2.903c-0.175 0-0.29 0.182-0.214 0.339" fill="url(#e)"/>
   <path d="m1033.9 524.97c0-2.178 1.913-2.684 2.94-2.956 0.124-0.032 0.241-0.064 0.349-0.095 0.167-0.05 0.347-0.093 0.538-0.139 1.37-0.328 1.942-0.611 1.942-1.517 0-0.583-0.206-0.974-0.648-1.233-0.357-0.21-0.88-0.33-1.436-0.33-0.884 0-2.376 0.668-2.975 1.11-0.316 0.233-0.762 0.166-0.995-0.15-0.234-0.317-0.167-0.763 0.15-0.997 0.788-0.581 2.554-1.388 3.82-1.388 2.131 0 3.508 1.173 3.508 2.988 0 2.176-1.974 2.648-3.034 2.902-0.173 0.042-0.335 0.08-0.466 0.119-0.124 0.037-0.252 0.071-0.389 0.107-1.3 0.344-1.879 0.653-1.879 1.579 0 0.496 0.173 0.834 0.546 1.06 0.338 0.205 0.834 0.318 1.399 0.318 0.993 0 1.62-0.341 2.346-0.736 0.345-0.188 0.778-0.06 0.966 0.285 0.188 0.346 0.06 0.779-0.286 0.966-0.783 0.427-1.671 0.909-3.026 0.909-2.079 0-3.37-1.074-3.37-2.802" fill="url(#d)"/>
   <path d="m1043.3 527.6c-0.393 0-0.712-0.319-0.712-0.712v-8.716c0-0.393 0.319-0.712 0.712-0.712h5.859c0.41 0 0.738 0.344 0.711 0.759-0.025 0.379-0.356 0.665-0.735 0.665h-4.648c-0.261 0-0.475 0.213-0.475 0.476v1.983c0 0.262 0.214 0.474 0.475 0.474h0.096c0.506 0 1.005-0.087 1.496-0.209 0.086-0.022 0.176-0.031 0.27-0.027 0.487 0.02 0.89 0.425 0.908 0.913 0.019 0.541-0.413 0.986-0.95 0.986-0.082 0-0.161-0.01-0.237-0.03-0.517-0.134-1.048-0.208-1.583-0.208-0.261 0-0.475 0.213-0.475 0.475v1.984c0 0.262 0.214 0.475 0.475 0.475h4.648c0.379 0 0.71 0.286 0.735 0.664 0.027 0.415-0.301 0.76-0.711 0.76z" fill="url(#c)"/>
   <path d="m1013.2 527.77c-2.664-0.151-4.812-2.322-4.937-4.988-0.141-3.007 2.265-5.5 5.242-5.5 2.383 0 4.399 1.598 5.036 3.777 0.091 0.309 0.375 0.522 0.697 0.522 0.4 0 0.725-0.325 0.725-0.726v-2.682c0-0.393 0.32-0.712 0.713-0.712h3.025c2.783 0 5.104 2.209 5.147 4.991 0.043 2.831-2.248 5.149-5.07 5.149h-3.102c-0.393 0-0.713-0.319-0.713-0.712v-2.682c0-0.401-0.325-0.726-0.725-0.726-0.32 0-0.605 0.208-0.694 0.514-0.636 2.183-2.653 3.784-5.039 3.784-0.101 0-0.202-3e-3 -0.305-9e-3m-3.519-5.239c0 2.109 1.716 3.824 3.824 3.824s3.824-1.715 3.824-3.824c0-2.108-1.716-3.824-3.824-3.824s-3.824 1.716-3.824 3.824m11.707-3.17v6.341c0 0.262 0.212 0.475 0.475 0.475h1.915c1.989 0 3.611-1.602 3.645-3.583 0.035-2.039-1.669-3.709-3.71-3.709h-1.85c-0.263 0-0.475 0.213-0.475 0.476" fill="url(#b)"/>
   <path d="m1030.2 516.03c0-0.482 0.39-0.872 0.872-0.872s0.873 0.39 0.873 0.872c0 0.481-0.391 0.872-0.873 0.872s-0.872-0.391-0.872-0.872" fill="url(#a)"/>
   <path d="m1064.3 516.38h0.383v12.234h-0.383z" fill="#ef2f52"/>
  </g>
 </g>
</svg>
