<svg width="85.061mm" height="20.643mm" version="1.1" viewBox="0 0 85.061 20.643" xmlns="http://www.w3.org/2000/svg">
 <defs>
  <linearGradient id="a" x1="-71.158" x2="9.0114" y1="142.33" y2="152.63" gradientUnits="userSpaceOnUse">
   <stop stop-color="#0049c5" offset="0"/>
   <stop stop-color="#911eb7" offset=".42351"/>
   <stop stop-color="#d0218c" offset=".66525"/>
   <stop stop-color="#ff364b" offset="1"/>
  </linearGradient>
 </defs>
 <g transform="translate(-40.955 -115.39)">
  <g transform="translate(115.32 -23.755)" fill="url(#a)" stroke-width="5.5033">
   <path d="m2.6153 139.39c-0.44577 0-0.9961 0.25315-1.1887 0.65489l-6.7306 14.391c-0.28067 0.57785-0.027517 1.2713 0.55033 1.5519 0.1596 0.077 0.3302 0.11007 0.50631 0.11007 0.42926 0 0.84201-0.23665 1.0456-0.6549l1.4089-2.9553c0.19812-0.40174 0.60537-0.6604 1.0566-0.6604h6.7526c0.44577 0 0.85852 0.25866 1.0511 0.6604l1.4199 2.9553c0.29168 0.60537 1.0346 0.84201 1.629 0.50631 0.53933-0.30819 0.72644-0.99611 0.45127-1.5464l-6.7581-14.358c-0.19812-0.40174-0.74295-0.65489-1.1887-0.65489zm-2.7076 9.5538 2.3664-4.9585c0.13758-0.29718 0.56134-0.29718 0.69892 0l2.3884 4.953c0.12107 0.25866-0.06604 0.55584-0.35221 0.55584h-4.7549c-0.28617 0-0.47329-0.29168-0.34671-0.55034"/>
   <path d="m-17.641 139.44c-0.64389 0-1.1612 0.52282-1.1612 1.1667v14.265c0 0.64389 0.51731 1.1667 1.1612 1.1667h9.5978c0.6659 0 1.1997-0.56134 1.1557-1.2438-0.038523-0.61637-0.57785-1.0842-1.1997-1.0842h-7.6111c-0.42376 0-0.77597-0.35221-0.77597-0.78147v-3.2415c0-0.43477 0.35221-0.78148 0.77597-0.78148h0.1596c0.8255 0 1.6455 0.14309 2.4435 0.34121 0.14309 0.044 0.29718 0.0495 0.44577 0.0495 0.79798-0.0385 1.4584-0.69342 1.4859-1.4969 0.03302-0.88603-0.67691-1.6125-1.5519-1.6125-0.13758 0-0.26966 0.0165-0.39074 0.044-0.84201 0.22564-1.717 0.34121-2.5921 0.34121-0.42376 0-0.77597-0.35221-0.77597-0.78147v-3.2415c0-0.43476 0.35221-0.77597 0.77597-0.77597h7.6111c0.62188 0 1.1612-0.47328 1.1997-1.0897 0.044027-0.67691-0.4898-1.2438-1.1557-1.2438z"/>
   <path d="m-66.274 139.17c-4.3641 0.24765-7.8808 3.8083-8.0844 8.1669-0.23114 4.931 3.7092 9.0034 8.5797 9.0034 3.9019 0 7.2039-2.6141 8.2495-6.1857 0.14859-0.50081 0.61087-0.84752 1.1392-0.84752 0.6549 0 1.1887 0.52832 1.1887 1.1887v4.3862c0 0.64389 0.51731 1.1667 1.1667 1.1667h4.953c4.5513 0 8.3541-3.6212 8.4201-8.1724 0.07705-4.6283-3.6762-8.4256-8.2935-8.4256h-5.0796c-0.64939 0-1.1667 0.52281-1.1667 1.1667v4.3917c0 0.6549-0.53382 1.1887-1.1887 1.1887-0.52282 0-0.9906-0.34121-1.1337-0.84751-1.0401-3.5717-4.3476-6.1912-8.255-6.1968-0.1651 0-0.3247 5e-3 -0.4953 0.0165m-5.762 8.5797c0-3.4451 2.8122-6.2628 6.2573-6.2628 3.4506 0 6.2628 2.8177 6.2628 6.2628 0 3.4506-2.8122 6.2628-6.2628 6.2628-3.4451 0-6.2573-2.8122-6.2573-6.2628m19.168 5.1896v-10.379c0-0.43477 0.34671-0.77597 0.77597-0.77597h3.1369c3.2525 0 5.9106 2.6141 5.9601 5.8666 0.06054 3.335-2.7297 6.0702-6.0702 6.0702h-3.0268c-0.42926 0-0.77597-0.35222-0.77597-0.78148"/>
   <path d="m-33.089 143.74c0 3.5607 3.1314 4.3917 4.8154 4.8319 0.19812 0.055 0.39074 0.11006 0.56684 0.15959 0.27517 0.0825 0.57235 0.1541 0.88053 0.23114 2.2399 0.52832 3.1809 0.99611 3.1809 2.482 0 0.95207-0.3357 1.5905-1.0621 2.0142-0.58335 0.34671-1.4419 0.54483-2.3499 0.54483-1.4474 0-3.8909-1.0952-4.8704-1.8161-0.51731-0.37973-1.2493-0.27517-1.629 0.24214-0.37973 0.52282-0.26966 1.2493 0.24765 1.629 1.2878 0.95208 4.1825 2.2674 6.2518 2.2674 3.4891 0 5.74-1.9152 5.74-4.8814 0-3.5662-3.2305-4.3366-4.9695-4.7494-0.28067-0.0715-0.54483-0.13758-0.75946-0.19262-0.19812-0.066-0.41275-0.12107-0.63288-0.1761-2.1298-0.56685-3.0764-1.0732-3.0764-2.5866 0-1.8711 1.728-2.2619 3.1809-2.2619 1.2823 0 2.1738 0.35772 2.9443 0.73745 0.57785 0.28617 1.2768 0.044 1.5574-0.53383 0.29168-0.57785 0.04953-1.2768-0.52832-1.5519-0.91906-0.46228-2.2013-0.97959-3.9734-0.97959-3.4011 0-5.5143 1.7611-5.5143 4.5898"/>
   <path d="m-38.702 140.82c0 1.6235 0.76496 3.9239 0.76496 8.255 0 2.5095-0.40174 3.8193-0.40174 4.8374 0 0.64389 0.52832 1.1667 1.1722 1.1667 0.64939 0 1.1722-0.52282 1.1722-1.1667 0-0.76496-0.39074-1.9152-0.39074-4.8264 0-5.8886 0.76496-6.7086 0.76496-8.266 0-0.84751-0.69342-1.5409-1.5464-1.5409-0.85302 0-1.5354 0.69342-1.5354 1.5409"/>
   <path d="m-38.592 158.38c0 0.78147 0.63839 1.4144 1.4144 1.4144 0.78147 0 1.4144-0.63288 1.4144-1.4144 0-0.78698-0.63288-1.4199-1.4144-1.4199-0.77597 0-1.4144 0.63288-1.4144 1.4199"/>
  </g>
 </g>
</svg>
