<svg class="oe24PlusLogo" width="800" height="282.86" version="1.1" viewBox="0 0 800 282.86" xml:space="preserve" xmlns="http://www.w3.org/2000/svg"><link rel="stylesheet" type="text/css"/><link rel="stylesheet" type="text/css"/><style lang="en" type="text/css"/><style lang="en" type="text/css"/><style lang="en" type="text/css"/>
    <path d="m650 7.1429h-612.29c-16.857 0-30.571 13.714-30.571 30.571v204.29c0 17.143 13.714 30.857 30.571 30.857h612.29z" fill="#d0013a" stroke="#fff" stroke-miterlimit="10" stroke-width="14.286"/>
    <g transform="matrix(2.8571 0 0 2.8571 -120.66 -28.171)">
        <path d="m149.6 61.4c0.2-3.2-0.2-6.4-1-9.4l-7.3-5.8c0.8-1 2.1-2.6 2.9-3.7-4-3.7-9.2-5.8-14.7-5.8-7.6-0.1-14.7 3.8-18.8 10.2-4.1-6.7-11.5-10.6-19.4-10.2-10.7 0-22.5 5.8-22.5 23 0 17 11.8 23 22.5 23 7.6 0.4 14.9-3.3 19.1-9.7 4.1 6.6 11.6 10.4 19.4 9.7 3.9 0.1 7.8-0.6 11.5-1.8-0.1-2.2 0.1-4.4 0.5-6.5 0.5-2.1 1.3-4.1 2.4-6-3.8 3.2-8.4 5-13.4 5.2-5.5 0-9.7-2.6-10.2-9.9h29.1v-2.3zm-58.1 11.8c-6.8 0-9.2-6-9.2-13.4 0-7.9 2.9-13.4 9.2-13.4 6.5 0 9.2 6 9.2 13.4 0 8.2-2.9 13.4-9.2 13.4m29.3-17.5c1-6.5 4.5-9.2 8.6-9.2 5 0 7.9 2.9 8.4 9.2z" fill="#fff"/>
    </g>
    <linearGradient id="SVGID_1_" x1="138.7" x2="138.7" y1="175.44" y2="173.6" gradientTransform="matrix(2.8571 0 0 2.8571 4.2857 4.2857)" gradientUnits="userSpaceOnUse">
    <stop stop-color="#f8ec87" offset="0"/><stop stop-color="#f9eb83" offset=".1"/><stop stop-color="#fae97e" offset=".2"/>
    <stop stop-color="#fce678" offset=".3"/><stop stop-color="#fee371" offset=".4"/><stop stop-color="#ffdf69" offset=".5"/>
    <stop stop-color="#ffdc61" offset=".6"/><stop stop-color="#ffd859" offset=".7"/><stop stop-color="#ffd450" offset=".8"/>
    <stop stop-color="#ffd34d" offset=".9"/><stop stop-color="#ffd34d" offset="1"/></linearGradient><path d="m502.29 155.71h-28.857v-77.143h-36.571l-58.286 78.571v20.286h-44.857c0.85714-6 13.429-13.429 29.143-24 24-14.857 26.286-27.714 26.286-40.286 0-23.143-16.571-37.429-44.857-37.429-20.571 0-39.714 10.571-50.857 27.714l24 17.143c6-8.8571 15.429-14.857 26.286-16.571 8.2857 0 12.857 4.5714 12.857 11.143 0 12-7.4286 14.857-27.714 27.714-32.857 21.714-35.143 39.714-35.143 57.714v2.8571h97.143v-22.286h50v21.714h32.857v-21.714h34.286c-2.8571-8.2857-4.5714-16.857-5.7143-25.429zm-61.714 0h-26l26-36.571z" fill="url(#SVGID_1_)" stroke-width="2.8571"/>
    <circle cx="658.57" cy="141.43" r="134.29" stroke="#fff" stroke-miterlimit="10" stroke-width="14.286"/>
    <path d="m638.86 197.14v-40h-40.286v-32.286h40.286v-39.714h32.571v39.714h37.429v32.286h-37.429v39.714h-32.571z" fill="#fff" stroke-width="2.8571"/>
</svg>
