<svg width="800" height="552.51" version="1.1" viewBox="0 0 800 552.51" xml:space="preserve" xmlns="http://www.w3.org/2000/svg"><defs><clipPath id="clipPath18"><path d="m0 0h419.53v595.28h-419.53z"/></clipPath></defs><g transform="matrix(1.3333 0 0 -1.3333 -295.39 1496.5)"><g transform="matrix(7.7981 0 0 7.7981 -2228.9 -3298.6)"><g clip-path="url(#clipPath18)"><g transform="translate(315.87 513.8)"><path d="m0 0c0.996 0 1.64 0.744 1.64 1.72v3.833c0 0.976-0.644 1.72-1.64 1.72s-1.63-0.744-1.63-1.72v-3.833c0-0.976 0.634-1.72 1.63-1.72m0.493 5.553v-3.833c0-0.291-0.131-0.613-0.493-0.613s-0.493 0.322-0.493 0.613v3.833c0 0.292 0.131 0.614 0.493 0.614s0.493-0.322 0.493-0.614" fill="#f18700"/></g><g transform="translate(321.11 519.85)"><path d="m0 0c0.07 0 0.141 0.07 0.141 0.151v0.845c0 0.08-0.071 0.141-0.141 0.141h-2.565c-0.071 0-0.141-0.061-0.141-0.141v-6.811c0-0.08 0.07-0.141 0.141-0.141h0.855c0.07 0 0.141 0.061 0.141 0.141v3.038h1.016c0.08 0 0.141 0.071 0.141 0.151v0.855c0 0.081-0.061 0.151-0.141 0.151h-1.016v1.62z" fill="#f18700"/></g><g transform="translate(324.76 519.85)"><path d="m0 0c0.07 0 0.141 0.07 0.141 0.151v0.845c0 0.08-0.071 0.141-0.141 0.141h-2.565c-0.071 0-0.141-0.061-0.141-0.141v-6.811c0-0.08 0.07-0.141 0.141-0.141h0.855c0.07 0 0.141 0.061 0.141 0.141v3.038h1.016c0.08 0 0.141 0.071 0.141 0.151v0.855c0 0.081-0.061 0.151-0.141 0.151h-1.016v1.62z" fill="#f18700"/></g><g transform="translate(328.65 513.88)"><path d="m0 0c0.08 0 0.151 0.06 0.151 0.141v0.855c0 0.08-0.071 0.151-0.151 0.151h-1.771v2.042h1.006c0.081 0 0.151 0.071 0.151 0.151v0.845c0 0.081-0.07 0.151-0.151 0.151h-1.006v1.63h1.66c0.071 0 0.141 0.07 0.141 0.151v0.845c0 0.08-0.07 0.14-0.141 0.14h-2.655c-0.081 0-0.151-0.06-0.151-0.14v-6.821c0-0.081 0.07-0.141 0.151-0.141z" fill="#f18700"/></g><g transform="translate(332.88 513.89)"><path d="m0 0c0.08 0 0.151 0.06 0.151 0.141v6.821c0 0.08-0.071 0.14-0.151 0.14h-0.855c-0.081 0-0.141-0.06-0.141-0.14v-3.853l-1.308 3.893c-0.01 0.04-0.09 0.1-0.141 0.1h-0.744c-0.081 0-0.151-0.06-0.151-0.14v-6.821c0-0.081 0.07-0.141 0.151-0.141h0.845c0.08 0 0.141 0.06 0.141 0.141v3.762l1.308-3.812c0.01-0.031 0.09-0.091 0.14-0.091z" fill="#f18700"/></g><g transform="translate(336.84 513.88)"><path d="m0 0c0.08 0 0.151 0.06 0.151 0.141v0.855c0 0.08-0.071 0.151-0.151 0.151h-1.771v2.042h1.006c0.081 0 0.151 0.071 0.151 0.151v0.845c0 0.081-0.07 0.151-0.151 0.151h-1.006v1.63h1.66c0.071 0 0.141 0.07 0.141 0.151v0.845c0 0.08-0.07 0.14-0.141 0.14h-2.655c-0.081 0-0.151-0.06-0.151-0.14v-6.821c0-0.081 0.07-0.141 0.151-0.141z" fill="#f18700"/></g><g transform="translate(341.14 513.89)"><path d="m0 0c0.091 0 0.151 0.05 0.151 0.121 0 0.04-0.221 0.724-0.463 1.458-0.241 0.725-0.493 1.469-0.553 1.64 0.503 0.342 0.744 0.815 0.744 1.388v0.866c0 0.905-0.613 1.629-1.539 1.629h-1.589c-0.081 0-0.151-0.06-0.151-0.14v-6.821c0-0.081 0.07-0.141 0.151-0.141h0.845c0.08 0 0.151 0.06 0.151 0.141v2.837h0.311l0.886-2.877c0.02-0.041 0.1-0.101 0.141-0.101zm-1.268 5.513v-0.946c0-0.221-0.13-0.442-0.392-0.442h-0.593v1.831h0.593c0.272 0 0.392-0.222 0.392-0.443" fill="#f18700"/></g><g transform="translate(347.74 513.89)"><path d="m0 0c0.09 0 0.141 0.04 0.141 0.121 0 0.05-0.292 0.976-0.614 1.951-0.322 0.966-0.654 1.972-0.714 2.173 0.06 0.151 0.342 0.795 0.614 1.429 0.271 0.634 0.513 1.237 0.513 1.318 0 0.08-0.051 0.11-0.151 0.11h-0.855c-0.031 0-0.121-0.05-0.131-0.08l-0.875-2.324v2.264c0 0.08-0.071 0.14-0.141 0.14h-0.855c-0.071 0-0.141-0.06-0.141-0.14v-6.821c0-0.081 0.07-0.141 0.141-0.141h0.855c0.07 0 0.141 0.06 0.141 0.141v2.434l0.161 0.363 0.925-2.847c0.01-0.041 0.091-0.091 0.131-0.091z" fill="#f18700"/></g><g transform="translate(351.9 513.89)"><path d="m0 0c0.081 0 0.151 0.05 0.151 0.131 0 0.01-0.01 0.03-0.01 0.04l-1.278 6.821c-0.02 0.05-0.09 0.11-0.151 0.11h-0.845c-0.06 0-0.131-0.06-0.141-0.11l-1.277-6.821v-0.04c0-0.081 0.06-0.131 0.141-0.131h0.804c0.111 0 0.181 0.121 0.212 0.252 0.08 0.402 0.141 0.804 0.221 1.237h0.946c0.07-0.443 0.141-0.845 0.221-1.247 0.02-0.131 0.101-0.242 0.201-0.242zm-1.71 4.829 0.342-2.284h-0.674z" fill="#f18700"/></g><g transform="translate(356 513.89)"><path d="m0 0c0.081 0 0.151 0.06 0.151 0.141v6.821c0 0.08-0.07 0.14-0.151 0.14h-0.855c-0.081 0-0.141-0.06-0.141-0.14v-3.853l-1.308 3.893c-0.01 0.04-0.09 0.1-0.141 0.1h-0.744c-0.081 0-0.151-0.06-0.151-0.14v-6.821c0-0.081 0.07-0.141 0.151-0.141h0.845c0.081 0 0.141 0.06 0.141 0.141v3.762l1.308-3.812c0.01-0.031 0.09-0.091 0.141-0.091z" fill="#f18700"/></g><g transform="translate(360.32 513.89)"><path d="m0 0c0.08 0 0.151 0.05 0.151 0.131 0 0.01-0.01 0.03-0.01 0.04l-1.278 6.821c-0.02 0.05-0.09 0.11-0.151 0.11h-0.845c-0.06 0-0.131-0.06-0.141-0.11l-1.277-6.821v-0.04c0-0.081 0.06-0.131 0.141-0.131h0.804c0.111 0 0.182 0.121 0.212 0.252 0.08 0.402 0.14 0.804 0.221 1.237h0.946c0.07-0.443 0.14-0.845 0.221-1.247 0.02-0.131 0.101-0.242 0.201-0.242zm-1.71 4.829 0.342-2.284h-0.674z" fill="#f18700"/></g><g transform="translate(364.01 513.89)"><path d="m0 0c0.081 0 0.151 0.06 0.151 0.141v0.845c0 0.08-0.07 0.151-0.151 0.151h-1.771v5.825c0 0.08-0.07 0.14-0.15 0.14h-0.845c-0.081 0-0.151-0.06-0.151-0.14v-6.821c0-0.081 0.07-0.141 0.151-0.141z" fill="#f18700"/></g><g transform="translate(369.35 513.89)"><path d="m0 0c0.926 0 1.529 0.825 1.529 1.72v3.652c0 0.895-0.603 1.72-1.529 1.72h-1.6c-0.07 0-0.14-0.06-0.14-0.14v-6.811c0-0.081 0.07-0.141 0.14-0.141zm0.382 5.513v-3.934c0-0.221-0.12-0.442-0.382-0.442h-0.604v4.819h0.604c0.262 0 0.382-0.222 0.382-0.443" fill="#0092cf"/></g><g transform="translate(374.69 513.88)"><path d="m0 0c0.08 0 0.151 0.06 0.151 0.141v0.855c0 0.08-0.071 0.151-0.151 0.151h-1.771v2.042h1.006c0.081 0 0.151 0.071 0.151 0.151v0.845c0 0.081-0.07 0.151-0.151 0.151h-1.006v1.63h1.66c0.071 0 0.141 0.07 0.141 0.151v0.845c0 0.08-0.07 0.14-0.141 0.14h-2.656c-0.08 0-0.15-0.06-0.15-0.14v-6.821c0-0.081 0.07-0.141 0.15-0.141z" fill="#0092cf"/></g><g transform="translate(377.24 513.79)"><path d="m0 0c1.137 0 1.851 0.936 1.851 2.032 0 0.845-0.593 1.509-1.197 2.062-0.302 0.282-0.614 0.534-0.835 0.775-0.231 0.231-0.402 0.453-0.402 0.684 0 0.382 0.221 0.604 0.603 0.604 0.252 0 0.352-0.151 0.433-0.292 0.01-0.03 0.03-0.06 0.05-0.091 0.04-0.08 0.091-0.15 0.191-0.15 0.151 0 0.674 0.171 0.815 0.251 0.091 0.05 0.111 0.071 0.111 0.171 0 0.141-0.071 0.282-0.151 0.403-0.302 0.493-0.865 0.824-1.449 0.824-1.006 0-1.75-0.704-1.75-1.72 0-0.795 0.593-1.398 1.197-1.941 0.161-0.141 0.312-0.272 0.453-0.403 0.14-0.12 0.281-0.251 0.392-0.382 0.231-0.252 0.392-0.513 0.392-0.795 0-0.412-0.191-0.905-0.704-0.905-0.292 0-0.523 0.12-0.674 0.372-0.03 0.04-0.04 0.08-0.05 0.121-0.01 0.03-0.02 0.06-0.041 0.1-0.04 0.091-0.07 0.111-0.171 0.111-0.14 0-0.694-0.171-0.824-0.242-0.091-0.05-0.111-0.07-0.111-0.18 0-0.151 0.07-0.312 0.161-0.453 0.352-0.594 1.026-0.956 1.71-0.956" fill="#0092cf"/></g><g transform="translate(381.38 513.79)"><path d="m0 0c1.137 0 1.851 0.936 1.851 2.032 0 0.845-0.593 1.509-1.197 2.062-0.302 0.282-0.614 0.534-0.835 0.775-0.231 0.231-0.402 0.453-0.402 0.684 0 0.382 0.221 0.604 0.603 0.604 0.252 0 0.352-0.151 0.433-0.292 0.01-0.03 0.03-0.06 0.05-0.091 0.04-0.08 0.091-0.15 0.191-0.15 0.151 0 0.674 0.171 0.815 0.251 0.091 0.05 0.111 0.071 0.111 0.171 0 0.141-0.071 0.282-0.151 0.403-0.302 0.493-0.865 0.824-1.449 0.824-1.006 0-1.75-0.704-1.75-1.72 0-0.795 0.593-1.398 1.197-1.941 0.161-0.141 0.312-0.272 0.453-0.403 0.14-0.12 0.281-0.251 0.392-0.382 0.231-0.252 0.392-0.513 0.392-0.795 0-0.412-0.191-0.905-0.704-0.905-0.292 0-0.523 0.12-0.674 0.372-0.03 0.04-0.04 0.08-0.05 0.121-0.01 0.03-0.02 0.06-0.041 0.1-0.04 0.091-0.07 0.111-0.171 0.111-0.14 0-0.694-0.171-0.825-0.242-0.09-0.05-0.11-0.07-0.11-0.18 0-0.151 0.07-0.312 0.161-0.453 0.352-0.594 1.026-0.956 1.71-0.956" fill="#0092cf"/></g><g transform="translate(387.21 513.89)"><path d="m0 0c0.08 0 0.151 0.05 0.151 0.131 0 0.01-0.01 0.03-0.01 0.04l-1.278 6.821c-0.02 0.05-0.09 0.11-0.151 0.11h-0.845c-0.06 0-0.131-0.06-0.141-0.11l-1.277-6.821v-0.04c0-0.081 0.06-0.131 0.141-0.131h0.804c0.111 0 0.182 0.121 0.212 0.252 0.08 0.402 0.141 0.804 0.221 1.237h0.946c0.07-0.443 0.141-0.845 0.221-1.247 0.02-0.131 0.101-0.242 0.201-0.242zm-1.71 4.829 0.342-2.284h-0.674z" fill="#0092cf"/></g><g transform="translate(389.54 513.79)"><path d="m0 0c0.996 0 1.64 0.755 1.64 1.73v5.322c0 0.071-0.071 0.141-0.141 0.141h-0.865c-0.071 0-0.141-0.07-0.141-0.141v-5.322c0-0.291-0.121-0.623-0.493-0.623s-0.493 0.332-0.493 0.623v5.322c0 0.071-0.07 0.141-0.141 0.141h-0.855c-0.07 0-0.141-0.07-0.141-0.141v-5.322c0-0.975 0.634-1.73 1.63-1.73" fill="#0092cf"/></g><g transform="translate(358.54 533.93)"><path d="m0 0c0.871 1.197 1.834 2.465 2.892 3.759 1.592 1.947 2.836 3.227 4.254 4.846l-1.948 3.036c-2.573 0.712-4.565 1.247-6.803 1.954-0.844 0.266-1.569 1.013-1.303 1.856 0.25 0.791 1.103 1.065 1.938 0.875l7.397-1.121 2.708 0.654 12.032 4.447c1.001 0.488 1.706 0.192 2.1-0.559 0.398-0.756-0.031-1.682-0.754-2.057-2.422-1.254-7.826-3.847-9.829-4.773 0.627-1.073 1.979-3.609 1.979-3.609 1.318-1.776 2.063-3.033 3.462-4.746 1.795-2.196 3.291-3.24 5.066-5.217 0.723-0.804 1.089-1.633 0.495-2.493-0.543-0.787-1.949-0.418-2.67 0.188-1.538 1.292-3.199 2.374-5.098 4.066-1.934 1.722-2.68 2.738-4.571 4.507-2.161-1.539-3.325-2.499-5.246-4.328-0.966-0.92-1.816-1.864-2.589-2.789 0 0 7.87-2.91 13.141-4.727 1.129-0.389 1.848-0.468 3.04-0.379 1.151 0.087 1.997 0.328 2.855 0.782 1.826 0.965 2.898 2.78 3.242 5.117 1.454 9.881 3.103 21.977 3.103 21.977 0.54 3.271-0.485 5.977-2.497 7.556-0.965 0.757-2.134 1.229-3.426 1.383-1.237 0.147-2.572 0-3.935-0.459l-19.243-6.471c-0.961-0.323-1.767-1.25-2.306-2.449-0.513-1.138-0.795-2.546-0.753-3.991l0.326-11.268c0.07-2.431 1.317-4.858 2.941-5.567m-3.298-6.89c-0.701 0.763-0.166 1.895 0.334 2.635 0.719 1.061 1.553 2.29 2.506 3.621-1.678 0.809-2.964 3.374-3.048 5.923l-0.391 11.966c-0.051 1.543 0.237 3.055 0.766 4.287 0.559 1.302 1.402 2.325 2.416 2.705l21.346 7.995c1.593 0.597 3.16 0.839 4.621 0.739 1.534-0.105 2.926-0.586 4.078-1.412 2.415-1.731 3.627-4.831 2.927-8.644 0 0-1.818-12.837-3.971-24.944-0.354-1.592-0.547-2.493-1.246-3.45-0.674-0.922-1.575-1.637-2.618-2.123-0.996-0.465-2.114-0.716-3.287-0.744-1.116-0.026-2.281 0.151-3.445 0.54l-14.74 5.607c-1.245-1.543-2.301-3.004-3.358-4.177-0.979-1.088-2.114-1.367-2.89-0.524m5.947 26.458c0.032 1.921 1.617 3.451 3.538 3.417s3.452-1.619 3.419-3.541c-0.033-1.921-1.617-3.451-3.538-3.417-1.922 0.034-3.452 1.619-3.419 3.541" fill="#0092cf"/></g><g transform="translate(358.61 533.98)"><path d="m0 0c0.867 1.192 1.825 2.454 2.878 3.743 1.584 1.938 2.822 3.213 4.233 4.825l-1.939 3.022c-2.56 0.709-4.542 1.242-6.77 1.946-0.839 0.265-1.561 1.009-1.295 1.849 0.248 0.787 1.097 1.06 1.928 0.871l7.361-1.117 2.694 0.652 11.973 4.428c0.997 0.485 1.698 0.19 2.09-0.557 0.396-0.753-0.031-1.675-0.75-2.048-2.411-1.249-7.788-3.83-9.781-4.753 0.623-1.068 1.969-3.594 1.969-3.594 1.312-1.768 2.053-3.019 3.445-4.724 1.786-2.187 3.275-3.226 5.041-5.195 0.719-0.801 1.083-1.626 0.493-2.482-0.54-0.784-1.94-0.416-2.657 0.186-1.531 1.287-3.184 2.364-5.073 4.049-1.925 1.715-2.667 2.727-4.549 4.488-2.15-1.532-3.309-2.489-5.22-4.31-0.961-0.916-1.807-1.855-2.576-2.777 0 0 7.831-2.897 13.076-4.706 1.124-0.387 1.839-0.467 3.025-0.377 1.145 0.086 1.987 0.326 2.841 0.778 1.817 0.961 2.884 2.768 3.226 5.095 1.447 9.839 3.088 21.882 3.088 21.882 0.537 3.257-0.482 5.951-2.485 7.523-0.96 0.754-2.123 1.225-3.409 1.378-1.231 0.146-2.559-1e-3 -3.915-0.457l-19.149-6.444c-0.956-0.321-1.759-1.244-2.295-2.438-0.51-1.133-0.791-2.535-0.749-3.974l0.324-11.219c0.07-2.421 1.311-4.837 2.927-5.543m-3.281-6.86c-0.698 0.759-0.166 1.887 0.332 2.623 0.715 1.057 1.545 2.28 2.493 3.605-1.67 0.806-2.949 3.361-3.032 5.898l-0.39 11.915c-0.051 1.536 0.236 3.041 0.762 4.268 0.557 1.296 1.396 2.315 2.405 2.693l21.241 7.961c1.585 0.594 3.144 0.835 4.598 0.736 1.526-0.105 2.912-0.584 4.058-1.406 2.403-1.724 3.609-4.81 2.913-8.607 0 0-1.809-12.782-3.952-24.836-0.353-1.586-0.544-2.483-1.24-3.435-0.671-0.918-1.567-1.63-2.605-2.115-0.991-0.462-2.104-0.712-3.271-0.74-1.111-0.026-2.27 0.15-3.427 0.538l-14.669 5.582c-1.239-1.536-2.289-2.99-3.341-4.159-0.974-1.082-2.104-1.36-2.875-0.521m5.917 26.343c0.032 1.913 1.609 3.436 3.52 3.402 1.912-0.034 3.435-1.612 3.403-3.525-0.033-1.913-1.61-3.436-3.521-3.402-1.912 0.034-3.435 1.612-3.402 3.525" fill="#0092cf"/></g></g></g></g></svg>
