<svg width="190.76pt" height="188.86pt" version="1.1" viewBox="0 0 190.76 188.86" xmlns="http://www.w3.org/2000/svg">
 <g transform="translate(-19.111 -3.055)" fill="#317cf1">
  <path d="m106.27 3.37c16.62-1.35 33.55 1.66 48.7 8.64 21.22 9.82 38.67 27.72 47.59 49.38 6.99 17.1 9.37 36.31 5.37 54.44-4.62 24.56-19.85 46.71-40.72 60.34-24.82 16.59-57.54 20.3-85.54 10.03-26.92-9.6-49.03-32.01-57.8-59.27-6.16-18.45-6.36-38.8-0.48-57.35 7-23.1 23.57-42.93 44.64-54.58 11.71-6.58 24.91-10.27 38.24-11.63m1.99 13.97c-23.82 2-46.86 14.64-60.41 34.49-8.85 12.97-14.27 28.42-14.59 44.18-0.37 18.92 6.64 37.66 18.45 52.33 13.97 17.06 35.27 27.72 57.19 29.38 18.43 1.37 37.03-4.21 52.22-14.59 26.46-18.03 40.33-53.1 32.22-84.26-4.41-16.87-13.86-32.64-27.59-43.54-16.09-12.74-36.94-19.68-57.49-17.99z"/>
  <path d="m104.52 25.82c10.26-2.16 21.72-0.96 30.44 5.21 12.07 8.52 17.4 24.96 13.57 39.08-2.55 10.81-10.42 20.43-20.97 24.22-12.42 4.25-27.73 3.02-37.62-6.28-6.92-6.31-10.15-15.76-10.55-24.94-0.36-8.52 1.27-17.42 6.14-24.56 4.37-6.5 11.36-11.07 18.99-12.73m4.7 18.39c-5.07 1.09-9.67 4.12-12.66 8.36-3.66 5.29-3.18 13 1.08 17.82 8.28 9.9 25.48 9.95 33.81 0.1 4.03-4.51 4.86-11.52 1.87-16.79-4.7-8.17-15.17-11.62-24.1-9.49z"/>
  <path d="m76.4 109.42c1.81-3.52 5.62-5.95 9.62-5.73h56.97c5.64-0.4 10.94 4.62 10.79 10.28 0.35 4.44-2.69 8.67-6.75 10.25-6.02 0.42-12.06-0.07-18.08 0.25 3.22 5.41 8.53 9.16 12.75 13.77 5.55 4.68 6.1 13.72 2.17 19.57-2.05 2.85-6.24 4.99-9.49 2.78-6.05-4.24-11.04-9.81-17.01-14.15-2.5-1.79-6.06-1.47-8.38 0.46-5.4 4.23-10.2 9.18-15.6 13.4-4.37 3.29-9.97-0.92-11.43-5.31-1.61-5.31-1.4-12.04 2.97-16.02 4.9-4.86 9.79-9.72 14.67-14.59-5.85-0.15-11.72 0.24-17.56-0.17-5.72-2.11-8.5-9.41-5.64-14.79z"/>
 </g>
</svg>
