<svg width="566.47" height="800" version="1.1" viewBox="0 0 149.88 211.67" xmlns="http://www.w3.org/2000/svg">
 <g transform="translate(19.075 59.916)">
  <g fill="#719bcb">
   <path d="m22.856 109.24c-5.9417 0-9.5402 3.834-9.5402 9.6196 0 5.2634 3.3951 9.2766 9.1563 9.2766 5.7305 0 9.5658-3.907 9.5658-9.6426 0-5.5245-3.6792-9.2536-9.1819-9.2536zm-0.13053 16.222c-3.674 0-5.5795-2.6477-5.5795-6.8592 0-4.0119 2.0578-6.6852 5.4528-6.6852 3.4974 0 5.6039 2.4916 5.6039 6.8375 0 4.1104-2.3137 6.707-5.4772 6.707"/>
   <path d="m45.256 123.56-3.7803-5.4452 3.1634-5.1943c1.1031-1.7993 2.1589-2.8038 2.9561-3.1123v-0.0512h-5.6589v0.0512c0.41463 0.77295 0.07678 1.4653-0.56563 2.5722l-1.8249 3.1378-1.9554-3.2645c-0.59123-1.0058-0.84845-1.6726-0.69232-2.4455v-0.0512h-5.9929v0.0512c1.0263 0.59123 1.6176 1.2119 2.315 2.2382l4.0631 6.0684-3.9876 6.1413c-1.0558 1.6188-2.2881 2.9062-3.1878 3.3157v0.0512h6.0684v-0.0512c-0.40951-0.28281-0.59123-1.0519 0.15612-2.2638l2.8294-4.6031 2.6221 4.0669c1.0519 1.6176 1.6188 2.6989 1.6188 3.4168l5.3761-0.94954v-0.0512c-0.89964-0.59123-2.2894-1.8249-3.523-3.628"/>
   <path d="m57.035 109.24c-5.9417 0-9.5441 3.834-9.5441 9.6196 0 5.2634 3.3951 9.2766 9.1563 9.2766 5.7344 0 9.5658-3.907 9.5658-9.6426 0-5.5245-3.6753-9.2536-9.1781-9.2536zm-0.13053 16.222c-3.6779 0-5.5795-2.6477-5.5795-6.8592 0-4.0119 2.0578-6.6852 5.4528-6.6852 3.4974 0 5.6039 2.4916 5.6039 6.8375 0 4.1104-2.3137 6.707-5.4772 6.707"/>
   <path d="m80.795 109.55c-1.1825 0.15613-2.2638 0.20603-3.5218 0.20603h-6.2757c-1.2592 0-2.3406-0.0512-3.523-0.20603l-0.43894 4.7081 0.05119 0.0256c0.59123-1.0302 1.8031-1.9042 3.3452-1.9042h1.9541v11.18c0 2.187-0.82285 3.5768-1.5702 4.0119v0.0512h6.6596v-0.0512c-0.84461-0.4351-1.5664-1.7993-1.5664-4.0119v-11.18h1.9298c1.5421 0 2.7501 0.87404 3.3413 1.9042l0.05375-0.0256z"/>
   <path d="m96.071 123.41-3.7803-10.588c-0.54004-1.5165-0.02559-2.5722 0.4607-3.0112v-0.0512h-6.8119v0.0512c0.48885 0.41335 0.97514 1.4947 0.4607 3.0112l-3.6753 10.588c-0.69616 1.981-1.8031 3.5474-2.4954 4.1642v0.0512h5.4017v-0.0512c-0.3596-0.33272-0.61682-1.3885 0.04991-3.1634l0.23291-0.61554h6.634l0.23291 0.61554c0.64241 1.775 0.4351 2.8307 0 3.1634v0.0512h5.8112v-0.0512c-0.72176-0.59122-1.8287-2.1832-2.521-4.1642zm-9.3086-2.1358 0.95082-2.7245c0.59123-1.6649 1.208-3.3887 1.4397-5.3697h0.10238c0.25722 1.981 0.89964 3.7048 1.4934 5.3697l0.95082 2.7245z"/>
   <path d="m20.129 139.2c0 4.1898-2.3918 6.1708-6.4792 6.1708h-2.1077v2.1333c0 2.0309 0.71792 3.2684 1.3859 3.7035v0.0512h-6.2975v-0.0512c0.64241-0.4351 1.3859-1.6982 1.3859-3.8059v-10.258c0-2.0322-0.7192-3.2646-1.3859-3.7035v-0.0512h7.0192c4.0874 0 6.4792 2.1077 6.4792 5.8112zm-3.6497 0.18172c0-2.3688-1.0814-3.4463-3.4207-3.4463h-1.5165v6.8631l1.5165 0.0256c2.3649 0.0256 3.4207-1.2336 3.4207-3.4424"/>
   <path d="m28.153 151.26h-7.0192v-0.0512c0.66673-0.4351 1.3885-1.6726 1.3885-3.7035v-10.259c0-2.1077-0.74735-3.3656-1.3885-3.8046v-0.0512h6.3v0.0512c-0.67057 0.43894-1.3885 1.6713-1.3885 3.7035v2.1333h2.1077c4.0874 0 6.4779 1.9797 6.4779 6.1695 0 3.7035-2.3905 5.8112-6.4779 5.8112zm-0.59123-9.4353-1.5165 0.0256v6.8669h1.5165c2.3393 0 3.4207-1.0801 3.4207-3.4463 0-2.2126-1.0558-3.4706-3.4207-3.4463"/>
   <path d="m50.053 139.28h-2.1115v-2.1371c0-0.63474-0.07294-3.4066 0.37752-3.7035l1.011-0.0512h-6.3v0.0512c0.42358 0.2905 0.88812 0.93163 1.1569 1.9439 0.0077 0.0128 0.01408 0.0384 0.02175 0.064 0.12669 0.50037 0.20987 1.107 0.20987 1.7954v10.259c0 2.0309-0.71792 3.2684-1.3885 3.7035v0.0512h7.023c4.0874 0 6.4779-2.1077 6.4779-5.8112 0-4.1898-2.3905-6.1695-6.4779-6.1695zm-0.59251 9.4379h-1.519v-6.8669l1.519-0.0256c2.3662-0.0256 3.4219 1.2336 3.4219 3.4463 0 2.3662-1.0814 3.4463-3.4219 3.4463"/>
   <path d="m74.889 151.21v0.0512h-5.8112v-0.0512c0.4351-0.334 0.64241-1.3898 0-3.1634l-0.23163-0.61682h-6.6353l-0.22779 0.61682c-0.67185 1.7737-0.41335 2.8294-0.05503 3.1634v0.0512h-5.3978v-0.0512c0.6936-0.61682 1.7993-2.1845 2.4929-4.1642l3.6779-10.596c0.51444-1.5164 0.02559-2.594-0.46454-3.0073v-0.0512h6.8157v0.0512c-0.48885 0.43894-1.0046 1.4909-0.46326 3.0073l3.779 10.596c0.69616 1.9797 1.7993 3.573 2.521 4.1642zm-10.875-9.0258-0.95338 2.7283h4.9358l-0.94955-2.7283c-0.59123-1.6726-1.2336-3.3912-1.4909-5.3722h-0.10494c-0.22907 1.981-0.84589 3.6996-1.4371 5.3722"/>
   <path d="m91.769 147.05-3.7803-10.596c-0.54004-1.5164-0.02559-2.5722 0.46454-3.0112v-0.0512h-6.8157v0.0512c0.48885 0.41335 0.97898 1.4947 0.46454 3.0112l-3.6792 10.596c-0.69232 1.9797-1.7993 3.5474-2.4954 4.1642v0.0512h5.4017v-0.0512c-0.3596-0.334-0.61682-1.3898 0.05119-3.1634 0 0 3.2428-9.2574 3.4706-11.238h0.10494c0.2585 1.981 3.523 11.238 3.523 11.238 0.64241 1.7737 0.4351 2.8294 0 3.1634v0.0512h5.8112v-0.0512c-0.71792-0.59122-1.8249-2.1845-2.521-4.1642"/>
   <path d="m101.52 151.21v0.0512h-6.1708v-0.0512c0.64241-0.4351 1.3898-1.6982 1.3898-3.8059v-10.258c0-2.0322-0.72304-3.2646-1.3898-3.7035v-0.0512h6.1708v0.0512c-0.59123 0.43894-1.2592 1.6969-1.2592 3.8046v10.183c0 2.1077 0.66801 3.3452 1.2592 3.7803zm10.646-0.38519v0.0512l-5.1688 0.87404c-0.15613-0.59123-0.66801-1.5676-1.2592-2.4417l-5.1943-7.7154 4.3459-6.1452c0.64241-0.92523 0.87404-1.5664 0.84844-2.0565h5.3479v0.0512c-1.0814 0.51445-2.2139 1.7225-3.0329 2.8538l-3.628 4.9128 4.8859 7.1459c0.87532 1.2874 1.5932 1.9554 2.855 2.4698"/>
   <path d="m130.8 151.21v0.0512h-5.8124v-0.0512c0.43894-0.334 0.64625-1.3898 0-3.1634l-0.22779-0.61682h-6.6353l-0.23163 0.61682c-0.66801 1.7737-0.40951 2.8294-0.0512 3.1634v0.0512h-5.4016v-0.0512c0.69744-0.61682 1.7993-2.1845 2.4967-4.1642l3.674-10.596c0.51572-1.5164 0.0294-2.594-0.4607-3.0073v-0.0512h6.8132v0.0512c-0.48629 0.43894-1.002 1.4909-0.46069 3.0073l3.779 10.596c0.6936 1.9797 1.7993 3.573 2.5185 4.1642zm-10.876-9.0258-0.94954 2.7283h4.9371l-0.95466-2.7283c-0.59123-1.6726-1.2336-3.3912-1.4909-5.3722h-0.10109c-0.23291 1.981-0.84973 3.6996-1.441 5.3722"/>
   <path d="m-19.067 133.64h5.9379v0.0512c-0.66673 0.43638-1.3091 1.6687-1.3091 3.8059 0 0-0.05119 7.8932-0.46454 10.335 0 0 7.4082-13.498 7.6911-14.195h5.4234v0.0512c-0.66801 0.43638-1.3898 1.6943-1.3898 3.8059v10.153c0 2.1115 0.72176 3.3695 1.3898 3.8059v0.0512h-5.9391v-0.0512c0.66801-0.43638 1.3104-1.6687 1.3104-3.8059 0 0 0.049909-7.8677 0.41335-9.9254h-0.10494c-0.76911 1.981-6.0658 11.315-6.0658 11.315-0.84845 1.4141-1.0046 1.9554-1.0558 2.4698h-5.8368v-0.0512c0.95082-0.64242 1.3898-2.2856 1.3898-3.6753v-10.284c0-2.1115-0.74735-3.3695-1.3898-3.8059z"/>
   <path d="m39.032 137.15c0-2.0322 0.72176-3.2646 1.3898-3.7035v-0.0512h-6.3013v0.0512c0.64114 0.43894 1.3885 1.6969 1.3885 3.8046v10.216c0 2.0309-0.72176 3.2645-1.3885 3.7035v0.0512h6.3013v-0.0512c-0.64242-0.43894-1.3898-1.6982-1.3898-3.8059z"/>
   <path d="m56.429 133.39-0.01536 3.4936h-0.04991c-0.43254-0.67185-1.6649-1.3962-3.6971-1.4038l-4.5302-0.0115-1.313-6e-3 -2.6157-8e-3c-0.0077-0.0256-0.01408-0.0512-0.02175-0.064-0.26874-1.0122-0.73327-1.6534-1.1569-1.9439v-0.0512h13.4z"/>
  </g>
  <path d="m122.98 21.008-2.0782 7.2624-2.0539 7.16-31.041 3.3746-17.778 47.009c-3.7662 0.64881-7.636 0.98666-11.586 0.98666-18.74 0-35.709-7.604-47.985-19.897-0.09086-0.08958-0.18172-0.18556-0.26874-0.27642-5.06-5.339-9.1371-9.7284-12.467-19.045l1.8709 0.06398 57.717-29.093c-17.683 3.2684-26.709-8.4077-26.709-8.4077l30.772-10.746-18.021-8.7379-15.308-7.4262c-3.207-1.5523-6.3013-3.3221-9.2433-5.3249-0.30457-0.20987-0.59123-0.40951-0.84205-0.59123-1.3053-0.92907-2.5645-1.9157-3.7905-2.9382-1.4141-1.2004-6.0876-4.6364-10.839-11.855 1.8108-1.9183 3.7803-3.8046 5.7971-5.5104 2.0091 3.3157 9.5953 10.851 9.9459 11.151 3.4655 2.96 8.8338 2.141 11.017-1.8569 0.01536-0.0256 4.9768-7.9444 1.1607-21.581 2.0603-0.89196 3.9837-1.226 6.1388-1.9183 0.18428 0.66033 2.4442 5.3108 2.3214 11.684-0.10494 5.3837-0.94699 9.7156-4.4508 15.685-1.9234 3.2799-0.22139 7.549 3.4207 8.6342 2.2229 0.66033 4.502 1.1786 6.8337 1.5484 6.9719 1.1133 14.017-2.1358 17.659-8.1837 0.01792-0.03839 0.04351-0.07678 0.06527-0.11517 2.2241-3.7393 3.2466-7.9726 3.2466-12.652 0-3.5154-0.2457-12.022-8.7161-19.327 2.4123 0.11517 6.8592 0.13821 9.228 0.51188 0 0 6.6276 7.9265 6.4024 18.681-0.0755 3.6139-0.60914 7.0883-1.7378 10.325-0.88812 2.553-2.3393 4.9589-3.8199 7.16-0.72176 1.0737 0.27642 2.489 1.5062 2.1013 11.154-3.523 20.285-9.6567 27.144-18.283-2.2779-1.5049-4.639-2.8691-7.0806-4.0925 0.32633-0.38391 1.2695-1.4499 1.5779-1.8786 4.8719 2.2676 9.1422 5.3364 13.39 8.6483-0.40311 0.55795-1.107 1.487-1.5305 2.0271-0.38903 0.49397-0.78702 0.98026-1.1901 1.4627-0.47094 0.56179-0.95467 1.1172-1.4435 1.6611-10.669 11.844-25.828 19.553-42.805 20.445l65.571 32.148z" fill="#719bcb"/>
  <g fill="#2e3d6e">
   <path d="m69.351-21.129c-1.2413 0.36216-2.2241-1.0276-1.5062-2.1013 1.4806-2.2011 2.6848-4.607 3.5742-7.1574 1.1313-3.2351 1.7366-6.7108 1.7366-10.323 0-3.0687-0.43894-6.0287-1.2541-8.8326-0.27258-0.93675-0.59506-1.8581-0.95466-2.7578-1.0084-2.5466-2.3393-4.9333-3.9466-7.0947 9.8346 1.1057 19.124 4.0221 27.521 8.409 2.4059 1.2503 4.7272 2.6183 6.9693 4.1028-7.9188 14.593-21.291 22.58-32.14 25.755"/>
   <path d="m66.749-40.711c0 4.6761-1.2797 9.0399-3.5077 12.78-0.02175 0.03839-0.04351 0.07678-0.06527 0.11517-3.6421 6.0518-10.687 9.3009-17.659 8.1876-2.3316-0.36984-4.6108-0.89196-6.8298-1.5523-3.6459-1.0814-5.3479-5.3543-3.4245-8.6329 0.19196-0.32377 0.37624-0.65393 0.55795-0.98666 2.3867-4.4304 3.7406-9.498 3.7406-14.88 0-0.92139-0.03967-1.8364-0.12029-2.7386-0.07294-0.85613-0.17788-1.7059-0.32249-2.5402-0.366-2.1538-0.94315-4.2358-1.7263-6.2207 6.4933-1.7558 13.323-2.6989 20.372-2.7245h0.0077c2.2344 1.8761 4.1309 4.1168 5.5962 6.6455h0.01152c0.49653 0.84973 0.93547 1.7378 1.3271 2.6592 1.3143 3.0368 2.0424 6.3768 2.0424 9.8922"/>
   <path d="m33.155-45.684c0 4.3165-1.0993 8.3834-3.0227 11.923-0.01024 0.02559-0.02431 0.05119-0.03583 0.07678-2.1832 3.9978-7.5554 4.8168-11.021 1.8607-0.35448-0.30457-0.70256-0.60914-1.0519-0.92523-1.1415-1.0148-2.2408-2.0885-3.2901-3.2031-0.58355-0.6053-1.1453-1.24-1.6969-1.8786-0.94699-1.107-1.8505-2.2459-2.7066-3.4283-0.41719-0.56179-0.81646-1.1389-1.2004-1.7161 0.44662-0.35832 0.90348-0.71024 1.368-1.0481 1.6892-1.2797 3.4271-2.4916 5.2225-3.6267 0.81646-0.51188 1.6329-1.0199 2.475-1.4985 4.1245-2.4199 8.4947-4.4687 13.058-6.1132 0.82029 1.9746 1.3974 4.0784 1.6841 6.2655 0.11262 0.8638 0.18428 1.7378 0.20987 2.626 0.0077 0.23291 0.0077 0.45686 0.0077 0.68976"/>
   <path d="m30.609 10.151 30.768-10.746-18.021-8.7379-15.308-7.4262c-3.2031-1.5561-6.3013-3.3221-9.2433-5.3287-0.30457-0.20987-0.59123-0.40567-0.84205-0.59123-1.3053-0.92523-2.5645-1.9119-3.7867-2.9382-1.894-1.5996-3.6856-3.2978-5.3761-5.1073-0.57715-0.61682-1.1466-1.2413-1.6982-1.8825-1.3347-1.5536-2.6004-3.175-3.7687-4.8616-13.85 13.916-22.408 33.098-22.408 54.279 0 6.4856 0.80238 12.787 2.315 18.805 0.68592 2.7245 3.555 4.273 6.2028 3.3336 5.5872-1.981 14.232-5.0638 15.58-5.3543 0.99817-0.07678 1.7161 0.92139 1.2874 1.8134-1.8709 3.857-5.4631 6.6391-8.9093 9.8269-0.87788 0.80878-0.46709 2.2638 0.71536 2.4775 0.49269 0.08958 0.98666 0.03839 1.4793-0.06399l57.717-29.089c-17.68 3.2684-26.705-8.4077-26.705-8.4077zm-36.152 2.0168c-0.77678 1.0878-1.9912 1.6905-3.2249 1.7481-0.334 0.0128-0.67185-0.01024-0.98666-0.07678-0.58099-0.10238-1.1287-0.3404-1.6252-0.70256-1.9016-1.3386-2.3291-3.9581-0.98026-5.8444 0.83181-1.1569 2.1371-1.7698 3.4501-1.7558 0.58099 0 1.1505 0.12797 1.6982 0.37368 0.22523 0.11517 0.46709 0.24314 0.68592 0.40311 1.8825 1.3386 2.3316 3.9607 0.98282 5.8547"/>
   <path d="m104.37-36.735c-0.48885 0.68848-1.0007 1.3603-1.5228 2.0271-0.38903 0.49013-0.78447 0.98026-1.1901 1.4627-0.47094 0.56179-0.95083 1.1133-1.4435 1.6611-10.665 11.844-25.828 19.553-42.805 20.445l65.575 32.148-2.0821 7.2624-2.0501 7.16-31.041 3.3746-17.782 47.005c-3.7662 0.65265-7.636 0.9905-11.583 0.9905-24.482 0-45.935-12.976-57.856-32.423v0.0026c6.9578 13.727 18.45 24.773 32.502 31.161 8.5433 3.8775 18.032 6.0402 28.023 6.0402 1.208 0 2.4084-0.03839 3.6024-0.08958 1.1095-0.06399 2.2088-0.14077 3.3042-0.25338 24.454-2.475 45.069-17.939 54.838-39.384 4.9653-9.8269 7.7627-20.939 7.7627-32.699 0-22.479-10.212-42.564-26.253-55.885"/>
  </g>
 </g>
</svg>
