<svg data-name="Ebene 1" version="1.1" viewBox="0 0 833.1 268.25" xmlns="http://www.w3.org/2000/svg">
 <path d="m395.91 174.83h22.037a21.74 21.74 0 0 0 14.293-4.821 14.829 14.829 0 0 0 5.854-11.881 17.5 17.5 0 0 0-4.65-12.4 14.02 14.02 0 0 0-11.019-5.166h-22.212zm6.716-53.722h13.946a20.631 20.631 0 0 0 13.087-4.3q5.51-4.308 5.51-10.5a14.984 14.984 0 0 0-4.133-10.5 12.925 12.925 0 0 0-9.816-4.477h-14.979zm51.31 13.6q7.922 7.405 7.922 19.285a38.853 38.853 0 0 1-12.57 29.1q-12.572 12.052-30.651 12.052h-35.99a11.081 11.081 0 0 1-7.919-2.754q-2.928-2.755-2.927-7.748v-1.206l12.57-100.9a12 12 0 0 1 4.133-8.266 13.49 13.49 0 0 1 9.125-3.271h28.239q15.153 0 23.762 7.748 8.781 7.578 8.781 20.662a29.832 29.832 0 0 1-3.1 14.12 31.45 31.45 0 0 1-6.2 8.439 41.877 41.877 0 0 1-9.3 6.025q8.959 1.723 14.125 6.716z" fill="#b1b1b0" fill-rule="evenodd"/>
 <path d="m480.11 196.87a9.633 9.633 0 0 1-7.4-3.442 11.7 11.7 0 0 1-3.1-8.092l12.914-104a13.033 13.033 0 0 1 4.126-8.273 11.858 11.858 0 0 1 8.437-3.442 9.47 9.47 0 0 1 7.233 3.442 11.939 11.939 0 0 1 3.1 8.266l-12.916 104a12.828 12.828 0 0 1-3.959 8.266 11.8 11.8 0 0 1-8.435 3.275z" fill="#b1b1b0" fill-rule="evenodd"/>
 <path d="m521.26 91.84a7.818 7.818 0 0 1-6.2-3.1 11.439 11.439 0 0 1-2.583-7.575 9.3 9.3 0 0 1 3.445-7.06 11.7 11.7 0 0 1 8.092-3.1h64.053a7.691 7.691 0 0 1 6.2 3.271 10.771 10.771 0 0 1 2.753 7.4 9.633 9.633 0 0 1-3.442 7.4 11.934 11.934 0 0 1-8.266 2.927h-20.487l-11.537 93.163a13.015 13.015 0 0 1-4.133 8.266 11.583 11.583 0 0 1-8.263 3.268 9.648 9.648 0 0 1-7.406-3.439 11.715 11.715 0 0 1-3.1-8.1l11.537-93.325z" fill="#b1b1b0" fill-rule="evenodd"/>
 <polygon transform="translate(.00515 -.00056103)" points="724.96 70.931 630.39 70.931 630.39 83.352 670.64 83.352 670.64 195.15 684.72 195.15 684.72 83.352 724.96 83.352" fill="#b1b1b0" fill-rule="evenodd"/>
 <polygon transform="translate(.00515 -.00056103)" points="778.77 184.39 739.68 70.931 724.61 70.931 768.99 195.15 789.03 195.15 833.09 70.931 818.02 70.931 779.26 184.39" fill="#b1b1b0" fill-rule="evenodd"/>
 <rect x="24.724" y="24.638" width="310.7" height="218.87" rx="34.864" ry="34.864" fill="none" stroke="#b1b1b0" stroke-miterlimit="3.864" stroke-width="4.648"/>
 <rect x="73.041" y="93.434" width="77.115" height="77.115" fill="#c20e1a"/>
 <rect x="73.041" y="93.434" width="77.115" height="77.115" fill="none" stroke="#c20e1a" stroke-miterlimit="3.864" stroke-width=".827"/>
 <path d="m79.87 126.54c0-15.5 2.719-24.966 17.177-24.966h32.132c14.457 0 17.177 9.471 17.177 24.966v13.43c0 18.078-2.719 24.966-15.694 24.966h-35.1c-12.975 0-15.695-6.889-15.695-24.966zm-28.176 25.311c0 36.5 14.7 45.109 39.422 45.109h43.993c24.717 0 39.422-8.609 39.422-45.109v-37.191c0-36.5-14.7-45.109-39.422-45.109h-43.993c-24.717 0-39.422 8.607-39.422 45.109z" fill="#b1b1b0" fill-rule="evenodd"/>
 <polygon transform="translate(.00515 -.00056103)" points="218.51 147.72 230.62 147.72 270.17 195.58 308.97 195.58 254.84 131.88 303.29 70.924 265.97 70.924 231.36 116.72 218.51 116.72 218.51 70.924 191.08 70.924 191.08 195.58 218.51 195.58" fill="#b1b1b0" fill-rule="evenodd"/>
 <path d="m6.1572 55.706s0.017-0.7 0-1.124c-0.188-4.861 3.433-22.643 12.489-31.7s17.11-16.454 36.089-16.71l2.072-0.028" fill="none" stroke="#b1b1b0" stroke-miterlimit="3.864" stroke-width="12.29"/>
 <path d="m354.19 212.54s-0.016 0.7 0 1.124c0.188 4.861-3.433 22.643-12.489 31.7s-17.109 16.456-36.089 16.712l-2.072 0.028" fill="none" stroke="#b1b1b0" stroke-miterlimit="3.864" stroke-width="12.29"/>
</svg>
