<svg data-name="Ebene 1" version="1.1" viewBox="0 0 535.55 340.32" xmlns="http://www.w3.org/2000/svg">
 <path class="cls-1" d="m119 84.378c-25.9 0-42 19.65-42 43.13 0 25.23 17.27 42.54 42 42.54s42-17.31 42-42.54c-0.03-23.48-16.11-43.13-42-43.13z" fill="none"/>
 <path class="cls-2" d="m306.85 121.8 68.74-103.86h-87.16l-51.26 92.21 1.75-92.21h-77.84c46 14.71 77 54.14 77 108.39a139.35 139.35 0 0 1-1.05 17c0-0.24 0.08-0.47 0.11-0.71l0.07-0.1 53.04 90.43h92.71z" fill="#ea5160"/>
 <path class="cls-3" d="m161.08 17.938v216c2.29-0.7 4.63-1.55 6.84-2.37l1.85-0.7q2.64-1 5.2-2.17c0.5-0.21 1-0.42 1.48-0.64 2.07-0.95 4.1-2 6.08-3 0.56-0.3 1.11-0.62 1.66-0.93 1.5-0.84 3-1.7 4.43-2.6l1.79-1.13c1.87-1.21 3.71-2.46 5.49-3.78l0.6-0.47c1.62-1.23 3.19-2.5 4.73-3.81l1.47-1.28q2.1-1.86 4.1-3.84c0.29-0.28 0.59-0.55 0.87-0.84 1.61-1.63 3.15-3.31 4.64-5.05l0.83-1q1.89-2.26 3.66-4.65l0.8-1.07a102.22 102.22 0 0 0 7.53-12.23l0.52-1c1.09-2.14 2.13-4.33 3.09-6.57 1-2.37 1.93-4.8 2.78-7.29l0.21-0.63c0.76-2.26 1.44-4.56 2.07-6.9 0.07-0.3 0.16-0.59 0.23-0.88a123.32 123.32 0 0 0 3-15.73 139.35 139.35 0 0 0 1.05-17c-0.04-54.3-31.01-93.73-77-108.44z" fill="#9b4c8e"/>
 <path class="cls-4" d="m119 11.608c-68.17 0-119 45.19-119 114.72 0 71 50.57 113.55 119 113.55a143.67 143.67 0 0 0 42.08-5.94v-216a138.1 138.1 0 0 0-42.08-6.33zm0 158.44c-24.71 0-42-17.31-42-42.54 0-23.48 16.08-43.13 42-43.13s42 19.65 42 43.13c-0.03 25.23-17.3 42.54-42 42.54z" fill="#34669a"/>
 <g transform="translate(-30.75 -40.522)" fill="#1d1d1b">
  <path d="m459.67 57.4h5.73l10.87 44.39 22.44-40.08a42.8 42.8 0 0 0-71-4.31h32z"/>
  <path d="m423.42 64.24a42.77 42.77 0 0 0 6 47.11l7.46-47.11z"/>
  <path d="m473.29 120.57-14.29-56.33h-14.66l-8.42 53.15h-0.1a42.81 42.81 0 0 0 66.5-47.73z"/>
 </g>
 <path class="cls-5" d="m413.59 23.718h14.66l14.34 56.33 29-50.91a42.29 42.29 0 0 0-3.61-7.95l-22.44 40.08-10.89-44.39h-37.72a41.86 41.86 0 0 0-4.26 6.84h13.44l-7.46 47.11a43.18 43.18 0 0 0 6.42 6h0.1z" fill="#fff"/>
 <g transform="translate(-30.75 -40.522)" fill="#1d1d1b">
  <path class="cls-6" d="m48.74 312.43v54.82h13.93v12.5h-27.23v-67.32z"/>
  <path class="cls-6" d="m82.58 312.43v43.57c0 5.09-0.62 12.77 6.61 12.77 6.52 0 6.52-4.91 6.61-9.91v-46.43h13.3v49.11c0 7.14-0.8 19.28-20 19.28-12.41 0-19.82-5.8-19.82-18.39v-50z"/>
  <path class="cls-6" d="m119.1 379.75v-67.32h10.09c2.32 0 30.18-3.4 30.18 34.2 0 19.19-7.41 33.12-28.4 33.12zm27-33.21c0-8.58-2.67-22.15-13.66-22.15v43.4c10.68 0.53 13.62-12.86 13.62-21.25z"/>
  <path class="cls-6" d="m176.87 312.43 5.71 32.14c0.81 4.73 1 9.56 1.43 14.29h0.18c0.63-4.73 1-9.56 2-14.29l6.7-32.14h10.54l8.57 46.43h0.18c0.45-4.73 0.54-9.38 1.34-14.11l5.27-32.32h13.93l-13.93 67.32h-11.56l-6.88-35.54c-0.44-4.1-1.25-8.21-1.87-12.32h-0.18c-0.72 4.11-1.16 8.22-2.14 12.32l-7.68 35.54h-11.61l-13.57-67.32z"/>
  <path class="cls-6" d="m252.32 312.43v67.32h-13.32v-67.32z"/>
  <path class="cls-6" d="m305.89 342.25v5.27c0 14.29-3.48 33.3-21.61 33.3s-24-19.46-24-34.37c0-15.54 5-35.1 24-35.1 10.27 0 17 6.43 19.82 16l-12.94 5c-0.63-3.4-1.7-8.66-6.79-8.66-9-0.54-9.91 16.07-9.91 22.41 0 7 0.45 22.41 10.27 22.41 6.78 0 7.86-9.11 7.86-13.75h-8.49v-12.5z"/>
  <path class="cls-6" d="m341.51 327.6c-2.67-2.32-6-4.28-9.64-4.28-4.11 0-6.7 2.5-6.7 6.61 0 11.07 20.27 11.69 20.27 29.91 0 12-6.87 21-19.37 21a20.66 20.66 0 0 1-11.43-3.39v-12.7c3.12 2.15 6.16 3.57 10.09 3.57 4.28 0 7.68-2.85 7.68-7.32 0-5.18-4.11-7.14-7.86-9.82-7.68-5.18-12.41-10.18-12.41-20 0-10.63 6.16-19.83 17.59-19.83a22.82 22.82 0 0 1 11.78 3.31z"/>
  <path class="cls-6" d="m367.32 312.43v26.34h13.48v-26.34h13.3v67.32h-13.3v-28.48h-13.48v28.48h-13.32v-67.32z"/>
  <path class="cls-6" d="m430.09 312.43 16.16 67.32h-14.2l-2.5-11.34h-13.48l-2.41 11.34h-13.22l15.63-67.32zm-5.9 27.5-1.52-10.18h-0.17l-1.43 10.18-2.86 17.95h9.38z"/>
  <path class="cls-6" d="m479.37 312.43v12.5h-13.57v14.37h12.2v12.5h-12.2v27.95h-13.31v-67.32z"/>
  <path class="cls-6" d="m515.35 312.43v12.5h-13.48v14.64h11.88v12.5h-11.88v15.18h13.66v12.5h-27v-67.32z"/>
  <path class="cls-6" d="m537.23 312.43 16.61 40.62 0.18-0.17a42.09 42.09 0 0 1-1.02-10.18v-30.27h13.3v67.32h-12.64l-16.43-40.63-0.18 0.18 0.63 6.79 0.08 2.77v30.89h-13.3v-67.32z"/>
 </g>
</svg>
