<svg version="1.1" viewBox="0 0 209.9 85.7" xml:space="preserve" xmlns="http://www.w3.org/2000/svg">
<style type="text/css">
	.st0{fill:#EF0123;}
	.st1{fill:#666666;}
	.st2{font-family:'ArialMT';}
	.st3{font-size:12.9548px;}
	.st4{letter-spacing:1;}
</style>
<g transform="translate(-65,-57.2)" fill="#fff"><path d="m91.7 131.3 2.1-1.2c1.5 2.7 3.2 4 5.1 4 0.8 0 1.6-0.2 2.3-0.6s1.3-0.9 1.7-1.5 0.6-1.3 0.6-2c0-0.8-0.3-1.6-0.8-2.4-0.8-1.1-2.2-2.4-4.2-3.8-2.1-1.5-3.3-2.6-3.8-3.3-0.9-1.1-1.3-2.4-1.3-3.7 0-1 0.3-2 0.8-2.9s1.2-1.5 2.1-2.1c0.9-0.5 1.9-0.7 3-0.7 1.2 0 2.2 0.3 3.2 0.9s2.1 1.6 3.2 3.1l-2 1.5c-0.9-1.2-1.7-2-2.4-2.4-0.6-0.4-1.4-0.6-2.1-0.6-1 0-1.8 0.3-2.4 0.9s-0.9 1.3-0.9 2.2c0 0.5 0.1 1 0.3 1.5s0.6 1 1.2 1.6c0.3 0.3 1.4 1.1 3.2 2.4 2.1 1.5 3.6 2.9 4.4 4.1s1.2 2.4 1.2 3.6c0 1.8-0.7 3.2-2 4.5-1.4 1.3-3 1.9-4.9 1.9-1.5 0-2.8-0.4-4.1-1.2-1.4-0.6-2.5-2-3.5-3.8z"/><path d="m111.1 121h1.8v7c0 1.7 0.1 2.9 0.3 3.5 0.3 0.9 0.7 1.6 1.4 2.2 0.7 0.5 1.5 0.8 2.5 0.8s1.8-0.3 2.5-0.8 1.2-1.2 1.4-2.1c0.2-0.6 0.3-1.8 0.3-3.7v-7h1.8v7.3c0 2.1-0.2 3.6-0.6 4.7-0.4 1-1.1 1.8-2 2.4s-2 0.9-3.3 0.9-2.4-0.3-3.3-0.9-1.5-1.4-2-2.5-0.6-2.7-0.6-4.8z"/><path d="m142 110v25.9h-1.7v-2.6c-0.7 1-1.5 1.7-2.4 2.2s-1.9 0.7-3 0.7c-1.9 0-3.5-0.8-4.9-2.3-1.3-1.5-2-3.4-2-5.6 0-2.1 0.7-4 2.1-5.5s3-2.3 4.9-2.3c1.1 0 2.1 0.3 3 0.8 0.5 0.3 1 0.7 1.4 1.2 0.3 0.3 0.6 0.8 0.9 1.2v-13.7zm-6.9 12.4c-0.9 0-1.8 0.3-2.7 0.8-0.8 0.5-1.5 1.3-1.9 2.2-0.5 0.9-0.7 2-0.7 3s0.3 2.1 0.7 3 1.2 1.7 2 2.3 1.7 0.8 2.7 0.8c0.9 0 1.8-0.3 2.7-0.8s1.5-1.2 2-2.2c0.5-0.9 0.7-1.9 0.7-3.1 0-1.8-0.5-3.2-1.5-4.4-1.3-1.1-2.5-1.6-4-1.6z"/><path d="m145.8 121h1.8l4.2 11.5 4.4-11.5h0.3l4.4 11.5 4.1-11.5h1.8l-5.9 15.8h-0.3l-4.4-11.3-4.3 11.3h-0.3z"/><path d="m181.1 130.7 1.5 0.9c-0.5 1.1-1 1.9-1.7 2.6-0.6 0.6-1.3 1.2-2.1 1.5s-1.7 0.5-2.7 0.5c-2.2 0-3.9-0.8-5.2-2.5-1.2-1.6-1.9-3.5-1.9-5.6 0-2 0.5-3.7 1.6-5.2 1.3-1.9 3.1-2.9 5.3-2.9 2.3 0 4.1 1 5.5 3 1 1.4 1.5 3.2 1.5 5.3h-12.1c0 1.8 0.5 3.2 1.5 4.4s2.2 1.7 3.6 1.7c0.7 0 1.4-0.1 2-0.4s1.2-0.6 1.7-1.1c0.4-0.4 1-1.1 1.5-2.2zm0-4.1c-0.2-1.1-0.6-1.9-1-2.5s-1-1.2-1.8-1.5-1.5-0.6-2.3-0.6c-1.3 0-2.5 0.5-3.4 1.5-0.7 0.7-1.2 1.8-1.6 3.2z"/><path d="m196.3 122.5-1.5 1.3c-1.3-1-2.5-1.5-3.7-1.5-0.8 0-1.4 0.2-2 0.6s-0.8 0.9-0.8 1.5c0 0.5 0.2 0.9 0.7 1.4s1.4 1 2.8 1.6c1.8 0.7 3 1.5 3.6 2.1 0.6 0.7 0.9 1.5 0.9 2.4 0 1.2-0.5 2.3-1.6 3.1-1.1 0.9-2.4 1.3-4 1.3-1.1 0-2.1-0.2-3-0.6-1-0.4-1.8-0.9-2.4-1.5l1.5-1.4c1.2 1.1 2.5 1.7 3.8 1.7 0.9 0 1.8-0.3 2.4-0.7 0.7-0.5 1-1.1 1-1.8 0-0.6-0.2-1-0.6-1.5-0.4-0.4-1.4-0.9-3-1.6-1.7-0.7-2.8-1.4-3.4-2.1s-0.9-1.5-0.9-2.3c0-1.2 0.5-2.1 1.4-2.8 0.9-0.8 2.1-1.1 3.6-1.1 1.7-0.1 3.4 0.6 5.2 1.9z"/><path d="m200.8 115.1h2.1v5.6h3.3v1.7h-3.3v13.4h-2.1v-13.4h-2.8v-1.7h2.8z"/><path d="m209.6 120.9h1.8v2.7c0.7-1 1.5-1.8 2.4-2.3s1.9-0.8 3-0.8c2 0 3.6 0.7 5 2.2s2.1 3.3 2.1 5.4-0.7 4-2.1 5.5-3 2.3-5 2.3c-1.1 0-2.1-0.3-3-0.7-0.9-0.5-1.8-1.2-2.5-2.1v9.8h-1.8zm7 1.4c-1.5 0-2.8 0.6-3.8 1.7-1 1.2-1.6 2.6-1.6 4.2 0 1.1 0.2 2.1 0.7 3s1.2 1.6 2 2.1 1.8 0.8 2.7 0.8 1.8-0.3 2.7-0.8 1.5-1.2 2-2.2c0.5-0.9 0.7-1.9 0.7-3 0-1-0.3-2-0.7-3-0.5-0.9-1.2-1.7-2-2.2-0.8-0.3-1.7-0.6-2.7-0.6z"/><path d="m234.9 110.5v2.3c-0.8-0.4-1.5-0.6-2.1-0.6-0.4 0-0.8 0.1-1.1 0.3s-0.5 0.4-0.6 0.6c-0.1 0.3-0.1 0.9-0.1 1.9v2.5h3.7v2.1h-3.7v16.2h-2.3v-16.2h-2.3v-2.1h2.3v-2.9c0-1.3 0.1-2.2 0.3-2.8s0.6-1 1.2-1.4c0.6-0.3 1.2-0.5 2-0.5 0.8 0.1 1.7 0.3 2.7 0.6z"/><path d="m250.5 120.9v15h-1.7v-2.6c-0.7 1-1.5 1.7-2.4 2.2s-1.9 0.7-3 0.7c-1.9 0-3.5-0.8-4.9-2.3-1.3-1.5-2-3.4-2-5.6 0-2.1 0.7-4 2.1-5.5s3-2.3 4.9-2.3c1.1 0 2.1 0.3 3 0.8s1.7 1.3 2.4 2.4v-2.7zm-7.1 1.5c-0.9 0-1.8 0.3-2.6 0.8s-1.4 1.3-1.9 2.2-0.7 2-0.7 3 0.2 2.1 0.7 3c0.5 1 1.1 1.7 1.9 2.3s1.6 0.8 2.5 0.8 1.8-0.3 2.6-0.8 1.5-1.2 1.9-2.2c0.4-0.9 0.6-1.9 0.6-3.1 0-1.8-0.5-3.2-1.5-4.4-0.8-1.1-2-1.6-3.5-1.6z"/><path d="m256.3 110h2.6v25.8h-2.6z"/><path d="m263.1 121h11.8l-9.1 13.2h8.8v1.7h-12.3l9.1-13.2h-8.2z"/>
		<path d="m119.8 57.2c6.6 0 12.3 2.4 17 7 4.7 4.7 7.1 10.3 7.1 16.8 0 6.6-2.4 12.2-7.2 16.9s-10.6 7-17.4 7-12.6-2.4-17.4-7c-4.8-4.7-7.2-10.3-7.2-16.9 0-6.7 2.4-12.3 7.2-16.9 4.9-4.6 10.8-6.9 17.9-6.9zm-0.5 17c-1.9 0-3.5 0.7-4.8 2s-2 3-2 4.9 0.7 3.5 2 4.9c1.3 1.3 2.9 2 4.7 2 1.9 0 3.5-0.7 4.8-2s2-3 2-4.9-0.6-3.5-2-4.9c-1.2-1.4-2.8-2-4.7-2z" fill="#fff"/>
		<path d="m165.8 57.8v45.9h-15.8v-45.9zm29.6 0-14.2 22.5 15.9 23.4h-19.7l-11.7-19.9-0.1-5.4 11.2-20.6h18.6z" fill="#fff"/>
	</g><g transform="translate(-65,-57.2)">
		<g fill="#666">
			<path class="st1" d="m211.7 103.8h-9.3l7.9-38.3h-13.2l1.6-7.7h35.4l-1.6 7.7h-13z"/>
			<path class="st1" d="m249.2 103.8h-9.9l-8.1-45.9h9.2l5.7 34.8 18.6-34.8h9.1z"/>
		</g>
	</g><g transform="translate(-65,-57.2)">
		<path class="st0" d="m75.5 83.8c2.9 0 5.3 1 7.4 3.1s3.1 4.5 3.1 7.4c0 2.8-1 5.3-3.1 7.2-2.1 2-4.5 3-7.4 3-3 0-5.5-1-7.5-2.9s-3-4.4-3-7.4c0-2.9 1-5.3 3-7.4 2.2-2 4.6-3 7.5-3z" fill="#ef0123"/>
		<path class="st0" d="m75.5 57.3c2.9 0 5.3 1 7.4 3.1s3.1 4.5 3.1 7.4c0 2.8-1 5.3-3.1 7.2-2.1 2-4.5 3-7.4 3-3 0-5.5-1-7.5-2.9s-3-4.4-3-7.3 1-5.3 3-7.4c2.2-2.1 4.6-3.1 7.5-3.1z" fill="#ef0123"/>
	<text class="st0 st2 st3 st4" transform="scale(1.0065 .99356)" x="110.76337" y="118.0933" fill="#ef0123" font-family="ArialMT" font-size="13.039px" letter-spacing="1.0065" stroke-width="1.0065">..</text>
</g>
</svg>
