<svg width="800" height="511.76" enable-background="new 0 0 1260 720" version="1.0" viewBox="0 0 800 511.76" xml:space="preserve" xmlns="http://www.w3.org/2000/svg"><link rel="stylesheet" type="text/css"/><link rel="stylesheet" type="text/css"/><style lang="en" type="text/css"/><style lang="en" type="text/css"/>
<g fill="#d10019"><polygon transform="matrix(.94764 0 0 .94764 -197.01 -85.258)" points="866 630 788.1 630 788.1 558.6 866 558.6"/><path d="m90.026 120.66c-4.5487-24.354 17.342-47.287 39.706-48.425 23.881-1.2319 36.2 7.8654 40.843 32.22 4.5487 24.354-10.708 51.362-34.21 56.1-15.447 3.0325-44.255-28.714-46.34-39.896z" stroke-width=".94764"/><path d="m99.408 300.24c-16.963-17.531-11.182-49.277 6.823-63.208 9.0026-6.9178 42.644-5.8754 51.173 3.0325 16.963 17.531 18.858 48.804 1.8953 66.335-16.963 17.626-43.023 11.372-59.891-6.1597z" stroke-width=".94764"/><rect x="549.73" y="67.976" width="73.916" height="248" stroke-width=".94764"/></g><g fill="#172983"><path d="m129.54 61.058c-5.0225 0.28429-9.9502 1.4215-14.783 3.222 11.087-23.028 23.028-40.18 40.085-55.627 23.691-21.132 7.8654 1.1372 39.138 16.868 0.66335 0.28429 0.66335 0.47382 0 0.56859-14.594 1.8953-24.544 10.045-43.023 36.769-5.9702-1.611-13.172-2.1796-21.417-1.8005z" stroke-width=".94764"/><path d="m522.44 191.93c0.18953 12.225-0.0948 24.165-0.85288 35.631-0.75811 11.466-3.3168 22.364-7.6759 32.694-4.3592 10.235-11.656 19.711-22.08 28.335-10.898 8.9078-23.122 15.731-36.674 20.374s-29.566 7.0126-47.951 7.0126-34.305-2.3691-47.951-7.0126c-13.551-4.6434-25.871-11.466-36.674-20.374-10.424-8.6235-17.816-18.005-22.08-28.335-4.3592-10.235-6.823-21.132-7.6759-32.694-0.75811-11.466-1.0424-23.407-0.85288-35.631-0.18952-12.225 0.0948-24.165 0.85288-35.631 0.75812-11.466 3.3168-22.364 7.6759-32.694 4.3592-10.235 11.656-19.711 22.08-28.335 10.898-8.9078 23.122-15.731 36.674-20.374s29.566-7.0126 47.951-7.0126 34.305 2.3691 47.951 7.0126c13.551 4.6434 25.871 11.466 36.674 20.374 10.424 8.6235 17.816 18.005 22.08 28.335 4.3592 10.235 6.823 21.132 7.6759 32.694s1.1372 23.407 0.85288 35.631zm-77.801 0c0-14.594-0.37906-25.871-1.2319-33.736-0.85287-7.8654-1.99-13.646-3.5063-17.342-1.5162-3.6958-3.3168-6.6335-5.4016-8.8131-2.5586-3.0324-6.1597-5.4963-10.803-7.4864-4.6434-1.99-10.045-3.0325-16.299-3.1272-6.2544 0.0948-11.656 1.1372-16.299 3.1272-4.6434 1.99-8.2445 4.5487-10.803 7.4864-2.0848 2.1796-3.8853 5.1173-5.4016 8.8131-1.5162 3.6958-2.6534 9.4764-3.5063 17.342-0.85288 7.8654-1.2319 19.142-1.2319 33.736s0.37906 25.871 1.2319 33.641c0.85287 7.7707 1.99 13.551 3.5063 17.247 1.5162 3.6958 3.3168 6.5387 5.4016 8.7183 2.5586 3.0325 6.1597 5.5911 10.803 7.6759 4.6434 2.0848 10.045 3.222 16.299 3.3168 6.2544-0.0948 11.656-1.2319 16.299-3.3168 4.6434-2.0848 8.2445-4.6434 10.803-7.6759 2.0848-2.1796 3.8853-5.1173 5.4016-8.7183 1.5162-3.6958 2.6534-9.3817 3.5063-17.247 0.75812-7.7707 1.2319-18.953 1.2319-33.641z" clip-rule="evenodd" fill-rule="evenodd" stroke-width=".94764"/><path d="m-4.354e-6 107.68c0-24.828 14.783-39.138 38.759-39.138 23.975 0 43.307 14.309 43.307 39.138 0 24.828-16.205 47.666-44.065 47.287-23.975-0.37906-38-22.554-38-47.287z" stroke-width=".94764"/><path d="m185.93 80.674c13.741-20.28 44.35-18.953 60.744-3.0325 17.437 16.963 24.07 36.2 10.329 56.48s-46.529 26.344-66.145 12.13c-19.616-14.215-18.669-45.297-4.9277-65.577z" stroke-width=".94764"/><path d="m48.709 172.79c14.025-20.09 30.988-30.798 52.499-19.9s32.03 35.063 22.459 57.806c-9.1921 21.701-51.552 25.871-60.744 21.891-22.175-9.666-28.05-39.896-14.215-59.796z" stroke-width=".94764"/><path d="m141.1 211.26c-9.3817-22.838 5.0225-48.709 26.724-54.679 23.122-6.3492 39.991-1.3267 49.372 21.511s-3.222 53.826-25.207 63.492c-13.457 5.9701-43.497-12.319-50.888-30.325z" stroke-width=".94764"/><polygon transform="matrix(.94764 0 0 .94764 -197.01 -85.258)" points="894.8 218.8 952 161.7 1048.5 161.7 939 267.5 1052.1 423.4 960.1 423.4 894.8 328.5"/><path d="m797.73 395.1h-36.863c0 6.0649 1.4215 10.708 4.1696 13.93 2.7482 3.222 6.7283 4.9277 11.94 4.9277 3.1272 0 5.6858-0.47382 7.8654-1.5162s4.3592-2.5586 6.444-4.7382l5.4016 4.7382c-2.6534 2.7482-5.4963 4.833-8.5288 6.2544-3.0324 1.4215-6.823 2.0848-11.372 2.0848-7.2968 0-13.077-2.1796-17.342-6.7283-4.2644-4.5487-6.444-11.561-6.5387-21.227 0.0948-8.9078 2.0848-15.731 5.9702-20.564 3.8853-4.833 9.3817-7.2968 16.394-7.3916 7.1073 0.0948 12.604 2.4639 16.489 7.1073 3.8853 4.6434 5.8754 11.087 5.8754 19.237v3.8853zm-54.205 9.5712c0 2.4639-0.37906 4.7382-1.1372 6.7283-0.75812 1.99-1.8005 3.601-3.222 4.9278-1.4215 1.4215-3.1272 2.3691-4.9277 3.0324s-3.9801 0.94765-6.5387 0.94765h-5.9702v-6.823h4.4539c1.611 0 2.8429-0.18953 3.7906-0.56859 0.94764-0.37905 1.8953-0.94764 2.7482-1.7058 0.85288-0.75812 1.611-1.7058 2.0848-2.9377 0.47382-1.2319 0.75811-2.7482 0.75811-4.4539v-18.763c0-1.611-0.18953-2.9377-0.56859-3.9801-0.37905-1.1372-0.94764-2.0848-1.8005-2.8429-0.75811-0.75812-1.7058-1.3267-2.8429-1.7058-1.1372-0.37906-2.3691-0.56858-3.6958-0.56858h-4.9277v-6.6335h3.9801c2.9377 0 5.3068-0.94765 7.0126-2.7482 1.8005-1.8005 2.6534-4.2644 2.7482-7.3916 0-1.611-0.2843-3.1272-0.94765-4.6434-0.56858-1.4215-1.4215-2.6534-2.4639-3.6958-1.1372-1.1372-2.5586-1.8953-4.2644-2.4639-1.7058-0.56858-3.7906-0.75811-6.1597-0.75811-4.9277 0.0948-8.434 1.4215-10.614 4.1696-2.1796 2.7482-3.222 6.3492-3.222 10.803v57.806h-8.055v-58.09c0.0948-7.0126 2.0848-12.319 6.0649-16.015 3.9801-3.6958 9.3817-5.5911 16.299-5.5911 6.0649 0 11.087 1.4215 15.068 4.4539 4.0749 2.9377 6.1597 7.6759 6.2544 14.025 0 3.0325-0.66335 5.6859-1.8005 7.7707-1.2319 2.1796-2.9377 3.9801-5.1173 5.4016 2.6534 1.3267 4.4539 3.0325 5.4963 5.0225s1.5162 4.7382 1.5162 8.2445zm-65.103-3.6958v-5.8754h-15.352c-4.0749 0-7.2021 0.85288-9.1921 2.4639s-3.0325 4.0749-3.0325 7.2021 0.94764 5.4963 3.0325 7.0126c1.99 1.5162 5.212 2.2743 9.4764 2.2743 2.3691 0.0948 4.5487-0.0948 6.5387-0.56858 2.0848-0.47382 3.8853-1.5162 5.6858-3.0325 0.94765-0.85288 1.611-2.0848 2.0848-3.6958 0.56858-1.5162 0.75811-3.5063 0.75811-5.7806zm7.9602 19.332h-7.9602v-5.212c-2.1796 2.1796-4.3592 3.6958-6.823 4.5487-2.3691 0.85287-5.4016 1.3267-9.0026 1.2319-3.6958 0-6.823-0.37906-9.2869-1.1372s-4.4539-2.0848-6.1597-3.7906c-1.3267-1.3267-2.3691-3.0325-3.0324-4.9277-0.66335-1.8953-1.0424-3.9801-1.0424-6.1597 0-4.833 1.611-8.6236 4.833-11.466 3.222-2.8429 7.8654-4.2644 14.025-4.2644h16.394v-5.212c0-3.9801-1.0424-7.0126-3.222-9.0026s-5.7806-3.0325-10.708-3.0325c-3.4115 0-6.1597 0.47382-8.3393 1.4215-2.0848 0.94764-3.8853 2.5586-5.4963 4.833l-5.4016-5.0225c2.3691-3.1272 5.1173-5.212 8.1497-6.444 3.0325-1.1372 6.7283-1.7058 11.182-1.7058 7.2968 0 12.793 1.5162 16.394 4.6434 3.601 3.0325 5.4016 7.5811 5.4016 13.551v37.148zm-44.065-50.13-5.8754 5.9702c-1.4215-1.5162-2.8429-2.5586-4.2644-3.1272-1.4215-0.56858-3.1272-0.85288-5.212-0.85288-4.0749 0.0948-7.2021 1.5162-9.5712 4.1696-2.2743 2.7482-3.5063 6.1597-3.5063 10.424v33.452h-7.9602v-54.584h7.9602v6.6335c1.5162-2.2743 3.6958-4.0749 6.444-5.4016s5.6859-1.8953 8.9078-1.99c2.5586 0 4.9277 0.37905 7.0126 1.1372 2.0848 0.94764 4.0749 2.2743 6.0649 4.1696zm-47.951 50.13h-5.6858c-4.6434-0.0948-8.1497-1.5162-10.424-4.2644-2.3691-2.7482-3.5063-6.1597-3.5063-10.329v-33.547h-6.9178v-6.0649h6.9178v-17.058h7.9602v17.058h11.656v6.0649h-11.656v33.262c0 2.5586 0.56858 4.4539 1.8005 5.8754 1.2319 1.4215 3.1272 2.0848 5.5911 2.0848h4.1696v6.9178zm-31.462-15.92c-0.0948 5.3068-2.1796 9.3817-6.1597 12.225-3.9801 2.8429-9.3817 4.3592-16.015 4.3592-4.5487 0-8.7183-0.56859-12.414-1.8005-3.6958-1.2319-7.0126-3.222-9.9502-6.0649l5.3068-5.3068c2.1796 2.2743 4.7382 3.8853 7.5812 4.833 2.8429 0.94764 5.9701 1.5162 9.3817 1.4215 4.5487 0 8.055-0.75811 10.614-2.3691 2.5586-1.611 3.8853-3.9801 3.8853-7.2021 0-2.3691-0.66335-4.2644-2.1796-5.5911-1.4215-1.3267-3.7906-2.1796-6.9178-2.3691l-9.0026-0.75811c-5.3068-0.47382-9.3817-1.8953-12.13-4.2644-2.7482-2.4639-4.1696-5.8754-4.1696-10.329 0.0948-5.0225 1.99-8.9078 5.6859-11.751 3.6958-2.7482 8.434-4.1696 14.404-4.2644 3.8853 0 7.5811 0.47382 10.898 1.4215 3.3168 0.94765 6.2544 2.4639 8.7183 4.4539l-5.212 5.212c-1.99-1.5162-4.1696-2.5586-6.6335-3.3168-2.4639-0.66335-5.1173-1.0424-7.9602-1.0424-3.9801 0-7.0126 0.85288-9.0974 2.3691-2.0848 1.611-3.1272 3.7906-3.1272 6.5387 0 2.3691 0.66335 4.1696 2.1796 5.4963 1.5162 1.3267 3.9801 2.1796 7.3916 2.4639l8.8131 0.75812c4.833 0.37905 8.7183 1.7058 11.656 3.8853 2.8429 2.2743 4.3592 5.9702 4.4539 10.993zm-54.489 15.92h-7.9602v-33.641c0-4.833-1.2319-8.434-3.601-10.898-2.3691-2.4639-5.6858-3.601-9.7607-3.601-4.1696 0-7.3916 1.2319-9.8555 3.6958-2.3691 2.4639-3.601 6.0649-3.6958 10.803v33.547h-7.9602v-54.584h7.9602v5.9702c1.99-2.1796 4.2644-3.8853 6.823-5.0225s5.4016-1.7058 8.5288-1.7058c2.9377 0 5.5911 0.47382 7.9602 1.3267 2.3691 0.85287 4.3592 2.0848 6.0649 3.7906 1.8953 1.8953 3.3168 4.0749 4.2644 6.6335 0.94764 2.5586 1.4215 5.4016 1.3267 8.5288v35.158zm-57.996-69.936h-9.0026v-9.0026h9.0026zm-0.56859 69.936h-7.9602v-54.584h7.9602zm-28.808-31.177c-0.0948-2.1796-0.2843-3.7906-0.47383-5.1173-0.18952-1.2319-0.66335-2.5586-1.2319-3.9801-1.1372-2.5586-2.7482-4.5487-5.0225-5.9702s-4.833-2.1796-7.7707-2.2743c-2.9377 0-5.4963 0.75811-7.7707 2.2743-2.2743 1.4215-3.8853 3.4115-5.0225 5.9702-0.56858 1.4215-0.94764 2.7482-1.2319 3.9801-0.18953 1.2319-0.37906 2.9377-0.47382 5.1173zm7.9602 5.9702h-36.863c0 6.0649 1.4215 10.708 4.1696 13.93 2.7482 3.222 6.7283 4.9277 11.94 4.9277 3.1272 0 5.6858-0.47382 7.8654-1.5162s4.3592-2.5586 6.444-4.7382l5.4016 4.7382c-2.6534 2.7482-5.4963 4.833-8.5288 6.2544-3.0324 1.4215-6.823 2.0848-11.372 2.0848-7.2968 0-13.077-2.1796-17.342-6.7283-4.2644-4.5487-6.444-11.561-6.5387-21.227 0.0948-8.9078 2.0848-15.731 5.9702-20.564 3.8853-4.833 9.3817-7.2968 16.394-7.3916 7.1073 0.0948 12.604 2.4639 16.489 7.1073 3.8853 4.6434 5.8754 11.087 5.8754 19.237v3.8853zm-45.676-53.731-20.185 78.939h-7.8654l-17.531-63.208-17.531 63.208h-7.8654l-20.185-78.939h9.0026l15.447 63.682 17.437-63.682h7.5811l17.437 63.682 15.447-63.682zm406.44 47.761c-0.0948-2.1796-0.2843-3.7906-0.47383-5.1173-0.18952-1.2319-0.66335-2.5586-1.2319-3.9801-1.1372-2.5586-2.7482-4.5487-5.0225-5.9702s-4.833-2.1796-7.7707-2.2743c-2.9377 0-5.4963 0.75811-7.7707 2.2743-2.2743 1.4215-3.8853 3.4115-5.0225 5.9702-0.56858 1.4215-0.94764 2.7482-1.2319 3.9801-0.18953 1.2319-0.37906 2.9377-0.47382 5.1173z" clip-rule="evenodd" fill-rule="evenodd" stroke-width=".94764"/></g>
</svg>
