<svg width="1682pt" height="914.13pt" version="1.1" viewBox="0 0 1682 914.13" xmlns="http://www.w3.org/2000/svg">
 <path d="m97.75 15.48c22-10.22 46.25-15.5 70.5-15.48v36.89c-32.01-0.08-63.8 12.1-87.56 33.53-27.56 24.45-43.97 60.9-43.77 97.77h-36.92c-0.01-29.8 8.03-59.56 23.23-85.2 17.26-29.35 43.6-53.25 74.52-67.51z" fill="#0068b4"/>
 <path d="m111.78 125.51c24.21-28.31 60.88-45.595 98.19-45.675h679.01c33.8-0.1 67.26 13.795 91.33 37.485 24.68 23.95 39.445 57.89 39.625 92.34v402.04c0.06 18.9-4.055 37.8-11.995 54.96-12.53 27.3-34.69 50.02-61.68 63.22-18.62 9.24-39.46 13.72-60.22 13.45l-520.48-0.08 12.973 73.069 59.817 84.701c1.05 3.3 1.97 7.08 0.36 10.38-1 2.1-3.52 2.93-5.71 2.69-3.97-0.37-7.49-2.4-11.09-3.93l-273.22-122.27c-13.65-6.48-24.01-18.16-32.18-30.6-9.35-14.38-16.12-30.29-21.42-46.55-7.35-22.75-11.83-46.38-13.97-70.18-0.85692-9.0824-1.1866-18.188-1.2898-27.301l-2.5e-4 -402.57c-0.03-31.02 11.63-61.77 31.95-85.18" fill="#0068b4"/>
 <path d="m1142.7 243.2h248.47v23.755h-110.91v306.27h-26.62v-306.27h-110.94z" fill="#0068b4"/>
 <path d="m1400.9 243.2h28.95l111.84 297.32 111.84-297.32h28.52l-125.85 330.02h-29.92z" fill="#0068b4"/>
 <path d="m354.11 233.8c-2.6432 0.0127-5.2827 0.0703-7.9189 0.17285-24.02 0.8-48 5.3594-70.33 14.339-24.73 9.78-47.381 25.17-64.721 45.41-21.5 25.03-34.86 56.76-38.3 89.54-3.43 32.04-0.0999 65.27 12.64 95.06 10.46 24.79 26.83 47.16 47.84 64.03 27.48 22.2 61.85 35.071 96.82 38.801 37.89 4.01 77.22-0.93967 111.8-17.41 31.56-14.72 58.559-39.36 75.079-70.1 16.17-29.07 22.581-62.84 21.161-95.9-0.86001-22.64-5.5601-45.29-15.12-65.9-12.06-26.65-31.67-49.78-56.03-65.99-33.094-22.256-73.272-32.242-112.92-32.052zm230.9 9.3369v330h107.42v-131.65l89.306 131.65h135.97l-130.01-179.03 123.8-150.97h-130.21l-88.856 122.02v-122.02zm-229.79 92.26c9.3492 0.0496 18.686 1.924 27.163 5.9253 12.41 5.74 23.04 15.519 29.21 27.779 8.54 16.67 10.08 36.26 6.8804 54.52-3.27 18.16-13.151 35.551-28.701 45.891-23.04 15.77-56.71 13.57-77.31-5.3701-14.23-13.09-21.759-32.34-22.819-51.42-1.16-17.44 2.2696-35.629 12.1-50.319 9.19-13.87 24.49-23.17 40.8-25.97 4.175-0.70312 8.4271-1.0582 12.677-1.0356z" fill="#fff"/>
 <path d="m1062.9 654.84h36.89c0.05 33.21-10 66.345-28.64 93.845-17.95 26.7-43.67 48.12-73.24 60.81-20.87 9.03-43.605 13.62-66.325 13.65v-36.91c36.02 0.16 71.655-15.46 96.055-41.92 22.48-23.97 35.35-56.605 35.26-89.475z" fill="#0068b4"/>
 <g transform="translate(-32.99 -41.3)">
  <path d="m261.96 787.97c45.35-4.77 91.057-3.42 136.97-3.42l72.41 157.77-261.18-119.47c-3.68-1.76-7.34-3.89-9.89-7.14-2.44-3.06-2.12-7.96 0.78-10.62 4.47-4.4 10.53-6.64 16.35-8.65 14.45-4.61 29.54-6.72 44.56-8.47z" fill="#003e6f"/>
 </g>
</svg>
