<svg version="1.1" viewBox="0 0 160.81 101.62" xml:space="preserve" xmlns="http://www.w3.org/2000/svg">
<g transform="translate(-89.589 -48.189)">
		<path class="st1" d="m179.4 117.9c0.1 0.6-0.4 1.2-1 1.3l-13.6 1.4c-0.6 0.1-1.2-0.4-1.3-1l-1.4-13.6c-0.1-0.6 0.4-1.2 1-1.3l13.6-1.4c0.6-0.1 1.2 0.4 1.3 1z" fill="#03722a"/>
		<path class="st2" d="m110.3 125c0.1 0.7-0.5 1.4-1.2 1.5l-16.3 1.7c-0.7 0.1-1.4-0.5-1.5-1.2l-1.7-16.3c-0.1-0.7 0.5-1.4 1.2-1.5l16.3-1.7c0.7-0.1 1.4 0.5 1.5 1.2z" fill="#00a039"/>
		<path class="st3" d="m164 145.7c0.1 1-0.6 1.8-1.5 1.9l-20.8 2.2c-1 0.1-1.8-0.6-1.9-1.5l-2.2-20.8c-0.1-1 0.6-1.8 1.5-1.9l20.8-2.2c1-0.1 1.8 0.6 1.9 1.5z" fill="#0c6327"/>
		<path class="st4" d="m155.9 68.5c0.1 0.9-0.5 1.6-1.4 1.7l-18.9 2c-0.9 0.1-1.6-0.5-1.7-1.4l-2-18.9c-0.1-0.9 0.5-1.6 1.4-1.7l18.9-2c0.9-0.1 1.6 0.5 1.7 1.4z" fill="#00b741"/>
		<path class="st5" d="m161 117.5c0.2 1.9-1.2 3.6-3.1 3.8l-41.7 4.4c-1.9 0.2-3.6-1.2-3.8-3.1l-4.4-41.8c-0.2-1.9 1.2-3.6 3.1-3.8l41.8-4.4c1.9-0.2 3.6 1.2 3.8 3.1z" fill="#008633"/>
		<g fill="#fff">
			<path class="st6" d="m124.2 112.9c-6.5 0.7-10.7-3.2-11.6-11.4-0.9-8.3 2.1-12.9 8.9-13.6 6.5-0.7 10.6 3.2 11.4 11.5 0.9 8.1-1.9 12.8-8.7 13.5zm-0.6-5.7c2-0.2 2.6-1.9 2.1-7.1-0.5-5-1.5-6.8-3.5-6.6-2.1 0.2-2.7 2.2-2.2 7.2 0.5 5.2 1.5 6.8 3.6 6.5z"/>
			<path class="st6" d="m143 95.8 1.6-0.4 1.9-9.8 7.6-0.8v0.4l-3.4 12.3 6.9 11.2v0.3l-7.9 0.8-4.5-9.3-1.6 0.2 1 9.7-7 0.7-2.6-24.3 7-0.7z"/>
		</g>
	</g><g fill="#333"><path class="st7" d="m93.611 95.711-1 3.6h-3.3l4.3-14.2h4.2l4.4 14.2h-3.5l-1.1-3.6zm3.6-2.4-0.9-3c-0.2-0.8-0.5-1.9-0.7-2.7h-0.1c-0.2 0.8-0.4 1.9-0.6 2.7l-0.9 3z"/><path class="st7" d="m113.81 84.311v11.9c0 1.2 0 2.4 0.1 3.1h-2.8l-0.1-1.5h-0.1c-0.6 1.1-1.9 1.7-3.2 1.7-2.4 0-4.4-2.1-4.4-5.3 0-3.5 2.2-5.5 4.6-5.5 1.3 0 2.3 0.5 2.7 1.2v-5.6zm-3.3 9.1v-0.6c-0.2-0.9-0.9-1.6-1.9-1.6-1.5 0-2.2 1.3-2.2 2.9 0 1.7 0.9 2.8 2.2 2.8 0.9 0 1.7-0.6 1.9-1.5 0-0.2 0.1-0.5 0.1-0.7v-1.3z"/><path class="st7" d="m118.81 95.111c0.1 1.3 1.4 2 2.9 2 1.1 0 2-0.1 2.8-0.4l0.4 2.2c-1.1 0.4-2.3 0.7-3.7 0.7-3.5 0-5.5-2-5.5-5.3 0-2.6 1.6-5.5 5.2-5.5 3.3 0 4.6 2.6 4.6 5.1 0 0.5-0.1 1-0.1 1.3zm3.8-2.1c0-0.8-0.3-2.1-1.8-2.1-1.4 0-1.9 1.2-2 2.1z"/><path class="st7" d="m127.51 92.311c0-1.3 0-2.4-0.1-3.3h2.8l0.1 1.4h0.1c0.4-0.7 1.5-1.7 3.2-1.7 2.1 0 3.7 1.4 3.7 4.4v6.1h-3.2v-5.7c0-1.3-0.5-2.2-1.6-2.2-0.9 0-1.4 0.6-1.6 1.2-0.1 0.2-0.1 0.5-0.1 0.8v5.9h-3.2z"/><path class="st7" d="m148.41 96.811c0 1 0 1.9 0.2 2.5h-2.9l-0.2-1h-0.1c-0.7 0.8-1.7 1.3-3 1.3-2.1 0-3.3-1.5-3.3-3.2 0-2.7 2.4-3.9 6-3.9v-0.1c0-0.5-0.3-1.3-1.9-1.3-1.1 0-2.2 0.4-2.8 0.8l-0.6-2c0.7-0.4 2.1-0.9 4-0.9 3.4 0 4.5 2 4.5 4.4v3.4zm-3.1-2.4c-1.7 0-3 0.4-3 1.6 0 0.8 0.5 1.2 1.3 1.2s1.5-0.5 1.7-1.2c0-0.2 0.1-0.4 0.1-0.5v-1.1z"/><path class="st7" d="m160.71 96.011c0 1.3 0 2.4 0.1 3.3h-2.8l-0.1-1.5h-0.1c-0.4 0.6-1.4 1.7-3.2 1.7-2.1 0-3.6-1.3-3.6-4.5v-6h3.2v5.5c0 1.5 0.5 2.4 1.6 2.4 0.9 0 1.4-0.6 1.6-1.1 0.1-0.2 0.1-0.4 0.1-0.7v-6.1h3.2z"/></g>
</svg>
