<svg version="1.1" viewBox="0 0 171.01 101.62" xml:space="preserve" xmlns="http://www.w3.org/2000/svg">
<g transform="translate(-84.489 -48.19)">
		<path class="st0" d="m174.1 117.9c0.1 0.6-0.4 1.2-1 1.3l-13.6 1.4c-0.6 0.1-1.2-0.4-1.3-1l-1.4-13.6c-0.1-0.6 0.4-1.2 1-1.3l13.6-1.4c0.6-0.1 1.2 0.4 1.3 1z" fill="#bc0000"/>
		<path class="st1" d="m105.2 124.9c0.1 0.8-0.5 1.4-1.2 1.5l-16.3 1.7c-0.8 0.1-1.4-0.5-1.5-1.2l-1.7-16.2c-0.1-0.8 0.5-1.4 1.2-1.5l16.3-1.7c0.8-0.1 1.4 0.5 1.5 1.2z" fill="#f00"/>
		<path class="st2" d="m158.8 145.7c0.1 1-0.6 1.8-1.5 1.9l-20.8 2.2c-1 0.1-1.8-0.6-1.9-1.5l-2.2-20.8c-0.1-1 0.6-1.8 1.5-1.9l20.8-2.2c1-0.1 1.8 0.6 1.9 1.5z" fill="#af1414"/>
		<path class="st3" d="m150.7 68.5c0.1 0.9-0.6 1.6-1.4 1.7l-18.9 2c-0.9 0.1-1.6-0.6-1.7-1.4l-2-18.9c-0.1-0.9 0.6-1.6 1.4-1.7l18.9-2c0.9-0.1 1.6 0.6 1.7 1.4z" fill="#fc4444"/>
		<path class="st4" d="m155.8 117.5c0.2 1.9-1.2 3.6-3.1 3.8l-41.7 4.4c-1.9 0.2-3.6-1.2-3.8-3.1l-4.4-41.7c-0.2-1.9 1.2-3.6 3.1-3.8l41.7-4.4c1.9-0.2 3.6 1.2 3.8 3.1z" fill="#db0000"/>
		<g fill="#fff">
			<path class="st5" d="m119 112.9c-6.5 0.7-10.7-3.2-11.6-11.4-0.9-8.3 2.1-12.9 8.9-13.6 6.5-0.7 10.6 3.2 11.4 11.5 1 8-1.9 12.8-8.7 13.5zm-0.6-5.7c2-0.2 2.6-1.9 2.1-7.1-0.5-5-1.5-6.8-3.6-6.6s-2.7 2.2-2.1 7.2c0.5 5.2 1.5 6.7 3.6 6.5z"/>
			<path class="st5" d="m137.9 95.8 1.6-0.4 1.9-9.8 7.6-0.8-0.1 0.4-3.4 12.3 6.9 11.2v0.4l-7.9 0.8-4.5-9.3-1.6 0.2 1 9.7-7 0.7-2.5-24.3 7-0.7z"/>
		</g>
	</g><g fill="#333"><path class="st6" d="m90.311 99.31v-14.2h3.8l2.9 5.2c0.9 1.5 1.7 3.3 2.3 4.9h0.1c-0.2-1.9-0.3-3.8-0.3-5.9v-4.1h2.9v14.2h-3.4l-3-5.5c-0.9-1.5-1.8-3.4-2.4-5h-0.1c0.1 1.9 0.2 3.9 0.2 6.2v4.3z"/><path class="st6" d="m107.11 95.11c0.1 1.4 1.4 2 2.9 2 1.1 0 2-0.2 2.8-0.5l0.4 2.2c-1.1 0.5-2.3 0.7-3.7 0.7-3.5 0-5.5-2-5.5-5.3 0-2.6 1.6-5.5 5.2-5.5 3.3 0 4.6 2.6 4.6 5.1 0 0.6-0.1 1-0.1 1.3zm3.8-2.2c0-0.8-0.4-2.1-1.8-2.1s-1.9 1.2-2 2.1z"/><path class="st6" d="m125.51 96.01c0 1.4 0.1 2.4 0.1 3.3h-2.8l-0.2-1.5h-0.1c-0.4 0.6-1.4 1.7-3.2 1.7-2.1 0-3.6-1.3-3.6-4.5v-6h3.2v5.5c0 1.5 0.5 2.4 1.6 2.4 0.9 0 1.4-0.6 1.6-1.1 0.1-0.2 0.1-0.4 0.1-0.7v-6.2h3.2z"/><path class="st6" d="m130.31 89.01 0.9 4.2c0.2 1.1 0.4 2.2 0.6 3.4h0.1c0.2-1.2 0.5-2.3 0.8-3.4l1.1-4.3h2.5l1 4.1c0.3 1.2 0.6 2.3 0.8 3.5h0.1c0.2-1.2 0.4-2.3 0.6-3.5l0.9-4.1h3.2l-3.2 10.3h-3l-1-3.6c-0.3-1-0.5-1.9-0.7-3.2h-0.2c-0.2 1.3-0.4 2.2-0.7 3.2l-1 3.6h-3l-3-10.3z"/><path class="st6" d="m145.61 87.71c-1.1 0-1.8-0.8-1.8-1.7 0-1 0.7-1.7 1.8-1.7s1.8 0.8 1.8 1.7-0.6 1.7-1.8 1.7zm-1.6 11.6v-10.3h3.2v10.3z"/><path class="st6" d="m152.31 95.11c0.1 1.4 1.4 2 2.9 2 1.1 0 2-0.2 2.8-0.5l0.4 2.2c-1.1 0.5-2.3 0.7-3.7 0.7-3.5 0-5.5-2-5.5-5.3 0-2.6 1.6-5.5 5.2-5.5 3.4 0 4.6 2.6 4.6 5.1 0 0.6-0.1 1-0.1 1.3zm3.7-2.2c0-0.8-0.4-2.1-1.8-2.1s-1.9 1.2-2 2.1z"/><path class="st6" d="m170.91 84.31v11.9c0 1.2 0.1 2.4 0.1 3.1h-2.8l-0.1-1.5h-0.1c-0.6 1.1-1.9 1.7-3.2 1.7-2.4 0-4.4-2.1-4.4-5.3 0-3.5 2.1-5.5 4.6-5.5 1.3 0 2.2 0.5 2.7 1.2h0.1v-5.6zm-3.2 9c0-0.2 0-0.4-0.1-0.6-0.2-0.9-0.9-1.6-1.9-1.6-1.5 0-2.2 1.3-2.2 2.9 0 1.7 0.9 2.8 2.2 2.8 0.9 0 1.7-0.6 1.9-1.5 0.1-0.2 0.1-0.5 0.1-0.7z"/></g>
</svg>
