<svg version="1.1" viewBox="0 0 201.7 86" xml:space="preserve" xmlns="http://www.w3.org/2000/svg">
<style type="text/css">
	.st0{fill:#010101;}
	.st1{fill:#FF9501;}
	.st2{fill:#B3B3B3;}
</style>
<g fill="#fff"><path class="st0" d="m48.9 24c0 3.3-0.6 6.4-1.8 9.3s-2.9 5.5-5.2 7.7-4.9 3.9-7.9 5.1-6.1 1.8-9.5 1.8-6.6-0.6-9.6-1.8-5.6-2.9-7.9-5.2c-2.3-2.2-3.9-4.7-5.2-7.6-1.2-2.8-1.8-6-1.8-9.4s0.6-6.5 1.8-9.4c1.1-2.9 2.9-5.4 5.1-7.6 2.3-2.2 4.9-3.9 7.9-5.1s6.2-1.8 9.6-1.8 6.6 0.6 9.6 1.8 5.6 2.9 7.9 5.1c2.2 2.2 3.9 4.8 5.1 7.6 1.3 3 1.9 6.1 1.9 9.5zm-24.4 8.6c2.3 0 4.2-0.8 5.6-2.4 1.4-1.5 2.1-3.6 2.1-6.2s-0.7-4.7-2.1-6.3-3.3-2.4-5.6-2.4-4.2 0.8-5.6 2.4-2.1 3.7-2.1 6.3 0.7 4.7 2.1 6.2c1.5 1.6 3.3 2.4 5.6 2.4z"/><path class="st0" d="m55.8 46.7v-45.5h16.1v19.4c3.5-6.5 6.9-12.9 10.4-19.4h18.5c-4.6 7.5-9.2 14.9-13.7 22.5 5.2 7.7 10.4 15.4 15.7 23.1h-19.8c-3.7-6.4-7.3-12.7-11-19.1v19.1c-5.5-0.1-10.9-0.1-16.2-0.1z"/></g><g fill="#ff9501"><path class="st1" d="m105.4 78.5 5.9-12.1c6.1 4.7 11.2 7 15.5 7 9.6 0 14.3-5.9 14.3-17.6 0-5.7-1.1-9.8-3.3-12.4s-5.8-3.9-10.9-3.9c-4.6 0-9.1 2.7-13.4 7.2l-5.9-8.7v-36.8h44.9v12.6h-30.7v14.9c2.5-1.2 5.5-1.7 9-1.7 8.2 0 14.5 2.4 18.9 7.1s6.6 11.5 6.6 20.1c0 21.2-9.9 31.8-29.7 31.8-8 0-15.1-2.5-21.2-7.5z"/><path class="st1" d="m179.2 26.3c-7.1 8.3-14.3 16.7-21.4 25h21.4v-25zm14.2 36.7v21.8h-14.3v-21.8h-38v-8.5c15.2-17.8 30.5-35.6 45.7-53.4h6.5v50.2h8.4v11.7h-8.3z"/></g><g fill="#b3b3b3"><path class="st2" d="m1.8 62.8-0.6 0.9h-0.9v-14.5h1.8v4.9c0.2-0.2 0.5-0.5 0.9-0.6 0.5-0.2 0.9-0.3 1.4-0.3 1.4 0 2.5 0.5 3.4 1.5 0.9 0.9 1.3 2.2 1.3 3.6 0 1.7-0.4 3-1.3 4-0.9 0.9-2 1.5-3.5 1.5-0.5 0-0.9-0.1-1.4-0.3s-0.8-0.5-1.1-0.7zm0.3-7.3v5.8c0 0.1 0.2 0.3 0.7 0.5s0.8 0.3 1 0.3c1.2 0 2.1-0.3 2.7-0.9 0.5-0.6 0.8-1.6 0.8-3 0-1.2-0.3-2.1-0.9-2.7s-1.5-1-2.5-1c-0.2 0-0.5 0.1-0.9 0.3-0.5 0.4-0.8 0.6-0.9 0.7z"/><path class="st2" d="m11.6 53.4v6.5c0 1.5 0.7 2.4 2 2.4 0.6 0 1.2-0.2 1.6-0.5 0.5-0.3 0.8-0.7 1-1.2v-7.1h1.8v10.2h-1.8v-1.4c-0.2 0.4-0.6 0.8-1.2 1.1s-1.2 0.5-1.8 0.5c-1.1 0-2-0.3-2.6-0.9s-0.9-1.5-0.9-2.7v-6.7c0.1-0.2 0.1-0.2 1.9-0.2zm-0.2-4.2c0.3 0 0.6 0.1 0.8 0.3s0.3 0.5 0.3 0.8-0.1 0.6-0.3 0.8-0.5 0.3-0.8 0.3-0.6-0.1-0.8-0.3-0.3-0.5-0.3-0.8 0.1-0.6 0.3-0.8c0.3-0.2 0.5-0.3 0.8-0.3zm4.5 0c0.3 0 0.6 0.1 0.8 0.3s0.3 0.5 0.3 0.8-0.1 0.6-0.3 0.8-0.5 0.3-0.8 0.3-0.6-0.1-0.8-0.3-0.3-0.5-0.3-0.8 0.1-0.6 0.3-0.8c0.3-0.2 0.5-0.3 0.8-0.3z"/><path class="st2" d="m24.9 55.1c-0.4-0.3-0.8-0.4-1.2-0.4-0.6 0-1.2 0.3-1.7 0.9s-0.7 1.3-0.7 2.1v5.8h-1.8v-10.2h1.8v1.6c0.6-1.2 1.6-1.8 2.9-1.8 0.3 0 0.8 0 1.4 0.2 0.1 0.1 0.1 0.1-0.7 1.8z"/><path class="st2" d="m25.4 66.3 1-1.5c1 0.7 2 1.1 2.9 1.1 0.8 0 1.5-0.1 1.9-0.4 0.5-0.3 0.7-0.6 0.7-1.1 0-0.8-0.6-1.2-1.8-1.2-0.2 0-0.6 0-1.1 0.2-0.5 0.1-0.9 0.2-1.2 0.2-1.5 0-2.1-0.6-2.1-1.6 0-0.3 0.2-0.6 0.5-0.9s0.8-0.5 1.2-0.6c-1.4-0.7-2.1-1.8-2.1-3.5 0-1.1 0.4-1.9 1.1-2.7 0.7-0.7 1.6-1.1 2.7-1.1 1 0 1.8 0.2 2.4 0.6l0.9-1.1 1.2 1.1-1.1 0.8c0.5 0.6 0.7 1.4 0.7 2.4s-0.3 1.9-0.9 2.6-1.5 1.1-2.5 1.2l-1.5 0.2c-0.2 0-0.4 0.1-0.7 0.2s-0.4 0.3-0.4 0.5c0 0.3 0.3 0.4 0.9 0.4 0.3 0 0.7 0 1.3-0.2 0.6-0.1 1-0.2 1.3-0.2 1 0 1.8 0.3 2.3 0.7 0.6 0.5 0.9 1.2 0.9 2 0 0.9-0.4 1.7-1.2 2.3-0.9 0.6-1.9 0.9-3.2 0.9-0.6 0-1.4-0.1-2.1-0.3-0.9-0.3-1.5-0.6-2-1zm3.8-11.7c-0.6 0-1.1 0.2-1.5 0.6s-0.6 1-0.6 1.6c0 0.7 0.2 1.3 0.6 1.8s0.9 0.7 1.5 0.7 1.1-0.2 1.5-0.7c0.3-0.5 0.6-1 0.6-1.8 0-0.6-0.2-1.2-0.6-1.6-0.4-0.3-0.9-0.6-1.5-0.6z"/><path class="st2" d="m42.9 58.6h-7.3c0 1.2 0.3 2.1 1 2.7 0.6 0.6 1.3 0.8 2.2 0.8 1 0 1.9-0.3 2.6-0.9l0.8 1.3c-0.3 0.3-0.7 0.5-1.3 0.7-0.7 0.3-1.5 0.4-2.4 0.4-1.3 0-2.4-0.4-3.3-1.3-1-0.9-1.5-2.2-1.5-3.9s0.5-3 1.5-4c0.9-0.9 2-1.4 3.2-1.4 1.5 0 2.6 0.4 3.4 1.2s1.2 1.8 1.2 3.1c0.1 0.6 0 1-0.1 1.3zm-4.3-3.9c-0.8 0-1.5 0.3-2 0.8s-0.8 1.1-0.9 1.8h5.6c0-0.7-0.2-1.3-0.7-1.8s-1.2-0.8-2-0.8z"/><path class="st2" d="m49.3 55.1c-0.4-0.3-0.8-0.4-1.2-0.4-0.6 0-1.2 0.3-1.7 0.9s-0.7 1.3-0.7 2.1v5.8h-1.8v-10.2h1.8v1.6c0.6-1.2 1.6-1.8 2.9-1.8 0.3 0 0.8 0 1.4 0.2 0.1 0.1 0.1 0.1-0.7 1.8z"/><path class="st2" d="m55.7 55.1c-0.4-0.3-0.8-0.4-1.2-0.4-0.6 0-1.2 0.3-1.7 0.9s-0.7 1.3-0.7 2.1v5.8h-1.8v-10.2h1.8v1.6c0.6-1.2 1.6-1.8 2.9-1.8 0.3 0 0.8 0 1.4 0.2 0.1 0.1 0.1 0.1-0.7 1.8z"/><path class="st2" d="m58.3 53.4v6.5c0 1.5 0.7 2.4 2 2.4 0.6 0 1.2-0.2 1.6-0.5 0.5-0.3 0.8-0.7 1-1.2v-7.1h1.8v10.2h-1.8v-1.4c-0.2 0.4-0.6 0.8-1.2 1.1s-1.2 0.5-1.8 0.5c-1.1 0-2-0.3-2.6-0.9s-0.9-1.5-0.9-2.7v-6.7c0.1-0.2 0.1-0.2 1.9-0.2z"/><path class="st2" d="m72.3 63.6v-5.9c0-1.1-0.2-1.8-0.5-2.3-0.3-0.4-0.9-0.6-1.6-0.6-0.4 0-0.9 0.1-1.3 0.4-0.5 0.3-0.8 0.6-1 0.9v7.6h-1.8v-10.2h1.2l0.6 1.3c0.6-1 1.5-1.5 2.9-1.5 2.2 0 3.3 1.4 3.3 4.1v6.3c0-0.1 0-0.1-1.8-0.1z"/><path class="st2" d="m81.9 63.5v-0.7c-0.6 0.6-1.5 0.9-2.7 0.9-1.3 0-2.3-0.5-3.1-1.4s-1.2-2.1-1.2-3.6 0.5-2.8 1.4-3.9 2-1.6 3.3-1.6c1 0 1.8 0.3 2.4 0.7v-4.7h1.8v14.3h-1.9zm0-7.8c-0.5-0.7-1.1-1-1.9-1-0.9 0-1.8 0.3-2.4 1.1s-0.9 1.6-0.9 2.7c0 2.4 1.1 3.6 3.3 3.6 0.3 0 0.6-0.1 1-0.3s0.6-0.3 0.7-0.6c0.2 0.2 0.2 0.2 0.2-5.5z"/><path class="st2" d="m90.6 50.8c-0.3-0.1-0.7-0.2-1-0.2-0.6 0-1 0.2-1.4 0.6-0.3 0.4-0.6 0.9-0.6 1.6v0.5h2.1v1.5h-2.1v8.6h-1.8v-8.6h-1.5v-1.5h1.5c0-1.3 0.3-2.3 0.9-3s1.5-1.1 2.5-1.1c0.5 0 1.1 0.1 1.7 0.3 0.2 0 0.2 0-0.3 1.3z"/><path class="st2" d="m92.9 53.4v6.5c0 1.5 0.7 2.4 2 2.4 0.6 0 1.2-0.2 1.6-0.5 0.5-0.3 0.8-0.7 1-1.2v-7.1h1.8v10.2h-1.8v-1.4c-0.2 0.4-0.6 0.8-1.2 1.1s-1.2 0.5-1.8 0.5c-1.1 0-2-0.3-2.6-0.9s-0.9-1.5-0.9-2.7v-6.7c0.1-0.2 0.1-0.2 1.9-0.2z"/><path class="st2" d="m106.9 63.6v-5.9c0-1.1-0.2-1.8-0.5-2.3-0.3-0.4-0.9-0.6-1.6-0.6-0.4 0-0.9 0.1-1.3 0.4-0.5 0.3-0.8 0.6-1 0.9v7.6h-1.8v-10.2h1.2l0.6 1.3c0.6-1 1.5-1.5 2.9-1.5 2.2 0 3.3 1.4 3.3 4.1v6.3c0-0.1 0-0.1-1.8-0.1z"/><polygon class="st2" transform="translate(-69,-57)" points="179.1 120.6 179.1 106.2 180.9 106.2 180.9 115.1 184.8 110.4 186.9 110.4 183.6 114.3 187.6 120.6 185.6 120.6 182.5 115.5 180.9 117.1 180.9 120.6"/></g>
</svg>
