<svg width="800" height="268.21" enable-background="new 0 0 155 45" version="1.1" viewBox="0 0 800 268.22" xml:space="preserve" xmlns="http://www.w3.org/2000/svg"><defs><clipPath id="clipPath29656"><path d="m344.71 529.21h13.93v4.67h-13.93z"/></clipPath><clipPath id="clipPath29640"><path d="m0 0h595.28v841.89h-595.28z"/></clipPath></defs><g transform="matrix(57.434 0 0 -57.434 -19798 30663)"><g clip-path="url(#clipPath29640)"><g transform="translate(356.93 533.87)"><path d="m0 0-0.897-3.06-0.904 3.06h-1.857v-1.588h0.811l1.176-3.062h1.507l1.879 4.65z" fill="#004697"/></g><g transform="translate(350.48 533.87)"><path d="m0 0v-1.595l1.378 9e-3v-3.064h1.594l1e-3 3.01v1.64z" fill="#004697"/></g></g></g><g transform="matrix(57.434 0 0 -57.434 -19798 30663)"><g clip-path="url(#clipPath29656)"><g transform="translate(350.36 530.81)"><path d="m0 0v3.066l-1.587 6e-3v-0.635c0.452-0.426 0.735-1.03 0.735-1.7s-0.283-1.274-0.735-1.7v-0.622h2.966v1.592z" fill="#e01c24"/></g><g transform="translate(347.05 530.79)"><path d="m0 0c-0.419 0-0.758 0.339-0.758 0.758 0 0.418 0.339 0.758 0.758 0.758s0.758-0.34 0.758-0.758c0-0.419-0.339-0.758-0.758-0.758m0 3.093c-1.29 0-2.335-1.046-2.335-2.335 0-1.29 1.045-2.336 2.335-2.336s2.335 1.046 2.335 2.336c0 1.289-1.045 2.335-2.335 2.335" fill="#e01c24"/></g></g></g></svg>
