<svg width="800" height="354.32" version="1.1" xmlns="http://www.w3.org/2000/svg">
 <defs>
  <linearGradient id="A-2" x1="77.329" x2="230.3" y1="144.04" y2=".009" gradientTransform="matrix(1.4178 0 0 1.4178 2.6339 -4.4018)" gradientUnits="userSpaceOnUse">
   <stop stop-color="#fff" offset="0"/>
   <stop stop-color="#fff" stop-opacity="0" offset="1"/>
  </linearGradient>
 </defs>
 <path d="m0.60445 191.18c0 31.375 24.263 62.332 92.87 62.332s93.289-30.957 93.289-62.332v-128.85c0-31.375-24.682-62.332-93.289-62.332s-92.87 30.957-92.87 62.332z" fill="#ae5b87" stroke-width="4.1834"/>
 <path d="m393.78 13.546c0-7.5112-2.5037-10.849-10.015-10.849h-35.469c-7.5111 0-10.432 3.3383-10.432 10.849v123.52c-3.7556-8.763-8.3458-19.612-12.519-27.124l-61.341-102.65c-1.2519-2.9211-4.1729-4.1729-9.1803-4.1729h-35.469c-7.5111 0-10.432 3.3383-10.432 10.849v225.33c0 7.5112 2.921 10.849 10.432 10.849l164.41-0.41729c7.5111 0 10.015-3.3383 10.015-10.849z" fill="#ae5b87" stroke-width="4.1729"/>
 <path d="m734.69 2.6995a9.9246 9.9246 0 0 0-2.0048 0.17722l-90.654 17.13c-5.4982 1.0392-9.9246 6.3007-9.9246 11.799v20.116c0 5.4982 4.4264 9.0881 9.9246 8.0503l49.936-9.434v159.64h-47.438c-5.4982 0-9.9246 4.4264-9.9246 9.9246v20.116c0 5.4982 4.4264 9.9246 9.9246 9.9246h145.52c5.4982 0 9.9246-4.4264 9.9246-9.9246v-20.114c0-5.4982-4.4264-9.9246-9.9246-9.9246h-47.438v-199.26c0-4.8106-3.3886-8.1609-7.9198-8.2275z" fill="#ae5b87" stroke-width="1.4178" paint-order="stroke fill markers"/>
 <g stroke-width=".6685">
  <path d="m733.31 342.68c0 2.674-2.4734 3.8104-5.2811 3.8104-2.8745 0-5.2143-1.1364-5.2143-3.8104v-17.247c0-2.674 2.4066-3.8104 5.2143-3.8104 2.8745 0 5.2811 1.1364 5.2811 3.8104zm-20.122 1.6712c0 5.0137 3.8773 9.9606 14.841 9.9606 10.963 0 14.908-4.9469 14.908-9.9606v-20.59c0-5.0137-3.9441-9.9606-14.908-9.9606-10.963 0-14.841 4.9469-14.841 9.9606z"/>
  <path d="m185.89 316c0-1.2033-0.4011-1.7381-1.6044-1.7381h-6.2839c-1.2033 0-1.6712 0.5348-1.6712 1.7381v36.099c0 1.2033 0.46794 1.7381 1.6712 1.7381h6.2839c1.2033 0 1.6044-0.5348 1.6044-1.7381z"/>
  <path d="m139.73 325.9c0 1.2033 0.40112 1.7381 1.6044 1.7381h6.0165c1.2033 0 1.6712-0.53478 1.6712-1.7381v-2.1392c0-5.0137-3.2756-9.9606-14.038-9.9606s-13.771 4.9469-13.771 9.9606v3.3425c0 3.3425 2.4734 6.6181 5.4148 7.7546l8.3562 3.1419c2.206 0.80219 5.0137 1.805 5.0137 3.8773v1.1364c0 2.674-2.3397 3.6768-5.1474 3.6768-2.8745 0-5.1475-1.0028-5.1475-3.6768v-2.6071c0-1.2033-0.40108-1.7381-1.6044-1.7381h-6.0165c-1.2033 0-1.6712 0.5348-1.6712 1.7381v3.8773c0 5.0137 3.6768 9.9606 14.573 9.9606 10.963 0 14.506-4.9469 14.506-9.9606v-4.0778c0-4.2784-2.9414-7.3535-7.2866-8.7573l-9.7601-3.3425c-0.6685-0.26739-1.8718-0.9359-1.8718-2.4734v-0.60165c0-2.674 1.9386-3.6767 4.6126-3.6767s4.5458 1.0028 4.5458 3.6767z"/>
  <path d="m73.372 316c0-1.2033-0.4011-1.7381-1.6044-1.7381h-6.2839c-1.2033 0-1.6712 0.5348-1.6712 1.7381v28.344c0 5.0137 3.8773 9.9606 14.841 9.9606s14.908-4.9469 14.908-9.9606v-28.344c0-1.2033-0.40111-1.7381-1.6044-1.7381h-6.2839c-1.2033 0-1.6712 0.5348-1.6712 1.7381v26.673c0 2.674-2.4734 3.8104-5.2811 3.8104-2.8745 0-5.2143-1.1364-5.2143-3.8104v-26.673z"/>
  <path d="m36.968 316c0-1.2033-0.4011-1.7381-1.6044-1.7381h-6.0165c-0.86905 0-1.337 0.2674-1.6044 0.80221l-7.6209 18.049c-1.1364 2.5403-1.6712 4.3452-1.6712 4.479-0.1337-0.20055-0.86906-2.6072-1.6712-4.6126l-7.8883-17.782c-0.2674-0.60166-0.66851-0.93591-1.5375-0.93591h-5.6822c-1.2033 0-1.6712 0.5348-1.6712 1.7381v36.099c0 1.2033 0.46795 1.7381 1.6712 1.7381h5.6822c1.2033 0 1.6044-0.5348 1.6044-1.7381v-18.25c0.1337 0.46795 0.86905 3.3425 1.5375 4.88l3.2088 7.3535c0.46795 1.0696 1.0696 1.7381 2.2061 1.7381h5.0806c1.1364 0 1.8049-0.60163 2.2729-1.7381l2.5403-6.3507c0.6685-1.8718 1.805-5.9496 1.8718-6.0834v18.451c0 1.2033 0.46795 1.7381 1.6712 1.7381h6.0165c1.2033 0 1.6044-0.5348 1.6044-1.7381z"/>
  <path d="m241.35 340.81c0-1.2033-0.40109-1.7381-1.6044-1.7381h-6.0165c-1.2033 0-1.6712 0.5348-1.6712 1.7381v1.8718c0 2.674-2.0055 3.8104-4.88 3.8104-2.8746 0-4.8132-1.1364-4.8132-3.8104v-17.247c0-2.674 2.0055-3.8104 4.8132-3.8104 2.8745 0 4.88 1.1364 4.88 3.8104v1.0028c0 1.2033 0.46795 1.7381 1.6712 1.7381h6.0165c1.2033 0 1.6044-0.53481 1.6044-1.7381v-2.674c0-5.0137-3.3425-9.9606-14.306-9.9606s-14.306 4.9469-14.306 9.9606v20.59c0 5.0137 3.3425 9.9606 14.306 9.9606s14.306-4.9469 14.306-9.9606z"/>
  <path d="m685.77 316c0-1.2033-0.4011-1.7381-1.6044-1.7381h-6.2839c-1.2033 0-1.6712 0.5348-1.6712 1.7381v36.099c0 1.2033 0.46795 1.7381 1.6712 1.7381h6.2839c1.2033 0 1.6044-0.5348 1.6044-1.7381z"/>
  <path d="m639.03 325.9c0 1.2033 0.4011 1.7381 1.6044 1.7381h6.0833c1.2033 0 1.6712-0.53478 1.6712-1.7381v-2.1392c0-5.0137-3.2756-9.9606-14.038-9.9606-10.763 0-13.771 4.9469-13.771 9.9606v3.3425c0 3.3425 2.4734 6.6181 5.4148 7.7546l8.3562 3.1419c2.206 0.80219 5.0137 1.805 5.0137 3.8773v1.1364c0 2.674-2.3398 3.6768-5.1474 3.6768-2.8745 0-5.1474-1.0028-5.1474-3.6768v-2.6071c0-1.2033-0.40108-1.7381-1.6044-1.7381h-6.0833c-1.2033 0-1.6712 0.5348-1.6712 1.7381v3.8773c0 5.0137 3.6767 9.9606 14.573 9.9606 10.963 0 14.506-4.9469 14.506-9.9606v-4.0778c0-4.2784-2.9414-7.3535-7.2866-8.7573l-9.7601-3.3425c-0.6685-0.26739-1.8718-0.9359-1.8718-2.4734v-0.60165c0-2.674 1.9386-3.6767 4.6126-3.6767s4.5458 1.0028 4.5458 3.6767z"/>
  <path d="m592.28 316c0-1.2033-0.4011-1.7381-1.6044-1.7381h-6.2839c-1.2033 0-1.6712 0.5348-1.6712 1.7381v36.099c0 1.2033 0.46796 1.7381 1.6712 1.7381h6.2839c1.2033 0 1.6044-0.5348 1.6044-1.7381z"/>
  <path d="m542.49 353.84c1.2033 0 1.8049-0.60165 2.1392-1.7381l10.562-36.099c0.33425-1.1364-0.0668-1.7381-1.2702-1.7381h-6.3507c-1.2033 0-1.7381 0.6685-2.0055 1.7381l-4.4121 16.311c-0.86904 3.2756-1.6044 9.4927-1.6044 9.4927s-0.60165-6.217-1.4707-9.4927l-4.3452-16.311c-0.2674-1.1364-0.8022-1.7381-2.0055-1.7381h-6.8855c-1.2033 0-1.6044 0.6685-1.2702 1.7381l10.562 36.099c0.33425 1.1364 0.93589 1.7381 2.1392 1.7381z"/>
  <path d="m494.29 353.84c1.2033 0 1.7381-0.46795 1.7381-1.6712v-4.5458c0-1.2033-0.53479-1.6044-1.7381-1.6044h-12.568v-8.7573h11.03c1.2033 0 1.7381-0.46795 1.7381-1.6712v-4.2784c0-1.2033-0.5348-1.6044-1.7381-1.6044h-11.03v-7.554h11.966c1.2033 0 1.7381-0.46795 1.7381-1.6712v-4.5458c0-1.2033-0.53478-1.6044-1.7381-1.6044h-19.921c-1.2033 0-1.6712 0.53481-1.6712 1.7381v36.099c0 1.2033 0.46793 1.7381 1.6712 1.7381h20.523z"/>
  <path d="m431.51 316c0-1.2033-0.40109-1.7381-1.6044-1.7381h-6.2839c-1.2033 0-1.6712 0.5348-1.6712 1.7381v36.099c0 1.1364 0.40109 1.7381 1.4707 1.7381h19.52c1.2033 0 1.7381-0.46795 1.7381-1.6712v-4.5458c0-1.2033-0.53479-1.6044-1.7381-1.6044h-11.431z"/>
  <path d="m392.79 353.84c1.2033 0 1.7381-0.46795 1.7381-1.6712v-4.5458c0-1.2033-0.5348-1.6044-1.7381-1.6044h-12.568v-8.7573h11.03c1.2033 0 1.7381-0.46795 1.7381-1.6712v-4.2784c0-1.2033-0.53478-1.6044-1.7381-1.6044h-11.03v-7.554h11.966c1.2033 0 1.7381-0.46795 1.7381-1.6712v-4.5458c0-1.2033-0.5348-1.6044-1.7381-1.6044h-19.921c-1.2033 0-1.6712 0.5348-1.6712 1.7381v36.099c0 1.2033 0.46795 1.7381 1.6712 1.7381h20.523z"/>
  <path d="m317.03 314.27c-1.2033 0-1.7381 0.4011-1.7381 1.6044v4.5458c0 1.2033 0.5348 1.6712 1.7381 1.6712h7.4203v29.949c0 1.2033 0.46794 1.7381 1.6712 1.7381h6.2839c1.2033 0 1.6044-0.5348 1.6044-1.7381v-29.882h7.4203c1.2033 0 1.7381-0.46795 1.7381-1.6712v-4.5458c0-1.2033-0.53478-1.6044-1.7381-1.6044h-24.4z"/>
  <path d="m799.98 316c0-1.2033-0.4011-1.7381-1.6044-1.7381h-5.6822c-1.2033 0-1.6712 0.5348-1.6712 1.7381v19.788c-0.60165-1.4038-1.337-3.1419-2.0055-4.3452l-9.8269-16.445c-0.20056-0.46796-0.66851-0.66851-1.4707-0.66851h-5.6822c-1.2033 0-1.6712 0.5348-1.6712 1.7381v36.099c0 1.2033 0.46794 1.7381 1.6712 1.7381h5.6822c1.2033 0 1.6044-0.5348 1.6044-1.7381v-19.788c0.66851 1.6044 1.5376 3.6767 2.4734 5.2143l9.2921 15.442c0.33425 0.60166 0.66851 0.80221 1.6044 0.80221h5.6822c1.2033 0 1.6044-0.5348 1.6044-1.7381z"/>
 </g>
 <path d="m557.13 249.73c7.5237 0 10.868-2.9259 10.868-10.45v-28.423c0-7.5238-3.3439-10.032-10.868-10.032h-78.582v-54.757h68.968c7.5237 0 10.868-2.9259 10.868-10.45v-26.751c0-7.5238-3.3438-10.032-10.868-10.032h-68.968v-47.233h74.82c7.5237 0 10.868-2.9259 10.868-10.45v-28.423c0-7.5238-3.3439-10.032-10.868-10.032h-124.56c-7.5236 0-10.45 3.3439-10.45 10.868v225.71c0 7.5238 2.9259 10.868 10.45 10.868h128.32z" fill="#ae5b87" stroke-width="4.1799"/>
 <path d="m245.15 3.1133-36.223 46.281v61.176c34.558-32.561 65.574-61.768 74.771-70.334l-19.689-32.949c-1.2519-2.9211-4.1723-4.1738-9.1797-4.1738h-9.6797z" fill="url(#A-2)" stop-color="#000000" stroke-width="1.4178" style="font-variation-settings:normal"/>
 <path d="m186.76 77.709-133.99 171.2 7.4863 1.6914c13.821-12.926 72.096-67.874 126.5-119.15v-53.74z" fill="url(#A-2)" stop-color="#000000" stroke-width="1.4178" style="font-variation-settings:normal"/>
</svg>
