<svg width="11.443mm" height="3.5002mm" version="1.1" viewBox="0 0 40.546 12.402" xmlns="http://www.w3.org/2000/svg">
 <g fill="#d20046">
  <path d="m4.9925 12.402c-3.0113 0-4.9925-1.354-4.9925-4.9724 0-3.4162 2.405-5.5587 5.4975-5.5587 3.295 0 4.9738 1.8388 4.9738 5.0325 0 3.3562-2.4462 5.4988-5.4788 5.4988m0.2837-7.3786c-0.7287 0-1.4562 0.5862-1.4562 2.0012 0 1.5575 0.38375 2.1838 1.375 2.1838 0.95 0 1.455-0.82875 1.455-2.0825 0-1.435-0.36375-2.1025-1.3738-2.1025"/>
  <path d="m36.373 0c2.3062 0 4.1738 1.8688 4.1738 4.1738 0 2.3062-1.8675 4.175-4.1738 4.175-2.305 0-4.1738-1.8688-4.1738-4.175 0-2.305 1.869-4.1738 4.174-4.1738m1.6762 5.865v-4.1788l-4.2012 1.5075v1.0388l1.3912-0.5025v3.14l2.81-1.005zm-1.676-5.2525c-1.9675 0-3.5625 1.595-3.5625 3.5612 0 1.9675 1.595 3.5625 3.5625 3.5625s3.5625-1.595 3.5625-3.5625c0-1.9662-1.595-3.5612-3.5625-3.5612"/>
  <path d="m30.868 8.2986h-5.7c0.06 0.7075 0.7275 1.2738 2.1625 1.2738 0.95 0 1.9612-0.1825 2.9712-0.6275l0.32375 2.75c-1.2125 0.485-2.6475 0.7075-3.8812 0.7075-3.375 0-5.2962-1.5775-5.2962-5.135 0-3.1125 1.7588-5.4175 5.0138-5.4175 3.1125 0 4.5275 2.0825 4.5275 4.8725 0 0.505-0.04 1.03-0.12125 1.5762m-4.4875-3.78c-0.7075 0-1.1925 0.56625-1.2325 1.395h2.2638c0.04-0.97125-0.38375-1.395-1.0312-1.395"/>
  <path d="m17 12.16v-6.3475c0-0.505-0.14125-0.82875-0.56625-0.82875-0.80875 0-1.5762 1.1725-1.5762 2.285v4.8912h-3.6788v-10.046h3.395c0 0.2625-0.02 0.88875-0.10125 1.3338h0.0213c0.62625-0.88875 1.6775-1.5762 3.2138-1.5762 2.2238 0 2.9712 1.455 2.9712 3.1738v7.115h-3.6788z"/>
 </g>
</svg>
