<svg viewBox="0 0 1417 400" xmlns="http://www.w3.org/2000/svg" xmlns:xlink="http://www.w3.org/1999/xlink">
 <g transform="translate(501.2 275.31)">
  <g transform="matrix(1.4867 0 0 1.4867 243.91 -13.962)">
   <path d="m-501.2-175.39h476.68v204.08h-476.68v-204.08z" fill="#ec1b24"/>
   <path id="c" d="m-341.91-73.35c0-33.32-27.01-59.04-60.709-59.04-33.712 0-60.718 25.718-60.718 59.04 0 33.31 27.01 59.02 60.718 59.02 33.703 0 60.709-25.708 60.709-59.02m-28.815 0c0 17.922-15.402 32.23-31.894 32.23-16.681 0-31.903-14.303-31.903-32.23 0-17.931 15.222-32.23 31.903-32.23 16.492 0 31.894 14.303 31.894 32.23" fill="#fff"/>
   <path id="b" d="m-301.72-16.494h27.915v-33.13h20.839l21.929 33.13h34.792l-28.09-39.832c13.224-5.797 22.469-18.291 22.469-33.684 0-22.639-16.671-40.2-42.05-40.2h-57.81v113.72zm56.18-59.932h-28.27v-26.987h28.27c12.144 0 15.772 5.977 15.772 13.403 0 7.606-3.628 13.583-15.772 13.583" fill="#fff"/>
   <path id="a" d="m-154.92-16.56h27.887v-38.29h52.705v-26.779h-52.705v-21.806h64.66v-26.779h-92.55v113.65z" fill="#fff"/>
   <path d="m-501.2-175.39h476.68v204.08h-476.68v-204.08z" fill="#e2001a"/>
   <use xlink:href="#c"/>
   <use xlink:href="#b"/>
   <use xlink:href="#a"/>
  </g>
 </g>
 <path d="m816.77 303.89c-0.557-0.294-9.566-4.272-20.02-8.839s-19.729-8.635-20.611-9.04-1.669-0.736-1.75-0.736-0.945-0.369-1.921-0.819c-0.976-0.451-2.763-1.275-3.971-1.833s-2.267-1.014-2.353-1.014c-0.39 0-8.475-3.776-8.915-4.164-0.469-0.413-0.493-6.721-0.493-125 0-107.1 0.056-124.62 0.4-124.97 0.22-0.22 2.535-1.324 5.146-2.455 2.611-1.13 4.873-2.149 5.03-2.265 0.155-0.115 0.599-0.306 0.987-0.423s1.466-0.563 2.397-0.991 2.687-1.235 3.902-1.795c1.216-0.56 2.27-1.018 2.342-1.018 0.136 0 1.953-0.792 3.907-1.702 4.979-2.32 36.779-16.13 37.22-16.16 0.563-0.042 0.564 0.153 0.635 151.87 0.067 144.55 0.047 151.91-0.423 151.9-0.272-7e-3 -0.949-0.253-1.506-0.548zm104.13 0.325c-0.153-0.141-2.245-1.115-4.649-2.164s-5.03-2.207-5.833-2.574c-0.804-0.367-1.528-0.667-1.609-0.667s-0.945-0.37-1.921-0.823c-3.965-1.838-6.203-2.843-6.329-2.843-0.073 0-0.792-0.309-1.596-0.687-0.805-0.378-9.885-4.366-20.18-8.861-10.294-4.496-18.828-8.285-18.964-8.422-0.392-0.392-0.322-249.05 0.07-249.52 0.175-0.211 0.435-0.383 0.578-0.383s1.209-0.444 2.368-0.987 2.177-0.987 2.26-0.987c0.084 0 0.811-0.309 1.615-0.687 0.805-0.378 9.584-4.234 19.509-8.569 17.829-7.787 19.805-8.658 23.12-10.189 0.931-0.43 2-0.879 2.384-0.997 0.381-0.119 1.967-0.81 3.525-1.536 5.479-2.553 6.655-2.983 6.939-2.534 0.153 0.241 1.421 61.6 0.189 151.97l-0.066 151.56-0.567 0.081c-0.312 0.045-0.693-0.034-0.846-0.175zm103-4e-3c-0.153-0.143-2.119-1.055-4.367-2.027-2.249-0.972-4.87-2.128-5.826-2.57s-1.806-0.803-1.891-0.803c-0.084 0-0.952-0.369-1.928-0.82s-2.981-1.349-4.454-1.995c-3.857-1.691-6.933-3.062-8.953-3.989-0.97-0.445-1.844-0.809-1.943-0.809s-0.701-0.254-1.339-0.564c-0.637-0.31-7.68-3.412-15.651-6.893s-14.601-6.438-14.734-6.571c-0.134-0.134-0.242-55.888-0.242-124.71 0-99.39 0.071-124.53 0.353-124.79 0.194-0.178 8.701-3.965 18.904-8.414s19.402-8.474 20.443-8.944 2.43-1.098 3.088-1.396c0.658-0.297 1.253-0.541 1.323-0.541s1.245-0.519 2.611-1.153 3.245-1.472 4.176-1.862 2.263-0.967 2.961-1.283c5.09-2.304 8.317-3.603 8.642-3.479 0.32 0.123 0.37 24.56 0.311 151.93l-0.071 151.78-0.567 0.081c-0.312 0.045-0.693-0.036-0.846-0.179z" fill="#565656"/>
 <g transform="scale(.96326 1.0381)">
  <path d="m72.903 381-27.14-36.704 25.957-27.05h-16.94l-25.866 27.87v-27.87h-14.03v63.754h14.03v-19.49l7.377-7.65 19.764 27.14z"/>
  <path d="m124.31 381v-48.817h-13.844v27.23c-0.03 3.283-0.812 5.757-2.345 7.423s-3.636 2.501-6.307 2.505c-2.66-4e-3 -4.717-0.839-6.17-2.505s-2.19-4.14-2.209-7.423v-27.23h-13.844v31.604c0.036 5.656 1.489 10.08 4.36 13.263 2.871 3.186 6.943 4.806 12.216 4.861 3.465-0.07 6.326-0.863 8.584-2.379s4.163-3.334 5.715-5.453v6.922z"/>
  <path d="m151.19 381v-66.49h-13.844v66.49z"/>
  <path d="m191.69 379v-11.11c-1 0.55-2.072 0.975-3.21 1.275s-2.345 0.452-3.62 0.455c-1.541 2e-3 -2.672-0.389-3.393-1.173s-1.078-1.971-1.07-3.563v-20.857h11.476v-11.84h-11.476v-12.478h-13.844v12.478h-5.829v11.84h5.829v23.13c0.063 5.552 1.372 9.407 3.928 11.567 2.556 2.159 5.983 3.191 10.28 3.097 2.305-9e-3 4.343-0.264 6.114-0.763 1.77-0.499 3.375-1.186 4.816-2.061z"/>
  <path d="m246.34 381v-48.817h-13.844v27.23c-0.03 3.283-0.812 5.757-2.345 7.423s-3.636 2.501-6.307 2.505c-2.66-4e-3 -4.717-0.839-6.17-2.505s-2.19-4.14-2.209-7.423v-27.23h-13.844v31.604c0.036 5.656 1.489 10.08 4.36 13.263 2.871 3.186 6.943 4.806 12.216 4.861 3.465-0.07 6.326-0.863 8.584-2.379s4.163-3.334 5.715-5.453v6.922z"/>
  <path d="m288.15 345.76v-14.481c-4.059-0.133-7.326 0.77-9.802 2.71-2.476 1.939-4.4 4.618-5.772 8.04v-9.836h-13.844v48.817h13.844v-18.03c0.044-5.818 1.368-10.144 3.973-12.978 2.605-2.835 6.229-4.246 10.872-4.235z"/>
  <path d="m365.37 381v-46.45h-4.463v26.868c-0.103 4.914-1.651 8.884-4.645 11.908-2.994 3.02-6.819 4.58-11.476 4.668-4.719-0.063-8.351-1.508-10.895-4.338-2.544-2.829-3.831-6.666-3.859-11.51v-27.596h-4.463v28.416c0.04 5.658 1.668 10.235 4.884 13.73s7.781 5.294 13.696 5.396c4.21-0.065 7.675-1.01 10.394-2.823 2.719-1.818 4.84-4.125 6.364-6.922v8.652z"/>
  <path d="m422.13 381v-28.416c-0.04-5.658-1.668-10.235-4.884-13.73s-7.781-5.294-13.696-5.396c-4.21 0.065-7.675 1.01-10.394 2.823-2.719 1.818-4.84 4.125-6.364 6.922v-8.652h-4.463v46.45h4.463v-26.868c0.102-4.914 1.651-8.884 4.645-11.908 2.994-3.02 6.819-4.58 11.476-4.668 4.719 0.063 8.351 1.509 10.895 4.338s3.831 6.666 3.859 11.51v27.596z"/>
  <path d="m481.36 381v-66.49h-4.463v30.06c-1.89-3.01-4.394-5.594-7.514-7.742-3.119-2.148-6.99-3.271-11.612-3.37-5.842 0.068-11.01 2.231-15.494 6.489-4.487 4.258-6.852 10.201-7.093 17.828v0.182c0.241 7.62 2.605 13.533 7.093 17.737 4.487 4.205 9.652 6.337 15.494 6.398 4.571-0.097 8.408-1.247 11.51-3.45s5.641-4.878 7.616-8.03v10.383zm-4.19-23.13c-0.186 6.01-2.137 10.815-5.852 14.413s-8.08 5.442-13.09 5.533c-5.02-0.072-9.277-1.886-12.762-5.442-3.486-3.556-5.303-8.421-5.453-14.595v-0.182c0.127-6.286 1.899-11.155 5.317-14.606 3.417-3.451 7.717-5.201 12.899-5.248 5.01 0.085 9.377 1.918 13.09 5.499 3.715 3.58 5.666 8.396 5.852 14.447z"/>
  <path d="m539.55 381v-63.754h-14.03v63.754z"/>
  <path d="m598.75 381v-31.604c-0.036-5.656-1.49-10.08-4.36-13.263-2.871-3.186-6.943-4.806-12.216-4.861-3.465 0.07-6.326 0.863-8.584 2.379s-4.163 3.334-5.715 5.453v-6.922h-13.844v48.817h13.844v-27.23c0.03-3.283 0.812-5.757 2.345-7.423s3.635-2.501 6.307-2.505c2.66 4e-3 4.717 0.839 6.17 2.505s2.19 4.14 2.209 7.423v27.23z"/>
  <path d="m638.1 326.72v-11.476c-1.252-0.415-2.664-0.746-4.235-0.99-1.571-0.245-3.438-0.37-5.601-0.376-4.894-0.019-8.631 1.249-11.214 3.802-2.582 2.554-3.884 6.508-3.905 11.863v3.097h-5.738v11.385h5.738v36.977h13.844v-36.977h11.02v-11.294h-11.202v-1.913c9e-3 -1.814 0.446-3.15 1.309-4.01 0.863-0.858 2.097-1.283 3.7-1.275 1.173 4e-3 2.266 0.11 3.279 0.319s2.02 0.497 3.01 0.865z"/>
  <path d="m696.1 356.68v-0.182c-0.152-7.187-2.649-13.145-7.491-17.874-4.842-4.728-11.12-7.18-18.83-7.354-7.759 0.182-14.08 2.664-18.955 7.446-4.878 4.782-7.394 10.77-7.548 17.965v0.182c0.152 7.188 2.649 13.145 7.491 17.874 4.842 4.728 11.12 7.18 18.83 7.354 7.759-0.182 14.08-2.664 18.955-7.446 4.878-4.782 7.394-10.77 7.548-17.965zm-13.662 0.182c-0.032 3.702-1.152 6.818-3.358 9.347-2.207 2.529-5.307 3.846-9.301 3.95-3.882-0.112-6.979-1.459-9.29-4.04-2.311-2.582-3.495-5.728-3.552-9.438v-0.182c0.032-3.702 1.152-6.817 3.358-9.347 2.207-2.529 5.307-3.846 9.301-3.95 3.882 0.112 6.979 1.459 9.29 4.04 2.311 2.582 3.495 5.728 3.552 9.438z"/>
  <path d="m735.54 345.76v-14.481c-4.059-0.133-7.326 0.77-9.802 2.71-2.476 1.939-4.4 4.618-5.772 8.04v-9.836h-13.844v48.817h13.844v-18.03c0.044-5.818 1.368-10.144 3.973-12.978 2.605-2.835 6.229-4.246 10.872-4.235z"/>
  <path d="m818.69 381v-31.786c-0.044-5.888-1.505-10.347-4.383-13.377s-6.912-4.552-12.1-4.565c-3.309 1e-3 -6.277 0.674-8.903 1.992-2.626 1.319-5 3.235-7.127 5.749-1.29-2.474-3.104-4.379-5.442-5.715s-5.108-2.01-8.311-2.026c-3.469 0.07-6.345 0.863-8.63 2.379s-4.205 3.334-5.761 5.453v-6.922h-13.844v48.817h13.844v-27.23c0.025-3.283 0.772-5.757 2.243-7.423 1.47-1.666 3.516-2.501 6.136-2.505 2.609 4e-3 4.609 0.839 6 2.505s2.093 4.14 2.106 7.423v27.23h13.844v-27.23c0.025-3.283 0.772-5.757 2.243-7.423 1.47-1.666 3.516-2.501 6.136-2.505 2.609 4e-3 4.609 0.839 6 2.505s2.093 4.14 2.106 7.423v27.23z"/>
  <path d="m872.63 381v-28.325c0.038-6.654-1.7-11.812-5.214-15.472s-9.03-5.516-16.553-5.567c-4.08 0.015-7.601 0.372-10.565 1.07s-5.757 1.647-8.379 2.846l3.461 10.565c2.184-0.827 4.328-1.472 6.432-1.935s4.453-0.698 7.05-0.706c3.465 0.013 6.076 0.784 7.833 2.311s2.637 3.732 2.641 6.614v0.82c-1.704-0.601-3.51-1.083-5.419-1.446-1.909-0.362-4.08-0.548-6.512-0.558-5.88-0.017-10.605 1.247-14.174 3.791s-5.402 6.472-5.499 11.783v0.182c0.123 4.846 1.767 8.542 4.93 11.09 3.163 2.546 7.106 3.829 11.829 3.848 3.353-0.025 6.233-0.59 8.641-1.696s4.446-2.605 6.114-4.497v5.282zm-13.12-17.214c-0.048 2.548-1.046 4.601-2.994 6.159-1.949 1.558-4.563 2.359-7.844 2.402-2.267-0.013-4.085-0.533-5.453-1.56s-2.07-2.48-2.106-4.36v-0.182c0.029-2.193 0.882-3.863 2.562-5.01 1.679-1.146 4.01-1.723 7-1.73 1.694 8e-3 3.292 0.175 4.793 0.501s2.848 0.767 4.04 1.321z"/>
  <path d="m911.96 379v-11.11c-1 0.55-2.072 0.975-3.21 1.275-1.139 0.3-2.345 0.452-3.62 0.455-1.541 2e-3 -2.672-0.389-3.393-1.173s-1.078-1.971-1.07-3.563v-20.857h11.476v-11.84h-11.476v-12.478h-13.844v12.478h-5.829v11.84h5.829v23.13c0.063 5.552 1.372 9.407 3.928 11.567 2.556 2.159 5.983 3.191 10.28 3.097 2.305-9e-3 4.343-0.264 6.114-0.763 1.77-0.499 3.375-1.186 4.816-2.061z"/>
  <path d="m937.1 326.81v-12.295h-14.572v12.295zm-0.364 54.19v-48.817h-13.844v48.817z"/>
  <path d="m1000.3 356.68v-0.182c-0.152-7.187-2.649-13.145-7.491-17.874-4.842-4.728-11.12-7.18-18.83-7.354-7.759 0.182-14.08 2.664-18.955 7.446-4.878 4.782-7.394 10.77-7.548 17.965v0.182c0.152 7.188 2.649 13.145 7.491 17.874 4.842 4.728 11.12 7.18 18.83 7.354 7.759-0.182 14.08-2.664 18.955-7.446 4.878-4.782 7.394-10.77 7.548-17.965zm-13.661 0.182c-0.032 3.702-1.152 6.818-3.358 9.347-2.207 2.529-5.307 3.846-9.301 3.95-3.882-0.112-6.979-1.459-9.29-4.04-2.311-2.582-3.495-5.728-3.552-9.438v-0.182c0.032-3.702 1.152-6.817 3.358-9.347 2.207-2.529 5.307-3.846 9.301-3.95 3.882 0.112 6.979 1.459 9.29 4.04 2.311 2.582 3.495 5.728 3.552 9.438z"/>
  <path d="m1055 381v-31.604c-0.036-5.656-1.49-10.08-4.36-13.263-2.871-3.186-6.943-4.806-12.216-4.861-3.465 0.07-6.326 0.863-8.584 2.379s-4.163 3.334-5.715 5.453v-6.922h-13.844v48.817h13.844v-27.23c0.03-3.283 0.812-5.757 2.345-7.423s3.636-2.501 6.307-2.505c2.66 4e-3 4.717 0.839 6.17 2.505s2.19 4.14 2.209 7.423v27.23z"/>
 </g>
 <g transform="matrix(2.8085 0 0 2.8085 -1131.3 -462.35)">
  <g transform="matrix(1.8174 0 0 1.8174 -387.85 -378.27)" fill="#e2001a">
   <path d="m671.91 345.45v-33.3h-8.166v12.355h-13.574v-12.355h-8.165v33.3h8.165v-13.1h13.574v13.1h8.166zm40.658-16.649c0-8.802-6.787-16.649-17.762-16.649h-15.218v33.3h15.218c10.764 0 17.762-7.847 17.762-16.649m-8.165 0c0 4.825-3.606 8.802-9.597 8.802h-7.105v-17.605h7.105c5.991 0 9.597 3.978 9.597 8.802"/>
   <path d="m702.9 310.4c1.209 0.449 2.326 1.01 3.381 1.639v-12.955h-59.44v9.708h3.381v-6.327h52.68v7.935zm-52.68 38.541h-3.381v9.586h59.44v-12.928c-1.057 0.641-2.175 1.209-3.381 1.667v7.881h-52.68v-6.205z"/>
  </g>
 </g>
</svg>
