<svg version="1.1" viewBox="0 0 734.42 86.228" xmlns="http://www.w3.org/2000/svg">
 <g transform="translate(-5.6277 -965.21)" fill="#fff">
  <g transform="matrix(3.0065 0 0 3.0065 1615.8 -684.04)" fill="#fff">
   <path d="m-518 562.84c-2e-5 -1.4404-0.06-2.6806-0.18006-3.7207-0.12005-1.04-0.30011-1.9466-0.54016-2.7197-0.10663-0.34666-0.27996-0.7267-0.52002-1.1401-0.24009-0.41339-0.56011-0.79343-0.96008-1.1401-0.4-0.34666-0.87994-0.64004-1.4398-0.88013-0.55991-0.24005-1.2134-0.36008-1.9604-0.36011-0.93344 3e-5 -1.7867 0.22016-2.5598 0.6604-0.77313 0.44029-1.3599 1.0336-1.7603 1.7798-0.93262 1.7603-1.3989 4.2936-1.3989 7.6001-1e-5 4.8267 0.8264 7.8267 2.4792 9.0002 0.87971 0.63965 1.9865 0.95948 3.3203 0.95947 1.9466 1e-5 3.3532-0.78653 4.22-2.3596 0.86668-1.5731 1.3-4.1329 1.3-7.6794zm6.4404-0.16113c-3e-5 3.147-0.52676 5.8539-1.5802 8.1207-1.0535 2.2668-2.5938 3.9602-4.621 5.08-0.85288 0.45329-1.6992 0.77983-2.5391 0.97961-0.83986 0.19979-1.8465 0.29969-3.02 0.29969-2.1069 0-3.8737-0.3066-5.3003-0.9198s-2.6734-1.6132-3.7402-2.9999c-2.133-2.7466-3.1995-6.1865-3.1995-10.32 0-3.0135 0.54667-5.6535 1.64-7.9199 1.0933-2.2664 2.6398-3.9599 4.6393-5.0806 0.82681-0.45326 1.7336-0.79323 2.7203-1.0199 0.98672-0.22662 2.0001-0.33994 3.0402-0.33997 1.84 3e-5 3.4999 0.32677 4.9799 0.98023 1.4799 0.65351 2.7398 1.5936 3.7799 2.8204 1.04 1.2268 1.8335 2.7067 2.3804 4.4397 0.54685 1.733 0.82029 3.6928 0.82032 5.8795z"/>
   <path d="m-494.53 557.2c-1e-5 -1.7863-0.66652-2.9195-1.9995-3.3997-0.31984-0.13344-0.75319-0.23354-1.3-0.30029-0.54688-0.0667-1.167-0.10007-1.8604-0.1001h-1.9995v7.5208h1.8799c1.2004 2e-5 2.1071-0.0667 2.7203-0.20019 0.61319-0.13345 1.1066-0.37352 1.4801-0.72022 0.71939-0.66648 1.0791-1.5999 1.0791-2.8003zm0.92041 19.52c-0.26694-0.45328-0.5003-0.85327-0.70007-1.2-0.1998-0.34668-0.3998-0.68664-0.59998-1.0199-0.20021-0.33325-0.4002-0.68665-0.59997-1.0602-0.1998-0.37353-0.43316-0.80037-0.70007-1.2805-0.69338-1.2532-1.2734-2.2931-1.7401-3.1195-0.46672-0.82641-0.87342-1.4929-1.2201-1.9995-0.34669-0.50658-0.64658-0.88663-0.89966-1.1401-0.2531-0.25349-0.49968-0.43354-0.73974-0.54016-0.2938-0.13345-0.58717-0.21361-0.88013-0.24048v11.6h-5.4797v-27.8h10.36c1.2264 3e-5 2.3397 0.19351 3.3398 0.58045 1.0002 0.38699 1.8601 0.94037 2.58 1.6602 0.71979 0.71983 1.273 1.5798 1.6596 2.58 0.38653 1.0002 0.57981 2.1135 0.57983 3.3398-2e-5 1.0401-0.15993 2.0201-0.47974 2.9401-0.31984 0.92001-0.7597 1.7267-1.3196 2.42-0.55991 0.69337-1.2199 1.2468-1.98 1.6602-0.7601 0.41342-1.567 0.63315-2.4206 0.65918 0.29377 0.21404 0.5139 0.40101 0.6604 0.56091 0.14647 0.15992 0.3133 0.35991 0.50049 0.59997 0.18634 0.24009 0.43292 0.58677 0.73974 1.04 0.30679 0.4533 0.63353 0.95318 0.98023 1.4996 0.34666 0.54647 0.70656 1.133 1.0797 1.7596 0.37311 0.62663 0.74644 1.2468 1.12 1.8604 0.87969 1.4396 1.7997 2.9862 2.76 4.6399z"/>
   <path d="m-469.37 553.44h-8.8403v6.3599h7.0801v4.5606h-7.0801v12.36h-5.5994v-27.8h15.079z"/>
   <path d="m-440.8 576.72h-17.161v-3.7598c0.40039-0.37353 0.88725-0.84696 1.4606-1.4203 0.57331-0.57332 1.1666-1.1733 1.7798-1.7999 0.61319-0.62662 1.2266-1.2532 1.8402-1.8799 0.6136-0.62662 1.147-1.1934 1.6003-1.7004 0.87971-0.98632 1.6062-1.8795 2.1796-2.6794 0.57331-0.79996 1.0201-1.5334 1.3403-2.2003 0.32022-0.66689 0.54015-1.2736 0.65979-1.8201 0.11962-0.54645 0.17943-1.0463 0.17944-1.4996-1e-5 -0.69334-0.0867-1.2667-0.26001-1.72-0.17335-0.45327-0.41322-0.81989-0.7196-1.0999-0.30641-0.27992-0.6596-0.47991-1.0596-0.59997-0.4-0.12001-0.82663-0.18003-1.2799-0.18005-0.85369 2e-5 -1.7271 0.20652-2.6202 0.6195-0.89315 0.41303-1.9 1.0862-3.0206 2.0197l-2.8796-3.3997c1.4404-1.2801 2.9606-2.2601 4.5606-2.9401 1.5999-0.6799 3.4399-1.0199 5.52-1.0199 1.1995 2e-5 2.2794 0.18679 3.2398 0.5603 0.96027 0.37356 1.7804 0.89358 2.4603 1.5601 0.67992 0.66653 1.1997 1.473 1.5594 2.4194 0.35968 0.94647 0.53953 1.98 0.53955 3.1006-2e-5 1.4396-0.41994 2.9195-1.2598 4.4397s-1.9796 3.0668-3.4192 4.6399c-0.61362 0.66651-1.3404 1.4199-2.1802 2.2601-0.83985 0.84026-1.7 1.6734-2.5806 2.4994-0.21322 0.21403-0.46652 0.45431-0.75988 0.72082-0.29339 0.26653-0.54668 0.46652-0.75989 0.59998 0.45328-0.0537 1.0998-0.1005 1.9397-0.14038 0.83983-0.0399 1.5934-0.0598 2.2607-0.0598h7.9993z"/>
   <path d="m-425.92 576.72v-27.8h15.84l-0.72022 4.5606h-9.5203v6.4392h7.9602v4.5605h-7.8796v7.4402h10.52v4.7998z"/>
   <path d="m-386.23 567.64c-2e-5 0.66652-7e-3 1.213-0.0201 1.6394-0.0135 0.42644-0.0334 0.78634-0.0598 1.0797-0.0265 0.29338-0.0663 0.56682-0.11963 0.82031-0.0533 0.25351-0.13329 0.52674-0.23987 0.81971-0.1872 0.56071-0.50072 1.1477-0.94055 1.7609-0.43988 0.6132-1.0399 1.1798-1.7999 1.6998-0.76011 0.52002-1.6933 0.94665-2.7997 1.2799s-2.4062 0.49987-3.8995 0.49987c-2.1338 0-3.9606-0.31331-5.4804-0.93994-1.5198-0.62662-2.6666-1.5531-3.4406-2.7795-0.24007-0.34667-0.43335-0.69335-0.57983-1.04-0.14649-0.34667-0.26632-0.72-0.3595-1.12-0.0932-0.39998-0.15991-0.84676-0.20019-1.3403-0.0403-0.49357-0.0604-1.0736-0.0604-1.7401v-19.36h5.7202v18.28c-1e-5 0.85369 0.0401 1.5472 0.12024 2.0807 0.0802 0.53345 0.19998 0.94666 0.35949 1.2396 0.6665 1.2801 1.9332 1.9202 3.8 1.9202 1.2272 0 2.2074-0.28666 2.9407-0.85999 0.73321-0.57331 1.1666-1.3666 1.3-2.3798 0.0529-0.29377 0.0793-0.59386 0.0794-0.90027-2e-5 -0.30638-2e-5 -0.83312 0-1.5802v-17.8h5.6799z"/>
   <path d="m-368.04 557.2c-2e-5 -1.7863-0.66652-2.9195-1.9995-3.3997-0.31984-0.13344-0.75319-0.23354-1.3-0.30029-0.54689-0.0667-1.167-0.10007-1.8604-0.1001h-1.9995v7.5208h1.8799c1.2003 2e-5 2.1071-0.0667 2.7203-0.20019 0.61319-0.13345 1.1066-0.37352 1.4801-0.72022 0.71938-0.66648 1.0791-1.5999 1.0791-2.8003zm0.92041 19.52c-0.26694-0.45328-0.5003-0.85327-0.70007-1.2-0.19981-0.34668-0.3998-0.68664-0.59998-1.0199-0.20021-0.33325-0.4002-0.68665-0.59998-1.0602-0.1998-0.37353-0.43316-0.80037-0.70007-1.2805-0.69337-1.2532-1.2734-2.2931-1.7401-3.1195-0.46673-0.82641-0.87343-1.4929-1.2201-1.9995-0.34669-0.50658-0.64658-0.88663-0.89966-1.1401-0.2531-0.25349-0.49969-0.43354-0.73975-0.54016-0.29379-0.13345-0.58717-0.21361-0.88013-0.24048v11.6h-5.4797v-27.8h10.36c1.2264 3e-5 2.3397 0.19351 3.3398 0.58045 1.0001 0.38699 1.8601 0.94037 2.58 1.6602 0.71978 0.71983 1.273 1.5798 1.6595 2.58 0.38654 1.0002 0.57981 2.1135 0.57984 3.3398-3e-5 1.0401-0.15994 2.0201-0.47974 2.9401-0.31985 0.92001-0.75971 1.7267-1.3196 2.42-0.55992 0.69337-1.2199 1.2468-1.98 1.6602-0.76011 0.41342-1.567 0.63315-2.4207 0.65918 0.29377 0.21404 0.5139 0.40101 0.6604 0.56091 0.14647 0.15992 0.3133 0.35991 0.50049 0.59997 0.18635 0.24009 0.43293 0.58677 0.73975 1.04 0.30678 0.4533 0.63353 0.95318 0.98022 1.4996 0.34666 0.54647 0.70657 1.133 1.0797 1.7596 0.3731 0.62663 0.74644 1.2468 1.12 1.8604 0.8797 1.4396 1.7997 2.9862 2.76 4.6399z"/>
   <path d="m-340.96 562.84c-2e-5 -1.4404-0.06-2.6806-0.18006-3.7207-0.12005-1.04-0.30011-1.9466-0.54016-2.7197-0.10663-0.34666-0.27996-0.7267-0.52002-1.1401-0.24009-0.41339-0.56011-0.79343-0.96008-1.1401-0.4-0.34666-0.87994-0.64004-1.4398-0.88013-0.55991-0.24005-1.2134-0.36008-1.9604-0.36011-0.93344 3e-5 -1.7867 0.22016-2.5598 0.6604-0.77313 0.44029-1.3599 1.0336-1.7603 1.7798-0.93262 1.7603-1.3989 4.2936-1.3989 7.6001-1e-5 4.8267 0.8264 7.8267 2.4792 9.0002 0.87971 0.63965 1.9865 0.95948 3.3203 0.95947 1.9466 1e-5 3.3532-0.78653 4.22-2.3596 0.86668-1.5731 1.3-4.1329 1.3-7.6794zm6.4404-0.16113c-3e-5 3.147-0.52676 5.8539-1.5802 8.1207-1.0535 2.2668-2.5938 3.9602-4.621 5.08-0.85288 0.45329-1.6992 0.77983-2.5391 0.97961-0.83986 0.19979-1.8465 0.29969-3.02 0.29969-2.1069 0-3.8737-0.3066-5.3003-0.9198s-2.6734-1.6132-3.7402-2.9999c-2.133-2.7466-3.1995-6.1865-3.1995-10.32 0-3.0135 0.54667-5.6535 1.64-7.9199 1.0933-2.2664 2.6398-3.9599 4.6393-5.0806 0.82681-0.45326 1.7336-0.79323 2.7203-1.0199 0.98672-0.22662 2.0001-0.33994 3.0402-0.33997 1.84 3e-5 3.4999 0.32677 4.9799 0.98023 1.4799 0.65351 2.7398 1.5936 3.7799 2.8204 1.04 1.2268 1.8335 2.7067 2.3804 4.4397 0.54685 1.733 0.82029 3.6928 0.82032 5.8795z"/>
   <path d="m-317.22 557.6c-1e-5 -1.3069-0.32675-2.327-0.98022-3.0603-0.6535-0.73321-1.58-1.0998-2.7795-1.0999h-3.5608v8.4802h2.9199c0.55988 1e-5 1.0333-0.0199 1.4203-0.0598 0.38695-0.0399 0.7204-0.11331 1.0004-0.22034 0.27994-0.107 0.51981-0.25369 0.71961-0.44007 0.19977-0.18634 0.39325-0.42641 0.58044-0.72021 0.24006-0.37352 0.4134-0.78022 0.52002-1.2201 0.1066-0.43985 0.1599-0.99303 0.15991-1.6596zm6.1194-0.11963c-2e-5 1.84-0.41994 3.4666-1.2598 4.8798s-2.0199 2.4799-3.54 3.2001c-0.31984 0.15951-0.64637 0.29257-0.97961 0.39917-0.33327 0.10661-0.7066 0.2-1.12 0.28015-0.41343 0.0802-0.90008 0.14019-1.46 0.18005-0.5599 0.0399-1.2268 0.0598-2.0007 0.0598h-3.0798v10.24h-5.5994v-27.8h7.3193c1.1735 3e-5 2.1669 0.0267 2.9804 0.08 0.81338 0.0533 1.5067 0.14 2.0801 0.26001 0.57331 0.12006 1.06 0.26675 1.46 0.44006 0.39997 0.17337 0.80016 0.36665 1.2006 0.57983 1.3061 0.72025 2.2992 1.7005 2.9791 2.9407 0.67991 1.2403 1.0199 2.6603 1.0199 4.2602z"/>
   <path d="m-307.48 576.72v-27.8h15.84l-0.72022 4.5606h-9.5203v6.4392h7.9602v4.5605h-7.8796v7.4402h10.52v4.7998z"/>
  </g>
 </g>
</svg>
