<!DOCTYPE svg  PUBLIC '-//W3C//DTD SVG 1.1//EN'  'http://www.w3.org/Graphics/SVG/1.1/DTD/svg11.dtd'>
<svg enable-background="new 0 0 681.143 204.084" version="1.1" viewBox="0 0 681.14 204.08" xml:space="preserve" xmlns="http://www.w3.org/2000/svg">
<g transform="translate(-84.897 82.001)">
		<path d="m561.98-82.001h204.08v204.08h-204.08v-204.08z" fill="#fff"/>
		<path d="m84.897-82.001h476.68v204.08h-476.68v-204.08z" fill="#EC1B24"/>
		<path d="m244.18 20.046c0-33.324-27.006-59.042-60.709-59.042-33.712 0-60.718 25.718-60.718 59.042 0 33.314 27.006 59.022 60.718 59.022 33.703 0 60.709-25.708 60.709-59.022m-28.815 0c0 17.922-15.402 32.226-31.894 32.226-16.681 0-31.903-14.304-31.903-32.226 0-17.932 15.223-32.234 31.903-32.234 16.492-1e-3 31.894 14.302 31.894 32.234" fill="#fff"/>
		<path d="m284.38 76.899h27.916v-33.135h20.839l21.929 33.135h34.792l-28.086-39.832c13.223-5.797 22.469-18.291 22.469-33.684 0-22.639-16.672-40.201-42.049-40.201h-57.81v113.72zm56.181-59.932h-28.266v-26.987h28.266c12.144 0 15.771 5.977 15.771 13.403 0 7.607-3.628 13.584-15.771 13.584" fill="#fff"/>
		<path d="m431.17 76.833h27.886v-38.287h52.705v-26.78h-52.705v-21.806h64.66v-26.778h-92.546v113.65z" fill="#fff"/>
		<path d="m706-3.266c0-20.574-16.861-38.184-43.572-38.184-20.178 0-35.807 7.777-48.215 27.991l24.816 11.859c5.4-9.634 12.979-14.455 22.262-14.455s16.197 6.119 16.197 12.418c0 4.263-1.895 8.346-7.672 12.788l-52.951 41.906v26.135h88.756v-26.512h-47.078l27.66-20.943c11.84-8.895 19.797-19.837 19.797-33.003" fill="#fff"/>
		<linearGradient id="a" x1="626.52" x2="451.71" y1="20.041" y2="20.041" gradientUnits="userSpaceOnUse">
			<stop stop-color="#fff" offset="0"/>
			<stop offset="1"/>
		</linearGradient>
		<path d="M561.6-82.001h71.749v204.084H561.6V-82.001z" fill="url(#a)"/>
		<path d="m84.897-82.001h476.68v204.08h-476.68v-204.08z" fill="#E2001A"/>
		<path d="m244.18 20.046c0-33.324-27.006-59.042-60.709-59.042-33.712 0-60.718 25.718-60.718 59.042 0 33.314 27.006 59.022 60.718 59.022 33.703 0 60.709-25.708 60.709-59.022m-28.815 0c0 17.922-15.402 32.226-31.894 32.226-16.681 0-31.903-14.304-31.903-32.226 0-17.932 15.223-32.234 31.903-32.234 16.492-1e-3 31.894 14.302 31.894 32.234" fill="#fff"/>
		<path d="m284.38 76.899h27.916v-33.135h20.839l21.929 33.135h34.792l-28.086-39.832c13.223-5.797 22.469-18.291 22.469-33.684 0-22.639-16.672-40.201-42.049-40.201h-57.81v113.72zm56.181-59.932h-28.266v-26.987h28.266c12.144 0 15.771 5.977 15.771 13.403 0 7.607-3.628 13.584-15.771 13.584" fill="#fff"/>
		<path d="m431.17 76.833h27.886v-38.287h52.705v-26.78h-52.705v-21.806h64.66v-26.778h-92.546v113.65z" fill="#fff"/>
		<path d="m706-3.266c0-20.574-16.861-38.184-43.572-38.184-20.178 0-35.807 7.777-48.215 27.991l24.816 11.859c5.4-9.634 12.979-14.455 22.262-14.455s16.197 6.119 16.197 12.418c0 4.263-1.895 8.346-7.672 12.788l-52.951 41.906v26.135h88.756v-26.512h-47.078l27.66-20.943c11.84-8.895 19.797-19.837 19.797-33.003" fill="#E2001A"/>
</g>
</svg>
