<svg width="1404.6" height="313.57" version="1.1" viewBox="0 0 140.46 31.357" xmlns="http://www.w3.org/2000/svg">
 <link href="" rel="stylesheet" type="text/css"/>
 <style type="text/css"/>
 <g transform="translate(.3 -33.355)">
  <g transform="matrix(.10335 0 0 .10335 51.5 61.747)">
   <g transform="matrix(1.4867 0 0 1.4867 243.91 -13.962)" font-size="10px" letter-spacing="0" word-spacing="0">
    <path d="m-501.2-175.39h476.68v204.08h-476.68z" fill="#ec1b24"/>
    <path d="m-341.91-73.347c0-33.324-27.006-59.042-60.709-59.042-33.712 0-60.718 25.718-60.718 59.042 0 33.315 27.006 59.023 60.718 59.023 33.703 0 60.709-25.708 60.709-59.023m-28.815 0c0 17.922-15.402 32.225-31.894 32.225-16.681 0-31.903-14.303-31.903-32.225 0-17.931 15.222-32.235 31.903-32.235 16.492 0 31.894 14.303 31.894 32.235" fill="#fff"/>
    <path d="m-301.72-16.494h27.915v-33.135h20.839l21.929 33.135h34.792l-28.086-39.832c13.224-5.7971 22.469-18.291 22.469-33.684 0-22.639-16.671-40.201-42.048-40.201h-57.81zm56.181-59.932h-28.266v-26.987h28.266c12.144 0 15.772 5.977 15.772 13.403 0 7.6064-3.6279 13.583-15.772 13.583" fill="#fff"/>
    <path d="m-154.92-16.56h27.887v-38.288h52.705v-26.779h-52.705v-21.806h64.659v-26.779h-92.546z" fill="#fff"/>
    <path d="m-501.2-175.39h476.68v204.08l-476.68 2.03e-4z" fill="#e2001a"/>
    <path d="m-341.91-73.347c0-33.324-27.006-59.042-60.709-59.042-33.712 0-60.718 25.718-60.718 59.042 0 33.315 27.006 59.023 60.718 59.023 33.703 0 60.709-25.708 60.709-59.023m-28.815 0c0 17.922-15.402 32.225-31.894 32.225-16.681 0-31.903-14.303-31.903-32.225 0-17.931 15.222-32.235 31.903-32.235 16.492 0 31.894 14.303 31.894 32.235" fill="#fff"/>
    <path d="m-301.72-16.494h27.915v-33.135h20.839l21.929 33.135h34.792l-28.086-39.832c13.224-5.7971 22.469-18.291 22.469-33.684 0-22.639-16.671-40.201-42.048-40.201h-57.81zm27.915-59.932v-26.987h28.266c12.144 0 15.772 5.977 15.772 13.403 0 7.6064-3.6279 13.583-15.772 13.583z" fill="#fff"/>
    <path d="m-154.92-16.56h27.887v-38.288h52.705v-26.779h-52.705v-21.806h64.659v-26.779h-92.546z" fill="#fff"/>
   </g>
  </g>
  <path d="m78.783 33.355h20.917v31.357h-10.427v-20.93h-10.49z" fill="#22211f"/>
  <g transform="matrix(.15304 0 0 .15304 -34.31 33.413)" fill="#e2001a">
   <path d="m999.44 160.55v-115.11h-28.23v42.711h-46.923v-42.711h-28.23v115.11h28.23v-45.27h46.923v45.27zm140.56-57.56c0-30.429-23.466-57.56-61.41-57.56h-52.61v115.11h52.61c37.21 0 61.41-27.13 61.41-57.56m-28.23 0c0 16.678-12.466 30.429-33.18 30.429h-24.563v-60.858h24.563c20.71 0 33.18 13.75 33.18 30.429"/>
   <path d="m1106.2 12.382v27.432c4.181 1.553 8.04 3.483 11.687 5.665v-44.785h-205.49v33.559h11.688v-21.871"/>
   <path d="m912.38 204.51h205.49v-44.692c-3.655 2.211-7.519 4.181-11.688 5.762v27.24h-182.11v-21.45h-11.688"/>
  </g>
 </g>
</svg>
