<svg height="299.69" viewBox="0 0 2307.3 299.69" xmlns="http://www.w3.org/2000/svg">
 <defs>
  <linearGradient id="a" x1="-1875.9" x2="-1667.9" y1="252.25" y2="46.05" gradientUnits="userSpaceOnUse">
   <stop stop-color="#fba10d" offset="0"/>
   <stop stop-color="#ffce08" offset="1"/>
  </linearGradient>
 </defs>
 <rect transform="scale(-1 1)" x="-1920" y=".032" width="298.68" height="298.96" fill="url(#a)"/>
 <rect x="695.2" y=".032" width="926.12" height="298.96"/>
 <path d="m0 299.19h698.59v-299.19h-698.59v299.19z" fill="#ec1b24"/>
 <g transform="matrix(1.4654 0 0 1.4654 -70.72 -565.51)" fill="#fff">
  <g fill-rule="evenodd">
   <path d="m207.5 487.92c0-33.21-26.934-58.892-60.707-58.892-33.633 0-60.707 25.678-60.707 58.892 0 33.35 27.07 59.03 60.707 59.03 33.772 0 60.707-25.678 60.707-59.03m-28.748 0c0 18-15.351 32.377-31.958 32.377s-31.819-14.374-31.819-32.377c0-17.863 15.212-32.24 31.819-32.24s31.958 14.374 31.958 32.24"/>
   <path d="m247.69 544.86h28.05v-33.21h20.794l21.91 33.21h34.749l-28.05-39.913c13.258-5.722 22.468-18.282 22.468-33.633 0-22.608-16.607-40.19-42.01-40.19h-57.915v113.74zm56.24-60.01h-28.19v-26.934h28.19c12.141 0 15.77 6 15.77 13.397 0 7.676-3.628 13.537-15.77 13.537"/>
  </g>
  <path d="m394.5 544.72h27.911v-38.24h52.752v-26.795h-52.752v-21.771h64.754v-26.795h-92.66v113.6z"/>
 </g>
 <g fill="#fff">
  <g transform="matrix(1.8981 -.01857 .01584 1.7497 -1.41 -1616.2)">
   <path d="m461.51 986.4c-4.851-3.555-9.786-5.332-14.804-5.332-10.08 0-15.12 3.806-15.12 11.417 0 3.22 2.676 7.07 8.03 11.542l9.472 8.03c2.927 2.509 4.956 4.339 6.085 5.489s2.321 2.75 3.576 4.799 2.195 4.119 2.823 6.21c0.627 2.091 0.941 4.224 0.941 6.399 0 8.406-3.147 14.972-9.441 19.697-6.294 4.726-14.459 7.089-24.496 7.089-8.239 0-16.02-1.777-23.336-5.332l5.269-16.12c5.604 4.224 12.11 6.336 19.509 6.336 4.475 0 8.186-0.951 11.135-2.854 2.948-1.903 4.422-4.611 4.422-8.123 0-3.471-2.677-7.297-8.03-11.48l-9.849-7.841c-3.01-2.426-5.05-4.182-6.116-5.269s-2.185-2.603-3.356-4.548-2.049-3.942-2.635-5.991c-0.585-2.049-0.878-4.161-0.878-6.336 0-8.448 2.802-15.14 8.406-20.07 5.604-4.935 12.943-7.402 22.02-7.402 3.01 0 6.858 0.345 11.542 1.035s7.967 1.474 9.849 2.352z"/>
   <path d="m493 1026.4-6.21 33.749h-16.686l17.313-91.77c8.74-0.92 15.411-1.38 20.01-1.38 24.297 0 36.446 9.138 36.446 27.413 0 10.288-3.691 18.369-11.07 24.25-7.381 5.876-16.948 8.814-28.699 8.814-3.764 0-7.465-0.355-11.1-1.066zm8.03-44.22-5.457 30.3c2.133 0.586 4.851 0.878 8.155 0.878 7.109 0 12.755-1.526 16.937-4.579s6.273-7.444 6.273-13.173c0-9.66-5.478-14.491-16.435-14.491-2.927 0-6.085 0.356-9.472 1.066z"/>
   <path d="m548.26 1026c0-16.351 4.464-30.33 13.393-41.935s20.544-17.407 34.846-17.408c10.999 0 19.467 2.917 25.406 8.751 5.938 5.834 8.908 14.271 8.908 25.312 0 18.11-4.558 32.808-13.675 44.1-9.117 11.291-21.6 16.937-37.45 16.937-9.702 0-17.366-3.272-22.991-9.817s-8.437-15.191-8.437-25.939zm16.937-1.694c0 7.07 1.401 12.692 4.203 16.874s6.9 6.273 12.295 6.273c9.953 0 17.815-4.475 23.586-13.424s8.657-19.634 8.657-32.05c0-14.05-6.189-21.08-18.568-21.08-8.699 0-15.902 4.6-21.61 13.801-5.708 9.2-8.563 19.07-8.563 29.609z"/>
   <path d="m685.39 1019.5 20.513 40.712h-18.38l-17.564-38.01c-2.844-0.042-6.336-0.209-10.476-0.502l-7.088 38.516h-16.812l16.812-91.9c12.211-0.627 20.22-0.941 24.03-0.941 9.911 0 17.742 1.913 23.492 5.74s8.625 9.357 8.625 16.592c0 7.36-2.102 13.748-6.304 19.16-4.203 5.416-9.817 8.96-16.843 10.633zm-18.756-37.07-4.705 25.719c2.467 0.251 4.663 0.376 6.587 0.376 15.808 0 23.712-5.02 23.712-15.06 0-4.224-1.516-7.224-4.548-9-3.03-1.777-8.06-2.666-15.09-2.666-0.586 0-2.572 0.209-5.959 0.627z"/>
   <path d="m799.68 982.57h-28.981l-14.177 77.6h-16.498l14.177-77.6h-29.23l2.635-14.302h74.77z"/>
  </g>
  <path transform="matrix(1.8225 0 0 1.8225 3.34 -1639.8)" d="m979.92 991.44v36.12h-20.453v-36.12h-35.411v-20.453h35.411v-34.903h20.453v34.903h35.513v20.453z" fill="#fff"/>
 </g>
 <g transform="matrix(2.7227 0 0 2.7227 -235.3 -450.01)">
  <g transform="matrix(1.8518 0 0 1.8517 -385.67 -388.54)" fill="#e2001a">
   <path d="m671.91 345.45v-33.3h-8.166v12.355h-13.574v-12.355h-8.165v33.3h8.165v-13.1h13.574v13.1h8.166zm40.658-16.649c0-8.802-6.787-16.649-17.762-16.649h-15.218v33.3h15.218c10.764 0 17.762-7.847 17.762-16.649m-8.165 0c0 4.825-3.606 8.802-9.597 8.802h-7.105v-17.605h7.105c5.991 0 9.597 3.978 9.597 8.802"/>
   <path d="m702.9 310.4c1.209 0.449 2.326 1.01 3.381 1.639v-12.955h-59.44v9.708h3.381v-6.327h52.68v7.935zm-52.68 38.541h-3.381v9.586h59.44v-12.928c-1.057 0.641-2.175 1.209-3.381 1.667v7.881h-52.68v-6.205z"/>
  </g>
 </g>
</svg>
