<svg height="204.08" enable-background="new 0 0 681.143 204.084" viewBox="0 0 1149.6 204.08" xmlns="http://www.w3.org/2000/svg" xmlns:xlink="http://www.w3.org/1999/xlink">
 <defs>
  <linearGradient id="d" x1="626.52" x2="451.71" gradientUnits="userSpaceOnUse">
   <stop stop-color="#fff" offset="0"/>
   <stop offset="1"/>
  </linearGradient>
 </defs>
 <g transform="translate(-84.9 82)">
  <path d="m561.98-82h204.08v204.08h-204.08v-204.08z" fill="#fff"/>
  <path d="m84.9-82h476.68v204.08h-476.68v-204.08z" fill="#ec1b24"/>
  <path id="c" d="m244.19 20.05c0-33.32-27.01-59.04-60.709-59.04-33.712 0-60.718 25.718-60.718 59.04 0 33.31 27.01 59.02 60.718 59.02 33.703 0 60.709-25.708 60.709-59.02m-28.815 0c0 17.922-15.402 32.23-31.894 32.23-16.681 0-31.903-14.304-31.903-32.23 0-17.932 15.223-32.23 31.903-32.23 16.492-1e-4 31.894 14.302 31.894 32.23" fill="#fff"/>
  <path id="b" d="m284.38 76.899h27.916v-33.13h20.839l21.929 33.13h34.792l-28.09-39.832c13.223-5.797 22.469-18.291 22.469-33.684 0-22.639-16.672-40.2-42.05-40.2h-57.81v113.72zm56.18-59.932h-28.27v-26.987h28.27c12.144 0 15.771 5.977 15.771 13.403 0 7.607-3.628 13.584-15.771 13.584" fill="#fff"/>
  <path id="a" d="m431.17 76.83h27.886v-38.29h52.705v-26.78h-52.705v-21.806h64.66v-26.778h-92.55v113.65z" fill="#fff"/>
  <path d="m706-3.266c0-20.574-16.861-38.18-43.572-38.18-20.18 0-35.807 7.777-48.22 27.991l24.816 11.859c5.4-9.634 12.979-14.455 22.262-14.455s16.197 6.119 16.197 12.418c0 4.263-1.895 8.346-7.672 12.788l-52.951 41.906v26.14h88.76v-26.512h-47.08l27.66-20.943c11.84-8.895 19.797-19.837 19.797-33" fill="#fff"/>
  <path d="m561.6-82h71.75v204.08h-71.75v-204.08z" fill="url(#d)"/>
  <path d="m84.9-82h476.68v204.08h-476.68v-204.08z" fill="#e2001a"/>
  <use xlink:href="#c"/>
  <use xlink:href="#b"/>
  <use xlink:href="#a"/>
  <path d="m706-3.266c0-20.574-16.861-38.18-43.572-38.18-20.18 0-35.807 7.777-48.22 27.991l24.816 11.859c5.4-9.634 12.979-14.455 22.262-14.455s16.197 6.119 16.197 12.418c0 4.263-1.895 8.346-7.672 12.788l-52.951 41.906v26.14h88.76v-26.512h-47.08l27.66-20.943c11.84-8.895 19.797-19.837 19.797-33" fill="#e2001a"/>
 </g>
 <g transform="translate(9.594 -.423)" fill="#e2001a">
  <path d="m999.44 160.55v-115.11h-28.23v42.711h-46.923v-42.711h-28.23v115.11h28.23v-45.27h46.923v45.27h28.23zm140.56-57.56c0-30.429-23.466-57.56-61.41-57.56h-52.61v115.11h52.61c37.21 0 61.41-27.13 61.41-57.56m-28.23 0c0 16.678-12.466 30.429-33.18 30.429h-24.563v-60.858h24.563c20.71 0 33.18 13.75 33.18 30.429"/>
  <path d="m1106.2 12.382v27.432c4.181 1.553 8.04 3.483 11.687 5.665v-44.785h-205.49v33.559h11.688v-21.871"/>
  <path d="m912.38 204.51h205.49v-44.692c-3.655 2.211-7.519 4.181-11.688 5.762v27.24h-182.11v-21.45h-11.688"/>
 </g>
 <g transform="matrix(.16908 0 0 .1684 681.16 -443.49)" fill-rule="evenodd">
  <polygon transform="translate(-3687 1906.5)" points="4894 732 4894 1939 3687 1939 3687 732" fill="#002479" fill-rule="nonzero"/>
  <path d="m537 3535.5v-479h-111v227l-271-253v481h111v-229l271 253zm428-251c0 72-61 129-127 129-67 0-128-57-128-129s61-129 128-129c66 0 127 57 127 129zm115 0c0-133-108-236-242-236-135 0-243 103-243 236s108 236 243 236 242-103 242-236zm-83-312c0-33-27-58-57-58-32 0-58 26-58 58 0 31 26 57 58 57 31 0 57-26 57-57zm-204 0c0-33-26-58-58-58-33 0-58 26-58 58 0 31 26 57 58 57s58-26 58-57z" fill="#fbbb00"/>
 </g>
</svg>
