<svg id="a" width="669.23" height="142.8" enable-background="new 0 0 803.078 133.875" version="1.1" viewBox="0 0 627.41 133.88" xml:space="preserve" xmlns="http://www.w3.org/2000/svg"><g id="b" transform="translate(-1.4648e-6)"><rect id="c" width="313.7" height="133.88" fill="#e2001a"/><path id="d" d="m227.89 104.19h18.344v-25.118h34.703v-17.554h-34.703v-14.313h42.547v-17.578h-60.891zm-142.03-37.25c0 11.75-10.141 21.141-20.984 21.141-10.969 0-20.992-9.391-20.992-21.141 0-11.766 10.023-21.141 20.992-21.141 10.844 0 20.984 9.375 20.984 21.141m18.954 0c0-21.859-17.75-38.727-39.938-38.727s-39.953 16.867-39.953 38.727 17.766 38.719 39.953 38.719 39.938-16.86 39.938-38.719m26.453 37.296h18.375v-21.734h13.719l14.422 21.734h22.906l-18.484-26.133c8.71-3.804 14.796-11.992 14.796-22.101 0-14.836-10.969-26.375-27.672-26.375h-38.063v74.609zm36.984-39.32h-18.609v-17.695h18.609c7.984 0 10.375 3.914 10.375 8.781 0 5-2.391 8.914-10.375 8.914" fill="#fff"/><rect id="e" x="313.7" width="313.7" height="133.88" fill="#007787"/><path id="f" d="m577.7 105.48c14.813 0 26.469-8.188 26.469-22.297v-0.281c0-13.375-12.375-17.844-23.891-21.297-9.906-3.016-19.125-5.758-19.125-12.805v-0.273c0-6.203 5.617-10.797 14.406-10.797 7.188 0 15.078 2.734 21.984 7.203l5.047-8.352c-7.625-5.039-17.703-8.203-26.75-8.203-14.688 0-25.328 8.492-25.328 21.289v0.289c0 13.664 12.953 17.695 24.594 21 9.781 2.727 18.563 5.602 18.563 13.086v0.289c0 7.195-6.484 11.797-15.391 11.797-8.781 0-17.688-3.445-25.742-9.492l-5.617 7.906c8.344 6.767 20.133 10.938 30.781 10.938m-113.2-1.437h11.078v-42.578c0-13.953 9.5-23.305 22.297-23.305 13.078 0 20.578 8.633 20.578 22.445v43.438h11.063v-46.172c0-17.688-10.5-29.781-28.469-29.781-12.797 0-20.578 6.484-25.469 14.531v-12.937h-11.078zm-36.812 0h11.086v-74.359h-11.086zm-79.547-41.563c1.594-14.391 11.375-25.031 24.172-25.031 14.656 0 22.438 11.5 23.734 25.031zm0 8.907h58.984c0.141-1.719 0.141-2.867 0.141-3.875 0-21.875-12.656-39.422-34.672-39.422-20.547 0-35.656 17.258-35.656 38.844 0 23.156 16.68 38.828 37.109 38.828 14.102 0 23.141-5.609 30.641-13.953l-6.906-6.18c-6.039 6.32-13.234 10.5-23.445 10.5-13.11 0-24.603-9.055-26.196-24.742" fill="#fff"/></g></svg>
