<svg width="800" height="217.57" version="1.1" viewBox="0 0 800 217.57" xmlns="http://www.w3.org/2000/svg">
 <path d="m0 0h800v108.79h-800z" fill="#f35e17" stroke-width="2.0372"/>
 <path d="m101.66 47.466a29.743 29.743 0 0 1-29.539 29.539h-30.354v31.576h-16.705v-90.858h46.651c4.0744 0 7.945 0.81487 11.816 2.2409a32.595 32.595 0 0 1 9.5747 6.3153 28.52 28.52 0 0 1 6.519 9.5747 36.669 36.669 0 0 1 2.0372 11.612zm-16.705 0a16.297 16.297 0 0 0-1.0186-5.5004c-0.61115-1.6297-1.6297-3.0558-3.0558-4.2781a14.26 14.26 0 0 0-4.2781-2.852 14.26 14.26 0 0 0-5.0929-1.0186h-29.743v27.502h29.743c1.6297 0 3.4632-0.40744 5.0929-1.0186a12.223 12.223 0 0 0 4.2781-2.852 14.26 14.26 0 0 0 4.0744-9.9822zm186.2 61.319-1.426-3.4632-2.6483-5.9078-2.6483-6.1115-1.6297-3.6669h-37.892l-1.426 3.4632-5.2967 12.223-1.426 3.6669h-17.927l1.8335-4.4818 4.4818-10.593 6.3152-14.464c2.4446-5.2967 4.6855-11.001 6.9264-16.501l6.9264-16.501 6.1115-14.464 4.2781-10.39 1.8335-4.2781h12.223l1.8335 4.2781 4.2781 10.186 6.1115 14.26 7.1301 16.297 7.1301 16.501 6.3152 14.464 4.6855 11.001 2.0372 4.8892zm-14.668-35.039-1.2223-2.4446-2.2409-5.0929-5.7041-13.038-2.4446-5.5004-1.2223-3.2595-1.426 3.2595-2.4446 5.2967-2.852 6.519-2.852 6.3153-2.2409 5.2967-1.2223 2.6483zm195.16 35.039-1.8335-3.2595-3.4632-5.9078-4.2781-7.1301a231.83 231.83 0 0 0-8.1487-13.445l-2.0372-3.4632h-22.205v33.206h-16.297v-91.062h48.077a28.52 28.52 0 0 1 28.928 29.132 30.558 30.558 0 0 1-1.6298 9.5747 28.928 28.928 0 0 1-10.797 13.853 19.761 19.761 0 0 1-7.3338 3.2595l2.2409 3.4632 3.8706 6.3153 9.371 15.483 3.8706 6.3153 2.2409 3.4632zm1.6297-61.93a12.834 12.834 0 0 0-12.834-13.242h-30.761v26.28h30.15c3.6669 0.20372 7.1301-1.2223 9.7785-3.8706a13.649 13.649 0 0 0 3.6669-9.1673zm126.1 61.93v-91.062h16.705v91.062zm195.57-32.595a33.613 33.613 0 0 1-9.9822 24.446 35.854 35.854 0 0 1-25.668 10.39c-4.2781 0-8.5562-0.61115-12.631-2.2409-3.6669-1.426-6.9264-3.2595-9.9822-5.7041a34.632 34.632 0 0 1-11.204-18.131l3.0558-0.81487 4.4818-1.0186 4.6855-1.0186 3.2595-0.81487a18.946 18.946 0 0 0 18.946 14.26 18.335 18.335 0 0 0 12.834-4.4818c3.4632-3.4632 5.5004-8.1487 5.5004-13.242l-4.4818-1.6297-9.5747-3.6669-12.019-4.4818-12.223-4.4818-9.9822-3.6669-5.093-2.0372-0.20371-3.4632v-4.2781a34.428 34.428 0 0 1 20.779-31.78 36.873 36.873 0 0 1 36.262 4.6855 33.817 33.817 0 0 1 12.223 18.742l-3.2595 0.81487-8.9636 2.0372-3.4632 0.81487c-0.40744-1.8335-1.2223-3.6669-2.2409-5.2967a16.297 16.297 0 0 0-3.8706-4.4818 14.668 14.668 0 0 0-5.5004-3.0558 19.557 19.557 0 0 0-6.7227-1.2223 18.131 18.131 0 0 0-18.538 16.501l14.668 5.5004 12.223 4.4818 12.019 4.4818 9.5747 3.6669 4.4818 1.6297c0.61115 2.6483 0.81487 5.5004 0.61115 8.5562z" fill="#fff" stroke-width="2.0372"/>
 <path d="m0 108.79h799.8v108.79h-799.8z" fill="#131819" stroke-width="2.0372"/>
 <path d="m25.057 199.64v-90.858h39.725a28.52 28.52 0 0 1 26.076 16.297 28.52 28.52 0 0 1 2.2409 10.797 28.317 28.317 0 0 1-7.7413 19.149 28.928 28.928 0 0 1-19.761 8.1487h-30.558v36.466zm9.7785-45.429h29.539c2.2409 0 4.4818-0.40744 6.7227-1.426a17.112 17.112 0 0 0 9.7785-9.371c2.0372-4.6855 2.0372-10.186 0-14.871-1.0186-2.2409-2.4446-4.0744-4.0744-5.7041a17.112 17.112 0 0 0-12.427-4.8892h-29.743zm200.66-45.429h56.43v9.371h-46.855v30.558h36.669v9.371h-36.669v32.391h46.244v9.1673h-55.819zm482.61 0h56.43v9.371h-46.855v30.558h36.669v9.371h-36.669v32.391h46.04v9.1673h-55.819zm-266.87-0.20372h9.7785v91.062h-9.7785zm52.559 0.20372h62.134v9.371h-52.559v30.558h42.373v9.371h-42.373v32.391h51.744v9.1673h-61.523zm144.23 0c3.8706 0 7.7413 0.81487 11.408 2.2409a26.483 26.483 0 0 1 15.89 25.057c0 3.4632-0.61116 6.7227-1.8335 9.9822-1.2223 2.852-2.852 5.5004-5.0929 7.945a26.483 26.483 0 0 1-14.871 8.5562l2.2409 3.2595 4.2781 6.519 10.593 16.705 4.2781 6.7227 2.4446 3.6669h-12.019l-2.0372-3.4632-4.0744-6.519-10.186-15.89-4.0744-6.519-2.2409-3.6669h-25.261v36.262h-9.7785v-90.858zm-0.81487 45.429c2.4446 0 5.093-0.40744 7.3338-1.426 2.0372-1.0186 4.0744-2.2409 5.5004-4.0744a20.372 20.372 0 0 0 3.4632-5.7041 19.761 19.761 0 0 0 0-13.445c-0.81487-2.0372-2.0372-4.0744-3.4632-5.9078a14.871 14.871 0 0 0-5.5004-4.0744 18.335 18.335 0 0 0-7.3338-1.6297h-29.539v36.262zm-482.2-45.429c7.5376-0.20372 14.871 2.852 19.964 8.5562a28.52 28.52 0 0 1 5.5004 28.928c-1.2223 2.852-2.852 5.5004-4.8892 7.945a26.483 26.483 0 0 1-14.871 8.5562l2.2409 3.2595 4.2781 6.519 10.593 16.705 6.9264 10.39h-12.019l-2.0372-3.4632-4.0744-6.519-10.186-15.89-4.0744-6.519-2.2409-3.6669h-25.668v36.058h-9.7785v-90.858zm-0.81487 45.429c2.4446 0 5.0929-0.40744 7.3338-1.426 2.0372-1.0186 4.0744-2.2409 5.5004-4.0744a20.372 20.372 0 0 0 3.4632-5.7041 19.761 19.761 0 0 0 0-13.445c-0.81488-2.0372-2.0372-4.0744-3.4632-5.9078a16.501 16.501 0 0 0-13.038-5.7041h-29.539v36.262zm237.33 45.429v-67.838l-26.687 58.671h-8.9636l-26.891-58.671v67.838h-10.39v-91.062h10.39l31.78 68.857 30.761-68.857h10.39v91.062z" fill="#fff" stroke-width="2.0372"/>
</svg>
