<svg width="800" height="173.5" enable-background="new 0 0 1600 900" version="1.1" viewBox="0 0 800 173.5" xml:space="preserve" xmlns="http://www.w3.org/2000/svg">
<g transform="matrix(.55993 0 0 .55993 -45.623 -164.57)">
				<linearGradient id="SVGID_1_" x1="768.33" x2="822.37" y1="202.55" y2="587.07" gradientUnits="userSpaceOnUse">
					<stop stop-color="#815A24" offset="0"/>
					<stop stop-color="#936F32" offset=".0195"/>
					<stop stop-color="#BDA053" offset=".0691"/>
					<stop stop-color="#DCC46A" offset=".1127"/>
					<stop stop-color="#EEDA79" offset=".1481"/>
					<stop stop-color="#F5E27E" offset=".171"/>
					<stop stop-color="#E6D072" offset=".2011"/>
					<stop stop-color="#BFA252" offset=".2898"/>
					<stop stop-color="#A3803A" offset=".3685"/>
					<stop stop-color="#916B2C" offset=".4334"/>
					<stop stop-color="#8B6427" offset=".4765"/>
					<stop stop-color="#AF8D3F" offset=".5805"/>
					<stop stop-color="#EDD268" offset=".7403"/>
					<stop stop-color="#E8CB62" offset=".7937"/>
					<stop stop-color="#D9B653" offset=".8732"/>
					<stop stop-color="#C2953A" offset=".9686"/>
					<stop stop-color="#B98930" offset="1"/>
				</linearGradient>
				<path d="m1510.2 467.48h-115.45v-63.992h104.8v-22.931h-104.8v-58.658h113.59v-22.933h-139.44v191.43h141.3v-22.918zm-154.92-112.52c-1.068-21.064-7.734-61.056-74.647-61.056-46.4 0-65.861 29.321-65.861 59.193 0 33.33 28.267 42.12 40.804 45.053l39.195 9.064c31.463 7.459 40.792 13.867 40.792 33.863 0 27.474-31.463 32.258-50.133 32.258-24.536 0-52.785-10.12-52.785-44.793h-24.264c0 17.87 3.198 33.861 19.461 48.538 8.533 7.732 22.399 18.391 57.848 18.391 32.809 0 74.941-12.522 74.941-57.865 0-30.393-18.666-45.312-43.462-51.181l-54.669-12.539c-11.19-2.661-22.671-8.013-22.671-24.28 0-29.044 27.488-33.585 43.753-33.585 21.587 0 46.107 9.341 47.439 38.936h24.259zm-179.96-55.997v121.05c0 41.597-26.662 52.527-50.387 52.527-23.208 0-48.524-11.463-48.524-53.046v-120.53h-25.867v127.73c0 35.712 22.136 68.78 73.593 68.78 52.531 0 77.051-33.068 77.051-72.267v-124.24zm-131.71 95.716c0-41.322-21.878-100.78-93.318-100.78-71.467 0-93.312 59.453-93.312 100.78 0 41.335 21.845 100.79 93.312 100.79 71.441 1e-3 93.318-59.457 93.318-100.79m-26.66 0c0 45.067-25.069 77.859-66.658 77.859-41.611 0-66.652-32.791-66.652-77.859 0-45.071 25.041-77.861 66.652-77.861 41.589 1e-3 66.658 32.79 66.658 77.861m-192.5-16.525h-99.988v-79.191h-25.867v191.43h25.867v-89.311h99.988v89.311h25.851v-191.43h-25.851zm-287.86-56.258h64.799v168.5h25.859v-168.5h64.797v-22.933h-155.46zm-31.44 131.72h-0.535l-95.725-154.65h-30.667v191.43h25.063v-154.63h0.529l97.329 154.63h29.071v-191.43h-25.064v154.65zm-133.8 13.863h-113.64v-63.992h104.79v-22.931h-104.79v-58.658h113.59v-22.933h-139.45v191.43h139.49v-22.918zm-263.22-57.863h60.247c41.598 0 56.796-30.13 56.796-56.79 0-30.928-21.32-53.861-56.796-53.861h-86.116v191.43h25.869zm0-88.513h52.519c21.335 0 37.869 7.734 37.869 31.996 0 25.855-15.739 34.382-38.939 34.382h-51.449z" fill="url(#SVGID_1_)"/>
		<linearGradient id="SVGID_2_" x1="779.14" x2="812.39" y1="418.6" y2="689.44" gradientUnits="userSpaceOnUse">
			<stop stop-color="#815A24" offset="0"/>
			<stop stop-color="#936F32" offset=".0195"/>
			<stop stop-color="#BDA053" offset=".0691"/>
			<stop stop-color="#DCC46A" offset=".1127"/>
			<stop stop-color="#EEDA79" offset=".1481"/>
			<stop stop-color="#F5E27E" offset=".171"/>
			<stop stop-color="#E6D072" offset=".2011"/>
			<stop stop-color="#BFA252" offset=".2898"/>
			<stop stop-color="#A3803A" offset=".3685"/>
			<stop stop-color="#916B2C" offset=".4334"/>
			<stop stop-color="#8B6427" offset=".4765"/>
			<stop stop-color="#AF8D3F" offset=".5805"/>
			<stop stop-color="#EDD268" offset=".7403"/>
			<stop stop-color="#E8CB62" offset=".7937"/>
			<stop stop-color="#D9B653" offset=".8732"/>
			<stop stop-color="#C2953A" offset=".9686"/>
			<stop stop-color="#B98930" offset="1"/>
		</linearGradient>
		<rect x="81.479" y="504.26" width="1428.6" height="99.512" fill="url(#SVGID_2_)"/>
		<g fill="#fff">
			<path d="m1260.4 581.76c-1.125 1.853-3.107 3.505-5.948 4.958-2.843 1.454-6.181 2.183-10.014 2.183-4.361 0-8.428-0.812-12.195-2.429-3.767-1.62-7.055-3.95-9.865-6.991-2.81-3.039-5.024-6.707-6.643-11.005-1.62-4.295-2.427-9.121-2.427-14.475 0-5.42 0.858-10.362 2.577-14.822 1.719-4.463 3.998-8.294 6.841-11.502 2.841-3.204 6.08-5.699 9.715-7.484s7.402-2.678 11.304-2.678c3.569 0 6.509 0.365 8.824 1.091 2.313 0.728 4.179 1.554 5.6 2.478 1.422 0.926 2.495 1.851 3.224 2.777 0.726 0.926 1.287 1.587 1.686 1.983l2.082-7.138h14.772v29.247h-17.747c-0.066-1.983-0.414-3.767-1.041-5.354-0.629-1.587-1.472-2.907-2.528-3.965-1.058-1.056-2.247-1.866-3.569-2.429-1.323-0.561-2.711-0.843-4.163-0.843-1.983 0-3.818 0.513-5.503 1.538-1.686 1.025-3.122 2.379-4.313 4.064-1.188 1.686-2.115 3.668-2.775 5.948-0.662 2.282-0.992 4.645-0.992 7.09 0 2.513 0.297 4.874 0.893 7.088 0.594 2.216 1.47 4.15 2.627 5.8 1.155 1.653 2.577 2.96 4.262 3.917 1.686 0.959 3.62 1.437 5.8 1.437 2.841 0 4.958-0.477 6.344-1.437 1.389-0.957 2.445-2.097 3.173-3.422v-4.163h-6.047v-10.609h32.915v10.609h-3.965v24.786h-19.828z"/>
			<path d="m1325.7 589.79c-5.156 0-9.915-0.761-14.277-2.28-4.364-1.521-8.115-3.8-11.253-6.841-3.14-3.039-5.587-6.857-7.336-11.451-1.754-4.592-2.627-9.997-2.627-16.211 0-5.354 0.843-10.243 2.528-14.673 1.683-4.427 4.064-8.245 7.138-11.451 3.072-3.206 6.74-5.684 11.005-7.435 4.262-1.752 8.971-2.627 14.127-2.627 6.08 0 11.352 0.876 15.815 2.627 4.46 1.752 8.162 4.229 11.104 7.435 2.94 3.206 5.12 7.088 6.544 11.649 1.419 4.562 2.13 9.616 2.13 15.17 0 5.618-0.759 10.657-2.28 15.12-1.521 4.46-3.767 8.245-6.742 11.352-2.973 3.107-6.626 5.486-10.954 7.138-4.331 1.65-9.306 2.478-14.922 2.478zm0-15.567c1.587 0 2.988-0.495 4.214-1.488 1.221-0.99 2.28-2.379 3.171-4.163 0.893-1.785 1.569-3.932 2.033-6.445 0.462-2.511 0.693-5.319 0.693-8.426 0-3.041-0.216-5.866-0.645-8.478-0.429-2.61-1.089-4.889-1.983-6.841-0.891-1.947-2.031-3.486-3.419-4.61-1.389-1.122-3.041-1.686-4.958-1.686-1.521 0-2.891 0.513-4.115 1.538s-2.28 2.462-3.171 4.313c-0.893 1.851-1.587 4.064-2.084 6.641-0.495 2.579-0.744 5.389-0.744 8.428 0 3.239 0.282 6.164 0.843 8.776s1.323 4.841 2.282 6.692c0.957 1.851 2.115 3.272 3.47 4.262 1.354 0.992 2.826 1.487 4.413 1.487z"/>
			<path d="m1364.6 518.71h31.33v13.086h-5.255v43.03h12.789v-12.593h16.658v25.779h-55.522v-13.185h5.453v-43.03h-5.453z"/>
			<path d="m1425.1 588.01v-13.185h6.146v-43.03h-6.146v-13.086h30.239c6.014 0 11.35 0.876 16.011 2.627 4.661 1.752 8.591 4.13 11.799 7.138 3.204 3.008 5.651 6.56 7.336 10.657 1.686 4.1 2.531 8.527 2.531 13.287 0 11.37-3.274 20.143-9.819 26.322-6.54 6.181-15.962 9.271-28.254 9.271h-29.843zm45.11-35.593c0-2.643-0.282-5.206-0.841-7.684-0.563-2.478-1.439-4.676-2.627-6.593-1.193-1.917-2.729-3.453-4.612-4.61-1.884-1.155-4.148-1.736-6.791-1.736h-3.767v43.03h3.767c2.643 0 4.907-0.596 6.791-1.785 1.884-1.19 3.42-2.792 4.612-4.81 1.188-2.016 2.064-4.377 2.627-7.088 0.559-2.708 0.841-5.617 0.841-8.724z"/>
		</g>
		<path d="m293.49 540.93-114.01 0.012v-24.761h-6.486l8e-3 24.749h-21.544c-1.608-13.927-13.435-24.749-27.797-24.753-15.451 4e-3 -27.989 12.538-27.984 28.005-5e-3 15.454 12.525 27.998 27.984 27.991 14.368 0 26.198-10.826 27.797-24.764l21.544 6e-3v24.758h6.478v-24.757l114.01-6e-3zm-169.82 24.924c-11.972 0-21.685-9.705-21.685-21.68 5e-3 -11.973 9.71-21.68 21.685-21.689 11.982 0 21.682 9.716 21.693 21.689-0.011 11.976-9.711 21.68-21.693 21.68zm146.74 2.231c-3.147 0-5.707 2.566-5.714 5.723 7e-3 3.149 2.567 5.698 5.719 5.698 3.158 0 5.716-2.548 5.704-5.698 0.012-3.157-2.545-5.723-5.709-5.723zm23.103 15.764v-33.246h-38.126l-0.014 33.246h-4.223v4.86l48.236-4e-3 7e-3 -4.856zm-4.866-9.705h-4.466l0.299-10.678-4.543 4.531c1.036 1.687 1.642 3.679 1.642 5.811 0 6.152-5.002 11.156-11.169 11.156-6.155-0.012-11.158-5.003-11.158-11.156 0-6.179 5.003-11.177 11.163-11.17 2.064 0 3.986 0.568 5.653 1.552l4.473-4.499-10.068 0.344v-4.59h18.173v18.699z" fill="#fff"/>
</g>
</svg>
