<svg version="1.1" viewBox="0 0 435 95.773" xmlns="http://www.w3.org/2000/svg">
 <defs>
  <linearGradient id="a" x1="6.115" x2="28.722" y1="8.1609" y2="197.11" gradientUnits="userSpaceOnUse">
   <stop stop-color="#823b24" offset="0"/>
   <stop stop-color="#c16e53" offset=".23026"/>
   <stop stop-color="#c16e53" offset=".25209"/>
   <stop stop-color="#823b24" offset=".36124"/>
   <stop stop-color="#823b24" offset=".39138"/>
   <stop stop-color="#c16e53" offset=".46224"/>
   <stop stop-color="#c16e53" offset=".49079"/>
   <stop stop-color="#823b24" offset=".55313"/>
   <stop stop-color="#823b24" offset=".5806"/>
   <stop stop-color="#c16e53" offset=".63861"/>
   <stop stop-color="#c16e53" offset=".66923"/>
   <stop stop-color="#823b24" offset=".86134"/>
   <stop stop-color="#823b24" offset="1"/>
  </linearGradient>
  <linearGradient id="b" x1="-3.2572" x2="16.292" y1="104.76" y2="264.98" gradientTransform="matrix(.59184 0 0 .59184 0 -.0003319)" gradientUnits="userSpaceOnUse">
   <stop stop-color="#823b24" offset="0"/>
   <stop stop-color="#c16e53" offset=".11733"/>
   <stop stop-color="#c16e53" offset=".13896"/>
   <stop stop-color="#823b24" offset=".33112"/>
   <stop stop-color="#823b24" offset=".35141"/>
   <stop stop-color="#c16e53" offset=".53211"/>
   <stop stop-color="#c16e53" offset=".5595"/>
   <stop stop-color="#823b24" offset="1"/>
  </linearGradient>
 </defs>
 <path d="m0 64.998v30.775h435v-30.775h-435zm394.95 3.8867c0.7532 0 1.4035 0.095335 1.9531 0.28516 0.56998 0.18982 1.0488 0.41097 1.4355 0.66406 0.38678 0.232 0.6812 0.47542 0.88477 0.72852 0.22392 0.232 0.36666 0.39024 0.42773 0.47461l0.70313-1.7715h4.793v8.9844h-5.4648c-0.02035-0.50619-0.10164-1.0012-0.24414-1.4863-0.14249-0.4851-0.34669-0.90707-0.61133-1.2656-0.24427-0.37964-0.56943-0.67581-0.97656-0.88672-0.38677-0.232-0.85467-0.34766-1.4043-0.34766s-1.0482 0.1684-1.4961 0.50586c-0.44784 0.31637-0.8364 0.75866-1.1621 1.3281-0.30535 0.56946-0.54921 1.2349-0.73242 1.9941-0.16285 0.75928-0.24414 1.5708-0.24414 2.4355 0 0.78038 0.09218 1.529 0.27539 2.2461 0.20357 0.7171 0.48905 1.3501 0.85547 1.8984 0.38677 0.54837 0.85467 0.99066 1.4043 1.3281 0.54962 0.31637 1.191 0.47461 1.9238 0.47461 0.63106 0 1.2308-0.14613 1.8008-0.44141 0.56998-0.29528 1.0686-0.62192 1.4961-0.98047 0.42749-0.37964 0.77443-0.72855 1.0391-1.0449 0.28499-0.33746 0.45651-0.54845 0.51758-0.63281l3.5742 4.0488c-0.52927 0.59056-1.1201 1.1606-1.7715 1.709-0.65141 0.52728-1.3632 1.002-2.1367 1.4238-0.77355 0.40073-1.6082 0.71722-2.5039 0.94922-0.89569 0.2531-1.8424 0.37891-2.8398 0.37891-1.6285 0-3.1046-0.25162-4.4277-0.75781-1.3232-0.52728-2.4542-1.2759-3.3906-2.2461-0.93641-0.99129-1.668-2.1841-2.1973-3.5762-0.50891-1.4131-0.76367-3.0057-0.76367-4.7773 0-1.8138 0.29442-3.4369 0.88476-4.8711 0.59035-1.4553 1.3437-2.6786 2.2598-3.6699 0.91605-1.0124 1.9133-1.7833 2.9922-2.3105 1.0992-0.52728 2.149-0.79102 3.1465-0.79102zm-73.686 0.38086h11.389c2.5446 0 4.429 0.47472 5.6504 1.4238 1.2214 0.92802 1.832 2.2568 1.832 3.9863 0 0.67492-0.05252 1.2653-0.1543 1.7715-0.10178 0.4851-0.26436 0.92739-0.48828 1.3281-0.22392 0.37964-0.52924 0.71644-0.91602 1.0117-0.38677 0.29528-0.86556 0.55901-1.4355 0.79102 0.54963 0.16873 1.07 0.40199 1.5586 0.69727 0.48856 0.27419 0.91483 0.6313 1.2812 1.0742s0.6519 0.97039 0.85547 1.582c0.22392 0.59055 0.33594 1.2661 0.33594 2.0254 0 2.2357-0.65031 3.8708-1.9531 4.9043-1.2825 1.0124-3.3998 1.5176-6.3516 1.5176h-11.604v-4.1133h1.7715v-13.92h-1.7715v-4.0801zm20.992 0h9.6484v4.1758h-1.6172v13.73h3.9395v-4.0176h5.1289v8.2246h-17.1v-4.207h1.6797v-13.73h-1.6797v-4.1758zm23.248 0h11.727l5.4043 17.969h2.1367v4.1445h-12.244v-4.1445h2.9004l-0.64063-2.1504h-6.2598l-0.64063 2.1504h2.3809v4.1445h-9.709v-4.1445h2.0762l4.1211-13.889h-1.252v-4.0801zm41.4 0h9.6191v4.0801h-1.6504v5.1582l5.6797-5.1582h-2.1973v-4.0801h10.168v4.0801h-1.7715l-4.4277 3.9551 6.168 9.9648h1.7715v4.1133h-11.908v-4.1133h2.0762l-3.2988-5.377-2.2598 1.9922v3.3848h1.6504v4.1133h-9.6191v-4.1133h1.6484v-13.92h-1.6484v-4.0801zm-393.29 0.16406c4.4399 0 8.1294 3.2263 8.7637 7.416l7.1484-0.16797v-7.248h1.7305v7.1348l22.775-0.50976v1.1309h12.283v1.6992h-12.283v1.1328l-22.775-0.50977v7.3594h-1.7305v-7.2461l-7.1484-0.16992c-0.63427 4.1897-4.3238 7.416-8.7637 7.416-4.9011 0-8.8809-3.9063-8.8809-8.7188s3.9797-8.7188 8.8809-8.7188zm0 1.6973c-3.9209 0-7.1504 3.1149-7.1504 7.0215 0 3.85 3.1718 7.0215 7.1504 7.0215 3.9209 0 7.1484-3.1149 7.1484-7.0215 0-3.85-3.2275-7.0215-7.1484-7.0215zm315.74 2.3145v4.7461h1.8613c0.81426 0 1.3654-0.21099 1.6504-0.63281 0.28499-0.44292 0.42774-1.0454 0.42774-1.8047 0-0.73819-0.19331-1.3063-0.58008-1.707-0.36642-0.40073-0.84521-0.60156-1.4356-0.60156h-1.9238zm42.287 1.0117-1.9844 6.834h4l-2.0156-6.834zm-316.46 5.3945h11.129v10.361h1.1523v1.1309h-13.436v-1.1309h1.1543v-10.361zm5.1895 1.1895v1.1328h2.9395l-1.959 1.9238c-0.51896-0.3397-1.1538-0.56641-1.8457-0.56641-1.7875 0-3.2285 1.4148-3.2285 3.1699 0 1.7552 1.441 3.1719 3.2285 3.1719s3.2305-1.4167 3.2305-3.1719c0-0.67941-0.23216-1.301-0.57813-1.8105l1.9609-1.9258v2.8867h1.1523v-4.8105h-4.9004zm268.98 0.72461v5.5039h2.4434c0.65141 0 1.2204-0.2313 1.709-0.69531 0.50891-0.4851 0.76367-1.1606 0.76367-2.0254 0-0.80147-0.21314-1.4649-0.64063-1.9922s-1.0688-0.79102-1.9238-0.79102h-2.3516zm-269.85 2.8984c1.1532 0 2.0762 0.90476 2.0762 2.0371 0 1.1324-0.92296 2.0391-2.0762 2.0391s-2.0762-0.9067-2.0762-2.0391 0.92296-2.0371 2.0762-2.0371z" fill="url(#b)" style="paint-order:stroke fill markers"/>
 <g transform="matrix(.59184 0 0 .59184 0 -.0003419)" fill="url(#a)" stroke-width="1.169">
  <path d="m425.78 4.3274c-2.1049 0.99436-4.1345 2.1585-6.0521 3.492-8.2268 5.6615-14.008 14.484-17.242 24.002-2.0945 6.9587-3.4501 14.758-3.5203 21.078 0 0.04519 0 0.09037-2e-3 0.13556 0 0.26401 0 0.52787 3e-3 0.79186 0.0521 7.752 1.5653 15.465 3.9024 22.229 3.4495 9.616 9.6186 18.433 18.209 23.827 4.0812 2.1508 8.6075 4.3376 12.589 5.3982 4.4876 1.0979 8.9396 1.5447 13.386 1.5387 4.5329 6e-3 9.134-0.4904 13.385-1.5387 4.7025-1.4302 8.9815-3.1581 12.589-5.3982 8.5902-5.3943 14.76-14.211 18.209-23.827 2.5687-7.5094 3.8345-14.832 3.9019-22.229 2e-3 -0.26609 3e-3 -0.53206 3e-3 -0.79817 0-0.03859 0-0.07718-2e-3 -0.11577-0.32031-7.8847-1.5144-14.577-3.5203-21.092-3.2354-9.5183-9.0164-18.341-17.243-24.002-1.9176-1.3335-3.9472-2.4976-6.0521-3.492-6.8607-3.2044-13.941-4.3244-21.272-4.321-7.2438-0.079373-14.772 1.3121-21.271 4.321zm46.753 19.933c3.4216 4.4056 5.7726 9.6418 7.1311 15.088 1.5775 6.7011 1.9244 15.041 1.28 20.936-0.68767 6.4375-2.5269 12.8-5.7835 18.37-2.2531 3.8539-5.2079 7.3054-8.7916 9.8976-6.4139 4.2746-12.219 6.0461-19.317 6.0574-6.8243 0.04612-13.969-2.0969-19.317-6.0574-3.5837-2.5922-6.5385-6.0437-8.7916-9.8976-3.2566-5.5696-5.0959-11.932-5.7835-18.37-0.28284-7.5747-0.50417-14.491 1.2804-20.936 1.3586-5.446 3.7092-10.682 7.1307-15.088 7.1734-8.1922 15.573-12.04 25.358-12.147 9.7857-0.10761 20.053 5.0855 25.604 12.147z"/>
  <path d="m607.47 0.92483c4.85-1.0576 9.8398-1.026 14.771-0.79031 4.7298 0.3305 9.4876 1.049 13.955 2.7503 4.9982 1.7674 9.6413 4.8195 12.965 9.0786 4.4698 5.7161 6.2589 13.165 6.4769 20.373h-12.532c-0.17611-4.8195-1.7639-9.7252-5.0289-13.272-2.3873-2.6813-5.5656-4.5005-8.881-5.6644-6.7481-2.1956-14.12-2.1497-20.915-0.1983-4.0058 1.2473-7.9026 3.6699-9.9907 7.518-1.5682 2.7388-2.1497 5.9662-2.1245 9.1159 0.0475 3.4372 1.3502 7.0266 4.1092 9.1217 3.279 2.6813 7.542 3.3308 11.495 4.3223 6.1555 1.391 12.277 2.9371 18.436 4.3252 4.0421 1.0087 8.1765 1.7646 12.043 3.4055 3.6676 1.5663 7.1394 3.7619 9.865 6.7622 2.9771 3.3279 4.9478 7.5554 5.7501 11.993 0.56188 3.0348 0.68488 6.1443 0.47522 9.2251-0.32426 3.6182-1.1238 7.2335-2.7367 10.495-1.8142 3.8855-4.7298 7.1444-8.1038 9.662-3.9667 2.8796-8.5455 4.8252-13.261 5.9518l-0.1789 0.1207c-4.7019 1.0461-9.5099 1.6726-14.326 1.572-8.3219 0.046-17.013-1.0116-24.309-5.4345-4.9367-3.1957-9.345-7.4893-12.073-12.84-1.68-3.2072-2.5885-6.7737-3.0526-10.366-0.19288-2.2589-0.39415-4.5206-0.37179-6.7881h12.585c0.0308 0.99723-0.095 2.0175 0.16214 2.9974 0.3606 5.2017 2.5606 10.34 6.3763 13.838 4.5537 4.2907 10.768 6.0926 16.792 6.6875 5.3672 0.41958 10.818 0.02586 16.037-1.3737 4.1763-1.1582 8.3638-3.2302 10.991-6.8887 1.7891-2.5405 2.5885-5.673 2.6109-8.7826-0.095-3.0233-0.45565-6.2133-2.1832-8.7624-1.8226-2.8308-4.8947-4.4056-7.8523-5.6759-4.386-1.7186-8.9592-2.8767-13.535-3.9113-4.9115-1.1783-9.823-2.3537-14.735-3.5262-5.493-1.161-11.064-2.8336-15.587-6.3714-4.1763-3.1756-7.1115-8.0181-7.9501-13.297-0.76314-4.877-0.41931-9.9378 0.91968-14.68 1.6157-5.6759 4.9171-10.852 9.4624-14.499 3.8996-3.1641 8.607-5.1615 13.451-6.1932z"/>
  <path d="m45.562 2.6721c6.4574 0.15806 13.046 2.029 18.17 6.1961 4.1148 3.2302 7.0612 7.8917 8.5847 12.953 1.6912 5.765 1.6521 11.955 0.38856 17.804-1.3893 5.9891-4.4726 11.671-9.1857 15.553-2.446 1.9772-5.2246 3.5751-8.2185 4.4832l-0.18729 0.1207c-3.1923 0.957-6.5021 1.5303-9.8286 1.5734h-31.978v42.775h-13.307v-101.46zm-32.255 11.763v35.107h28.604c5.1743-0.26727 10.843-1.6122 14.312-5.8943 2.0043-2.4054 2.9771-5.5351 3.4048-8.6274 0.50317-4.1183 0.25438-8.475-1.5542-12.251-1.5123-3.144-4.3412-5.4833-7.5168-6.6731-3.3712-1.3019-7.0081-1.6726-10.589-1.6611z"/>
  <path d="m77.019 2.6765h71.867v12.194h-58.474v31.032h53.941v12.236h-53.941v33.861h58.47v12.129h-71.863z"/>
  <path d="m152.44 2.6765h15.847l49.451 82.033v-82.033h12.976l6e-3 101.46h-15.014l-50.337-82.109v82.109h-12.929z"/>
  <path d="m233.98 2.6607v12.214h33.297v89.248h13.478v-89.248h33.297v-12.214z"/>
  <path d="m317.39 2.6851h13.41v41.914l51.432-0.0086v-41.905h13.38v101.44h-13.38v-47.35l-51.432-0.0057v47.356h-13.41z"/>
  <path d="m498.67 2.6792v57.904c0.17393 5.5942-0.39027 11.298 0.44667 16.419 1.1741 8.2308 5.0569 16.188 11.402 21.468 4.755 4.055 10.67 6.4807 16.717 7.5814 3.3796 0.56928 6.8085 0.81682 10.234 0.76618 3.4254 0.0507 6.8544-0.19688 10.234-0.76618 6.0464-1.1007 11.962-3.5264 16.717-7.5814 6.3456-5.2793 10.228-13.237 11.402-21.468 0.73628-5.6303 0.40281-11.149 0.44685-16.419v-57.904h-13.376v63.954c0.0322 2.4351-0.19202 5.1543-0.56466 7.4387-0.63668 3.7436-1.8628 7.3657-3.9499 10.526-2.9799 4.6298-7.8719 7.7105-13.066 8.998-2.5612 0.63837-5.2014 0.9862-7.8436 1.0217-2.6423-0.03551-5.2828-0.38333-7.844-1.0217-5.1938-1.2875-10.086-4.3682-13.066-8.998-2.0871-3.1604-3.3132-6.7825-3.9498-10.526-0.40659-2.6266-0.58282-4.897-0.56469-7.4387v-63.954h-13.361z"/>
  <path d="m663.13 2.6765h71.867v12.194h-58.474v31.032h53.941v12.236h-53.941v33.861h58.47v12.129h-71.863z"/>
 </g>
</svg>
