<svg version="1.1" viewBox="0 0 735 161.82" xmlns="http://www.w3.org/2000/svg">
 <defs>
  <linearGradient id="b" x1="-3.2572" x2="16.292" y1="104.76" y2="264.98" gradientUnits="userSpaceOnUse">
   <stop stop-color="#966a25" offset="0"/>
   <stop stop-color="#ead472" offset=".11733"/>
   <stop stop-color="#ead472" offset=".13896"/>
   <stop stop-color="#966a25" offset=".33112"/>
   <stop stop-color="#966a25" offset=".35141"/>
   <stop stop-color="#f6e37d" offset=".53211"/>
   <stop stop-color="#f6e37d" offset=".5595"/>
   <stop stop-color="#966a25" offset="1"/>
  </linearGradient>
  <linearGradient id="a" x1="3.4381" x2="22.769" y1="25.897" y2="210.11" gradientTransform="translate(4.091e-6 -.00035)" gradientUnits="userSpaceOnUse">
   <stop stop-color="#f6e37d" offset="0"/>
   <stop stop-color="#966a25" offset=".22028"/>
   <stop stop-color="#966a25" offset=".2563"/>
   <stop stop-color="#f6e37d" offset=".4769"/>
   <stop stop-color="#f6e37d" offset=".5198"/>
   <stop stop-color="#966a25" offset="1"/>
  </linearGradient>
 </defs>
 <path d="m0 109.82v52h735v-52h-735zm639.92 6.5c3.1537 0 5.8791 0.47588 8.1758 1.4297 2.331 0.91847 4.2495 2.2436 5.7578 3.9746 1.5426 1.6956 2.6747 3.7617 3.3945 6.1992 0.75414 2.4375 1.1309 5.14 1.1309 8.1074 0 3.0027-0.39517 5.7052-1.1836 8.1074-0.78842 2.3668-1.9535 4.3807-3.4961 6.041s-3.4446 2.9313-5.707 3.8145c-2.2281 0.88315-4.7992 1.3262-7.7129 1.3262-2.6738 0-5.1419-0.40625-7.4043-1.2188s-4.2159-2.0312-5.8613-3.6562c-1.6111-1.625-2.8792-3.6562-3.8047-6.0938-0.89125-2.4728-1.3379-5.3708-1.3379-8.6914 0-2.8614 0.42818-5.475 1.2852-7.8418 0.89125-2.3668 2.1263-4.3981 3.7031-6.0938 1.6111-1.731 3.5132-3.0561 5.707-3.9746 2.2281-0.95381 4.6798-1.4297 7.3535-1.4297zm-42.133 0.37109c1.8511 0 3.3764 0.19345 4.5762 0.58203 1.1998 0.38859 2.159 0.82966 2.8789 1.3242 0.75414 0.49457 1.3202 0.98981 1.6973 1.4844 0.37707 0.49456 0.66933 0.84859 0.875 1.0605l1.0801-3.8164h7.6602v15.633h-9.2031c-0.03428-1.0598-0.22362-2.0135-0.56641-2.8613-0.30851-0.84782-0.73669-1.5559-1.2852-2.1211-0.54847-0.56522-1.166-0.98888-1.8516-1.2715-0.68557-0.31793-1.4041-0.47656-2.1582-0.47656-1.0284 0-1.9896 0.28244-2.8809 0.84766-0.85697 0.52989-1.5939 1.2554-2.2109 2.1738-0.61702 0.88315-1.0967 1.9413-1.4394 3.1777-0.34279 1.2011-0.51367 2.4566-0.51367 3.7637 0 1.3424 0.15438 2.6134 0.46289 3.8145 0.30851 1.1658 0.7532 2.1911 1.3359 3.0742 0.61702 0.88316 1.354 1.5892 2.2109 2.1191 0.89126 0.49457 1.904 0.74219 3.0352 0.74219 1.474 0 2.5712-0.24762 3.291-0.74219 0.71986-0.52989 1.2675-1.1489 1.6445-1.8555v-2.2246h-3.1367v-5.6699h17.07v5.6699h-2.0566v13.246h-10.283l-1.5938-3.3379c-0.58274 0.98913-1.6119 1.8732-3.0859 2.6504-1.474 0.77717-3.2052 1.166-5.1934 1.166-2.2624 0-4.3703-0.42562-6.3242-1.2734-1.9539-0.88315-3.6666-2.1367-5.1406-3.7617-1.4397-1.625-2.5883-3.5847-3.4453-5.8809-0.8227-2.2962-1.2344-4.8749-1.2344-7.7363 0-2.8967 0.44468-5.5296 1.3359-7.8965 0.89125-2.4022 2.0748-4.4508 3.5488-6.1465 1.474-1.731 3.1537-3.0735 5.0391-4.0273s3.8389-1.4297 5.8613-1.4297zm-574.78 0.61719c7.5018 0 13.737 5.4521 14.809 12.531l12.08-0.28516v-12.246h2.9238v12.055l38.482-0.86133v1.9121h20.752v2.8711h-20.752v1.9121l-38.482-0.85937v12.436h-2.9238v-12.246l-12.08-0.28516c-1.0717 7.0792-7.3068 12.531-14.809 12.531-8.2812 0-15.004-6.601-15.004-14.732s6.7227-14.732 15.004-14.732zm637.44 0.01758h16.248v6.9941h-2.7246v22.998h6.6328v-6.7305h8.6387v13.777h-28.795v-7.0469h2.8281v-22.998h-2.8281v-6.9941zm31.334 0h15.682c3.1194 0 5.8798 0.47783 8.2793 1.4316 2.4338 0.91848 4.4718 2.1894 6.1172 3.8144 1.6797 1.5897 2.9497 3.4797 3.8066 5.6699 0.89126 2.1902 1.3359 4.5581 1.3359 7.1016 0 6.0761-1.6962 10.773-5.0898 14.094-3.3936 3.2853-8.2784 4.9277-14.654 4.9277h-15.477v-7.0469h3.1875v-22.998h-3.1875v-6.9941zm-668.78 2.8516c-6.625 0-12.082 5.2624-12.082 11.863 0 6.5052 5.3596 11.863 12.082 11.863 6.625 0 12.08-5.2624 12.08-11.863 0-6.5052-5.4551-11.863-12.08-11.863zm682.5 4.1426v22.998h1.9531c1.3712 0 2.5363-0.31726 3.4961-0.95313 0.99409-0.63587 1.801-1.4851 2.418-2.5449 0.61702-1.0951 1.0617-2.3661 1.3359-3.8144 0.30851-1.4484 0.46289-3.0018 0.46289-4.6621 0-1.413-0.15438-2.775-0.46289-4.082-0.27423-1.3424-0.71892-2.5244-1.3359-3.5488-0.61702-1.0245-1.4239-1.837-2.418-2.4375-0.95981-0.63587-2.1249-0.95508-3.4961-0.95508h-1.9531zm-65.693 0.16016c-0.78841 0-1.5088 0.28243-2.1602 0.84765-0.61702 0.52989-1.1646 1.2882-1.6445 2.2774-0.44563 0.98912-0.80585 2.1731-1.0801 3.5508-0.23996 1.3777-0.35938 2.8789-0.35938 4.5039 0 1.731 0.13593 3.3038 0.41016 4.7168 0.30851 1.3777 0.70369 2.5616 1.1836 3.5508 0.51419 0.98913 1.1132 1.7474 1.7988 2.2773 0.71986 0.5299 1.4918 0.79493 2.3144 0.79493 0.8227 0 1.5431-0.26503 2.1602-0.79493 0.6513-0.52989 1.1989-1.2708 1.6445-2.2246 0.47991-0.95381 0.84013-2.1029 1.0801-3.4453s0.35937-2.8436 0.35937-4.5039c0-1.625-0.11942-3.1262-0.35937-4.5039-0.20567-1.413-0.54939-2.6318-1.0293-3.6562-0.44562-1.0598-1.0282-1.8897-1.748-2.4902-0.71986-0.60055-1.5762-0.90042-2.5703-0.90039zm-546.57 10.43h18.803v17.508h1.9492v1.9121h-22.701v-1.9121h1.9492v-17.508zm8.7676 2.0098v1.9141h4.9688l-3.3125 3.252c-0.87685-0.57398-1.9481-0.95703-3.1172-0.95703-3.0202 0-5.4551 2.3918-5.4551 5.3574s2.4349 5.3574 5.4551 5.3574 5.457-2.3918 5.457-5.3574c0-1.148-0.39005-2.1996-0.97461-3.0605l3.3125-3.2539v4.8789h1.9473v-8.1309h-8.2813zm-1.4609 6.123c1.9485 0 3.5078 1.5301 3.5078 3.4434s-1.5593 3.4434-3.5078 3.4434-3.5078-1.5301-3.5078-3.4434 1.5593-3.4434 3.5078-3.4434z" fill="url(#b)" style="paint-order:stroke fill markers"/>
 <g fill="url(#a)" stroke-width="1.169" style="font-variant-east_asian:normal">
  <path d="m425.78 4.3274c-2.1049 0.99436-4.1345 2.1585-6.0521 3.492-8.2268 5.6615-14.008 14.484-17.242 24.002-2.0945 6.9587-3.4501 14.758-3.5203 21.078 0 0.04519 0 0.09037-2e-3 0.13556 0 0.26401 0 0.52787 3e-3 0.79186 0.0521 7.752 1.5653 15.465 3.9024 22.229 3.4495 9.616 9.6186 18.433 18.209 23.827 4.0812 2.1508 8.6075 4.3376 12.589 5.3982 4.4876 1.0979 8.9396 1.5447 13.386 1.5387 4.5329 6e-3 9.134-0.4904 13.385-1.5387 4.7025-1.4302 8.9815-3.1581 12.589-5.3982 8.5902-5.3943 14.76-14.211 18.209-23.827 2.5687-7.5094 3.8345-14.832 3.9019-22.229 2e-3 -0.26609 3e-3 -0.53206 3e-3 -0.79817 0-0.03859 0-0.07718-2e-3 -0.11577-0.32031-7.8847-1.5144-14.577-3.5203-21.092-3.2354-9.5183-9.0164-18.341-17.243-24.002-1.9176-1.3335-3.9472-2.4976-6.0521-3.492-6.8607-3.2044-13.941-4.3244-21.272-4.321-7.2438-0.079373-14.772 1.3121-21.271 4.321zm46.753 19.933c3.4216 4.4056 5.7726 9.6418 7.1311 15.088 1.5775 6.7011 1.9244 15.041 1.28 20.936-0.68767 6.4375-2.5269 12.8-5.7835 18.37-2.2531 3.8539-5.2079 7.3054-8.7916 9.8976-6.4139 4.2746-12.219 6.0461-19.317 6.0574-6.8243 0.04612-13.969-2.0969-19.317-6.0574-3.5837-2.5922-6.5385-6.0437-8.7916-9.8976-3.2566-5.5696-5.0959-11.932-5.7835-18.37-0.28284-7.5747-0.50417-14.491 1.2804-20.936 1.3586-5.446 3.7092-10.682 7.1307-15.088 7.1734-8.1922 15.573-12.04 25.358-12.147 9.7857-0.10761 20.053 5.0855 25.604 12.147z" style="font-variant-east_asian:normal"/>
  <path d="m607.47 0.92483c4.85-1.0576 9.8398-1.026 14.771-0.79031 4.7298 0.3305 9.4876 1.049 13.955 2.7503 4.9982 1.7674 9.6413 4.8195 12.965 9.0786 4.4698 5.7161 6.2589 13.165 6.4769 20.373h-12.532c-0.17611-4.8195-1.7639-9.7252-5.0289-13.272-2.3873-2.6813-5.5656-4.5005-8.881-5.6644-6.7481-2.1956-14.12-2.1497-20.915-0.1983-4.0058 1.2473-7.9026 3.6699-9.9907 7.518-1.5682 2.7388-2.1497 5.9662-2.1245 9.1159 0.0475 3.4372 1.3502 7.0266 4.1092 9.1217 3.279 2.6813 7.542 3.3308 11.495 4.3223 6.1555 1.391 12.277 2.9371 18.436 4.3252 4.0421 1.0087 8.1765 1.7646 12.043 3.4055 3.6676 1.5663 7.1394 3.7619 9.865 6.7622 2.9771 3.3279 4.9478 7.5554 5.7501 11.993 0.56188 3.0348 0.68488 6.1443 0.47522 9.2251-0.32426 3.6182-1.1238 7.2335-2.7367 10.495-1.8142 3.8855-4.7298 7.1444-8.1038 9.662-3.9667 2.8796-8.5455 4.8252-13.261 5.9518l-0.1789 0.1207c-4.7019 1.0461-9.5099 1.6726-14.326 1.572-8.3219 0.046-17.013-1.0116-24.309-5.4345-4.9367-3.1957-9.345-7.4893-12.073-12.84-1.68-3.2072-2.5885-6.7737-3.0526-10.366-0.19288-2.2589-0.39415-4.5206-0.37179-6.7881h12.585c0.0308 0.99723-0.095 2.0175 0.16214 2.9974 0.3606 5.2017 2.5606 10.34 6.3763 13.838 4.5537 4.2907 10.768 6.0926 16.792 6.6875 5.3672 0.41958 10.818 0.02586 16.037-1.3737 4.1763-1.1582 8.3638-3.2302 10.991-6.8887 1.7891-2.5405 2.5885-5.673 2.6109-8.7826-0.095-3.0233-0.45565-6.2133-2.1832-8.7624-1.8226-2.8308-4.8947-4.4056-7.8523-5.6759-4.386-1.7186-8.9592-2.8767-13.535-3.9113-4.9115-1.1783-9.823-2.3537-14.735-3.5262-5.493-1.161-11.064-2.8336-15.587-6.3714-4.1763-3.1756-7.1115-8.0181-7.9501-13.297-0.76314-4.877-0.41931-9.9378 0.91968-14.68 1.6157-5.6759 4.9171-10.852 9.4624-14.499 3.8996-3.1641 8.607-5.1615 13.451-6.1932z" style="font-variant-east_asian:normal"/>
  <path d="m45.562 2.6721c6.4574 0.15806 13.046 2.029 18.17 6.1961 4.1148 3.2302 7.0612 7.8917 8.5847 12.953 1.6912 5.765 1.6521 11.955 0.38856 17.804-1.3893 5.9891-4.4726 11.671-9.1857 15.553-2.446 1.9772-5.2246 3.5751-8.2185 4.4832l-0.18729 0.1207c-3.1923 0.957-6.5021 1.5303-9.8286 1.5734h-31.978v42.775h-13.307v-101.46zm-32.255 11.763v35.107h28.604c5.1743-0.26727 10.843-1.6122 14.312-5.8943 2.0043-2.4054 2.9771-5.5351 3.4048-8.6274 0.50317-4.1183 0.25438-8.475-1.5542-12.251-1.5123-3.144-4.3412-5.4833-7.5168-6.6731-3.3712-1.3019-7.0081-1.6726-10.589-1.6611z" style="font-variant-east_asian:normal"/>
  <path d="m77.019 2.6765h71.867v12.194h-58.474v31.032h53.941v12.236h-53.941v33.861h58.47v12.129h-71.863z" style="font-variant-east_asian:normal"/>
  <path d="m152.44 2.6765h15.847l49.451 82.033v-82.033h12.976l6e-3 101.46h-15.014l-50.337-82.109v82.109h-12.929z" style="font-variant-east_asian:normal"/>
  <path d="m233.98 2.6607v12.214h33.297v89.248h13.478v-89.248h33.297v-12.214z" style="font-variant-east_asian:normal"/>
  <path d="m317.39 2.6851h13.41v41.914l51.432-0.0086v-41.905h13.38v101.44h-13.38v-47.35l-51.432-0.0057v47.356h-13.41z" style="font-variant-east_asian:normal"/>
  <path d="m498.67 2.6792v57.904c0.17393 5.5942-0.39027 11.298 0.44667 16.419 1.1741 8.2308 5.0569 16.188 11.402 21.468 4.755 4.055 10.67 6.4807 16.717 7.5814 3.3796 0.56928 6.8085 0.81682 10.234 0.76618 3.4254 0.0507 6.8544-0.19688 10.234-0.76618 6.0464-1.1007 11.962-3.5264 16.717-7.5814 6.3456-5.2793 10.228-13.237 11.402-21.468 0.73628-5.6303 0.40281-11.149 0.44685-16.419v-57.904h-13.376v63.954c0.0322 2.4351-0.19202 5.1543-0.56466 7.4387-0.63668 3.7436-1.8628 7.3657-3.9499 10.526-2.9799 4.6298-7.8719 7.7105-13.066 8.998-2.5612 0.63837-5.2014 0.9862-7.8436 1.0217-2.6423-0.03551-5.2828-0.38333-7.844-1.0217-5.1938-1.2875-10.086-4.3682-13.066-8.998-2.0871-3.1604-3.3132-6.7825-3.9498-10.526-0.40659-2.6266-0.58282-4.897-0.56469-7.4387v-63.954h-13.361z" style="font-variant-east_asian:normal"/>
  <path d="m663.13 2.6765h71.867v12.194h-58.474v31.032h53.941v12.236h-53.941v33.861h58.47v12.129h-71.863z" style="font-variant-east_asian:normal"/>
 </g>
</svg>
