<svg width="800" height="303.21" enable-background="new 0 0 1011.563 383.4" version="1.1" viewBox="0 0 800 303.21" xml:space="preserve" xmlns="http://www.w3.org/2000/svg">
<path d="m0 151.61c0 83.172 68.739 151.61 152.26 151.61v-303.21c-83.52 0-152.26 68.435-152.26 151.61" fill="#41cfff" stroke-width=".79086"/><g transform="matrix(.79086 0 0 .79086 0 -8.7773e-6)" fill="#fff">
		<polygon points="389.88 252.39 389.88 134.21 290.12 134.21 290.12 252.39 314.75 252.39 314.75 154.82 365.23 154.82 365.23 252.39"/>
		<polygon points="490.98 154.82 490.98 134.21 409.78 134.21 409.78 252.39 491.83 252.39 491.83 231.78 434.43 231.78 434.43 202.59 485.23 202.59 485.23 181.98 434.43 181.98 434.43 154.82"/>
		<path d="m556.77 134.21h-47.772v118.18h24.653v-43.401h23.464c23.138 0 39.835-15.528 39.835-37.458s-16.696-37.324-40.18-37.324m-3.546 54.194h-19.573v-33.605h19.4c10.659 0 17.905 6.748 17.905 16.716s-7.074 16.889-17.732 16.889"/>
		<polygon points="637.75 231.78 637.75 134.21 613.08 134.21 613.08 252.39 768.91 252.39 768.91 134.21 744.26 134.21 744.26 231.78 703.25 231.78 703.25 134.21 678.6 134.21 678.6 231.78"/>
		<polygon points="865.89 176.92 865.89 252.39 890.54 252.39 890.54 134.21 870.11 134.21 814.07 209.68 814.07 134.21 789.42 134.21 789.42 252.39 809.86 252.39"/>
		<path d="m961.09 129.82c17.215 0 29.388-10.467 29.388-25.151h-19.247c0 5.406-4.064 9.106-10.141 9.106s-10.141-3.7-10.141-9.106h-19.419c0 14.684 12.499 25.151 29.541 25.151"/>
		<polygon points="930.88 252.37 986.91 176.92 986.91 252.37 1011.6 252.37 1011.6 134.21 991.13 134.21 935.09 209.68 935.09 134.21 910.46 134.21 910.46 252.37"/>
	</g>
</svg>
