<svg width="800" height="237.53" version="1.1" viewBox="0 0 800 237.53" xml:space="preserve" xmlns="http://www.w3.org/2000/svg">
<g transform="matrix(.51151 0 0 .51151 0 .001136)">
			<linearGradient id="SVGID_1_" x1="285.93" x2="484.12" y1="368.22" y2="368.22" gradientTransform="matrix(1,0,0,-1,0,466)" gradientUnits="userSpaceOnUse">
			<stop stop-color="#62CE79" offset="0"/>
			<stop stop-color="#299540" offset="1"/>
		</linearGradient>
		<path d="m415.8 75.9c-0.8-7.8 4.9-14.7 12.6-15.6l53.2-5.5 2.3-12.9c1.3-7.7-3.8-15-11.5-16.4l-144.4-25.3c-7.7-1.3-15 3.8-16.4 11.5l-25.4 144.4c-1.3 7.7 3.8 15 11.5 16.4l130.6 23z" fill="url(#SVGID_1_)"/>
			<linearGradient id="SVGID_2_" x1="459.18" x2="608.37" y1="456.41" y2="456.41" gradientTransform="matrix(.9947 -.1031 -.1031 -.9947 17.404 641.4)" gradientUnits="userSpaceOnUse">
			<stop stop-color="#E94100" offset="0"/>
			<stop stop-color="#E33802" offset=".24"/>
			<stop stop-color="#D31E09" offset=".63"/>
			<stop stop-color="#BF0010" offset="1"/>
		</linearGradient>
		<path d="m433.5 64.4 120.2-12.5c7.8-0.8 14.7 4.8 15.6 12.6l12.5 120.2c0.8 7.8-4.8 14.7-12.6 15.6l-120.2 12.5c-7.8 0.8-14.7-4.8-15.6-12.6l-12.6-120.2c-0.8-7.8 4.9-14.8 12.7-15.6z" fill="url(#SVGID_2_)"/>
			<linearGradient id="SVGID_3_" x1="5.7507" x2="4.7207" y1="340.06" y2="336.52" gradientTransform="matrix(1,0,0,-1,0,466)" gradientUnits="userSpaceOnUse">
			<stop stop-color="#E6E6E6" offset="0"/>
			<stop stop-color="#fff" offset=".5"/>
			<stop stop-color="#E6E6E6" offset="1"/>
		</linearGradient>
		<path d="m9.5 128.1-2.7-5.5c-2.1 2.5-4.4 4.9-6.8 7.2l9.6-1.1z" fill="url(#SVGID_3_)"/>
			<linearGradient id="SVGID_4_" x1="9.6212" x2="9.5512" y1="337.64" y2="337.42" gradientTransform="matrix(1,0,0,-1,0,466)" gradientUnits="userSpaceOnUse">
			<stop stop-color="#E6E6E6" offset="0"/>
			<stop stop-color="#fff" offset=".5"/>
			<stop stop-color="#E6E6E6" offset="1"/>
		</linearGradient>
		<path d="m9.8 128.7-0.3-0.6 0.1 0.6z" fill="url(#SVGID_4_)"/>
			<linearGradient id="SVGID_5_" x1="9.6212" x2="9.5512" y1="337.64" y2="337.42" gradientTransform="matrix(1,0,0,-1,0,466)" gradientUnits="userSpaceOnUse">
			<stop stop-opacity=".13" offset="0"/>
			<stop stop-color="#F2F2F2" stop-opacity="0" offset="1"/>
		</linearGradient>
		<path d="m9.8 128.7-0.3-0.6 0.1 0.6z" enable-background="new" fill="url(#SVGID_5_)" opacity=".2"/>
			<linearGradient id="SVGID_6_" x1="5.7507" x2="4.7207" y1="340.06" y2="336.52" gradientTransform="matrix(1,0,0,-1,0,466)" gradientUnits="userSpaceOnUse">
			<stop stop-opacity=".13" offset="0"/>
			<stop stop-color="#F2F2F2" stop-opacity="0" offset="1"/>
		</linearGradient>
		<path d="m9.5 128.1-2.7-5.5c-2.1 2.5-4.4 4.9-6.8 7.2l9.6-1.1z" enable-background="new" fill="url(#SVGID_6_)" opacity=".2"/>
		<path d="m8.3 122c0-0.5-0.1-0.8-0.1-0.8 0 0.3 0 0.5 0.1 0.8z" fill="#d9277b"/>
		<path d="m10.6 128.6c-0.5-1.1-0.9-2.2-1.2-3.1l-0.4 0.3 0.6 2.9z" fill="#d9277b"/>
		<path d="m9 125.8-0.4 0.3c0.1 0.8 0.2 1.7 0.3 2.6l0.6-0.1z" fill="#d9277b"/>
		<path d="m55.8 182.4s17.2-3.3 13.9-15.1c-2.9 6.4-7.7 11.7-13.9 15.1z" fill="#9e1d61"/>
		<path d="m72.9 170.2s17.2-3.3 13.9-15.1c-2.8 6.4-7.7 11.7-13.9 15.1z" fill="#9e1d61"/>
			<linearGradient id="SVGID_7_" x1="892.35" x2="1079.7" y1="111.88" y2="111.88" gradientTransform="matrix(1,0,0,-1,0,466)" gradientUnits="userSpaceOnUse">
			<stop stop-color="#E94100" offset="0"/>
			<stop stop-color="#E33802" offset=".24"/>
			<stop stop-color="#D31E09" offset=".63"/>
			<stop stop-color="#BF0010" offset="1"/>
		</linearGradient>
		<path d="m892.3 354.1c-0.1-12.5 2.4-24.9 7.4-36.4 9.6-22.4 27.5-40.2 49.8-49.9 11.5-5 23.9-7.5 36.4-7.4 12.5-0.1 25 2.5 36.4 7.5 22.4 9.8 40.2 27.8 49.8 50.3 4.9 11.3 7.5 23.5 7.4 35.9 0.1 12.5-2.4 24.9-7.4 36.4-9.6 22.4-27.5 40.2-49.8 49.9-23.3 9.9-49.6 9.9-72.9 0-22.4-9.6-40.2-27.5-49.8-49.9-4.8-11.4-7.3-23.8-7.3-36.4zm32.9 0c-0.1 8.1 1.6 16.2 4.8 23.7 6.2 14.6 17.8 26.2 32.3 32.3 15.2 6.4 32.2 6.4 47.4 0 14.6-6.2 26.1-17.8 32.3-32.3 6.4-15.1 6.4-32.2 0-47.4-6.2-14.6-17.8-26.2-32.3-32.3-15.2-6.4-32.2-6.4-47.4 0-14.6 6.2-26.1 17.8-32.3 32.3-3.2 7.5-4.8 15.6-4.8 23.7z" fill="url(#SVGID_7_)"/>
			<linearGradient id="SVGID_8_" x1="978.12" x2="978.12" y1="205.5" y2="205.5" gradientTransform="matrix(1,0,0,-1,0,466)" gradientUnits="userSpaceOnUse">
			<stop stop-color="#E94100" offset="0"/>
			<stop stop-color="#E33802" offset=".24"/>
			<stop stop-color="#D31E09" offset=".63"/>
			<stop stop-color="#BF0010" offset="1"/>
		</linearGradient>
		<path d="m978.1 260.5" fill="url(#SVGID_8_)"/>
		<circle cx="1490.1" cy="256.2" r="27.4" fill="#73559c"/>
		<circle cx="1542.8" cy="233" r="18.2" fill="#5c45be"/>
		<circle cx="1506.7" cy="205.9" r="14" fill="#673ba5"/>
		<circle cx="1541.4" cy="186.6" r="6.8" fill="#3d259e"/>
		<circle cx="1543.8" cy="234" r="20.2" fill="#5e4684"/>
			<linearGradient id="SVGID_9_" x1="977.12" x2="977.12" y1="205.5" y2="205.5" gradientTransform="matrix(1,0,0,-1,0,466)" gradientUnits="userSpaceOnUse">
			<stop stop-color="#E94100" offset="0"/>
			<stop stop-color="#E33802" offset=".24"/>
			<stop stop-color="#D31E09" offset=".63"/>
			<stop stop-color="#BF0010" offset="1"/>
		</linearGradient>
		<path d="m977.1 260.5" fill="url(#SVGID_9_)"/>
			<linearGradient id="SVGID_10_" x1="266.48" x2="288.97" y1="217.83" y2="-32.661" gradientTransform="matrix(1,0,0,-1,0,466)" gradientUnits="userSpaceOnUse">
			<stop stop-color="#62CE79" offset="0"/>
			<stop stop-color="#299540" offset="1"/>
		</linearGradient>
		<path d="m255.8 261.5c-3.6-3.2-5.5-7.4-5.7-12.8s1.4-9.7 4.8-13 8-5.1 14-5.3c5.8-0.2 10.5 1.2 14.2 4.3s5.7 7.3 5.9 12.6-1.4 9.7-4.8 13.2c-3.4 3.4-8 5.3-14 5.5-5.9 0.1-10.7-1.4-14.4-4.5zm10 186.7c-3.1-2.4-4.7-6-4.9-11l-4.7-125.4c-0.2-4.9 1.2-8.8 4.1-11.4 3.1-2.8 7-4.3 11.1-4.3 4.1-0.3 8.1 0.9 11.3 3.5 3 2.5 4.6 6.2 4.8 11.1l4.6 125.4c0.2 4.9-1.1 8.7-3.9 11.3-3 2.7-7 4.1-11 4.1-4.2 0.3-8.2-0.9-11.4-3.3z" fill="url(#SVGID_10_)"/>
			<linearGradient id="SVGID_11_" x1="431.06" x2="373.33" y1="56.854" y2="145.55" gradientTransform="matrix(1,0,0,-1,0,466)" gradientUnits="userSpaceOnUse">
			<stop stop-color="#A2A10F" offset="0"/>
			<stop stop-color="#ABAA18" offset=".23"/>
			<stop stop-color="#C5C432" offset=".62"/>
			<stop stop-color="#E4E351" offset=".99"/>
		</linearGradient>
		<path d="m440.1 285.4c-2.6-2.4-6.3-3.6-11-3.6h-33.5v-34.8c0-5.2-1.6-9.3-4.7-12.2-3.2-2.9-7.3-4.4-12.5-4.4s-9.3 1.5-12.4 4.4c-3 2.9-4.6 7-4.6 12.2v34.9h-20.4c-4.7 0-8.4 1.2-11 3.6-2.7 2.5-4.1 6-3.9 9.7 0 8.8 5 13.2 14.9 13.2h20.3v125.9c0 5.3 1.6 9.6 4.7 12.7s7.2 4.7 12.3 4.7c5.5 0 9.8-1.6 12.8-4.7s4.5-7.3 4.5-12.7v-126h33.5c4.7 0 8.4-1.1 11-3.4s3.9-5.5 3.9-9.8c0.2-3.7-1.2-7.2-3.9-9.7z" fill="url(#SVGID_11_)"/>
			<linearGradient id="SVGID_12_" x1="456.67" x2="643.83" y1="116.71" y2="116.71" gradientTransform="matrix(1,0,0,-1,0,466)" gradientUnits="userSpaceOnUse">
			<stop stop-color="#FFBA3F" offset="0"/>
			<stop stop-color="#F9B436" offset=".24"/>
			<stop stop-color="#E7A51C" offset=".64"/>
			<stop stop-color="#D49400" offset="1"/>
		</linearGradient>
		<path d="m643 372.4c-1.4-4-4.4-7-8.9-9.1-4.9-2.2-9.3-2.6-13.2-1s-7 4.7-9.2 9.5l-0.4 0.8-1 2.3c-1.3 2.8-2.8 5.4-4.5 7.9-4.1 5.7-9.2 10.7-15 14.8-6.4 4.5-13.5 8-21 10.3-7.8 2.5-16 3.5-24.2 2.7-15.9-1.5-30.5-9-40.9-21.1-10.8-12.6-16.1-29-14.6-45.4 1.5-15.9 9-30.5 21.1-40.9 6.2-5.4 13.4-9.4 21.3-11.9 7.5-2.4 15.3-3.7 23.1-3.8 7.1-0.1 14.1 1.1 20.8 3.4 6 2.1 11.6 5.4 16.3 9.7 2.9 2.7 5.4 6 7.3 9.5h0.1c1.6 3.1 4.1 5.5 7.2 7 3.9 1.8 8.3 1.9 13 0.1 5.1-1.9 8.6-4.8 10.3-8.7s1.7-8.3-0.1-13.2l-0.2-0.4v-0.1c-3.1-5.8-7-11.1-11.6-15.8-7.6-7.6-16.6-13.5-26.6-17.4-10.6-4.2-21.8-6.5-33.2-6.9-12.3-0.5-24.6 1.2-36.3 5.1-12 3.8-23.2 10-32.7 18.3-18.5 16.1-30.2 38.6-32.6 63-2.3 25.4 5.7 50.7 22.3 70 16.1 18.6 38.7 30.2 63.1 32.6 12.6 1.2 25.2-0.1 37.2-4.1 11.8-3.7 22.8-9.4 32.5-16.9 9-6.9 16.8-15.3 23-24.9 2.5-3.8 4.6-7.8 6.4-12v-0.1c0.3-0.8 0.7-1.5 0.9-2.3 0.1-0.1 0.1-0.3 0.2-0.4 1.2-3.5 1.3-7.2 0.1-10.6z" fill="url(#SVGID_12_)"/>
			<linearGradient id="SVGID_13_" x1="651.99" x2="881.18" y1="167.66" y2="167.66" gradientTransform="matrix(1,0,0,-1,0,466)" gradientUnits="userSpaceOnUse">
			<stop stop-color="#AF5DCA" offset="0"/>
			<stop stop-color="#A654C1" offset=".26"/>
			<stop stop-color="#8C3BA7" offset=".69"/>
			<stop stop-color="#762591" offset="1"/>
		</linearGradient>
		<path d="m881.1 413.5-0.2-2.6-0.8-12.7h0.1l-4-66.8c-3.2-21.3-8.7-38.7-16.5-52.2-7.8-13.4-17-23.8-27.5-31.1-10.1-7.2-21.7-12.1-33.8-14.6-11.7-2.4-23.7-3.2-35.6-2.5s-22 2.5-30.4 5.3c-7.3 2.3-14.4 5.4-21.1 9.1-6 3.3-11.6 7.3-16.5 12l-4.7-76.8-0.6-10.6c-0.3-5.8-2.3-10.3-5.9-13.5s-8.2-4.6-13.8-4.3c-6.1 0.3-10.6 2.3-13.7 5.9s-4.5 8.3-4.1 14.1l0.6 10.9 13.8 225.9 1.1 17.5c0.4 5.9 2.4 10.4 6 13.7 3.6 3.2 8.2 4.7 13.8 4.3 6.1-0.4 10.6-2.4 13.7-6s4.4-8.4 4-14.3l-0.2-2.6-4.8-79.4c-0.2-13 2.1-24.7 6.7-35.2 1.9-4.7 4.4-9.1 7.5-13.2 3.4-4.4 7.3-8.4 11.7-11.8 5-3.9 10.6-6.9 16.5-9 14.8-4.9 30.6-5.8 45.9-2.8 11.6 2.6 22.2 8.6 30.4 17.3 3.5 3.7 6.6 7.8 9.2 12.1 5.8 9.9 9.4 21.3 10.8 34.2l3.9 64.6 1.1 17.5c0.4 5.9 2.4 10.4 6 13.7 3.6 3.2 8.2 4.7 13.8 4.3 6.1-0.4 10.6-2.4 13.7-6 3-3.7 4.3-8.5 3.9-14.4z" fill="url(#SVGID_13_)"/>
			<linearGradient id="SVGID_14_" x1="1108.6" x2="1308.4" y1="127.19" y2="127.19" gradientTransform="matrix(1,0,0,-1,0,466)" gradientUnits="userSpaceOnUse">
			<stop stop-color="#DD2B7F" offset="0"/>
			<stop stop-color="#D42276" offset=".59"/>
			<stop stop-color="#CA186C" offset="1"/>
		</linearGradient>
		<path d="m1305.3 250.4c-2.8-4-7-6.4-12.5-7.3-6-1-10.9-0.1-14.8 2.8-3.8 2.9-6.2 7.2-7.2 13l-0.4 2.6-1.4 8.5-20.2 117.8c-0.1 0.4-0.4 1.6-0.9 3.7-0.7 2.6-1.7 5.2-2.9 7.6-1.6 3.3-3.7 6.4-6.1 9.2-2.9 3.4-6.5 6.2-10.5 8.3-4.9 2.6-10.3 4.3-15.8 5-6.2 1-13.6 0.7-22.2-0.8-5.8-0.9-11.5-2.5-16.9-4.8-4.3-1.8-8.3-4.1-12-6.8-3.1-2.3-5.7-5.1-7.9-8.3-1.8-2.8-3.4-5.7-4.6-8.8-2.8-7-3.7-14.6-2.6-22l16.7-97.6h0.1l2.6-15.2 2.9-17.3c1-5.8 0-10.7-2.8-14.7s-7-6.4-12.5-7.3c-6-1-10.9-0.1-14.8 2.8-3.8 2.9-6.2 7.2-7.2 13l-0.4 2.6-0.7 4.4-21.1 123c-1.7 15-0.2 28.8 4.3 41.4 2 5.7 4.7 11.2 8 16.4 3.6 5.8 8.2 11 13.4 15.4 6.2 5.2 13.1 9.4 20.4 12.7 9.1 4 18.8 6.8 28.6 8.4 9.8 1.8 19.7 2.4 29.6 1.6 8-0.6 15.8-2.3 23.3-5 6.4-2.3 12.4-5.6 17.9-9.7 4.9-3.7 9.2-8 13.1-12.7 8.5-10.2 14.4-22.6 17.8-37.1l16.7-97.5h0.1l2.6-15.2 2.9-17.3c1.1-6 0.2-10.9-2.6-14.8z" fill="url(#SVGID_14_)"/>
			<linearGradient id="SVGID_15_" x1="1332.4" x2="1503.2" y1="102.56" y2="102.56" gradientTransform="matrix(1,0,0,-1,0,466)" gradientUnits="userSpaceOnUse">
			<stop stop-color="#693CA6" offset="0"/>
			<stop stop-color="#7245AF" offset=".25"/>
			<stop stop-color="#8C5FC9" offset=".66"/>
			<stop stop-color="#A679E3" offset="1"/>
		</linearGradient>
		<path d="m1492.7 323.4c-5.6-11.1-12.4-19.8-20.3-26.1-7.7-6.2-16.7-10.7-26.2-13.3-9.2-2.5-18.7-3.7-28.2-3.8-8.2-0.1-16.5 0.8-24.5 2.8-5.9 1.5-11.7 3.6-17.2 6.2-5 2.3-9.6 5.4-13.7 9v-0.7c0-4.7-1.4-8.3-4.2-11-2.9-2.8-6.8-4.2-10.8-4-4.9 0-8.6 1.4-11.2 4.1-2.6 2.8-3.9 6.4-3.9 11.1v2.1l0.1 10.4v120.9c0 4.7 1.4 8.4 4.1 11.2 2.9 2.8 6.7 4.3 10.7 4.1 4.8 0 8.6-1.4 11.2-4.1s3.9-6.5 3.9-11.2v-65.4c0.3-9.6 2.7-19.1 7-27.7 1.8-3.6 4-7 6.6-10.1 2.9-3.4 6.2-6.4 9.9-8.9 4.2-2.8 8.8-5 13.6-6.4 12-3.2 24.7-3.2 36.7 0 9.1 2.6 17.3 7.9 23.3 15.2 2.6 3.1 4.8 6.5 6.7 10.1 4.3 8.6 6.7 18.1 7 27.7v65.6c0 4.7 1.4 8.4 4.1 11.2 2.9 2.8 6.7 4.3 10.7 4.1 4.8 0 8.6-1.4 11.2-4.1s3.9-6.5 3.9-11.2v-65.7c-1.5-16.9-5-31-10.5-42.1z" fill="url(#SVGID_15_)"/>
			<linearGradient id="SVGID_16_" x1="8.2488" x2="237.29" y1="172.7" y2="172.7" gradientTransform="matrix(1,0,0,-1,0,466)" gradientUnits="userSpaceOnUse">
			<stop stop-color="#5BABE9" offset="0"/>
			<stop stop-color="#52A2E0" offset=".22"/>
			<stop stop-color="#3889C7" offset=".59"/>
			<stop stop-color="#1566A4" offset=".99"/>
		</linearGradient>
		<path d="m237 227.6c-0.8-14-3.1-26.2-7-36.6-3.4-9.6-8.2-18.7-14.2-27-5.3-7.2-11.7-13.6-19-18.8-6.7-4.8-13.9-8.9-21.4-12.3-16.8-7.3-35.7-10.9-56.7-10.7l-83.8 4.9c-9 0.6-15.7 3.3-20.3 8.1s-6.7 11-6.3 18.6v0.6l15.1 258.4h-0.1l1.6 27.6c0.5 7.8 3.4 13.9 8.7 18.2s12.2 6.2 20.5 5.7c9.1-0.5 15.9-3.2 20.6-8s6.7-11.2 6.3-19l-1.6-27.9h-0.1l-3.5-60.1 55.9-3.2c20.9-2.3 39.3-8 55.1-17.2 7.1-4 13.8-8.9 19.8-14.4 6.6-6.1 12.3-13.2 16.7-21 5-8.9 8.7-18.5 11-28.5 2.6-11 3.5-23.4 2.7-37.4zm-211.4-22c-6.5 0-6.4-10 0-10s6.5 10 0 10zm3.5-36.5c-8.4 0-14.6-6.9-15-15s7.1-15 15-15c8.4 0 14.6 6.9 15 15s-7.2 15-15 15zm15.5 22.6c-12.9 0-12.9-20 0-20s12.9 20 0 20zm129.7 72.1c-5.4 8-11.5 13.9-18.3 17.6-8.5 4.8-17.9 7.7-27.6 8.6l-55.9 3.3-6.5-111.8 55.9-3.3c9.7-0.2 19.4 1.6 28.4 5.4 3.7 1.7 7.2 3.8 10.5 6.2 3.7 2.7 6.9 5.8 9.7 9.4 3.1 4 5.6 8.6 7.2 13.4 2 5.9 3.1 12.1 3.4 18.3 0.8 14-1.5 24.9-6.8 32.9z" fill="url(#SVGID_16_)"/>
			<linearGradient id="SVGID_17_" x1="970.73" x2="1030" y1="121.31" y2="121.31" gradientTransform="matrix(.99 -.1 -.1 -.99 47.62 490.37)" gradientUnits="userSpaceOnUse">
			<stop stop-color="#E94100" offset="0"/>
			<stop stop-color="#E33802" offset=".24"/>
			<stop stop-color="#D31E09" offset=".63"/>
			<stop stop-color="#BF0010" offset="1"/>
		</linearGradient>
		<path d="m1058.6 264.1c-3.8-4.3-16.4-9.6-57.3-5.5 0 0 25.8 3.5 41.6 17.2l0.7 0.6s6.1 6.3 12.6 5h0.4c1.8-0.4 3.3-1.5 4.1-3.1 4.7-8-2.1-14.2-2.1-14.2z" fill="url(#SVGID_17_)"/>
			<linearGradient id="SVGID_18_" x1="-540.58" x2="-481.3" y1="578.15" y2="578.15" gradientTransform="matrix(-1 .06 .06 .95 393.23 -80.32)" gradientUnits="userSpaceOnUse">
			<stop stop-color="#E94100" offset="0"/>
			<stop stop-color="#E33802" offset=".24"/>
			<stop stop-color="#D31E09" offset=".63"/>
			<stop stop-color="#BF0010" offset="1"/>
		</linearGradient>
		<path d="m911 442.6c3.6 4.2 16 9.7 56.9 7.3 0 0-25.7-4.3-40.8-17.8l-0.7-0.6s-5.8-6.2-12.4-5.2h-0.4c-1.8 0.3-3.3 1.3-4.3 2.8-4.7 7.3 1.7 13.5 1.7 13.5z" fill="url(#SVGID_18_)"/>
		<path d="m395.8 64.4c-1.7-1.4-4-2.1-6.2-2h-19v-19.7c0.1-2.6-0.8-5.1-2.7-6.9-1.9-1.7-4.5-2.6-7.1-2.5-2.6-0.1-5.1 0.8-7 2.5-1.8 1.8-2.7 4.3-2.6 6.9v19.8h-11.5c-2.3-0.1-4.5 0.6-6.2 2-1.5 1.4-2.3 3.4-2.2 5.5 0 5 2.8 7.5 8.4 7.5h11.5v71.2c-0.1 2.7 0.8 5.2 2.6 7.2 1.9 1.8 4.4 2.8 7 2.6 3.1 0 5.6-0.9 7.3-2.6 1.8-2 2.7-4.5 2.5-7.2v-71.4h19c2.2 0.1 4.5-0.5 6.2-1.9 1.5-1.4 2.3-3.5 2.2-5.6 0.1-2-0.7-4-2.2-5.4z" fill="#fff"/>
		<path d="m522 104.2c1.2-0.8 2.6-1.2 4-1.2 2.1 0 4.1 0.8 5.7 2.1s2.5 3.2 2.5 5.3c0 1.1-0.3 2.3-0.8 3.3l-25.3 52.9c-0.7 1.7-2 3-3.5 4-1.5 0.9-3.2 1.4-5 1.4s-3.5-0.5-5-1.4c-1.6-0.9-2.9-2.3-3.6-4l-25.4-52.9c-0.5-1-0.7-2.1-0.7-3.1 0-2.1 1-4.1 2.7-5.3 1.7-1.4 3.9-2.2 6.1-2.2 3.3 0 5.7 1.6 7.3 4.8l19.2 42.3 19-42.1c0.5-1.7 1.5-3 2.8-3.9z" fill="#fff"/>
</g>
</svg>
