<svg width="800" height="499.81" version="1.1" viewBox="0 0 211.67 132.24" xmlns="http://www.w3.org/2000/svg">
 <defs>
  <clipPath id="clipPath108890">
   <path d="m341.54 234.78h20.54v12.474h-20.54z"/>
  </clipPath>
  <clipPath id="clipPath166090">
   <path d="m344.51 236.65h14.452v9.029h-14.452z"/>
  </clipPath>
  <clipPath id="clipPath166100">
   <path d="m-13.527-1.0474h14.452v9.029h-14.452z"/>
  </clipPath>
  <clipPath id="clipPath166124">
   <path d="m341.54 234.78h20.54v12.474h-20.54z"/>
  </clipPath>
  <clipPath id="clipPath166138">
   <path d="m-11.673-2.9909h20.54v12.474h-20.54z"/>
  </clipPath>
  <clipPath id="clipPath166144">
   <path d="m-15.819-2.9194h20.54v12.474h-20.54z"/>
  </clipPath>
  <clipPath id="clipPath166150">
   <path d="m-12.516-3.7904h20.54v12.474h-20.54z"/>
  </clipPath>
  <radialGradient id="j-4" cx="0" cy="0" r="1" gradientTransform="matrix(-33.168 -39.593 39.604 -33.173 66.233 -242.12)" gradientUnits="userSpaceOnUse">
   <stop stop-color="#5e6b6f" offset="0"/>
   <stop stop-color="#5e6b6f" offset=".13681"/>
   <stop stop-color="#5e6b6f" offset=".23606"/>
   <stop stop-color="#75878b" offset=".81395"/>
   <stop stop-color="#9badaf" offset=".94427"/>
   <stop stop-color="#9badaf" offset="1"/>
  </radialGradient>
  <linearGradient id="linearGradient167850" x1="44.955" x2="44.955" y1="-71.043" y2="-122.9" gradientTransform="matrix(.99999 0 0 .99999 23.928 -114.75)" gradientUnits="userSpaceOnUse">
   <stop stop-color="#9fb0b1" offset="0"/>
   <stop stop-color="#718387" offset=".25"/>
   <stop stop-color="#58686d" offset=".5"/>
   <stop stop-color="#4a565b" offset=".75"/>
   <stop stop-color="#434f53" offset="1"/>
  </linearGradient>
  <linearGradient id="linearGradient167852" x1=".86035" x2="15.007" y1="-123.27" y2="-123.27" gradientTransform="matrix(.99999 0 0 .99999 23.928 -114.75)" gradientUnits="userSpaceOnUse">
   <stop stop-color="#6a7c81" offset="0"/>
   <stop stop-color="#596a6e" offset="1"/>
  </linearGradient>
  <radialGradient id="radialGradient108782-0" cx="0" cy="0" r="1" gradientTransform="matrix(-4.4804 5.3482 -5.3529 -4.4838 353.46 244.42)" gradientUnits="userSpaceOnUse">
   <stop stop-color="#485456" offset="0"/>
   <stop stop-color="#485456" offset=".12133"/>
   <stop stop-color="#4a5759" offset=".29308"/>
   <stop stop-color="#6b7c7c" offset=".74549"/>
   <stop stop-color="#a8b5b6" offset="1"/>
  </radialGradient>
 </defs>
 <g transform="matrix(1.9788 0 0 1.9788 .0017009 497.53)">
  <g transform="matrix(7.4018 0 0 -7.4018 -2550 1567)">
   <path d="m351.74 245.68c-1.022 0-2.05-0.345-2.895-1.054-1.067-0.893-1.617-2.174-1.617-3.465 0-0.329 0.036-0.658 0.108-0.983 0.154-0.682 0.467-1.339 0.946-1.911 0.501-0.597 1.122-1.032 1.799-1.299 2e-3 -2e-3 5e-3 -3e-3 9e-3 -3e-3l0.018-9e-3c0.516-0.199 1.063-0.302 1.612-0.305h0.049c0.024 0 0.048 0 0.072 1e-3 0.057 1e-3 0.114 4e-3 0.172 8e-3h0.02c0.019 2e-3 0.039 3e-3 0.059 5e-3 0.906 0.069 1.801 0.413 2.551 1.041 1.06 0.888 1.609 2.159 1.615 3.442 4e-3 1.028-0.342 2.065-1.055 2.916-0.179 0.213-0.373 0.407-0.58 0.579-3e-3 1e-3 -6e-3 4e-3 -8e-3 6e-3 -0.011 9e-3 -0.021 0.018-0.032 0.026-6e-3 4e-3 -0.011 9e-3 -0.017 0.014-9e-3 8e-3 -0.018 0.014-0.027 0.021-7e-3 6e-3 -0.014 0.012-0.022 0.018-7e-3 4e-3 -0.013 0.01-0.019 0.014-0.01 9e-3 -0.021 0.017-0.031 0.024-3e-3 2e-3 -4e-3 3e-3 -7e-3 5e-3 -0.796 0.601-1.755 0.909-2.719 0.909z" fill="url(#radialGradient108782-0)"/>
  </g>
  <path d="m70.808-236.48c0.14464 0 18.189 43.519-19.954 50.299 0 0 1.4163 0.30736 3.7546 0.30736 4.3513 0 11.897-1.0667 19.52-7.1416 12.313-9.8114 12.011-22.534 11.854-24.077-0.80154-8.2385-3.2182-20.183-11.306-20.183-1.1692 0-2.4529 0.24709-3.8691 0.79552" fill="url(#linearGradient167850)"/>
  <path d="m24.788-231.04 1.133-0.904 0.65691-0.81964c0.8136-1.0908 1.5067-1.362 1.9948-1.362l0.26517 0.0301c5.7736-4.0077 10.209-5.6832 10.095-5.7072-1.3198-1.9527-1.4705-5.1287-1.5308-5.2071-9.498 5.3095-12.614 13.97-12.614 13.97" fill="url(#linearGradient167852)"/>
  <path d="m25.921-231.94c-5.2975 7.0934-3.1278 16.959-3.1278 16.959-0.75334-12.475 6.5631-18.857 6.5631-18.857l-0.5183-0.25312c-0.94619 0.65088-1.9225 1.3741-2.9169 2.1515" fill="url(#j-4)"/>
  <path d="m26.578-232.76-0.65691 0.81964c0.9944-0.77745 1.9707-1.5006 2.9169-2.1515l-0.26517-0.0301c-0.48816 0-1.1812 0.27121-1.9948 1.362" fill="#798b8e"/>
 </g>
 <path transform="matrix(14.647 0 0 -14.647 -5045.9 3598.4)" d="m358.96 242.9h-14.452v-3.182h14.452z" clip-path="url(#clipPath166090)" fill="#383436"/>
 <g transform="matrix(1.9788 0 0 1.9788 .0017112 261.78)" fill="#383436">
  <path transform="matrix(7.4018 0 0 -7.4018 64.368 -73.747)" d="m0 0c0-0.023-0.019-0.042-0.059-0.057-0.111-0.038-0.214-0.057-0.311-0.057-0.145 0-0.284 0.036-0.419 0.11-0.269 0.149-0.419 0.4-0.419 0.709 0 0.17 0.047 0.324 0.137 0.463 0.093 0.139 0.217 0.242 0.373 0.307 0.101 0.044 0.208 0.065 0.324 0.065 0.077 0 0.162-0.013 0.252-0.036 0.027-6e-3 0.048-0.014 0.067-0.023l0.023-0.01c0.019-9e-3 0.03-0.024 0.03-0.042v-0.407c0-0.01-4e-3 -0.014-0.011-0.014-2e-3 0-8e-3 4e-3 -0.019 0.01-0.031 0.032-0.077 0.057-0.138 0.078-0.066 0.023-0.124 0.034-0.175 0.034-0.183 0-0.337-0.097-0.406-0.259-0.023-0.053-0.034-0.109-0.034-0.17 0-0.12 0.044-0.217 0.133-0.293 0.082-0.069 0.183-0.105 0.303-0.105 0.137 0 0.242 0.038 0.32 0.116 6e-3 8e-3 0.012 0.012 0.016 0.012 9e-3 0 0.013-0.012 0.013-0.04z" clip-path="url(#clipPath166138)"/>
  <path transform="matrix(7.4018 0 0 -7.4018 70.612 -79.664)" d="m0 0c0.168 0 0.253 0.065 0.253 0.196 0 0.065-0.026 0.117-0.078 0.153-0.04 0.028-0.097 0.042-0.175 0.042h-0.076v-0.391zm0.316-0.871-0.392 0.606v-0.606h-0.41v1.578h0.638c0.17 0 0.3-0.046 0.389-0.141 0.088-0.095 0.132-0.21 0.132-0.347 0-0.078-0.017-0.15-0.048-0.219-0.036-0.078-0.084-0.133-0.145-0.168-0.04-0.023-0.089-0.042-0.15-0.057l0.495-0.646z" clip-path="url(#clipPath166150)"/>
  <path transform="matrix(7.4018 0 0 -7.4018 -2550 1686.2)" d="m355.1 239.28h0.41v-1.578h-0.41z" clip-path="url(#clipPath166124)"/>
  <path transform="matrix(7.4018 0 0 -7.4018 95.059 -73.217)" d="m0 0-0.118 0.909-0.381-0.909h-0.164l-0.362 0.909-0.134-0.909h-0.408l0.267 1.578h0.406l0.32-0.842 0.338 0.842h0.406l0.24-1.578z" clip-path="url(#clipPath166144)"/>
  <path transform="matrix(7.4018 0 0 -7.4018 100.12 -73.217)" d="m0 0v1.578h0.896v-0.347h-0.486v-0.263h0.461v-0.347h-0.461v-0.274h0.486v-0.347z" clip-path="url(#clipPath166100)"/>
 </g>
 <g transform="matrix(14.647 0 0 -14.647 -5045.9 3598.4)">
  <g clip-path="url(#clipPath108890)">
   <g transform="translate(345.87 241.46)">
    <path d="m0 0h-0.151v0.442h0.153c0.169 0 0.251-0.073 0.251-0.222 0-0.147-0.085-0.22-0.253-0.22m0.563 0.664c-0.106 0.099-0.253 0.15-0.442 0.15h-0.734v-1.775h0.462v0.59h0.288c0.4 0 0.599 0.198 0.599 0.595 0 0.185-0.056 0.331-0.173 0.44" fill="#fff"/>
   </g>
   <g transform="translate(348.64 241.16)">
    <path d="m0 0 0.194 0.566 0.189-0.566zm-0.055 1.115-0.681-1.775h0.487l0.121 0.308h0.636l0.116-0.308h0.492l-0.669 1.775z" fill="#fff"/>
   </g>
   <g transform="translate(351.63 240.5)">
    <path d="m0 0h-0.462l-0.847 1.086v-1.086h-0.461v1.774h0.461l0.847-1.086v1.086h0.462z" fill="#fff"/>
   </g>
   <g transform="translate(352.78 242.34)">
    <path d="m0 0h-0.703l0.029-0.073h-0.154v-1.774h1.008v0.391h-0.547v0.307h0.519v0.39h-0.519v0.295h0.547v0.391h-0.154z" fill="#fff"/>
   </g>
   <g transform="translate(353.1 241.88)">
    <path d="m0 0h0.374v-1.383h0.461v1.383h0.384v0.391h-1.219z" fill="#fff"/>
   </g>
   <g transform="translate(354.48 240.5)">
    <path d="m0 0h1.008v0.39h-0.547v0.308h0.519v0.39h-0.519v0.295h0.547v0.391h-1.008z" fill="#fff"/>
   </g>
   <g transform="translate(358.28 241.71)">
    <path d="m0 0h-0.637c-0.021 0-0.026 5e-3 -0.026 0.031v0.548c0 0.017-9e-3 0.024-0.028 0.024h-0.486c-0.013 0-0.023-9e-3 -0.023-0.024v-0.548c0-0.022-0.01-0.031-0.028-0.031h-0.637c-0.019 0-0.026-9e-3 -0.026-0.029v-0.483c0-0.022 9e-3 -0.034 0.028-0.034h0.632c0.021 0 0.031-0.01 0.031-0.035v-0.638c0-0.018 0.01-0.03 0.026-0.03h0.487c0.019 0 0.024 0.01 0.024 0.034v0.638c0 0.026 7e-3 0.031 0.033 0.031h0.63c0.016 0 0.026 0.012 0.026 0.028v0.487c0 0.022-7e-3 0.031-0.026 0.031" fill="#fff"/>
   </g>
   <g transform="translate(347.81 240.5)">
    <path d="m0 0h-1.016v1.774h0.462v-1.384h0.554z" fill="#fff"/>
   </g>
  </g>
 </g>
</svg>
