<svg width="800" height="499.81" version="1.1" viewBox="0 0 211.67 132.24" xmlns="http://www.w3.org/2000/svg">
 <defs>
  <radialGradient id="g" cx="0" cy="0" r="1" gradientTransform="matrix(-65.673 -78.334 78.416 -65.633 131.47 -47.66)" gradientUnits="userSpaceOnUse">
   <stop stop-color="#30523b" offset="0"/>
   <stop stop-color="#30523b" offset=".13681"/>
   <stop stop-color="#30523b" offset=".23606"/>
   <stop stop-color="#45835c" offset=".81395"/>
   <stop stop-color="#4fa26b" offset=".94427"/>
   <stop stop-color="#4fa26b" offset="1"/>
  </radialGradient>
  <linearGradient id="f" x1="76.821" x2="76.821" y1="74.059" y2="23.077" gradientTransform="matrix(1.9991 0 0 1.9991 -12.44 -84.144)" gradientUnits="userSpaceOnUse">
   <stop stop-color="#67aa79" offset="0"/>
   <stop stop-color="#508d63" offset=".25"/>
   <stop stop-color="#475" offset=".5"/>
   <stop stop-color="#396146" offset=".75"/>
   <stop stop-color="#34563f" offset="1"/>
  </linearGradient>
  <linearGradient id="e" x1="30.936" x2="44.95" y1="22.307" y2="22.307" gradientTransform="matrix(1.9991 0 0 1.9991 -12.44 -84.144)" gradientUnits="userSpaceOnUse">
   <stop stop-color="#528b62" offset="0"/>
   <stop stop-color="#407551" offset="1"/>
  </linearGradient>
  <radialGradient id="h" cx="0" cy="0" r="1" gradientTransform="matrix(-65.673 -78.334 78.416 -65.633 131.47 -47.66)" gradientUnits="userSpaceOnUse">
   <stop stop-color="#3b6e4d" offset="0"/>
   <stop stop-color="#3b6e4d" offset=".13681"/>
   <stop stop-color="#3b6e4d" offset=".23606"/>
   <stop stop-color="#4a8f62" offset=".81395"/>
   <stop stop-color="#50a26b" offset=".94427"/>
   <stop stop-color="#50a26b" offset="1"/>
  </radialGradient>
  <clipPath id="clipPath108890">
   <path d="m341.54 234.78h20.54v12.474h-20.54z"/>
  </clipPath>
  <clipPath id="clipPath166090">
   <path d="m344.51 236.65h14.452v9.029h-14.452z"/>
  </clipPath>
 </defs>
 <g transform="translate(-.00018379 66.092)">
  <path d="m106.22-66.092c-14.984 0-30.073 5.068-42.455 15.436-19.618 16.429-27.318 41.79-22.094 65.148 2.2258 10.002 6.8228 19.609 13.847 28.002 13.095 15.61 31.864 23.656 50.76 23.656 15.003 0 30.083-5.059 42.475-15.446 28.02-23.444 31.702-65.138 8.2294-93.129-13.095-15.61-31.856-23.666-50.762-23.666zm-48.729 35.756c-0.24533 0.25509-0.52557 0.56343-0.84505 0.92462 0.31948-0.36118 0.59974-0.66957 0.84505-0.92462zm-4.8007 6.2563c-0.42777 0.6841-0.85986 1.4167-1.2893 2.1972 0.42939-0.78064 0.8615-1.5132 1.2893-2.1972zm-7.5361 28.356c0.16547 1.1077 0.30371 1.7542 0.30371 1.7542s-0.13834-0.6471-0.30371-1.7542z" fill="url(#g)" stroke-width="1.9991"/>
  <path d="m140.53-36.525c0.27944 0 36.008 86.104-39.517 99.526 0 0 2.804 0.60708 7.4292 0.60708 8.6144 0 23.56-2.1103 38.659-14.145 24.379-19.397 23.792-44.565 23.482-47.619-1.5899-16.294-6.3884-39.941-22.394-39.941-2.3126 0-4.8467 0.50106-7.6604 1.5706" fill="url(#f)" stroke-width="1.9991"/>
  <path d="m49.404-25.73 2.2452-1.8019 1.2912-1.6188c1.6188-2.1489 2.9871-2.698 3.9603-2.698l0.52033 0.06737c11.428-7.9397 20.215-11.264 19.993-11.293-2.6113-3.8639-2.9099-10.137-3.0353-10.301-18.799 10.503-24.975 27.644-24.975 27.644" fill="url(#e)" stroke-width="1.9991"/>
  <path d="m52.94-29.148-1.2912 1.6188c1.9753-1.5514 3.9121-2.9581 5.7719-4.2493l-0.52033-0.06737c-0.97322 0-2.3416 0.54926-3.9603 2.698" fill="#539467" stroke-width="1.9991"/>
  <path d="m51.649-27.529c-10.484 14.039-6.1957 33.561-6.1957 33.561-1.4839-24.677 12.999-37.32 12.999-37.32l-1.031-0.49142c-1.8597 1.2912-3.7965 2.698-5.7719 4.2493" fill="url(#h)" stroke-width="1.9991"/>
  <path transform="matrix(14.646 0 0 -14.646 -5045.8 3532.2)" d="m358.96 242.9h-14.452v-3.182h14.452z" clip-path="url(#clipPath166090)" fill="#383436"/>
  <g transform="matrix(14.646 0 0 -14.646 -5045.8 3532.2)">
   <g clip-path="url(#clipPath108890)">
    <g transform="translate(345.87 241.46)">
     <path d="m0 0h-0.151v0.442h0.153c0.169 0 0.251-0.073 0.251-0.222 0-0.147-0.085-0.22-0.253-0.22m0.563 0.664c-0.106 0.099-0.253 0.15-0.442 0.15h-0.734v-1.775h0.462v0.59h0.288c0.4 0 0.599 0.198 0.599 0.595 0 0.185-0.056 0.331-0.173 0.44" fill="#fff"/>
    </g>
    <g transform="translate(348.64 241.16)">
     <path d="m0 0 0.194 0.566 0.189-0.566zm-0.055 1.115-0.681-1.775h0.487l0.121 0.308h0.636l0.116-0.308h0.492l-0.669 1.775z" fill="#fff"/>
    </g>
    <g transform="translate(351.63 240.5)">
     <path d="m0 0h-0.462l-0.847 1.086v-1.086h-0.461v1.774h0.461l0.847-1.086v1.086h0.462z" fill="#fff"/>
    </g>
    <g transform="translate(352.78 242.34)">
     <path d="m0 0h-0.703l0.029-0.073h-0.154v-1.774h1.008v0.391h-0.547v0.307h0.519v0.39h-0.519v0.295h0.547v0.391h-0.154z" fill="#fff"/>
    </g>
    <g transform="translate(353.1 241.88)">
     <path d="m0 0h0.374v-1.383h0.461v1.383h0.384v0.391h-1.219z" fill="#fff"/>
    </g>
    <g transform="translate(354.48 240.5)">
     <path d="m0 0h1.008v0.39h-0.547v0.308h0.519v0.39h-0.519v0.295h0.547v0.391h-1.008z" fill="#fff"/>
    </g>
    <g transform="translate(358.28 241.71)">
     <path d="m0 0h-0.637c-0.021 0-0.026 5e-3 -0.026 0.031v0.548c0 0.017-9e-3 0.024-0.028 0.024h-0.486c-0.013 0-0.023-9e-3 -0.023-0.024v-0.548c0-0.022-0.01-0.031-0.028-0.031h-0.637c-0.019 0-0.026-9e-3 -0.026-0.029v-0.483c0-0.022 9e-3 -0.034 0.028-0.034h0.632c0.021 0 0.031-0.01 0.031-0.035v-0.638c0-0.018 0.01-0.03 0.026-0.03h0.487c0.019 0 0.024 0.01 0.024 0.034v0.638c0 0.026 7e-3 0.031 0.033 0.031h0.63c0.016 0 0.026 0.012 0.026 0.028v0.487c0 0.022-7e-3 0.031-0.026 0.031" fill="#fff"/>
    </g>
    <g transform="translate(347.81 240.5)">
     <path d="m0 0h-1.016v1.774h0.462v-1.384h0.554z" fill="#fff"/>
    </g>
   </g>
  </g>
 </g>
 <g transform="translate(-.85231 66.092)" fill="#383436" stroke-width=".68951">
  <path d="m84.459 47.897h5.7367l-7.8053-20.685h-5.847l-7.9432 20.685h5.6816l1.4066-3.5855h7.4191zm-5.0196-14.287 2.2064 6.5917h-4.468z" style="white-space:pre"/>
  <path d="m98.501 47.897 8.8257-20.685h-5.8471l-5.0196 12.577-4.9645-12.577h-5.8471l8.6878 20.685z" style="white-space:pre"/>
  <path d="m108.84 47.897h11.749v-4.5508h-6.3711v-3.5855h6.0401v-4.5508h-6.0401v-3.4476h6.3711v-4.5508h-11.749z" style="white-space:pre"/>
  <path d="m138.37 47.897h5.3782v-20.685h-5.3782v12.659l-9.8738-12.659h-5.3782v20.685h5.3782v-12.659z" style="white-space:pre"/>
  <path d="m155.55 31.762h4.468v-4.5508h-14.204v4.5508h4.3577v16.135h5.3782z" style="white-space:pre"/>
  <path d="m180.08 39.154v-11.942h-5.3782v11.198q0 2.5926-0.5516 3.613-0.93774 1.6824-3.1442 1.6824-2.0961 0-3.0063-1.5997-0.33096-0.55161-0.46886-1.2687-0.11033-0.44129-0.11033-2.4271v-11.198h-5.3782v11.942q0 1.1584 0.0827 2.0685 0.44129 4.8542 4.7163 6.509 1.903 0.71709 4.0819 0.71709 4.5508 0 7.1433-2.9235 1.2135-1.379 1.6548-2.9511 0.35854-1.2411 0.35854-3.42z" style="white-space:pre"/>
  <path d="m192.42 47.897h6.6745l-6.4814-8.4672q1.1584-0.2758 1.9582-0.74467 1.2135-0.71709 1.903-2.2064 0.63435-1.4066 0.63435-2.8684 0-2.7029-1.7376-4.5508t-5.1024-1.8479h-8.3569v20.685h5.3782v-7.9432zm-0.82741-13.983q0 2.565-3.3096 2.565h-0.9929v-5.13h0.9929q1.4893 0 2.2892 0.55161 1.0205 0.68951 1.0205 2.0134z" style="white-space:pre"/>
  <path d="m200.44 47.897h11.749v-4.5508h-6.3711v-3.5855h6.0401v-4.5508h-6.0401v-3.4476h6.3711v-4.5508h-11.749z" style="white-space:pre"/>
 </g>
</svg>
