<svg version="1.1" viewBox="0 0 800 234.19" xml:space="preserve" xmlns="http://www.w3.org/2000/svg"><defs><radialGradient id="a" cx="0" cy="0" r="1" gradientTransform="matrix(4.5834 -.15985 -.1767 -5.0561 645.59 282.57)" gradientUnits="userSpaceOnUse"><stop stop-color="#fff" offset="0"/><stop stop-color="#f6ff00" offset=".0032895"/><stop stop-color="#fb9e18" offset=".67434"/><stop stop-color="#fb9e18" offset="1"/></radialGradient><linearGradient id="q" x2="1" gradientTransform="matrix(-6.4818 -.032343 -.032343 6.4818 673.17 282.87)" gradientUnits="userSpaceOnUse"><stop stop-color="#fff" offset="0"/><stop stop-color="#102e09" offset=".0032895"/><stop stop-color="#38a80b" offset=".5"/><stop stop-color="#a4ff9d" offset="1"/></linearGradient><linearGradient id="p" x2="1" gradientTransform="matrix(2.9073 0 0 -2.9073 666.58 282.86)" gradientUnits="userSpaceOnUse"><stop stop-color="#fff" offset="0"/><stop stop-color="#102e09" offset=".0032895"/><stop stop-color="#38a80b" offset=".5"/><stop stop-color="#a4ff9d" offset="1"/></linearGradient><linearGradient id="o" x2="1" gradientTransform="matrix(12.092 10.146 10.146 -12.092 652.23 274.41)" gradientUnits="userSpaceOnUse"><stop stop-color="#170f04" offset="0"/><stop stop-color="#170f04" offset=".023026"/><stop stop-color="#170f04" offset=".30592"/><stop stop-color="#7a4f12" offset=".5"/><stop stop-color="#e7ca8e" offset="1"/></linearGradient><linearGradient id="n" x2="1" gradientTransform="matrix(4.0237 11.055 11.055 -4.0237 647.12 277.05)" gradientUnits="userSpaceOnUse"><stop stop-color="#102e09" offset="0"/><stop stop-color="#102e09" offset=".023026"/><stop stop-color="#0d3812" offset=".21053"/><stop stop-color="#38a80b" offset=".66776"/><stop stop-color="#a4ff9d" offset="1"/></linearGradient><linearGradient id="m" x2="1" gradientTransform="matrix(3.8124 10.474 10.474 -3.8124 650.8 274.75)" gradientUnits="userSpaceOnUse"><stop stop-color="#102e09" offset="0"/><stop stop-color="#102e09" offset=".023026"/><stop stop-color="#0d3812" offset=".21053"/><stop stop-color="#38a80b" offset=".66776"/><stop stop-color="#a4ff9d" offset="1"/></linearGradient><linearGradient id="l" x2="1" gradientTransform="matrix(-24.651 .30716 .30716 24.651 666.43 282.45)" gradientUnits="userSpaceOnUse"><stop stop-color="#a87a00" offset="0"/><stop stop-color="#d69b0e" offset=".13158"/><stop stop-color="#fbad18" offset=".33"/><stop stop-color="#f6ff00" offset=".73"/><stop stop-color="#fff" offset="1"/></linearGradient><clipPath id="z"><path d="m638.86 276.25h31.07v9.921h-31.07z"/></clipPath><linearGradient id="k" x2="1" gradientTransform="matrix(-24.649 .30714 .30714 24.649 666.41 281.43)" gradientUnits="userSpaceOnUse"><stop stop-color="#a87a00" offset="0"/><stop stop-color="#d69b0e" offset=".13158"/><stop stop-color="#fbad18" offset=".33"/><stop stop-color="#f6ff00" offset=".73"/><stop stop-color="#fff" offset="1"/></linearGradient><linearGradient id="j" x2="1" gradientTransform="matrix(-24.651 .30716 .30716 24.651 666.4 280.65)" gradientUnits="userSpaceOnUse"><stop stop-color="#a87a00" offset="0"/><stop stop-color="#d69b0e" offset=".13158"/><stop stop-color="#fbad18" offset=".33"/><stop stop-color="#f6ff00" offset=".73"/><stop stop-color="#fff" offset="1"/></linearGradient><clipPath id="y"><path d="m638.86 276.25h31.07v9.921h-31.07z"/></clipPath><linearGradient id="i" x2="1" gradientTransform="matrix(-24.65 .30716 .30716 24.65 666.41 281.04)" gradientUnits="userSpaceOnUse"><stop stop-color="#a87a00" offset="0"/><stop stop-color="#d69b0e" offset=".13158"/><stop stop-color="#fbad18" offset=".33"/><stop stop-color="#f6ff00" offset=".73"/><stop stop-color="#fff" offset="1"/></linearGradient><clipPath id="x"><path d="m638.86 276.25h31.07v9.921h-31.07z"/></clipPath><linearGradient id="h" x2="1" gradientTransform="matrix(-24.649 .30714 .30714 24.649 666.41 281.06)" gradientUnits="userSpaceOnUse"><stop stop-color="#a87a00" offset="0"/><stop stop-color="#d69b0e" offset=".13158"/><stop stop-color="#fbad18" offset=".33"/><stop stop-color="#f6ff00" offset=".73"/><stop stop-color="#fff" offset="1"/></linearGradient><clipPath id="w"><path d="m638.86 276.25h31.07v9.921h-31.07z"/></clipPath><linearGradient id="g" x2="1" gradientTransform="matrix(-24.651 .30716 .30716 24.651 666.4 280.72)" gradientUnits="userSpaceOnUse"><stop stop-color="#a87a00" offset="0"/><stop stop-color="#d69b0e" offset=".13158"/><stop stop-color="#fbad18" offset=".33"/><stop stop-color="#f6ff00" offset=".73"/><stop stop-color="#fff" offset="1"/></linearGradient><clipPath id="v"><path d="m638.86 276.25h31.07v9.921h-31.07z"/></clipPath><linearGradient id="f" x2="1" gradientTransform="matrix(-24.653 .30719 .30719 24.653 666.42 281.56)" gradientUnits="userSpaceOnUse"><stop stop-color="#a87a00" offset="0"/><stop stop-color="#d69b0e" offset=".13158"/><stop stop-color="#fbad18" offset=".33"/><stop stop-color="#f6ff00" offset=".73"/><stop stop-color="#fff" offset="1"/></linearGradient><linearGradient id="e" x2="1" gradientTransform="matrix(-24.65 .30716 .30716 24.65 666.4 280.78)" gradientUnits="userSpaceOnUse"><stop stop-color="#a87a00" offset="0"/><stop stop-color="#d69b0e" offset=".13158"/><stop stop-color="#fbad18" offset=".33"/><stop stop-color="#f6ff00" offset=".73"/><stop stop-color="#fff" offset="1"/></linearGradient><clipPath id="u"><path d="m638.86 276.25h31.07v9.921h-31.07z"/></clipPath><linearGradient id="d" x2="1" gradientTransform="matrix(-24.65 .30716 .30716 24.65 666.4 280.83)" gradientUnits="userSpaceOnUse"><stop stop-color="#a87a00" offset="0"/><stop stop-color="#d69b0e" offset=".13158"/><stop stop-color="#fbad18" offset=".33"/><stop stop-color="#f6ff00" offset=".73"/><stop stop-color="#fff" offset="1"/></linearGradient><clipPath id="t"><path d="m638.86 276.25h31.07v9.921h-31.07z"/></clipPath><linearGradient id="c" x2="1" gradientTransform="matrix(-24.651 .30716 .30716 24.651 666.42 281.64)" gradientUnits="userSpaceOnUse"><stop stop-color="#a87a00" offset="0"/><stop stop-color="#d69b0e" offset=".13158"/><stop stop-color="#fbad18" offset=".33"/><stop stop-color="#f6ff00" offset=".73"/><stop stop-color="#fff" offset="1"/></linearGradient><clipPath id="s"><path d="m638.86 276.25h31.07v9.921h-31.07z"/></clipPath><linearGradient id="b" x2="1" gradientTransform="matrix(-24.651 .30717 .30717 24.651 666.41 280.86)" gradientUnits="userSpaceOnUse"><stop stop-color="#a87a00" offset="0"/><stop stop-color="#d69b0e" offset=".13158"/><stop stop-color="#fbad18" offset=".33"/><stop stop-color="#f6ff00" offset=".73"/><stop stop-color="#fff" offset="1"/></linearGradient><clipPath id="r"><path d="m638.86 276.25h31.07v9.921h-31.07z"/></clipPath></defs><g transform="matrix(1.3333 0 0 -1.3333 .00051309 234.19)"><g transform="matrix(19.588 0 0 19.588 -12514 -5426)"><path d="m639.46 280.33s1.18 0.032 2.846-0.17c1.643-0.158 2.592-0.291 4.643 0.485 2.262 1.1 3.826 2.158 4.715 2.627-2.092 1.35-3.894 1.859-5.42 1.859-4.688 1e-3 -6.784-4.801-6.784-4.801" fill="url(#a)"/><path d="m667.46 283.95c1.843 0.109 1.771-0.933 1.795-1.054s-0.085-0.872-0.922-1.079c-0.836-0.207-1.77 0.218-1.891 0.267-0.121 0.048-1.746 0.557-0.631 0.157 1.116-0.4 1.298-0.569 2.256-0.558 0.57 0.061 1.018 0.304 1.224 0.667 0.206 0.364 0.376 0.897-0.145 1.37-0.258 0.234-0.672 0.292-1.025 0.292-0.362 0-0.661-0.062-0.661-0.062" fill="url(#q)"/><path d="m667.55 283.96c2.138 0.274 2.373-1.609 0.934-2.154-0.809-0.222-1.78 0.154-1.896 0.202-0.06 0.026 0.114-0.065 0.424-0.155 0.283-0.083 0.68-0.166 1.115-0.161 0.543 0.062 0.97 0.304 1.167 0.667 0.196 0.364 0.358 0.898-0.139 1.37-0.245 0.234-0.639 0.293-0.976 0.293-0.344 0-0.629-0.062-0.629-0.062" fill="url(#p)"/><path d="m658.44 281.9c-1.067-0.711-2.603-1.972-3.75-2.7-2.393-1.632-4.817-1.988-4.817-1.988 0.55 0.049 1.519 0.049 3.443 0.502 1.891 0.436 2.457 0.985 4.218 2.02 1.666 1.034 2.199 1.584 4.025 2.247 1.258 0.396 2.871 0.197 3.944-4e-3 0.719-0.134 1.197-0.268 1.165-0.222-0.518 0.177-0.857 0.5-3.46 0.888-0.502 0.07-0.966 0.1-1.39 0.1-1.784 0-2.882-0.529-3.378-0.843" fill="url(#o)"/><path d="m655.55 284.42c-1.002-0.147-2.35-0.581-2.918-0.853-0.926-0.429-2.102-1.093-3.849-2.167-0.442-0.267-2.425-1.383-3.825-1.461 0 0-1.34-0.212-3.219 0.072-1.875 0.19-2.887 0.118-2.887 0.118s3.421-1.447 6.061-1.568c2.603 8e-3 3.807 0.856 4.85 1.487 2.338 1.608 4.051 2.562 4.873 3.014 1.651 0.825 2.879 1.293 4.534 1.358 0.144 7e-3 -0.694 0.121-1.801 0.121-0.567 0-1.206-0.03-1.819-0.121" fill="url(#n)"/><path d="m655.74 283.36c-2.168-1-4.866-2.813-6.331-3.769-1.096-0.685-1.816-0.903-2.932-1.129-1.794-0.194-2.528-0.345-7.548 1.455 0 0 3.719-2.771 7.164-2.897 3.443-0.128 5.121 0.73 5.896 0.989 0.453 0.21 2.112 0.828 4.413 2.7 1.924 1.535 2.641 1.906 3.868 2.106 1.308 0.25 2.542 0.111 3.509-0.062 0.901-0.161 1.84-0.449 3.08-0.862-1.1 0.451-4.494 2.365-6.758 2.427-0.079 2e-3 -0.158 4e-3 -0.237 4e-3 -2.114 0-3.906-0.868-4.124-0.962m11.389-1.559c-0.092 0.031-0.182 0.06-0.27 0.09 0.118-0.048 0.209-0.08 0.27-0.09" fill="url(#m)"/><path d="m642.38 285.34c-0.215-0.347-0.322-0.804-0.322-1.371v-4.409h0.687v2.994h0.572c0.673-0.012 1.142 0.235 1.405 0.738 0.147 0.278 0.21 0.57 0.191 0.877l-0.023 0.39c-0.058 0.417-0.227 0.75-0.505 0.998-0.278 0.25-0.597 0.374-0.958 0.374-0.459 0-0.808-0.197-1.047-0.591m0.454-2.074c-0.059 0.035-0.089 0.113-0.089 0.235v0.798c0 0.237 0.072 0.443 0.213 0.617 0.141 0.173 0.312 0.26 0.513 0.26 0.234 0 0.43-0.09 0.588-0.269 0.159-0.179 0.239-0.408 0.239-0.686l-0.022-0.2c-0.039-0.37-0.183-0.61-0.433-0.72-0.117-0.052-0.377-0.078-0.783-0.078-0.112 0-0.188 0.014-0.226 0.043" fill="url(#l)"/><g clip-path="url(#z)"><g transform="translate(642.75 283.5)"><path d="m0 0c0-0.122 0.029-0.2 0.088-0.234 0.039-0.029 0.114-0.044 0.227-0.044 0.405 0 0.666 0.026 0.783 0.078 0.249 0.11 0.393 0.35 0.432 0.721l0.022 0.199c0 0.278-0.08 0.507-0.238 0.686-0.159 0.179-0.355 0.269-0.589 0.269-0.201 0-0.371-0.087-0.513-0.26-0.141-0.174-0.212-0.379-0.212-0.616zm0-3.941h-0.688v4.41c0 0.567 0.107 1.024 0.322 1.371 0.239 0.394 0.588 0.59 1.047 0.59 0.361 0 0.68-0.124 0.959-0.373 0.278-0.249 0.446-0.581 0.505-0.998l0.022-0.391c0.019-0.306-0.044-0.599-0.191-0.876-0.263-0.504-0.732-0.75-1.405-0.738h-0.571z" fill="none" stroke="#fff" stroke-width=".097"/></g></g><path d="m645.67 283.82v-4.259h0.394v4.259h-0.022z" fill="url(#k)"/><g transform="translate(646.07 279.56)"><path d="m0 0h-0.394v4.26h0.394z" fill="none" stroke="#fff" stroke-width=".097"/></g><path d="m647.09 281.86c-0.218-0.267-0.327-0.591-0.327-0.973 0-0.383 0.108-0.71 0.324-0.982 0.216-0.273 0.484-0.409 0.803-0.409 0.169 0 0.324 0.042 0.464 0.125 0.107 0.063 0.234 0.173 0.384 0.331l0.051-0.396h0.399l-0.225 1.745c-0.037 0.28-0.165 0.513-0.384 0.698-0.203 0.173-0.429 0.26-0.679 0.26-0.322 0-0.592-0.133-0.81-0.399m0.265-1.651c-0.149 0.18-0.223 0.403-0.223 0.672 0 0.261 0.074 0.482 0.223 0.666 0.147 0.183 0.331 0.275 0.55 0.275 0.224 0 0.406-0.094 0.549-0.278 0.144-0.186 0.215-0.411 0.215-0.675 0-0.257-0.073-0.475-0.22-0.656-0.146-0.182-0.326-0.273-0.538-0.273-0.223 0-0.409 0.09-0.556 0.269" fill="url(#j)"/><g clip-path="url(#y)"><g transform="translate(647.13 280.88)"><path d="m0 0c0-0.268 0.074-0.492 0.222-0.671 0.148-0.18 0.333-0.27 0.556-0.27 0.213 0 0.393 0.091 0.539 0.273 0.146 0.181 0.22 0.4 0.22 0.656 0 0.264-0.072 0.489-0.215 0.675-0.143 0.185-0.326 0.278-0.549 0.278-0.219 0-0.403-0.092-0.551-0.275-0.148-0.184-0.222-0.406-0.222-0.666zm2.055-1.325h-0.398l-0.051 0.396c-0.15-0.158-0.278-0.268-0.384-0.331-0.14-0.083-0.295-0.124-0.464-0.124-0.319 0-0.587 0.136-0.803 0.408s-0.324 0.599-0.324 0.982c0 0.382 0.109 0.707 0.327 0.973 0.217 0.266 0.488 0.399 0.81 0.399 0.25 0 0.476-0.086 0.679-0.26 0.219-0.185 0.347-0.418 0.384-0.698z" fill="none" stroke="#fff" stroke-width=".097"/></g></g><path d="m649.83 282.97v-0.609c0-0.075-9e-3 -0.121-0.025-0.136-0.017-0.016-0.058-0.023-0.125-0.023h-0.085v-0.427h0.14c0.064 0 0.095-0.061 0.095-0.183v-0.875c0-0.332 0.089-0.607 0.267-0.826s0.407-0.346 0.686-0.381v0.455c-0.373 0.086-0.558 0.394-0.558 0.923v0.698c0 0.075 7e-3 0.125 0.021 0.151 0.015 0.025 0.053 0.038 0.113 0.038h0.424v0.427h-0.48c-0.052 0-0.078 0.048-0.078 0.147v0.621z" fill="url(#i)"/><g clip-path="url(#x)"><g transform="translate(649.6 281.77)"><path d="m0 0v0.426h0.085c0.066 0 0.108 8e-3 0.125 0.024 0.016 0.015 0.024 0.061 0.024 0.136v0.609h0.395v-0.621c0-0.099 0.026-0.148 0.079-0.148h0.479v-0.426h-0.424c-0.06 0-0.097-0.013-0.112-0.038-0.015-0.026-0.022-0.076-0.022-0.151v-0.698c0-0.529 0.186-0.837 0.558-0.923v-0.456c-0.279 0.036-0.508 0.163-0.686 0.382s-0.267 0.494-0.267 0.825v0.876c0 0.122-0.031 0.183-0.094 0.183z" fill="none" stroke="#fff" stroke-width=".097"/></g></g><path d="m651.29 282.97v-0.609c0-0.075-9e-3 -0.121-0.026-0.136-0.016-0.016-0.057-0.023-0.124-0.023h-0.084v-0.427h0.139c0.063 0 0.095-0.061 0.095-0.183v-0.875c0-0.332 0.089-0.607 0.267-0.826 0.177-0.219 0.407-0.346 0.686-0.381v0.455c-0.373 0.086-0.559 0.394-0.559 0.923v0.698c0 0.075 7e-3 0.125 0.022 0.151 0.016 0.025 0.053 0.038 0.113 0.038h0.424v0.427h-0.48c-0.053 0-0.079 0.048-0.079 0.147v0.621z" fill="url(#h)"/><g clip-path="url(#w)"><g transform="translate(651.05 281.77)"><path d="m0 0v0.426h0.085c0.066 0 0.108 8e-3 0.125 0.024 0.016 0.015 0.024 0.061 0.024 0.136v0.609h0.395v-0.621c0-0.099 0.026-0.148 0.079-0.148h0.479v-0.426h-0.424c-0.06 0-0.097-0.013-0.112-0.038-0.015-0.026-0.022-0.076-0.022-0.151v-0.698c0-0.529 0.186-0.837 0.558-0.923v-0.456c-0.279 0.036-0.508 0.163-0.686 0.382s-0.267 0.494-0.267 0.825v0.876c0 0.122-0.031 0.183-0.094 0.183z" fill="none" stroke="#fff" stroke-width=".097"/></g></g><path d="m652.98 281.85c-0.213-0.272-0.319-0.602-0.319-0.988 0-0.382 0.11-0.705 0.332-0.97 0.22-0.265 0.492-0.396 0.815-0.396 0.306 0 0.567 0.128 0.783 0.384l-0.229 0.32c-0.203-0.186-0.389-0.278-0.559-0.278-0.189 0-0.349 0.072-0.479 0.217-0.153 0.168-0.23 0.301-0.23 0.399 0 0.102 0.082 0.152 0.245 0.152h1.601l6e-3 0.137c0.012 0.384-0.097 0.718-0.327 1.004-0.231 0.285-0.508 0.427-0.831 0.427-0.325 0-0.595-0.136-0.808-0.408m0.155-0.632c0 0.075 0.038 0.177 0.114 0.304 0.061 0.1 0.144 0.181 0.252 0.245s0.214 0.095 0.317 0.095c0.223 0 0.408-0.111 0.554-0.331 0.086-0.131 0.129-0.231 0.129-0.302 0-0.075-0.051-0.112-0.154-0.112h-1.153c-0.039 0.02-0.059 0.053-0.059 0.101" fill="url(#g)"/><g clip-path="url(#v)"><g transform="translate(654.34 281.12)"><path d="m0 0c0.103 0 0.155 0.037 0.155 0.112 0 0.071-0.044 0.172-0.13 0.302-0.146 0.221-0.331 0.331-0.554 0.331-0.103 0-0.209-0.031-0.317-0.095s-0.192-0.145-0.252-0.244c-0.076-0.128-0.114-0.229-0.114-0.305 0-0.047 0.02-0.081 0.06-0.101h0.119zm0.599-0.289-5e-3 -0.137h-1.602c-0.163 0-0.244-0.051-0.244-0.153 0-0.097 0.076-0.231 0.229-0.399 0.13-0.145 0.29-0.217 0.479-0.217 0.17 0 0.356 0.093 0.559 0.278l0.229-0.319c-0.216-0.257-0.477-0.385-0.783-0.385-0.322 0-0.594 0.132-0.815 0.396-0.222 0.265-0.332 0.588-0.332 0.971 0 0.386 0.106 0.715 0.319 0.988 0.213 0.272 0.482 0.408 0.808 0.408 0.323 0 0.6-0.143 0.831-0.428s0.34-0.619 0.327-1.003z" fill="none" stroke="#fff" stroke-width=".097"/></g></g><path d="m655.6 283.82v-4.259h0.394v4.259h-0.021z" fill="url(#f)"/><g transform="translate(656 279.56)"><path d="m0 0h-0.394v4.26h0.394z" fill="none" stroke="#fff" stroke-width=".097"/></g><path d="m657.02 281.86c-0.217-0.267-0.326-0.591-0.326-0.973 0-0.383 0.108-0.71 0.324-0.982 0.216-0.273 0.483-0.409 0.802-0.409 0.17 0 0.324 0.042 0.465 0.125 0.106 0.063 0.234 0.173 0.383 0.331l0.052-0.396h0.398l-0.225 1.745c-0.036 0.28-0.164 0.513-0.384 0.698-0.202 0.173-0.428 0.26-0.678 0.26-0.323 0-0.593-0.133-0.811-0.399m0.265-1.651c-0.149 0.18-0.222 0.403-0.222 0.672 0 0.261 0.073 0.482 0.222 0.666 0.148 0.183 0.331 0.275 0.551 0.275 0.223 0 0.406-0.094 0.549-0.278 0.143-0.186 0.214-0.411 0.214-0.675 0-0.257-0.073-0.475-0.22-0.656-0.145-0.182-0.325-0.273-0.538-0.273-0.223 0-0.408 0.09-0.556 0.269" fill="url(#e)"/><g clip-path="url(#u)"><g transform="translate(657.07 280.88)"><path d="m0 0c0-0.268 0.074-0.492 0.222-0.671 0.148-0.18 0.333-0.27 0.556-0.27 0.213 0 0.393 0.091 0.539 0.273 0.146 0.181 0.219 0.4 0.219 0.656 0 0.264-0.071 0.489-0.214 0.675-0.143 0.185-0.326 0.278-0.549 0.278-0.219 0-0.403-0.092-0.551-0.275-0.148-0.184-0.222-0.406-0.222-0.666zm2.055-1.325h-0.398l-0.051 0.396c-0.15-0.158-0.278-0.268-0.384-0.331-0.14-0.083-0.295-0.124-0.464-0.124-0.319 0-0.587 0.136-0.803 0.408s-0.324 0.599-0.324 0.982c0 0.382 0.109 0.707 0.327 0.973 0.217 0.266 0.488 0.399 0.81 0.399 0.25 0 0.476-0.086 0.679-0.26 0.219-0.185 0.347-0.418 0.384-0.698z" fill="none" stroke="#fff" stroke-width=".097"/></g></g><path d="m660.06 282.02c-0.21-0.177-0.314-0.412-0.314-0.703v-1.757h0.393v1.597c0 0.186 0.058 0.34 0.173 0.461 0.114 0.122 0.252 0.184 0.411 0.184 0.17 0 0.306-0.067 0.41-0.201 0.102-0.134 0.154-0.302 0.154-0.503v-1.538h0.399v1.751c0 0.284-0.103 0.517-0.309 0.698-0.186 0.165-0.402 0.248-0.648 0.248-0.257 0-0.48-0.078-0.669-0.237" fill="url(#d)"/><g clip-path="url(#t)"><g transform="translate(660.14 279.56)"><path d="m0 0h-0.394v1.757c0 0.292 0.105 0.527 0.314 0.704 0.19 0.158 0.413 0.237 0.669 0.237 0.246 0 0.462-0.083 0.648-0.249 0.206-0.181 0.31-0.414 0.31-0.698v-1.751h-0.4v1.538c0 0.201-0.051 0.369-0.154 0.503s-0.24 0.201-0.409 0.201c-0.16 0-0.297-0.061-0.412-0.183s-0.172-0.276-0.172-0.462z" fill="none" stroke="#fff" stroke-width=".097"/></g></g><path d="m664.28 283.82v-1.81c0-0.055-0.014-0.083-0.041-0.083l-0.059 0.071c-0.063 0.075-0.167 0.136-0.31 0.184-0.126 0.043-0.241 0.064-0.344 0.064-0.326 0-0.596-0.132-0.81-0.398-0.215-0.266-0.323-0.593-0.323-0.983 0-0.374 0.108-0.691 0.323-0.953 0.214-0.262 0.479-0.393 0.795-0.393 0.326 0 0.601 0.133 0.825 0.399 0.225 0.266 0.338 0.592 0.338 0.978v2.924h-0.02zm-1.317-3.591c-0.147 0.181-0.221 0.398-0.221 0.651 0 0.26 0.073 0.482 0.218 0.665 0.146 0.184 0.328 0.276 0.548 0.276 0.221 0 0.404-0.089 0.551-0.267 0.147-0.177 0.221-0.398 0.221-0.662 0-0.265-0.075-0.486-0.223-0.666-0.149-0.179-0.333-0.269-0.553-0.269-0.214 0-0.394 0.091-0.541 0.272" fill="url(#c)"/><g clip-path="url(#s)"><g transform="translate(662.74 280.88)"><path d="m0 0c0-0.253 0.073-0.469 0.22-0.651 0.147-0.181 0.327-0.272 0.541-0.272 0.22 0 0.404 0.09 0.553 0.269 0.148 0.18 0.223 0.401 0.223 0.666 0 0.264-0.074 0.485-0.221 0.662-0.147 0.178-0.33 0.267-0.55 0.267s-0.403-0.092-0.548-0.275c-0.145-0.184-0.218-0.406-0.218-0.666zm1.537 2.94h0.394v-2.924c0-0.386-0.113-0.712-0.337-0.978-0.225-0.266-0.5-0.399-0.826-0.399-0.316 0-0.581 0.131-0.795 0.393-0.215 0.262-0.322 0.579-0.322 0.953 0 0.39 0.107 0.717 0.322 0.983 0.214 0.266 0.484 0.399 0.81 0.399 0.103 0 0.218-0.022 0.344-0.066 0.143-0.047 0.247-0.108 0.31-0.183l0.06-0.071c0.026 0 0.04 0.028 0.04 0.083z" fill="none" stroke="#fff" stroke-width=".097"/></g></g><path d="m665.58 282.04c-0.122-0.139-0.182-0.309-0.182-0.506 0-0.134 0.034-0.255 0.102-0.366s0.155-0.19 0.262-0.237c0.223-0.099 0.359-0.165 0.409-0.201 0.153-0.107 0.23-0.239 0.23-0.396 0-0.123-0.041-0.228-0.123-0.317-0.082-0.088-0.173-0.133-0.277-0.133-0.103 0-0.199 0.054-0.289 0.16-0.08 0.094-0.137 0.205-0.169 0.331l-0.32-0.225c0.22-0.442 0.474-0.662 0.764-0.662 0.222 0 0.408 0.084 0.558 0.254s0.225 0.386 0.225 0.651c0 0.339-0.171 0.588-0.514 0.745-0.24 0.111-0.371 0.176-0.395 0.196-0.072 0.063-0.109 0.144-0.109 0.242 0 0.082 0.026 0.152 0.077 0.207s0.113 0.083 0.183 0.083c0.119 0 0.199-0.069 0.239-0.208l0.279 0.208c-0.136 0.256-0.309 0.385-0.518 0.385-0.167 0-0.311-0.071-0.432-0.211" fill="url(#b)"/><g clip-path="url(#r)"><g transform="translate(665.22 280.15)"><path d="m0 0 0.319 0.225c0.034-0.127 0.09-0.237 0.17-0.332 0.09-0.106 0.186-0.159 0.289-0.159s0.196 0.044 0.277 0.133c0.082 0.089 0.122 0.194 0.122 0.316 0 0.158-0.076 0.29-0.229 0.397-0.05 0.035-0.186 0.102-0.409 0.201-0.107 0.047-0.194 0.126-0.262 0.237-0.068 0.11-0.102 0.232-0.102 0.366 0 0.197 0.06 0.366 0.182 0.506 0.121 0.14 0.265 0.21 0.431 0.21 0.21 0 0.383-0.128 0.519-0.384l-0.279-0.207c-0.04 0.138-0.12 0.207-0.24 0.207-0.07 0-0.13-0.028-0.182-0.083-0.051-0.055-0.077-0.124-0.077-0.207 0-0.099 0.036-0.18 0.11-0.243 0.023-0.02 0.154-0.085 0.394-0.195 0.342-0.158 0.514-0.406 0.514-0.745 0-0.265-0.075-0.482-0.225-0.651-0.15-0.17-0.336-0.255-0.559-0.255-0.289 0-0.543 0.221-0.763 0.663z" fill="none" stroke="#fff" stroke-width=".097"/></g></g><g transform="translate(666.72 283.43)"><path d="m0 0v-0.283h0.3v-0.862h0.293v0.862h0.3v0.283z" fill="#a17800"/></g><g transform="translate(666.72 283.43)"><path d="m0 0h0.894v-0.283h-0.3v-0.862h-0.294v0.862h-0.3z" fill="none" stroke="#fff" stroke-width=".048"/></g><g transform="translate(667.73 283.43)"><path d="m0 0h0.307l0.214-0.824 0.212 0.824h0.298l-0.353-1.145h-0.319z" fill="#a17800"/></g><g transform="translate(667.73 283.43)"><path d="m0 0h0.307l0.214-0.824 0.212 0.824h0.298l-0.353-1.145h-0.319z" fill="none" stroke="#fff" stroke-width=".048"/></g></g></g></svg>
