<svg class="sc-jrAGrp hJtNVl" width="800" height="91.879" variant="light" version="1.1" viewBox="0 0 800 91.879" xmlns="http://www.w3.org/2000/svg">
 <g transform="matrix(4.8809 0 0 4.8809 0 -.82)" fill="#ffc421">
  <path d="m12.502 7.908v-0.925c0-0.085-0.108-0.111-0.108-0.111a5.748 5.748 0 0 0-1.333-0.194 5.365 5.365 0 0 0-1.24 0.124s-0.103 0.032-0.103 0.123v0.915c0 0.17 0.12 0.123 0.12 0.123 0.387-0.055 0.767-0.08 1.22-0.071 0.438 0.01 0.9 0.052 1.31 0.127 0 0 0.134 0.033 0.134-0.111m-4.507-0.546c0-1.164-1.387-1.166-1.387-1.166s-1.387 2e-3 -1.387 1.166c0 1.165 1.387 1.167 1.387 1.167s1.387-2e-3 1.387-1.167m0.902 5.807c-1.77-1e-3 -3.258-1.042-3.733-1.414 0 0-0.159-0.15-0.159-0.292v-0.474c0-0.238 0.18-0.11 0.18-0.11 0.482 0.303 1.888 1.075 3.712 1.075s3.23-0.772 3.712-1.075c0 0 0.18-0.128 0.18 0.11v0.474c0 0.142-0.159 0.292-0.159 0.292-0.476 0.372-1.963 1.413-3.733 1.414"/>
  <path d="m15.042 13.782a2.304 2.304 0 0 1-2.006 2.029s-1.683 0.261-4.16 0.261c-2.478 0-4.161-0.261-4.161-0.261a2.306 2.306 0 0 1-2.007-2.03s-0.256-1.896-0.256-4.151c0-2.256 0.256-4.153 0.256-4.153a2.305 2.305 0 0 1 2.007-2.029s1.683-0.262 4.16-0.262c2.478 0 4.16 0.262 4.16 0.262a2.305 2.305 0 0 1 2.007 2.03s0.256 1.896 0.256 4.152c0 2.255-0.256 4.151-0.256 4.152m2.354-9.89c-0.178-1.468-1.306-2.626-2.772-2.803 0 0-2.326-0.362-5.749-0.362s-5.749 0.362-5.749 0.362c-1.465 0.177-2.594 1.334-2.772 2.803 0 0-0.354 2.621-0.354 5.738 0 3.116 0.354 5.736 0.354 5.736 0.178 1.47 1.307 2.626 2.772 2.804 0 0 2.326 0.362 5.75 0.362 3.422 0 5.748-0.362 5.748-0.362 1.465-0.178 2.594-1.334 2.772-2.804 0 0 0.354-2.62 0.354-5.736 0-3.117-0.354-5.737-0.354-5.738"/>
 </g>
 <path d="m369.79 5.1201c-3.69 0-5.2714 2.1183-6.4184 4.4075l-0.01 0.01952-18.533 33.078-19.699-33.639c-2.0354-3.4655-4.3538-3.8657-5.9206-3.8657-4.1097 0-7.419 3.7681-7.419 6.8919 0 1.4789 0.45393 3.0213 1.2788 4.344l24.502 41.42v22.072c0 4.5246 2.7626 7.3312 7.2043 7.3312s7.1994-2.8065 7.1994-7.3312v-22.091l0.0683-0.11714 23.228-40.297c0.9469-1.6302 1.8255-3.4069 1.8255-5.33 0-3.4801-3.6216-6.8919-7.3116-6.8919zm-83.044 0c3.2849 0 5.6228 1.3715 7.1262 4.1732l0.36119 0.73214 27.265 66.844c0.31726 0.79559 0.65893 2.05 0.65893 3.197 0 3.9243-3.4313 7.1115-7.6436 7.1115-1.8792 0-4.3928-0.67357-6.0377-3.7486l-0.36607-0.75166-4.6711-12.046h-33.791l-4.6662 11.836c-1.2837 3.2117-3.3288 4.7101-6.4428 4.7101-4.1 0-7.3116-2.9286-7.3116-6.6674 0-1.1568 0.23917-2.0695 0.45881-2.7431l0.15619-0.46369 27.485-67.176c1.3032-3.2751 3.8706-5.0078 7.419-5.0078zm-0.0781 22.306-11.87 30.13h23.565zm-50.659 46.154h-21.686v-61.402c0-4.4905-2.6064-7.0676-7.1555-7.0676-4.549 0-7.1603 2.5771-7.1603 7.0676v74.874h36.002c4.4124 0 6.9407-2.4502 6.9407-6.7357 0-4.2757-2.5283-6.7357-6.9407-6.7357zm-70.852-68.475c14.487 0 26.235 11.783 26.235 26.308a26.279 26.279 0 0 1-25.181 26.289l-1.0543 0.01952h-1.5424v4.6369a24.727 24.727 0 0 1-24.693 24.761 24.727 24.727 0 0 1-24.668-23.682l-0.0244-1.0738v-57.253zm-5e-3 14.252h-36.719v43.001c0 5.7986 4.7052 10.514 10.484 10.514a10.509 10.509 0 0 0 10.46-9.7619l0.0244-0.74678v-18.889l15.751-0.0049a12.056 12.056 0 0 0 0.79071-24.087z" stroke-width="4.8809"/>
 <path d="m796.44 15.219c-2.3624-3.5045-5.6814-6.2427-9.8741-8.1268-4.1683-1.8743-8.9956-2.8261-14.35-2.8261-5.4959 0-10.606 0.98595-15.189 2.9334-4.5978 1.9524-8.4147 4.7931-11.343 8.4343a25.273 25.273 0 0 0-5.369 12.837 30.15 30.15 0 0 0-0.23917 3.075c0 4.3636 1.191 8.1072 3.5338 11.138a26.054 26.054 0 0 0 8.3122 7.0871c3.1531 1.6986 6.9309 3.3386 11.226 4.8809l2.6455 0.91762c4.1342 1.5131 7.0237 2.7821 8.5709 3.7827 1.4057 0.90785 2.089 2.1232 2.089 3.7242 0 1.8157-0.77119 3.4362-2.3673 4.959-1.5765 1.5131-4.0561 2.2794-7.3702 2.2794-3.9536 0-7.0237-0.89321-9.1371-2.6552-1.679-1.3959-2.5625-2.9237-2.7089-4.6711a2.05 2.05 0 0 0-2.2794-1.9084l-0.0683 0.0049-15.643 1.9865a2.0988 2.0988 0 0 0-1.8352 1.9865l-0.0146 0.66381c0 6.8724 2.582 12.383 7.668 16.376 5.0371 3.9536 11.997 5.9596 20.685 5.9596 8.9858 0 16.561-2.2306 22.506-6.6381 5.9889-4.4319 9.4983-10.533 10.435-18.138 0.16108-1.435 0.23429-2.4405 0.23429-3.0799 0-4.4417-1.191-8.1365-3.5436-10.977-2.3136-2.787-4.8272-4.8468-7.4678-6.1109-2.5771-1.2349-6.2476-2.7138-10.909-4.3977a168.49 168.49 0 0 1-9.1322-3.6119c-1.9036-0.83952-3.3386-1.7376-4.2659-2.6699a4.1634 4.1634 0 0 1-1.2886-3.075c0-2.3184 0.81512-4.0756 2.4844-5.369 1.7034-1.313 4.0658-1.9817 7.0286-1.9817 3.6119 0 6.3989 0.97619 8.2829 2.8993 1.5277 1.5619 2.3233 3.2556 2.4258 5.1738a2.089 2.089 0 0 0 2.3526 1.9524l15.629-1.9817a2.0988 2.0988 0 0 0 1.8304-1.9817c0.01-0.25381 0.0195-0.47345 0.0195-0.66381 0-4.5686-1.2007-8.6685-3.5631-12.188m-59.089 7.2531a1.9719 1.9719 0 0 0 0.69797-1.4643l1.7132-13.628a1.7864 1.7864 0 0 0-0.39047-1.5424 1.845 1.845 0 0 0-1.4496-0.64916h-57.946a2.0305 2.0305 0 0 0-1.4692 0.61012 2.5674 2.5674 0 0 0-0.70774 1.3374l-5e-3 0.0244v0.02929l-1.6107 13.667a1.8011 1.8011 0 0 0 0.39048 1.5424 1.845 1.845 0 0 0 1.4496 0.64916h18.562l-7.5459 61.9a1.7864 1.7864 0 0 0 0.39047 1.5424 1.8352 1.8352 0 0 0 1.4496 0.64916h15.834c0.56618 0 1.0738-0.20988 1.474-0.61012a2.6211 2.6211 0 0 0 0.70773-1.3374v-0.0244l5e-3 -0.02928 7.5703-62.09h19.392c0.55643 0 1.0592-0.19524 1.4936-0.57595m-87.793-17.283c6.887 0 12.422 2.0012 16.439 5.9547 4.0219 3.9536 6.0621 9.347 6.0621 16.034 0 0.79071-0.0732 2.0158-0.23428 3.7778-0.69797 5.2372-2.5625 9.84-5.5301 13.681a25.542 25.542 0 0 1-11.47 8.3659l10.758 31.56a2.0012 2.0012 0 0 1 0.16595 0.83952c0 0.40512-0.14642 1.7376-2.0744 1.7376h-16.639a2.1232 2.1232 0 0 1-2.1623-1.5326l-9.2738-30.535c-0.0146-0.02441-0.0293-0.03905-0.039-0.03905h-7.2336l-3.6656 30.106-5e-3 0.02928a2.5723 2.5723 0 0 1-0.71262 1.3618 2.0207 2.0207 0 0 1-1.4692 0.61012h-15.834a1.8304 1.8304 0 0 1-1.8401-2.1964l9.5178-77.719a1.9719 1.9719 0 0 1 0.69797-1.4594 2.2159 2.2159 0 0 1 1.4936-0.57595zm-5.0518 17.742h-12.276l-1.9231 16.088h12.129c2.8212 0 5.0908-0.83952 6.9212-2.5723 1.8304-1.7181 2.7089-3.9194 2.7089-6.7357 0-2.1134-0.65404-3.729-2.0012-4.9444-1.3569-1.2202-3.2263-1.8352-5.5594-1.8352zm-86.71-22.931c-25.308 0-45.817 20.568-45.817 45.939s20.515 45.939 45.817 45.939 45.812-20.568 45.812-45.939-20.505-45.939-45.812-45.939m-72.267 5.1884c7.1164 0 12.861 2.0402 17.069 6.0621 4.2171 4.0365 6.355 9.5471 6.355 16.385 0 0.78583-0.0781 2.0842-0.23429 3.9975-0.62476 5.0811-2.3233 9.6398-5.0566 13.549a27.621 27.621 0 0 1-10.65 9.0932c-4.3245 2.1037-9.2347 3.1726-14.594 3.1726h-13.51l-0.0342 0.06345-3.319 27.626-5e-3 0.02928a2.5723 2.5723 0 0 1-0.71262 1.3618 2.0207 2.0207 0 0 1-1.4692 0.61012h-15.839a1.8255 1.8255 0 0 1-1.8352-2.1964l9.5178-77.758 0.01-0.02441a2.5234 2.5234 0 0 1 0.71262-1.3618 2.0012 2.0012 0 0 1 1.4643-0.61012zm-4.9346 17.742h-11.441c-0.01 0.01464-0.0244 0.03417-0.0342 0.06345l-2.1476 17.864h11.216c3.1628 0 5.7742-0.98107 7.7753-2.909 2.0207-1.9524 3.0018-4.4221 3.0018-7.5508 0-2.2696-0.73215-4.0365-2.2404-5.4032-1.5033-1.3715-3.568-2.0646-6.1305-2.0646zm-38.52 4.4758c0-4.5686-1.2007-8.6685-3.5631-12.188-2.3624-3.5045-5.6814-6.2427-9.8741-8.1268-4.1683-1.8743-8.9956-2.8261-14.35-2.8261-5.4959 0-10.606 0.98595-15.185 2.9334-4.6027 1.9524-8.4196 4.7931-11.348 8.4343a25.273 25.273 0 0 0-5.369 12.837 31.668 31.668 0 0 0-0.23916 3.075c0 4.3636 1.191 8.1072 3.5338 11.138a26.054 26.054 0 0 0 8.3122 7.0871c3.1531 1.6986 6.9309 3.3386 11.226 4.8809l2.6455 0.91762c4.1342 1.5131 7.0286 2.7821 8.5709 3.7827 1.4057 0.90785 2.089 2.1232 2.089 3.7242 0 1.8157-0.77119 3.4362-2.3624 4.959-1.5765 1.5131-4.0609 2.2794-7.38 2.2794-3.9438 0-7.0188-0.89321-9.1322-2.6552-1.679-1.3959-2.5625-2.9237-2.7089-4.6711a2.05 2.05 0 0 0-2.2794-1.9084l-0.0683 0.0049-15.643 1.9865a2.0842 2.0842 0 0 0-1.8304 1.9865 11.573 11.573 0 0 0-0.0195 0.66381c0 6.8724 2.582 12.383 7.668 16.376 5.0371 3.9536 11.997 5.9596 20.685 5.9596 8.9907 0 16.561-2.2306 22.511-6.6381 5.984-4.4319 9.4934-10.533 10.431-18.138 0.16107-1.435 0.23917-2.4405 0.23917-3.0799 0-4.4417-1.1958-8.1365-3.5484-10.977-2.3136-2.787-4.8272-4.8468-7.4678-6.1109-2.5771-1.2349-6.2476-2.7138-10.909-4.3977a168.49 168.49 0 0 1-9.1322-3.6119c-1.9036-0.83952-3.3386-1.7376-4.2659-2.6699a4.1634 4.1634 0 0 1-1.2886-3.075c0-2.3184 0.81511-4.0756 2.4844-5.369 1.7034-1.313 4.0658-1.9817 7.0286-1.9817 3.6119 0 6.3989 0.97619 8.283 2.8993 1.5277 1.5619 2.3233 3.2556 2.4307 5.1738a2.0842 2.0842 0 0 0 2.3526 1.9524l15.619-1.9817a2.089 2.089 0 0 0 1.8352-1.9817c0.0147-0.25381 0.0195-0.47345 0.0195-0.66381" fill="#00e650" stroke-width="4.8809"/>
</svg>
