<svg width="800" height="106.88" version="1.1" viewBox="0 0 800 106.88" xml:space="preserve" xmlns="http://www.w3.org/2000/svg"><g transform="matrix(1.3333 0 0 -1.3333 112.28 982.38)"><g transform="matrix(19.681 0 0 19.681 56.276 686.52)"><path d="m0 0 0.528 1.336 0.52-1.336zm0.864 2.107c-0.066 0.146-0.175 0.218-0.333 0.218s-0.272-0.077-0.33-0.222l-1.222-2.978c-0.01-0.032-0.027-0.079-0.027-0.143 0-0.165 0.143-0.295 0.325-0.295 0.139 0 0.23 0.066 0.287 0.208l0.207 0.525h1.502l0.208-0.534c0.072-0.165 0.195-0.199 0.285-0.199 0.187 0 0.339 0.141 0.339 0.315 0 0.051-0.015 0.107-0.029 0.142zm3.359 0.218c-0.164 0-0.234-0.094-0.285-0.196h-1e-3l-0.824-1.467-0.876 1.491c-0.09 0.154-0.193 0.172-0.263 0.172-0.182 0-0.329-0.167-0.329-0.306 0-0.065 0.02-0.134 0.057-0.192l1.089-1.837v-0.978c0-0.201 0.122-0.325 0.32-0.325 0.197 0 0.32 0.124 0.32 0.325v0.979l3e-3 5e-3 1.033 1.787c0.042 0.072 0.081 0.151 0.081 0.236 0 0.154-0.161 0.306-0.325 0.306m-5.947-3.036h-0.964v2.723c0 0.199-0.116 0.313-0.318 0.313-0.203 0-0.319-0.114-0.319-0.313v-3.32h1.601c0.196 0 0.308 0.109 0.308 0.299s-0.112 0.298-0.308 0.298m-3.15 1.335h-0.701v-0.837c0-0.257-0.209-0.466-0.466-0.466s-0.466 0.209-0.466 0.466v1.907h1.633c0.295 0 0.534-0.24 0.534-0.535s-0.239-0.535-0.534-0.535m0 1.701h-2.264v-2.538c0-0.606 0.491-1.098 1.097-1.098 0.607 0 1.098 0.492 1.098 1.098v0.206h0.069c0.644 0 1.166 0.522 1.166 1.166s-0.522 1.166-1.166 1.166" fill="#0a161a"/></g><g transform="matrix(19.681 0 0 19.681 -9613 -11907)"><g transform="translate(514.49 641.77)"><path d="m0 0c-0.105 0.156-0.253 0.277-0.439 0.36-0.185 0.084-0.4 0.126-0.638 0.126-0.244 0-0.471-0.044-0.675-0.13-0.205-0.087-0.374-0.213-0.504-0.374-0.131-0.162-0.211-0.354-0.239-0.569-7e-3 -0.063-0.011-0.108-0.011-0.137 0-0.193 0.053-0.359 0.157-0.493 0.103-0.133 0.227-0.238 0.37-0.315 0.14-0.075 0.308-0.148 0.499-0.216l0.118-0.041c0.183-0.067 0.312-0.123 0.381-0.168 0.062-0.04 0.093-0.094 0.093-0.165 0-0.08-0.035-0.152-0.106-0.22-0.07-0.067-0.18-0.101-0.328-0.101-0.175 0-0.312 0.04-0.406 0.118-0.074 0.062-0.114 0.13-0.12 0.207-4e-3 0.049-0.043 0.086-0.09 0.086-4e-3 0-8e-3 -1e-3 -0.011-1e-3l-4e-3 -1e-3 -0.695-0.087c-0.045-6e-3 -0.079-0.043-0.081-0.089-1e-3 -0.011-1e-3 -0.021-1e-3 -0.029 0-0.305 0.115-0.549 0.341-0.726 0.224-0.175 0.533-0.264 0.919-0.264 0.4 0 0.737 0.099 1.001 0.294 0.266 0.196 0.422 0.467 0.464 0.804 7e-3 0.064 0.01 0.108 0.01 0.137 0 0.197-0.053 0.36-0.157 0.486-0.103 0.124-0.215 0.215-0.332 0.271-0.115 0.055-0.278 0.121-0.485 0.195-0.182 0.068-0.319 0.122-0.406 0.16-0.085 0.038-0.149 0.077-0.19 0.119-0.038 0.038-0.057 0.083-0.057 0.136 0 0.103 0.036 0.181 0.11 0.238 0.076 0.058 0.181 0.088 0.313 0.088 0.16 0 0.284-0.043 0.368-0.128 0.068-0.07 0.103-0.145 0.108-0.23 3e-3 -0.049 0.043-0.087 0.093-0.087 4e-3 0 8e-3 0 0.012 1e-3l0.694 0.087c0.045 6e-3 0.079 0.043 0.082 0.088v0.03c0 0.202-0.053 0.384-0.158 0.54m-15.754-0.54c0 0.202-0.053 0.384-0.158 0.54s-0.253 0.277-0.439 0.36c-0.185 0.084-0.4 0.126-0.638 0.126-0.244 0-0.471-0.044-0.675-0.13-0.205-0.087-0.374-0.213-0.504-0.374-0.131-0.162-0.211-0.354-0.239-0.569-7e-3 -0.063-0.011-0.108-0.011-0.137 0-0.193 0.053-0.359 0.157-0.493 0.103-0.133 0.227-0.238 0.37-0.315 0.14-0.075 0.308-0.148 0.499-0.216l0.118-0.041c0.184-0.067 0.312-0.123 0.381-0.168 0.062-0.04 0.093-0.094 0.093-0.165 0-0.08-0.035-0.152-0.106-0.22-0.07-0.067-0.18-0.101-0.328-0.101-0.175 0-0.312 0.04-0.406 0.118-0.074 0.062-0.114 0.13-0.12 0.207-4e-3 0.049-0.043 0.086-0.09 0.086-4e-3 0-8e-3 -1e-3 -0.011-1e-3l-4e-3 -1e-3 -0.695-0.087c-0.045-6e-3 -0.079-0.043-0.081-0.089-1e-3 -0.011-1e-3 -0.021-1e-3 -0.029 0-0.305 0.115-0.549 0.341-0.726 0.224-0.175 0.533-0.264 0.919-0.264 0.4 0 0.737 0.099 1.001 0.294 0.266 0.196 0.422 0.467 0.464 0.804 7e-3 0.064 0.01 0.108 0.01 0.137 0 0.197-0.053 0.36-0.157 0.486-0.103 0.124-0.215 0.215-0.332 0.271-0.115 0.055-0.278 0.121-0.485 0.195-0.182 0.068-0.319 0.122-0.406 0.16-0.085 0.038-0.149 0.077-0.19 0.119-0.038 0.038-0.057 0.083-0.057 0.136 0 0.103 0.036 0.181 0.11 0.238 0.076 0.058 0.181 0.088 0.313 0.088 0.16 0 0.284-0.043 0.368-0.128 0.068-0.07 0.103-0.145 0.108-0.23 3e-3 -0.049 0.043-0.087 0.093-0.087 4e-3 0 8e-3 0 0.012 1e-3l0.694 0.087c0.045 6e-3 0.08 0.043 0.082 0.088v0.03m13.127 0.219c0.02 0.017 0.031 0.039 0.031 0.064l0.077 0.605c4e-3 0.026-2e-3 0.049-0.018 0.068s-0.038 0.029-0.064 0.029h-2.576c-0.026 0-0.048-9e-3 -0.066-0.027-0.016-0.017-0.027-0.036-0.031-0.059l-1e-3 -2e-3v-1e-3l-0.071-0.606c-5e-3 -0.026 1e-3 -0.049 0.017-0.068s0.039-0.029 0.065-0.029h0.825l-0.336-2.744c-4e-3 -0.026 2e-3 -0.05 0.018-0.069s0.038-0.029 0.064-0.029h0.704c0.025 0 0.048 0.01 0.066 0.027 0.016 0.017 0.026 0.037 0.031 0.06v2e-3l0.337 2.753h0.862c0.025 0 0.047 9e-3 0.066 0.026m-3.911-0.62c-0.082-0.077-0.183-0.114-0.308-0.114h-0.54l0.086 0.713h0.546c0.103 0 0.187-0.027 0.247-0.081s0.089-0.126 0.089-0.219c0-0.125-0.039-0.223-0.12-0.299m8e-3 1.386h-1.469c-0.025 0-0.047-9e-3 -0.067-0.026-0.019-0.017-0.03-0.039-0.031-0.064l-0.423-3.446c-5e-3 -0.026 1e-3 -0.05 0.018-0.069 0.016-0.019 0.038-0.029 0.064-0.029h0.704c0.025 0 0.048 0.01 0.066 0.027 0.016 0.017 0.026 0.037 0.031 0.06v2e-3l0.163 1.335h0.322l2e-3 -2e-3 0.412-1.354c0.015-0.044 0.049-0.068 0.096-0.068h0.74c0.085 0 0.092 0.059 0.092 0.078 0 0.013-2e-3 0.026-7e-3 0.037l-0.479 1.399c0.207 0.076 0.378 0.201 0.51 0.371s0.215 0.374 0.246 0.607c7e-3 0.078 0.011 0.132 0.011 0.167 0 0.296-0.091 0.535-0.27 0.711-0.179 0.175-0.424 0.264-0.731 0.264m-7.272-1.453c-0.089-0.085-0.206-0.129-0.346-0.129h-0.499l0.096 0.792c0 2e-3 1e-3 3e-3 1e-3 3e-3h0.509c0.114 0 0.206-0.031 0.272-0.091 0.067-0.061 0.1-0.139 0.1-0.24 0-0.139-0.044-0.248-0.133-0.335m-0.02 1.453h-1.428c-0.025 0-0.048-9e-3 -0.065-0.027-0.017-0.017-0.027-0.036-0.032-0.059v-3e-3l-0.424-3.447c-4e-3 -0.026 2e-3 -0.05 0.018-0.069s0.038-0.029 0.064-0.029h0.704c0.025 0 0.048 0.01 0.066 0.027 0.016 0.017 0.026 0.037 0.031 0.06v2e-3l0.148 1.225c0 1e-3 1e-3 2e-3 1e-3 3e-3h0.601c0.238 0 0.457 0.047 0.649 0.141 0.192 0.093 0.352 0.229 0.473 0.403 0.122 0.173 0.197 0.375 0.225 0.6 7e-3 0.085 0.011 0.143 0.011 0.178 0 0.303-0.095 0.547-0.283 0.726-0.187 0.178-0.442 0.269-0.759 0.269" fill="#e0e70a"/></g><path d="m505.48 639.79c-5e-3 -4e-3 -0.011-7e-3 -0.017-7e-3h-0.19c-0.013 0-0.02 7e-3 -0.023 0.019l-0.173 0.799c-2e-3 4e-3 -4e-3 6e-3 -7e-3 5e-3 -3e-3 0-5e-3 -3e-3 -5e-3 -6e-3l-0.096-0.794c-1e-3 -6e-3 -4e-3 -0.012-8e-3 -0.016-5e-3 -4e-3 -0.01-7e-3 -0.016-7e-3h-0.166c-0.014 0-0.021 8e-3 -0.021 0.023l0.157 1.274c1e-3 6e-3 4e-3 0.012 9e-3 0.016 5e-3 5e-3 0.011 7e-3 0.017 7e-3h0.187c0.012 0 0.02-7e-3 0.022-0.019l0.177-0.794c0-3e-3 2e-3 -5e-3 5e-3 -4e-3 3e-3 0 5e-3 3e-3 7e-3 6e-3l0.096 0.788c1e-3 6e-3 4e-3 0.012 8e-3 0.016 5e-3 5e-3 0.01 7e-3 0.016 7e-3h0.166c6e-3 0 0.011-2e-3 0.015-7e-3 4e-3 -4e-3 5e-3 -0.01 4e-3 -0.016l-0.156-1.274c0-6e-3 -3e-3 -0.012-8e-3 -0.016m-0.777 1.147c-1e-3 -6e-3 -4e-3 -0.012-8e-3 -0.016-4e-3 -5e-3 -0.01-7e-3 -0.016-7e-3h-0.396c-6e-3 0-9e-3 -3e-3 -9e-3 -9e-3l-0.045-0.356c0-7e-3 3e-3 -0.01 9e-3 -0.01h0.234c6e-3 0 0.011-2e-3 0.015-6e-3 3e-3 -5e-3 5e-3 -0.01 3e-3 -0.016l-0.018-0.145c0-7e-3 -3e-3 -0.012-8e-3 -0.017-5e-3 -4e-3 -0.011-6e-3 -0.017-6e-3h-0.234c-6e-3 0-9e-3 -3e-3 -9e-3 -0.01l-0.045-0.358c0-6e-3 3e-3 -9e-3 9e-3 -9e-3h0.394c6e-3 0 0.011-2e-3 0.015-7e-3 4e-3 -4e-3 5e-3 -9e-3 4e-3 -0.016l-0.017-0.143c-1e-3 -6e-3 -4e-3 -0.012-8e-3 -0.016-5e-3 -4e-3 -0.01-7e-3 -0.017-7e-3h-0.593c-0.014 0-0.021 8e-3 -0.021 0.023l0.156 1.274c2e-3 6e-3 5e-3 0.012 0.01 0.016 5e-3 5e-3 0.011 7e-3 0.017 7e-3h0.594c6e-3 0 0.011-2e-3 0.015-7e-3 3e-3 -4e-3 5e-3 -0.01 3e-3 -0.016zm-0.848-0.221c-0.012-0.113-0.052-0.204-0.119-0.273-0.068-0.069-0.148-0.104-0.243-0.104h-0.154c-5e-3 0-9e-3 -3e-3 -0.011-9e-3l-0.065-0.524c-1e-3 -6e-3 -4e-3 -0.012-8e-3 -0.016s-0.01-7e-3 -0.016-7e-3h-0.168c-0.014 0-0.021 8e-3 -0.021 0.023l0.159 1.276c0 6e-3 2e-3 0.012 7e-3 0.016s0.011 7e-3 0.017 7e-3h0.343c0.087 0 0.156-0.03 0.207-0.088s0.076-0.135 0.076-0.231c0-0.03-1e-3 -0.053-4e-3 -0.07m-0.899 0.044-0.077-0.634c-0.013-0.108-0.055-0.194-0.127-0.26-0.073-0.065-0.161-0.098-0.267-0.098-0.095 0-0.171 0.027-0.226 0.081s-0.083 0.128-0.083 0.221c0 0.01 1e-3 0.029 4e-3 0.056l0.077 0.634c0.013 0.108 0.055 0.195 0.127 0.26s0.161 0.098 0.267 0.098c0.095 0 0.171-0.027 0.226-0.08 0.055-0.054 0.083-0.126 0.083-0.218 0-0.013-1e-3 -0.033-4e-3 -0.06m0.925 1.688c-1.125 0-2.037-0.912-2.037-2.037s0.912-2.036 2.037-2.036 2.036 0.911 2.036 2.036-0.911 2.037-2.036 2.037m-1.255-1.519c-0.041 0-0.076-0.014-0.104-0.044-0.028-0.029-0.046-0.068-0.052-0.116l-0.079-0.652c-1e-3 -8e-3 -2e-3 -0.018-2e-3 -0.032 0-0.039 0.01-0.07 0.031-0.093 0.021-0.024 0.05-0.035 0.088-0.035 0.041 0 0.076 0.015 0.105 0.044 0.029 0.03 0.047 0.068 0.053 0.116l0.081 0.652c1e-3 6e-3 2e-3 0.015 2e-3 0.027 0 0.041-0.011 0.074-0.033 0.098-0.022 0.023-0.052 0.035-0.09 0.035m0.892-0.013h-0.109c-7e-3 0-0.01-3e-3 -0.01-9e-3l-0.047-0.387c-2e-3 -6e-3 0-9e-3 8e-3 -9e-3h0.109c0.045 0 0.083 0.018 0.115 0.054 0.031 0.035 0.051 0.084 0.06 0.146 1e-3 0.01 2e-3 0.024 2e-3 0.043 0 0.05-0.011 0.09-0.034 0.119-0.022 0.029-0.054 0.043-0.094 0.043" fill="#e0e70a"/></g></g></svg>
