<svg enable-background="new 0 0 800 552.3" version="1.1" viewBox="0 0 800 552.3" xml:space="preserve" xmlns="http://www.w3.org/2000/svg">
<path d="m368.7 371.5c12.4 0 24.1 8.3 24.1 21.7 0 8-5.2 13.5-5.2 13.5h26.7v13.8h-68.3v-13.6h5c-4.2-4.2-5.9-8.6-5.9-14.7 0-12.8 10.9-20.7 23.6-20.7zm179.2-239.7v288.7h-73.4v-226.9h-41.5v-61.8h114.9zm134.9-10.2c65.8 0 117.2 47.4 117.2 112.9v2.2c0.2 12.4-1.7 23.2-5.1 33.5-2.8 9.1-6.7 17.5-11.6 25.2-5.8 10.1-12.7 20.6-20.3 32.3l-1.4 2.1-56.6 89.1h-88.8l54.7-74.4c-61.3-4.8-107-51.7-107-109 0-65 52-113.9 118.9-113.9zm-313.9 263.9c-6.4 0-11.5 4.1-11.5 10.6 0 7 4.9 11.3 11.5 11.3s11.1-4.9 11.1-11.4c0.1-6.2-5.3-10.5-11.1-10.5zm0-65.9c13.9 0 24.4 10.1 24.4 24.9 0 14-11.5 24.7-24.2 24.7-13.7 0-24-10.9-24-25 0-13.8 10-24.6 23.8-24.6zm-0.3 13.8c-5.9 0-10.5 4.5-10.5 10.9 0 6.7 4.9 11.1 11.2 11.1 6.1 0 10.9-4.7 10.9-11 0-6.8-4.4-11-11.6-11zm23.1-64.6v13.6h-4.7c4.2 4.2 5.9 8.6 5.9 14.7 0 12.9-10.9 20.8-23.6 20.8-12.4 0-24.1-8.5-24.1-22 0-7.5 4.7-12.7 5.2-13.2h-24.4v-13.8l65.7-0.1zm-22.5 13.1c-6.4 0-11.2 4.3-11.2 10.8 0 7 5.2 11 11 11 6.3 0 11.5-4.2 11.5-10.6 0-7.2-5-11.2-11.3-11.2zm313.2-94.9c-29.8 0-49.3 21.8-49.3 49.6 0 27.1 20.8 48.4 48.9 48.3 28.4-0.2 48.9-19.5 48.9-51.2 0.2-26.2-19.7-46.7-48.5-46.7zm-349.5 61.7c4.9 0 8.8 3.9 8.8 8.9 0 4.7-3.8 8.5-8.6 8.5s-8.7-3.9-8.7-8.6c-0.1-4.9 3.7-8.8 8.5-8.8zm58.8 2.5v13.9h-45.7v-13.9h45.7zm-18.6-46.7c12.7 0 19.7 8.3 19.7 21.4s-7.6 21.5-20.3 21.5h-26.5v-13.9h26.2c5 0 7.9-3.1 7.9-7.8 0-5-2.9-7.7-7.5-7.7h-26.6v-13.6h27.1zm18.8-72.7v13.9h-26.8c-5.1 0-7.2 1.8-7.2 6.3s3.4 7.4 8.9 7.4h25v14.1h-26.8c-5 0-7.1 1.6-7.1 6 0 4.5 3.2 7.4 8.9 7.4h25v13.9h-45.8v-13.6h6s-6.9-5.1-6.9-12.9c0-6 3.1-10.6 7.3-12.9-3.8-3.6-7.3-6.6-7.3-15 0-9.1 6.7-14.7 15.3-14.7l31.5 0.1z"/>
<polygon points="292.7 420.5 292.7 131.8 266.1 131.8 266.1 420.5" fill="#00FDD2"/>
<polygon points="231.9 552.3 231.9 0 183.8 0 183.8 552.3" fill="#F91DFF"/>
<polygon points="173 483.5 173 68.7 162.9 68.7 162.9 483.5" fill="#FFED00"/>
<polygon points="151.7 420.5 151.7 131.8 141.9 131.8 141.9 420.5" fill="#FF395E"/>
<polygon points="100.4 473.5 100.4 78.7 64.2 78.7 64.2 473.5" fill="#0019FF"/>
<polygon points="52 512.3 52 40 41.9 40 41.9 512.3" fill="#BAA202"/>
<polygon points="10.1 376.1 10.1 176.2 0 176.2 0 376.1" fill="#95A6FF"/>
</svg>
