<svg width="1096.5pt" height="312.1pt" version="1.1" viewBox="0 0 1096.5 312.1" xmlns="http://www.w3.org/2000/svg">
 <path d="m887.82 63.16h91.68v19.365h-33.725v56.19h-24.115v-56.19h-33.84z" fill="#ee8035"/>
 <path d="m982.36 63.3h25.85l26.92 56.325h4.37l27.15-56.325h25.24l-36.63 75.385h-35.53z" fill="#ee8035"/>
 <path d="m372.18 63.225h65.07c7.1 0.35 15.26 0.955 20.5 6.415 4.81 5.63 4.77 13.54 5.04 20.54-0.14 7.75 0.2 16.39-4.64 22.94-4.33 5.14-11.48 6.575-17.85 6.935h-45.02l-0.02 18.685-23.07-0.01-0.01-75.505m23.11 18.97-0.01 19.045h37.01c2.76 0.05 6.05-1.18 6.85-4.13 0.85-3.52 0.84-7.29 0.01-10.81-0.74-2.99-4.1-4.175-6.84-4.105z" fill="#415fa5"/>
 <path d="m716.19 63.12 20.24 0.03-0.04 75.6-20.16 0.01z" fill="#415fa5"/>
 <path d="m851.89 85.99c5.7-2.6 12.16-2.51 18.28-2.11 5.35 0.5 11.34 2.23 14.24 7.18 3.16 5.37 2.51 11.9 2.73 17.89l-18.92-0.04c-0.37-2.97-0.06-6.95-3.21-8.54-4.93-2.26-11.2-2.18-15.83 0.75-3.67 2.4-4.03 7.19-4.22 11.15-0.16 8.82-0.04 17.64-0.06 26.46l-20.2-0.01 0.08-53.68 19.01 0.03 0.12 8.55c2.37-2.8 4.5-6.11 7.98-7.63z" fill="#415fa5"/>
 <path d="m484.77 84.92c10.42-1.57 21.01-1.29 31.52-1.07 6.38 0.37 13.06 0.54 18.94 3.36 4.21 2.06 7.34 6.12 8.16 10.76 1.28 6.65 1.07 13.48 0.86 20.22-0.31 5.56-0.85 11.86-5.18 15.92-5.02 4.69-12.25 5.37-18.79 5.77-10.64 0.41-21.32 0.54-31.95-0.31-6.16-0.56-13.04-2.3-16.7-7.75-3.46-5.52-3.09-12.35-3.34-18.6 0.13-6.75-0.5-14.01 2.8-20.17 2.73-4.96 8.36-7.23 13.68-8.13m11.74 14.55c-4.99 0.26-8.21 4.9-8 9.63 0 4.7-1.18 11.35 3.86 13.98 5.94 2.49 12.61 1.96 18.91 1.89 4.19-0.29 9.8-0.44 11.81-4.9 1.65-4.82 1.44-10.18 0.46-15.11-0.78-3.39-4.25-4.93-7.37-5.39-6.5-1.01-13.17-1.05-19.67-0.1z" fill="#415fa5"/>
 <path d="m579.41 85.6c7.33-2.43 15.22-1.89 22.83-1.81 7 0.44 14.95 0.99 20.15 6.34 4.5 4.41 4.61 11.19 4.92 17.07 0.08 7.1 0.4 14.43-1.77 21.29-1.24 3.92-4.11 7.34-7.97 8.87-6.72 2.81-14.16 2.63-21.3 2.85-5.61-0.1-11.47 0.06-16.75-2.15-3.2-1.29-5.35-4.1-7.51-6.65l-0.13 29.78-20.2-0.06 0.1-76.1 18.98 0.03 0.12 7.68c2.41-2.81 4.81-6.04 8.53-7.14m0.07 13.93c-2.9 0.42-5.86 2.04-6.69 5.04-1.19 4.57-1.28 9.49-0.24 14.1 0.65 3.13 3.58 5.07 6.57 5.6 6.24 1.14 12.68 0.97 18.98 0.32 3.36-0.4 7.54-1.64 8.4-5.42 1-4.6 1.04-9.49 0.16-14.11-0.62-3.48-4.06-5.32-7.29-5.69-6.59-0.81-13.32-0.82-19.89 0.16z" fill="#415fa5"/>
 <path d="m749.84 90.73c4.95-5.26 12.6-6.04 19.4-6.58 9.31-0.58 18.66-0.65 27.98-0.22 4.83 0.32 10.2 0.91 13.79 4.55 4.37 3.94 4.9 10.2 4.97 15.72l0.04 34.42-19.28 0.03-0.07-7.79c-1.99 2.88-4.23 5.85-7.64 7.12-5.63 2.17-11.81 1.74-17.73 1.98-6.84-0.09-14.02 0.41-20.47-2.3-3.79-1.49-6.27-5.23-6.81-9.18-0.67-4.75-0.65-9.81 1.22-14.3 1.56-3.82 5.14-6.49 9.05-7.57 7.46-2.15 15.32-1.75 23-1.94 6.44-0.02 13.86-0.55 18.66 4.62-0.11-3.45 0.74-7.41-1.41-10.41-2.77-2.49-6.84-2.06-10.29-2.26-5.23 0.14-10.61-0.46-15.7 0.98-1.97 0.51-2.14 2.81-2.92 4.34l-19.96-0.01c0.56-3.96 1.17-8.26 4.17-11.2m20.71 25.74c-3.2 0.11-7.3 1.85-6.77 5.72 0.01 3.29 3.64 4.37 6.33 4.6 6.3 0.58 12.69 0.51 18.99-0.22 2.61-0.43 5.99-1.31 6.55-4.36 0.7-2.84-1.77-5.57-4.55-5.75-6.82-0.62-13.73-0.53-20.55 0.01z" fill="#415fa5"/>
 <path d="m634.21 85.29 20.22 0.02 0.02 27.92c0.08 3.54 0.52 7.82 3.86 9.85 3.92 2.21 8.61 1.9 12.97 1.97 4.29-0.17 9.2-0.17 12.59-3.24 2.73-2.38 2.92-6.27 3.13-9.64l0.11-26.89h20.16l-0.02 53.57-18.95 0.01-0.2-8.58c-2.07 2.79-4.07 5.93-7.39 7.35-6.1 2.71-12.95 2.62-19.49 2.56-7.42-0.23-15.73-1.14-21.14-6.83-3.62-3.33-5.21-8.21-5.46-13.01-0.75-11.67-0.24-23.37-0.41-35.06z" fill="#415fa5"/>
 <path d="m493.44 178.69 14.92 0.01 39.63 70.03-10.47 0.02-8.32-14.9-56.48-0.05-8.36 14.93h-10.74l39.82-70.04m-16.23 46.99 47.46-0.02-21.87-38.87-3.6 0.11z" fill="#415fa5"/>
 <path d="m645.67 178.65 79.61 0.05 0.04 8.17-34.99-0.03-0.02 61.91-9.48 0.01 0.02-61.93-35.17 0.01z" fill="#415fa5"/>
 <path d="m750.83 178.7h15.04l39.62 70.03-10.52-0.01-8.36-14.92-56.46 0.04-8.22 14.87-10.77 0.04 39.67-70.05m-16.15 46.95 47.59 0.04-21.83-38.81-3.63-0.09z" fill="#415fa5"/>
 <path d="m809.39 178.71h60.84c6.38 0.01 13.3 3.3602 15.83 9.5802 1.75 4.93 1.45 10.41 0.51 15.49-0.72 3.85-3.91 6.49-7.28 8.07 4.52 0.64 8.91 3.52 10 8.18 1.41 6.23 1.41 12.94-0.4 19.09-1.41 4.66-6.04 7.35-10.58 8.14-9.22 1.75-18.67 1.3402-28 1.4202h-40.92v-69.97m9.42 8.13v21.83h42.44c4.63-0.27 9.96 0.37 13.84-2.69 3.52-3.82 3.03-9.82 1.67-14.45-1.14-3.54-5.27-4.5902-8.48-4.6902h-49.47m0 29.97-0.01 23.72h43.46c4.82-0.23 9.88-0.11 14.42-2.02 3.42-1.66 3.97-5.94 4.07-9.33-0.01-3.54-0.26-7.85-3.4-10.13-2.27-1.82-5.34-2.0502-8.07-2.2402z" fill="#415fa5"/>
 <path d="m899.4 178.71h58.88c5.96 0.27 12.75 0.62025 17.29 5.1202s4.78 11.39 4.73 17.38c-0.23 4.19-0.21 8.77-2.62 12.39-1.91 2.84-5.41 3.67-8.47 4.61 3.98 1.15 8.17 3.71 8.9 8.14 1.15 7.41 0.69 14.911 0.69 22.4l-9.43-0.02c0-6.9343 0.2152-15.105-0.9-20.81-1.28-4.88-6.87-6.1898-11.21-6.2098h-48.49v27.04l-9.39 0.01 0.02-70.05m9.43 8.13-0.02 26.74h46.44c3.82-0.13 7.87-0.22025 11.34-2.0802 3.28-1.85 3.9-5.97 4.09-9.38 0.12-4.05 0.07-8.6-2.49-11.96-2.85-2.86-7.23-2.9802-10.95-3.3202z" fill="#415fa5"/>
 <path d="m988.38 178.67 9.4 0.01 0.05 70.1-9.42-0.04z" fill="#415fa5"/>
 <path d="m378.6 182.45c4.42-2.48 9.66-2.67 14.6-3.07 14.5-0.82 29.1-1.25 43.55 0.44 5.18 0.53 10.72 2.8 13.18 7.68 2 4.54 1.54 9.64 1.76 14.47l-8.73 0.01c-0.18-3.37 0.16-6.98-1.39-10.08-2.07-3.07-6.14-3.49-9.49-4-11.59-1.1-23.27-0.93-34.89-0.36-4.16 0.36-8.54 0.42-12.37 2.26-2.64 1.68-3.14 5.1-3.72 7.93-1.38 10.03-0.69 20.2-0.1 30.28 0.32 3.02 0.38 6.44 2.55 8.83 1.96 2.15 5.04 2.45 7.77 2.73 14.13 1.04 28.34 0.9 42.46-0.08 2.93-0.42 6.63-0.73 8.24-3.62 1.71-3.46 1.13-7.48 1.41-11.2l9.13-0.02c-0.53 5.46 0.05 11.28-2.24 16.42-3.07 5.75-10.24 6.65-16.07 7.15-12.61 0.77-25.27 0.56-37.9 0.17-5.99-0.47-12.39-0.48-17.8-3.44-5.15-2.94-6.48-9.27-7.11-14.7-0.99-11.03-1.01-22.18 0.19-33.2 0.71-5.35 1.98-11.56 6.97-14.6z" fill="#415fa5"/>
 <path d="m551.84 178.65 15.65-0.01 61.882 61.48h1.4676l0.02-61.46 9.49-0.01-0.03 70.11h-16.13l-61.088-61.86h-1.6423l-0.13 61.81-9.48 0.05z" fill="#415fa5"/>
 <path d="m1002.2 248.71 39.71-70.03 14.8-0.06 39.81 70.09-10.53 0.02-8.34-14.92-56.51 0.04-8.26 14.9-10.68-0.04m23.54-23.03 47.51-0.01-21.79-38.78-3.61-0.08z" fill="#415fa5"/>
 <g transform="matrix(1.3112 0 0 1.3112 -258.32 351.6)">
  <g transform="matrix(.13166 0 0 .13166 184.92 -273.08)">
   <path d="m735.6 75.49c91.45-27.52 187.31-40.05 282.74-37.76 15.34 22.77 26.23 48.27 34.47 74.39 9.56 30.72 15.97 62.59 16.83 94.82 0.85 30.32-3.49 60.97-14.23 89.41-10.46 28.13-26.99 53.79-47.2 75.89-36.06 39.36-82.24 67.83-129.97 90.88-79.19 37.8-164.04 61.26-247.74 86.63l-114.49-374.63c68.33-42.78 142.35-76.51 219.59-99.63z" fill="#ee8035"/>
  </g>
  <path d="m332.44-267.02c11.397 1.5654 22.563 4.8043 33.023 9.5902 18.255 8.317 34.317 21.358 46.25 37.48 6.7424 9.078 12.176 19.125 16.08 29.738 0.50558 1.4219 1.0414 2.8373 1.4654 4.2842-2.8597 9.6112-7.1729 18.767-12.506 27.25-5.5798 8.8713-12.272 17.005-19.549 24.532-5.1795 5.3665-10.667 10.43-16.329 15.285-4.146 3.5022-8.6528 6.5554-13.307 9.3374-9.1004 5.402-18.76 9.7969-28.591 13.689-15.09 5.9195-30.627 10.663-46.37 14.504l15.572 51.016c-12.162-0.7926-24.203-3.4548-35.548-7.9102-9.764-3.8221-19.014-8.9516-27.433-15.202-16.471-12.19-29.717-28.696-38.012-47.435-5.2836-11.897-8.5724-24.673-9.7074-37.641-1.0138-11.515-0.37523-23.178 1.9354-34.506 2.2764-11.196 6.1933-22.057 11.582-32.132 7.8733-14.749 18.896-27.804 32.112-38.042l17.313 56.638c9.1636-2.7846 18.404-5.3336 27.458-8.4698 7.4336-2.5661 14.766-5.4955 21.692-9.2373 5.2125-2.8307 10.198-6.1459 14.537-10.208 3.6984-3.4614 6.8938-7.5034 9.157-12.047 2.3936-4.7622 3.6984-10.043 3.9525-15.358 0.33178-6.5975-0.83078-13.192-2.757-19.486-0.58063-1.9222-1.2758-3.8076-2.0197-5.6706z" fill="#415fa5" stroke-width=".13166"/>
  <g transform="matrix(.13166 0 0 .13166 184.92 -273.08)">
   <path d="m1756.7 1021.6c52.4-64.88 98.29-135.28 133.85-210.8 13.84 95.01 12.42 192.2-3.98 286.8-21.5 124.35-69.73 243.95-140.33 348.54-69.59 103.43-160.77 192.24-266.02 259.05-54.49 34.65-112.72 63.43-173.37 85.63-89.71 32.95-184.72 51.11-280.21 54.44l-100.2-327.65c85.2-23.49 169.41-50.67 251.96-82.28 77.89-29.99 154.46-63.84 227.31-104.68 35.78-20.13 70.62-42.01 103.62-66.46 28.77-21.19 55.32-45.17 81.85-69.05 59.2-53.81 115.25-111.25 165.52-173.54z" fill="#5cb348"/>
  </g>
 </g>
</svg>
