<svg width="600.94pt" height="419.22pt" version="1.1" viewBox="0 0 600.94 419.22" xmlns="http://www.w3.org/2000/svg">
 <g transform="matrix(.13166 0 0 .13166 -4.7225 -4.9326)">
  <path d="m735.6 75.49c91.45-27.52 187.31-40.05 282.74-37.76 15.34 22.77 26.23 48.27 34.47 74.39 9.56 30.72 15.97 62.59 16.83 94.82 0.85 30.32-3.49 60.97-14.23 89.41-10.46 28.13-26.99 53.79-47.2 75.89-36.06 39.36-82.24 67.83-129.97 90.88-79.19 37.8-164.04 61.26-247.74 86.63l-114.49-374.63c68.33-42.78 142.35-76.51 219.59-99.63z" fill="#efaa1e"/>
 </g>
 <path d="m142.79 1.1211c11.397 1.5654 22.563 4.8043 33.023 9.5902 18.255 8.317 34.317 21.358 46.25 37.48 6.7424 9.078 12.176 19.125 16.08 29.738 0.50558 1.4219 1.0414 2.8373 1.4654 4.2842-2.8597 9.6112-7.1729 18.767-12.506 27.25-5.5798 8.8713-12.272 17.005-19.549 24.532-5.1795 5.3665-10.667 10.43-16.329 15.285-4.146 3.5022-8.6528 6.5554-13.307 9.3374-9.1004 5.402-18.76 9.7969-28.591 13.689-15.09 5.9195-30.627 10.663-46.37 14.504l15.572 51.016c-12.162-0.7926-24.203-3.4548-35.548-7.9102-9.764-3.8221-19.014-8.9516-27.433-15.202-16.471-12.19-29.717-28.696-38.012-47.435-5.2836-11.897-8.5724-24.673-9.7074-37.641-1.0138-11.515-0.37523-23.178 1.9354-34.506 2.2764-11.196 6.1933-22.057 11.582-32.132 7.8733-14.749 18.896-27.804 32.112-38.042l17.313 56.638c9.1636-2.7846 18.404-5.3336 27.458-8.4697 7.4336-2.5661 14.766-5.4955 21.692-9.2373 5.2125-2.8307 10.198-6.1459 14.537-10.208 3.6984-3.4614 6.8938-7.5034 9.157-12.047 2.3936-4.7622 3.6984-10.043 3.9525-15.358 0.33178-6.5975-0.83078-13.192-2.757-19.486-0.58063-1.9222-1.2758-3.8076-2.0197-5.6706z" fill="#009edd" stroke-width=".13166"/>
 <g transform="translate(.9389 .00073446)" fill="#009edd" stroke-width=".13166">
  <path d="m469.77 281.13 57.536 1e-3 -7e-3 8.5277-22.933-3e-3 -1e-3 39.003-11.62-1e-3v-39.002l-22.975-4e-3z"/>
  <path d="m535.71 281.14 13.166 3e-3 20.106 34.415 18.97-34.423 12.052 7e-3 -27.551 47.528-7.9879-4e-3z"/>
  <path d="m-5e-8 287.35h34.624c2.3041 9e-3 4.6424-0.0843 6.899 0.46477 1.3601 0.33705 2.7175 0.93611 3.6536 2.0131 1.2034 1.3706 1.6049 3.2481 1.6602 5.0255 0.0026 3.381 0 6.7621 0.0013 10.143-0.04476 1.8432-0.4753 3.7905-1.755 5.1848-1.1942 1.2718-2.9268 1.8459-4.6055 2.125-2.1974 0.3568-4.4317 0.23304-6.6476 0.25673l-23.919-1e-3 -0.01185 16.101-9.8983-3e-3 -0.0013166-41.31m9.9088 7.1427-0.00132 10.927h23.661c1.0256-0.0698 2.1698-0.15799 2.9874-0.85316 0.82288-0.75574 0.87554-1.9604 0.87028-3.0006-0.02107-1.4061 0.03818-2.8123-0.03555-4.2158-0.04345-0.93216-0.45818-1.9288-1.3416-2.3475-1.0994-0.50426-2.3396-0.52533-3.5259-0.50953z"/>
  <path d="m68.921 287.43c2.2159-0.12113 4.437-0.0606 6.6555-0.075l26.858-1e-3c1.8354 0.0224 3.6865 0.0698 5.4889 0.45818 1.177 0.2541 2.3633 0.64777 3.3152 1.4114 1.1968 0.99009 1.7577 2.5226 2.0566 4.0025 0.43053 2.0526 0.31467 4.1592 0.32915 6.242l-1e-3 20.141c-0.0566 1.6774-0.2304 3.385-0.85974 4.9557-0.36734 0.93479-0.95191 1.8077-1.7774 2.3976-1.0414 0.75441-2.3067 1.1152-3.5548 1.3548-1.6063 0.29228-3.2441 0.36865-4.8728 0.34627h-28.83c-2.5002-0.0171-5.0268 0.11717-7.4928-0.38182-1.7182-0.33442-3.5733-0.99404-4.5449-2.5542-1.1849-1.892-1.3772-4.1934-1.4549-6.3698v-20.425c-0.01053-2.3186-0.06056-4.6937 0.65962-6.9267 0.40157-1.2692 1.1454-2.4963 2.3225-3.1783 1.7208-1.0019 3.751-1.256 5.7036-1.3982m1.418 7.531v25.736h33.179v-25.736z"/>
  <path d="m131.03 287.36 36.969-3e-3c2.1632 0.0369 4.408 0.16194 6.3948 1.1086 1.3364 0.60959 2.3962 1.7682 2.9031 3.1467 0.6425 1.6155 0.6267 3.3824 0.60564 5.094 0 2.5884-3e-3 5.1782 1e-3 7.768 9e-3 1.2495-0.12772 2.5174-0.55693 3.6984-0.43843 1.2297-1.2771 2.3251-2.4134 2.9874-2.0052 1.1784-4.3962 1.3614-6.6686 1.4101l-27.292 3e-3v16.094h-9.9417l-1e-3 -41.307m9.9444 7.1413-1e-3 10.928h20.834c1.3522-0.0356 2.7175 0.0961 4.0591-0.12903 0.69781-0.12771 1.443-0.34232 1.9222-0.90056 0.57273-0.66226 0.69517-1.5826 0.66884-2.4265-5e-3 -1.4904 1e-3 -2.9821-3e-3 -4.4725-0.0158-0.9506-0.39367-2.0105-1.2916-2.4594-1.1283-0.54903-2.4212-0.55429-3.6483-0.53981z"/>
  <path d="m194.17 287.35h10.037l1e-3 33.605 28.701 1e-3 1e-3 -33.606 10.169 1e-3 1e-3 32.258c-0.0395 1.3693-0.18038 2.7478-0.56483 4.0683-0.32915 1.0862-0.84526 2.1566-1.6958 2.9308-0.95981 0.85185-2.2027 1.2929-3.4337 1.5812-2.6345 0.60696-5.3533 0.44897-8.034 0.46872h-23.828c-2.3949 0.0224-4.8491-0.0606-7.1308-0.86238-0.99009-0.36207-1.946-0.919-2.5766-1.7814-0.97824-1.3113-1.3456-2.9597-1.5338-4.5542-0.16194-1.2718-0.10533-2.5542-0.11454-3.83z"/>
  <path d="m261.41 287.36 10.141-1e-3v33.602l32.387 3e-3v7.6995h-42.526z"/>
  <path d="m308.96 328.66 24.514-41.307 9.7074 0.0145 24.865 41.293-11.341 3e-3 -5.1927-9.0886-27.259 1e-3 -5.1822 9.0807-10.112 4e-3m28.844-33.755-9.2505 17.136 18.853-1e-3z"/>
  <path d="m378.29 287.36 33.412-1e-3c1.8854 0.0145 3.776-0.05 5.6601 0.0856 2.0092 0.17643 4.1539 0.59643 5.7049 1.9815 1.1454 1.0191 1.7392 2.5174 1.9604 4.0078 0.18959 1.1692 0.12376 2.358 0.13561 3.539v6.7134c-8e-3 1.185 0.05 2.3817-0.16457 3.5562-0.24621 1.4891-0.90715 2.9663-2.1026 3.9327-1.7761 1.4088-4.1289 1.7327-6.3237 1.8512-2.2461 0.0171-4.491-3e-3 -6.7371 9e-3l19.635 15.628-14.468-7e-3 -17.385-15.615-9.3835-8e-3 -1e-3 15.633h-9.9417v-41.307m9.9444 7.14-1e-3 11.422 23.341 3e-3c0.93874-0.0276 1.9117-0.10269 2.7754-0.50557 0.59906-0.27781 1.023-0.8479 1.1994-1.4759 0.22251-0.67937 0.15799-1.4009 0.16721-2.1013 0-1.4035-4e-3 -2.8083 1e-3 -4.2118 0.0342-1.1296-0.50558-2.3989-1.6616-2.7517-1.3469-0.48583-2.7978-0.36338-4.1987-0.37655z"/>
 </g>
 <g transform="matrix(.13166 0 0 .13166 -4.7225 -4.9326)">
  <path d="m1756.7 1021.6c52.4-64.88 98.29-135.28 133.85-210.8 13.84 95.01 12.42 192.2-3.98 286.8-21.5 124.35-69.73 243.95-140.33 348.54-69.59 103.43-160.77 192.24-266.02 259.05-54.49 34.65-112.72 63.43-173.37 85.63-89.71 32.95-184.72 51.11-280.21 54.44l-100.2-327.65c85.2-23.49 169.41-50.67 251.96-82.28 77.89-29.99 154.46-63.84 227.31-104.68 35.78-20.13 70.62-42.01 103.62-66.46 28.77-21.19 55.32-45.17 81.85-69.05 59.2-53.81 115.25-111.25 165.52-173.54z" fill="#5cb348"/>
 </g>
 <g transform="matrix(1.9015 0 0 1.9015 94.59 -594.04)" fill="#efaa1e" stroke-width="1px" aria-label="La Rioja">
  <path d="m-49.746 524.47v-28.633h3.7891v25.254h14.102v3.3789z"/>
  <path d="m-14.238 521.91q-1.9531 1.6602-3.7695 2.3438-1.7969 0.6836-3.8672 0.6836-3.418 0-5.2539-1.6602-1.8359-1.6797-1.8359-4.2773 0-1.5234 0.68359-2.7734 0.70312-1.2695 1.8164-2.0312 1.1328-0.76172 2.5391-1.1523 1.0352-0.27344 3.125-0.52735 4.2578-0.50781 6.2695-1.2109 0.01953-0.72266 0.01953-0.91797 0-2.1484-0.99609-3.0274-1.3477-1.1914-4.0039-1.1914-2.4805 0-3.6719 0.8789-1.1719 0.85938-1.7383 3.0664l-3.4375-0.46875q0.46875-2.207 1.543-3.5547 1.0742-1.3672 3.1055-2.0898 2.0312-0.74219 4.707-0.74219 2.6562 0 4.3164 0.625t2.4414 1.582q0.78125 0.9375 1.0938 2.3828 0.17578 0.89844 0.17578 3.2422v4.6875q0 4.9024 0.21484 6.2109 0.23438 1.2891 0.89844 2.4805h-3.6719q-0.54688-1.0938-0.70312-2.5586zm-0.29297-7.8516q-1.9141 0.78125-5.7422 1.3281-2.168 0.3125-3.0664 0.70312-0.89844 0.39063-1.3867 1.1524-0.48828 0.74218-0.48828 1.6602 0 1.4062 1.0547 2.3438 1.0742 0.9375 3.125 0.9375 2.0312 0 3.6133-0.8789 1.582-0.89844 2.3242-2.4414 0.56641-1.1914 0.56641-3.5156z"/>
  <path d="m29.795 524.47h-4.0951v-6.1762c0-3.0625-1.5932-3.4187-4.8381-5.3863h-10.139v11.562h-3.8672v-29.082h12.834c1.7578 0 3.2227 0.11719 4.3945 0.35156 1.1719 0.22135 2.2266 0.625 3.1641 1.2109 1.0547 0.66406 1.875 1.5039 2.4609 2.5195 0.59896 1.0026 0.89844 2.2786 0.89844 3.8281 0 2.0964-0.52734 3.8542-1.582 5.2734-1.0547 1.4062-2.5065 2.4674-4.3555 3.1836 3.6241 1.6235 5.1246 3.4023 5.1246 6.5386zm-3.2301-20.898c0-0.83333-0.14974-1.569-0.44922-2.207-0.28646-0.65104-0.76823-1.1979-1.4453-1.6406-0.5599-0.3776-1.224-0.63802-1.9922-0.78125-0.76823-0.15625-1.6732-0.23437-2.7148-0.23437h-9.2403v10.977h8.5958c1.224 0 2.2917-0.10417 3.2031-0.3125 0.91146-0.22135 1.6862-0.625 2.3242-1.2109 0.58594-0.54687 1.0156-1.1719 1.2891-1.875 0.28646-0.71614 0.42969-1.6211 0.42969-2.7148z"/>
  <path d="m33.418 499.88v-4.043h3.5156v4.043zm0 24.59v-20.742h3.5156v20.742z"/>
  <path d="m40.996 514.1q0-5.7617 3.2031-8.5352 2.6758-2.3047 6.5234-2.3047 4.2773 0 6.9922 2.8125 2.7148 2.793 2.7148 7.7344 0 4.0039-1.2109 6.3086-1.1914 2.2852-3.4961 3.5547-2.2852 1.2695-5 1.2695-4.3555 0-7.0508-2.793-2.6758-2.793-2.6758-8.0469zm3.6133 0q0 3.9844 1.7383 5.9766 1.7383 1.9726 4.375 1.9726 2.6172 0 4.3555-1.9922t1.7383-6.0742q0-3.8477-1.7578-5.8203-1.7383-1.9922-4.3359-1.9922-2.6367 0-4.375 1.9726-1.7383 1.9727-1.7383 5.957z"/>
  <path d="m64.551 499.92v-4.082h3.5156v4.082zm-4.4531 32.598 0.66406-2.9883q1.0547 0.27344 1.6602 0.27344 1.0742 0 1.6016-0.72266 0.52734-0.70312 0.52734-3.5547v-21.797h3.5156v21.875q0 3.8281-0.99609 5.332-1.2695 1.9531-4.2188 1.9531-1.4258 0-2.7539-0.3711z"/>
  <path d="m87.012 521.91q-1.9531 1.6602-3.7695 2.3438-1.7969 0.6836-3.8672 0.6836-3.418 0-5.2539-1.6602-1.8359-1.6797-1.8359-4.2773 0-1.5234 0.68359-2.7734 0.70312-1.2695 1.8164-2.0312 1.1328-0.76172 2.5391-1.1523 1.0352-0.27344 3.125-0.52735 4.2578-0.50781 6.2695-1.2109 0.01953-0.72266 0.01953-0.91797 0-2.1484-0.99609-3.0274-1.3477-1.1914-4.0039-1.1914-2.4805 0-3.6719 0.8789-1.1719 0.85938-1.7383 3.0664l-3.4375-0.46875q0.46875-2.207 1.543-3.5547 1.0742-1.3672 3.1055-2.0898 2.0312-0.74219 4.707-0.74219 2.6562 0 4.3164 0.625t2.4414 1.582q0.78125 0.9375 1.0938 2.3828 0.17578 0.89844 0.17578 3.2422v4.6875q0 4.9024 0.21484 6.2109 0.23438 1.2891 0.89844 2.4805h-3.6719q-0.54688-1.0938-0.70312-2.5586zm-0.29297-7.8516q-1.9141 0.78125-5.7422 1.3281-2.168 0.3125-3.0664 0.70312-0.89844 0.39063-1.3867 1.1524-0.48828 0.74218-0.48828 1.6602 0 1.4062 1.0547 2.3438 1.0742 0.9375 3.125 0.9375 2.0312 0 3.6133-0.8789 1.582-0.89844 2.3242-2.4414 0.56641-1.1914 0.56641-3.5156z"/>
 </g>
</svg>
