<svg width="800pt" height="188.09pt" version="1.1" viewBox="0 0 800 188.09" xmlns="http://www.w3.org/2000/svg">
 <g transform="matrix(.64596 0 0 .64596 0 14.92)">
  <g transform="matrix(.49157 0 0 .49157 117.16 -23.098)">
   <g transform="matrix(.13166 0 0 .13166 -5.6614 -4.9326)">
    <path d="m735.6 75.49c91.45-27.52 187.31-40.05 282.74-37.76 15.34 22.77 26.23 48.27 34.47 74.39 9.56 30.72 15.97 62.59 16.83 94.82 0.85 30.32-3.49 60.97-14.23 89.41-10.46 28.13-26.99 53.79-47.2 75.89-36.06 39.36-82.24 67.83-129.97 90.88-79.19 37.8-164.04 61.26-247.74 86.63l-114.49-374.63c68.33-42.78 142.35-76.51 219.59-99.63z" fill="#efaa1e"/>
   </g>
   <path d="m141.85 1.1211c11.397 1.5654 22.563 4.8043 33.023 9.5902 18.255 8.317 34.317 21.358 46.25 37.48 6.7424 9.078 12.176 19.125 16.08 29.738 0.50558 1.4219 1.0414 2.8373 1.4654 4.2842-2.8597 9.6112-7.1729 18.767-12.506 27.25-5.5798 8.8713-12.272 17.005-19.549 24.532-5.1795 5.3665-10.667 10.43-16.329 15.285-4.146 3.5022-8.6528 6.5554-13.307 9.3374-9.1004 5.402-18.76 9.7969-28.591 13.689-15.09 5.9195-30.627 10.663-46.37 14.504l15.572 51.016c-12.162-0.7926-24.203-3.4548-35.548-7.9102-9.764-3.8221-19.014-8.9516-27.433-15.202-16.471-12.19-29.717-28.696-38.012-47.435-5.2836-11.897-8.5724-24.673-9.7074-37.641-1.0138-11.515-0.37523-23.178 1.9354-34.506 2.2764-11.196 6.1933-22.057 11.582-32.132 7.8733-14.749 18.896-27.804 32.112-38.042l17.313 56.638c9.1636-2.7846 18.404-5.3336 27.458-8.4697 7.4336-2.5661 14.766-5.4955 21.692-9.2373 5.2125-2.8307 10.198-6.1459 14.537-10.208 3.6984-3.4614 6.8938-7.5034 9.157-12.047 2.3936-4.7622 3.6984-10.043 3.9525-15.358 0.33178-6.5975-0.83078-13.192-2.757-19.486-0.58063-1.9222-1.2758-3.8076-2.0197-5.6706z" fill="#00a0e3" stroke-width=".13166"/>
   <g transform="matrix(.13166 0 0 .13166 -5.6614 -4.9326)">
    <path d="m1756.7 1021.6c52.4-64.88 98.29-135.28 133.85-210.8 13.84 95.01 12.42 192.2-3.98 286.8-21.5 124.35-69.73 243.95-140.33 348.54-69.59 103.43-160.77 192.24-266.02 259.05-54.49 34.65-112.72 63.43-173.37 85.63-89.71 32.95-184.72 51.11-280.21 54.44l-100.2-327.65c85.2-23.49 169.41-50.67 251.96-82.28 77.89-29.99 154.46-63.84 227.31-104.68 35.78-20.13 70.62-42.01 103.62-66.46 28.77-21.19 55.32-45.17 81.85-69.05 59.2-53.81 115.25-111.25 165.52-173.54z" fill="#5cb348"/>
   </g>
  </g>
  <g transform="matrix(2.0614 0 0 2.0614 1.6057 -599.63)" fill="#00a0e3" stroke-width=".13166">
   <path d="m469.77 281.13 57.536 1e-3 -7e-3 8.5277-22.933-3e-3 -1e-3 39.003-11.62-1e-3v-39.002l-22.975-4e-3z"/>
   <path d="m535.71 281.14 13.166 3e-3 20.106 34.415 18.97-34.423 12.052 7e-3 -27.551 47.528-7.9879-4e-3z"/>
  </g>
  <g fill="#00a0e3" stroke-width=".27085">
   <path d="m9.28e-4 -7.0994h71.228c4.7399 0.0185 9.5502-0.17342 14.192 0.95612 2.798 0.69337 5.5904 1.9257 7.5161 4.1413 2.4756 2.8196 3.3016 6.6819 3.4153 10.338 0.0053 6.9553 0 13.911 0.0027 20.866-0.09208 3.7918-0.97778 7.7977-3.6103 10.666-2.4567 2.6163-6.0209 3.7973-9.4743 4.3715-4.5204 0.734-9.1168 0.4794-13.675 0.52813l-49.206-2e-3 -0.02438 33.123-20.363-6e-3 -0.0027-84.982m20.384 14.694-0.0027 22.479h48.675c2.1098-0.14359 4.4637-0.32501 6.1456-1.7551 1.6928-1.5547 1.8011-4.0329 1.7903-6.1728-0.04334-2.8926 0.07854-5.7854-0.07313-8.6726-0.08938-1.9176-0.94256-3.9679-2.7599-4.8292-2.2617-1.0374-4.813-1.0807-7.2534-1.0482z"/>
   <path d="m269.55-7.0788 76.052-6e-3c4.4501 0.0759 9.068 0.33314 13.155 2.2806 2.7492 1.254 4.9294 3.6375 5.9722 6.4733 1.3217 3.3234 1.2892 6.9582 1.2459 10.479 0 5.3248-6e-3 10.652 2e-3 15.98 0.0185 2.5704-0.26274 5.1787-1.1457 7.6083-0.90193 2.5297-2.6272 4.7831-4.9648 6.1456-4.125 2.4242-9.0438 2.8006-13.718 2.9008l-56.144 6e-3v33.108h-20.452l-2e-3 -84.976m20.457 14.691-2e-3 22.481h42.859c2.7817-0.0732 5.5904 0.19769 8.3503-0.26544 1.4355-0.26272 2.9685-0.70421 3.9543-1.8526 1.1782-1.3624 1.4301-3.2557 1.3759-4.9917-0.0103-3.066 2e-3 -6.1347-6e-3 -9.2007-0.0325-1.9556-0.80984-4.1359-2.657-5.0594-2.3211-1.1294-4.9808-1.1403-7.5052-1.1105z"/>
   <path d="m399.44-7.0994h20.648l2e-3 69.131 59.043 2e-3 2e-3 -69.133 20.919 2e-3 2e-3 66.36c-0.0813 2.8169-0.37107 5.6527-1.162 8.3692-0.67712 2.2345-1.7388 4.4365-3.4886 6.0292-1.9745 1.7524-4.5313 2.6597-7.0637 3.2528-5.4196 1.2486-11.013 0.92361-16.527 0.96424h-49.018c-4.9267 0.0461-9.9754-0.12466-14.669-1.7741-2.0368-0.74484-4.0033-1.8906-5.3005-3.6646-2.0124-2.6976-2.7681-6.0886-3.1553-9.3688-0.33314-2.6163-0.21669-5.2544-0.23563-7.879z"/>
   <path d="m537.77-7.0788 20.862-2e-3v69.125l66.626 6e-3v15.839h-87.483z"/>
   <path d="m635.59 77.883 50.43-84.976 19.97 0.0298 51.152 84.947-23.33 6e-3 -10.682-18.697-56.077 2e-3 -10.661 18.681-20.802 8e-3m59.337-69.44-19.03 35.252 38.784-2e-3z"/>
   <path d="m778.21-7.0788 68.734-2e-3c3.8786 0.0298 7.7679-0.10286 11.644 0.17609 4.1333 0.36295 8.5453 1.227 11.736 4.0763 2.3563 2.0965 3.5778 5.1787 4.0329 8.2448 0.39002 2.4052 0.2546 4.8508 0.27898 7.2803v13.811c-0.0165 2.4378 0.10286 4.8996-0.33855 7.3157-0.5065 3.0633-1.8662 6.1022-4.3254 8.0902-3.6537 2.8982-8.4939 3.5645-13.009 3.8082-4.6206 0.0352-9.2388-6e-3 -13.859 0.0185l40.393 32.15-29.763-0.0144-35.764-32.123-19.303-0.0165-2e-3 32.16h-20.452v-84.976m20.457 14.688-2e-3 23.497 48.017 6e-3c1.9312-0.0568 3.9327-0.21125 5.7095-1.04 1.2324-0.57151 2.1045-1.7443 2.4674-3.0362 0.45774-1.3976 0.32501-2.8819 0.34398-4.3227 0-2.8872-8e-3 -5.7772 2e-3 -8.6644 0.0703-2.3238-1.0401-4.935-3.4182-5.6607-2.7708-0.99944-5.7556-0.74754-8.6375-0.77463z"/>
  </g>
 </g>
 <g transform="matrix(1.3524 0 0 1.3524 112.37 -304.36)" fill="#00a0e3">
  <path d="m0 317.79h8.8202l21.03 26.78 21.87-26.78h9.265v46.305h-10.575v-29.54l-18.59 23.52h-3.94l-17.825-23.52v29.54h-10.056z"/>
  <path d="m83.36 317.86 48.52-0.04-0.01 9.0002h-36.895v9.0198h20.975l-0.01 8.335h-20.965v10.105h36.875l0.02 9.84-48.39-0.02z"/>
  <path d="m151.23 317.98 11.68-0.1-0.03 36.24 34.41-0.01v10l-46.06-0.01z"/>
  <path d="m213.07 317.82 10.91-0.01 0.05 46.31-10.91-0.03z"/>
  <path d="m387.74 317.82h11.109l26.5 46.285h-12.71l-5.52-9.895h-28.05l-5.84 9.895h-12.27l26.781-46.285m-3.8714 27.22h18.2l-9.1-16.19z"/>
  <path d="m247.85 317.98 11.68-0.1-0.03 36.24 34.41-0.01v10l-46.06-0.01z"/>
  <path d="m309.37 317.98 11.68-0.1-0.03 36.24 34.41-0.01v10l-46.06-0.01z"/>
 </g>
</svg>
