<svg width="600pt" height="372.06pt" version="1.1" viewBox="0 0 600 372.06" xmlns="http://www.w3.org/2000/svg">
 <g transform="matrix(.13166 0 0 .13166 -5.6614 -4.9326)">
  <path d="m735.6 75.49c91.45-27.52 187.31-40.05 282.74-37.76 15.34 22.77 26.23 48.27 34.47 74.39 9.56 30.72 15.97 62.59 16.83 94.82 0.85 30.32-3.49 60.97-14.23 89.41-10.46 28.13-26.99 53.79-47.2 75.89-36.06 39.36-82.24 67.83-129.97 90.88-79.19 37.8-164.04 61.26-247.74 86.63l-114.49-374.63c68.33-42.78 142.35-76.51 219.59-99.63z" fill="#efaa1e"/>
 </g>
 <path d="m141.85 1.1211c11.397 1.5654 22.563 4.8043 33.023 9.5902 18.255 8.317 34.317 21.358 46.25 37.48 6.7424 9.078 12.176 19.125 16.08 29.738 0.50558 1.4219 1.0414 2.8373 1.4654 4.2842-2.8597 9.6112-7.1729 18.767-12.506 27.25-5.5798 8.8713-12.272 17.005-19.549 24.532-5.1795 5.3665-10.667 10.43-16.329 15.285-4.146 3.5022-8.6528 6.5554-13.307 9.3374-9.1004 5.402-18.76 9.7969-28.591 13.689-15.09 5.9195-30.627 10.663-46.37 14.504l15.572 51.016c-12.162-0.7926-24.203-3.4548-35.548-7.9102-9.764-3.8221-19.014-8.9516-27.433-15.202-16.471-12.19-29.717-28.696-38.012-47.435-5.2836-11.897-8.5724-24.673-9.7074-37.641-1.0138-11.515-0.37523-23.178 1.9354-34.506 2.2764-11.196 6.1933-22.057 11.582-32.132 7.8733-14.749 18.896-27.804 32.112-38.042l17.313 56.638c9.1636-2.7846 18.404-5.3336 27.458-8.4697 7.4336-2.5661 14.766-5.4955 21.692-9.2373 5.2125-2.8307 10.198-6.1459 14.537-10.208 3.6984-3.4614 6.8938-7.5034 9.157-12.047 2.3936-4.7622 3.6984-10.043 3.9525-15.358 0.33178-6.5975-0.83078-13.192-2.757-19.486-0.58063-1.9222-1.2758-3.8076-2.0197-5.6706z" fill="#00a0e3" stroke-width=".13166"/>
 <g transform="translate(1.755e-5)" fill="#00a0e3" stroke-width=".13166">
  <path d="m469.77 281.13 57.536 1e-3 -7e-3 8.5277-22.933-3e-3 -1e-3 39.003-11.62-1e-3v-39.002l-22.975-4e-3z"/>
  <path d="m535.71 281.14 13.166 3e-3 20.106 34.415 18.97-34.423 12.052 7e-3 -27.551 47.528-7.9879-4e-3z"/>
  <path d="m-5e-8 287.35h34.624c2.3041 9e-3 4.6424-0.0843 6.899 0.46477 1.3601 0.33705 2.7175 0.93611 3.6536 2.0131 1.2034 1.3706 1.6049 3.2481 1.6602 5.0255 0.0026 3.381 0 6.7621 0.0013 10.143-0.04476 1.8432-0.4753 3.7905-1.755 5.1848-1.1942 1.2718-2.9268 1.8459-4.6055 2.125-2.1974 0.3568-4.4317 0.23304-6.6476 0.25673l-23.919-1e-3 -0.01185 16.101-9.8983-3e-3 -0.0013166-41.31m9.9088 7.1427-0.00132 10.927h23.661c1.0256-0.0698 2.1698-0.15799 2.9874-0.85316 0.82288-0.75574 0.87554-1.9604 0.87028-3.0006-0.02107-1.4061 0.03818-2.8123-0.03555-4.2158-0.04345-0.93216-0.45818-1.9288-1.3416-2.3475-1.0994-0.50426-2.3396-0.52533-3.5259-0.50953z"/>
  <path d="m68.921 287.43c2.2159-0.12113 4.437-0.0606 6.6555-0.075l26.858-1e-3c1.8354 0.0224 3.6865 0.0698 5.4889 0.45818 1.177 0.2541 2.3633 0.64777 3.3152 1.4114 1.1968 0.99009 1.7577 2.5226 2.0566 4.0025 0.43053 2.0526 0.31467 4.1592 0.32915 6.242l-1e-3 20.141c-0.0566 1.6774-0.2304 3.385-0.85974 4.9557-0.36734 0.93479-0.95191 1.8077-1.7774 2.3976-1.0414 0.75441-2.3067 1.1152-3.5548 1.3548-1.6063 0.29228-3.2441 0.36865-4.8728 0.34627h-28.83c-2.5002-0.0171-5.0268 0.11717-7.4928-0.38182-1.7182-0.33442-3.5733-0.99404-4.5449-2.5542-1.1849-1.892-1.3772-4.1934-1.4549-6.3698v-20.425c-0.01053-2.3186-0.06056-4.6937 0.65962-6.9267 0.40157-1.2692 1.1454-2.4963 2.3225-3.1783 1.7208-1.0019 3.751-1.256 5.7036-1.3982m1.418 7.531v25.736h33.179v-25.736z"/>
  <path d="m131.03 287.36 36.969-3e-3c2.1632 0.0369 4.408 0.16194 6.3948 1.1086 1.3364 0.60959 2.3962 1.7682 2.9031 3.1467 0.6425 1.6155 0.6267 3.3824 0.60564 5.094 0 2.5884-3e-3 5.1782 1e-3 7.768 9e-3 1.2495-0.12772 2.5174-0.55693 3.6984-0.43843 1.2297-1.2771 2.3251-2.4134 2.9874-2.0052 1.1784-4.3962 1.3614-6.6686 1.4101l-27.292 3e-3v16.094h-9.9417l-1e-3 -41.307m9.9444 7.1413-1e-3 10.928h20.834c1.3522-0.0356 2.7175 0.0961 4.0591-0.12903 0.69781-0.12771 1.443-0.34232 1.9222-0.90056 0.57273-0.66226 0.69517-1.5826 0.66884-2.4265-5e-3 -1.4904 1e-3 -2.9821-3e-3 -4.4725-0.0158-0.9506-0.39367-2.0105-1.2916-2.4594-1.1283-0.54903-2.4212-0.55429-3.6483-0.53981z"/>
  <path d="m194.17 287.35h10.037l1e-3 33.605 28.701 1e-3 1e-3 -33.606 10.169 1e-3 1e-3 32.258c-0.0395 1.3693-0.18038 2.7478-0.56483 4.0683-0.32915 1.0862-0.84526 2.1566-1.6958 2.9308-0.95981 0.85185-2.2027 1.2929-3.4337 1.5812-2.6345 0.60696-5.3533 0.44897-8.034 0.46872h-23.828c-2.3949 0.0224-4.8491-0.0606-7.1308-0.86238-0.99009-0.36207-1.946-0.919-2.5766-1.7814-0.97824-1.3113-1.3456-2.9597-1.5338-4.5542-0.16194-1.2718-0.10533-2.5542-0.11454-3.83z"/>
  <path d="m261.41 287.36 10.141-1e-3v33.602l32.387 3e-3v7.6995h-42.526z"/>
  <path d="m308.96 328.66 24.514-41.307 9.7074 0.0145 24.865 41.293-11.341 3e-3 -5.1927-9.0886-27.259 1e-3 -5.1822 9.0807-10.112 4e-3m28.844-33.755-9.2505 17.136 18.853-1e-3z"/>
  <path d="m378.29 287.36 33.412-1e-3c1.8854 0.0145 3.776-0.05 5.6601 0.0856 2.0092 0.17643 4.1539 0.59643 5.7049 1.9815 1.1454 1.0191 1.7392 2.5174 1.9604 4.0078 0.18959 1.1692 0.12376 2.358 0.13561 3.539v6.7134c-8e-3 1.185 0.05 2.3817-0.16457 3.5562-0.24621 1.4891-0.90715 2.9663-2.1026 3.9327-1.7761 1.4088-4.1289 1.7327-6.3237 1.8512-2.2461 0.0171-4.491-3e-3 -6.7371 9e-3l19.635 15.628-14.468-7e-3 -17.385-15.615-9.3835-8e-3 -1e-3 15.633h-9.9417v-41.307m9.9444 7.14-1e-3 11.422 23.341 3e-3c0.93874-0.0276 1.9117-0.10269 2.7754-0.50557 0.59906-0.27781 1.023-0.8479 1.1994-1.4759 0.22251-0.67937 0.15799-1.4009 0.16721-2.1013 0-1.4035-4e-3 -2.8083 1e-3 -4.2118 0.0342-1.1296-0.50558-2.3989-1.6616-2.7517-1.3469-0.48583-2.7978-0.36338-4.1987-0.37655z"/>
 </g>
 <g transform="matrix(.13166 0 0 .13166 -5.6614 -4.9326)">
  <path d="m1756.7 1021.6c52.4-64.88 98.29-135.28 133.85-210.8 13.84 95.01 12.42 192.2-3.98 286.8-21.5 124.35-69.73 243.95-140.33 348.54-69.59 103.43-160.77 192.24-266.02 259.05-54.49 34.65-112.72 63.43-173.37 85.63-89.71 32.95-184.72 51.11-280.21 54.44l-100.2-327.65c85.2-23.49 169.41-50.67 251.96-82.28 77.89-29.99 154.46-63.84 227.31-104.68 35.78-20.13 70.62-42.01 103.62-66.46 28.77-21.19 55.32-45.17 81.85-69.05 59.2-53.81 115.25-111.25 165.52-173.54z" fill="#5cb348"/>
 </g>
 <g transform="matrix(.5254 0 0 .5254 130.92 336.84)" fill="#00a0e3">
  <path d="m265.62 12.305h7.94l-10.49 12.23h-4.7z"/>
  <path d="m546.62 29.175h6.9602l17.783 22.775 17.656-22.775h7.47v37.66h-8.03v-27.005l-17.096 23.09-17.096-23.09 0.01 27.005h-7.7073z"/>
  <path d="m839.78 28.75h8.33l21.79 38.12h-9.87l-4.05-8.195h-24.91l-4.43 8.195h-8.52l21.66-38.12m-4.75 22.87h16.79l-8.01-15.6z"/>
  <path d="m32.449 28.69 30.92-9.3e-4c1.7448 0.0134 3.4944-0.0463 5.238 0.0792 1.8593 0.16327 3.8441 0.55194 5.2794 1.8337 1.06 0.94305 1.6095 2.3296 1.8142 3.7088 0.17545 1.082 0.11452 2.1822 0.12549 3.2751v6.2127c-7e-3 1.0966 0.0463 2.2041-0.15229 3.2909-0.22784 1.378-0.8395 2.7451-1.9458 3.6394-1.6436 1.3037-3.821 1.6034-5.852 1.7131-2.0786 0.0158-4.156-3e-3 -6.2346 8e-3l18.17 14.463-13.389-6e-3 -16.088-14.45-8.6836-7e-3 -6.9e-4 14.467h-9.2004v-38.226m9.2026 6.6074-6.9e-4 10.57 21.6 3e-3c0.86873-0.0255 1.7691-0.095 2.5684-0.46786 0.55438-0.25709 0.9467-0.78466 1.11-1.3658 0.20591-0.6287 0.14621-1.2964 0.15474-1.9446 0-1.2988-4e-3 -2.5989 6.9e-4 -3.8977 0.0317-1.0454-0.46787-2.2199-1.5376-2.5465-1.2464-0.44959-2.5891-0.33627-3.8855-0.34846z" stroke-width=".12184"/>
  <path d="m93.207 28.787h38.44v6.575h-29.91v8.495l17.73 0.02v6.585h-17.73v9.425h30.69v7.04h-39.22z"/>
  <path transform="scale(.75)" d="m211.36 38.268c-1.2529 0.0022-2.5068 0.02099-3.7578 0.0957-2.2048 0.17542-4.4964 0.48858-6.4395 1.7246-1.3291 0.84134-2.1696 2.3561-2.623 3.9219-0.81311 2.7547-0.75614 5.6847-0.74414 8.5449v25.195c0.0877 2.6848 0.30456 5.5254 1.6426 7.8594 1.0972 1.9247 3.1927 2.7378 5.1328 3.1504 2.7845 0.61556 5.6358 0.44964 8.459 0.4707h32.555c1.839 0.0276 3.6882-0.06717 5.502-0.42774 1.4094-0.29562 2.8397-0.73926 4.0156-1.6699 0.93216-0.72765 1.5911-1.8058 2.0059-2.959 0.71064-1.9377 0.9067-4.044 0.9707-6.1133l2e-3 -18.04h-30.483v8.366h19.071v11.016h-37.465v-31.748h37.465v5.306l11.412-1.934c-0.0163-2.5695 0.1131-2.9805-0.37305-5.5127-0.33746-1.8256-0.97086-3.7161-2.3223-4.9375-1.0749-0.94205-2.4131-1.4287-3.7422-1.7422-2.0353-0.47909-4.1268-0.53685-6.1992-0.56445l-30.326 2e-3c-1.2525 0.0089-2.5049-0.0061-3.7578-0.0039z" stroke-width=".15539"/>
  <path d="m212.8 28.793h8.29v37.96h-8.29z"/>
  <path d="m247.01 28.77c2.0503-0.11208 4.1054-0.0561 6.1582-0.0694l24.851-9.2e-4c1.6982 0.0207 3.411 0.0646 5.0788 0.42394 1.0891 0.23512 2.1867 0.59937 3.0675 1.306 1.1074 0.91611 1.6264 2.3341 1.9029 3.7034 0.39836 1.8992 0.29116 3.8484 0.30456 5.7757l-9.1e-4 18.637c-0.0524 1.552-0.21318 3.1321-0.7955 4.5854-0.33989 0.86494-0.88079 1.6726-1.6446 2.2184-0.96361 0.69804-2.1344 1.0318-3.2892 1.2536-1.4862 0.27044-3.0017 0.3411-4.5087 0.3204h-26.676c-2.3134-0.0158-4.6512 0.10841-6.933-0.35329-1.5898-0.30944-3.3063-0.91977-4.2054-2.3634-1.0964-1.7506-1.2743-3.8801-1.3462-5.8938v-18.898c-0.01-2.1453-0.056-4.343 0.61034-6.4092 0.37156-1.1744 1.0599-2.3098 2.149-2.9408 1.5922-0.92708 3.4708-1.1622 5.2774-1.2938m1.312 6.9683v23.813h30.7v-23.813z" stroke-width=".12182"/>
  <path d="m305.77 28.7h7.7302l29.635 26.47v-26.47h7.505v38.125h-7.34l-29.705-26.215v26.215h-7.8252z"/>
  <path d="m399.31 66.89v-38.18h25.68c6.69 0.19 14.18 2.4298 17.84 8.4998 3.7511 6.3202 3.6151 15.03-0.24843 21.282-4.0461 6.4046-11.827 8.3974-16.545 8.3974h-26.727m8.55-31.355v24.09h17.14c3.3204 0 7.02-1.365 9.2-4.145 2.86-4.14 3-9.85 0.91-14.35-1.73-3.85-6.2262-5.595-10.16-5.595z"/>
  <path d="m462.21 28.7h38.44v6.575h-29.91v8.495l17.73 0.02v6.585h-17.73v9.425h30.69v7.04h-39.22z"/>
  <path d="m614.24 28.689h9.304l7e-4 31.153 26.606 9e-4 7e-4 -31.154 9.4273 9.3e-4 7e-4 29.904c-0.0366 1.2694-0.16723 2.5472-0.52362 3.7714-0.30513 1.0069-0.78356 1.9992-1.572 2.7169-0.88977 0.78968-2.0419 1.1986-3.1831 1.4658-2.4422 0.56266-4.9626 0.4162-7.4476 0.43451h-22.089c-2.2201 0.0208-4.4952-0.0562-6.6103-0.79944-0.91784-0.33565-1.8039-0.85193-2.3886-1.6514-0.90685-1.2156-1.2474-2.7437-1.4219-4.2218-0.15012-1.179-0.0976-2.3678-0.10618-3.5505z" stroke-width=".12205"/>
  <path d="m677.01 28.681 30.92-9.3e-4c1.7448 0.0134 3.4944-0.0463 5.238 0.0792 1.8593 0.16327 3.8441 0.55194 5.2794 1.8337 1.06 0.94305 1.6095 2.3296 1.8142 3.7088 0.17545 1.082 0.11452 2.1822 0.12549 3.2751v6.2127c-7e-3 1.0966 0.0463 2.2041-0.15229 3.2909-0.22784 1.378-0.8395 2.7451-1.9458 3.6394-1.6436 1.3037-3.821 1.6034-5.852 1.7131-2.0786 0.0158-4.156-3e-3 -6.2346 8e-3l18.17 14.463-13.389-6e-3 -16.088-14.45-8.6836-7e-3 -6.9e-4 14.467h-9.2004v-38.226m9.2026 6.6074-6.9e-4 10.57 21.6 3e-3c0.86873-0.0255 1.7691-0.095 2.5684-0.46786 0.55438-0.25709 0.9467-0.78466 1.11-1.3658 0.20591-0.6287 0.14621-1.2964 0.15474-1.9446 0-1.2988-4e-3 -2.5989 6.9e-4 -3.8977 0.0317-1.0454-0.46787-2.2199-1.5376-2.5465-1.2464-0.44959-2.5891-0.33627-3.8855-0.34846z" stroke-width=".12184"/>
  <path d="m746.04 28.758c-0.86869 0.0016-1.738 0.01576-2.6054 0.07186-1.5286 0.1317-3.1175 0.36682-4.4648 1.2948-0.92151 0.63168-1.5043 1.769-1.8187 2.9446-0.56375 2.0682-0.52426 4.2681-0.51594 6.4155v18.917c0.0609 2.0158 0.21117 4.1485 1.1389 5.9008 0.76074 1.4451 2.2136 2.0556 3.5588 2.3653 1.9306 0.46217 3.9075 0.33759 5.865 0.3534h22.572c1.2751 0.02072 2.5572-0.05043 3.8147-0.32114 0.97718-0.22195 1.9689-0.55504 2.7842-1.2538 0.6463-0.54632 1.1031-1.3558 1.3907-2.2216 0.49272-1.4548 0.62865-3.0363 0.67303-4.5899l9.2e-4 -5.114-8.894-1.41v7.5314h-24.16v-23.836h24.16v6.9451l8.894-1.4205c-0.0113-1.9292 0.0784-5.2306-0.25865-7.1318-0.23397-1.3707-0.67314-2.79-1.6101-3.7071-0.74526-0.70729-1.6731-1.0727-2.5946-1.308-1.4112-0.3597-2.8613-0.40307-4.2982-0.42379l-21.026 0.0015c-0.86843 0.0067-1.7368-0.0046-2.6054-0.0029z" stroke-width=".11212"/>
  <path d="m797.28 28.72h8.29v37.96h-8.29z"/>
 </g>
</svg>
