<svg id="a" version="1.1" viewBox="0 0 1163.7 851.03" xmlns="http://www.w3.org/2000/svg">
 <g id="b" transform="translate(-4.517,-4.974)" fill="#fff">
  <path id="c" d="m106.8 705.12h0.552l22.445 71.04h-46.03l23.03-71.04zm-102.29 146.63h54.25l12.831-36.38h70.71l12.506 36.38h55.12l-75.879-202.89h-53.693l-75.846 202.89z"/>
  <path id="d" d="m369.85 704.28h-48.3v78.997c0 26.15-15.916 32.97-26.441 32.97-15.299 0-23.875-6.821-23.875-26.441v-85.53h-48.27v88.64c0 38.654 12.213 63.08 54.54 63.08 17.05 0 35.828-9.387 44.891-24.427h0.584v20.17h46.872v-147.47z"/>
  <path id="e" d="m393.69 803.15c1.429 41.19 37.22 52.849 72.18 52.849 33.23 0 70.75-13.09 70.75-52.56 0-12.246-7.666-33.814-37.517-39.791-22.15-4.84-54.54-7.373-54.54-21.308 0-10.232 12.766-11.08 20.724-11.08 5.977 0 11.369 1.137 15.332 3.67 3.995 2.566 6.269 6.561 6.269 12.798h44.598c-1.689-38.33-35.503-47.749-67.888-47.749-28.974 0-67.34 9.68-67.34 45.22 0 39.758 38.07 40.603 68.47 48.27 8.543 1.981 23.582 4.255 23.582 15.657 0 11.629-13.35 15.624-22.738 15.624-6.821 0-13.35-1.722-17.898-5.132-4.84-3.67-7.926-9.1-7.926-16.469h-46.06z"/>
  <path id="f" d="m649.03 704.28h-29.819v-44.631h-48.33v44.631h-24.427v31.25h24.427v65.65c0 40.05 10.557 52 51.744 52 8.803 0 17.605-1.169 26.408-1.429v-35.503c-4.255 0-8.543 0.552-12.506 0.552-10.524 0-17.313-2.566-17.313-14.227v-67.04h29.819v-31.25z"/>
  <path id="g" d="m672.26 851.75h48.3v-73.02c0-18.482 12.506-34.983 36.38-34.983 6.529 0 12.213 1.169 18.45 2.858v-44.05c-3.703-0.844-7.666-1.137-11.369-1.137-20.724 0-37.22 9.94-44.34 28.714h-0.552v-25.856h-46.872v147.47z"/>
  <path id="h" d="m793.25 851.75h48.27v-147.44h-48.27zm48.27-202.89h-48.27v36.932h48.27z"/>
  <path id="i" d="m915.97 809.42c0-11.694 9.06-16.241 19.879-18.775 10.492-2.826 23.03-3.671 29.851-7.926 1.104 30.371-6.561 43.43-29.591 43.43-10.784 0-20.14-4.807-20.14-16.728m2.826-59.67c2.274-12.538 10.784-18.482 24.13-18.482 9.972 0 23.322 4.255 23.322 15.332 0 9.127-4.548 11.954-12.798 13.643-33.522 6.854-85.82 3.118-85.82 51.16 0 30.371 22.19 44.598 50.32 44.598 17.606 0 36.06-5.132 48.594-18.19 0.552 4.84 1.137 9.387 2.826 13.935h48.594c-5.684-11.661-5.684-25.27-5.684-37.777v-64.51c0-41.772-33.814-49.47-68.765-49.47-16.761 0-33.814 2.858-46.905 10.264-13.03 7.666-22.12 20.17-22.997 39.499h45.18z"/>
 </g>
 <g id="j" transform="matrix(.92441 0 0 .92441 217.11 0)" fill="#ef001e">
  <path id="k" d="m867.19 0v36.531h59.824c12.813 0 28.659 1.195 38.899 9.796 11.838 9.945 19.1 26.893 18.92 42.35-0.184 15.632-8.08 32.398-20.13 42.36-10.01 8.27-24.875 9.794-37.688 9.794h-23.06v-67.77h-36.766v104.04h59.824c17.08 0 37.678-2.436 58.48-15.353 20.8-12.918 38.509-38.03 38.509-73.06 0-35.04-17.705-60.15-38.509-73.06-20.802-12.914-41.41-15.617-58.48-15.617h-59.824z"/>
  <path id="l" d="m681.56 0v177.1h36.768v-70.01h70.59v70.01h36.768v-177.1h-36.768v70.32h-70.59v-70.32z"/>
  <path id="m" d="m639.03 210.05v428.98h-639.03s78.4-208.57 284.02-331.35c195.26-118.34 355.02-97.63 355.02-97.63z"/>
  <polygon id="n" points="0 0 639.03 0 639.03 177.1 0 177.1"/>
 </g>
</svg>
