<svg width="846.97" height="111.16" version="1.1" viewBox="0 0 846.97 111.16" xml:space="preserve" xmlns="http://www.w3.org/2000/svg">
<g transform="matrix(2.6093 0 0 2.6093 -669.8 -676.58)">
	<path d="m344.4 270.8h-2.8c-1.1-5.5-5.2-9-12.7-9-6.8 0-11.3 3.4-11.3 8.7 0 4 3.3 6.7 9.2 7.7l6.8 1.3c6.9 1.3 10.9 4.8 10.9 10.3 0 7.3-6 12.1-14.9 12.1-9.7 0-15.6-4.9-16.7-13.8h2.8c1.1 7.2 5.8 11.3 14 11.3 7.3 0 12-3.7 12-9.3 0-4-2.9-7-8.6-8l-7.3-1.4c-7.3-1.3-11.1-5-11.1-10.2 0-6.7 5.6-11.2 14.1-11.2 8.8 0.1 14.6 4.3 15.6 11.5z"/>
	<path d="m387.8 287.5h2.9c-2 8.5-9.4 14.4-19.1 14.4-11.8 0-21.2-9.4-21.2-21.2 0-11.9 9.5-21.2 21.2-21.2 9.8 0 17.2 5.9 19.1 14.4h-2.9c-1.8-7-7.9-11.7-16.2-11.7-10.3 0-18.4 8.2-18.4 18.5 0 10.4 8.1 18.5 18.4 18.5 8.2 0 14.4-4.7 16.2-11.7z"/>
	<path d="m431.6 301.1h-2.8v-19h-26.9v19h-2.9v-40.8h2.8v19.2h26.9v-19.2h2.8v40.8z"/>
	<path d="m482.7 301.4h-2.7l-12.2-36.3-12.2 36.3h-2.7l-14.2-41.1h2.9l12.6 37 12.3-37h2.5l12.3 36.9 12.6-36.9h2.9z"/>
	<path d="m506.9 279.5h22.6v2.5h-22.6v16.5h25v2.6h-27.8v-40.8h27.8v2.6h-25z"/>
	<path d="m542.6 301.1h-2.8v-40.8h2.8z"/>
	<path d="m581.2 301.1h-30.9v-1.6l26.9-36.7h-26.2v-2.5h30.1v1.6l-26.6 36.7h26.8v2.5z"/>
</g>
<g transform="matrix(2.6093 0 0 2.6093 -669.8 -676.58)" fill="#ed174c">
	<rect x="256.7" y="260.3" width="40" height="11.2"/>
	<path d="m296.7 273.6v27.4h-40s4.9-13.3 17.8-21.2c12.2-7.4 22.2-6.2 22.2-6.2z"/>
</g>
</svg>
