<svg width="1991" height="800" version="1.1" viewBox="0 0 1991 800" xml:space="preserve" xmlns="http://www.w3.org/2000/svg">
<g transform="matrix(17.937 0 0 17.937 -6606.3 -4740.8)" fill="#ed174c">
	<rect x="368.3" y="264.3" width="43.7" height="12.3"/>
	<path d="m412 278.9v30h-43.7s5.4-14.5 19.5-23.1c13.3-8.3 24.2-6.9 24.2-6.9z"/>
</g>
<g transform="matrix(17.937 0 0 17.937 -6606.3 -4740.8)" fill="#ed174c">
	<path d="m424.6 275.2h6.2v8.5h12.8v-8.5h6.2v22.7h-6.2v-9.9h-12.8v9.8h-6.2z"/>
	<path d="m467.8 275.2h-13.8v4.3h12.1c6.3 0 6.8 1 6.8 6.8 0 6.4-0.3 7.2-5.9 7.2h-6.9v-10.1h-6.1v14.4h14.7c8.7 0 10.6-2.9 10.6-11.3s-2.1-11.3-11.5-11.3z"/>
</g>
</svg>
