<svg enable-background="new 0 0 1741.7 461.9" version="1.1" viewBox="0 0 1741.7 461.9" xml:space="preserve" xmlns="http://www.w3.org/2000/svg">
<rect width="327.7" height="93.6" fill="#403f3e"/>
<path d="M327.7,112.4c0,0-95.2-5.9-196.6,56.2C27.8,231.7,2.7,320.7,0,327.7h327.7V112.4z" fill="#403f3e"/>
<polygon points="355.8 54.6 355.8 327.7 543.1 327.7" fill="#403f3e"/>
<polygon points="515 0 355.8 0 355.8 41 552.5 327.7 552.5 327.7 739.8 327.7" fill="#403f3e"/>
<polygon points="983.2 0 796 0 1020.6 327.5 1020.7 327.7 1020.7 327.7 1208 327.7 1208 327.7" fill="#403f3e"/>
<polygon points="1236.1 0 1048.8 0 1273.5 327.7 1273.5 327.7 1460.8 327.7" fill="#403f3e"/>
<polygon points="627.4 0 575.9 75.1 749.1 327.7 767.9 327.7 767.9 0" fill="#403f3e"/>
<polygon points="1442.1 191.2 1409.3 239 1470.2 327.7 1535.7 327.7" fill="#403f3e"/>
<polyline points="1507.6 0 1414 136.6 1545.1 327.7 1545.1 327.7 1732.4 327.7 1507.6 0" fill="#403f3e"/>
<polygon points="1470.3 0 1301.6 0 1273.5 41 1357.8 164" fill="#403f3e"/>
<polygon points="1741.7 0 1741.7 0 1573.2 0 1545.1 41 1629.2 164" fill="#403f3e"/>
<polygon points="1170.5 191.2 1147.1 225.3 1217.3 327.7 1217.3 327.7 1264.2 327.7" fill="#403f3e"/>
<polygon points="908.3 327.7 908.3 327.7 959.9 252.6 796 13.6 796 327.7" fill="#403f3e"/>
<g fill="#403f3e">
	<path d="m798.6 446.4 14.4-17c9.3 7.2 19.5 11.1 30.3 11.1 7.1 0 10.8-2.4 10.8-6.3v-0.3c0-4-3.1-5.9-15.9-9-19.9-4.5-35.2-10-35.2-28.9v-0.3c0-17.1 13.7-29.5 36.1-29.5 15.9 0 28.3 4.2 38.4 12.3l-12.9 18c-8.5-6.1-17.9-9.1-26.1-9.1-6.3 0-9.3 2.5-9.3 5.9v0.3c0 4.2 3.2 6.1 16.3 9 21.3 4.6 34.7 11.5 34.7 28.7v0.3c0 18.8-15.1 30-37.7 30-16.7 0.1-32.3-5.1-43.9-15.2z"/>
	<path d="m935.9 414.2v-0.2c0-26.9 20.8-48 49-48 19.1 0 31.3 7.9 39.6 19.1l-19.5 14.9c-5.3-6.5-11.5-10.8-20.4-10.8-13.1 0-22.3 11.1-22.3 24.5v0.3c0 13.8 9.2 24.6 22.3 24.6 9.7 0 15.5-4.5 21.1-11.2l19.5 13.7c-8.8 12-20.7 20.8-41.2 20.8-26.7 0-48.1-20.1-48.1-47.7z"/>
	<path d="m1080.1 367.9h25.9v34.5h33.2v-34.5h25.9v92.2h-25.9v-35h-33.2v35h-25.9v-92.2z"/>
	<path d="m1221.6 367.9h27.3l16.3 53.4 18-53.6h22.3l18 53.6 16.3-53.4h26.8l-31.2 92.9h-22.5l-18.7-53.1-18.8 53.1h-22.5l-31.3-92.9z"/>
	<path d="m1417.8 367.9h75v21.6h-49.4v14.1h44.8v20.2h-44.8v14.6h50.1v21.7h-75.7v-92.2z"/>
	<path d="m1561.9 367.9h25.9v92.2h-25.9v-92.2z"/>
	<path d="M1651,441.5l46.8-52.2h-45.2v-21.5h80.8v18.4l-46.8,52.2h46.8v21.6H1651V441.5z"/>
</g>
</svg>
