<svg enable-background="new 0 0 1741.7 461.9" version="1.1" viewBox="0 0 1741.7 461.9" xml:space="preserve" xmlns="http://www.w3.org/2000/svg">
<rect width="327.7" height="93.6" fill="#e5e6d7"/>
<path d="M327.7,112.4c0,0-95.2-5.9-196.6,56.2C27.8,231.7,2.7,320.7,0,327.7h327.7V112.4z" fill="#e5e6d7"/>
<polygon points="355.8 54.6 355.8 327.7 543.1 327.7" fill="#e5e6d7"/>
<polygon points="515 0 355.8 0 355.8 41 552.5 327.7 552.5 327.7 739.8 327.7" fill="#e5e6d7"/>
<polygon points="983.2 0 796 0 1020.6 327.5 1020.7 327.7 1020.7 327.7 1208 327.7 1208 327.7" fill="#e5e6d7"/>
<polygon points="1236.1 0 1048.8 0 1273.5 327.7 1273.5 327.7 1460.8 327.7" fill="#e5e6d7"/>
<polygon points="627.4 0 575.9 75.1 749.1 327.7 767.9 327.7 767.9 0" fill="#e5e6d7"/>
<polygon points="1442.1 191.2 1409.3 239 1470.2 327.7 1535.7 327.7" fill="#e5e6d7"/>
<polyline points="1507.6 0 1414 136.6 1545.1 327.7 1545.1 327.7 1732.4 327.7 1507.6 0" fill="#e5e6d7"/>
<polygon points="1470.3 0 1301.6 0 1273.5 41 1357.8 164" fill="#e5e6d7"/>
<polygon points="1741.7 0 1741.7 0 1573.2 0 1545.1 41 1629.2 164" fill="#e5e6d7"/>
<polygon points="1170.5 191.2 1147.1 225.3 1217.3 327.7 1217.3 327.7 1264.2 327.7" fill="#e5e6d7"/>
<polygon points="908.3 327.7 908.3 327.7 959.9 252.6 796 13.6 796 327.7" fill="#e5e6d7"/>
<g fill="#e5e6d7">
	<path d="m835.8 367.2h24.9l39.7 92.9h-27.7l-6.7-16.6h-36.1l-6.7 16.6h-27.1l39.7-92.9zm22.6 56.4-10.4-26.1-10.5 26.1h20.9z"/>
	<path d="m953.7 419.6v-51.8h26.1v51.2c0 13.3 6.8 19.6 17.2 19.6 10.5 0 17.3-6.1 17.3-19v-51.9h26.1v51.3c0 29.6-17.2 42.8-43.7 42.8-26.3 0-43-13.3-43-42.2z"/>
	<path d="m1105.8 446.4 14.4-17c9.3 7.2 19.5 11.1 30.3 11.1 7.1 0 10.8-2.4 10.8-6.3v-0.3c0-4-3.1-5.9-15.9-9-19.9-4.5-35.2-10-35.2-28.9v-0.3c0-17.1 13.7-29.5 36.1-29.5 15.9 0 28.3 4.2 38.4 12.3l-12.9 18c-8.5-6.1-17.9-9.1-26.1-9.1-6.3 0-9.3 2.5-9.3 5.9v0.3c0 4.2 3.2 6.1 16.3 9 21.3 4.6 34.7 11.5 34.7 28.7v0.3c0 18.8-15.1 30-37.7 30-16.7 0.1-32.3-5.1-43.9-15.2z"/>
	<path d="m1268.9 390.3h-27.9v-22.4h81.7v22.4h-28v69.8h-25.9v-69.8z"/>
	<path d="m1388.5 367.9h44.1c14.3 0 24.1 3.7 30.4 9.9 5.5 5.4 8.3 12.4 8.3 21.5v0.3c0 14.2-7.6 23.6-19.2 28.5l22.3 32.1h-29.7l-18.8-27.9h-11.5v27.9h-25.9v-92.3zm43 44.2c8.7 0 13.9-4.2 13.9-10.9v-0.3c0-7.4-5.5-11.1-14-11.1h-17.1v22.3h17.2z"/>
	<path d="m1539.3 367.9h25.9v92.2h-25.9v-92.2z"/>
	<path d="m1668.9 367.2h24.9l39.7 92.9h-27.7l-6.7-16.6h-36.1l-6.7 16.6h-27.1l39.7-92.9zm22.6 56.4-10.4-26.1-10.5 26.1h20.9z"/>
</g>
</svg>
