<svg width="600pt" height="144.21pt" version="1.1" viewBox="0 0 600 144.21" xmlns="http://www.w3.org/2000/svg">
 <g transform="matrix(.60149 0 0 .60149 -30.95 -6.1834)">
  <path d="m305.2 10.28h235.44v65.72h-92.43v19.065h92.43v76.035h-92.43v78.855h-143z"/>
  <path transform="scale(.75)" d="m745.9 13.707v162.78c1e-5 86.65 70.242 156.89 156.89 156.89s156.9-70.243 156.9-156.89v-162.78h-144.23v159.51h-25.326v-159.51z" stroke-width="1.3333"/>
  <path d="m931.32 10.28h117.66v239.68h-235.2l-2.3e-4 -239.68 156.31 130.82 12.16-14.2-50.925-43.2z"/>
 </g>
 <g transform="matrix(3.2334 0 0 3.2334 -1190.9 -854.59)" fill="#f0003c">
  <rect x="368.3" y="264.3" width="43.7" height="12.3"/>
  <path d="m412 278.9v30h-43.7s5.4-14.5 19.5-23.1c13.3-8.3 24.2-6.9 24.2-6.9z"/>
 </g>
</svg>
