<svg width="658.83" height="209.8" clip-rule="evenodd" fill-rule="evenodd" image-rendering="optimizeQuality" shape-rendering="geometricPrecision" version="1.1" viewBox="0 0 5836.4 1859.2" xmlns="http://www.w3.org/2000/svg">
 <g transform="translate(.222)" fill="#e5e6d7" fill-rule="nonzero">
  <polygon transform="translate(-1.119)" points="0 0 0 314 1099 314 1099 0"/>
  <path d="m1097.9 377s-319-20-659 188c-346 212-430 510-439 534h1099v-722z"/>
  <g transform="translate(-1.118)">
   <polygon points="1821 1099 1193 183 1193 1099"/>
   <polygon points="2480 1099 1726 0 1193 0 1193 137 1852 1099 1852 1099"/>
   <polygon points="3421 1099 4049 1099 4049 1099 3296 0 2668 0 3421 1098"/>
   <polygon points="3516 0 4269 1099 4269 1099 4897 1099 4143 0"/>
   <polygon points="1930 252 2511 1099 2574 1099 2574 0 2103 0"/>
   <polygon points="5148 1099 4834 641 4724 801 4928 1099"/>
   <polygon points="5054 0 5054 0 4740 458 5179 1099 5179 1099 5807 1099"/>
   <polygon points="4551 550 4929 0 4363 0 4269 137"/>
   <polygon points="5838 0 5273 0 5179 137 5461 550"/>
   <polygon points="3845 755 4081 1099 4081 1099 4238 1099 3924 641"/>
   <polygon points="3045 1099 3218 847 2668 46 2668 1099"/>
  </g>
 </g>
 <g transform="matrix(8.528 0 0 8.528 650 -873.12)">
  <path d="m236.53 246.45v73.943h371.73v-73.943z" fill="#cc392d"/>
  <g fill="#ede1cc">
   <path d="m374.91 267.57c3.075-1.138 6.434-1.109 9.649-0.699 3.377 0.493 6.751 1.685 9.408 3.881 0.158 0.493-0.299 0.904-0.511 1.303-1.253 1.681-2.405 3.435-3.705 5.08-1.969-0.954-3.831-2.168-5.999-2.639-1.703-0.41-3.568-0.699-5.246-0.072-1.455 0.464-1.714 2.801-0.302 3.475 1.512 0.846 3.255 1.131 4.918 1.545 3.323 0.717 6.794 1.642 9.433 3.896 3.964 3.554 3.197 10.47-0.742 13.743-2.625 2.261-6.189 2.97-9.556 3.086-3.608 0.011-7.259-0.594-10.553-2.096-1.851-0.843-3.712-1.815-5.106-3.331 1.552-1.98 3.125-3.975 4.904-5.754 1.699 0.699 3.107 2.01 4.882 2.592 2.643 0.936 5.685 1.624 8.404 0.619 1.469-0.497 1.631-2.794 0.194-3.439-2.769-1.444-5.966-1.656-8.893-2.657-3.14-0.936-6.521-2.697-7.612-6.02-0.835-2.97-0.479-6.405 1.397-8.926 1.26-1.674 3.053-2.916 5.03-3.593z"/>
   <path d="m271.76 266.92h8.585l13.946 32.636h-9.802l-2.263-5.802h-12.732l-2.303 5.802h-9.525m18.25-21.98-3.64 9.17h7.217z"/>
   <path d="m313.04 266.92h9.195s-0.101 11.05 0 15.811c0.126 2.585-0.45 4.03 0.814 6.431 0.835 1.84 2.859 2.942 4.854 2.848 2.034 0.191 4.281-0.504 5.39-2.326 1.44-2.121 0.959-4.548 1.046-6.953 0.072-5.124 0-15.811 0-15.811h9.265s-3e-3 11.882 0.012 17.726c0.158 3.543-0.713 7.183-2.679 10.157-2.139 3.111-5.854 4.746-9.505 5.206-3.982 0.5-8.216 0.202-11.831-1.667-2.542-1.213-4.378-3.539-5.397-6.121-1.685-4.241-1.059-8.89-1.181-13.336 0.09-3.925 0.019-11.965 0.019-11.965z"/>
   <path d="m414.06 266.92h28.747v8.217h-9.877v24.42h-9.12v-24.42h-9.749z"/>
   <path d="m465.88 266.92s11 0.177 16.498 0.22c3.273 0.22 6.773 0.897 9.3 3.147 2.279 1.912 3.341 4.951 3.248 7.874 0.126 2.61-0.745 5.26-2.463 7.237-1.105 1.278-2.628 2.067-4.051 2.934 2.189 3.871 7.582 11.223 7.582 11.223h-10.432l-6.612-9.773h-4.03v9.773h-9.04m9.04-16.826h6.383c1.804 0.086 3.658-0.922 4.443-2.567 0.184-0.839 0.18-1.728 7e-3 -2.567-0.536-1.419-1.864-2.34-3.369-2.459h-7.464z"/>
   <path d="m518.85 266.92h9.119v32.636h-9.119z"/>
   <path d="m564.78 266.92h8.585l13.946 32.636h-9.802l-2.263-5.802h-12.732l-2.303 5.802h-9.525m18.25-21.98-3.64 9.17h7.217z"/>
  </g>
 </g>
</svg>
