<svg width="2098.9" height="461.8" version="1.1" viewBox="0 0 2098.9 461.8" xml:space="preserve" xmlns="http://www.w3.org/2000/svg">
<g transform="matrix(.29818 0 0 .29818 .33366 0)" fill="#e5e6d7"><polygon transform="translate(-1.119)" points="1099 0 0 0 0 314 1099 314"/><path d="m1097.9 377s-319-20-659 188c-346 212-430 510-439 534h1099v-722z"/><g transform="translate(-1.119)"><polygon points="1821 1099 1193 183 1193 1099"/><polygon points="1193 137 1852 1099 2480 1099 1726 0 1193 0"/><polygon points="2668 0 3421 1098 3421 1099 4049 1099 3296 0"/><polygon points="4143 0 3516 0 4269 1099 4897 1099"/><polygon points="2574 0 2103 0 1930 252 2511 1099 2574 1099"/><polygon points="4928 1099 5148 1099 4834 641 4724 801"/><polygon points="5807 1099 5054 0 4740 458 5179 1099"/><polygon points="4269 137 4551 550 4929 0 4363 0"/><polygon points="5838 0 5273 0 5179 137 5461 550"/><polygon points="3924 641 3845 755 4081 1099 4238 1099"/><polygon points="3045 1099 3218 847 2668 46 2668 1099"/></g><polygon transform="translate(-1.119)" points="6073 332 6073 554 5954 554 5954 0 6073 0 6073 219 6293 219 6293 0 6411 0 6411 554 6293 554 6293 332"/><path d="m6750.9 0h-211v110h211c97 0 163 69 163 167v2c0 98-66 165-163 165h-92v-212h-119v323h211c170 0 287-121 287-277v-1c0-156-117-276-287-276z"/></g>
<g transform="translate(0 -4.16e-6)" fill="#e5e6d7">
	<path d="m835.8 367.2h24.9l39.7 92.9h-27.7l-6.7-16.6h-36.1l-6.7 16.6h-27.1zm22.6 56.4-10.4-26.1-10.5 26.1z"/>
	<path d="m953.7 419.6v-51.8h26.1v51.2c0 13.3 6.8 19.6 17.2 19.6 10.5 0 17.3-6.1 17.3-19v-51.9h26.1v51.3c0 29.6-17.2 42.8-43.7 42.8-26.3 0-43-13.3-43-42.2z"/>
	<path d="m1105.8 446.4 14.4-17c9.3 7.2 19.5 11.1 30.3 11.1 7.1 0 10.8-2.4 10.8-6.3v-0.3c0-4-3.1-5.9-15.9-9-19.9-4.5-35.2-10-35.2-28.9v-0.3c0-17.1 13.7-29.5 36.1-29.5 15.9 0 28.3 4.2 38.4 12.3l-12.9 18c-8.5-6.1-17.9-9.1-26.1-9.1-6.3 0-9.3 2.5-9.3 5.9v0.3c0 4.2 3.2 6.1 16.3 9 21.3 4.6 34.7 11.5 34.7 28.7v0.3c0 18.8-15.1 30-37.7 30-16.7 0.1-32.3-5.1-43.9-15.2z"/>
	<path d="m1268.9 390.3h-27.9v-22.4h81.7v22.4h-28v69.8h-25.9v-69.8z"/>
	<path d="m1388.5 367.9h44.1c14.3 0 24.1 3.7 30.4 9.9 5.5 5.4 8.3 12.4 8.3 21.5v0.3c0 14.2-7.6 23.6-19.2 28.5l22.3 32.1h-29.7l-18.8-27.9h-11.5v27.9h-25.9zm43 44.2c8.7 0 13.9-4.2 13.9-10.9v-0.3c0-7.4-5.5-11.1-14-11.1h-17.1v22.3z"/>
	<path d="m1539.3 367.9h25.9v92.2h-25.9z"/>
	<path d="m1668.9 367.2h24.9l39.7 92.9h-27.7l-6.7-16.6h-36.1l-6.7 16.6h-27.1zm22.6 56.4-10.4-26.1-10.5 26.1z"/>
</g>
</svg>
