<svg width="800" height="111.15" version="1.1" viewBox="0 0 800 111.15" xml:space="preserve" xmlns="http://www.w3.org/2000/svg">
<g transform="matrix(2.6093 0 0 2.6093 -695.89 -676.58)">
		<path d="m331.8 287.8-6.1 13.3h-3l18.8-41.1h2.7l18.8 41.1h-3l-6.1-13.3zm11.2-24.5-10 22h20z"/>
		<path d="m400.4 284.1c0 10.3-6.8 17.8-17 17.8s-17-7.6-17-17.8v-23.9h2.8v23.9c0 8.6 5.6 15.2 14.2 15.2s14.2-6.7 14.2-15.2v-23.9h2.8z"/>
		<path d="m440 270.8h-2.8c-1.1-5.5-5.2-9-12.7-9-6.8 0-11.3 3.4-11.3 8.7 0 4 3.3 6.7 9.2 7.7l6.8 1.3c6.9 1.3 10.9 4.8 10.9 10.3 0 7.3-6 12.1-14.9 12.1-9.7 0-15.6-4.9-16.7-13.8h2.8c1.1 7.2 5.8 11.3 14 11.3 7.3 0 12-3.7 12-9.3 0-4-2.9-7-8.6-8l-7.3-1.4c-7.3-1.3-11.1-5-11.1-10.2 0-6.7 5.6-11.2 14.1-11.2 8.8 0.1 14.6 4.3 15.6 11.5z"/>
		<path d="m461.9 262.8v38.2h-2.8v-38.2h-15.7v-2.6h34.2v2.6z"/>
		<path d="m487.2 285.6v15.5h-2.8v-40.8h14.5c9.1 0 15.4 4.7 15.4 12.7 0 7-4.9 11.5-12.3 12.5l13.7 15.7h-3.7l-13.6-15.5h-11.2zm11.5-2.6c7.4 0 12.6-3.7 12.6-10.1s-5.2-10.1-12.6-10.1h-11.6v20.2z"/>
		<path d="m526.2 301.1h-2.8v-40.8h2.8z"/>
		<path d="m542.1 287.8-6.1 13.3h-3l18.8-41.1h2.7l18.8 41.1h-3l-6.1-13.3zm11.2-24.5-10 22h20z"/>
	</g><g transform="matrix(2.6093 0 0 2.6093 -695.89 -676.58)" fill="#ed174c">
		<rect x="266.7" y="260.3" width="40" height="11.2"/>
		<path d="m306.7 273.6v27.4h-40s4.9-13.3 17.8-21.2c12.2-7.4 22.2-6.2 22.2-6.2z"/>
	</g>
</svg>
