<?xml version="1.0" encoding="UTF-8"?>
<svg viewBox="0 0 1013.4 851.03" xmlns="http://www.w3.org/2000/svg">
 <g transform="translate(-4.517 -4.974)">
  <g fill="#131214">
   <path d="m106.8 705.12h0.552l22.445 71.04h-46.03l23.03-71.04zm-102.29 146.63h54.25l12.831-36.38h70.71l12.506 36.38h55.12l-75.879-202.89h-53.693l-75.846 202.89z"/>
   <path d="m369.85 704.28h-48.3v78.997c0 26.15-15.916 32.97-26.441 32.97-15.299 0-23.875-6.821-23.875-26.441v-85.53h-48.27v88.64c0 38.654 12.213 63.08 54.54 63.08 17.05 0 35.828-9.387 44.891-24.427h0.584v20.17h46.872v-147.47z"/>
   <path d="m393.69 803.15c1.429 41.19 37.22 52.849 72.18 52.849 33.23 0 70.75-13.09 70.75-52.56 0-12.246-7.666-33.814-37.517-39.791-22.15-4.84-54.54-7.373-54.54-21.308 0-10.232 12.766-11.08 20.724-11.08 5.977 0 11.369 1.137 15.332 3.67 3.995 2.566 6.269 6.561 6.269 12.798h44.598c-1.689-38.33-35.503-47.749-67.888-47.749-28.974 0-67.34 9.68-67.34 45.22 0 39.758 38.07 40.603 68.47 48.27 8.543 1.981 23.582 4.255 23.582 15.657 0 11.629-13.35 15.624-22.738 15.624-6.821 0-13.35-1.722-17.898-5.132-4.84-3.67-7.926-9.1-7.926-16.469h-46.06z"/>
   <path d="m649.03 704.28h-29.819v-44.631h-48.33v44.631h-24.427v31.25h24.427v65.65c0 40.05 10.557 52 51.744 52 8.803 0 17.605-1.169 26.408-1.429v-35.503c-4.255 0-8.543 0.552-12.506 0.552-10.524 0-17.313-2.566-17.313-14.227v-67.04h29.819v-31.25z"/>
   <path d="m672.26 851.75h48.3v-73.02c0-18.482 12.506-34.983 36.38-34.983 6.529 0 12.213 1.169 18.45 2.858v-44.05c-3.703-0.844-7.666-1.137-11.369-1.137-20.724 0-37.22 9.94-44.34 28.714h-0.552v-25.856h-46.872v147.47z"/>
   <path d="m793.25 851.75h48.27v-147.44h-48.27v147.44zm48.27-202.89h-48.27v36.932h48.27v-36.932z"/>
   <path d="m915.97 809.42c0-11.694 9.06-16.241 19.879-18.775 10.492-2.826 23.03-3.671 29.851-7.926 1.104 30.371-6.561 43.43-29.591 43.43-10.784 0-20.14-4.807-20.14-16.728m2.826-59.67c2.274-12.538 10.784-18.482 24.13-18.482 9.972 0 23.322 4.255 23.322 15.332 0 9.127-4.548 11.954-12.798 13.643-33.522 6.854-85.82 3.118-85.82 51.16 0 30.371 22.19 44.598 50.32 44.598 17.606 0 36.06-5.132 48.594-18.19 0.552 4.84 1.137 9.387 2.826 13.935h48.594c-5.684-11.661-5.684-25.27-5.684-37.777v-64.51c0-41.772-33.814-49.47-68.765-49.47-16.761 0-33.814 2.858-46.905 10.264-13.03 7.666-22.12 20.17-22.997 39.499h45.18z"/>
  </g>
  <g fill="#ef001e">
   <path d="m812.35 199.15v396.55h-590.72s72.47-192.8 262.55-306.3c180.5-109.39 328.18-90.25 328.18-90.25z"/>
   <polygon transform="matrix(.92441 0 0 .92441 221.63 4.974)" points="0 177.1 0 0 639.03 0 639.03 177.1"/>
  </g>
 </g>
</svg>
