<svg width="916.34pt" height="198.15pt" version="1.1" viewBox="0 0 916.34 198.15" xmlns="http://www.w3.org/2000/svg" xmlns:xlink="http://www.w3.org/1999/xlink">
 <defs>
  <linearGradient id="linearGradient1474">
   <stop stop-color="#4e0d82" offset="0"/>
   <stop stop-color="#4a0c7b" offset=".48586"/>
   <stop stop-color="#39095f" offset="1"/>
  </linearGradient>
  <radialGradient id="radialGradient1918" cx="1337.7" cy="-162.48" r="169.45" gradientTransform="matrix(1 0 0 .77958 0 -35.815)" gradientUnits="userSpaceOnUse">
   <stop stop-color="#ec0048" offset="0"/>
   <stop stop-color="#d70042" offset=".43128"/>
   <stop stop-color="#9b002f" offset="1"/>
  </radialGradient>
  <radialGradient id="radialGradient914-04" cx="-3.0717" cy="-3.207" r="1.754" gradientTransform="matrix(-1.6831 1.5422 -1.6408 -1.7907 -13.504 -4.2636)" gradientUnits="userSpaceOnUse" xlink:href="#linearGradient1474"/>
  <radialGradient id="radialGradient938-5" cx=".060648" cy=".75444" r="1.7894" gradientTransform="matrix(1.9183 -1.8281 1.7507 1.8372 -1.3765 -.52066)" gradientUnits="userSpaceOnUse" xlink:href="#linearGradient1474"/>
  <radialGradient id="radialGradient922-0" cx=".85908" cy="-2.4842" r="1.313" gradientTransform="matrix(-1.9005 -1.229 1.292 -1.998 5.7014 -6.644)" gradientUnits="userSpaceOnUse">
   <stop stop-color="#4a0c7c" offset="0"/>
   <stop stop-color="#440b72" offset=".65431"/>
   <stop stop-color="#3c0a64" offset="1"/>
  </radialGradient>
  <linearGradient id="linearGradient1492-2-8" x1="440.6" x2="469.2" y1="133.14" y2="107.6" gradientTransform="matrix(1.2369 0 0 1.2369 -1.8789 .16437)" gradientUnits="userSpaceOnUse">
   <stop stop-color="#aa0034" offset="0"/>
   <stop stop-color="#b90039" offset="1"/>
  </linearGradient>
  <linearGradient id="linearGradient1500-2-3" x1="495.63" x2="524.15" y1="133.51" y2="107.56" gradientTransform="matrix(1.2369 0 0 1.2369 -2.2937 .16485)" gradientUnits="userSpaceOnUse">
   <stop stop-color="#a70033" offset="0"/>
   <stop stop-color="#a80033" offset="1"/>
  </linearGradient>
 </defs>
 <g transform="matrix(.75 0 0 .75 -389.7 220.94)" fill="url(#radialGradient1918)" stroke-width="1.0013">
  <path d="m1339-233.68c0-9.3-1.8-17.8-5.4-25.5l-156.7 142.2-8.7 42.8h29.3l114-103.4c18.3-16.8 27.5-35.5 27.5-56.1z"/>
  <path d="m1270.3-247.48c9 0 16.1 5.7 18.6 13.3l38.6-35c-1.9-2.5-4.1-4.9-6.5-7.1-11.7-11.1-27.1-18.3-46.1-18.3-36.1 0-64.5 22.3-74.6 63.2h49c4.1-9.7 11.7-16.1 21-16.1z"/>
  <path d="m1214.8-74.184h88.8l-12.8-42.8h-28.9z"/>
  <path d="m1480.7-116.98h-117.7l144.1-130.5h-67.5l-138.2 125.4 14.4 47.9h105.1l-9.1 43.8h51z"/>
  <path d="m1503.1-228.18-62.3 56.7-8.6 42.9h50.8z"/>
 </g>
 <g transform="matrix(36.54 0 0 -36.54 257.57 34.86)" fill="url(#radialGradient914-04)">
  <path d="m0 0h-0.951l-0.423-2.1c-0.091-0.44-0.289-0.656-0.653-0.656-0.35 0-0.613 0.199-0.5 0.755l0.403 2.001h-0.951l-0.369-1.828c-0.031-0.173-0.064-0.334-0.064-0.468 0.012-0.668 0.321-1.008 0.696-1.192 0.265-0.129 0.472-0.149 0.696-0.149 0.991 0 1.476 0.496 1.685 1.498z" fill="url(#radialGradient914-04)"/>
 </g>
 <g transform="matrix(36.54 0 0 -36.54 437.66 67.158)" fill="url(#radialGradient938-5)">
  <path d="m0 0 0.178 0.883h-1.209c-1.364 0-1.503-0.869-1.503-1.138 0-0.322 0.221-0.855 1.115-1.066 0.265-0.062 0.435-0.165 0.4-0.339-0.03-0.148-0.179-0.153-0.47-0.153l-0.95324 1e-3 -0.95862-0.884h1.8349c1.439 0 1.51 0.885 1.51 1.154 0 0.224-0.105 0.822-1.077 1.054-0.349 0.083-0.443 0.21-0.401 0.339 0.031 0.095 0.149 0.149 0.479 0.149z" fill="url(#radialGradient938-5)"/>
 </g>
 <g transform="matrix(36.54 0 0 -36.54 300.59 34.897)" fill="url(#radialGradient922-0)">
  <path d="m0 0h-0.95l-0.722-3.579h1.6674l0.95862 0.884h-1.497z" fill="url(#radialGradient922-0)"/>
 </g>
 <g transform="matrix(36.54 0 0 -36.54 116.78 46.407)" fill="#430b70">
  <path d="m0 0c-0.216 0.208-0.494 0.314-0.839 0.314h-1.635l-0.722-3.577h0.945l0.549 2.718h0.741c0.2 0 0.341-0.141 0.341-0.326 0-0.219-0.184-0.427-0.407-0.427h-0.583l-0.173-0.859h0.724c0.388 0 0.718 0.134 0.985 0.408 0.266 0.275 0.403 0.596 0.403 0.953 0 0.325-0.109 0.588-0.329 0.796" fill="#430b70"/>
 </g>
 <path d="m556.76 133.2-35.326 32.101 25.351 7e-3 32.461-29.455-0.77198-2.6001z" fill="url(#linearGradient1492-2-8)" style="paint-order:markers stroke fill"/>
 <path d="m632.58 133.2-35.401 32.101h13.567l35.271-32.101z" fill="url(#linearGradient1500-2-3)" style="paint-order:markers stroke fill"/>
 <g transform="matrix(1.2356 0 0 1.2356 -.74788 2.8054e-5)" fill="#430b70">
  <g transform="matrix(29.421 0 0 -29.421 733.94 49.218)">
   <path d="m0 0c-0.186 0.189-0.45 0.282-0.794 0.282h-0.767v-2.026h0.448v1.619h0.29c0.242 0 0.41-0.055 0.506-0.163 0.099-0.108 0.148-0.259 0.148-0.447 0-0.344-0.149-0.565-0.545-0.598v-0.41c0.308 0.013 0.548 0.103 0.717 0.272 0.186 0.183 0.279 0.43 0.279 0.736 0 0.305-0.093 0.549-0.282 0.735" fill="#430b70"/>
  </g>
  <g transform="matrix(29.421 0 0 -29.421 663.09 63.076)">
   <path d="m0 0h-0.878v0.753h-0.448v-2.026h0.448v0.866h0.878v-0.866h0.448v2.026h-0.448z" fill="#430b70"/>
  </g>
 </g>
</svg>
