<svg width="3983.5" height="800" enable-background="new 0 0 1260 720" space="preserve" version="1.0" viewBox="0 0 3983.5 800" xmlns="http://www.w3.org/2000/svg" xmlns:xlink="http://www.w3.org/1999/xlink">
 <defs>
  <linearGradient id="c">
   <stop stop-opacity=".15" offset="0"/>
   <stop stop-opacity=".25" offset="1"/>
  </linearGradient>
  <radialGradient id="m-2" cx="0" cy="0" r="317.59" gradientTransform="matrix(2.012 -2.2592 2.2592 2.012 507.63 -1096.4)" gradientUnits="userSpaceOnUse">
   <stop stop-color="#47287d" offset="0"/>
   <stop stop-color="#5b25a7" offset=".28916"/>
   <stop stop-color="#302054" offset="1"/>
  </radialGradient>
  <radialGradient id="l-1" cx="0" cy="0" r="217.63" gradientTransform="matrix(3.0252 0 0 3.0252 1703.9 -1627.1)" gradientUnits="userSpaceOnUse">
   <stop stop-color="#47287d" offset="0"/>
   <stop stop-color="#583399" offset=".32624"/>
   <stop stop-color="#302054" offset="1"/>
  </radialGradient>
  <linearGradient id="k-0" x1="727.99" x2="771.17" y1="220.4" y2="181.22" gradientTransform="matrix(3.0252 0 0 3.0252 1.0088 .53334)" gradientUnits="userSpaceOnUse" xlink:href="#c"/>
  <radialGradient id="j-0" cx="815.81" cy="149.85" r="35.426" gradientTransform="matrix(18.584 0 0 18.584 -12730 -2313.4)" gradientUnits="userSpaceOnUse">
   <stop stop-opacity=".013" offset="0"/>
   <stop stop-opacity=".25" offset="1"/>
  </radialGradient>
  <linearGradient id="f-2" x1="812.09" x2="859.33" y1="220.41" y2="177.62" gradientTransform="matrix(3.0252 0 0 3.0252 1.0088 .53334)" gradientUnits="userSpaceOnUse" xlink:href="#c"/>
  <radialGradient id="d-4" cx="0" cy="0" r="217.63" gradientTransform="matrix(3.0252 0 0 3.0252 2431 471.5)" gradientUnits="userSpaceOnUse">
   <stop stop-color="#ed134e" offset="0"/>
   <stop stop-color="#d11f3b" offset=".16551"/>
   <stop stop-color="#aa1836" offset="1"/>
  </radialGradient>
 </defs>
 <link rel="stylesheet" type="text/css"/>
 <link rel="stylesheet" type="text/css"/>
 <path d="m2330.7 537.95h-87.188l-142.56 129.33h268.46zm-48.085-537.42c-109.21 0-195.17 67.452-225.79 191.2h148.22c12.597-29.305 35.697-48.72 63.598-48.72 27.323 0 48.796 17.361 56.132 40.319l116.88-105.86a175.77 175.77 0 0 0-19.733-21.461c-35.509-33.537-81.952-55.481-139.31-55.481zm177.6 107.17-474.06 430.2-26.249 129.37h88.677l344.96-312.67c55.33-50.838 83.02-107.45 83.02-169.87 0-28.219-5.4726-53.993-16.342-77.051zm320.84 35.313-418.12 379.42 43.363 144.86v0.023h318.17l-27.559 132.69h154.25l53.993-262.11h-355.97l435.96-394.87zm191.93 58.385-188.52 171.78-25.817 129.73h153.73z" fill="url(#d-4)" stroke-width="3.0252"/>
 <path d="m2457.7 667.3h-51.452l0.023-0.023 3.6029-3.2732c9.4687-8.5673 18.944-17.147 28.409-25.726l60.894-55.149c10.328-9.3598 20.656-18.707 30.984-28.064l18.989-17.195h51.452c-7.7746 7.0305-15.537 14.073-23.315 21.116-13.695 12.397-27.378 24.806-41.088 37.2-0.7685 0.71088-1.5367 1.4067-2.3143 2.1056-19.146 17.346-38.289 34.68-57.418 52.017l-18.756 16.98" fill="url(#f-2)" stroke-opacity="0"/>
 <path d="m2851.1 799.99h-154.25c2.3052-11.072 4.5984-22.144 6.9035-33.207l17.485-84.269c1.0528-5.0671 2.1056-10.149 3.1704-15.217h-266.72l18.753-16.983a229382 229382 0 0 0 59.735-54.12c13.707-12.397 27.393-24.806 41.088-37.203 7.7747-7.0426 15.54-14.085 23.315-21.115h304.51l-52.432 254.52-1.5578 7.5991" fill="url(#j-0)" stroke-opacity="0"/>
 <path d="m2912.3 502.91h-153.73c8.6127-43.248 17.216-86.489 25.82-129.74l71.409-65.065 115.48-105.23 1.6336-1.4794-60.612 301.51" fill="url(#j-0)" stroke-opacity="0"/>
 <path d="m2205 191.73h-148.22c13.011-52.598 36.03-95.032 66.578-126.43a216.72 216.72 0 0 1 18.756-17.147h0.01c0.085-0.07 0.1663-0.1429 0.2481-0.1996 0.011 0 0.011-0.023 0.024-0.025 0.085-0.061 0.1663-0.1293 0.239-0.1906l0.024-0.023c0.082-0.061 0.1633-0.1293 0.248-0.1906 0-0.023 0.011-0.023 0.011-0.023 0.2571-0.211 0.5173-0.42359 0.7775-0.62619 0.024-0.023 0.036-0.025 0.048-0.034l0.1997-0.1656c0.036-0.023 0.061-0.036 0.085-0.061a2.5744 2.5744 0 0 0 0.1754-0.143c0.024 0 0.061-0.045 0.085-0.061 0.061-0.045 0.106-0.091 0.1634-0.1271a0.37814 0.37814 0 0 1 0.085-0.073c0.07-0.045 0.118-0.091 0.1877-0.1384 0.024-0.025 0.048-0.036 0.073-0.061 0.07-0.061 0.1513-0.118 0.2239-0.1747l0.061-0.048c0.07-0.061 0.1391-0.1066 0.2117-0.1656a0.63528 0.63528 0 0 1 0.1059-0.082 1.5035 1.5035 0 0 0 0.1423-0.1203 0.5294 0.5294 0 0 0 0.13-0.091c0.045-0.036 0.082-0.073 0.13-0.098 0.045-0.034 0.07-0.061 0.118-0.093a1.2917 1.2917 0 0 0 0.13-0.1066l0.13-0.093a0.84402 0.84402 0 0 0 0.118-0.098 1.2524 1.2524 0 0 0 0.1299-0.1067 11.093 11.093 0 0 0 0.6867-0.52019l0.045-0.034a2.3082 2.3082 0 0 0 0.1786-0.1293l0.07-0.061 0.1877-0.1293c0.011-0.025 0.036-0.036 0.061-0.045 0.048-0.048 0.121-0.097 0.1786-0.1429a0.23899 0.23899 0 0 0 0.07-0.048c0.048-0.048 0.1209-0.093 0.1785-0.1429 0.024-0.023 0.033-0.025 0.045-0.036l1.1496-0.84698 0.01-0.023 0.2239-0.1633h0.011c0.073-0.061 0.1422-0.1203 0.2239-0.1793 0.011 0 0.011 0 0.011-0.023 30.23-22.25 65.728-35.842 104.85-40.189h0.048l0.2723-0.035999h0.036l0.2844-0.033999h0.033c0.4961-0.047999 0.9801-0.109 1.4882-0.1543h0.036l0.2603-0.035999c0.025 0 0.036 0 0.07-0.023a1.7606 1.7606 0 0 0 0.248-0.024999h0.061a1.9301 1.9301 0 0 1 0.2602-0.024999h0.045c0.3932-0.044999 0.7805-0.081998 1.1708-0.118h0.048c0.082 0 0.152-0.023 0.236-0.023 0.036 0 0.061-0.022999 0.093-0.022999 0.07 0 0.152-0.023 0.2246-0.025h0.093c0.084-0.023 0.1656-0.023 0.2389-0.024999 0.025 0 0.057-0.023 0.082-0.023a1.7606 1.7606 0 0 0 0.2479-0.024999h0.061l1.1194-0.090998c0.027-0.023 0.073-0.023 0.098-0.023 0.07 0 0.1429-0.022999 0.2246-0.024999h0.093c0.082-0.023 0.152-0.023 0.2246-0.023h0.1089c0.082-0.023 0.1521-0.023 0.2247-0.025h0.091c0.084-0.023 0.1566-0.023 0.2389-0.025h0.061l0.8139-0.069998h0.082c0.073-0.022999 0.143-0.022999 0.2269-0.024999h0.1067c0.07-0.023 0.152-0.023 0.211-0.025h0.1202c0.07-0.023 0.1384-0.023 0.211-0.023 0.034-0.022999 0.082-0.022999 0.1294-0.022999 0.057-0.023 0.1293-0.023 0.1996-0.024999h0.1294c0.07-0.023 0.1293-0.023 0.1996-0.023 0.036-0.023 0.098-0.023 0.1294-0.023l0.4959-0.033999c0.073 0 0.143-0.023 0.2109-0.023 0.036 0 0.084 0 0.1203-0.023 0.07 0 0.1293 0 0.1997-0.023 0.048 0 0.093-0.023 0.1429-0.023 0.061 0 0.1293 0 0.1906-0.023h0.1429c0.07-0.023 0.1294-0.023 0.1997-0.023 0.036-0.023 0.093-0.023 0.1293-0.023 0.07-0.023 0.1294-0.023 0.1997-0.023h0.1293c0.073 0 0.1294 0 0.202-0.023h0.152c0.1202-0.023 0.2391-0.025 0.3571-0.025 0.045 0 0.091 0 0.1429-0.023 0.061 0 0.1294 0 0.1884-0.023h0.1429c0.061-0.023 0.1293-0.023 0.1906-0.023 0.057-0.023 0.1066-0.023 0.152-0.023 0.061 0 0.1293 0 0.1906-0.023h0.152c0.061-0.023 0.1203-0.023 0.1815-0.023h0.1634c0.061 0 0.118 0 0.1792-0.023h0.1521c0.061 0 0.1202-0.023 0.1792-0.023 0.082 0 0.152-0.023 0.2246-0.023 0.082 0 0.1656 0 0.2479-0.023h0.1906c0.061-0.023 0.091-0.023 0.152-0.023s0.1294 0 0.1906-0.023h0.152c0.073-0.023 0.1339-0.023 0.1906-0.023 0.061 0 0.1067-0.023 0.1543-0.023h0.1883c0.061-0.023 0.1089-0.023 0.1543-0.023 0.073 0 0.1293 0 0.1906-0.023h0.4969c0.1066 0 0.211-0.023 0.3328-0.023 0.034 0 0.091 0 0.1385-0.023h0.1905c0.061 0 0.118 0 0.1634-0.023h0.3449c0.061-0.023 0.118-0.023 0.1747-0.023h0.1656c0.061-0.023 0.1293-0.023 0.1883-0.023 0.061 0 0.098 0 0.1543-0.023h0.3449c0.091-0.023 0.1997-0.023 0.2935-0.023h0.073c0.1066-0.023 0.1997-0.023 0.3054-0.023h0.1293c0.073 0 0.143-0.023 0.211-0.023h0.3449c0.045-0.023 0.093-0.023 0.152-0.023h0.9105c0.036 0 0.084 0 0.1203-0.023h0.4116c0.093 0 0.1792 0 0.2723-0.023h0.6865c0.061-0.023 0.091-0.023 0.143-0.023h0.9437c0.036-0.023 0.061-0.023 0.093-0.023h1.5247c0.073 0 0.1429 0 0.211-0.023h0.8288c57.357 0 103.8 21.945 139.31 55.481a175.77 175.77 0 0 1 19.736 21.461l-116.88 105.86c-7.3363-22.961-28.809-40.319-56.129-40.319-1.1225 0-2.2449 0.023-3.3579 0.091-0.1294 0-0.2483 0.023-0.3783 0.023l-0.9559 0.07a58.104 58.104 0 0 0-13.873 2.8377c-0.011 0-0.024 0-0.036 0.023a52.093 52.093 0 0 0-1.1557 0.39929h-0.024c-0.1664 0.073-0.3328 0.1293-0.4962 0.1906-0.1543 0.061-0.3086 0.10659-0.4507 0.16559-0.061 0.023-0.106 0.034-0.1663 0.061-0.07 0.029-0.1422 0.057-0.2116 0.082h-0.036c-13.093 5.0702-24.437 14.796-33.228 27.795a0.95898 0.95898 0 0 0-0.07 0.11799c-0.011 0.023-0.024 0.023-0.024 0.025a102.82 102.82 0 0 0-9.1239 16.85" fill="url(#j-0)" stroke-opacity="0"/>
 <path d="m2369.4 667.28h-166.09c19.652-17.842 39.315-35.688 58.978-53.53 23.884-21.66 47.752-43.332 71.636-64.992l35.476 118.53" fill="url(#j-0)" stroke-opacity="0"/>
 <path d="m2203.3 667.28h-102.36c21.461-19.461 42.909-38.934 64.357-58.386 26.068-23.657 52.136-47.304 78.191-70.952h87.185l3.2278 10.815c-23.868 21.66-47.74 43.332-71.624 64.992-19.663 17.842-39.327 35.688-58.978 53.53" fill="url(#k-0)" stroke-opacity="0"/>
 <g transform="matrix(.99998 0 0 .99998 -4.8823 1855.4)" stroke-width="3.0252">
  <path d="m1613.3-1582.8h154.5l26.023-129.32h-177.04c-199.58 0-220.06 127.27-220.06 166.61 0 47.139 32.427 125.18 163.36 156.08 38.762 9.1483 63.624 24.25 58.508 49.741-4.326 21.555-26.198 22.275-68.848 22.275h-141.3l-142.49 129.3h272.51c210.76 0 221.18-129.56 221.18-168.92 0-32.757-15.35-120.4-157.67-154.24-51.135-12.161-64.936-30.809-58.732-49.729 4.559-13.895 21.754-21.812 70.052-21.812" fill="url(#l-1)"/>
  <path d="m1213.5-1188.1h-243.58c33.465-165.81 66.918-331.62 100.38-497.42l5.3637-26.555h139.05l-76.212 378.45c-1.074 5.3757-2.163 10.755-3.2491 16.13h221.11c-0.4508 0.4023-0.8864 0.8048-1.3372 1.2041l-141.54 128.19" fill="#3a2366"/>
  <path d="m589.76-1712.1-53.982 267.67c-4.5984 25.333-9.3328 48.936-9.3328 68.503 1.7244 97.86 46.9 147.56 101.91 174.51 38.738 18.98 69.12 21.791 101.94 21.791 145 0 216.11-72.536 246.63-219.32l63.136-313.15h-139.31l-61.918 307.44c-13.25 64.462-42.223 96.096-95.6 96.096-43.1 0-77.113-20.632-77.086-75.534 0.0113-10.389 1.2313-22.006 3.8542-34.957l59.083-293.04z" fill="url(#m-2)"/>
  <path d="m144.3-1188.3h-138.4l105.65-523.62h239.42c50.521 0 91.289 15.504 122.87 45.923 32.155 30.44 48.225 68.906 48.225 116.56 0 52.246-20.088 99.324-59.134 139.52-39.044 40.19-87.269 59.712-144.11 59.712h-106.09l25.382-125.75h85.311c32.721 0 59.709-30.419 59.709-62.574 0-26.991-20.668-47.659-49.949-47.659h-108.52l-80.347 397.89" fill="#3a2368"/>
 </g>
 <style lang="en" type="text/css"/>
 <g fill="url(#d-4)" stop-color="#000000" stroke-width="3.0252" style="font-variation-settings:normal">
  <path d="m3724.9 310.36c-11.245-6.1044-24.739-8.996-40.803-8.996h-43.052l-46.908 207.23h51.727c16.707 0 31.807-3.2128 45.622-9.3173 13.815-6.1044 25.703-14.779 35.984-26.345 9.9598-11.566 17.992-25.382 23.454-41.446 5.7831-16.064 8.3534-34.378 8.3534-54.618 0-15.743-2.8916-29.237-8.6747-40.482s-14.458-19.92-25.703-26.024z" stop-color="#000000" style="font-variation-settings:normal"/>
  <path d="m3124.7 151-124.34 524.98h884.5l98.634-525.3h-858.8zm221.37 428.59 30.201-141.37h-135.58l-30.201 141.37h-91.245l74.538-349.56h90.924l-29.558 137.51h135.58l29.558-137.51h90.924l-74.538 349.56zm497.03-127.87c-9.3173 26.024-22.811 48.514-40.482 67.791s-38.554 34.056-62.972 44.337c-24.418 10.602-51.406 15.743-80.964 15.743h-177.03l79.679-349.56h144.58c29.88 0 56.225 5.4618 79.036 16.064s40.482 26.345 53.333 46.265c12.851 20.241 18.956 44.659 18.956 73.253 0 31.486-4.8193 60.08-14.137 86.104z" stop-color="#000000" style="font-variation-settings:normal"/>
 </g>
</svg>
