<svg width="742.22pt" height="160.38pt" version="1.1" viewBox="0 0 742.22 160.38" xmlns="http://www.w3.org/2000/svg">
 <g transform="matrix(.60714 0 0 .60714 -19.689 -18.038)" fill="#fff">
  <g transform="matrix(48.591 0 0 -48.591 187.73 92.005)">
   <path d="m0 0c-0.216 0.208-0.494 0.314-0.839 0.314h-1.635l-0.722-3.577h0.945l0.549 2.718h0.741c0.2 0 0.341-0.141 0.341-0.326 0-0.219-0.184-0.427-0.407-0.427h-0.583l-0.173-0.859h0.724c0.388 0 0.718 0.134 0.985 0.408 0.266 0.275 0.403 0.596 0.403 0.953 0 0.325-0.109 0.588-0.329 0.796" fill="#fff"/>
  </g>
  <g transform="matrix(48.591 0 0 -48.591 433.64 76.699)">
   <path d="m0 0h-0.95l-0.722-3.579h1.6674l0.95862 0.884h-1.497z" fill="#fff"/>
  </g>
  <g transform="matrix(48.591 0 0 -48.591 375.63 76.65)">
   <path d="m0 0h-0.951l-0.423-2.1c-0.091-0.44-0.289-0.656-0.653-0.656-0.35 0-0.613 0.199-0.5 0.755l0.403 2.001h-0.951l-0.369-1.828c-0.031-0.173-0.064-0.334-0.064-0.468 0.012-0.668 0.321-1.008 0.696-1.192 0.265-0.129 0.472-0.149 0.696-0.149 0.991 0 1.476 0.496 1.685 1.498z" fill="#fff"/>
  </g>
  <g transform="matrix(48.591 0 0 -48.591 617.17 119.6)">
   <path d="m0 0 0.178 0.883h-1.209c-1.364 0-1.503-0.869-1.503-1.138 0-0.322 0.221-0.855 1.115-1.066 0.265-0.062 0.435-0.165 0.4-0.339-0.03-0.148-0.179-0.153-0.47-0.153l-0.95324 1e-3 -0.95862-0.884h1.8349c1.439 0 1.51 0.885 1.51 1.154 0 0.224-0.105 0.822-1.077 1.054-0.349 0.083-0.443 0.21-0.401 0.339 0.031 0.095 0.149 0.149 0.479 0.149z" fill="#fff"/>
  </g>
 </g>
 <g fill="#ec0677">
  <g transform="matrix(29.421 0 0 -29.421 -1032.2 2820)">
   <g transform="translate(52.524,92.193)">
    <path d="m0 1.0947e-6 2.955 2.688h-1.383l-2.834-2.583 0.293-0.98599 2.157-7.11e-6 -0.184-0.913h1.047l0.362 1.794z" fill="#ec0677"/>
   </g>
   <g transform="translate(53.941,92.432)">
    <path d="m0 0h1.047l0.413 2.054-1.284-1.17z" fill="#ec0677"/>
   </g>
  </g>
  <g transform="matrix(.60714 0 0 .60714 -19.689 -18.038)" stroke-width="1.3333">
   <path transform="scale(.75)" d="m1054.8 39.613c-57.217 0-92.41 37.986-101.25 83.961h65.613c5.5081-12.674 14.436-20.73 27.388-20.73 13.479 0 21.378 8.0134 25.331 17.023l50.908-46.396c-19.606-19.417-37.146-33.857-67.986-33.857z"/>
   <path transform="scale(.75)" d="m1130.5 85.535-208.88 190.38-10.637 56.922h38.746l165.18-150.55c16.831-16.831 23.61-39.24 23.555-61.703 0-12.878-1.4376-26.672-7.9649-35.049z"/>
   <path transform="scale(.75)" d="m1036.9 275.91-62.462 56.922h116.13l-16.916-56.922z"/>
  </g>
 </g>
 <g transform="matrix(29.421 0 0 -29.421 -1056.3 2820)" fill="#fff">
  <g transform="translate(60.849,94.177)">
   <path d="m0 0c-0.186 0.189-0.45 0.282-0.794 0.282h-0.767v-2.026h0.448v1.619h0.29c0.242 0 0.41-0.055 0.506-0.163 0.099-0.108 0.148-0.259 0.148-0.447 0-0.344-0.149-0.565-0.545-0.598v-0.41c0.308 0.013 0.548 0.103 0.717 0.272 0.186 0.183 0.279 0.43 0.279 0.736 0 0.305-0.093 0.549-0.282 0.735" fill="#fff"/>
  </g>
  <g transform="translate(58.441,93.706)">
   <path d="m0 0h-0.878v0.753h-0.448v-2.026h0.448v0.866h0.878v-0.866h0.448v2.026h-0.448z" fill="#fff"/>
  </g>
 </g>
</svg>
