<svg width="1923.2pt" height="594.47pt" version="1.1" viewBox="0 0 1923.2 594.47" xmlns="http://www.w3.org/2000/svg">
 <g transform="translate(-219.43 -148.91)" fill="#1d1d1b">
  <path d="m456.9 154.83c45.06-8.35 91.84-7.97 136.64 1.77 62.72 13.88 121.7 47.23 163.21 96.61 21.14 25.07 37.73 53.92 49.13 84.64 14.12 38.61 19.12 80.31 16.35 121.25-2.7 35.48-12.7 70.65-30.92 101.34-18.45 30.9-46.59 55.85-79.5 70.45l-4.3784 2.17h161.07v95.94c-104.51 0.01-209.02 0-313.53 0-21.04-0.08-42.11 0.46-63.09-1.36-39.98-3.2-79.65-12.56-116.14-29.37-26.71-12.29-51.5-28.84-72.74-49.2-25.16-23.98-45.1-53.22-59.16-84.96-17.42-38.85-24.36-81.71-24.41-124.09-0.17-36.35 5.63-72.92 18.76-106.9 12.53-32.25 30.66-62.42 53.93-88.07 42.79-47.47 102.29-78.39 164.78-90.22m47.64 109.98c-29.75 2.54-58.43 13.81-82.7 31.06-38.12 26.85-64.37 69.8-71.07 115.93-3.01 20.8-2.59 42.13 1.45 62.76 6.33 31.75 21.78 61.66 43.99 85.22 21.79 23.03 49.94 40.09 80.55 48.43 22.11 5.88 45.39 7.07 68.06 4.14 33.3-4.32 64.84-19.48 89.99-41.58 24.89-21.8 43.02-51.03 52.15-82.79 6.57-23.13 8.1-47.58 5.32-71.43-3.87-33.17-17.87-64.97-39.19-90.62-21.11-25.28-49.57-44.32-80.94-54.31-21.77-6.84-44.93-8.86-67.61-6.81z"/>
  <path d="m1041.1 160.44c48.48-14.38 100.58-14.78 149.82-4 18.88 4.2 37.51 9.95 54.87 18.56 17.76 8.69 34.21 19.96 48.99 33.08l-85.47 93.54c-10.56-13.43-25.47-22.98-41.52-28.51-17.25-6.05-35.52-9.74-53.85-8.95-11.94 0.61-23.85 2.71-35.16 6.62-13.04 4.58-25.83 11.51-34.26 22.78-9.14 11.48-10.86 27.3-7.89 41.31 2.15 10.29 8.27 19.61 16.78 25.78 16.36 11.85 35.29 19.56 54.46 25.61 19.49 6.37 39.15 12.2 58.84 17.91 20.76 6.05 40.8 14.62 59.42 25.63 14.44 8.37 27.39 19.27 38.18 32.01 8.68 10.33 16.42 21.67 21.27 34.34 7.42 19.01 9.84 39.58 9.95 59.86 0.14 24.06-3.2 48.38-11.96 70.88-11.49 29.05-31.1 54.93-56.33 73.4-30.59 22.86-67.93 34.92-105.44 40.08-46.98 6.21-95.59 3.05-140.73-11.81-34.95-11.37-66.65-31.43-93.56-56.3l88.71-97.6c19.28 26.38 49.11 44.07 80.89 50.76 24.39 5.07 50.3 3.39 73.64-5.45 15.26-5.84 29.76-16.24 36.48-31.58 7.69-18.88 3.56-42.88-12.18-56.48-13.85-11.58-30.28-19.64-47.04-26.09-19.5-7.11-39.26-13.48-59.08-19.64-23.44-6.79-46.47-15.36-67.76-27.41-23.73-12.72-44.25-31.52-58.45-54.44-10.74-17.83-15.25-38.71-16.45-59.3-1.3-23.91 0.93-48.23 8.59-71.01 8.66-25.36 23.9-48.36 43.18-66.92 23.24-22.18 52.35-37.65 83.06-46.66z"/>
 </g>
 <g transform="translate(-219.43 -148.91)" fill="#706f6f">
  <path d="m1508.1 156.75c36.14-5.79 74.08-3.64 108.33 9.87 28.71 11.08 54.89 30.21 71.49 56.42 11.71 17.86 18.67 38.66 20.47 59.92 1.71 20.55 0.19 41.43-4.83 61.46-11.84 44.12-37.93 83.16-69.03 116.1l-218.39 225.3h296.96v43.16h-349.7v-55.68l197.13-208.73c22.05-23.64 45.82-45.97 64.22-72.73 11.04-15.68 20.12-32.83 25.98-51.12 5.67-18.25 6.83-37.77 4.39-56.68-2.39-18.34-9.58-36.28-21.85-50.26-13.5-15.33-31.7-26.3-51.31-31.82-17.01-4.78-34.95-5.97-52.5-4.29-18.76 1.85-37.17 8.23-52.56 19.2-15.59 11.07-28.37 26.12-36.57 43.4-4.55 9.32-7.6 19.27-9.91 29.35l-55.85-5.62c6.35-31.48 20.15-62.33 43.71-84.69 24.52-23.15 56.75-37.16 89.82-42.56z"/>
  <path d="m1990.1 163.39h66.28v383.43h86.08l0.1 43.17h-86.18v138.99h-48.1v-138.99h-244.19v-56.973l226.01-369.63m-182.81 383.43h200.99v-332.96z"/>
 </g>
</svg>
