<svg width="1221.6" height="1455" version="1.1" viewBox="0 0 1221.6 1455" xml:space="preserve" xmlns="http://www.w3.org/2000/svg"><g transform="matrix(1.806 0 0 1.806 45.81 -.067717)"><g transform="matrix(13.766 0 0 -13.766 481.34 440)"><path d="m0 0c-1.788 0.03-2.696 0.935-3.526 1.843 1.934 2.277 2.89 5.226 2.689 8.163-0.395 5.77-5.06 10.369-10.861 10.638-3.248 0.151-6.416-1.104-8.693-3.427-2.276-2.323-3.46-5.412-3.239-8.767 0.382-5.794 5.191-10.643 11.399-10.64 1.346 1e-3 2.708 0.23 4.108 0.765 0.174 0.069 0.177 0.278 0.098 0.389-0.282 0.417-0.822 0.98-1.112 1.183-0.239 0.168-0.872 0.63-1.85 0.514-0.36-0.047-0.596-0.079-1.247-0.079-4.757-4e-3 -8.419 3.755-8.643 8.21-0.127 2.509 0.849 4.951 2.665 6.688 1.815 1.737 4.295 2.599 6.805 2.363 4.095-0.385 7.372-3.63 7.778-7.711 0.048-0.483 0.062-0.962 0.036-1.437-0.08-1.166-0.402-3.129-2.11-5.133-0.316 0.145-0.673 0.202-0.897 0.217-1.362 0.091-2.045-0.589-2.276-0.885-0.132-0.173-0.015-0.388 0.184-0.428 0.266-0.049 1.006-0.253 1.978-1.086 0.31-0.272 0.611-0.6 0.893-0.919 1.195-1.357 2.738-3.151 5.821-3.191h1e-3c0.143 0 0.259 0.115 0.259 0.258v2.214c0 0.142-0.116 0.258-0.259 0.258z" fill="#19283e"/></g><g transform="matrix(13.766 0 0 -13.766 -.0009895 621.45)"><path d="m0 0c0-0.17 0.138-0.308 0.308-0.308h44.833c0.171 0 0.309 0.138 0.309 0.308v44.832c0 0.17-0.138 0.308-0.309 0.308h-44.833c-0.17 0-0.307-0.137-0.308-0.306zm42.801 2.34h-40.153v40.152h40.153z" fill="#f25346"/></g></g><g transform="matrix(1.4738 0 0 1.4738 -82.644 237.61)"><g transform="matrix(13.7 0 0 -13.7 58.762 704.94)"><path d="m0 0c0 1.335 1.126 2.487 2.945 2.487 1.754 0 2.683-1.178 2.683-1.178l-0.654-0.655s-0.668 0.917-2.029 0.917c-1.257 0-1.963-0.746-1.963-1.571 0-2.356 4.973-1.047 4.973-4.319 0-1.505-1.112-2.618-3.076-2.618-2.094 0-3.075 1.374-3.075 1.374l0.602 0.668s0.772-1.126 2.473-1.126c1.375 0 2.095 0.72 2.095 1.702 0 2.356-4.974 1.047-4.974 4.319" fill="#19283e"/></g><g transform="matrix(13.7 0 0 -13.7 241.67 672.66)"><path d="m0 0v-0.916h-2.88v-8.246h-0.981v8.246h-2.88v0.916z" fill="#19283e"/></g><g transform="matrix(13.7 0 0 -13.7 302.64 739.91)"><path d="m0 0 2.749 4.908h1.112l-3.403-5.955v-3.207h-0.982v3.207l-3.403 5.955h1.113l2.748-4.908z" fill="#19283e"/></g><g transform="matrix(13.7 0 0 -13.7 377.97 798.18)"><path d="m0 0v9.162h0.981v-8.246h4.713v-0.916z" fill="#19283e"/></g><g transform="matrix(13.7 0 0 -13.7 566.24 785.63)"><path d="m0 0v-0.916h-6.414v9.162h6.283v-0.917h-5.301v-3.01h4.254v-0.916h-4.254v-3.403z" fill="#19283e"/></g></g><g transform="matrix(1.3333 0 0 1.3333 586.62 1095)"><path transform="matrix(.75 0 0 .75 151.5 67.5)" d="m0 0v270h433v-270zm44 42h28.221v77.918h89.559v-77.918h28.221v186h-28.221v-83.504h-89.559v83.504h-28.221zm197 0h60.664c13.172 0 25.51 2.4209 37.012 7.2617 11.502 4.6547 21.427 11.17 29.775 19.549 8.5338 8.1922 15.212 17.967 20.035 29.324 5.009 11.357 7.5137 23.646 7.5137 36.865s-2.5047 25.508-7.5137 36.865c-4.8235 11.357-11.501 21.225-20.035 29.604-8.3483 8.1922-18.273 14.708-29.775 19.549-11.502 4.6547-23.84 6.9824-37.012 6.9824h-60.664zm27.271 24.576v136.85h30.332c9.6469 0 18.644-1.676 26.992-5.0274 8.5338-3.5375 15.954-8.3793 22.262-14.523 6.3076-6.1442 11.225-13.405 14.75-21.783 3.7104-8.3784 5.5645-17.408 5.5645-27.09-1e-5 -9.6817-1.8541-18.711-5.5645-27.09-3.5248-8.3784-8.4424-15.639-14.75-21.783-6.3076-6.1442-13.728-10.893-22.262-14.244-8.3483-3.5375-17.345-5.3066-26.992-5.3066z" fill="#7e827e" stroke-width="1.3333"/></g></svg>
