<?xml version="1.0" encoding="UTF-8"?>
<svg id="svg36" width="1985.3pt" height="1200pt" version="1.1" viewBox="0 0 1985.3 1200" xmlns="http://www.w3.org/2000/svg" xmlns:cc="http://creativecommons.org/ns#" xmlns:dc="http://purl.org/dc/elements/1.1/" xmlns:rdf="http://www.w3.org/1999/02/22-rdf-syntax-ns#">
 <metadata id="metadata42">
  <rdf:RDF>
   <cc:Work rdf:about="">
    <dc:format>image/svg+xml</dc:format>
    <dc:type rdf:resource="http://purl.org/dc/dcmitype/StillImage"/>
    <dc:title/>
   </cc:Work>
  </rdf:RDF>
 </metadata>
 <g id="#3baeb5ff-0" transform="matrix(1.0015 0 0 1.0015 1132.8 359.58)" fill="#3baeb5">
  <path id="path3-7" d="m85.93 91.02c10.31-3.4 21.22-4.2198 32.04-4.0798h45.525v35.76h-48.565c-9.41 0.42-19.63 1.7198-26.71 8.4498-4.31 4.01-6.01 10.09-5.64 15.84 0.17 4.87 1.41 9.94 4.71 13.69 4.82 5.65 11.8 8.72 18.57 11.36 18.35 6.89 37.99 9.45 56.25 16.62 14.17 5.43 28.35 13.33 36.71 26.46 8.36 13.15 9.27 29.63 6.84 44.65-2.67 15.65-11.95 29.93-25.09 38.81-17 11.74-38.33 15.28-58.62 14.48-32.23-0.91-63.78-13.97-87.56-35.67l23.68-27.95c11.5 9.93 24.36 18.63 38.78 23.68 12.82 4.52 26.66 6.2 40.17 4.7 8.79-1.09 17.78-4.23 24.02-10.74 7.21-7.36 8.42-19.27 4.35-28.48-4.65-8.79-14.52-12.66-23.33-15.96-24.29-8.27-50.82-10.9-73.04-24.59-11.73-6.98-20.93-18.48-23.82-31.96-3.71-17.15-2.29-36.34 7.68-51.22 7.65-11.65 19.89-19.71 33.05-23.85z"/>
  <path id="path5" d="m193.23 86.94 173.7-2.49e-4 62.11 98.14 62.11-98.14h45.23l-88.53 134.84v88.178h-39.435v-88.178l-64.605-99.077h-50.98v187.26h-39.445v-187.26l-60.155 2.5e-4z"/>
  <path id="path7" d="m550.57 86.94h39.655v187.26h79.445v35.75h-119.1z"/>
  <path id="path9" d="m697.8 86.94c50.55-0.1 101.12-0.18 151.66 0-0.01 11.61-0.05 24.16 0 35.76-37.44 0.52-74.885-0.16-112.34 0 0.08 19.29 0.07 38.09 0 57.38 32.7 0.09 65.375-0.39 98.075 0-0.1 11.67 0.02 23.395 0 35.065-32.7-0.1-65.385 0.02-98.075 0 0.12 19.93-0.02 39.13 0 59.06 37.9-0.16 75.965 0.19 113.88 0 0.56 11.69-0.2 24.04 0 35.75-51.12 0.1-102.08 0.15-153.2 0 0.09-74.29 0-148.74 0-223.02z"/>
 </g>
 <g id="#54a3a7ff" transform="matrix(1 0 0 1 -58.219 -49.991)">
  <path id="path15" d="m1927.1 532.32 0.99-0.09c0.14 19.21 0.16 38.42-0.01 57.63-0.38-0.02-1.14-0.05-1.52-0.06 0.8-19.15-0.28-38.34 0.54-57.48z"/>
  <path id="path17" d="m1927 625.33 1.07-0.09c0.1 19.85 0.12 39.71-0.01 59.56-0.37 0-1.11-0.02-1.49-0.03 0.7-19.8-0.26-39.64 0.43-59.44z"/>
 </g>
 <g id="#53a4a6ff" transform="matrix(1 0 0 1 -58.219 -49.991)">
  <path id="path27" d="m2040.1 684.87c0.5 0 1.5-0.01 2-0.02-0.03 11.73 0 23.45-0.02 35.18l-1.15-0.04c-0.52-11.7 0.78-23.48-0.83-35.12z"/>
 </g>
 <g id="g16" transform="matrix(6.9433 0 0 6.9433 -629.81 -598.35)">
  <g id="g8" fill="#c95759">
   <path id="path2" d="m199.48 171.09-1.3899-1.074-0.9713-0.75024-0.8134 0.93976c-1.4136 1.6505-3.1037 2.4482-5.1806 2.4482-1.9032 0-3.4195-0.5763-4.6514-1.769-1.232-1.2083-1.8242-2.6612-1.8242-4.4459 0-1.153 0.27611-2.2191 0.8292-3.1746 0.53694-0.91608 1.2794-1.6584 2.2902-2.2269 1.0108-0.55279 2.0612-0.83707 3.2377-0.83707 1.0898 0 2.0849 0.22912 2.9693 0.64756 0.89233 0.42649 1.6505 1.0503 2.2824 1.8794l0.80548 1.0424 1.0266-0.80553 1.3899-1.0582 0.99505-0.77393-0.72658-1.0188c-0.94763-1.3109-2.2032-2.3848-3.7195-3.1432-1.5321-0.74236-3.1746-1.1056-5.0384-1.1056-3.0562 0-5.6307 1.0029-7.6839 2.993-2.069 2.0216-3.1036 4.5171-3.1036 7.439 0 2.7718 0.86081 5.1726 2.5587 7.1153 1.998 2.3376 4.7778 3.5142 8.2446 3.5142 1.8322 0 3.4511-0.34718 4.9595-1.0503 1.4926-0.68703 2.7562-1.6741 3.7511-2.9535l0.7976-1.0345z"/>
   <path id="path4" d="m148.46 160.24c3.3798 0 6.136 2.7562 6.136 6.1599 0 3.3959-2.7562 6.1519-6.136 6.1519-3.3799 0-6.1281-2.7562-6.1281-6.1519 0-3.4037 2.7482-6.1599 6.1281-6.1599m7.8971 13.07c1.6741-1.9111 2.6138-4.3592 2.6138-6.9101 0-5.8044-4.7068-10.543-10.511-10.543-5.7966 0-10.519 4.7382-10.519 10.543 0 5.8202 4.7224 10.535 10.519 10.535 1.5636 0 3.0879-0.36305 4.4935-1.0424l1.5162 1.9269h5.4728z"/>
   <path id="path6-7" d="m174.89 156.3-5.141 12.706-5.2357-12.706h-4.7223l8.7972 21.078h2.2269l8.8053-21.078z"/>
  </g>
  <path id="path10-8" d="m229.85 217.72-46.229-7.5194c-4.2882 1.2952-8.8291 2.0137-13.544 2.0137-25.539 0-46.294-20.808-46.294-46.443 0-25.65 20.754-46.506 46.294-46.506 25.572 0 46.341 20.857 46.341 46.506 0 10.156-3.2615 19.53-8.7817 27.19l29.13 15.549c8.1814-12.642 12.692-27.434 12.692-42.739 0-43.853-35.609-79.595-79.383-79.595-43.767 0-79.367 35.741-79.367 79.595 0 43.869 35.601 79.532 79.365 79.532 11.759 0 23.817-2.9377 34.463-8.055l25.208-19.388 0.10286-0.14222" fill="#eb5d5e"/>
  <path id="path12-8" d="m183.6 210.22 4.391 32.916c0.75811-0.18153 1.5241-0.37127 2.2824-0.58452 4.8725-1.3188 9.6266-3.0798 14.136-5.2357l-20.81-27.097" fill="#c05255"/>
  <path id="path14" d="m183.6 210.19 36.896 48.812 26.582-20.257-16.482-20.903z" fill="#f39e9f"/>
 </g>
</svg>
