<svg id="a" width="1511.6pt" height="1145.4pt" version="1.1" viewBox="0 0 1511.6 1145.4" xmlns="http://www.w3.org/2000/svg">
 <g id="b" transform="matrix(6.6272 0 0 6.6272 -601.14 -571.11)">
  <g id="c" fill="#c95759">
   <path id="d" d="m199.48 171.09-1.3899-1.074-0.9713-0.75024-0.8134 0.93976c-1.4136 1.6505-3.1037 2.4482-5.1806 2.4482-1.9032 0-3.4195-0.5763-4.6514-1.769-1.232-1.2083-1.8242-2.6612-1.8242-4.4459 0-1.153 0.27611-2.2191 0.8292-3.1746 0.53694-0.91608 1.2794-1.6584 2.2902-2.2269 1.0108-0.55279 2.0612-0.83707 3.2377-0.83707 1.0898 0 2.0849 0.22912 2.9693 0.64756 0.89233 0.42649 1.6505 1.0503 2.2824 1.8794l0.80548 1.0424 1.0266-0.80553 1.3899-1.0582 0.99505-0.77393-0.72658-1.0188c-0.94763-1.3109-2.2032-2.3848-3.7195-3.1432-1.5321-0.74236-3.1746-1.1056-5.0384-1.1056-3.0562 0-5.6307 1.0029-7.6839 2.993-2.069 2.0216-3.1036 4.5171-3.1036 7.439 0 2.7718 0.86081 5.1726 2.5587 7.1153 1.998 2.3376 4.7778 3.5142 8.2446 3.5142 1.8322 0 3.4511-0.34718 4.9595-1.0503 1.4926-0.68703 2.7562-1.6741 3.7511-2.9535l0.7976-1.0345z"/>
   <path id="e" d="m148.46 160.24c3.3798 0 6.136 2.7562 6.136 6.1599 0 3.3959-2.7562 6.1519-6.136 6.1519-3.3799 0-6.1281-2.7562-6.1281-6.1519 0-3.4037 2.7482-6.1599 6.1281-6.1599m7.8971 13.07c1.6741-1.9111 2.6138-4.3592 2.6138-6.9101 0-5.8044-4.7068-10.543-10.511-10.543-5.7966 0-10.519 4.7382-10.519 10.543 0 5.8202 4.7224 10.535 10.519 10.535 1.5636 0 3.0879-0.36305 4.4935-1.0424l1.5162 1.9269h5.4728z"/>
   <path id="f" d="m174.89 156.3-5.141 12.706-5.2357-12.706h-4.7223l8.7972 21.078h2.2269l8.8053-21.078z"/>
  </g>
  <path id="g" d="m229.85 217.72-46.229-7.5194c-4.2882 1.2952-8.8291 2.0137-13.544 2.0137-25.539 0-46.294-20.808-46.294-46.443 0-25.65 20.754-46.506 46.294-46.506 25.572 0 46.341 20.857 46.341 46.506 0 10.156-3.2615 19.53-8.7817 27.19l29.13 15.549c8.1814-12.642 12.692-27.434 12.692-42.739 0-43.853-35.609-79.595-79.383-79.595-43.767 0-79.367 35.741-79.367 79.595 0 43.869 35.601 79.532 79.365 79.532 11.759 0 23.817-2.9377 34.463-8.055l25.208-19.388 0.10286-0.14222" fill="#eb5d5e"/>
  <path id="h" d="m183.6 210.22 4.391 32.916c0.75811-0.18153 1.5241-0.37127 2.2824-0.58452 4.8725-1.3188 9.6266-3.0798 14.136-5.2357l-20.81-27.097" fill="#c05255"/>
  <path id="i" d="m183.6 210.19 36.896 48.812 26.582-20.257-16.482-20.903z" fill="#f39e9f"/>
 </g>
 <g id="j" transform="translate(-163 327.82)">
  <g id="k" fill="#938e92" stroke-width="1.0001">
   <path id="l" d="m1338 133.69h32.962v58.004h58.499v-58.004l32.517-2.5e-4v146.54l-32.517-2.4e-4v-58.454h-58.499v58.454h-32.962z"/>
   <path id="m" d="m1496.5 133.69c18.201-0.03 36.392 0.03 54.594 0 15.741-0.05 31.872 2.9104 45.533 11.061 14.441 8.3906 25.932 22.041 31.032 38.013 4.4603 13.231 5.0904 27.722 1.9302 41.313-3.5003 16.301-13.211 31.162-26.702 40.953-13.401 10.121-30.282 14.741-46.913 15.201-19.831-0.05-39.663 0.05-59.494 0 0.03-48.833-0.01-97.697 0.02-146.54m32.532 29.542c-0.02 29.162-0.02 58.314 0 87.476 8.6605 0 17.331 0.01 26.002 0 8.7206-0.29002 17.621-2.5602 24.822-7.6405 16.391-10.821 21.172-33.612 15.051-51.493-4.3203-14.211-17.301-25.002-31.862-27.372-4.0031-0.65177-8.0308-0.97006-12.072-0.97006z"/>
  </g>
  <g id="n" transform="translate(-116.79 897.8)">
   <path id="o" transform="matrix(.75 0 0 .75 116.79 0)" d="m1793.3-1078.3c-34.225 1.6178-62.77 29.667-66.037 66.619l0.041 178.99c3.2671 36.952 31.812 64.999 66.037 66.617h373.4c34.225-1.6177 62.77-29.665 66.037-66.617l0.041-178.99c-3.2669-36.952-31.812-65.001-66.037-66.619zm373.48 25.543c21.055 0.8401 39.364 19.508 39.924 40.576v179.46c-0.56 21.068-18.869 39.736-39.924 40.576-137.79-0.1259-235.71 0.20365-373.48 2.8e-4 -21.055-0.84008-39.364-19.508-39.924-40.576v-179.46c0.56-21.068 18.869-39.736 39.924-40.576 137.76-0.029 235.68-0.01 373.48 0z" fill="#938e92" stroke-width="1.3334"/>
  </g>
 </g>
</svg>
