<svg width="1130" height="1422" version="1.1" viewBox="0 0 1130 1422" xml:space="preserve" xmlns="http://www.w3.org/2000/svg"><g transform="matrix(1.806 0 0 1.806 .0017871 -.067717)"><g transform="matrix(13.766 0 0 -13.766 481.34 440)"><path d="m0 0c-1.788 0.03-2.696 0.935-3.526 1.843 1.934 2.277 2.89 5.226 2.689 8.163-0.395 5.77-5.06 10.369-10.861 10.638-3.248 0.151-6.416-1.104-8.693-3.427-2.276-2.323-3.46-5.412-3.239-8.767 0.382-5.794 5.191-10.643 11.399-10.64 1.346 1e-3 2.708 0.23 4.108 0.765 0.174 0.069 0.177 0.278 0.098 0.389-0.282 0.417-0.822 0.98-1.112 1.183-0.239 0.168-0.872 0.63-1.85 0.514-0.36-0.047-0.596-0.079-1.247-0.079-4.757-4e-3 -8.419 3.755-8.643 8.21-0.127 2.509 0.849 4.951 2.665 6.688 1.815 1.737 4.295 2.599 6.805 2.363 4.095-0.385 7.372-3.63 7.778-7.711 0.048-0.483 0.062-0.962 0.036-1.437-0.08-1.166-0.402-3.129-2.11-5.133-0.316 0.145-0.673 0.202-0.897 0.217-1.362 0.091-2.045-0.589-2.276-0.885-0.132-0.173-0.015-0.388 0.184-0.428 0.266-0.049 1.006-0.253 1.978-1.086 0.31-0.272 0.611-0.6 0.893-0.919 1.195-1.357 2.738-3.151 5.821-3.191h1e-3c0.143 0 0.259 0.115 0.259 0.258v2.214c0 0.142-0.116 0.258-0.259 0.258z" fill="#19283e"/></g><g transform="matrix(13.766 0 0 -13.766 -.0009895 621.45)"><path d="m0 0c0-0.17 0.138-0.308 0.308-0.308h44.833c0.171 0 0.309 0.138 0.309 0.308v44.832c0 0.17-0.138 0.308-0.309 0.308h-44.833c-0.17 0-0.307-0.137-0.308-0.306zm42.801 2.34h-40.153v40.152h40.153z" fill="#f25346"/></g></g><g transform="matrix(2.005 0 0 -2.005 986.54 3403.9)" fill="#19283e" fill-rule="evenodd" stroke-width="4.9597"><path d="m-300.33 990.43c-23.752 0-47.268 18.84-47.268 47.705 0 30.511 24.478 48.01 47.335 48.01 25.442 0 48.216-19.893 48.216-47.735 0-19.874-11.718-31.49-11.718-31.49 4.9178-5.5504 9.3525-8.5059 16.418-8.5059 0.57434 0 0.97285-0.4057 0.97285-0.97285v-8.0764c0-0.5908-0.42291-0.88104-0.88104-0.88104-21.411 0-22.846 16.608-35.212 20.267-1.4212 0.3124-1.9018 1.5782-0.22026 2.5046 0 0 3.0535 2.0507 6.6192 2.0507 1.5247 0 3.6475-0.4444 3.6475-0.4444s10.474 9.5767 10.474 25.623c0 20.321-17.632 37.848-37.484 37.848-22.698 0-38.315-18.789-38.315-37.666 0-22.81 19.218-38.252 38.031-38.252 3.4757 0 6.1669 0.8443 8.8838 0.8443 3.7108 0 6.6703-2.7887 8.7742-5.778 0.70964-1.1388-0.19338-1.763-2.1298-2.3166 0 0-6.0092-2.7347-16.143-2.7347z"/><path d="m-203.45 991.87c0.72983-1.5925 1.3816-1.1863 2.0252 0.0149l43.263 92.141c0.36206 0.7689-0.0888 1.1486-0.56982 1.1486h-9.6238c-0.63801 0-0.87102-0.4766-1.4623-1.7804l-32.64-69.57-32.874 69.942c-0.48069 1.1065-0.72878 1.4071-1.3338 1.4071h-9.422c-0.93981 0-1.1051-0.4835-0.75869-1.0951z"/><path d="m-104.85 990.48c-26.027 0-47.912 20.266-47.912 48.331 0 26.657 21.659 47.426 47.621 47.426 19.26 0 31.215-11.37 31.215-11.37 1.0791-1.0283 1.5362-1.747 0.34867-2.9886l-4.4419-4.4419c-1.0577-1.0614-1.7641-0.8356-2.4718-0.122 0 0-9.3203 8.9954-24.653 8.9954-20.097 0-37.628-17.198-37.628-37.831 0-21.974 18.328-37.879 37.864-37.879 10.956 0 17.239 3.9203 23.557 8.1771 1.2233 0.8329 1.7967 1.0493 2.5907 0.1746l4.4746-4.9419c0.91442-0.9608 0.83978-1.9052-0.09919-2.5661-6.3226-4.7561-16.849-10.964-30.466-10.964z"/></g></svg>
