<?xml version="1.0" encoding="UTF-8"?>
<svg id="svg20" width="438.02" height="240" version="1.1" viewBox="0 0 438.02 240" xmlns="http://www.w3.org/2000/svg" xmlns:cc="http://creativecommons.org/ns#" xmlns:dc="http://purl.org/dc/elements/1.1/" xmlns:rdf="http://www.w3.org/1999/02/22-rdf-syntax-ns#">
 <metadata id="metadata26">
  <rdf:RDF>
   <cc:Work rdf:about="">
    <dc:format>image/svg+xml</dc:format>
    <dc:type rdf:resource="http://purl.org/dc/dcmitype/StillImage"/>
    <dc:title/>
   </cc:Work>
  </rdf:RDF>
 </metadata>
 <g id="g18" transform="matrix(.57842 0 0 .57842 .0017353 .00034705)">
  <g id="g10" fill="#eb5d5e">
   <path id="path2" d="m261.14 203.86-3.3369-2.5785-2.3319-1.8011-1.9528 2.2561c-3.3938 3.9625-7.4513 5.8776-12.437 5.8776-4.5691 0-8.2094-1.3836-11.167-4.247-2.9578-2.9009-4.3795-6.3889-4.3795-10.674 0-2.7681 0.66285-5.3275 1.9908-7.6214 1.289-2.1993 3.0715-3.9814 5.4983-5.3463 2.4267-1.3271 4.9484-2.0096 7.7729-2.0096 2.6164 0 5.0054 0.55004 7.1286 1.5546 2.1423 1.0239 3.9625 2.5215 5.4795 4.512l1.9338 2.5025 2.4647-1.9339 3.3368-2.5404 2.389-1.8581-1.7444-2.4459c-2.275-3.1472-5.2894-5.7254-8.9297-7.546-3.6782-1.7822-7.6215-2.6543-12.096-2.6543-7.3372 0-13.518 2.4077-18.447 7.1855-4.9671 4.8534-7.451 10.845-7.451 17.859 0 6.6545 2.0666 12.418 6.1428 17.082 4.7968 5.612 11.47 8.4368 19.793 8.4368 4.3987 0 8.2853-0.83354 11.907-2.5216 3.5834-1.6494 6.617-4.0191 9.0056-7.0907l1.9149-2.4836z"/>
   <path id="path4" d="m138.65 167.29c-13.916 0-25.254 11.374-25.254 25.31 0 13.973 11.338 25.293 25.254 25.293 3.7539 0 7.4141-0.87046 10.789-2.5014l3.6407 4.6241h13.137l-8.6074-10.825c4.0192-4.5882 6.2759-10.467 6.2759-16.591 0-13.935-11.3-25.31-25.235-25.31zm0 10.521c8.1142 0 14.73 6.6172 14.73 14.789 0 8.1528-6.616 14.772-14.73 14.772-8.1143 0-14.711-6.6197-14.711-14.772 0-8.1715 6.5964-14.789 14.711-14.789z"/>
   <path id="path6" d="m202.1 168.35-12.342 30.504-12.57-30.504h-11.337l21.12 50.604h5.3463l21.14-50.604z"/>
   <path id="path8" d="m334.05 315.81-110.99-18.052c-10.295 3.1095-21.197 4.8344-32.516 4.8344-61.313 0-111.14-49.955-111.14-111.5 0-61.58 49.826-111.65 111.14-111.65 61.393 0 111.25 50.073 111.25 111.65 0 24.382-7.8301 46.887-21.083 65.277l69.935 37.33c19.642-30.351 30.471-65.863 30.471-102.61 0-105.28-85.489-191.09-190.58-191.09-105.07 0-190.54 85.806-190.54 191.09 0 105.32 85.47 190.94 190.54 190.94 28.231 0 57.179-7.0527 82.738-19.338l60.519-46.546 0.2468-0.34144"/>
  </g>
  <path id="path12" d="m223.01 297.8 10.542 79.024c1.8201-0.43582 3.659-0.89133 5.4795-1.4033 11.698-3.1661 23.111-7.3939 33.937-12.57l-49.96-65.054" fill="#c05255"/>
  <path id="path14" d="m223.01 297.73 88.579 117.19 63.817-48.632-39.57-50.183z" fill="#f39e9f"/>
  <path id="path16" d="m424.33 332.38-26.6-14.075 0.0431-3.7108c0.0665-5.7794 1.1822-13.414 2.8686-19.63 6.4222-23.669 21.68-42.642 48.71-60.566 9.2035-6.1038 16.144-10.09 36.213-20.8 18.315-9.7738 24.06-13.07 32.131-18.438 14.241-9.4707 22.232-18.374 25.642-28.57 2.2244-6.6508 2.5726-14.981 0.94137-22.518-3.472-16.041-15.492-29.363-31.109-34.48-5.3709-1.7594-7.9897-2.1299-14.965-2.1174-5.4134 0.0113-6.5356 0.0858-8.9544 0.60748-6.0801 1.3112-11.743 3.6837-16.724 7.0063-10.459 6.9769-16.73 16.351-22.166 33.132-0.69207 2.1366-1.3904 3.8847-1.5518 3.8847-0.46787 0-47.103-24.702-47.351-25.081-0.13871-0.21241 0.24189-1.7647 1.0036-4.0954 4.9441-15.128 13.036-28.246 24.492-39.705 11.633-11.637 24.978-19.817 40.543-24.849 10.028-3.2422 19.896-4.7602 30.972-4.764 15.737-0.0151 29.9 3.2183 43.851 9.9801 10.699 5.1862 19.341 11.321 27.661 19.639 16.052 16.046 25.981 36.466 28.752 59.131 0.65692 5.3742 0.65254 18.104-4e-3 23.308-3.5202 27.738-17.014 49.173-43.237 68.689-10.449 7.7759-21.528 14.435-42.797 25.724-16.774 8.9028-22.224 12.05-28.085 16.219-5.7071 4.0593-9.7411 7.6774-12.204 10.946-1.5502 2.0572-2.8496 4.8646-2.441 5.2734 0.1217 0.12181 29.431 0.25168 65.128 0.28819l64.907 0.0666v53.463l-149.07 0.11724-26.6-14.075z" fill="#3baeb5"/>
 </g>
 <g id="g935" transform="matrix(.21352 0 0 .21352 80.449 131.98)">
  <g id="g928" fill="#938e92" stroke-width="1.0001">
   <path id="path13-7-0" d="m1338 133.69h32.962v58.004h58.499v-58.004l32.517-2.5e-4v146.54l-32.517-2.4e-4v-58.454h-58.499v58.454h-32.962z"/>
   <path id="path15-9-1" d="m1496.5 133.69c18.201-0.03 36.392 0.03 54.594 0 15.741-0.05 31.872 2.9104 45.533 11.061 14.441 8.3906 25.932 22.041 31.032 38.013 4.4603 13.231 5.0904 27.722 1.9302 41.313-3.5003 16.301-13.211 31.162-26.702 40.953-13.401 10.121-30.282 14.741-46.913 15.201-19.831-0.05-39.663 0.05-59.494 0 0.03-48.833-0.01-97.697 0.02-146.54m32.532 29.542c-0.02 29.162-0.02 58.314 0 87.476 8.6605 0 17.331 0.01 26.002 0 8.7206-0.29002 17.621-2.5602 24.822-7.6405 16.391-10.821 21.172-33.612 15.051-51.493-4.3203-14.211-17.301-25.002-31.862-27.372-4.0031-0.65177-8.0308-0.97006-12.072-0.97006z"/>
  </g>
  <g id="g898" transform="translate(-116.79 897.8)">
   <path id="path11-8-5-6" transform="matrix(.75 0 0 .75 116.79 0)" d="m1793.3-1078.3c-34.225 1.6178-62.77 29.667-66.037 66.619l0.041 178.99c3.2671 36.952 31.812 64.999 66.037 66.617h373.4c34.225-1.6177 62.77-29.665 66.037-66.617l0.041-178.99c-3.2669-36.952-31.812-65.001-66.037-66.619zm373.48 25.543c21.055 0.8401 39.364 19.508 39.924 40.576v179.46c-0.56 21.068-18.869 39.736-39.924 40.576-137.79-0.1259-235.71 0.20365-373.48 2.8e-4 -21.055-0.84008-39.364-19.508-39.924-40.576v-179.46c0.56-21.068 18.869-39.736 39.924-40.576 137.76-0.029 235.68-0.01 373.48 0z" fill="#938e92" stroke-width="1.3334"/>
  </g>
 </g>
</svg>
