<svg width="800" height="241.59" version="1.1" viewBox="0 0 800 241.59" xml:space="preserve" xmlns="http://www.w3.org/2000/svg"><defs>
		<linearGradient id="path7306_00000175301641653751168690000000887062033999610498_" x1="120" x2="120" y1="402" y2="2.01" gradientTransform="matrix(.60414 0 0 -.60414 -3.07e-6 242.86)" gradientUnits="userSpaceOnUse">
		<stop stop-color="#FFE9CC" offset="0"/>
		<stop stop-color="#D2A86E" offset="1"/>
	</linearGradient>
</defs>
<path d="m72.497-1.2382e-6c-5.6185 6.4039-9.0621 14.741-9.0621 23.924 0.36248 20.178 2.779 40.296 3.0207 60.414 0.4229 18.789-5.1956 36.43-12.022 53.647-2.2957 4.7727-4.7727 9.4246-7.1892 14.076l-7.2497-1.4499c-6.5247-1.3291-10.814-7.6726-9.485-14.197 1.1479-5.7393 6.1622-9.7266 11.781-9.7266l2.6582 0.30207-5.9206-49.298c-1.9937-21.991-13.291-41.263-29.965-53.768-2.8395-2.1749-5.9206-4.1081-9.0621-5.8601v175.02h40.417c3.0207 16.372 12.022 30.69 24.709 40.477 3.0207 2.0541 5.5581 4.8331 7.3705 8.035 1.8124-3.2019 4.3498-5.9206 7.3705-8.035 12.687-9.787 21.689-24.105 24.709-40.477h40.417v-175.02c-3.1415 1.752-6.2226 3.6852-9.0621 5.8601-16.674 12.506-27.972 31.778-29.905 53.708l-5.9206 49.298 2.6582-0.30207c5.6185 0 10.633 3.9873 11.781 9.7266 1.3291 6.5247-2.9603 12.929-9.485 14.197l-7.2497 1.4499c-2.477-4.6519-4.9539-9.3037-7.1892-14.076-6.8268-17.218-12.506-34.859-12.022-53.647 0.24166-20.178 2.6582-40.296 3.0207-60.414-0.060414-9.1225-3.504-17.46-9.1225-23.863zm-60.414 43.317c7.7934 9.1829 13.049 20.601 14.62 33.167l4.8331 40.659c-6.1622 3.0811-10.874 8.76-12.626 15.587h-6.8268zm120.83 0v89.412h-6.8268c-1.752-6.8268-6.4643-12.506-12.626-15.587l4.8935-40.659c1.5104-12.566 6.7664-24.045 14.56-33.167zm-60.414 81.68c3.2623 10.633 7.733 20.722 13.231 30.086-5.256 1.6312-9.8475 4.7123-13.231 8.9412-3.3832-4.229-7.9746-7.3101-13.231-8.9412 5.4977-9.3641 9.9683-19.453 13.231-30.086zm-60.414 19.816h6.8268c2.1749 8.3371 8.6996 14.922 16.916 17.218l5.7997 1.3291c-1.5708 5.6185-2.4166 11.599-2.4166 17.701h-27.126zm114 0h6.8268v36.248h-27.186c0-6.1018-0.8458-12.083-2.4166-17.701l5.7997-1.3291c8.2767-2.2957 14.801-8.8808 16.976-17.218zm-72.617 21.326c7.3101 1.027 12.989 7.3101 12.989 14.922h-15.103c0-5.1956 0.78538-10.21 2.1145-14.922zm38.061 0c1.3291 4.7727 2.1145 9.7266 2.1145 14.922h-15.103c0-7.6121 5.6789-13.895 12.989-14.922zm-38.786 27.005h13.714v25.434c-6.6455-7.008-11.539-15.708-13.714-25.434zm25.797 0h13.714c-2.2353 9.7266-7.0684 18.487-13.714 25.434z" fill="url(#path7306_00000175301641653751168690000000887062033999610498_)" stroke-width=".60414"/><g transform="matrix(.60414 0 0 .60414 -3.07e-6 -1.2382e-6)">
			<linearGradient id="SVGID_1_" x1="328.44" x2="1301.5" y1="221.63" y2="221.63" gradientTransform="matrix(1,0,0,-1,0,402)" gradientUnits="userSpaceOnUse">
			<stop stop-color="#162544" offset="0"/>
			<stop stop-color="#000415" offset="1"/>
		</linearGradient>
		<path class="st1" d="m361.3 305v-249.2h101.8c29.4 0 52.7 8 69.8 23.8 17.1 15.9 25.6 36.9 25.6 63 0 27.8-9.5 49.3-28.5 64.6s-43.1 23-72.3 23h-41.6v74.8zm54.8-123.6h43.4c13.5 0 24.1-3.6 31.9-10.7 7.7-7.1 11.6-16.4 11.6-27.8 0-12.1-3.9-21.4-11.7-27.9s-18.8-9.8-32.7-9.8h-42.4z" fill="url(#SVGID_1_)"/>
			<linearGradient id="SVGID_00000016769025490856971560000008598029907543411585_" x1="327.77" x2="1301.9" y1="222.52" y2="222.52" gradientTransform="matrix(1,0,0,-1,0,402)" gradientUnits="userSpaceOnUse">
			<stop stop-color="#162544" offset="0"/>
			<stop stop-color="#000415" offset="1"/>
		</linearGradient>
		<path d="m531.3 305 106.7-251h50.5l106.8 251h-57.3l-22.8-55.9h-105.3l-22.8 55.9zm98.2-104.3h66.2l-33.1-80.8z" fill="url(#SVGID_00000016769025490856971560000008598029907543411585_)"/>
			<linearGradient id="SVGID_00000023249492664872572120000016061603754043951747_" x1="327.9" x2="1302.1" y1="195.65" y2="195.65" gradientTransform="matrix(1,0,0,-1,0,402)" gradientUnits="userSpaceOnUse">
			<stop stop-color="#162544" offset="0"/>
			<stop stop-color="#000415" offset="1"/>
		</linearGradient>
		<path d="m796.5 356.9v-101.4h23.5c9.7-22.5 16.7-46.4 21-71.6s6.4-58.1 6.4-99v-29.1h181.2v199.7h29.9l-7.1 101.5h-45.9v-52h-156l-3.6 52h-49.4zm177.3-251.7h-73.7v25.3c0 47-7.5 88.6-22.4 125h96.1z" fill="url(#SVGID_00000023249492664872572120000016061603754043951747_)"/>
		<path d="m1060.1 305 106.8-251h50.5l106.8 251h-57.3l-22.8-55.9h-105.4l-22.8 55.9zm98.2-104.3h66.2l-33.1-80.8z" fill="url(#SVGID_00000016769025490856971560000008598029907543411585_)"/>
	</g>
</svg>
