<svg width="800pt" height="135.33pt" version="1.1" viewBox="0 0 800 135.33" xmlns="http://www.w3.org/2000/svg">
 <g transform="matrix(1.2324 0 0 1.2324 -108.08 .49656)" stroke-width="1.3557">
  <path d="m211.79 93.272h6.1006v-33.892c0-9.8966 4.4738-14.099 14.099-14.099v-6.5073c-5.965 0-10.439 1.6268-14.37 9.2187h-0.27114c-0.13557-2.1691-0.27114-5.4228-0.40671-8.5409h-5.6939c0.13557 5.5583 0.40671 11.117 0.40671 16.675v37.146z"/>
  <path d="m271.58 56.533c0-3.9315 0-17.76-16.539-17.76-5.9651 0-9.761 2.0335-14.777 4.7449l0.94899 6.5073c0.67784-0.54228 6.3718-5.5583 13.421-5.5583 11.117 0 11.117 9.761 11.117 16.404h-3.796c-7.7275 0-25.894 0.27114-25.894 17.488 0 8.6764 6.6429 15.59 14.913 15.59 6.914 0 11.388-2.5758 15.048-8.4053h0.27114l0.4067 7.7275h5.4228c-0.27114-4.0671-0.67785-7.9986-0.67785-12.066v-24.674zm-5.6939 15.997c0 14.642-10.574 15.862-13.421 15.862-6.5073 0-9.8966-5.4228-9.8966-9.8966 0-12.201 10.574-12.201 23.318-12.201z"/>
  <path d="m321.6 14.235h-6.1006v32.266h-0.27114c-2.7114-5.0161-6.7785-7.7275-13.557-7.7275-13.421 0-17.76 15.319-17.76 25.623 0 7.4563 0.67785 29.554 18.166 29.554 6.7785 0 10.168-3.1181 14.099-8.1342h0.27114v7.3208h5.6939c-0.27114-4.6094-0.40671-9.3543-0.40671-17.76v-61.142zm-31.181 52.194c0-12.472 3.1181-21.962 12.337-21.962 13.15 0 13.15 15.319 13.15 22.505 0 10.981-2.847 21.284-13.286 21.284-12.201 0-12.201-17.488-12.201-21.827"/>
  <path d="m337.06 93.272h6.1006v-53.821h-6.1006zm-0.54227-65.616h7.3208v-9.4899h-7.3208z"/>
  <path d="m376.37 88.256c-13.557 0-13.557-17.624-13.557-21.962 0-4.3382 0-21.962 13.557-21.962s13.557 17.624 13.557 21.962c0 4.3382 0 21.962-13.557 21.962m0 5.6939c15.726 0 20.064-14.099 20.064-27.656s-4.4738-27.656-20.064-27.656c-15.726 0-20.064 14.099-20.064 27.656s4.3382 27.656 20.064 27.656"/>
  <path d="m409.04 14.235v69.818c0 3.9315-0.13557 7.3208-0.40671 9.2187h12.201c0.27114-1.6268 0.40671-4.7449 0.40671-8.4053h0.27114c2.0335 4.6094 5.965 9.2187 14.37 9.2187 13.421 0 19.115-12.879 19.115-27.927 0-17.76-7.0496-28.063-18.709-28.063-7.863 0-12.066 4.4738-13.964 8.6764h-0.27114v-32.537zm13.015 51.788c-2.1691-10.71 1.6268-18.302 10.168-18.166 7.3208 0 9.761 7.0496 9.761 17.895 0 12.472-2.0336 18.844-9.6254 18.844-7.5919-0.13557-10.303-8.4053-10.303-18.573"/>
  <path d="m466.93 93.272h13.015v-29.69c0-10.168 5.9651-13.421 11.252-13.421 1.3557 0 2.5758 0.27114 3.6604 0.54228v-12.201c-0.67784-0.13557-1.3557-0.27114-2.1691-0.27114-8.1342 0-12.201 6.5073-13.828 10.71h-0.27114c0-3.2537-0.27114-6.6429-0.40671-9.8966h-11.795c0.27114 2.4402 0.40671 5.5583 0.40671 8.9476v45.28z"/>
  <path d="m540.68 80.258c-2.4402 1.7624-6.2362 4.2027-14.235 4.2027-10.168 0-13.828-5.5583-13.828-14.913h31.317v-2.5758c0-22.098-10.032-29.012-21.691-29.012-13.828 0-22.369 12.608-22.369 28.741 0 14.642 7.5919 27.249 25.08 27.249 7.863 0 13.421-2.3047 16.268-3.5248zm-28.063-18.844c0-7.1852 2.847-14.37 9.6254-14.37 5.965 0 9.0832 4.8805 9.0832 14.37z"/>
  <path d="m555.86 93.272h13.015v-32.943c0-5.9651 3.1181-11.523 8.812-11.523 4.8805 0 6.914 3.3892 6.914 10.168v34.299h13.015v-32.943c0-5.9651 3.1181-11.523 8.812-11.523 4.8805 0 6.914 3.3892 6.914 10.168v34.299h13.015v-33.486c0-13.15-3.7959-21.556-15.59-21.556-7.9986 0-11.93 4.8805-14.506 8.6764-1.6268-2.9825-4.4738-8.6764-13.693-8.6764-7.4563 0-11.659 5.1516-13.693 9.3543h-0.27114c0-2.847-0.27114-5.6939-0.40671-8.5409h-13.015c0.27114 2.0335 0.40671 5.0161 0.40671 8.812v45.416z"/>
  <path d="m678.42 80.258c-2.4402 1.7624-6.2362 4.2027-14.235 4.2027-10.168 0-13.828-5.5583-13.828-14.913h31.452v-2.5758c0-22.098-10.032-29.012-21.691-29.012-13.828 0-22.369 12.608-22.369 28.741 0 14.642 7.5919 27.249 25.08 27.249 7.863 0 13.557-2.3047 16.268-3.5248zm-27.927-18.844c0-7.1852 2.847-14.37 9.6254-14.37 5.965 0 9.0832 4.8805 9.0832 14.37z"/>
  <path d="m694.15 93.272h13.015v-31.588c0-6.914 2.4402-12.744 9.2187-12.744 5.4228 0 7.4563 3.5248 7.4563 11.795v32.537h13.015v-34.977c0-10.981-3.6604-20.064-15.997-20.064-8.812 0-12.608 5.9651-14.506 9.2187h0.13557-0.27114c0-2.7114-0.27114-5.5583-0.40671-8.2697h-12.201c0.27114 2.4403 0.40671 5.5583 0.40671 8.9476v45.145z"/>
 </g>
 <path d="m67.581-4.1174e-6c37.432 0 67.751 30.318 67.751 67.581 0 37.432-30.318 67.751-67.581 67.751-37.432 0-67.751-30.318-67.751-67.751 0-37.263 30.318-67.581 67.581-67.581m0 18.124c-27.439 0-49.627 22.187-49.627 49.626 0 24.39 17.446 44.546 40.481 48.78v-48.95h18.123v48.781c23.035-4.2344 40.481-24.39 40.481-48.781 0.16917-27.27-22.019-49.457-49.458-49.457" fill="#ed7e00" stroke-width="1.6938"/>
</svg>
