<svg width="800" height="325.35" enable-background="new 0 0 1260 720" version="1.0" viewBox="0 0 800 325.35" xml:space="preserve" xmlns="http://www.w3.org/2000/svg">
<g transform="matrix(.64515 0 0 .64515 -6.4366 -69.547)" fill="#1d1d1b"><g fill="#1d1d1b"><g fill="#1d1d1b"><path d="m1250 223c0-53.8-43.2-95.9-98.3-95.9-21.2 0-40.7 6.3-56.6 17-6.5-8.9-17-14.7-28.9-14.7h-31.9c-12.2 0-23 6.1-29.5 15.5-16.7-9.9-37.4-15.5-60.8-15.5h-53.8c-15.8 0-29.2 10.2-34 24.4l-2-4.3c-5.8-12.8-18.6-21-32.7-21h-33.5c-14.1 0-26.9 8.2-32.7 21l-9.1 19.9c-3.5-6.5-8-12.5-13.5-17.7-15.6-14.8-37.3-22.3-64.5-22.3h-64.3c-19.8 0-35.9 16.1-35.9 35.9v81.8c-6.8-21.2-17.2-41-31.1-58.6-41.1-52-106.5-80.7-184.2-80.7-69.4 0-141.4 23.5-202.9 66.1-75.8 52.7-125.8 127.3-137.4 204.8-8.4 56.6 5.2 110.8 38.3 152.8 40.5 51.2 107.6 80.6 184.2 80.6 69.4 0 141.4-23.5 202.8-66.1 71-49.3 119.4-117.9 134.7-190.1 6.3 6.9 15.3 11.4 25.3 11.8v52c0 4.3 0.8 8.3 2.1 12.1-26.4 15.5-44.1 44.2-44.1 76.9 0 49.2 40 89.3 89.3 89.3h515.6c49.2 0 89.3-40 89.3-89.3 0-29.5-14.3-55.6-36.4-71.9 22.3-17.5 36.4-44.5 36.4-75.2v-0.3c0-27.3-11.1-51.6-29.3-68.9 18.1-17.4 29.3-41.7 29.3-69v-0.4z" fill="#1d1d1b"/></g></g></g><g transform="translate(-794.87 426.75)" fill="#fff" stroke-width=".64515"><path d="m1174.9-282.24v-18.193h65.547v18.193h-22.451v56.709h-20.774v-56.709z"/><path d="m1274.4-300.43v74.902h-20.58v-74.902z"/><path d="m1358.7-286.43-15.613 12.064c-4.258-5.2257-9.2257-8.774-16.387-8.774-10.516 0-17.871 8.9676-17.871 19.871v0.19354c0 11.226 7.3547 20 17.871 20 7.8063 0 12.387-3.6128 16.903-9.0966l15.613 11.097c-7.0321 9.7418-16.58 16.903-33.032 16.903-21.354 0-38.58-16.387-38.58-38.709v-0.19355c0-21.806 16.709-38.967 39.354-38.967 15.29 0.0645 25.161 6.516 31.741 15.613z"/><path d="m1391.4-300.43v74.902h-20.58v-74.902z"/><path d="m1460.2-260.89v-39.548h20.516v74.902h-18.064l-32.064-41.096v41.096h-20.516v-74.902h19.354z"/><path d="m1531.5-301.98c-23.096 0-40.451 17.485-40.451 38.969v0.19336c0 21.483 17.097 38.709 40.193 38.709s40.451-17.419 40.451-38.902v-0.25977c0-21.483-17.097-38.709-40.193-38.709zm-0.2578 18.775c11.419 0 19.16 9.2903 19.096 20.193v0.19336c0 10.774-7.5477 20-18.902 20-11.419 0-19.225-9.4194-19.225-20.193v-0.19336c0-10.774 7.6121-20 19.031-20z"/><path d="m1531.5-391.08c-23.096 0-40.451 17.419-40.451 38.902v0.19336c0 21.483 17.097 38.709 40.193 38.709s40.451-17.419 40.451-38.902v-0.19336c0-21.483-17.097-38.709-40.193-38.709zm-0.2578 18.645c11.419 0 19.16 9.3548 19.096 20.193v0.19336c0 10.774-7.5477 20-18.902 20-11.419 0-19.225-9.4194-19.225-20.193v-0.19336c0-10.774 7.6121-20 19.031-20z"/><path d="m1455.7-389.66h20.58v74.902h-20.58z"/><path d="m1362.6-389.66v74.902h34.258c28.258 0 44.774-16.063 44.774-37.676v-0.19336c0-21.612-16.258-37.033-44.258-37.033h-34.709zm21.871 18.322h13.16c13.161 0 21.807 7.0334 21.807 19.098v0.19336c0 12.064-8.6455 18.902-21.807 18.902h-13.16z"/><path d="m1296.7-390.17-34.387 75.418h23.484l5.8046-13.482h31.356l5.8066 13.482h24.062l-34.514-75.418zm10.644 24.58 9.0332 21.227h-18.193z"/><path d="m1178-389.66v74.773h21.805v-22.645h13.936l15.871 22.645h25.031l-18.773-26.064c9.8063-3.9354 16.193-11.548 16.193-23.096v-0.19336c0-7.3547-2.3863-13.033-6.9668-17.42-5.2903-5.0322-13.614-8-25.613-8zm21.805 17.936h18.646c7.2257 0 11.805 2.9689 11.805 8.9688v0.19336c0 5.4193-4.3856 8.8378-11.676 8.9024h-18.775z"/><path d="m1571.7-168.11c0 19.032-15.419 34.386-34.386 34.386h-332.7c-19.032 0-34.386-15.419-34.386-34.386 0-19.032 15.419-34.386 34.386-34.386h332.64c19.032 0 34.451 15.355 34.451 34.386z"/><path d="m1057.7-163.15c-76.579 53.16-174.32 51.031-218.32-4.7096-43.999-55.741-17.677-144 58.902-197.16s174.32-51.031 218.32 4.7096c43.999 55.741 17.677 144.06-58.902 197.16z"/></g><g fill="#1d1d1b"><path transform="matrix(.64515 0 0 .64515 -6.4366 -69.547)" d="m745.4 481.5v18.8h-17.9v-18.8h-14v50.4h14v-19.2h17.9v19.2h14v-50.4z"/><path transform="matrix(.64515 0 0 .64515 -6.4366 -69.547)" d="m1154.1 519.7v-38.2h-14v50.4h38.5v-12.2z"/><path transform="matrix(.64515 0 0 .64515 -6.4366 -69.547)" d="m1075.2 520v-8h24.2v-11h-24.2v-7.7h26.7v-11.8h-40.5v50.4h40.9v-11.9z"/><path d="m520.26 240.83-13.806 32.774h9.4192l2.3225-5.8709h12.58l2.3225 5.8709h9.6772l-13.871-32.774zm0.64515 19.871 3.6774-9.2256 3.6128 9.2256z" stroke-width=".64515"/><path transform="matrix(.64515 0 0 .64515 -6.4366 -69.547)" d="m987.2 481.5h-13.1v50.4h13.9v-27.7l21.6 27.7h12.2v-50.4h-13.9v26.6z"/><path d="m416.07 266.06c-4.5806 0-7.7418-3.8064-7.7418-8.7095v-0.0645c0-4.7741 3.2257-8.645 7.7418-8.645 3.0967 0 5.2257 1.5484 7.0966 3.8064l6.7741-5.2257c-2.9032-3.9354-7.1612-6.7741-13.806-6.7741-9.8708 0-17.096 7.4192-17.096 16.903v0.0645c0 9.7418 7.4837 16.838 16.774 16.838 7.1612 0 11.29-3.0967 14.387-7.3547l-6.7741-4.8386c-2 2.387-3.9999 3.9999-7.3547 3.9999z" stroke-width=".64515"/><path transform="matrix(.64515 0 0 .64515 -6.4366 -69.547)" d="m900 481.5h-13.1v50.4h13.9v-27.7l21.6 27.7h12.2v-50.4h-13.9v26.6z"/><path d="m305.49 124.9h-17.548l5.9354-16.451c0.51612-1.4193-0.58063-2.8387-2.0645-2.8387h-44.967c-0.90321 0-1.7419 0.58064-2.0645 1.4193l-6.3225 17.871h-28.193l2.5806-7.2902c4.387-11.677 14.516-24.709 30.064-28.451 22.451-5.4193 46.967 1.1613 56.451 4.5806 0.51612 0.19354 0.90321-0.51612 0.38709-0.83869-10.839-6.516-42.515-22.709-71.289-21.032-36.838 2.1935-49.676 18.709-54.515 26-3.7419 5.1612-7.0321 11.613-10.322 19.677l-2.5806 7.4192h-30.774c-33.999 0.12903-52.515 19.935-61.999 44.902 0 0.0645-0.06452 0.12903-0.06452 0.19354l-11.613 37.677c-0.38709 1.1613 0.58063 2.387 1.8064 2.387h43.548c0.77418 0 1.5484-0.51612 1.8064-1.2258l12.387-34.903c8.3224-23.871 13.677-32.774 40.193-35.999l-24.451 71.031c-0.19354 0.51612 0.19355 1.0968 0.77418 1.0968h47.354c0.32257 0 0.64515-0.19354 0.77418-0.51612l24.258-70.773h28.064l-20.129 57.418c-5.2257 13.871-15.806 26.774-29.354 30.064-23.677 5.8709-48.709-2.9677-56.838-6.0644-0.32258-0.12903-0.58064 0.32258-0.25806 0.51612 9.1611 5.7418 41.483 24.838 71.483 22.967 22-1.3548 35.225-8.0644 43.483-14.58 3.7419-2.9677 14.064-11.484 21.871-35.741l19.29-54.58h17.161c0.58064 0 1.0968-0.32258 1.2903-0.90321l4.9031-12.258c0.25806-0.32257-0.0645-0.77418-0.51612-0.77418z" stroke-width=".64515"/></g>
</svg>
