<svg width="1002.9pt" height="518pt" version="1.1" viewBox="0 0 1002.9 518" xmlns="http://www.w3.org/2000/svg">
 <defs>
  <linearGradient id="a" x1="292.39" x2="292.39" y1="55.742" y2="553.05" gradientUnits="userSpaceOnUse">
   <stop stop-color="#01aad5" offset="0"/>
   <stop stop-color="#0460a9" offset="1"/>
  </linearGradient>
 </defs>
 <g transform="translate(-38.376 -45.369)" fill="#fff">
  <path d="m272.28 46.41c38.59-3.53 78 1.95 114.14 15.94 63.24 23.94 115.57 74.32 142.87 136.07 17.31 38.91 24.83 82.1 21.68 124.57-2.86 42.87-16.75 84.93-39.89 121.12-20.05 31.71-47.21 58.85-78.77 79.11-35.63 22.84-77.04 36.63-119.28 39.5-46.86 3.37-94.63-6.49-136.19-28.42-35.72-18.71-66.89-45.95-90.23-78.83-32.04-44.58-49.1-99.58-48.2-154.46 0.43-53.02 17.77-105.71 48.82-148.68 22.24-30.95 51.4-56.94 84.8-75.32 30.79-17.03 65.17-27.63 100.25-30.6"/>
  <path d="m251.56 147.72c5.41-4.38 12.74-5.83 19.53-4.8 9.22 1.74 17.49 8.85 19.86 18.04 1.55 7.89 1.62 15.98 1.6 24-0.02 10.86 0.09 21.72-0.07 32.58 7.51 0.11 15.03-0.2 22.53 0.2 7.06 0.41 14.37 4.2 17.16 10.99 3.01 7.29 1.58 17.5-5.86 21.58-10.3 5.62-22.44 4.5-33.75 4.58 0.01 33.69-0.13 67.38 0.03 101.06 0.33 7.07-0.2 14.68 3.38 21.07 2.06 4.11 6.69 6.33 11.13 6.53 9.76 0.93 19.05-3.64 28.79-3 7.42 1.15 13.58 7.89 14.08 15.4 0.7 6.22-1.78 12.53-6.52 16.61-6.98 5.7-15.92 8.21-24.66 9.66-11.21 1.5-22.61 1.91-33.87 0.72-10.45-1.23-21.36-4.19-28.97-11.9-5.85-5.18-9.51-12.41-11.22-19.96-3.97-17.06-3.33-34.7-3.37-52.08 0.06-27.93-0.15-55.87 0.09-83.8-6.16-0.63-12.64 0.42-18.48-2.13-3.06-1.57-6.27-3.42-7.9-6.59-0.32-0.09-0.95-0.28-1.27-0.37-0.79 8.49-7.62 15.52-15.53 18.04-6.26 1.69-12.3-1.38-18.21-3-9.8-3.11-20.77-5.23-30.69-1.46-8.41 3.07-13.85 11.06-16.87 19.13-6.22 16.98-6.99 35.27-7.67 53.15-0.38 20.35-0.1 40.71-0.21 61.07-0.04 7.22-1.39 14.78-5.69 20.75-8.11 11.63-26.93 13.29-36.97 3.31-6.46-6.1-8.43-15.47-8.49-24.04-0.05-48 0.02-96-0.05-144-0.04-9.55 0.93-19.78 6.63-27.78 4.25-5.93 11.83-8.47 18.9-8.15 6.24-0.22 12.96 1.88 16.94 6.9 5.46 7.2 6.83 16.61 6.93 25.42 5.82-9.69 12.3-19.32 21.45-26.17 11.82-7.72 27.05-7.31 40.25-3.9 10.57 3.16 21.55 8.12 27.63 17.82 0.87-7.51 7.54-13.27 14.7-14.68 4.76-1.29 9.7-0.85 14.57-1.03-0.13-16.11-0.32-32.24 0.29-48.34 0.37-8.01 3.22-16.47 9.85-21.43z"/>
  <path d="m339.36 231.92c2.29-11.04 13.38-19.46 24.63-18.8 6.41-0.19 13.59 2.02 17.01 7.84 5.56 9.29 8.69 19.75 12.24 29.9 13.29 37.4 26.33 74.88 39.67 112.26 3.88-12.24 8.7-24.19 12.94-36.31 8.88-24.46 17.8-48.9 26.68-73.36 4.36-11.33 7.45-23.41 14.56-33.43 3.93-5.77 11.44-7.34 18.01-6.81 11.89 0.45 22.73 11.79 21.32 23.88-0.68 5.67-2.54 11.14-4.71 16.4-19.35 48.44-38.67 96.9-57.97 145.36-3.96 9.46-9.74 19.5-20.03 23-10.26 3.41-22.98 2.32-30.98-5.56-4.51-3.71-7.24-8.98-9.56-14.22-9.23-20.83-17.16-42.19-25.83-63.25-10.42-26.33-21.04-52.57-31.47-78.88-3.25-8.98-7.84-18.21-6.51-28.02z"/>
 </g>
 <g transform="translate(-38.376 -45.369)" fill="url(#a)">
  <path d="m612.02 163.92a26.388 26.388 0 0 1-26.388 26.388 26.388 26.388 0 0 1-26.388-26.388 26.388 26.388 0 0 1 26.388-26.388 26.388 26.388 0 0 1 26.388 26.388z" style="paint-order:stroke fill markers"/>
  <path d="m268.5 56.81c46.57-5.03 94.58 3.39 136.38 24.63 31.74 15.9 59.93 38.85 82.08 66.58 25.57 31.8 43.03 70.02 50.48 110.12 8.37 45.06 4.36 92.43-11.98 135.28-13.09 34.75-34.22 66.38-61 92.07-27.61 26.15-61.14 46.18-97.59 57.2-44.83 13.86-93.68 14.29-138.81 1.46-38.73-10.95-74.64-31.73-103.52-59.76-39.27-37.67-65.5-88.6-73.4-142.43-8.7-56.93 2.86-116.78 32.61-166.13 17.15-28.51 39.84-53.75 66.82-73.26 34.37-25.27 75.52-41.15 117.93-45.76" fill="url(#a)"/>
  <path d="m783.07 148.14c3.1793-7.6997 11.254-13.027 19.592-12.858 7.1276-0.51582 14.827 1.5662 19.573 7.1745 4.3891 5.4864 6.6071 12.605 6.4758 19.601v242.93c0.17819 8.4781-3.0714 17.331-9.9928 22.536-5.6552 4.8487-13.618 4.9894-20.614 3.9577-6.9992-1.7118-12.791-6.9032-15.763-13.398-3.0947-6.3911-2.8759-13.569-2.8389-20.759-9.5285 10.626-20.591 20.839-33.655 26.991-10.016 4.8393-21.111 7.7091-32.262 7.5966-6.2651 9e-3 -12.605 0.15006-18.748-1.1911-18.729-3.7514-35.741-14.865-47.136-30.133-15.709-20.342-22.161-46.311-23.568-71.586-0.75965-23.934 2.0258-48.815 13.355-70.273 8.5532-16.356 22.452-30.077 39.521-37.345 16.375-6.7056 34.616-7.6528 51.966-5.0269 14.246 2.3634 27.46 9.2097 38.217 18.748 4.3422 3.4606 7.9955 7.7466 12.31 11.245l-3.2e-4 -82.334c-0.0281-5.4676 1.5428-10.842 3.5685-15.878m-65.443 107.46c-12.717 2.2227-23.596 10.992-29.908 22.049-7.7748 12.82-10.71 28.06-10.457 42.916-0.30011 12.783 0.4783 25.941 5.6458 37.823 4.4548 11.489 12.605 21.946 23.821 27.423 10.945 5.7584 24.253 6.0022 35.798 1.9507 10.87-4.0421 19.789-12.548 25.069-22.799 7.334-13.514 9.0221-29.261 8.5626-44.407 0.24384-9.5285-1.238-19.066-4.1547-28.135-4.633-13.824-13.571-26.954-27.094-33.294-8.3656-4.4079-18.11-4.5392-27.282-3.5263z" stroke-width=".93785"/>
  <path d="m920.84 215.29c7.0436-0.42368 14.106-1.0726 21.165-1.1498 15.262 0.27477 31.833 1.7796 45.225 5.417 11.339 2.973 22.002 9.144 29.645 18.11 7.953 9.5942 11.217 22.002 13.271 34.053 2.3446 14.283 1.5382 28.792 1.6507 43.207v40.327c0.019 5.8897-0.2437 11.836 0.9379 17.641 1.5662 10.11 4.8862 19.817 7.3809 29.711 1.1911 4.5392 1.932 9.5192 0.056 13.983-4.708 11.207-18.232 18.185-29.992 14.443-8.0655-3.1793-13.477-10.298-18.532-16.984-2.6635-3.8733-5.1957-7.8404-7.7748-11.779-8.7595 6.7994-17.932 13.12-27.779 18.241-11.639 6.2648-24.581 10.072-37.748 11.198-14.415 1.9038-29.364-0.24384-42.747-5.9084-11.967-5.5521-22.565-14.705-28.454-26.654-4.3985-8.2624-6.9401-17.613-6.6024-27.01-1.116-20.483 10.86-40.674 28.811-50.334 10.384-6.3973 25.519-9.0315 38.677-11.967l72.355-17.313c-0.55333-10.598-1.8476-21.927-8.2812-30.743-5.1019-7.0057-14.227-8.6563-22.246-9.838-10.157-0.71277-20.511-0.3939-30.396 2.2414-11.367 3.2918-20.211 12.23-26.091 22.189-4.8519 7.3034-8.7232 15.719-17.657 16.483-4.4936 0.3384-9.482-0.0632-13.217-1.6589-5.8998-2.5793-10.731-7.7046-12.239-14.008-1.7632-10.56 1.8007-21.345 7.6528-30.077 6.8932-10.579 17.744-17.847 29.083-22.958 10.626-4.9987 22.264-7.3433 33.847-8.8627m36.548 116.21c-12.98 2.7854-25.922 5.7021-38.808 8.8533-8.2155 1.9507-15.831 6.4712-21.205 12.999-4.858 6.9119-5.327 16.225-2.5416 24.037 3.2168 9.1346 11.592 15.737 20.745 18.316 9.8099 2.7198 20.211 0.89095 29.749-2.082 11.929-4.2391 23.484-11.845 28.942-23.69 6.3492-13.927 6.2179-29.673 6.0679-44.679-7.7279 1.81-15.203 4.5298-22.949 6.2461z" stroke-width=".93785"/>
  <path d="m576.11 216.1c8.5907-2.5791 18.757-1.7444 25.856 4.164 7.9342 6.4149 9.88 15.752 9.88 27.141v156.68c0 6.858-2.5277 13.167-6.2978 18.598-4.7736 6.1429-10.586 9.3112-20.426 9.3112-8.6945 0-14.668-3.0182-19.076-8.861-4.8674-6.4993-6.7384-13.671-6.7384-22.846v-156.68c0.0375-5.6834 1.5146-11.348 4.0374-16.422 2.8135-4.9894 7.3621-9.0971 12.764-11.085z" stroke-width=".93785"/>
 </g>
 <g transform="translate(-38.376 -45.369)">
  <path d="m251.56 147.72c-6.63 4.96-9.48 13.42-9.85 21.43-0.61 16.1-0.42 32.23-0.29 48.34-4.87 0.18-9.81-0.26-14.57 1.03-7.16 1.41-13.83 7.17-14.7 14.68-6.08-9.7-17.06-14.66-27.63-17.82-13.2-3.41-28.43-3.82-40.25 3.9-9.15 6.85-15.63 16.48-21.45 26.17-0.1-8.81-1.47-18.22-6.93-25.42-3.98-5.02-10.7-7.12-16.94-6.9-7.07-0.32-14.65 2.22-18.9 8.15-5.7 8-6.645 18.23-6.605 27.78v144c0.06 8.57 2.055 17.94 8.515 24.04 10.04 9.98 28.86 8.32 36.97-3.31 4.3-5.97 5.65-13.53 5.69-20.75 0.11-20.36-0.17-40.72 0.21-61.07 0.68-17.88 1.45-36.17 7.67-53.15 3.02-8.07 8.46-16.06 16.87-19.13 9.92-3.77 20.89-1.65 30.69 1.46 5.91 1.62 11.95 4.69 18.21 3 7.91-2.52 14.74-9.55 15.53-18.04 0.32 0.09 0.95 0.28 1.27 0.37 1.63 3.17 4.84 5.02 7.9 6.59 5.84 2.55 12.32 1.5 18.48 2.13l-0.09 83.8c0.04 17.38-0.6 35.02 3.37 52.08 1.71 7.55 5.37 14.78 11.22 19.96 7.61 7.71 18.52 10.67 28.97 11.9 11.26 1.19 22.66 0.78 33.87-0.72 8.74-1.45 17.68-3.96 24.66-9.66 4.74-4.08 7.22-10.39 6.52-16.61-0.5-7.51-6.66-14.25-14.08-15.4-9.74-0.64-19.03 3.93-28.79 3-4.44-0.2-9.07-2.42-11.13-6.53-3.58-6.39-3.05-14-3.38-21.07l-0.03-101.06c11.31-0.08 23.45 1.04 33.75-4.58 7.44-4.08 8.87-14.29 5.86-21.58-2.79-6.79-10.1-10.58-17.16-10.99-7.5-0.4-15.02-0.09-22.53-0.2 0.16-10.86 0.05-21.72 0.07-32.58 0.02-8.02-0.05-16.11-1.6-24-2.37-9.19-10.64-16.3-19.86-18.04-6.79-1.03-14.12 0.42-19.53 4.8m87.8 84.2c-1.33 9.81 3.26 19.04 6.51 28.02l57.3 142.13c2.32 5.24 5.05 10.51 9.56 14.22 8 7.88 20.72 8.97 30.98 5.56 10.29-3.5 16.07-13.54 20.03-23l57.97-145.36c2.17-5.26 4.03-10.73 4.71-16.4 1.41-12.09-9.43-23.43-21.32-23.88-6.57-0.53-14.08 1.04-18.01 6.81-7.11 10.02-10.2 22.1-14.56 33.43l-39.62 109.67-39.67-112.26c-3.55-10.15-6.68-20.61-12.24-29.9-3.42-5.82-10.6-8.03-17.01-7.84-11.25-0.66-22.34 7.76-24.63 18.8z" fill="#fff"/>
 </g>
</svg>
