<svg version="1.1" viewBox="0 0 600.02 286.9" xmlns="http://www.w3.org/2000/svg">
 <path d="m200.33 122.88v0.0316-0.0316m51.638-81.002-1.996 2.9814h-0.0947l2.0781-2.9814m-106.12 187.17 453.94 10.106-0.31582-45.125s-5.8617 0-10.44-0.0316c0.0316-7.9335 0.0632-29.005 0.12633-44.771 4.5984 0.0316 10.581 0.0316 10.581 0.0316l0.12632-48.662-79.805-0.22108c-10.106 0.15791-12.83 0.25266-16.756 1.2128l-9.5555 4.6489c-6.6904-4.8005-15.453-5.9122-28.126-5.9627l-121.43-0.28424v-6.9228c0.0316-4.9016 0.0316-11.016-5.8263-16.423-5.2704-4.851-11.703-5.3058-15.574-5.3564v-7.2766l-49.109-0.0947s-5.0532-8.843-9.7678-13.34c-4.5782-4.3457-9.4747-5.7606-13.836-5.7101 2.2297-2.6782 6.3518-8.4388 6.3922-15.614l-0.18949-2.3245c-1.2633-7.3776-7.322-11.976-7.322-11.976-9.1008-6.1649-17.61-5.5079-22.997-4.6994-12.714-9.8031-28.879-12.633-48.637-8.2367l-1.1622 0.25266-1.1464 0.45478c-21.693 6.2659-48.48 39.01-58.369 53.462l-3.7494 5.508c-7.4029 10.864-13.522 21.274-20.41 33.654-3.3351 6.1143-13.699 12.734-21.238 17.585-9.9699 6.4175-21.183 13.593-21.183 24.761l0.59691 4.6994c1.8949 7.1755 6.6904 11.824 14.189 14.048-13.184 24.407-24.417 34.463-25.756 35.675-0.43584-0.50532-9.5758-15.968-22.921-15.16 0 0-14.978 1.6676-16.044 17.636l2.8203 26.832c3.1986 18.899-2.9403 48.611-2.9403 48.611s34.483 3.5372 49.193-32.138l9.0401 0.28424c5.129 0.45479 26.529 0.22108 38.965-0.33793 22.34-1.0106 48.637-8.7925 48.637-8.7925" fill="#fff"/>
 <path d="m48.32 209.03 376.46 7.8324 160.48 2.7792 0.0316-10.612-222.67-0.45478" fill="#9ac1e9"/>
 <g transform="matrix(.98976 0 0 .98976 2.4792 -4.832)" fill="#9ac1e9">
  <path d="m251.49 92.09 0.0113 3.0974c1.4068-2.3939 2.6776-3.2448 4.8332-3.2448 0.47651 0 0.76015 0.0454 1.3274 0.28364l-0.55593 8.1234c-2.2237-1.0665-3.1995-1.4409-5.6047-2.201l0.034 18.005-7.4654 0.0227-0.034-24.075 7.454-0.0114z"/>
  <path d="m270.03 100.25c0-1.838-0.5219-2.7343-1.6451-2.7343-1.1799 0-1.6905 0.85092-1.6905 2.7343l0.0113 7.4314c0.0114 1.872 0.51055 2.7229 1.6905 2.7116 1.1346 0.0113 1.6564-0.83957 1.6564-2.7116l-0.0227-7.4314zm7.4994 15.872-7.4654 0.0113v-2.6322c-1.2707 2.3939-1.7813 2.7343-4.1411 2.7343h-1.4976c-2.6889 0.0113-3.5852-0.27229-4.2886-1.2594-0.56728-0.85092-0.8963-2.7229-0.90765-4.9807l-0.0113-12.832c0-2.3032 0.22691-3.347 0.97572-4.0844 0.76015-0.76016 1.8266-1.1459 3.2108-1.1459h1.5884c2.3939 0 3.1881 0.37441 4.4588 1.9628l0.56727 0.71477v-2.5414l7.4768-0.0227 0.034 24.075z"/>
  <path d="m290.9 100.2c0-1.872-0.5219-2.7229-1.6451-2.7229-1.1799 0-1.7018 0.85092-1.6905 2.7343l0.0113 7.4314c0 1.872 0.5219 2.7229 1.6905 2.7116 1.1346 0 1.6451-0.83957 1.6451-2.7229l-0.0113-7.4314zm7.4994 15.884h-7.4767v-2.6322c-1.214 2.3599-1.7699 2.7456-4.1298 2.7456h-1.4976c-2.6889 0.0113-3.5852-0.2723-4.2886-1.2594-0.55594-0.85092-0.90765-2.7797-0.90765-4.9921l-0.0113-12.877c-0.0113-2.3032 0.22691-3.2902 0.97572-4.0844 0.79419-0.74881 1.7359-1.0892 3.1994-1.0892h1.5997c2.4847-0.0113 3.1881 0.27229 4.4588 1.9174l0.56727 0.69209-0.0227-9.7686 7.4881-0.0113 0.0454 31.359z"/>
  <path d="m308.56 92 0.0454 24.053-7.4767 0.0227-0.0454-24.064 7.4767-0.0113zm-0.0113-7.2839v5.1169l-7.4654 0.0113-0.0114-5.1169 7.4767-0.0113z"/>
  <path d="m318.65 107.87c0 1.7926 0.5219 2.5754 1.7472 2.5754 1.214 0 1.7813-0.80554 1.7813-2.5754l-0.0227-7.5788c0-1.7926-0.51056-2.5754-1.7813-2.5868-1.2253 0-1.7359 0.81689-1.7359 2.5868m3.8348-8.3163c3.5739-0.0113 5.1622 0.30633 6.1153 1.2026 0.94169 0.89631 1.0438 1.3615 1.0438 5.514l0.0227 10.665c0 4.0844-0.0908 4.5609-1.0324 5.4459-0.94168 0.88496-2.5301 1.2253-6.1039 1.2367h-4.1411c-3.6192 0.0113-5.219-0.31767-6.1493-1.214-0.95303-0.87361-1.0551-1.3388-1.0551-5.4459l-0.0113-10.665c-0.0113-4.1411 0.0794-4.6176 1.0211-5.5026 0.93033-0.8963 2.5301-1.2253 6.1606-1.2253l4.1298-0.0113z"/>
 </g>
 <path d="m221.07 24.645c2.8992 3.7899 11.45-3.3351 20.369 2.6782l-2.1886 8.1861-12.082 13.542-1.7339 5.0532c4.3811 2.0213 7.4989 5.7606 11.622 8.1861 6.6954 2.4255 12.971-5.3058 17.135-1.1622 5.1896 5.1542 2.8234 9.0957 0.69165 12.128-2.1129 2.9308-24.003 5.4574-31.8 15.513-3.1235 3.992-5.5686 7.984-7.3271 12.936l-4.5175 17.636c-1.4591 5.4069 12.592 22.537 9.8688 30.319l-4.2244 2.5266-8.8835-2.8803-6.1396-0.70744c-1.8539 4.851-4.083 7.7313-6.4933 12.229-5.2502 6.7712-10.48 13.644-15.751 20.415-9.2574 9.3484-17.469 19.202-27.494 24.609-12.198 8.6409-27.161 12.481-42.184 15.513-11.506 1.2128-23.765 2.7287-35.372 1.8191l-0.33161 0.25265c-13.406 1.8191-33.144-7.125-38 9.3484l-3.7899 8.8936c-1.936 5.609-8.1103 9.0452-13.856 9.2473l2.5866-14.402c0.18949 0.0947-0.18949-13.138-1.8602-19.101-2.4066-6.6196-2.3655-14.654-2.2676-22.739l1.4591-2.6782c5.5686-0.33793 6.6146 6.4175 9.8537 9.4494 2.7034 3.8404 6.1548 7.8324 12.294 7.125 7.5393-0.50532 14.29-9.6516 17.726-12.38 5.1138-6.2154 9.8688-12.582 14.073-19.202 2.4445-4.3963 5.1744-8.6914 7.125-13.29l1.1275-2.1223c2.5266-4.5478 4.5024-11.117 2.7445-16.726-1.977-4.3457-14.528 0.80851-16.347-6.1649-1.9707-7.5797 30.617-18.495 40.425-36.13 6.3165-11.37 12.34-21.83 19.621-32.492 10.996-15.816 21.36-32.694 38.237-44.114 4.755-4.4973 16.797-9.2473 16.797-9.2473 27.929-6.2154 36.934 6.7712 38.884 7.9335" fill="#100f0d"/>
 <path d="m217.38 27.727-8.4489 6.3165c-6.2356 7.9335-14.866 13.088-23.922 15.816-10.738 3.0319-23.295 4.3457-30.319 14.199-3.3755 7.5292 1.7749 13.644 3.4109 19.909l1.7591 6.1143 1.1464 2.8803c1.9297 9.1968 3.0382 15.665 3.5726 26.832 0.63164 12.33-6.2204 27.135-6.6954 27.792-8.368 15.21-21.809 27.843-34.993 39.01-10.778 8.6409-23.573 13.896-35.711 19.505-12.79 5.7101-26.095 9.9042-40.622 12.178-7.0441-0.33793-10.915 5.9122-13.401 11.521 0 0-2.3087 13.896-10.48 16.979 0.70744-0.60638 2.7382-16.878 1.636-22.79-1.7591-7.8324-4.3811-18.444-4.0476-27.54l6.3569 7.8829c3.4159 5.0532 8.5045 9.2978 15.71 7.7313 6.0588-1.5665 17.312-12.633 18.025-13.542l6.1952-7.5292h0.22108c7.4029-8.9946 13.76-19.202 18.813-29.662l1.7339-6.5691h0.33793c1.636-5.9627 0.78956-10.612-3.709-14.402-4.0476-3.5372-15.043 1.0106-13.522-2.6782l6.9481-6.1143c9.6515-8.8936 21.653-9.5505 29.233-21.83l13.088-20.617c8.0497-12.229 15.574-24.811 24.179-36.737l5.4271-6.5691c10.228-11.016 24.376-27.893 45.398-27.338 9.5151 0.25266 20.748 1.0106 22.684 9.2473" fill="#2b74c2"/>
 <path d="m233.9 29.648c-1.936 4.0931-5.2502 6.7712-8.171 10.46-4.5024 3.8404-9.217 9.0452-14.942 11.066-10.561 3.3351-21.436 6.8723-30.652 12.734l-3.8707 0.55585-3.9667-1.4149-1.7591-5.8111c11.865-5.0026 26.868-3.8909 35.61-14.604 5.9425-3.3856 9.2372-11.319 16.463-12.38l11.289-0.60638" fill="#2b74c2"/>
 <path d="m220.35 61.786 2.4066 1.2128 3.8303 3.5372-12.416-0.75797v-0.25266l-4.0072-0.80851-1.5223-0.9601 1.2222-1.617 10.485-0.33793" fill="#fff"/>
 <path d="m169.71 61.23-0.0316 1.0612-2.5613-2.3244 0.12633-1.617 2.4855 2.8803" fill="#2b74c2"/>
 <path d="m253.82 65.576c2.4666 6.5186-8.4691 7.7314-10.839 9.5505-9.9648 3.133-21.001 5.609-26.352 15.614l-4.8359 9.3484c-0.8843 0.50532-4.8561 18.899-7.5798 28.601-6.372 22.436-17.686 35.069-23.962 42.346-13.027 16.322-29.192 31.987-48.556 38.505-18.833 8.2367-40.799 9.6516-63.917 9.0957l-0.22108-0.42005-0.33161 0.55585h-0.25266l3.5726-1.7181c7.8375-2.8298 24.851-10.662 25.741-10.713 16.423-7.7819 31.88-17.686 45.044-31.532 4.3053-3.3856 7.2462-7.9335 10.799-11.925l2.6845-3.9415c3.3351-4.6489 6.2002-9.2978 8.2114-14.856 0.71376-0.65691 8.9795-12.38 1.4812-54.17l2.3087-7.1755c2.2676-6.1143 7.6202-10.915 13.224-14.25 4.0072-0.9601 6.6146-3.1835 11.193-3.0824 7.1654-0.90957 21.951 3.0319 21.951 3.0319 7.1048 1.4149 15.235 0.65691 21.89 0.33793 4.5984-1.7181 9.318-2.9814 13.815-5.1542l4.937 1.9202" fill="#fff"/>
 <path d="m165.86 62.038-5.6444 0.55584 4.4215-2.7792" fill="#2b74c2"/>
 <path d="m171.33 66.081-3.6686 6.3165-1.1275 0.50531 1.4812-5.6595-0.63165-2.5266 3.9465 1.3644" fill="#fff"/>
 <path d="m164.4 67.193-3.4917-1.4149 0.0316-0.65691 3.4513 2.0718" fill="#fff"/>
 <path d="m162.07 85.03-3.5322-8.5398 2.8992 0.22108 0.37899 3.5877 7.1654-7.226c-2.2329 3.6383-6.1598 6.7207-6.9127 11.976" fill="#2b74c2"/>
 <path d="m158.88 105.7c1.9707 6.0133 3.5322 11.824 3.4513 18.697l-2.8614 2.9814-1.1464-0.0947-3.8657-2.2234-8.843-4.1436-3.5372-1.4149c-5.6444-1.2128-10.854-0.33793-16.165 0.15791l-3.0382-2.1223c-2.7856-9.2473 22.244-16.271 34.579-14.098" fill="#100f0d"/>
 <path d="m158.03 110.35 1.4812 7.5292-0.63164 6.3165c-4.2042-1.0612-6.8319-4.0931-11.036-5.0532v-0.33793c-4.4215-1.0106-8.2518-2.5266-13.148-1.9202l-9.9244-0.42004c0.25266-6.1649 18.651-13.037 30.612-11.066l2.6466 4.9521" fill="#fff"/>
 <path d="m217.98 149.26-13.421-6.1143 5.3867-16.221 8.0345 22.335" fill="#fff"/>
 <path d="m238.9 171.14c0 5.9627 0.25266 7.0239 1.6991 8.5398 1.5349 1.516 2.4666 1.617 8.8784 1.617l4.7196 0.0316-0.0632 18.444-15.574-0.0316c-11.071-0.15791-11.86-0.28424-13.972-0.80851-7.3271-2.0213-9.1412-8.1356-9.0603-29.763l0.0316-27.085c0-4.851 0.6727-13.492 1.3644-16.322 1.1622-5.8617 3.8303-8.8936 8.6258-10.157 2.1128-0.50532 3.709-0.60638 13.224-0.70744h14.902l-0.0316 18.495-4.0476-0.0316c-6.3973 0-7.322 0.15791-8.8835 1.6675-1.5981 1.516-1.737 2.375-1.737 8.4893" fill="#2b74c2"/>
 <path d="m292.75 139.35c0-4.0931-1.936-6.7712-5.0127-6.7712-2.9814-0.0316-4.9572 2.6782-4.9572 6.7207l-0.0947 36.534c0 4.1436 1.9518 6.7207 4.9723 6.7207 3.0414 0 5.0127-2.5266 5.0127-6.7207zm23.33 26.125c0 14.098-0.78956 19.455-3.5726 25.165-3.1172 6.367-9.1765 9.2978-19.621 9.2473h-10.541c-10.44-0.0316-16.463-2.9814-19.581-9.3484-2.7224-5.7101-3.4917-11.066-3.4513-25.215l0.0632-15.867c0-14.149 0.79271-19.505 3.5726-25.215 3.1235-6.367 9.1816-9.2473 19.621-9.1968h10.48c10.485 0 16.524 2.8298 19.621 9.2978 2.7445 5.7606 3.4968 11.117 3.4564 25.215" fill="#2b74c2"/>
 <path d="m345.23 115.1c1.4402 5.1542 1.8128 6.9228 2.1887 11.269 2.4097-8.843 5.7657-11.269 16.008-11.168 9.1412 0 12.158 1.2128 14.725 6.367 1.8539 3.2846 1.8539 3.2846 1.8191 21.274l-0.15791 57.252-23.426-0.0316 0.1895-58.667c0-4.5478-1.4402-6.7712-4.6792-6.7712-3.2744 0-4.755 2.2234-4.755 7.0239l-0.12633 58.364h-23.411l0.15791-65.59c0-8.1356-0.37898-12.027-2.1918-19.303" fill="#2b74c2"/>
 <path d="m428.73 133.74h-10.561l-0.1895 66.449-23.411-0.0947 0.15791-66.399h-10.596l0.0316-18.444 44.589 0.0948" fill="#2b74c2"/>
 <path d="m466.98 163.51 0.0316-22.436c0.0316-5.4574-1.557-7.8324-4.7955-7.8829-3.4159 0-5.0127 2.375-5.0127 7.8829l-0.0316 22.436zm-9.889 36.737-23.371-0.0316 0.12633-67.561c0.0316-7.3776 1.3391-11.824 4.083-14.098 2.7856-2.2739 8.1356-3.1835 19.505-3.1835l9.5505 0.0316c11.37 0 16.721 0.9601 19.465 3.1835 2.7224 2.3244 4.0274 6.7712 3.987 14.199l-0.12633 67.51-23.406-0.0316 0.0316-17.939h-9.8082" fill="#2b74c2"/>
 <path d="m521.74 171.74c0 5.9627 0.25266 6.9734 1.677 8.5398 1.5602 1.516 2.4855 1.6676 8.8835 1.6676h4.7196l-0.0316 18.495-15.574-0.0316c-11.077-0.22108-11.885-0.28424-13.997-0.80851-7.2816-2.0718-9.1361-8.1861-9.0805-29.763l0.0632-27.136c0-4.851 0.67271-13.441 1.3454-16.271 1.1812-5.8617 3.7899-8.8936 8.6258-10.157 2.1129-0.50532 3.6686-0.65691 13.224-0.75798l14.922 0.0316-0.0632 18.444h-4.0245c-6.4125 0-7.3422 0.0947-8.939 1.5665-1.5602 1.5665-1.677 2.476-1.677 8.5904" fill="#2b74c2"/>
 <path d="m585.63 134.1-10.622-0.0316-0.12632 66.399h-23.432l0.18949-66.399h-10.617l0.0632-18.495 44.594 0.0947" fill="#2b74c2"/>
 <path d="m294.19 286.9h305.83v-66.876h-305.83z" fill="#fff"/>
 <path d="m405.18 272h9.3168v-43.05h-9.3168z" fill="#2b74c2"/>
 <path d="m466.41 244.81v27.186h-46.524v-9.0957h37.227v-9.0452h-37.227v-24.912h46.524v9.0957h-37.206v6.7712" fill="#2b74c2"/>
 <path d="m471.84 272h9.3168v-43.05h-9.3168z" fill="#2b74c2"/>
 <path d="m495.84 262.9h27.934v-24.862h-27.934zm37.227 9.0957h-46.524v-43.053h46.524" fill="#2b74c2"/>
 <path d="m585.02 272h-9.2978l-27.934-30.016v30.016h-9.2928v-43.053h9.2928l27.934 30.016v-30.016h9.2978" fill="#2b74c2"/>
 <path d="m351.75 228.94h11.84l27.358 30.42v-30.42h9.318v43.053h-10.025" fill="#2b74c2"/>
 <path d="m309.84 271.74h8.843v-8.5863h-8.843z" fill="#2b74c2"/>
 <path d="m309.84 255.07h8.843v-8.5863h-8.843z" fill="#2b74c2"/>
 <path d="m309.58 237.89h8.843v-8.5863h-8.843z" fill="#2b74c2"/>
 <path d="m327.53 271.74h8.843v-8.5863h-8.843z" fill="#2b74c2"/>
 <path d="m327.53 255.07h8.843v-8.5863h-8.843z" fill="#2b74c2"/>
 <path d="m345.05 271.74h8.843v-8.5863h-8.843z" fill="#2b74c2"/>
 <path d="m361.89 271.74h8.843v-8.5863h-8.843z" fill="#2b74c2"/>
 <path d="m345.05 255.07h8.843v-8.5863h-8.843z" fill="#2b74c2"/>
 <path d="m327.27 237.89h8.843v-8.5863h-8.843z" fill="#2b74c2"/>
</svg>
