<svg version="1.1" viewBox="0 0 239.56 153.95" xml:space="preserve" xmlns="http://www.w3.org/2000/svg"><g transform="matrix(1.3333 0 0 -1.3333 -156.54 712.51)" fill-rule="evenodd"><path d="m219.21 524.45c1.4999 0 2.9889-0.0235 4.4697-0.0672v9.9408c-1.4822 0.0369-2.9715 0.0581-4.4697 0.0581-56.215 0-101.8-25.852-101.8-57.73s45.588-57.73 101.8-57.73c1.4982 0 2.9875 0.0215 4.4697 0.0581v10.019c-1.4173-0.0507-2.8698-0.0972-4.3605-0.1392l-0.1092-6e-3 4e-3 3e-3 -0.112-3e-3h-5e-4c-0.557-0.015-1.1177-0.0249-1.6813-0.0292h-2e-4c-0.5638-4e-3 -1.1302-2e-3 -1.6994 5e-3h-6e-4c-0.5695 7e-3 -1.1409 0.0204-1.7155 0.0386h-3e-4c-0.5749 0.0184-1.1511 0.0417-1.7308 0.0709h-3e-4c-0.5797 0.0286-1.1611 0.0637-1.7447 0.1034h-6e-4c-0.5836 0.04-1.1687 0.0851-1.7566 0.1355h-3e-4c-0.5873 0.0505-1.1767 0.1063-1.7677 0.1673h-3e-4c-0.591 0.0612-1.1832 0.1267-1.7773 0.1981-0.5939 0.0711-1.1891 0.1474-1.7853 0.229-0.5964 0.0811-1.1939 0.1676-1.792 0.2591-0.5981 0.0913-1.1974 0.1877-1.7969 0.2889h-3e-4c-0.5998 0.1009-1.1999 0.2072-1.8006 0.3183h-2e-4c-0.6007 0.1111-1.2014 0.2265-1.8029 0.3472h-3e-4c-0.6012 0.1202-1.2024 0.2458-1.8036 0.3756-0.6013 0.1299-1.2025 0.2645-1.8032 0.4037h-5e-4c-0.601 0.1392-1.2011 0.2829-1.8012 0.4311h-2e-4c-0.6004 0.1486-1.1991 0.3016-1.7981 0.4587-0.5986 0.1573-1.1962 0.3192-1.7929 0.4853s-1.1925 0.3365-1.7869 0.5113h-3e-4c-0.595 0.1749-1.1874 0.3538-1.7793 0.5372-0.5913 0.1831-1.1818 0.3708-1.7703 0.5624h-2e-4c-0.5885 0.1916-1.1747 0.3878-1.7595 0.5876-0.5848 0.1996-1.1673 0.4037-1.7478 0.6117h-3e-4c-0.5803 0.2081-1.1586 0.4204-1.7346 0.6361-0.5754 0.2163-1.1488 0.436-1.7194 0.6597-0.5709 0.2236-1.1387 0.4515-1.7037 0.6828h-3e-4c-0.5652 0.2313-1.1267 0.4666-1.6857 0.7056-0.5587 0.2386-1.1146 0.4816-1.6671 0.7276h-3e-4c-0.5527 0.2464-1.1009 0.4961-1.6463 0.7498-0.5451 0.2534-1.0868 0.5102-1.6248 0.7707-0.5381 0.2603-1.0715 0.5244-1.6013 0.792-0.5295 0.2676-1.0551 0.538-1.5764 0.8122-0.5216 0.2741-1.0383 0.5519-1.5508 0.8328-0.5125 0.2806-1.0202 0.5646-1.5231 0.8518-0.5028 0.2871-1.0009 0.5774-1.4938 0.8711-0.493 0.2936-0.9811 0.5901-1.4636 0.8898-0.4827 0.2996-0.96 0.6026-1.432 0.9085-0.472 0.3058-0.9383 0.6142-1.3986 0.9261-0.4607 0.3118-0.9153 0.6261-1.3641 0.9433-0.4487 0.3169-0.8909 0.6375-1.3274 0.9604h-6e-4c-0.436 0.3229-0.8663 0.6483-1.29 0.9765-0.4235 0.3286-0.8408 0.6594-1.2515 0.993-0.4108 0.3339-0.8139 0.6701-1.211 1.0086-0.3966 0.3387-0.7866 0.6806-1.1693 1.0239h-3e-4c-0.3821 0.3438-0.7577 0.6896-1.1259 1.0383-0.3679 0.3484-0.7285 0.6999-1.0814 1.0531-0.3532 0.3534-0.6985 0.7086-1.0358 1.0666-0.3373 0.3578-0.6667 0.7175-0.9881 1.0797-0.3212 0.362-0.6342 0.7266-0.9389 1.0931-0.3047 0.3662-0.6015 0.7347-0.8892 1.1052s-0.5667 0.7433-0.8371 1.1177c-0.2701 0.3745-0.5318 0.7512-0.784 1.1293-0.2523 0.3782-0.4955 0.7586-0.7294 1.1404s-0.4584 0.7657-0.6735 1.1512c-0.2152 0.3855-0.4204 0.7724-0.616 1.1613-0.1959 0.3889-0.3815 0.779-0.5576 1.1713-0.1757 0.3917-0.3415 0.7855-0.4969 1.1806-0.1553 0.3946-0.3007 0.7917-0.4354 1.1897-0.1346 0.3983-0.2591 0.7974-0.3722 1.1979-0.1133 0.4011-0.216 0.8034-0.3078 1.2068-0.0918 0.403-0.1726 0.8078-0.2421 1.2138-0.0691 0.4059-0.1275 0.8132-0.1743 1.2211-0.0471 0.4082-0.0825 0.8175-0.106 1.228-0.0236 0.4102-0.0355 0.8215-0.0355 1.2342 0 0.1987 2e-3 0.3966 7e-3 0.5941l7e-3 0.2197c4e-3 0.1361 8e-3 0.2727 0.0142 0.4085l8e-3 0.1601c7e-3 0.1432 0.0142 0.2863 0.0238 0.4289l0.0193 0.2568 0.0261 0.3303 0.0264 0.2783 0.0334 0.3269 0.032 0.2741 0.0389 0.311 0.0405 0.295 0.0425 0.2892 0.0499 0.3121 0.0476 0.28 0.0519 0.2894 0.0638 0.3297 0.0516 0.2568 0.0697 0.3218 0.0598 0.2695 0.0751 0.3124 0.0661 0.2704 0.0901 0.345 0.061 0.2308c0.0343 0.1244 0.0708 0.2483 0.1066 0.3727l0.0612 0.2137 1e-3 3e-3c0.055 0.1856 0.112 0.3704 0.1712 0.555l0.0871 0.2644 0.1037 0.3124c0.0354 0.1046 0.0729 0.2084 0.1097 0.3118l0.087 0.2452 0.1171 0.3135 0.1029 0.2713 0.1114 0.2818 0.108 0.2696 0.1324 0.3177 0.104 0.2444 0.1327 0.3021 0.1204 0.2682 0.1372 0.2974 0.1126 0.2381 0.161 0.3328 0.1085 0.2179 0.1639 0.3235 0.1154 0.2219 0.1819 0.3441 0.0947 0.1741 0.1979 0.3591 0.1258 0.2206 0.184 0.3209 0.0938 0.1576c0.3804 0.6434 0.7835 1.2815 1.2104 1.9122l0.023 0.034c0.1111 0.1636 0.2236 0.3269 0.3379 0.4896l0.0156 0.0221c0.0992 0.1423 0.2004 0.2835 0.3024 0.4249l0.0797 0.1106c0.0981 0.1349 0.1978 0.2695 0.2982 0.4045l0.0788 0.1057 0.2934 0.3852 0.1122 0.1454 0.2971 0.3779 0.0893 0.1117c0.1071 0.1346 0.216 0.2687 0.3257 0.4022l0.0816 0.0992c0.1165 0.1412 0.2339 0.2818 0.3529 0.4224l0.0406 0.0476c0.1267 0.1488 0.2537 0.2971 0.3824 0.4445l0.0456 0.0524c1.1293 1.2918 2.3587 2.5506 3.6831 3.7729l5e-3 5e-3c0.1465 0.1355 0.2951 0.2704 0.4442 0.405l0.0856 0.0777c0.3279 0.2942 0.661 0.5871 1.0003 0.8773l0.0264 0.023c2.4633 2.1078 5.2146 4.0989 8.2207 5.9559l0.0346 0.0218c0.7285 0.4581 1.4803 0.9057 2.2589 1.3411l0.0131 7e-3 0.013 8e-3 0.0133 7e-3 0.0128 7e-3 0.0133 8e-3 0.0131 7e-3 0.0136 8e-3 0.0124 7e-3 0.0119 7e-3 1e-3 2e-4 5e-4 3e-4 0.0128 7e-3 0.0249 0.0145 1e-3 5e-4 0.0133 7e-3 1e-3 8e-4 0.0119 7e-3 0.0128 7e-3 5e-4 2e-4 0.0131 8e-3 0.013 7e-3 0.0133 8e-3 0.0128 7e-3 0.0133 8e-3 0.0131 7e-3 0.0136 7e-3 0.0133 8e-3 0.0391 0.0221 0.0133 7e-3 0.0394 0.0221 0.0136 8e-3 0.3439 0.193 0.013 7e-3 0.0133 8e-3 0.0131 7e-3 0.0139 7e-3 0.0124 8e-3 0.0137 7e-3 0.0133 7e-3 0.0102-5e-3c15.441 8.4039 36.581 13.71 59.351 13.71" fill="#e63831"/><g fill="#094198"><path d="m281.33 481.74c-1.9834 0.0182-4.2061 0.3167-5.8765 1.4429-1.6529 1.1154-2.363 3.9826-2.363 5.8838 0 1.9216 0.7404 4.7668 2.4335 5.8451 1.8488 1.1766 4.2344 1.421 6.38 1.3493l7.9398-6e-4c2.0325-0.0677 4.3796-0.4938 5.7348-2.1509 1.3459-1.6458 1.4939-6.778 1.4939-8.9456v-30.203c0-2.109-0.2827-4.5814-1.548-6.3423-1.2164-1.6925-3.5788-2.3403-5.5698-2.3403-2.5385 0-5.6824 0.8842-7.2153 3.0286-1.0684 1.4938-1.4094 3.4914-1.4094 5.9184z"/><path d="m256.41 476.91 3.2874 12.96c0.4203 1.6551 1.1279 3.5501 2.4528 4.945 1.2798 1.3405 2.8454 1.9035 4.4561 1.9035 1.6069 0 2.8839-0.5664 3.4837-1.9052 0.6149-1.3938 0.362-3.2882-0.0584-4.9433l-6.4743-25.522c-0.3784-1.4928-1.0224-3.2202-2.2464-4.4584-1.2019-1.2129-2.6649-1.692-4.14-1.692-1.0749 0-1.9971 0.3008-2.7471 0.883-0.8277 0.6279-1.4346 1.5645-1.9066 2.4905l-8.2125 16.337-3.2145-12.672c-0.4181-1.6477-1.1256-3.5538-2.4534-4.9339-1.281-1.3326-2.8448-1.8908-4.4413-1.8908-1.6002 0-2.8834 0.5548-3.4903 1.8908-0.627 1.3801-0.3671 3.2862 0.0507 4.9339l6.3224 24.921c0.3963 1.5633 1.0636 3.3684 2.3128 4.6905 1.2095 1.2671 2.687 1.8221 4.214 1.8221 0.9969 0 1.87-0.2455 2.594-0.7565 0.7838-0.5511 1.3626-1.4287 1.8085-2.2774z"/><path d="m210.21 475.15h5.1811l-0.4612 8.043zm-5.5114-9.701-1.628-2.7477c-0.6797-1.1616-1.5465-2.3071-2.6597-3.1586-1.0602-0.8102-2.219-1.249-3.3982-1.249-1.3759 0-2.4899 0.4556-3.2057 1.4443-0.7098 0.9822-0.8399 2.2119-0.4929 3.5787 0.1221 0.4833 0.2797 0.9692 0.4813 1.446 0.1893 0.4467 0.4051 0.8784 0.6715 1.2778l15.413 24.78c1.0114 1.6237 2.3099 3.2803 3.9384 4.4192 1.5248 1.0574 3.1564 1.5248 4.7906 1.5248 1.5837 0 2.9202-0.4581 3.9115-1.446 1.0295-1.0247 1.5196-2.4395 1.6846-3.977l2.5075-25.225c0.0349-0.5029 0.0536-1.0236 0.036-1.5412-0.0161-0.4439-0.0705-0.9028-0.1859-1.3581-0.3501-1.3802-1.1296-2.6093-2.3791-3.5611-1.2467-0.9502-2.6102-1.3627-3.9838-1.3627-1.2785 0-2.3363 0.3992-3.0478 1.2782-0.7399 0.9122-0.9976 2.1985-1.0622 3.4546l-0.1205 2.4225z"/><path d="m177.85 480.38h2.5192c1.0199 0 2.2399 0.165 3.2196 0.8561 0.8475 0.593 1.2753 1.4213 1.5015 2.3122 0.218 0.8603 0.2004 1.6427-0.3271 2.2116-0.6126 0.6621-1.7363 0.8178-2.7236 0.8178h-2.6178zm-2.4976-9.8442-1.3436-5.2956c-0.4184-1.6504-1.1248-3.5598-2.4551-4.9422-1.281-1.3326-2.8448-1.8908-4.4413-1.8908-1.5999 0-2.8834 0.5548-3.4903 1.8908-0.6282 1.3824-0.366 3.2918 0.0524 4.9422l6.1492 24.238c0.4468 1.7591 1.251 3.9432 2.9053 5.2412 1.6262 1.2765 3.7604 1.5424 5.5003 1.5424h6.2181c3.7565 0 7.3902-0.7714 9.7302-3.2205 2.1807-2.2819 2.6339-5.3535 1.7317-8.909-0.6707-2.6444-2.0404-5.0593-4.3084-7.0475-1.7141-1.5083-3.6349-2.4987-5.6381-3.092l3.5898-5.5613c0.5352-0.8189 1.0108-1.728 1.2753-2.7136 0.2151-0.8173 0.2863-1.7218 0.0507-2.6498-0.3427-1.3505-1.116-2.5413-2.3145-3.4972-1.2135-0.9683-2.5435-1.4269-3.9087-1.4269-0.9756 0-1.7963 0.3067-2.4732 0.8464-0.7767 0.6276-1.3958 1.586-1.8907 2.4596z"/><path d="m275.26 447.7c-13.204-6.4559-30.883-10.405-50.313-10.405-40.858 0-73.992 17.456-73.992 38.983 0 10.744 8.2542 20.474 21.602 27.525l-12.708 6.9415c-15.618-8.6732-25.309-20.744-25.309-34.094 0-26.394 48.887-48.78 84.562-47.798 35.675 0.9822 49.836 4.6145 65.296 13.122z"/></g><path d="m295.91 454.96c0-2.5402-0.4431-4.4295-1.3289-5.6622-0.8861-1.2325-2.763-1.8545-4.6233-1.8545-2.1736 0-4.9907 0.7413-6.3009 2.5844-0.9088 1.2793-1.1582 3.0109-1.1582 5.1967v27.68h-0.9746c-2.3797 0-4.1859 0.415-5.4153 1.2439-1.2294 0.8294-1.8493 3.3024-1.8493 4.9175 0 1.6368 0.6318 4.0587 1.8935 4.8617 1.2702 0.8079 3.1465 1.1081 5.7153 1.1226l7.8959 0.0445c2.1928 0.0121 3.9792-0.5783 4.9152-1.7238 0.942-1.1517 1.2306-5.5046 1.2306-8.2077z" fill="#fff"/></g></svg>
