<svg version="1.1" viewBox="0 0 800 276.78" xmlns="http://www.w3.org/2000/svg">
 <path d="m0 0v276.78h570.73l58.995-276.78z" fill="#e11d25"/>
 <g transform="matrix(28.555 0 0 -28.555 -1577.2 2023.9)">
  <g transform="translate(73.668 65.175)">
   <path d="m0 0c0 1.13-0.195 1.386-0.195 1.386s-0.905 0.521-2.753 0.521c-0.398-3e-3 -0.862-0.031-1.334-0.099v1.785h-0.803v-5.308s1.282-0.166 2.378-0.166c2 0 2.518 0.438 2.518 0.438s0.189 0.278 0.189 1.443m-0.808-0.038c0-0.31-0.024-0.614-0.045-0.799-0.257-0.074-0.83-0.198-1.841-0.2-0.445 0-0.972 0.033-1.588 0.09v1.901c1.71 0.27 2.941-0.032 3.418-0.188 0.02-0.185 0.056-0.492 0.056-0.804" fill="#fff"/>
  </g>
  <g transform="translate(61.746 67.064)">
   <path d="m0 0c-3.098-0.045-4.335-0.778-4.335-0.778v-2.937h0.859v2.383c0.395 0.13 1.479 0.443 3.477 0.488" fill="#fff"/>
  </g>
  <g transform="translate(67.753 65.175)">
   <path d="m0 0c0 1.13-0.195 1.386-0.195 1.386s-0.905 0.521-2.753 0.521c-0.398-3e-3 -0.862-0.031-1.334-0.099v1.785h-0.803v-5.308s1.282-0.166 2.379-0.166c1.999 0 2.517 0.438 2.517 0.438s0.189 0.278 0.189 1.443m-0.808-0.038c0-0.31-0.024-0.614-0.045-0.799-0.256-0.074-0.83-0.198-1.841-0.2-0.445 0-0.972 0.033-1.588 0.09v1.901c1.71 0.27 2.941-0.032 3.418-0.188 0.02-0.185 0.056-0.492 0.056-0.804" fill="#fff"/>
  </g>
 </g>
 <g transform="matrix(28.555 0 0 -28.555 -1577.2 2023.9)" fill="#fff">
  <g transform="translate(80.327 67.781)">
   <path d="m0 0v0.946h0.487v-2.466h-0.487v1.041h-1.018v-1.041h-0.488v2.466h0.488v-0.946z" fill="#fff"/>
  </g>
  <g transform="translate(81.732 68.268)">
   <path d="m0 0h0.258c0.543 0 0.756-0.286 0.756-0.77 0-0.53-0.348-0.779-0.756-0.779h-0.258zm-0.488 0.459v-2.466h0.717c0.788 0 1.29 0.474 1.29 1.249 0 0.733-0.378 1.217-1.232 1.217z" fill="#fff"/>
  </g>
 </g>
</svg>
