<svg version="1.1" viewBox="0 0 154.71 90" xmlns="http://www.w3.org/2000/svg">
 <g transform="matrix(.60714 0 0 .60714 170.27 -130.06)" fill="#515251" stroke-width="1px" aria-label="berlin">
  <path d="m-280.44 362.45h3.04l0.16-1.52c0.52 0.8 1.84 1.52 3.12 1.52h2.6c2 0 3.64-0.72 4.92-2.2s1.92-3.36 1.92-5.64v-5.36c0-2.04-0.68-3.72-2-5.04s-2.88-2-4.76-2h-1.6c-1.56 0-2.84 0.76-3.36 1.68v-9.44h-4.04zm11.72-7.84c0 2.56-1.2 4.08-2.8 4.08h-2.6c-1.16 0-2.2-0.96-2.28-2.2v-7.44c0-1.72 1.32-3.08 2.72-3.08h2.24c1.48 0 2.72 1.36 2.72 3.28z"/>
  <path d="m-262.53 352.89c0 6.28 2 9.52 7.72 9.52h7.64v-3.76h-7.64c-2.68 0-3.68-1.44-3.68-4.36v-0.16h11.84v-4.08c0-5.08-2.92-7.92-8-7.92-2.28 0-4.16 0.72-5.64 2.12s-2.24 3.36-2.24 5.8zm4.04-2.36v-0.64c0-2.72 1.68-4 3.84-4 2.68 0 3.96 1.24 4 4v0.64z"/>
  <path d="m-235.76 342.13c-2.4 0-4.04 0.76-4.88 2.28l-0.2-2.04h-3.04v20.04h4.04v-12.44c0-2.6 1.36-4.08 4.08-4.08h3.2v-3.76z"/>
  <path d="m-229.93 362.45h4.04v-28h-4.04z"/>
  <path d="m-221.88 340.21h4.04v-4.44h-4.04zm0 22.24h4.04v-20h-4.04z"/>
  <path d="m-207.28 342.21c-1.76 0-3.08 0.88-3.6 1.68l-0.12-1.48h-3.04v20h4.04v-13.56c0-1.6 1.28-2.88 2.72-2.88h2.32c1.48 0 2.72 1.32 2.72 3.28v13.16h4v-13.16c0-2.04-0.68-3.72-2-5.04s-2.88-2-4.72-2z"/>
 </g>
 <g transform="scale(.24568)">
  <path d="m0 0v276.78h570.73l58.995-276.78z" fill="#e11d25"/>
  <g transform="matrix(28.555 0 0 -28.555 -1577.2 2023.9)">
   <g transform="translate(73.668 65.175)">
    <path d="m0 0c0 1.13-0.195 1.386-0.195 1.386s-0.905 0.521-2.753 0.521c-0.398-3e-3 -0.862-0.031-1.334-0.099v1.785h-0.803v-5.308s1.282-0.166 2.378-0.166c2 0 2.518 0.438 2.518 0.438s0.189 0.278 0.189 1.443m-0.808-0.038c0-0.31-0.024-0.614-0.045-0.799-0.257-0.074-0.83-0.198-1.841-0.2-0.445 0-0.972 0.033-1.588 0.09v1.901c1.71 0.27 2.941-0.032 3.418-0.188 0.02-0.185 0.056-0.492 0.056-0.804" fill="#fff"/>
   </g>
   <g transform="translate(61.746 67.064)">
    <path d="m0 0c-3.098-0.045-4.335-0.778-4.335-0.778v-2.937h0.859v2.383c0.395 0.13 1.479 0.443 3.477 0.488" fill="#fff"/>
   </g>
   <g transform="translate(67.753 65.175)">
    <path d="m0 0c0 1.13-0.195 1.386-0.195 1.386s-0.905 0.521-2.753 0.521c-0.398-3e-3 -0.862-0.031-1.334-0.099v1.785h-0.803v-5.308s1.282-0.166 2.379-0.166c1.999 0 2.517 0.438 2.517 0.438s0.189 0.278 0.189 1.443m-0.808-0.038c0-0.31-0.024-0.614-0.045-0.799-0.256-0.074-0.83-0.198-1.841-0.2-0.445 0-0.972 0.033-1.588 0.09v1.901c1.71 0.27 2.941-0.032 3.418-0.188 0.02-0.185 0.056-0.492 0.056-0.804" fill="#fff"/>
   </g>
  </g>
 </g>
</svg>
