<svg version="1.1" viewBox="0 0 226.4 147.08" xml:space="preserve" xmlns="http://www.w3.org/2000/svg"><g transform="matrix(1.3333 0 0 -1.3333 -283.5 754.96)"><path d="m264.11 503.92h-15.63v38.876h15.63zm4.68 38.876h7.7103c0.9096 0 1.743 0.4167 2.3116 1.1936 0.5684 0.758 0.9094 1.6671 0.9094 2.6521 0 0.9851-0.341 1.8947-0.9094 2.6717-0.5686 0.8334-1.402 1.2504-2.2357 1.2504h-35.863v15.63h35.787c2.52 0 4.964-0.4926 7.2181-1.4777 2.236-0.985 4.263-2.444 5.9491-4.1301 1.686-1.7617 3.088-3.846 4.0541-6.2331 0.9856-2.387 1.478-4.9827 1.478-7.7108-0.1327-3.77-1.1934-6.9905-3.0124-9.6618-1.8187-2.6524-4.4898-4.7555-7.7678-6.2332l18.623-42.437h-17.581l-16.671 38.876zm38.162-14.919v9.6621h17.259c0.5306 0 1.042 0.3597 1.3833 0.701 0.341 0.3405 0.5303 1.0415 0.5303 1.5531 0 0.5117-0.1893 1.2127-0.5303 1.5537-0.3413 0.5117-0.8527 0.8717-1.3833 0.8717h-17.259v9.6618h17.259c0.5306 0 1.042 0.3413 1.3833 0.6823 0.341 0.3598 0.5303 1.0415 0.5303 1.5532 0 0.5306-0.1893 1.2126-0.5303 1.5726-0.3413 0.5114-0.8527 0.8527-1.3833 0.8527h-25.387v9.6809h25.387c2.0843 0 3.9784-0.7011 5.7027-1.7431 1.724-1.0227 3.2774-2.747 4.3194-4.49 1.042-1.7238 1.5537-3.7891 1.5537-5.8731 0-2.5765-0.8717-5.1721-2.4253-7.2369 0.701-1.042 1.3833-2.2547 1.743-3.2967 0.3413-1.0227 0.6823-2.406 0.6823-3.7891 0-2.0647-0.5117-4.1488-1.5537-5.8731-1.042-1.7237-2.4247-3.2774-4.149-4.3194-1.7241-1.042-3.7888-1.7237-5.8731-1.7237zm-0.6672-9.0426h9.6618v-17.259c0-0.5307 0.36-1.0423 0.7011-1.3833 0.3412-0.341 1.042-0.5304 1.5536-0.5304 0.5117 0 1.2127 0.1894 1.5537 0.5304 0.5114 0.341 0.8711 0.8526 0.8711 1.3833v17.259h9.6622v-17.259c0-0.5307 0.341-1.0423 0.682-1.3833 0.36-0.341 1.0423-0.5304 1.5536-0.5304 0.5307 0 1.2127 0.1894 1.5727 0.5304 0.5117 0.341 0.8521 0.8526 0.8521 1.3833v25.386h9.6814v-25.386c0-2.0843-0.701-3.9784-1.743-5.7027-1.0233-1.7241-2.747-3.2775-4.4901-4.3195-1.724-1.042-3.7887-1.5536-5.8731-1.5536-2.5764 0-5.1721 0.8716-7.2371 2.4253-1.0417-0.701-2.2544-1.3833-3.2964-1.743-1.0233-0.3413-2.4061-0.6823-3.7891-0.6823-2.065 0-4.1488 0.5116-5.8731 1.5536-1.724 1.042-3.2774 2.4248-4.3194 4.1491-1.042 1.724-1.724 3.7888-1.724 5.8731zm-81.994-48.056c0-0.4609-0.0626-0.9178-0.1879-1.3708s-0.324-0.8805-0.6004-1.2858c-0.2727-0.4014-0.6264-0.7665-1.0613-1.0905-0.4345-0.324-0.9652-0.582-1.5913-0.7773 0.3424-0.1366 0.6335-0.409 0.8657-0.8144 0.2358-0.405 0.4272-0.9617 0.5785-1.6687l0.5709-2.8372c0.0295-0.1582 0.0553-0.3022 0.074-0.4272 0.0145-0.125 0.0258-0.2321 0.0258-0.3169 0-0.0734-0.0258-0.1327-0.0703-0.1843-0.0479-0.0515-0.1327-0.0921-0.2543-0.1252-0.1216-0.0295-0.2911-0.0553-0.5008-0.0701-0.2138-0.0144-0.4828-0.0218-0.8068-0.0218-0.3022 0-0.5417 0.0108-0.7262 0.0292-0.184 0.0184-0.328 0.0442-0.4272 0.0848-0.0992 0.0408-0.1658 0.0924-0.199 0.1584-0.0332 0.063-0.055 0.1403-0.07 0.2248l-0.5417 3.0986c-0.055 0.3611-0.1324 0.6777-0.2322 0.9504-0.0952 0.2724-0.2208 0.5012-0.3719 0.6852-0.1511 0.1845-0.335 0.3206-0.5561 0.4093-0.2175 0.0918-0.4794 0.136-0.781 0.136h-0.8844l-1.0684-5.3311c-0.0147-0.0737-0.0516-0.14-0.1105-0.195-0.0556-0.0592-0.1437-0.1072-0.2619-0.14-0.1211-0.0372-0.2724-0.063-0.4604-0.0814-0.1876-0.0184-0.4161-0.0292-0.6891-0.0292-0.2764 0-0.5006 0.0108-0.6778 0.0292-0.1731 0.0184-0.3129 0.0442-0.4127 0.0814-0.1032 0.0328-0.1692 0.0808-0.2063 0.1323-0.0366 0.0553-0.0443 0.1216-0.0219 0.2027l2.5495 12.692c0.055 0.317 0.184 0.5454 0.383 0.6852 0.1956 0.1403 0.4238 0.2103 0.6851 0.2103h3.7434c0.656 0 1.249-0.0629 1.7759-0.1845 0.5307-0.1211 0.98-0.309 1.3559-0.5596 0.3719-0.2506 0.6596-0.5675 0.862-0.9507 0.2029-0.3793 0.3021-0.8328 0.3021-1.3482zm-3.0429-0.5309c0 0.203-0.0335 0.3906-0.1032 0.5641-0.0666 0.1726-0.1772 0.32-0.328 0.4456-0.1514 0.125-0.3464 0.2248-0.5896 0.2911-0.2395 0.07-0.5306 0.1032-0.8694 0.1032h-1.6064l-0.7883-3.9609h1.3484c0.5412 0 0.9981 0.0774 1.3706 0.2322 0.3756 0.1548 0.6778 0.3538 0.9059 0.6007 0.2322 0.2432 0.398 0.5156 0.5052 0.8141 0.1032 0.2987 0.1548 0.6003 0.1548 0.9099zm13.374-2.5126c0-0.5193-0.1182-0.9834-0.3503-1.4001-0.2356-0.4124-0.5967-0.7699-1.0905-1.0681-0.4935-0.2987-1.12-0.5269-1.8791-0.6857-0.7586-0.1581-1.6654-0.2355-2.715-0.2355h-0.9913c-0.0295-0.1659-0.0516-0.3317-0.0661-0.4938-0.015-0.1582-0.0224-0.3096-0.0224-0.4459 0-0.582 0.1514-1.0205 0.4536-1.3187 0.3016-0.2948 0.7883-0.4422 1.459-0.4422 0.4748 0 0.8986 0.0369 1.2781 0.1029 0.3759 0.0703 0.7073 0.144 0.991 0.2288 0.2874 0.0807 0.523 0.1581 0.7075 0.2247 0.188 0.0698 0.324 0.1032 0.4128 0.1032 0.0844 0 0.1474-0.0258 0.1805-0.074 0.0366-0.0515 0.055-0.1323 0.055-0.2392 0-0.1216-0.0108-0.2614-0.0331-0.4201-0.0219-0.1585-0.0516-0.3166-0.0922-0.4714-0.0368-0.1548-0.0884-0.2985-0.1511-0.4348-0.0589-0.1367-0.1289-0.2432-0.2097-0.3133-0.0848-0.0884-0.2435-0.1732-0.4754-0.2613-0.2285-0.0851-0.5048-0.1624-0.8288-0.2361-0.3243-0.0735-0.6891-0.1327-1.0905-0.1766-0.4017-0.0482-0.8144-0.0701-1.2308-0.0701-0.6925 0-1.2929 0.0701-1.8088 0.2138-0.512 0.1434-0.9431 0.3645-1.2898 0.6593-0.3464 0.2948-0.6038 0.6707-0.777 1.1276-0.1732 0.4564-0.2579 0.9981-0.2579 1.6243 0 0.4827 0.0442 0.9986 0.1324 1.5474 0.0924 0.5531 0.2358 1.0945 0.4385 1.6322 0.2027 0.5343 0.4606 1.0463 0.7775 1.5364s0.6999 0.9213 1.1495 1.2895c0.4493 0.3724 0.9689 0.6706 1.5582 0.8918 0.5933 0.2247 1.2637 0.335 2.0191 0.335 0.6559 0 1.2195-0.0774 1.6909-0.2319 0.4716-0.1547 0.8586-0.3611 1.1607-0.6154 0.3022-0.2542 0.527-0.5488 0.6741-0.8733 0.1474-0.3277 0.2214-0.6667 0.2214-1.0094zm-2.6677-0.2061c0 0.2874-0.1139 0.5269-0.3387 0.7183-0.2288 0.1916-0.5565 0.2834-0.9876 0.2834-0.3609 0-0.6817-0.0623-0.9655-0.1913-0.2834-0.1287-0.534-0.3059-0.7512-0.523-0.2177-0.2214-0.4016-0.4793-0.5564-0.7775-0.1548-0.2985-0.2764-0.6191-0.3722-0.9579h0.9062c0.5746 0 1.0574 0.0406 1.4483 0.114 0.3866 0.0774 0.6998 0.1806 0.9391 0.3095 0.2361 0.129 0.4093 0.2804 0.5159 0.457 0.1105 0.1772 0.1621 0.3648 0.1621 0.5675zm12.349-7.6964c-0.1326-0.6559-0.3316-1.2234-0.608-1.7095-0.2724-0.4865-0.6296-0.8915-1.0755-1.2195-0.4495-0.328-0.9912-0.5746-1.6248-0.7407-0.6375-0.1658-1.3816-0.2466-2.2289-0.2466-0.6117 0-1.1605 0.0476-1.6472 0.1434-0.4861 0.0995-0.8915 0.2211-1.2155 0.3722-0.1145 0.059-0.1919 0.1219-0.2361 0.1953-0.0439 0.0734-0.066 0.1732-0.066 0.3022 0 0.0442 4e-3 0.1139 0.011 0.2171 7e-3 0.0998 0.0218 0.2101 0.0476 0.332 0.0258 0.125 0.0556 0.2505 0.0925 0.3829 0.0365 0.1361 0.081 0.2543 0.1363 0.3575 0.0516 0.1032 0.114 0.1913 0.1766 0.2579 0.0663 0.0698 0.1403 0.1029 0.2288 0.1029 0.0847 0 0.1913-0.0292 0.3169-0.0921 0.125-0.059 0.2945-0.125 0.5006-0.199 0.2103-0.0697 0.4682-0.1363 0.7778-0.1987 0.3093-0.0627 0.6925-0.0924 1.1455-0.0924 0.3648 0 0.6964 0.0297 0.9873 0.0887 0.2911 0.0553 0.5456 0.1508 0.7591 0.2798 0.2171 0.129 0.3903 0.2948 0.5267 0.4938 0.1329 0.2027 0.2287 0.4532 0.2837 0.748 0.0958 0.4678 0.188 0.8584 0.2801 1.1753 0.0961 0.3169 0.1806 0.5746 0.2616 0.7773-0.129-0.2396-0.3169-0.4751-0.5564-0.7073-0.2432-0.2322-0.5156-0.4456-0.8252-0.6301-0.3095-0.188-0.6449-0.3388-0.9983-0.4496-0.3575-0.1106-0.7147-0.1656-1.0758-0.1656-0.5527 0-1.0205 0.0922-1.3966 0.2798-0.3793 0.188-0.6852 0.4459-0.9247 0.7776-0.2355 0.3316-0.4087 0.7183-0.5119 1.1642-0.1032 0.4458-0.1548 0.9286-0.1548 1.4476 0 0.4683 0.0405 0.9692 0.129 1.5106 0.0847 0.5383 0.2208 1.076 0.4053 1.6064 0.1806 0.5343 0.4128 1.0463 0.6965 1.533 0.2798 0.4898 0.6151 0.9246 1.0091 1.3002 0.3904 0.3796 0.84 0.6817 1.3485 0.9029 0.5048 0.2247 1.076 0.335 1.7096 0.335 0.5967 0 1.127-0.125 1.5879-0.3722 0.4604-0.2503 0.8618-0.6111 1.2084-1.0865l0.1732 0.8544c0.0292 0.1513 0.1401 0.2579 0.3388 0.3245 0.199 0.0624 0.5159 0.0956 0.9541 0.0956 0.2177 0 0.398-7e-3 0.5417-0.0258 0.1437-0.0182 0.258-0.044 0.339-0.0774 0.0848-0.0332 0.1398-0.0734 0.1696-0.129 0.0257-0.055 0.0331-0.1179 0.0184-0.1879zm-1.2526 7.1473c-0.2543 0.3943-0.5306 0.6925-0.8362 0.8881-0.3061 0.1987-0.6633 0.2982-1.0647 0.2982-0.3022 0-0.5785-0.0737-0.8254-0.2174-0.2467-0.1434-0.4714-0.3353-0.6704-0.5746-0.1953-0.2435-0.3685-0.5233-0.5159-0.8402-0.1474-0.3132-0.2725-0.6446-0.3685-0.991-0.0959-0.3461-0.1693-0.6925-0.2175-1.0352-0.0439-0.3464-0.0697-0.6743-0.0697-0.9836 0-0.2432 0.0221-0.468 0.0663-0.6704 0.0443-0.199 0.1106-0.3725 0.199-0.5125 0.0921-0.1398 0.2064-0.2466 0.3461-0.324 0.1401-0.0737 0.3096-0.1106 0.5123-0.1106 0.3169 0 0.6409 0.0959 0.9725 0.2838 0.3317 0.1916 0.6412 0.4496 0.9284 0.7773 0.2877 0.3279 0.5417 0.7112 0.7591 1.1494 0.2211 0.4382 0.3795 0.9065 0.4827 1.4037zm9.5607 6.1084c-0.0479-0.2653-0.1176-0.4898-0.2024-0.6741-0.0884-0.1845-0.2029-0.3314-0.3464-0.4422-0.1437-0.1139-0.3206-0.1913-0.5306-0.2395-0.2061-0.0476-0.468-0.0698-0.7736-0.0698-0.3061 0-0.5491 0.0222-0.7407 0.0698-0.1916 0.0482-0.3353 0.1256-0.4311 0.2395-0.0993 0.1108-0.1548 0.2577-0.1693 0.4422-0.0147 0.1843 7e-3 0.4088 0.0661 0.6741 0.0482 0.2579 0.1182 0.479 0.2029 0.6596 0.0882 0.1769 0.2024 0.3243 0.3461 0.4419 0.144 0.1146 0.3206 0.1953 0.5307 0.2469 0.2061 0.0516 0.4677 0.0774 0.7773 0.0774 0.3021 0 0.549-0.0258 0.7367-0.0774 0.1919-0.0516 0.3353-0.1323 0.4348-0.2469 0.0958-0.1176 0.1511-0.265 0.1624-0.4419 7e-3 -0.1806-0.0113-0.4017-0.0629-0.6596zm-2.7816-12.865c-0.0145-0.0735-0.0516-0.1364-0.1032-0.1917-0.0553-0.0515-0.1361-0.0995-0.2506-0.1323-0.1103-0.0372-0.254-0.063-0.4345-0.0814-0.1806-0.0184-0.4014-0.0292-0.6594-0.0292-0.2656 0-0.4827 0.0108-0.652 0.0292-0.1697 0.0184-0.3024 0.0442-0.4019 0.0814-0.0958 0.0328-0.1582 0.0808-0.1879 0.1323-0.0292 0.0553-0.0366 0.1182-0.0219 0.1917l1.912 9.6049c0.0145 0.0737 0.0476 0.136 0.1032 0.1876 0.0516 0.0556 0.1363 0.1032 0.2466 0.1403 0.1105 0.0403 0.2545 0.0701 0.4311 0.0919 0.1769 0.0224 0.398 0.0332 0.6634 0.0332 0.2687 0 0.4861-0.0108 0.6556-0.0332 0.1658-0.0218 0.3022-0.0516 0.398-0.0919 0.0958-0.0371 0.1584-0.0847 0.1879-0.1403 0.0295-0.0516 0.0369-0.1139 0.0221-0.1876zm13.34 6.3884c0-0.5196-0.0476-1.0499-0.1471-1.599-0.0958-0.5451-0.2472-1.0795-0.457-1.6024-0.21-0.5196-0.4754-1.0097-0.8033-1.4664-0.3277-0.4569-0.7217-0.8623-1.1787-1.2087-0.4569-0.3498-0.9802-0.6262-1.5695-0.8249-0.5896-0.2029-1.2563-0.3022-1.997-0.3022-0.7257 0-1.3558 0.0848-1.8825 0.2506-0.5307 0.1695-0.9692 0.4201-1.3227 0.7475-0.3537 0.3246-0.6154 0.7297-0.7886 1.2087-0.1729 0.4791-0.2579 1.0279-0.2579 1.6469 0 0.516 0.0482 1.0503 0.144 1.5951 0.0992 0.5491 0.2506 1.0794 0.4603 1.5993 0.2064 0.5156 0.4754 1.0091 0.8034 1.4735 0.3277 0.4643 0.7183 0.8657 1.1752 1.2121 0.4567 0.3466 0.9836 0.619 1.573 0.8214 0.5896 0.203 1.2563 0.3022 1.997 0.3022 0.7256 0 1.3518-0.0845 1.8825-0.254 0.5269-0.1698 0.9691-0.4164 1.3226-0.7444 0.3538-0.3279 0.6154-0.7296 0.7886-1.2084 0.1729-0.4787 0.2577-1.0278 0.2577-1.6469zm-2.8072-0.1842c0 0.3021-0.0294 0.5711-0.0924 0.8033-0.0587 0.2356-0.1618 0.4345-0.3022 0.5967-0.1397 0.1621-0.32 0.2837-0.5377 0.3722-0.2208 0.0847-0.4861 0.129-0.8028 0.129-0.3611 0-0.6857-0.0701-0.9728-0.2101-0.2877-0.1397-0.5454-0.3316-0.7739-0.5675-0.2248-0.2395-0.4198-0.5119-0.5859-0.8249-0.1655-0.3135-0.3016-0.6449-0.4124-0.9876-0.1069-0.3464-0.1843-0.6962-0.2356-1.0539-0.0516-0.3572-0.074-0.6962-0.074-1.0205 0-0.3021 0.0295-0.5709 0.0885-0.8101 0.0626-0.2361 0.1621-0.4351 0.3021-0.5973 0.1438-0.1618 0.3206-0.2871 0.5417-0.3716 0.2175-0.0887 0.4862-0.129 0.8031-0.129 0.3609 0 0.6851 0.0695 0.9726 0.2098 0.2877 0.14 0.5451 0.3314 0.7699 0.5712 0.2287 0.2395 0.4237 0.5193 0.5898 0.8325 0.1656 0.313 0.3017 0.6409 0.4088 0.991 0.1106 0.3498 0.1879 0.7002 0.2395 1.0537 0.0479 0.35 0.0737 0.6891 0.0737 1.0131zm14.195 1.275c0-0.2506-0.0185-0.5049-0.0482-0.7555-0.0332-0.2542-0.0734-0.5119-0.125-0.7775l-1.1977-5.9462c-0.0144-0.0735-0.0476-0.1364-0.1031-0.1917-0.055-0.0515-0.1364-0.0995-0.2503-0.1323-0.1103-0.0372-0.2543-0.063-0.4309-0.0814-0.1772-0.0184-0.3983-0.0292-0.6633-0.0292-0.2653 0-0.4828 0.0108-0.6523 0.0292-0.1692 0.0184-0.3021 0.0442-0.394 0.0814-0.0921 0.0328-0.1587 0.0808-0.1879 0.1323-0.0332 0.0553-0.0442 0.1182-0.0298 0.1917l1.1682 5.7733c0.0368 0.1729 0.0626 0.3501 0.081 0.5306 0.0185 0.1766 0.0258 0.3351 0.0258 0.4714 0 0.3243-0.07 0.5933-0.2063 0.7997-0.1364 0.2098-0.3648 0.3129-0.6891 0.3129-0.2948 0-0.6038-0.0921-0.9247-0.2797-0.3206-0.188-0.6228-0.4425-0.9065-0.7592-0.2835-0.3203-0.5377-0.6964-0.7586-1.1236-0.2247-0.4275-0.3835-0.8844-0.4753-1.3672l-0.8731-4.3582c-0.0147-0.0735-0.0516-0.1364-0.1032-0.1917-0.0555-0.0515-0.1363-0.0995-0.2506-0.1323-0.1105-0.0372-0.2542-0.063-0.4348-0.0814-0.1803-0.0184-0.4014-0.0292-0.6593-0.0292-0.2656 0-0.4828 0.0108-0.652 0.0292-0.1698 0.0184-0.3022 0.0442-0.402 0.0814-0.0958 0.0328-0.1581 0.0808-0.1879 0.1323-0.0292 0.0553-0.0366 0.1182-0.0218 0.1917l1.9341 9.6378c0.0147 0.07 0.0442 0.1329 0.0921 0.1879 0.0445 0.0556 0.1179 0.0958 0.2137 0.129 0.0958 0.0334 0.2248 0.0592 0.3796 0.0774 0.1547 0.0184 0.3387 0.0258 0.5561 0.0258 0.2211 0 0.4017-7e-3 0.5417-0.0258 0.1437-0.0182 0.2506-0.044 0.3314-0.0774 0.0774-0.0332 0.129-0.0734 0.1548-0.129 0.0258-0.055 0.0331-0.1179 0.0184-0.1879l-0.3132-1.5877c0.1513 0.2542 0.3503 0.5082 0.6043 0.7736 0.2506 0.2619 0.5417 0.4974 0.8697 0.7075 0.328 0.2063 0.6812 0.3795 1.0681 0.5119 0.3835 0.133 0.7849 0.199 1.201 0.199 0.5052 0 0.9286-0.0734 1.2711-0.2208 0.3393-0.1474 0.6191-0.3464 0.8291-0.6007 0.2137-0.2506 0.3648-0.5454 0.4606-0.8807 0.0919-0.3314 0.1401-0.6885 0.1401-1.0607zm10.242-7.4903c-0.0295-0.1511-0.144-0.2613-0.339-0.3243-0.199-0.066-0.5159-0.0992-0.9578-0.0992-0.2214 0-0.402 7e-3 -0.5454 0.0218-0.1398 0.0148-0.2506 0.0406-0.3388 0.0701-0.0847 0.0331-0.14 0.0773-0.1658 0.1289-0.0258 0.0556-0.0332 0.1219-0.0187 0.2027l0.3022 1.544c-0.1069-0.2321-0.2798-0.4756-0.5156-0.7296-0.2396-0.2543-0.5194-0.4864-0.8439-0.6962-0.3243-0.2103-0.6815-0.3835-1.0721-0.5199-0.3943-0.136-0.7996-0.2024-1.2158-0.2024-0.5745 0-1.0536 0.0993-1.4329 0.3022-0.3835 0.1987-0.6891 0.4717-0.9176 0.8141-0.2318 0.3427-0.394 0.7331-0.4937 1.1716-0.0959 0.4382-0.1435 0.8991-0.1435 1.3813 0 0.4536 0.0403 0.9471 0.1287 1.4848 0.0848 0.5343 0.2177 1.0687 0.3983 1.603 0.18 0.5304 0.4121 1.0423 0.6925 1.5364 0.2798 0.4935 0.6151 0.9317 1.0091 1.3113 0.3909 0.3832 0.8402 0.6854 1.3485 0.9136 0.5085 0.2248 1.0794 0.339 1.7209 0.339 0.5967 0 1.127-0.125 1.5877-0.3722 0.4606-0.2503 0.862-0.6111 1.2084-1.0865l0.1732 0.8544c0.0294 0.1513 0.1403 0.2579 0.3387 0.3245 0.199 0.0624 0.5159 0.0956 0.9544 0.0956 0.2174 0 0.398-7e-3 0.5417-0.0258 0.1435-0.0182 0.2577-0.044 0.3391-0.0774 0.0847-0.0332 0.1397-0.0734 0.1692-0.129 0.0258-0.055 0.0331-0.1179 0.0187-0.1879zm-1.3377 6.757c-0.2539 0.394-0.5303 0.6927-0.8359 0.888-0.3061 0.199-0.6633 0.2983-1.065 0.2983-0.3021 0-0.5785-0.0735-0.8325-0.2175-0.2506-0.1437-0.4714-0.3353-0.6667-0.5748-0.1956-0.243-0.3648-0.523-0.5122-0.836-0.1477-0.3169-0.2727-0.6488-0.3685-0.9912-0.0959-0.3388-0.1696-0.6852-0.2175-1.0353-0.0439-0.3463-0.0697-0.6703-0.0697-0.9654 0-0.2172 0.0182-0.4198 0.0516-0.6152 0.0292-0.195 0.0918-0.3682 0.1766-0.5195 0.0848-0.1508 0.2024-0.2688 0.3464-0.3609 0.1437-0.0884 0.3277-0.1327 0.5491-0.1327 0.3166 0 0.6409 0.0959 0.9722 0.2838 0.332 0.1916 0.6415 0.4496 0.9287 0.7773 0.2874 0.3279 0.5414 0.7112 0.7591 1.1457 0.2208 0.4349 0.3796 0.8989 0.4827 1.3964zm6.7794-6.7459c-0.0148-0.0735-0.0516-0.1364-0.1032-0.1917-0.0556-0.0515-0.1363-0.0995-0.2432-0.1323-0.1106-0.0372-0.2543-0.063-0.4312-0.0814-0.1802-0.0184-0.4016-0.0292-0.6593-0.0292-0.2727 0-0.4935 0.0108-0.663 0.0292-0.1698 0.0184-0.3022 0.0442-0.3946 0.0814-0.0955 0.0328-0.1582 0.0808-0.1879 0.1323-0.0329 0.0553-0.0437 0.1182-0.0292 0.1917l2.8406 14.192c0.0144 0.0737 0.0442 0.1364 0.0958 0.1953 0.0516 0.059 0.1323 0.1069 0.2469 0.1435 0.1176 0.0408 0.2616 0.0703 0.4382 0.0924 0.1769 0.0221 0.398 0.0331 0.6633 0.0331 0.2687 0 0.4862-0.011 0.6557-0.0331 0.1658-0.0221 0.2987-0.0516 0.3906-0.0924 0.0958-0.0366 0.1547-0.0845 0.1839-0.1435 0.0298-0.0589 0.0372-0.1216 0.0224-0.1953zm11.27 14.007c0-0.0406-7e-3 -0.1106-0.0185-0.2098-0.011-0.0958-0.0258-0.2064-0.0442-0.328-0.0147-0.1216-0.0405-0.2505-0.07-0.3795-0.0258-0.129-0.0629-0.2506-0.0995-0.3612-0.0408-0.1105-0.0847-0.2024-0.1361-0.2687-0.0515-0.07-0.1031-0.1032-0.1627-0.1032-0.0436 0-0.0992 0.0108-0.1655 0.0332-0.07 0.0218-0.1474 0.0442-0.2319 0.07-0.0887 0.0258-0.1879 0.0479-0.2985 0.0697-0.1108 0.0224-0.2321 0.0335-0.3611 0.0335-0.2322 0-0.4312-0.0335-0.6004-0.0998-0.1698-0.0623-0.3135-0.1655-0.4351-0.3056-0.125-0.14-0.2282-0.3206-0.3129-0.5453-0.0885-0.2245-0.1585-0.4902-0.2175-0.7997l-0.1621-0.8175h1.7501c0.1069 0 0.1843-0.0369 0.2248-0.1032 0.0442-0.07 0.066-0.1806 0.066-0.3319 0-0.0695-7e-3 -0.1656-0.0184-0.2798-0.0108-0.1142-0.0292-0.2395-0.0589-0.3722-0.0292-0.1324-0.0627-0.2653-0.1066-0.3943-0.0442-0.129-0.0885-0.2466-0.1401-0.3572-0.0515-0.1068-0.1105-0.195-0.1766-0.2616-0.07-0.0697-0.144-0.1032-0.2213-0.1032h-1.772l-1.6948-8.4628c-0.1216-0.5964-0.2911-1.1237-0.5009-1.5766-0.214-0.453-0.4827-0.8326-0.8033-1.1387-0.3243-0.3056-0.7076-0.5338-1.1495-0.6886-0.4459-0.1547-0.947-0.2321-1.5066-0.2321-0.3762 0-0.6891 0.0258-0.9397 0.0847-0.2506 0.0587-0.4127 0.1143-0.4861 0.1732-0.0372 0.0443-0.0596 0.0882-0.074 0.1398-0.0147 0.0516-0.0221 0.1216-0.0221 0.2174 0 0.0403 4e-3 0.1142 0.0147 0.2137 0.0111 0.1029 0.0298 0.2101 0.0476 0.3317 0.0224 0.1179 0.0516 0.2429 0.0814 0.3719 0.0332 0.129 0.07 0.2466 0.1105 0.3538 0.0369 0.1105 0.0845 0.199 0.1327 0.2653 0.0516 0.07 0.1106 0.1032 0.1732 0.1032 0.0439 0 0.0882-4e-3 0.1287-0.0114 0.0442-7e-3 0.0924-0.0144 0.14-0.0258 0.0516-0.0107 0.1106-0.0218 0.1806-0.0292 0.0663-7e-3 0.1548-0.011 0.2653-0.011 0.2285 0 0.4272 0.0368 0.597 0.1032 0.1695 0.07 0.3169 0.1768 0.4385 0.3206 0.1213 0.1434 0.2242 0.3279 0.313 0.5561 0.0847 0.2248 0.1621 0.5012 0.2247 0.8255l1.6322 8.1161h-1.2084c-0.0884 0-0.1547 0.0295-0.2029 0.0924-0.0443 0.0587-0.07 0.1766-0.07 0.3498 0 0.0734 8e-3 0.1659 0.0184 0.2798 0.0113 0.1145 0.0258 0.2395 0.0516 0.3685s0.0555 0.2616 0.0924 0.3943c0.0365 0.1327 0.0847 0.2506 0.1397 0.3538 0.059 0.1068 0.1216 0.1916 0.1919 0.2616 0.0661 0.0663 0.1474 0.1032 0.2393 0.1032h1.19l0.2026 1.0681c0.118 0.6043 0.2875 1.135 0.5086 1.5953 0.2245 0.4607 0.4975 0.8476 0.8251 1.1571 0.328 0.3096 0.7147 0.5417 1.1571 0.6965 0.442 0.1548 0.9431 0.2322 1.5033 0.2322 0.1876 0 0.3755-0.0114 0.5635-0.0298 0.1879-0.0184 0.3537-0.0405 0.5045-0.0734 0.1514-0.0338 0.2878-0.0703 0.4017-0.1145 0.1143-0.0443 0.1953-0.0845 0.2359-0.129 0.0442-0.0369 0.0734-0.0885 0.0921-0.1511 0.0184-0.0663 0.0295-0.1437 0.0295-0.2395zm8.2119-6.4953c0-0.5193-0.1182-0.9834-0.35-1.4001-0.2359-0.4124-0.5967-0.7699-1.0908-1.0681-0.4935-0.2987-1.1197-0.5269-1.8788-0.6857-0.7589-0.1581-1.6654-0.2355-2.715-0.2355h-0.9913c-0.0295-0.1659-0.0516-0.3317-0.0661-0.4938-0.015-0.1582-0.0224-0.3096-0.0224-0.4459 0-0.582 0.1511-1.0205 0.4533-1.3187 0.3019-0.2948 0.7886-0.4422 1.459-0.4422 0.4751 0 0.8989 0.0369 1.2784 0.1029 0.3759 0.0703 0.7073 0.144 0.991 0.2288 0.2874 0.0807 0.523 0.1581 0.7075 0.2247 0.1877 0.0698 0.324 0.1032 0.4128 0.1032 0.0844 0 0.1474-0.0258 0.1802-0.074 0.0366-0.0515 0.0553-0.1323 0.0553-0.2392 0-0.1216-0.0108-0.2614-0.0331-0.4201-0.0222-0.1585-0.0516-0.3166-0.0922-0.4714-0.0368-0.1548-0.0884-0.2985-0.1511-0.4348-0.0589-0.1367-0.1289-0.2432-0.21-0.3133-0.0845-0.0884-0.2432-0.1732-0.4754-0.2613-0.2282-0.0851-0.5045-0.1624-0.8285-0.2361-0.3243-0.0735-0.6891-0.1327-1.0908-0.1766-0.4014-0.0482-0.8141-0.0701-1.2305-0.0701-0.6925 0-1.2932 0.0701-1.8088 0.2138-0.5122 0.1434-0.9434 0.3645-1.2898 0.6593s-0.6038 0.6707-0.7772 1.1276c-0.1732 0.4564-0.2577 0.9981-0.2577 1.6243 0 0.4827 0.0442 0.9986 0.1324 1.5474 0.0924 0.5531 0.2358 1.0945 0.4385 1.6322 0.2027 0.5343 0.4606 1.0463 0.7775 1.5364 0.3167 0.4901 0.6999 0.9213 1.1495 1.2895 0.449 0.3724 0.9689 0.6706 1.5582 0.8918 0.5933 0.2247 1.2637 0.335 2.0191 0.335 0.6559 0 1.2195-0.0774 1.6909-0.2319 0.4716-0.1547 0.8586-0.3611 1.1608-0.6154 0.3021-0.2542 0.5269-0.5488 0.6737-0.8733 0.1477-0.3277 0.2214-0.6667 0.2214-1.0094zm-2.6677-0.2061c0 0.2874-0.1139 0.5269-0.3387 0.7183-0.2285 0.1916-0.5561 0.2834-0.9873 0.2834-0.3611 0-0.6817-0.0623-0.9655-0.1913-0.2837-0.1287-0.5343-0.3059-0.7514-0.523-0.2175-0.2214-0.4014-0.4793-0.5562-0.7775-0.1548-0.2985-0.2764-0.6191-0.3722-0.9579h0.9062c0.5746 0 1.0574 0.0406 1.448 0.114 0.3869 0.0774 0.6999 0.1806 0.9394 0.3095 0.2358 0.129 0.4093 0.2804 0.5159 0.457 0.1103 0.1772 0.1618 0.3648 0.1618 0.5675zm11.484 2.4721c0-0.0516-7e-3 -0.1403-0.0219-0.2693-0.0147-0.129-0.0331-0.2798-0.0629-0.453-0.0292-0.1732-0.066-0.3538-0.1103-0.5343-0.0405-0.184-0.0887-0.3572-0.1437-0.5154-0.0553-0.1587-0.1142-0.2877-0.1842-0.3869-0.0664-0.0998-0.1437-0.1514-0.2211-0.1514-0.0661 0-0.129 0.0114-0.1951 0.0372-0.0629 0.0258-0.1363 0.0516-0.2137 0.0774-0.0813 0.0258-0.1658 0.0476-0.2616 0.0734-0.0921 0.0258-0.199 0.0368-0.3243 0.0368-0.2432 0-0.5046-0.0918-0.781-0.2798-0.2763-0.1842-0.5417-0.4311-0.7922-0.737-0.254-0.3058-0.4788-0.663-0.6741-1.0683-0.199-0.4088-0.3424-0.8326-0.4278-1.2821l-0.8617-4.3254c-0.0147-0.0735-0.0516-0.1364-0.1032-0.1917-0.0555-0.0515-0.1363-0.0995-0.2506-0.1323-0.1105-0.0372-0.2539-0.063-0.4345-0.0814s-0.4017-0.0292-0.6596-0.0292c-0.2656 0-0.4828 0.0108-0.652 0.0292-0.1698 0.0184-0.3022 0.0442-0.402 0.0814-0.0958 0.0328-0.1581 0.0808-0.1876 0.1323-0.0295 0.0553-0.0369 0.1182-0.0221 0.1917l1.9233 9.6378c0.0144 0.07 0.0442 0.1329 0.0958 0.1879 0.0516 0.0556 0.125 0.0958 0.2208 0.129 0.0958 0.0334 0.2248 0.0592 0.3796 0.0774 0.1548 0.0184 0.3387 0.0258 0.5564 0.0258 0.2208 0 0.4014-7e-3 0.5414-0.0258 0.1438-0.0182 0.2506-0.044 0.3317-0.0774 0.0774-0.0332 0.1287-0.0734 0.1545-0.129 0.0258-0.055 0.0331-0.1179 0.0187-0.1879l-0.3022-1.5324c0.1732 0.3095 0.3722 0.5932 0.597 0.8512 0.2282 0.2613 0.4677 0.4861 0.7257 0.6741 0.2539 0.1916 0.5196 0.3424 0.792 0.4495 0.2727 0.1066 0.5417 0.1619 0.8104 0.1619 0.1071 0 0.2174-7e-3 0.328-0.0218 0.1105-0.015 0.2174-0.0335 0.3132-0.0556 0.0961-0.0184 0.1842-0.0476 0.2579-0.081 0.0774-0.0292 0.1364-0.0664 0.1806-0.0993 0.0405-0.0445 0.0624-0.1145 0.0624-0.2063zm10.147-2.2989c0-0.2506-0.0185-0.5049-0.0482-0.7555-0.0332-0.2542-0.0734-0.5119-0.125-0.7775l-1.1977-5.9462c-0.0147-0.0735-0.0476-0.1364-0.1032-0.1917-0.0549-0.0515-0.1363-0.0995-0.2503-0.1323-0.1102-0.0372-0.2542-0.063-0.4311-0.0814s-0.398-0.0292-0.6633-0.0292c-0.265 0-0.4825 0.0108-0.652 0.0292-0.1692 0.0184-0.3022 0.0442-0.3943 0.0814-0.0918 0.0328-0.1584 0.0808-0.1876 0.1323-0.0332 0.0553-0.0443 0.1182-0.0298 0.1917l1.1679 5.7733c0.0371 0.1729 0.0629 0.3501 0.0813 0.5306 0.0185 0.1766 0.0258 0.3351 0.0258 0.4714 0 0.3243-0.07 0.5933-0.2063 0.7997-0.1364 0.2098-0.3649 0.3129-0.6891 0.3129-0.2948 0-0.6041-0.0921-0.9247-0.2797-0.3206-0.188-0.6228-0.4425-0.9065-0.7592-0.2838-0.3203-0.5377-0.6964-0.7586-1.1236-0.225-0.4275-0.3835-0.8844-0.4756-1.3672l-0.8731-4.3582c-0.0144-0.0735-0.0516-0.1364-0.1029-0.1917-0.0555-0.0515-0.1363-0.0995-0.2509-0.1323-0.1102-0.0372-0.2539-0.063-0.4345-0.0814s-0.4014-0.0292-0.6593-0.0292c-0.2657 0-0.4828 0.0108-0.652 0.0292-0.1698 0.0184-0.3022 0.0442-0.402 0.0814-0.0958 0.0328-0.1581 0.0808-0.1879 0.1323-0.0292 0.0553-0.0366 0.1182-0.0218 0.1917l1.9338 9.6378c0.015 0.07 0.0442 0.1329 0.0924 0.1879 0.0442 0.0556 0.1179 0.0958 0.2137 0.129 0.0958 0.0334 0.2248 0.0592 0.3796 0.0774 0.1547 0.0184 0.3387 0.0258 0.5561 0.0258 0.2211 0 0.4017-7e-3 0.5417-0.0258 0.1435-0.0182 0.2506-0.044 0.3314-0.0774 0.0774-0.0332 0.129-0.0734 0.1548-0.129 0.0258-0.055 0.0331-0.1179 0.0184-0.1879l-0.3132-1.5877c0.1513 0.2542 0.3503 0.5082 0.6043 0.7736 0.2506 0.2619 0.5417 0.4974 0.8697 0.7075 0.3279 0.2063 0.6811 0.3795 1.0681 0.5119 0.3835 0.133 0.7849 0.199 1.201 0.199 0.5051 0 0.9286-0.0734 1.2711-0.2208 0.3393-0.1474 0.6191-0.3464 0.8291-0.6007 0.2137-0.2506 0.3645-0.5454 0.4603-0.8807 0.0922-0.3314 0.1404-0.6885 0.1404-1.0607zm9.2398 1.728c0-0.0887-0.0148-0.214-0.0406-0.3835-0.0258-0.1693-0.0626-0.3425-0.1142-0.516-0.0476-0.1692-0.1066-0.32-0.1766-0.4456-0.0663-0.125-0.1437-0.1879-0.2322-0.1879-0.0921 0-0.2026 0.0332-0.3279 0.0998-0.1253 0.0697-0.2801 0.1471-0.4604 0.2282-0.1805 0.0808-0.3909 0.1547-0.6304 0.2211-0.2426 0.066-0.523 0.0958-0.847 0.0958-0.2509 0-0.4756-0.0298-0.6746-0.0958-0.1985-0.0664-0.3606-0.1511-0.4896-0.2654-0.1329-0.1105-0.2287-0.2432-0.2987-0.3942-0.0701-0.1509-0.1032-0.3133-0.1032-0.4862 0-0.2214 0.0924-0.409 0.2763-0.5601 0.1846-0.1511 0.4128-0.2909 0.6852-0.4272 0.273-0.1329 0.5675-0.269 0.8844-0.4127 0.3166-0.144 0.6117-0.324 0.8841-0.5414 0.2764-0.2138 0.5012-0.4791 0.6818-0.7886 0.1805-0.3096 0.269-0.6962 0.269-1.1645 0-0.5488-0.1032-1.0534-0.3133-1.5177-0.2063-0.4643-0.5119-0.8657-0.9099-1.201-0.4017-0.3393-0.8878-0.6044-1.459-0.7957-0.5709-0.1916-1.2158-0.2838-1.9377-0.2838-0.3428 0-0.6747 0.0219-0.9876 0.0735-0.3133 0.0516-0.593 0.1105-0.8399 0.1845-0.2506 0.07-0.4607 0.1548-0.6339 0.2466-0.1729 0.0958-0.3019 0.1806-0.3866 0.2614-0.0593 0.0555-0.0998 0.1182-0.1256 0.1805-0.0258 0.0666-0.0368 0.1474-0.0368 0.2506 0 0.0629 4e-3 0.1474 0.015 0.2472 0.0108 0.1032 0.0292 0.2137 0.055 0.3351 0.0258 0.1216 0.0555 0.2432 0.0847 0.3687 0.0335 0.1211 0.07 0.2322 0.1143 0.3314 0.0445 0.1032 0.0921 0.184 0.1403 0.2432 0.0516 0.0624 0.1066 0.0922 0.1618 0.0922 0.0995 0 0.2138-0.0406 0.3354-0.129 0.1216-0.0848 0.2798-0.1806 0.4751-0.2877 0.1956-0.1032 0.4351-0.1985 0.7185-0.2909 0.2838-0.0881 0.6376-0.1324 1.0611-0.1324 0.2948 0 0.5527 0.0329 0.7738 0.1029 0.2174 0.0664 0.4014 0.1622 0.5454 0.2838 0.1434 0.1213 0.2503 0.2653 0.3169 0.4201 0.0695 0.1582 0.1029 0.328 0.1029 0.5085 0 0.254-0.0884 0.4564-0.265 0.6151-0.1772 0.1582-0.398 0.3056-0.6633 0.442-0.2654 0.1363-0.5562 0.2763-0.8697 0.4237-0.3129 0.1438-0.6004 0.317-0.8694 0.527-0.2653 0.2098-0.4864 0.4677-0.663 0.7773-0.1772 0.3095-0.2656 0.6964-0.2656 1.1641 0 0.5123 0.0998 0.9874 0.2914 1.4259 0.1953 0.4382 0.4788 0.8217 0.8546 1.1494 0.3722 0.328 0.8289 0.5823 1.3595 0.7662 0.5341 0.1846 1.1384 0.2764 1.8128 0.2764 0.3019 0 0.5967-0.0184 0.8804-0.0587 0.2838-0.0405 0.5378-0.0921 0.7665-0.1587 0.2282-0.0624 0.4232-0.1364 0.593-0.2137 0.1695-0.0808 0.2911-0.1582 0.3612-0.2393 0.0807-0.07 0.1213-0.1919 0.1213-0.3645zm10.802-1.6951c0-0.5193-0.1182-0.9834-0.3503-1.4001-0.2356-0.4124-0.5967-0.7699-1.0905-1.0681-0.4935-0.2987-1.1197-0.5269-1.8788-0.6857-0.7588-0.1581-1.6654-0.2355-2.715-0.2355h-0.9913c-0.0298-0.1659-0.0516-0.3317-0.0663-0.4938-0.0151-0.1582-0.0224-0.3096-0.0224-0.4459 0-0.582 0.1513-1.0205 0.4535-1.3187 0.3019-0.2948 0.7883-0.4422 1.459-0.4422 0.4751 0 0.8989 0.0369 1.2784 0.1029 0.3756 0.0703 0.7073 0.144 0.9907 0.2288 0.2877 0.0807 0.5233 0.1581 0.7076 0.2247 0.1879 0.0698 0.3242 0.1032 0.4127 0.1032 0.0847 0 0.1474-0.0258 0.1806-0.074 0.0365-0.0515 0.0549-0.1323 0.0549-0.2392 0-0.1216-0.0107-0.2614-0.0328-0.4201-0.0221-0.1585-0.0516-0.3166-0.0922-0.4714-0.0368-0.1548-0.0884-0.2985-0.1513-0.4348-0.059-0.1367-0.129-0.2432-0.2098-0.3133-0.0848-0.0884-0.2432-0.1732-0.4754-0.2613-0.2282-0.0851-0.5045-0.1624-0.8288-0.2361-0.324-0.0735-0.6891-0.1327-1.0905-0.1766-0.4014-0.0482-0.8141-0.0701-1.2305-0.0701-0.6928 0-1.2932 0.0701-1.8091 0.2138-0.5119 0.1434-0.9431 0.3645-1.2895 0.6593s-0.604 0.6707-0.7772 1.1276c-0.1732 0.4564-0.258 0.9981-0.258 1.6243 0 0.4827 0.0442 0.9986 0.1324 1.5474 0.0924 0.5531 0.2361 1.0945 0.4385 1.6322 0.203 0.5343 0.4609 1.0463 0.7776 1.5364 0.3169 0.4901 0.6998 0.9213 1.1494 1.2895 0.4493 0.3724 0.9689 0.6706 1.5585 0.8918 0.593 0.2247 1.2637 0.335 2.0188 0.335 0.656 0 1.2195-0.0774 1.6912-0.2319 0.4714-0.1547 0.8583-0.3611 1.1605-0.6154 0.3021-0.2542 0.5269-0.5488 0.6741-0.8733 0.1474-0.3277 0.2213-0.6667 0.2213-1.0094zm-2.6676-0.2061c0 0.2874-0.114 0.5269-0.3388 0.7183-0.2287 0.1916-0.5561 0.2834-0.9873 0.2834-0.3611 0-0.6817-0.0623-0.9655-0.1913-0.2837-0.1287-0.5343-0.3059-0.7514-0.523-0.2175-0.2214-0.4014-0.4793-0.5562-0.7775-0.1548-0.2985-0.2764-0.6191-0.3722-0.9579h0.906c0.5748 0 1.0576 0.0406 1.4482 0.114 0.3869 0.0774 0.6999 0.1806 0.9394 0.3095 0.2358 0.129 0.409 0.2804 0.5156 0.457 0.1106 0.1772 0.1622 0.3648 0.1622 0.5675zm12.489-7.306c-0.0145-0.0735-0.0516-0.1364-0.1032-0.1917-0.055-0.0515-0.136-0.0995-0.2506-0.1323-0.1102-0.0372-0.2539-0.063-0.4305-0.0814-0.1772-0.0184-0.402-0.0292-0.6744-0.0292-0.258 0-0.4717 0.0108-0.6412 0.0292-0.1692 0.0184-0.3022 0.0442-0.394 0.0814-0.0958 0.0328-0.1588 0.0808-0.188 0.1323-0.0334 0.0553-0.0442 0.1182-0.0294 0.1917l1.1565 5.7733c0.0298 0.1511 0.0516 0.3203 0.074 0.5119 0.0221 0.1919 0.0332 0.3612 0.0332 0.5122 0 0.1585-0.0148 0.3059-0.0482 0.4383-0.0332 0.1329-0.0848 0.2469-0.1582 0.3467-0.07 0.0958-0.1658 0.1732-0.2798 0.2247-0.1145 0.055-0.2506 0.0808-0.4093 0.0808-0.2948 0-0.6038-0.0921-0.9247-0.2797-0.3206-0.188-0.6227-0.4425-0.9065-0.7665-0.2837-0.3243-0.5377-0.6999-0.7585-1.135-0.2248-0.4306-0.3836-0.8876-0.4757-1.3703l-0.8728-4.3364c-0.0147-0.0735-0.0516-0.1364-0.1032-0.1917-0.0555-0.0515-0.1363-0.0995-0.2506-0.1323-0.1105-0.0372-0.2542-0.063-0.4348-0.0814s-0.4014-0.0292-0.6593-0.0292c-0.2656 0-0.4828 0.0108-0.652 0.0292-0.1698 0.0184-0.3022 0.0442-0.4019 0.0814-0.0959 0.0328-0.1582 0.0808-0.188 0.1323-0.0292 0.0553-0.0365 0.1182-0.0218 0.1917l2.8403 14.192c0.0147 0.0737 0.0445 0.1364 0.0961 0.1953 0.0516 0.059 0.1324 0.1069 0.2466 0.1435 0.1179 0.0408 0.2619 0.0703 0.4385 0.0924s0.398 0.0331 0.6633 0.0331c0.2688 0 0.4862-0.011 0.6554-0.0331 0.1661-0.0221 0.2988-0.0516 0.3909-0.0924 0.0958-0.0366 0.1548-0.0845 0.184-0.1435 0.0295-0.0589 0.0368-0.1216 0.0224-0.1953l-0.7665-3.905c-0.0372-0.1587-0.0737-0.328-0.1179-0.5085-0.0443-0.1806-0.0924-0.3575-0.1474-0.5344-0.0516-0.1768-0.1069-0.3461-0.1622-0.5119-0.0516-0.1661-0.1029-0.3135-0.1545-0.4425 0.1361 0.2288 0.324 0.4609 0.5599 0.6891 0.2395 0.2322 0.5082 0.4385 0.8144 0.6265 0.3055 0.1876 0.6369 0.339 0.9946 0.4606 0.3572 0.1179 0.722 0.1766 1.0939 0.1766 0.4901 0 0.9029-0.07 1.2419-0.2064 0.3387-0.136 0.6151-0.3279 0.8325-0.5706 0.2138-0.2435 0.3719-0.5383 0.4677-0.8736 0.0998-0.3387 0.1474-0.7109 0.1474-1.1123 0-0.258-0.0144-0.5159-0.0442-0.7739-0.0292-0.254-0.066-0.5085-0.1176-0.7591zm12.692 7.5121c0-0.5193-0.1182-0.9834-0.3501-1.4001-0.2358-0.4124-0.5967-0.7699-1.0907-1.0681-0.4935-0.2987-1.1197-0.5269-1.8788-0.6857-0.7589-0.1581-1.6654-0.2355-2.7151-0.2355h-0.9912c-0.0295-0.1659-0.0516-0.3317-0.0661-0.4938-0.015-0.1582-0.0224-0.3096-0.0224-0.4459 0-0.582 0.1514-1.0205 0.4536-1.3187 0.3016-0.2948 0.7883-0.4422 1.4587-0.4422 0.4751 0 0.8988 0.0369 1.2784 0.1029 0.3759 0.0703 0.7072 0.144 0.991 0.2288 0.2874 0.0807 0.523 0.1581 0.7075 0.2247 0.1877 0.0698 0.324 0.1032 0.4127 0.1032 0.0845 0 0.1474-0.0258 0.1803-0.074 0.0366-0.0515 0.0553-0.1323 0.0553-0.2392 0-0.1216-0.0108-0.2614-0.0332-0.4201-0.0221-0.1585-0.0516-0.3166-0.0921-0.4714-0.0368-0.1548-0.0884-0.2985-0.1511-0.4348-0.0589-0.1367-0.129-0.2432-0.21-0.3133-0.0845-0.0884-0.2432-0.1732-0.4754-0.2613-0.2282-0.0851-0.5046-0.1624-0.8286-0.2361-0.3242-0.0735-0.6891-0.1327-1.0907-0.1766-0.4014-0.0482-0.8141-0.0701-1.2306-0.0701-0.6925 0-1.2931 0.0701-1.8087 0.2138-0.5123 0.1434-0.9434 0.3645-1.2898 0.6593s-0.6038 0.6707-0.7773 1.1276c-0.1732 0.4564-0.2576 0.9981-0.2576 1.6243 0 0.4827 0.0442 0.9986 0.1323 1.5474 0.0925 0.5531 0.2359 1.0945 0.4386 1.6322 0.2026 0.5343 0.4606 1.0463 0.7775 1.5364 0.3166 0.4901 0.6999 0.9213 1.1495 1.2895 0.449 0.3724 0.9688 0.6706 1.5582 0.8918 0.5933 0.2247 1.2636 0.335 2.0191 0.335 0.6559 0 1.2194-0.0774 1.6908-0.2319 0.4717-0.1547 0.8587-0.3611 1.1608-0.6154 0.3022-0.2542 0.527-0.5488 0.6741-0.8733 0.1474-0.3277 0.2211-0.6667 0.2211-1.0094zm-2.6677-0.2061c0 0.2874-0.1139 0.5269-0.3387 0.7183-0.2285 0.1916-0.5562 0.2834-0.9873 0.2834-0.3612 0-0.6818-0.0623-0.9655-0.1913-0.2837-0.1287-0.5343-0.3059-0.7515-0.523-0.2174-0.2214-0.4013-0.4793-0.5561-0.7775-0.1548-0.2985-0.2764-0.6191-0.3722-0.9579h0.9062c0.5746 0 1.0573 0.0406 1.448 0.114 0.3869 0.0774 0.6998 0.1806 0.9394 0.3095 0.2358 0.129 0.4093 0.2804 0.5159 0.457 0.1102 0.1772 0.1618 0.3648 0.1618 0.5675zm13.849 0.1732c0-0.2506-0.0185-0.5049-0.0482-0.7555-0.0329-0.2542-0.0734-0.5119-0.125-0.7775l-1.1977-5.9462c-0.0144-0.0735-0.0476-0.1364-0.1032-0.1917-0.055-0.0515-0.136-0.0995-0.25-0.1323-0.1105-0.0372-0.2545-0.063-0.4311-0.0814-0.1772-0.0184-0.398-0.0292-0.6633-0.0292-0.2654 0-0.4828 0.0108-0.6523 0.0292-0.1692 0.0184-0.3022 0.0442-0.394 0.0814-0.0921 0.0328-0.1587 0.0808-0.1879 0.1323-0.0332 0.0553-0.0443 0.1182-0.0295 0.1917l1.1679 5.7733c0.0368 0.1729 0.0626 0.3501 0.081 0.5306 0.0185 0.1766 0.0258 0.3351 0.0258 0.4714 0 0.3243-0.07 0.5933-0.2063 0.7997-0.1361 0.2098-0.3649 0.3129-0.6889 0.3129-0.295 0-0.604-0.0921-0.9246-0.2797-0.3209-0.188-0.6231-0.4425-0.9065-0.7592-0.2838-0.3203-0.5381-0.6964-0.7589-1.1236-0.2248-0.4275-0.3835-0.8844-0.4753-1.3672l-0.8731-4.3582c-0.0148-0.0735-0.0516-0.1364-0.1032-0.1917-0.0556-0.0515-0.1363-0.0995-0.2506-0.1323-0.1105-0.0372-0.254-0.063-0.4345-0.0814-0.1806-0.0184-0.4017-0.0292-0.6597-0.0292-0.2656 0-0.4824 0.0108-0.6519 0.0292-0.1698 0.0184-0.3022 0.0442-0.402 0.0814-0.0958 0.0328-0.1581 0.0808-0.1876 0.1323-0.0295 0.0553-0.0366 0.1182-0.0221 0.1917l1.934 9.6378c0.0151 0.07 0.0443 0.1329 0.0925 0.1879 0.0442 0.0556 0.1176 0.0958 0.2134 0.129 0.0958 0.0334 0.2248 0.0592 0.3796 0.0774 0.1547 0.0184 0.3387 0.0258 0.5564 0.0258 0.2208 0 0.4014-7e-3 0.5414-0.0258 0.1437-0.0182 0.2506-0.044 0.3317-0.0774 0.0774-0.0332 0.1289-0.0734 0.1545-0.129 0.0258-0.055 0.0331-0.1179 0.0187-0.1879l-0.3135-1.5877c0.1513 0.2542 0.3503 0.5082 0.6043 0.7736 0.2506 0.2619 0.5417 0.4974 0.8697 0.7075 0.3279 0.2063 0.6814 0.3795 1.0681 0.5119 0.3835 0.133 0.7849 0.199 1.201 0.199 0.5051 0 0.9286-0.0734 1.2713-0.2208 0.3391-0.1474 0.6188-0.3464 0.8292-0.6007 0.2134-0.2506 0.3645-0.5454 0.4603-0.8807 0.0919-0.3314 0.1401-0.6885 0.1401-1.0607" fill="#00898c" fill-rule="evenodd"/></g></svg>
