<svg width="2314.2pt" height="816.02pt" version="1.1" viewBox="0 0 2314.2 816.02" xmlns="http://www.w3.org/2000/svg" xmlns:xlink="http://www.w3.org/1999/xlink">
 <defs>
  <linearGradient id="a">
   <stop stop-color="#0b0b0b" offset="0"/>
   <stop stop-color="#2d2d33" offset="1"/>
  </linearGradient>
  <linearGradient id="b" x1="925.76" x2="925.76" y1="840.36" y2="262.06" gradientTransform="translate(-116.16 -162.03)" gradientUnits="userSpaceOnUse" xlink:href="#a"/>
  <linearGradient id="c" x1="726.16" x2="726.16" y1="813.15" y2="720.98" gradientUnits="userSpaceOnUse" xlink:href="#a"/>
 </defs>
 <path d="m1876.9 3.9278c4.48-4.19 11.27-4.74 16.94-3 5.62 1.34 11.05 5.25 12.49 11.1 1.38 7.19-0.08 14.78-3.58 21.17 1 3.05 3.31 6.31 1.8 9.58-1.33 3.5-5.67 3.61-8.04 6.09 6.79 29.44 11.63 59.4 20.85 88.23 2.97 8.75 6.01 17.65 11.25 25.34 10.47-10.31 17.77-23.32 24.14-36.43 3.97-8.54 7.72-17.22 10.64-26.18-0.28-2.53-2.84-4.27-2.94-6.87-0.06-1.72 1.31-2.95 2.26-4.23 0.17-3.25-2.27-5.71-3-8.73-1.38-4.84-1.21-10.79 2.47-14.59 3.85-3.65 9.6-4.03 14.61-3.42 6.29 0.96 12.77 2.96 17.52 7.4 4.06 3.76 6.21 9.94 3.96 15.23-1.4 4.19-5.09 6.82-7.69 10.19 0.65 1.63 1.72 3.31 1.21 5.16-0.71 3.22-5.8 4.16-4.63 7.94 1.64 13.51 3.27 27.23 8 40.07 12.35-9.09 22.31-20.93 31.7-32.93 9.78-12.77 18.92-26.05 27.22-39.82 1.94-2.91-2.05-5.27-1.28-8.27-0.29-2.9 2.47-3.99 4.6-5.01 0.7-1.24 0.71-2.46 0.01-3.64-2.81-5.28-4.22-11.33-3.86-17.31 0.74-6.11 5.88-10.92 11.68-12.44 9-2.32 18.85-1.37 27.26 2.62 6.26 2.82 12.55 7.13 15.07 13.82 2.41 6.48-0.93 13.58-5.71 18.03-2.83 3.03-7.13 4.44-9.25 8.15 1.09 2.45 2.21 5.49 0.18 7.8-1.51 2.18-3.97 3.99-3.84 6.9-3.41 27.65-3.13 55.89 2.34 83.25 3.05 14.62 7.19 29.19 14.09 42.5 11.99-4.79 22.04-13.22 32.3-20.86 11.88-9.34 23.51-19.01 34.87-28.99-0.55-1.27-1.19-2.51-1.47-3.83 0.14-4.01 4.91-4.89 6.47-8.15-2.16-8.71 4.86-16.62 12.68-19.23 8.91-2.44 18.75 0.28 25.56 6.41 1.97 1.93 4.69 3.88 4.72 6.94 0.61 4.98-2.46 9.56-6.38 12.33-3.19 2.5-7.07 3.74-10.68 5.41-1.81 1.45-1.71 4.17-3.19 5.87-1.51 1.78-3.91 2.26-5.97 3.04-8.71 15.65-14.84 32.67-18.97 50.07 13.85-6.59 26.39-15.56 38.97-24.27 17.18-12.09 33.76-25.02 50.5-37.7 0.54-3.98-4.82-5.65-3.94-9.66 1.18-3.76 5.34-4.1 8.43-5.48 0.61-7.84 4.03-15.73 9.97-20.99 8-6.64 19.94-4.43 27.88 1.18 5.68 3.92 8.35 11.58 6.47 18.2-3.81 7.65-11.41 13.24-19.78 14.85-1.89 0.32-3.76 0.76-5.15 2.11 0.51 4.52-4.26 9.03-8.72 7.2-2.13-0.47-5.01-1.84-6.6 0.36-23.47 24.96-45.59 51.14-67.91 77.12-6.07 6.86-11.41 14.82-19.69 19.23-4.61 2.67-9.93 3.76-15.21 3.72-0.38 0.6-1.14 1.81-1.52 2.42 5.01 4.42 4.32 14.41-2.26 16.99-3.06 1.38-6.49 0.88-9.71 1.26-2.37 2.21-3.9 5.13-5.61 7.84 5.58 5.77 5.77 14.41 5.87 21.95-1.07 10.32-6.33 21-15.85 25.93 0.37 5.02 0.51 10.19 2.2 14.99 1.11 3.6 4.88 5.71 5.62 9.49 0.91 5.3-2.53 11.19-8.1 11.93-0.13 38.8-4.42 77.48-10.58 115.75-5.79 34.77-12.97 69.38-23.51 103.05-4.72 14.93-9.96 29.84-17.71 43.5-4.07 7.25-9.79 13.95-17.59 17.27-14.85 6.62-31.15 8.85-47.08 11.37-39.75 5.41-79.87 7.42-119.93 8.7-56.83 1.29-113.75 1.03-170.49-2.77-25.97-1.68-51.92-4.16-77.57-8.61-10.22-1.8-20.4-4.01-30.24-7.31-7.86-2.68-15.78-6.27-21.23-12.75-9.81-11.3-16.49-24.91-22.4-38.55-14.73-35.51-24.2-73.01-30.59-110.86-4-24.83-6.9-49.92-6.75-75.1-0.17-19.7 1.41-39.59 6.93-58.57 3.53-11.81 8.93-23.37 17.53-32.35 9.29-9.28 21.71-14.44 33.78-19.04 20.8-7.62 42.47-12.49 64.1-17.07 62.6-12.52 126.2-19.18 189.81-23.86 0.81-2.36 1.68-4.97 3.94-6.36 2.78-2.08 6.53-0.92 9.53-2.45 4.78-2.36 8.08-6.73 11.59-10.59-1.1-1.71-1.77-3.67-1.45-5.71 0.61-6.47 2.45-12.79 4.78-18.85 3.27-8.01 10.76-13.53 18.86-16.02 0.59-3.43 1.31-6.82 1.97-10.23-2.2-1.36-4.5-2.73-5.93-4.92-2.54-3.55-2.34-8.91 0.8-12.03 1.58-1.74 4.06-2.21 5.81-3.75-1.29-5.41-6.56-8.5-8.37-13.64-3.82-9.71-4.61-20.28-5.08-30.6-0.03-10.69-1.25-21.32-1.97-31.97-1.37-17.96-2.74-35.92-4.1-53.88 0.06-2.77-3.16-3.25-5.03-4.34-3.39-1.6-5.74-6.64-3.08-9.8 1.37-1.38-0.15-3.04-0.86-4.29-3.09-4.3-4.92-9.41-5.77-14.6-0.73-4.9-0.15-10.54 3.61-14.15"/>
 <g fill="url(#b)">
  <path d="m786.9 111.92c4.82-7.13 13.21-12.095 21.94-11.955h197.04c11.67 0.77 23.785 10.605 23.155 23.065v182.61l205.12-195.28c5.51-6.09 13.73-8.945 21.6-10.395h209.1c7.22-0.19 14.46 2.475 19.92 7.175 6.25 5.37 8.8 14.77 5.68 22.47-1.51 3.81-4.61 6.62-7.6 9.28l-246.85 226.65 337.2 275.06c5.14 4.25 9.36 10.38 9.21 17.3-0.11 8.16-6.38 14.92-13.5 18.12-5.3 2.61-11.36 2.5-17.11 2.51-77.67-0.01-155.34-0.02-233.01 0-7.84 0.28-15.59-2.37-22.38-6.1l-267.38-217.34v200.89c0.25 12.95-12.975 22.8-25.205 22.52-64.35 0.05-128.71 0-193.06 0.02-4.92 0.09-9.95-0.68-14.23-3.22-6.6-3.68-12.685-10.26-12.245-18.31v-528.95c0.1-5.42-0.745-11.42 2.605-16.12z"/>
  <path d="m162.78 126.89c36.99-16.8 77.67-23.92 118.04-25.93 26.66-0.58 53.34-0.215 80-0.315h364c11.94-0.46 24.29 9.905 23.69 22.315v532.98c0.53 12.36-11.78 22.625-23.66 22.205h-179.02c-5.88-0.22-12.1 0.795-17.63-1.715-8.16-3.34-15.025-11.28-14.735-20.46v-181.74h-78.605c-14.03 0.11-28.11 0.055-42.08 1.615-5.54 0.51-11.22 1.78-15.55 5.5-5.42 4.57-10.71 9.61-14.08 15.93l-101.86 168.13c-4.82 7.42-13.34 13.155-22.44 12.745h-213.98c-10.11 0.52-20.31-6.235-23.01-16.125-1.76-6.22 0.59-12.73 4.12-17.86l113-169.1c8.12-10.14 17.84-18.89 27.81-27.17 14.85-12.33 31.6-22.18 49.03-30.37-15.16-4.87-30.29-9.98-44.65-16.92-17.35-8.35-34.39-18.11-48.19-31.71-12.18-11.95-21.52-26.66-27.6-42.58-8.09-21.06-10.83-43.84-10.59-66.29 0.22-26.44 8.21-52.9 23.63-74.47 18.56-26.14 45.45-45.41 74.36-58.66m170.97 112.12c-11.38 3.53-22.89 8.89-30.31 18.57-8.54 11-9.93 26.02-7.14 39.3 2.37 11.51 9.92 21.6 19.97 27.59 12.61 7.58 27.25 10.83 41.58 13.4 29.72 4.99 59.96 4.295 89.99 4.335h70.545c0.35-36.63-0.09-73.225 0-109.86h-118.5c-22.16-0.18-44.74 0.23-66.14 6.66z"/>
 </g>
 <g fill="url(#c)">
  <path d="m0 720.95h72.795c9.85-0.14 20.02 4.275 25.58 12.615 5.44 8.25 6.26 19.04 3.44 28.38-2.54 8.25-9.58 14.43-17.59 17.22l23.39 33.99-26.52-0.04-22.56-31.775h-36.21v31.805l-22.325-0.01v-92.185m22.325 39.38h47.51c3.83-0.08 8.79-0.935 10.26-5.055 0.91-3.34 0.9-7.43-1.44-10.19-2.76-2.9-7.06-3.305-10.83-3.405h-45.5z"/>
  <path d="m190 720.98h93.47v20.7h-71.145v13.32h49.45v20.99h-49.45v16.535h74.18v20.62h-96.505z"/>
  <path d="m408.12 721.11h23.41l48.54 91.94h-25.04l-9.33-18.395h-51.75l-9.35 18.395h-25l48.52-91.94m-2.92 52.525h29.29l-14.645-27.68z"/>
  <path d="m559.84 720.96h22.25v71.575h64.87v20.615h-87.12z"/>
  <path d="m726.16 720.98h21.855v92.17h-21.855z"/>
  <path d="m827.28 720.99h102.6v20.71h-40.05v71.445h-22.47v-71.445h-40.085z"/>
  <path d="m992.48 720.98 50.919 56.489 0.2592 35.676h22.361l0.2593-35.676 50.921-56.489h-28.46l-33.899 37.018-33.901-37.018z"/>
  <path d="m1800.1 744.34c9.48-15.74 27.61-24.75 45.61-25.9 15.1-1.39 31 1.18 43.7 9.87 6.45 4.18 11.77 9.79 16.68 15.65l-20.66 10.38c-4.84-5.35-10.55-10.15-17.46-12.52-10.05-3.5-21.33-3.41-31.38 0.02-7.96 2.92-15.45 8.72-18.23 16.98-2.82 8.79-1.03 19.3 5.69 25.89 7.44 7.58 18.48 10.16 28.8 10.06 11.02 0.19 23.18-3.51 29.23-13.41h-36.795v-21h64.945c0.06 8.32 0.25 16.94-3.26 24.69-6.39 15.75-21.94 26.33-38.31 29.41-18.94 3.57-40.1 1.39-55.85-10.51-11-8.02-18.82-21.09-18.34-34.95-0.53-8.56 1.04-17.32 5.63-24.66z"/>
  <path d="m2017.8 720c7.24-1.51 14.66-1 22.01-1.08 16.68 0.11 33.14 5.7 46.66 15.42l-13.87 15.6c-16.11-8.8-35.18-12.96-53.34-9.21-3.1 0.92-7.7928 1.7897-8.4 5.25-0.37 3.75 4.23 4.76 7.05 5.52 16.56 3.08 33.83 1.41 50.11 6.29 7.15 2.17 14.42 5.91 18.28 12.61 3.6 5.85 2.94 13.05 2.42 19.59-2.09 10.7-11.58 18.22-21.49 21.5-12.64 4.64-26.28 3.67-39.48 3.49-16.06-1.11-32.35-6.22-44.55-17.06l12.4-16.54c16.3 11.06 36.79 15.77 56.25 12.51 4.23-0.82 8.67-2.01 11.95-4.98 2.38-2.1 2.98-6.27 0.64-8.6-2.32-2.16-5.56-2.86-8.56-3.34-12.94-1.86-26.07-1.83-39.01-3.68-7.55-1.23-15.59-2.62-21.7-7.56-9.75-7.98-9.85-24.02-1.91-33.29 6.13-7.22 15.44-10.78 24.54-12.44z"/>
  <path d="m1298.7 720.96h22.065v39.3l53.352-39.31 34.153 0.03-49.32 36.49 50.77 55.645h-29.55l-38.63-42.485-20.775 15.24v27.245h-22.065z"/>
  <path d="m1599.8 720.99h23.68l58.13 62.505v-62.505h22.19v92.12h-23.75l-57.995-62.325v62.325h-22.255z"/>
  <path d="m1482.9 720.98h21.855v92.17h-21.855z"/>
 </g>
 <g transform="translate(-116.16 -162.03)" fill="#297bbb">
  <path d="m1929.9 459.08c25.67-1.83 51.35-3.65 77.08-4.32 37.15 12.51 74.03 25.91 111.11 38.69-16.1 46.86-32.54 93.61-48.82 140.4-16.9-44.35-33.58-88.8-51.33-132.81-1.45-3.4-5.23-5.68-8.92-5.03-18.99 1.73-37.99 3.25-56.98 4.93-4.28 0.41-9.46-0.01-12.47 3.69-3.06 3.24-3.3 8.22-1.28 12.07 38.48 86.63 72.22 175.27 104.45 264.39 1.23 4.42 5.33 8.59 10.23 7.97 11.34-0.61 22.69-1.21 34.04-1.9 4.51 0.19 8.16-3.7 9.44-7.74 27.17-88.28 59.81-174.73 91.62-261.4 14.09 5.12 28.28 9.96 42.38 15.06-0.06 40.56-5.04 80.94-11.47 120.93-5.72 34.06-12.81 67.96-22.77 101.06-3.43 10.88-7.1 21.75-12.19 31.98-1.77 3.12-3.31 6.55-6 8.98-4.61 2.86-9.98 4.11-15.13 5.56-20.92 5.26-42.41 7.65-63.79 10.05-44.57 4.46-89.35 6.52-134.12 7.36-51.71 0.7-103.53 0.26-155.06-4.45-22.06-2.47-44.51-4.46-65.54-11.99-7.82-2.45-12.62-9.53-16.7-16.15-9.49-15.67-16.08-32.89-21.99-50.17-7.7-23.32-13.73-47.19-18.15-71.35-4.53-24.39-7.51-49.11-7.78-73.93-0.3-20.78 0.9-41.95 7.41-61.84 3.07-8.94 7.35-17.96 14.74-24.15 7.76-5.97 17.07-9.44 26.17-12.8 19.85-6.93 40.46-11.43 61.06-15.48 46.52-8.66 93.63-13.76 140.76-17.61m-206.99 61.92c-4.77-0.05-9.16 4.22-8.99 9.03l0.02 37.96c-0.06 4.2 3.93 7.89 8.13 7.62l58.86-2.61-0.81 200.02c-0.15 5.17 2.12 11.72 7.74 12.94l64.06 3.3c5.48-0.15 8.15-6.46 8.07-11.24l-0.2-208.24 58.21-2.71c5.08-0.09 8.7-5.21 8.68-10.02 0.2-13.34-0.01-26.69 0.1-40.04-0.06-2.65 0.11-5.4-0.93-7.89-1.23-3.07-4.5-5.25-7.8-5z" fill="#297bbb"/>
 </g>
</svg>
