<svg width="749.86" height="800" version="1.1" viewBox="0 0 749.86 800" xml:space="preserve" xmlns="http://www.w3.org/2000/svg" xmlns:xlink="http://www.w3.org/1999/xlink"><defs>
	<rect id="SVGID_3_-6" x="35.75" y="27.42" width="28.23" height="28.92"/></defs><g fill="#fff">
<g transform="translate(1053.7 673.84)" stroke-width="4.7312"><path class="st0" d="m-1053.7 28.517c0-1.4194 1.1355-2.6968 2.6968-2.6968h38.37c16.938 0 30.753 13.389 30.753 30.185 0 12.963-8.6107 23.703-20.864 28.624l19.303 35.815c0.99354 1.8452 0 4.0688-2.4129 4.0688h-10.55c-1.5613 0-2.4129-0.70967-2.9806-1.8452l-18.499-36.808h-21.29v35.957c0 1.4194-1.2774 2.6968-2.6968 2.6968h-9.1784c-1.5613 0-2.6968-1.2774-2.6968-2.6968v-93.299zm39.931 45.277c9.1785 0 17.221-7.7591 17.221-17.505 0-9.1785-8.043-16.796-17.221-16.796h-25.122v34.254h25.122z"/><path class="st0" d="m-946.88 57.992c16.938 0 29.759 12.538 29.759 29.901 0 1.1355-0.14193 3.4064-0.28387 4.4946-0.14193 1.7032-1.5613 2.8387-2.9806 2.8387h-44.993c0.14194 8.7527 8.043 17.789 19.445 17.789 7.4752 0 11.97-2.6968 15.944-5.4882 1.4194-0.99354 2.6968-1.4194 3.8322 0.28387l3.8322 5.914c1.1355 1.4194 1.7032 2.6968-0.28387 4.3527-4.6365 4.0688-13.247 8.043-24.129 8.043-19.729 0-32.598-15.518-32.598-34.112 0-18.357 12.869-34.017 32.456-34.017m15.802 26.778c-0.28387-7.901-6.4817-14.809-16.086-14.809-10.314 0-16.512 6.6236-17.505 14.809z"/><path class="st0" d="m-888.21 83.351c6.7656 0 13.105 1.9871 13.105 1.9871 0.28387-10.314-2.271-14.95-10.456-14.95-7.4752 0-14.809 2.129-18.215 3.1226-1.9871 0.4258-3.2645-0.85161-3.6903-2.6968l-1.2774-5.3462c-0.4258-2.271 0.56774-3.2645 2.129-3.7849 1.1355-0.4258 10.456-3.6903 22.426-3.6903 20.864 0 22.852 12.538 22.852 28.765v34.679c0 1.7032-1.5613 3.1226-3.1226 3.1226h-4.6365c-1.2774 0-1.9871-0.56774-2.6968-2.271l-1.5613-4.3527c-3.5484 3.4064-10.03 8.1849-20.013 8.1849-12.254 0-21.006-8.1849-21.006-21.716 0.0946-12.017 9.3677-21.054 26.163-21.054m-2.129 31.178c6.4817 0 13.105-4.6366 15.092-7.901v-10.882c-0.85161-0.56774-5.914-2.271-11.828-2.271-7.6172 0-13.389 3.9269-13.389 10.74 0 5.8193 3.3591 10.314 10.125 10.314"/><path class="st0" d="m-848.71 28.943c0-1.5613 1.4194-3.1226 3.1226-3.1226h7.901c1.5613 0 3.1226 1.5613 3.1226 3.1226v92.542c0 1.7032-1.5613 3.1226-3.1226 3.1226h-7.901c-1.7032 0-3.1226-1.4194-3.1226-3.1226z"/><path class="st0" d="m-821.51 62.487c0-1.5613 1.4194-3.1226 3.1226-3.1226h3.2645c1.5613 0 2.4129 0.70967 2.8387 1.9871l1.8452 5.6301c1.4194-1.5613 8.3268-9.0365 20.723-9.0365 9.4623 0 15.092 3.6903 19.871 10.314 1.8452-1.8452 9.6043-10.314 22-10.314 19.871 0 24.839 13.815 24.839 30.753v32.74c0 1.7032-1.2774 3.1226-3.1226 3.1226h-7.901c-1.9871 0-3.1226-1.4194-3.1226-3.1226v-33.307c0-10.456-3.9269-16.796-12.821-16.796-9.8881 0-14.525 6.6236-15.66 7.6172 0.28387 1.4193 0.56774 5.3462 0.56774 8.7527v33.686c0 1.7032-1.4194 3.1226-2.9806 3.1226h-8.043c-1.8452 0-3.1226-1.4194-3.1226-3.1226v-33.307c0-10.598-3.7849-16.796-12.821-16.796-9.7463 0-14.667 7.1914-15.376 9.4623v40.641c0 1.7032-1.5613 3.1226-3.1226 3.1226h-7.901c-1.7032 0-3.1226-1.4194-3.1226-3.1226v-58.903z"/><path class="st0" d="m-689.93 83.351c6.7656 0 13.105 1.9871 13.105 1.9871 0.28387-10.314-2.271-14.95-10.456-14.95-7.4752 0-14.809 2.129-18.215 3.1226-1.9871 0.4258-3.2645-0.85161-3.643-2.6968l-1.2774-5.3462c-0.4258-2.271 0.56774-3.2645 2.129-3.7849 1.1355-0.4258 10.456-3.6903 22.426-3.6903 20.864 0 22.852 12.538 22.852 28.765v34.679c0 1.7032-1.5613 3.1226-3.1226 3.1226h-4.6365c-1.2774 0-1.9871-0.56774-2.6968-2.271l-1.5613-4.3527c-3.5484 3.4064-10.03 8.1849-20.013 8.1849-12.254 0-21.006-8.1849-21.006-21.716 0.0473-12.017 9.3677-21.054 26.116-21.054m-2.0817 31.178c6.4817 0 13.105-4.6366 15.092-7.901v-10.882c-0.85161-0.56774-5.914-2.271-11.828-2.271-7.6172 0-13.389 3.9269-13.389 10.74-0.0473 5.8193 3.3591 10.314 10.125 10.314"/><path class="st0" d="m-623.36 57.992c8.3268 0 14.95 2.9806 16.37 3.4064v-32.456c0-1.5613 1.5613-3.1226 3.1226-3.1226h8.043c1.7032 0 3.1226 1.5613 3.1226 3.1226v92.542c0 1.7032-1.4194 3.1226-3.1226 3.1226h-3.4064c-1.5613 0-2.5548-1.1355-2.9806-2.8387l-1.4194-4.7785s-8.4688 9.1785-21.432 9.1785c-17.221 0-29.759-15.518-29.759-34.112 0.0473-19.114 13.436-34.064 31.462-34.064m0.28387 54.692c10.03 0 15.518-7.7591 16.228-9.6043v-27.914s-6.4817-3.7849-14.95-3.7849c-10.74 0-18.877 9.4623-18.877 20.581 0 11.024 7.1914 20.722 17.6 20.722"/><path class="st0" d="m-580.03 62.487c0-1.5613 1.4194-3.1226 3.1226-3.1226h3.4064c1.2774 0 2.5548 0.99354 2.8387 2.271l1.8452 5.914c1.1355-1.7032 7.901-9.6043 19.729-9.6043 6.1978 0 13.957 1.7032 11.828 6.0559l-3.4064 7.0494c-0.85161 1.8452-2.5548 2.271-3.9269 1.5613-0.99354-0.56774-3.9269-1.2774-5.914-1.2774-9.6043 0-14.809 7.6172-15.376 8.7527v41.35c0 2.8387-1.8452 3.1226-4.4946 3.1226h-6.4817c-1.7032 0-3.1226-1.4194-3.1226-3.1226v-58.95z"/><path class="st0" d="m-534.94 35.992c0-5.3462 4.0688-9.6043 9.3204-9.6043 5.3462 0 9.6043 4.2107 9.6043 9.6043 0 5.2043-4.2107 9.4623-9.6043 9.4623-5.2043-0.04731-9.3204-4.258-9.3204-9.4623m2.271 26.495c0-1.5613 1.4194-3.1226 3.1226-3.1226h7.901c1.5613 0 3.1226 1.5613 3.1226 3.1226v58.95c0 1.7032-1.5613 3.1226-3.1226 3.1226h-7.901c-1.7032 0-3.1226-1.4194-3.1226-3.1226z"/><path class="st0" d="m-478.35 57.992c8.3268 0 14.95 2.9806 16.37 3.4064v-32.456c0-1.5613 1.5613-3.1226 3.1226-3.1226h8.043c1.7032 0 3.1226 1.5613 3.1226 3.1226v92.542c0 1.7032-1.4194 3.1226-3.1226 3.1226h-3.4064c-1.5613 0-2.5548-1.1355-2.9806-2.8387l-1.4194-4.7785s-8.4688 9.1785-21.432 9.1785c-17.221 0-29.759-15.518-29.759-34.112 0-19.114 13.389-34.064 31.462-34.064m0.28387 54.692c10.03 0 15.518-7.7591 16.228-9.6043v-27.914s-6.4817-3.7849-14.95-3.7849c-10.74 0-18.877 9.4623-18.877 20.581-0.0473 11.024 7.1441 20.722 17.6 20.722"/><path class="st0" d="m-421.63 107.62c5.0623 0 9.1312 4.0688 9.1312 9.1312 0 4.9677-4.0688 9.0365-9.1312 9.0365-4.8731 0-8.8946-4.0688-8.8946-9.0365-0.0473-5.0623 4.0215-9.1312 8.8946-9.1312"/><path class="st0" d="m-395.23 71.381h-7.4752c-1.8452 0-3.1226-1.5613-3.1226-3.1226v-5.772c0-1.8452 1.2774-3.1226 3.1226-3.1226h7.4752v-18.215c0-1.7032 1.4194-3.1226 3.1226-3.1226h8.043c1.7032 0 2.9806 1.4193 2.9806 3.1226v18.215h17.221c1.7032 0 3.1226 1.2774 3.1226 3.1226v5.772c0 1.5613-1.4194 3.1226-3.1226 3.1226h-17.221v34.679c0 5.4882 2.129 6.6236 5.2043 6.6236 4.0688 0 8.043-1.7032 10.456-3.1226 1.9871-1.1355 3.2645 0 3.7849 1.4194l2.5548 6.6236c0.70968 1.7032 0 2.8387-1.5613 3.8322-2.6968 1.7032-10.314 4.6365-18.073 4.6365-12.963 0-16.512-7.901-16.512-19.445z"/><path class="st0" d="m-367.12 63.054c-1.1355-1.9871 0-3.643 2.4129-3.643h8.6107c1.5613 0 2.271 0.70968 2.8387 1.8452l17.363 39.931h0.28387l18.215-39.931c0.85161-1.8452 2.5548-1.8452 4.3527-1.8452h6.3398c2.4129 0 3.5484 1.7032 2.4129 3.643l-28.198 61.363c-0.42581 0.85161-1.2774 1.7032-2.6968 1.7032h-0.85161c-1.4193 0-2.4129-0.85161-2.8387-1.7032z"/></g><g class="st1" transform="matrix(11.544 0 0 11.544 -207.67 -25.858)" opacity=".2"><clipPath><use width="100%" height="100%" xlink:href="#SVGID_3_-6"/></clipPath><path class="st2" d="m63.99 49.63-21.23-22.21c-3.35 1.73-5.33 4.68-7.01 8.07l19.73 20.78c0.06 0.07 0.17 0.09 0.25 0.05 3.31-1.48 5.94-3.25 8.26-6.69" clip-path="url(#SVGID_1_)" fill="#fff"/></g><g transform="matrix(11.544 0 0 11.544 -207.67 -25.858)"><path class="st0" d="m29.7 41.17c0 11.45 9.32 20.77 20.77 20.77s20.77-9.32 20.77-20.77c0-0.39-0.01-0.78-0.03-1.17-0.3-5.29-2.59-10.23-6.45-13.9-3.88-3.69-8.95-5.72-14.29-5.72-5.33 0-10.41 2.03-14.29 5.72-3.74 3.56-6.01 8.3-6.42 13.41zm38.5 0c0 9.78-7.95 17.73-17.73 17.73s-17.73-7.95-17.73-17.73c0-0.37 0.01-0.74 0.03-1.1 0.58-9.32 8.35-16.63 17.7-16.63 9.34 0 17.12 7.3 17.7 16.62 0.02 0.37 0.03 0.74 0.03 1.11"/><path class="st0" d="m38.62 51.78 0.22 0.25c0.08 0.1 0.23 0.1 0.32 0.01l1.97-2.01c0.08-0.08 0.08-0.22 0-0.3-3.55-3.88-5.66-12.15 1.47-18.44 0.08-0.07 0.19-0.06 0.26 0.01l7.5 7.89c0.08 0.08 0.2 0.08 0.28 0l3.45-3.65c0.05-0.05 0.15-0.16 0.15-0.16-1.64-1-2.54-1.03-3.25-1.12-0.03 0-0.12-0.01-0.12-0.01l-0.23 0.26c-0.07 0.08-0.2 0.08-0.28 0l-7.12-7.34c-0.07-0.07-0.17-0.09-0.25-0.05-5.75 2.69-13.32 13.8-4.37 24.66"/><path class="st0" d="m46.93 51.66-0.01-3.56c-5.61-3.03-5.18-9.81-1.48-12.83l-2.25-2.41c-0.24 0.21-0.48 0.42-0.7 0.65-4.74 4.86-4.7 14.63 4.44 18.15"/><path class="st0" d="m47.72 30.55 2.69 2.85c2.5-0.08 5.57 1.22 7.11 4.44l2.6-2.15c-1.94-3.45-6.52-6.55-12.4-5.14"/><path class="st0" d="m57.63 27.07-2.79 2.98s0.19 0.08 0.26 0.1c1.38 0.55 2.65 1.53 2.65 1.52 0.31-0.34 0.27-0.3 0.49-0.54 0.42 0.38 1.18 0.98 1.57 1.43 6.13 6.92 2.71 14.62-0.03 17.31-0.09 0.08-0.09 0.22 0 0.31 0.41 0.42 1.53 1.54 1.94 1.96 0.09 0.09 0.23 0.09 0.32 0 0.24-0.26 0.62-0.68 1.07-1.23 5-6.1 5.31-18.09-5.21-23.89-0.09-0.05-0.21-0.03-0.27 0.05"/><path class="st0" d="m59.27 47.93-2.31-2.44c-1.48 2.03-3.02 2.96-5.12 3.35v3.28c4.26-0.44 6.44-2.83 7.43-4.19"/><path class="st0" d="m50.97 47.02h3.12c0.12 0 0.22-0.1 0.22-0.22v-1.97c0-0.12-0.1-0.22-0.22-0.22h-3.12v-1.35h3.16c0.12 0 0.22-0.1 0.22-0.22v-2.25c0-0.12-0.1-0.22-0.22-0.22h-6.13c-0.12 0-0.22 0.1-0.22 0.22v13.74c0 0.12 0.1 0.22 0.22 0.22h2.74c0.12 0 0.22-0.1 0.22-0.22v-7.51z"/><path class="st3" d="m50.55 16.18c-4.56-0.03-8.93 1.82-9.89 2.25-0.11 0.05-0.16 0.18-0.11 0.29l0.9 2.1c0.05 0.11 0.18 0.17 0.3 0.11 0.88-0.42 4.49-2 8.81-1.92 4.32-0.08 7.93 1.5 8.81 1.92 0.11 0.05 0.25 0 0.3-0.11l0.9-2.1c0.05-0.11 0-0.24-0.11-0.29-0.98-0.44-5.36-2.29-9.91-2.25"/><path class="st0" d="m51.52 14.87h-2.09c-0.12 0-0.22-0.1-0.22-0.22v-9.09c0-0.12 0.1-0.22 0.22-0.22h2.1c0.12 0 0.21 0.1 0.21 0.21v9.1c0 0.12-0.1 0.22-0.22 0.22"/><path class="st0" d="m48.35 5.59v1.9c0 0.11-0.09 0.21-0.2 0.22-2.46 0.17-3.33 2.02-3.53 2.99-0.45 2.29 0.73 3.36 1.1 4.47 0.04 0.12-0.03 0.25-0.16 0.28l-1.89 0.46c-0.1 0.02-0.2-0.02-0.25-0.12-0.78-1.58-1.42-2.47-1.19-5.09 0.15-1.65 1.63-5.25 5.9-5.34 0.12 0.01 0.22 0.11 0.22 0.23"/><path class="st0" d="m41.37 10.24c-0.02 0.1-0.13 0.17-0.23 0.18-1.61 0.15-2.41 1.98-2.19 3.18 0.22 1.19 1 2.2 1.37 2.9 0.08 0.15 0.01 0.33-0.14 0.39-0.43 0.18-1.25 0.54-1.65 0.71-0.13 0.06-0.29 0.01-0.36-0.12-0.12-0.21-0.31-0.53-0.49-0.86-0.5-0.89-1.17-2.18-1.1-3.66 0.09-1.85 1.98-5.35 5.33-4.93 0.15 0.02 0.26 0.17 0.18 0.3-0.24 0.42-0.52 1.04-0.72 1.91"/><path class="st0" d="m52.6 5.59v1.9c0 0.11 0.09 0.21 0.2 0.22 2.46 0.17 3.34 2.02 3.53 2.99 0.45 2.29-0.73 3.36-1.1 4.47-0.04 0.12 0.03 0.25 0.16 0.28l1.89 0.46c0.1 0.02 0.2-0.02 0.25-0.12 0.78-1.58 1.42-2.47 1.19-5.09-0.15-1.65-1.64-5.25-5.9-5.34-0.12 0.01-0.22 0.11-0.22 0.23"/><path class="st0" d="m59.55 10.24c0.02 0.1 0.13 0.17 0.23 0.18 1.61 0.15 2.41 1.98 2.19 3.18-0.22 1.19-1 2.2-1.37 2.9-0.08 0.15-0.01 0.33 0.14 0.39 0.43 0.18 1.25 0.54 1.65 0.71 0.13 0.06 0.29 0.01 0.36-0.12 0.12-0.21 0.31-0.53 0.49-0.86 0.5-0.89 1.17-2.18 1.1-3.66-0.09-1.85-1.98-5.35-5.33-4.93-0.15 0.02-0.26 0.17-0.18 0.3 0.25 0.42 0.52 1.04 0.72 1.91"/><path class="st0" d="m51.58 3.07h-0.66v-0.67c0-0.09-0.07-0.16-0.16-0.16h-0.56c-0.09 0-0.16 0.07-0.16 0.16v0.66s0 0.01-0.01 0.01h-0.66c-0.09 0-0.16 0.07-0.16 0.16v0.55c0 0.09 0.07 0.16 0.16 0.16h0.67v0.67c0 0.09 0.07 0.16 0.16 0.16h0.56c0.09 0 0.16-0.07 0.16-0.16v-0.67h0.66c0.09 0 0.16-0.07 0.16-0.16v-0.55c0-0.09-0.07-0.16-0.16-0.16"/></g></g></svg>
