<svg width="800" height="334.27" version="1.1" viewBox="0 0 800 334.27" xml:space="preserve" xmlns="http://www.w3.org/2000/svg">
<link rel="stylesheet" type="text/css"/>
<link rel="stylesheet" type="text/css"/>






















<g transform="scale(3.6413)" fill="#f93822"><path d="m92.2 6.4c4.7 0 7.1 2.7 7.1 6 0.1 2.7-1.8 5.1-4.5 5.6l4.7 8h-4.5l-4.3-7.6h-1.9v7.6h-3.9v-19.6zm-0.2 3.3h-3.3v5.8h3.3c2.2 0 3.2-1.2 3.2-2.9s-1-2.9-3.2-2.9z"/><path d="m108 26.3c-4.5 0-7.8-3.2-7.8-8 0-4.9 3.2-8 7.8-8 4-0.2 7.5 2.9 7.7 6.9v0.8c0 0.5 0 1-0.1 1.5h-11.4c0 2 1.7 3.6 3.7 3.6 1.3 0.1 2.6-0.7 3.1-1.9h4.2c-0.9 3.1-3.9 5.2-7.2 5.1zm-3.8-9.5h7.4c-0.1-1.9-1.7-3.4-3.6-3.4h-0.1c-1.9 0-3.5 1.5-3.7 3.4z"/><path d="m124.3 10.2c2-0.1 3.9 0.8 5.1 2.5v-2.2h4v15.7c0 4.2-2.6 7.6-7.7 7.6-4.4 0-7.4-2.2-7.8-5.8h3.9c0.4 1.4 1.9 2.3 3.8 2.3 2.2 0 3.8-1.2 3.8-4.1v-2.4c-1.2 1.7-3.1 2.6-5.1 2.6-4 0-7.1-3.2-7.1-8.1s3.2-8.1 7.1-8.1zm1 3.5c-2.1 0-4.1 1.6-4.1 4.5s2 4.6 4.1 4.6c2.2 0 4.1-1.6 4.1-4.6s-1.9-4.5-4.1-4.5z"/><path d="m136.3 6.3c-0.1-1.3 1-2.5 2.3-2.5 1.3-0.1 2.5 1 2.5 2.3 0.1 1.3-1 2.5-2.3 2.5h-0.1c-1.3 0.1-2.3-0.9-2.4-2.3zm0.4 4.2h3.9v15.5h-3.9z"/><path d="m150.8 26.3c-4.4-0.1-8-3.8-7.9-8.2 0.1-4.3 3.6-7.8 8-7.9 4.2-0.2 7.8 3.1 8 7.4v0.7c0.1 4.3-3.2 7.9-7.5 8h-0.6zm0-3.5c2.1 0 4.1-1.5 4.1-4.6s-1.9-4.6-4-4.6-4 1.5-4 4.6 1.8 4.6 3.9 4.6z"/><path d="m172.2 17.4c0-2.5-1.4-3.8-3.5-3.8s-3.5 1.3-3.5 3.8v8.6h-3.9v-15.5h3.9v1.9c1.1-1.4 2.9-2.2 4.7-2.2 3.6 0 6.2 2.4 6.2 6.7v9.1h-3.9z"/><path d="m185.4 10.2c2-0.1 3.9 0.9 5.1 2.5v-2.2h4v15.5h-4v-2.3c-1.2 1.6-3.1 2.6-5.2 2.5-3.9 0-7.1-3.2-7.1-8.1s3.3-7.9 7.2-7.9zm1.1 3.5c-2.1 0-4.1 1.6-4.1 4.5s2 4.6 4.1 4.6c2.2 0 4.1-1.6 4.1-4.6s-2-4.5-4.1-4.5z"/><path d="m197.8 5.2h3.9v20.8h-3.9z"/><path d="m212 26.3c-4.5 0-7.8-3.2-7.8-8 0-4.9 3.2-8 7.8-8 4-0.2 7.5 2.9 7.7 6.9v0.8c0 0.5 0 1-0.1 1.5h-11.4c0 2 1.7 3.6 3.7 3.6 1.3 0.1 2.6-0.7 3.1-1.9h4.2c-0.9 3.1-3.9 5.2-7.2 5.1zm-3.8-9.5h7.4c-0.1-1.9-1.7-3.4-3.6-3.4h-0.1c-2 0-3.6 1.5-3.7 3.4z"/><path d="m92 49.7h-3.3v7.5h-3.9v-19.6h7.2c4.7 0 7.1 2.7 7.1 6.1 0 2.9-2.1 6-7.1 6zm-0.2-3.2c2.2 0 3.2-1.1 3.2-2.8 0-1.8-1-2.9-3.2-2.9h-3.1v5.7z"/><path d="m115.7 57.2h-4v-2c-1.1 1.4-2.8 2.2-4.6 2.2-3.6 0-6.2-2.4-6.2-6.6v-9.1h3.9v8.6c0 2.5 1.4 3.8 3.5 3.8s3.5-1.3 3.5-3.8v-8.6h4z"/><path d="m128 41.4c4 0 7.1 3.1 7.1 8s-3.1 8.1-7.1 8.1c-2 0.1-3.9-0.9-5.1-2.5v2.2h-3.9v-20.8h3.9v7.5c1.2-1.6 3.1-2.6 5.1-2.5zm-1 3.5c-2.1 0-4.1 1.6-4.1 4.6s2 4.6 4.1 4.6 4.1-1.7 4.1-4.6-2-4.7-4.1-4.6z"/><path d="m137.6 36.4h3.9v20.8h-3.9z"/><path d="m144.4 37.5c-0.1-1.3 1-2.5 2.3-2.5 1.3-0.1 2.5 1 2.5 2.3 0.1 1.3-1 2.5-2.3 2.5h-0.1c-1.3 0.1-2.3-0.9-2.4-2.2v-0.1zm0.4 4.1h3.9v15.6h-3.9z"/><path d="m158.8 57.4c-4.5 0-7.8-3.1-7.8-8s3.2-8 7.8-8c4-0.2 7.5 2.9 7.7 6.9v0.8c0 0.5 0 1-0.1 1.5h-11.4c0 2 1.7 3.6 3.7 3.6 1.3 0.1 2.6-0.7 3.1-1.9h4.2c-0.9 3.2-3.9 5.3-7.2 5.1zm-3.8-9.4h7.4c-0.1-1.9-1.7-3.4-3.6-3.3h-0.1c-1.9-0.1-3.6 1.3-3.7 3.3z"/><path d="m168.8 36.4h3.9v11.8l5.2-6.6h5.1l-6.8 7.8 6.9 7.7h-5.1l-5.3-6.6v6.6h-3.9z"/><path d="m190.5 57.4c-4.5 0-7.8-3.1-7.8-8s3.2-8 7.8-8c4-0.2 7.5 2.9 7.7 6.9v0.8c0 0.5 0 1-0.1 1.5h-11.4c0 2 1.7 3.6 3.7 3.6 1.3 0.1 2.6-0.7 3.1-1.9h4.2c-0.9 3.2-3.9 5.3-7.2 5.1zm-3.8-9.4h7.4c-0.1-1.9-1.7-3.4-3.6-3.3h-0.1c-1.9-0.1-3.6 1.3-3.7 3.3z"/><path d="m92.1 84.6c-5.5 0-10-4.5-10-10s4.5-10 10-10 10 4.5 10 10c0.1 5.4-4.2 9.9-9.6 10.1-0.2-0.1-0.3-0.1-0.4-0.1zm0-3.5c3.5 0 6-2.6 6-6.5s-2.4-6.5-6-6.5-6 2.5-6 6.5 2.4 6.5 6 6.5z"/><path d="m126.5 75.9c0-2.5-1.4-3.8-3.5-3.8s-3.5 1.3-3.5 3.8v8.6h-3.9v-8.6c0-2.5-1.4-3.8-3.5-3.8s-3.5 1.3-3.5 3.8v8.6h-3.9v-15.6h3.9v1.9c1.1-1.4 2.8-2.2 4.6-2.1 2.2-0.1 4.4 1 5.5 3 1.1-1.9 3.2-3 5.3-3 3.7 0 6.4 2.4 6.4 6.7v9.1h-3.9z"/><path d="m137.5 84.5h-3.9v-15.6h3.9v2.4c1-1.7 2.8-2.7 4.8-2.6v4.1h-1c-2.3 0-3.7 0.9-3.7 3.9z"/><path d="m151.2 84.7c-4.4-0.1-8-3.7-7.9-8.1s3.7-8 8.1-7.9c4.4 0 7.9 3.6 7.9 8 0.1 4.3-3.2 7.9-7.5 8h-0.6zm0-3.4c2.1 0 4.1-1.5 4.1-4.6s-1.9-4.6-4-4.6-4 1.5-4 4.6 1.7 4.6 3.9 4.6z"/><path d="m168.5 84.7c-4.5 0-7.8-3.2-7.8-8 0-4.9 3.2-8 7.8-8 4-0.2 7.5 2.9 7.7 6.9v0.8c0 0.5 0 1-0.1 1.5h-11.4c0 2 1.7 3.6 3.7 3.6 1.3 0.1 2.6-0.7 3.1-1.9h4.2c-0.9 3.1-3.9 5.3-7.2 5.1zm-3.8-9.5h7.4c-0.1-1.9-1.7-3.4-3.6-3.3h-0.1c-1.9-0.1-3.5 1.4-3.7 3.3z"/><path d="m187.6 68.6c4 0 7.1 3.1 7.1 8s-3.1 8.1-7.1 8.1c-2 0-3.9-0.9-5.1-2.5v9.6h-3.9v-23h3.9v2.2c1.2-1.5 3.1-2.4 5.1-2.4zm-1 3.5c-2.1 0-4.1 1.6-4.1 4.6s2 4.6 4.1 4.6 4.1-1.7 4.1-4.6-2-4.6-4.1-4.6z"/></g>
<path d="m241.42 45.152c12.381 0 22.576-10.196 22.576-22.576s-10.196-22.576-22.576-22.576-22.576 10.196-22.576 22.576 10.196 22.576 22.576 22.576" fill="#40c5be" stroke-width="3.6413"/>
<path d="m177.7 58.99c12.381 0 22.576-10.196 22.576-22.576s-10.196-22.576-22.576-22.576-22.576 10.196-22.576 22.576 9.8316 22.576 22.576 22.576" fill="#00b2a9" stroke-width="3.6413"/>
<path d="m238.14 111.06c12.381 0 22.576-10.196 22.576-22.576s-10.196-22.576-22.576-22.576-22.576 10.196-22.576 22.576 10.196 22.576 22.576 22.576" fill="#80d8d4" stroke-width="3.6413"/>
<path d="m237.05 194.81c12.381 0 22.576-10.196 22.576-22.576 0-12.381-10.196-22.576-22.576-22.576s-22.576 10.196-22.576 22.576c0 12.381 9.8316 22.576 22.576 22.576" fill="#00b2a9" stroke-width="3.6413"/>
<path d="m190.44 243.97c12.381 0 22.576-10.196 22.576-22.576s-10.196-22.576-22.576-22.576-22.576 10.196-22.576 22.576c0 12.745 9.8316 22.576 22.576 22.576" fill="#80d8d4" stroke-width="3.6413"/>
<path d="m139.46 196.27c12.381 0 22.576-10.196 22.576-22.576s-10.196-22.576-22.576-22.576c-12.381 0-22.576 10.196-22.576 22.576s10.196 22.576 22.576 22.576" fill="#00b2a9" stroke-width="3.6413"/>
<path d="m186.07 149.66c12.381 0 22.576-10.196 22.576-22.576 0-12.381-10.196-22.576-22.576-22.576s-22.576 10.196-22.576 22.576c0 12.381 10.196 22.576 22.576 22.576" fill="#40c5be" stroke-width="3.6413"/>
<path d="m103.41 87.392c12.381 0 22.576-10.196 22.576-22.576s-10.196-22.576-22.576-22.576c-12.381 0-22.576 10.196-22.576 22.576s10.196 22.576 22.576 22.576" fill="#40c5be" stroke-width="3.6413"/>
<path d="m89.941 152.21c12.381 0 22.576-10.196 22.576-22.576 0-12.381-10.196-22.576-22.576-22.576-12.381 0-22.576 10.196-22.576 22.576 0 12.381 10.196 22.576 22.576 22.576" fill="#80d8d4" stroke-width="3.6413"/>
<path d="m70.278 221.39c12.381 0 22.576-10.196 22.576-22.576s-10.196-22.576-22.576-22.576-22.576 10.196-22.576 22.576 10.196 22.576 22.576 22.576" fill="#40c5be" stroke-width="3.6413"/>
<path d="m22.576 273.83c12.381 0 22.576-10.196 22.576-22.576s-10.196-22.576-22.576-22.576-22.576 10.196-22.576 22.576 10.196 22.576 22.576 22.576" fill="#00a1a2" stroke-width="3.6413"/>
<path d="m195.9 330.27c12.381 0 22.576-10.196 22.576-22.576s-10.196-22.576-22.576-22.576c-12.381 0-22.576 10.196-22.576 22.576s9.8316 22.576 22.576 22.576" fill="#40c5be" stroke-width="3.6413"/>
<path d="m126.72 273.83c-12.381 0-22.576-10.196-22.576-22.576s10.196-22.576 22.576-22.576 22.576 10.196 22.576 22.576-9.8316 22.576-22.576 22.576" fill="#00b2a9" stroke-width="3.6413"/>
</svg>
