<svg width="396.16pt" height="238pt" version="1.1" viewBox="0 0 396.16 238" xmlns="http://www.w3.org/2000/svg">
 <defs>
  <clipPath id="a">
   <path d="m19.842 353.64h220.88v46.041h-220.88z"/>
  </clipPath>
 </defs>
 <g transform="matrix(3.779 0 0 -3.779 -1537.5 188.52)">
  <g transform="translate(457.68,29.593)">
   <path d="m0 0h-3e-3l3e-3 -3e-3z" fill="#19191e"/>
  </g>
  <g transform="translate(463.61,32.976)">
   <path d="m0 0-3e-3 -3e-3h3e-3z" fill="#19191e"/>
  </g>
  <g transform="translate(469.54,36.359)">
   <path d="m0 0-3e-3 -3e-3 3e-3 -2e-3z" fill="#19191e"/>
  </g>
  <g transform="translate(469.53,29.593)">
   <path d="m0 0h3e-3v6.761l-3e-3 2e-3 -5.925-3.38v-3e-3z" fill="#f39400"/>
  </g>
  <g transform="translate(457.68,49.886)">
   <path d="m0 0-3e-3 -3e-3 3e-3 -1e-3z" fill="#ffce00"/>
  </g>
  <g transform="translate(451.75,32.976)">
   <path d="m0 0-3e-3 -3e-3h3e-3z" fill="#19191e"/>
  </g>
  <g transform="translate(457.68,36.359)">
   <path d="m0 0-3e-3 -3e-3 3e-3 -2e-3z" fill="#19191e"/>
  </g>
  <g transform="translate(463.61,39.74)">
   <path d="m0 0h-3e-3l3e-3 -2e-3z" fill="#19191e"/>
  </g>
  <g transform="translate(469.54,43.123)">
   <path d="m0 0-3e-3 -3e-3 3e-3 -2e-3z" fill="#19191e"/>
  </g>
  <g transform="translate(451.75,46.501)">
   <path d="m0 0-3e-3 3e-3 -5.922-3.381v-5e-3l5.922-3.378h3e-3l5.925 3.381z" fill="#fabb00"/>
  </g>
  <g transform="translate(457.68,49.883)">
   <path d="m0 0-3e-3 1e-3 -5.924-3.378-3e-3 -2e-3 3e-3 -3e-3 5.924-3.38 3e-3 2e-3 5.925 3.381z" fill="#fecd00"/>
  </g>
  <g transform="translate(445.83,49.883)">
   <path d="m0 0v-6.76l5.923 3.381z" fill="#ffde10"/>
  </g>
  <g transform="translate(457.68,29.59)">
   <path d="m0 0-3e-3 3e-3 -5.924-3.381-3e-3 -3e-3 3e-3 -2e-3 5.924-3.381 3e-3 3e-3 5.925 3.38z" fill="#fecd00"/>
  </g>
  <g transform="translate(463.61,32.973)">
   <path d="m0 0h-3e-3l-5.925-3.38v-3e-3l5.925-3.381 3e-3 3e-3 5.925 3.381z" fill="#fabb00"/>
  </g>
  <g transform="translate(463.61,46.501)">
   <path d="m0 0-3e-3 3e-3 -5.925-3.381v-4e-3l5.925-3.379h3e-3l5.925 3.381z" fill="#f39400"/>
  </g>
  <g transform="translate(469.53,49.885)">
   <path d="m0 0-5.925-3.382v-2e-3l5.925-3.381 3e-3 3e-3v6.763z" fill="#fabb00"/>
  </g>
  <g transform="translate(451.75,32.973)">
   <path d="m0 0h-3e-3l-5.922-3.38v-3e-3l5.922-3.381 3e-3 3e-3 5.925 3.381z" fill="#f39400"/>
  </g>
  <g transform="translate(457.68,43.123)">
   <path d="m0 0-3e-3 -3e-3 3e-3 -1e-3z" fill="#19191e"/>
  </g>
  <g transform="translate(457.68,29.593)">
   <path d="m0 0h3e-3v6.761l-3e-3 2e-3 -5.925-3.38v-3e-3z" fill="#122475"/>
  </g>
  <g transform="translate(445.83,36.354)">
   <path d="m0 0v-6.761l5.923 3.38z" fill="#69a4d5"/>
  </g>
  <g transform="translate(457.68,43.119)">
   <path d="m0 0v-6.76l5.925 3.381z" fill="#14267b"/>
  </g>
  <g transform="translate(469.53,36.356)">
   <path d="m0 0 3e-3 3e-3v6.758l-3e-3 3e-3 -5.925-3.381v-3e-3z" fill="#6085be"/>
  </g>
  <g transform="translate(445.83,43.118)">
   <path d="m0 0v-6.758l5.923 3.38z" fill="#3370b2"/>
  </g>
  <g transform="translate(463.61,39.737)">
   <path d="m0 0-3e-3 3e-3 -5.925-3.381v-5e-3l5.925-3.38 3e-3 2e-3 5.925 3.381z" fill="#004a99"/>
  </g>
  <g transform="translate(457.68,36.354)">
   <path d="m0 0v-6.761l5.925 3.38z" fill="#0e1655"/>
  </g>
  <g transform="translate(451.75,39.737)">
   <path d="m0 0-3e-3 3e-3 -5.922-3.381v-5e-3l5.922-3.38 3e-3 2e-3 5.925 3.381z" fill="#2a3b8e"/>
  </g>
  <g transform="translate(457.68,43.12)">
   <path d="m0 0-5.925-3.38h-3e-3l3e-3 -3e-3 5.925-3.38 3e-3 2e-3v6.76z" fill="#37559e"/>
  </g>
 </g>
 <g transform="matrix(2.4318 0 0 -2.4318 -186.44 1080.4)" clip-path="url(#a)">
  <g transform="translate(228.84 388.25)">
   <path d="m 0,0 h -1.628 l -1.907,-6.319 c 2.101,-0.122 2.731,0.273 2.731,0.273 2.173,0.796 2.459,3.554 2.459,3.554 C 2.092,-0.02 0,0 0,0" fill="#211452"/>
  </g>
  <g transform="translate(234.76 385.39)">
   <path d="m0 0s-2e-3 -2.251-2.223-4.448c0 0-1.14-1.117-2.829-1.566 0 0-1.458-0.549-5.369-0.639l-2e-3 -7e-3h-4.497l3.823 12.663h5.492s3.049 0.124 4.563-1.79c0 0 1.459-1.74 1.042-4.213m-22.051-6.661 1.492 4.941h-3.71l-1.492-4.942h-4.746l3.823 12.663h4.746l-1.301-4.31 3.71 1e-3 1.301 4.31 4.747 1e-3 -3.823-12.664zm24.315 15.126h-28.017s-3.699 0-4.766-3.541l-3.166-10.506s-1.067-3.541 2.632-3.541h27.144s3.699 0 5.113 3.418l3.344 10.753s1.414 3.417-2.284 3.417" fill="#211452"/>
  </g>
 </g>
 <g transform="matrix(.72207 0 0 .72207 -271.93 224.67)">
  <g transform="matrix(1,0,0,-1,188.34,6.0194)">
   <path d="m386.07 108.76v-58.213h25.503v72.758z" fill="#211452"/>
   <g transform="matrix(6.36,0,0,6.36,454.24,106.35)">
    <path d="m0 0c-1.46 0-1.524-0.867-1.524-3.258 0-2.368 0.064-3.236 1.524-3.236s1.544 0.868 1.544 3.236c0 2.391-0.084 3.258-1.544 3.258m0-9.075c-4.928 0-5.564 2.539-5.564 5.817 0 3.3 0.636 5.839 5.564 5.839s5.583-2.539 5.583-5.839c0-3.278-0.655-5.817-5.583-5.817" fill="#211452"/>
   </g>
   <g transform="matrix(6.36,0,0,6.36,230.65,104.59)">
    <path d="m0 0s-0.262-0.019-0.446-0.019c-1.163 0-2.22-0.148-2.22-0.148v-8.355h-3.999v9.752c0 0.762 0.74 0.973 2.073 1.227 1.037 0.211 2.432 0.359 3.766 0.359h0.38c0.159 0 0.434-6e-3 0.434-6e-3s0.01-0.301 0.01-0.48v-1.841c0-0.15 2e-3 -0.489 2e-3 -0.489" fill="#211452"/>
   </g>
   <g transform="matrix(6.36,0,0,6.36,342.79,65.05)">
    <path d="m0 0c-1.458 0-1.522 0.868-1.522 3.236 0 2.391 0.064 3.258 1.522 3.258 1.459 0 1.544-0.867 1.544-3.258 0-2.368-0.085-3.236-1.544-3.236m5.585 3.236c0 3.301-0.655 5.839-5.585 5.839-4.928 0-5.563-2.538-5.563-5.839 0-3.278 0.635-5.816 5.563-5.816 0.599 0 1.134 0.038 1.613 0.109-7e-3 -0.729-0.302-1.23-1.014-1.48-0.445-0.169-1.08-0.254-1.905-0.254-1.269 0-2.474 0.402-2.813 0.485l-0.311 0.088-0.537-2.215s0.193-0.113 0.34-0.157c0.593-0.252 2.052-0.74 4.041-0.74 3.627 0 5.617 1.049 6.045 4.278 0 0 0.07 3.135 0.11 4.935 0.011 0.25 0.016 0.507 0.016 0.767" fill="#211452"/>
   </g>
   <g transform="matrix(6.36,0,0,6.36,300.54,72.707)">
    <path d="m0 0c-0.065-0.036-0.108-0.06-0.108-0.06s-2.583-1.248-3.852-1.248c-0.825 0-1.422 0.134-1.866 0.304-0.719 0.254-1.013 0.772-1.013 1.514 0 0 0 3.236 0.064 3.66 0.106 0.74 0.465 1.163 1.607 1.163 0.762 0 1.249-0.317 1.418-1.29 0.023-0.164 0.046-0.246 0.062-0.42l-0.988-0.56c-0.781-0.464-0.882-0.574-0.884-1.463 0-1e-3 -1e-3 -3e-3 -1e-3 -5e-3l-4e-3 -1.714 5.737 3.081c-0.021 0.94-0.113 1.388-0.319 2.066l2e-3 1e-3c-0.01 0.037-0.023 0.072-0.034 0.106-8e-3 0.021-0.013 0.042-0.02 0.062-0.194 0.565-0.467 1.041-0.844 1.426-0.825 0.847-2.179 1.248-4.208 1.248-4.063 0-5.522-1.522-5.522-5.923 0-4.379 2.009-5.732 6.133-5.732 1.766 0 3.819 0.919 4.649 1.331z" fill="#211452"/>
   </g>
   <g transform="matrix(6.36,0,0,6.36,392.41,147.82)">
    <path d="m0 0c-0.542-7e-3 -0.981-0.44-0.996-0.98v-3.727l3.976 2.268v2.442z" fill="#211452"/>
   </g>
  </g>
  <g transform="matrix(6.36,0,0,-6.36,778.24,-139.69)">
   <path d="m0 0c0 0.165-0.132 0.298-0.295 0.301h-0.01c-0.106 0-0.231 0-0.351-1e-3l-2.002-0.015c-0.247-2e-3 -0.493-0.201-0.547-0.442l-1.539-6.852-1.592 6.777c-0.07 0.301-0.381 0.546-0.69 0.545l-2.288-0.01h-7.028c-0.247 0-0.45-0.202-0.45-0.449v-1.199c0-0.247 0.203-0.45 0.45-0.45h2.019c0.247 0 0.449-0.202 0.449-0.449v-6.366c0-0.247 0.202-0.449 0.449-0.449h2.14c0.247 0 0.45 0.202 0.45 0.449v6.366c0 0.247 0.202 0.449 0.449 0.449h1.349l2.031-6.726c0.089-0.296 0.415-0.538 0.724-0.538h1.475c0.126 0 0.264 1e-3 0.384 1e-3l1.407 6e-3c0.247 1e-3 0.505 0.196 0.573 0.434l2.328 8.175c0.035 0.124 0.072 0.253 0.104 0.362l-1e-3 1e-3c7e-3 0.026 0.012 0.052 0.012 0.08" fill="#211452"/>
  </g>
 </g>
 <g transform="matrix(2.2189 0 0 2.2189 -10.795 -101.21)" fill="#211452">
  <path d="m98.8 142.33c-1.3405 0-2.0041 0.66355-2.0041 1.5382 0 2.0041 4.0249 2.0744 4.0249 5.3855 0 2.3425-1.7695 3.5758-4.3634 3.5758-1.86 0-3.0966-0.48258-3.3647-0.84117-0.16086-0.21448-0.21448-0.57307 0.28821-1.5014 0.91154 0.28486 1.7896 0.53621 2.8787 0.53621 1.2333 0 2.0577-0.60993 2.0577-1.679 0-2.2018-4.0081-2.2722-4.0081-5.4224 0-2.2722 2.0744-3.3982 4.3131-3.3982 1.7326 0 2.6978 0.44907 2.9491 0.71382 0.21448 0.23459 0.30496 0.64679-0.30497 1.488-0.5362-0.12735-1.3774-0.39545-2.4665-0.39545"/>
  <path d="m103.04 142.49c0.10724-1.3606 0.21448-1.5014 0.37534-1.6622 0.14411-0.1441 0.37534-0.19772 0.93165-0.19772h7.9392c-0.12399 1.3405-0.23123 1.5014-0.39209 1.6622-0.14411 0.1441-0.35859 0.19772-0.91155 0.19772l-2.2386-0.0168c-0.6602 3.3814-1.1796 6.0624-1.9471 10.265h-2.4866c0.85792-4.293 1.3606-6.8835 1.984-10.265z"/>
  <path d="m121.27 148.83c-0.51945 2.6475-2.1649 4.0048-4.8828 4.0048-3.1468 0-4.6314-1.3941-4.0584-4.5041l1.2701-6.9036c0.124-0.60993 0.42561-0.84117 1.8231-0.84117 0.49934 0 0.73393 0.124 0.62669 0.60658l-1.4142 7.1181c-0.3921 1.9504 0.23124 2.7212 1.8063 2.7212 1.4679 0 2.2722-0.93165 2.6106-2.7748l1.2701-6.8299c0.12735-0.60993 0.42896-0.84117 1.8264-0.84117 0.48258 0 0.73058 0.124 0.64345 0.60658z"/>
  <path d="m124.07 142.49c0.10724-1.3606 0.21448-1.5014 0.37534-1.6622 0.14411-0.1441 0.37534-0.19772 0.93165-0.19772h7.9392c-0.12399 1.3405-0.23123 1.5014-0.39209 1.6622-0.14411 0.1441-0.35859 0.19772-0.91155 0.19772l-2.2353-0.0168c-0.66355 3.3814-1.183 6.0624-1.9504 10.265h-2.4866c0.85792-4.293 1.3606-6.8835 1.984-10.265z"/>
  <path d="m133.4 142.49c0.10724-1.3606 0.21448-1.5014 0.37534-1.6622 0.14411-0.1441 0.37534-0.19772 0.93165-0.19772h7.9392c-0.12399 1.3405-0.23123 1.5014-0.39209 1.6622-0.14411 0.1441-0.35859 0.19772-0.91155 0.19772l-2.2353-0.0168c-0.66355 3.3814-1.183 6.0624-1.9504 10.265h-2.4866c0.85792-4.293 1.3606-6.8835 1.984-10.265z"/>
  <path d="m148.6 142.35c-2.9525 0-4.293 2.8955-4.293 5.7407 0 1.9504 0.84117 2.9324 2.5235 2.9324 0.64344 0 1.0188-0.0704 1.126-0.0871l0.57306-2.9357-1.5215 0.0201c0.1441-1.307 0.28486-1.5751 0.57306-1.7192 0.28486-0.16086 0.60658-0.14075 3.4686-0.0905l-1.126 6.1563c-0.58982 0.21113-1.9136 0.48258-3.3446 0.48258-3.3613 0-4.7756-2.0041-4.7756-4.7219 0-4.2226 2.1649-7.604 6.7428-7.604 1.5382 0 2.5771 0.39545 2.8084 0.68031 0.17762 0.25134 0.17762 0.44907-0.28821 1.5014-0.60658-0.19437-1.5918-0.35523-2.4665-0.35523"/>
  <path d="m158.48 143.03-0.0369-0.8043-0.32173 0.8043-2.3057 4.8996h3.167zm2.0208-1.7695 1.2701 10.409c0.0369 0.44571 0.0168 0.69706-0.17761 0.91154-0.21448 0.19772-0.53621 0.28821-2.2722 0.19772l-0.32172-3.0597h-3.9545l-1.4478 3.0597c-1.6287 0.10725-1.9136 0-2.0912-0.17761-0.16086-0.18097-0.19772-0.46583 0.0168-0.9149l5.2045-10.265c0.33848-0.66355 0.82441-0.84117 2.7547-0.84117 0.6602 0 0.94841 0.14411 1.0188 0.68031"/>
  <path d="m170.65 143.93c0-0.96516-0.55296-1.555-2.0208-1.555-0.37535 0-0.75069 0.0335-0.82442 0.0335l-0.76744 3.864h0.89479c1.7695 0 2.7179-0.83782 2.7179-2.3425m-4.9733-3.1837c0.57307-0.0704 2.0945-0.17762 3.1837-0.17762 2.8285 0 4.2394 1.0892 4.2394 3.2172 0 2.6307-1.7862 3.6328-3.0765 3.8841 1.5215 3.9512 1.7896 4.2025 2.0409 4.5242-0.59317 0.48259-1.2165 0.68031-1.6823 0.68031-0.48258 0-0.91155-0.21448-1.1093-0.86127l-1.3405-4.0215s-0.75068 0-1.2165-0.0201l-0.87803 4.7756h-2.4498s0.85792-4.3097 1.307-6.5785c0.42896-2.3258 0.84117-4.5644 0.98192-5.4224"/>
  <path d="m174.16 142.49c0.10724-1.3606 0.21448-1.5014 0.37534-1.6622 0.14411-0.1441 0.37534-0.19772 0.93165-0.19772h7.9392c-0.12399 1.3405-0.23123 1.5014-0.39209 1.6622-0.14411 0.1441-0.35859 0.19772-0.91155 0.19772l-2.2353-0.0168c-0.66355 3.3814-1.183 6.0624-1.9504 10.265h-2.4866c0.85792-4.293 1.3606-6.8835 1.984-10.265z"/>
 </g>
</svg>
