<svg width="1037.7pt" height="477.72pt" version="1.1" viewBox="0 0 1037.7 477.72" xmlns="http://www.w3.org/2000/svg">
 <g transform="translate(-31.225,-31.29)">
  <path d="m492.66 31.29c27.023 0.42493 56.149 1.0383 80.8 3.13 63.21 3.36 126.25 10.63 188.31 23.09 45.91 9.74 91.58 21.71 135.04 39.62 44.579 16.517 78.681 39.195 114.66 67.42 31.222 29.611 51.41 62.629 57.22 102.35 2.3583 40.846-14.84 73.814-40.78 101.99-65.23 56.893-139.23 82.794-217.25 101.93-125.05 30.671-247.35 37.746-372.68 38.19-114.76-3.2301-236.56-12.541-342.15-50.91-14.3-5.46-28.45-11.46-41.86-18.85 14.73 4.84 30.11 7.24 45.29 10.24 107.22 18.149 214.44 16.464 320.78 11.45 105.49-8.8669 205.57-22.849 300.81-62.28 43.146-19.966 86.206-46.74 110.21-79.67 11.029-16.204 20.319-33.51 23.89-51.4 4.72-21.52 4.18-44.67-4.17-65.26-5.49-14.73-14.44-27.85-24.55-39.78-28.727-29.602-67.225-51.506-97.96-66.71-52.62-23.47-108.3-39.3-164.54-51.36-23.54-5.16-47.4-8.78-71.07-13.19z" fill="#db241c"/>
 </g>
 <g transform="translate(-31.225,-31.29)" fill="#141618">
  <path d="m31.225 100.41h155.82c60.343 0 96.922 21.674 96.922 87.655 0 57.573-22.229 67.804-48.312 87.655 9.28 7.68 16.26 17.71 22.96 27.63 5.11 7.33 8.38 15.7 12.14 23.76l39.18 85.73h-109.36l-52.49-108.87c-3.83-6.7-11.56-10.41-19.08-10.93v119.8h-97.775zm97.775 77.35v42.05h31.925c15.562 0 25.44-3.7813 25.44-21.025 0-17.702-8.8092-21.025-25.44-21.025z"/>
  <path d="m315.16 100.41h215.9v80.75h-118.46v33.935h101.3v77.07h-101.3v120.68h-97.445z"/>
  <path transform="scale(.75)" d="m745.33 133.88v416.57h130.36v-159.03h95.02v159.03h130.36v-416.57h-130.36v137.33h-95.02v-137.33z" stroke-width="1.3333"/>
 </g>
</svg>
