<svg version="1.1" viewBox="0 0 1574.6 600" xmlns="http://www.w3.org/2000/svg">
 <g transform="translate(200,400)" fill="#f07c00">
  <path d="m-20-20h-180v-90a90 90 0 0 1 90-90h90z"/>
  <path d="m20-20h180v-180h-180z"/>
  <path d="m-20 20h-180v180h180z"/>
  <path transform="translate(-200 -400)" d="m220 420v180h90a90 90 0 0 0 90-90v-90zm17 17h146v73a73 73 0 0 1-73 73h-73z"/>
 </g>
 <g transform="matrix(3.2643 0 0 3.2643 391.75 -51.364)">
  <g transform="translate(204.31 285.37)">
   <g transform="matrix(.1744 0 0 .1744 23.277 -241.1)">
    <path d="m461 82.19c36.41-18.25 77.625-24.42 117.98-25.08 26.08-0.04 52.45 2.97 77.12 11.81 30.86 10.69 58.27 31.19 76.79 58.13 22.82 32.61 33.55 72.11 37.79 111.27 3.9 39.72 2.7 80.09-4.95 119.3-7.72 38.49-23.27 76.63-51.06 105.04-24.2 25.08-57.37 40.26-91.6 45.4-22.92 3.72-46.26 3.23-69.35 1.57-31.85-2.69-64.375-8.28-92.725-23.8m81.105-369.46v332.06c20.89 5.97 43.2 7.96 64.69 4.39 13.89-2.32 27.44-7.68 38.48-16.55 13.4-10.54 22.64-25.51 28.78-41.24 8.76-22.4 12.36-46.42 14.4-70.27 1.02-13.22 1.69-26.48 1.54-39.75 0.36-33.04-1.49-66.49-10.51-98.44-5.9-20.31-15.41-40.37-31.44-54.64-13.45-12.15-31.1-18.95-48.99-20.85-19.03-2.04-38.76-1.04-56.95 5.29z"/>
    <path d="m66.74 63.005h81.265v187.96h139.74v-187.96h81.255v441.99h-81.255v-199.96h-139.74v199.96h-81.265z"/>
   </g>
  </g>
  <g transform="matrix(.30634 0 0 .30634 27.034 138.27)">
   <path transform="translate(-520,-440)" d="m870 40c-35.873 0-156.64-0.51853-158 75v47c-41.164-0.36855-124.09 6.4401-192 40v238h110v-200c19.246-20.682 46.185-21.872 82-24v224h110v-224h82.152a125 125 0 0 0-22.152 71v28a125 125 0 0 0 125 125h40a125 125 0 0 0 125-125v-28a125 125 0 0 0-125-125h-225v-49c1.8367-24.566 41.453-26.03 82-21l31 3a5 5 0 0 0 5-5v-45a5 5 0 0 0-5-5h-31zm147 149h20a40 80 0 0 1 40 80v64a40 80 0 0 1-40 80h-20a40 80 0 0 1-40-80v-64a40 80 0 0 1 40-80z"/>
  </g>
 </g>
</svg>
