<svg width="800" height="422.25" version="1.1" viewBox="0 0 800 422.25" xml:space="preserve" xmlns="http://www.w3.org/2000/svg">
<g transform="matrix(2.3437 0 0 2.3437 -309.44 -456.13)" fill="#fff">
	<path d="m454.9 343.2c4.6-7 7.3-15.4 7.3-24.4v-68.2c0-24.6-20-44.6-44.6-44.6h-119.5l120.7-11.2c24.5-2.2 46.2 15.9 48.3 40.4l6.1 68c1.4 16.2-6 31.1-18.3 40z"/>
	<path d="m150.2 226.4c-4.5 7-7.2 15.3-7.2 24.2v68.2c0 24.6 20 44.6 44.6 44.6h119.8l-120.8 11.2c-24.5 2.2-46.2-15.9-48.3-40.4l-6.1-68c-1.4-16.1 5.9-30.9 18-39.8z"/>
	<path d="m168.1 280.5h0.1c2.1-4.7 4.6-5.2 9.4-5.2v5.1c-0.4-0.1-0.9-0.1-1.3-0.2s-0.8-0.1-1.3-0.1c-5.5 0-6.9 4.2-6.9 8.3v18h-5v-30.6h5z"/>
	<path d="m188 292.8c0 8.5 2.3 10.2 6.2 10.2 3.4 0 5.1-2.7 5.3-5.8h5.4c-0.1 6.8-4.2 9.9-10.6 9.9-6.5 0-11.6-1.9-11.6-15.4 0-9 1-16.3 11.6-16.3 8.7 0 10.9 4.8 10.9 14.9v2.6h-17.2zm11.9-3.7c0-8.9-2.5-10-6.1-10-3.1 0-5.7 1.5-5.8 10z"/>
	<path d="m229.5 275.9h5v33.6c0 6.8-4.5 8.5-11.3 8.5-5.1 0-9.7-2.5-9.3-8.2h5.6c0.1 2.8 1.9 4.4 4.7 4.4 3.4 0 5.3-2.1 5.3-5.3v-6.4h-0.2c-1.3 2.4-4.1 3.8-6.7 3.8-8.3 0-9.9-7.1-9.9-16.2 0-14 7.1-14.9 9.6-14.9 3.2 0 5.7 1.4 7.1 4.4h0.1zm-5.8 3.5c-5.6 0-5.8 6.8-5.8 10.8 0 9.8 2.2 12.1 5.9 12.1 6 0 5.8-7.1 5.8-11.3 0.1-4.5 0.4-11.6-5.9-11.6z"/>
	<path d="m243.2 262.8h5.6v5.3h-5.6zm5.3 43.7h-5v-30.6h5z"/>
	<path d="m256.2 291.7c0-9 1-16.3 11.6-16.3s11.6 7.4 11.6 16.3c0 13.5-5.1 15.4-11.6 15.4-6.4 0-11.6-1.9-11.6-15.4zm18-2.1c0-8.3-2.6-10.2-6.4-10.2s-6.4 1.8-6.4 10.2c0 9.9 1.3 13.5 6.4 13.5 5.2-0.1 6.4-3.6 6.4-13.5z"/>
	<path d="m310.8 262.8v7.3h-10.2v36.4h-9.1v-36.4h-10.2v-7.3z"/>
	<path d="m314.5 262.8h9.5l6.8 31.8h0.1l7.6-31.8h9l-11.5 43.7h-10.7z"/>
	<path d="m357.6 279.6h0.1c1.7-2.8 3.8-4.2 7-4.2 4.9 0 9.9 1.9 9.9 15.4 0 7.6-0.2 16.4-10.1 16.4-2.9 0-5-1.3-6.7-3.7h-0.2v14.5h-5v-42.1h5zm11.8 11.1c0-4.6 0-11.3-6.2-11.3-6.1 0-5.6 8.5-5.6 13.1 0 4.1 0.2 10.5 5.7 10.5 5.4 0 6.1-4.1 6.1-12.3z"/>
	<path d="m387.3 306.5h-5v-43.7h5z"/>
	<path d="m412.2 275.9h5v24.2c0 2.1 0.1 4.2 0.3 6.4h-5.3v-3.7h-0.2c-1.6 2.8-4.5 4.3-7.7 4.3-5.3 0-8.2-2.7-8.2-7.9v-23.3h5v21.2c0 3.7 1.7 6.2 5.2 6.2 2.7 0 6-2 6-7.1v-20.3z"/>
	<path d="m433.2 307.1c-6.6 0-10.7-2.9-10.5-9.9h5.6c0 1.8 0.1 5.9 5.1 5.9 3 0 5.3-1.5 5.3-4.7 0-5.4-15.2-5.6-15.2-14.7 0-3.2 1.9-8.3 10.5-8.3 5.4 0 10.1 2.6 9.7 8.7h-5.5c0.1-3.2-1.6-4.9-4.8-4.9-2.7 0-4.7 1.5-4.7 4.1 0 5.4 15.2 5.3 15.2 14.6-0.1 6.6-4.7 9.2-10.7 9.2z"/>
</g>
</svg>
