<svg version="1.1" viewBox="0 0 786.66 220.91" xml:space="preserve" xmlns="http://www.w3.org/2000/svg"><g transform="matrix(1.3333 0 0 -1.3333 -2.442e-5 223.23)"><g transform="matrix(5.7698 0 0 5.7698 -2572.3 -120.41)"><g transform="translate(457.68 29.593)"><path d="m0 0h-3e-3l3e-3 -3e-3z" fill="#19191e"/></g><g transform="translate(463.61 32.976)"><path d="m0 0-3e-3 -3e-3h3e-3z" fill="#19191e"/></g><g transform="translate(469.54 36.359)"><path d="m0 0-3e-3 -3e-3 3e-3 -2e-3z" fill="#19191e"/></g><g transform="translate(469.53 29.593)"><path d="m0 0h3e-3v6.761l-3e-3 2e-3 -5.925-3.38v-3e-3z" fill="#f39400"/></g><g transform="translate(457.68 49.886)"><path d="m0 0-3e-3 -3e-3 3e-3 -1e-3z" fill="#ffce00"/></g><g transform="translate(451.75 32.976)"><path d="m0 0-3e-3 -3e-3h3e-3z" fill="#19191e"/></g><g transform="translate(457.68 36.359)"><path d="m0 0-3e-3 -3e-3 3e-3 -2e-3z" fill="#19191e"/></g><g transform="translate(463.61 39.74)"><path d="m0 0h-3e-3l3e-3 -2e-3z" fill="#19191e"/></g><g transform="translate(469.54 43.123)"><path d="m0 0-3e-3 -3e-3 3e-3 -2e-3z" fill="#19191e"/></g><g transform="translate(451.75 46.501)"><path d="m0 0-3e-3 3e-3 -5.922-3.381v-5e-3l5.922-3.378h3e-3l5.925 3.381z" fill="#fabb00"/></g><g transform="translate(457.68 49.883)"><path d="m0 0-3e-3 1e-3 -5.924-3.378-3e-3 -2e-3 3e-3 -3e-3 5.924-3.38 3e-3 2e-3 5.925 3.381z" fill="#fecd00"/></g><g transform="translate(445.83 49.883)"><path d="m0 0v-6.76l5.923 3.381z" fill="#ffde10"/></g><g transform="translate(457.68 29.59)"><path d="m0 0-3e-3 3e-3 -5.924-3.381-3e-3 -3e-3 3e-3 -2e-3 5.924-3.381 3e-3 3e-3 5.925 3.38z" fill="#fecd00"/></g><g transform="translate(463.61 32.973)"><path d="m0 0h-3e-3l-5.925-3.38v-3e-3l5.925-3.381 3e-3 3e-3 5.925 3.381z" fill="#fabb00"/></g><g transform="translate(463.61 46.501)"><path d="m0 0-3e-3 3e-3 -5.925-3.381v-4e-3l5.925-3.379h3e-3l5.925 3.381z" fill="#f39400"/></g><g transform="translate(469.53 49.885)"><path d="m0 0-5.925-3.382v-2e-3l5.925-3.381 3e-3 3e-3v6.763z" fill="#fabb00"/></g><g transform="translate(451.75 32.973)"><path d="m0 0h-3e-3l-5.922-3.38v-3e-3l5.922-3.381 3e-3 3e-3 5.925 3.381z" fill="#f39400"/></g><g transform="translate(457.68 43.123)"><path d="m0 0-3e-3 -3e-3 3e-3 -1e-3z" fill="#19191e"/></g><g transform="translate(457.68 29.593)"><path d="m0 0h3e-3v6.761l-3e-3 2e-3 -5.925-3.38v-3e-3z" fill="#122475"/></g><g transform="translate(445.83 36.354)"><path d="m0 0v-6.761l5.923 3.38z" fill="#69a4d5"/></g><g transform="translate(457.68 43.119)"><path d="m0 0v-6.76l5.925 3.381z" fill="#14267b"/></g><g transform="translate(469.53 36.356)"><path d="m0 0 3e-3 3e-3v6.758l-3e-3 3e-3 -5.925-3.381v-3e-3z" fill="#6085be"/></g><g transform="translate(445.83 43.118)"><path d="m0 0v-6.758l5.923 3.38z" fill="#3370b2"/></g><g transform="translate(463.61 39.737)"><path d="m0 0-3e-3 3e-3 -5.925-3.381v-5e-3l5.925-3.38 3e-3 2e-3 5.925 3.381z" fill="#004a99"/></g><g transform="translate(457.68 36.354)"><path d="m0 0v-6.761l5.925 3.38z" fill="#0e1655"/></g><g transform="translate(451.75 39.737)"><path d="m0 0-3e-3 3e-3 -5.922-3.381v-5e-3l5.922-3.38 3e-3 2e-3 5.925 3.381z" fill="#2a3b8e"/></g><g transform="translate(457.68 43.12)"><path d="m0 0-5.925-3.38h-3e-3l3e-3 -3e-3 5.925-3.38 3e-3 2e-3v6.76z" fill="#37559e"/></g></g><g transform="matrix(6.3585 0 0 6.3585 -4055.7 -890.15)" fill="#fff"><path d="m698.54 157.1v-9.148h4.008v11.434z"/><g transform="translate(709.25 156.72)"><path d="m0 0c-1.459 0-1.523-0.867-1.523-3.256 0-2.368 0.064-3.235 1.523-3.235 1.46 0 1.543 0.867 1.543 3.235 0 2.389-0.083 3.256-1.543 3.256m0-9.07c-4.926 0-5.562 2.537-5.562 5.814 0 3.298 0.636 5.835 5.562 5.835s5.581-2.537 5.581-5.835c0-3.277-0.655-5.814-5.581-5.814" fill="#fff"/></g><g transform="translate(674.11 156.45)"><path d="m0 0s-0.262-0.019-0.446-0.019c-1.163 0-2.219-0.148-2.219-0.148v-8.351h-3.997v9.747c0 0.762 0.739 0.973 2.072 1.227 1.036 0.211 2.431 0.359 3.764 0.359h0.38c0.159 0 0.434-6e-3 0.434-6e-3s0.01-0.301 0.01-0.48v-1.84c0-0.15 2e-3 -0.489 2e-3 -0.489" fill="#fff"/></g><g transform="translate(691.74 150.23)"><path d="m0 0c-1.458 0-1.522 0.867-1.522 3.235 0 2.389 0.064 3.256 1.522 3.256s1.544-0.867 1.544-3.256c0-2.368-0.086-3.235-1.544-3.235m5.582 3.235c0 3.299-0.654 5.835-5.582 5.835-4.926 0-5.56-2.536-5.56-5.835 0-3.277 0.634-5.814 5.56-5.814 0.599 0 1.133 0.038 1.612 0.109-6e-3 -0.728-0.302-1.229-1.013-1.479-0.445-0.17-1.079-0.254-1.904-0.254-1.269 0-2.473 0.402-2.812 0.485l-0.311 0.087-0.536-2.213s0.192-0.114 0.339-0.157c0.593-0.252 2.051-0.74 4.039-0.74 3.625 0 5.615 1.048 6.043 4.276 0 0 0.07 3.134 0.11 4.932 0.011 0.251 0.015 0.508 0.015 0.768" fill="#fff"/></g><g transform="translate(685.1 151.44)"><path d="m0 0c-0.065-0.035-0.108-0.06-0.108-0.06s-2.581-1.247-3.85-1.247c-0.825 0-1.421 0.134-1.865 0.303-0.719 0.255-1.013 0.773-1.013 1.513 0 0 0 3.236 0.064 3.659 0.106 0.74 0.465 1.162 1.606 1.162 0.762 0 1.248-0.317 1.418-1.289 0.023-0.164 0.045-0.246 0.062-0.419l-0.988-0.56c-0.781-0.465-0.881-0.575-0.883-1.463 0-1e-3 -1e-3 -2e-3 -1e-3 -4e-3l-5e-3 -1.714 5.735 3.08c-0.021 0.939-0.113 1.387-0.319 2.065l2e-3 1e-3c-0.01 0.037-0.023 0.071-0.034 0.106-7e-3 0.021-0.013 0.041-0.02 0.062-0.193 0.565-0.467 1.04-0.844 1.425-0.824 0.846-2.177 1.247-4.206 1.247-4.061 0-5.519-1.521-5.519-5.92 0-4.377 2.008-5.73 6.13-5.73 1.766 0 3.818 0.919 4.647 1.332z" fill="#fff"/></g><g transform="translate(699.53 163.24)"><path d="m0 0c-0.542-7e-3 -0.98-0.439-0.995-0.979v-3.726l3.974 2.267v2.441z" fill="#fff"/></g><g transform="translate(730.57 162.91)"><path d="m0 0c0 0.164-0.132 0.297-0.295 0.301h-9e-3c-0.107 0-0.232-1e-3 -0.351-1e-3l-2.001-0.015c-0.247-2e-3 -0.494-0.201-0.548-0.442l-1.538-6.849-1.591 6.774c-0.07 0.301-0.381 0.546-0.689 0.544l-2.287-9e-3h-7.026c-0.247 0-0.449-0.202-0.449-0.449v-1.199c0-0.247 0.202-0.449 0.449-0.449h2.018c0.247 0 0.449-0.202 0.449-0.449v-6.363c0-0.247 0.202-0.449 0.449-0.449h2.14c0.246 0 0.448 0.202 0.448 0.449v6.363c0 0.247 0.203 0.449 0.45 0.449h1.348l2.03-6.723c0.089-0.296 0.415-0.538 0.724-0.538h1.474c0.126 1e-3 0.264 1e-3 0.384 1e-3l1.406 6e-3c0.248 1e-3 0.505 0.196 0.573 0.433l2.327 8.172c0.035 0.124 0.072 0.253 0.104 0.362l-1e-3 1e-3c7e-3 0.026 0.012 0.052 0.012 0.08" fill="#fff"/></g><g transform="translate(705.37 143.5)"><path d="m0 0c-0.412 0-0.616-0.203-0.616-0.473 0-0.615 1.237-0.637 1.237-1.654 0-0.72-0.544-1.099-1.341-1.099-0.572 0-0.951 0.148-1.033 0.258-0.05 0.066-0.066 0.176 0.088 0.462 0.28-0.088 0.549-0.165 0.885-0.165 0.379 0 0.632 0.187 0.632 0.517 0 0.676-1.231 0.698-1.231 1.665 0 0.698 0.637 1.044 1.324 1.044 0.533 0 0.83-0.137 0.907-0.22 0.066-0.071 0.093-0.198-0.094-0.456-0.164 0.039-0.423 0.121-0.758 0.121" fill="#fff"/></g><g transform="translate(708.11 140.83)"><path d="m0 0c0.242 0 0.473 0.066 0.571 0.099 0.072-0.319 0.033-0.39-0.054-0.478-0.094-0.088-0.341-0.187-0.731-0.187-0.891 0-1.385 0.533-1.385 1.44 0 1.291 0.681 2.346 1.951 2.346 0.357 0 0.692-0.098 0.764-0.186 0.054-0.072 0.06-0.132-0.099-0.457-0.066 0.017-0.303 0.083-0.561 0.083-0.824 0-1.291-0.836-1.291-1.748 0-0.566 0.302-0.912 0.835-0.912" fill="#fff"/></g><g transform="translate(710.28 141.92)"><path d="m0 0-0.308-1.621h-0.747s0.22 1.077 0.39 2c0.088 0.445 0.22 1.204 0.269 1.479 0.039 0.186 0.16 0.258 0.588 0.258 0.149 0 0.226-0.039 0.193-0.187l-0.281-1.363h1.369l0.236 1.292c0.033 0.186 0.154 0.258 0.583 0.258 0.148 0 0.22-0.039 0.198-0.187-0.077-0.374-0.259-1.237-0.336-1.654-0.165-0.847-0.362-1.896-0.362-1.896h-0.748l0.319 1.621z" fill="#fff"/></g><g transform="translate(715.41 143.17)"><path d="m0 0-1.033-2.869s-0.737-0.044-0.989 0l-0.11 3.407c-6e-3 0.248 0.077 0.325 0.56 0.325 0.204 0 0.248-0.044 0.237-0.237l-0.044-2.923 1.033 2.901c0.066 0.198 0.247 0.259 0.676 0.259 0.253 0 0.313-0.022 0.313-0.193l-0.044-2.967 1.083 2.868c0.082 0.248 0.175 0.292 0.659 0.292 0.159 0 0.165-0.099 0.094-0.27l-1.468-3.462s-0.659-0.044-0.995 0z" fill="#fff"/></g><g transform="translate(719.48 143.28)"><path d="m0 0-0.011 0.247-0.099-0.247-0.709-1.506h0.973zm0.621 0.544 0.39-3.198c0.011-0.138 6e-3 -0.215-0.055-0.281-0.066-0.06-0.165-0.088-0.698-0.06l-0.099 0.94h-1.214l-0.445-0.94c-0.5-0.033-0.588 0-0.643 0.055-0.05 0.055-0.061 0.143 5e-3 0.28l1.6 3.155c0.104 0.203 0.252 0.258 0.846 0.258 0.203 0 0.291-0.044 0.313-0.209" fill="#fff"/></g><g transform="translate(722.14 142.47)"><path d="m0 0c0.044 0 0.165-0.011 0.313-0.011 0.478 0 0.775 0.231 0.775 0.599 0 0.231-0.137 0.407-0.571 0.407-0.121 0-0.231-6e-3 -0.319-0.017zm0.874-0.973c0 0.347-0.231 0.484-0.654 0.484-0.127 0-0.313-0.011-0.313-0.011l-0.215-1.088c0.099-0.017 0.248-0.022 0.407-0.022 0.517 0 0.775 0.253 0.775 0.637m-0.379 2.55c0.879 0 1.28-0.357 1.28-0.912 0-0.462-0.319-0.808-0.742-0.896 0.319-0.077 0.577-0.373 0.577-0.775 0-0.78-0.555-1.187-1.522-1.187-0.55 0-1.132 0.083-1.237 0.11 0 0 0.204 1 0.38 1.924 0.088 0.445 0.236 1.313 0.302 1.681 0.22 0.028 0.643 0.055 0.962 0.055" fill="#fff"/></g><g transform="translate(725.01 140.86)"><path d="m0 0c1.044 0 1.226-5e-3 1.434 0.044 6e-3 -0.302-0.011-0.445-0.093-0.522-0.06-0.061-0.159-0.077-0.319-0.077h-1.879s0.297 1.517 0.401 2.039c0.159 0.835 0.22 1.231 0.302 1.682h2.165c-0.049-0.385-0.066-0.451-0.126-0.501-0.044-0.038-0.093-0.049-0.236-0.049l-1.143 5e-3 -0.198-1h1.258l-0.099-0.522h-1.253z" fill="#fff"/></g><g transform="translate(727.73 143.78)"><path d="m0 0c0.038 0.203 0.154 0.258 0.577 0.258 0.104 0 0.154-0.022 0.192-0.126l1.001-2.539c-6e-3 0.181-6e-3 0.363 0.038 0.604l0.335 1.803c0.033 0.187 0.154 0.258 0.544 0.258 0.149 0 0.231-0.038 0.204-0.187-0.05-0.23-0.253-1.236-0.352-1.753-0.148-0.786-0.291-1.522-0.341-1.797h-0.742l-0.983 2.495s0.016-0.296-0.05-0.654l-0.352-1.841h-0.731s0.215 1.094 0.391 2.017c0.082 0.445 0.225 1.242 0.269 1.462" fill="#fff"/></g></g></g></svg>
