<svg version="1.1" viewBox="0 0 179 130.5" xml:space="preserve" xmlns="http://www.w3.org/2000/svg">
<g transform="translate(-80.5,-34.8)" fill="#0089ce"><path class="st1" d="m193.2 78.3c-1.8 2.5-6.7 9.3-17.7 9.3-12.7 0-20.3-8-20.3-19.2 0-11.3 7.8-19.4 19.6-19.4 4.9 0 8.6 1.4 11.2 3 8.6 5.4 8.6 15 8.6 19.6h-24.4c0.3 2.1 0.8 4.4 3.4 6.2 1.9 1.4 3.9 1.8 6.1 1.8 4.9 0 7.8-2.9 9.6-4.7zm-13-14.1c-0.1-2.2-0.4-7.2-5.2-7.2-4.4 0-5 4.7-5.4 7.2z"/><path class="st1" d="m198.4 40.9c0-2.3 2.4-6.1 8.1-6.1s8.1 3.9 8.1 6.1c0 2.3-2.4 6.1-8.1 6.1-2 0-4.1-0.5-5.8-1.8-1.3-1-2.3-2.6-2.3-4.3zm0.6 9.8h15v35.8h-15z"/><path class="st1" d="m80.7 93.8v38.5h16v-41.6c-4.7 1-10.1 2.1-16 3.1z"/><path class="st1" d="m230.8 95.1c-0.9-0.6-2.9-1.9-6.7-2.6-6.1 1.1-12.5 2.2-19.4 3.1-2.6 1.6-4.4 3.6-6 5.3l4.7 4c2-2 4.9-4.9 9.8-4.9 1.1 0 3.2 0.1 5.2 1.7 2.7 2.2 2.8 5.4 2.8 7.6-2.1-0.7-5.1-1.7-9.3-1.7-8.4 0-15.1 4.7-15.1 13.2 0 6.8 4.5 12.6 12.6 12.6 7 0 9.8-3.6 11.8-6.2v5.1h16v-23.2c0-4.2-0.1-9.9-6.4-14zm-9.7 26.5c-1.3 1.4-2.7 2.7-5 2.7-2.6 0-4-2-4-4.1 0-1.9 1.3-4.7 5.5-4.7 1.3 0 2.2 0.2 3.5 0.5z"/><path class="st1" d="m243.5 89.3v43h16v-44c-5.6 0-10.9 0.4-16 1z"/><path class="st1" d="m95.4 83.9v-21.8c1.1-0.9 2.6-2 5.8-2 3 0 4.8 1.1 6.9 2.4v-12.7c-0.8-0.1-1.4-0.2-2.4-0.2-5 0-8.2 2.5-10.3 6.9v-5.8h-14.9v35.8h1.3c5-0.8 9.5-1.7 13.6-2.6z"/><path class="st1" d="m146.6 51.9c-1.8-1.5-4.5-2.6-7.8-2.6-6.8 0-10 4-12 6.4v-15.3h-15v40.5c4.5-0.3 9.4 0.2 15 1.3v-20.3c0.9-1.1 2-2.6 4.5-2.6 4 0 4.1 3.8 4.1 5.9v18.6c0.8 0.2 1.5 0.3 2.3 0.5 3.4 0.7 7 1.5 10.8 2.2h1.8v-23.8c-0.1-3.6-0.1-7.8-3.7-10.8z"/><path class="st1" d="m223.6 85.7c4-0.7 8-1.5 12.1-2.1v-21.7c0.9-1 2.2-2.5 4.4-2.5 2.9 0 4 2.3 4 5.3v17.7c4.8-0.5 9.8-0.9 15-0.9v-19.8c0-2.8 0-5.9-2.5-8.7-1-1.1-3.7-3.7-9-3.7-6.9 0-10 3.9-11.9 6.3v-4.9h-14.8v35.4c0.8-0.1 1.7-0.3 2.7-0.4z"/></g><g transform="translate(-80.5,-34.8)"><path class="st0" d="m147.5 113c0 10.4-7.3 20.8-22.9 20.8-14 0-22.3-9-22.3-20.6 0-11.9 8.7-20.9 22.6-20.9 16 0.1 22.6 11.1 22.6 20.7zm-28.3-0.3c0 8.2 1.7 12.6 5.8 12.6 3.5 0 4.5-3 4.9-4 0.8-2.2 1-5.4 1-8.1 0-1.3 0-6.6-1.6-9.6-0.5-0.9-1.5-2.7-4.2-2.7-5.7 0-5.9 9-5.9 11.8z" fill="#11335a"/><path class="st0" d="m183.6 109.2 10.3-12.5c-0.3 0-0.5 0-0.7 0.1-4.8 0.3-9.4 0.3-13.9 0.2l-10 12.8v-13.3c-5.7-0.5-11-1.2-16-2v37.8h16v-17c2.5 4.7 4.7 8.6 6.7 11.9 1.7 2.7 2.4 3.5 4 5.2h17.2c-1.7-2.1-2.1-2.7-3.5-5.1z" fill="#11335a"/><g fill="#283556">
		<path class="st2" d="m105.8 164.9-5.1-21.2h4.4l3.2 14.6 3.9-14.6h5.1l3.7 14.8 3.3-14.8h4.3l-5.1 21.2h-4.5l-4.2-15.8-4.2 15.8z"/>
		<path class="st2" d="m129.2 157c0-1.3 0.3-2.7 1-3.9 0.7-1.3 1.6-2.2 2.8-2.9s2.6-1 4.1-1c2.3 0 4.2 0.8 5.7 2.3s2.2 3.4 2.2 5.7-0.7 4.2-2.2 5.8c-1.5 1.5-3.4 2.3-5.7 2.3-1.4 0-2.7-0.3-4-1-1.3-0.6-2.2-1.6-2.9-2.8-0.6-1.3-1-2.8-1-4.5zm4.2 0.2c0 1.5 0.4 2.7 1.1 3.5s1.6 1.2 2.7 1.2 1.9-0.4 2.7-1.2c0.7-0.8 1.1-2 1.1-3.5s-0.4-2.7-1.1-3.5-1.6-1.2-2.7-1.2-2 0.4-2.7 1.2-1.1 2-1.1 3.5z"/>
		<path class="st2" d="m152.1 164.9h-4.1v-15.3h3.8v2.2c0.6-1 1.2-1.7 1.7-2s1.1-0.5 1.8-0.5c0.9 0 1.8 0.3 2.7 0.8l-1.3 3.5c-0.7-0.4-1.3-0.7-1.9-0.7s-1.1 0.2-1.4 0.5c-0.4 0.3-0.7 0.9-0.9 1.7s-0.3 2.5-0.3 5.1v4.7z"/>
		<path class="st2" d="m159.5 149.5h3.7v2.1c1.3-1.6 2.9-2.4 4.8-2.4 1 0 1.8 0.2 2.6 0.6 0.7 0.4 1.3 1 1.8 1.8 0.7-0.8 1.4-1.4 2.2-1.8s1.6-0.6 2.5-0.6c1.1 0 2.1 0.2 2.9 0.7s1.4 1.1 1.7 2c0.3 0.7 0.4 1.7 0.4 3.2v9.8h-4.1v-8.8c0-1.5-0.1-2.5-0.4-2.9-0.4-0.6-1-0.9-1.7-0.9-0.6 0-1.1 0.2-1.6 0.5s-0.9 0.9-1.1 1.5c-0.2 0.7-0.3 1.7-0.3 3.2v7.4h-4.1v-8.4c0-1.5-0.1-2.5-0.2-2.9s-0.4-0.8-0.7-1-0.7-0.3-1.2-0.3c-0.6 0-1.2 0.2-1.7 0.5s-0.9 0.8-1.1 1.5c-0.2 0.6-0.3 1.7-0.3 3.2v7.5h-4.1z"/>
		<path class="st2" d="m184.7 160.5 4.1-0.6c0.2 0.8 0.5 1.4 1.1 1.8s1.3 0.6 2.2 0.6c1 0 1.8-0.2 2.4-0.6 0.4-0.3 0.5-0.6 0.5-1.1 0-0.3-0.1-0.6-0.3-0.8s-0.7-0.4-1.4-0.5c-3.3-0.7-5.4-1.4-6.2-2-1.2-0.8-1.8-2-1.8-3.5 0-1.3 0.5-2.4 1.6-3.4 1.1-0.9 2.7-1.4 4.9-1.4 2.1 0 3.7 0.3 4.7 1s1.7 1.7 2.1 3l-3.8 0.7c-0.2-0.6-0.5-1.1-0.9-1.4-0.5-0.3-1.1-0.5-2-0.5-1.1 0-1.8 0.1-2.3 0.4-0.3 0.2-0.5 0.5-0.5 0.8s0.1 0.5 0.4 0.7c0.4 0.3 1.6 0.7 3.8 1.1 2.2 0.5 3.7 1.1 4.5 1.8s1.3 1.7 1.3 3c0 1.4-0.6 2.6-1.8 3.6s-2.9 1.5-5.2 1.5c-2.1 0-3.7-0.4-5-1.3-1.3-0.3-2.1-1.5-2.4-2.9z"/>
	</g></g>
</svg>
