<svg width="800" height="123.48" enable-background="new 0 0 948 454.1" version="1.1" viewBox="0 0 800 123.48" xml:space="preserve" xmlns="http://www.w3.org/2000/svg">
<path d="m341.54 25.671v30.604h68.508c5.2006 0 9.5011 4.3005 9.5011 9.5011s-4.3005 9.5011-9.5011 9.5011h-68.508v38.504c0 5.2006-4.3005 9.5011-9.5011 9.5011s-9.5011-4.3005-9.5011-9.5011v-90.01c0-9.4011 7.7009-17.102 17.102-17.102h73.008c5.2006 0 9.5011 4.3005 9.5011 9.5011s-4.3005 9.5011-9.5011 9.5011zm187.22-19.002h-48.506c-7.5009 0-13.502 6.1007-13.502 13.502v89.81c0 7.5009 6.1007 13.502 13.502 13.502h48.506c32.204 0 58.407-26.203 58.407-58.407s-26.203-58.407-58.407-58.407zm0 106.41h-48.506c-1.8002 0-3.2004-1.4002-3.2004-3.2004v-89.81c0-1.8002 1.4002-3.2004 3.2004-3.2004h48.506c26.503 0 48.106 21.603 48.106 48.106s-21.603 48.106-48.106 48.106zm94.411-96.111h82.01c2.9003 0 5.2006-2.3003 5.2006-5.2006s-2.3003-5.2006-5.2006-5.2006h-82.01c-7.4009 0-13.402 6.0007-13.402 13.402v90.01c0 7.4009 6.0007 13.402 13.402 13.402h82.01c2.9003 0 5.2006-2.3003 5.2006-5.2006s-2.3003-5.2006-5.2006-5.2006h-82.01c-1.7002 0-3.1004-1.4002-3.1004-3.1004v-39.105h85.11c2.9003 0 5.2006-2.3003 5.2006-5.2006s-2.3003-5.2006-5.2006-5.2006h-85.11v-40.505c0-1.5002 1.4002-2.9003 3.1004-2.9003zm-504.56 23.303c0-18.502-15.102-33.604-33.604-33.604h-67.908c-9.4011 0-17.102 7.7009-17.102 17.102v90.01c0 5.2006 4.3005 9.5011 9.5011 9.5011s9.5011-4.3005 9.5011-9.5011v-88.11h66.008c8.1009 0 14.602 6.6008 14.602 14.602 0 8.0009-6.6008 14.602-14.602 14.602h-28.303c-6.3007 0-11.901 4.0005-13.902 10.001-2.0002 6.0007 0.10001 12.501 5.1006 16.302l51.906 40.105c1.7002 1.3002 3.8004 2.0002 5.8007 2.0002 2.8003 0 5.7007-1.3002 7.5009-3.7004 3.2004-4.2005 2.4003-10.101-1.7002-13.302l-41.905-32.404h15.502c18.502 0 33.604-15.002 33.604-33.604zm161.72-33.604c-5.2006 0-9.5011 4.3005-9.5011 9.5011v81.71l-103.61-88.31c-4.0005-3.4004-9.5011-4.1005-14.202-1.9002-4.8006 2.2003-7.7009 6.8008-7.7009 12.101v94.011c0 5.2006 4.3005 9.5011 9.5011 9.5011s9.5011-4.3005 9.5011-9.5011v-81.71l103.61 88.31c2.5003 2.1002 5.5006 3.1004 8.501 3.1004 1.9002 0 3.8004-0.40005 5.7007-1.3002 4.8006-2.2003 7.7009-6.9008 7.7009-12.101v-94.011c0-5.1006-4.3005-9.4011-9.5011-9.4011zm517.06 26.403-49.306-32.104c-1.8002-1.2001-4.1005-1.3002-6.0007-0.20002-1.9002 1.0001-3.0004 3.0003-3.0004 5.1006v64.207c0 2.1002 1.2001 4.1005 3.0004 5.1006 0.90011 0.50006 1.8002 0.70008 2.8003 0.70008 1.1001 0 2.2002-0.30004 3.2004-0.9001l49.306-32.104c1.7002-1.1001 2.6003-2.9003 2.6003-4.9006 0.10001-2.0002-0.9001-3.8004-2.6003-4.9006zm-363.64 69.508c-5.7007 0-10.301 4.6005-10.301 10.301 0 5.7007 4.6005 10.301 10.301 10.301 5.7007 0 10.301-4.6005 10.301-10.301 0-5.7007-4.6005-10.301-10.301-10.301z" fill="#fff" stroke-width="1.0001"/>
</svg>
