<svg version="1.1" viewBox="0 0 179 136.3" xml:space="preserve" xmlns="http://www.w3.org/2000/svg">
<g fill="#0089ce"><path class="st1" d="m112.7 43.5c-1.8 2.5-6.7 9.3-17.7 9.3-12.7 0-20.3-8-20.3-19.2 0-11.3 7.8-19.4 19.6-19.4 4.9 0 8.6 1.4 11.2 3 8.6 5.4 8.6 15 8.6 19.6h-24.4c0.3 2.1 0.8 4.4 3.4 6.2 1.9 1.4 3.9 1.8 6.1 1.8 4.9 0 7.8-2.9 9.6-4.7zm-13-14.1c-0.1-2.2-0.4-7.2-5.2-7.2-4.4 0-5 4.7-5.4 7.2z"/><path class="st1" d="m117.9 6.1c0-2.3 2.4-6.1 8.1-6.1s8.1 3.9 8.1 6.1c0 2.3-2.4 6.1-8.1 6.1-2 0-4.1-0.5-5.8-1.8-1.3-1-2.3-2.7-2.3-4.3zm0.6 9.8h15v35.8h-15z"/><path class="st1" d="m0.2 58.9v38.5h16v-41.6c-4.7 1-10.1 2.1-16 3.1z"/><path class="st1" d="m150.3 60.3c-0.9-0.6-2.9-1.9-6.7-2.6-6.1 1.1-12.5 2.2-19.4 3.1-2.6 1.6-4.4 3.6-6 5.3l4.7 4c2-2 4.9-4.9 9.8-4.9 1.1 0 3.2 0.1 5.2 1.7 2.7 2.2 2.8 5.4 2.8 7.6-2.1-0.7-5.1-1.7-9.3-1.7-8.4 0-15.1 4.7-15.1 13.2 0 6.8 4.5 12.6 12.6 12.6 7 0 9.8-3.6 11.8-6.2v5.1h16v-23.2c0-4.3-0.1-10-6.4-14zm-9.7 26.4c-1.3 1.4-2.7 2.7-5 2.7-2.6 0-4-2-4-4.1 0-1.9 1.3-4.7 5.5-4.7 1.3 0 2.2 0.2 3.5 0.5z"/><path class="st1" d="m163 54.5v43h16v-44c-5.6 0-10.9 0.4-16 1z"/><path class="st1" d="m14.9 49v-21.8c1.1-0.9 2.6-2 5.8-2 3 0 4.8 1.1 6.9 2.4v-12.6c-0.8-0.1-1.4-0.2-2.4-0.2-5 0-8.2 2.5-10.3 6.9v-5.8h-14.9v35.8h1.3c5-0.8 9.5-1.8 13.6-2.7z"/><path class="st1" d="m66.1 17.1c-1.8-1.5-4.5-2.6-7.8-2.6-6.8 0-10 4-12 6.4v-15.3h-15v40.5c4.5-0.3 9.4 0.2 15 1.3v-20.3c0.9-1.1 2-2.6 4.5-2.6 4 0 4.1 3.8 4.1 5.9v18.6c0.8 0.2 1.5 0.3 2.3 0.5 3.4 0.7 7 1.5 10.8 2.2h1.8v-23.9c-0.1-3.6-0.1-7.7-3.7-10.7z"/><path class="st1" d="m143.1 50.8c4-0.7 8-1.5 12.1-2.1v-21.7c0.9-1 2.2-2.5 4.4-2.5 2.9 0 4 2.3 4 5.3v17.7c4.8-0.5 9.8-0.9 15-0.9v-19.7c0-2.8 0-5.9-2.5-8.7-1-1.1-3.7-3.7-9-3.7-6.9 0-10 3.9-11.9 6.3v-4.9h-14.8v35.4c0.8-0.1 1.7-0.3 2.7-0.5z"/></g><path class="st0" d="m67 78.2c0 10.4-7.3 20.8-22.9 20.8-14 0-22.3-9-22.3-20.6 0-11.9 8.7-20.9 22.6-20.9 16 0.1 22.6 11.1 22.6 20.7zm-28.3-0.3c0 8.2 1.7 12.6 5.8 12.6 3.5 0 4.5-3 4.9-4 0.8-2.2 1-5.4 1-8.1 0-1.3 0-6.6-1.6-9.6-0.5-0.9-1.5-2.7-4.2-2.7-5.7 0-5.9 9-5.9 11.8z" fill="#11335a"/><path class="st0" d="m103.1 74.4 10.3-12.5c-0.3 0-0.5 0-0.7 0.1-4.8 0.3-9.4 0.3-13.9 0.2l-10 12.8v-13.3c-5.7-0.5-11-1.2-16-2v37.8h16v-17c2.5 4.7 4.7 8.6 6.7 11.9 1.7 2.7 2.4 3.5 4 5.2h17.2c-1.7-2.1-2.1-2.7-3.5-5.1z" fill="#11335a"/><g transform="translate(-80.5,-31.9)" fill="#283556">
		<path class="st2" d="m101.7 155 4.2-0.4c0.3 1.4 0.8 2.4 1.5 3.1 0.8 0.7 1.8 1 3.1 1 1.4 0 2.4-0.3 3.1-0.9s1-1.3 1-2c0-0.5-0.1-0.9-0.4-1.3s-0.8-0.7-1.5-0.9c-0.5-0.2-1.6-0.5-3.4-0.9-2.3-0.6-3.9-1.3-4.8-2.1-1.3-1.2-2-2.6-2-4.3 0-1.1 0.3-2.1 0.9-3s1.5-1.7 2.6-2.1c1.2-0.5 2.5-0.7 4.2-0.7 2.7 0 4.7 0.6 6 1.7 1.3 1.2 2.1 2.7 2.1 4.7l-4.3 0.2c-0.2-1.1-0.6-1.9-1.2-2.3-0.6-0.5-1.5-0.7-2.7-0.7s-2.2 0.3-2.9 0.8c-0.5 0.3-0.7 0.8-0.7 1.3s0.2 0.9 0.6 1.3c0.5 0.5 1.9 0.9 3.9 1.4 2.1 0.5 3.6 1 4.6 1.5s1.8 1.2 2.3 2.2c0.6 0.9 0.8 2 0.8 3.4 0 1.2-0.3 2.4-1 3.4-0.7 1.1-1.6 1.8-2.9 2.4-1.2 0.5-2.8 0.8-4.6 0.8-2.7 0-4.7-0.6-6.2-1.9-1.2-1.5-2-3.3-2.3-5.7z"/>
		<path class="st2" d="m122.4 146.6h3.8v2.3c0.5-0.8 1.2-1.4 2-1.9s1.8-0.7 2.8-0.7c1.8 0 3.3 0.7 4.5 2.1s1.9 3.3 1.9 5.8c0 2.6-0.6 4.6-1.9 6s-2.8 2.1-4.6 2.1c-0.8 0-1.6-0.2-2.3-0.5s-1.4-0.9-2.2-1.7v7.7h-4.1zm4 7.4c0 1.7 0.3 3 1 3.8s1.5 1.2 2.5 1.2c0.9 0 1.7-0.4 2.4-1.1 0.6-0.8 0.9-2 0.9-3.7 0-1.6-0.3-2.8-1-3.6-0.6-0.8-1.4-1.2-2.4-1.2s-1.8 0.4-2.5 1.1c-0.6 0.9-0.9 2-0.9 3.5z"/>
		<path class="st2" d="m149.5 157 4 0.7c-0.5 1.5-1.3 2.6-2.5 3.4-1.1 0.8-2.5 1.2-4.2 1.2-2.7 0-4.6-0.9-5.9-2.6-1-1.4-1.5-3.2-1.5-5.3 0-2.5 0.7-4.5 2-6 1.3-1.4 3-2.2 5-2.2 2.3 0 4.1 0.8 5.4 2.3s2 3.8 1.9 6.9h-10.2c0 1.2 0.4 2.1 1 2.8s1.4 1 2.3 1c0.6 0 1.2-0.2 1.6-0.5 0.5-0.3 0.9-0.9 1.1-1.7zm0.2-4.1c0-1.2-0.3-2.1-0.9-2.7s-1.3-0.9-2.1-0.9c-0.9 0-1.6 0.3-2.2 1-0.6 0.6-0.9 1.5-0.9 2.6z"/>
		<path class="st2" d="m155.1 146.6h4.3l3.7 10.9 3.6-10.9h4.2l-5.4 14.8-1 2.7c-0.4 0.9-0.7 1.6-1 2.1s-0.7 0.9-1.1 1.1c-0.4 0.3-0.9 0.5-1.5 0.7s-1.3 0.2-2.1 0.2-1.5-0.1-2.3-0.2l-0.4-3.2c0.6 0.1 1.2 0.2 1.7 0.2 0.9 0 1.6-0.3 2.1-0.8 0.5-0.6 0.8-1.3 1-2.1z"/>
		<path class="st2" d="m182.4 157 4 0.7c-0.5 1.5-1.3 2.6-2.5 3.4-1.1 0.8-2.5 1.2-4.2 1.2-2.7 0-4.6-0.9-5.9-2.6-1-1.4-1.5-3.2-1.5-5.3 0-2.5 0.7-4.5 2-6 1.3-1.4 3-2.2 5-2.2 2.3 0 4.1 0.8 5.4 2.3s2 3.8 1.9 6.9h-10.2c0 1.2 0.4 2.1 1 2.8s1.4 1 2.3 1c0.6 0 1.2-0.2 1.6-0.5 0.6-0.3 0.9-0.9 1.1-1.7zm0.2-4.1c0-1.2-0.3-2.1-0.9-2.7s-1.3-0.9-2.1-0.9c-0.9 0-1.6 0.3-2.2 1-0.6 0.6-0.9 1.5-0.9 2.6z"/>
		<path class="st2" d="m193.9 161.9h-4.1v-15.3h3.8v2.2c0.6-1 1.2-1.7 1.7-2s1.1-0.5 1.8-0.5c0.9 0 1.8 0.3 2.7 0.8l-1.3 3.5c-0.7-0.4-1.3-0.7-1.9-0.7s-1.1 0.2-1.4 0.5c-0.4 0.3-0.7 0.9-0.9 1.7s-0.3 2.5-0.3 5.1v4.7z"/>
	</g>
</svg>
