<svg width="220.99pt" height="54.75pt" version="1.1" viewBox="0 0 220.99 54.75" xmlns="http://www.w3.org/2000/svg">
 <path d="m186.57 9.75c-0.015 14.983-0.015 29.965 0 44.948h34.416c7e-3 -14.983 0.015-29.965 0-44.948zm17.553 7.337h6.514v24.262h6.0399v5.1159h-19.558v-5.1159h6.1782v-15.486h-6.1782v-4.7812c2.4531 0 4.2103-0.31516 5.2728-0.94483 1.0757-0.64279 1.6529-1.6591 1.7316-3.0496z" fill="#155ecf" stroke-width=".74913"/>
 <g transform="matrix(.67674 0 0 .67674 0 -7.0219)">
  <path d="m0 11.484v15.516h21.64v-15.516zm1.73 1.5059h8.376c2.8353 0 4.8172 0.32479 5.9443 0.97412 1.1358 0.64374 1.7036 1.4645 1.7036 2.4609 0 1.6737-1.2786 2.91-3.8364 3.7104l6.4629 5.3569h-6.0996l-5.2793-4.5835h-2.3027v4.5835h-4.9687zm4.9687 2.3013v3.3662h1.5352c1.8295 0 3.0132-0.16485 3.5508-0.49512 0.53757-0.33586 0.80566-0.78349 0.80566-1.3433 0-0.40863-0.14759-0.72212-0.44238-0.94043-0.28613-0.22391-0.6807-0.37746-1.1836-0.46143-0.49422-0.08397-1.3135-0.12598-2.458-0.12598z" fill="#f3dd18"/>
  <path d="m45.336 11.484v15.515h-20.83v-15.515z" fill="#f3dd18"/>
  <path d="m48.211 11.484v15.516h21.64v-15.516zm1.4546 1.5059h5.2046v5.3057l7.2612-5.3057h6.2637l-8.8989 6.252 8.8989 6.2505h-6.2637l-7.2612-5.2866v5.2866h-5.2046z" fill="#f3dd18"/>
  <g transform="matrix(.63166 0 0 .51569 2.8898 52.056)" fill="#c30001" stroke-width="1px" aria-label="i">
   <path d="m50.699-76.425q1.2695 0 2.1484 0.89844 0.87891 0.87891 0.87891 2.1289t-0.89844 2.1289q-0.87891 0.87891-2.1289 0.87891t-2.1289-0.87891q-0.87891-0.87891-0.87891-2.1289t0.87891-2.1289q0.87891-0.89844 2.1289-0.89844zm2.7344 8.8477v14.473q0 1.9336 0.44922 2.4805 0.44922 0.52734 1.7578 0.60547v0.70312h-9.8633v-0.70312q1.2109-0.03906 1.7969-0.70312 0.39062-0.44922 0.39062-2.3828v-10.664q0-1.9336-0.44922-2.4609-0.44922-0.54688-1.7383-0.625v-0.72266z" fill="#c30001"/>
  </g>
 </g>
 <g transform="matrix(.90774 0 0 1.0094 333.29 277.82)" fill="#155ecf" stroke-width="1px" aria-label="tübingen">
  <path d="m-349.01-229.45q-2.2656 0.625-5.5078 0.625-4.1016 0-6.1133-1.6406-1.9922-1.6602-1.9922-5.7031v-10.254h-2.8906v-4.7656h2.8906v-6.2695h7.0312v6.2695h6.582v4.7656h-6.582v7.7734q0 2.4023 0.19531 3.1836t0.87891 1.3281q0.70312 0.52734 2.2461 0.52734 1.3281 0 2.6758-0.66406h0.58594z"/>
  <path d="m-322.97-229.25h-7.0312v-2.4219q-2.4609 1.8359-3.9648 2.4219-1.4844 0.60547-3.4766 0.60547-3.6328 0-5.6055-2.0898-1.9531-2.0898-1.9531-6.1719v-14.277h7.0703v10.879q0 4.1602 0.85937 5.0781 0.87891 0.89843 2.9688 0.89843 2.0312 0 4.1016-1.3086v-15.547h7.0312zm-2.832-25.059h-5.8008v-5.332h5.8008zm-10.488 0h-5.8008v-5.332h5.8008z"/>
  <path d="m-309.28-230.35-0.29297 1.0938h-6.7383v-30.391h7.0312v10.742q3.5938-2.8906 7.207-2.8906 4.1406 0 6.3867 2.9883 2.2656 2.9883 2.2656 8.2812 0 5.1758-2.8711 8.4375t-7.1289 3.2617q-3.3203 0-5.8594-1.5234zm0-14.961v11.016q1.25 0.46875 3.0859 0.46875 5.5273 0 5.5273-6.5625 0-2.9297-0.99609-4.5117t-3.5547-1.582q-2.0703 0-4.0625 1.1719z"/>
  <path d="m-281.12-254.31h-7.4219v-5.332h7.4219zm-0.19532 25.059h-7.0312v-21.934h7.0312z"/>
  <path d="m-252.64-229.25h-7.0703v-10.879q0-3.4961-0.6836-4.7266-0.68359-1.25-3.1641-1.25-1.8555 0-4.082 1.3086v15.547h-7.0312v-21.934h7.0312v2.4219q3.8476-3.0273 7.4414-3.0273 3.6719 0 5.6055 2.1484 1.9531 2.1484 1.9531 6.1133z"/>
  <path d="m-224.83-231.77q0 5.5078-2.9102 8.1445t-9.2969 2.6367q-4.2969 0-8.3398-0.9375v-5.4883h0.85938q3.6719 1.3476 6.4648 1.3476 3.3008 0 4.7461-1.1133t1.4453-4.2188v-0.41015q-2.7539 2.2461-6.25 2.2461-9.6094 0-9.6094-11.211 0-5.1562 2.8711-8.0859 2.8906-2.9297 7.0703-2.9297 3.3398 0 5.8789 1.582l0.2539-0.97656h6.8164zm-7.0312-4.3945v-9.9414q-1.4062-0.54687-3.0664-0.54687-5.5469 0-5.5469 6.0352 0 3.1836 1.1719 4.4336 1.1914 1.2305 3.5156 1.2305 2.0312 0 3.9258-1.2109z"/>
  <path d="m-196.58-238.92h-16.094q0.35156 5.3125 7.2852 5.3125 4.0625 0 7.6172-2.5195h0.78125v5.6445q-4.375 1.8164-9.1602 1.8164-6.5625 0-10.098-2.9492-3.5352-2.9492-3.5352-8.4766 0-5.4297 3.3203-8.5938 3.3398-3.1836 9.1406-3.1836 5.3516 0 8.0469 2.7148 2.6953 2.6953 2.6953 7.7734zm-6.9922-4.1211q-0.0977-4.4336-4.3164-4.4336-4.4726 0-4.8047 4.4336z"/>
  <path d="m-169.59-229.25h-7.0703v-10.879q0-3.4961-0.68359-4.7266-0.6836-1.25-3.1641-1.25-1.8555 0-4.082 1.3086v15.547h-7.0312v-21.934h7.0312v2.4219q3.8477-3.0273 7.4414-3.0273 3.6719 0 5.6055 2.1484 1.9531 2.1484 1.9531 6.1133z"/>
 </g>
</svg>
