<svg width="248.39pt" height="54pt" version="1.1" viewBox="0 0 248.39 54" xmlns="http://www.w3.org/2000/svg">
 <path d="m213.96 9c-0.015 14.983-0.015 29.965 0 44.948h34.416c8e-3 -14.983 0.015-29.965 0-44.948zm17.553 7.337h6.514v24.262h6.0399v5.1159h-19.558v-5.1159h6.1782v-15.486h-6.1782v-4.7812c2.4531 0 4.2103-0.31516 5.2728-0.94483 1.0757-0.64279 1.6529-1.6591 1.7316-3.0496z" fill="#c30001" stroke-width=".74913"/>
 <g transform="matrix(1.2103 0 0 1.3459 -53.686 123.99)" fill="#c30001">
  <path d="m57.52-69.626h-0.46875l-0.64454-0.11719q-0.79101-0.11719-1.6846-0.11719-2.0947 0-3.8525 0.64453v11.016h-5.2734v-16.45h5.2734v2.417q2.7832-2.4756 5.4053-2.4756 0.70312 0 1.2451 0.05857z"/>
  <path d="m76.681-65.451h-12.07q0.26368 3.9844 5.4639 3.9844 3.0469 0 5.7129-1.8896h0.58594v4.2334q-3.2812 1.3623-6.8701 1.3623-4.9219 0-7.5732-2.2119-2.6514-2.2119-2.6514-6.3574 0-4.0723 2.4902-6.4453 2.5049-2.3877 6.8555-2.3877 4.0137 0 6.0352 2.0361 2.0215 2.0215 2.0215 5.8301zm-5.2441-3.0908q-0.07328-3.3252-3.2373-3.3252-3.3545 0-3.6035 3.3252z"/>
  <path d="m96.793-58.2h-5.2734v-1.8164q-1.8457 1.377-2.9736 1.8164-1.1133 0.4541-2.6074 0.4541-2.7246 0-4.2041-1.5674-1.4648-1.5674-1.4648-4.6289v-10.708h5.3027v8.1592q0 3.1201 0.64454 3.8086 0.65918 0.67383 2.2266 0.67383 1.5234 0 3.0762-0.98145v-11.66h5.2734z"/>
  <path d="m112.31-58.347q-1.6992 0.46875-4.1309 0.46875-3.0762 0-4.585-1.2305-1.4941-1.2451-1.4941-4.2773v-7.6904h-2.168v-3.5742h2.168v-4.7021h5.2734v4.7021h4.9365v3.5742h-4.9365v5.8301q0 1.8018 0.14649 2.3877 0.14649 0.58594 0.65918 0.99609 0.52735 0.3955 1.6846 0.3955 0.99609 0 2.0068-0.49804h0.43945z"/>
  <path d="m121.12-58.2h-5.2734v-22.793h5.2734z"/>
  <path d="m131.52-76.994h-5.5664v-3.999h5.5664zm-0.14649 18.794h-5.2734v-16.45h5.2734z"/>
  <path d="m152.88-58.2h-5.3027v-8.1592q0-2.6221-0.51269-3.5449-0.51269-0.9375-2.373-0.9375-1.3916 0-3.0615 0.98145v11.66h-5.2734v-16.45h5.2734v1.8164q2.8857-2.2705 5.581-2.2705 2.7539 0 4.2041 1.6113 1.4648 1.6113 1.4648 4.585z"/>
  <path d="m173.74-60.09q0 4.1309-2.1826 6.1084t-6.9727 1.9775q-3.2227 0-6.2549-0.70312v-4.1162h0.64453q2.7539 1.0107 4.8486 1.0107 2.4756 0 3.5596-0.83496 1.084-0.83497 1.084-3.1641v-0.30762q-2.0654 1.6846-4.6875 1.6846-7.207 0-7.207-8.4082 0-3.8672 2.1533-6.0645 2.168-2.1973 5.3027-2.1973 2.5049 0 4.4092 1.1865l0.19043-0.73242h5.1123zm-5.2734-3.2959v-7.4561q-1.0547-0.41015-2.2998-0.41015-4.1602 0-4.1602 4.5264 0 2.3877 0.87891 3.3252 0.89356 0.92285 2.6367 0.92285 1.5234 0 2.9443-0.9082z"/>
  <path d="m194.92-65.451h-12.07q0.26368 3.9844 5.4639 3.9844 3.0469 0 5.7129-1.8896h0.58594v4.2334q-3.2812 1.3623-6.8701 1.3623-4.9219 0-7.5732-2.2119-2.6514-2.2119-2.6514-6.3574 0-4.0723 2.4902-6.4453 2.5049-2.3877 6.8555-2.3877 4.0137 0 6.0352 2.0361 2.0215 2.0215 2.0215 5.8301zm-5.2441-3.0908q-0.0733-3.3252-3.2373-3.3252-3.3545 0-3.6035 3.3252z"/>
  <path d="m215.17-58.2h-5.3027v-8.1592q0-2.6221-0.5127-3.5449-0.51269-0.9375-2.373-0.9375-1.3916 0-3.0615 0.98145v11.66h-5.2734v-16.45h5.2734v1.8164q2.8858-2.2705 5.5811-2.2705 2.7539 0 4.2041 1.6113 1.4648 1.6113 1.4648 4.585z"/>
 </g>
 <g transform="matrix(.67674 0 0 .67674 0 -7.7719)">
  <path d="m0 11.484v15.516h21.64v-15.516zm1.73 1.5059h8.376c2.8353 0 4.8172 0.32479 5.9443 0.97412 1.1358 0.64374 1.7036 1.4645 1.7036 2.4609 0 1.6737-1.2786 2.91-3.8364 3.7104l6.4629 5.3569h-6.0996l-5.2793-4.5835h-2.3027v4.5835h-4.9687zm4.9687 2.3013v3.3662h1.5352c1.8295 0 3.0132-0.16485 3.5508-0.49512 0.53757-0.33586 0.80566-0.78349 0.80566-1.3433 0-0.40863-0.14759-0.72212-0.44238-0.94043-0.28613-0.22391-0.6807-0.37746-1.1836-0.46143-0.49422-0.08397-1.3135-0.12598-2.458-0.12598z" fill="#f3dd18"/>
  <path d="m45.336 11.484v15.515h-20.83v-15.515z" fill="#f3dd18"/>
  <path d="m48.211 11.484v15.516h21.64v-15.516zm1.4546 1.5059h5.2046v5.3057l7.2612-5.3057h6.2637l-8.8989 6.252 8.8989 6.2505h-6.2637l-7.2612-5.2866v5.2866h-5.2046z" fill="#f3dd18"/>
  <g transform="matrix(.63166 0 0 .51569 2.8898 52.056)" fill="#c30001" stroke-width="1px" aria-label="i">
   <path d="m50.699-76.425q1.2695 0 2.1484 0.89844 0.87891 0.87891 0.87891 2.1289t-0.89844 2.1289q-0.87891 0.87891-2.1289 0.87891t-2.1289-0.87891q-0.87891-0.87891-0.87891-2.1289t0.87891-2.1289q0.87891-0.89844 2.1289-0.89844zm2.7344 8.8477v14.473q0 1.9336 0.44922 2.4805 0.44922 0.52734 1.7578 0.60547v0.70312h-9.8633v-0.70312q1.2109-0.03906 1.7969-0.70312 0.39062-0.44922 0.39062-2.3828v-10.664q0-1.9336-0.44922-2.4609-0.44922-0.54688-1.7383-0.625v-0.72266z" fill="#c30001"/>
  </g>
 </g>
</svg>
