<svg width="241.89pt" height="54pt" version="1.1" viewBox="0 0 241.89 54" xmlns="http://www.w3.org/2000/svg">
 <path d="m207.43 9c-0.015 15-0.015 30 0 45h34.455c7e-3 -15 0.015-30 0-45zm17.574 7.3455h6.5215v24.29h6.0469v5.1218h-19.581v-5.1218h6.1853v-15.504h-6.1853v-4.7867c2.4559 0 4.2151-0.31552 5.2789-0.94592 1.0769-0.64353 1.6548-1.661 1.7336-3.0531z" fill="#cdaf01" stroke-width=".75"/>
 <g transform="matrix(.75 0 0 .75 932.27 9)" fill="#cdaf01">
  <path d="m-1216.1 48.937h-24.968v-6.0793l14.01-16.554h-13.442v-6.9215h24.14v5.9741l-13.797 16.527h14.058z"/>
  <path d="m-1197.5 49.858q-6.9579 0-10.768-4.1845-3.7866-4.2108-3.7866-11.501 0-7.3689 3.8339-11.527 3.8576-4.1845 10.721-4.1845 6.9816 0 10.768 4.2371t3.7866 11.474q0 7.2636-3.8103 11.474-3.8103 4.2108-10.744 4.2108zm5.7272-15.633q0-9.1585-5.7272-9.1585-5.7273 0-5.7273 9.1585 0 9.0269 5.7983 9.0269 5.6562 0 5.6562-9.0269z"/>
  <path d="m-1168.3 48.937h-8.5199v-40.95h8.5199z"/>
  <path d="m-1151.7 48.937h-8.5199v-40.95h8.5199z"/>
  <path d="m-1117.5 35.91h-19.501q0.426 7.1583 8.8276 7.1583 4.9226 0 9.2298-3.395h0.9467v7.6057q-5.3013 2.4475-11.1 2.4475-7.9519 0-12.236-3.9739-4.2836-3.9739-4.2836-11.422 0-7.3162 4.0232-11.58 4.047-4.2897 11.076-4.2897 6.4846 0 9.7505 3.6581 3.266 3.6318 3.266 10.474zm-8.4726-5.553q-0.1183-5.9741-5.2302-5.9741-5.4196 0-5.8219 5.9741z"/>
  <path d="m-1092.2 28.409h-0.7573l-1.0413-0.21054q-1.278-0.21054-2.7216-0.21054-3.3843 0-6.2243 1.158v19.791h-8.5199v-29.555h8.5199v4.3424q4.4966-4.4476 8.7329-4.4476 1.136 0 2.0116 0.10524z"/>
  <path d="m-1060.6 48.937h-8.5673v-14.659q0-4.7108-0.8283-6.3688-0.8283-1.6843-3.8339-1.6843-2.2483 0-4.9463 1.7633v20.949h-8.5199v-29.555h8.5199v3.2634q4.6623-4.0792 9.0169-4.0792 4.4493 0 6.7922 2.8949 2.3667 2.8949 2.3667 8.2374z"/>
  <path d="m-1036.7 45.805q-2.556 2.237-4.4966 3.0791-1.9407 0.84216-4.6859 0.84216-3.7867 0-6.3426-2.6054-2.556-2.6054-2.556-6.6583 0-5.1319 3.5736-7.711 3.5736-2.6054 14.555-3.2371v-0.15789q0-2.237-1.6093-3.2634-1.6093-1.0527-5.4906-1.0527-2.7216 0-7.9282 2.1054h-0.781v-7.132q5.5616-1.4738 10.484-1.4738 7.2419 0 10.484 2.5002 3.2423 2.5002 3.2423 7.79v20.107h-8.4489zm0-4.5792v-6.1583q-5.9166 0.52634-7.6679 1.4738-1.7513 0.92111-1.7513 3.1581 0 2.0528 1.065 2.8423 1.065 0.78953 3.4553 0.78953 2.6269 0 4.8989-2.1054z"/>
  <path d="m-1011.9 48.937h-8.5199v-40.95h8.5199z"/>
  <path d="m-995.32 47.463-0.355 1.4738h-8.1649v-40.95h8.5199v14.475q4.3546-3.895 8.7329-3.895 5.0173 0 7.7389 4.0266 2.7453 4.0266 2.7453 11.159 0 6.9741-3.479 11.369-3.479 4.395-8.6382 4.395-4.0233 0-7.0999-2.0528zm0-20.159v14.843q1.5146 0.63162 3.7393 0.63162 6.6976 0 6.6976-8.8427 0-3.9476-1.207-6.0793t-4.3073-2.1317q-2.5086 0-4.9226 1.5791z"/>
 </g>
 <g transform="matrix(.67674 0 0 .67674 0 -7.7719)">
  <path d="m0 11.484v15.516h21.64v-15.516zm1.73 1.5059h8.376c2.8353 0 4.8172 0.32479 5.9443 0.97412 1.1358 0.64374 1.7036 1.4645 1.7036 2.4609 0 1.6737-1.2786 2.91-3.8364 3.7104l6.4629 5.3569h-6.0996l-5.2793-4.5835h-2.3027v4.5835h-4.9687zm4.9687 2.3013v3.3662h1.5352c1.8295 0 3.0132-0.16485 3.5508-0.49512 0.53757-0.33586 0.80566-0.78349 0.80566-1.3433 0-0.40863-0.14759-0.72212-0.44238-0.94043-0.28613-0.22391-0.6807-0.37746-1.1836-0.46143-0.49422-0.08397-1.3135-0.12598-2.458-0.12598z" fill="#f3dd18"/>
  <path d="m45.336 11.484v15.515h-20.83v-15.515z" fill="#f3dd18"/>
  <path d="m48.211 11.484v15.516h21.64v-15.516zm1.4546 1.5059h5.2046v5.3057l7.2612-5.3057h6.2637l-8.8989 6.252 8.8989 6.2505h-6.2637l-7.2612-5.2866v5.2866h-5.2046z" fill="#f3dd18"/>
  <g transform="matrix(.63166 0 0 .51569 2.8898 52.056)" fill="#c30001" stroke-width="1px" aria-label="i">
   <path d="m50.699-76.425q1.2695 0 2.1484 0.89844 0.87891 0.87891 0.87891 2.1289t-0.89844 2.1289q-0.87891 0.87891-2.1289 0.87891t-2.1289-0.87891q-0.87891-0.87891-0.87891-2.1289t0.87891-2.1289q0.87891-0.89844 2.1289-0.89844zm2.7344 8.8477v14.473q0 1.9336 0.44922 2.4805 0.44922 0.52734 1.7578 0.60547v0.70312h-9.8633v-0.70312q1.2109-0.03906 1.7969-0.70312 0.39062-0.44922 0.39062-2.3828v-10.664q0-1.9336-0.44922-2.4609-0.44922-0.54688-1.7383-0.625v-0.72266z" fill="#c30001"/>
  </g>
 </g>
</svg>
