<svg width="194.32pt" height="54pt" version="1.1" viewBox="0 0 194.32 54" xmlns="http://www.w3.org/2000/svg">
 <path d="m159.86 9c-0.015 15-0.015 30 0 45h34.455c7e-3 -15 0.015-30 0-45zm17.574 7.3455h6.5215v24.29h6.0469v5.1218h-19.581v-5.1218h6.1853v-15.504h-6.1853v-4.7867c2.4559 0 4.2151-0.31552 5.2789-0.94592 1.0769-0.64353 1.6548-1.661 1.7336-3.0531z" fill="#26c300" stroke-width=".75"/>
 <g transform="matrix(.75 0 0 .75 450.81 9)" fill="#26c300">
  <path d="m-570.96 35.91h-19.501q0.42599 7.1583 8.8275 7.1583 4.9226 0 9.2299-3.395h0.94665v7.6057q-5.3013 2.4475-11.1 2.4475-7.9519 0-12.236-3.9739-4.2836-3.9739-4.2836-11.422 0-7.3163 4.0233-11.58 4.0469-4.2898 11.076-4.2898 6.4846 0 9.7505 3.6581 3.266 3.6318 3.266 10.474zm-8.4726-5.553q-0.11838-5.9741-5.2303-5.9741-5.4196 0-5.8219 5.9741z"/>
  <path d="m-545.69 28.409h-0.75733l-1.0413-0.21054q-1.278-0.21054-2.7216-0.21054-3.3843 0-6.2242 1.158v19.791h-8.5199v-29.554h8.5199v4.3424q4.4966-4.4476 8.7329-4.4476 1.136 0 2.0116 0.10524z"/>
  <path d="m-514.82 27.988v20.949h-8.5672v-14.764q0-4.9214-0.78099-6.4215-0.75732-1.5264-3.55-1.5264-1.917 0-4.5676 1.7633v20.949h-8.5199v-29.554h8.5199v3.2634q4.6149-4.0792 8.6619-4.0792 5.4906 0 7.7862 5.1319 5.5379-5.1319 9.7032-5.1319 8.7802 0 8.7802 11.132v19.238h-8.5672v-14.764q0-4.895-0.73366-6.4215-0.70998-1.5264-3.5973-1.5264-1.846 0-4.5676 1.7633z"/>
  <path d="m-491.28 47.384v-7.79h0.78099q4.9936 3.8423 10.461 3.8423 4.9226 0 4.9226-2.4475 0-1.1316-1.0413-1.7369-1.0177-0.63162-4.9463-1.2632-10.058-1.658-10.058-9.5006 0-4.2634 3.6446-7.0794 3.6446-2.8423 9.9162-2.8423 5.2776 0 9.9872 2.1054v7.4742h-0.73366q-4.4256-3.2634-9.2299-3.2634-2.059 0-3.4789 0.63162-1.3963 0.63162-1.3963 1.7896 0 1.2369 0.994 1.8422 0.99398 0.6053 5.4669 1.4211 5.7036 1.0527 7.6442 3.3423 1.9406 2.2633 1.9406 5.6583 0 4.6056-3.6919 7.3952-3.6683 2.7896-10.106 2.7896-6.1532 0-11.076-2.3686z"/>
  <path d="m-443.73 48.674q-2.7453 0.84216-6.6739 0.84216-4.9699 0-7.4076-2.2107-2.414-2.237-2.414-7.6847v-13.817h-3.5026v-6.4215h3.5026v-8.4479h8.5199v8.4479h7.9756v6.4215h-7.9756v10.474q0 3.237 0.23666 4.2897 0.23667 1.0527 1.065 1.7896 0.85199 0.71057 2.7216 0.71057 1.6093 0 3.2423-0.89479h0.70999z"/>
  <path d="m-422.38 45.805q-2.556 2.237-4.4966 3.0791-1.9406 0.84216-4.6859 0.84216-3.7866 0-6.3426-2.6054t-2.556-6.6583q0-5.1319 3.5736-7.711 3.5736-2.6054 14.555-3.237v-0.15791q0-2.237-1.6093-3.2634-1.6093-1.0527-5.4906-1.0527-2.7216 0-7.9282 2.1054h-0.78099v-7.132q5.5616-1.4738 10.484-1.4738 7.2419 0 10.484 2.5002t3.2423 7.79v20.107h-8.4489zm0-4.5792v-6.1583q-5.9166 0.52636-7.6679 1.4738-1.7513 0.92112-1.7513 3.1581 0 2.0528 1.065 2.8423 1.065 0.78953 3.4553 0.78953 2.627 0 4.8989-2.1054z"/>
  <path d="m-397.58 48.937h-8.5199v-40.95h8.5199z"/>
 </g>
 <g transform="matrix(.67674 0 0 .67674 0 -7.7719)">
  <path d="m0 11.484v15.516h21.64v-15.516zm1.73 1.5059h8.376c2.8353 0 4.8172 0.32479 5.9443 0.97412 1.1358 0.64374 1.7036 1.4645 1.7036 2.4609 0 1.6737-1.2786 2.91-3.8364 3.7104l6.4629 5.3569h-6.0996l-5.2793-4.5835h-2.3027v4.5835h-4.9687zm4.9687 2.3013v3.3662h1.5352c1.8295 0 3.0132-0.16485 3.5508-0.49512 0.53757-0.33586 0.80566-0.78349 0.80566-1.3433 0-0.40863-0.14759-0.72212-0.44238-0.94043-0.28613-0.22391-0.6807-0.37746-1.1836-0.46143-0.49422-0.08397-1.3135-0.12598-2.458-0.12598z" fill="#f3dd18"/>
  <path d="m45.336 11.484v15.515h-20.83v-15.515z" fill="#f3dd18"/>
  <path d="m48.211 11.484v15.516h21.64v-15.516zm1.4546 1.5059h5.2046v5.3057l7.2612-5.3057h6.2637l-8.8989 6.252 8.8989 6.2505h-6.2637l-7.2612-5.2866v5.2866h-5.2046z" fill="#f3dd18"/>
  <g transform="matrix(.63166 0 0 .51569 2.8898 52.056)" fill="#c30001" stroke-width="1px" aria-label="i">
   <path d="m50.699-76.425q1.2695 0 2.1484 0.89844 0.87891 0.87891 0.87891 2.1289t-0.89844 2.1289q-0.87891 0.87891-2.1289 0.87891t-2.1289-0.87891q-0.87891-0.87891-0.87891-2.1289t0.87891-2.1289q0.87891-0.89844 2.1289-0.89844zm2.7344 8.8477v14.473q0 1.9336 0.44922 2.4805 0.44922 0.52734 1.7578 0.60547v0.70312h-9.8633v-0.70312q1.2109-0.03906 1.7969-0.70312 0.39062-0.44922 0.39062-2.3828v-10.664q0-1.9336-0.44922-2.4609-0.44922-0.54688-1.7383-0.625v-0.72266z" fill="#c30001"/>
  </g>
 </g>
</svg>
