<svg width="800" height="203.2" version="1.1" viewBox="0 0 800 203.2" xml:space="preserve" xmlns="http://www.w3.org/2000/svg"><defs><clipPath id="clipPath21030"><path d="m462.43 90.652h21.754v10.453h-21.754z"/></clipPath><clipPath id="clipPath24904"><path d="m668.83 229.38h28.493v9.053h-28.493z"/></clipPath><linearGradient id="a" x1="-292.23" x2="-323.31" y1="478.21" y2="478.21" gradientTransform="translate(429,-408)" gradientUnits="userSpaceOnUse"><stop stop-color="#233C82" offset="0"/><stop stop-color="#233C82" offset=".0796"/><stop stop-color="#233C82" stop-opacity="0" offset="1"/></linearGradient></defs><g transform="matrix(1.3333 0 0 -1.3333 -1028.1 2450.9)"><g clip-path="url(#clipPath21030)"><g transform="translate(463.25 89.585)"><path d="m0 0v-1.741h-0.139v1.741h-0.652v0.128h1.443v-0.128z" fill="#040606"/></g><g transform="translate(465.61 87.844)"><path d="m0 0v0.876h-1.197v-0.876h-0.138v1.87h0.138v-0.866h1.197v0.866h0.139v-1.87z" fill="#040606"/></g><g transform="translate(466.3 87.844)"><path d="m0 0v1.87h1.33v-0.129h-1.191v-0.734h1.071v-0.128h-1.071v-0.751h1.204v-0.128z" fill="#040606"/></g><g transform="translate(470.12 88.359)"><path d="m0 0c0 0.23-0.2 0.363-0.569 0.363h-0.633v-0.75h0.679c0.32 0 0.523 0.147 0.523 0.382zm-0.104 0.881c0 0.206-0.168 0.345-0.468 0.345h-0.63v-0.735h0.617c0.281 0 0.481 0.137 0.481 0.385zm-0.425-1.396h-0.812v1.869h0.772c0.363 0 0.606-0.179 0.606-0.459v-6e-3c0-0.253-0.165-0.382-0.317-0.443 0.224-0.059 0.422-0.187 0.422-0.446v-5e-3c0-0.313-0.268-0.51-0.671-0.51" fill="#040606"/></g><g transform="translate(470.66 87.844)"><path d="m0 0v1.87h1.33v-0.129h-1.191v-0.734h1.071v-0.128h-1.071v-0.751h1.204v-0.128z" fill="#040606"/></g><g transform="translate(473.03 87.817)"><path d="m0 0c-0.299 0-0.529 0.099-0.753 0.299l0.091 0.104c0.205-0.189 0.395-0.277 0.67-0.277 0.28 0 0.473 0.157 0.473 0.371v5e-3c0 0.198-0.104 0.313-0.529 0.398-0.449 0.091-0.63 0.243-0.63 0.526v6e-3c0 0.277 0.253 0.491 0.601 0.491 0.272 0 0.451-0.075 0.641-0.227l-0.089-0.109c-0.176 0.152-0.352 0.211-0.558 0.211-0.275 0-0.457-0.158-0.457-0.353v-5e-3c0-0.198 0.102-0.318 0.545-0.409 0.433-0.088 0.615-0.243 0.615-0.516v-5e-3c0-0.302-0.259-0.51-0.62-0.51" fill="#040606"/></g><g transform="translate(474.67 89.585)"><path d="m0 0v-1.741h-0.139v1.741h-0.652v0.128h1.443v-0.128z" fill="#040606"/></g><path d="m475.36 88.071h0.176v-0.227h-0.176z" fill="#040606"/><g transform="translate(476.76 89.585)"><path d="m0 0v-0.767h1.058v-0.128h-1.058v-0.846h-0.139v1.869h1.317v-0.128z" fill="#040606"/></g><path d="m478.39 89.713h0.139v-1.87h-0.139z" fill="#040606"/><g transform="translate(480.42 89.177)"><path d="m0 0c0 0.251-0.198 0.409-0.537 0.409h-0.638v-0.842h0.63c0.313 0 0.545 0.158 0.545 0.428zm0.032-1.333-0.596 0.775h-0.611v-0.775h-0.139v1.87h0.785c0.403 0 0.668-0.219 0.668-0.532v-5e-3c0-0.313-0.232-0.491-0.548-0.534l0.617-0.799h-0.176" fill="#040606"/></g><g transform="translate(481.67 87.817)"><path d="m0 0c-0.299 0-0.529 0.099-0.753 0.299l0.091 0.104c0.205-0.189 0.395-0.277 0.67-0.277 0.28 0 0.473 0.157 0.473 0.371v5e-3c0 0.198-0.104 0.313-0.529 0.398-0.449 0.091-0.63 0.243-0.63 0.526v6e-3c0 0.277 0.253 0.491 0.601 0.491 0.272 0 0.451-0.075 0.641-0.227l-0.089-0.109c-0.176 0.152-0.352 0.211-0.558 0.211-0.275 0-0.457-0.158-0.457-0.353v-5e-3c0-0.198 0.102-0.318 0.545-0.409 0.433-0.088 0.615-0.243 0.615-0.516v-5e-3c0-0.302-0.259-0.51-0.62-0.51" fill="#040606"/></g><g transform="translate(483.26 89.585)"><path d="m0 0v-1.741h-0.139v1.741h-0.651v0.128h1.442v-0.128z" fill="#040606"/></g><path d="m484 88.071h0.176v-0.227h-0.176z" fill="#040606"/></g><g clip-path="url(#clipPath24904)"><g transform="translate(669.56 228.13)"><path d="m0 0v-1.558h-0.124v1.558h-0.583v0.115h1.29v-0.115z" fill="#100f0d"/></g><g transform="translate(671.67 226.57)"><path d="m0 0v0.784h-1.07v-0.784h-0.125v1.673h0.125v-0.775h1.07v0.775h0.124v-1.673z" fill="#100f0d"/></g><g transform="translate(672.29 226.57)"><path d="m0 0v1.673h1.19v-0.115h-1.066v-0.657h0.959v-0.115h-0.959v-0.671h1.078v-0.115z" fill="#100f0d"/></g><g transform="translate(675.71 227.03)"><path d="m0 0c0 0.206-0.179 0.325-0.509 0.325h-0.566v-0.671h0.607c0.286 0 0.468 0.131 0.468 0.341zm-0.093 0.789c0 0.184-0.151 0.308-0.418 0.308h-0.564v-0.657h0.552c0.251 0 0.43 0.122 0.43 0.344zm-0.38-1.25h-0.727v1.673h0.691c0.325 0 0.542-0.161 0.542-0.411v-5e-3c0-0.227-0.148-0.342-0.284-0.397 0.201-0.053 0.378-0.167 0.378-0.399v-5e-3c0-0.279-0.239-0.456-0.6-0.456" fill="#100f0d"/></g><g transform="translate(676.19 226.57)"><path d="m0 0v1.673h1.19v-0.115h-1.066v-0.657h0.958v-0.115h-0.958v-0.671h1.078v-0.115z" fill="#100f0d"/></g><g transform="translate(678.31 226.55)"><path d="m0 0c-0.268 0-0.473 0.088-0.674 0.268l0.081 0.093c0.184-0.17 0.354-0.249 0.6-0.249 0.251 0 0.423 0.141 0.423 0.332v5e-3c0 0.177-0.093 0.28-0.473 0.356-0.401 0.082-0.564 0.218-0.564 0.471v5e-3c0 0.248 0.227 0.44 0.538 0.44 0.243 0 0.404-0.067 0.573-0.204l-0.079-0.098c-0.157 0.137-0.315 0.189-0.499 0.189-0.246 0-0.409-0.141-0.409-0.315v-5e-3c0-0.177 0.091-0.284 0.488-0.366 0.387-0.078 0.549-0.217 0.549-0.461v-5e-3c0-0.27-0.231-0.456-0.554-0.456" fill="#100f0d"/></g><g transform="translate(679.77 228.13)"><path d="m0 0v-1.558h-0.124v1.558h-0.583v0.115h1.29v-0.115z" fill="#100f0d"/></g><path d="m680.39 226.77h0.158v-0.203h-0.158z" fill="#100f0d"/><g transform="translate(681.65 228.13)"><path d="m0 0v-0.686h0.946v-0.115h-0.946v-0.757h-0.124v1.673h1.178v-0.115z" fill="#100f0d"/></g><path d="m683.11 228.24h0.124v-1.673h-0.124z" fill="#100f0d"/><g transform="translate(684.92 227.76)"><path d="m0 0c0 0.225-0.177 0.366-0.48 0.366h-0.571v-0.753h0.564c0.279 0 0.487 0.141 0.487 0.382zm0.029-1.192-0.533 0.693h-0.547v-0.693h-0.125v1.672h0.703c0.361 0 0.597-0.196 0.597-0.475v-5e-3c0-0.28-0.208-0.44-0.49-0.478l0.552-0.714h-0.157" fill="#100f0d"/></g><g transform="translate(686.04 226.55)"><path d="m0 0c-0.268 0-0.473 0.088-0.674 0.268l0.081 0.093c0.184-0.17 0.354-0.249 0.6-0.249 0.251 0 0.423 0.141 0.423 0.332v5e-3c0 0.177-0.093 0.28-0.473 0.356-0.401 0.082-0.564 0.218-0.564 0.471v5e-3c0 0.248 0.227 0.44 0.538 0.44 0.243 0 0.404-0.067 0.573-0.204l-0.079-0.098c-0.157 0.137-0.315 0.189-0.499 0.189-0.246 0-0.409-0.141-0.409-0.315v-5e-3c0-0.177 0.091-0.284 0.488-0.366 0.387-0.078 0.549-0.217 0.549-0.461v-5e-3c0-0.27-0.231-0.456-0.554-0.456" fill="#100f0d"/></g><g transform="translate(687.46 228.13)"><path d="m0 0v-1.558h-0.124v1.558h-0.583v0.115h1.29v-0.115z" fill="#100f0d"/></g><path d="m688.13 226.77h0.158v-0.203h-0.158z" fill="#100f0d"/></g><g transform="matrix(3.5442 0 0 -3.5442 396.47 1951.2)"><path d="m197.36 61.058h13.109l-1.88 3.961h-3.474l0.387-0.836h-0.964l-3.596 7.576h0.973l-1.482 3.127h-6.161l1.482-3.127h0.925l3.599-7.576h-0.926l-0.399 0.836h-3.475zm-4.385 5.762-1.454 0.909 0.601 0.888-1.494 3.143h0.939l-1.481 3.126h-5.201l2.44-5.145-0.264-0.456h-2.112l-1.175 2.475h0.923l-1.477 3.126h-6.114l1.478-3.127h0.929l3.596-7.576h-0.93l1.486-3.125h9.584l1.408 2.22zm-3.224-2.189-0.269-0.448h-2.11l-0.939 1.98h2.108l0.698-0.45zm-8.449-1.354-4.454 9.386-3.535 2.223h-6.8l-1.433-2.223 4.459-9.386 3.533-2.22h6.804zm-4.905 1.36-0.295-0.454h-2.228l-0.718 0.454-3.17 6.671 0.289 0.451h2.23l0.724-0.451zm-8.468-1.365-1.977 4.162-3.496 2.19h-4.399l-1.013 2.134h0.924l-1.481 3.127h-6.115l1.483-3.127h0.93l3.596-7.576h-0.929l1.483-3.125h9.584zm-4.905 1.358-0.271-0.447h-2.111l-1.103 2.322h2.112l0.682-0.427zm-7.041-5.233-1.234-2.906h-7.562l-4.242 3.015-2.754 5.428 1.254 2.884h5.056l0.233 0.574-0.901 1.772-0.827 0.59h-2.523l-0.25-0.581 0.882-1.728h-4.722l-1.553 3.086-0.243 0.485 1.244 2.869h7.562l4.233-2.979 2.712-5.342-1.238-2.915h-5.022l-0.27-0.543 0.943-1.856 0.858-0.615h2.523l0.231 0.585-0.935 1.814h4.705z" fill="#233c82"/><path d="m182.32 39.642s-5.026 0-5.616 7.061c-0.32 6.417 4.816 6.577 5.778 5.723 0.643-0.267 1.872-1.498 2.193-1.872 0.321-0.375 0.696-0.375 0.696-0.375h1.282s1.979 3.745 2.193 4.119c0.213 0.374 0.213 0.481 0 1.122-0.695 1.768-5.349 6.046-11.82 4.441-6.473-1.604-8.72-8.345-7.703-15.246 1.196-8.141 7.166-12.729 12.623-12.729 5.456 0 7.595 2.89 8.344 3.637 0.751 0.75 0.482 1.498 0.482 1.498l-3.265 5.402h-1.282c-2.083-3.156-3.905-2.781-3.905-2.781m-46.695 19.896h-7.863l-2.031-8.612s-0.162-0.641-0.911-0.641-0.907 0.804-0.907 0.804l-0.644 8.506h-8.131l3.12-27.032s12.339 0.018 12.929 0.018c0.588 0 6.044 0 6.044 7.436s-4.493 9.095-4.493 9.095zm-6.204-17.598c0.16-3.049-1.821-3.853-2.461-3.853h-1.872l-0.589 7.116h2.299c0 1e-3 2.462-0.212 2.623-3.263m23.536 3.745-3.96-12.944h-6.739l-2.996 26.799h2.043l0.349-0.689 0.163-0.32 0.291-0.207 4.24-3.012 0.484-0.345 0.562-5.002 1.615 5.076h5.948l2.651-5.664-0.693 10.163h7.168l2.514-26.745h-6.953z" fill="#e30613"/><polygon points="135.51 71.98 135.51 71.971 135.72 71.363 135.9 70.88 136.77 68.44 105.69 68.44 105.69 71.98" fill="url(#a)"/></g><g transform="matrix(2.4341 0 0 2.4341 -1105.8 -2417.7)"><g transform="matrix(9.3896 0 0 9.3896 912.18 1733.1)"><path d="m0 0h0.421l-0.167 0.811c-0.01 0.051-0.03 0.214-0.044 0.356-0.013-0.146-0.034-0.308-0.044-0.356zm-0.611-0.95 0.506 2.446h0.634l0.506-2.446h-0.465l-0.109 0.563h-0.495l-0.115-0.563z" fill="#28448d"/></g><g transform="matrix(9.3896 0 0 9.3896 923.61 1726.5)"><path d="m0 0v1.964l0.241 0.241h0.861l0.248-0.241v-0.566l-0.434-0.061v0.492h-0.482v-1.697h0.482v0.57l0.438 0.065v-0.77l-0.238-0.238h-0.875z" fill="#28448d"/></g><g transform="matrix(9.3896 0 0 9.3896 939.79 1726.5)"><path d="m0 0v1.964l0.241 0.241h0.861l0.248-0.241v-0.566l-0.434-0.061v0.492h-0.482v-1.697h0.482v0.57l0.438 0.065v-0.77l-0.238-0.238h-0.875z" fill="#28448d"/></g><g transform="matrix(9.3896 0 0 9.3896 955.97 1724.2)"><path d="m0 0v2.446h1.177v-0.4h-0.739v-0.58h0.685v-0.397h-0.689v-0.655h0.743v-0.414z" fill="#28448d"/></g><g transform="matrix(9.3896 0 0 9.3896 970.02 1726.5)"><path d="m0 0v0.587l0.438 0.071v-0.533h0.482v0.53l-0.917 0.556v0.75l0.238 0.241h0.882l0.238-0.234v-0.475l-0.435-0.075v0.421h-0.485v-0.394l0.916-0.553v-0.895l-0.241-0.241h-0.865z" fill="#28448d"/></g><g transform="matrix(9.3896 0 0 9.3896 986.27 1726.5)"><path d="m0 0v0.587l0.437 0.071v-0.533h0.482v0.53l-0.916 0.556v0.75l0.238 0.241h0.882l0.237-0.234v-0.475l-0.434-0.075v0.421h-0.485v-0.394l0.916-0.553v-0.895l-0.241-0.241h-0.865z" fill="#28448d"/></g><g transform="matrix(9.3896 0 0 9.3896 1010.6 1743.9)"><path d="m0 0v0.217l0.397 0.133h0.343v-2.447h-0.431v2.097z" fill="#28448d"/></g></g></g></svg>
