<svg enable-background="new 0 0 800 288.1" version="1.1" viewBox="0 0 800 288.1" xml:space="preserve" xmlns="http://www.w3.org/2000/svg">
<g transform="matrix(3.1385 0 0 3.1385 -59.631 -56.493)" fill="#fff">
	<path d="m19 95.2h1.9l0.2 1.9h0.1c0.8-0.5 1.6-0.9 2.4-1.3s1.6-0.7 2.3-0.8h0.7v2.2h-0.8c-0.8 0.1-1.5 0.3-2.3 0.6s-1.5 0.6-2.1 1v10.8h-2.4v-14.4z"/>
	<path d="m31.9 109.7c-1.2 0-2.1-0.3-2.7-1s-1-1.6-1-2.8c0-1.4 0.4-2.4 1.3-3.1 0.8-0.7 2.2-1.2 4-1.3l3.1-0.2v-1.2c0-0.6-0.1-1.1-0.2-1.5s-0.3-0.7-0.6-1-0.6-0.4-1-0.5-1-0.2-1.6-0.2c-0.5 0-1.2 0-1.8 0.1-0.7 0.1-1.4 0.2-2.1 0.3l-0.2-1.7c0.8-0.1 1.6-0.3 2.4-0.3 0.7-0.1 1.5-0.1 2.2-0.1 1.8 0 3.1 0.4 3.9 1.1s1.2 1.9 1.2 3.5v9.9h-1.8l-0.2-1.8h-0.2c-0.8 0.6-1.5 1-2.3 1.4-0.8 0.2-1.6 0.4-2.4 0.4zm0.8-1.8c0.3 0 0.6 0 1-0.1 0.3-0.1 0.7-0.2 1-0.4 0.3-0.1 0.7-0.3 1-0.5l0.9-0.6v-3.6l-2.5 0.2c-1.3 0.1-2.3 0.4-2.8 0.8s-0.8 1.1-0.8 2c0 1.5 0.7 2.2 2.2 2.2z"/>
	<path d="m47.7 109.8c-1.8 0-3.2-0.6-4.1-1.8s-1.4-3-1.4-5.5 0.6-4.4 1.8-5.7 2.8-1.9 4.9-1.9c0.5 0 1 0 1.5 0.1s1 0.1 1.4 0.2v-7.1h2.2v21.4h-2l-0.2-1.6h-0.1c-0.9 1.3-2.2 1.9-4 1.9zm0.5-1.8c0.5 0 0.9-0.1 1.4-0.2 0.4-0.1 0.8-0.4 1.2-0.6 0.3-0.3 0.6-0.6 0.8-1s0.3-0.8 0.3-1.3v-7.9c-1-0.2-2-0.3-3-0.3-1.5 0-2.6 0.4-3.3 1.3s-1.1 2.3-1.1 4.4c0 2 0.3 3.4 0.9 4.3s1.5 1.3 2.8 1.3z"/>
	<path d="m59.2 92.2c-0.9 0-1.4-0.5-1.4-1.4s0.5-1.4 1.4-1.4 1.4 0.4 1.4 1.4c0 0.9-0.4 1.4-1.4 1.4zm-1.1 3h2.2v14.3h-2.2v-14.3z"/>
	<path d="m69.9 109.8c-2 0-3.6-0.6-4.6-1.9-1.1-1.3-1.6-3.1-1.6-5.5s0.5-4.3 1.6-5.5c1.1-1.3 2.6-1.9 4.6-1.9s3.6 0.6 4.6 1.9c1.1 1.3 1.6 3.1 1.6 5.5s-0.5 4.3-1.6 5.5c-1 1.3-2.5 1.9-4.6 1.9zm0-1.8c1.4 0 2.4-0.4 3-1.3s1-2.3 1-4.3-0.3-3.4-1-4.3c-0.6-0.9-1.6-1.3-3-1.3s-2.4 0.4-3 1.3-1 2.3-1 4.3c0 1.9 0.3 3.4 1 4.2 0.7 0.9 1.7 1.4 3 1.4z"/>
	<path d="m86.1 95.2h1.9l0.2 1.9h0.1c0.8-0.5 1.6-0.9 2.4-1.3s1.6-0.7 2.3-0.8h0.7v2.2h-0.8c-0.8 0.1-1.5 0.3-2.3 0.6s-1.5 0.6-2.1 1v10.8h-2.2v-14.4h-0.2z"/>
	<path d="m101.6 109.8c-2 0-3.6-0.6-4.6-1.9-1.1-1.3-1.6-3.1-1.6-5.5s0.5-4.3 1.6-5.5c1.1-1.3 2.6-1.9 4.6-1.9s3.6 0.6 4.6 1.9c1.1 1.3 1.6 3.1 1.6 5.5s-0.5 4.3-1.6 5.5c-1 1.3-2.5 1.9-4.6 1.9zm0-1.8c1.4 0 2.4-0.4 3-1.3s1-2.3 1-4.3-0.3-3.4-1-4.3c-0.6-0.9-1.6-1.3-3-1.3s-2.4 0.4-3 1.3-1 2.3-1 4.3c0 1.9 0.3 3.4 1 4.2 0.6 0.9 1.6 1.4 3 1.4z"/>
	<path d="m116.4 109.7c-2.6 0-3.9-1.3-3.9-3.9v-8.6h-2.8v-2h2.9l0.3-3.6 1.8-0.3v3.8h4v2h-4v8.1c0 1.7 0.8 2.6 2.4 2.6 0.2 0 0.5 0 0.8-0.1s0.6-0.1 0.9-0.2v1.8c-0.8 0.3-1.6 0.4-2.4 0.4z"/>
	<path d="m127.5 109.7c-2.6 0-3.9-1.3-3.9-3.9v-8.6h-2.8v-2h2.9l0.3-3.6 1.8-0.3v3.8h4v2h-4v8.1c0 1.7 0.8 2.6 2.4 2.6 0.2 0 0.5 0 0.8-0.1 0.3 0 0.6-0.1 0.9-0.2v1.8c-0.8 0.3-1.6 0.4-2.4 0.4z"/>
	<path d="m136.1 109.8c-2.4 0-3.5-1.3-3.5-3.9v-10.7h2.2v10.1c0 0.9 0.2 1.6 0.5 2s0.9 0.6 1.6 0.6c0.8 0 1.5-0.2 2.3-0.5s1.6-0.7 2.4-1.2v-11h2.2v14.3h-1.9l-0.2-1.7h-0.1c-0.7 0.3-1.2 0.6-1.7 0.9-0.5 0.2-0.9 0.4-1.4 0.6-0.4 0.2-0.8 0.3-1.2 0.3-0.3 0.2-0.8 0.2-1.2 0.2z"/>
	<path d="m160 109.8c-2 0-3.6-0.6-4.6-1.9-1.1-1.3-1.6-3.1-1.6-5.5s0.5-4.3 1.6-5.5c1.1-1.3 2.6-1.9 4.6-1.9s3.6 0.6 4.6 1.9c1.1 1.3 1.6 3.1 1.6 5.5s-0.5 4.3-1.6 5.5c-1 1.3-2.6 1.9-4.6 1.9zm0-1.8c1.4 0 2.4-0.4 3-1.3s1-2.3 1-4.3-0.3-3.4-1-4.3c-0.6-0.9-1.6-1.3-3-1.3s-2.4 0.4-3 1.3-1 2.3-1 4.3c0 1.9 0.3 3.4 1 4.2 0.6 0.9 1.6 1.4 3 1.4z"/>
	<path d="m174.7 109.8c-0.8 0-1.6 0-2.4-0.1s-1.7-0.3-2.7-0.5v-21h2.2v8.6c0.5-0.6 1.1-1 1.8-1.3s1.5-0.5 2.4-0.5c1.8 0 3.1 0.6 4.1 1.8 0.9 1.2 1.4 3 1.4 5.4 0 2.3-0.6 4.2-1.7 5.5-1.1 1.4-2.8 2.1-5.1 2.1zm0-1.7c1.5 0 2.6-0.5 3.4-1.4 0.7-0.9 1.1-2.4 1.1-4.4s-0.3-3.4-0.9-4.3-1.6-1.3-2.9-1.3c-0.5 0-0.9 0.1-1.4 0.2-0.4 0.1-0.8 0.3-1.2 0.6-0.3 0.3-0.6 0.6-0.8 1s-0.3 0.8-0.3 1.3v8c0.4 0.1 0.9 0.2 1.4 0.2 0.6 0.1 1.1 0.1 1.6 0.1z"/>
	<path d="m190.5 109.8c-2.1 0-3.6-0.6-4.7-1.8s-1.6-3-1.6-5.3c0-2.5 0.5-4.4 1.6-5.7 1-1.3 2.6-1.9 4.6-1.9 3.4 0 5.1 2.1 5.1 6.3v1.1c0 0.3-0.1 0.6-0.1 0.8h-8.9c0.1 1.7 0.5 2.9 1.2 3.6 0.7 0.8 1.7 1.1 3.1 1.1 0.6 0 1.3-0.1 2-0.2s1.4-0.3 2.1-0.6l0.1 1.7c-0.6 0.3-1.4 0.5-2.1 0.6-0.9 0.2-1.7 0.3-2.4 0.3zm-0.2-13c-2.4 0-3.7 1.6-3.8 4.8h7c-0.1-1.7-0.3-3-0.8-3.7-0.6-0.8-1.3-1.1-2.4-1.1z"/>
	<path d="m198.8 95.2h1.9l0.2 1.9h0.1c0.8-0.5 1.6-0.9 2.4-1.3s1.6-0.7 2.3-0.8h0.7v2.2h-0.8c-0.8 0.1-1.5 0.3-2.3 0.6s-1.5 0.6-2.1 1v10.8h-2.2v-14.4h-0.2z"/>
	<path d="m208.3 95.4v-0.2h2.1l2.4 9.8 0.4 2.1h0.2l0.5-2.1 2.6-9.8h2.2l2.7 9.8 0.5 2.1h0.2l0.4-2.1 2.3-9.8h2.1v0.2l-3.6 14.1h-2.5l-2.7-9.7-0.4-1.7h-0.2l-0.4 1.7-2.7 9.7h-2.5l-3.6-14.1z"/>
	<path d="m232.7 109.7c-1.2 0-2.1-0.3-2.7-1s-1-1.6-1-2.8c0-1.4 0.4-2.4 1.3-3.1s2.2-1.2 4-1.3l3.1-0.2v-1.2c0-0.6-0.1-1.1-0.2-1.5s-0.3-0.7-0.6-1-0.6-0.4-1-0.5-1-0.2-1.6-0.2c-0.5 0-1.2 0-1.8 0.1-0.7 0.1-1.4 0.2-2.1 0.3l-0.2-1.7c0.8-0.1 1.6-0.3 2.4-0.3 0.7-0.1 1.5-0.1 2.2-0.1 1.8 0 3.1 0.4 3.9 1.1s1.2 1.9 1.2 3.5v9.9h-1.8l-0.2-1.8h-0.2c-0.8 0.6-1.5 1-2.3 1.4-0.8 0.2-1.6 0.4-2.4 0.4zm0.7-1.8c0.3 0 0.6 0 1-0.1 0.3-0.1 0.7-0.2 1-0.4 0.3-0.1 0.7-0.3 1-0.5l0.9-0.6v-3.6l-2.5 0.2c-1.3 0.1-2.3 0.4-2.8 0.8s-0.8 1.1-0.8 2c0 1.5 0.8 2.2 2.2 2.2z"/>
	<path d="M243.6,88.2h2.2v21.4h-2.2V88.2z"/>
	<path d="M249.9,88.2h2.2v21.4h-2.2V88.2z"/>
	<path d="m257.3 92.2c-0.9 0-1.4-0.5-1.4-1.4s0.5-1.4 1.4-1.4 1.4 0.4 1.4 1.4c0 0.9-0.5 1.4-1.4 1.4zm-1.2 3h2.2v14.3h-2.2v-14.3z"/>
	<path d="m266 109.8c-0.6 0-1.2 0-1.9-0.1s-1.5-0.3-2.5-0.5v-1.8c0.8 0.2 1.5 0.4 2.2 0.5s1.4 0.2 2.1 0.2c1 0 1.7-0.2 2.2-0.6s0.8-1 0.8-1.7c0-0.8-0.2-1.4-0.7-1.7-0.5-0.4-1.2-0.6-2-0.8-0.5-0.1-1-0.2-1.5-0.4-0.5-0.1-1-0.3-1.4-0.6s-0.8-0.7-1.1-1.2-0.4-1.2-0.4-2c0-1.3 0.4-2.3 1.3-3s2.1-1.1 3.6-1.1h0.8c0.2 0 0.5 0 0.8 0.1 0.3 0 0.6 0.1 1 0.2s0.8 0.1 1.2 0.2l-0.1 1.8c-0.8-0.2-1.5-0.3-2.1-0.4-0.5-0.1-1.1-0.1-1.5-0.1-1 0-1.7 0.2-2.2 0.6s-0.8 0.9-0.8 1.7c0 0.4 0.1 0.8 0.2 1.1 0.2 0.3 0.4 0.5 0.6 0.7 0.3 0.2 0.6 0.3 1 0.4l1.2 0.3c0.6 0.1 1.2 0.3 1.7 0.5s0.9 0.4 1.3 0.8c0.4 0.3 0.7 0.7 0.9 1.2s0.3 1.1 0.3 1.8c0 1.3-0.4 2.3-1.3 3.1-0.9 0.5-2.1 0.8-3.7 0.8z"/>
</g>
<g transform="translate(-19 178.31)" display="none">
	<g display="inline" fill="#433A33">
		<path d="m19 95.2h1.9l0.2 1.9h0.1c0.8-0.5 1.6-0.9 2.4-1.3s1.6-0.7 2.3-0.8h0.7v2.2h-0.8c-0.8 0.1-1.5 0.3-2.3 0.6s-1.5 0.6-2.1 1v10.8h-2.4v-14.4z"/>
		<path d="m31.9 109.7c-1.2 0-2.1-0.3-2.7-1s-1-1.6-1-2.8c0-1.4 0.4-2.4 1.3-3.1s2.2-1.2 4-1.3l3.1-0.2v-1.2c0-0.6-0.1-1.1-0.2-1.5s-0.3-0.7-0.6-1-0.6-0.4-1-0.5-1-0.2-1.6-0.2c-0.5 0-1.2 0-1.8 0.1-0.7 0.1-1.4 0.2-2.1 0.3l-0.2-1.7c0.8-0.1 1.6-0.3 2.4-0.3 0.7-0.1 1.5-0.1 2.2-0.1 1.8 0 3.1 0.4 3.9 1.1s1.2 1.9 1.2 3.5v9.9h-1.8l-0.2-1.8h-0.2c-0.8 0.6-1.5 1-2.3 1.4-0.8 0.2-1.6 0.4-2.4 0.4zm0.7-1.8c0.3 0 0.6 0 1-0.1 0.3-0.1 0.7-0.2 1-0.4 0.3-0.1 0.7-0.3 1-0.5l0.9-0.6v-3.6l-2.5 0.3c-1.3 0.1-2.3 0.4-2.8 0.8s-0.8 1.1-0.8 2c0 1.4 0.8 2.1 2.2 2.1z"/>
		<path d="m47.6 109.8c-1.8 0-3.2-0.6-4.1-1.8s-1.4-3-1.4-5.5 0.6-4.4 1.8-5.7 2.8-1.9 4.9-1.9c0.5 0 1 0 1.5 0.1s1 0.1 1.4 0.2v-7.1h2.3v21.4h-2l-0.2-1.6h-0.1c-0.9 1.3-2.3 1.9-4.1 1.9zm0.6-1.8c0.5 0 0.9-0.1 1.4-0.2 0.4-0.1 0.8-0.4 1.2-0.6 0.3-0.3 0.6-0.6 0.8-1s0.3-0.8 0.3-1.3v-7.9c-1-0.2-2-0.3-3-0.3-1.5 0-2.6 0.4-3.3 1.3s-1.1 2.3-1.1 4.4c0 2 0.3 3.4 0.9 4.3 0.5 0.9 1.5 1.3 2.8 1.3z"/>
		<path d="m59.2 92.2c-0.9 0-1.4-0.5-1.4-1.4s0.5-1.4 1.4-1.4 1.4 0.4 1.4 1.4c0 0.9-0.5 1.4-1.4 1.4zm-1.1 3h2.2v14.3h-2.2v-14.3z"/>
		<path d="m69.9 109.8c-2 0-3.6-0.6-4.6-1.9-1.1-1.3-1.6-3.1-1.6-5.5s0.5-4.3 1.6-5.5c1.1-1.3 2.6-1.9 4.6-1.9s3.6 0.6 4.6 1.9c1.1 1.3 1.6 3.1 1.6 5.5s-0.5 4.3-1.6 5.5c-1 1.3-2.6 1.9-4.6 1.9zm0-1.8c1.4 0 2.4-0.4 3-1.3s1-2.3 1-4.3-0.3-3.4-1-4.3c-0.6-0.9-1.6-1.3-3-1.3s-2.4 0.4-3 1.3-1 2.3-1 4.3c0 1.9 0.3 3.4 1 4.2 0.6 0.9 1.6 1.4 3 1.4z"/>
		<path d="m86.1 95.2h1.9l0.2 1.9h0.1c0.8-0.5 1.6-0.9 2.4-1.3s1.6-0.7 2.3-0.8h0.7v2.2h-0.8c-0.8 0.1-1.5 0.3-2.3 0.6s-1.5 0.6-2.1 1v10.8h-2.2v-14.4h-0.2z"/>
		<path d="m101.6 109.8c-2 0-3.6-0.6-4.6-1.9-1.1-1.3-1.6-3.1-1.6-5.5s0.5-4.3 1.6-5.5c1.1-1.3 2.6-1.9 4.6-1.9s3.6 0.6 4.6 1.9c1.1 1.3 1.6 3.1 1.6 5.5s-0.5 4.3-1.6 5.5c-1 1.3-2.6 1.9-4.6 1.9zm0-1.8c1.4 0 2.4-0.4 3-1.3s1-2.3 1-4.3-0.3-3.4-1-4.3c-0.6-0.9-1.6-1.3-3-1.3s-2.4 0.4-3 1.3-1 2.3-1 4.3c0 1.9 0.3 3.4 1 4.2 0.6 0.9 1.6 1.4 3 1.4z"/>
		<path d="m116.4 109.7c-2.6 0-3.9-1.3-3.9-3.9v-8.6h-2.8v-2h2.9l0.3-3.6 1.8-0.3v3.8h4v2h-4v8.1c0 1.7 0.8 2.6 2.4 2.6 0.2 0 0.5 0 0.8-0.1 0.3 0 0.6-0.1 0.9-0.2v1.8c-0.9 0.3-1.6 0.4-2.4 0.4z"/>
		<path d="m127.5 109.7c-2.6 0-3.9-1.3-3.9-3.9v-8.6h-2.8v-2h2.9l0.3-3.6 1.8-0.3v3.8h4v2h-4v8.1c0 1.7 0.8 2.6 2.4 2.6 0.2 0 0.5 0 0.8-0.1 0.3 0 0.6-0.1 0.9-0.2v1.8c-0.9 0.3-1.7 0.4-2.4 0.4z"/>
		<path d="m136 109.8c-2.4 0-3.5-1.3-3.5-3.9v-10.7h2.2v10.1c0 0.9 0.2 1.6 0.5 2s0.9 0.6 1.6 0.6c0.8 0 1.5-0.2 2.3-0.5s1.6-0.7 2.4-1.2v-11h2.2v14.3h-1.9l-0.2-1.7h-0.1c-0.7 0.3-1.2 0.6-1.7 0.9-0.5 0.2-0.9 0.4-1.4 0.6-0.4 0.2-0.8 0.3-1.2 0.3-0.3 0.2-0.7 0.2-1.2 0.2z"/>
		<path d="m160 109.8c-2 0-3.6-0.6-4.6-1.9-1.1-1.3-1.6-3.1-1.6-5.5s0.5-4.3 1.6-5.5c1.1-1.3 2.6-1.9 4.6-1.9s3.6 0.6 4.6 1.9c1.1 1.3 1.6 3.1 1.6 5.5s-0.5 4.3-1.6 5.5c-1.1 1.3-2.6 1.9-4.6 1.9zm0-1.8c1.4 0 2.4-0.4 3-1.3s1-2.3 1-4.3-0.3-3.4-1-4.3c-0.6-0.9-1.6-1.3-3-1.3s-2.4 0.4-3 1.3-1 2.3-1 4.3c0 1.9 0.3 3.4 1 4.2 0.6 0.9 1.6 1.4 3 1.4z"/>
		<path d="m174.6 109.8c-0.8 0-1.6 0-2.4-0.1s-1.7-0.3-2.7-0.5v-21h2.2v8.6c0.5-0.6 1.1-1 1.8-1.3s1.5-0.5 2.4-0.5c1.8 0 3.1 0.6 4.1 1.8 0.9 1.2 1.4 3 1.4 5.4 0 2.3-0.6 4.2-1.7 5.5-1.1 1.4-2.8 2.1-5.1 2.1zm0.1-1.7c1.5 0 2.6-0.5 3.4-1.4 0.7-0.9 1.1-2.4 1.1-4.4s-0.3-3.4-0.9-4.3-1.6-1.3-2.9-1.3c-0.5 0-0.9 0.1-1.4 0.2-0.4 0.1-0.8 0.3-1.2 0.6-0.3 0.3-0.6 0.6-0.8 1s-0.3 0.8-0.3 1.3v8c0.4 0.1 0.9 0.2 1.4 0.2 0.6 0.1 1.1 0.1 1.6 0.1z"/>
		<path d="m190.5 109.8c-2.1 0-3.6-0.6-4.7-1.8s-1.6-3-1.6-5.3c0-2.5 0.5-4.4 1.6-5.7 1-1.3 2.6-1.9 4.6-1.9 3.4 0 5.1 2.1 5.1 6.3v1.1c0 0.3-0.1 0.6-0.1 0.8h-8.9c0.1 1.7 0.5 2.9 1.2 3.6 0.7 0.8 1.7 1.1 3.1 1.1 0.6 0 1.3-0.1 2-0.2s1.4-0.3 2.1-0.6l0.1 1.7c-0.6 0.3-1.4 0.5-2.1 0.6-0.9 0.2-1.7 0.3-2.4 0.3zm-0.2-13c-2.4 0-3.7 1.6-3.8 4.8h7c-0.1-1.7-0.3-3-0.8-3.7-0.6-0.8-1.4-1.1-2.4-1.1z"/>
		<path d="m198.8 95.2h1.9l0.2 1.9h0.1c0.8-0.5 1.6-0.9 2.4-1.3s1.6-0.7 2.3-0.8h0.7v2.2h-0.8c-0.8 0.1-1.5 0.3-2.3 0.6s-1.5 0.6-2.1 1v10.8h-2.2v-14.4h-0.2z"/>
		<path d="m208.3 95.4v-0.2h2.1l2.4 9.8 0.4 2.1h0.2l0.5-2.1 2.6-9.8h2.2l2.7 9.8 0.5 2.1h0.2l0.4-2.1 2.3-9.8h2.1v0.2l-3.6 14.1h-2.5l-2.7-9.7-0.4-1.7h-0.2l-0.4 1.7-2.7 9.7h-2.5l-3.6-14.1z"/>
		<path d="m232.6 109.7c-1.2 0-2.1-0.3-2.7-1s-1-1.6-1-2.8c0-1.4 0.4-2.4 1.3-3.1 0.8-0.7 2.2-1.2 4-1.3l3.1-0.2v-1.2c0-0.6-0.1-1.1-0.2-1.5s-0.3-0.7-0.6-1-0.6-0.4-1-0.5-1-0.2-1.6-0.2c-0.5 0-1.2 0-1.8 0.1-0.7 0.1-1.4 0.2-2.1 0.3l-0.2-1.7c0.8-0.1 1.6-0.3 2.4-0.3 0.7-0.1 1.5-0.1 2.2-0.1 1.8 0 3.1 0.4 3.9 1.1s1.2 1.9 1.2 3.5v9.9h-1.8l-0.2-1.8h-0.2c-0.8 0.6-1.5 1-2.3 1.4-0.7 0.2-1.5 0.4-2.4 0.4zm0.8-1.8c0.3 0 0.6 0 1-0.1 0.3-0.1 0.7-0.2 1-0.4 0.3-0.1 0.7-0.3 1-0.5l0.9-0.6v-3.6l-2.5 0.2c-1.3 0.1-2.3 0.4-2.8 0.8s-0.8 1.1-0.8 2c0 1.5 0.7 2.2 2.2 2.2z"/>
		<path d="M243.6,88.2h2.2v21.4h-2.2V88.2z"/>
		<path d="M249.8,88.2h2.2v21.4h-2.2V88.2z"/>
		<path d="m257.2 92.2c-0.9 0-1.4-0.5-1.4-1.4s0.5-1.4 1.4-1.4 1.4 0.4 1.4 1.4c0 0.9-0.4 1.4-1.4 1.4zm-1.1 3h2.2v14.3h-2.2v-14.3z"/>
		<path d="m265.9 109.8c-0.6 0-1.2 0-1.9-0.1s-1.5-0.3-2.5-0.5v-1.8c0.8 0.2 1.5 0.4 2.2 0.5s1.4 0.2 2.1 0.2c1 0 1.7-0.2 2.2-0.6s0.8-1 0.8-1.7c0-0.8-0.2-1.4-0.7-1.7-0.5-0.4-1.2-0.6-2-0.8-0.5-0.1-1-0.2-1.5-0.4-0.5-0.1-1-0.3-1.4-0.6s-0.8-0.7-1.1-1.2-0.4-1.2-0.4-2c0-1.3 0.4-2.3 1.3-3s2.1-1.1 3.6-1.1h0.8c0.2 0 0.5 0 0.8 0.1 0.3 0 0.6 0.1 1 0.2s0.8 0.1 1.2 0.2l-0.1 1.8c-0.8-0.2-1.5-0.3-2.1-0.4-0.5-0.1-1.1-0.1-1.5-0.1-1 0-1.7 0.2-2.2 0.6s-0.8 0.9-0.8 1.7c0 0.4 0.1 0.8 0.2 1.1 0.2 0.3 0.4 0.5 0.6 0.7 0.3 0.2 0.6 0.3 1 0.4l1.2 0.3c0.6 0.1 1.2 0.3 1.7 0.5s0.9 0.4 1.3 0.8c0.4 0.3 0.7 0.7 0.9 1.2s0.3 1.1 0.3 1.8c0 1.3-0.4 2.3-1.3 3.1-0.8 0.5-2.1 0.8-3.7 0.8z"/>
	</g>
</g>
<g transform="matrix(3.1385 0 0 3.1385 -59.631 -56.493)" fill="#C21622">
	<path d="m27.5 64h-8.3v-40.7h7.1l0.4 4.8c2.3-1.2 4.4-2.3 6.4-3.2 2.3-1.1 4.5-1.8 6.6-2.2h3.2v7.9h-3.2c-2.1 0.3-4.2 0.8-6.4 1.6-2 0.7-4 1.6-5.9 2.6v29.2h0.1z"/>
	<path d="m70.8 64h-8.3v-40.7h7.1l0.4 4.8c2.3-1.2 4.4-2.3 6.4-3.2 2.3-1.1 4.5-1.8 6.6-2.2h3.2v7.9h-3.2c-2 0.3-4.2 0.8-6.4 1.6-2 0.7-4 1.6-5.9 2.6l0.1 29.2z"/>
	<path d="m122.6 64.8c-6.1 0-10.8-1.9-14.1-5.5-3.2-3.6-4.8-8.9-4.8-15.6 0-6.8 1.6-12 4.8-15.6s8-5.5 14.1-5.5 10.8 1.8 14.1 5.5c3.2 3.6 4.8 8.9 4.8 15.6s-1.6 12-4.8 15.6-8 5.5-14.1 5.5zm0-35.1c-3.7 0-6.3 1-8 3.2s-2.6 5.8-2.6 10.8 0.9 8.6 2.6 10.8c1.7 2.1 4.3 3.2 8 3.2s6.4-1 8-3.2c1.7-2.2 2.6-5.8 2.6-10.8s-0.9-8.6-2.6-10.8c-1.6-2.1-4.3-3.2-8-3.2z"/>
	<path d="m169.3 64.3c-1.5 0-2.7-0.4-3.6-1.3-1-0.9-1.4-2.1-1.4-3.7s0.5-2.9 1.5-3.7c0.9-0.8 2.1-1.2 3.6-1.2s2.7 0.4 3.6 1.2c1 0.8 1.5 2.1 1.5 3.7s-0.5 2.8-1.4 3.7c-1.1 0.9-2.3 1.3-3.8 1.3z"/>
	<path d="m202 70.8h-7.5v-1.5l0.2-0.3c2.5-3.6 4.4-7.5 5.8-11.6 1.4-4.2 2.1-8.5 2.1-13s-0.7-8.8-2.1-13-3.4-8.1-5.8-11.6l-0.2-0.3v-1.5h7.5l0.3 0.4c2.6 3.8 4.5 7.9 5.8 12.3s1.9 9 1.9 13.6-0.7 9.2-1.9 13.6c-1.3 4.4-3.3 8.5-5.8 12.3l-0.3 0.6z"/>
	<path d="m234 70.8h-7.5v-1.5l0.2-0.3c2.5-3.6 4.4-7.5 5.8-11.6 1.4-4.2 2.1-8.5 2.1-13s-0.7-8.8-2.1-13-3.4-8.1-5.8-11.6l-0.2-0.3v-1.5h7.5l0.3 0.4c2.6 3.8 4.5 7.9 5.8 12.3s1.9 9 1.9 13.6-0.7 9.2-1.9 13.6c-1.3 4.4-3.3 8.5-5.8 12.3l-0.3 0.6z"/>
	<path d="m265.9 70.8h-7.5v-1.5l0.2-0.3c2.5-3.6 4.4-7.5 5.8-11.6 1.4-4.2 2.1-8.5 2.1-13s-0.7-8.8-2.1-13-3.4-8.1-5.8-11.6l-0.2-0.3v-1.5h7.5l0.3 0.4c2.6 3.8 4.5 7.9 5.8 12.3s1.9 9 1.9 13.6-0.7 9.2-1.9 13.6c-1.3 4.4-3.3 8.5-5.8 12.3l-0.3 0.6z"/>
</g>
</svg>
