<svg width="800" height="516.7" version="1.1" viewBox="0 0 211.67 136.71" xmlns="http://www.w3.org/2000/svg">
 <g transform="translate(3.373 -9.8758)">
  <path d="m202.11 36.099h-98.569c-3.3008 0-5.9598 2.659-5.9598 5.9598v98.569c0 3.3008 2.659 5.9598 5.9598 5.9598h98.569c3.3008 0 5.9598-2.659 5.9598-5.9598v-98.569c0-3.3008-2.659-5.9598-5.9598-5.9598z" clip-rule="evenodd" fill="#131d35" fill-rule="evenodd" stroke-width=".45844"/>
  <path d="m208.25 82.356v-3.0257h-34.2v8.7104c-1.6046-5.0888-6.3266-8.7564-11.965-8.7564h-28.699v25.077h28.699c5.593 0 10.361-3.6676 11.965-8.7564v8.7564h34.246v-3.0257h-22.968v-7.9311h19.117v-2.4756h-19.117v-8.527h22.922zm-44.698 9.4896c0 5.2263-4.2635 9.4896-9.4896 9.4896h-9.3983v-18.98h9.3983c5.2263 0 9.4896 4.2635 9.4896 9.4896z" clip-rule="evenodd" fill="#f2f2f2" fill-rule="evenodd" stroke-width=".45844"/>
  <path d="m111.15 9.8758h-108.56c-3.3008 0-5.9598 2.659-5.9598 5.9598v108.56c0 3.3008 2.659 5.9598 5.9598 5.9598h108.56c3.3008 0 5.9598-2.659 5.9598-5.9598v-108.56c0-3.3008-2.659-5.9598-5.9598-5.9598z" clip-rule="evenodd" fill="#64bb46" fill-rule="evenodd" stroke-width=".45844"/>
  <g transform="matrix(.4126 0 0 .4126 63.012 66.89)" fill="#131d35">
   <path d="m132.2-35.3v10.7h-40.4v75.7h-49.5v-75.7h-39.3v-10.7z"/>
   <path d="m-10.1 13.8c10.2-3.2 17.7-12.7 17.7-24 0-13.8-11.3-25.1-25.1-25.1h0.1-105.2v86.4h49.6v-36.8h14.4l25.8 36.9h51.7zm-46.9-9.3h-16.1v-29.9h16.1c8.3 0 14.9 6.7 14.9 14.9 0.1 8.3-6.6 15-14.9 15z"/>
  </g>
 </g>
</svg>
