<svg version="1.1" viewBox="0 0 609.5 315.7" xml:space="preserve" xmlns="http://www.w3.org/2000/svg">
<path d="m0 0v210.5h609.5v-210.5zm199.5 199.5h-188.5v-188.5h188.5zm199.5 0h-188.5v-188.5h188.5zm199.5 0h-188.5v-188.5h188.5z" fill="#fff"/><path d="m475.8 105.9c0-18.1 14.7-32.8 32.8-32.8s32.8 14.7 32.8 32.8-14.7 32.8-32.8 32.8-32.8-14.7-32.8-32.8z" fill="#235c76"/><path d="m134.4 117.9c9.2-2.4 17.2-7.4 23.5-15 7.4-8.5 11.2-18.7 11.2-29.9 0-12.5-4.7-23.5-13.7-32.6s-20.1-13.8-32.6-13.7h-83.3v156.8h28v-64.3h35.6l37.1 64.3h32.4zm-66.9-26.5v-36.9h55.3c5.1 0 9.1 1.7 12.9 5.5 3.7 3.7 5.4 7.9 5.4 13.1 0 5.1-1.7 9.2-5.4 13-3.7 3.7-7.8 5.4-12.9 5.5h-55.3z" fill="#fff"/><path d="m290.7 183.6v-129.1h-46.1v-27.7h120.3v27.7h-46.2v129.2h-28z" fill="#fff"/><path d="m451.8 162c-15.8-15.7-23.8-34.9-23.8-56.7s8-40.8 23.8-56.6c15.7-15.8 34.9-23.8 56.7-23.8 13.7 0 26.8 3.5 39.3 10.3 11.9 6.9 21.7 16.2 29.4 28l1.6 2.4-21.2 13.6-2.4 1.5-1.6-2.4c-5.2-7.9-11.7-14.1-19.7-18.8s-16.4-7-25.5-7.1c-14.4 0-26.6 5.1-37 15.5-10.4 10.5-15.5 22.6-15.5 37.1s5.1 26.6 15.5 37.1c10.4 10.4 22.6 15.5 37 15.5 9.4 0 17.7-2.1 25.2-6.4 7.5-4.2 14.1-10.6 19.9-19.3l1.6-2.4 23.4 15.4-1.6 2.4c-7.7 11.5-17.5 20.8-29.5 27.7-12.2 6.8-25.2 10.2-39.1 10.2h-0.1c-21.6 0.3-40.7-7.6-56.4-23.2z" fill="#fff"/><g fill="#fff"><path d="m63.3 238.9v13.3h-22.4v61.6h-15.8v-61.6h-22.5v-13.3z"/><path d="m127.9 252.2h-39.6v15.9h36.4v13h-36.4v19.3h41.5v13.5h-56.9v-74.9h55z"/><path d="m141.9 238.9h15.6v61.4h37.4v13.5h-53z"/><path d="m260.8 252.2h-39.6v15.9h36.4v13h-36.4v19.3h41.5v13.5h-56.8v-74.9h54.9z"/></g><g fill="#fff"><path d="m303.8 238.9h15.6v61.4h37.4v13.5h-53z"/><path d="m381.6 313.8h-15.5v-74.9h15.5z"/><path d="m451.6 252.2h-39.6v15.9h36.4v13h-36.4v19.3h41.5v13.5h-56.8v-74.9h54.9z"/><path d="m516 262.3c-1.2-5.1-4.1-8.7-8.7-10.7-2.6-1.1-5.4-1.7-8.6-1.7-6 0-11 2.3-14.9 6.8-3.9 4.6-5.8 11.4-5.8 20.5 0 9.2 2.1 15.7 6.3 19.5s9 5.7 14.3 5.7c5.2 0 9.6-1.5 12.9-4.5 3.4-3 5.4-7 6.2-11.8h-17.3v-12.5h31.2v40.2h-10.4l-1.6-9.4c-3 3.5-5.7 6-8.1 7.5-4.1 2.5-9.2 3.8-15.2 3.8-9.9 0-18.1-3.4-24.4-10.3-6.6-6.9-9.9-16.4-9.9-28.3 0-12.1 3.3-21.8 10-29.2 6.7-7.3 15.5-11 26.5-11 9.5 0 17.2 2.4 22.9 7.2 5.8 4.8 9.1 10.9 9.9 18.1h-15.3z"/><path d="m602 252.2h-39.6v15.9h36.4v13h-36.4v19.3h41.5v13.5h-56.8v-74.9h54.9z"/></g>
</svg>
