<?xml version="1.0" encoding="UTF-8"?>
<svg id="svg22" width="599.98" height="286.6" version="1.1" viewBox="0 0 158.74 75.83" xmlns="http://www.w3.org/2000/svg" xmlns:cc="http://creativecommons.org/ns#" xmlns:dc="http://purl.org/dc/elements/1.1/" xmlns:rdf="http://www.w3.org/1999/02/22-rdf-syntax-ns#">
 <metadata id="metadata28">
  <rdf:RDF>
   <cc:Work rdf:about="">
    <dc:format>image/svg+xml</dc:format>
    <dc:type rdf:resource="http://purl.org/dc/dcmitype/StillImage"/>
    <dc:title/>
   </cc:Work>
  </rdf:RDF>
 </metadata>
 <g id="g20" transform="translate(-13.575 -110.23)">
  <g id="g14" fill="#119cf5">
   <path id="path2" d="m13.574 173.68v12.38h9.103v-4.55h2.526l4.299 4.55h7.835l-5.309-4.04s4.299 0 4.299-4.3c0 0 0-4.04-3.537-4.04h-1.516zm9.103 2.52h4.042s1.267 0 1.267 1.27c0 1.26-1.516 1.52-1.516 1.52h-3.793z"/>
   <path id="path4" d="m73.484 173.68v12.38h20.227v-2.27h-11.124v-9.86h-9.103z"/>
   <path id="path6" d="m42.647 173.68v2.27h6.32v9.86h9.095v-9.86h6.576v-2.27z"/>
   <path id="path8" d="m135.42 131.72v32.85h18.96c11.12 0 17.94-4.8 17.94-17.44 0-8.34-5.31-15.41-17.94-15.41zm9.6 6.31h7.08c6.32 0 10.36 3.04 10.36 10.12 0 6.82-3.79 10.1-10.36 10.1h-7.08z"/>
   <path id="path10" d="m93.711 131.71v32.86h9.599v-13.14h15.93v13.14h9.6v-32.86h-9.6v13.15h-16.18v-13.15h-9.862z"/>
   <path id="path12" d="m53.514 110.23c-15.671 0-28.311 12.64-28.311 28.31s12.64 28.31 28.311 28.31c15.672 0 28.311-12.64 28.311-28.31s-12.639-28.31-28.311-28.31"/>
  </g>
  <path id="path16" d="m56.299 150.16h9.103v-23.5h-9.103z" fill="#fff"/>
  <path id="path18" d="m41.887 150.16h9.103v-23.5h-9.103z" fill="#fff"/>
 </g>
</svg>
