<svg width="800" height="81.416" version="1.1" xmlns="http://www.w3.org/2000/svg">
 <path d="m330.94 81.416h150.46v-81.416h-150.46z" fill="#6e0ced" fill-rule="evenodd" stroke-width="3.5398"/>
 <path d="m165.45 81.416h150.46v-81.416h-150.46z" fill="#ec33ec" fill-rule="evenodd" stroke-width="3.5398"/>
 <path d="m0 81.416h150.42v-81.416h-150.42z" fill="#9629bc" fill-rule="evenodd" stroke-width="3.5398"/>
 <g transform="matrix(3.5398 0 0 3.5398 -42.478 -403.54)" fill="#fffffe" fill-rule="evenodd">
  <path d="m118.7 119.29h2.951v9.976h13.135v2.45h-16.085v-12.426"/>
  <path d="m78.516 121.74h-7.471v-2.45h17.895v2.45h-7.472v9.976h-2.952v-9.976"/>
  <path d="m35.004 125.04c1.827 0 2.712-0.568 2.712-1.722 0-1.153-0.885-1.704-2.712-1.704h-7.988v3.426zm-10.94-5.751h11.328c3.45 0 5.368 1.49 5.368 3.994 0 2.148-1.439 3.586-3.892 3.923l5.552 4.509h-4.26l-5.22-4.35h-5.923v4.35h-2.951v-12.426z"/>
 </g>
 <path d="m531.46 40.329c2.6442 0 4.6655-0.63717 6.0531-1.9115 1.3912-1.2743 2.085-3.1221 2.085-5.5434 0-2.3009-0.70796-4.0743-2.1168-5.3274-1.4124-1.2531-3.4195-1.8761-6.0212-1.8761h-11.657v14.655h11.657zm-19.989 22.177v-43.858h21.097c3.0796 0 5.7912 0.59823 8.138 1.7876a13.044 13.044 0 0 1 5.4336 5.0124c1.2814 2.1522 1.9221 4.6265 1.9221 7.4265 0 2.8389-0.64071 5.3558-1.9221 7.5469-1.2779 2.1947-3.0903 3.8938-5.4336 5.108-2.3469 1.2106-5.0619 1.8159-8.1416 1.8159h-12.761v15.161zm57.685-35.773-7.2248 19.108h14.715l-7.2283-19.108zm-4.8142-8.0814h10.088l17.582 43.228v0.62655h-9.115l-3.646-9.646h-19.989l-3.646 9.646h-8.7257v-0.62655zm35.805 40.63c-3.469-2.6088-5.3345-6.2761-5.5965-10.995h8.3328c0.47787 5.1788 4.538 7.7664 12.177 7.7664 3.2956 0 5.7841-0.50974 7.4549-1.5328 1.6708-1.0265 2.5062-2.4779 2.5062-4.354 0-1.6283-0.53097-2.8743-1.5929-3.7274-1.062-0.85664-2.9841-1.5363-5.7593-2.0389l-7.8159-1.4407c-4.7788-0.92035-8.2726-2.3788-10.485-4.3858-2.2159-2.0035-3.3204-4.7186-3.3204-8.1416 0-3.8442 1.5929-6.885 4.7894-9.1186 3.1858-2.2336 7.5823-3.3522 13.182-3.3522 3.646 0 6.8566 0.59469 9.6389 1.7876 2.7752 1.1894 4.9451 2.8389 6.5097 4.9487 1.5575 2.1097 2.3858 4.5204 2.4708 7.2354h-8.3328c-0.21946-2.2124-1.2354-3.9044-3.0584-5.0761-1.823-1.1681-4.4531-1.7522-7.8832-1.7522-5.9434 0-8.9204 1.7735-8.9204 5.3239 0 1.3381 0.55575 2.4354 1.6637 3.292 1.108 0.8531 2.8743 1.4938 5.3097 1.9115l7.4195 1.3097c5.2106 0.96637 8.9451 2.4673 11.2 4.5133 2.2549 2.0496 3.3841 4.8885 3.3841 8.5239 0 4.177-1.5929 7.423-4.7858 9.7416-3.1858 2.3186-7.823 3.4761-13.897 3.4761-6.2549 0-11.115-1.3062-14.591-3.915m44.439 0c-3.4796-2.6088-5.3451-6.2761-5.6-10.995h8.3292c0.47434 5.1788 4.5381 7.7664 12.177 7.7664 3.2991 0 5.7841-0.50974 7.4549-1.5328 1.6743-1.0265 2.5062-2.4779 2.5062-4.354 0-1.6283-0.53098-2.8743-1.5929-3.7274-1.062-0.85664-2.9841-1.5363-5.7628-2.0389l-7.8124-1.4407c-4.7788-0.92035-8.2726-2.3788-10.485-4.3858-2.2088-2.0035-3.3168-4.7186-3.3168-8.1416 0-3.8442 1.5929-6.885 4.7823-9.1186s7.5858-3.3522 13.186-3.3522c3.646 0 6.8602 0.59469 9.6354 1.7876 2.7788 1.1894 4.9522 2.8389 6.5133 4.9487 1.5575 2.1097 2.3858 4.5204 2.4708 7.2354h-8.3363c-0.21239-2.2124-1.2319-3.9044-3.0549-5.0761-1.8266-1.1681-4.4531-1.7522-7.8796-1.7522-5.9469 0-8.9204 1.7735-8.9204 5.3239 0 1.3381 0.55221 2.4354 1.6602 3.292 1.108 0.8531 2.8743 1.4938 5.3062 1.9115l7.423 1.3097c5.2071 0.96637 8.9416 2.4673 11.196 4.5133 2.2619 2.0496 3.3841 4.8885 3.3841 8.5239 0 4.177-1.5929 7.423-4.7823 9.7416s-7.823 3.4761-13.901 3.4761c-6.2513 0-11.112-1.3062-14.584-3.915m43.366 3.2248h8.3292v-43.858h-8.3292zm51.108-10.619c2.6018-2.7752 3.9044-6.5487 3.9044-11.306 0-4.7646-1.3026-8.531-3.9044-11.31-2.6053-2.7788-6.3186-4.1664-11.136-4.1664-4.8142 0-8.5239 1.3805-11.129 4.1345-2.6053 2.7575-3.908 6.5381-3.908 11.342 0 4.7611 1.3026 8.531 3.908 11.306 2.6053 2.7788 6.315 4.1664 11.129 4.1664 4.8177 0 8.531-1.3876 11.136-4.1664zm-23.635 8.4602a19.696 19.696 0 0 1-8.1699-7.9894c-1.8867-3.423-2.8319-7.3522-2.8319-11.777 0-4.4283 0.94513-8.354 2.8319-11.781a19.71 19.71 0 0 1 8.1699-7.9894c3.5611-1.8973 7.7274-2.8496 12.499-2.8496 4.7328 0 8.8708 0.95221 12.407 2.8496a19.982 19.982 0 0 1 8.1699 7.9894c1.9115 3.4265 2.8637 7.3522 2.8637 11.781 0 4.4248-0.95575 8.354-2.8637 11.777a19.965 19.965 0 0 1-8.1699 7.9894c-3.5398 1.9009-7.6743 2.8496-12.407 2.8496-4.7717 0-8.938-0.94867-12.499-2.8496zm52.609 2.1593h-8.3327v-43.858h9.6354l22.138 31.766h0.2584v-31.763h8.2726v43.858h-9.5752l-22.138-31.579h-0.25841v31.575" fill-rule="evenodd" stroke-width="3.5398"/>
</svg>
