<svg width="800" height="298.97" Googl="true" version="1.1" viewBox="0 0 800 298.97" xml:space="preserve" xmlns="http://www.w3.org/2000/svg"><path d="m25.294 1.2857e-5h749.41c14.013 0 25.294 10.68 25.294 23.945v251.08c0 13.266-11.281 23.945-25.294 23.945h-749.41c-14.013 0-25.294-10.68-25.294-23.945v-251.08c0-13.266 11.281-23.945 25.294-23.945z" fill="#f00" fill-rule="evenodd" opacity=".993" stroke-width=".75"/><path class="st0" d="m476.69 103.4c1.8512 0 2.6446 0.66115 2.6446 2.5124v5.8182c0 0.92565-0.26445 1.719-0.52892 2.2479l-38.743 69.95h38.876c1.719 0 2.5124 0.52893 2.5124 2.3802v6.2148c0 1.8512-0.79335 2.5124-2.5124 2.5124h-52.231c-1.8512 0-2.5124-0.66115-2.5124-2.5124v-6.0826c0-0.92565 0.26446-1.4545 0.66116-2.2479l38.347-69.553h-34.248c-1.719 0-2.5124-0.66116-2.5124-2.5124v-6.0826c0-1.8512 0.79334-2.5124 2.5124-2.5124h47.735zm86.085 58.711c1.3223 5.5537 1.9834 11.107 2.1157 11.768 0.13223-0.66116 1.1901-7.8015 2.2479-11.768l14.281-56.198c0.39669-1.5868 1.1901-2.5124 2.9091-2.5124h7.2727c1.719 0 2.2479 0.79334 1.8512 2.5124l-21.95 86.745c-0.39669 1.719-1.4545 2.5124-3.3058 2.5124h-8.0662c-1.5868 0-2.5124-0.92565-2.9091-2.5124l-14.413-57.256c-1.0579-3.9669-1.5868-9.6532-1.719-10.579-0.13223 0.92565-1.0579 7.2727-1.8512 10.711l-14.545 57.124c-0.39669 1.719-1.3223 2.5124-3.1735 2.5124h-8.0662c-1.5868 0-2.5124-0.92565-2.9091-2.5124l-22.083-86.745c-0.39669-1.719 0.13224-2.5124 1.9834-2.5124h8.3302c1.719 0 2.6446 0.92564 3.1735 2.5124l14.017 56.198c0.92564 3.9669 2.1157 10.579 2.1157 10.579s0.66115-4.3636 2.2479-10.579l14.281-56.198c0.3967-1.5868 1.1901-2.5124 2.9091-2.5124h7.6695c1.8512 0 2.6446 0.92564 3.1735 2.5124zm47.206 33.19c-1.719 0-2.3802-0.79334-2.3802-2.6446v-86.61c0-1.8512 0.66115-2.6446 2.3802-2.6446h46.281c1.719 0 2.5124 0.66115 2.5124 2.5124v6.0826c0 1.8512-0.79335 2.5124-2.5124 2.5124h-35.57v27.24h33.058c1.8512 0 2.6446 0.66115 2.6446 2.5124v5.8182c0 1.719-0.79335 2.5124-2.6446 2.5124h-33.058v31.207h37.024c1.719 0 2.5124 0.52892 2.5124 2.3802v6.2149c0 1.8512-0.79335 2.5124-2.5124 2.5124h-47.735zm70.215 0c-1.719 0-2.3802-0.79334-2.3802-2.6446v-86.61c0-1.8512 0.66116-2.6446 2.3802-2.6446h46.281c1.719 0 2.5124 0.66115 2.5124 2.5124v6.0826c0 1.8512-0.79335 2.5124-2.5124 2.5124h-35.57v27.24h33.058c1.8512 0 2.6446 0.66115 2.6446 2.5124v5.8182c0 1.719-0.79335 2.5124-2.6446 2.5124h-33.058v31.207h37.024c1.719 0 2.5124 0.52892 2.5124 2.3802v6.2149c0 1.8512-0.79335 2.5124-2.5124 2.5124h-47.735z" fill="#fff" stroke-width="1.3223"/><path class="st0" d="m365.62 52.619h6.744v193.33h-6.744z" fill="#fff" stroke-width="1.3224"/><g transform="matrix(.75 0 0 .75 0 1.2857e-5)" fill="#fff" stroke-width="1.7631"><path class="st0" d="m141.05 177.72h8.2865c11.989 0 14.81-12.694 14.81-25.036 0-23.978-8.6391-25.212-22.92-24.683v49.719zm77.399 124.3h-47.427c-3.5262-3.1736-7.0523-10.579-7.2286-14.634-0.70523-18.16 0.17631-43.901-1.0578-56.595-1.2342-12.694-3.8788-20.804-13.752-21.686h-7.9339v92.915h-47.956v-205.93h65.587c34.38 0 52.716 11.989 52.716 49.895 0 29.796-9.8733 35.262-27.504 44.606 11.813 2.9972 25.917 13.047 26.623 27.152 1.2342 16.397-0.88154 54.656 1.5868 67.702-0.17631 0 3.5262 13.047 6.3471 16.573"/><path class="st0" d="m203.28 96.088h111.78v34.204h-32.793v171.72h-47.251v-171.72h-31.736zm117.42 205.93v-205.93h47.427v172.96h50.072v32.97z"/></g></svg>
