<svg width="1089.7" height="265.24" version="1.1" xmlns="http://www.w3.org/2000/svg">
 <g transform="translate(-.79406 .00012634)" fill="#fff" font-family="'RTL United Text'" font-size="40px" font-weight="bold" stroke-width="2.7717">
  <path d="m888.1 107.56q-9.9137 0-17.291-3.5187-7.3776-3.5187-11.412-10.023-3.9194-6.5042-3.9194-15.354v-46.916h14.179v46.489q0 8.4235 4.7263 12.902 4.8416 4.4783 13.718 4.4783 9.1068 0 13.833-4.3717 4.7263-4.4783 4.7263-13.008v-46.489h14.179v46.916q0 8.85-4.0346 15.461-3.9194 6.5042-11.297 10.023-7.3776 3.412-17.407 3.412z" style="white-space:pre"/>
  <path d="m989.31 62.034v-30.282h14.179v74.638h-14.179v-32.628h-37.003v32.628h-14.179v-74.638h14.179v30.282z" style="white-space:pre"/>
  <path d="m1021.9 106.39v-74.638h29.741q11.643 0 20.404 4.6916 8.7609 4.5849 13.602 13.008t4.8416 19.619q0 10.982-4.9569 19.513-4.8415 8.4235-13.718 13.115-8.761 4.6916-20.173 4.6916zm28.704-11.729q12.219 0 18.79-6.7174 6.6859-6.7174 6.6859-18.873 0-12.262-6.6859-18.873-6.5707-6.7174-18.79-6.7174h-14.525v51.181z" style="white-space:pre"/>
 </g>
 <g transform="translate(-169.96 591.07)" fill="#fff" font-family="'RTL United Text'" font-size="40px" font-weight="bold" stroke-width="2.8596">
  <path d="m349.51-404.05h18.316l29.615 75.908v1.1001h-15.818l-6.3036-17.162h-33.778l-6.3036 17.162h-15.343v-1.1001zm8.6823 13.971-12.25 33.773h24.976l-12.25-33.773z" style="white-space:pre"/>
  <path d="m441.21-325.84q-10.228 0-17.84-3.6304-7.6118-3.6304-11.775-10.341-4.0438-6.7107-4.0438-15.842v-48.405h14.629v47.965q0 8.6909 4.8763 13.311 4.9953 4.6205 14.153 4.6205 9.3959 0 14.272-4.5104 4.8763-4.6205 4.8763-13.421v-47.965h14.629v48.405q0 9.1309-4.1627 15.952-4.0438 6.7107-11.656 10.341-7.6118 3.5204-17.959 3.5204z" style="white-space:pre"/>
  <path d="m521.97-325.84q-15.818 0-24.857-6.7107-9.0391-6.8207-9.6337-19.252h14.748q0.59468 6.7107 5.59 10.231 5.1142 3.4103 14.51 3.4103 7.9687 0 12.25-2.7503 4.2817-2.7503 4.2817-7.8108 0-4.4004-2.7355-6.6007-2.7355-2.3102-9.8716-3.7404l-12.131-2.4202q-12.369-2.5303-18.197-7.8108-5.7089-5.2805-5.7089-14.191 0-6.4906 3.687-11.441 3.8059-4.9505 10.704-7.5908 7.0172-2.7503 16.175-2.7503t16.294 3.0803q7.1361 3.0803 11.18 8.5809 4.0438 5.5006 4.0438 12.541h-14.748q-0.35681-5.7206-4.9953-8.8009-4.5195-3.0803-12.726-3.0803-7.255 0-11.061 2.4202-3.687 2.4202-3.687 7.0407 0 3.5204 2.8544 5.8306 2.9734 2.3102 9.0391 3.5204l11.299 2.2002q13.559 2.6403 19.505 8.0308 5.9468 5.2805 5.9468 14.962 0 10.781-8.4444 16.942-8.3255 6.1606-23.311 6.1606z" style="white-space:pre"/>
  <path d="m600.46-327.05h-14.629v-64.906h-24.976v-12.101h64.463v12.101h-24.857z" style="white-space:pre"/>
  <path d="m704.3-328.15v1.1001h-16.532l-19.862-28.823h-16.056v28.823h-14.629v-77.008h35.681q8.2065 0 14.391 3.0803 6.1846 3.0803 9.5148 8.4708 3.4491 5.3905 3.4491 12.211 0 8.3608-4.6385 14.301-4.5195 5.9406-12.488 8.4708zm-52.45-63.806v23.982h20.219q6.3036 0 9.7527-3.1903 3.568-3.3003 3.568-9.1309 0-5.3905-3.568-8.4708-3.568-3.1903-9.7527-3.1903z" style="white-space:pre"/>
  <path d="m731.17-327.05h-14.629v-77.008h14.629z" style="white-space:pre"/>
  <path d="m772.09-404.05h18.316l29.615 75.908v1.1001h-15.818l-6.3036-17.162h-33.778l-6.3036 17.162h-15.343v-1.1001zm8.6823 13.971-12.25 33.773h24.976l-12.25-33.773z" style="white-space:pre"/>
 </g>
 <g transform="translate(0 591.07)" stroke-width="3.9604">
  <path d="m549.98-452.46h250.02v-138.61h-250.02z" fill="#6e0ced"/>
  <path d="m274.99-452.46h250.02v-138.61h-250.02z" fill="#00acf2"/>
  <path d="m0-452.46h250.02v-138.61h-250.02z" fill="#0036f2"/>
  <g transform="translate(0 -591.07)" fill="#fdfeff" fill-rule="evenodd">
   <path d="m627.68 31.861h17.362v60.127h77.263v14.76h-94.626v-74.887"/>
   <path d="m391.32 46.626h-43.952v-14.76h105.26v14.76h-43.949v60.127h-17.362v-60.127"/>
   <path d="m135.37 66.523c10.745 0 15.952-3.4218 15.952-10.376s-5.2079-10.269-15.952-10.269h-46.986v20.646zm-64.349-34.661h66.63c20.293 0 31.576 8.9901 31.576 24.071 0 12.947-8.4634 21.612-22.895 23.644l32.661 27.172h-25.069l-30.705-26.21h-34.836v26.21h-17.362z"/>
  </g>
 </g>
</svg>
