<svg width="449.5px" height="128.11px" enable-background="new -8.65 0 449.5 128.112" version="1.1" viewBox="-8.65 0 449.5 128.11" xml:space="preserve" xmlns="http://www.w3.org/2000/svg">
<path d="m37.95 29.186c0.724-0.109 1.459-0.165 2.188-0.165 3.89 0 7.499 1.576 10.153 4.151 2.652-4.814 7.941-7.967 13.819-7.555l0.783 0.055 0.017-18.55c5e-3 -3.896-3.182-7.091-7.08-7.095l-33.437-0.027c-3.896-3e-3 -7.089 3.185-7.095 7.079l-0.022 25.247 20.674-3.14z" fill="#0a0b08"/>
<path d="m33.782 8.419-1.919-0.016c-3.338-0.029-4.852 2.26-4.871 4.542l-0.055 6.761c2e-3 0.128 0.104 0.231 0.234 0.233 0.734 4e-3 2.959 0.023 3.827 0.032 0.132 1e-3 0.238-0.105 0.24-0.235l0.052-6.379c6e-3 -0.926 0.565-1.478 1.491-1.468l1.015 8e-3c0.11-0.021 0.19-0.116 0.192-0.229l0.023-3.009c2e-3 -0.131-0.101-0.236-0.229-0.24zm10.857 0.089-1.885-0.018-0.329-2e-3c-0.128-3e-3 -0.23-0.109-0.229-0.234l0.028-3.273c0-0.132-0.111-0.279-0.237-0.24l-3.625 1.282c-0.082 0.038-0.142 0.118-0.144 0.216l-0.053 1.978-2e-3 1e-3c0 0.133-0.104 0.235-0.233 0.237l-0.454-5e-3 -0.897-0.01c-0.13 2e-3 -0.232 0.107-0.232 0.235l-0.027 3.005c2e-3 0.132 0.104 0.239 0.237 0.239l1.083 0.01c0.124 0.01 0.223 0.111 0.221 0.235l4e-3 5e-3 -0.034 4.18-1e-3 0.014v0.021c-0.021 2.724 1.425 5.097 3.573 6.318 0.089 0.045 0.193 0.031 0.269-0.035l2.392-2.323c0.085-0.092 0.086-0.236-2e-3 -0.327l1e-3 -2e-3c-1.123-0.867-1.862-2.208-1.924-3.719-4e-3 -0.036 0.01-1.877 0.027-4.101 2e-3 -0.108 0.075-0.198 0.173-0.227l2.276 0.021c0.13 0 0.236-0.108 0.239-0.237l0.023-3.005c-2e-3 -0.131-0.107-0.238-0.238-0.239zm9.67 15.252c-0.513-0.517-0.89-0.928-1.373-1.734l-4e-3 -4e-3c-0.371-0.645-0.554-1.631-0.542-2.941l0.133-16.268c2e-3 -0.127-0.105-0.274-0.229-0.24l-3.896 1.305h-1e-3c-0.104 0.023-0.182 0.117-0.183 0.23l-0.124 15.126c-0.015 1.405 0.041 3.02 0.819 4.335 0.639 1.117 1.597 2.089 2.534 3.032 0.092 0.081 0.228 0.079 0.319-5e-3l2.563-2.521c0.07-0.093 0.067-0.226-0.016-0.315z" fill="#fff"/>
<path d="m433.01 109.33-4.123-66.236c-0.242-3.889-3.623-6.875-7.515-6.632l-33.368 2.077c-0.531 0.033-1.043 0.13-1.535 0.273-0.865-0.62-1.877-1.061-2.994-1.236l-33.027-5.236c-3.85-0.609-7.498 2.039-8.108 5.891l-6.865 43.299 1.178-40.542c0.111-3.896-2.981-7.177-6.879-7.289l-33.42-0.971c-3.896-0.113-7.176 2.981-7.289 6.879l-0.633 21.81-3.603-28.03c-0.498-3.865-4.065-6.621-7.932-6.127l-33.163 4.264c-1.968 0.253-3.646 1.304-4.755 2.781-0.79-0.361-1.657-0.589-2.574-0.635l-33.392-1.686c-3.893-0.197-7.237 2.828-7.435 6.721l-1.635 32.405-6.393-31.454c-0.776-3.82-4.536-6.312-8.356-5.533l-32.767 6.658c-0.236 0.048-0.469 0.107-0.694 0.179l-0.041-0.548c-0.292-3.887-3.711-6.826-7.598-6.535l-33.342 2.506c-1.229 0.094-2.361 0.499-3.329 1.134-1.164-1.161-2.729-1.934-4.489-2.058l-33.354-2.357c-3.887-0.275-7.293 2.682-7.567 6.567l-2.954 41.789-5.911-38.913c-0.585-3.854-4.217-6.527-8.071-5.942l-33.053 5.02c-3.854 0.586-6.528 4.218-5.942 8.07l9.966 65.613c0.585 3.854 4.218 6.526 8.07 5.94l33.055-5.02c2.085-0.316 3.819-1.529 4.885-3.183 0.584 0.205 1.2 0.347 1.848 0.392l33.354 2.354c3.888 0.275 7.295-2.68 7.568-6.567l2.084-29.478 2.288 30.408c0.292 3.887 3.712 6.828 7.598 6.535l33.343-2.506c3.887-0.293 6.826-3.711 6.534-7.601l-1.115-14.83 4.555 22.414c0.776 3.82 4.536 6.312 8.356 5.535l32.766-6.66c0.808-0.164 1.551-0.469 2.222-0.871 0.481 0.131 0.982 0.218 1.5 0.242l33.393 1.687c3.893 0.194 7.236-2.828 7.435-6.722l1.847-36.632 4.438 34.525c0.498 3.866 4.066 6.623 7.934 6.127l33.16-4.261 0.051-8e-3c0.476 3.353 3.314 5.996 6.806 6.099l33.42 0.969c2.93 0.086 5.51-1.644 6.658-4.162 1.002 0.947 2.285 1.613 3.74 1.844l33.028 5.238c3.851 0.611 7.498-2.039 8.107-5.889l4.639-29.25 1.887 30.309c0.242 3.891 3.623 6.875 7.513 6.631l33.369-2.076c3.883-0.238 6.868-3.619 6.626-7.509z" fill="none" stroke="#0A0B08" stroke-width="15"/>
<path d="m57.114 108.16c0.585 3.854-2.088 7.484-5.942 8.07l-33.055 5.02c-3.853 0.586-7.485-2.088-8.07-5.94l-9.966-65.615c-0.586-3.854 2.088-7.484 5.942-8.07l33.054-5.021c3.854-0.585 7.486 2.089 8.071 5.942l9.966 65.614z" fill="#36A9E1"/>
<path d="m334.72 107.32c-0.112 3.896-3.394 6.99-7.289 6.877l-33.419-0.969c-3.896-0.113-6.991-3.394-6.879-7.289l1.926-66.335c0.111-3.896 3.393-6.992 7.289-6.879l33.419 0.971c3.896 0.112 6.991 3.393 6.879 7.289l-1.926 66.335z" fill="#FFDE00"/>
<path d="m378.97 111.23c-0.61 3.85-4.259 6.5-8.108 5.889l-33.027-5.238c-3.851-0.608-6.5-4.258-5.89-8.106l10.394-65.543c0.61-3.852 4.26-6.5 8.108-5.891l33.026 5.236c3.85 0.61 6.5 4.258 5.89 8.108l-10.393 65.545z" fill="#3AAA35"/>
<path d="m293.29 99.205c0.497 3.867-2.26 7.437-6.126 7.935l-33.161 4.26c-3.866 0.496-7.436-2.26-7.933-6.127l-8.459-65.82c-0.497-3.867 2.26-7.436 6.126-7.933l33.162-4.264c3.865-0.495 7.435 2.262 7.932 6.127l8.459 65.822z" fill="#F9B233"/>
<path d="m239.78 107.38c-0.197 3.894-3.542 6.916-7.435 6.722l-33.393-1.687c-3.893-0.195-6.917-3.541-6.721-7.434l3.344-66.279c0.196-3.893 3.542-6.918 7.435-6.721l33.392 1.686c3.893 0.196 6.917 3.543 6.72 7.437l-3.342 66.276z" fill="#E6332A"/>
<path d="m200.77 104.68c0.774 3.819-1.714 7.58-5.534 8.356l-32.766 6.66c-3.82 0.775-7.58-1.715-8.356-5.535l-13.217-65.033c-0.776-3.819 1.713-7.579 5.533-8.356l32.767-6.658c3.82-0.777 7.58 1.713 8.356 5.533l13.217 65.033z" fill="#E6007E"/>
<path d="m150.67 106.58c0.292 3.89-2.647 7.308-6.534 7.601l-33.343 2.506c-3.886 0.293-7.306-2.648-7.598-6.535l-4.978-66.175c-0.292-3.888 2.648-7.308 6.534-7.601l33.342-2.506c3.887-0.291 7.306 2.648 7.598 6.535l4.979 66.175z" fill="#951B81"/>
<path d="m98.825 109.22c-0.274 3.889-3.681 6.844-7.568 6.567l-33.354-2.354c-3.888-0.275-6.845-3.683-6.57-7.568l4.68-66.199c0.274-3.887 3.681-6.844 7.567-6.567l33.355 2.354c3.888 0.275 6.844 3.683 6.569 7.568l-4.679 66.199z" fill="#1D71B8"/>
<path d="m433.01 109.33c0.242 3.891-2.742 7.271-6.633 7.514l-33.369 2.076c-3.89 0.244-7.271-2.74-7.513-6.631l-4.125-66.236c-0.241-3.891 2.742-7.271 6.634-7.514l33.368-2.077c3.892-0.243 7.271 2.743 7.515 6.632l4.123 66.236z" fill="#36A9E1"/>
<path d="m171.93 88.246-1.615-7.947c2.215-0.629 4.481-1.182 6.803-1.651l2.648-0.539-0.523-8.167c-0.527 0.072-1.396 0.229-2.607 0.477l-2.493 0.506c-2.458 0.5-4.282 0.924-5.474 1.275l-1.352-6.648c3.828-1.029 7.076-1.816 9.742-2.358l3.169-0.645-0.502-7.523c-8.021 1.703-16.136 3.641-24.348 5.813l7.875 38.746c4.424-1.297 9.614-2.549 15.569-3.76l1.299-0.264c2.527-0.515 5.143-0.955 7.844-1.324l-0.457-9.695c-5.02 1.016-10.213 2.252-15.578 3.704zm61.081-27.729-3.768-7.354c-7.45 3.905-13.063 8.929-16.839 15.07l0.779-15.456c-2.728 0.04-5.817 0.29-9.271 0.752l-1.981 39.278c3.579-0.14 6.271-0.162 8.069-0.07l1.164 0.059 0.736-14.608c3.551 6.758 8.415 12.383 14.592 16.867l6.233-7.857c-2.528-1.789-5.185-4.205-7.967-7.248-2.65-2.857-4.646-5.398-5.982-7.625 4.033-4.893 8.779-8.828 14.235-11.808zm-110.65-5.275c-3.678 0.561-6.943 1.195-9.795 1.906l2.962 39.373c6.421-0.838 13.507-1.547 21.259-2.131l1.636-10.752c-5.276 0.502-9.872 1.133-13.782 1.887l-2.28-30.283zm-36.242 7.473 3.225 0.229 1.531-7.385c-8.182-0.508-16.52-0.813-25.014-0.917l-2.788 39.44c4.609-0.063 9.945 0.117 16.007 0.547l1.323 0.091c2.572 0.185 5.209 0.457 7.912 0.826l2.157-9.465c-5.111-0.361-10.446-0.561-16.005-0.6l0.572-8.09c2.303-0.015 4.636 0.062 6.998 0.229l2.696 0.189 1.683-8.01c-0.526-0.071-1.407-0.151-2.64-0.239l-2.538-0.181c-2.502-0.176-4.375-0.256-5.615-0.235l0.479-6.769c3.963 0.037 7.302 0.148 10.017 0.34zm-43.891-9.706-2.708 0.521c-10.688 2.057-20.234 4.234-28.644 6.533l0.544 9.561c3.966-1.268 7.769-2.358 11.406-3.274l3.257 30.947c4.005-1.057 7.588-1.891 10.745-2.498l-3.592-31.003c4.192-1.021 7.205-1.728 9.038-2.115l-0.046-8.672zm381.96 25.655c-0.729-11.715-5.284-22.682-12.877-31.998-1.805 0.332-3.633 1.47-5.016 2.725 5.526 9.006 8.299 19.497 8.94 29.831 0.652 10.479-0.563 21.438-5.154 31 1.062 0.592 3.547 1.823 5.315 2.079 6.38-10.186 9.503-22.212 8.792-33.637zm-26.842 14.671c-2.691 0.168-4.67 2.41-4.514 4.957 0.165 2.619 2.396 4.453 5.088 4.287 2.619-0.164 4.682-2.266 4.519-4.885-0.159-2.546-2.473-4.521-5.093-4.359zm-0.462-7.419c2.62-0.164 4.673-2.41 4.514-4.955-0.162-2.621-2.469-4.451-5.088-4.287-2.691 0.166-4.68 2.265-4.519 4.884 0.16 2.547 2.401 4.524 5.093 4.358zm-128.84-37.086c-2.829 0.437-6.063 1.047-9.703 1.834l5.087 39.583c4.306-0.873 7.772-1.479 10.4-1.815-1.751-8.359-3.1-16.222-4.046-23.58-0.635-4.942-1.214-10.283-1.738-16.022zm53.436 7.816c-3.271-1.897-7.48-2.922-12.637-3.07-4.416-0.129-9.044 0.391-13.886 1.559l-1.098 37.826c2.108 0.379 4.666 0.613 7.668 0.699 7.664 0.223 14-1.289 19.008-4.537 5.69-3.651 8.64-8.975 8.843-15.969 0.225-7.769-2.407-13.272-7.898-16.508zm-6.866 24.614c-2.704 1.83-6.105 2.724-10.204 2.675l0.605-20.873c0.852-0.152 1.95-0.209 3.293-0.17 3.178 0.092 5.718 0.873 7.619 2.342 2.315 1.764 3.426 4.412 3.321 7.942-0.098 3.427-1.643 6.122-4.634 8.084zm46.755-17.307c3.874 0.614 7.962 1.799 12.263 3.555l4.654-9.728c-4.068-1.181-7.885-2.055-11.443-2.619-8.062-1.278-14.127-0.701-18.197 1.73-3.047 1.842-4.855 4.561-5.425 8.153-0.741 4.678 0.917 8.321 4.975 10.931 2.072 1.366 6.001 2.885 11.782 4.553 4.279 1.215 6.319 2.451 6.12 3.707-0.288 1.813-3.398 2.252-9.331 1.311-1.851-0.293-3.878-0.811-6.086-1.555-2.48-0.822-4.4-1.682-5.763-2.578l-4.647 9.353c3.416 1.688 7.446 2.897 12.088 3.635 6.176 0.979 11.432 0.668 15.764-0.937 4.594-1.668 7.211-4.526 7.854-8.575 0.687-4.326-1.03-7.712-5.151-10.152-1.705-0.986-5.68-2.422-11.928-4.306-4.298-1.326-6.322-2.773-6.072-4.345 0.355-2.269 3.205-2.98 8.543-2.133z" fill="#fff"/>
</svg>
