<?xml version="1.0" encoding="UTF-8"?>
<svg id="svg67" width="112.72mm" height="13.629mm" version="1.1" viewBox="0 0 112.72 13.629" xmlns="http://www.w3.org/2000/svg" xmlns:cc="http://creativecommons.org/ns#" xmlns:dc="http://purl.org/dc/elements/1.1/" xmlns:rdf="http://www.w3.org/1999/02/22-rdf-syntax-ns#">
 <metadata id="metadata71">
  <rdf:RDF>
   <cc:Work rdf:about="">
    <dc:format>image/svg+xml</dc:format>
    <dc:type rdf:resource="http://purl.org/dc/dcmitype/StillImage"/>
    <dc:title/>
   </cc:Work>
  </rdf:RDF>
 </metadata>
 <defs id="defs35">
  <linearGradient id="a" x1="1574.7" x2="2362" y1="-326.5" y2="-326.5" gradientTransform="matrix(.5 0 0 .5 153.05 -177.43)" gradientUnits="userSpaceOnUse">
   <stop id="stop2" stop-color="#025984" offset="0"/>
   <stop id="stop4" stop-color="#007ba3" offset="1"/>
  </linearGradient>
  <linearGradient id="b" x1="972.65" x2="1074.9" y1="-189.14" y2="-189.14" gradientTransform="translate(153.05,-117.43)" gradientUnits="userSpaceOnUse">
   <stop id="stop7" stop-color="#001932" stop-opacity=".196" offset="0"/>
   <stop id="stop9" stop-color="#00324b" stop-opacity="0" offset="1"/>
  </linearGradient>
  <linearGradient id="c" x1="787.33" x2="1574.7" y1="-326.5" y2="-326.5" gradientTransform="matrix(.5 0 0 .5 153.05 -177.43)" gradientUnits="userSpaceOnUse">
   <stop id="stop12" stop-color="#fdba0d" offset="0"/>
   <stop id="stop14" stop-color="#ffd502" offset="1"/>
  </linearGradient>
  <linearGradient id="d" x1="1831.1" x2="2235.4" y1="-193" y2="-193" gradientTransform="matrix(.5 0 0 .5 153.05 -177.43)" gradientUnits="userSpaceOnUse">
   <stop id="stop17" stop-color="#001932" stop-opacity=".392" offset="0"/>
   <stop id="stop19" stop-color="#00324b" stop-opacity=".196" offset="1"/>
  </linearGradient>
  <linearGradient id="e" x1="1433.9" x2="1433.9" y1="-120" y2="-464" gradientTransform="matrix(.5 0 0 .5 153.05 -177.43)" gradientUnits="userSpaceOnUse">
   <stop id="stop22" stop-color="#c80000" stop-opacity=".196" offset="0"/>
   <stop id="stop24" stop-color="#c80000" stop-opacity=".098" offset="1"/>
  </linearGradient>
  <linearGradient id="f" x1="127.25" x2="787.33" y1="-273.25" y2="-273.25" gradientTransform="matrix(.5 0 0 .5 153.05 -177.43)" gradientUnits="userSpaceOnUse">
   <stop id="stop27" stop-opacity=".196" offset="0"/>
   <stop id="stop29" stop-color="#640032" stop-opacity=".196" offset="1"/>
  </linearGradient>
  <filter id="g" x="-.007" y="-.053" width="1.014" height="1.105" color-interpolation-filters="sRGB">
   <feGaussianBlur id="feGaussianBlur32" stdDeviation="2.974"/>
  </filter>
 </defs>
 <g id="g902">
  <g id="g51" transform="translate(-.063 .18294)">
   <path id="path37" d="m52.027-0.183h25.982v13.629h-25.982z" fill="url(#a)"/>
   <path id="path39" d="m68.759 9.886-7.833-0.628 3.334-7.164z" fill="url(#b)" fill-rule="evenodd"/>
   <path id="path41" d="m0.063-0.183h25.982v13.629h-25.982z" fill="#e60d38"/>
   <path id="path43" d="m26.046-0.183h25.982v13.629h-25.982z" fill="url(#c)"/>
   <path id="path45" d="m64.258 2.094-7.534 8.943 0.783 2.409h19.64l-3.315-4.563-5.074 1.003-7.833-0.628z" fill="url(#d)" fill-rule="evenodd"/>
   <path id="path47" d="m47.382 2.094-16.893 2.154 1.457 9.198h20.081v-4.959z" fill="url(#e)"/>
   <path id="path49" d="m20.589 3.331-12.515 0.223-3.811 7.482 0.512 2.409h21.27v-2.617z" fill="url(#f)"/>
  </g>
  <path id="path53" d="m18.308 2.2769-0.071 1e-3h-14.038v8.942h6.623v-2.938h1.296l3.384 2.938h7.079l-4.343-3.1c1.535 0.041 2.832-1.342 2.807-2.942-0.023-1.565-1.255-2.896-2.736-2.901zm12.118 0v2.154h5.015v6.789h6.958v-6.789h4.919v-2.154zm26.235 0v8.943h17.107v-2.154h-9.573v-6.789zm-45.838 2.117h3.1c0.429 0 0.82 0.418 0.82 0.934s-0.39 0.933-0.819 0.934l-3.1 4e-3v-1.872z" fill-opacity=".196" fill-rule="evenodd" filter="url(#g)"/>
  <path id="path55" d="m18.308 2.2769-0.071 1e-3h-14.038v8.942h6.623v-2.938h1.296l3.384 2.938h7.079l-4.343-3.1c1.535 0.041 2.832-1.342 2.807-2.942-0.023-1.565-1.255-2.896-2.736-2.901zm12.118 0v2.154h5.015v6.789h6.958v-6.789h4.919v-2.154zm26.235 0v8.943h17.107v-2.154h-9.573v-6.789zm-45.838 2.117h3.1c0.429 0 0.82 0.418 0.82 0.934s-0.39 0.933-0.819 0.934l-3.1 4e-3v-1.872z" fill="#fff" fill-rule="evenodd"/>
 </g>
 <g id="g63" transform="translate(-.063 .18294)" fill="#fff" style="font-feature-settings:normal;font-variant-caps:normal;font-variant-ligatures:normal;font-variant-numeric:normal">
  <path id="path57" d="m90.56 1.187h1.343v6.422q0 1.676-0.346 2.661-0.346 0.986-1.253 1.607-0.9 0.614-2.367 0.614-1.426 0-2.333-0.538t-1.294-1.554q-0.388-1.024-0.388-2.79v-6.422h1.343v6.414q0 1.448 0.242 2.138 0.249 0.682 0.845 1.054 0.602 0.371 1.468 0.371 1.481 0 2.111-0.735t0.63-2.828z"/>
  <path id="path59" d="m94.189 12.301v-11.115h1.343v4.564h5.275v-4.564h1.343v11.115h-1.343v-5.239h-5.275v5.239z"/>
  <path id="path61" d="m104.39 12.301v-11.115h3.496q1.184 0 1.807 0.159 0.872 0.22 1.488 0.796 0.803 0.743 1.198 1.903 0.401 1.152 0.401 2.638 0 1.266-0.27 2.244t-0.692 1.622q-0.422 0.637-0.928 1.008-0.498 0.364-1.211 0.553-0.706 0.19-1.627 0.19zm1.343-1.312h2.167q1.004 0 1.571-0.205 0.575-0.205 0.914-0.576 0.478-0.523 0.741-1.403 0.27-0.887 0.27-2.146 0-1.744-0.526-2.676-0.519-0.94-1.267-1.259-0.54-0.227-1.738-0.227h-2.132z"/>
 </g>
</svg>
