<svg width="3042.5pt" height="872.06pt" version="1.1" viewBox="0 0 3042.5 872.06" xmlns="http://www.w3.org/2000/svg">
 <defs>
  <linearGradient id="n" x1="787.35" x2="1181" y1="-223.25" y2="-223.25" gradientUnits="userSpaceOnUse">
   <stop stop-color="#025984" offset="0"/>
   <stop stop-color="#007ba3" offset="1"/>
  </linearGradient>
  <linearGradient id="i" x1="972.65" x2="1074.9" y1="-189.14" y2="-189.14" gradientUnits="userSpaceOnUse">
   <stop stop-color="#001932" stop-opacity=".19608" offset="0"/>
   <stop stop-color="#00324b" stop-opacity="0" offset="1"/>
  </linearGradient>
  <linearGradient id="m" x1="393.66" x2="787.35" y1="-223.25" y2="-223.25" gradientUnits="userSpaceOnUse">
   <stop stop-color="#fdba0d" offset="0"/>
   <stop stop-color="#ffd502" offset="1"/>
  </linearGradient>
  <linearGradient id="l" x1="915.55" x2="1117.7" y1="-156.5" y2="-156.5" gradientUnits="userSpaceOnUse">
   <stop stop-color="#001932" stop-opacity=".39216" offset="0"/>
   <stop stop-color="#00324b" stop-opacity=".19608" offset="1"/>
  </linearGradient>
  <linearGradient id="k" x1="716.95" x2="716.95" y1="-120" y2="-292" gradientUnits="userSpaceOnUse">
   <stop stop-color="#c80000" stop-opacity=".19608" offset="0"/>
   <stop stop-color="#c80000" stop-opacity=".098039" offset="1"/>
  </linearGradient>
  <linearGradient id="j" x1="63.625" x2="393.66" y1="-196.62" y2="-196.62" gradientUnits="userSpaceOnUse">
   <stop stop-opacity=".19608" offset="0"/>
   <stop stop-color="#640032" stop-opacity=".19608" offset="1"/>
  </linearGradient>
  <filter id="h" x="-.006771" y="-.052675" width="1.0135" height="1.1053" color-interpolation-filters="sRGB">
   <feGaussianBlur stdDeviation="2.9739237"/>
  </filter>
 </defs>
 <g transform="matrix(14.374 0 0 14.374 1765.7 -1873.3)">
  <g transform="matrix(.17923 0 0 .17923 -122.84 188.85)">
   <path d="m787.33-326.5h393.67v206.5h-393.67z" fill="url(#n)"/>
   <path d="m1040.8-173.93-118.68-9.5174 50.509-108.55z" fill="url(#i)" fill-rule="evenodd"/>
   <path d="m0-326.5h393.67v206.5h-393.67z" fill="#e60d38"/>
   <path d="m393.67-326.5h393.67v206.5h-393.67z" fill="url(#m)"/>
   <path d="m972.65-292-114.15 135.5 11.859 36.5h297.57l-50.23-69.136-76.879 15.203-118.68-9.5174z" fill="url(#l)" fill-rule="evenodd"/>
   <path d="m716.95-292-255.95 32.635 22.073 139.37h304.26v-75.131z" fill="url(#k)"/>
   <path d="m310.99-273.25-189.62 3.3808-57.748 113.36 7.7588 36.505h322.28v-39.656z" fill="url(#j)"/>
   <path d="m277.39-292c-0.35607-1e-3 -0.71339 3e-3 -1.0713 0.0127h-212.7v135.48h100.35v-44.513h19.632l51.272 44.518h107.25l-65.803-46.966c23.253 0.62472 42.903-20.326 42.524-44.583-0.34782-23.717-19.021-43.886-41.453-43.951zm183.61 0v32.635h75.988v102.87h105.43v-102.87h74.532v-32.635zm397.5 0v135.5h259.2v-32.636h-145.05v-102.86zm-694.52 32.075h46.967c6.5072 0 12.423 6.3359 12.423 14.151 3e-5 7.8114-5.9103 14.143-12.414 14.151l-46.976 0.0606v-28.363z" fill-opacity=".19608" fill-rule="evenodd" filter="url(#h)"/>
   <path d="m277.39-292c-0.35607-1e-3 -0.71339 3e-3 -1.0713 0.0127h-212.7v135.48h100.35v-44.513h19.632l51.272 44.518h107.25l-65.803-46.966c23.253 0.62472 42.903-20.326 42.524-44.583-0.34782-23.717-19.021-43.886-41.453-43.951zm183.61 0v32.635h75.988v102.87h105.43v-102.87h74.532v-32.635zm397.5 0v135.5h259.2v-32.636h-145.05v-102.86zm-694.52 32.075h46.967c6.5072 0 12.423 6.3359 12.423 14.151 3e-5 7.8114-5.9103 14.143-12.414 14.151l-46.976 0.0606v-28.363z" fill="#fff" fill-rule="evenodd"/>
  </g>
 </g>
 <g transform="translate(-3.6855 -87.934)">
  <path d="m1387.4 762.57c25.11-4.06 51.145-0.6 74.505 9.4v36.83c-19.7-9.9-42.155-16.13-64.315-13.06-7.89 1.2-16.43 5.01-19.8 12.74-2.09 5.45-2.65 11.57-1.39 17.29 1.49 5.71 6.89 9.24 12.29 10.74 11.2 3.27 23 3.41 34.34 6.01 12.05 2.54 24.54 6.05 33.88 14.52 6.72 5.87 11.11 14.13 12.98 22.8 2.7 12.89 2.11 26.44-1.64 39.06-2.62 9.01-7.93 17.13-14.79 23.48-12.44 10.94-28.96 16.32-45.33 17.21-13.31 1.22-26.68-0.44-39.71-3.09-9.74-2.12-19.365-4.6-28.485-8.67v-35.66c9.31 5.02 19.595 8.27 29.905 10.52 12.65 2.79 25.75 4.13 38.66 2.57 7.67-1.29 15.6-4.11 20.79-10.17 4.62-5.17 5.91-12.39 5.95-19.1-0.1-5.45-1.62-11.58-6.48-14.72-8.21-5.35-18.32-5.99-27.76-7.32-10.89-1.59-21.81-3.68-32.08-7.74-8.68-3.5-17.08-8.86-22.07-16.99-5.7-8.91-6.94-19.81-6.98-30.15 0.49-11.92 2.82-24.33 9.98-34.15 8.77-12.21 22.96-19.72 37.55-22.35z"/>
  <path d="m3.6855 764.34h682.69v20.275h-682.69z"/>
  <path transform="scale(.75)" d="m3151.3 1019.1v27.035h910.25v-27.035z" stroke-width="1.3333"/>
  <path transform="scale(.75)" d="m1092.3 1020.1v254.57h47.447v-108.97h87.193v108.97h47.447v-254.57h-47.447v100.25h-87.193v-100.25z" stroke-width="1.3333"/>
  <path d="m1092.8 765.06h119.04v33.89h-83.56v41.245h75.73v34.025h-75.73v47.6h83.56v34.115h-119.04z"/>
  <path d="m2114 765.04h27.88l76.33 118.8v-118.8h34.33v190.86h-28.01l-76.25-118.98v118.98h-34.28z"/>
  <path d="m1861.9 765.06h119.04v33.89h-83.56v41.245h75.73v34.025h-75.73v47.6h83.56v34.115h-119.04z"/>
  <path d="m1645.8 762.57c25.11-4.06 51.145-0.6 74.505 9.4v36.83c-19.7-9.9-42.155-16.13-64.315-13.06-7.89 1.2-16.43 5.01-19.8 12.74-2.09 5.45-2.65 11.57-1.39 17.29 1.49 5.71 6.89 9.24 12.29 10.74 11.2 3.27 23 3.41 34.34 6.01 12.05 2.54 24.54 6.05 33.88 14.52 6.72 5.87 11.11 14.13 12.98 22.8 2.7 12.89 2.11 26.44-1.64 39.06-2.62 9.01-7.93 17.13-14.79 23.48-12.44 10.94-28.96 16.32-45.33 17.21-13.31 1.22-26.68-0.44-39.71-3.09-9.74-2.12-19.365-4.6-28.485-8.67v-35.66c9.31 5.02 19.595 8.27 29.905 10.52 12.65 2.79 25.75 4.13 38.66 2.57 7.67-1.29 15.6-4.11 20.79-10.17 4.62-5.17 5.91-12.39 5.95-19.1-0.1-5.45-1.62-11.58-6.48-14.72-8.21-5.35-18.32-5.99-27.76-7.32-10.89-1.59-21.81-3.68-32.08-7.74-8.68-3.5-17.08-8.86-22.07-16.99-5.7-8.91-6.94-19.81-6.98-30.15 0.49-11.92 2.82-24.33 9.98-34.15 8.77-12.21 22.96-19.72 37.55-22.35z"/>
 </g>
</svg>
