<svg width="917.15" height="81.416" version="1.1" xmlns="http://www.w3.org/2000/svg">
 <path d="m330.94 81.416h150.46v-81.416h-150.46z" fill="#6e0ced" fill-rule="evenodd" stroke-width="3.5398"/>
 <path d="m165.45 81.416h150.46v-81.416h-150.46z" fill="#ec33ec" fill-rule="evenodd" stroke-width="3.5398"/>
 <path d="m0 81.416h150.42v-81.416h-150.42z" fill="#9629bc" fill-rule="evenodd" stroke-width="3.5398"/>
 <g transform="matrix(3.5398 0 0 3.5398 -42.478 -403.54)" fill="#fffffe" fill-rule="evenodd">
  <path d="m118.7 119.29h2.951v9.976h13.135v2.45h-16.085v-12.426"/>
  <path d="m78.516 121.74h-7.471v-2.45h17.895v2.45h-7.472v9.976h-2.952v-9.976"/>
  <path d="m35.004 125.04c1.827 0 2.712-0.568 2.712-1.722 0-1.153-0.885-1.704-2.712-1.704h-7.988v3.426zm-10.94-5.751h11.328c3.45 0 5.368 1.49 5.368 3.994 0 2.148-1.439 3.586-3.892 3.923l5.552 4.509h-4.26l-5.22-4.35h-5.923v4.35h-2.951v-12.426z"/>
 </g>
 <path d="m531.46 40.329c2.6442 0 4.6654-0.63716 6.053-1.9115 1.3911-1.2743 2.0849-3.1221 2.0849-5.5433 0-2.3009-0.70795-4.0743-2.1168-5.3274-1.4124-1.2531-3.4194-1.8761-6.0212-1.8761h-11.657v14.655h11.657zm-19.989 22.177v-43.858h21.097c3.0796 0 5.7911 0.59822 8.138 1.7876a13.044 13.044 0 0 1 5.4336 5.0123c1.2814 2.1522 1.9221 4.6265 1.9221 7.4265 0 2.8389-0.64071 5.3557-1.9221 7.5468-1.2779 2.1947-3.0902 3.8938-5.4336 5.1079-2.3469 1.2106-5.0619 1.8159-8.1415 1.8159h-12.761v15.161zm57.684-35.773-7.2247 19.108h14.715l-7.2283-19.108zm-4.8141-8.0813h10.088l17.582 43.228v0.62654h-9.115l-3.646-9.6459h-19.989l-3.646 9.6459h-8.7256v-0.62654zm35.805 40.63c-3.469-2.6088-5.3345-6.2761-5.5964-10.995h8.3327c0.47786 5.1787 4.538 7.7663 12.177 7.7663 3.2955 0 5.784-0.50974 7.4548-1.5327 1.6708-1.0265 2.5062-2.4778 2.5062-4.3539 0-1.6283-0.53096-2.8743-1.5929-3.7274-1.0619-0.85663-2.984-1.5363-5.7592-2.0389l-7.8159-1.4407c-4.7787-0.92035-8.2725-2.3787-10.485-4.3858-2.2159-2.0035-3.3203-4.7185-3.3203-8.1415 0-3.8442 1.5929-6.8849 4.7893-9.1185 3.1858-2.2336 7.5822-3.3522 13.182-3.3522 3.646 0 6.8566 0.59468 9.6389 1.7876 2.7752 1.1894 4.9451 2.8389 6.5097 4.9486 1.5575 2.1097 2.3858 4.5203 2.4708 7.2353h-8.3327c-0.21946-2.2124-1.2354-3.9044-3.0584-5.0761-1.823-1.1681-4.4531-1.7522-7.8831-1.7522-5.9433 0-8.9203 1.7734-8.9203 5.3238 0 1.338 0.55575 2.4354 1.6637 3.292 1.108 0.85309 2.8743 1.4938 5.3097 1.9115l7.4194 1.3097c5.2106 0.96636 8.945 2.4672 11.2 4.5132 2.2548 2.0495 3.384 4.8884 3.384 8.5238 0 4.177-1.5929 7.4229-4.7858 9.7415-3.1858 2.3186-7.8229 3.4761-13.897 3.4761-6.2548 0-11.115-1.3062-14.591-3.915m44.439 0c-3.4796-2.6088-5.3451-6.2761-5.6-10.995h8.3291c0.47433 5.1787 4.538 7.7663 12.177 7.7663 3.2991 0 5.784-0.50974 7.4548-1.5327 1.6743-1.0265 2.5062-2.4778 2.5062-4.3539 0-1.6283-0.53097-2.8743-1.5929-3.7274-1.0619-0.85663-2.984-1.5363-5.7628-2.0389l-7.8123-1.4407c-4.7787-0.92035-8.2725-2.3787-10.485-4.3858-2.2088-2.0035-3.3168-4.7185-3.3168-8.1415 0-3.8442 1.5929-6.8849 4.7823-9.1185s7.5858-3.3522 13.186-3.3522c3.646 0 6.8601 0.59468 9.6353 1.7876 2.7787 1.1894 4.9522 2.8389 6.5132 4.9486 1.5575 2.1097 2.3858 4.5203 2.4708 7.2353h-8.3362c-0.21239-2.2124-1.2318-3.9044-3.0548-5.0761-1.8265-1.1681-4.4531-1.7522-7.8796-1.7522-5.9468 0-8.9203 1.7734-8.9203 5.3238 0 1.338 0.55221 2.4354 1.6602 3.292 1.108 0.85309 2.8743 1.4938 5.3062 1.9115l7.423 1.3097c5.207 0.96636 8.9415 2.4672 11.196 4.5132 2.2619 2.0495 3.384 4.8884 3.384 8.5238 0 4.177-1.5929 7.4229-4.7823 9.7415s-7.8229 3.4761-13.901 3.4761c-6.2513 0-11.111-1.3062-14.584-3.915m43.366 3.2248h8.3291v-43.858h-8.3291zm51.108-10.619c2.6018-2.7752 3.9044-6.5486 3.9044-11.306 0-4.7646-1.3026-8.5309-3.9044-11.31-2.6053-2.7787-6.3185-4.1663-11.136-4.1663-4.8141 0-8.5238 1.3805-11.129 4.1345-2.6053 2.7575-3.9079 6.538-3.9079 11.341 0 4.761 1.3026 8.5309 3.9079 11.306 2.6053 2.7787 6.315 4.1663 11.129 4.1663 4.8177 0 8.5309-1.3876 11.136-4.1663zm-23.635 8.4601a19.695 19.695 0 0 1-8.1698-7.9893c-1.8867-3.423-2.8318-7.3521-2.8318-11.777 0-4.4283 0.94512-8.3539 2.8318-11.78a19.71 19.71 0 0 1 8.1698-7.9893c3.561-1.8973 7.7274-2.8495 12.499-2.8495 4.7327 0 8.8707 0.9522 12.407 2.8495a19.982 19.982 0 0 1 8.1698 7.9893c1.9115 3.4265 2.8637 7.3521 2.8637 11.78 0 4.4247-0.95574 8.3539-2.8637 11.777a19.964 19.964 0 0 1-8.1698 7.9893c-3.5398 1.9009-7.6743 2.8495-12.407 2.8495-4.7716 0-8.938-0.94866-12.499-2.8495zm52.608 2.1593h-8.3327v-43.858h9.6353l22.138 31.766h0.2584v-31.763h8.2725v43.858h-9.5751l-22.138-31.578h-0.25841v31.575" fill-rule="evenodd" stroke-width="3.5398"/>
 <g font-family="'RTL United Text'" font-size="40px" font-weight="bold" stroke-width="1.6466">
  <path d="m856.36 36.444v-17.793h8.5167v43.857h-8.5167v-19.172h-22.226v19.172h-8.5167v-43.857h8.5167v17.793z" style="white-space:pre"/>
  <path d="m875.95 62.507v-43.857h17.864q6.9934 0 12.256 2.7567 5.2623 2.6941 8.1705 7.6436t2.9081 11.528q0 6.4532-2.9774 11.465-2.9081 4.9495-8.2397 7.7062-5.2623 2.7567-12.117 2.7567zm17.241-6.8918q7.3396 0 11.286-3.9471 4.016-3.9471 4.016-11.089 0-7.205-4.016-11.089-3.9468-3.9471-11.286-3.9471h-8.7244v30.073z" style="white-space:pre"/>
 </g>
</svg>
