<svg width="1007" height="265.23" version="1.1" xmlns="http://www.w3.org/2000/svg">
 <g transform="translate(0 591.07)" stroke-width="3.9604">
  <path d="m549.98-452.46h250.02v-138.61h-250.02z" fill="#008d49"/>
  <path d="m274.99-452.46h250.02v-138.61h-250.02z" fill="#edc00c"/>
  <path d="m0-452.46h250.02v-138.61h-250.02z" fill="#0caaed"/>
  <g transform="translate(0,-591.07)" fill="#fdfeff" fill-rule="evenodd">
   <path d="m627.68 31.861h17.362v60.127h77.263v14.76h-94.626v-74.887"/>
   <path d="m391.32 46.626h-43.952v-14.76h105.26v14.76h-43.949v60.127h-17.362v-60.127"/>
   <path d="m135.37 66.523c10.745 0 15.952-3.4218 15.952-10.376s-5.2079-10.269-15.952-10.269h-46.986v20.646zm-64.349-34.661h66.63c20.293 0 31.576 8.9901 31.576 24.071 0 12.947-8.4634 21.612-22.895 23.644l32.661 27.172h-25.069l-30.705-26.21h-34.836v26.21h-17.362z"/>
  </g>
 </g>
 <path d="m264.63 264.02h-55.761v-77.003h14.363v64.681h41.398v12.322m12.345 0h14.358v-77.003h-14.358zm72.474 0h-16.153l-30.408-75.905v-1.0978h15.598l22.661 60.501h0.45743l22.316-60.501h15.936v1.0978l-30.408 75.905m42.187 0h14.363v-77.003h-14.363zm51.496 0h-14.363v-77.003h16.605l38.15 55.772h0.45744v-55.772h14.238v77.003h-16.484l-38.15-55.442h-0.45745v55.442m89.875-3.6251a32.964 32.964 0 0 1-13.746-13.809c-3.1792-5.9809-4.7631-12.962-4.7631-20.956 0-8.068 1.5838-15.09 4.7631-21.065a33.381 33.381 0 0 1 13.694-13.866c5.941-3.2591 12.991-4.8945 21.144-4.8945 6.73 0 12.722 1.1207 17.953 3.3564 5.2376 2.2357 9.4288 5.392 12.562 9.4574 3.1448 4.0712 5.0088 8.7885 5.6149 14.14h-14.472a15.821 15.821 0 0 0-6.85-10.561c-3.7395-2.5731-8.6741-3.8538-14.809-3.8538-8.0794 0-14.266 2.4016-18.566 7.2046-4.2999 4.803-6.4556 11.499-6.4556 20.081 0 8.5768 2.1556 15.233 6.4613 19.961 4.2941 4.7345 10.521 7.0959 18.68 7.0959 6.5756 0 11.813-1.5954 15.707-4.7801 3.8881-3.1906 6.1296-7.5019 6.73-12.928h-19.64v-12.213h34.113v7.5934c0 6.9702-1.4867 13.071-4.437 18.315-2.9562 5.2433-7.216 9.3145-12.785 12.213-5.575 2.8933-12.139 4.3456-19.686 4.3456-8.1595 0-15.227-1.6181-21.214-4.8432" fill="#fff" fill-rule="evenodd" stroke-width="5.7179"/>
 <g transform="translate(-82.652 .00015152)" fill="#fff" font-family="'RTL United Text'" font-size="40px" font-weight="bold" stroke-width="2.7717">
  <path d="m988.52 62.034v-30.282h14.179v74.638h-14.179v-32.628h-37.003v32.628h-14.179v-74.638h14.179v30.282z" style="white-space:pre"/>
  <path d="m1021.1 106.39v-74.638h29.741q11.643 0 20.404 4.6916 8.7609 4.5849 13.602 13.008t4.8416 19.619q0 10.982-4.9569 19.513-4.8415 8.4235-13.718 13.115-8.761 4.6916-20.173 4.6916zm28.704-11.729q12.219 0 18.79-6.7174 6.6859-6.7174 6.6859-18.873 0-12.262-6.6859-18.873-6.5707-6.7174-18.79-6.7174h-14.525v51.181z" style="white-space:pre"/>
 </g>
</svg>
