<svg width="800" height="138.61" version="1.1" xmlns="http://www.w3.org/2000/svg">
 <path d="m549.98 138.61h250.02v-138.61h-250.02z" fill="#ff8a00" stroke-width="3.9604"/>
 <path d="m274.99 138.61h250.02v-138.61h-250.02z" fill="#d4000d" stroke-width="3.9604"/>
 <path d="m0 138.61h250.02v-138.61h-250.02z" fill="#0c75ed" stroke-width="3.9604"/>
 <g fill="#fdfeff" fill-rule="evenodd" stroke-width="3.9604">
  <path d="m627.68 31.861h17.362v60.127h77.263v14.76h-94.626v-74.887"/>
  <path d="m391.32 46.626h-43.952v-14.76h105.26v14.76h-43.949v60.127h-17.362v-60.127"/>
  <path d="m135.37 66.523c10.745 0 15.952-3.4218 15.952-10.376s-5.2079-10.269-15.952-10.269h-46.986v20.646zm-64.349-34.661h66.63c20.293 0 31.576 8.9901 31.576 24.071 0 12.947-8.4634 21.612-22.895 23.644l32.661 27.172h-25.069l-30.705-26.21h-34.836v26.21h-17.362z"/>
 </g>
</svg>
