<svg width="800" height="312.71" version="1.1" viewBox="0 0 211.67 82.732" xmlns="http://www.w3.org/2000/svg" xmlns:xlink="http://www.w3.org/1999/xlink">
 <defs>
  <linearGradient id="ab" x1="787.35" x2="1181" y1="-223.25" y2="-223.25" gradientUnits="userSpaceOnUse">
   <stop stop-color="#025984" offset="0"/>
   <stop stop-color="#007ba3" offset="1"/>
  </linearGradient>
  <linearGradient id="aa" x1="972.65" x2="1074.9" y1="-189.14" y2="-189.14" gradientUnits="userSpaceOnUse">
   <stop stop-color="#001932" stop-opacity=".19608" offset="0"/>
   <stop stop-color="#00324b" stop-opacity="0" offset="1"/>
  </linearGradient>
  <linearGradient id="z" x1="393.66" x2="787.35" y1="-223.25" y2="-223.25" gradientUnits="userSpaceOnUse">
   <stop stop-color="#fdba0d" offset="0"/>
   <stop stop-color="#ffd502" offset="1"/>
  </linearGradient>
  <linearGradient id="y" x1="915.55" x2="1117.7" y1="-156.5" y2="-156.5" gradientUnits="userSpaceOnUse">
   <stop stop-color="#001932" stop-opacity=".39216" offset="0"/>
   <stop stop-color="#00324b" stop-opacity=".19608" offset="1"/>
  </linearGradient>
  <linearGradient id="x" x1="716.95" x2="716.95" y1="-120" y2="-292" gradientUnits="userSpaceOnUse">
   <stop stop-color="#c80000" stop-opacity=".19608" offset="0"/>
   <stop stop-color="#c80000" stop-opacity=".098039" offset="1"/>
  </linearGradient>
  <linearGradient id="w" x1="63.625" x2="393.66" y1="-196.62" y2="-196.62" gradientUnits="userSpaceOnUse">
   <stop stop-opacity=".19608" offset="0"/>
   <stop stop-color="#640032" stop-opacity=".19608" offset="1"/>
  </linearGradient>
  <filter id="v" x="-.006771" y="-.052675" width="1.0135" height="1.1053" color-interpolation-filters="sRGB">
   <feGaussianBlur stdDeviation="2.9739237"/>
  </filter>
  <linearGradient id="u" x1="241.43" x2="241.43" y1="141.61" y2=".0481" gradientTransform="matrix(.23143 0 0 .23143 -180.74 117.4)" gradientUnits="userSpaceOnUse">
   <stop stop-color="#8b8787" offset="0"/>
   <stop stop-color="#b2b2b2" offset=".80293"/>
   <stop stop-color="#8b8787" offset="1"/>
  </linearGradient>
  <linearGradient id="t" x1="175.58" x2="175.58" y1="141.61" y2="-.051045" gradientTransform="matrix(.23143 0 0 .23143 -180.74 117.4)" gradientUnits="userSpaceOnUse">
   <stop stop-color="#005eaa" offset="0"/>
   <stop stop-color="#4b8cd0" offset=".80293"/>
   <stop stop-color="#005eaa" offset="1"/>
  </linearGradient>
  <clipPath id="l">
   <use width="100%" height="100%" xlink:href="#SVGID_11_"/>
  </clipPath>
  <clipPath id="k">
   <use width="100%" height="100%" xlink:href="#SVGID_13_"/>
  </clipPath>
  <clipPath id="j">
   <use width="100%" height="100%" xlink:href="#SVGID_71_"/>
  </clipPath>
  <clipPath id="s">
   <path width="100%" height="100%" d="m-97 223.2h914.7v278.7h-914.7z"/>
  </clipPath>
  <clipPath id="r">
   <path width="100%" height="100%" d="m-97 223.2h914.7v278.7h-914.7z"/>
  </clipPath>
  <clipPath id="q">
   <path width="100%" height="100%" d="m-97 223.2h914.7v278.7h-914.7z"/>
  </clipPath>
  <clipPath id="p">
   <path width="100%" height="100%" d="m-97 223.2h914.7v278.7h-914.7z"/>
  </clipPath>
  <clipPath id="o">
   <path width="100%" height="100%" d="m-97 223.2h914.7v278.7h-914.7z"/>
  </clipPath>
  <clipPath id="n">
   <path width="100%" height="100%" d="m-97 223.2h914.7v278.7h-914.7z"/>
  </clipPath>
  <clipPath id="m">
   <path width="100%" height="100%" d="m-97 223.2h914.7v278.7h-914.7z"/>
  </clipPath>
 </defs>
 <g transform="matrix(.17923 0 0 .17923 .00022835 58.515)">
  <path d="m787.33-326.5h393.67v206.5h-393.67z" fill="url(#ab)"/>
  <path d="m1040.8-173.93-118.68-9.5174 50.509-108.55z" fill="url(#aa)" fill-rule="evenodd"/>
  <path d="m0-326.5h393.67v206.5h-393.67z" fill="#e60d38"/>
  <path d="m393.67-326.5h393.67v206.5h-393.67z" fill="url(#z)"/>
  <path d="m972.65-292-114.15 135.5 11.859 36.5h297.57l-50.23-69.136-76.879 15.203-118.68-9.5174z" fill="url(#y)" fill-rule="evenodd"/>
  <path d="m716.95-292-255.95 32.635 22.073 139.37h304.26v-75.131z" fill="url(#x)"/>
  <path d="m310.99-273.25-189.62 3.3808-57.748 113.36 7.7588 36.505h322.28v-39.656z" fill="url(#w)"/>
  <g fill-rule="evenodd">
   <path d="m277.39-292c-0.35607-1e-3 -0.71339 3e-3 -1.0713 0.0127h-212.7v135.48h100.35v-44.513h19.632l51.272 44.518h107.25l-65.803-46.966c23.253 0.62472 42.903-20.326 42.524-44.583-0.34782-23.717-19.021-43.886-41.453-43.951zm183.61 0v32.635h75.988v102.87h105.43v-102.87h74.532v-32.635zm397.5 0v135.5h259.2v-32.636h-145.05v-102.86zm-694.52 32.075h46.967c6.5072 0 12.423 6.3359 12.423 14.151 3e-5 7.8114-5.9103 14.143-12.414 14.151l-46.976 0.0606v-28.363z" fill-opacity=".19608" filter="url(#v)"/>
   <path d="m277.39-292c-0.35607-1e-3 -0.71339 3e-3 -1.0713 0.0127h-212.7v135.48h100.35v-44.513h19.632l51.272 44.518h107.25l-65.803-46.966c23.253 0.62472 42.903-20.326 42.524-44.583-0.34782-23.717-19.021-43.886-41.453-43.951zm183.61 0v32.635h75.988v102.87h105.43v-102.87h74.532v-32.635zm397.5 0v135.5h259.2v-32.636h-145.05v-102.86zm-694.52 32.075h46.967c6.5072 0 12.423 6.3359 12.423 14.151 3e-5 7.8114-5.9103 14.143-12.414 14.151l-46.976 0.0606v-28.363z" fill="#fff"/>
  </g>
 </g>
 <path class="st5" transform="matrix(.26459 0 0 .26459 -206.62 -109.71)" d="m443.6 343.9c-0.3-1-1.4-1.5-2.4-1.2l-4.3 1.5v-5.1c0-1.1-0.9-1.9-1.9-1.9-1.1 0-1.9 0.9-1.9 1.9v5l-4.4-1.5c-1-0.3-2.1 0.2-2.4 1.2s0.2 2.1 1.2 2.4l4.4 1.5-2.9 4c-0.6 0.9-0.4 2.1 0.4 2.7 0.9 0.6 2.1 0.4 2.7-0.4l2.9-4 2.8 4c0.6 0.9 1.8 1.1 2.7 0.4 0.9-0.6 1.1-1.8 0.4-2.7l-2.8-3.9 4.4-1.5c0.9-0.3 1.4-1.4 1.1-2.4" clip-path="url(#k)" fill="#005eaa"/>
 <g transform="matrix(.26459 0 0 .26459 .00022835 -.0076001)">
  <path class="st4" transform="translate(-780.93 -414.62)" d="m366.8 388c-1.6 0-2.9-0.1-3.7-0.5-1.3-0.5-2-1.4-2-2.8v-8.6h2.6v8.6c0 0.5 0.4 0.8 1.3 0.9 0.4 0.1 1 0.1 1.9 0.1h6.4v2.2h-6.5z" clip-path="url(#l)" fill="#005eaa"/>
  <rect class="st4" transform="translate(-780.93 -414.62)" x="376.9" y="376.1" width="2.6" height="11.9" clip-path="url(#l)" fill="#005eaa"/>
  <path class="st4" transform="translate(-780.93 -414.62)" d="m392.9 387.2c-0.4 0.5-0.9 0.8-1.5 0.8s-1.1-0.3-1.4-0.8l-7.6-11h2.9l6.2 8.8 6.1-8.8h3.1z" clip-path="url(#l)" fill="#005eaa"/>
  <path class="st5" transform="translate(-780.93 -414.62)" d="m407.4 388c-1.2 0-2.3-0.2-3.1-0.6-1.1-0.6-1.7-1.4-1.7-2.4v-5.6c0-1.1 0.6-2 1.8-2.5 0.9-0.4 2-0.6 3.3-0.6h8.1v2.2h-8c-1.7 0-2.6 0.3-2.6 0.9v1.7h10.6v2.2h-10.6v1.6c0 0.6 0.8 0.9 2.3 0.9h8.2v2.2z" clip-path="url(#k)" fill="#005eaa"/>
  <path class="st6" transform="translate(-780.93 -414.62)" d="m422.8 372.1h-116.9v-25.8h113.7c1.8 0 3.2 1.4 3.2 3.2v22.6" clip-path="url(#k)" fill="#8b8787"/>
  <path class="st5" transform="translate(-780.93 -414.62)" d="m309 372.1h-32v-22.6c0-1.8 1.4-3.2 3.2-3.2h40.8l-12 25.8" clip-path="url(#k)" fill="#005eaa"/>
  <polygon class="st21" transform="translate(-780.93 -414.62)" points="289 366.4 290.9 366.4 290.9 354.4 297.1 354.4 302.7 366.4 305.2 366.4 311.9 352.7 309.9 352.7 304.1 364.8 298.5 352.7 298.4 352.7 296.3 352.7 282.9 352.7 282.9 354.4 289 354.4" clip-path="url(#j)" fill="#fff"/>
  <path class="st21" transform="translate(-780.93 -414.62)" d="m322.2 366.4v-13.8h6.9c1 0 1.8 0 2.4 0.1 0.5 0.1 1 0.2 1.4 0.4 0.5 0.3 0.9 0.7 1.2 1.1 0.3 0.5 0.4 1 0.4 1.6 0 0.8-0.2 1.5-0.7 2s-1.2 0.9-2.2 1.1c1.1 0.1 1.9 0.5 2.5 1.1s0.9 1.4 0.9 2.3c0 0.5-0.1 1.1-0.3 1.5-0.2 0.5-0.5 0.9-0.9 1.2-0.5 0.4-1 0.7-1.7 0.9s-1.6 0.3-2.8 0.3h-7.1zm1.9-12.2v4.2h4.4c1.4 0 2.3-0.2 2.9-0.5s0.9-0.9 0.9-1.6c0-0.8-0.3-1.3-0.8-1.6s-1.5-0.5-2.9-0.5zm0 10.6h5.1c1.3 0 2.2-0.2 2.8-0.6 0.5-0.4 0.8-1 0.8-1.8 0-0.9-0.3-1.6-0.9-1.9-0.6-0.4-1.6-0.6-3.1-0.6h-4.7z" clip-path="url(#j)" fill="#fff"/>
  <path class="st21" transform="translate(-780.93 -414.62)" d="m336.6 366.4 7.5-13.8h2.5l7.3 13.8h-2.3l-1.9-3.7h-8.9l-2 3.7zm5-5.2h7.3l-3.5-6.9z" clip-path="url(#j)" fill="#fff"/>
  <polygon class="st21" transform="translate(-780.93 -414.62)" points="361.4 366.4 359.3 366.4 359.3 360.7 352.4 352.7 355.1 352.7 360.4 358.9 365.5 352.7 368.1 352.7 361.4 360.5" clip-path="url(#j)" fill="#fff"/>
  <polygon class="st21" transform="translate(-780.93 -414.62)" points="372.5 360 372.5 364.7 381.5 364.7 381.5 366.4 370.5 366.4 370.5 352.7 381.3 352.7 381.3 354.3 372.5 354.3 372.5 358.3 380.6 358.3 380.6 360" clip-path="url(#j)" fill="#fff"/>
  <path class="st21" transform="translate(-780.93 -414.62)" d="m385.5 366.4v-13.8h6.5c1.2 0 2.2 0.1 2.8 0.2s1.1 0.3 1.5 0.5c0.5 0.3 0.8 0.7 1.1 1.2s0.4 1.1 0.4 1.8c0 0.9-0.3 1.7-0.8 2.2s-1.3 0.9-2.4 1.1c0.8 0 1.3 0.2 1.7 0.6 0.4 0.3 0.6 1.1 0.9 2.3l0.4 1.8c0.1 0.6 0.2 1 0.3 1.3s0.2 0.5 0.3 0.7h-2.2c-0.1-0.2-0.2-0.4-0.3-0.7s-0.2-0.7-0.2-1.2l-0.4-2.3c-0.1-0.7-0.4-1.2-0.9-1.5s-1.4-0.4-2.7-0.4h-3.9v6.1h-2.1zm2-7.6h3.8c1.9 0 3.1-0.2 3.6-0.5s0.8-0.9 0.8-1.8c0-0.8-0.3-1.4-0.8-1.7s-1.8-0.5-3.6-0.5h-3.8z" clip-path="url(#j)" fill="#fff"/>
  <polygon class="st21" transform="translate(-780.93 -414.62)" points="404 354.5 404 366.4 402.2 366.4 402.2 352.7 404.9 352.7 413.9 364.5 413.9 352.7 415.7 352.7 415.7 366.4 413.2 366.4" clip-path="url(#j)" fill="#fff"/>
 </g>
 <g transform="matrix(1.1433 0 0 1.1433 206.63 -88.949)">
  <path d="m-140.1 150.17 15.238-32.761h125.21c2.2857 0 4.0634 1.7778 4.0634 4.0634v28.699z" fill="url(#u)" stroke-width="1.2698"/>
  <path d="m-180.74 150.17v-28.699c0-2.2857 1.7778-4.0634 4.0634-4.0634h51.809l-15.238 32.761z" fill="url(#t)" stroke-width="1.2698"/>
  <g transform="matrix(1.2698 0 0 1.2698 -532.48 -322.34)" fill="#fff">
   <path d="m282.9 352.7v1.7h6.1v12h1.9v-12h6.2l5.6 12h2.5l6.7-13.7h-2l-5.8 12.1-5.6-12.1h-2.2z" clip-path="url(#s)"/>
   <path d="m322.2 366.4v-13.8h6.9c1 0 1.8 0 2.4 0.1 0.5 0.1 1 0.2 1.4 0.4 0.5 0.3 0.9 0.7 1.2 1.1 0.3 0.5 0.4 1 0.4 1.6 0 0.8-0.2 1.5-0.7 2s-1.2 0.9-2.2 1.1c1.1 0.1 1.9 0.5 2.5 1.1s0.9 1.4 0.9 2.3c0 0.5-0.1 1.1-0.3 1.5-0.2 0.5-0.5 0.9-0.9 1.2-0.5 0.4-1 0.7-1.7 0.9s-1.6 0.3-2.8 0.3h-7.1zm1.9-12.2v4.2h4.4c1.4 0 2.3-0.2 2.9-0.5s0.9-0.9 0.9-1.6c0-0.8-0.3-1.3-0.8-1.6s-1.5-0.5-2.9-0.5zm0 10.6h5.1c1.3 0 2.2-0.2 2.8-0.6 0.5-0.4 0.8-1 0.8-1.8 0-0.9-0.3-1.6-0.9-1.9-0.6-0.4-1.6-0.6-3.1-0.6h-4.7z" clip-path="url(#r)"/>
   <path d="m336.6 366.4 7.5-13.8h2.5l7.3 13.8h-2.3l-1.9-3.7h-8.9l-2 3.7zm5-5.2h7.3l-3.5-6.9z" clip-path="url(#q)"/>
   <path d="m352.4 352.7h2.7l5.3 6.2 5.1-6.2h2.6l-6.7 7.8v5.9h-2.1v-5.7z" clip-path="url(#p)"/>
   <path d="m372.5 360v4.7h9v1.7h-11v-13.7h10.8v1.6h-8.8v4h8.1v1.7z" clip-path="url(#o)"/>
   <path d="m385.5 366.4v-13.8h6.5c1.2 0 2.2 0.1 2.8 0.2s1.1 0.3 1.5 0.5c0.5 0.3 0.8 0.7 1.1 1.2s0.4 1.1 0.4 1.8c0 0.9-0.3 1.7-0.8 2.2s-1.3 0.9-2.4 1.1c0.8 0 1.3 0.2 1.7 0.6 0.4 0.3 0.6 1.1 0.9 2.3l0.4 1.8c0.1 0.6 0.2 1 0.3 1.3s0.2 0.5 0.3 0.7h-2.2c-0.1-0.2-0.2-0.4-0.3-0.7s-0.2-0.7-0.2-1.2l-0.4-2.3c-0.1-0.7-0.4-1.2-0.9-1.5s-1.4-0.4-2.7-0.4h-3.9v6.1zm2-7.6h3.8c1.9 0 3.1-0.2 3.6-0.5s0.8-0.9 0.8-1.8c0-0.8-0.3-1.4-0.8-1.7s-1.8-0.5-3.6-0.5h-3.8z" clip-path="url(#n)"/>
   <path d="m402.2 366.4v-13.7h2.7l9 11.8v-11.8h1.8v13.7h-2.5l-9.2-11.9v11.9z" clip-path="url(#m)"/>
  </g>
 </g>
</svg>
