<svg width="265.83mm" height="34.022mm" version="1.1" viewBox="0 0 1004.7 128.59" xmlns="http://www.w3.org/2000/svg">
 <defs>
  <linearGradient id="XMLID_5_" x1="-1.8823" x2="540.78" y1="43.084" y2="43.084" gradientUnits="userSpaceOnUse">
   <stop stop-color="#B03A8D" offset="0"/>
   <stop stop-color="#E61D6A" offset=".5"/>
   <stop stop-color="#E7385B" offset="1"/>
  </linearGradient>
  <linearGradient id="XMLID_6_" x1="-1.8823" x2="540.78" y1="43.086" y2="43.086" gradientUnits="userSpaceOnUse">
   <stop stop-color="#B03A8D" offset="0"/>
   <stop stop-color="#E61D6A" offset=".5"/>
   <stop stop-color="#E7385B" offset="1"/>
  </linearGradient>
  <linearGradient id="XMLID_7_" x1="-1.8823" x2="540.78" y1="43.431" y2="43.431" gradientUnits="userSpaceOnUse">
   <stop stop-color="#B03A8D" offset="0"/>
   <stop stop-color="#E61D6A" offset=".5"/>
   <stop stop-color="#E7385B" offset="1"/>
  </linearGradient>
  <linearGradient id="XMLID_8_" x1="-1.8823" x2="540.78" y1="43.078" y2="43.078" gradientUnits="userSpaceOnUse">
   <stop stop-color="#B03A8D" offset="0"/>
   <stop stop-color="#E61D6A" offset=".5"/>
   <stop stop-color="#E7385B" offset="1"/>
  </linearGradient>
 </defs>
 <g transform="matrix(.66295 0 0 .66295 -52.533 303.88)">
  <g transform="matrix(2.2236 0 0 2.2236 79.241 -457.56)">
   <path d="m197.64 59.441c0 4.578-3.712 8.289-8.29 8.289h-78.41c-4.578 0-8.291-3.711-8.291-8.289v-32.712c0-4.58 3.713-8.291 8.291-8.291h78.41c4.578 0 8.29 3.711 8.29 8.291z" fill="url(#XMLID_5_)"/>
   <path d="m300.28 59.441c0 4.58-3.712 8.291-8.29 8.291h-78.411c-4.578 0-8.291-3.711-8.291-8.291v-32.712c0-4.578 3.713-8.289 8.291-8.289h78.411c4.578 0 8.29 3.711 8.29 8.289z" fill="url(#XMLID_6_)"/>
   <path d="m362.52 18.439h-53.394v68.421h11.514v-19.128h41.88c7.578 0 13.744-5.509 13.744-12.279v-24.734c0-6.771-6.166-12.28-13.744-12.28zm2.625 37.703c0 1.146-0.929 2.075-2.073 2.075h-40.324c-1.145 0-2.075-0.93-2.075-2.075v-25.974c0-1.146 0.931-2.075 2.075-2.075h40.324c1.145 0 2.073 0.93 2.073 2.075zm159.69 11.59h-43.052v-9.516h43.193c3.005 0 5.778-1.095 5.778-5.451 0-2.476-2.146-5.333-5.738-5.333h-32.593c-8.772 0-13.723-7.67-13.723-14.403 0-8.247 7.14-14.59 13.723-14.59h43.9v9.377h-42.261c-3.167 0-5.389 2.227-5.389 5.213 0 2.756 1.996 4.938 5.389 4.938h31.099c10.145 0 15.24 6.325 15.24 14.799 1e-3 8.995-5.797 14.966-15.566 14.966zm-120.82-49.293v34.817c0 7.534 6.167 14.476 13.746 14.476h53.806v-49.293h-10.57v37.288c0 1.146-0.941 2.075-2.087 2.075h-41.838c-1.147 0-2.075-0.929-2.075-2.075v-37.288zm-8.419 49.293h-11.1v-67.732h11.1z" fill="url(#XMLID_7_)"/>
   <path d="m94.992 59.436c0 4.578-3.712 8.289-8.29 8.289h-78.411c-4.578 0-8.291-3.711-8.291-8.289v-32.713c0-4.58 3.713-8.291 8.291-8.291h78.411c4.578 0 8.29 3.711 8.29 8.291z" fill="url(#XMLID_8_)"/>
  </g>
  <g transform="matrix(1.5021 0 0 1.5021 79.241 -457.56)">
   <g transform="scale(1.4804)">
    <path d="m117.28 33.459h19.67l6e-3 27.321h27.514v-27.321h19.678l-5e-3 -8.225h-66.859z" fill="#fff"/>
   </g>
   <g transform="scale(1.4804)">
    <path d="m218.38 60.78h68.827v-8.231l-38.122 6e-3v-27.323h-30.705z" fill="#fff"/>
   </g>
   <g transform="scale(1.4804)">
    <path transform="matrix(.6755 0 0 .6755 0 28.186)" d="m17.598-4.3652v52.617h39.041l0.042969-17.564h7.2324l20.854 17.564h40.635l-24.227-17.727s16.161-0.7255 15.967-18.129c-0.0814-7.3501-5.681-16.762-17.887-16.762zm39.039 13.17h17.533c0.29756 0 5.2031-0.095123 5.2031 5.1055 0 5.1962-6.0293 5.6523-6.0293 5.6523l-16.707 0.0039z" fill="#fff" stroke-width="1.4804"/>
   </g>
  </g>
 </g>
 <path d="m815.47 0h4.2354v128.59h-4.2354z" fill="#791d60" stroke-width=".1756"/>
 <g transform="matrix(.66295 0 0 .66295 86.548 127.29)" fill="#e7385b" shape-rendering="auto">
  <path d="m1140-152.35v112.71h25.217v-48.398h61.293v48.398h25.228v-112.71h-25.228v45.914h-61.293v-45.914z" color="#000000" color-rendering="auto" dominant-baseline="auto" image-rendering="auto" solid-color="#000000" style="font-feature-settings:normal;font-variant-alternates:normal;font-variant-caps:normal;font-variant-ligatures:normal;font-variant-numeric:normal;font-variant-position:normal;isolation:auto;mix-blend-mode:normal;shape-padding:0;text-decoration-color:#000000;text-decoration-line:none;text-decoration-style:solid;text-indent:0;text-orientation:mixed;text-transform:none;white-space:normal"/>
  <path d="m1269.3-152.36v112.71h52.629c11.105 0.06448 22.554-1.393 32.943-6.1543 5.4518-2.4984 10.547-5.8874 14.824-10.191 9.1802-9.1366 14.132-21.761 15.08-34.414v-0.0118c0.4352-6.2495 0-12.528-1.1426-18.65v-0.016c-1.4273-7.3704-4.1813-14.589-8.5664-20.838v-4e-3c-4.8241-6.962-11.603-12.39-19.186-15.939-10.234-4.8018-21.537-6.4182-27.04-6.4532zm25.228 18.393 26.825-8e-3c2.4284-8e-3 7.2657 0.48101 11.882 1.7131l0.012 2e-3 0.012 4e-3c7.831 1.998 15.125 6.597 19.525 13.275l0.02 0.016c4.8994 7.2941 6.4095 16.559 5.8828 25.498-0.5246 7.5064-2.7605 14.968-7.0449 21.029v0.0078c-3.8806 5.539-9.6514 9.7482-16.084 11.918l-0.014 0.0059-0.014 0.0039c-4.8406 1.6994-10.045 2.4305-15.266 2.4863h-25.727z" color="#000000" color-rendering="auto" dominant-baseline="auto" image-rendering="auto" solid-color="#000000" style="font-feature-settings:normal;font-variant-alternates:normal;font-variant-caps:normal;font-variant-ligatures:normal;font-variant-numeric:normal;font-variant-position:normal;isolation:auto;mix-blend-mode:normal;shape-padding:0;text-decoration-color:#000000;text-decoration-line:none;text-decoration-style:solid;text-indent:0;text-orientation:mixed;text-transform:none;white-space:normal"/>
 </g>
</svg>
