<?xml version="1.0" encoding="UTF-8"?>
<svg width="1143.7mm" height="193.15mm" viewBox="0 0 1143.7 193.15" xmlns="http://www.w3.org/2000/svg" xmlns:xlink="http://www.w3.org/1999/xlink">
 <linearGradient id="a">
  <stop stop-color="#ff3935" offset="0"/>
  <stop stop-color="#fb3834" offset=".1993"/>
  <stop stop-color="#f03631" offset=".3821"/>
  <stop stop-color="#de312d" offset=".5584"/>
  <stop stop-color="#c32b27" offset=".7306"/>
  <stop stop-color="#a2241f" offset=".8985"/>
  <stop stop-color="#8a1e19" offset="1"/>
 </linearGradient>
 <radialGradient id="b" cx="-656.78" cy="151.99" r="116.58" gradientUnits="userSpaceOnUse" xlink:href="#a"/>
 <radialGradient id="c" cx="-433.88" cy="157.64" r="112.31" gradientUnits="userSpaceOnUse" xlink:href="#a"/>
 <radialGradient id="d" cx="-223.67" cy="151.99" r="105.28" gradientUnits="userSpaceOnUse" xlink:href="#a"/>
 <linearGradient id="e">
  <stop stop-color="#ff6a5d" offset=".0056"/>
  <stop stop-color="#fb675b" offset=".2477"/>
  <stop stop-color="#f05c53" offset=".476"/>
  <stop stop-color="#dd4a47" offset=".6987"/>
  <stop stop-color="#c23135" offset=".9168"/>
  <stop stop-color="#b6262d" offset="1"/>
 </linearGradient>
 <radialGradient id="f" cx="-656.07" cy="149.88" r="122.16" gradientUnits="userSpaceOnUse" xlink:href="#e"/>
 <radialGradient id="g" cx="-218.02" cy="127.31" r="101.24" gradientUnits="userSpaceOnUse" xlink:href="#e"/>
 <radialGradient id="h" cx="-433.88" cy="102.62" r="95.478" gradientUnits="userSpaceOnUse" xlink:href="#e"/>
 <linearGradient id="i" x1="12.77" x2="744.91" y1="527.82" y2="527.82" gradientUnits="userSpaceOnUse" xlink:href="#j"/>
 <linearGradient id="j">
  <stop stop-color="#b23832" offset="0"/>
  <stop stop-color="#e74032" offset=".4"/>
  <stop stop-color="#e74032" offset=".6"/>
  <stop stop-color="#b23832" offset="1"/>
 </linearGradient>
 <linearGradient id="k" x1="809.71" x2="1552" y1="527.82" y2="527.82" gradientUnits="userSpaceOnUse" xlink:href="#j"/>
 <linearGradient id="l" x1="1614.6" x2="2367.1" y1="527.82" y2="527.82" gradientUnits="userSpaceOnUse" xlink:href="#j"/>
 <g transform="translate(745.76 -52.665)" stroke-width="2.1161">
  <path d="m-548.06 181.51c0.4973 9.6877-6.706 17.528-16.4 17.528h-161.73c-9.6834 0-18.19-7.8403-18.69-17.528-1.1766-22.67-1.1766-45.385 0-68.055 0.49729-9.6877 9.0041-17.528 18.69-17.528h161.73c9.6919 0 16.897 7.8403 16.4 17.528-1.1744 22.668-1.1744 45.385 0 68.055z" fill="url(#b)"/>
  <path d="m-334.26 181.5c0.19891 9.6898-7.3959 17.541-17.086 17.541h-164.43c-9.6855 0-17.803-7.8509-18.002-17.541-0.46978-22.674-0.46978-45.357 0-68.029 0.19892-9.6898 8.3164-17.541 18.002-17.541h164.43c9.6898 0 17.285 7.8509 17.086 17.541-0.47191 22.672-0.47191 45.355 0 68.029z" fill="url(#c)"/>
  <path d="m-118.43 181.5c0 9.6898-7.8551 17.543-17.543 17.543h-167.13c-9.6877 0-17.545-7.853-17.545-17.543v-68.027c0-9.6898 7.8572-17.543 17.545-17.543h167.13c9.6877 0 17.543 7.853 17.543 17.543z" fill="url(#d)"/>
  <path d="m-564.46 95.93h-161.73c-9.6834 0-18.19 7.8403-18.69 17.528-0.12698 2.4251-0.18413 4.8523-0.28358 7.2795 63.668-6.5685 129.71-11.135 196.18-13.875-2.2092-6.4098-8.1238-10.932-15.48-10.932z" fill="url(#f)"/>
  <path d="m-135.97 95.93h-167.13c-6.359 0-11.914 3.3943-14.991 8.4624 69.519 1.3289 136.87 4.5031 199.66 9.2792v-0.19892c0-9.6898-7.8551-17.543-17.543-17.543z" fill="url(#g)"/>
  <path d="m-351.34 95.93h-164.43c-7.0912 0-13.325 4.2153-16.246 10.272 65.463-2.3934 131.16-3.0366 195.24-2.1204-2.9816-4.8946-8.3333-8.1513-14.565-8.1513z" fill="url(#h)"/>
  <path d="m-605.92 111.63c-18.95 0 0-0.019 0-0.0233-18.954 0-112.24 0.0233-112.24 0.0233-0.7724 24.611-0.7724 49.24 0 73.849h52.99c-0.23913-8.2148-0.39149-16.434-0.45709-24.649h10.449c9.8421 8.217 19.771 16.436 29.785 24.649h54.632c-11.594-8.2931-23.1-16.586-34.518-24.881 0.0592 0 22.522-1.0179 22.425-25.446-0.0212-10.316-7.4826-23.521-24.602-23.521m-31.738 18.501c0.42323 0 7.2922-0.12909 7.2118 7.1695-0.0614 7.2985-8.5047 7.9334-8.509 7.9334-8.418 2e-3 -16.834 6e-3 -25.25 0.0106 0.0127-5.0364 0.0593-10.071 0.13966-15.105 8.801-2e-3 17.602-4e-3 26.407-8e-3z" fill="#fff"/>
 </g>
 <g transform="translate(745.76 -52.665)" fill="#fff">
  <polygon transform="matrix(2.1161 0 0 2.1161 -746.28 52.665)" points="180.71 35.937 180.7 27.863 115.06 27.863 115.06 35.937 134.37 35.937 134.38 62.762 161.39 62.762 161.39 35.937"/>
  <polygon transform="matrix(2.1161 0 0 2.1161 -746.28 52.665)" points="245.16 54.873 245.16 28.049 215.01 28.049 215.01 62.949 282.58 62.949 282.58 54.867"/>
  <g stroke="#b0b2b1" stroke-linecap="round" stroke-width="4.2333">
   <path d="m14.484 94.884h-116.13v148.81h25.04v-41.601h91.087c16.485 0 29.895-11.982 29.895-26.708v-53.794c0-14.726-13.41-26.708-29.895-26.708zm5.7093 82c0 2.4928-2.0188 4.5137-4.5116 4.5137h-87.699c-2.4928 0-4.5158-2.0209-4.5158-4.5137v-56.49c0-2.4928 2.023-4.5137 4.5158-4.5137h87.699c2.4928 0 4.5116 2.0209 4.5116 4.5137z"/>
   <path d="m395.82 171.13c0-15.086-10.452-28.815-30.682-30.946l-72.215-6.8796c-4.2153-0.38302-7.142-4.6978-7.142-9.2581 0-5.2734 3.1235-8.7629 8.2889-8.7629h90.111v-20.397h-90.994c-19.312 0-29.097 15.482-29.097 29.687 0 18.804 15.027 28.676 25.658 29.89l73.536 6.3484c10.591 0.90782 14.019 5.2882 14.019 10.845 0 6.359-3.3858 9.7427-14.108 9.7427h-91.169v20.696h92.403c19.106 2e-3 31.391-11.508 31.391-30.965z"/>
   <path d="m104.13 94.884v75.726c0 16.387 13.41 31.484 29.895 31.484h117.02v-107.21h-22.988v81.101c0 2.4928-2.0463 4.5137-4.5391 4.5137h-90.998c-2.4928 0-4.5116-2.0209-4.5116-4.5137v-81.101z"/>
   <rect x="59.822" y="54.782" width="24.141" height="147.31"/>
  </g>
 </g>
 <g fill="#e85344" stroke-width="2.1161">
  <path d="m7.1872 141.61c3.3509 2.9516 7.726 4.7624 12.375 4.7624h161.73c4.6545 0 8.7317-1.8108 11.661-4.7624z"/>
  <path d="m217.82 141.61c3.2239 2.9514 7.5075 4.7624 12.155 4.7624h164.43c4.6497 0 8.8142-1.8111 11.869-4.7624z"/>
  <path d="m430.62 141.61c3.1398 2.9511 7.3627 4.7624 12.011 4.7624h167.12c4.6481 0 8.8708-1.8113 12.01-4.7624z"/>
 </g>
 <g transform="matrix(.26458 0 0 .26458 -.53 -.81)" stroke-width="7.998">
  <path d="m12.77 517.3c4.1048 7.966 9.7176 15.089 16.428 21h702.11c5.8666-5.9112 10.506-13.034 13.605-21z" fill="url(#i)"/>
  <path d="m809.71 517.3c3.8063 7.9659 9.1303 15.088 15.588 21h712.26c6.1198-5.9118 11.053-13.034 14.457-21z" fill="url(#k)"/>
  <path d="m1614.6 517.3c3.6065 7.9657 8.736 15.088 15.025 21h722.45c6.2884-5.9118 11.418-13.034 15.023-21z" fill="url(#l)"/>
 </g>
</svg>
