<svg width="1143.7mm" height="243.22mm" version="1.1" viewBox="0 0 1143.7 243.22" xmlns="http://www.w3.org/2000/svg" xmlns:xlink="http://www.w3.org/1999/xlink">
 <linearGradient id="o">
  <stop stop-color="#ff3935" offset="0"/>
  <stop stop-color="#fb3834" offset=".1993"/>
  <stop stop-color="#f03631" offset=".3821"/>
  <stop stop-color="#de312d" offset=".5584"/>
  <stop stop-color="#c32b27" offset=".7306"/>
  <stop stop-color="#a2241f" offset=".8985"/>
  <stop stop-color="#8a1e19" offset="1"/>
 </linearGradient>
 <radialGradient id="x" cx="-656.78" cy="151.99" r="116.58" gradientUnits="userSpaceOnUse" xlink:href="#o"/>
 <radialGradient id="w" cx="-433.88" cy="157.64" r="112.31" gradientUnits="userSpaceOnUse" xlink:href="#o"/>
 <radialGradient id="v" cx="-223.67" cy="151.99" r="105.28" gradientUnits="userSpaceOnUse" xlink:href="#o"/>
 <linearGradient id="n">
  <stop stop-color="#ff6a5d" offset=".0056"/>
  <stop stop-color="#fb675b" offset=".2477"/>
  <stop stop-color="#f05c53" offset=".476"/>
  <stop stop-color="#dd4a47" offset=".6987"/>
  <stop stop-color="#c23135" offset=".9168"/>
  <stop stop-color="#b6262d" offset="1"/>
 </linearGradient>
 <radialGradient id="u" cx="-656.07" cy="149.88" r="122.16" gradientUnits="userSpaceOnUse" xlink:href="#n"/>
 <radialGradient id="t" cx="-218.02" cy="127.31" r="101.24" gradientUnits="userSpaceOnUse" xlink:href="#n"/>
 <radialGradient id="s" cx="-433.88" cy="102.62" r="95.478" gradientUnits="userSpaceOnUse" xlink:href="#n"/>
 <linearGradient id="r" x1="12.77" x2="744.91" y1="527.82" y2="527.82" gradientUnits="userSpaceOnUse" xlink:href="#m"/>
 <linearGradient id="m">
  <stop stop-color="#b23832" offset="0"/>
  <stop stop-color="#e74032" offset=".4"/>
  <stop stop-color="#e74032" offset=".6"/>
  <stop stop-color="#b23832" offset="1"/>
 </linearGradient>
 <linearGradient id="q" x1="809.71" x2="1552" y1="527.82" y2="527.82" gradientUnits="userSpaceOnUse" xlink:href="#m"/>
 <linearGradient id="p" x1="1614.6" x2="2367.1" y1="527.82" y2="527.82" gradientUnits="userSpaceOnUse" xlink:href="#m"/>
 <g transform="translate(745.76 -52.665)" stroke-width="2.1161">
  <path d="m-548.06 181.51c0.4973 9.6877-6.706 17.528-16.4 17.528h-161.73c-9.6834 0-18.19-7.8403-18.69-17.528-1.1766-22.67-1.1766-45.385 0-68.055 0.49729-9.6877 9.0041-17.528 18.69-17.528h161.73c9.6919 0 16.897 7.8403 16.4 17.528-1.1744 22.668-1.1744 45.385 0 68.055z" fill="url(#x)"/>
  <path d="m-334.26 181.5c0.19891 9.6898-7.3959 17.541-17.086 17.541h-164.43c-9.6855 0-17.803-7.8509-18.002-17.541-0.46978-22.674-0.46978-45.357 0-68.029 0.19892-9.6898 8.3164-17.541 18.002-17.541h164.43c9.6898 0 17.285 7.8509 17.086 17.541-0.47191 22.672-0.47191 45.355 0 68.029z" fill="url(#w)"/>
  <path d="m-118.43 181.5c0 9.6898-7.8551 17.543-17.543 17.543h-167.13c-9.6877 0-17.545-7.853-17.545-17.543v-68.027c0-9.6898 7.8572-17.543 17.545-17.543h167.13c9.6877 0 17.543 7.853 17.543 17.543z" fill="url(#v)"/>
  <path d="m-564.46 95.93h-161.73c-9.6834 0-18.19 7.8403-18.69 17.528-0.12698 2.4251-0.18413 4.8523-0.28358 7.2795 63.668-6.5685 129.71-11.135 196.18-13.875-2.2092-6.4098-8.1238-10.932-15.48-10.932z" fill="url(#u)"/>
  <path d="m-135.97 95.93h-167.13c-6.359 0-11.914 3.3943-14.991 8.4624 69.519 1.3289 136.87 4.5031 199.66 9.2792v-0.19892c0-9.6898-7.8551-17.543-17.543-17.543z" fill="url(#t)"/>
  <path d="m-351.34 95.93h-164.43c-7.0912 0-13.325 4.2153-16.246 10.272 65.463-2.3934 131.16-3.0366 195.24-2.1204-2.9816-4.8946-8.3333-8.1513-14.565-8.1513z" fill="url(#s)"/>
  <path d="m-605.92 111.63c-18.95 0 0-0.019 0-0.0233-18.954 0-112.24 0.0233-112.24 0.0233-0.7724 24.611-0.7724 49.24 0 73.849h52.99c-0.23913-8.2148-0.39149-16.434-0.45709-24.649h10.449c9.8421 8.217 19.771 16.436 29.785 24.649h54.632c-11.594-8.2931-23.1-16.586-34.518-24.881 0.0592 0 22.522-1.0179 22.425-25.446-0.0212-10.316-7.4826-23.521-24.602-23.521m-31.738 18.501c0.42323 0 7.2922-0.12909 7.2118 7.1695-0.0614 7.2985-8.5047 7.9334-8.509 7.9334-8.418 2e-3 -16.834 6e-3 -25.25 0.0106 0.0127-5.0364 0.0593-10.071 0.13966-15.105 8.801-2e-3 17.602-4e-3 26.407-8e-3z" fill="#fff"/>
 </g>
 <g transform="translate(745.76 -52.665)" fill="#fff">
  <polygon transform="matrix(2.1161,0,0,2.1161,-746.28,52.665)" points="161.39 35.937 180.71 35.937 180.7 27.863 115.06 27.863 115.06 35.937 134.37 35.937 134.38 62.762 161.39 62.762"/>
  <polygon transform="matrix(2.1161,0,0,2.1161,-746.28,52.665)" points="245.16 28.049 215.01 28.049 215.01 62.949 282.58 62.949 282.58 54.867 245.16 54.873"/>
  <g stroke="#b0b2b1" stroke-linecap="round" stroke-width="4.2333">
   <path d="m14.484 94.884h-116.13v148.81h25.04v-41.601h91.087c16.485 0 29.895-11.982 29.895-26.708v-53.794c0-14.726-13.41-26.708-29.895-26.708zm5.7093 82c0 2.4928-2.0188 4.5137-4.5116 4.5137h-87.699c-2.4928 0-4.5158-2.0209-4.5158-4.5137v-56.49c0-2.4928 2.023-4.5137 4.5158-4.5137h87.699c2.4928 0 4.5116 2.0209 4.5116 4.5137z"/>
   <path d="m395.82 171.13c0-15.086-10.452-28.815-30.682-30.946l-72.215-6.8796c-4.2153-0.38302-7.142-4.6978-7.142-9.2581 0-5.2734 3.1235-8.7629 8.2889-8.7629h90.111v-20.397h-90.994c-19.312 0-29.097 15.482-29.097 29.687 0 18.804 15.027 28.676 25.658 29.89l73.536 6.3484c10.591 0.90782 14.019 5.2882 14.019 10.845 0 6.359-3.3858 9.7427-14.108 9.7427h-91.169v20.696h92.403c19.106 2e-3 31.391-11.508 31.391-30.965z"/>
   <path d="m104.13 94.884v75.726c0 16.387 13.41 31.484 29.895 31.484h117.02v-107.21h-22.988v81.101c0 2.4928-2.0463 4.5137-4.5391 4.5137h-90.998c-2.4928 0-4.5116-2.0209-4.5116-4.5137v-81.101z"/>
   <rect x="59.822" y="54.782" width="24.141" height="147.31"/>
  </g>
 </g>
 <g transform="translate(.0024824 -.00032839)" fill="#e85344" stroke-width="2.1161">
  <path d="m7.1872 141.61c3.3509 2.9516 7.726 4.7624 12.375 4.7624h161.73c4.6545 0 8.7317-1.8108 11.661-4.7624z"/>
  <path d="m217.82 141.61c3.2239 2.9514 7.5075 4.7624 12.155 4.7624h164.43c4.6497 0 8.8142-1.8111 11.869-4.7624z"/>
  <path d="m430.62 141.61c3.1398 2.9511 7.3627 4.7624 12.011 4.7624h167.12c4.6481 0 8.8708-1.8113 12.01-4.7624z"/>
 </g>
 <g transform="matrix(.26458 0 0 .26458 -.52752 -.81036)" stroke-width="7.998">
  <path d="m12.77 517.3c4.1048 7.966 9.7176 15.089 16.428 21h702.11c5.8666-5.9112 10.506-13.034 13.605-21z" fill="url(#r)"/>
  <path d="m809.71 517.3c3.8063 7.9659 9.1303 15.088 15.588 21h712.26c6.1198-5.9118 11.053-13.034 14.457-21z" fill="url(#q)"/>
  <path d="m1614.6 517.3c3.6065 7.9657 8.736 15.088 15.025 21h722.45c6.2884-5.9118 11.418-13.034 15.023-21z" fill="url(#p)"/>
 </g>
 <g transform="translate(93.126 -210.78)" fill="#fff">
  <path d="m126.46 441.06q0 5.7477-3.4486 9.2682-3.3768 3.5205-10.777 3.5205-3.8079 0-7.1847-1.0058-3.3768-1.0059-5.7477-2.8739l0.71846-3.9516q2.2991 1.9399 5.604 3.0176 3.305 1.0059 6.538 1.0059 5.3885 0 7.7594-2.4428 2.4428-2.4428 2.4428-6.107 0-2.802-1.7243-4.4545-1.6525-1.6525-4.239-2.7302-2.5146-1.1496-5.4604-2.0117-2.9457-0.934-5.5322-2.2272-2.5146-1.3651-4.239-3.4486-1.6525-2.0836-1.6525-5.604 0-5.173 3.5923-8.1187 3.5923-3.0176 10.49-3.0176 6.1788 0 11.136 2.4428l-0.43108 3.8079q-5.3167-2.3709-10.777-2.3709-4.5263 0-7.1847 1.9399-2.6583 1.868-2.6583 5.1011 0 2.6583 1.6525 4.1671 1.7243 1.4369 4.239 2.4428 2.5146 1.0058 5.4604 1.868 3.0176 0.86216 5.5322 2.2272 2.5146 1.3651 4.1671 3.5923 1.7243 2.2272 1.7243 5.9633z"/>
  <path d="m143.87 414.12v28.667q0 3.8797 1.7962 5.5322 1.868 1.5806 5.1011 1.5806 0.93401 0 1.9399-0.14369 1.0058-0.1437 1.6525-0.43108l0.35923 3.4486q-0.86216 0.35923-2.2991 0.57477-1.3651 0.28739-2.802 0.28739-4.9574 0-7.5439-2.5865-2.5865-2.6583-2.5865-8.1187v-28.811h-6.6099v-3.5205h6.6818l0.86216-11.136 3.4486-0.43108v11.567h11.136v3.5205z"/>
  <path d="m179.02 453.85q-5.1011 0-8.6934-1.3651-3.5205-1.3651-5.8196-4.239t-3.3768-7.2565q-1.0059-4.4545-1.0059-10.633 0-10.059 4.1671-15.232 4.239-5.2448 12.717-5.2448 3.5923 0 6.5381 1.1496 3.0176 1.0777 5.173 3.4486 2.1554 2.371 3.305 6.107 1.2214 3.6642 1.2214 8.8371 0 0.50293-0.0718 1.1496 0 0.57478-0.0719 1.0059h-28.523q0.0719 5.1011 0.93401 8.6216 0.93401 3.4486 2.7302 5.604 1.868 2.0836 4.5982 3.0176 2.802 0.93401 6.6099 0.93401 3.3768 0 6.1788-0.79032 2.802-0.79031 5.5322-2.2272l0.57477 3.8079q-2.7302 1.5806-5.8914 2.4428-3.0894 0.86216-6.8254 0.86216zm10.202-25.362q-0.0719-4.0234-1.0059-6.8254t-2.5865-4.5264q-1.5806-1.7962-3.8079-2.5865-2.1554-0.79031-4.8137-0.79031-6.3225 0-9.2682 3.6642-2.8739 3.6642-3.2331 11.064z"/>
  <path d="m203.97 452.99v-42.174l3.5205-0.28739 0.14369 4.7419 0.14369 5.8196h0.1437q1.868-4.9574 5.3885-7.975 3.5923-3.0894 8.4061-3.0894 2.2991 0 4.0234 0.50292l-0.35924 4.5264q-1.6525-0.57478-3.8797-0.57478-2.7302 0-5.1011 1.2214-2.3709 1.1496-4.239 3.3768-1.7962 2.2272-2.8739 5.3166-1.0058 3.0894-1.0058 6.9691v21.626z"/>
  <path d="m234.7 452.99v-42.174l3.5205-0.28739 0.14369 4.7419 0.14369 5.8196h0.1437q1.868-4.9574 5.3885-7.975 3.5923-3.0894 8.4061-3.0894 2.2991 0 4.0234 0.50292l-0.35924 4.5264q-1.6525-0.57478-3.8797-0.57478-2.7302 0-5.1011 1.2214-2.3709 1.1496-4.239 3.3768-1.7962 2.2272-2.8739 5.3166-1.0058 3.0894-1.0058 6.9691v21.626z"/>
  <path d="m280.48 453.85q-5.1011 0-8.6935-1.3651-3.5205-1.3651-5.8196-4.239t-3.3768-7.2565q-1.0058-4.4545-1.0058-10.633 0-10.059 4.1671-15.232 4.239-5.2448 12.717-5.2448 3.5923 0 6.538 1.1496 3.0176 1.0777 5.173 3.4486 2.1554 2.371 3.305 6.107 1.2214 3.6642 1.2214 8.8371 0 0.50293-0.0719 1.1496 0 0.57478-0.0718 1.0059h-28.523q0.0718 5.1011 0.93401 8.6216 0.93401 3.4486 2.7302 5.604 1.868 2.0836 4.5982 3.0176 2.802 0.93401 6.6099 0.93401 3.3768 0 6.1788-0.79032 2.802-0.79031 5.5322-2.2272l0.57478 3.8079q-2.7302 1.5806-5.8914 2.4428-3.0894 0.86216-6.8254 0.86216zm10.202-25.362q-0.0718-4.0234-1.0058-6.8254-0.93401-2.802-2.5865-4.5264-1.5806-1.7962-3.8079-2.5865-2.1554-0.79031-4.8137-0.79031-6.3225 0-9.2682 3.6642-2.8739 3.6642-3.2331 11.064z"/>
  <path d="m307.44 452.99v-42.174l4.3826-0.35923v42.533zm5.604-54.101q0 3.0176-3.3768 3.0176-1.6525 0-2.5146-0.64662t-0.86216-2.371q0-3.0176 3.3768-3.0176t3.3768 3.0176z"/>
  <path d="m352.53 416.27q-2.0117-1.0058-4.4545-1.5806-2.3709-0.64662-4.8856-0.64662-3.736 0-6.3944 1.0059-2.5865 0.93401-4.239 3.0894-1.6525 2.0836-2.4428 5.3885-0.71847 3.2331-0.71847 7.7594 0 5.173 0.86216 8.6934t2.5865 5.7477 4.239 3.2331q2.5865 0.93401 5.9633 0.93401 2.7302 0 5.2448-0.71847 2.5146-0.79031 4.5263-2.2272l0.43108 3.8079q-1.868 1.4369-4.8137 2.2991-2.8739 0.86216-6.1788 0.86216-8.7653 0-13.076-5.3167t-4.3108-17.315q0-10.849 4.1671-16.094 4.1671-5.3167 13.292-5.3167 3.0176 0 5.7477 0.71847 2.7302 0.64662 4.8137 1.6525z"/>
  <path d="m389.71 452.99v-28.667q0-4.9574-2.7302-7.6158-2.6583-2.6583-8.3342-2.6583-3.9516 0-7.041 1.7243-3.0894 1.6525-4.5263 4.0953v33.121h-4.3826v-57.118l4.3826-0.35923v13.938l-0.0718 5.7477 0.1437 0.0719q2.2272-2.6583 5.4604-4.0234 3.305-1.4369 7.1847-1.4369 7.041 0 10.633 3.736 3.6642 3.6642 3.6642 10.777v28.667z"/>
  <path d="m89.941 426.05q0 7.5439-1.1495 12.861-1.1495 5.2448-3.736 8.6216-2.5146 3.3768-6.6099 4.9574-4.0953 1.5088-9.9867 1.5088-5.8196 0-9.9148-1.5088-4.0953-1.5806-6.6817-4.9574-2.5146-3.3768-3.736-8.6934-1.1495-5.3167-1.1495-12.789t1.1495-12.717q1.1495-5.3167 3.736-8.6216 2.5865-3.3768 6.6817-4.8856 4.0953-1.5806 9.9148-1.5806 5.8914 0 9.9867 1.5806 4.0953 1.5088 6.6099 4.8856 2.5865 3.305 3.736 8.6216 1.1495 5.2448 1.1495 12.717zm-4.8856 0q0-6.8254-0.93401-11.28-0.93401-4.5263-2.9457-7.1847-1.9399-2.6583-5.1011-3.736-3.1613-1.0777-7.6158-1.0777t-7.6158 1.0777-5.173 3.736q-1.9399 2.6583-2.8739 7.1847-0.93401 4.4545-0.93401 11.28t0.93401 11.352q0.93401 4.4545 2.9457 7.1128 2.0117 2.6583 5.173 3.8079 3.1613 1.0777 7.6158 1.0777t7.5439-1.0777q3.1613-1.1495 5.173-3.8079t2.8739-7.1128q0.93401-4.5263 0.93401-11.352z"/>
  <path d="m74.283 389.75c0.90049-0.24153 1.9529-0.19969 2.7062 0.51539 0.76754 0.78927 0.84034 2.2081 0.49218 3.2788-0.31493 0.95092-1.2091 1.3541-2.0019 1.3807-0.77389 0.0343-1.6665-0.0172-2.2472-0.7208-0.53649-0.72459-0.57764-1.7992-0.42886-2.7082 0.14401-0.87865 0.76438-1.5557 1.4797-1.7459z" stroke-width=".17348"/>
  <path d="m60.77 389.75c0.90049-0.24153 1.9529-0.19969 2.7062 0.51539 0.76754 0.78927 0.84034 2.2081 0.49218 3.2788-0.31493 0.95092-1.2091 1.3541-2.0019 1.3807-0.77389 0.0343-1.6665-0.0172-2.2472-0.7208-0.53649-0.72459-0.57764-1.7992-0.42886-2.7082 0.14401-0.87865 0.76438-1.5557 1.4797-1.7459z" stroke-width=".17348"/>
 </g>
</svg>
