<svg width="210.78mm" height="33.879mm" version="1.1" viewBox="0 0 796.64 128.05" xmlns="http://www.w3.org/2000/svg">
 <defs>
  <linearGradient id="XMLID_5_" x1="-1.8823" x2="540.78" y1="43.084" y2="43.084" gradientUnits="userSpaceOnUse">
   <stop stop-color="#B03A8D" offset="0"/>
   <stop stop-color="#E61D6A" offset=".5"/>
   <stop stop-color="#E7385B" offset="1"/>
  </linearGradient>
  <linearGradient id="XMLID_6_" x1="-1.8823" x2="540.78" y1="43.086" y2="43.086" gradientUnits="userSpaceOnUse">
   <stop stop-color="#B03A8D" offset="0"/>
   <stop stop-color="#E61D6A" offset=".5"/>
   <stop stop-color="#E7385B" offset="1"/>
  </linearGradient>
  <linearGradient id="XMLID_7_" x1="-1.8823" x2="540.78" y1="43.431" y2="43.431" gradientUnits="userSpaceOnUse">
   <stop stop-color="#B03A8D" offset="0"/>
   <stop stop-color="#E61D6A" offset=".5"/>
   <stop stop-color="#E7385B" offset="1"/>
  </linearGradient>
  <linearGradient id="XMLID_8_" x1="-1.8823" x2="540.78" y1="43.078" y2="43.078" gradientUnits="userSpaceOnUse">
   <stop stop-color="#B03A8D" offset="0"/>
   <stop stop-color="#E61D6A" offset=".5"/>
   <stop stop-color="#E7385B" offset="1"/>
  </linearGradient>
 </defs>
 <g transform="matrix(.66295 0 0 .66295 -52.533 303.34)">
  <g transform="matrix(2.2236 0 0 2.2236 79.241 -457.56)">
   <path d="m197.64 59.441c0 4.578-3.712 8.289-8.29 8.289h-78.41c-4.578 0-8.291-3.711-8.291-8.289v-32.712c0-4.58 3.713-8.291 8.291-8.291h78.41c4.578 0 8.29 3.711 8.29 8.291z" fill="url(#XMLID_5_)"/>
   <path d="m300.28 59.441c0 4.58-3.712 8.291-8.29 8.291h-78.411c-4.578 0-8.291-3.711-8.291-8.291v-32.712c0-4.578 3.713-8.289 8.291-8.289h78.411c4.578 0 8.29 3.711 8.29 8.289z" fill="url(#XMLID_6_)"/>
   <path d="m362.52 18.439h-53.394v68.421h11.514v-19.128h41.88c7.578 0 13.744-5.509 13.744-12.279v-24.734c0-6.771-6.166-12.28-13.744-12.28zm2.625 37.703c0 1.146-0.929 2.075-2.073 2.075h-40.324c-1.145 0-2.075-0.93-2.075-2.075v-25.974c0-1.146 0.931-2.075 2.075-2.075h40.324c1.145 0 2.073 0.93 2.073 2.075zm159.69 11.59h-43.052v-9.516h43.193c3.005 0 5.778-1.095 5.778-5.451 0-2.476-2.146-5.333-5.738-5.333h-32.593c-8.772 0-13.723-7.67-13.723-14.403 0-8.247 7.14-14.59 13.723-14.59h43.9v9.377h-42.261c-3.167 0-5.389 2.227-5.389 5.213 0 2.756 1.996 4.938 5.389 4.938h31.099c10.145 0 15.24 6.325 15.24 14.799 1e-3 8.995-5.797 14.966-15.566 14.966zm-120.82-49.293v34.817c0 7.534 6.167 14.476 13.746 14.476h53.806v-49.293h-10.57v37.288c0 1.146-0.941 2.075-2.087 2.075h-41.838c-1.147 0-2.075-0.929-2.075-2.075v-37.288zm-8.419 49.293h-11.1v-67.732h11.1z" fill="url(#XMLID_7_)"/>
   <path d="m94.992 59.436c0 4.578-3.712 8.289-8.29 8.289h-78.411c-4.578 0-8.291-3.711-8.291-8.289v-32.713c0-4.58 3.713-8.291 8.291-8.291h78.411c4.578 0 8.29 3.711 8.29 8.291z" fill="url(#XMLID_8_)"/>
  </g>
  <g transform="matrix(1.5021 0 0 1.5021 79.241 -457.56)">
   <g transform="scale(1.4804)">
    <path d="m117.28 33.459h19.67l6e-3 27.321h27.514v-27.321h19.678l-5e-3 -8.225h-66.859z" fill="#fff"/>
   </g>
   <g transform="scale(1.4804)">
    <path d="m218.38 60.78h68.827v-8.231l-38.122 6e-3v-27.323h-30.705z" fill="#fff"/>
   </g>
   <g transform="scale(1.4804)">
    <path transform="matrix(.6755 0 0 .6755 0 28.186)" d="m17.598-4.3652v52.617h39.041l0.042969-17.564h7.2324l20.854 17.564h40.635l-24.227-17.727s16.161-0.7255 15.967-18.129c-0.0814-7.3501-5.681-16.762-17.887-16.762zm39.039 13.17h17.533c0.29756 0 5.2031-0.095123 5.2031 5.1055 0 5.1962-6.0293 5.6523-6.0293 5.6523l-16.707 0.0039z" fill="#fff" stroke-width="1.4804"/>
   </g>
  </g>
 </g>
</svg>
