<svg width="800" height="265.23" version="1.1" xmlns="http://www.w3.org/2000/svg">
 <g transform="translate(0 591.07)" stroke-width="3.9604">
  <path d="m549.98-452.46h250.02v-138.61h-250.02z" fill="#ff5c01"/>
  <path d="m274.99-452.46h250.02v-138.61h-250.02z" fill="#ec33ec"/>
  <path d="m0-452.46h250.02v-138.61h-250.02z" fill="#edc00c"/>
  <g transform="translate(0,-591.07)" fill="#fdfeff" fill-rule="evenodd">
   <path d="m627.68 31.861h17.362v60.127h77.263v14.76h-94.626v-74.887"/>
   <path d="m391.32 46.626h-43.952v-14.76h105.26v14.76h-43.949v60.127h-17.362v-60.127"/>
   <path d="m135.37 66.523c10.745 0 15.952-3.4218 15.952-10.376s-5.2079-10.269-15.952-10.269h-46.986v20.646zm-64.349-34.661h66.63c20.293 0 31.576 8.9901 31.576 24.071 0 12.947-8.4634 21.612-22.895 23.644l32.661 27.172h-25.069l-30.705-26.21h-34.836v26.21h-17.362z"/>
  </g>
 </g>
 <g transform="translate(-270.18)">
  <path d="m341.06 261.49c-5.0719-2.4925-8.9792-6.0678-11.722-10.726-2.7377-4.6582-4.1065-10.139-4.1065-16.447v-47.307h14.22v46.867c0 6.1597 1.6651 10.833 5.0003 14.025 3.3301 3.1871 8.1823 4.7858 14.557 4.7858 6.3641 0 11.237-1.5987 14.608-4.7858 3.371-3.1923 5.0514-7.8657 5.0514-14.025v-46.867h14.107v47.307c0 6.3793-1.3484 11.901-4.0503 16.554-2.707 4.6582-6.594 8.213-11.666 10.675-5.0769 2.4516-11.094 3.6826-18.056 3.6826-6.8851 0-12.871-1.2462-17.943-3.7388m105.38-36.412c4.51 0 7.9576-1.1237 10.328-3.3608 2.3699-2.2321 3.555-5.4804 3.555-9.7352 0-4.0351-1.2054-7.1505-3.6111-9.347-2.4108-2.2014-5.838-3.3046-10.271-3.3046h-19.889v25.742h19.889zm-34.113 38.94v-77.007h36.003c5.2609 0 9.8782 1.0471 13.882 3.1361 3.8752 1.9784 7.0962 5.0343 9.2754 8.8004 2.1809 3.7797 3.2791 8.1211 3.2791 13.035 0 4.99-1.0981 9.4082-3.2791 13.259-2.1585 3.8232-5.3807 6.9371-9.2754 8.9638-4.0044 2.1298-8.6267 3.1923-13.882 3.1923h-21.779v26.621z" fill-rule="evenodd" stroke-width="5.1076"/>
  <path d="m536.9 187.01h18.616l30.101 75.909v1.1001h-16.078l-6.407-17.162h-34.332l-6.407 17.162h-15.594v-1.1001zm8.8247 13.972-12.451 33.774h25.386l-12.451-33.774z" stroke-width="2.883" style="white-space:pre"/>
  <path d="m630.11 265.23q-10.396 0-18.133-3.6304-7.7367-3.6304-11.968-10.341-4.1101-6.7108-4.1101-15.842v-48.406h14.869v47.966q0 8.691 4.9563 13.312 5.0772 4.6205 14.385 4.6205 9.55 0 14.506-4.5105 4.9563-4.6205 4.9563-13.422v-47.966h14.869v48.406q0 9.131-4.231 15.952-4.1101 6.7108-11.847 10.341-7.7367 3.5204-18.254 3.5204z" stroke-width="2.883" style="white-space:pre"/>
  <path d="m712.19 265.23q-16.078 0-25.265-6.7108-9.1873-6.8208-9.7918-19.252h14.99q0.60443 6.7108 5.6816 10.231 5.1981 3.4104 14.748 3.4104 8.0994 0 12.451-2.7503 4.3519-2.7503 4.3519-7.8109 0-4.4005-2.7804-6.6008-2.7804-2.3103-10.034-3.7404l-12.33-2.4203q-12.572-2.5303-18.496-7.8109-5.8025-5.2806-5.8025-14.192 0-6.4908 3.7475-11.441 3.8684-4.9506 10.88-7.5909 7.1323-2.7503 16.441-2.7503 9.3082 0 16.561 3.0804 7.2532 3.0804 11.363 8.581 4.1101 5.5006 4.1101 12.541h-14.99q-0.36266-5.7207-5.0772-8.801-4.5937-3.0804-12.935-3.0804-7.374 0-11.242 2.4203-3.7475 2.4203-3.7475 7.0408 0 3.5204 2.9013 5.8307 3.0222 2.3103 9.1874 3.5204l11.484 2.2003q13.781 2.6403 19.825 8.0309 6.0443 5.2806 6.0443 14.962 0 10.781-8.5829 16.942-8.462 6.1607-23.694 6.1607z" stroke-width="2.883" style="white-space:pre"/>
  <path d="m791.97 264.02h-14.869v-64.907h-25.386v-12.101h65.52v12.101h-25.265z" stroke-width="2.883" style="white-space:pre"/>
  <path d="m897.51 262.92v1.1001h-16.803l-20.188-28.823h-16.32v28.823h-14.869v-77.009h36.266q8.3411 0 14.627 3.0804 6.2861 3.0804 9.6709 8.471 3.5057 5.3906 3.5057 12.211 0 8.361-4.7146 14.302-4.5937 5.9407-12.693 8.471zm-53.311-63.807v23.983h20.551q6.407 0 9.9127-3.1904 3.6266-3.3004 3.6266-9.131 0-5.3906-3.6266-8.471-3.6266-3.1904-9.9127-3.1904z" stroke-width="2.883" style="white-space:pre"/>
  <path d="m924.83 264.02h-14.869v-77.009h14.869z" stroke-width="2.883" style="white-space:pre"/>
  <path d="m966.41 187.01h18.616l30.101 75.909v1.1001h-16.078l-6.407-17.162h-34.332l-6.407 17.162h-15.594v-1.1001zm8.8247 13.972-12.451 33.774h25.386l-12.451-33.774z" stroke-width="2.883" style="white-space:pre"/>
 </g>
</svg>
