<svg width="800" height="265.23" version="1.1" xmlns="http://www.w3.org/2000/svg">
 <g transform="translate(0 591.07)" stroke-width="3.9604">
  <path d="m549.98-452.46h250.02v-138.61h-250.02z" fill="#ff5c01"/>
  <path d="m274.99-452.46h250.02v-138.61h-250.02z" fill="#ec33ec"/>
  <path d="m0-452.46h250.02v-138.61h-250.02z" fill="#edc00c"/>
  <g transform="translate(0,-591.07)" fill="#fdfeff" fill-rule="evenodd">
   <path d="m627.68 31.861h17.362v60.127h77.263v14.76h-94.626v-74.887"/>
   <path d="m391.32 46.626h-43.952v-14.76h105.26v14.76h-43.949v60.127h-17.362v-60.127"/>
   <path d="m135.37 66.523c10.745 0 15.952-3.4218 15.952-10.376s-5.2079-10.269-15.952-10.269h-46.986v20.646zm-64.349-34.661h66.63c20.293 0 31.576 8.9901 31.576 24.071 0 12.947-8.4634 21.612-22.895 23.644l32.661 27.172h-25.069l-30.705-26.21h-34.836v26.21h-17.362z"/>
  </g>
 </g>
 <path d="m341.06 261.49c-5.0719-2.4925-8.9792-6.0678-11.722-10.726-2.7377-4.6582-4.1065-10.139-4.1065-16.447v-47.307h14.22v46.867c0 6.1597 1.6651 10.833 5.0003 14.025 3.3301 3.1871 8.1823 4.7858 14.557 4.7858 6.3641 0 11.237-1.5987 14.608-4.7858 3.371-3.1923 5.0514-7.8657 5.0514-14.025v-46.867h14.107v47.307c0 6.3793-1.3484 11.901-4.0503 16.554-2.707 4.6582-6.594 8.213-11.666 10.675-5.0769 2.4516-11.094 3.6826-18.056 3.6826-6.8851 0-12.871-1.2462-17.943-3.7388m105.38-36.412c4.51 0 7.9576-1.1237 10.328-3.3608 2.3699-2.2321 3.555-5.4804 3.555-9.7351 0-4.0351-1.2054-7.1505-3.6111-9.3469-2.4108-2.2014-5.838-3.3046-10.271-3.3046h-19.889v25.742h19.889zm-34.113 38.94v-77.007h36.003c5.2609 0 9.8781 1.0471 13.882 3.1361 3.8752 1.9784 7.0962 5.0343 9.2753 8.8004 2.1809 3.7797 3.2791 8.1211 3.2791 13.035 0 4.99-1.0981 9.4081-3.2791 13.259-2.1585 3.8232-5.3807 6.9371-9.2753 8.9638-4.0044 2.1298-8.6267 3.1923-13.882 3.1923h-21.779v26.621z" fill="#fff" fill-rule="evenodd" stroke-width="5.1076"/>
</svg>
