<svg width="800" height="619.37" version="1.1" viewBox="0 0 800 619.37" xml:space="preserve" xmlns="http://www.w3.org/2000/svg">
<g transform="matrix(1.9134 0 0 1.9134 -169.53 -263.29)" fill="#00bcf6">
		<path class="st0" d="m121.2 392.7c11.8 0 20.4 6.5 20.4 17.9 0 8.6-3.9 15.1-11.9 17.4v0.2c4.5 1 7.6 3 9.2 8.3 0.8 2.4 1.2 5.9 1.3 10.1 0.4 8.1 1.3 11.6 3.7 14.7h-10.2c-1.2-1.2-1.5-3.7-1.6-5.3l-0.4-8.2c0-0.9-0.7-6.5-2.1-10.2-1.4-3.6-4.7-5.7-9.5-5.7h-22.4v29.3h-9.1v-68.5zm-4.1 31.6c10.1 0 15.4-3.6 15.4-12.2 0-7.5-4.5-11.7-12-11.7h-22.8v23.9z"/>
		<path class="st0" d="m198.1 392.7v7.7h-22.8v60.8h-9.1v-60.8h-22.8v-7.7z"/>
		<path class="st0" d="m211.9 392.7v60.8h36.3v7.7h-45.4v-68.5z"/>
		<path class="st0" d="m314.7 392.7v15.4l-32.1 35.6h33.7v17.6h-61.2v-16.5l31.9-34.4h-30v-17.6h57.7z"/>
		<path class="st0" d="m340.7 392.7 8.3 42.3h0.2l8.3-42.3h18.6l8.1 42.9h0.2l8.5-42.9h20.8l-19.2 68.5h-20.5l-7.4-41.7h-0.2l-7.2 41.7h-20.6l-18.6-68.5z"/>
		<path class="st0" d="m475.8 392.7v17.6h-35.6v8.5h32.3v16.3h-32.3v8.5h36.7v17.6h-57.8v-68.5z"/>
		<path class="st0" d="m506.7 392.7v68.5h-21.1v-68.5z"/>
		<path d="m289.1 292.4v-85.1l-34 6.6v85.1z"/>
		<path d="m340.2 197.4-34.1 6.6v85l34.1-6.6z"/>
		<path d="m187.1 137.6v221.1h68v-34h-34v-153.1h85v-34z"/>
		<path d="m374.2 324.7h-85.1v34h119.1v-221.1h-68v34h34z"/>
</g>
</svg>
