<svg width="800" height="462.2" space="preserve" version="1.1" viewBox="0 0 800 462.2" xmlns="http://www.w3.org/2000/svg">
 <link href="" rel="stylesheet" type="text/css"/>
 <style type="text/css"/>
 <style type="text/css">.st0{fill:#007896;}
	.st1{fill:#FFFFFF;}</style>
 <g transform="scale(4.6593)">
  <path class="st0" d="m0 99.2h66.5v-99.2h-66.5z" fill="#007896"/>
  <path class="st1" d="m49.1 63.1v5.3c0 1.2-0.3 1.6-1.2 2.1l-10.5 5.8c-0.6 0.3-1 0.5-1.5 0.5-0.2 0-0.5-0.1-1.1-0.2l-2.1-0.5c-1.9-0.4-1.2-0.9-1.8-2.3-0.5-1.1-1.3-2.3-3.8-2.3-2.7 0-3.8 1.4-3.8 4.4v4.6h24.3c1 0 1.3 0.3 1.3 1.3v4.5c0 1-0.3 1.3-1.3 1.3h-28.7c-1 0-1.3-0.3-1.3-1.3v-10.9c0-7.5 3.4-11 9.5-11 4.7 0 6.9 2.7 8.4 5.1l11.8-7.1c1.3-0.8 1.8 0 1.8 0.7z" fill="#fff"/>
  <path class="st1" d="m22.3 35.7c1 0 1.3 0.3 1.3 1.3v8.3h24.2c1 0 1.3 0.3 1.3 1.3v4.4c0 1-0.3 1.3-1.3 1.3h-24.2v8.3c0 1-0.3 1.3-1.3 1.3h-3.3c-1 0-1.3-0.3-1.3-1.3v-23.7c0-1 0.3-1.3 1.3-1.3h3.3z" fill="#fff"/>
  <path class="st1" d="m49.4 24.1c0 3.5-0.2 7-0.4 8.5-0.1 0.6-0.4 1-1.1 0.9l-3.9-0.6c-1.1-0.2-1.2-0.5-1.1-1.8 0.1-1.2 0.4-4.8 0.4-6.9 0-4.5-0.5-6.4-3.2-6.4-1.9 0-2.7 1.3-3.5 4.3l-0.9 3.6c-1.2 4.7-4.2 7.5-9.2 7.5-5.6 0-9.1-3.9-9.1-12 0-4 0.2-7.1 0.4-8.5 0.1-0.6 0.4-1 1.1-0.9l3.7 0.6c1.1 0.2 1.2 0.5 1.1 1.8-0.1 1.2-0.3 4.3-0.3 7.3 0 2.3 0.5 4.6 3 4.6 1.8 0 2.6-1.1 3.2-3.6l0.9-3.6c1.7-6.5 4.8-8.3 9.1-8.3 7.2 0 9.8 5.7 9.8 13.5z" fill="#fff"/>
  <path d="m72.5 0h99.2v99.2h-99.2z" fill="#007896"/>
  <path class="st1" d="m113.9 86.5c0 0.6 0.5 1.1 1.1 1.1h18.8c0.6 0 1.1-0.5 1.1-1.1v-73.7c0-0.6-0.5-1.1-1.1-1.1h-14.4c-0.6 0-1.6 0.1-2.2 0.3l-19.5 5.2c-0.6 0.2-0.9 0.8-0.8 1.4l3.3 13.6c0.1 0.6 0.7 1 1.3 0.8l12.3-2.7v56.2z" fill="#fff"/>
 </g>
</svg>
