<svg width="800" height="285.97" version="1.1" viewBox="0 0 800 285.97" xml:space="preserve" xmlns="http://www.w3.org/2000/svg"><g transform="matrix(1.3333 0 0 -1.3333 -506.39 332.2)"><g transform="matrix(3.2267 0 0 3.2267 -845.69 -77.203)"><g transform="translate(468.15 71.45)"><path d="m0 0v-13.055c0-0.315-0.413-0.433-0.579-0.165l-8.285 13.386c-0.221 0.378-0.441 0.504-1.009 0.504h-3.565v-22.206h3.502c0.536 0 0.757 0.22 0.757 0.788v12.939c0 0.315 0.413 0.433 0.579 0.165l8.285-13.356c0.22-0.379 0.441-0.536 0.977-0.536h3.596v22.206h-3.588c-0.37 0-0.67-0.3-0.67-0.67" fill="#006faf"/></g><g transform="translate(511.87 53.416)"><path d="m0 0c-3.596 0-5.362 2.523-5.362 7.602s1.766 7.634 5.362 7.634c3.564 0 5.331-2.555 5.331-7.634s-1.767-7.602-5.331-7.602m0 19.084c-6.183 0-9.842-3.817-9.842-11.482s3.659-11.45 9.811-11.45c6.214 0 9.873 3.785 9.873 11.45s-3.659 11.482-9.842 11.482" fill="#006faf"/></g><g transform="translate(554.61 53.826)"><path d="m0 0h-1.409c-0.494 0-0.894 0.4-0.894 0.894v12.596c0 0.494 0.4 0.894 0.894 0.894h1.378c4.321 0 6.687-1.451 6.687-6.971 0-5.931-2.366-7.413-6.656-7.413m0.126 18.295h-6.845v-22.206h6.877c7.097 0 10.977 2.965 10.977 11.324 0 7.949-3.88 10.882-11.009 10.882" fill="#006faf"/></g><g transform="translate(445.82 72.121)"><path d="m0 0v-14.636c0-2.65-1.167-4.006-3.47-4.006-1.159 0-2.022 0.279-2.789 0.566l-1.049 0.398-1.327-3.5 1.548-0.587c1.088-0.447 2.617-0.789 4.28-0.789 4.731 0 7.192 2.492 7.192 7.539v15.015z" fill="#006faf"/></g><path d="m429.86 49.914h4.416v22.207h-4.416z" fill="#006faf"/><g transform="translate(494.71 72.121)"><path d="m0 0c-0.442 0-0.694-0.126-0.883-0.442l-5.768-9.475c-0.189-0.311-0.641-0.311-0.83 0l-5.767 9.475c-0.19 0.316-0.442 0.442-0.915 0.442h-3.47v-22.207h3.533c0.505 0 0.757 0.221 0.757 0.789v13.018c0 0.316 0.415 0.433 0.58 0.163l5.003-8.197c0.127-0.253 0.402-0.41 0.694-0.41 0.316 0 0.537 0.157 0.694 0.41l5.004 8.197c0.164 0.27 0.579 0.153 0.579-0.163v-13.018c0-0.568 0.221-0.789 0.757-0.789h3.533v22.207z" fill="#006faf"/></g><g transform="translate(539.72 72.121)"><path d="m0 0c-0.418 0-0.757-0.339-0.757-0.757v-12.969c0-0.315-0.413-0.432-0.579-0.164l-8.285 13.385c-0.221 0.379-0.441 0.505-1.009 0.505h-3.564v-22.207h3.501c0.536 0 0.757 0.221 0.757 0.789v12.939c0 0.315 0.413 0.432 0.579 0.165l8.285-13.357c0.22-0.378 0.441-0.536 0.978-0.536h3.595v22.207z" fill="#006faf"/></g><g transform="translate(404.46 86.535)"><path d="m0 0c3.383-1.464 5.985-4.749 6.45-9.032 0.546-5.036-4.072-11.543-10.322-11.543-1.545 0-4.215-0.248-15.575 1.789 0 0-2.981 0.708-5.202-1.572v34.964h19.099c13.637 0 25.645-9.985 25.428-24.119-0.139-9.12-3.034-13.127-7.758-17.744l13.015-24.606-20.346 0.017-9.73 18.11c-0.385-7e-3 -0.622 0.035-0.715 0.036l3e-3 -18.156h-19.008v4.637h0.012v18.161c1.028 1.015 2.625 1.589 4.034 1.589 0.21 0 0.418-0.014 0.622-0.036l0.09-0.017v-17.689c0-1.049 0.85-1.899 1.898-1.899h5.695c1.049 0 1.899 0.85 1.899 1.899v15.572c-1e-3 0.616 0.577 1.069 1.175 0.923 2.765-0.675 4.027-0.581 6.741-0.283 0.387 0.042 0.761-0.156 0.942-0.501 1.366-2.597 6.957-13.229 8.726-16.593 0.332-0.631 0.988-1.022 1.7-1.015l6.169 0.065c0.955 9e-3 1.562 1.027 1.116 1.873l-9.679 18.356c-0.225 0.425-0.094 0.951 0.302 1.225 0.631 0.436 1.018 0.779 1.868 1.498 4.101 3.468 6.264 8.903 6.264 14.509 0 11.061-9.465 19.411-20.524 19.425 0 0-8.985-3e-3 -12.393-1e-3 -1.049 1e-3 -1.899-0.849-1.899-1.898v-20.258c0-0.918 0.656-1.704 1.56-1.868 3.66-0.664 12.716-2.145 15.742-1.129 2.625 0.712 4.305 3.176 4.305 5.933 0 0.211 0.187 4.306-2.837 7.08-0.038 0.034-1.129 0.917-0.446 1.924 0.621 0.818 1.579 0.374 1.579 0.374" fill="#006faf"/></g></g></g></svg>
