<svg width="800" height="268.5" version="1.2" viewBox="0 0 800 268.5" xml:space="preserve" xmlns="http://www.w3.org/2000/svg" xmlns:xlink="http://www.w3.org/1999/xlink"><defs><linearGradient id="linearGradient904"><stop stop-color="#f47595" offset="0"/><stop stop-color="#6c3ea1" offset="1"/></linearGradient>
	<linearGradient id="linearGradient1075" x1="222.74" x2="571.05" y1="668.7" y2="181.52" gradientUnits="userSpaceOnUse" xlink:href="#linearGradient904"/><linearGradient id="linearGradient1079" x1="228.41" x2="571.05" y1="660.72" y2="181.52" gradientUnits="userSpaceOnUse" xlink:href="#linearGradient904"/><linearGradient id="linearGradient1081" x1="230.86" x2="571.05" y1="665.46" y2="181.52" gradientUnits="userSpaceOnUse" xlink:href="#linearGradient904"/></defs>
<g transform="matrix(.53773 0 0 .53773 454.45 -95.244)" shape-rendering="auto" stroke-width="1.3151"><path d="m225.35 177.12h330.81l-120.41 168.62h-136.85l-87.759-146.09c-7.4983-12.165-7.1669-22.533 14.206-22.533z" color="#000000" color-rendering="auto" fill="url(#linearGradient1075)" image-rendering="auto" solid-color="#000000" style="isolation:auto;mix-blend-mode:normal"/><path d="m637.51 373.68-186.49 287.59-70.115-213.61 190.14-266.14 66.465 154.98c6.6927 15.515 6.8863 25.248 0 37.176z" color="#000000" color-rendering="auto" fill="url(#linearGradient1081)" image-rendering="auto" solid-color="#000000" style="isolation:auto;mix-blend-mode:normal"/><path d="m437.03 668.7h-199.77c-8.3335 0-10.105-6.195-3.5139-15.429l135.75-190.17" color="#000000" color-rendering="auto" fill="url(#linearGradient1079)" image-rendering="auto" solid-color="#000000" style="isolation:auto;mix-blend-mode:normal"/></g><g transform="matrix(.8151 0 0 .8151 -249.18 -220.08)" fill="#fff"><path d="m954.7 599.4c-8.5 0-14-1.9-16.2-2.4-21.1-4.2-37.9-15.2-50.8-32.5-32.5-43.7-65.1-87.4-97.7-131.1-9.6-12.9-19.3-25.9-29-38.8-0.5-0.7-0.9-1.4-1.8-2.6h4.9c21.9 0 43.9 0.1 65.8-0.1 3.5 0 5.6 1.2 7.6 3.9 33 44.3 66.2 88.5 99.3 132.7 6.2 8.3 13.8 11.1 22.4 8.5 4.9-1.5 8.2-5 11.2-9 33-44.1 66.1-88.2 99-132.4 2-2.6 3.9-3.7 7.3-3.7 21.9 0.2 43.9 0.1 65.8 0.1h4.3c0.1 1.9-1.1 2.7-1.9 3.7-42.1 56.5-84.3 113-126.4 169.6-12.8 17.2-29.7 27.6-50.6 32-2.3 0.5-7.9 2.1-13.2 2.1z"/><path d="m305.8 492.2c0.3-10.5 1.2-14.5 1.5-16.1 8.6-48.8 50.1-84 99.5-84.1 35.4-0.1 70.9 0.1 106.3-0.1 3.8 0 4.5 1.2 4.5 4.7-0.2 17.6-0.2 35.3 0 52.9 0 3.9-1.2 4.5-4.7 4.5-34.7-0.1-69.4-0.1-104.1-0.1-24.7 0-41.3 16.6-41.3 41.2 0 31.6-0.1 63.2 0.1 94.7 0 4.2-1.3 4.8-5 4.7-17.5-0.2-35-0.1-52.5-0.1-1.5 0-2.9 0.2-4.4 0.3 0.1-37.8 0.1-64.5 0.1-102.5z"/><path d="m530.1 416.8c0-27.4 0.1-54.9-0.1-82.3 0-3.2 0.6-4.2 4-4.2 17.9 0.2 35.9 0.2 53.8 0 3.1 0 3.9 0.8 3.9 3.9-0.2 17.9 0 35.9-0.2 53.8 0 3.4 0.9 4.1 4.2 4.1 51.5-0.1 102.9 0 154.4-0.2 4.1 0 5.5 0.7 5.4 5.2-0.3 17.3-0.3 34.7 0 52.1 0 3.8-0.8 4.9-4.8 4.9-51.3-0.2-102.6 0-153.9-0.2-4.3 0-5.4 1-5.2 5.3 0.5 13.2-0.8 26.4 0.6 39.6 2.1 19.2 18.5 33.6 37.9 33.9 16.9 0.2 33.8 0.1 50.7 0.1 34.1 0 68.2 0 102.3-0.1 3.2 0 4.3 0.6 4.2 4-0.2 18.1-0.2 36.2 0 54.3 0 2.9-0.7 3.7-3.7 3.7-51.3-0.1-102.6 0.3-153.9-0.2-55.7-0.5-99.6-45.5-99.7-101.2 0.1-25.5 0.1-51 0.1-76.5z"/></g>
</svg>
