<svg width="557.99" height="800" version="1.1" viewBox="0 0 557.99 800" xml:space="preserve" xmlns="http://www.w3.org/2000/svg">
<path d="m529.74 301.79-7.7517 27.065-7.6203 26.671-115.75 12.613-66.349 175.27c-14.058 2.365-28.51 3.6788-43.226 3.6788-69.896 0-133.09-28.379-178.95-74.232l-1.0511-1.0511c-18.919-19.97-34.029-36.262-46.51-70.948l6.9634 0.2628 215.21-108.52c-65.955 12.219-99.589-31.401-99.589-31.401l114.7-40.072-67.137-32.583-57.021-27.722c-11.956-5.7809-23.518-12.35-34.423-19.839-1.1825-0.7883-2.2335-1.5766-3.1532-2.2335-4.8613-3.416-9.5911-7.0948-14.19-10.905-5.2553-4.4671-22.73-17.211-40.466-44.145 6.7006-7.2261 14.058-14.19 21.547-20.496 7.4889 12.35 35.737 40.466 37.05 41.518 12.876 11.036 32.978 8.0145 41.123-6.9634 0-0.1313 18.525-29.562 4.3357-80.407 7.6203-3.2846 14.846-4.5984 22.861-7.2261 0.6569 2.4963 9.0656 19.839 8.6714 43.62-0.3942 20.102-3.5474 36.262-16.554 58.466-7.2262 12.219-0.7883 28.116 12.744 32.189 8.2772 2.4963 16.817 4.3357 25.488 5.7809 26.014 4.2043 52.291-8.0144 65.824-30.481 0.1313-0.1313 0.1313-0.2627 0.2627-0.3941 8.2772-13.927 12.087-29.693 12.087-47.167 0-13.138-0.9197-44.802-32.452-72.13 8.9342 0.3942 25.62 0.5255 34.423 1.9708 0 0 24.7 29.561 23.912 69.634-0.2627 13.401-2.2335 26.408-6.4378 38.496-3.2846 9.4597-8.6714 18.525-14.19 26.671-2.6277 3.9416 1.051 9.3283 5.6495 7.8831 41.649-13.138 75.678-35.999 101.17-68.189-8.5399-5.6496-17.343-10.642-26.408-15.241 1.1824-1.4453 4.7298-5.3868 5.9123-6.9634 18.131 8.4086 34.028 19.839 49.926 32.189-1.4453 2.1021-4.073 5.5181-5.6496 7.6203-1.4452 1.8394-2.8904 3.6787-4.467 5.3867-1.708 2.1022-3.5474 4.2043-5.3868 6.1751-39.81 44.145-96.305 72.918-159.63 76.203z" fill="#15294e" stroke-width="1.3138"/><g transform="matrix(1.3138 0 0 1.3138 -8720.4 -9031.8)" fill="#6b89b5">
		<path d="m6888.3 6984.4c-3.5 1-6.3-2.9-4.3-6 4.2-6.3 7.6-13.1 10.1-20.3 3.2-9.2 4.9-19 4.9-29.3 0-8.7-1.3-17.1-3.6-25.1-0.8-2.7-1.7-5.3-2.7-7.8-2.9-7.2-6.6-14-11.2-20.1 27.9 3.1 54.3 11.4 78.1 23.9 6.8 3.5 13.4 7.4 19.8 11.6-22.4 41.4-60.3 64.1-91.1 73.1z"/>
		<path d="m6880.9 6928.8c0 13.3-3.6 25.7-10 36.3-0.1 0.1-0.1 0.2-0.2 0.3-10.3 17.2-30.3 26.4-50.1 23.2-6.6-1.1-13.1-2.5-19.4-4.4-10.3-3.1-15.2-15.2-9.7-24.5 0.5-0.9 1.1-1.9 1.6-2.8 6.8-12.6 10.6-27 10.6-42.2 0-2.6-0.1-5.2-0.3-7.8-0.2-2.4-0.5-4.8-0.9-7.2-1-6.1-2.7-12-4.9-17.7 18.4-5 37.8-7.7 57.8-7.7 6.3 5.3 11.7 11.7 15.9 18.9 1.4 2.4 2.7 4.9 3.8 7.5 3.7 8.7 5.8 18.2 5.8 28.1z"/>
		<path d="m6785.5 6914.7c0 12.3-3.1 23.8-8.6 33.8 0 0.1-0.1 0.1-0.1 0.2-6.2 11.3-21.4 13.7-31.3 5.3-1-0.9-2-1.7-3-2.6-3.3-2.9-6.4-5.9-9.3-9.1-1.7-1.7-3.3-3.5-4.8-5.3-2.7-3.1-5.3-6.4-7.7-9.7-1.2-1.6-2.3-3.2-3.4-4.9l3.9-3c4.8-3.6 9.7-7.1 14.8-10.3 2.3-1.5 4.6-2.9 7-4.3 11.7-6.9 24.1-12.7 37.1-17.3 2.3 5.6 4 11.6 4.8 17.8 0.3 2.5 0.5 4.9 0.6 7.5v1.9z"/>
		<path d="m6778.3 7073.2 87.3-30.5-51.1-24.8-43.4-21.1c-9.1-4.4-17.9-9.4-26.2-15.1-0.9-0.6-1.7-1.2-2.4-1.7-3.7-2.6-7.3-5.4-10.8-8.3-5.4-4.5-10.5-9.4-15.3-14.5-1.6-1.8-3.3-3.5-4.8-5.3-3.8-4.4-7.4-9-10.7-13.8-39.3 39.5-63.6 93.9-63.6 154 0 18.4 2.3 36.3 6.6 53.4 1.9 7.7 10.1 12.1 17.6 9.5 15.9-5.6 40.4-14.4 44.2-15.2 2.8-0.2 4.9 2.6 3.7 5.2-5.3 10.9-15.5 18.8-25.3 27.9-2.5 2.3-1.3 6.4 2 7 1.4 0.3 2.8 0.1 4.2-0.2l163.8-82.6c-50.2 9.2-75.8-23.9-75.8-23.9zm-102.6 5.7c-2.2 3.1-5.7 4.8-9.2 5-0.9 0-1.9 0-2.8-0.2-1.6-0.3-3.2-1-4.6-2-5.4-3.8-6.6-11.2-2.8-16.6 2.4-3.3 6.1-5 9.8-5 1.6 0 3.3 0.4 4.8 1.1 0.6 0.3 1.3 0.7 1.9 1.1 5.5 3.8 6.8 11.2 2.9 16.6z"/>
		<path d="m6987.7 6940.1c-1.4 2-2.8 3.9-4.3 5.7-1.1 1.4-2.2 2.8-3.4 4.1-1.3 1.6-2.7 3.2-4.1 4.7-30.3 33.6-73.3 55.5-121.5 58l186.1 91.2-5.9 20.6-5.8 20.3-88.1 9.6-50.5 133.4c-10.7 1.8-21.7 2.8-32.9 2.8-69.5 0-130.4-36.8-164.2-92 19.7 39 52.4 70.3 92.2 88.4 24.2 11 51.2 17.1 79.5 17.1 3.4 0 6.8-0.1 10.2-0.3 3.1-0.2 6.3-0.4 9.4-0.7 69.4-7 127.9-50.9 155.6-111.8 14.1-27.9 22-59.4 22-92.8 0.2-63.5-28.8-120.5-74.3-158.3z"/>
	</g><g transform="matrix(1.3138 0 0 1.3138 -8720.4 -9031.8)" fill="#6b89b5">
		<path d="m6702.5 7367.2c3.2 2.9 4.9 7 4.9 12.3 0 5.9-1.6 10.3-4.8 13.3s-7.8 4.4-13.8 4.4h-6.1v6.1c0 2.7 0.4 5 1.2 6.8s1.7 3.1 2.8 3.8v0.1h-18.1v-0.1c1.1-0.7 2-2 2.8-3.9s1.2-4.2 1.2-7v-29.5c0-2.7-0.4-5-1.2-6.8s-1.7-3.1-2.8-3.8v-0.1h20.2c5.9 0 10.4 1.5 13.7 4.4zm-5.6 12.8c0-3.4-0.8-5.9-2.4-7.5s-4.1-2.4-7.4-2.4h-4.4v19.7l4.4 0.1c6.5 0.1 9.8-3.2 9.8-9.9z"/>
		<path d="m6748.3 7384.7c3.4 2.8 5.1 6.8 5.1 11.9 0 3.7-0.8 6.9-2.4 9.6-1.6 2.6-3.7 4.6-6.4 6s-5.7 2-9 2h-21.7v-0.1c1.1-0.7 2-2 2.8-3.9s1.2-4.2 1.2-7v-29.5c0-2.7-0.4-5-1.2-6.8s-1.7-3.1-2.8-3.8v-0.1h18.1v0.1c-1.1 0.7-2 2-2.8 3.9s-1.2 4.2-1.2 7v6.5h6.9c5.6-0.1 10 1.3 13.4 4.2zm-5.5 12.5c0-3.2-0.8-5.6-2.5-7.1-1.7-1.6-4.3-2.3-7.9-2.3h-4.3v19.1h4.3c6.9-0.1 10.4-3.3 10.4-9.7zm13.4 16.8c1.1-0.7 2-2 2.8-3.9s1.2-4.2 1.2-7v-29.2c0-2.9-0.4-5.2-1.2-7.1-0.8-1.8-1.7-3.1-2.8-3.9v-0.1h18.2v0.1c-1.1 0.7-2 2-2.8 3.9s-1.2 4.2-1.2 7v29.2c0 2.9 0.4 5.2 1.2 7.1 0.8 1.8 1.7 3.1 2.8 3.9v0.1h-18.2z"/>
		<path d="m6818.3 7386.8c3.2 2.7 4.8 6.3 4.8 10.8 0 5.1-1.6 9.1-4.8 12.1s-7.8 4.5-13.7 4.5h-21.5v-0.1c1.1-0.7 2-2 2.8-3.9s1.2-4.2 1.2-7v-29.2c0-2.9-0.4-5.2-1.2-7.1-0.8-1.8-1.7-3.1-2.8-3.9v-0.1h24.2c5.3 0 8.8-0.2 10.7-0.5l1.2 13.1-0.1 0.1c-0.8-1.8-2.2-3.1-4.2-4.1-2-0.9-4.4-1.4-7.3-1.4h-10.3v12.7h7.4c5.9 0 10.4 1.3 13.6 4zm-8 17.7c1.5-1.5 2.2-3.7 2.2-6.5 0-2.7-0.7-4.7-2.2-6.1s-3.7-2.1-6.6-2.1l-6.5 0.1v17l6.5-0.1c3 0 5.2-0.8 6.6-2.3z"/>
		<path d="m6872.6 7409.3c1.4 2.2 2.6 3.8 3.8 4.7v0.1h-16.7v-0.1c0.8-0.6 1.2-1.7 1.2-3.4 0-1.6-0.4-3.5-1.2-5.7l-0.7-1.8h-19l-0.7 1.8c-0.8 2-1.2 3.9-1.2 5.6s0.3 2.9 1 3.5v0.1h-15.5v-0.1c1.1-1 2.4-2.6 3.7-4.7 1.4-2.2 2.5-4.6 3.4-7.2l10.6-30.4c0.4-1.3 0.7-2.5 0.7-3.6s-0.2-2.1-0.6-3-0.9-1.6-1.4-2v-0.1h19.6v0.1c-0.5 0.5-1 1.2-1.4 2-0.4 0.9-0.6 1.9-0.6 3s0.2 2.3 0.7 3.6l10.9 30.4c0.9 2.6 2 5 3.4 7.2zm-24.7-29.5c-0.6 2.2-1.6 5-2.7 8.3l-2.7 7.8h14.2l-2.7-7.8c-1.2-3.5-2.2-6.4-2.8-8.5s-1.1-4.4-1.5-6.9h-0.3c-0.4 2.5-0.9 4.9-1.5 7.1z"/>
		<path d="m6876.8 7414c1.2-1 2.5-2.6 3.8-4.8 1.4-2.1 2.5-4.5 3.4-7.2l9.6-29.2c0.5-1.7 0.8-3.2 0.8-4.4s-0.2-2.2-0.6-3.2c-0.4-0.9-0.9-1.7-1.5-2.3v-0.1h20.2v0.1c-1.2 1-1.8 2.6-1.8 4.9 0 1.4 0.3 3 0.9 4.7l9.7 29.5c0.9 2.7 2 5.1 3.4 7.2s2.7 3.7 3.8 4.8v0.1h-17.1v-0.1c0.6-0.6 1-1.7 1-3.2 0-1.4-0.4-3.4-1.1-5.9l-5.1-16.5c-1-3.2-1.8-6-2.4-8.3s-1.1-4.7-1.4-7h-0.3c-0.3 2.3-0.7 4.6-1.3 6.8s-1.4 5-2.4 8.5l-5.1 16.5c-0.7 2.5-1.1 4.5-1.1 5.9 0 1.6 0.3 2.6 1 3.2v0.1h-16.3v-0.1z"/>
		<path d="m6946.7 7410.1c0.7 1.8 1.6 3.1 2.5 3.9v0.1h-17.7v-0.1c1.1-0.7 2-2 2.8-3.9s1.2-4.2 1.2-7v-29.5c0-2.7-0.4-5-1.2-6.8s-1.7-3.1-2.8-3.8v-0.1h17.7v0.1c-1 0.7-1.8 2-2.5 3.9s-1.1 4.2-1.1 7v29.2c0.1 2.9 0.4 5.2 1.1 7zm28.7 0.1c1.2 1.1 2.7 2 4.5 2.7v0.1l-14.8 2.5c-0.2-0.8-0.6-1.9-1.3-3.2s-1.4-2.6-2.3-3.8l-14.9-22.2 12.5-17.6c1.7-2.5 2.5-4.4 2.4-5.9h15.4v0.1c-1.4 0.7-2.9 1.8-4.4 3.2-1.5 1.5-3 3.1-4.3 4.9l-10.4 14.1 14 20.5c1.1 2.1 2.4 3.6 3.6 4.6z"/>
		<path d="m7029.6 7409.3c1.4 2.2 2.6 3.8 3.8 4.7v0.1h-16.7v-0.1c0.8-0.6 1.2-1.7 1.2-3.4 0-1.6-0.4-3.5-1.2-5.7l-0.7-1.8h-19l-0.7 1.8c-0.8 2-1.2 3.9-1.2 5.6s0.3 2.9 1 3.5v0.1h-15.5v-0.1c1.1-1 2.4-2.6 3.7-4.7 1.4-2.2 2.5-4.6 3.4-7.2l10.6-30.4c0.4-1.3 0.7-2.5 0.7-3.6s-0.2-2.1-0.6-3-0.9-1.6-1.4-2v-0.1h19.6v0.1c-0.5 0.5-1 1.2-1.4 2-0.4 0.9-0.6 1.9-0.6 3s0.2 2.3 0.7 3.6l10.9 30.4c0.9 2.6 2 5 3.4 7.2zm-24.7-29.5c-0.6 2.2-1.6 5-2.7 8.3l-2.7 7.8h14.2l-2.7-7.8c-1.2-3.5-2.2-6.4-2.8-8.5s-1.1-4.4-1.5-6.9h-0.3c-0.4 2.5-0.9 4.9-1.5 7.1z"/>
		<path d="m6689.8 7481.5c1-0.7 1.9-2.1 2.6-4 0.8-1.9 1.1-4.2 1.1-7v-29.2c0-2.9-0.4-5.2-1.2-7.1-0.8-1.8-1.7-3.1-2.8-3.9v-0.1h18v0.1c-1 0.7-1.9 2.1-2.7 4s-1.2 4.2-1.2 7v13c0 4.3-0.5 9.5-1.6 15.5h0.3c1.6-4.6 4-9.6 7.2-14.8l10.6-17.6c1.1-1.9 1.9-3.3 2.3-4.3s0.6-1.9 0.7-2.8h16.3v0.1c-0.6 0.3-1.2 1-1.9 2.1s-1.3 2.4-1.7 4c-0.5 1.5-0.7 3-0.7 4.5v29.5c0 2.9 0.4 5.2 1.2 7.1 0.8 1.8 1.7 3.1 2.8 3.9v0.1h-18.2v-0.1c1.1-0.7 2-2 2.8-3.9s1.2-4.2 1.2-7v-13.3c0-4.9 0.7-10.4 2.1-16.4h-0.3c-2 5.6-4.5 10.9-7.5 15.7l-11.2 18c-1.6 2.6-2.8 4.9-3.7 7h-14.7v-0.1z"/>
		<path d="m6777.9 7479.6c-4-2.3-7-5.5-9.1-9.5s-3.1-8.6-3.1-13.7c0-5.5 1.1-10.3 3.3-14.5s5.4-7.4 9.5-9.7 9-3.4 14.6-3.4c5.2 0 9.8 1.1 13.8 3.3s7.1 5.3 9.3 9.4c2.2 4 3.3 8.7 3.3 13.9 0 5.4-1.1 10.2-3.4 14.4s-5.5 7.5-9.7 9.8-8.9 3.5-14.4 3.5c-5.4 0-10.1-1.1-14.1-3.5zm22.9-6.5c2.4-1.6 4.3-3.8 5.6-6.8 1.4-2.9 2-6.3 2-10.2 0-6.2-1.4-11-4.3-14.5-2.9-3.4-6.8-5.2-11.8-5.2-3.2 0-6 0.8-8.3 2.4-2.4 1.6-4.2 3.8-5.4 6.7-1.3 2.9-1.9 6.2-1.9 10.1 0 6.2 1.4 11 4.1 14.5 2.8 3.5 6.7 5.2 11.9 5.2 3 0.1 5.7-0.6 8.1-2.2z"/>
		<path d="m6864.4 7476.2c1.8 1.8 3.5 3.2 4.9 4.2v0.1l-15.4 2.7c0-1-0.4-2.3-1.1-3.8-0.8-1.6-1.9-3.6-3.5-6l-7.5-11.7-8.1 13.2c-1 1.6-1.5 3-1.5 4.2 0 1 0.3 1.7 1 2.3v0.1h-17.4v-0.1c1.3-0.6 2.7-1.7 4.4-3.5 1.6-1.7 3.2-3.7 4.8-6.1l11.4-17.6-11.7-17.4c-1-1.5-2-2.8-3-3.7-1-1-2.2-1.9-3.6-2.7v-0.1h17.2v0.1c-0.1 0.6-0.1 1-0.1 1.3 0 0.8 0.2 1.7 0.5 2.6s0.9 1.9 1.6 3.2l5.6 9.4 5.2-9c0.7-1.3 1.3-2.4 1.6-3.2s0.5-1.5 0.5-2.2-0.2-1.4-0.5-2v-0.1h16.2v0.1c-1.2 0.4-2.5 1.4-4 3-1.5 1.5-3 3.5-4.5 6l-9.1 14.9 10.9 15.7c1.6 2.2 3.4 4.3 5.2 6.1z"/>
		<path d="m6877.9 7479.6c-4-2.3-7-5.5-9.1-9.5s-3.1-8.6-3.1-13.7c0-5.5 1.1-10.3 3.3-14.5s5.4-7.4 9.5-9.7 9-3.4 14.6-3.4c5.2 0 9.8 1.1 13.8 3.3s7.1 5.3 9.3 9.4c2.2 4 3.3 8.7 3.3 13.9 0 5.4-1.1 10.2-3.4 14.4s-5.5 7.5-9.7 9.8-8.9 3.5-14.4 3.5c-5.4 0-10.1-1.1-14.1-3.5zm22.9-6.5c2.4-1.6 4.3-3.8 5.6-6.8 1.4-2.9 2-6.3 2-10.2 0-6.2-1.4-11-4.3-14.5-2.9-3.4-6.8-5.2-11.8-5.2-3.2 0-6 0.8-8.3 2.4-2.4 1.6-4.2 3.8-5.4 6.7-1.3 2.9-1.9 6.2-1.9 10.1 0 6.2 1.4 11 4.1 14.5 2.8 3.5 6.7 5.2 11.9 5.2 3 0.1 5.7-0.6 8.1-2.2z"/>
		<path d="m6962.5 7443.2-0.1 0.1c-0.9-1.6-2.2-2.9-3.9-3.9s-3.6-1.6-5.7-1.6h-5.5v32.1c0 3 0.4 5.5 1.3 7.5s1.9 3.3 3.2 4v0.1h-19.1v-0.1c1.2-0.7 2.2-2.1 3.1-4.1s1.4-4.5 1.4-7.4v-32.1h-5.6c-2.1 0-4 0.5-5.7 1.6-1.7 1-3 2.3-3.9 3.9l-0.1-0.1 1.3-13.5c3 0.4 6.4 0.6 10.1 0.6h18c3.7 0 7.1-0.2 10.1-0.6z"/>
		<path d="m7008.6 7476.8c1.4 2.2 2.6 3.8 3.8 4.7v0.1h-16.7v-0.1c0.8-0.6 1.2-1.7 1.2-3.4 0-1.6-0.4-3.5-1.2-5.7l-0.7-1.8h-19l-0.7 1.8c-0.8 2-1.2 3.9-1.2 5.6s0.3 2.9 1 3.5v0.1h-15.5v-0.1c1.1-1 2.4-2.6 3.7-4.7 1.4-2.2 2.5-4.6 3.4-7.2l10.6-30.4c0.4-1.3 0.7-2.5 0.7-3.6s-0.2-2.1-0.6-3-0.9-1.6-1.4-2v-0.1h19.6v0.1c-0.5 0.5-1 1.2-1.4 2-0.4 0.9-0.6 1.9-0.6 3s0.2 2.3 0.7 3.6l10.9 30.4c0.9 2.6 2 5 3.4 7.2zm-24.7-29.5c-0.6 2.2-1.6 5-2.7 8.3l-2.7 7.8h14.2l-2.7-7.8c-1.2-3.5-2.2-6.4-2.8-8.5s-1.1-4.4-1.5-6.9h-0.3c-0.4 2.5-0.9 4.8-1.5 7.1z"/>
	</g>
</svg>
