<svg version="1.1" viewBox="0 0 536.16 536.16" xml:space="preserve" xmlns="http://www.w3.org/2000/svg"><defs><clipPath id="a"><path d="m18.362 402.84h15.428v10.735h-15.428z"/></clipPath></defs>
<style type="text/css">
	.st0{fill:#FFFFFF;}
	.st1{fill:#E41520;}
</style>
<g transform="matrix(68.703 0 0 -68.703 -1308.8 28307)"><g clip-path="url(#a)"><g transform="translate(26.853 408.11)"><path d="m0 0c0-2.155-1.747-3.902-3.902-3.902s-3.902 1.747-3.902 3.902 1.747 3.902 3.902 3.902 3.902-1.747 3.902-3.902" fill="#eb1c26"/></g><g transform="translate(21.912 406.11)"><path d="m0 0h1e-3c0.224 0 0.456 0.062 0.641 0.206 0.234 0.185 0.394 0.451 0.417 0.758v2e-3c3e-3 0.027 5e-3 0.051 5e-3 0.078v2e-3c0 0.269-0.128 0.53-0.319 0.726l-0.893 0.922c-0.064 0.064-0.095 0.136-0.095 0.221 0 0.01 1e-3 0.021 2e-3 0.032v3e-3c6e-3 0.104 0.047 0.176 0.13 0.24 0.063 0.048 0.131 0.072 0.204 0.072 0.021 0 0.042-2e-3 0.064-6e-3 0.1-0.025 0.171-0.078 0.225-0.165 0.061-0.108 0.175-0.17 0.293-0.169 0.056 0 0.114 0.014 0.166 0.044l4e-3 2e-3c0.106 0.069 0.168 0.181 0.168 0.298 0 0.057-0.014 0.114-0.044 0.166-0.145 0.261-0.394 0.424-0.674 0.489h-2e-3l-1e-3 1e-3c-0.065 0.012-0.13 0.018-0.195 0.018-0.22 0-0.437-0.07-0.619-0.205-0.236-0.176-0.375-0.442-0.399-0.731-2e-3 -0.028-3e-3 -0.057-3e-3 -0.086-1e-3 -0.259 0.097-0.509 0.288-0.7l0.898-0.92c0.068-0.074 0.099-0.152 0.1-0.246 0-0.012 0-0.023-1e-3 -0.035-0.017-0.119-0.053-0.199-0.139-0.259h-1e-3l-2e-3 -2e-3c-0.068-0.052-0.14-0.077-0.221-0.077-0.023 0-0.047 2e-3 -0.071 6e-3 -0.103 0.021-0.223 0.119-0.273 0.208l-1e-3 1e-3 -1e-3 2e-3c-0.068 0.106-0.181 0.168-0.298 0.168-0.056 0-0.114-0.015-0.166-0.044-0.108-0.062-0.172-0.175-0.172-0.294 0-0.059 0.016-0.12 0.051-0.175 0.148-0.26 0.429-0.464 0.724-0.532h3e-3c0.068-0.012 0.137-0.019 0.206-0.019" fill="#fff"/></g><g transform="translate(23.991 406.45)"><path d="m0 0c2e-3 -0.194 0.164-0.348 0.355-0.349 0.193 0 0.341 0.161 0.341 0.349v3.216c0 0.064-0.015 0.134-0.05 0.194-0.034 0.06-0.099 0.114-0.184 0.116-0.095 3e-3 -0.358 4e-3 -0.559 4e-3h-0.252c-0.089 0-0.176-0.036-0.24-0.1-0.063-0.064-0.099-0.148-0.1-0.236v-6e-3c0-0.09 0.036-0.175 0.1-0.239 0.064-0.065 0.151-0.1 0.24-0.1h1e-3l0.35-2e-3 -2e-3 -0.343z" fill="#fff"/></g></g></g></svg>
