<svg width="800" height="289.35" enable-background="new 0 0 1260 720" space="preserve" version="1.0" viewBox="0 0 800 289.35" xmlns="http://www.w3.org/2000/svg">
 <link rel="stylesheet" type="text/css"/>
 <link rel="stylesheet" type="text/css"/>
 <style type="text/css"/>
 <path d="m0 288.32h13.548v-53.935h29.613v-11.419h-29.613v-41.548h31.677v-11.806h-45.226zm106.52-41.419c0.19355-2.129 0.32258-4.3871 0.32258-7.7419 0-19.226-7.0322-37.548-24.322-37.548-17.097 0-28.71 17.29-28.71 44.903 0 26.258 10.581 42.839 30.839 42.839 6.8387 0 14.064-1.4194 18.839-4.0645l-2.2581-9.8709c-3.3548 1.7419-8.129 3.1613-14.064 3.1613-9.6774 0-19.935-5.4838-20.064-31.677zm-39.29-10c0.51613-11.613 5.0968-24.645 13.935-24.645 6.5161 0 12.839 7.5484 12.71 24.645zm52.064 51.419h13.548v-47.226c0-2.9677 0.19355-5.4838 0.51613-7.7419 1.4194-9.8709 7.7419-17.806 16.387-17.806 1.0322 0 1.9355 0 2.8387 0.19355v-13.935c-0.90322-0.19354-1.7419-0.19354-2.8387-0.19354-7.9354 0-15.161 6.7096-18 14.774h-0.32258l-0.70967-13.419h-12.129c0.19355 6.3226 0.70967 14.774 0.70967 22zm43.419 0h13.548v-53.742c0-2.9677 0.19355-5.6129 0.70968-7.5484 1.6129-9.1612 7.0322-13.935 12.71-13.935 9.8709 0 11.806 10.064 11.806 20.258v54.968h13.548v-57.226c0-20.774-8.8387-29.419-20.581-29.419-8.9677 0-15.871 4.7742-19.548 11.613h-0.32258l-0.70967-10.194h-11.806c0.19354 6.8387 0.70967 12 0.70967 22v63.226zm64.258-3.871c4.0645 2.9677 13.226 4.9032 20.774 4.9032 19.548 0 32.581-10.064 32.581-28 0-8.8387-3.3548-18.323-17.29-25.871-7.9354-4.3871-9.8709-6.1935-9.8709-9.1612 0-3.1613 2.2581-5.8064 7.5484-5.8064 4.7742 0 8.9677 1.6129 12.323 3.3548l4.258-19.742c-5.0968-2.258-11.097-3.871-18.516-3.871-19.032 0-30.451 12.71-30.451 28.903 0 7.0322 2.258 16.71 17.613 25.032 7.0322 3.871 9.6774 5.8064 9.6774 9.4838 0 3.871-2.8387 5.6129-7.9354 5.6129-6 0-12.839-2.4516-16.387-4.5806zm128.39-28.193c0.51613-2.6452 0.90323-6.5161 0.90323-13.935 0-29.097-12.516-42.129-31.548-42.129-20.452 0-36.968 17.29-36.968 46.839 0 27.29 13.935 42.258 38.774 42.258 9.4838 0 19.355-1.6129 25.742-3.871l-3.3548-19.355c-4.5806 1.4194-10.581 2.8387-17.419 2.8387-10.387 0-17.097-4.7742-17.419-12.71h41.29zm-41.419-18.839c0-7.4193 2.4516-17.613 9.3548-17.613 7.0322 0 8.4516 9.1612 8.4516 17.613zm54.709 50.903h27.29v-52.838c0-1.9355 0.70967-5.2903 1.0322-6.5161 1.6129-4.5806 4.258-5.8064 7.0322-5.8064 6 0 7.2258 6.5161 7.2258 13.935v51.29h27.29v-50.387c0-22-4.9032-37.677-22.903-37.677-4.0645 0-8.4516 1.2258-11.806 3.1613-2.9677 1.9355-5.4838 4.258-7.5484 7.2258h-0.32258v-44.193h-27.29zm148.97-32.064c0.51612-2.6452 0.90322-6.5161 0.90322-13.935 0-29.097-12.516-42.129-31.548-42.129-20.452 0-36.968 17.29-36.968 46.839 0 27.29 13.935 42.258 38.774 42.258 9.4838 0 19.355-1.6129 25.742-3.871l-3.3548-19.355c-4.5806 1.4194-10.581 2.8387-17.419 2.8387-10.387 0-17.097-4.7742-17.419-12.71h41.29zm-41.419-18.839c0-7.4193 2.4516-17.613 9.3548-17.613 7.0322 0 8.4516 9.1612 8.4516 17.613zm54.258 50.903h27.29v-52c0-3.5484 0.70967-6.5161 1.4194-8.129 1.6129-3.3548 3.871-5.0968 6.8387-5.0968 5.4838 0 7.0322 5.6129 7.0322 11.613v53.548h27.29v-54.451c0-18.645-5.6129-33.677-23.935-33.677-8.9677 0-16.71 4.3871-21.484 11.29h-0.32258l-1.4194-9.8709h-23.419c0.32258 8.8387 0.70967 18.516 0.70967 27.677z" fill="#fff" stroke-width=".64516"/>
 <path d="m385.22 121.93h13.548v-121.93h-13.548zm75.548-56.387c0-19.032-7.2258-30.322-24.322-30.322-8.4516 0-16.193 2.9677-19.935 5.6129l2.9677 9.4838c4.0645-2.8387 8.8387-4.3871 14.064-4.3871 10.774 0 13.548 7.9354 13.548 19.355v2.6452c-19.226 0.19355-36.258 9.4838-36.258 31.032 0 14.774 8.8387 24.322 20.258 24.322 7.2258 0 13.226-3.871 16.903-10.387h0.51613l0.90322 8.9677h12.129c-0.90322-5.4838-0.90322-12.839-0.90322-19.355v-36.968zm-13.226 29.419c0 1.6129-0.19355 3.3548-0.51613 4.9032-1.6129 8.4516-6.5161 12.839-12.516 12.839-4.7742 0-10.387-3.871-10.387-15.161 0-18.516 16.387-19.935 23.419-19.935zm29.935 26.968h13.548v-53.742c0-2.9677 0.19355-5.6129 0.70968-7.5484 1.6129-9.1613 7.0322-13.935 12.71-13.935 9.8709 0 11.806 10.064 11.806 20.258v54.968h13.548v-57.226c0-20.774-8.8387-29.419-20.581-29.419-8.9677 0-15.871 4.7742-19.548 11.613h-0.32258l-0.70967-10.194h-11.871c0.19355 6.8387 0.70968 12 0.70968 22zm107.42-121.87v45.29h-0.32258c-3.3548-7.2258-9.3548-10.064-15.484-10.064-13.226 0-25.742 14.064-25.742 44.387 0 28.193 10.387 43.677 24.839 43.677 8.9677 0 15.161-6 17.806-12h0.70968l0.90322 10.581h11.613c-0.19355-4.9032-0.70967-14.645-0.70967-20.452v-101.42zm0 91.742c0 2.129 0 4.0645-0.51612 5.6129-2.9677 12.323-8.8387 14.645-13.032 14.645-9.8709 0-14.452-14.452-14.452-32.387 0-17.097 3.871-32.774 15.161-32.774 6.5161 0 12 7.7419 12.71 16.581 0.19355 1.9355 0.19355 3.871 0.19355 5.6129v22.71z" fill="#fff" stroke-width=".64516"/>
 <path d="m96.967 118.45c4.258 2.258 13.742 4.5806 23.935 4.5806 25.032 0 41.742-14.774 41.742-37.161 0-12.129-5.4838-24.645-21.871-33.806-13.419-7.5484-15.871-10.903-15.871-16 0-5.4838 4.3871-10.194 13.548-10.194 6.8387 0 12 1.9355 15.484 4.0645l3.871-23.419c-3.6774-2.129-11.419-4.258-19.548-4.258-27.484 0-40.193 16.903-40.193 36.451 0 8.8387 3.1613 21.871 22.387 33.29 10.387 6.1935 15.355 9.4838 15.355 16.903 0 6-4.5806 10.581-14.774 10.581-6.8387 0-15.484-1.7419-20.581-4.5806zm139.87-46.387c0-16.71-2.9677-38.258-33.097-38.258-13.548 0-24.516 4.258-29.742 7.0322l4.7742 18.129c5.6129-3.3548 11.419-5.2903 19.032-5.2903 7.0322 0 11.419 3.6774 11.419 8.4516v1.6129c-19.548 0.19355-40.71 9.3548-40.71 32.581 0 15.484 10.064 26.968 23.806 26.968 7.7419 0 14.774-2.9677 19.935-9.6774h0.32258l1.4194 8.258h24.322c-1.0322-6-1.4193-12.839-1.4193-19.935v-29.871zm-26.774 22.903c0 1.4193-0.19355 2.6452-0.51613 3.5484-1.6129 3.8709-5.2903 5.0967-8.129 5.0967-2.9677 0-7.4193-2.8387-7.4193-10.194 0-9.1613 8.129-12.323 16-12.516v14.064zm104.58-22.903c0-16.71-2.9677-38.258-33.097-38.258-13.548 0-24.516 4.258-29.742 7.0322l4.7742 18.129c5.6129-3.3548 11.419-5.2903 19.032-5.2903 7.0322 0 11.419 3.6774 11.419 8.4516v1.6129c-19.548 0.19355-40.71 9.3548-40.71 32.581 0 15.484 10.064 26.968 23.806 26.968 7.7419 0 14.774-2.9677 19.935-9.6774h0.32258l1.4194 8.258h24.322c-1.0322-6-1.4193-12.839-1.4193-19.935v-29.871zm-26.774 22.903c0 1.4193-0.19355 2.6452-0.51613 3.5484-1.6129 3.8709-5.2903 5.0967-8.129 5.0967-2.9677 0-7.4193-2.8387-7.4193-10.194 0-9.1613 8.129-12.323 16-12.516v14.064zm41.29 26.968h27.29v-42.258c0-3.871 0.51613-7.2258 1.2258-8.9677 2.9677-8.4516 9.6774-9.8709 12.839-9.8709 2.4516 0 4.258 0 6 0.32258v-26.774c-1.6129-0.32258-2.9677-0.51613-5.8064-0.51613-5.6129 0-12.516 4.0645-16.71 13.742h-0.70967l-1.4194-12.323h-23.419c0.32258 8.8387 0.70968 18.516 0.70968 27.677z" fill="#93c01f" stroke-width=".64516"/>
 <path d="m726.84 0.64516c-50.451 0-84.064-0.19355-84.064-0.19355v287.93h70.064v-111.61h-0.45161l-28.451 13.161-6.4516-30.71 41.355-18.645h32.71v147.74h48.322v-222.19s6.5806-65.484-73.032-65.484z" fill="#92c01f" stroke-width=".64516"/>
</svg>
