<svg width="800" height="303.03" version="1.1" viewBox="0 0 800 303.03" xml:space="preserve" xmlns="http://www.w3.org/2000/svg"><g transform="matrix(1.3333 0 0 -1.3333 -887.38 1230)"><g transform="matrix(3.8253 0 0 3.8253 1210.7 922.04)"><path d="m0 0c-9.896 0-16.48 0.035-16.48 0.035v-59.131h7.594v0.442h17.332v-0.442h5.873v45.647s1.289 13.449-14.319 13.449" fill="#95c11f"/></g><g transform="matrix(3.8253 0 0 3.8253 665.53 696.07)" fill="#fff"><path d="m0 0h2.66v11.069h5.802v2.352h-5.802v8.537h6.217v2.423h-8.877zm20.889 8.501c0.034 0.434 0.069 0.904 0.069 1.591 0 3.943-1.382 7.706-4.767 7.706-3.35 0-5.63-3.545-5.63-9.225 0-5.39 2.073-8.79 6.045-8.79 1.347 0 2.763 0.289 3.695 0.832l-0.449 2.026c-0.656-0.362-1.588-0.651-2.763-0.651-1.899 0-3.903 1.121-3.937 6.511zm-7.703 2.062c0.104 2.387 1.002 5.064 2.729 5.064 1.278 0 2.521-1.555 2.487-5.064zm10.203-10.563h2.659v9.695c0 0.615 0.035 1.121 0.104 1.591 0.276 2.026 1.52 3.654 3.212 3.654 0.207 0 0.38 0 0.553-0.036v2.857c-0.173 0.037-0.346 0.037-0.553 0.037-1.554 0-2.97-1.375-3.523-3.039h-0.069l-0.138 2.749h-2.383c0.034-1.302 0.138-3.038 0.138-4.522zm8.514 0h2.659v11.033c0 0.615 0.035 1.158 0.139 1.556 0.31 1.881 1.381 2.857 2.486 2.857 1.935 0 2.314-2.062 2.314-4.16v-11.286h2.66v11.757c0 4.268-1.727 6.041-4.041 6.041-1.762 0-3.109-0.977-3.834-2.388h-0.069l-0.138 2.098h-2.314c0.034-1.411 0.138-2.46 0.138-4.522zm12.599 0.796c0.794-0.615 2.59-1.013 4.076-1.013 3.834 0 6.389 2.062 6.389 5.752 0 1.808-0.656 3.762-3.384 5.317-1.555 0.905-1.935 1.266-1.935 1.881 0 0.651 0.449 1.194 1.486 1.194 0.932 0 1.761-0.326 2.417-0.687l0.829 4.051c-1.001 0.47-2.176 0.796-3.626 0.796-3.731 0-5.976-2.605-5.976-5.933 0-1.447 0.449-3.436 3.454-5.136 1.382-0.796 1.9-1.194 1.9-1.954 0-0.796-0.553-1.157-1.554-1.157-1.175 0-2.522 0.506-3.212 0.94zm25.172 5.788c0.104 0.542 0.173 1.338 0.173 2.857 0 5.969-2.452 8.646-6.182 8.646-4.007 0-7.254-3.545-7.254-9.622 0-5.607 2.729-8.682 7.599-8.682 1.865 0 3.799 0.325 5.043 0.796l-0.656 3.979c-0.898-0.29-2.073-0.579-3.42-0.579-2.038 0-3.35 0.977-3.419 2.605zm-8.116 3.87c0 1.52 0.483 3.618 1.83 3.618 1.382 0 1.658-1.881 1.658-3.618zm10.717-10.454h5.353v10.852c0 0.398 0.138 1.085 0.207 1.339 0.311 0.94 0.829 1.193 1.382 1.193 1.174 0 1.416-1.338 1.416-2.857v-10.527h5.354v10.346c0 4.521-0.967 7.741-4.49 7.741-0.795 0-1.658-0.253-2.315-0.651-0.587-0.398-1.07-0.868-1.485-1.483h-0.069v9.079h-5.353zm29.205 6.584c0.104 0.542 0.173 1.338 0.173 2.857 0 5.969-2.452 8.646-6.182 8.646-4.007 0-7.254-3.545-7.254-9.622 0-5.607 2.729-8.682 7.599-8.682 1.865 0 3.799 0.325 5.043 0.796l-0.657 3.979c-0.898-0.29-2.072-0.579-3.419-0.579-2.038 0-3.35 0.977-3.419 2.605zm-8.116 3.87c0 1.52 0.483 3.618 1.83 3.618 1.382 0 1.658-1.881 1.658-3.618zm10.644-10.454h5.354v10.671c0 0.724 0.138 1.339 0.276 1.664 0.311 0.688 0.76 1.049 1.347 1.049 1.071 0 1.382-1.157 1.382-2.387v-10.997h5.354v11.178c0 3.834-1.106 6.909-4.698 6.909-1.761 0-3.281-0.904-4.214-2.315h-0.069l-0.276 2.026h-4.594c0.069-1.809 0.138-3.799 0.138-5.68z" fill="#fff"/></g><path d="m954.47 826.76h10.171v95.754h-10.171zm56.641 44.277c0 14.945-5.4166 23.801-18.235 23.801-6.3384 0-12.153-2.3525-14.93-4.4258l2.2492-7.4746c3.0373 2.2148 6.6062 3.4619 10.569 3.4619 8.0598 0 10.171-6.2275 10.171-15.221v-2.0771c-14.398-0.13771-27.217-7.4707-27.217-24.355 0-11.621 6.6062-19.096 15.194-19.096 5.4166 0 9.9112 3.0449 12.685 8.1669h0.3978l0.6579-7.0576h9.1194c-0.6617 4.2881-0.6617 10.102-0.6617 15.221zm-9.9113-23.108c0-1.2432-0.13-2.628-0.394-3.8712-1.1896-6.6445-4.8886-10.102-9.3795-10.102-3.569 0-7.7959 3.0449-7.7959 11.9 0 14.528 12.287 15.634 17.569 15.634zm22.424-21.169h10.171v42.204c0 2.3525 0.1339 4.4258 0.5279 5.9483 1.1897 7.1953 5.2865 10.933 9.5134 10.933 7.3981 0 8.8517-7.8877 8.8517-15.913v-43.172h10.175v44.97c0 16.33-6.6062 23.108-15.458 23.108-6.7401 0-11.893-3.7334-14.666-9.1309h-0.264l-0.5279 8.0254h-8.8554c0.1338-5.3974 0.5317-9.4101 0.5317-17.298zm80.594 95.754v-35.56h-0.2678c-2.5094 5.6728-7.0002 7.8838-11.625 7.8838-9.9074 0-19.291-11.066-19.291-34.867 0-22.141 7.7959-34.32 18.629-34.32 6.7401 0 11.365 4.7051 13.346 9.4101h0.5279l0.6617-8.3008h8.7178c-0.1301 3.875-0.5279 11.483-0.5279 16.051v79.703zm0-72.091c0-1.664 0-3.1826-0.3979-4.4296-2.2454-9.6856-6.6062-11.483-9.7773-11.483-7.3981 0-10.833 11.346-10.833 25.461 0 13.419 2.9072 25.736 11.361 25.736 4.8886 0 8.9855-6.0898 9.5134-13.006 0.1339-1.5224 0.1339-3.0449 0.1339-4.4296z" fill="#fff"/><g transform="matrix(3.8253 0 0 3.8253 738.27 829.53)"><path d="m0 0c0.829-0.47 2.694-0.941 4.697-0.941 4.905 0 8.186 3.039 8.186 7.633 0 2.496-1.071 5.065-4.283 6.946-2.625 1.555-3.108 2.242-3.108 3.291 0 1.122 0.863 2.099 2.659 2.099 1.347 0 2.349-0.398 3.04-0.833l0.76 4.812c-0.726 0.434-2.245 0.868-3.834 0.868-5.388 0-7.875-3.473-7.875-7.488 0-1.809 0.621-4.486 4.386-6.837 2.038-1.266 3.005-1.953 3.005-3.473 0-1.23-0.898-2.17-2.901-2.17-1.347 0-3.04 0.361-4.041 0.94zm27.418 9.514c0 3.436-0.588 7.85-6.494 7.85-2.659 0-4.801-0.869-5.837-1.447l0.933-3.726c1.105 0.687 2.245 1.085 3.73 1.085 1.381 0 2.245-0.76 2.245-1.737v-0.325c-3.834-0.036-7.979-1.917-7.979-6.692 0-3.184 1.969-5.535 4.663-5.535 1.52 0 2.901 0.615 3.903 1.99h0.069l0.276-1.701h4.767c-0.207 1.23-0.276 2.641-0.276 4.088zm-5.25-4.703c0-0.289-0.035-0.543-0.104-0.723-0.311-0.796-1.036-1.049-1.589-1.049-0.587 0-1.451 0.578-1.451 2.098 0 1.881 1.589 2.532 3.144 2.568zm20.508 4.703c0 3.436-0.587 7.85-6.493 7.85-2.66 0-4.801-0.869-5.837-1.447l0.932-3.726c1.105 0.687 2.245 1.085 3.73 1.085 1.382 0 2.246-0.76 2.246-1.737v-0.325c-3.834-0.036-7.979-1.917-7.979-6.692 0-3.184 1.969-5.535 4.663-5.535 1.52 0 2.901 0.615 3.903 1.99h0.069l0.276-1.701h4.767c-0.208 1.23-0.277 2.641-0.277 4.088zm-5.25-4.703c0-0.289-0.034-0.543-0.103-0.723-0.311-0.796-1.037-1.049-1.589-1.049-0.587 0-1.451 0.578-1.451 2.098 0 1.881 1.589 2.532 3.143 2.568zm8.1-5.535h5.353v8.682c0 0.796 0.104 1.483 0.242 1.845 0.587 1.736 1.9 2.026 2.521 2.026 0.484 0 0.829 0 1.175-0.072v5.498c-0.311 0.072-0.587 0.109-1.14 0.109-1.105 0-2.452-0.833-3.281-2.822h-0.138l-0.277 2.532h-4.593c0.069-1.809 0.138-3.798 0.138-5.679z" fill="#95c11f"/></g><g transform="matrix(3.8253 0 0 3.8253 1208.3 720.13)"><path d="m0 0 2.156 2.362c3.353 3.93 6.456 8.314 6.456 13.734 0 6.111-3.365 10.059-8.574 10.059-3.079 0-5.657-1.007-7.664-2.994l-0.04-0.04 1.168-6.069 0.133 0.134c1.273 1.28 3.218 2.805 5.25 2.805 2.463 0 3.875-1.651 3.875-4.528-0.071-3.62-2.491-7.06-7.891-13.401l-3.119-3.707-0.026-0.03v-4.636h17.333v6.311z" fill="#fff"/></g></g></svg>
