<svg width="800" height="289.42" version="1.1" viewBox="0 0 800 289.42" xml:space="preserve" xmlns="http://www.w3.org/2000/svg"><g transform="matrix(1.3333 0 0 -1.3333 -912.73 1839.8)"><g transform="matrix(3.6535 0 0 3.6535 1229.7 1379.4)"><path d="m0 0c-10.361 0-17.255 0.035-17.255 0.035v-59.131h14.432v0.077h7.74v-0.077h10.076v45.647s1.349 13.449-14.993 13.449" fill="#95c11f"/></g><g transform="matrix(3.6535 0 0 3.6535 684.55 1163.6)"><path d="m0 0h2.785v11.069h6.075v2.352h-6.075v8.537h6.509v2.423h-9.294zm21.871 8.501c0.036 0.434 0.072 0.904 0.072 1.591 0 3.943-1.447 7.706-4.99 7.706-3.508 0-5.895-3.545-5.895-9.225 0-5.39 2.17-8.79 6.328-8.79 1.411 0 2.893 0.289 3.87 0.832l-0.47 2.026c-0.687-0.362-1.664-0.651-2.893-0.651-1.989 0-4.087 1.121-4.123 6.511zm-8.065 2.062c0.109 2.387 1.049 5.064 2.857 5.064 1.338 0 2.64-1.555 2.604-5.064zm10.682-10.563h2.785v9.695c0 0.615 0.036 1.121 0.108 1.591 0.29 2.026 1.592 3.654 3.364 3.654 0.217 0 0.397 0 0.578-0.036v2.857c-0.181 0.037-0.361 0.037-0.578 0.037-1.628 0-3.11-1.375-3.689-3.039h-0.072l-0.145 2.749h-2.495c0.036-1.302 0.144-3.038 0.144-4.522zm8.915 0h2.784v11.033c0 0.615 0.036 1.158 0.145 1.556 0.325 1.881 1.446 2.857 2.604 2.857 2.025 0 2.423-2.062 2.423-4.16v-11.286h2.784v11.757c0 4.268-1.808 6.041-4.231 6.041-1.844 0-3.255-0.977-4.014-2.388h-0.072l-0.145 2.098h-2.423c0.036-1.411 0.145-2.46 0.145-4.522zm13.191 0.796c0.832-0.615 2.712-1.013 4.267-1.013 4.014 0 6.691 2.062 6.691 5.752 0 1.808-0.687 3.762-3.544 5.317-1.628 0.905-2.025 1.266-2.025 1.881 0 0.651 0.47 1.194 1.554 1.194 0.977 0 1.845-0.326 2.532-0.687l0.868 4.051c-1.049 0.47-2.278 0.796-3.797 0.796-3.906 0-6.257-2.605-6.257-5.933 0-1.447 0.471-3.436 3.617-5.136 1.446-0.796 1.989-1.194 1.989-1.954 0-0.796-0.579-1.157-1.628-1.157-1.229 0-2.639 0.506-3.363 0.94zm26.356 5.788c0.109 0.542 0.181 1.338 0.181 2.857 0 5.969-2.568 8.646-6.473 8.646-4.195 0-7.595-3.545-7.595-9.622 0-5.607 2.857-8.682 7.956-8.682 1.953 0 3.978 0.325 5.28 0.796l-0.687 3.979c-0.94-0.29-2.17-0.579-3.58-0.579-2.134 0-3.508 0.977-3.58 2.605zm-8.498 3.87c0 1.52 0.506 3.618 1.916 3.618 1.447 0 1.736-1.881 1.736-3.618zm11.22-10.454h5.606v10.852c0 0.398 0.144 1.085 0.217 1.339 0.325 0.94 0.867 1.193 1.446 1.193 1.23 0 1.483-1.338 1.483-2.857v-10.527h5.605v10.346c0 4.521-1.013 7.741-4.701 7.741-0.832 0-1.736-0.253-2.423-0.651-0.615-0.398-1.121-0.868-1.555-1.483h-0.072v9.079h-5.606zm30.579 6.584c0.109 0.542 0.181 1.338 0.181 2.857 0 5.969-2.567 8.646-6.473 8.646-4.195 0-7.594-3.545-7.594-9.622 0-5.607 2.856-8.682 7.955-8.682 1.953 0 3.978 0.325 5.28 0.796l-0.687 3.979c-0.94-0.29-2.17-0.579-3.58-0.579-2.134 0-3.508 0.977-3.58 2.605zm-8.498 3.87c0 1.52 0.506 3.618 1.917 3.618 1.446 0 1.735-1.881 1.735-3.618zm11.145-10.454h5.605v10.671c0 0.724 0.145 1.339 0.29 1.664 0.325 0.688 0.795 1.049 1.41 1.049 1.121 0 1.447-1.157 1.447-2.387v-10.997h5.605v11.178c0 3.834-1.157 6.909-4.918 6.909-1.845 0-3.436-0.904-4.412-2.315h-0.072l-0.29 2.026h-4.809c0.072-1.809 0.144-3.799 0.144-5.68z" fill="#185c80"/></g><path d="m973.49 1288.4h10.175v91.454h-10.175zm56.64 42.293c0 14.27-5.4181 22.732-18.231 22.732-6.3424 0-12.155-2.2469-14.932-4.2307l2.2469-7.1389c3.0397 2.1154 6.6055 3.3064 10.569 3.3064 8.0596 0 10.175-5.9478 10.175-14.537v-1.9838c-14.402-0.1315-27.218-7.1352-27.218-23.262 0-11.099 6.6055-18.238 15.195-18.238 5.4144 0 9.9082 2.9081 12.681 7.8001h0.3982l0.6613-6.7406h9.1154c-0.6612 4.0955-0.6612 9.6488-0.6612 14.537zm-9.9083-22.074c0-1.1874-0.1315-2.5099-0.3982-3.6973-1.1874-6.3461-4.8883-9.6488-9.3785-9.6488-3.5694 0-7.7965 2.9081-7.7965 11.366 0 13.876 12.287 14.932 17.573 14.932zm22.418-20.218h10.175v40.309c0 2.2469 0.1315 4.227 0.5297 5.6811 1.1874 6.8722 5.283 10.442 9.51 10.442 7.402 0 8.8524-7.5335 8.8524-15.198v-41.233h10.175v42.95c0 15.597-6.6054 22.074-15.458 22.074-6.737 0-11.892-3.5694-14.665-8.7245h-0.2667l-0.5261 7.665h-8.8523c0.1315-5.155 0.5261-8.9875 0.5261-16.521zm80.596 91.454v-33.963h-0.263c-2.51 5.4181-7.0037 7.5334-11.629 7.5334-9.9083 0-19.287-10.573-19.287-33.305 0-21.146 7.7928-32.779 18.629-32.779 6.737 0 11.359 4.4937 13.342 8.9875h0.5298l0.6576-7.928h8.7209c-0.1316 3.7009-0.5261 10.968-0.5261 15.33v76.124zm0-68.853c0-1.5893 0-3.0397-0.3945-4.2308-2.2469-9.2506-6.6092-10.968-9.7804-10.968-7.3983 0-10.833 10.836-10.833 24.318 0 12.816 2.9082 24.581 11.362 24.581 4.8883 0 8.9838-5.8163 9.5136-12.422 0.1315-1.4541 0.1315-2.9082 0.1315-4.2307z" fill="#185c80"/><g transform="matrix(3.6535 0 0 3.6535 757.28 1291.1)"><path d="m0 0c0.868-0.47 2.821-0.94 4.918-0.94 5.135 0 8.571 3.038 8.571 7.632 0 2.496-1.121 5.065-4.484 6.946-2.749 1.555-3.255 2.242-3.255 3.291 0 1.122 0.904 2.099 2.784 2.099 1.411 0 2.46-0.398 3.183-0.832l0.795 4.811c-0.759 0.434-2.35 0.868-4.014 0.868-5.641 0-8.245-3.473-8.245-7.488 0-1.809 0.651-4.486 4.593-6.837 2.133-1.266 3.146-1.953 3.146-3.473 0-1.23-0.94-2.17-3.038-2.17-1.41 0-3.182 0.362-4.231 0.94zm28.706 9.514c0 3.436-0.614 7.85-6.798 7.85-2.785 0-5.027-0.869-6.112-1.447l0.977-3.726c1.157 0.687 2.35 1.085 3.905 1.085 1.447 0 2.351-0.76 2.351-1.737v-0.325c-4.014-0.036-8.354-1.917-8.354-6.692 0-3.184 2.061-5.535 4.882-5.535 1.591 0 3.038 0.615 4.087 1.99h0.072l0.289-1.7h4.991c-0.217 1.229-0.29 2.64-0.29 4.087zm-5.496-4.703c0-0.289-0.036-0.542-0.109-0.723-0.325-0.796-1.085-1.049-1.663-1.049-0.615 0-1.519 0.578-1.519 2.098 0 1.881 1.663 2.532 3.291 2.568zm21.472 4.703c0 3.436-0.614 7.85-6.798 7.85-2.785 0-5.027-0.869-6.112-1.447l0.977-3.726c1.157 0.687 2.35 1.085 3.905 1.085 1.447 0 2.351-0.76 2.351-1.737v-0.325c-4.014-0.036-8.354-1.917-8.354-6.692 0-3.184 2.062-5.535 4.882-5.535 1.591 0 3.038 0.615 4.087 1.99h0.072l0.289-1.7h4.991c-0.217 1.229-0.29 2.64-0.29 4.087zm-5.496-4.703c0-0.289-0.036-0.542-0.109-0.723-0.325-0.796-1.085-1.049-1.663-1.049-0.615 0-1.519 0.578-1.519 2.098 0 1.881 1.663 2.532 3.291 2.568zm8.48-5.534h5.605v8.681c0 0.796 0.109 1.483 0.253 1.845 0.615 1.736 1.989 2.026 2.64 2.026 0.507 0 0.868 0 1.23-0.072v5.498c-0.326 0.072-0.615 0.109-1.194 0.109-1.157 0-2.567-0.832-3.435-2.822h-0.145l-0.289 2.532h-4.81c0.073-1.809 0.145-3.798 0.145-5.679z" fill="#95c11f"/></g><path d="m1224.2 1274.4-30.897-13.934 4.9833-22.012 21.099 9.7328v-84.706h28.278v110.92z" fill="#fff"/></g></svg>
