<svg width="800" height="193.53" version="1.1" xml:space="preserve" xmlns="http://www.w3.org/2000/svg"><g transform="translate(0 .00030692)" fill="#01003f"><path class="st0" d="m85.712 51.392c6.6723-2.2091 13.585-3.4451 20.295-3.4451 6.7563 0 13.719 1.152 20.434 3.2581l19.597-43.825c-12.936-4.7602-26.591-7.3803-40.032-7.3803-13.396 1e-3 -27.004 2.6941-39.903 7.5373zm-37.851 29.353c5.3002-9.8144 14.985-18.499 26.35-24.462l-19.579-43.782c-24.378 11.998-44.93 31.714-54.632 55.057zm90.163-24.833c11.52 5.8272 21.286 14.485 26.471 24.737l47.722-13.148c-9.5954-23.76-30.196-43.382-54.676-55.234zm-63.874 81.4c-11.403-5.9642-21.061-14.671-26.33-24.513l-47.606 13.116c9.9134 23.047 30.665 42.564 54.608 54.617zm90.378-24.42c-5.1542 10.284-14.892 18.961-26.448 24.786l19.268 43.091c24.045-11.909 44.85-31.339 54.656-54.797zm-38.037 29.471c-6.7013 2.0831-13.673 3.2221-20.482 3.2221-6.7623 0-13.685-1.222-20.343-3.4061l-19.424 43.434c13.074 5.0852 26.704 7.9183 39.766 7.9183 13.104 0 26.781-2.7571 39.895-7.7563zm-50.803-45.598c0 16.744 13.573 30.315 30.314 30.315 16.745 0 30.316-13.572 30.316-30.315 0-16.744-13.571-30.315-30.316-30.315-16.741 0-30.314 13.573-30.314 30.315"/>
		<path d="m275.17 77.975q-17.034 0-28.191-6.1852l3.9592-10.492q5.9972 2.8711 11.755 4.3072 5.7582 1.3251 12.236 1.3251 7.3173 0 12.235-2.7601t4.9192-7.9523q0-3.2031-2.4001-5.4112-2.2791-2.3201-5.7572-3.7551-3.4801-1.5461-9.5974-3.5341-7.9173-2.6501-12.836-4.8602-4.7982-2.3191-8.2773-6.2942-3.4791-4.0872-3.4791-10.271 0-10.492 8.3973-16.235 8.5173-5.8542 22.433-5.8542t24.472 5.9642l-3.9582 10.381q-9.9574-5.3002-20.034-5.3002-6.7183 0-11.036 2.6501-4.3182 2.6501-4.3182 7.5103 0 2.8711 2.1591 4.9702 2.2791 2.0981 5.5182 3.5331 3.3591 1.3261 9.3564 3.4241 8.1583 2.7601 13.196 5.1902 5.0392 2.3201 8.6373 6.5163 3.6001 4.0872 3.6001 10.492 0 10.602-8.7583 16.677-8.7573 5.9642-24.233 5.9642zm98.382-21.868h-30.231l-7.6773 20.321h-16.435l31.429-76.094h15.595l31.55 76.094h-16.556zm-4.0782-10.603-11.036-29.378-11.156 29.378zm77.295 32.36q-14.157 0-23.992-5.3012-9.7174-5.4122-14.636-14.247-4.7982-8.9463-4.7982-19.549 0-10.492 5.0382-19.327 5.1582-8.8353 15.236-14.137 10.076-5.3002 24.352-5.3002 7.5583 0 14.157 1.8771 6.7183 1.8771 11.516 5.1902l-4.3192 10.27q-4.0782-2.7601-9.5964-4.5272-5.3982-1.7671-11.756-1.7671-8.8763 0-15.355 3.6441-6.3582 3.6451-9.7174 10.05-3.2381 6.2952-3.2381 14.137 0 8.0623 3.1181 14.469 3.1201 6.2952 9.2374 9.9404 6.1172 3.6451 14.756 3.6441 6.9573 0 12.956-2.0991 5.9982-2.2081 10.556-5.4112l4.0792 10.05q-5.1582 3.6441-12.356 6.0742-7.1973 2.3201-15.235 2.3201zm112.47-76.537v75.101h-16.315v-31.889h-36.825v31.889h-16.315v-75.101h16.315v32.277h36.825v-32.277zm43.755 76.648q-17.035 0-28.191-6.1852l3.9582-10.492q5.9982 2.8711 11.755 4.3072 5.7582 1.3251 12.236 1.3251 7.3183 0 12.236-2.7601t4.9182-7.9523q0-3.2031-2.4001-5.4112-2.2781-2.3201-5.7572-3.7551-3.4791-1.5461-9.5974-3.5341-7.9173-2.6501-12.835-4.8602-4.7992-2.3191-8.2773-6.2942-3.4801-4.0872-3.4801-10.271 0-10.492 8.3983-16.235 8.5173-5.8542 22.432-5.8542 13.915 0 24.473 5.9642l-3.9592 10.381q-9.9564-5.3002-20.034-5.3002-6.7173 0-11.036 2.6501-4.3182 2.6501-4.3182 7.5103 0 2.8711 2.1601 4.9702 2.2781 2.0981 5.5172 3.5331 3.3591 1.3261 9.3574 3.4241 8.1573 2.7601 13.196 5.1902 5.0382 2.3201 8.6373 6.5163 3.5981 4.0872 3.5981 10.492 0 10.602-8.7573 16.677-8.7563 5.9642-24.232 5.9642zm108.43-12.259v10.712h-55.911v-75.101h53.512v10.713h-37.196v19.327h32.398v10.712h-32.398v23.635zm88.579-64.388v75.101l-14.515 0.11-38.708-53.011 1.2 52.902h-16.316v-75.101h14.516l38.708 52.902-1.2-52.902z" stroke-width="1.5621"/><path d="m249.57 152.74c0 28.709 20.39 40.782 42.576 40.782 9.4604 0 19.086-1.9581 25.773-5.8732v-3.9152c-6.6883 3.9152-16.313 6.1992-25.285 6.1992-19.901 0-38.497-10.114-39.15-34.908h69.165c2.9361-18.433-6.0362-43.065-34.908-43.065-19.412 0-38.171 14.519-38.171 40.782zm69.653-1.305h-65.738c0.49002-23.326 16.639-35.887 34.418-35.887 25.121 0 32.787 20.717 31.32 35.887zm32.672 40.461v-78.3h-3.9152v78.3zm35.243-60.683v-17.618h-3.5891v78.299h3.9152v-55.299c5.2202-9.6234 16.15-21.043 32.787-21.043 15.008 0 26.752 10.113 26.752 28.547v47.795h3.9152v-48.12c0-20.064-13.377-31.809-30.341-31.809-16.801 0-28.219 11.092-33.44 19.249zm87.527 0.65103c0 29.199 54.482 16.313 54.482 41.761 0 11.418-11.907 16.312-25.446 16.312-10.113 0-22.022-3.0991-29.689-8.1563v3.9152c7.0153 4.7302 19.413 7.8303 29.852 7.8303 15.171 0 29.199-5.7102 29.199-20.064 0-28.873-54.32-15.987-54.32-41.761 0-11.581 11.908-16.15 23.491-16.15 9.4604 0 20.063 2.9371 26.425 7.0153v-3.9152c-6.6873-3.9152-16.801-6.6883-26.588-6.6883-13.214 0-27.404 5.5462-27.404 19.901z" stroke-width="2.2141"/></g></svg>
