<svg width="800" height="313.61" version="1.1" viewBox="0 0 800 313.61" xml:space="preserve" xmlns="http://www.w3.org/2000/svg">
<g transform="matrix(.063223 0 0 .063223 -17.331 -16.566)" fill="#009fe3">
	<g fill="#009fe3">
		<polygon class="st0" points="4709.5 2116.8 4709.5 2167.6 4197.3 2167.6 4197.3 2449.6 4683 2449.6 4683 2500.4 4683 2551.1 4197.3 2551.1 4197.3 2960.6 4124.5 2960.6 4051 2960.6 4051 2066.2 4709.5 2066.2"/>
		<polygon class="st0" points="5564.4 2116.8 5564.4 2167.6 5058.9 2167.6 5058.9 2449.6 5544.7 2449.6 5544.7 2500.4 5544.7 2551.1 5058.9 2551.1 5058.9 2859.1 5578 2859.1 5578 2909.9 5578 2960.6 4912.6 2960.6 4912.6 2066.2 5564.4 2066.2"/>
		<path class="st0" d="m5944 2458.5h254.62c71.76 0 127.35-12.04 166.72-36.14 39.41-24.08 59.12-58.11 59.12-102.06 0-53.65-20.85-92.55-62.54-116.63-41.65-24.1-108.97-36.14-201.94-36.14h-215.98zm-146.25-392.37h425.87c108.12 0 193.01 20.39 254.62 61.16 61.65 40.79 92.46 96.89 92.46 168.3 0 73.12-33.09 130.38-99.26 171.79-31.32 19.85-68.71 35.07-112.16 45.64 48.01 4.65 83.08 15 105.36 31.05 32.79 22.83 55.04 68.69 66.69 137.57 9.04 54.1 17.65 99.74 25.73 136.91l8.35 39.3c6.58 27.48 12.5 48.82 17.83 64.02 5.29 15.22 11.21 27.9 17.79 38.05h-155.21c-9.56-24.1-18.53-53.25-26.87-87.48-8.35-34.25-18.05-81.16-29.16-140.73l-6.47-37.41c-9.12-49.45-28.64-84.19-58.53-104.28-29.89-20.05-76.47-30.11-139.78-30.11h-241.02v400.63h-146.25v-894.41z"/>
		<polygon class="st0" points="6790.5 2066.2 6885.2 2066.2 6980.7 2066.2 7502.8 2815.5 7502.8 2066.2 7575.6 2066.2 7648.3 2066.2 7648.3 2960.6 7550.6 2960.6 7452 2960.6 6935.9 2218.6 6935.9 2960.6 6863.2 2960.6 6790.5 2960.6"/>
		<path class="st0" d="m8439.6 2311.3c-1.62-40.18-18.57-71.47-50.95-93.82-32.36-22.37-76.91-33.57-133.6-33.57-52.98 0-96.98 10.68-132.02 32-35.04 21.34-52.58 47.96-52.58 79.85 0 26.93 16.14 49.49 48.35 67.72 32.21 17.81 90.66 36.65 175.47 56.54l145.66 34.17c97.09 22.78 165.76 51.56 206.06 86.36 40.29 34.38 60.44 82 60.44 142.9 0 80.77-42.21 146.83-126.54 198.19-84.41 51.38-192.64 77.04-324.84 77.04-152.64 0-266.53-24.63-341.75-73.94-73.09-48.05-109.63-119.9-109.63-215.6v-8.07h231.31c-3.24 51.36 14.56 91.23 53.38 119.61 38.82 28.36 94.41 42.55 166.69 42.55 63.16 0 115.62-11.6 157.38-34.8 41.76-23.19 62.65-52.39 62.65-87.61 0-23.18-12.91-42.24-38.67-57.15-25.77-14.92-72.72-30.46-140.84-46.6l-145.66-34.17c-113.74-26.93-193.96-57.99-240.65-93.19-46.76-35.2-70.14-82.22-70.14-141.05 0-82.02 38.82-149.2 116.47-201.61 77.64-52.41 177.49-78.6 299.47-78.6 137.02 0 242.05 23.2 315.14 69.59 67.72 42.66 101.58 100.64 101.58 173.97l-0.81 19.27h-231.37z"/>
		<polygon class="st0" points="9652.8 2133.6 9652.8 2201.3 9138.5 2201.3 9138.5 2418.8 9622.1 2418.8 9622.1 2486.5 9622.1 2554.2 9138.5 2554.2 9138.5 2805.8 9668 2805.8 9668 2873.6 9668 2941.3 8904.8 2941.3 8904.8 2065.8 9652.8 2065.8"/>
		<polygon class="st0" points="10092 2418.8 10563 2418.8 10563 2065.8 10680 2065.8 10796 2065.8 10796 2941.3 10680 2941.3 10563 2941.3 10563 2554.2 10092 2554.2 10092 2941.3 9975.2 2941.3 9858.3 2941.3 9858.3 2065.8 9975.2 2065.8 10092 2065.8"/>
		<polygon class="st0" points="11784 2133.6 11784 2201.3 11270 2201.3 11270 2418.8 11753 2418.8 11753 2486.5 11753 2554.2 11270 2554.2 11270 2805.8 11799 2805.8 11799 2873.6 11799 2941.3 11036 2941.3 11036 2065.8 11784 2065.8"/>
		<polygon class="st0" points="12303 2065.8 12139 2065.8 11976 2065.8 11976 2941.3 12083 2941.3 12190 2941.3 12190 2272.8 12605 2941.3 12766 2941.3 12928 2941.3 12928 2065.8 12820 2065.8 12713 2065.8 12713 2726.3"/>
	
	
		
			<path class="st0" d="m4616.8 636.97c-1.54-39.08-17.65-69.52-48.27-91.27-30.66-21.76-72.83-32.65-126.58-32.65-50.15 0-91.84 10.37-125 31.12-33.2 20.77-49.78 46.65-49.78 77.68 0 26.21 15.26 48.16 45.81 65.9 30.48 17.33 85.84 35.66 166.17 55l137.94 33.25c91.95 22.17 156.98 50.18 195.11 84.02 38.16 33.46 57.24 79.8 57.24 139.04 0 78.58-39.96 142.88-119.85 192.84-79.89 49.98-182.42 74.96-307.64 74.96-144.48 0-252.38-23.97-323.63-71.95-69.21-46.75-103.8-116.67-103.8-209.76v-7.87h219.06c-3.01 49.98 13.82 88.77 50.59 116.38 36.76 27.61 89.37 41.41 157.79 41.41 59.85 0 109.56-11.29 149.11-33.86 39.52-22.57 59.3-50.97 59.3-85.24 0-22.57-12.21-41.1-36.65-55.61-24.37-14.52-68.82-29.63-133.38-45.35l-137.94-33.25c-107.72-26.19-183.69-56.41-227.88-90.68-44.28-34.25-66.41-79.98-66.41-137.22 0-79.8 36.76-145.18 110.29-196.15 73.53-50.99 168.05-76.47 283.56-76.47 129.78 0 229.26 22.57 298.49 67.7 64.12 41.51 96.21 97.92 96.21 169.26l-0.81 18.73h-219.05z"/>
			<path class="st0" d="m5380.9 398.19h283.15l399.99 851.76h-238.6l-77.06-181.36h-455.91l-75.4 181.36h-236.17zm-32.24 538.62h343.56l-173.05-403.21h0.92z"/>
			<path class="st0" d="m7125.1 968.85c5.11 84.23-35.37 154.96-121.36 212.18-86.03 57.22-194.66 85.84-325.95 85.84-157.75 0-277.71-37.57-359.92-112.74-82.2-75.16-123.27-185.09-123.27-329.77 0-144.67 42.35-254.7 127.09-330.07 84.7-75.35 208.23-113.03 370.58-113.03 125.7 0 229.52 27.79 311.46 83.42 78.38 52.79 117.28 117.28 116.76 193.43v12.7h-219.04c-5.62-49.96-28.16-88.77-67.57-116.38-39.45-27.59-91.47-41.4-156.1-41.4-85.99 0-151.5 26.51-196.54 79.48-45.07 53-67.57 130.27-67.57 231.83s23.01 178.75 69.12 231.54c46.03 52.79 112.79 79.19 200.36 79.19 67.13 0 120.29-14.61 159.52-43.84 39.15-29.21 60.29-70.02 63.34-122.41h219.09z"/>
			<path class="st0" d="m7315.2 398.19h221.36v343.37h445.76v-343.37h221.4v851.76h-221.4v-376.61h-445.76v376.61h-221.36z"/>
			<path class="st0" d="m8999.1 636.97c-1.51-39.08-17.61-69.52-48.27-91.27-30.66-21.76-72.83-32.65-126.54-32.65-50.15 0-91.84 10.37-125 31.12-33.23 20.77-49.78 46.65-49.78 77.68 0 26.21 15.22 48.16 45.77 65.9 30.48 17.33 85.84 35.66 166.17 55l137.94 33.25c91.95 22.17 157.02 50.18 195.11 84.02 38.16 33.46 57.28 79.8 57.28 139.04 0 78.58-40 142.88-119.85 192.84-79.92 49.98-182.42 74.96-307.64 74.96-144.52 0-252.42-23.97-323.67-71.95-69.19-46.75-103.78-116.67-103.78-209.76v-7.87h219.08c-3.05 49.98 13.79 88.77 50.59 116.38 36.76 27.61 89.34 41.41 157.79 41.41 59.85 0 109.52-11.29 149.08-33.86 39.52-22.57 59.3-50.97 59.3-85.24 0-22.57-12.21-41.1-36.62-55.61-24.41-14.52-68.86-29.63-133.38-45.35l-137.94-33.21c-107.72-26.19-183.71-56.41-227.9-90.68-44.3-34.25-66.43-79.98-66.43-137.22 0-79.8 36.76-145.18 110.29-196.15 73.53-50.99 168.08-76.47 283.6-76.47 129.78 0 229.26 22.57 298.45 67.7 64.12 41.51 96.21 97.92 96.21 169.26l-0.77 18.73z"/>
			<path class="st0" d="m9439.5 1250v-851.76h708.37v131.8h-487.05v211.58h458v131.78h-458v244.83h501.53v131.78h-722.85z"/>
			<path class="st0" d="m10533 1250h-203.04v-851.76h309.92l388.52 642.59v-642.59h203.08v851.76h-305.36l-393.12-650.46z"/>
		
	
	
		
			<path class="st0" d="m1500.8 997.54c95.49-31.61 194.42-49.31 290.45-49.31 96.7 0 196.35 16.5 292.45 46.64l280.48-627.23c-185.16-68.14-380.57-105.62-572.93-105.62-191.74 0-386.5 38.53-571.12 107.86z"/>
			<path class="st0" d="m959.13 1417.6c75.85-140.45 214.45-264.75 377.12-350.1l-280.21-626.61c-348.91 171.73-643.05 453.9-781.92 787.99z"/>
			<path class="st0" d="m2249.5 1062.2c164.86 83.39 304.64 207.3 378.84 354.04l683.02-188.18c-137.34-340.05-432.18-620.88-782.54-790.51z"/>
			<path class="st0" d="m1335.4 2227.2c-163.2-85.35-301.41-209.96-376.83-350.83l-681.34 187.72c141.88 329.85 438.88 609.17 781.56 781.68z"/>
			<path class="st0" d="m2628.9 1877.7c-73.77 147.19-213.13 271.38-378.53 354.75l275.77 616.71c344.13-170.44 641.89-448.53 782.24-784.26z"/>
			<path class="st0" d="m2084.4 2299.5c-95.91 29.81-195.68 46.12-293.14 46.12-96.78 0-195.85-17.49-291.15-48.76l-277.98 621.63c187.12 72.78 382.2 113.34 569.13 113.34 187.54 0 383.3-39.47 570.98-111.01z"/>
		
		<path class="st0" d="m1357.4 1646.9c0 239.63 194.26 433.88 433.86 433.88 239.66 0 433.9-194.25 433.9-433.88s-194.24-433.88-433.9-433.88c-239.61 0-433.86 194.25-433.86 433.88"/>
	
	
		<path class="st0" d="m6829.2 4408.4c-46.61 0-79.78 18.17-99.5 54.48-11.75 21.56-20.16 52.39-25.19 92.52h245.59c-3.36-45.19-11.33-78.36-23.92-99.48-18.05-31.68-50.38-47.52-96.98-47.52z"/>
		<path class="st0" d="m4044.5 3760.4v1462h7186.4v-1462zm1537.6 1102.7c-70.89 59.53-160.45 89.28-268.67 89.28-130.03 0-228.92-39.13-296.67-117.38s-101.61-192.69-101.61-343.31 34.91-265.16 104.73-343.63c69.81-78.45 171.61-117.69 305.39-117.69 103.56 0 189.11 28.91 256.64 86.72 64.56 54.88 96.64 121.91 96.23 201.08v13.2h-181c-4.61-51.94-23.13-92.27-55.55-120.95s-75.19-43.05-128.31-43.05c-70.7 0-124.56 27.61-161.59 82.81-37.03 55.22-55.53 135.72-55.53 241.5 0 105.81 18.94 186.2 56.81 241.2s92.83 82.48 164.83 82.48c55.25 0 98.98-15.2 131.22-45.61s49.61-72.86 52.13-127.39h181c4.19 87.64-29.15 161.21-100.05 220.74zm820.53 71.28h-168v-389.66c0-40.7-10.27-73.44-30.78-98.2-20.53-24.75-47.75-37.14-81.66-37.14-42.3 0-75.8 15.84-100.5 47.53-24.72 31.69-37.06 74.38-37.06 128.09v349.38h-166v-886h166v366.34c7.95-17.19 17.17-32.28 27.66-45.28 37.72-47.38 94.7-71.06 170.97-71.06 73.33 0 128.22 20.69 164.69 62.03 36.45 41.34 54.69 103.38 54.69 186.08v387.89zm712.45-308.33-1.27 40.33h-413.73c2.52 57.63 12.58 100.52 30.2 128.69 19.72 31.55 51.81 47.31 96.3 47.31 33.97 0 60.61-8.72 79.92-26.17 19.3-17.44 29.16-41.72 29.58-72.83h167c-6.28 65.89-33.83 117.2-82.64 153.92s-114.28 55.08-196.39 55.08c-91.75 0-163.19-28.66-214.3-86-51.13-57.33-76.67-137.45-76.67-240.38 0-97.02 27.02-175.88 81.08-236.58 54.05-60.69 124.02-91.05 209.92-91.05 98.05 0 171.06 26.89 219.03 80.66 47.97 53.78 71.97 135.28 71.97 244.5zm1095.6 308.33h-168v-400.98c0-37.34-9.48-67.36-28.44-90.02-18.97-22.66-44.03-34-75.19-34-38.77 0-69.52 15.84-92.27 47.53s-34.11 74.38-34.11 128.09v349.38h-168v-400.36c0-37.34-9.53-67.45-28.59-90.33s-44.09-34.31-75.09-34.31c-38.55 0-69.23 15.84-92.06 47.53-22.84 31.69-34.25 74.38-34.25 128.09v349.38h-168v-618h168v95.59c7.53-15.98 15.92-30.08 25.16-42.28 36.03-47.53 90.53-71.31 163.47-71.31 58.67 0 108.34 16.16 149 48.44 24.73 19.28 41.92 41.5 51.56 66.66 7.14-16.34 15.77-31.02 25.86-44.02 37-47.38 92.7-71.08 167.14-71.08 71.47 0 124.98 20.05 160.52 60.14s53.3 100.44 53.3 181.03v394.83zm732.31 0h-168v-389.66c0-40.7-10.27-73.44-30.78-98.2-20.53-24.75-47.75-37.14-81.66-37.14-46.91 0-81.55 14.38-103.95 43.13s-33.61 72.91-33.61 132.5v349.38h-166v-618h166v97.72c7.95-16.34 17.17-31.23 27.66-44.66 37.72-47.38 94.7-71.06 170.97-71.06 73.33 0 128.22 20.69 164.69 62.03 36.45 41.34 54.69 103.38 54.69 186.08v387.88zm316.45 0h-168v-618h168zm7-722h-182v-164h182zm497.79 213h-128v311.92c0 39.58 6.09 67.16 18.28 82.72 12.19 15.58 33.84 23.36 64.95 23.36 14.28-0.45 29.2-3.45 44.77-9v107c-35.69 7.33-76.42 11-122.17 11-61.31 0-105.61-14.61-132.89-43.81-27.3-29.2-40.94-76.8-40.94-142.78v-340.41h-112v-109h112v-92l168-83.02v175.02h128zm595.83 453.19v55.81h-500v-128l298.94-367.66 9.44-11.34h-299.38v-111h477v122.34l-289 367.63-13.83 17.03h316.83z"/>
	</g>
</g>
</svg>
