<svg width="800" height="140.66" fill="none" version="1.1" viewBox="0 0 800 140.66" xmlns="http://www.w3.org/2000/svg">
 <link rel="stylesheet" type="text/css"/>
 <link rel="stylesheet" type="text/css"/>
 <style lang="en" type="text/css"/>
 <style lang="en" type="text/css"/>
 <path d="m397.5 106.16h58.302v29.851h-93.893v-131.44h35.59zm95.61-71.737h38.166v101.63h33.56v-101.63h37.932v-29.851h-109.66zm306.89 35.907c0 38.838-32.741 70.33-73.131 70.33s-73.132-31.492-73.132-70.33 32.742-70.33 73.132-70.33 73.131 31.492 73.131 70.33zm-36.214 0c0-20.513-16.547-37.118-36.917-37.118-20.41 0-36.917 16.606-36.917 37.118 0 20.513 16.546 37.118 36.917 37.118 20.37 0 36.917-16.606 36.917-37.118zm-697.87-14.808c-10.459-3.204-24.078-5.431-24.078-15.043 0-6.564 6.5561-11.526 14.868-11.526 7.6098 0 15.22 3.0086 22.673 9.0257l13.815-27.116c-13.659-7.2674-27.629-10.823-42.342-10.823-27.278 0-45.346 18.247-45.346 45.011 0 26.53 15.532 30.398 35.98 37.197 11.746 3.9072 20.722 6.8373 20.722 15.395 0 7.9701-6.556 13.089-16.663 13.089-10.263 0-20.566-4.611-30.634-13.637l-14.907 28.015c14.361 10.081 29.932 15.043 46.595 15.043 33.171 0 52.098-18.52 52.098-47.668 0-19.106-9.5613-29.89-32.781-36.962zm193.29-50.95h36.019l-49.795 131.52h-36.488l-49.756-131.52h36.019l7.2589 22.349c7.7266-2.735 16.077-4.2198 24.741-4.2198s17.015 1.4847 24.741 4.2198zm-16.195 49.973c-4.8782-1.9536-10.224-3.0085-15.805-3.0085s-10.927 1.0549-15.805 3.0085l15.805 48.801z" fill="#17142d" stroke-width=".87912"/>
</svg>
