<svg enable-background="new 0 0 319.5 319.5" version="1.1" viewBox="0 0 319.5 319.5" xml:space="preserve" xmlns="http://www.w3.org/2000/svg">
<ellipse transform="matrix(.7071 -.7071 .7071 .7071 -66.165 159.74)" cx="159.7" cy="159.7" rx="159.7" ry="159.7" fill="#C1B58D"/>
<path d="m147.4 161.5c1 0 1.8 0.8 1.8 1.7 0 1-0.8 1.7-1.8 1.7s-1.8-0.8-1.8-1.7c0.1-0.9 0.8-1.7 1.8-1.7zm-10-3.9h3v7.2h3.2v-7.2h3v-2.9h-9.2v2.9zm-1.8 30.6c-14 0-25.7-10.1-28.1-23.5h-10.1c2.5 18.9 18.6 33.5 38.2 33.5s35.8-14.6 38.2-33.5h-10.2c-2.3 13.4-14 23.5-28 23.5zm-13.5-25.9c-1.4 0-2.6-0.3-3.7-1.2l-1.3 2.6c1.3 0.9 2.9 1.3 4.7 1.3 2.9 0 4.9-1.1 4.9-3.4 0-2.4-2-2.8-4.2-3.2-1.6-0.2-2-0.4-2-0.6 0-0.3 0.2-0.6 1.3-0.6 0.9 0 1.7 0.2 2 0.9l2.5-1.2c-0.6-1.3-2.1-2.3-4.5-2.3-2.6 0-4.5 1.3-4.5 3.6 0 2.4 2 2.7 4.2 3.1 1.6 0.3 2 0.3 2 0.6s-0.5 0.4-1.4 0.4zm12.4-7.6 4.1 9.9v0.1h-3.4l-0.5-1.3h-3.8l-0.5 1.3h-3.4v-0.1l4.1-9.9h3.4zm-0.8 6.2-1-2.8-1 2.8h2zm171.1-1.2c0 20.4-16.4 37-36.7 37.5h-29.9v-74.9h29.1c20.7-0.1 37.5 16.7 37.5 37.4zm-10 0c0-15.1-12.3-27.4-27.4-27.4h-19v54.8h19c15.1 0 27.4-12.3 27.4-27.4zm-231.7-5v10h18.2c-2.4 13.3-14 23.5-28.1 23.5-15.7 0-28.5-12.8-28.5-28.5s12.8-28.5 28.5-28.5c10.2 0 19.2 5.4 24.2 13.4h11.3c-5.9-13.8-19.6-23.5-35.5-23.5-21.3 0-38.6 17.3-38.6 38.6s17.3 38.6 38.6 38.6 38.6-17.3 38.6-38.6c0-1.7-0.1-3.4-0.3-5h-28.4zm72.5-33.5c-19.6 0-35.8 14.6-38.2 33.6h10.2c2.4-13.4 14-23.5 28.1-23.5s25.7 10.1 28.1 23.5h10.2c-2.6-19-18.8-33.6-38.4-33.6zm54 1h-10v74.9h52.6v-10h-42.5l-0.1-64.9zm-35.3 42.6v-10h-5v2.9h1.9v7.2h3.1z" fill="#fff"/>
</svg>
