<svg width="799.86" height="248.32" enable-background="new 0 0 1260 720" version="1.0" viewBox="0 0 799.86 248.32" xml:space="preserve" xmlns="http://www.w3.org/2000/svg">
<g transform="matrix(1.0729 0 0 1.0729 -2.2967 -.042834)"><g transform="matrix(1.8519 0 0 1.8519 0 .0092595)"><path d="m4.8657-5e-3c-1.9063 0-3.7098 1.6578-3.7098 3.7161v117.57c0 1.9063 1.6578 3.7098 3.7161 3.7098h236.34v-125z" fill="#ffc72a"/></g><g transform="scale(1.8519)" fill="#989898"><path d="m241.21 0v125h79.08c1.9063 0 3.7106-1.657 3.7106-3.7153v-117.58c0-1.9063-1.6578-3.7098-3.7161-3.7098z" fill="#000"/></g><g transform="scale(1.8519)"><path d="m253.26 17.24c6.5757-3.849 14.025-4.8944 21.648-4.8944 5.7197 0 10.043 0.51387 15.566 1.1693l-1.7643 19.635c-5.083-0.78651-11.61-2.37-15.82 1.74-4.18 4.06-3.2652 10.355-3.2852 15.625h20.08v20.07h-20.08l2.5e-4 54.415h-28.395v-82.98c-0.08-9.4 3.6302-19.74 12.05-24.78z" fill="#0fbace"/></g><g transform="scale(1.8519)" fill="#989898"><path d="m84.38 20.37c-12.93 9.77-13.33 31.86-0.72 42.02 6.6 5.08 14.78 7.31 22.63 9.68 4.19 1.4 8.65 2.64 12.08 5.58 2.1788 1.8192 2.6274 4.6279 2.4255 7.3637-0.91171 8.2678-11.028 8.6263-16.816 8.6263-9.3292 0-17.89-2.59-26.23-5.98l-2.34 20.82c9.9034 3.9145 21.004 4.9614 30.822 4.9224 11.771 0 26.919-4.2428 33.978-11.172 7.48-7.07 9.18-18.41 7.34-28.14-1.08-7.37-6.4-13.46-12.77-16.98-8.32-4.59-17.92-5.89-26.66-9.42-3.51-1.35-7.06-4.59-6.55-8.68 1.254-7.9736 11.941-8.5412 18.576-8.3793 7.1978 0.20996 14.391 2.13 21.194 4.3493l1.34-20.16c-7.98-2.48-15.809-3.8329-24.68-3.8329-11.972 0-24.15 2.1029-33.62 9.3829z" fill="#000"/></g><g transform="matrix(1.8519,0,0,1.8519,6.2782e-4,1.9268e-4)" fill="#989898"><path transform="matrix(.40499 0 0 .40499 34.414 106.52)" d="m304.05-231.6v243.89h65.113v-103.82h76.348v103.82h65.111v-243.89h-65.111v93.359h-76.348v-93.359z" fill="#000" stroke-width="2.4692"/></g></g><path d="m799.75 71.067c-0.7098 9.7436-3.0973 19.036-8.324 27.424-4.7105 7.6142-11.228 12.776-20.068 14.841-2.5166 0.58074-5.0977 0.9029-7.6787 0.9029h-39.749c-1.2853 0-1.6127-0.20934-1.6127-1.1612v-42.33c0-0.75629-0.21633-1.0324-0.96771-1.0324h-44.266c-0.83221 0-1.097 0.17617-1.097 1.0324v42.33c0 0.8564-0.25811 1.1617-1.097 1.1617h-11.099c-0.77556 0-1.032-0.38643-1.032-1.1615v-102.53c0-1.0491 0.27119-1.2905 1.032-1.2905l10.841 2.661e-4c0.96791 2.38e-5 1.3551 0.25779 1.3551 1.2902v45.492c0 0.78563 0.25547 1.0969 1.097 1.0969h44.266c0.71218 0 0.96771-0.26172 0.96771-1.0969v-45.492c0-1.1286 0.19628-1.2902 1.6127-1.2902h40.33c8.5821 0.064511 16.325 2.7744 22.585 8.9045 4.2588 4.1297 7.0335 9.0983 9.0338 14.583 2.323 6.4527 3.549 13.099 3.8716 19.939 0.33176 5.9878 0.33226 12.357 0 18.39zm-62.204-49.041c-1.8068 0-1.8068-5.6e-5 -1.8068 1.8067v75.69c0 1.7422 0 1.7425 1.6777 1.7425h25.682c6.5818-0.0645 11.938-2.8395 16.003-8.0662 1.6132-2.1294 2.8392-4.4524 3.8716-6.9044 2.2584-5.6139 3.2909-11.486 3.7426-17.422 0.51621-6.5173 0.32263-13.035-0.4517-19.552-0.64527-5.4203-1.7422-10.712-4.1297-15.616-3.6135-7.2916-9.421-11.357-17.616-11.679z" stroke-width=".64527"/>
</svg>
