<svg width="1013.3pt" height="236.54pt" version="1.1" viewBox="0 0 1013.3 236.54" xmlns="http://www.w3.org/2000/svg">
 <defs>
  <linearGradient id="linearGradient5566" x1="414.97" x2="441.88" y1="248.05" y2="271.93" gradientTransform="matrix(1.3129 0 0 1.3129 -34.691 -259.43)" gradientUnits="userSpaceOnUse">
   <stop stop-color="#30743b" offset="0"/>
   <stop stop-color="#34762c" offset=".25"/>
   <stop stop-color="#27662d" offset=".5"/>
   <stop stop-color="#205b2f" offset=".75"/>
   <stop stop-color="#185432" offset="1"/>
  </linearGradient>
  <linearGradient id="linearGradient7931" x1="458.25" x2="491.66" y1="279.48" y2="299.43" gradientTransform="matrix(1.3129 0 0 1.3129 -88.352 -307.03)" gradientUnits="userSpaceOnUse">
   <stop stop-color="#1d6130" offset="0"/>
   <stop stop-color="#25642f" offset=".25"/>
   <stop stop-color="#2a6b2b" offset=".39707"/>
   <stop stop-color="#2e712c" offset=".50329"/>
   <stop stop-color="#33772a" offset=".6"/>
   <stop stop-color="#2b6a31" offset=".75"/>
   <stop stop-color="#27692c" offset="1"/>
  </linearGradient>
  <linearGradient id="linearGradient11060" x1="501.45" x2="544.95" y1="283.8" y2="236.55" gradientTransform="matrix(1.3129 0 0 1.3129 -88.352 -307.03)" gradientUnits="userSpaceOnUse">
   <stop stop-color="#165230" offset="0"/>
   <stop stop-color="#16542d" offset=".24625"/>
   <stop stop-color="#22602d" offset=".45"/>
   <stop stop-color="#31742d" offset=".6"/>
   <stop stop-color="#35782b" offset=".8"/>
   <stop stop-color="#30732e" offset="1"/>
  </linearGradient>
  <linearGradient id="linearGradient12756" x1="504.81" x2="553.65" y1="287.08" y2="240.16" gradientTransform="matrix(1.3129 0 0 1.3129 -88.352 -307.03)" gradientUnits="userSpaceOnUse">
   <stop stop-color="#1b5a2d" offset="0"/>
   <stop stop-color="#33772a" offset=".2"/>
   <stop stop-color="#3c842e" offset=".35"/>
   <stop stop-color="#2c6c30" offset=".55"/>
   <stop stop-color="#24632e" offset=".75"/>
   <stop stop-color="#236630" offset="1"/>
  </linearGradient>
  <linearGradient id="linearGradient16929" x1="548.19" x2="609.76" y1="304.59" y2="268.66" gradientTransform="matrix(1.3129 0 0 1.3129 -88.352 -307.03)" gradientUnits="userSpaceOnUse">
   <stop stop-color="#4ea032" offset="0"/>
   <stop stop-color="#58aa2e" offset=".25"/>
   <stop stop-color="#67b231" offset=".4"/>
   <stop stop-color="#74ba33" offset=".55"/>
   <stop stop-color="#86c539" offset=".75"/>
   <stop stop-color="#83c349" offset="1"/>
  </linearGradient>
  <linearGradient id="linearGradient19562" x1="551.41" x2="611.65" y1="307.68" y2="271.23" gradientTransform="matrix(1.3129 0 0 1.3129 -88.352 -307.03)" gradientUnits="userSpaceOnUse">
   <stop stop-color="#5bad31" offset="0"/>
   <stop stop-color="#75bb34" offset=".25"/>
   <stop stop-color="#84c239" offset=".5"/>
   <stop stop-color="#82c03b" offset=".75"/>
   <stop stop-color="#85c53d" offset=".85"/>
   <stop stop-color="#7ebf47" offset="1"/>
  </linearGradient>
 </defs>
 <path d="m590.81 6.9646c17.002-9.4922 38.323-8.6257 55.969-1.3523-8.2056 3.6367-17.895 8.0743-19.982 17.803-1.3274 7.4678-1.3768 15.34-2.7239 22.867-2.9342 19.34-15.716 30.936-27.25 30.936-9.4264 0-19.812-4.0925-28.319-7.6936-8.5207-22.477 0.4989-51.229 22.306-62.56z" fill="#125124" stroke-width="1.3129"/>
 <path d="m590.81 6.9646c17.002-9.4922 38.323-8.6257 55.969-1.3523-78.307 5.0598-11.739 44.186-78.275 63.912-8.5207-22.477 0.4989-51.229 22.306-62.56z" fill="url(#linearGradient11060)" stroke-width="1.3129"/>
 <path d="m694.3 43.522c10.76-0.0557 20.948 1.846 31.512 3.6168-8.1205 1.094-15.911 5.2027-19.554 9.9511-2.8642 3.8678-1.8168 9.4995-2.9963 15.376-1.6459 8.1221-5.8998 16.169-12.357 20.628-7.8882 5.3805-21.248 9.0532-32.704 9.0532-9.6171 0-20.194-1.7494-28.801-6.1334-5.1935-13.587 0.71455-27.074 5.5337-32.235 15.217-16.211 38.431-20.256 59.367-20.256z" fill="#50a023" stroke-width="1.3129"/>
 <path d="m725.81 47.139c-8.1205 1.094-15.911 5.2027-19.554 9.9511-2.8642 3.8678-1.8168 9.4995-2.9963 15.376-1.6459 8.1221-5.8998 16.169-12.357 20.628-7.8882 5.3805-21.248 9.0532-32.704 9.0532-9.6171 0-20.194-1.7494-28.801-6.1334 64.971 0.51573 28.026-46.93 96.413-48.875z" fill="url(#linearGradient19562)" stroke-width="1.3129"/>
 <path d="m694.3 43.522c10.76-0.0557 20.948 1.846 31.512 3.6168-71.088 1.5987-29.87 46.474-96.413 48.875-5.1935-13.587 0.71455-27.074 5.5337-32.235 15.217-16.211 38.431-20.256 59.367-20.256z" fill="url(#linearGradient16929)" stroke-width="1.3129"/>
 <path d="m507.64 74.881c-1.1685-7.3522-0.38074-14.915 1.5886-22.057 2.9278 3.7811 5.2385 8.7964 10.083 10.49 5.908 2.2057 12.354 0.61706 18.472 1.6542 8.6782 1.1291 16.004 7.6411 19.392 15.532 1.8502 5.858-0.55096 12.552-2.5995 17.829-9.2165 5.5798-20.7 4.7459-30.38-0.1838-8.735-5.0432-14.468-13.772-16.556-23.265z" fill="#14522b" stroke-width="1.3129"/>
 <path d="m507.64 74.881c-1.1685-7.3522-0.38074-14.915 1.5886-22.057 5.3666 38.271 33.709 15.918 45.347 45.505-9.2165 5.5798-20.7 4.7459-30.38-0.1838-8.735-5.0432-14.468-13.772-16.556-23.265z" fill="url(#linearGradient5566)" stroke-width="1.3129"/>
 <path d="m78.333 34.181c3.7713-5.6553 8.7259-9.1524 15.94-9.1048 13.02 0 18.213 11.191 17.013 21.958 4.6389 1.4636 8.5995 4.8913 10.451 9.5316 6.9141-6.2342 13.422-6.3714 20.899-2.9104 5.804 2.9916 9.8523 7.635 9.5467 15.947 9.6199 1.3044 17.013 6.185 17.013 17.811 0.0973 11.291-7.919 15.711-17.315 16.948h-135.19c-8.8277 0-15.062-3.8396-15.062-12.913 0-8.9923 6.1319-13.037 13.487-13.562-2.7235-4.6655-2.0704-12.744 4.1897-17.399 7.9723-5.2987 16.206-2.1349 20.427 2.7072 1.1821-8.0557 6.6659-11.971 14.14-12.197-1.8445-5.1948-0.58906-12.252 4.6626-16.688 5.4103-4.3172 15.208-3.8672 19.797-0.1301z" fill="#fff" stroke-width="1.3129"/>
 <path d="m509.23 52.824c2.9278 3.7811 5.2385 8.7964 10.083 10.49 5.908 2.2057 12.354 0.61706 18.472 1.6542 8.6782 1.1291 16.004 7.6411 19.392 15.532 1.8502 5.858-0.55096 12.552-2.5995 17.829-9.4754-29.358-40.149-8.1434-45.347-45.505z" fill="url(#linearGradient7931)" stroke-width="1.3129"/>
 <path d="m646.78 5.6123c-8.2056 3.6367-17.895 8.0743-19.982 17.803-1.3274 7.4678-1.3768 15.34-2.7239 22.867-2.9342 19.34-15.716 30.936-27.25 30.936-9.4264 0-19.812-4.0925-28.319-7.6936 67.154-18.032 0.50294-58.223 78.275-63.912z" fill="url(#linearGradient12756)" stroke-width="1.3129"/>
 <g transform="matrix(1.2666 0 0 1.2666 -.027485 104.46)" fill="#fff">
  <path d="m605.55 43.55-13.688-36.842h-51.62v10.624h15.936v41.677h11.475v-41.677h15.799l16.855 42.052h10.181l21.145-52.676h-12.428zm-98.95 22.712c0 11.918-7.7975 19.102-19.102 19.102h-19.613c-11.373 0-19.102-7.3889-19.102-19.102l0.034-46.274h-18.83v46.274c0 23.188 15.561 37.898 37.898 37.898h19.613c22.303 0 37.898-15.493 37.898-37.898v-46.274h-18.83zm-339.03-27.41c9.8746 0 14.71 3.7115 18.353 9.1595h20.294c-4.3584-16.106-20.124-28.057-38.851-28.057h-21.588c-22.099 0-40.077 14.403-40.077 38v8.3423c0 23.801 17.979 37.966 40.077 37.966h21.588c18.728 0 34.493-11.952 38.851-28.057h-20.294c-3.6434 5.4821-8.0358 9.1595-18.353 9.1595h-21.996c-14.131 0-21.111-7.0143-21.111-19v-8.5126c0-12.36 8.0359-19 21.111-19zm85.059-18.829c-8.9893 0-15.186 1.8387-21.043 5.3118v-25.333h-18.489v55.434c-0.0681 0.95341-0.0681 1.7366-0.0681 2.4857v46.274h18.796v-45.389c0-13.211 8.2742-19.953 20.805-19.953h17.025c12.326 0 20.839 7.0484 20.839 19.953l-0.034 45.389h18.83v-46.274c0-22.167-17.706-37.898-39.635-37.898zm-153.42 55.706v5.5502c0 15.22-10.624 22.916-31.496 22.916h-36.195c-5.0735 0-9.5-0.44265-13.143-1.328-3.6774-0.88531-6.81-2.3835-9.3298-4.4606-2.5197-2.0771-4.5287-4.733-5.9247-7.8997-1.0215-2.2473-1.8387-4.9032-2.4516-7.9337l-0.23835-1.2258h21.247l0.23835 0.681c0.4086 1.1918 0.91936 2.043 1.6344 2.5538 1.2258 0.91936 3.8477 1.3961 7.6954 1.3961h38.068c3.7796 0 5.4821-0.5448 6.8441-1.328 1.4642-0.85126 2.8602-3.5412 2.8602-5.5842v-1.5663c0-2.009-1.2939-4.733-2.6219-5.5161-1.4642-0.88531-3.5072-1.2258-7.0484-1.2258h-36.842c-3.1326 0-5.7885-0.0681-7.9678-0.17025s-4.086-0.2724-5.6523-0.4767-2.9624-0.51075-4.1201-0.88531c-1.1577-0.3405-2.3154-0.8172-3.4391-1.328-3.6093-1.8047-6.4014-4.4265-8.3423-7.7635-2.043-3.4391-2.9624-9.2276-2.9624-13.109v-4.8692c0-10.113 5.7204-22.167 32.858-22.167l34.97-0.03405c5.4821 0 9.3979 0.3405 12.701 1.1237 3.5753 0.85126 6.6398 2.2814 9.1595 4.2222 2.5197 1.9749 4.5627 4.5287 6.0269 7.5932 1.1577 2.4176 2.1452 5.3459 2.9283 8.6828l0.2724 1.2599h-21.349l-0.23835-0.71506c-0.4086-1.2599-0.95341-2.1452-1.6685-2.6559-1.1577-0.85126-3.5072-1.2258-7.6613-1.2258h-39.43c-3.5753 0-5.3799 0.30645-6.8441 1.1577s-2.8602 3.5753-2.8602 5.6183v1.6344c0 2.009 1.2939 4.767 2.6219 5.5502 1.4301 0.88531 3.4731 1.2258 7.0484 1.2258h38.17c3.0645 0 5.7545 0.0681 7.9678 0.17025 2.1792 0.10215 4.086 0.2724 5.6523 0.4767s2.9624 0.51075 4.1201 0.88531c1.1237 0.3405 2.3154 0.8172 3.4391 1.328h0.03405c3.5753 1.8047 6.3674 4.3925 8.3415 7.7294 1.8039 3.1326 2.9275 7.5251 2.9275 11.713z"/>
  <g transform="matrix(34.05,0,0,-34.05,403.74,85.378)">
   <path d="m0 0h-1.393c-0.343 0-0.621 0.211-0.621 0.558v0.25c0 0.367 0.278 0.558 0.621 0.558h0.772c0.343 0 0.621-0.239 0.621-0.533zm-1.387 1.921c-0.649 0-1.177-0.432-1.177-1.115v-0.246c0-0.693 0.528-1.115 1.177-1.115h1.937v1.386c0 0.601-0.528 1.09-1.177 1.09z" fill="#fff"/>
  </g>
  <g transform="matrix(34.05,0,0,-34.05,-6447.9,15187)">
   <g transform="translate(208.67,445.44)">
    <path d="m0 0h0.177v-1.092h1.41v1.092h0.174v-2.474h-0.174v1.212h-1.41v-1.212h-0.177z" fill="#fff"/>
   </g>
   <g transform="translate(211.58,443.13)">
    <path d="m0 0c0.811 0 1.105 0.284 1.105 1.079 0 0.811-0.247 1.072-1.058 1.072h-0.608v-2.151zm-0.738 2.314h0.785c0.915 0 1.235-0.29 1.235-1.235 0-0.925-0.37-1.239-1.289-1.239h-0.731z" fill="#fff"/>
   </g>
  </g>
 </g>
</svg>
