<svg width="600pt" height="231.48pt" version="1.1" viewBox="0 0 600 231.48" xmlns="http://www.w3.org/2000/svg">
 <g transform="scale(1.8519)" fill="#989898">
  <path d="m0 0h324v125h-324v-125" fill="#fff"/>
 </g>
 <g transform="matrix(1.8519 0 0 1.8519 0 .0092595)">
  <path d="m1.01 1.025h240.2v11.695c-17.951 24.006-17.381 81.393 0 98.775v12.47h-240.2v-122.94" fill="#ffc729"/>
 </g>
 <g transform="scale(1.8519)">
  <path d="m253.26 17.24c6.5757-3.849 14.025-4.8944 21.648-4.8944 5.7197 0 10.043 0.51387 15.566 1.1693l-1.7643 19.635c-5.083-0.78651-11.61-2.37-15.82 1.74-4.18 4.06-3.2652 10.355-3.2852 15.625h20.08v20.07h-20.08l2.5e-4 53.38h-28.395v-81.945c-0.08-9.4 3.6302-19.74 12.05-24.78z" fill="#0ebacd"/>
 </g>
 <g transform="scale(1.8519)" fill="#989898">
  <path d="m84.38 20.37c-12.93 9.77-13.33 31.86-0.72 42.02 6.6 5.08 14.78 7.31 22.63 9.68 4.19 1.4 8.65 2.64 12.08 5.58 2.1788 1.8192 2.6274 4.6279 2.4255 7.3637-0.91171 8.2678-11.028 8.6263-16.816 8.6263-9.3292 0-17.89-2.59-26.23-5.98l-2.34 20.82c9.9034 3.9145 21.004 4.9614 30.822 4.9224 11.771 0 26.919-4.2428 33.978-11.172 7.48-7.07 9.18-18.41 7.34-28.14-1.08-7.37-6.4-13.46-12.77-16.98-8.32-4.59-17.92-5.89-26.66-9.42-3.51-1.35-7.06-4.59-6.55-8.68 1.254-7.9736 11.941-8.5412 18.576-8.3793 7.1978 0.20996 14.391 2.13 21.194 4.3493l1.34-20.16c-7.98-2.48-15.809-3.8329-24.68-3.8329-11.972 0-24.15 2.1029-33.62 9.3829z" fill="#000"/>
 </g>
 <g transform="matrix(1.8519 0 0 1.8519 .00062782 .00019268)" fill="#989898">
  <path transform="matrix(.40499 0 0 .40499 34.414 106.52)" d="m304.05-231.6v243.89h65.113v-103.82h76.348v103.82h65.111v-243.89h-65.111v93.359h-76.348v-93.359z" fill="#000" stroke-width="2.4692"/>
 </g>
</svg>
