<svg width="833.98" height="904" version="1.1" xmlns="http://www.w3.org/2000/svg">
 <defs>
  <linearGradient id="A" x1="57.977" x2="58.012" y1="121.82" y2="3.13" gradientTransform="matrix(7.6031 0 0 7.6031 -23.76 -22.186)" gradientUnits="userSpaceOnUse">
   <stop stop-color="#ec0089" offset="0"/>
   <stop stop-color="#ec0a67" offset=".24711"/>
   <stop stop-color="#ed1930" offset=".5"/>
   <stop stop-color="#f9930f" offset=".74982"/>
   <stop stop-color="#ffc800" offset="1"/>
  </linearGradient>
 </defs>
 <path d="m416.99 0-416.99 242.35 0.091237 1.399v417.79l416.95 242.46 416.94-242.46-0.0609-419.21z" fill="#fff" stroke-width="7.6031"/>
 <path d="m416.99 26-393.01 228.41 0.086 1.3185v393.76l392.97 228.52 82.618-48.045 8.6675 20.96 66.915-38.913 12.234-33.115 222.52-129.4-0.0574-395.1z" fill="url(#A)" stop-color="#000000" stroke-width="7.6031" style="font-variation-settings:normal"/>
 <path d="m495.65 577.35-14.035 113.82-109.68 33.514 103.92 48.508-1.7259 97.608 34.199-19.882 43.763-46.896 23.151 7.9832 52.195-30.367-22.467-40.585 69.036-91.579-112.53 21.821zm-126.56 191.95-49.306 8.1733-12.606 48.356-23.015-44.364-49.891 3.0412 35.088-35.582-18.225-46.531 44.691 22.368 38.624-31.705-7.4662 49.42zm-24.71-148.49-20.338 24.345 13.959 28.481-29.439-11.815-22.779 22.079 2.1289-31.652-28.04-14.826 30.762-7.7552 5.4438-31.173 16.879 26.862zm-187.77 57.616-52.636 43.528 42.562 24.771z" fill="#fff" stroke-width="7.6031"/>
 <g transform="matrix(3.2148 0 0 3.2148 448.36 -74.097)" fill="#fff" style="shape-inside:url(#rect869);white-space:pre" aria-label="SCHLAGER">
  <path d="m-104.36 123.19c1.8 0.6 3.44 1.36 4.92 2.24l3.08-6.4c-1.56-1-3.36-1.8-5.44-2.4s-4.16-0.88-6.28-0.88c-2.32 0-4.36 0.36-6.08 1.08-1.76 0.72-3.12 1.76-4.08 3.08-0.96 1.36-1.44 2.96-1.44 4.76 0 1.88 0.48 3.36 1.4 4.52s2.04 2 3.32 2.52c1.28 0.56 2.88 1.08 4.84 1.6 1.72 0.44 3 0.88 3.84 1.28 0.84 0.44 1.24 1.04 1.24 1.8 0 0.64-0.24 1.12-0.76 1.48s-1.2 0.52-2.12 0.52c-1.48 0-3.2-0.44-5.24-1.28s-3.8-1.84-5.2-3.08l-3.12 6.32c1.76 1.4 3.84 2.52 6.28 3.32 2.4 0.84 4.8 1.24 7.2 1.24 2.16 0 4.12-0.32 5.88-1 1.72-0.68 3.12-1.68 4.16-3.04 1-1.32 1.52-2.96 1.52-4.92 0-1.92-0.48-3.48-1.4-4.64-0.96-1.16-2.08-2.04-3.36-2.64-1.28-0.56-2.92-1.12-4.88-1.68-1.72-0.48-3-0.92-3.8-1.36-0.8-0.4-1.2-0.96-1.2-1.72 0-0.52 0.2-0.96 0.64-1.24 0.4-0.28 0.96-0.4 1.68-0.4 1.16 0 2.6 0.32 4.4 0.92z"/>
  <path d="m-76.237 123.79c1.2 0.68 2.24 1.64 3.12 2.8l4.8-5.72c-1.4-1.52-3.16-2.72-5.28-3.64s-4.2-1.36-6.32-1.36c-2.84 0-5.44 0.64-7.72 1.88s-4.08 2.96-5.4 5.16-1.96 4.68-1.96 7.4c0 2.76 0.64 5.28 1.92 7.52s3.04 4 5.32 5.24c2.24 1.28 4.76 1.92 7.56 1.92 2.12 0 4.24-0.48 6.4-1.48 2.12-1 3.96-2.32 5.48-3.96l-4.8-5.12c-0.96 1-2.04 1.8-3.24 2.4-1.24 0.6-2.36 0.88-3.44 0.88-1.24 0-2.4-0.32-3.4-1-1-0.64-1.8-1.52-2.4-2.68-0.6-1.12-0.88-2.4-0.88-3.8s0.28-2.68 0.88-3.84c0.6-1.12 1.4-2 2.4-2.64s2.16-0.96 3.4-0.96c1.16 0 2.32 0.32 3.56 1z"/>
  <path d="m-65.797 116.39v28.04h8.32v-10.44h9.96v10.44h8.32v-28.04h-8.32v11.16h-9.96v-11.16z"/>
  <path d="m-34.477 116.39v28.04h20.08v-6.96h-11.76v-21.08z"/>
  <path d="m9.0428 144.43h8.88l-11.56-28.04h-8.56l-11.96 28.04h8.56l1.68-4.48h11.32zm-10.64-10.56 3.44-9.16 3.36 9.16z"/>
  <path d="m32.803 128.39v5.64h4.76l-0.04 2.68c-1.56 0.76-3 1.12-4.28 1.12-2.04 0-3.76-0.72-5.12-2.12s-2.04-3.16-2.04-5.28 0.68-3.88 2.04-5.28 3-2.08 5.04-2.08c1.24 0 2.52 0.24 3.8 0.8s2.4 1.32 3.36 2.24l4.72-5.72c-1.48-1.32-3.24-2.36-5.4-3.12s-4.32-1.12-6.44-1.12c-4.52 0-8.24 1.32-11.2 4.04s-4.44 6.12-4.44 10.24 1.44 7.56 4.28 10.28 6.44 4.08 10.8 4.08c2 0 4.12-0.36 6.36-1.04s4.12-1.52 5.64-2.56l-0.04-12.8z"/>
  <path d="m48.763 116.39v28.04h23.32v-6.4h-15v-4.44h12.126v-6.4h-12.126v-4.4h14.6v-6.4z"/>
  <path d="m92.523 144.43h9.44l-5.68-9.16c1.52-0.88 2.68-2.08 3.52-3.6 0.8-1.48 1.2-3.28 1.2-5.32 0-3.16-1.04-5.64-3.08-7.36-2.08-1.72-5-2.6-8.76-2.6h-13.08v28.04h8.32v-7.56h4.4zm-8.12-13.96v-7.68h4.76c1.24 0 2.24 0.32 2.92 0.96 0.68 0.68 1 1.6 1 2.84s-0.32 2.2-1 2.88-1.68 1-2.92 1z"/>
 </g>
 <g transform="matrix(7.4121 0 0 7.4121 -11.4 -1440.4)" fill="#fff" stroke-width=".99995">
  <path d="m10.798 250.05v16.999h7.4996c4.7088 0 8.4996-3.7908 8.4996-8.4996s-3.7908-8.4996-8.4996-8.4996zm3.9998 3.9998h3.4998c2.4929 0 4.4998 2.0069 4.4998 4.4998s-2.0069 4.4998-4.4998 4.4998h-3.4998z"/>
  <path d="m28.797 250.05v16.999h11.999v-3.9998h-7.9996v-2.4999h6.4997v-3.9998h-6.4997v-2.4999h7.9996v-3.9998z"/>
  <path d="m44.797 250.05v16.999h11.999v-3.9998h-7.9996v-12.999z"/>
  <path d="m58.296 250.05v9.4995c0 4.1548 3.3448 7.4996 7.4996 7.4996s7.4996-3.3448 7.4996-7.4996v-9.4995h-3.9998v9.4995c0 1.9389-1.5609 3.4998-3.4998 3.4998s-3.4998-1.5609-3.4998-3.4998v-9.4995z"/>
  <path d="m74.795 250.05 5.4997 8.4996-5.4997 8.4996h4.9997l2.9998-4.6248 2.9998 4.6248h4.9997l-5.4997-8.4996 5.4997-8.4996h-4.9997l-2.9998 4.6248-2.9998-4.6248z"/>
  <path d="m92.794 250.05v16.999h11.999v-3.9998h-7.9996v-2.4999h6.4997v-3.9998h-6.4997v-2.4999h7.9996v-3.9998z"/>
 </g>
</svg>
