<svg width="918.33" height="261.19" version="1.1" viewBox="0 0 918.33 261.19" xmlns="http://www.w3.org/2000/svg">
 <g transform="matrix(.93049 0 0 .93049 430.79 -94.002)">
  <g fill-rule="evenodd">
   <path d="m56.911 229.41c0 24.288-6.5949 40.711-19.772 48.281-13.203 7.57-38.119 11.342-81.717 11.342-43.611 0-68.72-3.2461-79.536-9.3662-11.945-6.7745-15.525-21.812-15.525-47.588h43.264c0 8.5964 3.0152 13.895 8.9941 15.884 5.979 2.0016 22.864 2.8868 47.075 3.0023 24.211 0.11548 36.836-1.1419 42.225-3.4899 5.3375-2.348 8.0062-8.4424 8.0062-18.335 0-10.893-2.6687-17.629-8.0575-20.182-5.3503-2.5404-19.733-3.7978-42.174-3.7978s-36.336 0.62869-42.7 1.8476c-6.3639 1.2189-10.842 4.1956-13.408 8.9941h-43.123l-0.0257-105.09h188.36v38.607h-144.38v31.037c5.0039-3.3231 3.8106-2.8099 11.496-6.4152 7.6983-3.5925 29.998-6.659 60.893-6.659 30.896 0 51.373 3.2461 62.856 10.457 11.496 7.2235 17.244 27.188 17.244 51.476" fill="#d3d2d2"/>
   <path d="m-462.25 110.78h287.71v177.82h-287.71z" fill="#ed1c24"/>
   <path d="m-408.6 331.75c0-2.9382-1.1804-4.7858-3.5155-5.4658-2.3608-0.69285-10.713-1.0264-18.578-1.0264-7.8522 0-9.3534 0.32076-11.021 0.93663-1.6423 0.62869-2.4891 2.0272-2.4891 4.1827 0 2.1684 1.1676 3.5669 3.4514 4.1827 2.3095 0.5902 7.1466 0.76983 14.537 0.55171 16.5-0.53888 26.816 0.2951 30.96 2.4634 4.1186 2.1427 6.1714 8.7247 6.1714 16.911 0 8.1858-2.0657 11.945-6.1971 14.165-4.1186 2.2197-10.252 3.3231-26.341 3.3231s-30.318-1.0906-34.719-3.2974c-4.4265-2.2068-6.6333-8.0062-6.6333-17.398h17.449c0 3.2204 1.2574 5.2092 3.8106 5.9662 2.5404 0.757 11.496 1.1291 20.092 1.1291 8.5964 0 10.444-0.30793 12.304-0.89813 1.8476-0.5902 2.7842-1.8861 2.7842-3.8876 0-2.3351-1.2189-3.8235-3.6695-4.4778-2.4634-0.65436-3.5155-0.97512-15.576-0.60303-12.061 0.38491-26.341-0.3336-30.421-2.4506-4.0416-2.117-6.0816-8.4424-6.0816-16.615 0-8.1602 2.0016-12.176 6.0046-14.409 4.0159-2.2582 9.9693-3.1563 25.584-3.3872 15.627-0.21812 29.459 1.0778 33.757 3.2333 4.2854 2.1555 6.428 7.7752 6.428 16.872zm97.755 17.167c0 10.444-2.0016 16.898-5.9918 19.361-3.9903 2.4763-14.473 3.6952-31.409 3.6952s-27.393-1.5268-31.383-4.6061c-3.9774-3.0793-6.0303-10.559-6.0303-24.224 0-13.677 2.0529-23.082 6.0303-26.456 3.9903-3.3616 14.447-5.0424 31.383-5.0424s27.419 1.1676 31.409 3.5027 5.9918 8.4553 5.9918 18.386h-18.091c0-3.0665-1.0264-4.9526-3.0793-5.6711s-7.4032-1.437-16.231-1.437-14.319 1.1547-16.32 2.7842-3.0152 6.3639-3.0152 13.292c0 6.9284 1.0136 10.649 3.0152 12.138 2.0016 1.4755 7.493 2.2197 16.32 2.2197s14.178-0.42341 16.231-1.283 3.0793-3.0793 3.0793-6.659zm6.5307 22.466v-59.148h18.091v22.043h40.031v-22.043h18.078v59.148h-18.078v-21.979h-40.031v21.979h-9.0198zm95.356 0-17.013-59.148h17.385l11.06 42.045h0.0513l16.051-42.045h19.541l16.962 42.494 10.341-42.494h17.398l-16.474 59.148h-21.786l-16.372-40.275h0.0257l-15.384 40.275zm94.073 0v-59.148h65.641v13.613h-47.562v8.2243h44.907v12.818h-44.907v10.893h47.562v13.6zm73.429 0v-59.148h18.078v59.148h-9.0198zm23.493-13.806 40.839-31.537 0.25661-0.19246h-41.096v-13.613h70.927v13.806l-40.852 31.537-0.25661 0.20529h41.109v13.6h-70.927v-6.89z" fill="#d3d2d2"/>
   <path d="m-385.81 218.34-0.0128-37.298h48.781v-48.781h37.311v48.781h48.769l0.0128 37.298h-48.781v48.781h-37.311v-48.781z" fill="#e9e9e9"/>
  </g>
 </g>
 <path d="m690.17 47.865-9.244 57.312h-63.319l9.707-57.312h-48.531l-28.193 165.46h48.528l11.554-67.475h63.322l-11.557 67.475h48.068l28.193-165.46zm164.54 0h-92.438l-6.4682 38.363h91.049c16.638 0 23.574 4.6208 19.877 25.882l-5.5469 34.666c-3.2388 17.562-11.559 28.193-29.579 28.193h-42.062l11.554-69.79h-48.526l-18.027 108.15h98.446c50.38 0 70.253-21.257 77.649-66.553l6.0075-34.666c7.8574-46.683-11.552-64.245-61.935-64.245z" fill="#d3d2d2" stroke-width="2.3624"/>
 <path d="m513.53 0.075882h12.64v261.04h-12.64z" fill="#d3d2d2" stroke="#000" stroke-width=".15176" style="paint-order:stroke markers fill"/>
</svg>
