<svg width="2579.3pt" height="475.3pt" version="1.1" viewBox="0 0 2579.3 475.3" xmlns="http://www.w3.org/2000/svg">
 <path d="m2322.3 418.4c0 31.252-25.499 56.906-56.75 56.906h-2208.7c-31.252 0-56.812-25.654-56.812-56.906v-361.65c0-31.252 25.561-56.75 56.797-56.75h2208.7c31.251 0 56.75 25.499 56.75 56.75z" fill="#fff" stroke-width="15.548"/>
 <path d="m2525.6 83.733h-238.01c-29.577 0-53.734 24.157-53.734 53.734v194.81c0 29.422 24.157 53.58 53.734 53.58h238.01c29.577 0 53.734-24.157 53.734-53.58v-194.81c0-29.577-24.158-53.734-53.734-53.734" fill="#f10a0a" stroke-width="15.485"/>
 <path d="m2272.5 123.36c48.9-0.06 97.8 0 146.7-0.03 15.01 54.29 29.85 108.64 44.94 162.9 0.5 0.03 1.49 0.07 1.99 0.1 15.59-53.99 30.02-108.32 45.53-162.33 9.79 0.09 19.6 0.02 29.41 0.04-20.96 73.8-41.76 147.66-62.74 221.45-8.65-0.04-17.28 0.03-25.91-0.03-18.43-64.69-36.84-129.37-55.43-194.01-14.28 0.07-28.55 0.01-42.82 0.03 0.1 64.67-0.27 129.34 0.23 194h-29.88c-0.01-64.66 0.01-129.33-0.01-193.99-17.33-0.03-34.66 0-51.99-0.01-0.02-9.37 0.02-18.75-0.02-28.12z" fill="#fff"/>
 <path d="m1518.9 83.944c15.64-4.72 33.06-4.91 48.18 1.71 15.55 6.57 27.72 20.76 31.38 37.29 4.67 20.95-2.28 43.48-16.04 59.63-14.11 16.78-33.65 27.69-53.22 36.9l54.54 62.73 53.99-84.17h54.02l-4.6 26.015h-36.23l-51.1 78.065 59.14 69.08-22.76 19.48-56.17-66.13c-10.76 16.02-22.78 31.49-37.83 43.72-12.55 10.29-27.44 17.87-43.38 21.19-19.2 3.96-39.98 3.31-57.86-5.36-16.48-7.71-29.6-22.25-35.53-39.45-6.62-19.15-5.03-40.71 3.05-59.17 7.01-16.08 18.84-29.62 32.4-40.55 14.36-11.54 30.58-20.54 47.29-28.21-11.86-12.84-24.75-26.46-28.38-44.17-3.1-17.06 1.09-35.02 9.69-49.9 10.85-18.49 28.9-32.56 49.42-38.7m-12.57 33.41c-12.84 9.99-20.61 26.47-19.19 42.78 0.8 8.69 5.13 16.58 10.57 23.23 5.41 6.61 11.18 12.91 17.12 19.06 7.11-3.31 14.23-6.63 21.09-10.48 12.3-7 24.34-15.72 31.6-28.16 8.05-13.76 8.43-32.72-1.81-45.48-6.38-8.06-16.67-12.3-26.8-12.48-11.78-0.14-23.4 4.23-32.58 11.53m-33.96 133.96c-13.93 8.74-26.65 20.33-33.85 35.34-7.79 16.31-9.59 36.36-1.09 52.77 8.07 16.46 26.36 26.63 44.52 26.08 16.47 0.53 32.87-5.37 45.57-15.79 14.9-12.16 25.74-28.38 35.97-44.45l-60.18-69.51c-10.64 4.49-21.15 9.4-30.94 15.56z" fill="#f10a0a"/>
 <g transform="translate(-59.998 499.42)" fill="#f10a0a" stroke-width="15.396">
  <g transform="translate(-668.68)">
   <path d="m2490.6-114.17-85.604-300.23h40.8l61.893 224.02 62.356-224.02h40.339l-84.988 300.23z"/>
   <path d="m2673.4-114.17h-40.8v-300.23h40.8z"/>
   <path d="m2751.7-153.43v-95.15h105.62v-38.953h-104.08v-89.145h126.1v-38.491h-128.1l-40.8-0.15371v301.15h169.21v-39.261z"/>
  </g>
  <g transform="translate(-798.71)">
   <path d="m1401.7-114.17h-40.847v-300.23h40.847z"/>
   <path d="m1476.7-153.43v-95.15h105.71v-38.953h-104.14v-89.145h126.05v-38.491h-128.05l-40.831-0.15371v301.15h169.31v-39.261z"/>
   <path d="m2099.2-153.43v-95.15h105.77v-38.953h-104.23v-89.145h126.1v-38.491h-128.1l-40.8-0.15371v301.15h169.36v-39.261z"/>
   <path d="m1297.9-176.37c-0.06 0.15371-0.1249 0.30797-0.2009 0.61588-1.3861 3.3872-5.8356 11.085-10.809 15.242-11.563 10.316-21.832 13.241-34.18 13.241-12.332 0-22.648-2.9254-34.18-13.241-4.9422-4.157-9.4226-11.855-10.793-15.242-1.2317-3.0793-2.7559-8.468-2.7559-14.011 0-7.3903 0.033-141.65 0.033-149.04 0-5.5427 1.5243-10.931 2.756-14.011 1.3857-3.3872 5.8199-11.085 10.808-15.396 11.547-10.162 21.848-13.087 34.165-13.087 12.348 0 22.648 2.9253 34.165 13.087 3.3871 2.9253 6.4972 7.3903 8.622 11.085l41.37-14.011c-3.7722-7.3902-10.916-18.63-18.769-25.25-22.063-19.553-41.786-25.25-65.342-25.25-23.603 0-43.31 5.6967-65.388 25.25-9.5304 8.0062-18.014 22.941-20.693 29.407-2.3557 5.6967-5.2656 16.166-5.2656 26.636 0 14.165-0.077 137.95-0.077 151.96 0 10.624 2.9407 21.093 5.281 26.79 2.6481 6.4665 11.193 21.247 20.693 29.407 22.048 19.399 41.786 25.25 65.358 25.25 23.588 0 43.295-5.8507 65.373-25.25 9.5301-8.1601 18.014-22.941 20.692-29.407 0.1086-0.30797 0.2172-0.61588 0.353-0.92379zm-51.824 69.438h0.1233zm0.033 0h-0.077z"/>
   <path d="m1993.3-176.37c0 0.15371-0.1521 0.30797-0.1521 0.61588-1.5393 3.3872-5.8503 11.085-10.931 15.242-11.547 10.316-21.863 13.241-34.181 13.241-12.317 0-22.571-2.9254-34.118-13.241-4.9883-4.157-9.4226-11.855-10.808-15.242-1.2318-3.0793-2.7559-8.468-2.7559-14.011v-149.04c0-5.5427 1.555-10.931 2.7711-14.011 1.3704-3.3872 5.8351-11.085 10.808-15.396 11.547-10.162 21.771-13.087 34.242-13.087 12.317 0 22.633 2.9253 34.18 13.087 3.2328 2.9253 6.4662 7.3903 8.4677 11.085l41.416-14.011c-3.6951-7.3902-10.932-18.63-18.784-25.25-22.017-19.553-41.724-25.25-65.28-25.25-23.634 0-43.341 5.6967-65.419 25.25-9.515 8.0062-18.029 22.941-20.693 29.407-2.3246 5.6967-5.281 16.166-5.281 26.636 0 14.165-0.06 137.95-0.06 151.96 0 10.624 2.9102 21.093 5.2811 26.79 2.6484 6.4665 11.178 21.247 20.677 29.407 22.078 19.399 41.817 25.25 65.343 25.25 23.556 0 43.264-5.8507 65.435-25.25 9.3916-8.1601 18.014-22.941 20.631-29.407l0.4617-0.92379zm-51.886 69.438h0.1521zm0.1521 0h-0.1521z"/>
   <path d="m982.06-183.76-41.247 13.857c2.2017 7.0824 5.4041 13.395 5.5273 13.703 5.6043 10.47 11.547 16.936 20.878 25.25 22.941 20.323 52.225 23.864 75.827 23.864 23.649 0 43.864-5.8506 65.958-25.404 9.5611-8.0061 18.445-24.48 21.124-30.947 2.371-5.8506 6.1277-18.63 6.1893-29.099 0.2157-33.718-12.24-51.116-31.301-69.438-19.076-18.168-63.834-37.259-82.371-48.807-15.181-9.5458-17.398-22.941-18.199-30.177 0-5.5427 1.5243-11.085 2.756-14.011 1.401-3.3872 5.866-11.239 10.839-15.396 11.547-10.162 21.848-13.241 34.226-13.241 12.348 0 22.648 3.0793 34.211 13.241 3.4026 2.9253 6.5281 7.3903 8.622 11.085l41.432-14.011c-3.7721-7.5443-10.947-18.63-18.768-25.404-22.109-19.553-41.878-25.25-65.481-25.25s-43.356 5.6967-65.466 25.25c-9.5304 8.1601-18.06 22.941-20.724 29.561-2.3556 5.6967-5.2964 16.166-5.2964 26.636 0 14.011 2.448 41.878 29.238 60.354 26.821 18.63 67.159 38.953 80.4 48.961 13.287 10.008 21.601 19.399 21.324 41.416-0.077 5.5427-1.5243 11.085-2.7714 14.011-1.3703 3.3872-5.7582 11.239-10.824 15.396-9.1916 7.5442-21.955 14.473-40.785 14.473-14.365 0-30.146-6.0046-37.429-12.471-5.866-4.4649-14.365-15.396-17.891-23.403m60.77-238.95h0.108zm-19.846 314.7h-0.092z"/>
   <path d="m1784.8-414.4v214.78l-110.38-214.32v-0.46168h-40.831v300.23h40.831v-213.86l110.38 212.47v1.3857h40.862v-300.23z"/>
  </g>
 </g>
</svg>
