<svg width="693.89" height="227.05" version="1.0" viewBox="-7.331 -7.331 293.25 95.941" xmlns="http://www.w3.org/2000/svg">
 <defs>
  <clipPath id="a">
   <path d="m30.932 643.96h29.689v12.198h-29.689z"/>
  </clipPath>
 </defs>
 <g transform="matrix(11.548 0 0 -11.548 -390.56 7548.3)" fill="#040606">
  <g clip-path="url(#a)" fill="#040606">
   <g transform="translate(39.618 647.93)">
    <path d="m0 0c-0.299-0.031-0.629-0.047-0.982-0.049-0.154-1e-3 -0.28 0-0.377 3e-3 0.03 0.707 0.053 1.367 0.068 1.962 0.324 7e-3 0.717 0.04 1.173 0.101l0.075 9e-3 0.01 0.075c0.028 0.203 0.042 0.404 0.04 0.6-1e-3 0.182-0.035 0.439-0.102 0.763l-0.016 0.08s-1.104-0.021-1.209-0.022l-1e-3 0.143c-1e-3 0.25-0.015 0.571-0.041 0.95 0.276 0 0.576-9e-3 0.892-0.025l0.077-4e-3 0.022 0.074c0.08 0.264 0.119 0.508 0.118 0.724-1e-3 0.212-0.028 0.438-0.081 0.672l-0.015 0.072-0.074 5e-3c-0.372 0.026-0.716 0.039-1.021 0.037-0.45-3e-3 -0.95-0.049-1.486-0.137l-0.093-0.015 0.011-0.093c0.114-0.987 0.174-1.89 0.179-2.687-0.087-0.385-0.223-0.765-0.404-1.13l-0.063-0.128s0.391-0.037 0.472-0.044c-0.014-1.436-0.09-2.64-0.227-3.578l-0.014-0.101 0.781-0.082c0.045-8e-3 0.131-0.011 0.271-0.01 0.501 3e-3 1.101 0.064 1.785 0.182l0.057 0.01 0.019 0.054c0.178 0.502 0.267 1.004 0.265 1.491l-1e-3 0.109z" fill="#040606"/>
   </g>
   <g transform="translate(42.226 647.89)">
    <path d="m0 0-0.716 6e-3c0.109 0.947 0.283 2.094 0.366 3.224 0.144-1.196 0.244-2.366 0.35-3.23m1.539-1.43c-0.487 2.477-0.831 5.025-1.064 7.575l-8e-3 0.089-1.661-1e-3 -4e-3 -0.054-3e-3 -0.039c-0.139-2.108-0.539-4.698-1.163-7.699l-0.022-0.103 1.501-0.215s0.079 0.608 0.09 0.693l0.859 9e-3c0.013-0.082 0.094-0.696 0.094-0.696l1.423 0.214z" fill="#040606"/>
   </g>
   <g transform="translate(35.893 649.83)">
    <path d="m0 0c-0.111 0.235-0.321 0.578-0.625 1.019-0.388 0.556-0.577 0.941-0.577 1.177-1e-3 0.215 0.092 0.399 0.275 0.544 0.185 0.145 0.423 0.219 0.706 0.22 0.104 0 0.217-0.018 0.337-0.053l0.08-0.024-0.018 0.081c-0.122 0.546-0.264 1.018-0.424 1.404l-0.013 0.03h-0.033l-0.164-1e-3c-0.692-1e-3 -1.248-0.19-1.649-0.56-0.402-0.371-0.605-0.881-0.603-1.516 1e-3 -0.598 0.267-1.288 0.79-2.053 0.388-0.569 0.585-1.017 0.585-1.329 1e-3 -0.311-0.11-0.569-0.33-0.764-0.219-0.198-0.519-0.297-0.889-0.298h-0.106l0.017-0.062c0.151-0.552 0.241-1.088 0.266-1.593l2e-3 -0.046h0.091c0.782 2e-3 1.41 0.236 1.866 0.695 0.457 0.46 0.688 1.09 0.686 1.873-1e-3 0.442-0.092 0.865-0.27 1.256" fill="#040606"/>
   </g>
   <g transform="translate(46.624 649.83)">
    <path d="m0 0c-0.111 0.235-0.322 0.578-0.625 1.019-0.388 0.556-0.577 0.941-0.578 1.177 0 0.215 0.093 0.399 0.276 0.544 0.185 0.145 0.423 0.219 0.706 0.22 0.103 0 0.217-0.018 0.337-0.053l0.079-0.024-0.017 0.081c-0.122 0.546-0.265 1.018-0.425 1.404l-0.012 0.03h-0.033l-0.164-1e-3c-0.693-1e-3 -1.248-0.19-1.649-0.56-0.402-0.371-0.605-0.881-0.603-1.516 1e-3 -0.598 0.267-1.288 0.79-2.053 0.388-0.569 0.585-1.017 0.585-1.329 1e-3 -0.311-0.11-0.569-0.33-0.764-0.22-0.198-0.519-0.297-0.889-0.298h-0.106l0.016-0.062c0.152-0.552 0.241-1.088 0.267-1.593l2e-3 -0.046h0.091c0.782 2e-3 1.41 0.236 1.867 0.695 0.456 0.46 0.687 1.09 0.685 1.873-1e-3 0.442-0.092 0.865-0.27 1.256" fill="#040606"/>
   </g>
   <g transform="translate(58.307 649.83)">
    <path d="m0 0c-0.111 0.235-0.321 0.578-0.625 1.019-0.387 0.556-0.576 0.941-0.577 1.177-1e-3 0.215 0.092 0.399 0.276 0.544s0.422 0.219 0.705 0.22c0.104 0 0.218-0.018 0.338-0.053l0.079-0.024-0.017 0.081c-0.122 0.546-0.265 1.018-0.425 1.404l-0.013 0.03h-0.032l-0.164-1e-3c-0.693-1e-3 -1.248-0.19-1.65-0.56-0.401-0.371-0.604-0.881-0.603-1.516 2e-3 -0.598 0.268-1.288 0.791-2.053 0.387-0.569 0.584-1.017 0.585-1.329 1e-3 -0.311-0.11-0.569-0.33-0.764-0.221-0.198-0.519-0.297-0.889-0.298h-0.107l0.017-0.062c0.152-0.552 0.241-1.088 0.266-1.593l2e-3 -0.046h0.091c0.782 2e-3 1.41 0.236 1.867 0.695 0.456 0.46 0.688 1.09 0.686 1.873-2e-3 0.442-0.092 0.865-0.271 1.256" fill="#040606"/>
   </g>
   <g transform="translate(49.548 648.37)">
    <path d="m0 0c-0.104-0.377-0.233-0.568-0.384-0.569-0.202-1e-3 -0.445 0.335-0.456 1.944-0.012 1.873 0.275 2.268 0.518 2.27 0.147 1e-3 0.262-0.156 0.343-0.467 0.085-0.33 0.131-0.835 0.136-1.5 5e-3 -0.72-0.049-1.285-0.157-1.678m1.067 4.767c-0.341 0.747-0.792 1.123-1.342 1.12-0.607-4e-3 -1.101-0.397-1.469-1.168-0.377-0.792-0.565-1.88-0.555-3.234 8e-3 -1.231 0.177-2.196 0.503-2.866 0.338-0.694 0.806-1.044 1.391-1.041 0.597 5e-3 1.087 0.375 1.456 1.101 0.371 0.734 0.556 1.734 0.548 2.974-9e-3 1.309-0.188 2.357-0.532 3.114" fill="#040606"/>
   </g>
   <g transform="translate(55.289 654.21)">
    <path d="m0 0-0.138-0.036c-0.274-0.07-0.564-0.11-0.861-0.117-0.174-4e-3 -0.357 3e-3 -0.544 0.021l-0.116 0.012 8e-3 -0.118c0.064-0.929 0.114-1.957 0.15-3.062-0.29 1.042-0.574 2.119-0.845 3.214l-0.028 0.113-0.061-0.027-0.044-0.018c-0.428-0.181-0.845-0.309-1.24-0.383l-0.095-0.017 0.016-0.097c0.108-0.653 0.173-1.373 0.193-2.141 0.049-1.898-0.031-3.668-0.237-5.258l-0.014-0.107 1.731-0.08-0.017 0.119c-0.042 0.302-0.083 1.231-0.123 2.76-5e-3 0.2-6e-3 0.441-3e-3 0.715 0.563-1.796 0.885-2.998 0.958-3.573l0.018-0.147 0.128 0.072c0.356 0.202 0.732 0.313 1.12 0.33l0.103 5e-3 -9e-3 0.104c-0.107 1.15-0.177 2.335-0.208 3.521-0.039 1.517 9e-3 2.88 0.142 4.052z" fill="#040606"/>
   </g>
  </g>
 </g>
</svg>
