<svg width="597.53" height="800" enable-background="new 0 0 1600 900" version="1.1" viewBox="0 0 597.53 800" xml:space="preserve" xmlns="http://www.w3.org/2000/svg">
<g transform="matrix(3.1653 0 0 3.1653 38.036 -281.79)"><path d="m82.399 140.53c41.354 0 74.831 33.477 74.831 74.831s-33.477 74.831-74.831 74.831-74.831-33.477-74.831-74.831 33.477-74.831 74.831-74.831" fill="#fff"/><path d="m136.17 258.07c-11.967 1.5148-22.116-2.7266-30.599-11.058-15.905-15.299-19.995-35.143-20.753-55.896-0.30298-11.361 1.2118-22.873 2.5751-34.083 0 10.755-0.30298 21.51 0.15149 32.265 0.7574 18.48 4.3929 36.052 16.511 50.745 8.4828 10.301 18.48 17.117 32.114 18.026z"/><path d="m30.896 258.07c11.967 1.5148 22.116-2.7266 30.599-11.058 15.905-15.299 19.995-35.143 20.753-55.896 0.30298-11.361-1.2118-22.873-2.5751-34.083 0 10.755 0.30298 21.51-0.15149 32.265-0.75739 18.48-4.3929 36.052-16.511 50.745-8.3313 10.301-18.329 17.117-32.114 18.026z"/><path d="m82.399 140.53c41.354 0 74.831 33.477 74.831 74.831s-33.477 74.831-74.831 74.831-74.831-33.477-74.831-74.831 33.477-74.831 74.831-74.831m0-4.5444c-43.777 0-79.375 35.598-79.375 79.375s35.598 79.375 79.375 79.375 79.375-35.598 79.375-79.375-35.749-79.375-79.375-79.375z"/></g><g stroke-width="1.0231"><path d="m247.97 772.15c-2.4451-3.1224-2.3694-4.4473 1.2788-6.5589 6.5814-3.8089 9.4327-10.129 8.9191-17.684-0.47982-7.0612-3.7905-12.426-10.522-15.287-8.6306-3.6667-17.547-3.1306-26.461-1.5172-2.5945 0.46959-3.4048 2.5648-3.3782 5.1982 0.0972 9.5626 0.0378 19.127 0.0378 28.691 0 9.8491 0.0399 19.698-0.0225 29.547-0.0215 3.3843 1.7832 4.5537 4.8279 4.477 2.9638-0.0747 4.2918-1.4998 4.2263-4.5834-0.13607-6.4208-0.14118-12.849 0.0235-19.267 0.043-1.6891-1.3965-4.6509 1.7494-4.7757 3.0068-0.11867 6.5794-1.8047 8.9734 1.8906 3.238 4.9987 6.4699 10.016 10.007 14.802 2.6058 3.5255 4.5384 7.6065 7.9206 10.499 2.4042 2.0554 5.456 2.3786 7.8521 0.35807 2.6702-2.2518 0.16983-4.2969-1.1653-6.163-4.7051-6.5804-9.2834-13.263-14.267-19.627zm-6.7656-11.527c-0.5146 0.2353-1.0456 0.43583-1.5725 0.64146-3.5541 1.3822-7.6372 2.1321-10.882 0.88598-4.1844-1.6072-1.0814-6.1886-1.8865-9.3478-0.20461-0.80311-0.0307-1.7024-0.0307-2.5577v-6.4126c-2e-3 -5.8622 0.23633-6.2213 6.2704-5.9471 5.3067 0.24144 10.793 0.73661 13.823 5.9798 3.5542 6.1507 0.79595 13.772-5.721 16.758z"/><path d="m363.03 737.39c6.1742-0.0992 11.617 2.3357 16.941 5.1982 1.9643 1.0558 4.1762 1.3024 5.5604-1.1438 1.2799-2.262 1.0732-4.3706-0.9801-6.1241-0.53916-0.46039-1.1172-0.89314-1.7321-1.243-11.339-6.4464-23.178-6.9067-34.9-1.7351-13.442 5.9307-18.273 17.446-18.494 31.407-0.20154 2.7521 0.35092 5.4069 0.72638 8.0966 3.7393 26.808 34.879 34.574 53.347 22.38 2.6528-1.7515 3.7281-3.947 1.9725-6.8229-1.9356-3.1715-4.3276-1.7003-6.5988-0.36217-4.1128 2.4226-8.4946 4.1158-13.285 4.3317-15.839 0.71615-27.177-11.671-26.435-28.774 0.6742-15.586 9.5176-24.976 23.877-25.208z"/><path d="m50.269 786.86c-4.213 2.5311-8.7002 4.3122-13.64 4.5117-15.563 0.62714-26.289-10.615-26.356-27.511-0.05525-13.751 6.0412-22.595 17.885-25.688 7.7907-2.0349 14.932 0.0338 21.747 3.8222 2.3285 1.2942 4.8504 2.4472 6.6837-0.57905 1.8876-3.1152 0.30385-5.3548-2.3367-7.1523-3.4795-2.3684-7.4234-3.4948-11.452-4.4678-14.412-3.4815-30.034 2.4564-37.367 14.406-4.9425 8.0546-5.4908 16.947-4.4585 26.056 1.373 12.114 7.3896 21.24 18.519 26.201 12.089 5.3885 24.174 4.6785 35.522-2.4912 2.3479-1.4835 3.37-3.856 1.5305-6.6254-1.9029-2.8646-4.0984-1.7894-6.2776-0.48084z"/><path d="m591.27 790.08c-6.1415-0.0338-12.285-0.0777-18.424 0.042-2.4144 0.0471-3.7117-0.46141-3.6411-3.2585 0.15142-5.9952 0.0972-11.998 0.0215-17.996-0.0276-2.1618 0.70694-3.0303 2.9751-2.9536 4.4227 0.14835 8.8547-7e-3 13.282 0.0634 2.7909 0.045 4.8463-0.66499 4.8616-3.9358 0.0154-3.37-2.0175-4.39-5.0161-4.3624-4.1414 0.0379-8.2899-0.12277-12.424 0.0583-2.6406 0.11561-3.904-0.47368-3.7168-3.4672 0.24963-3.9838 0.24861-8.0066 0-11.99-0.17801-2.8339 0.98727-3.2953 3.4631-3.2196 5.4223 0.16369 10.854 0.0164 16.281 0.0573 2.9434 0.0225 4.9568-0.69671 5.0151-4.257 0.0593-3.6319-1.9848-4.257-4.9271-4.2396-7.7129 0.045-15.426-1e-3 -23.139 0.0174-5.1205 0.0123-6.1906 1.0865-6.208 6.3369-0.0297 9.1411-0.0102 18.282-0.0102 27.424 0 9.2844-0.0246 18.569 0.0102 27.852 0.0164 4.8719 1.2911 6.2827 5.9512 6.3236 8.5692 0.0747 17.141 0.0563 25.71-4e-3 3.0027-0.0205 5.8775-0.44299 5.7425-4.5373-0.12993-3.9521-3.0222-3.9388-5.8008-3.9542z"/><path d="m483.98 790.06c-5.8591 0.0307-11.73-0.20666-17.573 0.10129-3.8764 0.20461-4.8176-1.2123-4.7767-4.9036 0.18006-16.575 0.0409-33.153 0.11663-49.729 0.0154-3.3915-1.0855-5.6269-4.7296-5.6095-3.5102 0.0164-4.8668 1.864-4.788 5.4959 0.20768 9.5698 0.0706 19.148 0.0716 28.723 1e-3 9.5749 0.16983 19.154-0.0767 28.722-0.10844 4.2018 1.7955 5.7067 5.541 5.72 8.7166 0.0307 17.434 0.0297 26.152-5e-3 2.9106-0.0113 5.6668-0.64454 5.6995-4.2642 0.0327-3.6606-2.6406-4.2662-5.6361-4.2498z"/><path d="m134.29 729.92c-3.5337 1e-3 -4.878 1.994-4.8606 5.5276 0.0962 19.417 0.0747 38.834 0.0286 58.251-7e-3 3.2206 1.0558 5.2565 4.569 5.324 3.6074 0.0685 5.0376-1.7096 4.9967-5.2923-0.11356-9.8501-0.0389-19.702-0.0389-29.553h0.0143c0-9.5657-0.1156-19.133 0.0604-28.696 0.0644-3.5603-1.2001-5.5614-4.7696-5.5604z"/><path d="m325.62 35.761c3e-3 9.712-0.0102 19.424 0.0102 29.136 7e-3 3.2452 1.5684 5.1082 4.9363 5.1205 3.4539 0.01228 4.7184-1.8589 4.6488-5.1808-0.11868-5.7108-0.0368-11.425-0.0389-17.137-2e-3 -6.6561-1e-3 -6.5794 6.5292-6.6029 1.9101-0.0072 2.9403 0.48289 4.0094 2.2262 2.8165 4.5915 5.9993 8.9621 9.1033 13.375 2.6968 3.8345 5.3578 7.7047 8.2766 11.367 1.8569 2.3295 6.7697 2.7531 8.5887 0.96987 2.6569-2.6047-0.0205-4.5353-1.2277-6.2827-4.8391-7.0039-9.7693-13.958-14.996-20.673-1.9755-2.5382-1.774-3.1746 1.0333-4.8043 12.482-7.2444 13.543-25.165 1.7351-32.382-8.8526-5.41-18.804-5.0335-28.633-2.7807-3.1081 0.71206-4.0207 3.2012-4.0012 6.2295 0.0604 9.1391 0.0225 18.28 0.0256 27.42zm9.5596-14.025c0-3.5286 0.16471-6.3891-0.0471-9.222-0.20359-2.7275 0.97396-3.5255 3.4692-3.3792 4.2161 0.24656 8.515-0.51051 12.475 1.8681 4.3122 2.5904 5.8141 6.4116 5.3977 11.151-0.41127 4.6816-3.0866 7.7672-7.2914 9.6363-0.12891 0.05729-0.26907 0.09412-0.40616 0.133-4.1404 1.1673-9.1943 2.9904-12.394 0.77344-3.3137-2.2947-0.44197-7.6812-1.2031-10.961z"/><path d="m238.59 70.434c1.4272 0 2.8687 0.13198 4.2785-0.02353 5.8775-0.64658 11.437-2.1239 16.187-5.9604 2.1914-1.7689 2.5556-3.8079 1.1755-5.9522-1.3402-2.083-3.3546-2.393-5.5952-1.0343-1.5786 0.95657-3.2779 1.7157-4.9353 2.5403-8.2286 4.0902-20.427 2.44-27.246-3.7526-9.4245-8.557-9.8266-19.532-7.4122-30.769 1.9316-8.9907 8.0577-14.404 17.16-16.405 8.1958-1.8016 15.508 0.45015 22.429 4.5834 2.3653 1.4129 4.0759 0.78367 5.4755-1.2522 1.3904-2.0226 1.3331-4.0278-0.60975-5.7098-0.96271-0.8338-1.9929-1.6328-3.103-2.2477-16.382-9.0736-45.013-5.1021-51.14 19.628-5.675 22.91 6.2315 46.74 33.337 46.355z"/><path d="m112.12 69.518c4.4237-0.11561 8.8515-0.02865 13.278-0.02967 4.569-1e-3 9.14-0.08901 13.706 0.02967 3.0958 0.08082 5.0744-1.0875 5.1112-4.2917 0.0379-3.326-2.1443-4.2661-5.1398-4.2334-6.4248 0.07059-12.855-0.11152-19.273 0.0931-2.7203 0.08696-3.4068-0.83584-3.3341-3.3996 0.16369-5.7066 0.18926-11.425-8e-3 -17.13-0.0951-2.7377 0.91462-3.3873 3.4487-3.2748 4.1321 0.18415 8.2847 0.16778 12.418-0.01125 2.6958-0.11663 5.1736-0.90336 5.1511-4.3981-0.0235-3.6042-2.4021-4.0308-5.2493-3.9879-4.1393 0.06241-8.2847-0.08901-12.42 0.06138-2.2947 0.08389-3.4098-0.46856-3.3239-3.0242 0.14936-4.4206 0.10537-8.8525 4e-3 -13.276-0.0501-2.1924 0.72534-2.9914 2.9761-2.9362 5.5654 0.13402 11.137-0.023531 16.703 0.071615 2.7541 0.047061 4.9199-0.50744 5.0201-3.7485 0.10026-3.2503-1.9008-4.6048-4.8626-4.6263-8.1384-0.060361-16.277-0.058315-24.415-0.00102-2.9996 0.021484-4.8299 1.4323-4.8288 4.6866 0.0102 19.561 0.0102 39.122-1e-3 58.684-1e-3 3.4006 1.6686 4.8309 5.0396 4.7429z"/><path d="m443.62 35.404c0 9.5759 0.0849 19.153-0.0419 28.727-0.0512 3.8641 1.598 5.4233 5.3793 5.3854 8.8598-0.09003 17.723-0.05218 26.583-0.01944 2.8595 0.01023 5.1747-0.50437 5.2842-4.0524 0.11663-3.7731-2.2354-4.4575-5.3067-4.4391-6.1456 0.03785-12.297-0.14937-18.435 0.07571-3.1091 0.11458-4.3532-0.66397-4.1864-3.9992 0.26497-5.275 0.20461-10.578 0.0184-15.859-0.1023-2.9055 0.72536-4.0913 3.8191-3.9501 4.4166 0.20052 8.8608 0.10844 13.276-0.14834 2.5352-0.14732 4.3071-1.639 4.1844-4.4463-0.12584-2.8851-1.9674-3.8273-4.6406-3.7915-4.4299 0.05934-8.8639-0.08594-13.291 0.05525-2.4318 0.07775-3.3506-0.88598-3.3117-3.236 0.0696-4.1434 0.13198-8.294-0.0235-12.432-0.10947-2.9106 1.199-3.6493 3.8703-3.5695 5.1409 0.15346 10.289 0.027623 15.434 0.0532 2.8503 0.014323 5.6985 0.056269 5.6484-3.9736-0.046-3.6984-2.6221-4.3716-5.5502-4.389-7.718-0.046038-15.436-0.00818-23.153-0.019438-3.8437-0.00614-5.6832 1.6441-5.6116 5.7292 0.16574 9.4317 0.0532 18.866 0.0532 28.299z"/><path d="m4.5824 66.845c4.2979 2.4779 8.9867 3.5572 13.914 3.7056 10.645 0.2261 18.619-4.8125 21.416-13.536 2.7807-8.6715-0.42457-17.107-9.2598-23.072-4.2202-2.8493-9.0061-4.8473-13.322-7.5687-3.5828-2.26-6.5773-5.3333-5.9512-10.054 0.56883-4.2897 3.4426-6.74 7.6331-7.5799 4.5557-0.9136 8.7145 0.074684 12.647 2.5485 2.2671 1.4262 5.0591 2.3776 6.8044-0.44197 1.8385-2.972 0.29567-5.4376-2.4595-7.1676-3.7393-2.3479-7.9441-3.0406-12.235-3.4211-9.5575-0.8471-18.103 3.9685-21.135 11.91-2.8769 7.538 0.14425 15.384 8.6316 21.143 4.3266 2.9362 9.1923 5.0683 13.618 7.8736 7.5584 4.79 8.4976 14.021 2.1116 18.938-3.8897 2.9956-12.341 2.8574-17.045-0.25168-1.42-0.93816-2.8493-1.8773-4.345-2.6835-1.5602-0.83994-3.0784-0.60054-4.2457 0.77549-1.0435 1.2297-1.7894 2.5833-1.0814 4.3092 0.85529 2.086 2.4308 3.4938 4.3041 4.5741z"/><path d="m594.51 1.6986c-1.373-0.30283-2.8288-0.3059-4.2478-0.30897-11.567-0.022507-23.134-0.0133-34.7-0.012277-2.7132 0-5.4284-0.059338-8.1385 0.0266-2.794 0.087984-5.1184 0.87268-5.1972 4.3061-0.0829 3.6268 2.2405 4.0994 5.1266 4.0565 4.7112-0.070592 9.4296 0.11254 14.135-0.0665 2.7838-0.10538 3.7557 0.82664 3.7076 3.6554-0.1463 8.5651-0.0532 17.135-0.0512 25.703 1e-3 8.5682-0.0563 17.136 0.0256 25.704 0.042 4.3266 2.7664 6.2233 6.7338 4.9455 3.1081-1.0006 2.7858-3.6155 2.7899-5.9993 0.0276-16.422 0.12174-32.845-0.0675-49.265-0.044-3.8232 1.1755-4.9977 4.9005-4.7655 4.6938 0.2926 9.4204 0.0399 14.133 0.068546 2.437 0.014323 3.7096-1.1121 3.857-3.5582 0.1371-2.2794-0.67931-3.9757-3.0058-4.4892z"/></g>
</svg>
