<svg space="preserve" version="1.1" viewBox="0 0 1141.6 507.31" xmlns="http://www.w3.org/2000/svg">
 <path class="st0" d="m460.23 3.814c6.4 2 12.3 4.8 16.6 9.6 5.8 6.3 4.5 14.7 2.3 21.6-5.9 17.9-19.6 28.8-36.1 36.8-11.9 5.7-24.4 9.8-36.9 13.4-8.9 2.6-18.5 1.3-27.7 0.6-0.8-0.1-2-0.2-1.9-1.2 0.5-5.2-4.3-5.5-7-7.7-1.2-0.9-3.8-1-2.8-3.2 1-2 1.5-5.3 4.5-5.1 9.4 0.2 18.8-1 27.9-3.6 13.6-3.6 26.5-9.5 38-17.6 2.5-1.8 4.9-3.8 7.7-5 2.4-1 4.7-1.4 4.6-4.7 0-4-0.3-8.1-4-10.5-2.1-1.3-4.4-2.1-6.9-2.3-10.5-1.4-20.9-1-31.3 0.2-6.4 0.7-12.4 3.3-18.4 5.5-7 2.6-14.4 4.8-20.7 8.6-8.4 5.1-17.6 8.5-25.3 15.4-7 6.3-9 15.4-15.6 21.7-2 1.9-1.2 5.6-0.6 8.2 1.4 5.9 2.4 12 3.8 17.9 2.3 9.7 9.4 16.4 15.7 23.6 6 6.8 14.1 10.8 20.8 16.6 7.4 6.4 15.4 12.1 23.2 17.9 6 4.5 13.2 7.5 18 13.5 8.3 10.6 18.2 19.9 25.3 31.5 6.7 11 9.6 23 10.6 35.5 0.8 11.2 0.9 22.4-3.2 33.3s-10.2 20.9-18 29.5c-12.8 14.2-28.3 25.7-45.6 33.8-16.1 7.5-32.9 12.5-50 16.9-17.5 4.5-35.4 7-53.4 7.5-15.6 0.5-31.2-1.2-46.3-4.9-12.9-3.1-25.6-6.7-37.8-11.8-15-6.2-28.2-14.7-37.2-29-5.2-8.3-10.9-16.2-14.3-25.5-2.7-7.4-3.2-15.2-4.1-22.9-1.9-15.7 0.6-31.5 7.1-45.9 5.2-11.5 12.3-22.1 21-31.3 12.1-13.3 27.4-22.3 42-32.3 5.3-3.6 11.6-4.7 17.5-6.4s11.8-3.9 17.8-5.6c3.2-0.9 6.3-1.8 9.7-1.8 9.3 0.1 9.3 0 8.1 9.4-0.2 1.9-0.9 2.3-2.7 2.7-12.3 2.3-23.1 7.9-33.3 15-10.3 7.2-19.7 15.7-27.9 25.2-6.8 7.8-12.1 16.8-16.7 26.1-9.2 18.6-11.2 37.7-2.9 57.1 8.2 19.1 20.4 35.3 38.9 45.5 12.1 6.6 25 11.6 39.2 11.6 3.5 0 6.5 2.7 10.5 1.8-4.3-3.6-9.5-5.2-14-7.9-7.9-4.7-13.1-11.8-17.9-19.2-6-9.4-10.9-19.5-13.2-30.4-2-9.4-3.2-18.9-1.9-28.6 1.7-12.5 4.2-24.5 10-35.9 10.3-19.9 25.5-34.3 46-43.1 2-0.9 4.3-1.5 6.7-2.3 2 8.1 3.2 15.7-1.7 23.7-2.1 3.4-4.5 6.5-7.2 9.5-4.7 5.5-7 12.6-11.8 18.2-7 8.2-11.1 18.4-13.4 28.5-2 9.3-1.6 18.9 1.1 28.1 3.6 12.4 9.7 23.1 20.1 31.1 8.7 6.6 18.9 10.9 29.7 12.5 15.1 2.4 30.2 1.3 44.9-2.1 17.9-4.2 34.6-11.3 49.1-23.1 9.7-7.7 18.5-16.6 26-26.5 10.3-13.8 10.1-27.6 2-42.2-9.3-16.7-21.9-30.3-36.9-42-16.9-13.1-35.2-24.1-51.9-37.4-15.1-12-26-26.7-29.5-45.7-3.2-17.3 0.6-33.5 10.3-48.5 9.5-14.6 22.4-24.9 37.7-32.8 9.3-4.8 18.6-9.4 28.4-12.9 12.3-4.2 25-6.9 38-8 1.8-0.2 11.9-2.2 22.2-2 8.6 0.3 16.9 1.6 25 3.8" fill="#bf2519"/>
 <path class="st1" d="m254.73 156.81c0.5-0.1 0.9-0.2 1.4-0.4-0.5 0.1-1 0.2-1.4 0.4-2.9 0.5-5.7 1.3-8.4 2.1-8.9 2.9-17 7.4-24.8 12.8-10.3 7.2-19.7 15.7-27.9 25.2-6.8 7.8-12.1 16.8-16.7 26.1-9.2 18.6-11.2 37.7-2.9 57.1 8.2 19.1 20.4 35.3 38.9 45.5 12.1 6.6 25 11.6 39.2 11.6 3.6 0 6.5 2.7 10.5 1.8-4.3-3.6-9.5-5.2-14.1-7.9-7.9-4.7-13.1-11.7-17.9-19.2-6-9.4-10.9-19.5-13.2-30.4-2-9.4-3.2-18.9-1.9-28.6 1.7-12.5 4.2-24.5 10.1-35.9 10.3-19.9 25.5-34.3 46-43.1 2-0.9 4.3-1.5 6.7-2.3-0.1-0.4-0.3-0.8-0.4-1.1 0 0-5.1-10.1-10.1-12.6-3.6-1.9-7.7-2.5-11.7-1.6" fill="#ecece8"/>
 <g transform="translate(-32.671 -103.59)" fill="#fff">
  <path class="st1" d="m1174.3 507.7c-8.8-1.3-16.7-2.4-24.6-3.8-2.8-0.5-5.6-0.7-8.4-0.7-1.6 0-3.6-0.7-4.2 1.6-0.6 1.8-0.2 3.7 1 5.1 2.2 2.8 4.3 5.7 6.6 8.8-3.7 1-6-1.3-8.4-2.2-12.7-4.7-26.1-6.6-39.2-9.5-13-2.9-26.3-3.6-38.9-8.7-7.6-3-16.4-3.3-24.6-2.3-9.8 1.1-18.7-2.3-27.9-3.5-9.7-1.3-19.2-2.8-29.1-2.8-10.1 0-20.1-1.9-30.2-2.6-20.9-1.6-41.7-2.8-62.7-3.4-10.7-0.3-21.3-2.8-32-3.8-7.3-0.7-14.5-0.2-21.1 3.7-2.1 1.2-4.6 1.4-6.8 0.4-5.2-2.6-9.9-1.1-14.7 0.6-4 1.4-7.5 0-10.9-1.6-3.6-1.7-7-3.6-11-3.8-0.7 0-1.6 0.1-1.9-0.3-3.8-5-5-1.2-6.3 1.8-1.1 2.5-2.5 3.1-5 1.7-3.4-1.9-7.6-2-11-0.1-4.7 2.4-9.8 1.2-14.6 2-14.7 2.4-29.5 1.4-44.3 2.6-5.7 0.5-11 1.4-15.8 4.5-2 1.3-3.8 1.7-6 0.8-5.8-2.5-11.5-2-17.3 0.1-1.6 0.5-3.2 0.8-4.9 0.8-14.7 0.7-29.3 0.8-44 0.8-14.1 0-28.5-0.2-42.2 2.7-19.3 4-39 3.3-58.2 6.7-11.4 2-22.9 2.8-34.1 6.3-12.3 3.9-25.3 4.7-38 6.4-14.3 1.9-28.5 3.7-42.6 6.3-10 1.9-20 4.3-30.1 5.9-8.6 1.4-17.1 3.6-25.6 5.6-1.5 0.2-2.9 0.1-4.4-0.3-3.7-0.5-7.4-1.3-10.8 1.8-1.9 1.7-4.7 2.2-7.5 2.1-9.2-0.5-18 1.9-26.8 4s-18 4-27 6c-8.8 1.9-17.7 3.8-26.3 6.8-11.8 4-23.7 7.9-36.4 8-2 0.1-3.9 0.5-5.8 1.2-2 0.6-4.4 3.3-5.8-0.9-0.1-0.3-1.9-0.3-2.8-0.1-12.5 2.8-24.8 6.2-37 10.2-20.8 6.8-41 15.4-61.9 22.1-17.1 5.4-34.3 10.5-52 13.1-2.7 0.4-6.4 1.6-7.8-1.3-1.5-3.3 2.5-4.4 4.5-5.9 2.6-2 6-2.5 8.8-4 11.6-6.1 24.2-9.4 36.5-13.8 15-5.3 30.3-8.5 45.7-11.9 12.7-2.9 25.2-6.9 37.7-10.9 16.4-5.3 32.5-11.7 48.9-17 9.2-3 18.4-5.9 27.7-8.7 10.5-3.3 21.3-5.3 32-7.9 7.8-1.9 15.7-3.8 23.5-5.6 12.1-2.8 24.3-5.5 36.5-8.4 7.9-1.8 15.6-4 23.5-5.6 13.7-2.8 27.2-6.3 41-8.5 9.9-1.5 19.7-4.2 29.6-5.8 16.3-2.7 32.4-6.3 48.9-8 6.6-0.7 13-2.3 19.5-3.3 14.2-2.2 28.6-3.6 42.7-6.1 12.5-2.3 25.3-3 37.9-4.5 9.4-1.2 18.7-2.8 28-4 15.1-2 30.2-3.6 45.3-6 16.9-2.7 33.9-3.7 50.8-6.1 9.2-1.3 18.5-2.1 27.7-2.6 28.4-1.7 56.7-3.4 85.2-3.4 27.3 0 54.5 1.1 81.7 2.9 18.7 1.3 37.3 3.5 55.9 5.5 14.5 1.5 28.8 4.1 43.2 6.2 12.1 1.8 24.2 3.4 36.2 5.7 17.9 3.4 35.9 6.9 53.6 11.1 14.5 3.4 29 7.1 43.4 11.3 14.8 4.3 29 9.9 43.4 14.9 0.4 0.1 0.6 0.7 1.6 1.9"/>
  <path class="st1" d="m702.9 355.4c3.8-4.6 5.4-10.1 6.9-15.3 2-7.2 6.5-13.1 9.5-19.7 3.6-8 8-15.6 12.2-23.4 12.1-22.4 25.2-44.1 46.6-59.2 1.7-1.2 3.2-2.9 5.6-2.8 2.8 0.1 6.1-0.4 4.6 4.3-0.1 0.3-0.1 0.7 0 1 5.4 8.4-1.6 13.8-5.7 18.7-8 9.5-13 20.6-19.5 30.8-2.4 3.5-4.5 7.2-6.3 11-1 2.3-9.9 17.2-13.7 25.2-4 8.6-8.9 24.7-12.2 32.9-4.3 10.5-8.1 21.5-16.1 30-4.8 5.1-10 9.8-18 8.4-1.3-0.2-2.7-0.2-4-0.2-11.6-0.2-16.7-5.2-17.7-16.9-2.2-23.7-2.3-47.4 0.7-71 2.1-16.6 4-17.1 9.3-33 1.3-3.8 5.4-5.7 9.1-4.5 1 0.4 2 0.9 2.7 1.7 0.9 0.7 1.1 2 0.6 3-0.7 1.6-1 3.3-1.1 5-0.2 1.6-0.2 4 0.8 4.7 5.5 4.3 1.3 14.1 3 19.2 3.2 10-0.1 5.3 2.6 14.6 3.4 12.1-1.6 23.3 0.1 35.5"/>
  <path class="st1" d="m723.5 242.9c-3.8-5.2-32.4-6.9-55.2 3.8-18.8 8.9-25.1 15.3-26 17.3-0.3 0.7 0.8-4.1 0.2-6.6-0.3-1.2-3.1-0.9-4.6-0.8-2.4 0.2-2.1-0.9-5.3 0.6-1 0.5-4.6-1.8-5 0-1 5.1-1.7 19.8-6 32.5-7.4 21.6-30.6 57-52.8 79.4-7 7-29.6 28.9-47 18-4-2.5-4.1-8.3-4.5-13.3-1.3-16.6 4-27.3 10.4-42.1 1.2-2.7 2.3-2.9 4.9-4 4-1.7 8-3.5 12.1-5.2 11.4-4.5 21.8-9.2 31.7-16.5 11.2-8.3 20.3-14.3 29.4-29.5 7.8-13.1 9.3-37.8-11.1-39.8-19.8-1.9-45.7 13.8-58.9 28.2-16.3 17.7-16.5 25.6-25.4 43.6-0.4 0.8-0.8 1.5-1.4 2.2-2.8 3.7-7.6 5.5-11.6 6.3-3 0.7-7.5 2.6-5 4.9 3.5 3.3 1.3 7.1 5.2 7.1 4.9 0 1.1 6.6 0.4 9.1-4.8 16.8-6.9 33.7-2.6 50.9 2.1 8.7 7.1 15.4 15.4 19.4 11.4 5.5 30.8 1.8 41.6-2.8 28-11.9 59.3-56.1 60.1-62.3-2.9 17.8-7.1 32.8-9.4 49.2-0.9 6.4 5.4 9.6 13.3 11.4 3.3 0.8 9.8-6 12.5-3 1 1.1 3.2-1.3 3.2-2.9-0.1-3.4-0.8-3.8-1.3-11.9 0.1-6.1 0.5-12.3 1.5-18.3 0.6-3 4.8-23.5 4.5-27.1-0.5-5.6 1.2-6.2 1.8-14 2.2-27.3 15.8-42.8 22-48.7 31.9-30.3 59.3-23.6 60.7-22.5 3.9 2.9 5.5-5.4 3.4-7.4-2.3-2.4-0.8-4.7-1.2-5.2m-136.5 14.5c18.4 17.5-53.9 54.7-46.7 39 12.5-27.4 41.2-44.3 46.7-39"/>
  <path class="st1" d="m846.1 285c0.6-4 0.4-8.5 1-12.3 1.3-8.4 9.2-15.6 15.4-21.1 2.9-2.5 4.5-6.1 7.8-8.5 2.5-1.8 5-2.8 7.1-1.5s0.5 35.3-8.4 65.4c-9.6 32.5-12.9 42.5-19.3 60.6-1.8 5.1 1.1 5 3.3 3.9 7-3.3 29.3-38.5 36.9-55.5 5.5-12.2 16.1-33.9 22.1-50.1 2.9-7.8 5.9-16.6 11.9-25.1 1.4-2 5-8.3 23.8-8.6 3.3-0.1-0.1 9.2 5.5 7.1 1.8 0-0.3 4.2-5.5 9.1-9.3 8.6-14.1 24.5-10.8 36.8 3.1 11.7 18.2 25.1 26.6 33.6 13.4 13.6 15.2 30.2 13 47.6-1.3 10.3-8.3 18.2-16.5 24.4s-17.8 10.5-27.2 14.3c-9.6 3.8-19.7 6.8-29.5 10.5-3 1.1-6.4 0.9-9.2-0.6-3.6-1.8-7.3-1.6-11.1-0.4-3.5 1-7.1 1.4-11-0.5 4-5.8 10-7.8 15.7-10 17.8-6.8 33.8-16.5 48.9-28.1 4.1-3.3 7.6-7.3 10.3-11.8 6.2-9.4 4.5-20.1-4.2-31.7-7.3-9.8-17.3-17.7-22.9-28.6-1.6-3.2-2.9-6.5-4-9.9-3.8 8.3-6.6 14.1-10.3 22.2-23.6 60.6-49.5 79.4-58.2 73.4-2.4-1.4-2.7-5.5-6.7-5.5-4.1 0-3.5 2.4-8 5.8s-9.7 6.4-28.2 6.9c-4.9 0.1-12.1-0.5-18.5-4.3-7.5-4.3-13.2-11.3-15.9-19.6-4.8-15.3-6.2-30.2-2.6-46.2 4.1-18.1 7.2-29.3 17.6-46l2.8-5.3c2.5-6 6.8-11 9.1-17.3 2-5.7 7-10 12.1-13.5 3.3-2.3 7.3-2.1 11-0.3 2.6 1.3 2.6 4 2.7 6.5 0.1 1.3-0.4 2.6-1.4 3.5-6.3 6.6-10.7 14.1-11.6 23.3-0.3 3.3-3.4 4.6-5.3 9-0.4 1-1.3 3.2-1.7 3.8-0.5 0.9-0.2 2.3-1 4.1-3 6.4-8.2 15.2-11.5 26.1-1.3 4.4-1.2 10.3-2.2 14.7-3.4 16.1-3.7 42.1 15.9 42.7 15.7 0.6 39.9-76.6 42.2-93"/>
  <path class="st1" d="m1097.9 295-14 45.1c-1.8 5.5-2.3 10.9-3.5 16.4h-0.3c-1.4-5.4-2.2-10.8-4.2-16.2l-13.9-45.3h-75.7v17.5h18v77h22.9v-77h16.4l27.3 77h18.8l32.2-94.5z"/>
 </g>
 <g transform="translate(-32.671 -103.59)" fill="#fff">
  <path class="st1" d="m335.7 550.2h29.9c19.7 0 26.7 14.6 26.7 29.5 0 18.1-9.6 29.7-30.2 29.7h-26.3v-59.2zm18.3 44h7.1c11.4 0 13-9.2 13-14.8 0-3.7-1.2-14.1-14.3-14.1h-5.8z"/>
  <path class="st1" d="m415.7 550.2h49v15.2h-30.8v7.4h27.9v14.1h-27.9v7.4h31.6v15.2h-49.9v-59.3z"/>
  <path class="st1" d="m542.9 586.5c0 16.4-8.9 24.3-26.9 24.3s-27-7.9-27-24.3v-36.3h18.2v32.2c0 6 0 13.6 8.9 13.6 8.6 0 8.6-7.5 8.6-13.6v-32.2h18.2z"/>
  <path class="st1" d="m580.4 565.4h-16.6v-15.2h51.4v15.2h-16.6v44h-18.2z"/>
  <path class="st1" d="m651.4 589.5c0 1.3 0.2 2.7 0.7 3.9 1.3 3.6 5.3 4.3 8.7 4.3 3 0 7.5-1 7.5-5.4 0-3.1-2.6-3.9-12.8-6.8-9.4-2.7-20-5.2-20-17.2 0-13.7 11.7-19.5 23.8-19.5 12.8 0 24.2 4.9 24.7 19.3h-17.3c0.3-1.9-0.5-3.8-2.2-4.7-1.6-1-3.5-1.5-5.4-1.5-2.5 0-6.5 0.7-6.5 4 0.3 4.2 8.8 5.1 17.2 7.5s16.7 6.2 16.7 17.1c0 15.4-14.2 20.4-27.3 20.4-6.7 0-25.8-2.4-26-21.3z"/>
  <path class="st1" d="m745 572.2c-0.3-2.2-2-8.7-9.5-8.7-8.5 0-11.3 8.3-11.3 16.2s2.7 16.2 11.2 16.2c6.1 0 8.5-4.3 9.6-9.9h18c0 11.9-9.7 24.6-27 24.6-19.1 0-30-13.5-30-31 0-18.6 11.8-31 30-31 16.2 0.1 25.2 8.6 26.8 23.4z"/>
  <path class="st1" d="m786 550.2h18.2v20.5h17.1v-20.5h18.2v59.2h-18.2v-23.5h-17.1v23.5h-18.2z"/>
  <path class="st1" d="m864.9 550.2h18.2v44h26.2v15.2h-44.4z"/>
  <path class="st1" d="m950.1 550.2h17.8l21.5 59.2h-18.9l-2.5-8.5h-18.8l-2.7 8.5h-18.3zm14.3 38-5.3-18.2h-0.2l-5.7 18.2z"/>
  <path class="st1" d="m1009.2 550.2h18.6l17.2 31.6h0.2v-31.6h17.2v59.2h-17.7l-18.1-32.3h-0.2v32.3h-17.2z"/>
  <path class="st1" d="m1088 550.2h29.9c19.7 0 26.7 14.6 26.7 29.5 0 18.1-9.6 29.7-30.2 29.7h-26.4zm18.2 44h7.1c11.3 0 13-9.2 13-14.8 0-3.7-1.2-14.1-14.3-14.1h-5.8z"/>
 </g>
</svg>
