<svg width="800" height="283.33" version="1.1" viewBox="0 0 800 283.33" xmlns="http://www.w3.org/2000/svg">
 <g transform="matrix(2.1333 0 0 2.1333 -3.2 1.3533e-5)" fill="#d40000">
  <g transform="scale(1.5)" fill="#d40000">
   <g fill="#d40000" fill-rule="evenodd">
    <g transform="translate(1)" fill="#d40000">
     <path d="m245.84 17.327c0.79465 0.26981 1.5475 0.66678 2.3476 0.91404 0.542 0.1672 1.1335 0.17494 1.814 0.26947v4.8578c-1.4828-0.85012-2.9088-1.9051-4.5038-2.5315-3.1782-1.2481-6.4606-0.23616-8.3544 2.5901-2.8747 4.2893-3.2257 8.877-0.79161 13.458 2.52 4.7431 8.1462 5.5909 12.36 2.0198 0.40457-0.34314 0.78353-0.71657 1.2854-1.1778v5.1512c-0.84147 0.19848-1.687 0.25668-2.4038 0.59041-3.727 1.7362-7.4092 1.9327-10.905-0.436-3.6963-2.505-5.445-6.1941-5.8057-10.55-0.40591-4.8986 0.60971-9.3826 4.3414-12.886 3.0533-2.8666 6.6293-3.6229 10.616-2.2695zm-149.47-0.54042c1.4225 0.29941 2.773 0.93053 4.1706 1.3648 0.60971 0.18906 1.2565 0.25971 2.0026 0.40706v5.239c-0.81283-0.67519-1.4754-1.2928-2.2051-1.8183-1.469-1.058-3.094-1.7235-4.9461-1.5576-1.1837 0.10597-2.2566 0.51236-2.6763 1.7608-0.40456 1.2027 0.15832 2.1669 1.0547 2.8804 1.0803 0.85988 2.258 1.598 3.3915 2.3916l0.69174 0.4775 1.3902 0.9465c0.69283 0.47607 1.3777 0.96202 2.0344 1.4833 3.2921 2.6126 4.2397 6.7021 2.4254 10.124-1.8103 3.4143-6.0846 5.1142-9.9716 3.9223-0.95903-0.29369-1.8621-0.76568-2.8138-1.0883-0.61443-0.20824-1.271-0.29369-2.0269-0.46022v-5.1798c0.78353 0.63919 1.4037 1.2363 2.1101 1.7039 1.9076 1.2626 3.9429 2.0895 6.3002 1.4732 2.9101-0.76097 4.2222-3.5795 2.5429-6.0663-0.94758-1.4032-2.4493-2.4764-3.8253-3.5384-1.655-1.2777-3.5522-2.2557-5.1455-3.5983-2.3748-2.001-2.9404-4.9961-1.685-7.5108 1.1689-2.3415 4.4202-3.9381 7.1811-3.3568zm67.798 0.77823c-0.19302 1.1842-0.54167 2.3677-0.55346 3.5546-0.0579 5.8789-0.0269 11.758-0.0273 17.638v1.419c0.44869 0.04239 0.77241 0.09958 1.0961 0.09992 4.3357 0.0061 8.6714 0.03162 13.006-0.02187 0.76433-0.0094 1.5239-0.35929 2.36-0.57056-0.26578 1.0674-0.55413 2.365-0.93444 3.635-0.0785 0.26207-0.49888 0.60185-0.76365 0.60319-6.5536 0.03364-13.108 0.02624-19.445 0.02624 0.21457-1.0782 0.58377-2.0912 0.59186-3.1071 0.0525-6.6348 0.0505-13.271 4e-3 -19.905-8e-3 -1.1088-0.32069-2.2153-0.4999-3.3709zm34.403-0.0332c-1.1049 0.93894-0.91962 1.9499-0.63801 3.0314 1.8042 6.9342 3.5542 13.882 5.3833 20.81 0.23142 0.87636 0.8189 1.6592 1.2521 2.5066h-6.0014c1.1814-0.80774 1.1884-1.7662 0.83405-2.837-0.44263-1.3379-0.43521-3.1828-1.344-3.9048-0.86067-0.68427-2.6541-0.21329-4.0376-0.22742-1.5142-0.01548-3.0294 0.01985-4.5428-0.01682-0.68752-0.01648-1.0773 0.13894-1.2194 0.90361-0.19807 1.0661-0.50832 2.1154-0.8317 3.1526-0.33955 1.0893-0.50023 2.1113 0.82631 2.9983l-3.5577-2.29e-4c-0.67205-3.4e-4 -1.3288-1e-3 -1.9856-0.0023-0.11251-3.37e-4 -0.22502-0.03499-0.22238-0.03465 0.3167-0.75492 0.72699-1.4772 0.92876-2.2533 1.8453-7.0991 3.6445-14.21 5.4847-21.31 0.25938-1.0018 0.37795-1.9102-0.86-2.8161zm-78.671-0.06661c0.94185-0.01211 1.3346 0.29739 1.5431 1.1912 0.26309 1.127 0.68955 2.2156 0.97015 3.087-0.96375-0.19142-1.9282-0.52077-2.9014-0.5497-2.5972-0.07805-5.1977-0.02658-7.8824-0.02658v7.7645c0.96519-0.11487 1.9384-0.08787 2.9133-0.04569l0.73141 0.03251c1.8289 0.07849 3.6585 0.09904 5.4478-0.77336v5.2081c-2.873-1.6165-5.9758-0.40908-9.1804-0.91539 0 0.63684 1.5e-4 1.255 2.9e-4 1.8608l-1e-5 2.6627c-1.4e-4 0.29118-3.3e-4 0.58157-6.1e-4 0.87195l1e-5 0.37601c5e-3 2.0727 0.12934 2.072 2.452 2.0707 2.4836-1e-3 4.969 0.04878 7.4506-0.02826 0.81182-0.02523 1.6132-0.3788 2.4779-0.5968-0.28835 1.1351-0.59152 2.4373-0.97015 3.7177-0.0701 0.23717-0.44296 0.54836-0.67775 0.5497-3.2549 0.01955-6.5098 0.02413-9.7094 0.02481l-3.8095-3.43e-4c-0.62931-1.32e-4 -1.2555-2.42e-4 -1.8782-2.42e-4 0.20852-1.0947 0.56255-2.1097 0.56996-3.1273 0.0488-6.8037 0.0441-13.608-1e-3 -20.412-6e-3 -0.90799-0.33921-1.8136-0.54806-2.8562 0.0738-0.0064 0.41298-0.06022 0.75186-0.06056 4.0837-0.0054 8.1674 0.02792 12.25-0.02523zm107.84 0.0021c0.80846-0.0072 1.2174 0.23128 1.4259 1.0215 0.31698 1.1997 0.73401 2.3731 1.0237 3.2895-0.86707-0.1995-1.7604-0.5598-2.6632-0.58368-2.8997-0.07637-5.8024-0.02826-8.8105-0.02826v7.7604c2.9529-0.33877 6.0163 0.62304 8.9951-0.72262v5.1085c-2.8761-1.5233-5.9731-0.39865-8.9227-0.82388-0.65215 3.6363-0.2358 10.014 0.75894 11.389h-5.6713c0.22974-0.95677 0.62554-1.853 0.63228-2.7522 0.0525-6.8461 0.0525-13.693 3e-3 -20.539-7e-3 -0.98906-0.36784-1.9758-0.57939-3.0358 0.0428-4e-3 0.35808-0.05517 0.67338-0.05584 4.3785-0.0071 8.7569 0.01278 13.135-0.02742zm-72.411 0.05742c-1.186 1.1455-1.1512 2.4559-1.1084 3.7524l0.0119 0.38834c3e-3 0.12919 5e-3 0.25806 5e-3 0.38643-0.0111 6.2496-0.034 12.5 0.0236 18.749 9e-3 1.0136 0.40524 2.0235 0.62959 3.0705h-5.2812c0.19134-1.0318 0.55851-2.1161 0.56727-3.2034 0.0542-6.6688 0.0519-13.338 3.3e-4 -20.007-8e-3 -1.0204-0.36683-2.038-0.57872-3.1361zm-8.268 0.01797c-2.0973 2.945-2.5362 6.4461-3.6552 9.6814-1.6024 4.6321-3.0095 9.3335-4.4135 14.031-0.23008 0.77006-0.0172 1.6723-8e-3 2.6126h-7.2414c0.95851-0.90343 0.77505-1.8611 0.4574-2.8815l-0.0983-0.30803c-2.1801-6.7398-4.2976-13.5-6.4855-20.237-0.3244-0.99882-0.90952-1.9135-1.3737-2.8673h5.8222c-1.0726 0.90395-0.82833 1.8224-0.51135 2.8239 1.9208 6.0713 3.8001 12.156 5.6949 18.235 0.0859 0.27519 0.19099 0.54466 0.39142 1.1122 1.7904-5.8176 3.4902-11.343 5.1913-16.868 0.24658-0.8 0.47767-1.606 0.75827-2.3946 0.36313-1.0197 0.58343-2.0047-0.56828-2.9403zm26.919 0.02288c-0.18965 1.1378-0.50899 2.2362-0.53122 3.3406-0.0691 3.4328-0.0253 6.8679-0.0253 10.534 3.0112-0.35862 6.0152 0.56249 8.9149-0.69234-0.29037 1.1475-0.58984 2.474-0.98632 3.7712-0.0721 0.23684-0.53728 0.5016-0.82328 0.50395-1.9954 0.01632-3.9908 0.02187-6.0196 0.02334l-3.0723-1.6e-5c-1.0352-4.68e-4 -2.0828-0.0011-3.1472-0.0011 1.3801-1.2515 1.0874-2.7415 1.0907-4.1665 9e-3 -3.4806 0.0445-6.9618-0.0236-10.441-0.0185-0.9423-0.36785-1.8782-0.5767-2.872zm19.394 3.659c-0.35202 0.0068-0.91019 0.39707-1.0072 0.72743-0.57838 1.9714-1.0456 3.9748-1.558 5.9657-0.44633 1.7342-0.90277 3.4658-1.3693 5.2538 0.36886 0.036 0.57535 0.07334 0.78184 0.07368 0.99065 0.0019 1.9814 0.0026 2.989 0.0029l4.1611-2.04e-4c-1.0005-3.8886-1.9403-7.6259-2.9566-11.342-0.0866-0.31657-0.68651-0.68831-1.0409-0.68134z" fill="#d40000"/>
     <g fill="#d40000" fill-rule="nonzero">
      <path d="m71.601 1.7623-0.060229-0.30533c-4.8033 3.9695-10.287 5.6707-16.971 5.6707-6.823 0.006104-13.41-2.5308-18.507-7.1277-4.9452 4.4188-11.552 6.9008-18.662 6.9008-6.68 0-12.331-1.7449-17.135-5.7187-2.0574 31.887 7.8936 56.559 28.407 80.481 2.1998 2.5566 4.6677 4.8633 7.3599 6.879 2.6979-2.0086 5.1665-4.3159 7.3599-6.879 20.698-24.245 30.271-48.018 28.209-79.9m-68.805 17.269c8.4187-8.6457 22.274-9.5617 32.427-2.8877v14.015c-3.6345 0.42641-6.5021 3.3309-6.9253 7.0142h-22.11c-1.6429-5.9371-2.7778-12.007-3.3916-18.142m29.444 16.205c0.32278-1.2171 2.4964-3.7733 3.6714-3.7733 0.86618-8.69e-4 1.7238 0.17416 2.5222 0.51474 0.15069 0.06104 0.23674 0.16145 0.23674 0.26609s-0.09477 0.20069-0.24964 0.25737c-1.8918 0.76562-3.5086 2.0969-4.6354 3.8168-0.05408 0.0862-0.14885 0.13753-0.24964 0.13529-0.04523-2.49e-4 -0.08973-0.01221-0.12918-0.03488l-1.0717-0.62809c-0.13348-0.07848-0.1636-0.26609-0.08604-0.55397m-0.3315-0.0654c-0.03024 0.11299-0.12992 0.19271-0.24534 0.19633-0.05421-0.0021-0.1073-0.01707-0.155-0.0436l-0.92961-0.54525c-0.06723-0.03812-0.11554-0.10302-0.13336-0.17889-0.01635-0.07699-7.38e-4 -0.15734 0.04302-0.22249 0.70799-1.0549 1.6999-1.8815 2.8579-2.3817 0.05544-0.02566 0.11554-0.03899 0.17651-0.03924 0.10153-0.0098 0.19752 0.04846 0.23674 0.14388 0.04056 0.1313-0.0041 0.27418-0.11185 0.35777-0.76466 0.76276-1.3527 1.6878-1.7217 2.7088m-19.239 19.141c-2.398-5.0497-4.4039-10.281-5.9997-15.647h5.9997zm10.399 17.357c-1.9584-2.6436-3.7961-5.3785-5.4877-8.1921v-24.811h5.4748zm10.386 11.926c-0.57389-0.54961-1.188-1.1618-1.8421-1.8363-1.2539-1.2912-2.4676-2.6144-3.6412-3.9695v-39.124h0.11616c0.35731 3.2323 2.1736 5.9934 5.3672 6.9181zm2.2725-39.158c0.0048 0.15173-0.11259 0.27854-0.2623 0.2834-0.0044 1.25e-4 -0.0087 1.25e-4 -0.01303 1.25e-4h-0.02163c-1.2471-0.09605-2.4413-0.54986-3.4432-1.3086-0.12218-0.07088-0.18486-0.21402-0.155-0.35341 0.04277-0.10713 0.14885-0.17403 0.26255-0.16568 0.04425-6e-3 0.08924-6e-3 0.13349 0 0.63768 0.17901 1.2966 0.26845 1.9584 0.26609 0.40968 0.0015 0.81862-0.03364 1.2223-0.10477h0.06453c0.14258-0.0027 0.26046 0.11187 0.26341 0.2565 2.46e-4 0.0091-1.23e-4 0.01819-8.6e-4 0.02716zm0-2.0328c0 0.27917-0.47347 0.43613-1.2654 0.43613-1.5796 0-3.766-0.61937-4.2223-1.422-0.43512-0.7589-0.7161-1.5984-0.82648-2.4689-0.022-0.10514 0.0016-0.21464 0.06453-0.30097 0.03306-0.04285 0.0842-0.06714 0.13779-0.0654 0.09464 0.0083 0.18388 0.04821 0.25382 0.11336 1.6033 1.2861 3.555 2.0468 5.5952 2.1811 0.14676 0.01071 0.26292 0.1303 0.27115 0.27917zm0-2.181c-0.0044 0.15472-0.1271 0.27904-0.27963 0.28353-1.1706 0-4.1749-0.7067-5.9913-2.7045-0.28836-0.31853 0.30126-2.0415 0.55521-2.578 0.04609-0.09766 0.14295-0.16032 0.24964-0.16145 0.05003-3.66e-4 0.09919 0.01309 0.14197 0.03925l5.165 3.0534c0.06293 0.07026 0.11001 0.1536 0.13766 0.24429zm0.29266-2.4209c-0.04708 0.0071-0.09477 0.0071-0.14197 0-0.0456 0.0076-0.09206 0.0076-0.13766 0l-1.5753-0.92046c-0.0633-0.03937-0.10952-0.10178-0.12906-0.1744-0.01868-0.0725-0.0077-0.14949 0.03011-0.21389 0.60253-1.0163 2.69-3.3108 5.3026-3.9258h0.03872c0.47347 0 1.6097 1.3653 1.8852 1.7798 0.04585 0.06428 0.06158 0.1455 0.04314 0.22249-0.01782 0.07699-0.06601 0.14326-0.13349 0.18325zm2.4749-0.69798c-0.06576-0.13603-0.02163-0.30047 0.10337-0.38381l1.0717-0.62809c0.03466-0.02392 0.07449-0.03887 0.11615-0.04372 0.23243 0 0.55963 0.33585 0.89519 0.92482 0.78764 1.3829 1.3516 3.6161 0.89532 4.4188-0.44188 0.76076-1.0268 1.4262-1.7217 1.9587-0.06932 0.05867-0.15524 0.0938-0.24534 0.10028-0.05605 0.0019-0.10989-0.0223-0.14627-0.06528-0.05949-0.09131-0.0783-0.2038-0.05162-0.30969 0.29991-2.039-0.01979-4.122-0.91682-5.972m1.9067-1.0556c-0.05703-0.06403-0.08383-0.14999-0.07326-0.23557 0.01499-0.08645 0.06908-0.16082 0.14627-0.20069l0.92961-0.54089c0.04155-0.02554 0.08924-0.03912 0.13779-0.03925 0.10608-7.41e-4 0.20318 0.0603 0.24964 0.15709 0.54673 1.1443 0.7574 2.4238 0.60683 3.6858-0.02581 0.21825-0.15069 0.31405-0.26685 0.31405s-0.22371-0.07425-0.27545-0.27904c-0.2714-1.0505-0.7681-2.0277-1.4546-2.8616m-4.0372 8.6544c-0.15205 0-0.27545-0.12495-0.27545-0.27904v-6.0722c0.02778-0.09081 0.07473-0.17403 0.13779-0.24429l1.5752-0.92046c0.0397-0.02604 0.08616-0.03961 0.13349-0.03925 0.10251-3.66e-4 0.19752 0.05445 0.24952 0.14389 0.56824 1.0382 1.4849 4.0175 0.68439 6.6087-0.12488 0.40997-1.8938 0.75466-2.4835 0.79826zm7.489 33.091c-1.1764 1.3521-2.3902 2.6754-3.6412 3.9694-0.65993 0.67468-1.274 1.2868-1.8421 1.8364v-37.981c3.1206-0.82006 5.0315-3.289 5.3801-6.9488h0.10337v39.124zm10.403-14.316c-1.6916 2.8136-3.5294 5.5486-5.4877 8.1921v-33.003h5.4877zm4.911-9.1603v-15.651h5.987c-1.5978 5.3648-3.6038 10.596-5.9999 15.647m6.5077-16.956h-21.925c-0.36186-3.8128-3.3396-6.8307-7.1017-7.1974v-14.177c10.158-6.674 24.012-5.7623 32.431 2.8877-0.61962 6.2483-1.7584 12.432-3.4046 18.487m3.6714-21.169c-9.1893-8.2051-23.005-8.7897-33.421-2.1463-10.416-6.6434-24.232-6.059-33.421 2.1287-0.28701-3.6583-0.38165-7.3443-0.28418-11.058 4.6259 2.6859 9.8665 4.0937 15.198 4.083 6.6872 0.0051075 13.19-2.2189 18.507-6.3294 5.3227 4.1152 11.834 6.3397 18.529 6.3294 5.3238 0.0071 10.557-1.4007 15.176-4.083 0.08604 3.7078-0.0086 7.3937-0.28406 11.058"/>
      <path d="m53.825 31.555c0.90294-0.05942 1.783-0.31218 2.5824-0.74158l-0.155 0.8375c-0.77338 0.38892-1.5959 0.66783-2.4447 0.82878v1.819c2.0961-0.34893 3.809-1.4307 4.3041-3.4242 0.36149-1.4744 0.74892-3.433-3.7058-6.9793l-0.58114-0.50165v2.7873h1.5753v0.59757h-1.5753zm-2.3672-10.076c-2.0832 0.62809-3.7747 2.1505-3.7747 4.6239 0 3.5682 2.505 5.2607 5.1176 5.4527v-8.9729c-0.52067-0.43625-0.96415-0.78082-1.3428-1.1036m5.1391-0.26609c0.155 0.07848-0.16778 0.22249-0.27545 0.35765-0.80055-0.27194-1.6392-0.41034-2.4834-0.41009v0.63258c0.18081 0.1308 0.35289 0.25301 0.51219 0.37945 2.8751 2.181 5.4748 3.6729 5.1218 7.6642-0.38731 4.3622-4.8033 7.3064-11.384 4.6717v-0.86366c1.5135 0.56543 3.123 0.81906 4.7346 0.74594v-1.7972c-3.4095 0.21078-6.3422-2.4196-6.55-5.8751-2e-3 -0.03214-0.0036-0.0644-5e-3 -0.09654-0.02593-2.5475 1.7216-5.0208 4.304-5.963-0.92961-0.96407-1.2009-1.7448-1.3644-3.302-0.27545-2.6173 4.0588-5.5486 7.4848-2.1243l-0.39173 0.43625c-1.7217-1.6794-5.3198-1.7187-5.8708 0.9597-0.32708 1.5965 0.43045 2.7481 1.4892 3.686 0.28516-0.03986 0.57278-0.06017 0.86078-0.06104v-2.3381h3.5078v0.60206h-2.4834v1.8234c0.9725 0.13105 1.9165 0.42591 2.7932 0.87226"/>
      <path d="m16.207 24.58c0.21953-0.38829 0.37882-0.74158 0.40464-0.80262 0.16987-0.5668 0.55988-1.0392 1.0803-1.3086l0.82636-0.36637c-0.16176-0.26522-0.17159-0.59782-0.02581-0.87238 0.0031-0.15335 0.04462-0.30346 0.12046-0.43625v-0.18748l-0.02581-0.20941c-0.056054-0.18711-0.1582-0.35678-0.29697-0.49293l-0.55533-0.63694 0.68439-0.27917c0.05716-0.01757 0.11665-0.02641 0.17651-0.02616 0.11947 0.0014 0.2371 0.02977 0.34428 0.08297 0.10497-0.10502 0.23133-0.18549 0.37022-0.23557l0.1636-0.05668 0.09895 0.03052c0.09403-0.06789 0.20367-0.11 0.3186-0.12208l0.36149-0.218 0.36149 0.218c0.1148 0.01208 0.22444 0.05419 0.31847 0.12208l0.09907-0.03052 0.16348 0.05668c0.13816 0.04933 0.26328 0.1298 0.36592 0.23557 0.10964-0.05108 0.22813-0.07923 0.34871-0.08297 0.05974-1.24e-4 0.11923 0.0086 0.17651 0.02616l0.68427 0.27917-0.57242 0.63694c-0.15463 0.145-0.26636 0.33074-0.32278 0.53653l-0.02581 0.20941v0.18748c0.0751 0.13304 0.11652 0.2829 0.12046 0.43625 0.02335 0.04647 0.04351 0.09455 0.06023 0.14388 0.07694 0.24254 0.04548 0.50701-0.08604 0.72414l0.82636 0.36637c0.51895 0.27032 0.90724 0.74258 1.076 1.3086 0.02581 0.05668 0.13779 0.30969 0.30126 0.61065l0.11616-0.0654v-7.4373h0.63707v-0.11772c-0.0064-0.36101 0.22346-0.68278 0.56381-0.78954v-0.62809c0.01721-0.29823-0.20748-0.5541-0.50174-0.57141-0.02065-0.0012-0.04142-0.0012-0.06207 0h-9.4001c-0.2918-0.01993-0.54427 0.20355-0.56381 0.49916-0.0017 0.02404-0.0017 0.04821 0 0.07225v0.62809c0.34035 0.10663 0.5702 0.42853 0.56381 0.78954v0.11772h0.63707v7.6424h0.0386z"/>
      <path d="m32.735 21.972 0.79182-2.4079c-0.06023-0.87238-1.2912-2.1113-1.2912-2.1113-0.70357 0.3777-1.2972 0.93566-1.7216 1.6183l0.12476 2.4603c-0.0574 0.13778-0.08395 0.28677-0.07744 0.43613-0.09477 0-0.10337 0.109-0.10337 0.109l0.18081 0.43613c-0.55951 0.41009-1.7216 2.181-1.7216 2.181-0.66288 1.0338-1.5064 3.8867-1.5064 3.8867l-0.18511-0.0218 1.0545-8.1266c0.0574-0.02192 0.10054-0.07076 0.11616-0.1308l0.17651-1.9412c0.09907-0.94214-0.15069-1.4919-0.83496-1.8277-0.15131-0.07524-0.31786-0.11411-0.48638-0.11348-0.14664-0.0015-0.29242 0.02354-0.43045 0.07425-0.12132 0.04335-0.23477 0.10663-0.33556 0.18748-0.14946-0.15173-0.39198-0.15198-0.54181-4.98e-4 -1.23e-4 1.25e-4 -3.68e-4 3.74e-4 -4.91e-4 4.98e-4 -0.05802 0.06079-0.05802 0.15721 0 0.21813 0.19359-0.29661 0.3701-0.09156 0.40021-0.06104s-0.06883 0.06976-0.06453 0.07848c-0.0472 0.06154-0.08899 0.12719-0.12476 0.19633-0.23833 0.47985-0.04781 1.0646 0.42566 1.3063 0.0016 7.48e-4 0.0031 0.0016 0.0047 0.0024 0.11038 0.05269 0.23096 0.07948 0.35289 0.07848 0.0066 0.01831 0.0066 0.03837 0 0.05668-0.0082 0.01707-0.02188 0.03077-0.0386 0.03924h-0.04314c-0.06883 3e-3 -0.12771 0.05058-0.14627 0.11772 0.25837 0.17889 0.5337 0.08284 0.57672-0.0872 0.01733-0.06279 0.01733-0.12918 0-0.19197 0.18843-0.07138 0.34256-0.21352 0.43045-0.39701 0.03823-0.09991 0.05298-0.20741 0.04302-0.31405h0.03442c0.04314 0 0.07326 0 0.07326 0.05668 0.0015 0.08919 0.0676 0.16356 0.15487 0.17453 0.04744-0.26173 0-0.54089-0.22801-0.54089-0.03294-0.0046-0.06613-0.0046-0.09907 0-0.06883-0.13965-0.48207-0.43613-0.72311-0.09605 0.10251-0.01669 0.20748-0.0015 0.30126 0.0436 0.25837 0.16581 0.15069 0.33585 0.08186 0.48857-0.07817 0.14911-0.23391 0.23905-0.40034 0.23121-0.0044-0.01557-0.0044-0.03226 0-0.04796 0-0.03924 0.04302-0.30533 0.27976-0.16581 0.015-0.03775 0.015-0.07998 0-0.11772-0.02139-0.03488-0.05531-0.05992-0.09477-0.06976-0.03294-0.0046-0.06613-0.0046-0.09907 0-0.17024 0.0027-0.3186 0.11785-0.36592 0.28353-0.08899-0.05955-0.1604-0.14251-0.20662-0.23993-0.04597-0.14388-0.03515-0.30022 0.03011-0.43625 0.09772-0.19172 0.2639-0.33834 0.46486-0.41009 0.09096-0.03314 0.1872-0.04933 0.28406-0.04796 0.11013-0.0022 0.21916 0.02167 0.3186 0.06988 0.52497 0.25737 0.70148 0.67605 0.62404 1.4394l-0.32708 1.9325c-0.0011 0.07337 0.0413 0.14039 0.10755 0.17004l-1.0502 8.2312c-0.12009 0.0069-0.23477 0.05269-0.32708 0.13093-0.24964 0.25301-0.09034 0.43613-0.09034 0.43613l-0.08604 0.12208 0.03011 0.08297c-0.0558 0.09218-0.03134 0.21252 0.05593 0.27481-0.05593 0.27481 0.21522 0.23108 0.21522 0.23108l-0.68009 4.9336h-0.3658v-7.1272l0.09895-0.25301v-0.34021c0.64727-0.35702 0.88646-1.1782 0.53419-1.8342-0.18142-0.33772-0.49621-0.58138-0.86557-0.66958v-0.11784h-0.17208v-0.05668h-0.09034v-0.41009l0.19789 0.06104v-0.20505l-0.20232 0.02616 0.03442-0.24429h-0.20232l0.03442 0.24429-0.20232-0.02616v0.20505l0.19802-0.06104v0.41009h-0.06453v0.0654h-0.17651v0.11772c-0.31294 0.0801-0.58741 0.2702-0.77473 0.53653-0.25456-0.39664-0.479-0.81221-0.67149-1.2432-0.11407-0.42803-0.39542-0.79041-0.77904-1.0033l-1.0287-0.43613c0-0.08297-0.12918-0.08297-0.12918-0.08297-0.21522-0.18325 0.06023-0.57577 0.06023-0.57577 0.18511-0.19633 0-0.47113 0-0.47113 0.03011-0.37521-0.14627-0.41009-0.14627-0.41009 0.06895-0.11349-0.02581-0.33585-0.02581-0.33585l0.0043-0.30533h0.04732c0.10829-0.33734 0.30471-0.63881 0.56811-0.87238-0.09034-0.02616-0.3744 0.16144-0.3744 0.16144 0-0.20941-0.29696 0.19197-0.25837 0.20941l-0.13766 0.17889c0.02065-0.09094 0.01-0.18636-0.03011-0.27045-0.02065-0.04111-0.02065-0.08982 0-0.13092-0.02151-0.17889 0.1636 0 0.1636 0-0.02188-0.14413-0.12156-0.26384-0.25837-0.30969-0.26685 0.08284-0.18941 0.23557-0.18941 0.23557 0.07326-0.10028 0.14639 0.1004 0.08616 0.16581l-0.18941 0.19197c0.0055-0.09044-0.0204-0.17988-0.07326-0.25301-0.09059 0.04634-0.16225 0.12358-0.20232 0.21813v-0.43613c0-0.15273 0.17208 0.03488 0.17208 0.03488 0.14209-0.46677-0.26255-0.24865-0.26255-0.24865l-0.11185-0.1658-0.11185 0.1658s-0.40464-0.21813-0.26697 0.24865c0 0 0.1636-0.18748 0.17663-0.03488v0.43613c-0.03651-0.09542-0.1073-0.17328-0.19802-0.21813-0.05273 0.07312-0.07867 0.16269-0.07313 0.25301l-0.19765-0.19633c-0.06453-0.0654 0-0.26609 0.08604-0.16581 0 0 0.07756-0.15273-0.19359-0.23557-0.13619 0.04547-0.23477 0.1658-0.25394 0.30969 0 0 0.18081-0.16144 0.1636 0 0.02065 0.04111 0.02065 0.08969 0 0.1308-0.04019 0.08409-0.05076 0.17938-0.03011 0.27045l-0.13779-0.17889c0.03872 0-0.26255-0.43613-0.26255-0.20941 0 0-0.27976-0.18761-0.37022-0.16145 0.26365 0.23357 0.45983 0.53504 0.56811 0.87238h0.04744v0.27481s-0.09034 0.22249-0.02581 0.33585c0 0-0.1722 0.03488-0.14209 0.41009 0 0-0.21092 0.27481-0.02581 0.47113 0 0 0.27976 0.39265 0.06453 0.5759 0 0-0.13336 0-0.13336 0.08284l-1.033 0.47113c-0.3894 0.20828-0.67726 0.56942-0.79637 0.99895 0 0-0.86078 2.0021-1.5925 2.0893l-0.14197-0.29225c0.18007-0.02018 0.35842-0.05382 0.5337-0.1004 0.30126-0.0654 0.04744-0.49729 0.04744-0.49729h-0.14639c0 0.22249-0.26267 0.31841-0.46917 0.36201l-1.0158-6.1069h-0.03872l0.60253 6.1637c-0.21092 0-0.48638 0-0.5294-0.22249h-0.14627s-0.13349 0.48421 0.17208 0.46677c0.17589-0.0025 0.35117-0.01707 0.52509-0.04372v0.02616c-0.12083 0.06739-0.16975 0.21788-0.11198 0.34469-0.04044 0.0421-0.06355 0.09829-0.06453 0.15709 0 0.10028 0.06896 0.10028 0.06896 0.10028s0.03442 0.09156 0 0.13516c-0.03773 0.06129-0.0193 0.14201 0.04118 0.18026 0.0075 0.0047 0.01524 0.0086 0.02335 0.01171 0 0 0.05593 0.10028 0 0.1308-0.0047 0.03663 0.01 0.07312 0.03872 0.09605l-0.30126 0.19197v0.34021l0.09895 0.25301v7.1407h-0.32708l-0.67997-4.9466s0.27115 0.0436 0.21522-0.23121c0.08727-0.06229 0.11173-0.18262 0.05593-0.27481l0.02581-0.08284-0.08174-0.12208s0.155-0.18325-0.09477-0.43625c-0.09145-0.07948-0.20674-0.12557-0.32708-0.1308l-1.0676-8.2226c0.06453-0.03102 0.10509-0.09779 0.10337-0.17017l-0.32708-1.9324c-0.07756-0.76338 0.09895-1.1822 0.62404-1.4396 0.09944-0.04808 0.20834-0.072 0.31847-0.06976 0.09673-0.0015 0.19298 0.01482 0.28418 0.04796 0.20084 0.07163 0.36715 0.21825 0.46474 0.41009 0.06539 0.13591 0.07621 0.29237 0.03012 0.43613-0.03294 0.09194-0.08752 0.1744-0.15918 0.23993-0.04732-0.16568-0.19568-0.28066-0.36592-0.28353-0.03294-0.0046-0.06613-0.0046-0.09907 0-0.03884 0.0085-0.07203 0.03401-0.09034 0.06976-0.01499 0.03775-0.01499 0.07998 0 0.11784 0.23674-0.13965 0.27115 0.12644 0.27976 0.16581 0.0044 0.01557 0.0044 0.03226 0 0.04796-0.16643 0.0078-0.32216-0.08222-0.40034-0.23121-0.06883-0.15273-0.17651-0.32277 0.08186-0.48857 0.09378-0.04509 0.19875-0.06042 0.30114-0.0436-0.24091-0.32713-0.65416-0.04372-0.72299 0.09592-0.03294-0.0045-0.06625-0.0045-0.09907 0-0.21092 0-0.27545 0.27917-0.22813 0.54089 0.08739-0.01084 0.15352-0.08533 0.155-0.17452 0-0.0436 0.03011-0.05668 0.07326-0.05668h0.03442c-0.0012 0.10389 0.0209 0.20692 0.06453 0.30097 0.08776 0.1835 0.2419 0.32563 0.43033 0.39701-0.01733 0.06279-0.01733 0.12918 0 0.19197 0.04314 0.17017 0.3186 0.26609 0.57672 0.0872-0.02839-0.07985-0.11308-0.12382-0.19371-0.10028h-0.04302c-0.04093 0.0066-0.08063-0.01719-0.09477-0.05681-0.0044-0.01856-0.0044-0.03812 0-0.05668 0.12193 9.96e-4 0.24264-0.02591 0.35289-0.07848 0.47482-0.23893 0.66854-0.82268 0.43278-1.3039-7.37e-4 -0.0016-0.0015-0.0031-0.0023-0.0047-0.03589-0.06901-0.07768-0.13466-0.12488-0.19633 0 0-0.06896-0.07412-0.06453-0.07848 0.0044-0.0044 0.20662-0.23557 0.40034 0.06104 0.05802-0.06079 0.05802-0.15734 0-0.21813-0.14946-0.15173-0.39198-0.15198-0.54169-6.23e-4 -2.46e-4 2.49e-4 -3.69e-4 3.74e-4 -6.15e-4 6.23e-4 -0.10091-0.08085-0.21436-0.14426-0.33568-0.18761-0.13791-0.05058-0.28369-0.07561-0.43045-0.07418-0.16852-5.59e-4 -0.33507 0.03818-0.48625 0.11355-0.68439 0.33585-0.93403 0.87238-0.83509 1.8277l0.21092 1.9979c0.01586 0.06241 0.06097 0.11299 0.12046 0.13516l1.0588 8.1222-0.18511 0.0218s-0.86078-2.8528-1.5064-3.8867c0 0-1.1706-1.7449-1.7216-2.181l0.18081-0.43625s0-0.11772-0.10337-0.109c0.00651-0.14949-0.020035-0.29848-0.077437-0.43625l0.12484-2.4602c-0.42443-0.68266-1.0181-1.2407-1.7217-1.6183 0 0-1.2181 1.2345-1.2912 2.1113l0.79182 2.4079-1.4676 2.7351c-0.32855 1.0611-0.53222 2.1577-0.60696 3.2673l-0.064408 2.0502c0.4189 2.0211 0.89519 4.0146 1.4289 5.9803h20.375c0.15242-0.68652 0.38362-1.3526 0.68882-1.9847 0.4393-0.89966 1.0209-1.7203 1.7216-2.4297 1.1951-1.2132 2.7056-2.0573 4.3557-2.434v-4.6544z"/>
     </g>
     <g aria-label="Televisión">
      <path d="m102.97 55.046h-4.9511v12.788h-4.0886v-12.788h-4.9511v-3.0665h13.991z"/>
      <path d="m116.99 62.563h-8.7736q0.0852 1.4055 1.0648 2.1508 0.99022 0.74533 2.9068 0.74533 1.2138 0 2.3531-0.43655t1.7994-0.93698h0.4259v3.0771q-1.299 0.52173-2.4489 0.75597t-2.5448 0.23424q-3.5989 0-5.5154-1.6184-1.9166-1.6184-1.9166-4.6104 0-2.96 1.8101-4.6849 1.8207-1.7355 4.983-1.7355 2.9174 0 4.3868 1.48 1.4694 1.4694 1.4694 4.2377zm-3.8118-2.2466q-0.0319-1.2032-0.59626-1.8101-0.56432-0.60691-1.7568-0.60691-1.1073 0-1.8207 0.57496-0.71338 0.57497-0.79856 1.842z"/>
      <path d="m123.53 67.833h-3.8331v-16.568h3.8331z"/>
      <path d="m138.93 62.563h-8.7736q0.0852 1.4055 1.0648 2.1508 0.99022 0.74533 2.9068 0.74533 1.2138 0 2.3531-0.43655t1.7994-0.93698h0.4259v3.0771q-1.299 0.52173-2.4489 0.75597t-2.5448 0.23424q-3.5989 0-5.5154-1.6184-1.9166-1.6184-1.9166-4.6104 0-2.96 1.8101-4.6849 1.8207-1.7355 4.983-1.7355 2.9174 0 4.3868 1.48 1.4694 1.4694 1.4694 4.2377zm-3.8118-2.2466q-0.0319-1.2032-0.59626-1.8101-0.56432-0.60691-1.7568-0.60691-1.1073 0-1.8207 0.57496-0.71338 0.57497-0.79856 1.842z"/>
      <path d="m153.67 55.876-4.6104 11.957h-4.3442l-4.5784-11.957h4.0567l2.7684 8.2199 2.7364-8.2199z"/>
      <path d="m159.64 67.833h-3.8331v-11.957h3.8331zm0.10647-13.661h-4.046v-2.9068h4.046z"/>
      <path d="m173.65 64.043q0 1.8527-1.661 2.992-1.661 1.1286-4.5465 1.1286-1.5971 0-2.8961-0.29813t-2.0869-0.66014v-3.1517h0.35137q0.28748 0.2023 0.66014 0.4472 0.38331 0.23424 1.0754 0.51108 0.59626 0.24489 1.3522 0.4259 0.75597 0.17036 1.6184 0.17036 1.1286 0 1.6717-0.24489 0.54302-0.25554 0.54302-0.74533 0-0.43655-0.31942-0.6282-0.31943-0.2023-1.2138-0.38331-0.4259-0.09583-1.1606-0.2023-0.72403-0.11712-1.3203-0.27684-1.6291-0.4259-2.417-1.3203-0.78791-0.90504-0.78791-2.2466 0-1.7249 1.6291-2.8642 1.6397-1.1499 4.472-1.1499 1.3416 0 2.566 0.27684 1.2351 0.26619 1.9272 0.57497v3.0239h-0.33007q-0.8518-0.58561-1.9485-0.94763-1.086-0.37266-2.204-0.37266-0.92633 0-1.5652 0.25554-0.62821 0.25554-0.62821 0.72403 0 0.4259 0.28749 0.6495 0.28748 0.2236 1.3522 0.4472 0.58561 0.11712 1.2564 0.23424 0.68144 0.10648 1.3629 0.27684 1.5119 0.39396 2.236 1.2458 0.72403 0.84115 0.72403 2.1082z"/>
      <path d="m180.03 67.833h-3.8331v-11.957h3.8331zm0.10647-13.661h-4.046v-2.9068h4.046z"/>
      <path d="m195.87 61.86q0 2.9494-1.7249 4.653-1.7142 1.693-4.8233 1.693t-4.834-1.693q-1.7142-1.7036-1.7142-4.653 0-2.9707 1.7249-4.6636 1.7356-1.693 4.8233-1.693 3.1304 0 4.834 1.7036 1.7142 1.7036 1.7142 4.653zm-4.7168 2.9068q0.37266-0.45784 0.55367-1.0967 0.19165-0.6495 0.19165-1.7888 0-1.0541-0.19165-1.7675-0.19166-0.71338-0.53238-1.1393-0.34072-0.43655-0.81986-0.61756t-1.0328-0.18101-0.99021 0.14906q-0.42591 0.14906-0.81986 0.59626-0.35137 0.41525-0.56432 1.1393-0.2023 0.72403-0.2023 1.8207 0 0.97957 0.181 1.7036 0.18101 0.71338 0.53238 1.1499 0.34072 0.41525 0.80921 0.60691 0.47914 0.19166 1.086 0.19166 0.52172 0 0.99021-0.17036 0.47914-0.18101 0.80922-0.59626zm1.9485-14.779v0.21295l-3.7479 3.9715h-2.6193l2.6299-4.1845z"/>
      <path d="m210.63 67.833h-3.8544v-5.9307q0-0.72403-0.0745-1.4374-0.0745-0.72403-0.25554-1.0648-0.21295-0.39396-0.62821-0.57497-0.4046-0.18101-1.1393-0.18101-0.52173 0-1.0648 0.17036-0.53238 0.17036-1.1606 0.54302v8.4754h-3.8331v-11.957h3.8331v1.3203q1.0222-0.79856 1.9591-1.2245 0.94763-0.4259 2.0976-0.4259 1.9378 0 3.0239 1.1286 1.0967 1.1286 1.0967 3.3753z"/>
     </g>
    </g>
   </g>
  </g>
 </g>
</svg>
