<svg width="800mm" height="734.53mm" version="1.1" viewBox="0 0 800 734.53" xmlns="http://www.w3.org/2000/svg">
 <defs>
  <clipPath id="a">
   <path d="m0 0h839.06v595.28h-839.06z"/>
  </clipPath>
 </defs>
 <g transform="translate(21.982 581.13)">
  <g transform="matrix(28.376 0 0 -28.376 -16936 6354)" fill="#e22226">
   <g transform="translate(597.63 235.61)">
    <path d="m0 0h-1.571v1.435h5.21v-1.435h-1.568v-13.542h-2.071z" fill="#e22226"/>
   </g>
   <g transform="translate(604.26 223.5)">
    <path d="m0 0c0.417 0 0.735 0.281 0.735 0.771v4.068c0 0.553-0.292 0.893-0.689 0.893h-0.273v-5.732zm-0.019 7.103c0.586 0 0.754 0.277 0.754 0.683v3.578c0 0.448-0.38 0.744-0.735 0.744h-0.227v-5.005zm-2.278 6.441h3.073c2.053 0 1.988-1.497 1.988-2.18v-3.129c0-0.449-0.085-1.67-1.484-1.727v-0.151c0.896 0.021 1.525-0.625 1.525-1.585v-4.125c0-0.71-0.126-2.081-2.049-2.081h-3.053z" fill="#e22226"/>
   </g>
   <g transform="translate(612.96 231.49)">
    <path transform="matrix(.0093243 0 0 -.0093243 -16.898 12.91)" d="m1758.5 0c-57.133 0.065949-98.895 13.441-94.705 33.885 4.3971 20.699 1.5014 37 0 50.406-1.9308 13.942-3.4337 29.17 1.5 48.152-3.4322 0-13.512 3.3257-22.949 7.8301-9.5449 3.8609-19.413 7.1854-25.74 8.2578-37.107 5.1478-96.843 21.342-103.6 50.406-7.9363 30.887 33.996 76.037 195.51 142.64 9.7594 20.699 14.908 38.609 24.668 63.275-56.733-5.1478-126.23-3.5391-147.04-3.5391-37.429 1.8232-45.58 7.8294-103.92 32.496-58.128 24.023-110.04 51.479-118.29 66.064-43.328 32.388-95.558 57.054-111.64 68.314-25.632 19.412-37.107 26.705-45.043 29.064-26.275 4.3971-48.583 43.542-59.951 87.084-9.867 43.649-8.0424 94.055 16.195 117.01 11.154 12.655 35.497 38.072 57.805 60.916 24.667 24.559 45.58 46.974 50.406 51.479 32.603 48.69 58.236 86.12 87.836 115.18 29.064 27.455 61.238 45.257 109.71 55.338 14.586 2.8956 36.893 7.8294 63.383 14.586-6.6492 22.307-1.7166 45.365 17.48 66.492 9.6522 11.261 26.382 17.481 42.361 25.203 15.98 8.4725 30.458 16.839 38.502 27.992 5.0406 22.307 51.8 22.306 90.945 11.26 38.93-12.977 67.995-37.536 43.65-70.031 12.762 0 28.74 1.7155 46.65 3.3242h11.154c-6.2203 3.4319-9.5446 10.081-0.9649 17.91 20.806 16.302 109.71 19.627 111.54-6.6484v-4.504c85.476 6.7566 187.47 11.154 289.35 17.91 4.9333 20.699 8.2583 42.04 9.7597 62.738 1.8232 21.128 1.8242 40.646 1.8242 61.988-73.142-39.038-168.38-53.731-270.27 19.09-22.736 27.884-33.998 56.413-42.256 85.584-30.458-13.942-69.603-25.311-110.14-32.604-30.672-4.3971-64.454-6.0063-97.057-2.6817-43.649-18.017-87.191-37.429-124.19-54.803-37.429-16.194-69.712-33.033-94.057-46.975-45.472-26.275-84.08-42.04-116.47-52.014-13.345-1.9907-27.654-3.6267-40.975-3.7578-6.0546-0.0596-11.904 0.191-17.367 0.8613-37.214 2.8957-71.318 17.375-98.773 53.195-17.91 44.722-6.329 103.49 11.152 121.51 19.841 33.997 60.165 116.15 105.1 208.49 45.58 92.34 97.701 192.4 140.81 261.79 4.9333 16.73 52.23 95.558 97.488 171.6 46.759 77.754 92.232 151.11 95.664 158.84 9.2232 1.716 18.983 3.3233 28.635 5.1465-15.98 7.7218-30.674 14.371-45.152 22.414-40.432 21.128-76.252 40.111-103.49 46.76-29.064 12.977-33.782 34.212-20.912 55.447 12.87 20.699 40.538 41.396 79.254 53.086 54.91 17.91 110.04 15.766 155.29 5.1484 15.98-3.3247 32.066-8.3646 45.043-15.121 22.951-9.545 40.541-20.806 48.691-30.887 9.6522 3.5391 16.301-2.681 22.629-9.4375 4.8261-6.1131 11.152-12.87 19.625-11.262 40.217 6.7565 41.719 14.585 36.893 22.414-4.7189 8.3652-16.087 18.018 0 22.951 14.8 6.2203 45.794 3.3246 73.143 0 27.241-4.9333 53.302-9.4368 61.238-7.8281 5.0406-42.47 12.869-76.575 11.367-91.16-1.8232-14.478-12.762-7.7219-8.1504-75.394-1.3942 1.6087-6.22-9e-4 -13.084-1.7168 9.8669-2.3594 14.908-5.0399 14.908-6.7559 20.913-63.168-98.774-202.48-210.53-333.86-19.304-22.414-37.108-44.722-56.734-67.137-85.905-105.64-146.93-195.72-103.71-228.11 14.907-9.6522 52.336-11.796 103.71-5.5762l17.697 2.252c61.988 9.4377 137.6 24.023 213.74 45.15 17.588 38.609 42.149 192.51 56.734 357.45 14.693 164.95 17.589 341.69-11.367 428.88-3.2174 11.154 6.5402 24.667 21.555 35.82 15.658 12.977 36.893 24.131 55.982 32.389-6.0058 48.154-3.0029 44.83 0 46.975 5.1479 0 11.587 2.8961 9.7637 66.064 0 19.626 30.886 64.883 74.428 106.71 45.687 43.649 8.3658 66.601 64.885 84.082h3.3242v-0.0019c46.868-3e-4 153.58-9.6531 155.51-42.041 1.5015-35.07-9.9751-74.322-24.561-96.629-22.844-35.82-35.498-43.756-38.822-47.617-4.9333-4.5043 1e-4 -4.5049 9.6523-24.238 1.9304-4.9333 9.7595-3e-4 17.91 6.9707 6.7565 4.9334 14.692 11.69 16.086 6.1133 21.235-83.867 22.736-121.4 13.084-219.86-24.238-246.13-16.409-335.04-50.084-484.33-26.061-59.844-8.2562-61.023-32.387-142.1-9.6521-33.997-19.52-68.101-29.279-100.06 4.9334-23.058 8.3656-40.861 9.7598-56.412 1.6087-26.383 1.6075-52.015 11.26-104.03 1.6087-5.0406-9.6515-24.023-30.672-49.762 7.829-8.5797 14.586-16.945 19.412-18.018 6.4348-4.9333 12.87-12.762 18.018-24.023v1.7148c12.655 57.591 28.957 104.57 74.322 124.09 38.716 16.838 88.799 24.023 134.27 27.348h1.6094c45.044 2.3594 85.796-1.7162 106.71-4.9336 72.713-14.049 87.407-26.705 98.561-43.113 11.475-15.014 18.231-34.104 69.816-57.055-9.6521-20.698-25.738-56.413-42.254-93.842 16.516-15.765 27.669-35.284 24.559-59.844 14.264 4.9333 27.349 7.722 40.111 13.299 24.559 8.0435 47.296 11.26 87.191-3.8613 48.904-17.267 53.408-69.28 34.426-112.93-17.91-43.649-60.059-77.753-108.21-58.234-32.925 11.261-127.94-9.4375-165.05-9.4375-19.841-11.261-39.146-24.666-55.232-39.252-32.603-31.745-49.978-4.9341-56.734 43.756h-33.889c-29.171 0-66.601-1.824-106.93-2.8964-33.783-111.86-61.559-183.39-90.623-244.84-19.411-38.072-40.431-73.997-77.537-109.07-3e-4 -3.1e-4 4e-4 -0.00164 0-0.00195-3e-4 -3.3e-4 -0.0016 3.3e-4 -0.0019 0-11.582-11.797-24.343-23.595-40.43-34.748-3.4319-2.8956-5.1477-6.1139-8.2578-10.082-25.739-26.812-63.061-49.869-90.623-59.199-1.5014-10.081-27.675-17.911-43.762-25.74-14.478-7.2928-37.322-75.072-50.084-61.666-11.368 14.693-28.848 71.104-56.732 74 1.5015-7.9362-9.6526-25.31-24.131-40.432-3.4318-4.2899-7.8278-9.8662-11.26-12.869 19.519-25.632 30.564-50.299 42.254-56.412 0-1.7159-3.5395-5.0402-9.7598-3.3242-6.7565 1.6087-16.409 4.2899-27.562 16.73-3.4319-7.2928-9.6518-12.441-16.516-18.447-8.258 10.081-16.086 19.519-25.738 27.348-19.412 21.878-43.65 40.861-69.818 37.107-10.832 5.5768-10.831 2.0382-7.9356-5.6836 1.5015-9.5449 6.5417-24.666-1.3945-42.576 1.3942 0-8.258-6.6e-4 -17.91-1.6094-11.154-1.6087-22.736-4.5039-26.168-12.869-10.725-24.023 5.3622-17.91 26.168-9.5449 20.806 7.829 45.15 18.983 48.582 9.5449 4.8261-14.586 11.154-24.025 17.91-30.781-24.774-11.261-40.646-25.738-53.516-33.674-9.7595-6.5421-17.803-9.8672-27.455-9.8672-1.6087-2.8957-1.6085-6.7567-3.4316-9.6524-4.8261-14.586-11.474-26.275-16.086-29.6-4.7188-2.7884-6.2215-8.6e-4 -1.9316 15.014 4.9333 12.977 0 21.343-9.5449 24.238h-1.6094c-1.3942-2.8957-7.8277-6.7567-16.086-9.6524-3.2173-1.6087-7.7214-3.3251-12.976-5.041-1.6087-4.9333-1.6094-11.153-1.6094-16.086 1.6087-16.409 4.934-30.78 1.6094-39.359-1.6087-20.591 12.976-24.024 29.062-20.592 10.188 1.287 20.915 5.148 30.996 9.6523 29.064 10.939 53.408 26.276 40.324 4.9336 16.087-6.1131 30.779-16.194 38.822-27.348 9.7594-9.5449 11.582-21.236 3.4316-27.992-13.084-12.333-37.429-16.195-58.664-17.268-20.591-3.5392-38.822-1.8216-37.213-6.2188-1.609-15.122-4.6122-24.561-7.5079-30.889-1.8232-5.5768-3.3242-7.1836-3.3242-7.1836 0-1.0725-4e-4 -1.0742 3.3242-1.0742 2.8957 0 7.507 2.5e-4 14.156-3.4316 24.345 4.5044 39.146 6.1133 51.801 6.1133 12.655 1.8232 24.344 3.8608 43.756 11.904 17.803 7.829 32.496 21.127 41.719 36.893 8.258 11.154 13.084 24.454 16.516 37.967 8.258 0 19.412 2.8951 37 15.229 6.6493-1.287 1.716 16.622-1.1797 30.564-1.9304 16.838-1.9292 30.78 17.482 26.383 32.603-6.7565 82.579-18.016 119.9-37.643 37.429-17.267 61.674-41.72 43.656-73.68-6.2203-11.154-34.002-30.778-66.498-49.225-30.136-17.267-67.674-33.57-95.559-40.326l-14.584-40.217-14.371-38.502c-35.499-68.423-124.3-100.81-203.98-110.25h-2.7871c-17.736-2.2053-34.938-3.2314-50.936-3.2129zm79.064 813.36c202.52 0.6225 275.86 141.48 282.46 147.35 24.13 24.452 38.612 60.379 49.873 90.516 1.8231 5.1478 3.3208 10.082 4.8222 14.586-106.6-6.113-215.03-12.334-313.8-17.268-16.087-18.017-32.604-32.389-48.691-40.969-11.154-6.0058-20.804-9.3294-29.062-7.7207-24.13 3.3247-64.884 11.797-96.951 27.348-1.9304 1.7159-3.4328 1.7168-5.3633 1.7168-86.977-48.047-146.71-100.17-187.36-143.71-17.589-19.09-30.564-35.713-42.039-49.869 8.1507 5.6841 16.193 14.156 24.451 20.162 25.954 24.559 53.516 44.293 55.018 44.293 144.03-64.455 205.7-77.754 245.49-82.902 13.513-1.0725 24.667-1.0713 35.82-2.8945 8.6635-0.45663 17.109-0.66397 25.342-0.63867zm691.93 389.94c22.307 1.8232 43.22 4.0742 64.562 4.0742 14.478 1.0725 30.778 1.0723 43.434 1.0723 5.0406 22.414 13.3 42.042 21.021 60.381-22.736 12.333-46.438 24.129-64.455 29.062-8.258 1.287-14.586 2.8965-19.627 2.8965-7.7218-1.6087-27.454-46.973-44.936-97.486z" fill="#e22226"/>
   </g>
   <g transform="translate(596.09 221.31)">
    <path d="m0 0h0.369v-2.42h0.934v2.42h0.365v-2.42h0.932v2.42h0.372v-2.743h-2.972z" fill="#e22226"/>
   </g>
   <path d="m599.36 218.57 1.08 2.743h0.396l1.149-2.743h-0.424l-0.329 0.829h-1.168l-0.31-0.829zm0.811 1.126h0.951l-0.297 0.762c-0.091 0.224-0.152 0.422-0.195 0.568-0.038-0.177-0.09-0.349-0.153-0.527z"/>
   <g transform="translate(602.29 218.57)">
    <path d="m0 0v2.743h0.374v-1.126h1.454v1.126h0.37v-2.743h-0.37v1.293h-1.454v-1.293z" fill="#e22226"/>
   </g>
   <g clip-path="url(#a)" fill="#e22226">
    <g transform="translate(607.1 219.53)">
     <path d="m0 0 0.367-0.088c-0.078-0.303-0.219-0.532-0.42-0.683-0.202-0.163-0.447-0.241-0.741-0.241-0.3 0-0.546 0.063-0.735 0.183s-0.33 0.297-0.432 0.527c-0.097 0.229-0.145 0.474-0.145 0.736 0 0.287 0.054 0.536 0.166 0.744 0.112 0.215 0.269 0.376 0.475 0.485 0.204 0.115 0.43 0.168 0.678 0.168 0.278 0 0.518-0.073 0.706-0.209 0.192-0.14 0.327-0.338 0.401-0.595l-0.366-0.078c-0.066 0.205-0.156 0.345-0.283 0.438-0.125 0.09-0.277 0.13-0.465 0.13-0.215 0-0.397-0.046-0.536-0.145-0.15-0.104-0.252-0.241-0.306-0.406-0.059-0.174-0.09-0.35-0.09-0.532 0-0.235 0.034-0.438 0.104-0.611 0.069-0.171 0.18-0.303 0.323-0.39 0.146-0.089 0.307-0.132 0.477-0.132 0.204 0 0.383 0.058 0.525 0.184 0.143 0.113 0.24 0.287 0.297 0.515" fill="#e22226"/>
    </g>
    <g transform="translate(607.73 219.9)">
     <path d="m0 0c0 0.455 0.125 0.815 0.375 1.07 0.248 0.261 0.567 0.386 0.964 0.386 0.259 0 0.491-0.054 0.697-0.178 0.209-0.119 0.365-0.291 0.477-0.505 0.109-0.219 0.161-0.465 0.161-0.741 0-0.277-0.052-0.532-0.171-0.746-0.112-0.219-0.276-0.39-0.485-0.5-0.209-0.114-0.438-0.173-0.679-0.173-0.268 0-0.501 0.063-0.709 0.193-0.204 0.12-0.361 0.292-0.471 0.511-0.107 0.214-0.159 0.443-0.159 0.683m0.381-4e-3c0-0.329 0.089-0.59 0.273-0.783 0.182-0.193 0.41-0.287 0.683-0.287 0.278 0 0.508 0.1 0.686 0.287 0.18 0.199 0.274 0.469 0.274 0.819 0 0.224-0.042 0.423-0.117 0.59-0.082 0.162-0.192 0.291-0.342 0.386-0.147 0.093-0.312 0.134-0.499 0.134-0.261 0-0.487-0.082-0.674-0.26-0.192-0.178-0.284-0.475-0.284-0.886" fill="#e22226"/>
    </g>
   </g>
   <g transform="translate(610.89 218.57)">
    <path d="m0 0v2.743h0.373v-1.126h1.451v1.126h0.373v-2.743h-0.373v1.293h-1.451v-1.293z" fill="#e22226"/>
   </g>
  </g>
 </g>
</svg>
