<svg width="800" height="353.65" enable-background="new 62 294.7 458 204.1" version="1.1" viewBox="62 294.7 800 353.65" xml:space="preserve" xmlns="http://www.w3.org/2000/svg">
<g transform="matrix(1.7548 0 0 1.7548 -48.235 -225.15)">
		<path d="m360.1 357.1c-17.7-57.3-89.1-60.2-89.8-60.2-67.1 0-92.1 55.2-94.6 61.3h-108" fill="none" stroke="#000" stroke-miterlimit="10" stroke-width="1.3271"/>
	<path d="m398.8 380.8c-2.8 0-4.9-2.2-4.9-5.5 0-3.8 2.8-6.4 6-6.4 3.1 0 5.2 2.1 5.2 5.5 0 4-2.9 6.4-6.3 6.4zm-12.3 40.5 6.3-35.8h9.7l-6.2 35.8z" fill="#fff" stroke="#000" stroke-miterlimit="10" stroke-width="1.3271"/>
	<path d="m404.4 421.3 3.8-21.3c0.9-5.4 1.4-11.4 1.7-14.5h8.4c-0.1 2.4-0.3 4.8-0.6 7.4h0.3c2.3-4.8 6-8.2 10.5-8.2 0.7 0 1.3 0.1 1.8 0.1l-1.9 10.3c-0.4-0.1-0.9-0.1-1.5-0.1-6.2 0-9.1 5.9-10.4 13l-2.3 13.3z" fill="#fff" stroke="#000" stroke-miterlimit="10" stroke-width="1.3271"/>
	<path d="m452.1 395.3c0-1.8-1.4-3-3.6-3-4.5 0-7.1 4.1-7.8 7.4 7.6 0.1 11.4-1 11.4-4.4zm5.1 23.9c-3.9 2.1-8.7 2.9-12.3 2.9-9.5 0-14.4-5.8-14.4-15.2 0-10.9 7.3-22.3 19.3-22.3 6.7 0 11.5 4.1 11.5 10.8 0 9.1-8.2 12.4-21.5 12 0 1 0.3 2.6 1 3.7 1.3 1.8 3.5 2.8 6.4 2.8 3.6 0 6.7-0.9 9.3-2.3z" fill="#fff" stroke="#000" stroke-miterlimit="10" stroke-width="1.3271"/>
	<path d="m487.8 420.2c-2.1 1.1-5.5 1.9-9.4 1.9-8.2 0-14-5.4-14-14.7 0-12.8 9-22.7 21.6-22.7 2.9 0 5.3 0.6 6.8 1.2l-2.4 8.1c-1.1-0.5-2.5-0.9-4.5-0.9-6.9 0-11.3 6.4-11.3 13.1 0 5 2.9 7.5 6.5 7.5 2.8 0 4.9-0.7 6.6-1.5z" fill="#fff" stroke="#000" stroke-miterlimit="10" stroke-width="1.3271"/>
	<path d="m512.5 375.8-1.7 9.7h7.1l-1.5 8.1h-7.1l-2.2 12.1c-0.3 1.5-0.5 3.3-0.5 4.5 0 1.8 0.7 3 2.8 3 0.8 0 1.8 0 2.7-0.1l-1.1 8.3c-1.3 0.5-3.7 0.8-5.8 0.8-5.9 0-8.7-3.2-8.7-7.8 0-1.9 0.2-3.9 0.7-6.6l2.5-14.2h-4.2l1.4-8.1h4.3l1.2-6.7z" fill="#fff" stroke="#000" stroke-miterlimit="10" stroke-width="1.3271"/>
	<path d="m268.2 309.2c-48.8 0-88.4 39.6-88.4 88.4 0 48.9 39.6 88.5 88.4 88.5s88.4-39.6 88.4-88.5c0-48.8-39.6-88.4-88.4-88.4zm-0.7 162.5c-41.2 0-74.7-33.4-74.7-74.7 0-41.2 33.4-74.7 74.7-74.7 41.2 0 74.7 33.4 74.7 74.7s-33.4 74.7-74.7 74.7z" fill="#fdb733"/>
	<path d="m179.7 397.7c0 48.8 39.6 88.4 88.4 88.4 48.9 0 88.5-39.6 88.5-88.4s-39.6-88.4-88.5-88.4c-48.8-0.1-88.4 39.5-88.4 88.4z" fill="none" stroke="#000" stroke-width="1.3271"/>
	<path d="m192.8 397c0 41.2 33.4 74.7 74.7 74.7 41.2 0 74.7-33.4 74.7-74.7s-33.4-74.7-74.7-74.7c-41.2 0-74.7 33.5-74.7 74.7" fill="#ed1c24" stroke="#000" stroke-miterlimit="10" stroke-width="1.3271"/>
		<path d="m179 443.3c27.4 53.5 88.6 53.8 89.2 53.8 62.8 0 89.3-56.9 92-62.9h152.4" fill="none" stroke="#000" stroke-miterlimit="10" stroke-width="1.3271"/>
	<path d="m248.1 318c-13.2-0.5-24.9 8.5-30.1 17.6-4.3 7.6-8.9 25.4-10.3 38.9 0 0 21.9 0.2 27.3 0.2 2-11.8 2.6-29.1 9.7-28.6 9.9 0.6-1 28.3-5.3 36.5-11.2 21.4-47.6 84.1-47.6 84.1h65.8l3.2-30h-20.6c1.3-2.8 14-26.1 23.8-44.4 13.6-25.3 26.6-72.7-15.9-74.3z" fill="#fff" stroke="#000" stroke-width="1.7695"/>
	<path d="m301.7 405.9 3.7-32.7-17.1 32.7zm-7 27h-31.2l2-25.6 44.2-88.3h29.2l-11.5 86h8.3l-3 28h-11.3l-3.7 34.6h-26.7z" fill="#fff" stroke="#000" stroke-miterlimit="10" stroke-width="1.7695"/>
	<path d="m66.8 411c2.8 1.8 6.7 3.2 11.1 3.2 3.9 0 7.4-2 7.4-5.9 0-2.9-2-4.8-6.4-7.3-5-2.9-9.7-7-9.7-13.5 0-10.3 8.3-16.6 18.6-16.6 5.7 0 9 1.4 11.1 2.5l-3.1 9.1c-1.5-0.9-4.8-2.3-8.8-2.2-4.7 0-7.1 2.5-7.1 5.3 0 3 2.9 4.8 6.9 7.3 5.7 3.2 9.3 7.4 9.3 13.5 0 11.3-8.7 17.2-19.1 17.2-6.5-0.1-11.3-1.9-13.4-3.6z" fill="#fff" stroke="#000" stroke-miterlimit="10" stroke-width="1.3271"/>
	<path d="m99.9 422.8 9.4-53.7h10.1l-3.9 21.5h0.1c2.9-3.4 6.4-5.6 10.9-5.6 5.3 0 8.6 3.6 8.6 10 0 1.7-0.3 4.6-0.6 6.7l-3.7 21.2h-10.1l3.6-20.3c0.3-1.4 0.4-3 0.4-4.5 0-2.5-0.9-4.2-3.4-4.2-3.6 0-7.1 4.7-8.4 12.1l-3 16.9h-10z" fill="#fff" stroke="#000" stroke-miterlimit="10" stroke-width="1.3271"/>
	<path d="m156.3 415.3c5.5 0 8.6-8.7 8.6-15 0-3.5-1.4-7-5.4-7-5.8 0-8.7 9.1-8.7 14.8-0.1 4.3 2 7.2 5.5 7.2zm-1.4 8.3c-8.8 0-14.6-6.1-14.6-15.3 0-12.8 8.2-23.4 20.4-23.4 9.2 0 14.6 6.8 14.6 15.3 0.1 13.5-8.5 23.4-20.4 23.4z" fill="#fff" stroke="#000" stroke-miterlimit="10" stroke-width="1.3271"/>
	<path d="m190.1 413.6c1.1 1.1 2.6 1.7 4.6 1.7 5.4 0 9.6-8.3 9.6-15.5 0-2.9-1.2-6-4.4-6-3.8 0-7.3 4.5-8.5 11.8zm-14.4 28.1 6.6-41.6c0.8-4.4 1.5-10.8 2-14.6h9l-0.6 5.7h0.1c2.8-4 6.9-6.2 11-6.2 7.4 0 11.1 6.4 11.1 14.1 0 12.8-7.9 24.6-19.9 24.6-2.7 0-5.1-0.8-6.3-1.5h-0.2l-2.7 19.6z" fill="#fff" stroke="#000" stroke-miterlimit="10" stroke-width="1.3271"/>
	<path d="m351.9 412.8c1.2 0.2 2.6 0.3 4.3 0.3 5.3 0 10-2 13-5.7 3.1-3.8 4.8-9 4.8-15.2 0-7.8-3.9-12.1-11.9-12.1-1.9 0-3.3 0.1-4.3 0.4zm-2.8-40.1c3.9-0.7 8.1-1.1 12.4-1.1 7.4 0 13.2 1.5 16.9 5 3.9 3.3 6.1 8.2 6.1 15.2 0 9.7-3.7 18.4-9.4 23.3-5.3 4.6-12 6.6-21.9 6.6-5.5 0-10.3-0.5-12.6-1z" fill="#fff" stroke="#000" stroke-miterlimit="10" stroke-width="1.3271"/>
</g>
</svg>
