<svg width="800" height="210.62" fill="none" version="1.1" viewBox="0 0 800 210.62" xmlns="http://www.w3.org/2000/svg">
 <path d="m358.34 29.419 10.978 2.1956c0.95666 0.10372 1.8333 0.58032 2.4411 1.3264 0.60731 0.74613 0.89609 1.7016 0.80362 2.6592v9.1934c-3.0976 0.92562-6.3029 1.4438-9.5341 1.5413-1.9685 0-3.5314-0.30285-4.5535-0.86527-0.78414-1.5202-2.1215-2.6816-3.7369-3.2447 0.0135 1.3601 0.44777 2.6825 1.2438 3.7855l0.0324 0.04331c0.26986 0.32562 0.58298 0.61304 0.93017 0.85445 0.36178 0.25617 0.75224 0.47027 1.1627 0.63813h0.027c0.2055 0.08651 0.42182 0.16765 0.64895 0.23795h0.0649c0.22713 0.07031 0.45967 0.13519 0.70302 0.19468 0.24336 0.05411 0.49212 0.10275 0.75171 0.14602h0.0595c0.24877 0.03971 0.50293 0.07211 0.76252 0.09732h0.12979c0.25957 0.02701 0.54079 0.04871 0.78955 0.05951h2.466l0.45426-0.03241h0.22173l0.46508-0.04331h0.2055l0.54079-0.05951h0.15142c7.2682-0.93017 16.408-4.4237 22.594-8.3552-3.4892-7.1833-8.253-13.673-14.061-19.155-2.1177-1.9956-4.3631-3.8508-6.722-5.5539-4.0246 4.2622-7.4007 9.0925-10.021 14.336z" fill="url(#paint0_linear)" stroke-width=".54079"/>
 <path d="m391.08 44.004-0.25959-0.60027c-4.939 2.954-10.23 5.276-15.748 6.9113-0.54079 0.15142-1.0221 0.29743-1.5304 0.43263l-1.2763 0.32448-0.28121 0.07031-1.2168 0.27581-0.18387 0.03781-1.0816 0.21092-0.23795 0.04331c-0.38396 0.07031-0.76252 0.12979-1.1411 0.18928l-0.23794 0.03241c-0.34611 0.05411-0.68681 0.09732-1.0221 0.1406h-0.14061c-0.36232 0.04331-0.72465 0.07571-1.0816 0.10275h-0.24336l-1.0816 0.06491h-2.3957c-0.32448 0-0.64355-0.03781-0.9572-0.07031h-0.0541c-0.32448-0.0324-0.63814-0.07031-0.94638-0.11898h-0.16224c-0.30284-0.04871-0.60028-0.10275-0.89231-0.16764l-0.10816-0.02701c-0.29202-0.06491-0.57864-0.13519-0.85444-0.21632-0.28121-0.08111-0.54079-0.17305-0.822-0.2704l-0.11357-0.03781c-0.25958-0.10275-0.51375-0.2055-0.76252-0.31906l-0.0595-0.02701c-0.24876-0.11898-0.49212-0.23795-0.72466-0.37315-0.89717-0.49628-1.6997-1.1481-2.3687-1.9252-0.0324-0.03781-0.0703-0.07571-0.10275-0.11898-1.3736-1.6765-2.0983-3.8721-2.1632-6.4895-0.96586 0.25396-1.863 0.72136-2.6245 1.3678-0.76144 0.64641-1.3682 1.4554-1.7754 2.3674-0.40721 0.91198-0.60514 1.9037-0.57865 2.9023 0.027 0.99846 0.27689 1.9783 0.73224 2.8673 0.45589 0.88895 1.1048 1.6645 1.8998 2.2693 0.79441 0.60519 1.7148 1.0238 2.6931 1.226 0.97829 0.20225 1.9896 0.18224 2.9587-0.05841 0.96965-0.24011 1.8728-0.69492 2.6434-1.3309 0.0865-0.07031 0.16765-0.14602 0.24876-0.22173 2.0004 0.60277 4.0814 0.89447 6.1704 0.86527 3.1674-0.04701 6.318-0.46432 9.3881-1.2438v21.215c-0.0433 1.6224-0.18387 2.6607-1.2546 3.5368l-70.243 57.562c-0.74791 0.61056-1.7073 0.89987-2.6683 0.8047-0.96099-0.0952-1.8446-0.5673-2.4584-1.313l-39.088-47.725c-0.60892-0.74846-0.89771-1.7078-0.80252-2.6683 0.0952-0.96044 0.56674-1.8441 1.3109-2.4584l70.259-57.546c1.1302-0.91935 2.1632-0.81119 3.8937-0.44886l22.794 4.5697c0.0433-0.08111 0.0811-0.16224 0.11898-0.24877 2.771-5.6652 6.357-10.894 10.643-15.521-4.4799-2.8445-9.2518-5.2013-14.234-7.0303-9.3735-3.4791-19.602-5.2168-30.684-5.2132-10.963 0-21.091 1.7377-30.382 5.2132-8.9468 3.2599-17.135 8.3091-24.065 14.839-6.867 6.5855-12.266 14.546-15.845 23.362-3.8072 9.161-5.7124 19.424-5.7162 30.787 0 11.097 1.9052 21.224 5.7162 30.382 3.613 8.9084 9.0209 16.978 15.887 23.706 6.8659 6.7285 15.043 11.972 24.023 15.404 9.287 3.6595 19.418 5.4998 30.392 5.5215 11.097 0 21.325-1.8371 30.684-5.5107 9.0398-3.4735 17.291-8.7256 24.265-15.445 6.8826-6.7112 12.311-14.766 15.948-23.665 3.8072-9.1572 5.7124-19.285 5.7162-30.382 0-11.378-1.9052-21.65-5.7162-30.814z" fill="url(#paint0_linear)" stroke-width=".54079"/>
 <path d="m407.64 12.957c0-4.5967 2.4065-7.0032 7.0303-7.8793 13.544-2.0519 27.223-3.0751 40.922-3.0609 29.743 0 58.649 7.8739 58.649 49.017 0 33.264-21.88 47.27-50.769 47.27-7.8761-0.04491-15.725-0.92421-23.416-2.6228v47.487c0 4.5967-1.9685 6.5652-6.5652 6.5652h-19.285c-4.5967 0-6.5652-1.9685-6.5652-6.5652zm47.709 62.807c15.099 0 27.791-4.1587 27.791-23.854 0-21.886-14.228-26.699-27.58-26.699-5.2235 0.07521-10.428 0.66209-15.537 1.7522v47.487c5.0402 1.0978 10.291 1.3141 15.326 1.3141z" fill="url(#paint0_linear)" stroke-width=".54079"/>
 <path d="m3.4989 123.47c0.87608-4.375 3.7206-5.0348 7.0032-3.7206 9.4098 3.7206 23.854 8.1119 37.423 8.1119 14.223 0 22.324-4.8184 22.324-17.305 0-12.914-8.3174-17.305-23.638-22.762-24.509-8.7554-46.611-16.413-46.611-45.74 0-28.229 24.947-41.143 53.614-41.143 11.35 0.033106 22.633 1.7369 33.486 5.0564 4.375 1.3141 5.6891 3.9369 4.5967 8.3174l-2.6282 11.151c-1.0816 4.375-3.5043 5.4674-7.4413 4.1533s-14.006-4.375-25.168-4.375c-13.785 0-26.039 1.3141-26.039 16.851 0 13.352 13.13 16.197 27.58 21.226 24.952 8.5391 42.241 21.886 42.241 45.086 0 26.699-21.01 43.988-49.899 43.988-19.258 0-35.016-3.5043-44.642-7.225-3.9424-1.5304-5.4728-4.813-4.5967-9.1934z" fill="url(#paint0_linear)" stroke-width=".54079"/>
 <path d="m200.68 10.113c0-4.5967 1.9739-6.5652 6.5652-6.5652h19.041c4.5967 0 6.5652 1.9685 6.5652 6.5652v133.03c0 4.5967-1.9685 6.5652-6.5652 6.5652h-19.041c-4.5913 0-6.5652-1.9685-6.5652-6.5652v-56.437h-54.49v56.459c0 4.5967-1.9685 6.5652-6.5652 6.5652h-19.041c-4.5967 0-6.5652-1.9685-6.5652-6.5652v-133.03c0-4.5967 1.9685-6.5652 6.5652-6.5652h19.041c4.5967 0 6.5652 1.9685 6.5652 6.5652v51.207h54.49z" fill="url(#paint0_linear)" stroke-width=".54079"/>
 <path d="m659.89 194.71c0 6.3975-2.7418 9.1394-9.1339 9.1394h-112.07c-6.3976 0-9.1394-2.7418-9.1394-9.1394v-185.16c0-6.3921 2.7418-9.1339 9.1394-9.1339h27.104c6.3921 0 9.134 2.7418 9.134 9.1339v158.99h75.835c6.3921 0 9.1339 2.7418 9.1339 9.1339z" fill="url(#paint0_linear)" stroke-width=".54079"/>
 <path d="m762.41 170.09c8.3985-0.0611 16.792-0.55377 25.141-1.4764 6.2137-0.59487 9.1934 1.7738 9.4692 7.9875l0.8869 15.083c0.29203 6.2137-2.6661 9.4692-8.8744 10.356-12.638 1.8636-25.39 2.8521-38.164 2.9581-52.354 0-97.023-21.594-97.342-103.24 0-77.798 49.991-101.76 99.689-101.76 17.451 0 30.468 2.9581 39.64 5.3214 6.2083 1.7792 7.9875 5.0293 6.8032 10.946l-3.2448 14.791c-1.1843 5.9162-4.7319 7.69-10.059 5.9162-7.0952-2.0712-15.97-4.4345-28.986-4.4345-32.837 0-58.865 15.975-59.162 68.329 0.29744 57.091 28.705 69.221 64.203 69.221z" fill="url(#paint0_linear)" stroke-width=".54079"/>
 <path d="m15.596 173.49c0-1.0221 0.43804-1.5142 1.5142-1.7576 3.1478-0.53808 6.3351-0.81335 9.5287-0.822 6.7437 0 13.287 1.763 13.287 11.14 0 7.5711-5.0294 10.751-11.627 10.751-1.311 5e-3 -2.6197-0.1087-3.9099-0.3407v9.9668c0 1.0275-0.43804 1.4655-1.4655 1.4655h-5.8622c-1.0275 0-1.4655-0.43803-1.4655-1.4655zm8.7933 13.195c0.73072 0.0811 1.466 0.11357 2.201 0.0973 2.6391 0 4.8347-0.78414 4.8347-4.5426 0-4.256-2.493-5.1808-4.786-5.1808-0.75462-0.0119-1.5084 0.053-2.2497 0.19468zm19.252-13.244c0-1.0221 0.54079-1.5629 1.6224-1.7576 3.1147-0.50726 6.2648-0.76576 9.4206-0.77333 6.7382 0 13.287 1.763 13.287 11.14 0 5.3268-2.3957 8.5499-6.0082 10.07l6.987 10.551c0.58405 0.88149 0.38937 1.2222-0.63813 1.2222h-6.5436c-0.45156 0.0308-0.90258-0.0735-1.2941-0.2996-0.39207-0.22658-0.7079-0.56458-0.90691-0.97125l-5.7648-9.6261c-0.45994-0.0341-0.91707-0.099-1.3683-0.19469v9.6261c0 1.0275-0.43799 1.4655-1.4655 1.4655h-5.8622c-1.0275 0-1.4655-0.43803-1.4655-1.4655zm8.7932 13.633c0.73548 0.0487 1.5143 0.14602 2.2011 0.14602 2.6336 0 4.8347-0.83282 4.8347-4.9807 0-4.256-2.493-5.1808-4.786-5.1808-0.75116-0.0195-1.503 0.013-2.2497 0.0973zm43.804 15.342c0 1.0275-0.43804 1.4656-1.4655 1.4656h-20.155c-1.0275 0-1.4655-0.43804-1.4655-1.4656v-29.706c0-1.0275 0.43804-1.4656 1.4655-1.4656h19.739c1.0221 0 1.4655 0.43804 1.4655 1.4656v3.6611c0 1.0275-0.44345 1.4655-1.4655 1.4655h-12.438v5.9162h11.627c1.0275 0 1.4655 0.43805 1.4655 1.4655v3.5368c0 1.0275-0.43804 1.4655-1.4655 1.4655h-11.6v7.0303h12.849c1.0275 0 1.4655 0.44345 1.4655 1.4655zm13.482 0c0 1.0275-0.43805 1.4656-1.4656 1.4656h-5.8405c-1.0275 0-1.4655-0.43804-1.4655-1.4656v-29.706c0-1.0275 0.43803-1.4656 1.4655-1.4656h5.8622c1.0275 0 1.4655 0.43804 1.4655 1.4656zm5.1321-5.7648c0.19468-1.0275 0.83282-1.2222 1.6224-0.88149 1.2708 0.54079 5.4079 2.2497 8.5012 2.2497 2.1632 0 3.7152-0.83282 3.7152-3.1798 0-2.4876-1.5142-3.3204-4.2993-4.3263-5.4728-2.0009-10.41-3.7855-10.41-10.405 0-6.4516 5.6675-9.4314 12.216-9.4314 2.7104 0.0276 5.4009 0.47049 7.9767 1.3141 1.0221 0.3407 1.3195 0.93016 1.1248 1.909l-0.84363 3.6449c-0.19469 0.97883-0.78415 1.1735-1.7089 0.83281-0.68681-0.24335-3.7855-1.3682-6.4895-1.3682-2.201 0-3.9099 0.73008-3.9099 3.0771 0 2.347 2.6391 3.2448 5.7162 4.4453 4.1046 1.6224 8.9447 3.6179 8.9447 9.8694 0 6.0568-4.8671 10.015-11.481 10.015-3.52 0.0449-7.0173-0.56782-10.313-1.8062-0.40776-0.15629-0.74305-0.45697-0.9426-0.84526-0.19956-0.38828-0.2493-0.83606-0.13899-1.2584zm46.102-22.767c0.43102-0.0362 0.86148 0.079 1.2168 0.3261 0.3553 0.2466 0.61326 0.60947 0.73007 1.0259l5.1808 15.488 1.5142-18.03c0.0487-1.0275 0.5408-1.4655 1.5629-1.4655h5.2294c1.0221 0 1.4169 0.43804 1.3195 1.4655l-3.2448 29.706c-0.0973 1.0275-0.58405 1.4656-1.6224 1.4656h-6.4787c-0.43642 0.0416-0.87284-0.08-1.2249-0.34179-0.35152-0.26173-0.59379-0.64516-0.67869-1.0751l-5.7162-17.397-5.5701 17.397c-0.0779 0.43534-0.31636 0.82525-0.66733 1.0935-0.35151 0.26824-0.79064 0.39532-1.2308 0.35585h-6.4895c-1.0275 0-1.5142-0.43805-1.6224-1.4656l-3.1744-29.706c-0.0973-1.0275 0.29203-1.4656 1.3195-1.4656h5.1267c1.0275 0 1.5142 0.43804 1.5629 1.4656l1.5142 18.079 5.1808-15.569c0.10058-0.42344 0.35313-0.7955 0.71059-1.0448 0.35693-0.24931 0.7928-0.35854 1.2254-0.30718zm44.458 28.532c0 1.0275-0.43805 1.4656-1.4656 1.4656h-20.182c-1.0275 0-1.4656-0.43804-1.4656-1.4656v-29.706c0-1.0275 0.43805-1.4656 1.4656-1.4656h19.739c1.0221 0 1.4655 0.43804 1.4655 1.4656v3.6611c0 1.0275-0.44344 1.4655-1.4655 1.4655h-12.411v5.9162h11.627c1.0275 0 1.4655 0.43805 1.4655 1.4655v3.5368c0 1.0275-0.43805 1.4655-1.4655 1.4655h-11.627v7.0303h12.849c1.0275 0 1.4655 0.44345 1.4655 1.4655zm4.6886-28.976c0-1.0221 0.54079-1.5629 1.6224-1.7576 3.1128-0.50672 6.2613-0.76522 9.4152-0.77333 6.7437 0 13.293 1.763 13.293 11.14 0 5.3268-2.3957 8.5499-6.0136 10.07l6.987 10.551c0.58947 0.88149 0.39478 1.2222-0.63271 1.2222h-6.549c-0.45102 0.0308-0.90041-0.0741-1.292-0.30014-0.39098-0.22658-0.70573-0.56458-0.90366-0.97071l-5.7702-9.6261c-0.45966-0.0346-0.91717-0.0995-1.3682-0.19469v9.6261c0 1.0275-0.43804 1.4655-1.4655 1.4655h-5.8622c-1.0221 0-1.4655-0.43803-1.4655-1.4655zm8.7932 13.633c0.73548 0.0487 1.5196 0.14602 2.201 0.14602 2.639 0 4.8401-0.83282 4.8401-4.9807 0-4.256-2.493-5.1808-4.7914-5.1808-0.75115-0.0195-1.5028 0.013-2.2497 0.0973zm17.592-14.363c0-1.0275 0.43804-1.4656 1.4655-1.4656h23.454c1.0221 0 1.4655 0.43804 1.4655 1.4656v3.6071c0 1.0275-0.44345 1.4655-1.4655 1.4655h-7.4359v24.628c0 1.0275-0.43804 1.4655-1.4655 1.4655h-5.8622c-1.0275 0-1.4656-0.43804-1.4656-1.4655v-24.622h-7.2304c-1.0275 0-1.4655-0.43804-1.4655-1.4655zm52.765 29.706c0 1.0275-0.43803 1.4656-1.4655 1.4656h-20.182c-1.0275 0-1.4655-0.43804-1.4655-1.4656v-29.706c0-1.0275 0.43803-1.4656 1.4655-1.4656h19.739c1.0275 0 1.4655 0.43804 1.4655 1.4656v3.6611c0 1.0275-0.43805 1.4655-1.4655 1.4655h-12.438v5.9162h11.627c1.0275 0 1.4655 0.43805 1.4655 1.4655v3.5368c0 1.0275-0.43803 1.4655-1.4655 1.4655h-11.627v7.0303h12.849c1.0275 0 1.4655 0.44345 1.4655 1.4655zm35.811-0.88148c2.7396 0.61109 5.3841 1.5878 7.8631 2.904 0.83281 0.44344 0.97883 1.0275 0.38937 1.8603l-2.6391 3.6612c-0.58406 0.83282-1.2168 0.78415-1.7576 0.3407-3.7077-3.0263-8.1335-5.0456-12.849-5.8622-11.897-0.0487-14.12-8.3066-14.12-16.856 0-8.5499 2.493-16.905 14.412-16.905 12.022 0 14.315 8.3065 14.315 16.905 0 5.3052-1.6602 11.07-5.6188 13.952zm-2.9798-13.974c0-5.6675-0.6814-10.275-5.7648-10.275s-5.8135 4.5913-5.8135 10.275c0 5.5702 0.78415 9.9668 5.8135 9.9668s5.7594-4.3966 5.7594-9.9668zm26.72 16.878c-9.3827 0-12.979-4.0073-12.979-12.703v-19.025c0-1.0275 0.43804-1.4656 1.4656-1.4656h5.9487c1.0275 0 1.4655 0.43804 1.4655 1.4656v18.749c0 3.8126 0.3407 6.1542 4.2019 6.1542 3.6666 0 4.1046-2.0983 4.1046-6.1542v-18.749c0-1.0275 0.43804-1.4656 1.4655-1.4656h5.9487c1.0275 0 1.4655 0.43804 1.4655 1.4656v19.003c5e-3 8.4526-3.169 12.725-13.087 12.725zm38.699-0.54079c-0.43696 0.0422-0.87446-0.0795-1.2271-0.34124-0.35259-0.26175-0.59541-0.64517-0.68193-1.0756l-1.9036-6.0569h-8.4526l-1.8549 6.0569c-0.0865 0.43046-0.32935 0.81388-0.68194 1.0756-0.3526 0.26174-0.79009 0.38341-1.2271 0.34124h-6.0082c-1.0275 0-1.3195-0.43805-0.97884-1.3682l10.015-29.9c0.11463-0.42073 0.37368-0.78847 0.73114-1.0383 0.35746-0.24985 0.79171-0.36666 1.2265-0.32989h6.2191c0.43696-0.0422 0.87445 0.0795 1.227 0.34124s0.59541 0.64517 0.68194 1.0756l9.7667 29.803c0.29743 0.97882 0 1.4169-1.0221 1.4169zm-8.0145-23.47-2.347 9.7342h4.6454zm39.624 21.989c0 1.0275-0.43804 1.4656-1.4656 1.4656h-18.663c-1.0275 0-1.4655-0.43804-1.4655-1.4656v-29.706c0-1.0275 0.43804-1.4656 1.4655-1.4656h5.8676c1.0275 0 1.4656 0.43804 1.4656 1.4656v24.525h11.357c1.0275 0 1.4655 0.44344 1.4655 1.4655zm12.065 0c0 1.0275-0.43803 1.4656-1.4655 1.4656h-5.8622c-1.0221 0-1.4655-0.43804-1.4655-1.4656v-29.706c0-1.0275 0.44344-1.4656 1.4655-1.4656h5.8784c1.0275 0 1.4655 0.43804 1.4655 1.4656zm3.2772-29.706c0-1.0275 0.43804-1.4656 1.4655-1.4656h23.449c1.0275 0 1.4656 0.43804 1.4656 1.4656v3.6071c0 1.0275-0.43804 1.4655-1.4656 1.4655h-7.425v24.628c0 1.0275-0.43803 1.4655-1.4655 1.4655h-5.8622c-1.0275 0-1.4655-0.43804-1.4655-1.4655v-24.622h-7.2304c-1.0275 0-1.4655-0.43804-1.4655-1.4655zm47.882 31.187c-0.4375 0.0433-0.87499-0.0779-1.2281-0.33962-0.35314-0.26229-0.59541-0.64625-0.68086-1.0772l-1.9036-6.0569h-8.4526l-1.8549 6.0569c-0.0865 0.43046-0.32935 0.81388-0.68194 1.0756-0.3526 0.26174-0.7901 0.38341-1.227 0.34124h-6.0082c-1.0275 0-1.3195-0.43805-0.97882-1.3682l10.015-29.9c0.11465-0.42073 0.37369-0.78847 0.73115-1.0383 0.35746-0.24985 0.79172-0.36666 1.2265-0.32989h6.2029c0.43696-0.0422 0.87445 0.0795 1.227 0.34124 0.35259 0.26174 0.59541 0.64517 0.68194 1.0756l9.7667 29.803c0.29744 0.97882 0 1.4169-1.0221 1.4169zm-16.224-41.235c0-1.0275 0.43804-1.471 1.4655-1.471h4.1533c1.0275 0 1.4655 0.44344 1.4655 1.471v3.9045c0 1.0275-0.43803 1.4655-1.4655 1.4655h-4.1479c-1.0275 0-1.4656-0.43805-1.4656-1.4655zm8.2092 17.781-2.347 9.7342h4.6454zm1.2222-17.781c0-1.0275 0.43803-1.471 1.4655-1.471h4.1533c1.0221 0 1.4655 0.44344 1.4655 1.471v3.9045c0 1.0275-0.44345 1.4655-1.4655 1.4655h-4.1533c-1.0275 0-1.4655-0.43805-1.4655-1.4655zm12.162 10.064c0-1.0275 0.44345-1.4656 1.4655-1.4656h23.454c1.0275 0 1.4655 0.43804 1.4655 1.4656v3.5908c0 1.0275-0.43803 1.4655-1.4655 1.4655h-7.425v24.628c0 1.0275-0.43804 1.4655-1.4655 1.4655h-5.8676c-1.0275 0-1.471-0.43804-1.471-1.4655v-24.622h-7.2304c-1.0221 0-1.4656-0.43804-1.4656-1.4655z" fill="url(#paint0_linear)" stroke-width=".54079"/>
 <defs>
  <linearGradient id="paint0_linear" x1="740.67" x2="740.67" y1="285.46" y2="58.56" gradientTransform="matrix(.54079 0 0 .54079 -.54079 -7.3628e-6)" gradientUnits="userSpaceOnUse">
   <stop stop-color="#0B9CF5" offset="0"/>
   <stop stop-color="#1C35B0" offset=".99"/>
  </linearGradient>
 </defs>
</svg>
