<svg width="319.23pt" height="93.431pt" version="1.1" viewBox="0 0 319.23 93.431" xmlns="http://www.w3.org/2000/svg">
 <path d="m0.012701 73.041c41.11 0.17 82.34 0.15 123.45 0 0.03 0.47-0.02 1.4702 0 1.9402-41.1-0.07-82.35-0.22-123.45 0-0.04-0.48 0.03-1.4502 0-1.9402z" fill="#666"/>
 <path d="m195.77 73.041c41.11 0.17 82.34 0.15 123.45 0 0.03 0.47-0.02 1.4702 0 1.9402-41.1-0.07-82.35-0.22-123.45 0-0.04-0.48 0.03-1.4502 0-1.9402z" fill="#666"/>
 <g transform="translate(-.27104)">
  <path d="m130.66 54.401c19.52 0.12 39.04 0.13 58.56 0-0.08 13.01 0.06 26.02 0 39.03h-58.56c-0.22-13-0.13-26.02 0-39.03" fill="#666"/>
  <g transform="matrix(1.2648 0 0 1.2648 -13.174 -88.238)" fill="#fff">
   <path d="m131.09 137.74v-8.13h-7.65v8.13h-4.06v-18.69h4.06v7.11h7.65v-7.11h4.06v18.69z"/>
   <path d="m154.26 128.29c0 1.56-0.21 2.94-0.65 4.17-0.45 1.22-1.1 2.26-1.98 3.12-0.79 0.79-1.66 1.34-2.64 1.66-0.97 0.33-2.2 0.49-3.69 0.49h-7.63v-18.68h7.54c1.4 0 2.6 0.16 3.59 0.47 0.99 0.32 1.88 0.83 2.66 1.54 1.87 1.7 2.8 4.11 2.8 7.23m-4.12-0.03c0-1.9-0.46-3.34-1.37-4.31-0.92-0.97-2.26-1.46-4.03-1.46h-3.01v11.8h3.14c1 0 1.78-0.1 2.36-0.31l1.51-1.04c0.94-1.08 1.4-2.64 1.4-4.68"/>
  </g>
 </g>
 <g transform="matrix(.26674 0 0 .26674 171.42 124.06)">
  <polygon class="cls-1" transform="matrix(.75 0 0 .75 -639.56 -465.09)" points="1207.2 30.57 1279.1 30.57 1279.1 219.06 1307.8 219.06 1307.8 30.57 1379.8 30.57 1379.8 4.88 1207.2 4.88" fill="#e22027"/>
  <path class="cls-1" d="m531.62-461.42c-12.998 47.25-27.555 93.645-47.715 139.12-19.268-46.372-33.382-92.752-47.25-139.12h-23.745c16.8 53.542 34.725 107.08 58.5 160.63h24c24-53.318 41.895-106.86 58.695-160.63z" fill="#e22027" stroke-width=".75"/>
  <path d="m-549.5-388.61-43.688-10.755c-12.322-3.135-19.5-6.495-19.5-20.385 0-24.195 16.132-25.988 35.175-25.988 25.538 0 38.535 3.81 40.328 30.69h21.51c-0.675-24.195-10.305-49.958-60.488-49.958-43.012 0-58.028 19.042-58.028 45.922 0 23.745 11.648 34.5 34.275 40.102l39.878 9.63c23.302 5.6025 27.105 11.205 27.105 24.195 0 25.095-15.232 28.672-39.428 28.672-28.898 0-44.58-5.3775-45.705-36.068h-21.495c0.675 43.012 28.005 55.335 65.415 55.335 34.95 0 62.73-10.755 62.73-48.165 0-24.412-12.098-36.96-38.085-43.23z" stroke-width=".75"/>
  <polyline transform="matrix(.75 0 0 .75 -639.56 -465.09)" points="222.17 93.29 222.17 4.88 193.5 4.88 193.5 219.06 222.17 219.06 222.17 118.39 333.89 118.39 333.89 219.06 362.56 219.06 362.56 4.88 333.89 4.88 333.89 93.3"/>
  <path d="m-34.584-417.29c0-40.328-29.348-44.138-64.5-44.138h-63.203v160.64h21.51v-69h41.445l47.722 69h26.662l-49.072-70.365c24.435-2.895 39.435-13.425 39.435-46.132zm-76.8 28.672h-29.393v-54h49.943c21.51 0 34.05 2.685 34.05 25.538 0 24.645-10.305 28.455-34.5 28.455z" stroke-width=".75"/>
  <polygon transform="matrix(.75 0 0 .75 -639.56 -465.09)" points="830.34 30.57 902.32 30.57 902.32 219.06 931 219.06 931 30.57 1003 30.57 1003 4.88 830.34 4.88"/>
  <path d="m214.85-388.61-43.688-10.755c-12.322-3.135-19.5-6.495-19.5-20.385 0-24.195 16.132-25.988 35.175-25.988 25.538 0 38.535 3.81 40.328 30.69h21.51c-0.675-24.195-10.305-49.958-60.488-49.958-43.012 0-58.028 19.042-58.028 45.922 0 23.745 11.648 34.5 34.275 40.102l39.878 9.63c23.302 5.6025 27.105 11.205 27.105 24.195 0 25.095-15.232 28.672-39.428 28.672-28.898 0-44.58-5.3775-45.705-36.068h-21.495c0.675 43.012 28.005 55.335 65.415 55.335 34.95 0 62.73-10.755 62.73-48.165 0-24.412-12.098-36.96-38.085-43.23z" stroke-width=".75"/>
  <polygon class="cls-1" transform="matrix(.75 0 0 .75 -639.56 -465.09)" points="469.79 165.35 469.79 61.98 559.31 113.67" fill="#e22027"/>
  <circle class="cls-2" cx="-264.71" cy="-379.83" r="75.128" fill="none" stroke="#000" stroke-miterlimit="10" stroke-width="20.25px"/>
 </g>
</svg>
