<svg id="a" version="1.1" viewBox="0 0 1232.3 252.56" xml:space="preserve" xmlns="http://www.w3.org/2000/svg">
<g id="b" transform="matrix(1.8964 0 0 1.8964 -391.99 -475.84)" fill="#9aca3c">
	<path id="c" d="m467.1 355.3c0-1.1-0.9-2.1-2.1-2.1-1.1 0-2.1 0.9-2.1 2.1v18.5c0 1.7-0.6 3.1-1.8 4.3s-2.6 1.8-4.3 1.8h-13.8c-1.7 0-3.1-0.6-4.3-1.8s-1.8-2.6-1.8-4.3v-18.5c0-1.1-0.9-2.1-2.1-2.1-1.1 0-2.1 0.9-2.1 2.1v18.5c0 2.9 1 5.3 3 7.3s4.4 3 7.3 3h13.8c2.9 0 5.3-1.1 7.3-3.2 1.9-2.1 2.9-4.6 2.9-7.5z"/>
	<path id="d" d="m418.2 353.2h-10.1c-2.9 0-5.3 1-7.3 3.1-1.9 2.1-2.9 4.6-2.9 7.5v18.2c0 1.2 0.9 2.1 2.1 2.1 1.1 0 2.1-0.9 2.1-2.1v-6.9h22.1v6.9c0 1.2 0.9 2.1 2.1 2.1 1.1 0 2.1-0.9 2.1-2.1v-18.5c0-2.9-1-5.3-3-7.3-1.9-2-4.3-3-7.2-3zm-16.1 17.7v-7.4c0-1.7 0.6-3.1 1.8-4.3s2.6-1.8 4.3-1.8h10.1c1.7 0 3.1 0.6 4.3 1.8s1.8 2.6 1.8 4.3v7.4z"/>
	<path id="e" d="m507.1 353.2h-6.1c-2.9 0-5.3 1-7.2 3s-2.8 4.5-2.8 7.4v9.6c-0.1 1.7-0.7 3.3-1.7 4.6-1.1 1.3-2.4 2-4.1 2h-13.9c-1.2 0-2.1 0.9-2.1 2.1s0.9 2.1 2.1 2.1h13.9c2.9 0 5.3-1 7.2-3s2.8-4.5 2.8-7.4v-9.6c0.1-1.8 0.7-3.3 1.7-4.6s2.4-2 4.2-2h6.1c1.2 0 2.1-0.9 2.1-2.1-0.1-1.1-1-2.1-2.2-2.1z"/>
	<path id="f" d="m591.3 355.2c0-1.1-0.9-2.1-2.1-2.1-1.1 0-2.1 0.9-2.1 2.1v26.8c0 1.1 0.9 2.1 2.1 2.1 1.1 0 2.1-0.9 2.1-2.1v-22.7z"/>
	<path id="g" d="m576.7 377.3-3.6-3.2c1.2-0.5 2.2-1.2 3.1-2 2-1.9 3-4.4 3-7.5 0-3.3-0.9-6-2.6-8-1.8-2.2-4.3-3.3-7.6-3.3h-10.2c-3 0-5.5 1.1-7.5 3.3s-3 4.7-3 7.7v17.6c0 1.2 1 2.1 2.1 2.1 1.2 0 2.1-1 2.1-2.1v-7.4l12.2 0.3c0.1 0 1.6 0.1 1.7 0.1l6.6 5.5 3.5 3c1 0.8 2.4 0.8 3.3-0.2 0.8-1 0.8-2.4-0.2-3.3zm-23.9-6.5v-7c0-1.7 0.6-3.2 1.8-4.4s2.7-1.8 4.4-1.8h9.4c2 0 3.6 0.5 4.8 1.6s1.8 2.6 1.8 4.6c0 4.6-2.3 6.9-6.9 6.9h-15.3z"/>
	<path id="h" d="m544.4 353.2h-30.1c-1.2 0-2.1 1-2.1 2.1 0 1.2 1 2.1 2.1 2.1h12.9v24.4c0 1.2 0.9 2.1 2.1 2.1s2.1-1 2.1-2.1v-24.4h12.8c1.2 0 2.1-1 2.1-2.1 0.3-1.1-0.7-2.1-1.9-2.1z"/>
	<path id="i" d="m625.4 356.2c-2-2-4.4-3-7.3-3h-10.1c-2.9 0-5.3 1-7.3 3.1-1.9 2.1-2.9 4.6-2.9 7.5v18.2c0 1.2 0.9 2.1 2.1 2.1 1.1 0 2.1-0.9 2.1-2.1v-6.9h22.1v6.9c0 1.2 0.9 2.1 2.1 2.1 1.1 0 2.1-0.9 2.1-2.1v-18.5c0.1-2.9-0.9-5.3-2.9-7.3zm-23.3 14.7v-7.4c0-1.7 0.6-3.1 1.8-4.3s2.6-1.8 4.3-1.8h10.1c1.7 0 3.1 0.6 4.3 1.8s1.8 2.6 1.8 4.3v7.4z"/>
</g>
<g id="j" transform="scale(1.1101)" fill="#9aca3c"><g id="k" transform="matrix(1.4651 0 0 1.4651 -.064023 .08205)" stroke-width="4.561"><path id="l" d="m120 22.307c-9.5781 0-17.788 7.7537-17.788 17.788v32.839c0 20.068-16.42 36.488-36.488 36.488h-55.188c-5.9293 0-10.49-4.561-10.49-10.49s4.561-10.49 10.49-10.49h53.364c9.5781 0 17.788-7.7537 17.788-17.788v-32.839c0-20.068 16.42-36.488 36.488-36.488h25.998c5.9293 0 10.49 4.561 10.49 10.49s-4.561 10.49-10.49 10.49z"/><path id="m" d="m185.68-0.0421c-5.9293 0-10.49 4.561-10.49 10.49v89.852c0 5.9293 4.561 10.49 10.49 10.49s10.49-4.561 10.49-10.49v-89.852c0-5.9293-4.561-10.49-10.49-10.49z"/><path id="n" d="m488.07 92.546-42.417-36.944 42.417-36.944c4.561-3.6488 5.0171-10.49 0.9122-14.595-3.6488-4.561-10.49-5.0171-14.595-0.9122l-44.698 39.225-44.698-39.225c-4.561-3.6488-10.946-3.1927-14.595 0.9122-3.6488 4.561-3.1927 10.946 0.9122 14.595l42.417 36.944-42.417 36.944c-4.561 3.6488-5.0171 10.49-0.9122 14.595 3.6488 4.561 10.49 5.0171 14.595 0.9122l44.698-39.225 44.698 39.225c4.561 3.6488 10.946 3.1927 14.595-0.9122 4.1049-4.561 3.6488-10.946-0.9122-14.595z"/><path id="o" d="m343.49 92.546-42.417-36.944 42.417-36.944c4.561-3.6488 5.0171-10.49 0.9122-14.595-3.6488-4.561-10.49-5.0171-14.595-0.9122l-44.698 39.225-44.698-39.225c-4.561-3.6488-10.946-3.1927-14.595 0.9122-3.6488 4.561-3.1927 10.946 0.9122 14.595l42.417 36.944-42.417 36.944c-4.561 3.6488-5.0171 10.49-0.9122 14.595 3.6488 4.561 10.49 5.0171 14.595 0.9122l44.698-39.225 44.698 39.225c4.561 3.6488 10.946 3.1927 14.595-0.9122 4.1049-4.561 3.6488-10.946-0.9122-14.595z"/></g><g id="p" transform="translate(1.0417 -126.7)"><path id="q" d="m784.75 126.72c-8.6964 0.125-16.479 8.1785-16.354 16.875v128.75c-0.125 8.7752 7.7864 16.875 16.562 16.875 8.7761 0 16.792-8.0997 16.667-16.875v-47.708h85.937v47.708c-0.125 8.7752 7.7864 16.875 16.562 16.875 8.7761 0 16.792-8.0997 16.667-16.875v-128.75c0.1273-8.8554-8.0195-17.002-16.875-16.875-8.6964 0.125-16.479 8.1785-16.354 16.875v47.812h-85.937v-47.812c0.1273-8.8554-8.0195-17.002-16.875-16.875zm0.3125 8.8541c2.7614 0 5 2.2387 5 5v62.396h109.17v-62.396c0-2.7613 2.2386-5 5-5s5 2.2387 5 5v134.79c0 2.7615-2.2386 5-5 5s-5-2.2385-5-5v-62.396h-109.17v62.396c0 2.7615-2.2386 5-5 5s-5-2.2385-5-5v-134.79c0-2.7613 2.2386-5 5-5z" color="#000000" style="text-decoration-line:none;text-indent:0;text-transform:none"/><path id="r" d="m962.95 126.7c-8.6976 0-16.479 8.1783-16.354 16.875v128.75c-0.125 8.7754 7.7862 16.875 16.562 16.875h71.354c41.82 0 74.479-37.296 74.479-81.25s-32.659-81.25-74.479-81.25zm0.8333 12.188h70.729c33.5 0 62.293 31.84 62.293 69.062s-28.793 69.064-62.293 69.064h-70.729c-1.7606 0-5.0217-3.3455-4.9983-5.1058v-128.02c-0.027-1.7445 3.2536-5 4.9983-5zm5.0017 10v118.13h65.727c29.818 0 52.292-25.524 52.292-59.064s-22.475-59.062-52.292-59.062zm11.04 12.188h54.687c21.394 0 40.104 19.984 40.104 46.875s-18.71 46.875-40.104 46.875h-54.687z" color="#000000" style="text-decoration-line:none;text-indent:0;text-transform:none"/></g></g></svg>
