<svg width="500.78pt" height="157.95pt" version="1.1" viewBox="0 0 500.78 157.95" xmlns="http://www.w3.org/2000/svg">
 <g transform="matrix(1.1871 0 0 1.1871 -245.37 -297.88)" fill="#9aca3c">
  <path d="m309.5 270.1c-8.4 0-15.2 6.8-15.2 15.2v28.2c0 17.3-14 31.3-31.3 31.3h-47.4c-4.9 0-8.9-4-8.9-8.9s4-8.9 8.9-8.9h45.6c8.4 0 15.2-6.8 15.2-15.2v-28.2c0-17.3 14-31.3 31.3-31.3h22.4c4.9 0 8.9 4 8.9 8.9s-4 8.9-8.9 8.9z"/>
  <path d="m365.9 251c-4.9 0-8.9 4-8.9 8.9v77.2c0 4.9 4 8.9 8.9 8.9s8.9-4 8.9-8.9v-77.2c0-4.9-4-8.9-8.9-8.9z"/>
  <path d="m625.5 330.4-36.5-31.9 36.5-31.9c3.7-3.2 4.1-8.9 0.9-12.6s-8.9-4.1-12.6-0.9l-38.4 33.5-38.4-33.5c-3.7-3.2-9.4-2.8-12.6 0.9s-2.8 9.4 0.9 12.6l36.5 31.9-36.5 31.9c-3.7 3.2-4.1 8.9-0.9 12.6s8.9 4.1 12.6 0.9l38.3-33.5 38.4 33.5c3.7 3.2 9.4 2.8 12.6-0.9 3.3-3.7 2.9-9.4-0.8-12.6z"/>
  <path d="m501.3 330.4-36.5-31.9 36.5-31.9c3.7-3.2 4.1-8.9 0.9-12.6s-8.9-4.1-12.6-0.9l-38.4 33.5-38.4-33.5c-3.7-3.2-9.4-2.8-12.6 0.9s-2.8 9.4 0.9 12.6l36.5 31.9-36.5 31.9c-3.7 3.2-4.1 8.9-0.9 12.6s8.9 4.1 12.6 0.9l38.4-33.5 38.4 33.5c3.7 3.2 9.4 2.8 12.6-0.9s2.8-9.4-0.9-12.6z"/>
 </g>
 <path d="m250.78 122.31h-7.0592c-3.356 0-6.1334 1.1572-8.3322 3.4718-2.1988 2.3145-3.2403 5.2076-3.2403 8.5636v11.11c-0.11572 1.9673-0.81007 3.8189-1.9673 5.3234-1.273 1.5044-2.7774 2.3145-4.7447 2.3145h-16.086c-1.3887 0-2.4302 1.0415-2.4302 2.4302s1.0415 2.4302 2.4302 2.4302h16.086c3.356 0 6.1334-1.1572 8.3322-3.4718 2.1988-2.3145 3.2403-5.2076 3.2403-8.5636v-11.11c0.11573-2.083 0.81008-3.8189 1.9673-5.3234s2.7774-2.3145 4.8604-2.3145h7.0592c1.3887 0 2.4302-1.0415 2.4302-2.4302-0.11573-1.273-1.1572-2.4302-2.546-2.4302z" fill="#9aca3c" stroke-width="1.1573"/>
 <path d="m451.51 124.49c0-1.273-1.0415-2.4302-2.4302-2.4302-1.273 0-2.4302 1.0415-2.4302 2.4302v31.014c0 1.273 1.0415 2.4302 2.4302 2.4302 1.273 0 2.4302-1.0415 2.4302-2.4302z" fill="#9aca3c" stroke-width="1.1573"/>
 <path d="m372.84 122.05c-1.273 0-2.4302 1.0415-2.4302 2.4302v28.584h-11.42c-1.9673 0-3.5874-0.69432-4.9761-2.083-1.3887-1.3887-2.083-3.0088-2.083-4.9761v-21.409c0-1.273-1.0415-2.4302-2.4302-2.4302-1.273 0-2.4302 1.0415-2.4302 2.4302v21.409c0 3.356 1.1572 6.1332 3.4717 8.4478s5.0917 3.4717 8.4478 3.4717h27.7c3.356 0 6.1333-1.2729 8.4478-3.7031 2.1988-2.4302 3.356-5.3232 3.356-8.6792l0.11572-20.946c0-1.273-1.0415-2.4302-2.4302-2.4302-1.273 0-2.4302 1.0415-2.4302 2.4302v21.409c0 1.9673-0.6943 3.5874-2.083 4.9761s-3.0088 2.083-4.9761 2.083h-11.42v-28.584c0-1.273-1.0415-2.4302-2.4302-2.4302z" fill="#9aca3c" stroke-width="1.1573"/>
 <path d="m289.09 157.92c1.273 0 2.4302-1.0415 2.4302-2.4302 0-1.273-1.0415-2.4302-2.4302-2.4302h-21.409c-1.9673 0-3.5875-0.69435-4.9762-2.083-1.3887-1.3887-2.083-3.0088-2.083-4.9762v-11.711c0-1.9673 0.69435-3.5875 2.083-4.9762 1.3887-1.3887 3.0467-1.6992 4.9762-2.083h21.409c1.273 0 2.4302-1.0415 2.4302-2.4302 0-1.273-1.0415-2.4302-2.4302-2.4302h-21.409c-3.356 0-6.1334 1.1572-8.4479 3.4718s-3.4718 5.0919-3.4718 8.4479v11.711c0 3.356 1.273 6.1334 3.7032 8.4479 2.4302 2.1988 5.3234 3.356 8.6794 3.356z" fill="#9aca3c" stroke-width="1.1573"/>
 <path d="m416.29 122.36c-3.356 0-6.1347 1.1572-8.4492 3.4717s-3.4717 5.0917-3.4717 8.4478v11.711c0 3.356 1.2729 6.1332 3.7031 8.4478 2.4302 2.1988 5.3246 3.356 8.6807 3.356l20.946 0.11572c1.273 0 2.4302-1.0415 2.4302-2.4302 0-1.273-1.0415-2.4302-2.4302-2.4302h-21.409c-1.9673 0-3.5874-0.69431-4.9761-2.083-1.3887-1.3887-2.083-3.0087-2.083-4.9761v-3.4248h28.584c1.273 0 2.4302-1.0415 2.4302-2.4302 0-1.273-1.0415-2.4316-2.4302-2.4316h-28.584v-3.4248c0-1.9673 0.69432-3.5874 2.083-4.9761 1.3887-1.3887 3.0466-1.6991 4.9761-2.083h21.409c1.273 0 2.4302-1.0415 2.4302-2.4302 0-1.273-1.0415-2.4302-2.4302-2.4302z" fill="#9aca3c" stroke-width="1.1573"/>
 <path d="m302.26 122.06c-1.273 0-2.4302 1.0415-2.4302 2.4302v31.015c0 1.273 1.0415 2.4302 2.4302 2.4302 1.273 0 2.4302-1.0415 2.4302-2.4302v-12.293h30.419v12.293c0 1.273 1.0415 2.4302 2.4302 2.4302 1.273 0 2.4302-1.0415 2.4302-2.4302v-31.015c0-1.273-1.0415-2.4302-2.4302-2.4302-1.273 0-2.4302 1.0415-2.4302 2.4302v13.862h-30.419v-13.862c0-1.273-1.0415-2.4302-2.4302-2.4302z" fill="#9aca3c" stroke-width="1.1573"/>
 <path d="m458.51 122.73c-1.273 0-2.4302 1.0415-2.4302 2.4302 0 1.273 1.0415 2.4302 2.4302 2.4302h31.925l-33.398 25.774c-0.56756 0.4369-0.95654 1.1128-0.95654 1.9116 0 1.273 1.0415 2.4302 2.4302 2.4302h39.026c1.273 0 2.4302-1.0415 2.4302-2.4302 0-1.273-1.0415-2.4302-2.4302-2.4302h-31.898l33.372-25.774c0.56755-0.4369 0.95654-1.1128 0.95654-1.9116 0-1.273-1.0415-2.4302-2.4302-2.4302z" fill="#9aca3c" stroke-width="1.1573"/>
</svg>
