<svg width="1232.9" height="180.51" version="1.1" viewBox="0 0 326.2 47.76" xmlns="http://www.w3.org/2000/svg">
 <g transform="matrix(.43062 0 0 .43062 -.020245 .018381)" fill="#9aca3c" stroke-width="4.561">
  <path d="m120 22.307c-9.5781 0-17.788 7.7537-17.788 17.788v32.839c0 20.068-16.42 36.488-36.488 36.488h-55.188c-5.9293 0-10.49-4.561-10.49-10.49s4.561-10.49 10.49-10.49h53.364c9.5781 0 17.788-7.7537 17.788-17.788v-32.839c0-20.068 16.42-36.488 36.488-36.488h25.998c5.9293 0 10.49 4.561 10.49 10.49s-4.561 10.49-10.49 10.49z"/>
  <path d="m185.68-0.0421c-5.9293 0-10.49 4.561-10.49 10.49v89.852c0 5.9293 4.561 10.49 10.49 10.49s10.49-4.561 10.49-10.49v-89.852c0-5.9293-4.561-10.49-10.49-10.49z"/>
  <path d="m488.07 92.546-42.417-36.944 42.417-36.944c4.561-3.6488 5.0171-10.49 0.9122-14.595-3.6488-4.561-10.49-5.0171-14.595-0.9122l-44.698 39.225-44.698-39.225c-4.561-3.6488-10.946-3.1927-14.595 0.9122-3.6488 4.561-3.1927 10.946 0.9122 14.595l42.417 36.944-42.417 36.944c-4.561 3.6488-5.0171 10.49-0.9122 14.595 3.6488 4.561 10.49 5.0171 14.595 0.9122l44.698-39.225 44.698 39.225c4.561 3.6488 10.946 3.1927 14.595-0.9122 4.1049-4.561 3.6488-10.946-0.9122-14.595z"/>
  <path d="m343.49 92.546-42.417-36.944 42.417-36.944c4.561-3.6488 5.0171-10.49 0.9122-14.595-3.6488-4.561-10.49-5.0171-14.595-0.9122l-44.698 39.225-44.698-39.225c-4.561-3.6488-10.946-3.1927-14.595 0.9122-3.6488 4.561-3.1927 10.946 0.9122 14.595l42.417 36.944-42.417 36.944c-4.561 3.6488-5.0171 10.49-0.9122 14.595 3.6488 4.561 10.49 5.0171 14.595 0.9122l44.698-39.225 44.698 39.225c4.561 3.6488 10.946 3.1927 14.595-0.9122 4.1049-4.561 3.6488-10.946-0.9122-14.595z"/>
 </g>
 <g transform="matrix(1.5411 0 0 1.5411 .41558 -14.535)" fill="#9aca3c" stroke-width="1.364">
  <path d="m149.65 11.123c0.53194 0 0.95476 0.43647 0.95476 0.95477v11.894h20.8v-11.894c0-0.5183 0.42282-0.95477 0.95476-0.95477 0.53195 0 0.95478 0.43647 0.95478 0.95477v25.697c0 0.5183-0.42283 0.94113-0.95478 0.94113-0.53194 0-0.95476-0.42283-0.95476-0.94113v-11.894h-20.8v11.894c0 0.5183-0.42282 0.94113-0.95476 0.94113s-0.95477-0.42283-0.95477-0.94113v-25.697c0-0.5183 0.42283-0.95477 0.95477-0.95477m-0.0682-1.6913c-1.6504 0.027279-3.1371 1.5685-3.1098 3.2189v24.538c-0.0273 1.6777 1.4867 3.2339 3.1507 3.2339 1.6777 0 3.2053-1.5563 3.178-3.2339v-9.0839h16.381v9.0839c-0.0273 1.6777 1.4867 3.2339 3.1644 3.2339 1.664 0 3.1917-1.5563 3.178-3.2339v-24.538c0.0137-1.6913-1.5276-3.2326-3.2189-3.2189-1.664 0.027279-3.1507 1.5685-3.1234 3.2189v9.1248h-16.381v-9.1248c0.0273-1.6913-1.5276-3.2326-3.2189-3.2189"/>
  <path d="m186.78 15.979h10.421c4.0782 0 7.6381 3.8191 7.6381 8.9475 0 5.1148-3.5599 8.9203-7.6381 8.9203h-10.421zm-2.1141-2.3187v22.519h12.535c5.6877 0 9.9705-4.8693 9.9705-11.253 0-6.3969-4.2828-11.266-9.9705-11.266zm-0.94113-1.9095h13.476c6.3833 0 11.866 6.0696 11.866 13.176 0 7.0926-5.4831 13.149-11.866 13.149h-13.476c-0.34098 0-0.9684-0.62742-0.95476-0.96841v-24.401c-0.0137-0.32735 0.61378-0.95477 0.95476-0.95477m-0.16367-2.3187c-1.664 0-3.1371 1.5549-3.1234 3.2189v24.538c-0.0137 1.6777 1.4867 3.2203 3.1644 3.2203h13.599c7.9655 0 14.199-7.1076 14.199-15.482 0-8.3883-6.2333-15.495-14.199-15.495z"/>
 </g>
</svg>
