<svg enable-background="new 0 0 805.175 411.604" version="1.1" viewBox="0 0 805.18 411.6" xml:space="preserve" xmlns="http://www.w3.org/2000/svg">
<g clip-rule="evenodd" fill="#00406e" fill-rule="evenodd"><path d="m629.04 0h12.96c33.76 1.805 60.286 11.473 83.04 25.68 22.183 13.85 40.697 32.43 54.24 54 13.85 22.057 24.134 49.556 25.681 82.32 1.708 36.185-7.059 64.003-19.92 88.32-12.367 23.382-29.246 42.587-50.4 57.601-21.142 15.005-45.921 27.02-77.28 30.96-35.247 4.429-68.103-2.445-91.92-13.681-21.154-9.978-39.815-23.45-54.721-39.84-1.758-1.934-4.803-6.482-6.72-6.96h-60.72s-87.011-63.868-126.24-92.88c-1.163-0.86-2.43-2.374-4.08-2.16-0.16 31.6 0.32 63.84-0.24 95.04-16.8-0.16-34.24 0.32-50.64-0.24 0.16-72.396-0.32-145.44 0.24-217.44 16.8 0.16 34.24-0.32 50.64 0.24v90c10.424-6.631 19.914-14.831 30-22.32 27.905-20.722 90.96-67.92 90.96-67.92h71.521c28.832-32.606 65.761-57.12 123.6-60.72zm-266.16 162.96c30.429 22.462 61.973 44.475 92.64 66.48 10.269 7.368 20.429 14.87 30.96 21.6-14.325-25.893-24.364-61.62-19.439-101.76 4.421-36.033 19.613-64.684 36.72-86.64-46.999 33.402-93.773 67.028-140.88 100.32z"/><path d="m0 232.08v-10.56h44.64v15.84h153.36v-49.68h-112.32c-25.162 0-51.643 1.885-64.8-10.08-13.613-12.38-12-36.559-12-62.88 0-12.519 0.479-23.811 4.32-33.12 7.605-18.431 27.835-20.88 54-20.88h112.32c12.849 0 24.449 0.283 34.32 3.12 19.887 5.716 27.353 22.295 25.44 49.2-14.241 0.56-29.52 0.081-44.16 0.24v-14.64h-142.08v46.8h114.48c25.801 0 52.269-1.46 64.8 11.76 12.472 13.157 10.32 40.383 10.32 66 0 13.122-0.681 24.455-4.56 33.84-7.874 19.05-27.867 21.36-54.96 21.36h-114.72c-13.049 0-25.658 0.291-36.48-1.68-22.536-4.105-31.586-18.36-31.919-44.64z"/><path d="m11.52 411.6h-2.64c-2.948-0.585-7.243-1.06-8.16-2.88 0.305-1.135 0.655-2.225 0.96-3.36 4.208 2.264 15.501 4.052 16.56-3.119 1.06-7.178-6.285-7.816-10.56-10.08-2.329-1.233-4.878-3.269-5.76-5.521-4.069-10.39 7.044-15.148 15.6-13.439 2.354 0.47 3.881 0.494 3.84 2.399-0.021 0.992-0.726 1.391-0.96 2.641-4.981-2.449-14.477-2.175-14.16 4.56 0.356 7.57 13.458 6.539 16.32 13.68 3.21 8.008-2.602 14.48-11.04 15.119z"/><path d="m282.96 411.6h-2.88c-1.4-0.223-3.435-0.701-5.04-1.2-1.946-0.604-3.098-0.586-2.88-2.64 0.066-0.63 0.718-1.285 0.96-2.4 4.647 2.486 16.56 4.184 16.56-4.319 0-8.395-13.299-7.271-16.32-14.16-3.106-7.085 2.813-12.229 6.72-13.44 3.507-1.087 12.4-0.964 12.72 1.681 0.137 1.131-0.894 1.678-0.96 3.12-5.079-2.43-15.838-2.4-14.16 5.76 0.865 4.208 7.187 5.011 11.04 7.2 2.421 1.375 4.443 3.354 5.28 6 2.464 7.784-2.771 13.678-11.04 14.398z"/><path d="m87.6 410.88v-37.2c9.471-1.532 21.065-0.927 26.4 4.561 7.243 7.448 5.496 23.288-2.4 29.04-5.815 4.235-13.69 4.486-24 3.599zm22.32-8.16c4.772-5.59 4.77-17.796-0.72-22.56-4.058-3.521-10.068-3.936-16.8-2.641v29.521c7.821 0.988 14.125-0.344 17.52-4.32z"/><path d="m223.2 392.88c6.164 2.557 5.752 11.688 8.16 18h-5.04c-2.417-7.823-1.761-18.719-14.4-16.32v16.32h-4.8v-36.96c11.177-2.871 24.972-0.246 23.04 11.52-0.59 3.598-3.617 6.049-6.96 7.44zm0.961-13.441c-2.022-2.689-7.575-3.219-12.24-2.16v13.681c9.291 2.38 17.144-4.996 12.24-11.521z"/><path d="m457.2 390.72c7.195 1.035 10.021 11.8 4.56 17.04-4.468 4.286-13.503 3.698-20.64 3.12v-36.96c9.532-2.338 22.416-0.986 22.32 8.399-0.047 4.597-2.92 6.6-6.24 8.401zm0.24-11.52c-1.583-2.219-7.096-2.949-11.28-2.16-0.56 3.601-0.081 8.239-0.24 12.24 8.939 1.879 15.612-4.346 11.52-10.08zm0.959 16.8c-2.18-2.936-6.552-3.273-12.239-3.12-0.56 4.32-0.081 9.68-0.24 14.4 8.812 2.631 17.535-4.472 12.479-11.28z"/><path d="m487.44 392.88c6.092 2.627 5.674 11.766 8.159 18h-5.04c-2.542-7.698-1.73-18.749-14.399-16.32v16.32h-4.8v-36.96c10.987-2.767 24.365-0.361 23.04 10.8-0.486 4.091-3.314 6.617-6.96 8.16zm2.16-9.12c0-6.274-6.27-7.803-13.199-6.72-0.555 4.165-0.085 9.355-0.24 13.92 7.392 0.857 13.439-1.284 13.439-7.2z"/><path d="m572.4 410.88v-37.2c7.396-0.877 17.755-1.372 23.04 1.92 5.34 3.327 7.888 9.368 7.92 15.36 0.082 15.204-12.31 23.184-30.96 19.92zm21.84-7.68c4.913-5.04 5.461-17.34 0.24-22.561-3.588-3.587-10.226-4.441-17.28-3.36v30.001c7.522 0.152 12.911 0.155 17.04-4.08z"/><path d="m689.76 390.72c8.833 1.574 9.707 14.04 3.119 18.24-4.968 3.168-12.077 2.302-19.199 1.92v-36.96c7.729-1.653 18.201-1.636 21.359 4.08 2.832 5.123-0.486 11.194-5.279 12.72zm0.96-6c1.821-6.35-4.495-9.107-12-7.68-0.56 3.601-0.081 8.239-0.24 12.24 6.598 0.282 11.019-0.306 12.24-4.56zm0 20.16c5.522-6.34-2.647-14.48-12-12-0.56 4.32-0.081 9.68-0.24 14.4 5.036 0.61 10.002 0.167 12.24-2.4z"/><path d="m756.24 392.64c5.865 2.936 5.688 11.913 8.16 18.24h-5.04c-2.641-7.599-1.732-18.748-14.399-16.32v16.32h-4.801v-36.96c7.341-1.424 17.519-1.893 21.36 3.359 3.809 5.206 0.954 14.288-5.28 15.361zm1.441-5.52c3.487-7.063-4.016-12.185-12.48-10.08-0.554 4.165-0.084 9.355-0.239 13.92 6.153 0.295 10.929-0.216 12.719-3.84z"/><path d="m797.76 374.64c-0.481 1.199-0.785 2.575-1.2 3.84-12.615-4.79-23.911 1.771-23.521 14.4 0.331 10.688 9.129 17.196 21.12 13.439v-11.279h-7.68v-3.84h12.24v18.239c-16.948 5.573-32.109-0.901-30.72-19.199 1.028-13.544 15.01-20.87 29.761-15.6z"/><path d="m53.52 373.2v4.319h-11.52v33.36h-4.8v-33.12c-3.361-0.56-7.76-0.08-11.52-0.24 0.157-1.363-0.316-3.355 0.24-4.319h27.6z"/><path d="m69.12 373.2c4.475 12.325 8.437 25.163 12.96 37.439-1.283 0.558-3.598 0.082-5.28 0.24-1.166-4.034-2.695-7.705-3.84-11.76h-13.2c-1.649 3.631-2.731 7.829-4.08 11.76h-5.04c4.362-12.518 8.38-25.38 12.96-37.68 1.84 1e-3 3.68 1e-3 5.52 1e-3zm-8.4 22.08h11.04c-1.95-5.811-3.853-11.668-5.76-17.521-1.269 6.332-3.678 11.523-5.28 17.521z"/><path d="m148.32 373.2v4.319h-11.52v33.36h-4.8v-33.12c-3.361-0.56-7.76-0.08-11.52-0.24 0.156-1.363-0.316-3.355 0.24-4.319h27.6z"/><path d="m172.56 373.2c0.504 0.935 0.12 2.76 0.24 4.079h-15.36v12.24c4.16 0.56 9.359 0.081 13.92 0.24 0.504 0.936 0.12 2.76 0.24 4.08h-13.92c-0.56 5.2-0.08 11.439-0.24 17.04h-5.04v-37.68c6.719 1e-3 13.439 1e-3 20.16 1e-3z"/><path d="m199.92 373.2v4.079h-15.12c-0.559 3.521-0.081 8.08-0.24 12.001h14.4v4.079h-14.4v13.44h16.32v4.08h-21.36v-18.48c0-6.433-0.389-14.132 0.48-19.199h19.92z"/><path d="m261.12 404.4c-0.342-9.178-0.615-20.505-0.48-30.96h4.56v37.44h-4.8c-6.253-10.467-13.4-20.04-18.72-31.44-0.24 9.761 0.163 20.957 0 31.44h-4.56c0.16-12.48-0.32-25.6 0.24-37.68 1.096 0.373 3.163-0.48 4.56 0 1.549 0.532 4.198 5.732 5.28 7.439 4.769 7.524 10.215 16.201 13.92 23.761z"/><path d="m321.6 373.2v4.079h-15.12c-0.559 3.521-0.08 8.08-0.24 12.001h14.4v4.079h-14.4v13.2c4.88 0.56 10.8 0.08 16.08 0.24v4.08h-21.12c0.16-12.48-0.32-25.6 0.24-37.68 6.72 1e-3 13.439 1e-3 20.16 1e-3z"/><path d="m333.6 373.2v15.6c5.521 0.56 12.08 0.08 18 0.24v-15.601c1.238-0.521 3.412-0.107 5.04-0.239v37.68h-5.04v-17.521h-17.76c-0.56 5.36-0.081 11.761-0.24 17.521h-5.04v-36.96c0.428-1.492 3.467-0.373 5.04-0.72z"/><path d="m385.44 373.2v4.079h-15.36c-0.552 3.448-0.086 7.915-0.24 11.761 4.4 0.56 9.84 0.08 14.64 0.24v4.079h-14.4c-0.559 3.921-0.08 8.88-0.24 13.2 4.96 0.56 10.959 0.08 16.32 0.24v4.08h-21.12c0.16-12.48-0.32-25.6 0.24-37.68 6.72 1e-3 13.44 1e-3 20.16 1e-3z"/><path d="m397.92 373.2c6.037 10.522 13.332 19.787 18.479 31.199-0.122-9.317-0.368-20.591-0.239-30.96h4.56v37.44h-4.56c-6.981-9.979-13.329-20.592-19.44-31.44 0.504 10.137 0.512 20.769 0.48 31.44h-4.56c0.16-12.48-0.32-25.6 0.24-37.68 1.68 1e-3 3.36 1e-3 5.04 1e-3z"/><path d="m517.2 373.2c4.459 12.341 8.418 25.182 12.96 37.439-1.283 0.558-3.598 0.082-5.28 0.24-1.124-4.076-2.781-7.618-3.84-11.76h-13.2c-1.648 3.631-2.73 7.829-4.08 11.76h-5.04c4.355-12.524 8.353-25.407 12.96-37.68 1.84 1e-3 3.68 1e-3 5.52 1e-3zm-8.64 22.08h11.28c-1.961-5.8-3.874-11.646-5.76-17.521-1.421 6.261-3.507 11.854-5.52 17.521z"/><path d="m540.96 373.2c6.445 10.274 13.153 20.286 18.96 31.199-0.923-9.557-0.297-20.662-0.479-30.96h4.56v37.44h-5.04c-6.221-10.499-13.367-20.072-18.72-31.44-0.155 9.675 0.108 21.012 0 31.44h-4.561c0.16-12.48-0.319-25.6 0.24-37.68 1.681 1e-3 3.36 1e-3 5.04 1e-3z"/><path d="m629.76 373.2v4.079h-15.36v12.001h14.64c-0.119 1.319 0.265 3.145-0.24 4.079h-14.399v13.44h16.32v4.08h-21.12c0.159-12.48-0.32-25.6 0.239-37.68 6.639 1e-3 13.279 1e-3 19.92 1e-3z"/><path d="m642.24 373.2c6.44 10.279 13.162 20.277 18.96 31.199-0.923-9.557-0.297-20.662-0.479-30.96h4.56v37.44h-5.04c-6.222-10.499-13.367-20.072-18.72-31.44-0.155 9.675 0.107 21.012 0 31.44h-4.561c0.16-12.48-0.319-25.6 0.24-37.68 1.68 1e-3 3.361 1e-3 5.04 1e-3z"/><path d="m718.8 411.6h-2.641c-16.253-0.387-11.824-22.735-12-38.399h4.561c1.208 12.252-3.881 32.454 6.96 34.08 16.152 2.422 9.516-21.381 11.279-34.08h4.561c-0.527 16.513 3.895 37.975-12.72 38.399z"/></g><path d="m522.96 60.721c-0.28 0.041-0.26319 0.37875-0.24219 0.71875v216.96h144.96c16.254 0 32.432 0.87483 47.279-1.2012 22.003-3.076 37.91-10.781 42.721-29.76 1.651-6.516 1.4394-13.857 1.4394-22.799 0-8.788 0.46149-16.712-0.47851-23.76-2.821-21.149-16.592-30.937-37.92-34.801 14.099-1.745 24.856-7.2411 30.959-16.08 6.929-10.036 5.7598-24.255 5.7598-41.279 0-16.67-1.9543-28.522-10.32-36.721-7.505-7.355-20.033-11.279-35.76-11.279h-188.4zm163.64 35.451c9.9268 0.03 18.987 0.85934 22.361 7.0273 2.083 3.807 1.6806 11.279 1.6816 18.24 0 10.349 0.7505 18.602-4.5625 22.801-5.981 4.729-19.615 3.5996-30.719 3.5996h-102.96v-50.879c-0.02-0.34-0.03975-0.6797 0.24023-0.7207h103.92c3.3228 0 6.7282-0.078359 10.037-0.068359zm-4.6543 87.652c10.901-0.03988 21.63 0.13728 26.295 5.5352 3.636 4.207 3.6016 11.732 3.6016 20.16-1e-3 11.887 0.62653 21.994-6.4805 26.4-6.868 4.258-19.815 3.1191-30.959 3.1191-33.503 0-68.819 1e-3 -102 0v-54.479c-0.011-0.41 0.17652-0.62271 0.47852-0.72071h104.4c1.5471 0 3.1068-0.00992 4.6641-0.01562z" clip-rule="evenodd" fill="#fff" fill-rule="evenodd"/>
</svg>
