<svg width="850" height="850" enable-background="new 0 0 2362.9 500" version="1.1" viewBox="0 0 850 850" xml:space="preserve" xmlns="http://www.w3.org/2000/svg"><defs><linearGradient id="linearGradient6301" x1="-113.73" x2="-67.488" y1="352.36" y2="352.36" gradientTransform="matrix(18.382 0 0 18.382 2090.6 -5977.1)" gradientUnits="userSpaceOnUse"><stop stop-color="#2b6300" offset="0"/><stop stop-color="#3e8f00" offset="1"/></linearGradient><linearGradient id="linearGradient6303" x1="365.41" x2="359.57" y1="1091.1" y2="923.62" gradientTransform="translate(0,-828.02)" gradientUnits="userSpaceOnUse"><stop stop-color="#fff" offset="0"/><stop stop-color="#fff" stop-opacity=".8347" offset=".1203"/><stop stop-color="#fff" stop-opacity=".6576" offset=".2693"/><stop stop-color="#fff" stop-opacity=".5107" offset=".4195"/><stop stop-color="#fff" stop-opacity=".3965" offset=".5684"/><stop stop-color="#fff" stop-opacity=".3152" offset=".7156"/><stop stop-color="#fff" stop-opacity=".2664" offset=".8603"/><stop stop-color="#fff" stop-opacity=".25" offset="1"/></linearGradient><linearGradient id="linearGradient6305" x1="1279.6" x2="1273" y1="1197.7" y2="1016.9" gradientTransform="matrix(.80989 0 0 .80989 -626.59 -470.95)" gradientUnits="userSpaceOnUse"><stop stop-color="#fff" offset="0"/><stop stop-color="#fff" stop-opacity=".8347" offset=".1203"/><stop stop-color="#fff" stop-opacity=".6576" offset=".2693"/><stop stop-color="#fff" stop-opacity=".5107" offset=".4195"/><stop stop-color="#fff" stop-opacity=".3965" offset=".5684"/><stop stop-color="#fff" stop-opacity=".3152" offset=".7156"/><stop stop-color="#fff" stop-opacity=".2664" offset=".8603"/><stop stop-color="#fff" stop-opacity=".25" offset="1"/></linearGradient></defs>
<path d="m0 360h850v280h-850z" fill="url(#linearGradient6301)" stop-color="#000000" stroke-width=".55146" style="-inkscape-stroke:none;font-variation-settings:normal"/><path d="m0 0h850v360h-850z" fill="#fff" stop-color="#000000" stroke-width=".42355" style="font-variation-settings:normal"/><path d="m0 640h850v210h-850z" fill="#fff" stop-color="#000000" stroke-width=".24707" style="font-variation-settings:normal"/><g transform="matrix(.64403 0 0 .64403 191.86 21.452)"><path d="m84.4 120.2c-55.9 6.1-84.4 39.7-84.4 79.8 0 33 24 64.1 69 72.7l54.2 10.4c19.8 3.8 30 8.2 30 19 0 8.2-7.7 16.9-33.2 16.9-23.1 0-54.2-3.5-74-3.5-19 0-39.2 8.6-39.2 46 0 4.6 0.8 10.4 1.8 15 28.5 3.3 88.2 8.5 129.6 4 57.1-6.1 85.2-37.5 85.2-80.4 0-37-22.9-67.1-75.9-76.9l-51.7-9.6c-16.6-2.9-26.9-6.7-26.9-16.1 0-8.9 10.9-16.1 37.3-16.1 25.9 0 48.7 2.7 63.2 2.7 19 0 38.8-8.1 38.8-45.5 0-5-0.6-9.6-1.6-14.4-20.3-2.5-52.6-5.8-84.8-5.8-12.8-0.1-25.5 0.49999-37.4 1.8m321.4 28.9-86.5 94.4 69.5 109.4c12.9 20 29.8 30.1 57.3 30.1 18 0 33-4.2 40-7.5l-83.8-126 59.4-62.9 97.4 152.7-59.4 125c6 3 18 6.7 33.2 7 26.2 0.6 40.3-9.4 51-32.8l140.1-312c-5.8-3.1-18.7-6.6-29-6.7-18-0.4-42.3 3.2-57.7 40.1l-45.3 106.9-89-144.6c-5.8-1.8-19.8-4.2-30-4.2-31.5-0.1-49 11.4-67.2 31.1m-160-72.8v305c5 0.8 10.2 1.1 16.1 1.1 45 0 54-13.2 54-36.2v-315.6c-5.4-1.1-11.1-1.8-16.9-1.8-45.4 0.1-53.2 24.2-53.2 47.5" fill="#2b6300" stop-color="#000000" style="font-variation-settings:normal"/><path d="m0 200c0-40.1 28.5-73.7 84.4-79.8 11.9-1.3 24.6-1.9 37.2-1.6 32.2 0 64.5 3.3 84.8 5.8 1 4.8 1.6 9.4 1.6 14.4 0 37.4-19.8 45.5-38.8 45.5-14.5 0-37.3-2.7-63.2-2.7-26.4 0-37.3 7.2-37.3 16.1 0 9.4 10.3 13.2 26.9 16.1l51.7 9.6c53 9.8 75.9 39.9 75.9 76.9 0 2.7-0.1 5.3-0.3 7.8v0.69999h-0.1c1.1-19.7-11.4-39.3-34.4-38.5-9.9 0.3-55.6 1.9-61.7 2.1-19.7 0.8-46.3-1-57.8-3-13.9-2.4-27.9-5.9-41.5-14.8-18-14.2-27.4-34-27.4-54.6zm263.1 67.8c7.5-0.2 28.8-1 35.1-1.2 6.9-0.2 17.6-5 17.8-17.9v-218c-0.2 0-0.3-0.1-0.5-0.1h-35.3c-28.9 5.9-34.5 26.1-34.5 45.7v209.1c0.1-8.4 6.6-17.3 17.4-17.6zm238.6-18.7c7.2 9.4 18.1 9.6 20.4 9.5 2.1 0 54.3-1.9 56.7-2 3.7-0.1 7.8 1.9 11 6.4l-86.8-140.9c-5.8-1.8-19.8-4.2-30-4.2-31.5 0-49 11.5-67.2 31.2l-86.5 94.4 6.9 10.9c2.9 4 8.9 10.8 20.5 10.3 4.1-0.1 45.9-1.6 49.3-1.7 10.8-0.4 17.6 4.2 21.8 9.7l-15.4-23.2 59.4-62.9zm222.2-122.6c-5.8-3.1-18.7-6.6-28.9-6.7-0.8-0.1-1.5-0.1-2.2-0.1-17.8 0.1-40.7 4.9-55.5 40.2l-44.2 104.3c0.1-0.1 2.9-8.1 11.5-8.5 0 0 43.5-1.5 46.8-1.6 14.2-0.49999 19.9-10.3 21.3-13.4l51.2-114.1z" enable-background="new    " fill="url(#linearGradient6303)" opacity=".35"/></g><g transform="matrix(.45226 0 0 .45226 -505.84 626.17)" fill="#3e8f00"><path d="m2034.6 153.8v184.7c0 8.1-4.1 12.6-16.7 12.6-5.7 0-11-0.8-15.1-1.6v-85h-105.4v74.1c0 8.1-4.1 12.6-16.7 12.6-6.1 0-12.2-0.8-15.1-1.6v-184.8c0-7.8 4.1-12.6 17.1-12.6 5.7 0 11.3 0.8 14.6 1.6v82.2h104.9v-71.2c0-7.8 4.5-12.6 17.5-12.6 6 0 11.6 0.8 14.9 1.6"/><path d="m2250.8 251.4c0 55.4-38.7 97.3-99.3 97.3h-56.5c-12.2 0-16.7-4.9-16.7-12.6v-168.9c0-7.7 4.5-12.6 16.7-12.6h56.5c60.6 0 99.3 41.5 99.3 96.8m-32.2 0c0-41.5-26-68.4-67.1-68.4h-41.5v137.1h41.5c41.1 0.1 67.1-26.8 67.1-68.7"/></g><g transform="matrix(.52878 0 0 .52878 -8847.2 -1797.7)" fill="#fff" stroke-width="12.598"><path d="m17071 4334.7v127.11c0 9.3249-5.397 15.216-21.589 15.216-6.879 0-14.735-0.9763-18.65-1.9632v-134.98c0-47.119-23.071-69.696-57.924-69.696-26.988 0-56.432 18.65-68.226 40.746v150.67c0 9.3249-5.386 15.216-21.589 15.216-6.867 0-14.722-0.9763-18.65-1.9632v-236.07c3.927-0.9864 11.782-1.9632 18.65-1.9632 16.203 0 21.589 5.8912 21.589 15.216v20.12c17.18-21.108 43.202-37.794 78.045-37.794 48.106 0 88.346 30.433 88.346 100.13"/><path d="m17279 4406.2v-44.661c-67.732-4.9035-124.18 3.9276-124.18 44.661 0 20.614 17.18 39.263 48.094 39.263 31.421 0 58.901-15.71 76.081-39.263m40.239-82.454v151.16c-3.916 0.9864-11.277 1.9633-18.156 1.9633-14.722 0-21.602-5.3973-21.602-15.216v-20.614c-21.095 24.058-48.588 38.288-83.43 38.288-52.516 0-81.479-34.36-81.479-71.66 0-56.938 60.865-81.96 164.43-75.093v-8.3488c0-38.769-11.782-54.963-56.444-54.963-18.65 0-43.685 5.3975-56.938 8.8312-7.855 1.9633-13.734 3.9276-18.637 3.9276-11.301 0-18.662-9.8189-14.735-30.433 24.058-8.8312 58.901-17.169 92.273-17.169 69.202 0 94.719 30.914 94.719 89.322"/><path d="m17523 4463.2c-20.614 9.8188-44.179 16.204-67.732 16.204-46.625 0-74.599-27.493-74.599-73.13v-202.7c0-10.313 5.891-17.191 21.589-17.191 6.879 0 14.734 1.48 18.65 2.4566v51.046h91.779c0.494 3.4337 1.47 10.313 1.47 16.204 0 14.228-5.88 19.131-14.711 19.131h-78.538v128.11c0 27.481 12.77 40.733 38.781 40.733 23.554 0 36.807-10.301 48.095-10.301 11.782 0 17.673 9.8072 15.215 29.445"/><path d="m17760 4238.9v236.07c-3.928 0.9864-11.783 1.9633-18.65 1.9633-16.192 0-21.589-5.8912-21.589-15.216v-20.12c-17.18 21.108-43.191 37.794-78.045 37.794-48.107 0-88.346-30.433-88.346-100.13v-127.11c0-9.3248 5.397-15.216 21.602-15.216 6.867 0 14.722 0.9764 18.637 1.9633v134.98c0 47.119 23.084 69.696 57.926 69.696 26.987 0 56.444-18.65 68.226-40.733v-150.68c0-9.3249 5.397-15.216 21.589-15.216 6.867 0 14.722 0.9764 18.65 1.9633"/><path d="m17967 4256.6c0 16.204-6.867 19.638-23.553 19.638-33.866 0-62.335 15.698-79.997 52.503v133.02c0 9.8188-5.41 15.216-21.602 15.216-6.879 0-14.722-0.9864-18.662-1.9633v-236.07c3.94-0.9864 11.783-1.9766 18.662-1.9766 16.192 0 21.602 5.8912 21.602 15.216v32.89c23.059-34.842 57.901-52.516 101.59-46.625 0.494 3.4336 1.964 10.795 1.964 18.156"/><path d="m18022 4340.1h144.79c-1.481-40.239-27.492-71.66-69.202-71.66-36.324 0-69.213 25.035-75.587 71.66m182.57 31.408h-182.57c5.398 45.649 36.807 71.166 83.431 71.166 20.12 0 35.83-3.9156 50.552-8.8312 10.312-3.4336 14.734-4.9033 18.661-4.9033 11.289 0 18.65 9.3249 16.686 30.914-21.108 9.3248-53.504 19.638-87.37 19.638-73.622 0-123.19-49.564-123.19-123.19 0-70.684 52.516-121.73 116.82-121.73 72.635 0 108.46 56.444 108.46 113.38 0 6.8672-0.494 15.216-1.482 23.553"/></g><path d="m1e-3 360v198.28c0-2.6222 0.876-22.178 14.176-24.978l821.12-73.98c7.496-1.6 14.699-9.5549 14.699-24.31v-75.006z" fill="url(#linearGradient6305)" opacity=".3" stop-color="#000000" style="font-variation-settings:normal"/></svg>
