<?xml version="1.0" encoding="UTF-8"?>
<!-- Generator: Adobe Illustrator 21.1.0, SVG Export Plug-In . SVG Version: 6.00 Build 0)  -->
<svg id="Art" enable-background="new 0 0 713.5 108.7" version="1.1" viewBox="0 0 713.5 108.7" xml:space="preserve" xmlns="http://www.w3.org/2000/svg">
<style type="text/css">
	.st0{fill:#A1A2A2;}
	.st1{opacity:0.8;fill:#FFFFFF;}
	.st2{fill:url(#SVGID_1_);}
	.st3{fill:url(#SVGID_2_);}
	.st4{fill:#FFFFFF;}
	.st5{fill:#AE2C3F;}
	.st6{opacity:0.4;}
</style>
	<path class="st0" d="M16.2,107.7c-8.1,0-13.5-4.8-13.5-12.7V13.7C2.7,5.8,8.1,1,16.2,1h681.2c8.1,0,13.5,4.8,13.5,12.7v81.4   c0,7.9-5.5,12.7-13.5,12.7H16.2z M697.9,108.7c12,0,15.6-7.4,15.6-14.9v-79c0-7.4-3.6-14.9-15.6-14.9L15.6,0C3.6,0,0,7.4,0,14.9   l0,79c0,7.4,3.6,14.9,15.6,14.9H697.9z"/>
		<linearGradient id="SVGID_1_" x1="-3739.1" x2="-3739.1" y1="2.2904" y2="106.31" gradientTransform="matrix(-1 0 0 1 -3382.4 0)" gradientUnits="userSpaceOnUse">
		<stop stop-color="#868685" offset="0"/>
		<stop stop-color="#D8D9D9" offset=".020448"/>
		<stop stop-color="#F5F5F5" offset=".052404"/>
		<stop stop-color="#EDEEEE" offset=".4877"/>
		<stop stop-color="#F5F5F5" offset=".8955"/>
		<stop stop-color="#EBEBEC" offset=".9294"/>
		<stop stop-color="#D8D9D9" offset=".9643"/>
		<stop stop-color="#868685" offset="1"/>
	</linearGradient>
	<path class="st2" d="m15 105.5c-8.1 0-11-4.8-11-12.7v-76.9c0-8 2.9-12.7 11-12.7h683.6c8.1 0 10.9 4.8 10.9 12.7v76.9c0 7.9-2.9 12.7-10.9 12.7h-683.6z"/>
		<linearGradient id="SVGID_2_" x1="378.45" x2="378.45" y1="105.52" y2="3.2173" gradientUnits="userSpaceOnUse">
			<stop stop-color="#820021" offset="0"/>
			<stop stop-color="#AE2C3F" offset=".1044"/>
			<stop stop-color="#AE2C3F" offset=".9017"/>
			<stop stop-color="#BA3C4C" offset="1"/>
		</linearGradient>
		<rect class="st3" x="192.3" y="3.2" width="372.3" height="102.3"/>
		<path class="st4" d="m242.8 86.7c-4.5 0-8.7-0.8-12.6-2.4-3.8-1.6-7.2-3.9-10-6.8s-5-6.3-6.6-10.3-2.4-8.3-2.4-12.9c0-4.5 0.8-8.7 2.4-12.6s3.8-7.3 6.6-10.2 6.1-5.1 10-6.8c3.8-1.6 8-2.4 12.6-2.4 3.3 0 6.4 0.4 9.5 1.1s5.9 1.6 8.5 2.7c0.6 8.5-1.5 12.8-6.2 12.8-0.8 0-1.6-0.1-2.3-0.3s-1.5-0.4-2.3-0.6-1.8-0.4-2.8-0.6-2.2-0.3-3.6-0.3c-2.2 0-4.3 0.4-6.3 1.2s-3.7 2-5.1 3.5-2.6 3.3-3.4 5.4-1.2 4.5-1.2 7.1c0 2.8 0.4 5.2 1.2 7.4s2 4 3.4 5.5 3.1 2.7 5.1 3.5 4.1 1.2 6.3 1.2c1.4 0 2.6-0.1 3.7-0.3s2.1-0.4 2.9-0.6 1.7-0.4 2.4-0.6 1.6-0.3 2.4-0.3c4.7 0 6.7 4.3 6.2 12.8-2.6 1.1-5.5 2-8.8 2.7-3.1 0.7-6.3 1.1-9.6 1.1z"/>
		<path class="st4" d="m275.9 85.9c-1.3 0-2.7-0.1-4-0.2s-2.4-0.3-3.3-0.5v-55.6c0-1.9 0.6-3.4 1.7-4.8 1.1-1.3 3.3-2 6.5-2 1.3 0 2.7 0.1 4 0.2s2.4 0.3 3.3 0.5v55.6c0 1.9-0.6 3.4-1.7 4.8-1.2 1.4-3.4 2-6.5 2z"/>
		<path class="st4" d="m302.1 85.9c-1.3 0-2.5-0.1-3.7-0.2s-2.2-0.3-3.1-0.5v-61.1c1-0.3 2.2-0.6 3.7-0.8s2.8-0.3 3.9-0.3c3.5 0 6.1 0.4 7.7 1.3s2.9 2.2 4 3.9l21.7 34.3v-33.4c0-0.8 0.1-1.6 0.3-2.4 0.2-0.7 0.6-1.4 1.1-2s1.3-1 2.3-1.3 2.2-0.5 3.6-0.5c1.3 0 2.5 0.1 3.7 0.2s2.2 0.3 3 0.4v61.3c-0.9 0.4-2 0.8-3.3 0.9-1.3 0.2-2.5 0.2-3.7 0.2-3 0-5.2-0.4-6.7-1.2s-2.7-2-3.6-3.5l-23.2-37.2v35.6c0 1.8-0.5 3.3-1.6 4.5s-3.1 1.8-6.1 1.8z"/>
		<path class="st4" d="m370.1 85.5c-1.8 0-3.2-0.2-4.4-0.6-1.1-0.4-2-0.9-2.6-1.6s-1-1.5-1.2-2.4c-0.2-1-0.3-2-0.3-3.1v-47c0-1.1 0.1-2.1 0.3-3.1s0.6-1.8 1.2-2.4c0.6-0.7 1.5-1.2 2.6-1.6s2.6-0.6 4.4-0.6h31.7c0.1 0.7 0.3 1.7 0.4 2.9s0.2 2.5 0.2 3.7c0 2.7-0.5 4.6-1.6 5.7s-2.5 1.7-4.1 1.7h-19.5v11h22.5c0.1 0.6 0.3 1.5 0.4 2.5 0.1 1.1 0.2 2.2 0.2 3.4 0 2.6-0.5 4.3-1.5 5.2s-2.3 1.4-3.8 1.4h-17.7v10.9h25.7c0.1 0.7 0.3 1.7 0.4 2.9 0.1 1.3 0.2 2.5 0.2 3.7 0 2.8-0.5 4.7-1.6 5.8s-2.5 1.6-4.1 1.6h-27.8z"/>
		<path class="st4" d="m416.2 85.9c-1.5 0-2.8-0.1-3.9-0.4s-2.1-0.6-2.9-1l5.9-59.8c1.2-0.5 2.8-0.9 4.8-1.2s3.7-0.5 5.1-0.5c2 0 3.7 0.1 5.1 0.4s2.7 0.7 3.7 1.3 1.8 1.5 2.4 2.5c0.6 1.1 1.1 2.4 1.4 4l2.5 11.6c0.7 3.2 1.5 6.7 2.3 10.6s1.5 7.9 2.2 12h0.4c0.7-4.1 1.4-8.1 2.2-11.9s1.6-7.4 2.4-10.6l3.1-12.2c0.8-3 2-5.1 3.7-6.1 1.7-1.1 4.3-1.6 7.9-1.6 1.8 0 3.6 0.1 5.4 0.4s3.3 0.6 4.5 0.9l5.6 60.2c-0.9 0.3-2 0.6-3.2 1-1.2 0.3-2.6 0.5-4.1 0.5-2 0-3.8-0.4-5.2-1.1s-2.2-2-2.3-3.9l-1.4-20.7c-0.3-3.7-0.6-7.5-0.8-11.5s-0.4-7.8-0.4-11.4h-0.2c-0.8 3.3-1.7 6.9-2.5 10.8-0.9 3.9-1.7 7.4-2.6 10.7l-3.9 16.3c-1 3.8-4 5.8-9.1 5.8-1.3 0-2.6-0.1-3.9-0.4s-2.5-0.5-3.4-0.9l-4.9-20.4c-1-3.8-1.9-7.5-2.7-11.1s-1.6-7.3-2.3-10.9h-0.3c-0.2 5.1-0.4 9.8-0.8 14.1-0.3 4.3-0.6 7.9-0.9 11l-1.8 18.6c-0.1 1.9-0.8 3.1-2.1 3.8-1.3 0.8-3 1.1-5 1.1z"/>
		<path class="st4" d="m491.6 86.1c-1.2 0-2.6-0.1-4.2-0.3s-2.9-0.5-3.9-0.9l20-60.9c1.7-0.4 3.5-0.8 5.2-1 1.8-0.2 3.4-0.3 4.9-0.3 2.1 0 3.9 0.2 5.4 0.5s2.8 0.8 3.8 1.4 1.9 1.5 2.5 2.5c0.7 1.1 1.2 2.3 1.7 3.7l17 53.9c-1.1 0.4-2.4 0.8-3.9 1s-3 0.3-4.5 0.3c-1.7 0-3.3-0.3-4.8-0.8-1.6-0.5-2.7-1.8-3.4-3.7l-3.3-9.9h-20.9l-2.8 9.3c-0.7 2.2-1.9 3.7-3.5 4.2-1.7 0.7-3.4 1-5.3 1zm15-26.4h14.3l-7.1-23.5-7.2 23.5z"/>
	<path class="st5" d="m125.3 97.7c1.2 0.6 3.7 1.4 6.8 1.4 5.3 0.1 8.2-1.9 10.4-6.7l28.5-63.7c-1.2-0.6-3.8-1.3-5.9-1.4-3.7-0.1-8.6 0.7-11.8 8.2l-9.3 21.8-18.1-29.6c-1.2-0.4-4-0.9-6.1-0.9-6.4 0-10 2.4-13.7 6.4l-17.7 19.4 14.2 22.3c2.6 4.1 6.1 6.1 11.7 6.1 3.7 0 6.7-0.8 8.1-1.5l-17.1-25.8 12.2-12.7 19.9 31.2-12.1 25.5zm-37.5-24.1c0 4.7-1.8 7.4-11 7.4-1.2 0-2.3-0.1-3.3-0.2v-62.4c0-4.7 1.6-9.7 10.9-9.7 1.2 0 2.3 0.1 3.4 0.3v64.6zm-19-9.4c0 8.8-5.7 15.2-17.4 16.4-8.4 0.9-20.6-0.2-26.4-0.8-0.2-0.9-0.4-2.1-0.4-3 0-7.7 4.1-9.4 8-9.4 4 0 10.4 0.7 15.1 0.7 5.2 0 6.8-1.8 6.8-3.4 0-2.2-2.1-3.1-6.1-3.9l-11-2.1c-9.2-1.8-14.1-8.1-14.1-14.8 0-8.2 5.8-15.1 17.2-16.3 8.6-0.9 19.1 0.1 24.9 0.8 0.2 1 0.3 1.9 0.3 3 0 7.6-4 9.3-7.9 9.3-3 0-7.6-0.6-12.9-0.6-5.4 0-7.6 1.5-7.6 3.3 0 1.9 2.1 2.7 5.5 3.3l10.5 2c10.9 1.7 15.5 7.9 15.5 15.5z"/>
		<path class="st5" d="m609.5 80.4c-1.1 0-2.1 0-3.1-0.1s-1.9-0.2-2.6-0.3v-18.9h-17.5c-0.1-0.6-0.3-1.4-0.4-2.3s-0.2-1.9-0.2-3c0-2.5 0.5-4.2 1.5-5.1 1-1 2.3-1.5 3.8-1.5h12.8v-13.5c0-1.5 0.4-2.7 1.3-3.7s2.6-1.5 5-1.5c1.1 0 2.1 0 3.1 0.1s1.9 0.2 2.6 0.3v18.2h17.7c0.1 0.6 0.3 1.4 0.4 2.3s0.2 1.9 0.2 3c0 2.5-0.5 4.2-1.5 5.1-1 1-2.3 1.5-3.8 1.5h-13v14.1c0 1.5-0.4 2.7-1.3 3.7-0.8 1.1-2.5 1.6-5 1.6z"/>
		<path class="st5" d="m661.7 87.3c-1.4 0-2.8-0.1-4.2-0.2s-2.5-0.3-3.5-0.5l-0.1-47.3-11 5c-0.5-0.7-1.1-1.4-1.7-2.2s-1.1-1.8-1.6-3-0.7-2.4-0.7-3.6c0-1.6 0.4-3 1.3-4.1s2.1-2.1 3.6-2.8l14.7-7h11.8l0.1 58.7c0 1.9-0.6 3.6-1.8 5-1.3 1.3-3.6 2-6.9 2z"/>
	<g class="st6">
			<path class="st4" d="m699.7 81.5c6.9 6.9 7.9 13.3 8.1 14.8 0.7 0 0.9-3 0.9-7.6v-72.6c0-8.4-2.7-11.3-9.9-11.3-2.4 0-4.8 1.3-8 1.3h-668.1c-3.2 0-5.6-1.3-8-1.3-7.1 0-9.9 2.8-9.9 11.3v72.6c0 4.5 0.3 7.6 0.9 7.6 0.2-1.4 0.5-8.4 8.1-14.8 61.3-47.2 619.8-61.7 685.9 0z"/>
	</g>
</svg>
