<svg width="1340" height="820" version="1.1" viewBox="0 0 354.54 216.96" xmlns="http://www.w3.org/2000/svg">
 <path d="m-7.3425e-4 0h354.54v216.96h-354.54z" fill="#fff" style="paint-order:stroke fill markers"/>
 <path d="m-7.4105e-4 105.83h354.54v111.13h-354.54z" fill="#003560" style="paint-order:stroke fill markers"/>
 <path d="m148.27 64.977c0 8.9731-5.865 15.531-17.77 16.828-8.6278 0.9248-21.118-0.1666-27.047-0.8497-0.2208-0.9682-0.3919-2.1734-0.3919-3.1208 0-7.8548 4.2438-9.6455 8.2142-9.6455 4.1252 0 10.627 0.7149 15.465 0.7149 5.311 0 6.9345-1.807 6.9345-3.5235 0-2.2539-2.1478-3.1902-6.2739-3.9812l-11.294-2.1734c-9.4023-1.8024-14.418-8.3116-14.418-15.217 0-8.3952 5.9377-15.424 17.614-16.717 8.8298-0.9558 19.573 0.1231 25.47 0.8466 0.2175 1.0146 0.3299 1.972 0.3299 3.0263 0 7.8282-4.1252 9.5168-8.1008 9.5168-3.0563 0-7.7941-0.5724-13.203-0.5724-5.5094 0-7.7941 1.525-7.7941 3.3831 0 1.9557 2.1765 2.7674 5.6257 3.3707l10.796 2.0045c11.091 2.0464 15.843 8.3511 15.843 16.109m19.377 9.6346c0 4.8152-1.8899 7.5904-11.276 7.5904-1.2439 0-2.3329-0.092-3.3754-0.2417v-63.858c0-4.8494 1.6475-9.9087 11.132-9.9087 1.1936 0 2.398 0.123 3.5188 0.3571v66.06m38.382 24.704c1.2292 0.6289 3.7605 1.3934 6.943 1.4794 5.4449 0.1178 8.4232-1.9751 10.628-6.8594l29.254-65.303c-1.206-0.6506-3.8759-1.3717-6.0684-1.4228-3.7581-0.07-8.805 0.7025-12.036 8.4052l-9.4727 22.377-18.578-30.286c-1.1982-0.3679-4.1228-0.8954-6.273-0.8954-6.548 0-10.219 2.4204-14.023 6.5494l-18.062 19.771 14.528 22.885c2.6846 4.1694 6.2242 6.2948 11.971 6.2948 3.7572 0 6.8856-0.8559 8.3349-1.5498l-17.492-26.398 12.396-13.146 20.339 31.944-12.388 26.156" fill="#003560" stroke-width="2.9438"/>
 <g transform="matrix(2.7224 0 0 2.7224 -97.33 125.18)" fill="#fff">
  <path d="m56.132 14.56h3.472l-1.732-5.68-1.74 5.68m-3.621 6.38c-0.293 0-0.63-0.02-1.008-0.08-0.379-0.05-0.694-0.13-0.94-0.22l4.815-14.71c0.419-0.11 0.842-0.19 1.269-0.23 0.425-0.05 0.817-0.07 1.173-0.07 0.513 0 0.951 0.04 1.316 0.11 0.364 0.08 0.671 0.2 0.918 0.35 0.249 0.16 0.455 0.36 0.617 0.62 0.164 0.25 0.298 0.55 0.408 0.89l4.128 13.02c-0.263 0.11-0.581 0.19-0.951 0.24-0.373 0.06-0.738 0.08-1.091 0.08-0.403 0-0.795-0.06-1.173-0.19-0.379-0.14-0.655-0.43-0.825-0.9l-0.79-2.39h-5.059l-0.672 2.25c-0.17 0.54-0.455 0.88-0.858 1.02-0.402 0.14-0.827 0.21-1.277 0.21"/>
  <path d="m69.358 20.9c-0.326 0-0.646-0.02-0.962-0.05-0.317-0.03-0.586-0.07-0.8-0.11v-11.63h-4.388c-0.03-0.19-0.066-0.4-0.104-0.65s-0.058-0.54-0.058-0.86c0-0.71 0.143-1.2 0.431-1.47 0.285-0.27 0.644-0.41 1.077-0.41h11.117c0.0297 0.18 0.0626 0.4 0.0928 0.65 0.0301 0.25 0.0466 0.54 0.0466 0.86 0 1.25-0.5043 1.88-1.5102 1.88h-2.9462v10.16c0 0.45-0.14 0.84-0.417 1.15-0.279 0.32-0.806 0.48-1.579 0.48"/>
  <path d="m79.316 20.8c-0.433 0-0.7866-0.04-1.0552-0.14-0.2713-0.09-0.4796-0.21-0.6276-0.38-0.148-0.16-0.2467-0.36-0.3015-0.59s-0.0823-0.48-0.0823-0.74v-11.65c0-0.45 0.1398-0.83 0.4194-1.15 0.2768-0.32 0.803-0.47 1.5787-0.47 0.3234 0 0.6441 0.01 0.962 0.04 0.318 0.03 0.5838 0.07 0.8003 0.12v11.58h6.6602c0.0302 0.18 0.0658 0.4 0.1042 0.65 0.0383 0.24 0.0575 0.53 0.0575 0.85 0 0.73-0.1507 1.23-0.4522 1.49s-0.7154 0.39-1.2416 0.39h-6.8219"/>
  <path d="m94.257 14.56h3.472l-1.732-5.68-1.74 5.68m-3.621 6.38c-0.2933 0-0.6304-0.02-1.0086-0.08-0.3783-0.05-0.6935-0.13-0.9401-0.22l4.8157-14.71c0.419-0.11 0.841-0.19 1.269-0.23 0.425-0.05 0.817-0.07 1.173-0.07 0.512 0 0.951 0.04 1.316 0.11 0.364 0.08 0.671 0.2 0.918 0.35 0.249 0.16 0.455 0.36 0.616 0.62 0.165 0.25 0.299 0.55 0.409 0.89l4.127 13.02c-0.263 0.11-0.581 0.19-0.951 0.24-0.372 0.06-0.737 0.08-1.09 0.08-0.403 0-0.795-0.06-1.174-0.19-0.378-0.14-0.655-0.43-0.825-0.9l-0.789-2.39h-5.059l-0.6719 2.25c-0.1699 0.54-0.455 0.88-0.8579 1.02s-0.8277 0.21-1.2772 0.21"/>
  <path d="m106.47 20.9c-0.309 0-0.611-0.02-0.904-0.05s-0.543-0.07-0.743-0.11v-14.79c0.233-0.08 0.535-0.14 0.905-0.2 0.372-0.05 0.688-0.08 0.951-0.08 0.849 0 1.469 0.11 1.855 0.33 0.389 0.21 0.713 0.53 0.976 0.95l5.268 8.28v-8.07c0-0.2 0.027-0.39 0.082-0.57 0.052-0.18 0.145-0.34 0.277-0.47 0.131-0.14 0.315-0.25 0.545-0.33 0.233-0.08 0.527-0.12 0.883-0.12 0.31 0 0.606 0.02 0.893 0.05 0.285 0.03 0.529 0.06 0.732 0.09v14.81c-0.216 0.11-0.48 0.18-0.789 0.22-0.31 0.04-0.611 0.06-0.905 0.06-0.729 0-1.269-0.1-1.625-0.3s-0.65-0.48-0.883-0.84l-5.637-9v8.61c0 0.43-0.132 0.79-0.395 1.09-0.263 0.29-0.759 0.44-1.486 0.44"/>
  <path d="m125.97 20.9c-0.326 0-0.647-0.02-0.962-0.05-0.318-0.03-0.587-0.07-0.801-0.11v-11.63h-4.388c-0.03-0.19-0.065-0.4-0.104-0.65-0.038-0.25-0.057-0.54-0.057-0.86 0-0.71 0.142-1.2 0.43-1.47 0.285-0.27 0.644-0.41 1.077-0.41h11.117c0.03 0.18 0.06 0.4 0.093 0.65 0.03 0.25 0.047 0.54 0.047 0.86 0 1.25-0.505 1.88-1.511 1.88h-2.946v10.16c0 0.45-0.14 0.84-0.417 1.15-0.279 0.32-0.805 0.48-1.578 0.48"/>
  <path d="m135.6 20.9c-0.326 0-0.647-0.02-0.962-0.05-0.318-0.03-0.587-0.07-0.801-0.11v-13.44c0-0.45 0.137-0.83 0.417-1.15s0.803-0.48 1.579-0.48c0.323 0 0.644 0.02 0.962 0.05s0.583 0.07 0.8 0.12v13.43c0 0.45-0.14 0.84-0.417 1.15-0.279 0.32-0.805 0.48-1.578 0.48"/>
  <path d="m146.67 21.08c-1.099 0-2.113-0.19-3.039-0.59-0.93-0.39-1.735-0.94-2.415-1.64-0.68-0.69-1.214-1.52-1.601-2.48-0.386-0.96-0.581-1.99-0.581-3.11 0-1.08 0.195-2.09 0.581-3.04 0.387-0.94 0.921-1.76 1.601-2.46 0.68-0.69 1.485-1.24 2.415-1.63 0.926-0.4 1.94-0.6 3.039-0.6 0.789 0 1.554 0.09 2.297 0.26s1.431 0.39 2.066 0.65c0.14 2.06-0.364 3.09-1.51 3.09-0.2 0-0.386-0.03-0.556-0.07-0.17-0.05-0.356-0.1-0.557-0.14-0.202-0.05-0.424-0.1-0.674-0.14-0.246-0.05-0.54-0.07-0.88-0.07-0.542 0-1.052 0.09-1.532 0.29-0.479 0.19-0.893 0.47-1.241 0.83-0.348 0.37-0.622 0.81-0.825 1.32-0.2 0.5-0.302 1.08-0.302 1.71 0 0.67 0.102 1.26 0.302 1.79 0.203 0.53 0.477 0.97 0.825 1.34 0.348 0.36 0.762 0.64 1.241 0.83 0.48 0.19 0.99 0.29 1.532 0.29 0.34 0 0.642-0.02 0.905-0.07s0.499-0.09 0.707-0.14 0.406-0.09 0.592-0.14 0.378-0.07 0.581-0.07c1.129 0 1.631 1.03 1.508 3.09-0.634 0.26-1.343 0.48-2.125 0.65-0.781 0.17-1.565 0.25-2.354 0.25"/>
 </g>
</svg>
