<svg id="c" version="1.1" viewBox="0 0 13641 2236.6" xml:space="preserve" xmlns="http://www.w3.org/2000/svg"><defs id="d">
		<linearGradient id="b" x1="3184.2" x2="3195.9" y1="1638.1" y2="1638.1" gradientTransform="matrix(0 182.48 -182.48 0 304648 -580993)" gradientUnits="userSpaceOnUse">
		<stop id="e" stop-color="#868685" offset="0"/>
		<stop id="f" stop-color="#D8D9D9" offset=".020448"/>
		<stop id="g" stop-color="#F5F5F5" offset=".052404"/>
		<stop id="h" stop-color="#EDEEEE" offset=".4877"/>
		<stop id="i" stop-color="#F5F5F5" offset=".8955"/>
		<stop id="j" stop-color="#EBEBEC" offset=".9294"/>
		<stop id="k" stop-color="#D8D9D9" offset=".9643"/>
		<stop id="l" stop-color="#868685" offset="1"/>
	</linearGradient>
		<linearGradient id="a" x1="7679.3" x2="7679.3" y1="1264.1" y2="-840.08" gradientTransform="matrix(1 0 0 -1 0 1329.7)" gradientUnits="userSpaceOnUse">
		<stop id="m" stop-color="#10B4E9" offset="0"/>
		<stop id="n" stop-color="#0FA0D8" offset=".1079"/>
		<stop id="o" stop-color="#0D6DAB" offset=".3273"/>
		<stop id="p" stop-color="#0B4E90" offset=".4491"/>
		<stop id="q" stop-color="#174381" offset=".748"/>
		<stop id="r" stop-color="#233871" offset="1"/>
	</linearGradient>
</defs>
<style id="s" type="text/css">
	.st0{fill:url(#b);}
	.st1{fill:#A1A2A2;}
	.st2{fill:url(#a);}
	.st3{fill:#4C4E50;}
	.st4{fill:#FFFFFF;}
	.st5{opacity:0.4;fill:#FFFFFF;enable-background:new    ;}
</style>
<g id="t"><g id="u"><path id="v" class="st0" d="m307.1 65.6c-166.5 0-225.1 98.5-225.1 260.2v1582.5c0 162.9 58.6 260.2 225.1 260.2l13017 1.2c166.5 0 225.1-98.5 225.1-260.2v-1582.4c0-162.9-58.6-260.2-225.1-260.2 0-0.1-13017-1.3-13017-1.3z" fill="url(#b)"/><path id="w" class="st1" d="m13320 2236.6c246.2 0 321.2-153.6 321.2-306v-1624.6c0-153.6-75-306-321.2-306h-12999c-246.2 0-321.2 153.6-321.2 306v1623.5c0 153.6 75 306 321.2 306zm-12987-21.1c-165.3 0-277.8-97.3-277.8-260.2v-1674c0-162.9 112.5-260.2 277.8-260.2h12977c165.3 0 277.8 97.3 277.8 260.2v1673.9c0 162.9-112.5 260.2-277.8 260.2-1.1 0.1-12977 0.1-12977 0.1z" fill="#a1a2a2"/><path id="x" class="st3" d="m1421.9 1319.9c0 180.5-117.2 311.8-356.4 337.6-173.5 18.8-424.3-3.5-542.7-17.6-4.7-19.9-8.2-43.4-8.2-62.1 0-157.1 85.6-193.4 165.3-193.4 83.2 0 213.3 14.1 310.6 14.1 106.7 0 139.5-36.3 139.5-70.3 0-45.7-43.4-64.5-125.4-79.7l-226.2-43.4c-191.1-37.5-291.9-167.6-291.9-306 0-168.8 119.6-309.5 354-335.3 177-18.8 392.7 2.3 511.1 17.6 4.7 19.9 7 39.9 7 61 0 157.1-83.2 191.1-162.9 191.1-61 0-157.1-11.7-264.9-11.7-110.2 0-157.1 30.5-157.1 68 0 39.9 43.4 55.1 112.5 68l216.9 39.9c222.7 39.7 318.8 166.3 318.8 322.2m389.2 193.5c0 96.1-37.5 152.4-226.2 152.4-24.6 0-46.9-2.3-68-4.7v-1282.5c0-97.3 32.8-199.3 223.9-199.3 23.4 0 48.1 2.3 70.3 7zm770.2 495.8c24.6 12.9 75 28.1 139.5 29.3 109 2.3 168.8-39.9 213.3-137.2l587.3-1310.6c-24.6-12.9-77.4-27-121.9-28.1-75-1.2-177 14.1-241.5 168.8l-189.9 449-372.8-607.2c-24.6-7-83.2-17.6-125.4-17.6-131.3 0-205.1 48.1-281.3 131.3l-362.2 396.2 289.5 458.3c53.9 83.2 125.4 126.6 240.3 126.6 75 0 138.3-17.6 167.6-31.7l-351.7-529.8 248.5-263.8 407.9 641.2z" fill="#4c4e50"/><g id="y"><path id="z" class="st2" d="m3955.1 65.6v2104.2h7433.5v-2102.9h14.8-7448.3z" fill="url(#a)"/><g id="aa" fill="#fff">
		<path id="ab" class="st4" d="m4862.2 1788.6c-68.5 0-144.3-5.9-227.3-17.8s-164.1-30.9-243.1-57.3c-2.7-72.5 5.9-132.1 25.7-178.9s57.3-70.2 112.7-70.2c21.1 0 43.8 2.3 68.2 6.9s51.1 9.6 80.1 14.8c29 5.3 60 10.2 92.9 14.8s68.5 6.9 106.7 6.9c64.6 0 111.7-10.2 141.3-30.6s44.5-47.1 44.5-80.1c0-30.3-14.5-53.4-43.5-69.2s-67.9-30.9-116.6-45.5l-150.2-39.5c-68.5-18.4-126.2-41.5-173-69.2s-84.3-58.6-112.7-92.9c-28.4-34.2-48.8-70.8-61.3-109.7s-18.8-79.4-18.8-121.6c0-43.5 7.6-88.3 22.7-134.4s41.8-88 80.1-125.5c38.2-37.6 89.6-68.5 154.2-92.9s146.9-36.6 247.1-36.6c68.5 0 138.4 5.9 209.5 17.8 71.2 11.9 145.6 31 223.4 57.3 4 72.5-4 131.1-23.7 175.9-19.8 44.8-56.7 67.2-110.7 67.2-21.1 0-42.2-2-63.3-5.9-21.1-4-43.8-7.9-68.2-11.9s-51.4-7.9-81.1-11.9c-29.6-4-63.6-5.9-101.8-5.9-71.2 0-119.6 10.6-145.3 31.6-25.7 21.1-38.5 43.5-38.5 67.2 0 25 11.2 45.5 33.6 61.3s63.3 31 122.6 45.5l166 43.5c250.4 65.9 375.6 195 375.6 387.4 0 60.6-9.9 116-29.6 166-19.8 50.1-51.1 93.2-93.9 129.5s-97.5 64.2-164.1 84c-66.6 20-146.7 29.9-240.2 29.9z"/>
		<path id="ac" class="st4" d="m5727.9 1766.8c-36.9 0-66.9-4-89.9-11.9-23.1-7.9-40.9-18.8-53.4-32.6s-21.1-30.6-25.7-50.4-6.9-40.8-6.9-63.2v-968.6c0-22.4 2.3-43.5 6.9-63.2 4.6-19.8 13.2-36.6 25.7-50.4s30.3-24.7 53.4-32.6c23-7.9 53-11.9 89.9-11.9h654.3c2.6 14.5 5.3 34.3 7.9 59.3s4 50.7 4 77.1c0 55.3-11.2 94.6-33.6 117.6-22.4 23.1-50.7 34.6-85 34.6h-403.2v225.3h464.5c2.6 13.2 5.3 30.6 7.9 52.4 2.6 21.7 4 45.2 4 70.2 0 52.7-10.6 88.6-31.6 107.7-21.1 19.1-47.4 28.7-79.1 28.7h-365.7v223.4h529.7c2.6 14.5 5.3 34.6 7.9 60.3s4 51.1 4 76.1c0 56.7-11.2 96.2-33.6 118.6s-50.7 33.6-85 33.6h-567.4z"/>
		<path id="ad" class="st4" d="m6769.6 1766.8c-36.9 0-66.9-4-89.9-11.9-23.1-7.9-40.9-18.8-53.4-32.6s-21.1-30.6-25.7-50.4-6.9-40.8-6.9-63.2v-992.3c0-38.2 11.9-70.8 35.6-97.8s68.5-40.5 134.4-40.5c27.7 0 55 1.3 82 4s49.7 5.9 68.2 9.9v986.4h567.3c2.6 15.8 5.6 34.3 8.9 55.4s4.9 45.5 4.9 73.1c0 62-12.8 104.1-38.5 126.5s-61 33.6-105.8 33.6h-581.1z"/>
		<path id="ae" class="st4" d="m7815.3 1766.8c-36.9 0-66.9-4-89.9-11.9-23.1-7.9-40.9-18.8-53.4-32.6s-21.1-30.6-25.7-50.4-6.9-40.8-6.9-63.2v-968.6c0-22.4 2.3-43.5 6.9-63.2 4.6-19.8 13.2-36.6 25.7-50.4s30.3-24.7 53.4-32.6c23-7.9 53-11.9 89.9-11.9h654.3c2.6 14.5 5.3 34.3 7.9 59.3s4 50.7 4 77.1c0 55.3-11.2 94.6-33.6 117.6-22.4 23.1-50.7 34.6-85 34.6h-403.2v225.3h464.5c2.6 13.2 5.3 30.6 7.9 52.4 2.6 21.7 4 45.2 4 70.2 0 52.7-10.6 88.6-31.6 107.7-21.1 19.1-47.4 28.7-79.1 28.7h-365.7v223.4h529.8c2.6 14.5 5.3 34.6 7.9 60.3s4 51.1 4 76.1c0 56.7-11.2 96.2-33.6 118.6s-50.7 33.6-85 33.6h-567.5z"/>
		<path id="af" class="st4" d="m9264.2 1790.6c-93.6 0-179.9-16.8-258.9-50.4-79.1-33.6-147.6-80.1-205.6-139.4s-103.5-129.8-136.4-211.5c-33-81.7-49.4-170-49.4-264.9 0-92.2 16.5-178.5 49.4-258.9s78.4-150.2 136.4-209.5 126.5-105.8 205.6-139.4 165.4-50.4 258.9-50.4c67.2 0 132.4 7.3 195.7 21.7 63.3 14.5 121.9 33 175.9 55.3 11.9 175.3-31 262.9-128.5 262.9-17.1 0-33-2-47.4-5.9-14.5-4-30.3-7.9-47.4-11.9s-36.3-7.9-57.3-11.9c-21.1-4-46.1-5.9-75.1-5.9-46.1 0-89.6 8.2-130.5 24.7s-76.1 40.2-105.8 71.2c-29.6 31-53.1 68.2-70.2 111.7s-25.7 92.3-25.7 146.3c0 56.7 8.6 107.4 25.7 152.2s40.5 82.7 70.2 113.7 64.9 54.7 105.8 71.2c40.8 16.5 84.3 24.7 130.5 24.7 29 0 54.7-2 77.1-5.9 22.4-4 42.5-7.9 60.3-11.9s34.6-7.9 50.4-11.9 32.3-5.9 49.4-5.9c96.2 0 139 87.7 128.5 262.9-54 22.4-114.3 40.9-180.9 55.3-66.6 14.5-133.5 21.8-200.7 21.8z"/>
		<path id="ag" class="st4" d="m10239 1774.7c-27.7 0-55-1.3-82-4s-49.8-5.9-68.2-9.9v-990.2h-373.6c-2.7-15.8-5.6-34.3-8.9-55.4s-5-45.5-5-73.1c0-60.6 12.2-102.4 36.6-125.5 24.4-23 55-34.6 91.9-34.6h946.8c2.6 15.8 5.2 34.3 7.9 55.3 2.6 21.1 4 45.5 4 73.1 0 106.7-42.8 160.1-128.5 160.1h-251v865.8c0 38.2-11.9 70.8-35.6 97.8-23.7 27.2-68.5 40.6-134.4 40.6z"/>
	</g></g><path id="ah" d="m12359 1479.6c21.546-65.756 204.45-132.53 296.91-176.71 279.45-132.53 454.1-227.05 454.1-477.73 0-191.09-140.75-408.89-550.68-408.89-170.54 0-418.14 56.512-536.29 117.12-5.966 161.29 73.957 233.21 146.92 233.21 118.16 0 222.94-66.8 401.71-66.8 134.59 0 205.47 62.7 205.47 134.59 0 127.4-153.07 167.47-340.06 270.21-247.59 136.63-428.41 244.51-428.41 492.11 0 50.324 5.966 117.12 16.402 162.33h912.34c86.296 0 174.65-40.11 174.65-210.61 0-20.502-2.237-48.311-5.22-68.813h-747.93" fill="#4c4e50" stroke-width="86.707"/><path id="ai" class="st5" d="m13339 1676.3c143 140.7 173.5 274.3 178.2 303.6 14.1 0 18.8-62.1 18.8-155.9v-1493.4c0-173.5-56.3-230.9-202.8-230.9-49.2 0-99.6 27-165.3 27h-12700c-65.6 0-116.1-27-165.3-27-146.5 0-202.8 58.6-202.8 230.9v1493.4c0 92.6 4.7 155.9 18.8 155.9 4.7-29.3 9.4-173.5 166.5-303.6 1258.9-970.6 11696-1269.5 13054 0" enable-background="new" fill="#fff" opacity=".4"/></g></g></svg>
