<svg width="1340" height="820" version="1.1" viewBox="0 0 354.54 216.96" xmlns="http://www.w3.org/2000/svg">
 <path d="m-0.0021883 0h354.54v216.96h-354.54z" fill="#fff" style="paint-order:stroke fill markers"/>
 <path d="m-0.0021951 105.83h354.54v58.209h-354.54z" fill="#0070b8" style="paint-order:stroke fill markers"/>
 <path d="m148.27 64.721c0 8.9731-5.865 15.531-17.77 16.828-8.6278 0.9248-21.118-0.1666-27.047-0.8497-0.2208-0.9682-0.3919-2.1734-0.3919-3.1208 0-7.8548 4.2438-9.6455 8.2142-9.6455 4.1252 0 10.627 0.7149 15.465 0.7149 5.311 0 6.9345-1.807 6.9345-3.5235 0-2.2539-2.1478-3.1902-6.2739-3.9812l-11.294-2.1734c-9.4023-1.8024-14.418-8.3116-14.418-15.217 0-8.3952 5.9377-15.424 17.614-16.717 8.8298-0.9558 19.573 0.1231 25.47 0.8466 0.2175 1.0146 0.3299 1.972 0.3299 3.0263 0 7.8282-4.1252 9.5168-8.1008 9.5168-3.0563 0-7.7941-0.5724-13.203-0.5724-5.5094 0-7.7941 1.525-7.7941 3.3831 0 1.9557 2.1765 2.7674 5.6257 3.3707l10.796 2.0045c11.091 2.0464 15.843 8.3511 15.843 16.109m19.377 9.6346c0 4.8152-1.8899 7.5904-11.276 7.5904-1.2439 0-2.3329-0.092-3.3754-0.2417v-63.858c0-4.8494 1.6475-9.9087 11.132-9.9087 1.1936 0 2.398 0.123 3.5188 0.3571v66.06m38.382 24.704c1.2292 0.6289 3.7605 1.3934 6.943 1.4794 5.4449 0.1178 8.4232-1.9751 10.628-6.8594l29.254-65.303c-1.206-0.6506-3.8759-1.3717-6.0684-1.4228-3.7581-0.07-8.805 0.7025-12.036 8.4052l-9.4727 22.377-18.578-30.286c-1.1982-0.3679-4.1228-0.8954-6.273-0.8954-6.548 0-10.219 2.4204-14.023 6.5494l-18.062 19.771 14.528 22.885c2.6846 4.1694 6.2242 6.2948 11.971 6.2948 3.7572 0 6.8856-0.8559 8.3349-1.5498l-17.492-26.398 12.396-13.146 20.339 31.944-12.388 26.156" fill="#2c73c3" stroke-width="2.9438"/>
 <path d="m168.96 184.87v-7.0803c0-1.9099 0.7625-3.1226 4.7201-3.1226 0.49019 0 0.90769 0.027 1.3798 0.1034v23.17c0 1.9243-0.7443 3.1407-4.7201 3.1407-0.472 0-0.8896-0.036-1.3798-0.109v-10.53h-12.309v7.4979c0 1.9243-0.7625 3.1407-4.7202 3.1407-0.49019 0-0.90769-0.036-1.3979-0.109v-23.183c0-1.9099 0.7625-3.1226 4.7202-3.1226 0.49019 0 0.90779 0.027 1.3979 0.1034v10.099h12.309m35.056 2.9592c0-7.8609-5.6642-13.206-15.051-13.206h-6.3904c-3.0681 0-3.7943 1.6085-3.7943 3.729v19.007c0 2.0333 0.7262 3.7036 3.7943 3.7036h6.3904c9.3859 0 15.051-5.3556 15.051-13.235m-19.116 7.5705v-15.123h4.4115c6.1544 0 8.4056 3.9759 8.4056 7.5523 0 3.5946-2.2512 7.5705-8.4056 7.5705h-4.4115" fill="#0071b9" stroke-width="1.8154"/>
 <path d="m169.37 145.52q-1.7188 0-3.0238-0.47745-1.305-0.50927-2.1644-1.3687-0.8594-0.8594-1.305-1.9734-0.44562-1.1459-0.44562-2.3872 0-2.0053 1.0822-3.4694 1.114-1.496 3.3103-2.2281-0.89123-0.98673-1.3687-1.9416-0.47745-0.98673-0.47745-2.1644 0-0.95489 0.38196-1.878 0.38197-0.95489 1.1459-1.6552 0.76393-0.73207 1.9098-1.1777 1.1777-0.44563 2.7692-0.44563 1.6552 0 2.992 0.38197 1.3369 0.35012 2.4509 0.8594 0.0319 0.19097 0.0319 0.38195 0.0319 0.19099 0.0319 0.35013 0 0.92308-0.44562 1.4324-0.41378 0.47745-1.114 0.47745-0.38195 0-0.73209-0.0955-0.35012-0.12732-0.79574-0.25464-0.41378-0.15915-0.98673-0.25464-0.5411-0.12732-1.3368-0.12732-1.5278 0-2.1644 0.70026-0.60475 0.66842-0.60475 1.6551 0 0.70025 0.35012 1.3687 0.35013 0.66842 1.305 1.6233l4.9655 5.0291 2.2281-4.1379q0.28646-0.5411 0.79574-0.76393 0.50928-0.25463 1.114-0.25463 0.44561 0 0.92306 0.12732 0.50928 0.0955 0.85941 0.25463l-3.7878 6.8752 4.7108 4.9018q-0.47745 0.25463-1.114 0.38195-0.6366 0.15915-1.1777 0.15915-0.95489 0-1.496-0.3183-0.54111-0.31829-1.2095-1.0504l-1.4323-1.5597q-0.9549 1.305-2.4509 2.1644-1.4642 0.8594-3.7241 0.8594zm0.15915-3.1193q1.5278 0 2.4509-0.5411 0.9549-0.5411 1.5278-1.4642l-4.9018-4.9973q-2.7374 1.114-2.7374 3.5649 0 0.70025 0.25464 1.3369 0.25464 0.60476 0.70025 1.0822 0.47745 0.47746 1.1459 0.76392 0.70025 0.25464 1.5597 0.25464z" fill="#fff"/>
 <g transform="matrix(1.1616 0 0 1.2739 715.12 -1198.1)" fill="#fff" aria-label="SHOWS">
  <path d="m-444.92 1059.7q-1.96 0-4.28-0.4-2.28-0.4-4.68-1.2 0-0.16-0.04-0.28 0-0.12 0-0.28 0-1.32 0.48-2.12 0.48-0.84 1.56-0.84 0.52 0 1.24 0.16t1.6 0.36q0.92 0.2 2 0.36 1.12 0.16 2.44 0.16 2.76 0 3.92-1 1.2-1 1.2-2.52 0-0.76-0.28-1.28-0.28-0.56-0.8-0.92-0.52-0.4-1.28-0.68-0.72-0.28-1.68-0.56l-3.32-0.92q-3.92-1.08-5.48-3-1.52-1.92-1.52-4.4 0-1.24 0.44-2.52 0.44-1.32 1.52-2.36t2.88-1.72 4.52-0.68q1.84 0 3.92 0.36 2.12 0.36 4.4 1.16v0.56q0 1.36-0.48 2.12-0.44 0.76-1.48 0.76-0.52 0-1.16-0.12-0.6-0.16-1.4-0.28-0.76-0.16-1.76-0.28-1-0.16-2.24-0.16-1.4 0-2.32 0.28-0.92 0.24-1.48 0.68t-0.8 1q-0.24 0.52-0.24 1.08 0 1.32 0.88 2 0.92 0.68 3.24 1.32l3.52 1q7 1.84 7 7.28 0 1.76-0.6 3.2-0.56 1.44-1.8 2.48t-3.12 1.64q-1.88 0.56-4.52 0.56z"/>
  <path d="m-428.72 1059.6q-0.64 0-1.28-0.08-0.6-0.04-0.92-0.12v-24.24q0-0.8 0.48-1.32 0.52-0.56 1.8-0.56 0.64 0 1.24 0.08 0.64 0.04 0.96 0.12v10.92h12.16v-9.24q0-0.8 0.48-1.32 0.52-0.56 1.8-0.56 0.64 0 1.28 0.08 0.64 0.04 0.96 0.12v24.24q0 0.8-0.52 1.36-0.48 0.52-1.76 0.52-0.64 0-1.28-0.08-0.64-0.04-0.96-0.12v-11.12h-12.16v9.44q0 0.8-0.52 1.36-0.48 0.52-1.76 0.52z"/>
  <path d="m-393.23 1059.9q-2.84 0-5.2-1.04-2.36-1.08-4.04-2.92-1.68-1.88-2.64-4.32-0.92-2.48-0.92-5.32 0-2.8 0.92-5.24 0.96-2.48 2.64-4.28t4.04-2.84 5.2-1.04 5.2 1.04 4.04 2.84 2.6 4.24q0.96 2.44 0.96 5.28t-0.96 5.32q-0.92 2.44-2.6 4.32-1.68 1.84-4.04 2.92-2.36 1.04-5.2 1.04zm-0.04-4q1.68 0 3.16-0.72 1.48-0.76 2.6-2.04t1.76-3.04 0.64-3.76-0.64-3.72q-0.6-1.76-1.72-3-1.08-1.28-2.56-2t-3.2-0.72q-1.68 0-3.16 0.72-1.48 0.68-2.6 1.96-1.08 1.24-1.72 2.96t-0.64 3.76q0 2.08 0.6 3.84 0.64 1.76 1.72 3.04 1.12 1.28 2.6 2t3.16 0.72z"/>
  <path d="m-370.85 1059.7q-0.64 0-1.52-0.08-0.84-0.08-1.4-0.28l-5.4-25.48q0.44-0.2 1-0.36 0.6-0.16 1.36-0.16 0.96 0 1.6 0.36t0.84 1.36l2 10.84q0.44 2.44 0.88 5 0.44 2.52 0.76 4.72 0.32-2.24 0.84-4.68t1.2-5.2l2.56-10.52q0.24-1.04 1.08-1.44 0.88-0.44 2.2-0.44t2.4 0.32l2.88 12.08q0.6 2.52 1.12 5.12 0.56 2.56 0.96 4.76 0.16-1.08 0.36-2.36 0.24-1.32 0.48-2.64 0.24-1.36 0.48-2.64t0.44-2.36l1.88-10.68q0.16-0.92 0.76-1.24 0.6-0.36 1.52-0.36 0.68 0 1.24 0.16 0.56 0.12 0.96 0.28l-4.96 23.92q-0.28 1.28-1.12 1.64t-2.16 0.36q-0.6 0-1.4-0.08-0.8-0.04-1.36-0.24l-3.36-13.76q-0.16-0.72-0.36-1.56-0.16-0.88-0.36-1.84-0.16-0.96-0.36-1.96t-0.44-1.92q-0.4 1.92-0.84 3.88-0.4 1.92-0.76 3.4l-2.92 12.08q-0.32 1.24-1.08 1.64-0.72 0.36-2 0.36z"/>
  <path d="m-336.4 1059.7q-1.96 0-4.28-0.4-2.28-0.4-4.68-1.2 0-0.16-0.04-0.28 0-0.12 0-0.28 0-1.32 0.48-2.12 0.48-0.84 1.56-0.84 0.52 0 1.24 0.16t1.6 0.36q0.92 0.2 2 0.36 1.12 0.16 2.44 0.16 2.76 0 3.92-1 1.2-1 1.2-2.52 0-0.76-0.28-1.28-0.28-0.56-0.8-0.92-0.52-0.4-1.28-0.68-0.72-0.28-1.68-0.56l-3.32-0.92q-3.92-1.08-5.48-3-1.52-1.92-1.52-4.4 0-1.24 0.44-2.52 0.44-1.32 1.52-2.36t2.88-1.72 4.52-0.68q1.84 0 3.92 0.36 2.12 0.36 4.4 1.16v0.56q0 1.36-0.48 2.12-0.44 0.76-1.48 0.76-0.52 0-1.16-0.12-0.6-0.16-1.4-0.28-0.76-0.16-1.76-0.28-1-0.16-2.24-0.16-1.4 0-2.32 0.28-0.92 0.24-1.48 0.68t-0.8 1q-0.24 0.52-0.24 1.08 0 1.32 0.88 2 0.92 0.68 3.24 1.32l3.52 1q7 1.84 7 7.28 0 1.76-0.6 3.2-0.56 1.44-1.8 2.48t-3.12 1.64q-1.88 0.56-4.52 0.56z"/>
 </g>
 <g transform="matrix(1.1616 0 0 1.2739 545.79 -1198.1)" fill="#fff" aria-label="SERIEN">
  <path d="m-444.92 1059.7q-1.96 0-4.28-0.4-2.28-0.4-4.68-1.2 0-0.16-0.04-0.28 0-0.12 0-0.28 0-1.32 0.48-2.12 0.48-0.84 1.56-0.84 0.52 0 1.24 0.16t1.6 0.36q0.92 0.2 2 0.36 1.12 0.16 2.44 0.16 2.76 0 3.92-1 1.2-1 1.2-2.52 0-0.76-0.28-1.28-0.28-0.56-0.8-0.92-0.52-0.4-1.28-0.68-0.72-0.28-1.68-0.56l-3.32-0.92q-3.92-1.08-5.48-3-1.52-1.92-1.52-4.4 0-1.24 0.44-2.52 0.44-1.32 1.52-2.36t2.88-1.72 4.52-0.68q1.84 0 3.92 0.36 2.12 0.36 4.4 1.16v0.56q0 1.36-0.48 2.12-0.44 0.76-1.48 0.76-0.52 0-1.16-0.12-0.6-0.16-1.4-0.28-0.76-0.16-1.76-0.28-1-0.16-2.24-0.16-1.4 0-2.32 0.28-0.92 0.24-1.48 0.68t-0.8 1q-0.24 0.52-0.24 1.08 0 1.32 0.88 2 0.92 0.68 3.24 1.32l3.52 1q7 1.84 7 7.28 0 1.76-0.6 3.2-0.56 1.44-1.8 2.48t-3.12 1.64q-1.88 0.56-4.52 0.56z"/>
  <path d="m-428.84 1059.4q-1.48 0-1.92-0.56-0.4-0.6-0.4-1.52v-21.84q0-0.92 0.4-1.48 0.44-0.6 1.92-0.6h13.44q0.08 0.32 0.12 0.88 0.08 0.56 0.08 1.12 0 1.16-0.52 1.64-0.48 0.44-1.2 0.44h-9.76v6.96h10.32q0.04 0.32 0.08 0.84 0.08 0.48 0.08 1.04 0 1.12-0.48 1.56-0.44 0.44-1.12 0.44h-8.88v7h11.64q0.04 0.32 0.08 0.84 0.08 0.48 0.08 1.04 0 1.2-0.48 1.72-0.48 0.48-1.2 0.48z"/>
  <path d="m-408.6 1059.6q-0.64 0-1.28-0.08-0.6-0.04-0.92-0.12v-23.96q0-0.92 0.4-1.48 0.44-0.6 1.92-0.6h6.52q4.48 0 6.96 2.16 2.48 2.12 2.48 5.88 0 1.56-0.52 2.92-0.48 1.32-1.4 2.36t-2.24 1.72-3 0.88l8.08 9.6q-0.64 0.36-1.4 0.52-0.76 0.2-1.44 0.2-1.28 0-2.04-0.36-0.72-0.4-1.52-1.4l-6.52-8.36h-1.8v8.24q0 0.8-0.52 1.36-0.48 0.52-1.76 0.52zm2.28-13.96h3.68q3.04 0 4.32-1.12 1.32-1.16 1.32-3.12 0-1.92-1.2-2.92-1.16-1.04-3.72-1.04h-4.4z"/>
  <path d="m-386.02 1059.6q-0.64 0-1.28-0.08-0.6-0.04-0.92-0.12v-24.24q0-0.8 0.48-1.32 0.52-0.56 1.8-0.56 0.64 0 1.24 0.08 0.64 0.04 0.96 0.12v24.24q0 0.8-0.52 1.36-0.48 0.52-1.76 0.52z"/>
  <path d="m-376.34 1059.4q-1.48 0-1.92-0.56-0.4-0.6-0.4-1.52v-21.84q0-0.92 0.4-1.48 0.44-0.6 1.92-0.6h13.44q0.08 0.32 0.12 0.88 0.08 0.56 0.08 1.12 0 1.16-0.52 1.64-0.48 0.44-1.2 0.44h-9.76v6.96h10.32q0.04 0.32 0.08 0.84 0.08 0.48 0.08 1.04 0 1.12-0.48 1.56-0.44 0.44-1.12 0.44h-8.88v7h11.64q0.04 0.32 0.08 0.84 0.08 0.48 0.08 1.04 0 1.2-0.48 1.72-0.48 0.48-1.2 0.48z"/>
  <path d="m-356.22 1059.6q-0.6 0-1.2-0.04-0.56-0.04-0.88-0.12v-25.76q0.44-0.2 1.12-0.28 0.68-0.12 1.24-0.12 1.6 0 2.28 0.44 0.72 0.4 1.24 1.2l11.64 18-0.24-17.88q0-0.72 0.44-1.24 0.48-0.52 1.68-0.52 0.56 0 1.12 0.08 0.6 0.04 0.92 0.12v25.76q-0.92 0.36-2.16 0.36-1.44 0-2.12-0.4-0.68-0.44-1.12-1.12l-12.04-18.76 0.24 18.52q0 0.76-0.48 1.28-0.44 0.48-1.68 0.48z"/>
 </g>
</svg>
