<svg width="1340" height="820" version="1.1" viewBox="0 0 354.54 216.96" xmlns="http://www.w3.org/2000/svg">
 <defs>
  <linearGradient id="linearGradient833" x1="-.00073425" x2="354.54" y2="216.96" gradientUnits="userSpaceOnUse">
   <stop stop-color="#194b98" offset="0"/>
   <stop stop-color="#122e6a" offset="1"/>
  </linearGradient>
 </defs>
 <path d="m-7.3425e-4 0h354.54v216.96h-354.54z" fill="url(#linearGradient833)" style="paint-order:stroke fill markers"/>
 <path d="m-7.4105e-4 111.13h354.54v52.917h-354.54z" fill="#c41c2b" style="paint-order:stroke fill markers"/>
 <path d="m148.27 67.367c0 8.9731-5.865 15.531-17.77 16.828-8.6278 0.9248-21.118-0.1666-27.047-0.8497-0.2208-0.9682-0.3919-2.1734-0.3919-3.1208 0-7.8548 4.2438-9.6455 8.2142-9.6455 4.1252 0 10.627 0.7149 15.465 0.7149 5.311 0 6.9345-1.807 6.9345-3.5235 0-2.2539-2.1478-3.1902-6.2739-3.9812l-11.294-2.1734c-9.4023-1.8024-14.418-8.3116-14.418-15.217 0-8.3952 5.9377-15.424 17.614-16.717 8.8298-0.9558 19.573 0.1231 25.47 0.8466 0.2175 1.0146 0.3299 1.972 0.3299 3.0263 0 7.8282-4.1252 9.5168-8.1008 9.5168-3.0563 0-7.7941-0.5724-13.203-0.5724-5.5094 0-7.7941 1.525-7.7941 3.3831 0 1.9557 2.1765 2.7674 5.6257 3.3707l10.796 2.0045c11.091 2.0464 15.843 8.3511 15.843 16.109m19.377 9.6346c0 4.8152-1.8899 7.5904-11.276 7.5904-1.2439 0-2.3329-0.092-3.3754-0.2417v-63.858c0-4.8494 1.6475-9.9087 11.132-9.9087 1.1936 0 2.398 0.123 3.5188 0.3571v66.06m38.382 24.704c1.2292 0.6289 3.7605 1.3934 6.943 1.4794 5.4449 0.1178 8.4232-1.9751 10.628-6.8594l29.254-65.303c-1.206-0.6506-3.8759-1.3717-6.0684-1.4228-3.7581-0.07-8.805 0.7025-12.036 8.4052l-9.4727 22.377-18.578-30.286c-1.1982-0.3679-4.1228-0.8954-6.273-0.8954-6.548 0-10.219 2.4204-14.023 6.5494l-18.062 19.771 14.528 22.885c2.6846 4.1694 6.2242 6.2948 11.971 6.2948 3.7572 0 6.8856-0.8559 8.3349-1.5498l-17.492-26.398 12.396-13.146 20.339 31.944-12.388 26.156" fill="#fff" stroke-width="2.9438"/>
 <g transform="matrix(3.1023 0 0 3.1023 -58.398 102.3)" fill="#fff">
  <path d="m55.331 13.37c0-2.1447-1.3896-3.1818-3.6148-3.6753l-3.8867-0.87595c-0.70511-0.16148-1.2889-0.38288-1.2889-1.0875 0-0.76525 0.60428-1.0572 2.2353-1.0572 1.9232 0 2.3763 0.10083 4.1183 0.10083 0.80551 0 1.6312-0.37265 1.6312-1.9635 0-0.19144-0.0219-0.41283-0.0585-0.60427-1.1781-0.10084-3.2724-0.2214-5.8703-0.2214-3.8968 0-5.3871 1.6916-5.3871 3.8464 0 2.0239 1.2688 3.1416 3.5242 3.6753l3.8867 0.89612c0.90619 0.21116 1.3996 0.6145 1.3996 1.1782 0 0.76518-0.69489 1.0572-2.3159 1.0572-1.9232 0-2.8093-0.13079-4.5613-0.13079-0.7955 0-1.6212 0.37265-1.6212 1.9634 0 0.19144 0.02192 0.40261 0.05115 0.60428 1.1882 0.12056 3.7155 0.25208 6.3033 0.25208 3.9068 0 5.4575-1.6614 5.4575-3.9572"/>
  <path d="m87.371 12.5h1.6312l3.1415 3.7457c0.58382 0.72484 1.1579 1.0975 2.4871 1.0975 0.90619 0 1.5103-0.11107 2.0037-0.35219l-4.088-4.7224c2.2957-0.49321 3.4537-1.9836 3.4537-4.1887 0-2.6985-1.6514-4.0377-4.9842-4.0377l-4.7627-0.0219c-1.5507 0.0585-2.0642 0.59405-2.0642 2.0038v11.106c0.24186 0.0365 0.51367 0.0585 0.78541 0.0585 1.9635 0 2.4166-0.57432 2.4166-1.5909l-0.0219-3.1012m0.0219-2.5878v-3.2825h3.0812c1.309 0 2.3562 0.20167 2.3562 1.5708 0 1.1579-0.78541 1.7117-2.3562 1.7117h-3.0812"/>
  <path d="m56.741 17.14c0.23163 0.0365 0.51367 0.0512 0.78541 0.0512 1.9635 0 2.4166-0.56409 2.4166-1.5809v-2.6884h3.3329c3.635 0 5.4373-1.5708 5.4373-4.511 0-2.8496-1.8024-4.36-5.2259-4.36h-4.6822c-1.5708 0-2.0642 0.60428-2.0642 2.0038v11.086m3.202-6.8671v-3.6148h3.1919c1.5909 0 2.3763 0.58381 2.3763 1.752 0 1.2284-0.78542 1.8627-2.3763 1.8627h-3.1919"/>
  <path d="m76.161 17.18c2.0641 0 3.6551-0.49321 4.7728-1.4902 1.1176-0.9868 1.6916-2.7489 1.6916-5.2662-0.0219-2.4669-0.59405-4.1988-1.752-5.2158-1.158-1.0069-2.7288-1.5103-4.7123-1.5103-1.9837 0-3.5443 0.50344-4.7023 1.5103-1.1579 1.017-1.7319 2.7488-1.752 5.2158 0 2.5173 0.57432 4.2794 1.6916 5.2662 1.1176 0.9968 2.7086 1.4902 4.7628 1.4902m3.1617-6.7564c0 1.5104-0.25209 2.5677-0.76525 3.202-0.48299 0.64446-1.2989 0.93644-2.3964 0.93644-1.1177-0.0219-1.9132-0.33246-2.4267-0.93644-0.51367-0.61451-0.76524-1.6714-0.76524-3.202 0-1.5103 0.27181-2.5676 0.78534-3.1818 0.50344-0.62401 1.309-0.91635 2.4066-0.91635 1.0975 0 1.8829 0.29227 2.3964 0.91635 0.51367 0.61451 0.76525 1.6714 0.76525 3.1818"/>
  <path d="m104.44 6.73h2.5676c0.84577 0 1.7117-0.39237 1.7117-2.0642 0-0.19144-0.0219-0.43329-0.0585-0.624h-9.9883c-0.83576 0-1.7017 0.39238-1.7017 2.0641 0 0.19144 0.0219 0.42307 0.0584 0.62401h4.2089v10.401c0.24186 0.0365 0.51367 0.0584 0.79543 0.0584 1.9535 0 2.4066-0.57432 2.4066-1.591v-8.87"/>
 </g>
 <path d="m192.49 184.87v-7.0803c0-1.9099 0.76251-3.1226 4.7202-3.1226 0.49019 0 0.90768 0.027 1.3798 0.1034v23.17c0 1.9243-0.74431 3.1407-4.7201 3.1407-0.472 0-0.88961-0.036-1.3798-0.109v-10.53h-12.309v7.4979c0 1.9243-0.7625 3.1407-4.7202 3.1407-0.49019 0-0.90769-0.036-1.3979-0.109v-23.183c0-1.9099 0.7625-3.1226 4.7202-3.1226 0.49019 0 0.9078 0.027 1.3979 0.1034v10.099h12.309m35.056 2.9592c0-7.8609-5.6642-13.206-15.051-13.206h-6.3904c-3.0681 0-3.7943 1.6085-3.7943 3.729v19.007c0 2.0333 0.7262 3.7036 3.7943 3.7036h6.3904c9.3859 0 15.051-5.3556 15.051-13.235m-19.116 7.5705v-15.123h4.4115c6.1544 0 8.4056 3.9759 8.4056 7.5523 0 3.5946-2.2512 7.5705-8.4056 7.5705h-4.4115" fill="#fff" stroke-width="1.8154"/>
 <path d="m144.36 211.67c-3.5116 0-6.7194-0.37365-9.5894-1.124-2.9038-0.74482-5.4702-1.7156-7.7661-2.9103 0.0703-2.3072 0.6083-4.0794 1.6545-5.3137 1.0468-1.2399 2.4312-1.86 4.153-1.86 0.77692 0 1.5533 0.10777 2.3299 0.31977 0.77692 0.21553 1.6208 0.45021 2.5324 0.70522 0.87825 0.25768 1.8234 0.48981 2.8701 0.70528 1.013 0.212 2.1273 0.31977 3.3429 0.31977 2.5661 0 4.4906-0.51253 5.8078-1.5372 1.3169-1.022 1.9921-2.3271 1.9921-3.907 0-1.3646-0.64145-2.5394-1.9584-3.5219-1.2831-0.98239-3.0727-1.475-5.3013-1.475-1.7221 0-3.2078 0.19269-4.3894 0.57483-1.2156 0.38797-2.2961 0.90027-3.3091 1.5401l-8.3401-2.2422 2.6675-22.607h29.646c0.10126 0.47132 0.20258 1.0794 0.30426 1.8246 0.10126 0.7465 0.13544 1.548 0.13544 2.403 0 1.7926-0.40555 3.0317-1.2832 3.7166-0.87829 0.6817-1.9583 1.0223-3.2752 1.0223h-15.735l-1.0805 7.6193c1.1142-0.37957 2.2623-0.72462 3.4441-1.0235 1.148-0.29724 2.5999-0.44857 4.2546-0.44857 2.7688 0 5.1663 0.36525 7.2259 1.09 2.0596 0.728 3.8156 1.6873 5.2 2.8821 1.3843 1.1947 2.4312 2.5507 3.1402 4.0652 0.67554 1.5174 1.0129 3.0434 1.0129 4.5806 0 2.0072-0.40555 3.8954-1.2156 5.665-0.81008 1.775-2.0259 3.3209-3.6467 4.6456-1.6544 1.3278-3.6804 2.3724-6.1792 3.1396-2.6338 0.69097-5.5039 1.107-8.779 1.107" fill="#fff" stroke-width=".8163"/>
</svg>
