<svg width="1340" height="820" version="1.1" viewBox="0 0 354.54 216.96" xmlns="http://www.w3.org/2000/svg">
 <g transform="translate(-25.856 76.611)">
  <path d="m25.856-76.611h354.54v216.96h-354.54z" fill="#fff" style="paint-order:stroke fill markers"/>
  <path d="m25.856 29.223h354.54v58.208h-354.54z" fill="#ae2c3f" style="paint-order:stroke fill markers"/>
  <path d="m174.13-11.89c0 8.973-5.8649 15.531-17.77 16.828-8.6277 0.92479-21.118-0.1666-27.047-0.84969-0.2208-0.96819-0.39189-2.1734-0.39189-3.1208 0-7.8547 4.2438-9.6454 8.2141-9.6454 4.1251 0 10.627 0.71489 15.465 0.71489 5.3109 0 6.9344-1.807 6.9344-3.5235 0-2.2539-2.1478-3.1902-6.2738-3.9812l-11.294-2.1734c-9.4022-1.8024-14.418-8.3115-14.418-15.217 0-8.3951 5.9376-15.424 17.614-16.717 8.8297-0.95579 19.573 0.1231 25.47 0.84659 0.2175 1.0146 0.3299 1.972 0.3299 3.0263 0 7.8281-4.1252 9.5167-8.1007 9.5167-3.0563 0-7.794-0.5724-13.203-0.5724-5.5093 0-7.794 1.525-7.794 3.3831 0 1.9557 2.1765 2.7674 5.6256 3.3707l10.796 2.0045c11.091 2.0464 15.843 8.351 15.843 16.109m19.377 9.6345c0 4.8151-1.8899 7.5903-11.276 7.5903-1.2439 0-2.3329-0.092-3.3754-0.2417v-63.857c0-4.8493 1.6475-9.9086 11.132-9.9086 1.1936 0 2.398 0.123 3.5188 0.3571v66.059m38.382 24.704c1.2292 0.62889 3.7605 1.3934 6.9429 1.4794 5.4448 0.1178 8.4231-1.9751 10.628-6.8593l29.254-65.302c-1.206-0.65059-3.8759-1.3717-6.0683-1.4228-3.758-0.07-8.8049 0.70249-12.036 8.4051l-9.4726 22.377-18.578-30.286c-1.1982-0.36789-4.1228-0.89539-6.2729-0.89539-6.5479 0-10.219 2.4204-14.023 6.5493l-18.062 19.771 14.528 22.885c2.6846 4.1694 6.2241 6.2947 11.971 6.2947 3.7572 0 6.8855-0.85589 8.3348-1.5498l-17.492-26.398 12.396-13.146 20.339 31.944-12.388 26.156" fill="#ae2c3f" stroke-width="2.9438"/>
  <g transform="matrix(.65735 0 0 .65735 -45.333 22.251)">
   <g transform="matrix(16.279,0,0,-16.279,243.01,87.08)">
    <path d="m0 0c-0.279 0-0.536 0.05-0.772 0.151-0.235 0.1-0.439 0.239-0.612 0.416s-0.308 0.387-0.407 0.632c-0.098 0.244-0.147 0.507-0.147 0.791 0 0.275 0.049 0.533 0.147 0.773 0.099 0.24 0.234 0.449 0.407 0.626s0.377 0.316 0.612 0.417c0.236 0.1 0.493 0.15 0.772 0.15 0.2 0 0.395-0.022 0.583-0.065 0.189-0.043 0.363-0.098 0.524-0.165 0.036-0.524-0.092-0.786-0.383-0.786-0.051 0-0.098 6e-3 -0.141 0.018s-0.09 0.024-0.141 0.036c-0.051 0.011-0.108 0.023-0.171 0.035s-0.138 0.018-0.224 0.018c-0.137 0-0.267-0.025-0.389-0.074-0.121-0.049-0.226-0.12-0.315-0.213-0.088-0.092-0.158-0.203-0.209-0.333s-0.076-0.276-0.076-0.437c0-0.17 0.025-0.321 0.076-0.455s0.121-0.247 0.209-0.339c0.089-0.093 0.194-0.164 0.315-0.213 0.122-0.049 0.252-0.074 0.389-0.074 0.086 0 0.163 6e-3 0.23 0.018s0.126 0.024 0.179 0.035c0.053 0.012 0.103 0.024 0.151 0.036 0.047 0.012 0.096 0.018 0.147 0.018 0.286 0 0.414-0.262 0.383-0.786-0.161-0.067-0.341-0.122-0.539-0.165-0.199-0.043-0.398-0.065-0.598-0.065" fill="#fff"/>
   </g>
   <g transform="matrix(16.279,0,0,-16.279,276.08,86.266)">
    <path d="m0 0c-0.082 0-0.164 4e-3 -0.244 0.012-0.081 8e-3 -0.149 0.018-0.204 0.029v3.419c0 0.114 0.036 0.212 0.106 0.292 0.071 0.081 0.205 0.122 0.401 0.122 0.082 0 0.164-4e-3 0.244-0.012 0.081-8e-3 0.149-0.018 0.204-0.03v-3.419c0-0.114-0.036-0.211-0.106-0.292-0.071-0.081-0.205-0.121-0.401-0.121" fill="#fff"/>
   </g>
   <g transform="matrix(16.279,0,0,-16.279,302.31,86.266)">
    <path d="m0 0c-0.079 0-0.155 4e-3 -0.23 0.012-0.074 8e-3 -0.137 0.018-0.188 0.029v3.762c0.059 0.019 0.135 0.036 0.23 0.05 0.094 0.014 0.174 0.021 0.241 0.021 0.216 0 0.373-0.028 0.471-0.083s0.181-0.136 0.248-0.242l1.337-2.108v2.055c0 0.051 6e-3 0.099 0.02 0.144s0.037 0.086 0.071 0.121c0.033 0.036 0.079 0.063 0.138 0.083s0.134 0.03 0.224 0.03c0.079 0 0.154-4e-3 0.227-0.012 0.072-8e-3 0.134-0.016 0.185-0.024v-3.767c-0.055-0.028-0.121-0.046-0.2-0.056-0.078-0.01-0.155-0.015-0.23-0.015-0.184 0-0.322 0.026-0.412 0.077s-0.165 0.122-0.224 0.212l-1.431 2.291v-2.19c0-0.111-0.033-0.203-0.1-0.278s-0.193-0.112-0.377-0.112" fill="#fff"/>
   </g>
   <g transform="matrix(16.279,0,0,-16.279,370.42,85.94)">
    <path d="m0 0c-0.11 0-0.199 0.012-0.268 0.035-0.069 0.024-0.122 0.056-0.159 0.098-0.037 0.041-0.063 0.091-0.077 0.15-0.013 0.059-0.02 0.122-0.02 0.189v2.894c0 0.067 7e-3 0.13 0.02 0.189 0.014 0.059 0.04 0.109 0.077 0.15 0.037 0.042 0.09 0.074 0.159 0.098 0.069 0.023 0.158 0.035 0.268 0.035h1.949c8e-3 -0.043 0.016-0.102 0.024-0.177s0.012-0.152 0.012-0.23c0-0.166-0.034-0.283-0.1-0.352-0.067-0.069-0.151-0.103-0.254-0.103h-1.201v-0.673h1.384c8e-3 -0.04 0.016-0.092 0.024-0.157 7e-3 -0.065 0.011-0.135 0.011-0.209 0-0.158-0.031-0.265-0.094-0.322s-0.141-0.086-0.235-0.086h-1.09v-0.667h1.578c8e-3 -0.043 0.016-0.103 0.024-0.18s0.012-0.153 0.012-0.227c0-0.17-0.034-0.288-0.1-0.355-0.067-0.067-0.152-0.1-0.254-0.1h-1.69" fill="#fff"/>
   </g>
   <g transform="matrix(16.279,0,0,-16.279,416.52,86.266)">
    <path d="m0 0c-0.09 0-0.17 9e-3 -0.239 0.027-0.068 0.017-0.128 0.038-0.179 0.062l0.36 3.678c0.074 0.032 0.173 0.057 0.294 0.077 0.122 0.02 0.226 0.03 0.312 0.03 0.122 0 0.227-8e-3 0.315-0.024 0.089-0.016 0.164-0.042 0.227-0.08 0.063-0.037 0.113-0.089 0.15-0.156s0.066-0.15 0.085-0.248l0.153-0.715c0.044-0.197 0.09-0.414 0.139-0.652s0.093-0.484 0.132-0.735h0.024c0.043 0.251 0.088 0.496 0.135 0.732s0.096 0.452 0.147 0.649l0.188 0.75c0.047 0.185 0.123 0.311 0.227 0.378s0.265 0.101 0.485 0.101c0.11 0 0.22-9e-3 0.332-0.027s0.205-0.037 0.28-0.056l0.344-3.702c-0.055-0.02-0.121-0.04-0.197-0.059-0.077-0.02-0.161-0.03-0.251-0.03-0.125 0-0.232 0.022-0.318 0.065s-0.133 0.124-0.141 0.242l-0.089 1.275c-0.019 0.225-0.036 0.46-0.05 0.706-0.013 0.246-0.022 0.479-0.026 0.7h-0.012c-0.051-0.205-0.103-0.426-0.156-0.664-0.053-0.239-0.107-0.458-0.162-0.659l-0.241-1.004c-0.059-0.236-0.246-0.354-0.56-0.354-0.079 0-0.159 8e-3 -0.241 0.024-0.083 0.015-0.154 0.033-0.212 0.053l-0.301 1.252c-0.059 0.232-0.114 0.46-0.165 0.685-0.051 0.224-0.098 0.448-0.141 0.673h-0.018c-0.012-0.315-0.027-0.604-0.047-0.865-0.02-0.262-0.037-0.488-0.053-0.676l-0.094-1.152c-8e-3 -0.114-0.051-0.193-0.13-0.236-0.078-0.043-0.18-0.065-0.306-0.065" fill="#fff"/>
   </g>
   <g transform="matrix(16.279,0,0,-16.279,506.99,60.056)">
    <path d="m0 0h0.881l-0.439 1.447-0.442-1.447m-0.919-1.624c-0.074 0-0.16 7e-3 -0.256 0.021s-0.176 0.032-0.238 0.056l1.222 3.744c0.106 0.027 0.213 0.047 0.322 0.059 0.108 0.011 0.207 0.017 0.298 0.017 0.13 0 0.241-0.01 0.333-0.029 0.093-0.02 0.171-0.05 0.234-0.089s0.115-0.091 0.156-0.156c0.042-0.065 0.076-0.141 0.104-0.228l1.047-3.312c-0.067-0.028-0.147-0.048-0.241-0.062-0.095-0.014-0.187-0.021-0.277-0.021-0.102 0-0.202 0.017-0.298 0.05-0.096 0.034-0.166 0.11-0.209 0.228l-0.2 0.608h-1.285l-0.17-0.573c-0.043-0.138-0.116-0.224-0.218-0.26-0.102-0.035-0.21-0.053-0.324-0.053" fill="#fff"/>
   </g>
  </g>
  <g transform="translate(-1136.1)" fill="#ae2c3f">
   <path d="m1279.1 124.33q-2.3989 0-4.445-0.84666-2.0461-0.88195-3.5631-2.4342-1.4816-1.5522-2.3283-3.7042-0.8467-2.1519-0.8467-4.6919 0-2.4694 0.8467-4.6214 0.8467-2.1519 2.3283-3.7394 1.517-1.5875 3.5631-2.4694 2.0461-0.91722 4.445-0.91722 1.7992 0 3.4219 0.35278 1.6581 0.35278 3.1398 0.9525 0.035 0.24694 0.035 0.45861 0.035 0.17639 0.035 0.38805 0 1.1289-0.4939 1.7639t-1.2347 0.635q-0.3528 0-0.7761-0.14111t-0.9878-0.3175q-0.5291-0.17639-1.27-0.3175-0.7408-0.14111-1.7286-0.14111-1.5169 0-2.8222 0.59972-1.3053 0.56445-2.2931 1.6228-0.9525 1.0583-1.5169 2.5753-0.5292 1.4817-0.5292 3.3161 0 1.905 0.5292 3.4219 0.5644 1.4817 1.5169 2.54 0.9878 1.0231 2.2931 1.5522 1.3053 0.52916 2.8222 0.52916 0.9878 0 1.6933-0.14111 0.7409-0.14111 1.27-0.3175 0.5292-0.17639 0.9173-0.3175 0.388-0.14111 0.7761-0.14111 0.8819 0 1.4111 0.59972 0.5292 0.56445 0.5292 1.6933 0 0.24694 0 0.45861 0 0.21166-0.071 0.49389-1.4817 0.635-3.0692 0.98777-1.5875 0.3175-3.5983 0.3175z"/>
   <path d="m1290.7 124.01q-1.3053 0-1.6933-0.49388-0.3528-0.52917-0.3528-1.3406v-19.509q0-0.70556 0.4233-1.1642 0.4586-0.49389 1.5875-0.49389 0.5645 0 1.0936 0.0706 0.5645 0.0353 0.8467 0.10583v19.226h10.901q0.071 0.38806 0.1059 0.81139 0.071 0.38806 0.071 0.81139 0 1.1289-0.4939 1.5522-0.4586 0.42333-1.3052 0.42333z"/>
   <path d="m1306.6 124.23q-0.4939 0-1.1289-0.10583-0.5997-0.10584-0.9525-0.3175l7.7964-22.542q0.6703-0.17639 1.3053-0.24695 0.6703-0.0705 1.27-0.0705 0.8467 0 1.3758 0.14111 0.5645 0.10583 0.9173 0.38805 0.388 0.24695 0.635 0.67028 0.2469 0.38806 0.4586 0.98778l7.0908 20.638q-0.4233 0.17639-0.9878 0.3175-0.5291 0.14111-0.9877 0.14111-0.8114 0-1.4112-0.21167-0.5997-0.17638-0.8819-0.98777l-1.6933-5.0447h-9.0311l-1.6581 5.0447q-0.2822 0.77611-0.8114 0.98777-0.5292 0.21167-1.3053 0.21167zm4.9036-9.6308h6.8087l-3.3867-10.231z"/>
   <path d="m1334.8 124.33q-1.7286 0-3.7747-0.35277-2.0109-0.35278-4.1275-1.0583 0-0.14111-0.035-0.24694 0-0.10583 0-0.24695 0-1.1642 0.4233-1.8697 0.4234-0.74083 1.3759-0.74083 0.4586 0 1.0936 0.14111t1.4111 0.3175q0.8114 0.17639 1.7639 0.3175 0.9877 0.14111 2.1519 0.14111 2.4342 0 3.4572-0.88194 1.0584-0.88195 1.0584-2.2225 0-0.67028-0.247-1.1289-0.2469-0.49389-0.7055-0.81139-0.4586-0.35278-1.1289-0.59972-0.635-0.24695-1.4817-0.49389l-2.928-0.81139q-3.4573-0.9525-4.8331-2.6458-1.3406-1.6933-1.3406-3.8806 0-1.0936 0.3881-2.2225 0.3881-1.1642 1.3406-2.0814t2.54-1.5169q1.5875-0.59973 3.9863-0.59973 1.6228 0 3.4573 0.3175 1.8697 0.3175 3.8805 1.0231v0.49389q0 1.1994-0.4233 1.8697-0.3881 0.67028-1.3053 0.67028-0.4586 0-1.023-0.10583-0.5292-0.14112-1.2348-0.24695-0.6702-0.14111-1.5522-0.24694-0.8819-0.14111-1.9755-0.14111-1.2348 0-2.0462 0.24694-0.8113 0.21167-1.3052 0.59972-0.4939 0.38806-0.7056 0.88195-0.2117 0.45861-0.2117 0.9525 0 1.1642 0.7762 1.7639 0.8113 0.59972 2.8575 1.1642l3.1044 0.88195q6.1736 1.6228 6.1736 6.4206 0 1.5522-0.5292 2.8222-0.4938 1.27-1.5875 2.1872-1.0936 0.91722-2.7516 1.4464-1.6581 0.49388-3.9864 0.49388z"/>
   <path d="m1354 124.33q-1.7286 0-3.7747-0.35277-2.0108-0.35278-4.1275-1.0583 0-0.14111-0.035-0.24694 0-0.10583 0-0.24695 0-1.1642 0.4234-1.8697 0.4233-0.74083 1.3758-0.74083 0.4586 0 1.0936 0.14111t1.4111 0.3175q0.8114 0.17639 1.7639 0.3175 0.9878 0.14111 2.1519 0.14111 2.4342 0 3.4573-0.88194 1.0583-0.88195 1.0583-2.2225 0-0.67028-0.2469-1.1289-0.247-0.49389-0.7056-0.81139-0.4586-0.35278-1.1289-0.59972-0.635-0.24695-1.4817-0.49389l-2.928-0.81139q-3.4572-0.9525-4.8331-2.6458-1.3405-1.6933-1.3405-3.8806 0-1.0936 0.388-2.2225 0.3881-1.1642 1.3406-2.0814t2.54-1.5169q1.5875-0.59973 3.9864-0.59973 1.6228 0 3.4572 0.3175 1.8697 0.3175 3.8806 1.0231v0.49389q0 1.1994-0.4234 1.8697-0.388 0.67028-1.3053 0.67028-0.4586 0-1.023-0.10583-0.5292-0.14112-1.2347-0.24695-0.6703-0.14111-1.5523-0.24694-0.8819-0.14111-1.9755-0.14111-1.2347 0-2.0461 0.24694-0.8114 0.21167-1.3053 0.59972-0.4939 0.38806-0.7056 0.88195-0.2116 0.45861-0.2116 0.9525 0 1.1642 0.7761 1.7639 0.8114 0.59972 2.8575 1.1642l3.1044 0.88195q6.1736 1.6228 6.1736 6.4206 0 1.5522-0.5291 2.8222-0.4939 1.27-1.5875 2.1872-1.0936 0.91722-2.7517 1.4464-1.658 0.49388-3.9864 0.49388z"/>
   <path d="m1368.2 124.23q-0.5644 0-1.1289-0.0706-0.5291-0.0353-0.8113-0.10584v-21.378q0-0.70556 0.4233-1.1642 0.4586-0.49389 1.5875-0.49389 0.5644 0 1.0936 0.0706 0.5644 0.0353 0.8467 0.10583v21.378q0 0.70555-0.4586 1.1994-0.4234 0.45861-1.5523 0.45861z"/>
   <path d="m1384.7 124.33q-2.3989 0-4.445-0.84666-2.0461-0.88195-3.563-2.4342-1.4817-1.5522-2.3284-3.7042-0.8466-2.1519-0.8466-4.6919 0-2.4694 0.8466-4.6214 0.8467-2.1519 2.3284-3.7394 1.5169-1.5875 3.563-2.4694 2.0461-0.91722 4.445-0.91722 1.7992 0 3.422 0.35278 1.658 0.35278 3.1397 0.9525 0.035 0.24694 0.035 0.45861 0.035 0.17639 0.035 0.38805 0 1.1289-0.4938 1.7639-0.4939 0.635-1.2348 0.635-0.3527 0-0.7761-0.14111-0.4233-0.14111-0.9878-0.3175-0.5291-0.17639-1.27-0.3175-0.7408-0.14111-1.7286-0.14111-1.5169 0-2.8222 0.59972-1.3053 0.56445-2.293 1.6228-0.9525 1.0583-1.517 2.5753-0.5292 1.4817-0.5292 3.3161 0 1.905 0.5292 3.4219 0.5645 1.4817 1.517 2.54 0.9877 1.0231 2.293 1.5522 1.3053 0.52916 2.8222 0.52916 0.9878 0 1.6934-0.14111 0.7408-0.14111 1.27-0.3175 0.5291-0.17639 0.9172-0.3175 0.388-0.14111 0.7761-0.14111 0.8819 0 1.4111 0.59972 0.5292 0.56445 0.5292 1.6933 0 0.24694 0 0.45861 0 0.21166-0.071 0.49389-1.4816 0.635-3.0691 0.98777-1.5875 0.3175-3.5984 0.3175z"/>
   <path d="m1401.7 124.33q-1.7286 0-3.7747-0.35277-2.0108-0.35278-4.1275-1.0583 0-0.14111-0.035-0.24694 0-0.10583 0-0.24695 0-1.1642 0.4234-1.8697 0.4233-0.74083 1.3758-0.74083 0.4586 0 1.0936 0.14111t1.4111 0.3175q0.8114 0.17639 1.7639 0.3175 0.9878 0.14111 2.152 0.14111 2.4341 0 3.4572-0.88194 1.0583-0.88195 1.0583-2.2225 0-0.67028-0.2469-1.1289-0.247-0.49389-0.7056-0.81139-0.4586-0.35278-1.1289-0.59972-0.635-0.24695-1.4816-0.49389l-2.9281-0.81139q-3.4572-0.9525-4.833-2.6458-1.3406-1.6933-1.3406-3.8806 0-1.0936 0.3881-2.2225 0.388-1.1642 1.3405-2.0814t2.54-1.5169q1.5875-0.59973 3.9864-0.59973 1.6228 0 3.4572 0.3175 1.8697 0.3175 3.8806 1.0231v0.49389q0 1.1994-0.4234 1.8697-0.388 0.67028-1.3052 0.67028-0.4586 0-1.0231-0.10583-0.5292-0.14112-1.2347-0.24695-0.6703-0.14111-1.5522-0.24694-0.882-0.14111-1.9756-0.14111-1.2347 0-2.0461 0.24694-0.8114 0.21167-1.3053 0.59972-0.4939 0.38806-0.7055 0.88195-0.2117 0.45861-0.2117 0.9525 0 1.1642 0.7761 1.7639 0.8114 0.59972 2.8575 1.1642l3.1045 0.88195q6.1736 1.6228 6.1736 6.4206 0 1.5522-0.5292 2.8222-0.4939 1.27-1.5875 2.1872-1.0936 0.91722-2.7517 1.4464-1.658 0.49388-3.9864 0.49388z"/>
  </g>
 </g>
</svg>
