<svg width="850" height="850" enable-background="new 0 0 2362.9 500" version="1.1" viewBox="0 0 850 850" xml:space="preserve" xmlns="http://www.w3.org/2000/svg"><defs><linearGradient id="path15335_1_-0-6" x1="-625.21" x2="-403.69" y1="653.82" y2="653.82" gradientTransform="matrix(3.8372 0 0 -3.8372 2399 3008.8)" gradientUnits="userSpaceOnUse"><stop stop-color="#FF0031" offset="0"/><stop stop-color="#9B001F" offset="1"/></linearGradient><linearGradient id="linearGradient6109" x1="-735.16" x2="-730.71" y1="1190.1" y2="1190.1" gradientTransform="matrix(-1.5788 -45.214 -45.214 1.5788 53084 -34802)" gradientUnits="userSpaceOnUse"><stop stop-color="#fff" offset="0"/><stop stop-color="#fff" stop-opacity=".4" offset=".5"/><stop stop-color="#fff" stop-opacity=".25" offset="1"/></linearGradient><linearGradient id="linearGradient5874-6-27-7-0-8" x1="1279.6" x2="1273" y1="1197.7" y2="1016.9" gradientTransform="matrix(.80989 0 0 .80989 -626.59 -470.95)" gradientUnits="userSpaceOnUse"><stop stop-color="#fff" offset="0"/><stop stop-color="#fff" stop-opacity=".8347" offset=".1203"/><stop stop-color="#fff" stop-opacity=".6576" offset=".2693"/><stop stop-color="#fff" stop-opacity=".5107" offset=".4195"/><stop stop-color="#fff" stop-opacity=".3965" offset=".5684"/><stop stop-color="#fff" stop-opacity=".3152" offset=".7156"/><stop stop-color="#fff" stop-opacity=".2664" offset=".8603"/><stop stop-color="#fff" stop-opacity=".25" offset="1"/></linearGradient></defs>
<path d="m0 5e-6h850v360h-850z" fill="#fff" stop-color="#000000" stroke-width=".42355" style="font-variation-settings:normal"/><path d="m0 640h850v210h-850z" fill="#fff" stop-color="#000000" stroke-width=".24707" style="font-variation-settings:normal"/><path d="m0 360h850v280h-850z" fill="url(#path15335_1_-0-6)" stop-color="#000000" stroke-width=".51162" style="font-variation-settings:normal"/><g transform="matrix(.53706 0 0 .53706 191.7 21.571)" stroke-width="1.2"><path d="m267.96 359.75c0 51.6-33.6 89.04-102.24 96.48-49.44 5.28-121.2-0.96-155.28-4.8-1.2-5.52-2.16-12.48-2.16-18 0-44.88 24.24-55.2 47.04-55.2 23.76 0 61.2 4.08 88.8 4.08 30.72 0 39.84-10.32 39.84-20.16 0-12.96-12.24-18.24-36-22.8l-65.04-12.48c-54-10.32-82.8-47.52-82.8-87.12 0-48 34.08-88.32 101.28-95.76 50.64-5.52 112.56 0.72 146.4 4.8 1.2 5.76 1.92 11.28 1.92 17.28 0 44.88-23.76 54.48-46.56 54.48-17.52 0-44.64-3.12-75.84-3.12-31.68 0-44.64 8.64-44.64 19.2 0 11.28 12.48 15.84 32.16 19.44l61.92 11.52c63.84 11.52 91.2 47.76 91.2 92.16m111.12 55.2c0 27.6-10.8 43.44-64.8 43.44-7.2 0-13.44-0.48-19.44-1.44v-365.76c0-27.84 9.36-56.88 63.84-56.88 6.96 0 13.92 0.72 20.4 2.16zm220.56 141.6c7.2 3.6 21.6 8.16 39.84 8.4 31.44 0.72 48.48-11.28 61.2-39.36l168-373.92c-6.96-3.6-22.32-7.92-34.8-8.16-21.6-0.48-50.64 3.84-69.12 48l-54.72 127.92-106.8-173.52c-6.96-2.16-23.76-5.04-36-5.04-37.92 0-58.8 13.92-80.64 37.44l-103.68 113.28 83.52 131.28c15.36 24 35.76 36.24 68.64 36.24 21.6 0 39.6-5.04 48-8.88l-100.56-151.2 71.28-75.6 116.88 183.12z" fill="#ff0031"/><path d="m295.08 91.194v250.8c0-10.08 7.68-20.64 20.64-21.12 9.12-0.24 34.56-1.2 42.24-1.44 8.4-0.24 21.12-6 21.36-21.36v-261.6c-6.48-1.44-13.44-2.16-20.4-2.16-54.48 0.24-63.84 29.04-63.84 56.88m192 87.36-103.68 113.28 8.4 12.96c3.6 4.8 10.56 12.96 24.48 12.48 5.04-0.24 54.96-1.92 59.04-2.16 12.96-0.48 21.12 5.04 26.16 11.76l-18.48-27.84 71.28-75.6 47.76 75.12c8.64 11.28 21.6 11.52 24.48 11.52 2.4 0 65.28-2.16 67.92-2.4 4.32-0.24 9.36 2.16 13.2 7.68l-103.92-168.96c-6.96-2.16-23.76-5.04-36-5.04-37.92-0.24-58.8 13.44-80.64 37.2m-385.68-34.8c-67.2 7.44-101.28 47.52-101.28 95.76 0 24.72 11.28 48.48 32.88 65.52 16.32 10.8 33.12 14.88 49.68 17.76 13.68 2.4 45.6 4.56 69.36 3.6 7.44-0.24 62.16-2.16 73.92-2.64 27.84-0.96 42.72 22.8 41.28 46.56v-1.2c0.24-3.12 0.48-6.24 0.48-9.36 0-44.4-27.36-80.64-90.96-92.4l-61.92-11.52c-19.92-3.36-32.16-8.16-32.16-19.44 0-10.56 13.2-19.44 44.64-19.44 31.2 0 58.32 3.12 75.84 3.12 22.8 0 46.56-9.6 46.56-54.48 0-6-0.72-11.52-1.92-17.28-24.24-2.88-63.12-6.96-101.76-6.96-15.12 0.24-30.24 0.96-44.64 2.4m663.12 47.76-53.04 125.04c0-0.24 3.36-9.84 13.68-10.32 0 0 52.32-1.92 56.16-1.92 17.04-0.72 23.76-12.24 25.68-16.08l61.44-137.04c-6.96-3.6-22.32-7.92-34.8-8.16h-2.64c-21.36 0.24-48.72 6-66.48 48.48" enable-background="new    " fill="url(#linearGradient6109)" opacity=".3"/></g><g transform="matrix(.45383 0 0 .45383 -318.11 314.79)" fill="#fff"><path d="m907.7 417.6c0-70.2 51.5-122.2 119.7-122.2 31.9 0 61.4 8.8 82 18.6 3.4 22.1-3.5 30.9-13.3 30.9-17.2 0-31.9-14.2-67.2-14.2-44.2 0-80.5 32.9-80.5 86.9 0 53.5 36.3 86.9 80.5 86.9 35.3 0 50.1-14.7 65.8-14.7 10.3 0 17.6 9.3 14.7 31.4-20.6 10.3-50.1 19.1-82 19.1-68.2 0-119.7-53-119.7-122.7"/><path d="m2116.2 380.8v141.9c0 9.8-5.4 15.2-21.6 15.2-6.9 0-14.7-1-18.6-2v-150.2c0-34.4-16.2-54.5-47.1-54.5-26 0-47.6 18.1-56.4 36.8v154.6c0 9.8-5.4 15.2-21.6 15.2-6.9 0-14.7-1-18.6-2v-150.1c0-34.4-16.2-54.5-47.1-54.5-26 0-47.6 18.1-56.4 36.8v154.6c0 9.8-5.4 15.2-21.6 15.2-6.8 0-14.7-1-18.6-2v-236c3.9-1 11.8-2 19.1-2 15.2 0 20.6 5.9 20.6 16.2v16.2c15.2-20.1 38.8-34.9 67.3-34.9 31.4 0 55.9 15.7 68.2 42.7 16.2-24.5 40.7-42.7 75.6-42.7 50.3 0.1 76.8 37.9 76.8 85.5"/><path d="m1736.8 432.3h-182.6c5.4 45.7 36.8 71.2 83.4 71.2 20.1 0 35.8-4 50.6-8.8 10.3-3.5 14.7-4.9 18.6-4.9 11.3 0 18.6 9.3 16.7 30.9-21.1 9.3-53.5 19.6-87.4 19.6-73.6 0-123.2-49.5-123.2-123.2 0-70.7 52.6-121.7 116.8-121.7 72.7 0 108.5 56.4 108.5 113.4 0.1 6.9-0.4 15.2-1.4 23.5m-182.6-31.4h144.8c-1.5-40.2-27.5-71.7-69.2-71.7-36.3 0.1-69.2 25.1-75.6 71.7"/><path d="m1465.2 395.5v127.1c0 9.3-5.4 15.2-21.6 15.2-6.8 0-14.7-1-18.6-2v-135c0-47.1-23.1-69.7-57.9-69.7-27 0-56.4 18.7-68.2 40.7v150.7c0 9.3-5.4 15.2-21.6 15.2-6.9 0-14.7-1-18.6-2v-235.9c3.9-1 11.8-2 18.6-2 16.2 0 21.6 5.9 21.6 15.2v20.1c17.2-21.1 43.2-37.8 78-37.8 48.1 0.1 88.3 30.5 88.3 100.2"/><path d="m2367.1 384.7v151.2c-3.9 1-11.3 2-18.1 2-14.7 0-21.6-5.4-21.6-15.2v-20.7c-21.1 24.1-48.6 38.3-83.5 38.3-52.5 0-81.5-34.3-81.5-71.7 0-56.9 60.9-82 164.4-75.1v-8.3c0-38.8-11.8-55-56.4-55-18.6 0-43.7 5.4-56.9 8.8-7.9 2-13.8 3.9-18.6 3.9-11.3 0-18.7-9.8-14.8-30.4 24.1-8.8 58.9-17.2 92.3-17.2 69.2 0.1 94.7 31 94.7 89.4m-40.2 82.5v-44.7c-67.7-4.9-124.2 3.9-124.2 44.7 0 20.6 17.2 39.2 48.1 39.2 31.4 0 58.9-15.6 76.1-39.2"/><path d="m1149.5 246.3c0-14.7 11.8-25.5 25.5-25.5 14.8 0 26 10.8 26 25.5 0 13.3-11.3 25.5-26 25.5-13.7 0-25.5-12.2-25.5-25.5m5.4 289.6v-222.8c0-9.3 5.4-15.2 21.6-15.2 6.9 0 14.2 1 18.1 2v222.8c0 9.8-4.9 15.2-21.1 15.2-6.8 0-14.6-1-18.6-2"/></g><path d="m1e-3 360v198.28c0-2.6222 0.876-22.178 14.176-24.978l821.12-73.98c7.496-1.6 14.699-9.5549 14.699-24.31v-75.006z" fill="url(#linearGradient5874-6-27-7-0-8)" opacity=".3" stop-color="#000000" style="font-variation-settings:normal"/><path d="m610.15 765c-0.908 0-1.608-0.7261-1.608-1.6078v-86.784c0-0.8947 0.778-1.6078 1.608-1.6078 0.907 0 1.608 0.7131 1.608 1.6078v86.784c0 0.8817-0.778 1.6078-1.608 1.6078" fill="#9b001f"/><g transform="matrix(17.117 0 0 -17.117 -2851.7 8091.9)"><g transform="translate(174.52 430.83)"><path d="m0 0c0 0.727-0.484 1.225-1.135 1.225-0.443 0-0.851-0.256-1.038-0.63v-1.197c0.187-0.374 0.595-0.63 1.038-0.63 0.651 0 1.135 0.498 1.135 1.232m0.574 0c0-1.087-0.761-1.73-1.598-1.73-0.498 0-0.907 0.235-1.149 0.567v-1.398c0-0.131-0.076-0.214-0.298-0.214-0.11 0-0.214 0.014-0.27 0.028v4.408c0.056 0.014 0.16 0.028 0.27 0.028 0.222 0 0.298-0.083 0.298-0.215v-0.318c0.242 0.332 0.651 0.567 1.149 0.567 0.837 0 1.598-0.643 1.598-1.723" fill="#a20b29"/></g><g transform="translate(177.84 432.24)"><path d="m0 0c0-0.228-0.097-0.277-0.332-0.277-0.478 0-0.879-0.221-1.128-0.74v-1.876c0-0.138-0.076-0.214-0.305-0.214-0.097 0-0.207 0.014-0.263 0.027v3.329c0.056 0.014 0.166 0.028 0.263 0.028 0.229 0 0.305-0.083 0.305-0.215v-0.463c0.325 0.491 0.816 0.74 1.432 0.657 7e-3 -0.048 0.028-0.152 0.028-0.256" fill="#a20b29"/></g><g transform="translate(178.61 431.06)"><path d="m0 0h2.042c-0.021 0.567-0.388 1.01-0.976 1.01-0.512 0-0.976-0.353-1.066-1.01m2.574-0.443h-2.574c0.076-0.644 0.519-1.003 1.177-1.003 0.283 0 0.505 0.055 0.712 0.124 0.146 0.049 0.208 0.069 0.263 0.069 0.159 0 0.263-0.131 0.236-0.436-0.298-0.131-0.755-0.276-1.232-0.276-1.038 0-1.737 0.699-1.737 1.737 0 0.996 0.74 1.716 1.647 1.716 1.024 0 1.529-0.796 1.529-1.599 0-0.097-7e-3 -0.214-0.021-0.332" fill="#a20b29"/></g><g transform="translate(186.54 431.35)"><path d="m0 0v-2c0-0.138-0.076-0.215-0.305-0.215-0.096 0-0.207 0.014-0.263 0.028v2.118c0 0.484-0.228 0.768-0.664 0.768-0.367 0-0.671-0.256-0.796-0.519v-2.18c0-0.138-0.076-0.215-0.304-0.215-0.097 0-0.208 0.014-0.263 0.028v2.118c0 0.484-0.229 0.768-0.665 0.768-0.366 0-0.671-0.256-0.795-0.519v-2.18c0-0.138-0.077-0.215-0.305-0.215-0.097 0-0.208 0.014-0.263 0.028v3.329c0.055 0.014 0.166 0.028 0.27 0.028 0.215 0 0.291-0.083 0.291-0.229v-0.228c0.214 0.284 0.546 0.491 0.948 0.491 0.443 0 0.789-0.221 0.962-0.602 0.228 0.346 0.574 0.602 1.065 0.602 0.713 0 1.087-0.533 1.087-1.204" fill="#a20b29"/></g><g transform="translate(187.41 429.16)"><path d="m0 0v3.142c0 0.131 0.076 0.214 0.305 0.214 0.096 0 0.2-0.013 0.256-0.027v-3.142c0-0.139-0.07-0.215-0.298-0.215-0.097 0-0.208 0.014-0.263 0.028m-0.076 4.083c0 0.208 0.166 0.36 0.36 0.36 0.207 0 0.367-0.152 0.367-0.36 0-0.187-0.16-0.36-0.367-0.36-0.194 0-0.36 0.173-0.36 0.36" fill="#a20b29"/></g><g transform="translate(189.24 431.06)"><path d="m0 0h2.042c-0.021 0.567-0.388 1.01-0.976 1.01-0.512 0-0.976-0.353-1.066-1.01m2.574-0.443h-2.574c0.076-0.644 0.519-1.003 1.177-1.003 0.283 0 0.505 0.055 0.712 0.124 0.146 0.049 0.208 0.069 0.263 0.069 0.159 0 0.263-0.131 0.236-0.436-0.298-0.131-0.755-0.276-1.232-0.276-1.038 0-1.737 0.699-1.737 1.737 0 0.996 0.74 1.716 1.647 1.716 1.024 0 1.529-0.796 1.529-1.599 0-0.097-7e-3 -0.214-0.021-0.332" fill="#a20b29"/></g><g transform="translate(194.57 432.24)"><path d="m0 0c0-0.228-0.097-0.277-0.332-0.277-0.478 0-0.879-0.221-1.128-0.74v-1.876c0-0.138-0.076-0.214-0.305-0.214-0.097 0-0.207 0.014-0.263 0.027v3.329c0.056 0.014 0.166 0.028 0.263 0.028 0.229 0 0.305-0.083 0.305-0.215v-0.463c0.325 0.491 0.816 0.74 1.432 0.657 7e-3 -0.048 0.028-0.152 0.028-0.256" fill="#a20b29"/></g><g transform="translate(195.35 431.06)"><path d="m0 0h2.042c-0.021 0.567-0.388 1.01-0.976 1.01-0.512 0-0.976-0.353-1.066-1.01m2.574-0.443h-2.574c0.076-0.644 0.519-1.003 1.177-1.003 0.283 0 0.505 0.055 0.712 0.124 0.146 0.049 0.208 0.069 0.263 0.069 0.159 0 0.263-0.131 0.236-0.436-0.298-0.131-0.755-0.276-1.232-0.276-1.038 0-1.737 0.699-1.737 1.737 0 0.996 0.74 1.716 1.647 1.716 1.024 0 1.529-0.796 1.529-1.599 0-0.097-7e-3 -0.214-0.021-0.332" fill="#a20b29"/></g><g transform="translate(201.57 431.14)"><path d="m0 0v-1.792c0-0.132-0.076-0.215-0.305-0.215-0.096 0-0.207 0.014-0.263 0.028v1.903c0 0.664-0.325 0.983-0.816 0.983-0.381 0-0.796-0.263-0.962-0.575v-2.124c0-0.132-0.076-0.215-0.305-0.215-0.096 0-0.207 0.014-0.263 0.028v3.329c0.056 0.013 0.167 0.027 0.263 0.027 0.229 0 0.305-0.083 0.305-0.214v-0.284c0.242 0.298 0.609 0.533 1.1 0.533 0.678 0 1.246-0.429 1.246-1.412" fill="#a20b29"/></g></g><g transform="matrix(2.2624 0 0 2.2624 -25376 998.36)" fill="#9b001f" style="shape-inside:url(#rect6291);white-space:pre" aria-label="+24"><path d="m11499-111.19q-0.52 0-1.04-0.04-0.48-0.08-0.76-0.12v-8.48h-7.84q-0.16-0.6-0.16-1.76 0-1.12 0.44-1.48 0.48-0.36 1.2-0.36h6.36v-6.76q0-0.68 0.4-1.12t1.48-0.44q0.52 0 1 0.08 0.52 0.04 0.8 0.08v8.16h7.96q0.16 0.6 0.16 1.76 0 1.12-0.48 1.48-0.44 0.36-1.16 0.36h-6.48v7.08q0 0.68-0.4 1.12t-1.48 0.44z"/><path d="m11512-111.23q-0.08-0.32-0.12-0.76-0.04-0.48-0.04-1 0-0.68 0.28-1.6t0.96-1.48l7.2-6.48q1.16-1 2.04-1.84t1.48-1.64 0.92-1.6 0.32-1.72q0-1.92-1.16-3.04-1.16-1.16-3.56-1.16-1.2 0-2.16 0.32-0.92 0.32-1.68 0.72-0.72 0.4-1.32 0.72t-1.12 0.32q-0.88 0-1.44-0.8-0.52-0.84-0.6-2.28 1.4-1.12 3.56-2.04 2.2-0.92 4.96-0.92 4.32 0 6.68 2.2t2.36 5.8q0 1.4-0.44 2.6-0.4 1.2-1.16 2.28t-1.76 2.04-2.2 1.88l-6.24 5.4h12.04q0.2 0.72 0.2 1.92 0 1.24-0.52 1.72-0.48 0.44-1.24 0.44z"/><path d="m11546-110.99q-0.64 0-1.24-0.08-0.6-0.04-0.92-0.12v-5.84h-12.08q-0.08-0.32-0.16-0.8t-0.08-1.12q0-0.72 0.24-1.4t0.8-1.48l10.88-15.4h4.72v16.32h4q0.2 0.72 0.2 1.84 0 1.16-0.52 1.6-0.48 0.44-1.16 0.44h-2.52v4.24q0 0.76-0.48 1.28-0.44 0.52-1.68 0.52zm-9.68-9.88h7.52v-10.64z"/></g></svg>
