<svg width="850" height="850" version="1.1" viewBox="0 0 224.9 224.9" xmlns="http://www.w3.org/2000/svg">
 <defs>
  <linearGradient id="linearGradient9719" x1="365.41" x2="359.57" y1="1091.1" y2="923.62" gradientTransform="translate(0,-828.02)" gradientUnits="userSpaceOnUse">
   <stop stop-color="#fff" offset="0"/>
   <stop stop-color="#fff" stop-opacity=".8347" offset=".1203"/>
   <stop stop-color="#fff" stop-opacity=".6576" offset=".2693"/>
   <stop stop-color="#fff" stop-opacity=".5107" offset=".4195"/>
   <stop stop-color="#fff" stop-opacity=".3965" offset=".5684"/>
   <stop stop-color="#fff" stop-opacity=".3152" offset=".7156"/>
   <stop stop-color="#fff" stop-opacity=".2664" offset=".8603"/>
   <stop stop-color="#fff" stop-opacity=".25" offset="1"/>
  </linearGradient>
  <linearGradient id="linearGradient60463-0" x1="211.22" x2="807.74" y1="66.147" y2="66.147" gradientUnits="userSpaceOnUse">
   <stop stop-color="#ff9e00" offset="0"/>
   <stop stop-color="#ff9600" offset=".044283"/>
   <stop stop-color="#be006e" offset=".49911"/>
   <stop stop-color="#056af1" offset=".95417"/>
   <stop stop-color="#0071ff" offset="1"/>
  </linearGradient>
  <linearGradient id="linearGradient9737" x1="1279.6" x2="1273" y1="1197.7" y2="1016.9" gradientTransform="matrix(.21428 0 0 .21428 -156.41 -152.39)" gradientUnits="userSpaceOnUse">
   <stop stop-color="#fff" offset="0"/>
   <stop stop-color="#fff" stop-opacity=".8347" offset=".1203"/>
   <stop stop-color="#fff" stop-opacity=".6576" offset=".2693"/>
   <stop stop-color="#fff" stop-opacity=".5107" offset=".4195"/>
   <stop stop-color="#fff" stop-opacity=".3965" offset=".5684"/>
   <stop stop-color="#fff" stop-opacity=".3152" offset=".7156"/>
   <stop stop-color="#fff" stop-opacity=".2664" offset=".8603"/>
   <stop stop-color="#fff" stop-opacity=".25" offset="1"/>
  </linearGradient>
 </defs>
 <g transform="translate(-9.3806 27.787)">
  <path d="m9.3806 67.463h224.9v74.083h-224.9z" fill="#efefef" stop-color="#000000" stroke-width=".14591" style="font-variation-settings:normal"/>
  <path d="m9.3806-27.787h224.9v95.25h-224.9z" fill="#fff" stop-color="#000000" stroke-width=".11206" style="font-variation-settings:normal"/>
  <path d="m9.3806 141.55h224.9v55.562h-224.9z" fill="#fff" stop-color="#000000" stroke-width=".06537" style="font-variation-settings:normal"/>
  <g transform="matrix(.1704 0 0 .1704 60.144 -22.112)">
   <path d="m84.4 120.2c-55.9 6.1-84.4 39.7-84.4 79.8 0 33 24 64.1 69 72.7l54.2 10.4c19.8 3.8 30 8.2 30 19 0 8.2-7.7 16.9-33.2 16.9-23.1 0-54.2-3.5-74-3.5-19 0-39.2 8.6-39.2 46 0 4.6 0.8 10.4 1.8 15 28.5 3.3 88.2 8.5 129.6 4 57.1-6.1 85.2-37.5 85.2-80.4 0-37-22.9-67.1-75.9-76.9l-51.7-9.6c-16.6-2.9-26.9-6.7-26.9-16.1 0-8.9 10.9-16.1 37.3-16.1 25.9 0 48.7 2.7 63.2 2.7 19 0 38.8-8.1 38.8-45.5 0-5-0.6-9.6-1.6-14.4-20.3-2.5-52.6-5.8-84.8-5.8-12.8-0.1-25.5 0.49999-37.4 1.8m321.4 28.9-86.5 94.4 69.5 109.4c12.9 20 29.8 30.1 57.3 30.1 18 0 33-4.2 40-7.5l-83.8-126 59.4-62.9 97.4 152.7-59.4 125c6 3 18 6.7 33.2 7 26.2 0.6 40.3-9.4 51-32.8l140.1-312c-5.8-3.1-18.7-6.6-29-6.7-18-0.4-42.3 3.2-57.7 40.1l-45.3 106.9-89-144.6c-5.8-1.8-19.8-4.2-30-4.2-31.5-0.1-49 11.4-67.2 31.1m-160-72.8v305c5 0.8 10.2 1.1 16.1 1.1 45 0 54-13.2 54-36.2v-315.6c-5.4-1.1-11.1-1.8-16.9-1.8-45.4 0.1-53.2 24.2-53.2 47.5" fill="#ff9d00" stop-color="#000000" style="font-variation-settings:normal"/>
   <path d="m0 200c0-40.1 28.5-73.7 84.4-79.8 11.9-1.3 24.6-1.9 37.2-1.6 32.2 0 64.5 3.3 84.8 5.8 1 4.8 1.6 9.4 1.6 14.4 0 37.4-19.8 45.5-38.8 45.5-14.5 0-37.3-2.7-63.2-2.7-26.4 0-37.3 7.2-37.3 16.1 0 9.4 10.3 13.2 26.9 16.1l51.7 9.6c53 9.8 75.9 39.9 75.9 76.9 0 2.7-0.1 5.3-0.3 7.8v0.69999h-0.1c1.1-19.7-11.4-39.3-34.4-38.5-9.9 0.3-55.6 1.9-61.7 2.1-19.7 0.8-46.3-1-57.8-3-13.9-2.4-27.9-5.9-41.5-14.8-18-14.2-27.4-34-27.4-54.6zm263.1 67.8c7.5-0.2 28.8-1 35.1-1.2 6.9-0.2 17.6-5 17.8-17.9v-218c-0.2 0-0.3-0.1-0.5-0.1h-35.3c-28.9 5.9-34.5 26.1-34.5 45.7v209.1c0.1-8.4 6.6-17.3 17.4-17.6zm238.6-18.7c7.2 9.4 18.1 9.6 20.4 9.5 2.1 0 54.3-1.9 56.7-2 3.7-0.1 7.8 1.9 11 6.4l-86.8-140.9c-5.8-1.8-19.8-4.2-30-4.2-31.5 0-49 11.5-67.2 31.2l-86.5 94.4 6.9 10.9c2.9 4 8.9 10.8 20.5 10.3 4.1-0.1 45.9-1.6 49.3-1.7 10.8-0.4 17.6 4.2 21.8 9.7l-15.4-23.2 59.4-62.9zm222.2-122.6c-5.8-3.1-18.7-6.6-28.9-6.7-0.8-0.1-1.5-0.1-2.2-0.1-17.8 0.1-40.7 4.9-55.5 40.2l-44.2 104.3c0.1-0.1 2.9-8.1 11.5-8.5 0 0 43.5-1.5 46.8-1.6 14.2-0.49999 19.9-10.3 21.3-13.4l51.2-114.1z" enable-background="new    " fill="url(#linearGradient9719)" opacity=".35"/>
  </g>
  <g transform="matrix(.11966 0 0 .11966 -124.46 137.89)" fill="#0071ff">
   <path d="m2034.6 153.8v184.7c0 8.1-4.1 12.6-16.7 12.6-5.7 0-11-0.8-15.1-1.6v-85h-105.4v74.1c0 8.1-4.1 12.6-16.7 12.6-6.1 0-12.2-0.8-15.1-1.6v-184.8c0-7.8 4.1-12.6 17.1-12.6 5.7 0 11.3 0.8 14.6 1.6v82.2h104.9v-71.2c0-7.8 4.5-12.6 17.5-12.6 6 0 11.6 0.8 14.9 1.6"/>
   <path d="m2250.8 251.4c0 55.4-38.7 97.3-99.3 97.3h-56.5c-12.2 0-16.7-4.9-16.7-12.6v-168.9c0-7.7 4.5-12.6 16.7-12.6h56.5c60.6 0 99.3 41.5 99.3 96.8m-32.2 0c0-41.5-26-68.4-67.1-68.4h-41.5v137.1h41.5c41.1 0.1 67.1-26.8 67.1-68.7"/>
  </g>
  <g transform="matrix(.38441 0 0 .38441 -73.663 79.076)" fill="url(#linearGradient60463-0)" stop-color="#000000" stroke-width="3.2945" style="font-variation-settings:normal">
   <path d="m751.77 35.549c-8.821 0-16.144 3.0195-21.967 9.0572-5.9094 6.0375-8.8632 13.66-8.8632 22.866 0 9.6773 3.0397 17.555 9.1202 23.635 6.0378 6.0378 13.873 9.0572 23.508 9.0572 7.8791 0 15.501-1.7125 22.866-5.1381 0.0857-0.85644 0.12947-1.6269 0.12947-2.312 0-3.8967-1.3911-5.8464-4.1745-5.8464-0.94203 0-2.6343 0.45092-5.0752 1.3501-5.2669 1.7556-9.6977 2.6337-13.295 2.6337-13.017 0-20.405-6.2309-22.161-18.692h48.047c0.34249-2.0126 0.51417-4.2179 0.51417-6.616 0-8.1358-2.377-15.009-7.13-20.619-5.3097-6.2516-12.483-9.3771-21.518-9.3771zm0 9.2496c5.3526 0 9.6993 1.7983 13.039 5.3951 3.1687 3.4684 4.8594 7.9009 5.0735 13.296h-38.154c0.77075-5.9093 3.0838-10.555 6.9376-13.938 3.5969-3.1687 7.9638-4.7533 13.102-4.7533z" stop-color="#000000" style="font-variation-settings:normal"/>
   <path d="m622.76 35.977c-8.1358 0-16.015 1.477-23.637 4.4314-0.12849 1.0277-0.1924 1.9495-0.1924 2.7631 0 3.6398 1.3053 5.46 3.9175 5.46 0.47098 0 1.9059-0.32121 4.3039-0.96361 5.909-1.5415 11.026-2.3137 15.351-2.3137 5.1384 0 8.7785 1.1775 10.92 3.5327 2.1838 2.3123 3.2756 6.0602 3.2756 11.241v1.5407c-2.7833-0.17131-5.4396-0.25697-7.9658-0.25697-9.3778 0-17 1.3071-22.866 3.9191-7.5365 3.4256-11.304 8.7565-11.304 15.993 0 5.3097 1.8201 9.7422 5.46 13.296 3.9396 3.8539 9.2065 5.7799 15.801 5.7799 8.4784 0 15.438-3.0616 20.876-9.1851v4.6238c0 2.4836 1.99 3.7267 5.9723 3.7267 1.7128 0 3.2756-0.15155 4.6887-0.45115v-39.501c0-15.758-8.113-23.637-24.342-23.637zm8.4784 33.271c1.7556 0 3.5758 0.04382 5.46 0.12947v11.625c-4.753 7.1939-11.133 10.79-19.141 10.79-3.7254 0-6.7448-1.0261-9.0572-3.0815-2.1839-1.9269-3.2756-4.3039-3.2756-7.13 0-8.2214 8.6718-12.333 26.014-12.333z" stop-color="#000000" style="font-variation-settings:normal"/>
   <path d="m393.65 35.681c-9.1636 0-16.785 3.0616-22.866 9.1847-6.1232 6.166-9.1847 13.874-9.1847 23.123 0 9.2493 3.0397 16.977 9.1202 23.186 6.1232 6.2088 13.767 9.3142 22.931 9.3142 9.2065 0 16.87-3.0835 22.994-9.2496 6.1232-6.2088 9.1847-13.959 9.1847-23.251 0-9.2493-3.0397-16.937-9.1202-23.06-6.1235-6.166-13.809-9.248-23.059-9.248zm0 9.3771c6.0375 0 11.047 2.0556 15.03 6.1663 4.1965 4.2394 6.2941 9.8275 6.2941 16.764s-2.0977 12.545-6.2941 16.827c-3.9824 4.1109-8.9917 6.1663-15.03 6.1663-5.9522 0-10.941-2.0557-14.967-6.1663-4.1537-4.325-6.2292-9.9332-6.2292-16.827 0-6.9369 2.0758-12.525 6.2292-16.764 3.9824-4.1109 8.9716-6.1663 14.967-6.1663z" stop-color="#000000" style="font-variation-settings:normal"/>
   <path d="m437.04 36.372c1.5896 0 2.9976 0.32121 4.2239 0.96361 1.1808 0.6423 2.0428 1.7997 2.5878 3.4698l11.446 45.859 15.806-49.2 0.68098-0.25697c1.7713-0.55651 3.5422-0.83591 5.3134-0.83591 2.5888 0 4.3823 0.36506 5.3816 1.093 0.99919 0.68512 1.8174 2.0544 2.4532 4.1099l13.897 45.089 12.127-46.311c0.68127-2.6549 2.679-3.9821 5.9943-3.9821 1.953 0 3.907 0.40713 5.8599 1.2207l-16.623 57.166c-0.49961 1.8413-1.59 3.1282-3.2705 3.8562-1.6351 0.6424-3.2471 0.96361-4.8366 0.96361-0.59041 0-1.6582-0.08566-3.2024-0.25697-1.2717-0.12882-2.2016-0.28003-2.792-0.45118l-0.68269-0.25532-14.919-47.21-14.034 43.099c-0.63588 2.0554-1.749 3.4263-3.3386 4.1115-1.4988 0.64233-3.1562 0.9619-4.973 0.9619-0.36335 0-1.4311-0.08401-3.2024-0.25532-1.7259-0.2998-2.7709-0.53522-3.1343-0.70654l-0.54478-0.25697-0.13606-0.57884-16.691-59.927 1.0215-0.38476c0.40875-0.17131 1.227-0.40671 2.4532-0.7065 0.99922-0.25697 2.0443-0.38648 3.1343-0.38648z" stop-color="#000000" style="font-variation-settings:normal"/>
   <path d="m685.55 35.681c8.4356 0 15.993 1.2835 22.674 3.8526 0.12849 0.94203 0.19405 1.7983 0.19405 2.5691 0 3.7682-1.3071 5.652-3.9191 5.652-0.42822 0-2.7833-0.53493-7.0654-1.6054-4.2822-1.0277-8.2418-1.5408-11.882-1.5408-9.078 0-13.618 2.7184-13.618 8.1565 0 3.6826 3.4905 6.4869 10.47 8.4135l11.304 3.1479c11.861 3.2543 17.791 9.0563 17.791 17.406 0 5.3526-2.0338 9.7211-6.1017 13.104-4.6248 3.7682-11.219 5.6524-19.783 5.6524h-1.0266c-7.922 0-15.673-1.4349-23.253-4.3039-0.0857-0.85644-0.12783-1.6269-0.12783-2.312 0-3.9824 1.413-5.9739 4.2394-5.9739 0.47098 0 3.0178 0.53493 7.6426 1.6054 4.6673 1.0705 8.9722 1.6054 12.911 1.6054 9.7629 0 14.643-2.89 14.643-8.6708 0-3.9396-3.7679-6.9791-11.304-9.1202l-10.918-3.0185c-11.433-3.0831-17.151-8.7149-17.151-16.894 0-5.0956 1.9278-9.2272 5.7815-12.396 4.3247-3.5541 10.49-5.3305 18.497-5.3305z" stop-color="#000000" style="font-variation-settings:normal"/>
   <path d="m562.37 35.681c7.1276 0 14.078 1.5627 20.852 4.6887 0.0886 0.72795 0.13277 1.3907 0.13277 1.9902 0 3.9824-1.5062 5.9739-4.5168 5.9739-0.66407 0-2.7217-0.5568-6.1749-1.6701-3.4974-1.0705-6.9287-1.6054-10.293-1.6054-5.9766 0-11.025 2.0556-15.142 6.1663-4.2944 4.3247-6.4404 9.9132-6.4404 16.764 0 6.8512 2.1461 12.46 6.4404 16.827 4.1171 4.1109 9.1653 6.1663 15.142 6.1663 3.3647 0 6.7959-0.53493 10.293-1.6054 3.4533-1.0705 5.5107-1.6054 6.1749-1.6054 3.0105 0 4.5168 1.9698 4.5168 5.9093 0 0.6423-0.0441 1.305-0.13277 1.9902-6.7735 3.2115-13.724 4.8179-20.852 4.8179-9.3412-0.12849-17.134-3.2978-23.377-9.5066-6.2424-6.2088-9.362-13.917-9.362-23.123 0-9.2065 3.1418-16.87 9.4282-22.994 6.2424-6.1232 14.013-9.1847 23.31-9.1847z" stop-color="#000000" style="font-variation-settings:normal"/>
   <path d="m261.02 35.681c8.4356 0 15.994 1.2835 22.674 3.8526 0.12849 0.94203 0.19237 1.7983 0.19237 2.5691 0 3.7682-1.3054 5.652-3.9175 5.652-0.42819 0-2.7833-0.53493-7.0654-1.6054-4.2819-1.0277-8.2435-1.5408-11.883-1.5408-9.078 0-13.616 2.7184-13.616 8.1565 0 3.6826 3.4905 6.4869 10.47 8.4135l11.304 3.1479c11.861 3.2543 17.791 9.0563 17.791 17.406 0 5.3526-2.0338 9.7211-6.1017 13.104-4.6245 3.7682-11.219 5.6524-19.783 5.6524h-1.0283c-7.9216 0-15.672-1.4349-23.251-4.3039-0.0857-0.85644-0.1277-1.6269-0.1277-2.312 0-3.9824 1.413-5.9739 4.239-5.9739 0.47101 0 3.0178 0.53493 7.6426 1.6054 4.6673 1.0705 8.9706 1.6054 12.91 1.6054 9.7629 0 14.645-2.89 14.645-8.6708 0-3.9396-3.7682-6.9791-11.304-9.1202l-10.918-3.0185c-11.433-3.0831-17.151-8.7149-17.151-16.894 0-5.0956 1.9278-9.2272 5.7815-12.396 4.3247-3.5541 10.49-5.3305 18.497-5.3305z" stop-color="#000000" style="font-variation-settings:normal"/>
   <path d="m301.93 14.398c3.5113 0 5.2659 1.413 5.2659 4.239v26.526c5.7809-6.3373 12.826-9.505 21.133-9.505 6.8084 0 12.289 2.1195 16.443 6.3587 4.6245 4.7101 6.9376 11.476 6.9376 20.297v33.143c0 2.7405-1.9278 4.1115-5.7815 4.1115-1.8413 0-3.4899-0.15155-4.9457-0.45118v-35.518c0-12.375-5.1374-18.562-15.414-18.562-8.1786 0-14.26 3.6183-18.242 10.855v39.567c0 2.7405-1.884 4.1115-5.6524 4.1115-2.2695 0-3.876-0.19339-4.8179-0.57884v-84.076c1.4559-0.3425 3.1482-0.51414 5.0752-0.51414z" stop-color="#000000" style="font-variation-settings:normal"/>
  </g>
  <path d="m9.3809 67.463v52.46c0-0.6938 0.23178-5.8681 3.7507-6.6089l217.26-19.574c1.9833-0.42336 3.8891-2.5281 3.8891-6.4322v-19.845z" fill="url(#linearGradient9737)" opacity=".3" stop-color="#000000" style="font-variation-settings:normal"/>
 </g>
</svg>
