<svg id="e" version="1.1" viewBox="0 0 569.45 173.47" xmlns="http://www.w3.org/2000/svg">
 <defs id="f">
  <style id="g">.cls-1{fill:url(#d);}.cls-2{fill:#a1a2a2;}.cls-3{fill:url(#c);}.cls-4{fill:#fff;}.cls-5{fill:#ae2c3f;}.cls-6{opacity:0.4;}</style>
  <linearGradient id="d" x1="-3667.1" x2="-3667.1" y1="2.33" y2="106.34" gradientTransform="matrix(-1 0 0 1 -3382.4 0)" gradientUnits="userSpaceOnUse">
   <stop id="h" stop-color="#868685" offset="0"/>
   <stop id="i" stop-color="#d8d9d9" offset=".02"/>
   <stop id="j" stop-color="#f5f5f5" offset=".05"/>
   <stop id="k" stop-color="#edeeee" offset=".49"/>
   <stop id="l" stop-color="#f5f5f5" offset=".9"/>
   <stop id="m" stop-color="#ebebec" offset=".93"/>
   <stop id="n" stop-color="#d8d9d9" offset=".96"/>
   <stop id="o" stop-color="#868685" offset="1"/>
  </linearGradient>
  <linearGradient id="c" x1="378.87" x2="378.87" y1="105.52" y2="3.22" gradientUnits="userSpaceOnUse">
   <stop id="p" stop-color="#820021" offset="0"/>
   <stop id="q" stop-color="#ae2c3f" offset=".1"/>
   <stop id="r" stop-color="#ae2c3f" offset=".9"/>
   <stop id="s" stop-color="#ba3c4c" offset="1"/>
  </linearGradient>
  <linearGradient id="b" x1="-3666.4" x2="-3666.4" y1="2.8792" y2="106.89" gradientTransform="matrix(-1 0 0 1 -3381.7 0)" gradientUnits="userSpaceOnUse">
   <stop id="t" stop-color="#868685" offset="0"/>
   <stop id="u" stop-color="#D8D9D9" offset=".020448"/>
   <stop id="v" stop-color="#F5F5F5" offset=".052404"/>
   <stop id="w" stop-color="#EDEEEE" offset=".4877"/>
   <stop id="x" stop-color="#F5F5F5" offset=".8955"/>
   <stop id="y" stop-color="#EBEBEC" offset=".9294"/>
   <stop id="z" stop-color="#D8D9D9" offset=".9643"/>
   <stop id="aa" stop-color="#868685" offset="1"/>
  </linearGradient>
  <linearGradient id="a" x1="378.87" x2="378.87" y1="106.07" y2="3.7692" gradientUnits="userSpaceOnUse">
   <stop id="ab" stop-color="#820021" offset="0"/>
   <stop id="ac" stop-color="#AE2C3F" offset=".1044"/>
   <stop id="ad" stop-color="#AE2C3F" offset=".9017"/>
   <stop id="ae" stop-color="#BA3C4C" offset="1"/>
  </linearGradient>
 </defs>
 <g id="af" transform="matrix(1.0001 0 0 1.0001 3.34e-6 -.5296)">
  <g id="ag">
   <path id="ah" class="st0" d="m15 106.1c-8.1 0-11-4.8-11-12.7v-77c0-7.9 2.9-12.6 11-12.6h539.5c8.1 0 10.9 4.8 10.9 12.7v76.9c0 7.9-2.9 12.7-10.9 12.7h-539.5z" fill="url(#b)"/>
   <path id="ai" class="st1" d="m16.2 108.3c-8.1 0-13.5-4.8-13.5-12.7v-81.4c0-7.9 5.5-12.7 13.5-12.7h537.1c8.1 0 13.5 4.8 13.5 12.7v81.4c0 7.9-5.5 12.7-13.5 12.7h-537.1zm537.6 1c12 0 15.6-7.4 15.6-14.9v-79c0-7.4-3.6-14.9-15.6-14.9h-538.2c-12 0.1-15.6 7.5-15.6 14.9v79c0 7.4 3.6 14.9 15.6 14.9z" fill="#a1a2a2"/>
   <path id="aj" class="st2" d="m554.5 3.8h-362.2v102.3h362.2c8.1 0 10.9-4.8 10.9-12.7v-77c0-7.9-2.8-12.6-10.9-12.6z" fill="url(#a)"/>
   <g id="ak" fill="#fff">
    <path id="al" class="st3" d="m242.8 87.2c-4.5 0-8.7-0.8-12.6-2.4-3.8-1.6-7.2-3.9-10-6.8s-5-6.3-6.6-10.3-2.4-8.3-2.4-12.9c0-4.5 0.8-8.7 2.4-12.6s3.8-7.3 6.6-10.2 6.1-5.1 10-6.8c3.8-1.6 8-2.4 12.6-2.4 3.3 0 6.4 0.4 9.5 1.1s5.9 1.6 8.5 2.7c0.6 8.5-1.5 12.8-6.2 12.8-0.8 0-1.6-0.1-2.3-0.3s-1.5-0.4-2.3-0.6-1.8-0.4-2.8-0.6-2.2-0.3-3.6-0.3c-2.2 0-4.3 0.4-6.3 1.2s-3.7 2-5.1 3.5-2.6 3.3-3.4 5.4-1.2 4.5-1.2 7.1c0 2.8 0.4 5.2 1.2 7.4s2 4 3.4 5.5 3.1 2.7 5.1 3.5 4.1 1.2 6.3 1.2c1.4 0 2.6-0.1 3.7-0.3s2.1-0.4 2.9-0.6c0.9-0.2 1.7-0.4 2.4-0.6 0.8-0.2 1.6-0.3 2.4-0.3 4.7 0 6.7 4.3 6.2 12.8-2.6 1.1-5.5 2-8.8 2.7-3.1 0.7-6.3 1.1-9.6 1.1z"/>
    <path id="am" class="st3" d="m275.9 86.4c-1.3 0-2.7-0.1-4-0.2s-2.4-0.3-3.3-0.5v-55.6c0-1.9 0.6-3.4 1.7-4.8 1.1-1.3 3.3-2 6.5-2 1.3 0 2.7 0.1 4 0.2s2.4 0.3 3.3 0.5v55.6c0 1.9-0.6 3.4-1.7 4.8-1.2 1.4-3.3 2-6.5 2z"/>
    <path id="an" class="st3" d="m302.1 86.4c-1.3 0-2.5-0.1-3.7-0.2s-2.2-0.3-3.1-0.5v-61.1c1-0.3 2.2-0.6 3.7-0.8s2.8-0.3 3.9-0.3c3.5 0 6.1 0.4 7.7 1.3s2.9 2.2 4 3.9l21.8 34.3v-33.5c0-0.8 0.1-1.6 0.3-2.4 0.2-0.7 0.6-1.4 1.1-2s1.3-1 2.3-1.3 2.2-0.5 3.6-0.5c1.3 0 2.5 0.1 3.7 0.2s2.2 0.3 3 0.4v61.3c-0.9 0.4-2 0.8-3.3 0.9-1.3 0.2-2.5 0.2-3.7 0.2-3 0-5.2-0.4-6.7-1.2s-2.7-2-3.6-3.5l-23.3-37.3v35.6c0 1.8-0.5 3.3-1.6 4.5-1.1 1.4-3.1 2-6.1 2z"/>
    <path id="ao" class="st3" d="m370.1 86c-1.8 0-3.2-0.2-4.4-0.6-1.1-0.4-2-0.9-2.6-1.6s-1-1.5-1.2-2.4c-0.2-1-0.3-2-0.3-3.1v-47c0-1.1 0.1-2.1 0.3-3.1s0.6-1.8 1.2-2.4c0.6-0.7 1.5-1.2 2.6-1.6s2.6-0.6 4.4-0.6h31.7c0.1 0.7 0.3 1.7 0.4 2.9s0.2 2.5 0.2 3.7c0 2.7-0.5 4.6-1.6 5.7s-2.5 1.7-4.1 1.7h-19.5v10.9h22.5c0.1 0.6 0.3 1.5 0.4 2.5 0.1 1.1 0.2 2.2 0.2 3.4 0 2.6-0.5 4.3-1.5 5.2s-2.3 1.4-3.8 1.4h-17.7v11h25.7c0.1 0.7 0.3 1.7 0.4 2.9s0.2 2.5 0.2 3.7c0 2.8-0.5 4.7-1.6 5.8s-2.5 1.6-4.1 1.6z"/>
    <path id="ap" class="st3" d="m416.2 86.4c-1.5 0-2.8-0.1-3.9-0.4s-2.1-0.6-2.9-1l5.9-59.8c1.2-0.5 2.8-0.9 4.8-1.2s3.7-0.5 5.1-0.5c2 0 3.7 0.1 5.1 0.4s2.7 0.7 3.7 1.3 1.8 1.5 2.4 2.5c0.6 1.1 1.1 2.4 1.4 4l2.5 11.6c0.7 3.2 1.5 6.7 2.3 10.6s1.5 7.9 2.2 12h0.4c0.7-4.1 1.4-8.1 2.2-11.9s1.6-7.4 2.4-10.6l3.1-12.2c0.8-3 2-5.1 3.7-6.1 1.7-1.1 4.3-1.6 7.9-1.6 1.8 0 3.6 0.1 5.4 0.4s3.3 0.6 4.5 0.9l5.6 60.2c-0.9 0.3-2 0.6-3.2 1-1.2 0.3-2.6 0.5-4.1 0.5-2 0-3.8-0.4-5.2-1.1s-2.2-2-2.3-3.9l-1.4-20.7c-0.3-3.6-0.6-7.5-0.8-11.5s-0.4-7.8-0.4-11.4h-0.2c-0.8 3.3-1.7 6.9-2.5 10.8-0.9 3.9-1.7 7.4-2.6 10.7l-3.9 16.3c-1 3.8-4 5.8-9.1 5.8-1.3 0-2.6-0.1-3.9-0.4s-2.5-0.5-3.4-0.9l-4.9-20.4c-1-3.8-1.9-7.5-2.7-11.1s-1.6-7.3-2.3-10.9h-0.3c-0.2 5.1-0.4 9.8-0.8 14.1-0.3 4.3-0.6 7.9-0.9 11l-1.5 18.7c-0.1 1.9-0.8 3.1-2.1 3.8-1.6 0.7-3.3 1-5.3 1z"/>
    <path id="aq" class="st3" d="m491.6 86.6c-1.2 0-2.6-0.1-4.2-0.3s-2.9-0.5-3.9-0.9l19.9-60.9c1.7-0.4 3.5-0.8 5.2-1 1.8-0.2 3.4-0.3 4.9-0.3 2.1 0 3.9 0.2 5.4 0.5s2.8 0.8 3.8 1.4 1.9 1.5 2.5 2.5c0.7 1.1 1.2 2.3 1.7 3.7l17 53.9c-1.1 0.4-2.4 0.8-3.9 1s-3 0.3-4.5 0.3c-1.7 0-3.3-0.3-4.8-0.8-1.6-0.5-2.7-1.8-3.4-3.7l-3.3-9.9h-20.9l-2.8 9.3c-0.7 2.2-1.9 3.6-3.5 4.2-1.6 0.7-3.3 1-5.2 1zm15-26.4h14.3l-7.1-23.5z"/>
   </g>
   <path id="ar" class="st4" d="m125.5 98.2c1.2 0.6 3.7 1.4 6.8 1.4 5.3 0.1 8.2-1.9 10.4-6.7l28.6-63.7c-1.2-0.6-3.8-1.3-5.9-1.4-3.7-0.1-8.6 0.7-11.8 8.2l-9.3 21.8-18.1-29.6c-1.2-0.4-4-0.9-6.1-0.9-6.4 0-10 2.4-13.7 6.4l-17.7 19.5 14.2 22.3c2.6 4.1 6.1 6.1 11.7 6.1 3.7 0 6.7-0.8 8.1-1.5l-17.1-25.8 12.1-12.8 19.9 31.2zm-37.5-24.1c0 4.7-1.8 7.4-11 7.4-1.2 0-2.3-0.1-3.3-0.2v-62.3c0-4.7 1.6-9.7 10.9-9.7 1.2 0 2.3 0.1 3.4 0.3v64.5zm-18.9-9.4c0 8.8-5.7 15.2-17.4 16.4-8.4 0.9-20.6-0.1-26.3-0.8-0.2-0.9-0.4-2.1-0.4-3 0-7.7 4.1-9.4 8-9.4 4 0 10.4 0.7 15.1 0.7 5.2 0 6.8-1.8 6.8-3.4 0-2.2-2.1-3.1-6.1-3.9l-11-2.1c-9.2-1.8-14.1-8.1-14.1-14.8 0-8.2 5.8-15.1 17.2-16.3 8.6-0.9 19.1 0.1 24.9 0.8 0.2 1 0.3 1.9 0.3 3 0 7.6-4 9.3-7.9 9.3-3 0-7.6-0.6-12.9-0.6-5.4 0-7.6 1.5-7.6 3.3 0 1.9 2.1 2.7 5.5 3.3l10.5 2c10.8 1.8 15.4 7.9 15.4 15.5z" fill="#ae2c3f"/>
   <g id="as" class="st5" display="none">
    <path id="at" class="st6" d="m194.1 175.3c-10.8 0-18.8-8.2-18.8-19.7 0-11.1 8.1-19.8 18.8-19.8 4 0 7.8 0.8 11.1 2.2 0.5 3.4-0.8 5.5-2.8 5.5-1.6 0-3.6-1.5-8-1.5-6.8 0-12.1 5.4-12.1 13.7 0 8.6 5.3 13.6 12.1 13.6 4.5 0 6.2-1.5 7.8-1.5 2.3 0 3.7 1.9 3.2 5.5-3.4 1.2-6.9 2-11.3 2z" display="inline"/>
    <path id="au" class="st6" d="m208.2 155.3c0-11.2 7.7-19.9 19-19.9 11.3-0.1 19 8.7 19 19.9s-7.7 20.2-19 20.2-19-9-19-20.2zm31.1 0c0-8-5.3-14-12.1-14-6.7 0-12.1 5.9-12.1 14 0 8.3 5.3 14.3 12 14.3s12.2-6.3 12.2-14.3z" display="inline"/>
    <path id="av" class="st6" d="m282.6 142.3h-0.1l-7.1 26.9c-0.6 2.2-2.2 2.9-4.6 2.9-1.2 0-2.6-0.2-3.5-0.5l-8.1-29.4h-0.1l-2.7 30.6c-0.2 1.7-1.4 2.2-3.2 2.2-1.3 0-2.3-0.4-3-0.7l3.9-37.6c1.1-0.5 3.2-0.8 4.5-0.8 3.6 0 5.2 1 5.9 3.6l6.5 25.8h0.1l6.5-25.6c0.7-2.7 2.6-3.8 5.8-3.8 1.6 0 3.4 0.3 4.5 0.6l3.7 37.8c-0.8 0.3-1.9 0.7-3.2 0.7-1.8 0-3.1-0.5-3.3-2.3z" display="inline"/>
    <path id="aw" class="st6" d="m301.1 174.7c-2.9 0-3.4-1.3-3.4-3.1v-32.5c0-1.8 0.5-3.1 3.4-3.1h20c0.1 0.6 0.3 1.8 0.3 3 0 2.3-1.1 3.1-2.6 3.1h-14.5v10.3h15.3c0.1 0.6 0.2 1.7 0.2 2.8 0 2.2-1 3-2.4 3h-13.2v10.4h17.3c0.1 0.7 0.2 1.7 0.2 2.8 0 2.4-1.1 3.3-2.5 3.3z" display="inline"/>
    <path id="ax" class="st6" d="m331 174.7c-2.9 0-3.4-1.3-3.4-3.1v-32.5c0-1.8 0.5-3.1 3.4-3.1h8.1c12.9 0 20.9 7.4 20.9 19 0 10.9-7.9 19.6-21 19.6h-8zm8.6-6c7.5 0 13.6-4.5 13.6-13.7 0-8.3-6.1-12.8-13.7-12.8h-5.2v26.5z" display="inline"/>
    <path id="ay" class="st6" d="m377.4 152.8 9.2-14.9c0.9-1.5 2-2 3.9-2 1.1 0 2.9 0.3 3.8 0.9l-13.8 21.5v14c0 1.5-0.8 2.8-3.4 2.8-1.2 0-2.6-0.2-3.3-0.3v-16.4l-14-21.5c1.1-0.6 2.8-1 4-1 2.1 0 3.4 0.4 4.3 1.9z" display="inline"/>
   </g>
   <g id="az">
    <g id="ba" class="st8" opacity=".4">
     <g id="bb">
      <path id="bc" class="st3" d="m555.2 82.1c6.9 6.9 7.9 13.3 8.1 14.8 0.7 0 0.9-3 0.9-7.6v-72.6c0-8.4-2.7-11.3-9.9-11.3-2.4 0-4.8 1.3-8 1.3h-523.6c-3.2 0-5.6-1.3-8-1.3-7.1 0-9.9 2.8-9.9 11.3v72.6c0 4.5 0.3 7.6 0.9 7.6 0.2-1.4 0.5-8.4 8.1-14.8 61.3-47.3 475.4-61.8 541.4 0z" fill="#fff"/>
     </g>
    </g>
   </g>
  </g>
 </g>
 <g id="bd">
  <path id="be" d="M147.79,173.06q-.89,0-1.76-.06a8.2,8.2,0,0,1-1.34-.18V134.5a6.28,6.28,0,0,1,1.66-.45,12.82,12.82,0,0,1,1.84-.15,7,7,0,0,1,3.42.63,5.65,5.65,0,0,1,1.81,1.81l17.33,26.78-.36-26.6a2.69,2.69,0,0,1,.68-1.84,3.2,3.2,0,0,1,2.47-.77,16.47,16.47,0,0,1,1.7.09,10.23,10.23,0,0,1,1.34.21v38.32a8.79,8.79,0,0,1-3.21.54,6.18,6.18,0,0,1-3.15-.62,5.25,5.25,0,0,1-1.67-1.64l-17.91-27.91.36,27.55a2.66,2.66,0,0,1-.68,1.87A3.38,3.38,0,0,1,147.79,173.06Z"/>
  <path id="bf" d="m199.91 173.47a18.67 18.67 0 0 1-7.74-1.58 17.83 17.83 0 0 1-6-4.34 20.28 20.28 0 0 1-3.9-6.43 22.75 22.75 0 0 1 0-15.71 19.22 19.22 0 0 1 3.9-6.34 18.1 18.1 0 0 1 6-4.22 20.11 20.11 0 0 1 15.47 0 18.11 18.11 0 0 1 6 4.22 19.32 19.32 0 0 1 3.9 6.31 21.68 21.68 0 0 1 1.4 7.85 21.92 21.92 0 0 1-1.4 7.88 20.3 20.3 0 0 1-3.9 6.43 17.84 17.84 0 0 1-6 4.34 18.67 18.67 0 0 1-7.73 1.59zm-0.06-6a10.36 10.36 0 0 0 4.7-1.1 12.56 12.56 0 0 0 3.87-3 14.13 14.13 0 0 0 2.58-4.47 16.26 16.26 0 0 0 1-5.59 16.47 16.47 0 0 0-0.92-5.56 13.7 13.7 0 0 0-2.56-4.46 12.06 12.06 0 0 0-3.84-2.95 10.74 10.74 0 0 0-4.76-1.07 10.86 10.86 0 0 0-4.7 1 11.68 11.68 0 0 0-3.84 2.92 14.18 14.18 0 0 0-2.59 4.43 15.92 15.92 0 0 0-1 5.59 17.07 17.07 0 0 0 0.92 5.71 14 14 0 0 0 2.56 4.52 11.86 11.86 0 0 0 3.84 3 10.6 10.6 0 0 0 4.74 1.08z"/>
  <path id="bg" d="M236,173.24a37.18,37.18,0,0,1-6.34-.59,48.07,48.07,0,0,1-7-1.79,2.6,2.6,0,0,0,0-.42,2.49,2.49,0,0,1,0-.42,6.25,6.25,0,0,1,.71-3.18,2.48,2.48,0,0,1,2.32-1.22,8.73,8.73,0,0,1,1.84.24l2.41.54q1.34.3,3,.54a25,25,0,0,0,3.6.24q4.1,0,5.86-1.49a4.7,4.7,0,0,0,1.75-3.75,4.16,4.16,0,0,0-.42-1.93,3.93,3.93,0,0,0-1.19-1.37,7.93,7.93,0,0,0-1.87-1q-1.1-.41-2.53-.83l-4.94-1.37q-5.83-1.61-8.12-4.46a10.17,10.17,0,0,1-2.29-6.54,11.73,11.73,0,0,1,.66-3.78,8.66,8.66,0,0,1,2.26-3.48,12.43,12.43,0,0,1,4.28-2.56,19.21,19.21,0,0,1,6.72-1,34.76,34.76,0,0,1,5.86.54,40.31,40.31,0,0,1,6.52,1.73v.83a6.11,6.11,0,0,1-.68,3.15,2.41,2.41,0,0,1-2.23,1.13,7.69,7.69,0,0,1-1.7-.21q-.92-.21-2.08-.42t-2.65-.42a24.23,24.23,0,0,0-3.33-.21,12.94,12.94,0,0,0-3.45.39,6.34,6.34,0,0,0-2.2,1,3.88,3.88,0,0,0-1.19,1.46,4,4,0,0,0-.36,1.64,3.5,3.5,0,0,0,1.34,3,15.19,15.19,0,0,0,4.79,2l5.24,1.49Q251,153.42,251,161.52a12.65,12.65,0,0,1-.86,4.76,9.31,9.31,0,0,1-2.71,3.69,13.15,13.15,0,0,1-4.64,2.41A23,23,0,0,1,236,173.24Z"/>
  <path id="bh" d="M268.1,173.06q-1,0-1.87-.09a10.31,10.31,0,0,1-1.4-.21V140.09h-11.9a7.85,7.85,0,0,1-.18-1.28q-.06-.8-.06-1.7a3.07,3.07,0,0,1,.77-2.5,3.13,3.13,0,0,1,2-.59h27.85a11.55,11.55,0,0,1,.24,2.74q0,3.33-2.74,3.33h-9.28v30.17a2.82,2.82,0,0,1-.74,2A3.52,3.52,0,0,1,268.1,173.06Z"/>
  <path id="bi" d="M282.68,173.06a11.17,11.17,0,0,1-1.87-.18,4.77,4.77,0,0,1-1.64-.54l13.19-38a15.38,15.38,0,0,1,2.23-.42,19.71,19.71,0,0,1,2.11-.12A11,11,0,0,1,299,134a4.25,4.25,0,0,1,1.55.66,3.8,3.8,0,0,1,1,1.13,9.24,9.24,0,0,1,.77,1.7l11.92,34.81a12.12,12.12,0,0,1-1.64.54,6.86,6.86,0,0,1-1.7.24,7.76,7.76,0,0,1-2.38-.33,2.44,2.44,0,0,1-1.49-1.7l-2.87-8.51H289.08L286.25,171a2.6,2.6,0,0,1-1.37,1.67A6,6,0,0,1,282.68,173.06ZM291,156.81h11.45l-5.69-17.25Z"/>
  <path id="bj" d="M321.83,172.7q-2.2,0-2.83-.86a3.72,3.72,0,0,1-.62-2.23V136.7a2.82,2.82,0,0,1,.74-2,3.52,3.52,0,0,1,2.65-.8q1,0,1.88.09a10.29,10.29,0,0,1,1.4.21v32.43h18.39c.08.44.15.88.21,1.34a10.81,10.81,0,0,1,.09,1.4,3.41,3.41,0,0,1-.8,2.62,3.24,3.24,0,0,1-2.23.71Z"/>
  <path id="bk" d="M365.68,173.36a19.42,19.42,0,0,1-8-1.61,18.8,18.8,0,0,1-6.16-4.34,19.38,19.38,0,0,1-4-6.4,21.56,21.56,0,0,1-1.4-7.76,20.47,20.47,0,0,1,1.43-7.68,18.27,18.27,0,0,1,10.14-10.32,20.09,20.09,0,0,1,7.88-1.52,34.6,34.6,0,0,1,6.9.71,22.86,22.86,0,0,1,6.37,2.26v.77a5.17,5.17,0,0,1-.77,3,2.68,2.68,0,0,1-2.38,1.13,5,5,0,0,1-1.58-.27q-.8-.27-1.9-.59a23.71,23.71,0,0,0-2.65-.59,22.39,22.39,0,0,0-3.75-.27,13.35,13.35,0,0,0-5.12,1,11.89,11.89,0,0,0-4,2.68,12.13,12.13,0,0,0-2.65,4.2,15.37,15.37,0,0,0-1,5.56,16.42,16.42,0,0,0,1,5.65,13.46,13.46,0,0,0,2.65,4.49,12.19,12.19,0,0,0,9.19,4,15.88,15.88,0,0,0,4.28-.5,16.48,16.48,0,0,0,3.33-1.34v-8.93H366.1a2.51,2.51,0,0,1-1.76-.62,3.14,3.14,0,0,1-.68-2.35A10.19,10.19,0,0,1,364,151h12.5q2.2,0,2.83.86a3.71,3.71,0,0,1,.63,2.23v15.29a30.65,30.65,0,0,1-6.57,2.95A25.86,25.86,0,0,1,365.68,173.36Z"/>
  <path id="bl" d="M388.82,173.06q-1,0-1.87-.09a10.31,10.31,0,0,1-1.4-.21V136.7a2.82,2.82,0,0,1,.74-2,3.52,3.52,0,0,1,2.65-.8q1,0,1.87.09a10.28,10.28,0,0,1,1.4.21v36.06a2.82,2.82,0,0,1-.74,2A3.53,3.53,0,0,1,388.82,173.06Z"/>
  <path id="bm" d="M402,172.7q-2.2,0-2.83-.86a3.72,3.72,0,0,1-.62-2.23V137.12a3.72,3.72,0,0,1,.62-2.23q.63-.86,2.83-.86h20a10,10,0,0,1,.21,1.31,15.64,15.64,0,0,1,.09,1.67,3.18,3.18,0,0,1-.74,2.41,2.58,2.58,0,0,1-1.81.68H405.25v10.35H420.6l.15,1.22a13.23,13.23,0,0,1,.09,1.58,3.15,3.15,0,0,1-.68,2.32,2.36,2.36,0,0,1-1.7.65H405.25v10.41h17.31l.15,1.22a13.27,13.27,0,0,1,.09,1.58,3.6,3.6,0,0,1-.71,2.53,2.37,2.37,0,0,1-1.79.74Z"/>
 </g>
</svg>
