<svg width="940.62" height="86.065" version="1.1" viewBox="0 0 248.87 22.771" xmlns="http://www.w3.org/2000/svg">
 <defs>
  <linearGradient id="a" x2="1" gradientTransform="matrix(0 21.786 21.786 0 83.756 .559)" gradientUnits="userSpaceOnUse">
   <stop stop-color="#888685" offset="0"/>
   <stop stop-color="#d9d9da" offset=".020448"/>
   <stop stop-color="#f5f5f6" offset=".052404"/>
   <stop stop-color="#eeefef" offset=".48766"/>
   <stop stop-color="#f5f5f6" offset=".89549"/>
   <stop stop-color="#ebebec" offset=".92944"/>
   <stop stop-color="#d9d9da" offset=".96426"/>
   <stop stop-color="#888685" offset="1"/>
  </linearGradient>
 </defs>
 <path d="m3.1329 0.74894c-1.6915 0-2.2908 0.99189-2.2908 2.6591v16.113c0 1.6567 0.59936 2.6591 2.2908 2.6591h242.6c1.6904 0 2.2908-1.0024 2.2908-2.6591v-16.113c0-1.6672-0.60041-2.6591-2.2887-2.6591z" fill="url(#a)" stroke-width="1.0552"/>
 <path d="m216.48 0.75944h-176.2v21.421h176.2z" fill="#003761" stroke-width="1.0552"/>
 <path d="m228.86 10.098v-3.0284c0-0.82306 0.32711-1.3401 2.0197-1.3401 0.20893 0 0.38726 0.010552 0.59619 0.042208v9.9295c0 0.81251-0.32817 1.3296-2.0228 1.3296-0.20682 0-0.38726-0.01055-0.59302-0.04221v-4.5057h-5.2718v3.2184c0 0.81251-0.32817 1.3296-2.0239 1.3296-0.20577 0-0.3841-0.01055-0.59514-0.04221v-9.9189c0-0.82306 0.32711-1.3401 2.0228-1.3401 0.20893 0 0.38726 0.010552 0.59619 0.042208v4.3263h5.2718m15.009 1.2662c0-3.3661-2.4259-5.6559-6.4463-5.6559h-2.734c-1.3116 0-1.625 0.68588-1.625 1.6039v8.1356c0 0.87582 0.3134 1.5828 1.625 1.5828h2.734c4.0203 0 6.4463-2.2898 6.4463-5.6665m-8.1842 3.2395v-6.4684h1.8899c2.6348 0 3.6004 1.6989 3.6004 3.2289 0 1.5406-0.96552 3.2395-3.6004 3.2395h-1.8899" fill="#003761" stroke-width="1.0552"/>
 <path d="m48.569 12.599h3.0042l-1.4984-4.9173-1.5058 4.9173m-3.1329 5.5187c-0.2543 0-0.54554-0.0211-0.87266-0.06331-0.32711-0.05276-0.60041-0.11607-0.81356-0.18994l4.167-12.736c0.36194-0.094969 0.72809-0.15828 1.0974-0.20049 0.36827-0.042208 0.70699-0.063313 1.0151-0.063313 0.44319 0 0.82306 0.031656 1.1386 0.10552 0.31551 0.063312 0.58142 0.16883 0.79457 0.30601 0.21526 0.12662 0.39359 0.30601 0.53288 0.5276 0.14245 0.22159 0.25853 0.47484 0.35349 0.7703l3.5719 11.27c-0.22792 0.08442-0.50228 0.15828-0.82306 0.21104-0.32289 0.04221-0.63734 0.06331-0.94336 0.06331-0.34927 0-0.688-0.05276-1.0151-0.16883s-0.56665-0.36932-0.71438-0.7703l-0.68272-2.0682h-4.3781l-0.58036 1.9521c-0.14773 0.46429-0.39465 0.75975-0.74287 0.87582-0.34822 0.12662-0.71648 0.17938-1.1048 0.17938" fill="#fff" stroke-width="1.0552"/>
 <path d="m14.477 13.517c0 1.8361-1.1998 3.1762-3.6362 3.44-1.7643 0.18994-4.3179-0.03166-5.5303-0.16883-0.044319-0.20049-0.080196-0.44319-0.080196-0.63312 0-1.6145 0.86844-1.9732 1.6788-1.9732 0.84417 0 2.1748 0.13718 3.1635 0.13718 1.0869 0 1.4182-0.35877 1.4182-0.71754 0-0.45374-0.43897-0.64368-1.2831-0.81251l-2.3098-0.44319c-1.9226-0.36932-2.9493-1.6989-2.9493-3.1129 0-1.7094 1.2156-3.1445 3.6046-3.4083 1.8044-0.20049 4.0024 0.021104 5.2074 0.16883 0.04537 0.21104 0.06859 0.40098 0.06859 0.62257 0 1.5934-0.84417 1.9416-1.6577 1.9416-0.62363 0-1.5934-0.11607-2.7013-0.11607-1.1259 0-1.5934 0.30601-1.5934 0.68588 0 0.40098 0.44635 0.56981 1.1502 0.69644l2.2107 0.41153c2.2666 0.41153 3.2395 1.6989 3.2395 3.2817m3.9623 1.9732c0 0.98134-0.3862 1.5512-2.3046 1.5512-0.25642 0-0.47906-0.0211-0.69011-0.04221v-13.053c0-0.99189 0.33661-2.026 2.2761-2.026 0.24481 0 0.49173 0.021104 0.7186 0.073864v13.496m7.8528 5.0544c0.25114 0.12662 0.76819 0.28491 1.4182 0.29546 1.1143 0.03166 1.7242-0.40098 2.1748-1.4034l5.983-13.338c-0.24692-0.13718-0.79246-0.28491-1.2399-0.29546-0.76925-0.010552-1.8023 0.13718-2.4618 1.72l-1.9374 4.569-3.8019-6.1835c-0.24481-0.084417-0.84206-0.18994-1.2831-0.18994-1.338 0-2.0893 0.49595-2.867 1.3401l-3.6953 4.0414 2.9715 4.6746c0.55082 0.85472 1.2736 1.2874 2.4481 1.2874 0.7703 0 1.4087-0.16883 1.7052-0.31656l-3.5772-5.3921 2.5357-2.6908 4.1596 6.5317-2.5325 5.3499" fill="#003761" stroke-width="1.0552"/>
 <g transform="matrix(1.0552 0 0 1.0552 72.595 -153.64)" fill="#fff">
  <path d="m-11.924 162.73c-0.267 0-0.53-0.01-0.788-0.03-0.261-0.03-0.481-0.06-0.657-0.1v-9.53h-3.598c-0.025-0.15-0.054-0.33-0.085-0.53-0.032-0.21-0.047-0.44-0.047-0.71 0-0.58 0.116-0.98 0.352-1.21 0.234-0.22 0.529-0.33 0.884-0.33h9.1154c0.0247 0.15 0.0517 0.33 0.0764 0.53 0.0248 0.21 0.0382 0.44 0.0382 0.71 0 1.02-0.4135 1.54-1.2383 1.54h-2.4157v8.33c0 0.37-0.115 0.69-0.342 0.94-0.229 0.26-0.661 0.39-1.295 0.39"/>
  <path d="m-3.758 162.66c-0.3551 0-0.645-0.04-0.8653-0.12-0.2225-0.07-0.3933-0.18-0.5146-0.31-0.1214-0.13-0.2023-0.29-0.2473-0.48-0.0449-0.19-0.0674-0.4-0.0674-0.61v-9.56c0-0.36 0.1146-0.68 0.3439-0.94 0.227-0.26 0.6585-0.39 1.2945-0.39 0.2652 0 0.5282 0.01 0.7889 0.04s0.4787 0.06 0.6562 0.1v9.49h5.4614c0.0247 0.15 0.0539 0.33 0.0854 0.53 0.0315 0.21 0.0472 0.44 0.0472 0.71 0 0.6-0.1236 1-0.3708 1.22-0.2473 0.21-0.5866 0.32-1.0181 0.32h-5.594"/>
  <path d="m8.493 157.54h2.847l-1.4199-4.66-1.4271 4.66m-2.969 5.23c-0.2404 0-0.5169-0.02-0.827-0.06-0.3102-0.05-0.5686-0.11-0.7709-0.18l3.9488-12.07c0.3439-0.09 0.69-0.15 1.0406-0.19 0.3483-0.04 0.6697-0.06 0.9619-0.06 0.4206 0 0.7796 0.03 1.0786 0.1 0.299 0.06 0.551 0.16 0.753 0.29 0.205 0.12 0.373 0.29 0.506 0.5 0.135 0.21 0.245 0.45 0.335 0.73l3.384 10.68c-0.215 0.08-0.476 0.15-0.78 0.2-0.305 0.04-0.604 0.06-0.894 0.06-0.33 0-0.652-0.05-0.962-0.16s-0.537-0.35-0.676-0.73l-0.648-1.96h-4.1485l-0.5507 1.85c-0.1393 0.44-0.3731 0.72-0.7034 0.83-0.3304 0.12-0.6788 0.17-1.0474 0.17"/>
  <path d="m18.505 162.73c-0.254 0-0.501-0.01-0.742-0.03-0.24-0.03-0.445-0.06-0.609-0.1v-12.12c0.191-0.06 0.439-0.12 0.742-0.16 0.306-0.04 0.564-0.07 0.78-0.07 0.697 0 1.204 0.09 1.521 0.27 0.319 0.18 0.585 0.44 0.8 0.78l4.32 6.79v-6.62c0-0.17 0.023-0.32 0.067-0.47 0.043-0.14 0.12-0.27 0.227-0.39 0.108-0.11 0.259-0.2 0.448-0.26 0.191-0.07 0.431-0.1 0.723-0.1 0.254 0 0.497 0.02 0.733 0.04 0.234 0.03 0.434 0.05 0.6 0.08v12.14c-0.177 0.09-0.393 0.15-0.647 0.18s-0.501 0.04-0.742 0.04c-0.598 0-1.04-0.08-1.333-0.24-0.292-0.17-0.532-0.4-0.723-0.69l-4.623-7.38v7.06c0 0.35-0.108 0.65-0.324 0.89s-0.622 0.36-1.218 0.36"/>
  <path d="m34.499 162.73c-0.267 0-0.53-0.01-0.789-0.03-0.26-0.03-0.48-0.06-0.656-0.1v-9.53h-3.598c-0.025-0.15-0.054-0.33-0.085-0.53-0.032-0.21-0.048-0.44-0.048-0.71 0-0.58 0.117-0.98 0.353-1.21 0.234-0.22 0.528-0.33 0.884-0.33h9.115c0.025 0.15 0.05 0.33 0.077 0.53 0.024 0.21 0.038 0.44 0.038 0.71 0 1.02-0.414 1.54-1.238 1.54h-2.417v8.33c0 0.37-0.114 0.69-0.341 0.94-0.229 0.26-0.661 0.39-1.295 0.39"/>
  <path d="m42.39 162.73c-0.267 0-0.53-0.01-0.789-0.03-0.26-0.03-0.481-0.06-0.656-0.1v-11.02c0-0.36 0.112-0.68 0.342-0.94 0.229-0.26 0.658-0.39 1.294-0.39 0.265 0 0.528 0.02 0.789 0.04 0.261 0.03 0.479 0.06 0.656 0.1v11.01c0 0.37-0.114 0.69-0.341 0.94-0.23 0.26-0.661 0.39-1.295 0.39"/>
  <path d="m51.474 162.89c-0.901 0-1.732-0.16-2.492-0.49-0.762-0.32-1.423-0.77-1.98-1.34s-0.996-1.25-1.313-2.04c-0.316-0.78-0.476-1.63-0.476-2.54 0-0.89 0.16-1.72 0.476-2.5 0.317-0.77 0.756-1.44 1.313-2.02 0.557-0.57 1.218-1.01 1.98-1.34 0.76-0.32 1.591-0.48 2.492-0.48 0.648 0 1.275 0.07 1.884 0.21s1.173 0.32 1.694 0.53c0.115 1.69-0.298 2.53-1.238 2.53-0.164 0-0.317-0.02-0.456-0.06-0.14-0.03-0.292-0.07-0.456-0.11-0.167-0.04-0.349-0.08-0.553-0.11-0.203-0.04-0.443-0.06-0.722-0.06-0.445 0-0.863 0.08-1.256 0.24s-0.733 0.38-1.018 0.68c-0.286 0.3-0.51 0.66-0.677 1.08-0.164 0.41-0.247 0.88-0.247 1.41 0 0.54 0.083 1.03 0.247 1.46 0.167 0.43 0.391 0.8 0.677 1.1 0.285 0.29 0.625 0.52 1.018 0.68s0.811 0.24 1.256 0.24c0.279 0 0.526-0.02 0.742-0.06s0.409-0.08 0.58-0.11c0.171-0.04 0.332-0.08 0.485-0.12s0.31-0.05 0.477-0.05c0.926 0 1.3369 0.84 1.2359 2.53-0.519 0.21-1.1009 0.39-1.7419 0.53-0.64 0.14-1.283 0.21-1.931 0.21"/>
 </g>
 <path d="m245.6 22.771c2.5072 0 3.2733-1.5512 3.2733-3.1129v-16.535c0-1.5617-0.76608-3.1234-3.2733-3.1234h-242.33c-2.5061 0-3.269 1.5617-3.269 3.1234v16.535c0 1.5617 0.76291 3.1129 3.2722 3.1129h242.33m-242.21-0.20049c-1.6904 0-2.8311-1.0024-2.8311-2.6591v-17.042c0-1.6567 1.1407-2.6591 2.8311-2.6591h242.1c1.6852 0 2.829 1.0024 2.829 2.6591v17.042c0 1.6567-1.1438 2.6591-2.8322 2.6591h-242.1" fill="#a1a2a2" stroke-width="1.0552"/>
 <g transform="matrix(.13345 0 0 .13345 76.674 3.1833)" clip-rule="evenodd" fill="#fff" fill-rule="evenodd">
  <path d="m443.32 0.063c1.592 1e-3 3.253-0.266 4.786 0.292 2.096 0.616 4.303 0.649 6.468 0.867 3.774 0.295 7.559 0.497 11.348 0.422 172.41 3e-3 342.64 0 515.05 3e-3 4.599 0.049 9.214-0.321 13.72-1.287 0.613-0.078 1.306-0.354 1.923-0.034 0.938 0.885 0.532 2.314 0.729 3.454 0.525 4.778 1.566 7.743 2.556 12.434 0.163 0.968 0.197 2.092-0.447 2.91-0.638 0.727-1.95 0.521-2.289-0.39-2.315-5.68-3.591-6.935-8.175-8.162-5.829-1.56-11.916-1.743-17.914-1.692-32.966 0.029-65.932-0.051-98.897-0.038-31.321-0.053-62.643-0.017-93.964-0.068-33.942 0.015-67.881-0.071-101.82-0.037-23.177-0.098-46.356 0.022-69.529-0.073-37.998 0.023-75.999-0.063-114-0.036 0.015 16.23-8e-3 32.462 3e-3 48.69 0.022 14.689-0.064 28.873 0.224 43.56 0.149 4.34 0.139 8.711 0.875 13.007 0.357 2.082 1.426 4.36 3.637 5.012 2.802 0.753 5.742 0.712 8.613 1.004 0.986 0.074 1.557 1.346 0.963 2.122-0.624 0.824-1.777 0.852-2.72 0.889-4.847-0.014-9.699-0.129-14.55-0.306-6.483-0.369-12.968 0.495-19.457 0.278-0.807-0.047-1.811-0.399-1.939-1.309-0.248-0.834 0.456-1.683 1.317-1.688 1.785-0.136 3.591-0.325 5.317-0.827 1.404-0.458 2.088-1.893 2.497-3.188 0.963-3.282 1.114-6.714 1.256-10.108 0.256-6.809 0.307-13.126 0.329-19.935 0.074-25.738 0.015-51.475 0.032-77.208-7.599 0.115-13.024 0.181-20.622 0.3-3.27 0.104-6.629 0.196-9.731 1.333-1.527 0.554-2.871 1.564-3.794 2.89-1.156 1.629-2.121 3.384-2.913 5.21-0.317 0.839-1.224 1.618-2.163 1.289-0.917-0.351-0.919-1.492-0.822-2.299 0.476-3.106 1.241-6.159 1.922-9.225 0.659-2.702 1.077-5.479 2.174-8.056z"/>
  <path d="m715.36 22.968c-3.123 0.167-6.226 0.683-9.247 1.477-7.154 1.884-13.736 5.879-18.737 11.325-5.297 5.767-8.864 13.016-10.647 20.613-1.97 8.409-1.244 17.354 1.557 25.488 2.444 7.104 6.774 13.615 12.635 18.355 5.648 4.564 12.609 7.365 19.781 8.369 11.55 1.613 23.817-0.842 33.288-7.819 9.396-6.925 15.348-17.962 16.859-29.454 1.034-7.882 0.495-16.106-2.37-23.567-1.813-4.725-4.581-9.094-8.121-12.716-3.729-3.813-8.294-6.78-13.241-8.76-6.877-2.757-14.385-3.706-21.757-3.311zm1.428 5.07v75.648l-0.638-0.088c-0.82-0.105-1.638-0.241-2.444-0.414l-0.448-0.095v-74.765c1.186-0.161 2.337-0.251 3.53-0.286zm-7.684 73.81c-8.02-3.005-14.231-9.044-17.938-16.714-3.98-8.24-5.26-17.602-4.602-26.672 0.55-7.58 3.374-14.601 8.227-20.454 3.723-4.487 8.758-7.409 14.367-8.875l0.709-0.185v73.185zm18.742-72.254c4.113 1.374 7.775 3.63 10.878 6.656 4.896 4.781 8.603 11.091 10.227 17.744 1.679 6.892 1.854 14.083 1.031 21.107-0.713 6.032-2.51 12.044-5.934 17.109-3.846 5.684-9.62 9.285-16.253 10.817l-0.692 0.163v-73.845zm-4.657 74.153c-0.81 0.067-1.624 0.108-2.438 0.115l-0.573 7e-3v-75.772c0.912-0.024 2.614 0.171 3.53 0.438v75.172z"/>
  <path d="m773.06 26.716c0.14-0.746 0.519-1.763 1.563-1.737 1.177 0.156 1.943 1.078 2.739 1.785 7.69 7.474 15.398 14.932 23.136 22.366 8.423 8.118 16.938 16.164 25.29 24.343 5.821 5.676 11.563 11.417 17.459 17.032-0.403-16.052-0.776-32.104-1.17-48.157-0.143-3.15 0.055-6.348-0.672-9.456-0.298-1.346-1.146-2.708-2.647-3.218-2.201-0.753-4.608-0.663-6.914-0.85-0.926-0.044-1.363-1.129-0.861-1.767 0.712-0.634 1.794-0.608 2.736-0.631 3.855-7e-3 7.707 0.199 11.563 0.288 4.019 0.058 8.067-0.573 12.064-0.123 1.356 0.164 1.248 1.965-0.017 2.165-1.817 0.224-3.784 0.185-5.382 1.107-1.284 0.815-1.62 2.299-1.78 3.61-0.393 3.506-0.104 7.036-0.233 10.554-0.027 14.44-0.115 28.881-0.132 43.326-0.092 5.486 0.044 10.979-0.137 16.466-0.125 0.984 0 2.137-0.752 2.947-0.78 0.481-1.746 0.037-2.387-0.417-1.801-1.269-3.408-2.733-5.032-4.171-8.556-7.545-16.843-15.327-25.14-23.092-12.591-11.848-24.838-23.982-37.059-36.136 0.468 14.989 0.905 29.971 1.362 44.958 0.112 3.168 0.099 6.346 0.557 9.492 0.377 2.092 0.824 4.814 3.367 5.659 2.126 0.624 4.388 0.59 6.592 0.803 0.997 0.146 1.251 1.523 0.39 1.971-1.152 0.617-2.57 0.349-3.838 0.407-4.585 0.054-9.159-0.499-13.733-0.201-2.72 0.099-5.439 0.222-8.155 0.204-0.732-0.017-1.556-0.051-2.075-0.556-0.634-0.648-0.173-1.849 0.841-1.855 1.95-0.183 4.035-0.121 5.813-0.99 1.112-0.719 1.468-2.004 1.746-3.143 0.454-2.415 0.458-4.869 0.529-7.312 0.051-19.935 0.074-39.867 0.125-59.804 0.03-1.952-0.112-3.927 0.244-5.867z"/>
  <path d="m950.64 23.646c5.689-0.583 11.495-0.183 17.069 0.962 1.374 0.312 2.808 0.292 4.201 0.515 0.841 0.224 0.851 1.11 0.79 1.747-0.38 3.838-0.424 7.692-0.472 11.542-0.067 0.809-0.152 2.011-1.277 2.184-0.855 0.044-1.489-0.583-1.544-1.288-0.305-1.836-0.674-3.686-1.464-5.414-1.211-2.259-3.73-3.694-6.284-4.557-3.234-1.07-6.754-1.313-10.172-1.131-3.435 0.293-6.914 1.453-9.277 3.747-4.408 4.172-4.526 11.115-0.739 15.649 3.041 3.67 7.09 6.554 10.989 9.474 5.165 3.652 10.495 7.197 14.812 11.665 3.429 3.466 6.205 7.615 6.951 12.234 1.313 6.195-0.233 12.854-4.425 17.978-3.768 4.714-9.766 7.771-16.103 8.884-6.976 1.229-14.316 0.93-21.112-0.932-1.532-0.546-3.143-0.983-4.533-1.78-1.052-0.614-1.194-1.805-1.218-2.818-0.044-3.76 0.149-7.523 0.496-11.274 0.128-1.051-0.021-2.244 0.731-3.14 0.597-0.776 2.259-0.366 2.279 0.597 0.122 1.044 0.044 2.102 0.189 3.153 0.332 2.666 1.451 5.317 3.52 7.317 2.367 2.357 5.806 3.649 9.258 4.212 5.303 0.929 11.229 0.4 15.647-2.563 2.938-1.95 4.931-4.91 5.67-8.077 0.993-4.774-0.406-9.929-3.974-13.651-7.67-8.098-18.752-13.134-25.767-21.78-3.514-4.093-5.348-9.231-5.128-14.364 0.041-4.95 2.174-9.949 6.273-13.378 3.936-3.34 9.259-5.136 14.614-5.713z"/>
  <path d="m911.13 25.559c0.867-0.137 1.658-0.697 2.573-0.561 1.085 0.624 0.645 1.936 0.443 2.86-1 3.39-0.786 6.911-1.271 10.359-0.153 0.7-0.424 1.673-1.388 1.77-0.905 0.109-1.549-0.69-1.546-1.406-0.163-1.943-0.156-4.271-2.034-5.622-1.978-1.231-4.507-1.438-6.84-1.712-5.51-0.3-11.037-0.215-16.551-0.343-0.196 7.46-0.017 14.93-0.078 22.393 0.024 2.633-0.051 5.273 0.038 7.906 6.398-8e-3 12.804 0.049 19.198-0.207 1.886-0.198 4.165-0.11 5.541-1.475 0.594-0.493 1.082-1.237 1.967-1.356 0.688-0.125 1.228 0.494 1.255 1.049 0.047 0.658-0.122 1.306-0.241 1.952-0.885 4.004-0.982 8.102-1.258 12.158-0.075 0.746-0.783 1.618-1.743 1.281-1.284-0.358-0.912-1.759-1.048-2.658-0.111-1.379-0.45-2.882-1.59-3.909-1.468-1.177-3.533-1.428-5.433-1.563-5.544-0.305-11.095-0.413-16.646-0.478-0.074 8.219-0.037 16.441-0.078 24.661 0.156 2.93-0.298 6.138 1.533 8.755 1.732 1.927 4.812 2.046 7.385 2.266 4.438 0.139 8.922 0.244 13.326-0.387 2.089-0.318 4.266-1.058 5.568-2.604 1.187-1.432 1.698-3.185 2.067-4.896 0.163-0.672 0.259-1.404 0.764-1.968 0.417-0.528 1.488-0.576 1.885 8e-3 0.489 0.657 0.356 1.498 0.34 2.248-0.303 2.835-0.716 5.663-1.238 8.474-0.271 1.16-0.521 2.39-1.376 3.344-0.93 0.963-2.479 1.027-3.809 1.064-9.514 0.064-19.029-0.108-28.53-0.495-4.743-0.258-9.484 0.196-14.225 0.189-1.078-0.044-2.316 0.18-3.207-0.461-0.788-0.543-0.392-1.817 0.616-1.919 1.567-0.237 3.231-0.152 4.72-0.726 1.123-0.502 1.516-1.648 1.818-2.638 0.789-2.903 0.807-5.908 0.973-8.871 0.221-7.731 0.109-15.469 0.136-23.2-7e-3 -9.054 7e-3 -18.107-3e-3 -27.161-0.034-2.852-0.027-5.705-0.33-8.545-0.158-1.387-0.647-2.941-2.095-3.713-2.034-1.099-4.507-1.046-6.799-1.193-0.817-0.029-1.465-0.767-1.196-1.453 0.247-0.761 1.305-0.959 2.105-0.958 4.642-0.044 9.28 0.177 13.923 0.275 8.856-5e-3 17.71 0.037 26.563-0.061 1.943-0.058 3.91-0.114 5.816-0.473z"/>
  <path d="m509.44 26.147c0.102-0.858 1.109-1.153 1.861-1.149 4.297-0.059 8.586 0.193 12.882 0.278 3.5-0.074 6.999-0.292 10.502-0.308 0.631 0.027 1.346 0.054 1.865 0.488 0.627 0.478 0.44 1.671-0.356 1.882-1.821 0.436-4.008 0.115-5.47 1.483-1.471 1.597-1.322 3.926-1.484 5.931-0.245 8.053-0.133 16.115-0.156 24.175 15.492 5e-3 30.981 3e-3 46.472 3e-3 -0.027-7.861 0.088-15.723-0.129-23.578-0.207-2.136 0.071-4.688-1.598-6.341-1.79-1.457-4.271-1.409-6.466-1.538-0.726 0.025-1.381-0.605-1.285-1.326 0.132-0.844 1.112-1.149 1.868-1.149 4.093-0.017 8.183 0.178 12.271 0.281 3.604-0.037 7.202-0.278 10.811-0.298 0.793 0.012 1.732-0.012 2.315 0.629 0.506 0.609 0.122 1.653-0.664 1.801-1.74 0.3-3.754 0.11-5.188 1.299-1.417 1.32-1.414 3.396-1.563 5.174-0.314 7.269-0.146 14.547-0.193 21.82v25.535c0.081 5.938-0.044 11.896 0.604 17.799 0.204 1.713 0.594 3.794 2.357 4.612 2.261 0.857 4.794 0.45 7.093 1.047 0.614 0.363 0.654 1.302 0.133 1.764-0.624 0.522-1.499 0.495-2.262 0.516-3.319-0.041-6.64-0.105-9.959-0.225-4.652-0.298-9.308 0.296-13.964 0.218-0.664-0.014-1.421-0.133-1.827-0.695-0.428-0.61-0.119-1.57 0.645-1.727 1.42-0.236 2.915-0.163 4.269-0.722 1.048-0.479 1.424-1.658 1.716-2.669 0.719-2.997 0.739-6.104 0.885-9.168 0.214-9.325 0.119-18.656 0.129-27.987-15.489-0.021-30.976-0.017-46.465-3e-3 -3e-3 8.812-0.055 17.624 0.105 26.437 0.099 3.249 0.156 6.518 0.675 9.735 0.23 1.438 0.901 3.031 2.403 3.57 2.103 0.638 4.341 0.502 6.501 0.786 1.059 0.156 1.163 1.761 0.203 2.14-1.362 0.539-2.869 0.222-4.293 0.269-4.861 0.027-9.714-0.481-14.57-0.146-2.529 0.058-5.063 0.277-7.585 0.132-0.892-0.014-1.76-0.861-1.363-1.757 0.384-0.851 1.476-0.678 2.245-0.786 1.42-0.155 3.262-0.237 3.933-1.723 0.954-2.109 1.071-4.469 1.258-6.74 0.451-8.233 0.259-16.479 0.303-24.72 0-8.512 0-17.024 3e-3 -25.535-0.026-4.207 0.061-8.418-0.24-12.616-0.146-1.532-0.394-3.338-1.784-4.289-1.811-1.17-4.065-1.194-6.147-1.292-0.712 9e-3 -1.424-0.574-1.296-1.317z"/>
  <path d="m600.25 25.783c0.444-0.709 1.435-0.802 2.235-0.807 4.231 0.034 8.464 0.165 12.691 0.31 7.609-0.058 15.266-0.775 22.845 0.209 4.686 0.591 9.345 2.039 13.126 4.745 4.255 3.301 7.106 8.194 7.517 13.353 0.234 5.134-1.133 10.315-3.899 14.764-2.539 4.225-6.019 7.891-9.786 11.203 6.891 8.213 13.669 16.521 21.034 24.377 3.092 3.285 6.452 6.5 10.688 8.501 3.108 1.519 6.646 1.997 10.117 2.037 1.078-0.118 2.052 1.19 1.126 1.944-1.221 0.785-2.828 0.468-4.225 0.542-5.334-0.115-10.773 0.396-16.008-0.801-5.29-1.369-9.149-5.248-12.485-9.083-6.386-7.512-12.462-15.246-18.497-23.001-0.516-0.651-1.085-1.513-2.093-1.403-4.724-0.048-9.45-0.19-14.174-0.174-0.04 6.663-0.017 13.326 0.152 19.986 0.112 2.661 0.177 5.347 0.716 7.972 0.292 1.366 1.038 2.868 2.584 3.323 2.248 0.609 4.632 0.458 6.932 0.793 0.959 0.258 1.033 1.621 0.162 2.034-1.079 0.516-2.339 0.319-3.496 0.34-4.12-0.034-8.229-0.177-12.343-0.285-3.706 0.115-7.412 0.289-11.115 0.299-0.59-0.017-1.214-0.055-1.686-0.394-0.796-0.435-0.657-1.702 0.225-1.974 1.682-0.386 3.604-0.102 5.124-1.01 1.301-1.116 1.454-2.9 1.766-4.422 0.691-5.186 0.519-10.424 0.645-15.636 0.017-13.193 3e-3 -26.393 7e-3 -39.586-0.092-3.75 0.051-7.504-0.285-11.244-0.139-1.435-0.494-3.065-1.858-3.932-1.973-1.238-4.452-1.165-6.721-1.327-0.861-0.031-1.421-0.957-1.021-1.653zm21.868 4.023c-0.743 0.075-1.794 0.282-1.658 1.189-0.044 11.395 7e-3 22.796-0.021 34.193-0.01 0.574-7e-3 1.334 0.688 1.585 2.377 0.983 5.021 1.156 7.582 1.417 3.835 0.204 7.968 0.488 11.485-1.255 3.776-1.945 5.842-5.8 6.862-9.557 1.278-5.152 1.21-10.64-0.414-15.722-1.41-4.483-4.688-8.613-9.352-10.554-4.711-2.084-10.12-1.873-15.172-1.296z"/>
 </g>
 <path class="st5" d="m245.81 17.158c1.4559 1.4325 1.7664 2.7927 1.8143 3.091 0.14355 0 0.1914-0.63225 0.1914-1.5873v-15.205c0-1.7664-0.5732-2.3508-2.0648-2.3508-0.50092 0-1.014 0.2749-1.683 0.2749h-239.32c-0.66789 0-1.182-0.2749-1.683-0.2749-1.4916 0-2.0648 0.59661-2.0648 2.3508v15.205c0 0.94279 0.04785 1.5873 0.19141 1.5873 0.04785-0.29832 0.0957-1.7664 1.6952-3.091 12.817-9.8819 229.1-12.925 242.92 0" enable-background="new" fill="#fff" opacity=".4" stroke-width=".010181"/>
</svg>
