<svg width="850" height="850" enable-background="new 0 0 2362.9 500" version="1.1" viewBox="0 0 850 850" xml:space="preserve" xmlns="http://www.w3.org/2000/svg" xmlns:xlink="http://www.w3.org/1999/xlink"><defs><linearGradient id="linearGradient4803" x1="628.95" x2="628.95" y1="158.56" y2="35.602" gradientTransform="matrix(1.7727 0 0 1.7547 -703.44 328.87)" gradientUnits="userSpaceOnUse"><stop stop-color="#ff5901" offset="0"/><stop stop-color="#ffa90f" offset="1"/></linearGradient><linearGradient id="linearGradient4823-7" x1="259.67" x2="259.67" y1="168.49" y2="27.881" gradientTransform="matrix(3.1656 0 0 3.1335 7594.1 -672.88)" gradientUnits="userSpaceOnUse" xlink:href="#linearGradient1853"/><linearGradient id="linearGradient1853"><stop stop-color="#f30" offset="0"/><stop stop-color="#ff9600" offset="1"/></linearGradient><linearGradient id="linearGradient4800-4" x1="259.67" x2="259.67" y1="168.49" y2="98.44" gradientTransform="matrix(3.1656 0 0 3.1335 7594.1 -672.88)" gradientUnits="userSpaceOnUse" xlink:href="#linearGradient1853"/><linearGradient id="linearGradient4825-0" x1="995" x2="992.98" y1="374.5" y2="291.85" gradientTransform="matrix(.83755 0 0 .82906 7594.1 -672.88)" gradientUnits="userSpaceOnUse"><stop stop-color="#fff" stop-opacity=".33673" offset="0"/><stop stop-color="#fff" stop-opacity=".19898" offset="1"/></linearGradient><filter id="filter1938-0" x="-.010558" y="-.04109" width="1.0211" height="1.0822" color-interpolation-filters="sRGB"><feGaussianBlur stdDeviation="9.541376"/></filter><linearGradient id="linearGradient5874-6-0" x1="1279.6" x2="1273" y1="1197.7" y2="1016.9" gradientTransform="matrix(.80989 0 0 .80989 -626.59 -470.95)" gradientUnits="userSpaceOnUse"><stop stop-color="#fff" offset="0"/><stop stop-color="#fff" stop-opacity=".8347" offset=".1203"/><stop stop-color="#fff" stop-opacity=".6576" offset=".2693"/><stop stop-color="#fff" stop-opacity=".5107" offset=".4195"/><stop stop-color="#fff" stop-opacity=".3965" offset=".5684"/><stop stop-color="#fff" stop-opacity=".3152" offset=".7156"/><stop stop-color="#fff" stop-opacity=".2664" offset=".8603"/><stop stop-color="#fff" stop-opacity=".25" offset="1"/></linearGradient></defs>
<path d="m0 0h850v360h-850z" fill="#fff" stop-color="#000000" stroke-width=".42355" style="font-variation-settings:normal"/><path d="m0 640h850v210h-850z" fill="#fff" stop-color="#000000" stroke-width=".24707" style="font-variation-settings:normal"/><path d="m0 360h850v280h-850z" fill="url(#linearGradient4803)" stop-color="#000000" stroke-width="5.6223" style="font-variation-settings:normal"/><g transform="matrix(.64654 0 0 .64654 -4905.1 419.95)"><path d="m8104.4-317.39c0 42.719-28.213 73.919-85.519 80.092-41.523 4.3922-101.63-0.78763-130.14-4.019-1.0883-4.6407-1.9255-10.359-1.9255-14.875 0-37.373 20.469-45.909 39.557-45.909 19.841 0 51.153 3.3977 74.426 3.3977 25.576 0 33.362-8.577 33.362-16.781 0-10.69-10.339-15.165-30.181-18.935l-54.334-10.359c-45.249-8.577-69.403-39.57-69.403-72.428 0-39.943 28.548-73.38 84.765-79.553 42.486-4.5577 94.183 0.58026 122.56 4.019 1.0464 4.8478 1.5906 9.4058 1.5906 14.419 0 37.251-19.841 45.288-38.972 45.288-14.734 0-37.506-2.7346-63.543-2.7346-26.538 0-37.506 7.2923-37.506 16.118 0 9.3228 10.465 13.176 27.083 16.035l51.948 9.5299c53.369 9.737 76.224 39.777 76.224 76.696m93.262 45.868c0 22.913-9.1252 36.132-54.29 36.132-5.9859 0-11.218-0.41469-16.242-1.1606v-303.97c0-23.079 7.9533-47.153 53.581-47.153 5.7348 0 11.553 0.58026 16.953 1.6988zm184.68 117.59c5.9023 2.9833 18.083 6.6296 33.403 7.0438 26.204 0.58026 40.561-9.4055 51.153-32.651l140.77-310.84c-5.7766-3.1077-18.627-6.5465-29.176-6.7953-18.083-0.28953-42.403 3.3563-57.934 40.027l-45.585 106.53-89.412-144.19c-5.7766-1.7402-19.841-4.2265-30.18-4.2265-31.52 0-49.184 11.519-67.478 31.159l-86.94 94.099 69.947 108.93c12.893 19.847 29.929 29.957 57.598 29.957 18.083 0 33.153-4.0607 40.102-7.3753l-84.18-125.63 59.649-62.567 97.868 152.02z" fill="url(#linearGradient4823-7)" stroke-width="10.04"/><path d="m8104.4-317.39c0 42.719-28.213 73.919-85.519 80.092-41.523 4.3922-101.63-0.78763-130.14-4.019-1.0883-4.6407-1.9255-10.359-1.9255-14.875 0-37.373 20.469-45.909 39.557-45.909 19.841 0 51.153 3.3977 74.426 3.3977 25.576 0 33.362-8.577 33.362-16.781 0-10.69-10.339-15.165-30.181-18.935l-54.334-10.359c-45.249-8.577-69.403-39.57-69.403-72.428 0-39.943 28.548-73.38 84.765-79.553 42.486-4.5577 94.183 0.58026 122.56 4.019 1.0464 4.8478 1.5906 9.4058 1.5906 14.419 0 37.251-19.841 45.288-38.972 45.288-14.734 0-37.506-2.7346-63.543-2.7346-26.538 0-37.506 7.2923-37.506 16.118 0 9.3228 10.465 13.176 27.083 16.035l51.948 9.5299c53.369 9.737 76.224 39.777 76.224 76.696m93.262 45.868c0 22.913-9.1252 36.132-54.29 36.132-5.9859 0-11.218-0.41469-16.242-1.1606v-303.97c0-23.079 7.9533-47.153 53.581-47.153 5.7348 0 11.553 0.58026 16.953 1.6988zm184.68 117.59c5.9023 2.9833 18.083 6.6296 33.403 7.0438 26.204 0.58026 40.561-9.4055 51.153-32.651l140.77-310.84c-5.7766-3.1077-18.627-6.5465-29.176-6.7953-18.083-0.28953-42.403 3.3563-57.934 40.027l-45.585 106.53-89.412-144.19c-5.7766-1.7402-19.841-4.2265-30.18-4.2265-31.52 0-49.184 11.519-67.478 31.159l-86.94 94.099 69.947 108.93c12.893 19.847 29.929 29.957 57.598 29.957 18.083 0 33.153-4.0607 40.102-7.3753l-84.18-125.63 59.649-62.567 97.868 152.02z" fill="url(#linearGradient4800-4)" stroke-width="10.04"/><path d="m8180.7-587.65c-45.626 0-53.579 24.074-53.579 47.153v208.2c0-10.347 9.7634-16.919 17.306-17.181l34.846-1.2047c7.5995-0.26276 18.38-6.2512 18.38-16.772v-218.5c-5.3997-1.1185-11.219-1.6986-16.954-1.6986zm174.67 88.627c-31.52 0-49.184 11.518-67.475 31.158l-86.938 94.098 7.9829 12.433c4.2404 6.6041 11.856 9.215 17.153 9.0326l53.674-1.8557c9.7642-0.33754 15.44 4.0893 19.763 8.8237l-15.107-22.548 59.648-62.567 40.312 62.62c2.5576 3.9728 8.9568 9.7431 18.943 9.3982l59.223-2.0484c4.5289-0.15655 6.4159 1.4247 9.7023 5.499l-86.695-139.81c-5.7764-1.7402-19.841-4.2262-30.18-4.2262zm-354.12 0.48254c-12.33 0.0293-24.635 0.5495-36.252 1.7957-56.216 6.1737-84.76 39.612-84.76 79.554 0 21.111 9.971 41.452 29.102 55.573 26.902 16.58 71.783 17.787 88.705 17.201l71.698-2.4807c18.486-0.63938 34.541 13.946 34.541 33.962 0.5789-18.855-2.7885-26.488-6.0706-34.947-9.9719-22.352-32.414-39.323-70.051-46.19l-51.946-9.5292c-16.618-2.8588-27.083-6.7128-27.083-16.036 0-8.8254 10.967-16.118 37.505-16.118 26.036 0 48.807 2.7349 63.541 2.7349 19.13 0 38.971-8.0382 38.971-45.287 0-5.0134-0.5452-9.5715-1.5917-14.42-19.512-2.3642-50.042-5.5309-81.025-5.7985-1.7604-0.0152-3.5224-0.0204-5.2838-0.0162zm573.77 1.3812c-17.629 0.29625-39.913 5.6492-54.472 40.026l-43.942 102.7c2.8348-6.625 8.6938-6.8276 12.272-6.9515l47.118-1.6289c7.0082-0.24246 15.775-3.939 18.904-10.847l52.758-116.5c-5.7765-3.1076-18.627-6.5473-29.175-6.7961-1.1302-0.0181-2.2863-0.0197-3.4615 0z" fill="url(#linearGradient4825-0)" stroke-width="2.6564"/></g><g transform="matrix(.45226 0 0 .45226 -505.84 626.17)" fill="#09166c"><path d="m2034.6 153.8v184.7c0 8.1-4.1 12.6-16.7 12.6-5.7 0-11-0.8-15.1-1.6v-85h-105.4v74.1c0 8.1-4.1 12.6-16.7 12.6-6.1 0-12.2-0.8-15.1-1.6v-184.8c0-7.8 4.1-12.6 17.1-12.6 5.7 0 11.3 0.8 14.6 1.6v82.2h104.9v-71.2c0-7.8 4.5-12.6 17.5-12.6 6 0 11.6 0.8 14.9 1.6"/><path d="m2250.8 251.4c0 55.4-38.7 97.3-99.3 97.3h-56.5c-12.2 0-16.7-4.9-16.7-12.6v-168.9c0-7.7 4.5-12.6 16.7-12.6h56.5c60.6 0 99.3 41.5 99.3 96.8m-32.2 0c0-41.5-26-68.4-67.1-68.4h-41.5v137.1h41.5c41.1 0.1 67.1-26.8 67.1-68.7"/></g><g transform="matrix(.46613 0 0 .46613 -3646 1219.4)" fill="#09166c" stroke-width="10.04"><path d="m8434.2-1644c-6.5294-0.074-14.415 0.7392-20.329 2.2006v235.34c8.6025 2.1258 21.374 2.8787 28.08 1.527 8.2302-1.6591 12.421-6.174 12.421-13.736v-209.58c0-7.5624-4.1909-13.41-12.421-15.069-2.0955-0.4224-4.783-0.6399-7.7507-0.6736z"/><path d="m8558.4-1555.7v149.23c8.6025 2.1258 21.374 2.8788 28.08 1.527 8.2303-1.6591 12.421-6.1739 12.421-13.736v-139.1c0-63.926-40.349-88.076-74.094-88.076-29.198 0-42.47 8.6058-55.73 18.79-3.9421 3.0274-10.925 10.179-6.3081 19.407 4.479 8.9509 13.879 8.5122 20.041 5.1832 18.559-10.025 41.387-9.3868 55.904 0.3425 13.847 9.2814 19.685 26.718 19.685 46.426z"/><path d="m8702.9-1555.7v149.23c8.6025 2.1258 21.374 2.8788 28.08 1.527 8.2303-1.6591 12.421-6.1739 12.421-13.736v-140.87c0-63.926-40.349-86.3-74.094-86.3-29.198 0-43.207 7.2446-60.7 20.989-3.9076 3.0705-11.877 11.331-7.26 20.558 4.479 8.9508 14.126 8.9264 20.041 5.1831 22.79-14.422 47.31-12.737 61.827-3.0075 13.847 9.2815 19.685 26.718 19.685 46.426z"/><path d="m8250.1-1646.4c-73.834 0-121.75 54.633-121.75 122.02-1e-4 16.078 2.5649 31.489 7.8881 45.483 4.5397 11.936 16.176 16.289 27.005 12.035 10.83-4.254 14.851-14.887 10.817-27.144-3.095-9.404-4.5068-19.682-4.5068-30.374 0-47.582 30.561-86.156 80.542-86.156 49.982 0 80.539 38.573 80.539 86.156s-30.558 86.152-80.539 86.152c-22.116 0-40.058-7.9585-53.97-20.098-6.4888-5.6613-19.07-6.1908-26.614 3.6972-7.5443 9.8881-4.7088 19.992 2.3425 26.01 19.872 16.958 46.946 26.262 78.241 26.262 73.834 0 121.75-54.633 121.75-122.02-5e-4 -67.392-47.911-122.02-121.75-122.02z"/><path d="m9322.9-1638.5c-0.8173 0.3645-1.58 0.7294-2.2833 1.0805l81.726 173.49c4.7265 10.034 16.775 14.374 26.911 9.6957 10.136-4.6786 14.522-16.605 9.795-26.638l-71.191-151.12c-8.368-17.763-32.698-11.965-44.958-6.5021z"/><path d="m9385.8-1335.3c35.265 13.246 42.356 4.3016 49.048-10.171l135.04-292.13c-0.6881-0.3346-1.4346-0.6808-2.2349-1.0249-12.001-5.1655-35.8-11.164-43.72 6.226l-76.918 168.87c-19.205 42.164-36.351 78.134-61.22 128.23z"/><path d="m9268.1-1725.7c4.7487-0.054 11.299 0.3563 17.214 1.8177v317.36c-8.6025 2.1258-21.374 2.8788-28.08 1.527-8.2303-1.6591-12.421-6.1739-12.421-13.736v-291.01c0-7.5624 4.1909-13.41 12.421-15.069 2.0955-0.4224 6.1172-0.8291 10.866-0.883z"/><path d="m8017.1-1646.4c-70.805 0-119.76 54.633-119.76 122.02-4e-4 67.392 48.959 122.02 119.76 122.02 25.584 0 56.851-5.2073 83.505-19.024 1.4724-13.154 0.4157-26.012-8.6234-30.135s-21.089 2.393-31.713 6.2639c-12.821 4.6714-26.402 7.2788-39.722 7.2788-51.39 0-82.052-38.686-82.052-86.409s30.662-86.409 82.052-86.409c13.318 0 26.899 2.6071 39.722 7.2788 10.624 3.8708 24.917 9.6474 32.91 5.8196 7.9922-3.8279 9.7966-17.129 7.4268-29.691-26.653-13.816-57.921-19.023-83.505-19.023z"/><path d="m9167.5-1646.4c-62.755 0-113.63 49.302-113.63 122.02 8e-4 72.722 49.675 122.02 113.63 122.02 23.444 0 46.006-6.5584 63.622-20.25 5.424-4.2159 9.5022-12.184 5.6307-19.799s-12.967-10.007-19.611-6.4287c-12.078 6.5055-25.792 11.251-40.336 11.251-45.23 0-81.897-34.096-81.897-86.798 7e-4 -52.702 36.667-85.958 81.897-85.958 14.543 0 27.958 4.3518 40.035 10.857 6.6433 3.5781 15.739 1.1866 19.611-6.4287 3.8715-7.6153-0.2068-15.583-5.6307-19.799-17.616-13.692-39.88-20.694-63.322-20.694z"/><path d="m8903.5-1646.4c-71.004 0-118.38 57.453-118.38 123.38 0 67.724 48.564 120.67 120.59 120.67 49.912 0 72.828-12.572 91.777-18.913 1.7841-26.459-8.4835-34.866-24.959-30.149-16.85 4.8234-29.873 12.143-64.838 12.143-50.317 0-81.109-34.475-81.109-85.006 0-50.528 28.738-87.519 75.724-87.519 46.987 0 69.802 35.81 69.802 70.347h-118.78a16.075 15.912 0 0 0-16.074 15.912 16.075 15.912 0 0 0 16.074 15.913h156.85c11.147-77.82-32.982-136.78-106.68-136.78z"/></g><path d="m25.341 370.63c-8.267 0-14.61 6.2783-14.61 14.462v229.81c0 8.1837 6.343 14.463 14.61 14.463h799.32c8.267 0 14.61-6.2792 14.61-14.463v-229.81c0-8.1836-6.343-14.462-14.61-14.462zm0 7.7212h799.32c4.081 0 6.81 2.701 6.81 6.7412v229.81c0 4.0399-2.729 6.7416-6.81 6.7416h-799.32c-4.081 0-6.813-2.7019-6.813-6.7416v-229.81c0-4.04 2.732-6.7412 6.813-6.7412z" color="#000000" color-rendering="auto" dominant-baseline="auto" enable-background="accumulate" fill="#ffed1f" image-rendering="auto" shape-rendering="auto" solid-color="#000000" stroke-width="1.4876" style="font-feature-settings:normal;font-variant-alternates:normal;font-variant-caps:normal;font-variant-ligatures:normal;font-variant-numeric:normal;font-variant-position:normal;isolation:auto;mix-blend-mode:normal;shape-padding:0;text-decoration-color:#000000;text-decoration-line:none;text-decoration-style:solid;text-indent:0;text-orientation:mixed;text-transform:none;white-space:normal"/><path transform="matrix(.46902 0 0 .46427 -609.1 328.87)" d="m1352.7 89.949c-17.627 0-31.15 13.523-31.15 31.15v494.99c0 17.627 13.523 31.152 31.15 31.152h1704.2c17.627 0 31.15-13.525 31.15-31.152v-494.99c0-17.627-13.523-31.15-31.15-31.15zm0 16.631h1704.2c8.7019 0 14.52 5.8177 14.52 14.52v494.99c0 8.7018-5.8177 14.521-14.52 14.521h-1704.2c-8.7019 0-14.527-5.8196-14.527-14.521v-494.99c0-8.7018 5.8255-14.52 14.527-14.52z" color="#000000" color-rendering="auto" dominant-baseline="auto" enable-background="accumulate" fill="#ffed1f" filter="url(#filter1938-0)" image-rendering="auto" shape-rendering="auto" solid-color="#000000" stroke-width="3.1878" style="font-feature-settings:normal;font-variant-alternates:normal;font-variant-caps:normal;font-variant-ligatures:normal;font-variant-numeric:normal;font-variant-position:normal;isolation:auto;mix-blend-mode:normal;shape-padding:0;text-decoration-color:#000000;text-decoration-line:none;text-decoration-style:solid;text-indent:0;text-orientation:mixed;text-transform:none;white-space:normal"/><path d="m1e-3 360v198.28c0-2.6222 0.876-22.178 14.176-24.978l821.12-73.98c7.496-1.6 14.699-9.5549 14.699-24.31v-75.006z" fill="url(#linearGradient5874-6-0)" opacity=".3" stop-color="#000000" style="font-variation-settings:normal"/></svg>
