<?xml version="1.0" encoding="UTF-8"?>
<svg id="svg68" version="1.1" viewBox="0 0 569.45 173.47" xmlns="http://www.w3.org/2000/svg" xmlns:cc="http://creativecommons.org/ns#" xmlns:dc="http://purl.org/dc/elements/1.1/" xmlns:rdf="http://www.w3.org/1999/02/22-rdf-syntax-ns#">
 <metadata id="metadata72">
  <rdf:RDF>
   <cc:Work rdf:about="">
    <dc:format>image/svg+xml</dc:format>
    <dc:type rdf:resource="http://purl.org/dc/dcmitype/StillImage"/>
    <dc:title/>
   </cc:Work>
  </rdf:RDF>
 </metadata>
 <defs id="defs30">
  <style id="style2">.cls-1{fill:url(#Background_Gradient);}.cls-2{fill:#a1a2a2;}.cls-3{fill:url(#Red_Gradient);}.cls-4{fill:#fff;}.cls-5{fill:#ae2c3f;}.cls-6{opacity:0.4;}</style>
  <linearGradient id="Background_Gradient" x1="-3667.1" x2="-3667.1" y1="2.33" y2="106.34" gradientTransform="matrix(-1 0 0 1 -3382.4 0)" gradientUnits="userSpaceOnUse">
   <stop id="stop4" stop-color="#868685" offset="0"/>
   <stop id="stop6" stop-color="#d8d9d9" offset=".02"/>
   <stop id="stop8" stop-color="#f5f5f5" offset=".05"/>
   <stop id="stop10" stop-color="#edeeee" offset=".49"/>
   <stop id="stop12" stop-color="#f5f5f5" offset=".9"/>
   <stop id="stop14" stop-color="#ebebec" offset=".93"/>
   <stop id="stop16" stop-color="#d8d9d9" offset=".96"/>
   <stop id="stop18" stop-color="#868685" offset="1"/>
  </linearGradient>
  <linearGradient id="Red_Gradient" x1="378.87" x2="378.87" y1="105.52" y2="3.22" gradientUnits="userSpaceOnUse">
   <stop id="stop21" stop-color="#820021" offset="0"/>
   <stop id="stop23" stop-color="#ae2c3f" offset=".1"/>
   <stop id="stop25" stop-color="#ae2c3f" offset=".9"/>
   <stop id="stop27" stop-color="#ba3c4c" offset="1"/>
  </linearGradient>
  <linearGradient id="SVGID_1_" x1="-3666.4" x2="-3666.4" y1="2.8792" y2="106.89" gradientTransform="matrix(-1 0 0 1 -3381.7 0)" gradientUnits="userSpaceOnUse">
   <stop id="stop4-2" stop-color="#868685" offset="0"/>
   <stop id="stop6-5" stop-color="#D8D9D9" offset=".020448"/>
   <stop id="stop8-0" stop-color="#F5F5F5" offset=".052404"/>
   <stop id="stop10-1" stop-color="#EDEEEE" offset=".4877"/>
   <stop id="stop12-0" stop-color="#F5F5F5" offset=".8955"/>
   <stop id="stop14-2" stop-color="#EBEBEC" offset=".9294"/>
   <stop id="stop16-8" stop-color="#D8D9D9" offset=".9643"/>
   <stop id="stop18-1" stop-color="#868685" offset="1"/>
  </linearGradient>
  <linearGradient id="SVGID_2_" x1="378.87" x2="378.87" y1="106.07" y2="3.7692" gradientUnits="userSpaceOnUse">
   <stop id="stop25-3" stop-color="#820021" offset="0"/>
   <stop id="stop27-7" stop-color="#AE2C3F" offset=".1044"/>
   <stop id="stop29" stop-color="#AE2C3F" offset=".9017"/>
   <stop id="stop31" stop-color="#BA3C4C" offset="1"/>
  </linearGradient>
 </defs>
 <g id="Art-9" transform="matrix(1.0001 0 0 1.0001 3.34e-6 -.5296)">
  <g id="g74">
   <path id="path21" class="st0" d="m15 106.1c-8.1 0-11-4.8-11-12.7v-77c0-7.9 2.9-12.6 11-12.6h539.5c8.1 0 10.9 4.8 10.9 12.7v76.9c0 7.9-2.9 12.7-10.9 12.7h-539.5z" fill="url(#SVGID_1_)"/>
   <path id="path23" class="st1" d="m16.2 108.3c-8.1 0-13.5-4.8-13.5-12.7v-81.4c0-7.9 5.5-12.7 13.5-12.7h537.1c8.1 0 13.5 4.8 13.5 12.7v81.4c0 7.9-5.5 12.7-13.5 12.7h-537.1zm537.6 1c12 0 15.6-7.4 15.6-14.9v-79c0-7.4-3.6-14.9-15.6-14.9h-538.2c-12 0.1-15.6 7.5-15.6 14.9v79c0 7.4 3.6 14.9 15.6 14.9z" fill="#a1a2a2"/>
   <path id="path34-8" class="st2" d="m554.5 3.8h-362.2v102.3h362.2c8.1 0 10.9-4.8 10.9-12.7v-77c0-7.9-2.8-12.6-10.9-12.6z" fill="url(#SVGID_2_)"/>
   <g id="g48" fill="#fff">
    <path id="path36-1" class="st3" d="m242.8 87.2c-4.5 0-8.7-0.8-12.6-2.4-3.8-1.6-7.2-3.9-10-6.8s-5-6.3-6.6-10.3-2.4-8.3-2.4-12.9c0-4.5 0.8-8.7 2.4-12.6s3.8-7.3 6.6-10.2 6.1-5.1 10-6.8c3.8-1.6 8-2.4 12.6-2.4 3.3 0 6.4 0.4 9.5 1.1s5.9 1.6 8.5 2.7c0.6 8.5-1.5 12.8-6.2 12.8-0.8 0-1.6-0.1-2.3-0.3s-1.5-0.4-2.3-0.6-1.8-0.4-2.8-0.6-2.2-0.3-3.6-0.3c-2.2 0-4.3 0.4-6.3 1.2s-3.7 2-5.1 3.5-2.6 3.3-3.4 5.4-1.2 4.5-1.2 7.1c0 2.8 0.4 5.2 1.2 7.4s2 4 3.4 5.5 3.1 2.7 5.1 3.5 4.1 1.2 6.3 1.2c1.4 0 2.6-0.1 3.7-0.3s2.1-0.4 2.9-0.6c0.9-0.2 1.7-0.4 2.4-0.6 0.8-0.2 1.6-0.3 2.4-0.3 4.7 0 6.7 4.3 6.2 12.8-2.6 1.1-5.5 2-8.8 2.7-3.1 0.7-6.3 1.1-9.6 1.1z"/>
    <path id="path38-2" class="st3" d="m275.9 86.4c-1.3 0-2.7-0.1-4-0.2s-2.4-0.3-3.3-0.5v-55.6c0-1.9 0.6-3.4 1.7-4.8 1.1-1.3 3.3-2 6.5-2 1.3 0 2.7 0.1 4 0.2s2.4 0.3 3.3 0.5v55.6c0 1.9-0.6 3.4-1.7 4.8-1.2 1.4-3.3 2-6.5 2z"/>
    <path id="path40-2" class="st3" d="m302.1 86.4c-1.3 0-2.5-0.1-3.7-0.2s-2.2-0.3-3.1-0.5v-61.1c1-0.3 2.2-0.6 3.7-0.8s2.8-0.3 3.9-0.3c3.5 0 6.1 0.4 7.7 1.3s2.9 2.2 4 3.9l21.8 34.3v-33.5c0-0.8 0.1-1.6 0.3-2.4 0.2-0.7 0.6-1.4 1.1-2s1.3-1 2.3-1.3 2.2-0.5 3.6-0.5c1.3 0 2.5 0.1 3.7 0.2s2.2 0.3 3 0.4v61.3c-0.9 0.4-2 0.8-3.3 0.9-1.3 0.2-2.5 0.2-3.7 0.2-3 0-5.2-0.4-6.7-1.2s-2.7-2-3.6-3.5l-23.3-37.3v35.6c0 1.8-0.5 3.3-1.6 4.5-1.1 1.4-3.1 2-6.1 2z"/>
    <path id="path42-1" class="st3" d="m370.1 86c-1.8 0-3.2-0.2-4.4-0.6-1.1-0.4-2-0.9-2.6-1.6s-1-1.5-1.2-2.4c-0.2-1-0.3-2-0.3-3.1v-47c0-1.1 0.1-2.1 0.3-3.1s0.6-1.8 1.2-2.4c0.6-0.7 1.5-1.2 2.6-1.6s2.6-0.6 4.4-0.6h31.7c0.1 0.7 0.3 1.7 0.4 2.9s0.2 2.5 0.2 3.7c0 2.7-0.5 4.6-1.6 5.7s-2.5 1.7-4.1 1.7h-19.5v10.9h22.5c0.1 0.6 0.3 1.5 0.4 2.5 0.1 1.1 0.2 2.2 0.2 3.4 0 2.6-0.5 4.3-1.5 5.2s-2.3 1.4-3.8 1.4h-17.7v11h25.7c0.1 0.7 0.3 1.7 0.4 2.9s0.2 2.5 0.2 3.7c0 2.8-0.5 4.7-1.6 5.8s-2.5 1.6-4.1 1.6z"/>
    <path id="path44-6" class="st3" d="m416.2 86.4c-1.5 0-2.8-0.1-3.9-0.4s-2.1-0.6-2.9-1l5.9-59.8c1.2-0.5 2.8-0.9 4.8-1.2s3.7-0.5 5.1-0.5c2 0 3.7 0.1 5.1 0.4s2.7 0.7 3.7 1.3 1.8 1.5 2.4 2.5c0.6 1.1 1.1 2.4 1.4 4l2.5 11.6c0.7 3.2 1.5 6.7 2.3 10.6s1.5 7.9 2.2 12h0.4c0.7-4.1 1.4-8.1 2.2-11.9s1.6-7.4 2.4-10.6l3.1-12.2c0.8-3 2-5.1 3.7-6.1 1.7-1.1 4.3-1.6 7.9-1.6 1.8 0 3.6 0.1 5.4 0.4s3.3 0.6 4.5 0.9l5.6 60.2c-0.9 0.3-2 0.6-3.2 1-1.2 0.3-2.6 0.5-4.1 0.5-2 0-3.8-0.4-5.2-1.1s-2.2-2-2.3-3.9l-1.4-20.7c-0.3-3.6-0.6-7.5-0.8-11.5s-0.4-7.8-0.4-11.4h-0.2c-0.8 3.3-1.7 6.9-2.5 10.8-0.9 3.9-1.7 7.4-2.6 10.7l-3.9 16.3c-1 3.8-4 5.8-9.1 5.8-1.3 0-2.6-0.1-3.9-0.4s-2.5-0.5-3.4-0.9l-4.9-20.4c-1-3.8-1.9-7.5-2.7-11.1s-1.6-7.3-2.3-10.9h-0.3c-0.2 5.1-0.4 9.8-0.8 14.1-0.3 4.3-0.6 7.9-0.9 11l-1.5 18.7c-0.1 1.9-0.8 3.1-2.1 3.8-1.6 0.7-3.3 1-5.3 1z"/>
    <path id="path46-1" class="st3" d="m491.6 86.6c-1.2 0-2.6-0.1-4.2-0.3s-2.9-0.5-3.9-0.9l19.9-60.9c1.7-0.4 3.5-0.8 5.2-1 1.8-0.2 3.4-0.3 4.9-0.3 2.1 0 3.9 0.2 5.4 0.5s2.8 0.8 3.8 1.4 1.9 1.5 2.5 2.5c0.7 1.1 1.2 2.3 1.7 3.7l17 53.9c-1.1 0.4-2.4 0.8-3.9 1s-3 0.3-4.5 0.3c-1.7 0-3.3-0.3-4.8-0.8-1.6-0.5-2.7-1.8-3.4-3.7l-3.3-9.9h-20.9l-2.8 9.3c-0.7 2.2-1.9 3.6-3.5 4.2-1.6 0.7-3.3 1-5.2 1zm15-26.4h14.3l-7.1-23.5z"/>
   </g>
   <path id="path50-2" class="st4" d="m125.5 98.2c1.2 0.6 3.7 1.4 6.8 1.4 5.3 0.1 8.2-1.9 10.4-6.7l28.6-63.7c-1.2-0.6-3.8-1.3-5.9-1.4-3.7-0.1-8.6 0.7-11.8 8.2l-9.3 21.8-18.1-29.6c-1.2-0.4-4-0.9-6.1-0.9-6.4 0-10 2.4-13.7 6.4l-17.7 19.5 14.2 22.3c2.6 4.1 6.1 6.1 11.7 6.1 3.7 0 6.7-0.8 8.1-1.5l-17.1-25.8 12.1-12.8 19.9 31.2zm-37.5-24.1c0 4.7-1.8 7.4-11 7.4-1.2 0-2.3-0.1-3.3-0.2v-62.3c0-4.7 1.6-9.7 10.9-9.7 1.2 0 2.3 0.1 3.4 0.3v64.5zm-18.9-9.4c0 8.8-5.7 15.2-17.4 16.4-8.4 0.9-20.6-0.1-26.3-0.8-0.2-0.9-0.4-2.1-0.4-3 0-7.7 4.1-9.4 8-9.4 4 0 10.4 0.7 15.1 0.7 5.2 0 6.8-1.8 6.8-3.4 0-2.2-2.1-3.1-6.1-3.9l-11-2.1c-9.2-1.8-14.1-8.1-14.1-14.8 0-8.2 5.8-15.1 17.2-16.3 8.6-0.9 19.1 0.1 24.9 0.8 0.2 1 0.3 1.9 0.3 3 0 7.6-4 9.3-7.9 9.3-3 0-7.6-0.6-12.9-0.6-5.4 0-7.6 1.5-7.6 3.3 0 1.9 2.1 2.7 5.5 3.3l10.5 2c10.8 1.8 15.4 7.9 15.4 15.5z" fill="#ae2c3f"/>
   <g id="g64" class="st5" display="none">
    <path id="path52-1" class="st6" d="m194.1 175.3c-10.8 0-18.8-8.2-18.8-19.7 0-11.1 8.1-19.8 18.8-19.8 4 0 7.8 0.8 11.1 2.2 0.5 3.4-0.8 5.5-2.8 5.5-1.6 0-3.6-1.5-8-1.5-6.8 0-12.1 5.4-12.1 13.7 0 8.6 5.3 13.6 12.1 13.6 4.5 0 6.2-1.5 7.8-1.5 2.3 0 3.7 1.9 3.2 5.5-3.4 1.2-6.9 2-11.3 2z" display="inline"/>
    <path id="path54-8" class="st6" d="m208.2 155.3c0-11.2 7.7-19.9 19-19.9 11.3-0.1 19 8.7 19 19.9s-7.7 20.2-19 20.2-19-9-19-20.2zm31.1 0c0-8-5.3-14-12.1-14-6.7 0-12.1 5.9-12.1 14 0 8.3 5.3 14.3 12 14.3s12.2-6.3 12.2-14.3z" display="inline"/>
    <path id="path56" class="st6" d="m282.6 142.3h-0.1l-7.1 26.9c-0.6 2.2-2.2 2.9-4.6 2.9-1.2 0-2.6-0.2-3.5-0.5l-8.1-29.4h-0.1l-2.7 30.6c-0.2 1.7-1.4 2.2-3.2 2.2-1.3 0-2.3-0.4-3-0.7l3.9-37.6c1.1-0.5 3.2-0.8 4.5-0.8 3.6 0 5.2 1 5.9 3.6l6.5 25.8h0.1l6.5-25.6c0.7-2.7 2.6-3.8 5.8-3.8 1.6 0 3.4 0.3 4.5 0.6l3.7 37.8c-0.8 0.3-1.9 0.7-3.2 0.7-1.8 0-3.1-0.5-3.3-2.3z" display="inline"/>
    <path id="path58" class="st6" d="m301.1 174.7c-2.9 0-3.4-1.3-3.4-3.1v-32.5c0-1.8 0.5-3.1 3.4-3.1h20c0.1 0.6 0.3 1.8 0.3 3 0 2.3-1.1 3.1-2.6 3.1h-14.5v10.3h15.3c0.1 0.6 0.2 1.7 0.2 2.8 0 2.2-1 3-2.4 3h-13.2v10.4h17.3c0.1 0.7 0.2 1.7 0.2 2.8 0 2.4-1.1 3.3-2.5 3.3z" display="inline"/>
    <path id="path60" class="st6" d="m331 174.7c-2.9 0-3.4-1.3-3.4-3.1v-32.5c0-1.8 0.5-3.1 3.4-3.1h8.1c12.9 0 20.9 7.4 20.9 19 0 10.9-7.9 19.6-21 19.6h-8zm8.6-6c7.5 0 13.6-4.5 13.6-13.7 0-8.3-6.1-12.8-13.7-12.8h-5.2v26.5z" display="inline"/>
    <path id="path62" class="st6" d="m377.4 152.8 9.2-14.9c0.9-1.5 2-2 3.9-2 1.1 0 2.9 0.3 3.8 0.9l-13.8 21.5v14c0 1.5-0.8 2.8-3.4 2.8-1.2 0-2.6-0.2-3.3-0.3v-16.4l-14-21.5c1.1-0.6 2.8-1 4-1 2.1 0 3.4 0.4 4.3 1.9z" display="inline"/>
   </g>
   <g id="g72">
    <g id="g70" class="st8" opacity=".4">
     <g id="g68">
      <path id="path66" class="st3" d="m555.2 82.1c6.9 6.9 7.9 13.3 8.1 14.8 0.7 0 0.9-3 0.9-7.6v-72.6c0-8.4-2.7-11.3-9.9-11.3-2.4 0-4.8 1.3-8 1.3h-523.6c-3.2 0-5.6-1.3-8-1.3-7.1 0-9.9 2.8-9.9 11.3v72.6c0 4.5 0.3 7.6 0.9 7.6 0.2-1.4 0.5-8.4 8.1-14.8 61.3-47.3 475.4-61.8 541.4 0z" fill="#fff"/>
     </g>
    </g>
   </g>
  </g>
 </g>
 <g id="HITS" fill="#fff">
  <path id="path59" d="M231.26,173.3q-1,0-1.87-.09A10.31,10.31,0,0,1,228,173V136.94a2.82,2.82,0,0,1,.74-2,3.52,3.52,0,0,1,2.65-.8q1,0,1.87.09a10.28,10.28,0,0,1,1.4.21v16.24h18.09V136.94a2.82,2.82,0,0,1,.74-2,3.52,3.52,0,0,1,2.65-.8q1,0,1.9.09a10.39,10.39,0,0,1,1.43.21V170.5a2.82,2.82,0,0,1-.74,2,3.52,3.52,0,0,1-2.65.8q-1,0-1.9-.09a10.4,10.4,0,0,1-1.43-.21V156.46H234.65v14a2.82,2.82,0,0,1-.74,2A3.53,3.53,0,0,1,231.26,173.3Z"/>
  <path id="path61" d="M270.64,173.3q-1,0-1.87-.09a10.31,10.31,0,0,1-1.4-.21V136.94a2.82,2.82,0,0,1,.74-2,3.52,3.52,0,0,1,2.65-.8q1,0,1.87.09a10.28,10.28,0,0,1,1.4.21V170.5a2.82,2.82,0,0,1-.74,2A3.53,3.53,0,0,1,270.64,173.3Z"/>
  <path id="path63" d="M293.55,173.3q-1,0-1.87-.09a10.31,10.31,0,0,1-1.4-.21V140.33h-11.9a7.85,7.85,0,0,1-.18-1.28q-.06-.8-.06-1.7a3.07,3.07,0,0,1,.77-2.5,3.13,3.13,0,0,1,2-.59h27.85A11.55,11.55,0,0,1,309,137q0,3.33-2.74,3.33h-9.28V170.5a2.82,2.82,0,0,1-.74,2A3.52,3.52,0,0,1,293.55,173.3Z"/>
  <path id="path65" d="M324.61,173.47a37.18,37.18,0,0,1-6.34-.59,48.07,48.07,0,0,1-7-1.79,2.6,2.6,0,0,0,0-.42,2.49,2.49,0,0,1,0-.42,6.25,6.25,0,0,1,.71-3.18,2.48,2.48,0,0,1,2.32-1.22,8.73,8.73,0,0,1,1.84.24l2.41.54q1.34.3,3,.54a25,25,0,0,0,3.6.24q4.1,0,5.86-1.49a4.7,4.7,0,0,0,1.75-3.75,4.16,4.16,0,0,0-.42-1.93,3.93,3.93,0,0,0-1.19-1.37,7.93,7.93,0,0,0-1.87-1q-1.1-.41-2.53-.83l-4.94-1.37q-5.83-1.61-8.12-4.46a10.17,10.17,0,0,1-2.29-6.54,11.73,11.73,0,0,1,.66-3.78,8.66,8.66,0,0,1,2.26-3.48,12.43,12.43,0,0,1,4.28-2.56,19.21,19.21,0,0,1,6.72-1,34.76,34.76,0,0,1,5.86.54,40.31,40.31,0,0,1,6.52,1.73v.83a6.11,6.11,0,0,1-.68,3.15,2.41,2.41,0,0,1-2.23,1.13A7.69,7.69,0,0,1,333,141q-.92-.21-2.08-.42t-2.65-.42A24.23,24.23,0,0,0,325,140a12.94,12.94,0,0,0-3.45.39,6.34,6.34,0,0,0-2.2,1,3.88,3.88,0,0,0-1.19,1.46,4,4,0,0,0-.36,1.64,3.5,3.5,0,0,0,1.34,3,15.19,15.19,0,0,0,4.79,2l5.24,1.49q10.41,2.74,10.41,10.83a12.65,12.65,0,0,1-.86,4.76A9.31,9.31,0,0,1,336,170.2a13.15,13.15,0,0,1-4.64,2.41A23,23,0,0,1,324.61,173.47Z"/>
 </g>
</svg>
