<?xml version="1.0" encoding="UTF-8"?>
<!-- Generator: Adobe Illustrator 21.1.0, SVG Export Plug-In . SVG Version: 6.00 Build 0)  -->
<svg id="Art" width="830.52" height="108.9" version="1.1" viewBox="0 0 830.52 108.9" xml:space="preserve" xmlns="http://www.w3.org/2000/svg" xmlns:cc="http://creativecommons.org/ns#" xmlns:dc="http://purl.org/dc/elements/1.1/" xmlns:rdf="http://www.w3.org/1999/02/22-rdf-syntax-ns#" xmlns:xlink="http://www.w3.org/1999/xlink"><metadata id="metadata73"><rdf:RDF><cc:Work rdf:about=""><dc:format>image/svg+xml</dc:format><dc:type rdf:resource="http://purl.org/dc/dcmitype/StillImage"/><dc:title/></cc:Work></rdf:RDF></metadata><defs id="defs71"><clipPath id="clipPath10774"><path id="path10772" d="m92.828 372.27h44.021v5.773h-44.021z"/></clipPath><linearGradient id="linearGradient10806" x2="1" gradientTransform="matrix(0 -5.522 5.522 0 114.84 377.93)" gradientUnits="userSpaceOnUse"><stop id="stop10790" stop-color="#888685" offset="0"/><stop id="stop10792" stop-color="#d9d9da" offset=".020448"/><stop id="stop10794" stop-color="#f5f5f6" offset=".052404"/><stop id="stop10796" stop-color="#eeefef" offset=".48766"/><stop id="stop10798" stop-color="#f5f5f6" offset=".89549"/><stop id="stop10800" stop-color="#ebebec" offset=".92944"/><stop id="stop10802" stop-color="#d9d9da" offset=".96426"/><stop id="stop10804" stop-color="#888685" offset="1"/></linearGradient><linearGradient id="linearGradient10830" x2="1" gradientTransform="matrix(0 5.4309 5.4309 0 112.92 372.45)" gradientUnits="userSpaceOnUse"><stop id="stop10820" stop-color="#810a32" offset="0"/><stop id="stop10822" stop-color="#a90e3a" offset=".10441"/><stop id="stop10824" stop-color="#a90e3a" offset=".89813"/><stop id="stop10826" stop-color="#b94556" offset=".99967"/><stop id="stop10828" stop-color="#b94556" offset="1"/></linearGradient><clipPath id="clipPath10840"><path id="path10838" d="m96.036 387.54s-4.583 0-4.583-4.583v-15.279s0-4.584 4.583-4.584h37.605s4.584 0 4.584 4.584v15.279s0 4.583-4.584 4.583z"/></clipPath><linearGradient id="linearGradient10908" x2="1" gradientTransform="matrix(0 -5.522 5.522 0 114.84 377.93)" gradientUnits="userSpaceOnUse"><stop id="stop10892" stop-color="#b4b2b1" offset="0"/><stop id="stop10894" stop-color="#e8e8e9" offset=".020448"/><stop id="stop10896" stop-color="#f9f9fa" offset=".052404"/><stop id="stop10898" stop-color="#f5f5f5" offset=".48766"/><stop id="stop10900" stop-color="#f9f9fa" offset=".89549"/><stop id="stop10902" stop-color="#f4f3f4" offset=".92944"/><stop id="stop10904" stop-color="#e8e8e9" offset=".96426"/><stop id="stop10906" stop-color="#b4b2b1" offset="1"/></linearGradient><linearGradient id="linearGradient10932" x2="1" gradientTransform="matrix(0 5.4309 5.4309 0 112.92 372.45)" gradientUnits="userSpaceOnUse"><stop id="stop10922" stop-color="#af6773" offset="0"/><stop id="stop10924" stop-color="#c9747a" offset=".10441"/><stop id="stop10926" stop-color="#c9747a" offset=".89813"/><stop id="stop10928" stop-color="#d49093" offset=".99967"/><stop id="stop10930" stop-color="#d49093" offset="1"/></linearGradient><clipPath id="clipPath10942"><path id="path10940" d="m96.036 387.54s-4.583 0-4.583-4.583v-15.279s0-4.584 4.583-4.584h37.605s4.584 0 4.584 4.584v15.279s0 4.583-4.584 4.583z"/></clipPath><clipPath id="clipPath11008"><path id="path11006" d="m96.036 387.54s-4.583 0-4.583-4.583v-15.279s0-4.584 4.583-4.584h37.605s4.584 0 4.584 4.584v15.279s0 4.583-4.584 4.583z"/></clipPath><linearGradient id="linearGradient1114" x2="1" gradientTransform="matrix(0 -5.522 5.522 0 114.84 377.93)" gradientUnits="userSpaceOnUse" xlink:href="#linearGradient10908"/></defs>
<style id="style2" type="text/css">
	.st0{fill:#A1A2A2;}
	.st1{opacity:0.8;fill:#FFFFFF;}
	.st2{fill:url(#SVGID_1_);}
	.st3{fill:url(#SVGID_2_);}
	.st4{fill:#FFFFFF;}
	.st5{fill:#AE2C3F;}
	.st6{opacity:0.4;}
</style>
<g id="g17247" transform="matrix(18.867 0 0 -18.867 -1751.4 7132.6)"><g id="g10768"><g id="g10770" clip-path="url(#clipPath10774)"><g id="g10776" transform="translate(136.02 372.27)"><path id="path10778" d="m0 0c0.636 0 0.829 0.395 0.829 0.79v4.192c0 0.395-0.193 0.79-0.829 0.79h-42.362c-0.636 0-0.829-0.395-0.829-0.79v-4.192c0-0.395 0.193-0.79 0.829-0.79h42.362m-42.333 0.053c-0.428 0-0.717 0.253-0.717 0.673v4.32c0 0.421 0.289 0.673 0.717 0.673h42.304c0.428 0 0.717-0.252 0.717-0.673v-4.32c0-0.42-0.289-0.673-0.717-0.673h-42.304" fill="#a1a2a2"/></g></g></g><g id="g10780"><g id="g10782"><g id="g10788"><path id="path10808" d="m93.622 377.88c-0.428 0-0.58-0.252-0.58-0.673v-4.085c0-0.42 0.152-0.673 0.58-0.673h9.415v2.96c-0.584-0.046-1.15-0.093-1.698-0.146l-0.95-2.121c-0.112-0.246-0.261-0.356-0.53-0.356-7e-3 0-0.014 0-0.022 1e-3 -0.165 5e-3 -0.296 0.044-0.36 0.077l0.643 1.354-0.548 0.862c-0.342-0.04-0.674-0.081-0.993-0.123l0.75-1.132c-0.074-0.036-0.237-0.08-0.432-0.08-0.297 0-0.481 0.11-0.621 0.326l-0.492 0.776c-0.101-0.015-0.2-0.03-0.297-0.045v-0.658c0-0.25-0.097-0.394-0.584-0.394-0.065 0-0.121 5e-3 -0.175 0.013v0.913c-0.083-0.014-0.164-0.028-0.245-0.044-5e-3 -0.459-0.309-0.794-0.921-0.861-0.123-0.013-0.261-0.019-0.403-0.019-0.375 0-0.777 0.037-1 0.063-0.011 0.05-0.02 0.113-0.02 0.161 0 0.017 0 0.034 1e-3 0.051-0.246-0.099-0.439-0.201-0.576-0.306-0.407-0.338-0.418-0.709-0.431-0.784-0.036 0-0.05 0.161-0.05 0.401l1e-3 3.856c0 0.446 0.146 0.596 0.524 0.596 0.129 0 0.257-0.068 0.428-0.068h9.001v0.156h19.764v-0.156h12.842c0.171 0 0.298 0.068 0.426 0.068 0.379 0 0.524-0.15 0.524-0.596l2e-3 -3.856c0-0.24-0.014-0.401-0.05-0.401-0.013 0.075-0.063 0.419-0.432 0.784-0.195 0.182-0.491 0.353-0.876 0.511-0.281-0.303-0.72-0.482-1.283-0.483l-0.693-1e-3h-3e-3c-0.33 0-0.41 0.179-0.41 0.399l-2e-3 0.733c-0.131 0.025-0.265 0.05-0.403 0.074l3e-3 -0.871c0-0.207-0.083-0.34-0.512-0.341h-3e-3c-0.051 0-0.096 5e-3 -0.148 0.012l-2e-3 1.142-1.337-3e-3 2e-3 -0.815c1e-3 -0.207-0.082-0.339-0.512-0.34h-2e-3c-0.051 0-0.096 4e-3 -0.148 0.011l-4e-3 1.575c-0.441 0.048-0.899 0.093-1.371 0.135l4e-3 -1.684c0-0.104-0.032-0.192-0.096-0.265-0.063-0.073-0.185-0.11-0.362-0.11h-6e-3c-0.072 0-0.144 3e-3 -0.216 0.01s-0.134 0.015-0.184 0.026l-5e-3 2.096c-0.651 0.051-1.325 0.097-2.022 0.136l1e-3 -0.243 0.941 3e-3c7e-3 -0.035 0.013-0.075 0.02-0.121s0.011-0.1 0.011-0.162c0-0.13-0.027-0.221-0.082-0.272-0.055-0.052-0.121-0.078-0.2-0.078l-0.688-1e-3 2e-3 -0.751c0-0.078-0.025-0.145-0.072-0.198-0.048-0.053-0.137-0.08-0.268-0.08h-3e-3c-0.057 0-0.112 3e-3 -0.163 7e-3 -0.053 5e-3 -0.099 0.011-0.137 0.018l-2e-3 1.002-0.93-2e-3c-7e-3 0.034-0.014 0.075-0.021 0.121-6e-3 0.045-0.01 0.099-0.01 0.161-1e-3 0.131 0.026 0.222 0.081 0.273 0.055 0.052 0.122 0.078 0.201 0.078l0.677 1e-3v0.28c-0.677 0.035-1.371 0.065-2.079 0.091v-3.346h13.254c0.428 0 0.58 0.253 0.58 0.673v4.085c0 0.421-0.152 0.673-0.58 0.673zm6.753-2.712 0.1-0.164 0.078 0.182c-0.061-6e-3 -0.118-0.012-0.178-0.018m33.136-0.806 0.48 1e-3c0.217 1e-3 0.389 0.047 0.522 0.122-0.302 0.091-0.637 0.176-1.003 0.258z" fill="url(#linearGradient10806)"/></g></g></g><g id="g10810"><g id="g10812"><g id="g10818"><path id="path10832" d="m103.04 377.72h19.763v0.156h-19.763zm13.634-1.822h-0.499l0.026-0.124c0.038-0.17 0.077-0.357 0.12-0.563 0.042-0.205 0.08-0.417 0.114-0.635h0.021c0.037 0.218 0.075 0.429 0.117 0.633 0.04 0.204 0.083 0.391 0.127 0.561l0.031 0.128zm0.558-0.406c-0.046-0.206-0.093-0.395-0.141-0.569l-0.209-0.867c-0.05-0.203-0.211-0.306-0.482-0.306-0.068 0-0.138 7e-3 -0.209 0.021-0.071 0.013-0.132 0.029-0.183 0.046l-0.26 1.081c-0.05 0.2-0.098 0.398-0.142 0.591-0.03 0.135-0.06 0.271-0.087 0.406h-0.058c-9e-3 -0.204-0.019-0.395-0.033-0.572-0.017-0.225-0.032-0.42-0.046-0.584l-0.081-0.993c-7e-3 -0.099-0.044-0.168-0.111-0.205-0.069-0.037-0.157-0.055-0.265-0.055-0.078 0-0.147 7e-3 -0.206 0.022-0.06 0.015-0.112 0.033-0.156 0.054l0.229 2.327c-0.648-6e-3 -1.295-0.016-1.941-0.027v-0.368h1.196c6e-3 -0.034 0.013-0.079 0.019-0.135 7e-3 -0.056 0.011-0.117 0.011-0.181 0-0.136-0.028-0.229-0.082-0.278s-0.121-0.073-0.203-0.073h-0.941v-0.577h1.363c7e-3 -0.037 0.013-0.089 0.021-0.155 6e-3 -0.067 0.01-0.132 0.01-0.197 0-0.146-0.029-0.248-0.087-0.305-0.057-0.059-0.13-0.088-0.219-0.088h-1.459c-0.095 0-0.172 0.011-0.232 0.031-0.059 0.021-0.105 0.049-0.137 0.085-0.032 0.035-0.054 0.079-0.066 0.129-0.012 0.051-0.018 0.105-0.018 0.164v1.93c-0.198-5e-3 -0.394-0.01-0.591-0.015v-2.282c-0.048-0.025-0.106-0.041-0.174-0.049-0.068-9e-3 -0.133-0.012-0.198-0.012-0.159 0-0.278 0.021-0.357 0.065-0.077 0.044-0.142 0.106-0.192 0.184l-1.237 1.978v-1.891c0-0.095-0.028-0.175-0.086-0.24s-0.166-0.096-0.325-0.096c-0.068 0-0.134 2e-3 -0.199 9e-3 -0.064 8e-3 -0.119 0.016-0.163 0.026v2.207c-0.198-8e-3 -0.395-0.016-0.592-0.025v-1.861c0-0.098-0.031-0.183-0.092-0.252-0.061-0.07-0.176-0.104-0.345-0.104-0.071 0-0.142 2e-3 -0.211 9e-3 -0.07 8e-3 -0.129 0.016-0.175 0.026v2.143c-0.72-0.036-1.426-0.076-2.116-0.12 0-1e-3 0-3e-3 -1e-3 -4e-3 -0.044-0.112-0.066-0.238-0.066-0.377 0-0.147 0.022-0.277 0.066-0.393 0.044-0.115 0.104-0.213 0.181-0.293 0.076-0.08 0.166-0.141 0.271-0.183 0.106-0.043 0.217-0.064 0.336-0.064 0.075 0 0.14 4e-3 0.198 0.015 0.058 0.01 0.11 0.02 0.156 0.031 0.046 0.01 0.089 0.02 0.129 0.03 0.041 0.01 0.083 0.016 0.127 0.016 0.248 0 0.359-0.226 0.332-0.679-0.14-0.058-0.295-0.105-0.467-0.142-0.171-0.038-0.343-0.057-0.515-0.057-0.242 0-0.463 0.043-0.666 0.131-0.204 0.086-0.38 0.206-0.53 0.359-0.149 0.153-0.266 0.335-0.351 0.545-0.084 0.212-0.126 0.439-0.126 0.684 0 0.11 8e-3 0.217 0.027 0.321-0.351-0.025-0.695-0.05-1.035-0.077v-2.962h19.764v3.348c-0.598 0.022-1.205 0.04-1.819 0.055l0.728-2.301c-0.058-0.025-0.128-0.043-0.209-0.054-0.081-0.012-0.161-0.018-0.239-0.018-0.089 0-0.174 0.014-0.257 0.043s-0.143 0.094-0.18 0.197l-0.174 0.525h-1.109l-0.147-0.494c-0.037-0.12-0.1-0.195-0.188-0.225-0.088-0.031-0.181-0.046-0.279-0.046-0.065 0-0.139 6e-3 -0.222 0.018-0.083 0.011-0.152 0.028-0.206 0.048l0.764 2.339c-0.392 6e-3 -0.787 0.01-1.182 0.013l0.217-2.331c-0.048-0.017-0.105-0.034-0.17-0.051-0.067-0.017-0.139-0.025-0.216-0.025-0.109 0-0.201 0.018-0.276 0.055-0.074 0.037-0.115 0.107-0.121 0.209l-0.077 1.102c-0.017 0.193-0.031 0.397-0.043 0.609-8e-3 0.151-0.014 0.296-0.019 0.436-0.018 0-0.038 0-0.055 1e-3 -0.031-0.129-0.062-0.264-0.093-0.406m2.492-0.615h0.761l-0.3 0.988c-0.054 1e-3 -0.105 2e-3 -0.159 3e-3zm-9.707 0.909 0.671-1.057v1.079c-0.225-8e-3 -0.448-0.015-0.671-0.022" fill="url(#linearGradient10830)"/></g></g></g><g id="g10834"><g id="g10836" clip-path="url(#clipPath10840)"><g id="g10842" transform="translate(105.72 373.44)"><path id="path10844" d="m0 0c-0.241 0-0.463 0.043-0.666 0.13-0.204 0.087-0.38 0.207-0.529 0.359-0.149 0.153-0.267 0.335-0.351 0.546-0.085 0.211-0.127 0.439-0.127 0.683 0 0.238 0.042 0.461 0.127 0.668 0.084 0.208 0.202 0.388 0.351 0.541s0.325 0.273 0.529 0.359c0.203 0.087 0.425 0.13 0.666 0.13 0.173 0 0.341-0.018 0.504-0.056 0.162-0.037 0.313-0.085 0.452-0.143 0.031-0.452-0.08-0.678-0.33-0.678-0.045 0-0.085 5e-3 -0.122 0.016-0.038 0.01-0.079 0.02-0.123 0.03s-0.093 0.021-0.147 0.031-0.119 0.015-0.193 0.015c-0.119 0-0.231-0.021-0.336-0.064-0.105-0.042-0.196-0.103-0.272-0.183s-0.137-0.176-0.181-0.288c-0.044-0.113-0.066-0.238-0.066-0.378 0-0.146 0.022-0.277 0.066-0.392 0.044-0.116 0.105-0.214 0.181-0.293 0.076-0.08 0.167-0.142 0.272-0.184 0.105-0.043 0.217-0.064 0.336-0.064 0.074 0 0.14 5e-3 0.198 0.016 0.058 0.01 0.109 0.02 0.155 0.03s0.089 0.021 0.13 0.031 0.083 0.015 0.127 0.015c0.247 0 0.358-0.226 0.331-0.678-0.139-0.058-0.295-0.106-0.466-0.143s-0.343-0.056-0.516-0.056" fill="#fff"/></g><g id="g10846" transform="translate(107.47 373.49)"><path id="path10848" d="m0 0c-0.071 0-0.142 3e-3 -0.211 0.01-0.07 7e-3 -0.128 0.015-0.176 0.026v2.952c0 0.099 0.031 0.183 0.092 0.252 0.061 0.07 0.176 0.105 0.346 0.105 0.071 0 0.141-4e-3 0.211-0.01 0.069-7e-3 0.128-0.016 0.175-0.026v-2.952c0-0.099-0.03-0.183-0.091-0.253-0.061-0.069-0.176-0.104-0.346-0.104" fill="#fff"/></g><g id="g10850" transform="translate(108.86 373.49)"><path id="path10852" d="m0 0c-0.068 0-0.134 3e-3 -0.198 0.01-0.065 7e-3 -0.119 0.015-0.163 0.026v3.248c0.051 0.017 0.117 0.031 0.198 0.043 0.082 0.012 0.151 0.018 0.209 0.018 0.186 0 0.322-0.024 0.407-0.072 0.084-0.047 0.156-0.117 0.213-0.209l1.155-1.82v1.775c0 0.044 6e-3 0.085 0.018 0.124 0.011 0.039 0.032 0.074 0.061 0.105 0.028 0.031 0.068 0.054 0.119 0.071s0.115 0.026 0.193 0.026c0.068 0 0.133-4e-3 0.196-0.01 0.063-7e-3 0.116-0.014 0.16-0.021v-3.253c-0.047-0.024-0.105-0.04-0.172-0.048-0.068-9e-3 -0.134-0.013-0.199-0.013-0.159 0-0.278 0.022-0.356 0.066s-0.142 0.106-0.193 0.184l-1.236 1.978v-1.891c0-0.096-0.029-0.176-0.087-0.24-0.057-0.065-0.166-0.097-0.325-0.097" fill="#fff"/></g><g id="g10854" transform="translate(112.48 373.51)"><path id="path10856" d="m0 0c-0.095 0-0.172 0.01-0.231 0.031-0.06 0.02-0.106 0.048-0.138 0.084-0.032 0.035-0.054 0.079-0.066 0.13s-0.018 0.105-0.018 0.163v2.498c0 0.058 6e-3 0.113 0.018 0.164s0.034 0.094 0.066 0.13c0.032 0.035 0.078 0.063 0.138 0.084 0.059 0.02 0.136 0.03 0.231 0.03h1.683c7e-3 -0.037 0.014-0.088 0.021-0.153 7e-3 -0.064 0.01-0.131 0.01-0.199 0-0.142-0.029-0.243-0.086-0.303-0.058-0.059-0.131-0.089-0.219-0.089h-1.038v-0.581h1.195c7e-3 -0.034 0.014-0.079 0.021-0.136 7e-3 -0.056 0.01-0.116 0.01-0.181 0-0.136-0.027-0.228-0.081-0.277-0.055-0.05-0.122-0.074-0.204-0.074h-0.941v-0.577h1.363c7e-3 -0.037 0.014-0.089 0.021-0.155 6e-3 -0.066 0.01-0.132 0.01-0.196 0-0.147-0.029-0.249-0.087-0.306-0.057-0.058-0.13-0.087-0.218-0.087h-1.46" fill="#fff"/></g><g id="g10858" transform="translate(114.92 373.49)"><path id="path10860" d="m0 0c-0.078 0-0.147 8e-3 -0.206 0.023s-0.111 0.033-0.155 0.053l0.311 3.177c0.064 0.027 0.149 0.049 0.254 0.066s0.195 0.026 0.269 0.026c0.106 0 0.196-7e-3 0.272-0.02 0.077-0.014 0.142-0.037 0.196-0.069 0.054-0.033 0.098-0.078 0.13-0.135 0.032-0.058 0.056-0.13 0.073-0.215l0.133-0.617c0.037-0.17 0.077-0.357 0.119-0.563s0.081-0.417 0.115-0.635h0.02c0.037 0.218 0.076 0.428 0.117 0.632 0.04 0.204 0.083 0.391 0.127 0.561l0.162 0.648c0.041 0.16 0.106 0.268 0.196 0.326 0.089 0.058 0.229 0.087 0.419 0.087 0.094 0 0.19-8e-3 0.287-0.023 0.096-0.015 0.176-0.032 0.241-0.049l0.297-3.197c-0.047-0.017-0.104-0.034-0.17-0.051s-0.138-0.025-0.216-0.025c-0.109 0-0.2 0.019-0.275 0.056s-0.115 0.107-0.122 0.209l-0.076 1.101c-0.017 0.194-0.032 0.397-0.044 0.61-0.012 0.212-0.019 0.414-0.023 0.604h-0.01c-0.044-0.177-0.089-0.368-0.134-0.574-0.046-0.205-0.093-0.395-0.14-0.568l-0.209-0.867c-0.051-0.204-0.212-0.306-0.483-0.306-0.068 0-0.137 7e-3 -0.209 0.021-0.071 0.013-0.132 0.028-0.183 0.045l-0.259 1.081c-0.051 0.201-0.098 0.398-0.143 0.592-0.044 0.194-0.084 0.387-0.122 0.581h-0.015c-0.01-0.272-0.024-0.521-0.041-0.747s-0.032-0.42-0.045-0.584l-0.082-0.994c-7e-3 -0.099-0.044-0.167-0.112-0.204-0.067-0.037-0.156-0.056-0.264-0.056" fill="#fff"/></g><g id="g10862" transform="translate(119.72 374.88)"><path id="path10864" d="m0 0h0.761l-0.379 1.249-0.382-1.249m-0.793-1.402c-0.065 0-0.139 6e-3 -0.222 0.018s-0.151 0.028-0.206 0.048l1.056 3.233c0.091 0.024 0.184 0.041 0.278 0.051 0.093 0.01 0.179 0.015 0.257 0.015 0.112 0 0.208-8e-3 0.288-0.025s0.147-0.043 0.202-0.077c0.054-0.034 0.099-0.079 0.135-0.135s0.065-0.122 0.089-0.196l0.905-2.861c-0.058-0.024-0.127-0.041-0.209-0.053-0.081-0.012-0.161-0.018-0.239-0.018-0.088 0-0.174 0.014-0.257 0.043s-0.143 0.094-0.18 0.196l-0.173 0.526h-1.11l-0.146-0.495c-0.038-0.119-0.101-0.194-0.189-0.224-0.088-0.031-0.181-0.046-0.279-0.046" fill="#fff"/></g><g id="g10866" transform="translate(96.483 374.64)"><path id="path10868" d="m0 0c0-0.465-0.304-0.805-0.921-0.872-0.448-0.048-1.095 9e-3 -1.403 0.044-0.011 0.05-0.02 0.113-0.02 0.162 0 0.407 0.22 0.5 0.426 0.5 0.214 0 0.551-0.037 0.802-0.037 0.275 0 0.359 0.093 0.359 0.182 0 0.117-0.111 0.165-0.325 0.206l-0.586 0.113c-0.487 0.093-0.747 0.431-0.747 0.788 0 0.435 0.308 0.799 0.913 0.866 0.458 0.05 1.015-6e-3 1.321-0.044 0.011-0.052 0.017-0.102 0.017-0.156 0-0.406-0.214-0.493-0.42-0.493-0.159 0-0.404 0.029-0.685 0.029-0.285 0-0.404-0.079-0.404-0.175 0-0.101 0.113-0.143 0.292-0.175l0.56-0.103c0.575-0.106 0.821-0.433 0.821-0.835m1.005-0.499c0-0.25-0.098-0.393-0.585-0.393-0.065 0-0.121 4e-3 -0.175 0.012v3.308c0 0.252 0.085 0.514 0.577 0.514 0.062 0 0.124-7e-3 0.183-0.019v-3.422m1.99-1.28c0.063-0.033 0.194-0.072 0.359-0.077 0.283-6e-3 0.437 0.103 0.551 0.356l1.517 3.383c-0.062 0.034-0.201 0.071-0.314 0.074-0.195 3e-3 -0.457-0.037-0.624-0.436l-0.492-1.159-0.963 1.569c-0.062 0.019-0.214 0.046-0.325 0.046-0.339 0-0.53-0.125-0.727-0.339l-0.936-1.024 0.753-1.186c0.139-0.216 0.322-0.326 0.62-0.326 0.195 0 0.357 0.044 0.433 0.08l-0.907 1.368 0.642 0.681 1.055-1.655-0.642-1.355" fill="#a90e3a"/></g><g id="g10870" transform="translate(131.78 375.5)"><path id="path10872" d="m0 0-2e-3 0.767c0 0.208 0.082 0.34 0.511 0.341 0.053 0 0.099-3e-3 0.151-0.011l6e-3 -2.516c0-0.207-0.082-0.339-0.512-0.34-0.052-1e-3 -0.098 3e-3 -0.15 0.011l-3e-3 1.142-1.336-3e-3 2e-3 -0.815c0-0.207-0.082-0.339-0.512-0.34-0.052 0-0.097 4e-3 -0.151 0.011l-6e-3 2.515c0 0.208 0.083 0.34 0.512 0.341 0.053 0 0.098-3e-3 0.151-0.011l3e-3 -1.095 1.336 3e-3m3.805-0.314c-1e-3 0.854-0.618 1.433-1.637 1.43l-0.693-1e-3c-0.332-1e-3 -0.412-0.176-0.411-0.406l5e-3 -2.064c0-0.221 0.08-0.4 0.412-0.399l0.693 1e-3c1.019 3e-3 1.633 0.584 1.631 1.439m-2.073-0.826-3e-3 1.642 0.479 1e-3c0.668 1e-3 0.913-0.431 0.914-0.819 1e-3 -0.389-0.243-0.821-0.91-0.823l-0.48-1e-3" fill="#a90e3a"/></g><g id="g10874" transform="translate(125.19 373.76)"><path id="path10876" d="m0 0c-0.058 0-0.114 2e-3 -0.167 7e-3s-0.099 0.011-0.136 0.018l-2e-3 1.002-0.931-2e-3c-7e-3 0.034-0.013 0.074-0.02 0.121-7e-3 0.046-0.011 0.1-0.011 0.162 0 0.13 0.027 0.221 0.082 0.272 0.054 0.052 0.121 0.077 0.2 0.078l0.678 1e-3 -1e-3 0.714c-1e-3 0.079 0.023 0.145 0.071 0.198 0.048 0.054 0.137 0.08 0.267 0.081 0.058 0 0.114-3e-3 0.167-8e-3s0.099-0.011 0.136-0.017l2e-3 -0.966 0.941 2e-3c7e-3 -0.035 0.014-0.075 0.021-0.121s0.01-0.1 0.01-0.162c1e-3 -0.13-0.027-0.221-0.081-0.272-0.055-0.052-0.122-0.078-0.201-0.078l-0.688-1e-3 2e-3 -0.751c0-0.079-0.024-0.145-0.072-0.198s-0.137-0.08-0.267-0.08" fill="#a90e3a"/></g><g id="g10878" transform="translate(127.95 373.4)"><path id="path10880" d="m0 0c-0.075 0-0.149 3e-3 -0.221 0.01-0.073 7e-3 -0.135 0.016-0.185 0.026l-5e-3 2.513-0.587-0.268c-0.028 0.036-0.058 0.075-0.09 0.118-0.033 0.042-0.061 0.095-0.086 0.159s-0.038 0.128-0.038 0.192c0 0.086 0.023 0.159 0.069 0.219 0.046 0.061 0.11 0.111 0.192 0.15l0.778 0.37 0.624 1e-3 7e-3 -3.115c0-0.104-0.032-0.192-0.095-0.265-0.064-0.073-0.185-0.11-0.363-0.11" fill="#a90e3a"/></g></g></g><g id="g10882"><g id="g10884"><g id="g10890"><path id="path10910" d="m135.64 377.72h-12.842v-1.927c0.708-0.026 1.402-0.056 2.079-0.091v0.434c-1e-3 0.079 0.023 0.145 0.071 0.198 0.047 0.053 0.136 0.08 0.267 0.08h4e-3c0.057 0 0.111-2e-3 0.162-7e-3 0.054-5e-3 0.099-0.011 0.137-0.017l1e-3 -0.724c0.697-0.039 1.371-0.085 2.022-0.136v0.417l-0.586-0.268c-0.029 0.036-0.06 0.075-0.091 0.118-0.033 0.042-0.062 0.095-0.087 0.159s-0.037 0.128-0.037 0.193c0 0.084 0.023 0.157 0.069 0.218s0.11 0.111 0.192 0.15l0.777 0.37 0.625 1e-3 3e-3 -1.431c0.472-0.042 0.93-0.087 1.371-0.135l-3e-3 0.94c0 0.208 0.083 0.34 0.512 0.341h3e-3c0.052 0 0.096-3e-3 0.149-0.011l2e-3 -1.095 1.337 3e-3 -2e-3 0.767c-1e-3 0.207 0.082 0.34 0.51 0.341h4e-3c0.051 0 0.096-4e-3 0.147-0.011l4e-3 -1.645c0.138-0.024 0.272-0.049 0.403-0.074l-2e-3 1.331c-1e-3 0.23 0.078 0.405 0.41 0.406l0.693 2e-3h6e-3c1.015 0 1.63-0.578 1.632-1.431 1e-3 -0.383-0.121-0.71-0.348-0.956 0.385-0.158 0.681-0.329 0.876-0.511 0.369-0.365 0.419-0.709 0.432-0.784 0.036 0 0.05 0.161 0.05 0.401l-2e-3 3.856c0 0.446-0.145 0.596-0.524 0.596-0.128 0-0.255-0.068-0.426-0.068m-42.559-0.528-1e-3 -3.856c0-0.24 0.014-0.401 0.05-0.401 0.013 0.075 0.024 0.446 0.431 0.784 0.137 0.105 0.33 0.207 0.576 0.306 0.018 0.364 0.228 0.449 0.425 0.449 0.214 0 0.551-0.037 0.802-0.037 0.275 0 0.359 0.093 0.359 0.183 0 0.117-0.111 0.165-0.325 0.206l-0.586 0.112c-0.487 0.094-0.747 0.431-0.747 0.789 0 0.435 0.308 0.799 0.913 0.866 0.129 0.014 0.265 0.019 0.402 0.019 0.349 0 0.699-0.036 0.919-0.063 0.011-0.053 0.017-0.102 0.017-0.156 0-0.406-0.214-0.494-0.42-0.494-0.159 0-0.404 0.03-0.684 0.03-0.287 0-0.405-0.079-0.405-0.175 0-0.102 0.113-0.143 0.292-0.175l0.56-0.104c0.574-0.106 0.821-0.432 0.821-0.835v-0.01c0.081 0.016 0.162 0.03 0.245 0.044v2.395c0 0.251 0.085 0.513 0.577 0.513 0.062 0 0.125-6e-3 0.182-0.018v-2.764c0.097 0.015 0.196 0.03 0.297 0.045l-0.261 0.409 0.937 1.024c0.197 0.214 0.387 0.34 0.727 0.34 0.111 0 0.263-0.027 0.325-0.046l0.863-1.406c0.06 6e-3 0.117 0.012 0.178 0.018l0.414 0.978c0.161 0.385 0.41 0.436 0.603 0.436 7e-3 0 0.014 0 0.02-1e-3 0.114-3e-3 0.252-0.04 0.315-0.073l-0.566-1.263c0.548 0.053 1.114 0.1 1.698 0.146v2.313h-9.001c-0.171 0-0.299 0.068-0.428 0.068-0.378 0-0.524-0.15-0.524-0.596m5.338-2.002 0.157-0.235c0.319 0.042 0.651 0.083 0.993 0.123l-0.507 0.793z" fill="url(#linearGradient1114)"/></g></g></g><g id="g10912"><g id="g10914"><g id="g10920"><path id="path10934" d="m103.04 377.72v-2.313c0.34 0.027 0.684 0.052 1.035 0.077 0.02 0.12 0.054 0.235 0.099 0.347 0.085 0.207 0.202 0.387 0.351 0.54 0.15 0.153 0.326 0.273 0.53 0.36 0.203 0.086 0.424 0.13 0.666 0.13 0.172 0 0.341-0.019 0.503-0.056 0.163-0.038 0.314-0.086 0.452-0.143 0.031-0.452-0.079-0.678-0.33-0.678-0.044 0-0.085 4e-3 -0.122 0.015-0.037 0.01-0.078 0.02-0.122 0.031-0.044 0.01-0.093 0.02-0.147 0.03-0.055 0.01-0.119 0.016-0.194 0.016-0.119 0-0.23-0.022-0.336-0.064-0.105-0.042-0.195-0.104-0.271-0.184-0.076-0.079-0.135-0.173-0.18-0.284 0.69 0.044 1.396 0.084 2.116 0.12v0.81c0 0.098 0.029 0.182 0.09 0.252 0.062 0.069 0.177 0.104 0.347 0.104 0.071 0 0.141-4e-3 0.21-0.01 0.07-7e-3 0.128-0.015 0.176-0.026v-1.091c0.197 9e-3 0.394 0.017 0.592 0.025v1.041c0.051 0.017 0.117 0.031 0.199 0.043 0.081 0.013 0.15 0.018 0.209 0.018 0.186 0 0.321-0.023 0.407-0.071 0.084-0.048 0.155-0.117 0.213-0.209l0.484-0.764c0.223 7e-3 0.446 0.014 0.671 0.022v0.696c0 0.044 5e-3 0.086 0.018 0.124 0.011 0.04 0.031 0.075 0.06 0.106 0.029 0.029 0.069 0.054 0.12 0.071s0.115 0.025 0.193 0.025c0.068 0 0.133-4e-3 0.195-0.01 0.064-7e-3 0.118-0.013 0.162-0.021v-0.97c0.197 5e-3 0.393 0.01 0.591 0.015v0.568c0 0.058 6e-3 0.112 0.018 0.163 0.012 0.052 0.034 0.095 0.066 0.13 0.032 0.036 0.078 0.064 0.137 0.084 0.06 0.021 0.137 0.031 0.232 0.031h1.684c6e-3 -0.038 0.013-0.088 0.019-0.153 8e-3 -0.065 0.011-0.131 0.011-0.199 0-0.143-0.029-0.244-0.086-0.303-0.059-0.06-0.132-0.089-0.219-0.089h-1.038v-0.214c0.646 0.011 1.293 0.021 1.941 0.027l0.083 0.849c0.063 0.027 0.149 0.05 0.253 0.067 0.106 0.017 0.196 0.025 0.27 0.025 0.106 0 0.196-6e-3 0.272-0.02 0.077-0.014 0.141-0.037 0.195-0.069 0.055-0.033 0.099-0.078 0.13-0.135 0.032-0.058 0.058-0.13 0.074-0.214l0.106-0.494h0.499 0.057l0.131 0.519c0.04 0.16 0.106 0.269 0.195 0.327 0.09 0.057 0.23 0.086 0.419 0.086 0.095 0 0.191-7e-3 0.287-0.023 0.097-0.015 0.177-0.031 0.242-0.048l0.08-0.866c0.395-3e-3 0.79-7e-3 1.182-0.013l0.291 0.894c0.092 0.024 0.185 0.041 0.278 0.052 0.094 9e-3 0.18 0.015 0.258 0.015 0.112 0 0.208-9e-3 0.289-0.026 0.079-0.017 0.146-0.043 0.2-0.077 0.055-0.034 0.1-0.079 0.136-0.135 0.035-0.056 0.065-0.121 0.089-0.196l0.177-0.559c0.614-0.015 1.221-0.033 1.819-0.055v1.927zm16.986-1.852c0.054-1e-3 0.105-2e-3 0.159-3e-3l-0.08 0.261zm-4.558 0.202c-1e-3 -0.059-4e-3 -0.118-7e-3 -0.175h0.058c-0.012 0.058-0.023 0.117-0.035 0.175zm1.898-5e-3c-0.014-0.054-0.027-0.111-0.041-0.167 0.017-1e-3 0.037-1e-3 0.055-1e-3 -2e-3 0.057-3e-3 0.113-3e-3 0.168z" fill="url(#linearGradient10932)"/></g></g></g><g id="g10936"><g id="g10938" clip-path="url(#clipPath10942)"><g id="g10944" transform="translate(104.07 375.48)"><path id="path10946" d="m0 0c0.021 0.12 0.054 0.236 0.1 0.347 0.084 0.207 0.201 0.387 0.351 0.54 0.149 0.153 0.325 0.273 0.529 0.36 0.203 0.087 0.425 0.13 0.666 0.13 0.173 0 0.341-0.019 0.504-0.056 0.162-0.038 0.313-0.085 0.452-0.143 0.031-0.452-0.08-0.678-0.33-0.678-0.045 0-0.085 5e-3 -0.122 0.015-0.038 0.01-0.079 0.021-0.123 0.031s-0.093 0.02-0.147 0.03c-0.054 0.011-0.119 0.016-0.193 0.016-0.119 0-0.231-0.022-0.336-0.064-0.105-0.043-0.196-0.104-0.272-0.184-0.076-0.079-0.135-0.173-0.179-0.284-0.303-0.019-0.604-0.039-0.9-0.06" fill="#fff"/></g><g id="g10948" transform="translate(107.09 375.66)"><path id="path10950" d="m0 0v0.809c0 0.099 0.031 0.183 0.092 0.253s0.176 0.104 0.345 0.104c0.072 0 0.142-3e-3 0.212-0.01 0.069-7e-3 0.127-0.015 0.175-0.025v-1.092c-0.276-0.012-0.552-0.025-0.824-0.039" fill="#fff"/></g><g id="g10952" transform="translate(108.5 375.73)"><path id="path10954" d="m0 0v1.04c0.051 0.017 0.117 0.032 0.198 0.043 0.082 0.012 0.151 0.018 0.209 0.018 0.186 0 0.322-0.023 0.407-0.071s0.156-0.117 0.213-0.209l0.485-0.764c-0.508-0.017-1.013-0.036-1.512-0.057m2.182 0.079v0.696c0 0.044 6e-3 0.086 0.018 0.125s0.032 0.074 0.061 0.104c0.029 0.031 0.068 0.055 0.119 0.072s0.116 0.025 0.194 0.025c0.067 0 0.133-3e-3 0.195-0.01 0.063-7e-3 0.117-0.013 0.161-0.02v-0.971c-0.25-7e-3 -0.5-0.014-0.748-0.021" fill="#fff"/></g><g id="g10956" transform="translate(112.02 375.84)"><path id="path10958" d="m0 0v0.569c0 0.057 6e-3 0.112 0.018 0.163s0.034 0.094 0.066 0.13c0.032 0.035 0.078 0.063 0.137 0.084 0.06 0.02 0.137 0.03 0.232 0.03h1.683c7e-3 -0.037 0.014-0.088 0.021-0.153 6e-3 -0.064 0.01-0.13 0.01-0.198 0-0.143-0.029-0.244-0.087-0.304-0.058-0.059-0.13-0.089-0.218-0.089h-1.038v-0.214c-0.275-6e-3 -0.55-0.012-0.824-0.018" fill="#fff"/></g><g id="g10960" transform="translate(114.79 375.89)"><path id="path10962" d="m0 0 0.083 0.849c0.065 0.027 0.149 0.049 0.254 0.066s0.195 0.026 0.27 0.026c0.105 0 0.195-7e-3 0.272-0.02 0.076-0.014 0.141-0.037 0.195-0.069 0.055-0.033 0.098-0.078 0.13-0.135 0.032-0.058 0.057-0.13 0.074-0.215l0.106-0.494c-0.219 0-0.438-1e-3 -0.657-2e-3 -0.011 0.058-0.023 0.117-0.034 0.175h-0.015c-3e-3 -0.06-5e-3 -0.118-8e-3 -0.176-0.223-1e-3 -0.446-3e-3 -0.67-5e-3m3.294 4e-3c-0.235 2e-3 -0.47 3e-3 -0.705 4e-3 -2e-3 0.057-3e-3 0.113-4e-3 0.168h-0.01c-0.014-0.055-0.028-0.111-0.041-0.168-0.199 1e-3 -0.395 1e-3 -0.594 1e-3l0.131 0.519c0.04 0.16 0.105 0.268 0.195 0.326s0.229 0.087 0.419 0.087c0.095 0 0.19-8e-3 0.287-0.023 0.096-0.015 0.177-0.031 0.241-0.048l0.081-0.866" fill="#fff"/></g><g id="g10964" transform="translate(120.98 375.85)"><path id="path10966" d="m0 0c-0.265 6e-3 -0.533 0.012-0.8 0.017l-0.08 0.262-0.078-0.259c-0.253 5e-3 -0.506 9e-3 -0.76 0.013l0.292 0.893c0.091 0.024 0.184 0.041 0.278 0.051 0.093 0.011 0.179 0.016 0.257 0.016 0.112 0 0.208-9e-3 0.288-0.026s0.147-0.042 0.202-0.076c0.054-0.034 0.099-0.079 0.135-0.136 0.036-0.056 0.065-0.121 0.089-0.196l0.177-0.559" fill="#fff"/></g><g id="g10968" transform="translate(94.14 374.02)"><path id="path10970" d="m0 0c0.018 0.364 0.228 0.449 0.425 0.449 0.214 0 0.551-0.037 0.802-0.037 0.275 0 0.359 0.094 0.359 0.183 0 0.117-0.111 0.165-0.325 0.206l-0.586 0.113c-0.487 0.093-0.747 0.43-0.747 0.788 0 0.435 0.308 0.799 0.913 0.866 0.129 0.014 0.265 0.02 0.402 0.02 0.349 0 0.699-0.037 0.918-0.064 0.012-0.052 0.018-0.102 0.018-0.157 0-0.405-0.214-0.493-0.42-0.493-0.159 0-0.405 0.03-0.685 0.03-0.286 0-0.404-0.079-0.404-0.175 0-0.102 0.113-0.144 0.292-0.175l0.559-0.104c0.575-0.106 0.822-0.432 0.822-0.834v-0.01c-1.002-0.185-1.8-0.388-2.343-0.606m2.588 0.65v2.394c0 0.251 0.085 0.513 0.577 0.513 0.062 0 0.124-6e-3 0.182-0.018v-2.764c-0.263-0.041-0.517-0.083-0.759-0.125m1.056 0.17-0.261 0.409 0.937 1.025c0.197 0.214 0.387 0.339 0.727 0.339 0.111 0 0.263-0.027 0.325-0.046l0.863-1.406c-0.274-0.029-0.542-0.058-0.804-0.089l-0.506 0.795-0.643-0.681 0.156-0.236c-0.273-0.036-0.538-0.073-0.794-0.11m2.768 0.339 0.414 0.978c0.162 0.385 0.411 0.436 0.603 0.436 7e-3 0 0.014 0 0.021-1e-3 0.114-2e-3 0.252-0.04 0.315-0.073l-0.566-1.262c-0.266-0.025-0.53-0.051-0.787-0.078" fill="#c9747a"/></g></g></g><g id="g10972"><g id="g10974"><g id="g10980"><path id="path11000" d="m133.99 376-0.48-1e-3 2e-3 -1.261c0.366-0.082 0.701-0.167 1.003-0.258 0.278 0.155 0.389 0.438 0.388 0.701-1e-3 0.388-0.245 0.819-0.91 0.819z" fill="url(#linearGradient1114)"/></g></g></g><g id="g11002"><g id="g11004" clip-path="url(#clipPath11008)"><g id="g11010" transform="translate(135.24 374.23)"><path id="path11012" d="m0 0c-0.214 0.088-0.456 0.172-0.724 0.253 0.279 0.156 0.39 0.438 0.389 0.701-1e-3 0.388-0.245 0.819-0.91 0.819h-4e-3l-0.479-1e-3 2e-3 -1.261c-0.212 0.047-0.432 0.093-0.664 0.137l-3e-3 1.331c-1e-3 0.23 0.079 0.405 0.411 0.406l0.693 1e-3h6e-3c1.015 0 1.629-0.578 1.631-1.43 1e-3 -0.383-0.121-0.71-0.348-0.956m-2.793 0.722c-0.795 0.139-1.689 0.263-2.664 0.37l-2e-3 0.94c0 0.208 0.083 0.34 0.512 0.341h3e-3c0.052 0 0.096-3e-3 0.148-0.011l3e-3 -1.095 1.336 3e-3 -2e-3 0.767c0 0.208 0.082 0.34 0.511 0.341h3e-3c0.052 0 0.097-4e-3 0.148-0.011l4e-3 -1.645" fill="#c9747a"/></g><g id="g11014" transform="translate(125.52 375.67)"><path id="path11016" d="m0 0c-0.212 0.012-0.427 0.024-0.642 0.035l-1e-3 0.435c-1e-3 0.078 0.023 0.144 0.071 0.198 0.048 0.053 0.137 0.08 0.267 0.08h5e-3c0.056 0 0.11-3e-3 0.162-7e-3 0.053-5e-3 0.099-0.011 0.136-0.018l2e-3 -0.723" fill="#c9747a"/></g><g id="g11018" transform="translate(128.41 375.46)"><path id="path11020" d="m0 0c-0.283 0.025-0.571 0.049-0.865 0.072v0.418l-0.587-0.268c-0.028 0.035-0.059 0.074-0.091 0.117-0.032 0.042-0.06 0.096-0.085 0.16-0.026 0.064-0.038 0.128-0.038 0.192 0 0.085 0.023 0.158 0.069 0.219 0.046 0.06 0.11 0.11 0.191 0.149l0.779 0.37 0.624 2e-3 3e-3 -1.431" fill="#c9747a"/></g></g></g></g></svg>
