<svg width="850" height="850" enable-background="new 0 0 2362.9 500" version="1.1" viewBox="0 0 850 850" xml:space="preserve" xmlns="http://www.w3.org/2000/svg"><defs><linearGradient id="linearGradient15663" x1="32.476" x2="32.476" y2="64.952" gradientTransform="matrix(13.138 0 0 5.5426 -1.663 1e-4)" gradientUnits="userSpaceOnUse"><stop stop-color="#002A91" offset="0"/><stop stop-color="#002672" offset=".8"/></linearGradient><linearGradient id="linearGradient15665" x1="-1152.6" x2="-1152.6" y1="-773.58" y2="-778.43" gradientTransform="matrix(177.76 0 0 -57.692 205313 -44269)" gradientUnits="userSpaceOnUse"><stop stop-color="#f00" offset=".4"/><stop stop-color="#D42321" offset="1"/></linearGradient><linearGradient id="linearGradient15667" x1="-1151.8" x2="-1152" y1="-784.92" y2="-782.98" gradientTransform="matrix(149.71 0 0 -57.778 182009 -45636)" gradientUnits="userSpaceOnUse"><stop stop-color="#fff" offset="0"/><stop stop-color="#fff" stop-opacity=".25" offset="1"/></linearGradient><linearGradient id="linearGradient15669" x1="1279.6" x2="1273" y1="1197.7" y2="1016.9" gradientTransform="matrix(.80989 0 0 .80989 -626.59 -470.95)" gradientUnits="userSpaceOnUse"><stop stop-color="#fff" offset="0"/><stop stop-color="#fff" stop-opacity=".8347" offset=".1203"/><stop stop-color="#fff" stop-opacity=".6576" offset=".2693"/><stop stop-color="#fff" stop-opacity=".5107" offset=".4195"/><stop stop-color="#fff" stop-opacity=".3965" offset=".5684"/><stop stop-color="#fff" stop-opacity=".3152" offset=".7156"/><stop stop-color="#fff" stop-opacity=".2664" offset=".8603"/><stop stop-color="#fff" stop-opacity=".25" offset="1"/></linearGradient></defs>
<path d="m0 0h850v360h-850z" fill="url(#linearGradient15663)" stop-color="#000000" style="font-variation-settings:normal"/><path d="m0 640h850v210h-850z" fill="#fff" stop-color="#000000" stroke-width=".24707" style="font-variation-settings:normal"/><path d="m0 360h850v280h-850z" fill="url(#linearGradient15665)" stop-color="#000000" stroke-width=".56011" style="font-variation-settings:normal"/><g transform="matrix(.64378 0 0 .64378 -5726.6 364.07)" stroke-width="1.0002"><path d="m9693.8-67.796c5.9012 2.9006 18.004 6.7014 33.507 7.1015 26.405 0.4 40.608-9.602 51.01-32.907l140.63-311.76c-5.9011-2.9005-18.804-6.7013-29.306-6.7013-18.004-0.4001-42.208 3.3007-57.712 40.008l-45.709 106.72-89.118-144.63c-5.9012-1.7003-20.104-4.2008-30.106-4.2008-31.806 0-49.41 11.702-67.314 31.206l-87.017 94.219 69.914 109.22c13.003 20.004 29.706 30.006 57.311 30.006 18.004 0 33.007-4.2008 40.208-7.5015l-84.217-125.43 59.412-62.913 97.92 152.53zm-184.54-118.02c0 22.905-9.2018 36.207-54.411 36.207-5.9011 0-11.302-0.4001-16.303-1.2003v-305.06c0-23.305 7.9016-47.51 53.511-47.51 5.9012 0 11.702 0.4001 17.203 1.7004zm-93.319-46.209c0 42.909-28.006 74.215-85.317 80.416-41.408 4.6009-101.62-0.8002-130.13-4.2009-0.8002-4.6009-1.7004-10.402-1.7004-15.003 0-37.508 20.104-45.809 39.308-45.809 19.704 0 51.01 3.3006 74.515 3.3006 25.505 0 33.507-8.8017 33.507-16.703 0-10.802-10.002-15.003-30.106-19.204l-54.411-10.402c-45.209-8.3017-69.414-39.608-69.414-72.514 0-40.008 28.406-73.815 84.517-79.616 42.208-4.601 94.119 0.4 122.62 4.2008 0.8002 4.6009 1.7004 9.6019 1.7004 14.603 0 37.508-19.704 45.409-38.908 45.409-14.603 0-37.207-2.5005-63.613-2.5005s-37.208 7.1014-37.208 16.203c0 9.602 10.502 13.303 27.206 16.203l51.91 9.6019c52.51 8.9018 75.515 38.908 75.515 76.015z" fill="#fff"/><path d="m9918.9-405.36-51.51 114.22c-1.7003 2.9006-7.1014 12.903-21.304 13.303-3.3007 0-46.909 1.7004-46.909 1.7004-8.4017 0.4001-11.302 8.3016-11.302 8.3016l44.409-104.22c15.503-36.707 39.708-40.408 57.712-40.008 10.102 0 23.005 3.3007 28.906 6.7013zm-134.73 136.23-87.017-140.83c-5.9012-1.7003-20.104-4.2008-30.106-4.2008-31.806 0-49.41 11.702-67.314 31.206l-87.017 94.219 7.1014 10.802c2.9006 4.2009 8.8018 10.802 20.504 10.402 4.2009 0 46.009-1.7003 49.41-1.7003 10.902-0.4001 17.604 4.2008 21.804 9.6019l-15.603-23.205 59.412-62.912 40.208 62.512c7.1014 9.6019 18.004 9.6019 20.504 9.6019 2.1004 0 54.411-2.1004 56.911-2.1004 3.7008-0.1001 7.9016 2.0004 11.202 6.6013zm-292.06-234.15c-45.609 0-53.111 24.205-53.111 47.51v209.24c0-8.3017 6.7013-17.103 17.203-17.504 7.5015-0.4001 28.906-0.8002 35.107-1.2002 7.1014-0.4001 17.604-5.001 18.004-17.904v-218.34c-5.5011-1.0002-11.302-1.8003-17.203-1.8003zm-152.23 194.54-51.91-9.602c-16.703-2.9005-27.206-6.7013-27.206-16.203 0-8.8018 10.902-16.203 37.208-16.203 25.905 0 48.91 2.5005 63.613 2.5005 19.204 0 38.908-7.9016 38.908-45.409 0-5.001-0.4001-9.6019-1.7004-14.603-28.406-3.3007-79.916-8.8018-122.62-4.2009-55.611 6.6013-84.017 40.408-84.017 80.416 0 20.404 9.2018 40.408 27.606 54.611 13.803 8.8018 27.606 12.502 41.808 15.003 11.702 2.1004 38.108 3.8008 58.112 2.9006 6.3013-0.4001 51.91-1.7003 61.912-2.1004 23.005-0.8002 36.007 18.704 34.307 38.708v-1.2002c0.4001-2.5005 0.4001-5.001 0.4001-7.9016-0.3-37.107-23.305-67.113-76.415-76.715z" enable-background="new    " fill="url(#linearGradient15667)" opacity=".25"/></g><g transform="matrix(2.1772 0 0 2.1772 -23916 6457.9)" fill="#fff"><path d="m11047-2709.7c-0.708-4.9026 0.814-7.4689 3.611-7.4689 2.69 0 9.221 2.9203 18.318 2.9203 9.575 0 13.185-3.3805 13.185-7.8229 0-3.1503-1.398-5.9468-10.035-8.283l-9.911-2.6725c-10.973-2.9203-15.292-8.407-15.292-15.168 0-8.4069 6.655-15.876 21.699-15.876 6.778 0 15.168 1.5221 20.3 3.5043 0.938 4.7787-0.584 7.345-3.486 7.345-2.567 0-8.407-2.4424-16.69-2.4424-8.867 0-12.142 3.0265-12.142 6.991 0 2.8141 1.292 5.3805 9.221 7.5928l10.16 2.7964c11.309 3.1504 15.858 8.407 15.858 15.876 0 8.7432-6.761 16.566-23.097 16.566-7.239 0-16.212-1.7521-21.699-3.8583"/><path d="m11149-2735c0-12.248-8.159-20.654-19.132-20.654-7.469 0-14.354 4.3185-17.505 10.619v20.177c3.151 6.3008 10.036 10.619 17.505 10.619 10.973 0 19.132-8.3892 19.132-20.761m9.681 0c0 18.318-12.831 29.168-26.955 29.168-8.389 0-15.274-3.9645-19.363-9.575v23.575c0 2.2123-1.274 3.6105-5.008 3.6105-1.876 0-3.629-0.2301-4.549-0.4601v-74.317c0.92-0.2301 2.673-0.4602 4.549-0.4602 3.734 0 5.008 1.3982 5.008 3.6106v5.3627c4.089-5.5928 10.974-9.5573 19.363-9.5573 14.124 0 26.955 10.849 26.955 29.044"/><path d="m11216-2735c0-12.832-8.637-20.654-19.132-20.654-10.39 0-19.009 7.8229-19.009 20.654 0 12.708 8.619 20.761 19.009 20.761 10.495 0 19.132-8.053 19.132-20.761m-47.84 0c0-16.69 12.265-29.044 28.708-29.044 16.566 0 28.813 12.354 28.813 29.044 0 16.566-12.247 29.168-28.813 29.168-16.443 0-28.708-12.602-28.708-29.168"/><path d="m11271-2758.8c0 3.8583-1.628 4.6725-5.593 4.6725-8.053 0-14.814 3.7344-19.026 12.478v31.61c0 2.3362-1.274 3.6283-5.133 3.6283-1.628 0-3.504-0.2478-4.424-0.4779v-56.105c0.92-0.2478 2.796-0.4779 4.424-0.4779 3.859 0 5.133 1.3982 5.133 3.6283v7.8051c5.487-8.283 13.77-12.478 24.159-11.079 0.106 0.8141 0.46 2.5663 0.46 4.3185"/><path d="m11313-2709.7c-4.903 2.3362-10.495 3.8583-16.106 3.8583-11.079 0-17.734-6.5485-17.734-17.398v-48.176c0-2.4425 1.416-4.0884 5.133-4.0884 1.646 0 3.504 0.3539 4.442 0.584v12.141h21.823c0.106 0.8141 0.336 2.4424 0.336 3.8406 0 3.3982-1.398 4.5486-3.487 4.5486h-18.672v30.46c0 6.5308 3.026 9.6812 9.221 9.6812 5.593 0 8.743-2.4424 11.433-2.4424 2.797 0 4.195 2.3185 3.611 6.991"/></g><path d="m1e-3 360v198.28c0-2.6222 0.876-22.178 14.176-24.978l821.12-73.98c7.496-1.6 14.699-9.5549 14.699-24.31v-75.006z" fill="url(#linearGradient15669)" opacity=".3" stop-color="#000000" style="font-variation-settings:normal"/><g transform="translate(-10002 -2e3)" fill="#002a91"><g transform="matrix(1.1875 0 0 1.1875 -2741.5 4712.3)" stroke-width=".40209"><path d="m11353-1698.1v74.251c0 3.2563-1.649 5.0653-6.714 5.0653-2.291 0-4.422-0.3216-6.071-0.6432v-34.171h-42.371v29.789c0 3.2563-1.649 5.0653-6.714 5.0653-2.452 0-4.904-0.3216-6.07-0.6432v-74.292c0-3.1357 1.648-5.0653 6.874-5.0653 2.292 0 4.543 0.3216 5.869 0.6432v33.045h42.172v-28.623c0-3.1357 1.809-5.0653 7.035-5.0653 2.412 0 4.663 0.3216 5.99 0.6432" stop-color="#000000" style="font-variation-settings:normal"/><path d="m11440-1658.9c0 22.271-15.558 39.116-39.919 39.116h-22.714c-4.905 0-6.714-1.9699-6.714-5.0654v-67.899c0-3.0955 1.809-5.0654 6.714-5.0654h22.714c24.361 0 39.919 16.683 39.919 38.915m-12.944 0c0-16.683-10.453-27.498-26.975-27.498h-16.684v55.116h16.684c16.522 0.04 26.975-10.774 26.975-27.618" stop-color="#000000" style="font-variation-settings:normal"/></g><path d="m10627 2815c-1.412 0-2.501-1.1295-2.501-2.501v-135c0-1.3917 1.21-2.501 2.501-2.501 1.412 0 2.501 1.1093 2.501 2.501v135c0 1.3715-1.21 2.501-2.501 2.501"/><g stroke-width="3.7906"><path class="cls-6" d="m10078 2738.4v49.618a26.799 26.799 0 0 1-5.951 0.6444c-4.852 0-7.088-1.7815-7.088-5.0035v-6.7472a35.176 35.176 0 0 1-27.406 12.623c-17.247 0-26.761-11.372-26.761-23.502 0-18.725 19.976-26.913 53.977-24.676v-2.7292c0-12.736-3.79-18.043-18.535-18.043a88.055 88.055 0 0 0-18.688 2.8809 29.945 29.945 0 0 1-6.103 1.2888c-3.79 0-6.14-3.222-4.852-9.9692a92.49 92.49 0 0 1 30.325-5.6479c22.743 0 31.12 10.159 31.12 29.339m-13.229 27.064v-14.745c-22.212-1.63-40.748 1.2888-40.748 14.669 0 6.7472 5.61 12.888 15.769 12.888a30.931 30.931 0 0 0 24.979-12.888"/><path class="cls-6" d="m10165 2710.5v77.517a28.732 28.732 0 0 1-6.141 0.6444c-5.306 0-7.088-1.9331-7.088-5.0035v-6.5956a32.333 32.333 0 0 1-25.624 12.471c-15.807 0-28.998-9.9692-28.998-32.864v-41.696c0-3.0703 1.782-5.0035 7.089-5.0035a31.007 31.007 0 0 1 6.102 0.6444v44.198c0 15.465 7.581 22.743 18.953 22.743a27.482 27.482 0 0 0 22.402-13.381v-49.277c0-3.0703 1.782-5.0035 7.089-5.0035a31.424 31.424 0 0 1 6.14 0.6444"/><path class="cls-6" d="m10182 2784.1c-0.948-6.7851 1.137-10.31 5.003-10.31s12.736 4.018 25.321 4.018c13.191 0 18.195-4.6624 18.195-10.803 0-4.3213-1.933-8.1876-13.874-11.372l-13.684-3.7906c-15.162-4.0559-21.113-11.599-21.113-20.962 0-11.599 9.173-21.91 29.983-21.91a88.13 88.13 0 0 1 28.012 4.7003c1.289 6.6335-0.796 10.159-4.814 10.159s-11.599-3.3736-23.046-3.3736c-12.244 0-16.754 4.2075-16.754 9.666 0 3.7905 1.781 7.5811 12.736 10.462l14.025 3.7905c15.617 4.3592 21.909 11.599 21.909 21.947 0 12.054-9.362 22.743-31.916 22.743a94.157 94.157 0 0 1-29.983-5.3068"/><path class="cls-6" d="m10306 2784.1a52.31 52.31 0 0 1-22.212 5.3068c-15.162 0-24.487-9.0216-24.487-23.994v-66.562c0-3.3736 1.933-5.648 7.088-5.648a26.875 26.875 0 0 1 6.103 0.834v16.754h30.135a41.014 41.014 0 0 1 0.493 5.3068c0 4.6624-1.934 6.2923-4.852 6.2923h-25.776v42.037c0 9.0215 4.207 13.381 12.736 13.381 7.581 0 12.092-3.3736 15.807-3.3736s5.799 3.2219 4.965 9.6659"/><path class="cls-6" d="m10365 2716.3c0 5.3447-2.237 6.444-7.581 6.444a27.671 27.671 0 0 0-26.269 17.247v43.667c0 3.222-1.781 5.0035-7.088 5.0035a31.007 31.007 0 0 1-6.103-0.6444v-77.517a31.007 31.007 0 0 1 6.103-0.6444c5.307 0 7.088 1.9332 7.088 5.0035v10.803a32.788 32.788 0 0 1 33.357-15.162 40.294 40.294 0 0 1 0.644 5.9511"/><path class="cls-6" d="m10375 2692.9a8.4908 8.4908 0 0 1 16.944 0 8.4908 8.4908 0 0 1-16.944 0m1.781 95.067v-73.158c0-3.0703 1.782-5.0035 7.089-5.0035a29.301 29.301 0 0 1 5.951 0.6444v73.158c0 3.222-1.592 5.0035-6.937 5.0035a31.007 31.007 0 0 1-6.103-0.6444"/><path class="cls-6" d="m10472 2738.4v49.618a26.799 26.799 0 0 1-5.951 0.6444c-4.852 0-7.089-1.7815-7.089-5.0035v-6.7472a35.176 35.176 0 0 1-27.405 12.623c-17.247 0-26.762-11.372-26.762-23.502 0-18.725 19.977-26.913 53.978-24.676v-2.7292c0-12.736-3.791-18.043-18.498-18.043a88.055 88.055 0 0 0-18.725 2.8809 29.945 29.945 0 0 1-6.103 1.2888c-3.791 0-6.141-3.222-4.852-9.9692a92.944 92.944 0 0 1 30.324-5.6479c22.744 0 31.083 10.159 31.083 29.339m-13.229 27.064v-14.745c-22.213-1.63-40.749 1.2888-40.749 14.669 0 6.7472 5.648 12.888 15.807 12.888a30.779 30.779 0 0 0 24.942-12.888"/></g><path class="cls-7" d="m10595 2758.6c0 17.406-13.8 31.363-40.207 31.363a102.81 102.81 0 0 1-33.997-6.9311c-0.816-8.4052 1.599-13.016 6.273-13.016 4.672 0 13.016 5.6139 27.819 5.6139 16.214 0 24.4-7.4016 24.4-17.03 0-10.193-7.998-16.591-21.61-16.591a54.006 54.006 0 0 0-23.208 5.2062l-11.197-3.795 5.207-51.027h62.725a49.427 49.427 0 0 1 0.596 6.9938c0 5.614-2.791 7.4016-5.99 7.4016h-43.908l-2.697 25.592a61.784 61.784 0 0 1 21.201-3.7949c21.797 0 34.499 11.98 34.499 29.983" stroke-width="3.1363"/></g></svg>
