<svg width="1340" height="820" version="1.1" viewBox="0 0 354.54 216.96" xmlns="http://www.w3.org/2000/svg">
 <path d="m-7.3425e-4 0h354.54v216.96h-354.54z" fill="#fff" style="paint-order:stroke fill markers"/>
 <path d="m-7.4105e-4 105.83h354.54v58.209h-354.54z" fill="#ae2c3f" style="paint-order:stroke fill markers"/>
 <path d="m148.27 64.721c0 8.9731-5.865 15.531-17.77 16.828-8.6278 0.9248-21.118-0.1666-27.047-0.8497-0.2208-0.9682-0.3919-2.1734-0.3919-3.1208 0-7.8548 4.2438-9.6455 8.2142-9.6455 4.1252 0 10.627 0.7149 15.465 0.7149 5.311 0 6.9345-1.807 6.9345-3.5235 0-2.2539-2.1478-3.1902-6.2739-3.9812l-11.294-2.1734c-9.4023-1.8024-14.418-8.3116-14.418-15.217 0-8.3952 5.9377-15.424 17.614-16.717 8.8298-0.9558 19.573 0.1231 25.47 0.8466 0.2175 1.0146 0.3299 1.972 0.3299 3.0263 0 7.8282-4.1252 9.5168-8.1008 9.5168-3.0563 0-7.7941-0.5724-13.203-0.5724-5.5094 0-7.7941 1.525-7.7941 3.3831 0 1.9557 2.1765 2.7674 5.6257 3.3707l10.796 2.0045c11.091 2.0464 15.843 8.3511 15.843 16.109m19.377 9.6346c0 4.8152-1.8899 7.5904-11.276 7.5904-1.2439 0-2.3329-0.092-3.3754-0.2417v-63.858c0-4.8494 1.6475-9.9087 11.132-9.9087 1.1936 0 2.398 0.123 3.5188 0.3571v66.06m38.382 24.704c1.2292 0.6289 3.7605 1.3934 6.943 1.4794 5.4449 0.1178 8.4232-1.9751 10.628-6.8594l29.254-65.303c-1.206-0.6506-3.8759-1.3717-6.0684-1.4228-3.7581-0.07-8.805 0.7025-12.036 8.4052l-9.4727 22.377-18.578-30.286c-1.1982-0.3679-4.1228-0.8954-6.273-0.8954-6.548 0-10.219 2.4204-14.023 6.5494l-18.062 19.771 14.528 22.885c2.6846 4.1694 6.2242 6.2948 11.971 6.2948 3.7572 0 6.8856-0.8559 8.3349-1.5498l-17.492-26.398 12.396-13.146 20.339 31.944-12.388 26.156" fill="#ae2c3f" stroke-width="2.9438"/>
 <g transform="matrix(.59573 0 0 .59573 -47.895 102.25)">
  <g transform="matrix(16.279 0 0 -16.279 243.01 87.08)">
   <path d="m0 0c-0.279 0-0.536 0.05-0.772 0.151-0.235 0.1-0.439 0.239-0.612 0.416s-0.308 0.387-0.407 0.632c-0.098 0.244-0.147 0.507-0.147 0.791 0 0.275 0.049 0.533 0.147 0.773 0.099 0.24 0.234 0.449 0.407 0.626s0.377 0.316 0.612 0.417c0.236 0.1 0.493 0.15 0.772 0.15 0.2 0 0.395-0.022 0.583-0.065 0.189-0.043 0.363-0.098 0.524-0.165 0.036-0.524-0.092-0.786-0.383-0.786-0.051 0-0.098 6e-3 -0.141 0.018s-0.09 0.024-0.141 0.036c-0.051 0.011-0.108 0.023-0.171 0.035s-0.138 0.018-0.224 0.018c-0.137 0-0.267-0.025-0.389-0.074-0.121-0.049-0.226-0.12-0.315-0.213-0.088-0.092-0.158-0.203-0.209-0.333s-0.076-0.276-0.076-0.437c0-0.17 0.025-0.321 0.076-0.455s0.121-0.247 0.209-0.339c0.089-0.093 0.194-0.164 0.315-0.213 0.122-0.049 0.252-0.074 0.389-0.074 0.086 0 0.163 6e-3 0.23 0.018s0.126 0.024 0.179 0.035c0.053 0.012 0.103 0.024 0.151 0.036 0.047 0.012 0.096 0.018 0.147 0.018 0.286 0 0.414-0.262 0.383-0.786-0.161-0.067-0.341-0.122-0.539-0.165-0.199-0.043-0.398-0.065-0.598-0.065" fill="#fff"/>
  </g>
  <g transform="matrix(16.279 0 0 -16.279 276.08 86.266)">
   <path d="m0 0c-0.082 0-0.164 4e-3 -0.244 0.012-0.081 8e-3 -0.149 0.018-0.204 0.029v3.419c0 0.114 0.036 0.212 0.106 0.292 0.071 0.081 0.205 0.122 0.401 0.122 0.082 0 0.164-4e-3 0.244-0.012 0.081-8e-3 0.149-0.018 0.204-0.03v-3.419c0-0.114-0.036-0.211-0.106-0.292-0.071-0.081-0.205-0.121-0.401-0.121" fill="#fff"/>
  </g>
  <g transform="matrix(16.279 0 0 -16.279 302.31 86.266)">
   <path d="m0 0c-0.079 0-0.155 4e-3 -0.23 0.012-0.074 8e-3 -0.137 0.018-0.188 0.029v3.762c0.059 0.019 0.135 0.036 0.23 0.05 0.094 0.014 0.174 0.021 0.241 0.021 0.216 0 0.373-0.028 0.471-0.083s0.181-0.136 0.248-0.242l1.337-2.108v2.055c0 0.051 6e-3 0.099 0.02 0.144s0.037 0.086 0.071 0.121c0.033 0.036 0.079 0.063 0.138 0.083s0.134 0.03 0.224 0.03c0.079 0 0.154-4e-3 0.227-0.012 0.072-8e-3 0.134-0.016 0.185-0.024v-3.767c-0.055-0.028-0.121-0.046-0.2-0.056-0.078-0.01-0.155-0.015-0.23-0.015-0.184 0-0.322 0.026-0.412 0.077s-0.165 0.122-0.224 0.212l-1.431 2.291v-2.19c0-0.111-0.033-0.203-0.1-0.278s-0.193-0.112-0.377-0.112" fill="#fff"/>
  </g>
  <g transform="matrix(16.279 0 0 -16.279 370.42 85.94)">
   <path d="m0 0c-0.11 0-0.199 0.012-0.268 0.035-0.069 0.024-0.122 0.056-0.159 0.098-0.037 0.041-0.063 0.091-0.077 0.15-0.013 0.059-0.02 0.122-0.02 0.189v2.894c0 0.067 7e-3 0.13 0.02 0.189 0.014 0.059 0.04 0.109 0.077 0.15 0.037 0.042 0.09 0.074 0.159 0.098 0.069 0.023 0.158 0.035 0.268 0.035h1.949c8e-3 -0.043 0.016-0.102 0.024-0.177s0.012-0.152 0.012-0.23c0-0.166-0.034-0.283-0.1-0.352-0.067-0.069-0.151-0.103-0.254-0.103h-1.201v-0.673h1.384c8e-3 -0.04 0.016-0.092 0.024-0.157 7e-3 -0.065 0.011-0.135 0.011-0.209 0-0.158-0.031-0.265-0.094-0.322s-0.141-0.086-0.235-0.086h-1.09v-0.667h1.578c8e-3 -0.043 0.016-0.103 0.024-0.18s0.012-0.153 0.012-0.227c0-0.17-0.034-0.288-0.1-0.355-0.067-0.067-0.152-0.1-0.254-0.1h-1.69" fill="#fff"/>
  </g>
  <g transform="matrix(16.279 0 0 -16.279 416.52 86.266)">
   <path d="m0 0c-0.09 0-0.17 9e-3 -0.239 0.027-0.068 0.017-0.128 0.038-0.179 0.062l0.36 3.678c0.074 0.032 0.173 0.057 0.294 0.077 0.122 0.02 0.226 0.03 0.312 0.03 0.122 0 0.227-8e-3 0.315-0.024 0.089-0.016 0.164-0.042 0.227-0.08 0.063-0.037 0.113-0.089 0.15-0.156s0.066-0.15 0.085-0.248l0.153-0.715c0.044-0.197 0.09-0.414 0.139-0.652s0.093-0.484 0.132-0.735h0.024c0.043 0.251 0.088 0.496 0.135 0.732s0.096 0.452 0.147 0.649l0.188 0.75c0.047 0.185 0.123 0.311 0.227 0.378s0.265 0.101 0.485 0.101c0.11 0 0.22-9e-3 0.332-0.027s0.205-0.037 0.28-0.056l0.344-3.702c-0.055-0.02-0.121-0.04-0.197-0.059-0.077-0.02-0.161-0.03-0.251-0.03-0.125 0-0.232 0.022-0.318 0.065s-0.133 0.124-0.141 0.242l-0.089 1.275c-0.019 0.225-0.036 0.46-0.05 0.706-0.013 0.246-0.022 0.479-0.026 0.7h-0.012c-0.051-0.205-0.103-0.426-0.156-0.664-0.053-0.239-0.107-0.458-0.162-0.659l-0.241-1.004c-0.059-0.236-0.246-0.354-0.56-0.354-0.079 0-0.159 8e-3 -0.241 0.024-0.083 0.015-0.154 0.033-0.212 0.053l-0.301 1.252c-0.059 0.232-0.114 0.46-0.165 0.685-0.051 0.224-0.098 0.448-0.141 0.673h-0.018c-0.012-0.315-0.027-0.604-0.047-0.865-0.02-0.262-0.037-0.488-0.053-0.676l-0.094-1.152c-8e-3 -0.114-0.051-0.193-0.13-0.236-0.078-0.043-0.18-0.065-0.306-0.065" fill="#fff"/>
  </g>
  <g transform="matrix(16.279 0 0 -16.279 506.99 60.056)">
   <path d="m0 0h0.881l-0.439 1.447-0.442-1.447m-0.919-1.624c-0.074 0-0.16 7e-3 -0.256 0.021s-0.176 0.032-0.238 0.056l1.222 3.744c0.106 0.027 0.213 0.047 0.322 0.059 0.108 0.011 0.207 0.017 0.298 0.017 0.13 0 0.241-0.01 0.333-0.029 0.093-0.02 0.171-0.05 0.234-0.089s0.115-0.091 0.156-0.156c0.042-0.065 0.076-0.141 0.104-0.228l1.047-3.312c-0.067-0.028-0.147-0.048-0.241-0.062-0.095-0.014-0.187-0.021-0.277-0.021-0.102 0-0.202 0.017-0.298 0.05-0.096 0.034-0.166 0.11-0.209 0.228l-0.2 0.608h-1.285l-0.17-0.573c-0.043-0.138-0.116-0.224-0.218-0.26-0.102-0.035-0.21-0.053-0.324-0.053" fill="#fff"/>
  </g>
 </g>
 <g transform="translate(38.088)" fill="#ae2c3f" stroke-width="10.614">
  <path d="m128.83 202.56c-0.61559 0-1.21-0.0212-1.7725-0.0742-0.56253-0.0532-1.0508-0.11676-1.4435-0.19116l-0.0212-10.635-9.8814 0.0212c-0.0743-0.3609-0.13798-0.78545-0.21228-1.2843-0.0743-0.48822-0.11675-1.0614-0.11675-1.7194 0-1.3798 0.28658-2.3457 0.87034-2.887 0.57313-0.55192 1.2842-0.81726 2.1227-0.82786l7.1961-0.0108-0.0108-7.5782c-0.0108-0.8385 0.24412-1.539 0.75357-2.1015 0.50946-0.57316 1.4541-0.84911 2.8339-0.85972 0.61559 0 1.2099 0.032 1.7725 0.0849 0.56253 0.0532 1.0508 0.11672 1.4435 0.18051l0.0212 10.253 9.9875-0.0212c0.0743 0.37148 0.1486 0.79603 0.2229 1.2843 0.0744 0.48822 0.10618 1.0614 0.10618 1.7194 0.0108 1.3798-0.28655 2.3456-0.85969 2.887-0.58377 0.55192-1.2949 0.82786-2.1334 0.82786l-7.3022 0.0108 0.0212 7.9709c0 0.83847-0.25474 1.539-0.76419 2.1015-0.50945 0.56254-1.4541 0.84912-2.8339 0.84912"/>
  <path d="m158.12 206.38c-0.79602 0-1.5814-0.032-2.3456-0.10608-0.7748-0.0743-1.4328-0.16987-1.9635-0.27595l-0.0531-26.672-6.2302 2.8445c-0.29719-0.38207-0.61559-0.79603-0.95524-1.2524-0.35026-0.44578-0.64743-1.0083-0.91279-1.6876-0.26534-0.67927-0.40332-1.3586-0.40332-2.0378 0-0.91279 0.24412-1.6876 0.73235-2.3244 0.48824-0.6474 1.1675-1.1781 2.0378-1.5921l8.2575-3.927 6.623-0.0108 0.0744 33.062c0 1.1038-0.33965 2.0378-1.0083 2.8126-0.67928 0.77479-1.9636 1.1675-3.8528 1.1675"/>
 </g>
</svg>
