<svg width="1340" height="820" version="1.1" viewBox="0 0 354.54 216.96" xmlns="http://www.w3.org/2000/svg">
 <defs>
  <linearGradient id="linearGradient890" x1="-.00073425" x2="354.54" y2="216.96" gradientUnits="userSpaceOnUse">
   <stop stop-color="#194b98" offset="0"/>
   <stop stop-color="#122e6a" offset="1"/>
  </linearGradient>
 </defs>
 <g transform="translate(-1.6002e-6)">
  <path d="m-7.3425e-4 0h354.54v216.96h-354.54z" fill="url(#linearGradient890)" style="paint-order:stroke fill markers"/>
  <path d="m-7.4105e-4 76.73h354.54v52.917h-354.54z" fill="#c41c2b" style="paint-order:stroke fill markers"/>
  <path d="m155.73 44.828c0 6.6658-4.3569 11.537-13.2 12.501-6.4092 0.687-15.688-0.12376-20.092-0.6312-0.16402-0.71924-0.29113-1.6145-0.29113-2.3183 0-5.835 3.1526-7.1652 6.102-7.1652 3.0644 0 7.8941 0.53107 11.489 0.53107 3.9453 0 5.1514-1.3424 5.1514-2.6174 0-1.6743-1.5955-2.3699-4.6606-2.9575l-8.3896-1.6145c-6.9846-1.3389-10.711-6.1744-10.711-11.304 0-6.2365 4.4109-11.458 13.085-12.418 6.5592-0.71002 14.54 0.0914 18.921 0.6289 0.16157 0.75374 0.24507 1.4649 0.24507 2.2481 0 5.8153-3.0644 7.0696-6.0178 7.0696-2.2704 0-5.7899-0.42521-9.8078-0.42521-4.0927 0-5.7899 1.1329-5.7899 2.5131 0 1.4528 1.6168 2.0558 4.1791 2.5039l8.0201 1.4891c8.2387 1.5201 11.769 6.2037 11.769 11.967m14.394 7.1571c0 3.577-1.4039 5.6386-8.3763 5.6386-0.92405 0-1.733-0.0683-2.5074-0.17955v-47.437c0-3.6024 1.2238-7.3607 8.2698-7.3607 0.88666 0 1.7814 0.0914 2.614 0.26528v49.073m28.512 18.352c0.91313 0.46718 2.7935 1.0351 5.1577 1.099 4.0448 0.0875 6.2572-1.4672 7.8948-5.0956l21.731-48.511c-0.89587-0.4833-2.8792-1.019-4.508-1.057-2.7917-0.052-6.5409 0.52185-8.9407 6.2439l-7.0368 16.623-13.801-22.498c-0.89012-0.2733-3.0627-0.66516-4.66-0.66516-4.8642 0-7.5914 1.798-10.417 4.8653l-13.417 14.687 10.792 17c1.9942 3.0972 4.6237 4.6761 8.893 4.6761 2.7911 0 5.115-0.63581 6.1916-1.1513l-12.994-19.61 9.2084-9.7654 15.109 23.73-9.2025 19.43" fill="#fff" stroke-width="2.1869"/>
  <g transform="matrix(3.1023 0 0 3.1023 -58.398 67.905)" fill="#fff">
   <path d="m55.331 13.37c0-2.1447-1.3896-3.1818-3.6148-3.6753l-3.8867-0.87595c-0.70511-0.16148-1.2889-0.38288-1.2889-1.0875 0-0.76525 0.60428-1.0572 2.2353-1.0572 1.9232 0 2.3763 0.10083 4.1183 0.10083 0.80551 0 1.6312-0.37265 1.6312-1.9635 0-0.19144-0.0219-0.41283-0.0585-0.60427-1.1781-0.10084-3.2724-0.2214-5.8703-0.2214-3.8968 0-5.3871 1.6916-5.3871 3.8464 0 2.0239 1.2688 3.1416 3.5242 3.6753l3.8867 0.89612c0.90619 0.21116 1.3996 0.6145 1.3996 1.1782 0 0.76518-0.69489 1.0572-2.3159 1.0572-1.9232 0-2.8093-0.13079-4.5613-0.13079-0.7955 0-1.6212 0.37265-1.6212 1.9634 0 0.19144 0.02192 0.40261 0.05115 0.60428 1.1882 0.12056 3.7155 0.25208 6.3033 0.25208 3.9068 0 5.4575-1.6614 5.4575-3.9572"/>
   <path d="m87.371 12.5h1.6312l3.1415 3.7457c0.58382 0.72484 1.1579 1.0975 2.4871 1.0975 0.90619 0 1.5103-0.11107 2.0037-0.35219l-4.088-4.7224c2.2957-0.49321 3.4537-1.9836 3.4537-4.1887 0-2.6985-1.6514-4.0377-4.9842-4.0377l-4.7627-0.0219c-1.5507 0.0585-2.0642 0.59405-2.0642 2.0038v11.106c0.24186 0.0365 0.51367 0.0585 0.78541 0.0585 1.9635 0 2.4166-0.57432 2.4166-1.5909l-0.0219-3.1012m0.0219-2.5878v-3.2825h3.0812c1.309 0 2.3562 0.20167 2.3562 1.5708 0 1.1579-0.78541 1.7117-2.3562 1.7117h-3.0812"/>
   <path d="m56.741 17.14c0.23163 0.0365 0.51367 0.0512 0.78541 0.0512 1.9635 0 2.4166-0.56409 2.4166-1.5809v-2.6884h3.3329c3.635 0 5.4373-1.5708 5.4373-4.511 0-2.8496-1.8024-4.36-5.2259-4.36h-4.6822c-1.5708 0-2.0642 0.60428-2.0642 2.0038v11.086m3.202-6.8671v-3.6148h3.1919c1.5909 0 2.3763 0.58381 2.3763 1.752 0 1.2284-0.78542 1.8627-2.3763 1.8627h-3.1919"/>
   <path d="m76.161 17.18c2.0641 0 3.6551-0.49321 4.7728-1.4902 1.1176-0.9868 1.6916-2.7489 1.6916-5.2662-0.0219-2.4669-0.59405-4.1988-1.752-5.2158-1.158-1.0069-2.7288-1.5103-4.7123-1.5103-1.9837 0-3.5443 0.50344-4.7023 1.5103-1.1579 1.017-1.7319 2.7488-1.752 5.2158 0 2.5173 0.57432 4.2794 1.6916 5.2662 1.1176 0.9968 2.7086 1.4902 4.7628 1.4902m3.1617-6.7564c0 1.5104-0.25209 2.5677-0.76525 3.202-0.48299 0.64446-1.2989 0.93644-2.3964 0.93644-1.1177-0.0219-1.9132-0.33246-2.4267-0.93644-0.51367-0.61451-0.76524-1.6714-0.76524-3.202 0-1.5103 0.27181-2.5676 0.78534-3.1818 0.50344-0.62401 1.309-0.91635 2.4066-0.91635 1.0975 0 1.8829 0.29227 2.3964 0.91635 0.51367 0.61451 0.76525 1.6714 0.76525 3.1818"/>
   <path d="m104.44 6.73h2.5676c0.84577 0 1.7117-0.39237 1.7117-2.0642 0-0.19144-0.0219-0.43329-0.0585-0.624h-9.9883c-0.83576 0-1.7017 0.39238-1.7017 2.0641 0 0.19144 0.0219 0.42307 0.0584 0.62401h4.2089v10.401c0.24186 0.0365 0.51367 0.0584 0.79543 0.0584 1.9535 0 2.4066-0.57432 2.4066-1.591v-8.87"/>
  </g>
  <g transform="matrix(1.1847 0 0 1.1847 -19.509 -467.94)" fill="#fff" stroke-width="1px" aria-label="BUNDESLIGA">
   <path d="m58.579 532.93q-1.48 0-1.92-0.56-0.4-0.6-0.4-1.52v-21.84q0-0.92 0.4-1.48 0.44-0.6 1.92-0.6h6.6q2.48 0 4.24 0.52 1.8 0.48 2.92 1.4 1.16 0.88 1.68 2.12t0.52 2.72q0 2.04-1.16 3.56t-3.2 2.2q2.68 0.64 3.96 2.32 1.32 1.68 1.32 3.72 0 3.64-2.48 5.56-2.48 1.88-7.64 1.88zm2.04-3.96h4.24q3.12 0 4.56-0.84 1.44-0.88 1.44-2.92 0-0.72-0.24-1.36-0.24-0.68-0.88-1.16-0.6-0.52-1.72-0.84t-2.92-0.32h-4.48zm0-11.2h4.4q1.44 0 2.4-0.28 1-0.28 1.56-0.76 0.6-0.48 0.84-1.12 0.28-0.68 0.28-1.44 0-3.28-5-3.28h-4.48z"/>
   <path d="m89.51 533.45q-2.6 0-4.6-0.88-1.96-0.88-3.32-2.4-1.36-1.56-2.08-3.6-0.68-2.04-0.68-4.4v-13.44q0-0.8 0.48-1.32 0.52-0.56 1.8-0.56 0.64 0 1.24 0.08 0.64 0.04 0.96 0.12v15.24q0 3.24 1.6 5.2 1.64 1.92 4.64 1.92 2.88 0 4.56-1.92 1.72-1.96 1.72-5.2v-13.56q0-0.8 0.48-1.32 0.52-0.56 1.8-0.56 0.64 0 1.24 0.08 0.6 0.04 0.92 0.12v15.12q0 2.36-0.72 4.4t-2.08 3.6q-1.36 1.52-3.4 2.4-2 0.88-4.56 0.88z"/>
   <path d="m107.25 533.17q-0.6 0-1.2-0.04-0.56-0.04-0.88-0.12v-25.76q0.44-0.2 1.12-0.28 0.68-0.12 1.24-0.12 1.6 0 2.28 0.44 0.72 0.4 1.24 1.2l11.64 18-0.24-17.88q0-0.72 0.44-1.24 0.48-0.52 1.68-0.52 0.56 0 1.12 0.08 0.6 0.04 0.92 0.12v25.76q-0.92 0.36-2.16 0.36-1.44 0-2.12-0.4-0.68-0.44-1.12-1.12l-12.04-18.76 0.24 18.52q0 0.76-0.48 1.28-0.44 0.48-1.68 0.48z"/>
   <path d="m134.01 532.93q-1.48 0-1.92-0.56-0.4-0.6-0.4-1.52v-21.84q0-0.92 0.4-1.48 0.44-0.6 1.92-0.6h5.48q3.24 0 5.84 0.92 2.6 0.88 4.4 2.56 1.84 1.68 2.8 4.04 1 2.36 1 5.28 0 2.76-0.96 5.16t-2.8 4.2q-1.84 1.76-4.48 2.8-2.6 1.04-5.92 1.04zm2.16-4.08h3.56q1.88 0 3.52-0.56 1.68-0.6 2.92-1.72 1.24-1.16 1.96-2.88t0.72-4.04q0-2.08-0.72-3.68-0.72-1.64-1.96-2.72-1.24-1.12-2.92-1.68t-3.6-0.56h-3.48z"/>
   <path d="m159.4 532.93q-1.48 0-1.92-0.56-0.4-0.6-0.4-1.52v-21.84q0-0.92 0.4-1.48 0.44-0.6 1.92-0.6h13.44q0.08 0.32 0.12 0.88 0.08 0.56 0.08 1.12 0 1.16-0.52 1.64-0.48 0.44-1.2 0.44h-9.76v6.96h10.32q0.04 0.32 0.08 0.84 0.08 0.48 0.08 1.04 0 1.12-0.48 1.56-0.44 0.44-1.12 0.44h-8.88v7h11.64q0.04 0.32 0.08 0.84 0.08 0.48 0.08 1.04 0 1.2-0.48 1.72-0.48 0.48-1.2 0.48z"/>
   <path d="m185.19 533.29q-1.96 0-4.28-0.4-2.28-0.4-4.68-1.2 0-0.16-0.04-0.28 0-0.12 0-0.28 0-1.32 0.48-2.12 0.48-0.84 1.56-0.84 0.52 0 1.24 0.16t1.6 0.36q0.92 0.2 2 0.36 1.12 0.16 2.44 0.16 2.76 0 3.92-1 1.2-1 1.2-2.52 0-0.76-0.28-1.28-0.28-0.56-0.8-0.92-0.52-0.4-1.28-0.68-0.72-0.28-1.68-0.56l-3.32-0.92q-3.92-1.08-5.48-3-1.52-1.92-1.52-4.4 0-1.24 0.44-2.52 0.44-1.32 1.52-2.36t2.88-1.72 4.52-0.68q1.84 0 3.92 0.36 2.12 0.36 4.4 1.16v0.56q0 1.36-0.48 2.12-0.44 0.76-1.48 0.76-0.52 0-1.16-0.12-0.6-0.16-1.4-0.28-0.76-0.16-1.76-0.28-1-0.16-2.24-0.16-1.4 0-2.32 0.28-0.92 0.24-1.48 0.68t-0.8 1q-0.24 0.52-0.24 1.08 0 1.32 0.88 2 0.92 0.68 3.24 1.32l3.52 1q7 1.84 7 7.28 0 1.76-0.6 3.2-0.56 1.44-1.8 2.48t-3.12 1.64q-1.88 0.56-4.52 0.56z"/>
   <path d="m201.31 532.93q-1.48 0-1.92-0.56-0.4-0.6-0.4-1.52v-22.12q0-0.8 0.48-1.32 0.52-0.56 1.8-0.56 0.64 0 1.24 0.08 0.64 0.04 0.96 0.12v21.8h12.36q0.08 0.44 0.12 0.92 0.08 0.44 0.08 0.92 0 1.28-0.56 1.76-0.52 0.48-1.48 0.48z"/>
   <path d="m221.35 533.17q-0.64 0-1.28-0.08-0.6-0.04-0.92-0.12v-24.24q0-0.8 0.48-1.32 0.52-0.56 1.8-0.56 0.64 0 1.24 0.08 0.64 0.04 0.96 0.12v24.24q0 0.8-0.52 1.36-0.48 0.52-1.76 0.52z"/>
   <path d="m240.56 533.37q-2.96 0-5.4-1.08-2.4-1.08-4.12-2.92t-2.68-4.28q-0.92-2.48-0.92-5.24t0.96-5.16 2.68-4.16 4.12-2.76q2.44-1.04 5.32-1.04 2.28 0 4.64 0.48t4.28 1.52v0.52q0 1.24-0.52 2t-1.6 0.76q-0.52 0-1.08-0.16-0.52-0.2-1.28-0.4-0.72-0.24-1.76-0.4-1.04-0.2-2.52-0.2-1.88 0-3.44 0.64t-2.72 1.8q-1.12 1.16-1.76 2.84-0.64 1.64-0.64 3.72 0 2.04 0.64 3.8t1.76 3.04q1.16 1.24 2.72 1.96 1.6 0.72 3.48 0.72 1.68 0 2.88-0.32 1.2-0.36 2.24-0.92v-6h-5q-0.72 0-1.2-0.4-0.44-0.44-0.44-1.6 0-1.08 0.2-1.8h8.4q1.48 0 1.88 0.6 0.44 0.56 0.44 1.48v10.28q-2.16 1.28-4.44 2-2.24 0.68-5.12 0.68z"/>
   <path d="m254.66 533.17q-0.56 0-1.28-0.12-0.68-0.12-1.08-0.36l8.84-25.56q0.76-0.2 1.48-0.28 0.76-0.08 1.44-0.08 0.96 0 1.56 0.16 0.64 0.12 1.04 0.44 0.44 0.28 0.72 0.76 0.28 0.44 0.52 1.12l8.04 23.4q-0.48 0.2-1.12 0.36-0.6 0.16-1.12 0.16-0.92 0-1.6-0.24-0.68-0.2-1-1.12l-1.92-5.72h-10.24l-1.88 5.72q-0.32 0.88-0.92 1.12t-1.48 0.24zm5.56-10.92h7.72l-3.84-11.6z"/>
  </g>
 </g>
 <path d="m192.49 184.87v-7.0803c0-1.9099 0.76251-3.1226 4.7202-3.1226 0.49019 0 0.90768 0.027 1.3798 0.1034v23.17c0 1.9243-0.74431 3.1407-4.7201 3.1407-0.472 0-0.88961-0.036-1.3798-0.109v-10.53h-12.309v7.4979c0 1.9243-0.7625 3.1407-4.7202 3.1407-0.49019 0-0.90769-0.036-1.3979-0.109v-23.183c0-1.9099 0.7625-3.1226 4.7202-3.1226 0.49019 0 0.9078 0.027 1.3979 0.1034v10.099h12.309m35.056 2.9592c0-7.8609-5.6642-13.206-15.051-13.206h-6.3904c-3.0681 0-3.7943 1.6085-3.7943 3.729v19.007c0 2.0333 0.7262 3.7036 3.7943 3.7036h6.3904c9.3859 0 15.051-5.3556 15.051-13.235m-19.116 7.5705v-15.123h4.4115c6.1544 0 8.4056 3.9759 8.4056 7.5523 0 3.5946-2.2512 7.5705-8.4056 7.5705h-4.4115" fill="#fff" stroke-width="1.8154"/>
 <path d="m139.94 211.67c-2.5158 0-4.9206-0.19688-7.1878-0.59079-2.2108-0.31976-4.2844-0.93528-6.1917-1.8706-0.22112-2.3627 0.11056-4.1594 0.99514-5.4144 0.88473-1.3049 2.2393-1.9691 4.0914-1.9691 1.382 0 2.7642 0.17178 4.0911 0.49232 1.3268 0.27086 2.709 0.39388 4.202 0.39388 3.1512 0 5.5836-0.68926 7.2976-2.0673 1.6864-1.4278 2.6538-3.9381 2.8753-7.4822-1.3269 0.98424-2.8753 1.7718-4.6446 2.3628-1.7692 0.59081-3.7041 0.88587-5.7498 0.88587-2.6539 0-4.9481-0.34505-6.8554-1.0831-1.9355-0.71367-3.5383-1.6735-4.8653-2.8549-1.2716-1.2306-2.184-2.6583-2.7645-4.2334-0.60775-1.5752-0.88473-3.1996-0.88473-4.9222 0-1.8953 0.35914-3.6924 1.1057-5.415 0.80156-1.6981 1.9351-3.175 3.4278-4.4303 1.5478-1.3048 3.3722-2.3136 5.5283-3.0521 2.2115-0.71367 4.672-1.083 7.4086-1.083 2.9305 0 5.5843 0.4671 7.9614 1.3786 2.3495 0.86129 4.3678 2.1656 6.0819 3.9381 1.7692 1.7226 3.1237 3.8889 4.0911 6.4975 0.93953 2.6338 1.4373 5.7106 1.4373 9.2547 0 3.4952-0.52461 6.5712-1.5477 9.254-0.96736 2.7074-2.4053 4.9228-4.3125 6.6944-1.852 1.7723-4.0911 3.126-6.7448 4.0366-2.6539 0.83656-5.6118 1.2799-8.8458 1.2799zm2.1011-22.742c1.465 0 2.8746-0.14733 4.2016-0.49235 1.3269-0.39384 2.4881-0.93567 3.5384-1.6741-0.16548-2.8058-0.93958-5.045-2.3219-6.694-1.3269-1.6251-3.2072-2.4617-5.6392-2.4617-1.7692 0-3.2893 0.56637-4.5333 1.674-1.1888 1.0579-1.7691 2.4119-1.7691 4.0362 0 1.7226 0.55298 3.1013 1.658 4.1347 1.1613 0.98482 2.7925 1.4769 4.8661 1.4769z" fill="#fff" stroke-width="6.6776"/>
</svg>
