<svg width="1340" height="820" version="1.1" viewBox="0 0 354.54 216.96" xmlns="http://www.w3.org/2000/svg">
 <path d="m-7.3425e-4 0h354.54v216.96h-354.54z" fill="#fff" style="paint-order:stroke fill markers"/>
 <path d="m-7.4105e-4 105.83h354.54v58.209h-354.54z" fill="#1a4e53" style="paint-order:stroke fill markers"/>
 <path d="m148.27 64.721c0 8.9731-5.865 15.531-17.77 16.828-8.6278 0.9248-21.118-0.1666-27.047-0.8497-0.2208-0.9682-0.3919-2.1734-0.3919-3.1208 0-7.8548 4.2438-9.6455 8.2142-9.6455 4.1252 0 10.627 0.7149 15.465 0.7149 5.311 0 6.9345-1.807 6.9345-3.5235 0-2.2539-2.1478-3.1902-6.2739-3.9812l-11.294-2.1734c-9.4023-1.8024-14.418-8.3116-14.418-15.217 0-8.3952 5.9377-15.424 17.614-16.717 8.8298-0.9558 19.573 0.1231 25.47 0.8466 0.2175 1.0146 0.3299 1.972 0.3299 3.0263 0 7.8282-4.1252 9.5168-8.1008 9.5168-3.0563 0-7.7941-0.5724-13.203-0.5724-5.5094 0-7.7941 1.525-7.7941 3.3831 0 1.9557 2.1765 2.7674 5.6257 3.3707l10.796 2.0045c11.091 2.0464 15.843 8.3511 15.843 16.109m19.377 9.6346c0 4.8152-1.8899 7.5904-11.276 7.5904-1.2439 0-2.3329-0.092-3.3754-0.2417v-63.858c0-4.8494 1.6475-9.9087 11.132-9.9087 1.1936 0 2.398 0.123 3.5188 0.3571v66.06m38.382 24.704c1.2292 0.6289 3.7605 1.3934 6.943 1.4794 5.4449 0.1178 8.4232-1.9751 10.628-6.8594l29.254-65.303c-1.206-0.6506-3.8759-1.3717-6.0684-1.4228-3.7581-0.07-8.805 0.7025-12.036 8.4052l-9.4727 22.377-18.578-30.286c-1.1982-0.3679-4.1228-0.8954-6.273-0.8954-6.548 0-10.219 2.4204-14.023 6.5494l-18.062 19.771 14.528 22.885c2.6846 4.1694 6.2242 6.2948 11.971 6.2948 3.7572 0 6.8856-0.8559 8.3349-1.5498l-17.492-26.398 12.396-13.146 20.339 31.944-12.388 26.156" fill="#1a4e53" stroke-width="2.9438"/>
 <path d="m168.96 184.87v-7.0803c0-1.9099 0.7625-3.1226 4.7201-3.1226 0.49019 0 0.90769 0.027 1.3798 0.1034v23.17c0 1.9243-0.7443 3.1407-4.7201 3.1407-0.472 0-0.8896-0.036-1.3798-0.109v-10.53h-12.309v7.4979c0 1.9243-0.7625 3.1407-4.7202 3.1407-0.49019 0-0.90769-0.036-1.3979-0.109v-23.183c0-1.9099 0.7625-3.1226 4.7202-3.1226 0.49019 0 0.90779 0.027 1.3979 0.1034v10.099h12.309m35.056 2.9592c0-7.8609-5.6642-13.206-15.051-13.206h-6.3904c-3.0681 0-3.7943 1.6085-3.7943 3.729v19.007c0 2.0333 0.7262 3.7036 3.7943 3.7036h6.3904c9.3859 0 15.051-5.3556 15.051-13.235m-19.116 7.5705v-15.123h4.4115c6.1544 0 8.4056 3.9759 8.4056 7.5523 0 3.5946-2.2512 7.5705-8.4056 7.5705h-4.4115" fill="#1a4e53" stroke-width="1.8154"/>
 <g transform="matrix(2.0317 0 0 2.0317 -44.35 98.048)" fill="#fff">
  <path d="m84.845 28.577c-0.719 0-1.335-0.12-1.883-0.36-0.531-0.24-1.027-0.67-1.473-1.25l-6.095-8.029v7.329c0 0.62-0.189 1.13-0.566 1.58-0.376 0.42-1.096 0.63-2.14 0.63-0.445 0-0.873-0.02-1.318-0.05-0.429-0.05-0.788-0.11-1.079-0.16v-18.284c0-0.617 0.188-1.13 0.565-1.576 0.376-0.428 1.096-0.633 2.14-0.633 0.445 0 0.891 0.017 1.319 0.051 0.428 0.052 0.787 0.103 1.079 0.171v8.99l5.89-7.603c0.445-0.616 0.942-1.044 1.455-1.284 0.514-0.24 1.113-0.359 1.781-0.359 0.737 0 1.387 0.051 1.918 0.171s1.044 0.291 1.507 0.513l-7.398 9.316 7.638 10.017c-0.463 0.26-0.942 0.46-1.439 0.6-0.513 0.15-1.147 0.22-1.901 0.22"/>
  <path d="m94.912 17.329h2.4c1.27 0 2.16-0.257 2.65-0.788 0.52-0.514 0.76-1.164 0.76-1.918 0-0.805-0.26-1.438-0.81-1.918-0.53-0.462-1.32-0.702-2.34-0.702h-2.66v5.326m7.93 11.248c-0.72 0-1.3-0.12-1.76-0.36-0.47-0.25-0.91-0.67-1.34-1.28l-4.04-5.807h-0.79v5.137c0 0.62-0.19 1.13-0.56 1.58-0.38 0.42-1.099 0.63-2.143 0.63-0.446 0-0.891-0.02-1.319-0.05-0.428-0.05-0.788-0.11-1.096-0.17v-17.898c0-0.359 0.052-0.702 0.12-1.01 0.069-0.325 0.205-0.582 0.411-0.805 0.188-0.222 0.479-0.394 0.856-0.53 0.36-0.12 0.839-0.189 1.438-0.189h4.863c1.25 0 2.4 0.154 3.43 0.428 1.01 0.291 1.88 0.702 2.61 1.25 0.72 0.548 1.29 1.233 1.68 2.072 0.41 0.822 0.6 1.798 0.6 2.894 0 1.627-0.41 2.979-1.23 4.024-0.84 1.044-2.04 1.747-3.63 2.089l5.46 7.205c-0.46 0.23-0.99 0.43-1.59 0.57-0.6 0.15-1.25 0.22-1.97 0.22"/>
  <path d="m111.14 28.477c-0.44 0-0.87-0.02-1.31-0.05-0.43-0.05-0.79-0.11-1.08-0.16v-18.284c0-0.617 0.19-1.13 0.56-1.576 0.38-0.428 1.1-0.633 2.16-0.633 0.43 0 0.87 0.017 1.3 0.051 0.43 0.052 0.79 0.103 1.1 0.171v18.271c0 0.62-0.19 1.13-0.58 1.58-0.38 0.42-1.08 0.63-2.15 0.63"/>
  <path d="m118.95 28.477c-0.49 0-0.92-0.04-1.28-0.14-0.38-0.08-0.69-0.2-0.96-0.32l1.92-19.678c0.41-0.171 0.92-0.308 1.57-0.411 0.67-0.103 1.22-0.154 1.68-0.154 0.65 0 1.22 0.034 1.7 0.12 0.48 0.085 0.87 0.222 1.21 0.428 0.33 0.205 0.6 0.479 0.81 0.839 0.19 0.359 0.34 0.805 0.46 1.318l0.8 3.819c0.24 1.061 0.48 2.226 0.76 3.493 0.25 1.284 0.49 2.585 0.7 3.938h0.14c0.22-1.353 0.46-2.654 0.72-3.921 0.25-1.267 0.51-2.414 0.78-3.476l1.01-4.007c0.26-0.993 0.65-1.661 1.22-2.02 0.55-0.36 1.42-0.531 2.6-0.531 0.58 0 1.18 0.034 1.78 0.137 0.6 0.085 1.1 0.188 1.49 0.291l1.85 19.815c-0.29 0.1-0.65 0.2-1.06 0.3-0.41 0.11-0.86 0.16-1.34 0.16-0.66 0-1.25-0.1-1.71-0.34-0.46-0.23-0.72-0.67-0.75-1.31l-0.48-6.81c-0.1-1.199-0.19-2.449-0.26-3.767-0.07-1.319-0.12-2.569-0.15-3.75h-0.05c-0.28 1.096-0.55 2.277-0.84 3.561-0.29 1.268-0.58 2.449-0.88 3.511l-1.28 5.376c-0.32 1.268-1.32 1.879-3.01 1.879-0.41 0-0.84-0.03-1.29-0.11-0.44-0.09-0.82-0.18-1.14-0.279l-1.61-6.695c-0.31-1.25-0.6-2.466-0.88-3.664-0.27-1.199-0.53-2.415-0.77-3.613h-0.08c-0.07 1.695-0.16 3.236-0.26 4.64-0.1 1.387-0.21 2.603-0.27 3.613l-0.52 6.148c-0.03 0.62-0.27 1.04-0.68 1.27-0.43 0.24-0.98 0.34-1.65 0.34"/>
  <path d="m145.15 28.477c-0.43 0-0.87-0.02-1.3-0.05-0.43-0.05-0.8-0.11-1.1-0.16v-18.284c0-0.617 0.19-1.13 0.57-1.576 0.38-0.428 1.1-0.633 2.16-0.633 0.44 0 0.87 0.017 1.3 0.051 0.44 0.052 0.8 0.103 1.09 0.171v18.271c0 0.62-0.18 1.13-0.56 1.58-0.38 0.42-1.1 0.63-2.16 0.63"/>
 </g>
</svg>
