<svg width="850" height="850" enable-background="new 0 0 2362.9 500" version="1.1" viewBox="0 0 850 850" xml:space="preserve" xmlns="http://www.w3.org/2000/svg"><defs><linearGradient id="f-5-5-0-5" x1="2140.7" x2="2165.1" y1="-449.43" y2="-449.43" gradientTransform="matrix(34.76 0 0 -34.76 -74411 -15123)" gradientUnits="userSpaceOnUse"><stop stop-color="#0186E0" offset="0"/><stop stop-color="#54DCF7" offset="1"/></linearGradient><linearGradient id="linearGradient1936" x1="365.41" x2="359.57" y1="1091.1" y2="923.62" gradientTransform="translate(0,-828.02)" gradientUnits="userSpaceOnUse"><stop stop-color="#fff" offset="0"/><stop stop-color="#fff" stop-opacity=".8347" offset=".1203"/><stop stop-color="#fff" stop-opacity=".6576" offset=".2693"/><stop stop-color="#fff" stop-opacity=".5107" offset=".4195"/><stop stop-color="#fff" stop-opacity=".3965" offset=".5684"/><stop stop-color="#fff" stop-opacity=".3152" offset=".7156"/><stop stop-color="#fff" stop-opacity=".2664" offset=".8603"/><stop stop-color="#fff" stop-opacity=".25" offset="1"/></linearGradient><linearGradient id="linearGradient5874-6-5" x1="1279.6" x2="1273" y1="1197.7" y2="1016.9" gradientTransform="matrix(.80989 0 0 .80989 -626.59 -470.95)" gradientUnits="userSpaceOnUse"><stop stop-color="#fff" offset="0"/><stop stop-color="#fff" stop-opacity=".8347" offset=".1203"/><stop stop-color="#fff" stop-opacity=".6576" offset=".2693"/><stop stop-color="#fff" stop-opacity=".5107" offset=".4195"/><stop stop-color="#fff" stop-opacity=".3965" offset=".5684"/><stop stop-color="#fff" stop-opacity=".3152" offset=".7156"/><stop stop-color="#fff" stop-opacity=".2664" offset=".8603"/><stop stop-color="#fff" stop-opacity=".25" offset="1"/></linearGradient></defs>
<path d="m0-5e-6h850v360h-850z" fill="#fff" stop-color="#000000" stroke-width=".42355" style="font-variation-settings:normal"/><path d="m0 640h850v210h-850z" fill="#fff" stop-color="#000000" stroke-width=".24707" style="font-variation-settings:normal"/><path d="m0 360h850v280h-850z" fill="url(#f-5-5-0-5)" stop-color="#000000" stroke-width=".88559" style="font-variation-settings:normal"/><g transform="matrix(.64403 0 0 .64403 191.86 21.452)"><path d="m84.4 120.2c-55.9 6.1-84.4 39.7-84.4 79.8 0 33 24 64.1 69 72.7l54.2 10.4c19.8 3.8 30 8.2 30 19 0 8.2-7.7 16.9-33.2 16.9-23.1 0-54.2-3.5-74-3.5-19 0-39.2 8.6-39.2 46 0 4.6 0.8 10.4 1.8 15 28.5 3.3 88.2 8.5 129.6 4 57.1-6.1 85.2-37.5 85.2-80.4 0-37-22.9-67.1-75.9-76.9l-51.7-9.6c-16.6-2.9-26.9-6.7-26.9-16.1 0-8.9 10.9-16.1 37.3-16.1 25.9 0 48.7 2.7 63.2 2.7 19 0 38.8-8.1 38.8-45.5 0-5-0.6-9.6-1.6-14.4-20.3-2.5-52.6-5.8-84.8-5.8-12.8-0.1-25.5 0.49999-37.4 1.8m321.4 28.9-86.5 94.4 69.5 109.4c12.9 20 29.8 30.1 57.3 30.1 18 0 33-4.2 40-7.5l-83.8-126 59.4-62.9 97.4 152.7-59.4 125c6 3 18 6.7 33.2 7 26.2 0.6 40.3-9.4 51-32.8l140.1-312c-5.8-3.1-18.7-6.6-29-6.7-18-0.4-42.3 3.2-57.7 40.1l-45.3 106.9-89-144.6c-5.8-1.8-19.8-4.2-30-4.2-31.5-0.1-49 11.4-67.2 31.1m-160-72.8v305c5 0.8 10.2 1.1 16.1 1.1 45 0 54-13.2 54-36.2v-315.6c-5.4-1.1-11.1-1.8-16.9-1.8-45.4 0.1-53.2 24.2-53.2 47.5" fill="#0295ee" stop-color="#000000" style="font-variation-settings:normal"/><path d="m0 200c0-40.1 28.5-73.7 84.4-79.8 11.9-1.3 24.6-1.9 37.2-1.6 32.2 0 64.5 3.3 84.8 5.8 1 4.8 1.6 9.4 1.6 14.4 0 37.4-19.8 45.5-38.8 45.5-14.5 0-37.3-2.7-63.2-2.7-26.4 0-37.3 7.2-37.3 16.1 0 9.4 10.3 13.2 26.9 16.1l51.7 9.6c53 9.8 75.9 39.9 75.9 76.9 0 2.7-0.1 5.3-0.3 7.8v0.69999h-0.1c1.1-19.7-11.4-39.3-34.4-38.5-9.9 0.3-55.6 1.9-61.7 2.1-19.7 0.8-46.3-1-57.8-3-13.9-2.4-27.9-5.9-41.5-14.8-18-14.2-27.4-34-27.4-54.6zm263.1 67.8c7.5-0.2 28.8-1 35.1-1.2 6.9-0.2 17.6-5 17.8-17.9v-218c-0.2 0-0.3-0.1-0.5-0.1h-35.3c-28.9 5.9-34.5 26.1-34.5 45.7v209.1c0.1-8.4 6.6-17.3 17.4-17.6zm238.6-18.7c7.2 9.4 18.1 9.6 20.4 9.5 2.1 0 54.3-1.9 56.7-2 3.7-0.1 7.8 1.9 11 6.4l-86.8-140.9c-5.8-1.8-19.8-4.2-30-4.2-31.5 0-49 11.5-67.2 31.2l-86.5 94.4 6.9 10.9c2.9 4 8.9 10.8 20.5 10.3 4.1-0.1 45.9-1.6 49.3-1.7 10.8-0.4 17.6 4.2 21.8 9.7l-15.4-23.2 59.4-62.9zm222.2-122.6c-5.8-3.1-18.7-6.6-28.9-6.7-0.8-0.1-1.5-0.1-2.2-0.1-17.8 0.1-40.7 4.9-55.5 40.2l-44.2 104.3c0.1-0.1 2.9-8.1 11.5-8.5 0 0 43.5-1.5 46.8-1.6 14.2-0.49999 19.9-10.3 21.3-13.4l51.2-114.1z" enable-background="new    " fill="url(#linearGradient1936)" opacity=".35"/></g><g transform="matrix(.45226 0 0 .45226 -505.84 626.17)" fill="#029cf4"><path d="m2034.6 153.8v184.7c0 8.1-4.1 12.6-16.7 12.6-5.7 0-11-0.8-15.1-1.6v-85h-105.4v74.1c0 8.1-4.1 12.6-16.7 12.6-6.1 0-12.2-0.8-15.1-1.6v-184.8c0-7.8 4.1-12.6 17.1-12.6 5.7 0 11.3 0.8 14.6 1.6v82.2h104.9v-71.2c0-7.8 4.5-12.6 17.5-12.6 6 0 11.6 0.8 14.9 1.6"/><path d="m2250.8 251.4c0 55.4-38.7 97.3-99.3 97.3h-56.5c-12.2 0-16.7-4.9-16.7-12.6v-168.9c0-7.7 4.5-12.6 16.7-12.6h56.5c60.6 0 99.3 41.5 99.3 96.8m-32.2 0c0-41.5-26-68.4-67.1-68.4h-41.5v137.1h41.5c41.1 0.1 67.1-26.8 67.1-68.7"/></g><g transform="translate(-2785.2 -577.82)" fill="#fff" stroke-width="1.9268"><g transform="matrix(.56244 0 0 .56244 2667.7 1369.8)"><path d="m582.54-669.28q0-12.72 6.8494-21.946 6.8494-9.2253 19.291-14.118 12.581-5.0323 29.354-5.0323 15.097 0 28.516 2.5161t24.183 6.5698q1.5376 8.6667-0.27957 13-1.6774 4.3333-5.5914 5.4516-3.7741 0.9785-8.5268-0.13969-5.871-1.5376-11.882-2.7957-5.871-1.2581-12.301-1.957-6.2903-0.83871-13.559-0.83871-15.237 0-23.065 4.6128t-7.828 13.28q0 4.8924 2.3763 8.2473 2.5162 3.3549 6.9893 5.7311 4.4732 2.3763 10.344 4.3333 6.0107 1.8172 13.14 3.7741l7.828 2.0967q7.129 1.957 14.258 4.3333 7.129 2.2366 13.419 5.3119 6.4302 3.0753 11.462 7.5484 5.0323 4.4731 7.828 10.763 2.9354 6.2903 2.9354 14.957 0 10.763-4.3333 18.871-4.3333 8.1076-12.301 13.559-7.9677 5.3119-18.871 7.9677-10.763 2.7957-23.624 2.7957-10.624 0-21.108-1.5376-10.344-1.5376-19.429-3.7741-9.0854-2.2365-15.796-4.6128-0.83872-4.6128-0.13988-9.5054 0.69893-4.8924 3.6344-7.828 3.0753-2.9354 9.3656-1.6774 4.4731 0.9785 8.6667 2.0967 5.0323 1.2581 10.204 2.5162 5.3119 1.1183 11.323 1.957 6.0107 0.69893 13.28 0.69893 10.344 0 18.032-2.2366 7.6883-2.2366 11.882-6.7097 4.1934-4.4732 4.1936-11.323 0-4.6128-2.3763-8.1076-2.3763-3.4946-6.5698-6.1506-4.0537-2.6558-9.3656-4.6128t-11.183-3.4946q-5.871-1.6774-21.387-5.5914-5.871-1.5376-11.602-3.7741-5.7311-2.3763-10.763-5.4516-5.0323-3.215-8.9463-7.4086-3.914-4.3333-6.2903-9.7848-2.2366-5.5914-2.2366-12.581z"/><path d="m791.3-710.35q15.097 0 27.258 5.3119 12.161 5.172 20.828 14.538 8.6667 9.2259 13.28 21.807 4.6128 12.581 4.6128 27.398 0 3.6344-0.13969 7.6881-0.13989 3.914-0.83872 6.9893h-111.55q1.1183 9.2259 4.6128 17.194 3.6344 7.828 9.9247 13.839 6.2903 5.871 15.376 9.2259 9.086 3.3549 21.387 3.3549 10.204 0 18.591-1.957 8.5268-1.957 17.054-5.0323 8.2473-3.0753 13 1.1183 4.7527 4.0537 3.6344 16.215-4.8924 2.6558-13.419 5.4516-8.5268 2.7957-19.011 4.7527-10.484 2.0967-20.828 2.0967-17.054 0-30.892-5.4516-13.839-5.4516-23.763-15.376-9.9247-10.065-15.376-23.903-5.3119-13.978-5.3119-30.753 0-15.935 5.4516-29.495 5.4516-13.559 15.097-23.624 9.785-10.065 22.786-15.656 13.14-5.7311 28.237-5.7311zm-0.27957 20.828q-11.742 0-21.528 5.3119-9.7848 5.3119-16.215 15.097-6.4301 9.785-8.3871 23.483h88.484q0-6.1506-1.6774-12.441-1.6774-6.2903-5.172-11.882-3.3549-5.5914-8.3872-9.9247-5.0323-4.4732-11.882-6.9893-6.7097-2.6558-15.237-2.6558z"/><path d="m898.85-708.68q6.9893 0 10.204 2.3763 3.215 2.3763 3.215 6.7097v20.408q9.9247-14.538 22.645-21.807 12.72-7.4086 29.215-7.4086 5.4516 0 10.344 0.55912 1.258 6.9893 1.258 11.602 0 5.5914-1.957 7.9677-1.957 2.2366-5.3119 3.0753-3.215 0.69893-7.828 0.69893-11.043 0-20.269 3.914-9.086 3.914-16.215 11.183-6.9893 7.129-11.882 17.333v81.214q0 3.914-2.5161 6.1506-2.3763 2.2366-7.6881 2.6558-5.3119 0.41936-14.118-1.1183v-144.26q6.2903-1.258 10.903-1.258z"/><path d="m998.04-563.17v-136.43q0-3.914 2.5161-6.1506 2.6558-2.3763 7.9677-2.7957 5.4515-0.55914 13.839 1.1183v136.57q0 3.914-2.5162 6.1506-2.3762 2.0967-7.6881 2.5161-5.3118 0.41936-14.118-0.9785zm12.441-192.77q6.5698 0 11.183 4.6128 4.613 4.6128 4.6128 11.043 0 6.5698-4.6128 11.183-4.6129 4.4732-11.183 4.4732t-11.183-4.4732q-4.6128-4.6128-4.6128-11.183 0-6.4301 4.6128-11.043 4.6129-4.6128 11.183-4.6128z"/><path d="m1124.1-710.35q15.097 0 27.258 5.3119 12.161 5.172 20.828 14.538 8.6667 9.2259 13.28 21.807 4.6128 12.581 4.6128 27.398 0 3.6344-0.1398 7.6881-0.1399 3.914-0.8387 6.9893h-111.55q1.1183 9.2259 4.6129 17.194 3.6344 7.828 9.9247 13.839 6.2902 5.871 15.376 9.2259 9.086 3.3549 21.387 3.3549 10.204 0 18.592-1.957 8.5268-1.957 17.054-5.0323 8.2473-3.0753 13 1.1183 4.7527 4.0537 3.6344 16.215-4.8924 2.6558-13.419 5.4516-8.5268 2.7957-19.011 4.7527-10.484 2.0967-20.828 2.0967-17.054 0-30.892-5.4516-13.839-5.4516-23.763-15.376-9.9247-10.065-15.376-23.903-5.3119-13.978-5.3119-30.753 0-15.935 5.4516-29.495 5.4515-13.559 15.097-23.624 9.785-10.065 22.786-15.656 13.14-5.7311 28.236-5.7311zm-0.2795 20.828q-11.742 0-21.528 5.3119t-16.215 15.097q-6.4301 9.785-8.3871 23.483h88.484q0-6.1506-1.6774-12.441-1.6775-6.2903-5.172-11.882-3.3549-5.5914-8.3872-9.9247-5.0323-4.4732-11.882-6.9893-6.7097-2.6558-15.236-2.6558z"/><path d="m1293-710.35q11.043 0 20.688 3.6344 9.7848 3.6344 17.194 10.903 7.4087 7.2687 11.602 18.312 4.1934 11.043 4.1936 26v80.656q0 3.914-2.3763 6.1506t-7.828 2.6558q-5.3119 0.41936-13.978-0.9785v-83.172q0-13.839-4.4731-23.204-4.3333-9.3656-12.301-14.118-7.9677-4.7527-18.731-4.7527-6.8494 0-15.097 3.0753-8.2472 2.9354-15.516 8.6667-7.129 5.7311-11.462 13.978v91.698q0 3.914-2.3763 6.1506t-7.828 2.6558q-5.3119 0.41936-13.978-0.9785v-144.54q6.2903-1.2581 10.903-1.2581 6.9893 0 10.065 2.3763 3.215 2.3763 3.215 6.7097v12.581q4.0537-4.7527 8.8064-8.8064 4.8924-4.1936 10.763-7.4086 6.0107-3.215 13-5.0323 7.1289-1.957 15.516-1.957z"/></g><g transform="matrix(.57812 0 0 .57812 2079 1518.5)"><path d="m1495.5-669.97 13.559-5.4516q5.4515-2.0967 9.6451-5.3119 4.1936-3.3549 6.5698-7.6881 2.5162-4.3333 2.5162-9.6451 0-10.624-8.5269-16.774-7.6881-5.3119-18.172-5.3119-7.828 0-13.699 2.6558-5.7312 2.6558-8.9463 7.4086-3.215 4.7527-3.215 10.763 0 9.3656 7.828 17.194zm-3.2149 87.644q9.2258 0 16.914-2.9354 7.828-2.9354 13.978-7.828 6.1506-4.8924 10.624-10.903l-44.732-42.494q-32.429 11.602-32.429 34.666 0 8.2473 4.3332 14.957 4.3333 6.7097 12.301 10.624 8.1075 3.914 19.011 3.914zm-0.2796 21.666q-25.582 0-41.936-13.978-16.355-13.978-16.355-37.182 0-18.032 11.742-31.591 10.624-12.301 27.398-18.452-9.3655-9.3656-12.58-13.978-7.9677-10.763-7.9677-24.603 0-16.634 13.419-28.377 13.419-11.882 34.946-11.882 14.398 0 25.441 5.4516 11.043 5.3119 17.194 14.817 6.2903 9.3656 6.2903 21.387 0 14.258-9.3656 25.021-9.3655 10.763-28.657 18.731l34.807 32.71 20.549-33.969q4.6128-7.4086 13.419-7.4086 6.4302 0 14.258 3.7741l-32.57 52.419 42.914 40.258q-7.6881 5.3119-17.753 5.3119-8.8064 0-13.978-4.8924l-23.903-22.366q-6.7097 8.8064-15.097 15.237-8.2473 6.4302-18.731 10.065-10.344 3.4946-23.483 3.4946z"/><path d="m1672.3-669.28q0-12.72 6.8494-21.946 6.8494-9.2253 19.291-14.118 12.58-5.0323 29.354-5.0323 15.097 0 28.516 2.5161t24.183 6.5698q1.5377 8.6667-0.2795 13-1.6774 4.3333-5.5915 5.4516-3.7741 0.9785-8.5268-0.13969-5.871-1.5376-11.882-2.7957-5.871-1.2581-12.301-1.957-6.2902-0.83871-13.559-0.83871-15.236 0-23.065 4.6128-7.828 4.6128-7.828 13.28 0 4.8924 2.3762 8.2473 2.5162 3.3549 6.9893 5.7311 4.4732 2.3763 10.344 4.3333 6.0107 1.8172 13.14 3.7741l7.828 2.0967q7.1289 1.957 14.258 4.3333 7.129 2.2366 13.419 5.3119 6.4301 3.0753 11.462 7.5484 5.0323 4.4731 7.828 10.763 2.9354 6.2903 2.9354 14.957 0 10.763-4.3332 18.871-4.3333 8.1076-12.301 13.559-7.9677 5.3119-18.871 7.9677-10.763 2.7957-23.624 2.7957-10.624 0-21.108-1.5376-10.344-1.5376-19.429-3.7741-9.0854-2.2365-15.796-4.6128-0.8387-4.6128-0.1399-9.5054 0.699-4.8924 3.6345-7.828 3.0753-2.9354 9.3655-1.6774 4.4732 0.9785 8.6667 2.0967 5.0323 1.2581 10.204 2.5162 5.3119 1.1183 11.323 1.957 6.0106 0.69893 13.28 0.69893 10.344 0 18.032-2.2366 7.6883-2.2366 11.882-6.7097 4.1934-4.4732 4.1935-11.323 0-4.6128-2.3762-8.1076-2.3763-3.4946-6.5699-6.1506-4.0536-2.6558-9.3655-4.6128t-11.183-3.4946q-5.871-1.6774-21.387-5.5914-5.871-1.5376-11.602-3.7741-5.7311-2.3763-10.763-5.4516-5.0323-3.215-8.9463-7.4086-3.914-4.3333-6.2903-9.7848-2.2366-5.5914-2.2366-12.581z"/><path d="m1818.1-750.2q0-4.3333 3.0753-6.7097 3.215-2.3763 10.204-2.3763 4.6128 0 10.903 1.2581v70.872q4.0537-4.7527 8.8064-8.8064 4.8924-4.1936 10.763-7.4086 6.0107-3.215 13-5.0323 7.129-1.957 15.516-1.957 11.043 0 20.688 3.6344 9.785 3.6344 17.194 10.903 7.4085 7.2689 11.602 18.312 4.1936 11.043 4.1936 26v80.656q0 3.914-2.3763 6.1506-2.3762 2.2366-7.828 2.6558-5.3118 0.41936-13.978-0.9785v-83.172q0-13.839-4.4731-23.204-4.3333-9.3656-12.301-14.118-7.9677-4.7527-18.731-4.7527-6.8494 0-15.097 3.0753-8.2473 2.9354-15.516 8.6667-7.129 5.7311-11.462 13.978v91.698q0 3.914-2.3763 6.1506-2.3762 2.2366-7.828 2.6558-5.3118 0.41936-13.978-0.9785z"/><path d="m2046.9-710.35q16.634 0 30.194 5.871 13.699 5.871 23.344 16.215 9.7848 10.204 15.097 23.903 5.3118 13.559 5.3118 29.075t-5.4515 29.075q-5.3119 13.559-15.237 23.903-9.785 10.204-23.344 16.075t-29.915 5.871q-16.494 0-30.054-5.871-13.559-5.871-23.483-16.075-9.7848-10.344-15.237-23.903-5.3118-13.559-5.3118-29.075t5.3118-29.075q5.3119-13.699 14.957-23.903 9.785-10.344 23.344-16.215 13.699-5.871 30.474-5.871zm0 21.807q-11.183 0-20.269 4.1936-8.9463 4.0537-15.516 11.462-6.4301 7.2689-9.9247 16.914-3.4945 9.6451-3.4945 20.688 0 11.042 3.4945 20.688 3.6345 9.6451 10.065 16.914 6.5698 7.2689 15.656 11.462 9.086 4.1936 19.99 4.1936 10.903 0 19.849-4.1936 9.0859-4.1936 15.516-11.462 6.5698-7.2689 10.065-16.914 3.6344-9.6451 3.6344-20.688 0-11.042-3.4946-20.688-3.4945-9.6451-10.064-16.914-6.4302-7.4086-15.516-11.462-8.9463-4.1936-19.99-4.1936z"/><path d="m2162.3-700.16 28.936 111.27 35.786-116.44q3.4946-1.6774 7.2689-2.5161 3.7741-0.8387 8.1076-0.8387 5.871 0 9.2258 1.3978 3.4946 1.2581 5.3119 3.914 1.8172 2.5162 2.9354 6.2903l32.71 108.05 28.096-111.27q0.8388-3.6344 2.6559-5.4516 1.957-1.8172 4.4731-2.3763 2.5162-0.55914 5.172-0.55914 4.4731 0 8.1076 0.97848 3.6344 0.9785 7.129 2.5162l-37.882 131.96q-1.3979 4.8924-4.0537 7.4086-2.5161 2.3763-6.1506 3.0753-3.4945 0.69893-7.828 0.69893-3.7741 0-7.5484-0.55914-3.6344-0.55915-6.7097-1.5376l-36.204-116.44-34.107 107.35q-0.8387 3.0753-2.6558 5.5914-1.6775 2.5162-5.172 4.0537-3.3549 1.5376-9.6451 1.5376-4.1936 0-7.9677-0.55914-3.7742-0.55915-7.129-1.5376l-40.816-141.04q3.0753-1.3978 7.129-2.3763 4.0537-1.1183 8.6667-1.1183 3.215 0 5.5914 0.69893 2.3763 0.69891 4.0537 2.6558 1.6774 1.8172 2.5162 5.172z"/><path d="m2364.1-669.28q0-12.72 6.8494-21.946 6.8494-9.2253 19.291-14.118 12.58-5.0323 29.354-5.0323 15.097 0 28.516 2.5161t24.183 6.5698q1.5377 8.6667-0.2795 13-1.6775 4.3333-5.5915 5.4516-3.7741 0.9785-8.5268-0.13969-5.871-1.5376-11.882-2.7957-5.871-1.2581-12.301-1.957-6.2902-0.83871-13.559-0.83871-15.236 0-23.065 4.6128-7.828 4.6128-7.828 13.28 0 4.8924 2.3762 8.2473 2.5162 3.3549 6.9893 5.7311 4.4732 2.3763 10.344 4.3333 6.0107 1.8172 13.14 3.7741l7.828 2.0967q7.1289 1.957 14.258 4.3333 7.129 2.2366 13.419 5.3119 6.4301 3.0753 11.462 7.5484 5.0321 4.4731 7.828 10.763 2.9354 6.2903 2.9354 14.957 0 10.763-4.3333 18.871-4.3332 8.1076-12.301 13.559-7.9677 5.3119-18.871 7.9677-10.763 2.7957-23.624 2.7957-10.624 0-21.108-1.5376-10.344-1.5376-19.429-3.7741-9.0852-2.2365-15.796-4.6128-0.8387-4.6128-0.1397-9.5054 0.6989-4.8924 3.6344-7.828 3.0753-2.9354 9.3656-1.6774 4.4731 0.9785 8.6667 2.0967 5.0323 1.2581 10.204 2.5162 5.3118 1.1183 11.322 1.957 6.0107 0.69893 13.28 0.69893 10.344 0 18.032-2.2366 7.6881-2.2366 11.882-6.7097 4.1935-4.4732 4.1935-11.323 0-4.6128-2.3762-8.1076-2.3763-3.4946-6.5699-6.1506-4.0537-2.6558-9.3655-4.6128-5.3119-1.957-11.183-3.4946-5.871-1.6774-21.387-5.5914-5.871-1.5376-11.602-3.7741-5.7312-2.3763-10.764-5.4516-5.0322-3.215-8.9462-7.4086-3.914-4.3333-6.2903-9.7848-2.2366-5.5914-2.2366-12.581z"/></g></g><path d="m9e-4 360v198.27c0-2.6222 0.8758-22.178 14.176-24.978l821.12-73.98c7.4961-1.6 14.699-9.5549 14.699-24.31v-75.006z" fill="url(#linearGradient5874-6-5)" opacity=".3" stop-color="#000000" style="font-variation-settings:normal"/></svg>
