<svg width="1340" height="820" version="1.1" viewBox="0 0 354.54 216.96" xmlns="http://www.w3.org/2000/svg">
 <path d="m-7.3425e-4 0h354.54v216.96h-354.54z" fill="#fff" style="paint-order:stroke fill markers"/>
 <path d="m-7.4105e-4 105.83h354.54v58.209h-354.54z" fill="#ae2c3f" style="paint-order:stroke fill markers"/>
 <path d="m148.27 64.721c0 8.9731-5.865 15.531-17.77 16.828-8.6278 0.9248-21.118-0.1666-27.047-0.8497-0.2208-0.9682-0.3919-2.1734-0.3919-3.1208 0-7.8548 4.2438-9.6455 8.2142-9.6455 4.1252 0 10.627 0.7149 15.465 0.7149 5.311 0 6.9345-1.807 6.9345-3.5235 0-2.2539-2.1478-3.1902-6.2739-3.9812l-11.294-2.1734c-9.4023-1.8024-14.418-8.3116-14.418-15.217 0-8.3952 5.9377-15.424 17.614-16.717 8.8298-0.9558 19.573 0.1231 25.47 0.8466 0.2175 1.0146 0.3299 1.972 0.3299 3.0263 0 7.8282-4.1252 9.5168-8.1008 9.5168-3.0563 0-7.7941-0.5724-13.203-0.5724-5.5094 0-7.7941 1.525-7.7941 3.3831 0 1.9557 2.1765 2.7674 5.6257 3.3707l10.796 2.0045c11.091 2.0464 15.843 8.3511 15.843 16.109m19.377 9.6346c0 4.8152-1.8899 7.5904-11.276 7.5904-1.2439 0-2.3329-0.092-3.3754-0.2417v-63.858c0-4.8494 1.6475-9.9087 11.132-9.9087 1.1936 0 2.398 0.123 3.5188 0.3571v66.06m38.382 24.704c1.2292 0.6289 3.7605 1.3934 6.943 1.4794 5.4449 0.1178 8.4232-1.9751 10.628-6.8594l29.254-65.303c-1.206-0.6506-3.8759-1.3717-6.0684-1.4228-3.7581-0.07-8.805 0.7025-12.036 8.4052l-9.4727 22.377-18.578-30.286c-1.1982-0.3679-4.1228-0.8954-6.273-0.8954-6.548 0-10.219 2.4204-14.023 6.5494l-18.062 19.771 14.528 22.885c2.6846 4.1694 6.2242 6.2948 11.971 6.2948 3.7572 0 6.8856-0.8559 8.3349-1.5498l-17.492-26.398 12.396-13.146 20.339 31.944-12.388 26.156" fill="#ae2c3f" stroke-width="2.9438"/>
 <g transform="matrix(.59573 0 0 .59573 -47.895 102.25)">
  <g transform="matrix(16.279 0 0 -16.279 243.01 87.08)">
   <path d="m0 0c-0.279 0-0.536 0.05-0.772 0.151-0.235 0.1-0.439 0.239-0.612 0.416s-0.308 0.387-0.407 0.632c-0.098 0.244-0.147 0.507-0.147 0.791 0 0.275 0.049 0.533 0.147 0.773 0.099 0.24 0.234 0.449 0.407 0.626s0.377 0.316 0.612 0.417c0.236 0.1 0.493 0.15 0.772 0.15 0.2 0 0.395-0.022 0.583-0.065 0.189-0.043 0.363-0.098 0.524-0.165 0.036-0.524-0.092-0.786-0.383-0.786-0.051 0-0.098 6e-3 -0.141 0.018s-0.09 0.024-0.141 0.036c-0.051 0.011-0.108 0.023-0.171 0.035s-0.138 0.018-0.224 0.018c-0.137 0-0.267-0.025-0.389-0.074-0.121-0.049-0.226-0.12-0.315-0.213-0.088-0.092-0.158-0.203-0.209-0.333s-0.076-0.276-0.076-0.437c0-0.17 0.025-0.321 0.076-0.455s0.121-0.247 0.209-0.339c0.089-0.093 0.194-0.164 0.315-0.213 0.122-0.049 0.252-0.074 0.389-0.074 0.086 0 0.163 6e-3 0.23 0.018s0.126 0.024 0.179 0.035c0.053 0.012 0.103 0.024 0.151 0.036 0.047 0.012 0.096 0.018 0.147 0.018 0.286 0 0.414-0.262 0.383-0.786-0.161-0.067-0.341-0.122-0.539-0.165-0.199-0.043-0.398-0.065-0.598-0.065" fill="#fff"/>
  </g>
  <g transform="matrix(16.279 0 0 -16.279 276.08 86.266)">
   <path d="m0 0c-0.082 0-0.164 4e-3 -0.244 0.012-0.081 8e-3 -0.149 0.018-0.204 0.029v3.419c0 0.114 0.036 0.212 0.106 0.292 0.071 0.081 0.205 0.122 0.401 0.122 0.082 0 0.164-4e-3 0.244-0.012 0.081-8e-3 0.149-0.018 0.204-0.03v-3.419c0-0.114-0.036-0.211-0.106-0.292-0.071-0.081-0.205-0.121-0.401-0.121" fill="#fff"/>
  </g>
  <g transform="matrix(16.279 0 0 -16.279 302.31 86.266)">
   <path d="m0 0c-0.079 0-0.155 4e-3 -0.23 0.012-0.074 8e-3 -0.137 0.018-0.188 0.029v3.762c0.059 0.019 0.135 0.036 0.23 0.05 0.094 0.014 0.174 0.021 0.241 0.021 0.216 0 0.373-0.028 0.471-0.083s0.181-0.136 0.248-0.242l1.337-2.108v2.055c0 0.051 6e-3 0.099 0.02 0.144s0.037 0.086 0.071 0.121c0.033 0.036 0.079 0.063 0.138 0.083s0.134 0.03 0.224 0.03c0.079 0 0.154-4e-3 0.227-0.012 0.072-8e-3 0.134-0.016 0.185-0.024v-3.767c-0.055-0.028-0.121-0.046-0.2-0.056-0.078-0.01-0.155-0.015-0.23-0.015-0.184 0-0.322 0.026-0.412 0.077s-0.165 0.122-0.224 0.212l-1.431 2.291v-2.19c0-0.111-0.033-0.203-0.1-0.278s-0.193-0.112-0.377-0.112" fill="#fff"/>
  </g>
  <g transform="matrix(16.279 0 0 -16.279 370.42 85.94)">
   <path d="m0 0c-0.11 0-0.199 0.012-0.268 0.035-0.069 0.024-0.122 0.056-0.159 0.098-0.037 0.041-0.063 0.091-0.077 0.15-0.013 0.059-0.02 0.122-0.02 0.189v2.894c0 0.067 7e-3 0.13 0.02 0.189 0.014 0.059 0.04 0.109 0.077 0.15 0.037 0.042 0.09 0.074 0.159 0.098 0.069 0.023 0.158 0.035 0.268 0.035h1.949c8e-3 -0.043 0.016-0.102 0.024-0.177s0.012-0.152 0.012-0.23c0-0.166-0.034-0.283-0.1-0.352-0.067-0.069-0.151-0.103-0.254-0.103h-1.201v-0.673h1.384c8e-3 -0.04 0.016-0.092 0.024-0.157 7e-3 -0.065 0.011-0.135 0.011-0.209 0-0.158-0.031-0.265-0.094-0.322s-0.141-0.086-0.235-0.086h-1.09v-0.667h1.578c8e-3 -0.043 0.016-0.103 0.024-0.18s0.012-0.153 0.012-0.227c0-0.17-0.034-0.288-0.1-0.355-0.067-0.067-0.152-0.1-0.254-0.1h-1.69" fill="#fff"/>
  </g>
  <g transform="matrix(16.279 0 0 -16.279 416.52 86.266)">
   <path d="m0 0c-0.09 0-0.17 9e-3 -0.239 0.027-0.068 0.017-0.128 0.038-0.179 0.062l0.36 3.678c0.074 0.032 0.173 0.057 0.294 0.077 0.122 0.02 0.226 0.03 0.312 0.03 0.122 0 0.227-8e-3 0.315-0.024 0.089-0.016 0.164-0.042 0.227-0.08 0.063-0.037 0.113-0.089 0.15-0.156s0.066-0.15 0.085-0.248l0.153-0.715c0.044-0.197 0.09-0.414 0.139-0.652s0.093-0.484 0.132-0.735h0.024c0.043 0.251 0.088 0.496 0.135 0.732s0.096 0.452 0.147 0.649l0.188 0.75c0.047 0.185 0.123 0.311 0.227 0.378s0.265 0.101 0.485 0.101c0.11 0 0.22-9e-3 0.332-0.027s0.205-0.037 0.28-0.056l0.344-3.702c-0.055-0.02-0.121-0.04-0.197-0.059-0.077-0.02-0.161-0.03-0.251-0.03-0.125 0-0.232 0.022-0.318 0.065s-0.133 0.124-0.141 0.242l-0.089 1.275c-0.019 0.225-0.036 0.46-0.05 0.706-0.013 0.246-0.022 0.479-0.026 0.7h-0.012c-0.051-0.205-0.103-0.426-0.156-0.664-0.053-0.239-0.107-0.458-0.162-0.659l-0.241-1.004c-0.059-0.236-0.246-0.354-0.56-0.354-0.079 0-0.159 8e-3 -0.241 0.024-0.083 0.015-0.154 0.033-0.212 0.053l-0.301 1.252c-0.059 0.232-0.114 0.46-0.165 0.685-0.051 0.224-0.098 0.448-0.141 0.673h-0.018c-0.012-0.315-0.027-0.604-0.047-0.865-0.02-0.262-0.037-0.488-0.053-0.676l-0.094-1.152c-8e-3 -0.114-0.051-0.193-0.13-0.236-0.078-0.043-0.18-0.065-0.306-0.065" fill="#fff"/>
  </g>
  <g transform="matrix(16.279 0 0 -16.279 506.99 60.056)">
   <path d="m0 0h0.881l-0.439 1.447-0.442-1.447m-0.919-1.624c-0.074 0-0.16 7e-3 -0.256 0.021s-0.176 0.032-0.238 0.056l1.222 3.744c0.106 0.027 0.213 0.047 0.322 0.059 0.108 0.011 0.207 0.017 0.298 0.017 0.13 0 0.241-0.01 0.333-0.029 0.093-0.02 0.171-0.05 0.234-0.089s0.115-0.091 0.156-0.156c0.042-0.065 0.076-0.141 0.104-0.228l1.047-3.312c-0.067-0.028-0.147-0.048-0.241-0.062-0.095-0.014-0.187-0.021-0.277-0.021-0.102 0-0.202 0.017-0.298 0.05-0.096 0.034-0.166 0.11-0.209 0.228l-0.2 0.608h-1.285l-0.17-0.573c-0.043-0.138-0.116-0.224-0.218-0.26-0.102-0.035-0.21-0.053-0.324-0.053" fill="#fff"/>
  </g>
 </g>
 <g transform="matrix(.59282 0 0 .59282 9.0794 98.248)" fill="#ae2c3f">
  <path d="m193.43 173.24a19.09 19.09 0 0 1-7.5-1.46 17.88 17.88 0 0 1-6-4.08 18.75 18.75 0 0 1-4-6.25 21.42 21.42 0 0 1-1.43-7.91 21.1 21.1 0 0 1 1.43-7.79 19.45 19.45 0 0 1 4-6.31 18.21 18.21 0 0 1 6-4.19 18.42 18.42 0 0 1 7.5-1.52 27.61 27.61 0 0 1 5.8 0.59 32 32 0 0 1 5.27 1.61q0.06 0.42 0.09 0.74v0.68a4.74 4.74 0 0 1-0.83 3 2.54 2.54 0 0 1-2.08 1.07 4.15 4.15 0 0 1-1.31-0.24l-1.64-0.54a18.44 18.44 0 0 0-2.17-0.54 15.87 15.87 0 0 0-2.92-0.24 11.47 11.47 0 0 0-8.6 3.75 12.76 12.76 0 0 0-2.56 4.31 16.31 16.31 0 0 0-0.92 5.62 16.68 16.68 0 0 0 0.92 5.74 12.41 12.41 0 0 0 2.56 4.28 10.66 10.66 0 0 0 3.84 2.65 12.55 12.55 0 0 0 4.76 0.89 15.22 15.22 0 0 0 2.89-0.24 17.08 17.08 0 0 0 2.11-0.54l1.55-0.54a3.84 3.84 0 0 1 1.31-0.24 3.06 3.06 0 0 1 2.38 1 4.16 4.16 0 0 1 0.89 2.89v0.77a3.5 3.5 0 0 1-0.12 0.83 27.58 27.58 0 0 1-5.18 1.64 29.59 29.59 0 0 1-6.04 0.57z"/>
  <path d="m226.57 173.47a18.67 18.67 0 0 1-7.74-1.58 17.83 17.83 0 0 1-6-4.34 20.28 20.28 0 0 1-3.9-6.43 22.75 22.75 0 0 1 0-15.71 19.22 19.22 0 0 1 3.9-6.34 18.1 18.1 0 0 1 6-4.22 20.11 20.11 0 0 1 15.47 0 18.11 18.11 0 0 1 6 4.22 19.32 19.32 0 0 1 3.9 6.31 21.68 21.68 0 0 1 1.4 7.85 21.92 21.92 0 0 1-1.4 7.88 20.3 20.3 0 0 1-3.9 6.43 17.84 17.84 0 0 1-6 4.34 18.67 18.67 0 0 1-7.73 1.59zm-0.06-6a10.36 10.36 0 0 0 4.7-1.1 12.56 12.56 0 0 0 3.87-3 14.13 14.13 0 0 0 2.62-4.52 16.26 16.26 0 0 0 1-5.59 16.47 16.47 0 0 0-0.92-5.56 13.7 13.7 0 0 0-2.56-4.46 12.06 12.06 0 0 0-3.84-2.95 10.74 10.74 0 0 0-4.76-1.07 10.86 10.86 0 0 0-4.7 1 11.68 11.68 0 0 0-3.84 2.92 14.18 14.18 0 0 0-2.59 4.43 15.92 15.92 0 0 0-1 5.59 17.07 17.07 0 0 0 0.92 5.71 14 14 0 0 0 2.56 4.52 11.86 11.86 0 0 0 3.84 3 10.6 10.6 0 0 0 4.7 1.13z"/>
  <path d="m252.45 173a6.57 6.57 0 0 1-1.76-0.21 9.25 9.25 0 0 1-1.28-0.45l3.94-37.66a9.19 9.19 0 0 1 2.16-0.57 15.17 15.17 0 0 1 2.28-0.21 8.28 8.28 0 0 1 4.06 0.8 4.15 4.15 0 0 1 1.87 2.83l6.54 25.88 6.61-25.7a4.44 4.44 0 0 1 1.9-2.92 7.38 7.38 0 0 1 3.92-0.89 17.18 17.18 0 0 1 2.44 0.18 16.11 16.11 0 0 1 2.08 0.42l3.73 37.84a11.38 11.38 0 0 1-1.4 0.45 7.24 7.24 0 0 1-1.81 0.21 4.77 4.77 0 0 1-2.26-0.48 2.06 2.06 0 0 1-1-1.79l-2.53-30.58-7.26 27.07a3.54 3.54 0 0 1-1.64 2.29 6.18 6.18 0 0 1-2.95 0.63 15.46 15.46 0 0 1-1.88-0.12 7.53 7.53 0 0 1-1.64-0.36l-8.2-29.51-2.77 30.65a2 2 0 0 1-1 1.73 4.5 4.5 0 0 1-2.15 0.47z"/>
  <path d="m300.23 172.7q-2.2 0-2.83-0.86a3.72 3.72 0 0 1-0.62-2.23v-32.49a3.72 3.72 0 0 1 0.62-2.23q0.63-0.86 2.83-0.86h20a10 10 0 0 1 0.21 1.31 15.64 15.64 0 0 1 0.09 1.67 3.18 3.18 0 0 1-0.74 2.41 2.58 2.58 0 0 1-1.81 0.68h-14.54v10.35h15.35l0.15 1.22a13.23 13.23 0 0 1 0.09 1.58 3.15 3.15 0 0 1-0.68 2.32 2.36 2.36 0 0 1-1.7 0.65h-13.21v10.41h17.31l0.15 1.22a13.27 13.27 0 0 1 0.09 1.58 3.6 3.6 0 0 1-0.71 2.53 2.37 2.37 0 0 1-1.79 0.74z"/>
  <path d="m330.22 172.7q-2.2 0-2.83-0.86a3.72 3.72 0 0 1-0.62-2.23v-32.49a3.72 3.72 0 0 1 0.62-2.23q0.63-0.86 2.83-0.86h8.15a26.45 26.45 0 0 1 8.69 1.34 18.46 18.46 0 0 1 6.58 3.84 16.9 16.9 0 0 1 4.17 6 21.62 21.62 0 0 1 0 15.53 17.68 17.68 0 0 1-4.17 6.22 20.06 20.06 0 0 1-6.63 4.2 23.78 23.78 0 0 1-8.84 1.55zm3.21-6.07h5.29a15.85 15.85 0 0 0 5.27-0.86 12.27 12.27 0 0 0 4.31-2.56 12 12 0 0 0 2.92-4.25 15.49 15.49 0 0 0 1.07-6 13.43 13.43 0 0 0-1.07-5.5 11.67 11.67 0 0 0-2.92-4 12.37 12.37 0 0 0-4.34-2.47 16.85 16.85 0 0 0-5.36-0.83h-5.18z"/>
  <path d="m375.73 173.06q-1 0-1.87-0.09a10.31 10.31 0 0 1-1.4-0.21v-16.42l-14-21.48a6.71 6.71 0 0 1 2-0.71 10 10 0 0 1 2-0.24 7.5 7.5 0 0 1 2.59 0.39 3.56 3.56 0 0 1 1.75 1.52l9.2 14.93 9.22-14.87a3.62 3.62 0 0 1 1.55-1.55 5.54 5.54 0 0 1 2.32-0.42 11.08 11.08 0 0 1 2 0.21 4.92 4.92 0 0 1 1.84 0.68l-13.8 21.48v14a2.82 2.82 0 0 1-0.74 2 3.52 3.52 0 0 1-2.66 0.78z"/>
 </g>
</svg>
