<svg width="850" height="850" enable-background="new 0 0 2362.9 500" version="1.1" viewBox="0 0 850 850" xml:space="preserve" xmlns="http://www.w3.org/2000/svg"><defs><linearGradient id="linearGradient7109" x1="32.476" x2="32.476" y2="64.952" gradientTransform="matrix(13.138 0 0 5.5426 -1.663 9e-5)" gradientUnits="userSpaceOnUse"><stop stop-color="#002A91" offset="0"/><stop stop-color="#002672" offset=".8"/></linearGradient><linearGradient id="linearGradient7107" x1="-1152.6" x2="-1152.6" y1="-773.58" y2="-778.43" gradientTransform="matrix(177.76 0 0 -57.692 205313 -44269)" gradientUnits="userSpaceOnUse"><stop stop-color="#f00" offset=".4"/><stop stop-color="#D42321" offset="1"/></linearGradient><linearGradient id="linearGradient7161" x1="-1151.8" x2="-1152" y1="-784.92" y2="-782.98" gradientTransform="matrix(149.71 0 0 -57.778 182009 -45636)" gradientUnits="userSpaceOnUse"><stop stop-color="#fff" offset="0"/><stop stop-color="#fff" stop-opacity=".25" offset="1"/></linearGradient><linearGradient id="linearGradient7105" x1="1279.6" x2="1273" y1="1197.7" y2="1016.9" gradientTransform="matrix(.80989 0 0 .80989 -626.59 -470.95)" gradientUnits="userSpaceOnUse"><stop stop-color="#fff" offset="0"/><stop stop-color="#fff" stop-opacity=".8347" offset=".1203"/><stop stop-color="#fff" stop-opacity=".6576" offset=".2693"/><stop stop-color="#fff" stop-opacity=".5107" offset=".4195"/><stop stop-color="#fff" stop-opacity=".3965" offset=".5684"/><stop stop-color="#fff" stop-opacity=".3152" offset=".7156"/><stop stop-color="#fff" stop-opacity=".2664" offset=".8603"/><stop stop-color="#fff" stop-opacity=".25" offset="1"/></linearGradient></defs>
<path d="m0-1e-5h850v360h-850z" fill="url(#linearGradient7109)" stop-color="#000000" style="font-variation-settings:normal"/><path d="m0 640h850v210h-850z" fill="#fff" stop-color="#000000" stroke-width=".24707" style="font-variation-settings:normal"/><path d="m0 360h850v280h-850z" fill="url(#linearGradient7107)" stop-color="#000000" stroke-width=".56011" style="font-variation-settings:normal"/><g transform="matrix(.64378 0 0 .64378 -5726.6 364.07)" stroke-width="1.0002"><path d="m9693.8-67.796c5.9012 2.9006 18.004 6.7014 33.507 7.1015 26.405 0.4 40.608-9.602 51.01-32.907l140.63-311.76c-5.9011-2.9005-18.804-6.7013-29.306-6.7013-18.004-0.4001-42.208 3.3007-57.712 40.008l-45.709 106.72-89.118-144.63c-5.9012-1.7003-20.104-4.2008-30.106-4.2008-31.806 0-49.41 11.702-67.314 31.206l-87.017 94.219 69.914 109.22c13.003 20.004 29.706 30.006 57.311 30.006 18.004 0 33.007-4.2008 40.208-7.5015l-84.217-125.43 59.412-62.913 97.92 152.53zm-184.54-118.02c0 22.905-9.2018 36.207-54.411 36.207-5.9011 0-11.302-0.4001-16.303-1.2003v-305.06c0-23.305 7.9016-47.51 53.511-47.51 5.9012 0 11.702 0.4001 17.203 1.7004zm-93.319-46.209c0 42.909-28.006 74.215-85.317 80.416-41.408 4.6009-101.62-0.8002-130.13-4.2009-0.8002-4.6009-1.7004-10.402-1.7004-15.003 0-37.508 20.104-45.809 39.308-45.809 19.704 0 51.01 3.3006 74.515 3.3006 25.505 0 33.507-8.8017 33.507-16.703 0-10.802-10.002-15.003-30.106-19.204l-54.411-10.402c-45.209-8.3017-69.414-39.608-69.414-72.514 0-40.008 28.406-73.815 84.517-79.616 42.208-4.601 94.119 0.4 122.62 4.2008 0.8002 4.6009 1.7004 9.6019 1.7004 14.603 0 37.508-19.704 45.409-38.908 45.409-14.603 0-37.207-2.5005-63.613-2.5005s-37.208 7.1014-37.208 16.203c0 9.602 10.502 13.303 27.206 16.203l51.91 9.6019c52.51 8.9018 75.515 38.908 75.515 76.015z" fill="#fff"/><path d="m9918.9-405.36-51.51 114.22c-1.7003 2.9006-7.1014 12.903-21.304 13.303-3.3007 0-46.909 1.7004-46.909 1.7004-8.4017 0.4001-11.302 8.3016-11.302 8.3016l44.409-104.22c15.503-36.707 39.708-40.408 57.712-40.008 10.102 0 23.005 3.3007 28.906 6.7013zm-134.73 136.23-87.017-140.83c-5.9012-1.7003-20.104-4.2008-30.106-4.2008-31.806 0-49.41 11.702-67.314 31.206l-87.017 94.219 7.1014 10.802c2.9006 4.2009 8.8018 10.802 20.504 10.402 4.2009 0 46.009-1.7003 49.41-1.7003 10.902-0.4001 17.604 4.2008 21.804 9.6019l-15.603-23.205 59.412-62.912 40.208 62.512c7.1014 9.6019 18.004 9.6019 20.504 9.6019 2.1004 0 54.411-2.1004 56.911-2.1004 3.7008-0.1001 7.9016 2.0004 11.202 6.6013zm-292.06-234.15c-45.609 0-53.111 24.205-53.111 47.51v209.24c0-8.3017 6.7013-17.103 17.203-17.504 7.5015-0.4001 28.906-0.8002 35.107-1.2002 7.1014-0.4001 17.604-5.001 18.004-17.904v-218.34c-5.5011-1.0002-11.302-1.8003-17.203-1.8003zm-152.23 194.54-51.91-9.602c-16.703-2.9005-27.206-6.7013-27.206-16.203 0-8.8018 10.902-16.203 37.208-16.203 25.905 0 48.91 2.5005 63.613 2.5005 19.204 0 38.908-7.9016 38.908-45.409 0-5.001-0.4001-9.6019-1.7004-14.603-28.406-3.3007-79.916-8.8018-122.62-4.2009-55.611 6.6013-84.017 40.408-84.017 80.416 0 20.404 9.2018 40.408 27.606 54.611 13.803 8.8018 27.606 12.502 41.808 15.003 11.702 2.1004 38.108 3.8008 58.112 2.9006 6.3013-0.4001 51.91-1.7003 61.912-2.1004 23.005-0.8002 36.007 18.704 34.307 38.708v-1.2002c0.4001-2.5005 0.4001-5.001 0.4001-7.9016-0.3-37.107-23.305-67.113-76.415-76.715z" enable-background="new    " fill="url(#linearGradient7161)" opacity=".25"/></g><g transform="matrix(2.1772 0 0 2.1772 -23916 6457.9)" fill="#fff"><path d="m11047-2709.7c-0.708-4.9026 0.814-7.4689 3.611-7.4689 2.69 0 9.221 2.9203 18.318 2.9203 9.575 0 13.185-3.3805 13.185-7.8229 0-3.1503-1.398-5.9468-10.035-8.283l-9.911-2.6725c-10.973-2.9203-15.292-8.407-15.292-15.168 0-8.4069 6.655-15.876 21.699-15.876 6.778 0 15.168 1.5221 20.3 3.5043 0.938 4.7787-0.584 7.345-3.486 7.345-2.567 0-8.407-2.4424-16.69-2.4424-8.867 0-12.142 3.0265-12.142 6.991 0 2.8141 1.292 5.3805 9.221 7.5928l10.16 2.7964c11.309 3.1504 15.858 8.407 15.858 15.876 0 8.7432-6.761 16.566-23.097 16.566-7.239 0-16.212-1.7521-21.699-3.8583"/><path d="m11149-2735c0-12.248-8.159-20.654-19.132-20.654-7.469 0-14.354 4.3185-17.505 10.619v20.177c3.151 6.3008 10.036 10.619 17.505 10.619 10.973 0 19.132-8.3892 19.132-20.761m9.681 0c0 18.318-12.831 29.168-26.955 29.168-8.389 0-15.274-3.9645-19.363-9.575v23.575c0 2.2123-1.274 3.6105-5.008 3.6105-1.876 0-3.629-0.2301-4.549-0.4601v-74.317c0.92-0.2301 2.673-0.4602 4.549-0.4602 3.734 0 5.008 1.3982 5.008 3.6106v5.3627c4.089-5.5928 10.974-9.5573 19.363-9.5573 14.124 0 26.955 10.849 26.955 29.044"/><path d="m11216-2735c0-12.832-8.637-20.654-19.132-20.654-10.39 0-19.009 7.8229-19.009 20.654 0 12.708 8.619 20.761 19.009 20.761 10.495 0 19.132-8.053 19.132-20.761m-47.84 0c0-16.69 12.265-29.044 28.708-29.044 16.566 0 28.813 12.354 28.813 29.044 0 16.566-12.247 29.168-28.813 29.168-16.443 0-28.708-12.602-28.708-29.168"/><path d="m11271-2758.8c0 3.8583-1.628 4.6725-5.593 4.6725-8.053 0-14.814 3.7344-19.026 12.478v31.61c0 2.3362-1.274 3.6283-5.133 3.6283-1.628 0-3.504-0.2478-4.424-0.4779v-56.105c0.92-0.2478 2.796-0.4779 4.424-0.4779 3.859 0 5.133 1.3982 5.133 3.6283v7.8051c5.487-8.283 13.77-12.478 24.159-11.079 0.106 0.8141 0.46 2.5663 0.46 4.3185"/><path d="m11313-2709.7c-4.903 2.3362-10.495 3.8583-16.106 3.8583-11.079 0-17.734-6.5485-17.734-17.398v-48.176c0-2.4425 1.416-4.0884 5.133-4.0884 1.646 0 3.504 0.3539 4.442 0.584v12.141h21.823c0.106 0.8141 0.336 2.4424 0.336 3.8406 0 3.3982-1.398 4.5486-3.487 4.5486h-18.672v30.46c0 6.5308 3.026 9.6812 9.221 9.6812 5.593 0 8.743-2.4424 11.433-2.4424 2.797 0 4.195 2.3185 3.611 6.991"/></g><path d="m1e-3 360v198.27c0-2.6222 0.876-22.178 14.176-24.978l821.12-73.98c7.496-1.6 14.699-9.5549 14.699-24.31v-75.006z" fill="url(#linearGradient7105)" opacity=".3" stop-color="#000000" style="font-variation-settings:normal"/><g transform="matrix(1.0526 0 0 1.0526 -4096.8 62.907)" fill="#002a91" stroke-width="2.7109"><path class="cls-6" d="m4287.6 601.58v87.86c0 3.9037-1.9519 6.0453-8.1327 6.0453a34.482 34.482 0 0 1-7.2109-0.75905v-76.555l-17.594 5.4218c-8.1326 2.5211-11.711-2.5482-10.139-11.928l29.088-9.5694c6.4519-2.1416 10.356-1.9518 14.07-0.56928"/><path class="cls-6" d="m4347.2 601.58v87.86c0 3.9037-1.9518 6.0453-8.1327 6.0453a34.998 34.998 0 0 1-7.238-0.75905v-76.555l-17.566 5.4218c-8.1327 2.5211-11.711-2.5482-10.166-11.928l29.115-9.5694c6.4248-2.1416 10.328-1.9518 14.042-0.56928"/></g></svg>
