<svg width="524.31" height="80.24" version="1.1" viewBox="0 0 138.72 21.23" xmlns="http://www.w3.org/2000/svg">
 <defs>
  <linearGradient id="d" x1=".0084819" x2=".99201" gradientTransform="matrix(0 20.31 20.31 0 76.811 .46)" gradientUnits="userSpaceOnUse">
   <stop stop-color="#0f1c4d" offset="0"/>
   <stop stop-color="#101e51" offset=".0039062"/>
   <stop stop-color="#101f54" offset=".0078125"/>
   <stop stop-color="#112157" offset=".011719"/>
   <stop stop-color="#12225a" offset=".015625"/>
   <stop stop-color="#13245d" offset=".019531"/>
   <stop stop-color="#132560" offset=".023438"/>
   <stop stop-color="#142662" offset=".027344"/>
   <stop stop-color="#142764" offset=".03125"/>
   <stop stop-color="#142764" offset=".0625"/>
   <stop stop-color="#142764" offset=".125"/>
   <stop stop-color="#142764" offset=".25"/>
   <stop stop-color="#142764" offset=".5"/>
   <stop stop-color="#142764" offset=".75"/>
   <stop stop-color="#142764" offset=".875"/>
   <stop stop-color="#142764" offset=".89062"/>
   <stop stop-color="#142764" offset=".89844"/>
   <stop stop-color="#142763" offset=".90234"/>
   <stop stop-color="#142763" offset=".90625"/>
   <stop stop-color="#132662" offset=".91016"/>
   <stop stop-color="#132661" offset=".91406"/>
   <stop stop-color="#132560" offset=".91797"/>
   <stop stop-color="#13255f" offset=".92188"/>
   <stop stop-color="#12245d" offset=".92578"/>
   <stop stop-color="#12245c" offset=".92969"/>
   <stop stop-color="#12235b" offset=".93359"/>
   <stop stop-color="#12235a" offset=".9375"/>
   <stop stop-color="#112259" offset=".94141"/>
   <stop stop-color="#112258" offset=".94531"/>
   <stop stop-color="#112157" offset=".94922"/>
   <stop stop-color="#112056" offset=".95312"/>
   <stop stop-color="#102055" offset=".95703"/>
   <stop stop-color="#102054" offset=".96094"/>
   <stop stop-color="#101f53" offset=".96484"/>
   <stop stop-color="#101e52" offset=".96875"/>
   <stop stop-color="#0f1d50" offset=".97266"/>
   <stop stop-color="#0f1d4f" offset=".97656"/>
   <stop stop-color="#0f1c4e" offset=".98047"/>
   <stop stop-color="#0f1c4d" offset=".98438"/>
   <stop stop-color="#0e1b4c" offset=".98828"/>
   <stop stop-color="#0e1b4b" offset=".99219"/>
   <stop stop-color="#0e1a4a" offset=".99609"/>
   <stop stop-color="#0e1949" offset="1"/>
  </linearGradient>
  <linearGradient id="c" x1="7.105e-15" x2="1" gradientTransform="matrix(0 -19.975 19.975 0 73.481 20.6)" gradientUnits="userSpaceOnUse">
   <stop stop-color="#552227" offset="0"/>
   <stop stop-color="#5a2227" offset=".0039062"/>
   <stop stop-color="#602228" offset=".0078125"/>
   <stop stop-color="#662329" offset=".011719"/>
   <stop stop-color="#6c232a" offset=".015625"/>
   <stop stop-color="#71232a" offset=".019531"/>
   <stop stop-color="#77232a" offset=".023438"/>
   <stop stop-color="#7d232a" offset=".027344"/>
   <stop stop-color="#84222b" offset=".03125"/>
   <stop stop-color="#8a212b" offset=".035156"/>
   <stop stop-color="#90202b" offset=".039062"/>
   <stop stop-color="#961f2b" offset=".042969"/>
   <stop stop-color="#9d1d2b" offset=".046875"/>
   <stop stop-color="#a31a2a" offset=".050781"/>
   <stop stop-color="#a9172a" offset=".054688"/>
   <stop stop-color="#b01329" offset=".058594"/>
   <stop stop-color="#b70f29" offset=".0625"/>
   <stop stop-color="#bd0829" offset=".066406"/>
   <stop stop-color="#c40228" offset=".070312"/>
   <stop stop-color="#c70028" offset=".074219"/>
   <stop stop-color="#ca0027" offset=".078125"/>
   <stop stop-color="#ca0027" offset=".09375"/>
   <stop stop-color="#ca0027" offset=".125"/>
   <stop stop-color="#ca0027" offset=".25"/>
   <stop stop-color="#ca0027" offset=".5"/>
   <stop stop-color="#ca0027" offset=".75"/>
   <stop stop-color="#ca0027" offset=".875"/>
   <stop stop-color="#ca0027" offset=".90625"/>
   <stop stop-color="#ca0027" offset=".91406"/>
   <stop stop-color="#cb0028" offset=".91797"/>
   <stop stop-color="#cc0029" offset=".92188"/>
   <stop stop-color="#ce002a" offset=".92578"/>
   <stop stop-color="#cf012a" offset=".92969"/>
   <stop stop-color="#d1052b" offset=".93359"/>
   <stop stop-color="#d2092c" offset=".9375"/>
   <stop stop-color="#d40b2d" offset=".94141"/>
   <stop stop-color="#d50d2e" offset=".94531"/>
   <stop stop-color="#d60f2f" offset=".94922"/>
   <stop stop-color="#d71130" offset=".95312"/>
   <stop stop-color="#d91431" offset=".95703"/>
   <stop stop-color="#da1732" offset=".96094"/>
   <stop stop-color="#dc1933" offset=".96484"/>
   <stop stop-color="#dd1a34" offset=".96875"/>
   <stop stop-color="#df1c35" offset=".97266"/>
   <stop stop-color="#e01d35" offset=".97656"/>
   <stop stop-color="#e12036" offset=".98047"/>
   <stop stop-color="#e22237" offset=".98438"/>
   <stop stop-color="#e42439" offset=".98828"/>
   <stop stop-color="#e6253a" offset=".99219"/>
   <stop stop-color="#e7273a" offset=".99609"/>
   <stop stop-color="#e8283b" offset="1"/>
  </linearGradient>
 </defs>
 <path d="m2.9005 0.63c-1.5801 0-2.1356 0.93656-2.1356 2.4774v15.017c0 1.5506 0.55569 2.4774 2.1356 2.4774h132.79c1.5702 0 2.1356-0.92678 2.1356-2.4774l-1e-5 -15.017c0-1.5408-0.56556-2.4774-2.1356-2.4774z" fill="url(#d)" stroke-width=".96851"/>
 <path d="m37.681 0.63c-8e-3 6.5492 8e-3 13.746 5e-3 19.971h71.575c2e-3 -6.7746 5e-3 -14.054 5e-3 -19.971z" fill="url(#c)" stroke-width=".96851"/>
 <g transform="matrix(1 0 0 1 -133.45 -432.77)" fill="#fff" stroke-width=".96851">
  <path d="m187.03 445.72c0-2.0772-1.3458-3.0816-3.5011-3.5596l-3.7643-0.84836c-0.6829-0.15633-1.2483-0.37082-1.2483-1.0533 0-0.74115 0.58526-1.0239 2.1649-1.0239 1.8626 0 2.3015 0.0976 3.9886 0.0976 0.78014 0 1.5798-0.36092 1.5798-1.9017 0-0.18548-0.0203-0.39984-0.0565-0.58524-1.141-0.0976-3.1695-0.21437-5.6855-0.21437-3.7741 0-5.2175 1.6384-5.2175 3.7253 0 1.9602 1.2289 3.0427 3.4132 3.5596l3.7643 0.86792c0.87767 0.20448 1.3555 0.59515 1.3555 1.1411 0 0.74108-0.67299 1.0239-2.243 1.0239-1.8626 0-2.7208-0.12669-4.4177-0.12669-0.77044 0-1.5701 0.36092-1.5701 1.9016 0 0.18548 0.0203 0.38996 0.0497 0.58527 1.1508 0.11681 3.5985 0.244 6.1048 0.244 3.7838 0 5.2857-1.6091 5.2857-3.8326"/>
  <path d="m218.07 444.89h1.5799l3.0426 3.6278c0.56545 0.702 1.1214 1.063 2.4088 1.063 0.87767 0 1.4628-0.10743 1.9406-0.34111l-3.9593-4.5737c2.2234-0.47768 3.345-1.9212 3.345-4.0568 0-2.6135-1.5994-3.9106-4.8273-3.9106l-4.6128-0.0203c-1.5019 0.0565-1.9992 0.57536-1.9992 1.9407v10.756c0.23413 0.0355 0.49749 0.0568 0.76068 0.0568 1.9017 0 2.3405-0.55625 2.3405-1.5408l-0.0203-3.0035m0.0203-2.5063v-3.1792h2.9842c1.2678 0 2.282 0.19536 2.282 1.5214 0 1.1214-0.76068 1.6578-2.282 1.6578h-2.9842"/>
  <path d="m188.4 449.37c0.22425 0.0352 0.49749 0.0494 0.76068 0.0494 1.9017 0 2.3405-0.54632 2.3405-1.5311v-2.6038h3.228c3.5205 0 5.2661-1.5213 5.2661-4.369 0-2.7598-1.7456-4.2227-5.0614-4.2227h-4.5348c-1.5213 0-1.9992 0.58527-1.9992 1.9407v10.737m3.1012-6.6509v-3.501h3.0914c1.5408 0 2.3015 0.56545 2.3015 1.6969 0 1.1897-0.76071 1.804-2.3015 1.804h-3.0914"/>
  <path d="m207.21 449.41c1.9991 0 3.54-0.47767 4.6225-1.4433 1.0825-0.95571 1.6383-2.6624 1.6383-5.1004-0.0203-2.3892-0.57533-4.0666-1.6968-5.0516-1.1215-0.9752-2.6428-1.4628-4.5639-1.4628-1.9212 0-3.4327 0.48759-4.5542 1.4628-1.1214 0.98498-1.6774 2.6622-1.6968 5.0516 0 2.438 0.55625 4.1447 1.6384 5.1004 1.0825 0.96542 2.6233 1.4433 4.6128 1.4433m3.0621-6.5437c0 1.4629-0.24426 2.4869-0.74114 3.1012-0.46778 0.62416-1.258 0.90696-2.321 0.90696-1.0825-0.0203-1.853-0.322-2.3503-0.90696-0.49749-0.59517-0.74114-1.6188-0.74114-3.1012 0-1.4627 0.26324-2.4868 0.7606-3.0816 0.48759-0.60437 1.2678-0.8875 2.3308-0.8875 1.0629 0 1.8236 0.28305 2.321 0.8875 0.49749 0.59515 0.74114 1.6188 0.74114 3.0816"/>
  <path d="m234.6 439.3h2.4868c0.81911 0 1.6578-0.38002 1.6578-1.9992 0-0.18547-0.0203-0.41965-0.0568-0.60434h-9.6738c-0.80946 0-1.6481 0.38002-1.6481 1.9991 0 0.18547 0.0203 0.40974 0.0567 0.60437h4.0764v10.074c0.23413 0.0355 0.49747 0.0568 0.77037 0.0568 1.892 0 2.3308-0.55623 2.3308-1.5409v-8.5916"/>
  <path d="m147.07 445.3c0 1.7163-1.1214 2.9646-3.3937 3.2084-1.6383 0.1756-4.0277-0.0284-5.1491-0.16546-0.0497-0.17559-0.0778-0.40975-0.0778-0.58524 0-1.5018 0.80946-1.8431 1.5604-1.8431 0.7899 0 2.0285 0.13658 2.9548 0.13658 1.0142 0 1.3166-0.34111 1.3166-0.67302 0-0.42885-0.40977-0.60434-1.1897-0.7509l-2.1551-0.41965c-1.7945-0.34111-2.7501-1.5798-2.7501-2.8964 0-1.5993 1.1312-2.9451 3.3644-3.1889 1.6774-0.18548 3.7253 0.0203 4.8468 0.16546 0.0497 0.18548 0.0707 0.37083 0.0707 0.57533 0 1.492-0.78998 1.8138-1.5506 1.8138-0.57536 0-1.4824-0.10769-2.5161-0.10769-1.0435 0-1.4823 0.28306-1.4823 0.64327 0 0.37083 0.41966 0.5265 1.0727 0.644l2.0576 0.38002c2.1162 0.38994 3.0231 1.5895 3.0231 3.0622m3.696 1.8432c0 0.91674-0.3609 1.4433-2.1552 1.4433-0.23438 0-0.43873-0.0203-0.64397-0.0494v-12.161c0-0.92642 0.31209-1.8918 2.126-1.8918 0.22425 0 0.45857 0.0203 0.67299 0.0707v12.59m7.3141 4.7006c0.23438 0.1267 0.72162 0.27318 1.3263 0.28308 1.0337 0.0284 1.6091-0.37082 2.0284-1.3068l5.5784-12.443c-0.23438-0.1267-0.74115-0.26324-1.1606-0.27315-0.71185-8e-3 -1.6773 0.13657-2.2918 1.6091l-1.804 4.2616-3.5498-5.7732c-0.22425-0.0707-0.78015-0.16572-1.1897-0.16572-1.258 0-1.9504 0.45858-2.672 1.2482l-3.4523 3.7643 2.7697 4.3592c0.5166 0.79968 1.1897 1.1995 2.282 1.1995 0.72164 0 1.3165-0.16572 1.5896-0.29228l-3.3353-5.0321 2.3697-2.5062 3.8716 6.0853-2.36 4.9834"/>
 </g>
 <path d="m3.0405 0c-2.3307 0-3.0417 1.4538-3.0417 2.9068v15.418c0 1.4531 0.71097 2.9056 3.0417 2.9056h132.63c2.3307 0 3.0522-1.4524 3.0522-2.9056v-15.418c0-1.453-0.72146-2.9068-3.0522-2.9068zm0.10744 0.19638h132.41c1.57 0 2.6332 0.9268 2.6332 2.4774v15.886c0 1.5506-1.0632 2.4774-2.6332 2.4774h-132.41c-1.5701 0-2.6332-0.92673-2.6332-2.4774v-15.886c0-1.5506 1.0632-2.4774 2.6332-2.4774z" fill="#a1a19c" stroke-width=".96851"/>
 <g transform="translate(.00052934 .083283)">
  <g transform="translate(8.6563 68.965)">
   <path d="m117.38-54.986c0.21443-0.62419 1.9504-1.258 2.8281-1.6774 2.6526-1.258 4.3105-2.1553 4.3105-4.5348 0-1.814-1.3361-3.8814-5.2273-3.8814-1.6189 0-3.9692 0.53643-5.0907 1.1117-0.0567 1.5214 0.70203 2.2138 1.3849 2.2138 1.1312 0 2.1259-0.63409 3.8229-0.63409 1.2775 0 1.9406 0.59516 1.9406 1.2775 0 1.2092-1.4433 1.5897-3.2182 2.5649-2.3504 1.2873-4.0667 2.3211-4.0667 4.6713 0 0.47769 0.0566 1.102 0.1557 1.5408h8.66c0.81923 0 1.6578-0.38003 1.6578-1.9992 0-0.19462-0.0212-0.45858-0.0566-0.6532h-7.0996" fill="#fff" stroke-width=".96853"/>
  </g>
  <path d="m114.88 8.37c-0.15903-0.13164-0.29156-0.24596-0.47709-0.57674-0.52126-0.82255-0.53894-1.9096 0.53009-2.3069l3.8786-1.3132h1.8995v11.089c0 0.85081-0.22972 1.4463-1.5903 1.4463-0.54777 0-1.1928-0.05744-1.449-0.11398v-9.1602l-2.7919 0.93607" fill="#fff" stroke-width=".93474"/>
 </g>
 <path class="st5" d="m135.72 16.005c1.3574 1.3356 1.6469 2.6037 1.6915 2.8818 0.13385 0 0.17846-0.58947 0.17846-1.4799v-14.176c0-1.6469-0.53442-2.1917-1.9251-2.1917-0.46702 0-0.94539 0.2563-1.5691 0.2563h-129.67c-0.6227 0-1.102-0.2563-1.5691-0.2563-1.3907 0-1.9251 0.55624-1.9251 2.1917v14.176c0 0.879 0.04461 1.4799 0.17846 1.4799 0.04461-0.27814 0.08922-1.6469 1.5805-2.8818 11.95-9.2132 120.14-12.05 133.03 0" enable-background="new" fill="#fff" opacity=".4" stroke-width=".0094921"/>
</svg>
