<svg width="850" height="850" enable-background="new 0 0 2362.9 500" version="1.1" viewBox="0 0 850 850" xml:space="preserve" xmlns="http://www.w3.org/2000/svg"><defs><linearGradient id="linearGradient42528" x1="32.476" x2="32.476" y2="64.952" gradientTransform="matrix(13.138 0 0 5.5426 -1.663 9.668e-5)" gradientUnits="userSpaceOnUse"><stop stop-color="#002A91" offset="0"/><stop stop-color="#002672" offset=".8"/></linearGradient><linearGradient id="linearGradient42530" x1="-1152.6" x2="-1152.6" y1="-773.58" y2="-778.43" gradientTransform="matrix(177.76 0 0 -57.692 205313 -44269)" gradientUnits="userSpaceOnUse"><stop stop-color="#f00" offset=".4"/><stop stop-color="#D42321" offset="1"/></linearGradient><linearGradient id="linearGradient42532" x1="-1151.8" x2="-1152" y1="-784.92" y2="-782.98" gradientTransform="matrix(149.71 0 0 -57.778 182009 -45636)" gradientUnits="userSpaceOnUse"><stop stop-color="#fff" offset="0"/><stop stop-color="#fff" stop-opacity=".25" offset="1"/></linearGradient><linearGradient id="linearGradient42534" x1="1279.6" x2="1273" y1="1197.7" y2="1016.9" gradientTransform="matrix(.80989 0 0 .80989 -626.59 -470.95)" gradientUnits="userSpaceOnUse"><stop stop-color="#fff" offset="0"/><stop stop-color="#fff" stop-opacity=".8347" offset=".1203"/><stop stop-color="#fff" stop-opacity=".6576" offset=".2693"/><stop stop-color="#fff" stop-opacity=".5107" offset=".4195"/><stop stop-color="#fff" stop-opacity=".3965" offset=".5684"/><stop stop-color="#fff" stop-opacity=".3152" offset=".7156"/><stop stop-color="#fff" stop-opacity=".2664" offset=".8603"/><stop stop-color="#fff" stop-opacity=".25" offset="1"/></linearGradient><clipPath id="clipPath22781-9-2"><path d="m-67.415-4.5918h115.23v14.4h-115.23z"/></clipPath><clipPath id="clipPath22777-7-9"><path d="m-72.611-7.1348h115.23v14.4h-115.23z"/></clipPath><clipPath id="clipPath22773-4-9"><path d="m-79.437-7.1348h115.23v14.4h-115.23z"/></clipPath><clipPath id="clipPath22769-4-5"><path d="m-85.12-7.5333h115.23v14.4h-115.23z"/></clipPath><clipPath id="clipPath22765-7-1"><path d="m-92.225-4.3458h115.23v14.4h-115.23z"/></clipPath><clipPath id="clipPath22761-9-4"><path d="m-97.005-7.5333h115.23v14.4h-115.23z"/></clipPath><clipPath id="clipPath22757-1-3"><path d="m-107.54-7.6621h115.23v14.4h-115.23z"/></clipPath><clipPath id="clipPath22753-5-9"><path d="m-112.36-4.5918h115.23v14.4h-115.23z"/></clipPath></defs>
<path d="m0-3.32e-6h850v360h-850z" fill="url(#linearGradient42528)" stop-color="#000000" style="font-variation-settings:normal"/><path d="m0 640h850v210h-850z" fill="#fff" stop-color="#000000" stroke-width=".24707" style="font-variation-settings:normal"/><path d="m0 360h850v280h-850z" fill="url(#linearGradient42530)" stop-color="#000000" stroke-width=".56011" style="font-variation-settings:normal"/><g transform="matrix(.64378 0 0 .64378 -5726.6 364.07)" stroke-width="1.0002"><path d="m9693.8-67.796c5.9012 2.9006 18.004 6.7014 33.507 7.1015 26.405 0.4 40.608-9.602 51.01-32.907l140.63-311.76c-5.9011-2.9005-18.804-6.7013-29.306-6.7013-18.004-0.4001-42.208 3.3007-57.712 40.008l-45.709 106.72-89.118-144.63c-5.9012-1.7003-20.104-4.2008-30.106-4.2008-31.806 0-49.41 11.702-67.314 31.206l-87.017 94.219 69.914 109.22c13.003 20.004 29.706 30.006 57.311 30.006 18.004 0 33.007-4.2008 40.208-7.5015l-84.217-125.43 59.412-62.913 97.92 152.53zm-184.54-118.02c0 22.905-9.2018 36.207-54.411 36.207-5.9011 0-11.302-0.4001-16.303-1.2003v-305.06c0-23.305 7.9016-47.51 53.511-47.51 5.9012 0 11.702 0.4001 17.203 1.7004zm-93.319-46.209c0 42.909-28.006 74.215-85.317 80.416-41.408 4.6009-101.62-0.8002-130.13-4.2009-0.8002-4.6009-1.7004-10.402-1.7004-15.003 0-37.508 20.104-45.809 39.308-45.809 19.704 0 51.01 3.3006 74.515 3.3006 25.505 0 33.507-8.8017 33.507-16.703 0-10.802-10.002-15.003-30.106-19.204l-54.411-10.402c-45.209-8.3017-69.414-39.608-69.414-72.514 0-40.008 28.406-73.815 84.517-79.616 42.208-4.601 94.119 0.4 122.62 4.2008 0.8002 4.6009 1.7004 9.6019 1.7004 14.603 0 37.508-19.704 45.409-38.908 45.409-14.603 0-37.207-2.5005-63.613-2.5005s-37.208 7.1014-37.208 16.203c0 9.602 10.502 13.303 27.206 16.203l51.91 9.6019c52.51 8.9018 75.515 38.908 75.515 76.015z" fill="#fff"/><path d="m9918.9-405.36-51.51 114.22c-1.7003 2.9006-7.1014 12.903-21.304 13.303-3.3007 0-46.909 1.7004-46.909 1.7004-8.4017 0.4001-11.302 8.3016-11.302 8.3016l44.409-104.22c15.503-36.707 39.708-40.408 57.712-40.008 10.102 0 23.005 3.3007 28.906 6.7013zm-134.73 136.23-87.017-140.83c-5.9012-1.7003-20.104-4.2008-30.106-4.2008-31.806 0-49.41 11.702-67.314 31.206l-87.017 94.219 7.1014 10.802c2.9006 4.2009 8.8018 10.802 20.504 10.402 4.2009 0 46.009-1.7003 49.41-1.7003 10.902-0.4001 17.604 4.2008 21.804 9.6019l-15.603-23.205 59.412-62.912 40.208 62.512c7.1014 9.6019 18.004 9.6019 20.504 9.6019 2.1004 0 54.411-2.1004 56.911-2.1004 3.7008-0.1001 7.9016 2.0004 11.202 6.6013zm-292.06-234.15c-45.609 0-53.111 24.205-53.111 47.51v209.24c0-8.3017 6.7013-17.103 17.203-17.504 7.5015-0.4001 28.906-0.8002 35.107-1.2002 7.1014-0.4001 17.604-5.001 18.004-17.904v-218.34c-5.5011-1.0002-11.302-1.8003-17.203-1.8003zm-152.23 194.54-51.91-9.602c-16.703-2.9005-27.206-6.7013-27.206-16.203 0-8.8018 10.902-16.203 37.208-16.203 25.905 0 48.91 2.5005 63.613 2.5005 19.204 0 38.908-7.9016 38.908-45.409 0-5.001-0.4001-9.6019-1.7004-14.603-28.406-3.3007-79.916-8.8018-122.62-4.2009-55.611 6.6013-84.017 40.408-84.017 80.416 0 20.404 9.2018 40.408 27.606 54.611 13.803 8.8018 27.606 12.502 41.808 15.003 11.702 2.1004 38.108 3.8008 58.112 2.9006 6.3013-0.4001 51.91-1.7003 61.912-2.1004 23.005-0.8002 36.007 18.704 34.307 38.708v-1.2002c0.4001-2.5005 0.4001-5.001 0.4001-7.9016-0.3-37.107-23.305-67.113-76.415-76.715z" enable-background="new    " fill="url(#linearGradient42532)" opacity=".25"/></g><g transform="matrix(2.1772 0 0 2.1772 -23916 6457.9)" fill="#fff"><path d="m11047-2709.7c-0.708-4.9026 0.814-7.4689 3.611-7.4689 2.69 0 9.221 2.9203 18.318 2.9203 9.575 0 13.185-3.3805 13.185-7.8229 0-3.1503-1.398-5.9468-10.035-8.283l-9.911-2.6725c-10.973-2.9203-15.292-8.407-15.292-15.168 0-8.4069 6.655-15.876 21.699-15.876 6.778 0 15.168 1.5221 20.3 3.5043 0.938 4.7787-0.584 7.345-3.486 7.345-2.567 0-8.407-2.4424-16.69-2.4424-8.867 0-12.142 3.0265-12.142 6.991 0 2.8141 1.292 5.3805 9.221 7.5928l10.16 2.7964c11.309 3.1504 15.858 8.407 15.858 15.876 0 8.7432-6.761 16.566-23.097 16.566-7.239 0-16.212-1.7521-21.699-3.8583"/><path d="m11149-2735c0-12.248-8.159-20.654-19.132-20.654-7.469 0-14.354 4.3185-17.505 10.619v20.177c3.151 6.3008 10.036 10.619 17.505 10.619 10.973 0 19.132-8.3892 19.132-20.761m9.681 0c0 18.318-12.831 29.168-26.955 29.168-8.389 0-15.274-3.9645-19.363-9.575v23.575c0 2.2123-1.274 3.6105-5.008 3.6105-1.876 0-3.629-0.2301-4.549-0.4601v-74.317c0.92-0.2301 2.673-0.4602 4.549-0.4602 3.734 0 5.008 1.3982 5.008 3.6106v5.3627c4.089-5.5928 10.974-9.5573 19.363-9.5573 14.124 0 26.955 10.849 26.955 29.044"/><path d="m11216-2735c0-12.832-8.637-20.654-19.132-20.654-10.39 0-19.009 7.8229-19.009 20.654 0 12.708 8.619 20.761 19.009 20.761 10.495 0 19.132-8.053 19.132-20.761m-47.84 0c0-16.69 12.265-29.044 28.708-29.044 16.566 0 28.813 12.354 28.813 29.044 0 16.566-12.247 29.168-28.813 29.168-16.443 0-28.708-12.602-28.708-29.168"/><path d="m11271-2758.8c0 3.8583-1.628 4.6725-5.593 4.6725-8.053 0-14.814 3.7344-19.026 12.478v31.61c0 2.3362-1.274 3.6283-5.133 3.6283-1.628 0-3.504-0.2478-4.424-0.4779v-56.105c0.92-0.2478 2.796-0.4779 4.424-0.4779 3.859 0 5.133 1.3982 5.133 3.6283v7.8051c5.487-8.283 13.77-12.478 24.159-11.079 0.106 0.8141 0.46 2.5663 0.46 4.3185"/><path d="m11313-2709.7c-4.903 2.3362-10.495 3.8583-16.106 3.8583-11.079 0-17.734-6.5485-17.734-17.398v-48.176c0-2.4425 1.416-4.0884 5.133-4.0884 1.646 0 3.504 0.3539 4.442 0.584v12.141h21.823c0.106 0.8141 0.336 2.4424 0.336 3.8406 0 3.3982-1.398 4.5486-3.487 4.5486h-18.672v30.46c0 6.5308 3.026 9.6812 9.221 9.6812 5.593 0 8.743-2.4424 11.433-2.4424 2.797 0 4.195 2.3185 3.611 6.991"/></g><path d="m1e-3 360v198.28c0-2.6222 0.876-22.178 14.176-24.978l821.12-73.98c7.496-1.6 14.699-9.5549 14.699-24.31v-75.006z" fill="url(#linearGradient42534)" opacity=".3" stop-color="#000000" style="font-variation-settings:normal"/><g transform="translate(-11890 168.35)" fill="#002a91"><g transform="matrix(12.55 0 0 -12.55 116.87 1747.7)"><g transform="translate(942.29 90.845)" clip-path="url(#clipPath22781-9-2)"><path d="m0 0c-0.492-0.234-1.055-0.387-1.617-0.387-1.113 0-1.781 0.657-1.781 1.746v4.84c0 0.246 0.14 0.41 0.515 0.41 0.164 0 0.352-0.035 0.446-0.058v-1.219h2.191c0.012-0.082 0.035-0.246 0.035-0.387 0-0.34-0.141-0.457-0.351-0.457h-1.875v-3.058c0-0.657 0.304-0.973 0.925-0.973 0.563 0 0.879 0.246 1.149 0.246 0.281 0 0.422-0.234 0.363-0.703" fill="#002a91"/></g><g transform="translate(947.48 93.388)" clip-path="url(#clipPath22777-7-9)"><path d="m0 0c0 1.289-0.867 2.074-1.922 2.074-1.043 0-1.91-0.785-1.91-2.074 0-1.277 0.867-2.086 1.91-2.086 1.055 0 1.922 0.809 1.922 2.086m-4.805 0c0 1.676 1.231 2.918 2.883 2.918 1.664 0 2.895-1.242 2.895-2.918 0-1.664-1.231-2.93-2.895-2.93-1.652 0-2.883 1.266-2.883 2.93" fill="#002a91"/></g><g transform="translate(954.31 93.388)" clip-path="url(#clipPath22773-4-9)"><path d="m0 0c0 1.23-0.82 2.074-1.922 2.074-0.75 0-1.441-0.433-1.758-1.066v-2.028c0.317-0.632 1.008-1.066 1.758-1.066 1.102 0 1.922 0.844 1.922 2.086m0.973 0c0-1.84-1.289-2.93-2.707-2.93-0.844 0-1.536 0.399-1.946 0.961v-2.367c0-0.223-0.129-0.363-0.504-0.363-0.187 0-0.363 0.023-0.457 0.047v7.464c0.094 0.024 0.27 0.047 0.457 0.047 0.375 0 0.504-0.14 0.504-0.363v-0.539c0.41 0.563 1.102 0.961 1.946 0.961 1.418 0 2.707-1.09 2.707-2.918" fill="#002a91"/></g><g transform="translate(959.99 93.786)" clip-path="url(#clipPath22769-4-5)"><path d="m0 0h3.457c-0.035 0.961-0.656 1.711-1.652 1.711-0.868 0-1.653-0.598-1.805-1.711m4.359-0.75h-4.359c0.129-1.09 0.879-1.699 1.992-1.699 0.481 0 0.856 0.094 1.207 0.211 0.246 0.082 0.352 0.117 0.446 0.117 0.269 0 0.445-0.223 0.398-0.738-0.504-0.223-1.277-0.469-2.086-0.469-1.758 0-2.941 1.183-2.941 2.941 0 1.688 1.254 2.907 2.789 2.907 1.734 0 2.59-1.348 2.59-2.707 0-0.165-0.012-0.364-0.036-0.563" fill="#002a91"/></g><g transform="translate(967.1 90.599)" clip-path="url(#clipPath22765-7-1)"><path d="m0 0-2.402 5.496c0.14 0.082 0.41 0.152 0.632 0.152 0.293 0 0.434-0.082 0.54-0.339l0.972-2.391 0.82-1.992h0.012l0.821 1.992 0.972 2.391c0.106 0.246 0.235 0.339 0.528 0.339 0.21 0 0.468-0.07 0.621-0.152l-2.274-5.18c-0.14-0.316-0.269-0.398-0.656-0.398-0.176 0-0.387 0.035-0.586 0.082" fill="#002a91"/></g><g transform="translate(971.88 93.786)" clip-path="url(#clipPath22761-9-4)"><path d="m0 0h3.457c-0.035 0.961-0.656 1.711-1.652 1.711-0.868 0-1.653-0.598-1.805-1.711m4.359-0.75h-4.359c0.129-1.09 0.879-1.699 1.992-1.699 0.481 0 0.856 0.094 1.207 0.211 0.246 0.082 0.352 0.117 0.445 0.117 0.27 0 0.446-0.223 0.399-0.738-0.504-0.223-1.277-0.469-2.086-0.469-1.758 0-2.941 1.183-2.941 2.941 0 1.688 1.253 2.907 2.789 2.907 1.734 0 2.589-1.348 2.589-2.707 0-0.165-0.011-0.364-0.035-0.563" fill="#002a91"/></g><g transform="translate(982.41 93.915)" clip-path="url(#clipPath22757-1-3)"><path d="m0 0v-3.035c0-0.223-0.129-0.363-0.516-0.363-0.164 0-0.351 0.023-0.445 0.046v3.223c0 1.125-0.551 1.664-1.383 1.664-0.644 0-1.347-0.445-1.629-0.973v-3.597c0-0.223-0.129-0.363-0.515-0.363-0.164 0-0.352 0.023-0.446 0.046v5.637c0.094 0.024 0.282 0.047 0.446 0.047 0.386 0 0.515-0.141 0.515-0.363v-0.481c0.411 0.504 1.032 0.903 1.864 0.903 1.148 0 2.109-0.727 2.109-2.391" fill="#002a91"/></g><g transform="translate(987.23 90.845)" clip-path="url(#clipPath22753-5-9)"><path d="m0 0c-0.492-0.234-1.055-0.387-1.617-0.387-1.113 0-1.781 0.657-1.781 1.746v4.84c0 0.246 0.14 0.41 0.515 0.41 0.164 0 0.352-0.035 0.446-0.058v-1.219h2.191c0.012-0.082 0.035-0.246 0.035-0.387 0-0.34-0.141-0.457-0.351-0.457h-1.875v-3.058c0-0.657 0.304-0.973 0.925-0.973 0.563 0 0.879 0.246 1.149 0.246 0.281 0 0.422-0.234 0.363-0.703" fill="#002a91"/></g></g><g transform="matrix(1.0885 0 0 1.0885 277.18 2373.8)" stroke-width=".40209"><path d="m11353-1698.1v74.251c0 3.2563-1.649 5.0653-6.714 5.0653-2.291 0-4.422-0.3216-6.071-0.6432v-34.171h-42.371v29.789c0 3.2563-1.649 5.0653-6.714 5.0653-2.452 0-4.904-0.3216-6.07-0.6432v-74.292c0-3.1357 1.648-5.0653 6.874-5.0653 2.292 0 4.543 0.3216 5.869 0.6432v33.045h42.172v-28.623c0-3.1357 1.809-5.0653 7.035-5.0653 2.412 0 4.663 0.3216 5.99 0.6432" stop-color="#000000" style="font-variation-settings:normal"/><path d="m11440-1658.9c0 22.271-15.558 39.116-39.919 39.116h-22.714c-4.905 0-6.714-1.9699-6.714-5.0654v-67.899c0-3.0955 1.809-5.0654 6.714-5.0654h22.714c24.361 0 39.919 16.683 39.919 38.915m-12.944 0c0-16.683-10.453-27.498-26.975-27.498h-16.684v55.116h16.684c16.522 0.04 26.975-10.774 26.975-27.618" stop-color="#000000" style="font-variation-settings:normal"/></g><path d="m12532 632.32c-1.295 0-2.293-1.0354-2.293-2.2926v-123.75c0-1.2757 1.109-2.2926 2.293-2.2926 1.294 0 2.292 1.0169 2.292 2.2926v123.75c0 1.2572-1.109 2.2926-2.292 2.2926"/></g></svg>
