<svg width="1340" height="820" version="1.1" viewBox="0 0 354.54 216.96" xmlns="http://www.w3.org/2000/svg">
 <path d="m-7.3425e-4 0h354.54v216.96h-354.54z" fill="#fff" style="paint-order:stroke fill markers"/>
 <path d="m-7.4105e-4 105.83h354.54v111.13h-354.54z" fill="#0070b8" style="paint-order:stroke fill markers"/>
 <path d="m148.27 64.721c0 8.9731-5.865 15.531-17.77 16.828-8.6278 0.9248-21.118-0.1666-27.047-0.8497-0.2208-0.9682-0.3919-2.1734-0.3919-3.1208 0-7.8548 4.2438-9.6455 8.2142-9.6455 4.1252 0 10.627 0.7149 15.465 0.7149 5.311 0 6.9345-1.807 6.9345-3.5235 0-2.2539-2.1478-3.1902-6.2739-3.9812l-11.294-2.1734c-9.4023-1.8024-14.418-8.3116-14.418-15.217 0-8.3952 5.9377-15.424 17.614-16.717 8.8298-0.9558 19.573 0.1231 25.47 0.8466 0.2175 1.0146 0.3299 1.972 0.3299 3.0263 0 7.8282-4.1252 9.5168-8.1008 9.5168-3.0563 0-7.7941-0.5724-13.203-0.5724-5.5094 0-7.7941 1.525-7.7941 3.3831 0 1.9557 2.1765 2.7674 5.6257 3.3707l10.796 2.0045c11.091 2.0464 15.843 8.3511 15.843 16.109m19.377 9.6346c0 4.8152-1.8899 7.5904-11.276 7.5904-1.2439 0-2.3329-0.092-3.3754-0.2417v-63.858c0-4.8494 1.6475-9.9087 11.132-9.9087 1.1936 0 2.398 0.123 3.5188 0.3571v66.06m38.382 24.704c1.2292 0.6289 3.7605 1.3934 6.943 1.4794 5.4449 0.1178 8.4232-1.9751 10.628-6.8594l29.254-65.303c-1.206-0.6506-3.8759-1.3717-6.0684-1.4228-3.7581-0.07-8.805 0.7025-12.036 8.4052l-9.4727 22.377-18.578-30.286c-1.1982-0.3679-4.1228-0.8954-6.273-0.8954-6.548 0-10.219 2.4204-14.023 6.5494l-18.062 19.771 14.528 22.885c2.6846 4.1694 6.2242 6.2948 11.971 6.2948 3.7572 0 6.8856-0.8559 8.3349-1.5498l-17.492-26.398 12.396-13.146 20.339 31.944-12.388 26.156" fill="#2c73c3" stroke-width="2.9438"/>
 <g transform="matrix(.13041 0 0 .13041 -145.1 276.28)" fill="#fff">
  <path d="m1972.9-881.99c0-92.38 68.45-160.83 159.72-160.83 91.823 0 159.72 69.007 159.72 160.83 0 92.936-68.45 161.94-159.72 161.94-91.267 0-159.72-69.007-159.72-161.94m268.24 0c0-71.233-48.973-116.31-108.52-116.31-59.546 0-108.52 45.077-108.52 116.31 0 72.346 48.972 117.42 108.52 117.42 59.546 0 108.52-45.077 108.52-117.42" stroke-width="5.5651"/>
  <g transform="matrix(6.0673,0,0,6.0673,-1238.2,-1254.4)">
   <path d="m591.2 87.8v-51.7c0.9-0.2 2.6-0.4 4.2-0.4 3.4 0 4.4 1.4 4.4 3.5v3.8c4-4.4 9.9-7.9 17.5-7.9 10.6 0 19.4 6.7 19.4 22.1v27.7c0 2.1-1.2 3.4-4.8 3.4-1.5 0-3.2-0.2-4.1-0.4v-29.6c0-10.4-5.1-15.4-12.8-15.4-6.1 0-12.5 4.1-15.2 9v32.9c0 2.1-1.1 3.4-4.7 3.4-1.3 0-3-0.2-3.9-0.4z" fill="#fff"/>
  </g>
  <g transform="matrix(5.986,0,0,5.986,-1199.8,-1252.8)">
   <path d="m696.4 65.5h-40.1c1.4 9.8 8.2 15.6 18.5 15.6 4.3 0 7.8-1.1 11.1-2.2 2.2-0.8 3.4-1.1 4.2-1.1 2.3 0 3.9 2.2 3.4 6.8-4.5 2.1-11.7 4.3-19.2 4.3-16 0-27.2-11.1-27.2-27.3 0-15.4 11.1-26.6 25.8-26.6 16 0 23.9 12.6 23.9 25 0 1.7-0.1 3.5-0.4 5.5m-40.2-7.3h31.8c-0.3-8.8-6-15.6-15.1-15.6-8.2 0-15.4 5.4-16.7 15.6" fill="#fff"/>
  </g>
 </g>
</svg>
