<svg width="850" height="850" enable-background="new 0 0 2362.9 500" version="1.1" viewBox="0 0 850 850" xml:space="preserve" xmlns="http://www.w3.org/2000/svg"><defs><linearGradient id="paint0_linear-8" x1="68.442" x2="68.442" y2="42.852" gradientTransform="matrix(9.9178 0 0 9.9178 -792.96 425)" gradientUnits="userSpaceOnUse"><stop stop-color="#E90E10" offset=".4"/><stop stop-color="#BC0000" offset="1"/></linearGradient><linearGradient id="linearGradient3625" x1="365.41" x2="359.57" y1="1091.1" y2="923.62" gradientTransform="translate(0,-828.02)" gradientUnits="userSpaceOnUse"><stop stop-color="#fff" offset="0"/><stop stop-color="#fff" stop-opacity=".8347" offset=".1203"/><stop stop-color="#fff" stop-opacity=".6576" offset=".2693"/><stop stop-color="#fff" stop-opacity=".5107" offset=".4195"/><stop stop-color="#fff" stop-opacity=".3965" offset=".5684"/><stop stop-color="#fff" stop-opacity=".3152" offset=".7156"/><stop stop-color="#fff" stop-opacity=".2664" offset=".8603"/><stop stop-color="#fff" stop-opacity=".25" offset="1"/></linearGradient><linearGradient id="linearGradient3629" x1="1279.6" x2="1273" y1="1197.7" y2="1016.9" gradientTransform="matrix(1.2293 0 0 1.2293 -1171.2 -836.26)" gradientUnits="userSpaceOnUse"><stop stop-color="#fff" offset="0"/><stop stop-color="#fff" stop-opacity=".8347" offset=".1203"/><stop stop-color="#fff" stop-opacity=".6576" offset=".2693"/><stop stop-color="#fff" stop-opacity=".5107" offset=".4195"/><stop stop-color="#fff" stop-opacity=".3965" offset=".5684"/><stop stop-color="#fff" stop-opacity=".3152" offset=".7156"/><stop stop-color="#fff" stop-opacity=".2664" offset=".8603"/><stop stop-color="#fff" stop-opacity=".25" offset="1"/></linearGradient></defs>
<path d="m1.1258e-4 425h850v425h-850z" fill="url(#paint0_linear-8)" stop-color="#000000" stroke-width="9.9178" style="-inkscape-stroke:none;font-variation-settings:normal"/><rect y="-.00024619" width="850" height="425" fill="#fff" stop-color="#000000" stroke-width="1.552"/><g transform="matrix(.70052 0 0 .70052 171.41 49.825)"><path d="m84.4 120.2c-55.9 6.1-84.4 39.7-84.4 79.8 0 33 24 64.1 69 72.7l54.2 10.4c19.8 3.8 30 8.2 30 19 0 8.2-7.7 16.9-33.2 16.9-23.1 0-54.2-3.5-74-3.5-19 0-39.2 8.6-39.2 46 0 4.6 0.8 10.4 1.8 15 28.5 3.3 88.2 8.5 129.6 4 57.1-6.1 85.2-37.5 85.2-80.4 0-37-22.9-67.1-75.9-76.9l-51.7-9.6c-16.6-2.9-26.9-6.7-26.9-16.1 0-8.9 10.9-16.1 37.3-16.1 25.9 0 48.7 2.7 63.2 2.7 19 0 38.8-8.1 38.8-45.5 0-5-0.6-9.6-1.6-14.4-20.3-2.5-52.6-5.8-84.8-5.8-12.8-0.1-25.5 0.49999-37.4 1.8m321.4 28.9-86.5 94.4 69.5 109.4c12.9 20 29.8 30.1 57.3 30.1 18 0 33-4.2 40-7.5l-83.8-126 59.4-62.9 97.4 152.7-59.4 125c6 3 18 6.7 33.2 7 26.2 0.6 40.3-9.4 51-32.8l140.1-312c-5.8-3.1-18.7-6.6-29-6.7-18-0.4-42.3 3.2-57.7 40.1l-45.3 106.9-89-144.6c-5.8-1.8-19.8-4.2-30-4.2-31.5-0.1-49 11.4-67.2 31.1m-160-72.8v305c5 0.8 10.2 1.1 16.1 1.1 45 0 54-13.2 54-36.2v-315.6c-5.4-1.1-11.1-1.8-16.9-1.8-45.4 0.1-53.2 24.2-53.2 47.5" fill="#1c1c1c" stop-color="#000000" style="font-variation-settings:normal"/><path d="m0 200c0-40.1 28.5-73.7 84.4-79.8 11.9-1.3 24.6-1.9 37.2-1.6 32.2 0 64.5 3.3 84.8 5.8 1 4.8 1.6 9.4 1.6 14.4 0 37.4-19.8 45.5-38.8 45.5-14.5 0-37.3-2.7-63.2-2.7-26.4 0-37.3 7.2-37.3 16.1 0 9.4 10.3 13.2 26.9 16.1l51.7 9.6c53 9.8 75.9 39.9 75.9 76.9 0 2.7-0.1 5.3-0.3 7.8v0.69999h-0.1c1.1-19.7-11.4-39.3-34.4-38.5-9.9 0.3-55.6 1.9-61.7 2.1-19.7 0.8-46.3-1-57.8-3-13.9-2.4-27.9-5.9-41.5-14.8-18-14.2-27.4-34-27.4-54.6zm263.1 67.8c7.5-0.2 28.8-1 35.1-1.2 6.9-0.2 17.6-5 17.8-17.9v-218c-0.2 0-0.3-0.1-0.5-0.1h-35.3c-28.9 5.9-34.5 26.1-34.5 45.7v209.1c0.1-8.4 6.6-17.3 17.4-17.6zm238.6-18.7c7.2 9.4 18.1 9.6 20.4 9.5 2.1 0 54.3-1.9 56.7-2 3.7-0.1 7.8 1.9 11 6.4l-86.8-140.9c-5.8-1.8-19.8-4.2-30-4.2-31.5 0-49 11.5-67.2 31.2l-86.5 94.4 6.9 10.9c2.9 4 8.9 10.8 20.5 10.3 4.1-0.1 45.9-1.6 49.3-1.7 10.8-0.4 17.6 4.2 21.8 9.7l-15.4-23.2 59.4-62.9zm222.2-122.6c-5.8-3.1-18.7-6.6-28.9-6.7-0.8-0.1-1.5-0.1-2.2-0.1-17.8 0.1-40.7 4.9-55.5 40.2l-44.2 104.3c0.1-0.1 2.9-8.1 11.5-8.5 0 0 43.5-1.5 46.8-1.6 14.2-0.49999 19.9-10.3 21.3-13.4l51.2-114.1z" enable-background="new    " fill="url(#linearGradient3625)" opacity=".35"/></g><g transform="matrix(1.4183 0 0 1.4183 1794.2 -6569.3)" fill="#fff" stroke-width="4.5158"><path d="m-1091.5 5072.7v49.183c0 3.5476-2.0962 5.9662-8.3853 5.9662-2.5799 0-5.6438-0.3224-7.2564-0.8061v-52.247c0-18.222-8.8694-26.93-22.415-26.93-10.482 0-21.77 7.2568-26.446 15.803v58.375c0 3.5476-2.0962 5.9667-8.3853 5.9667-2.5803 0-5.6443-0.3228-7.2568-0.8065v-91.594c1.4514-0.3224 4.5153-0.8065 7.2568-0.8065 6.2891 0 8.3853 2.2579 8.3853 5.9667v7.7405c6.6115-8.2241 16.771-14.674 30.155-14.674 18.706 0 34.348 11.772 34.348 38.863z"/><path d="m-1057 5086.9h70.631c0.4832-3.2252 0.6458-6.4503 0.3251-9.1914 0-22.092-13.868-43.862-41.929-43.862-24.832 0-45.152 19.673-45.152 47.087 0 28.542 19.191 47.732 47.73 47.732 13.227 0 25.641-4.0317 33.864-7.5793 0.8083-8.3853-2.0953-11.933-6.4485-11.933-1.3186 0-2.6327 0.4299-5.2654 1.2902-0.5915 0.1933-1.2509 0.4082-1.9915 0.6449-5.6447 1.9349-11.773 3.3864-19.513 3.3864-18.059 0-30.156-9.8368-32.252-27.575zm56.117-12.094h-56.117c2.4204-18.061 15.159-27.736 29.348-27.736 16.126 0 26.124 12.094 26.769 27.736z" clip-rule="evenodd" fill-rule="evenodd"/><path d="m-842.49 5037-24.186 84.015c-1.4496 5.3218-5.4821 6.6115-11.289 6.6115-3.2243 0-6.4485-0.6448-9.1896-1.2897l-23.062-73.856-21.608 68.534c-1.7747 5.3218-5.9653 6.6115-10.964 6.6115-3.2243 0-6.7737-0.6449-9.5147-1.2897l-25.803-89.337c2.2579-1.1289 6.453-2.2574 9.8399-2.2574 4.3532 0 6.6111 1.2897 7.74 5.4826l18.221 70.147h0.1626l22.574-73.372c2.5785-1.4514 6.1279-2.2574 9.6773-2.2574 5.9653 0 9.1896 1.2897 10.802 6.7727l20.967 68.696h0.158l17.738-70.147c1.1289-4.1929 3.3868-5.483 7.74-5.483 3.87 0.1617 7.74 1.2902 9.9979 2.4191z"/><path d="m-832.17 5122.3c-1.129-7.9017 1.2915-12.094 5.9653-12.094 4.3532 0 14.997 4.6765 29.831 4.6765 15.643 0 21.45-5.483 21.45-12.739 0-5.1602-2.2579-9.6755-16.288-13.546l-16.126-4.3536c-17.901-4.6765-24.832-13.707-24.832-24.672 0-13.707 10.802-25.801 35.313-25.801 10.969 0 24.674 2.4186 33.06 5.6438 1.4496 7.7405-0.9664 11.933-5.6447 11.933-4.1906 0-13.705-4.0317-27.09-4.0317-14.514 0-19.838 4.999-19.838 11.449 0 4.5153 2.0998 8.7078 14.997 12.417l16.451 4.5153c18.384 5.1602 25.799 13.707 25.799 25.801 0 14.191-10.964 26.93-37.571 26.93-11.935 0.1612-26.607-2.7415-35.476-6.1279z"/></g><path d="m850 538.85v-113.85h-850v300.95c0-3.9802 1.3286-33.663 21.516-37.913 1.3719-0.2694 806.17-112.29 806.17-112.29 11.378-2.4286 22.312-14.504 22.312-36.901z" fill="url(#linearGradient3629)" opacity=".3" stop-color="#000000" style="font-variation-settings:normal"/></svg>
