<svg id="j" version="1.1" viewBox="0 0 719.65 173.51" xmlns="http://www.w3.org/2000/svg" xmlns:xlink="http://www.w3.org/1999/xlink">
 <defs id="k">
  <style id="l">.cls-1{fill:url(#i);}.cls-2{fill:#a1a2a2;}.cls-3{fill:url(#h);}.cls-4{fill:#fff;}.cls-5{fill:#ae2c3f;}.cls-6{opacity:0.4;}</style>
  <linearGradient id="i" x1="-3667.1" x2="-3667.1" y1="2.33" y2="106.34" gradientTransform="matrix(-1 0 0 1 -3382.4 0)" gradientUnits="userSpaceOnUse">
   <stop id="m" stop-color="#868685" offset="0"/>
   <stop id="n" stop-color="#d8d9d9" offset=".02"/>
   <stop id="o" stop-color="#f5f5f5" offset=".05"/>
   <stop id="p" stop-color="#edeeee" offset=".49"/>
   <stop id="q" stop-color="#f5f5f5" offset=".9"/>
   <stop id="r" stop-color="#ebebec" offset=".93"/>
   <stop id="s" stop-color="#d8d9d9" offset=".96"/>
   <stop id="t" stop-color="#868685" offset="1"/>
  </linearGradient>
  <linearGradient id="h" x1="378.87" x2="378.87" y1="105.52" y2="3.22" gradientUnits="userSpaceOnUse">
   <stop id="u" stop-color="#820021" offset="0"/>
   <stop id="v" stop-color="#ae2c3f" offset=".1"/>
   <stop id="w" stop-color="#ae2c3f" offset=".9"/>
   <stop id="x" stop-color="#ba3c4c" offset="1"/>
  </linearGradient>
  <clipPath id="g">
   <path id="y" d="m37.579 334.08h44.204v10.778h-44.204z"/>
  </clipPath>
  <linearGradient id="d" x2="1" gradientTransform="matrix(0 -6.3946 6.3946 0 59.681 344.69)" gradientUnits="userSpaceOnUse">
   <stop id="z" stop-color="#888685" offset="0"/>
   <stop id="aa" stop-color="#d9d9da" offset=".020448"/>
   <stop id="ab" stop-color="#f5f5f6" offset=".052404"/>
   <stop id="ac" stop-color="#eeefef" offset=".48766"/>
   <stop id="ad" stop-color="#f5f5f6" offset=".89549"/>
   <stop id="ae" stop-color="#ebebec" offset=".92944"/>
   <stop id="af" stop-color="#d9d9da" offset=".96426"/>
   <stop id="ag" stop-color="#888685" offset="1"/>
  </linearGradient>
  <linearGradient id="c" x2="1" gradientTransform="matrix(0 6.2891 6.2891 0 60.839 338.35)" gradientUnits="userSpaceOnUse">
   <stop id="ah" stop-color="#810a32" offset="0"/>
   <stop id="ai" stop-color="#a90e3a" offset=".10441"/>
   <stop id="aj" stop-color="#a90e3a" offset=".89813"/>
   <stop id="ak" stop-color="#b94556" offset=".99967"/>
   <stop id="al" stop-color="#b94556" offset="1"/>
  </linearGradient>
  <clipPath id="f">
   <path id="am" d="m40.879 353.24s-4.584 0-4.584-4.584v-15.278s0-4.584 4.584-4.584h37.605s4.583 0 4.583 4.584v15.278s0 4.584-4.583 4.584z"/>
  </clipPath>
  <linearGradient id="a" x2="1" gradientTransform="matrix(0 -6.3946 6.3946 0 59.681 344.69)" gradientUnits="userSpaceOnUse">
   <stop id="an" stop-color="#b4b2b1" offset="0"/>
   <stop id="ao" stop-color="#e8e8e9" offset=".020448"/>
   <stop id="ap" stop-color="#f9f9fa" offset=".052404"/>
   <stop id="aq" stop-color="#f5f5f5" offset=".48766"/>
   <stop id="ar" stop-color="#f9f9fa" offset=".89549"/>
   <stop id="as" stop-color="#f4f3f4" offset=".92944"/>
   <stop id="at" stop-color="#e8e8e9" offset=".96426"/>
   <stop id="au" stop-color="#b4b2b1" offset="1"/>
  </linearGradient>
  <linearGradient id="b" x2="1" gradientTransform="matrix(0 6.2891 6.2891 0 60.839 338.35)" gradientUnits="userSpaceOnUse">
   <stop id="av" stop-color="#af6773" offset="0"/>
   <stop id="aw" stop-color="#c9747a" offset=".10441"/>
   <stop id="ax" stop-color="#c9747a" offset=".89813"/>
   <stop id="ay" stop-color="#d49093" offset=".99967"/>
   <stop id="az" stop-color="#d49093" offset="1"/>
  </linearGradient>
  <clipPath id="e">
   <path id="ba" d="m40.879 353.24s-4.584 0-4.584-4.584v-15.278s0-4.584 4.584-4.584h37.605s4.583 0 4.583 4.584v15.278s0 4.584-4.583 4.584z"/>
  </clipPath>
 </defs>
 <g id="bb" transform="matrix(16.28 0 0 -16.28 -611.79 5614.3)">
  <g id="bc">
   <g id="bd" clip-path="url(#g)">
    <g id="be" transform="translate(80.823 338.17)">
     <path id="bf" d="m0 0c0.736 0 0.961 0.458 0.961 0.915v4.855c0 0.457-0.225 0.915-0.961 0.915h-42.283c-0.736 0-0.961-0.458-0.961-0.915v-4.855c0-0.457 0.225-0.915 0.961-0.915h42.283m-42.249 0.061c-0.496 0-0.831 0.293-0.831 0.78v5.003c0 0.487 0.335 0.779 0.831 0.779h42.215c0.496 0 0.831-0.292 0.831-0.779v-5.003c0-0.487-0.335-0.78-0.831-0.78h-42.215" fill="#a2a2a3"/>
    </g>
   </g>
  </g>
  <g id="bg">
   <g id="bh">
    <g id="bi">
     <path id="bj" d="m38.498 344.64c-0.495 0-0.672-0.293-0.672-0.779v-4.73c0-0.487 0.177-0.779 0.672-0.779h10.904v3.545c-0.65-0.052-1.282-0.107-1.895-0.166l-1.156-2.577c-0.129-0.285-0.302-0.412-0.612-0.412h-0.025c-0.192 6e-3 -0.344 0.052-0.418 0.089l0.744 1.569-0.697 1.095c-0.394-0.048-0.777-0.098-1.147-0.15l0.929-1.4c-0.087-0.043-0.274-0.094-0.5-0.094-0.345 0-0.558 0.128-0.719 0.378l-0.622 0.98c-0.098-0.016-0.197-0.031-0.292-0.047v-0.848c0-0.289-0.113-0.456-0.677-0.456-0.074 0-0.14 6e-3 -0.202 0.015v1.134c-0.097-0.018-0.193-0.037-0.286-0.056 1e-3 -0.02 1e-3 -0.04 1e-3 -0.06 0-0.538-0.351-0.931-1.066-1.009-0.142-0.016-0.302-0.022-0.466-0.022-0.434 0-0.9 0.043-1.158 0.073-0.013 0.058-0.024 0.13-0.024 0.187 0 0.028 1e-3 0.055 3e-3 0.081-0.286-0.121-0.517-0.247-0.685-0.377-0.472-0.391-0.485-0.821-0.501-0.908-0.041 0-0.056 0.186-0.056 0.464l1e-3 4.465c0 0.517 0.168 0.692 0.606 0.692 0.149 0 0.297-0.08 0.495-0.08h10.425v0.181h22.873v-0.181h8.111c0.198 0 0.346 0.08 0.494 0.08 0.439 0 0.607-0.175 0.607-0.692l2e-3 -4.465c0-0.278-0.016-0.464-0.058-0.464-0.015 0.087-0.073 0.486-0.499 0.908-0.236 0.221-0.575 0.425-1.005 0.614-0.324-0.363-0.84-0.575-1.505-0.575h-0.802c-0.385 0-0.477 0.207-0.477 0.462v0.921c-0.152 0.031-0.308 0.06-0.467 0.09v-1.084c0-0.239-0.096-0.392-0.593-0.392-0.061 0-0.114 5e-3 -0.174 0.014v1.323h-1.547v-0.945c0-0.239-0.097-0.392-0.594-0.392-0.061 0-0.113 5e-3 -0.175 0.014v1.908c-0.427 0.047-0.868 0.092-1.318 0.134v-3.564h8.589c0.495 0 0.672 0.292 0.672 0.779v4.73c0 0.486-0.177 0.779-0.672 0.779zm7.775-3.037 0.179-0.292 0.138 0.327c-0.106-0.011-0.213-0.023-0.317-0.035m31.639-1.029h0.555c0.278 0 0.493 0.064 0.654 0.168-0.364 0.119-0.769 0.23-1.209 0.335zm-37.395 0.082h0.019c0.194 0 0.306 0.04 0.364 0.095-0.132-0.031-0.259-0.063-0.383-0.095" fill="url(#d)"/>
    </g>
   </g>
  </g>
  <g id="bk">
   <g id="bl">
    <g id="bm">
     <path id="bn" d="m49.402 344.45h22.874v0.181h-22.874zm11.362-2.111v-0.466h1.384c7e-3 -0.04 0.015-0.091 0.023-0.157 8e-3 -0.065 0.012-0.134 0.012-0.209 0-0.158-0.032-0.265-0.095-0.322s-0.141-0.085-0.235-0.085h-1.089v-0.668h1.578c7e-3 -0.043 0.015-0.103 0.024-0.18 8e-3 -0.077 0.011-0.152 0.011-0.227 0-0.169-0.033-0.288-0.1-0.355-0.067-0.066-0.151-0.1-0.254-0.1h-1.69c-0.11 0-0.199 0.012-0.268 0.036-0.068 0.023-0.121 0.055-0.158 0.097-0.038 0.041-0.063 0.092-0.078 0.15-0.013 0.06-0.02 0.122-0.02 0.189v2.291c-0.228-3e-3 -0.457-6e-3 -0.685-9e-3v-2.707c-0.055-0.028-0.122-0.046-0.201-0.056-0.078-9e-3 -0.155-0.015-0.23-0.015-0.184 0-0.322 0.026-0.412 0.078-0.09 0.05-0.164 0.121-0.224 0.212l-1.431 2.29v-2.19c0-0.11-0.033-0.203-0.1-0.277-0.066-0.075-0.192-0.113-0.377-0.113-0.078 0-0.155 5e-3 -0.229 0.012-0.075 8e-3 -0.138 0.018-0.188 0.03v2.654c-0.231-8e-3 -0.459-0.017-0.687-0.026v-2.256c0-0.114-0.035-0.212-0.106-0.292-0.071-0.081-0.205-0.122-0.401-0.122-0.082 0-0.164 5e-3 -0.244 0.012-0.081 8e-3 -0.148 0.018-0.203 0.03v2.588c-0.812-0.036-1.61-0.078-2.393-0.126-0.022-0.04-0.041-0.081-0.058-0.124-0.051-0.13-0.076-0.276-0.076-0.437 0-0.169 0.025-0.321 0.076-0.454 0.051-0.134 0.121-0.248 0.209-0.34s0.193-0.163 0.315-0.213c0.122-0.049 0.252-0.074 0.389-0.074 0.086 0 0.163 7e-3 0.23 0.018 0.067 0.012 0.126 0.024 0.179 0.035 0.053 0.012 0.104 0.024 0.151 0.036 0.046 0.012 0.096 0.018 0.147 0.018 0.286 0 0.414-0.262 0.383-0.785-0.161-0.068-0.341-0.123-0.539-0.166s-0.398-0.065-0.598-0.065c-0.279 0-0.536 0.051-0.771 0.151-0.236 0.1-0.44 0.239-0.613 0.416s-0.309 0.387-0.407 0.632c-0.098 0.244-0.147 0.508-0.147 0.791 0 0.17 0.019 0.334 0.056 0.491-0.413-0.029-0.82-0.059-1.222-0.09v-3.548h22.873v3.567c-0.654 0.06-1.329 0.113-2.026 0.161l0.776-2.453c-0.066-0.028-0.147-0.048-0.242-0.062-0.093-0.013-0.186-0.021-0.276-0.021-0.103 0-0.202 0.018-0.298 0.051s-0.166 0.109-0.209 0.228l-0.201 0.607h-1.284l-0.17-0.572c-0.043-0.138-0.116-0.224-0.218-0.26s-0.209-0.054-0.324-0.054c-0.074 0-0.16 8e-3 -0.256 0.021-0.096 0.014-0.176 0.033-0.239 0.056l0.843 2.579c-0.435 0.021-0.874 0.04-1.319 0.056l0.243-2.611c-0.055-0.019-0.12-0.039-0.197-0.059-0.076-0.02-0.16-0.03-0.25-0.03-0.126 0-0.232 0.022-0.318 0.065-0.087 0.044-0.134 0.124-0.142 0.242l-0.088 1.276c-0.02 0.224-0.036 0.459-0.05 0.706-9e-3 0.151-0.015 0.297-0.02 0.439-0.027 0-0.054 1e-3 -0.081 2e-3 -0.031-0.13-0.062-0.265-0.093-0.406-0.053-0.239-0.107-0.457-0.162-0.659l-0.242-1.003c-0.059-0.236-0.245-0.355-0.559-0.355-0.079 0-0.159 8e-3 -0.242 0.024-0.082 0.016-0.153 0.034-0.212 0.053l-0.3 1.252c-0.059 0.233-0.115 0.46-0.165 0.685-0.035 0.151-0.067 0.304-0.098 0.456-0.024 1e-3 -0.046 1e-3 -0.07 1e-3 -0.01-0.232-0.024-0.449-0.038-0.648-0.02-0.262-0.038-0.488-0.053-0.677l-0.095-1.151c-8e-3 -0.115-0.051-0.193-0.129-0.237-0.079-0.043-0.181-0.065-0.306-0.065-0.091 0-0.17 9e-3 -0.239 0.027s-0.128 0.038-0.18 0.062l0.265 2.698c-0.512 5e-3 -1.026 8e-3 -1.542 8e-3 -0.235 0-0.471 0-0.705-2e-3m3.879-0.141c0.044-0.198 0.089-0.414 0.138-0.653 0.05-0.238 0.094-0.483 0.133-0.735h0.024c0.043 0.252 0.088 0.496 0.135 0.732s0.096 0.453 0.146 0.65l0.026 0.103c-0.207 5e-3 -0.416 0.01-0.626 0.014zm-7.212 0.093 0.827-1.304v1.322c-0.276-5e-3 -0.552-0.011-0.827-0.018m11.291-1.133h0.881l-0.295 0.971c-0.094 6e-3 -0.189 0.011-0.284 0.016z" fill="url(#c)"/>
    </g>
   </g>
  </g>
  <g id="bo">
   <g id="bp" clip-path="url(#f)">
    <g id="bq" transform="translate(52.506 339.5)">
     <path id="br" d="m0 0c-0.279 0-0.536 0.05-0.772 0.151-0.235 0.1-0.439 0.239-0.612 0.416s-0.308 0.387-0.407 0.632c-0.098 0.244-0.147 0.507-0.147 0.791 0 0.275 0.049 0.533 0.147 0.773 0.099 0.24 0.234 0.449 0.407 0.626s0.377 0.316 0.612 0.417c0.236 0.1 0.493 0.15 0.772 0.15 0.2 0 0.395-0.022 0.583-0.065 0.189-0.043 0.363-0.098 0.524-0.165 0.036-0.524-0.092-0.786-0.383-0.786-0.051 0-0.098 6e-3 -0.141 0.018s-0.09 0.024-0.141 0.036c-0.051 0.011-0.108 0.023-0.171 0.035s-0.138 0.018-0.224 0.018c-0.137 0-0.267-0.025-0.389-0.074-0.121-0.049-0.226-0.12-0.315-0.213-0.088-0.092-0.158-0.203-0.209-0.333s-0.076-0.276-0.076-0.437c0-0.17 0.025-0.321 0.076-0.455s0.121-0.247 0.209-0.339c0.089-0.093 0.194-0.164 0.315-0.213 0.122-0.049 0.252-0.074 0.389-0.074 0.086 0 0.163 6e-3 0.23 0.018s0.126 0.024 0.179 0.035c0.053 0.012 0.103 0.024 0.151 0.036 0.047 0.012 0.096 0.018 0.147 0.018 0.286 0 0.414-0.262 0.383-0.786-0.161-0.067-0.341-0.122-0.539-0.165-0.199-0.043-0.398-0.065-0.598-0.065" fill="#fff"/>
    </g>
    <g id="bs" transform="translate(54.538 339.55)">
     <path id="bt" d="m0 0c-0.082 0-0.164 4e-3 -0.244 0.012-0.081 8e-3 -0.149 0.018-0.204 0.029v3.419c0 0.114 0.036 0.212 0.106 0.292 0.071 0.081 0.205 0.122 0.401 0.122 0.082 0 0.164-4e-3 0.244-0.012 0.081-8e-3 0.149-0.018 0.204-0.03v-3.419c0-0.114-0.036-0.211-0.106-0.292-0.071-0.081-0.205-0.121-0.401-0.121" fill="#fff"/>
    </g>
    <g id="bu" transform="translate(56.149 339.55)">
     <path id="bv" d="m0 0c-0.079 0-0.155 4e-3 -0.23 0.012-0.074 8e-3 -0.137 0.018-0.188 0.029v3.762c0.059 0.019 0.135 0.036 0.23 0.05 0.094 0.014 0.174 0.021 0.241 0.021 0.216 0 0.373-0.028 0.471-0.083s0.181-0.136 0.248-0.242l1.337-2.108v2.055c0 0.051 6e-3 0.099 0.02 0.144s0.037 0.086 0.071 0.121c0.033 0.036 0.079 0.063 0.138 0.083s0.134 0.03 0.224 0.03c0.079 0 0.154-4e-3 0.227-0.012 0.072-8e-3 0.134-0.016 0.185-0.024v-3.767c-0.055-0.028-0.121-0.046-0.2-0.056-0.078-0.01-0.155-0.015-0.23-0.015-0.184 0-0.322 0.026-0.412 0.077s-0.165 0.122-0.224 0.212l-1.431 2.291v-2.19c0-0.111-0.033-0.203-0.1-0.278s-0.193-0.112-0.377-0.112" fill="#fff"/>
    </g>
    <g id="bw" transform="translate(60.333 339.57)">
     <path id="bx" d="m0 0c-0.11 0-0.199 0.012-0.268 0.035-0.069 0.024-0.122 0.056-0.159 0.098-0.037 0.041-0.063 0.091-0.077 0.15-0.013 0.059-0.02 0.122-0.02 0.189v2.894c0 0.067 7e-3 0.13 0.02 0.189 0.014 0.059 0.04 0.109 0.077 0.15 0.037 0.042 0.09 0.074 0.159 0.098 0.069 0.023 0.158 0.035 0.268 0.035h1.949c8e-3 -0.043 0.016-0.102 0.024-0.177s0.012-0.152 0.012-0.23c0-0.166-0.034-0.283-0.1-0.352-0.067-0.069-0.151-0.103-0.254-0.103h-1.201v-0.673h1.384c8e-3 -0.04 0.016-0.092 0.024-0.157 7e-3 -0.065 0.011-0.135 0.011-0.209 0-0.158-0.031-0.265-0.094-0.322s-0.141-0.086-0.235-0.086h-1.09v-0.667h1.578c8e-3 -0.043 0.016-0.103 0.024-0.18s0.012-0.153 0.012-0.227c0-0.17-0.034-0.288-0.1-0.355-0.067-0.067-0.152-0.1-0.254-0.1h-1.69" fill="#fff"/>
    </g>
    <g id="by" transform="translate(63.165 339.55)">
     <path id="bz" d="m0 0c-0.09 0-0.17 9e-3 -0.239 0.027-0.068 0.017-0.128 0.038-0.179 0.062l0.36 3.678c0.074 0.032 0.173 0.057 0.294 0.077 0.122 0.02 0.226 0.03 0.312 0.03 0.122 0 0.227-8e-3 0.315-0.024 0.089-0.016 0.164-0.042 0.227-0.08 0.063-0.037 0.113-0.089 0.15-0.156s0.066-0.15 0.085-0.248l0.153-0.715c0.044-0.197 0.09-0.414 0.139-0.652s0.093-0.484 0.132-0.735h0.024c0.043 0.251 0.088 0.496 0.135 0.732s0.096 0.452 0.147 0.649l0.188 0.75c0.047 0.185 0.123 0.311 0.227 0.378s0.265 0.101 0.485 0.101c0.11 0 0.22-9e-3 0.332-0.027s0.205-0.037 0.28-0.056l0.344-3.702c-0.055-0.02-0.121-0.04-0.197-0.059-0.077-0.02-0.161-0.03-0.251-0.03-0.125 0-0.232 0.022-0.318 0.065s-0.133 0.124-0.141 0.242l-0.089 1.275c-0.019 0.225-0.036 0.46-0.05 0.706-0.013 0.246-0.022 0.479-0.026 0.7h-0.012c-0.051-0.205-0.103-0.426-0.156-0.664-0.053-0.239-0.107-0.458-0.162-0.659l-0.241-1.004c-0.059-0.236-0.246-0.354-0.56-0.354-0.079 0-0.159 8e-3 -0.241 0.024-0.083 0.015-0.154 0.033-0.212 0.053l-0.301 1.252c-0.059 0.232-0.114 0.46-0.165 0.685-0.051 0.224-0.098 0.448-0.141 0.673h-0.018c-0.012-0.315-0.027-0.604-0.047-0.865-0.02-0.262-0.037-0.488-0.053-0.676l-0.094-1.152c-8e-3 -0.114-0.051-0.193-0.13-0.236-0.078-0.043-0.18-0.065-0.306-0.065" fill="#fff"/>
    </g>
    <g id="ca" transform="translate(68.722 341.16)">
     <path id="cb" d="m0 0h0.881l-0.439 1.447-0.442-1.447m-0.919-1.624c-0.074 0-0.16 7e-3 -0.256 0.021s-0.176 0.032-0.238 0.056l1.222 3.744c0.106 0.027 0.213 0.047 0.322 0.059 0.108 0.011 0.207 0.017 0.298 0.017 0.13 0 0.241-0.01 0.333-0.029 0.093-0.02 0.171-0.05 0.234-0.089s0.115-0.091 0.156-0.156c0.042-0.065 0.076-0.141 0.104-0.228l1.047-3.312c-0.067-0.028-0.147-0.048-0.241-0.062-0.095-0.014-0.187-0.021-0.277-0.021-0.102 0-0.202 0.017-0.298 0.05-0.096 0.034-0.166 0.11-0.209 0.228l-0.2 0.608h-1.285l-0.17-0.573c-0.043-0.138-0.116-0.224-0.218-0.26-0.102-0.035-0.21-0.053-0.324-0.053" fill="#fff"/>
    </g>
    <g id="cc" transform="translate(75.909 341.89)">
     <path id="cd" d="m0 0v0.888c0 0.241 0.096 0.394 0.593 0.394 0.061 0 0.114-4e-3 0.175-0.014v-2.913c0-0.24-0.096-0.393-0.594-0.393-0.061 0-0.113 5e-3 -0.174 0.014v1.323h-1.547v-0.944c0-0.24-0.097-0.393-0.595-0.393-0.06 0-0.112 5e-3 -0.174 0.014v2.912c0 0.241 0.096 0.394 0.594 0.394 0.061 0 0.113-4e-3 0.175-0.014v-1.268h1.547m4.406-0.374c0 0.99-0.713 1.661-1.892 1.661h-0.803c-0.385 0-0.477-0.203-0.477-0.469v-2.39c0-0.255 0.092-0.463 0.477-0.463h0.803c1.179 0 1.892 0.671 1.892 1.661m-2.403-0.95v1.9h0.556c0.772 0 1.056-0.5 1.056-0.95 0-0.451-0.284-0.95-1.056-0.95h-0.556" fill="#a90e3a"/>
    </g>
    <g id="ce" transform="translate(41.829 340.89)">
     <path id="cf" d="m0 0c0-0.538-0.352-0.932-1.067-1.01-0.518-0.055-1.268 0.01-1.624 0.051-0.013 0.059-0.023 0.131-0.023 0.188 0 0.471 0.255 0.578 0.493 0.578 0.248 0 0.638-0.043 0.928-0.043 0.319 0 0.417 0.109 0.417 0.212 0 0.135-0.129 0.191-0.377 0.239l-0.678 0.13c-0.564 0.108-0.866 0.499-0.866 0.913 0 0.504 0.357 0.925 1.058 1.003 0.53 0.057 1.175-8e-3 1.529-0.051 0.013-0.061 0.02-0.118 0.02-0.182 0-0.469-0.248-0.57-0.486-0.57-0.184 0-0.468 0.034-0.793 0.034-0.331 0-0.468-0.092-0.468-0.203 0-0.117 0.131-0.166 0.338-0.202l0.648-0.121c0.666-0.122 0.951-0.501 0.951-0.966m1.163-0.578c0-0.289-0.113-0.455-0.677-0.455-0.074 0-0.14 5e-3 -0.202 0.014v3.831c0 0.291 0.099 0.595 0.668 0.595 0.072 0 0.144-8e-3 0.211-0.022v-3.963m2.305-1.482c0.074-0.038 0.225-0.084 0.417-0.089 0.327-7e-3 0.505 0.119 0.638 0.412l1.756 3.918c-0.072 0.039-0.233 0.082-0.364 0.085-0.226 4e-3 -0.529-0.042-0.723-0.504l-0.569-1.343-1.115 1.817c-0.072 0.022-0.248 0.054-0.377 0.054-0.393 0-0.613-0.145-0.842-0.393l-1.084-1.186 0.872-1.373c0.161-0.25 0.374-0.378 0.719-0.378 0.226 0 0.413 0.051 0.5 0.093l-1.05 1.584 0.744 0.788 1.222-1.916-0.744-1.569" fill="#a90e3a"/>
    </g>
   </g>
  </g>
  <g id="cg">
   <g id="ch">
    <g id="ci">
     <path id="cj" d="m80.386 344.45h-8.111v-2.541c0.45-0.042 0.891-0.087 1.318-0.134v1.004c0 0.24 0.096 0.393 0.593 0.393 0.061 0 0.114-4e-3 0.176-0.013v-1.268h1.547v0.888c0 0.24 0.096 0.393 0.593 0.393 0.061 0 0.113-4e-3 0.174-0.013v-1.83c0.159-0.03 0.315-0.059 0.467-0.09v1.47c0 0.266 0.092 0.469 0.477 0.469h0.802c1.18 0 1.893-0.672 1.893-1.662 0-0.432-0.137-0.803-0.388-1.085 0.43-0.189 0.769-0.393 1.005-0.614 0.426-0.422 0.484-0.821 0.499-0.908 0.042 0 0.058 0.186 0.058 0.464l-2e-3 4.465c0 0.517-0.168 0.692-0.607 0.692-0.148 0-0.296-0.08-0.494-0.08m-42.51-0.612-1e-3 -4.465c0-0.278 0.015-0.464 0.056-0.464 0.016 0.087 0.029 0.517 0.501 0.908 0.168 0.13 0.399 0.256 0.685 0.377 0.028 0.402 0.266 0.498 0.49 0.498 0.243 0 0.622-0.042 0.91-0.043 0.124 0.032 0.251 0.064 0.383 0.095 0.037 0.035 0.053 0.076 0.053 0.116 0 0.135-0.13 0.192-0.377 0.239l-0.678 0.13c-0.564 0.108-0.866 0.499-0.866 0.914 0 0.503 0.357 0.925 1.058 1.002 0.149 0.016 0.306 0.023 0.465 0.023 0.405 0 0.809-0.043 1.064-0.074 0.013-0.06 0.02-0.118 0.02-0.181 0-0.47-0.248-0.571-0.487-0.571-0.183 0-0.468 0.035-0.792 0.035-0.332 0-0.468-0.092-0.468-0.204 0-0.117 0.13-0.166 0.337-0.202l0.648-0.12c0.637-0.118 0.926-0.469 0.95-0.907 0.093 0.019 0.189 0.038 0.286 0.056v2.696c0 0.292 0.098 0.595 0.668 0.595 0.072 0 0.144-7e-3 0.211-0.022v-3.114c0.095 0.016 0.194 0.031 0.292 0.047l-0.25 0.393 1.084 1.186c0.229 0.248 0.449 0.393 0.842 0.393 0.129 0 0.305-0.031 0.377-0.054l0.936-1.524c0.104 0.012 0.211 0.024 0.317 0.035l0.431 1.015c0.187 0.445 0.476 0.505 0.698 0.505 8e-3 0 0.016 0 0.024-1e-3 0.132-3e-3 0.292-0.046 0.365-0.085l-0.601-1.341c0.613 0.059 1.245 0.114 1.895 0.166v2.56h-10.425c-0.198 0-0.346 0.08-0.495 0.08-0.438 0-0.606-0.175-0.606-0.692m40.036-1.371v-1.397c0.44-0.105 0.845-0.216 1.209-0.335 0.286 0.185 0.402 0.493 0.402 0.781 0 0.45-0.282 0.951-1.056 0.951z" fill="url(#a)"/>
    </g>
   </g>
  </g>
  <g id="ck">
   <g id="cl">
    <g id="cm">
     <path id="cn" d="m49.402 344.45v-2.56c0.402 0.031 0.809 0.061 1.222 0.09 0.024 0.097 0.054 0.191 0.091 0.282 0.098 0.241 0.234 0.449 0.407 0.627 0.173 0.177 0.377 0.316 0.613 0.416 0.235 0.1 0.492 0.151 0.771 0.151 0.2 0 0.394-0.023 0.583-0.066 0.188-0.043 0.363-0.098 0.524-0.165 0.036-0.523-0.092-0.785-0.383-0.785-0.051 0-0.098 6e-3 -0.141 0.018-0.043 0.011-0.091 0.023-0.141 0.035-0.051 0.011-0.108 0.023-0.171 0.036-0.063 0.011-0.138 0.017-0.224 0.017-0.137 0-0.267-0.024-0.389-0.074-0.122-0.049-0.227-0.12-0.315-0.212-0.059-0.062-0.109-0.132-0.151-0.21 0.783 0.048 1.581 0.09 2.393 0.126v0.831c0 0.114 0.035 0.211 0.106 0.292 0.07 0.08 0.204 0.121 0.401 0.121 0.082 0 0.163-4e-3 0.244-0.012s0.148-0.018 0.203-0.03v-1.162c0.228 9e-3 0.456 0.018 0.687 0.026v1.107c0.058 0.019 0.135 0.037 0.229 0.05 0.094 0.014 0.175 0.021 0.241 0.021 0.216 0 0.373-0.027 0.472-0.083 0.098-0.055 0.18-0.136 0.247-0.242l0.51-0.804c0.275 7e-3 0.551 0.013 0.827 0.018v0.733c0 0.051 7e-3 0.1 0.021 0.145 0.013 0.045 0.037 0.085 0.07 0.121 0.033 0.035 0.08 0.062 0.138 0.082 0.06 0.02 0.134 0.03 0.225 0.03 0.078 0 0.153-4e-3 0.226-0.012 0.072-8e-3 0.134-0.015 0.186-0.023v-1.061c0.228 3e-3 0.457 6e-3 0.685 9e-3v0.603c0 0.067 7e-3 0.13 0.02 0.189 0.015 0.059 0.04 0.109 0.078 0.15 0.037 0.041 0.09 0.074 0.158 0.098 0.069 0.023 0.158 0.035 0.268 0.035h1.95c8e-3 -0.043 0.016-0.103 0.023-0.177 8e-3 -0.075 0.012-0.151 0.012-0.231 0-0.164-0.033-0.282-0.1-0.351s-0.151-0.103-0.253-0.103h-1.201v-0.207c0.234 2e-3 0.47 2e-3 0.705 2e-3 0.516 0 1.03-3e-3 1.542-8e-3l0.095 0.981c0.075 0.031 0.173 0.056 0.294 0.076 0.123 0.02 0.226 0.03 0.313 0.03 0.121 0 0.227-8e-3 0.315-0.024s0.164-0.042 0.227-0.08c0.063-0.037 0.112-0.089 0.15-0.156 0.037-0.067 0.066-0.15 0.085-0.248l0.129-0.603c0.21-4e-3 0.419-9e-3 0.626-0.014l0.163 0.647c0.047 0.184 0.123 0.31 0.226 0.378 0.104 0.067 0.266 0.1 0.485 0.1 0.11 0 0.221-9e-3 0.333-0.026 0.111-0.018 0.205-0.037 0.279-0.057l0.101-1.091c0.445-0.016 0.884-0.035 1.319-0.056l0.38 1.165c0.106 0.028 0.213 0.047 0.322 0.059 0.108 0.012 0.208 0.017 0.298 0.017 0.13 0 0.241-9e-3 0.333-0.029 0.093-0.019 0.171-0.049 0.234-0.088 0.063-0.04 0.115-0.092 0.156-0.157 0.042-0.065 0.076-0.14 0.104-0.227l0.271-0.86c0.697-0.048 1.372-0.101 2.026-0.161v2.541zm19.622-2.305c0.095-5e-3 0.19-0.01 0.284-0.016l-0.144 0.476zm-5.229 0.395c-3e-3 -0.073-6e-3 -0.145-9e-3 -0.216 0.024 0 0.046 0 0.07-1e-3 -0.015 0.073-0.03 0.145-0.043 0.217zm2.197-6e-3c-0.021-0.083-0.042-0.169-0.063-0.258 0.027-1e-3 0.054-2e-3 0.081-2e-3 -3e-3 0.088-5e-3 0.176-7e-3 0.26z" fill="url(#b)"/>
    </g>
   </g>
  </g>
  <g id="co">
   <g id="cp" clip-path="url(#e)">
    <g id="cq" transform="translate(50.624 341.98)">
     <path id="cr" d="m0 0c0.023 0.097 0.053 0.191 0.091 0.283 0.098 0.24 0.234 0.449 0.406 0.626 0.173 0.177 0.377 0.316 0.613 0.416s0.493 0.15 0.772 0.15c0.2 0 0.394-0.021 0.583-0.064 0.188-0.044 0.363-0.099 0.524-0.166 0.035-0.523-0.093-0.785-0.383-0.785-0.051 0-0.098 6e-3 -0.141 0.018-0.044 0.011-0.091 0.023-0.142 0.035s-0.108 0.024-0.171 0.035c-0.062 0.012-0.137 0.018-0.223 0.018-0.138 0-0.267-0.024-0.389-0.074-0.122-0.049-0.227-0.12-0.315-0.212-0.059-0.062-0.11-0.132-0.152-0.21-0.361-0.022-0.72-0.046-1.073-0.07" fill="#fff"/>
    </g>
    <g id="cs" transform="translate(54.091 342.18)">
     <path id="ct" d="m0 0v0.831c0 0.114 0.035 0.211 0.106 0.292 0.071 0.08 0.204 0.121 0.401 0.121 0.082 0 0.163-4e-3 0.244-0.012 0.08-8e-3 0.148-0.018 0.203-0.029v-1.163c-0.319-0.012-0.638-0.026-0.954-0.04" fill="#fff"/>
    </g>
    <g id="cu" transform="translate(55.731 342.25)">
     <path id="cv" d="m0 0v1.108c0.059 0.02 0.135 0.036 0.23 0.05 0.094 0.014 0.174 0.021 0.241 0.021 0.216 0 0.373-0.028 0.471-0.083s0.181-0.136 0.248-0.242l0.51-0.804c-0.569-0.014-1.138-0.03-1.7-0.05m2.527 0.068v0.733c0 0.051 7e-3 0.099 0.02 0.144 0.014 0.046 0.038 0.086 0.071 0.121 0.033 0.036 0.08 0.063 0.138 0.083 0.059 0.02 0.134 0.03 0.224 0.03 0.079 0 0.154-4e-3 0.227-0.012s0.134-0.016 0.186-0.024v-1.06c-0.29-4e-3 -0.577-9e-3 -0.866-0.015" fill="#fff"/>
    </g>
    <g id="cw" transform="translate(59.809 342.34)">
     <path id="cx" d="m0 0v0.603c0 0.067 7e-3 0.13 0.021 0.189 0.013 0.059 0.039 0.11 0.076 0.151s0.09 0.074 0.159 0.097c0.069 0.024 0.158 0.036 0.268 0.036h1.95c8e-3 -0.044 0.015-0.103 0.023-0.177 8e-3 -0.075 0.012-0.152 0.012-0.231 0-0.165-0.033-0.282-0.1-0.351s-0.151-0.103-0.253-0.103h-1.202v-0.207c-0.317-1e-3 -0.636-4e-3 -0.954-7e-3" fill="#fff"/>
    </g>
    <g id="cy" transform="translate(66.833 342.25)">
     <path id="cz" d="m0 0c-0.273 0.01-0.546 0.019-0.823 0.028-2e-3 0.088-5e-3 0.175-6e-3 0.26h-0.012c-0.021-0.083-0.042-0.169-0.063-0.258-0.226 7e-3 -0.455 0.013-0.683 0.019l0.162 0.647c0.047 0.185 0.123 0.311 0.227 0.378 0.104 0.066 0.265 0.1 0.485 0.1 0.11 0 0.22-9e-3 0.332-0.027 0.112-0.017 0.205-0.036 0.279-0.056l0.102-1.091m-2.213 0.063c-0.254 5e-3 -0.509 0.01-0.764 0.014-0.015 0.072-0.029 0.145-0.043 0.217h-0.018c-3e-3 -0.073-6e-3 -0.146-9e-3 -0.216-0.257 4e-3 -0.516 7e-3 -0.775 9e-3l0.096 0.981c0.074 0.031 0.173 0.057 0.294 0.076 0.122 0.02 0.226 0.03 0.312 0.03 0.122 0 0.227-8e-3 0.315-0.024 0.089-0.015 0.164-0.042 0.227-0.079 0.063-0.038 0.113-0.09 0.15-0.157s0.066-0.15 0.085-0.248l0.13-0.603" fill="#fff"/>
    </g>
    <g id="da" transform="translate(70.25 342.07)">
     <path id="db" d="m0 0c-0.31 0.021-0.624 0.041-0.941 0.059l-0.145 0.476-0.14-0.459c-0.288 0.016-0.58 0.031-0.873 0.045l0.38 1.164c0.106 0.028 0.214 0.047 0.322 0.059s0.208 0.018 0.298 0.018c0.13 0 0.241-0.01 0.334-0.03 0.092-0.019 0.17-0.049 0.233-0.088 0.063-0.04 0.115-0.092 0.157-0.157 0.041-0.065 0.075-0.14 0.103-0.227l0.272-0.86" fill="#fff"/>
    </g>
    <g id="dc" transform="translate(79.927 340.44)">
     <path id="dd" d="m0 0c-0.241 0.106-0.51 0.207-0.806 0.304 0.286 0.185 0.402 0.493 0.402 0.782 0 0.449-0.283 0.95-1.056 0.95h-0.555v-1.397c-0.246 0.059-0.502 0.115-0.769 0.169v1.47c0 0.266 0.092 0.469 0.477 0.469h0.802c1.18 0 1.893-0.672 1.893-1.661 0-0.433-0.136-0.805-0.388-1.086m-3.251 0.898c-0.925 0.171-1.96 0.319-3.083 0.445v1.005c0 0.24 0.096 0.393 0.593 0.393 0.062 0 0.114-4e-3 0.175-0.013v-1.268h1.548v0.888c0 0.24 0.096 0.393 0.592 0.393 0.062 0 0.114-4e-3 0.175-0.013v-1.83" fill="#c9747a"/>
    </g>
   </g>
  </g>
  <g id="de">
   <g id="df">
    <g id="dg">
     <path id="dh" d="m44.075 341.52 0.121-0.183c0.37 0.052 0.753 0.102 1.147 0.15l-0.524 0.822z" fill="url(#a)"/>
    </g>
   </g>
  </g>
 </g>
 <g id="di" transform="translate(75.099 .030019)">
  <path id="dj" d="m231.26 173.3q-1 0-1.87-0.09a10.31 10.31 0 0 1-1.39-0.21v-36.06a2.82 2.82 0 0 1 0.74-2 3.52 3.52 0 0 1 2.65-0.8q1 0 1.87 0.09a10.28 10.28 0 0 1 1.4 0.21v16.24h18.09v-13.74a2.82 2.82 0 0 1 0.74-2 3.52 3.52 0 0 1 2.65-0.8q1 0 1.9 0.09a10.39 10.39 0 0 1 1.43 0.21v36.06a2.82 2.82 0 0 1-0.74 2 3.52 3.52 0 0 1-2.65 0.8q-1 0-1.9-0.09a10.4 10.4 0 0 1-1.43-0.21v-16.54h-18.1v14a2.82 2.82 0 0 1-0.74 2 3.53 3.53 0 0 1-2.65 0.84z"/>
  <path id="dk" d="m270.64 173.3q-1 0-1.87-0.09a10.31 10.31 0 0 1-1.4-0.21v-36.06a2.82 2.82 0 0 1 0.74-2 3.52 3.52 0 0 1 2.65-0.8q1 0 1.87 0.09a10.28 10.28 0 0 1 1.4 0.21v36.06a2.82 2.82 0 0 1-0.74 2 3.53 3.53 0 0 1-2.65 0.8z"/>
  <path id="dl" d="m293.55 173.3q-1 0-1.87-0.09a10.31 10.31 0 0 1-1.4-0.21v-32.67h-11.9a7.85 7.85 0 0 1-0.18-1.28q-0.06-0.8-0.06-1.7a3.07 3.07 0 0 1 0.77-2.5 3.13 3.13 0 0 1 2-0.59h27.85a11.55 11.55 0 0 1 0.24 2.74q0 3.33-2.74 3.33h-9.28v30.17a2.82 2.82 0 0 1-0.74 2 3.52 3.52 0 0 1-2.69 0.8z"/>
  <path id="dm" d="m324.61 173.47a37.18 37.18 0 0 1-6.34-0.59 48.07 48.07 0 0 1-7-1.79 2.6 2.6 0 0 0 0-0.42 2.49 2.49 0 0 1 0-0.42 6.25 6.25 0 0 1 0.71-3.18 2.48 2.48 0 0 1 2.32-1.22 8.73 8.73 0 0 1 1.84 0.24l2.41 0.54q1.34 0.3 3 0.54a25 25 0 0 0 3.6 0.24q4.1 0 5.86-1.49a4.7 4.7 0 0 0 1.75-3.75 4.16 4.16 0 0 0-0.42-1.93 3.93 3.93 0 0 0-1.19-1.37 7.93 7.93 0 0 0-1.87-1q-1.1-0.41-2.53-0.83l-4.94-1.37q-5.83-1.61-8.12-4.46a10.17 10.17 0 0 1-2.29-6.54 11.73 11.73 0 0 1 0.66-3.78 8.66 8.66 0 0 1 2.26-3.48 12.43 12.43 0 0 1 4.28-2.56 19.21 19.21 0 0 1 6.72-1 34.76 34.76 0 0 1 5.86 0.54 40.31 40.31 0 0 1 6.52 1.73v0.83a6.11 6.11 0 0 1-0.68 3.15 2.41 2.41 0 0 1-2.23 1.13 7.69 7.69 0 0 1-1.79-0.23q-0.92-0.21-2.08-0.42t-2.65-0.42a24.23 24.23 0 0 0-3.27-0.16 12.94 12.94 0 0 0-3.45 0.39 6.34 6.34 0 0 0-2.2 1 3.88 3.88 0 0 0-1.19 1.46 4 4 0 0 0-0.36 1.64 3.5 3.5 0 0 0 1.34 3 15.19 15.19 0 0 0 4.79 2l5.24 1.49q10.41 2.74 10.41 10.83a12.65 12.65 0 0 1-0.86 4.76 9.31 9.31 0 0 1-2.72 3.63 13.15 13.15 0 0 1-4.64 2.41 23 23 0 0 1-6.75 0.86z"/>
 </g>
</svg>
