<svg width="800" height="185.02" version="1.1" viewBox="0 0 800 185.02" xmlns="http://www.w3.org/2000/svg">
 <g class="cls-2" transform="matrix(4.4444 0 0 4.4444 0 -85.289)">
  <g class="cls-3">
   <path class="cls-4" d="m93.29 40.29c0-8.41 2.99-13.69 6.7-14.26-3.71-4.42-9.84-6.84-15.4-6.84-6.13 0-11.69 2.57-15.54 6.84 3.71 0.71 4.85 3.85 4.85 8.56h-4.42c0-2.85-0.57-4.28-2.28-4.28-0.71 0-1.28 0.43-1.57 1 0 0.14-0.14 0.29-0.14 0.29-0.14 0.43-0.29 0.86-0.29 1.28 0 5.7 9.55 5.42 9.55 14.4 0 3.42-2.71 6.7-5.7 6.7 3.99 4.28 9.27 6.85 15.54 6.85s11.41-2.57 15.26-6.7c-3.57-0.86-6.56-5.85-6.56-13.83m-2 13.69h-4.85v-11.84h-5.13v11.84h-4.71v-27.4h4.71v11.12h5.13v-11.12h4.85v27.38z"/>
   <path class="cls-4" d="m67.91 49.7c1.28 0 2.28-1.28 2.28-2.99 0-3.42-3.14-4.14-6.42-7.13v1.14c0.12 5.37 2 8.98 4.14 8.98"/>
   <path class="cls-4" d="m98 39.86c0-4.71 1.28-9.27 3.71-9.27 2.99 0 3.71 7.13 3.71 9.41 0 4.85-1.57 9.41-3.71 9.41-2.42 0-3.71-4.71-3.71-9.55"/>
   <polygon class="cls-4" points="121.39 27.02 116.97 27.02 114.69 42.71 114.54 42.71 112.83 27.02 108.41 27.02 111.98 53.69 116.25 53.69 118.68 36.72 118.82 36.72 121.1 53.69 125.52 53.69 128.38 31.16 132.51 31.16 132.51 53.69 137.36 53.69 137.36 31.16 141.78 31.16 141.78 53.69 146.77 53.69 146.77 27.02 145.63 27.02 125.52 27.02 123.53 42.71"/>
   <polygon class="cls-4" points="160.03 27.02 166.45 27.02 166.45 53.69 162.03 53.69 162.03 34.15 158.75 53.69 156.04 53.69 152.76 34.15 152.62 34.15 152.62 53.69 149.05 53.69 149.05 27.02 155.61 27.02 157.75 40.71"/>
   <polygon class="cls-4" points="173.58 31.16 173.58 37.86 178.15 37.86 178.15 42.28 173.58 42.28 173.58 49.55 180 49.55 180 53.69 168.73 53.69 168.73 27.02 179.71 27.02 179.71 31.16"/>
   <path d="m42.05 58.05c0.5 0.26 1.52 0.57 2.8 0.6 2.2 0.05 3.4-0.79 4.29-2.77l11.79-26.3c-0.48-0.26-1.57-0.55-2.44-0.57-1.52-0.03-3.56 0.28-4.85 3.38l-3.82 9.01-7.49-12.19c-0.49-0.15-1.67-0.36-2.52-0.36-2.65 0-4.12 0.97-5.66 2.64l-7.28 7.96 5.85 9.22c1.08 1.68 2.51 2.54 4.82 2.54 1.52 0 2.78-0.36 3.36-0.63l-7.05-10.63 5-5.3 8.2 12.87zm-15.47-9.95c0 1.94-0.76 3.06-4.55 3.06-0.5 0-0.94-0.03-1.36-0.1v-25.71c0-1.96 0.66-4 4.48-4 0.49 0 0.97 0.05 1.42 0.15v26.61zm-7.81-3.88c0 3.62-2.36 6.26-7.16 6.78-3.48 0.37-8.51-0.06-10.9-0.34-0.08-0.39-0.15-0.87-0.15-1.26 0-3.15 1.7-3.88 3.3-3.88s4.29 0.29 6.23 0.29c2.15 0 2.8-0.73 2.8-1.42 0-0.91-0.86-1.28-2.52-1.6l-4.56-0.87c-3.79-0.74-5.81-3.36-5.81-6.14 0-3.38 2.39-6.21 7.1-6.73 3.56-0.39 7.89 0.05 10.27 0.34 0.08 0.4 0.13 0.79 0.13 1.21 0 3.15-1.67 3.83-3.27 3.83-1.23 0-3.14-0.23-5.32-0.23s-3.14 0.61-3.14 1.36c0 0.79 0.87 1.12 2.26 1.36l4.35 0.81c4.46 0.82 6.39 3.36 6.39 6.49"/>
  </g>
 </g>
</svg>
