<svg width="460.66pt" height="235.54pt" version="1.1" viewBox="0 0 460.66 235.54" xmlns="http://www.w3.org/2000/svg">
 <g transform="translate(-19.35 -132.03)" fill="#df2926">
  <path d="m261.55 132.84c22.11-2.01 45.05-0.6 65.71 8.11 15.88 6.58 30.61 18.07 37.41 34.26 4 8.97 4.68 18.98 3.74 28.66-0.29187 2.3414-0.54804 3.0687-0.98 3.89l15.14-47.455h43.86l-23.24 74.195h76.82l-5.84 22.975h-122.1l11.6-37.395c-10.45 23.8-31.23 41.5-53.77 53.54-26.57 13.97-56.88 21.05-86.9 19.7-19.68-1.15-39.7-5.93-56.19-17.12-12.12-8.15-21.93-20.49-24.95-34.99-11.06 11.19-26.48 16.94-41.8 19.15-12.29 1.75-24.72 0.73-37.03-0.1-9.85-1.16-20.35-2.67-28.39-8.96-6.93-5.54-8.64-15.245-7.46-23.605h41.09c0 2.315-0.12 5.365 1.45 7.555 3.3842 3.7596 11.415 3.1918 16.514 3.2755 5.5907 0.0816 11.181-0.40012 16.286-2.8255 2.96-1.33 5.74-4.35 4.79-7.84-1.82-4.45-7.14-5.4-11.32-6.2-13.29-2.02-26.91-2-39.97-5.46-4.92-1.36-10.13-2.77-13.99-6.3-3.54-3.26-5-8.24-4.63-12.95 0.68-10.01 5.99-19.6 14.05-25.57 7.54-5.77 16.77-8.85 25.99-10.68 11.7-2.22 23.7-2.67 35.57-1.87 11.76 1.18 24.3 3.63 33.34 11.81 5.71 5.17 7.79 13.16 7.13 20.65 9.16-13.61 21.75-24.59 35.49-33.39 21.83-13.81 46.95-22.16 72.58-25.06m-10.16 34.91c-21.76 3.98-40.39 21.08-46.62 42.24-2.94 9.82-2.74 20.87 2.09 30.07 4.01 7.83 11.55 13.4 19.81 16.09 11.4 3.74 23.81 3.1 35.37 0.46 17.67-3.86 33.43-15.39 42.7-30.88 5.19-8.86 8.46-19.63 5.79-29.85-2.49-10.16-10.17-18.45-19.31-23.22-12.13-6.37-26.51-7.56-39.83-4.91m-168.26 15.56c-4.17 0.98207-7.94 4.42-7.51 8.91 0.23709 2.1959 4.03 2.97 6.38 3.6 8.55 1.87 17.26 2.75 25.97 3.38 12.45 0.98 26.09 2.17 35.98 10.66 2.28-6.44 5.54-12.465 9.16-18.245h-38.66c-0.62-2.45-1.23-4.8051-3.84-6.375-8.36-4.51-18.48-3.91-27.48-1.93z"/>
  <path d="m169.04 307.06 23.87-6.89 5.15 7.98-24.53 4.45z"/>
  <path d="m345.69 319.82c11.96-5.37 25.54-6.31 38.4-4.42 3.63 0.51 7.32 1.19 10.66 2.76l-2.26 10.57c-8-4.46-17.53-4.85-26.44-3.82-7.33 1.11-15.03 4.52-18.93 11.12-2.74 4.56-1.26 10.74 2.93 13.87 6.53 4.97 15.2 5.31 23.06 4.67 5.02-0.34 9.78-2.1 14.45-3.86l-2.27 10.81c-7.93 3.47-16.81 3.49-25.3 3.13-9-0.68-18.42-3.24-25.14-9.55-4.94-4.48-7.43-11.76-5.43-18.23 2.07-8.06 9.01-13.7 16.27-17.05z"/>
  <path d="m304.33 316.45h15.58l-11.01 48.31h-15.79z"/>
  <path d="m144.54 317.31h15.62l-6.65 29.54c-0.79 2.95-0.43 6.64 2.62 8.15 6.04 2.98 13.28 2.59 19.61 0.78 4.44-1.32 6.9-5.72 7.93-9.95l6.67-28.52h15.65l-7.71 33.28c-1.68 6.74-7.38 11.65-13.92 13.49-11.43 3.26-23.8 3.33-35.36 0.68-6.33-1.31-13.15-6.39-12.07-13.59z"/>
  <path d="m244.79 317.93c10.02-1.65 20.44-0.53 29.88 3.22l-7.47 8.48c-6.13-1.79-12.72-4.33-19.12-2.26-1.65 0.62-3.83 1.69-3.74 3.75-0.23 1.77 1.54 2.81 2.87 3.52 6.72 3.35 14.44 4.95 20.24 9.95 3.41 2.81 4.01 8.02 1.78 11.74-3.03 5.13-8.74 7.9-14.27 9.48-12.18 3.51-25.08 1.38-36.81-2.77l8.26-7.93c7.73 1.93 16.28 4.9 24.01 1.43 2.64-0.98 4.36-4.7 1.45-6.47-6.98-4.66-15.82-6.11-22.21-11.76-3.6-3.24-2.95-9.2-0.01-12.66 3.74-4.49 9.57-6.58 15.14-7.72z"/>
  <path d="m391.56 364.56 41.7-48.25h15.66l15.69 48.25h-16.4l-2.61-7.99h-29.9l-6.74 7.99h-17.4m30.84-16.79h20.63l-5.39-18.16z"/>
  <path d="m45.39 318.24h14.96l8.61 31.575 26.6-31.575h15.34l-1.23 48.345h-16l0.81-29.19-24.15 29.19h-10.87l-8.31-29.19-15.88 29.19h-15.92z"/>
 </g>
</svg>
