<svg width="711.73" height="800" version="1.1" viewBox="0 0 711.73 800" xmlns="http://www.w3.org/2000/svg" xmlns:xlink="http://www.w3.org/1999/xlink">
 <defs>
  <linearGradient id="linearGradient1289">
   <stop stop-color="#fff" stop-opacity=".015814" offset="0"/>
   <stop stop-opacity=".15" offset=".50199"/>
   <stop stop-color="#fff" stop-opacity="0" offset="1"/>
  </linearGradient>
  <linearGradient id="linearGradient1184">
   <stop stop-color="#fad364" offset="0"/>
   <stop stop-color="#fff" offset="1"/>
  </linearGradient>
  <radialGradient id="radialGradient1079" cx="132" cy="83.053" r="48.583" gradientTransform="matrix(1 -4.9268e-7 4.9876e-7 .97651 -1.6723e-5 1.9514)" gradientUnits="userSpaceOnUse">
   <stop stop-color="#6dcaf0" offset="0"/>
   <stop stop-color="#6dcaf0" stop-opacity=".4" offset=".82959"/>
   <stop stop-color="#6dcaf0" stop-opacity="0" offset="1"/>
  </radialGradient>
  <linearGradient id="linearGradient1137" x1="132" x2="132" y1="159.72" y2="69.178" gradientUnits="userSpaceOnUse">
   <stop stop-color="#d1a932" offset="0"/>
   <stop stop-color="#f1dc9d" offset=".13"/>
   <stop stop-color="#e7bf60" offset=".22142"/>
   <stop stop-color="#d3a332" offset=".23713"/>
   <stop stop-color="#fddd81" offset=".24969"/>
   <stop stop-color="#fef4da" offset=".53104"/>
   <stop stop-color="#fafaf8" offset=".63286"/>
   <stop stop-color="#fff" offset="1"/>
  </linearGradient>
  <linearGradient id="linearGradient1186" x1="153.31" x2="153.31" y1="193.84" y2="157.18" gradientUnits="userSpaceOnUse" xlink:href="#linearGradient1184"/>
  <linearGradient id="linearGradient1281" x1="153.31" x2="153.31" y1="193.84" y2="157.18" gradientTransform="matrix(1 0 0 .94663 -1.3616 9.1725)" gradientUnits="userSpaceOnUse" xlink:href="#linearGradient1184"/>
  <linearGradient id="linearGradient1291" x1="166.99" x2="168.57" y1="170.81" y2="170.81" gradientTransform="matrix(1 0 0 .44004 0 88.5)" gradientUnits="userSpaceOnUse" xlink:href="#linearGradient1289"/>
  <linearGradient id="linearGradient1302" x1="166.99" x2="168.57" y1="170.81" y2="170.81" gradientUnits="userSpaceOnUse" xlink:href="#linearGradient1289"/>
  <linearGradient id="linearGradient1351" x1="153.31" x2="153.31" y1="193.84" y2="157.18" gradientTransform="matrix(1 0 0 .89017 -11.779 18.9)" gradientUnits="userSpaceOnUse" xlink:href="#linearGradient1184"/>
  <linearGradient id="linearGradient1374" x1="166.99" x2="168.57" y1="170.81" y2="170.81" gradientTransform="matrix(1,0,0,1.6782,-10.417,-125.19)" gradientUnits="userSpaceOnUse" xlink:href="#linearGradient1289"/>
  <radialGradient id="radialGradient1038" cx="132" cy="84.28" r="77.381" gradientTransform="matrix(1 0 0 .988 5.1084e-7 -.21533)" gradientUnits="userSpaceOnUse">
   <stop stop-color="#69c3ef" offset="0"/>
   <stop stop-color="#69c3ef" offset=".51369"/>
   <stop stop-color="#69c3ef" stop-opacity=".9" offset=".89841"/>
   <stop stop-color="#69c3ef" stop-opacity="0" offset="1"/>
  </radialGradient>
 </defs>
 <g transform="matrix(3.4004 0 0 3.4004 -93.811 -22.448)" fill="#e1b345" aria-label="SOPHIA TV">
  <path d="m36.137 241.87q-2.826 0-5.0867-1.248-2.2608-1.248-3.4618-3.216l0.4239-6.72h0.95376q0.38857 1.488 0.67117 6.096 0.91844 1.392 2.3314 2.256 1.413 0.816 3.1439 0.816 2.4374 0 4.133-1.728 1.7309-1.776 1.7309-4.992 0-2.064-0.81246-3.456-0.81247-1.44-1.9782-2.304-1.1657-0.912-3.2499-2.112-2.2608-1.248-3.6738-2.304-1.3777-1.056-2.3314-2.88-0.95376-1.824-0.95376-4.56 0-4.032 2.3314-6.096 2.3314-2.112 6.2878-2.112 2.5787 0 4.4156 0.864 1.8722 0.816 3.1792 2.592l-0.38857 5.952h-0.98909q-0.52987-2.016-0.70649-5.424-0.81247-0.96-2.0135-1.44-1.1657-0.528-2.5787-0.528-2.614 0-4.027 1.392-1.413 1.344-1.413 3.984 0 1.536 0.67117 2.64 0.70649 1.104 1.7309 1.872 1.0597 0.72 2.8966 1.824 2.4727 1.44 3.9917 2.688 1.519 1.2 2.614 3.36 1.0951 2.112 1.0951 5.28 0 2.928-1.1657 5.088t-3.2145 3.312q-2.0135 1.104-4.5569 1.104z" stroke-width=".85786"/>
  <path d="m61.431 236.67q-5.3 0-8.1667-3.1667-2.8333-3.2-2.8333-8.8333t2.8333-8.8q2.8667-3.2 8.1667-3.2t8.1333 3.2q2.8667 3.1667 2.8667 8.8t-2.8667 8.8333q-2.8333 3.1667-8.1333 3.1667zm0-1.4q3.5333 0 5.3333-2.9 1.8333-2.9 1.8333-7.7t-1.8333-7.7q-1.8-2.9-5.3333-2.9t-5.3667 2.9q-1.8 2.9-1.8 7.7t1.8 7.7q1.8333 2.9 5.3667 2.9z"/>
  <path d="m75.197 235.84q0.7-0.2 1.4333-0.36667 0.76667-0.2 1.2667-0.26667v-21.067q-1.5-0.3-2.6333-0.66667v-0.46666h10.133q4.6 0 6.5667 1.7667 1.9667 1.7333 1.9667 5.1333 0 3.2-1.8667 5.2333t-5.5333 2.0333h-4.8333v8.0667q1.3333 0.2 2.7 0.63333v0.46667h-9.2zm10.433-10q2.3 0 3.4-1.6333 1.1333-1.6667 1.1333-4.3333 0-2.6-1.1333-4.0333-1.1-1.4667-3.4-1.4667h-3.9333v11.467z"/>
  <path d="m120.16 213.5q-1.7667 0.56667-2.6667 0.66667v21.067q1.4667 0.23333 2.6667 0.66666v0.43334h-9.0333v-0.4q1-0.4 1.4333-0.53334 0.46666-0.13333 1.1333-0.2v-10.033h-11.4v10.067q1.6 0.33333 2.6 0.66666v0.43334h-9.0333v-0.5q1.5333-0.5 2.6333-0.63334v-21.067q-1.5-0.3-2.6333-0.66667v-0.46666h9.0333v0.43333q-1 0.36666-1.4667 0.5-0.46667 0.13333-1.1333 0.2v9.6666h11.4v-9.7q-1.0667-0.16666-2.5667-0.63333v-0.46666h9.0333z"/>
  <path d="m126.3 235.84q1.3333-0.4 2.7-0.63334v-21.067q-1.1-0.16667-2.7-0.66667v-0.46666h9.2v0.49999q-0.96666 0.33334-2.7 0.63334v21.1q1.3333 0.2 2.7 0.63333v0.46667h-9.2z"/>
  <path d="m159.76 235.2q1.3 0.2 2.6 0.66667v0.46667h-9.0333v-0.5q1.2333-0.46667 2.7-0.63334l-1.7333-4.9h-9.7333l-1.7667 4.9333q1.4333 0.16666 2.7667 0.66666v0.43334h-7.4333v-0.53334q0.6-0.2 1.3333-0.4 0.76666-0.2 1.2667-0.26666l8.2-22.267h2.6333zm-5.9333-6.2333-4.3667-12.3-4.4 12.3z"/>
  <path d="m178.5 240.67q1.248-0.336 4.128-0.912v-30h-8.448q-0.096 1.104-0.624 3.312-0.48 2.208-0.864 2.928h-1.2v-8.208h27.744v8.208h-1.248q-0.384-0.72-0.912-2.928-0.48-2.208-0.576-3.312h-8.4v30.048q2.448 0.384 4.128 0.912v0.672h-13.728z"/>
  <path d="m206.37 209.47q-1.872-0.288-3.648-1.008v-0.672h12.912v0.768q-2.016 0.72-3.936 0.912l9.216 27.648 9.264-27.696q-2.208-0.336-3.984-1.008v-0.624h10.704v0.768q-0.96 0.336-2.064 0.624t-1.632 0.384l-11.28 32.16h-4.224z"/>
 </g>
 <g transform="matrix(3.4004 0 0 3.4004 -93.811 -22.448)" stroke-linecap="square">
  <path d="m180.58 83.053a48.583 48.583 0 0 1-48.583 48.583 48.583 48.583 0 0 1-48.583-48.583 48.583 48.583 0 0 1 48.583-48.583 48.583 48.583 0 0 1 48.583 48.583z" fill="url(#radialGradient1079)" stroke-width="5.5" style="paint-order:stroke fill markers"/>
  <g fill="url(#radialGradient1038)" stroke-width="4.3443">
   <path d="m125.93 6.6016 1.8281 37.307a40.304 40.304 0 0 1 4.2422-0.22461 40.304 40.304 0 0 1 4.2422 0.22461l1.8281-37.307z" style="paint-order:stroke fill markers"/>
   <path d="m108.07 9.9395-11.07 4.9805 16.869 33.072a40.304 40.304 0 0 1 7.9492-3z" style="paint-order:stroke fill markers"/>
   <path d="m82.076 24.443-8.5527 8.6172 27.691 24.914a40.304 40.304 0 0 1 6.1309-5.8691z" style="paint-order:stroke fill markers"/>
   <path d="m63.459 47.689-4.9453 11.088 34.902 13.561a40.304 40.304 0 0 1 3.2969-7.8203z" style="paint-order:stroke fill markers"/>
   <path d="m54.619 76.982v12.141l37.215-1.8242a40.304 40.304 0 0 1-0.13672-3.3125 40.304 40.304 0 0 1 0.33203-5.1699z" style="paint-order:stroke fill markers"/>
   <path d="m93.283 95.18-35.398 11.68 4.3633 11.328 34.236-15.148a40.304 40.304 0 0 1-3.2012-7.8594z" style="paint-order:stroke fill markers"/>
   <path d="m155.93 9.9395-13.748 35.053a40.304 40.304 0 0 1 7.9492 3l16.869-33.072z" style="paint-order:stroke fill markers"/>
   <path d="m181.92 24.443-25.27 27.662a40.304 40.304 0 0 1 6.1289 5.8691l27.693-24.914z" style="paint-order:stroke fill markers"/>
   <path d="m200.54 47.689-33.254 16.828a40.304 40.304 0 0 1 3.2949 7.8203l34.904-13.561z" style="paint-order:stroke fill markers"/>
   <path d="m209.38 76.982-37.41 1.834a40.304 40.304 0 0 1 0.33203 5.1699 40.304 40.304 0 0 1-0.13671 3.3125l37.215 1.8242z" style="paint-order:stroke fill markers"/>
   <path d="m170.72 95.18a40.304 40.304 0 0 1-3.2012 7.8594l34.236 15.148 4.3633-11.328z" style="paint-order:stroke fill markers"/>
   <path d="m99.885 108.34-27.715 25.271 8.6094 8.5586 24.918-27.645a40.304 40.304 0 0 1-5.8125-6.1856z" style="paint-order:stroke fill markers"/>
   <path d="m164.12 108.34a40.304 40.304 0 0 1-5.8125 6.1856l24.918 27.645 8.6094-8.5586z" style="paint-order:stroke fill markers"/>
  </g>
 </g>
 <g transform="matrix(3.4004 0 0 3.4004 -93.811 -22.448)" shape-rendering="auto">
  <path d="m130.73 68.27-1.0938 0.49024c-3.7011 1.6588-5.897 4.442-7.1797 7.543s-1.6796 6.5232-1.8613 9.5684-0.16028 5.7414-0.51172 7.25c-0.17571 0.75431-0.42725 1.1259-0.67382 1.2324-0.24657 0.10652-0.73592 0.06292-1.5996-0.47852-1.7517-1.0981-2.3774-2.2618-2.5293-3.5547-0.15193-1.2929 0.22885-2.7546 0.69336-4.2773s1.0087-3.0983 1.0723-4.6758-0.40924-3.177-1.9043-4.5176l-0.43946-0.39258-0.3164 0.49609c-4.0415 6.3261-7.9634 10.093-10.955 14.473-2.604 3.812-4.3806 8.2376-4.8984 14.934-0.90025-3.4526-1.8607-6.2715-2.6777-8.5898-1.0497-2.9787-1.8239-5.5668-1.8535-9.3438l-0.99219-0.08594c-2.0643 11.242-9.2435 20.276-12.943 28.297-1.8499 4.0106-2.8368 7.8167-1.7363 11.506 1.091 3.6574 4.224 7.0899 10.289 10.457 2.5312 7.2199 8.5755 12.623 16.346 16.207 7.8424 3.6171 17.439 5.4141 27.035 5.4141s19.193-1.797 27.035-5.4141c7.7954-3.5954 13.861-9.0183 16.377-16.273l2e-3 -4e-3c4.5221-6.587 6.4827-11.796 6.8359-16.213 0.35333-4.4177-0.9166-8.0123-2.7305-11.299-3.6277-6.5731-9.334-11.973-9.334-21.049l-0.97071-0.16992-6.2695 17.213c-0.45918-9.3819 0.26435-19.206-5.4414-27.502l-0.97852-1.4219 0.0664 1.7246c0.13426 3.4678-1.906 7.5714-4.1387 11.426-1.7959 3.1003-3.4458 5.8866-4.3555 8.3516-0.96999-7.4441-1.381-15.116-5.8613-21.979l-0.20313-0.3125-0.35937 0.10742s-0.33912 0.115-0.70117 0.42578-0.79943 0.83293-1.1758 1.6777c-0.75272 1.6896-1.2754 4.6546-0.59376 9.9414 0.19893 1.5428 0.0134 3.3193-0.4082 4.7617-0.42162 1.4424-1.1398 2.5099-1.6406 2.7344-0.25041 0.11226-0.4205 0.11216-0.72852-0.11328s-0.70528-0.73527-1.0957-1.6113c-0.78085-1.7521-1.5477-4.9224-2.0957-9.9727-0.15376-1.417-0.73896-2.4547-1.4063-3.334-0.66729-0.87924-1.4065-1.6189-1.9687-2.5137-0.56225-0.89482-0.96934-1.9378-0.99024-3.4961s0.36249-3.637 1.4414-6.5156z" color="#000000" color-rendering="auto" dominant-baseline="auto" fill-opacity=".14902" image-rendering="auto" solid-color="#000000" stop-color="#000000" style="font-feature-settings:normal;font-variant-alternates:normal;font-variant-caps:normal;font-variant-east-asian:normal;font-variant-ligatures:normal;font-variant-numeric:normal;font-variant-position:normal;font-variation-settings:normal;inline-size:0;isolation:auto;mix-blend-mode:normal;paint-order:stroke fill markers;shape-margin:0;shape-padding:0;text-decoration-color:#000000;text-decoration-line:none;text-decoration-style:solid;text-indent:0;text-orientation:mixed;text-transform:none;white-space:normal"/>
  <path d="m89 138.25c9.7298 28.627 76.27 28.627 86 0 17.97-26.172-5.3146-29.71-5.3146-48.281l-7.1176 19.544c-0.79779-10.166 0.5995-20.887-5.4754-29.719 0.28442 7.3459-8.422 16.604-9.2328 21.71-1.1891-8.0506-1.2859-16.336-6.0413-23.62 0 0-3.4684 1.0407-2.1195 11.502 0.83978 6.5132-4.7582 16.226-6.9619-4.0823-0.56904-5.2442-7.2673-4.4243-2.8955-16.089-14.318 6.4169-4.9086 29.713-12.296 25.082-7.3871-4.6309 2.8322-12.082-2.7377-17.076-8.1436 12.747-15.759 15.161-15.998 32.153-2.1209-10.264-5.2482-13.257-5.3086-20.945-4.1855 22.793-28.93 36.377-4.5016 49.82z" color="#000000" color-rendering="auto" dominant-baseline="auto" fill="url(#linearGradient1137)" image-rendering="auto" solid-color="#000000" stop-color="#000000" style="font-feature-settings:normal;font-variant-alternates:normal;font-variant-caps:normal;font-variant-east-asian:normal;font-variant-ligatures:normal;font-variant-numeric:normal;font-variant-position:normal;font-variation-settings:normal;inline-size:0;isolation:auto;mix-blend-mode:normal;paint-order:stroke fill markers;shape-margin:0;shape-padding:0;text-decoration-color:#000000;text-decoration-line:none;text-decoration-style:solid;text-indent:0;text-orientation:mixed;text-transform:none;white-space:normal"/>
 </g>
 <path d="m276.01 481.18c-28.927-0.13057-55.882 14.668-70.204 39.043-0.27304 0.46456-0.4162 0.94928-0.32542 1.4411 0.0907 0.49193 0.46959 0.90794 0.88331 1.0759 0.82735 0.33599 1.7389 5e-3 2.3178-0.75046 11.832-15.445 29.886-24.732 49.244-24.732 34.045-3e-3 61.639 27.749 61.639 62.016 3e-3 34.272-27.59 62.033-61.639 62.03-19.364-6.8e-4 -37.683-9.0953-49.237-24.726-0.59357-0.80279-1.6622-1.057-2.3909-0.61101-0.7288 0.44599-0.98151 1.5378-0.49145 2.3709 2.8987 4.9278 6.3767 9.3806 10.188 13.442-2.9863 8.741 0.7474 16.148 5.5919 20.927 2.472 2.4385 5.205 4.2338 7.5179 5.293 1.1565 0.52968 2.205 0.87668 3.1081 1.0161 0.90317 0.13955 1.7579 0.159 2.3909-0.49809 0.21796-0.2265 0.28882-0.51835 0.29222-0.71727 5e-3 -0.19903-0.0306-0.34762-0.0731-0.49146-0.0853-0.28781-0.21654-0.55633-0.38519-0.86339-0.33739-0.61404-0.83857-1.3625-1.4412-2.2315-1.2052-1.738-2.8245-3.9288-4.2838-6.0969-1.4591-2.1681-2.7516-4.3338-3.2808-5.851-0.26625-0.75869-0.3037-1.3385-0.23909-1.5674 0.0456-0.16115 0.22184-0.19403 0.40512-0.24571 19.56 14.997 45.715 20.803 70.905 14.266 30.934-8.0259 53.603-32.865 58.677-62.733 5.074 29.869 27.742 54.709 58.677 62.733 25.189 6.5376 51.342 0.73111 70.905-14.266 0.18328 0.0517 0.35955 0.0845 0.40512 0.24571 0.0646 0.22884 0.0272 0.80867-0.23908 1.5674-0.52927 1.5174-1.8217 3.683-3.2808 5.851-1.4592 2.1681-3.0785 4.3586-4.2838 6.0969-0.60261 0.869-1.1038 1.6174-1.4412 2.2315-0.16865 0.30706-0.29991 0.57558-0.38519 0.86339-0.0425 0.14384-0.0781 0.29243-0.073 0.49146 3e-3 0.19892 0.0742 0.49077 0.29219 0.71727 0.63298 0.65709 1.4877 0.63764 2.3909 0.49809 0.90317-0.13942 1.9517-0.48642 3.1081-1.0161 2.313-1.0594 5.0462-2.8547 7.5179-5.293 4.8445-4.7792 8.5785-12.186 5.5919-20.927 3.8111-4.0614 7.289-8.5142 10.188-13.442 0.49006-0.83315 0.23734-1.925-0.49146-2.3709-0.72866-0.44603-1.7973-0.19181-2.3909 0.61101-11.557 15.63-29.875 24.725-49.237 24.726-34.048 1e-3 -61.642-27.76-61.639-62.03 1e-3 -34.269 27.593-62.019 61.639-62.016 19.36 6.8e-4 37.414 9.2871 49.244 24.732 0.57892 0.75556 1.4905 1.0864 2.3178 0.75046 0.41369-0.16797 0.79259-0.58401 0.88332-1.0759 0.0908-0.49186-0.0524-0.97658-0.32545-1.4411-14.322-24.377-41.281-39.176-70.204-39.043h-0.0863l-0.093 0.0199c-6.8586 0.0456-13.684 0.92317-20.309 2.6433-30.933 8.0269-53.6 32.856-58.677 62.72-5.075-29.865-27.744-54.695-58.677-62.72-6.6253-1.7201-13.451-2.5977-20.309-2.6433l-0.093-0.0199h-0.0863zm-0.0133 1.7002h7e-3c6.778 0.0302 13.517 0.91038 20.064 2.61 32.724 8.4918 55.933 36.143 58.259 68.446-0.12456 1.7694-0.23245 3.5452-0.23245 5.3396-7e-5 1.7946 0.10793 3.57 0.23245 5.3396-2.3244 32.309-25.533 59.969-58.259 68.46-24.854 6.4505-50.693 0.68137-69.881-14.233l-0.27894-0.21915-0.34534 0.0465c-0.95401 0.11827-1.7724 0.74353-2.0057 1.5674-0.2332 0.82381-0.0547 1.6716 0.26565 2.5901 0.64073 1.8369 1.9921 4.0254 3.4799 6.2363 1.488 2.2109 3.117 4.4218 4.297 6.1234 0.58996 0.85077 1.0654 1.5762 1.3416 2.0787 0.0204 0.0347 0.0162 0.039 0.0332 0.073-0.14594 0.0238-0.13389 0.0575-0.50475 0-0.66851-0.10326-1.602-0.40029-2.6565-0.88328-2.1091-0.96601-4.7116-2.6642-7.0333-4.9543-4.6432-4.5806-8.1728-11.358-5.0938-19.645l0.18595-0.49809-0.36527-0.3852c-3.7625-3.9658-7.1258-8.3686-9.9886-13.17 11.89 15.922 30.609 25.203 50.407 25.204 34.973 1e-3 63.342-28.546 63.339-63.73-1e-3 -35.18-28.368-63.72-63.339-63.716-19.795 6.8e-4 -38.224 9.4792-50.366 25.171 14.062-23.594 40.257-37.975 68.439-37.85zm158.35 0h7e-3c28.183-0.12718 54.379 14.254 68.439 37.85-12.143-15.691-30.573-25.17-50.366-25.171-34.969-3e-3 -63.339 28.536-63.339 63.716-3e-3 35.184 28.366 63.733 63.339 63.73 19.799-6.8e-4 38.519-9.282 50.407-25.204-2.8627 4.801-6.2261 9.2041-9.9886 13.17l-0.36527 0.38519 0.18593 0.49809c3.0788 8.2867-0.45061 15.065-5.0938 19.645-2.3217 2.2903-4.9241 3.9883-7.0333 4.9544-1.0546 0.48298-1.988 0.78001-2.6565 0.88328-0.37085 0.0575-0.35881 0.0238-0.50475 0 0.017-0.034 0.0128-0.0384 0.0332-0.073 0.27607-0.50251 0.75158-1.228 1.3416-2.0788 1.1799-1.7015 2.809-3.9125 4.297-6.1234 1.4879-2.2109 2.8393-4.3994 3.4799-6.2363 0.32031-0.91844 0.49883-1.7663 0.26563-2.5901-0.23326-0.82384-1.0517-1.4491-2.0057-1.5674l-0.34538-0.0465-0.27893 0.21916c-19.188 14.914-45.035 20.683-69.888 14.233-32.721-8.4894-55.923-36.143-58.252-68.446 0.12514-1.7739 0.23249-3.5541 0.23245-5.3529 0-1.7989-0.10728-3.5792-0.23245-5.3529 2.3303-32.299 25.531-59.942 58.252-68.432 6.5464-1.6996 13.292-2.5798 20.07-2.61z" color="#000000" color-rendering="auto" dominant-baseline="auto" fill-opacity=".14902" image-rendering="auto" shape-rendering="auto" solid-color="#000000" stop-color="#000000" stroke-width="3.4004" style="font-feature-settings:normal;font-variant-alternates:normal;font-variant-caps:normal;font-variant-east-asian:normal;font-variant-ligatures:normal;font-variant-numeric:normal;font-variant-position:normal;font-variation-settings:normal;inline-size:0;isolation:auto;mix-blend-mode:normal;paint-order:stroke fill markers;shape-margin:0;shape-padding:0;text-decoration-color:#000000;text-decoration-line:none;text-decoration-style:solid;text-indent:0;text-orientation:mixed;text-transform:none;white-space:normal"/>
 <g transform="matrix(3.4004 0 0 3.4004 -94.026 -22.448)" fill="url(#linearGradient1186)">
  <path d="m155.32 148.36c-2.0141 9e-3 -4.0185 0.26975-5.9639 0.77483-10.256 2.6614-17.388 11.661-17.388 21.942-3e-4 10.282 7.1316 19.283 17.388 21.944 7.385 1.9167 15.064 0.20309 20.768-4.2304 1.7329 0.21483-2.7521 5.1011-2.4486 5.4162 0.66818 0.69364 6.9161-2.6774 5.0299-7.7543 1.1456-1.2075 2.1778-2.5443 3.043-4.0152 0.18177-0.30904-0.19397-0.56122-0.43051-0.24131-3.4463 4.6609-8.9089 7.373-14.682 7.3732-10.149 4.2e-4 -18.377-8.2792-18.376-18.492 4e-4 -10.212 8.2277-18.491 18.376-18.49 5.7734 2e-4 11.157 2.7719 14.682 7.3732 0.21988 0.28697 0.67207 0.16982 0.43051-0.24131-4.165-7.0888-12.007-11.397-20.428-11.359z" color="#000000" color-rendering="auto" dominant-baseline="auto" fill="url(#linearGradient1186)" image-rendering="auto" shape-rendering="auto" solid-color="#000000" stop-color="#000000" style="font-feature-settings:normal;font-variant-alternates:normal;font-variant-caps:normal;font-variant-east-asian:normal;font-variant-ligatures:normal;font-variant-numeric:normal;font-variant-position:normal;font-variation-settings:normal;inline-size:0;isolation:auto;mix-blend-mode:normal;paint-order:stroke fill markers;shape-margin:0;shape-padding:0;text-decoration-color:#000000;text-decoration-line:none;text-decoration-style:solid;text-indent:0;text-orientation:mixed;text-transform:none;white-space:normal"/>
  <path d="m156.57 158.9h1.5859v24h-1.5859z" fill="url(#linearGradient1351)" style="paint-order:stroke fill markers"/>
  <path d="m156.57 158.9v23.984h1.5859v-23.984z" color="#000000" color-rendering="auto" dominant-baseline="auto" fill="url(#linearGradient1374)" image-rendering="auto" shape-rendering="auto" solid-color="#000000" stop-color="#000000" style="font-feature-settings:normal;font-variant-alternates:normal;font-variant-caps:normal;font-variant-east-asian:normal;font-variant-ligatures:normal;font-variant-numeric:normal;font-variant-position:normal;font-variation-settings:normal;inline-size:0;isolation:auto;mix-blend-mode:normal;paint-order:stroke fill markers;shape-margin:0;shape-padding:0;text-decoration-color:#000000;text-decoration-line:none;text-decoration-style:solid;text-indent:0;text-orientation:mixed;text-transform:none;white-space:normal"/>
  <path d="m156.57 158.89-0.0156 24h1.6172l0.0156-24zm0.0312 0.0312h1.5547l-0.0156 23.938h-1.5547z" color="#000000" color-rendering="auto" dominant-baseline="auto" fill="#000" fill-opacity=".14902" image-rendering="auto" shape-rendering="auto" solid-color="#000000" stop-color="#000000" style="font-feature-settings:normal;font-variant-alternates:normal;font-variant-caps:normal;font-variant-east-asian:normal;font-variant-ligatures:normal;font-variant-numeric:normal;font-variant-position:normal;font-variation-settings:normal;inline-size:0;isolation:auto;mix-blend-mode:normal;paint-order:stroke fill markers;shape-margin:0;shape-padding:0;text-decoration-color:#000000;text-decoration-line:none;text-decoration-style:solid;text-indent:0;text-orientation:mixed;text-transform:none;white-space:normal"/>
  <path d="m166.99 158.05h1.5859v25.522h-1.5859z" fill="url(#linearGradient1281)" style="paint-order:stroke fill markers"/>
  <g shape-rendering="auto">
   <path d="m166.97 158.03v11.246h0.0312v-11.215h1.5547v11.215h0.0312v-11.246z" color="#000000" color-rendering="auto" dominant-baseline="auto" fill="#000" fill-opacity=".14902" image-rendering="auto" solid-color="#000000" stop-color="#000000" style="font-feature-settings:normal;font-variant-alternates:normal;font-variant-caps:normal;font-variant-east-asian:normal;font-variant-ligatures:normal;font-variant-numeric:normal;font-variant-position:normal;font-variation-settings:normal;inline-size:0;isolation:auto;mix-blend-mode:normal;paint-order:stroke fill markers;shape-margin:0;shape-padding:0;text-decoration-color:#000000;text-decoration-line:none;text-decoration-style:solid;text-indent:0;text-orientation:mixed;text-transform:none;white-space:normal"/>
   <path d="m166.99 158.05h1.5859v11.231h-1.5859z" color="#000000" color-rendering="auto" dominant-baseline="auto" fill="url(#linearGradient1291)" image-rendering="auto" solid-color="#000000" stop-color="#000000" style="font-feature-settings:normal;font-variant-alternates:normal;font-variant-caps:normal;font-variant-east-asian:normal;font-variant-ligatures:normal;font-variant-numeric:normal;font-variant-position:normal;font-variation-settings:normal;inline-size:0;isolation:auto;mix-blend-mode:normal;paint-order:stroke fill markers;shape-margin:0;shape-padding:0;text-decoration-color:#000000;text-decoration-line:none;text-decoration-style:solid;text-indent:0;text-orientation:mixed;text-transform:none;white-space:normal"/>
   <path d="m168.55 164.17c-0.68998-0.10227-1.4114-0.0721-2.1289 0.11328-2.347 0.61006-3.8997 2.6825-3.9922 4.9863l-7.6191 1.9746-0.57031-2.207c-0.11093-0.41877-0.5352-0.66693-0.95508-0.56054l-1.4805 0.38281c-0.41727 0.10808-0.66863 0.53576-0.56054 0.95312l0.57422 2.207-1.4512 0.37305-0.57226-2.2051c-0.10777-0.41782-0.53357-0.66918-0.95117-0.56054l-1.4805 0.38476c-0.41728 0.10809-0.66852 0.53366-0.56055 0.95117l0.57422 2.2109c-0.81198 0.22024-1.3074 1.0566-1.0957 1.873 0.21248 0.82292 1.06 1.323 1.8828 1.1094l15.041-3.8945c1.1971 1.9678 3.5621 3.0275 5.9082 2.4199 2.8712-0.7438 4.5974-3.6758 3.8535-6.5469-0.55701-2.1506-2.3461-3.658-4.416-3.9648zm-1.3534 3.1054c1.2143-0.31419 2.4626 0.42069 2.7774 1.6348 0.31563 1.2185-0.41823 2.4636-1.6367 2.7793-1.2145 0.31468-2.4608-0.4202-2.7754-1.6348-0.31311-1.217 0.41882-2.4622 1.6348-2.7793z" color="#000000" color-rendering="auto" dominant-baseline="auto" fill="#000" fill-opacity=".14902" image-rendering="auto" solid-color="#000000" stop-color="#000000" style="font-feature-settings:normal;font-variant-alternates:normal;font-variant-caps:normal;font-variant-east-asian:normal;font-variant-ligatures:normal;font-variant-numeric:normal;font-variant-position:normal;font-variation-settings:normal;inline-size:0;isolation:auto;mix-blend-mode:normal;shape-margin:0;shape-padding:0;text-decoration-color:#000000;text-decoration-line:none;text-decoration-style:solid;text-indent:0;text-orientation:mixed;text-transform:none;white-space:normal"/>
   <path d="m154.22 169.04 0.57514 2.2209 7.6436-1.9797c0.0865-2.3027 1.6382-4.374 3.9832-4.9835 2.8615-0.7392 5.7837 0.98052 6.5242 3.8396 0.74167 2.8627-0.97819 5.7851-3.841 6.5268-2.3435 0.60693-4.7076-0.45336-5.8991-2.4223l-15.049 3.8968c-0.81439 0.21148-1.6537-0.2825-1.864-1.097-0.21098-0.81385 0.28301-1.6533 1.097-1.864l-0.57543-2.2208c-0.10581-0.40916 0.13962-0.82618 0.54853-0.9321l1.4805-0.38362c0.40924-0.10646 0.82636 0.139 0.93197 0.54846l0.5754 2.2209 1.4833-0.38182-0.57768-2.2231c-0.10592-0.409 0.13962-0.8262 0.54853-0.93211l1.4805-0.38354c0.41165-0.1043 0.82589 0.13949 0.93465 0.55006zm14.118 2.6628c1.2269-0.31782 1.9649-1.5719 1.6471-2.7988-0.31695-1.2225-1.5733-1.9619-2.7961-1.6455-1.2243 0.31932-1.9624 1.5734-1.6471 2.7988 0.31678 1.223 1.5731 1.9624 2.7961 1.6455z" color="#000000" color-rendering="auto" dominant-baseline="auto" fill="url(#linearGradient1186)" image-rendering="auto" solid-color="#000000" stop-color="#000000" style="font-feature-settings:normal;font-variant-alternates:normal;font-variant-caps:normal;font-variant-east-asian:normal;font-variant-ligatures:normal;font-variant-numeric:normal;font-variant-position:normal;font-variation-settings:normal;inline-size:0;isolation:auto;mix-blend-mode:normal;shape-margin:0;shape-padding:0;text-decoration-color:#000000;text-decoration-line:none;text-decoration-style:solid;text-indent:0;text-orientation:mixed;text-transform:none;white-space:normal"/>
  </g>
  <path d="m166.99 169.28h1.5859v14.291h-1.5859z" fill="url(#linearGradient1281)" style="paint-order:stroke fill markers"/>
  <path d="m166.99 169.28v14.291h1.5859v-14.291z" color="#000000" color-rendering="auto" dominant-baseline="auto" fill="url(#linearGradient1302)" image-rendering="auto" shape-rendering="auto" solid-color="#000000" stop-color="#000000" style="font-feature-settings:normal;font-variant-alternates:normal;font-variant-caps:normal;font-variant-east-asian:normal;font-variant-ligatures:normal;font-variant-numeric:normal;font-variant-position:normal;font-variation-settings:normal;inline-size:0;isolation:auto;mix-blend-mode:normal;paint-order:stroke fill markers;shape-margin:0;shape-padding:0;text-decoration-color:#000000;text-decoration-line:none;text-decoration-style:solid;text-indent:0;text-orientation:mixed;text-transform:none;white-space:normal"/>
  <path d="m166.97 169.28v14.307h1.6172v-14.307h-0.0312v14.275h-1.5547v-14.275z" color="#000000" color-rendering="auto" dominant-baseline="auto" fill="#000" fill-opacity=".14902" image-rendering="auto" shape-rendering="auto" solid-color="#000000" stop-color="#000000" style="font-feature-settings:normal;font-variant-alternates:normal;font-variant-caps:normal;font-variant-east-asian:normal;font-variant-ligatures:normal;font-variant-numeric:normal;font-variant-position:normal;font-variation-settings:normal;inline-size:0;isolation:auto;mix-blend-mode:normal;paint-order:stroke fill markers;shape-margin:0;shape-padding:0;text-decoration-color:#000000;text-decoration-line:none;text-decoration-style:solid;text-indent:0;text-orientation:mixed;text-transform:none;white-space:normal"/>
 </g>
 <g transform="matrix(-3.4004 0 0 3.4004 804.12 -22.448)" fill="url(#linearGradient1186)">
  <path d="m155.32 148.36c-2.0141 9e-3 -4.0185 0.26975-5.9639 0.77483-10.256 2.6614-17.388 11.661-17.388 21.942-3e-4 10.282 7.1316 19.283 17.388 21.944 7.385 1.9167 15.064 0.20309 20.768-4.2304 1.7329 0.21483-2.7521 5.1011-2.4486 5.4162 0.66818 0.69364 6.9161-2.6774 5.0299-7.7543 1.1456-1.2075 2.1778-2.5443 3.043-4.0152 0.18177-0.30904-0.19397-0.56122-0.43051-0.24131-3.4463 4.6609-8.9089 7.373-14.682 7.3732-10.149 4.2e-4 -18.377-8.2792-18.376-18.492 4e-4 -10.212 8.2277-18.491 18.376-18.49 5.7734 2e-4 11.157 2.7719 14.682 7.3732 0.21988 0.28697 0.67207 0.16982 0.43051-0.24131-4.165-7.0888-12.007-11.397-20.428-11.359z" color="#000000" color-rendering="auto" dominant-baseline="auto" fill="url(#linearGradient1186)" image-rendering="auto" shape-rendering="auto" solid-color="#000000" stop-color="#000000" style="font-feature-settings:normal;font-variant-alternates:normal;font-variant-caps:normal;font-variant-east-asian:normal;font-variant-ligatures:normal;font-variant-numeric:normal;font-variant-position:normal;font-variation-settings:normal;inline-size:0;isolation:auto;mix-blend-mode:normal;paint-order:stroke fill markers;shape-margin:0;shape-padding:0;text-decoration-color:#000000;text-decoration-line:none;text-decoration-style:solid;text-indent:0;text-orientation:mixed;text-transform:none;white-space:normal"/>
  <path d="m156.57 158.9h1.5859v24h-1.5859z" fill="url(#linearGradient1351)" style="paint-order:stroke fill markers"/>
  <path d="m156.57 158.9v23.984h1.5859v-23.984z" color="#000000" color-rendering="auto" dominant-baseline="auto" fill="url(#linearGradient1374)" image-rendering="auto" shape-rendering="auto" solid-color="#000000" stop-color="#000000" style="font-feature-settings:normal;font-variant-alternates:normal;font-variant-caps:normal;font-variant-east-asian:normal;font-variant-ligatures:normal;font-variant-numeric:normal;font-variant-position:normal;font-variation-settings:normal;inline-size:0;isolation:auto;mix-blend-mode:normal;paint-order:stroke fill markers;shape-margin:0;shape-padding:0;text-decoration-color:#000000;text-decoration-line:none;text-decoration-style:solid;text-indent:0;text-orientation:mixed;text-transform:none;white-space:normal"/>
  <path d="m156.57 158.89-0.0156 24h1.6172l0.0156-24zm0.0312 0.0312h1.5547l-0.0156 23.938h-1.5547z" color="#000000" color-rendering="auto" dominant-baseline="auto" fill="url(#linearGradient1186)" fill-opacity=".14902" image-rendering="auto" shape-rendering="auto" solid-color="#000000" stop-color="#000000" style="font-feature-settings:normal;font-variant-alternates:normal;font-variant-caps:normal;font-variant-east-asian:normal;font-variant-ligatures:normal;font-variant-numeric:normal;font-variant-position:normal;font-variation-settings:normal;inline-size:0;isolation:auto;mix-blend-mode:normal;paint-order:stroke fill markers;shape-margin:0;shape-padding:0;text-decoration-color:#000000;text-decoration-line:none;text-decoration-style:solid;text-indent:0;text-orientation:mixed;text-transform:none;white-space:normal"/>
  <path d="m166.99 158.05h1.5859v25.522h-1.5859z" fill="url(#linearGradient1281)" style="paint-order:stroke fill markers"/>
  <g shape-rendering="auto">
   <path d="m166.97 158.03v11.246h0.0312v-11.215h1.5547v11.215h0.0312v-11.246z" color="#000000" color-rendering="auto" dominant-baseline="auto" fill="url(#linearGradient1186)" fill-opacity=".14902" image-rendering="auto" solid-color="#000000" stop-color="#000000" style="font-feature-settings:normal;font-variant-alternates:normal;font-variant-caps:normal;font-variant-east-asian:normal;font-variant-ligatures:normal;font-variant-numeric:normal;font-variant-position:normal;font-variation-settings:normal;inline-size:0;isolation:auto;mix-blend-mode:normal;paint-order:stroke fill markers;shape-margin:0;shape-padding:0;text-decoration-color:#000000;text-decoration-line:none;text-decoration-style:solid;text-indent:0;text-orientation:mixed;text-transform:none;white-space:normal"/>
   <path d="m166.99 158.05h1.5859v11.231h-1.5859z" color="#000000" color-rendering="auto" dominant-baseline="auto" fill="url(#linearGradient1291)" image-rendering="auto" solid-color="#000000" stop-color="#000000" style="font-feature-settings:normal;font-variant-alternates:normal;font-variant-caps:normal;font-variant-east-asian:normal;font-variant-ligatures:normal;font-variant-numeric:normal;font-variant-position:normal;font-variation-settings:normal;inline-size:0;isolation:auto;mix-blend-mode:normal;paint-order:stroke fill markers;shape-margin:0;shape-padding:0;text-decoration-color:#000000;text-decoration-line:none;text-decoration-style:solid;text-indent:0;text-orientation:mixed;text-transform:none;white-space:normal"/>
   <g fill="url(#linearGradient1186)">
    <path d="m168.55 164.17c-0.68998-0.10227-1.4114-0.0721-2.1289 0.11328-2.347 0.61006-3.8997 2.6825-3.9922 4.9863l-7.6191 1.9746-0.57031-2.207c-0.11093-0.41877-0.5352-0.66693-0.95508-0.56054l-1.4805 0.38281c-0.41727 0.10808-0.66863 0.53576-0.56054 0.95312l0.57422 2.207-1.4512 0.37305-0.57226-2.2051c-0.10777-0.41782-0.53357-0.66918-0.95117-0.56054l-1.4805 0.38476c-0.41728 0.10809-0.66852 0.53366-0.56055 0.95117l0.57422 2.2109c-0.81198 0.22024-1.3074 1.0566-1.0957 1.873 0.21248 0.82292 1.06 1.323 1.8828 1.1094l15.041-3.8945c1.1971 1.9678 3.5621 3.0275 5.9082 2.4199 2.8712-0.7438 4.5974-3.6758 3.8535-6.5469-0.55701-2.1506-2.3461-3.658-4.416-3.9648zm-1.3534 3.1054c1.2143-0.31419 2.4626 0.42069 2.7774 1.6348 0.31563 1.2185-0.41823 2.4636-1.6367 2.7793-1.2145 0.31468-2.4608-0.4202-2.7754-1.6348-0.31311-1.217 0.41882-2.4622 1.6348-2.7793z" color="#000000" color-rendering="auto" dominant-baseline="auto" fill-opacity=".14902" image-rendering="auto" solid-color="#000000" stop-color="#000000" style="font-feature-settings:normal;font-variant-alternates:normal;font-variant-caps:normal;font-variant-east-asian:normal;font-variant-ligatures:normal;font-variant-numeric:normal;font-variant-position:normal;font-variation-settings:normal;inline-size:0;isolation:auto;mix-blend-mode:normal;shape-margin:0;shape-padding:0;text-decoration-color:#000000;text-decoration-line:none;text-decoration-style:solid;text-indent:0;text-orientation:mixed;text-transform:none;white-space:normal"/>
    <path d="m154.22 169.04 0.57514 2.2209 7.6436-1.9797c0.0865-2.3027 1.6382-4.374 3.9832-4.9835 2.8615-0.7392 5.7837 0.98052 6.5242 3.8396 0.74167 2.8627-0.97819 5.7851-3.841 6.5268-2.3435 0.60693-4.7076-0.45336-5.8991-2.4223l-15.049 3.8968c-0.81439 0.21148-1.6537-0.2825-1.864-1.097-0.21098-0.81385 0.28301-1.6533 1.097-1.864l-0.57543-2.2208c-0.10581-0.40916 0.13962-0.82618 0.54853-0.9321l1.4805-0.38362c0.40924-0.10646 0.82636 0.139 0.93197 0.54846l0.5754 2.2209 1.4833-0.38182-0.57768-2.2231c-0.10592-0.409 0.13962-0.8262 0.54853-0.93211l1.4805-0.38354c0.41165-0.1043 0.82589 0.13949 0.93465 0.55006zm14.118 2.6628c1.2269-0.31782 1.9649-1.5719 1.6471-2.7988-0.31695-1.2225-1.5733-1.9619-2.7961-1.6455-1.2243 0.31932-1.9624 1.5734-1.6471 2.7988 0.31678 1.223 1.5731 1.9624 2.7961 1.6455z" color="#000000" color-rendering="auto" dominant-baseline="auto" image-rendering="auto" solid-color="#000000" stop-color="#000000" style="font-feature-settings:normal;font-variant-alternates:normal;font-variant-caps:normal;font-variant-east-asian:normal;font-variant-ligatures:normal;font-variant-numeric:normal;font-variant-position:normal;font-variation-settings:normal;inline-size:0;isolation:auto;mix-blend-mode:normal;shape-margin:0;shape-padding:0;text-decoration-color:#000000;text-decoration-line:none;text-decoration-style:solid;text-indent:0;text-orientation:mixed;text-transform:none;white-space:normal"/>
   </g>
  </g>
  <path d="m166.99 169.28h1.5859v14.291h-1.5859z" fill="url(#linearGradient1281)" style="paint-order:stroke fill markers"/>
  <path d="m166.99 169.28v14.291h1.5859v-14.291z" color="#000000" color-rendering="auto" dominant-baseline="auto" fill="url(#linearGradient1302)" image-rendering="auto" shape-rendering="auto" solid-color="#000000" stop-color="#000000" style="font-feature-settings:normal;font-variant-alternates:normal;font-variant-caps:normal;font-variant-east-asian:normal;font-variant-ligatures:normal;font-variant-numeric:normal;font-variant-position:normal;font-variation-settings:normal;inline-size:0;isolation:auto;mix-blend-mode:normal;paint-order:stroke fill markers;shape-margin:0;shape-padding:0;text-decoration-color:#000000;text-decoration-line:none;text-decoration-style:solid;text-indent:0;text-orientation:mixed;text-transform:none;white-space:normal"/>
  <path d="m166.97 169.28v14.307h1.6172v-14.307h-0.0312v14.275h-1.5547v-14.275z" color="#000000" color-rendering="auto" dominant-baseline="auto" fill="url(#linearGradient1186)" fill-opacity=".14902" image-rendering="auto" shape-rendering="auto" solid-color="#000000" stop-color="#000000" style="font-feature-settings:normal;font-variant-alternates:normal;font-variant-caps:normal;font-variant-east-asian:normal;font-variant-ligatures:normal;font-variant-numeric:normal;font-variant-position:normal;font-variation-settings:normal;inline-size:0;isolation:auto;mix-blend-mode:normal;paint-order:stroke fill markers;shape-margin:0;shape-padding:0;text-decoration-color:#000000;text-decoration-line:none;text-decoration-style:solid;text-indent:0;text-orientation:mixed;text-transform:none;white-space:normal"/>
 </g>
</svg>
