<svg viewBox="0 0 998.32 963.86" xmlns="http://www.w3.org/2000/svg">
 <defs>
  <linearGradient id="a" x1="135.01" x2="770.2" y1="857.62" y2="118.41" gradientUnits="userSpaceOnUse">
   <stop stop-color="#155d2b" offset="0"/>
   <stop stop-color="#b1d125" offset=".473"/>
   <stop stop-color="#155d2b" offset="1"/>
  </linearGradient>
 </defs>
 <g fill="url(#a)">
  <path d="m83.75 652.35c-6.549-1.973 1.216-6.61 19.687-11.757 26.19-7.298 103.43-23.653 144.1-30.513 94.54-15.946 164.84-21.347 276.53-21.245 74.57 0.068 118 1.942 173.12 7.469 50.829 5.096 111.74 14.346 163.75 24.867 4.813 0.973 18.312 3.585 30 5.803 41.26 7.83 56.875 12.259 56.875 16.13 0 4.387-33.503 4.705-77.5 0.737-37.946-3.423-95.24-6.915-136.88-8.343-60.28-2.068-374.37-2.172-417.5-0.138-62.5 2.948-99.86 6.02-172.5 14.165-22.397 2.513-55.52 4.08-59.687 2.825z"/>
  <path d="m895.57 596.82c-25.822-4.648-48.718-22.19-60.761-46.561-11.06-22.37-12.38-42.927-3.857-59.894 1.655-3.295 2.739-5.99 2.409-5.99s-2.697 1.369-5.261 3.041c-5.591 3.649-17.846 6.959-25.765 6.959-7.472 0-17.06-3.708-23.738-9.179-5.878-4.816-17.593-20.971-19.801-27.304l-1.408-4.04-1.554 7.617c-2.052 10.06-6.509 20.88-13.08 31.759-8.87 14.681-19.87 24.26-35 30.492-26.658 10.973-56.918 8.274-76.98-6.865-7.55-5.698-10.1-9.538-16.285-24.488-4.257-10.296-4.604-12.09-4.697-24.24-0.089-11.689 0.26-13.894 3.194-20.15 6.932-14.784 20.03-24.18 33.697-24.18 5.605 0 8.258 0.756 13.14 3.744 14.328 8.767 15.736 27.305 2.519 33.15-7.651 3.384-12.833 1.342-15.06-5.936-1.219-3.98 3.385-8.447 6.815-6.611 1.359 0.727 2.471 1.934 2.471 2.682 0 0.875-0.687 0.789-1.928-0.241-1.348-1.119-2.323-1.205-3.242-0.286-2.182 2.182-0.645 5.828 2.997 7.109 2.752 0.968 4.105 0.702 6.863-1.35 2.734-2.034 3.512-3.73 3.814-8.31 1.134-17.232-21.17-23.366-34.377-9.455-9.02 9.5-11.805 21.55-8.05 34.819 8.724 30.827 38.956 41.85 72.67 26.498 17.241-7.85 29.08-25.19 33.886-49.606 2.357-11.982 2.1-40.709-0.503-56.25-2.101-12.54-8.208-33.657-11.346-39.23l-1.677-2.978-1.43 4.102c-0.786 2.256-1.43 10.505-1.43 18.331 0 9.483-0.594 15.65-1.78 18.489-1.802 4.312-1.861 4.34-13.22 6.12-1.031 0.162 1.107 1.031 4.752 1.932 4.98 1.231 6.53 2.147 6.236 3.685-0.336 1.759-3.21 2.148-20.377 2.758-21.62 0.769-20.826 0.574-33.88 8.308-17.396 10.306-43.52 14.575-61.15 9.991l-6.21-1.615 6.01 6c13.11 13.1 17.996 33.611 12.134 50.978-4.451 13.187-16.451 29.46-29.336 39.781-10 8.01-19.15 13.04-31.31 17.22-8.974 3.083-11.732 3.436-26.875 3.439-15.07 0-18.01-0.369-27.5-3.467-14.762-4.821-24.465-10.403-39.11-22.503-10.613-8.767-26.11-31.23-30.867-44.73-2.538-7.208-3.036-6.258-4.392 8.384-0.538 5.804-2.057 11.357-4.513 16.492-7.168 14.986-26.542 28.839-47.06 33.648-10.452 2.45-34.864 1.765-45.833-1.286-30.362-8.444-56.57-30.433-72.61-60.919-4.324-8.217-6.817-11.875-6.834-10.03-0.015 1.598-2.526 6.769-5.58 11.491-11.577 17.897-23.21 25.56-38.462 25.334-8.761-0.13-19.398-2.959-24.734-6.577-6.167-4.182-6.451-4.073-3.651 1.403 6.234 12.194 7.612 25.21 4.323 40.844-5.276 25.08-22.744 47.984-44.884 58.843-14.589 7.156-22.699 8.884-41.594 8.862-26.15-0.03-40.09-4.635-53.762-17.755-22.03-21.09-30.896-40.29-30.789-66.59 0.12-29.5 13.522-58.16 40.2-85.96 13.161-13.72 36.58-32.02 53.27-41.63 27.482-15.82 46-32.2 61.04-54.02l5.928-8.599 0.028-43.544-6.324-0.378c-5.773-0.345-6.324-0.644-6.324-3.438 0-2.834 0.456-3.06 6.193-3.06h6.193l0.74-16.876h8.75l0.74 16.876h6.818c6.439 0 6.818 0.174 6.818 3.125 0 2.954-0.375 3.125-6.875 3.125h-6.875v21.332c0 13.637 0.518 22.317 1.435 24.06 6.496 12.36 24.709 37.08 36.08 48.98 7.229 7.563 14.873 15.95 16.987 18.638l3.843 4.888 0.826-17.388c0.454-9.563 1.621-21.356 2.592-26.21 2.904-14.506 20.873-49.571 35.19-68.68 16.87-22.511 64.771-63.836 108.66-93.75 31.411-21.404 59.01-46.634 84.1-76.89 15.701-18.929 16.33-20.01 20.794-35.734 2.635-9.282 3.228-14.04 3.228-25.938v-14.568h-20v-11.25h19.912l0.356-12.812 0.35-12.81h13.75l0.358 25 21.516 0.722v11.152h-21.876l0.742 16.565c0.684 15.262 2.97 27.459 7.264 38.752 2.349 6.179 22.393 29.648 42.526 49.794 20.724 20.737 32.972 31.29 49.945 43.02 64.54 44.61 98.94 75.46 121.94 109.38 8.81 12.987 21.736 39.19 26.819 54.37 4.822 14.401 9.698 39.12 10.77 54.59l0.837 12.09 4.398-8.289c5.639-10.63 12.896-19.916 24.13-30.882 14.12-13.774 26.684-31.857 36.36-52.32 3.519-7.438 3.635-8.296 3.636-26.747l1e-4 -19.06h-6.875c-6.5 0-6.875-0.17-6.875-3.125 0-2.954 0.375-3.125 6.875-3.125h6.875v-17.5h8.75v17.5h7.5c7.126 0 7.5 0.153 7.5 3.063 0 2.852-0.495 3.089-7.188 3.438l-7.188 0.375v38.924l4.857 9.288c2.671 5.108 6.485 11.665 8.476 14.569 8.189 11.949 26.912 27.346 50.31 41.37 53.56 32.11 85.7 69.02 95.43 109.6 2.559 10.677 2.776 31.11 0.431 40.625-3.731 15.13-13.147 30.536-27.14 44.39-9.686 9.592-17.776 14.427-29.4 17.571-8.367 2.263-35.728 3.327-44.58 1.733zm-792.13-23.68c17.241-2.801 38.22-17.907 45.931-33.07 3.581-7.04 3.857-8.534 3.946-21.323 0.086-12.367-0.238-14.463-3.216-20.844-4.484-9.606-12.251-17.694-21.364-22.248-6.433-3.214-8.998-3.783-17.06-3.782-15.203 1e-4 -27.01 6.772-33.494 19.211-3.122 5.986-2.933 19.661 0.334 24.05 4.584 6.155 8.741 8.424 15.617 8.524 5.684 0.082 6.782-0.355 10.03-3.99 4.737-5.299 4.845-10.421 0.295-14-3.804-2.992-6.378-2.911-8.378 0.265-1.028 1.632-0.949 2.894 0.314 5l1.689 2.817-2.832-2.732c-2.714-2.618-2.745-2.865-0.732-5.938 4.534-6.92 15.793-1.803 15.793 7.177 0 5.439-4.464 12.12-10.03 14.993-8.282 4.286-22.711-0.1-28.28-8.597-1.162-1.774-3.128-6.134-4.368-9.69l-2.255-6.464 0.276 11.581c0.239 10.04-0.013 11.672-1.892 12.265-2.23 0.705-10.957 10.608-10.957 12.434 0 1.311-3.855 5.595-5.03 5.595-0.493 0-1.24-2.672-1.659-5.938s-1.123-7.811-1.566-10.1c-0.442-2.29-0.211-5.384 0.515-6.875s1.995-4.961 2.819-7.711c2.487-8.291 8.496-19.572 14.527-27.27l5.696-7.272-4.574 0.858c-6.289 1.18-14.78-1.441-19.02-5.872-2.634-2.75-3.678-5.299-4.169-10.18l-0.655-6.512-2.904 4.671c-5.812 9.347-9.173 22.886-9.858 39.704-0.592 14.535-0.403 16.323 2.704 25.625 6.663 19.944 20.822 36.22 36.3 41.711 13.391 4.756 24.966 5.969 37.511 3.931zm828.59-3.312c7.85-2.812 11.29-4.922 17-10.428 9.172-8.838 15.417-18.654 19.381-30.463 6.615-19.705 2.332-54.849-8.385-68.803-1.665-2.169-1.823-1.87-1.906 3.617-0.106 7.02-2.897 11.494-9.15 14.682-4.901 2.499-15.02 2.886-19.06 0.729-2.059-1.101-1.693-0.278 1.492 3.35 10.09 11.491 17.355 27.14 20.2 43.49 1.235 7.092 1.085 8.987-1.339 16.969-3.068 10.1-4.381 10.244-8.532 0.924-1.261-2.831-4.096-7.07-6.3-9.412l-4.01-4.264 1.481-11.762c1.726-13.713 1.022-24.734-1.905-29.84l-2.06-3.62 1 3.75c1.807 6.759 1.082 22.15-1.249 26.522-6.534 12.246-21.18 17.647-32.05 11.818-4.739-2.542-8.827-9.07-8.827-14.09 0-9.673 14.14-14.75 16.894-6.067 0.853 2.687-1.204 6.205-3.609 6.172-0.847-0.011-0.742-0.442 0.262-1.079 0.92-0.583 1.482-2.402 1.25-4.04-0.592-4.184-6.158-4.727-9.681-0.945-3.789 4.067-3.276 8.176 1.634 13.09 5.516 5.516 12.632 5.885 19.653 1.019 6.598-4.572 9.07-10.405 8.245-19.473-1.659-18.291-19.12-31.32-39.5-29.477-13.801 1.251-28.25 12.221-34.607 26.28-3.121 6.898-3.515 9.2-3.486 20.341 0.048 18.206 4.414 27.19 19.481 40.08 6.95 5.946 18.617 12.13 26.737 14.176 2.669 0.672 10.758 1.011 17.977 0.755 10.425-0.371 15.15-1.192 22.966-3.992zm-395.72-51.17c24.677-5.04 49.08-22.12 57.48-40.22 2.766-5.957 3.332-8.92 3.298-17.269-0.037-9.118-0.458-10.845-4.423-18.12-5.162-9.478-13.04-15.56-21.883-16.886-13.326-1.998-25.466 6.694-25.466 18.234 0 10.725 11.02 17.714 17.577 11.153 2.992-2.993 2.781-7.194-0.463-9.171-1.809-1.103-2.649-0.879-4.206 1.122-1.07 1.375-1.707 1.696-1.415 0.714 1.059-3.566 4.433-4.52 7.183-2.031 5.086 4.603 1.902 12.5-5.609 13.909-13.778 2.585-21.807-14.863-13.13-28.54 4.524-7.134 11.504-10.956 21.697-11.88l7.438-0.675-7.134-3.551c-13.183-6.562-22.08-13.976-37.23-31.04-33.65-37.88-62.62-67.739-71.59-73.79-11.369-7.672-22.939-12.9-38.02-17.18-10.715-3.04-13.938-3.388-30.721-3.311-20.1 0.092-26.833 1.572-38.668 8.508-7.01 4.108-17.28 15.242-21.2 22.989-2.92 5.762-3.252 7.829-3.252 20.248 0 15.823 2.866 26.885 8.537 32.945 5.966 6.377 17.558 14.641 26.17 18.656 7.553 3.522 9.645 3.931 20.296 3.964 10.416 0.032 12.797-0.392 19.375-3.452 13.446-6.253 24.375-19.962 24.375-30.574 0-6.239-5.422-17.03-10.306-20.505-2.371-1.688-6.374-2.945-10.463-3.284-6.06-0.503-6.945-0.228-10.427 3.255-4.356 4.356-5.105 10.487-1.735 14.21 4.02 4.445 11.186 2.21 10.158-3.168-0.339-1.771-0.134-2.923 0.454-2.559 1.775 1.097 1.204 5.793-0.999 8.227-4.538 5.01-14.237 1.567-16.715-5.941-4.095-12.409 10.681-24.96 25.627-21.768 8.74 1.867 14.954 6.369 19.407 14.06l3.799 6.561-0.848-5.551c-0.466-3.053-1.599-6.991-2.517-8.75-1.628-3.119-1.56-3.209 2.698-3.587 2.402-0.213 4.346-0.776 4.32-1.25s-2.245-2.382-4.931-4.239c-6.498-4.493-8.976-8.56-9.409-15.441-0.198-3.138-1.273-6.716-2.391-7.951-1.205-1.332-1.69-3.135-1.191-4.435 0.711-1.854 2.084-2.11 8.955-1.673 7.179 0.457 8.454 0.941 11.06 4.196 4.688 5.858 8.449 18.69 8.404 28.68-0.056 12.519-4.135 24.453-17.697 51.771-3.294 6.635-11.777 15.308-19.536 19.972-7.342 4.414-21.04 8.849-27.564 8.927-3.267 0.039-2.894 0.363 2.763 2.399 13.803 4.968 24.16 16.14 28.335 30.554l1.472 5.083 1.546-11.612c2.589-19.443 8.761-31.38 23.22-44.906 33.388-31.23 82.31-27.309 99.7 7.997 5.495 11.161 6.193 21.59 2.049 30.604-6.232 13.559-14.883 19.835-27.336 19.835-12.1 0-19.898-7.01-19.898-17.889 0-9.03 11.16-15.772 16.786-10.146 1.08 1.08 1.964 2.612 1.964 3.403s-0.876 0.189-1.946-1.339c-3.967-5.664-12.922-1.977-14.938 6.15-0.851 3.432 1.405 9.165 5.04 12.796 6.502 6.502 22.1 4.462 29.396-3.844 9.406-10.712 10.802-20.962 4.679-34.34-6.429-14.04-17.373-22.288-33.18-24.999-31.503-5.402-63.03 17.05-70.918 50.51-3.917 16.615-1.841 29.18 7.202 43.607 20.733 33.07 58.785 49.41 96.91 41.616zm-24.03-85.9c0.469-1.233 1.168-1.927 1.553-1.542s1e-4 1.394-0.853 2.241c-1.235 1.225-1.378 1.082-0.7-0.7zm-115.71-80.1c0-0.26 0.984-1.244 2.188-2.188 1.983-1.555 2.027-1.511 0.472 0.472-1.633 2.082-2.659 2.744-2.659 1.716zm-22.09 147.88c10.04-3.894 18.767-12.09 24.04-22.559 4.01-7.963 4.297-9.339 4.297-20.6 0-11.167-0.285-12.564-3.821-18.744-10.777-18.836-32.719-24.14-42.581-10.289-6.613 9.286-2.374 23.537 7 23.537 2.891 0 8.259-5.761 7.416-7.959-1.229-3.204-4.274-3.455-5.551-0.458-1.167 2.74-1.184 2.733-0.89-0.321 0.373-3.871 3.992-4.769 7.268-1.804 4.581 4.146 2.32 10.91-4.617 13.809-3.921 1.638-4.832 1.581-9.794-0.614-7.403-3.274-10.06-7.644-10.06-16.554 0-5.914 0.647-8.06 3.783-12.555 3.442-4.931 10.04-9.363 17.467-11.725 1.784-0.568-0.102-1.465-6.588-3.133-29.874-7.684-47.11-26.13-53.915-57.728-3.696-17.15-3.183-28.414 1.889-41.512 1.521-3.928-9.884 4.88-18.734 14.468-17.16 18.588-26.611 41.35-29.01 69.834l-0.895 10.625 7.688-7.736c4.229-4.255 7.688-7.189 7.688-6.521s-1.335 3.868-2.967 7.111c-6.876 13.665-11.832 34.02-8.283 34.02 0.688 0 1.25-1.867 1.25-4.148 0-6.802 3.332-15.914 9.341-25.548 4.35-6.974 5.668-10.298 5.701-14.375l0.042-5.304 2.553 7.424c1.404 4.083 3.354 8.568 4.333 9.966 2.164 3.09 2.3 7.215 0.303 9.212-0.812 0.812-1.882 4.916-2.378 9.12-0.778 6.596-1.474 8.126-5.086 11.17-3.355 2.828-3.877 3.844-2.631 5.122 1.243 1.275 1.012 2.171-1.155 4.478l-2.709 2.884h2.853c2.426 0 2.735 0.472 2.062 3.152-0.545 2.17-0.221 3.371 1.038 3.854 1.01 0.386 2.198 2.38 2.649 4.432 0.451 2.051 1.589 4.03 2.529 4.386 2.664 1.022 3.366 5.01 1.696 9.63-4.727 13.07 17.409 29.07 47.679 34.457 11.262 2 30.677 0.759 39.09-2.507zm-172.29-25.39c7.657-3.62 12.1-8.208 15.87-16.396 4-8.691 3.949-25.534-0.117-35.94-8.154-20.865-27.35-32.771-52.628-32.639-10.09 0.053-13.09 0.579-19.943 3.506-15.04 6.421-29.41 19.986-43.863 41.4-7.711 11.427-20.15 34.29-18.651 34.29 0.582 0 1.413-0.573 1.846-1.274 1.383-2.238 12.264-7.118 19.11-8.571 16.11-3.418 34.02 0.613 47.44 10.676 3.706 2.779 5.547 2.615 3.02-0.269-1.825-2.086-3.962-11.296-3.933-16.958 0.074-14.784 13.577-26.802 27.24-24.24 9.479 1.778 15.63 13.65 10.587 20.435-3.294 4.432-9.381 5.13-12.01 1.377-2.077-2.966-1.636-5.604 1.114-6.659 1.416-0.543 1.481-0.228 0.331 1.613-3.293 5.274 3.052 8.715 7.93 4.301 5.137-4.649 1.452-14.469-6.29-16.76-10.513-3.111-20.18 4.758-20.18 16.432 0 7.781 1.362 11.129 7.132 17.522 9.326 10.335 24.23 13.707 35.993 8.145zm617.03 1.069c12.183-4.151 19.847-14.14 19.832-25.853-0.014-11.01-5.697-17.11-16.02-17.193-4.345-0.036-6.127 0.674-9.06 3.61-3.578 3.579-4.782 8.975-2.697 12.1 1.508 2.258 6.23 4.291 8.205 3.534 2.785-1.069 3.441-5.344 1.035-6.749-1.139-0.665-1.481-1.226-0.759-1.247 1.793-0.052 4.313 2.611 4.313 4.558 0 0.878-1.41 2.52-3.132 3.649-2.592 1.698-3.75 1.796-6.713 0.569-7.674-3.179-7.985-13.57-0.599-20.06 3.709-3.257 5.252-3.759 11.55-3.759 6.125 0 8.1 0.602 12.552 3.827 9.617 6.967 12.716 20.49 7.712 33.66-1.309 3.445-2.115 6.263-1.792 6.263 0.324 0 2.41-1.389 4.636-3.087 10.771-8.215 26.946-12.302 41.526-10.492 10.956 1.36 14.07 2.43 21.33 7.331 4.892 3.302 7.267 3.615 4.26 0.561-0.643-0.653-2.956-4.844-5.139-9.313-5.56-11.383-18.343-30.395-26.827-39.902-10.422-11.678-18.906-18.638-28.12-23.07-7.719-3.712-8.874-3.906-23.12-3.889-13.679 0.016-15.75 0.333-23.517 3.602-16.622 6.996-28.06 21.59-30.964 39.51-2.927 18.05 4.183 34.3 18.231 41.677 4.815 2.527 16.11 2.604 23.285 0.159zm-750.74-7.05c4.112-3.61 12.591-18.366 14.964-26.04 2.229-7.21 13.762-29.862 18.296-35.938 2.694-3.609 4.587-6.563 4.207-6.563s-9.258 6.371-19.728 14.159c-19.14 14.235-38.603 31.434-41.12 36.33-1.112 2.168-1.059 2.358 0.301 1.072 2.15-2.032 7.577-2 10.396 0.062 3.268 2.39 2.282 8.873-1.431 9.4-2.038 0.289-2.807-0.227-2.793-1.875 0.016-1.911 0.208-1.976 1.198-0.41 1.551 2.454 4.452-0.193 3.352-3.059-1.943-5.064-10.04-3.216-11.144 2.543-1.591 8.322 4.01 14.13 13.719 14.226 4.175 0.04 6.205-0.772 9.779-3.91zm880.94 1.445c5.778-4.545 5.575-13.06-0.389-16.25-1.742-0.932-3.209-0.928-4.971 0.015-3.375 1.806-3.323 6.25 0.074 6.25 1.627 0 2.246-0.531 1.682-1.443-0.577-0.934-0.34-1.102 0.671-0.477 1.213 0.75 1.131 1.399-0.369 2.898-1.619 1.619-2.256 1.663-3.933 0.272-5.405-4.486 1.713-12.675 8.706-10.02 3.037 1.154 2.867 0.732-2.047-5.096-7.875-9.339-27.536-25.395-53.12-43.38-3.947-2.774-3.942-2.757 1.518 5.385 5.42 8.08 14.358 25.73 17.491 34.535 3.679 10.339 11.175 23.86 14.823 26.736 5.097 4.02 15.11 4.305 19.862 0.569zm-321.7-72.44c17.13-2.476 30.21-12.462 39.31-30.01 5.302-10.224 7.463-19.283 7.463-31.28 0-19.18-5.884-33.23-19.704-47.05-9.902-9.905-12.206-10.93-29.796-13.257-31.2-4.127-54.784 11.348-57.917 38-1.226 10.429 2.037 19.788 9.05 25.96 6.144 5.408 10.699 6.762 16.946 5.04 5.12-1.414 8.923-5.18 11.529-11.416 1.749-4.186 1.727-4.788-0.264-7.247-2.75-3.396-5.914-2.328-7.622 2.572-1.55 4.445-4.413 4.691-7.087 0.609-1.643-2.508-1.722-3.549-0.45-5.938 3.892-7.305 10.614-8.04 16.811-1.845 5.12 5.12 6.181 8.928 4.364 15.672-2.716 10.09-13.181 17.652-24.416 17.652-11.04 0-23.575-8.418-29.932-20.1-4.244-7.798-5.668-21.17-3.276-30.79 4.374-17.584 16.483-31.966 34.07-40.465 5.713-2.76 9.262-4.749 7.887-4.418-10.61 2.549-24.63 6.697-36.25 10.725-7.563 2.622-20.5 6.62-28.75 8.885-13.11 3.6-16.889 4.118-30 4.111-12.02-1e-3 -16.485-0.529-22.488-2.637-4.119-1.446-7.637-2.481-7.819-2.299s3.188 3.279 7.488 6.883c12.993 10.889 35.511 33.615 48.4 48.852 30.13 35.609 45.45 50.744 58.62 57.909 12.04 6.553 26.11 8.441 43.831 5.88zm57.37-5.02c4.259-3.085 5.487-4.972 7.119-10.938 1.085-3.965 2.839-9.158 3.898-11.539 2.64-5.936 11.256-15.996 15.642-18.264l3.615-1.87-8.121-15.893c-8.08-15.81-15.363-28.16-13.795-23.394 2.036 6.192 4.369 21.546 4.369 28.75 0 10.2-2.828 24.873-6.424 33.33-3.066 7.211-10.265 19.15-12.311 20.41-1.536 0.949-1.677 3.134-0.202 3.134 0.584 0 3.378-1.678 6.209-3.728zm170.83-22.799c-6.735-5.455-13.591-12.891-18.443-20-2.216-3.248-4.313-5.92-4.661-5.938s-1.327 1.515-2.177 3.405c-0.849 1.891-4.655 8.147-8.457 13.903-5.874 8.892-6.486 10.33-4.074 9.566 1.562-0.495 7.902-1.154 14.09-1.466 8.751-0.441 13.05-0.029 19.375 1.855 4.469 1.332 8.394 2.486 8.722 2.563 0.329 0.078-1.64-1.671-4.375-3.886zm-710.49 1.01c9.901-3.01 21.02-3.616 29.599-1.626l7.832 1.817-2.566-3.9c-1.411-2.145-5.43-8.516-8.93-14.158l-6.364-10.258-4.63 7.133c-2.546 3.923-8.401 10.649-13.01 14.946s-8.22 7.806-8.02 7.799c0.197-1e-3 2.938-0.796 6.091-1.753zm304.09-107.29c-3.396-3.609-9.788-11.856-14.205-18.325-9.97-14.602-18.724-23.384-25.26-25.344-10.542-3.158-23.29 4.086-25.21 14.326-2.37 12.635 12.244 22.679 18.688 12.844 1.564-2.387 1.681-3.58 0.556-5.681-1.554-2.904-7.143-3.073-6.536-0.198 0.189 0.894-0.234 1.268-0.941 0.832-0.874-0.54-0.857-1.592 0.053-3.293 1.964-3.67 7.572-2.676 9.666 1.713 2.02 4.229-0.055 9.619-4.44 11.546-1.544 0.679-2.807 1.559-2.807 1.956s8.251 2.288 18.335 4.201c17.696 3.358 29.601 6.9 34.756 10.339 4.245 2.832 3.716 1.851-2.652-4.918zm-109.81-2.645c10.834-4.476 25-7.04 38.882-7.04h12.11l-4.247-2.859c-2.336-1.572-5.087-4.526-6.112-6.563-2.769-5.498-2.298-15.487 0.992-21.06 1.514-2.566 2.048-4.256 1.188-3.756-8.827 5.13-57.14 46.843-52.19 45.06 1.031-0.372 5.25-2.07 9.375-3.775zm185.71-0.272c4.866-1.107 14.291-4.231 20.944-6.942 27.988-11.405 59.879-16.03 78.85-11.44 1.9 0.46 2.706 0.253 2.201-0.566-0.786-1.272-25.636-20.595-45.2-35.15-13.597-10.114-43.979-37.32-56.54-50.644-12.05-12.77-24.456-28.501-30.344-38.471l-4.172-7.06-3.981 6.612c-5.716 9.493-17.533 24.944-26.04 34.05-4.03 4.315-7.02 7.845-6.634 7.845 0.383 0 2.557-1.085 4.831-2.41 8.927-5.205 29.12-6.231 39.25-1.995 2.188 0.914 6.321 3.779 9.185 6.367 14.1 12.739 17.281 31.16 7.335 42.489-11.338 12.914-31.02 9.178-31.02-5.888 0-7.03 8.06-12.502 12.25-8.313 1.695 1.695 2.05 7.25 0.463 7.25-0.57 0-0.992-1.266-0.938-2.813 0.071-2.023-0.71-2.927-2.782-3.221-6.691-0.948-8.916 7.475-3.425 12.965 8.217 8.217 23.18-1.112 23.18-14.452 0-6.46-5.829-15.699-12.675-20.09-7.158-4.593-17.918-6.096-26.481-3.699-18.858 5.28-30.895 28.706-27.27 53.08 1.836 12.341 5.666 19.704 14.73 28.316 16.564 15.739 37.32 20.321 64.28 14.189zm-96.06-51.61c-0.638-11.02 2.326-22.503 7.945-30.783 4.289-6.321 3.781-6.832-1.649-1.656-5.771 5.502-36.11 30.884-40.35 33.759-2.979 2.02-2.91 2.033 1.91 0.367 11.413-3.944 20.548-1.681 32.606 8.08 0.058 0.047-0.151-4.347-0.464-9.764z"/>
  <path d="m887.81 963.58c-21.486-1.938-39.882-6.551-53.35-13.377-9.668-4.9-10.4-6.509-10.4-22.879 0-7.697 0.341-14.884 0.759-15.972 1.133-2.953 5.545-2.396 11.139 1.406 15.359 10.439 31.989 15.296 55.6 16.239 14.842 0.593 18.11 0.34 27.14-2.097 21.292-5.75 30.771-16.54 30.771-35.02 0-25.05-14.581-33.28-63.25-35.709-18.811-0.937-18.413-0.61-18.413-15.18 0-14.709 0.111-14.796 20.25-15.849 35.24-1.842 51.49-9.798 56.713-27.754 4.56-15.686-0.142-30.585-11.878-37.641-8.877-5.336-17.89-7.04-33.535-6.346-11.574 0.515-13.682 0.996-21.18 4.838-6.231 3.194-9.76 6.105-14.04 11.58-7.01 8.981-10.04 10.712-18.837 10.763-12.703 0.073-19.804-7.742-18.331-20.18 0.95-8.02 3.672-12.815 12.02-21.16 8.642-8.642 19.13-14.11 34.967-18.237 10.493-2.733 14.599-3.119 33.22-3.119 18.619 0 22.731 0.386 33.21 3.116 29.975 7.809 46.07 22.811 50.12 46.719 1.924 11.354 0.04 24.95-4.871 35.16-6.793 14.12-24.655 28.18-41.626 32.762l-5.585 1.509 9.375 2.362c20.539 5.175 34.544 15.409 42.15 30.802l4.723 9.557v17.565c0 17.07-0.109 17.792-3.883 25.69-9.521 19.922-29.866 33.32-57.766 38.04-11.561 1.955-35.917 3.257-45.23 2.417z"/>
  <path d="m108.44 963.15c-39.28-4.56-69.18-24.55-87.89-58.77-15.274-27.93-18.368-70.54-7.534-103.75 4.716-14.453 8.22-21.614 16.359-33.426 19.441-28.22 51.09-45.716 88.86-49.13 25.4-2.296 49.785 1.819 68.67 11.59 14.455 7.477 14.656 7.871 14.656 28.716 0 9.613-0.58 18.497-1.294 19.831-2.21 4.129-7.471 2.947-17.11-3.843-11.563-8.146-23.686-13.219-37.25-15.583-13.627-2.376-17.507-2.378-31.377-0.014-30.21 5.15-50.71 25.474-57.34 56.858-3.05 14.445-3.518 28.337-1.419 42.11 4.872 31.967 19.94 53.05 45.15 63.19 9.793 3.936 10.415 4.02 30 4.046 18.735 0.025 20.7-0.203 31.07-3.601 6.462-2.118 14.932-6.15 20.351-9.688 9.32-6.084 14.776-7.489 17.705-4.56 1.928 1.928 2.04 28.448 0.137 32.623-3.21 7.04-26.738 18.324-44.779 21.468-12.727 2.218-36.22 3.184-46.983 1.932z"/>
  <path d="m332.19 963.14c-41.739-4.1335-80.922-31.968-95.707-71.687-8.5142-18.388-9.9538-38.857-9.3075-58.814-1.0647-47.234 31.695-92.16 75.931-107.81 49.702-18.217 112.1-2.0406 142.07 42.844 20.961 29.939 23.403 69.05 16.895 104.01-8.346 39.654-37.953 75.254-77.601 86.28-16.86 5.15-34.74 6.75-52.28 5.18zm33.056-38.952c31.146-7.594 49.388-40.435 49.396-70.946-0.60082-19.803 2.1276-40.655-6.7748-59.128-8.1425-19.554-25.994-34.744-47.176-37.915-24.979-4.5498-54.451 2.421-68.97 24.775-11.096 15.379-14.888 34.558-14.497 53.209-1.8012 26.297 3.6491 54.732 22.989 73.948 16.441 17.667 42.428 21.232 65.032 16.056z"/>
  <path d="m687.19 963.19c-21.807-2.798-41.511-13.805-53.846-30.08-13.273-17.511-21.09-37.15-24.933-62.61-1.182-7.839-2.503-14.632-2.935-15.1-0.432-0.464-12.04-0.995-25.786-1.178l-25-0.335 0.486 49.96c0.267 27.478 0.089 51.21-0.397 52.741-0.866 2.73-1.27 2.781-21.975 2.781-11.773 0-21.412-0.518-21.816-1.172-1.454-2.352-0.725-230.39 0.742-232.15 2.167-2.611 40.18-2.395 42.37 0.241 1.25 1.507 1.445 11.399 0.912 46.25l-0.679 44.33h52l1.484-9.06c4.195-25.62 17.566-51.48 34.929-67.55 10.01-9.273 17.846-13.728 32.563-18.526 10.407-3.393 13.651-3.878 26.25-3.924 39.886-0.145 68.74 20.523 83.56 59.857 5.359 14.22 6.178 17.268 8.186 30.459 3 19.702 3.432 29.8 2.046 47.799-1.67 21.679-3.773 31.638-10.1 47.815-10.296 26.334-24.984 42.794-46.821 52.47-13.915 6.167-35.1 9.05-51.25 6.979zm30.23-37.802c9.04-3.326 18.829-14.07 23.887-26.23 6.673-16.04 8.392-28.19 8.283-58.54-0.113-31.32-2.335-44.973-9.865-60.63-8.509-17.69-20.628-25.622-39.15-25.62-22.493 0-37.638 14.796-45.43 44.37-2.753 10.455-2.96 13.504-2.916 43.12 0.051 35.13 1.172 42.34 9.276 59.654 10.797 23.08 32.668 32.408 55.911 23.86z"/>
 </g>
</svg>
