<svg id="a" width="715.19pt" height="217.54pt" version="1.1" viewBox="0 0 715.19 217.54" xmlns="http://www.w3.org/2000/svg">
 <g id="b" transform="translate(-122.4,-371.27)" fill="#fff">
  <path id="c" d="m141.97 371.27h676.12c11.199 0 19.5 9.3286 19.5 19.484v71.266c0 16.273-5.0839 22.097-15.2 35.38-22.75 26.6-45.29 53.39-68.14 79.91-6.9 8.16-17.226 11.5-28.22 11.5h-584.06c-10.442 0-19.57-8.2725-19.57-18.76v-179.3c0-13.305 7.6516-19.484 19.57-19.484" fill="#fff"/>
 </g>
 <g id="d" transform="matrix(2.5281 0 0 2.5281 49.706 40.819)" fill="#393738">
  <path id="e" d="m4.763 20.661v-0.107c0-2.478 1.664-3.665 3.979-3.665 2.369 0 4.035 1.187 4.035 3.505v0.053c0 0.862 0.487 1.348 1.347 1.348h1.667c1.023 0 1.562-0.54 1.562-1.565v-0.053c0-4.363-3.552-7.54-8.61-7.54-4.951 0-8.554 2.905-8.554 7.918 0 10.508 12.966 7.276 12.966 13.577v0.109c0 2.694-1.881 3.717-4.355 3.717-2.421 0-4.305-1.127-4.305-3.717 0-0.86-0.43-1.348-1.344-1.348h-1.674c-1.02 0-1.503 0.488-1.503 1.506v0.273c0 4.416 3.657 7.541 8.823 7.541 5.163 0 8.93-2.8 8.93-7.814 0-10.557-12.964-7.431-12.964-13.738z"/>
  <path id="f" d="m31.372 12.639c-5.218 0-9.147 3.018-9.147 9.373v31.098c0 0.971 0.54 1.507 1.56 1.507h1.454c1.024 0 1.56-0.535 1.56-1.507v-13.635c1.344 1.886 3.389 2.746 5.865 2.746 4.463 0 7.854-2.909 7.854-8.892v-11.317c1e-3 -6.355-3.926-9.373-9.146-9.373zm4.572 19.937c0 4.042-2.042 5.39-4.572 5.39-2.528 0-4.573-1.348-4.573-5.39v-10.291c0-4.041 2.045-5.39 4.573-5.39 2.53 0 4.572 1.349 4.572 5.39z"/>
  <path id="g" d="m54.405 12.633c-5.219 0-9.147 3.016-9.147 9.375v11.319c0 5.982 3.388 8.89 7.856 8.89 2.476 0 4.518-0.865 5.865-2.743v0.776c0 0.969 0.539 1.507 1.56 1.507h1.453c1.024 0 1.56-0.538 1.56-1.507v-18.242c0-6.359-3.928-9.375-9.147-9.375zm4.573 19.94c0 4.037-2.046 5.388-4.573 5.388s-4.576-1.351-4.576-5.388v-10.291c0-4.041 2.048-5.391 4.576-5.391s4.573 1.349 4.573 5.391z"/>
  <path id="h" d="m79.56 12.877c-1.024-0.212-1.83-0.212-2.636-0.212-5.111 0-8.124 2.102-8.124 7.975v19.609c0 0.969 0.487 1.507 1.507 1.507h1.506c1.022 0 1.561-0.538 1.561-1.507v-19.231c0-3.126 1.345-4.096 4.195-4.096 0.54 0 1.131 0.108 1.777 0.215 1.022 0.162 1.559-0.484 1.559-1.509v-1.184c0-1.026-0.537-1.404-1.345-1.567z"/>
  <path id="i" d="m96.609 12.768c-2.202 0-4.033 0.698-5.325 2.265v-13.451c0-1.292-0.645-1.94-1.938-1.94h-1.937c-1.289 0-1.936 0.648-1.936 1.94v38.235c0 1.294 0.648 1.938 1.936 1.938h1.937c1.292 0 1.938-0.645 1.938-1.938v-17.136c0-3.447 1.614-4.469 3.605-4.469s3.606 1.022 3.606 4.469v17.136c0 1.294 0.647 1.938 1.937 1.938h1.937c1.291 0 1.936-0.645 1.936-1.938v-18.16c-1e-3 -6.033-3.283-8.889-7.696-8.889z"/>
  <path id="j" d="m141.96 12.665c-5.382 0-9.416 3.181-9.416 9.535v17.617c0 1.294 0.646 1.938 1.936 1.938h1.94c1.291 0 1.934-0.645 1.934-1.938v-17.239c0-3.448 1.614-4.47 3.606-4.47 1.991 0 3.605 1.022 3.605 4.47v17.239c0 1.294 0.646 1.938 1.936 1.938h1.936c1.291 0 1.938-0.645 1.938-1.938v-17.617c0-6.354-4.039-9.535-9.415-9.535z"/>
  <path id="k" d="m173.01-0.383h-1.939c-1.293 0-1.938 0.65-1.938 1.943v13.392c-1.288-1.564-3.172-2.262-5.325-2.262-4.412 0-7.693 2.856-7.693 8.891v11.148c0 6.468 4.037 9.542 9.416 9.542 5.38 0 9.412-3.073 9.412-9.542v-31.169c0-1.293-0.643-1.943-1.933-1.943zm-3.877 32.741c0 3.447-1.612 4.468-3.603 4.468-1.992 0-3.607-1.022-3.607-4.468v-9.755c0-3.449 1.615-4.473 3.607-4.473 1.991 0 3.603 1.024 3.603 4.473z"/>
  <path id="l" d="m118.39 12.665c-5.379 0-9.416 3.075-9.416 9.537v11.157c0 6.035 3.282 8.892 7.695 8.892 2.153 0 4.035-0.704 5.33-2.268v0.052c0 1.291 0.639 1.72 1.936 1.72h1.936c1.291 0 1.936-0.429 1.936-1.72v-17.833c0-6.462-4.035-9.537-9.417-9.537zm3.609 19.668c0 3.449-1.618 4.475-3.609 4.475-1.99 0-3.602-1.026-3.602-4.475v-9.751c0-3.451 1.612-4.474 3.602-4.474 1.991 0 3.609 1.022 3.609 4.474z"/>
  <path id="m" d="m198.11 12.712h-2.099c-1.237 0-1.938 0.374-2.206 1.361l-4.529 17.905-4.832-17.905c-0.268-0.986-0.97-1.361-2.206-1.361h-2.26c-1.239 0-1.828 0.702-1.503 1.783l8.052 27.169-2.867 10.822c-0.349 1.232 0.227 2.052 1.465 2.082l2.092 0.039c1.239 0.03 1.946-0.389 2.24-1.514l10.161-38.598c0.32-1.081-0.27-1.783-1.508-1.783z"/>
 </g>
 <path id="n" d="m566.33 134.8v-41.749c0-11.116 9.0885-20.21 20.187-20.21h49.692c11.096 0 20.179 9.1036 20.179 20.215v18.455c0 11.096-9.0581 20.187-20.156 20.204h-44.125c-6.9118 10.307-15.619 14.668-19.431 14.668-6.8789 0-6.3455-10.176-6.3455-11.584z" fill="#ac1a2f" stroke-width="2.5281"/>
</svg>
