<?xml version="1.0" encoding="UTF-8"?>
<!-- Created with Inkscape (http://www.inkscape.org/) -->
<svg id="svg220494" width="600" height="152.54" version="1.1" xmlns="http://www.w3.org/2000/svg" xmlns:cc="http://creativecommons.org/ns#" xmlns:dc="http://purl.org/dc/elements/1.1/" xmlns:rdf="http://www.w3.org/1999/02/22-rdf-syntax-ns#">
 <metadata id="metadata220499">
  <rdf:RDF>
   <cc:Work rdf:about="">
    <dc:format>image/svg+xml</dc:format>
    <dc:type rdf:resource="http://purl.org/dc/dcmitype/StillImage"/>
    <dc:title/>
   </cc:Work>
  </rdf:RDF>
 </metadata>
 <g id="layer1" transform="translate(63.966 -456.09)">
  <g id="g220631" transform="matrix(1.3634 0 0 1.3634 -85.781 -193.47)">
   <g id="g135215" transform="matrix(13.238 0 0 -13.238 16 566.84)">
    <path id="path135217" d="m0 0 0.327 1.219h4.332c0.205 0 0.396 0.167 0.425 0.373 0.014 0.102-0.015 0.204-0.081 0.279-0.06 0.069-0.142 0.107-0.232 0.107h-2.771c-0.425 0-0.795 0.162-1.041 0.455-0.247 0.294-0.342 0.687-0.266 1.108 0.172 0.963 0.984 1.573 1.852 1.573h4.53l-0.326-1.219h-4.392c-0.19 0-0.364-0.153-0.423-0.372-0.023-0.089-5e-3 -0.178 0.051-0.252 0.06-0.078 0.155-0.124 0.253-0.124h2.786c0.426 0 0.795-0.162 1.041-0.457 0.245-0.294 0.33-0.688 0.26-1.112-0.158-0.951-0.896-1.578-1.869-1.578h-4.456" fill="#212d34"/>
   </g>
   <g id="g135219" transform="matrix(13.238 0 0 -13.238 324.14 499.13)">
    <path id="path135221" d="m0 0c-1.52 0-2.152-0.786-2.569-2.346l-0.743-2.768h1.318l0.736 2.768c0.156 0.584 0.531 1.127 1.258 1.127h1.549l0.321 1.219h-1.87" fill="#212d34"/>
   </g>
   <g id="g135223" transform="matrix(13.238 0 0 -13.238 400.14 499.13)">
    <path id="path135225" d="m0 0h-2.039l0.459 1.715h-1.317l-1.83-6.829h1.317l1.043 3.896h2.041l0.326 1.218" fill="#212d34"/>
   </g>
   <g id="g135227" transform="matrix(13.238 0 0 -13.238 174.36 528.77)">
    <path id="path135229" d="m0 0-0.191-0.714c-0.135-0.502-0.58-0.942-1.2-0.942h-2.474l0.717 2.676h2.44c0.867 0 0.771-0.791 0.708-1.02zm-0.708 2.239h-2.113-1.318l-1.805-6.736h1.318l0.435 1.622h2.8c1.203 0 2.119 0.759 2.413 1.845l0.192 0.714c0.291 1.08-9e-3 2.555-1.922 2.555" fill="#212d34"/>
   </g>
   <g id="g135231" transform="matrix(13.238 0 0 -13.238 265.9 528.77)">
    <path id="path135233" d="m0 0-0.191-0.714c-0.135-0.502-0.58-0.942-1.2-0.942h-1.88c-0.867 0-0.771 0.79-0.708 1.02l0.191 0.714c0.134 0.502 0.6 0.942 1.2 0.942h1.879c0.868 0 0.772-0.791 0.709-1.02zm-0.709 2.239h-1.879c-1.127 0-2.119-0.759-2.414-1.846l-0.191-0.714c-0.292-1.08-0.022-2.554 1.922-2.554h1.88c1.203 0 2.119 0.759 2.413 1.845l0.192 0.714c0.291 1.08-9e-3 2.555-1.923 2.555" fill="#212d34"/>
   </g>
   <g id="g135235" transform="matrix(13.238 0 0 -13.238 438.4 476.44)">
    <path id="path135237" d="m0 0c-0.336-1.016-1.293-1.714-2.374-1.714l-0.311-1.219h1.466l-1.045-3.895h1.745l1.854 6.828h-1.335" fill="#ffb400"/>
   </g>
  </g>
 </g>
</svg>
