<svg width="800" height="284.23" version="1.1" viewBox="0 0 800 284.23" xml:space="preserve" xmlns="http://www.w3.org/2000/svg">
<g transform="matrix(2.8197 0 0 2.8197 -89.063 -89.017)" fill="#fff"><polygon class="st1" points="275.1 50.07 290.5 50.07 290.5 54.17 279.6 54.17 279.6 61.47 288.6 61.47 288.6 65.57 279.6 65.57 279.6 72.77 290.8 72.77 290.8 76.87 275.1 76.87"/><polygon class="st1" points="311 50.07 314.9 50.07 314.9 76.87 310.8 76.87 299.1 57.77 299.1 76.87 295.2 76.87 295.2 50.07 299.3 50.07 311 69.27"/></g><g transform="matrix(2.8197 0 0 2.8197 -89.063 -89.017)" fill="#fff"><polygon class="st1" points="127.6 96.87 110.9 96.87 110.9 105.47 124.2 105.47 124.2 115.37 110.9 115.37 110.9 131.77 100.5 131.77 100.5 86.97 127.6 86.97"/><path class="st1" d="m154.3 114.97 7.7 16.8h-11.5l-5.4-12.4c-1.2 0.3-2.4 0.5-3.8 0.5v11.9h-10.4v-44.8h9.5c10.7 0 19.5 6 19.5 16.1 0 5-2.2 9-5.6 11.9zm-13-17.9v12.9c5-0.5 7.9-2.9 7.9-6.5 0.1-3.6-2.8-6-7.9-6.4z"/><path class="st1" d="m176.7 86.97h12.1l13.4 44.8h-10.6l-1.9-6.7h-14.8l-2 6.7h-10.5zm10.2 28.2-4.4-15.8-4.7 15.8z"/><polygon class="st1" points="230.8 86.97 241.2 86.97 241.2 131.77 231 131.77 215.3 106.27 215.3 131.77 204.9 131.77 204.9 86.97 215.1 86.97 230.8 112.57"/><path class="st1" d="m267.4 132.37c-13.6 0-22.6-9.3-22.6-22.4 0-13.8 9.8-23.6 22.8-23.6 6 0 11.8 2.2 15.6 6l-6.7 8c-2.7-2.3-5.8-3.5-9.1-3.5-6.6 0-11.7 5.3-11.7 12.4s5.1 12.5 11.9 12.5c3.6 0 7-1.4 10.5-4.2l5.7 8.3c-4.6 4.4-9.9 6.5-16.4 6.5z"/><polygon class="st1" points="286.4 86.97 314.9 86.97 314.9 96.87 296.8 96.87 296.8 104.47 311.8 104.47 311.8 114.37 296.8 114.37 296.8 121.87 315.3 121.87 315.3 131.77 286.4 131.77"/></g><g transform="matrix(2.8197 0 0 2.8197 -89.063 -89.017)" fill="#fff"><path class="st1" d="m142.9 69.47v7.5h-10.4v-44.9h9.5c10.7 0 19.5 6.8 19.5 18.3 0 11-8.6 18.3-18.6 19.1zm0-27.3v17.2c5-0.6 7.9-3.8 7.9-8.7 0.1-4.7-2.8-7.9-7.9-8.5z"/><path class="st1" d="m208.9 54.57c0 13.2-10.1 23-22.8 23s-22.8-9.8-22.8-23 10.1-23 22.8-23c12.7-0.1 22.8 9.8 22.8 23zm-10.9 0c0-7-5.1-12.5-11.9-12.5-6.7 0-11.9 5.4-11.9 12.5 0 7 5.1 12.5 11.9 12.5s11.9-5.5 11.9-12.5z"/><path class="st1" d="m235.9 60.07 7.7 16.8h-11.5l-5.4-12.4c-1.2 0.3-2.4 0.5-3.8 0.5v11.9h-10.4v-44.8h9.5c10.7 0 19.5 6 19.5 16.1 0 5-2.2 9-5.6 11.9zm-13-17.9v12.9c5-0.5 7.9-2.9 7.9-6.5s-2.8-5.9-7.9-6.4z"/><polygon class="st1" points="252.4 76.87 252.4 42.07 242.8 42.07 242.8 32.07 272.4 32.07 272.4 42.07 262.8 42.07 262.8 76.87"/><path class="st1" d="m99.2 62.47h10c0 3.3 1.7 5.5 5 5.5 2.4 0 4.3-1.2 4.3-3.9 0-2.1-1.2-3.6-8-6.3s-10.3-6.7-10.3-13.1c0-7.5 5.4-13 13.4-13 8.1 0 13.4 5.1 13.4 13.3h-9.6c0-2.4-1.3-4.1-3.6-4.1-2 0-3.4 1.4-3.4 3.2 0 2.2 2.1 3.7 7 5.6 7.9 3 11.6 6.8 11.6 13.5 0 8.6-5.9 14.4-14.8 14.4-8.9-0.1-15-5.5-15-15.1z"/></g><g transform="matrix(2.8197 0 0 2.8197 -89.063 -89.017)" fill="#fff">
		<path class="st1" d="m93.4 47.07h-59.9c-1.6 0-2-0.7-1.9-2 0.2-1.3 0.9-1.9 2.3-1.9h59.3c-0.1 1.2 0 2.8 0.2 3.9z"/>
		<path class="st1" d="m94.8 75.17h-53c-1.6 0-2-0.7-1.9-2 0.2-1.3 0.9-1.9 2.3-1.9h50.4c0.6 1.5 1.4 2.7 2.2 3.9z"/>
		<path class="st1" d="m91.1 61.97c-0.1 1.3 0.1 3 0.2 3.8h-39.1c-1.6 0-2-0.7-1.9-2 0.2-1.3 0.9-1.9 2.3-1.9h38.5z"/>
		<path class="st1" d="m96.4 33.87c-0.8 1.3-1.6 2.4-2.1 3.8h-34.7c-1.6 0-2-0.7-1.9-2 0.2-1.3 0.9-1.9 2.3-1.9h36.4z"/>
		<path class="st1" d="m71.4 52.57h-3.5c-1.4 0-2.1 0.5-2.3 1.9-0.2 1.3 0.2 2 1.9 2h3.5c1.4 0 2.1-0.5 2.3-1.9 0.2-1.3-0.3-2-1.9-2z"/>
		<path class="st1" d="m94.6 52.57c0.7 1.5 1.9 2.8 2.8 3.8h-18.5c-1.6 0-2-0.7-1.9-2 0.2-1.3 0.9-1.9 2.3-1.9h15.3z"/>
	</g>
</svg>
