<svg width="1199.9pt" height="233.21pt" version="1.1" viewBox="0 0 1199.9 233.21" xmlns="http://www.w3.org/2000/svg">
 <defs>
  <linearGradient id="c" x1="343.88" x2="343.88" y1="270.45" y2="160.39" gradientUnits="userSpaceOnUse">
   <stop stop-color="#b2b1b1" offset="0"/>
   <stop stop-color="#ededed" offset="1"/>
  </linearGradient>
  <linearGradient id="b" x1="928.6" x2="928.6" y1="316.94" y2="83.769" gradientUnits="userSpaceOnUse">
   <stop stop-color="#be1421" offset="0"/>
   <stop stop-color="#e7302a" offset="1"/>
  </linearGradient>
  <linearGradient id="a" x1="928.6" x2="928.6" y1="316.94" y2="83.806" gradientUnits="userSpaceOnUse">
   <stop stop-color="#363636" offset="0"/>
   <stop stop-color="#868685" offset="1"/>
  </linearGradient>
 </defs>
 <g transform="translate(-99.954 -83.735)">
  <path d="m128.61 135.92c4.01-29.74 30.908-52.185 62.43-52.185h786.29l61.885 116.6-110.62 116.6h-789.5c-12.524 0-26.379-7.4235-33.73-19.41-5.38-8.77-6.55-19.63-4.4-29.58l27.64-132.03" fill="url(#b)"/>
 </g>
 <g transform="translate(-99.954 -83.735)">
  <path d="m977.33 83.735h301.72c6.6186 0 11.97 1.885 15.99 6.225 4.37 4.18 5.38 10.68 4.5 16.44l-36.88 187.72c-2.35 13.14-12.919 22.82-28.62 22.82h-305.44l48.73-233.2" fill="url(#a)"/>
 </g>
 <g transform="translate(-99.954 -83.735)" fill="url(#c)">
  <path d="m209.31 147.45c13.21-3.69 27.06-3.54 40.66-3.49 12.32 0.13 24.86-0.73 36.92 2.35 7.24 1.77 14.97 5.85 17.32 13.45 2.46 8.16-1.17 16.33-3.66 24l-0.15711 0.48h-42.863c0.52-2.75 2.35-5.85 0.72-8.53-1.79-2.06-4.82-2.01-7.33-2.33-6.34-0.13-12.7-0.28-19.02 0.19-3.58 0.2-7.51 1.66-9.14 5.09-1.09 2.64-2.25 5.33-2.63 8.18 0.29 2.77 3.55 3.27 5.77 3.61 13.07 1.53 26.19 2.51 39.28 3.9 8.54 1.19 17.83 3.1 24.03 9.6 4.98 5.13 5.29 13.1 3.15 19.59-3.11 9.63-5.3 19.99-11.93 27.97-11.65 14.05-30.49 20.63-48.39 20.22-15.04-0.14-30.08 0.3-45.11-0.25-10.13-1.06-21.55-2.66-28.67-10.76-3.93-4-3.23-10-2.79-15.09 1.37-5.41 2.61-11.2 5.01-16.16h42.43c-0.67 2.81-2.02 5.61-1.28 8.55 1.63 3.57 5.92 4.3 9.43 4.41 6.63 0.17 13.27 0.26 19.9-0.03 4.77-0.45 10.71-1.96 12.47-7.05 0.95-2.89 2.55-5.87 2.06-8.98-1.19-2.89-4.89-2.93-7.5-3.43-13.63-1.45-27.32-2.33-40.95-3.83-7.48-1.16-15.65-3.29-20.55-9.52-4.65-5.95-4.17-14.2-2.07-21.06 2.34-7.07 4.41-14.36 8.34-20.76 5.9-9.75 15.49-17.36 26.55-20.32z"/>
  <path d="m546.1 144.16c7.28-0.37 14.57-0.14 21.86-0.2 13 0 26.4-0.08 38.79 4.36 7.27 2.46 13.35 8.53 14.88 16.17 2.6 12.64-2.11 25.13-5.9 37.01-5.85 17.44-10.24 36.34-23.03 50.27-8.99 10.47-22.38 15.93-35.73 18.13-12.84 2.6-25.99 1.65-38.99 1.83-13.32 0.09-27.21 0.23-39.67-5.14-7.65-3.3-12.51-11.31-12.85-19.51-0.85-14.61 5.48-28.24 9.49-41.96 4.96-16.37 10.9-33.47 23.84-45.35 12.69-11.73 30.67-14.69 47.31-15.61m-0.86 32.1c-5.78 0.58-12.44 1.92-15.86 7.11-1.8897 2.9828-3.3505 6.1752-4.6155 9.4558l-10.414 31.324c-0.97 3.55-1.91 7.47-0.55 11.04 1.24 2.81 4.47 3.83 7.28 4.22 8.27 1.06 16.71 1.14 24.97-0.11 4.7-0.84 9.76-2.68 12.46-6.89 2.43-3.82 4.04-8.09 5.55-12.34l9.1-27.9c0.95-3.8 2.25-8.06 0.38-11.78-1.94-3.42-6.26-3.7-9.74-4.13-6.18-0.29-12.39-0.29-18.56 0z"/>
  <path d="m1169.1 144.12c6.59-0.6 13.22-0.18 19.83-0.3 12.54-0.02 25.65-0.16 37.41 4.82 7.05 2.83 11.79 9.85 12.55 17.32 1.4 12.26-2.93 24.15-6.65 35.63-5.62 16.49-9.77 34.06-20.59 48.12-7.27 10.08-18.76 16.43-30.74 19.08-14.99 4.04-30.62 2.59-45.95 2.87-10.99-0.05-22.66-0.75-32.41-6.35-6.82-4.26-9.16-12.69-9.13-20.29 0.45-12.48 4.78-24.3 8.54-36.07 3.84-11.76 7.04-23.87 13.2-34.7 4.7-8.56 11.3-16.32 19.86-21.21 10.32-5.95 22.31-8.16 34.08-8.92m-4.69 31.56c-3.71 1.02-7.32 3.04-9.44 6.34-2.57 4.12-4.13 8.76-5.72 13.32l-10.11 30.74c-0.96 4.18-2.81 9.45 0.63 13.01 3.34 2.87 8.08 2.34 12.19 2.58 6.7-0.08 13.81 0.59 20.04-2.37 5.54-2.9 7.35-9.35 9.51-14.74l10.91-33.64c1.02-3.99 2.91-8.48 0.95-12.49-2.21-3.43-6.8-3.56-10.44-3.82-6.18-0.12-12.49-0.52-18.52 1.07z"/>
  <path d="m323.74 207.65 20.14-62.11h72.11c10.35 0.11 20.9 0.41 30.84 3.56 6.2 1.97 12.24 5.83 14.99 11.95 3.27 7.25 2.12 15.54 0.04 22.96-3.43 10.81-6.62 22.05-13.61 31.21-7.13 9.9-18.18 16.44-29.93 19.32-10.552 2.7715-21.342 3.3624-32.174 3.3703l-27.607 0.01971-10.959 32.515h-44.15l20.31-62.795m54.877-31.447-10.137 31.297h23.52c5.07-0.03 10.64 0.34 15.08-2.56 4.2-3.38 5.35-8.94 7.03-13.79 1.02-3.39 2.83-7.14 1.24-10.64-1.92-3.14-5.9-3.87-9.28-4.17-3.0259-0.125-6.0556-0.14255-9.0857-0.13741z"/>
  <path d="m661.27 145.53h63.979c9.9917 0.0523 19.974 0.38815 29.861 1.9284 7.49 1.28 15.6 3.86 20.14 10.39 4.18 6.08 3.28 14.05 1.2 20.72-3.03 9.05-5.09 18.87-11.57 26.23-5.76 7.05-14.3 10.83-22.78 13.48 5.79 1.51 11.83 4.81 13.97 10.75 1.97 6.03 0.03 12.37-2.01 18.11l-7.64 23.31h-45.1l7.49-22.88c0.77-2.87 2.03-6.06 0.46-8.89-1.68-3.34-6-3.36-9.21-3.78h-23.04l-11.67 35.55h-44.15l40.07-124.92m34.99 30.603-9.15 27.91h16.82c5.81-0.02 12.13 0.395 17.26-2.795 4.62-3.23 5.65-9.14 7.24-14.15 0.8-3.02 1.69-7.08-1.18-9.29-2.75-1.75-6.18-1.565-9.31-1.675z"/>
  <path d="m807.12 145.58h122.48l-9.73 30.505h-38.62l-30.87 94.365h-44.664l30.394-94.365h-38.54z"/>
  <path d="m1030.7 145.48h47.743l-41.08 124.84h-41.16l27.77-88.075-40.5 23.58-18.4-22.96z"/>
 </g>
</svg>
