<svg version="1.1" viewBox="0 0 600 450.93" xmlns="http://www.w3.org/2000/svg">
 <g transform="translate(-1.1843 -596.16)">
  <path d="m318.37 622.66c-34.504 0-65.622 0.71267-89.812 2.1562v282.72h66.374v-110.37h2.5937l68.093 110.37h80.843l-60.812-90.937c-7.2146-10.143-14.464-20.874-22.062-31.781 38.238-9.3365 63.406-40.38 63.406-78.405 0-59.84-40.935-83.749-108.62-83.749zm-5.125 53.562c31.151 0 44.218 13.896 44.218 35.625 0 24.021-17.873 38.75-45.968 38.75-6.2811 0-13.21-0.71874-16.562-0.71874v-72.187c3.9475-0.76411 11.607-1.4687 18.312-1.4687z" fill="#FFF"/>
  <path d="m530.53 596.16c-39.001 0-70.593 31.053-70.593 69.843 0 38.025 31.592 69.187 70.593 69.187 39.087 0 70.655-31.161 70.655-69.187 0-38.79-31.569-69.843-70.655-69.843zm0 10.094c33.316 0 60.249 26.392 60.249 59.749 0 32.678-26.933 59.031-60.249 59.031-33.271 0-60.218-26.353-60.218-59.031 0-33.357 26.947-59.749 60.218-59.749zm28.312 17.906-71.093 25.562v17.156l23.625-8.5624v51.906l47.468-16.281v-69.78z" fill="#FFF"/>
  <path d="m117.61 620.24c-71.934 0-114.15 34.92-114.15 87.798 0 94.597 114.46 70.574 114.46 118.66 0 19.394-17.374 29.547-41.608 29.547-20.964 0-44.43-4.7413-60.599-10.132l-3.429 59.83c18.504 4.5825 38.759 6.8579 58.79 6.8579 73.292 0 117.89-41.113 117.89-95.349 0-88.528-114.5-72.233-114.5-115.69 0-16.297 12.812-27.931 40.566-27.931 16.848 0 34.958 3.122 51.085 7.7056l3.7369-56.709c-17.91-3.013-36.963-4.5846-52.241-4.5846" fill="#FFF"/>
  <path d="m1.1843 1047.1h446.97v-109.37h-446.97v109.37z" fill="#0f2995"/>
  <path d="m221.88 964.88c-13.031 0-20.664 6.6727-20.664 16.325 0 17.857 22.754 13.119 22.754 23.495 0 4.9869-4.084 7.1702-9.3926 7.1702-3.9422 0-8.2941-0.8869-11.35-1.9315l-0.635 9.7101c3.3782 0.8848 7.2262 1.2965 11.086 1.2965 13.353 0 21.484-7.4845 21.484-17.7 0-16.972-22.833-13.339-22.833-23.071 0-3.8618 3.0427-6.6145 9.0751-6.6145 3.2977 0 6.6801 0.57044 9.7366 1.4552l0.55561-9.1545c-3.2173-0.56303-6.7595-0.97894-9.8159-0.97895z" fill="#FFF"/>
  <path d="m113.63 965.44c-6.2737 0-11.331 0.10351-15.594 0.34375v54.281h10.437v-22.469h0.40625l15.125 22.469h12.937l-13-18.25c-1.3673-1.85-2.9092-3.9277-4.4374-5.9375 8.2052-1.288 13.844-7.1129 13.844-15.156 0-11.101-7.7331-15.281-19.719-15.281zm-1.0312 8.5312c6.5954 0 9.8124 2.5843 9.8124 7.8124 0 5.0672-3.8824 8.2812-10.156 8.2812-1.6086 0-3.0573-0.0758-3.7812-0.15625v-15.687c1.0456-0.16192 2.5968-0.24999 4.125-0.25z" fill="#FFF"/>
  <path d="m17.758 965.78v54.292h10.451v-22.86h17.542v-8.5988h-17.542v-13.996h18.574v-8.837h-29.024z" fill="#FFF"/>
  <path d="m56.757 965.78v54.292h29.527v-8.9428h-19.05v-14.711h18.097v-8.5195h-18.097v-13.361h19.05v-8.7576h-29.527z" fill="#FFF"/>
  <path d="m145.81 965.78v54.292h10.133v-19.394c0-6.5161-0.18097-15.045-0.50269-19.711 1.6086 3.539 3.4607 7.5648 5.8737 11.668l15.928 27.437h13.52v-54.292h-10.133v16.88c0 6.6769 0.15347 16.332 0.55561 21.801-2.0108-4.102-4.174-8.6232-6.6674-12.806l-15.134-25.876h-13.573z" fill="#FFF"/>
  <path d="m245.69 965.78v54.292h29.527v-8.9428h-19.076v-14.711h18.097v-8.5195h-18.097v-13.361h19.076v-8.7576h-29.527z" fill="#FFF"/>
  <path d="m286.97 965.78v54.292h10.451v-23.574h22.992v23.574h10.477v-54.292h-10.477v21.696h-22.992v-21.696h-10.451z" fill="#FFF"/>
  <path d="m345.36 965.78v54.292h29.501v-8.9428h-19.05v-14.711h18.097v-8.5195h-18.097v-13.361h19.05v-8.7576h-29.501z" fill="#FFF"/>
  <path d="m386.61 965.78v54.292h10.133v-19.394c0-6.5161-0.15344-15.045-0.47625-19.711 1.6087 3.539 3.4597 7.5648 5.8737 11.668l15.928 27.437h13.52v-54.292h-10.133v16.88c0 6.6769 0.15449 16.332 0.55562 21.801-2.0098-4.102-4.1751-8.6232-6.6674-12.806l-15.134-25.876h-13.599z" fill="#FFF"/>
 </g>
</svg>
