<svg width="800" height="608.43" enable-background="new 0 0 72 72" version="1.1" viewBox="0 0 800 608.43" xml:space="preserve" xmlns="http://www.w3.org/2000/svg">
<path d="m0 461.38v147.05h590.89v-147.05z" fill="#0f2995" stroke-width="13.491"/><path d="m156.49 519.39h-2.6981v12.142h2.6981c4.0472 0 8.0944-2.6982 8.0944-6.7454 0-2.6982-2.6982-5.3963-8.0944-5.3963zm-90.388 1.3491h-17.538v9.4435h16.189v13.491h-16.189v21.585h-16.189v-59.359h33.727zm52.614 0h-18.887v8.0944h17.538v13.491h-17.538v9.4435h18.887v13.491h-35.076v-59.359h35.076zm47.218 44.519-10.793-21.585v21.585h-16.189v-59.359h20.236c14.84 0 22.934 5.3963 22.934 18.887 0 6.7454-4.0472 13.491-10.793 16.189 1.3491 2.6981 2.6981 4.0472 4.0472 6.7454l10.793 17.538zm86.341 0h-20.236l-9.4435-20.236c-2.6981-4.0472-4.0472-9.4435-5.3963-13.491v33.727h-16.189v-59.359h21.585l8.0944 17.538c2.6981 5.3963 5.3963 10.793 6.7454 14.84v-32.378h16.189v59.359zm32.378 1.3491c-4.0472 0-8.0944 0-12.142-1.3491l1.3491-14.84c2.6982 1.3491 8.0944 2.6982 12.142 2.6982 4.0472 0 6.7454-1.3491 6.7454-4.0472 0-8.0944-21.585-4.0472-21.585-24.283 0-12.142 9.4435-18.887 24.283-18.887 2.6982 0 6.7454 0 10.793 1.3491l-1.3491 13.491c-4.0472-1.3491-6.7454-1.3491-10.793-1.3491s-6.7454 1.3491-6.7454 4.0472c0 8.0944 21.585 4.0472 21.585 22.934 1.3491 10.793-8.0944 20.236-24.283 20.236zm78.246-45.868h-18.887v8.0944h17.538v13.491h-17.538v9.4435h18.887v13.491h-35.076v-59.359h35.076zm68.803 44.519h-16.189v-22.934h-17.538v22.934h-16.189v-59.359h16.189v21.585h17.538v-21.585h16.189zm56.661-44.519h-18.887v8.0944h17.538v13.491h-17.538v9.4435h18.887v13.491h-35.076v-59.359h35.076zm70.152 44.519h-20.236l-9.4435-20.236c-2.6981-4.0472-4.0472-9.4435-5.3963-13.491v33.727h-16.189v-59.359h21.585l8.0944 17.538c2.6982 5.3963 5.3963 10.793 6.7454 14.84v-32.378h16.189v59.359z" fill="#fff"/><path d="m800 94.435c0-51.265-41.821-94.435-94.435-94.435s-94.435 41.821-94.435 94.435 41.821 94.435 94.435 94.435 94.435-43.17 94.435-94.435zm-12.142 0c0 44.519-36.425 80.944-80.944 80.944s-80.944-36.425-80.944-80.944 36.425-80.944 80.944-80.944c44.519-1.3491 80.944 35.076 80.944 80.944zm-137.61-21.585v21.585l31.029-10.793v70.152l62.057-22.934v-91.737z" fill="#fff"/><path d="m252.28 296.8c0 74.199-59.359 128.16-155.14 128.16-26.981 0-53.963-2.6981-78.246-8.0944l4.0472-80.944c21.585 8.0944 52.614 13.491 79.595 13.491 32.378 0 55.312-13.491 55.312-40.472 0-64.755-151.1-31.029-151.1-159.19 0-71.501 55.312-118.72 151.1-118.72 20.236 0 45.868 2.6981 68.803 6.7454l-5.3963 76.897c-21.585-6.7454-44.519-10.793-67.454-10.793-36.425 0-53.963 16.189-53.963 37.774 1.3491 59.359 152.45 36.425 152.45 155.14zm339.97 121.42h-106.58l-90.388-148.4h-4.0472v148.4h-87.69v-379.09c32.378-2.6981 72.85-2.6981 118.72-2.6981 89.039 0 143 32.378 143 111.97 0 51.265-33.727 93.086-83.642 105.23 10.793 14.84 20.236 28.331 29.68 43.17zm-117.37-263.07c0-29.68-17.538-47.218-58.01-47.218-9.4435 0-18.887 0-24.283 1.3491v97.133c4.0472 0 13.491 1.3491 21.585 1.3491 37.774 0 60.708-20.236 60.708-52.614z" fill="#fff"/>
</svg>
