<svg width="138.19pt" height="129.76pt" version="1.1" viewBox="0 0 138.19 129.76" xmlns="http://www.w3.org/2000/svg">
 <g transform="translate(-30.96 -35.185)">
  <path d="m119.87 65.46c13.07-8.94 30.3-10.13 45.19-5.53l4.09 7.31c-6.56-0.55-13.53-0.63-19.52 2.47-4.79 2.26-7.98 7.09-9.14 12.16-4.36 17.45 2.16 35.59-2.12 53.07-2.45 11.83-12.22 20.81-22.94 25.52-11.33 4.53-24.15 5.81-36.05 3.01l-4.79-8.1c5.73 1.62 11.83 0.71 17.36-1.23 5.81-2.24 10.15-7.53 11.5-13.57 2.58-9.63 0.25-19.6 0.3-29.37-0.69218-23.225 0.32786-29.948 16.12-45.74z" fill="#0093dd"/>
 </g>
 <g transform="translate(-30.96 -35.185)">
  <path d="m85.41 40.52c13.44-6.04 29.4-7.27 43.3-2.04l4.17 7.31c-9.11-0.63-19.9-0.83-26.48 6.64-6.47 8.02-6.02 19.1-5.91 28.83l19.38-15.8 9.41 5.89-20.66 14.11 26.07 35.56-16 11.86-17.28-25.14c-0.94 7.05-2.43 14.36-6.8 20.17-6.65 8.82-16.62 14.89-27.34 17.37-10.4 2.55-21.52 3.04-31.95 0.36l-4.36-8.26c6.53 1.56 13.53 0.83 19.75-1.61 7.43-3.1 11.95-10.94 12.36-18.79 1-14.63-2.26-29.29-0.33-43.9 1.63-13.68 9.99-26.71 22.67-32.56" fill="#28166f"/>
 </g>
 <g transform="translate(-30.96 -35.185)">
  <path d="m88.6 91.46 31.312-25.468 8.6133 5.3467-20.517 14.044 26.096 35.542-15.277 11.179-26.371-37.984-3.4459 2.6502c0.56 11 1.02 22.01 2.17 32.97-5.73-0.26-11.49-0.41-17.21 0.18-1.01-1.21-3.1-2.01-2.67-3.91 0.81-18.22 0.9-36.49-0.11-54.71 1.12-0.86 2.16-1.86 3.44-2.49 5.21 0.1 10.43 0.26 15.64-0.15-1.14 7.54-1.61 15.17-1.67 22.8z" fill="#fff"/>
 </g>
</svg>
