<svg width="800" height="285.71" enable-background="new 0 0 800 285.3" version="1.1" viewBox="0 0 800 285.71" xml:space="preserve" xmlns="http://www.w3.org/2000/svg">

<g transform="matrix(1.0006 0 0 1.0006 0 -.076403)" fill="#a43860"><path d="m159 85.82c3.7-7 5.8-14.7 5.9-22.6 0.1-5.7-0.3-11.5-1.2-17.1-0.5-3.8-1.6-7.4-3.3-10.9-3.5-6.5-10.3-10.4-17.7-10.1-9.7 0-19.1 3.8-26.2 10.5-8.4 7-13.2 17.4-13.1 28.4 0 7.2 2.8 14.1 7.7 19.4 5.7 6.2 12.1 11.7 19.1 16.4 7.9 5.1 16.2 10.5 25.1 15.6 8.8 5.2 17.1 11.1 25.1 17.4 16.6 11.6 26.7 30.4 27.1 50.7 0.1 12.8-3.5 25.4-10.3 36.3-7.2 11.4-16.6 21.2-27.7 28.8-25.5 17.6-56.2 26.8-87.4 26-21.3 1.3-42.5-3.2-61.3-13.1-12.5-6.5-20.5-19.2-20.8-33.2 0-23.7 9.3-38.6 27.9-44.8 6.4-1.9 13.1-2.9 19.9-2.8 9 0.1 17.8 1.9 26.2 5.2-4 9.7-6.1 20.1-6.3 30.6 0 20.9 7.5 31.3 22.4 31.3 9.7-0.1 19-3.9 26.2-10.5 7.1-5.4 11.5-13.7 11.9-22.6 0.2-7.6-2.5-14.9-7.6-20.5-5.6-6-12.1-11-19.2-15.1-7.6-4.6-15.7-9-24.5-13.1-8.8-4.4-17-9.8-24.6-16.1-17.2-13.4-26.9-34.3-26.3-56.1-0.1-13.9 3.7-27.5 11-39.3 7.1-12 16.7-22.3 28.1-30.4 23.2-15.7 50.5-24.1 78.5-24 22.2-1.4 44.5 3.1 64.4 13.1 13.1 6.8 21.2 20.2 21.2 34.9 0.2 12.2-5.3 23.8-14.9 31.4-8.1 6.6-18.2 10.2-28.7 10.2-8.9 0.4-18-1-26.6-3.9z"/><path d="m233.21 185.62c2.3256-3.3592 5.4263-6.2876 8.8716-8.441 3.6176-2.1533 7.7519-3.3592 11.972-3.273 3.3592-0.25839 6.8044 0.5168 9.819 2.0672l20.499-2.0672-7.0628 40.138c-1.0336 10.422-4.9095 20.327-11.283 28.596-5.9431 5.4263-13.867 7.5796-21.878 7.5796-6.0855 0-11.886-0.86132-17.226-3.3592-3.7037-1.6365-6.1154-5.254-6.2015-9.2161-0.0861-2.6701 1.0336-5.1679 3.1869-6.8044 4.9095-3.0146 11.111-3.0146 16.021 0 1.2058 0.51679 2.2394 1.3781 2.9285 2.4978-1.5504 1.3781-2.4117 3.4453-2.3256 5.5124 0 3.0146 1.3781 4.4789 4.1343 4.4789 4.7373 0 8.3548-5.5124 11.283-16.451 0.68906-3.0146 1.4642-6.1154 2.0672-9.0439-3.9621 4.1343-8.4005 5.7708-15.332 5.7708-4.0515 0-8.0103-1.1197-11.283-3.6176-1.3542-1.3176-2.4129-2.8529-3.1497-4.5201-1.6081-4.3105-1.3616-8.6165-0.73802-12.773 0.65262-3.9457 1.5177-7.4495 2.692-10.834 0.76491-2.182 1.7718-4.2672 3.0045-6.2395zm13.609 22.48c0 4.7373 1.1197 7.0628 3.6176 7.0628 1.981-0.17226 3.7898-1.1197 4.9957-2.6701 1.5504-1.7226 2.6701-3.7037 3.1869-5.9431l5.3402-26.959h-1.0336c-0.77519-0.17226-1.5504-0.17226-2.3256 0-4.3066 0-7.6658 3.5314-10.25 10.508-1.981 5.7708-3.5314 11.886-3.5314 18.002z" stroke-width=".86132"/><path d="m293.2 226.02c-1.8-2-3-4.4-3.7-6.9-0.8-3.7-1.1-7.6-1-11.4 0-4.5 0.8-8.9 2.4-13.1 1.6-4 3.9-7.8 6.8-11 6.2-6.5 14.9-9.9 23.8-9.6 3.2-0.1 6.4 0.6 9.3 1.8l17.8-1.8-7.7 40.7c-0.33655 2.63-0.2614 5.5086 1.3 7.3 0.9 1 2.2 1.6 3.5 1.7-0.8 2.5-2.5 4.5-4.8 5.6-2.5 1.4-5.3 2.1-8.1 2.1-2.5 0.1-5-0.5-7.2-1.6-1.7-1-3-2.5-3.7-4.3-1.3 1.9-3.1 3.3-5.2 4.2-2.6 1.2-5.4 1.8-8.2 1.7-6.5402 0-11.936-1.3519-15.3-5.4zm22-42.4c-0.9 1.6-1.7 3.3-2.2 5.1-1.1 3.8-2.1 7.7-2.7 11.6-0.96781 4.2232-1.4712 8.5238-1.6463 12.902-0.0792 2.1722-0.1796 4.5745 0.13056 6.484 0.29506 2.1058 0.91864 4.8142 3.3157 4.8142 2.3-0.1 4.5-1.2 5.8-3.1 1.8-2.7 2.9-5.7 3.4-8.9l5.5-30.6c-1.3-1.2-3-1.8-4.7-1.8-1.4-0.1-2.8 0.2-4.1 0.8-1.2 0.6-2.1 1.6-2.8 2.7z"/><path d="m386.9 199.82c2.3-4 3.6-8.5 3.8-13.1 0-3-1.2-4.6-3.3-4.6s-3.4 1.4-5.1 4.3c-1.9 3-3.1 6.3-3.5 9.8l-5.5 33.4-21.6 2 10.6-55.4 17.3-2.1-1.8 10.6c2.8-6.7 9.4-10.9 16.6-10.6 3.4-0.2 6.7 0.9 9.3 3.1 2.3 2.6 3.5 6.1 3.3 9.6 0.1 3.9-1.4 7.7-4.2 10.5-3.1 2.8-7.3 4.3-11.5 4.1-1.6 0-3.2-0.5-4.4-1.6z"/><path d="m410.08 218.97c0.25989-3.3786 0.69305-6.6706 1.4727-9.9626l5.5444-28.502h-6.1508v-3.2054c9.0097-2.7722 17.413-7.1904 24.863-13.081h5.1113l-2.5123 11.349h8.1434l-0.86632 4.7647h-8.1434l-5.4578 28.588c-0.69305 2.8588-1.1262 5.8043-1.3861 8.7498-0.2599 2.8588 1.646 5.5444 4.4182 6.1508-0.77968 2.4257-2.599 4.5048-4.8514 5.6311-2.8588 1.4727-5.9776 2.1658-9.183 2.0792-3.1187 0.0866-6.1508-1.0396-8.4033-3.292-1.9925-2.6856-2.8588-5.9776-2.599-9.2696z" stroke-width=".86632"/><path d="m487.7 211.52c1.8 1.3 2.6 3.4982 2.6 5.8 0 2.4573-0.6 4.6-2 6.4s-3.2 3.2-5.2 4.2c-4.3 2.2-9 3.4-13.9 3.4-3.9 0.1-7.7-0.4-11.4-1.6-2.7-0.9-5.1-2.4-7.1-4.5-3.8482-4.0406-5.6352-9.3368-5.6352-15.04 0-3.589 0.24139-7.3946 0.91417-10.437 1.2927-5.7094 3.9283-11.059 7.721-15.623 6.4-7 15.6-10.8 25.1-10.3 5.3-0.4 10.6 1.1 14.9 4.2 2.4 2.1 3.7 5.1 3.5 8.2 0 12.3-10.5 18.3-31.7 18.3v5.1c0 2.4682 0.5 4.8 2.1 6.5 1.8 1.7 4.3 2.5 6.8 2.2 2.8 0 5.6-0.6 8.1-1.8 2.4-1.1 4.1-2.8 5.2-5zm-20.7-11.384c4.1888 0.0268 8.2409-1.6567 11.2-4.6156 2.9-3 4.5-7.2 4.3-11.4 0-1.3-0.3-2.6-0.9-3.7-0.6-0.9-1.7-1.4-2.7-1.3-1.1-0.1-2.3 0.2-3.3 0.7-1.3 0.7-2.3 1.8-3 3-3.1 5.3-5 11.2-5.6 17.3z"/><path d="m545.78 231.52c-8.4515 0-12.763-3.2771-12.763-9.8313 0.17248-2.501 0.51744-4.9157 1.0349-7.3304l1.811-9.5726c1.2936-5.5193 2.2422-11.039 2.8459-16.73 0.35278-4.1541-1.1211-6.123-3.5358-6.123s-6.9854 5.1744-9.1414 15.696l-6.2093 31.564-21.474 2.2422 11.297-55.625 17.248-1.8973-1.7248 10.176c3.5265-6.5828 10.347-10.42 17.773-10.42 2.4466 0 5.1053 7e-3 7.2894 0.55252 1.9089 0.49004 3.714 1.369 5.2937 2.6235 2.4147 2.7597 3.5358 6.3817 3.1909 10.004-0.4312 7.3304-1.5523 14.575-3.3634 21.646-0.77616 3.1046-1.2936 6.2093-1.5523 9.4001-0.0862 1.4661 0.4312 2.9321 1.4661 4.0533 0.94863 0.94864 2.156 1.5523 3.5358 1.7248-0.77615 2.4147-2.501 4.4845-4.7432 5.6056-2.5872 1.5523-5.4331 2.2422-8.279 2.2422z" stroke-width=".8624"/><path d="m213.6 141.12c0.3-3.9 0.8-7.7 1.7-11.5l6.4-32.9h-7.1v-3.7c10.4-3.2 20.1-8.3 28.7-15.1h5.9l-2.9 13.1h9.4l-1 5.5h-9.4l-6.3 33c-0.8 3.3-1.3 6.7-1.6 10.1-0.3 3.3 1.9 6.4 5.1 7.1-0.9 2.8-3 5.2-5.6 6.5-3.3 1.7-6.9 2.5-10.6 2.4-3.6 0.1-7.1-1.2-9.7-3.8-2.3-3.1-3.3-6.9-3-10.7z"/><path d="m284.7 146.62c-2.4733 5.5878-8.0512 9.1617-14.044 9.1076-2.5376 0-5.0762-0.22454-7.1099-1.0276-1.7905-0.72382-3.4131-1.8441-4.7464-3.28-1.9-2.1-3.3-5.2574-3.3-7.6 0-4.3101 0.2-6.8269 1.1734-12.374l8.5266-40.326 24.7-2.4-8.1 38c-1.1 4-1.8 8.1-2.1 12.2 0 5.1 1.7 7.4 5 7.7zm-17.9-72.1c-0.1-2.9 1.4-5.7 3.9-7.2 2.9-1.8 6.3-2.7 9.7-2.6 3.3-0.1 6.5 0.8 9.2 2.6 2.3 1.7 3.6 4.4 3.4 7.2 0.2 2.9-1.3 5.7-3.8 7.2-2.9 1.7-6.2 2.6-9.6 2.5-3.3 0.1-6.5-0.8-9.3-2.5-2.4-1.7-3.7-4.4-3.5-7.2z"/><path d="m383 155.62c-9.8 0-14.7-3.8-14.7-11.4 0-4.9 0.6-9.8 1.6-14.7 1.4-6.4 2.4-11 2.9-13.1 0.9-3.9 1.4-7.8 1.7-11.8 0-4.1-1.6-6.2-4.6-6.2s-4.1 1.4-6 4.2c-2.3 4-3.3691 8.3453-4.2 13.1l-7.6 37.2-23.7 2.4 6.5-33c0.8-3.7 1.4-7.6 2.1-11.6 0.7-4.1 1-6.5 1-7.2 0-3.8-1.4-5.6-4.2-5.6s-3.8 1.4-5.8 4.2c-2.6 4-3.8371 8.3996-4.8 13.1l-7.3 37.8-24 2.4 13.1-64.4 20-2.4-2.5 12c1.8-4.1 5-7.4 9-9.3 4.7-2.1 9.8-3.1 14.9-2.9 3.1-0.1 6.1 0.70001 8.6 2.5 2.1 1.7 3.7 4 4.5 6.7 1.6-3 4.2-5.4 7.3-6.7 3.7-1.7 7.7-2.6 11.8-2.5 3.2538 0 6.6 0.30001 9.7 1.3 2 0.9 3.8 2.2 5.2 3.8 2.4 3.5 3.5072 7.7091 3.3 12-0.3 7.9-1.4 15.8-3.3 23.6-0.9 3.5-1.5 7-1.7 10.6-0.1 1.7 0.5 3.3 1.6 4.6 1.1 1 2.5 1.7 4.1 2-0.8 2.8-2.8 5.2-5.4 6.5-2.7 1.7-5.9 2.7-9.1 2.8z"/><path d="m494.85 155.62c-9.8 0-14.7-3.8-14.7-11.4 0-4.9 0.6-9.8 1.6-14.7 1.4-6.4 2.4-11 2.9-13.1 0.9-3.9 1.4-7.8 1.7-11.8 0-4.1-1.6-6.2-4.6-6.2s-4.1 1.4-6 4.2c-2.3 4-3.3691 8.3453-4.2 13.1l-7.6 37.2-23.7 2.4 6.5-33c0.8-3.7 1.4-7.6 2.1-11.6 0.7-4.1 1-6.5 1-7.2 0-3.8-1.4-5.6-4.2-5.6s-3.8 1.4-5.8 4.2c-2.6 4-3.8371 8.3996-4.8 13.1l-7.3 37.8-24 2.4 13.1-64.4 20-2.4-2.5 12c1.8-4.1 5-7.4 9-9.3 4.7-2.1 9.8-3.1 14.9-2.9 3.1-0.1 6.1 0.70001 8.6 2.5 2.1 1.7 3.7 4 4.5 6.7 1.6-3 4.2-5.4 7.3-6.7 3.7-1.7 7.7-2.6 11.8-2.5 3.2538 0 6.6 0.30001 9.7 1.3 2 0.9 3.8 2.2 5.2 3.8 2.4 3.5 3.5072 7.7091 3.3 12-0.3 7.9-1.4 15.8-3.3 23.6-0.9 3.5-1.5 7-1.7 10.6-0.1 1.7 0.5 3.3 1.6 4.6 1.1 1 2.5 1.7 4.1 2-0.8 2.8-2.8 5.2-5.4 6.5-2.7 1.7-5.9 2.7-9.1 2.8z"/><path d="m557.8 148.12c-5.2 5.5-12.7 8.3-20.3 7.5-4.8 0.2-9.4-1.5-13.1-4.6-1.7805-1.3226-3.1986-3.0593-4.136-5.0125-1.6055-3.7908-1.9716-7.915-1.264-11.487l8.2-43.3 24.6-2.4-8.9 46.9c-0.31249 1.8905-0.32592 3.5562-0.25755 5.3218 0.25433 3.9598 1.898 5.9782 4.5576 5.9782 3.1 0 5.9-2.1 8.1-6.4 0.8-1.5 1.4-3.1 1.6-4.7l8.6-44.6 24-2.4-9 47.4c-0.1 1.2-0.1 2.4 0 3.7 0 1.5 0.4 2.9 1.2 4.2 1 1.5 2.7 2.5 4.6 2.6-0.5 1.9-1.7 3.6-3.3 4.8-3.1 2.6-7.1 4-11.1 4.1-3.2 0.2-6.4-0.5-9.2-2.1-2.2-1.1-4-3-4.9-5.5z"/><path d="m647.4 155.62c-9.8 0-14.8-3.8-14.8-11.4 0.2-2.9 0.6-5.7 1.2-8.5l2.1-11.1c1.5-6.4 2.6-12.8 3.3-19.4 0.40907-4.8169-1.3-7.1-4.1-7.1s-8.1 6-10.6 18.2l-7.2 36.6-24.9 2.6 13.1-64.5 20-2.2-2 11.8c4.0892-7.6332 11.997-12.083 20.609-12.083 2.837 0 5.9199 8e-3 8.4526 0.64067 2.2135 0.56823 4.3065 1.5875 6.1383 3.0421 2.8 3.2 4.1 7.4 3.7 11.6-0.5 8.5-1.8 16.9-3.9 25.1-0.9 3.6-1.5 7.2-1.8 10.9-0.1 1.7 0.5 3.4 1.7 4.7 1.1 1.1 2.5 1.8 4.1 2-0.9 2.8-2.9 5.2-5.5 6.5-3 1.8-6.3 2.6-9.6 2.6z"/><path d="m680.8 102.52c2.7-3.9 6.3-7.3 10.3-9.8 4.2-2.5 9-3.9 13.9-3.8 3.9-0.3 7.9 0.6 11.4 2.4l23.8-2.4-8.2 46.6c-1.2 12.1-5.7 23.6-13.1 33.2-6.9 6.3-16.1 8.8-25.4 8.8-7.0653 0-13.8-1-20-3.9-4.3-1.9-7.1-6.1-7.2-10.7-0.1-3.1 1.2-6 3.7-7.9 5.7-3.5 12.9-3.5 18.6 0 1.4 0.6 2.6 1.6 3.4 2.9-1.8 1.6-2.8 4-2.7 6.4 0 3.5 1.6 5.2 4.8 5.2 5.5 0 9.7-6.4 13.1-19.1 0.8-3.5 1.7-7.1 2.4-10.5-4.6 4.8-9.753 6.7-17.8 6.7-4.7038 0-9.3-1.3-13.1-4.2-1.5722-1.5298-2.8014-3.3123-3.6568-5.2479-1.867-5.0045-1.5808-10.004-0.85685-14.829 0.7577-4.5809 1.762-8.649 3.1254-12.579 0.88806-2.5333 2.0571-4.9542 3.4882-7.2441zm15.8 26.1c0 5.5 1.3 8.2 4.2 8.2 2.3-0.2 4.4-1.3 5.8-3.1 1.8-2 3.1-4.3 3.7-6.9l6.2-31.3h-1.2c-0.9-0.2-1.8-0.2-2.7 0-5 0-8.9 4.1-11.9 12.2-2.3 6.7-4.1 13.8-4.1 20.9z"/><path d="m781.1 110.62c1.1-2.7 1.7-5.5 1.7-8.4 0-4.8-1.8-7.2-5.8-7.2-2.2 0-4.2 1-5.5 2.7-1.6 1.6-2.5 3.9-2.5 6.2 0 1.6 0.7 3.2 1.8 4.3 3.1 2.7 6.5 5.1 10.1 7.1 3.7 2.1 7 4.8 9.8 8 1.9 2.4 2.9 5.4 2.7 8.5 0 3.3-0.8 6.5-2.4 9.4-1.6 3-3.9 5.6-6.7 7.6-6.9 4.8-15.3 7.2-23.7 6.8-5.1338-0.45076-9.8-1.3-13.9-4.1-3.4-2.3136-5.9045-4.9123-6.2-8.8-0.1-3 1.2-5.8 3.5-7.6 2.4-1.9 5.4-2.9 8.5-2.7 2.9-0.1 5.7 0.6 8.2 2-0.9 2.1-1.5 4.4-1.6 6.7 0 5.4 2.4 8 6.8 8 1.8 0 3.5-0.6 4.8-1.8 1.3-1.3 2.1-3.1 2-5 0-4.1-3.4-8.4-10.5-13.1-3.7-2.3-7.2-4.9-10.5-7.9-2.1066-2.2554-2.7-5.3155-2.7-8.4 0-3.3 0.8-6.5 2.4-9.4 1.6-3.1 3.8-5.7 6.5-7.9 7-4.8 13.586-6.8 23.8-6.8 4.6 0 9.2 0.8 13.1 3.1 3 1.8 4.8 5 4.7 8.5 0.1 3.1-1.1 6.2-3.3 8.4-2.5 2.1-5.6996 3-9 3-1.9083 0-4.1-0.1-6.1-1.2z"/></g>
<linearGradient id="path41_1_" x1="-250.42" x2="-196.86" y1="491.09" y2="491.09" gradientTransform="matrix(13.097 0 0 -13.097 3375.3 6657.8)" gradientUnits="userSpaceOnUse">
	<stop stop-color="#FFEBA8" offset="0"/>
	<stop stop-color="#FFCB00" offset=".5"/>
	<stop stop-color="#F7AF00" offset="1"/>
</linearGradient>
<path d="m752.56 167.43-30.519 78.549-6.3039-62.439c-7.1044 2.8017-14.609 4.3027-22.314 4.3027-3.202 0-6.504-0.30019-9.706-0.90056-2.8017-0.50031-5.5034-1.2007-8.2051-2.1013l-2.5015-0.80049c-9.6059-3.5022-18.111-9.3058-24.915-17.011h-69.443l-4.7029 33.921h31.82l-7.7048 55.034h-419.06l-4.1025 3.302c-23.414 16.21-51.032 25.316-79.449 26.216h542.34l11.907-84.952h24.715l12.208 84.952h59.437l50.831-118.87z" fill="url(#path41_1_)" stroke-width="1.0006"/>
</svg>
