<svg enable-background="new 0 0 905 310.221" version="1.1" viewBox="0 0 905 310.22" xml:space="preserve" xmlns="http://www.w3.org/2000/svg"><polygon points="447.75 58.85 458.97 58.85 458.97 11.77 475.62 11.77 475.62 1.22 430.98 1.22 430.98 11.77 447.75 11.77" fill="#fff"/><rect x="487.27" y="1.221" width="11.46" height="57.627" fill="#fff"/><polygon points="514.47 1.22 514.47 58.85 525.69 58.85 525.69 21.31 553.87 58.85 564.78 58.85 564.78 1.22 553.57 1.22 553.57 38.86 525.39 1.22" fill="#fff"/><path d="m610.73 39.42h10.738c-1.858 6.438-7.236 10.107-14.874 10.107-12.875 0-18.737-10.027-18.737-19.327 0-9.533 6.329-19.655 18.05-19.655 6.617 0 12.09 3.38 13.304 8.211l0.421 1.62h11.16l-0.37-2.471c-1.577-10.375-11.953-17.903-24.668-17.903-19.008 0-29.261 15.594-29.261 30.271 0 14.809 10.253 29.79 29.863 29.79 13.826 0 24.095-7.891 26.913-20.643h6.089v-10.543h-28.628v10.543z" fill="#fff"/><polygon points="770.08 35.63 758.38 58.84 770.82 58.84 799.79 1.22 787.36 1.22 775.93 23.92 761.69 1.22 748.55 1.22" fill="#fff"/><path d="m680.78 36.99c5.813-3.459 9.38-9.723 9.38-16.522 0-10.529-8.552-19.169-19.058-19.234h-22.257v57.54h11.203v-19.052h9.322l8.748 19.138h12.636l-9.974-21.87zm-9.693-7.833h-11.037v-17.38h10.943c4.737 0 8.632 3.901 8.632 8.69 0 4.752-3.837 8.646-8.538 8.69" fill="#fff"/><path d="m728.99 1.72-0.167-0.488h-9.947l-19.916 57.627h12.207l4.264-12.861h16.858l4.265 12.861h12.2l-19.764-57.139zm-11.197 34.839 6.061-18.317 6.074 18.317h-12.135z" fill="#fff"/><path d="m409.74 25.72-10.383-2.412c-4.28-1.018-6.408-2.964-6.408-6.22 0-4.085 3.618-6.671 8.995-6.671 5.936 0 9.19 2.964 10.483 6.772h11.793c-1.859-9.664-9.373-16.53-22.371-16.53-11.975 0-20.497 7.244-20.497 17.547 0 9.365 6.307 13.727 14.466 15.594l10.209 2.31c4.934 1.12 6.954 2.964 6.954 6.409 0 4.549-3.801 7.142-9.548 7.142-5.566 0-9.752-2.316-11.307-7.331h-12.264c1.938 10.863 10.95 17.163 23.658 17.163 12.067 0 21.157-6.671 21.157-17.729 1e-3 -8.618-5.657-13.916-14.937-16.044" fill="#fff"/><path d="m16.28 241.24c0 0.342 1.356-1.271 4.071-4.833 2.711-3.563 6.445-8.227 11.196-13.995 4.747-5.765 10.177-12.34 16.284-19.719 6.106-7.38 12.634-14.885 19.591-22.521 0.51-0.508 1.313-0.421 2.418 0.256 1.101 0.681 2.075 1.698 2.926 3.054 0.847 1.36 1.4 2.886 1.654 4.58 0.254 1.697-0.215 3.225-1.4 4.58-0.68 0.851-2.46 2.886-5.343 6.105-2.886 3.226-6.278 7.04-10.177 11.45-3.905 4.412-8.103 9.12-12.595 14.121-4.497 5.006-8.611 9.63-12.34 13.867-3.734 4.243-6.87 7.76-9.415 10.56-2.544 2.799-3.904 4.286-4.071 4.452-0.342 0.342-0.763 0.596-1.272 0.764-0.509 0.171-1.443 0.253-2.799 0.253-0.68 0-1.824-0.337-3.435-1.017-1.614-0.676-3.268-1.864-4.961-3.563-1.698-1.692-3.225-4.068-4.58-7.123-1.361-3.055-2.036-6.953-2.036-11.704 0-6.444 1.228-13.313 3.69-20.609 2.457-7.292 5.597-14.459 9.414-21.501 3.816-7.037 7.97-13.778 12.467-20.228 4.493-6.444 8.735-12.085 12.722-16.921 3.984-4.835 7.419-8.689 10.305-11.575 2.883-2.884 4.58-4.327 5.089-4.327 1.864 0 3.772 0.68 5.725 2.036 1.948 1.358 3.69 3.014 5.216 4.962 1.526 1.952 2.798 3.988 3.816 6.105 1.018 2.123 1.527 3.944 1.527 5.472 0 1.017-1.316 3.096-3.943 6.232-2.633 3.143-5.941 6.958-9.924 11.45-3.987 4.496-8.313 9.587-12.977 15.267-4.667 5.687-8.993 11.537-12.976 17.558-3.987 6.022-7.295 12.174-9.923 18.446-2.632 6.278-3.944 12.302-3.944 18.066m69.461-152.92c1.356 0 3.01 0.725 4.962 2.163 1.948 1.444 3.817 3.181 5.597 5.216 1.782 2.036 3.308 4.072 4.58 6.107 1.272 2.036 1.909 3.562 1.909 4.58 0 1.017-1.018 2.971-3.053 5.852-2.036 2.887-4.413 5.852-7.124 8.905-2.716 3.054-5.431 5.726-8.143 8.015-2.715 2.291-4.75 3.436-6.106 3.436-1.36 0-2.887-0.338-4.58-1.017-1.698-0.677-3.224-1.527-4.58-2.546-1.36-1.017-2.505-2.118-3.436-3.308-0.933-1.184-1.398-2.289-1.398-3.309 0-2.034 0.846-4.961 2.544-8.776 1.693-3.816 3.729-7.589 6.106-11.323 2.374-3.729 4.747-6.997 7.125-9.796 2.373-2.799 4.239-4.199 5.597-4.199" fill="#14C6FF"/><path d="m250.41 62.69c2.256 0 3.992 0.754 5.216 2.256 1.22 1.507 2.158 3.339 2.819 5.497 0.657 2.164 1.08 4.371 1.269 6.626 0.185 2.256 0.282 4.229 0.282 5.921s-2.022 3.762-6.062 6.203c-4.043 2.445-8.554 5.264-13.532 8.458-4.983 3.197-9.493 6.721-13.533 10.571-4.044 3.854-6.061 7.851-6.061 11.982 0 1.507-0.282 2.354-0.846 2.537-0.564 0.19-1.036 0.282-1.41 0.282-0.564 0-1.458-0.325-2.678-0.987-1.225-0.655-2.446-1.594-3.666-2.818-1.224-1.221-2.352-2.819-3.383-4.793-1.035-1.975-1.55-4.37-1.55-7.19 0-1.502 0.092-2.911 0.282-4.229 0.185-1.313 0.467-2.723 0.845-4.228-5.638 0.564-12.924 3.148-21.849 7.751-8.93 4.609-18.325 10.622-28.193 18.045-9.867 7.426-19.784 16.025-29.744 25.796-9.964 9.776-18.986 20.208-27.065 31.294-8.084 11.094-14.617 22.513-19.595 34.257-4.981 11.747-7.471 23.354-7.471 34.816 0 5.453 1.877 8.93 5.639 10.432 3.757 1.508 8.643 1.6 14.66 0.281 6.013-1.313 12.78-3.758 20.299-7.328 7.515-3.569 14.987-7.657 22.414-12.266 7.423-4.603 14.471-9.444 21.145-14.52 6.669-5.075 12.263-9.868 16.774-14.378 3.569 0.188 6.388 0.658 8.459 1.408 1.691 0.942 2.63 2.257 2.819 3.946 0.185 1.692-1.41 4.229-4.793 7.612-6.392 6.393-14.237 13.109-23.541 20.158-9.304 7.05-19.127 13.531-29.462 19.453-10.339 5.921-20.581 10.714-30.731 14.379-10.149 3.665-19.312 5.309-27.487 4.935-8.177-0.379-14.803-3.242-19.877-8.6-5.075-5.356-7.612-14.142-7.612-26.359 0-15.789 3.383-31.296 10.149-46.52 6.767-15.226 15.599-29.696 26.502-43.418 10.898-13.718 23.303-26.359 37.215-37.92 13.907-11.559 27.911-21.567 42.008-30.024 14.096-8.458 27.77-15.084 41.021-19.877 13.25-4.793 24.761-7.189 34.536-7.189h3.101c1.128 0 2.159 0.189 3.102 0.563 3.757-1.87 6.951-2.815 9.585-2.815" fill="#14C6FF"/><path d="m303.69 190.68c0.563-0.563 1.453-0.467 2.678 0.281 1.221 0.755 2.256 1.931 3.102 3.523 0.847 1.601 1.41 3.341 1.692 5.217 0.281 1.882-0.239 3.572-1.551 5.074-2.636 3.01-5.736 6.3-9.305 9.868-3.572 3.572-7.33 6.955-11.277 10.148-3.947 3.198-7.85 5.877-11.701 8.035-3.854 2.163-7.286 3.241-10.29 3.241-2.445 0-4.37-0.324-5.78-0.985-1.41-0.656-2.867-1.644-4.369-2.961-3.009 3.764-5.78 6.956-8.317 9.586-2.538 2.636-5.172 4.935-7.895 6.908-2.726 1.974-5.594 3.619-8.598 4.935-3.009 1.315-6.485 2.351-10.432 3.1-3.383 0.753-7.004 0.753-10.854 0-3.855-0.749-7.331-2.065-10.432-3.945-3.101-1.878-5.687-4.229-7.753-7.049-2.071-2.819-3.101-6.104-3.101-9.868 0-8.079 1.502-16.021 4.511-23.821 3.004-7.798 6.907-15.129 11.7-21.992 4.793-6.858 10.101-13.202 15.929-19.029 5.824-5.824 11.511-10.854 17.057-15.083 5.542-4.229 10.616-7.515 15.225-9.868 4.603-2.348 8.127-3.523 10.572-3.523 3.193 0 5.92 0.661 8.176 1.973 2.255 1.318 4.132 2.917 5.638 4.793 1.313-2.44 2.723-3.665 4.229-3.665 1.692 0 3.383 0.802 5.075 2.396 1.692 1.6 3.194 3.621 4.511 6.062 1.313 2.445 2.397 5.124 3.243 8.036 0.845 2.916 1.267 5.687 1.267 8.317 0 2.068-0.845 4.793-2.536 8.175-1.692 3.383-3.763 6.956-6.203 10.713-2.445 3.764-5.124 7.613-8.035 11.561-2.916 3.946-5.595 7.612-8.035 10.996-2.445 3.383-4.467 6.342-6.062 8.879-1.599 2.538-2.304 4.187-2.114 4.935 0.185 1.691 1.784 1.367 4.793-0.986 3.004-2.348 6.625-5.498 10.854-9.443 4.229-3.946 8.599-8.221 13.11-12.827 4.511-4.61 8.269-8.507 11.278-11.707m-93.601 57.234c1.876 0 4.321-0.986 7.331-2.96 3.004-1.975 6.201-4.512 9.585-7.612 3.383-3.103 6.81-6.485 10.291-10.15 3.475-3.665 6.625-7.188 9.444-10.57-0.19-0.939-0.282-1.878-0.282-2.818v-2.82c0-5.075 1.925-11.604 5.78-19.595 3.85-7.987 8.41-16.022 13.673-24.104-5.075 3.197-10.338 7.377-15.788 12.544-5.453 5.173-10.714 10.714-15.788 16.635-5.075 5.922-9.682 11.938-13.815 18.044-4.136 6.108-7.427 11.656-9.867 16.634-2.445 4.982-3.855 9.022-4.229 12.124-0.379 3.096 0.845 4.648 3.665 4.648" fill="#14C6FF"/><path d="m346.55 136.55c5.075 0 9.207 0.704 12.406 2.114 3.193 1.408 4.792 3.338 4.792 5.778 0 0.753-1.225 2.445-3.665 5.075-2.445 2.635-5.075 5.639-7.895 9.021-2.819 3.384-5.453 6.675-7.895 9.868-2.444 3.197-3.664 5.734-3.664 7.612 0 0.378 0.141 0.94 0.423 1.69 0.282 0.753 0.705 0.846 1.269 0.282 0.185-0.186 1.926-1.736 5.216-4.651 3.287-2.912 7.33-6.577 12.123-10.996 4.793-4.414 10.053-9.163 15.788-14.238 5.731-5.075 11.136-9.725 16.211-13.955 5.075-4.229 9.396-7.797 12.969-10.713 3.569-2.912 5.639-4.37 6.203-4.37 2.064 0 4.229 0.802 6.484 2.396 2.256 1.599 4.272 3.572 6.061 5.921 1.784 2.353 3.287 4.748 4.511 7.188 1.22 2.444 1.833 4.511 1.833 6.201 0 2.256-1.646 5.78-4.934 10.573-3.29 4.793-7.427 10.529-12.405 17.199-4.981 6.673-10.387 13.953-16.211 21.849-5.828 7.894-11.233 15.93-16.211 24.104-4.982 8.177-9.119 16.309-12.405 24.388-3.29 8.084-4.934 15.603-4.934 22.554 0 1.318 1.41 0.613 4.229-2.114 2.819-2.722 6.345-6.528 10.573-11.417 4.229-4.886 8.88-10.476 13.955-16.774 5.075-6.296 9.867-12.267 14.379-17.902 4.511-5.639 8.501-10.573 11.982-14.802 3.476-4.229 5.683-6.812 6.625-7.753 0.749-0.938 1.735-0.987 2.96-0.143 1.22 0.848 2.256 2.071 3.102 3.665 0.846 1.601 1.361 3.383 1.55 5.357 0.186 1.974-0.28 3.622-1.408 4.934-0.943 1.128-3.103 3.855-6.485 8.176-3.383 4.325-7.427 9.305-12.123 14.942-4.7 5.639-9.775 11.657-15.224 18.044-5.454 6.391-10.669 12.219-15.648 17.479-4.981 5.264-9.541 9.635-13.673 13.108-4.136 3.478-7.237 5.216-9.303 5.216-1.128 0-2.586-0.379-4.37-1.128-1.789-0.753-3.48-1.881-5.075-3.383-1.6-1.507-3.009-3.476-4.23-5.921-1.224-2.44-1.832-5.357-1.832-8.74 0-7.141 0.847-14.563 2.537-22.271 1.692-7.705 3.758-15.177 6.203-22.414 2.44-7.234 5.075-14.047 7.895-20.44 2.818-6.387 5.356-11.98 7.611-16.773 2.256-4.792 4.088-8.6 5.498-11.417 1.41-2.82 1.833-4.229 1.27-4.229-0.564 0-2.538 1.55-5.921 4.652-3.384 3.101-7.52 7.048-12.405 11.84-4.889 4.793-10.105 10.105-15.647 15.929-5.546 5.829-10.669 11.562-15.365 17.199-4.7 5.637-8.599 10.761-11.7 15.364-3.102 4.607-4.652 8.133-4.652 10.572 0 0.755-0.422 1.508-1.268 2.257-0.847 0.753-2.305 1.127-4.37 1.127-2.071 0-4.088-1.645-6.061-4.936-1.974-3.286-2.961-8.502-2.961-15.646 0-4.132 0.987-9.162 2.961-15.083 1.973-5.921 4.554-12.075 7.751-18.467 3.195-6.389 6.768-12.731 10.715-19.029 3.946-6.296 7.894-11.983 11.841-17.058 3.946-5.075 7.705-9.163 11.277-12.266 3.566-3.095 6.481-4.645 8.737-4.645" fill="#14C6FF"/><path d="m490.9 138.24c4.511 0 7.797 0.987 9.867 2.959 2.064 1.973 3.333 4.467 3.807 7.471 0.468 3.01 0.282 6.203-0.563 9.586-0.845 3.385-1.93 6.582-3.242 9.587-1.318 3.009-2.729 5.497-4.229 7.472-1.508 1.974-2.636 2.959-3.384 2.959-8.084 0-16.354 2.587-24.812 7.754-8.458 5.172-16.167 11.7-23.117 19.595-6.956 7.896-12.688 16.492-17.198 25.796-4.511 9.305-6.768 17.999-6.768 26.078 0 2.256 1.552 3.199 4.653 2.819 3.1-0.373 7.188-1.833 12.263-4.369s10.995-5.966 17.763-10.29c6.767-4.321 13.813-9.348 21.146-15.084 7.33-5.73 14.751-11.982 22.272-18.747 7.516-6.768 14.563-13.814 21.145-21.146 0.563-0.563 1.454-0.467 2.68 0.281 1.22 0.754 2.348 1.833 3.383 3.242 1.03 1.41 1.644 3.059 1.833 4.935 0.185 1.882-0.38 3.666-1.691 5.356-0.563 0.754-2.776 3.057-6.627 6.908-3.854 3.853-8.693 8.412-14.518 13.673-5.83 5.264-12.456 10.854-19.877 16.774-7.429 5.921-15.04 11.419-22.837 16.491-7.803 5.075-15.555 9.262-23.26 12.548-7.709 3.291-14.758 4.935-21.146 4.935-1.506 0-3.339-0.608-5.498-1.833-2.162-1.221-4.277-2.912-6.343-5.075-2.071-2.158-3.855-4.744-5.357-7.753-1.507-3.004-2.255-6.201-2.255-9.585 0-8.832 1.784-17.763 5.356-26.784 3.568-9.021 8.127-17.712 13.674-26.078 5.542-8.36 11.793-16.212 18.749-23.541 6.95-7.33 13.813-13.718 20.581-19.172 6.766-5.448 13.152-9.771 19.171-12.97 6.013-3.193 10.806-4.792 14.379-4.792" fill="#14C6FF"/><path d="m612.12 190.97c0.563-0.564 1.454-0.467 2.679 0.281 1.222 0.754 2.299 1.832 3.242 3.242 0.94 1.409 1.551 3.059 1.833 4.936 0.282 1.881-0.238 3.665-1.551 5.355-0.564 0.753-2.776 3.01-6.626 6.768-3.854 3.761-8.646 8.224-14.375 13.391-5.737 5.172-12.033 10.67-18.893 16.493-6.861 5.829-13.674 11.216-20.438 16.167-6.769 4.952-13.019 8.995-18.75 12.123-5.736 3.132-10.385 4.695-13.956 4.695s-6.763-0.986-9.584-2.96c-2.82-1.975-5.214-4.651-7.188-8.035s-3.479-7.281-4.511-11.699c-1.037-4.415-1.551-9.163-1.551-14.238 0-8.079 1.5-16.021 4.511-23.822 3.004-7.797 6.906-15.128 11.701-21.99 4.79-6.859 10.099-13.203 15.926-19.029 5.824-5.824 11.513-10.855 17.06-15.084 5.54-4.229 10.614-7.516 15.225-9.868 4.602-2.348 8.126-3.525 10.573-3.525 3.19 0 5.964 0.71 8.315 2.12 2.348 1.415 4.32 3.11 5.921 5.088 1.596 1.982 2.771 4.054 3.524 6.221 0.749 2.167 1.128 3.906 1.128 5.224-2.256 0-4.793 0.472-7.613 1.415 3.756 1.505 6.626 3.343 8.602 5.51 1.973 2.167 2.957 3.534 2.957 4.099 0 4.896-1.548 9.94-4.649 15.122-3.101 5.181-7.521 9.938-13.251 14.271-5.737 4.335-12.785 7.962-21.146 10.882-8.364 2.92-17.811 4.568-28.336 4.942-1.881 3.392-3.666 7.445-5.356 12.154-1.692 4.714-2.961 9.28-3.807 13.71-0.847 4.427-1.176 8.191-0.986 11.302 0.188 3.109 1.127 4.661 2.819 4.661 2.818 0 6.577-1.361 11.276-4.088 4.696-2.724 9.821-6.201 15.366-10.433 5.541-4.229 11.277-9.021 17.198-14.379 5.921-5.355 11.604-10.616 17.058-15.787 5.447-5.167 10.433-10.009 14.94-14.52 4.511-4.512 8.079-8.081 10.713-10.715m-36.085-20.017c-5.83 3.947-11.607 8.88-17.34 14.801-5.736 5.922-10.952 11.982-15.647 18.187 6.766-1.128 12.264-2.863 16.493-5.216 4.229-2.35 7.515-5.075 9.868-8.178 2.346-3.102 3.99-6.388 4.934-9.867 0.937-3.477 1.5-6.719 1.692-9.727" fill="#14C6FF"/><path d="m710.79 190.68c0.563-0.749 1.502-0.705 2.818 0.142 1.313 0.846 2.441 2.021 3.385 3.523 0.938 1.507 1.55 3.198 1.832 5.074 0.281 1.883-0.238 3.573-1.551 5.075-0.941 0.942-3.01 3.338-6.202 7.189-3.197 3.854-7.048 8.413-11.56 13.673-4.511 5.265-9.353 10.854-14.52 16.775-5.172 5.921-10.15 11.372-14.943 16.352-4.792 4.982-9.069 9.119-12.827 12.405-3.762 3.291-6.484 4.935-8.176 4.935-3.009 0-5.921-0.938-8.74-2.82-2.818-1.876-5.312-4.088-7.472-6.626-2.162-2.536-3.902-5.167-5.214-7.894-1.318-2.723-1.976-4.838-1.976-6.343 0-2.256 1.313-6.063 3.946-11.419 2.631-5.356 5.872-11.462 9.728-18.326 3.851-6.858 8.078-14.096 12.688-21.707 4.604-7.612 8.833-14.754 12.688-21.429 3.85-6.67 7.093-12.404 9.726-17.197 2.63-4.793 3.947-7.938 3.947-9.445-2.634 0.754-6.203 1.741-10.712 2.961-4.513 1.226-8.932 2.304-13.252 3.242-2.819 3.763-5.921 7.894-9.305 12.406s-6.767 8.929-10.148 13.249c-3.386 4.327-6.581 8.273-9.585 11.843-3.011 3.572-5.357 6.3-7.049 8.176-1.691 1.882-3.198 2.494-4.512 1.833-1.317-0.656-2.353-1.925-3.102-3.807-0.753-1.877-1.035-3.947-0.848-6.202 0.187-2.257 0.938-4.133 2.258-5.64 4.885-5.261 9.162-10.477 12.827-15.646 3.666-5.167 6.719-9.445 9.161-12.829-1.128 0.19-2.161 0.282-3.102 0.282h-2.817c-1.316 0-2.867-0.986-4.65-2.96-1.789-1.974-3.243-4.181-4.371-6.626-1.127-2.44-1.789-4.652-1.974-6.625-0.189-1.974 0.747-2.961 2.818-2.961 2.066 0 5.168-0.656 9.303-1.974 4.134-1.313 8.74-2.911 13.815-4.792 5.075-1.878 10.335-3.991 15.789-6.343 5.449-2.348 10.475-4.463 15.082-6.344 4.603-1.876 8.502-3.476 11.701-4.793 3.191-1.313 5.073-1.974 5.639-1.974 2.065 0 4.413 1.177 7.048 3.523 2.63 2.354 5.119 5.216 7.472 8.601 2.35 3.383 4.321 6.906 5.919 10.57 1.598 3.665 2.396 6.724 2.396 9.163 0 1.692-1.599 5.124-4.793 10.291-3.197 5.172-7.188 11.326-11.981 18.467-4.793 7.146-9.965 14.758-15.507 22.836-5.546 8.084-10.713 15.837-15.505 23.26-4.793 7.429-8.789 14.146-11.982 20.158-3.197 6.018-4.793 10.434-4.793 13.249 0.374 0 1.927-1.407 4.652-4.227 2.722-2.82 6.104-6.437 10.15-10.855 4.039-4.413 8.456-9.255 13.249-14.52 4.793-5.261 9.396-10.383 13.814-15.364 4.413-4.979 8.36-9.396 11.841-13.252 3.483-3.846 5.972-6.62 7.477-8.313" fill="#14C6FF"/><path d="m806.93 114.56c6.203 2.07 11.37 3.903 15.505 5.498 4.133 1.599 6.203 2.96 6.203 4.088 0 1.507-0.379 3.149-1.128 4.934-0.753 1.787-2.163 2.68-4.229 2.68-0.563 0-3.62-0.234-9.161-0.705-5.547-0.47-12.266-1.174-20.159-2.115-9.964 11.275-20.347 23.779-31.152 37.497-10.813 13.721-20.818 27.817-30.025 42.29-9.212 14.474-16.774 28.805-22.696 42.994-5.921 14.192-8.881 27.487-8.881 39.894 0 0.938 0.188 1.551 0.564 1.832 0.375 0.282 0.656 0.423 0.845 0.423 1.502 0 4.745-2.255 9.728-6.766 4.979-4.513 10.808-10.248 17.48-17.199 6.669-6.951 13.813-14.563 21.426-22.836 7.612-8.269 14.803-16.211 21.569-23.824 6.764-7.61 12.777-14.377 18.042-20.298 5.26-5.921 8.925-10.009 10.996-12.265 0.563-0.564 1.551-0.607 2.96-0.142 1.409 0.473 2.771 1.27 4.089 2.396 1.313 1.128 2.255 2.494 2.818 4.088 0.563 1.6 0.186 3.149-1.128 4.651-0.379 0.563-2.021 2.538-4.935 5.922-2.916 3.383-6.582 7.658-10.996 12.826-4.418 5.173-9.492 10.995-15.224 17.479-5.735 6.485-11.656 13.064-17.762 19.735-6.11 6.674-12.266 13.158-18.469 19.453-6.2 6.296-12.028 11.886-17.478 16.774-5.455 4.887-10.291 8.831-14.521 11.841-4.229 3.004-7.473 4.511-9.728 4.511-2.444 0-4.934-0.379-7.471-1.127-2.538-0.754-4.892-2.07-7.049-3.947-2.163-1.881-3.902-4.512-5.217-7.895-1.316-3.383-1.973-7.708-1.973-12.969 0-13.532 2.157-27.392 6.483-41.585 4.321-14.188 10.009-28.191 17.057-42.008 7.049-13.814 15.034-27.251 23.965-40.316 8.925-13.062 17.994-25.231 27.206-36.51-6.203-0.938-11.373-1.973-15.508-3.102-4.135-1.128-6.2-2.256-6.2-3.384 0-1.502 0.186-3.286 0.563-5.356 0.374-2.065 1.128-4.039 2.256-5.92 1.127-1.877 2.631-3.477 4.51-4.793 1.878-1.313 4.416-1.973 7.612-1.973 2.064 0.564 4.321 1.126 6.767 1.69 2.065 0.563 4.511 1.127 7.331 1.69 2.818 0.564 5.822 1.318 9.021 2.257 12.403-13.532 23.259-24.289 32.563-32.281 9.304-7.987 15.269-11.981 17.9-11.981 2.441 0 4.604 0.894 6.484 2.678 1.876 1.788 3.477 3.854 4.793 6.202 1.313 2.354 2.257 4.7 2.82 7.049 0.563 2.353 0.845 4.088 0.845 5.216 0 0.754-2.774 3.996-8.316 9.727-5.537 5.741-12.537 13.396-20.995 22.982" fill="#14C6FF"/><path d="m809.18 245.66c-0.94 0-2.444 0.472-4.511 1.41-2.069 0.94-4.043 2.069-5.919 3.383-1.882 1.316-3.291 2.538-4.229 3.665-0.942 1.128-0.661 1.788 0.846 1.972 5.639 1.129 11.182 0.755 16.634-1.126 5.449-1.878 10.666-4.556 15.646-8.034 4.979-3.477 9.587-7.473 13.814-11.982s7.894-8.881 10.996-13.11c3.101-4.229 5.448-7.985 7.048-11.274 1.595-3.286 2.207-5.498 1.833-6.626-0.19-0.938-2.115-0.938-5.78 0-3.665 0.941-8.035 2.163-13.109 3.665-5.073 1.506-10.245 2.961-15.506 4.369-5.265 1.409-9.684 2.114-13.252 2.114-0.563 0-1.507-1.025-2.817-3.088-1.318-2.062-2.68-4.353-4.09-6.882-1.408-2.528-2.634-4.96-3.664-7.304-1.034-2.338-1.552-3.886-1.552-4.635 0-1.31 1.314-3.506 3.947-6.599 2.63-3.088 6.202-6.507 10.714-10.251s9.771-7.582 15.788-11.511c6.015-3.929 12.497-7.537 19.453-10.815 6.951-3.276 14.142-5.99 21.568-8.146 7.423-2.148 14.705-3.229 21.849-3.229 3.384 0 5.824 0.794 7.331 2.38 1.502 1.587 2.396 3.587 2.678 6.009 0.282 2.423 0 5.074-0.845 7.965-0.847 2.89-1.882 5.547-3.103 7.968-1.226 2.424-2.494 4.424-3.807 6.01-1.316 1.586-2.444 2.375-3.383 2.375-9.212 0-18.043 1.364-26.501 4.086-8.459 2.729-15.789 5.736-21.992 9.022-6.201 3.291-10.994 6.3-14.377 9.021-3.384 2.729-4.608 4.089-3.666 4.089 0.938 0 3.146-0.468 6.626-1.409 3.477-0.938 7.611-1.926 12.404-2.96 4.793-1.031 9.771-1.878 14.941-2.538 5.168-0.656 9.961-0.656 14.38 0 4.414 0.66 8.079 2.163 10.993 4.511 2.912 2.354 4.37 5.97 4.37 10.854 0 3.762-2.021 9.068-6.062 15.929-4.042 6.863-9.633 13.674-16.774 20.439-7.145 6.769-15.604 12.644-25.374 17.62-9.772 4.983-20.396 7.472-31.856 7.472-3.948 0-7.754-0.467-11.417-1.408-3.666-0.939-6.816-2.257-9.445-3.948-2.635-1.691-4.75-3.665-6.344-5.92-1.602-2.256-2.397-4.696-2.397-7.329 0-2.82 0.749-5.498 2.256-8.036 1.502-2.537 3.384-4.793 5.641-6.766 2.255-1.976 4.693-3.568 7.329-4.793 2.631-1.222 4.979-1.833 7.048-1.833 0.563 0 1.222 0.661 1.974 1.974 0.75 1.317 1.455 2.819 2.114 4.511 0.657 1.691 1.22 3.291 1.69 4.793 0.47 1.508 0.705 2.537 0.705 3.103 0 0.561-0.281 0.843-0.844 0.843" fill="#14C6FF"/></svg>
