<svg version="1.1" viewBox="0 0 98.2 48.8" xml:space="preserve" xmlns="http://www.w3.org/2000/svg"><polygon class="st0" transform="translate(-3.4 -.2)" points="58.6 7.5 60 7.5 60 1.7 62 1.7 62 0.4 56.6 0.4 56.6 1.7 58.6 1.7"/><rect class="st0" x="60.1" y=".2" width="1.4" height="7"/><polygon class="st0" transform="translate(-3.4 -.2)" points="66.8 0.4 66.8 7.5 68.2 7.5 68.2 2.9 71.6 7.5 72.9 7.5 72.9 0.4 71.6 0.4 71.6 5 68.1 0.4"/><path class="st0" d="m75.1 4.9h1.3c-0.2 0.8-0.8 1.2-1.8 1.2-1.6 0-2.3-1.2-2.3-2.4s0.8-2.4 2.2-2.4c0.8 0 1.5 0.4 1.6 1l0.1 0.2h1.4v-0.3c-0.2-1.3-1.5-2.2-3-2.2-2.3 0-3.6 1.9-3.6 3.7s1.3 3.6 3.6 3.6c1.7 0 2.9-1 3.3-2.5h0.7v-1.2h-3.5z"/><polygon class="st0" transform="translate(-3.4 -.2)" points="97 0.4 95.4 0.4 98 4.6 96.6 7.5 98.1 7.5 101.6 0.4 100.1 0.4 98.7 3.2"/><path class="st0" d="m83.7 4.6c0.7-0.4 1.1-1.2 1.1-2 0-1.3-1-2.3-2.3-2.3h-2.7v7h1.4v-2.4h1.1l1.1 2.3h1.5zm-1.2-0.9h-1.3v-2.2h1.3c0.6 0 1.1 0.5 1.1 1.1-0.1 0.6-0.5 1.1-1.1 1.1"/><path class="st0" d="m89.6 0.3-1.2-0.1-2.4 7h1.5l0.5-1.6h2.1l0.5 1.6h1.5zm-1.4 4.3 0.7-2.2 0.7 2.2z"/><path class="st0" d="m50.6 3.2-1.3-0.3c-0.5-0.1-0.7-0.3-0.7-0.7 0-0.5 0.4-0.8 1.1-0.8s1.1 0.4 1.3 0.8h1.4c-0.2-1.2-1.1-2-2.7-2-1.5 0-2.5 0.9-2.5 2.1 0 1.1 0.8 1.7 1.8 1.9l1.2 0.3c0.6 0.1 0.8 0.4 0.8 0.8 0 0.6-0.5 0.9-1.2 0.9s-1.2-0.3-1.4-0.9h-1.5c0.2 1.3 1.3 2.1 2.9 2.1 1.5 0 2.6-0.8 2.6-2.2 0-1.1-0.7-1.7-1.8-2"/><g transform="translate(-3.4 -.2)" fill="#e21e27"><path class="st1" d="m13 15.1 7.7-1.4v21.8h2v0.6h-7.7v-2c-0.4 0.5-0.9 1.1-1.6 1.6s-1.5 0.8-2.4 0.8c-1.3 0-2.4-0.2-3.3-0.7s-1.7-1.1-2.4-1.9c-0.6-0.8-1.1-1.7-1.4-2.7s-0.5-2.1-0.5-3.1c0-1.1 0.2-2.1 0.5-3.1s0.8-1.9 1.4-2.7 1.4-1.4 2.4-1.9c0.9-0.5 2.1-0.7 3.3-0.7 1.1 0 1.9 0.2 2.6 0.6s1.1 0.9 1.4 1.4v-6.2l-2 0.4zm-3.1 14.8c0 1.2 0 2.2 0.1 2.9s0.2 1.3 0.3 1.6c0.1 0.4 0.3 0.6 0.6 0.8 0.3 0.1 0.6 0.2 0.9 0.2s0.6-0.1 0.9-0.3 0.6-0.4 0.9-0.7 0.5-0.6 0.8-0.9l0.6-0.9v-9.8c-0.4-0.6-0.8-1.2-1.3-1.7s-1.1-0.8-1.8-0.8c-0.4 0-0.7 0.1-0.9 0.3s-0.4 0.5-0.6 0.9-0.3 1-0.3 1.7c-0.2 0.8-0.2 1.8-0.2 2.9z"/><path class="st1" d="m32 42.2c-0.5 1.4-1.1 2.6-2 3.6s-2 1.8-3.2 2.3c-1.3 0.6-2.8 0.9-4.3 0.9-1.4 0-2.6-0.3-3.6-1s-1.5-1.6-1.5-2.7c0-0.9 0.3-1.6 0.9-2.1s1.2-0.8 2-0.8 1.5 0.2 2 0.7 0.8 1.1 0.8 2c0 0.4-0.1 0.8-0.3 1.1s-0.4 0.6-0.6 0.8c-0.3 0.2-0.5 0.4-0.8 0.5s-0.6 0.2-0.8 0.2c0.4 0.3 0.8 0.5 1.4 0.5 0.3 0 0.6-0.1 1-0.2s0.7-0.3 1-0.5 0.5-0.5 0.7-0.9 0.3-0.9 0.3-1.5v-31.3l-2.8 0.4v-0.8l10.6-1.7v25.7c-0.1 1.8-0.4 3.4-0.8 4.8"/><path class="st1" d="m50.2 13.5c1.4 0.3 2.5 0.7 3.4 1.3s1.5 1.4 1.9 2.4 0.6 2.2 0.6 3.7v10.9c0 0.8 0.1 1.5 0.3 1.9 0.2 0.5 0.6 0.7 1.3 0.7 0.6 0 1-0.2 1.2-0.6s0.4-0.8 0.5-1.3c0-0.3 0.2-0.5 0.4-0.5s0.3 0.1 0.3 0.4c0 0.4-0.1 0.8-0.2 1.2-0.1 0.5-0.4 0.9-0.8 1.2-0.4 0.4-1 0.7-1.7 1s-1.7 0.4-3 0.4c-1.8 0-3.1-0.3-4-0.8s-1.6-1.2-1.9-1.9c-0.3 0.3-0.6 0.6-1 0.9s-0.9 0.6-1.4 0.9-1.1 0.5-1.8 0.7-1.4 0.3-2.3 0.3c-1.3 0-2.5-0.2-3.4-0.5-1-0.4-1.8-0.9-2.5-1.5s-1.1-1.4-1.5-2.2c-0.3-0.8-0.5-1.7-0.5-2.7 0-0.9 0.2-1.8 0.5-2.7s0.9-1.7 1.6-2.4 1.6-1.3 2.6-1.7c1.1-0.4 2.3-0.6 3.7-0.6h5.6v-4.1c0-1.2-0.2-2.2-0.6-2.9s-1.2-1-2.5-1c-1.4 0-2.4 0.1-2.9 0.3s-0.8 0.4-0.8 0.7c0 0.2 0.1 0.4 0.4 0.5 0.7 0.4 1 1.1 1 1.9 0 0.2 0 0.5-0.1 0.8s-0.2 0.6-0.4 0.9-0.5 0.5-0.9 0.7-0.8 0.3-1.4 0.3c-0.7 0-1.4-0.2-1.9-0.6-0.6-0.4-0.9-1.1-0.9-2.2 0-1.4 0.7-2.4 2.2-3.1s3.4-1 5.6-1c2.3-0.1 4 0 5.3 0.3m-4 9.5c-1.4 0-2.4 0.6-3 1.8s-0.9 2.7-0.9 4.6 0.2 3.3 0.5 4.2c0.4 0.8 1 1.3 1.8 1.3 0.2 0 0.5-0.1 0.9-0.3l1.2-0.6c0.4-0.3 0.8-0.6 1.1-0.9s0.4-0.6 0.4-1v-9.1z"/><path class="st1" d="m80.1 14.7-11.4 20.2h4.9c2 0 3.5-0.5 4.5-1.6s1.7-2.5 1.9-4.3h0.5v6.8h-19.8v-1.1l11.7-20.3h-4.4c-1.4 0-2.7 0.4-3.8 1.3s-1.8 2.2-2 4h-0.5v-6.2h18.4z"/><path class="st1" d="m100.7 14.7-11.4 20.2h4.9c2 0 3.5-0.5 4.5-1.6s1.7-2.5 1.9-4.3h0.5v6.8h-19.7v-1.1l11.7-20.3h-4.5c-1.4 0-2.7 0.4-3.8 1.3s-1.8 2.2-2 4h-0.5v-6.2h18.4z"/><path class="st1" d="m30.7 8.9c-0.6 0.6-1.4 0.9-2.3 0.9s-1.6-0.3-2.3-0.9c-0.6-0.6-0.9-1.4-0.9-2.3s0.3-1.6 0.9-2.3c0.6-0.6 1.4-0.9 2.3-0.9s1.6 0.3 2.3 0.9c0.6 0.6 0.9 1.4 0.9 2.3s-0.3 1.7-0.9 2.3"/></g></svg>
