<svg width="800" height="228.86" version="1.1" viewBox="0 0 800 228.86" xml:space="preserve" xmlns="http://www.w3.org/2000/svg">
<g transform="matrix(1.8382 0 0 1.8382 -66.728 -65.993)" fill="#464646">
		<polygon points="233.1 62.5 233.1 54.7 200.3 54.7 200.3 62.5 212.6 62.5 212.6 97.1 220.9 97.1 220.9 62.5"/>
		<rect x="241.7" y="54.7" width="8.4" height="42.4"/>
		<polygon points="269.9 69.5 290.7 97.1 298.7 97.1 298.7 54.7 290.4 54.7 290.4 82.4 269.7 54.7 261.7 54.7 261.7 97.1 269.9 97.1"/>
		<path d="m332.5 82.8h7.9c-1.4 4.7-5.3 7.4-10.9 7.4-9.5 0-13.8-7.4-13.8-14.2 0-7 4.7-14.4 13.3-14.4 4.9 0 8.9 2.5 9.8 6l0.3 1.2h8.2l-0.3-1.8c-1.2-7.6-8.8-13.2-18.1-13.2-14 0-21.5 11.5-21.5 22.3 0 10.9 7.5 21.9 22 21.9 10.2 0 17.7-5.8 19.8-15.2h4.5v-7.8h-21v7.8z"/>
		<polygon points="441 97.1 450.2 97.1 471.5 54.7 462.3 54.7 453.9 71.4 443.5 54.7 433.8 54.7 449.6 80"/>
		<path d="m384 81c4.3-2.5 6.9-7.2 6.9-12.2 0-7.7-6.3-14.1-14-14.1h-16.4v42.3h8.2v-14h6.9l6.4 14.1h9.3zm-7.2-5.8h-8.1v-12.7h8c3.5 0 6.3 2.9 6.3 6.4 0.1 3.5-2.7 6.3-6.2 6.3z"/>
		<path d="m419.4 55.1-0.1-0.4h-7.3l-14.6 42.4h9l3.1-9.5h12.4l3.1 9.5h9zm-8.2 25.6 4.5-13.5 4.5 13.5z"/>
		<path d="m184.7 72.7-7.7-1.7c-3.1-0.8-4.7-2.2-4.7-4.6 0-3 2.7-4.9 6.6-4.9 4.4 0 6.8 2.2 7.7 5h8.7c-1.4-7.1-6.9-12.2-16.5-12.2-8.8 0-15.1 5.3-15.1 12.9 0 6.9 4.6 10.1 10.6 11.5l7.5 1.7c3.6 0.8 5.1 2.2 5.1 4.7 0 3.3-2.8 5.3-7 5.3-4.1 0-7.2-1.7-8.3-5.4h-9c1.4 8 8.1 12.6 17.4 12.6 8.9 0 15.6-4.9 15.6-13 0.1-6.4-4.1-10.3-10.9-11.9z"/>
	</g><g transform="matrix(1.8382 0 0 1.8382 -66.728 -65.993)" fill="#1e8cd7">
			<path d="m219.8 141.9h-6v-16.5l-5.7 16.5h-4.6l-5.9-16.5v16.5h-6v-26.6h7.1l7.1 18.5 7-18.5h7z"/>
			<path d="m226.3 115.4h11c7.3 0 8.6 4.7 8.6 7.4 0 3.6-2.4 5.3-4.2 5.8 1.6 0.4 4.4 1.9 4.4 5.9 0 2.7-1.3 7.6-8.6 7.6h-11.2zm9.8 10.8c3 0 3.7-1.9 3.7-3.2 0-1.2-0.6-3.1-3.7-3.1h-3.7v6.3zm-3.7 4.5v6.5h3.8c3 0 3.7-2 3.7-3.3s-0.7-3.3-3.6-3.3h-3.9z"/>
			<path d="m252 115.4h6.2v26.6h-6.2z"/>
			<path d="m307.4 132.7v-17.3h6.1v26.6h-6.4l-9.6-17.1v17.1h-6.2v-26.6h6.4z"/>
			<path d="m345.6 132.4c-1 5.6-5.8 10.2-13.3 10.2-8.9 0-14.2-6.5-14.2-14 0-7.3 5.1-14 14.2-14 7.8 0 12.6 4.9 13.3 11h-6.4c-0.6-3.1-2.9-5.5-6.8-5.5-5.1 0-8 4-8 8.4 0 4.7 3.2 8.4 8.1 8.4 3.6 0 5.9-2.1 6.7-4.7h6.4z"/>
			<path d="m356.2 120.3v6h10.1v4.8h-10.1v5.8h10.1v4.9h-16.2v-26.6h16.2v4.9h-10.1z"/>
			<path d="m180.8 141.9-1.9-6.1h-7.6l-2 6.1h-6.6l9.5-26.6h5.7l9.6 26.6zm-5.8-18.9-2.6 8.7h5.1z"/>
			<path d="m280.6 141.9-1.9-6.1h-7.6l-2 6.1h-6.6l9.5-26.6h5.7l9.6 26.6zm-5.7-18.9-2.6 8.7h5.1z"/>
		</g><g transform="matrix(1.8382 0 0 1.8382 -66.728 -65.993)" fill="#464646">
			<path d="m395 136.5v5.5h-5.2v-5.5h-11.2l-0.6-4 12.3-17.2h4.8v16.7h3.1v4.5zm-5.2-13.2-6 8.7h6z"/>
			<path d="m416.7 141.9-6.6-10.9-2.5 3.1v7.8h-5.5v-26.5h5.5v11.4l8.6-11.4h6.5l-8.9 11.2 9.3 15.3z"/>
		</g>
<g transform="matrix(1.8382 0 0 1.8382 -66.728 -65.993)">
	<path d="m90 35.9c0.4 6.1 5 37.3 27.9 66 4.9 6 10.6 11.9 17.2 17.3l-45.1 41.2-45.1-41.2c6.7-5.4 12.4-11.3 17.2-17.3 22.8-28.7 27.4-59.9 27.9-66" fill="#1e8cd7"/>
	<path d="m143.6 74.6-53.6-38.7-53.7 38.7c10.5 8.8 18.9 18.1 25.8 27.3 22.4 30.1 27.4 51.8 27.9 58.5 0.5-6.7 5.4-28.4 27.9-58.5 6.8-9.2 15.2-18.5 25.7-27.3z" fill="#41c3ff"/>
	<linearGradient id="SVGID_1_" x1="81.105" x2="64.555" y1="128.22" y2="137.77" gradientUnits="userSpaceOnUse">
		<stop stop-color="#464646" stop-opacity=".6" offset="0"/>
		<stop stop-color="#464646" stop-opacity="0" offset="1"/>
	</linearGradient>
	<path d="m90 160.4-45.1-41.2c6.7-5.4 12.4-11.3 17.2-17.3 22.4 30.1 27.4 51.8 27.9 58.5z" fill="url(#SVGID_1_)"/>
	<linearGradient id="SVGID_2_" x1="98.149" x2="120.81" y1="72.459" y2="58.516" gradientUnits="userSpaceOnUse">
		<stop stop-color="#1E8CD7" stop-opacity=".67" offset="0"/>
		<stop stop-color="#1E8CD7" stop-opacity="0" offset="1"/>
	</linearGradient>
	<path d="m90 35.9c0.4 6.1 5 37.3 27.9 66 6.8-9.2 15.3-18.5 25.8-27.3z" fill="url(#SVGID_2_)"/>
</g>
</svg>
