<svg width="800" height="271.97" version="1.1" viewBox="0 0 800 271.97" xml:space="preserve" xmlns="http://www.w3.org/2000/svg">
<g transform="matrix(1.8083 0 0 1.8083 -250.81 -515.01)">
		<polygon points="419.7 290.7 419.7 285.4 397.5 285.4 397.5 290.7 405.8 290.7 405.8 314.1 411.4 314.1 411.4 290.7"/>
		<rect x="425.5" y="285.4" width="5.7" height="28.7"/>
		<polygon points="444.6 295.4 458.7 314.1 464.1 314.1 464.1 285.4 458.5 285.4 458.5 304.2 444.5 285.4 439 285.4 439 314.1 444.6 314.1"/>
		<path d="m487 304.4h5.3c-0.9 3.2-3.6 5-7.4 5-6.4 0-9.3-5-9.3-9.6 0-4.7 3.1-9.8 9-9.8 3.3 0 6 1.7 6.6 4.1l0.2 0.8h5.6l-0.2-1.2c-0.8-5.2-6-8.9-12.3-8.9-9.5 0-14.6 7.8-14.6 15.1 0 7.4 5.1 14.8 14.9 14.8 6.9 0 12-3.9 13.4-10.3h3v-5.2h-14.2z"/>
		<polygon points="560.5 314.1 566.7 314.1 581.1 285.4 574.9 285.4 569.2 296.7 562.2 285.4 555.6 285.4 566.3 302.6"/>
		<path d="m521.9 303.2c2.9-1.7 4.7-4.8 4.7-8.2 0-5.2-4.3-9.5-9.5-9.6h-11.1v28.7h5.6v-9.5h4.6l4.4 9.5h6.3zm-4.9-3.9h-5.5v-8.7h5.4c2.4 0 4.3 1.9 4.3 4.3 0.1 2.5-1.8 4.4-4.2 4.4z"/>
		<path d="m545.9 285.7-0.1-0.2h-5l-9.9 28.7h6.1l2.1-6.4h8.4l2.1 6.4h6.1zm-5.6 17.3 3-9.1 3 9.1z"/>
		<path d="m386.9 297.6-5.2-1.2c-2.1-0.5-3.2-1.5-3.2-3.1 0-2 1.8-3.3 4.5-3.3 3 0 4.6 1.5 5.2 3.4h5.9c-0.9-4.8-4.7-8.2-11.1-8.2-6 0-10.2 3.6-10.2 8.7 0 4.7 3.1 6.8 7.2 7.8l5.1 1.2c2.5 0.6 3.5 1.5 3.5 3.2 0 2.3-1.9 3.6-4.8 3.6-2.8 0-4.9-1.2-5.6-3.6h-6.2c1 5.4 5.5 8.5 11.8 8.5 6 0 10.5-3.3 10.5-8.8 0-4.5-2.8-7.1-7.4-8.2z"/>
	</g><path d="m798.37 130.02h-55.154l-46.655 44.123 18.264-91.32h-43.038l-21.519 108.32h-13.924l22.966-108.32h-40.868l-106.87 106.87-7.5949 37.975h83.363l-9.0416 41.772h41.23l9.0416-41.772h14.105l-8.6799 41.772h42.857l9.0416-44.846 14.647-12.477 20.976 57.143h47.197l-35.081-84.81zm-246.84 61.121 55.335-56.6-11.935 56.6z" fill="#49f990" stroke-width="1.8083"/><g transform="matrix(1.8083 0 0 1.8083 -250.81 -515.01)">
		<path d="m163.9 296.6h30.3l-5.7 30.3-2.4 12.8c7.3-9.1 18.1-12.8 28.9-12.8 15.5 0 23.7 5.5 27.6 14.4 3.8 8.8 3.1 20.8 0.5 33.8l-10.4 56.6h-30.3l10.2-55.2c1.1-5.7 1.3-11-0.4-14.8-1.8-3.8-5.5-6.4-12.1-6.4-8.4 0-13.3 3.8-16.3 8.2s-3.8 9.3-4.4 11.9l-10.4 56.2h-30.3z"/>
		<path d="m257.6 330.4h30.3l-18.8 101.4h-30.3zm6.2-33.8h30.3l-4.2 23h-30.3z"/>
		<path d="m303.4 353.4h-15l4.2-23h15l6.2-33.8h30.3l-6.2 33.8h14.6l-4.2 23h-14.6l-14.6 78.3h-30.3z"/>
		<path d="m388.8 358.9c0.2-2.2 0.9-7.7-8-7.7-6.4 0-9.3 4-9.9 6.8-0.9 4.6 6 7.7 13.7 10 16.3 4.7 33.6 9.9 29.4 31.8-4 22.3-25.4 35.4-47.8 35.4-15.3 0-37.1-6.9-34.9-33.6h30.1c-0.5 9.3 8.4 9.3 9.7 9.3 5.1 0 11.1-2.9 12.1-7.9 1.3-6.9-6-7.9-23.9-15.3-12.4-4.2-21.7-12.8-19.2-26.5 3.8-21 24.5-34.3 45.5-34.3 13.3 0 35.4 5.3 33.1 32z"/>
	</g>
</svg>
