<svg width="211.67mm" height="61.747mm" version="1.1" viewBox="0 0 211.67 61.747" xmlns="http://www.w3.org/2000/svg">
 <defs>
  <clipPath id="f">
   <path d="m0 0h612v792h-612z"/>
  </clipPath>
  <clipPath id="e">
   <path d="m0 0h612v792h-612z"/>
  </clipPath>
  <clipPath id="d">
   <path d="m0 0h612v792h-612z"/>
  </clipPath>
  <clipPath id="c">
   <path d="m0 0h612v792h-612z"/>
  </clipPath>
  <clipPath id="b">
   <path d="m0 0h612v792h-612z"/>
  </clipPath>
  <clipPath id="a">
   <path d="m0 0h612v792h-612z"/>
  </clipPath>
 </defs>
 <g transform="translate(42.483 -94.517)">
  <g fill="#474747">
   <g transform="matrix(1.4657 0 0 -1.4657 73.485 97.233)">
    <path d="m0 0h2.64v-7.41h1.766v7.41h2.619v1.661h-7.025z" fill="#474747"/>
   </g>
   <path d="m86.471 108.09h2.644v-13.294h-2.644z"/>
   <g transform="matrix(1.4657 0 0 -1.4657 101.76 103.48)">
    <path d="m0 0-4.435 5.924h-1.719v-9.07h1.767v5.909l4.435-5.909h1.718v9.07h-1.766z" fill="#474747"/>
   </g>
   <g transform="matrix(1.4657 0 0 -1.4657 -236.98 1133.4)">
    <g clip-path="url(#f)" fill="#474747">
     <g transform="translate(240.12 702.62)" fill="#474747">
      <path d="m0 0h1.69c-0.292-1.013-1.139-1.591-2.341-1.591-2.026 0-2.949 1.579-2.949 3.043 0 1.5 0.995 3.093 2.841 3.093 1.042 0 1.902-0.532 2.093-1.292l0.067-0.255h1.757l-0.059 0.388c-0.248 1.634-1.881 2.819-3.882 2.819-2.992 0-4.606-2.455-4.606-4.765 0-2.331 1.614-4.689 4.701-4.689 2.176 0 3.791 1.242 4.235 3.249h0.959v1.66h-4.506z" fill="#474747"/>
     </g>
    </g>
   </g>
   <g transform="matrix(1.4657 0 0 -1.4657 155.7 94.799)">
    <path d="m0 0-1.8-3.573-2.24 3.573h-2.069l3.389-5.416-1.842-3.653h1.958l4.561 9.069z" fill="#474747"/>
   </g>
   <g transform="matrix(1.4657 0 0 -1.4657 -236.98 1133.4)">
    <g clip-path="url(#e)" fill="#474747">
     <g transform="translate(251.14 703)" fill="#474747">
      <path d="m0 0c0.914 0.545 1.476 1.53 1.476 2.601 0 1.657-1.346 3.017-3 3.027h-3.503v-9.057h1.764v2.999h1.467l1.377-3.012h1.989zm-1.526 1.233h-1.737v2.736h1.722c0.746 0 1.359-0.614 1.359-1.368 0-0.748-0.604-1.361-1.344-1.368" fill="#474747"/>
     </g>
    </g>
   </g>
   <g transform="matrix(1.4657 0 0 -1.4657 142.23 94.913)">
    <path d="m0 0-0.026 0.077h-1.566l-3.134-9.071h1.921l0.671 2.025h2.654l0.671-2.025h1.92zm-1.762-5.484 0.954 2.884 0.956-2.884z" fill="#474747"/>
   </g>
   <g transform="matrix(1.4657 0 0 -1.4657 -236.98 1133.4)">
    <g clip-path="url(#d)" fill="#474747">
     <g transform="translate(208.48 704.78)" fill="#474747">
      <path d="m0 0-1.634 0.38c-0.674 0.16-1.009 0.467-1.009 0.979 0 0.642 0.569 1.049 1.416 1.049 0.934 0 1.446-0.466 1.65-1.066h1.856c-0.292 1.522-1.475 2.603-3.521 2.603-1.885 0-3.227-1.141-3.227-2.763 0-1.474 0.993-2.16 2.277-2.453l1.608-0.365c0.776-0.175 1.094-0.466 1.094-1.008 0-0.716-0.598-1.124-1.503-1.124-0.876 0-1.534 0.365-1.78 1.154h-1.93c0.305-1.71 1.723-2.702 3.724-2.702 1.9 0 3.33 1.05 3.33 2.791 0 1.356-0.891 2.19-2.351 2.525" fill="#474747"/>
     </g>
    </g>
   </g>
  </g>
  <g fill="#ed1962">
   <g transform="matrix(1.4657 0 0 -1.4657 130.54 151.03)">
    <path d="m0 0h-10.859v5.039l10.634 15.166h5.655v-14.844h3.347v-5.361h-3.341v-3.572h-5.436zm0 5.361v7.453l-4.755-7.453z" fill="#ed1962"/>
   </g>
   <g transform="matrix(1.4657 0 0 -1.4657 144.74 121.42)">
    <path d="m0 0h5.334v-12.402l5.012 6.458h6.329l-6.715-7.84 6.522-9.992h-6.04l-5.108 8.578v-8.578h-5.334z" fill="#ed1962"/>
   </g>
  </g>
  <g fill="#242055">
   <g transform="matrix(1.4657 0 0 -1.4657 -236.98 1133.4)">
    <g clip-path="url(#c)" fill="#242055">
     <g transform="translate(134.76 684.48)">
      <path d="m0 0h-2.055v4.176h2.055v0.796c0 5.336 3.944 5.8 7.822 5.8v-4.143c-1.027 0-2.32 0-2.32-1.757v-0.696h2.32v-4.176h-2.32v-14.219h-5.502z" fill="#242055"/>
     </g>
     <g transform="translate(154.6 675.72)">
      <path d="m0 0c-0.648-0.813-1.554-1.419-3.12-1.419-2.154 0-4.011 1.292-4.242 3.248h13.688c0.431 3.38-0.265 6.33-2.585 8.816-1.723 1.823-4.143 2.917-6.96 2.917-5.602 0-9.646-4.739-9.646-9.877 0-5.469 4.475-9.744 9.745-9.744 1.889 0 3.712 0.563 5.237 1.656 1.478 1.007 2.714 2.497 3.602 4.403zm-3.186 8.922c2.85 0 3.977-2.055 4.11-2.917h-8.22c0.132 0.862 1.259 2.917 4.11 2.917" fill="#242055"/>
     </g>
    </g>
   </g>
   <g transform="matrix(1.4657 0 0 -1.4657 23.473 130.2)">
    <path d="m0 0h-2.718v4.176h2.718v6.5h5.502v-6.5h2.652v-4.176h-2.652v-14.219h-5.502z" fill="#242055"/>
   </g>
   <path d="m36.231 124.08h8.0641v26.962h-8.0641z"/>
   <g transform="matrix(1.4657 0 0 -1.4657 61.809 151.04)">
    <path d="m0 0h-5.27l-6.596 18.396h5.701l3.546-11.469 3.547 11.469h5.701z" fill="#242055"/>
   </g>
   <g transform="matrix(1.4657 0 0 -1.4657 -236.98 1133.4)">
    <g clip-path="url(#b)" fill="#242055">
     <g transform="translate(229.32 670.26)" fill="#242055">
      <path d="m0 0h-5.502v1.989c-0.995-1.79-3.281-2.618-5.436-2.618-5.834 0-9.247 4.574-9.247 9.844 0 6.032 4.342 9.811 9.247 9.811 3.016 0 4.707-1.459 5.436-2.586v1.956h5.502zm-14.683 9.115c0-1.691 1.259-4.607 4.574-4.607 1.955 0 3.148 0.928 3.844 2.055 0.465 0.729 0.696 1.524 0.763 2.353 0.066 0.829-0.099 1.658-0.464 2.42-0.597 1.259-1.856 2.552-4.177 2.552-3.148 0-4.54-2.652-4.54-4.74z" fill="#242055"/>
     </g>
    </g>
   </g>
   <path d="m102.07 114.56h8.064v36.488h-8.064z"/>
   <g transform="matrix(1.4657 0 0 -1.4657 -236.98 1133.4)">
    <g clip-path="url(#a)" fill="#242055">
     <g transform="translate(169.4 681.83)" fill="#242055">
      <path d="m0 0c-1.459 0.431-2.817 0.995-2.817 1.823 0 0.497 0.397 1.227 1.557 1.227 1.625 0 1.691-0.995 1.724-1.392h5.402c-0.464 4.839-4.64 5.8-7.06 5.8-3.811 0-7.126-2.419-7.126-6.231 0-2.486 1.989-4.044 4.376-4.806 3.513-1.359 4.872-1.525 4.872-2.784 0-0.895-0.994-1.426-1.923-1.426-0.231 0-1.851 1e-3 -2.087 1.685h-5.469c0.5-4.835 4.707-6.093 7.491-6.093 4.076 0 7.489 2.386 7.489 6.431 0 3.976-3.313 4.904-6.429 5.766" fill="#242055"/>
     </g>
    </g>
   </g>
  </g>
 </g>
</svg>
