<svg id="a" version="1.1" viewBox="0 0 800 199.58" xml:space="preserve" xmlns="http://www.w3.org/2000/svg">
<g id="b" transform="matrix(2.7875 0 0 2.7875 -321.67 -484.18)" fill="#494949">
	<polygon id="c" class="st0" points="298.8 177.6 298.8 174.2 284.5 174.2 284.5 177.6 289.9 177.6 289.9 192.6 293.5 192.6 293.5 177.6"/>
	<rect id="d" class="st0" x="302.5" y="174.2" width="3.7" height="18.4"/>
	<polygon id="e" class="st0" points="314.8 180.6 323.8 192.6 327.3 192.6 327.3 174.2 323.7 174.2 323.7 186.2 314.7 174.2 311.2 174.2 311.2 192.6 314.8 192.6"/>
	<path id="f" class="st0" d="m342 186.4h3.4c-0.6 2.1-2.3 3.2-4.8 3.2-4.1 0-6-3.2-6-6.2s2-6.3 5.8-6.3c2.1 0 3.9 1.1 4.3 2.6l0.1 0.5h3.6l-0.1-0.8c-0.5-3.3-3.8-5.7-7.9-5.7-6.1 0-9.3 5-9.3 9.7s3.3 9.5 9.5 9.5c4.4 0 7.7-2.5 8.6-6.6h1.9v-3.3h-9.1z"/>
	<polygon id="g" class="st0" points="389.2 192.6 393.1 192.6 402.4 174.2 398.4 174.2 394.8 181.4 390.2 174.2 386 174.2 392.9 185.2"/>
	<path id="h" class="st0" d="m364.4 185.6c1.9-1.1 3-3.1 3-5.3 0-3.4-2.7-6.1-6.1-6.1h-7.1v18.4h3.6v-6.1h3l2.8 6.1h4zm-3.1-2.5h-3.5v-5.6h3.5c1.5 0 2.8 1.2 2.8 2.8-0.1 1.5-1.3 2.8-2.8 2.8"/>
	<path id="i" class="st0" d="m379.8 174.3-0.1-0.2h-3.2l-6.4 18.4h3.9l1.4-4.1h5.4l1.4 4.1h3.9zm-3.6 11.2 1.9-5.9 1.9 5.9z"/>
	<path id="j" class="st0" d="m277.8 182-3.3-0.8c-1.4-0.3-2-0.9-2-2 0-1.3 1.2-2.1 2.9-2.1 1.9 0 2.9 0.9 3.4 2.2h3.8c-0.6-3.1-3-5.3-7.1-5.3-3.8 0-6.5 2.3-6.5 5.6 0 3 2 4.4 4.6 5l3.3 0.7c1.6 0.4 2.2 0.9 2.2 2 0 1.5-1.2 2.3-3.1 2.3-1.8 0-3.1-0.7-3.6-2.3h-3.9c0.6 3.5 3.5 5.5 7.6 5.5 3.9 0 6.8-2.1 6.8-5.7-0.4-2.7-2.2-4.4-5.1-5.1"/>
</g>
<g id="k" transform="matrix(2.7875 0 0 2.7875 -321.67 -484.18)" fill="#b59862">
	<path id="l" class="st1" d="m178.2 242v-58.4h-1.5l-0.1 0.2c-1.4 2.1-3.3 3.9-5.5 5.3s-4.6 2.2-7.2 2.4h-0.5v1.6h1c0.4 0 0.7 0.1 0.7 0.8v48c0 0.5-0.2 0.7-0.7 0.7h-1v1.7h16.4v-1.7h-1c-0.3 0.1-0.6 0-0.6-0.6z"/>
	<path id="m" class="st1" d="m225 209.2c-2.4-1.4-4.4-3.2-6-5.3l-0.2-0.2h-1.4v5.9c-1.8-1.8-3.9-3.3-6.3-4.3-2.5-1.1-5.3-1.6-8.1-1.6s-5.5 0.5-7.9 1.6c-2.5 1.1-4.7 2.6-6.5 4.4-1.8 1.9-3.3 4-4.4 6.4s-1.6 5-1.6 7.7c0 2.9 0.6 5.6 1.7 8 1.1 2.5 2.6 4.7 4.5 6.5s4.1 3.3 6.5 4.3c2.5 1 5.1 1.6 7.7 1.6 2.9 0 5.7-0.6 8.2-1.7 2.3-1.1 4.4-2.5 6.2-4.2v3.6c0 0.5-0.2 0.7-0.7 0.7h-1.1v1.7h17.7v-1.7h-1.1c-0.7 0-0.8-0.3-0.8-0.7v-27.9c0-0.5 0.1-0.7 0.8-0.7h1.1v-1.6h-0.4c-2.9-0.3-5.6-1.1-7.9-2.5zm-27.5 26.5c-0.2-2.8-0.3-5.9-0.2-9.5v-4.4c-0.1-3.5 0-6.6 0.2-9.4 0.2-2.7 0.9-4.6 2-5.8 0.8-0.8 1.9-1.3 3.3-1.3h0.2c2.6 0 5.1 0.5 7.4 1.5s4.4 2.4 6.1 4.2c0.6 0.6 0.9 1.3 0.9 2.3v21.4c0 1-0.3 1.7-1 2.3-1.7 1.8-3.7 3.2-6 4.2s-4.8 1.5-7.4 1.5h-0.2c-1.3 0-2.4-0.4-3.3-1.2-1.1-1.2-1.8-3.1-2-5.8z"/>
	<path id="n" class="st1" d="m311.6 242v-38.3h-1.4l-0.1 0.2c-1.5 2.2-3.3 4-5.6 5.3-2.2 1.4-4.7 2.2-7.4 2.5l-0.4 0.1v1.6h1c0.4 0 0.6 0.1 0.6 0.7v27.9c0 0.6-0.2 0.7-0.6 0.7h-1v1.7h16.7v-1.7h-1c-0.6 0-0.8-0.2-0.8-0.7z"/>
	<path id="o" class="st1" d="m399.1 213.4h1.1v-1.6h-0.4c-2.9-0.3-5.6-1.1-7.9-2.5-2.4-1.4-4.4-3.1-6-5.3l-0.2-0.2h-1.4v5.9c-1.8-1.8-3.9-3.3-6.3-4.3-2.5-1.1-5.3-1.6-8.1-1.6s-5.5 0.5-7.9 1.6c-2.5 1.1-4.7 2.6-6.5 4.4-1.8 1.9-3.3 4-4.4 6.4s-1.6 5-1.6 7.7c0 2.9 0.6 5.6 1.7 8 1.1 2.5 2.6 4.7 4.5 6.5s4.1 3.3 6.5 4.3c2.5 1 5.1 1.6 7.7 1.6 2.9 0 5.7-0.6 8.2-1.7 2.3-1.1 4.4-2.5 6.2-4.2v3.6c0 0.5-0.2 0.7-0.7 0.7h-1.1v1.7h17.7v-1.7h-1.1c-0.7 0-0.8-0.3-0.8-0.7v-27.9c0-0.5 0.1-0.7 0.8-0.7zm-32.7 28.1c-1.2-1.2-1.8-3.2-2.1-5.8-0.2-2.8-0.3-5.9-0.2-9.5v-4.4c-0.1-3.5 0-6.6 0.2-9.4 0.2-2.7 0.9-4.6 2-5.8 0.8-0.8 1.9-1.3 3.3-1.3h0.2c2.6 0 5.1 0.5 7.4 1.5s4.4 2.4 6.1 4.2c0.6 0.6 0.9 1.3 0.9 2.3v21.4c0 1-0.3 1.7-1 2.3-1.7 1.7-3.7 3.2-6 4.2s-4.8 1.5-7.4 1.5h-0.2c-1.3 0-2.4-0.4-3.2-1.2z"/>
	<path id="p" class="st1" d="m159.4 195.7c-2.3-1.7-4.9-3-7.6-4-2.8-1-5.7-1.5-8.9-1.5-3.8 0-7.4 0.7-10.7 2.2s-6.3 3.5-8.7 5.9c-2.5 2.5-4.4 5.4-5.9 8.7-1.4 3.3-2.2 7-2.2 10.8s0.7 7.4 2.2 10.7c1.4 3.3 3.4 6.3 5.9 8.7 2.5 2.5 5.4 4.4 8.7 5.9 3.4 1.5 7 2.2 10.8 2.2 3.1 0 6-0.5 8.8-1.5 2.7-1 5.3-2.3 7.6-4 0 0 0.1 0 0.2-0.1l0.4-0.1v-2.2l-0.8 0.6c-2.2 1.7-4.6 3.1-7.3 4.1s-5.7 1.6-8.8 1.6h-0.5c-2.9 0-5.3-0.4-7.2-1.2s-3-1.5-3.5-2c-0.7-0.8-1.3-1.8-1.7-3-0.4-1.3-0.7-2.8-0.9-4.5s-0.3-3.6-0.3-5.6v-19.5c0-2 0.1-3.9 0.3-5.6s0.5-3.2 0.9-4.5c0.4-1.2 0.9-2.3 1.7-3 0.5-0.6 1.7-1.3 3.5-2 1.8-0.8 4.2-1.2 7.2-1.2h0.5c3.1 0 6 0.5 8.8 1.6 2.6 1 5.1 2.4 7.3 4.1l0.8 0.6v-2.2l-0.4-0.1c-0.1 0.2-0.2 0.2-0.2 0.1z"/>
	<path id="q" class="st1" d="m262.7 228.5c-0.8-1.5-1.9-3-3.2-4.4s-2.6-2.7-4-4-2.7-2.6-4-3.8c-1.2-1.2-2.2-2.5-3-3.7s-1.1-2.4-1.1-3.7c0-0.8 0.4-1.5 1.1-2.1 0.8-0.6 1.6-0.9 2.6-0.9 1.4 0 2.7 0.2 4 0.5 1.3 0.4 2.4 0.9 3.4 1.5 0.5 0.3 0.9 0.6 1.1 0.9 0.2 0.2 0.4 0.4 0.4 0.5 0.1 0.2 0.3 0.5 0.6 1 0.3 0.4 0.4 1 0.4 1.6v2.8h1.5v-8.1h-1.5v1.6l-0.4-0.4c-0.3-0.3-0.8-0.7-1.3-1-1.1-0.7-2.4-1.3-3.8-1.7s-2.9-0.6-4.4-0.6c-1.7 0-3.4 0.2-4.9 0.7-1.5 0.4-2.9 1.1-4 1.9-1.2 0.8-2.1 1.8-2.8 2.9-0.7 1.2-1 2.5-1 3.9 0 1.6 0.5 3.1 1.4 4.6 0.9 1.4 2 2.8 3.4 4.1 1.3 1.3 2.8 2.6 4.3 3.9s2.9 2.6 4.2 4c1.3 1.3 2.4 2.8 3.2 4.2s1.2 3 1.2 4.6c0 1-0.2 1.8-0.5 2.4-0.4 0.6-0.8 1-1.4 1.3s-1.2 0.5-1.9 0.6-1.3 0.2-1.9 0.2c-1.4 0-2.7-0.2-3.9-0.5s-2.3-0.8-3.3-1.4-1.9-1.3-2.6-2.1c-0.2-0.3-0.5-0.6-0.7-0.9l-0.1-0.2h-1.8l0.5 0.8c0.7 1.1 1.5 2 2.6 2.8 1.2 0.9 2.6 1.6 4.2 2.1s3.3 0.8 5.1 0.8c1.9 0 3.7-0.3 5.3-0.8 1.7-0.5 3.1-1.3 4.4-2.2 1.2-1 2.2-2.2 2.9-3.6s1-3.1 1-4.9c0-1.9-0.4-3.7-1.3-5.2z"/>
	<path id="r" class="st1" d="m288.7 224c-1.3-1.4-2.6-2.8-4-4-1.4-1.3-2.7-2.5-4-3.8-1.2-1.2-2.2-2.5-3-3.7s-1.1-2.4-1.1-3.7c0-0.8 0.4-1.5 1.1-2.1 0.8-0.6 1.6-0.9 2.6-0.9 1.4 0 2.7 0.2 4 0.5 1.3 0.4 2.4 0.9 3.4 1.5 0.5 0.3 0.9 0.6 1.1 0.9l0.5 0.5c0.1 0.2 0.3 0.5 0.6 1 0.3 0.4 0.4 1 0.4 1.6v2.8h1.5v-8.1h-1.5v1.6l-0.5-0.5c-0.3-0.3-0.8-0.7-1.3-1-1.1-0.7-2.4-1.3-3.8-1.7s-2.9-0.6-4.4-0.6c-1.7 0-3.4 0.2-4.9 0.7-1.5 0.4-2.9 1.1-4 1.9s-2.1 1.8-2.8 2.9-1 2.4-1 3.9c0 1.6 0.5 3.1 1.4 4.6 0.9 1.4 2 2.8 3.4 4.1 1.3 1.3 2.8 2.6 4.3 3.9s2.9 2.6 4.2 4c1.3 1.3 2.4 2.8 3.2 4.2s1.2 3 1.2 4.6c0 1-0.2 1.8-0.5 2.4-0.4 0.6-0.8 1-1.4 1.3s-1.2 0.5-1.9 0.6-1.3 0.2-1.9 0.2c-1.4 0-2.7-0.2-3.9-0.5s-2.3-0.8-3.3-1.4-1.9-1.3-2.6-2.1c-0.2-0.3-0.5-0.6-0.7-0.9l-0.1-0.2h-1.6l0.5 0.8c0.7 1.1 1.5 2 2.6 2.8 1.2 0.9 2.6 1.6 4.2 2.1s3.3 0.8 5.1 0.8c1.9 0 3.7-0.3 5.3-0.8 1.7-0.5 3.1-1.3 4.4-2.2 1.2-1 2.2-2.2 2.9-3.6s1-3.1 1-4.9-0.4-3.5-1.3-5.1c-1.1-1.5-2.1-3-3.4-4.4z"/>
	<path id="s" class="st1" d="m336.7 204.1c-2.7 0-5.4 0.5-7.9 1.6s-4.7 2.6-6.6 4.4c-1.9 1.9-3.4 4.1-4.5 6.6-1 2.2-1.5 4.7-1.6 7.2v1.4c0.1 2.6 0.7 5 1.6 7.2 1.1 2.5 2.6 4.7 4.5 6.6s4.1 3.4 6.6 4.4c2.5 1.1 5.1 1.6 7.9 1.6 4.1 0 7.9-1.1 11.3-3.3l0.2-0.1v-2l-0.8 0.5c-3.2 2.2-6.8 3.3-10.7 3.3-1.4 0-2.5-0.4-3.4-1.3-1.2-1.2-1.9-3.1-2.1-5.8-0.2-2.8-0.3-6-0.2-9.5v-4.5c-0.1-3.5 0-6.7 0.2-9.5 0.2-2.7 0.9-4.7 2.1-5.8 0.9-0.9 2-1.3 3.4-1.3 3.9 0 7.5 1.1 10.7 3.3l0.8 0.5v-2l-0.2-0.1c-3.4-2.3-7.2-3.4-11.3-3.4z"/>
</g>
</svg>
