<svg width="800" height="101.48" enable-background="new 0 0 441.4 92.4" version="1.1" viewBox="0 0 800 101.48" xml:space="preserve" xmlns="http://www.w3.org/2000/svg">
<path d="m57.044 14.94c-0.38805 0.7761-1.1642 1.5522-1.9403 2.1343-0.7761 0.58208-1.7462 0.7761-2.5223 0.7761s-1.7462-0.19403-2.9104-0.7761c-0.97013-0.58208-2.1343-1.1642-3.4925-1.7462-1.3582-0.58208-3.1044-1.1642-5.0447-1.7462-1.9403-0.58208-4.2686-0.7761-7.373-0.7761-5.0447 0-9.1192 0.97013-12.224 2.9104-3.1044 1.9403-4.8507 5.0447-4.8507 9.5073 0 3.2984 1.1642 6.0148 3.2984 7.9551s4.8507 3.6865 8.1491 5.2387 6.7909 2.9104 10.671 4.4626c3.8805 1.3582 7.373 3.4925 10.671 5.8208 3.2984 2.3283 6.0148 5.4327 8.1491 9.1192s3.2984 8.7312 3.2984 14.552c0 4.8507-0.7761 9.1192-2.3283 12.806-1.5522 3.6865-3.6865 6.5969-6.4029 9.1192-2.7164 2.3283-6.0148 4.2686-9.8953 5.4327-3.8805 1.1642-7.9551 1.7462-12.418 1.7462-4.4626 0-8.5372-0.58208-12.03-1.5522-3.6865-0.97013-6.7909-2.3283-9.5073-3.8805s-4.8507-3.2984-6.2088-5.2387c-1.3582-1.7462-2.1343-3.6865-2.1343-5.4327 0-0.77611 0.19403-1.7462 0.38805-2.5223 0.38805-0.77611 0.7761-1.7462 1.3582-2.5223 0.58208-0.77611 1.3582-1.3582 2.1343-1.9403 0.7761-0.38805 1.5522-0.7761 2.3283-0.7761 1.1642 0 2.3283 0.58208 3.4925 1.7462 1.1642 1.1642 2.5223 2.3283 4.2686 3.6865 1.7462 1.3582 3.6865 2.5223 6.0148 3.6865s5.4327 1.7462 9.3133 1.7462c4.8507 0 8.9252-1.1642 12.224-3.4925 3.2984-2.3283 4.8507-6.0148 4.8507-10.865 0-3.8805-1.1642-7.179-3.2984-9.5073-2.1343-2.3283-4.8507-4.4626-8.1491-6.0148-3.2984-1.7462-6.7909-3.2984-10.671-4.8506s-7.373-3.2984-10.671-5.4327c-3.4925-1.9403-6.2088-4.8506-8.3431-8.1491-2.1343-3.2984-3.2984-7.761-3.2984-13.194 0-5.0447 0.97013-9.1192 2.9104-12.612 1.9403-3.2984 4.2686-6.0148 7.373-8.1491s6.4029-3.4925 10.089-4.2686 7.373-1.1642 11.059-1.1642c2.1343 0 4.6566 0.19403 7.567 0.38805 2.9104 0.38805 5.6268 0.7761 8.1491 1.7462 2.5223 0.7761 4.6566 1.7462 6.4029 3.1044 1.7462 1.1642 2.5223 2.7164 2.5223 4.6566 0 0.7761 0 1.5522-0.38805 2.3283 0.38805 0.19403 0 1.1642-0.58208 1.9403zm72.372-3.1044c-0.7761 1.3582-1.9403 2.1343-3.4925 2.1343h-21.149v81.103c0 1.5522-0.7761 2.7164-2.1343 3.4925-1.5522 0.7761-3.1044 1.1642-4.8507 1.1642-1.7462 0-3.4925-0.38805-5.0447-1.1642-1.5522-0.77611-2.1343-1.9403-2.1343-3.4925v-81.297h-21.149c-1.5522 0-2.7164-0.58208-3.4925-1.9403-0.7761-1.3582-1.1642-2.9104-1.1642-4.6566 0-1.5522 0.38805-3.1044 1.1642-4.4626 0.7761-1.3582 1.9403-2.1343 3.4925-2.1343h56.268c1.7462 0 2.9104 0.7761 3.4925 2.1343 0.77611 1.3582 1.1642 2.7164 1.1642 4.2686 0.19403 1.9403-0.19402 3.4925-0.97013 4.8507zm65.581 34.925c-1.7462 2.1343-3.6865 3.8805-6.0148 5.4327-2.3283 1.3582-4.8507 2.5223-7.567 3.1044l19.015 35.701c0.38806 0.58207 0.58208 1.3582 0.58208 2.1343 0 0.77611-0.19402 1.7462-0.7761 2.7164-0.58208 0.77611-1.1642 1.7462-2.1343 2.3283-0.7761 0.77611-1.7462 1.1642-2.7164 1.7462-0.97013 0.38805-2.1343 0.58208-3.1044 0.58208-2.3283 0-4.2686-1.3582-5.6268-4.2686l-19.791-38.805h-13.776v37.835c0 1.5522-0.77611 2.7164-2.1343 3.4925-1.5522 0.77611-3.1044 1.1642-5.0447 1.1642-1.7462 0-3.4925-0.38805-4.8507-1.1642-1.3582-0.7761-2.1343-1.9403-2.1343-3.4925v-90.028c0-1.3582 0.38806-2.3283 1.3582-3.2984 0.7761-0.7761 1.9403-1.3582 3.4925-1.3582h25.805c4.2686 0 8.1491 0.38805 12.03 1.3582 3.8805 0.7761 7.179 2.5223 9.8953 4.6566 2.7164 2.1343 5.0447 5.0447 6.7909 8.5372s2.5223 7.9551 2.5223 13.194c0 4.0746-0.38806 7.567-1.5522 10.671-1.3582 2.9104-2.7164 5.6268-4.2686 7.761zm-13.582-29.686c-3.1044-2.5223-7.179-3.6865-12.224-3.6865h-16.298v32.402h16.298c5.0447 0 9.1192-1.1642 12.224-3.6865s4.6566-6.5969 4.6566-12.612c0-5.8208-1.5522-10.089-4.6566-12.418zm95.073 79.163c-0.58208 0.77611-1.3582 1.3582-2.1343 1.9403-0.7761 0.58208-1.7462 0.97014-2.9104 1.3582s-2.1343 0.38805-3.1044 0.38805c-1.1642 0-2.1343-0.19403-3.1044-0.7761-0.7761-0.38806-1.5522-1.1642-1.7462-2.3283l-5.6268-19.209h-33.567l-5.6268 19.209c-0.38806 1.1642-0.97013 1.7462-1.7462 2.3283-0.7761 0.38805-1.9403 0.7761-3.1044 0.7761-0.97013 0-1.9403-0.19403-3.1044-0.38805-0.97013-0.19403-1.9403-0.77611-2.9104-1.1642-0.77611-0.58208-1.7462-1.1642-2.1343-1.9403-0.58208-0.77611-0.7761-1.5522-0.7761-2.5223 0-0.58208 0-0.97013 0.19402-1.1642l26.97-87.894c0.58208-1.7462 1.7462-2.9104 3.4925-3.6865 1.7462-0.77611 3.6865-1.1642 5.6268-1.1642s4.0746 0.38805 5.8208 1.1642c1.7462 0.7761 2.9104 2.1343 3.4925 3.6865l26.776 87.894c0.19402 0.58208 0.19402 0.97013 0.19402 1.1642 0 0.7761-0.38805 1.5522-0.97013 2.3283zm-35.507-76.834-13.582 46.566h27.164zm97.401 78.387c-0.77611 1.3582-1.7462 2.1343-3.2984 2.1343h-43.268c-1.5522 0-3.1044-0.38805-4.2686-1.1642-1.1642-0.7761-2.1343-1.9403-2.1343-3.4925v-90.028c0-1.7462 0.7761-2.7164 2.1343-3.4925 1.5522-0.77611 3.1044-1.1642 4.8507-1.1642 1.7462 0 3.4925 0.38805 5.0447 1.1642 1.5522 0.7761 2.1343 1.9403 2.1343 3.4925v81.879h35.313c1.3582 0 2.5224 0.58208 3.2984 1.9403 0.7761 1.3582 1.1642 2.7164 1.1642 4.4626 0 1.5522-0.38806 2.9104-0.97013 4.2686zm61.118-82.849c-0.38806 0.7761-1.1642 1.5522-1.9403 2.1343-0.7761 0.58208-1.7462 0.7761-2.5223 0.7761s-1.7462-0.19403-2.9104-0.7761c-0.97013-0.58208-2.1343-1.1642-3.4925-1.7462-1.3582-0.58208-3.1044-1.1642-5.0447-1.7462-1.9403-0.58208-4.2686-0.7761-7.373-0.7761-5.0447 0-9.1192 0.97013-12.224 2.9104-3.1044 1.9403-4.8506 5.0447-4.8506 9.5073 0 3.2984 1.1642 6.0148 3.2984 7.9551 2.1343 1.9403 4.8507 3.6865 8.1491 5.2387s6.7909 2.9104 10.671 4.4626c3.8805 1.3582 7.373 3.4925 10.671 5.8208 3.2984 2.3283 6.0148 5.4327 8.1491 9.1192s3.2984 8.7312 3.2984 14.552c0 4.8507-0.7761 9.1192-2.3283 12.806s-3.6865 6.5969-6.4029 9.1192c-2.7164 2.3283-6.0148 4.2686-9.8953 5.4327-3.8805 1.1642-7.9551 1.7462-12.418 1.7462s-8.5372-0.58208-12.03-1.5522c-3.6865-0.97013-6.7909-2.3283-9.5073-3.8805s-4.8506-3.2984-6.2088-5.2387c-1.3582-1.7462-2.1343-3.6865-2.1343-5.4327 0-0.77611 0.19402-1.7462 0.38805-2.5223 0.38805-0.77611 0.7761-1.7462 1.3582-2.5223 0.58208-0.77611 1.3582-1.3582 2.1343-1.9403 0.7761-0.38805 1.5522-0.7761 2.3283-0.7761 1.1642 0 2.3283 0.58208 3.4925 1.7462 1.1642 1.1642 2.5223 2.3283 4.2686 3.6865 1.7462 1.3582 3.6865 2.5223 6.0148 3.6865s5.4327 1.7462 9.3133 1.7462c4.8507 0 8.9252-1.1642 12.224-3.4925 3.2984-2.3283 4.8507-6.0148 4.8507-10.865 0-3.8805-1.1642-7.179-3.2984-9.5073-2.1343-2.3283-4.8506-4.4626-8.1491-6.0148-3.2984-1.7462-6.7909-3.2984-10.671-4.8506s-7.373-3.2984-10.671-5.4327c-3.2984-2.1343-6.0148-4.8506-8.1491-8.1491-2.1343-3.2984-3.2984-7.761-3.2984-13.194 0-5.0447 0.97014-9.1192 2.9104-12.612 1.9403-3.2984 4.2686-6.0148 7.373-8.1491s6.4029-3.4925 10.089-4.2686c3.6865-0.7761 7.373-1.1642 11.06-1.1642 2.1343 0 4.6566 0.19403 7.567 0.38805 2.9104 0.19403 5.6268 0.7761 8.1491 1.7462 2.5223 0.7761 4.6566 1.7462 6.4029 3.1044 1.7462 1.1642 2.5223 2.7164 2.5223 4.6566 0 0.7761 0 1.5522-0.38805 2.3283 0 0.19403-0.38805 1.1642-0.7761 1.9403zm73.924 69.461c-1.5522 3.8805-3.8805 6.9849-6.5969 9.3132s-6.0148 4.0746-9.8953 5.2387-7.761 1.7462-12.224 1.7462-8.3431-0.58208-12.03-1.7462c-3.6865-1.1642-6.985-2.9104-9.8953-5.2387-2.7164-2.3283-5.0447-5.6268-6.5969-9.3132-1.5522-3.8805-2.3283-8.5372-2.3283-13.97v-65.193c0-1.7462 0.77611-2.7164 2.1343-3.4925 1.5522-0.77611 3.1044-1.1642 5.0447-1.1642 1.7462 0 3.4925 0.38805 4.8507 1.1642 1.5522 0.7761 2.1343 1.9403 2.1343 3.4925v65.193c0 6.0148 1.5522 10.477 4.4626 13.194 2.9104 2.9104 6.9849 4.2686 12.03 4.2686 5.2387 0 9.3133-1.3582 12.224-4.2686 2.9104-2.9104 4.4626-7.373 4.4626-13.194v-65.193c0-1.7462 0.7761-2.7164 2.1343-3.4925 1.5522-0.77611 3.1044-1.1642 5.0447-1.1642 1.7462 0 3.4925 0.38805 4.8507 1.1642 1.5522 0.7761 2.1343 1.9403 2.1343 3.4925v65.193c0.38805 5.4327-0.38806 10.089-1.9403 13.97zm77.416 14.164c-1.5522 0.7761-3.1044 1.1642-5.0447 1.1642-1.7462 0-3.4925-0.38805-4.8506-1.3582-1.3582-0.7761-2.7164-2.1343-3.6865-4.0746l-32.402-61.7v62.476c0 1.5522-0.77611 2.7164-2.1343 3.4925-1.5522 0.7761-3.1044 1.1642-5.0447 1.1642-1.7462 0-3.4925-0.38805-4.8507-1.1642-1.5522-0.77611-2.1343-1.9403-2.1343-3.4925v-89.64c0-1.7462 0.7761-2.9104 2.1343-3.6865 1.3582-0.77611 3.1044-1.1642 4.8507-1.1642 2.5223 0 4.6566 0.58208 6.2088 1.7462s3.1044 3.2984 4.6566 6.4029l30.074 58.79v-62.282c0-1.7462 0.7761-2.7164 2.1343-3.4925 1.5522-0.77611 3.1044-1.1642 4.8507-1.1642 1.7462 0 3.4925 0.38805 5.0447 1.1642 1.5522 0.7761 2.1343 1.9403 2.1343 3.4925v89.834c0.38805 1.5522-0.38805 2.7164-1.9403 3.4925zm76.058-14.94c-1.5522 3.8805-3.6865 6.9849-6.4029 9.3133-2.7164 2.3283-6.0148 4.0746-9.7013 5.2387-3.6865 1.1642-7.761 1.7462-12.03 1.7462h-24.059c-1.9403 0-3.4925-0.38805-4.6566-1.3582-1.1642-0.77611-1.7462-1.9403-1.7462-3.2984v-90.028c0-1.3582 0.58208-2.3283 1.7462-3.2984 1.1642-0.7761 2.7164-1.3582 4.6566-1.3582h24.059c4.2686 0 8.3431 0.58208 12.03 1.7462s6.9849 2.9104 9.7013 5.2387 4.8506 5.6268 6.4029 9.3133c1.5522 3.8805 2.3283 8.5371 2.3283 13.97v38.611c0 5.6268-0.77611 10.283-2.3283 14.164zm-12.03-52.775c0-6.0148-1.3582-10.477-4.2686-13.194-2.7164-2.9104-6.7909-4.2686-12.03-4.2686h-16.104v73.73h16.104c5.2387 0 9.1192-1.3582 12.03-4.2686 2.7164-2.9104 4.2686-7.373 4.2686-13.194zm110.4-19.015c-0.7761 1.3582-1.9403 2.1343-3.4925 2.1343h-20.955v81.103c0 1.5522-0.7761 2.7164-2.1343 3.4925-1.5522 0.7761-3.1044 1.1642-5.0447 1.1642-1.7462 0-3.4925-0.38805-4.8506-1.1642-1.5522-0.77611-2.1343-1.9403-2.1343-3.4925v-81.297h-20.955c-1.5522 0-2.7164-0.58208-3.4925-1.9403-0.77611-1.3582-1.1642-2.9104-1.1642-4.6566 0-1.5522 0.38805-3.1044 1.1642-4.4626 0.7761-1.3582 1.9403-2.1343 3.4925-2.1343h56.268c1.7462 0 2.9104 0.7761 3.4925 2.1343 0.7761 1.3582 1.1642 2.7164 1.1642 4.2686 0 1.9403-0.38805 3.4925-1.3582 4.8507zm74.506-4.0745-26.776 87.894c-0.38805 1.7462-1.5522 2.9104-3.2984 3.6865-1.7462 0.77611-3.6865 1.1642-5.8208 1.1642s-3.8805-0.38805-5.6268-1.1642c-1.7462-0.7761-2.9104-2.1343-3.4925-3.6865l-27.164-87.894c0-0.19403-0.19403-0.7761-0.19403-1.1642 0-0.7761 0.19403-1.7462 0.7761-2.5223 0.58208-0.7761 1.3582-1.3582 2.1343-1.9403 0.77611-0.58208 1.9403-0.97013 2.9104-1.1642 0.97013-0.19403 2.1343-0.38805 3.1044-0.38805 1.3582 0 2.3283 0.19403 3.1044 0.7761 0.77611 0.58208 1.5522 1.1642 1.7462 2.3283l22.507 77.416 22.313-77.416c0.38805-1.1642 0.97013-1.7462 1.7462-2.3283 0.7761-0.38805 1.9403-0.7761 3.1044-0.7761 0.97014 0 2.1343 0.19403 3.1044 0.38805 1.1642 0.38805 2.1343 0.77611 2.9104 1.3582 0.7761 0.58208 1.5522 1.1642 2.1343 1.9403 0.58208 0.7761 0.77611 1.5522 0.77611 2.3283 0.38805 0.19403 0.19403 0.58208 0 1.1642z" fill="#b5162c" stroke-width="1.9403"/>
</svg>
