<svg width="800" height="153.43" version="1.1" viewBox="0 0 800 153.43" xml:space="preserve" xmlns="http://www.w3.org/2000/svg">
<defs>
		<linearGradient id="SVGID_1_" x1="-2.6725" x2="792.78" y1="132.79" y2="132.79" gradientTransform="matrix(1.0081 0 0 -1.0081 .60684 210.6)" gradientUnits="userSpaceOnUse">
		<stop stop-color="#FF0057" offset="0"/>
		<stop stop-color="#FF6E28" offset="1"/>
	</linearGradient>
</defs>
<path class="st0" d="m432.06 111.7h-10.484l-6.9557 30.141h-26.916l37.097-130.14h40.726l-8.6694 130.14h-28.428zm-17.339-21.976h19.859l4.7379-40.323 1.9153-10.988h-3.0242l-1.9153 10.988-8.6694 35.081-12.903 4.4355zm-55.646 27.722 0.1008-0.70565 12.5-4.4355 4.3347-24.698h20.061l6.6533-23.488h-34.375l0.10081-0.70565 12.5-4.6371 4.0323-22.682h25.907l6.9557-24.395h-55.142l-22.984 130.14h40.928l6.9557-24.295h-28.528zm172.99-105.75-18.851 80.444-4.0323 22.883h-3.0242l4.0323-22.883 9.7783-80.444h-47.379l-8.7702 130.14h12.399l15.928-89.214 1.6129-10.988h3.0242l-1.8145 10.988-9.4759 89.214h33.67l22.278-89.214 1.8145-10.988h3.0242l-1.8145 10.988-15.827 89.214h26.815l22.984-130.14zm-236.19 24.295h-12.5l-18.649 105.75h-26.815l18.649-105.75h-12.5l4.3347-24.295h51.815zm31.149-24.295h-21.674l-4.3347 24.395h19.355c2.8226 0 4.5363 1.8145 4.0323 4.6371l-4.5363 25.605c-0.20162 1.0081-0.60485 2.0161-1.3105 2.8226-1.1089 1.3105-2.7218 2.0161-4.4355 2.0161h-16.532l0.10081-0.70565 12.5-4.6371 3.2258-18.044h-26.815l-16.633 94.053h26.815l8.4678-47.984h4.2339l-0.60485 47.984h26.815l-0.70565-54.839c0.70565-0.60484 1.4113-1.1089 2.117-1.8145 2.7218-2.5202 4.9396-5.5444 6.5525-8.871 1.3105-2.621 2.117-5.4436 2.621-8.367l5.242-29.738c2.8226-15.928-7.0565-26.512-24.496-26.512zm-105.85 43.65h26.815l2.621-14.617h-12.399l4.6371-26.21c-4.5363-3.2258-10.585-5.0404-17.944-5.0404-18.75 0-33.266 11.492-36.391 29.032l-2.7218 15.625c-5.242 29.94 30.343 32.561 27.924 46.27l-2.621 14.718c-0.40323 2.7218-2.8226 4.7379-5.6452 4.6371-2.8226 0-4.5363-1.8145-4.0323-4.6371l3.4274-19.153h-26.714l-3.4274 19.153c-3.125 17.44 7.5605 29.032 26.512 29.032s33.67-11.492 36.694-29.032l3.2258-18.044c5.242-29.738-30.343-32.46-27.924-46.069l2.3186-12.803c0.40322-2.5202 2.621-4.3347 5.1412-4.2339 2.8226 0 4.1331 1.7137 3.7299 4.2339zm545.17-17.944h-4.6371l-5.0404 28.73-12.097 4.4355-0.1008 0.70565h16.028c1.6129 0 3.2258-0.70565 4.2339-1.9153 0.60484-0.80646 1.1089-1.7137 1.2097-2.7218l4.3347-24.799c0.50404-2.621-1.2097-4.4355-3.9315-4.4355zm-9.2743 30.847 1.5121-0.60484 0.30242-1.5121 4.6371-26.512h2.4194c1.2097 0 2.3186 0.60484 2.0162 2.2178l-4.3347 24.799c-0.20162 1.4113-1.4113 2.5202-2.8226 2.4194h-6.0484zm27.218 70.968-0.70565-51.815c5.8468-4.8387 9.6775-11.694 10.887-19.153l5.0404-28.73c2.9234-16.734-7.2581-27.924-25.504-27.924h-35.182l-0.40322 2.2178-22.178 125.81-0.40323 2.2178h30.444l0.40323-2.2178 7.7622-43.851-0.60485 44.154v1.9153h30.545zm-28.226 0.40323 0.60484-46.371h-4.1331l-8.1654 46.371h-25.807l22.178-125.81h32.863c16.936 0 26.411 10.282 23.69 25.706l-5.0404 28.73c-0.50403 2.8226-1.3105 5.5444-2.621 8.0646-1.6129 3.2258-3.7299 6.1492-6.3508 8.5686-0.70565 0.60484-1.3105 1.2097-2.0162 1.7137l0.70565 53.025zm-22.782-128.03h-93.146l-0.40322 2.2178-1.0081 5.4436c-4.6371-6.25-12.601-9.8791-23.186-9.8791-19.456 0-34.577 12.198-37.803 30.242l-2.621 15.121c-3.2258 18.448 8.7702 27.117 17.54 33.367 5.4436 3.9315 10.182 7.2581 9.3751 11.391l-2.5202 14.214c-0.20162 1.4113-1.4113 2.4194-2.8226 2.2178-1.5121 0-2.2178-0.80646-2.0161-2.2178l3.2258-18.448 0.40323-2.2178h-30.444l-0.40322 2.2178-3.2258 18.549c-3.2258 18.145 7.863 30.242 27.52 30.242s34.98-12.198 38.206-30.242l3.0242-17.54c3.2258-18.347-8.7702-27.016-17.641-33.266-2.117-1.4113-4.1331-3.0242-6.0484-4.7379h30.041l0.40323-2.2178 2.9234-16.331v-0.10081h4.7379l-17.742 100-0.40323 2.2178h30.444l0.40322-2.2178 17.641-100h4.2339l-17.641 100-0.40323 2.2178h48.589l0.40323-2.2178 4.1331-23.589 0.40322-2.2178h-21.27l1.8145-0.70565 1.5121-0.60485 0.30242-1.5121 3.8307-21.674h16.23l0.40322-2.2178 4.0323-22.581 0.40323-2.2178h-19.758l2.3186-0.80646 1.5121-0.60484 0.30242-1.5121 3.4274-19.657h18.145l0.40323-2.2178 4.1331-23.589 0.40322-2.2178h-2.3186zm-123.89 44.456-0.30242 2.0161c-2.117-2.0161-3.4274-4.0323-3.0242-6.25l2.2178-12.399c0.20161-1.1089 1.2097-2.0161 2.4194-1.9153 1.8145 0 1.9153 1.0081 1.7137 1.9153zm31.049-16.331-2.9234 16.331h-25.907l2.9234-16.734c0.40323-2.5202-0.90726-4.1331-3.629-4.1331-2.5202-0.10081-4.6371 1.7137-5.0404 4.1331l-2.2178 12.399c-2.3186 13.105 32.057 15.827 27.016 44.557l-3.0242 17.44c-3.0242 16.936-17.137 28.024-35.484 28.024s-28.629-11.19-25.605-28.024l3.2258-18.448h25.907l-3.2258 18.549c-0.1008 0.60484-0.1008 1.2097 0 1.8145 0.40323 1.6129 1.8145 2.621 3.8307 2.621 2.0161 0.10081 3.8307-0.90726 4.8387-2.621 0.30242-0.60485 0.50404-1.2097 0.70565-1.8145l2.5202-14.214c0.50404-2.9234-0.70565-5.3428-2.9234-7.5605-0.70565-0.70565-1.4113-1.3105-2.117-1.9153-0.80646-0.60484-1.6129-1.3105-2.5202-1.9153-0.90726-0.60485-1.8145-1.3105-2.7218-1.9153-0.90727-0.60484-1.9153-1.3105-2.8226-2.0161-0.90727-0.70565-1.9153-1.4113-2.8226-2.2178-2.9234-2.3186-5.5444-5.0404-7.6614-8.1654-1.1089-1.6129-1.9153-3.4274-2.621-5.242-0.40323-1.3105-0.80646-2.621-1.0081-4.0323-0.50403-3.2258-0.40323-6.4517 0.20162-9.6775l2.621-15.121c1.0081-6.0484 3.6291-11.694 7.6614-16.331 6.4517-7.3589 16.129-11.694 27.52-11.694 11.089 0 19.053 4.1331 22.984 11.19l-2.5202 14.516-0.40323 2.2178h5.242zm35.283-2.3186-17.843 102.22h-25.907l18.044-102.22h-12.198l4.1331-23.589h50.202l-4.0323 23.589zm53.025 0h-18.145l-3.8307 21.875-12.097 4.4355-0.1008 0.70565h27.52l-4.0323 22.581h-16.23l-4.2339 23.891-12.097 4.3347-0.10081 0.70565h29.436l-4.1331 23.589h-44.053l17.641-100h5.6452l4.5363-25.807h38.408zm-652.63-37.399c-42.339 0.30242-76.412 34.98-76.109 77.319s34.879 76.412 77.218 76.109c42.339-0.30242 76.412-34.879 76.109-77.218-0.30242-42.44-34.879-76.513-77.218-76.21zm-27.722 125.5v-16.129l18.952-10.887c2.9234-1.7137 3.8307-5.4436 2.117-8.2662-0.50404-0.90727-1.2097-1.6129-2.117-2.117l-18.952-11.089v-16.129l38.206 22.077c2.3186 1.3105 3.7299 3.8307 3.7299 6.4517v11.794zm74.9-43.246-18.952 10.887v-11.794c0-2.7218-1.4113-5.1412-3.7299-6.5525l-52.218-30.645v-16.129l75.001 43.851c2.8226 1.7137 3.7299 5.4436 2.0162 8.2662-0.60485 0.90726-1.3105 1.6129-2.117 2.117z" fill="url(#SVGID_1_)" stroke-width="1.0081"/>
</svg>
