<svg width="600pt" height="324.34pt" version="1.1" viewBox="0 0 600 324.34" xmlns="http://www.w3.org/2000/svg">
 <g transform="matrix(2.1403 0 0 2.1403 -527.67 -466.07)" fill="#ffc83c">
  <polygon transform="translate(26.442 47.057)" points="390 194.6 369.4 194.6 369.4 269.8 345.5 269.8 345.5 194.6 324.9 194.6 324.9 170.7 390 170.7"/>
  <path d="m520.04 279.46c-5.2 22.3-25.1 38.9-49 38.9-27.8 0-50.3-22.5-50.3-50.3s22.5-50.3 50.3-50.3c23.5 0 43.2 16.1 48.7 37.8h-26.1c-4.4-8-12.9-13.4-22.7-13.4-14.3 0-25.9 11.6-25.9 25.9s11.6 25.9 25.9 25.9c10.2 0 19-5.9 23.2-14.5z"/>
  <path d="m345.84 279.46c-5.2 22.3-25.1 38.9-49 38.9-27.8 0-50.3-22.5-50.3-50.3s22.5-50.3 50.3-50.3c23.5 0 43.2 16.1 48.7 37.8h-26.1c-4.4-8-12.9-13.4-22.7-13.4-14.3 0-25.9 11.6-25.9 25.9s11.6 25.9 25.9 25.9c10.2 0 19-5.9 23.2-14.5z"/>
 </g>
 <g transform="matrix(1.2887 0 0 1.2887 -121.7 -261.9)" fill="#ffc83c">
  <path d="m133.56 413.34h9.435v40.64h-9.435z"/>
  <path d="m150 413.34h6.855l15.48 21.515v-21.515h9.65v40.64h-7.2l-15.4-21.825v21.825h-9.385z"/>
  <path transform="scale(.75)" d="m248.02 551.13v12.131h14.126v42.056h12.307v-42.056h14.127v-12.131z" stroke-width="1.3333"/>
  <path d="m220.15 413.34h25.455v9.115h-15.92v6.535h14.315v9.01h-14.315v6.995h16.175v8.985h-25.71z"/>
  <path d="m266.98 413.34c7.8455 0 13.99 5.565 14.09 12.745 0 8.0522-2.62 10.52-7.24 13.15l8.57 14.745h-10.2l-7.5669-13.215h-4.1531v13.215h-9.47v-40.64zm-6.5 8.6953v10.28h6.4555c2.6107 0 4.7269-2.0715 4.7269-5.1398 0-3.0812-2.4281-5.126-4.7269-5.1397z"/>
  <path transform="scale(.75)" d="m429.21 605.31h13.934l2.7598-8.3739h19.588l2.7598 8.3739h13.934l-18.574-54.187h-15.826zm26.486-39.21 6.1543 19.217h-12.307z" stroke-width="1.3333"/>
  <path d="m431.82 412.44a21.232 21.226 0 0 0-21.231 21.227 21.232 21.226 0 0 0 21.231 21.226 21.232 21.226 0 0 0 21.231-21.226 21.232 21.226 0 0 0-21.231-21.227zm0 9.3047a11.925 11.922 0 0 1 11.925 11.922 11.925 11.922 0 0 1-11.925 11.921 11.925 11.922 0 0 1-11.925-11.921 11.925 11.922 0 0 1 11.925-11.922z" style="paint-order:markers stroke fill"/>
  <path transform="scale(.75)" d="m714.87 551.13v54.186h31.801v-11.986h-19.221v-42.199z" stroke-width="1.3333"/>
  <path d="m361.55 413.34v9.0982h10.595v31.542h9.2302v-31.542h10.595v-9.0982z"/>
  <path d="m288.17 413.34h6.855l15.48 21.515v-21.515h9.65v40.64h-7.2l-15.4-21.825v21.825h-9.385z"/>
  <path d="m458.3 413.34h6.855l15.48 21.515v-21.515h9.65v40.64h-7.2l-15.4-21.825v21.825h-9.385z"/>
  <path d="m396.01 413.34h9.435v40.64h-9.435z"/>
  <path d="m493.37 453.98h10.45l2.0698-6.2804h14.691l2.0698 6.2804h10.45l-13.931-40.64h-11.87zm19.865-29.407 4.6157 14.413h-9.23z"/>
 </g>
</svg>
