<svg id="a" enable-background="new 0 0 29 10" version="1.1" viewBox="0 0 29 10" xml:space="preserve" xmlns="http://www.w3.org/2000/svg">
<style type="text/css">
	.st0{fill:#FFC83C;}
</style>
<path id="b" class="st0" d="m18 0v2.4h-2.2v7.5h-2.5v-7.5h-2.2v-2.4h6.9zm11 6.1c-0.6 2.3-2.8 3.9-5.2 3.9-2.8 0.2-5.1-1.9-5.3-4.7s1.9-5.1 4.7-5.3h0.7c2.4 0 4.5 1.5 5.2 3.8h-2.8c-0.5-0.8-1.4-1.3-2.4-1.3-1.4-0.1-2.7 1-2.7 2.4s1 2.7 2.4 2.7h0.4c1 0 2-0.5 2.5-1.4h2.5zm-18.5 0c-0.6 2.4-2.8 4-5.2 3.9-2.7 0.2-5.1-1.9-5.3-4.7-0.2-2.7 1.9-5.1 4.7-5.3h0.6c2.4 0 4.5 1.5 5.2 3.8h-2.8c-0.5-0.9-1.4-1.4-2.4-1.4-1.4-0.1-2.6 1-2.7 2.4-0.1 1.5 1 2.7 2.4 2.8h0.3c1 0 2-0.5 2.5-1.4h2.7z"/>
</svg>
