<svg width="151.97pt" height="93.85pt" version="1.1" viewBox="0 0 151.97 93.85" xmlns="http://www.w3.org/2000/svg">
 <path d="m42.466 5.4913c4.29-2.89 9.2-5.56 14.5-5.49 4.4278 0 6.1 5.94 5.12 9.82-2.45 10.16-9.83 17.96-16.69 25.43-2.99 3.06-5.59 6.53-9 9.17-2.8694 2.3271-5.7238 4.6863-8.6358 6.9693-3.3699 2.6419-7.3044 5.1816-10.941 7.4507 3.2794-7.3178 6.398-12.484 10.402-19.24 2.7631-1.5201 5.669-3.3794 8.0001-5.4428 4.2326-3.7464 7.9059-8.1654 11.575-12.447 1.99-2.78 5.673-8.017 4.45-9.24-2.1838-1.5934-7.27 2.99-9.75 5.95-3.3865 4.1453-6.773 8.3202-9.7676 12.761-2.0479 2.9946-4.2113 5.8564-5.8906 8.7341-5.0543 8.6546-10.215 17.084-12.372 27.015-0.69 3.74-2.07 7.64-1.06 11.44 1.14 2.78 4.95 2.48 7.05 1.04 9.33-6.08 18.55-12.68 25.76-21.27 3.49-4.2 6.53-9.32 11.81-11.46 3.54-1.35 6.98 2.85 4.93 6.06-4.68 7.39-10.73 14.04-14.02 22.27-0.59 1.53-1.17 3.37-0.02 4.82 1.37 1.29 3.26 0.56 4.47-0.51 4.2-3.23 6.62-8.08 9.78-12.21 1.2923-1.58 3.71-2.41 5.06-0.71 1.61 2.16 0.36 4.85-0.53 7.03-3.53 7.6-9.05 14.57-16.4 18.75-4.26 2.61-10.389 2.0004-13.23-2.92-1.93-3.24-1.4-7.07-0.73-10.59-6.22 5.4-12.72 10.76-20.53 13.67-3.84 1.26-8.73 1.39-11.82-1.6-2.56-2.65-3.8-6.31-3.91-9.95-0.77-12.82 4.4-25.15 11-35.87 3.1429-5.3419 5.6398-9.9961 9.7-15.15 6.57-8.63 13.07-17.55 21.69-24.28z" fill="#de1010"/>
 <path d="m66.096 28.991c2.68-1.46 6.21-0.15 7.15 2.78 0.30474 1.1373 0.0379 3.117-0.42469 4.6055-0.97065 3.1231-3.2496 5.8826-6.1753 7.2845-2.64 1.37-6.59 0.31-7.17-2.9-0.77-4.78 2.47-9.61 6.62-11.77z" fill="#de1010"/>
 <path d="m77.196 52.921c3.59-1.07 5.81-5.02 9.77-5.04 2.4156 0 3.738 2.398 3.21 4.93-1.71 8.4-7.64 15.36-9.07 23.84-0.37 3.58 4.58 5.59 7.18 3.42 3.04-2.65 5.41-6.02 7.43-9.49 3.11-5.2 1.23-11.75 4.17-17 1.161-2.35 3.0355-5.258 4.99-5.43 1.5576-0.09551 2.89 1.14 3.23 2.64 0.86 3.36-0.45 6.73-0.55 10.09 0.89 2.98 5.46 5.19 7.75 2.4 6.57-7.18 15.53-13.68 25.7-13.22 5.39-0.09 9.83 5.58 8.07 10.79-3.14 12.18-17.89 19.13-29.43 14.31-1.49 1.91-2.4 4.63-0.94 6.84 1.65 2.83 5.43 2.84 8.29 2.5 7.71-1.12 13.76-6.34 19.83-10.77 1.7361-1.2418 4.48-1.15 4.95 1.07 1.02 3.86-2.27 6.71-4.82 9.01-5.6 4.6-12.16 8.4-19.35 9.74-1.5314 0.32933-4.3586 0.29657-6.5883 0.29773-3.926 2e-3 -7.7764-0.63104-10.602-3.6477-4.86-4.29-3.8-11.4-2.06-16.92-4.03 0.44-8.33 1.89-10.52 5.55-4.15 6.23-9.42 12.56-16.93 14.6-4.73 1.34-9.02-2.59-10.54-6.75-0.5-3.08 0.01-6.28 1.24-9.14 2.86-6.6 5.62-13.25 8.71-19.75-1.5982 0.50084-3.228 0.94151-4.8824 1.1777-2.2856 0.36697-4.2268 0.7433-3.9712-1.2638 0.29187-2.7021 3.2705-4.0493 5.7337-4.7839m49.02 14.04c4.99 3.03 11.96-0.83 13.09-6.3 0.21087-1.4206-2.6833-1.2723-4.36-0.51-3.3855 1.5499-6.54 3.74-8.73 6.81z" fill="#de1010"/>
 <g transform="matrix(.6384 0 0 .6384 146.32 124.36)" fill="#de1010" stroke-width="1px" aria-label="Studio">
  <path d="m-122.05-173.37 5.625-0.54688q0.50781 2.832 2.0508 4.1602 1.5625 1.3281 4.1992 1.3281 2.793 0 4.1992-1.1719 1.4258-1.1914 1.4258-2.7734 0-1.0156-0.60547-1.7188-0.58593-0.72266-2.0703-1.25-1.0156-0.35156-4.6289-1.25-4.6484-1.1523-6.5234-2.832-2.6367-2.3633-2.6367-5.7617 0-2.1875 1.2305-4.082 1.25-1.9141 3.5742-2.9102 2.3438-0.99609 5.6445-0.99609 5.3906 0 8.1055 2.3633 2.7344 2.3633 2.8711 6.3086l-5.7812 0.25391q-0.37109-2.207-1.6016-3.1641-1.2109-0.97656-3.6524-0.97656-2.5195 0-3.9453 1.0352-0.91797 0.66406-0.91797 1.7774 0 1.0156 0.85938 1.7383 1.0938 0.91797 5.3125 1.9141t6.2305 2.0703q2.0312 1.0547 3.1641 2.9102 1.1523 1.8359 1.1523 4.5508 0 2.4609-1.3672 4.6094-1.3672 2.1484-3.8672 3.2031-2.5 1.0352-6.2305 1.0352-5.4297 0-8.3398-2.5-2.9102-2.5195-3.4766-7.3242z"/>
  <path d="m-84.393-184.8v4.375h-3.75v8.3594c0 1.6927 0.03255 2.6823 0.09766 2.9688 0.07813 0.27344 0.24089 0.5013 0.48828 0.68359 0.26042 0.18229 0.57292 0.27344 0.9375 0.27344 0.50781 0 1.2435-0.17578 2.207-0.52734l0.46875 4.2578c-1.276 0.54687-2.7214 0.82031-4.3359 0.82031-0.98958 0-1.8815-0.16276-2.6758-0.48828-0.79427-0.33854-1.3802-0.76823-1.7578-1.2891-0.36458-0.53385-0.61849-1.25-0.76172-2.1484-0.11719-0.63802-0.17578-1.9271-0.17578-3.8672v-9.043h-2.5195v-4.375h2.5195v-7.8907h5.5078v7.8907z"/>
  <path d="m-66.893-164.05v-3.1055q-1.1328 1.6602-2.9883 2.6172-1.8359 0.95703-3.8867 0.95703-2.0898 0-3.75-0.91797-1.6602-0.91796-2.4023-2.5781-0.74219-1.6602-0.74219-4.5898v-13.125h5.4883v9.5312q0 4.375 0.29297 5.3711 0.3125 0.97656 1.1133 1.5625 0.80078 0.56641 2.0312 0.56641 1.4062 0 2.5195-0.76172 1.1133-0.78125 1.5234-1.9141 0.41016-1.1523 0.41016-5.6055v-8.75h5.4883v20.742z"/>
  <path d="m-37.068-164.05h-5.0977v-3.0469c-0.84635 1.1849-1.849 2.0703-3.0078 2.6562-1.1458 0.57291-2.3047 0.85937-3.4766 0.85937-2.3828 0-4.4271-0.95703-6.1328-2.8711-1.6927-1.9271-2.5391-4.6094-2.5391-8.0469 0-3.5156 0.82682-6.1849 2.4805-8.0078 1.6536-1.8359 3.7435-2.7539 6.2695-2.7539 2.3177 0 4.3229 0.96354 6.0156 2.8906v-10.313h5.4883zm-14.648-10.82c0 2.2135 0.30599 3.8151 0.91797 4.8047 0.88542 1.4323 2.1224 2.1484 3.7109 2.1484 1.263 0 2.3372-0.53386 3.2227-1.6016 0.88542-1.0807 1.3281-2.6888 1.3281-4.8242 0-2.3828-0.42969-4.095-1.2891-5.1367-0.85938-1.0547-1.9596-1.582-3.3008-1.582-1.3021 0-2.3958 0.52083-3.2812 1.5625-0.8724 1.0286-1.3086 2.5716-1.3086 4.6289z"/>
  <path d="m-31.639-187.61v-5.0781h5.4883v5.0781zm0 23.555v-20.742h5.4883v20.742z"/>
  <path d="m-21.814-174.72q0-2.7344 1.3477-5.293t3.8086-3.9062q2.4805-1.3476 5.5273-1.3476 4.707 0 7.7148 3.0664 3.0078 3.0469 3.0078 7.7148 0 4.707-3.0469 7.8125-3.0273 3.0859-7.6367 3.0859-2.8516 0-5.4492-1.2891-2.5781-1.2891-3.9258-3.7695-1.3477-2.5-1.3477-6.0742zm5.625 0.29297q0 3.0859 1.4648 4.7266 1.4648 1.6406 3.6133 1.6406 2.1484 0 3.5937-1.6406 1.4648-1.6406 1.4648-4.7656 0-3.0469-1.4648-4.6875-1.4453-1.6406-3.5937-1.6406t-3.6133 1.6406q-1.4648 1.6406-1.4648 4.7266z"/>
 </g>
</svg>
