<svg width="800" height="715.02" fill="none" version="1.1" viewBox="0 0 800 715.02" xmlns="http://www.w3.org/2000/svg">
 <g transform="matrix(8.0949 0 0 8.0949 0 -2.0013)" clip-path="url(#clip0_915_12851)" fill="#da291c">
  <path d="m49.415 0.24723c-5.7157-4.89e-4 -11.303 1.694-16.056 4.8691s-8.4569 7.6883-10.644 12.969-2.76 11.091-1.6451 16.697c1.115 5.6059 3.8673 10.755 7.9089 14.797 4.0415 4.0415 9.1909 6.7938 14.797 7.9088 5.6059 1.1149 11.416 0.5425 16.697-1.6451 5.2805-2.1875 9.7937-5.8918 12.969-10.644 3.1751-4.7526 4.8696-10.34 4.8691-16.056-0.0079-7.6612-3.0547-15.006-8.4719-20.423-5.4172-5.4172-12.762-8.4641-20.423-8.4719zm0 5.9333c3.8554-0.00201 7.6492 0.96732 11.031 2.8185 3.382 1.8512 6.243 4.5246 8.3191 7.7732 2.076 3.2487 3.3002 6.9681 3.5594 10.815 0.2593 3.8467-0.4548 7.6968-2.0762 11.195h-41.669c-1.6215-3.4981-2.3356-7.3484-2.0762-11.195 0.2593-3.8469 1.4837-7.5664 3.56-10.815 2.0764-3.2488 4.9378-5.9221 8.3201-7.7731 3.3822-1.851 7.1763-2.82 11.032-2.8176z"/>
  <path d="m7.79 88.577c-2.9988 0-6.0174-1.0779-7.79-2.937l3.026-3.4438c1.3028 1.2372 3.0267 1.9335 4.8233 1.9481 1.7058 0 2.7565-0.6428 2.7565-1.7306 0-1.0507-0.66747-1.4833-2.9048-2.262-3.5279-1.2213-6.675-2.3017-6.675-6.3957 0-3.864 2.9963-6.3808 7.8196-6.3808 2.4492-0.0282 4.8207 0.8587 6.6503 2.4871l-2.9667 3.4438c-1.0243-0.9578-2.3728-1.493-3.7751-1.4982-1.5971 0-2.5439 0.628-2.5439 1.649 0 1.5427 2.5711 1.864 5.1101 2.9815 2.8356 1.2361 4.5637 2.6725 4.5637 5.7949-0.0074 3.9555-2.9839 6.3437-8.094 6.3437zm14.586 0c-3.4611 0-5.0928-2.3165-5.0928-6.4105v-9.5254h5.115v8.8678c0 1.7965 0.6988 2.6956 2.0965 2.6972 1.3102 0 2.2472-0.8603 2.2472-2.937v-8.628h5.1225v15.456h-5.0162l-0.0593-1.8863c-0.7145 1.3399-2.1657 2.3659-4.4105 2.3659zm11.652-15.936h5.0038l0.0594 1.9456c0.7589-1.377 2.2546-2.4253 4.3437-2.4253 3.4116 0 5.1916 2.225 5.1916 6.5292v9.3944h-5.1298v-8.8258c0-1.813-0.689-2.7194-2.0668-2.7194-1.4685 0-2.2769 1.0062-2.2769 2.9345v8.628h-5.1225zm16.658 0h4.9716l0.0297 2.7837c0.5686-1.6984 1.8294-3.0854 3.9234-3.0854 0.5276-0.0093 1.0536 0.0616 1.56 0.2102v4.6725c-0.627-0.1635-1.2707-0.2539-1.9185-0.2695-2.5118 0-3.4438 1.34-3.4438 4.0742v7.0706h-5.1199zm14.71-1.2683c-1.6885 0-2.9049-1.2361-2.9049-2.7194 0-1.4834 1.1694-2.7566 2.9049-2.7566 1.686 0 2.8752 1.1867 2.8752 2.7566-0.0093 0.3676-0.0911 0.7298-0.2408 1.0657s-0.3643 0.6389-0.6315 0.8917c-0.2672 0.2527-0.5817 0.4501-0.9254 0.5809-0.3437 0.1307-0.7099 0.1923-1.0775 0.1811zm-2.5761 1.2584h5.1225v15.456h-5.1225zm13.182 15.936c-2.6452 0-4.9271-0.7417-6.675-2.2472l2.5464-3.1447c1.0528 0.8474 2.3571 1.3213 3.7083 1.3474 1.1768 0 1.7677-0.3091 1.7677-0.9296s-0.8777-0.8776-2.2769-1.3177c-1.7306-0.5414-3.0631-1.0235-4.0001-1.9605-0.8183-0.8183-1.1817-1.8344-1.1817-3.1916 0-3.0359 2.3931-4.9716 6.3808-4.9716 2.225 0 4.2967 0.6872 5.78 2.0049l-2.4549 2.9964c-0.7046-0.5785-2.0321-0.9889-3.026-0.9889-1.2361 0-1.8566 0.2917-1.8566 0.8702s0.7417 0.8653 2.5142 1.3474c3.0681 0.8306 5.0632 2.1978 5.0632 5.1916 0 3.1892-2.5093 5.0038-6.2894 5.0038zm15.822 0c-6.0816 0-8.5069-4.0668-8.5069-8.2078 0-5.162 3.5897-8.2077 8.0891-8.2077 4.1188 0 7.4167 2.4722 7.4167 7.7281 0.0211 0.5721-0.0195 1.1449-0.1211 1.7083h-10.334c0.2793 1.8814 1.6119 2.9667 3.7751 2.9667 1.3965 0.0373 2.7556-0.4545 3.8047-1.377l2.3956 3.0556c-1.7948 1.6465-3.7726 2.3437-6.5267 2.3437zm1.9482-9.9161c-0.0347-1.555-0.7195-2.8455-2.5168-2.8455-1.5772 0-2.5455 0.9485-2.9048 2.8455z"/>
 </g>
 <defs>
  <clipPath id="clip0_915_12851">
   <rect width="98.889" height="89" fill="#fff"/>
  </clipPath>
 </defs>
</svg>
