<svg enable-background="new 0 0 190.042 136.376" version="1.1" viewBox="0 0 1692.5 574.09" xml:space="preserve" xmlns="http://www.w3.org/2000/svg">
<g transform="matrix(4.2096 0 0 4.2096 -.00083375 .00088419)">
										<path d="m2.281 12.686c7.631-11.594 21.545-16.509 39.454-9.337 53.403 21.235 70.617 27.824 129.39 54.262 28.229 12.699 19.715 34.333 7.477 43.792-20.926 16.176-53.207 27.115-81.533 27.11-12.035-0.028-21.393-3.365-30.435-10.446-21.41-17.675-43.951-41.958-59.471-70.076-5.589-10.946-10.047-25.764-4.884-35.305z" fill="#001145"/>
										<path d="m12.027 23.026c6.677-10.65 19.601-9.953 34.426-4.855 47.17 16.22 77.824 29.852 116.6 47.021 18.146 8.035 17.811 24.57 3.455 34.63-22.627 15.857-45.068 20.948-71.293 21.256-10.77 0.127-17.43-1.568-25.464-7.961-18.636-15.603-36.761-34.953-50.74-58.544-5.231-9.457-11.304-23.031-6.98-31.547z" fill="#ff9b00"/>
										<path d="m24.173 31.4c5.845-10.03 16.599-9.295 29.722-4.725 38.968 14.262 75.464 25.922 104.32 44.396 11.373 8.191 9.775 19.253-3.111 28.33-20.418 14.384-39.879 16.724-63.799 16.103-9.62-0.25-12.364-5.644-18.954-11.709-15.376-14.846-31.857-26.219-43.445-46.798-4.556-8.604-8.454-17.632-4.737-25.597z" fill="#a51317"/>
										<path d="m30.402 44.607c1.583-18.827 18.901-29.867 38.543-35.784 21.768-6.559 49.28 6e-3 70.868 19.294 29.182 26.073 20.982 71.547-11.441 80.654 2.826 20.429-27.314 29.149-43.683 27.383-16.872-1.991-32.655-9.543-42.176-23.405-6.639-10.031-10.475-24.545 5.851-27.34-16.518-15.432-19.261-25.357-17.962-40.802z" fill="#001145"/>
												<path d="m59.018 98.115c-3.013-2.977-4.303-6.822-4.079-10.63-0.067-2.366 1.561-8.329 6.715-11.221-13.833 1.302-20.811-9.597-21.417-20.158 0.776-34.43 53.256-45.708 81.539-26.092 26.381 19.308 32.699 44.745 15.049 65.419-4.633 5.22-10.641 8.986-17.287 10.969 5.74 16.402-18.645 25.953-36.713 23.975-16.219-1.949-26.805-8.135-34.795-20.887-4.708-8.533 2.21-13.939 10.988-11.375z" fill="#a51317"/>
												<path d="m133.3 92.668c-5.023 5.895-12.049 9.627-19.873 10.682 9.92 14.501-9.951 25.291-29.538 23.156-13.615-1.705-25.345-7.707-31.01-18.021-2.666-5.71 4.353-9.535 10.065-4.645 3.978 3.084 6.954 6.488 11.835 7.841 2.867 0.68 5.185 0.503 6.676-2.103 3.059-5.347-7.832-9.525-13.647-11.535-5.203-1.836-7.333-5.607-6.833-10.045-0.289-2.189 2.904-10.381 11.321-8.269 7.272 2.743 18.362 5.435 23.027-0.631 3.866-5.027 2.625-9.909-3.735-13.213-10.593-5.502-19.933 2.961-30.096 4.3-9.706 1.264-13.601-8.184-13.81-16.5 1.444-26.037 45.537-33.633 72.079-15.693 17.971 13.239 27.658 37.439 13.539 54.676z" fill="#ff9b00"/>
												<path d="m73.74 82.201c5.714 2.104 13.995 4.252 19.07 1.924-0.129 0.164-0.269 0.326-0.417 0.49-4.345 4.768-14.553 2.268-21.229-0.164-2.971-0.748-2.2-3.465 2.576-2.25z" fill="#fff"/>
												<path d="m62.183 105.73c3.239 2.809 5.292 5.278 9.5 6.784 2.367 0.526 3.145 2.526-1.301 1.526-4.175-1.483-7.408-2.635-11.286-6.088-2.288-2.147-0.212-5.374 3.087-2.222z" fill="#fff"/>
					<path d="m152.8 112.63c-7.965 3.789-16.863 6.816-26.004 8.86-1.367 0.253-1.639-0.399 2e-3 -0.756 9.072-1.85 17.949-4.614 26.002-8.104z" fill="#fff"/>
					<path d="m21.487 64.925c4.583 7.956 10.402 15.739 16.997 22.765 1.018 1.002 1.626 0.562 0.438-0.69-6.651-6.811-12.604-14.344-17.435-22.075z" fill="#fff"/>
					<path d="m56.274 13.246c-1.493 0.631-23.709-9.942-28.72-9.153 0 0 5.998-0.438 15.372 3.169 16.249 6.254 14.841 5.353 13.348 5.984z" fill="#fff"/>
					<path d="m56.274 13.246c-1.493 0.631-23.709-9.942-28.72-9.153 0 0 5.998-0.438 15.372 3.169 16.249 6.254 14.841 5.353 13.348 5.984z" fill="none" stroke="#001145" stroke-miterlimit="3.8637" stroke-width=".587"/>
					<path d="m64.59 14.654s41.701-16.647 73.236 17.793c-15.5-12.687-34.123-25.803-73.236-17.793z" fill="#fff"/>
					<path d="m64.59 14.654s41.701-16.647 73.236 17.793c-15.5-12.687-34.123-25.803-73.236-17.793z" fill="none" stroke="#001145" stroke-miterlimit="3.8637" stroke-width=".587"/>
					<path d="m82.058 24.379c2.88-0.541 5.936-0.602 8.851-0.551 21.847 0.381 39.427 11.289 48.706 31.256-11.16-22.158-34.025-30.588-57.557-30.705z" fill="#fff"/>
					<path d="m84.501 33.602c-2.75-1.296 6.714-0.87 9.686-0.585 22.266 2.133 36.639 15.127 40.336 35.702-4.986-22.903-31.427-26.35-50.022-35.117z" fill="#fff"/>
				<path d="m156 54.17c0.584 1.512 23.621 10.148 26.535 14.301 0 0-3.852-4.619-12.959-8.856-15.785-7.344-14.158-6.957-13.576-5.445z" fill="#fff"/>
				<path d="m156 54.17c0.584 1.512 23.621 10.148 26.535 14.301 0 0-3.852-4.619-12.959-8.856-15.785-7.344-14.158-6.957-13.576-5.445z" fill="none" stroke="#001145" stroke-miterlimit="3.8637" stroke-width=".587"/>
</g>
<g transform="matrix(1.0656 0 0 1.0656 840 .00038116)"><polygon transform="matrix(5.9745 0 0 5.9745 1.4954 .019721)" points="66.172 2.011 66.172 88.127 1.645 88.127 1.645 2.011" fill="#fff"/><polygon transform="matrix(5.9745 0 0 5.9745 1.4954 .019721)" points="131.73 2.011 131.73 88.127 66.41 88.127 66.41 2.011" fill="#fff"/><path d="m11.491 11.491h777.02v515.75h-777.02zm385.13-0.012v515.75" stroke="#fff" stroke-miterlimit="3.8637" stroke-width="22.981"/><path d="m507.19 410.81c-17.947-22.034-26.921-48.8-26.921-80.285h44.396c1.8879 21.891 5.9805 37.783 12.284 47.7 11.017 17.792 30.93 26.682 59.745 26.682 22.357 0 40.304-5.9745 53.848-17.947 13.532-11.961 20.295-27.387 20.307-46.284 0-23.301-7.1694-39.593-21.496-48.883-14.166-9.2844-33.929-13.927-59.273-13.933-2.8379 0-5.7475 0.0836-8.7347 0.23898-2.8379 0-5.7534 0.0836-8.7407 0.23898v-37.55c4.4032 0.47198 8.0954 0.78863 11.095 0.94397 2.9872 0.16131 6.2135 0.23898 9.6846 0.23898 15.892 0 28.964-2.5153 39.205-7.5577 17.947-8.8124 26.921-24.549 26.921-47.228 0-16.842-5.9864-29.831-17.947-38.966-11.973-9.129-25.905-13.688-41.798-13.694-28.337 0-47.939 9.4457-58.807 28.337-5.9864 10.39-9.368 25.194-10.151 44.396h-42.037c0-25.188 5.0365-46.595 15.115-64.232 17.308-31.486 47.772-47.222 91.386-47.234 34.479 0 61.167 7.719 80.058 23.145 18.891 15.277 28.337 37.472 28.337 66.592 0 20.779-5.5981 37.627-16.77 50.532-6.9304 8.0297-15.904 14.327-26.921 18.891 17.786 4.8871 31.635 14.327 41.565 28.337 10.073 13.855 15.104 30.864 15.109 51.01 0 32.28-10.629 58.562-31.88 78.875-21.257 20.307-51.405 30.464-90.454 30.464-39.981-6e-3 -69.023-10.939-87.126-32.83z" fill="#fff" stroke-width="5.9745"/><path d="m180.31 281.13c33.368 0 78.344-0.96787 78.344 50.293 0 31.916-24.179 53.197-55.133 53.197-39.659 0-58.03-29.986-59.482-66.735h-65.283c-1.4518 77.86 49.809 123.32 125.73 123.32 66.251 0 125.74-40.137 125.74-111.23 0-37.723-22.727-68.671-59.966-76.892v-0.96787c31.432-8.7108 47.396-37.239 47.396-69.155 0-60.45-59.482-93.817-113.65-93.817-69.639 0-114.61 47.88-117.03 117.03h65.289c-0.48393-34.819 17.894-60.45 52.229-60.45 25.147 0 47.88 16.442 47.88 44.97 0 38.691-42.556 44.492-72.058 42.072v48.364z" fill="#fff" stroke-width="5.9745"/></g></svg>
