<svg width="645.45pt" height="105pt" enable-background="new" version="1.1" viewBox="0 0 645.45 105" xmlns="http://www.w3.org/2000/svg">
 <defs>
  <linearGradient id="linearGradient923" x2="342.75" y1="63.375" y2="63.375" gradientTransform="matrix(.99781 0 0 .99291 0 -10.426)" gradientUnits="userSpaceOnUse">
   <stop stop-color="#d43120" offset="0"/>
   <stop stop-color="#ff4c01" offset="1"/>
  </linearGradient>
 </defs>
 <path d="m25.381 1.02e-4c-14.02 5e-6 -25.381 11.474-25.381 25.632v53.734c0 14.159 11.361 25.633 25.381 25.633l316.62-1e-4v-105z" fill="url(#linearGradient923)" stroke-width=".68823"/>
 <g transform="matrix(1.0619 0 0 1.0619 248.29 92.785)" fill="#fff" stroke-width=".75">
  <path d="m-36.47-9.333h40.592v-13.469l-24.422 0.08224v-9.4793l21.951 0.10265v-13.489l-21.951 0.10281v-7.5878l23.186 0.10302v-13.571h-39.356v57.204"/>
  <path d="m-129.84-9.333c15.2 0 24.443-7.8315 24.443-21.863v-35.342h-16.192v35.673c0 4.5886-2.4488 8.67-8.361 8.67-5.5593 0-8.3392-4.3017-8.3392-8.67l2.1e-4 -35.673h-16.303v35.342c0 13.722 9.6405 21.863 24.752 21.863"/>
  <path d="m-69.252-66.537-22.172 0.21094v56.993h15.839l-2.3e-5 -18.316c1.9192 0.1103 3.67 0.08796 4.9495 0.08796 14.45 0 24.305-7.168 24.305-20.25 0-7.5892-3.8308-13.06-10.383-16.148-3.7503-1.9414-6.4503-2.5781-12.539-2.5781zm-1.7109 12.609c4.7431-0.08824 8.7892-1.44e-4 8.7892 6.0004 0 5.3828-1.5972 7.205-9.5392 7.0946h-3.8714v-12.837z"/>
  <path d="m39.288-66.544-23.672 0.21094v57h15.844v-19.829c1.5339 0.08816 3.7012 0.09593 5.25 0.09375l10.172 19.735h17.812l-11.812-22.922c5.8474-3.1203 9.3285-8.5448 9.3285-16.312 0-7.5885-3.8308-12.31-10.383-15.398-3.7503-1.9414-6.4503-2.5781-12.539-2.5781zm-0.16406 11.836c3.9519 0.03979 7.0546 0.77302 7.0546 6.0234 0 5.3828-1.5972 7.2119-9.5392 7.1016h-5.1796v-12.844l5.9296-0.25781c0.59288-0.01103 1.1698-0.02912 1.7344-0.02344z"/>
  <path d="m-190.64-9.333c17.61 0 25.18-8.8133 24.924-19.535-0.0822-3.4424-2.6159-10.245-11.828-13.348l-9.6068-3.2355c-4.3252-1.4567-4.7451-4.5518-4.7451-5.5467 0-1.3331 1.4654-3.7106 6.8851-3.7106 3.838 0 6.1548 1.4082 11.926 4.733l6.7995-10.934c-6.8324-3.8331-14.074-5.628-18.958-5.628-13.421 0-22.435 6.188-22.435 16.037 0 5.8895 2.1054 11.846 9.0135 15.329l11.63 4.2901c4.1282 1.5228 6.3651 3.1202 5.3034 5.412-1.0765 2.3236-3.2957 4.2865-8.9085 3.283-3.8926-0.69587-8.0332-3.0057-12.093-6.0068l-7.0808 10.886c6.4461 5.1355 12.301 7.9748 19.174 7.9748"/>
 </g>
 <path d="m596.76 30.005v34.58h48.692v10.391h-86.607v-44.971h37.915m-49.538 0 0.0483 10.584h-24.818v34.388h-35.402l0.0242-34.388h-25.083v-10.584h85.227m-131.02 20.396-15.586-0.02417 0.0241-10.005 15.224-0.02417c2.9966 0 4.7364 2.5615 4.7364 4.9055 0 2.7307-1.7881 4.8572-4.398 5.1472m21.193 8.9893 0.94247-0.07249c7.0079 0.16915 13.773-6.0654 13.773-14.089-0.0241-10.802-8.0007-15.397-15.321-15.224h-69.257l-0.0241 44.971h33.107v-14.717l6.7903-0.02417 17.157 14.765h34.653l-21.821-15.612" fill="#ff4c01" stroke-width="1.0954"/>
</svg>
