<svg width="800" height="128.83" version="1.1" xmlns="http://www.w3.org/2000/svg">
 <defs>
  <linearGradient id="a" x2="50.478" y1="25.239" y2="25.239" gradientTransform="matrix(8.2943 0 0 2.5521 -.00238 5.6865e-5)" gradientUnits="userSpaceOnUse">
   <stop stop-color="#D2321E" offset="0"/>
   <stop stop-color="#FF4B00" offset="1"/>
  </linearGradient>
 </defs>
 <path d="m418.68 6.8652e-6h-402.23a16.495 16.495 0 0 0-16.443 16.458v95.91a16.495 16.495 0 0 0 16.443 16.458h402.23z" fill="url(#a)" stroke-width="4.6009"/>
 <path d="m32.664 92.51 10.614-15.261c4.5778 3.4139 11.994 7.1819 18.956 7.1819 3.4736 0 8.3277-0.71763 8.3277-4.0396 0-3.3219-2.8388-4.127-6.225-5.0287l-12.541-3.4092c-9.7999-2.6041-16.66-9.4272-16.66-19.572 0-12.928 11.074-24.058 28.925-24.058 13.182 0 19.591 2.1532 27.646 6.8231l-11.81 14.365c-3.7544-2.9631-10.527-4.7573-14.737-4.7573-4.5778 0-7.9641 0.98453-7.9641 4.219 0 3.2298 3.7543 3.5887 8.8797 5.0287l10.251 2.871c11.81 3.2298 17.851 10.145 17.851 19.48 0 17.506-16.296 24.063-30.025 24.063-11.994-0.0917-21.785-1.2607-31.493-7.9044zm72.501-18.758v-44.444h22.333v43.722c0 7.0946 4.2144 10.416 9.7078 10.416 5.3048 0 9.0638-3.8648 9.0638-10.416v-43.717h21.693v43.985c0 18.317-15.105 27.113-31.948 27.113-19.498 0-30.848-8.346-30.848-26.662zm76.434-44.444h35.426c17.76 0 25.54 11.406 25.54 22.986 0 12.119-7.0485 24.688-25.535 24.688h-13.094v22.176h-22.338zm31.309 31.783c5.2175 0 7.9641-3.6807 7.9641-7.6283 0-3.8648-2.4707-7.6328-7.8721-7.6328h-8.9717v15.261zm41.288-31.783h55.473v16.973h-33.048v9.602h26.179v16.88h-26.179v9.4226h33.048v17.06h-55.478zm68.562 0h34.144c18.951 0 26.731 10.596 26.731 22.269 0 8.6174-4.0258 16.789-12.814 20.829l15.013 26.75h-24.537l-11.442-23.161h-4.6653v23.161h-22.338l-0.092-69.841zm31.217 31.783c5.2175 0 7.9596-3.5887 7.9596-7.6283 0-3.8648-2.4707-7.6328-7.8675-7.6328h-8.8797v15.261z" fill="#fff" stroke-width="29.299"/>
 <path d="m740.74 36.9v42.052h59.26v12.607h-105.36v-54.658zm-66.528 12.883h-30.089v41.776h-43.064v-41.776h-30.55v-12.883h103.7zm-138.12 22.821 1.1042-0.09165c8.5577 0.27585 16.747-7.3614 16.747-17.116 0-13.066-9.6619-18.495-18.588-18.495v-0.09165h-84.38v54.751h40.304v-17.943h8.2816l20.888 17.943h42.144zm-25.765-10.95h-18.956v-12.238h18.495c3.6807 0 5.7971 3.1286 5.7971 5.9812 0 3.3126-2.2084 5.8891-5.337 6.2571z" fill="#ff4b00" stroke-width="4.6009"/>
</svg>
