<svg width="998.6" height="128.83" version="1.1" xmlns="http://www.w3.org/2000/svg">
 <defs>
  <linearGradient id="a" x2="50.478" y1="25.239" y2="25.239" gradientTransform="matrix(8.2941 0 0 2.552 9.6325e-5 5.6028e-5)" gradientUnits="userSpaceOnUse">
   <stop stop-color="#370032" offset="0"/>
   <stop stop-color="#8c0d7d" offset="1"/>
  </linearGradient>
 </defs>
 <g transform="matrix(2.5308 0 0 2.5308 -909.88 172.46)" fill="#8c0d7d" style="shape-inside:url(#rect1843);white-space:pre" aria-label="HD">
  <path d="m703.05-28.429h6.2v-11.8h10.36v11.8h6.24v-28.52h-6.24v11.28h-10.36v-11.28h-6.2z"/>
  <path d="m731.17-28.429h11.56c5.8 0 11.36-3.56 11.36-10.48v-7.8c0-6.52-5.16-10.24-11.44-10.24h-11.48zm6.2-5.24v-18.04h4.84c3.08 0 5.68 1.84 5.68 4.96v8.04c0 3.48-2.84 5.04-5.48 5.04z"/>
 </g>
 <path d="m838.35 8.1028e-5v128.83h-7.309v-128.83z" fill="#8c0d7d" stroke-width="2.4671"/>
 <path d="m418.67 7.0283e-6h-402.23a16.494 16.494 0 0 0-16.443 16.457v95.907a16.494 16.494 0 0 0 16.443 16.457h402.23z" fill="url(#a)" stroke-width="4.6008"/>
 <path d="m32.666 92.507 10.614-15.26c4.5777 3.4139 11.994 7.1817 18.956 7.1817 3.4735 0 8.3274-0.71761 8.3274-4.0395 0-3.3217-2.8386-4.1269-6.2249-5.0286l-12.541-3.4092c-9.7997-2.604-16.66-9.4269-16.66-19.571 0-12.928 11.074-24.058 28.925-24.058 13.181 0 19.591 2.1531 27.646 6.8229l-11.81 14.365c-3.7542-2.9629-10.526-4.7571-14.736-4.7571-4.5777 0-7.9638 0.9845-7.9638 4.2189 0 3.2297 3.7542 3.5886 8.8794 5.0286l10.25 2.8709c11.81 3.2297 17.851 10.145 17.851 19.479 0 17.506-16.295 24.063-30.024 24.063-11.994-0.0916-21.785-1.2606-31.493-7.9041zm72.499-18.757v-44.443h22.332v43.72c0 7.0943 4.2143 10.416 9.7076 10.416 5.3046 0 9.0635-3.8647 9.0635-10.416v-43.715h21.692v43.984c0 18.315-15.104 27.112-31.947 27.112-19.498 0-30.848-8.3458-30.848-26.662zm76.431-44.443h35.425c17.76 0 25.539 11.405 25.539 22.986 0 12.119-7.0483 24.687-25.535 24.687h-13.093v22.175h-22.337zm31.308 31.781c5.2173 0 7.9638-3.6805 7.9638-7.628 0-3.8647-2.4707-7.6326-7.8719-7.6326h-8.9714v15.26zm41.287-31.781h55.471v16.972h-33.047v9.6017h26.179v16.879h-26.179v9.4223h33.047v17.059h-55.476zm68.561 0h34.142c18.951 0 26.73 10.596 26.73 22.268 0 8.6172-4.0256 16.788-12.813 20.828l15.012 26.749h-24.536l-11.442-23.16h-4.6652v23.16h-22.337l-0.092-69.84zm31.217 31.781c5.2173 0 7.9594-3.5886 7.9594-7.628 0-3.8647-2.4707-7.6326-7.8672-7.6326h-8.8794v15.26z" fill="#fff" stroke-width="23.663"/>
 <path d="m740.72 36.898v42.051h59.257v12.606h-105.36v-54.657zm-66.526 12.883h-30.089v41.775h-43.063v-41.775h-30.549v-12.883h103.7zm-138.12 22.82 1.1042-0.09164c8.5574 0.27584 16.747-7.3611 16.747-17.116 0-13.066-9.6616-18.495-18.588-18.495v-0.09165h-84.378v54.749h40.303v-17.943h8.2814l20.887 17.943h42.143zm-25.764-10.95h-18.956v-12.238h18.495c3.6805 0 5.7969 3.1286 5.7969 5.981 0 3.3125-2.2083 5.8888-5.3369 6.2569z" fill="#8c0d7d" stroke-width="4.6008"/>
</svg>
