<svg version="1.1" viewBox="0 0 209.95 87.005" xmlns="http://www.w3.org/2000/svg">
 <g fill="#ea4e34" stroke-width=".43382" style="font-variant-east_asian:normal">
  <path d="m32.428 2.9999v11.496s-5.6397-1.8437-10.412-1.8437c-5.6535 0-8.1884 2.4398-8.1884 5.2601 0 3.0103 1.9431 4.6284 8.8391 7.2665 10.216 3.9078 13.503 8.7636 13.503 15.509 0 12.397-10.534 19.088-23.047 19.088-6.2904 0-11.442-1.3015-11.442-1.3015l0.5965-12.364s5.7481 2.4945 11.659 2.4945c5.1577 0 8.351-2.2762 8.351-5.7481 0-2.9292-1.6719-4.992-8.2426-7.3207-7.7367-2.7422-14.045-6.7112-14.045-16.322 0-10.068 7.6213-17.244 22.721-17.244 4.0671 0 9.7067 1.0303 9.7067 1.0303z" stroke-width=".43382" style="font-variant-east_asian:normal"/>
  <path d="m87.036 58.908h-14.589l-6.234-35.79-6.2383 35.79h-14.641l-9.8139-55.746h13.015l5.5833 34.538 5.5312-34.538h13.123l5.5746 34.538 5.5399-34.538h13.019z" stroke-width=".43382" style="font-variant-east_asian:normal"/>
  <path d="m99.968 3.1626s5.9919-0.48805 17.814-0.48805c15.576 0 20.498 7.1854 20.498 16.594 0 7.65-4.4588 13.432-11.935 15.509l16.057 24.131h-15.78l-13.232-21.773h-0.43382v21.773h-12.988v-55.746zm25.08 17.19c0-5.0111-3.579-7.7003-12.093-6.8379v14.267c6.4531 0.81342 12.093-1.1973 12.093-7.4292z" stroke-width=".43382" style="font-variant-east_asian:normal"/>
  <path d="m151.77 41.743 10.689-10.708-10.689-10.767v-20.269l30.649 31.035-30.649 30.966z" stroke-width=".43382" style="font-variant-east_asian:normal"/>
  <path d="m179.29 41.743 10.689-10.708-10.689-10.767v-20.269l30.654 31.035-30.654 30.966z" stroke-width=".43382" style="font-variant-east_asian:normal"/>
  <path d="m9e-5 71.68v1.4959c0.80821 0.25803 1.96 0.30948 1.96 0.30948v11.468s-1.1004 0.13755-1.9427 0.29214v1.5474h6.2926v-1.5474c-0.92842-0.22337-1.9341-0.29214-1.9341-0.29214v-4.7796l2.9313 0.0171 0.2407 1.3754h1.5474v-4.6594h-1.53l-0.25803 1.3754h-2.9316v-4.625h3.4988l0.29214 1.727h1.8051v-3.7043h-9.9717z" stroke-width=".43382" style="font-variant-east_asian:normal"/>
  <path d="m12.62 73.21v-1.5317h10.006v3.6278h-1.8051l-0.30947-1.6676h-3.517v4.4531h2.8119l0.34386-1.3754h1.524v4.6077h-1.5413l-0.34386-1.3754h-2.7946v4.7796h3.4997l0.34386-1.771h1.7958v3.8342h-10.048v-1.5474c0.94575-0.20632 1.96-0.29214 1.96-0.29214v-11.457c0-8.3e-4 -1.0316-0.0963-1.9256-0.28527z" stroke-width=".43382" style="font-variant-east_asian:normal"/>
  <path d="m71.228 73.21v-1.5317h10.006v3.6278h-1.8051l-0.30947-1.6676h-3.5167v4.4531h2.8119l0.34386-1.3754h1.524v4.6077h-1.5413l-0.34386-1.3754h-2.7946v4.7796h3.4997l0.34386-1.771h1.7958v3.8342h-10.048v-1.5474c0.94575-0.20632 1.96-0.29214 1.96-0.29214v-11.457c-2.75e-4 -8.3e-4 -1.0319-0.0963-1.9259-0.28527z" stroke-width=".43382" style="font-variant-east_asian:normal"/>
  <path d="m103.1 73.21v-1.5317h10.006v3.6278h-1.8051l-0.30948-1.6676h-3.5167v4.4531h2.812l0.34386-1.3754h1.524v4.6077h-1.5413l-0.34386-1.3754h-2.7946v4.7796h3.4997l0.34386-1.771h1.7958v3.8342h-10.048v-1.5474c0.94575-0.20632 1.96-0.29214 1.96-0.29214v-11.457c-2.8e-4 -8.3e-4 -1.0319-0.0963-1.9259-0.28527z" stroke-width=".43382" style="font-variant-east_asian:normal"/>
  <path d="m25.841 73.2v-1.513c2.1498 0.0878 4.4872-0.0858 6.1551-0.0858 3.6251 0 5.0721 1.7872 5.0721 4.1093 0 2.0145-1.4329 3.7472-3.9511 4.1434 0.56723 0.75649 1.097 1.5647 1.097 1.5647l2.39 3.5418 1.5818 0.25803v1.5818h-3.5528l-4.0919-6.5163h-0.33368v4.6781l1.5138 0.25941v1.5784h-5.8973v-1.5474c0.94575-0.20631 1.9273-0.29214 1.9273-0.29214v-11.451c0-2.8e-4 -1.1364-0.0864-1.9102-0.30975zm4.3665 0.46407v4.7623c2.407 0.1546 4.2474-0.31745 4.2474-2.5275 0-1.598-1.1119-2.2524-2.8714-2.2524z" stroke-width=".43382" style="font-variant-east_asian:normal"/>
  <path d="m40.507 71.68h5.0891l5.1579 8.4072c0.97986 1.513 1.7254 3.1401 1.7254 3.1401s-0.13232-2.0054-0.13232-3.6215v-6.069s-0.94575-0.10316-1.6335-0.30948v-1.5474h5.4734v1.5818l-1.4613 0.25803v13.273h-3.1635l-5.2784-8.5794c-0.96281-1.5647-1.5647-3.0604-1.5647-3.0604s0.05172 1.1521 0.05172 2.8196v6.9977s1.0316 0.0688 1.7537 0.2407v1.5818h-6.0349v-1.5333c0.84232-0.18596 1.9443-0.28911 1.9443-0.28911v-11.485s-1.4115-0.12049-1.9273-0.27509v-1.5303z" stroke-width=".43382" style="font-variant-east_asian:normal"/>
  <path d="m116.32 71.68h5.0891l5.1579 8.4072c0.97986 1.513 1.7254 3.1401 1.7254 3.1401s-0.13232-2.0054-0.13232-3.6215v-6.069s-0.94575-0.10316-1.6335-0.30948v-1.5474h5.4734v1.5818l-1.4613 0.25803v13.273h-3.1635l-5.2784-8.5794c-0.96281-1.5647-1.5647-3.0604-1.5647-3.0604s0.0517 1.1521 0.0517 2.8196v6.9977s1.0316 0.0688 1.7537 0.2407v1.5818h-6.0349v-1.5333c0.84232-0.18596 1.9443-0.28911 1.9443-0.28911v-11.485s-1.4115-0.12049-1.9273-0.27509v-1.5303z" stroke-width=".43382" style="font-variant-east_asian:normal"/>
  <path d="m67.603 71.84v3.6278h-1.8051c-0.20632-0.89403-0.25803-1.8224-0.25803-1.8224-1.7537-0.37825-3.8683 0.11663-3.8683 1.96 0 1.1551 1.031 1.7506 2.7509 2.407 2.5877 0.98757 3.9888 1.955 3.9888 4.3156 0 2.5314-2.0901 4.6765-5.7768 4.6765-1.2035 0-2.5275-0.17193-3.2493-0.39558v-3.8058h1.7881c0.18926 0.96886 0.3268 1.9146 0.3268 1.9146 1.8456 0.4473 4.2982-0.0605 4.2982-2.0632 0-1.3515-0.82966-1.7512-2.6992-2.4758-2.5217-0.97711-3.9888-1.8769-3.9888-4.2468 0-3.4658 3.1421-4.4702 5.3125-4.4702 1.2739 0 2.3924 0.15928 3.1803 0.37825z" stroke-width=".43382" style="font-variant-east_asian:normal"/>
  <path d="m84.452 71.68h6.069v1.5474c-0.68772 0.17193-1.7022 0.26409-1.7022 0.26409v4.4297h7.0491v-4.4014s-0.84232-0.0858-1.6849-0.30947v-1.53h6.1207v1.5474c-0.79088 0.17193-1.96 0.25803-1.96 0.25803v11.451s1.0316 0.10315 1.9086 0.30947v1.5474h-6.1036v-1.5647c0.84232-0.20632 1.7537-0.27509 1.7537-0.27509v-4.9516h-7.0665v4.9686s0.87698 0.0688 1.7193 0.2407v1.5818h-6.1207v-1.513c0.91109-0.2407 1.9427-0.3268 1.9427-0.3268v-11.451s-1.0316-0.0858-1.9256-0.30947v-1.513z" stroke-width=".43382" style="font-variant-east_asian:normal"/>
  <path d="m141.67 84.08v-10.103q0-0.41016-0.12952-0.56128-0.10794-0.1727-0.49652-0.25905l-1.0362-0.19429v-1.7054h5.8718q2.5905 0 3.8858 0.73398t1.2952 2.7632q0 1.4895-0.77715 2.5473-0.77715 1.0362-1.6622 1.2521 1.5975 0.15111 2.5473 1.0146 0.97144 0.84191 0.97144 2.5473 0 2.1803-1.4895 3.4324t-4.0369 1.2521h-6.6058v-1.7054l1.0362-0.19429q0.38858-0.08635 0.49652-0.23746 0.12952-0.1727 0.12952-0.58286zm2.7416-10.664v4.3607h1.2521q1.2737 0 1.7054-0.28064 0.79874-0.45334 0.79874-2.1156 0-1.1441-0.6908-1.5543-0.6908-0.41016-1.986-0.41016zm0 6.4762v4.7492h2.0076q2.828 0 2.828-2.4826 0-2.2667-2.9359-2.2667z" style="font-variant-east_asian:normal"/>
  <path d="m163.97 78.23-0.19429-1.0794-0.1727 1.0794-2.3746 8.5702h-2.8711l-3.3892-12.823q-0.12952-0.5181-0.41016-0.6908t-0.77715-0.23746l-0.73397-0.08635v-1.7054h6.4762v1.6838l-1.1226 0.12952q-0.62604 0.06476-0.62604 0.47492 0 0.1727 0.0648 0.43175l1.9645 7.6852 0.19429 1.1226 0.21588-1.101 2.353-8.6134h2.8064l2.4178 8.635 0.19429 1.0794 0.19428-1.1226 1.8565-7.6852q0.0432-0.25905 0.0432-0.32381 0-0.49651-0.73397-0.58286l-1.0362-0.12952v-1.6838h5.8286v1.7054l-0.64762 0.08635q-0.45334 0.04318-0.64763 0.21588-0.19428 0.1727-0.32381 0.71239l-3.2381 12.823h-2.8711z" style="font-variant-east_asian:normal"/>
 </g>
</svg>
