<svg version="1.1" viewBox="0 0 276.89 87.006" xmlns="http://www.w3.org/2000/svg">
 <g transform="translate(.010105 .0013126)" fill="#ea4e34" stroke-width=".43382">
  <path d="m9e-5 71.68v1.4959c0.80821 0.25803 1.96 0.30948 1.96 0.30948v11.468s-1.1004 0.13755-1.9427 0.29214v1.5474h6.2926v-1.5474c-0.92842-0.22337-1.9341-0.29214-1.9341-0.29214v-4.7796l2.9313 0.0171 0.2407 1.3754h1.5474v-4.6594h-1.53l-0.25803 1.3754h-2.9316v-4.625h3.4988l0.29214 1.727h1.8051v-3.7043h-9.9717z" stroke-width=".43382"/>
  <path d="m12.62 73.21v-1.5317h10.006v3.6278h-1.8051l-0.30947-1.6676h-3.517v4.4531h2.8119l0.34386-1.3754h1.524v4.6077h-1.5413l-0.34386-1.3754h-2.7946v4.7796h3.4997l0.34386-1.771h1.7958v3.8342h-10.048v-1.5474c0.94575-0.20632 1.96-0.29214 1.96-0.29214v-11.457c0-8.3e-4 -1.0316-0.0963-1.9256-0.28527z" stroke-width=".43382"/>
  <path d="m71.228 73.21v-1.5317h10.006v3.6278h-1.8051l-0.30947-1.6676h-3.5167v4.4531h2.8119l0.34386-1.3754h1.524v4.6077h-1.5413l-0.34386-1.3754h-2.7946v4.7796h3.4997l0.34386-1.771h1.7958v3.8342h-10.048v-1.5474c0.94575-0.20632 1.96-0.29214 1.96-0.29214v-11.457c-2.75e-4 -8.3e-4 -1.0319-0.0963-1.9259-0.28527z" stroke-width=".43382"/>
  <path d="m103.1 73.21v-1.5317h10.006v3.6278h-1.8051l-0.30948-1.6676h-3.5167v4.4531h2.812l0.34386-1.3754h1.524v4.6077h-1.5413l-0.34386-1.3754h-2.7946v4.7796h3.4997l0.34386-1.771h1.7958v3.8342h-10.048v-1.5474c0.94575-0.20632 1.96-0.29214 1.96-0.29214v-11.457c-2.8e-4 -8.3e-4 -1.0319-0.0963-1.9259-0.28527z" stroke-width=".43382"/>
  <path d="m25.841 73.2v-1.513c2.1498 0.0878 4.4872-0.0858 6.1551-0.0858 3.6251 0 5.0721 1.7872 5.0721 4.1093 0 2.0145-1.4329 3.7472-3.9511 4.1434 0.56723 0.75649 1.097 1.5647 1.097 1.5647l2.39 3.5418 1.5818 0.25803v1.5818h-3.5528l-4.0919-6.5163h-0.33368v4.6781l1.5138 0.25941v1.5784h-5.8973v-1.5474c0.94575-0.20631 1.9273-0.29214 1.9273-0.29214v-11.451c0-2.8e-4 -1.1364-0.0864-1.9102-0.30975zm4.3665 0.46407v4.7623c2.407 0.1546 4.2474-0.31745 4.2474-2.5275 0-1.598-1.1119-2.2524-2.8714-2.2524z" stroke-width=".43382"/>
  <path d="m40.507 71.68h5.0891l5.1579 8.4072c0.97986 1.513 1.7254 3.1401 1.7254 3.1401s-0.13232-2.0054-0.13232-3.6215v-6.069s-0.94575-0.10316-1.6335-0.30948v-1.5474h5.4734v1.5818l-1.4613 0.25803v13.273h-3.1635l-5.2784-8.5794c-0.96281-1.5647-1.5647-3.0604-1.5647-3.0604s0.05172 1.1521 0.05172 2.8196v6.9977s1.0316 0.0688 1.7537 0.2407v1.5818h-6.0349v-1.5333c0.84232-0.18596 1.9443-0.28911 1.9443-0.28911v-11.485s-1.4115-0.12049-1.9273-0.27509v-1.5303z" stroke-width=".43382"/>
  <path d="m116.32 71.68h5.0891l5.1579 8.4072c0.97986 1.513 1.7254 3.1401 1.7254 3.1401s-0.13232-2.0054-0.13232-3.6215v-6.069s-0.94575-0.10316-1.6335-0.30948v-1.5474h5.4734v1.5818l-1.4613 0.25803v13.273h-3.1635l-5.2784-8.5794c-0.96281-1.5647-1.5647-3.0604-1.5647-3.0604s0.0517 1.1521 0.0517 2.8196v6.9977s1.0316 0.0688 1.7537 0.2407v1.5818h-6.0349v-1.5333c0.84232-0.18596 1.9443-0.28911 1.9443-0.28911v-11.485s-1.4115-0.12049-1.9273-0.27509v-1.5303z" stroke-width=".43382"/>
  <path d="m67.603 71.84v3.6278h-1.8051c-0.20632-0.89403-0.25803-1.8224-0.25803-1.8224-1.7537-0.37825-3.8683 0.11663-3.8683 1.96 0 1.1551 1.031 1.7506 2.7509 2.407 2.5877 0.98757 3.9888 1.955 3.9888 4.3156 0 2.5314-2.0901 4.6765-5.7768 4.6765-1.2035 0-2.5275-0.17193-3.2493-0.39558v-3.8058h1.7881c0.18926 0.96886 0.3268 1.9146 0.3268 1.9146 1.8456 0.4473 4.2982-0.0605 4.2982-2.0632 0-1.3515-0.82966-1.7512-2.6992-2.4758-2.5217-0.97711-3.9888-1.8769-3.9888-4.2468 0-3.4658 3.1421-4.4702 5.3125-4.4702 1.2739 0 2.3924 0.15928 3.1803 0.37825z" stroke-width=".43382"/>
  <path d="m84.452 71.68h6.069v1.5474c-0.68772 0.17193-1.7022 0.26409-1.7022 0.26409v4.4297h7.0491v-4.4014s-0.84232-0.0858-1.6849-0.30947v-1.53h6.1207v1.5474c-0.79088 0.17193-1.96 0.25803-1.96 0.25803v11.451s1.0316 0.10315 1.9086 0.30947v1.5474h-6.1036v-1.5647c0.84232-0.20632 1.7537-0.27509 1.7537-0.27509v-4.9516h-7.0665v4.9686s0.87698 0.0688 1.7193 0.2407v1.5818h-6.1207v-1.513c0.91109-0.2407 1.9427-0.3268 1.9427-0.3268v-11.451s-1.0316-0.0858-1.9256-0.30947v-1.513z" stroke-width=".43382"/>
  <path d="m140.02 73.2v-1.513c2.1498 0.0877 4.4872-0.0858 6.1551-0.0858 3.6251 0 5.0721 1.7872 5.0721 4.1093 0 2.0145-1.4329 3.7472-3.9511 4.1434 0.56723 0.75649 1.097 1.5647 1.097 1.5647l2.39 3.5418 1.5818 0.25803v1.5818h-3.5528l-4.0919-6.5163h-0.33368v4.6781l1.5138 0.25941v1.5784h-5.8973v-1.5474c0.94575-0.20631 1.9273-0.29214 1.9273-0.29214v-11.451c0-2.8e-4 -1.1364-0.0864-1.9102-0.30975zm4.3665 0.46407v4.7623c2.407 0.1546 4.2474-0.31745 4.2474-2.5275 0-1.598-1.1119-2.2524-2.8714-2.2524z" stroke-width=".43382"/>
  <path d="m154.02 73.2v-1.513c2.1498 0.0877 4.4872-0.0858 6.1551-0.0858 3.6251 0 5.0721 1.7872 5.0721 4.1093 0 3.922-3.7254 4.5733-6.8607 4.5733v4.6781l1.5138 0.25941v1.5784h-5.8973v-1.5474c0.94575-0.20631 1.9273-0.29214 1.9273-0.29214v-11.451c0-2.8e-4 -1.1364-0.0864-1.9102-0.30975zm4.3665 0.46407v4.7623c2.407 0.1546 4.2474-0.31745 4.2474-2.5275 0-1.598-1.1119-2.2524-2.8714-2.2524z" stroke-width=".43382"/>
  <path d="m32.419 2.9987v11.497s-5.6399-1.8438-10.412-1.8438c-5.6538 0-8.1887 2.4399-8.1887 5.2603 0 3.0104 1.9432 4.6286 8.8395 7.2668 10.217 3.908 13.503 8.764 13.503 15.51 0 12.398-10.534 19.089-23.048 19.089-6.2907 0-11.442-1.3015-11.442-1.3015l0.59653-12.364s5.7484 2.4946 11.659 2.4946c5.1579 0 8.3514-2.2764 8.3514-5.7484 0-2.9293-1.672-4.9922-8.2429-7.321-7.7371-2.7423-14.046-6.7115-14.046-16.323 0-10.068 7.6217-17.245 22.722-17.245 4.0672 0 9.7071 1.0304 9.7071 1.0304z" stroke-width=".43382"/>
  <path d="m59.643 3.1614h13.124l5.5735 34.54 5.5388-34.54h13.02l-9.8698 55.748h-14.588l-6.2364-35.792-6.2364 35.792h-14.642l-9.8156-55.748h13.015l5.5857 34.54z" stroke-width=".43382"/>
  <path d="m99.963 3.1614s5.9922-0.48807 17.814-0.48807c15.577 0 20.499 7.1857 20.499 16.594 0 7.6503-4.459 13.433-11.936 15.51l16.057 24.132h-15.781l-13.232-21.773h-0.43383v21.773h-12.988v-55.748zm25.081 17.191c0-5.0113-3.5792-7.7006-12.093-6.8382v14.268c6.4533 0.81345 12.093-1.1974 12.093-7.4295z" stroke-width=".43382"/>
  <path d="m151.77 20.268v-20.27l30.653 31.037-30.653 30.965v-20.257l10.692-10.708z" stroke-width=".43382"/>
  <path d="m179.29 20.268v-20.27l30.653 31.037-30.653 30.965v-20.257l10.692-10.708z" stroke-width=".43382"/>
  <path d="m246.14 32.978-4.2006-5.3e-5v-15.344h-17.197v15.344h-4.25v-32.98h4.25v14.071h17.197v-14.071l4.2006-1.319e-5z"/>
  <path d="m272.97 16.366c0-8.7632-5.075-12.947-13.509-12.947h-4.7654v25.895h4.7654c5.6904 0.06306 13.509-2.4725 13.509-12.947zm3.9075 0.12229c0 6.0288-1.3136 9.2992-4.7654 12.386-4.0075 3.2333-7.9586 4.086-13.413 4.1036h-8.2532v-32.98h9.7722c5.3412 0 9.0264 1.1884 11.894 3.859 3.273 3.4468 4.7654 7.0677 4.7654 12.631z"/>
 </g>
</svg>
