<svg version="1.1" viewBox="0 0 425.3 163.8" xml:space="preserve" xmlns="http://www.w3.org/2000/svg">
<path d="m86.9 151c3.2 0 11.8 0 11.8-8.3v-62.2c0-8.3-8.6-8.3-11.8-8.3s-11.8 0-11.8 8.3v62.1c0 8.4 8.6 8.4 11.8 8.4z" fill="#e93e26"/>
<path d="m13.2 131.9c8.2 13.1 19.7 23.9 33.3 31.3 0.5 0.3 1.2 0.6 2 0.6 0.7 0 2.8-0.3 2.8-3.7v-17c0-2.9-1.9-4.4-2.8-5.1l-0.2-0.2c-16.3-12.7-26-31.7-26-50.9 0-35.6 29-64.6 64.6-64.6s64.6 29 64.6 64.6c0 18.9-9.5 37.7-25.4 50.4-0.9 0.7-3.6 3.2-3.6 6.9v15.1c0 3.8 2.4 4.1 3.1 4.1 1.2 0 2.3-0.6 3.3-1.1 27.7-15.9 44.9-44.8 44.9-75.4 0-47.9-39-86.9-86.9-86.9s-86.9 39-86.9 86.9c0 15.8 4.6 31.3 13.2 45z" fill="#2cbbdd"/>
<g transform="translate(0 -.60001)" fill="#2cbbdd" stroke="#2cbbdd" stroke-miterlimit="10" stroke-width="5"><path d="m198.4 80.8c0-2.6 1.8-3.9 5.3-3.9h52.9c3.5 0 5.3 1.3 5.3 3.9s-1.8 3.9-5.3 3.9h-21.1v67.1c0 2.6-1.8 3.9-5.3 3.9s-5.3-1.3-5.3-3.9v-67.1h-21.2c-3.5 0.1-5.3-1.3-5.3-3.9z"/><path d="m343.4 132.1c0 6.5-3.1 12.1-9.3 16.7s-13.7 6.9-22.5 6.9h-26.5c-3.5 0-5.3-1.3-5.3-3.9v-71c0-2.6 1.8-3.9 5.3-3.9h42.4c3.5 0 5.3 1.3 5.3 3.9s-1.8 3.9-5.3 3.9h-37v23.7h21.2c8.8 0 16.3 2.3 22.5 6.9 6.1 4.6 9.2 10.2 9.2 16.8zm-52.9-15.8v31.6h21.2c5.9 0 11-1.5 15-4.6 4.1-3 6.1-6.8 6.1-11.2s-2-8.2-6.1-11.2-9.1-4.6-15-4.6z"/><path d="m359.2 151.8v-71c0-2.6 1.8-3.9 5.3-3.9s5.3 1.3 5.3 3.9v27.6h42.4v-27.6c0-2.6 1.8-3.9 5.3-3.9s5.3 1.3 5.3 3.9v71c0 2.6-1.8 3.9-5.3 3.9s-5.3-1.3-5.3-3.9v-35.5h-42.4v35.5c0 2.6-1.8 3.9-5.3 3.9-3.5 0.1-5.3-1.2-5.3-3.9z"/></g>
</svg>
