<svg width="600pt" height="106.19pt" version="1.1" viewBox="0 0 600 106.19" xmlns="http://www.w3.org/2000/svg" xmlns:xlink="http://www.w3.org/1999/xlink">
 <use transform="translate(332.37 736.97)" width="100%" height="100%" xlink:href="##1a1a1aff"/>
 <g stroke-width="2.5105">
  <path d="m54.477 20.335h-54.477l15.565-16.067h38.912zm9.7908-16.067h39.414v98.41h-51.213l11.548-11.548v-86.862zm66.025 16.067v70.795l11.548 11.548h-28.368v-98.41h81.088l-15.565 16.067z"/>
  <path d="m396.15 30.126 16.82 17.322v55.23h-28.368l11.548-11.548zm43.18-25.858 54.728 56.234-26.611 29.623-82.343-85.858zm82.845 0h39.414v98.41h-39.414v-73.556l-21.59 24.1-47.197-48.954h23.096l23.598 24.351zm66.025 86.611 11.548 11.548h-28.368v-98.159h28.619l-11.548 11.548v75.063z"/>
  <path d="m241.26 45.188c0 22.343 17.322 46.192 52.971 46.192 34.895 0 52.72-17.573 56.736-20.837l9.0377 11.548c-5.7741 4.2678-26.36 24.1-72.552 24.1-35.649 0-90.126-12.552-90.126-53.222 0-32.636 42.176-50.962 72.803-52.469-12.301 3.7657-28.87 17.824-28.87 44.686zm61.506-30.126c-23.598 0-38.41 11.046-38.41 33.64 0 14.059 6.5272 26.611 13.305 32.385-13.054-2.2594-26.611-20.084-26.611-35.9 0-31.13 25.105-45.188 48.201-45.188 15.565 0 28.368 4.5188 44.184 12.05l11.297-10.042v37.908c-12.552-14.059-32.887-24.854-51.967-24.854z"/>
 </g>
</svg>
