<svg width="207" height="87.219" version="1.1" xmlns="http://www.w3.org/2000/svg" xmlns:xlink="http://www.w3.org/1999/xlink">
 <defs>
  <linearGradient id="linearGradient3692">
   <stop stop-color="#fff" stop-opacity=".47451" offset="0"/>
   <stop stop-color="#fff" stop-opacity="0" offset="1"/>
  </linearGradient>
  <linearGradient id="linearGradient3610">
   <stop stop-color="#cdcdcd" offset="0"/>
   <stop stop-color="#9d9d9d" offset=".4"/>
   <stop offset=".75"/>
   <stop offset="1"/>
  </linearGradient>
  <radialGradient id="radialGradient3644" cx="105" cy="17.965" r="20.5" gradientTransform="matrix(-6.5898 2.6498e-7 0 -3.7029 777.68 67.521)" gradientUnits="userSpaceOnUse" xlink:href="#linearGradient3610"/>
  <radialGradient id="radialGradient3646" cx="173.56" cy="9.5979" r="20" gradientTransform="matrix(-6.7645 0 0 -3.8075 1347.6 38.739)" gradientUnits="userSpaceOnUse" xlink:href="#linearGradient3610"/>
  <radialGradient id="radialGradient3698" cx="112.44" cy="28.947" r="20.5" gradientTransform="matrix(.39051 -.55546 .68843 .48399 44.413 68.196)" gradientUnits="userSpaceOnUse" xlink:href="#linearGradient3692"/>
  <radialGradient id="radialGradient3702" cx="168.48" cy=".41395" r="20" gradientTransform="matrix(.30607 -.52572 .80157 .46667 141.92 108.08)" gradientUnits="userSpaceOnUse" xlink:href="#linearGradient3692"/>
 </defs>
 <path d="m0 6h43v13h-14v44h-14v-44h-15z" fill="#e2001a"/>
 <path d="m74 45.5h-25.098c0 3.3224 3.3556 6.5 8.0978 6.5 3.673 0 5.3979-0.66326 8-3l7.5 7.5c-0.8018 0.8018-3.2632 6.5-17.5 6.5-16.821 0-19-13.78-19-22 0-12.113 7.1885-22 19-22 11.874 0 19.006 9.3257 19 22zm-13-8.5c0-3.675-1.8434-6.5-6-6.5-4.2191 0-6 2.9732-6 6.5zm-6.5-37h13.5l-9.5 14.5h-7.5z" fill="#e2001a"/>
 <path d="m119 37.8v11.2c0 4.0781-1.4625 10.462-5 14-3.7582 3.7582-6.769 4-13 4-6.2309 0-9.4763-1.3608-11-4v4h-12v-66h12v21.753c1.5696-2.7186 5.5451-4.7526 11-4.7525 5.3907 4.5e-5 9.4816 1.1354 13 5 2.3627 2.5952 5 7.2453 5 14.8zm-28.5-1.3v12.5c0 4.6643 3.0798 7.5 8 7.5s8-2.5301 8-7.5v-12.5c0-4.5818-3.4879-7.5-8-7.5s-8 2.5944-8 7.5z"/>
 <path d="m120 37.8v11.2c0 4.0781-1.4625 10.462-5 14-3.7582 3.7582-6.769 4-13 4-6.2309 0-9.4763-1.3608-11-4v4h-12v-66h12v21.753c1.5696-2.7186 5.5451-4.7526 11-4.7525 5.3907 4.5e-5 9.4816 1.1354 13 5 2.3627 2.5952 5 7.2453 5 14.8zm-28.5-1.3v12.5c0 4.6643 3.0798 7.5 8 7.5s8-2.5301 8-7.5v-12.5c0-4.5818-3.4879-7.5-8-7.5s-8 2.5944-8 7.5z" fill="url(#radialGradient3644)"/>
 <path d="m120 37.8v11.2c0 4.0781-1.4625 10.462-5 14-3.7582 3.7582-6.769 4-13 4-6.2309 0-9.4763-1.3608-11-4v4h-12v-66h12v21.753c1.5696-2.7186 5.5451-4.7526 11-4.7525 5.3907 4.5e-5 9.4816 1.1354 13 5 2.3627 2.5952 5 7.2453 5 14.8zm-28.5-1.3v12.5c0 4.6643 3.0798 7.5 8 7.5s8-2.5301 8-7.5v-12.5c0-4.5818-3.4879-7.5-8-7.5s-8 2.5944-8 7.5z" fill="url(#radialGradient3698)"/>
 <path d="m161.5 45.5h-25.098c0 3.3224 3.3556 6.5 8.0978 6.5 3.673 0 5.3979-0.66326 8-3l7.5 7.5c-0.8018 0.8018-3.2632 6.5-17.5 6.5-16.821 0-19-13.78-19-22 0-12.113 7.1885-22 19-22 11.874 0 19.006 9.3257 19 22zm-13-8.5c0-3.675-1.8434-6.5-6-6.5-4.2191 0-6 2.9732-6 6.5zm-6.5-37h13.5l-9.5 14.5h-7.5z" fill="#e2001a"/>
 <path d="m170.7 24c-2.042 2.0421-4.7 8.3182-4.7 12v13c0 4.0781 2.2521 9.5521 4.7 12 4.6823 4.6823 7.6199 6 15.3 6s10.628-1.3284 15.3-6c2.1609-2.1609 4.7-7.9219 4.7-12v-13c0-4.6797-2.5747-9.8747-4.7-12-4.2001-4.2001-7.6566-6-15.3-6s-11.031 1.7309-15.3 6zm15.3 5.0312c4.295 0 7.5 3.1734 7.5 7.4688v12.5c0 4.6593-2.9527 7.4825-7.5 7.4688-4.5473-0.01372-7.5-3.053-7.5-7.4688v-12.5c0-4.4871 3.205-7.4688 7.5-7.4688z"/>
 <path d="m171.7 24c-2.042 2.0421-4.7 8.3182-4.7 12v13c0 4.0781 2.2521 9.5521 4.7 12 4.6823 4.6823 7.6199 6 15.3 6s10.628-1.3284 15.3-6c2.1609-2.1609 4.7-7.9219 4.7-12v-13c0-4.6797-2.5747-9.8747-4.7-12-4.2001-4.2001-7.6566-6-15.3-6s-11.031 1.7309-15.3 6zm15.3 5.0312c4.295 0 7.5 3.1734 7.5 7.4688v12.5c0 4.6593-2.9527 7.4825-7.5 7.4688-4.5473-0.01372-7.5-3.053-7.5-7.4688v-12.5c0-4.4871 3.205-7.4688 7.5-7.4688z" fill="url(#radialGradient3646)"/>
 <path d="m171.7 24c-2.042 2.0421-4.7 8.3182-4.7 12v13c0 4.0781 2.2521 9.5521 4.7 12 4.6823 4.6823 7.6199 6 15.3 6s10.628-1.3284 15.3-6c2.1609-2.1609 4.7-7.9219 4.7-12v-13c0-4.6797-2.5747-9.8747-4.7-12-4.2001-4.2001-7.6566-6-15.3-6s-11.031 1.7309-15.3 6zm15.3 5.0312c4.295 0 7.5 3.1734 7.5 7.4688v12.5c0 4.6593-2.9527 7.4825-7.5 7.4688-4.5473-0.01372-7.5-3.053-7.5-7.4688v-12.5c0-4.4871 3.205-7.4688 7.5-7.4688z" fill="url(#radialGradient3702)"/>
 <path d="m89.812 73.281-0.875 2h0.96875l1.4688-2zm10.531 0-0.875 2h0.96875l1.4688-2zm-22.188 0.0625v1.25h3.1875v9.2188h1.2812v-9.2188h3.1875v-1.25zm16.312 0v10.469h1.1562v-10.469zm-4.625 2.7188c-0.94993 7e-6 -1.7551 0.34296-2.375 1.0312-0.61987 0.6883-0.90625 1.6901-0.90625 3 0 1.2623 0.29175 2.237 0.90625 2.9062 0.6145 0.66924 1.4134 1 2.4062 1 0.78892 0 1.466-0.21298 2-0.625 0.53399-0.41202 0.8898-1.0027 1.0938-1.8125l-1.2188-0.1875c-0.34885 1.0384-0.95286 1.5625-1.8438 1.5625-0.56888 1e-6 -1.0716-0.22279-1.4688-0.65625-0.39715-0.43346-0.60795-1.0536-0.65625-1.9062h5.2188v-0.34375c-7e-6 -1.2813-0.29981-2.2611-0.90625-2.9375-0.60646-0.67638-1.343-1.0312-2.25-1.0312zm10.531 0c-0.94992 7e-6 -1.7551 0.34296-2.375 1.0312-0.61987 0.6883-0.90625 1.6901-0.90625 3 0 1.2623 0.29175 2.237 0.90625 2.9062 0.6145 0.66924 1.4134 1 2.4062 1 0.78891 0 1.466-0.21298 2-0.625 0.53399-0.41202 0.8898-1.0027 1.0938-1.8125l-1.2188-0.1875c-0.34885 1.0384-0.98412 1.5625-1.875 1.5625-0.56889 1e-6 -1.0404-0.22279-1.4375-0.65625-0.39715-0.43346-0.60795-1.0536-0.65625-1.9062h5.2188v-0.34375c-1e-5 -1.2813-0.2998-2.2611-0.90625-2.9375-0.60645-0.67638-1.343-1.0312-2.25-1.0312zm-10.562 1.0625c0.59034 6e-6 1.0877 0.24719 1.4688 0.71875 0.26297 0.32391 0.41507 0.81142 0.46875 1.4688h-3.9062c0.03757-0.66686 0.24932-1.2008 0.625-1.5938 0.37567-0.39296 0.81243-0.59374 1.3438-0.59375zm10.531 0c0.59035 6e-6 1.0877 0.24719 1.4688 0.71875 0.26297 0.32391 0.41505 0.81142 0.46875 1.4688h-3.9062c0.03757-0.66686 0.24932-1.2008 0.625-1.5938 0.37568-0.39296 0.81244-0.59374 1.3438-0.59375z" fill="#e2001a"/>
 <path d="m108.22 73.031v10.969h3.9062c0.90008 0 1.6098-0.11676 2.125-0.34375 0.51513-0.22698 0.91022-0.59238 1.2188-1.0938 0.30852-0.50136 0.46873-1.0865 0.46875-1.75-2e-5 -0.66848-0.15752-1.231-0.5-1.6875-0.3425-0.45646-0.81187-0.77918-1.4062-0.96875 0.45286-0.24444 0.78216-0.56466 1.0312-0.96875 0.24906-0.40408 0.375-0.87114 0.375-1.375 0-0.54376-0.11756-1.0198-0.40625-1.4688-0.28872-0.44897-0.67215-0.78797-1.125-1-0.45288-0.21201-1.0682-0.31249-1.8438-0.3125zm64.844 0.03125c-1.3233 1.1e-5 -2.425 0.46551-3.3125 1.4375-0.88755 0.972-1.3438 2.3786-1.3438 4.1875 0 1.4327 0.39677 2.6433 1.1875 3.6562 0.87141 1.1191 2.0379 1.6875 3.4688 1.6875 1.4201 0 2.5607-0.53482 3.4375-1.625 0.79609-0.98888 1.1875-2.2712 1.1875-3.8438-1e-5 -1.1432-0.21352-2.1415-0.625-2.9688-0.41152-0.82727-0.95159-1.4408-1.6562-1.875-0.70466-0.43413-1.4885-0.65624-2.3438-0.65625zm-41.219 0.21875-1.25 0.78125v1.9688h-0.90625v1.0625h0.90625v4.5625c0 0.78822 0.0572 1.3294 0.15625 1.5938 0.0991 0.2644 0.26518 0.47284 0.53125 0.625 0.26605 0.15215 0.62661 0.21875 1.0625 0.21875 0.27739 0 0.59218-0.04518 0.9375-0.125l-0.1875-1.1875c-0.22644 0.03492-0.38973 0.0625-0.53125 0.0625-0.29437 2e-6 -0.51745-0.10166-0.625-0.28125-0.0736-0.12472-0.0937-0.38347-0.0937-0.8125v-4.6562h1.25v-1.0625h-1.25zm70.656 0.1875-1.1875 0.78125v1.9062h-0.875v1.0312h0.875v4.4062c0 0.76216 0.0309 1.2756 0.125 1.5312 0.0941 0.25566 0.27842 0.44662 0.53125 0.59375 0.25281 0.14713 0.5858 0.25 1 0.25 0.26357 0 0.54688-0.04782 0.875-0.125l-0.15625-1.1562c-0.21516 0.03377-0.39678 0.0625-0.53125 0.0625-0.27971 1e-6 -0.46028-0.10759-0.5625-0.28125-0.06986-0.12059-0.09375-0.3664-0.09375-0.78125v-4.5h1.1875v-1.0312h-1.1875zm-29.438 0.78125c0.60245 9e-6 1.1792 0.16958 1.6875 0.5 0.50832 0.33044 0.87217 0.79385 1.125 1.3438 0.32811 0.71875 0.49999 1.5258 0.5 2.4375-1e-5 1.4134-0.33134 2.4904-0.96875 3.2188-0.63743 0.7284-1.4337 1.0938-2.375 1.0938-0.91983 1e-6 -1.701-0.37259-2.3438-1.0938-0.6428-0.72116-0.9375-1.724-0.9375-3.0312 0-1.5147 0.31083-2.6514 0.9375-3.375 0.62667-0.72356 1.4068-1.0937 2.375-1.0938zm-63.469 0.0625h2.0312c0.74157 9e-6 1.2454 0.05649 1.5312 0.15625 0.28587 0.09978 0.51483 0.26935 0.6875 0.53125 0.17259 0.26192 0.28124 0.6059 0.28125 1-1e-5 0.42405-0.0916 0.75307-0.28125 1-0.18965 0.24695-0.46153 0.42649-0.8125 0.53125-0.24342 0.06985-0.6726 0.09376-1.25 0.09375h-2.1875zm10.75 1.5625c-0.30004 9e-6 -0.57192 0.06792-0.8125 0.25-0.24059 0.18209-0.49255 0.56627-0.78125 1.125v-1.2188h-1.1562v7.9688h1.25v-4.1562c0-0.57868 0.0915-1.1424 0.25-1.6562 0.0906-0.29433 0.24798-0.52287 0.46875-0.6875 0.22077-0.16462 0.45268-0.24999 0.71875-0.25 0.29435 6e-6 0.5949 0.11795 0.90625 0.3125l0.4375-1.25c-0.4359-0.28934-0.86236-0.43749-1.2812-0.4375zm5.0625 0c-1.002 9e-6 -1.8462 0.34164-2.5 1.0625-0.65383 0.72087-0.96875 1.7844-0.96875 3.1562 0 1.322 0.32058 2.3303 0.96875 3.0312s1.484 1.0312 2.5312 1.0312c0.83214 0 1.5305-0.19348 2.0938-0.625 0.56325-0.43152 0.97238-1.0894 1.1875-1.9375l-1.2812-0.15625h-0.0312c-0.36797 1.0875-0.9978 1.625-1.9375 1.625-0.60006 1e-6 -1.1124-0.23353-1.5312-0.6875-0.41891-0.45397-0.66785-1.107-0.71875-2h5.5312v-0.375c0-1.342-0.32907-2.3541-0.96875-3.0625-0.63967-0.70838-1.4183-1.0625-2.375-1.0625zm12.031 0c-0.99633 9e-6 -1.7775 0.17339-2.3125 0.5625-0.53495 0.38912-0.88701 1.0219-1.0625 1.875l1.25 0.1875c0.13586-0.58367 0.33629-1.0067 0.625-1.2188 0.2887-0.21201 0.72943-0.31249 1.3125-0.3125 0.64534 7e-6 1.1262 0.18073 1.4375 0.5 0.22077 0.21951 0.3125 0.58124 0.3125 1.125v0.34375c-0.47552 0.1796-1.231 0.33905-2.25 0.46875-0.75856 0.09479-1.3139 0.23796-1.6875 0.4375-0.37362 0.19955-0.65989 0.48956-0.875 0.84375-0.21511 0.3542-0.34375 0.75979-0.34375 1.2188 0 0.69343 0.22896 1.2472 0.6875 1.6562 0.45853 0.40907 1.0739 0.59375 1.8438 0.59375 0.48684 0 0.98463-0.08669 1.4375-0.28125 0.45286-0.19456 0.86233-0.49087 1.2812-0.875 0.0396 0.37914 0.15105 0.72562 0.28125 1h1.2812c-0.15852-0.3093-0.2587-0.64199-0.3125-0.96875-0.0537-0.32676-0.0625-1.1178-0.0625-2.375v-1.7812c-1e-5 -0.72834-0.0715-1.2771-0.1875-1.6562-0.11606-0.37913-0.4022-0.71183-0.84375-0.96875-0.44155-0.25691-1.037-0.37499-1.8125-0.375zm7.5312 0c-0.59439 9e-6 -1.1467 0.13819-1.625 0.4375-0.47835 0.29933-0.86188 0.7677-1.1562 1.4062-0.29437 0.63856-0.4375 1.3969-0.4375 2.25 0 1.2721 0.33202 2.273 1 3.0312 0.58307 0.65851 1.3044 1 2.1875 1 0.41324 0 0.78534-0.10665 1.125-0.28125 0.33965-0.1746 0.66578-0.43703 0.9375-0.78125 0 0.89796-0.0514 1.5019-0.125 1.7812-0.11889 0.45896-0.33075 0.79927-0.65625 1.0312-0.3255 0.23197-0.7634 0.34375-1.3125 0.34375-0.50382-2e-6 -0.90445-0.10547-1.1875-0.3125-0.28304-0.20703-0.4434-0.51346-0.5-0.9375l-1.2188-0.1875c-0.017 0.80318 0.23486 1.421 0.75 1.875 0.51514 0.45397 1.2308 0.6875 2.1875 0.6875 0.72459-4e-6 1.3598-0.16694 1.875-0.46875 0.51513-0.30182 0.86731-0.69743 1.0938-1.2188 0.22643-0.52132 0.34374-1.4028 0.34375-2.625v-6.875h-1.1562v0.96875c-0.27739-0.37913-0.57803-0.65417-0.9375-0.84375-0.35946-0.18957-0.75161-0.28124-1.1875-0.28125zm8.6875 0c-0.50948 9e-6 -0.95032 0.0955-1.3438 0.3125-0.39344 0.21702-0.72828 0.561-1 1v-1.1562h-1.125v7.9688h1.25v-4.3438c0-0.95782 0.1746-1.6371 0.53125-2.0312 0.35663-0.3941 0.83745-0.59374 1.4375-0.59375 0.31701 7e-6 0.5719 0.07159 0.8125 0.21875 0.24058 0.14717 0.41804 0.35562 0.53125 0.625 0.11323 0.2694 0.18749 0.69758 0.1875 1.2812v4.8438h1.25v-4.9062c-1e-5 -0.73333-0.0543-1.2708-0.15625-1.625-0.1019-0.35419-0.26213-0.653-0.46875-0.875-0.20662-0.22199-0.47568-0.39405-0.8125-0.53125-0.33683-0.13718-0.69749-0.18749-1.0938-0.1875zm7.5 0c-1.002 9e-6 -1.8149 0.34164-2.4688 1.0625-0.65384 0.72087-1 1.7844-1 3.1562 0 1.322 0.35183 2.3303 1 3.0312s1.484 1.0312 2.5312 1.0312c0.83215 0 1.5305-0.19348 2.0938-0.625 0.56325-0.43152 0.94114-1.0894 1.1562-1.9375l-1.2812-0.15625c-0.36796 1.0875-1.029 1.625-1.9688 1.625-0.60005 1e-6 -1.1124-0.23353-1.5312-0.6875-0.41891-0.45397-0.6366-1.107-0.6875-2h5.5l0.03125-0.375c-1e-5 -1.342-0.32908-2.3541-0.96875-3.0625-0.63969-0.70838-1.4496-1.0625-2.4062-1.0625zm28.438 0.125c-0.9521 8e-6 -1.7537 0.33422-2.375 1.0312-0.62129 0.69704-0.90625 1.7047-0.90625 3.0312 0 1.2783 0.29034 2.2598 0.90625 2.9375 0.6159 0.67774 1.4424 1.0312 2.4375 1.0312 0.79072 0 1.4335-0.20774 1.9688-0.625 0.53522-0.41726 0.92059-1.055 1.125-1.875l-1.25-0.15625c-0.34965 1.0516-0.95081 1.5938-1.8438 1.5938-0.57018 1e-6 -1.0707-0.24853-1.4688-0.6875-0.39805-0.43896-0.60785-1.074-0.65625-1.9375h5.25v-0.34375c-2e-5 -1.2976-0.29841-2.2838-0.90625-2.9688-0.60784-0.68497-1.3722-1.0312-2.2812-1.0312zm7.0625 0c-0.82839 8e-6 -1.4695 0.21498-1.9375 0.625-0.46798 0.41003-0.71875 0.93772-0.71875 1.5938 0 0.38109 0.0779 0.70093 0.25 1 0.17214 0.29908 0.438 0.54027 0.75 0.71875 0.31198 0.17848 0.91855 0.40059 1.8438 0.65625 0.64011 0.17366 1.052 0.32173 1.2188 0.4375 0.24206 0.16884 0.34375 0.41485 0.34375 0.71875 0 0.35214-0.12386 0.64587-0.40625 0.875-0.28242 0.22913-0.67111 0.34375-1.1875 0.34375-0.51639 1e-6 -0.93802-0.14335-1.25-0.40625-0.31199-0.2629-0.52385-0.67848-0.59375-1.2188l-1.1562 0.21875c0.26895 1.6497 1.2226 2.4688 2.9062 2.4688 0.8983 0 1.6372-0.23406 2.1562-0.6875 0.51907-0.45344 0.74999-1.048 0.75-1.7812-1e-5 -0.39555-0.0574-0.71298-0.21875-1-0.16137-0.28701-0.39703-0.52108-0.6875-0.6875-0.29048-0.16642-0.92188-0.40289-1.9062-0.6875-0.71542-0.21224-1.1673-0.37227-1.3125-0.46875-0.24205-0.164-0.34375-0.37164-0.34375-0.65625 0-0.28942 0.12218-0.53303 0.375-0.71875 0.25281-0.18572 0.63986-0.28124 1.1562-0.28125 0.90907 7e-6 1.4237 0.41066 1.5312 1.25l1.1562-0.15625c-0.0807-0.53061-0.22773-0.93414-0.4375-1.2188-0.2098-0.2846-0.51089-0.51866-0.90625-0.6875-0.39537-0.16883-0.85324-0.24999-1.375-0.25zm-17.531 0.15625v4.7812c0 0.7091 0.0557 1.2462 0.1875 1.6562 0.13178 0.41002 0.41982 0.76353 0.8125 1.0312 0.39267 0.26772 0.8522 0.40625 1.4062 0.40625 0.46798 0 0.87883-0.12668 1.25-0.34375 0.37115-0.21707 0.6944-0.53461 0.96875-0.96875v1.125h1.0625v-7.6875h-1.1875v4.125c0 0.96476-0.15676 1.6382-0.46875 2-0.36577 0.41967-0.83607 0.625-1.4062 0.625-0.3066 1e-6 -0.57314-0.0884-0.8125-0.25-0.23938-0.1616-0.4113-0.35728-0.5-0.625s-0.125-0.80264-0.125-1.5938v-4.2812zm-53.719 0.8125c0.62269 7e-6 1.1293 0.25613 1.5312 0.75 0.27738 0.33924 0.4433 0.84282 0.5 1.5312h-4.125c0.0396-0.69841 0.25999-1.2447 0.65625-1.6562 0.39626-0.41156 0.87707-0.62499 1.4375-0.625zm19.594 0c0.58306 7e-6 1.0924 0.26361 1.5 0.75 0.40757 0.4864 0.59374 1.221 0.59375 2.2188-1e-5 1.0227-0.19749 1.7811-0.59375 2.25-0.39627 0.46894-0.87141 0.6875-1.4375 0.6875-0.56609 1e-6 -1.0469-0.23983-1.4375-0.71875-0.3906-0.47891-0.59375-1.2386-0.59375-2.2812 0-0.95782 0.20031-1.6698 0.59375-2.1562 0.39343-0.48639 0.85419-0.74999 1.375-0.75zm16.156 0c0.6227 7e-6 1.1293 0.25613 1.5312 0.75 0.27738 0.33924 0.4434 0.84282 0.5 1.5312h-4.125c0.0396-0.69841 0.25999-1.2447 0.65625-1.6562 0.39626-0.41156 0.87708-0.62499 1.4375-0.625zm28.438 0.09375c0.59169 7e-6 1.0556 0.2412 1.4375 0.71875 0.26356 0.32802 0.4461 0.83432 0.5 1.5h-3.9375c0.0377-0.67533 0.24846-1.227 0.625-1.625 0.37654-0.39796 0.84247-0.59374 1.375-0.59375zm-80 1.875h2.3438c0.69628 5e-6 1.2058 0.0553 1.5312 0.1875 0.3255 0.1322 0.58877 0.33816 0.78125 0.625 0.1924 0.28685 0.28124 0.64844 0.28125 1.0625-1e-5 0.44898-0.0803 0.79693-0.28125 1.0938-0.20097 0.29683-0.49006 0.52655-0.875 0.65625-0.26607 0.08979-0.68958 0.125-1.25 0.125h-2.5312zm29.406 1.0625v0.5c0 0.65352-0.1001 1.1583-0.28125 1.5-0.18115 0.34173-0.44737 0.60797-0.8125 0.8125-0.36512 0.20454-0.77154 0.3125-1.2188 0.3125-0.46985 1e-6 -0.82769-0.11676-1.0938-0.34375-0.26606-0.22698-0.40625-0.52711-0.40625-0.90625 0-0.24444 0.0714-0.46917 0.1875-0.65625 0.11605-0.18707 0.2593-0.33523 0.46875-0.4375 0.20945-0.10226 0.59853-0.20143 1.125-0.28125 0.90573-0.13968 1.5727-0.30045 2.0312-0.5z"/>
</svg>
