<svg width="800" height="659.84" version="1.1" viewBox="0 0 800 659.84" xmlns="http://www.w3.org/2000/svg">
 <defs>
  <linearGradient id="linearGradient2864" x2="1" gradientTransform="matrix(2.2861 -14.94 -14.94 -2.2861 191.03 670.93)" gradientUnits="userSpaceOnUse">
   <stop stop-color="#0f1c28" offset="0"/>
   <stop stop-color="#0f1c28" offset=".022097"/>
   <stop stop-color="#0f1c28" offset=".036364"/>
   <stop stop-color="#40bd98" offset=".37151"/>
   <stop stop-color="#40bd98" offset=".58788"/>
   <stop stop-color="#40bd98" offset=".61838"/>
   <stop stop-color="#40bd98" offset="1"/>
  </linearGradient>
 </defs>
 <g transform="matrix(1.3333 0 0 -1.3333 -286.31 939.55)">
  <g transform="matrix(16.577 0 0 16.577 483.03 691.57)" clip-path="url(#clipPath3478)" fill="#40bd98">
   <path d="m0 0c0.117 0.434 0.59 0.789 1.048 0.789l13.718 1e-3c0.459 0 0.685-0.337 0.502-0.749 0 0-2.185-4.916-5.984-4.916h-1.845c-0.459 0-0.932-0.355-1.051-0.789l-4.091-14.944c-0.119-0.433-0.592-0.789-1.05-0.789h-6.208c-0.459 0-0.738 0.356-0.621 0.79z" fill="#40bd98"/>
  </g>
  <g transform="matrix(16.577 0 0 16.577 458.1 691.57)" clip-path="url(#clipPath3474)" fill="#40bd98">
   <path d="m0 0c0.118 0.434-0.162 0.789-0.621 0.789 0 0-1.422 1e-3 -1.859 1e-3 -3.798 0-5.983-4.917-5.983-4.917-0.183-0.411 0.043-0.748 0.502-0.748h5.806c0.459 0 0.931 0.355 1.048 0.789z" fill="#40bd98"/>
  </g>
  <g transform="matrix(16.577 0 0 16.577 -2666.2 -10461)" clip-path="url(#clipPath3440)">
   <path d="m192.86 667.9c-2.295 0-4.684-1.792-5.272-3.963l-2.457-9.077v-3.481h6.098c0.459 0 0.931 0.355 1.05 0.789l4.092 14.944c0.118 0.432 0.589 0.786 1.046 0.788z" fill="url(#linearGradient2864)"/>
  </g>
  <g fill="#231f20">
   <g transform="matrix(5.1688 0 0 5.1688 214.74 289.46)" clip-path="url(#clipPath3514-9)">
    <path d="m0 0c0 0.613 0.141 0.76 0.727 0.76h10.18c0.586 0 0.727-0.147 0.727-0.76v-0.27c0-0.613-0.141-0.76-0.727-0.76h-4.175v-13.307c0-0.661-0.164-0.833-0.797-0.833h-0.235c-0.634 0-0.798 0.172-0.798 0.833v13.307h-4.175c-0.586 0-0.727 0.147-0.727 0.76z" fill="#231f20"/>
   </g>
   <g transform="matrix(5.1688 0 0 5.1688 294.02 249.3)" clip-path="url(#clipPath3510-4)">
    <path d="m0 0v-4.461c0-0.808 0.328-1.151 1.102-1.151h6.239c0.587 0 0.727-0.147 0.727-0.76v-0.269c0-0.613-0.14-0.76-0.727-0.76h-6.637c-1.783 0-2.534 0.809-2.534 2.647v10.636c0 1.838 0.751 2.647 2.534 2.647h6.637c0.587 0 0.727-0.147 0.727-0.76v-0.27c0-0.613-0.14-0.76-0.727-0.76h-6.239c-0.774 0-1.102-0.343-1.102-1.151v-3.799h6.403c0.587 0 0.727-0.147 0.727-0.759v-0.27c0-0.613-0.14-0.76-0.727-0.76z" fill="#231f20"/>
   </g>
   <g transform="matrix(5.1688 0 0 5.1688 347.25 289.08)" clip-path="url(#clipPath3506-6)">
    <path d="m0 0c0 0.662 0.164 0.833 0.798 0.833h0.234c0.633 0 0.798-0.171 0.798-0.833v-12.156c0-0.809 0.328-1.152 1.102-1.152h5.301c0.586 0 0.727-0.147 0.727-0.76v-0.268c0-0.614-0.141-0.76-0.727-0.76h-5.699c-1.783 0-2.534 0.808-2.534 2.646z" fill="#231f20"/>
   </g>
   <g transform="matrix(5.1688 0 0 5.1688 411.87 249.3)" clip-path="url(#clipPath3502-8)">
    <path d="m0 0v-4.461c0-0.808 0.328-1.151 1.102-1.151h6.239c0.587 0 0.727-0.147 0.727-0.76v-0.269c0-0.613-0.14-0.76-0.727-0.76h-6.638c-1.782 0-2.533 0.809-2.533 2.647v10.636c0 1.838 0.751 2.647 2.533 2.647h6.638c0.587 0 0.727-0.147 0.727-0.76v-0.27c0-0.613-0.14-0.76-0.727-0.76h-6.239c-0.774 0-1.102-0.343-1.102-1.151v-3.799h6.403c0.586 0 0.727-0.147 0.727-0.759v-0.27c0-0.613-0.141-0.76-0.727-0.76z" fill="#231f20"/>
   </g>
  </g>
  <g fill="#40bd98">
   <g transform="matrix(5.1688 0 0 5.1688 469.34 218.01)" clip-path="url(#clipPath3498-0)">
    <path d="m0 0c-0.868 1.053-1.29 2.67-1.29 4.803v3.578c0 2.132 0.445 3.749 1.314 4.804 0.867 1.053 2.439 1.593 4.667 1.593 2.251 0 3.8-0.54 4.668-1.593 0.867-1.055 1.313-2.672 1.313-4.804v-3.578c0-2.133-0.446-3.75-1.313-4.803-0.868-1.055-2.44-1.593-4.668-1.593-2.252 0-3.823 0.538-4.691 1.593m8.843 8.381c0 1.643-0.282 2.818-0.845 3.529-0.563 0.735-1.665 1.103-3.307 1.103s-2.744-0.368-3.307-1.103c-0.563-0.711-0.844-1.886-0.844-3.529v-3.578c0-1.617 0.281-2.794 0.844-3.529 0.563-0.711 1.665-1.079 3.307-1.079s2.744 0.368 3.307 1.079c0.563 0.735 0.845 1.912 0.845 3.529z" fill="#40bd98"/>
   </g>
   <g transform="matrix(5.1688 0 0 5.1688 537.48 280.33)" clip-path="url(#clipPath3494-8)">
    <path d="m0 0c0 1.961 0.798 2.745 2.322 2.745 1.384 0 1.97-0.589 2.439-2.255l3.448-11.592c0.212-0.711 0.423-0.882 0.798-0.882s0.563 0.319 0.563 0.931v12.744c0 0.662 0.164 0.833 0.797 0.833h0.211c0.634 0 0.798-0.171 0.798-0.833v-12.572c0-1.961-0.727-2.745-2.252-2.745-1.431 0-2.064 0.637-2.557 2.377l-3.4 11.396c-0.212 0.759-0.376 0.956-0.775 0.956-0.398 0-0.609-0.318-0.609-0.981v-12.694c0-0.662-0.165-0.833-0.798-0.833h-0.187c-0.634 0-0.798 0.171-0.798 0.833z" fill="#40bd98"/>
   </g>
   <g transform="matrix(5.1688 0 0 5.1688 610.46 289.08)" clip-path="url(#clipPath3490-4)">
    <path d="m0 0c0 0.662 0.164 0.833 0.798 0.833h0.234c0.633 0 0.798-0.171 0.798-0.833v-10.024c0-2.548 1.29-3.529 3.917-3.529s3.917 0.981 3.917 3.529v10.024c0 0.662 0.164 0.833 0.797 0.833h0.235c0.634 0 0.797-0.171 0.797-0.833v-10.024c0-3.553-1.923-5.317-5.746-5.317-3.824 0-5.747 1.764-5.747 5.317z" fill="#40bd98"/>
   </g>
   <g transform="matrix(5.1688 0 0 5.1688 711.94 293.38)" clip-path="url(#clipPath3486-2)">
    <path d="m0 0c3.589 0 5.02-1.446 5.02-4.166 0-1.986-0.657-3.064-2.533-3.529v-0.049c2.251-0.417 3.002-1.618 3.002-3.75 0-2.819-1.36-4.436-5.114-4.436h-3.236c-1.783 0-2.533 0.809-2.533 2.647v10.636c0 1.839 0.75 2.647 2.533 2.647zm-2.462-1.789c-0.775 0-1.103-0.344-1.103-1.152v-3.995h3.565c2.369 0 3.167 0.858 3.167 2.598s-0.798 2.549-3.167 2.549zm-1.103-6.838v-4.362c0-0.809 0.328-1.152 1.103-1.152h2.556c2.721 0 3.542 0.784 3.542 2.745 0 1.887-0.798 2.769-3.261 2.769z" fill="#40bd98"/>
   </g>
   <g transform="matrix(5.1688 0 0 5.1688 814.39 215.22)" clip-path="url(#clipPath3482-6)">
    <path d="m0 0c0.164-0.613 0.047-0.808-0.587-0.808h-0.234c-0.633 0-0.845 0.146-1.009 0.808l-1.102 4.118h-7.014l-1.079-4.118c-0.164-0.662-0.375-0.808-1.009-0.808h-0.257c-0.634 0-0.751 0.195-0.586 0.808l3.142 11.739c0.376 1.397 0.774 2.352 1.197 2.842 0.445 0.515 1.149 0.76 2.111 0.76 0.961 0 1.665-0.245 2.087-0.76 0.446-0.49 0.845-1.445 1.197-2.842zm-9.5 5.857h6.122l-1.618 6.103c-0.352 1.348-0.657 1.666-1.431 1.666-0.821 0-1.103-0.318-1.454-1.666z" fill="#40bd98"/>
   </g>
  </g>
 </g>
</svg>
