<?xml version="1.0" encoding="UTF-8"?>
<svg id="svg17" width="634.78pt" height="421.07pt" version="1.1" viewBox="0 0 634.78 421.07" xmlns="http://www.w3.org/2000/svg" xmlns:cc="http://creativecommons.org/ns#" xmlns:dc="http://purl.org/dc/elements/1.1/" xmlns:rdf="http://www.w3.org/1999/02/22-rdf-syntax-ns#">
 <metadata id="metadata23">
  <rdf:RDF>
   <cc:Work rdf:about="">
    <dc:format>image/svg+xml</dc:format>
    <dc:type rdf:resource="http://purl.org/dc/dcmitype/StillImage"/>
    <dc:title/>
   </cc:Work>
  </rdf:RDF>
 </metadata>
 <g id="g858" transform="translate(-32.076 -39.39)" fill="#30368d">
  <path id="path3" d="m39.23 39.39h102.08l-5.72 39.93h-27.09l-15.32 94.05h-48.77l15.62-94.05h-26.68z"/>
  <path id="path5" d="m161.06 39.39 90.2-2.5e-4 -6.25 36.635h-39.66l-1.29 11.695h35.52l-4.57 35.325h-37.57l-1.39 12.705h41.05l-5 35.61h-92.13z"/>
  <path id="path7" d="m260.76 39.39v421.07h209.34c118.89 0 195.08-90.705 196.75-199.11 0-173.39-98.009-221.96-274.61-221.96zm165.63 133.24c76.668 0 95.059 26.071 89.87 73.928-9.9115 65.049-48.756 87.571-113.11 87.571z"/>
 </g>
 <g id="g862" transform="translate(-32.076 -39.39)" fill="#ed683b">
  <path id="path12" d="m283.48 39.39-22.72 131.97h91.199l5.981-41.531h-39.71l13.46-90.44zm-251.4 131.97v288.96h228.68l2.3e-4 -288.96z"/>
  <path id="path5-2" d="m392.34 39.39 90.2-2.5e-4 -6.25 36.635h-39.66l-1.29 11.695h35.52l-4.57 35.325h-37.57l-1.39 12.705h41.05l-5 35.61h-92.13z"/>
 </g>
</svg>
