<svg width="800" height="400.05" version="1.1" viewBox="0 0 800 400.05" xml:space="preserve" xmlns="http://www.w3.org/2000/svg" xmlns:xlink="http://www.w3.org/1999/xlink"><defs><linearGradient id="linearGradient8756"><stop stop-color="#ed7802" offset="0"/><stop stop-color="#ec7206" offset=".18295"/><stop stop-color="#e02818" offset=".45737"/><stop stop-color="#b60718" offset=".71333"/><stop stop-color="#ae0917" offset=".82669"/><stop stop-color="#bc0518" offset=".91125"/><stop stop-color="#e2001a" offset="1"/></linearGradient><radialGradient id="radialGradient8760-1-0" cx="262.93" cy="-44.445" r="150" gradientTransform="matrix(-.44667 -1.667 -1.8895 .50629 404.61 180.19)" gradientUnits="userSpaceOnUse" xlink:href="#linearGradient8756"/><radialGradient id="radialGradient3154-3" cx="262.93" cy="-44.445" r="150" gradientTransform="matrix(-.44663 -1.6668 -1.8893 .50625 531.42 176.11)" gradientUnits="userSpaceOnUse" xlink:href="#linearGradient8756"/><clipPath id="clipPath11003"><g transform="matrix(.022936 0 0 .022936 37.702 597.01)"><path transform="matrix(.75 0 0 -.75 297.56 1329.4)" d="m438.72 1434.4a200.02 200.02 0 0 0-200.02 200.02 200.02 200.02 0 0 0 200.02 200.02 200.02 200.02 0 0 0 180.76-114.94 111.1 111.1 0 0 0 77.24 31.406 111.1 111.1 0 0 0 111.1-111.1 111.1 111.1 0 0 0-111.1-111.1 111.1 111.1 0 0 0-73.811 28.242 200.02 200.02 0 0 0-184.19-122.54z" fill="#e53517" style="paint-order:stroke fill markers"/></g></clipPath><filter id="filter10316" x="-.051086" y="-.072683" width="1.1022" height="1.1454" color-interpolation-filters="sRGB"><feGaussianBlur stdDeviation="0.20839877"/></filter></defs><g transform="matrix(1.3332 0 0 -1.3332 -2137.2 -989.72)"><g transform="translate(1516.1 -508.48)"><path d="m479.05-383.96a150.01 150.01 0 0 0-150.01-150.01 150.01 150.01 0 0 0-150.01 150.01 150.01 150.01 0 0 0 150.01 150.01 150.01 150.01 0 0 0 150.01-150.01z" fill="url(#radialGradient8760-1-0)" stroke-width="1.0001" style="paint-order:stroke fill markers"/><path d="m605.86-387.99a83.327 83.327 0 0 0-83.327-83.327 83.327 83.327 0 0 0-83.327 83.327 83.327 83.327 0 0 0 83.327 83.327 83.327 83.327 0 0 0 83.327-83.327z" fill="url(#radialGradient3154-3)" style="paint-order:stroke fill markers"/></g><g transform="matrix(43.599 0 0 43.599 -425.25 -27025)" clip-path="url(#clipPath11003)" filter="url(#filter10316)"><g transform="scale(.067432 -.067432)"><path d="m736.14-8852.6c-0.9043-0.9023-1.7686-1.833-2.5928-2.79 0.37695 0.3272 0.76074 0.6484 1.1504 0.9639 0.78174 0.9961 1.6157 1.956 2.5122 2.8642-0.36182-0.3408-0.71827-0.6865-1.0698-1.0381z" fill="#ae0917"/><path d="m737.21-8851.6c0.36181 0.3408 0.72852 0.6758 1.1001 1.0059-0.43799-0.4619-0.8584-0.9385-1.2622-1.4297-0.38526-0.3193-0.76465-0.6436-1.1372-0.9756 0.41845 0.4785 0.85107 0.9453 1.2993 1.3994z" fill="#bb0618"/><path d="m735.91-8853c0.37256 0.332 0.75195 0.6563 1.1372 0.9756-0.40381-0.4912-0.79151-0.9961-1.1646-1.5127-0.40088-0.3037-0.79639-0.6133-1.1856-0.9277 0.39063 0.498 0.79493 0.9873 1.2129 1.4648z" fill="#c60119"/><path d="m733.55-8855.4c-0.82422-0.957-1.6084-1.9404-2.353-2.9463 0.4336 0.2754 0.8667 0.5489 1.3013 0.8184 0.68945 1.0605 1.4194 2.0937 2.2022 3.0918-0.38965-0.3155-0.77344-0.6367-1.1504-0.9639z" fill="#c60119"/><path d="m734.7-8854.5c-0.78272-0.9981-1.5127-2.0313-2.2022-3.0918 0.43408 0.2705 0.86914 0.5371 1.3057 0.7998 0.646 1.1074 1.335 2.1865 2.082 3.2197-0.40088-0.3037-0.79639-0.6133-1.1856-0.9277z" fill="#cc0019"/><path d="m738.31-8850.6c0.74268 0.6601 1.5049 1.2998 2.2852 1.916-0.40625-0.4834-0.79639-0.9854-1.1709-1.5029-0.81153-0.5918-1.606-1.2051-2.3765-1.8428 0.40381 0.4912 0.82422 0.9678 1.2622 1.4297z" fill="#c60119"/><path d="m737.05-8852c0.77051 0.6377 1.5649 1.251 2.3765 1.8428-0.37402-0.5186-0.73242-1.0528-1.0767-1.6006-0.83936-0.5635-1.6626-1.1475-2.4644-1.7549 0.37305 0.5166 0.76075 1.0215 1.1646 1.5127z" fill="#cc0019"/><path d="m735.88-8853.5c0.80176 0.6074 1.625 1.1914 2.4644 1.7549-0.68799-1.0957-1.3179-2.2471-1.897-3.4375-0.89405-0.4971-1.7754-1.0108-2.6494-1.5371 0.646 1.1074 1.335 2.1865 2.082 3.2197z" fill="#d00019"/><path d="m731.19-8858.4c0.8667 0.5518 1.7334 1.0918 2.6069 1.6182-0.64551-1.1084-1.2476-2.2441-1.8203-3.3897-0.95753-0.4287-1.919-0.8681-2.8965-1.3154 0.6626 1.0508 1.3657 2.0811 2.1099 3.0869z" fill="#d60019"/><path d="m729.08-8861.5c0.97754 0.4473 1.939 0.8867 2.8965 1.3154-0.57276-1.1455-1.1157-2.3007-1.6431-3.4482-1.0503-0.3252-2.0903-0.6787-3.1192-1.0791 0.58106 1.0899 1.2031 2.1611 1.8657 3.2119z" fill="#df001a"/><path d="m733.8-8856.7c0.87403 0.5263 1.7554 1.04 2.6494 1.5371-0.57911-1.1904-1.1079-2.4189-1.5942-3.6689-0.96387-0.4082-1.9185-0.8282-2.8755-1.2579 0.57275 1.1456 1.1748 2.2813 1.8203 3.3897z" fill="#d20019"/><path d="m731.98-8860.1c0.95703 0.4297 1.9116 0.8497 2.8755 1.2579-0.48633-1.2491-0.93017-2.5196-1.3403-3.795-1.0684-0.289-2.1284-0.5859-3.1782-0.9111 0.52735 1.1475 1.0703 2.3027 1.6431 3.4482z" fill="#ce0019"/><path d="m740.59-8848.7c0.78028 0.6162 1.5781 1.209 2.3926 1.7793-0.75-1.0108-1.4424-2.0977-2.0772-3.249-0.86719-0.5274-1.7232-1.0704-2.563-1.6338 0.68799 1.0957 1.4346 2.1357 2.2476 3.1035z" fill="#d60019"/><path d="m738.35-8851.8c0.83984 0.5634 1.6958 1.1064 2.563 1.6338-0.63428-1.1514-1.2109-2.3653-1.731-3.627-0.92676-0.4648-1.8345-0.9463-2.729-1.4443 0.5791 1.1904 1.209 2.3418 1.897 3.4375z" fill="#d20019"/><path d="m742.99-8846.9c0.81397 0.5703 1.6445 1.1172 2.4902 1.6386-0.72168-1.0312-1.3643-2.1582-1.937-3.3613-0.88477-0.4922-1.7632-1.0019-2.6304-1.5263 0.63477 1.1513 1.3272 2.2382 2.0772 3.249z" fill="#df001a"/><path d="m740.91-8850.1c0.86719 0.5244 1.7456 1.0341 2.6304 1.5263-0.57275-1.2031-1.0757-2.4804-1.5181-3.8115-0.97071-0.4287-1.9165-0.8769-2.8433-1.3418 0.52002 1.2617 1.0967 2.4756 1.731 3.627z" fill="#ce0019"/><path d="m736.45-8855.2c0.89453 0.498 1.8022 0.9795 2.729 1.4443-0.52002-1.2617-0.98243-2.5722-1.3882-3.9179-0.99707-0.3868-1.9712-0.7852-2.9351-1.1953 0.48633 1.25 1.0151 2.4785 1.5942 3.6689z" fill="#c90019"/><path d="m734.86-8858.9c0.96387 0.4101 1.938 0.8085 2.9351 1.1953-0.40527-1.3457-0.7544-2.7266-1.0469-4.1289-1.0835-0.292-2.1602-0.5723-3.2285-0.8614 0.41016 1.2754 0.854 2.5459 1.3403 3.795z" fill="#c00418"/><path d="m739.18-8853.8c0.92676 0.4649 1.8726 0.9131 2.8433 1.3418-0.44238-1.331-0.82471-2.7158-1.1562-4.1328-1.0566-0.3633-2.0772-0.7402-3.0752-1.1269 0.40576 1.3457 0.86817 2.6562 1.3882 3.9179z" fill="#c00418"/><path d="m737.79-8857.7c0.99805 0.3867 2.0186 0.7636 3.0752 1.1269-0.33106-1.417-0.61133-2.8662-0.85059-4.3261-1.0967-0.334-2.1875-0.6377-3.2715-0.9297 0.29248 1.4023 0.64161 2.7832 1.0469 4.1289z" fill="#b60718"/><path d="m745.48-8845.3c10.182 6.2832 21.832 8.5723 32.995 7.1963 0.55665 0.048 1.1499-0.3135 1.7656-1.002-11.723 1.1993-26.017-3.622-36.698-9.5556 0.57276 1.2031 1.2153 2.3301 1.937 3.3613z" fill="#e2001a"/><path d="m743.54-8848.6c10.681 5.9336 24.975 10.755 36.698 9.5556 0.61621-0.6884 1.2549-1.705 1.9028-2.9667-12.953 0.8144-28.341-5.2334-40.119-10.4 0.44239 1.3311 0.94532 2.6084 1.5181 3.8115z" fill="#cc0019"/><path d="m742.02-8852.4c11.778 5.167 27.166 11.215 40.119 10.4 0.64796-1.2618 1.3042-2.7686 1.9556-4.4405-14.184 0.4278-30.355-5.6943-43.231-10.093 0.33154 1.417 0.71387 2.8018 1.1562 4.1328z" fill="#bc0518"/><path d="m740.87-8856.6c12.876 4.3984 29.047 10.52 43.231 10.093 0.65137-1.6728 1.2978-3.5107 1.9248-5.4316-14.743 0.253-32.632-4.9384-46.006-8.9872 0.23926 1.4599 0.51953 2.9091 0.85059 4.3261z" fill="#b20817"/><path d="m778.47-8838.1c5.4356-0.6729 10.755-2.2119 15.738-4.5849 1.1699 0.5654 2.3672 0.6894 3.5732 0.4511-5.2593 2.1582-11.838 2.543-17.545 3.1318-0.61573 0.6885-1.209 1.0498-1.7656 1.002z" fill="#e2001a"/><path d="m780.24-8839.1c5.707-0.5888 12.286-0.9736 17.545-3.1318 1.2061-0.2392 2.4214-0.8398 3.626-1.7207-5.8667 1.6856-12.964 1.4864-19.269 1.8858-0.64795 1.2617-1.2866 2.2783-1.9028 2.9667z" fill="#cc0019"/><path d="m782.14-8842c6.3047-0.3994 13.402-0.2002 19.269-1.8858 1.2046-0.8808 2.3989-2.0429 3.5635-3.4052-6.4736 1.2129-13.974 0.6396-20.877 0.8505-0.65137 1.6719-1.3076 3.1787-1.9556 4.4405z" fill="#bc0518"/><path d="m784.1-8846.5c6.9024-0.2109 14.403 0.3624 20.877-0.8505 1.165-1.3623 2.3013-2.9268 3.3892-4.6094-6.7515 0.9981-15.167-0.097-22.341 0.028-0.62696 1.9209-1.2734 3.7588-1.9248 5.4316z" fill="#b20817"/><path d="m794.21-8842.6c1.1699 0.5654 2.3672 0.6894 3.5732 0.4511 0.61036-0.25 1.23-0.498 1.8545-0.748-1.2676 0.1875-2.5142 0.023-3.7075-0.5625-0.56885 0.2978-1.1421 0.584-1.7202 0.8594z" fill="#e2001a"/><path d="m795.93-8843.5c1.1934 0.5859 2.44 0.75 3.7075 0.5625 0.625-0.25 1.2549-0.502 1.8867-0.7578-1.335 0.1289-2.6475-0.092-3.9033-0.7295-0.55859 0.3193-1.1221 0.6279-1.6909 0.9248z" fill="#e0001a"/><path d="m797.78-8842.2c1.2207-0.5 2.478-0.9941 3.7412-1.5058 1.3354-0.128 2.6929-0.6055 4.0376-1.3633-1.397 0.3838-2.7905 0.7578-4.1528 1.1484-1.2046 0.8809-2.4199 1.4815-3.626 1.7207z" fill="#cc0019"/><path d="m797.62-8844.4c1.1172-0.6397 2.2129-1.3233 3.2847-2.0508 1.4448 0.7969 2.918 1.1611 4.397 1.1709-1.2451 0.5703-2.5147 1.0977-3.7783 1.6094-1.335 0.1289-2.6475-0.092-3.9033-0.7295z" fill="#da001a"/><path d="m801.53-8843.7c1.2637-0.5117 2.5332-1.0391 3.7783-1.6094 1.479 0.01 2.9644-0.3379 4.4321-0.9619-1.375 0.4297-2.7754 0.8232-4.1729 1.208-1.3447 0.7578-2.7022 1.2353-4.0376 1.3633z" fill="#c80119"/><path d="m801.41-8843.9c1.3623-0.3906 2.7559-0.7646 4.1528-1.1484 1.3457-0.7578 2.6787-1.7959 3.9639-3.0449-1.5234 0.2539-3.0488 0.5068-4.5532 0.7881-1.1646 1.3623-2.3589 2.5244-3.5635 3.4052z" fill="#bc0518"/><path d="m804.97-8847.3c1.5044-0.2813 3.0298-0.5342 4.5532-0.7881 1.2852-1.251 2.5234-2.7119 3.6797-4.3154-1.6465 0.1172-3.2754 0.2627-4.8438 0.4941-1.0879 1.6826-2.2241 3.2471-3.3892 4.6094z" fill="#b20817"/><path d="m805.56-8845.1c1.3975-0.3848 2.7979-0.7783 4.1729-1.208 1.4678-0.624 2.918-1.5273 4.3281-2.6318-1.4941 0.2851-3.0147 0.541-4.5371 0.7949-1.2852 1.249-2.6182 2.2871-3.9639 3.0449z" fill="#ba0618"/><path d="m809.53-8848.1c1.5225-0.2539 3.043-0.5098 4.5371-0.7949 1.4111-1.1065 2.7813-2.4121 4.0869-3.8428-1.6358 0.1172-3.2988 0.2051-4.9444 0.3223-1.1563 1.6035-2.3945 3.0644-3.6797 4.3154z" fill="#b20817"/><path d="m800.91-8846.5c1.0718-0.7275 2.1201-1.499 3.1416-2.3144 1.6333 0.956 3.2666 1.4707 4.8887 1.6259-1.167 0.6778-2.3882 1.2881-3.6333 1.8594-1.479-0.01-2.9522-0.374-4.397-1.1709z" fill="#c90019"/><path d="m805.3-8845.3c1.2451-0.5713 2.4663-1.1816 3.6333-1.8594 1.6211 0.1563 3.2305-0.047 4.8194-0.5273-1.2959 0.5283-2.6455 0.9941-4.0205 1.4248-1.4678 0.624-2.9531 0.9707-4.4321 0.9619z" fill="#be0518"/><path d="m804.05-8848.8c3.2676 1.9111 6.5313 2.0595 9.708 1.0986 0.64747-0.2637 1.2822-0.543 1.9004-0.8418-3.3057 0.8047-6.7041 0.5039-10.096-1.5127-0.49708 0.4297-1.0015 0.8486-1.5122 1.2559z" fill="#b70718"/><path d="m805.56-8850c3.3921 2.0166 6.7905 2.3174 10.096 1.5127 0.61817-0.2979 1.2197-0.6152 1.7998-0.9561-3.4463 0.6426-6.9883 0.1797-10.427-1.8759-0.48291 0.4502-0.97266 0.8896-1.4692 1.3193z" fill="#b10817"/><path d="m809.74-8846.3c1.375-0.4307 2.7246-0.8965 4.0205-1.4248 1.5889-0.4785 3.1553-1.2344 4.6885-2.1865-1.418 0.3769-2.8867 0.6933-4.3809 0.9795-1.4102 1.1045-2.8604 2.0078-4.3281 2.6318z" fill="#b50718"/><path d="m814.06-8848.9c1.4942-0.2862 2.9629-0.6026 4.3809-0.9795 1.5342-0.9512 3.0352-2.0957 4.4912-3.3526-1.54 0.2295-3.1494 0.3731-4.7852 0.4893-1.3057 1.4307-2.6758 2.7363-4.0869 3.8428z" fill="#b10917"/><path d="m813.76-8847.7c3.1768-0.958 6.2666-3.0254 9.1797-5.5391 1.54-0.2294 3.0088-0.5439 4.3652-1.0009-3.0508 2.3564-6.3994 4.1015-9.8448 4.7421-1.1611 0.6797-2.4043 1.2705-3.7002 1.7979z" fill="#b10917"/><path d="m807.03-8851.4c2.4668-2.3037 4.7373-4.8857 6.7696-7.7432 1.0527 0.8379 2.1582 1.5528 3.3096 2.1494-1.9844 2.627-4.1738 5.002-6.5059 7.168-1.1982-0.3496-2.3916-0.8682-3.5732-1.5742z" fill="#ae0917"/><path d="m813.8-8859.1c1.794-2.5156 3.3096-5.1454 4.586-7.8456 1.0039 0.9726 2.0947 1.8808 3.2676 2.7138-1.2842 2.542-2.794 4.9678-4.544 7.2812-1.1514-0.5966-2.2568-1.3115-3.3096-2.1494z" fill="#ae0917"/><path d="m810.6-8849.8c2.332-2.166 4.5215-4.541 6.5059-7.168 5.5879 2.9131 11.757 2.6953 17.418 0.503-2.4092 0.792-4.8799 1.4365-7.2256 2.2246-5.0537 3.9033-10.925 6.1289-16.698 4.4404z" fill="#ae0917"/><path d="m817.11-8857c1.75-2.3134 3.2598-4.7392 4.544-7.2812 5.7364 4.0869 12.478 5.7324 18.983 5.1397-1.9024 1.1308-3.9815 1.9453-6.1094 2.6445-5.6612 2.1923-11.83 2.4101-17.418-0.503z" fill="#ae0917"/><path d="m727.22-8864.7c-2.2725-4.2675-3.918-8.8183-4.9053-13.504 1.3447 0.1074 2.6948 0.1806 4.0479 0.2402 0.87207 4.6972 1.9121 9.8486 3.9766 14.343-1.0503-0.3252-2.0903-0.6787-3.1192-1.0791z" fill="#e2001a"/><path d="m730.34-8863.6c-2.0645-4.4941-3.1045-9.6455-3.9766-14.343 1.3525 0.059 2.708 0.1025 4.063 0.1523 0.62012 4.7256 1.4849 10.109 3.0918 15.102-1.0684-0.289-2.1284-0.5859-3.1782-0.9111z" fill="#cc0019"/><path d="m733.52-8862.7c-1.6069-4.9921-2.4717-10.376-3.0918-15.102 1.3555 0.049 2.7095 0.1045 4.0596 0.1856 0.36719 4.7539 1.1118 10.289 2.2608 15.777-1.0835-0.292-2.1602-0.5723-3.2285-0.8614z" fill="#bc0518"/><path d="m736.74-8861.8c-1.1489-5.4883-1.8936-11.023-2.2608-15.777 1.3496 0.082 2.6953 0.1885 4.0332 0.3418 0.25293 4.7666 0.55762 10.651 1.499 16.365-1.0967-0.334-2.1875-0.6377-3.2715-0.9297z" fill="#b20817"/><path d="m740.02-8860.9c-0.47071-2.8575-0.78223-5.7569-1.0078-8.5381 3.73 0.7422 7.7139 1.4639 11.849 2.1328-0.16699 3.2051-0.28906 6.5556-0.084 9.5537-3.7881-1.0527-7.4136-2.1367-10.757-3.1484z" fill="#ae0917"/><path d="m750.77-8857.7c3.7886 1.0517 7.7388 2.0722 11.732 2.958 0.18897-1.6533 0.38037-3.4287 0.5669-5.2393-4.2256-0.7089-8.4058-1.5371-12.397-2.4179-0.0254 1.6133-5e-3 3.2002 0.0977 4.6992z" fill="#ae0917"/><path d="m750.68-8862.4c3.9912 0.8808 8.1714 1.709 12.397 2.4179 0.18652-1.8115 0.36865-3.6581 0.53906-5.4531-4.334-0.5332-8.6197-1.1504-12.754-1.8193-0.0835 1.6025-0.15576 3.2412-0.18164 4.8545z" fill="#b00917"/><path d="m739.01-8869.4c-0.22558-2.7812-0.36474-5.4443-0.49121-7.8271 2.0586 0.2363 4.1484 0.4599 6.2652 0.6719 0.0991 2.3925 0.0107 5.2577-1e-3 8.2489-1.979-0.3564-3.9072-0.7226-5.7725-1.0937z" fill="#ae0917"/><path d="m744.78-8868.3c0.0122-2.9912 0.10059-5.8564 1e-3 -8.2489 2.1167 0.2128 4.2608 0.414 6.4273 0.6054 0.0264 2.417-0.18652 5.4775-0.35254 8.6826-2.0674-0.335-4.0972-0.6826-6.0762-1.0391z" fill="#b00917"/><path d="m750.86-8867.3c4.1348 0.6689 8.4204 1.2861 12.754 1.8193 0.1709-1.7949 0.33008-3.539 0.4707-5.1455-4.3936-0.3906-8.7344-0.8291-12.977-1.3105-0.0708 1.4678-0.16553 3.0342-0.24854 4.6367z" fill="#b30817"/><path d="m751.11-8871.9c4.2422 0.4814 8.583 0.9199 12.977 1.3105 0.14112-1.6064 0.26368-3.0751 0.36085-4.3212-4.4771-0.3096-8.8999-0.6524-13.233-1.0352 0.0132 1.209-0.0332 2.5781-0.104 4.0459z" fill="#b60718"/><path d="m762.51-8854.8c3.9937 0.8857 8.0298 1.6377 11.989 2.1523 0.24023-0.9053 0.4624-1.8388 0.66894-2.79-4.0713-0.4561-8.2446-1.125-12.374-1.9238-0.0952 0.8769-0.19043 1.7343-0.28467 2.5615z" fill="#ae0917"/><path d="m762.79-8857.3c4.1289 0.7988 8.3023 1.4677 12.374 1.9238 0.20606-0.9512 0.39649-1.9209 0.57374-2.8965-4.1694-0.4082-8.4395-0.998-12.665-1.7051-0.0933 0.9053-0.1875 1.8018-0.28223 2.6778z" fill="#b00917"/><path d="m763.07-8860c4.2256 0.7071 8.4956 1.2969 12.665 1.7051 0.354-1.9512 0.6543-3.9277 0.92041-5.8398-4.3291-0.335-8.7119-0.7852-13.046-1.3184-0.17041 1.795-0.35254 3.6416-0.53906 5.4531z" fill="#b30817"/><path d="m774.49-8852.6c3.9595 0.5147 7.8418 0.792 11.527 0.7285 0.30664-0.9404 0.60889-1.8994 0.90527-2.8701-3.7232 0.051-7.6929-0.1914-11.764-0.6484-0.20654 0.9512-0.42871 1.8847-0.66894 2.79z" fill="#ae0917"/><path d="m775.16-8855.4c4.0708 0.457 8.0406 0.6992 11.764 0.6484 0.2959-0.9707 0.58594-1.9511 0.86768-2.9326-3.8208 0.021-7.8887-0.2041-12.058-0.6123-0.17725 0.9756-0.36768 1.9453-0.57374 2.8965z" fill="#b10917"/><path d="m775.74-8858.3c4.169 0.4082 8.2368 0.6328 12.058 0.6123 0.56397-1.9638 1.0972-3.9306 1.5855-5.8252-4.1187-0.073-8.3936-0.2929-12.723-0.6269-0.26611 1.9121-0.56641 3.8886-0.92041 5.8398z" fill="#b60718"/><path d="m763.61-8865.5c4.3345 0.5332 8.7173 0.9834 13.046 1.3184 0.2666-1.9111 0.49854-3.7568 0.71582-5.4453-4.4522-0.2871-8.898-0.6279-13.292-1.0186-0.14062 1.6065-0.2998 3.3506-0.4707 5.1455z" fill="#bc0518"/><path d="m764.08-8870.6c4.3936 0.3907 8.8394 0.7315 13.292 1.0186 0.10889-0.8447 0.21387-1.6504 0.31787-2.4043-4.5034-0.2676-8.9854-0.5703-13.413-0.9101-0.0605 0.7236-0.12646 1.4921-0.19678 2.2958z" fill="#c50219"/><path d="m764.28-8872.9c4.4273 0.3398 8.9092 0.6425 13.413 0.9101 0.10401-0.7539 0.20704-1.458 0.31104-2.0996-4.5503-0.251-9.0826-0.5273-13.56-0.8359-0.0483 0.623-0.10352 1.3017-0.16407 2.0254z" fill="#c80119"/><path d="m776.66-8864.2c0.2666-1.9111 0.49854-3.7568 0.71582-5.4453 2.2256 0.1426 4.4531 0.2715 6.6758 0.3857-0.28466 1.6963-0.59716 3.5479-0.95117 5.4697-2.125-0.1054-4.2759-0.2431-6.4404-0.4101z" fill="#c50219"/><path d="m783.1-8863.7c0.35401-1.9218 0.66651-3.7734 0.95117-5.4697 2.2232 0.1143 4.4414 0.2129 6.6494 0.2959-0.38623 1.6739-0.83008 3.4961-1.3184 5.3906-2.0596-0.037-4.1577-0.1103-6.2822-0.2168z" fill="#c80119"/><path d="m777.37-8869.6c2.2256 0.1426 4.4531 0.2715 6.6758 0.3857 0.14258-0.8476 0.27833-1.6562 0.40919-2.415-2.2588-0.1152-4.5156-0.2412-6.7671-0.375-0.104 0.7539-0.20898 1.5596-0.31787 2.4043z" fill="#d40019"/><path d="m777.69-8872c2.2515 0.1338 4.5083 0.2598 6.7671 0.375 0.13037-0.7578 0.25586-1.4668 0.37842-2.1142-2.2798-0.1143-4.5596-0.2344-6.8345-0.3604-0.104 0.6416-0.20703 1.3457-0.31104 2.0996z" fill="#d8001a"/><path d="m784.05-8869.2c2.2232 0.1143 4.4414 0.2129 6.6494 0.2959 0.19336-0.8369 0.37207-1.6367 0.53516-2.3886-2.2573-0.099-4.5171-0.2061-6.7754-0.3223-0.13086 0.7588-0.26661 1.5674-0.40919 2.415z" fill="#d8001a"/><path d="m784.46-8871.6c2.2583 0.1162 4.5181 0.2236 6.7754 0.3223 0.1626-0.753 0.30957-1.459 0.43848-2.1094-2.2754-0.1045-4.5557-0.2129-6.8355-0.3271-0.12256 0.6474-0.24805 1.3564-0.37842 2.1142z" fill="#de001a"/><path d="m786.02-8851.9c1.7935-0.031 3.6646 0.015 5.5674 0.084 0.34228-0.9209 0.68652-1.8633 1.0283-2.8174-1.9624-0.098-3.8789-0.1621-5.6904-0.1367-0.29638 0.9707-0.59863 1.9297-0.90527 2.8701z" fill="#ae0917"/><path d="m786.93-8854.8c1.8115-0.025 3.728 0.039 5.6904 0.1367 0.3418-0.9541 0.68165-1.9199 1.0166-2.8867-2.0137-0.1132-3.98-0.1933-5.8394-0.1826-0.28174 0.9815-0.57178 1.9619-0.86768 2.9326z" fill="#b10817"/><path d="m787.79-8857.7c1.8594-0.011 3.8257 0.069 5.8394 0.1826 0.66943-1.9345 1.3174-3.8769 1.915-5.7519-2.0957-0.123-4.1646-0.2207-6.169-0.2559-0.48829 1.8946-1.0215 3.8614-1.5855 5.8252z" fill="#b70718"/><path d="m791.59-8851.8c1.9033 0.069 3.8394 0.1631 5.7617 0.2295 0.41943-0.8809 0.83105-1.791 1.2329-2.7197-1.9961-0.1026-4.0039-0.2315-5.9663-0.3272-0.3418 0.9541-0.68604 1.8965-1.0283 2.8174z" fill="#ae0917"/><path d="m792.62-8854.6c1.9624 0.096 3.9702 0.2246 5.9663 0.3272 0.40137-0.9287 0.79248-1.876 1.1719-2.8311-2.0479-0.123-4.1079-0.2695-6.1216-0.3828-0.33496 0.9668-0.67481 1.9326-1.0166 2.8867z" fill="#b10917"/><path d="m793.63-8857.5c2.0137 0.1133 4.0737 0.2598 6.1216 0.3828 0.7583-1.9091 1.4692-3.8496 2.1172-5.7343-2.1079-0.1318-4.2285-0.2783-6.3238-0.4004-0.59766 1.875-1.2456 3.8174-1.915 5.7519z" fill="#b60718"/><path d="m789.38-8863.5c0.48828-1.8945 0.93213-3.7167 1.3184-5.3906 1.0752 0.041 2.1519 0.087 3.23 0.1368-0.43603 1.664-0.94434 3.4706-1.498 5.3486-1.0298-0.044-2.0484-0.077-3.0503-0.095z" fill="#c90019"/><path d="m792.43-8863.4c0.55371-1.878 1.062-3.6846 1.498-5.3486 1.0772 0.05 2.1558 0.1035 3.2334 0.1591-0.46826 1.667-1.0156 3.4756-1.6128 5.3506-1.0474-0.061-2.0889-0.1172-3.1187-0.1611z" fill="#c80119"/><path d="m790.7-8868.9c1.0752 0.041 2.1519 0.087 3.23 0.1368 0.21778-0.8321 0.41748-1.628 0.59571-2.3789-1.0952-0.051-2.1919-0.099-3.2905-0.1465-0.16309 0.7519-0.3418 1.5517-0.53516 2.3886z" fill="#da001a"/><path d="m791.23-8871.3c1.0986 0.048 2.1953 0.096 3.2905 0.1465 0.17871-0.75 0.33594-1.4551 0.46826-2.1065-1.105-0.049-2.2124-0.099-3.3203-0.1494-0.12891 0.6504-0.27588 1.3564-0.43848 2.1094z" fill="#e0001a"/><path d="m793.93-8868.8c1.0772 0.05 2.1558 0.1035 3.2334 0.1591 0.23438-0.833 0.44922-1.6318 0.64063-2.3847-1.0908-0.052-2.1831-0.1026-3.2783-0.1533-0.17823 0.7509-0.37793 1.5468-0.59571 2.3789z" fill="#d8001a"/><path d="m794.52-8871.2c1.0952 0.051 2.1875 0.1015 3.2783 0.1533 0.19092-0.753 0.35889-1.4619 0.5-2.1153-1.1016-0.048-2.2051-0.096-3.3101-0.1445-0.13232 0.6514-0.28955 1.3565-0.46826 2.1065z" fill="#de001a"/><path d="m795.55-8863.3c2.0952 0.1221 4.2158 0.2686 6.3238 0.4004 0.64747-1.8857 1.2324-3.7168 1.7393-5.4082-2.1406-0.1133-4.2944-0.2324-6.4502-0.3428-0.46826 1.667-1.0156 3.4756-1.6128 5.3506z" fill="#c50219"/><path d="m797.16-8868.6c2.1558 0.1104 4.3096 0.2295 6.4502 0.3428 0.25342-0.8457 0.4873-1.6562 0.69922-2.4209-2.1582-0.1006-4.3291-0.2041-6.5088-0.3066-0.19141 0.7529-0.40625 1.5517-0.64063 2.3847z" fill="#d40019"/><path d="m797.8-8871c2.1797 0.1025 4.3506 0.206 6.5088 0.3066 0.2124-0.7646 0.40332-1.4844 0.57129-2.1474-2.1826-0.089-4.377-0.1797-6.5801-0.2745-0.14111 0.6534-0.30908 1.3623-0.5 2.1153z" fill="#d8001a"/><path d="m797.35-8851.6c1.9224 0.066 3.8311 0.1055 5.6812 0.066 0.99463-1.6826 1.917-3.5039 2.7656-5.375-1.9609-0.02-3.9951-0.1191-6.042-0.2422-0.75879 1.9102-1.5654 3.7881-2.4048 5.5508z" fill="#ae0917"/><path d="m799.76-8857.1c2.0469 0.1231 4.0811 0.2227 6.042 0.2422 0.84864-1.8701 1.6235-3.789 2.3228-5.666-2.0444-0.062-4.1397-0.1797-6.2476-0.3105-0.64795 1.8847-1.3589 3.8252-2.1172 5.7343z" fill="#b30817"/><path d="m803.03-8851.5c1.9893-3.3652 3.6904-7.288 5.0884-11.041 2.043 0.062 4.0352 0.072 5.9375-0.011-1.6191 3.6025-3.5645 7.3525-5.6953 10.644-1.688 0.25-3.48 0.3682-5.3306 0.4082z" fill="#ae0917"/><path d="m801.87-8862.9c2.1079 0.1308 4.2031 0.248 6.2476 0.3105 0.69922-1.8769 1.3223-3.7109 1.8672-5.4121-2.1055-0.087-4.2349-0.1933-6.3755-0.3066-0.50684 1.6914-1.0918 3.5225-1.7393 5.4082z" fill="#bc0518"/><path d="m803.61-8868.3c2.1406 0.1133 4.27 0.2197 6.3755 0.3066 0.54492-1.7011 1.0127-3.2695 1.4014-4.6132-2.1533-0.085-4.3233-0.1719-6.5064-0.2617-0.33545 1.3261-0.76368 2.8769-1.2705 4.5683z" fill="#c50219"/><path d="m808.12-8862.6c1.3975-3.7539 2.4912-7.3378 3.2686-10.025 1.0772 0.043 2.1494 0.085 3.2178 0.1269-0.81348 2.6992-1.9785 6.2471-3.4648 9.9473-0.99122 0-2-0.018-3.0215-0.049z" fill="#b30817"/><path d="m811.14-8862.5c1.4863-3.7002 2.6514-7.2481 3.4648-9.9473 1.0674 0.042 2.1309 0.084 3.1885 0.125-0.8252 2.7041-2.1182 6.1602-3.7373 9.7627-0.95117 0.042-1.9248 0.06-2.916 0.06z" fill="#b00917"/><path d="m808.36-8851.9c2.1309-3.291 4.0762-7.041 5.6953-10.644 1.7666-0.077 3.582-0.061 5.4082-0.01-1.8242 3.4571-3.9961 7.0186-6.2598 10.155-1.6465 0.1172-3.2754 0.2627-4.8438 0.4941z" fill="#ae0917"/><path d="m813.21-8852.4c1.6455-0.1172 3.3086-0.2051 4.9444-0.3223 1.2803-1.3984 2.499-2.9492 3.6377-4.5752-1.7559-0.022-3.5371-0.066-5.2871-0.06-1.0547 1.7138-2.1631 3.3886-3.2949 4.957z" fill="#ae0917"/><path d="m816.5-8857.4c1.75-0.01 3.5313 0.038 5.2871 0.06 1.1387-1.6259 2.1973-3.3271 3.1563-5.0244-1.8125-0.082-3.6514-0.1777-5.4785-0.2334-0.91211 1.7285-1.9111 3.4834-2.9648 5.1983z" fill="#b00917"/><path d="m814.06-8862.6c1.6192-3.6025 2.9121-7.0586 3.7373-9.7627 0.9834 0.039 1.9619 0.077 2.9346 0.1153-0.8379 2.708-2.2471 6.0839-3.9902 9.5947-0.90332 0-1.7988 0.015-2.6816 0.053z" fill="#ae0917"/><path d="m816.74-8862.6c1.7432-3.5108 3.1524-6.8867 3.9902-9.5947 0.97266 0.039 1.9414 0.077 2.9043 0.1152-0.86816 2.7187-2.3428 6.0703-4.168 9.5263-0.91309-0.028-1.8242-0.046-2.7266-0.047z" fill="#b00917"/><path d="m819.47-8862.6c1.8272 0.056 3.666 0.1514 5.4785 0.2334 0.95898-1.6972 1.8184-3.3916 2.5586-5.0058-1.8438-0.092-3.711-0.1875-5.5938-0.2676-0.70606 1.6104-1.5313 3.3125-2.4434 5.04z" fill="#b30817"/><path d="m821.91-8867.6c1.8828 0.08 3.75 0.1758 5.5938 0.2676 0.74023-1.6133 1.3613-3.1465 1.8438-4.5225-1.8809-0.077-3.7861-0.1543-5.7129-0.2314-0.43359 1.3594-1.0195 2.8769-1.7246 4.4863z" fill="#b60718"/><path d="m818.15-8852.7c1.6358-0.1162 3.2451-0.2598 4.7852-0.4893 0.71387-0.6142 1.4033-1.2763 2.0674-1.9746-1.5977 0.1622-3.2754 0.2247-4.9805 0.2618-0.60742 0.7656-1.2324 1.5029-1.8721 2.2021z" fill="#ae0917"/><path d="m820.02-8854.9c1.7051-0.037 3.3828-0.1 4.9805-0.2618 0.66309-0.6982 1.3018-1.4326 1.9141-2.1923-1.6455 0.1-3.3731 0.1015-5.1289 0.081-0.56934 0.8135-1.1582 1.6074-1.7656 2.3731z" fill="#b00917"/><path d="m821.79-8857.3c1.7559 0.02 3.4834 0.019 5.1289-0.081 1.2256-1.5215 2.3457-3.1465 3.3545-4.791-1.7256 0-3.5137-0.07-5.3272-0.1524-0.95899 1.6973-2.0176 3.3985-3.1563 5.0244z" fill="#b30817"/><path d="m822.94-8853.2c1.54-0.2294 3.0088-0.5439 4.3652-1.0009 0.74707-0.5762 1.4756-1.1895 2.1836-1.8311-1.374 0.4346-2.8858 0.6953-4.4815 0.8574-0.66406 0.6983-1.3535 1.3604-2.0674 1.9746z" fill="#ae0917"/><path d="m825-8855.2c1.5957-0.1621 3.1074-0.4228 4.4815-0.8574 0.70801-0.6416 1.3965-1.3134 2.0606-2.0068-1.4209 0.3721-2.9814 0.5703-4.6279 0.6719-0.61231 0.7597-1.251 1.4941-1.9141 2.1923z" fill="#b10917"/><path d="m826.92-8857.4c1.6465-0.1016 3.207-0.2998 4.6279-0.6719 1.3281-1.3877 2.5615-2.8633 3.6778-4.3691-1.5635 0.1855-3.2256 0.251-4.9512 0.25-1.0088 1.6445-2.1289 3.2695-3.3545 4.791z" fill="#b60718"/><path d="m824.94-8862.3c1.8135 0.082 3.6016 0.1504 5.3272 0.1524 1.0088-1.6446 1.9043-3.3106 2.6807-4.9121-1.7852-0.065-3.6055-0.1543-5.4492-0.2461-0.74024 1.6142-1.5996 3.3086-2.5586 5.0058z" fill="#bc0518"/><path d="m827.5-8867.3c1.8438 0.092 3.6641 0.1816 5.4492 0.2461 0.38868-0.8008 0.74708-1.5859 1.0742-2.3447-1.8086-0.079-3.6446-0.167-5.5049-0.252-0.30762 0.7568-0.64844 1.544-1.0186 2.3506z" fill="#c50219"/><path d="m828.52-8869.7c1.8604 0.085 3.6963 0.1729 5.5049 0.252 0.32812-0.7588 0.62402-1.4912 0.88867-2.1866-1.8301-0.081-3.6875-0.1601-5.5684-0.2373-0.24121 0.6885-0.51758 1.4151-0.82519 2.1719z" fill="#c80119"/><path d="m830.27-8862.2c1.0088-1.6446 1.9043-3.3106 2.6807-4.9121 0.89259 0.033 1.7764 0.06 2.6504 0.079-0.80859 1.5693-1.7432 3.1875-2.7949 4.7783-0.82617 0.039-1.6738 0.055-2.5361 0.055z" fill="#c50219"/><path d="m832.81-8862.2c1.0518-1.5908 1.9863-3.209 2.7949-4.7783 0.87403 0.018 1.7383 0.03 2.5918 0.03-0.85743 1.5097-1.8555 3.0468-2.9717 4.5527-0.78223 0.093-1.5889 0.1562-2.415 0.1953z" fill="#c80119"/><path d="m832.95-8867.1c0.89259 0.033 1.7764 0.06 2.6504 0.079 0.4043-0.7852 0.77735-1.5576 1.1172-2.3086-0.8916-0.037-1.7891-0.075-2.6934-0.1152-0.32715 0.7588-0.68555 1.5439-1.0742 2.3447z" fill="#d40019"/><path d="m834.03-8869.4c0.9043 0.04 1.8018 0.078 2.6934 0.1152 0.33887-0.751 0.64551-1.4805 0.91798-2.1787-0.9004-0.041-1.8086-0.082-2.7227-0.1231-0.26465 0.6954-0.56055 1.4278-0.88867 2.1866z" fill="#d8001a"/><path d="m835.6-8867c0.87403 0.018 1.7383 0.03 2.5918 0.03 0.42773-0.7559 0.82129-1.5039 1.1758-2.2383-0.87598-0.03-1.7598-0.065-2.6504-0.1006-0.33984 0.751-0.71289 1.5234-1.1172 2.3086z" fill="#d8001a"/><path d="m836.72-8869.3c0.89063 0.036 1.7744 0.07 2.6504 0.1006 0.35547-0.7344 0.67188-1.4551 0.94727-2.1533-0.88574-0.042-1.7793-0.084-2.6797-0.126-0.27247 0.6982-0.57911 1.4277-0.91798 2.1787z" fill="#de001a"/><path d="m827.3-8854.2c4.417-1.4844 9.2774-2.457 13.335-4.8691 0.94922-0.086 1.8945-0.2198 2.8301-0.4004-4.169 2.2802-9.4658 2.0322-13.981 3.4384-0.70801 0.6416-1.4365 1.2549-2.1836 1.8311z" fill="#ae0917"/><path d="m829.48-8856.1c4.5156-1.4062 9.8125-1.1582 13.981-3.4384 0.93653-0.1807 1.8633-0.4082 2.7783-0.6827-4.4649 1.9327-9.9278 0.9122-14.699 2.1143-0.66406 0.6934-1.3525 1.3652-2.0606 2.0068z" fill="#b10817"/><path d="m831.55-8858.1c4.7715-1.2021 10.234-0.1816 14.699-2.1143 1.8281-0.5478 3.6065-1.2812 5.3028-2.1943-5.3574 0.8789-10.776-0.6426-16.324-0.06-1.1162 1.5058-2.3496 2.9814-3.6778 4.3691z" fill="#b70718"/><path d="m835.22-8862.4c5.5479-0.5821 10.967 0.9394 16.324 0.06 1.6963-0.9131 3.3106-2.0058 4.8125-3.2734-6.25-0.1768-11.841-1.3027-18.165-1.3398-0.85743 1.5097-1.8555 3.0468-2.9717 4.5527z" fill="#c90019"/><path d="m838.19-8867c6.3242 0.037 11.915 1.163 18.165 1.3398 0.75195-0.6348 1.4746-1.3125 2.166-2.0332-6.5449-0.5234-12.573-1.3027-19.155-1.5449-0.35449 0.7344-0.74805 1.4824-1.1758 2.2383z" fill="#da001a"/><path d="m839.37-8869.2c6.5821 0.2422 12.61 1.0215 19.155 1.5449 0.69043-0.7207 1.3496-1.4844 1.9736-2.291-6.6563-0.6563-13.503-1.0879-20.182-1.4072-0.27539 0.6982-0.5918 1.4189-0.94727 2.1533z" fill="#e0001a"/><path d="m722.31-8878.2c1.3447 0.1074 2.6948 0.1806 4.0479 0.2402-0.2666-1.4687-0.47168-2.9766-0.61719-4.5039-1.4014 0.022-2.7891 0.021-4.146-0.035 0.17773 1.4423 0.41651 2.8769 0.71533 4.2988z" fill="#e2001a"/><path d="m721.6-8882.5c1.3569 0.056 2.7446 0.057 4.146 0.035-0.146-1.5264-0.23242-3.0722-0.26221-4.6201-1.4302 0.094-2.8462 0.1787-4.2329 0.2373 0.0547 1.4541 0.17138 2.9043 0.34912 4.3477z" fill="#e31619"/><path d="m726.36-8877.9c1.3525 0.059 2.708 0.1025 4.063 0.1523-0.19482-1.5712-0.34424-3.1621-0.44775-4.7607-1.415 0.038-2.8311 0.083-4.2324 0.1045 0.14551 1.5273 0.35059 3.0352 0.61719 4.5039z" fill="#cc0019"/><path d="m725.74-8882.4c1.4014-0.021 2.8174-0.066 4.2324-0.1045-0.10401-1.5986-0.16211-3.2051-0.17579-4.8066-1.4443 0.095-2.8887 0.1973-4.3189 0.291 0.0298 1.5479 0.11621 3.0937 0.26221 4.6201z" fill="#d00d19"/><path d="m721.25-8886.8c1.3867-0.059 2.8027-0.1435 4.2329-0.2373-0.0298-1.5478-3e-3 -3.0962 0.0771-4.6274-1.44 0.1557-2.8716 0.3203-4.2876 0.4946-0.0698 1.4575-0.0772 2.9155-0.0225 4.3701z" fill="#e53517"/><path d="m721.27-8891.2c1.416-0.1743 2.8477-0.3389 4.2876-0.4946 0.0806-1.5313 0.21484-3.0454 0.40088-4.5234-1.4307 0.2075-2.8608 0.4243-4.29 0.6503-0.19629 1.4527-0.32862 2.9102-0.39844 4.3677z" fill="#e74914"/><path d="m725.48-8887.1c1.4302-0.094 2.8745-0.1963 4.3189-0.291-0.0137-1.6021 0.0176-3.1987 0.0933-4.7788-1.4482 0.1387-2.8955 0.2856-4.335 0.4424-0.0806 1.5312-0.10693 3.0796-0.0771 4.6274z" fill="#d82318"/><path d="m725.56-8891.7c1.4395-0.1568 2.8867-0.3037 4.335-0.4424 0.0757-1.5801 0.19629-3.1435 0.36084-4.6782-1.4326 0.1899-2.8643 0.3892-4.2949 0.5972-0.18604 1.478-0.32031 2.9921-0.40088 4.5234z" fill="#e13217"/><path d="m730.42-8877.8c1.3555 0.049 2.7095 0.1045 4.0596 0.1856-0.0615-0.8359-0.11572-1.6729-0.16211-2.5088-1.377-0.042-2.7661-0.046-4.1553-0.047 0.0747 0.794 0.16064 1.585 0.25781 2.3701z" fill="#bc0518"/><path d="m730.17-8880.1c1.3892 1e-3 2.7783 0 4.1553 0.047-0.0464-0.8359-0.085-1.6709-0.11523-2.5058-1.3994 0-2.815 0.03-4.23 0.068 0.0517 0.7998 0.11523 1.5967 0.18994 2.3906z" fill="#be0818"/><path d="m729.98-8882.5c1.415-0.038 2.8306-0.071 4.23-0.068-0.061-1.669-0.0898-3.333-0.0859-4.9864-1.4302 0.066-2.8755 0.1534-4.3198 0.2481 0.0137 1.6015 0.0718 3.208 0.17579 4.8066z" fill="#c20918"/><path d="m734.48-8877.6c1.3496 0.082 2.6953 0.1885 4.0332 0.3418-0.0454-0.8594-0.082-1.7256-0.11133-2.5957-1.3423-0.1387-2.7075-0.2139-4.084-0.2549 0.0464 0.8359 0.10059 1.6729 0.16211 2.5088z" fill="#b20817"/><path d="m734.32-8880.1c1.3765 0.041 2.7417 0.1162 4.084 0.2549-0.0288-0.8691-0.0498-1.7412-0.0625-2.6152-1.3535-0.1045-2.7378-0.1426-4.1367-0.1455 0.0303 0.8349 0.0688 1.6699 0.11523 2.5058z" fill="#b40818"/><path d="m734.21-8882.6c1.3989 0 2.7832 0.041 4.1367 0.1455-0.0264-1.7471-0.022-3.5 0.0107-5.2393-1.3872 0-2.8027 0.042-4.2334 0.1074-4e-3 1.6534 0.0249 3.3174 0.0859 4.9864z" fill="#b90618"/><path d="m729.8-8887.3c1.4443-0.095 2.8897-0.1826 4.3198-0.2481 4e-3 -1.6538 0.042-3.2968 0.11377-4.9243-1.4419 0.1231-2.8916 0.254-4.3403 0.3936-0.0757 1.5801-0.10694 3.1767-0.0933 4.7788z" fill="#d01319"/><path d="m729.89-8892.1c1.4487-0.1396 2.8984-0.2705 4.3403-0.3936 0.0357-0.8134 0.0806-1.623 0.13428-2.4282-1.4404 0.149-2.8843 0.3028-4.3276 0.4654-0.0601 0.7802-0.10938 1.5664-0.14697 2.3564z" fill="#dd1e19"/><path d="m730.04-8894.5c1.4434-0.1626 2.8872-0.3164 4.3276-0.4654 0.0537-0.8051 0.11621-1.6059 0.1875-2.4008-1.4346 0.1728-2.8682 0.3545-4.3013 0.5444-0.082 0.7671-0.15332 1.5415-0.21387 2.3218z" fill="#e22019"/><path d="m734.12-8887.6c1.4307-0.065 2.8462-0.1064 4.2334-0.1074 0.0327-1.7402 0.0933-3.4672 0.17872-5.163-1.4209 0.1079-2.8565 0.2231-4.2984 0.3461-0.0718 1.6275-0.10937 3.2705-0.11377 4.9243z" fill="#ca0719"/><path d="m734.23-8892.5c1.4419-0.123 2.8774-0.2382 4.2984-0.3461 0.043-0.8482 0.0918-1.6885 0.14697-2.5191-1.4326 0.1436-2.8706 0.2881-4.311 0.437-0.0537 0.8052-0.0986 1.6148-0.13428 2.4282z" fill="#db0619"/><path d="m734.37-8894.9c1.4404-0.1489 2.8784-0.2934 4.311-0.437 0.0552-0.8301 0.11572-1.6504 0.18213-2.4585-1.4365 0.1568-2.8716 0.3213-4.3057 0.4947-0.0713 0.7949-0.13379 1.5957-0.1875 2.4008z" fill="#e0041a"/><path d="m738.52-8877.2c2.0586 0.2363 4.1484 0.4599 6.2652 0.6719-0.0347-0.8643-0.0571-1.753-0.0688-2.6602-2.1377-0.1894-4.2427-0.3916-6.3076-0.6074 0.0293 0.8701 0.0659 1.7363 0.11133 2.5957z" fill="#ae0917"/><path d="m738.41-8879.8c2.065 0.2158 4.1699 0.418 6.3076 0.6074-0.0112-0.9062-0.0117-1.8301-3e-3 -2.7666-2.1597-0.1435-4.2847-0.2949-6.3672-0.456 0.0127 0.874 0.0337 1.7461 0.0625 2.6152z" fill="#b10817"/><path d="m744.78-8876.6c2.1167 0.2128 4.2608 0.414 6.4273 0.6054-8e-3 -0.875-4e-3 -1.7881 0.01-2.7285-2.1973-0.168-4.3682-0.3457-6.5059-0.5371 0.0117 0.9072 0.0342 1.7959 0.0688 2.6602z" fill="#b10817"/><path d="m744.71-8879.2c2.1377 0.1914 4.3086 0.3691 6.5059 0.5371 0.0132-0.9414 0.0361-1.9101 0.0669-2.8965-2.2212-0.1279-4.4155-0.2636-6.5757-0.4072-9e-3 0.9365-8e-3 1.8604 3e-3 2.7666z" fill="#b30818"/><path d="m738.34-8882.5c-0.0264-1.7471-0.022-3.5 0.0107-5.2393 2.1367 0 4.3086 0 6.5088 0.01-0.0791 1.9013-0.13427 3.8154-0.15234 5.6855-2.1597-0.1435-4.2847-0.2949-6.3672-0.456z" fill="#b70718"/><path d="m744.71-8882c0.0181-1.8701 0.0732-3.7842 0.15234-5.6855 2.2002 0.01 4.4287 0.024 6.6787 0.044-0.10352 2.0332-0.19434 4.0762-0.25538 6.0488-2.2212-0.1279-4.4155-0.2636-6.5757-0.4072z" fill="#b90618"/><path d="m751.21-8876c4.3335 0.3828 8.7564 0.7256 13.233 1.0352 0.0747-0.9092 0.14892-1.8692 0.22119-2.8682-4.5513-0.2666-9.0503-0.5595-13.445-0.8955-0.0137 0.9404-0.0176 1.8535-0.01 2.7285z" fill="#b70718"/><path d="m751.22-8878.7c4.3946 0.336 8.8936 0.6289 13.445 0.8955 0.0728-0.999 0.14355-2.0351 0.21191-3.0966-4.5962-0.211-9.1465-0.4385-13.59-0.6954-0.0308 0.9864-0.0537 1.9551-0.0669 2.8965z" fill="#b90618"/><path d="m751.29-8881.6c4.4434 0.2569 8.9937 0.4844 13.59 0.6954 0.13672-2.1231 0.26172-4.3467 0.36426-6.5645-4.6138-0.078-9.1988-0.1386-13.699-0.1797-0.10352 2.0332-0.19434 4.0762-0.25538 6.0488z" fill="#be0818"/><path d="m738.35-8887.7c4.273-0.01 8.6875 0.014 13.188 0.054 0.10302-2.0327 0.21875-4.0541 0.3291-5.9838-4.501 0.1826-8.9576 0.4326-13.338 0.7671-0.0854 1.6958-0.146 3.4228-0.17872 5.163z" fill="#c90019"/><path d="m738.53-8892.9c4.3804-0.3345 8.8369-0.5845 13.338-0.7671 0.0552-0.9649 0.10937-1.9068 0.15967-2.8154-4.479 0.2714-8.9351 0.6215-13.351 1.0634-0.0552 0.8306-0.10401 1.6709-0.14697 2.5191z" fill="#da001a"/><path d="m738.68-8895.4c4.4155-0.4419 8.8716-0.792 13.351-1.0634 0.0503-0.9087 0.0972-1.7842 0.13867-2.6163-4.4419 0.3331-8.878 0.7378-13.307 1.2212-0.0664 0.8081-0.12696 1.6284-0.18213 2.4585z" fill="#e0001a"/><path d="m751.54-8887.6c4.5 0.041 9.085 0.1016 13.699 0.1797 0.10254-2.2177 0.18311-4.4292 0.23145-6.5288-4.5557 0.066-9.1001 0.1822-13.601 0.3653-0.11035 1.9297-0.22608 3.9511-0.3291 5.9838z" fill="#cd0a19"/><path d="m751.87-8893.6c4.501-0.1831 9.0454-0.2993 13.601-0.3653 0.0244-1.0498 0.0405-2.0712 0.0469-3.0517-4.5068 0.1338-9.0088 0.3291-13.488 0.6016-0.0503 0.9086-0.10449 1.8505-0.15967 2.8154z" fill="#dc1119"/><path d="m752.03-8896.4c4.4795-0.2725 8.9815-0.4678 13.488-0.6016 7e-3 -0.9805 4e-3 -1.9199-0.01-2.8052-4.4502 0.1958-8.8975 0.4571-13.34 0.7905-0.0415 0.8321-0.0884 1.7076-0.13867 2.6163z" fill="#e11319"/><path d="m764.44-8874.9c4.4771 0.3086 9.0093 0.5849 13.56 0.8359 0.31445-1.8848 0.55957-3.9922 0.74268-6.2109-4.6284-0.1865-9.272-0.3789-13.869-0.5898-0.13623 2.123-0.28418 4.1464-0.4331 5.9648z" fill="#c90019"/><path d="m764.88-8880.9c4.5972 0.2109 9.2408 0.4033 13.869 0.5898 0.1831-2.2197 0.30322-4.5498 0.3667-6.8789-4.6148-0.1045-9.2578-0.1982-13.872-0.2754-0.10254 2.2178-0.22754 4.4414-0.36426 6.5645z" fill="#cd0a19"/><path d="m778-8874.1c0.31445-1.8848 0.55957-3.9922 0.74268-6.2109 2.314 0.093 4.624 0.1836 6.9229 0.2744-0.18994 2.252-0.4624 4.3887-0.83105 6.2969-2.2798-0.1143-4.5596-0.2344-6.8345-0.3604z" fill="#da001a"/><path d="m784.84-8873.7c0.36865-1.9082 0.64111-4.0449 0.83105-6.2969 2.2988 0.091 4.5864 0.1807 6.8545 0.2725-0.18409 2.2783-0.46094 4.4355-0.8501 6.3515-2.2754-0.1045-4.5557-0.2129-6.8355-0.3271z" fill="#e0001a"/><path d="m778.74-8880.3c0.1831-2.2197 0.30322-4.5498 0.3667-6.8789 2.3076 0.053 4.6084 0.1084 6.8955 0.166-0.041 2.3682-0.14893 4.7354-0.33936 6.9873-2.2988-0.091-4.6089-0.1816-6.9229-0.2744z" fill="#dc0e19"/><path d="m785.67-8880c0.19043-2.2519 0.29834-4.6191 0.33936-6.9873 2.2866 0.059 4.5596 0.1182 6.8111 0.1797-0.02 2.4004-0.11182 4.8008-0.2959 7.0801-2.2681-0.092-4.5557-0.1817-6.8545-0.2725z" fill="#e10d19"/><path d="m765.24-8887.5c4.6138 0.077 9.2569 0.1709 13.872 0.2754 0.064-2.3286 0.0713-4.6557 0.0288-6.8696-4.5459-0.017-9.1133 0-13.669 0.065-0.0483 2.0996-0.12891 4.3111-0.23145 6.5288z" fill="#d71b19"/><path d="m765.47-8894c4.5557-0.065 9.1231-0.082 13.669-0.065-0.0425-2.2143-0.13575-4.3154-0.27295-6.1909-4.4546 0.073-8.9087 0.2036-13.359 0.3994 0.0273 1.77 0.0112 3.7578-0.0371 5.8569z" fill="#e02a18"/><path d="m779.11-8887.2c0.12793-4.6567 0.0303-9.309-0.24414-13.06 4.4551-0.073 8.9112-0.086 13.367-0.049 0.37451 3.8476 0.62305 8.6528 0.5835 13.455-4.5034-0.123-9.0913-0.2402-13.707-0.3457z" fill="#e02818"/><path d="m791.67-8873.4c0.38916-1.916 0.66601-4.0732 0.8501-6.3515 1.104 0.044 2.2153 0.086 3.3301 0.1279-0.18165 2.2881-0.46094 4.4531-0.85987 6.373-1.105-0.049-2.2124-0.099-3.3203-0.1494z" fill="#e2001a"/><path d="m794.99-8873.3c0.39893-1.9199 0.67822-4.0849 0.85987-6.373 1.1152 0.042 2.2344 0.082 3.355 0.1221-0.18701 2.2929-0.47998 4.4648-0.90479 6.3954-1.1016-0.048-2.2051-0.096-3.3101-0.1445z" fill="#e0001a"/><path d="m792.52-8879.8c0.18408-2.2793 0.27588-4.6797 0.2959-7.0801 1.0967 0.029 2.2017 0.061 3.3125 0.096-0.0107 2.4121-0.0962 4.8242-0.27832 7.1123-1.1148-0.042-2.2261-0.084-3.3301-0.1279z" fill="#e31019"/><path d="m795.85-8879.6c0.18213-2.2881 0.26758-4.7002 0.27832-7.1123 1.1104 0.034 2.2266 0.07 3.3467 0.1084-1e-3 2.417-0.083 4.832-0.27002 7.126-1.1206-0.04-2.2398-0.08-3.355-0.1221z" fill="#e11019"/><path d="m798.3-8873.1c2.2031 0.095 4.3975 0.1856 6.5801 0.2745 0.50391-1.9639 0.84473-4.1465 1.0557-6.4404-2.2388-0.075-4.4888-0.1514-6.731-0.2295-0.18701 2.2929-0.47998 4.4648-0.90479 6.3954z" fill="#da001a"/><path d="m799.21-8879.5c2.2422 0.078 4.4922 0.1543 6.731 0.2295 0.21142-2.294 0.29297-4.7002 0.27881-7.1104-2.2466-0.087-4.5-0.1699-6.7398-0.2451-1e-3 2.417-0.083 4.832-0.27002 7.126z" fill="#dc1119"/><path d="m792.82-8886.8c2.1934 0.06 4.4194 0.1289 6.6592 0.2041 1e-3 -2.4175-0.0767-4.8359-0.20801-7.1372-2.2105-0.068-4.4107-0.1211-6.5874-0.1523 0.104 2.2822 0.15625 4.6841 0.13623 7.0854z" fill="#e42d18"/><path d="m792.68-8893.9c2.1768 0.031 4.377 0.084 6.5874 0.1523-0.13086-2.3012-0.31543-4.4853-0.52637-6.4321-2.169-0.041-4.3384-0.072-6.5083-0.09 0.1875 1.9238 0.34326 4.0874 0.44727 6.3696z" fill="#e64116"/><path d="m799.48-8886.6c2.2398 0.075 4.4932 0.1582 6.7398 0.2451-0.0142-2.4111-0.12452-4.8256-0.29737-7.1372-2.2188-0.093-4.4395-0.1767-6.6504-0.2451 0.13135 2.3013 0.20947 4.7197 0.20801 7.1372z" fill="#e02d18"/><path d="m799.27-8893.8c2.2109 0.068 4.4316 0.1524 6.6504 0.2451-0.17236-2.312-0.40723-4.5204-0.6709-6.518-2.1685-0.064-4.3369-0.1177-6.5059-0.1592 0.21094 1.9468 0.39551 4.1309 0.52637 6.4321z" fill="#e54215"/><path d="m804.88-8872.8c2.1831 0.09 4.353 0.1767 6.5064 0.2617 0.29199-0.9981 0.53613-2.0449 0.7373-3.1279-2.1816-0.075-4.3867-0.1534-6.606-0.2295-0.17481 1.0771-0.38575 2.1132-0.6377 3.0957z" fill="#c90019"/><path d="m805.52-8875.9c2.2192 0.076 4.4243 0.1543 6.606 0.2295 0.20118-1.083 0.36036-2.2022 0.48145-3.3457-2.2002-0.077-4.4287-0.1533-6.6694-0.2285-0.10547 1.1474-0.24317 2.2665-0.41797 3.3447z" fill="#ca0719"/><path d="m805.94-8879.3c2.2407 0.075 4.4692 0.1513 6.6694 0.2285 0.24219-2.2881 0.33301-4.6748 0.31153-7.0693-2.2148-0.093-4.4551-0.1836-6.7022-0.2696 0.0142 2.4102-0.0674 4.8164-0.27881 7.1104z" fill="#ce1519"/><path d="m811.39-8872.6c1.0772 0.043 2.1494 0.085 3.2178 0.1269 0.30469-1.0039 0.55957-2.0527 0.77149-3.1367-1.0772-0.04-2.1621-0.078-3.252-0.1181-0.20117 1.083-0.44531 2.1298-0.7373 3.1279z" fill="#b70718"/><path d="m812.13-8875.7c1.0898 0.04 2.1748 0.078 3.252 0.1181 0.21094-1.083 0.37793-2.2011 0.50586-3.3437-1.083-0.041-2.1758-0.081-3.2764-0.1201-0.12109 1.1435-0.28027 2.2627-0.48145 3.3457z" fill="#b90c18"/><path d="m814.61-8872.5c1.0674 0.042 2.1309 0.084 3.1885 0.125 0.30957-1.0058 0.57031-2.0556 0.78613-3.1386-1.0586-0.042-2.1279-0.083-3.2031-0.1231-0.21192 1.084-0.4668 2.1328-0.77149 3.1367z" fill="#b10817"/><path d="m815.38-8875.6c1.0752 0.04 2.1445 0.081 3.2031 0.1231 0.2168-1.084 0.38868-2.2012 0.52149-3.3408-1.0625-0.044-2.1358-0.086-3.2188-0.126-0.12793 1.1426-0.29492 2.2607-0.50586 3.3437z" fill="#b30d17"/><path d="m812.61-8879.1c0.24219-2.2881 0.33301-4.6748 0.31153-7.0693 1.1074 0.047 2.208 0.094 3.2988 0.1406 0.0195 2.3847-0.0781 4.7636-0.33398 7.0488-1.083-0.041-2.1758-0.081-3.2764-0.1201z" fill="#bf1818"/><path d="m815.88-8878.9c0.25586-2.2852 0.35352-4.6641 0.33398-7.0488 1.0918 0.047 2.1738 0.094 3.2442 0.1406 0.0127 2.3809-0.0937 4.7539-0.35938 7.0342-1.0625-0.044-2.1358-0.086-3.2188-0.126z" fill="#b91817"/><path d="m806.22-8886.4c2.2471 0.086 4.4873 0.1768 6.7022 0.2696-0.0215-2.3946-0.15528-4.7954-0.36231-7.1099-2.2022-0.103-4.418-0.2041-6.6372-0.2969 0.17285 2.3116 0.28321 4.7261 0.29737 7.1372z" fill="#d83017"/><path d="m805.92-8893.5c2.2192 0.093 4.4351 0.1939 6.6372 0.2969-0.10352-1.1572-0.22559-2.2924-0.36035-3.3945-2.1885-0.1-4.3818-0.1943-6.5782-0.2793 0.11328 1.0908 0.21533 2.2207 0.30127 3.3769z" fill="#e24515"/><path d="m805.62-8896.9c2.1963 0.085 4.3897 0.1797 6.5782 0.2793-0.13575-1.1025-0.28516-2.1719-0.44336-3.1963-2.168-0.085-4.336-0.1601-6.5044-0.2241 0.13184 0.9985 0.25635 2.0503 0.36963 3.1411z" fill="#e64d14"/><path d="m812.92-8886.1c2.2148 0.093 4.4024 0.1875 6.543 0.2812-0.0117-2.3813-0.14454-4.7695-0.35938-7.0805-2.1582-0.1011-4.3438-0.2066-6.5459-0.3106 0.20703 2.3145 0.34082 4.7153 0.36231 7.1099z" fill="#cf3117"/><path d="m812.56-8893.2c2.2022 0.104 4.3877 0.2095 6.5459 0.3106-0.10742-1.1553-0.23438-2.2915-0.37695-3.398-2.1641-0.1035-4.3428-0.2075-6.5293-0.3071 0.13476 1.1021 0.25683 2.2373 0.36035 3.3945z" fill="#e04615"/><path d="m812.2-8896.6c2.1865 0.1 4.3652 0.2036 6.5293 0.3071-0.14356-1.1064-0.30274-2.1831-0.47266-3.2192-2.166-0.1045-4.333-0.1992-6.5-0.2842 0.1582 1.0244 0.30761 2.0938 0.44336 3.1963z" fill="#e54e13"/><path d="m817.8-8872.3c0.9834 0.039 1.9619 0.077 2.9346 0.1153 0.31445-1.0078 0.58008-2.0576 0.80176-3.1406-0.98243-0.037-1.9658-0.074-2.9502-0.1133-0.21582 1.083-0.47656 2.1328-0.78613 3.1386z" fill="#ae0917"/><path d="m818.58-8875.5c0.98438 0.039 1.9678 0.076 2.9502 0.1133 0.22168-1.0821 0.39844-2.1983 0.53613-3.336-0.98926-0.039-1.9785-0.078-2.9648-0.1181-0.13281 1.1396-0.30469 2.2568-0.52149 3.3408z" fill="#b10e17"/><path d="m820.73-8872.2c0.97266 0.039 1.9414 0.077 2.9043 0.1152 0.32618-1.0117 0.60255-2.0644 0.83497-3.1474-0.97754-0.035-1.9561-0.071-2.9375-0.1084-0.22168 1.083-0.48731 2.1328-0.80176 3.1406z" fill="#b10817"/><path d="m821.53-8875.4c0.98145 0.037 1.96 0.073 2.9375 0.1084 0.23242-1.0831 0.4209-2.1963 0.56934-3.3301-0.99024-0.038-1.9805-0.076-2.9707-0.1143-0.13769 1.1377-0.31445 2.2539-0.53613 3.336z" fill="#b30d17"/><path d="m819.1-8878.8c0.26563-2.2803 0.37207-4.6533 0.35938-7.0342 0.99414 0.043 1.9941 0.089 2.998 0.1367 3e-3 2.3731-0.11621 4.7383-0.39258 7.0156-0.98926-0.039-1.9785-0.078-2.9648-0.1181z" fill="#b71817"/><path d="m822.07-8878.7c0.27637-2.2773 0.39551-4.6425 0.39258-7.0156 1.0029 0.047 2.0098 0.096 3.0176 0.1465-8e-3 2.3613-0.14355 4.7148-0.43945 6.9834-0.99024-0.038-1.9805-0.076-2.9707-0.1143z" fill="#b91817"/><path d="m823.63-8872.1c1.9268 0.077 3.832 0.1543 5.7129 0.2314 0.36133-1.0263 0.67286-2.0849 0.93751-3.1679-1.918-0.069-3.8604-0.1397-5.8154-0.2109-0.23242 1.083-0.50879 2.1357-0.83497 3.1474z" fill="#b70718"/><path d="m824.47-8875.2c1.9551 0.071 3.8975 0.1416 5.8154 0.2109 0.26562-1.083 0.48535-2.1895 0.66211-3.3135-1.9541-0.076-3.9287-0.1513-5.9082-0.2275-0.14844 1.1338-0.33692 2.247-0.56934 3.3301z" fill="#b90c18"/><path d="m825.04-8878.6c1.9795 0.076 3.9541 0.1514 5.9082 0.2275 0.35352-2.248 0.53613-4.5644 0.57813-6.8925-2.0088-0.1104-4.0303-0.2168-6.0469-0.3184-8e-3 2.3613-0.14355 4.7148-0.43945 6.9834z" fill="#bf1818"/><path d="m819.46-8885.8c1.9883 0.087 4 0.1816 6.0156 0.2832 9e-3 -2.3613-0.10937-4.7324-0.31934-7.0356-2.0283-0.1231-4.0508-0.2344-6.0557-0.3281 0.21484 2.311 0.34766 4.6992 0.35938 7.0805z" fill="#cb3117"/><path d="m819.1-8892.9c2.0049 0.094 4.0274 0.205 6.0557 0.3281-0.10449-1.1514-0.2334-2.2861-0.37988-3.3945-2.0244-0.1236-4.043-0.2359-6.0528-0.3316 0.14257 1.1065 0.26953 2.2427 0.37695 3.398z" fill="#de4714"/><path d="m818.73-8896.3c2.0098 0.096 4.0283 0.208 6.0528 0.3316-0.14746-1.1084-0.31348-2.1909-0.49414-3.2373-2.0098-0.1118-4.0196-0.2168-6.0313-0.3135 0.16992 1.0361 0.3291 2.1128 0.47266 3.2192z" fill="#e54f13"/><path d="m825.48-8885.6c2.0166 0.1016 4.0381 0.208 6.0469 0.3184 0.042-2.3272-0.0566-4.6655-0.26954-6.9561-2.0312-0.1401-4.0664-0.2749-6.0967-0.3979 0.20997 2.3032 0.32813 4.6743 0.31934 7.0356z" fill="#cf3017"/><path d="m825.16-8892.6c2.0303 0.123 4.0654 0.2578 6.0967 0.3979-0.10547-1.145-0.24023-2.2788-0.39941-3.393-2.0254-0.1416-4.0537-0.2754-6.0772-0.3994 0.14648 1.1084 0.27539 2.2431 0.37988 3.3945z" fill="#e04615"/><path d="m824.78-8896c2.0234 0.124 4.0518 0.2578 6.0772 0.3994-0.15918-1.1143-0.3418-2.21-0.5459-3.2793-2.0078-0.126-4.0166-0.2451-6.0254-0.3574 0.18066 1.0464 0.34668 2.1289 0.49414 3.2373z" fill="#e54e13"/><path d="m829.35-8871.9c1.8809 0.077 3.7383 0.1563 5.5684 0.2373 0.79297-2.082 1.3916-4.2548 1.8145-6.4784-1.8965-0.084-3.8301-0.1641-5.7832-0.2403-0.35352 2.2481-0.87696 4.4277-1.5996 6.4814z" fill="#c90019"/><path d="m830.95-8878.4c1.9531 0.076 3.8867 0.1563 5.7832 0.2403 0.42383-2.2246 0.67285-4.5 0.76563-6.7891-1.9658-0.1172-3.9619-0.2324-5.9707-0.3437-0.042 2.3281-0.22461 4.6445-0.57813 6.8925z" fill="#ce1519"/><path d="m834.92-8871.6c0.79297-2.082 1.3916-4.2548 1.8145-6.4784 0.94825 0.041 1.8877 0.084 2.8164 0.1289-0.45997 2.2128-1.0918 4.3808-1.9082 6.4726-0.9004-0.041-1.8086-0.082-2.7227-0.1231z" fill="#da001a"/><path d="m837.64-8871.5c0.81641-2.0918 1.4482-4.2598 1.9082-6.4726 0.92773 0.044 1.8447 0.09 2.748 0.1377-0.49316 2.2031-1.1514 4.3662-1.9766 6.4609-0.88574-0.042-1.7793-0.084-2.6797-0.126z" fill="#e0001a"/><path d="m836.73-8878.1c0.42383-2.2246 0.67285-4.5 0.76563-6.7891 0.98242 0.059 1.957 0.1172 2.9229 0.1758-0.12598 2.2715-0.41309 4.5293-0.87207 6.7422-0.92872-0.045-1.8682-0.088-2.8164-0.1289z" fill="#dc1119"/><path d="m839.55-8878c0.45898-2.2129 0.74609-4.4707 0.87207-6.7422 0.96582 0.059 1.9209 0.1172 2.8643 0.1758-0.16602 2.2578-0.49415 4.5009-0.98829 6.7041-0.90332-0.048-1.8203-0.094-2.748-0.1377z" fill="#e10d19"/><path d="m831.52-8885.2c2.0088 0.1113 4.0049 0.2265 5.9707 0.3437 0.0928-2.289 0.0293-4.5913-0.17188-6.8667-2.0098-0.1455-4.0371-0.2919-6.0684-0.4331 0.21289 2.2906 0.31153 4.6289 0.26954 6.9561z" fill="#d82f17"/><path d="m831.26-8892.2c2.0313 0.1412 4.0586 0.2876 6.0684 0.4331-0.20117-2.2748-0.53906-4.5239-0.99512-6.7079-2.0049-0.1387-4.0108-0.2715-6.0186-0.3975 0.4082 2.1387 0.7334 4.3818 0.94531 6.6723z" fill="#e24415"/><path d="m837.5-8884.9c0.18555-4.5786-0.25391-9.2065-1.167-13.575 2.0049 0.1386 4.0098 0.2837 6.0127 0.4336 0.95508 4.4091 1.2734 8.9779 0.94141 13.493-1.8867-0.1172-3.8223-0.2354-5.7871-0.3516z" fill="#e02d18"/><path d="m840.32-8871.4c1.6699 0.079 3.3496 0.166 5.0352 0.2617 0.94043-2.083 1.7012-4.2432 2.2803-6.4512-1.8496-0.094-3.6475-0.1826-5.3389-0.2714-0.49316 2.2031-1.1514 4.3662-1.9766 6.4609z" fill="#e2001a"/><path d="m842.29-8877.8c1.6914 0.089 3.4893 0.1777 5.3389 0.2714 0.57812-2.208 0.97559-4.4638 1.1856-6.7372-1.9287-0.057-3.7959-0.1299-5.5362-0.2383-0.16602 2.2578-0.49415 4.5009-0.98829 6.7041z" fill="#e30c1a"/><path d="m845.35-8871.1c1.6856 0.096 3.376 0.2002 5.0645 0.3154 1.1904-2.0547 2.1475-4.2246 2.8672-6.4668-1.9014-0.1074-3.8027-0.206-5.6514-0.2998-0.57911 2.208-1.3398 4.3682-2.2803 6.4512z" fill="#e2001a"/><path d="m847.63-8877.6c1.8486 0.094 3.75 0.1924 5.6514 0.2998 0.71973-2.2421 1.2012-4.5556 1.4424-6.8964-1.9902-0.045-3.9805-0.085-5.9082-0.1406-0.20996 2.2734-0.60743 4.5292-1.1856 6.7372z" fill="#e31019"/><path d="m843.28-8884.5c1.7402 0.1084 3.6074 0.1816 5.5362 0.2383 0.20898-2.2744 0.23047-4.5669 0.0605-6.8472-1.918 0-3.7959-0.049-5.585-0.1767 0.15821 2.2573 0.1543 4.5288-0.0117 6.7856z" fill="#e42a18"/><path d="m843.29-8891.3c1.7891 0.1274 3.667 0.1728 5.585 0.1767-0.16894-2.2802-0.53027-4.5488-1.0879-6.7753-1.8203 0.045-3.6387 0.028-5.4502-0.1084 0.47754 2.2045 0.7959 4.4492 0.95312 6.707z" fill="#e64016"/><path d="m848.82-8884.3c1.9277 0.056 3.918 0.096 5.9082 0.1406 0.24121-2.3408 0.24219-4.71-2e-3 -7.062-1.9639 0.039-3.9258 0.077-5.8457 0.074 0.16993 2.2803 0.14844 4.5728-0.0605 6.8472z" fill="#e42f18"/><path d="m848.88-8891.2c1.9199 0 3.8818-0.035 5.8457-0.074-0.24415-2.3516-0.73243-4.6865-1.4678-6.9609-1.8232 0.1094-3.6465 0.2153-5.4658 0.2598 0.55762 2.2265 0.91895 4.4951 1.0879 6.7753z" fill="#e64515"/><path d="m850.42-8870.8c3.378 0.2305 6.7539 0.502 10.082 0.8301 0.77832-1.0068 1.4814-2.0605 2.1084-3.1504-3.3418-0.3242-6.959-0.6035-10.58-0.8428-0.47852 1.0791-1.0156 2.1358-1.6104 3.1631z" fill="#e2001a"/><path d="m852.03-8874c3.6211 0.2393 7.2383 0.5186 10.58 0.8428 0.62696-1.0908 1.1777-2.2187 1.6524-3.375-3.375-0.3105-7.1748-0.5586-10.976-0.7715-0.36035 1.1211-0.7793 2.2246-1.2568 3.3037z" fill="#e2001a"/><path d="m853.28-8877.3c3.8008 0.2129 7.6006 0.461 10.976 0.7715 0.94727-2.3115 1.585-4.7363 1.9043-7.2021-3.4785-0.2744-7.458-0.3779-11.438-0.4658-0.24121 2.3408-0.72266 4.6543-1.4424 6.8964z" fill="#e31919"/><path d="m854.73-8884.2c1.9902 0.044 3.9795 0.092 5.9063 0.1631 0.27344-2.418 0.25293-4.8735-0.0644-7.3047-1.919 5e-4 -3.8809 0.04-5.8438 0.08 0.24414 2.352 0.24316 4.7212 2e-3 7.062z" fill="#e53817"/><path d="m854.73-8891.2c1.9629-0.039 3.9248-0.079 5.8438-0.08-0.15821-1.2153-0.39063-2.4253-0.69727-3.6211-1.8828 0.033-3.7891 0.1138-5.6953 0.1909 0.24414 1.1622 0.42676 2.334 0.54883 3.5098z" fill="#e75013"/><path d="m854.18-8894.7c1.9062-0.077 3.8125-0.1577 5.6953-0.1909-0.30762-1.1958-0.68946-2.3784-1.1465-3.5395-1.8213 0.058-3.6445 0.1699-5.4678 0.2793 0.36816 1.1372 0.67383 2.2895 0.91895 3.4511z" fill="#e85811"/><path d="m860.63-8884c1.9277 0.071 3.792 0.165 5.5313 0.3027 0.31933-2.4658 0.32031-4.9736-8e-3 -7.4507-1.791-0.1191-3.667-0.1572-5.5879-0.1567 0.31738 2.4312 0.33789 4.8867 0.0644 7.3047z" fill="#e64515"/><path d="m860.57-8891.3c1.9209-5e-4 3.7969 0.038 5.5879 0.1567-0.16406-1.2382-0.40918-2.4692-0.73828-3.6835-1.8076-0.1133-3.665-0.127-5.5469-0.094 0.30664 1.1958 0.53906 2.4058 0.69727 3.6211z" fill="#e9600f"/><path d="m859.87-8894.9c1.8818-0.033 3.7393-0.019 5.5469 0.094-0.32813-1.2144-0.74121-2.4121-1.2383-3.584-1.8144-0.1104-3.6338-0.1074-5.4551-0.05 0.45703 1.1611 0.83887 2.3437 1.1465 3.5395z" fill="#ea680b"/><path d="m721.67-8895.6c1.4292-0.226 2.8594-0.4428 4.29-0.6503 0.17627-1.3496 0.35938-2.7334 0.56983-4.1319-1.397 0.2232-2.7818 0.4639-4.1465 0.7295-0.29346 1.3448-0.53076 2.6968-0.71338 4.0527z" fill="#e75113"/><path d="m722.38-8899.6c1.3648-0.2656 2.7495-0.5063 4.1465-0.7295 0.21045-1.3989 0.44873-2.8125 0.73535-4.2211-1.3228 0.2802-2.6104 0.5888-3.8335 0.9419-0.40576 1.3266-0.75488 2.664-1.0483 4.0087z" fill="#e75113"/><path d="m725.96-8896.2c1.4307-0.208 2.8623-0.4073 4.2949-0.5972 0.16308-1.335 0.31933-2.73 0.48828-4.1592-1.4097 0.1958-2.8169 0.4014-4.2134 0.6245-0.21045 1.3985-0.39356 2.7823-0.56983 4.1319z" fill="#e53917"/><path d="m726.53-8900.3c1.3965-0.2231 2.8037-0.4287 4.2134-0.6245 0.16895-1.4297 0.35059-2.8935 0.56348-4.3662-1.3618 0.2383-2.7188 0.4898-4.0415 0.7696-0.28662 1.4086-0.5249 2.8222-0.73535 4.2211z" fill="#e53d16"/><path d="m723.43-8903.6c2.4463-0.7066 5.1514-1.2344 7.875-1.7115 0.21289-1.4726 0.45752-2.9541 0.75195-4.4189-2.5537 0.6216-5.0772 1.3057-7.2407 2.187-0.51905 1.3013-0.98096 2.6167-1.3862 3.9434z" fill="#e75113"/><path d="m724.82-8907.6c2.1636-0.8813 4.687-1.5654 7.2407-2.187 0.29444-1.4648 0.63917-2.9126 1.0532-4.3183-2.2832 0.809-4.5318 1.6865-6.5659 2.6469-0.6333 1.2696-1.209 2.5571-1.728 3.8584z" fill="#e75113"/><path d="m730.25-8896.8c1.4331-0.1899 2.8667-0.3716 4.3013-0.5444 0.14941-1.3208 0.28223-2.7237 0.41406-4.1797-1.4053 0.1831-2.8169 0.3691-4.2271 0.5649-0.16895 1.4292-0.3252 2.8242-0.48828 4.1592z" fill="#e32219"/><path d="m730.74-8901c1.4102-0.1958 2.8218-0.3818 4.2271-0.5649 0.13135-1.4556 0.26172-2.9634 0.40626-4.4936-1.3413 0.2285-2.708 0.4541-4.0698 0.6923-0.21289 1.4727-0.39453 2.9365-0.56348 4.3662z" fill="#e42c18"/><path d="m734.56-8897.3c1.4341-0.1734 2.8692-0.3379 4.3057-0.4947 0.14355-1.3139 0.22998-2.7387 0.2915-4.2343-1.3814 0.1855-2.7788 0.3657-4.1831 0.5493-0.13183 1.456-0.26465 2.8589-0.41406 4.1797z" fill="#e2031a"/><path d="m734.97-8901.5c1.4043-0.1836 2.8018-0.3638 4.1831-0.5493 0.0615-1.4951 0.0981-3.0606 0.14112-4.6543-1.2608 0.25-2.5767 0.4814-3.918 0.71-0.14454 1.5302-0.27491 3.038-0.40626 4.4936z" fill="#e31d19"/><path d="m731.31-8905.3c2.7236-0.4765 5.4663-0.9023 7.9878-1.4023 0.043-1.5937 0.0923-3.2163 0.17968-4.8262-2.2803 0.6299-4.8633 1.1885-7.4156 1.8096-0.29443 1.4648-0.53906 2.9463-0.75195 4.4189z" fill="#e53d16"/><path d="m732.06-8909.7c2.5523-0.6211 5.1353-1.1797 7.4156-1.8096 0.0869-1.6093 0.21241-3.206 0.40723-4.748-2.1704 0.6885-4.4873 1.4297-6.7696 2.2393-0.41406 1.4057-0.75879 2.8535-1.0532 4.3183z" fill="#e74b14"/><path d="m738.86-8897.8c4.4292-0.4834 8.8653-0.8881 13.307-1.2212 0.10596-1.3373 0.0791-2.8813-0.0161-4.5449-4.3701 0.4263-8.7105 0.9361-13 1.5318-0.0615 1.4956-0.14795 2.9204-0.2915 4.2343z" fill="#e2001a"/><path d="m739.15-8902.1c4.2891-0.5957 8.6294-1.1055 13-1.5318-0.0957-1.6635-0.25977-3.4467-0.42774-5.2631-4.2774 0.5879-8.4502 1.2983-12.431 2.1406-0.043 1.5937-0.0796 3.1592-0.14112 4.6543z" fill="#e31619"/><path d="m752.17-8899.1c4.4424-0.3334 8.8897-0.5947 13.34-0.7905 0.0225-1.3896-0.0483-3.018-0.17969-4.7876-4.4068 0.2632-8.8062 0.607-13.176 1.0332 0.0952 1.6636 0.12207 3.2076 0.0161 4.5449z" fill="#e31619"/><path d="m752.15-8903.6c4.3701-0.4262 8.7696-0.77 13.176-1.0332-0.13184-1.7695-0.32422-3.6801-0.54444-5.6337-4.3989 0.351-8.7813 0.8159-13.06 1.4038 0.16797 1.8164 0.33203 3.5996 0.42774 5.2631z" fill="#e42918"/><path d="m739.29-8906.7c3.9805-0.8423 8.1533-1.5527 12.431-2.1406-0.16797-1.8159-0.34033-3.665-0.45313-5.4609-4.1465 0.7651-8.126 1.6865-11.798 2.7753-0.0874 1.6099-0.13671 3.2325-0.17968 4.8262z" fill="#e53517"/><path d="m739.47-8911.6c3.6719-1.0888 7.6514-2.0102 11.798-2.7753-0.11279-1.7959-0.16601-3.5386-0.0957-5.1406-3.958 0.9077-7.7637 1.9667-11.295 3.1679-0.19482 1.542-0.32031 3.1387-0.40723 4.748z" fill="#e74914"/><path d="m751.72-8908.9c4.2783-0.5879 8.6607-1.0528 13.06-1.4038-0.22021-1.9536-0.46924-3.9502-0.71338-5.8921-4.3389 0.4614-8.6524 1.0698-12.799 1.835 0.1128 1.7959 0.28516 3.645 0.45313 5.4609z" fill="#e63f16"/><path d="m751.27-8914.3c4.147-0.7652 8.4605-1.3736 12.799-1.835-0.24414-1.9414-0.48437-3.8286-0.6875-5.5625-4.1397 0.5938-8.249 1.3496-12.208 2.2569-0.0703 1.602-0.0171 3.3447 0.0957 5.1406z" fill="#e75113"/><path d="m765.51-8899.9c4.4502-0.1958 8.9043-0.3266 13.359-0.3994-0.0601-1.4414-0.16504-3.1181-0.31787-4.9394-4.3989 0.105-8.814 0.2881-13.221 0.5512 0.13135 1.7696 0.20215 3.398 0.17969 4.7876z" fill="#e53517"/><path d="m765.33-8904.6c4.4068-0.2631 8.8218-0.4462 13.221-0.5512-0.15284-1.8213-0.35401-3.7866-0.60694-5.8047-4.3438 0.1333-8.7593 0.3711-13.158 0.7222 0.22022 1.9536 0.4126 3.8642 0.54444 5.6337z" fill="#e64116"/><path d="m778.87-8900.3c4.4551-0.073 8.9112-0.086 13.367-0.049-0.0977-1.4649-0.28614-3.1514-0.55127-4.977-4.3486-0.047-8.7339-0.019-13.134 0.086 0.15283 1.8213 0.25781 3.498 0.31787 4.9394z" fill="#e74914"/><path d="m778.55-8905.2c4.3999-0.1055 8.7852-0.1333 13.134-0.086-0.26514-1.8257-0.60743-3.7911-1.0122-5.814-4.1123-0.066-8.3848-0.038-12.729 0.096 0.25293 2.0181 0.4541 3.9834 0.60694 5.8047z" fill="#e85512"/><path d="m764.78-8910.3c4.3989-0.3511 8.8145-0.5889 13.158-0.7222-0.25293-2.0185-0.55811-4.0898-0.91895-6.123-4.2495 0.1772-8.6138 0.4917-12.953 0.9531 0.24414 1.9419 0.49317 3.9385 0.71338 5.8921z" fill="#e85312"/><path d="m764.07-8916.2c4.3389-0.4614 8.7032-0.7759 12.953-0.9531-0.36133-2.0332-0.77832-4.0283-1.2544-5.8945-4.0772 0.2593-8.2461 0.6909-12.386 1.2851 0.20313 1.7339 0.44336 3.6211 0.6875 5.5625z" fill="#ea620e"/><path d="m777.94-8911c4.3438-0.1333 8.6162-0.1621 12.729-0.096-0.40479-2.0224-0.87208-4.103-1.3887-6.1591-3.877-0.087-8.0098-0.046-12.259 0.1318 0.36084 2.0332 0.66602 4.1045 0.91895 6.123z" fill="#ea650d"/><path d="m777.02-8917.1c4.249-0.1777 8.3819-0.2188 12.259-0.1318-0.51709-2.0562-1.083-4.0879-1.6836-6.0137-3.769-0.096-7.753-0.01-11.83 0.251 0.47608 1.8662 0.89307 3.8613 1.2544 5.8945z" fill="#ec7206"/><path d="m792.23-8900.3c2.1699 0.018 4.3394 0.048 6.5083 0.09-0.11914-1.4795-0.35986-3.1914-0.69727-5.0449-2.1265-0.01-4.2486-0.01-6.3623-0.022 0.26513 1.8256 0.45361 3.5121 0.55127 4.977z" fill="#e75113"/><path d="m791.68-8905.3c2.1138 0.012 4.2358 0.016 6.3623 0.022-0.3374-1.8535-0.77148-3.8486-1.2774-5.8945-2.0654 0.032-4.106 0.058-6.0972 0.059 0.40478 2.0229 0.74707 3.9883 1.0122 5.814z" fill="#e95e0f"/><path d="m798.74-8900.2c2.169 0.041 4.3374 0.095 6.5059 0.1592-0.16553-1.5107-0.44043-3.2695-0.81543-5.1704-2.1309-0.02-4.2612-0.028-6.3877-0.034 0.33741 1.8535 0.57813 3.5654 0.69727 5.0449z" fill="#e75113"/><path d="m798.05-8905.3c2.1265 0.01 4.2568 0.014 6.3877 0.034-0.37451-1.9009-0.84961-3.9438-1.416-6.0219-2.0928 0.023-4.1836 0.061-6.249 0.094 0.50587 2.0459 0.93995 4.041 1.2774 5.8945z" fill="#e95c10"/><path d="m790.67-8911.1c1.9912-5e-4 4.0318-0.027 6.0972-0.059-0.50586-2.0459-1.0835-4.1425-1.708-6.1992-1.9727 0.045-3.9097 0.086-5.7778 0.099 0.5166 2.0561 0.98389 4.1367 1.3887 6.1591z" fill="#eb6d09"/><path d="m789.28-8917.3c1.8682-0.013 3.8052-0.053 5.7778-0.099-0.62402-2.0561-1.2949-4.0722-1.9873-5.957-1.8345 0.01-3.6607 0.023-5.4741 0.042 0.60059 1.9258 1.1665 3.9575 1.6836 6.0137z" fill="#ed7a01"/><path d="m796.77-8911.2c2.0654-0.032 4.1563-0.07 6.249-0.094-0.56641-2.0782-1.2236-4.1919-1.9634-6.2344-2.0122 0.033-4.0205 0.083-5.9937 0.1289 0.62452 2.0567 1.2022 4.1533 1.708 6.1992z" fill="#eb690b"/><path d="m795.06-8917.3c1.9732-0.046 3.9815-0.096 5.9937-0.1289-0.73975-2.0429-1.561-4.0146-2.4556-5.809-1.8477-0.022-3.6904-0.025-5.5254-0.019 0.69239 1.8848 1.3633 3.9009 1.9873 5.957z" fill="#ec7405"/><path d="m805.25-8900.1c-0.33105-3.0215-1.0991-7.0361-2.2314-11.192 2.0928-0.023 4.188-0.031 6.2612-0.01 1.2461 4.2095 2.0498 8.3379 2.4746 11.422-2.168-0.085-4.336-0.1601-6.5044-0.2241z" fill="#e75113"/><path d="m811.75-8899.8c-0.42481-3.0839-1.2285-7.2123-2.4746-11.422 2.0742 0.026 4.1279 0.087 6.1367 0.2026 1.4248 4.2222 2.3711 8.3906 2.8379 11.503-2.166-0.1045-4.333-0.1992-6.5-0.2842z" fill="#e75113"/><path d="m803.02-8911.2c2.0928-0.023 4.188-0.031 6.2612-0.01-0.62207-2.105-1.3555-4.23-2.207-6.2549-1.9888-0.023-4.0049-0.01-6.0176 0.026 0.73975 2.0425 1.397 4.1562 1.9634 6.2344z" fill="#e9600f"/><path d="m801.05-8917.5c2.0127-0.033 4.0288-0.049 6.0176-0.026-0.85205-2.0249-1.8228-3.9492-2.919-5.6533-1.854-0.067-3.7066-0.1074-5.5542-0.1298 0.89453 1.7944 1.7158 3.7661 2.4556 5.809z" fill="#ea660c"/><path d="m809.28-8911.2c-1.2442-4.2095-2.9331-8.5005-5.126-11.908 1.854 0.066 3.709 0.1597 5.5606 0.2871 2.377 3.3267 4.2783 7.6021 5.7022 11.824-2.0088-0.1157-4.0625-0.1767-6.1367-0.2026z" fill="#e85612"/><path d="m818.25-8899.5c-0.4668-3.1128-1.4131-7.2812-2.8379-11.503 1.8652 0.1079 3.7539 0.2139 5.6524 0.3316 1.6045 4.1919 2.7129 8.3481 3.2168 11.485-2.0098-0.1118-4.0196-0.2168-6.0313-0.3135z" fill="#e75113"/><path d="m824.28-8899.2c-0.50391-3.1372-1.6123-7.2934-3.2168-11.485 1.8975 0.1176 3.8047 0.2466 5.7061 0.3999 1.7461 4.124 2.9483 8.2495 3.5362 11.443-2.0078-0.126-4.0166-0.2451-6.0254-0.3574z" fill="#e75113"/><path d="m815.42-8911c-1.4238-4.2216-3.3252-8.497-5.7022-11.824 1.7197 0.1187 3.4365 0.2671 5.1475 0.4517 2.498 3.2832 4.6016 7.5117 6.207 11.704-1.8984-0.1177-3.7871-0.2237-5.6524-0.3316z" fill="#e75113"/><path d="m821.07-8910.7c1.8975 0.1176 3.8047 0.2466 5.7061 0.3999-0.87305-2.062-1.8818-4.124-3.0186-6.0684-1.8174-0.207-3.6445-0.3769-5.457-0.5244 1.0391 1.9917 1.9668 4.0967 2.7695 6.1929z" fill="#e85612"/><path d="m818.3-8916.9c1.8125 0.1475 3.6397 0.3174 5.457 0.5244-1.1358-1.9448-2.3984-3.7724-3.7793-5.3662-1.6973-0.2636-3.4033-0.4843-5.1152-0.6689 1.249 1.6416 2.3994 3.5195 3.4375 5.5107z" fill="#e85811"/><path d="m830.31-8898.9c-0.58789-3.1933-1.79-7.3188-3.5362-11.443 1.9014 0.1538 3.7988 0.332 5.6768 0.5478 1.8984 4.0024 3.207 8.0434 3.8779 11.292-2.0049-0.1387-4.0108-0.2715-6.0186-0.3975z" fill="#e75113"/><path d="m836.33-8898.5c2.0049 0.1386 4.0098 0.2837 6.0127 0.4336-0.3545-1.6372-0.90821-3.4229-1.6367-5.2749-1.9473-0.1988-3.9004-0.3701-5.8545-0.5225 0.64844 1.917 1.1436 3.7397 1.4785 5.3638z" fill="#e75113"/><path d="m834.85-8903.8c1.9541 0.1524 3.9072 0.3237 5.8545 0.5225-0.72852-1.8526-1.6328-3.7715-2.6885-5.6768-1.8272-0.3047-3.6865-0.5586-5.5654-0.7744 0.94922 2.001 1.751 4.0117 2.3994 5.9287z" fill="#e95d10"/><path d="m826.77-8910.3c1.9014 0.1538 3.7988 0.332 5.6768 0.5478-0.94825-2.0009-2.044-3.9922-3.2813-5.8701-1.7832-0.2949-3.5947-0.539-5.4141-0.7461 1.1367 1.9444 2.1455 4.0064 3.0186 6.0684z" fill="#e9600f"/><path d="m823.76-8916.4c1.8193 0.2071 3.6309 0.4512 5.4141 0.7461-1.2363-1.8774-2.6152-3.6416-4.1289-5.1884-1.6777-0.3545-3.3672-0.6607-5.0645-0.9239 1.3809 1.5938 2.6436 3.4214 3.7793 5.3662z" fill="#ea660c"/><path d="m832.45-8909.8c1.8789 0.2158 3.7383 0.4697 5.5654 0.7744-1.0557-1.9052-2.2647-3.7968-3.6026-5.5927-1.707-0.4112-3.461-0.7569-5.2442-1.0518 1.2373 1.8779 2.333 3.8692 3.2813 5.8701z" fill="#eb6a0a"/><path d="m829.17-8915.6c1.7832 0.2949 3.5371 0.6406 5.2442 1.0518-1.3379-1.7964-2.8057-3.4976-4.3789-5.0225-1.6514-0.4589-3.3164-0.8628-4.9942-1.2177 1.5137 1.5468 2.8926 3.311 4.1289 5.1884z" fill="#ec7405"/><path d="m842.34-8898c-0.39551-1.8243-1.0371-3.8335-1.8936-5.9136 1.71 0.1074 3.3916 0.071 5.0557-0.038 1.0146 2.0938 1.7998 4.1567 2.2881 6.0601-1.8203 0.045-3.6387 0.028-5.4502-0.1084z" fill="#e75113"/><path d="m847.79-8897.9c-0.48828-1.9034-1.2734-3.9663-2.2881-6.0601 1.666-0.1084 3.3135-0.2895 4.9531-0.4712 1.1846 2.0679 2.1094 4.1948 2.8008 6.2715-1.8232 0.1094-3.6465 0.2153-5.4658 0.2598z" fill="#e85412"/><path d="m840.45-8904c3.419 0.2148 6.7295-0.146 10.009-0.5093-1.1846-2.0678-2.6309-4.0776-4.3643-5.9209-2.7734 0.1177-5.6104 0.2437-8.8252 0.087 1.2539 2.1113 2.3242 4.2636 3.1807 6.3437z" fill="#e9600e"/><path d="m853.26-8898.2c-0.69141-2.0767-1.6162-4.2036-2.8008-6.2715 1.6396-0.1811 3.2705-0.3633 4.9033-0.4746 1.3818 2.0342 2.4707 4.2163 3.3652 6.4668-1.8213 0.058-3.6445 0.1699-5.4678 0.2793z" fill="#e95e0f"/><path d="m858.73-8898.5c-0.89454-2.2505-1.9834-4.4326-3.3652-6.4668 1.6328-0.1113 3.2676-0.1518 4.9141-0.049 1.6123 2.0239 2.918 4.2368 3.9063 6.5659-1.8144-0.1104-3.6338-0.1074-5.4551-0.05z" fill="#eb6c09"/><path d="m850.46-8904.5c-1.1846-2.0678-2.6309-4.0776-4.3643-5.9209 1.3857-0.059 2.7559-0.1157 4.1484-0.1342 2.0635 1.6596 3.7363 3.5463 5.1192 5.5805-1.6328 0.1113-3.2637 0.2935-4.9033 0.4746z" fill="#ea670c"/><path d="m855.36-8904.9c-1.3828-2.0342-3.0557-3.9209-5.1192-5.5805 1.3936-0.018 2.8106 0 4.2891 0.097 2.2129 1.5756 4.1318 3.4111 5.7442 5.4345-1.6465-0.1025-3.2813-0.062-4.9141 0.049z" fill="#ec7107"/><path d="m837.27-8910.3c3.2149 0.1572 6.0518 0.031 8.8252-0.087-1.377-1.4638-2.8194-2.8129-4.3399-4.0102-2.3506-0.1748-4.794-0.334-7.8037-0.8037 1.2109 1.5703 2.3223 3.2226 3.3184 4.9004z" fill="#ec7107"/><path d="m833.95-8915.2c3.0098 0.4697 5.4531 0.6289 7.8037 0.8037-1.5205-1.1973-3.1192-2.2422-4.8106-3.0962-1.9932-0.6792-4.1016-1.3335-6.9072-2.1167 1.3936 1.3506 2.7031 2.8389 3.9141 4.4092z" fill="#ee7b00"/><path d="m846.09-8910.4c2.7715-0.1176 5.4795-0.227 8.4375-0.037-1.7559-1.25-3.6055-2.272-5.5137-3.0708-2.6484-0.5357-4.9112-0.7271-7.2637-0.9019 1.5205 1.1973 2.9629 2.5464 4.3399 4.0102z" fill="#ec7305"/><path d="m841.75-8914.4c2.3525 0.1748 4.6152 0.3662 7.2637 0.9019-1.9072-0.7989-3.874-1.3745-5.8633-1.7329-2.3408-0.8819-4.2178-1.586-6.211-2.2652 1.6914 0.854 3.29 1.8989 4.8106 3.0962z" fill="#ee7c00"/><path d="m726.55-8911.4c4.0684-1.9209 8.9947-3.5092 13.335-4.8862 0.37549-2.979 1.0103-5.7558 2.1314-8.0293-3.8306 1.7032-7.8711 3.6988-11.34 6.0445-1.5772 2.2167-2.9492 4.5136-4.127 6.871z" fill="#e75113"/><path d="m730.67-8918.3c3.4688-2.3457 7.5093-4.3413 11.34-6.0445 0.14502-0.2939 0.29785-0.5795 0.45947-0.8559-3.7988 1.6958-7.7559 3.6968-11.18 6.0498-0.20899 0.2807-0.41553 0.5644-0.61963 0.8506z" fill="#e75113"/><path d="m731.29-8919.1c3.4238-2.353 7.3809-4.354 11.18-6.0498 1.3467-2.3081 1.0664-5.0019 2.6738-6.7578-3.209 2.0063-6.2256 4.3945-8.9756 7.1494-1.7378 1.7402-3.3692 3.6279-4.8779 5.6582z" fill="#e75113"/><path d="m739.88-8916.3c0.42383-3.3637 1.1787-6.4702 2.5908-8.8852 3.0796-1.4741 6.3467-2.7598 9.7286-3.8501-0.89161 2.6548-0.73682 6.5034-1.0244 9.5674-3.958 0.9077-7.7637 1.9667-11.295 3.1679z" fill="#e75113"/><path d="m751.18-8919.5c0.2876-3.064 0.13281-6.9126 1.0244-9.5674 3.3823-1.0903 6.8784-1.9848 10.415-2.6753 0.2544 3.1826 0.75538 7.582 0.76807 9.9858-4.1397 0.5938-8.249 1.3496-12.208 2.2569z" fill="#e85911"/><path d="m763.38-8921.7c-6e-3 -1.2021-0.13477-2.9028-0.29346-4.7006 3.9536-0.4805 7.9424-0.7784 11.84-0.9244 0.4087 1.857 0.68213 3.4683 0.83887 4.3399-4.0772 0.2593-8.2461 0.6909-12.386 1.2851z" fill="#eb690b"/><path d="m775.77-8923c-0.15674-0.8716-0.43017-2.4829-0.83887-4.3399 3.8975-0.1459 7.7036-0.1411 11.292-0.016 0.66797 1.8487 1.1519 3.3838 1.377 4.105-3.769-0.096-7.753-0.01-11.83 0.251z" fill="#ed7802"/><path d="m763.09-8926.4c-0.15869-1.7984-0.34717-3.6939-0.47461-5.2852 3.5366-0.6904 7.1148-1.1777 10.661-1.4536 0.7002 1.855 1.2451 3.958 1.6543 5.8144-3.898 0.146-7.8867 0.4439-11.84 0.9244z" fill="#ea680b"/><path d="m774.93-8927.4c-0.40918-1.8564-0.9541-3.9594-1.6543-5.8144 3.5454-0.2759 7.0581-0.3403 10.465-0.186 0.96094 1.9746 1.813 4.1362 2.481 5.9843-3.5879-0.125-7.3941-0.1298-11.292 0.016z" fill="#ed7604"/><path d="m742.47-8925.2c1.3467-2.3081 1.0664-5.0019 2.6738-6.7578 2.4834-1.5542 5.083-2.8818 7.7661-3.9765-1.0679 1.4785 0.17676 4.4257-0.71143 6.8842-3.3818 1.0903-6.649 2.376-9.7286 3.8501z" fill="#e75113"/><path d="m752.2-8929c0.88819-2.4585-0.35645-5.4057 0.71143-6.8842 2.6826-1.0948 5.4483-1.9571 8.2647-2.5811 0.12061 0.8667 1.3174 4.0029 1.439 6.79-3.5366 0.6905-7.0327 1.585-10.415 2.6753z" fill="#e85711"/><path d="m762.62-8931.7c-0.061-1.3935-0.39062-2.8745-0.72022-4.1152 3.2012-0.7861 6.4478-1.3511 9.6807-1.6562 0.57813 1.2011 1.1343 2.7597 1.7002 4.3178-3.5459 0.2759-7.124 0.7632-10.661 1.4536z" fill="#ea620e"/><path d="m773.28-8933.2c-0.56592-1.5581-1.1221-3.1167-1.7002-4.3178 3.2334-0.3057 6.4527-0.3521 9.5987-0.1006 0.90186 1.0942 1.7715 2.5996 2.5664 4.2324-3.4068-0.1543-6.9195-0.09-10.465 0.186z" fill="#eb6d09"/><path d="m761.9-8935.8c-0.3291-1.2407-0.6582-2.2412-0.71875-2.6748 2.8164-0.6245 5.6831-1.0107 8.5674-1.1538 0.65333 0.1274 1.2539 0.9712 1.832 2.1724-3.2329 0.3051-6.4795 0.8701-9.6807 1.6562z" fill="#e95b10"/><path d="m771.58-8937.5c-0.57813-1.2012-1.1787-2.045-1.832-2.1724 2.8838-0.1431 5.7852-0.043 8.6704 0.3062 0.92383-0.011 1.8584 0.6718 2.7603 1.7656-3.146-0.2515-6.3652-0.2051-9.5987 0.1006z" fill="#ea610e"/><path d="m787.6-8923.3c1.8135-0.019 3.6397-0.036 5.4741-0.042-0.30811-0.7446-0.83936-2.1006-1.5312-3.7095-1.69 0.075-3.3994 0.1294-5.1509 0.1192 0.58106 1.6357 1.0024 2.9736 1.208 3.6323z" fill="#ee7f00"/><path d="m786.39-8926.9c1.7515 0.01 3.461-0.044 5.1509-0.1192-0.6919-1.6088-1.5444-3.4706-2.4956-5.228-1.5977 0.01-3.2022 0.01-4.8169-0.071 0.84131 1.8492 1.5811 3.7823 2.1616 5.418z" fill="#ee7d00"/><path d="m793.07-8923.3c-0.6167-1.4897-2.124-5.4233-4.0269-8.9375 1.5972-0.01 3.188-0.037 4.7754-0.023 2.0391 3.2529 3.7085 7.1137 4.7769 8.9795-1.8477-0.022-3.6904-0.025-5.5254-0.019z" fill="#ed7802"/><path d="m784.23-8932.3c1.6148 0.076 3.2192 0.081 4.8169 0.071-0.95166-1.7573-2.002-3.4086-3.0898-4.5971-1.5156-0.1304-3.0225-0.2471-4.5-0.3887 0.98829 1.3003 1.9316 3.0654 2.773 4.915z" fill="#ec7405"/><path d="m781.46-8937.2c1.4776 0.1416 2.9844 0.2583 4.5 0.3887-1.0874-1.188-2.2119-1.9126-3.311-1.8154-1.4038-0.292-2.8154-0.5235-4.231-0.6953 1.0205-0.012 2.0537 0.8222 3.042 2.122z" fill="#ea660c"/><path d="m789.05-8932.2c-1.9033-3.5141-4.2022-6.6069-6.4009-6.4125 1.4038 0.2915 2.8003 0.6435 4.1846 1.0571 2.5454-0.5659 4.9531 2.0791 6.9917 5.3325-1.5874-0.014-3.1782 0.013-4.7754 0.023z" fill="#ec7107"/><path d="m798.6-8923.3c-1.0684-1.8658-2.7378-5.7266-4.7769-8.9795 1.5879 0.014 3.1724 0.067 4.7564 0.2148 2.1987 2.9287 4.0547 6.6519 5.5747 8.8945-1.854-0.067-3.7066-0.1074-5.5542-0.1298z" fill="#eb690b"/><path d="m804.15-8923.2c1.854 0.066 3.709 0.1597 5.5606 0.2871-0.86231-1.207-1.834-2.6679-2.9019-4.1464-1.7695-0.2105-3.4927-0.3057-5.1914-0.3311 0.92872 1.5776 1.7725 3.0693 2.5327 4.1904z" fill="#e85911"/><path d="m801.62-8927.3c1.6987 0.025 3.4219 0.1206 5.1914 0.3311-1.0679-1.478-2.2315-2.9736-3.4776-4.249-1.5879-0.3941-3.1719-0.6377-4.7559-0.7862 1.0996 1.4644 2.1133 3.127 3.042 4.7041z" fill="#e95b10"/><path d="m793.82-8932.3c-2.0386-3.2534-4.4463-5.8984-6.9917-5.3325 1.3843 0.4136 2.7573 0.8882 4.1148 1.4243 2.8926-0.938 5.4341 1.1948 7.6333 4.123-1.584-0.1479-3.1685-0.2011-4.7564-0.2148z" fill="#eb690b"/><path d="m798.58-8932.1c1.584 0.1485 3.168 0.3921 4.7559 0.7862-1.2461-1.2754-2.5752-2.3311-3.9736-2.9292-1.4062-0.5772-2.8584-1.0196-4.3389-1.3682 1.272 0.7818 2.457 2.0474 3.5566 3.5112z" fill="#ea610e"/><path d="m795.02-8935.6c1.4805 0.3486 2.9326 0.791 4.3389 1.3682-1.3989-0.5982-2.8672-0.7388-4.3916-0.1856-1.3237-0.6606-2.666-1.2583-4.0239-1.7944 1.4463-0.4687 2.8047-0.1699 4.0767 0.6118z" fill="#eb6b0a"/><path d="m809.71-8922.9c1.6592 0.1143 3.3164 0.2569 4.9688 0.4327-1.0088-1.2725-2.1221-2.7012-3.3262-4.0869-1.4775-0.1695-2.9619-0.3042-4.5444-0.4922 1.0679 1.4785 2.0396 2.9394 2.9019 4.1464z" fill="#e75113"/><path d="m806.81-8927c1.5825 0.188 3.0669 0.3227 4.5444 0.4922-1.2041-1.3863-2.499-2.7295-3.8692-3.8306-1.3623-0.3003-2.7354-0.5601-4.1528-0.9106 1.2461 1.2754 2.4097 2.771 3.4776 4.249z" fill="#e85412"/><path d="m803.33-8931.3c1.4175 0.3505 2.7905 0.6103 4.1528 0.9106-1.3711-1.1011-2.8189-1.9604-4.3291-2.3794-1.2642-0.4966-2.5454-0.9472-3.7974-1.4604 1.3984 0.5981 2.7276 1.6538 3.9736 2.9292z" fill="#e95e0f"/><path d="m799.36-8934.2c1.252 0.5132 2.5332 0.9638 3.7974 1.4604-1.5103-0.4189-3.0835-0.3965-4.7061 0.2661-1.144-0.687-2.3062-1.3247-3.4829-1.9121 1.5244-0.5532 2.9927-0.4126 4.3916 0.1856z" fill="#eb6c09"/><path d="m814.68-8922.4c1.6524 0.1757 3.2998 0.3847 4.9395 0.6333-1.1553-1.3384-2.415-2.7281-3.7627-4.0122-1.5566-0.3321-3.0274-0.5381-4.503-0.708 1.2041 1.3857 2.3174 2.8144 3.3262 4.0869z" fill="#e85811"/><path d="m811.36-8926.5c1.4756 0.1699 2.9463 0.3759 4.503 0.708-1.3477-1.2842-2.7832-2.4629-4.2881-3.378-1.3721-0.5175-2.7227-0.8593-4.084-1.1606 1.3701 1.1011 2.665 2.4443 3.8692 3.8306z" fill="#e95b10"/><path d="m807.49-8930.4c1.3613 0.3013 2.7119 0.6431 4.084 1.1606-1.5049-0.915-3.0811-1.5668-4.7114-1.7968-1.1875-0.7022-2.437-1.2461-3.7017-1.7432 1.5102 0.419 2.958 1.2783 4.3291 2.3794z" fill="#ea620e"/><path d="m803.16-8932.7c1.2646 0.4971 2.5142 1.041 3.7017 1.7432-1.6294-0.23-3.3125-0.038-5.0332 0.7329-1.1045-0.7866-2.2305-1.523-3.3745-2.21 1.6226-0.6626 3.1958-0.685 4.7061-0.2661z" fill="#ec6f08"/><path d="m819.62-8921.8c1.7578 0.2666 3.5068 0.5781 5.2432 0.9418-2.6748-2.8105-5.7305-5.3867-9.041-6.8149-1.375-0.5039-2.7803-0.9624-4.2529-1.5171 3.0108 1.8301 5.7393 4.7144 8.0508 7.3902z" fill="#ea680b"/><path d="m811.57-8929.2c1.4727 0.5547 2.8779 1.0132 4.2529 1.5171-3.3115-1.4282-6.8789-1.7085-10.579 0.072-1.0913-0.9238-2.231-1.8091-3.4185-2.6528 3.4409-1.5425 6.7339-0.7666 9.7447 1.0639z" fill="#eb6e08"/><path d="m824.86-8920.9c-5.3496-5.6205-12.22-10.304-19.62-6.7431 1.0913 0.9243 2.1358 1.8867 3.1309 2.8843 7.919-4.0386 15.581-0.7769 21.659 5.1132-1.709-0.4751-3.4336-0.8906-5.1699-1.2544z" fill="#ed7802"/></g></g></g><g transform="matrix(1.3333 0 0 -1.3333 0 240.02)"><path d="M 0,120.01 H 600 V 0 H 0 Z" fill="#81197f" stroke-width="1.6619"/><path d="m552.35 68.968c-0.47772 0-0.85166 0.36736-0.85166 0.84012v21.159c0 0.46125-0.37887 0.84013-0.8467 0.84013h-18.639c-0.46618 0-0.84341-0.37888-0.84341-0.84013v-21.161c0-0.47111-0.39535-0.8401-0.85-0.8401h-24.363c-0.47771 0-0.84342-0.38218-0.84342-0.85331v-18.815c0-0.46124 0.36571-0.84011 0.84507-0.84011h24.363c0.45136 0 0.84835-0.38217 0.84835-0.84672v-24.825c0-0.46123 0.37888-0.84012 0.84506-0.84012h18.641c0.46784 0 0.84507 0.37889 0.84507 0.84012v24.825c0 0.46454 0.37064 0.84506 0.85 0.84506h22.672c0.47113 0 0.83683 0.37888 0.83683 0.84012v18.819c0 0.47111-0.3657 0.85659-0.84011 0.85659h-22.67z" fill="#fff" stroke-width="1.6473"/><g transform="matrix(1.8848,0,0,-1.8848,-4.7769,245.46)" fill="#fff"><path d="m127.29 85.46 2.69 31.4c0.02 0.183-0.11 0.373-0.324 0.373l-9.978 0.85c-0.202 0.015-0.38-0.118-0.387-0.33l-2.702-31.36c-8e-3 -0.2-0.183-0.335-0.373-0.326l-7.983 0.686c-0.182 0.016-0.357-0.124-0.365-0.33l-0.727-8.336c-0.01-0.204 0.144-0.365 0.32-0.373l27.548-2.383c0.183-0.01 0.37 0.14 0.37 0.337l0.74 8.346c8e-3 0.175-0.135 0.35-0.337 0.368l-8.174 0.702c-0.19 0.01-0.33 0.186-0.32 0.377zm-81.015 19.51c-0.38 3.702 1.247 5.806 4.833 6.326 1.843 0.248 3.366-0.263 4.623-1.545 0.138-0.152 0.408-0.247 0.592-0.23l8.233 1.197c0.202 0.018 0.28 0.2 0.202 0.367-0.826 1.717-1.803 3.026-2.87 3.97-2.954 2.508-6.89 3.394-11.764 2.68-4.513-0.636-7.98-2.392-10.334-5.302-2.352-2.91-3.187-6.497-2.602-10.642 0.62-4.257 2.393-7.46 5.38-9.58 2.97-2.14 6.726-2.876 11.2-2.217 4.457 0.643 7.72 2.42 9.852 5.347 2.142 2.923 2.91 6.658 2.276 11.115l-0.1 0.636c-0.017 0.186-0.2 0.33-0.392 0.288l-18.74-2.693c-0.19-0.04-0.376 0.094-0.388 0.285zm11.658-4.28c-0.346-2.755-1.948-4.36-4.753-4.76-2.87-0.425-4.803 0.66-5.77 3.234-0.043 0.1 7e-3 0.18 0.112 0.18l10.262 1.502c0.096 0 0.168-0.062 0.148-0.157zm11.916 15.89 2.492-36.248c0.012-0.202 0.187-0.35 0.376-0.323l8.167 0.555c0.19 0.018 0.34 0.185 0.327 0.375l-2.496 36.256c-0.02 0.198-0.17 0.346-0.384 0.332l-8.153-0.565c-0.19-0.016-0.348-0.19-0.327-0.383zm22.447-9.138c0.376 3.37 2.25 4.946 5.574 4.718 1.67-0.096 2.94-0.85 3.846-2.253 0.097-0.156 0.328-0.31 0.534-0.31l7.56-0.5c0.218-0.01 0.312 0.114 0.273 0.31-0.404 1.69-1.04 3.044-1.83 4.083-2.144 2.816-5.532 4.378-10.057 4.68-4.184 0.266-7.64-0.642-10.312-2.817-2.67-2.16-4.115-5.215-4.348-9.068-0.272-3.976 0.703-7.172 2.987-9.66 2.256-2.5 5.525-3.86 9.658-4.126 4.146-0.27 7.402 0.712 9.894 2.936 2.484 2.208 3.894 5.43 4.162 9.578l0.027 0.528c0.02 0.198-0.143 0.374-0.317 0.382l-17.33 1.152c-0.192 0-0.328 0.17-0.32 0.366zm9.672-6.13c-0.868-2.412-2.583-3.522-5.168-3.355-2.67 0.17-4.2 1.5-4.59 3.988-0.016 0.095 0.04 0.174 0.156 0.174l9.486-0.642c0.092 0 0.158-0.063 0.115-0.167zm-72.452-2.357 2.882 17.152c0.027 0.192-0.087 0.375-0.28 0.412l-8.29 1.388c-0.19 0.03-0.377-0.098-0.41-0.288l-2.877-17.13c-0.05-0.202-0.223-0.338-0.416-0.3l-2.253 0.386c-0.193 0.03-0.37-0.103-0.407-0.295l-1.138-6.738c-0.033-0.192 0.095-0.383 0.29-0.408l2.255-0.382c0.196-0.043 0.31-0.233 0.293-0.408l-1.18-6.896c-0.02-0.197 0.096-0.38 0.302-0.408l8.298-1.39c0.192-0.036 0.37 0.1 0.404 0.29l1.177 6.903c0.018 0.185 0.21 0.31 0.4 0.272l4.438-0.736c0.192-0.02 0.375 0.098 0.414 0.277l1.13 6.74c0.04 0.21-0.096 0.396-0.29 0.417l-4.45 0.76c-0.194 0.025-0.323 0.188-0.293 0.38zm133.28 7.425c0 4.188-1.447 7.635-4.35 10.313-2.864 2.715-6.37 4.03-10.536 4.03-4.203 0-7.75-1.353-10.605-4.052-2.832-2.735-4.27-6.07-4.27-10.045 0-3.045 0.782-5.78 2.367-8.167 1.572-2.393 3.763-4.19 6.512-5.302 1.792-0.72 3.74-1.085 5.844-1.085 4.335 0 7.92 1.374 10.752 4.068 2.838 2.66 4.285 6.112 4.285 10.242zm-7.305 0c0-2.104-0.777-3.87-2.24-5.343-1.463-1.484-3.26-2.187-5.34-2.187-2.047 0-3.827 0.74-5.34 2.228-1.478 1.465-2.236 3.2-2.236 5.232 0 2.1 0.734 3.945 2.197 5.4 1.467 1.48 3.27 2.226 5.38 2.226 2.12 0 3.876-0.744 5.34-2.225 1.46-1.455 2.238-3.25 2.238-5.33zm48.435-12.965c0 5.58-1.907 10.166-5.753 13.733-3.81 3.586-8.484 5.34-14.018 5.34-5.568 0-10.296-1.81-14.11-5.388-3.77-3.623-5.67-8.06-5.67-13.354 0-4.05 1.04-7.68 3.145-10.863 2.088-3.187 4.99-5.578 8.665-7.064 2.403-0.945 4.982-1.426 7.767-1.426 5.78 0 10.538 1.812 14.317 5.397 3.75 3.566 5.656 8.136 5.656 13.625zm-9.714 0c0-2.807-1-5.15-2.963-7.107-1.946-1.946-4.32-2.903-7.095-2.903-2.717 0-5.118 1.006-7.103 2.966-1.96 1.943-2.96 4.24-2.96 6.954 0 2.814 0.962 5.246 2.926 7.192 1.952 1.96 4.323 2.962 7.136 2.962 2.816 0 5.15-1.002 7.095-2.962 1.964-1.946 2.962-4.335 2.962-7.1zm36.537 26.65-13.988-21.535c-0.105-0.155-0.202-0.135-0.217 0.068l-1.75 20.01c-8e-3 0.206-0.176 0.34-0.383 0.33l-8.082-0.703c-0.21-0.016-0.346-0.194-0.328-0.387l2.876-33.158c0.018-0.192 0.19-0.35 0.383-0.31l8.1 0.682c0.2 0.018 0.432 0.185 0.55 0.338l13.99 21.544c0.09 0.155 0.195 0.13 0.207-0.066l1.745-20.013c0.02-0.192 0.183-0.338 0.376-0.328l8.115 0.705c0.197 0.013 0.325 0.184 0.31 0.39l-2.886 33.143c-0.02 0.2-0.183 0.35-0.373 0.343l-8.11-0.725c-0.2-7e-3 -0.433-0.154-0.534-0.328z"/></g></g></svg>
