<svg width="800" height="572.4" version="1.1" viewBox="0 0 800 572.4" xml:space="preserve" xmlns="http://www.w3.org/2000/svg">
<g stroke="#fff"><path class="st0" d="m159.13 357.64c-56.126-72.752 17-197.13 163.25-277.88 146.25-80.752 310.26-87.127 366.26-14.375 56.126 72.752-17 197.13-163.25 277.88-146.25 80.752-310.26 87.127-366.26 14.375z" fill="none" stroke-miterlimit="1" stroke-width="29.485"/><path class="st1" d="m515.01 204.14s66.626-4.6251 63.876-57.626c-2.375-45.751-88.627-42.876-88.627-42.876h-156.63l-52.751 217.63h144.13s153.13 2.125 139.75-78.252c-4.7501-28.626-49.751-38.876-49.751-38.876zm-53.626 42.501c-2.8751 32.626-67.376 24.251-67.376 24.251l12.375-49.626c0-0.125 58.001-9.7502 55.001 25.376zm-47.501-60.501 10.625-40.626 18.375-0.125c15.25-0.125 34.626 2.7501 34.626 18 0 31.626-63.626 22.75-63.626 22.75z" fill="#fff" stroke-width="1.25"/></g><g fill="#fff"><path class="st2" d="m332.01 493.77c3.0001-13.875-6.1251-18.875-17.125-18.875h-56.251l-15.875 75.002h53.501c22.626 0 30.001-12.75 32.126-22.625 1.75-8.1252-1.125-16.75-9.5002-18.125v-0.25c7.5002-2.3751 12-9.3752 13.125-15.125zm-25.251 33.001c-1 4.7501-4.2501 8.8752-10.625 8.8752h-30.001l3.7501-17.875h27.876c7.2502-0.125 10.25 3.1251 9.0002 9.0002zm3.7501-30.126c-1.125 5.6251-4.6251 8.1252-9.3752 8.1252h-28.376l3.3751-16.125h25.501c8.5002-0.125 9.8752 3.2501 8.8752 8.0002z" clip-rule="evenodd" fill-rule="evenodd" stroke-width="1.25"/><path class="st2" d="m332.51 549.77h18.5l12-56.251h-18.5zm13.375-63.126h18.5l2.7501-13h-18.5z" clip-rule="evenodd" fill-rule="evenodd" stroke-width="1.25"/><path class="st2" d="m407.26 491.4c-22.25 0-39.126 9.0002-43.626 30.251-4.5001 21.25 8.5002 30.251 30.751 30.251 16.875 0 30.876-5.6251 39.126-18.875h-19.75c-3.6251 4.8751-9.3752 7.3752-16.875 7.3752-12.625 0-16.375-8.2502-15.125-13.5v-0.25h54.126l0.37501-1.625c4.5001-21.25-4.6251-33.626-29.001-33.626zm11.875 24.126v0.25001h-35.126v-0.25001c0.25-1.375 5.7501-12.5 20.25-12.5 13.75 0 15.625 9.3752 14.875 12.5z" clip-rule="evenodd" fill-rule="evenodd" stroke-width="1.25"/><polygon transform="matrix(1.25 0 0 1.25 -22.75 -43.491)" points="383.1 474.6 396.1 413.7 381.3 413.7 368.4 474.6"/><path class="st2" d="m466.01 549.77h18.5l12-56.251h-18.5zm13.5-63.126h18.5l2.7501-13h-18.5z" clip-rule="evenodd" fill-rule="evenodd" stroke-width="1.25"/><path d="m541.14 549.77h18.5l8.0002-37.501c3.5001-16.625-10.25-20.25-19.875-20.25-10.875 0-20.625 4.8751-25.001 9.6252h-0.25001l1.75-8.2502h-17.875l-12 56.251h18.5l5.7501-27.251c2.5-12 10.75-16.25 19.375-16.25 8.2502 0 11.625 3.7501 9.8752 11.5z" stroke-width="1.25"/><path class="st2" d="m633.89 493.52-1.5 6.8752h-0.125c-3.5001-6.0001-11.5-8.2502-19.625-8.2502-23.501 0-36.251 12.75-39.501 28.126-3.1251 14.5 4.0001 28.126 26.001 28.126 9.3752 0 17.75-2.375 24.251-8.2502l-1 4.5001c-2.8751 13.625-11.25 16.125-20.375 16.125-10.75 0-13.75-2.375-14-7.0002h-19.75c-1.75 17 16.75 18.625 30.626 18.625 23.501 0 37.751-7.5002 41.876-26.876l11-51.751h-17.875zm-6.3751 27.001c-2.7501 12.875-12.875 15.375-21 15.375-8.1252 0-17.125-2.5001-14.375-15.375s12.875-15.375 20.875-15.375c8.2502 0 17.25 2.5001 14.5 15.375z" clip-rule="evenodd" fill-rule="evenodd" stroke-width="1.25"/><path d="m695.77 549.77h17.875l12-56.251h-18.5l-6.0001 28.126c-2.25 10.375-9.0002 16-19 16-8.5002 0-11.75-3.7501-10.125-11.5l6.8752-32.501h-18.5l-8.1252 38.126c-3.5001 16.625 10.25 20.25 19.875 20.25 10.875 0 20.625-4.8751 25.001-9.6252h0.25001z" stroke-width="1.25"/><path class="st2" d="m769.89 491.4c-22.25 0-39.126 9.0002-43.626 30.251-4.5001 21.25 8.5002 30.251 30.751 30.251 16.875 0 30.876-5.6251 39.126-18.875h-19.75c-3.6251 4.8751-9.3752 7.3752-16.875 7.3752-12.625 0-16.375-8.2502-15.125-13.5v-0.25h54.126l0.37501-1.625c4.5001-21.25-4.6251-33.626-29.001-33.626zm11.875 24.126v0.25001h-35.126v-0.25001c0.25-1.375 5.7501-12.5 20.25-12.5 13.625 0 15.5 9.3752 14.875 12.5z" clip-rule="evenodd" fill-rule="evenodd" stroke-width="1.25"/><polygon transform="matrix(1.25 0 0 1.25 -22.75 -43.491)" points="20.6 414.7 18.2 426.1 40.4 426.1 30.1 474.6 46.4 474.6 56.7 426.1 79 426.1 81.4 414.7"/><path class="st2" d="m103.25 491.4c-22.25 0-39.126 9.0002-43.626 30.251-4.5001 21.25 8.5002 30.251 30.751 30.251 16.875 0 30.876-5.6251 39.126-18.875h-19.75c-3.6251 4.8751-9.3752 7.3752-16.875 7.3752-12.625 0-16.375-8.2502-15.125-13.5v-0.25h54.126l0.37501-1.625c4.5001-21.25-4.6251-33.626-29.001-33.626zm11.875 24.126v0.25001h-35.001v-0.25001c0.25-1.375 5.7501-12.5 20.25-12.5 13.625 0 15.5 9.3752 14.75 12.5z" clip-rule="evenodd" fill-rule="evenodd" stroke-width="1.25"/><polygon transform="matrix(1.25 0 0 1.25 -22.75 -43.491)" points="139.9 474.6 152.9 413.7 138.1 413.7 125.2 474.6"/><path class="st2" d="m208.5 491.4c-22.25 0-39.126 9.0002-43.626 30.251-4.5001 21.25 8.5002 30.251 30.751 30.251 16.875 0 30.876-5.6251 39.126-18.875h-19.75c-3.6251 4.8751-9.3752 7.3752-16.875 7.3752-12.625 0-16.375-8.2502-15.125-13.5v-0.25h54.126l0.37501-1.625c4.5001-21.25-4.6251-33.626-29.001-33.626zm11.875 24.126v0.25001h-35.126v-0.25001c0.25001-1.375 5.7501-12.5 20.25-12.5 13.625 0 15.5 9.3752 14.875 12.5z" clip-rule="evenodd" fill-rule="evenodd" stroke-width="1.25"/></g>
</svg>
