<svg width="600pt" height="350.45pt" version="1.1" viewBox="0 0 600 350.45" xmlns="http://www.w3.org/2000/svg" xmlns:xlink="http://www.w3.org/1999/xlink">
 <defs>
  <linearGradient id="a">
   <stop stop-color="#6d111e" offset="0"/>
   <stop stop-color="#940c1d" offset=".35272"/>
   <stop stop-color="#dd041c" offset="1"/>
  </linearGradient>
  <linearGradient id="c" x1="-2e-6" x2="282.58" y1="228.98" y2="228.98" gradientUnits="userSpaceOnUse" xlink:href="#a"/>
  <linearGradient id="b" x1="95.141" x2="377.91" y1="72.949" y2="72.949" gradientUnits="userSpaceOnUse" xlink:href="#a"/>
 </defs>
 <path d="m144.32 30.699c38.031-31.145 92.551-38.536 138.51-22.427 33.198 11.403 61.943 35.725 77.705 67.218 11.213 21.7 16.425 46.117 17.373 70.408h-95.204c-1.7689-59.921-72.24-104.68-127.45-82.127-28.713 11.182-47.602 37.589-60.111 64.628 2.9692-37.241 19.71-74.135 49.181-97.699z" fill="url(#b)" stroke-width="3.1587"/>
 <path d="m-2e-6 156.13h95.172c1.7689 58.815 69.871 103.1 124.64 83.011 30.039-10.582 50.224-37.747 62.764-65.859-2.6218 38.126-20.469 75.683-50.887 99.374-56.92 45.17-148.05 36.989-195.46-18.289-23.912-26.754-35.251-62.764-36.231-98.236z" fill="url(#c)" stroke-width="3.1587"/>
 <g transform="matrix(3.1587 0 0 3.1587 -120.03 -98.019)" fill="#2075ab">
  <path d="m139.69 87.12 5.805 0.04v11.915h16.335l12.74 36.125 13.51-36.125h6.09l-16.15 41.85h-6.9l-13.97-37.425h-11.655v27.48c-0.06 2.21 0.715 4.73 2.815 5.82 2.75 1.4 6 0.43 8.84-0.12v4.37c-4.25 0.84-8.87 1.66-12.96-0.19-3.62-1.79-4.45-6.2-4.5-9.85v-27.51h-9.05l0.04-4.425h9.01z"/>
  <path d="m218.94 98.94c2.75-1.53 5.98-1.34 9.01-1.15v11.06c-3.66-0.62-7.89-1.37-11.02 1.17-3.18 2.68-3.895 7.15-4.175 11.07v19.975h-12.21v-42.43h10.805l-0.07 9.365c1.53-3.71 3.89-7.33 7.66-9.06z"/>
 </g>
</svg>
