<svg width="423.33mm" height="211.67mm" version="1.1" viewBox="0 0 423.33 211.67" xmlns="http://www.w3.org/2000/svg">
 <link href="" rel="stylesheet" type="text/css"/>
 <g transform="translate(.011396 .018525)">
  <g transform="translate(-64.765,27.21)">
   <g transform="matrix(3.213,0,0,3.213,-143.33,-408.21)" fill-rule="evenodd">
    <path d="m65.336 142.08 23.362-23.505 23.295 23.806-15.743 15.487-0.12799-31.358-12.483 6.3543 0.12799 8.4475 4.7357-2.6878-0.15999 26.686z" fill="#b41e27"/>
    <path transform="scale(.26458)" d="m335.24 448.17-40.191 40.436c7.047 3.4151 15.216 7.4282 24.293 11.93l43.955-22.373 0.18164 44.447c17.875 8.9978 34.927 17.635 49.93 25.25l9.875-9.7129z" fill="#d21e29"/>
   </g>
  </g>
  <g transform="translate(-64.765,27.21)">
   <g transform="matrix(3.213,0,0,3.213,-154.46,-460.85)" fill="#b51d28">
    <rect x="72.494" y="186.09" width="1.8101" height="2.0363"/>
    <rect x="84.033" y="186.09" width="1.8101" height="2.0363"/>
    <rect x="69.733" y="186.09" width="1.8101" height="2.0363"/>
    <rect x="80.187" y="198.8" width="1.8101" height="2.0363"/>
    <rect x="77.426" y="198.8" width="1.8101" height="2.0363"/>
    <g transform="matrix(.38101 0 0 .38101 -34.654 -52.975)" font-size="48px" letter-spacing="0px" stroke-width="1px" text-align="center" word-spacing="0px" style="font-feature-settings:normal;font-variant-caps:normal;font-variant-ligatures:normal;font-variant-numeric:normal" aria-label="الوطنية">
     <path d="m395.47 656.25h-5.8125v-28.406h5.8125z"/>
     <path d="m374.38 650.49h4.3828v-22.641h5.7891v25.289q0.0703 0.63282-0.14062 1.2188-0.21094 0.5625-0.60938 1.0078-0.39843 0.42187-0.96093 0.67968-0.5625 0.25782-1.1953 0.25782h-7.2656z"/>
     <path d="m330.44 638.72q0.98437-1.2422 2.625-2.0156 1.6641-0.79688 3.7266-0.79688l8.9766 0.0937q0.58594 0 1.1016 0.23438 0.53907 0.23437 0.9375 0.63281 0.39844 0.375 0.60938 0.91406 0.23437 0.51563 0.23437 1.1016v14.297q0 0.63281-0.21093 1.2188-0.1875 0.5625-0.5625 0.98437-0.375 0.42188-0.91407 0.67969-0.53906 0.23438-1.1953 0.23438h-25.008v-5.8125h3.8906v-22.641h5.7891zm6.2344 2.9766q-1.1719 0-2.2734 0.30469-1.1016 0.30469-1.9688 0.91406-0.84375 0.60938-1.3828 1.5234-0.53906 0.89063-0.60937 2.1094v3.9375h12.398v-8.7188q-3.1641-0.0469-4.6172-0.0469-1.4531-0.0234-1.5469-0.0234z"/>
     <path d="m311.19 650.49v-13.828h5.7891v13.734h4.1719v5.8359l-14.555 0.0703v-5.8125z"/>
     <path d="m297.25 650.49v-13.828h5.7891v13.828h4.1719v5.8125h-14.555v-5.8125z"/>
     <path d="m293.38 656.3h-6.7969c-0.45312 0-0.85937-0.0781-1.2188-0.23438-0.35937-0.17187-0.66406-0.39844-0.91406-0.67969s-0.44531-0.60937-0.58594-0.98437c-0.125-0.375-0.1875-0.77344-0.1875-1.1953l-0.0469-11.484h-1.9453c-0.625-0.0156-1.2656-0.0234-1.9219-0.0234-0.51563 0-1.0078 0.10938-1.4766 0.32813-0.45313 0.20313-0.85938 0.48438-1.2188 0.84375-0.34375 0.34375-0.61719 0.75-0.82031 1.2188-0.20313 0.46875-0.30469 0.96093-0.30469 1.4766l0.0234 4.875c0.28125 0.0469 0.64843 0.10155 1.1016 0.16406 0.46875 0.0625 8.1677 0.11716 8.6521 0.16407 3.8486-1.1632 7.5787 5.8606 3.5995 5.547-6.1627 0.13376-14.473 0.3204-18.929 0.0838-0.65444-4.412-0.23634-7.7952-0.23634-10.834 0-1.3281 0.25-2.5781 0.75-3.75s1.1797-2.1953 2.0391-3.0703c0.875-0.875 1.8984-1.5625 3.0703-2.0625 4.2724-1.392 8.7664-0.46217 13.396-0.74994 0 0 0.0472 10.705 0.0567 14.555h3.9141z"/>
     <path d="m370.47 656.3s0.21651 3.7786-1.2027 5.57c-1.7287 4.3814-9.8969 3.1625-9.8969 3.1625v-5.8125s3.5312 0.14852 4.7968-0.74211c1.2812-0.89062 0.46691-2.2013 0.46691-2.2013-4.1709 0.26301-12.804 0.0485-12.804 0.0485s-0.18119-6.6267-0.0156-11.763c0.0877-2.7206 0.87775-4.8188 1.4918-5.5287 1.763-2.0383 4.7553-3.1279 8.0932-3.1239s6.1778 1.224 7.6573 2.9587c1.705 2.0248 2.2078 6.4982 2.2098 9.2054 0 0.40625-8e-3 0.8125-0.0234 1.2188 0 0.39063-8e-3 0.78907-0.0234 1.1953h3.6094v5.8125zm-5.9283-14.003c-1.1993-0.96061-6.0254-1.1232-6.6093 0.0987-0.77892 1.6299-0.20775 8.383-0.20775 8.383l7.3361 0.0624c0.11298-2.416-0.0166-6.8302-0.51901-8.5441z"/>
    </g>
   </g>
  </g>
 </g>
 <g transform="matrix(.56036 0 0 .56036 -375.3 -6.4536)" fill="#163c6c">
  <g transform="matrix(.82362 0 0 1 859.05 0)">
   <path d="m575.8 240.64h11.69l1.19 28.705 18.24-28.705h17.48l-36.44 55.62h-13.36l-2.2-27.225-19.43 27.225h-13.38l-0.78-55.62h17.58l-0.81 28.705z"/>
   <path d="m627.54 255.64c4.33-9.29 14.63-14.14 24.41-15.12 8.81-0.66 19.12-0.45 25.65 6.44l-13.33 8.54c-3.82-3.49-9.32-3.57-14.16-3.04-3.14 0.46-6.56 2.25-7.42 5.53-0.11 1.7 1.64 2.8 3.09 3.16 6.72 1.45 14.41 0.52 20.19 4.9 3.45 2.73 3.64 7.62 2.44 11.54-1.59 7.02-7.26 12.35-13.66 15.19-8.62 4.07-18.5 4.45-27.81 3.21-5.15-0.69-10.27-2.77-13.69-6.81l13.51-8.66c4.74 3.93 11.37 4.16 17.23 3.62 3.7-0.32 8.32-2.59 7.88-6.97-1.19-2.53-4.45-2.25-6.78-2.68-5.9-0.76-12.74-0.81-17.18-5.36-3.41-3.71-2.25-9.33-0.37-13.49z"/>
   <path d="m395.85 296.26 18.06-55.62h14.34l12.35 27.465 9.15-27.465h16.64l-18.18 55.62h-14.33l-12.57-27.395-8.74 27.395z"/>
   <path d="m484.1 240.64h45.7l-3.97 12.22h-28.98l-2.99 9.24h24.68l-3.75 12.175h-24.78l-3.29 9.58h29.01l-3.91 12.405h-45.6z"/>
  </g>
  <g transform="matrix(.74556 0 0 .74556 889.57 31.623)">
   <path d="m169.3 99.63c16.01-3.57 32.73-2.78 48.72 0.43 20.84 4.87 40.69 13.03 60.72 20.42 9.38 3.72 19.14 6.7 29.22 7.68 12.8 1.04 25.98-4.05 34.6-13.61 4.48-4.46 7.4801-9.7959 10.86-15.29-0.85 14.11-6.72 28.33-17.52 37.7-11.29 9.41-26.44 12.94-40.89 12.54-11.64 0.07-22.97-3.11-33.91-6.78-19.07-6.28-37.87-14.49-58.12-15.99-19.66-1.16-39.76 4.78-55.35 16.9-18.78 14.5-31.08 37.53-31.56 61.37-0.73 14.64 2.89 29.6 11.04 41.86 10.71 16.79 29.01 28.47 48.7 31.27 9.73 1 19.83 0.99 29.16-2.29 15.21-4.91 28.36-16.17 35.16-30.68 7.32-14.53 7.81-32.14 1.99-47.27-7.53-23.15-32.68-38.44-56.7-35.24-16.65 1.77-31.85 12.78-39.11 27.8-5.79 11.39-7.55 25-3.8 37.3 3.87 13.86 14.38 25.44 27.4 31.37 5.19 2.62 10.87 3.6082 16.52 5-25.26 1.06-49.37-18.38-54.21-43.14-3.34-13.23-1.19-27.37 4.16-39.76 8.59-19.7 27.47-34.29 48.49-38.36 12.78-2.07 26.16-1.51 38.44 2.78 20.15 6.54 36.98 21.88 46.28 40.8 6.96 13.73 8.69 29.69 6.5 44.81-2.72 20.7-12.95 40.37-28.44 54.39-14.54 13.6-33.8 22.02-53.64 23.54-18.9 1.61-38.24-2.27-55.02-11.15-19.93-10.6-36.37-27.89-45.31-48.68-17-38.41-7.89-86.4 21.02-116.64 14.74-15.71 33.69-27.65 54.6-33.08z"/>
   <path d="m396.23 162.19c7.58 0.05 15.42-0.65 22.75 1.68 5.82 2.26 8.2 9.46 5.91 15.06-0.66312 1.5874-2.548 1.435-3.84 1.435h-29.59z"/>
   <path d="m672.54 161.74c8.35-0.04 19.298-0.92 26.418 4.35 2.44 1.68 4.3267 4.4144 3.52 7.63l-3.76 15.66h19.73c-0.72 4.96-2.82 10.07-6.84 13.22-5 4.53-11.93 5.3498-18.36 6.1298l-10 37.625 19.85 0.11c-1.4 5.39-4.37 10.525-9.47 13.155-7.003 3.3898-14.789 4.3818-22.526 4.2869-2.6482-0.0325-5.6318 6e-3 -7.8943-0.4269-4.34-0.85-9.3-1.87-12.06-5.66-2.51-3.11-2.02-7.44-1.37-11.11l10.24-38.48-16.08-0.01 5.04-18.84h16.36z"/>
   <path d="m295.33 173.17c7.92-0.1 16.75-0.03 23.17 5.33 3.36 2.71 4.52 6.7598 4.99 10.88h52.46c0.36 6.86-1.82 13.86-7.09 18.48-3.83 3.17-8.89 4.7898-13.82 4.8598h-28.83l-13.67 51.08h-33.25l15.92-58.73c1.74-7.28 4.4-14.52 4.21-22.1 0.04-3.7-1.97-6.94-4.09-9.8z"/>
   <path d="m388.91 189.38h32.76l-9.13 35.36c-2.13 6.93-3.38 14.11-5.9 20.92-3.21 7.9-10.23 14.14-18.43 16.47-6.16 2.28-12.81 1.73-19.24 1.66z"/>
   <path d="m442.88 193.89c6.97-2.94 14.56-4.395 22.12-4.265h43.02c7.5173 0 17.41 2.915 22.3 10.055 1.091 1.5552 1.4486 3.2505 1.4061 4.9853 0 3.6136-2.9687 13.478-5.0824 19.224-1.0903 2.9015-2.5972 5.5747-5.0837 7.6512-6.76 5.74-16.02 6.975-24.54 7.675h-43.73l-2.13 7.195 69.84-2.4e-4c-1.08 6.98-8.03 10.27-13.8 12.79-7.37 2.86-15.23 4.92-23.2 4.67-14.68-0.13-29.36 0.19-44.03-0.16-6.76-0.84-14.14-2.54-18.96-7.73-2.04-2.7-4.1-6.27-2.85-9.72l9.62-36.23c2.04-7.46 8.21-13.08 15.1-16.14m18.56 14.585-3.45 12.635h36.19l3.64-12.635z"/>
   <path d="m547.42 189.49c8.95-0.87 18.635 1.2 25.575 7.13 13.83-7.44 30.3-8.79 45.46-5.26 6.38 1.72 13.14 4.72 16.57 10.71 2.86 5.05 0.55 10.85-0.87 15.96l-12.24 45.82c-7.45 0.1-15.22-0.32-21.97-3.77-4.9-2.63-7.56-8.51-6.44-13.94l9.63-37.665h-27.39l-14.76 55.375h-33.23z"/>
  </g>
 </g>
</svg>
