<svg width="1177.8" height="654.86" version="1.1" viewBox="0 0 1177.8 654.86" xml:space="preserve" xmlns="http://www.w3.org/2000/svg"><g transform="matrix(2.2708 0 0 2.2708 -283.23 629.07)" fill="#00b2bb"><g transform="matrix(.77941 0 0 .77941 64.211 -18.47)"><path d="m579.08-331.73v87h19.129v-37.666h31.623v37.666h19.127v-87h-19.127v34.289h-31.623v-34.289z" stroke-width="4.6984"/><path d="m666.08-331.73h37.533c22.544 0 39.478 14.134 39.478 43.011 0 25.222-12.917 43.989-39.478 43.989h-37.533zm19.133 70.921h17.061c11.084 0 21.689-6.8271 21.689-26.077 0-17.549-6.0941-28.76-25.105-28.76h-13.645z" stroke-width="4.6986"/></g><path d="m386.18-201.74c-12.647 0-22.919 10.27-22.919 22.917 0 12.674 10.272 22.917 22.919 22.917h49.252v26.357h-49.252c-27.166 0-49.274-22.108-49.274-49.274 0-27.152 22.108-49.246 49.274-49.246h72.161v-45.835h-72.161c-52.426 0-95.095 42.654-95.095 95.08s42.669 95.095 95.095 95.095h95.078l1e-4 -118.01h-95.078z"/></g><g transform="matrix(7.9497 0 0 7.9497 -1529.3 -479.99)" fill="#010101"><path d="m206.56 140.21c-1.426 1.841-3.293 2.541-5.083 2.541-5.731 0-9.103-4.278-9.103-9.621 0-5.498 3.371-9.777 9.103-9.777 3.787 0 7.365 2.334 7.807 6.536h-3.891c-0.467-2.049-1.997-3.112-3.916-3.112-3.656 0-5.031 3.112-5.031 6.354 0 3.086 1.375 6.198 5.031 6.198 2.646 0 4.176-1.427 4.409-3.994h-4.098v-3.034h7.78v10.011h-2.594z"/><path d="m217.4 123.8h4.176l6.924 18.517h-4.227l-1.4-4.123h-6.925l-1.452 4.123h-4.123zm-0.388 11.36h4.798l-2.334-6.795h-0.052z"/><path d="m229.59 123.8h4.071v15.094h9.025v3.423h-13.097v-18.517z"/><path d="m244.45 123.8h4.071v18.517h-4.071z"/><path d="m263.93 130.02c-0.26-1.841-2.023-3.241-4.046-3.241-3.656 0-5.031 3.112-5.031 6.354 0 3.086 1.375 6.198 5.031 6.198 2.489 0 3.89-1.712 4.201-4.149h3.942c-0.415 4.616-3.605 7.572-8.144 7.572-5.731 0-9.103-4.278-9.103-9.621 0-5.498 3.371-9.777 9.103-9.777 4.071 0 7.495 2.387 7.987 6.665h-3.94z"/><path d="m270.28 123.8h4.071v18.517h-4.071z"/><path d="m282.47 123.8h4.176l6.924 18.517h-4.227l-1.4-4.123h-6.925l-1.452 4.123h-4.124zm-0.389 11.36h4.798l-2.334-6.795h-0.052z"/></g></svg>
