<svg width="1657.4" height="760.45" version="1.1" viewBox="0 0 1657.4 760.45" xml:space="preserve" xmlns="http://www.w3.org/2000/svg">
<g transform="translate(3.36e-5 5.5916)" fill="#c2ad6f" stroke-width="13.272"><path d="m-3.36e-5 750.42h91.576v-50.433h90.248v-90.248h-90.248v-51.76h-91.576"/><path d="m-3.36e-5 354.92h181.82v-164.57h-91.576v74.322h-90.248"/><path d="m-3.36e-5 544.7h181.82v-173.86h-61.05v83.613h-14.599v-83.613h-29.198v82.285h-14.599v-82.285h-61.05"/><path d="m76.977 82.843h-14.599v-82.285h-61.05v173.86h181.82v-173.86h-61.05v82.285h-14.599v-82.285h-29.198"/></g><g transform="translate(3.36e-5 5.5916)"><g transform="matrix(13.272 0 0 13.272 200.62 -3.744e-6)" fill="#c2ad6f">
		<path d="m1.1 0v32.4h22.8v-13.3h18.8v-19.1"/>
		<path d="m31 54.9c11.9-5.2 17.4-19.1 12.2-31l-43.2 18.8c5.2 12 19.1 17.4 31 12.2"/>
	</g></g>
<g transform="translate(3.36e-5 5.5916)" fill="#c2ad6f" stroke-width="28.787"><path d="m871.65-5.5775v377.66h97.402v-140.12h143.67v140.12h97.402v-377.66h-97.402v140.15h-143.67v-140.15z"/><path d="m1280.7-5.5775v377.66h108.86c60.056 0 105.08-4.0348 135.11-12.13 30.028-8.2634 55.755-22.165 77.205-41.727 18.767-17.033 32.708-36.698 41.825-58.959 9.1153-22.429 13.679-47.891 13.679-76.393 0-28.163-4.5607-53.354-13.679-75.616-9.1161-22.26-23.058-41.926-41.825-58.959-21.27-19.562-46.82-33.396-76.669-41.491-29.671-8.2634-74.876-12.4-135.65-12.4zm103.2 92.157c96.584-2.784 165.86-7.616 167.05 96.308 0 37.608-11.175 66.291-33.517 86.022-47.324 20.548-84.12 11.063-133.53 11.063z"/></g></svg>
