<svg width="1218.9" height="760.46" version="1.1" viewBox="0 0 1218.9 760.46" xml:space="preserve" xmlns="http://www.w3.org/2000/svg">
<g transform="matrix(1.0074 0 0 1.0074 .0040635 7.4273e-5)" fill="#c2ad6f" stroke-width="13.272"><path d="m-3.36e-5 750.42h91.576v-50.433h90.248v-90.248h-90.248v-51.76h-91.576"/><path d="m-3.36e-5 354.92h181.82v-164.57h-91.576v74.322h-90.248"/><path d="m-3.36e-5 544.7h181.82v-173.86h-61.05v83.613h-14.599v-83.613h-29.198v82.285h-14.599v-82.285h-61.05"/><path d="m76.977 82.843h-14.599v-82.285h-61.05v173.86h181.82v-173.86h-61.05v82.285h-14.599v-82.285h-29.198"/></g><g transform="matrix(1.0074 0 0 1.0074 .0040635 7.4273e-5)"><g transform="matrix(13.272,0,0,13.272,200.62,-3.744e-6)" fill="#c2ad6f"><path d="m1.1 0v32.4h22.8v-13.3h18.8l-1.2e-5 -19.1"/><path d="m31 54.9c11.9-5.2 17.4-19.1 12.2-31l-43.2 18.8c5.2 12 19.1 17.4 31 12.2"/></g></g><g transform="matrix(.37652 0 0 .37652 747.1 -33.513)" fill="#c2ad6f"><path transform="scale(.75)" d="m297.42 118.67v648.24h159.16v-254.89h264.34v254.89h159.16v-648.24h-159.16v240.49h-264.34v-240.49z" stroke-width="1.3333"/><path d="m995.02 89.005c128.42 0 257.99 71.719 257.99 243.09 0 147.07-108.21 243.09-257.99 243.09h-222.96v-486.18zm-103.59 114.62v256.94h104.55c88.01 0 137.69-44.353 137.69-128.47 0-84.353-58.196-128.47-137.69-128.47z"/></g></svg>
