<svg width="520.92" height="329.46" version="1.1" viewBox="0 0 520.92 329.46" xml:space="preserve" xmlns="http://www.w3.org/2000/svg"><defs><clipPath id="clipPath1270"><path d="m352.8 756.83h20.268v14.173h-20.268z"/></clipPath></defs><g transform="matrix(1.3333 0 0 -1.3333 -.00022928 329.46)"><g transform="matrix(33.421 0 0 33.421 -11833 -25414)"><g clip-path="url(#clipPath1270)"><g transform="matrix(.037157 0 0 -.037121 376.19 753.36)"><g transform="translate(-557.69 -212.71)"><path d="m0 0c0 4.441-3.408 7.023-9.193 7.023h-10.948v-14.15h10.845c6.094 0 9.296 2.789 9.296 7.024zm-20.141-34.291h9.193c5.577 0 8.675 2.375 8.675 6.713v0.103c0 4.442-3.304 6.714-8.985 6.714h-8.883zm25.512 19.211c5.99-2.686 10.742-7.644 10.742-15.906v-0.413c0-5.165-1.756-9.09-4.752-11.982-4.234-4.338-10.948-6.404-19.624-6.404h-29.953v72.301h30.057c17.042 0 26.751-7.643 26.751-20.037v-0.414c0-9.502-5.475-14.253-13.221-17.145" fill="#de1d25"/></g></g><g transform="matrix(.037157 0 0 -.037121 376.19 753.36)"><g transform="translate(-491.18 -218.08)"><path d="m0 0 6.714-21.174 6.712 21.174zm-2.48-44.827-25.408 72.714h19.108l4.131-13.014h22.724l4.234 13.014h19.522l-25.512-72.714z" fill="#de1d25"/></g></g><g transform="matrix(.037157 0 0 -.037121 376.19 753.36)"><g transform="translate(-385.89 -236.78)"><path d="m0 0c0 5.784-3.718 9.399-10.019 9.399h-9.192v-18.901h9.089c6.197 0 10.122 3.098 10.122 9.295zm18.695-0.93v-0.516c0-7.334-2.272-12.911-6.301-16.939-4.647-4.752-11.981-7.334-21.69-7.334h-28.403v72.301h18.488v-22.413h6.61l12.291 22.413h20.967l-14.873-26.235c7.644-3.821 12.911-10.535 12.911-21.277" fill="#de1d25"/></g></g><g transform="matrix(.037157 0 0 -.037121 376.19 753.36)"><g transform="translate(-299.58 -226.14)"><path d="m0 0-24.066-36.357h-17.455v72.301h18.281v-37.906l24.996 37.906h16.525v-72.301h-18.281z" fill="#de1d25"/></g></g><g transform="matrix(.037157 0 0 -.037121 376.19 753.36)"><g transform="translate(-506.85 -254.38)"><path d="m0 0c0-4.592-3.737-8.324-8.429-8.324-4.588 0-8.324 3.732-8.324 8.324 0 4.692 3.736 8.429 8.324 8.429 4.692 0 8.429-3.737 8.429-8.429" fill="#de1d25"/></g></g><g transform="matrix(.037157 0 0 -.037121 376.19 753.36)"><g transform="translate(-453.68 -262.71)"><path d="m0 0c-4.588 0-8.324 3.732-8.324 8.324 0 4.692 3.736 8.429 8.324 8.429 4.692 0 8.429-3.737 8.429-8.429 0-4.592-3.737-8.324-8.429-8.324" fill="#de1d25"/></g></g><g transform="matrix(.037157 0 0 -.037121 376.19 753.36)"><g transform="translate(-300.58 -299.02)"><path d="m0 0h-50.198v-72.301h49.785v16.319h-31.4v11.878h28.301v15.39h-28.301v12.394h31.813zm-72.109 0h-46.995v-72.301h18.592v55.568h28.403zm-75.436 0h-50.197v-72.301h49.784v16.319h-31.4v11.878h28.301v15.39h-28.301v12.394h31.813zm-75.401-55.569h-17.868v55.569h-18.592v-55.569h-17.869v-16.732h54.329zm234.23-34.77h-298.6c-4.4 0-8 3.6-8 8v92.416c0 4.4 3.6 8 8 8h298.6c4.4 0 8-3.6 8-8v-92.416c0-4.4-3.6-8-8-8" fill="#de1d25"/></g></g></g></g></g></svg>
