<svg width="397.09pt" height="176.21pt" version="1.1" viewBox="0 0 397.09 176.21" xmlns="http://www.w3.org/2000/svg">
 <path d="m9.955 0.28974h16.42v17.97h11.93v11.12l-11.93 0.05v29.37c0 1.4037 0.18819 2.6881 0.6533 3.9194 0.89689 2.2675 2.6553 2.5246 4.7342 2.6512 2.1925 0.12796 4.4117-0.0582 6.6026-0.14065v12.81c-7.35 0.25-15.29 1.56-22.17-1.73-4.31-1.97-6.39-6.84-6.24-11.38v-35.55l-9.955-0.01v-11.11h9.955z" fill="#66beca"/>
 <path d="m40.595 18.26c5.74-0.03 11.48-0.07 17.22 0 4.16 13.29 7.925 26.65 12.255 39.89 4.8723-13.121 9.117-27.938 12.805-39.89 5.51-0.07 11.02-0.12 16.52 0-6.84 19.82-13.49 39.8-20.1 59.69-6.14 0.44-12.3-0.07-18.45 0-5.17-14.67-9.95-29.38-15.14-44.05-1.63-5.25-3.81-10.28-5.11-15.64z" fill="#66beca"/>
 <g transform="matrix(.81712 0 0 .81712 92.607 -68.535)">
  <path d="m227.23 154.23h145.4v145.29h-145.3l-0.1-145.29m55.47 36.47c-6.75 5.81-10.75 14.752-10.75 23.3v3.675h15.17c0-3.125 0.20664-6.321 1.35-9.355 0.95853-2.3194 2.2602-4.7509 4.0665-6.5963 4.2279-4.1885 12.267-4.0553 16.372-1.0034 1.2353 0.95517 2.3704 2.3505 3.4257 4.3853 1.8625 4.3283 1.6952 9.0436-0.39429 13.229-1.8535 3.6861-5.2463 6.7131-8.5402 9.0555-6.85 4.4-13.45 9.17-19.94 14.06-7.31 5.66-13.31 14.072-13.31 23.48v3.87h59.96v-13.775h-37.4c0-1.5202-0.15119-3.029 1.02-4.2851 6.27-6.25 14-10.71 21.26-15.68 3.79-2.85 7.85-5.67 10.22-9.91 5.02-7.75 5.76-17.91 1.91-26.26-3.27-5.68-8.41-10.25-14.64-12.42-9.84-3.14-21.46-2.24-29.78 4.23z" fill="#66beca"/>
 </g>
 <path d="m176.51 57.89c-10.146 0-18.386 8.2388-18.386 18.384 0 10.167 8.2404 18.384 18.386 18.384h39.51v21.144h-39.51c-21.793 0-39.528-17.735-39.528-39.528 0-21.782 17.735-39.505 39.528-39.505h57.888v-36.769h-57.888c-42.056 0-76.286 34.218-76.286 76.274s34.229 76.286 76.286 76.286h76.272v-94.67z" fill="#0194a8" stroke-width=".80221"/>
</svg>
