<svg width="800" height="123.52" version="1.1" viewBox="0 0 800 123.52" xml:space="preserve" xmlns="http://www.w3.org/2000/svg"><link rel="stylesheet" type="text/css"/><link rel="stylesheet" type="text/css"/><style lang="en" type="text/css"/><style lang="en" type="text/css"/><style lang="en" type="text/css"/> <style type="text/css"> .st0{fill:#2469F5;} </style> <g transform="matrix(.85424 0 0 .85424 -112.5 -228.68)">         <path class="st0" d="m175.1 289.4a21.7 21.7 0 0 1-21.7 21.7 21.7 21.7 0 0 1-21.7-21.7 21.7 21.7 0 0 1 21.7-21.7 21.7 21.7 0 0 1 21.7 21.7z" fill="#2469f5"/>       <path class="st0" d="m225.7 289.4a21.7 21.7 0 0 1-21.7 21.7 21.7 21.7 0 0 1-21.7-21.7 21.7 21.7 0 0 1 21.7-21.7 21.7 21.7 0 0 1 21.7 21.7z" fill="#2469f5"/>       <path class="st0" d="m276.3 289.4a21.7 21.7 0 0 1-21.7 21.7 21.7 21.7 0 0 1-21.7-21.7 21.7 21.7 0 0 1 21.7-21.7 21.7 21.7 0 0 1 21.7 21.7z" fill="#2469f5"/>       <path class="st0" d="m225.7 340a21.7 21.7 0 0 1-21.7 21.7 21.7 21.7 0 0 1-21.7-21.7 21.7 21.7 0 0 1 21.7-21.7 21.7 21.7 0 0 1 21.7 21.7z" fill="#2469f5"/>       <path class="st0" d="m225.7 390.6a21.7 21.7 0 0 1-21.7 21.7 21.7 21.7 0 0 1-21.7-21.7 21.7 21.7 0 0 1 21.7-21.7 21.7 21.7 0 0 1 21.7 21.7z" fill="#2469f5"/>           <path class="st0" d="m336.6 289.7h-16v-9.4h42v9.4h-16v43.7h-10z"/>     <path class="st0" d="m395.7 322c-0.9 3.1-5.7 12.3-18 12.3-11.4 0-19.7-8.6-19.7-20.3s8.6-20.3 19.7-20.3c10.6 0 19.1 8.6 19.1 19.4 0 1.1-0.3 2-0.3 2.9l-0.3 1.1h-28.9c0.9 5.4 4.9 9.1 10.3 9.1 4.6 0 7.4-2.6 8-4.3 0.1 0.1 10.1 0.1 10.1 0.1zm-8.6-11.1c-0.9-4.9-4-8.6-9.4-8.6-6 0-9.1 3.7-10.3 8.6z"/>     <path class="st0" d="m402.6 280.3h9.4v53.1h-9.4z"/>     <path class="st0" d="m455.4 322c-0.9 3.1-5.7 12.3-18 12.3-11.4 0-19.7-8.6-19.7-20.3s8.6-20.3 19.7-20.3c10.6 0 19.1 8.6 19.1 19.4 0 1.1-0.3 2-0.3 2.9l-0.3 1.1h-28.9c0.9 5.4 4.9 9.1 10.3 9.1 4.6 0 7.4-2.6 8-4.3 0.1 0.1 10.1 0.1 10.1 0.1zm-8.3-11.1c-0.9-4.9-4-8.6-9.4-8.6-6 0-9.1 3.7-10.3 8.6z"/>     <path class="st0" d="m465.4 304h-6.6v-9.1h6.3v-5.7c0-6 3.7-9.4 9.4-9.4h8.6v8.6h-5.4c-1.4 0-2.6 1.1-2.6 2.6v4.3h8.6v9.1h-8.6v29.6h-9.4z"/>     <path class="st0" d="m524.3 314c0 11.7-8.6 20.3-19.7 20.3-11.4 0-19.7-8.6-19.7-20.3s8.6-20.3 19.7-20.3c11.1 0.3 19.7 8.6 19.7 20.3zm-9.4 0c0-6.9-4.6-11.4-10.3-11.4s-10.3 4.6-10.3 11.4c0 6.9 4.6 11.4 10.3 11.4 5.4 0.3 10.3-4.3 10.3-11.4z"/>     <path class="st0" d="m530 294.9h8.6l0.6 3.7h0.6c0.6-0.9 1.7-1.7 2.6-2.3 1.7-1.1 4.6-2.3 8-2.3 8.6 0 15.4 6.3 15.4 16.6v23.4h-9.4v-22.3c0-4.9-3.4-8.6-8.6-8.6s-8.6 3.4-8.6 8.6v22.3h-9.4z"/>     <path class="st0" d="m626 318.9c-1.1 6-6 15.4-18.3 15.4-11.4 0-19.7-8.6-19.7-20.3s8.6-20.3 19.7-20.3c12.3 0 16.9 9.1 18.3 14.9h-9.4c-0.9-2-3.1-6-8.6-6s-10.3 4.6-10.3 11.4c0 6.9 4.6 11.4 10.3 11.4s8-3.7 8.6-6.3z"/>     <path class="st0" d="m655.1 329.7h-0.6c-0.6 0.9-1.7 1.7-2.6 2.3-2 1.1-4.6 2.3-8.6 2.3-8.9 0-14-5.4-14-11.7 0-7.4 5.4-12.9 16-12.9h8.6v-0.6c0-4.3-2.6-7.4-6.9-7.4s-6.3 2.9-6.9 4.9h-9.4c0.9-6.3 6-12.6 16.6-12.6 10 0 16.6 6.6 16.6 14.9v24.6h-8zm-1.1-12.8h-8c-4.9 0-7.4 2-7.4 4.9 0 3.1 2 4.9 6 4.9 6 0 9.1-3.4 9.1-8.6v-1.1h0.3z"/>     <path class="st0" d="m572.9 294.9h9.4v38.9h-9.4z"/>      <circle class="st0" cx="577.7" cy="283.4" r="5.7"/>      <polygon class="st0" points="500.6 289.4 507.7 278.3 517.7 278.3 508.6 289.4"/>      <path class="st0" d="m322.6 392.6h6c0 5.7 4.9 10.6 14 10.6 9.4 0 13.4-4.3 13.4-9.4 0-4.6-3.1-7.4-9.1-8.6l-10.6-2c-8.6-1.7-12.9-6-12.9-13.7 0-8.6 6.9-15.4 18.3-15.4 12.3 0 19.7 7.4 19.7 16.3h-6c0-5.7-4.9-10.6-13.7-10.6-8 0-12.3 4.3-12.3 9.4 0 4.3 2.9 7.4 8.6 8.6l8.6 1.4c10.6 2 15.4 6.3 15.4 14.3 0 8.6-6.9 15.4-19.4 15.4-12.6 0-20-7.5-20-16.3z"/> <path class="st0" d="m367.1 389.1c0-11.7 8-19.7 18.3-19.7 10 0 17.4 7.4 17.4 18.3 0 2-0.3 3.7-0.6 4.3h-29.4c0.6 7.4 6 11.7 12.6 11.7 4.6 0 8.6-2.3 10.3-6h6c-2.6 7.4-8.6 11.4-16.3 11.4-10.3-0.2-18.3-8.2-18.3-20zm30.3-2.5c-0.6-6.9-5.4-11.7-11.7-11.7-6.9 0-11.7 4.9-12.6 11.7z"/> <path class="st0" d="m410 408.3v-38.3h4.9l0.6 3.7h0.6c1.4-2.3 3.1-3.7 7.4-3.7h6.3v5.4h-5.8c-5.4 0-8.6 3.1-8.6 8.6v24.3z"/> <path class="st0" d="m447.1 408.3-13.7-38.3h6l11.4 32h1.4l11.4-32h6l-13.4 38h-9.1z"/> <path class="st0" d="m473.4 359.1c0-2.3 1.4-3.7 3.7-3.7s3.7 1.4 3.7 3.7-1.4 3.7-3.7 3.7c-2 0.1-3.7-1.7-3.7-3.7zm0.9 49.2v-38.3h5.7v38h-5.7z"/> <path class="st0" d="m486.9 389.1c0-11.7 8-19.7 18.3-19.7 8.6 0 14.9 4.9 16.6 12.9h-5.8c-1.4-4.9-5.7-7.4-11.1-7.4-6.9 0-12.6 5.7-12.6 14.3s5.7 14.3 12.6 14.3c5.4 0 9.4-2.6 11.1-8h5.7c-2 8.6-8.6 13.4-16.6 13.4-10.2 0-18.2-8-18.2-19.8z"/> <path class="st0" d="m527.4 359.1c0-2.3 1.4-3.7 3.7-3.7s3.7 1.4 3.7 3.7-1.4 3.7-3.7 3.7c-2.2 0.1-3.7-1.7-3.7-3.7zm1.2 49.2v-38.3h5.7v38h-5.7z"/> <path class="st0" d="m540.9 389.1c0-11.7 8-19.7 18.3-19.7s18.3 8 18.3 19.7-8 19.7-18.3 19.7c-10.3 0.1-18.3-7.9-18.3-19.7zm30.8 0c0-8.6-5.7-14.3-12.6-14.3s-12.6 5.7-12.6 14.3 5.7 14.3 12.6 14.3 12.6-5.7 12.6-14.3z"/> <path class="st0" d="m581.1 397.1h5.7c0 3.4 3.4 6.3 9.4 6.3s9.1-2.6 9.1-5.7-2-4.9-6.3-5.7l-6.3-1.1c-7.1-1.1-10.6-4.6-10.6-10.6s4.6-11.1 14-11.1c9.1 0 14.9 5.7 14.9 11.7h-5.7c0-3.4-3.4-6.3-9.1-6.3s-8.6 2.6-8.6 5.7c0 2.6 1.4 4.6 6 5.4l6.3 1.1c7.4 1.4 11.1 4.9 11.1 11.1 0 6-4.9 11.1-14.9 11.1-9.2-0.1-15-5.9-15-11.9z"/> <path class="st0" d="m670 408.3-5.1-13.7h-26.3l-5.1 13.7h-6.3l20.3-53.1h9.1l20.3 53.1zm-29.4-19.4h22l-10.3-27.4h-1.4z"/> <path class="st0" d="m680 392.9v-22.9h5.7v22.9c0 6 4.6 10.6 10.3 10.6 6 0 11.1-4.9 11.1-10.6v-22.9h5.7v38h-4.8l-0.6-4.3h-0.6c-2 2-6 4.9-11.4 4.9-8.8 0.3-15.4-6-15.4-15.7z"/> <path class="st0" d="m719.4 389.1c0-11.7 7.4-19.7 17.4-19.7 5.4 0 9.1 2.3 12.3 6h0.6v-20.6h5.7v53.2h-4.9l-0.6-5.4h-0.6c-3.1 3.7-6.9 6-12.3 6-9.6 0.3-17.6-7.7-17.6-19.5zm30.3 0c0-8.6-5.7-14.3-12.3-14.3-6.3 0-12.3 5.7-12.3 14.3s5.7 14.3 12.3 14.3c6.6 0.3 12.3-5.7 12.3-14.3z"/> <path class="st0" d="m764 359.1c0-2.3 1.4-3.7 3.7-3.7s3.7 1.4 3.7 3.7-1.4 3.7-3.7 3.7c-2.3 0.1-3.7-1.7-3.7-3.7zm0.9 49.2v-38.3h5.7v38h-5.7z"/> <path class="st0" d="m777.4 389.1c0-11.7 8-19.7 18.3-19.7s18.3 8 18.3 19.7-8 19.7-18.3 19.7c-10.3 0.1-18.3-7.9-18.3-19.7zm30.9 0c0-8.6-5.7-14.3-12.6-14.3s-12.6 5.7-12.6 14.3 5.7 14.3 12.6 14.3c6.9 0.3 12.6-5.7 12.6-14.3z"/> <path class="st0" d="m829.1 408.3-13.7-38.3h6l11.4 32h1.4l11.4-32h6l-13.6 38h-8.9z"/> <path class="st0" d="m855.4 359.1c0-2.3 1.4-3.7 3.7-3.7s3.7 1.4 3.7 3.7-1.4 3.7-3.7 3.7c-2 0.1-3.7-1.7-3.7-3.7zm1.2 49.2v-38.3h5.7v38h-5.7z"/> <path class="st0" d="m868.3 397.1h5.7c0 3.4 3.4 6.3 9.4 6.3s9.1-2.6 9.1-5.7-2-4.9-6.3-5.7l-6.3-1.1c-7.1-1.1-10.6-4.6-10.6-10.6s4.6-11.1 14-11.1c9.1 0 14.9 5.7 14.9 11.7h-5.7c0-3.4-3.4-6.3-9.1-6.3s-8.6 2.6-8.6 5.7c0 2.6 1.4 4.6 6 5.4l6.3 1.1c7.4 1.4 11.1 4.9 11.1 11.1 0 6-4.9 11.1-14.9 11.1-9.3-0.1-15-5.9-15-11.9z"/> <path class="st0" d="m904.9 392.9v-22.9h5.7v22.9c0 6 4.6 10.6 10.3 10.6 6 0 11.1-4.9 11.1-10.6v-22.9h5.7v38h-4.9l-0.6-4.3h-0.9c-2 2-6 4.9-11.4 4.9-8.5 0.3-15-6-15-15.7z"/> <path class="st0" d="m944.9 397.1c0-7.4 4.6-12.3 15.4-12.3h10.3v-1.1c0-5.7-3.4-9.1-9.1-9.1s-9.1 3.1-9.4 6.3h-5.7c0.6-6 5.7-11.7 15.4-11.7 9.1 0 14.9 5.4 14.9 14.3v24.5h-5.1l-0.6-4.6h-0.6c-1.4 2.3-5.7 5.4-11.7 5.4-8.4 0.1-13.8-4.8-13.8-11.7zm25.7-5.1v-1.4h-10.3c-6.9 0-9.4 3.1-9.4 6.9 0 3.7 2.6 6.3 7.4 6.3 7.7-0.1 12.3-4.7 12.3-11.8z"/> <path class="st0" d="m985.7 408.3v-53.1h5.7v53.1z"/> <path class="st0" d="m998.6 389.1c0-11.7 8-19.7 18.3-19.7 10 0 17.4 7.4 17.4 18.3 0 2-0.3 3.7-0.6 4.3h-29.7c0.6 7.4 6 11.7 12.6 11.7 4.6 0 8.6-2.3 10.3-6h6c-2.6 7.4-8.6 11.4-16.3 11.4-10-0.2-18-8.2-18-20zm30.3-2.5c-0.6-6.9-5.4-11.7-11.7-11.7-6.9 0-11.7 4.9-12.6 11.7z"/> <path class="st0" d="m1038.3 397.1h5.7c0 3.4 3.4 6.3 9.4 6.3s9.1-2.6 9.1-5.7-2-4.9-6.3-5.7l-6.3-1.1c-7.1-1.1-10.6-4.6-10.6-10.6s4.6-11.1 14-11.1c9.1 0 14.9 5.7 14.9 11.7h-5.7c0-3.4-3.4-6.3-9.1-6.3s-8.6 2.6-8.6 5.7c0 2.6 1.4 4.6 6 5.4l6.3 1.4c7.4 1.4 11.1 4.9 11.1 11.1 0 6-4.9 11.1-14.9 11.1-9.3-0.4-15-6.2-15-12.2z"/>  </g> </svg>
