<svg version="1.1" viewBox="0 0 1e3 678" xmlns="http://www.w3.org/2000/svg">
 <g transform="matrix(1.3494 0 0 1.3494 -47.297 -223.22)">
  <path d="m731.2 165.4h-563.7c-26.6 0-50.2 20.2-55.3 46.4-1.5 7.4-76.4 403.1-76.4 403.1-4.6 24.3 12.2 53 44.4 53h563.5c26.1 0 50.5-20.4 55.4-46.4 0 0 71.9-379.8 76.2-402.7 5-26.7-12.8-53.4-44.1-53.4zm-50.6 452.5c-3.2 17.1-19.8 31-36.9 31h-563.4c-17.1 0-28.7-13.9-25.8-31l37.4-197.8h226c4.2 20.6 22.4 36.2 44.2 36.2s40-15.6 44.2-36.2h311.7zm76.2-402.6-35.6 185.8h-315.3c-4.6-20-22.5-34.9-43.9-34.9s-39.3 14.9-43.9 34.9h-222.7l35.3-185.8c2.9-17.1 19.4-31 36.8-31h563.7c17.4-0.1 28.9 13.8 25.6 31z" fill="#fff"/>
  <path d="m362 380.8c-16.8 0-30.4 13.6-30.4 30.4s13.6 30.4 30.4 30.4 30.4-13.6 30.4-30.4c0-16.7-13.7-30.4-30.4-30.4z" fill="#f00060"/>
  <path d="m680.6 617.9c-3.2 17.1-19.8 31-36.9 31h-563.4c-17.1 0-28.7-13.9-25.8-31l37.4-197.8h226c4.2 20.6 22.4 36.2 44.2 36.2s40-15.6 44.2-36.2h311.7z" fill="#004678"/>
  <path d="m756.8 215.3-35.6 185.8h-315.3c-4.6-20-22.5-34.9-43.9-34.9s-39.3 14.9-43.9 34.9h-222.7l35.3-185.8c2.9-17.1 19.4-31 36.8-31h563.7c17.4-0.1 28.9 13.8 25.6 31z" fill="#00c0fe"/>
  <g fill="#fff">
   <path d="m200.3 223.9h92.5c3.4 0 4.8 2.5 4.4 7.4-1 11.2-4 16.9-9 16.9h-31.2l-20.2 99.8c-0.7 4-5 5.9-12.8 5.9h-6.8c-7.4 0-10.9-1.9-10.6-5.7l20.3-100h-31c-3.4 0-4.9-2.5-4.4-7.4 0.9-11.3 3.9-16.9 8.8-16.9z"/>
   <path d="m349.8 223.9h71.5c3.4 0 4.9 2.5 4.4 7.4-1 11.2-4 16.9-9 16.9h-49.2l-5.6 26.8h43.7c3.4 0 4.8 2.5 4.4 7.4-1 11.2-4 16.8-9 16.8h-43.9l-6.3 30h49.2c3.4 0 4.8 2.5 4.4 7.4-1 11.2-4 16.9-9 16.9h-71.8c-2.6 0-4.4-0.4-5.3-1.3-1-0.9-1.3-2.4-1.1-4.6l23.3-116.3c1-4.9 4.1-7.4 9.3-7.4z"/>
   <path d="m488.3 223.5h6.8c7.4 0 11 1.9 10.6 5.7l-20.3 100h43.6c3.4 0 4.8 2.5 4.4 7.4-1 11.2-4 16.9-9 16.9h-66.4c-2.6 0-4.4-0.4-5.3-1.3-1-0.9-1.3-2.4-1.1-4.6l23.9-118.1c0.8-4 5-6 12.8-6z"/>
   <path d="m602.9 223.9h71.4c3.4 0 4.9 2.5 4.4 7.4-1 11.2-4 16.9-9 16.9h-49.2l-5.5 26.8h43.7c3.4 0 4.8 2.5 4.4 7.4-1 11.2-4 16.8-9 16.8h-43.9l-6.3 30h49.2c3.4 0 4.9 2.5 4.4 7.4-1 11.2-4 16.9-9 16.9h-71.8c-2.6 0-4.4-0.4-5.3-1.3-1-0.9-1.3-2.4-1.1-4.6l23.3-116.3c1-4.9 4.1-7.4 9.3-7.4z"/>
  </g>
  <g fill="#fff">
   <path d="m237.9 577.8c3.5 0 5 2.7 4.5 8.1-1.2 12.3-4.4 18.4-9.5 18.4h-97.3c-1.8 0-3.1-2.1-4-6.3s-1.2-7.5-0.9-10 0.6-3.9 1-4.3l86.8-94.4h-56.5c-3.5 0-5-2.7-4.5-8.1 1.2-12.3 4.4-18.4 9.5-18.4h92c1.8 0 3.1 2.1 3.9 6.3 0.9 4.2 1.2 7.5 0.9 10-0.2 2.5-0.6 3.9-1 4.3l-87 94.4z"/>
   <path d="m314.4 462.4h6.9c7.6 0 11.2 2.2 10.7 6.5-11.9 58.1-17.9 87.8-18 89.2-0.6 6.3 1.2 11.5 5.4 15.5s10.2 6 18.1 6 14.9-2.3 21.1-6.9 10-10.4 11.4-17.6l17.5-86.1c0.8-4.3 5.4-6.5 13.6-6.5h6.7c7.6 0 11.2 2.2 10.7 6.5l-17.9 88c-3.2 15.5-10.8 27.5-23 36.1s-27.2 12.8-45.1 12.8-31.2-3.7-39.8-11c-8.7-7.3-12.4-17.8-11-31.2 0.1-1.5 6.5-33.1 19-94.8 0.9-4.3 5.4-6.5 13.7-6.5z"/>
   <path d="m471.9 462.8h39.6c31.3 0 45.8 11 43.7 32.9-0.9 8.9-4.1 16.6-9.7 23-5.6 6.5-12.7 11.2-21.4 14.1l-0.1 0.8c2.2 0.9 4.3 3.2 6.3 6.8s3.5 7.5 4.4 11.8l8.8 44.5c0.2 1.6 0.3 2.9 0.2 3.8-0.7 2.7-5 4-13 4h-8.3c-6.6 0-10.3-1.4-11-4.2l-8.1-39.4c-1.2-4.4-2.9-7.6-5.2-9.4s-6.5-2.7-12.7-2.7h-7.9l-10.2 49.3c-0.8 4.3-5.3 6.5-13.4 6.5h-6.9c-7.7 0-11.4-2.2-10.9-6.5l26.1-127.4c1-5.2 4.3-7.9 9.7-7.9zm30.5 59.2c4.5 0 8.7-1.9 12.6-5.7 4-3.8 6.2-8 6.7-12.7s-0.5-8.3-3-10.7-6.1-3.6-11-3.6h-17.9l-6.7 32.8h19.3z"/>
   <path d="m594.5 604.7h-7.1c-7.7 0-11.4-2.1-11-6.3l26.6-129.5c0.8-4.3 5.3-6.5 13.4-6.5h7.1c7.7 0 11.4 2.1 11 6.3l-26.5 129.5c-0.9 4.4-5.3 6.5-13.5 6.5z"/>
  </g>
 </g>
</svg>
