<svg width="809.61" height="647.77" version="1.1" viewBox="0 0 809.61 647.77" xml:space="preserve" xmlns="http://www.w3.org/2000/svg"><path d="m593.71 163.87c-28.719 0-52.044 23.321-52.044 52.04 0 28.78 23.326 52.04 52.044 52.04h111.84v59.851h-111.84c-61.689 0-111.89-50.203-111.89-111.89 0-61.657 50.203-111.83 111.89-111.83h163.86v-104.08h-163.86c-119.05 0-215.94 96.859-215.94 215.91 0 119.05 96.893 215.94 215.94 215.94h215.9l2.2e-4 -267.98h-215.9z" fill="#00b2bb" stroke-width="2.2708"/><g transform="matrix(7.9497 0 0 7.9497 -1529.3 -487.08)" fill="#010101"><path d="m206.56 140.21c-1.426 1.841-3.293 2.541-5.083 2.541-5.731 0-9.103-4.278-9.103-9.621 0-5.498 3.371-9.777 9.103-9.777 3.787 0 7.365 2.334 7.807 6.536h-3.891c-0.467-2.049-1.997-3.112-3.916-3.112-3.656 0-5.031 3.112-5.031 6.354 0 3.086 1.375 6.198 5.031 6.198 2.646 0 4.176-1.427 4.409-3.994h-4.098v-3.034h7.78v10.011h-2.594z"/><path d="m217.4 123.8h4.176l6.924 18.517h-4.227l-1.4-4.123h-6.925l-1.452 4.123h-4.123zm-0.388 11.36h4.798l-2.334-6.795h-0.052z"/><path d="m229.59 123.8h4.071v15.094h9.025v3.423h-13.097v-18.517z"/><path d="m244.45 123.8h4.071v18.517h-4.071z"/><path d="m263.93 130.02c-0.26-1.841-2.023-3.241-4.046-3.241-3.656 0-5.031 3.112-5.031 6.354 0 3.086 1.375 6.198 5.031 6.198 2.489 0 3.89-1.712 4.201-4.149h3.942c-0.415 4.616-3.605 7.572-8.144 7.572-5.731 0-9.103-4.278-9.103-9.621 0-5.498 3.371-9.777 9.103-9.777 4.071 0 7.495 2.387 7.987 6.665h-3.94z"/><path d="m270.28 123.8h4.071v18.517h-4.071z"/><path d="m282.47 123.8h4.176l6.924 18.517h-4.227l-1.4-4.123h-6.925l-1.452 4.123h-4.124zm-0.389 11.36h4.798l-2.334-6.795h-0.052z"/></g></svg>
