<svg width="800" height="438.93" version="1.1" viewBox="0 0 800 438.93" xml:space="preserve" xmlns="http://www.w3.org/2000/svg"><g transform="matrix(2.2708 0 0 2.2708 -660.99 629.06)" fill="#00b2bb"><g transform="matrix(.77941 0 0 .77941 64.211 -18.47)"><path d="m579.08-331.73v87h19.129v-37.666h31.623v37.666h19.127v-87h-19.127v34.289h-31.623v-34.289z" stroke-width="4.6984"/><path d="m666.08-331.73h37.533c22.544 0 39.478 14.134 39.478 43.011 0 25.222-12.917 43.989-39.478 43.989h-37.533zm19.133 70.921h17.061c11.084 0 21.689-6.8271 21.689-26.077 0-17.549-6.0941-28.76-25.105-28.76h-13.645z" stroke-width="4.6986"/></g><path d="m386.18-201.74c-12.647 0-22.919 10.27-22.919 22.917 0 12.674 10.272 22.917 22.919 22.917h49.252v26.357h-49.252c-27.166 0-49.274-22.108-49.274-49.274 0-27.152 22.108-49.246 49.274-49.246h72.161v-45.835h-72.161c-52.426 0-95.095 42.654-95.095 95.08s42.669 95.095 95.095 95.095h95.078l1e-4 -118.01h-95.078z"/></g></svg>
