<svg enable-background="new 0 0 210 50" version="1.1" viewBox="0 0 923.94 200" xml:space="preserve" xmlns="http://www.w3.org/2000/svg"><defs>
	<linearGradient id="e-4" gradientTransform="matrix(118.51 205.26 -205.26 118.51 60.094 20.053)" gradientUnits="userSpaceOnUse"><stop stop-color="#cf1c23" offset="0"/><stop stop-color="#c11b22" offset=".2191"/><stop stop-color="#c11b22" offset=".6573"/><stop stop-color="#ed1c24" offset="1"/></linearGradient><linearGradient id="f-1" gradientTransform="matrix(89.636,51.751,51.751,-89.636,222.44,-599.65)" gradientUnits="userSpaceOnUse"><stop stop-color="#961a1f" offset="0"/><stop stop-color="#961a1f" offset=".79775"/><stop stop-color="#ac1b21" offset="1"/></linearGradient><linearGradient id="g-2" gradientTransform="matrix(17.509,-99.298,-99.298,-17.509,310.45,-474.71)" gradientUnits="userSpaceOnUse"><stop stop-color="#451b1a" offset="0"/><stop stop-color="#501d1d" offset=".23596"/><stop stop-color="#501d1d" offset=".83708"/><stop stop-color="#772323" offset="1"/></linearGradient><linearGradient id="h-7" gradientTransform="matrix(118.51 205.26 -205.26 118.51 60.094 20.053)" gradientUnits="userSpaceOnUse"><stop stop-color="#892021" offset="0"/><stop stop-color="#821f20" offset=".2191"/><stop stop-color="#821f20" offset=".6573"/><stop stop-color="#952122" offset="1"/></linearGradient></defs>
<g fill="#777d7a" stroke-width="4.4743"><path d="m279.2 34.005v-17.45h68.009v17.45h-24.161v61.298h-20.582v-61.298z"/><path d="m417 46.98v15.213h-38.479v15.213h43.848v17.897h-64.43v-78.748h62.64v16.107h-42.058v14.318z"/><path d="m435.8 95.302v-78.748h20.582v60.85h36.689v17.897z"/><path d="m564.66 46.98v15.213h-38.479v15.213h42.953v17.897h-63.535v-78.748h62.64v16.107h-42.058v14.318z"/><path d="m635.8 44.295c-0.89486-7.6063-7.1589-12.081-16.107-12.081-13.423 0-18.345 12.081-18.345 23.266 0 12.081 4.9217 23.266 18.345 23.266 9.8435 0 15.213-5.3692 16.107-14.765h20.582c-0.89486 20.134-16.107 32.215-36.242 32.215-23.714 0-39.374-18.345-39.374-41.164s15.66-41.164 39.374-41.164c17.002 0 35.347 11.186 36.242 29.978h-20.582z"/><path d="m669.36 95.302v-78.748h20.582v60.85h36.689v17.897z"/><path d="m807.16 62.64c0 22.819-10.738 34.452-34.452 34.452s-34.452-11.633-34.452-34.452v-46.085h20.582v47.875c0 10.291 3.5794 15.213 13.87 15.213s13.87-4.9217 13.87-15.213v-47.875h20.582z"/><path d="m823.27 16.555h36.689c13.87 0 28.188 3.132 28.188 19.687 0 6.7114-4.0269 12.975-10.738 16.107 8.0537 2.2372 13.87 9.8435 13.87 18.792 0 18.792-13.87 24.161-30.873 24.161h-38.032v-78.748zm20.134 30.873h16.107c3.5794 0 8.0537-1.7897 8.0537-7.1589 0-5.8166-4.0269-7.6063-8.0537-7.6063h-16.107zm0 31.32h16.555c6.264 0 11.186-2.2372 11.186-8.5012 0-6.7114-4.9217-8.9486-11.186-8.9486h-16.555z"/></g><g fill="#020304" stroke-width="4.4743"><path d="m338.7 146.31c-0.89486-7.6063-7.1589-12.081-16.107-12.081-13.423 0-18.345 12.081-18.345 23.266 0 12.081 4.9217 23.266 18.345 23.266 9.8435 0 15.213-5.3692 16.107-14.765h20.582c-0.89486 20.134-16.107 32.215-36.242 32.215-23.714 0-39.374-18.345-39.374-41.164s15.66-41.164 39.374-41.164c17.002 0 35.347 11.186 36.242 29.978h-20.582z"/><path d="m372.26 117.67h20.582v78.748h-20.582z"/><path d="m476.96 117.67v78.748h-21.029l-27.293-48.77h-0.44743v48.77h-19.239v-78.748h21.029l27.293 48.77h0.44743v-48.77z"/><path d="m552.13 148.1v16.107h-38.479v15.213h43.848v17.002h-64.43v-78.748h63.088v16.555h-42.506v13.87z"/><path d="m659.06 117.67v78.748h-19.239v-59.508h-0.44743l-16.555 59.508h-15.66l-16.555-59.508h-0.44743v59.508h-19.239v-78.748h30.425l13.87 52.797 13.423-52.797z"/><path d="m697.1 117.67h21.029l29.53 78.748h-21.477l-4.9217-14.318h-27.293l-4.9217 14.318h-21.029zm0.89486 49.665h17.897l-8.5012-27.293z"/></g>
<g transform="translate(.30707 -.00233)"><path d="m31.115 200-31.114-7.434 12.267-144.92 193.73-47.652 16.537 24.825 10.268 169.18-201.69 5.9977m9.1615-122.36-4.9496 70.361 29.523-2.8727 98.642-9.608-1.514-58.152-0.54348-22.865-91.984 17.566v-0.01941l-29.173 5.5901" fill="url(#e-4)" stroke-width="1.941"/><g transform="matrix(1.941,0,0,-1.941,-402.33,-920.4)" fill-rule="evenodd"><path d="m207.28-573.4 16.03-3.83 103.91 3.09-9.4 4.85-110.54-4.11" fill="url(#f-1)"/><path d="m313.41-474.19 8.52-12.79 5.29-87.16-9.4 4.85-4.41 95.1" fill="url(#g-2)"/><path d="m225.48-550.44 2.55 36.25 13.74-7.95-1.08-26.82-15.21-1.48" fill="#501d1c"/><path d="m228.03-514.19 62.42 11.92 0.28-11.78-48.96-8.09-13.74 7.95" fill="#961a1f"/></g><path d="m40.276 77.643 29.173-5.5901v0.01941l-29.173 5.5707" fill="url(#h-7)" stroke-width="1.941"/><path d="m66.946 93.074-26.669-15.431 26.669 15.431" fill="#501d1c" stroke-width="1.941"/><path d="m66.946 93.074-26.669-15.431 29.173-5.5707-2.5039 21.002" fill="#701d1e" stroke-width="1.941"/></g>
<g fill="#b61d1b" stroke-width="4.4743"><path d="m775.84 117.67h20.582v29.083h25.504v-29.083h20.582v78.748h-20.582v-32.215h-25.504v32.215h-20.582v-30.873z"/><path d="m852.8 117.67h35.347c2.2372 0.44743 4.4743 0.44743 6.264 0.89486 7.1589 0.89486 13.87 4.0269 18.792 8.9486 3.5794 3.5794 6.264 8.0537 8.0537 12.528s2.6846 9.8435 2.6846 14.765c0 5.3692-0.44743 10.738-1.7897 16.107-1.3423 4.4743-3.132 8.9486-6.264 12.975-2.6846 3.5794-6.264 6.264-9.8435 8.0537-5.8166 3.132-12.528 4.4743-19.239 4.4743h-34.452v-55.929c0.44743-7.6063 0.44743-15.213 0.44743-22.819m20.582 17.897v43.848c4.9217 0 9.8435 0.44743 14.765-0.44743 4.0269-0.44743 8.5012-1.7897 11.186-4.9217 3.132-3.5794 4.0269-8.0537 4.4743-12.975 0.44743-3.5794 0.44743-7.1589-0.44743-11.186-0.89486-3.5794-2.6846-7.6063-5.3692-9.8435-4.0269-3.5794-9.396-4.4743-14.318-4.4743z"/></g>
</svg>
