<svg version="1.1" viewBox="0 0 2012.9 595" xmlns="http://www.w3.org/2000/svg" xmlns:xlink="http://www.w3.org/1999/xlink">
 <style>.st0{clip-path:url(#b);fill:url(#a)}</style>
 <defs>
  <path id="c" d="m324 403.1c-20.5 16.3-54.9 25.5-110.9 25.5-31.3 0-53.2-2.1-69.1-4.2v-276.4c18-3.3 50.8-5.8 82.5-5.8 38.8 0 62.7 3.8 83.2 15.9 19.6 10.4 33.9 29.6 33.9 55.1 0 25-14.6 49.3-46.3 60.9 32.1 8.8 56 33 56 69.3-0.1 25.4-11.8 45.5-29.3 59.7zm-7.1-129c65.9-24.3 96.3-74.6 96.3-126.6 0-52.9-29.5-92.8-70.3-114.5-42.5-25.2-91.6-33-172.3-33-65.9 0-139.6 5.2-170.6 12.1v574.2c31 4.3 77.8 8.7 142.9 8.7 116.2 0 187.2-19.1 229.7-52.9 36.4-29.5 60.7-71.1 60.7-124-0.1-75.5-49.6-125.8-116.4-144"/>
 </defs>
 <linearGradient id="d" x2="433.22" y1="297.5" y2="297.5" gradientUnits="userSpaceOnUse">
  <stop stop-color="#0dded8" offset="0"/>
  <stop stop-color="#17d5db" offset=".142"/>
  <stop stop-color="#31bee3" offset=".383"/>
  <stop stop-color="#5c98f0" offset=".692"/>
  <stop stop-color="#8e6cff" offset="1"/>
 </linearGradient>
 <use width="100%" height="100%" fill="url(#d)" overflow="visible" xlink:href="#c"/>
 <clipPath id="b">
  <use width="100%" height="100%" overflow="visible" xlink:href="#c"/>
 </clipPath>
 <linearGradient id="a" x1="-1.619" x2="426.44" y1="300.74" y2="300.74" gradientUnits="userSpaceOnUse">
  <stop stop-color="#00e9d4" offset="0"/>
  <stop stop-color="#13d8da" offset=".175"/>
  <stop stop-color="#44ade9" offset=".528"/>
  <stop stop-color="#8e6cff" offset="1"/>
 </linearGradient>
 <path class="st0" d="m-1.6 3h433.7v595.4h-433.7z" clip-path="url(#b)" fill="url(#a)"/>
 <path d="m599.8 430.4c-30.7 0-55.6-16.7-55.6-54.5v-129.8h-28.8v-17.5h28.8v-63.4h19.1v63.4h69.6v17.5h-69.6v128c0 28.4 16.7 38.5 39.7 38.5 9.7 0 17.9-1.9 29.2-7v17.9c-10.2 4.6-19.9 6.9-32.4 6.9m274.6-287.4h19.1v283.9h-19.1zm-61.4 175.4c-2.7-40.1-25.7-77-71.2-77-39.3 0-69.6 33.1-73.1 77zm-66.5 95.3c30.7 0 51.7-13.6 68.1-31.1l13.2 11.7c-20.2 21.8-44 37.3-82.1 37.3-52.1 0-97.2-41.6-97.2-103.5v-0.8c0-57.6 40.4-103.5 94.1-103.5 55.6 0 91 45.1 91 103.9v0.8c0 2.7 0 3.9-0.4 7h-164.5c3.5 49.4 38.9 78.2 77.8 78.2m590.8-85.9c0-52.1-36.2-85.6-77.8-85.6-41.2 0-80.9 34.6-80.9 85.2v0.8c0 51 39.7 85.2 80.9 85.2 43.2 0 77.8-31.5 77.8-84.8zm-75.9 103.8c-39.7 0-65.3-22.6-81.7-47.5v42.8h-19.1v-283.9h19.1v129.9c17.1-26.1 42.4-49 81.7-49 47.9 0 96.5 38.5 96.5 103.1v0.8c0 64.5-48.6 103.8-96.5 103.8m275-101.5c-16.7-4.3-38.9-8.9-67.3-8.9-42 0-65.3 18.7-65.3 46.3v0.8c0 28.8 27.2 45.5 57.6 45.5 40.5 0 75.1-24.9 75.1-61.1zm-0.4 96.8v-33.1c-13.6 19.1-38.1 37.7-75.9 37.7-36.9 0-76.6-21-76.6-62.2v-0.8c0-41.2 35.4-64.6 86.7-64.6 27.6 0 46.7 3.5 65.7 8.6v-8.5c0-40.1-24.5-60.7-65.3-60.7-24.1 0-43.9 6.6-62.2 15.9l-7-16.7c21.8-10.1 43.2-17.1 70.4-17.1 51 0 82.9 26.4 82.9 77.8v123.7h-18.7m133.8 3.9c-28.8 0-60.3-11.7-81.3-28.8l11.3-15.2c21.8 16.7 45.9 26.1 71.2 26.1 26.8 0 47.8-14.8 47.8-37.7v-0.8c0-23.3-24.9-31.9-52.5-39.7-32.3-9.3-68.1-19.1-68.1-54.5v-0.8c0-31.9 26.8-54.8 65.3-54.8 23.7 0 50.6 8.6 70.4 21.8l-10.1 15.9c-18.3-12.1-40.1-19.8-61.1-19.8-27.2 0-45.1 14.8-45.1 34.6v0.8c0 22.2 26.8 30.3 55.2 38.5 31.9 8.9 65.3 20.6 65.3 55.6v0.8c0.1 35.5-30.2 58-68.3 58m-567.9-112.4c-2.7-40.1-25.7-77-71.2-77-39.3 0-69.6 33.1-73.1 77zm-66.5 95.3c30.7 0 51.7-13.6 68.1-31.1l13.2 11.7c-20.2 21.8-43.9 37.3-82.1 37.3-52.1 0-97.2-41.6-97.2-103.5v-0.8c0-57.6 40.4-103.5 94.1-103.5 55.6 0 91 45.1 91 103.9v0.8c0 2.7 0 3.9-0.4 7h-164.5c3.5 49.4 38.9 78.2 77.8 78.2m958.4-270.7h19.1v283.9h-19.1zm-61.5 175.4c-2.7-40.1-25.7-77-71.2-77-39.3 0-69.6 33.1-73.1 77zm-66.5 95.3c30.7 0 51.7-13.6 68.1-31.1l13.2 11.7c-20.2 21.8-44 37.3-82.1 37.3-52.1 0-97.2-41.6-97.2-103.5v-0.8c0-57.6 40.5-103.5 94.1-103.5 55.6 0 91 45.1 91 103.9v0.8c0 2.7 0 3.9-0.4 7h-164.5c3.5 49.4 38.9 78.2 77.8 78.2" fill="#fff"/>
</svg>
