<svg enable-background="new 0 0 397.6 103.5" version="1.1" viewBox="0 0 397.6 128.55" xml:space="preserve" xmlns="http://www.w3.org/2000/svg">
<style type="text/css">
	.st0{fill:#FF0027;}
</style>
<g fill="#ff0027">
	<path d="M 5.7,35.4 0,52.9 15.1,64 9.3,81.8 24.2,92.6 35.7,57.3 Z"/>
	<path d="m103 35.4-5.7-17.5h-18.8l-5.8-17.9h-18.4l11.5 35.4z"/>
	<path d="m54.3 0h-18.5l-5.8 17.9h-18.7l-5.6 17.5h37.1z"/>
	<path d="m108.7 52.9-5.7-17.5-30 21.9 11.3 35.3 15-10.8-5.7-17.8z"/>
	<path d="m24.2 92.6 15 10.9 15.1-10.9 15.1 10.9 14.9-10.9-30-21.7z"/>
</g>
<g fill="#ff0027"><path class="st0" d="m165.8 35 0.8 11.6h-1.6c-3.2-7.5-4.4-9.8-8.3-9.8h-2.6v28.2c0 2.8 1.1 2.9 4.5 3.3v1.8h-16.3v-1.8c3.4-0.4 4.5-0.6 4.5-3.3v-28.2h-2.7c-3.9 0-5.1 2.3-8.3 9.8h-1.6l0.8-11.6z"/><path class="st0" d="m188.9 53.5v1.1h-16.3c-0.2 7 3.4 11.2 8.3 11.2 3.4 0 5.6-1.4 7.5-4l0.8 0.4c-1.3 5-5 8.4-10.7 8.4-7.3 0-12.1-5.4-12.1-13.1 0-8.6 5.5-14.5 12.4-14.5 6.6 0.1 10.1 4.5 10.1 10.5zm-16.2-0.7h10c0-4.7-1.2-7.9-4.5-7.9s-5.1 3.3-5.5 7.9z"/><path class="st0" d="m200.9 66.2c0 1.8 0.8 2 3.1 2.2v1.6h-13.2v-1.6c2.3-0.2 3.1-0.5 3.1-2.2v-30.3l-3-1.6v-1.1l8.9-2.4h1.1z"/><path class="st0" d="m228.4 53.5v1.1h-16.3c-0.2 7 3.4 11.2 8.3 11.2 3.4 0 5.7-1.4 7.5-4l0.8 0.4c-1.3 5-5 8.4-10.7 8.4-7.3 0-12.1-5.4-12.1-13.1 0-8.6 5.5-14.5 12.4-14.5 6.6 0.1 10.1 4.5 10.1 10.5zm-16.2-0.7h10c0-4.7-1.2-7.9-4.5-7.9s-5.1 3.3-5.5 7.9z"/><path class="st0" d="m261.6 43.2-9.6 26.9h-2.5l-10.1-26.9-2.5 20.7c0 0.4-0.1 1.1-0.1 1.2 0 2.5 1.1 3 4.8 3.2v1.8h-11.6v-1.8c2.9-0.1 3.9-0.7 4.2-3l3.1-25c0-2.7-0.9-3.5-4.2-3.7v-1.6h11.3c0.1 1.1 0.4 2 0.8 3.1l8.2 21.8 7.6-21.9c0.4-1.1 0.7-1.9 0.8-3h11.2v1.8c-3.2 0.1-4.2 1-4.2 3.7l3.1 25c0.3 2.4 1.4 2.9 4.1 3v1.8h-16.3v-1.8c3.5-0.2 4.7-0.8 4.7-3.2 0-0.1 0-0.9-0.1-1.2z"/><path class="st0" d="m298.8 64.5c0 1.7 0.4 2.8 1.7 2.8 0.8 0 1.5-0.2 2-0.5l0.3 1.1c-1.5 1.7-3.3 2.6-5.7 2.6-2.7 0-4.5-1.6-5-4.4-1.6 2.1-4.2 4.3-7.8 4.3-4 0-6.8-2.5-6.8-6.5 0-4.3 3.1-6.1 6.8-7.5l7.6-2.8v-4.3c0-2.9-1-4.9-3.5-4.9-2.4 0-3.4 1.8-3.4 4.2 0 1 0.2 2 0.4 3.1l-4.2 0.5c-1.4-0.4-2.2-1.5-2.2-3.1 0-4.2 4.3-6.3 9.9-6.3 6.4 0 9.9 2.4 9.9 8.2zm-6.9 0.5v-9.4l-4.3 1.8c-2.1 0.8-3.4 2-3.4 4.8 0 2.6 1.2 4.5 3.9 4.5 1.4-0.1 2.4-0.7 3.8-1.7z"/><path class="st0" d="m318.8 34.4v-1.1l8.9-2.4h1.1v33.9c0 1.7 0.1 2.2 2 2.4l1.2 0.1v1.5l-9.1 1.8h-1.3l0.2-4.7c-2 2.9-4.5 4.7-8 4.7-6.1 0-10.1-4.9-10.1-12.5 0-9.5 5.6-14.9 12.8-14.9 2.3 0 4.2 0.7 5.4 1.8v-9zm-8.3 21.3c0 6.1 2.5 10.7 7.1 10.7 1.7 0 3.1-0.6 4.2-1.6v-13.3c0-3.9-1.6-6.2-4.7-6.2-4.2 0-6.6 4.1-6.6 10.4z"/><path class="st0" d="m343.7 65.8c0 2.1 1.2 2.4 4.2 2.6v1.6h-14.3v-1.6c2.4-0.2 3.2-0.5 3.2-2.2v-17.7l-3-1.8v-1l9-2.8h1.2l-0.2 7.4c2.4-5.5 3.9-7.4 6.9-7.4 1 0 1.8 0.3 2.2 0.9v5.4h-1c-3.1 0-5.6 0.2-8.1 2.7v13.9z"/><path class="st0" d="m364.2 66.2c0 1.8 0.8 2 3.2 2.2v1.6h-13.2v-1.6c2.4-0.2 3.2-0.5 3.2-2.2v-17.7l-3-1.8v-1l8.8-2.8h1.1v23.3zm-7.6-30.1c0-2.1 1.7-4 4.1-4 2.5 0 4.1 1.8 4.1 4 0 2.1-1.6 4-4.1 4-2.4 0-4.1-1.9-4.1-4z"/><path class="st0" d="m384.4 34.4v-1.1l8.9-2.4h1.1v33.9c0 1.7 0.1 2.2 2 2.4l1.2 0.1v1.5l-9.1 1.8h-1.3l0.2-4.7c-2 2.9-4.5 4.7-8.1 4.7-6 0-10.1-4.9-10.1-12.5 0-9.5 5.6-14.9 12.8-14.9 2.3 0 4.2 0.7 5.4 1.8v-9zm-8.3 21.3c0 6.1 2.5 10.7 7.1 10.7 1.7 0 3.1-0.6 4.2-1.6v-13.3c0-3.9-1.7-6.2-4.7-6.2-4.2 0-6.6 4.1-6.6 10.4z"/></g><g transform="translate(35.046 -57.288)"><g transform="matrix(1.5942 0 0 1.4819 109.48 148.96)" fill="#ff0027"><path d="m136.74 24.88v-24.88h-4.8573v10.169h-8.4216v-10.169h-4.8573v24.88h4.8573v-10.413h8.4216v10.413z"/><path d="m158.75 12.34q0-1.3978 0-2.7257 0-1.3628-0.20967-2.6208t-0.73383-2.4112q-0.52417-1.1532-1.5725-2.2015-1.223-1.223-2.9353-1.7822-1.6773-0.59405-3.6342-0.59405h-8.9807v24.88h8.9807q1.9569 0 3.6342-0.55911 1.7123-0.59406 2.9353-1.8171 1.0483-1.0483 1.5725-2.2364 0.52416-1.1881 0.73383-2.481t0.20967-2.6558q0-1.3978 0-2.7956zm-4.8573 0q0 2.8305-0.20966 4.3331-0.17473 1.5026-0.83867 2.3413-0.629 0.76877-1.5026 1.1532-0.8736 0.38439-2.1316 0.38439h-3.6692v-16.214h3.6692q1.258 0 2.1316 0.38439 0.87361 0.38439 1.5026 1.1532 0.34944 0.41933 0.55911 0.9435 0.20966 0.52416 0.3145 1.2929 0.10483 0.76877 0.13978 1.8171 0.0349 1.0134 0.0349 2.4112z"/></g></g></svg>
