<svg width="1310.8pt" height="338.84pt" version="1.1" viewBox="0 0 1310.8 338.84" xmlns="http://www.w3.org/2000/svg">
 <defs>
  <linearGradient id="a" x1="1221.9" x2="1221.9" y1="392.64" y2="70.574" gradientUnits="userSpaceOnUse">
   <stop stop-color="#01737e" offset="0"/>
   <stop stop-color="#017480" offset=".22334"/>
   <stop stop-color="#008a98" offset=".38765"/>
   <stop stop-color="#00a1b1" offset="1"/>
  </linearGradient>
 </defs>
 <g transform="translate(-52.02,-54.015)">
  <path d="m836.49 84.36c18.81-11.52 41.59-16.37 63.47-13.6 18.56 2.09 36.17 9.96 50.76 21.52 14.8-12.21 33.31-19.81 52.39-21.75 25.9-2.84 52.6 5.3 72.82 21.66 12.2-9.86 26.72-16.86 42.09-20.07 9.83-2.14 19.92-2.28 29.94-2.12h97.11c12.66 0.12 25.46-0.74 37.95 1.92 34.13 6.54 63.67 32.41 74.55 65.42 11.03 31.66 4.38 68.64-17 94.47 10.27 12.77 17.52 28.04 20.46 44.2 4.49 23.87-0.12 49.37-12.93 70.03-10.09 16.61-25.23 30.04-42.83 38.26-11.69 5.19-24.37 8.99-37.27 8.51-15.36-0.12-30.73 0.21-46.08-0.17l-182.78-19.1v-204.54c0.43-12.09-9.45-23.25-21.25-25.24-11.82-2.48-24.6 4.88-28.75 16.14-2.51 6.07-2.005 12.74-2.065 19.13v188.9l-72.95-7.49v-187.45c0.18-6.87-1.335-14.05-5.715-19.53-5.99-7.86-16.77-11.92-26.41-9.44-11.31 2.5-20.16 13.35-20.01 24.98l-0.18 185.77-73.11-7.97v-185.8c1.51-11.17 3.98-22.34 8.75-32.62 8.18-18.17 21.99-33.72 39.04-44.02m275.84 85.63v25.1h151.7c12.99 0.02 24.83-11.03 25.4-24.04 0.9-10.25-5.16-20.57-14.39-25.01-4.33-2.2-9.24-2.94-14.05-2.77h-121.96c-14.28-0.52-27.43 12.41-26.7 26.72m0 150.54h145.71c5.17 0.05 10.54 0.16 15.38-1.97 10.03-3.98 16.97-14.72 16.15-25.54-0.39-12.85-11.76-24.255-24.62-24.595h-152.62z" fill="url(#a)"/>
 </g>
 <g transform="translate(-52.02,-54.015)" fill="#fff">
  <path d="m52.02 129h149.44v22.755h-62.7v195.5h-24.5v-195.5h-62.235z"/>
  <path d="m313.27 54.015h30.67l-37.26 51.67h-27.51z"/>
  <path d="m236.76 129h135.72v22.755h-111.14v74.225h94.65v22.715h-94.65v76.05h111.12v22.51h-135.69z"/>
  <path d="m415.25 129h24.495v195.74h111.5v22.51h-136z"/>
  <path d="m662.74 54.015h30.67l-37.26 51.67h-27.51z"/>
  <path d="m586.23 129h135.72v22.755h-111.14v74.225h94.65v22.715h-94.65v76.05h111.12v22.51h-135.69z"/>
 </g>
</svg>
