<svg width="800" height="209.26" version="1.1" viewBox="0 0 800 209.26" xml:space="preserve" xmlns="http://www.w3.org/2000/svg">
<g transform="matrix(8.8009 0 0 8.8009 0 .066004)" fill="#ffc421">
	
		
			<path class="st0" d="m20.58 17.44c-0.2 1.43-1.29 2.51-2.72 2.72-1.9 0.27-3.8 0.34-5.71 0.34s-3.8-0.14-5.71-0.34c-1.43-0.2-2.51-1.29-2.72-2.72-0.2-1.83-0.34-3.67-0.34-5.57 0-1.83 0.14-3.74 0.34-5.57 0.2-1.43 1.29-2.51 2.72-2.72 3.74-0.48 7.61-0.48 11.34 0 1.43 0.2 2.51 1.29 2.72 2.72 0.2 1.83 0.34 3.67 0.34 5.57 0.08 1.9 0.01 3.74-0.26 5.57m3.2-13.25c-0.27-1.97-1.83-3.53-3.8-3.74-5.23-0.61-10.46-0.61-15.69 0-1.97 0.2-3.53 1.77-3.8 3.74-0.35 2.52-0.49 5.1-0.49 7.68s0.14 5.16 0.48 7.68c0.27 1.97 1.83 3.53 3.8 3.74 2.58 0.34 5.23 0.48 7.81 0.48 2.65 0 5.23-0.14 7.81-0.48 1.97-0.2 3.53-1.77 3.8-3.74 0.34-2.58 0.48-5.09 0.48-7.68 0.14-2.58-0.06-5.16-0.4-7.68"/>
		
		
			<path class="st0" d="m13.45 9.7c0.54-0.07 1.09-0.14 1.7-0.07 0.61 0 1.22 0.07 1.77 0.2 0.07 0 0.14 0 0.2-0.07v-1.29c0-0.14-0.14-0.14-0.14-0.14-0.61-0.14-1.22-0.27-1.83-0.27-0.54 0-1.15 0.07-1.7 0.14 0 0-0.14 0.07-0.14 0.14v1.15c0 0.21 0.14 0.21 0.14 0.21"/>
		
		<path class="st0" d="m9.1 10.44s1.9 0 1.9-1.56-1.9-1.56-1.9-1.56-1.9 0-1.9 1.56 1.9 1.56 1.9 1.56"/>
		
			<path class="st0" d="m17.25 13.57c-3.12 1.9-7 1.9-10.12 0 0 0-0.27-0.2-0.27 0.14v0.61c0 0.14 0.14 0.27 0.2 0.41 2.92 2.51 7.27 2.51 10.19 0 0.14-0.14 0.2-0.27 0.2-0.41v-0.62c0.08-0.33-0.2-0.13-0.2-0.13"/>
		
	
</g>
<g transform="matrix(8.8009 0 0 8.8009 0 .066004)" fill="#9b9b9b">
	<g fill="#9b9b9b">
		<path class="st1" d="m33.79 16.49v-7.28h-1.54c-0.81 0-1.43-0.51-1.43-1.21 0-0.68 0.62-1.18 1.43-1.18h6.04c0.81 0 1.43 0.5 1.43 1.18 0 0.7-0.62 1.21-1.43 1.21h-1.59v7.28c0 0.69-0.65 1.22-1.46 1.22s-1.45-0.53-1.45-1.22z"/>
		<path class="st1" d="m40.39 16.5v-8.5c0-0.68 0.62-1.18 1.44-1.18h4.19c0.82 0 1.33 0.5 1.33 1.18 0 0.7-0.52 1.21-1.33 1.21h-2.72v1.7h2.46c0.82 0 1.33 0.51 1.33 1.19 0 0.69-0.51 1.21-1.33 1.21h-2.46v2.02h3.03c0.82 0 1.33 0.5 1.33 1.19s-0.51 1.2-1.33 1.2h-4.5c-0.82-0.02-1.44-0.52-1.44-1.22z"/>
		<path class="st1" d="m48.47 16.5v-8.48c0-0.68 0.64-1.2 1.45-1.2 0.82 0 1.46 0.51 1.46 1.2v7.3h2.91c0.82 0 1.47 0.51 1.47 1.19s-0.65 1.2-1.47 1.2h-4.37c-0.81-0.01-1.45-0.52-1.45-1.21z"/>
		<path class="st1" d="m56.25 16.5v-8.5c0-0.68 0.62-1.18 1.44-1.18h4.19c0.82 0 1.33 0.5 1.33 1.18 0 0.7-0.52 1.21-1.33 1.21h-2.72v1.7h2.46c0.82 0 1.33 0.51 1.33 1.19 0 0.69-0.51 1.21-1.33 1.21h-2.46v2.02h3.03c0.82 0 1.33 0.5 1.33 1.19s-0.51 1.2-1.33 1.2h-4.5c-0.82-0.02-1.44-0.52-1.44-1.22z"/>
		<path class="st1" d="m64.34 16.49v-8.3c0-0.69 0.57-1.37 1.46-1.37h0.19c1.2 0 1.7 0.71 2.38 1.95 0.47 0.84 1.18 2.42 1.57 3.27v-4.01c0-0.69 0.64-1.22 1.45-1.22s1.46 0.52 1.46 1.22v8.35c0 0.69-0.61 1.32-1.46 1.32h-0.16c-0.67 0-1.01-0.19-1.28-0.43-0.52-0.46-0.95-1.19-1.68-2.59-0.34-0.67-0.7-1.32-1.02-2.03v3.84c0 0.69-0.64 1.22-1.45 1.22-0.81-0.01-1.46-0.53-1.46-1.22z"/>
		<path class="st1" d="m74.48 16.5v-8.5c0-0.68 0.62-1.18 1.44-1.18h4.19c0.82 0 1.33 0.5 1.33 1.18 0 0.7-0.52 1.21-1.33 1.21h-2.72v1.7h2.46c0.82 0 1.33 0.51 1.33 1.19 0 0.69-0.51 1.21-1.33 1.21h-2.46v2.02h3.03c0.82 0 1.33 0.5 1.33 1.19s-0.51 1.2-1.33 1.2h-4.5c-0.82-0.02-1.44-0.52-1.44-1.22z"/>
		<path class="st1" d="m84.97 16.49v-7.28h-1.54c-0.81 0-1.43-0.51-1.43-1.21 0-0.68 0.62-1.18 1.43-1.18h6.04c0.82 0 1.43 0.5 1.43 1.18 0 0.7-0.62 1.21-1.43 1.21h-1.58v7.28c0 0.69-0.65 1.22-1.46 1.22-0.82-0.01-1.46-0.53-1.46-1.22z"/>
	</g>
</g>
</svg>
