<svg width="800" height="649.75" version="1.1" viewBox="0 0 800 649.75" xmlns="http://www.w3.org/2000/svg">
 <path class="cls-1" d="m776.48 0.0027607h-752.04c-13.501 0-24.446 10.945-24.446 24.446v601.18c0 13.324 10.801 24.124 24.124 24.124h751.72c13.251-0.1737 23.951-10.873 24.124-24.124v-601.18c0.74821-13.418-10.044-24.654-23.481-24.446z" fill="#1d9ad3" stroke-width="32.166"/>
 <g transform="matrix(32.166 0 0 32.166 0 .0027607)" data-name="Ebene 2">
  <g data-name="2019">
   <path class="cls-1" d="m21.93 3.11v1h-2.09v0.89h2.38v1h-3.62v-4.72h3.63v1h-2.39v0.84zm-5.11 1.89v1.05h-3.47v-4.77h1.24v3.72zm-5.75-1.89v1h-2.07v0.89h2.39v1h-3.65v-4.72h3.62v1h-2.36v0.84zm-9-0.76v-1.07h4.07v1.07h-1.42v3.7h-1.24v-3.7zm21.62 16.82h-22.48v-11.85h22.48z" fill="#fff"/>
  </g>
 </g>
 <path class="cls-1" d="m258.93 402.4 47.284 173.05 40.851 0.32166v-0.32166h14.796l75.911-171.12v171.12h89.743v-299.79h-120.3l-60.15 136.7-37.312-137.03-46.319 0.32166h-48.57l-133.17 299.79h98.427zm364.44 173.05h90.708v-299.79l-126.41-0.32166-31.523 68.835h67.227z" fill="#1d9ad3" stroke-width="32.166"/>
</svg>
