<svg enable-background="new 0 0 210 50" version="1.1" viewBox="0 0 1016.8 200" xml:space="preserve" xmlns="http://www.w3.org/2000/svg"><defs><linearGradient id="e" gradientTransform="matrix(118.51 205.26 -205.26 118.51 60.094 20.053)" gradientUnits="userSpaceOnUse"><stop stop-color="#cf1c23" offset="0"/><stop stop-color="#c11b22" offset=".2191"/><stop stop-color="#c11b22" offset=".6573"/><stop stop-color="#ed1c24" offset="1"/></linearGradient><linearGradient id="f" gradientTransform="matrix(89.636,51.751,51.751,-89.636,222.44,-599.65)" gradientUnits="userSpaceOnUse"><stop stop-color="#961a1f" offset="0"/><stop stop-color="#961a1f" offset=".79775"/><stop stop-color="#ac1b21" offset="1"/></linearGradient><linearGradient id="g" gradientTransform="matrix(17.509,-99.298,-99.298,-17.509,310.45,-474.71)" gradientUnits="userSpaceOnUse"><stop stop-color="#451b1a" offset="0"/><stop stop-color="#501d1d" offset=".23596"/><stop stop-color="#501d1d" offset=".83708"/><stop stop-color="#772323" offset="1"/></linearGradient><linearGradient id="h" gradientTransform="matrix(118.51 205.26 -205.26 118.51 60.094 20.053)" gradientUnits="userSpaceOnUse"><stop stop-color="#892021" offset="0"/><stop stop-color="#821f20" offset=".2191"/><stop stop-color="#821f20" offset=".6573"/><stop stop-color="#952122" offset="1"/></linearGradient>
</defs>
<g fill="#777d7a"><g transform="matrix(4.4743,0,0,4.4743,-9.8435,-10.291)">
		<path d="m64.6 9.9v-3.9h15.2v3.9h-5.4v13.7h-4.6v-13.7z"/>
		<path d="m95.4 12.8v3.4h-8.6v3.4h9.8v4h-14.4v-17.6h14v3.6h-9.4v3.2z"/>
		<path d="m99.6 23.6v-17.6h4.6v13.6h8.2v4z"/>
		<path d="m128.4 12.8v3.4h-8.6v3.4h9.6v4h-14.2v-17.6h14v3.6h-9.4v3.2z"/>
	</g><g transform="matrix(4.4743,0,0,4.4743,-9.8435,-10.291)">
		<path d="m144.3 12.2c-0.2-1.7-1.6-2.7-3.6-2.7-3 0-4.1 2.7-4.1 5.2 0 2.7 1.1 5.2 4.1 5.2 2.2 0 3.4-1.2 3.6-3.3h4.6c-0.2 4.5-3.6 7.2-8.1 7.2-5.3 0-8.8-4.1-8.8-9.2s3.5-9.2 8.8-9.2c3.8 0 7.9 2.5 8.1 6.7h-4.6z"/>
		<path d="m151.8 23.6v-17.6h4.6v13.6h8.2v4z"/>
		<path d="m182.6 16.3c0 5.1-2.4 7.7-7.7 7.7s-7.7-2.6-7.7-7.7v-10.3h4.6v10.7c0 2.3 0.8 3.4 3.1 3.4s3.1-1.1 3.1-3.4v-10.7h4.6z"/>
		<path d="m186.2 6h8.2c3.1 0 6.3 0.7 6.3 4.4 0 1.5-0.9 2.9-2.4 3.6 1.8 0.5 3.1 2.2 3.1 4.2 0 4.2-3.1 5.4-6.9 5.4h-8.5v-17.6zm4.5 6.9h3.6c0.8 0 1.8-0.4 1.8-1.6 0-1.3-0.9-1.7-1.8-1.7h-3.6zm0 7h3.7c1.4 0 2.5-0.5 2.5-1.9 0-1.5-1.1-2-2.5-2h-3.7z"/></g></g>
<g transform="translate(.30697 -.00233)"><path d="m31.115 200-31.114-7.434 12.267-144.92 193.73-47.652 16.537 24.825 10.268 169.18-201.69 5.9977m9.1615-122.36-4.9496 70.361 29.523-2.8727 98.642-9.608-1.514-58.152-0.54348-22.865-91.984 17.566v-0.01941l-29.173 5.5901" fill="url(#e)" stroke-width="1.941"/><g transform="matrix(1.941,0,0,-1.941,-402.33,-920.4)" fill-rule="evenodd"><path d="m207.28-573.4 16.03-3.83 103.91 3.09-9.4 4.85-110.54-4.11" fill="url(#f)"/><path d="m313.41-474.19 8.52-12.79 5.29-87.16-9.4 4.85-4.41 95.1" fill="url(#g)"/><path d="m225.48-550.44 2.55 36.25 13.74-7.95-1.08-26.82-15.21-1.48" fill="#501d1c"/><path d="m228.03-514.19 62.42 11.92 0.28-11.78-48.96-8.09-13.74 7.95" fill="#961a1f"/></g><path d="m40.276 77.643 29.173-5.5901v0.01941l-29.173 5.5707" fill="url(#h)" stroke-width="1.941"/><path d="m66.946 93.074-26.669-15.431 26.669 15.431" fill="#501d1c" stroke-width="1.941"/><path d="m66.946 93.074-26.669-15.431 29.173-5.5707-2.5039 21.002" fill="#701d1e" stroke-width="1.941"/></g>
<g transform="translate(0 1.7897)" fill="#b61d1b" stroke-width="4.6779"><path d="m861.93 114.09h21.517v30.405h26.663v-30.405h21.517v82.327h-21.517v-33.679h-26.663v33.679h-21.517v-32.276z"/><path d="m942.42 114.09h36.954c2.3388 0.46774 4.6774 0.46774 6.5486 0.93553 7.4842 0.93553 14.501 4.2099 19.646 9.3553 3.7422 3.7421 6.5486 8.4197 8.4198 13.098 1.8711 4.6779 2.8066 10.291 2.8066 15.436 0 5.613-0.4678 11.226-1.8711 16.839-1.4033 4.6779-3.2743 9.3553-6.5486 13.565-2.8066 3.7421-6.5486 6.5486-10.291 8.4197-6.081 3.2744-13.098 4.6779-20.114 4.6779h-36.018v-58.47c0.46774-7.9522 0.46774-15.904 0.46774-23.856m21.517 18.711v45.839c5.1454 0 10.291 0.46774 15.436-0.46779 4.2099-0.46774 8.8878-1.8711 11.694-5.1454 3.2744-3.7421 4.2099-8.4197 4.6779-13.565 0.46774-3.7421 0.46774-7.4842-0.46779-11.694-0.93553-3.7421-2.8066-7.9522-5.613-10.291-4.2099-3.7421-9.8229-4.6779-14.968-4.6779z"/></g><g fill="#fff"><g transform="matrix(4.4743,0,0,4.4743,-9.8435,-10.291)" stroke-width="1.0455">
		<path d="m143.67 28.2h4.8091v18.4h-4.8091z"/>
		<path d="m186.15 28.2v18.4h-4.9136l-6.3773-11.395h-0.10454v11.395h-4.4954v-18.4h4.9136l6.3773 11.395h0.10455v-11.395z"/>
	</g><path d="m619.69 115.88v18.461h-24.947v63.866h-21.455v-63.866h-24.449v-18.461z" stroke-width="4.9895"/><path d="m704.53 180.51c13.294 0 18.379-11.732 18.379-23.465s-5.0854-23.445-18.379-23.445c-13.274 0-18.359 11.712-18.359 23.445s5.0854 23.465 18.359 23.465zm0-64.628c24.906 0 38.961 18.259 38.961 41.164s-14.055 41.164-38.961 41.164c-24.886 0-38.941-18.259-38.941-41.164s14.055-41.164 38.941-41.164" stroke-width="2.0021"/><path d="m345.41 147.69v16.84h-40.228v15.904h45.841v17.775h-67.359v-82.327h65.955v17.307h-44.438v14.501z" stroke-width="4.6777"/><path d="m457.21 115.88v82.327h-20.114v-62.213h-0.46777l-17.307 62.213h-16.372l-17.307-62.213h-0.46777v62.213h-20.114v-82.327h31.808l14.501 55.197 14.033-55.197z" stroke-width="4.6777"/><path d="m505.6 180.51c13.294 0 18.379-11.732 18.379-23.465s-5.0854-23.445-18.379-23.445c-13.274 0-18.359 11.712-18.359 23.445s5.0854 23.465 18.359 23.465zm0-64.628c24.906 0 38.961 18.259 38.961 41.164s-14.055 41.164-38.961 41.164c-24.886 0-38.941-18.259-38.941-41.164s14.055-41.164 38.941-41.164" stroke-width="2.0021"/></g></svg>
