<svg clip-rule="evenodd" fill-rule="evenodd" stroke-linejoin="round" stroke-miterlimit="1.414" version="1.1" viewBox="0 0 800 441.96" xmlns="http://www.w3.org/2000/svg">
 <defs>
  <radialGradient id="a" cx="147.08" cy="693.6" r="399.96" gradientTransform="matrix(.85373 -3.4451e-8 3.7058e-8 .91835 -44.313 -253.77)" gradientUnits="userSpaceOnUse">
   <stop stop-color="#00d8fc" offset="0"/>
   <stop stop-color="#0099cb" offset="1"/>
  </radialGradient>
 </defs>
 <path d="m579.01 441.96c121.73 0 220.99-99.286 220.99-220.96 0-121.73-99.263-221-220.99-221-121.7 0-220.92 99.275-220.92 221 0 121.67 99.217 220.96 220.92 220.96" fill="#fff" fill-rule="nonzero" stroke-width="11.485"/>
 <path d="m220.92 441.96c121.73 0 220.99-99.286 220.99-220.96 0-121.73-99.263-221-220.99-221-121.7 1e-13 -220.92 99.275-220.92 221 0 121.67 99.217 220.96 220.92 220.96" fill="url(#a)" fill-rule="nonzero" stroke-width="11.485"/>
 <g transform="matrix(2.7972 0 0 2.7972 -8.3916e-6 -1795.8)" fill-rule="nonzero" stroke-width="20.789">
  <g transform="matrix(.1975 0 0 .1975 .9876 642.99)" fill="#005370">
   <path d="m276.89 448.25a47.046 47.046 0 0 0 47.586 47.69c26.797 0 48.438-20.831 48.438-47.69a48.355 48.355 0 0 0-48.438-48.397c-26.693 0-47.586 21.621-47.586 48.397"/>
   <path d="m233.01 588.27c26.028 4.4904 52.16 5.9872 86.378 5.9872 153.32 0 235.93-54.405 235.93-147.44 0-87.168-75.963-136.98-204.71-136.98-26.797 0-47.669 0.66525-67.772 2.2036l-31.246 72.221c24.573-1.5592 42.451-1.5592 75.152-1.5592 103.53 0 143.74 26.922 143.74 66.317 0 38.813-46.879 69.976-148.91 69.976-20.789 0-38.73-0.68603-57.357-2.9312zm77.335-349.94c14.178-33.45 35.819-46.089 73.011-46.089h174.21l-5.1557 14.157c-4.5112 11.871-23.928 63.199-80.474 63.199h-107.94c-44.613 0-67.731 2.9936-67.731 2.9936l14.074-34.26"/>
  </g>
  <g transform="matrix(.1975 0 0 .1975 2.4075e-6 642)" fill="#fff">
   <path d="m276.89 448.25a47.046 47.046 0 0 0 47.586 47.69c26.797 0 48.438-20.831 48.438-47.69a48.355 48.355 0 0 0-48.438-48.397c-26.693 0-47.586 21.621-47.586 48.397"/>
   <path d="m230.01 585.27c26.028 4.4904 52.16 5.9872 86.378 5.9872 153.32 0 235.93-54.405 235.93-147.44 0-87.168-75.963-136.98-204.71-136.98-26.797 0-47.669 0.66525-67.772 2.2036l-31.246 72.221c24.573-1.5592 42.451-1.5592 75.152-1.5592 103.53 0 143.74 26.922 143.74 66.317 0 38.813-46.879 69.976-148.91 69.976-20.789 0-38.73-0.68603-57.357-2.9312zm77.335-349.94c14.178-33.45 35.819-46.089 73.011-46.089h174.21l-5.1557 14.157c-4.5112 11.871-23.928 63.199-80.474 63.199h-107.94c-44.613 0-67.731 2.9936-67.731 2.9936l14.074-34.26"/>
  </g>
 </g>
 <g transform="matrix(3.7296 0 0 3.7296 441.34 126.15)" fill="#0db0df">
  <path transform="scale(.75)" d="m51.982 11.42c-0.75949-5.5e-5 -1.3633 0.80968-1.3633 1.8281v41.172c0 1.0184 0.60374 1.9664 1.3633 1.9664h13.908c13.5 0 22.05-6.3922 22.05-22.441 0-16.302-7.9481-22.525-22.05-22.525zm13.908 7.2424c9.3035 0.17539 14.093 6.1494 14.093 15.283 0 10.431-4.9637 15.283-14.093 15.283h-6.8861v-30.566z" stroke-width="1.0151"/>
  <path transform="scale(.75)" d="m11.84 11.42c-0.73616 0-1.3203 0.80968-1.3203 1.8281v41.172c0 1.0184 0.5841 1.9668 1.3203 1.9668h5.4863c0.73616 0 1.3203-0.94839 1.3203-1.9668v-17.744h18.885v17.744c0 1.0184 0.5841 1.9668 1.3203 1.9668h5.4844c0.73615 0 1.3203-0.94839 1.3203-1.9668v-41.172c0.09808-1.0109-0.58416-1.8281-1.3203-1.8281h-5.4844c-0.73615 0-1.3203 0.80968-1.3203 1.8281v16.682h-18.885v-16.682c0.09808-1.0109-0.58416-1.8281-1.3203-1.8281z" stroke-width=".66726"/>
 </g>
</svg>
