<svg width="800" height="800" version="1.1" viewBox="0 0 800 800" xmlns="http://www.w3.org/2000/svg">
 <path class="cls-1" d="m0 0v800h800v-800z" fill="#01ca48" stroke-width="6.2054"/>
 <g fill="#fff" stroke-width="6.2054">
  <path class="cls-2" d="m180.76 348.31c-1.7996 4.8402-7.4465 4.8402-9.5563 4.8402h-27.056l-26.249 105.68a59.944 59.944 0 0 0-2.9165 14.769c0 1.8616 0.62054 3.9714 2.4822 3.9714s8.7496-3.1648 22.774-22.277c0 0 1.117-1.3652 6.2054-10.053 1.0549-1.9857 2.6683-5.2125 6.2054-5.2125a6.7018 6.7018 0 0 1 6.7639 6.2054c0 4.4679-5.3987 13.652-10.301 20.602-1.0549 1.4893-26.497 38.225-48.402 38.225-11.604 0-17.561-11.17-18.182-22.277a110.58 110.58 0 0 1 5.0884-31.027l24.822-98.48h-18.368a16.072 16.072 0 0 1-5.0264-0.6826 6.2054 6.2054 0 0 1-4.654-5.6469c-0.55849-9.9286 7.2603-9.9286 10.984-9.9286h20.664l8.9978-35.495a11.046 11.046 0 0 1 11.418-6.2054h8.9978c8.8117 0 10.425 4.2817 10.549 6.8259a39.59 39.59 0 0 1-1.6754 10.363l-6.2054 24.822h25.504c7.5085 0 8.3773 3.9094 8.5014 5.5849a12.411 12.411 0 0 1-1.3652 5.3987z"/>
  <path class="cls-2" d="m257.96 291.96 1.7996-0.93081 44.741-23.581a47.409 47.409 0 0 1 19.981-6.8259 13.217 13.217 0 0 1 14.024 12.038c0.62054 10.797-10.611 14.583-17.437 16.817l-56.593 18.616a37.232 37.232 0 0 1-9.8045 2.1719 7.1362 7.1362 0 0 1-7.5706-7.1362c-0.31027-5.2746 6.1433-8.7496 10.859-11.17z"/>
  <path d="m291.28 331.62c-57.276 0-110.33 56.655-106.92 114.37 2.0478 34.812 26.31 59.137 58.889 59.137 24.077 0 49.023-12.906 68.818-35.432l0.61914-0.80664c6.4536-8.067 8.627-12.163 8.627-15.266a6.2054 6.2054 0 0 0-6.207-6.2051 8.005 8.005 0 0 0-6.5762 4.2812c-9.7425 15.203-31.213 31.027-51.877 31.027-21.657 0-35.497-13.9-36.924-37.232l-0.43359-7.6328v-2.7305l6.2051-0.7461c40.707-4.7161 116.41-13.03 113.31-65.527-1.4893-24.449-25.008-37.232-47.533-37.232zm-2.1406 13.639a16.568 16.568 0 0 1 17.033 16.58 49.209 49.209 0 0 1-9.6797 31.027c-13.155 18.182-47.161 25.318-75.209 27.986 7.3844-32.02 29.847-75.457 66.148-75.457a16.568 16.568 0 0 1 1.707-0.13672z"/>
  <path class="cls-2" d="m405.9 505.12c-24.077 0-37.232-11.418-38.349-33.944a116.48 116.48 0 0 1 8.1911-36.053l22.215-62.799c0-0.74465 0.55848-1.6134 0.99286-2.6063a47.285 47.285 0 0 0 3.3509-11.666c0-1.6754-0.8067-1.7996-1.6755-1.7996-6.2054 0-23.022 18.616-28.607 27.862a8.8737 8.8737 0 0 1-6.888 4.7782 6.2054 6.2054 0 0 1-6.2054-6.2054 17.375 17.375 0 0 1 3.7232-8.9358l0.8067-1.4272a98.604 98.604 0 0 1 25.256-26.869c11.542-8.9358 21.409-13.466 29.414-13.466a15.948 15.948 0 0 1 17.065 16.258 65.901 65.901 0 0 1-5.0884 25.566l-0.43437 1.3031-24.822 71.176a76.264 76.264 0 0 0-5.3987 25.318 15.513 15.513 0 0 0 15.762 14.955c40.397 0 85.51-71.921 83.401-107.42a21.098 21.098 0 0 0-4.4679-12.411 34.874 34.874 0 0 1-8.5634-19.237c-0.49643-7.8188 4.4679-19.113 14.645-19.113 13.28 0 19.299 17.809 19.981 29.041 3.1648 54.049-52.063 147.69-114.3 147.69z"/>
  <path d="m694.51 328.33c-12.907 0-14.335 2.6677-16.631 12.41a36.488 36.488 0 0 0-26.807-9.0606c-29.289 0-62.053 16.446-86.875 43.936-19.361 21.347-39.094 58.144-37.232 89.605 1.179 19.919 12.223 39.963 34.314 39.963 37.356 0 74.714-48.837 95.316-81.043l-11.729 46.416v0.74609a69.625 69.625 0 0 0-2.7305 20.043 13.652 13.652 0 0 0 14.086 13.775c18.616 0 40.955-24.51 43.438-27.303 0.18617 0 18.741-22.589 18.244-31.711a6.7018 6.7018 0 0 0-6.2051-6.2051c-4.2817 0-6.2064 4.4067-8.5645 8.0059a116.91 116.91 0 0 1-23.643 27.303c-1.9237 1.5514-1.9219-1.6133-1.9219-1.6133a52.063 52.063 0 0 1 1.7363-10.674l29.973-120.01a14.521 14.521 0 0 1 0.4336-1.6758 24.387 24.387 0 0 0 0.93164-6.2051s0.93008-7.0735-16.135-6.7012zm-43.438 17.064c5.8951 0 19.794 1.4269 20.539 14.893 0.74465 13.466-22.525 50.264-34.936 66.895-25.194 33.571-46.726 52.188-60.75 52.188-10.363 0-13.839-11.914-14.211-18.119-1.3031-21.285 15.265-56.656 27.676-72.977 9.246-12.907 33.881-42.879 61.682-42.879z"/>
 </g>
</svg>
