<svg width="800" height="202.99" version="1.1" viewBox="0 0 800 202.99" xmlns="http://www.w3.org/2000/svg">
 <linearGradient id="a" x2="39.343" y1="19.9" y2="19.9" gradientTransform="scale(1.6583 .60302)" gradientUnits="userSpaceOnUse">
  <stop stop-color="#020186" offset="0"/>
  <stop stop-color="#0500e7" offset=".506"/>
  <stop stop-color="#02a7e6" offset="1"/>
 </linearGradient>
 <radialGradient id="b" cx="12.856" cy="0" r="40.563" gradientTransform="scale(2.0893 .47863)" gradientUnits="userSpaceOnUse">
  <stop stop-color="#fff" offset="0"/>
  <stop stop-color="#fff" stop-opacity="0" offset="1"/>
 </radialGradient>
 <g transform="matrix(8.4578 0 0 8.4578 0 6.3336e-6)" fill-rule="evenodd">
  <path d="m66 0h-66v24h66z" fill="url(#a)"/>
  <path d="m5.161 3.674v5.78h3.833v10.96h7.337v-10.961h3.833v-5.78zm24.062 0v16.74h7.336v-5.272h4.508v-4.192h-4.508v-3.085h6.304v-4.192zm29.931-0.087v16.826h-7.606v-14.67z" fill="#fff"/>
  <path d="m66 0v6.766c-33.032-1.815-66 8.354-66 8.354v-15.12z" fill="url(#b)" fill-opacity=".8" opacity=".6"/>
 </g>
 <path d="m596.98 172.64h9.5235v-28.9h15.08v-7.4344h-15.072v-21.567h19.064v-7.6459h-28.587zm36.199 0h9.422v-65.548h-9.422zm28.198-65.548h-9.4305v65.548h25.653v-7.6374h-16.222zm45.444 40.631-11.207-40.631h-10.369v65.548h8.2718v-47.846l9.0076 33.611h8.5847l8.9991-33.721v47.956h8.2802v-65.548h-10.369zm40.132-40.631c-6.4956 0-9.735 3.0702-9.735 9.219v17.271c0 6.2165 3.1717 9.3205 9.5235 9.3205h7.7558c1.2518 0 2.0722 0.19453 2.4528 0.57513 0.38906 0.38906 0.57513 1.201 0.57513 2.4612v16.011c0 1.2687-0.18607 2.0891-0.57513 2.4612-0.3806 0.39752-1.201 0.59205-2.4528 0.59205h-4.4065c-1.2518 0-2.0891-0.19453-2.512-0.59205-0.42289-0.37214-0.62588-1.1841-0.62588-2.4528v-8.1702h-9.532v9.6419c0 6.1404 3.2478 9.219 9.7265 9.219h10.175c6.5548 0 9.8364-3.0786 9.8364-9.219v-18.844c0-6.1488-3.214-9.219-9.6419-9.219h-7.629c-1.2687 0-2.0891-0.19453-2.5204-0.58359-0.4229-0.3806-0.62588-1.201-0.62588-2.4528v-14.547c0-1.2687 0.21144-2.0806 0.62588-2.4697 0.42289-0.3806 1.2602-0.57513 2.5204-0.57513h4.3896c1.2602 0 2.0975 0.19453 2.5204 0.57513 0.41443 0.38906 0.61742 1.201 0.61742 2.4612v8.1703h9.532v-9.6335c0-6.1488-3.2478-9.219-9.735-9.219zm-140.23-76.019c-6.4956 0-9.735 3.0786-9.735 9.2106v17.279c0 6.2165 3.1801 9.3205 9.5235 9.3205h7.7474c1.2602 0 2.0806 0.19452 2.4697 0.57513 0.3806 0.38906 0.56667 1.201 0.56667 2.4612v16.019c0 1.2602-0.18607 2.0806-0.56667 2.4528-0.38906 0.38906-1.2095 0.59204-2.4697 0.59204h-4.3981c-1.2518 0-2.0891-0.20298-2.512-0.59204-0.42289-0.37215-0.62587-1.1926-0.62587-2.4528v-8.1703h-9.532v9.6335c0 6.1488 3.2478 9.219 9.7434 9.219h10.149c6.5633 0 9.8449-3.0702 9.8449-9.219v-18.844c0-6.1404-3.214-9.219-9.6419-9.219h-7.629c-1.2687 0-2.0975-0.18607-2.5204-0.57513-0.42289-0.38061-0.62588-1.201-0.62588-2.4528v-14.556c0-1.2518 0.21145-2.0722 0.62588-2.4612 0.42289-0.38906 1.2602-0.57513 2.5204-0.57513h4.3896c1.2602 0 2.0975 0.18607 2.5204 0.57513 0.41443 0.38906 0.62588 1.2095 0.62588 2.4612v8.1702h9.5235v-9.6419c0-6.1319-3.2478-9.2106-9.735-9.2106zm28.934 0v65.548h28.477v-7.6374h-18.954v-22.413h15.08v-7.6459h-15.08v-20.206h18.218v-7.6459zm98.762 0v65.548h28.477v-7.6374h-18.946v-22.413h15.072v-7.6459h-15.072v-20.206h18.218v-7.6459zm45.376 0c-6.4956 0-9.735 3.0786-9.735 9.2106v17.279c0 6.2165 3.1801 9.3205 9.532 9.3205h7.7474c1.2518 0 2.0722 0.19452 2.4528 0.57513 0.38906 0.38906 0.58359 1.201 0.58359 2.4612v16.019c0 1.2602-0.19453 2.0806-0.57513 2.4528-0.38906 0.38906-1.2095 0.59204-2.4612 0.59204h-4.4065c-1.2433 0-2.0891-0.20298-2.512-0.59204-0.42289-0.37215-0.62588-1.1926-0.62588-2.4528v-8.1703h-9.5404v9.6335c0 6.1488 3.2563 9.219 9.7434 9.219h10.149c6.5717 0 9.8534-3.0702 9.8534-9.219v-18.844c0-6.1404-3.214-9.219-9.6419-9.219h-7.6374c-1.2687 0-2.0891-0.18607-2.512-0.57513-0.42289-0.38061-0.62588-1.201-0.62588-2.4528v-14.556c0-1.2518 0.20299-2.0722 0.62588-2.4612s1.2518-0.57513 2.512-0.57513h4.3981c1.2602 0 2.0891 0.18607 2.512 0.57513 0.41443 0.38906 0.62588 1.2095 0.62588 2.4612v8.1702h9.532v-9.6419c0-6.1319-3.2563-9.2106-9.7434-9.2106zm-131.44-10.97-4.8294 8.5847h6.8255l6.8762-8.5847zm23.809 10.97v65.548h9.422v-26.49h5.1339l9.8449 26.49h10.149l-10.369-26.701c4.6772-0.7612 7.02-3.806 7.02-9.1091v-20.527c0-6.1319-3.2394-9.2106-9.7434-9.2106zm9.422 7.6459h9.2106c1.2602 0 2.0975 0.18607 2.5204 0.57513 0.41443 0.38906 0.61742 1.2095 0.61742 2.4612v17.804c0 1.2518-0.20299 2.0722-0.61742 2.4612-0.4229 0.3806-1.2602 0.57513-2.5204 0.57513h-9.2106zm32.876 57.902h9.422v-65.548h-9.422z" fill="#fff" stroke-width="8.4578"/>
</svg>
