<svg width="800.01" height="214.29" space="preserve" version="1.1" viewBox="0 0 800.01 214.29" xmlns="http://www.w3.org/2000/svg">
 <defs>
  <linearGradient id="SVGID_1_" x1="-1857.8" x2="-1856.7" y1="1048.1" y2="1048" gradientTransform="matrix(61.811,0,0,-24,114811,25165)" gradientUnits="userSpaceOnUse">
   <stop stop-color="#020186" offset="0"/>
   <stop stop-color="#0500E7" offset=".5057"/>
   <stop stop-color="#2EE9FD" offset="1"/>
  </linearGradient>
  <linearGradient id="SVGID_2_" x1="-1857.9" x2="-1856.7" y1="1048.1" y2="1048" gradientTransform="matrix(62,0,0,-24,115168,25165)" gradientUnits="userSpaceOnUse">
   <stop stop-color="#020186" offset="0"/>
   <stop stop-color="#0500E7" offset=".5057"/>
   <stop stop-color="#2EE9FD" offset="1"/>
  </linearGradient>
  <radialGradient id="SVGID_3_" cx="-1829.1" cy="1153.5" r=".8792" gradientTransform="matrix(0 162.97 276.41 0 -318582 298089)" gradientUnits="userSpaceOnUse">
   <stop stop-color="#fff" offset="0"/>
   <stop stop-color="#fff" stop-opacity="0" offset="1"/>
  </radialGradient>
 </defs>
 <path d="m710.84 101.15h9.8283v-68.281h-9.8283zm30.743-7.9571h19.752v7.9571h-29.687v-68.281h28.921v7.9665h-18.996v21.051h15.72v7.9571h-15.711zm48.384-3.1599v-16.689c0-1.3183-0.2037-2.1618-0.6006-2.5684-0.407-0.39871-1.2601-0.60098-2.5584-0.60098h-8.0835c-6.6197 0-9.9342-3.2376-9.9342-9.7113v-17.998c0-6.3972 3.3924-9.5952 10.147-9.5952h10.7c6.7652 0 10.147 3.1981 10.147 9.5952v10.041h-9.9244v-8.5093c0-1.3083-0.2245-2.1614-0.6588-2.5589-0.4365-0.40705-1.3087-0.60099-2.617-0.60099h-4.5845c-1.3183 0-2.1805 0.1952-2.6166 0.60099-0.44606 0.38627-0.65915 1.2606-0.65915 2.5589v15.158c0 1.3083 0.21192 2.171 0.65915 2.568 0.43611 0.39871 1.2984 0.60098 2.6166 0.60098h7.9665c6.6876 0 10.041 3.1985 10.041 9.5952v19.636c0 6.3968-3.4215 9.5952-10.264 9.5952h-10.584c-6.7649 0-10.147-3.1985-10.147-9.5952v-10.031h9.9244v8.5093c0 1.3087 0.22447 2.1614 0.65915 2.5589 0.43607 0.40704 1.3083 0.60098 2.617 0.60098h4.5939c1.2983 0 2.1514-0.1952 2.5584-0.60098 0.3987-0.38628 0.6006-1.2597 0.6006-2.5589m-153.06-59.655h7.1236l7.162-8.9457h-9.2459zm-18.715 89.661h-19.859v22.466h15.72v7.7534h-15.72v30.103h-9.9342v-68.289h29.793zm7.9281 60.322h9.8283v-68.289h-9.8283zm29.396-7.9669h16.912v7.9669h-26.73v-68.289h9.8275zm33.505 7.9669h-8.6258v-68.289h10.806l11.679 42.321 11.679-42.321h10.807v68.289h-8.6262v-49.962l-9.3821 35.124h-8.9551l-9.3821-35.017zm66.719-11.136v-16.68c0-1.3083-0.20367-2.161-0.60098-2.5684-0.40704-0.38629-1.2601-0.60099-2.5684-0.60099h-8.0733c-6.6201 0-9.9342-3.2367-9.9342-9.7113v-17.988c0-6.3968 3.392-9.6046 10.147-9.6046h10.7c6.7649 0 10.147 3.1985 10.147 9.5952v10.041h-9.9342v-8.5097c0-1.3083-0.21192-2.1614-0.64913-2.5589-0.43656-0.39872-1.3083-0.6006-2.6171-0.6006h-4.5841c-1.3182 0-2.1809 0.1952-2.617 0.6006-0.44566 0.38628-0.65871 1.2506-0.65871 2.5589v15.168c0 1.2984 0.21192 2.1614 0.64917 2.5585 0.44565 0.39872 1.3083 0.60059 2.6166 0.60059h7.9767c6.6872 0 10.041 3.1985 10.041 9.5952v19.636c0 6.3968-3.4215 9.5952-10.264 9.5952h-10.574c-6.7645 0-10.147-3.1985-10.147-9.5952v-10.031h9.9248v8.4999c0 1.3183 0.22447 2.171 0.65875 2.5684 0.43607 0.40704 1.3087 0.60059 2.6166 0.60059h4.5845c1.3087 0 2.1614-0.1952 2.5684-0.60059 0.38616-0.38628 0.60098-1.2601 0.60098-2.5684m-146.17-79.191v-16.689c0-1.3183-0.19503-2.1618-0.60097-2.5684-0.39873-0.39872-1.2597-0.60099-2.568-0.60099h-8.0737c-6.6197 0-9.9342-3.2376-9.9342-9.7113v-17.998c0-6.3972 3.3924-9.5952 10.158-9.5952h10.69c6.7649 0 10.148 3.1981 10.148 9.5952v10.041h-9.9248v-8.5093c0-1.3083-0.22447-2.1614-0.6591-2.5589-0.43568-0.40704-1.3083-0.60099-2.6162-0.60099h-4.5845c-1.3087 0-2.1909 0.1952-2.617 0.60099-0.43612 0.38628-0.65914 1.2606-0.65914 2.5589v15.158c0 1.3083 0.22448 2.171 0.65914 2.568 0.42615 0.39872 1.3083 0.60099 2.617 0.60099h7.9666c6.6872 0 10.041 3.1985 10.041 9.5952v19.636c0 6.3968-3.4215 9.5952-10.264 9.5952h-10.583c-6.7649 0-10.148-3.1985-10.148-9.5952v-10.031h9.9342v8.5093c0 1.3087 0.21191 2.1614 0.64961 2.5589 0.43568 0.40704 1.3083 0.60098 2.6162 0.60098h4.5849c1.3178 0 2.1709-0.1952 2.568-0.60098 0.39873-0.38628 0.60099-1.2597 0.60099-2.5589m29.066 3.1599h19.752v7.9571h-29.687v-68.281h28.921v7.9665h-18.996v21.051h15.72v7.9571h-15.711zm37.944-52.355v24.87h9.5952c1.3178 0 2.1805-0.1952 2.6162-0.60099 0.44604-0.39871 0.65914-1.2597 0.65914-2.5684v-18.54c0-1.3083-0.21192-2.1614-0.64917-2.5589-0.44566-0.40705-1.3083-0.60099-2.6166-0.60099zm0 32.72v27.593h-9.8283v-68.281h22.369c6.7747 0 10.158 3.1981 10.158 9.5952v21.381c0 5.5244-2.4426 8.6937-7.3178 9.4982l10.807 27.816h-10.584l-10.264-27.603z" fill="#1c9cd8" fill-rule="evenodd" stroke-width="9.6917"/>
 <polygon class="st1" transform="matrix(8.9286 0 0 8.9286 141.96 -.89286)" points="45.9 0.1 -15.9 0.1 -15.9 24.1 45.9 24.1" clip-rule="evenodd" fill="url(#SVGID_1_)" fill-rule="evenodd"/>
 <polyline class="st2" transform="matrix(8.9286 0 0 8.9286 141.96 -.89286)" points="46.1 0.1 15.1 0.1 15.1 0.1 -15.9 0.1 -15.9 24.1 15.1 24.1 15.1 24.1 46.1 24.1 46.1 0.1" fill="url(#SVGID_2_)"/>
 <path class="st3" d="m0 0v163.39s221.43-100.89 554.47-129.46v-33.929h-554.47" clip-rule="evenodd" enable-background="new" fill="url(#SVGID_3_)" fill-opacity=".7" fill-rule="evenodd" opacity=".6" stroke-width="8.9286"/>
 <polygon class="st4" transform="matrix(8.9286 0 0 8.9286 141.96 -.89286)" points="3.7 4.2 -10.4 4.2 -10.4 9.7 -6.8 9.7 -6.8 20 0.1 20 0.1 9.7 3.7 9.7" clip-rule="evenodd" fill="#fff" fill-rule="evenodd"/>
 <polygon class="st4" transform="matrix(8.9286 0 0 8.9286 141.96 -.89286)" points="19.2 8.2 25.2 8.2 25.2 4.2 12.3 4.2 12.3 20 19.2 20 19.2 15 23.5 15 23.5 11.1 19.2 11.1" clip-rule="evenodd" fill="#fff" fill-rule="evenodd"/>
 <polygon class="st4" transform="matrix(8.9286 0 0 8.9286 141.96 -.89286)" points="40.5 20 40.5 4.1 33.3 6.2 33.3 20" clip-rule="evenodd" fill="#fff" fill-rule="evenodd"/>
</svg>
