<?xml version="1.0" encoding="UTF-8"?>
<!-- Created with Inkscape (http://www.inkscape.org/) -->
<svg id="svg2" width="410.82" height="150" version="1.1" xmlns="http://www.w3.org/2000/svg" xmlns:cc="http://creativecommons.org/ns#" xmlns:dc="http://purl.org/dc/elements/1.1/" xmlns:rdf="http://www.w3.org/1999/02/22-rdf-syntax-ns#" xmlns:xlink="http://www.w3.org/1999/xlink">
 <defs id="defs4">
  <clipPath id="clipPath3075">
   <path id="path3077" d="m0 0h1920v1080h-1920v-1080z"/>
  </clipPath>
  <clipPath id="clipPath3061">
   <path id="path3063" d="m624 511h671v245h-671v-245z"/>
  </clipPath>
  <radialGradient id="radialGradient3049" cx="0" cy="0" r="1" gradientTransform="matrix(329.57 0 0 -329.83 1004 652.12)" gradientUnits="userSpaceOnUse">
   <stop id="stop3051" stop-color="#970d0d" offset="0"/>
   <stop id="stop3053" stop-color="#440c11" offset="1"/>
  </radialGradient>
  <clipPath id="clipPath3037">
   <path id="path3039" d="m1295 511v245h-335.81v-245h335.81z"/>
  </clipPath>
  <radialGradient id="radialGradient3025" cx="0" cy="0" r="1" gradientTransform="matrix(343.79 0 0 -344.05 656.78 757.3)" gradientUnits="userSpaceOnUse">
   <stop id="stop3027" stop-color="#2962f2" offset="0"/>
   <stop id="stop3029" stop-color="#0d1950" offset="1"/>
  </radialGradient>
  <clipPath id="clipPath3013">
   <path id="path3015" d="m959.81 511v245h-335.81v-245h335.81z"/>
  </clipPath>
  <clipPath id="clipPath3001">
   <path id="path3003" d="m0 0h1920v1080h-1920v-1080z"/>
  </clipPath>
 </defs>
 <metadata id="metadata7">
  <rdf:RDF>
   <cc:Work rdf:about="">
    <dc:format>image/svg+xml</dc:format>
    <dc:type rdf:resource="http://purl.org/dc/dcmitype/StillImage"/>
    <dc:title/>
   </cc:Work>
  </rdf:RDF>
 </metadata>
 <g id="layer1" transform="translate(-309.7 -340.49)">
  <g id="g2997" transform="matrix(.61225 0 0 -.61225 -72.345 803.34)"></g>
  <g id="g3009" transform="matrix(.61225 0 0 -.61225 -72.345 803.34)">
   <g id="g3011" clip-path="url(#clipPath3013)">
    <g id="g3017">
     <g id="g3023">
      <path id="path3031" d="m624 511h671v245h-671v-245z" fill="url(#radialGradient3025)"/>
     </g>
    </g>
   </g>
  </g>
  <g id="g3033" transform="matrix(.61225 0 0 -.61225 -72.345 803.34)">
   <g id="g3035" clip-path="url(#clipPath3037)">
    <g id="g3041">
     <g id="g3047">
      <path id="path3055" d="m624 511h671v245h-671v-245z" fill="url(#radialGradient3049)"/>
     </g>
    </g>
   </g>
  </g>
  <g id="g3057" transform="matrix(.61225 0 0 -.61225 -72.345 803.34)">
   <g id="g3059" clip-path="url(#clipPath3061)" fill="#fff">
    <path id="path3065" d="m676.64 718.94v-58.999h39.098v-111.88h74.838v111.88h39.1v58.999h-153.04z"/>
    <path id="path3067" d="m922.08 718.94v-170.88h74.839v53.801h45.971v42.798h-45.971v31.488h64.3v42.796h-139.14z"/>
    <path id="path3069" d="m1227.4 719.82v-171.76h-77.588v149.75l77.588 22.011z"/>
   </g>
  </g>
  <g id="g3071" transform="matrix(.61225 0 0 -.61225 -72.345 803.34)">
   <g id="g3073" clip-path="url(#clipPath3075)"></g>
  </g>
 </g>
</svg>
