<svg width="458.3pt" height="316.98pt" version="1.1" viewBox="0 0 458.3 316.98" xmlns="http://www.w3.org/2000/svg">
 <g transform="translate(-20.6 -16.612)">
  <path d="m24.225 211.04c146.33-41.23 299.94-55.95 451.48-44.43v50.3c-149.5-21-301.89-20.98-451.48-0.75z" fill="#eb0015"/>
 </g>
 <g transform="translate(-20.6 -16.612)" fill="#fff">
  <path d="m167.85 20.86c14.43-5.35 30.4-5.26 45.27-1.88 10.54 2.46 20.1 8.02 28.3 14.99l-17.51 21.1c-6.42-5.3-13.62-10.04-21.9-11.69-8.44-1.62-17.63-1.74-25.5 2.16-11.47 5.36-19.37 16.96-21.21 29.37-2.53 15.03 3.1 32.04 16.17 40.63 11.88 7.95 27.69 7.87 40.62 2.6 2.27-1.22 5.175-2.02 6.755-4.13v-17.715h-27.525l14.78-24.04h39.67v54.781l-1.9398 1.7544c-12.22 9.75-27.11 16.22-42.7 17.78-20.04 2.35-41.7-3.01-56.38-17.36-19.48-18.56-24.14-49.66-13.51-73.96 6.82-15.84 20.4-28.54 36.61-34.39z"/>
  <path d="m20.6 44.43v-25.655h104.88v25.655h-38.385v100.38h-27.775v-100.38z"/>
  <path d="m262.56 18.795h58.375c12.29 0.18 25.3 3.065 34.61 11.585 7.56 6.65 11.48 16.66 12.03 26.56 0.75 10.38-1.48 21.35-8.03 29.66-4.76 6.25-11.62 10.5-18.85 13.36l30.75 44.87h-32.45l-27-40.26h-17.21l15.06-24.48c7.58 0.02 15.96 0.67 22.55-3.77 9.67-6.2 9.71-22.6 0.04-28.81-4.58-2.92-10.16-3.66-15.49-3.63h-26.63v100.95h-27.755z"/>
  <path d="m162.36 229.86h75.535v17.31h-57.395v24.615h51.365v17.345h-51.365v25.34h58.14v17.215h-76.28z"/>
  <path transform="scale(.75)" d="m334.15 306.84v81.094c0.17333 15.213 4.7381 31.186 15.885 42.053 11.013 10.787 26.947 14.8 42.157 14.8 15.21 1e-5 31.144-4.0137 42.157-14.8 11.147-10.867 15.713-26.839 15.887-42.053v-81.094h-23.895v0.0274h-6e-3l-0.17968 82.947c-0.77897 9.6012-4.1349 19.315-11.688 25.6-5.0398 4.292-11.324 6.3099-17.803 6.9062-1.4199 0.11958-2.8526 0.19055-4.4713 0.19038-1.6187-1.6e-4 -3.047-0.0696-4.4623-0.18842-6.4835-0.5949-12.773-2.6136-17.816-6.9082-7.5623-6.2923-10.916-16.023-11.689-25.637l-0.17774-82.91h-6e-3v-0.0274z" stroke-width="1.3333"/>
  <path d="m374.02 44.43v-25.655h104.88v25.655h-38.385v100.39h-27.775v-100.39z"/>
 </g>
</svg>
