<svg width="580.76" height="868.64" version="1.1" viewBox="0 0 153.66 229.83" xmlns="http://www.w3.org/2000/svg">
 <g transform="matrix(.99595 0 0 .99595 0 -4.6805e-5)" fill="#fff">
  <path d="m153.69 104.18c-0.03-0.14-0.05-0.28-0.05-0.4-0.07-0.02-0.16-0.02-0.23-0.02z"/>
  <path d="m154.28 105-0.59-0.82c0.12 0.33 0.3 0.61 0.59 0.82"/>
  <path d="m1.0471 112.19c4.377-3.27 8.9599-6.22 13.682-8.97 20.264-11.76 43.392-19.11 66.945-19.3 14.98 0 29.79 3.45 43.72 8.83 9.0781 3.5293 17.846 7.8585 26.135 12.967v-4.8069c-8.97-5.76-17.95-11.51-26.9-17.27-0.12-6.46-2.67-12.63-5.95-18.1 3.92-2.12 6.7299-6.6243 5.6699-11.136v-0.01188h-0.0103c-4.5 0.071-7.4596 3.834-10.53 6.58h-0.0104v0.0031c-0.26 0.371-0.63009 0.45687-1.0201 0.44287-0.39-0.015-0.80959-0.13295-1.1896-0.16795-11.09-1.55-22.19-3.5926-33.45-3.3336-7.769 0.211-15.587 0.79763-23.359 0.32763-2.442-0.211-4.9062-0.49365-7.2052-1.3146-4.666-1.712-8.1149-6.496-7.8569-11.513 0.281-3.448 0.91473-6.9652 2.2727-10.131 4.533 0.395 9.0411-1.2713 12.656-3.9243l0.02429-0.01654-0.02739-0.01241c-3.961-1.617-8.1998-2.3446-12.37-3.1636 1.52-1.469 3.2701-2.799 5.2291-3.592 2.2-0.773 4.4971 0.21081 6.6601 0.61081 10.851 2.889 22.267 3.7811 33.376 2.0671 5.45-0.776 10.85-2.091 15.93-4.299 4.7-2.091 9.21-5.0283 12.33-9.2113 2.68-3.524 4.0897-8.0339 3.7197-12.451v-0.00568l-0.01-0.075964-0.0202 0.07183c0 0.00201 1.8e-4 0.0042-0.01 0.0062-1.8 5.23-5.44 9.6417-9.74 13.091-5.88 4.663-13.3 7.7533-20.89 7.2983 5.01-3.831 9.1099-9.7614 9.2299-16.256v-0.05271l-0.02997 0.042891c-4.5796 6.575-9.9094 13.265-17.439 16.527-4.698 1.69-10.165 1.9238-14.692-0.37517-0.13-0.071-0.27694-0.1287-0.39894-0.20671-0.118-0.076-0.20688-0.17319-0.24288-0.31419 5.585-1.91 9.903-7.1189 10.373-13.037l0.0026-0.042891-0.03101 0.031006c-3.451 3.404-7.2079 6.5977-11.433 9.0387-5.701 3.425-13.514 2.9549-18.745-1.2211-2.028-1.652-3.0657-3.9898-3.3647-6.4818s0.14167-5.1392 1.0687-7.4032l0.01498-0.03669-0.03669 0.017571c-2.659 1.2-4.448 3.858-4.731 6.705-0.281 2.253 0.09669 4.554 0.82269 6.689-0.033 0.047-0.07282 0.07433-0.11782 0.08733-0.046 0.013-0.09693 0.0121-0.15193 0.0031-0.108-0.017-0.22288-0.06348-0.31988-0.07648h-0.0021c-3.638-0.915-7.205-2.4877-9.926-5.0917-2.767-2.532-3.8684-6.5189-3.0474-10.154l0.01603-0.072347-0.04496 0.059945c-2.069 2.728-3.0107 6.3951-2.2107 9.7581 0.729 2.87 2.7991 5.222 5.2441 6.797 3.871 2.557 8.4419 3.7312 12.943 4.6002-1.15 2.004-3.1561 3.4102-4.9351 4.8142-0.261 0.155-0.50698 0.41285-0.76998 0.61185-0.262 0.198-0.53793 0.33576-0.86093 0.25476-8.643-2.114-17.734-2.7487-26.519-1.3157l-0.00982 0.0021-0.00414 0.0098c-0.446 1.62-0.89185 3.2157-1.2439 4.8607l-0.00206 0.01241 0.010335 0.0047c5.045 3.051 10.09 6.1471 15.135 9.2211-3.474 7.372-5.9605 15.473-5.6555 23.711 0.423 5.22 1.3381 10.43 3.1001 15.39 1.196 3.21 2.6293 6.38 4.9253 8.94-7.885 5.9-15.863 11.69-23.726 17.59m24.143-76.514c0.18-4e-3 0.35882 0.01529 0.53382 0.05529 0.35 0.08 0.68685 0.24302 0.98185 0.46302 0.59 0.44 1.0214 1.112 1.0924 1.834 0.142 1.372-1.0152 2.6707-2.3632 2.8117-1.561 0.142-2.9999-1.391-2.7869-2.929v-0.0021c0.189-1.016 0.98905-1.9347 2.005-2.1487 0.178-0.053 0.35792-0.08023 0.53692-0.08423z" color="#000000" color-rendering="auto" image-rendering="auto" shape-rendering="auto" solid-color="#000000" style="font-feature-settings:normal;font-variant-alternates:normal;font-variant-caps:normal;font-variant-ligatures:none;font-variant-numeric:normal;font-variant-position:normal;isolation:auto;mix-blend-mode:normal;shape-padding:0;text-decoration-color:#000000;text-decoration-line:none;text-decoration-style:solid;text-indent:0;text-transform:none;white-space:normal"/>
  <path d="m79.264 88.802c-0.46 0.01-0.93 0.01-1.39 0.02-11.152 0.24-22.241 2.78-32.774 6.42-10.73 3.85-21.224 8.76-30.407 15.55h-7e-3l-0.043 0.03h0.053c9.341-0.28 18.354 3.55 25.702 9.11l0.016 0.01 8e-3 -0.01c4.039-6.56 9.087-12.61 15.285-17.26 6.924-5 15.702-6.95 24.127-6.29 8.34 0.61 16.55 4.29 22.16 10.56 1.71 2.39 2.44 5.51 1.76 8.39-0.68 2.91-2.67 5.35-4.9 7.28-3.36 2.76-7.42 4.67-11.67 5.53-7.3 1.2-15.05 0.35-21.959 3.55-9.75 4.68-17.761 13.18-21.356 23.45l-4e-3 0.01h0.01c7.54 5.71 16.772 10.2 26.453 9.52 9.226-0.47 18.386-3.33 26.066-8.55 4.25 0.97 8.55 2.35 12.96 2.33 5.15-0.03 10.51-3.06 12.21-8.09v-0.02h-0.02c-5.61-1.55-11.31-2.66-17.02-3.71-0.03-0.03-0.08-0.06-0.12-0.09s-0.07-0.05-0.1-0.07c3.4-3.09 6.64-6.3 9.67-9.73 5.21-5.47 7.8-12.78 10.05-19.8 0.13-0.26 0.16-0.63 0.25-0.93 0.04-0.15 0.1-0.29 0.19-0.39s0.21-0.16 0.39-0.17h0.01c2.42-0.68 4.86-1.34 7.16-2.38 1.88-0.87 3.49-2.54 3.91-4.61 0.42-2.24-0.35-4.57-1.72-6.35l-0.01-0.01h-0.01c-4.06 2.14-8.02 4.48-12.1 6.62-1.91-4.37-5.52-7.65-9.32-10.35-7.1-4.79-15.3-7.87-23.75-8.98-3.25-0.41-6.51-0.6-9.76-0.59zm-16.666 57.03c1.709 0.08 3.419 1.35 3.564 3.13 0.141 1.02-0.29 1.97-1 2.66-0.71 0.68-1.699 1.11-2.678 1.07-1.77 0.1-3.631-1.25-3.796-3.04-0.284-1.91 1.39-3.56 3.207-3.78 0.119-0.02 0.24-0.03 0.361-0.04z" color="#000000" color-rendering="auto" image-rendering="auto" shape-rendering="auto" solid-color="#000000" style="font-feature-settings:normal;font-variant-alternates:normal;font-variant-caps:normal;font-variant-ligatures:none;font-variant-numeric:normal;font-variant-position:normal;isolation:auto;mix-blend-mode:normal;shape-padding:0;text-decoration-color:#000000;text-decoration-line:none;text-decoration-style:solid;text-indent:0;text-transform:none;white-space:normal"/>
  <path d="m101.34 108.19 0.01 0.07c0.47 2.91-0.14 6.12-2.15 8.35-3.76 4.13-9.69 5.04-15 5.18l-0.01 0.01v0.01c-0.1 1.76-0.5 3.43-0.61 5.19l-0.01 0.02h0.02c4.23-0.03 8.25-1.81 11.68-4.14 2.59-1.74 5.08-3.9 6.44-6.77 1.2-2.45 1.2-5.55-0.33-7.86z" color="#000000" color-rendering="auto" image-rendering="auto" shape-rendering="auto" solid-color="#000000" style="font-feature-settings:normal;font-variant-alternates:normal;font-variant-caps:normal;font-variant-ligatures:none;font-variant-numeric:normal;font-variant-position:normal;isolation:auto;mix-blend-mode:normal;shape-padding:0;text-decoration-color:#000000;text-decoration-line:none;text-decoration-style:solid;text-indent:0;text-transform:none;white-space:normal"/>
  <path d="m0 203.43v11.46h2.537v-5.17h4.227v-1.62h-4.227v-3.05h5.073v-1.62z" color="#000000" color-rendering="auto" image-rendering="auto" shape-rendering="auto" solid-color="#000000" style="font-feature-settings:normal;font-variant-alternates:normal;font-variant-caps:normal;font-variant-ligatures:none;font-variant-numeric:normal;font-variant-position:normal;isolation:auto;mix-blend-mode:normal;shape-padding:0;text-decoration-color:#000000;text-decoration-line:none;text-decoration-style:solid;text-indent:0;text-transform:none;white-space:normal"/>
  <path d="m9.676 203.43v11.47h2.539v-11.47z" color="#000000" color-rendering="auto" image-rendering="auto" shape-rendering="auto" solid-color="#000000" style="font-feature-settings:normal;font-variant-alternates:normal;font-variant-caps:normal;font-variant-ligatures:none;font-variant-numeric:normal;font-variant-position:normal;isolation:auto;mix-blend-mode:normal;shape-padding:0;text-decoration-color:#000000;text-decoration-line:none;text-decoration-style:solid;text-indent:0;text-transform:none;white-space:normal"/>
  <path d="m17.584 203.19c-0.931 0-1.773 0.3-2.449 0.87-0.745 0.61-1.133 1.47-1.133 2.4 0 1.02 0.511 1.9 1.346 2.57l0.01 0.01 7e-3 0.01c0.407 0.3 1.011 0.69 1.85 1.14 0.808 0.44 1.355 0.79 1.66 1.03l0.01 0.01 0.012 0.01c0.486 0.35 0.648 0.68 0.648 1.07 0 0.37-0.117 0.6-0.426 0.84-0.304 0.21-0.642 0.32-1.111 0.32-0.463 0-0.886-0.09-1.272-0.31h-9e-3c-0.416-0.22-0.696-0.49-0.877-0.85l-6e-3 -0.01-8e-3 -0.02c-0.107-0.18-0.211-0.63-0.211-1.28v-0.53h-1.529v0.53c0 0.98 0.202 1.82 0.656 2.48h2e-3c0.387 0.57 0.817 0.99 1.303 1.23l0.011 0.01h0.012c0.399 0.18 0.798 0.31 1.221 0.35 0.301 0.05 0.581 0.05 0.871 0.05 0.985 0 1.879-0.28 2.611-0.87l6e-3 -0.01h4e-3c0.757-0.65 1.172-1.54 1.172-2.54 0-0.48-0.115-0.96-0.338-1.41-0.285-0.57-0.757-1.06-1.394-1.49-0.279-0.19-0.801-0.5-1.639-0.92-1.16-0.65-1.89-1.17-2.104-1.42-0.151-0.19-0.209-0.34-0.209-0.54 0-0.29 0.095-0.51 0.381-0.73h8e-3c0.269-0.22 0.568-0.33 0.914-0.33h0.024l0.023-0.01c0.419-0.03 0.835 0.07 1.299 0.35h6e-3c0.306 0.19 0.653 0.73 0.828 1.75l0.074 0.44h0.916l0.555 0.01-0.026-0.56c-0.026-0.62-0.187-1.2-0.418-1.74h-2e-3c-0.196-0.45-0.515-0.88-0.978-1.23-0.528-0.43-1.273-0.61-2.262-0.68h-0.019z" color="#000000" color-rendering="auto" image-rendering="auto" shape-rendering="auto" solid-color="#000000" style="font-feature-settings:normal;font-variant-alternates:normal;font-variant-caps:normal;font-variant-ligatures:none;font-variant-numeric:normal;font-variant-position:normal;isolation:auto;mix-blend-mode:normal;shape-padding:0;text-decoration-color:#000000;text-decoration-line:none;text-decoration-style:solid;text-indent:0;text-transform:none;white-space:normal"/>
  <path d="m23.512 203.43v0.74l0.023 10.73h2.514v-5.01h3.779v5.01h2.514v-11.47h-2.514v4.82h-3.779v-4.82z" color="#000000" color-rendering="auto" image-rendering="auto" shape-rendering="auto" solid-color="#000000" style="font-feature-settings:normal;font-variant-alternates:normal;font-variant-caps:normal;font-variant-ligatures:none;font-variant-numeric:normal;font-variant-position:normal;isolation:auto;mix-blend-mode:normal;shape-padding:0;text-decoration-color:#000000;text-decoration-line:none;text-decoration-style:solid;text-indent:0;text-transform:none;white-space:normal"/>
  <path d="m34.969 203.43v11.47h2.537v-11.47z" color="#000000" color-rendering="auto" image-rendering="auto" shape-rendering="auto" solid-color="#000000" style="font-feature-settings:normal;font-variant-alternates:normal;font-variant-caps:normal;font-variant-ligatures:none;font-variant-numeric:normal;font-variant-position:normal;isolation:auto;mix-blend-mode:normal;shape-padding:0;text-decoration-color:#000000;text-decoration-line:none;text-decoration-style:solid;text-indent:0;text-transform:none;white-space:normal"/>
  <path d="m40.172 203.43v11.47h1.74v-7.25l6.078 7.41h1.037v-11.63h-1.714v6.85l-5.584-6.85z" color="#000000" color-rendering="auto" image-rendering="auto" shape-rendering="auto" solid-color="#000000" style="font-feature-settings:normal;font-variant-alternates:normal;font-variant-caps:normal;font-variant-ligatures:none;font-variant-numeric:normal;font-variant-position:normal;isolation:auto;mix-blend-mode:normal;shape-padding:0;text-decoration-color:#000000;text-decoration-line:none;text-decoration-style:solid;text-indent:0;text-transform:none;white-space:normal"/>
  <path d="m56.106 202.97c-1.068 0-2.065 0.26-2.948 0.81-0.906 0.52-1.613 1.28-2.121 2.22h-4e-3c-0.487 0.93-0.742 1.98-0.742 3.09 0 1.39 0.389 2.64 1.164 3.67 1e-3 0.01 0 0.01 0 0.01 1.032 1.41 2.573 2.14 4.414 2.14 0.924 0 1.849-0.21 2.819-0.64 0.017 0 0.032-0.01 0.048-0.02 0.384-0.22 0.941-0.54 1.709-0.96l0.276-0.15v-4.98h-3.947v1.95h0.529c0.298 0 0.506 0.04 0.619 0.09 0.114 0.04 0.131 0.07 0.152 0.11l0.037 0.08 0.024 0.02v2.13c-0.737 0.37-1.385 0.63-1.678 0.63-0.686 0-1.262-0.17-1.793-0.47-0.526-0.33-0.906-0.74-1.144-1.34l-8e-3 -0.02c-0.269-0.6-0.424-1.35-0.424-2.23 0-2.18 0.562-3.45 1.563-4.1 0.458-0.28 0.991-0.44 1.572-0.44 0.593 0 1.083 0.14 1.556 0.39 0.388 0.21 0.93 0.74 1.543 1.56l0.286 0.38 1.082-0.65-0.247-0.44c-0.551-1-1.225-1.74-2.011-2.24h-0.012c-0.68-0.41-1.465-0.6-2.314-0.6z" color="#000000" color-rendering="auto" image-rendering="auto" shape-rendering="auto" solid-color="#000000" style="font-feature-settings:normal;font-variant-alternates:normal;font-variant-caps:normal;font-variant-ligatures:none;font-variant-numeric:normal;font-variant-position:normal;isolation:auto;mix-blend-mode:normal;shape-padding:0;text-decoration-color:#000000;text-decoration-line:none;text-decoration-style:solid;text-indent:0;text-transform:none;white-space:normal"/>
  <path d="m82.834 203.43v0.74l0.02 10.73h2.52v-5.01h3.78v5.01h2.51v-11.47h-2.51v4.82h-3.78v-4.82z" color="#000000" color-rendering="auto" image-rendering="auto" shape-rendering="auto" solid-color="#000000" style="font-feature-settings:normal;font-variant-alternates:normal;font-variant-caps:normal;font-variant-ligatures:none;font-variant-numeric:normal;font-variant-position:normal;isolation:auto;mix-blend-mode:normal;shape-padding:0;text-decoration-color:#000000;text-decoration-line:none;text-decoration-style:solid;text-indent:0;text-transform:none;white-space:normal"/>
  <path d="m94.034 203.42v6.45c0 1.27 0.04 2.13 0.27 2.74 0.3 0.83 0.85 1.49 1.59 1.92 0.75 0.42 1.67 0.61 2.75 0.61 1.11 0 2.04-0.22 2.77-0.72 0.72-0.49 1.25-1.18 1.5-2 0.19-0.59 0.26-1.35 0.26-2.34v-6.63h-1.74v6.56c0 1.07-0.13 1.8-0.27 2.15-0.16 0.38-0.46 0.68-0.96 0.92h-0.01c-0.45 0.23-0.92 0.35-1.48 0.35-0.88 0-1.39-0.27-1.74-0.77-0.22-0.36-0.4-1.15-0.4-2.32v-6.92z" color="#000000" color-rendering="auto" image-rendering="auto" shape-rendering="auto" solid-color="#000000" style="font-feature-settings:normal;font-variant-alternates:normal;font-variant-caps:normal;font-variant-ligatures:none;font-variant-numeric:normal;font-variant-position:normal;isolation:auto;mix-blend-mode:normal;shape-padding:0;text-decoration-color:#000000;text-decoration-line:none;text-decoration-style:solid;text-indent:0;text-transform:none;white-space:normal"/>
  <path d="m105.6 203.43v11.47h1.74v-7.25l6.08 7.41h1.04v-11.63h-1.72v6.84l-5.58-6.84z" color="#000000" color-rendering="auto" image-rendering="auto" shape-rendering="auto" solid-color="#000000" style="font-feature-settings:normal;font-variant-alternates:normal;font-variant-caps:normal;font-variant-ligatures:none;font-variant-numeric:normal;font-variant-position:normal;isolation:auto;mix-blend-mode:normal;shape-padding:0;text-decoration-color:#000000;text-decoration-line:none;text-decoration-style:solid;text-indent:0;text-transform:none;white-space:normal"/>
  <path d="m115.7 203.44v1.75l3.47-0.03v9.72h2.54v-9.72h3.54v-1.72z" color="#000000" color-rendering="auto" image-rendering="auto" shape-rendering="auto" solid-color="#000000" style="font-feature-settings:normal;font-variant-alternates:normal;font-variant-caps:normal;font-variant-ligatures:none;font-variant-numeric:normal;font-variant-position:normal;isolation:auto;mix-blend-mode:normal;shape-padding:0;text-decoration-color:#000000;text-decoration-line:none;text-decoration-style:solid;text-indent:0;text-transform:none;white-space:normal"/>
  <path d="m126.57 203.43v11.47h2.54v-11.47z" color="#000000" color-rendering="auto" image-rendering="auto" shape-rendering="auto" solid-color="#000000" style="font-feature-settings:normal;font-variant-alternates:normal;font-variant-caps:normal;font-variant-ligatures:none;font-variant-numeric:normal;font-variant-position:normal;isolation:auto;mix-blend-mode:normal;shape-padding:0;text-decoration-color:#000000;text-decoration-line:none;text-decoration-style:solid;text-indent:0;text-transform:none;white-space:normal"/>
  <path d="m131.77 203.43v11.47h1.74v-7.25l6.08 7.41h1.04v-11.63h-1.72v6.84l-5.59-6.84z" color="#000000" color-rendering="auto" image-rendering="auto" shape-rendering="auto" solid-color="#000000" style="font-feature-settings:normal;font-variant-alternates:normal;font-variant-caps:normal;font-variant-ligatures:none;font-variant-numeric:normal;font-variant-position:normal;isolation:auto;mix-blend-mode:normal;shape-padding:0;text-decoration-color:#000000;text-decoration-line:none;text-decoration-style:solid;text-indent:0;text-transform:none;white-space:normal"/>
  <path d="m147.7 202.97c-1.07 0-2.06 0.26-2.95 0.81-0.9 0.52-1.61 1.28-2.12 2.22-0.49 0.93-0.74 1.98-0.74 3.09 0 1.39 0.38 2.64 1.16 3.67 1.03 1.42 2.57 2.15 4.42 2.15 0.92 0 1.85-0.21 2.82-0.64 0.6-0.33 1.21-0.68 1.75-0.98l0.28-0.15-0.03-4.98h-3.92v1.95h0.53c0.3 0 0.51 0.04 0.62 0.09 0.11 0.04 0.13 0.07 0.15 0.11l0.04 0.08 0.02 0.03v2.12c-0.74 0.37-1.38 0.63-1.68 0.63-0.68 0-1.26-0.17-1.79-0.47-0.53-0.33-0.91-0.75-1.17-1.35-0.25-0.61-0.4-1.36-0.4-2.24 0-2.18 0.56-3.45 1.56-4.1 0.46-0.28 0.99-0.44 1.57-0.44 0.59 0 1.08 0.14 1.56 0.39 0.38 0.21 0.92 0.74 1.54 1.56l0.29 0.38 1.08-0.65-0.25-0.45c-0.57-0.99-1.22-1.73-2.01-2.23h-0.01c-0.68-0.41-1.47-0.6-2.32-0.6z" color="#000000" color-rendering="auto" image-rendering="auto" shape-rendering="auto" solid-color="#000000" style="font-feature-settings:normal;font-variant-alternates:normal;font-variant-caps:normal;font-variant-ligatures:none;font-variant-numeric:normal;font-variant-position:normal;isolation:auto;mix-blend-mode:normal;shape-padding:0;text-decoration-color:#000000;text-decoration-line:none;text-decoration-style:solid;text-indent:0;text-transform:none;white-space:normal"/>
  <path d="m44.274 218.67c-1.049 0-2.042 0.26-2.922 0.78-0.931 0.54-1.662 1.33-2.172 2.3-0.49 0.93-0.719 1.96-0.719 3.04 0 1.39 0.385 2.64 1.158 3.67h2e-3c1.032 1.42 2.576 2.14 4.442 2.14 2.025 0 3.679-1.04 4.757-2.94l0.254-0.45-1.088-0.65-0.287 0.38c-0.519 0.7-0.985 1.18-1.351 1.43h-8e-3c-0.463 0.33-1.025 0.49-1.715 0.49-0.686 0-1.261-0.16-1.793-0.46-1.043-0.65-1.551-1.75-1.551-3.59 0-1.1 0.136-1.97 0.426-2.65l2e-3 -0.01c0.552-1.34 1.347-1.88 2.705-1.88 0.57 0 1.093 0.14 1.531 0.38 0.394 0.22 0.952 0.75 1.536 1.58l0.304 0.43 1.072-0.77-0.247-0.39c-0.55-0.97-1.217-1.73-2.01-2.23h-2e-3c-0.664-0.42-1.453-0.6-2.324-0.6z" color="#000000" color-rendering="auto" image-rendering="auto" shape-rendering="auto" solid-color="#000000" style="font-feature-settings:normal;font-variant-alternates:normal;font-variant-caps:normal;font-variant-ligatures:none;font-variant-numeric:normal;font-variant-position:normal;isolation:auto;mix-blend-mode:normal;shape-padding:0;text-decoration-color:#000000;text-decoration-line:none;text-decoration-style:solid;text-indent:0;text-transform:none;white-space:normal"/>
  <path d="m50.121 219.14v0.74l0.024 10.72h2.513v-5h3.78v5h2.513v-11.46h-2.513v4.81h-3.78v-4.81z" color="#000000" color-rendering="auto" image-rendering="auto" shape-rendering="auto" solid-color="#000000" style="font-feature-settings:normal;font-variant-alternates:normal;font-variant-caps:normal;font-variant-ligatures:none;font-variant-numeric:normal;font-variant-position:normal;isolation:auto;mix-blend-mode:normal;shape-padding:0;text-decoration-color:#000000;text-decoration-line:none;text-decoration-style:solid;text-indent:0;text-transform:none;white-space:normal"/>
  <path d="m65.383 218.91-0.138 0.32-4.913 11.33 1.915 0.06 1.508-3.51h3.316l0.497 1.18-2e-3 -0.01c0.131 0.33 0.238 0.58 0.314 0.76 0.076 0.17 0.13 0.34 0.109 0.25l7e-3 0.03 0.466 1.27h3.138l-5.269-11.68zm0.06 4.26 0.972 2.32h-1.97z" color="#000000" color-rendering="auto" image-rendering="auto" shape-rendering="auto" solid-color="#000000" style="font-feature-settings:normal;font-variant-alternates:normal;font-variant-caps:normal;font-variant-ligatures:none;font-variant-numeric:normal;font-variant-position:normal;isolation:auto;mix-blend-mode:normal;shape-padding:0;text-decoration-color:#000000;text-decoration-line:none;text-decoration-style:solid;text-indent:0;text-transform:none;white-space:normal"/>
  <path d="m72.895 219.14v11.46h1.74v-7.25l6.079 7.41h1.04v-11.62h-1.72v6.84l-5.585-6.84z" color="#000000" color-rendering="auto" image-rendering="auto" shape-rendering="auto" solid-color="#000000" style="font-feature-settings:normal;font-variant-alternates:normal;font-variant-caps:normal;font-variant-ligatures:none;font-variant-numeric:normal;font-variant-position:normal;isolation:auto;mix-blend-mode:normal;shape-padding:0;text-decoration-color:#000000;text-decoration-line:none;text-decoration-style:solid;text-indent:0;text-transform:none;white-space:normal"/>
  <path d="m84.234 219.14v11.46h1.74v-7.25l6.08 7.41h1.04v-11.62h-1.72v6.84l-5.58-6.84z" color="#000000" color-rendering="auto" image-rendering="auto" shape-rendering="auto" solid-color="#000000" style="font-feature-settings:normal;font-variant-alternates:normal;font-variant-caps:normal;font-variant-ligatures:none;font-variant-numeric:normal;font-variant-position:normal;isolation:auto;mix-blend-mode:normal;shape-padding:0;text-decoration-color:#000000;text-decoration-line:none;text-decoration-style:solid;text-indent:0;text-transform:none;white-space:normal"/>
  <path d="m95.524 219.13v11.47h7.61v-1.63h-4.74c-0.2 0-0.31-0.04-0.3-0.03-0.01 0-0.01 0.01-0.01-0.06v-3.45h4.2v-1.62h-4.2v-3.05h5.05v-1.63z" color="#000000" color-rendering="auto" image-rendering="auto" shape-rendering="auto" solid-color="#000000" style="font-feature-settings:normal;font-variant-alternates:normal;font-variant-caps:normal;font-variant-ligatures:none;font-variant-numeric:normal;font-variant-position:normal;isolation:auto;mix-blend-mode:normal;shape-padding:0;text-decoration-color:#000000;text-decoration-line:none;text-decoration-style:solid;text-indent:0;text-transform:none;white-space:normal"/>
  <path d="m107.68 219.13-2.54 0.04v11.43h7.47l0.12-0.37 0.43-1.35h-5.16c-0.14-0.02-0.24-0.05-0.27-0.06l-0.02-0.03c0.06 0.09-0.03-0.15-0.03-0.58z" color="#000000" color-rendering="auto" image-rendering="auto" shape-rendering="auto" solid-color="#000000" style="font-feature-settings:normal;font-variant-alternates:normal;font-variant-caps:normal;font-variant-ligatures:none;font-variant-numeric:normal;font-variant-position:normal;isolation:auto;mix-blend-mode:normal;shape-padding:0;text-decoration-color:#000000;text-decoration-line:none;text-decoration-style:solid;text-indent:0;text-transform:none;white-space:normal"/>
  <path d="m66.617 191.89v1.49l2.067-0.03v5.85h1.951v-5.85h2.137v-1.46z" color="#000000" color-rendering="auto" image-rendering="auto" shape-rendering="auto" solid-color="#000000" style="font-feature-settings:normal;font-variant-alternates:normal;font-variant-caps:normal;font-variant-ligatures:none;font-variant-numeric:normal;font-variant-position:normal;isolation:auto;mix-blend-mode:normal;shape-padding:0;text-decoration-color:#000000;text-decoration-line:none;text-decoration-style:solid;text-indent:0;text-transform:none;white-space:normal"/>
  <path d="m73.067 191.89v7.3h1.951v-3h1.826v3h1.93v-7.3h-1.93v2.88h-1.826v-2.88z" color="#000000" color-rendering="auto" image-rendering="auto" shape-rendering="auto" solid-color="#000000" style="font-feature-settings:normal;font-variant-alternates:normal;font-variant-caps:normal;font-variant-ligatures:none;font-variant-numeric:normal;font-variant-position:normal;isolation:auto;mix-blend-mode:normal;shape-padding:0;text-decoration-color:#000000;text-decoration-line:none;text-decoration-style:solid;text-indent:0;text-transform:none;white-space:normal"/>
  <path d="m79.894 191.88v7.31h4.98v-1.39h-3.03v-1.71h2.53v-1.39h-2.53v-1.41h3.03v-1.41z" color="#000000" color-rendering="auto" image-rendering="auto" shape-rendering="auto" solid-color="#000000" style="font-feature-settings:normal;font-variant-alternates:normal;font-variant-caps:normal;font-variant-ligatures:none;font-variant-numeric:normal;font-variant-position:normal;isolation:auto;mix-blend-mode:normal;shape-padding:0;text-decoration-color:#000000;text-decoration-line:none;text-decoration-style:solid;text-indent:0;text-transform:none;white-space:normal"/>
  <path d="m71.282 203.2c-0.741 0-1.436 0.2-2.022 0.65-0.793 0.54-1.184 1.43-1.184 2.42 0 0.61 0.2 1.3 0.498 2.06-0.89 0.52-1.629 1.07-2.14 1.67-0.589 0.7-0.918 1.49-0.918 2.3 0 0.86 0.384 1.63 1.081 2.14 0.618 0.48 1.379 0.69 2.196 0.69 1.127 0 2.247-0.47 3.325-1.33 0.882 0.84 1.783 1.33 2.71 1.33 0.713 0 1.366-0.22 1.866-0.66s0.83-1.07 1.02-1.85l0.08-0.34-1.18-0.89-0.205 0.75c-0.084 0.3-0.201 0.47-0.332 0.57-0.13 0.11-0.295 0.17-0.568 0.17-0.438 0-0.919-0.29-1.456-0.81 0.569-0.71 0.978-1.47 1.11-2.29 0.148-0.91 0.165-1.64-0.044-2.27l-0.121-0.36h-1.42l0.232 0.7c0.06 0.17 0.07 0.64-0.103 1.29h-2e-3c-0.115 0.45-0.418 0.95-0.812 1.47-0.458-0.66-0.909-1.35-1.347-2.09 0.497-0.28 1.005-0.56 1.304-0.82h2e-3c0.654-0.57 1.026-1.32 1.026-2.11 0-0.7-0.298-1.33-0.82-1.77-0.482-0.42-1.111-0.62-1.776-0.62zm-0.023 1.6c0.205 0 0.326 0.07 0.479 0.22 0.132 0.17 0.19 0.3 0.19 0.54 0 0.35-0.104 0.64-0.354 0.94-0.164 0.2-0.427 0.4-0.737 0.59-0.239-0.66-0.387-1.19-0.387-1.43 0-0.27 0.064-0.43 0.22-0.59l9e-3 -0.01 7e-3 -0.01c0.167-0.18 0.33-0.25 0.573-0.25zm-1.959 5.02c0.454 0.83 1.019 1.72 1.711 2.69-0.585 0.4-1.08 0.63-1.42 0.63-0.446 0-0.741-0.12-1.023-0.42-0.279-0.3-0.396-0.63-0.396-1.12 0-0.65 0.344-1.22 1.128-1.78z" color="#000000" color-rendering="auto" image-rendering="auto" shape-rendering="auto" solid-color="#000000" style="font-feature-settings:normal;font-variant-alternates:normal;font-variant-caps:normal;font-variant-ligatures:none;font-variant-numeric:normal;font-variant-position:normal;isolation:auto;mix-blend-mode:normal;shape-padding:0;text-decoration-color:#000000;text-decoration-line:none;text-decoration-style:solid;text-indent:0;text-transform:none;white-space:normal"/>
 </g>
</svg>
