<svg width="606.58" height="800" enable-background="new 0 0 451.551 595.539" version="1.1" viewBox="0 0 606.58 800" xml:space="preserve" xmlns="http://www.w3.org/2000/svg">



<g stroke-width="1.3433"><path d="m156.09 508.77v120.98h155.21v155.58h127.69v-155.04h153.2v-128.9h14.392v143.21h-152.44v155.4h-157.21v-155.16h-155.39v-150.26h154.98v-69.654h14.715v83.851h-155.15z" clip-rule="evenodd" fill-rule="evenodd"/><path d="m497.19 281.74h-141.16v-103.21c0-75.915-32.4-117.49-87.38-125.23v-53.298h-38.963v53.177c-57.45 7.614-90.474 50.616-90.474 124.56v104.32h-139.21v220.28h60.581v-159.7h138.4v-16.16h0.0322v-99.793h96.802v99.793h0.39494v15.705h140.52v160.15h60.449v-160.15h0.63271v-60.449h-0.63132zm-249.38-176.79c28.943 0 45.983 20.66 47.83 61.297h-96.458c1.8081-41.63 18.896-61.297 48.628-61.297z"/><path d="m497.07 204.18c-2.379-21.325-21.49-37.945-43.658-37.945s-41.03 16.62-43.38 37.945h-0.25255v61.439h87.543v-61.439z"/><path d="m88.4 204.39c-2.4099-21.364-21.764-38.013-44.214-38.013s-41.553 16.649-43.932 38.013h-0.25389v61.55h88.656v-61.55z"/></g>
</svg>
