<svg width="800" height="616.08" version="1.0" viewBox="-7.331 -7.331 338.1 260.33" xmlns="http://www.w3.org/2000/svg">
 <defs>
  <radialGradient id="a" cx="0" cy="0" r="1" gradientTransform="matrix(7.8254 -11.014 -11.014 -7.8254 42.634 280.38)" gradientUnits="userSpaceOnUse">
   <stop stop-color="#73d1e6" offset="0"/>
   <stop stop-color="#37abd2" offset=".97004"/>
   <stop stop-color="#37abd2" offset="1"/>
  </radialGradient>
  <filter id="b" x="-.052554" y="-.069904" width="1.1051" height="1.1398" color-interpolation-filters="sRGB">
   <feGaussianBlur stdDeviation="6.124605"/>
  </filter>
 </defs>
 <g transform="matrix(12.665 0 0 -12.665 -426.11 3626.1)">
  <path d="m50.357 286.88c-2.3 0-4.868-1.632-4.899-3.295-1.034 2.447-5.134 0.614-4.901-1.859-7.691 1.081-8.782-5.917-6.31-8.296 0.189-3.97 3.842-5.793 8.255-4.425 4.249-4.702 10.202-2.548 12.498 1.281 4.549 0.404 6.349 6.326 3.124 8.747 1.477 2.703-1.898 5.032-4.204 3.537 0.076 3.179-1.649 4.31-3.561 4.31h-2e-3" fill="url(#a)"/>
 </g>
 <g transform="translate(2.0536e-5 -.60833)" fill-opacity=".58824" filter="url(#b)">
  <path d="m108.87 92.69 36.399-3.4449 2.6597 54.143-36.767 6.7631z"/>
  <path d="m260.02 103.96h35.589v69.063h-27.876z"/>
  <path d="m249.17 151.08-9.2582-68.062h-80.284l3.8882 36.843 42.263-6.2186 7.1304 43.125c0.68392 4.3568 0.75991 8.5362 0.22797 12.412-0.49393 3.6222-1.6591 6.9278-3.4196 9.7901-1.7604 2.837-4.0908 5.18-7.1811 7.1431-2.9763 1.9378-6.9278 3.3182-11.753 4.1035-1.7098 0.27863-3.4322 0.43061-5.142 0.43061-13.957 0-23.722-8.9415-26.077-23.912l-0.93721-5.9399-36.273 5.7373 0.94988 5.9399c1.5578 9.9041 4.5594 18.605 8.8909 25.837 4.4074 7.3457 9.9041 13.324 16.363 17.769 6.4338 4.4581 13.856 7.4724 22.037 8.9922 4.1415 0.78524 8.4349 1.1525 12.804 1.1525 4.1415 0 8.4223-0.34196 12.766-1.0132 9.6381-1.5451 18.238-4.5468 25.545-8.9795 7.3584-4.4581 13.387-10.069 17.934-16.655 4.5341-6.5985 7.6497-14.147 9.2708-22.48 1.6085-8.1943 1.6844-16.959 0.2533-26.014"/>
  <path d="m185.09 67.526c9.8281 3.0649 48.001 4.914 49.824-19.593 1.8111-24.52-21.48-38.211-41.212-29.206-31.321 14.274-29.041 42.441-8.6122 48.799"/>
  <path d="m114.95 77.276c5.6866 1.4058 27.141 0.39262 26.495-15.553-0.62059-15.958-14.54-23.468-24.963-16.515-16.528 11.057-13.362 29.142-1.5325 32.068"/>
  <path d="m266.44 90.264c5.3573 2.4444 26.888 6.2059 29.674-7.5737 2.7736-13.792-9.4735-23.215-21.328-19.517-18.782 5.8766-19.492 22.025-8.3463 27.091"/>
  <path d="m77.265 127.99 5.18 62.819-38.185 4.2301-5.18-64.541-20.213 1.7098-2.0517-32.841 76.497-5.4207 2.457 32.651z"/>
 </g>
 <g transform="translate(2.0536e-5 -.60833)" fill="#fff">
  <path d="m108.87 92.69 36.399-3.4449 2.6597 54.143-36.767 6.7631z"/>
  <path d="m260.02 103.96h35.589v69.063h-27.876z"/>
  <path d="m249.17 151.08-9.2582-68.062h-80.284l3.8882 36.843 42.263-6.2186 7.1304 43.125c0.68392 4.3568 0.75991 8.5362 0.22797 12.412-0.49393 3.6222-1.6591 6.9278-3.4196 9.7901-1.7604 2.837-4.0908 5.18-7.1811 7.1431-2.9763 1.9378-6.9278 3.3182-11.753 4.1035-1.7098 0.27863-3.4322 0.43061-5.142 0.43061-13.957 0-23.722-8.9415-26.077-23.912l-0.93721-5.9399-36.273 5.7373 0.94988 5.9399c1.5578 9.9041 4.5594 18.605 8.8909 25.837 4.4074 7.3457 9.9041 13.324 16.363 17.769 6.4338 4.4581 13.856 7.4724 22.037 8.9922 4.1415 0.78524 8.4349 1.1525 12.804 1.1525 4.1415 0 8.4223-0.34196 12.766-1.0132 9.6381-1.5451 18.238-4.5468 25.545-8.9795 7.3584-4.4581 13.387-10.069 17.934-16.655 4.5341-6.5985 7.6497-14.147 9.2708-22.48 1.6085-8.1943 1.6844-16.959 0.2533-26.014"/>
  <path d="m185.09 67.526c9.8281 3.0649 48.001 4.914 49.824-19.593 1.8111-24.52-21.48-38.211-41.212-29.206-31.321 14.274-29.041 42.441-8.6122 48.799"/>
  <path d="m114.95 77.276c5.6866 1.4058 27.141 0.39262 26.495-15.553-0.62059-15.958-14.54-23.468-24.963-16.515-16.528 11.057-13.362 29.142-1.5325 32.068"/>
  <path d="m266.44 90.264c5.3573 2.4444 26.888 6.2059 29.674-7.5737 2.7736-13.792-9.4735-23.215-21.328-19.517-18.782 5.8766-19.492 22.025-8.3463 27.091"/>
  <path d="m77.265 127.99 5.18 62.819-38.185 4.2301-5.18-64.541-20.213 1.7098-2.0517-32.841 76.497-5.4207 2.457 32.651z"/>
 </g>
</svg>
