<svg width="604.35pt" height="148.2pt" version="1.1" viewBox="0 0 604.35 148.2" xmlns="http://www.w3.org/2000/svg">
 <g transform="translate(-5.42 -7.3537)" fill="#1a1f3c">
  <path d="m316.38 7.5135c-47.88-0.07-95.765-0.05-143.64-0.01v147.57h57.455v-97.9c0-4.2907 9.7-4.4664 9.7 0v97.9h57.56v-97.9c0-4.8115 9.15-4.8817 9.15 0v97.9h57.5v-99.975c0-30.978-19.96-47.803-47.72-47.58z"/>
  <path d="m5.42 7.39h157.72v45.79h-67.055v101.78h-57.74v-101.78h-32.925z"/>
  <path d="m421.96 7.4c47.88-0.07 95.765-0.05 143.64-0.01v147.57h-57.455v-97.9c0-4.2907-9.7-4.4664-9.7 0v97.9h-57.56v-97.9c0-4.8115-9.15-4.8817-9.15 0v97.9h-57.5v-99.975c0-30.978 19.96-47.803 47.72-47.58z"/>
  <path d="m105.17 61.625h57.97v93.36h-57.97z"/>
 </g>
 <path d="m604.35 130.63a17.319 17.571 0 0 1-17.319 17.571 17.319 17.571 0 0 1-17.319-17.571 17.319 17.571 0 0 1 17.319-17.571 17.319 17.571 0 0 1 17.319 17.571z" fill="#eb167a" style="paint-order:stroke fill markers"/>
</svg>
