<svg width="800" height="117.09" version="1.1" viewBox="0 0 800 117.09" xml:space="preserve" xmlns="http://www.w3.org/2000/svg"><defs><clipPath id="clipPath74"><path d="m65.293 215.61h462.99v190.48h-462.99z"/></clipPath><clipPath id="clipPath86"><path d="m65.302 227.73h462.98v178.36h-462.98z"/></clipPath></defs><g transform="matrix(1.3333 0 0 -1.3333 -87.069 457.07)"><g transform="matrix(.5812 0 0 .5812 27.349 106.79)" fill="#35d331"><g transform="translate(185.09 377.52)"><path d="m0 0-0.306-103.98 36.016-0.106 0.306 103.98z" fill="#35d331"/></g><g clip-path="url(#clipPath74)" fill="#35d331"><g transform="translate(281.14 406.05)" fill="#35d331"><path d="m0 0-13.316 0.04-0.084-28.809 12.828-0.038c21.926-0.065 31.831-12.077 31.78-29.413s-9.998-28.515-31.924-28.45l-12.853 0.039 0.169 57.861-36.018 0.105-0.306-103.98 36.018-0.106 0.051 17.313 13.343-0.04c41.555-0.123 63.774 22.749 63.876 57.421 0.101 34.673-22.009 57.937-63.564 58.06" fill="#35d331"/></g></g><g clip-path="url(#clipPath86)" fill="#35d331"><g transform="translate(484.83 332.07)"><path d="m0 0 37.502 44.453-41.448 0.121-45.942-54.288 0.159 54.223-36.014 0.306-0.306-103.98 36.218-0.127 26.133 31.085 26.667-48.757 40.488-0.12z" fill="#35d331"/></g><g transform="translate(65.391 377.87)"><path d="m0 0-0.097-33.008 37.376-0.109-0.209-70.977 36.008-0.105 0.209 70.975 35.678-0.106 0.097 33.008z" fill="#35d331"/></g></g><g transform="translate(352.41 377.03)"><path d="m0 0-0.191-64.56 36.017-0.106 0.19 64.56z" fill="#35d331"/></g><g transform="translate(388.12 272.92)"><path d="m0 0-36.016 0.106 0.084 28.809 36.016-0.105z" fill="#35d331"/></g></g><g transform="matrix(.60777 0 0 -.60777 374.48 186.63)" fill="#fff" stroke-width="4.2916" aria-label="VISION"><path d="m30.582-229.65-24.316 58.16-23.747-58.16h-36.119l42.091 99.54h32.99l42.091-99.54z"/><path d="m66.843-130.11h33.559v-99.54h-33.559z"/><path d="m153.73-127.83c30.857 0 46.357-15.358 46.357-33.559 0-36.688-55.031-26.734-55.031-38.678 0-3.4128 3.1284-6.2568 12.94-6.2568 8.6742 0 17.917 2.4174 27.729 7.3944l10.096-24.316c-10.381-5.8302-24.174-8.6742-37.541-8.6742-30.857 0-46.357 15.073-46.357 33.559 0 37.114 55.031 27.018 55.031 39.532 0 3.4128-3.4128 5.4036-12.94 5.4036-10.949 0-23.463-3.555-32.848-9.1008l-10.807 24.458c9.954 6.1146 26.734 10.238 43.371 10.238z"/><path d="m210.04-130.11h33.559v-99.54h-33.559z"/><path d="m312-127.83c32.422 0 56.169-21.899 56.169-52.045s-23.747-52.045-56.169-52.045-56.169 21.899-56.169 52.045 23.747 52.045 56.169 52.045zm0-27.16c-12.371 0-22.325-9.3852-22.325-24.885s9.954-24.885 22.325-24.885 22.325 9.3852 22.325 24.885-9.954 24.885-22.325 24.885z"/><path d="m445.81-229.65v45.22l-37.825-45.22h-27.587v99.54h32.706v-45.22l37.825 45.22h27.587v-99.54z"/></g></g></svg>
