<svg width="631.56pt" height="457.18pt" version="1.1" viewBox="0 0 631.56 457.18" xmlns="http://www.w3.org/2000/svg">
 <g transform="translate(-167.36,-257.42)" fill="#c8163a">
  <path d="m690.36 257.42v209.08l108.56-9.96v230.82l-308.35 27.24v-209.4l-323.22 28.34v-229.99m20.868 18.16v189.94l481.3-43.25v-189.04m34.375 256.56-22.75 66.35-22.06-61.82-95.76 7.92-0.03 20.11 25.17-2.11-0.01 69.1 22.99-2.86-0.05-68.99 28.87-2.17 26.32 67.16 28.86-3.15 34.09-91.92z"/>
  <path d="m556.81 338.76 23.655-1.53v68.62l36.14-2.67v20.19l-59.795 4.8z"/>
  <path d="m496 343.07c14.22-2.04 29.94 2.37 39.55 13.44 9.4 10.5 11.87 25.85 8.83 39.3-2.85 14.14-12.51 26.59-25.24 33.23-8.51 4.79-18.41 6.91-28.13 6.56-13.04 0.14-26.36-5.74-34.05-16.45-4.83-7.1-7.86-15.56-7.83-24.21-0.77-17.55 8.72-35.11 23.85-44.03 6.88-4.46 14.93-6.84 23.02-7.84m-16.33 29.5c-5.19 5.77-7 13.85-6.41 21.45 0.1 7.39 4.25 14.48 10.6 18.24 6.49 3.61 14.47 3.4394 21.37 0.96 8.48-3.78 14.83-11.92 16.13-21.15 0.65-6.91 0.32-14.56-4.26-20.19-3.55-5.69-10.52-8.63-17.08-8.34-7.63-0.19-15.59 2.93-20.35 9.03z"/>
  <path d="m392.88 353.6c9.7046-0.84943 21.871-2.1006 28.23-0.84 6.87 1.26 12.86 5.75 16.45 11.68 8.36 14.54 2.34 35.74-13.3 42.59l-1.0236 0.47982c5.7021 9.9119 11.886 21.253 17.684 31.74l-26.03 2.18-15.01-29.03-11.6 1v30.307l-23.705 1.8933c0.17-29.74-0.01-59.48 0-89.22l28.305-2.78m-4.6 20.01v19.97l18.68-1.74c5.877-0.70723 10.558-4.0452 10.466-10.234-0.6224-8.9887-8.0994-9.863-14.745-9.3794z"/>
  <path d="m325.36 359.56 23.12-2.09v89.94l-23.12 1.38z"/>
  <path d="m314.06 360.54v20.91l-24.52 1.37v69.62l-23.79 1.95v-69.07l-25.265 2.07v-19.94z"/>
 </g>
</svg>
