<svg width="490.68pt" height="394.13pt" version="1.1" viewBox="0 0 490.68 394.13" xmlns="http://www.w3.org/2000/svg">
 <g transform="translate(-114.06 -135.36)" fill="#ef4d9c">
  <g fill="#ef4d9c">
   <path d="m172.45 528.8q-9.3502 0-13.246-4.3411-3.8959-4.3411-3.8959-13.58v-24.488q0-0.66787-0.66787-0.66787h-3.3393q-1.1131 0-1.1131-1.1131v-9.2388q0-1.1131 1.1131-1.1131h3.3393q0.66787 0 0.66787-0.66787v-14.47q0-1.1131 1.1131-1.1131h13.246q1.1131 0 1.1131 1.1131v14.47q0 0.66787 0.66788 0.66787h6.9013q1.1131 0 1.1131 1.1131v9.2388q0 1.1131-1.1131 1.1131h-6.9013q-0.66788 0-0.66788 0.66787v23.821q0 3.0054 1.1131 4.2298 1.1131 1.1131 3.7846 1.1131h2.6715q1.1131 0 1.1131 1.1131v11.02q0 1.1131-1.1131 1.1131z"/>
   <path d="m204.15 528.84q-8.3787 0-11.999-3.7238-3.517-3.8273-3.517-12.206v-53.996q0-1.0344 1.0344-1.0344h12.413q1.0344 0 1.0344 1.0344v52.858q0 2.586 1.0344 3.7238 1.0344 1.0344 3.3101 1.0344h2.1722q1.0344 0 1.0344 1.0344v10.241q0 1.0344-1.0344 1.0344z"/>
   <path d="m252.48 528.28q-1.1167 0-1.1167-1.1167v-31.044q0-4.4668-2.1217-7.1469-2.0101-2.6801-6.2535-2.6801-4.0201 0-6.2535 2.6801t-2.2334 7.1469v31.044q0 1.1167-1.1167 1.1167h-13.4q-1.1167 0-1.1167-1.1167v-51.815q0-1.1167 1.1167-1.1167h13.4q1.1167 0 1.1167 1.1167v3.7968h0.11166q1.8984-2.5684 5.2485-4.3551 3.4618-1.7867 8.7102-1.7867 4.4668 0 7.9286 1.4517t5.8068 4.1318 3.4618 6.3652q1.2284 3.6851 1.2284 8.1519v34.059q0 1.1167-1.1167 1.1167z"/>
   <path d="m298.64 529.43q-8.5774 0-14.815-3.8988-6.2381-3.8988-8.5774-11.251-0.89115-2.8962-1.3367-5.9039-0.44558-3.119-0.44558-7.1292t0.44558-7.0178q0.44557-3.119 1.3367-6.0153 2.3393-7.352 8.5774-11.251 6.2381-3.8988 14.815-3.8988 8.5774 0 14.815 3.8988 6.2381 3.8988 8.5774 11.251 0.89115 2.8962 1.3367 6.0153 0.44559 3.0076 0.44559 7.0178t-0.44559 7.1292q-0.44558 3.0076-1.3367 5.9039-2.3393 7.352-8.5774 11.251-6.2381 3.8988-14.815 3.8988zm0-13.145q6.4609 0 8.3546-5.7925 0.55697-1.8937 0.77975-3.7874 0.22279-2.0051 0.22279-5.4583t-0.22279-5.3469q-0.22278-2.0051-0.77975-3.8988-1.8937-5.7925-8.3546-5.7925t-8.3546 5.7925q-0.55697 1.8937-0.77976 3.8988-0.22279 1.8937-0.22279 5.3469t0.22279 5.4583q0.22279 1.8937 0.77976 3.7874 1.8937 5.7925 8.3546 5.7925z"/>
   <path d="m345.31 528.31q-1.0064 0-1.3419-1.1182l-19.234-51.886q-0.33547-1.1182 0.89458-1.1182h14.09q1.1182 0 1.4537 1.1182l10.511 32.093h0.22364l10.064-32.093q0.33547-1.1182 1.4537-1.1182h13.866q1.2301 0 0.89459 1.1182l-19.234 51.886q-0.33547 1.1182-1.3419 1.1182z"/>
   <path d="m403.92 529.49q-9.2654 0-15.405-4.0187-6.1397-4.0187-8.484-11.386-0.89305-2.5675-1.4512-5.5816-0.44652-3.014-0.44652-7.256t0.44652-7.256q0.44653-3.1257 1.3396-5.6932 2.3443-7.3677 8.3724-11.275 6.1397-4.0187 14.847-4.0187 9.0421 0 14.959 4.0187 6.0281 4.0187 8.3724 11.163 0.44652 1.3396 0.78142 2.9024 0.33489 1.4512 0.55815 3.349 0.22326 1.8977 0.3349 4.4652 0.11163 2.4559 0.11163 5.9165 0 1.1163-1.228 1.1163h-32.708q-0.66978 0-0.66978 0.66979 0.11163 1.6745 0.66978 3.014 1.1163 3.5722 4.0187 5.3583t7.1444 1.7861q4.0187 0 7.0328-1.228 3.014-1.3396 5.3583-3.5722 1.0047-0.78142 1.5628 0l7.3677 6.9212q0.89305 0.78143 0.11163 1.5628-3.9071 4.1304-9.7119 6.5863t-13.284 2.4559zm8.2607-33.936q0.66979 0 0.66979-0.66979 0-1.228-0.22326-2.121-0.11163-1.0047-0.33489-1.8977-0.89305-2.7908-3.349-4.3536-2.3442-1.5628-5.6932-1.5628-3.3489 0-5.8048 1.5628-2.3443 1.5628-3.2373 4.3536-0.22326 0.89305-0.44652 1.8977-0.11163 0.89305-0.11163 2.121 0 0.66979 0.66978 0.66979z"/>
   <path d="m452.86 528.84q-8.3787 0-11.999-3.7238-3.517-3.8273-3.517-12.206v-53.996q0-1.0344 1.0344-1.0344h12.413q1.0344 0 1.0344 1.0344v52.858q0 2.586 1.0344 3.7238 1.0344 1.0344 3.3101 1.0344h2.1722q1.0344 0 1.0344 1.0344v10.241q0 1.0344-1.0344 1.0344z"/>
   <path d="m499.28 528.23q-1.1141 0-1.1141-1.1141v-3.565h-0.11141q-2.1167 2.6737-5.6817 4.3448-3.565 1.5597-9.1353 1.5597-3.565 0-6.9072-1.0026-3.2308-0.89125-5.6817-2.8966t-3.8992-5.1247q-1.4483-3.1194-1.4483-7.4642 0-8.9125 6.1273-13.146 6.2388-4.2334 16.265-4.2334h9.5809q0.66845 0 0.66845-0.66844v-2.0053q0-3.7878-2.3395-5.5703-2.2281-1.7825-8.6897-1.7825-4.122 0-7.13 1.0026-3.008 1.0027-4.9019 2.4509-0.89125 0.66844-1.4483-0.22281l-5.0133-8.8011q-0.55703-1.0027 0.33423-1.5597 3.4536-2.4509 8.3555-3.8992 5.0133-1.4483 11.698-1.4483 6.573 0 11.141 1.2255 4.5676 1.1141 7.3528 3.565 2.8966 2.3395 4.122 6.0159 1.3369 3.6764 1.3369 8.6897v34.536q0 1.1141-1.1141 1.1141zm-11.363-10.472q10.027 0 10.027-7.4642v-3.6764q0-0.66843-0.66845-0.66843h-7.5756q-9.5809 0-9.5809 6.1273 0 5.6817 7.7984 5.6817z"/>
   <path d="m544.57 529.43q-8.4645 0-14.59-2.4502-6.0142-2.5616-9.9124-5.9029-0.77962-0.77963 0-1.5592l7.2394-8.1304q0.66826-0.66825 1.5592 0 3.564 2.7844 7.9076 4.3436t8.5759 1.5592 6.237-1.4479q2.1161-1.4479 2.1161-3.6754 0-1.8934-1.5592-3.0071-1.4479-1.2251-6.1256-1.6706l-6.0143-0.66825q-8.5759-0.89099-13.142-5.0119-4.455-4.1209-4.455-11.472 0-8.019 5.7915-12.585 5.7915-4.6778 16.372-4.6778 6.9052 0 12.474 1.8934t9.3555 4.7891q0.77962 0.77962 0.11137 1.6706l-6.237 7.6849q-0.66825 0.77962-1.5592 0.22275-2.7844-1.782-6.5711-3.0071-3.7868-1.3365-8.019-1.3365-3.4526 0-5.1232 1.2251t-1.6706 3.2299q0 1.8934 1.4479 3.0071 1.4479 1.0024 6.0142 1.4479l5.9029 0.66825q9.5782 0.89099 13.699 5.2346 4.2322 4.3436 4.2322 11.138-0.11137 8.3531-6.3484 13.476-6.1256 5.0119-17.709 5.0119z"/>
  </g>
 </g>
 <g transform="matrix(4.201 0 0 4.201 -630.94 -1923.5)" fill="#ef4d9c">
  <g fill="#ef4d9c">
   <path d="m172.45 528.8q-9.3502 0-13.246-4.3411-3.8959-4.3411-3.8959-13.58v-24.488q0-0.66787-0.66787-0.66787h-3.3393q-1.1131 0-1.1131-1.1131v-9.2388q0-1.1131 1.1131-1.1131h3.3393q0.66787 0 0.66787-0.66787v-14.47q0-1.1131 1.1131-1.1131h13.246q1.1131 0 1.1131 1.1131v14.47q0 0.66787 0.66788 0.66787h6.9013q1.1131 0 1.1131 1.1131v9.2388q0 1.1131-1.1131 1.1131h-6.9013q-0.66788 0-0.66788 0.66787v23.821q0 3.0054 1.1131 4.2298 1.1131 1.1131 3.7846 1.1131h2.6715q1.1131 0 1.1131 1.1131v11.02q0 1.1131-1.1131 1.1131z"/>
   <path d="m204.15 528.84q-8.3787 0-11.999-3.7238-3.517-3.8273-3.517-12.206v-53.996q0-1.0344 1.0344-1.0344h12.413q1.0344 0 1.0344 1.0344v52.858q0 2.586 1.0344 3.7238 1.0344 1.0344 3.3101 1.0344h2.1722q1.0344 0 1.0344 1.0344v10.241q0 1.0344-1.0344 1.0344z"/>
   <path d="m252.48 528.28q-1.1167 0-1.1167-1.1167v-31.044q0-4.4668-2.1217-7.1469-2.0101-2.6801-6.2535-2.6801-4.0201 0-6.2535 2.6801t-2.2334 7.1469v31.044q0 1.1167-1.1167 1.1167h-13.4q-1.1167 0-1.1167-1.1167v-51.815q0-1.1167 1.1167-1.1167h13.4q1.1167 0 1.1167 1.1167v3.7968h0.11166q1.8984-2.5684 5.2485-4.3551 3.4618-1.7867 8.7102-1.7867 4.4668 0 7.9286 1.4517t5.8068 4.1318 3.4618 6.3652q1.2284 3.6851 1.2284 8.1519v34.059q0 1.1167-1.1167 1.1167z"/>
  </g>
 </g>
</svg>
