<svg width="600pt" height="177.26pt" version="1.1" viewBox="0 0 600 177.26" xmlns="http://www.w3.org/2000/svg">
 <defs>
  <mask id="a" fill="#ffffff">
   <path d="m5.5 3.5h54.577v16.826h-54.577z" fill-rule="evenodd"/>
  </mask>
  <radialGradient id="b" cx="14.23" cy="7.3456" r="45.146" gradientTransform="scale(2.0893 .47863)" gradientUnits="userSpaceOnUse">
   <stop stop-color="#fff" offset="0"/>
   <stop stop-color="#fff" stop-opacity="0" offset="1"/>
  </radialGradient>
 </defs>
 <g transform="matrix(7.3859 0 0 7.3859 0 -2.318e-6)" fill-rule="evenodd">
  <path d="m0 24h66v-24h-66z"/>
  <path d="m42.11 3.963a1.977 1.977 0 0 0-2.785 0.244l-5.95 7.089-5.947-7.09a1.977 1.977 0 0 0-3.492 1.272h-1e-3v14.848h3.955v-9.416l3.96 4.719v2e-3l0.01 0.012a1.977 1.977 0 0 0 3.03 0l3.972-4.733v9.415h3.955v-14.847c0-0.564-0.24-1.124-0.706-1.515zm14.786 10.612a4.436 4.436 0 0 1-7.978-2.42 4.435 4.435 0 0 1 4.188-4.672 4.43 4.43 0 0 1 3.484 1.394c0.039 0.04 0.084 0.078 0.126 0.117 0.814 0.73 2.064 0.66 2.792-0.152a1.982 1.982 0 0 0-0.024-2.676 8.392 8.392 0 0 0-6.595-2.653 8.414 8.414 0 1 0 7.189 13.448zm-36.473-11.075h-12.945a1.978 1.978 0 1 0 0 3.955h4.495v12.87h3.955v-12.869h4.495a1.978 1.978 0 0 0 0-3.955z" fill="#fff" mask="url(#a)"/>
  <path d="m66 0v6.766c-33.032-1.815-66 8.354-66 8.354v-15.12z" fill="url(#b)" fill-opacity=".9" opacity=".6"/>
 </g>
 <g transform="translate(0 -256.74)" fill="#fff" stroke-width=".40844">
  <path d="m565.16 266.16 20.001-9.2777h14.839v75.812h-17.134l-0.0245-60.008-14.749 6.9843z"/>
  <path d="m516.58 296.16-24.397 2e-5v10.92h24.397v25.624h11.434v-25.624h24.397v-10.92h-24.397v-25.624h-11.434z"/>
 </g>
</svg>
