<svg width="800" height="799.87" version="1.1" viewBox="0 0 211.67 211.63" xmlns="http://www.w3.org/2000/svg">
 <g transform="translate(64.256 -6.3134)">
  <g transform="matrix(.2818 0 0 .2818 -64.251 6.2889)" fill="#fff">
   <path d="m751.1 375.54c0 207.38-168.17 375.55-375.57 375.55-207.42 0-375.55-168.17-375.55-375.55 0-19.59 1.49-38.82 4.4-57.58h80.2v221.9h76.08v-221.9h85.23v221.9h72.68v-165.43h1.56l96.78 144.89c9.63 15.28 18.5 20.54 37 20.54h49.96v-221.9h85.51v221.9h74.83v-221.9h82.46c2.911 18.76 4.43 37.99 4.43 57.58z"/>
   <path d="m243.26 263.46h73.622c18.536 0 27.785 5.214 37.036 20.51l76.028 118.42h2.632v-138.93h301.34c-47.671-152.61-190.13-263.37-358.49-263.37-168.34 0-310.84 110.76-358.51 263.37h226.33"/>
  </g>
 </g>
</svg>
