<svg width="800" height="289.96" space="preserve" version="1.1" viewBox="0 0 800 289.96" xmlns="http://www.w3.org/2000/svg">
 <link href="" rel="stylesheet" type="text/css"/>
 <g transform="matrix(1.021 0 0 1.021 .0038866 -.00040025)" fill="#2f6e51">
  <path d="m327.5 192.6c-19.9 0-35.9 16.1-35.9 35.9v55.5h15.6v-25.9c5.8 4 12.8 6.3 20.4 6.3 19.9 0 35.9-16.1 35.9-35.9s-16.1-35.9-36-35.9zm0 56.3c-11.3 0-20.4-9.1-20.4-20.4s9.1-20.4 20.4-20.4 20.4 9.1 20.4 20.4-9.1 20.4-20.4 20.4z"/>
  <path d="m453.8 234.8c0 16.4-13.3 29.6-29.6 29.6s-29.6-13.3-29.6-29.6v-40.6h15.6v40.6c0 7.8 6.3 14.1 14.1 14.1s14.1-6.3 14.1-14.1v-40.6h15.6z"/>
  <rect x="369.9" y="172.9" width="15.6" height="89.8"/>
  <path d="m504.8 194.2c-16.4 0-29.6 13.3-29.6 29.6v9.3c0 7.8-6.3 14.1-14.1 14.1h-4.4v15.6h4.4c16.4 0 29.6-13.3 29.6-29.6v-9.3c0-7.8 6.3-14.1 14.1-14.1h4.7v-15.6z"/>
 </g>
 <path d="m460.66 21.236c-34.61 0-62.789 28.076-62.789 62.789 0 0.81676 0 1.5315 0.10214 2.3482h-40.94v25.32h32.773c-5.6152 11.945-17.662 20.215-31.751 20.215-19.398 0-35.019-15.723-35.019-35.019 0-19.398 15.723-35.019 35.019-35.019 6.0236 0 11.639 1.5315 16.539 4.1859l20.113-20.215c-10.312-7.4532-22.971-11.843-36.652-11.843-17.356 0-32.977 7.0449-44.411 18.377h-54.519v25.32h32.773c-5.6152 11.945-17.662 20.215-31.751 20.215-19.398 0-35.019-15.723-35.019-35.019s15.723-35.019 35.019-35.019c10.822 0 20.521 4.9006 26.953 12.762l19.602-19.806c-11.333-12.762-27.974-20.827-46.556-20.827-26.034 0-48.393 15.927-57.888 38.49-11.23-10.72-26.443-17.356-43.187-17.356h-159.07v27.872h40.94v35.427c0 38.286 18.275 72.281 46.658 93.827l19.908-19.806c-23.38-16.233-38.694-43.289-38.694-74.021v-35.427h38.796c-6.8401 10.006-10.924 22.155-10.924 35.223 0 34.508 27.974 62.482 62.482 62.482 26.034 0 48.393-15.927 57.786-38.592 11.23 10.72 26.545 17.356 43.289 17.356 13.987 0 26.851-4.5943 37.265-12.353 7.249 26.647 31.547 46.249 60.543 46.249 24.197 0 45.228-13.783 55.642-33.793 11.537 12.966 28.28 21.134 46.964 21.134 34.61 0 62.789-28.076 62.789-62.789 0-34.712-28.178-62.687-62.789-62.687zm-301.49 98.113c-19.398 0-35.019-15.723-35.019-35.019s15.723-35.019 35.019-35.019 35.019 15.723 35.019 35.019-15.723 35.019-35.019 35.019zm301.49-0.2042c-19.398 0-35.019-15.723-35.019-35.019s15.723-35.019 35.019-35.019 35.019 15.723 35.019 35.019-15.723 35.019-35.019 35.019z" fill="#ed6500" stroke-width="1.021"/>
 <path d="m664.63 1.5475e-4c-26.77 0-48.472 21.701-48.472 48.472v38.428h-38.428c-26.77 0-48.472 21.701-48.472 48.472 0 26.77 21.701 48.472 48.472 48.472h38.428v38.428c0 26.77 21.701 48.472 48.472 48.472s48.472-21.701 48.472-48.472v-38.428h38.428c26.77 0 48.472-21.701 48.472-48.472 0-26.77-21.701-48.472-48.472-48.472h-38.428v-38.428c0-26.77-21.701-48.472-48.472-48.472z" fill="#515151" stop-color="#000000" stroke-width="2.7072" style="paint-order:stroke fill markers"/>
</svg>
