<svg width="800" height="443.14" xmlns:cc="http://creativecommons.org/ns#" xmlns:dc="http://purl.org/dc/elements/1.1/" xmlns:rdf="http://www.w3.org/1999/02/22-rdf-syntax-ns#" space="preserve" version="1.1" viewBox="0 0 800 443.14" xmlns="http://www.w3.org/2000/svg">
 <metadata>
  <rdf:RDF>
   <cc:Work rdf:about="">
    <dc:format>image/svg+xml</dc:format>
    <dc:type rdf:resource="http://purl.org/dc/dcmitype/StillImage"/>
    <dc:title/>
   </cc:Work>
  </rdf:RDF>
 </metadata>
 <link href="" rel="stylesheet" type="text/css"/>
 <g transform="scale(1.5604)" fill="#fff">
  <path d="m327.5 192.6c-19.9 0-35.9 16.1-35.9 35.9v55.5h15.6v-25.9c5.8 4 12.8 6.3 20.4 6.3 19.9 0 35.9-16.1 35.9-35.9s-16.1-35.9-36-35.9zm0 56.3c-11.3 0-20.4-9.1-20.4-20.4s9.1-20.4 20.4-20.4 20.4 9.1 20.4 20.4-9.1 20.4-20.4 20.4z"/>
  <path d="m453.8 234.8c0 16.4-13.3 29.6-29.6 29.6s-29.6-13.3-29.6-29.6v-40.6h15.6v40.6c0 7.8 6.3 14.1 14.1 14.1s14.1-6.3 14.1-14.1v-40.6h15.6z"/>
  <rect x="369.9" y="172.9" width="15.6" height="89.8"/>
  <path d="m504.8 194.2c-16.4 0-29.6 13.3-29.6 29.6v9.3c0 7.8-6.3 14.1-14.1 14.1h-4.4v15.6h4.4c16.4 0 29.6-13.3 29.6-29.6v-9.3c0-7.8 6.3-14.1 14.1-14.1h4.7v-15.6z"/>
 </g>
 <path d="m704.04 32.456c-52.896 0-95.963 42.91-95.963 95.963 0 1.2483 0 2.3406 0.15603 3.5888h-62.571v38.697h50.088c-8.582 18.256-26.994 30.895-48.527 30.895-29.647 0-53.521-24.03-53.521-53.521 0-29.647 24.03-53.521 53.521-53.521 9.2062 0 17.788 2.3406 25.278 6.3975l30.739-30.895c-15.76-11.391-35.108-18.1-56.017-18.1-26.526 0-50.4 10.767-67.876 28.087h-83.324v38.697h50.088c-8.582 18.256-26.994 30.895-48.527 30.895-29.647 0-53.521-24.03-53.521-53.521 0-29.491 24.03-53.521 53.521-53.521 16.54 0 31.363 7.4898 41.194 19.505l29.959-30.271c-17.32-19.505-42.754-31.831-71.153-31.831-39.789 0-73.961 24.342-88.473 58.826-17.164-16.384-40.414-26.526-66.004-26.526h-243.11v42.598h62.571v54.145c0 58.514 27.931 110.47 71.309 143.4l30.427-30.271c-35.732-24.81-59.138-66.16-59.138-113.13v-54.145h59.294c-10.454 15.292-16.696 33.86-16.696 53.833 0 52.74 42.754 95.494 95.494 95.494 39.789 0 73.961-24.342 88.317-58.982 17.164 16.384 40.57 26.526 66.16 26.526 21.377 0 41.038-7.0216 56.953-18.88 11.079 40.726 48.215 70.685 92.53 70.685 36.981 0 69.124-21.065 85.04-51.648 17.632 19.817 43.222 32.3 71.777 32.3 52.896 0 95.963-42.91 95.963-95.963 0-53.052-43.066-95.807-95.963-95.807zm-460.78 149.95c-29.647 0-53.521-24.03-53.521-53.521 0-29.491 24.03-53.521 53.521-53.521s53.521 24.03 53.521 53.521c0 29.491-24.03 53.521-53.521 53.521zm460.78-0.31208c-29.647 0-53.521-24.03-53.521-53.521 0-29.491 24.03-53.521 53.521-53.521s53.521 24.03 53.521 53.521c0 29.491-24.03 53.521-53.521 53.521z" fill="#ed6500" stroke-width="1.5604"/>
</svg>
