<svg width="800" height="196.54" version="1.2" viewBox="0 0 800 196.54" xml:space="preserve" xmlns="http://www.w3.org/2000/svg">
<g transform="matrix(.50213 0 0 .50213 -1.0043 -127.84)">
		<path d="m1399.5 254.6c-108.1 0-195.7 87.6-195.7 195.7s87.6 195.7 195.7 195.7 195.7-87.6 195.7-195.7-87.6-195.7-195.7-195.7z" fill="#7a2682"/>
		<g fill="#d6006d">
			<path d="m179.1 385.6h-171.1c-3.3 0-6 2.7-6 6v23.7c0 3.3 2.7 6 6 6h56.2v106.4c0 3.3 2.7 6 6 6h46.5c3.3 0 6-2.7 6-6v-106.3h56.2c3.3 0 6-2.7 6-6v-23.7c0.2-3.4-2.5-6.1-5.8-6.1z"/>
			<path d="m290.2 535c26.7 0 48.7-5.1 67.3-15.7 26.8-15.3 26.8-34.4 26.8-58.6v-1.9c0-24.2 0-43.3-26.8-58.6-18.5-10.6-40.5-15.7-67.3-15.7-27 0-49.1 5.1-67.6 15.7-26.5 15.1-26.5 33.9-26.5 57.7v3.7c0 23.8 0 42.5 26.5 57.7 18.6 10.5 40.7 15.7 67.6 15.7zm26.5-42c-6.1 4-15.7 6.3-26.5 6.3-11 0-20.8-2.3-26.9-6.3-6-3.8-8.6-6.6-8.6-33.2s2.7-29.4 8.7-33.2c6.1-4 15.8-6.3 26.8-6.3 10.8 0 20.4 2.3 26.6 6.3 6 3.8 8.9 6.8 8.9 33.2 0 26.3-2.9 29.3-9 33.2z"/>
			<path d="m425.8 533.8h46.5c3.3 0 6-2.7 6-6v-63.5l35.3 39.8c1.1 1.3 2.8 2 4.5 2h31.5c1.7 0 3.4-0.7 4.5-2l35-39.7v63.4c0 3.3 2.7 6 6 6h46.5c3.3 0 6-2.7 6-6v-136.1c0-3.3-2.7-6-6-6h-45.9c-1.8 0-3.5 0.8-4.6 2.1l-57.1 68.2-57.7-68.2c-1.1-1.4-2.8-2.1-4.6-2.1h-45.9c-3.3 0-6 2.7-6 6v136.1c0 3.3 2.7 6 6 6z"/>
			<path d="m913.3 533.8c3.3 0 6-2.7 6-6v-136.1c0-3.3-2.7-6-6-6h-45.9c-1.8 0-3.5 0.8-4.6 2.1l-57.3 68.2-57.7-68.2c-1.1-1.4-2.8-2.1-4.6-2.1h-45.9c-3.3 0-6 2.7-6 6v136.1c0 3.3 2.7 6 6 6h46.5c3.3 0 6-2.7 6-6v-63.5l35.3 39.8c1.1 1.3 2.8 2 4.5 2h31.5c1.7 0 3.4-0.7 4.5-2l35-39.7v63.4c0 3.3 2.7 6 6 6z"/>
			<path d="m1137.1 389.2c-1-2.2-3.1-3.6-5.5-3.6h-50.6c-1.8 0-3.5 0.8-4.7 2.3l-39.2 49-39.8-49.1c-1.2-1.4-2.9-2.2-4.7-2.2h-50.5c-2.4 0-4.5 1.4-5.5 3.6s-0.6 4.7 1 6.5l70.1 78.6v53.5c0 3.3 2.7 6 6 6h46.2c3.3 0 6-2.7 6-6v-53.5l70.1-78.6c1.6-1.8 2-4.3 1.1-6.5z"/>
		</g>
		<g fill="#fff" stroke="#732281" stroke-miterlimit="10" stroke-width=".25">
			<path d="m1341.8 492.4-49.6-20.2v54.3c0 3.3 2.7 6.1 6.1 6.1h41.4c3.3 0 6.1-2.7 6.1-6.1v-28.5c-0.1-2.4-1.7-4.7-4-5.6z"/>
			<path d="m1341.8 446.2-15.6-6.4h-76.7c-3.3 0-6.1 2.7-6.1 6.1 0 2.3 1.4 4.5 3.5 5.5l95.8 38.9c1.2 0.5 2.3 1.2 3.1 2.1v-40.5c-0.1-2.5-1.7-4.8-4-5.7z"/>
			<path d="m1422.6 438.5-27.4-51.3c-1.3-2.3-3.8-3.6-6.3-3.3h-139.5c-3.3 0-6.1 2.7-6.1 6.1v50.3c1.5-1.6 3.7-2.7 6.1-2.7h86.2l81.3-0.1c2.1 0.1 4.1 0.5 5.7 1z"/>
				<path d="m1473.3 532.7c-1.1-0.6-1.9-1.5-2.5-2.6l-26.4-50.9-18.7-35c-2.2-3-4.6-4.3-7.5-4.2l-55.7 0.1 47.9 89.4c1.2 2.2 3.4 3.4 5.8 3.3h57.1z"/>
				<path d="m1550.9 383.9h-50.4c-1.7 0-3.3 0.9-4.1 2.5l-49.6 92.7 25.9 49.9c0.8 1.4 2.4 2.4 4.1 2.4s3.2-0.8 4-2.1l74.2-138.5c1.7-3.1-0.5-6.9-4.1-6.9z"/>
		</g>
</g>
</svg>
