<svg width="800" height="140.73" version="1.1" viewBox="0 0 800 140.73" xml:space="preserve" xmlns="http://www.w3.org/2000/svg"><g transform="matrix(1.3333 0 0 -1.3333 144.54 180.06)"><g fill="#61c3da"><path d="m-61.608 40.532c-1.8854 0-3.7118 0.55972-5.2732 1.635-0.72175 0.48608-1.3698 1.0753-1.9296 1.7381-1.6055 1.9001-2.4156 4.3452-2.2831 6.8492 0.44189 8.3664 0.83958 18.942 0.83958 22.183v39.077h-16.6c-1.5466 0-2.8281-0.0295-4.2863-0.0884h-0.35351c-1.6055 0-3.1816 0.47135-4.5367 1.3551-0.73648 0.47134-1.3993 1.0753-1.959 1.7675-1.2815 1.5613-1.9738 3.5498-1.959 5.5825 0.01473 1.5761 0.45662 3.1079 1.2667 4.463 1.5613 2.5482 4.2421 4.0801 7.1586 4.0801h61.245c1.5466 0 3.0196-0.47135 4.301-1.3404 0.66283-0.47134 1.2667-1.0458 1.7823-1.7381 1.0311-1.3698 1.5761-3.0196 1.5761-4.7429v-2.1211c0-0.73647-0.10311-1.473-0.32405-2.1947-0.94269-3.1374-3.8297-5.3174-7.026-5.3174-0.1473 0-0.29459 0-0.44189 0.0147-0.76594 0.0442-1.6202 0.0884-2.5629 0.14729h-19.546v-38.267c-0.08838-4.7429 0.19148-13.934 0.69229-22.831 0.07365-1.2667-0.08838-2.504-0.48608-3.6971-1.3109-3.9181-4.9197-6.5546-8.9703-6.5546z"/><path d="m128.06 113.21c-10.046 0-19.163-5.612-23.773-14.656-2.0621-4.0506-3.1521-8.6757-3.1521-13.389 0-7.9245 2.8281-15.201 7.9981-20.489 0.66283-0.69229 1.3698-1.3404 2.1063-1.959 4.6693-3.8297 10.399-5.8624 16.556-5.8624 10.856 0 20.592 6.6283 24.79 16.88 1.414 3.4762 2.1358 7.1733 2.1358 11.018 0 8.2338-2.3567 14.553-7.4237 19.885-0.33878 0.35351-0.61864 0.6481-0.8985 0.92796-0.33878 0.30932-0.69229 0.61864-1.1194 0.97215-4.9639 4.1832-11.401 6.6725-17.219 6.6725m-0.67756-75.725c-10.252 0-20.386 3.8886-28.516 10.944-0.70702 0.61864-1.4288 1.2815-2.1505 1.9885-9.2649 9.0881-14.582 21.711-14.582 34.614 0 7.2911 1.635 14.332 4.846 20.945 2.18 4.4778 5.0228 8.6315 8.4695 12.358 8.2485 8.9703 20.238 14.111 32.876 14.111 10.767 0 21.24-4.0359 29.518-11.386 0.67756-0.58918 1.3698-1.2373 2.0327-1.9001 1.1784-1.1784 2.3125-2.4156 3.3583-3.7118 6.9523-8.5873 10.34-18.589 10.34-30.549 0-6.3042-1.2962-12.476-3.8444-18.382-7.4973-17.366-24.51-29.032-42.347-29.032"/><path d="m28.294 112.63c-10.046 0-19.163-5.612-23.773-14.656-2.0621-4.0506-3.1669-8.6757-3.1669-13.374 0-7.9392 2.8428-15.216 8.0129-20.504 0.66283-0.69229 1.3698-1.3404 2.1063-1.9443 4.6693-3.8444 10.399-5.8771 16.556-5.8771 10.856 0 20.592 6.6283 24.79 16.88 1.414 3.4762 2.1358 7.188 2.1358 11.018 0 8.2338-2.3567 14.553-7.4237 19.885-0.33878 0.36824-0.63337 0.6481-0.91323 0.92796-0.32405 0.30932-0.69229 0.61864-1.1047 0.97215-4.9639 4.1832-11.401 6.6725-17.219 6.6725m-0.67756-75.725c-10.252 0-20.386 3.8886-28.516 10.944-0.72175 0.61864-1.4435 1.2815-2.1505 1.9885-9.2649 9.0881-14.582 21.711-14.582 34.614 0 7.2911 1.635 14.332 4.846 20.945 2.18 4.4778 5.0228 8.6315 8.4695 12.358 8.2485 8.9703 20.238 14.111 32.876 14.111 10.767 0 21.24-4.0359 29.518-11.386 0.67756-0.58918 1.3551-1.2373 2.0327-1.9001 1.1784-1.1784 2.3125-2.4156 3.3583-3.7118 6.9523-8.5873 10.34-18.589 10.34-30.549 0-6.3042-1.2962-12.476-3.8444-18.382-7.4973-17.366-24.51-29.032-42.347-29.032"/><path d="m196.87 38.637c-1.797 0-3.5204 0.5008-4.9786 1.4582-0.73648 0.47134-1.3846 1.0605-1.9443 1.7381-0.81013 1.0016-1.3404 2.1211-1.5908 3.3436v5.3174l-0.42716 65.915v0.67756l-0.29459 8.4989-0.13256 7.3058 55.471-49.933-0.1473 31.978v0.53026c-0.0589 1.09-0.11783 3.0048-0.17675 4.6987-0.0442 1.3846-0.0884 2.6955-0.11784 3.4025-0.0884 1.797 0.35351 3.5646 1.2962 5.1259 1.8117 2.9901 5.2143 4.8608 8.9114 4.9049h0.11784c2.0916 0 4.0801-0.63337 5.7298-1.8265 0.67755-0.48608 1.2815-1.0753 1.7823-1.7234 1.1931-1.5171 1.8117-3.2994 1.7675-5.1553-0.0147-1.0458-0.0295-2.7544-0.0589-4.684-0.0295-2.4451-0.0589-5.2437-0.10311-7.4237v-53.998l0.0884-5.7003c0.11783-6.7461 0.17675-10.119 0.22094-12.049 0.0147-0.66283 0.0295-1.1636 0.0442-1.6055l-55.972 52.157-0.14729-27.809c0-1.5024 0.29459-10.163 0.57445-15.51 0.0589-1.0311-0.0737-2.0769-0.3977-3.0785-1.2373-3.8591-5.1553-6.5546-9.5153-6.5546"/><path d="m299.69 69.794h20.017l-10.075 25.129zm38.827-31.153c-1.7676 0-3.4762 0.51553-4.9491 1.5024-0.72174 0.48608-1.3698 1.0753-1.9296 1.7528-0.60391 0.72175-1.09 1.5319-1.4435 2.4009l-4.4925 10.9h-31.359l-3.9475-9.9572c-2.4893-4.8755-4.1979-6.5988-8.7641-6.5988-1.7676 0-3.5498 0.53026-5.0228 1.473-0.73648 0.48608-1.3846 1.0753-1.9296 1.7381-1.252 1.5613-2.4451 4.3452-0.97215 8.6315l36.19 84.562 1.0458-2.3862 35.675-81.263c0.91323-2.0769 1.0311-4.4041 0.32405-6.5399-1.2078-3.7266-4.5956-6.2159-8.4253-6.2159"/><path d="m436.16 36.899c-1.7086 0-3.3878 0.51553-4.8313 1.473-0.72175 0.48607-1.3698 1.0605-1.9148 1.7381-1.473 1.7675-2.2242 4.0064-2.1063 6.3042 0.16202 3.1521 0.2504 5.9065 0.2504 8.2191l-0.14729 34.217-25.232-28.914-25.968 28.899 0.22094-35.292c0.0147-0.61864 0.0442-2.0179 0.0589-3.5204 0.0295-1.7381 0.0589-3.5351 0.0884-4.3452 0.0295-1.0016-0.10311-2.0032-0.41243-2.9754-1.1194-3.4762-4.2716-5.8034-7.8508-5.8034h-0.27986c-1.635 0-3.2258 0.48608-4.6104 1.3846-0.72175 0.48608-1.3698 1.0605-1.9296 1.7381-1.3993 1.6939-2.1063 3.8444-2.0032 6.0538 0.17675 3.3141 0.30932 10.001 0.38296 15.009l-0.26513 51.303c0 2.3862-0.20621 16.585-0.26513 20.886l42.716-45.691 43.305 45.676c-0.0147-0.7954-0.0442-1.8412-0.0884-3.049-0.13256-4.846-0.38297-13.257-0.38297-14.995l-0.26513-57.755c0-2.0327 0.1473-6.3779 0.38297-11.077 0.0442-1.1194-0.10311-2.2389-0.45661-3.3289-1.2226-3.6824-4.5956-6.1569-8.3958-6.1569"/><path d="m472.84 36.899c-1.9001 0-3.7413 0.57445-5.3174 1.6497-0.70702 0.48608-1.3551 1.0753-1.9296 1.7528-1.5761 1.8559-2.4009 4.2274-2.3273 6.6725 0.0589 1.9001 0.0884 3.8591 0.0884 5.6414l0.3977 59.758c0 1.1342-0.0884 8.4548-0.20622 11.253-0.0884 1.9885 0.3977 3.9328 1.3993 5.6267 1.8117 3.0785 4.9786 4.9049 8.4842 4.9049 1.8412 0 3.594-0.57445 5.0964-1.635 0.69229-0.5008 1.3257-1.1047 1.8706-1.797 1.3404-1.7234 2.018-3.8886 1.9148-6.0833-0.0589-1.0458-0.10311-3.1374-0.16202-5.5678-0.0884-3.0196-0.16203-6.4368-0.26513-8.5431v-0.70701l-0.53027-56.944c0.10311-2.6219 0.19149-4.6545 0.29459-6.4515 0.0737-1.1489-0.0736-2.2831-0.44188-3.4025-1.2226-3.6677-4.5809-6.1275-8.3664-6.1275"/></g><g fill="#fff"><path d="m-58.104 33.708c-1.8854 0-3.7118 0.55972-5.2732 1.635-0.72175 0.48608-1.3698 1.0753-1.9296 1.7381-1.6055 1.9001-2.4156 4.3452-2.2831 6.8492 0.44189 8.3664 0.83958 18.942 0.83958 22.183v39.077h-16.6c-1.5466 0-2.8281-0.0295-4.2863-0.0884h-0.35351c-1.6055 0-3.1668 0.47134-4.5367 1.3551-0.73648 0.47134-1.3846 1.0752-1.959 1.7675-1.2667 1.5613-1.9738 3.5498-1.959 5.5825 0.01473 1.5761 0.45662 3.1079 1.2815 4.463 1.5466 2.5482 4.2274 4.0801 7.1586 4.0801h61.231c1.5319 0 3.0196-0.47134 4.2863-1.3404 0.67756-0.47135 1.2815-1.0458 1.797-1.7381 1.0311-1.3698 1.5761-3.0196 1.5761-4.7429v-2.121c0-0.73648-0.11784-1.473-0.32405-2.1947-0.94269-3.1374-3.8297-5.3174-7.0407-5.3174-0.13257 0-0.27986 0-0.42716 0.0147-0.76594 0.0442-1.6202 0.0884-2.5629 0.1473h-19.546v-38.267c-0.08838-4.7429 0.19148-13.934 0.69229-22.831 0.07365-1.2667-0.08838-2.504-0.48608-3.6971-1.3109-3.9181-4.9197-6.5546-8.9703-6.5546z"/><path d="m130.96 105.22c-10.046 0-19.163-5.612-23.773-14.656-2.0621-4.0506-3.1521-8.6757-3.1521-13.389 0-7.9245 2.8428-15.201 7.9981-20.489 0.66283-0.69229 1.3846-1.3404 2.121-1.959 4.6545-3.8297 10.384-5.8624 16.541-5.8624 10.856 0 20.592 6.6283 24.79 16.88 1.414 3.4762 2.1358 7.1733 2.1358 11.018 0 8.2338-2.3567 14.553-7.4237 19.885-0.33878 0.35351-0.63337 0.6481-0.91323 0.92796-0.32405 0.30932-0.69229 0.61864-1.1047 0.97215-4.9639 4.1832-11.401 6.6725-17.219 6.6725m-0.67756-75.725c-10.252 0-20.386 3.8886-28.516 10.944-0.70702 0.61864-1.4288 1.2815-2.1358 1.9885-9.2649 9.0881-14.582 21.711-14.582 34.614 0 7.2911 1.6202 14.332 4.8313 20.945 2.18 4.4778 5.0228 8.6315 8.4695 12.358 8.2485 8.9703 20.238 14.111 32.876 14.111 10.767 0 21.24-4.0359 29.518-11.386 0.67756-0.58918 1.3551-1.2373 2.0327-1.9001 1.1784-1.1784 2.3125-2.4156 3.3583-3.7118 6.9523-8.5873 10.34-18.589 10.34-30.549 0-6.3042-1.2962-12.476-3.8444-18.382-7.4973-17.366-24.525-29.032-42.347-29.032"/><path d="m31.21 105.22c-10.046 0-19.163-5.612-23.773-14.656-2.0621-4.0506-3.1521-8.6757-3.1521-13.389 0-7.9245 2.8428-15.201 7.9981-20.489 0.66283-0.69229 1.3846-1.3404 2.1211-1.959 4.6545-3.8297 10.384-5.8624 16.541-5.8624 10.856 0 20.592 6.6283 24.79 16.88 1.414 3.4762 2.1358 7.1733 2.1358 11.018 0 8.2338-2.3567 14.553-7.4237 19.885-0.33878 0.36824-0.63337 0.6481-0.91323 0.92796-0.32405 0.30932-0.69229 0.61864-1.1047 0.97215-4.9639 4.1832-11.401 6.6725-17.219 6.6725m-0.67756-75.725c-10.252 0-20.386 3.8886-28.516 10.944-0.70702 0.61864-1.4288 1.2815-2.1358 1.9885-9.2796 9.0881-14.582 21.711-14.582 34.614 0 7.2911 1.6202 14.332 4.8313 20.945 2.18 4.4778 5.0228 8.6315 8.4695 12.358 8.2485 8.9703 20.238 14.111 32.891 14.111 10.753 0 21.225-4.0359 29.503-11.386 0.67756-0.58918 1.3551-1.2373 2.0327-1.9001 1.1784-1.1784 2.3125-2.4156 3.3583-3.7118 6.9523-8.5873 10.34-18.589 10.34-30.549 0-6.3042-1.2962-12.476-3.8444-18.382-7.4973-17.366-24.525-29.032-42.347-29.032"/><path d="m199.77 30.653c-1.797 0-3.5204 0.5008-4.9786 1.4582-0.73648 0.47134-1.3846 1.0605-1.9443 1.7381-0.81013 1.0016-1.3404 2.1211-1.5908 3.3436v5.3174l-0.42716 65.915v0.67756l-0.29459 8.4989-0.13256 7.3058 55.471-49.933-0.1473 31.978v0.53026c-0.0737 1.09-0.13256 3.0048-0.17675 4.6987-0.0442 1.3846-0.0884 2.6955-0.11784 3.4025-0.10311 1.797 0.35351 3.5645 1.2962 5.1259 1.797 2.9901 5.2143 4.8608 8.8966 4.9049h0.13257c2.0916 0 4.0654-0.63337 5.7151-1.8265 0.67755-0.48608 1.2815-1.0753 1.797-1.7234 1.1931-1.5171 1.797-3.2994 1.7675-5.1553-0.0147-1.0458-0.0442-2.7544-0.0589-4.684-0.0295-2.4451-0.0736-5.2437-0.10311-7.4237v-53.998l0.0884-5.7003c0.1031-6.7461 0.16202-10.119 0.20621-12.049 0.0295-0.66283 0.0442-1.1636 0.0589-1.6055l-55.972 52.157-0.14729-27.809c0-1.5024 0.29459-10.163 0.57445-15.51 0.0589-1.0311-0.0736-2.0621-0.3977-3.0637-1.2373-3.8739-5.1553-6.5694-9.5153-6.5694"/><path d="m293.91 61.811h20.017l-10.09 25.129zm38.827-31.153c-1.7676 0-3.4762 0.51553-4.9491 1.5024-0.72174 0.48608-1.3698 1.0753-1.9296 1.7528-0.60391 0.72175-1.1047 1.5319-1.4582 2.4009l-4.4778 10.9h-31.359l-3.9475-9.9572c-2.4893-4.8755-4.1979-6.5988-8.7641-6.5988-1.7528 0-3.5351 0.51553-5.0228 1.473-0.73648 0.48608-1.3846 1.0753-1.9296 1.7381-1.252 1.5613-2.4451 4.3452-0.97215 8.6315l36.19 84.562 1.0458-2.3862 35.66-81.263c0.92796-2.0769 1.0458-4.4041 0.33878-6.5399-1.2226-3.7266-4.6103-6.2159-8.4253-6.2159"/><path d="m432.68 31.232c-1.7086 0-3.3878 0.51553-4.8313 1.473-0.72175 0.48607-1.3551 1.0605-1.9148 1.7381-1.473 1.7675-2.2242 4.0064-2.1063 6.3042 0.16202 3.1521 0.2504 5.9065 0.2504 8.2191l-0.14729 34.217-25.217-28.914-25.968 28.899 0.20621-35.277c0.0295-0.63337 0.0442-2.0327 0.0736-3.5351 0.0147-1.7381 0.0442-3.5351 0.0736-4.3452 0.0442-1.0016-0.10311-2.0032-0.41243-2.9754-1.1194-3.4762-4.2716-5.8034-7.8361-5.8034h-0.29459c-1.635 0-3.2258 0.48608-4.6104 1.3846-0.72175 0.48608-1.3698 1.0605-1.9148 1.7381-1.3993 1.6939-2.1063 3.8444-2.0032 6.0538 0.16203 3.3141 0.2946 10.001 0.38297 15.009l-0.26513 51.303c0 2.3862-0.20621 16.585-0.26513 20.886l42.701-45.676 43.305 45.662c-0.0147-0.78067-0.0442-1.8412-0.0884-3.049-0.14729-4.846-0.38297-13.257-0.38297-14.995l-0.26501-57.755c0-2.0327 0.1473-6.3779 0.38297-11.077 0.0442-1.1194-0.10311-2.2389-0.45661-3.3289-1.2226-3.6824-4.5956-6.1569-8.3958-6.1569"/><path d="m470.54 30.073c-1.9001 0-3.7413 0.57445-5.3174 1.6497-0.70702 0.48608-1.3551 1.0753-1.9296 1.7528-1.5761 1.8559-2.4009 4.2274-2.3273 6.6725 0.0589 1.9001 0.0884 3.8591 0.0884 5.6414l0.3977 59.758c0 1.1342-0.0884 8.4548-0.20622 11.253-0.0884 1.9885 0.3977 3.9328 1.3993 5.6267 1.8117 3.0785 4.9786 4.9049 8.4842 4.9049 1.8412 0 3.594-0.57445 5.0964-1.635 0.69229-0.5008 1.3257-1.1047 1.8559-1.797 1.3404-1.7234 2.0327-3.8886 1.9296-6.0833-0.0589-1.0458-0.10311-3.1374-0.16202-5.5678-0.0884-3.0196-0.17676-6.4368-0.26513-8.5431v-0.70702l-0.53027-56.944c0.10311-2.6219 0.19149-4.6545 0.29459-6.4515 0.0737-1.1489-0.0884-2.2831-0.44188-3.4025-1.2226-3.6677-4.5809-6.1275-8.3664-6.1275"/></g><g fill="#e7324b"><path d="m-64.684 35.651c-1.9001 0-3.7266 0.55972-5.3026 1.635-0.72175 0.48608-1.3846 1.0753-1.9443 1.7381-1.6202 1.9001-2.4304 4.3452-2.2978 6.8492 0.44189 8.3664 0.85431 18.942 0.85431 22.183v39.077h-16.703c-1.5466 0-2.8428-0.0295-4.301-0.0884h-0.35351c-1.6202 0-3.1963 0.47135-4.5662 1.3551-0.73648 0.47135-1.3993 1.0753-1.9738 1.7676-1.2815 1.5613-1.9885 3.5498-1.9738 5.5825 0.0147 1.5761 0.45662 3.1079 1.2815 4.463 1.5613 2.5482 4.2568 4.0801 7.2027 4.0801h61.584c1.5466 0 3.049-0.47134 4.3158-1.3404 0.67756-0.47134 1.2815-1.0458 1.797-1.7381 1.0458-1.3698 1.5908-3.0196 1.5908-4.7429v-2.1211c0-0.73647-0.10311-1.473-0.32405-2.1947-0.94269-3.1374-3.8591-5.3174-7.0702-5.3174-0.1473 0-0.29459 0-0.44189 0.0147-0.76594 0.0442-1.635 0.0884-2.5777 0.1473h-19.649v-38.267c-0.08838-4.7429 0.19148-13.934 0.69229-22.831 0.07365-1.2667-0.08838-2.504-0.5008-3.6971-1.3109-3.9181-4.9344-6.5546-9.0145-6.5546z"/><path d="m126.63 107.75c-10.104 0-19.266-5.612-23.906-14.656-2.0769-4.0506-3.1816-8.6757-3.1816-13.389 0-7.9245 2.8575-15.201 8.0423-20.489 0.67756-0.69229 1.3993-1.3404 2.1358-1.959 4.6987-3.8297 10.443-5.8624 16.63-5.8624 10.944 0 20.724 6.6283 24.937 16.88 1.4288 3.4762 2.1505 7.1733 2.1505 11.018 0 8.2338-2.3715 14.553-7.4679 19.885-0.33878 0.35351-0.61864 0.6481-0.8985 0.92796-0.33878 0.30932-0.70702 0.61864-1.1194 0.97215-4.9933 4.1832-11.474 6.6725-17.322 6.6725m-0.67756-75.725c-10.325 0-20.504 3.8886-28.678 10.944-0.72175 0.61864-1.4435 1.2815-2.1652 1.9885-9.3091 9.0881-14.656 21.711-14.656 34.614 0 7.2911 1.635 14.332 4.8607 20.945 2.1947 4.4778 5.0522 8.6315 8.5137 12.358 8.2927 8.9703 20.356 14.111 33.083 14.111 10.811 0 21.358-4.0359 29.68-11.386 0.67755-0.58918 1.3698-1.2373 2.0327-1.9001 1.1931-1.1784 2.3273-2.4156 3.3878-3.7118 6.9965-8.5873 10.384-18.589 10.384-30.549 0-6.3042-1.2962-12.476-3.8591-18.382-7.5415-17.366-24.657-29.032-42.583-29.032"/><path d="m26.302 107.75c-10.104 0-19.266-5.612-23.906-14.656-2.0769-4.0506-3.1816-8.6757-3.1816-13.389 0-7.9245 2.8575-15.201 8.0423-20.489 0.67756-0.69229 1.3993-1.3404 2.1358-1.959 4.6987-3.8297 10.443-5.8624 16.63-5.8624 10.944 0 20.724 6.6283 24.937 16.88 1.4288 3.4762 2.1505 7.1733 2.1505 11.018 0 8.2338-2.3715 14.553-7.4679 19.885-0.33878 0.36824-0.61864 0.6481-0.8985 0.92796-0.33878 0.30932-0.70702 0.61864-1.1194 0.97215-4.9933 4.1832-11.474 6.6725-17.322 6.6725m-0.67756-75.725c-10.325 0-20.504 3.8886-28.678 10.944-0.72175 0.61864-1.4435 1.2815-2.1652 1.9885-9.3091 9.0881-14.656 21.711-14.656 34.614 0 7.2911 1.635 14.332 4.8607 20.945 2.1947 4.4778 5.0522 8.6315 8.5137 12.358 8.2927 8.9703 20.356 14.111 33.083 14.111 10.811 0 21.358-4.0359 29.68-11.386 0.67756-0.58918 1.3551-1.2373 2.0327-1.9001 1.1931-1.1784 2.3273-2.4156 3.3878-3.7118 6.9965-8.5873 10.384-18.589 10.384-30.549 0-6.3042-1.2962-12.476-3.8591-18.382-7.5415-17.366-24.657-29.032-42.583-29.032"/><path d="m190.04 34.916c-1.8117 0-3.5351 0.5008-5.008 1.4582-0.73648 0.47134-1.3846 1.0605-1.9443 1.7381-0.82486 1.0016-1.3551 2.1211-1.6055 3.3436v5.3174l-0.44189 65.915v0.67756l-0.29459 8.4989-0.13256 7.3058 55.795-49.933-0.1473 31.978v0.53026c-0.0736 1.09-0.13256 3.0048-0.17675 4.6987-0.0442 1.3846-0.0884 2.6955-0.13257 3.4025-0.0884 1.797 0.36824 3.5646 1.3109 5.1259 1.8117 2.9901 5.2437 4.8608 8.9556 4.9049h0.13257c2.1063 0 4.0948-0.63337 5.7445-1.8265 0.69228-0.48608 1.2962-1.0753 1.8117-1.7234 1.1931-1.5171 1.8117-3.2994 1.7675-5.1553-0.0147-1.0458-0.0295-2.7544-0.0589-4.684-0.0294-2.4451-0.0589-5.2437-0.1031-7.4237v-53.998l0.0884-5.7003c0.11784-6.7461 0.17676-10.119 0.22095-12.049 0.0147-0.66283 0.0295-1.1636 0.0589-1.6055l-56.296 52.157-0.16203-27.809c0-1.5024 0.2946-10.163 0.58919-15.51 0.0589-1.0311-0.0736-2.0621-0.3977-3.0637-1.252-3.8739-5.1848-6.5694-9.5742-6.5694"/><path d="m299.23 62.593h20.121l-10.134 25.129zm39.048-31.153c-1.7675 0-3.4909 0.51553-4.9786 1.5024-0.72175 0.48608-1.3846 1.0753-1.9443 1.7528-0.60391 0.72175-1.09 1.5319-1.4582 2.4009l-4.5072 10.9h-31.536l-3.977-9.9572c-2.504-4.8755-4.2126-6.5988-8.8083-6.5988-1.7675 0-3.5646 0.53026-5.0522 1.473-0.75121 0.48608-1.3993 1.0753-1.9296 1.7381-1.2667 1.5613-2.4746 4.3452-0.98688 8.6315l36.397 84.562 1.0458-2.3862 35.881-81.263c0.91323-2.0769 1.0311-4.4041 0.32405-6.5399-1.2226-3.7266-4.6251-6.2159-8.4695-6.2159"/><path d="m439.38 31.437c-1.7234 0-3.4025 0.51553-4.8608 1.473-0.72174 0.48607-1.3698 1.0605-1.9296 1.7381-1.473 1.7675-2.2242 4.0064-2.1063 6.3042 0.16203 3.1521 0.2504 5.9065 0.2504 8.2191l-0.16202 34.217-25.364-28.914-26.115 28.899 0.22094-35.292c0.0147-0.61864 0.0442-2.0179 0.0589-3.5204 0.0295-1.7381 0.0589-3.5351 0.0884-4.3452 0.0442-1.0016-0.10311-2.0032-0.42716-2.9754-1.1194-3.4762-4.2863-5.8034-7.8803-5.8034h-0.29459c-1.635 0-3.2405 0.48608-4.6251 1.3846-0.73647 0.48608-1.3846 1.0605-1.9296 1.7381-1.414 1.6939-2.1211 3.8444-2.018 6.0538 0.16202 3.3141 0.29459 10.001 0.38297 15.009l-0.26514 51.303c0 2.3862-0.20621 16.585-0.26513 20.886l42.937-45.691 43.57 45.676c-0.0295-0.78067-0.0589-1.8412-0.0884-3.049-0.14729-4.846-0.3977-13.257-0.3977-14.995l-0.26513-57.755c0-2.0327 0.1473-6.3779 0.38297-11.077 0.0589-1.1194-0.10311-2.2389-0.45662-3.3289-1.2226-3.6824-4.6103-6.1569-8.44-6.1569"/><path d="m477.42 32.017c-1.9148 0-3.756 0.57445-5.3468 1.6497-0.70702 0.48608-1.3551 1.0753-1.9443 1.7528-1.5761 1.8559-2.4009 4.2274-2.342 6.6725 0.0589 1.9001 0.0884 3.8591 0.0884 5.6414l0.3977 59.758c0 1.1342-0.0736 8.4548-0.19149 11.253-0.0884 1.9885 0.3977 3.9328 1.3993 5.6267 1.8265 3.0785 5.008 4.9049 8.5284 4.9049 1.8559 0 3.6235-0.57445 5.1259-1.635 0.70702-0.5008 1.3404-1.1047 1.8706-1.797 1.3551-1.7234 2.0474-3.8886 1.9296-6.0833-0.0442-1.0458-0.10311-3.1374-0.16202-5.5678-0.0737-3.0196-0.16203-6.4368-0.26514-8.5431v-0.70702l-0.53026-56.944c0.10311-2.6219 0.20621-4.6545 0.30932-6.4515 0.0589-1.1489-0.0884-2.2831-0.45661-3.4025-1.2226-3.6677-4.5956-6.1275-8.4106-6.1275"/></g><g fill="#18142d"><path d="m-69.332 38.196c-1.9296 0-3.7855 0.55972-5.3763 1.635-0.73648 0.48608-1.3993 1.0753-1.9738 1.7381-1.6497 1.9001-2.4746 4.3452-2.342 6.8492 0.45662 8.3664 0.86904 18.942 0.86904 22.183v39.077h-16.954c-1.5613 0-2.8723-0.0294-4.3599-0.0884h-0.35351c-1.6497 0-3.2552 0.47134-4.6398 1.3551-0.7512 0.47135-1.414 1.0753-1.9885 1.7676-1.3109 1.5613-2.0179 3.5498-2.0032 5.5825 0.0147 1.5761 0.45661 3.1079 1.2962 4.463 1.5908 2.5482 4.3158 4.0801 7.3058 4.0801h62.497c1.5613 0 3.0785-0.47134 4.3747-1.3404 0.67756-0.47135 1.2962-1.0458 1.8265-1.7381 1.0458-1.3698 1.6055-3.0196 1.6055-4.7429v-2.121c0-0.73648-0.11784-1.473-0.33878-2.1947-0.94269-3.1374-3.9033-5.3174-7.1586-5.3174h-0.01473c-0.13256 0-0.27986 0-0.42716 0.0147-0.7954 0.0442-1.6644 0.0884-2.6219 0.1473h-19.944v-38.267c-0.08838-4.7429 0.19148-13.934 0.70702-22.831 0.07365-1.2667-0.10311-2.504-0.5008-3.6971-1.3404-3.9181-5.0228-6.5546-9.147-6.5546z"/><path d="m123.62 110.29c-10.252 0-19.546-5.612-24.26-14.656-2.1063-4.0506-3.2258-8.6757-3.2258-13.374 0-7.9392 2.9017-15.216 8.1602-20.504 0.69229-0.69229 1.414-1.3404 2.1652-1.9443 4.7724-3.8444 10.605-5.8771 16.88-5.8771 11.091 0 21.019 6.6283 25.305 16.88 1.4435 3.4762 2.18 7.188 2.18 11.018 0 8.2338-2.4009 14.553-7.571 19.885l-0.92796 0.92796c-0.33878 0.30932-0.70702 0.61864-1.1342 0.97215-5.067 4.1832-11.636 6.6725-17.572 6.6725m-0.69229-75.725c-10.473 0-20.798 3.8886-29.106 10.944-0.72175 0.61864-1.4582 1.2815-2.18 1.9885-9.4564 9.0881-14.877 21.711-14.877 34.614 0 7.2911 1.6644 14.332 4.9344 20.945 2.2094 4.4778 5.1259 8.6315 8.6315 12.358 8.4253 8.9703 20.651 14.111 33.569 14.111 10.974 0 21.667-4.0359 30.122-11.386 0.69229-0.58918 1.3846-1.2373 2.0621-1.9001 1.2078-1.1784 2.3567-2.4156 3.432-3.7118 7.0996-8.5873 10.546-18.589 10.546-30.549 0-6.2895-1.3109-12.476-3.9181-18.382-7.6594-17.366-25.025-29.032-43.216-29.032"/><path d="m21.817 110.29c-10.252 0-19.546-5.612-24.26-14.656-2.1063-4.0506-3.2258-8.6757-3.2258-13.374 0-7.9392 2.9017-15.216 8.1602-20.504 0.69229-0.69229 1.414-1.3404 2.1652-1.9443 4.7724-3.8444 10.605-5.8771 16.88-5.8771 11.091 0 21.019 6.6283 25.305 16.88 1.4435 3.4762 2.18 7.188 2.18 11.018 0 8.2338-2.4009 14.553-7.571 19.885-0.35351 0.36824-0.6481 0.6481-0.92796 0.92796-0.33878 0.30932-0.70702 0.61864-1.1342 0.97215-5.067 4.1832-11.636 6.6725-17.572 6.6725m-0.69229-75.725c-10.473 0-20.798 3.8886-29.106 10.944-0.72175 0.61864-1.4582 1.2815-2.18 1.9885-9.4564 9.0881-14.877 21.711-14.877 34.614 0 7.2911 1.6644 14.332 4.9344 20.945 2.2094 4.4778 5.1259 8.6315 8.6315 12.358 8.4253 8.9703 20.651 14.111 33.569 14.111 10.974 0 21.667-4.0359 30.122-11.386 0.67756-0.58918 1.3846-1.2373 2.0621-1.9001 1.2078-1.1784 2.3567-2.4156 3.432-3.7118 7.0996-8.5873 10.546-18.589 10.546-30.549 0-6.2895-1.3109-12.476-3.9181-18.382-7.6594-17.366-25.025-29.032-43.216-29.032"/><path d="m193.28 34.561c-1.8265 0-3.594 0.5008-5.0817 1.4582-0.75121 0.47134-1.414 1.0605-1.9738 1.7381-0.83958 1.0016-1.3846 2.1211-1.635 3.3436v5.3174l-0.44188 65.915v0.67756l-0.29459 8.4989-0.13257 7.3058 56.606-49.933-0.1473 31.978v0.53027c-0.0736 1.09-0.13256 3.0048-0.17675 4.6987-0.0442 1.3846-0.0884 2.6955-0.13257 3.4025-0.0884 1.797 0.36824 3.5646 1.3257 5.1259 1.8412 2.9901 5.3321 4.8608 9.0881 4.9049h0.13257c2.1358 0 4.1537-0.63337 5.8329-1.8265 0.69228-0.48607 1.3109-1.0752 1.8412-1.7234 1.2078-1.5171 1.8265-3.2994 1.797-5.1553-0.0147-1.0458-0.0442-2.7544-0.0589-4.684-0.0295-2.4451-0.0736-5.2437-0.11783-7.4237v-53.998l0.1031-5.7003c0.11784-6.7461 0.16203-10.119 0.22095-12.049 0.0147-0.66283 0.0295-1.1636 0.0442-1.6055l-57.121 52.157-0.1473-27.809c0-1.5024 0.29459-10.163 0.58918-15.51 0.0589-1.0311-0.0736-2.0621-0.41243-3.0637-1.2667-3.8739-5.2584-6.5694-9.7068-6.5694"/><path d="m304.05 65.718h20.43l-10.296 25.129zm39.622-31.153c-1.797 0-3.5498 0.51553-5.0522 1.5024-0.73648 0.48608-1.3993 1.0753-1.9738 1.7528-0.61864 0.72175-1.1047 1.5319-1.473 2.4009l-4.5809 10.9h-32.007l-4.0212-9.9572c-2.5482-4.8755-4.2863-6.5988-8.9408-6.5988-1.797 0-3.6235 0.51553-5.1259 1.473-0.76593 0.48608-1.414 1.0753-1.959 1.7381-1.2962 1.5613-2.504 4.3452-1.0016 8.6315l36.927 84.562 1.0753-2.3862 36.397-81.263c0.92796-2.0769 1.0458-4.4041 0.33878-6.5399-1.2373-3.7266-4.6987-6.2159-8.602-6.2159"/><path d="m443.91 34.561c-1.7528 0-3.4614 0.51553-4.9344 1.473-0.72175 0.48607-1.3846 1.0605-1.959 1.7381-1.5024 1.7675-2.2536 4.0064-2.1358 6.3042 0.16203 3.1521 0.25041 5.9065 0.25041 8.2191l-0.16203 34.217-25.732-28.914-26.498 28.899 0.22094-35.292c0.0147-0.61864 0.0442-2.0179 0.0589-3.5204 0.0295-1.7381 0.0589-3.5351 0.0884-4.3452 0.0442-1.0016-0.10311-2.0032-0.42716-2.9754-1.1342-3.4762-4.3452-5.8034-7.9981-5.8034h-0.29459c-1.6644 0-3.2847 0.48608-4.6987 1.3846-0.73648 0.48608-1.3993 1.0605-1.959 1.7381-1.4288 1.6939-2.1652 3.8444-2.0474 6.0538 0.16203 3.3141 0.30932 9.9866 0.38297 15.009l-0.26513 51.303c0 2.3862-0.20621 16.585-0.26513 20.886l43.57-45.691 44.203 45.676c-0.0147-0.79539-0.0589-1.8412-0.0884-3.049-0.1473-4.846-0.3977-13.257-0.3977-14.995l-0.26513-57.755c0-2.0327 0.14729-6.3779 0.38297-11.077 0.0589-1.1194-0.10311-2.2389-0.47135-3.3289-1.2373-3.6824-4.684-6.1569-8.5579-6.1569"/><path d="m481.92 34.561c-1.9296 0-3.815 0.57445-5.4205 1.6497-0.72175 0.48608-1.3846 1.0753-1.9738 1.7528-1.6055 1.8559-2.4451 4.2274-2.3714 6.6725 0.0589 1.9001 0.0884 3.8591 0.0884 5.6414l0.3977 59.758c0 1.1342-0.0884 8.4548-0.20621 11.253-0.0884 1.9885 0.41243 3.9328 1.4288 5.6267 1.8559 3.0637 5.0817 4.9049 8.661 4.9049 1.8706 0 3.6677-0.57445 5.1995-1.635 0.70701-0.5008 1.3551-1.1047 1.9001-1.797 1.3698-1.7234 2.0621-3.8886 1.959-6.0833-0.0442-1.0458-0.10311-3.1374-0.16203-5.5678-0.0884-3.0196-0.17675-6.4368-0.27986-8.5431v-0.70702l-0.53026-56.944c0.1031-2.6219 0.19148-4.6545 0.30932-6.4515 0.0589-1.1489-0.0884-2.2831-0.47135-3.4025-1.2373-3.6677-4.6693-6.1275-8.5284-6.1275"/></g></g></svg>
