<svg width="144.64mm" height="40.058mm" version="1.1" viewBox="0 0 512.52 141.94" xmlns="http://www.w3.org/2000/svg">
 <defs>
  <radialGradient id="a" cx="0" cy="0" r="1" gradientTransform="matrix(484 -377.5 371.43 476.21 1348.2 112.29)" gradientUnits="userSpaceOnUse">
   <stop stop-color="#df1d25" offset="0"/>
   <stop stop-color="#92191e" offset="1"/>
  </radialGradient>
 </defs>
 <g transform="translate(-861.34 -42.525)" fill="url(#a)" stroke-width="1.0666">
  <path transform="matrix(.93752 0 0 .93752 0 -.0031922)" d="m1022.9 47.459v25.6h9.834c0.2347-10.058 3.6258-16.309 15.295-16.309v47.178c0 2.6453-1.4816 4.2344-4.1269 4.2344h-6.5391v9.2812h40.949v-9.2812h-6.3144c-2.6453 0-4.1289-1.5891-4.1289-4.2344v-47.178c11.669 0 15.04 6.2501 15.285 16.309h9.8243v-25.6z"/>
  <path transform="matrix(.93752 0 0 .93752 0 -.0031922)" d="m1120.8 45.359c-23.2 0-38.314 14.25-38.314 37.15 0 22.912 15.115 37.055 38.314 37.055 23.232 0 38.324-14.143 38.324-37.055 0-22.901-15.093-37.15-38.324-37.15zm0 9.8223c10.57 0 15.412 8.8432 15.412 27.328 0 18.474-4.8416 27.232-15.412 27.232-10.538 0-15.402-8.7581-15.402-27.232 0-18.485 4.8639-27.328 15.402-27.328z"/>
  <path transform="matrix(.93752 0 0 .93752 0 -.0031922)" d="m1151.4 47.459v9.291h6.5391c2.6453 0 4.1269 1.5793 4.1269 4.2246v34.932c0 17.749 11.394 23.658 29.975 23.658 19.648 0 27.988-9.0874 27.988-24.703v-33.887c0-2.6453 1.4602-4.2246 4.1055-4.2246h6.2305v-9.291h-32.203v9.291h6.2305c2.6453 0 4.127 1.5793 4.127 4.2246v30.293c0 13.088-2.123 18.475-14.358 18.475-8.5651 0-12.256-4.7481-12.256-11.5v-37.268c0-2.6453 1.4719-4.2246 4.1172-4.2246h6.539v-9.291z"/>
  <path transform="matrix(.93752 0 0 .93752 0 -.0031922)" d="m1225.6 47.459v25.6h9.8437c0.2454-10.058 3.6161-16.309 15.285-16.309v47.178c0 2.6453-1.4719 4.2344-4.1172 4.2344h-6.5391v9.2812h40.949v-9.2812h-6.3243c-2.6452 0-4.1289-1.5891-4.1289-4.2344v-47.178c11.68 0 15.039 6.2501 15.295 16.309h9.8242v-25.6z"/>
  <path transform="matrix(.93752 0 0 .93752 0 -.0031922)" d="m1291.1 47.459v9.291h6.5605c2.6453 0 4.1172 1.5793 4.1172 4.2246v42.975c0 2.624-1.4719 4.2129-4.1172 4.2129h-6.4433v9.3008h70.09v-28.617h-9.8027c0 16.992-5.9195 19.316-17.002 19.316h-12.875v-21.961h6.336c3.7972 0 5.2695 4.8628 5.2695 8.7773v2.5273h8.7578v-31.881h-8.7578v2.3145c0 6.5599-2.2173 8.9707-8.3398 8.9707h-3.2657v-20.16h10.443c13.13 0 19.06 2.2395 19.391 16.309h9.8457v-25.6z"/>
 </g>
 <g transform="translate(-861.34 -42.525)" fill="#fff">
  <path d="m1182.2 116.47c-21.23 0-35.03 13.04-35.03 33.97 0 20.94 13.8 33.87 35.03 33.87s35.01-12.93 35.01-33.87c0-20.93-13.78-33.97-35.01-33.97zm0 8.99c9.65 0 14.08 8.09 14.08 24.98s-4.43 24.9-14.08 24.9-14.1-8.01-14.1-24.9 4.45-24.98 14.1-24.98z"/>
  <path d="m861.45 183v-8.65h6c2.47 0 3.83-1.48 3.83-3.94v-40.01c0-2.46-1.36-3.94-3.83-3.94h-6.11v-8.64h38.36v8.64h-6.09c-2.47 0-3.83 1.48-3.83 3.94v43.95h10.7c11.8 0 13.68-7.57 13.68-18.2h9.14v26.85"/>
  <path d="m910.02 144.24c5.45-1.51 9.9-3.68 10.67-9.9-1.28 0.89-2.81 0.89-4.2 0.89-4.83 0-7.88-3.55-7.88-8.24 0-6.98 3.82-11.18 10.93-11.18 7.24 0 11.41 6.22 11.41 12.95 0 12.82-9.13 19.8-20.93 21.7"/>
  <path d="m1075.3 116.49c-13.35 0-27.75 4.35-27.75 20.29 0 27.76 41.85 16.54 41.85 30.37 0 5.5-6.09 8.31-11.11 8.31-11.41 0-19.82-7.05-21.06-17.21h-8.99v16.1h-4.69c-2.46 0-3.85-1.48-3.85-3.94v-40.01c0-3.54 1.39-3.94 3.85-3.94h6.09v-8.64h-70.23v8.64h4.12c2.47 0 3.83 0.99 3.83 2.95v15.43h-21.63v-14.15c0-3.34 1.39-4.23 3.85-4.23h4.12v-8.64h-36.38v8.64h6.11c2.44 0 3.83 0.99 3.83 2.66v41.29c0 2.46-1.39 3.94-3.83 3.94h-6v8.65h36.18v-8.65h-4.03c-2.46 0-3.85-1.09-3.85-3.44v-17.4h21.63v17.6c0 2.64-1.36 3.24-3.83 3.24h-4.03v8.65h76.85l2.52-4.54c6.09 4.45 13.63 6 21.07 6 13.35 0 26.68-5.22 26.68-20.7 0-27.54-41.86-17.79-41.86-29.97 0-6.47 5.22-8.31 10.82-8.31 7.35 0 15.04 4.26 17.96 11.96h9.52c1.08-6.86 4.74-10.98 13.88-10.98v43.95c0 2.46-1.39 3.94-3.85 3.94h-6.09v8.65h38.15v-8.65h-5.91c-2.44 0-3.83-1.48-3.83-3.94v-43.95c9.14 0 12.81 4.12 13.88 10.98h9.52v-19.62h-65.27v4.19c-5.49-3.43-11.73-5.52-18.24-5.52zm-65.61 9.97h7.71c2.46 0 3.83 0.89 3.83 2.55v41.4c0 2.46-1.37 3.94-3.83 3.94h-7.71c-2.45 0-3.83-1.09-3.83-3.65v-40.3c0-2.46 1.38-3.94 3.83-3.94z"/>
  <path d="m1212.4 117.82v8.64h6.09c2.46 0 3.83 0.89 3.83 2.57v41.38c0 2.46-1.37 3.94-3.83 3.94h-6v8.65h72v-8.65h-6.09c-2.46 0-3.83-1.48-3.83-3.94v-16.9h8.06c7.97 0 8.95 1.38 8.95 7.27v8.06c0 7.32 2.54 11.84 6.79 14.16h75.5v-21.41h-9.39c-1.19 11.1-6.53 12.76-15.59 12.76h-11.99v-20.44h5.9c3.53 0 4.92 4.52 4.92 8.15v2.37h8.15v-29.71h-8.15v2.17c0 6.09-2.08 8.35-7.77 8.35h-3.05v-18.78h9.73c10.79 0 16.37 1.61 17.76 11h9.48v-19.64h-67.22v3.42c-3.7-2.26-8.83-3.42-15.18-3.42zm32.24 8.64h7.61c2.46 0 3.83 1.48 3.83 3.94v40.01c0 2.46-1.37 3.94-3.83 3.94h-7.61c-2.46 0-3.83-1.48-3.83-3.94v-40.01c0-3.54 1.37-3.94 3.83-3.94zm29.93 0h7.07c9.05 0 13.28 1.68 13.28 8.95 0 7.87-3.65 9.45-10.92 9.45h-9.43zm37.15 0h2.86c2.45 0 3.83 1.48 3.83 3.94v39.78c-0.07 0.84-0.22 1.62-0.45 2.31-0.59 1.19-1.74 1.86-3.38 1.86h-3.26c-0.95-0.58-1.26-1.62-1.26-2.84v-10.33c0-8.06-4.12-10.43-11.51-12.49v-0.2c8.55-1.18 14.86-5.4 14.86-14.75 0-2.79-0.6-5.2-1.69-7.28z"/>
 </g>
</svg>
