<svg width="144.64mm" height="40.058mm" version="1.1" viewBox="0 0 512.52 141.94" xmlns="http://www.w3.org/2000/svg">
 <defs>
  <radialGradient id="a" cx="0" cy="0" r="1" gradientTransform="matrix(484 -377.5 371.43 476.21 1348.2 112.29)" gradientUnits="userSpaceOnUse">
   <stop stop-color="#df1d25" offset="0"/>
   <stop stop-color="#92191e" offset="1"/>
  </radialGradient>
 </defs>
 <g transform="translate(-232.3 -467.12)" fill="#100f0d">
  <path d="m421.71 467.12c-21.75 0-35.92 13.36-35.92 34.83 0 21.48 14.17 34.74 35.92 34.74 21.78 0 35.93-13.26 35.93-34.74 0-21.47-14.15-34.83-35.93-34.83zm0 9.21c9.91 0 14.45 8.29 14.45 25.62 0 17.32-4.54 25.53-14.45 25.53-9.88 0-14.44-8.21-14.44-25.53 0-17.33 4.56-25.62 14.44-25.62z"/>
  <path d="m450.38 469.09h38.59v8.71h-6.13c-2.48 0-3.86 1.48-3.86 3.96v34.94c0 6.33 3.46 10.78 11.49 10.78 11.47 0 13.46-5.05 13.46-17.32v-28.4c0-2.48-1.39-3.96-3.87-3.96h-5.84v-8.71h30.19v8.71h-5.84c-2.48 0-3.85 1.48-3.85 3.96v31.77c0 14.64-7.82 23.16-26.24 23.16-17.42 0-28.1-5.54-28.1-22.18v-32.75c0-2.48-1.39-3.96-3.87-3.96h-6.13"/>
  <path d="m329.95 469.09v24h9.22c0.22-9.43 3.4-15.29 14.34-15.29v44.23c0 2.48-1.39 3.97-3.87 3.97h-6.13v8.7h38.39v-8.7h-5.92c-2.48 0-3.87-1.49-3.87-3.97v-44.23c10.94 0 14.1 5.86 14.33 15.29h9.21v-24"/>
  <path d="m622.05 526h-12.07v-20.59h5.94c3.56 0 4.94 4.56 4.94 8.23v2.37h8.21v-29.89h-8.21v2.17c0 6.15-2.08 8.41-7.82 8.41h-3.06v-18.9h9.79c12.31 0 17.87 2.1 18.18 15.29h9.23v-24h-65.82v8.71h6.15c2.48 0 3.86 1.48 3.86 3.96v40.29c0 2.46-1.38 3.95-3.86 3.95h-6.04v8.72h65.71v-26.83h-9.19c0 15.93-5.55 18.11-15.94 18.11"/>
  <path d="m519.94 469.09v24h9.23c0.23-9.43 3.39-15.29 14.33-15.29v44.23c0 2.48-1.38 3.97-3.86 3.97h-6.13v8.7h38.39v-8.7h-5.93c-2.48 0-3.87-1.49-3.87-3.97v-44.23c10.95 0 14.1 5.86 14.34 15.29h9.21v-24"/>
 </g>
 <g transform="translate(-861.34 -42.524)" fill="url(#a)" stroke-width="1.0666">
  <path transform="matrix(.93752 0 0 .93752 0 -.0031922)" d="m918.74 125.68v9.2148h6.5176c2.6346 0 4.084 1.5792 4.084 4.2031v42.676c0 2.624-1.4494 4.2031-4.084 4.2031h-6.4004v9.2266h65.973v-28.641h-9.75c0 11.338-2.0054 19.414-14.592 19.414h-11.412v-46.879c0-2.624 1.4494-4.2031 4.084-4.2031h6.4961v-9.2148z"/>
  <path transform="matrix(.93752 0 0 .93752 0 -.0031922)" d="m1146.9 124.26c-14.24 0-29.6 4.6402-29.6 21.643 0 29.61 44.641 17.643 44.641 32.395 0 5.8666-6.497 8.8633-11.852 8.8633-12.17 0-21.14-7.5203-22.463-18.357h-9.5899v17.174h-5.0019c-2.624 0-4.1075-1.5792-4.1075-4.2031v-42.676c0-3.7759 1.4835-4.2031 4.1075-4.2031h6.4961v-9.2148h-74.91v9.2148h4.3945c2.6346 0 4.084 1.0559 4.084 3.1465v16.459h-23.07v-15.094c0-3.5626 1.4815-4.5117 4.1055-4.5117h4.3945v-9.2148h-38.805v9.2148h6.5176c2.6026 0 4.0859 1.0566 4.0859 2.8379v44.041c0 2.624-1.4833 4.2031-4.0859 4.2031h-6.4004v9.2266h38.592v-9.2266h-4.2988c-2.624 0-4.1055-1.1633-4.1055-3.6699v-18.559h23.07v18.771c0 2.8159-1.4494 3.457-4.084 3.457h-4.2988v9.2266h81.971l2.6895-4.8438c6.4958 4.7466 14.537 6.4004 22.473 6.4004 14.24 0 28.459-5.5684 28.459-22.08 0-29.375-44.65-18.975-44.65-31.967 0-6.9012 5.5678-8.8633 11.541-8.8633 7.8399 0 16.044 4.5446 19.158 12.758h10.154c1.152-7.3172 5.0556-11.713 14.805-11.713v46.879c0 2.624-1.4835 4.2031-4.1074 4.2031h-6.4961v9.2266h40.693v-9.2266h-6.3047c-2.6026 0-4.084-1.5792-4.084-4.2031v-46.879c9.7491 0 13.663 4.3957 14.805 11.713h10.154v-20.928h-69.619v4.4688c-5.8559-3.6586-12.513-5.8887-19.457-5.8887zm-69.982 10.635h8.2246c2.6239 0 4.084 0.95007 4.084 2.7207v44.158c0 2.624-1.4601 4.2031-4.084 4.2031h-8.2246c-2.6133 0-4.084-1.162-4.084-3.8926v-42.986c0-2.624 1.4707-4.2031 4.084-4.2031z"/>
  <path transform="matrix(.93752 0 0 .93752 0 -.0031922)" d="m1261 124.24c-22.645 0-37.363 13.909-37.363 36.234 0 22.336 14.718 36.127 37.363 36.127s37.344-13.791 37.344-36.127c0-22.325-14.699-36.234-37.344-36.234zm0 9.5898c10.293 0 15.02 8.6289 15.02 26.645 0 18.016-4.7264 26.561-15.02 26.561-10.293 0-15.039-8.5449-15.039-26.561 0-18.016 4.7459-26.645 15.039-26.645z"/>
  <path transform="matrix(.93752 0 0 .93752 0 -.0031922)" d="m1293.2 125.68v9.2148h6.4961c2.624 0 4.086 0.95022 4.086 2.7422v44.137c0 2.624-1.462 4.2031-4.086 4.2031h-6.4004v9.2266h76.799v-9.2266h-6.4961c-2.624 0-4.084-1.5792-4.084-4.2031v-18.025h8.5957c8.5012 0 9.5469 1.4714 9.5469 7.7539v8.5977c0 7.8078 2.7089 12.629 7.2422 15.104h80.533v-22.838h-10.016c-1.2693 11.84-6.967 13.611-16.631 13.611h-12.789v-21.803h6.2949c3.7653 0 5.2461 4.8214 5.2461 8.6934v2.5274h8.6934v-31.689h-8.6934v2.3145c0 6.4959-2.2179 8.9062-8.2871 8.9062h-3.2539v-20.031h10.379c11.509 0 17.461 1.7166 18.943 11.732h10.113v-20.947h-71.701v3.6465c-3.9466-2.4106-9.4182-3.6465-16.191-3.6465zm34.389 9.2148h8.1172c2.624 0 4.0859 1.5792 4.0859 4.2031v42.676c0 2.624-1.4619 4.2031-4.0859 4.2031h-8.1172c-2.6239 0-4.084-1.5792-4.084-4.2031v-42.676c0-3.7759 1.4601-4.2031 4.084-4.2031zm31.926 0h7.541c9.6532 0 14.164 1.7924 14.164 9.5469 0 8.3945-3.892 10.08-11.646 10.08h-10.059zm39.625 0h3.0508c2.6133 0 4.0859 1.5792 4.0859 4.2031v42.432c-0.075 0.89599-0.2351 1.7269-0.4805 2.4629-0.6293 1.2693-1.8561 1.9844-3.6054 1.9844h-3.4766c-1.0133-0.61866-1.3437-1.728-1.3437-3.0293v-11.02c0-8.5972-4.3949-11.125-12.277-13.322v-0.2129c9.1198-1.2586 15.85-5.7593 15.85-15.732 0-2.9759-0.6401-5.547-1.8027-7.7656z"/>
  <path transform="matrix(.93752 0 0 .93752 0 -.0031922)" d="m980.82 123.53c-7.5838 0-11.658 4.4806-11.658 11.926 0 5.0026 3.2544 8.7891 8.4062 8.7891 1.4826 0 3.1132 9e-5 4.4785-0.94922-0.82132 6.6345-5.5676 8.948-11.381 10.559v6.6348c12.586-2.0266 22.324-9.4721 22.324-23.146 0-7.1785-4.4474-13.812-12.17-13.812z"/>
 </g>
</svg>
