<svg width="295.52pt" height="156.45pt" version="1.1" viewBox="0 0 295.52 156.45" xmlns="http://www.w3.org/2000/svg">
 <path d="m222.15 5.4078c10.89-5.03 23.45-6.83 35.22-4.21 10.1 1.79 19.94 6.91 26 15.37 8.23 11.05 8.92 27.03 1.92 38.85-4.57 7.8-12.02 13.55-20.16 17.27l-0.84347 0.38679c2.0258 0.7257 3.9727 1.5698 5.8735 2.4832 10.59 4.96 20.1 13.56 23.7 24.95 1.9755 6.6537 2.026 13.853 0.99 19.96-2.3 13.42-12.16 24.69-24.37 30.26-13.06 6-28.23 7.34-42.14 3.76-11.45-2.63-22.46-9.05-28.82-19.14-7.2-11.07-7.62-25.87-1.9-37.65 5.12-10.56 15.01-18.11 25.72-22.44l1.0857-0.447c-1.0568-0.51587-2.1986-1.1749-3.4657-1.843-8.15-4.1-15.16-10.83-18.75-19.3-2.92-6.6-3.14-14.11-1.94-21.14 2.26-11.95 10.95-22.07 21.88-27.12m2.11 18.12c-6.92 8.21-7.43 21.26-0.81 29.8 5.77 7.57 15.2 10.81 23.92 13.6 6.92-2.43 13.73-6.22 18.14-12.24 6.97-9.08 6.74-22.88-0.57-31.68-4.71-5.71-12.35-8.3-19.59-8.11-7.81-0.31-15.99 2.55-21.09 8.63m14.58 58.89c-7.42 2.73-14.64 7.01-19.15 13.68-3.74 5.33-5.35 11.93-5.01 18.4-0.18 10.45 6.85 20.28 16.4 24.23 11.9 4.82 27.13 3.39 36.55-5.87 8.62-8.55 9.5-22.97 3.59-33.26-4.77-8.06-13.5-12.54-21.99-15.71l-7.2449-2.6491z" fill="#006b33"/>
 <g transform="translate(-3.9218 193.18)" fill-rule="evenodd">
  <path d="m3.9218-191.82h126.25v36.334h-126.25z" fill="#45a12b"/>
  <path d="m42.769-132.61h87.405v36.334h-87.405z" fill="#45a12b"/>
  <path d="m42.769-73.738h87.405v36.334h-87.405z" fill="#45a12b"/>
  <path d="m3.9218-132.61h38.847v95.209h-38.847z" fill="#006b33"/>
  <path d="m130.17-191.82h38.847v154.42h-38.847z" fill="#006b33"/>
 </g>
</svg>
