<svg width="800" height="284.06" version="1.1" viewBox="0 0 211.67 75.157" xmlns="http://www.w3.org/2000/svg">
 <g transform="matrix(.27087 0 0 .26866 -137.3 -8.0282e-6)" fill-rule="evenodd" stroke-width="9.3928" style="font-feature-settings:normal;font-variant-caps:normal;font-variant-ligatures:normal;font-variant-numeric:normal">
  <path d="m506.89 3.4392e-5h293.12v279.74h-293.12z" fill="#fff"/>
  <path d="m540.03 31.627h173.63v50.78h-173.63z" fill="#fbb403"/>
  <path d="m593.24 114.48h120.43v50.78h-120.43z" fill="#fbb403"/>
  <path d="m593.24 197.33h120.43v50.78h-120.43z" fill="#fbb403"/>
  <path d="m540.03 114.48h53.209v133.63h-53.209z" fill="#f9651f"/>
  <path d="m713.65 31.627h53.209v216.49h-53.209z" fill="#f9651f"/>
 </g>
 <path d="m95.061 23.684c0 13.05 10.451 23.32 24.516 23.32 2.3226 0 4.7743-0.48332 6.9677-1.4499l-17.42 29.603h11.613c7.6129-12.566 15.742-24.891 22.452-37.82 2.3226-4.4707 3.742-8.5791 3.742-13.653 0-14.137-11.097-23.683-25.871-23.683-14.774 1.63e-4 -26 9.6665-26 23.683zm25.936-14.863c9.0322 0 15.355 6.5246 15.355 14.862 0 8.3373-6.3227 14.983-15.355 14.983-9.1617 0-15.355-6.6458-15.355-14.983 0-8.3373 6.3227-14.862 15.355-14.862z" fill="#fff" stroke-width="1.7872" style="font-feature-settings:normal;font-variant-caps:normal;font-variant-ligatures:normal;font-variant-numeric:normal"/>
 <g transform="translate(4.8176e-8 -37.025)" fill="#fff" stroke-width=".5284">
  <path d="m181.64 65.186h-3.5836v-13.087h-13.447v13.087h-3.5836v-26.73h3.5836v10.484h13.447v-10.484h3.5836z" style="font-feature-settings:normal;font-variant-caps:normal;font-variant-ligatures:normal;font-variant-numeric:normal"/>
  <path d="m210.06 58.455c-1.0618 1.9747-2.4796 3.5066-4.2533 4.5956-1.2307 0.75396-2.6063 1.2985-4.1266 1.6336-1.5083 0.3351-3.4992 0.50265-5.9727 0.50265h-6.8051v-26.73h6.7331c2.6304 0 4.7178 0.19148 6.2623 0.57445 1.5566 0.371 2.8718 0.88561 3.9456 1.5438 1.8341 1.137 3.2639 2.6509 4.2895 4.5418s1.5384 4.1348 1.5382 6.6482-0.53714 4.7155-1.611 6.6901zm-3.2398-11.956c-0.73602-1.4361-1.834-2.5671-3.294-3.3928-1.0618-0.59841-2.19-1.0113-3.3845-1.2386-1.1945-0.23936-2.6244-0.35903-4.2895-0.35903h-3.3664v20.627h3.3664c1.7254 0 3.2277-0.12566 4.5067-0.37699 1.291-0.25132 2.4735-0.71807 3.5474-1.4002 1.3394-0.84973 2.3408-1.9687 3.0044-3.3569 0.67571-1.3883 1.0136-3.1236 1.0135-5.2121-3e-5 -2.0885-0.36805-3.8537-1.1041-5.2898z" style="font-feature-settings:normal;font-variant-caps:normal;font-variant-ligatures:normal;font-variant-numeric:normal"/>
 </g>
</svg>
