<svg width="373.1pt" height="139.93pt" version="1.1" viewBox="0 0 373.1 139.93" xmlns="http://www.w3.org/2000/svg">
 <path d="m191.78 13.132c15.1-15.46 41.66-17.62 58.95-4.61 9.44 6.82 15.61 17.83 16.9 29.37 1.95 12.2-1.9 24.62-8.29 34.97l-40.99 67.065h-19.55l34.69-55.385c-11.67 4.38-25.21 2.59-35.64-4.13-9.65-6.06-16.3-16.45-18.23-27.63-2.78-14.12 1.89-29.53 12.16-39.65m25.07 3.41c-7.26 1.88-13.75 6.69-17.48 13.21-7 11.61-4.08 28.08 6.72 36.35 11.53 9.73 30.88 7.38 39.73-4.84 8.77-11.43 6.96-29.36-3.9-38.82-6.65-6.1-16.41-8.2-25.07-5.9z" fill="#ff821e"/>
 <path d="m288.62 3.0368h6.23v21.99h23.46v-21.99h6.33v48.75h-6.33v-21.485h-23.46v21.485h-6.23z" fill="#ff821e"/>
 <path d="m336.66 3.0318c9.426 0 21.283-0.74712 28.07 4.57 8.47 6.43 9.83 18.56 7.1 28.2-2 7.63-8.43 13.9-16.22 15.38-4.1691 0.72397-12.198 0.6-18.95 0.6v-48.75m6.055 43.58c5.7093 0 12.255 0.33 17.075-3.48 5.01-3.7 7-10.27 6.74-16.29 0.33-5.99-1.86-12.66-7.25-15.85-4.94-3.12-11.096-2.65-16.565-2.65z" fill="#ff821e"/>
 <g transform="matrix(.88378 0 0 .88378 110.75 156.36)" fill-rule="evenodd">
  <path d="m-125.32-173.11h126.25v36.334h-126.25z" fill="#ffd414"/>
  <path d="m-86.471-113.9h87.405v36.334h-87.405z" fill="#ffd414"/>
  <path d="m-86.471-55.021h87.405v36.334h-87.405z" fill="#ffd414"/>
  <path d="m-125.32-113.9h38.847v95.209h-38.847z" fill="#ff821e"/>
  <path d="m0.93412-173.11h38.847v154.42h-38.847z" fill="#ff821e"/>
 </g>
</svg>
