<svg width="800" height="380.23" version="1.1" viewBox="0 0 800 380.23" xml:space="preserve" xmlns="http://www.w3.org/2000/svg"><defs><clipPath id="clipPath30802"><path d="m345.11 775.15h12.668v6.021h-12.668z"/></clipPath></defs><g transform="matrix(1.3333 0 0 -1.3333 -912.92 1618.6)"><path d="m684.69 986.32h600v227.63h-600z" fill="#ed0d8e"/><g transform="matrix(47.363 0 0 47.363 -15661 -35785)"><g clip-path="url(#clipPath30802)"><g transform="translate(354.12 778.48)"><path d="m0 0v-0.017c0-0.256-0.136-0.311-0.302-0.311h-1e-3c-0.167 0-0.302 0.055-0.302 0.311v0.57c0 0.255 0.135 0.31 0.302 0.31h1e-3c0.166 0 0.302-0.055 0.302-0.31l-1e-3 -0.014h0.493l0.01-0.538zm-2.177 0.304h-0.352l0.063 0.163c0.102 0.246 0.175 0.308 0.289 0.308zm-1.857 0.351c0-0.108-0.055-0.196-0.311-0.196h-0.264v0.396h0.263c0.256 0 0.312-0.091 0.312-0.199zm6.304-0.021v0.669l-1.789-1e-3v-0.175c-0.152 0.137-0.403 0.229-0.782 0.229-0.721 0-0.98-0.281-0.98-0.71v-0.63c0-0.213-0.041-0.253-0.109-0.255-0.07 2e-3 -0.11 0.052-0.11 0.255v1.287h-0.871c-0.311 0-0.544-0.145-0.707-0.58l-0.284-0.825c-0.027-0.073-0.059-0.085-0.093-0.085-0.039 0-0.076 0.024-0.102 0.106l-0.096 0.203c0.237 0.11 0.319 0.297 0.319 0.502v0.063c0 0.337-0.195 0.616-0.989 0.616h-3.298v-0.669h0.541v0.14c0 0.045 0.036 0.081 0.081 0.081h0.217l-1e-3 -1.235c0-0.229 0.187-0.414 0.416-0.414h0.411v0.464l-5e-3 -1e-3c-0.082 0-0.149 0.067-0.149 0.149v1.037h0.218c0.045 0 0.081-0.036 0.081-0.081v-0.14h0.524v7e-3 -0.825c0-0.081-0.067-0.148-0.149-0.148v-0.461h0.827l1e-3 0.798h0.069c0.11 0 0.206-0.052 0.256-0.142l0.342-0.656h0.69c0.304 0 0.37 0.066 0.469 0.314l0.121 0.338h0.486l-1e-3 -0.652h4.446v0.684h-0.546l1e-3 -0.141c0-0.044-0.036-0.079-0.081-0.079l-0.486 1e-3v0.38h0.408v0.443h-0.408v0.36h0.486c0.045 0 0.081-0.036 0.081-0.08l-1e-3 -0.141z" fill="#fff"/></g><g transform="translate(354.47 775.46)"><path d="m0 0-5.947-0.312-0.095 1.817 5.947 0.312z" fill="#050301"/></g><g transform="translate(348.95 775.54)"><path d="m0 0-0.056 1.077 0.242 0.012 0.045-0.861 0.427 0.022 0.011-0.215z" fill="#fff"/></g><g transform="translate(350.06 776.02)"><path d="m0 0 0.247 0.013-0.146 0.444zm0.637-0.38-0.252-0.013-0.069 0.207-0.36-0.019-0.048-0.213-0.252-0.013 0.272 1.093 0.323 0.017z" fill="#fff"/></g><g transform="translate(351.14 776.52)"><path d="m0 0 0.045-0.862-0.242-0.012-0.045 0.861-0.29-0.015-0.011 0.215 0.821 0.043 0.011-0.215z" fill="#fff"/></g><g transform="translate(351.61 775.68)"><path d="m0 0-0.056 1.077 0.242 0.012 0.056-1.076z" fill="#fff"/></g><g transform="translate(352.27 776.43)"><path d="m0 0 0.037-0.708-0.233-0.012-0.056 1.076 0.297 0.016 0.393-0.723-0.039 0.742 0.233 0.012 0.057-1.077-0.3-0.016z" fill="#fff"/></g><g transform="translate(353.42 776.19)"><path d="m0 0 0.247 0.013-0.146 0.444zm0.637-0.38-0.252-0.013-0.069 0.207-0.36-0.019-0.048-0.213-0.252-0.013 0.272 1.093 0.323 0.017z" fill="#fff"/></g></g></g></g></svg>
