<svg width="600pt" height="141.51pt" version="1.1" viewBox="0 0 600 141.51" xmlns="http://www.w3.org/2000/svg">
 <g transform="matrix(.92203 0 0 .92203 -137.62 0)" fill="#da233d">
  <path d="m734.4 0h13.016v30.908h4.9226v8.9458h-4.9226v8.8038h-11.596v-8.8038h-4.2599v-8.9458h4.2599v-12.259c0-1.9406 0.33133-4.1653 0.94665-6.5792-0.80465 2.0826-1.3253 3.5026-1.6566 4.2126s-0.66265 1.3726-1.0413 1.988l-2.5086 4.1653v-17.655zm-2.84 39.854h-15.998l-0.85198-7.3365 16.898-27.784v17.655l-5.2539 8.5198h5.2539v8.9458z" stroke-width=".47333"/>
  <polygon transform="matrix(.47333 0 0 .47333 -57.144 -197.47)" points="1747.8 470.8 1747.8 520 1721.5 520 1721.5 417.2 1747.8 417.2 1747.8 463.4 1776.5 417.2 1806.7 417.2 1774.3 467 1810.9 520 1780.1 520"/>
 </g>
 <g transform="matrix(1.196 0 0 1.196 -544.5 469.38)" fill="#da233d" fill-rule="evenodd">
  <path d="m521.38-342.4v-9.2h-20.027v56.267h20.027v-25.067c0-2.7867 0.26667-4.7333 0.82667-6.1333 0.28-1.3867 1.12-3.0533 2.7867-5.0133 1.6667-1.9467 4.44-2.7867 8.3333-2.7867 1.6667 0 3.6133 0.28 5.84 0.56l3.3333-18.933-4.72-0.28c-8.6267 0-13.907 3.6133-16.4 10.587z"/>
  <path d="m491.37-309.01c-1.9467 0-3.884-0.56-4.9947-1.4-1.388-0.82666-2.2213-1.9467-2.4987-3.0533 0-1.12-0.27734-3.0667-0.27734-5.2933v-16.72h13.051v-16.707h-13.051v-13.92h-19.991v13.92h-8.3293v16.707h8.3293v20.613c0 4.1867 0.27733 6.96 1.1107 8.92 0.55467 2.2267 2.4987 4.7333 5.2747 7.52 2.7773 2.7867 7.4973 4.1733 14.16 4.1733 2.4987 0 5.0027-0.28 6.936-0.56 2.5067-0.56 5-1.3867 7.5067-2.5067l-2.5067-13.093c-1.9467 1.12-3.3333 1.4-4.72 1.4z"/>
  <path d="m583.51-344.68c-0.84-1.3867-1.4-2.5067-1.9467-3.3333-2.2267-2.24-5.0133-3.9067-7.8-4.7467-1.9467-0.26667-3.8933-0.54667-5.84-0.54667-6.96 0-12.8 2.7867-17.533 8.3467-4.7333 5.5733-6.9467 12.533-6.9467 21.173s2.4933 16.16 6.9467 21.453c4.4533 5.5733 10.293 8.3467 17.253 8.3467 2.2267 0 4.4533-0.26667 6.12-0.82667 4.4533-1.4 7.52-3.9067 9.7467-8.08v6.96h20.307v-55.707h-20.307zm-1.9467 30.64c-1.9467 2.5067-4.7333 3.9067-7.8 3.9067-3.6133 0-6.12-1.4-8.0667-3.9067-2.2267-2.2267-3.0533-5.5733-3.0533-9.4667s0.82667-6.96 3.0533-9.4667c1.9467-2.5067 4.7333-3.6267 7.7867-3.6267h0.28c3.0667 0 5.5733 1.4 7.8 3.6267 2.2267 2.5067 3.0533 5.5733 3.0533 9.4667-0.28 4.1733-1.1067 7.52-3.0533 9.4667z"/>
  <path d="m666.93-351.6h-21.147l-7.5067 22.253-1.3867 5-1.12 6.96c0-1.4 0-2.5067-0.28-3.3467 0-0.82666-0.28-2.2133-0.56-3.6133-0.26666-1.6667-0.54666-2.4933-0.54666-3.0533-0.28-0.56-0.56-1.12-0.84-2.2267l-7.5067-22.253h-21.147l23.093 56.187h16.133l22.547-55.067z"/>
  <path d="m820.55-351.56h-24.2l-5.56 8.9067c-0.84 1.1067-1.3867 2.2267-1.6667 3.0533-0.28 1.12-0.56 2.5067-0.84 4.4533-0.56-3.3333-1.3867-5.56-2.7733-7.2267l-5.5733-8.9067h-24.2l20.307 26.707-22.533 29.467h24.2l7.24-10.84c1.1067-1.6667 1.9467-3.0533 2.2267-3.8933s0.54667-2.2267 1.1067-3.8933c0.56 3.3333 1.6667 5.56 2.7867 7.5067l7.5067 10.853h24.2l-22.533-29.76z"/>
  <path d="m732.87-295.42h20.016v-81.571h-20.016z"/>
  <path d="m696.41-353.3h-0.56c-8.36 0.28-15.6 3.0667-21.173 8.64-4.7333 5.0267-7.24 10.613-8.0667 17.307-0.28 1.3867-0.28 3.0667-0.28 4.7333 0 1.68 0 3.0667 0.28 4.7467 0.82667 6.4133 3.6133 12 8.0667 16.733 5.5733 5.3067 12.547 7.8133 21.173 7.8133h0.56c5.5733 0 10.587-1.12 15.32-3.3467 4.4533-2.2267 7.24-4.4667 8.9067-6.4133 1.4-2.5067 2.24-3.9067 2.7867-4.4667 0.28-0.56 0.56-1.12 0.84-1.6667l-16.16-5.5867c-1.3867 2.2267-2.7867 4.1867-5.0133 5.5867-2.2267 1.3867-4.4533 1.9467-6.4 1.9467h-0.84c-2.7867 0-5.0133-1.12-6.68-2.7867-2.2267-2.24-3.3467-4.7467-3.9067-8.0933h40.387v-3.9067c0-9.2-2.7733-16.733-8.0667-22.32-5.2933-5.5733-12.267-8.92-21.173-8.92zm-0.56 23.987h-10.587c0.56-3.6267 1.68-5.8533 3.6267-7.8133 1.9467-1.9467 4.4533-2.7867 6.96-3.0667h0.56c3.0667 0 5.5733 1.12 7.24 3.0667 1.9467 1.96 2.7867 4.7467 2.7867 7.8133z"/>
  <path d="m877.07-344.9c-4.7333-5.5733-10.573-8.08-17.533-8.08-2.2267 0-4.1733 0-5.84 0.56-4.7333 1.1067-7.8 4.1733-9.7467 8.3467v-7.52h-20.027v77.459h20.027v-28.699c2.2267 4.4533 5.5733 7.24 9.7467 8.36 1.9467 0.56 3.8933 0.84 5.56 0.84 7.24 0 13.36-2.7867 17.813-8.36 4.72-5.5733 6.6667-12.813 6.6667-21.733 0.28-8.92-1.9467-15.88-6.6667-21.173zm-15.027 31.48c-2.2267 2.2267-5.0133 3.6267-8.08 3.6267h-0.26667c-3.3467-0.28-5.8533-1.4-8.08-3.6267-1.9467-2.5067-3.0533-5.5733-3.0533-9.7467 0-4.1867 1.1067-6.9733 3.3333-9.48 1.9467-2.5067 4.7333-3.6133 7.8-3.8933h0.26667c3.3467 0 5.8533 1.3867 7.8 3.8933 2.2267 2.5067 3.3333 5.5733 3.3333 9.76-0.28 3.8933-1.3867 7.24-3.0533 9.4667z"/>
 </g>
 <g transform="matrix(1.0263 0 0 1.0263 -262.58 -729.29)" fill="#da233d" stroke-width="1px" aria-label="HDR">
  <path d="m763.84 760.94h7.36v10.12h9.2v-10.12h7.36v28.84h-7.36v-12.16h-9.2v12.16h-7.36z"/>
  <path d="m790.95 760.94h9.48q2.64 0 5.96 0.72 3.36 0.72 6.12 4.48 2.76 3.72 2.76 8.92 0 6.56-3.96 10.64t-10.28 4.08h-10.08zm7.36 22.28h2.72q3.08 0 5-2.2t1.92-5.72q0-3.36-2.08-5.56-2.04-2.24-5.16-2.24h-2.4z"/>
  <path d="m817.74 760.94h10.68q1.12 0 2.12 0.08t2.84 0.48q1.88 0.36 3.6 2.6t1.72 5.44q0 6.4-6.04 7.96l7.8 12.28h-8.52l-6.84-12.04v12.04h-7.36zm7.36 13.04h1.8q2 0 3.08-0.96 1.12-1 1.12-2.8 0-3.48-3.96-3.48h-2.04z"/>
 </g>
</svg>
