<svg width="277pt" height="63.534pt" version="1.1" viewBox="0 0 277 63.534" xmlns="http://www.w3.org/2000/svg">
 <link href="" rel="stylesheet" type="text/css"/>
 <style type="text/css"/>
 <g transform="translate(0 -.23379)" fill="#fff">
  <path d="m0 1.3h34.705v61.495h-16.42v-46.965h-18.285z" fill="#fff"/>
  <path d="m51.63 1.31h26.41c5.89 0.05 12.15 2.04 15.91 6.8 4.9 6.05 5.7 14.55 3.92 21.91-1.22 5.14-5.1 9.18-9.67 11.61l13.89 21.15h-19.18l-11.389-18.6h-3.9062v18.6h-15.985v-61.47m15.985 14.42v13.94h5.2318c2.1969 0 4.3372-0.34154 6.1732-1.7102 3.4-2.23 3.39-7.72 0.24-10.17-1.4936-1.2095-3.8999-2.06-6.4087-2.06z" fill="#fff"/>
  <path d="m171.84 10.82c8.72-10.79 24.96-13.11 37.35-7.97 4.94 1.93 9.03 5.45 12.61 9.28l-12.04 10.52c-3.33-3.5-7.69-6.55-12.73-6.37-5.2-0.37-10.21 2.54-12.93 6.89-4.28 7.53-2.39 18.65 5.5 23.04 6.77 3.39 15.27 0.99 20.09-4.62l12.09 10.46c-10.82 13.47-32.36 15.56-45.88 5.06-14.11-10.52-14.97-33.18-4.06-46.29z" fill="#fff"/>
  <path d="m234.3 1.285h40.975v14.555h-24.89v9.415h19.41v14.285h-19.41v8.675h26.61v14.555h-42.695z" fill="#fff"/>
  <path d="m153.84 1.285h-40.975v14.555h24.89v9.415h-19.41v14.285h19.41v8.675h-26.61v14.555h42.695z"/>
 </g>
</svg>
