<svg width="1302pt" height="1281pt" version="1.1" viewBox="0 0 1302 1281" xmlns="http://www.w3.org/2000/svg">
 <path d="m1302 1077v204h-1302v-204z" fill="#fecd2a"/>
 <g fill="#fecd2a">
  <path d="m628.72 0c-1.96 6.15 3.46 10.69 5.25 16.07 4.78 12.51 1.42 26.27-2.61 38.51 6.31 4.32 12.98 8.65 20.58 10.2 8.88 1.04 17.35-2.91 25.28-6.42 9.38-5.25 22.1-1.28 28.11 7.26 2.95 4.11 2.51 9.45 1.1 14.04 9.14-1.54 18.95 0.06 26.76 5.16 3.83 2.45 7.03 6.43 7.21 11.15 0.41 4.38-1.99 8.25-4.07 11.89 6.9 4.51 13.95 9.26 18.86 16.03 2.73 3.83 5.03 8.29 4.91 13.12 0.14 5.99-3.62 11.5-8.56 14.61-8.25 5.32-19.42 6.86-28.31 2.22-4.65-2.22-7.6-6.7-9.27-11.43-1.61 4.65-3.88 9.64-8.54 11.95-6.62 3.46-14.66 1.5-20.83-2.03-6.54-3.58-9.99-11.1-10.24-18.33-0.34-8.82 0.85-17.66-0.32-26.46-3.04 5.27-5.35 11.43-10.62 14.92-2.76 1.85-6.58 1.33-8.99-0.84-5.71-4.77-8.55-11.95-10.97-18.78-2.4-6.57-1.71-13.72-3.69-20.38-2.1-7.56-6.25-14.46-11.48-20.27-7.69 15.9-12.9 33.17-13.76 50.88-0.96 16.82 2.98 34.51 14 47.66 12.77-1.31 26.52-0.89 37.74 6.09 9.39 5.63 17.63 15.77 16.52 27.31-0.2 4.64-3.47 8.23-6.82 11.08-7.72-10.63-21.41-14.6-34-14.78-13.63 0.21-28.16 4.65-37.08 15.49-5.27 6.18-7.58 14.25-8.03 22.24-8.55-1.16-15.65-7.92-17.87-16.14-2.97-10.35 0.33-21.38 5.64-30.37 5.97-9.87 16.84-15.94 28.07-17.61-8.68-16.91-12.3-36.15-11.87-55.07-3.94 2.55-8.15 5.03-10.84 8.99-1.69 2.32-1.87 5.27-2.13 8.02-0.77 9.12-2.1 18.42-6.06 26.76-1.79 3.55-4.49 7.54-8.82 7.93-4.35 0.42-7.7-2.88-10.84-5.36 5.29 9.87 4.22 22.28-0.69 32.09-2.3 4.79-7.26 9.43-12.99 7.98-6.6-1.86-10.81-7.83-14.35-13.3-2.42 7.44-8.29 14-16.11 15.74-11.94 3.37-25.63-9.77-21.17-21.8 2.16-7.62 8.82-12.4 14.54-17.28-5.21-2.97-9.99-7.09-12.53-12.64-2.13-4.34-2.88-10.01 0.15-14.13 3.56-4.74 9.66-6.4 15.26-7.22 7.95-0.88 16.02-0.52 23.93 0.63-2.05-3.91-4.4-7.93-4.57-12.46-0.12-4.26 2.77-8.11 6.63-9.71 7.89-3.49 17.07-4.06 25.36-1.6 7.91 2.29 16.28 3.94 24.52 2.51 4.3-1.43 8.5-3.48 12.1-6.26 0.54-4.6-0.17-9.28 0.78-13.84 3.41-17.38 15.33-31.74 18.42-49.23 1.02-5.48-0.9-10.95-3.6-15.64-1.52-2.65-4.8-3.17-7.06-4.95-1.23-1.48-1.77-3.39-2.53-5.13l20.588-9.3249zm23.14 76.89c2.07 2.48 4.39 4.74 6.74 6.95-1.51 8.13-0.35 16.46 1.79 24.36-0.13-7.53-1.44-15.11 0.12-22.59 9.79 8.24 20.09 15.87 30.96 22.64 0.15 9.25 3.01 18.14 4.43 27.22 1.69-8.55-2.86-16.86-1.41-25.48 6.11 3.66 12.84 6.03 19.22 9.13 9.33 4.23 18.28 9.34 26.43 15.56-3.82-5.21-9.33-8.77-14.72-12.17-9.06-5.51-18.89-9.59-28.4-14.22 8.13-1.58 16.85-1.64 24.22-5.86-8.95 2.04-18.05 3.4-27.2 4.18-10.49-6.35-20.4-13.6-30.29-20.83 9.29-1.03 18.39-3.98 26.55-8.56-9.49 3.17-19.19 6.44-29.29 6.62-2.94-2.46-5.92-4.88-9.15-6.95m-102.22 37.06c7.02 2.24 13.71 5.34 20.54 8.08-6.01 2.97-12.27 5.5-17.92 9.14-4.86 3.1-8.63 7.53-12.5 11.74-7.43-2-12.32-0.2822-22.79-2.27 6.53 3.49 14.16 2.09 21.1 4.06-7.99 8.96-14.98 19-19.04 30.39 7.12-10.4 14.14-20.95 22.79-30.15 2.42 9.6-0.16 20.16 4.66 29.15-2.16-10.33-0.45-21.05-2.82-31.37 6.98-8.66 17.4-12.95 27.1-17.71-0.58 8.14 0.13 16.41 3.4 23.98-0.84-8.7-2.53-17.64 0.16-26.2 3.96-2.13 7.31-5.19 10.15-8.65-3.69 2.29-7.38 4.61-11.34 6.41-8.03-1.5-15.19-6.74-23.49-6.6z"/>
  <path d="m642.73 198.9c10.56 0.01 21.76 2.43 29.92 9.51 4.6585 3.948 6.66 10.76 8.12 16.82 2.18 10.43 2.37 21.39 0.01 31.8-3.7 11.94-11.43 22.07-19.54 31.38-2.03 2.2068-3.7948 5.4992-6.3702 7.2127-2.4605 1.5389-3.694 1.4238-6.285-0.33559-4.3449-2.8989-7.6883-7.2742-12.615-9.3171-18.544-9.5706-29.492-28.982-34.426-48.697-0.76213-3.119-0.85173-4.5747-0.0908-8.2437 1.658-8.0689 6.0129-15.647 12.577-20.699 8.14-6.32 18.5-9.21 28.7-9.43z"/>
  <path d="m325.88 203.64h35.25l14.76 14.685-24.56 0.02 291.39 291.36 291.5-291.26-24.49-0.14 14.54-14.665h35.3v34.845l-14.92 14.79-0.13-24.37-291.56 291.09 254.03 254.05 25.992 0.31719 44.73 44.453-30.431 8e-3 -42.659-42.321-5.05 5.22 41.725 41.566v31.944l-44.765-44.83 0.01-25.98-253.91-253.81-253.73 253.72v26.281l-44.481 44.4v-31.24l42.05-41.49-5.41-5.25-41.687 41.783h-31.553l45.09-44.913 24.943 0.30251 254.3-254.11-291.32-291.22-0.08 24.36-14.87-15.27z"/>
  <path d="m219.46 375.56c1.46-1.1 3.41-1.7 5.2-1.07 1.82 1.38 0.26 3.69-0.08 5.41-7.13 19.8-13.96 40.01-15.99 61.08-0.6 11.33-0.8 22.86 1.93 33.96 2.75 11.55 7.62 22.83 15.24 32.02 2.84-2.06 3.91-5.51 3.61-8.89-0.17-5.9-1.6-11.77-0.82-17.68 0.55-1.18 1.8-1.83 2.92-0.89 3.39 2.77 5.58 6.77 7.23 10.77 2.18 5.28 1.87 11.07 2.61 16.63 0.48 7.83 4.8 14.58 7.54 21.74 2.3-0.5 4.75-1.55 7.05-0.47 2.94 0.95 4.64 3.71 6.44 6.02 6.49-1.7 13.36-2.02 19.86-0.19 2.03-2.33 3.86-5.13 6.85-6.31 1.68-0.35 3.41-0.08 5.11-0.2 2.3-4.47 4.07-9.22 5.61-14.01 2.21-6.93 1.19-14.44 3.51-21.34 1.45-4.42 3.77-8.59 6.93-12.01 0.67-0.77 2.58-1.78 3.13-0.41 1.16 7.37-0.65 14.87 0.25 22.25 0.12 2.24 2.04 3.61 3.52 5.03 9.93-12.91 15.81-28.73 16.99-44.95 1.16-13.69-0.36-27.5-3.22-40.89-2.67-12.79-7.55-24.94-11.6-37.32-0.79-2.79-2.35-5.58-1.95-8.55 3.03-2.92 6.83 0.96 8.93 3.25 11.04 11.27 14.29 27.16 20.48 41.14 10 0.08 17.5-7.74 22.08-15.84 3.18-4.84 4.59-10.57 7.53-15.51 0.43-0.07 1.28-0.21 1.71-0.28 2.16 3.2 1.56 7.25 1.75 10.9 0.32 8.1-2.12 16.43-7.48 22.6-7.13 8.16-15.17 15.91-19.64 25.96-2.26 4.74-3.29 9.96-3.73 15.17 2.47-0.51 5.11-0.98 7.05-2.74 7.65-5.91 10.42-15.81 17.55-22.2 2.56 6.51 2.3 14.27-1.52 20.26-5.14 8.36-13.66 13.71-20.45 20.58-6.17 5.95-10.05 13.7-14.47 20.93 4.57-0.75 9.41-1.41 13.29-4.13 4.01-2.92 6.56-7.41 10.64-10.24 2.21-1.68 4.89-2.51 7.49-3.36-0.52 6.93-1.53 14.26-5.79 20-5.39 7.47-14 11.83-22.61 14.5-4.03 1.21-8.03 2.7-11.41 5.26 4.39-0.26 8.61-1.57 12.84-2.69-0.67 4.64-2.79 9.22-6.76 11.93-7.58 5.41-17.25 6.41-26.28 6.92 1.09 4.12-0.87 7.99-1.07 12.04 9.65-5.95 18.82-13.04 29.71-16.65 3.12-1.08 6.56-0.23 9.66-1.41 10.82-3.82 21.76-7.29 32.54-11.23 0.56 12.95-1.77 27.14-10.74 37.07-6.23 7.27-16.13 10.89-25.6 9.92-9.62-0.78-19.18 1.22-28.27 4.25 0.19 2.71-0.68 5.27-2.44 7.33 2.82 6.89-5.25 11.37-5.05 18.01-1.47 15.12-4.22 30.15-9.27 44.51 3.67 4.05 5.39 10.65 1.88 15.33-2.7 4.15-8 5.16-11.22 8.73-5.32 6.08-14.74 6.39-21.79 3.49-4.15-1.49-6.66-5.36-10.35-7.56-5.24-3.09-7.47-9.97-5.59-15.65 0.47-1.81 1.86-3.73 0.38-5.44-7.26-13.39-11.37-28.3-13.08-43.39-0.15-4.83-3.92-8.21-5.8-12.37-1.41-2.47 0.43-5.17-0.08-7.76-0.38-1.91-1.25-3.66-1.96-5.45-8.44-2.94-17.34-4.56-26.3-4.38-11.07 0.05-23.33-4.01-29.16-14.08-6.03-10.5-6.51-23.16-6.11-34.96 10.3 4.33 20.77 8.32 30.74 13.39 3.18 1.78 7.01 0.34 10.36 1.58 9.76 3.26 18.53 8.83 26.88 14.74-0.88-3.09-1.86-6.34-0.18-9.36-10.41-0.91-21.9-1.49-30.19-8.68-3.68-2.82-5.52-7.28-5.88-11.8 4.17 1.32 8.35 2.9 12.78 2.92-6.62-4.12-14.62-4.98-21.32-8.92-5.19-2.89-9.94-6.87-12.77-12.18-3.32-5.73-4.2-12.43-4.57-18.93 7.3 1.92 12.61 7.58 17.79 12.7 3.62 3.61 8.71 4.99 13.64 5.61-5.83-8.18-10.86-17.09-18.25-24.01-6.31-5.69-12.46-11.64-17.57-18.46-3.95-5.49-3.39-12.73-1.67-18.92 1.25 0.48 2.63 0.96 3.21 2.29 4 6.52 8.17 13.09 13.8 18.34 2.14 2.08 4.93 3.28 7.79 4.06-0.65-10.9-5.93-20.86-12.1-29.61-4.66-6.66-12.13-10.98-15.77-18.38-4.4-8.38-4.37-18.61-1.32-27.43 1.36 0.27 3.01 0.46 3.38 2.1 3.18 7.56 6.35 15.3 11.62 21.7 3.96 5.17 10.1 8.8 16.72 8.81 3.92-9.38 6.85-19.16 11.21-28.35 2.95-5.98 6.7-11.89 12.31-15.7z"/>
  <path d="m953.17 381.63c21.02-5.18 43.49-6.37 64.48-0.39 11.55 3.09 21.87 9.5 31.36 16.62 18.57 13.94 32.91 33.8 39.1 56.29 7.32 24.75 4.83 51.64-4.12 75.64-15.04 40.17-49.67 73.37-91.78 83.43-14.37 3.41-28.25 8.75-41.2 15.85-11.9 6.97-24.63 14.94-30.55 27.97-9.6609-6.925-12.262-27.151-7.61-36.09 2.78-5.34 8.51-7.95 13.79-10.19-6.59-0.15-13.61-2.09-18.02-7.27-5.05-5.99-6.21-14.29-5.7-21.86 0.58-7.68 2.52-15.53 7.21-21.79 5.34 10.25 14.35 17.88 23.27 24.93 4.93 3.55 9.56 7.92 15.57 9.57 11.93 3.47 24.77 1.96 36.47-1.68 7.65-2.36 14.52-6.64 20.63-11.74-7.89-0.13-15.41-3.02-22.33-6.59-8.7875-4.6447-9.8416-9.7444 0.76-11.6 12.59-2.15 25.9-1.32 37.82-6.52 3.23-1.7 7.0219-3.8088 7.37-8.22 1.37-21.8 2.22-44.42-5.36-65.28-2.95-8.49-7.47-16.3-12.08-23.96-1.57 9.18-9.92 14.35-16.39 20-4.88 3.85-9.14 8.62-11.54 14.41-6.27-4.86-10.61-12.05-12.64-19.67-1.34-4.28 1.02-8.35 2.81-12.09 4.7-9.45 12.97-16.36 21.23-22.62 4.63-3.64 9.83-7.71 10.89-13.9-2.87 3.09-5 6.88-8.53 9.32-7.84 6.26-18.42 7.87-28.16 6.7-17.3-2.01-33.2-9.57-48.88-16.67-10.381-4.6442-7.8376-5.1938-0.85-11.36-3.98-0.29-9.75-0.87-10.56-5.75-0.16-5.57 4.75-9.56 9.09-12.22 10.78-6.01 22.55-10.09 34.45-13.27m14.58 5.2c-5.86 1.58-9.16 7.13-11.77 12.16 5 4.02 11.33 7.69 18 6.22 7.1-1.55 11.52-8.52 12.88-15.26-6.16-1.81-12.59-4.69-19.11-3.12z"/>
  <path d="m1039.6 384.12c13.77 3.55 27.806 4.9832 42.29 3.8l16-0.74c-2.1932 12.411-3.67 21.47-4.45 32.3 14.9 13.74 29.222 26.152 46.43 39.31-16.101 16.862-22.824 26.916-32.609 41.131 5.7555 13.993 13.91 31.104 21.449 43.569-13.33 4.03-27.816 8.3638-39.52 13.46-0.3 13.55 1.53 26.98 3.1 40.4-13.395-1.31-27.714-2.5212-39.06-0.87-6.2571 9.327-10.279 16.025-15.211 25.16-11.91-3.8029-24.578-7.7848-34.419-7.07 34.92-9.38 64.7-34.44 81.9-66.02 8.36-14.96 13.74-31.55 16.03-48.52 3.24-24.49-1.3-50.21-13.99-71.52-11.19-19.1-28.44-34.2-47.94-44.39z"/>
  <path transform="scale(.75)" d="m861.4 1007.3c-57.084 0-118.49 50.695-145.1 90.391-5.199 9.4671-5.6001 22.381 3.293 28.246 19.325 11.157 97.817 15.276 141.81 14.902 50.652 0 118.29-4.2137 141.81-14.902 9.6482-4.6079 8.7832-20.189 3.2929-28.246-31.227-42.139-89.489-90.391-145.1-90.391zm-77.66 45.525a18.076 18.076 0 0 1 18.076 18.076 18.076 18.076 0 0 1-18.076 18.076 18.076 18.076 0 0 1-18.076-18.076 18.076 18.076 0 0 1 18.076-18.076zm-20.52 38.18a9.7125 9.7125 0 0 1 9.7129 9.7129 9.7125 9.7125 0 0 1-9.7129 9.7129 9.7125 9.7125 0 0 1-9.7129-9.7129 9.7125 9.7125 0 0 1 9.7129-9.7129z" stroke-width="1.3333"/>
  <path d="m612.87 860.45c23.26 1.38 46.948 1.2378 69.8-0.35 7.0548 12.094 16.649 30.832 16.9 50.07 0 26.329-7.4849 50.4-24.934 71.587-5.7113 6.1699-16.193 7.9896-26.866 7.9896-9.1872-0.0505-22.785-2.4584-27.15-8.2765-16.297-22.011-24.531-42.979-24.531-71.3-0.0349-18.156 7.8306-35.68 16.781-49.72z"/>
  <path d="m571.8 924.11c1.9158-3.9874 5.1004-8.4706 9.8388-8.6588 4.6525 0 6.9889 10.976 8.0812 14.689 3.9 14.62 6.66 29.8 13.85 43.29 1.67 3.32 4.12 6.21 5.53 9.67 0.92 2.36 0.72566 6.59-2.16 6.59-4.8435 0-9.75-2.45-14.33-4.31-10.95-4.67-20.05-13.75-24.26-24.91-4.57-11.92-1.58-25.11 3.45-36.36z"/>
  <path d="m708.75 934.1c3.0893-0.17043 5.4191 2.7768 6.8188 5.3211 2.16 4.23 3.55 8.89 4 13.63 0.72 9.16-3.76 18.06-10.32 24.23-5.29 5.15-12.05 8.38-18.79 11.18-2 0.85-4.25 1.39-6.37 0.76-2.61-1.27-2.01-4.81-0.39-6.63 2.66-3.27 5.55-6.37 7.77-9.97 5.77-8.68 8.56-18.83 11.26-28.77 0.96035-4.0657 1.9035-9.1876 6.0212-9.7511z"/>
 </g>
 <path d="m1129.3 1103.2c7.04-4.84 16.57-5.48 24.35-2.05 9.05 3.76 15.88 11.15 24.38 15.85 6.47 3.7 16.88-0.21 17.67-8.1l17.17-3.59c0.58 6.21-0.14 12.73-3.38 18.19-5.17 8.96-15.41 14.31-25.59 14.74-7.38 0.18-14.18-3.31-20.14-7.33-6.19-4.07-11.48-9.72-18.61-12.17-5.139-1.377-9.62 3.19-12.28 7.23l-0.8937 1.4573-15.816-9.1773c3.25-5.86 7.38-11.43 13.14-15.05z"/>
 <path transform="scale(.75)" d="m853.43 1523.8c-20.488 0-33.648 16.299-33.648 41.74 0 24.663 13.566 41.74 33.648 41.74l78.846 0.01v36.286l-43.373 0.053 0.0137 24.234 108.87-0.014 0.0137-24.234-43.373-0.053v-36.266h78.846c20.083 0 33.646-17.078 33.646-41.74 0-25.441-13.158-41.74-33.646-41.74zm1.2129 24.74h77.633v34.547h-77.688c-8.8278 0-13.698-8.7632-13.65-17.558 0.0535-9.8648 5.0597-16.988 13.705-16.988zm99.785 0.014h77.635c8.6454 0 13.652 7.1235 13.705 16.988 0.048 8.7954-4.8246 17.559-13.652 17.559l-77.688-0.01z" stroke-width="1.3333"/>
 <path transform="scale(.75)" d="m644.13 1525.7c-40.66-0.081-65.631 30.177-65.127 71.953 0 46.688 24.713 71.953 65.127 71.953h75.232c40.414 0 65.127-25.265 65.127-71.953 0.50391-41.776-24.467-72.034-65.127-71.953zm0 25.906h75.232c22.768 0 40.731 21.284 40.731 45.834 0 28.337-17.981 45.834-40.731 45.834h-75.232c-22.75 0-40.731-17.497-40.731-45.834 0-24.55 17.963-45.834 40.731-45.834z" stroke-width="1.3333"/>
 <path transform="scale(.75)" d="m54.16 1526.6v58.727h24.279v-32.487h87.221v88.8h-47.453v26.22h118.89v-26.22h-47.453v-88.8l87.221 2e-4v32.487h24.279v-58.727z" stroke-width="1.3333"/>
 <path d="m391.51 1144.9c19.46 0 29.084 12.801 29.016 30.005 0 18.791-10.564 30.566-29.016 30.005l-87.95-0.05v26.32h35.335v19.665h-88.87v-19.665h35.28v-66.6h-35.565v-19.68zm-87.95 19.68v20.625h86.99c7.8968 0 11.792-3.21 11.792-10.312 0-6.6787-4.1081-10.346-11.792-10.312z"/>
 <path d="m825.57 1144.9h191.11v40.435h-17.77v-20.755h-119.34v20.755l60.13-3e-4v-11.755h18.06v42.87h-18.06v-11.545l-60.13-2e-4v26.275h119.34v-22.885h17.77v42.55h-191.11v-19.665h35.39v-66.6h-35.39z"/>
 <path d="m1133.9 1144.9 0.01 19.68h-35.54v63.7l106.23-83.38h56.67l0.02 19.68h-35.74v66.6h35.77l-0.04 19.665h-89.49l-0.02-19.665h35.755v-63.78l-106.02 83.445h-56.7l-0.08-19.665h35.605v-66.6h-35.615l0.01-19.68z"/>
</svg>
