<svg id="c" version="1.1" viewBox="0 0 800 354.14" xml:space="preserve" xmlns="http://www.w3.org/2000/svg"><defs id="d"><clipPath id="b"><path id="e" d="m629.68 34.158h191.56v84.797h-191.56z"/></clipPath><clipPath id="a"><path id="f" d="m629.65 34.158h191.59v84.797h-191.59z"/></clipPath></defs><g id="g" transform="matrix(1.3333 0 0 -1.3333 2.0433e-5 354.14)"><g id="h" transform="matrix(3.1323 0 0 3.1323 -1972.3 -106.99)"><g id="i" clip-path="url(#b)"><g id="j" transform="translate(808.34 57.594)"><path id="k" d="m0 0h-178.69v-23.436h176.86c8.134 0 14.727 6.594 14.727 14.727v16.068c-2.577-4.398-7.388-7.359-12.902-7.359" fill="#918f90"/></g><g id="l" transform="translate(644.38 118.95)"><path id="m" d="m0 0c-8.133 0-14.727-6.594-14.727-14.727v-44.181h176.86c8.134 0 14.727 6.593 14.727 14.726v44.182z" fill="#918f90"/></g></g></g><g id="n" transform="matrix(3.1323 0 0 3.1323 -1972.3 -106.99)"><g id="o" clip-path="url(#a)"><g id="p" transform="translate(777.06 118.95)"><path id="q" d="m0 0c-8.134 0-14.727-6.593-14.727-14.728v-44.18h44.181c8.134 0 14.727 6.592 14.727 14.726v44.182z" fill="#3871c1"/></g><g id="r" transform="translate(784.63 109.17)"><path id="s" d="m0 0v-7.334h3.728v-31.762h9.26v39.096z" fill="#fff"/></g><g id="t" transform="translate(660.5 102.97)"><path id="u" d="m0 0v-33.895h-9.199v33.895h-12.904v7.285h35.006v-7.285z" fill="#fff"/></g><g id="v" transform="translate(695.2 104.14)"><path id="w" d="m0 0h-4.383v-11.916h4.136c4.199 0 8.582 1.297 8.582 6.174 0 4.816-3.89 5.742-8.335 5.742m10.125-35.068-4.26 11.792c-1.42 4.013-2.346 5.248-6.853 5.248h-3.334v-17.04h-8.952v41.18h16.793c7.038 0 14.015-2.716 14.015-10.928 0-5.68-4.198-9.075-9.508-10.002 3.705-0.74 5.248-2.654 6.545-6.112l5.309-14.138z" fill="#fff"/></g><g id="x" transform="translate(738.04 104.14)"><path id="y" d="m0 0h-5.001v-13.706h3.211c5.001 0 9.94 0.679 9.94 6.914 0 4.878-3.766 6.792-8.15 6.792m3.211-19.88h-8.15v-15.188h-8.952v41.18h17.349c7.903 0 13.891-4.569 13.891-12.842 0-8.767-6.174-13.15-14.138-13.15" fill="#fff"/></g><g id="z" transform="translate(646.33 50.326)"><path id="aa" d="m0 0v-3.39h4.945v-1.87h-4.945v-5.205h-2.741v12.354h7.909v-1.889z" fill="#fff"/></g><g id="ab" transform="translate(660.85 39.86)"><path id="ac" d="m0 0v12.354h8.057v-1.889h-5.371v-3.241h5.13v-1.871h-5.13v-3.464h5.538v-1.889z" fill="#fff"/></g><g id="ad" transform="translate(682.57 50.381)"><path id="ae" d="m0 0h-1.315v-3.575h1.241c1.259 0 2.574 0.389 2.574 1.853 0 1.444-1.166 1.722-2.5 1.722m3.037-10.521-1.277 3.538c-0.426 1.204-0.704 1.575-2.057 1.575h-1v-5.113h-2.685v12.355h5.038c2.111 0 4.204-0.815 4.204-3.279 0-1.704-1.259-2.723-2.852-3 1.111-0.223 1.574-0.797 1.963-1.834l1.593-4.242z" fill="#fff"/></g><g id="af" transform="translate(704.63 39.86)"><path id="ag" d="m0 0-4.557 10.095v-10.095h-2.426v12.354h4.001l4.575-10.113v10.113h2.426v-12.354z" fill="#fff"/></g><g id="ah" transform="translate(722 39.657)"><path id="ai" d="m0 0c-1.278 0-2.575 0.148-3.797 0.537l0.092 2.112c1.075-0.556 2.26-0.741 3.464-0.741 1.148 0 2.371 0.407 2.371 1.722 0 0.945-1.315 1.445-2.204 1.834l-1.26 0.556c-1.445 0.648-2.556 1.5-2.556 3.186 0 2.685 2.76 3.537 5.02 3.537 1.055 0 2.093-0.111 3.112-0.389l-0.093-2.037c-0.871 0.37-1.908 0.537-2.852 0.537-1.019 0-2.445-0.296-2.445-1.519 0-0.852 1.074-1.315 1.889-1.63l1.333-0.518c1.63-0.63 2.834-1.501 2.834-3.427 0-2.704-2.482-3.76-4.908-3.76" fill="#fff"/></g><g id="aj" transform="translate(736.36 39.86)"><path id="ak" d="m0 0v12.354h8.057v-1.889h-5.372v-3.241h5.131v-1.871h-5.131v-3.464h5.538v-1.889z" fill="#fff"/></g><g id="al" transform="translate(761.75 39.86)"><path id="am" d="m0 0v5.223h-4.908v-5.223h-2.742v12.354h2.742v-4.926h4.908v4.926h2.741v-12.354z" fill="#fff"/></g><g id="an" transform="translate(774.58 39.86)"><path id="ao" d="m0 0v12.354h8.057v-1.889h-5.371v-3.241h5.13v-1.871h-5.13v-3.464h5.538v-1.889z" fill="#fff"/></g><g id="ap" transform="translate(799.31 39.86)"><path id="aq" d="m0 0-4.556 10.095v-10.095h-2.427v12.354h4.001l4.575-10.113v10.113h2.426v-12.354z" fill="#fff"/></g></g></g></g></svg>
