<svg width="2432pt" height="524pt" version="1.1" viewBox="0 0 2432 524" xmlns="http://www.w3.org/2000/svg">
 <g fill="#d3111f">
  <path d="m1024.5 0h1407.5v524h-1407.5v-524"/>
  <path d="m1797.2 156.01c17.93-0.02 35.87 0 53.81-0.01 11.03-0.09 22.16 0.21 33.02 2.35 8.45 1.72 17.04 4.99 22.95 11.54 6.24 6.76 8.58 16.11 9.31 25.06 0.64 10.91 0.35 22.51-5.16 32.27-4.1 7.5-11.43 12.69-19.32 15.59-11.47 4.21-23.81 4.89-35.9 5.2-19.57-0.03-39.15 0.01-58.71-0.02 0-30.66 0.01-61.32 0-91.98z"/>
 </g>
 <g fill="#fff">
  <path d="m1443 27.502h70.21v40.258h-70.21z"/>
  <path d="m1565.8 27.502h70.24v40.258h-70.24z"/>
  <path d="m947.31 74.25h3.16c0.01 1.83 0.14 3.67 0.17 5.5-1.55-1.53-2.32-3.62-3.33-5.5z"/>
  <path d="m1116.2 94.25h250.5v64.505h-86v267.73h-79.005v-267.73h-85.495z"/>
  <path d="m1401 94.25h78.99v181.74c0.03 18.73 0.595 37.81 5.855 55.92 3.08 10.3 8.41 20.48 17.3 26.9 8.02 5.95 18.01 8.55 27.85 9.31 11.19 0.86 22.77 0.26 33.4-3.65 8.5-3.05 15.91-8.96 20.83-16.53 5.46-8.19 8.22-17.81 10.17-27.37 3.93-20.95 3.335-42.36 3.355-63.57v-162.75h78.745v165.77c-0.13 24.3 0.89 48.77-2.92 72.87-2.71 17.74-8.35 35.35-18.69 50.17-10.34 15.19-24.95 27.22-41.33 35.42-19.36 9.74-40.96 14.42-62.5 15.71-18.77 1.01-37.75 0.01-56.08-4.28-19.8-4.56-38.96-13.05-54.51-26.27-13.96-11.74-24.66-27.26-30.76-44.45-6.67-18.46-8.64-38.2-9.33-57.7-0.61-23.5-0.315-47.03-0.375-70.54z"/>
  <path d="m1718.5 94.5h89.505c21.98 0.16 43.98-0.36 65.95 0.36 24.33 1.15 49.12 4.53 71.38 14.93 14.97 6.89 28.38 17.67 37.05 31.81 11.16 17.89 14.49 39.55 13.97 60.33-0.38 20.26-5.73 40.97-18.09 57.32-12.22 16.41-30.32 27.57-49.5 34.06l74.84 133.66h-89.3l-64.41-117.49h-52.61v117.49h-78.785v-332.48m78.785 61.505v91.995h58.69c12.09-0.31 24.43-0.98 35.9-5.19 7.89-2.9 15.22-8.09 19.32-15.59 5.51-9.76 5.8-21.36 5.16-32.27-0.73-8.95-3.07-18.3-9.31-25.06-5.91-6.55-14.5-9.82-22.95-11.54-10.86-2.14-21.99-2.435-33.02-2.345z"/>
  <path d="m2034 95h78.755v149.94l122.04-149.94h91.19l-131.49 151.25 136.1 180.74h-94.9l-122.94-173.1v173.1h-78.755z"/>
 </g>
 <g fill="#fff">
  <path d="m0 74.255h309.24v87.99h-105.24v279h-99.25v-279h-104.75z"/>
  <path d="m324.82 74.23h192.24c19.68 0.69 39.6 4.44 57.28 13.42 15.04 7.36 28.17 18.66 37.5 32.59 11.04 16.14 16.87 35.36 19.01 54.67 2.21 21.01 1.08 42.74-6.35 62.69-9.75 27.09-30.06 50.17-55.71 63.26l70.43 140.38h-112.31l-63.93-123.98h-35.725v123.98h-102.43v-367m102.43 79.55v83.96h65.785c9.13 0.03 18.39-3.3 24.79-9.93 7.17-7.37 10.31-17.72 10.96-27.78 1.21-12.36-2.82-25.35-11.6-34.26-6.78-7.04-16.13-12.26-26.13-11.99z"/>
  <path d="m641.25 74.255h309.21v87.99h-105.21v279h-99.25v-279h-104.75z"/>
 </g>
</svg>
