<svg width="1728pt" height="320pt" version="1.1" viewBox="0 0 1728 320" xmlns="http://www.w3.org/2000/svg">
 <path d="m628.53 0.91h1099.5v318.18h-1099.5v-318.18" fill="#bb2c2d"/>
 <g transform="matrix(.61204 0 0 .61204 2.214 2.612)">
  <path d="m0 74.255h309.24v87.99h-105.24v279h-99.25v-279h-104.75z"/>
  <path d="m324.82 74.23h192.24c19.68 0.69 39.6 4.44 57.28 13.42 15.04 7.36 28.17 18.66 37.5 32.59 11.04 16.14 16.87 35.36 19.01 54.67 2.21 21.01 1.08 42.74-6.35 62.69-9.75 27.09-30.06 50.17-55.71 63.26l70.43 140.38h-112.31l-63.93-123.98h-35.725v123.98h-102.43v-367m102.43 79.55v83.96h65.785c9.13 0.03 18.39-3.3 24.79-9.93 7.17-7.37 10.31-17.72 10.96-27.78 1.21-12.36-2.82-25.35-11.6-34.26-6.78-7.04-16.13-12.26-26.13-11.99z"/>
  <path d="m641.25 74.255h309.21v87.99h-105.21v279h-99.25v-279h-104.75z"/>
 </g>
 <g fill="#fefefe">
  <path d="m676 47.59h43.785v88.855h82.145v-88.855h43.75v225.74h-43.75v-102.68h-82.145v102.68h-43.785z"/>
  <path d="m950.23 47.58h55.02l66.64 225.74h-45.9l-16.02-53.395h-68.76l-16.11 53.395h-42.98l68.11-225.74m26.395 31.14c-1.79 11.8-3.2284 23.714-6.145 35.301-6.47 24.39-13.28 48.724-19.86 73.074h52.01c-6.7752-24.391-13.987-48.627-20.534-73.074-3.0058-11.701-3.9841-23.643-5.4713-35.301z"/>
  <path d="m1106.1 47.58h81.875c14.27 0.07 29 1.02 42.1 7.23 15.83 7.04 27.88 22.02 30.85 39.16 2.32 13.71 1.6 28.52-4.8 41.1-5.49 10.79-16.11 18.18-27.57 21.49 9.26 2.36 17.99 7.18 24.35 14.4 7.67 8.49 11.87 19.68 12.94 30.98 1.01 10.84 0.08 22.01-3.79 32.25-6.04 16.02-19.81 28.75-36.02 34.09-11.92 4-24.59 5.075-37.09 5.045h-82.845v-225.74m42.4 34.13v58.67h45.435c5.7813-0.0861 10.49-2.56 14.53-6.03 10.89-9.74 12.66-27.24 5.86-39.78-4.75-8.54-14.778-12.86-24.39-12.86h-41.435m0 90.415v68.35h36.435c9.73-0.18 19.94-2.595 27.35-9.245 6.19-5.29 9.46-13.32 10-21.34 0.94-9.58-1.68-19.74-8.42-26.82-6.48-7.28-16.33-10.595-25.84-10.945z"/>
  <path d="m1319.2 47.575h141.23v36.925h-98.87v56.09h80.665v35.54h-80.665v61.555h104.26v35.635h-146.62z"/>
  <path d="m1513 47.59h83.96c12.13 0.22 24.62 0.14 36.19 4.34 12.56 4.31 23.32 13.12 30.74 24.06 11.64 16.91 13.65 39.57 6.66 58.69-6.09 16.42-20.4 28.84-36.84 34.31l47.66 104.33h-47.29l-40.38-95.78h-38.23v95.78h-42.47v-225.73m42.47 95.595h42.57c9.2501 0 19.51-1.835 26.53-8.575 7.75-6.73 10-17.84 8.46-27.64-1.14-8.14-6.16-15.64-13.3-19.72-5.63-3.28-13.381-5.22-18.59-5.22h-45.67z"/>
 </g>
</svg>
