<svg width="800pt" height="144.62pt" version="1.1" viewBox="0 0 800 144.62" xmlns="http://www.w3.org/2000/svg">
 <g transform="matrix(1.1476 0 0 1.1476 -2.8153 -6.6362e-6)" fill="#fff">
  <path d="m430.46 0c0.21094 0.10156 0.42969 0.17969 0.66016 0.22656 5.1992 0.53906 9.4062 4.4766 10.297 9.6328 1.0274 6.293-3.082 12.277-9.3203 13.57-6.2422 1.293-12.387-2.5703-13.938-8.7539-0.73828-3.1797-0.14453-6.5234 1.6445-9.2539 1.7852-2.7266 4.6133-4.6055 7.8203-5.1953l1.4727-0.22656z"/>
  <path d="m466.46 0c0.21094 0.097656 0.4336 0.17188 0.66016 0.22656 5.1992 0.53516 9.4102 4.4727 10.297 9.6328 0.79297 4.2188-0.7539 8.543-4.043 11.301-3.2891 2.7578-7.8125 3.5234-11.824 2.0039-4.0156-1.5234-6.8945-5.0938-7.5352-9.3398-0.96484-6.3008 3.1875-12.246 9.4297-13.504l1.6055-0.32031z"/>
  <path d="m598.55 0c0.21094 0.097656 0.42969 0.17188 0.65625 0.22656 5.2852 0.54297 9.5273 4.6094 10.297 9.8711 0.86328 6.375-3.5 12.281-9.8438 13.32-6.3438 1.0391-12.359-3.1641-13.574-9.4805-1.0547-6.3867 3.1758-12.445 9.5273-13.648l1.6055-0.28906z"/>
  <path d="m693.63 30.152c-8.0195 16.055-15.941 31.902-23.93 47.906 0.43359 0.08203 0.70703 0.14453 0.99609 0.17578 3 0.23828 5.7031 1.9062 7.2656 4.4805 0.26172 0.42188 0.5 0.85547 0.71875 1.3008l20.371 40.766 0.49609 1.0742h-23.528c-3.7695 0.10156-7.2422-2.0312-8.8555-5.4414-1.8438-3.5-3.543-7.0664-5.3086-10.598-5.1094-10.211-10.215-20.422-15.316-30.633-0.17578-0.35156-0.40234-0.69141-0.6914-1.1875-0.0937 0.24219-0.15625 0.49609-0.19141 0.75391v45.758c0 1.6055 0 1.4297-1.4414 1.4297h-16.344c-1.5664 4e-3 -3.0664-0.61719-4.1758-1.7227-1.1055-1.1055-1.7305-2.6055-1.7305-4.1719v-88.43c0-1.7031-0.10937-1.4922 1.5274-1.4922h16.23c2.6758-0.05469 5.0391 1.7305 5.7266 4.3164 0.14453 0.66016 0.20703 1.332 0.17578 2.0078v40.281c0 0.37109 0 0.73828 0.0781 1.1719 0.48438-0.19141 0.54688-0.5625 0.69141-0.85156 1.9883-3.9492 3.9609-7.9141 5.9336-11.863l15.156-30.328c0.6875-1.5078 1.8008-2.7773 3.2109-3.6445 1.1524-0.71484 2.4766-1.1016 3.832-1.125h18.43z"/>
  <path d="m465.84 69.809v-33.027c-0.0117-0.82031 0.0781-1.6406 0.27344-2.4414 0.6875-2.457 2.9023-4.1719 5.4531-4.2188h17.211c0.75391 0 0.78516 0 0.81641 0.78516v49.031c-0.0156 8.0859-1.8633 16.062-5.4023 23.328-3.1797 6.7734-8.1758 12.527-14.438 16.617-4.1524 2.6289-8.7695 4.4414-13.602 5.3477-3.7969 0.73047-7.6758 0.95312-11.531 0.65625-11.941-0.52734-22.941-6.6367-29.703-16.504-3.9766-5.75-6.6797-12.289-7.9258-19.168-0.75-3.793-1.1211-7.6484-1.1055-11.512v-47.797c0-0.72266 0.0976-0.78516 0.84765-0.78516h17.117c3.1094 0.03125 5.6367 2.5195 5.7266 5.6328v66.066c-0.0781 8.918 6.3008 16.578 15.074 18.109 7.9688 1.375 15.887-2.6992 19.406-9.9844 1.1602-2.3476 1.7695-4.9297 1.7812-7.5469v-32.59z"/>
  <path d="m502.02 125.9c0.16406-0.38281 0.25781-0.65625 0.38672-0.91406 12.254-24.457 24.508-48.957 36.762-73.5 2.9609-5.9609 7.4297-11.039 12.961-14.738l0.81641-0.59375c-0.32031-0.28906-0.65625-0.19141-0.94531-0.21094h-23.465c-1.6602-0.07422-3.082 1.1836-3.207 2.8438-0.0156 0.49609 0.0273 0.99219 0.125 1.4766 0.92969 6.0469-2.8789 11.809-8.8008 13.316-5.918 1.5117-12.016-1.7227-14.094-7.4766-2.0742-5.7539 0.55078-12.141 6.0703-14.766 1.7227-0.82031 3.6094-1.2344 5.5195-1.2188h59.344c-0.17578 0.39844-0.27343 0.65625-0.40234 0.91406l-36.695 73.516c-2.9883 6.0117-7.4961 11.137-13.074 14.867-0.25391 0.16797-0.5 0.34766-0.73828 0.54687v0.20704h24.316c1.2266 0.0234 2.3633-0.65625 2.9219-1.75 0.33203-0.72266 0.41797-1.5352 0.23828-2.3125-0.55859-3.2148 0.22266-6.5156 2.1602-9.1406 1.9414-2.6211 4.8711-4.332 8.1055-4.7305 6.2266-0.76562 11.973 3.457 13.105 9.6328 0.6211 3.4922-0.33593 7.082-2.6172 9.7969-2.2774 2.7188-5.6445 4.2812-9.1875 4.2695h-58.465z"/>
  <path d="m321.52 80.371v44.184c0 1.4922 0.0977 1.3828-1.3789 1.3828h-16.328c-1.5859 0.0586-3.125-0.52734-4.2695-1.625-1.1406-1.1016-1.7891-2.6172-1.793-4.2031v-88.656c0-1.4453-0.082-1.332 1.3164-1.332h16.52c2.8672-0.04687 5.3438 1.9922 5.8555 4.8164 0.0742 0.57812 0.10156 1.1641 0.0781 1.75z"/>
  <path d="m369.85 75.828v-44.266c0-1.6055 0-1.4414 1.4258-1.4414h16.426c2.7656-0.0078 5.1562 1.9297 5.7226 4.6367 0.10157 0.53125 0.14454 1.0703 0.12891 1.6055v88.867c0 0.625-0.0937 0.6875-0.73828 0.70703h-17.129c-3.1523-0.0195-5.7266-2.5312-5.8203-5.6836v-1.4961z"/>
  <path d="m609.63 75.875v43.656c0.0899 1.1445-0.13672 2.2969-0.65625 3.3203-0.95703 1.9102-2.918 3.1094-5.0547 3.0859h-17.48c-0.13282 8e-3 -0.26172-0.0391-0.35938-0.13281-0.0937-0.0898-0.14453-0.21875-0.14062-0.35156v-89.008c-0.125-2.1523 0.92578-4.207 2.7422-5.3633 0.91016-0.59766 1.9766-0.91797 3.0664-0.91406h16.953c0.86719 0 0.89844 0 0.92969 0.88281v44.953z"/>
  <path d="m357.54 59.402v23.281c0 1.4453 0 1.3164-1.3633 1.3164h-16.504c-2.4414 0.01172-4.6289-1.5078-5.4688-3.8047-0.27734-0.92187-0.41406-1.8789-0.41797-2.8438v-45.934c0-1.3789 0-1.25 1.2344-1.25h16.602c2.8398-0.05078 5.3008 1.9453 5.8398 4.7344 0.0859 0.53125 0.11719 1.0703 0.0937 1.6055 0 7.6133-4e-3 15.242-0.0156 22.895z"/>
  <path d="m167.86 95.32c9.2539-5.75 15.316-17.582 15.316-29.719-0.32032-24.293-19.789-35.48-38.301-35.48h-44.715c-2.2812 0.03125-4.1211 1.875-4.1562 4.1562v91.723h15.641c4.7461-0.043 8.582-3.8867 8.6289-8.6367v-16.215h21.715l17.258 24.852h25.855l-20.449-28.77zm-22.664-15.977h-25.246v-27.484h25.246c3.6797-0.10938 7.25 1.2773 9.8984 3.8359 2.6797 2.5703 4.082 6.1992 3.832 9.9062 0.0703 3.7148-1.4219 7.2891-4.1055 9.8555-2.5781 2.5039-6.0312 3.8984-9.625 3.8867zm42.473-45.066v17.582h30.988v74.141h15.637c2.207 0.0156 4.3242-0.85156 5.8828-2.4102 1.5586-1.5625 2.4297-3.6836 2.4102-5.8906v-65.824h23.949c3.8555-0.07031 6.9492-3.207 6.9766-7.0664v-14.688h-81.398c-1.1445-0.04687-2.2578 0.37109-3.0938 1.1484-0.83594 0.78125-1.3281 1.8633-1.3672 3.0078zm-185.22 0v17.582h30.969v74.141h15.656c4.6094-0.0547 8.3828-3.6914 8.6133-8.3008v-65.824h23.945c3.8672-0.04297 6.9922-3.1758 7.0273-7.0508v-14.703h-82.059c-2.2773 0.039062-4.1094 1.8789-4.1523 4.1562z"/>
 </g>
</svg>
