<svg width="600pt" height="196.53pt" version="1.1" viewBox="0 0 600 196.53" xmlns="http://www.w3.org/2000/svg">
 <link rel="stylesheet" type="text/css"/>
 <link rel="stylesheet" type="text/css"/>
 <style lang="en" type="text/css"/>
 <style lang="en" type="text/css"/>
 <path d="m273.26 128c15.395-9.6494 25.734-29.967 25.734-50.528 0-41.231-33.103-59.981-63.9-59.981h-70.563c-6.1063 0.0078-11.052 4.9697-11.052 11.092v148.46h27.294c8.1678 0 14.791-6.6393 14.784-14.831v-24.472h33.839l27.443 39.303h45.542l-32.883-46.632zm-37.743-29.058h-40.251v-43.395h40.251c14.204 0 21.642 10.911 21.642 21.697 0 8.3795-5.879 21.697-21.642 21.697m-235.52-73.424v30.5h51.014v121.02h27.216c8.1679 0 14.791-6.6393 14.791-14.831v-106.19h38.433c6.9607-0.0078 12.589-5.6595 12.581-12.628v-25.938h-135.95c-4.4445 0-8.0581 3.6058-8.0816 8.0659m312.42-8.0973c-4.468 0-8.0895 3.6214-8.0895 8.0973v30.5h51.014v121.02h27.216c8.1757 0 14.799-6.6393 14.799-14.831v-106.19h38.433c6.9529-0.0078 12.581-5.6595 12.573-12.628v-25.938z" fill="#fff"/>
 <path d="m492.59 0h107.41v173.95c0.0161 5.9809-2.3516 11.727-6.5609 15.959-4.2172 4.2407-9.9394 6.6158-15.912 6.6158h-108.71v-172.69c0-13.161 10.645-23.837 23.775-23.837z" fill="#d1262e"/>
 <path d="m564.47 20.678v143.95c-0.016 7.4545-6.0514 13.482-13.482 13.467h-29.403v-100.18c-8e-3 -1.795-1.4658-3.2452-3.253-3.2452h-26.079c-1.5834 0-2.8768-1.2855-2.8768-2.8689v-12.409l45.205-41.521h27.012c1.5599-0.0078 2.8376 1.2385 2.8768 2.8062z" fill="#fff"/>
</svg>
