<svg width="800" height="125.55" version="1.1" viewBox="0 0 800 125.55" xml:space="preserve" xmlns="http://www.w3.org/2000/svg"><defs>
	
	
	
	
		<linearGradient id="path21_1_" x1="1330.1" x2="1330.1" y1="-69.11" y2="-340.91" gradientTransform="matrix(.46176 0 0 -.46176 -43.295 -31.912)" gradientUnits="userSpaceOnUse">
		<stop stop-color="#A6CC05" offset="0"/>
		<stop stop-color="#9AC704" offset=".3"/>
		<stop stop-color="#7CBC01" offset=".82"/>
		<stop stop-color="#70B700" offset="1"/>
	</linearGradient>
	
</defs>

<g fill="#fff" stroke-width=".46176"><path d="m177.92 3.6479h-53.38c-4.6176 0-8.3579 3.7403-8.3579 8.3579v112.12h20.641c6.1876 0 11.175-5.0332 11.175-11.175v-18.47h25.628l20.779 29.691h34.447l-24.889-35.232 2.9091-1.8009c11.636-7.2958 19.486-22.626 19.486-38.141-0.04618-31.169-25.12-45.345-48.439-45.345m0.41558 61.506h-30.569v-32.785h30.522c10.759 0 16.392 8.2655 16.392 16.392 0 6.3261-4.4329 16.392-16.346 16.392"/><path d="m38.603 124.12h20.595c6.1876 0 11.175-5.0332 11.221-11.175v-80.208h29.091c5.2641 0 9.5123-4.2482 9.5123-9.5123v-19.579h-102.93c-3.3709 0-6.0952 2.7244-6.0952 6.0952v22.996h38.603z"/><path d="m268.93 124.12h20.595c6.1876 0 11.175-5.0332 11.175-11.175v-80.208h29.091c5.2641 0 9.5123-4.2482 9.5123-9.5123v-19.579h-102.83c-3.3708 0-6.0952 2.7244-6.1414 6.0952v22.996h38.603z"/></g><path d="m408.89 49.224-20.271-3.6479c-9.5584-1.7547-14.222-3.8326-14.222-10.205 0-6.6032 7.9885-9.8817 16.993-9.8817 10.944 0 18.701 2.5859 29.83 7.4343 1.2929 0.64646 2.7244 1.0159 4.1558 1.062 2.5858 0 4.6638-1.57 6.2338-4.6638l7.2958-15.1c-12.329-8.1732-27.429-14.222-47.515-14.222-27.198 0-47.33 15.423-47.33 37.079 0 18.563 9.189 31.538 34.863 36.248 6.6032 1.2006 13.022 2.4473 19.579 3.6479 13.345 2.4473 16.3 6.2338 16.3 11.452 0 5.7258-5.2179 10.759-17.87 10.759-9.3737 0-18.701-2.2626-27.567-5.3564-7.2958-2.5859-11.775-6.2338-14.545-6.2338-1.8932 0-3.4632 0.69264-4.5253 2.9553l-8.4964 18.193c17.87 12.468 35.556 16.808 53.934 16.808 25.997 0 49.408-11.082 49.408-38.649 0-17.547-9.8817-32.97-36.248-37.68zm96.369-47.146h-46.268c-5.0332 0-7.8038 2.7706-7.8038 7.8038v113.55h21.657c5.0332 0 7.8038-2.7706 7.8038-7.8038v-22.026h24.612c28.444 0 48.023-18.378 48.023-45.437s-19.579-46.084-48.023-46.084zm-0.32324 65.339h-24.427v-39.157h24.427c10.39 0 18.701 7.9885 18.701 19.948s-8.3117 19.209-18.701 19.209zm269.02 18.563c14.915-6.0491 25.12-20.779 25.12-39.896 0-27.059-19.579-44.052-48.023-44.052h-49.732c-5.0332 0-7.8038 2.7706-7.8038 7.8038v113.55h19.579c5.2179 0 9.697-4.5252 9.697-10.066v-23.227h21.518l22.903 33.293h32.785zm-23.227-22.026h-27.89v-35.694h27.89c10.944 0 18.747 7.4343 18.747 17.87 0 10.436-7.8038 17.824-18.747 17.824zm-127.72-63.954c-37.079 0-63.631 26.505-63.631 62.753s26.505 62.753 63.631 62.753 63.631-26.505 63.631-62.753-26.551-62.753-63.631-62.753zm0 99.14c-19.948 0-34.17-16.485-34.17-36.387s14.222-36.387 34.17-36.387 34.17 16.485 34.17 36.387-14.268 36.387-34.17 36.387z" fill="url(#path21_1_)" stroke-width=".46176"/>
</svg>
