<svg width="931.66" height="82.455" enable-background="new" version="1.1" viewBox="0 0 931.66 82.455" xmlns="http://www.w3.org/2000/svg" xmlns:xlink="http://www.w3.org/1999/xlink">
 <defs>
  <path id="f" d="m107.88 12.218h-2.223v-4.838h-3.726v3.838a1 1 0 0 1-1 1h-2.223v-10.868a1 1 0 0 1 1-1h2.223v4.4h3.726v-3.4a1 1 0 0 1 1-1h2.223v10.868a1 1 0 0 1-1 1zm12.616-6.186c0 1.981-0.545 3.507-1.636 4.579-1.09 1.071-2.623 1.607-4.598 1.607h-3.84v-10.868a1 1 0 0 1 1-1h3.108c1.905 0 3.375 0.487 4.412 1.461 1.036 0.974 1.554 2.381 1.554 4.221zm-3.328 0.114c0-1.088-0.215-1.894-0.646-2.419-0.43-0.525-1.083-0.787-1.96-0.787h-0.933v6.648h0.714c0.974 0 1.688-0.283 2.143-0.848 0.455-0.566 0.682-1.43 0.682-2.594z"/>
  <radialGradient id="d-9" cx="564.84" cy="1331.2" r="85.067" fx="566.5" fy="1305.5" gradientUnits="userSpaceOnUse" xlink:href="#a-2"/>
  <linearGradient id="a-2">
   <stop stop-color="#d2de26" offset="0"/>
   <stop stop-color="#d2de26" offset=".4299"/>
   <stop stop-color="#d2de26" offset=".5"/>
   <stop stop-color="#cdd925" offset=".5841"/>
   <stop stop-color="#c4cf24" offset=".6737"/>
   <stop stop-color="#b5c121" offset=".7658"/>
   <stop stop-color="#a0ac1d" offset=".8597"/>
   <stop stop-color="#859015" offset=".9541"/>
   <stop stop-color="#778210" offset="1"/>
  </linearGradient>
  <radialGradient id="c-9" cx="598.45" cy="1404.2" r="108.24" gradientUnits="userSpaceOnUse" xlink:href="#a-2"/>
  <radialGradient id="b-6" cx="608.86" cy="1399.9" r="108.12" fx="606.92" fy="1401.1" gradientUnits="userSpaceOnUse" xlink:href="#a-2"/>
 </defs>
 <g transform="matrix(.79543 0 0 .79543 0 -1036.1)" fill="#595a5c">
  <path d="m121.45 1328.5h25.08c8.84 0 13.47 6.78 13.47 13.46 0 5.21-3.66 13.47-13.47 13.47h-25.08zm-19.11-23.63c-3.79 0-6.87 3.08-6.87 6.87v92.15h16.93c5.08 0 9.19-4.12 9.19-9.2v-15.19h21.06l17.07 24.39h28.33l-20.46-28.94 2.39-1.49c9.57-5.99 16.01-18.59 16.01-31.36 0-25.58-20.61-37.24-39.74-37.24h-43.91z"/>
  <path d="m5.03 1304.9c-2.77 0-5.03 2.25-5.03 5.03v18.9h31.73v75.09h16.93c5.08 0 9.19-4.12 9.19-9.2v-65.89h23.9c4.33 0 7.82-3.5 7.82-7.82v-16.1h-84.54z"/>
  <path d="m194.32 1304.9c-2.77 0-5.02 2.25-5.02 5.03v18.9h31.73v75.09h16.93c5.08 0 9.19-4.12 9.19-9.2v-65.89h23.9c4.33 0 7.82-3.5 7.82-7.82v-16.1h-84.55z"/>
 </g>
 <g transform="matrix(.79543 0 0 .79543 0 -1036.1)">
  <g fill="#d2de26">
   <path d="m352.14 1353.4c8.14 1.04 17.31 9.03 17.31 23.08 0 16.13-9.91 27.52-31.96 27.52h-48.98v-94.06c0-2.8 2.27-5.08 5.08-5.08h43.75c17.9 0 29.3 10.95 29.3 27.52 0 12.58-8.58 19.38-14.5 20.42zm-43.51-7.1h25.16c7.99 0 13.32-5.03 13.32-12.73 0-6.96-5.48-11.54-11.99-11.54h-26.49zm26.64 40.54c9.03 0 13.61-4.88 13.61-12.28 0-7.55-5.33-12.28-12.87-12.28h-27.37v24.56z"/>
   <path d="m444.61 1404h-67.47v-94.06c0-2.8 2.27-5.08 5.08-5.08h70.24v10.35c0 4.34-3.52 7.85-7.85 7.85h-47.34v22.34h50.61v10.05c0 4.34-3.52 7.85-7.85 7.85h-42.76v22.49h55.19v10.35c0 4.35-3.51 7.86-7.85 7.86z"/>
   <path d="m525.55 1404h-63.47v-94.06c0-2.8 2.27-5.08 5.08-5.08h15.05v80.94h51.2v10.35c-0.01 4.34-3.52 7.85-7.86 7.85z"/>
   <path d="m706.8 1404h-67.47v-93.46c0-3.14 2.55-5.69 5.69-5.69h69.63v10.35c0 4.34-3.52 7.85-7.85 7.85h-47.34v22.34h50.61v10.05c0 4.34-3.52 7.85-7.85 7.85h-42.76v22.49h55.19v10.35c0 4.36-3.51 7.87-7.85 7.87z"/>
   <path d="m799.89 1331.2-13.7 2.82c-3.31 0.68-6.61-0.98-8.14-3.99-3.19-6.25-9.94-10.08-17.82-10.08-10.06 0-16.13 5.62-16.13 12.28 0 5.03 2.22 8.58 9.91 10.06l21.31 4.29c16.13 3.4 26.04 13.02 26.04 28.41 0 19.24-15.83 31.22-39.36 31.22-20.72 0-38.92-9.62-41.43-29.45l14.82-3.01c3.39-0.69 6.72 1.06 8.29 4.14 3.77 7.41 11.01 10.7 20.25 10.7 11.54 0 17.61-5.47 17.61-12.58 0-5.62-2.66-9.03-11.54-10.8l-21.01-4c-11.84-2.52-26.04-9.02-26.04-28.41 0-17.76 14.5-30.19 37.73-30.19 20.12 0.03 35.36 10.98 39.21 28.59z"/>
   <path d="m877.71 1404h-67.47v-93.46c0-3.14 2.55-5.69 5.69-5.69h69.34v10.35c0 4.34-3.52 7.85-7.85 7.85h-47.05v22.34h50.61v10.05c0 4.34-3.52 7.85-7.85 7.85h-42.76v22.49h55.19v10.35c0 4.36-3.51 7.87-7.85 7.87z"/>
   <path d="m958.65 1404h-63.47v-93.46c0-3.14 2.55-5.69 5.69-5.69h14.44v80.94h51.2v10.35c-0.01 4.35-3.52 7.86-7.86 7.86z"/>
  </g>
  <path d="m582.22 1387.4c-16.76 0-30.07-11.67-32.44-27.84-0.16-1.71-0.25-3.43-0.25-5.18s0.09-3.49 0.26-5.2c1.88-19.48 14.22-35.9 31.34-43.59 2.26-1.02 4.61-1.88 7.03-2.58-2.35-0.26-4.72-0.4-7.11-0.4-2.32 0-4.6 0.16-6.84 0.44-25.82 3.25-45.24 24.66-45.24 51.35 0 26.71 19.38 47.94 45.39 51.31 2.35-0.69 4.63-1.53 6.83-2.52 14.97-6.72 26.27-20.12 30.14-36.41-4.05 12.7-14.86 20.62-29.11 20.62z" fill="url(#d-9)"/>
  <path d="m631.49 1346.2h-54.3v10.54c0 4.31 3.5 7.81 7.81 7.81h26.8c-0.15 0.78-0.31 1.55-0.5 2.31 0.24-0.76 0.46-1.52 0.65-2.31-0.19 0.79-0.41 1.56-0.65 2.31-3.86 16.29-15.17 29.69-30.14 36.41-2.2 0.99-4.48 1.83-6.83 2.52 2.38 0.31 4.81 0.48 7.29 0.48 2.28 0 4.49-0.15 6.66-0.41 25.77-3.08 43.65-23.93 43.65-51.09 0.01-2.36-0.14-5.17-0.44-8.57z" fill="url(#c-9)"/>
  <path d="m613.16 1334.6 15.13-3.12c-6.54-17.15-22.4-26.5-40.15-28.46-2.42 0.7-4.77 1.56-7.03 2.58-17.11 7.69-29.45 24.1-31.34 43.59 2.33-16 15.2-27.63 31.25-27.63 11.39 0 19.61 4.03 24.99 10.46 1.77 2.09 4.48 3.13 7.15 2.58z" fill="url(#b-6)"/>
 </g>
 <use transform="matrix(6.6394 0 0 6.6394 131.66 -1.3523)" width="100%" height="100%" fill="#595a5c" xlink:href="#f"/>
</svg>
