<svg width="800" height="161.82" space="preserve" version="1.1" viewBox="0 0 800 161.82" xmlns="http://www.w3.org/2000/svg">
 <link rel="stylesheet" type="text/css"/>
 <link rel="stylesheet" type="text/css"/>
 <style lang="en" type="text/css"/>
 <style lang="en" type="text/css"/>
 <style type="text/css">.st0{fill:#00B9CF;}
	.st1{fill:#FFFFFF;}</style>
 <path class="st0" d="m368.59 1.2914e-6h431.41v161.82h-431.41z" fill="#00b9cf" stroke-width="1.0702"/>
 <g stroke-width="1.0702">
  <path class="st1" d="m460.52 57.258 10.916-19.264s-19.478-14.02-43.559-8.99c-24.08 5.0301-25.15 29.753-25.15 29.753s-0.85619 10.702 6.5284 18.836c7.3846 8.1338 25.793 16.161 25.793 16.161s15.946 6.5284 11.559 15.732c-4.388 9.204-21.512 4.8161-21.512 4.8161s-8.3478-2.4615-18.836-10.702l-12.522 20.763s15.946 12.95 33.284 14.234c17.338 1.2843 29.11-3.5318 29.11-3.5318 9.204-4.495 16.054-12.843 18.408-22.796 3.8528-22.582-15.411-32.642-15.411-32.642l-19.05-9.204s-15.09-3.7458-11.987-14.448 25.365-2.5686 25.365-2.5686z"/>
  <path class="st1" d="m533.73 29.645h-48.589v106.81h24.508v-38.742h20.763s23.01-2.4615 29.11-25.793c6.1003-23.224-8.99-39.92-25.793-42.274zm-10.702 47.946h-13.806v-28.682h13.806s11.559 2.3545 11.559 14.341-11.559 14.341-11.559 14.341z"/>
  <path class="st1" d="m619.88 27.933c-29.645 0-53.619 24.722-53.619 55.117s23.973 55.117 53.619 55.117c29.645 0 53.619-24.722 53.619-55.117s-24.08-55.117-53.619-55.117zm0 87.117c-15.625 0-28.254-14.341-28.254-32s12.629-32 28.254-32 28.254 14.341 28.254 32-12.736 32-28.254 32z"/>
  <path class="st1" d="m734.82 92.468s14.662-3.1037 21.191-21.833c2.5686-7.2776 1.1773-14.662-1.2843-20.548-3.5318-8.7759-10.595-15.732-19.478-19.264-1.6054-0.74916-3.4248-1.1773-5.2442-1.1773h-46.341v106.81h24.829v-40.99l31.786 40.883h31.037zm-14.555-15.625h-12.522v-27.291h12.522s10.488 2.2475 10.488 13.592c0 11.344-10.488 13.699-10.488 13.699z"/>
 </g>
 <path d="m209.02 104.35c11.773-7.3846 19.692-22.903 19.692-38.528 0-31.465-25.365-45.806-48.91-45.806h-53.94c-4.709 0-8.4548 3.7458-8.4548 8.4548v113.34h20.87c6.2074 0 11.344-5.0301 11.344-11.344v-18.729h25.9l20.977 29.967h34.676l-25.151-35.532zm-28.896-22.154h-30.823v-33.07h30.823c10.916 0 16.589 8.3478 16.589 16.589 0 6.3144-4.495 16.482-16.589 16.482zm-180.12-55.973v23.224h39.064v92.361h20.87c6.2074 0 11.344-5.0301 11.344-11.344v-81.017h29.431c5.3512 0 9.6321-4.2809 9.6321-9.6321v-19.799h-104.13c-3.4247 0-6.2074 2.7826-6.2074 6.2074zm238.98-6.2074c-3.4247 0-6.2074 2.7826-6.2074 6.2074v23.224h39.064v92.361h20.87c6.2074 0 11.344-5.0301 11.344-11.344v-81.017h29.431c5.3512 0 9.6321-4.2809 9.6321-9.6321v-19.799z" stroke-width="1.0702"/>
</svg>
