<svg width="225pt" height="227.25pt" version="1.1" viewBox="0 0 225 227.25" xmlns="http://www.w3.org/2000/svg">
 <defs>
  <radialGradient id="a" cx="367.37" cy="-595.69" r="229.03" gradientTransform="matrix(-1.233 0 0 -1.8263 791.7 -1072.8)" gradientUnits="userSpaceOnUse">
   <stop stop-color="#f5f5f5" offset="0"/>
   <stop stop-color="#bfbfbf" offset=".5729"/>
   <stop stop-color="#8a8a8a" offset=".78983"/>
   <stop stop-color="#8a8a8a" offset="1"/>
  </radialGradient>
  <radialGradient id="b" cx="336.75" cy="140.42" r="206.41" gradientTransform="matrix(.5068 0 0 .52965 167.04 62.034)" gradientUnits="userSpaceOnUse">
   <stop stop-color="#fefefe" offset="0"/>
   <stop stop-color="#af8788" offset=".39108"/>
   <stop stop-color="#9d6d6d" offset=".46767"/>
   <stop stop-color="#894e4d" offset=".63313"/>
   <stop stop-color="#500" offset="1"/>
  </radialGradient>
 </defs>
 <g transform="matrix(1.1547 0 0 1.1547 118.96 -677.46)" fill="#949494" stroke-width="1px" aria-label="türkshow">
  <path d="m-87.939 768.3 0.16-5.24h-4.48l0.2-5.24-7.28 1.64-0.24 3.6h-3.24l-0.2 5.24h3c-0.12 3.56-0.56 6.72-0.56 9.88 0 4.28 2.56 5.32 6.4 5.32 1.76 0 3.52-0.2 5.24-0.64l1-5.52c-0.92 0.24-1.84 0.44-2.8 0.44-1.68 0-2-1.24-2-2.76 0-2.64 0.16-4.48 0.28-6.72z"/>
  <path d="m-70.592 783.02h7.36c0.16-6.64 0.48-13.32 1.12-19.96h-7.76c-0.12 3.96-0.2 8.56-0.72 10.8-0.4 1.8-1.52 3.4-3.56 3.4-2.2 0-2.84-1.64-2.84-3.56 0-3.52 0.56-7.08 0.72-10.64h-7.84c0 3.96-0.72 13.08-0.72 14.36 0 3.36 1.6 6.08 7.16 6.08 2.88 0 5.36-0.72 7-3.12l0.08 0.08zm-1.44-24.2h5.32l0.16-3.96h-5.24zm-7.6 0h5.32l0.16-3.96h-5.24z"/>
  <path d="m-50.389 763.06h-7.4c0 8.96-0.36 14.48-0.8 19.96h7.72c0-4.92 0.04-8.36 0.52-10.4 0.56-2.32 2.32-3.8 4.72-3.8 0.68 0 1.4 0.2 2.08 0.4l-0.24-6.44c-0.52-0.16-1.08-0.2-1.6-0.2-1.96 0-3.72 1.12-5 2.56l-0.08 0.08z"/>
  <path d="m-33.524 783.02c0.08-11.4 0.56-18.48 1.2-26.68h-7.84c-0.04 9.28-0.4 18.44-1.16 26.68zm15.12 0c-2.2-3.68-4.48-7.36-6.6-11.12l6.68-8.84h-8.48l-6 8.76c2 3.76 4.24 7.36 6.04 11.2z"/>
  <path d="m-0.24555 763.26c-2.28-0.36-4.6-0.68-6.88-0.68-5.64 0-8.08 2.36-8.08 5.68 0 4.68 6.96 6.92 6.96 8.8 0 1.16-1.72 1.2-2.6 1.2-1.96 0-3.96-0.72-5.8-1.44l0.6 5.8c2.32 0.48 4.68 0.88 7.08 0.88 3.56 0 8.56-1.36 8.56-5.76 0-5.16-6.96-6.76-6.96-8.92 0-1 1.8-1 2.76-1 1.76 0 3.28 0.36 4.68 0.92z"/>
  <path d="m4.8801 756.34c0 9.68-0.8 21.68-1.36 26.68h7.96c0.16-4.28 0.32-8.8 1-10.92 0.56-1.88 1.92-3.28 3.96-3.28 2.32 0 2.92 1.8 2.92 3.76 0 3.48-0.36 6.96-0.6 10.44h7.88c0-5 0.56-13 0.56-14.08 0-4.88-3.4-6.36-7.32-6.36-3.84 0-5.88 0.68-7.68 3.28l-0.08-0.08c0.12-2.76 0.56-7.96 0.72-9.44z"/>
  <path d="m42.54 762.58c-6.68 0-12.08 3.88-12.08 10.92 0 3.12 1.8 10 11.72 10 6.72 0 11.88-3.76 11.88-10.84 0-6.72-5.28-10.08-11.52-10.08zm-0.04 5.6c2.6 0 3.72 2.04 3.72 4.4 0 2.52-1.16 5.32-4.16 5.32-2.64 0-3.76-2.2-3.76-4.48 0-2.6 1.24-5.24 4.2-5.24z"/>
  <path d="m75.996 783.02h7.4c2.68-6.72 5.6-13.32 8.44-19.96h-7.24l-4.16 12.16h-0.08l-2.96-12.16h-7.48l-4.12 12.16h-0.08l-3.2-12.16h-7.28c2.4 6.6 4.48 13.28 6.6 19.96h7.16c1.44-3.92 2.92-7.8 4.12-11.72h0.08z"/>
 </g>
 <g transform="matrix(.40606 0 0 .40606 .58667 0)">
  <path d="m504.64 229.03a229.03 229.03 0 0 1-229.03 229.03 229.03 229.03 0 0 1-229.03-229.03 229.03 229.03 0 0 1 229.03-229.03 229.03 229.03 0 0 1 229.03 229.03z" fill="url(#a)" style="paint-order:stroke fill markers"/>
  <g transform="translate(-1.3699 -.99772)">
   <path d="m208.17 28.26c8.0598-2.4416 18.59-5.2759 23.363 1.2336 4.5505 6.7155-0.52628 15.185-6.1232 19.406-34.51 26.36-58.28 66.32-65.15 109.19-5.26 32.45-1.57 66.32 11.18 96.67 8.85 20.05 20.42 39.18 35.99 54.75 23.27 23.87 53.77 40.71 86.48 47.27 19.72 4.15 39.89 6.2 60.05 5.77 20.47 0.38 41.13-1.35 60.89-6.97 16.724-4.4811 26.16-12.105 37.61-20.12-7.398 12.89-10.523 16.637-16.412 24.005-17.088 21.347-37.852 39.957-62.168 52.645-15.71 8.46-32.69 14.48-50.14 18.15-17.58 4.31-35.82 4.76-53.82 4.01-26.72-1.41-52.83-9.01-77.14-19.96-16.32-8.01-32.02-17.48-45.92-29.25-16.78-14.28-31.91-30.69-43.59-49.44-11.13-17.93-19.84-37.42-25.29-57.82-4.6055-18.45-7.2393-35.8-7.4101-53.477-0.19933-27.91 6.3653-55.786 16.86-81.583 21.96-52.74 66.94-95.31 120.74-114.48z" fill="#500"/>
   <path d="m340.78 33.15c21.41 4.73 41.16 15.29 58.42 28.62 19.75 15.52 36.69 34.36 51.41 54.65 11.326 16.577 18.357 32.375 23.37 49.78 6.39 21.31 9.45 43.58 9.38 65.81 0.3 16.52-1.39 33.08-5.1 49.19-2.4216 10.173-6.6748 19.77-11.074 29.229-1.4294 3.2261-3.2038 6.5784-5.2458 9.0806 0.94464-5.3715 1.0784-6.6346 1.4848-9.8729 1.884-15.181-3.7397-30.523-12.045-43.097-13.16-19.33-32.63-34.29-54.63-42.2-11-4.12-21.98-8.32-33.1-12.1-25.06-8.7-50.79-15.18-76.53-21.49-18.02-4.44-36.65-8.87-52.03-19.79-14.11-9.26-24.78-24.27-27.09-41.17-1.32-10.65-1.03-22.02 3.99-31.75 4.5862-9.5884 10.08-17.31 15.8-25.53 12.69-16.07 29.65-28.95 48.94-36 20.38-7.59 42.94-8.03 64.05-3.36z" fill="url(#b)"/>
  </g>
 </g>
</svg>
