<svg version="1.1" viewBox="0 0 570.94 134.43" xmlns="http://www.w3.org/2000/svg">
 <g transform="translate(457.84 -109.48)">
  <path d="m-420.08 228.69c-19.93 0-27.962-14.233-27.962-26.623v-42.356h-9.8038v-21.087h9.8038v-22.275h27.459v22.275h10.368l6.8244 21.087h-17.192v40.353c0 3.5129 1.842 5.526 5.526 5.526h11.918v23.1z" fill="#1a1a1a"/>
  <path d="m-348.93 228.69h-20.926l-33.146-90.066h28.798l14.897 46.704 14.736-46.704h28.798z" fill="#1a1a1a"/>
  <path d="m-256.52 162.38c-10.217 0-11.384 8.2034-11.384 21.258 0 13.065 1.1676 21.268 11.384 21.268s11.384-8.2034 11.384-21.268c0-13.055-1.1676-21.258-11.384-21.258m30.468 59.105c-5.1838 5.1838-13.226 8.2034-21.933 8.2034-9.371 0-15.239-2.8486-20.755-8.3745v7.368h-26.623v-119.21h27.459v35.662c5.0227-5.0227 11.213-7.529 20.091-7.529 8.7067 0 16.578 3.0096 21.762 8.2034 8.8778 8.8677 8.3745 24.61 8.3745 37.826 0 13.236 0.50327 28.969-8.3745 37.846" fill="#ba302d"/>
  <path d="m-159.27 167.24c-1.6709-3.8551-5.3549-7.0358-11.887-7.0358-6.5225 0-10.206 3.1807-11.887 7.0358-1.1676 2.3352-1.5098 4.8516-1.5098 7.0257h26.794c0-2.1742-0.34223-4.6905-1.5098-7.0257m-25.285 25.275c0 7.368 5.6971 14.062 15.914 14.062 9.5421 0 13.719-2.6774 18.581-7.529l16.407 16.407c-9.21 9.21-18.249 14.233-34.988 14.233-19.93 0-42.869-7.1969-42.869-46.04 0-29.462 16.749-46.04 40.353-46.04 26.12 0 40.514 19.084 40.514 42.688v12.22z" fill="#ba302d"/>
  <path d="m-75.558 167.08c-2.6875-2.6774-5.1938-4.6905-9.8743-4.6905-3.684 0-11.052 2.1842-11.052 12.391v53.911h-27.459v-90.076h26.784v7.368c4.0161-4.0161 11.887-8.3745 21.258-8.3745 8.8778 0 14.907 2.1742 21.097 8.3745z" fill="#ba302d"/>
  <path d="m-23.998 228.69c-19.92 0-27.962-14.233-27.962-26.623v-92.583h27.449v90.58c0 3.5129 1.8621 5.526 5.536 5.526h9.5421v23.1z" fill="#ba302d"/>
  <path d="m-1.4027 138.62h27.459v90.066h-27.459zm0-8.2135-0.10066-20.926h27.459l0.10066 20.926z" fill="#ba302d"/>
  <path d="m85.637 228.69v-53.911c0-10.378-7.368-12.391-11.052-12.391s-11.052 2.0131-11.052 12.391v53.911h-27.459v-90.066h26.794v7.368c5.526-5.536 13.729-8.3846 20.926-8.3846 8.5356 0 15.4 2.8485 20.252 7.7001 7.7102 7.7102 9.0489 16.246 9.0489 25.788v57.595z" fill="#ba302d"/>
  <path d="m-335.27 213.77h30.136v30.136h-30.136z" fill="#ba302d"/>
 </g>
</svg>
