<svg width="800" height="163.78" version="1.1" viewBox="0 0 640 131.03" xmlns="http://www.w3.org/2000/svg">
 <g transform="translate(-.0010369 2.1456e-5)" fill="#fff">
  <path d="m135.7 5.4094v123.09h62.101c27.863 0 43.34-12.858 43.34-33.659 0-17.023-9.2948-26.618-25.094-30.61 9.9602-4.8728 15.799-13.373 15.799-25.308 0-22.99-15.305-33.508-41.966-33.508zm33.015 26.253h16.357c8.5864 0 12.901 3.7995 12.901 10.69 0 6.8691-4.4864 10.475-13.073 10.475h-16.185zm0 47.976h23.398c9.2948 0 13.931 3.9712 13.931 11.205 0 6.8691-4.2932 11.034-13.223 11.034h-24.106z"/>
  <path d="m246.64 72.104c-0.21466 1.0304-0.55812 3.6707-0.55812 5.9675v50.424h33.015v-47.934c0-2.8979 0.70838-5.4524 1.1592-6.4398 2.8335-5.9461 8.7581-10.068 16.55-10.068 5.8602 0 11.377 1.6314 15.498 3.6278l8.4147-30.761c-9.8529-2.4901-18.439-3.5848-25.888-3.6063-34.26 0-44.907 23.054-48.191 38.789"/>
  <path d="m317.54 81.42c0 28.421 15.477 49.608 49.372 49.608 12.021 0 23.14-2.9838 31.856-8.0498l-13.974-21.037c-2.211 0.85864-5.989 1.9534-12.064 2.2539-1.0518 0.10733-2.0822 0.0429-3.0911 0.0429-12.193 0-18.74-6.6974-20.285-15.584h56.692s0.0644-11.57 0.0644-17.903c0-21.359-13.416-39.454-40.742-39.454-28.915 0-47.826 21.359-47.826 50.123m48.148-25.33c9.123 0 13.609 4.7225 13.609 12.128v1.6314h-29.43c1.2021-7.9424 6.8691-13.76 15.82-13.76"/>
  <path d="m2.444 5.4094c-1.3524 0-2.4471 1.0948-2.4471 2.4686v118.04c0 1.3738 1.0948 2.4686 2.4471 2.4686h118.06c1.3524 0 2.4471-1.0948 2.4471-2.4686v-118.04c0-1.3738-1.0948-2.4686-2.4471-2.4686zm85.885 39.369h15.52l-14.854 48.814h-17.946l-11.098-36.32h-12.321v36.32h-14.361v-36.32h-10.475v-12.493h48.814l8.4147 31.534z"/>
  <path d="m415.41 33.852-0.0215 0.04293v94.601h33.015l0.0215-0.0644v-94.579z"/>
  <path d="m459.07 33.852v26.961h33.873l-33.873 43.791v23.892h74.981v-26.983h-33.358l33.358-43.791v-23.87z"/>
  <path d="m545.75-2.1456e-5v128.5h33.036v-56.649c2.3827-3.6278 7.2126-7.7922 14.962-7.7922 8.5864 0 13.223 5.2377 13.223 15.928v48.513h33.036v-54.481c0-23.162-11.677-41.816-35.913-41.816-11.334 0-19.942 3.0696-25.308 7.9209v-40.12z"/>
 </g>
</svg>
