<svg version="1.1" viewBox="0 0 800 729.96" viewbox="0 0 336 189" xmlns="http://www.w3.org/2000/svg">
 <defs>
  <radialGradient id="a" cx="160.42" cy="99.474" r="40.909" gradientTransform="matrix(9.3599 0 0 8.5404 -1101.5 -484.59)" gradientUnits="userSpaceOnUse">
   <stop stop-color="#C1DBCD" offset="0"/>
   <stop stop-color="#E2EEED" offset="1"/>
  </radialGradient>
 </defs>
 <path d="m713.36 542.94c0.13411 0 0.13411 0 0 0 54.27-57.122 86.636-129.48 86.636-208.1 0.14306-184.97-178.98-334.85-400-334.85s-400 149.88-400 334.85c0 184.98 179.12 334.86 400.01 334.86 51.678 0 101.05-8.1629 146.48-23.121 31.141-9.3878 56.032-5.7131 75.487 9.5219l91.526 73.851-22.575-104.45c-8.8424-39.447 6.938-65.008 16.451-76.166 1.9133-2.1726 4.0859-4.2111 5.9903-6.3926z" fill="url(#a)" stroke-width="8.9407"/>
 <path d="m32.777 230.4 35.092 29.916c81.2-82.013 153.42-140.36 333.9-140.36 185.65 2.9952 263.04 61.888 327.1 119l9.2537-56.845c-88.406-91.258-200.21-143.21-338.12-143.21-150.7 0-290.51 86.502-367.22 191.5z" fill="#e2efee" stroke-width="8.9407"/>
 <path d="m467.33 267.52c-14.564 0-23.264 4.8995-27.895 17.274l-32.634 94.799a497.06 497.06 0 0 1-3.6746 10.881h-0.53645s-0.14305-0.26822-3.9518-10.881l-32.634-94.799c-4.6313-12.374-11.569-17.274-26.393-17.274h-78.884v-47.735h-49.916v47.744h-23.666v40.662h22.441v66.787c0 68.808 49.916 73.162 78.473 73.162 9.2537 0 15.646-1.2249 15.646-1.2249v-44.614s-3.6657 0.82254-9.2537 0.82254c-14.144 0-33.859-0.67949-33.859-34.547v-60.386h50.184c4.8995 0 10.747-0.26822 12.517 4.2111l51.678 135.74h35.763c13.205 0 22.996-10.604 28.977-22.844l40.403-107.46c1.7703-4.6224 4.8995-9.656 9.7901-9.656h16.594v-40.671h-39.16z" fill="#0e9066" stroke-width="8.9407"/>
 <path d="m520.1 265.35c0-4.7565-2.5928-7.6175-7.0721-7.6175h-12.785v-40.654h41.342c14.958 0 21.762 6.6608 21.762 21.762v163.75c0 4.4882 2.5928 8.4311 7.0721 8.4311h12.785v37.265h-41.342c-15.378 0-21.762-6.3837-21.762-21.753z" fill="#0e9066" stroke-width="8.9407"/>
</svg>
