<svg version="1.1" viewBox="0 0 661.64 226.68" xml:space="preserve" xmlns="http://www.w3.org/2000/svg"><g transform="matrix(1.3333 0 0 -1.3333 -41.483 695.31)"><g transform="translate(227.88 507.2)"><path d="m0 0c0 7.856 6.188 14.287 14.282 14.287 8.099 0 14.525-6.431 14.525-14.287v-140.62c0-8.094-6.426-14.282-14.525-14.282-7.856 0-14.282 6.188-14.282 14.282z" fill="#45bd6f"/></g><g transform="translate(384.18 368.08)"><path d="m0 0c0-7.856-6.426-14.282-14.524-14.282-7.857 0-14.52 6.188-14.52 14.282v6.43c-8.099-11.905-19.762-22.143-39.287-22.143-28.331 0-44.757 19.045-44.757 48.331v66.901c0 8.098 6.426 14.524 14.282 14.524 8.094 0 14.525-6.426 14.525-14.524v-58.331c0-19.52 9.762-30.475 26.905-30.475 16.664 0 28.332 11.43 28.332 30.955v57.851c0 8.098 6.426 14.524 14.52 14.524 7.856 0 14.524-6.426 14.524-14.524z" fill="#45bd6f"/></g><g transform="translate(513.26 352.5)"><path d="m0 0c-35.5 0-64.382 28.882-64.382 64.382 0 35.501 28.882 64.383 64.382 64.383 7.777 0 14.082-6.305 14.082-14.082 0-7.778-6.305-14.082-14.082-14.082-19.971 0-36.218-16.248-36.218-36.219 0-19.97 16.247-36.218 36.218-36.218 7.777 0 14.082-6.305 14.082-14.082 0-7.778-6.305-14.082-14.082-14.082" fill="#0f8cd2"/></g><g transform="translate(412.66 481.26)"><path d="m0 0c-7.778 0-14.082-6.305-14.082-14.082s6.304-14.082 14.082-14.082c19.971 0 36.219-16.248 36.219-36.218 0 15.149 5.293 29.067 14.082 40.076-11.807 14.788-29.95 24.306-50.301 24.306" fill="#45bd6f"/></g><g transform="translate(448.88 416.88)"><path d="m0 0c0-19.971-16.249-36.219-36.219-36.219-7.778 0-14.082-6.304-14.082-14.082 0-7.777 6.304-14.081 14.082-14.081 20.351 0 38.494 9.517 50.301 24.305-8.789 11.009-14.082 24.927-14.082 40.077" fill="#45bd6f"/></g><g transform="translate(200.01 475.62)"><path d="m0 0c-7.303 0-10.955-4.793-13.009-9.585l-31.492-80.329-31.036 79.874c-1.026 2.564-2.403 4.821-4.26 6.562-0.018 0.017-0.036 0.034-0.053 0.051-0.411 0.381-0.85 0.73-1.312 1.054-0.267 0.195-0.534 0.384-0.817 0.557-0.189 0.11-0.388 0.207-0.584 0.309-1.732 0.932-3.687 1.507-5.786 1.507h-36.5v32.171c0 7.531-6.162 13.691-13.694 13.691-7.759 0-13.921-6.16-13.921-13.691v-32.171h-4.564c-6.618 0-11.866-5.247-11.866-11.867 0-6.616 5.248-11.867 11.866-11.867h4.564v-64.811c0-26.472 14.379-35.373 34.689-35.373 7.302 0 13.007 1.142 18.94 3.196 3.881 1.597 7.305 5.705 7.305 10.725 0 6.39-5.478 11.41-11.64 11.41-0.913 0-3.651-0.685-6.847-0.685-9.356 0-14.832 4.338-14.832 15.063v60.475h25.119l38.57-88.317c3.194-7.301 8.216-12.094 15.746-12.094h1.369c7.531 0 12.551 5.02 15.748 12.094l40.164 92.198c0.685 1.37 1.598 4.108 1.598 6.617 0 7.531-5.934 13.236-13.465 13.236" fill="#0f8cd2"/></g></g></svg>
