<svg width="800" height="557.95" version="1.1" viewBox="0 0 800 557.95" xml:space="preserve" xmlns="http://www.w3.org/2000/svg">
<path class="st1" d="m674.57 455.55h-204.65c-68.981 0-125.43-56.453-125.43-125.46v-204.62c0-69.011 56.453-125.46 125.43-125.46h204.65c68.981 0 125.43 56.453 125.43 125.46v204.65c0 68.981-56.453 125.43-125.43 125.43" fill="#79b829" stroke-width="3.0189"/><path class="st2" d="m379.32 336.78c-2.3245 4.2868-7.7887 6.2189-15.97 6.2189l-18.264 0.0906s0.90566 9.1774 1.6 12.438c0.69434 3.2604 3.9245 13.645 3.9245 13.645l104.69-0.0604v-26.113h-9.751c-16.755 0-18.325-2.3245-18.717-30.792v-39.366c0-24.543 0.78491-28.83 7.7887-38.974 7.3962-11.291 19.109-17.54 32.332-17.54 10.898 0 21.434 5.0717 26.113 12.86 4.2868 7.0038 5.0717 12.075 5.0717 32.725v50.264c-0.39245 22.581 0 20.257-2.717 24.543-2.3245 4.2868-7.7887 6.2189-15.97 6.2189h-9.7509v26.113h100.17v-26.113h-9.7509c-8.1811 0-13.645-1.9623-15.97-6.2189-2.717-4.6792-2.3245-1.5698-2.717-24.543v-39.366c0-37.796 13.253-56.121 40.906-56.121 10.898 0 22.219 5.4642 26.506 13.253 3.8943 6.2491 3.8943 7.3962 3.8943 31.97v50.264c-0.39245 22.581 0 20.257-2.717 24.543-2.3245 4.2868-7.7887 6.2189-15.97 6.2189h-9.751v26.113h112.63v-26.113h-20.649c-8.1811 0-13.645-1.9623-15.97-6.2189-2.717-4.6792-2.3245-1.9623-2.717-24.543v-57.691c0-28.83-1.5698-36.619-8.966-47.155-10.143-14.038-28.075-21.826-49.479-21.826-24.936 0-40.936 10.506-54.551 35.442-14.43-26.898-28.438-35.442-56.513-35.442-27.653 0-45.585 11.683-61.192 40.513v-35.079l-82.294 0.0906-0.15094 26.143 18.928-0.0906c8.5736 0 13.645 1.9623 15.97 6.2491 2.717 4.6792 2.3547 1.5698 2.717 24.543v64.302c-0.39245 22.642-0.0302 20.317-2.7472 24.604" fill="#fff" stroke-width="3.0189"/><g fill="#2d2e2c" stroke-width="3.0189"><path class="st0" d="m227.14 331.71 29.555-89.057c1.9321-7.0038 3.5019-13.223 3.5019-16.725 0-6.6113-3.1094-8.5434-14.008-8.5434h-13.615v-26.053h90.989v26.053h-7.7887c-15.155 0-16.725 1.5698-27.623 33.057l-41.6 118.58h-52.468l-43.532-118.58c-10.898-31.487-12.438-33.057-29.162-33.057h-46.008v90.596c0 20.589 0 19.049 1.1774 23.728 1.5698 6.6113 6.6113 10.506 14.008 10.506 14.4 0 15.94-5.434 15.94-55.215h27.23c0.7849 13.223 0.7849 19.049 0.7849 25.268 0 41.992-16.332 62.219-50.174 62.219-21.766 0-38.883-8.5434-47.426-23.728-5.4642-10.506-6.2189-14.792-6.2189-42.777v-90.596h-30.702v-26.053h12.468c15.155 0 16.725-1.5396 27.623-33.057l4.5585-12.981h30.732v46.038h140.11v26.053h-8.9358c-9.3283 0-13.223 2.3245-12.83 8.5434 0.39246 4.2868 1.5396 9.7208 3.8943 16.725z"/><path class="st0" d="m51.442 557.55h8.5434v-56.242h17.57l2.4151-7.0038h-46.762v7.0038h18.234zm55.396 0.39246h6.5208l25.358-63.638h-9.2076l-14.309 37.042c-2.2038 5.5547-3.6528 9.9019-4.8906 13.645h-0.18113c-1.3585-3.9245-2.8679-8.2415-4.8906-13.434l-14.4-37.253h-9.2075zm62.581-0.39246h8.5434v-39.275c0-2.6868 0-6.8226-0.18113-9.6h0.18113c1.2377 2.4151 2.9887 4.8906 4.317 6.8226l16.03 23.698h4.2264l14.581-23.245c1.2377-1.8113 3.2604-5.1019 4.4981-7.4868h0.0906c-0.0906 3.1698-0.0906 7.0038-0.0906 9.9925v39.064h8.5434v-63.275h-7.9698l-16.121 25.358c-2.4151 3.834-4.1358 6.7321-5.5547 9.2075h-0.18114c-1.5396-2.5962-3.1698-4.9811-5.6755-8.8453l-17.389-25.721h-7.8792v63.306zm76.891 0h8.5434v-63.275h-8.5434zm36.589 0h8.5434v-56.242h17.57l2.4151-7.0038h-46.762v7.0038h18.234zm48.875 0h8.5434v-56.242h17.57l2.3849-7.0038h-46.762v7.0038h18.234v56.242zm36.951 0h32.362v-7.0038h-23.819v-21.796h20.649v-7.0943h-20.649v-20.347h20.921l2.5057-7.0038h-31.97zm45.977 0h31.668v-7.0038h-23.125v-56.242h-8.5434zm41.842 0h8.5434v-26.204h6.5208c1.8113 0.48302 4.2264 3.3509 7.2151 8.634l10.355 17.57h9.9925l-11.23-18.808c-3.3509-5.6755-5.766-9.117-7.6679-10.174v-0.18113c7.8792-2.4151 12.679-7.8792 12.679-16.604 0-5.766-2.3849-11.23-8.0604-14.4-3.2604-1.9321-7.5774-3.0792-14.008-3.0792h-14.309v63.245zm8.5434-33.208v-23.034h5.766c4.4981 0 7.3057 1.1472 9.2075 2.5962 2.6868 2.0226 4.0453 5.1019 4.0453 8.7245 0 4.6189-2.0226 7.9698-5.1925 9.6906-2.2943 1.3585-4.8 2.0226-8.1509 2.0226zm44.86 33.208h8.5434v-28.709h33.509v28.709h8.4528v-63.275h-8.4528v27.26h-33.509v-27.26h-8.5434zm66.596 0h32.362v-7.0038h-23.819v-21.796h20.649v-7.0943h-20.649v-20.347h20.921l2.5057-7.0038h-31.97zm46.008 0h8.5434v-63.275h-8.5434zm24.664 0h8.5434v-39.547c0-4.4981-0.0906-7.5774-0.30189-10.566h0.18113c2.2038 3.1698 4.8 6.8226 8.3623 11.411l29.675 38.672h7.4868v-63.275h-8.5434v38.008c0 4.4981 0 7.5774 0.18113 11.049h-0.18113c-2.1132-3.1698-4.8-7.0038-8.5434-11.804l-28.619-37.253h-8.2415z"/></g>
</svg>
