<svg version="1.1" viewBox="0 0 509.44 290.09" xmlns="http://www.w3.org/2000/svg">
 <g transform="translate(-150.99 -335.89)">
  <path d="m295.64 504.11 18.819-56.71c1.2381-4.4532 2.2286-8.4112 2.2286-10.644 0-4.2096-1.981-5.4517-8.9104-5.4517h-8.6668v-16.587h57.94v16.587h-4.9525c-9.6613 0-10.644 0.99449-17.581 21.052l-26.492 75.521h-33.433l-27.73-75.521c-6.9374-20.058-7.928-21.052-18.572-21.052h-29.287v57.7c0 13.124 0 12.134 0.74287 15.105 0.9865 4.2056 4.2096 6.6818 8.9064 6.6818 9.1661 0 10.157-3.4627 10.157-35.163h17.334c0.49524 8.4232 0.49524 12.134 0.49524 16.1 0 26.743-10.4 39.62-31.943 39.62-13.867 0-24.758-5.4517-30.21-15.105-3.4667-6.6898-3.962-9.4177-3.962-27.239v-57.7h-19.526v-16.587h7.9479c9.6573 0 10.648-0.99049 17.577-21.052l2.9036-8.2714h19.578v29.323h89.208v16.587h-5.6953c-5.943 0-8.4192 1.4897-8.1716 5.4517 0.24762 2.7199 0.99049 6.1906 2.4762 10.644z" fill="#9c9e9f"/>
  <path d="m636.72 389.86v-25.605h-4.5491v19.375l-8.2594-19.375h-6.0188v25.605h4.5491v-19.367l8.2195 19.367zm-28.285-25.605h-5.0723v25.605h5.0723zm-13.539 25.605v-3.922h-9.3138v-7.3049h8.4072v-3.922h-8.4072v-6.566h8.8426v-3.93h-13.839v25.645zm-23.612 0v-25.605h-5.0683v10.38h-7.1531v-10.38h-5.0603v25.605h5.0603v-11.147h7.1531v11.147zm-31.221-18.196c0 1.949-1.322 3.5985-3.7782 3.5985h-2.2765v-7.233h2.2366c2.4243 0 3.8182 1.322 3.8182 3.6345m6.2385 18.196-2.9795-9.1301c-0.80278-2.4962-1.6136-3.2311-3.1113-3.5945 3.0034-0.77482 4.9884-2.8636 4.9884-6.0947 0-3.5626-1.7933-6.7857-7.7043-6.7857h-8.4032v25.605h5.0643v-10.784h0.91461c1.7653 0 2.7878 0.55116 3.4867 2.8277l2.4203 7.9559zm-24.651 0v-3.9979h-8.4472v-21.607h-5.0563v25.605zm-21.867 0v-3.922h-9.3178v-7.3049h8.4072v-3.922h-8.4072v-6.566h8.8426v-3.93h-13.831v25.645zm-21.791-21.607v-3.9979h-16.471v3.9979h5.6834v21.607h5.1002v-21.607zm-22.05 0v-3.9979h-16.479v3.9979h5.6874v21.607h5.1002v-21.607zm-24.143-3.9979h-5.0603v25.605h5.0603zm-14.378 25.605v-25.605h-7.3728l-5.1402 18.196-4.9884-18.196h-7.5925v25.605h4.5491v-20.764l6.1546 20.764h3.311l6.3823-20.764 0.0719 20.764h4.625zm-47.076-19.075c0-19.279 15.624-34.899 34.899-34.899h220.29c19.283 0 34.903 15.62 34.903 34.899v220.3c0 19.275-15.62 34.895-34.903 34.895h-220.29c-19.275 0-34.899-15.62-34.899-34.895v-63.204h71.563v-16.595h-6.1906c-10.644 0-11.642-1.4818-11.882-19.554v-25.014c0-15.6 0.48726-18.324 4.9525-24.762 4.6969-7.1771 12.13-11.143 20.545-11.143 6.9335 0 13.623 3.2231 16.599 8.1796 2.7199 4.4532 3.2151 7.6723 3.2151 20.796v31.943c-0.25178 14.362 0 12.872-1.7374 15.596-1.4778 2.7238-4.9525 3.958-10.153 3.958h-6.1826v16.595h63.639v-16.595h-6.1946c-5.2041 0-8.6628-1.2341-10.157-3.958-1.7334-2.9755-1.4857-0.9905-1.7334-15.596v-25.014c0-24.015 8.4232-35.658 26.008-35.658 6.9295 0 14.115 3.4667 16.834 8.4192 2.4762 3.966 2.4762 4.7048 2.4762 20.309v31.943c-0.24762 14.362 0 12.872-1.7334 15.596-1.4897 2.7238-4.9565 3.958-10.157 3.958h-6.1946v16.595h71.571v-16.595h-13.128c-5.1961 0-8.6708-1.2341-10.153-3.958-1.7334-2.9755-1.4857-1.2341-1.7334-15.596v-36.652c0-18.32-0.9865-23.277-5.6874-29.962-6.4462-8.9144-17.837-13.863-31.452-13.863-15.852 0-26 6.6818-34.663 22.534-9.174-17.09-18.085-22.534-35.913-22.534-17.585 0-28.968 7.4247-38.869 25.749v-22.286h-53.491zm0 140.5v-79.978h13.12c5.4477 0 8.6668 1.2421 10.157 3.966 1.7294 2.9675 1.4818 0.9905 1.7294 15.6v40.858c-0.24762 14.362 0 12.872-1.7294 15.596-1.4897 2.7238-4.9485 3.958-10.157 3.958z" fill="#97bf0d"/>
 </g>
</svg>
