<svg width="948.43pt" height="251.04pt" version="1.1" viewBox="0 0 948.43 251.04" xmlns="http://www.w3.org/2000/svg">
 <g transform="translate(-55,-259.96)">
  <path d="m420.33 321.23h292.11l-49.67 184.24h-295.99l53.55-184.24" fill="#d1d3d4"/>
 </g>
 <path d="m369.43 116.34h9.35l4.78 18.805 15.74-18.805h9.81l-13.93 45.885h-9.72l8.57-28.595-15.35 17.655-4.38-17.655-9.33 28.595h-9.48z" fill="#fff"/>
 <path d="m426.59 116.34h10.85l-1.92 45.885h-10.17l0.75-9.285-10.15-0.02-5.12 9.305h-10.04zm1.33 13.46-8.15 15.64 7.07 0.01z" fill="#fff"/>
 <path d="m455.09 116.34h10.11l-13.78 45.885h-10.39z" fill="#fff"/>
 <path d="m475.28 116.34h9.56l4.56 25.425 8-25.425h9.7l-13.96 45.885h-8.99l-4.73-26.53-8.35 26.53h-9.78z" fill="#fff"/>
 <path d="m432.5 171.47h10.85l-1.92 45.625h-10.17l0.75-9.285-10.15-0.02-5.12 9.305h-10.04zm1.33 13.2-8.15 15.64 7.07 0.01z" fill="#fff"/>
 <path d="m354.97 171.47h24.1l-2.25 7.905h-13.62l-3.35 10.835h13.08l-2.29 7.915h-13.31l-5.67 18.97h-10.55z" fill="#fff"/>
 <path d="m386.21 171.47h9.3133c3.9884 0 7.5228 0.22215 10.397 0.6 4.53 0.72 7.75 5.39 6.74 9.9-0.59 6.1-5.46 10.36-10.54 13.08 0.96995 1.5626 1.1029 2.5593 1.1573 4.1483l0.61273 17.897h-10.78l0.0144-16.095c0.03-2.17-2.0152-3.5923-4.0644-3.59l-6.15 19.685h-10.45c4.41-15.25 9.34-30.375 13.75-45.625m4.91 18.78h2.7275c1.4914 0 2.803-0.27601 4.2225-0.99 2.247-1.2392 3.7365-3.7886 3.8145-6.3573 0.091-1.611-0.28631-2.3733-1.6298-3.1385-0.86079-0.45545-1.9441-0.71403-2.8924-0.71403h-2.6823z" fill="#fff"/>
 <path d="m461.68 171.47h9.56l4.56 25.165 8-25.165h9.7l-13.96 45.625h-8.99l-4.73-26.53-8.35 26.53h-9.78z" fill="#fff"/>
 <path d="m503.06 171.47h10.39l-6.45 21.8 17.97-21.8h10.22l-17.34 21.75 6.45 23.875h-11.31l-6.56-21.455-6.76 21.455h-10.52z" fill="#fff"/>
 <path d="m544.08 171.47h26.77l-2.48 8.02h-16.08l-3.3 10.595h15.05l-2.33 7.985h-15.29l-3.2 11.285h16.71l-2.44 7.7398-27.18 2.5e-4z" fill="#fff"/>
 <path d="m579.88 171.47h9.56l4.56 25.165 8-25.165h9.7l-13.96 45.625h-8.99l-4.73-26.53-8.35 26.53h-9.78z" fill="#fff"/>
 <g transform="translate(-55,-259.96)" fill="#cf003d">
  <path d="m79.26 290.48 87.875-30.52v61.27h108.5l23.93 116.46h2.88l23.92-116.46h87.47l-53.67 184.24h-119.88l-39.59-132.59h-33.555v59.19c0.13 5.6 0.565 11.88 4.625 16.16 3.38 3.54 8.6 4.06 13.23 4.03 6.57 0.02 13.155-0.45 19.585-1.84v52.63c-24.79 5.16-50.235 10.03-75.635 7.03-13.69-1.68-27.97-5.98-37.73-16.26-8.61-8.92-11.97-21.62-11.95-33.75v-87.19h-24.26v-51.65h24.26z"/>
  <path d="m712.44 321.23h5.61l-49.71 184.24h-5.57z"/>
 </g>
 <g fill="#cf003d" stroke-width="1.0919">
  <path d="m668.87 113.09v121.16h37.825v-48.656h45.031v48.656h37.825v-121.16h-37.825v47.663h-45.031v-47.663z"/>
  <path d="m815.61 113.09h48.69c15.429-0.21839 31.088 0.6931 46.036 4.7551 16.314 4.3896 30.116 17.209 35.139 33.403 3.5925 9.8057 2.9701 20.376 2.8281 30.629-0.49137 13.245-5.4816 26.742-15.32 35.892-8.8994 8.2551-20.594 13.027-32.474 14.992-9.0632 1.7144-18.312 1.3919-27.484 1.4902h-57.415zm38.027 23.373v74.777h12.145c4.2915 0 8.5813-0.0603 12.856-0.44786 9.4235-1.0264 19.295-4.6189 25.027-12.579 6.508-9.0959 7.4034-20.987 6.2569-31.776-0.90632-10.013-6.1695-20.048-15.331-24.765-7.7179-4.2122-16.275-5.2084-24.911-5.2084z"/>
 </g>
</svg>
