<svg width="800pt" height="530.29pt" version="1.1" viewBox="0 0 800 530.29" xmlns="http://www.w3.org/2000/svg">
 <g transform="translate(-55.36 -103.52)" fill="#fed802" stroke-width="1.1196">
  <path d="m55.36 365.77h128.79l14.074 39.864h-42.271v121.12h-49.695v-121.12h-50.898z"/>
  <path d="m196.85 365.77 61.545 160.98h54.347l61.546-160.98h-52.858l-35.86 115.52-35.862-115.52z"/>
 </g>
 <g transform="matrix(.66697 0 0 .66697 249.47 -7.1565)" fill="#fed802">
  <path d="m312.09 15.26c8.28 0.92 15.96-2.93 23.9-4.5 8.03-0.59 12.35 7.63 19.1 10.29 26 2.34 53.01 2.79 77.98-5.97 16.89-5.63 34.63-1 51.87-0.38 7.34-0.08 13.71 4.57 21.07 4.38 7.77-0.09 15.83 1.15 22.53 5.34 6.06 3.83 10.95 9.42 14.28 15.74 1.4 2.53 2.72 5.5 5.7 6.47 10.49 4.09 20.93 8.33 31.39 12.49 10.58 4.32 21.09 9.04 30.54 15.54 13.26 8.94 25.91 19.53 41.46 24.29 5.77 2.04 12.11 1.85 17.74 4.34 10.83 4.58 19.54 12.75 29.54 18.77-1.8-4-4.28-7.68-5.9-11.76 1.42-1.09 3.01-1.94 4.56-2.86 26.89 30.77 52.95 62.5 74.41 97.37 20.58 33.33 36.67 69.74 44.89 108.14 1.26 7.03 3.33 13.96 3.41 21.16-1.88-5.34-3.89-10.63-5.67-16-1.09-3.4-3.02-6.43-5.46-9.01 0.83 9.69 3.17 19.18 4.19 28.85 3.46 21.65 6.14 43.41 8.72 65.18 4.05 32.22 3.04 64.76 2.75 97.14-1.59 0.36-3.24 0.61-4.85 0.42-1.5-1.43-2.64-3.17-3.86-4.81 0.25 11.38 0.78 22.89-1.4 34.14-4.97 32.61-20.77 62.08-36.28 90.72-3.22 6.36-7.16 12.38-9.75 19.04-0.16 0.49-0.57 0.79-0.98 1.04 4.11-16.37 10.76-31.92 16.72-47.67-1.07 0.07-2.13 0.2-3.18 0.38-4 4.74-6.77 10.43-10.9 15.07-1.05 0.05-2.09 0.05-3.12 0 1.16-5.8 2.11-11.63 3.14-17.44-5.46 3.02-10.92 6.02-16.36 9.05-3.55 1.84-5.05 5.78-7.13 8.95-7.08 11.49-13.25 23.83-15.51 37.26-2.02 10.11-1.11 20.58 1.59 30.46 5.47-2.58 11.36-4.7 15.87-8.85 6.92-6.86 11.21-15.78 17.31-23.29-5.66 17.06-13.62 34.18-27.65 45.98-5.62 5.15-13.03 8.08-17.85 14.14-5.51 6.1-8.44 14-13.35 20.48-5.98 2.46-12.49 3.38-18.47 5.88-3.32 1.44-6.12 3.78-8.99 5.95-9 6.89-17.75 14.33-28.05 19.24 2.5-8.01 5.6-15.81 8.25-23.77-19.15 2.84-38.5 10.34-51.69 25.01-2.97 3.06-4.99 6.91-7.96 9.96-3.92 2.14-8.4 3-12.53 4.65-16.62 5.52-32.67 12.54-49.2 18.29-26.27 9.21-53.87 16.2-81.91 15.15-9.72 0.23-19.27-2.24-28.98-1.92-11.67 0.52-23.32 2.09-35.01 1.45-32.75-2.55-65.93-3.19-97.91-11.42-21.1-5.82-40.89-15.45-60.16-25.65-29.69-15.57-57.74-34.9-80.59-59.59-5.04-5.1-9.56-10.8-12.61-17.33-7.6-15.69-15.75-31.11-23.53-46.72-3.08-6.37-7.84-12.52-7.05-20.01 11.84 14.22 22.85 29.12 34.43 43.55 4.19-3.6 8.09-7.53 12.27-11.14-6.4-4.08-10.31-10.83-14.77-16.76 3.19-2.04 5.88-5.69 9.83-6.06 5.92 2.03 11.64 5.65 15.22 10.89 2.65 4.13-0.3 9.16 1.23 13.55 0.34 1.17 1.44 2.1 2.7 2.1 3.32 0.4 6.38-1.47 9.66-1.43 5.18 4.3 8.48 10.4 12.94 15.39-0.1-4.23-0.65-8.43-1.29-12.6 16.61 10.87 34 20.63 49.58 33.01 15.49 12.11 34.69 18.47 53.91 21.52 14.53 2.91 29.84 2.63 43.6 8.75 6.49 2.99 12.87 6.95 17.27 12.69-5.13 1.95-10.49 3.18-15.73 4.79 3.84 4.92 8.02 9.55 12.02 14.34 4.2-0.74 8.86-1.96 11.23-5.86 4.16-5.94 3.27-13.47 3.46-20.31 6.97 2.85 13.92 6.1 21.49 6.99 17.35 2.97 34.64-3 49.97-10.69 16.68-8.81 36.12-7.85 54.04-12.38 19.97-5.45 39.42-12.66 58.64-20.3 6.68-2.59 12.22-7.76 15.14-14.31 3.65 0.41 7.23 1.38 10.91 1.53 2.57 0.09 4.37-2.04 6.25-3.47 5.12-4.61 10.35-9.21 14.54-14.7 2.73-3.32-1.87-6.87-1.49-10.54-0.65-5.93 4.18-10.28 8.67-13.21 29.59-19.99 51.38-49.93 65.21-82.57 8.81-20.4 16.01-41.55 20.88-63.24 1.31-12.22-5.02-23.86-3.95-36.11 0.33-8.45 8.82-13.69 9.65-22.02 0.35-5.13-1.34-10.08-2.01-15.11-0.78 4.26-1.46 8.54-2.09 12.83-1.71 0.01-3.42 0.03-5.11 0.06-0.6-6.21-1.66-12.36-2.72-18.51-0.75-7.94-2.49-16.27 0.18-24.03 2.15-4.68 5.6-8.86 6.3-14.11 1.3-7.8-2.74-15-5.61-21.96-2.9-6.34-2.51-13.56-5.17-19.97-3.18-7.89-7.89-15.03-12.3-22.27-16.15-26.11-35.15-50.56-48.49-78.35-3.91-8.04-8.72-15.76-15.14-22.04-7.23-7.03-16.34-11.89-25.94-14.8-11.28-3.41-20.22-11.68-27.89-20.28 3.74 0.51 7.44 1.29 11.11 2.2-0.08-1.38-0.16-2.76-0.24-4.13-11.92-7.31-22.17-17.37-35.23-22.76-6.44-2.46-13.49-3.83-20.36-2.65-2.76 0.28-5.93 1.27-8.37-0.56-3.81-2.82-6.86-6.6-11.02-8.97-12.12-7.57-26.81-8.17-40.58-9.95-6.52-0.36-12.72-2.61-19.2-3.2-6.77 8.16-17.1 13.22-27.69 13.49 0.57 0.14 1.16 0.28 1.74 0.42-15.08 1.01-30.78-1.34-45.24 4.16-14.75 6.05-31.26 5.27-46.05 11.19-25.9 11.12-50.27 25.47-73.69 41.07 4.38-0.14 8.75-0.33 13.13-0.49-0.39 2.33-0.25 5.06-2.25 6.73-19.54 18.57-43.08 32.49-61.78 52.02-7.34 7.55-13.78 16.02-18.89 25.24-10.33 19.43-27.52 33.89-44.64 47.15-3.76 2.63-7.09 5.96-11.21 8.01-6.36 1.34-12.89-0.28-18.98-2.11-5.72-1.79-11.65-2.75-17.44-4.26-1.35 3.06-2.66 6.14-3.87 9.27-0.9-0.75-2.05-1.27-2.66-2.29-0.03-3.33 1.03-6.56 0.95-9.88-0.39-7.96-3.76-15.47-8.49-21.77-7.06-10.11-18.45-17.49-21.7-29.97-2.16-10.45 0.69-21.03 2.53-31.31 5.27-26.61 16.62-52.34 34.55-72.88 7.05-7.54 9.98-18.3 18.38-24.66 3.25-2.69 7.57-3.15 11.35-4.7 1.86-3.21 1.75-7.22 2.8-10.75 2.05-7.36 1.86-15.57 6.33-22.07 2.3-3.49 6.02-5.63 9.85-7.06 6.19-2.27 10.41-7.58 15.22-11.82 16.14-14.63 31.73-29.87 47.98-44.38 0.12 4.01 0.11 8.03 0.17 12.04 16.33-8.26 33.02-15.81 49-24.73 15.87-8.61 32.71-16.27 50.83-18.32 7.68-0.66 15.43-0.5 23.07 0.57m443.98 210.78c5.66 18.19 11.62 36.31 18 54.27 0.57-2.4 1.25-4.83 1.14-7.32-0.78-11.42-4.34-22.51-9.48-32.69-2.54-5.17-5.67-10.08-9.66-14.26m42.66 127.04c0.09 21.66 2.06 43.27 2.78 64.92 0.33 21.59 1.03 43.3-1.7 64.78-0.93 9.53-2.17 19.06-4.7 28.32-1.58-4.4-3.2-8.78-4.56-13.24-3.92 1.36-8.06 3.93-9.07 8.23-1.09 7 4.24 12.93 4.11 19.86-0.08 2.5-0.88 5.62-3.58 6.46-4.39 1.88-8.94 3.64-12.46 6.99 0.15 8.51 0.87 17.03 2.16 25.45 4.73-1 5.1-6.47 7.62-9.75 3.22 1.83 4.02 6.34 6.23 9.26 2.17 0.29 4.32 0.62 6.5 0.96 4.59-13.88 9.52-27.66 13.35-41.77 2.11-7.69 1.37-15.71 1.38-23.58 0.87-18.98 2.55-37.93 2.93-56.93 0.84-15.52 1.22-31.14-0.41-46.62-2.19-14.74-7.09-28.89-10.58-43.34m-107.63 338.02c-2.85 4.31-6.21 8.32-8.31 13.09 4.86 0.24 10.55 1.64 14.7-1.71 5.73-4.4 6.13-12.3 10.18-17.88 2.87-3.99 6.25-7.8 7.76-12.58 1.9-6.19 2.02-12.73 1.98-19.15-8.91 12.65-17.54 25.49-26.31 38.23z"/>
  <path d="m257.5 189.12c10.96-4.52 21.68-9.6 32.69-13.99-5.42 5.97-11.4 11.39-16.86 17.33-4.81-0.01-9.63 0-14.44-0.02-0.47-1.11-0.93-2.22-1.39-3.32z"/>
  <path d="m397.59 712.01c10.77 4.22 21.41 8.77 32.14 13.1-0.3 1.89-0.63 3.78-0.97 5.68-11.17-4.18-22.41-8.18-33.55-12.41 0.79-2.13 1.57-4.26 2.38-6.37z"/>
 </g>
</svg>
