<svg version="1.1" viewBox="0 0 800 729.96" viewbox="0 0 336 189" xmlns="http://www.w3.org/2000/svg">
 <link href="" rel="stylesheet" type="text/css"/>
 <style type="text/css"/>
 <defs>
  <radialGradient id="a" cx="160.42" cy="99.474" r="40.909" gradientTransform="matrix(9.3599 0 0 8.5404 -1101.5 -484.59)" gradientUnits="userSpaceOnUse">
   <stop stop-color="#E3C7C1" offset="0"/>
   <stop stop-color="#F6EBEB" offset="1"/>
  </radialGradient>
 </defs>
 <path d="m713.36 542.94c0.13411 0 0.13411 0 0 0 54.27-57.122 86.636-129.48 86.636-208.1 0.14306-184.97-178.98-334.85-400-334.85s-400 149.88-400 334.85c0 184.98 179.12 334.86 400.01 334.86 51.678 0 101.05-8.1629 146.48-23.121 31.141-9.3878 56.032-5.7131 75.487 9.5219l91.526 73.851-22.575-104.45c-8.8424-39.447 6.938-65.008 16.451-76.166 1.9133-2.1726 4.0859-4.2111 5.9903-6.3926z" fill="url(#a)" stroke-width="8.9407"/>
 <path d="m32.777 230.4 35.092 29.916c81.2-82.013 153.42-140.36 333.9-140.36 185.65 2.9952 263.04 61.888 327.1 119l9.2537-56.845c-88.406-91.258-200.21-143.21-338.12-143.21-150.7 0-290.51 86.502-367.22 191.5z" fill="#f6eae9" stroke-width="8.9407"/>
 <path d="m438.63 267.52c-14.556 0-23.264 4.8995-27.895 17.274l-32.634 94.799a620.76 620.76 0 0 1-3.6657 10.881h-0.68844s-0.13411-0.26822-3.9429-10.881l-32.634-94.799c-4.6313-12.374-11.569-17.274-26.393-17.274h-78.75v-47.735h-49.916v47.744h-23.666v40.662h22.441v66.787c0 68.808 49.916 73.162 78.482 73.162 9.2447 0 15.646-1.2249 15.646-1.2249v-44.614s-3.6836 0.82254-9.2537 0.82254c-14.144 0-33.868-0.67949-33.868-34.547v-60.386h50.05c4.8995 0 10.747-0.26822 12.517 4.2111l51.678 135.74h35.763c13.205 0 22.996-10.604 28.977-22.844l40.394-107.45c1.7703-4.6224 4.8995-9.656 9.7901-9.656h16.594v-40.671h-39.035zm119.96-0.13412c59.295 0 83.095 45.973 83.095 92.358 0 46.644-25.973 88.531-83.238 88.531-54.941 0-82.97-41.887-82.97-88.54-0.12517-46.376 26.393-92.349 83.113-92.349zm-0.14305 135.74c19.044 0 37.408-15.101 37.408-43.389 0-21.082-12.651-47.332-37.408-47.332-24.346 0-36.988 26.25-36.988 47.332-0.14305 22.584 15.092 43.389 36.988 43.389z" fill="#d83c56" stroke-width="8.9407"/>
</svg>
