<svg width="800.01" height="800.01" version="1.1" viewBox="0 0 211.67 211.67" xmlns="http://www.w3.org/2000/svg">
 <g transform="translate(0,-85.333)">
  <path d="M 211.67,191.17 A 105.83,105.83 0 0 1 105.84,297 105.83,105.83 0 0 1 0.01,191.17 105.83,105.83 0 0 1 105.84,85.34 105.83,105.83 0 0 1 211.67,191.17 Z" fill="#ea552a" opacity=".999" stop-color="#000000" stroke-linecap="round" stroke-linejoin="round" stroke-width=".83746" style="paint-order:stroke fill markers"/>
  <g transform="matrix(2.0619,0,0,2.0619,291.02,141.55)" fill="#fff">
   <path d="m-114.92-7.1567v9.1215h-5.779v8.3554h5.779v15.387c0 8.9125 5.1532 13.438 13.996 13.438 2.0781 0 4.1275-0.29691 5.9174-0.90587v-9.12c-1.1837 0.90517-2.7852 1.3923-4.3867 1.3923-2.9244 0-4.6649-1.7401-4.6649-4.9431v-15.249h9.3312v-8.3554h-9.3312v-9.1215z" style="white-space:pre"/>
   <path d="m-100.97 1.9648 15.386 36.624h11.21l15.453-36.624h-10.444l-10.37 24.648-10.034-24.648z" style="white-space:pre"/>
  </g>
  <g transform="matrix(2.0943,0,0,2.0943,392.74,-388.65)" fill="#fff" style="shape-inside:url(#rect959);white-space:pre" aria-label="Sabadell · Vallès">
   <path d="m-172.55 305.25c2.1167 0 3.1432-1.0583 3.1432-2.2966 0-2.7199-4.3074-1.778-4.3074-3.1432 0-0.46567 0.39158-0.84666 1.4076-0.84666 0.65616 0 1.3652 0.1905 2.0532 0.58208l0.52916-1.3018c-0.68791-0.43391-1.6404-0.65616-2.5717-0.65616-2.1061 0-3.1221 1.0477-3.1221 2.3072 0 2.7516 4.3074 1.7992 4.3074 3.1856 0 0.45508-0.41275 0.79375-1.4288 0.79375-0.88899 0-1.8203-0.3175-2.4447-0.77258l-0.58208 1.2912c0.65617 0.508 1.8415 0.85725 3.0162 0.85725z"/>
   <path d="m-166.57 299.35c-0.91016 0-1.8309 0.24342-2.4553 0.68792l0.59266 1.1536c0.41275-0.32808 1.0372-0.52917 1.6404-0.52917 0.889 0 1.3123 0.41275 1.3123 1.1218h-1.3123c-1.7357 0-2.4447 0.6985-2.4447 1.7039 0 0.98424 0.79375 1.7251 2.1272 1.7251 0.83608 0 1.4288-0.27516 1.7357-0.79374v0.70908h1.5452v-3.2491c0-1.7251-1.0054-2.5294-2.7411-2.5294zm-0.127 4.7519c-0.58208 0-0.93133-0.27517-0.93133-0.68792 0-0.381 0.24342-0.66675 1.016-0.66675h1.1324v0.58209c-0.1905 0.51858-0.66675 0.77258-1.2171 0.77258z"/>
   <path d="m-159.5 299.35c-0.70909 0-1.2912 0.22225-1.7145 0.68792v-2.7622h-1.651v7.8528h1.5769v-0.65617c0.41275 0.49742 1.0266 0.74083 1.7886 0.74083 1.5981 0 2.8363-1.143 2.8363-2.9316s-1.2382-2.9316-2.8363-2.9316zm-0.28575 4.5085c-0.8255 0-1.4499-0.59266-1.4499-1.5769s0.62442-1.5769 1.4499-1.5769c0.82549 0 1.4499 0.59266 1.4499 1.5769s-0.62442 1.5769-1.4499 1.5769z"/>
   <path d="m-153.88 299.35c-0.91017 0-1.8309 0.24342-2.4553 0.68792l0.59267 1.1536c0.41274-0.32808 1.0372-0.52917 1.6404-0.52917 0.88899 0 1.3123 0.41275 1.3123 1.1218h-1.3123c-1.7357 0-2.4448 0.6985-2.4448 1.7039 0 0.98424 0.79375 1.7251 2.1272 1.7251 0.83608 0 1.4287-0.27516 1.7357-0.79374v0.70908h1.5452v-3.2491c0-1.7251-1.0054-2.5294-2.7411-2.5294zm-0.127 4.7519c-0.58208 0-0.93133-0.27517-0.93133-0.68792 0-0.381 0.24341-0.66675 1.016-0.66675h1.1324v0.58209c-0.1905 0.51858-0.66675 0.77258-1.2171 0.77258z"/>
   <path d="m-145.95 297.27v2.7622c-0.41275-0.46567-1.0054-0.68792-1.7039-0.68792-1.6087 0-2.8469 1.143-2.8469 2.9316s1.2382 2.9316 2.8469 2.9316c0.762 0 1.3652-0.24341 1.778-0.74083v0.65617h1.5769v-7.8528zm-1.4182 6.5828c-0.8255 0-1.4605-0.59266-1.4605-1.5769s0.635-1.5769 1.4605-1.5769c0.81491 0 1.4499 0.59266 1.4499 1.5769s-0.635 1.5769-1.4499 1.5769z"/>
   <path d="m-137.72 302.3c0-1.8309-1.2912-2.9528-2.9633-2.9528-1.7357 0-3.0374 1.2277-3.0374 2.9316 0 1.6933 1.2806 2.9316 3.2491 2.9316 1.0266 0 1.8203-0.3175 2.3495-0.92074l-0.87842-0.9525c-0.39158 0.37041-0.82549 0.55033-1.4287 0.55033-0.86783 0-1.4711-0.43391-1.6298-1.143h4.3074c0.0106-0.13758 0.0317-0.31749 0.0317-0.44449zm-2.9527-1.7039c0.74083 0 1.2806 0.46567 1.397 1.1853h-2.8046c0.11642-0.73024 0.65617-1.1853 1.4076-1.1853z"/>
   <path d="m-137.14 305.12h1.651v-7.8528h-1.651z"/>
   <path d="m-134.48 305.12h1.651v-7.8528h-1.651z"/>
   <path d="m-130.07 303.18c0.60325 0 1.0266-0.41275 1.0266-1.0372 0-0.62442-0.42333-1.0266-1.0266-1.0266-0.59266 0-1.0266 0.40216-1.0266 1.0266 0 0.62441 0.43392 1.0372 1.0266 1.0372z"/>
   <path d="m-121.78 297.72-2.286 5.2916-2.2542-5.2916h-1.8521l3.1962 7.4083h1.6933l3.2067-7.4083z"/>
   <path d="m-118.23 299.35c-0.91016 0-1.8309 0.24342-2.4553 0.68792l0.59267 1.1536c0.41275-0.32808 1.0372-0.52917 1.6404-0.52917 0.889 0 1.3123 0.41275 1.3123 1.1218h-1.3123c-1.7357 0-2.4447 0.6985-2.4447 1.7039 0 0.98424 0.79375 1.7251 2.1272 1.7251 0.83608 0 1.4288-0.27516 1.7357-0.79374v0.70908h1.5452v-3.2491c0-1.7251-1.0054-2.5294-2.7411-2.5294zm-0.127 4.7519c-0.58208 0-0.93133-0.27517-0.93133-0.68792 0-0.381 0.24342-0.66675 1.016-0.66675h1.1324v0.58209c-0.1905 0.51858-0.66675 0.77258-1.2171 0.77258z"/>
   <path d="m-114.52 305.12h1.651v-7.8528h-1.651z"/>
   <path d="m-111.85 305.12h1.651v-7.8528h-1.651z"/>
   <path d="m-105.64 298.7-1.4288-1.524h-1.778l1.9156 1.524zm2.032 3.5983c0-1.8309-1.2912-2.9528-2.9633-2.9528-1.7357 0-3.0374 1.2277-3.0374 2.9316 0 1.6933 1.2806 2.9316 3.2491 2.9316 1.0266 0 1.8203-0.3175 2.3495-0.92074l-0.87842-0.9525c-0.39158 0.37041-0.8255 0.55033-1.4287 0.55033-0.86783 0-1.4711-0.43391-1.6298-1.143h4.3074c0.0106-0.13758 0.0318-0.31749 0.0318-0.44449zm-2.9527-1.7039c0.74083 0 1.2806 0.46567 1.397 1.1853h-2.8046c0.11642-0.73024 0.65617-1.1853 1.4076-1.1853z"/>
   <path d="m-101.11 305.21c1.7039 0 2.6882-0.75141 2.6882-1.8097 0-2.2437-3.4396-1.3018-3.4396-2.2754 0-0.29633 0.3175-0.52917 1.0583-0.52917 0.51858 0 1.0795 0.10584 1.6404 0.42334l0.55033-1.1748c-0.53975-0.3175-1.4076-0.49742-2.1907-0.49742-1.6616 0-2.6352 0.762-2.6352 1.8415 0 2.2754 3.4396 1.3229 3.4396 2.2542 0 0.3175-0.28575 0.51858-1.0478 0.51858-0.69849 0-1.4711-0.22225-1.9791-0.55033l-0.55034 1.1853c0.52917 0.34925 1.5028 0.61383 2.4659 0.61383z"/>
  </g>
 </g>
</svg>
