<svg version="1.1" viewBox="0 0 600 284" xmlns="http://www.w3.org/2000/svg" xmlns:xlink="http://www.w3.org/1999/xlink">
 <defs>
  <linearGradient id="a">
   <stop stop-color="#dfdede" offset="0"/>
   <stop stop-color="#fff" offset="1"/>
  </linearGradient>
  <linearGradient id="b">
   <stop stop-color="#fcdbdb" offset="0"/>
   <stop stop-color="#fff" offset="1"/>
  </linearGradient>
  <linearGradient id="j" x1="912.11" x2="539.37" y1="356.04" y2="356.04" gradientTransform="translate(0,32)" gradientUnits="userSpaceOnUse">
   <stop stop-color="#fff" offset="0"/>
   <stop stop-color="#fff" stop-opacity="0" offset="1"/>
  </linearGradient>
  <linearGradient id="i" x1="890.35" x2="574.59" y1="355.11" y2="355.11" gradientUnits="userSpaceOnUse">
   <stop stop-color="#fff" offset="0"/>
   <stop stop-color="#fff" stop-opacity="0" offset="1"/>
  </linearGradient>
  <linearGradient id="h" x1="907.24" x2="526.28" y1="382.07" y2="382.07" gradientUnits="userSpaceOnUse">
   <stop stop-color="#fff" offset="0"/>
   <stop stop-color="#fff" stop-opacity="0" offset="1"/>
  </linearGradient>
  <linearGradient id="g" x1="729.26" x2="729.26" y1="278.61" y2="424.93" gradientUnits="userSpaceOnUse">
   <stop stop-color="#fff" offset="0"/>
   <stop stop-color="#fff" stop-opacity="0" offset="1"/>
  </linearGradient>
  <linearGradient id="f" x1="781.81" x2="804.93" y1="127.56" y2="165.34" gradientTransform="translate(-177.09 -40)" gradientUnits="userSpaceOnUse" xlink:href="#b"/>
  <linearGradient id="e" x1="781.81" x2="804.93" y1="127.56" y2="165.34" gradientTransform="translate(0,-40)" gradientUnits="userSpaceOnUse" xlink:href="#b"/>
  <linearGradient id="d" x1="781.81" x2="804.93" y1="127.56" y2="165.34" gradientTransform="translate(-742.66 -40)" gradientUnits="userSpaceOnUse" xlink:href="#a"/>
  <linearGradient id="c" x1="781.81" x2="804.93" y1="127.56" y2="165.34" gradientTransform="translate(-464.94 -40)" gradientUnits="userSpaceOnUse" xlink:href="#a"/>
 </defs>
 <g transform="matrix(.59916 0 0 .59916 0 4.8989e-6)">
  <rect y="59.299" width="1001.4" height="368.85" fill="#bec0c2"/>
  <path transform="matrix(1.1806 0 0 1.1806 358.25 2.1681)" d="m510.53 198.91c0 110.87-89.876 200.74-200.74 200.74-110.87 0-200.74-89.876-200.74-200.74 0-110.87 89.876-200.74 200.74-200.74 110.87 0 200.74 89.876 200.74 200.74z" fill="#d40000"/>
  <path d="m36.062 84.188v64.406h82.312v255.25h70.375v-255.25h82.312v-64.406h-235z" fill="#fff"/>
  <path d="m449.62 148.59c16.224 0 29.375 13.151 29.375 29.375s-13.151 29.375-29.375 29.375h-65.438v-58.75zm-1.1875 121.56c19.204 0 34.781 15.577 34.781 34.781s-15.577 34.781-34.781 34.781h-64.25v-69.562zm-134.62-185.97v319.66h151.41c51.321 0 92.938-41.617 92.938-92.938 0-30.287-14.511-57.16-36.938-74.125 19.247-15.777 31.531-39.733 31.531-66.562 0-47.513-38.518-86.031-86.031-86.031z" fill="#fff"/>
  <g transform="translate(0,-260)">
   <path d="m730.59 273.78c-60.921 0-117.54 22.879-157.2 63.641-13.788 14.169-17.11 26.235-17.11 38.799 0 28.165 76.856 62.592 174.44 62.592 97.582 0 179.53-14.639 179.53-51.281 0-16.287-10.079-38.517-30.344-57.422-38.938-36.324-92.235-56.328-149.31-56.328z" fill="url(#j)"/>
   <path d="m730.41 276.63c-39.205 0-75.127 8.6641-103.09 21.307-33.173 18.062-57.495 32.799-57.906 74.031 30.425 20.913 86.059 35.781 149.69 35.781 84.164 0 154.34-24.199 170.66-56.375-3.0928-10.401-9.5326-20.194-18.719-29.031-10.786-8.9152-22.111-17.922-35.078-23.297-33.159-13.745-65.249-22.416-105.55-22.416z" fill="url(#i)" opacity=".46444"/>
   <path d="m732.06 275.21c-64.908 1.6201-171.78 37.822-171.78 94.837 0 30.002 76.962 59.406 171.9 59.406s174.67-13.682 174.67-47.929c0-15.222-9.8056-35.999-29.522-53.668-37.883-33.95-89.736-52.646-145.27-52.646z" fill="url(#h)" opacity=".6"/>
   <path d="m730.41 276.63c-68.143 0-126.43 24.026-150.12 56.503-7.1623 11.173-10.772 27.382-10.885 38.991 36.17-31.361 101.5-56.656 161.62-56.656 76.74 0 140.94 29.125 157.34 68.156 2.2603-5.8526 3.4688-11.907 3.4688-18.125 0-48.49-72.279-88.869-161.44-88.869z" fill="url(#g)" opacity=".50628"/>
   <path d="m678.95 313.71c13.253 1.2246 31.58 1.3203 52.08 1.4336 76.74 0.42403 140.94 29.453 157.34 68.484 2.2603-5.8526 3.4688-11.907 3.4688-18.125 0-34.643-36.886-64.618-90.469-78.906-24.82-6.614-45.805-9.2645-70.969-8.6094-20.38 0.53055-38.859 2.7831-52.14 7.2162-27.534 10.998-22.15 26.287 0.68509 28.506z" fill="#fff" opacity=".4"/>
  </g>
  <path d="m601.66 84.188v226.31c0 53.398 55.377 96.688 123.72 96.688 26.739 0 51.483-6.6398 71.719-17.906l38.125 44.156c20.65-11.621 39.3-26.389 55.281-43.656l-45.938-53.188c2.9717-8.3017 4.5625-17.051 4.5625-26.094v-226.31h-70.375v214.22c-2.7467 23.388-25.604 42.113-53.375 42.75s-50.597-17.019-53.344-40.281v-216.69h-70.375z" fill="#fff"/>
  <path d="m604.72 87.25v56.531h67.312v-56.531h-67.312z" fill="url(#f)"/>
  <path d="m781.81 87.25v56.531h67.312v-56.531h-67.312z" fill="url(#e)"/>
  <path d="m39.156 87.25v56.531h67.312v-56.531h-67.312z" fill="url(#d)"/>
  <path d="m316.88 87.25v56.531h67.312v-56.531h-67.312z" fill="url(#c)"/>
 </g>
</svg>
