<svg space="preserve" version="1.1" viewBox="0 0 294.8 209.5" xmlns="http://www.w3.org/2000/svg">
 <g transform="translate(.1)">
  <path class="st0" d="m24.8 131.6c0.1-1.2 0.2-2.4 0.3-2.5l0.3-0.6c-0.6-0.1-0.3 0.3-0.6-0.3l1.1-4.7c-0.1-0.5-0.6-1.3-0.3-2.2 0.4-1.1 0.9-1.9 1.4-2.8-0.1-3.2 0.5-10.4 2.2-13.4-0.6 0-0.5 0.2-1.1-0.3h0.8v-1.4h0.3c0.2 0.5 0.1 0.3 0.3 0.6-0.2-0.8-0.4-0.9-0.8-1.4 1.1-0.6 0.9-4 1.1-6.1l0.6 0.3c-0.8-1.4-0.5-2.4 0.3-4.2-0.6-0.1-0.3 0.3-0.6-0.3 0.9-1.2 0.5-1.7 1.1-2.8-0.6-0.1-0.3 0.3-0.6-0.3 0.5-0.8 0.5-2.8 0.8-3.6-0.7-0.1-0.4 0.2-0.6-0.6 1-1.7 0.4-6.1 1.7-8.3-0.7 0.1-0.1 0.2-0.8 0 1-2.1 0.9-2.8 0.8-5.6l0.6 0.3v-0.3c-0.4-0.8 0.1-1 0.6-1.7h-0.3v0.3c-0.2 0.5-0.3-0.6-0.3-0.6 0.4-0.8 0.3-2.5 1.1-3.9-0.8 0.1-0.3 0.5-0.8-0.3 0.8-1.1 0.3-2.2 0.8-3.6-0.7-0.1-0.4 0.2-0.6-0.8 0.9-1.4 1.7-10.6 1.7-13.6-5.3-0.6-18.5-1-22.3 0l0.3-0.6h-0.3v0.3h-0.3c-0.3 0.2 0 0.2-0.6 0.3 0 0-11.4 0.2-12.2-0.3 0.7-0.4 0.2 0.1 0.6-0.6 0.1-0.3 0.2-0.1 0-0.3v-0.3h-0.3c0.1 0.7 0.2 0.1 0 0.8h-0.3v-1.1l0.3-0.3 0.6 0.3c-0.3-1-0.5-1.4 0-1.7 1.3-2 1.2-2.9 2.3-4.4-0.7-0.5-0.1-0.5-0.6-0.8 1.2-1.6 1.7-2.5 1.7-5 0.6-0.2 0.5-0.2 0.8-0.4-0.5-0.2-0.3-0.1-0.6-0.3 0.7-0.3 0.5-0.3 0.8-0.8-0.5-0.1-0.2 0.3-0.5-0.3 0.5-0.3 0.8-0.6 1.1-1.1-0.6 0.1-0.3 0.3-0.8 0 0.3-0.2 0.6-0.3 0.8-0.6-0.3-0.2-0.3-0.2-0.6-0.6h0.3v-0.3c0.7 0.2 0.5 0 1.1 0.3v-0.3s0-0.1 0.8-0.3c1.6-1 4.6 0.3 5.8 0 4.8-1 14.6 0.6 20-0.6 2-0.4 4.3 0.6 5 0 1.2-1.8 0.8-3.3 1.4-5.6-0.1-0.3-0.8-0.5-0.6-1.1 0.9-2.6 1.2-6.2 1.1-10.6h0.3c0.2 0.5 0.1 0.3 0.3 0.6v-0.8c-0.3-0.6 0.2-2.4 0.6-3.1-0.7-0.1-0.4 0.2-0.6-0.6 1.1-0.8 0.2-4.1 0.6-5.3 0.1-0.5 0.8-0.8 1.1-1.1-0.5-0.2-0.3-0.1-0.6-0.3 5.1 0.2 11.1 0.6 16.1 0 0.1 0.3 0.2 0.6 0.3 0.8 0.3 0.4 0 7-0.8 9.2 0.7 0.1 0.4-0.2 0.6 0.6-0.6 0-0.1-0.3-0.6 0 0.4 0.7-0.4 4.2-0.8 5 0.7 0.1 0.4-0.2 0.6 0.8-1.1 0.9-0.7 3.5-0.6 4.5-0.6 0-0.1-0.3-0.6 0 0.9 2.1-2 5.4 0 7.5 1.5-0.7 4.3-0.1 5.8 0 1.9 0.1 7.9-0.1 10.6-0.6 0.5 0.2 0.9 0.4 1.4 0.6l1.4-0.6c2.9-0.7 6.6 0.4 9.7-0.3l-0.3 0.6h0.3c1-0.9 5 0.1 7.5 0 1.1 0 10.9-0.7 13.1 0.3 1 0.4 1.7-0.5 2.2-0.6 1.8-0.2 4.4 0.3 6.1 0.8 0.3 0.1 2.3 0 2.8-0.3v-0.6l0.6 0.3c1.1 0.2 4 0 5.6 0.6v-0.3l-0.3-0.3h0.6c1 0.6 6.3-0.5 9.7 0 2.3 0.4 10.6 0.8 12.8-0.3 0.5-0.3 2.4 0.7 3.3 0.6 2-0.3 4 0.2 6.1 0.3l-0.3 0.6h0.3v-0.3c0.6-0.5-0.2-0.3 0.6-0.6 0.5 0.3 1.5 0.6 1.9 0.8v-0.3h-0.3c-0.3-0.3 0.3-0.3 0.3-0.3 0.6-0.3 0.5-0.2 1.1 0l-0.3 0.6h0.3c0.4-0.5 0.2-0.4 1.1-0.6l-0.3 0.6h0.3c0.6-0.6 3.3-0.4 5.6-0.3 1.1 0.1 5.1-0.8 8.1-0.6 5.4 0.4 17.3 0.6 20-0.3 1.6-0.5 2.2 0.8 3.3 1.1 0.1 0 2.8-0.5 3.1-0.6l-0.3 0.6h0.3c0.5-0.2 0.2-0.1 0.8 0v-0.3c0.1-0.3 1.7-0.3 3.1-0.3 0.6 0.4 6.3 0.8 7.8 0.6 1.4-0.2 2.1-0.6 3.3 0v-0.3c0.1-0.2 0.7-0.3 1.9-0.3l-0.3 0.6h0.3c0.7-0.5 1.8-0.2 2.5 0v-0.3c0.2-0.4 0.4-0.3 1.7-0.3 0.3 0.3 0.5 0.4 0.8 0.6v-0.3s0-0.1 0.8-0.3c0.3 0.5 2.4 0.2 3.6-0.3 0 0.8-0.3 0.4 0 0.8 1.1-0.9 0.5 0.3 1.7 0.8 0.5 0.2 1.2-0.1 1.9 0.3v-0.3l-0.3-0.3h0.6c1.6 1 11.1-1.1 15.3 0.3-0.2-0.3-0.4-0.6-0.6-0.8h0.6c1.3 1.4 3-0.2 4.5 0 2.5 0.4 5.4 0.6 9.2 0.6 0.1-0.7 0.2-0.6 1.7-0.6l-0.3 0.6h0.3c0.5-0.3 0-0.1 0.6 0v-0.3c0.1-0.2 0-0.2 1.1-0.3 0.8 0.6 1 0.3 2.2 0l-0.3 0.6h0.3c0.5-0.3 0-0.1 0.6 0v-0.3l0.6-0.3c0.8-0.3 4.1 0.2 5.3 0.3 2 0.1 7.7-0.1 10.3-0.8 0.6-0.2 2.3 0.8 3.3 0.6 1.8-0.4 4.6 0.4 5.6 0v-0.6c1.1-0.6 2.8 0 2.8 0 0.5 0.1 0.1-0.4 0.6 0 0 0 0.8 0.4 0.6 0.6h-0.3v0.3c-0.7-0.2-0.7-0.2-1.9-0.3-0.1 1.4-1.5 1.1-2.2 1.7h0.3c0.7 0.6 0.6-0.3 0.8 0.8-0.3 0.2-0.3 0.2-0.6 0.6-1.4-0.5-1.2-0.1-2.8 0.3v1.1h0.3c0.2-0.8 0.1-0.8 0.8-1.1l-0.3 0.6h0.3c0.4-0.5 0.2-0.3 0.6-0.3h0.3l-0.3 0.6c0.5 0 1.4-0.1 1.9 0.8l0.3 0.3c-1.3 0.1-1.5 0.4-2.8 0v0.3h0.3c0.8 0.6 0.9 0.3 1.9 0.3v0.8c-0.6-0.1-2-0.3-2.5 0.6h0.3l-0.3 0.6h0.3c0.3-0.2 0.5-0.2 0.8 0 0.2 1.1-0.4 0.3-0.8 1.1-0.5 0.9 0.2 1.3 0 1.9-0.3 0.1-0.6 0.2-0.8 0.3l0.3 0.6c0.5 1.1 1.8 1 2.8 1.1 0 0.7 0 0.4 0.3 1.4h-0.8c-1.1-0.6-2.5 0.3-5 0-3.5-0.4-6.5 0.7-10.3 0.6-0.4 0-1.2 0.5-1.7 0.3 0 0-0.4-0.8-0.6-0.8-0.7-0.2-1.1 0.6-1.7 0.6v0.3h0.3c0.5 0.2-0.6 0.3-0.6 0.3-1.2-0.8-3 0.3-4.2 0-2.2-0.6-3.7 0.3-5.8 0-4.1-0.6-6-0.5-10 0.3l0.3-0.6h-0.3c-1.4 0.8-10.9 0.9-12.5 0.6-0.2 0-1.7-0.6-1.9-0.6-3.5 0.4-12.1-0.3-17 0.8-0.7 0.2-1.7-0.3-1.9-0.3-1.7-0.2-4.8 0-6.7 0.3-3 0.4-6.8-0.3-8.6 0.3v-0.3h0.3c0.5-0.2-0.6-0.3-0.6-0.3-1 0.9-1.5 0.2-3.1 0v0.3h0.3c0.5 0.2-0.6 0.3-0.6 0.3-1-0.7-1.4-0.3-2.2 0-0.4-0.4-0.1-0.4-0.8-0.6v0.3s1.1 0.1 0.6 0.3h-0.6c-1.5 0.8-7.8-0.7-11.1 0-1.2 0.3-9 0.6-11.1 0-2.2 0.8-6.6 0.3-10.3 0.3-6.6 0-16.8 1-22.5-0.3-2 0.6-3.6 0.1-5.8 0.6-3-0.1-5.9-0.2-8.9-0.3-3.9 1-7.5 0.6-13.9 0.6-1.4 0-3.4-0.4-4.5-0.3-1.3 0.1-3 0.3-4.2 0.8-0.4 0.2-0.7-0.8-0.8-0.8-0.6-0.2-1.7 0.6-2.5 0.8-2.2-0.8-6.6-0.6-9.2 0-0.7 0.2-5.8-0.6-7.8-0.3-5.4 1-9.4-1-14.2-0.3-1.8 0.1-3.8 0.6-6.5 0.7l0.3-0.6h-0.3c-0.9 0.6-6 0.1-8.1 0v0.3c0.5 0.2 0.3 0.1 0.6 0.3h-0.8c-0.4-0.5-0.2-0.3-0.8-0.6-0.3 1-0.3-0.1-0.6 0.8-0.3 0.4-1.2 3.3-0.6 4.2-2.5 3.4-1.5 15-3.3 20 0.1 0.9 0.2 1.9 0.3 2.8-0.1 0.7-0.6 1-0.8 1.7-0.5 1.6 0.2 3.6-0.6 5 0.6 0.1 0.3-0.3 0.6 0.3 0 0-1.2 2.9-0.6 3.6-0.5 0.5-0.6 0.2-0.8 1.1h0.3c0.4-0.7-0.1-0.2 0.6-0.6v0.3c-1.8 2.1-1.4 9.6-2.2 12.2-0.3 1.1 0.2 2.3-0.3 3.1-0.2-0.5-0.1-0.3-0.3-0.6v0.6c0.5 0.9 0 3-0.6 4.2 0.4 1.5-1 4.6-0.8 8.1 0 1.2-0.4 3-1.1 4.5-0.6 1.3-1.1 9.1-0.8 12.2h-0.3c-0.4-0.7 0.1-0.3-0.8-0.6v0.3c0.7 0.4-0.7 8-0.8 8.3 0.6 0.1 0.3-0.3 0.6 0.3-0.6 0.1-0.5 0-0.6 0.3-1.6 5-0.6 12.1-2.5 15.3-0.3 0.5 0.2 1.4 0.3 1.7-0.7 2.5-0.1 6.5-0.8 6.7-0.1 0.2 0.5 0.4 0.6 0.6-0.8 0-0.8-0.2-1.1 0 0.3 0.6 0.1 1.7-0.3 2.5 0.7 0.1 0.6 0.4 0.6 1.9-1.7 2.5-0.5 7.8-2.5 11.4 0.6 0.1 0.3-0.3 0.6 0.3-1.9 2.2-1.7 10.1-2.2 13.4h-0.3c-0.4-0.5-1.1-0.5-1.7-0.8h0.3v-0.3l0.6 0.3c-0.4-0.5-1-0.6-1.7-0.8 0.1 0.7 0.1 0.2 0 1.1h-0.6l0.3-0.6h-0.3c-0.3 0.2-0.3 0-1.1 0-0.1 0.7 0.2 0.4-0.8 0.6-0.3 0.2-0.1 0.1-0.6 0.3 0.1-0.8 0.1-2-0.3-2.5v0.3l-0.6-0.3c0.1 0.6 0.1 0.4 0 1.4-0.7 0-0.5-0.2-1.1 0.6-0.2 0.3 0 0.3 0 1.1-0.8 0-0.4-0.3-0.8 0 0.1 0.3 0.2 0.1 0 0.3s0 0.4-0.6 0.3v-0.3c-0.6-0.3-0.4-0.2-0.8-0.6v-0.3h0.3c0.2-0.2 0.6-0.4 0.8-0.6-1.2-0.2-0.4-0.1-0.8-0.8-0.7 0.5-0.6 0.9-1.4 0.6 0.5-0.2 0.3-0.1 0.6-0.3h-0.8v0.3h-0.3c0 0.9 0.1 0.4 0 1.1 0.7-0.1 0.1-0.2 0.8 0-0.6 1.9-0.1 3.8-1.9 4.7-0.5 0.4-1.7 0.5-2.8 0.6-0.5-0.8-0.9-0.8-1.1-1.9h0.6v0.3h0.3c-0.5-1.6-0.5-2 0.3-3.9-0.7-0.4-0.2 0.1-0.6-0.6 0.8 0.1 0.3-0.2 1.1 0v-0.3c-0.3-0.6 0.1-0.8 0.3-1.7-0.7-0.4-0.2 0.1-0.6-0.6l0.6 0.3v-0.3c-0.4-0.7-0.1-2.2 0.6-3.1-0.5-0.2-0.3-0.1-0.6-0.3 0.9-0.5 0.5-1.5 0.6-2.8 0-0.5-0.4-3.6 0.8-5.3h-0.6c-0.7-1.2 1.3-2.2 0.3-3.6 0.7-0.8 0.7-1 0.8-2.5l0.6 0.3c-0.4-0.9-0.3-0.3-0.3-1.4l0.6 0.3c-0.3-0.5-0.3-0.5-0.6-1.1 0.4-0.6 0.5-2 0.8-2.5-0.3-0.2-0.3-0.2-0.6-0.6h0.3v-0.3l0.6 0.3c-1-2.5 0.8-5.3 0.3-8.1 0.6-0.1 0.5-0.1 0.8-0.3-0.7-0.4-0.2 0.1-0.6-0.6 1.2-1.5 0.1-3.8 0.8-5.8 0.3-0.8 0.9-6.2 0.6-7-0.8-1.5 1.2-2.5 0-4.2 1-1.5 1.7-5.8 1.9-8.6-0.5-0.2-0.3-0.1-0.6-0.3 0 0.1 0.3 0.1 0.6 0.1m14.2-106.8c0.2 0.3 0.2 0.3 0.3 0.8h-0.3v-0.8m20 3h0.6v0.3c-0.5-0.2-0.3 0-0.6-0.3m235.4 0.9c0.2 0.3 0.1 0.1 0.3 0.6h-0.3v-0.6m-79.3 0.2c0.5 0.3 0.6 0.3 1.1 0h-1.1m4.5 0c0.5 0.3 0.6 0.3 1.1 0h-1.1m70.9 0c0.3 0.2 0.1 0.1 0.6 0.3-0.3-0.2-0.1-0.1-0.6-0.3m2.8 0.6c0.2 0.3 0.1 0.1 0.3 0.6h-0.3v-0.6m-76.5 7.2h1.4v0.6c-0.7 0-0.3-0.1-1.1 0.3v0.3h0.3v0.3h0.3c0.1-0.6 0.1-0.5 0.3-0.8 0.4 0.7 0 0.1 1.1 0.3v-0.3c-0.7-0.4-0.2 0.1-0.6-0.6 0.7 0.1 1.6-0.1 1.7 0 0.8 0.4 0.8 0.9 1.4 1.4 0.1 0.1 1-0.1 1.4 0-0.1-0.7-0.1-0.2 0-1.1l0.3 0.3c0.7 0 0.3-0.1 1.1 0.3v-0.3h-0.3l0.3-0.6h0.3c0.1 0.6 0.1 0.7 0.3 1.1 1.7-0.8 2.2-0.7 3.9-1.1 0.3 1.4 0.3 0 0.6 1.4 1.8 0.2 1.2 0.3 3.1 0l-0.3 0.6h0.3c0.3-0.3 0.5-0.4 0.8-0.6v0.6h-0.3c-0.6 0.4-0.8 0.2-1.4 0 0 0.7-0.1 0.8-0.6 0.8-1.7 0.6-2.4-0.1-3.6 0l0.3-0.6h-0.3c-0.9 0.6-1.5 0.1-2.8 0v0.3c0.5 0.4 0.3 0.2 0.6 0.8-0.9-0.1 0 0.1-0.8 0.3 0 0-3.8-0.9-5.6-0.8l0.3-0.6h-0.3c-0.2 0.3-0.4 0.6-0.6 0.8h0.3v-0.3c0.2-0.5 0.3 0.6 0.3 0.6l0.3 0.3h-0.6c-0.2 0.1-1.6 0.3-1.9 0-0.5 0.4-0.7 0.9-1.1 1.4-0.9-0.7-2-0.3-2.8-0.6-3.1-0.9-3.8-0.7-7.2 0.6l0.3-0.6h-0.3v0.3l-0.6-0.3v0.3h0.3v0.3c0.6 0.2 0.9 0.1 1.1 0.3 0.4 0.3 0.5 0.6 2.2 0.6 0.7-0.3 7.4-0.1 8.6 0.6v-0.3h-0.3c0.5-0.5 1.1-0.7 1.9-0.8 1 1.1 4.7-0.1 5 0.3l0.6 0.3v-0.3c0.2-0.4 0.1-0.3 1.4-0.3 1 1.1 4.2 0.3 5.8 0.6 0.1-0.6 0.1-0.5 0.3-0.8 0.8 1.7 1.1 0.1 2.2 0.3 0.2 0 0.6 0.5 1.1 0.6v-0.6c-0.7-0.3-0.4-0.3-1.1-0.6-0.5 0.3-1.4 0.3-1.9 0h0.6c0.9-0.6 1.3-0.4 2.5-0.3l-0.3 0.6h0.3c0.5 0 1.1 0.5 1.7 0.8 1.2 0.7 7.9-0.4 8.3-0.6l-0.3 0.6h0.3c1.3-0.7 2.8 0.2 3.9-0.3-0.5-0.2-0.3-0.1-0.6-0.3h1.1c-0.1 0.7-0.2 0.1 0 0.8 0.7-0.1 1.4 0 2.2 0.3v-0.3l0.6-0.3-0.3 0.6h0.3c0.2-0.4 0.3-0.6 0.6-0.8 0.2 0.9-0.1 0.4 0.6 0.8 0.2-0.3 0.4-0.6 0.6-0.8-0.3-0.2-0.3-0.2-0.6-0.6 0.3-0.2 0.3-0.2 0.6-0.6 0.7 0.1 0.2 0.1 1.1 0 0.3 1.1 0.6 1.3 1.9 1.4 0.4-0.3 1.4-0.4 2.8-0.6l-0.3 0.6h0.3c0.5-0.3 0-0.1 0.6 0v-0.3h-0.3l0.3-0.6c1.4 0.4 2.5 0.6 4.5 0.3l-0.3 0.6h0.3c0.9-1 1.9-0.3 2.5-0.8l0.3-0.3c-0.7-0.3-0.5 0.2-0.8-0.6 0.4-0.4 0.2-0.5 0.8-0.8-0.1 0.6-0.3 0.3 0 0.8v-0.6c0.6-0.5-0.2-0.3 0.6-0.6 0.5 0.6 0.3-0.2 0.6 0.6 0.1 0.3 0.2 0.1 0 0.3-0.5 0.7-0.5 0.1-0.8 0.6 0.5 0.4-0.1 0.5 1.1 0.6 0.7-0.1 0.7-0.7 2.2-0.8 0.5 1 0.4 0.5 1.1 0 0.4-0.3 0.3 0.7 0.8 0.3l0.3-0.3c-0.7-0.2-1.3-0.2-1.9-1.1h0.6c0.6 0.3 1.4 0.1 2.2 0.6-0.2-0.3-0.4-0.6-0.6-0.8h0.6c0.4 0.3 0.9 0.6 1.1 0.3l0.6-0.3c-0.3-0.4-0.3-0.2-0.6-0.8-0.8 0.4-1.3 0.4-1.9-0.3-0.8 0.9-0.7 0.8-1.9 0.6v-0.8c1.1-0.6 2.4-0.7 3.1-1.1-0.5-0.2-0.3-0.1-0.6-0.3 0.6 0.1 0.7 0.1 1.1 0.3-0.3-0.5-0.3-0.5-0.6-1.1h1.4v0.3h0.3v-0.3c-0.1-0.2 0-0.6 0-1.7l0.6 0.3-0.3-0.6c-0.6 0.2-5.3-0.5-5.6-0.8l-0.3-0.3c1.1-0.4 1.8-0.8 2.2-1.9-1.1 0.1-3.2-0.9-3.6 1.1l0.3 0.3c0.8-0.1 0.3-0.5 0.8 0.3 0.1 0.3 0.2 0.1 0 0.3l-0.3 0.6c-1.2-0.1-2.4 0.3-4.5 0.3-0.1-0.3-0.2-0.6-0.3-0.8h0.6c0.2 0.3 0.2 0.3 0.6 0.6-0.2-0.8 0-1.5-0.6-1.9-0.6 0.3-0.8 0.5-1.1 0h-0.3l0.3-0.6h-0.3c-0.1 0-2.5-0.1-3.3-0.3-2.6 0.8-9 0.2-10.3 0-1.6-0.3-3 0.9-4.2 0.3-0.1 0.3-0.2 0.6-0.3 0.8-0.2 0.2-0.4-0.5-0.6-0.6v0.6c-0.4 0.3-5.4-1.2-6.1-0.6-0.3 0.1-0.6 0.2-0.8 0.3 0.2 0.2 0.4 0.3 0.6 0.6h-2.8c0.2 0.3 0.4 0.6 0.6 0.8 1-0.4 1.8-0.1 3.3 0.3v0.3c-2.8 0.4-2.8 1.3-5.3 0.8v-0.3h0.3l0.3-0.6c-0.7-0.1-0.4 0.2-0.6-0.8 0.9-0.4 0.1-0.1 0.6-0.8-1.7 0.5-3.5-1.4-5.8-0.8-3.1 0.8-12.8 1.3-15.3 0 0.1 0.7 0.2 0.1 0 0.8-3.7-0.7-7.1 0.3-9.2-0.3 0.1 0.7 0.1 0.2 0 1.1-0.7 0-0.2-0.4-0.8 0.3 2.1-0.4 3 0.3 4.5 0.3l-0.3 0.6h0.3c1.9-1.1 4.4 0.7 5-0.8l0.3-0.3c-0.8 0.2-0.8 0.4-1.4-0.3h0.6v0.3h0.3v-0.3h-0.3l0.3-0.6c0.7 0.1 0.4 0.2 1.1 0 0.2 1 0 1.1 0.6 1.4 1 0.7 2.5 0.5 3.9 0.6v0.3h-0.3c0.1 0.6 0.3 0.3 0 0.8-0.8 0.9-1.5 0.4-2.2 1.1-0.8-0.3-0.8-0.3-0.9 0.2m52-6.1c-0.3 0.8-0.2 0.6-0.8 1.4h0.6c0.4-0.5 0.4 0.2 0.6-0.8h-0.3l0.3-0.6h-0.4m-39.2 0.8c0.2 0.3 0.1 0.1 0.3 0.6h-0.3v-0.6m10.8 0c0.2 0.3 0.1 0.1 0.3 0.6h-0.3v-0.6m29.3 0h0.6v0.3h-0.3v0.3c-0.3-0.3-0.2-0.1-0.3-0.6m-63.8 0.6h0.6v0.3c-0.5-0.2-0.3-0.1-0.6-0.3m46.8 0c2.7 0.8 6.1 0.4 8.9 0.8-0.3 0.2-0.1 0.1-0.6 0.3-0.3 0.4-0.6 0.7-0.8 1.1-0.9-0.5-1-0.5-1.9-1.1-0.1 0.7-0.4 0.6-1.9 0.6l0.3-0.6h-0.3c-0.4 0.5-0.2 0.3-0.8 0.6l0.3-0.6h-0.3c-0.9 0.8-10.2 0.5-12.8 1.1 0-0.7-0.3-0.7-1.1-1.1-0.1 0.7 0.2 0.4-0.6 0.6-0.2-0.5-0.1-0.3-0.3-0.6v-0.3h0.6c2.7-1.8 9.9 1.4 11.3-0.8m36.4 0c0.2 0.3 0.1 0.1 0.3 0.6h-0.3v-0.6m-78.4 0.3h0.6v0.3c-0.6-0.2-0.4-0.1-0.6-0.3m1.6 0h0.6v0.3c-0.5-0.2-0.3-0.1-0.6-0.3m3.4 0c0.2 0.3 0.1 0.1 0.3 0.6h-0.3v-0.6m1.6 0c0.3 0.1 0.6 0.2 0.8 0.3v0.3c-0.6-0.3-0.4-0.2-0.8-0.6m-8.3 0.3h0.6v0.3c-0.5-0.2-0.3-0.1-0.6-0.3m53.7 0c0.5 0.5 0.9 0.5 0.6 1.1-0.8-0.6-0.5-0.4-0.6-1.1m27 0c0.2 0.3 0.1 0.1 0.3 0.6h-0.3v-0.6m-60.7 0.2h0.6v0.3h-0.3v0.3c-0.2-0.3-0.1-0.1-0.3-0.6m-18.1 0.3h0.6v0.3c-0.5-0.2-0.3-0.1-0.6-0.3m18.7 0h0.6c0 0.8-0.1 0.4 0.6 1.1-1.4-0.2-1.3-0.3-1.2-1.1m21.1 0c0.3 0.2 0.1 0.1 0.6 0.3-0.3-0.2-0.1-0.1-0.6-0.3m-28.9 0.3c1.8 0.6 3.5 0.2 5.6 0.3v0.3c-0.3 0.5 0 0.5-0.3 0.8-0.5 0.3-1.3 0.5-2.2 0.8-0.1-0.6-0.1-0.5-0.3-0.8-0.2 0.6-1.9 0.5-2.2 0.3-0.2-0.3-0.1-0.3-0.3-1.1-0.4 0.2-0.2 0.8-0.6 0.3-0.2-0.3-0.1-0.1-0.3-0.6 0.5-0.2 0.3-0.1 0.6-0.3m-2 0.3 0.6 0.6c-0.7 0.2-0.9-0.2-0.6-0.6m0.6 0h0.6c-0.4 0.4-0.2 0.3-0.6 0m8.6 0c0.2 0.3 0.1 0.1 0.3 0.6h-0.3v-0.6m2.8 0c0.3 0.3 0.4 0.5 0.6 0.8h-0.6v-0.8m35.6 0.2h0.6v0.6h-0.6v-0.6m12.6 0s0 1.6 0.6 1.1c-0.3-0.6-0.2-0.4 0.3-0.8-0.4-0.1-0.7-0.2-0.9-0.3m-50.7 0.3c0.3 0.1 0.6 0.2 0.8 0.3v0.3c-0.6-0.2-0.4-0.1-0.8-0.6m29.8 0.3h0.6v0.3c-0.6-0.2-0.3-0.1-0.6-0.3m-255.5 0.3h0.6v0.3c-0.5-0.2-0.3-0.1-0.6-0.3m209.6 0.3c-0.6 1.1-0.6-0.2-0.8 1.4h0.6v-0.3h-0.3c-0.5-0.2 0.6-0.3 0.6-0.3 0.3-0.1 0.7-0.1 1.4-0.3v-0.3h-0.6c-0.4-0.4-0.3 0.3-0.6-0.3-0.2 0.1-0.2 0.1-0.3 0.1m-2 0.5c-0.3 0.3-0.8 0.5-1.1 0.8 1 0.8 0.4 0.5 0.6 1.7h0.3c0.1-0.6 0.1-0.5 0.3-0.8v0.8l0.3-0.3c0.6 0 0.1 0.3 0.6 0l0.3-0.3c-0.6 0-0.1 0.3-0.6 0-0.4-0.4 0.2-0.2-0.3-0.6v0.3h-0.3v-0.3l-0.3-0.3c1-0.2 0.9 0.3 1.1-0.8-0.3 0-0.6-0.1-0.9-0.2m6.1 0h0.6v0.3c-0.5-0.2-0.3-0.1-0.6-0.3m-6.1 0.3c0.2 0.3 0.1 0.1 0.3 0.6h-0.3v-0.6m40.1 0c1.2 0.3 0.6 0.5 1.7 0 0.3 0.6 0.2 0.4 0.6 0.8-0.2 0.3-0.1 0.1-0.3 0.6h-0.3c-0.8-0.6-1.7-0.4-2.5-0.6v-0.3c0.9-0.2 0.7 0.2 0.8-0.5m4.4 0c1.1 0.4 1.6 0.5 2.8 0.8 0 0.7-0.4 0.2 0.3 0.8v-0.3l-0.3-0.3h0.6c0.1 0.6 0.1 0.5 0.3 0.8 0.2-0.1 0.8-0.1 1.7-0.3l-0.3 0.6h0.3c0.4-0.3 1.1-0.3 1.9-0.3-0.2 0.8-0.2 0.6 0 1.7h-0.3c-1.3-0.8-4.2-1.3-5.8-0.8-0.3 0.1-1.2 1.1-1.4 1.1-0.8 0.1-1.8-0.3-2.2-0.6v-0.3c-0.5-0.1-1.5 0.8-1.7 0.8-1.5 0.4-3.6-0.3-5-0.8v0.3h0.3c0.5 0.2-0.6 0.3-0.6 0.3-0.6-1-1.2-0.1-1.7-0.8 5.5 0 7-1.8 11.4-0.6 0.1-0.6 0.1-0.5 0.3-0.8 0.1 0.6 0.1 0.5 0.3 0.8v-0.8l-0.3-0.3c-0.7 0.1-0.7 0.5-1.1-0.3 0.9-0.3 0.5 0.1 0.5-0.7m11.7 0c0.2 0.3 0.1 0.1 0.3 0.6h-0.3v-0.6m1.4 0h1.4v0.6h-0.3c-0.8-0.6-0.6 0.2-1.1-0.6m2 0h0.6v0.3c-0.6-0.2-0.3-0.1-0.6-0.3m-84.9 0.3c-0.4 0.5-0.6 0.7-1.4 1.1-0.3-0.1-0.1-0.2-0.3 0h-0.3v0.3h0.3c0.6-0.4 1.7 0.1 2.5-0.3h0.3v-0.3c-0.4-0.3-0.7-0.5-1.1-0.8m4.4 0c-0.1 0.7-0.1 1.7 0.8 1.1 0.2-0.3 0.1-0.1 0.3-0.6-0.4-0.2-0.4-0.3-1.1-0.5m20.4 0c0.2 0.3 0.1 0.1 0.3 0.6h-0.3v-0.6m27.2 0c0.2 0.3 0.2 0.3 0.3 0.8h-0.6c0.1-0.3 0.2-0.5 0.3-0.8m17 0c0.6 0.1 0.5 0.1 0.8 0.3h-0.6c-0.1-0.1 0 0-0.2-0.3m6.7 0h0.6v0.3h-0.3c-0.2 0-0.6 0-0.3-0.3m2.5 0c1.2 0.5 1.3 1.3 2.2 1.7 0.8 0.3 1.3-0.7 1.7-0.3 0.7 0.5 0.1 0.5 0.6 0.8 0.2-0.2 0-0.4 0.6-0.3v0.3c-0.2 0.3-0.1 0.1-0.3 0.6-0.8-0.3-2.7-0.7-3.3 0.3-0.2 0.3-0.1 0.3-0.3 0.8-1.5-1.4-0.8-2.9-1.2-3.9m12.5 0.3c-0.7 0-0.9-0.1-1.4-0.3v0.3c0.4 0.4 0.2 0.5 0.8 0.8v0.3h0.3v-0.3c0.2-0.3 0.2-0.3 0.3-0.8m-57.6 0h0.6v0.3c-0.5-0.2-0.3-0.1-0.6-0.3m13.6 0c0.2 0.3 0.1 0.1 0.3 0.6h-0.3v-0.6m0.6 0c0.5 0.4 0.3 0.2 0.6 0.8h-0.6v-0.8m3.9 0c0.2 0.3 0.1 0.1 0.3 0.6h-0.3v-0.6m8.6 0c0.2 0.3 0.1 0.1 0.3 0.6h-0.3v-0.6m13.7 0h0.6v0.3h-0.3c-0.3 0-0.6-0.1-0.3-0.3m2.7 0c0.6 0.1 0.5 0.1 0.8 0.3h-0.6c-0.1 0-0.4-0.1-0.2-0.3m5.6 0h0.6v0.3c-0.5-0.2-0.3-0.1-0.6-0.3m1.4 0c0.6 0.1 0.7 0.1 1.1 0.3v0.3h-0.3v0.3c-0.6-0.6-0.6-0.2-0.8-0.9m1.1 0c0.6 0.1 0.8 0.1 1.1 0.3-0.6-0.1-0.8-0.1-1.1-0.3m19.5 0c0.2 0.3 0.1 0.1 0.3 0.6h-0.3v-0.6m-108 0.2-0.3 0.6c0.5-0.4 0.3-0.6 0.3-0.6m2 0-0.3 0.6c0.5-0.4 0.3-0.6 0.3-0.6m1.9 0c0.6 0.1 0.5 0.1 0.8 0.3-0.5-0.1-0.5-0.1-0.8-0.3m58.5 0c0.3 0.5 0.5 0.3 0 0.6v-0.6m16.7 0h0.6v0.3c-0.6-0.2-0.4 0-0.6-0.3m15 0h0.6v0.3c-0.6-0.2-0.3 0-0.6-0.3m3 0.3c0.1 0.7-0.2 0.4 0.6 0.6l0.3-0.6c-0.7 0.1-0.2 0.2-0.9 0m-69.3 0.3c0.2 0.2-0.2 0.4 0.3 0.8 0.5-0.5 0.1-0.5-0.3-0.8m12.6 0h0.6v0.3h-0.3v0.3c-0.3-0.3-0.2-0.1-0.3-0.6m48.1 0c0.6 0.2 0.7 0.2 1.1 0.6h-0.3c-0.3 0.5-0.5 0.7-0.8 1.1h-0.6c-0.2-0.5-0.1-0.3-0.3-0.6 0.4-0.5 0.6-0.5 0.9-1.1m-56.5 0.3c-0.4 0.7 0.4 0.7 0.6 0.6-0.2-0.3-0.5-0.5-0.6-0.6m1.7 0-0.3 0.6c0.5-0.5 0.3-0.6 0.3-0.6m0.5 0v0.6l0.3-0.3h0.3c-0.3-0.3-0.1-0.2-0.6-0.3m49 0-0.3 0.6c0.5-0.5 0.3-0.6 0.3-0.6m3.9 0h0.6v0.3c-0.5-0.2-0.3-0.1-0.6-0.3m-30.9 0.5c2 0 2.1 0.1 3.1 0.6v0.3c-0.7 0.1-1.5 0.2-2.2 0.3 0.1-0.3 0.2-0.6 0.3-0.8-0.7-0.2-0.8-0.2-1.2-0.4m-4.4 0.3c0.9 0.3 1.3 0.4 2.8 0.3v0.6h-2.2c-0.4-0.2 0 0-0.8 0 0-0.3 0.1-0.6 0.2-0.9m1.1 0c0.6 0.1 0.5 0.1 0.8 0.3-0.6-0.1-0.5-0.1-0.8-0.3m1.7 0c0.6 0.1 0.8 0.1 1.1 0.3-0.7-0.1-0.8-0.1-1.1-0.3m1.4 0c0.4 0.1 0.8 0.3 1.1 0.6h-0.3c-0.3 0.2-0.5 0.2-1.1 0.3l0.3-0.9m3.3 0h0.6c-0.4 0.4-0.2 0.3-0.6 0m0.8 0c0.9 0.1 2.1-0.2 2.8 0.3h-0.3v0.3c-0.6-0.1-1.9 0.3-2.5-0.6m-239.6 0.6h0.6v0.3c-0.5-0.2-0.3-0.1-0.6-0.3m234.3 0h0.6v0.3c-0.5-0.2-0.3-0.1-0.6-0.3m21.5 0c0.2 0.3 0.1 0.1 0.3 0.6h-0.3v-0.6m12.2 0h0.6v0.3c-0.5-0.2-0.3-0.1-0.6-0.3m-79.3 0.2c0.3 0.6-0.1 0.5 0.3 0.8 0.5-0.6 0-0.3-0.3-0.8m32 0c0.3 0.2 0.1 0.1 0.6 0.3-0.3-0.2-0.1-0.1-0.6-0.3m-31.2 0.3c0.3 0.4 0.7 0.5 1.1 0.8h-0.6v0.3l-0.6-0.3v0.3c0.4 0.4-0.3 0.1 0 0.6v0.3h0.3c0.3-0.2 0.1-0.6 0.3-0.3 0.7 0.2 0.9 0.9 1.1 0.6 0.5-0.2 0.2-0.5 0.6 0 0.3 0.2 0.3 0.2 0.6 0.6-0.8 0-0.4-0.3-0.8 0h0.3c0.3 0.2 2.7-0.3 4.5-0.3l-0.3 0.6h0.3c0.5-0.2 0.5-0.1 1.4 0 0.1-0.7-0.2-0.4 0.8-0.6 0.6-0.5 1.4 0.2 2.5-0.6h0.3v-0.3l-0.6-0.3c-0.1 0.7 0.2 0.4-0.8 0.6l0.3-0.6h-0.3c-0.5 0.5-1.5 0.3-2.8 0.6l0.3-0.6h-0.3c-1.1 1.1-1.9 0.2-3.9 0l0.3-0.6h-0.3c-0.3 0.2-0.5 0.2-1.1 0.3 0-0.9 0.4-0.5-0.6-0.8 0 0-0.4 0.8-0.6 0.6v-0.3c-0.4-0.2-0.9-0.4-1.4-0.6m54.9 0.6c0.3 0.1 0.6 0.2 0.8 0.3-0.1 0.3-0.2 0.6-0.3 0.8h-0.3c0-0.7-0.1-0.7-0.2-1.1m-0.9 0.3c0.2 0.5 0.1 0.2 0 0.8l-0.6-0.6c0.6-0.1 0.3 0 0.6-0.2m20.9 0c0.2 0.3 0.1 0.1 0.3 0.6h-0.3v-0.6m3.1 0c0.3 0.5 0.5 0.3 0 0.6v-0.6m-60.2 0.2h0.6v0.3c-0.5-0.2-0.3 0-0.6-0.3m7.3 0h0.6v0.3c-0.5-0.2-0.3 0-0.6-0.3m1.7 0h0.6v0.3c-0.6-0.2-0.4 0-0.6-0.3m8.3 0c0.4 0.1 0.7 0.2 1.1 0.3v0.6c-1.4-0.2-1.1-0.1-1.1-0.9m5 0c0.3 0.1 0.6 0.2 0.8 0.3-0.3 0.2-0.1 0.1-0.6 0.3-0.3 0.2-0.1 0.1-0.6 0.3 0.2-0.3 0.3-0.6 0.4-0.9m10.3 0 0.6 0.6c-0.8 0.2-1-0.2-0.6-0.6m-33.9 0.3c0.2 0.3 0.1 0.1 0.3 0.6h-0.3v-0.6m-12 0.3h0.6v0.3c-0.5-0.2-0.3-0.1-0.6-0.3m7.8 0v0.6h0.3v-0.6h-0.3m13.9 0c0.3 0.5 0.5 0.3 0 0.6v-0.6m26.7 0c0.2 0.3 0.1 0.1 0.3 0.6h-0.3v-0.6m0.6 0c0.3 0.5 0.5 0.3 0 0.6v-0.6m3.6 0.3h0.6v0.3c-0.5-0.2-0.3-0.1-0.6-0.3m-40.9 0.2c0.2 0.3 0.1 0.1 0.3 0.6h-0.3v-0.6m35 0.3h0.6v0.3c-0.5-0.2-0.3-0.1-0.6-0.3m10.1 0h0.6v0.3c-0.6-0.2-0.4-0.1-0.6-0.3m4.1 2.2c0.2 0.3 0.1 0.1 0.3 0.6h-0.3v-0.6m1.1 0c0.2 0.3 0.1 0.1 0.3 0.6h-0.3v-0.6m-61.5 0.9h0.6v0.3c-0.5-0.2-0.3-0.1-0.6-0.3m2.5 0h0.6v0.3c-0.5-0.2-0.3-0.1-0.6-0.3m20.1 0h0.6v0.3c-0.5-0.2-0.3-0.1-0.6-0.3m-122.2 1.4h0.6v0.3c-0.5-0.2-0.3-0.1-0.6-0.3m1.1 0h0.6v0.3c-0.5-0.2-0.3-0.1-0.6-0.3m-69.3 0.3c0.6 0.1 0.5 0.1 0.8 0.3-0.5-0.2-0.5-0.1-0.8-0.3m4.5 0h0.6v0.3c-0.5-0.2-0.3-0.1-0.6-0.3m1.1 6.4c0.2 0.3 0.1 0.1 0.3 0.6h-0.3v-0.6m30.1 8.9h0.6v0.3c-0.6-0.2-0.4-0.1-0.6-0.3m150.2 33.9c0.3 3.4 2.5 5 1.9 7-0.2 0.6 1.3 1.2 0.6 1.9 0.7 0.7 1.5 1 2.2 1.7 0.4 0.4-0.5 0.3-0.6 0.3-0.2 0.3 0.8 0.4 0.8 0.6 0.2 0.4-0.5 1.5-0.3 1.9 1 2.7 2.9 6.5 3.3 8.9 0.6 0.1 0.8 0.1 1.1 0.3-0.8 2.1 2.8 4.4 1.7 6.4 0.6 0.1 0.8 0.1 1.1 0.3 0 0 1.8 4.2 2.2 6.4h0.8c0.3 0.7 0.3 0.5 0.8 0.8 0 0.8-0.3 0.4 0 0.8 0.3 0.3 0.5 0.4 0.8 0.6v-0.3c-0.2-0.4 0 0 0-0.8 1.3-0.6 2.4-1.6 2.5-3.9l0.6 0.3c-0.2-0.3-0.4-0.6-0.6-0.8h0.6c0.3-0.2 0.3-0.2 0.8-0.3 0.2-0.9 0.5-1 0.8-1.7h-0.3v0.3c-0.2 0.5-0.3-0.6-0.3-0.6 0.4-0.2 0.6-0.3 0.8-0.6-0.3-0.2-0.3-0.2-0.6-0.6h0.8c0.2-0.9 0.1-0.7 0.6-1.1 0.5-0.3 0-0.1 0.6 0v-0.3c-0.1-1-0.1-0.2 0.8-1.1-0.4-0.7-0.2-0.8 0.3-1.4-0.3-0.2-0.3-0.2-0.6-0.6 1-0.2 1.4-1.8 2.2-1.7v-0.3c0-0.5 0.5-2.1 1.4-3.1v0.3h0.3v-0.3c0.1-1.1 5.2-10.1 6.1-10.6v-0.3c-0.2-0.3-0.6-0.1-0.3-0.3v-0.3l0.6 0.3v-0.3c-0.3-0.3 0.1-1.1 0.8-1.4v-0.3c-0.2-0.3-0.6-0.1-0.3-0.3 0.8-1.7 3.6-6.8 4.5-7.2 0.5-0.3 0-0.1 0.6 0v-0.3c-0.1-1.2 1.7-3.9 2.5-5-0.6-0.1-0.5-0.1-0.8-0.3 2.5-0.6 3.1-5.2 4.5-7v0.3h0.3v-0.3c-0.3-0.5 0.4-1.5 0.6-2.5 0.6 0 0.1 0.3 0.6 0 1.3-1.7 3.1-5.4 4.2-7.8 0.1-0.3 0.4-1.4 0.6-2.2 0 0-0.5 0-0.3-0.3s0.9-0.2 1.1-0.6c1-1.8 0.3-2.9 1.7-4.2v-0.3l0.6 0.3v-0.3h0.3c-0.3-0.7-0.6-0.8-0.3-1.4 0.4-0.7-0.1-0.2 0.6-0.6 0.8-0.4 3.9 0.5 5.6 0 2.2-0.7 7.4 0.1 10.9 0.3v0.6c-0.6 0.5 0.2 0.3-0.6 0.6v-0.3h-0.3c0 1.8-0.3 2.4-0.8 3.3v0.3h0.3c0.2 1-0.4 3.1-1.1 4.2 0 0-0.2 3.2-0.6 3.9 0.7 0.1 0.4-0.2 0.6 0.6-1 0.7-0.2 1.8-0.8 2.8-0.2-0.5-0.1-0.3-0.3-0.6 0.2 2.2-1.1 7.8-1.7 8.9-0.4 0.7 0.1 2.1 0 2.2-0.1 0.2-0.8 0.3-0.8 0.6-0.2 0.8 0.5 2.1 0.3 2.8-0.7 2.2-0.4 3.2-1.7 6.1h0.3v-0.3c0.2-0.5 0.3 0.6 0.3 0.6-1 1.7-0.4 6.1-1.1 8.1-1 2.8-1.2 8.8-2.5 11.1-0.1 0.1 0.3 3 0.3 3.3 0 0.6-0.6 1.7-1.4 3.3h0.8c0 0.8 0 1.3-0.3 1.7 0-0.7 0-1-0.3-1.4 0 4.3-0.5 4-0.6 7.8-0.7 0.5-0.5 0.7-1.7 0.8 0-0.7 0.4-0.2-0.3-0.8v0.3c0.2 0.3 0.2 0.7 0.3 1.7 0.9-0.1 1.3 0.1 1.7 0.8-1.8 1.5-0.8 3.4-1.9 6.1h0.3v-0.3c0.2-0.5 0.3 0.6 0.3 0.6-0.9 0.1-0.8 0.2-1.4 0.6 0-0.8 0.3-0.4 0-0.8-0.2 0.3-0.2 0.3-0.6 0.6 0.1 0.3-0.3 3.3-0.3 3.3v0.3c0.9-0.3 1.3-0.6 1.7 0 0.2 0.3 0.2 0.5 0 0.8-0.9 0.6-1.8 0.1-2.5 0.6 0.6 0.1 0.5 0.1 0.8 0.3-0.9 0.2-0.4-0.1-0.8 0.6 0.7 0.3 0.9 0.6 1.1 1.4h-0.3c-0.2-0.3-0.2-0.3-0.6-0.6 0.2 1.2-0.6 1.7-1.1 2.8 0.6-0.1 0.3-0.3 0.8 0-0.3 0.2-0.3 0.2-0.6 0.6 0.7 0.1 0.4-0.2 0.6 0.6-0.1 0.2 0.3 1 0 1.7h-0.6c-0.3 0.5-0.3 1-0.6 1.4 0.6 0.1 0.5 0.1 0.8 0.3-0.2 0.3-0.2 0.5-0.3 1.1-0.8 0.6-0.6 0.5-1.4 0.8 0.4 1.2 1 2.5 1.4 2.8-0.3 0.2-0.1 0.1-0.6 0.3l-0.3-0.3c0.1 0.3 0.2 0.6 0.3 0.8-0.8 0-0.2 0-1.1 0.3 0.4 0.6 0.6 2.5 0.6 5.3-0.6 0-0.1-0.3-0.6 0 0.3 0.2 0.3 0.2 0.6 0.6-0.9 0-0.4-0.1-1.1 0 0.6 3.7 0.1 5.6-0.6 8.6-0.9 4 0.4 7-1.1 9.5-0.4 0.4-0.7 0.6-1.4 0.8v-0.3h0.3c0.5-0.2-0.6-0.3-0.6-0.3v0.6h0.3l-0.3 0.6c0.6-0.2 0.8-0.4 1.4 0h-0.6c-0.3 0.3 0.3 0.3 0.3 0.3 0.5 0-0.1 1.3 0 1.4h0.3v0.3h-1.4c0-0.9 0.1-0.4 0-1.1-1 0.4-1.5 0.6-2.2 0.8 0.3 0.5 1.4 1.3 1.1 1.4 0.1 0.7 0.1 0.2 0 1.1h-0.6l0.3-0.6h-0.3c-0.3 0.3-0.5 0.4-0.8 0.6 0.3 2-0.2 2.2-0.3 4.5 0.3 0.2 0.6 0.4 0.8 0.6v-0.3l-0.3-0.3h0.6c0.4 0.6 0.6 0.6 0.8 1.4 0.6-0.5 0.4-0.5 0.8-0.6h0.3c-0.4 1.4-0.4 2.5-0.8 3.3 0.7 0.1 0.4-0.2 0.6 0.6-1.3 0.4-1.1 0.9-1.1 2.5-0.6 0-0.1-0.3-0.6 0 0.5 0.4 0.3 0.2 0.6 0.8h-1.4v-0.3c0.3-0.3 0.4-0.5 0.6-0.8h-0.8c0.1-0.8 0.6-1.2 0.3-1.4 0 0-0.1-1.1-0.3-0.6v0.3c-0.8-0.1-0.3 0.2-1.1 0 0 0.7 0.2 1.1-0.6 1.4-0.5 0.3-1.5 0.1-2.8 0l0.3-0.6c-0.4-0.5-1 0.1-1.1 0-1-0.9-0.8-1.7-1.7-2.5-0.5 0.1-0.6 0.4-1.4 0.6v0.8h-0.8c0.2-2.5-1.8-2.5-1.9-5h0.3v0.3c0.2 0.5 0.3-0.6 0.3-0.6 1.3-1.8 1-3.6 1.7-6.1-0.5-0.2-0.3-0.1-0.6-0.3 0.5-0.2 0.3-0.1 0.6-0.3h-0.3v-0.3c-0.9 0-0.4 0.1-1.1 0-0.1 0.7 0.1 0.5-1.1 0.6-0.2-0.5-0.1-0.3-0.3-0.6 0.1-0.4 0.8-3.6 0.3-4.5 0.8-1.1 1.1-2.3 0.6-3.9 0.6-1.5 1-2.2 1.4-3.3 0.2-0.5-0.3-0.7-0.6-1.1 0.9-1 0.8-2.5 0.8-2.5l0.3-0.6h-0.3v0.3c-0.2 0.5-0.3-0.6-0.3-0.6 0.5-0.5 0.6-3.3 0.6-6.1l0.6 0.3c-0.8-1.7 0.4-5.9 1.1-8.1 0.2-0.7-0.4-2.3-0.6-2.8l0.6-0.3c0.4-1.1 0.2-2 0.6-2.8h-0.3v0.3c-0.2 0.5-0.3-0.6-0.3-0.6 0.6-0.6 0.8-2 0.3-3.3 0.9-0.2 0.4 0.1 0.8-0.6-0.9-2.5 1.7-5.9 1.4-8.1h-0.6c-0.3-0.2 0.3-0.3 0.3-0.3 0.2-0.3 0.4-0.6 0.6-0.8-0.6 0.1-0.3 0.3-0.8 0 0.4-0.3 0.5-0.4 0.8-0.8h-0.3v0.3c-0.2 0.5-0.3-0.6-0.3-0.6 1.1-1.1-0.1-2.4 1.1-3.1-0.4-0.5-0.4-0.2-0.6-1.1 0.5-0.2 0.3-0.1 0.6-0.3-0.6-0.4-0.2-1 0.3-1.9h-0.3v0.3c-0.2 0.5-0.3-0.6-0.3-0.6 0.6-0.6 0.6-4 1.4-5.6h-0.3v0.3c-0.2 0.5-0.3-0.6-0.3-0.6 0.2-0.3 0.2-0.3 0.3-0.8l0.6 0.3v-0.3c-1-1.3-0.3-2.2 0.3-3.1h-0.3v0.3c-0.2 0.5-0.3-0.6-0.3-0.6 0.2-0.3 0.4-0.8 0.6-1.1h-0.3v0.3c-0.2 0.5-0.3-0.6-0.3-0.6 0.6-1 0.3-2.3 0-3.9h-0.3v0.3c-0.4 0.3-0.5 0.5-0.8 0.8 0.2 0.2 0.4 0.3 0.6 0.6-0.7 0-1 0-1.4 0.3 0.3 0.6 0.1 0.6 0 1.4-0.4-0.2-0.2-0.8-0.6-0.3-1.2 0.9-2.9 6.5-3.9 7v-0.3h-0.3c0.1 0.9-0.7 1.7-1.7 2.8 0.9 0 0.4-0.5 0.8 0.3-1.1 0.2-1.8 1.8-2.5 2.5 0.5 0.2 0.3 0.1 0.6 0.3h-0.8c0.1 0 0.5 1.3 0.3 1.7-0.3 0.6-1.4 1.6-1.9 1.9 0.3 0.6 0.2 0.8 0.8 1.1 1.9 1.1 4.6-0.2 6.1 0.6v-0.3l-0.3-0.3h0.6v0.3h0.3c-0.3 0.5-0.4 0.5-0.6 1.1-0.7-0.5-0.5-0.2-1.4-0.6 0 1.3-1.1 0.7-1.7 1.7 0.8-0.1 1-0.1 1.7 0.6h-0.3c-0.6 0.6-1.3 0.3-1.7 0.6 0.3 0.6-0.9 4.3-1.7 4.5l0.3-0.6h-0.3c-0.4 0.8-0.6 1.4-0.6 2.8-0.3 0.4 0.1 0.3-0.3 0.8-0.3 1-0.3-0.1-0.6 0.8-0.2 0.3-0.1 0.5-0.3 1.1 0.9-0.1 1-0.6 1.1 0.8-0.9 0.3-1.2 0.4-2.2 1.1 0.5 0.2 0.3 0.1 0.6 0.3-2.3-0.1-6.5-0.3-7.2 0.6-1.3 1.7-0.2 4.2-0.6 6.4-0.2 1.3-0.5 1.1-0.6 2.2 0 0.1 0.5 1.1 0.3 1.7-0.3 0.9-1.1 0.8-1.4 1.9h1.4v0.3h-0.3c-0.4 0.3-0.4-0.1-0.8 0.3h0.6c0.4 0.5 0.5 0.5 0.8 1.1-0.2 0.2-0.4 0.6-0.6 0.8-0.3 0.2-0.3 0.2-0.8 0.3 0-0.7-0.3-0.6-0.8-1.4h-0.3v0.3c-0.5 0.4 0.1 0.5-1.1 0.6l0.3-0.6h-0.3s-1.8-0.4-3.1 0c0-1-0.1-1.1 0-1.7-1.1 0.3-2.1-0.3-3.1-0.8 0.1 0.3 0.2 0.6 0.3 0.8-0.7-0.1-0.8 0.1-1.7 0.3-0.7-0.3-0.5-0.7-1.7-0.8l0.3 0.6c-0.8 0.5-0.8-0.5-1.1 0.6 0.1 0.6 0 0.8-0.6 1.4-0.3-0.2-0.8-0.4-1.1-0.6-0.7-1.2-1-1.7-1.4-2.8 0.6-0.4 0.3-2.5 0-3.6l0.6 0.3c-0.5-1-0.6-2.4-0.6-4.2 0.5-0.2 0.3-0.1 0.6-0.3-0.8-0.3-0.5 0-0.8-0.8h0.3c0.2 0.3 0.2 0.3 0.6 0.6v-0.3c0-0.4 0.2-0.7 0.6-1.4-0.8-0.4-1.5-1.2-2.2-2.2-1.2 0.2-4.4-1-5.3-0.6-0.5 0.2-2.1 0.6-1.4 1.1h-6.1c-0.5-0.9-2.8-0.5-3.3-0.6 0 0-0.3 4.6-0.6 5 0.5 0.9 0.7 3.3 0.8 5.6l-0.6-0.3v0.3c0.3 0.3-0.2 6.3-0.3 8.3 0.7 0.1 0.4-0.2 0.6 0.8 0.1 0.2 0 1.8 0 2.8-0.7 0-0.2-0.4-0.8 0.3h0.3v-0.3c0.2-0.5 0.3 0.6 0.3 0.6-1.3 1.1-1 1.6-1.4 3.1 0.8 0.1 0.6 1.7 0.6 3.3-0.1 0.3-1.2 8-1.1 8.3-0.6 0.1-0.5 0.1-0.8 0.3 1.6 1.8 0.6 9.8 0 10.6-0.3 0.2-0.3 0.2-0.8 0.3 0-0.7 0.1-0.3-0.3-1.1 0.4-0.3 0.5-0.4 0.8-0.8h-0.3c-0.7 0.6-0.2 0.4-1.1 0-0.2 0.8-0.1 0.8-0.8 1.1v-0.3c-0.5-0.2-0.3-0.1-0.6-0.3h0.6c0.4-0.4-0.5-0.3-0.6-0.3-0.1-0.4 0.3-1.4 0-1.7-0.3 0.2-0.1 0.1-0.6 0.3-0.2 0.4-0.3 0.6-0.6 0.8 0.3 0.7 0.6 0.5 0.3 1.1-0.4 1.1-0.4-0.2-1.1 0.6 0 0.7 0 1.1-0.6 2.5-0.6 0.1-0.7 0.1-1.1 0.3 0-0.8 0.3-0.4 0-0.8-0.4-0.3-1.1-0.3-1.9-0.3 0 0-2.2 1-2.5 1.1 0.1-1.8-1.6-1.2-2.2-2.8-0.5-1.2 0-3.3-0.6-5h0.6v0.3h0.3c-0.5-1-0.7-2.4-1.1-3.6h0.8v0.3h0.3c-0.9-1.7 0.1-3.4-0.6-4.7-0.5-1.1-1.2-9.3 0-12h-0.3v0.3c-0.2 0.5-0.3-0.6-0.3-0.6 0.6-0.6 0.4-2.2 0.8-3.6-0.9-0.2-0.6-2.1-0.6-3.9 0.1-0.2 0-1.9-0.3-2.5 0.2-0.3 0.5-8.8-0.3-9.5 0.5-0.8 0.3-3.2 0-4.2-0.6 0.3-6.2 0.6-7.8 0v0.3h0.3c0.5 0.2-0.6 0.3-0.6 0.3-0.3-0.2-0.3-0.2-0.8-0.3l0.3-0.6h-0.3c-0.6 0.4-1.1 0.2-1.7 0v0.3h0.3c0.5 0.2-0.6 0.3-0.6 0.3-0.3-0.4-0.6-0.7-0.8-1.1 0.3-0.2 0.3-0.2 0.6-0.6h-0.3v-0.3c-1 0.1-0.8 0.1-1.7-0.3v0.3h0.3l-0.3 0.6c0.8 0 0.4-0.4 0.8 0.6-0.6 0.1-0.7 0.1-1.1 0.3 0.3 1.2-0.2 1.8 0 2.8h-0.8c0.2 4.5-1.5 13.5-2.8 15.6-0.3 0.4 0.5 1.5 0.6 1.7-0.2 0.3-0.3-0.2-0.6 0.3 0.1 0.1 0.4 0 0.6 0.3h-0.6c-0.9 1.6 0.5 3.4-0.6 4.5v0.3c-0.5 0.1-0.2-0.4-0.6 0 0.6 1-1.2 6-1.7 7.2 0.2 1-0.4 2.5-0.8 3.6 0 0-0.7 6.2-0.6 6.7-1 2.2-2.1 4.1-1.9 9.5l-0.6-0.3v0.3c0.2 0.3 0 0.3 0 1.1l-0.6-0.3v0.3c0.4 0.5 0.4 0.6 0.6 1.4h-0.3v0.3c-0.5-0.2-0.3-0.1-0.6-0.3-0.5-0.2-0.3-0.1-0.6-0.3 0.4-0.6 0.2-1 0.6-1.7h-0.3v-0.3h-0.3v0.3c-0.3 0.4-0.4 1.7-0.6 2.2-0.4 0.1-0.5 0.2-1.1 0.3 0-0.9-0.1-1.4-0.6-1.9-0.2-0.2-1.2-1.2-1.9-1.7 0.1 0.3 0.2 1.8 0 1.9-0.6 0.5-0.8 0.4-1.4 0.3-0.1 0.7 0.2 0.4-0.6 0.6-0.6-0.6-0.3-0.4-1.1-0.3 0-1.1 0.2-1.3-0.8-1.9v0.3h0.3c0.5 0.2-0.6 0.3-0.6 0.3-0.4-0.7 0.1-0.2-0.6-0.6-0.5 0.9 0 1-1.4 1.1v-0.6l0.6 0.3-0.3-0.6c-1.2 0.8-1.4 0.9-2.8 0.8 0-0.8 0-0.3-0.6-1.1 0.5-0.2 0.3-0.1 0.6-0.3-1.4-0.8-0.4-1.4-0.8-2.5s-2.5-14.2-2.2-15l-0.6 0.3v-0.3c-0.3-0.4-0.4-2.1-0.6-3.6l0.6 0.3c-0.6-1.2-0.9-3.9-0.3-5.6-0.7-0.1-0.4 0.2-0.6-0.6l0.6 0.3c-0.4-1-0.6-1.8-0.3-2.8-0.7-0.1-0.4 0.2-0.6-0.6 0.1-1-0.3-1.7-0.6-3.6l0.6 0.3c-0.8-2.4-1.3-7.3-0.6-9.2-0.6-0.1-0.5-0.1-0.8-0.3 0.6-0.3-0.3-5.6 0-6.1v-0.3c-0.6-0.1-0.5-0.1-0.8-0.3 1.1-0.5-0.3-5.4-0.8-6.4 0.6-0.1 0.5-0.1 0.8-0.3-0.7-1-0.4-3.5 0-4.2-0.6 0.1-0.6 0.3-1.1 0 1.3-0.8 0.1-2.4 0-3.3-0.1-1.1-0.1-5.4 0.6-7-0.8-0.1-0.6-1.4-0.6-3.1-0.7-0.9-0.5-1.5 0-2.2-0.6-0.1-0.5-0.1-0.8-0.3 0.4-0.8-0.1-2-0.3-3.1h-0.3c-0.3 0.2-0.1 0.1-0.6 0.3 0.8 1.4-0.5 4.6-1.4 5.3 0.8 2-1.2 2.7 0 4.5-0.6 0.1-0.8 0.1-1.1 0.3 0.6 0.1 0.5 0.1 0.8 0.3h-0.3c-0.2 0.2-1.2 0.9-1.4 1.1 0.4 0.2 0.6 0.3 0.8 0.6h-1.4c0.1-1.3-0.3-0.3-0.6-1.7 0.2-0.3 0.1-0.1 0.3-0.6h-1.9c-0.5 0.7 0 0.1-0.8 0 0.2 1.6-1.1 2.1-1.4 3.6 0.7 0.2 0.5 0.1 0.8 0.6-0.3-0.1-0.6-0.2-0.8-0.3v0.3h0.3c0.5 0.2-0.6 0.3-0.6 0.3-0.4 0.2 0 0-0.8 0 0.2 0.9 0.1 0.7-0.8 1.4 0.3 0.8 0.4 2.3 0.6 2.5 0.3 0.3 0.9 0.1 1.1 1.1l-0.6-0.3v1.4c-0.2 0.3-0.3-0.5-0.6 0 0.6 1-0.3 5.4-2.2 6.4-0.3 0.2-0.3 0-1.1 0 0.1 0.7 0.1 0.2 0 1.1 0.7-0.2 0.6-0.2 1.7-0.3-0.1 0.8-0.4 1.4-0.8 1.9-0.3-0.2-0.1-0.1-0.6-0.3 0.1-0.8 0.3-0.6 0-1.1-0.6 0.7-1.1 0.8-1.9 0.6v0.3h0.3c0.5 0.2-0.6 0.3-0.6 0.3s-0.1-1.1-0.3-0.6v0.6h-0.3v0.3c0.7-0.1 0.1-0.2 0.8 0-0.5 0.6-0.5 0.4-0.6 0.8v0.3h0.3v-0.3l-0.3-0.3h0.6c0.2 0 0.2-0.1 1.1-0.3v0.3c-0.5 0.2-0.3 0.1-0.6 0.3h3.1c0.4 0.5 0.2 0.7 0.8 1.1v-0.6c0.3-0.2 0.3-0.2 0.6-0.6-0.4-0.2-0.6-0.3-0.8-0.6 2 0.2 1.2 0.3 3.1 0-0.1 0.6-0.1 0.4 0 1.4l-0.6 0.3c-0.4 0.3-0.7-0.1-1.1 0.3 0.2 0.4 0.4 1.2 0.3 1.4v0.3c-0.6-0.4-1.4-1-1.9-0.6-0.1 0.3 0 0.6-0.3 1.1-0.2-0.5-0.1-0.3-0.3-0.6 0 1.1 0.3 0.8-1.1 0.8-0.2-1.4-0.1-2.1-1.4-2.2v0.3c0.6 0.7 0.3 0.1 0.3 1.1-0.2-0.2-0.3-0.4-0.6-0.6v0.8c0.7 0.4 0.2-0.1 0.6 0.6l-0.6-0.3v0.3c-0.6 0.9-0.8 2.4-1.1 2.8 0.3 0.3 0.5 0.4 0.8 0.6v-0.3l-0.3-0.3h0.6c0.3 0.6 0.5 0.6 0.6 1.7h-1.4v0.6c0.9 0.3 0.6 0.1 0.8 1.1h0.8c0 0.8-0.2 0.1 0.3 0.8-0.4 0.3-0.5 0.7-0.8 1.1v-0.3h-0.3c-0.1-0.5 0.4-0.2 0-0.6v0.3h-0.3c0 0.9-0.1 1-0.6 1.9h0.3v-0.3c0.2-0.5 0.3 0.6 0.3 0.6-0.5 0.4-1 0.9-1.4 1.4h0.3v-0.3c0.2-0.5 0.3 0.6 0.3 0.6 0.8 1-0.3 2 0.6 2.8 0.3-0.3 0.5-0.4 1.1-0.3-0.6-1.3-0.6-1.2-0.6-2.8 0.4-0.1 0.7-0.2 1.1-0.3v-0.3c-0.7-0.4-0.2 0.1-0.6-0.6h0.3c0.3 0.3 0.5 0.4 0.8 0.6-0.4-0.9-0.6-1.2-0.3-1.7v-0.3l0.6 0.3c-0.3-0.8-0.8-1 0.3-1.7v0.3c0.2 0.2 0.5-0.5 0.6-0.6-0.7 0-0.2 0.4-0.8-0.3 1-0.4 0.8-0.6 0.8-1.9-0.7-0.1-0.4 0.2-0.6-0.6h0.3c0.3 0.3 0.5 0.4 0.8 0.6v-0.3c-0.2-0.4 0 0 0-0.8 0.8-0.4 1.2-0.3 1.7-0.8-0.7-0.1-0.4 0.2-0.6-0.8h0.3v-0.3h-0.3v0.3c-0.2 0.5-0.3-0.6-0.3-0.6h0.8c0.4 0.5 0.2 0.3 0.8 0.6v0.3c-0.6 0.1-0.8 0.1-1.1 0.3 0.5 0.3 1 0.4 0.6 0.8-0.2 0.3-0.4 0.6-0.6 0.8-0.4-0.3-0.2-0.3-0.8-0.6v0.3h-0.3c0.3 0.6-0.7 3-0.3 3.6 0.1 0.2 0.6 0.7 1.1 1.1-0.5 2-1.1 2.6-1.7 4.2-0.1 0.4-0.4 0.3-0.6 0-0.3 0.6 0.8 0.8 0 1.9-0.4 0.6-0.8-0.1-1.1 0.3h0.3c0.3 0.3-0.3 0.3-0.3 0.3-0.3 0.2-0.3 0.2-0.8 0.3l0.3-0.6h-0.3c-0.3 0.4-0.5-0.2-0.8-0.3-0.4 0.3-0.5 0.5-0.8 0.8 0.2 0.4 0.4 0.7 0.6 1.1h0.3v-0.3c0.6-0.5-0.2-0.3 0.6-0.6 0.3 0.7 1.4 0.6 1.9 1.7h0.3v0.3c-1 0.3 0.1 0.3-0.8 0.6-0.1 0-0.6 0-0.8 0.3h0.3c0.5 0.6 0.3-0.2 0.6 0.6-0.7 0.6-2.3 4.3-1.4 5.6-0.5 0.6-1.2 0.9-1.4 1.1h0.3c0.1 0.1 0.7 0.7 1.4 0.8-0.4 0.6-0.9 1.4-1.4 1.9 0.3 0.9 0.6 1 0.8 1.9-0.9 0.3 0 0.4-1.7 0.6-0.1-0.7 0-0.5-1.4-0.6-0.5-0.2-0.2-0.1-0.8 0 0.2 0.5 0.1 0.1 0.6 0.3-0.7 0.7-0.8 0.9-0.8 2.2-0.9-0.1 0 0.2-1.7 0.3-0.3 0-0.6-0.1-1.4-0.3 0.1-1.7-0.5-1.8-1.1-2.8-0.3 0.1-0.6 0.2-0.8 0.3v0.6s1.1 0.1 0.6 0.3h-0.3v0.3c-1.2-0.6-2.3-1-3.9-1.1v0.3h0.3c0.5 0.2-0.6 0.3-0.6 0.3v-0.6h-0.3l0.3-0.6h-0.3v0.3c-0.2 0.5-0.3-0.6-0.3-0.6-0.2-0.2-0.6-1.1-0.8-1.9l0.6 0.3v-0.3c-0.2-0.3-0.1-0.3-0.3-1.1h0.6c0.4-0.2 0 0 0.8 0v-0.3c-0.8-0.3-0.5 0-0.8-0.8h0.3c0.2 0.3 0.2 0.3 0.6 0.6-0.1-0.3-0.2-0.6-0.3-0.8-0.8 0-0.4 0.3-0.8 0-0.2-0.3-0.2-0.3-0.3-0.8-0.6-0.1-0.5-0.1-0.8-0.3 0.5-0.5 0.3-0.9 0.8-1.7-0.5-0.2-0.3-0.1-0.6-0.3h0.6v-0.6c-0.1-0.4-1-0.9-1.1-1.1v-7.2l0.6 0.3c-0.5-1.2-0.9-5.3-0.3-7-0.6-0.1-0.5-0.1-0.8-0.3 1.3-1.5 0.5-3.2 0.6-4.7 0.2-3.8-1-11.3-0.6-13.1 0.7-2.7-1.4-4.5 0-6.7-0.7-0.4-0.2 0.1-0.6-0.6h0.3v0.3c0.2 0.5 0.3-0.6 0.3-0.6-0.4-0.4-1.2-7.9-0.3-9.7h-0.3v0.3c-0.2 0.5-0.3-0.6-0.3-0.6 0.4-0.5 0.5-1.5 0.6-2.2-0.6-0.1-0.5-0.1-0.8-0.3 0.7-0.4 0.6-0.6 0.6-1.7-0.5-0.2-0.3-0.1-0.6-0.3 0.6-0.1 0.5 0 0.6-0.3 0.1-1 0.6-4.6 0-6.7-0.1-0.5-0.8-1.6-0.8-2.2-0.1-4.2 1.1-11.3 0.3-15.6-0.3-1.6 0-3.7 0.6-4.5-0.9-0.9-0.6-5.4-0.6-8.1 0-6.1-0.9-15.4-0.3-19.2l0.6 0.3c-0.2-0.3-0.4-0.6-0.6-0.8h0.3v-0.3c1.8-0.2 9.1-1.5 12-0.6v-0.3l-0.3-0.3h0.6c0.4 0.4 0.1-0.3 0.6 0 0.3 0.5 0.1 0 0 0.6 1.2 0 1.2 0.8 1.1 2.8-0.3 0.2-0.3 0.2-0.6 0.6h0.3v-0.3c0.2-0.5 0.3 0.6 0.3 0.6-1.4 0.7 0.4 2.2 0.3 3.6 0 0.1-0.6 1-0.6 1.4 0.1 0.6 0.9 1.3 0.8 1.9-0.3 0.2-0.8 5-0.6 6.1 0 0.1 0.4 3.6 0.3 4.2-0.3 2-0.6 5.5 0 8.6l-0.6-0.3v0.3c0.8 1.1 0.7 12.6 0.6 13.4h0.3v-0.3c0.2-0.5 0.3 0.6 0.3 0.6-0.2 0.3-0.1 0.3-0.3 0.8 0.7 0.1 0.4-0.2 0.6 0.6-1.4 2.2 0.4 5.3-0.3 8.3-0.4 2 0 5 0.3 5.6v8.1l-0.6-0.3v0.3c0.5 0.9-0.2 2.8 0 4.5 0.1 0.7 0.2 1.5-0.3 2.2 0.5 0.5 0.8 1.1 0.8 2.8h-0.3v-0.3c-0.2-0.5-0.3 0.6-0.3 0.6h0.6c0.3 0.2 0.1 0.1 0.6 0.3v-0.3s-1.1-0.1-0.6-0.3h0.3c0.8-0.7 0.4-0.3 0.8-1.1l0.6 0.3v-0.3c0-0.2 0.3-1 0.6-1.7 0.7 0.2 0.7 0.2 1.4 0-0.4-1-0.9-1-0.3-1.4 0.1-0.7-0.1-0.5 1.1-0.6 0.3-0.5 0-0.2 0.6 0v-0.6c-0.2-0.3 0-0.3 0-1.1l0.6 0.3c-0.2-0.3-0.4-0.6-0.6-0.8 0.7-0.4 0.2 0.1 0.6-0.6-0.7-0.5-0.7-0.7-0.6-1.4l0.6 0.3c-0.3-0.8-0.4-0.7-0.3-1.4h-0.3v0.3c-0.2 0.5-0.3-0.6-0.3-0.6-0.3-0.5 0-0.5-0.3-0.8-0.3 0.1-0.1 0.2-0.3 0-0.2-0.3-0.1-0.1-0.3-0.6 0.4-0.4 0.5-1.2 0.8-1.7v0.3c0.3 0.6 0.1 0.8 0 1.7 0.6 0.1 0.5 0.1 0.8 0.3-0.2 0.2-0.4 0-0.3 0.6h0.3v-0.3h0.3l0.3-0.6c-1-0.6-0.8-0.7-0.8-1.9 0.7 0 1.1-0.1 1.7-0.8l-0.6 0.3v-0.3h-0.3v-0.3c0.7-0.6 0.2-0.4 0.6-1.1-0.8 0-0.1 0.2-0.8-0.3 0 0.9 0.1 0.4 0 1.1-0.8-0.3-0.1-0.4-0.8 0 0-1.4 0.2-1-0.3-1.9h0.8c0.4 0.5 0.2 0.3 0.6 0.3h0.3v-0.3l-0.6 0.3v-0.3c-0.9-1 0.6-6.2 0.8-7.5l0.6 0.3c-0.5-1-0.3-1.1-0.6-2.2 0.3-0.2 0.6-0.3 0.8-0.6-0.6-0.1-0.5-0.1-0.8-0.3 0.9-0.2 0.4 0.1 0.8-0.6 0.5-0.8-0.1-2.3 0.6-3.6 0.4-0.2 0.7-0.4 1.1-0.6 0.4-0.9-0.7-0.9-0.6-1.9 0.1-0.4 1.3-2.5 0.3-2.8-0.5-0.2 0.6-0.3 0.6-0.3 0.2-0.9-0.1-0.4 0.6-0.8-0.5-0.9-0.3-1.3 0.3-2.5-0.6-0.1-0.5-0.1-0.8-0.3h1.1c-0.1-1.9-0.2-2 0.6-4.2-0.5-0.2-0.3-0.1-0.6-0.3 0.6-0.1 0.5-0.1 0.8-0.3-0.7-1.5 1-2.8 0.8-3.6-0.5-2.6 0.3-4.9 0.8-6.4 0.4-1.2-0.6-2.2-0.6-2.2 0.5-0.6 0.9-1 0.8-2.2l0.6 0.3v-0.3c-0.4-0.7 0.5-2.8 0.6-4.2 0.1-2.2-0.4-4.6 0.6-7.2-0.7-0.1-0.4 0.2-0.6-0.6 0.9-0.6 0.8-4.6 0.6-5.3h0.6v0.3h0.3v-0.3h-0.3c-0.3-0.3 0.3-0.3 0.3-0.3 1.4-1.1 4.5 0 7-0.3 1.2-0.1 6.1-0.1 6.7 0.3 0.8 1 0.9 8.6 1.1 9.7l-0.6-0.3v0.3c1.3 2.1 0.4 4.3 0.8 7 0.2 1.3 0.9 8.7 1.4 10.9 0.4 1.8-0.6 2.7 0 4.5 0.4 1.2 0.8 3.2 0.6 4.7-0.4 2.2 1.5 7.1 0 8.9 0.6 0.7 0.6 1.8 0.6 2.2-0.6 3.1 1 6.9-0.3 8.9h0.8c0 1.9 0.2 3.1-0.3 4.5 0.6 0.1 0.5 0.1 0.8 0.3-1.3 0.8-0.2 2.9-0.3 3.6-0.2 1.7-0.1 7.9 0.6 10.9 0.1 0.7-0.4 1.3-0.3 1.9 0.1 0.4 0.7 1.3 0.8 1.9-0.8 0-0.4-0.3-0.8 0 0.2 0.3 0.2 0.3 0.3 0.8 1 0 0.7-0.1 1.4 0-0.6-0.7-0.5-0.1-1.1-0.6h0.3c0.6-0.6 0.1-0.3 0.8-0.3-0.1-0.3-0.2-0.6-0.3-0.8 1.2-0.2 1.1-0.6 1.9-0.6v-0.3c-0.2-0.4-0.2-0.7-0.3-1.4 0.7 0.1 0.1 0.2 0.8 0-0.3-2.1 0.4-4.5 0.6-6.7 0.9-0.2 0.7-0.1 1.1-0.6h-0.3v0.3c-0.2 0.5-0.3-0.6-0.3-0.6 1-1.4 0.7-2.8 1.1-3.9-0.4-0.3-0.5-0.4-0.8-0.8 0.5-0.2 0.3-0.1 0.6-0.3-0.3-0.3-0.4-0.5-0.6-0.8h1.1c-0.2-0.6-0.3-0.9-0.3-2.2 0.7 0.1 0.1 0.2 0.8 0-0.2-0.6 0.5-5.2 0.8-6.1h-0.3v0.3h-0.3c0.2 0.9 0 0.9-0.3 1.9h-0.3v-0.3c-0.1-0.4 0.7-4.6 0.8-5h-0.3v0.3c-0.2 0.5-0.3-0.6-0.3-0.6 1.2-1 1.9-4 1.7-5.6l0.6 0.3c-0.1-0.3-0.2-0.6-0.3-0.8h0.6v0.3h0.3c-0.1 0.6-0.3 0.6 0 1.1 0.2-1.3 1-3.9 1.4-4.2-0.3-0.2-0.1-0.1-0.6-0.3-0.1 0.6-0.1 0.5-0.3 0.8-0.1-1.4-0.3-1.7 0.3-2.2 0.4-0.2 0.5-0.2 1.1 0v-0.3c-0.4-0.8 0-1.6 0-3.3h-0.6c0.2 0.8 0.5 1.1-0.3 1.4v-0.3h-0.3c0.3-1.2 0.6-2.4 0.8-3.6 0.7 0 0.8 0 1.4-0.8-0.4-0.5-0.8-1.4-1.1-1.9h1.1c-0.1-2.2 0.4-7 1.4-7.5-0.3-0.7-0.6-1.1 0-1.4 0.7-3.2 0.9-6.4 2.5-9.5h-0.3v0.3c-0.2 0.5-0.3-0.6-0.3-0.6 0.7-0.7 1.3-4.4 0.8-5.3h0.6v0.3h0.3v-0.3c-0.6-1.3 0.6-4.3 1.4-5.8h-0.3v0.3c-0.2 0.5-0.3-0.6-0.3-0.6 0.4-0.3 0.5-0.4 0.8-0.8h-0.3c-0.2 0.3-0.2 0.3-0.6 0.6v-0.8c0.3-0.3 0.6-0.7 0.8-1.1-0.3-0.2-0.3-0.2-0.6-0.6 0.5-0.5 0.6-1.2 0.8-2.2 0.7 0 0.8-0.2 1.7 0v-0.3s0-0.1 0.8-0.3c0.6 0.6 0.6 0.4 1.7 0.6 0.4-1 0.1-1.1 1.7-1.1 0.6 1 3.2-0.1 5 0.6 0.2 0.3 0.4 0.6 0.6 0.8 0.2 0.1 0.4-0.5 0.6-0.6 2.1 1.6 14.3 0 17-0.3 0.2 2.2 1.9 7.4 1.4 8.9 0.7 0.1 0.5-0.1 0.6 1.1 0.3 0.3 1 3.3 0.8 4.2 0.7-0.1 0.1-0.2 0.8 0-0.3 1.2 0.4 2.7 0.6 4.2 0.1 1.2 1.5 6.6 2.5 8.6-0.8 0-0.4-0.3-0.8 0h0.3c0.7 0.6 0.4-0.3 0.8 0.6-0.5 1.1 0.6 0.8 0 2.2 0.3-0.1 0.6-0.2 0.8-0.3-0.2 0.6 0 1-0.3 1.4-0.5 0.7-0.5 0.1-0.8 0.6 0.3 0.4 0.2 0.1 0 0.6-0.7-1.2-1.5-0.7-2.8-0.6v0.3c0.7 0.3-0.2 0.3 0.6 0.6 0.4 0.4 0.3 0 0.8-0.3 0.2 0.7 0.1 0.5 0.6 0.8l-0.6 0.6h1.9c0.1-0.6-0.3-0.3 0.3-0.6v-0.3h0.3c0 0.8-0.3 0.4 0 0.8 1.1 0.6 1 0.8 1.8 0.8m-123.5-24.5h0.8c0 0.7 0.2 1.2 0.8 1.7v-0.3l-0.3-0.3h0.6c0.4 1.3 1 0.9 1.9 1.7l-0.3 0.6c1.6 1.9 2 2.3 2.5 4.7l-0.6-0.3v0.3c0.5 0.4 0.9 1 1.1 1.7l-0.6-0.3v0.3c1.7 1.8 1.5 13.3 1.4 17.5h-0.3c-0.2-0.5-0.1-0.3-0.3-0.6 0.5 5.6-4.1 11.3-6.1 15.3h0.3v-0.3c0.2-0.5 0.3 0.6 0.3 0.6-3.2 0.1-1.3 1.9-5 2.2 0 0.8-0.4 1.5-1.1 1.7-0.3-0.1-0.1-0.2-0.3 0h0.3c0.3 0.3-0.3 0.3-0.3 0.3-0.5 0.4-0.7 0.2-1.1 0.8h0.3v0.3c-1.4 0.1-1.9 0.3-2.2 1.4 0.4 0.5 0.5 1 0 2.2 0.6 0.1 0.5 0.1 0.8 0.3-1 0.5 0.9 2.5 0.6 4.5-0.4 2.5 1.5 10 3.1 12.5-0.8 0-0.4-0.3-0.8 0 0.7 0.7 0.5 1.5 0.8 2.8l-0.6-0.3v0.3c1.2 1.1 0.9 3 1.4 6.1l-0.6-0.3v0.3c1.1 1.2 1.9 4.6 1.9 7.2h0.3v-0.3c0.2-0.5 0.3 0.6 0.3 0.6-0.5 1.4 0.4 5.4 0.8 5.8l-0.6 2.8c1.2 3.3 1.2 4.2 1.9 6.7l-0.6-0.3v0.3c0.9 0.8 0.2 1.1 0.6 2.5 0.2 0.8 2.1 7.3 1.7 8.6 0.8 0.1 0.6 1.4 0.6 3.1 1 1.1 0.4 2.8 0.6 3.1 1.6 1.9 0.9 3.1 1.9 5.6-0.9 0-2.1-0.1-2.5 0.3-0.6 0.5 0.2 0.3-0.6 0.6-0.4 0.2-0.7 0.2-1.4 0.3-0.1-1-0.3-1.5-0.6-1.7-0.2 0.1-1.2 0.1-1.4 0h-0.3v-0.3c0.5-0.2 0.3-0.1 0.6-0.3-0.1-0.1-2.2-3.4-2.5-4.2-0.6 0.2-1.3 0.4-1.9 0 0.6-0.1 0.5-0.1 0.8-0.3-1.5-0.3-1.4-0.7-1.7-1.7h-0.6v0.3s1.1 0.1 0.6 0.3h-0.6c-0.2 0.7-0.3 0.6-0.6 1.1-0.8 0-0.4-0.3-0.8 0-0.2-0.3-0.2-0.3-0.3-0.8 0.2-0.3 0.2-0.3 0.3-0.8h-0.8v-0.6c0.7 0 0.2 0.4 0.8-0.3-0.3-0.2-0.3-0.2-0.6-0.6h0.3v-0.3h0.6c0.1 0.8 0.2 1.2 0.6 1.7 0.4-0.7 0.3-0.2 1.1-0.6-0.5-1.8-1.3-2.1-1.7-3.3-0.5 0.4-0.6 0.3-0.8 0.6 0.4 0.4 0.6 0.9 0.8 1.4-0.8 0-0.4-0.3-0.8 0h0.3l-0.3 0.6h-0.3c-0.2-0.9-0.2-0.6-0.6-1.1 0.7-0.5 0.1-0.9 0.6-1.9-1-0.3-1.1-0.6-1.4-1.7l0.6 0.3v-0.3c0.2-0.3 0.2-0.5 0.6-1.1h-0.3c-0.4 0.5-0.2 0.4-1.1 0.6v-0.3c0.4-0.5 0.2-0.7 0.8-1.1l-0.3 0.6h0.3c0.2-0.3 0.4-0.6 0.6-0.8h-0.3v0.3c-0.2 0.5-0.3-0.6-0.3-0.6 0.4-1-0.4-1 0-2.2h-0.3v0.3c-0.2 0.5-0.3-0.6-0.3-0.6 0.4-0.8-0.1-1 0-2.2-0.6-0.1-0.8-0.1-1.1-0.3 0.6-0.1 0.5-0.1 0.8-0.3h-0.3v-0.3c-1 0.4-0.4 0.5-1.4 0v0.3c0.4 0.5 0.5 0.4 0.3 0.8-0.3 0.3-0.6 0.5-0.8 0.8-0.7-0.4-0.9-0.2-1.1-0.8-0.4-0.6-1-2.7-0.8-3.9h0.6v0.3h0.3c-0.7-1-1.1-1.5-2.5-2.5 0.2-0.6 0.1-0.9 0.3-1.1l0.6-0.6c0.3 0.1 0.6 0.2 0.8 0.3v0.6c-0.7 0.5-0.4 0.4-0.3 1.7 0.7 0.2 0.6 0.3 1.1 0.6-0.2-0.3-0.4-0.6-0.6-0.8h0.6c0.3 0.2 0.3 0.1 1.1 0.3 0.1 0.9 0.1 1.1 0.3 1.4v-0.3l0.6 0.3v-0.3c-0.2-0.5 0-1.9-0.8-3.1 0.6-0.3 0.5-0.7 0.8-1.7h-0.3v0.3c-0.2 0.5-0.3-0.6-0.3-0.6 0.3-0.2 0.3-0.2 0.6-0.6h-0.3c-0.2 0.3-0.2 0.3-0.6 0.6 0.1-1.2-0.2-1.1 0.3-2.2h-0.6c-0.4 0.9-0.2 0-0.8 0.6 0.5 0.2 0.3 0.1 0.6 0.3-0.8 0-0.8-0.2-1.1 0 0.4 0.6 0.2 0.8 0 1.4 0.7 0 1 0 1.4 0.3-0.6 0.1-0.7 0.1-1.1 0.3v0.3h0.3c0.3 0.3 0.6 0.2 1.1 0.8-0.4 0.3-0.2 0.3-0.8 0.6v0.3c-0.5 0.1-0.2-0.4-0.6 0-0.2-0.3-0.2-0.3-0.3-0.8-0.8-1.2-0.8-2.6-1.7-3.3 0.2-0.2 0.6-0.4 0.8-0.6h-1.4c0-0.9-0.4-1.5-1.1-2.2 0.7 0 1 0 1.4-0.3-0.6-0.1-0.5-0.1-0.8-0.3 1.5-0.7-1-7.1-1.7-8.9 0.7 0 0.2 0.4 0.8-0.3-0.5-0.1-0.9-0.2-1.1-0.8 0.7-0.2 0.5-0.1 0.8-0.6-0.7-0.1-0.4 0.2-0.6-0.8-0.2-0.4-0.2-0.7 0-1.4l-0.6 0.3v-0.3c-0.1-0.1-1.4-5.7-1.7-6.7l0.6 0.3c-0.5-1.1-0.5-1.2-0.6-2.5-0.6-0.1-0.5-0.1-0.8-0.3 0.7-0.4 0.3 0.1 0.6-0.8-0.3-0.2-0.3-0.2-0.6-0.6 0.5-0.2 0.3-0.1 0.6-0.3-1.1-0.8-0.4-1.2-0.8-1.9-0.1 0.4-0.3 1.1-0.6 1.4v-1.7c0.1 0 0.9 0.2 0.6-0.3-0.5-0.6-0.9-1.9-1.4-2.2l-0.3 0.6c-0.2 0.2-0.3 0.8-0.6 1.4 0.8 0 0.2 0 1.1 0.3-2.2 3.2-1.4 9.8-3.1 11.1-0.1 0.1 0.3 0.6 0.3 1.1-0.1 2.1 0.3 4.4-1.1 5.6 0 0.1 0.5 1.8 0.6 1.9 0.2 0.2-0.8 0.5-0.8 0.6-0.1 0.2 0.3 2.7 0.3 2.8h-0.6c-0.5 0.8-0.2 3 0.3 3.6h-0.6c-0.5 0.6 0.1 3.2-0.8 4.7h0.6l-0.3 0.6c-0.1 0.6-1.4 8.1-1.4 8.1-0.2 0.1-0.7 0.2-0.3 0.3-0.3 1.1-0.2 4.6-0.8 6.1 0.6 0.1 0.3-0.3 0.6 0.3-0.9 1.1-1.3 5.5-0.8 6.7-0.6 0.1-0.5 0.1-0.8 0.3 0.7 0.2-0.1 1.2-0.3 2.5h-0.3v-0.3c-0.7 0-0.3 0.1-1.1-0.3 0.1 0.6 0 1.2-0.3 1.9-0.5-0.2-0.3-0.1-0.6-0.3-0.2-0.2-0.3-0.4-0.6-0.6 0.2-0.2 0.4-0.3 0.6-0.6-0.4 0.1-0.7 0.2-1.1 0.3 0-0.7 0.2-0.5-0.6-1.1 0.1 0.6 0.3 0.6 0 1.1-0.2-0.3-0.2-0.3-0.6-0.6v0.3c0.5 0.4 0.3 0.2 0.6 0.8h-0.6v-0.3c-0.6-0.7-0.2-0.8-0.6-1.4v0.3c-0.6 0.7 0.3 0.4-0.6 0.8-0.3 0-0.6-0.1-0.8 0.6 0.3 0.3 0.1 0.3 0.6 0.8-1.5 0-1.4 0.1-2.8 0-0.3 1.1-0.8 1.8-1.1 2.5-0.7-0.1-3.5 1.2-4.2 2.5h-0.3v-0.3c-0.4-0.3-0.5-0.4-0.8-0.8 0.3-0.2 0.6-0.3 0.8-0.6-0.7-0.2-0.5-0.1-0.8-0.6 0 0 1.2-2 1.4-2.8 0.1-0.5-0.5-1.3-0.6-2.2h0.6v0.3h0.3v-0.3c-0.9-1.3-0.2-4.1 0.3-4.7-0.7-0.4-0.2 0.1-0.6-0.6 0.6-0.8 0.6-1.4 0.6-2.2l0.6 0.3v-0.3c-0.4-0.4 0-0.3 0.3-0.8h-0.3c-0.2-0.2-0.6-0.4-0.8-0.6h0.8c0.1-1.6 0.1-1.3 0.6-2.5-0.8-0.1-0.6-0.9-0.6-2.5 1-0.8 0.6-1.9 0.6-4.2l0.6 0.3c-0.3-0.5-0.3-0.5-0.6-1.1 0.8-0.9 0.6-2.3 0.3-3.3 0.6-0.1 0.5 0 0.6-0.3 0.5-1.4 0.3-4.7 0.3-4.7-0.1-0.1-0.5 0.1-0.3-0.3h0.6c0.3-0.7-0.1-3.4 0-4.5 0.4-3.3 1.4-11 1.9-14.5-0.7-0.4-0.2 0.1-0.6-0.6l0.6 0.3v-0.3c-0.4-0.5 0.4-1.9 0.8-2.8-0.6-0.1-0.3 0.3-0.6-0.3 0.5-0.3 0.6-0.6 0.8-1.1h-0.3c-0.2 0.4-0.3 0.6-0.6 0.8v-0.8c0.8-1.2 0.2-4.3 1.4-5-0.4-0.5-0.4-0.2-0.6-1.1 0.5-0.2 0.3-0.1 0.6-0.3-0.5-0.2-0.3-0.1-0.6-0.3 0.6-0.1 0.5-0.1 0.8-0.3-0.5-0.2-0.3-0.1-0.6-0.3 0.7-1.1 0.8-3.1 0.6-4.7l0.6 0.3v-0.3c-0.3-0.7 0.9-7.5 1.4-8.1-0.7-0.4-0.2 0.1-0.6-0.6 1-0.5 0.2-2 0.6-3.1 0-0.2 0.8-0.8 0.8-0.8 0.2-0.8-0.6-1.6 0-2.8h0.6c0.2-0.8-0.5-0.4-0.6-0.6-0.3-1.4 0.5-3.1 0.8-3.6-0.6-0.1-0.3 0.3-0.6-0.3 0.9-1.3 0.3-3.7 1.4-5.8-0.6-0.1-0.3 0.3-0.6-0.3 1.1-0.7 0.2-1.7 0.6-3.1 0.1-0.2 0.8-0.9 0.8-1.1-0.2-0.3-0.4-0.6-0.6-0.8 1.1-1.2 0.6-3.6 1.7-5.6-0.6 0.1-0.3 0.3-0.8 0 2-1.9 1.1-9.5 2.5-12.2-0.6-0.1-0.3 0.3-0.6-0.3 0.3-0.2 0.3-0.2 0.6-0.6-0.7-0.4-0.2 0.1-0.6-0.6l0.6 0.3v-0.3c-0.4-0.6-0.4-1.2-0.3-1.7l0.6 0.3c-0.4-0.9-0.3-1.1-0.3-2.8l0.6 0.3c-0.3-1-0.3-1.8 0.3-2.8-0.6-0.1-0.3 0.3-0.6-0.3 1.1-0.7 0.9-4.4 1.1-5.6l0.6 0.3c-0.1-0.7-0.2-0.4 0-1.1h-0.3v0.3c-0.2 0.5-0.3-0.6-0.3-0.6 6.1-0.4 10.3 0.4 13.4 1.9 1.4 0 6.4 0.6 7.2 1.1 0.7 0.4 0.7 1.1 1.7 1.4-0.2-0.2-0.4-0.3-0.6-0.6 2.5 0.5 7.6 4.6 7.7 5.2m-58.2-5.5c0.2 0.3 0.2 0.3 0.3 0.8h-0.3v-0.8m44.8 0.8c-0.3 1.5-0.7 3.1-1.1 4.7-0.2 0.9 0.2 2 0.3 2.5v1.9h-0.6c-0.6 1.4 0.3 3.3 0 4.5-0.2 1-0.9 2.2-1.1 3.3 0 0.2 0.4 1 0.3 1.7-0.1 1.2-0.3 1.8-0.3 4.2h0.3v0.3h-0.6c-0.2 0.5 0.1 0.4 0.3 0.6-0.2 0.3-0.5 0.1-0.6 0.3v0.6c0.5 0.8-0.6 3.9-0.6 4.7l0.6 0.6v0.3c-1.2 2-2.6 8-2.2 10.3-0.6 0.1-0.5 0.1-0.8 0.3 0.3 0.5 0.3 1.4 0.3 2.2-0.7-0.1-0.1-0.2-0.8 0 0.6 1.8-0.3 2.9-0.8 4.5-0.2 0.7 0.2 1.6 0.3 1.9-0.6 1.5-0.8 2.6-0.6 4.5 0.8 0.1 1.2 0.6 1.4 0.3h0.3v-0.3h-0.3v-0.3c-0.7 0-0.5 0.2-1.1-0.3 1.1-0.1 0.6-0.7 1.1 0 0.3 0.1 0.6 0.2 0.8 0.3 0 0.6-0.3 0.1 0 0.6v0.3c0.6-0.1 0.8 0.2 1.1 0 0.2-0.3 0.1-0.3 0.3-1.1l0.6 0.3v-0.3l0.6-0.3v0.3h0.3v-0.3c-0.2-0.3-0.1-0.1-0.3-0.6 0.3-0.2 0.6-0.4 0.8-0.6v-0.3l0.6 0.3c-0.2-0.6-0.5-0.9-0.3-1.4 0.4-1.1 1.7-1 2.5-1.9h-0.3s-0.4 0.8-0.6 0.6v-0.3h-0.3v-0.3c1-0.4 1-1 1.9-1.4v-0.3c-0.6-0.1-0.7-0.1-1.1-0.3 0.1-0.9 0.2-0.3-0.3-1.1 0.6-0.1 0.8-0.1 1.1-0.3-0.4-0.7-0.2-1.2 0-1.9l0.6 0.3c-0.2-0.3-0.4-0.6-0.6-0.8 1.6-0.3 0.6-0.7 1.4-1.7 0 0 1.1 0 1.4-0.3-0.6-0.1-0.5-0.1-0.8-0.3 0.7 0 0.9-0.1 1.4-0.3-0.1-0.4-0.2-0.5-0.3-1.1l0.6 0.3v-0.3c0.1-0.4-0.1-0.5 0.8-0.8-0.5-0.8-0.3-0.1-0.3-1.4 0.6-0.5 1.2-1 1.4-1.4s0.2-1 0-1.7c0.6-0.1 0.8-0.1 1.1-0.3-0.7-1.1 0.8-4 1.9-4.7v-0.3l-0.6-1.1c0-0.1 0.8-0.7 0.8-0.8 0.2-0.6-0.3-1.1 0.3-2.2 0.2-0.5 0.7-0.6 0.8-1.1 0.2-0.6-0.6-1.6-0.6-1.7 0.3-0.2 0.6-0.4 0.8-0.6-1.9-3.9 1.7-7.4-1.7-11.4 0.5-0.2 0.3-0.1 0.6-0.3-0.7-0.4-0.2 0.1-0.6-0.6l0.6 0.3c-0.4-0.8-1.1-3.4-1.4-3.6-0.4-0.3-1.4-0.3-1.4-0.3-2-2.9-3.3-4-7.3-5.1m-44.2 0.3c0.1 0.6 0.1 0.8 0.3 1.1-0.1-0.7-0.1-0.8-0.3-1.1m15.6 0v0.6h0.3v-0.6h-0.3m126 2.2c0.2 0.3 0.1 0.1 0.3 0.6h-0.3v-0.6m-98.2 2.2c0.4 0.5 0.4 1.7 0 2.2v-2.2m97.4 4.7c-0.1 0.4 0.4 0.4 0.6 0.6 0.1-0.3-0.5-0.5-0.6-0.6m109.3 0c0.2 0.3 0.2 0.3 0.3 0.8h-0.3v-0.8m-0.5 2.8c0.2 0.3 0.1 0.1 0.3 0.6h-0.3v-0.6m-0.3 0.6c0.2 0.3 0.1 0.1 0.3 0.6h-0.3v-0.6m-100.4 29.8c0 1.9-1.2 2.9 0.3 4.7-0.8 0-0.8-0.2-1.1 0 0.5 0.9 0 1.2-0.6 1.9 0.7-0.1 0.1-0.2 0.8 0-0.5 2.2-0.9 1.5-0.8 4.2h0.3c0-0.8 0-1.5 0.3-1.9v2.2c-1.2 0.6-1 1.4-0.6 2.2-0.6 0.1-0.5 0.1-0.8 0.3 0.2 0.4 0.2 1 0.3 1.9h-1.1c0.2 1.2-0.5 2.2-0.6 3.9l-0.6-0.3v0.3c0.2 0.7-0.2 1.7-0.6 2.5h0.3v-0.3c0.2-0.5 0.3 0.6 0.3 0.6-1.2 0.6-0.7 3.9-1.4 5.3h0.3c1.1-1 1.8-0.5 3.6-0.3 0.1-0.7-0.2-0.4 0.6-0.6 0.9 0.7 3.4 0 5.3 0.6 0.5-1.2 0.7-1.5 1.1-2.5 0 0 0.6-8.7 0-9.7h0.6c0.3-0.9-0.7-4.9-0.3-6.1 0.9-2.5-0.1-11.6 0.8-13.4v-3.6l0.6 0.3c-0.3-0.4-0.6-0.7-0.8-1.1h0.8c0-1.3-0.2-1.6-0.6-2.2-0.4-0.7 0.4-8.9 0.6-10.3 0.3-2.5-0.8-3.7 0.3-7h-0.3v0.3c-0.2 0.5-0.3-0.6-0.3-0.6h0.3l-0.3-0.6c-0.3 0.2-0.6 0.4-0.8 0.6 0.3 0.5 0.1-0.1 0.6 0.3-0.5 0.7-0.7 2.2-1.1 3.1h0.3v-0.3c0.2-0.5 0.3 0.6 0.3 0.6-0.8 0.8 0.1 1.7-0.6 2.8-0.1 0.2-0.7 0.3-0.8 0.6 0.3-0.1 0.6-0.2 0.8-0.3v0.3h-0.3v0.3h0.3c-0.2 0.2-0.6 0.4-0.8 0.6 0 0 0.2 3.6 0 3.9-0.1 0.1-0.8 0.3-0.8 0.6-0.2 0.6 0.7 2 0.3 3.1-0.7-0.2-0.5 0.1-0.8 0.8h0.3v-0.3c0.2-0.5 0.3 0.6 0.3 0.6-0.6 0.7-0.3 0.1-0.3 1.1-0.6 0.1-0.5 0.1-0.8 0.3 1.2 0.8-2.3 8.5-1.7 10.9-0.6-0.3-0.9-0.3-1.1-0.3m-9.8-28.4h0.6v0.3c-0.5-0.2-0.3-0.1-0.6-0.3m15.9 1.1c0.2 0.3 0.1 0.1 0.3 0.6h-0.3v-0.6m18.1 0v0.6h0.3v-0.3h0.3c-0.4-0.3-0.2-0.1-0.6-0.3m-0.3 1.9c-0.1 0.3-0.2 0.6-0.3 0.8 1.2 0.1 0.3-0.2 1.1 0.6v-0.8h-0.3l0.3-0.6c-0.7 0.1-0.1 0.2-0.8 0m1.1 1.4c-0.5 1.5-0.1 1.8-0.6 3.1 0.6-0.1 0.3-0.3 0.8 0-0.3 0.2-0.3 0.2-0.6 0.6 0.6-0.1 0.6-0.3 1.1 0-0.5 0.3-1 0.4-0.6 0.8 0.5 0.8 0.3 1 1.1 1.7v-0.3c0-0.2-0.1-0.1 0.3-0.6-0.5-0.2-0.3-0.1-0.6-0.3h0.8c0.5 0.7 0.8 0.9 1.7 1.1-0.1 0.7-0.2 1.5 0.3 1.9 0.5-0.3 0-0.1 0.6 0-0.3-0.4-0.6-0.7-0.8-1.1 0.8-0.5 0.5-1.3 0.6-1.9h-0.3v0.3c-0.2 0.5-0.3-0.6-0.3-0.6l-0.3-0.3h0.6v0.3h0.3c-0.4-0.7-0.8-1.1-1.1-1.9h-0.3c0.1 0.9 0.1 0.7 0 1.7h-0.6l0.3-0.6h-0.3c-0.6 0.2-0.7 0.3-1.1-0.6 0.8-0.8 0.8-1.4 0.8-2.5-0.7-0.2-0.7-0.3-1.1-0.8-0.5 0.2-0.2 0.5-0.7 0 0.2 0 0.1 0 0 0m-19.2 0.3c0.2 0.3 0.1 0.1 0.3 0.6h-0.3v-0.6m18.4 0v0.6h0.3v-0.6h-0.3m-17.8 1.4c0.3 0.5 0.3 0.6 0 1.1v-1.1m-0.9 0.8h0.6v0.3c-0.5-0.2-0.3 0-0.6-0.3m-99.6 1.4c0.1 0.1 0.6 0.1 0.3 0.6-0.3-0.2-0.9-0.5-0.3-0.6m120.2 0.3h0.6c-0.4 0.5-0.1 0.3-0.6 0m0.8 2.2-0.3 0.6c0.6-0.4 0.3-0.6 0.3-0.6m-0.2 2.5c0.1 0.6-0.3 0.3 0.3 0.6-0.2-0.5-0.1-0.3-0.3-0.6m-23.4 0.6v0.6h0.3v-0.6h-0.3m-100.2 2.5c0.2 0.3 0.1 0.1 0.3 0.6h-0.3v-0.6m84.6 0.8c-0.2 0.3-0.4 0.6-0.6 0.8 0.5 0.4 1.2-0.4 0.6-0.8m-1.4 1.7c0.6 0.4 0.5 0.3 0.6 0.6v0.3h-0.3v-0.3c-0.2-0.3-0.1-0.1-0.3-0.6m0 1.7 0.8 0.8c0.2-0.3-0.6-0.7-0.8-0.8m33.1 0.3c0.3 0.2 0.1 0.1 0.6 0.3-0.3-0.3-0.1-0.2-0.6-0.3m-80.1 0.2c0.2 0.3 0.1 0.1 0.3 0.6h-0.3v-0.6m81 0c-0.2 0.2-0.9 0.4-1.1 0.6 1.4 0 1 0.2 1.9-0.3-0.1 0.9-0.6 0.7 0.3 1.1v-0.3l0.6 0.3v-0.3h0.3v-0.3h-0.3c-0.8-0.6-1-0.6-1.7-0.8m-34.3 0.6 0.8 0.8c0.2-0.3-0.6-0.7-0.8-0.8m38.4 1.4c-0.1 0.4 0.4 0.4 0.6 0.6 0.2-0.4-0.5-0.5-0.6-0.6m-124.6 0.3c0.7 0.6 0.1 0.3 0.3 0.8-0.6 0.2-0.3-0.6-0.3-0.8m88.2 0v0.6h0.3v-0.6h-0.3m-2 0.5c0.2 0.3 0.1 0.1 0.3 0.6h-0.3v-0.6m15.3 2.2c0.1 0.1 0.6 0.1 0.3 0.6-0.3-0.1-0.8-0.5-0.3-0.6m-16.9 0.9c0.2 0.4 0.4 1.5 0.6 1.9h-0.6v-1.9m-123 0.8c0.2 0.3 0.1 0.1 0.3 0.6h-0.3v-0.6m138.8 0.8c0.2 0.3 0.1 0.1 0.3 0.6h-0.3v-0.6m-127.4 0.9c0.2 0.3 0.1 0.1 0.3 0.6h-0.3v-0.6m75.9 0c0.2 0.3 0.2 0.3 0.3 0.8h-0.6v-0.3c0.3-0.3 0.2 0 0.3-0.5m-76.2 1.9c0.2 0.3 0.1 0.1 0.3 0.6h-0.3v-0.6m112.1 0v0.6h0.3v-0.6h-0.3m38.4 0.6v0.6h0.6l0.3-0.6c-0.7 0.1-0.1 0.2-0.9 0m-38.9 0.3c-0.1 0.4 0.4 0.4 0.6 0.6 0.1-0.4-0.5-0.6-0.6-0.6m-91 0.5c0.6 0.1 0.8 0.1 1.1 0.3-0.6-0.1-0.8-0.1-1.1-0.3m129.9 0v0.6h0.3v-0.6h-0.3m-134.9 0.3c0.2 0.3 0.1 0.1 0.3 0.6h-0.3v-0.6m7.2 0h0.6v0.3c-0.5-0.2-0.3-0.1-0.6-0.3m-0.3 0.3c0.2 0.3 0.1 0.1 0.3 0.6h-0.3v-0.6m132.8 13.1c0-1.3 0.1-1.1 0.3-2.5h-0.8l-2.5-5.8c-0.4 0.2 0 0-0.8 0v-0.3h0.3v-0.3l0.6 0.3c-0.4-0.5-0.8-0.5-1.1-1.1h0.6c-0.2-0.4-0.8-0.2-0.3-0.6 0.2-0.3 0.2-0.3 0.6-0.6-0.7-0.8-0.6-0.8-0.8-1.7h-0.3v0.3c-0.2 0.3-0.1 0.3-0.3 0.8h-0.3c-0.1-0.6-0.1-0.5-0.3-0.8v0.8c0.2 0.5 0.1 0.2 0 0.8 0.7 0.1 0.4-0.2 0.6 0.8 0.6 0.5-0.3 0.2-0.6 0.6 0.6 1.6-0.4 1.1-0.3 1.7 0.7 3.7 0 10.1 0 15.3 0.7 0.1 0.4-0.2 0.6 0.6h-0.3v-0.3c-0.2-0.5-0.3 0.6-0.3 0.6 0.8 0.2-0.1 0.2 0.6 0.6 0.9-0.6 2.2-0.7 3.9-0.6 0 0.6-0.3 0.1 0 0.6 0.6-0.3 0.6-0.1 1.4 0 0.1-0.6-0.3-0.3 0.3-0.6 0.9 1 1.6 0.1 3.1 0.6v-0.3c0.1-0.2 0-0.2 1.1-0.3v-0.3h0.3v-0.3l-0.6-0.3c-0.1 0.7 0.2 0.4-0.6 0.6v-0.6c0.3-0.5-0.2-0.7 0.3-1.4-0.9-0.3-0.7-0.2-1.4-0.6 0.2-0.6 0.4-1.1 0.6-1.7-0.7 0.1-0.2 0.1-1.1 0 0.1-0.7-1-4.3-1.4-4.5-0.6 0.4-0.5 0.3-1.1 0.5m-79.3-11.5c0.3 0.2 0.1 0.1 0.6 0.3-0.4-0.2-0.1-0.1-0.6-0.3m25 0c0.2 0.3 0.1 0.1 0.3 0.6h-0.3v-0.6m50.1 0.3c0.2 0.3 0.1 0.1 0.3 0.6h-0.3v-0.6m-1.1 0.9c0.1 0.6 0.1 0.5 0.3 0.8v-0.8h-0.3m-128.6 0.2c0.2 0.7 0.1 0.5 0.6 0.8-0.2-0.3-0.3-0.5-0.6-0.8m-1.6 0.3c0.7 0.3 0.5-0.3 0.8 0.6h-0.3v0.3h-0.3v-0.3c-0.2-0.3-0.1-0.1-0.2-0.6m107.7 0c0.2 0.3 0.1 0.1 0.3 0.6h-0.3v-0.6m-156.4 0.6h0.6v0.3c-0.6-0.2-0.4-0.1-0.6-0.3m47.5 0h1.1v0.3h-0.3v0.3c-0.3-0.3-0.5-0.4-0.8-0.6m49.3 0c0.2 0.3 0.1 0.1 0.3 0.6h-0.3v-0.6m-50.9 0.8c0.6-0.1 1.3-0.2 1.9-0.3v0.3c-0.2 0.3-0.1 0.1-0.3 0.6-0.3-0.1-0.4-0.4-0.6-0.6-0.3 0.4-0.5 1.3-0.8 0.8-0.2-0.3-0.1-0.2-0.2-0.8m133 1.4h0.6v0.3c-0.5-0.2-0.3-0.1-0.6-0.3m1.9 0c0.2 0.3 0.1 0.1 0.3 0.6h-0.3v-0.6m30.7 1.7h0.6v0.3c-0.6-0.2-0.4-0.1-0.6-0.3m-80.7 5.5c0.2 0.3 0.1 0.1 0.3 0.6h-0.3v-0.6m-29.8 0.9c0.7 0.3 0.4 0.3 1.1 0.6-1 0.6-0.8 0.2-1.1-0.6m29.8 0c0.2 0.3 0.2 0.3 0.3 0.8h-0.3v-0.8m-28.7 0.2h0.6v0.3c-0.5-0.2-0.3 0-0.6-0.3m10.3 0c0.2 0.3 0.1 0.1 0.3 0.6h-0.3v-0.6m23.1 2.3c0.3 0.5 0.5 0.3 0 0.6v-0.6m-4.7 0.5c0.2 0.3 0.1 0.1 0.3 0.6h-0.3v-0.6m4.4 0c0.2 0.3 0.1 0.1 0.3 0.6h-0.3v-0.6m-34.8 0.6c0.3 0.3 0.4 0.5 0.6 0.8h-0.6v-0.8m-0.5 0.3c0.2 0.3 0.1 0.1 0.3 0.6h-0.3v-0.6m36.4 0.5c0.2 0.3 0.2 0.3 0.3 0.8h-0.3v-0.8m-30 0.3c0.3 0.2 0.1 0.1 0.6 0.3l-0.6-0.3m98.2 0.6c-0.4 0.7 0.4 0.7 0.6 0.6-0.2-0.3-0.5-0.5-0.6-0.6m-23.4 1.3h0.6v0.3c-0.5-0.2-0.3 0-0.6-0.3m5.9 0.3c0.6 0.1 0.5 0.1 0.8 0.3-0.6-0.1-0.5-0.1-0.8-0.3m-126.9 0.3c0.2 0.3 0.1 0.1 0.3 0.6h-0.3v-0.6m160.5 0h0.6v0.3c-0.5-0.2-0.3-0.1-0.6-0.3m-63.1 0.3c0.6 0.1 0.5 0.1 0.8 0.3-0.6-0.1-0.5-0.1-0.8-0.3m27.5 0h0.6v0.3c-0.5-0.2-0.3-0.1-0.6-0.3m-76 0.3h0.6v0.3c-0.5-0.2-0.3-0.1-0.6-0.3m-1.6 0.8c0.2 0.3 0.1 0.1 0.3 0.6h-0.3v-0.6m-0.9 0.3c0.6 0.5 1.1 1.1 0 1.4v-0.3h-0.3c0.2-0.4 0.3-0.5 0.3-1.1m-0.5 0.2c0.2 0.3 0.1 0.1 0.3 0.6h-0.3v-0.6m1.7 0c0.2 0.3 0.1 0.1 0.3 0.6h-0.3v-0.6m-9 0.6h0.6v0.3h-0.3v0.3c-0.2-0.3-0.1-0.1-0.3-0.6m9.2 0h2.5v0.3c-0.2 0.3-0.1 0.1-0.3 0.6h-0.3c-0.2-0.3-0.2-0.3-0.6-0.6 0.1 0.6 0.3 0.6 0 1.1-0.3-0.5 0-0.2-0.6 0 0.2-1.6-0.2 0-0.7-1.4m25.4 0.8c0.3 0.3 0.4 0.5 0.6 0.8h-0.6v-0.8m0.5 0c0.3 0.5 0.5 0.3 0 0.6v-0.6m-27.8 0.3c0.3 0.1 0.6 0.2 0.8 0.3v0.3h-0.8v-0.6m27.3 0.9h0.6v0.3c-0.6-0.2-0.4-0.1-0.6-0.3m-25.9 0.2h1.4v0.3h-0.3v0.3c-0.9-0.3-0.8 0.1-1.1-0.6m79.6 0.3c0.3 0.2 0.1 0.1 0.6 0.3l-0.6-0.3m-79.3 0.3c0.7 0.2 0.6 0.3 1.1 0.6-0.5 0.8-0.5 0.7-0.8 1.7-0.2-0.2-0.3-0.4-0.6-0.6 0.1 0.4 0.2 0.7 0.3 1.1-0.7 0-0.2-0.4-0.8 0.3 0.7-0.1 0.1-0.2 0.8 0-0.4 0.8 0.3 0.6-0.8 0.8v0.3c-0.3 0.3-0.3-0.3-0.3-0.3-0.7-0.9 0.6-3.2 1.1-3.9m121.8 0.3c0.2 0.3 0.1 0.1 0.3 0.6h-0.3v-0.6m-41.7 0.5c0.3 0.2 0.1 0.1 0.6 0.3-0.3-0.2-0.1-0.1-0.6-0.3m-54.3 0.3h0.6v0.3c-0.5-0.2-0.3-0.1-0.6-0.3m55.7 0.3v0.6h0.3v-0.6h-0.3m57 0h0.6v0.3c-0.5-0.2-0.3-0.1-0.6-0.3m-137.7 0.3c0.2 0.3 0.1 0.1 0.3 0.6h-0.3v-0.6m24.2 0c0.4 0.4 0.8 1.2 0.6 1.4v0.3c-0.2-0.3-0.1-0.1-0.3-0.6-0.2-0.4-0.2-0.5-0.3-1.1m0.6 0c0.2 0.3 0.2 0.3 0.3 0.8h-0.3v-0.8m53.4 0c0.7 1.4 0.2 0.9 1.1 1.7-0.3 0.2-0.6 0.3-0.8 0.6 0.9 0 0.4-0.5 0.8 0.3-0.1 0.3-0.2 0.1 0 0.3 0.4-0.6 0.3-0.5 0.6-0.6 0.2 0.3 0.1 0.1 0.3 0.6 0.6-0.4 0.6-0.2 1.1-0.6h0.3v-0.3c-0.3-0.2-0.3-0.2-0.6-0.6-0.4 0.3-0.6 1-0.8 0.6h-0.3v-0.3c0.3-0.2 0.3-0.2 0.6-0.6-0.6 0-0.1 0.3-0.6 0-0.6-0.5 0.2-0.3-0.6-0.6 0 0-0.1 1.1-0.3 0.6v-0.6c-0.4-0.3-0.2-0.3-0.8-0.5m3.6 0c0.4 0.3 1 0.6 1.4 0.8v-0.3c0-0.2-0.1-0.1 0.3-0.6-0.6 0.1-1.1 0.1-1.7 0.1m-40.9 0.5c0.3 0.2 0.1 0.1 0.6 0.3-0.3-0.2-0.1-0.1-0.6-0.3m40.1 0c-0.1 0.4 0.4 0.4 0.6 0.6 0.1-0.3-0.6-0.5-0.6-0.6m-40.9 6.1h0.8v-0.3h-0.3c0.6-1.9 0-1.6 0.8-3.6-0.7-0.1-0.4 0.2-0.6-0.6 0.5-0.6 0.4-0.4 0.3-1.1-0.4 0.3-0.5 0.4-0.8 0.8h0.3v-0.3c0.2-0.5 0.3 0.6 0.3 0.6-1.1 0.7-0.9 2.5-0.8 4.5m40.6-5c0.3 0.5 0.5 0.3 0 0.6v-0.6m1.4 0.3c0.5 0.3 0.6 0.3 1.1 0h-1.1m-87.1 0.3h0.6v0.3c-0.6-0.2-0.3-0.1-0.6-0.3m118.5 0c0.4 0.5 0.4 1.7 0 2.2v-2.2m-115.2 0.3h0.6v0.3c-0.5-0.2-0.3-0.1-0.6-0.3m-1.4 0.2c0.2 0.3 0.1 0.1 0.3 0.6h-0.3v-0.6m43.7 0.3c0.2 0.3 0.2 0.3 0.3 0.8h-0.3v-0.8m-44 0.3c0.6 0.7 0.3 0.1 0.3 1.1h-0.3v-0.3c-0.1-0.4 0 0 0-0.8m83.5 0v0.6h0.3v-0.6h-0.3m3.4 0.8c0 0.6-0.1 0.2 0.6 0.3v-0.3h-0.6m-87.7 0.3c0.8 0.1 1.2 0.2 1.7 0.6-0.5 0.2-0.3 0.1-0.6 0.3h0.6c0.3-0.3 0.5-0.4 0.8-0.6 0.3 0.8 0.5 0.7 0.8 1.4-0.7-0.1-1.4 0.1-2.2 1.1 0.6-0.1 0.6-0.3 1.1 0-0.8 0.5-0.7 1.2-1.7 1.7v0.3c-0.3 0.3-0.3-0.3-0.3-0.3h-0.3v-0.3c0.5-0.2 0.3-0.1 0.6-0.3-0.7-0.4-0.2 0.1-0.6-0.6 0.5-0.5 0.8-1.3 1.1-1.9-0.6 0.1-0.3 0.3-0.8 0 0.5-0.4 0.3-0.2 0.6-0.8-0.3-0.2-0.5-0.3-0.8-0.6m1.7 0h0.6v0.3c-0.5-0.2-0.3-0.1-0.6-0.3m-1.4 0.6c0.2 0.3 0.1 0.1 0.3 0.6h-0.3v-0.6m27.5 0.5c0 0.2-0.4 1-0.3 1.1 0.8-0.4 0.4-0.6 0.3-1.1m16.7 0c0.2 0.3 0.1 0.1 0.3 0.6h-0.3v-0.6m96 0c0.2 0.3 0.1 0.1 0.3 0.6h-0.3v-0.6m-146.3 0.3c-0.3 0.6-0.2 0.5-0.8 0.8v-0.3h0.3c0.5-0.2-0.6-0.3-0.6-0.3v0.6c0.4 0.3 0.2 0.3 0.8 0.6 0.2-0.3 0.2-0.3 0.6-0.6-0.3-0.5 0-0.5-0.3-0.8m2.2 0c0.3 0.6-0.1 0.5 0.3 0.8 0.4-0.6 0-0.3-0.3-0.8m-104.9 0.8c0.2 0.3 0.1 0.1 0.3 0.6h-0.3v-0.6m27.3 0h0.6v0.3c-0.6-0.2-0.4 0-0.6-0.3m111 0v0.6h0.3v-0.3h0.3c-0.3-0.2-0.1-0.1-0.6-0.3m85.4 0c0.1 0.1 0.7 1 0.8 0.3 0.1 0-0.5-0.2-0.8-0.3m-115.7 0.6c0.7 0.4 0.2-0.1 0.6 0.6h-0.3v0.3h-0.3v-0.9m0 1.1h0.6v0.3c-0.6-0.2-0.4-0.1-0.6-0.3m85.9 0.3c0.6 0.1 0.5 0.1 0.8 0.3-0.5-0.1-0.5-0.1-0.8-0.3m-107.1 0.3c0.4 0.5 0.4 2 0 2.5v-2.5m19.8 0h1.4c0.4 0.6 0.6 0.6 0.8 1.4h-0.3c-0.7-0.8-0.6-0.7-1.9-0.6v-0.8m116.3 0c0.3 0.2 0.1 0.1 0.6 0.3-0.3-0.3-0.1-0.2-0.6-0.3m-39.8 0.2h0.6v0.3c-0.5-0.2-0.3 0-0.6-0.3m1.7 0h0.6v0.3c-0.6-0.2-0.4 0-0.6-0.3m12.5 0c0.9 0.2 0.4-0.1 0.8 0.6h-0.3c-0.2-0.2-0.3-0.3-0.5-0.6m-59.8 1.2c0.2 0.6 0.1 0.9 0.3 1.1 0.3-0.2 0.1-0.1 0.6-0.3v-0.3c-0.4-0.2-0.7-0.4-0.9-0.5m78.7 0v0.6h0.3v-0.6h-0.3m-107.1 0.2h0.6v0.3c-0.6-0.2-0.3 0-0.6-0.3m-1.1 0.6h0.6v0.3c-0.6-0.2-0.4-0.1-0.6-0.3m-21.2 0.5c0.4 0.5 0.4 1.4 0 1.9v-1.9m95.5 0.3c0.2 0.3 0.1 0.1 0.3 0.6h-0.3v-0.6m0.2 0.6c0.2 0.3 0.1 0.1 0.3 0.6h-0.3v-0.6m-95.7 1.4c0.4 0.5 0.3 1.2 0 1.7v-1.7m21.7 0.5c0.3 0.5 0.5 0.3 0 0.6v-0.6m-53.4 0.3v0.6h0.6v-0.6h-0.6m-0.3 0.8c0.5 0.5 0.8 0.3 1.1 0.6 0.2-0.3 0.1-0.1 0.3-0.6h-1.4m48.1 0c0.2 0.3 0.1 0.1 0.3 0.6h-0.3v-0.6m128.6 0c0.2 0.3 0.1 0.1 0.3 0.6h-0.3v-0.6m-128 0.3c0.3 0.1 0.6 0.2 0.8 0.3-0.3 0.8-0.4 0.2-0.8-0.3m1.4 0h0.6v0.3c-0.5-0.2-0.3-0.1-0.6-0.3m15.9 0c0.2 0.3 0.1 0.1 0.3 0.6h-0.3v-0.6m-64.9 0.6c-0.3 0.8 0.5 0.4-0.3 0.8v0.3h-0.3v0.3c0.8 0.2 0.8 0.5 1.4 0.8-0.2-0.3-0.4-0.6-0.6-0.8 0.8-0.2-0.1-0.2 0.6-0.6-0.5-0.6-0.1-0.6-0.8-0.8m47 0c0.6 0.1 0.7 0.1 1.1 0.3v0.3c-0.8-0.2-0.6-0.1-1.1-0.6m3.9 0h0.6v0.3c-0.5-0.2-0.3-0.1-0.6-0.3m-3.9 1.4c0.1-0.6 0.1-0.5 0.3-0.8 0.4 0.4 0.5 0.2 0.8 0.8h0.3v0.3h-0.6c-0.2-0.3-0.2-0.2-0.8-0.3m2.8-0.3c0.6 0.1 0.7 0.1 1.1 0.3-0.2 0.3-0.3 0.2-0.6 0.6h0.6c0.3 0.2-0.3 0.3-0.3 0.3l-0.3 0.6h-0.3v-0.3c-0.3-0.2-0.3-0.2-0.6-0.6 0.9-0.6 0.5-0.1 0.4-0.9m-2.8 0.5c0.6 0.1 0.5 0.1 0.8 0.3-0.5-0.1-0.5 0-0.8-0.3m47.1 0.3h0.6v0.3c-0.6-0.2-0.3 0-0.6-0.3m-42 1.4h0.6v0.3c-0.6-0.2-0.4-0.1-0.6-0.3m42 0.3c0.2 0.3 0.1 0.1 0.3 0.6h-0.3v-0.6m-81 0.3h0.6v0.3c-0.5-0.2-0.3-0.1-0.6-0.3m17.8 0c0.2 0.3 0.2 0.3 0.3 0.8h-0.3v-0.8m15.9 0h0.6v0.3c-0.6-0.2-0.3-0.1-0.6-0.3m4.4 0.8c0.2 0.3 0.1 0.1 0.3 0.6h-0.3v-0.6m-50.9 0.6c0.6 0.1 0.5 0.1 0.8 0.3-0.5-0.2-0.5-0.1-0.8-0.3m50.6 0c0.5 0.5 0.5 0.4 0.6 1.4h-0.3v-0.6c-0.7-0.5-0.4 0-0.3-0.8m140 0c0.4 0.1 0.7 0.2 1.1 0.3v0.3c-1.2-0.1-1 0.1-1.1-0.6m-139.1 0.2c0.2 0.3 0.2 0.3 0.3 0.8h-0.3v-0.8m-81.6 0.3h0.6v0.3c-0.5-0.2-0.3-0.1-0.6-0.3m75.7 0c-0.3 0.2-0.1 0.1-0.6 0.3v0.3h0.8v-0.3h0.3c-0.2-0.2 0-0.1-0.5-0.3m47.6 0c0.2 0.3 0.1 0.1 0.3 0.6h-0.3v-0.6m-62.6 0.3c0.3 0.5 0.3 0.9 0 1.4v-1.4m20.3 0.8c0.2 0.3 0.1 0.1 0.3 0.6h-0.3v-0.6m96 0.9h0.6v0.3c-0.5-0.2-0.3-0.1-0.6-0.3m-149.1 1.9c0.3 0.5 0.5 0.3 0 0.6v-0.6m48.9 0h0.6v0.3c-0.5-0.2-0.3-0.1-0.6-0.3m112.2 0.6c0.6 0.1 0.8 0.1 1.1 0.3-0.6-0.1-0.8-0.1-1.1-0.3m-160.6 0.3h0.6v0.3c-0.5-0.2-0.3-0.1-0.6-0.3m47.6 0.2h0.6v0.3c-0.5-0.2-0.3 0-0.6-0.3m-46.5 1.1c0.3 0.2 0.1 0.1 0.6 0.3-0.3-0.2-0.1-0.1-0.6-0.3m46.8 0c0.2 0.3 0.1 0.1 0.3 0.6h-0.3v-0.6m-44.5 0.9c0.3 0.2 0.1 0.1 0.6 0.3-0.4-0.3-0.2-0.1-0.6-0.3m-32.9 2.5h0.6v0.3c-0.5-0.2-0.3-0.1-0.6-0.3m76.6 0.5 0.8 1.4c0.3-0.4-0.4-1-0.8-1.4m75.9 0c0.2 1.7 0.5 1.8 0 3.3h0.3c0.3-0.2 0.1-0.1 0.6-0.3v-0.3h-0.3c0.2-1.1 0-1.1 0-2.8-0.2 0.1-0.4 0.1-0.6 0.1m-117.1 0.6v0.6h0.3v-0.6h-0.3m43.4 0-0.3 0.6c0.5-0.4 0.3-0.6 0.3-0.6m-42.9 0.3c0.3 0.2 0.1 0.1 0.6 0.3-0.3-0.3-0.1-0.1-0.6-0.3m-35.6 0.3v0.6h0.3v-0.6h-0.3m31.7 0h0.6v0.3c-0.5-0.2-0.3-0.1-0.6-0.3m0.3 0.5c0.7 0.2 0.5 0.1 1.4 0.3-0.1 0.8 0 0.8-0.3 1.1-0.5 0.3-0.6 0.2-1.4 0.3 0.2-1.2 0-0.3-0.6-1.4 1 0 0.4 0.5 0.9-0.3m-44.8 0.3c0.2 0.3 0.1 0.1 0.3 0.6h-0.3v-0.6m43.4 0c0.5 0.4 0.3 0.2 0.6 0.8h-0.3v-0.3c-0.2-0.2-0.1 0-0.3-0.5m5.9 3.9c0 0.9-0.1 1.7-0.3 2.2h0.3c0.3-0.2 0.3-0.2 0.8-0.3 0-1-0.1-0.7 0-1.4-0.7-0.1-0.4 0.2-0.6-0.6l0.3-0.3h-0.6c-0.4-0.2 0 0-0.8 0v0.3c0.3 0.1 0.6 0.1 0.9 0.1m-65.4-0.3v0.6h0.3v-0.6h-0.3m62 0c0.6 0.1 0.5 0.1 0.8 0.3-0.5-0.1-0.5-0.1-0.8-0.3m0.6 1.1c0.1 0.1 0.6 0.4 0.3 0.8-0.7-0.5-0.1-0.4-0.3-0.8m-35.1 0.3c0.2 0.3 0.1 0.1 0.3 0.6h-0.3v-0.6m38.1 0c0.2 0.3 0.1 0.1 0.3 0.6h-0.3v-0.6m-1.6 0.8c0.2 0.3 0.1 0.1 0.3 0.6h-0.3v-0.6m28.9 0c-0.1 0.4 0.4 0.4 0.6 0.6 0.2-0.3-0.5-0.5-0.6-0.6m11.1 0c0.2 0.9-0.1 0.4 0.6 0.8v-0.3h0.3v-0.3h-0.3c-0.3-0.1-0.1 0-0.6-0.2m78.8 0c0.5 0.2 0.4 0.2 0.8 0h-0.8m-120.5 0.3c0.2 0.3 0.1 0.1 0.3 0.6h-0.3v-0.6m10.3 1.4c-0.1 0.2-0.6 1.4-0.6 1.4 0.5 0.3 0.6-1.4 0.6-1.4m-10 0.6h0.6v0.3c-0.6-0.2-0.3-0.1-0.6-0.3m10.3 0v0.6h0.3v-0.6h-0.3m-6.1 0.2c0.3 0.5 0.5 0.3 0 0.6v-0.6m7.5 0c0 0.8-0.4 0.4 0.6 0.8l-0.3-0.6h0.3c-0.4-0.1-0.2 0-0.6-0.2m32 0.6c0.2 0.3 0.1 0.1 0.3 0.6h-0.3v-0.6m-36.2 0.3c0.3 0.6-0.1 0.5 0.3 0.8 0.4-0.7 0-0.4-0.3-0.8m105.5 0c-0.3 0.9-0.2 0.8-0.6 1.7-0.2-0.2-0.3-0.4-0.6-0.6v0.6h0.3v0.3c0.7-0.1 0.4-0.2 1.1 0-0.1-0.6 0-1.7-0.2-2m-106.6 0.8c0.5 0.7 1.5 1.1 2.5 0.3-1.1 0-1.7 0.1-2.2 0v-0.3h-0.3m163.9 0c0.3 0.2 0.1 0.1 0.6 0.3-0.3-0.2-0.1-0.1-0.6-0.3m-165.3 2.2h0.6v0.3c-0.5-0.2-0.3 0-0.6-0.3m35.6 0c0.6 0.1 0.8 0.1 1.1 0.3-0.6 0-0.8 0-1.1-0.3m24.5 0h0.6v0.3c-0.5-0.2-0.3 0-0.6-0.3m-126.9 0.3c0.5 0.2 0.4 0.2 0.8 0h-0.8m10.6 0c-0.1 0.4 0.4 0.4 0.6 0.6 0.1-0.3-0.5-0.5-0.6-0.6m58.7 0c0.2 0.5 0.1 0.2 0 0.8h-0.3v-0.3h-0.3v-0.3c0.5-0.1 0.3 0 0.6-0.2m0.8 0c0.2 0.7 0.1 0.5 0.6 0.8-0.2-0.3-0.3-0.5-0.6-0.8m108 0c0.1 0.6 0.1 0.8 0.3 1.1-0.1-0.6-0.1-0.8-0.3-1.1m52 0h0.6c-0.3 0.5-0.1 0.4-0.6 0m-135.2 0.3c0.6 0.1 0.8 0.1 1.1 0.3-0.6-0.1-0.8-0.1-1.1-0.3m2.5 0h0.6v0.3c-0.5-0.2-0.3-0.1-0.6-0.3m133.6 0h0.6v0.3c-0.6-0.2-0.3-0.1-0.6-0.3m14.2 0h0.6v0.3c-0.6-0.2-0.3-0.1-0.6-0.3m-218.8 0.3v0.6h0.3v-0.6h-0.3m-26.1 0.5v0.6h0.3v-0.6h-0.3m6.1 0c0.2 0.3 0.2 0.3 0.3 0.8h-0.3v-0.8m28.9 0.3c0.9 0.3 0.7 0.2 1.4 0.6v0.3h-1.1l-0.3-0.9m29.3 0c0.3 0.5 0.5 0.3 0 0.6v-0.6m110.2 0v0.6h0.3v-0.6h-0.3m-148.6 0.3c0.2 0.3 0.1 0.1 0.3 0.6h-0.3v-0.6m149.1 0v0.6h0.3v-0.6h-0.3m56.2 0c0.6 0.8 0.3 0.2-0.3 1.1h-0.3c0.3-0.7 0.4-0.6 0.6-1.1m13.9 0c0.3 0.6 0.1 0.6 0 1.4-0.2-0.3-0.1-0.1-0.3-0.6-0.5-0.2-0.3-0.1-0.6-0.3 1-0.2 0.5 0.2 0.9-0.5m-175.8 0.5h0.6v0.3c-0.6-0.2-0.3 0-0.6-0.3m1.1 0 0.6 0.6c-0.8 0.2-1-0.2-0.6-0.6m-68.5 0.3c0.2 0.3 0.1 0.1 0.3 0.6h-0.3v-0.6m9.5 0h0.6v0.3c-0.5-0.2-0.3-0.1-0.6-0.3m20.3 0c0.6 0.1 0.5 0.1 0.8 0.3-0.5-0.1-0.5-0.1-0.8-0.3m210.7 0h0.6v0.3c-0.6-0.2-0.4-0.1-0.6-0.3m2.2 0.6c0.3 0.5 0.5 0.3 0 0.6v-0.6m0 0.8h0.6c-0.4 0.5-0.2 0.3-0.6 0m-14.5 0.6h0.8l-0.3 0.3 0.3 0.3c-0.3 0.2-0.3 0.2-0.8 0.3v-0.9m0.9 0.8c-0.1 0.5 0.2 0.3-0.6 0.6v-0.3c0.5-0.2 0.3-0.1 0.6-0.3m-230.7 0.6-0.3 0.6c0.5-0.5 0.3-0.6 0.3-0.6m24.2 1.1h0.6v0.3c-0.6-0.2-0.3-0.1-0.6-0.3m0.8 0c0.5 0.4 0.4 0.2 0.6 1.1h-0.3v-0.6c-0.2-0.3-0.1-0.1-0.3-0.5m143.6 0c-0.1 0.8-0.3 0.5 0.3 1.1v-0.3c-0.4-0.5 0-0.5-0.3-0.8m60.4 0.5h1.1v0.3h-0.6v0.3c-0.7 0.1-0.3-0.2-0.5-0.6m-232.9 0.3c0.2 0.3 0.1 0.1 0.3 0.6h-0.3v-0.6m184.5 0c0.2 0.6 0 0.6 0.3 1.1v-0.6c0.3-0.2 0.3-0.2 0.6-0.6-0.8 0.2-0.2 0.3-0.9 0.1m62.3 0c0 0.7 0 1 0.3 1.4 0-0.7-0.1-1-0.3-1.4m-8.1 0.3c-0.2 0.2-0.6 0.4-0.8 0.6h0.3c0.3 0.2 0.1 0.1 0.6 0.3v-0.6c0-0.3 0.1-0.1-0.1-0.3m-54.8 1.7h0.6v0.3c-0.5-0.2-0.3-0.1-0.6-0.3m-1.9 0.2h0.6v0.3c-0.6-0.2-0.4 0-0.6-0.3m-0.9 0.6c0.2 0.3 0.2 0.3 0.3 0.8h-0.3v-0.8m66.5 1.1h0.6v0.3c-0.5-0.2-0.3-0.1-0.6-0.3m-74.3 0.3h0.6v0.3c-0.5-0.2-0.3-0.1-0.6-0.3m69 1.6h0.6v0.3c-0.5-0.2-0.3 0-0.6-0.3m0.9 0c0.2 0.3 0.1 0.1 0.3 0.6h-0.3v-0.6m-1.4 0.3h0.6v0.3c-0.5-0.2-0.3-0.1-0.6-0.3m-100.7 2h0.6v0.3c-0.6-0.2-0.4-0.1-0.6-0.3m2.7 0c0.2 0.3 0.1 0.1 0.3 0.6h-0.3v-0.6m1.1 1.4c0.6 0.6 0.9 0.4 0.3 0.8v0.3h-0.3c0-0.9-0.1-0.4 0-1.1m-0.2 1.1c0.1 0.1 0.6 0.1 0.3 0.6-0.4-0.2-0.9-0.6-0.3-0.6m0.2 0.5c0.7 0.8 0.3 0.1 0 1.1h-0.3c0.1-0.6 0.2-0.6 0.3-1.1z" clip-rule="evenodd" fill="#d80c02" fill-rule="evenodd"/>
 </g>
</svg>
