<svg width="600pt" height="209.46pt" version="1.1" viewBox="0 0 600 209.46" xmlns="http://www.w3.org/2000/svg">
 <path d="m30.907 0 114.56 25.904c18.621 4.4315 19.922 13.748 19.797 33.133v80.208c0 20.983-1.4236 32.394-19.141 37.064l-113.69 29.372c-5.4421 1.3415-10.667 3.9424-16.397 3.7316-5.7584 0.3632-11.939-1.1189-16.033-5.4128 6.9593 1.4294 13.684-1.6168 20.175-3.6847l111.97-38.071c13.203-4.6247 17.671-10.709 17.671-22.342v-90.852c0-10.38-5.9393-15.386-18.186-19.408z" fill="#e0081d" stroke-width=".5858"/>
 <path d="m463.19 28.599 46.398-9.4255v19.308l-46.398 8.6113z" fill="#e0081d" stroke-width=".5858"/>
 <path d="m93.002 30.034c-0.28118 2.5892-1.1247 5.4362-0.55065 7.9142 3.3215 1.3942 6.971 1.7515 10.533 2.0034l-4.2822 8.5644c-2.0093 0.1113-4.0127 0.24017-6.0162 0.39834 0.0176 2.4545-0.1113 4.909-0.1816 7.3635-0.70296 0.33976-1.4001 0.67953-2.0972 1.0134 7.1175 2.3901 14.036 6.4145 21.757 6.1626l-4.5985 7.012c-3.9014 1.2126-8.1719 1.3649-12.067 0.0644-7.9434-2.6302-15.986-5.3074-24.375-5.9752-1.318-0.0293-3.3742-0.21089-3.6905 1.4938 0.24018 3.714 0.76154 7.4221 1.236 11.118 0.0644 1.734 0.3632 3.919-1.1716 5.1433-2.8763 2.2319-6.2915 3.8018-8.7226 6.5961-4.5517 4.8153-5.5885 11.933-4.3935 18.254 2.1206 11.722 8.8983 21.827 15.582 31.416-1.6871-3.8311-3.9659-7.3752-5.5651-11.253-3.6085-8.5058-6.3266-18.283-3.2278-27.363 2.3901-7.135 8.992-11.511 15.049-15.342 2.0152-1.1599 4.4521-3.3215 6.8304-1.7222 2.8353 2.0093 4.8563 4.95 6.8832 7.7267l7.0765-6.6371c2.8118 2.4194 5.2546 5.237 7.3049 8.3242l6.1392-5.9107c6.8011 8.2949 8.8632 19.695 6.7308 30.075-2.6595 13.175-9.9469 24.943-18.582 35.054 0.2929 0.28119 0.87284 0.8377 1.1599 1.1189l-7.5451 9.7067c-4.5751-2.5307-8.2774-6.3266-12.003-9.9293l-9.7711 9.2498c-3.8018-3.8546-7.1878-8.0958-10.597-12.29-5.8228-7.5334-11.441-15.401-14.973-24.305-2.7367-7.6422-4.336-18.936-1.3356-26.179 2.2202-5.0672 6.3384-9.2615 11.318-11.657 1.2009-0.50379 2.2378-1.5934 1.9507-2.9993-0.61509-5.3366-1.9742-10.726-1.0662-16.121 0.72053-3.8604 3.1985-7.0589 5.6295-10.017 1.6227-1.8804 3.3801-4.0303 5.9693-4.499 5.5358-1.0017 11.142 0.26947 16.414 1.939-0.24018-2.9817-0.49208-5.9576-0.71468-8.9393-2.642-0.91385-5.2839-1.8394-7.9259-2.7591l5.8756-9.8824c1.0252 0.24018 2.0562 0.48036 3.0872 0.71468 0.31646-0.89665 0.46278-1.7018 1.4469-2.2436 2.3491-1.1892 4.95-1.734 7.4807-2.4018zm-19.595 61.245c-3.5558 8.2539-2.8001 17.738 0.36906 25.986 4.8797 12.788 13.772 23.561 23.403 33.086 6.1685-8.7577 11.183-18.605 13.186-29.208 1.5114-7.8497 0.53894-16.256-3.3566-23.297 0.1816 2.0796 0.67953 4.1358 0.59166 6.2388-0.12887 5.7467-2.3432 11.212-5.1668 16.139-3.2746 5.5592-7.3576 10.65-12.067 15.067l-0.60923-1.7984c4.5634-5.7994 8.3008-12.571 9.1209-20.011 0.97828-7.9786-2.4252-16.086-8.1368-21.604 1.6227 3.4035 2.7181 8.5644-0.75568 11.189l-6.9066 6.1275c0.0293-3.8956-0.31634-7.9434-2.2026-11.429-1.5465-3.0286-4.3115-5.2839-7.469-6.4848z" fill="#e0081d" stroke-width=".5858"/>
 <path d="m577.75 55.165c7.6798 2.0796 14.563 7.2288 18.4 14.235 2.683 4.8563 3.9249 10.457 3.8194 15.986l0.0293 26.56-53.958-0.67367c-0.12302 4.5868-0.11716 9.4958 2.3549 13.55 2.5599 4.6454 7.9552 6.9476 13.063 7.2522 11.107 0.52136 22.216 0.8787 33.329 1.1892v20.896l-33.116-1.6519c-10.401-0.65281-19.044-3.1744-26.798-9.879-6.4635-6.1643-10.14-13.078-10.14-23.6l0.0117-29.583c0.28119-9.1502 2.3491-18.787 8.4824-25.881 4.3681-5.1078 10.79-7.9461 17.382-8.7969 5.2199-0.69947 11.225-0.90643 16.298-0.90643 3.6554-0.0323 7.2878 0.24619 10.841 1.303zm-29.39 23.502c-1.7182 3.2472-2.4545 6.0808-2.4545 9.4379v6.8064l31.083-6e-3 0.0644-6.602c0.0762-4.3174-1.3994-8.6113-4.2763-11.927-6.3618-7.0706-19.712-6.3032-24.416 2.2905z" fill="#e0081d" stroke-width=".5858"/>
 <path d="m461.53 66.149c3.5702-4.1819 8.6947-6.6791 14.063-7.6158 4.9009-0.73203 11.241-0.99181 16.096-1.0145 2.7332-5.9e-4 5.4515 0.22528 8.1294 0.95049 8.951 2.0796 16.584 9.0916 19.261 17.908 1.0905 3.2968 1.3924 6.7095 1.4585 10.146l0.0176 24.357-47.942-0.57409c-0.0234 4.4755 0.17574 9.2791 2.7767 13.11 2.5072 3.9073 7.1233 6.0982 11.681 6.2739l28.833 0.69125v18.611l-29.097-1.3356c-8.4297-0.42177-17.158-2.806-23.491-8.623-6.3676-5.8639-9.367-14.627-9.5075-23.133l0.0117-25.857c0.2226-8.4297 2.0679-17.34 7.7091-23.895m11.16 22.057v6.7294l27.398-0.0351v-7.136c0-4.7308-2.1745-9.2363-6.8365-12.242-6.18-2.9943-13.446-1.8688-17.474 3.1195-2.2592 2.8527-3.0876 5.767-3.0876 9.5645z" fill="#e0081d" stroke-width=".5858"/>
 <path d="m392.47 62.645 26.618-1.3033c3.7694-0.0982 7.2076 0.17186 11.152 1.274 7.0472 2.0444 12.554 7.7384 15.377 14.381 3.384 7.8186 4.0947 15.992 4.0947 24.211 0 9.5311-0.49841 19.021-4.8094 28.095-2.765 6.0513-7.7618 11.283-14.159 13.421-6.0901 1.8079-14.042 1.1716-21.042 0.99586l-17.231-0.78498m14.748-65.487v49.652l11.281 0.34241c5.995 0.38986 8.2334-2.2677 10.804-6.0774 3.3684-5.9166 3.2863-12.952 3.3918-19.56-0.13474-6.0982-0.0937-12.577-3.1692-18.054-1.8277-3.4386-5.2664-6.2564-9.2674-6.4438z" fill="#e0081d" stroke-width=".5858"/>
 <path d="m371.19 63.659 12.328-0.50379v79.317l-13.037-0.68538-22.108-50.104v48.955l-11.08-0.49793v-74.83l12.018-0.64438 21.844 49.512z" fill="#e0081d" stroke-width=".5858"/>
 <path d="m316.26 66.329c2.2634-0.0731 4.5091 0.0473 6.6141 1.0085 3.8897 1.5465 6.5024 5.1492 8.0313 8.9159 1.6402 4.1885 2.3227 8.7226 2.2231 13.21v19.314l-29.141-0.61571c-0.1113 3.7784-0.5155 7.8035 1.4586 11.219 1.3766 2.6537 4.2646 4.2705 7.1936 4.5107l18.087 0.82012v15.043l-18.795-0.99116c-4.8968-0.53575-9.7544-1.8863-13.521-5.1597-4.7626-4.0713-6.4994-10.556-6.6635-16.596v-25.16c0.24018-6.104 0.94606-12.472 4.0977-17.838 1.6461-2.9407 4.2881-5.3659 7.4748-6.5258 3.7567-1.2932 8.4016-1.1549 12.94-1.1549zm-10.175 16.128c-1.9318 2.4192-2.5599 5.356-2.5599 8.3522v5.4375l16.982 0.0176v-5.4521c0-2.8948-0.48842-5.4826-2.1849-7.8104-2.6302-4.1123-9.2381-4.3701-12.237-0.54479z" fill="#e0081d" stroke-width=".5858"/>
 <path d="m280.72 68.181 12.032-0.48036-15.19 69.37-12.343-0.54479-13.456-67.092 10.667-0.31047 9.0565 45.856z" fill="#e0081d" stroke-width=".5858"/>
 <path d="m82.346 70.208c1.8746-1.2888 4.3115-0.80255 6.4028-0.44521 6.0044 1.4528 12.038 2.9993 17.662 5.6237 3.0227 1.4586 6.3969 1.8101 9.7067 1.9742-1.4118 2.2026-2.8646 4.3759-4.2412 6.5961-6.1158 2.3901-12.519 0.1113-18.494-1.5055-3.6495-1.072-7.469-1.0134-11.206-1.4176-1.8921-0.1816-3.1926-2.0386-2.8938-3.8956 0.38663-2.4896 1.1423-5.1785 3.0637-6.93z" fill="#e0081d" stroke-width=".5858"/>
 <path d="m227.67 70.642 10.776-0.33391-13.514 64.063-11.546-0.59751-10.049-49.942-6.9045 0.30104c0 11.939 0.041 23.883 0 35.822 0 7.0246-3.7289 12.816-10.732 13.362 0.0762-16.156-0.0644-32.307 0-48.463l-8.3535 0.18746v-11.458l26.783-1.5817c5.6902-0.39234 7.6641 2.8371 8.7252 8.0343l6.4934 33.253z" fill="#e0081d" stroke-width=".5858"/>
</svg>
