<svg version="1.1" viewBox="0 0 581.25 75.286" xmlns="http://www.w3.org/2000/svg">
 <path d="m29.098 0-21.297 10.605v9.816h-7.8002v14.987h7.8002v18.931c0 5.9913 0.5504 10.297 1.7529 12.971 1.199 2.6784 3.1026 4.6451 5.6092 5.9597 2.5031 1.3112 6.3664 2.0158 11.657 2.0158 4.5574 0 9.4725-0.55391 14.724-1.6652l-1.5776-14.198c-2.8186 0.87293-5.0062 1.3146-6.5732 1.3146-1.7388 0-2.8957-0.61-3.5934-1.7529-0.45224-0.74322-0.70114-2.2682-0.70114-4.5574v-19.019h11.657v-14.987h-11.657zm324.81 0-21.297 10.605v9.816h-7.8002v14.987h7.8002v18.931c0 5.9913 0.5504 10.297 1.7529 12.971 1.199 2.6784 3.1026 4.6451 5.6092 5.9597 2.5031 1.3112 6.3699 2.0158 11.657 2.0158 4.5574 0 9.4725-0.55391 14.724-1.6652l-1.5776-14.198c-2.8186 0.87293-5.0062 1.3146-6.5732 1.3146-1.7388 0-2.8992-0.61-3.5934-1.7529-0.45575-0.74322-0.70115-2.2682-0.70115-4.5574v-19.019h11.657v-14.987h-11.657zm162.49 0v74.059h21.736v-13.935l7.9755-7.625 11.218 21.56h23.927l-21.034-34.882 19.895-18.756h-26.118l-15.863 17.792v-38.212zm-340.32 19.194c-2.9904 0-5.504 0.76038-7.5373 2.1911-2.0368 1.43-3.958 3.9969-5.8721 7.8002v-8.7643h-19.895v53.638h21.297v-17.967c0-8.582 1.1394-14.486 3.3304-17.616 1.5285-2.2223 3.7056-3.3304 6.4856-3.3304 1.4619 0 3.4566 0.56793 5.9597 1.5776l6.5732-14.724c-3.7231-1.8826-7.2113-2.8046-10.342-2.8046zm44.698 0c-9.7039 0-17.434 2.6749-23.138 7.9755-5.7073 5.3007-8.5014 12.07-8.5014 20.246 0 8.7854 3.3304 15.881 10.079 21.297 5.497 4.3748 12.743 6.5732 21.648 6.5732 9.9843 0 17.746-2.7099 23.401-7.9755 5.6512-5.2691 8.4979-12 8.5014-20.246-3e-3 -7.3375-2.2822-13.48-6.8362-18.493-5.6723-6.2265-14.054-9.3778-25.154-9.3778zm67.748 0c-6.2612 0-11.264 0.66609-14.987 1.9282-3.7196 1.2621-6.6434 3.1411-8.7643 5.6968-2.1245 2.5595-3.1552 5.5811-3.1552 9.1149 0 3.2319 0.92551 6.1526 2.8922 8.6767 1.9632 2.5241 4.4032 4.2875 7.2744 5.3462 2.8677 1.0587 7.9615 2.2577 15.338 3.5057 4.9396 0.84138 8.0527 1.532 9.2025 2.1034 1.5986 0.81016 2.3664 1.9352 2.3664 3.4181 0 1.3111-0.62402 2.454-1.8405 3.3304-1.5671 1.1779-3.8072 1.7529-6.6609 1.7529-2.6083 0-4.6556-0.53323-6.2227-1.5776-1.5636-1.0416-2.8116-2.7485-3.681-5.171l-21.034 1.8405c1.2165 5.1499 3.9439 9.1254 8.2385 11.919 4.298 2.7906 11.523 4.2069 21.648 4.2069 7.1657 0 12.848-0.80632 17.003-2.5417 4.1578-1.7318 7.1868-4.0842 9.1149-7.0115 1.9317-2.9273 2.8922-5.9317 2.8922-9.0272 0-3.064-0.89046-5.9419-2.7169-8.5014-1.8265-2.5557-4.4453-4.4908-7.8879-5.8721-3.4426-1.3778-8.7152-2.468-15.776-3.2428-4.6626-0.53988-7.7231-1.1674-9.1149-1.8405s-2.1034-1.6687-2.1034-2.9799c0-1.1779 0.56793-2.156 1.6652-2.9799 1.0938-0.82385 2.8607-1.227 5.2586-1.227 2.3664 0 4.3787 0.5893 6.0474 1.6652 1.2165 0.80631 2.1069 2.0508 2.6293 3.7687l20.158-1.9282c-1.3918-3.5022-3.1552-6.2752-5.2586-8.3261-2.107-2.0544-4.7398-3.5829-7.8879-4.5574-3.1481-0.9781-8.0281-1.4899-14.636-1.4899zm116.21 0c-9.7039 0-17.343 2.6749-23.05 7.9755-5.7038 5.3007-8.589 12.07-8.589 20.246 0 8.7854 3.3304 15.881 10.079 21.297 5.497 4.3748 12.743 6.5732 21.648 6.5732 9.9843 0 17.834-2.7099 23.488-7.9755 5.6512-5.2691 8.4138-12 8.4138-20.246 0-7.3375-2.2787-13.48-6.8362-18.493-5.6688-6.2265-14.058-9.3778-25.154-9.3778zm71.955 0c-6.4716 0-11.723 0.80281-15.863 2.454-2.6083 1.0415-5.1569 2.6854-7.625 4.8204-2.4715 2.1385-4.4488 4.5816-5.8721 7.2744-1.9492 3.6666-2.8922 8.2423-2.8922 13.76 0 5.2831 0.76425 9.511 2.3664 12.708 1.5986 3.1969 3.8423 5.9562 6.6609 8.3261 2.8186 2.3737 6.1666 4.1122 10.079 5.171 3.9159 1.0622 8.845 1.5776 14.724 1.5776 6.0894 0 11.04-0.80281 14.987-2.454 3.951-1.6477 7.1902-3.9443 9.7284-6.9238 2.5417-2.9764 4.4067-6.5312 5.5215-10.605l-20.246-2.1911c-0.93954 2.861-2.3103 4.9326-4.2069 6.3103-1.8966 1.3813-4.2279 2.1034-7.0115 2.1034-3.341 0-6.0824-1.1288-8.2385-3.4181-2.156-2.2889-3.2428-5.6723-3.2428-10.079 0-4.9501 1.0657-8.6031 3.2428-11.043 2.1736-2.4404 4.9886-3.681 8.5014-3.681 2.7836 0 5.0097 0.58897 6.6609 1.7529 1.6512 1.1604 2.7906 2.8817 3.4181 5.171l19.983-2.6293c-1.9106-6.0228-5.2411-10.541-9.9913-13.672-4.7468-3.1306-11.643-4.7327-20.684-4.7327zm-432.08 1.227 23.05 53.638h18.843l23.488-53.638h-21.385l-11.131 34.006-10.78-34.006zm176.51 12.971c2.9203 0 5.3813 1.0587 7.362 3.3304 1.9842 2.2717 2.8922 5.788 2.8922 10.43 0 4.9816-0.92902 8.6101-2.8922 10.868-1.9667 2.2542-4.4768 3.3304-7.5373 3.3304-3.0254 0-5.5356-1.1285-7.5373-3.4181-1.9983-2.2892-2.9799-5.8269-2.9799-10.605 0-4.7121 0.96057-8.2108 2.9799-10.517 2.0158-2.3036 4.6135-3.4181 7.7126-3.4181zm183.96 0c2.9238 0 5.3813 1.0587 7.362 3.3304 1.9842 2.2717 2.9799 5.788 2.9799 10.43 0 4.9816-1.0167 8.6101-2.9799 10.868-1.9667 2.2542-4.4768 3.3304-7.5373 3.3304-3.0254 0-5.5356-1.1285-7.5373-3.4181-2.0018-2.2892-2.9799-5.8269-2.9799-10.605 0-4.7121 0.96408-8.2108 2.9799-10.517 2.0193-2.3036 4.617-3.4181 7.7126-3.4181z" fill="#006ab3" fill-rule="evenodd"/>
 <path d="m105.81 73.413h22.696v-20.596h-22.696z" fill="#ff8008"/>
</svg>
