<svg width="614.28" height="800" version="1.1" viewBox="0 0 541.38 704.8" xmlns="http://www.w3.org/2000/svg">
 <path d="m440.46 349.91h-80.772l-10.45-46.321h-72.877l0.0131-70.481 44.869-0.13546-64.106-205.89h58.745z" fill="#e53531" filter="url(#g)" stroke="#000" stroke-opacity=".36" stroke-width=".70938"/>
 <path d="m239.76 111 27.171 57.102s-105.65 43.858-105.65 105.43c0 60.841 110.58 98.471 110.58 98.471l-31.001 59.876s-149.27-45.393-149.27-160.63c0-115.34 148.17-160.24 148.17-160.24z" fill="#57b24c" filter="url(#i)" stroke="#000" stroke-opacity=".36" stroke-width=".70938"/>
 <path d="m510.79 213.86c-0.50434-16.468-9.4598-45.02-21.809-69.53-28.095-55.764-76.833-102.11-145.48-138.36l-11.503-6.0736 5.7516 0.68797c4.3549 0.52092 8.9126 1.2799 13.72 2.2875 6.9392 1.4546 14.398 3.4273 22.516 5.95 10.765 3.3453 28.759 11.708 28.759 13.366 0 0.57859-1.3128 3.1315-2.9173 5.6733-1.6045 2.5416-2.6508 5.0524-2.3251 5.5794 0.32571 0.52697 3.8385 2.1305 7.8061 3.5633 12.385 4.4726 40.359 19.202 47.412 25.056 3.9468 3.275 7.7872 6.4063 9.7229 8.3423l3.2266 3.2266-6.0214 6.0114c-4.5306 4.523-4.5079 4.7611-2.2647 6.4056 17.747 13.01 24.638 18.654 33.476 27.418 9.1247 9.0484 18.863 21.346 18.863 23.822 0 0.44899-3.1218 1.9546-6.9374 3.3457-3.8155 1.3912-7.1946 2.9459-7.5091 3.4547-0.3145 0.50888 2.4725 5.2219 6.1933 10.473 9.5142 13.428 17.605 26.588 23.27 37.85 4.4445 8.836 9.1403 20.687 9.1403 23.066 0 0.53366-5.1765 0.97024-11.503 0.97024-11.139 0-11.506-0.0821-11.583-2.5882z" fill="#fff" filter="url(#a)" stroke="#000" stroke-width="1.4944"/>
 <path d="m25.783 213.84c0.50434-16.468 9.4598-45.02 21.809-69.53 28.095-55.764 76.833-102.11 145.48-138.36l11.503-6.0736-5.7516 0.68797c-4.3549 0.52092-8.9126 1.2799-13.72 2.2875-6.9392 1.4546-14.398 3.4273-22.516 5.95-10.765 3.3453-28.759 11.708-28.759 13.366 0 0.57859 1.3128 3.1315 2.9173 5.6733 1.6045 2.5416 2.6508 5.0524 2.3251 5.5794-0.32571 0.52697-3.8385 2.1305-7.8061 3.5633-12.385 4.4726-40.359 19.202-47.412 25.056-3.9468 3.275-7.7871 6.4063-9.7229 8.3423l-3.2266 3.2266 6.0214 6.0114c4.5306 4.523 4.5079 4.7611 2.2647 6.4056-17.747 13.01-24.638 18.654-33.476 27.418-9.1247 9.0484-18.863 21.346-18.863 23.822 0 0.44899 3.1218 1.9546 6.9374 3.3457 3.8155 1.3912 7.1946 2.9459 7.5091 3.4547 0.3145 0.50888-2.4725 5.2219-6.1933 10.473-9.5142 13.428-17.605 26.588-23.27 37.85-4.4445 8.836-9.1403 20.687-9.1403 23.066 0 0.53366 5.1765 0.97024 11.503 0.97024 11.139 0 11.506-0.082 11.583-2.5882z" fill="#fff" filter="url(#b)" stroke="#000" stroke-width="1.4944"/>
 <path d="m135.09 511.34q-2.555 0.72459-5.0637 1.3852-2.5086 0.66071-5.0174 1.3214l-1.3476-7.7357q2.5008-0.7164 5.0405-1.3533 2.5086-0.66072 5.0405-1.3533z" stroke="#000" stroke-width="1.4397"/>
 <path d="m133.64 471.35q-2.555 0.72449-5.0637 1.3852-2.5087 0.66067-5.0174 1.3213l-1.3477-7.7358q2.5008-0.7164 5.0405-1.3533 2.5087-0.66064 5.0405-1.3533z" stroke="#000" stroke-width="1.4397"/>
 <path d="m116.44 489.95q-1.5882 0.12437-3.2135 0.76639-1.5944 0.66582-3.1959 1.4751-4.1396 2.0433-7.3285 0.64367-2.7466-1.2098-5.5922-4.4817-0.92521-1.0562-4.1386-5.5532-3.2134-4.497-3.5038-5.7622-0.20399-0.85144 0.96678-0.60025 5.5378 1.7586 11.048 4.6879 5.5413 2.9531 11.041 5.2293 2.0327 0.86168 4.3173 0.37691l-0.0232 0.0319q0.8748-0.27345 1.4346 0.3539 1.0105 1.0719-0.31103 2.2943-0.73419 0.67907-1.5017 0.53812z" stroke="#000" stroke-width="1.4397"/>
 <path d="m149.65 489.52q0.78273 0.0532 1.0923-0.10687 0.39235-0.94089-1.1473-2.8153-1.734-2.0729-4.5537-4.3814-2.7885-2.2847-3.8226-3.5237-0.48969-0.52403 0.80974-1.3164 2.1195-1.2567 4.2627-2.3463 2.1975-1.0977 4.4876-2.323l0.0307 0.0237q1.781 2.2082 5.8443 5.8665 4.0633 3.6584 4.8074 6.3634 0.44685 1.7823-1.5643 3.0228-1.9879 1.2085-3.0943 1.8012-1.9574 1.0333-3.9233 1.8118-1.9428 0.74653-3.9629 1.5332-3.4677 1.3166-6.4964 1.6286-3.0057 0.27999-5.7963-0.0698-3.5271-0.4669-8.4131-1.9249-1.7294-0.4804-3.5209-1.0084t-3.7066-0.95205q-2.6906-0.62076-3.7604-0.74492-1.5734-0.1622-3.2931 9e-3l-0.0547 7e-3q-2.268 0.79531-2.2038-1.092 0.0642-1.8874 2.8208-2.5568l0.0463-0.0639q0.97474-0.54448 1.7248-1.1121 0.78104-0.54389 1.4847-1.0478 1.2757-0.95948 2.7001-1.4576 1.4475-0.53003 3.9206-0.0759 1.9616 0.36026 3.753 0.88826 1.8457 0.51981 3.5909 1.1117 2.3891 0.83671 4.7551 1.7054 2.3891 0.83664 4.9712 1.4737 3.4198 0.88131 8.2109 1.6708z" stroke="#000" stroke-width="1.4397"/>
 <path d="m163.49 475.19q-3.8109 3.189-8.9671 4.7018l-5.0632-6.4103 1.2531-0.72855q1.3962 0.47352 3.304 1.041 1.9621 0.5593 3.7061 0.75301 3.6044-5.0353 7.1983-10.724 3.6175-5.7205 6.8724-10.875l10.278-4.045-12.697 19.771q-2.484 3.7582-5.8855 6.5158z" stroke="#000" stroke-width="1.4397"/>
 <path d="m179.73 476.55 13.011-5.4933-16.6 36.073-13.011 5.4933z" stroke-width="2.4525"/>
 <path d="m105.43 459.51-13.91 2.4442 24.248-31.447 13.91-2.4442z" stroke-width="2.4525"/>
 <path d="m115.87 410.11q-1.643 0.48714-3.3226-0.32573-1.6797-0.81299-3.8564-0.59519-0.21308 1.5205 0.59242 3.1048 0.80552 1.5843 1.0625 3.1342 0.24236 1.785-0.9648 2.85-0.70765 0.62435-1.7924 0.98915-3.1342 1.0625-6.8559 0.20051-3.2198-0.71258-5.4625-2.5834-2.2795-1.9124-4.674-3.8713 2.6003 1.1851 5.274 2.4536 2.6737 1.2684 5.3671 2.2235 0.88879 0.25222 1.1802-5e-3 0.12487-0.11019 0.10285-0.38686-0.24478-1.1165-0.59969-2.3578-0.43342-1.2464-0.64143-2.3212-0.56314-2.3164 0.93541-3.6385 1.5818-1.3956 5.5706-1.6574 7.6223-0.5065 10.418 0.0615 1.1656 0.23031 3.1536 1.1411z" stroke-width=".1128"/>
 <path d="m71.111 438.42q-5.1272-3.5457-8.3859-6.1485-3.2222-2.5614-8.1069-3.0634l-0.07785-5e-3q-3.4084 0.41608-2.7766-2.1402 0.63179-2.5563 4.6889-2.6565l0.08325-0.0736q2.3677-0.75653 4.5126-1.0943 5.355-1.9855 10.029-0.63128 3.8269 1.0652 7.1912 3.8714 3.3642 2.8062 7.3086 5.7666 1.5719 1.2783 3.6139 2.5858 2.1204 1.3125 4.351 1.4913-5.7371 4.3214-11.295 5.1538-5.4799 0.83711-11.136-3.0562z" stroke-width=".1128"/>
 <path d="m58.164 429.78q-2.2624-0.29883-4.7257 0.0976-2.4265 0.43814-4.9045 1.0698-6.3906 1.5668-10.46-1.2834-3.5038-2.461-6.5544-7.7646-0.99394-1.714-4.2086-8.7977-3.2146-7.0836-3.2586-8.8956-0.04162-1.2219 1.528-0.53368 7.2597 4.033 14.145 9.655 6.9217 5.6637 13.981 10.392 2.6027 1.7753 5.9449 1.7876l-0.04163 0.0366q1.305-0.11515 1.9098 0.90604 1.1091 1.7606-1.0946 3.0386-1.2242 0.71009-2.2599 0.29138z" stroke-width=".1128"/>
 <path d="m8.9611 387.8q-2.2406-3.9974-4.4664-7.9518-2.2689-3.9396-4.4947-7.8938l12.315 1.6428q4.8041 8.6543 8.9758 15.889z" stroke-width="2.3646"/>
 <path d="m88.557 390.51c-0.45625 0.15677-1.228 0.23078-2.3152 0.22155-1.0871-9e-3 -2.1939-0.075-3.3203-0.19791-1.1264-0.12295-2.1387-0.28525-3.0369-0.48683-0.86971-0.21115-1.3389-0.41665-1.4075-0.61629 0.0061-0.35293-2e-3 -0.70086-0.02398-1.0438-0.02224-0.34313-0.04448-0.68618-0.06683-1.0293l-0.0041-0.42903c-0.05428-0.71465-0.14203-1.4339-0.26323-2.1576-0.08274-0.70488-0.21735-1.3283-0.40352-1.8699-0.90166-2.6236-3.1106-4.8296-6.6268-6.6184-2.9513-1.5365-5.0685-2.0842-6.3518-1.6432-1.6255 0.55862-1.7789 3.5447-0.46047 8.9584 0.39019 1.9702 0.62936 3.594 0.71746 4.8709 0.08815 1.2771 0.07336 2.2547-0.04428 2.9329-0.38154 2.0442-2.1407 3.6053-5.2775 4.6833-6.5587 2.2541-13.694 0.97567-21.405-3.8352-16.243-18.271-25.843-48.87-31.273-73.586-6.0157-20.513-3.4647-56.877-1.2316-59.226 8.9864-13.78 22.8-10.211 28.886 2.4728 13.401 35.498 15.835 66.663 18.692 79.458 0.88928 3.9811 1.9989 7.0632-4.5318 4.2404-4.1065-1.7749-4.8447-3.4264-4.8447-3.4264s-0.30412-3.8717-2.1638-14.683c-2.3215-13.496-7.7305-35.911-10.875-49.368-2.7271-11.671-11.38-16.246-12.259-15.641-10.282 8.5206-3.8418 40.271-1.6829 51.991 0.08851 1.2551 3.054 17.694 7.7741 32.404 4.0596 12.65 9.8301 23.884 10.361 25.068 4.0974 9.137 8.9306 15.966 17.266 20.18 0.66203 0.44191 1.2213 0.58453 1.6774 0.42774 0.57033-0.19602 0.76107-0.70797 0.57225-1.5357-0.85519-3.7872-1.4872-6.647-1.8962-8.579-0.39906-1.9034-0.59902-2.9028-0.59995-2.9983-0.11394-2.0015 0.21813-3.7257 0.99618-5.1729s2.0369-2.4696 3.7763-3.0674c5.8744-2.0189 12.702-1.4481 20.485 1.7124 7.3702 2.9831 11.761 6.5278 13.173 10.634 0.25479 0.74135 0.38584 1.4936 0.39282 2.2563 0.0071 0.76274-0.08652 1.4645-0.28083 2.1053-0.19431 0.64062-0.48487 1.1869-0.87167 1.6387-0.34842 0.47053-0.76507 0.78906-1.2498 0.95566z" stroke="#000" stroke-width="1.6457"/>
 <path d="m510.89 213.89c-0.50433-16.469-9.46-45.021-21.809-69.531-28.096-55.764-76.834-102.12-145.49-138.37l-11.504-6.0738 5.7518 0.68799c4.355 0.52092 8.9128 1.2799 13.72 2.2875 6.9392 1.4546 14.398 3.4273 22.516 5.95 10.765 3.3453 28.758 11.708 28.758 13.367 0 0.57861-1.3128 3.1316-2.9174 5.6733-1.6045 2.5417-2.6509 5.0525-2.3252 5.5795 0.32571 0.52699 3.8386 2.1305 7.8063 3.5634 12.385 4.4729 40.359 19.202 47.414 25.057 3.9467 3.2751 7.7872 6.4066 9.7232 8.3425l3.2266 3.2266-6.0215 6.0115c-4.5307 4.5232-4.508 4.7612-2.2648 6.4056 17.748 13.01 24.638 18.655 33.478 27.42 9.125 9.0484 18.864 21.347 18.864 23.822 0 0.44898-3.1218 1.9546-6.9374 3.3459-3.8156 1.3912-7.1947 2.9459-7.5093 3.4548-0.31449 0.50891 2.4725 5.222 6.1933 10.474 9.5143 13.429 17.606 26.589 23.27 37.852 4.4445 8.8362 9.1405 20.687 9.1405 23.067 0 0.53366-5.1766 0.97025-11.504 0.97025-11.139 0-11.506-0.082-11.583-2.5883z" stroke="#000" stroke-width="1.2579"/>
 <path d="m218.55 515.86q0-14.253 13.822-23.119 13.822-8.8652 35.975-8.8652 21.395 0 34.838 8.0468 13.538 7.9786 13.538 20.662 0 8.0468-7.0056 16.026-7.0056 7.9104-24.709 19.913l-26.13 17.935v1.2275h59.832v17.117h-98.551v-14.389l44.59-31.438q14.39-10.093 19.218-15.139 4.828-5.0464 4.828-9.8882 0-5.9328-6.0589-9.6836-5.9642-3.8188-15.337-3.8188-9.9404 0-16.189 4.2962-6.1536 4.228-6.1536 11.047v0.40917h-26.507z" filter="url(#k)" stroke="#000" stroke-opacity=".36" stroke-width=".81576"/>
 <path d="m25.765 213.85c0.50431-16.469 9.46-45.021 21.809-69.531 28.096-55.764 76.834-102.12 145.49-138.37l11.504-6.0738-5.7518 0.68799c-4.355 0.52092-8.9128 1.2799-13.72 2.2875-6.9392 1.4546-14.398 3.4273-22.516 5.95-10.765 3.3453-28.758 11.708-28.758 13.367 0 0.57861 1.3128 3.1316 2.9172 5.6734 1.6046 2.5417 2.6509 5.0525 2.3252 5.5794-0.32573 0.52699-3.8386 2.1305-7.8063 3.5634-12.385 4.4729-40.359 19.202-47.414 25.057-3.9467 3.2751-7.7872 6.4065-9.7231 8.3425l-3.2266 3.2266 6.0216 6.0116c4.5306 4.5232 4.508 4.7612 2.2647 6.4056-17.748 13.01-24.638 18.655-33.478 27.42-9.125 9.0484-18.864 21.347-18.864 23.822 0 0.44898 3.1218 1.9546 6.9374 3.3459 3.8155 1.3912 7.1947 2.9459 7.5093 3.4548 0.31448 0.50891-2.4725 5.222-6.1934 10.474-9.5143 13.429-17.606 26.589-23.27 37.852-4.4445 8.8362-9.1405 20.687-9.1405 23.067 0 0.53365 5.1766 0.97026 11.504 0.97026 11.139 0 11.506-0.082 11.583-2.5883z" stroke="#000" stroke-width="1.2579"/>
 <path d="m532.31 276.4c5.6791 4.5591 8.6971 10.406 9.0536 17.541 0.13406 2.4413-0.68325 8.1071-2.4522 16.998l-0.0411-0.0189-0.23101-0.25868-9.7182-6.745c1.5272-5.2845 2.587-9.2794 3.179-11.985 2.6371-8.5307-5.118-10.403-12.1-12.042-4.5779-0.89003-12.553-1.078-20.745-1.646l-7.0389-8.9679 31.416 1.9208c1.7994 0.73893 3.4384 1.5705 4.9169 2.4948 1.4785 0.92425 2.7322 1.8274 3.7613 2.7096z" stroke-width="2.3646"/>
 <path d="m515.62 291.25q-1.1632 4.4323-2.3073 8.8235-1.1028 4.4104-2.2468 8.8016l-7.7211-9.733q2.5521-9.5637 4.5734-17.666z" stroke-width="2.3646"/>
 <path d="m493.29 315.16-7.4324-11.106 38.1 13.19 8.9044 11.29-10.931-4.1449c0.20004 0.36132 0.48518 0.86294 0.85582 1.5048l0.0212 0.0608c2.6364 5.5517 3.1342 11.881 1.4934 18.989-1.6408 7.1076-3.9549 13.181-6.9421 18.22-0.66195 1.1318-1.534 2.0316-2.6162 2.6993-1.0821 0.66775-2.255 0.74033-3.5188 0.21778-3.7091-3.037-6.7862-5.8127-9.2314-8.327 2.047 0.35191 3.9085-0.62222 5.5847-2.9224 1.6762-2.3002 3.135-5.1039 4.3763-8.4111 1.003-2.5808 2.1214-6.163 3.3552-10.746 1.2467-4.6112 1.9277-8.5483 2.0428-11.812l-0.0213-0.0608c0.057-0.40901 0.0608-0.77587 0.0118-1.1006z" stroke-width="2.3646"/>
 <path d="m480.32 330.96q1.42 2.7731 2.7574 5.5077t2.6748 5.4692l-8.3442 3.3436q-1.398-2.7126-2.7162-5.4884-1.3374-2.7346-2.7162-5.4884z" stroke-width="2.3646"/>
 <path d="m486.22 359.37q1.42 2.7731 2.7574 5.5077t2.6748 5.4692l-8.3443 3.3436q-1.398-2.7126-2.716-5.4884-1.3374-2.7346-2.7162-5.4884z" stroke-width="2.3646"/>
 <path d="m513.85 365.3q-0.30244 1.6177-0.62693 3.1751-0.36577 1.538-0.64894 3.1145l-0.0189 0.0411 0.0825 0.0386q-0.65981 4.215-1.6965 8.8069-1.0587 4.5314-0.21375 7.1368l0.0213 0.0608q0.81179 1.3838 0.48444 2.0854-0.25029 0.53651-1.1829 0.70443-0.77039 0.14306-1.4719-0.18419-1.1556-0.53911-2.0637-2.4704l-0.0825-0.0386q-1.3455-1.5322-2.3032-3.0344-3.9927-5.9836-3.2916-9.4254 0.70118-3.4419 2.0048-7.2058l-0.12366-0.0577 0.058-0.12389q0.0908-0.4099 0.24196-0.84192 0.10995-0.4512 0.17876-0.92169l-0.0634-0.0799 0.0386-0.0825 0.45926-1.8462q-8.2852-9.4937-12.515-18.955-2.4465-5.3124-1.0024-8.4077 0.53913-1.1556 1.6367-2.0003 2.7152-2.05 6.636-0.22084 1.9397 0.90494 4.1492 2.7398 5.6132 5.6339 9.1274 12.751 3.5141 7.1172 2.1862 15.242zm-16.21-17.714q-0.24183 2.3496 0.78735 4.2369 0.98787 1.868 1.9538 3.6754 0.4294 0.80328 1.1309 1.1307 0.49523 0.23101 1.106 0.21446 1.5269-0.0414 2.4842-0.80098 1.1029-2.9027 1.0584-6.7929-0.0212-1.5682-1.4666-2.2421-0.78413-0.36583-2.091-0.47299-3.552-0.24996-4.9632 1.0516z" stroke-width="2.3646"/>
 <path d="m509.99 384.76q0.51734 1.7994 1.6236 3.5215 1.1254 1.6809 2.4132 3.337 3.2744 4.2916 2.4661 8.2865-0.70118 3.4419-3.6885 7.4756-0.96278 1.3097-5.235 6.0506-4.2722 4.7409-5.6202 5.3683-0.90521 0.43201-0.90251-0.97382 0.65128-6.782 2.6204-13.803 1.9884-7.0627 3.2283-13.922 0.48121-2.5394-0.60586-5.0568l0.0411 0.0189q-0.51465-0.94356 0.0549-1.7333 0.95999-1.4115 2.6439-0.17356 0.93547 0.6877 0.96035 1.6039z" stroke-width="2.3646"/>
 <path d="m499.8 407.11q-2.5768 3.7893-5.1218 7.5462-2.5125 3.7888-5.0575 7.5457l-4.0268-11.753q5.5997-8.162 10.211-15.124z" stroke-width="2.3646"/>
 <path d="m472.5 377.51q4.45 4.5031 5.7811 9.7094 1.3316 5.206 1.047 9.7169-0.22416 3.9951-2.1901 7.6827-1.9664 3.6232-5.5046 8.0002l-6.8754-9.6359 0.0643-0.0655q4.5243-5.8344 6.2384-8.8114 1.7461-3.0096 2.3-6.1057-1.3954-1.309-8.8684-5.3362l-2.5196-12.506q6.0774 2.7834 10.527 7.3513z" stroke-width="2.3646"/>
 <path d="m475.49 442.09q-2.4178 3.5626-5.4833 6.6796-0.63867 0.64945-1.3418 1.2993-3.866 3.6713-7.8322 6.9248-0.35127 0.35705-0.74087-0.026-0.3573-0.35125-0.26525-0.83485 2.22-7.9729 5.728-15.956 3.4756-8.0156 6.7899-16.062 1.737-4.1044 1.4424-8.5461-0.0677-0.38584-0.42474-0.73716-0.25975-0.25547-0.6488-0.50937-1.0034-0.6035-1.8741-0.75726-0.85735 1.4563-2.1346 2.7551-0.47905 0.48709-1.0228 0.91024-1.95 1.7231-3.7545 1.6094-1.5461-0.0515-2.6176-1.1054-0.97414-0.95798-1.5688-2.7564-1.0574-3.2115-2.3727-6.4854-1.3154-3.2737-1.5366-6.6211-0.0733-1.0944 0.59715-1.7762 0.31931-0.3246 0.80035-0.5542 1.5398-0.7212 2.699-0.73113 6.1832 0.0118 10.6 4.3557l0.42212 0.41516q4.5484 4.7926 6.7307 11.601 2.1817 6.7446 1.7608 14.187-0.42149 7.3782-3.9516 12.722z" stroke-width="2.3646"/>
 <path d="m428.85 423.63q-0.39222 2.7775-0.82536 5.4839-0.43301 2.7064-0.86603 5.4127l-7.876-1.864q0.37709-2.7216 0.84574-5.4483 0.43302-2.7064 0.84574-5.4483z" stroke-width="1.1902"/>
 <path d="m363.06 503.88c-7.152-1.2565-10.467-4.6832-11.976-12.378-1.2627-6.4418-1.3041-10.282 7.2775-18.736 13.421-13.221 30.043-21.925 43.188-31.597 4.795-3.5279 4.0523 7.6421-4.0175 14.079-20.108 13.705-28.422 17.274-34.772 27.437-2.3478 3.7574 0.0771 6.5409 0.16386 6.9835 0.2526 1.2833 5.3348 2.1831 11.517 1.1192 16.957-2.9179 45.587-19.621 58.775-34.29 7.2038-8.013 12.303-20.739 7.971-19.889-2.844 0.55749-5.1079-8.8206-2.9165-12.081 0.7697-1.145 1.7382-2.1481 2.1524-2.2293 1.7308-0.33879 6.4595 2.9156 8.6066 5.9237 6.4069 8.9766 3.4241 19.551-9.9196 35.167-13.389 15.668-32.303 29.013-50.018 35.289-8.8789 3.1458-22.38 5.8431-26.032 5.2013z" stroke-width="2.4525"/>
 <path d="m499.18 257.73-10.481-9.4669 39.709-0.21493 10.481 9.4669z" stroke-width="2.4525"/>
 <path d="m499.18 258.03-10.481-9.4666 39.709-0.21493 10.481 9.4666z" filter="url(#filter5971)" stroke="#000" stroke-opacity=".36" stroke-width=".47289"/>
 <path d="m539.05 309.77-0.0386 0.0825c-0.11563 0.24764-0.32463 0.30084-0.62722 0.15961-0.22014-0.10262-0.51178-0.33919-0.875-0.70971-0.10049 2.2983-0.65506 5.3898-1.6634 9.2746-0.99554 3.8574-2.3168 7.4806-3.2391 10.032l-9.5401-7.1996c3.9385-11.027 5.7976-18.101 5.5771-21.218-0.16528-2.0873-0.98265-3.9259-2.452-5.516-0.1284-0.22747-0.17332-0.3824-0.13502-0.4649 0.0386-0.0825 0.20927-0.0532 0.51178 0.0879 0.52277 0.2439 0.84011 0.42543 0.95203 0.5446 1.6858 1.557 3.7118 3.6413 6.0782 6.2529s4.1834 5.503 5.4512 8.6741z" stroke-width="2.3646"/>
 <path d="m111.93 688.55h-25.445l-7.7078 15.2h-13.576l36.305-68.772h14.671l10.423 68.772h-12.526zm-1.6204-11.446-3.7225-27.678-15.504 27.678z" filter="url(#j)" stroke="#000" stroke-opacity=".36" stroke-width="1.1397"/>
 <path d="m135.06 703.75 13.445-68.772h13.181l-11.167 57.279h32.67l-2.2335 11.493z" filter="url(#j)" stroke="#000" stroke-opacity=".36" stroke-width="1.1397"/>
 <path d="m225.27 667.02h28.729l-5.7808 29.508q-5.0801 3.5184-12.481 5.9577-7.3574 2.4394-15.021 2.4394-11.912 0-18.263-5.7701-8.6712-7.8811-8.6712-22.845 0-10.039 3.7225-19.234 4.467-11.071 12.7-17.169 8.2333-6.0985 19.356-6.0985 11.123 0 17.825 5.5355 6.7443 5.5355 8.934 16.138l-12.307 1.5012q-1.6204-5.817-5.2553-8.7724-3.5912-2.9554-9.0654-2.9554-6.394 0-11.736 3.5653t-8.3647 11.024-3.0218 16.279q0 8.6786 3.6787 12.854 3.6788 4.1282 10.773 4.1282 4.248 0 8.715-1.2666 4.467-1.3135 7.7078-3.0962l1.9708-10.227h-16.378z" filter="url(#j)" stroke="#000" stroke-opacity=".36" stroke-width="1.1397"/>
 <path d="m259.25 703.75 13.4-68.772h47.605l-2.2334 11.493h-34.379l-3.0656 15.621h33.239l-2.2334 11.493h-33.239l-4.029 18.671h37.357l-2.2772 11.493z" filter="url(#j)" stroke="#000" stroke-opacity=".36" stroke-width="1.1397"/>
 <path d="m332.66 703.75h-13.226l13.445-68.772h28.51q7.3574 0 11.43 1.6419 4.1166 1.595 6.613 5.9108 2.54 4.3158 2.54 10.461 0 8.7724-4.905 14.496-4.905 5.6762-14.847 7.0367 2.54 2.4393 4.7736 6.4269 4.4232 8.0688 9.8537 22.799h-14.19q-1.708-5.817-6.7005-18.155-2.7152-6.6615-5.7808-8.9601-1.8832-1.3604-6.5691-1.3604h-5.3867zm7.5764-38.795h7.007q10.642 0 14.102-1.3604 3.5036-1.3604 5.4742-4.2689 1.9708-2.9085 1.9708-6.0985 0-3.753-2.8466-5.6293-1.7518-1.1259-7.5764-1.1259h-14.54z" filter="url(#j)" stroke="#000" stroke-opacity=".36" stroke-width="1.1397"/>
 <path d="m383.41 703.75 13.445-68.772h13.181l-13.4 68.772z" filter="url(#j)" stroke="#000" stroke-opacity=".36" stroke-width="1.1397"/>
 <path d="m408.86 703.75 13.4-68.772h47.605l-2.2334 11.493h-34.379l-3.0656 15.621h33.239l-2.2334 11.493h-33.239l-4.029 18.671h37.357l-2.2772 11.493z" filter="url(#j)" stroke="#000" stroke-opacity=".36" stroke-width="1.1397"/>
 <path d="m265.54 267.01a34.231 37.439 0 0 1-34.231 37.439 34.231 37.439 0 0 1-34.231-37.439 34.231 37.439 0 0 1 34.231-37.439 34.231 37.439 0 0 1 34.231 37.439z" filter="url(#h)" stroke="#000" stroke-linecap="round" stroke-linejoin="round" stroke-opacity=".36" stroke-width=".70938"/>
</svg>
