<svg width="510.51" height="298.63" version="1.1" viewBox="0 0 510.51 298.63" xml:space="preserve" xmlns="http://www.w3.org/2000/svg" xmlns:xlink="http://www.w3.org/1999/xlink"><defs><clipPath id="SVGID_2_"><use width="100%" height="100%" xlink:href="#SVGID_1_"/></clipPath><linearGradient id="SVGID_3_" x1="6.4257" x2="7.6339" y1="830.42" y2="830.42" gradientTransform="matrix(680,0,0,-680,-4369.3,565100)" gradientUnits="userSpaceOnUse"><stop offset="0"/><stop stop-color="#0F0F0F" offset=".038565"/><stop stop-color="#373737" offset=".1132"/><stop stop-color="#787878" offset=".2163"/><stop stop-color="#D1D1D1" offset=".3427"/><stop stop-color="#fff" offset=".4054"/><stop stop-color="#C0C0C0" offset=".5015"/><stop stop-color="#868686" offset=".6001"/><stop stop-color="#565656" offset=".6957"/><stop stop-color="#313131" offset=".7859"/><stop stop-color="#161616" offset=".8691"/><stop stop-color="#060606" offset=".943"/><stop offset="1"/></linearGradient><clipPath id="clipPath948"><path d="m69.193 609.54h20.268v14.173h-20.268z"/></clipPath></defs><style type="text/css">.st0{clip-path:url(#SVGID_2_);fill:url(#SVGID_3_);}.st1{fill:#1D1D1B;}.st2{opacity:0.32;}.st3{clip-path:url(#SVGID_5_);fill:url(#SVGID_6_);}.st4{fill:#FFFFFF;}</style><g transform="matrix(39.472 0 0 -39.472 -2731.2 24489)"><g clip-path="url(#clipPath948)"><g transform="matrix(.039858 0 0 -.039819 94.143 609.27)"><g transform="translate(-373.67 -167.42)"><path d="m0 0h-43.195l43.195-69.507zm49.162 0v-112.24h-67.918l-71.898 117.08v30.194h-68.482c47.174-33.044 67.919-57.827 67.919-87.168 0-28.817-18.742-49.794-47.276-58.386l-15.382 41.081c7.613 3.004 12.925 8.853 12.925 17.305 0 19.086-15.344 32.191-97.471 91.725v38.172h147.75v-34.754h90.668v34.754h49.162v-34.754h23.017v-43.01z" fill="#faaf40"/></g></g><g transform="matrix(.039858 0 0 -.039819 94.143 609.27)"><g transform="translate(-544.37 -279.65)"><path d="m0 0-13.943 40.992-14.029-40.992h-53.642v12.783h15.897v44.058h14.623v-44.058h11.343l16.54 44.058h18.449l21.34-56.841z" fill="#faaf40"/></g></g></g></g></svg>
