<svg width="574.41" height="800" version="1.1" viewBox="0 0 516.66 719.43" xmlns="http://www.w3.org/2000/svg">
 <g transform="matrix(1.0461 0 0 1.0461 -18.408 -20.715)">
  <path transform="matrix(1.5253,1.5253,-1.5253,1.5253,11.347,91.081)" d="m78.332-103.84h14.325v14.325h-14.325z" fill="#e53531" filter="url(#k)" stroke="#e53531" stroke-linecap="round" stroke-linejoin="round" stroke-width=".72009"/>
  <path transform="matrix(1.5253,1.5253,-1.5253,1.5253,11.347,91.081)" d="m61.868-87.379h14.325v14.325h-14.325z" fill="#e53531" filter="url(#l)" stroke="#e53531" stroke-linecap="round" stroke-linejoin="round" stroke-width=".72009"/>
  <path d="m379.48 105.82c-0.57444-0.10747-5.1205 4.0174-10.336 9.3922-11.231 11.573-10.669 8.6992-5.5418 28.308 4.0849 15.621 4.0185 15.239 3.3336 18.99-0.65788 3.6026-7.2709 12.624-11.49 13.171-9.3484 1.21-15.878 1.8616-22.279 2.3618-2.6746 0.20906-5.3263 0.39175-8.1519 0.57773-1.9792 0.13027-4.0435 0.26218-6.2606 0.40593-7.7472 0.50232-3.4026 0.33301-4.7663 0.48882-1.3638 0.15589-7.6115 0.86249-13.885 1.5693-13.105 1.4767-51.358 0.6819-62.761-0.57228-2.5283-0.27809-3.9346 0.79498-7.6029 0.14869-0.2928 0.29878-13.264 0.13773-15.238-0.10954l-9.0721-1.1364c-16.207-2.0301-39.919-26.522-45.715-39.438-3.6157-8.0581-5.0741-13.926-6.165-24.807l-0.76111-7.5938-3.5823 6.5817c-5.2858 9.7104-7.1208 17.998-6.6475 30.029 0.35174 8.9399 1.5054 20.619 5.0426 27.229 6.3199 11.811 10.621 17.738 23.439 25.29 4.3228 2.2863 7.1493 2.2568 9.1107 2.7775 3.798 1.0085 4.979 0.97944 11.893 2.0896 7.0119 1.1258 23.64 4.279 29.576 4.2814l30.482 3.189 25.339-1.2038c6.7258-0.31953 30.342-0.54393 40.78-2.4865 2.4384-0.45381-10.79-0.15497-2.7932 0.32521 5.1639 0.31006 26.161-2.8974 30.053-3.8815 1.2274-0.31026 3.0128-0.75035 3.9673-0.97771 11.081-2.6399 11.632-2.9395 18.677-10.134 8.6459-8.829 13.571-16.589 16.972-26.735 3.4854-10.4 3.655-25.672 0.43375-39.162-2.1492-9.0003-4.8595-17.546-6.0077-18.945-0.0108-0.0132-0.0244-0.0198-0.0427-0.0236zm-173.39 97.346c0.0604 0.0339 0.11773 0.19841 0.1549 0.13939-7e-3 -2e-3 -9e-3 -5e-3 -0.0112-7e-3 -0.0349-0.0231-0.0721-0.0427-0.1052-0.0685 0-1e-3 -0.0237-0.0177-0.0224-0.026 4.7e-4 -2e-3 -3.6e-4 -5e-3 7e-3 -7e-3 -0.0179-9e-3 -0.0157-0.0198-0.0157-0.0317zm0.0313 7e-3c1.1e-4 1e-3 3.6e-4 2e-3 -7e-3 7e-3 -9.365 12.831-9.351 12.813 7e-3 -7e-3z" fill="#e53531" stroke-width="1.0021"/>
  <path d="m197.31 178.89h139.7v11.022h-139.7z" fill="#e53531" stroke="#e53531" stroke-linecap="round" stroke-linejoin="round" stroke-width="1.1382"/>
  <path d="m344.65 201.01a101.5 20.19 0.99054 0 1-87.07 7.2862 101.5 20.19 0.99054 0 1-83.861-11.291l87.338-8.8326z" fill="#e53531" stroke="#e53531" stroke-linecap="round" stroke-linejoin="round" stroke-width="1.6925"/>
  <path d="m204.87 178.92a4.9067 0.75387 10.913 0 1-4.1093-0.45761 4.9067 0.75387 10.913 0 1-3.9202-1.1087" fill="none" stroke="#e53531" stroke-linecap="round" stroke-linejoin="round" stroke-width="1.1476"/>
  <path transform="matrix(1.5253,1.5253,-1.5253,1.5253,11.347,91.081)" d="m149.53-16.66h14.325v14.325h-14.325z" fill="#57b24c" filter="url(#m)" stroke="#57b24c" stroke-linecap="round" stroke-linejoin="round" stroke-width=".72009"/>
  <path transform="matrix(2.1571,0,0,2.1571,11.347,91.081)" d="m112.53 8.4869c-5.858 0.03022-11.587 0.84825-16.997 2.4756-6.4598 1.943-15.532 6.5984-15.482 7.9451 0.01455 0.39831 0.48265 2.8698 1.0397 5.4917l1.0129 4.7667 7.4393 1.9831c2.5178 0.67106 4.8008 1.3717 6.2466 1.8963 5.3595 1.508 10.508 3.4542 14.573 5.5083 1.6391 0.82835 3.1633 1.6232 4.3278 2.3578 0.84965 0.35206 2.633 1.7633 2.1152 0.58979 0.1324-0.14659 0.21839-0.21266 0.3638-0.33691 0.0135-0.01071 0.0254-0.02355 0.0388-0.03447 0.051-0.0666 0.10187-0.13327 0.15246-0.20014 0.0717-0.0948 0.14168-0.19122 0.21238-0.28687 0.22074-0.32008 0.44897-0.63376 0.69815-0.92899 0.0946-0.11213 0.23117-0.26201 0.34314-0.36304 0.0114-0.01032 0.0238-0.01955 0.0356-0.02947 0.0148-0.09705 0.0582-0.20591 0.14057-0.32078 3e-3 -0.0039 0.0116-0.01556 0.0201-0.02724-0.0343-0.04252-0.0589-0.09809-0.0682-0.17679-0.0233-0.19848 0.037-0.21983 0.1287-0.36248 7e-3 -0.01021-0.0153 0.01799-0.0233 0.02724-0.0151 0.03169-0.01 0.01969 0.013-0.01947 0.0501-0.08602 0.10226-0.1622 0.16795-0.23516 7e-3 -0.0082 0.0143-0.01662 0.0212-0.02503 0.0477-0.06472 0.10012-0.12401 0.15402-0.1818 0.0631-0.09035 0.12062-0.18621 0.19534-0.2663 0.0177-0.01818 0.037-0.03495 0.0553-0.05226 0.0196-0.04416 0.0386-0.08859 0.0579-0.13287 0.0148-0.04016 0.0311-0.07063 0.0486-0.09785 0-0.0081-2.1e-4 -0.01643 0-0.02445 0.0101-0.06504 0.0621-0.16997 0.0909-0.23239 0.0295-0.06375 0.0592-0.1279 0.0884-0.1918 5e-3 -7e-3 7e-3 -0.01516 0.0103-0.02281-3e-3 -0.07488 0.18346 0.04322 0.22169-0.04781 0.0214-0.05056 0.28348-0.03261 0.31057-0.08617 0.013-0.01968-0.11414-0.20065-0.10078-0.22016 0.0191-0.0632 0.11512-0.0313 0.19844 0 0.31131 0.79102 0.9892 0.64251 1.0449 0.55039 0.0438-0.07239 0.59624 1.6848 0.64492 1.6412 0.0455-0.08606-1.242-3.0446-1.1869-3.1254 0.0445-0.06522-0.12546-0.16814-0.0854-0.21272l-12.135-8.0633c-0.80145-0.44164-1.3981-0.84885-2.3993-1.3772-4.1534-2.1919-5.1512-3.0055-4.5108-4.2928 6.5767-3.5817 14.009-3.2133 20.478-2.0453 1.1829 0.35831 0.37502 1.5627-1.0974 2.8956-0.72679 0.65792-7.7564 4.8701-9.0934 6.401 0.69667 0.33242 4.536 3.0159 9.8144 6.3874 3.5601-0.58478 17.926-3.5934 19.083-4.0664 0.54168-0.22156 1.9582-2.0834 3.1476-4.1374s2.8071-4.7883 3.5951-6.0765c0.78804-1.2882 1.3452-2.495 1.2382-2.6813-0.10702-0.1863-1.3448-0.92764-2.7507-1.6478-10.799-5.532-22.452-8.3452-33.636-8.2875zm-21.229 35.79c-5.5623 5.6113-10.236 9.8515-14.975 17.243-9.8144 15.305-11.852 36.643-4.9425 52.976 4.2446 10.035 11.329 19.15 20.827 26.797 5.7497 4.6296 9.45 6.4749 16.616 8.2848 2.5064 0.63296 4.7398 0.80194 9.0842 0.68826 6.2391-0.16328 6.7636-0.23652 10.413-1.4555 9.6849-3.2351 18.753-12.264 25.183-25.075 2.2268-4.4363 3.583-8.4306 5.4033-15.913 1.17-4.8096 1.4294-6.8968 1.6304-13.109 0.27686-8.5561-0.10043-11.187-2.3203-16.17-3.5184-7.8982-10.638-12.13-20.37-12.107-3.6995 0.0084-5.251 0.28257-13.072 2.3133-1.5841 0.41134-5.8739 0.87167-9.5328 1.0224-7.0303 0.2896-13.425-0.41464-19.934-2.1949-1.706-0.46663-3.1733-0.78508-3.2608-0.70772-0.34869 0.30822 2.0053 3.4651 4.8483 6.5018 2.0261 2.1642 4.0581 3.7684 6.2467 4.9318l3.2432 1.7246 5.3175-0.2613c5.3272-0.26142 14.041-1.4289 23.848-3.1956 4.4404-0.79993 5.5175-0.85305 7.0791-0.34969 3.3904 1.0928 6.5816 5.7957 7.8951 11.635 0.79978 3.5558 0.68615 12.263-0.20775 15.915-1.6409 6.7033-5.3971 13.088-9.8769 16.789-4.0123 3.3143-10.049 6.423-14.696 7.5676-1.1428 0.28149-2.4762 0.61068-2.9636 0.73107-4.2372 1.0465-13.194 1.3956-14.423 1.0385-0.23522-0.0684-1.8871-0.39755-2.8417-0.65101-0.88532-0.23507-2.9742-0.86527-4.608-1.5806-9.5324-4.1734-16.677-13.521-20.814-27.231-2.3015-7.6278-1.9046-14.326-0.99989-19.597 1.4601-8.5056 3.0637-13.761 6.1039-18.423 2.7444-4.0397 6.7461-9.6496 11.185-14.129 3.4891-3.5213 6.3776-6.6814 12.402-9.5679-0.24248-0.12619 13.037-3.0058 13.066-3.3339 0.19837-2.2012-7.9922-7.5618-9.8144-6.3874l-10.287 6.6294c-3.3366 3.1146-7.7553 5.8884-10.453 8.6522zm29.021-7.8267c3e-3 0.01265 6e-3 0.02664 0.01 0.03891-8e-3 -0.01043-0.0326-0.03714-0.0299-0.03614 3e-3 -6e-3 0.0108-0.0045 0.0201-0.0029zm-0.60719 0.84226c0.0273-0.02357-0.0721 0.04301-0.0904 0.0795-3e-3 0.0032 1.5e-4 3e-3 -3e-3 0.0061 0.0272-0.02727 0.0545-0.05301 0.093-0.08562zm-0.15762 0.23128c-3e-3 0.0105-7e-3 0.02447-8e-3 0.03336 3e-3 -0.0041 5e-3 -0.0082 8e-3 -0.01225 8e-5 -0.0071 3e-5 -0.0141 0-0.02111zm-0.74464 1.4516c-3e-3 0.0024-3e-3 0.0033-3e-3 5e-3 0 0.0016 3e-3 -0.0029 3e-3 -0.0045v-5.29e-4z" fill="#57b24c" filter="url(#j)" stroke-width=".4596"/>
  <path d="m254.98 110.18c-12.636 0.0652-24.994 1.8297-36.664 5.3401-13.934 4.1912-33.503 14.233-33.396 17.138 0.0314 0.85918 1.0411 6.1903 2.2428 11.846l2.1848 10.282 16.047 4.2776c5.431 1.4475 10.356 2.9588 13.474 4.0905 11.561 3.2529 22.667 7.451 31.434 11.882 3.5357 1.7868 6.8234 3.5013 9.3354 5.086 1.8328 0.75943 5.6795 3.8036 4.5626 1.2722 0.28559-0.31621 0.47107-0.45872 0.78474-0.72673 0.0291-0.0232 0.0548-0.0508 0.0836-0.0744 0.1101-0.14366 0.21973-0.28747 0.32885-0.43172 0.15467-0.20449 0.30563-0.41247 0.45812-0.61879 0.47616-0.69042 0.96846-1.3671 1.506-2.0039 0.20409-0.24187 0.49864-0.56518 0.74017-0.78309 0.0245-0.0223 0.0514-0.0422 0.0769-0.0636 0.032-0.20935 0.12556-0.44417 0.30323-0.69195 6e-3 -8e-3 0.0251-0.0336 0.0434-0.0588-0.074-0.0917-0.12715-0.21159-0.14713-0.38135-0.0502-0.42814 0.0798-0.47419 0.2776-0.78189 0.0143-0.022-0.0331 0.0388-0.0502 0.0588-0.0325 0.0684-0.0211 0.0425 0.028-0.042 0.10798-0.18555 0.22059-0.34988 0.3623-0.50727 0.016-0.0176 0.0308-0.0359 0.0456-0.054 0.10279-0.13962 0.21597-0.26751 0.33222-0.39214 0.13612-0.19489 0.26019-0.40168 0.42137-0.57443 0.0382-0.0392 0.0798-0.0754 0.11922-0.11272 0.0422-0.0953 0.0831-0.1911 0.12487-0.28662 0.032-0.0866 0.0672-0.15235 0.10479-0.21106 0-0.0174-4.6e-4 -0.0354 0-0.0527 0.0217-0.14029 0.13383-0.36663 0.19616-0.50128 0.0636-0.1375 0.12767-0.27588 0.19062-0.41372 0.01-0.015 0.0148-0.0327 0.0223-0.0492-6e-3 -0.16152 0.39573 0.0932 0.4782-0.10314 0.0462-0.10906 0.61148-0.0703 0.66992-0.18587 0.028-0.0425-0.24621-0.43283-0.21739-0.47489 0.0411-0.13634 0.24832-0.0675 0.42804 0 0.67151 1.7063 2.1338 1.3859 2.254 1.1872 0.0946-0.15614 1.2861 3.6342 1.3911 3.5401 0.0982-0.18565-2.6791-6.5674-2.5603-6.7417 0.096-0.14068-0.27064-0.3627-0.18429-0.45885l-26.176-17.393c-1.7288-0.95265-3.0159-1.831-5.1755-2.9707-8.959-4.728-11.112-6.483-9.7302-9.2599 14.186-7.7258 30.218-6.9312 44.172-4.4119 2.5516 0.77289 0.80894 3.3709-2.3672 6.246-1.5677 1.4192-16.731 10.505-19.615 13.807 1.5028 0.71705 9.7844 6.5054 21.17 13.778 7.6794-1.2614 38.668-7.7511 41.163-8.7716 1.1684-0.47793 4.224-4.494 6.7896-8.9246s6.0551-10.329 7.7549-13.107c1.6998-2.7788 2.9017-5.382 2.6708-5.7838-0.23086-0.40186-2.9008-2.001-5.9335-3.5545-23.295-11.933-48.431-18.001-72.554-17.877zm-45.793 77.202c-11.998 12.104-22.079 21.25-32.303 37.194-21.17 33.013-25.565 79.04-10.661 114.27 9.1558 21.646 24.437 41.307 44.924 57.803 12.403 9.9864 20.384 13.967 35.842 17.871 5.4064 1.3654 10.224 1.7298 19.595 1.4846 13.458-0.3522 14.59-0.51019 22.461-3.1395 20.891-6.9784 40.451-26.454 54.322-54.088 4.8033-9.5693 7.7288-18.185 11.655-34.326 2.5237-10.375 3.0832-14.877 3.5168-28.278 0.59721-18.456-0.21664-24.131-5.0049-34.88-7.5893-17.037-22.947-26.164-43.94-26.117-7.98 0.0182-11.327 0.60953-28.196 4.9899-3.417 0.88729-12.67 1.8802-20.563 2.2054-15.165 0.62469-28.959-0.8944-42.998-4.7345-3.6799-1.0066-6.845-1.6934-7.0337-1.5266-0.75215 0.66486 4.3255 7.4744 10.458 14.025 4.3705 4.6683 8.7536 8.1286 13.474 10.638l6.9958 3.72 11.47-0.56363c11.491-0.56389 30.286-3.0822 51.441-6.8931 9.5782-1.7255 11.902-1.8401 15.27-0.75431 7.3134 2.3573 14.197 12.502 17.03 25.098 1.7252 7.6701 1.48 26.452-0.44813 34.329-3.5395 14.459-11.642 28.232-21.305 36.214-8.6548 7.1492-21.677 13.855-31.7 16.324-2.4651 0.60719-5.3414 1.3173-6.3928 1.577-9.14 2.2573-28.461 3.0104-31.111 2.2401-0.50737-0.14745-4.0706-0.85754-6.1297-1.4043-1.9097-0.50705-6.4155-1.8664-9.9397-3.4094-20.562-9.0022-35.974-29.166-44.896-58.739-4.9644-16.454-4.1082-30.903-2.1568-42.271 3.1494-18.347 6.6085-29.683 13.166-39.74 5.9198-8.7139 14.552-20.815 24.126-30.478 7.5262-7.5957 13.757-14.412 26.753-20.638-0.30641-0.15946 28.266-6.8466 28.183-7.1865-1.4651-5.9644-38.049 2.4146-43.358 0.51707-7.1972 6.7184-16.729 12.702-22.548 18.663zm62.599-16.883c7e-3 0.0273 0.0131 0.0575 0.0211 0.084-0.0183-0.0225-0.0704-0.0801-0.0646-0.078 6e-3 -0.013 0.0234-0.01 0.0434-6e-3zm-1.3098 1.8168c0.0589-0.0508-0.15564 0.0928-0.19507 0.17149-6e-3 7e-3 3.4e-4 7e-3 -6e-3 0.0132 0.0587-0.0588 0.11762-0.11434 0.20061-0.18468zm-0.33998 0.49887c-7e-3 0.0227-0.0154 0.0528-0.0177 0.072 6e-3 -9e-3 0.0114-0.0177 0.0177-0.0264 1.7e-4 -0.0152 6e-5 -0.0304 0-0.0456zm-1.6062 3.1312c-6e-3 5e-3 -6e-3 7e-3 -6e-3 0.0108 0 4e-3 6e-3 -6e-3 7e-3 -0.01v-1e-3z" fill="#57b24c" stroke-width=".99139"/>
  <path d="m272.8 168.4a8.7493 8.1264 74.109 0 1 3.2153 8.1328 8.7493 8.1264 74.109 0 1-4.9062 6.7572 8.7493 8.1264 74.109 0 1-8.1184-1.3799" fill="#58b14d" stroke-width="2.2371"/>
 </g>
 <g fill="#fff">
  <path d="m476.37 246-10.002-9.0344 37.895-0.20502 10.002 9.0346z" stroke-width="2.3406"/>
  <path d="m508.01 263.83c5.4198 4.3509 8.2999 9.931 8.6404 16.74 0.12795 2.3299-0.65205 7.7371-2.3403 16.222l-0.0392-0.018-0.22047-0.24687-9.2745-6.4371c1.4575-5.0432 2.4689-8.8557 3.034-11.438 2.5168-8.1413-4.8844-9.9278-11.548-11.492-4.3689-0.8494-11.98-1.0288-19.798-1.5708l-6.7176-8.5585 29.983 1.8331c1.7173 0.7052 3.2815 1.4988 4.6923 2.3809 1.411 0.88205 2.6075 1.744 3.5895 2.5858z" stroke-width="2.2566"/>
  <path d="m492.07 278q-1.1101 4.23-2.202 8.4206-1.0524 4.209-2.1442 8.3996l-7.3686-9.2887q2.4355-9.1272 4.3647-16.86z" stroke-width="2.2566"/>
  <path d="m514.44 295.67-0.0368 0.0788c-0.11034 0.23633-0.3098 0.2871-0.59857 0.15232-0.21009-0.0979-0.48841-0.32371-0.83505-0.67731-0.0959 2.1933-0.62516 5.1436-1.5875 8.8512-0.95008 3.6814-2.211 7.1391-3.0913 9.5742l-9.1046-6.8708c3.7588-10.524 5.5329-17.274 5.3226-20.25-0.15773-1.992-0.93778-3.7468-2.3401-5.2641-0.12253-0.21708-0.16541-0.36496-0.12885-0.44369 0.0368-0.0788 0.19971-0.0507 0.48841 0.084 0.4989 0.23277 0.80176 0.406 0.90856 0.51973 1.6088 1.4859 3.5424 3.4751 5.8008 5.9675s3.9923 5.2517 5.2023 8.278z" stroke-width="2.2566"/>
  <path d="m470.75 300.81-7.0931-10.599 36.36 12.588 8.4978 10.775-10.432-3.9558c0.19091 0.34483 0.46303 0.82355 0.81675 1.4361l0.0203 0.058c2.5161 5.2982 2.9911 11.339 1.4252 18.122-1.5659 6.7832-3.7743 12.579-6.6253 17.388-0.63173 1.0801-1.464 1.9388-2.4967 2.5761-1.0327 0.63725-2.1521 0.70653-3.3582 0.20782-3.5397-2.8983-6.4764-5.5473-8.8099-7.947 1.9535 0.33584 3.7301-0.59383 5.3298-2.7891 1.5997-2.1953 2.9918-4.871 4.1765-8.0271 0.95719-2.463 2.0246-5.8818 3.2021-10.256 1.1898-4.4008 1.8396-8.1582 1.9496-11.272l-0.0203-0.058c0.0544-0.39034 0.0579-0.74045 0.0113-1.0503z" stroke-width="2.2566"/>
  <path d="m486.7 367.22q0.49373 1.7172 1.5494 3.3607 1.0741 1.6041 2.3031 3.1847 3.1249 4.0957 2.3536 7.9082-0.66916 3.2847-3.52 7.1344-0.91883 1.2499-4.996 5.7743-4.0772 4.5244-5.3636 5.1233-0.86388 0.41227-0.8613-0.92937 0.62155-6.4723 2.5007-13.173 1.8976-6.7404 3.0809-13.286 0.45923-2.4236-0.57821-4.8259l0.0392 0.0181q-0.49117-0.90049 0.0523-1.6542 0.91616-1.3471 2.5233-0.16564 0.89277 0.6563 0.91651 1.5307z" stroke-width="2.2566"/>
  <path d="m490.38 348.65q-0.28864 1.5439-0.59831 3.0301-0.34907 1.4678-0.61931 2.9724l-0.0181 0.0392 0.0788 0.0368q-0.6297 4.0226-1.6191 8.4048-1.0104 4.3245-0.204 6.811l0.0203 0.058q0.77472 1.3206 0.46232 1.9902-0.23886 0.51201-1.1289 0.67227-0.73522 0.13653-1.4048-0.17579-1.1028-0.51449-1.9695-2.3577l-0.0788-0.0368q-1.2841-1.4623-2.198-2.8958-3.8104-5.7105-3.1414-8.9951 0.66917-3.2847 1.9133-6.8767l-0.11801-0.055 0.0552-0.11825q0.0866-0.39118 0.23092-0.80347 0.10493-0.4306 0.1706-0.87961l-0.0605-0.0763 0.0368-0.0788 0.43829-1.7619q-7.9068-9.0601-11.944-18.089-2.3349-5.0698-0.95665-8.0239 0.51452-1.1028 1.562-1.909 2.5912-1.9564 6.3331-0.21077 1.8512 0.86364 3.9598 2.6147 5.3569 5.3767 8.7106 12.169t2.0864 14.546zm-15.47-16.905q-0.23081 2.2423 0.75139 4.0433 0.94278 1.7827 1.8646 3.5076 0.4098 0.76661 1.0793 1.079 0.47261 0.22047 1.0555 0.20467 1.4572-0.0395 2.3708-0.76442 1.0526-2.7702 1.0102-6.4829-0.0203-1.4966-1.3997-2.1398-0.74835-0.34914-1.9956-0.4514-3.3898-0.23854-4.7365 1.0036z" stroke-width="2.2566"/>
  <path d="m458.38 315.89q1.3552 2.6465 2.6316 5.2562 1.2763 2.6097 2.5526 5.2194l-7.9632 3.191q-1.3341-2.5887-2.5921-5.238-1.2763-2.6097-2.5921-5.238z" stroke-width="2.2566"/>
  <path d="m464 343.01q1.3551 2.6465 2.6316 5.2562 1.2763 2.6097 2.5526 5.2194l-7.9632 3.191q-1.3341-2.5888-2.5921-5.238-1.2763-2.6097-2.5921-5.238z" stroke-width="2.2566"/>
  <path d="m476.98 388.57q-2.4592 3.6164-4.888 7.2016-2.3978 3.6159-4.8266 7.2012l-3.8429-11.217q5.344-7.7894 9.745-14.434z" stroke-width="2.2566"/>
  <path d="m450.91 360.32q4.2469 4.2974 5.5173 9.2662 1.2707 4.9683 0.99925 9.2734-0.21392 3.8127-2.0902 7.332-1.8766 3.4578-5.2533 7.6349l-6.5614-9.196 0.0614-0.0626q4.3177-5.5681 5.9538-8.4091 1.6664-2.8722 2.1949-5.8269-1.3317-1.2492-8.4635-5.0926l-2.4046-11.935q5.8001 2.6562 10.047 7.0157z" stroke-width="2.2566"/>
  <path d="m453.77 421.94q-2.3074 3.3999-5.2329 6.3746-0.60951 0.61978-1.2804 1.24-3.6894 3.5036-7.4745 6.6085-0.33523 0.34073-0.70704-0.0248-0.34098-0.33521-0.25314-0.79672 2.1186-7.6087 5.4664-15.227 3.3169-7.6495 6.4798-15.329 1.6577-3.917 1.3765-8.1557-0.0645-0.36822-0.40535-0.70349-0.24787-0.2438-0.61916-0.48611-0.95754-0.57593-1.7885-0.72268-0.8182 1.3899-2.0372 2.6293-0.45717 0.46484-0.97616 0.86868-1.8609 1.6444-3.583 1.5359-1.4755-0.0492-2.4981-1.0549-0.92964-0.91424-1.4971-2.6306-1.0091-3.0649-2.2643-6.1892-1.2553-3.1242-1.4664-6.3187-0.07-1.0444 0.5699-1.6951 0.30472-0.30977 0.76378-0.52888 1.4695-0.68827 2.5757-0.69775 5.9008 0.0113 10.115 4.1568l0.40283 0.39619q4.3407 4.5737 6.4232 11.072 2.0821 6.4365 1.6804 13.539-0.40225 7.0412-3.7711 12.14z" stroke-width="2.2566"/>
  <path d="m409.26 404.32q-0.37431 2.6506-0.78771 5.2334-0.41324 2.5828-0.82654 5.1654l-7.5164-1.7789q0.35992-2.5972 0.80715-5.1994 0.4133-2.5827 0.80714-5.1995z" stroke-width="1.1358"/>
  <path d="m346.49 480.91c-6.8254-1.1991-9.9892-4.4692-11.429-11.813-1.205-6.1474-1.2445-9.8129 6.9453-17.88 12.808-12.617 28.672-20.924 41.216-30.153 4.5761-3.3666 3.8673 7.293-3.8341 13.435-19.191 13.079-27.124 16.485-33.185 26.184-2.2407 3.5858 0.0735 6.2421 0.15639 6.6645 0.24106 1.2247 5.0913 2.0833 10.991 1.0681 16.183-2.7845 43.507-18.725 56.092-32.724 6.8749-7.647 11.742-19.791 7.6071-18.981-2.7142 0.53201-4.8746-8.4177-2.7835-11.529 0.73456-1.0926 1.6589-2.05 2.0541-2.1275 1.6518-0.3233 6.1647 2.7823 8.2137 5.6532 6.1144 8.5666 3.2677 18.658-9.4668 33.559-12.777 14.953-30.827 27.687-47.736 33.678-8.4734 3.002-21.358 5.5762-24.845 4.9637z" stroke-width="2.3405"/>
  <path d="m171.54 454.83 12.417-5.2424-15.842 34.426-12.417 5.2424z" stroke-width="2.3405"/>
  <path d="m128.88 488.02q-2.4384 0.69151-4.8325 1.3219-2.3942 0.63058-4.7883 1.261l-1.286-7.3823q2.3866-0.68367 4.8105-1.2915 2.3942-0.63058 4.8105-1.2915z"/>
  <path d="m111.13 467.65q-1.5157 0.11865-3.0668 0.73136-1.5215 0.63537-3.05 1.4076-3.9507 1.95-6.994 0.61425-2.6212-1.1546-5.3369-4.277-0.88296-1.008-3.9497-5.2995-3.0667-4.2916-3.3438-5.499-0.19467-0.81252 0.92266-0.57282 5.285 1.6782 10.544 4.4738 5.2883 2.8181 10.537 4.9902 1.9399 0.82231 4.1202 0.35968l-0.0221 0.0304q0.83488-0.26096 1.3691 0.33773 0.96436 1.0229-0.29683 2.1894-0.70069 0.64806-1.4331 0.51352z"/>
  <path d="m156.02 453.55q-3.6369 3.0433-8.5579 4.487l-4.832-6.1175 1.1959-0.69522q1.3325 0.45188 3.1532 0.99339 1.8725 0.53375 3.5369 0.71864 3.4399-4.8053 6.8694-10.234 3.4523-5.4592 6.559-10.378l9.8094-3.8601-12.117 18.868q-2.3707 3.5865-5.6169 6.2182z"/>
  <path d="m142.78 467.19q0.74701 0.0509 1.0424-0.10199 0.37445-0.89791-1.0949-2.6867-1.6549-1.9782-4.3458-4.1813-2.6612-2.1803-3.6482-3.3627-0.46732-0.50008 0.77279-1.2563 2.0228-1.1993 4.0682-2.2391 2.0972-1.0476 4.2827-2.2169l0.0293 0.0224q1.6996 2.1073 5.5775 5.5985 3.8778 3.4912 4.5879 6.0728 0.42645 1.7008-1.4928 2.8846-1.8972 1.1533-2.953 1.7189-1.868 0.98609-3.7442 1.729-1.8541 0.71242-3.782 1.4631-3.3094 1.2564-6.1999 1.5542-2.8686 0.26723-5.5318-0.0665-3.3661-0.44557-8.029-1.8371-1.6504-0.45846-3.3602-0.96235-1.7097-0.50386-3.5374-0.90858-2.5678-0.5924-3.5887-0.71088-1.5016-0.15489-3.1428 9e-3l-0.0522 7e-3q-2.1646 0.75897-2.1032-1.0421 0.0613-1.8012 2.692-2.44l0.0441-0.0609q0.93026-0.51961 1.646-1.0613 0.74539-0.51904 1.4169-0.99986 1.2175-0.91566 2.5769-1.3909 1.3814-0.50583 3.7416-0.0724 1.872 0.34382 3.5817 0.84772 1.7614 0.49606 3.427 1.0608 2.28 0.7985 4.538 1.6274 2.28 0.79842 4.7443 1.4063 3.2637 0.84102 7.8361 1.5945z"/>
  <path d="m127.51 449.86q-2.4384 0.69144-4.8325 1.3219-2.3942 0.63052-4.7884 1.261l-1.2861-7.3824q2.3866-0.68366 4.8105-1.2915 2.3942-0.63042 4.8105-1.2915z"/>
  <path d="m100.61 438.57-13.275 2.3325 23.141-30.01 13.275-2.3325z" stroke-width="2.3405"/>
  <path d="m110.55 391.39q-1.568 0.4649-3.1709-0.31086-1.603-0.77587-3.6804-0.56803-0.20336 1.451 0.56538 2.9629 0.76876 1.5119 1.014 2.991 0.23131 1.7035-0.92074 2.7199-0.67535 0.59582-1.7105 0.94391-2.9911 1.0139-6.5429 0.19117-3.0727-0.68004-5.2132-2.4654-2.1754-1.825-4.4607-3.6945 2.4816 1.1311 5.0332 2.3416 2.5516 1.2106 5.1221 2.1219 0.84821 0.2407 1.1263-4e-3 0.11917-0.10513 0.09813-0.36917-0.23361-1.0655-0.57233-2.2502-0.41363-1.1895-0.61215-2.2152-0.53743-2.2106 0.89274-3.4724 1.5095-1.3318 5.3161-1.5816 7.2743-0.48338 9.9427 0.0588 1.1123 0.21974 3.0097 1.089z" stroke-width=".10765"/>
  <path d="m67.837 418.41q-4.893-3.3838-8.003-5.8678-3.0751-2.4444-7.7369-2.9236l-0.07432-4e-3q-3.2528 0.39708-2.6498-2.0424 0.60294-2.4395 4.4749-2.5351l0.07945-0.0701q2.2596-0.72196 4.3067-1.0443 5.1105-1.8948 9.5713-0.60238 3.6522 1.0165 6.8628 3.6946 3.2106 2.678 6.9749 5.5032 1.5002 1.2199 3.4489 2.4677 2.0236 1.2526 4.1524 1.4232-5.4751 4.124-10.779 4.9182-5.2297 0.79887-10.627-2.9167z" stroke-width=".10765"/>
  <path d="m55.514 410.21q-2.1592-0.28519-4.5099 0.0932-2.3157 0.41809-4.6805 1.0208-6.099 1.4952-9.9824-1.2249-3.3439-2.3486-6.2552-7.41-0.94857-1.6356-4.0166-8.3958-3.0678-6.7601-3.1098-8.4893-0.03971-1.166 1.4582-0.50929 6.9283 3.8488 13.499 9.2143 6.6057 5.405 13.342 9.917 2.4839 1.6942 5.6735 1.706l-0.03972 0.0351q1.2455-0.10979 1.8226 0.86466 1.0585 1.6801-1.0447 2.8997-1.1683 0.67765-2.1567 0.27802z" stroke-width=".10765"/>
  <path d="m8.5519 370.13q-2.1383-3.8148-4.2625-7.5885-2.1652-3.7595-4.2894-7.5332l11.752 1.5678q4.5848 8.2589 8.566 15.163z" stroke-width="2.2565"/>
  <path d="m84.512 372.71c-0.43542 0.14963-1.1719 0.22014-2.2094 0.2115-1.0375-8e-3 -2.0937-0.0716-3.1687-0.18893-1.075-0.11738-2.0411-0.27222-2.8982-0.46462-0.82999-0.20158-1.2777-0.39764-1.3432-0.58813 0.0059-0.33682-0.0017-0.66886-0.02287-0.9962-0.02132-0.32746-0.04249-0.65481-0.06374-0.98231l-0.0038-0.40941c-0.05182-0.68202-0.13555-1.3684-0.2512-2.059-0.07899-0.67268-0.20742-1.2676-0.38509-1.7845-0.86048-2.5038-2.9685-4.609-6.3242-6.3161-2.8165-1.4664-4.8371-1.989-6.0617-1.5682-1.5513 0.53311-1.6978 3.3828-0.43947 8.5491 0.37236 1.8803 0.6006 3.4298 0.68468 4.6484 0.08413 1.2187 0.07004 2.1517-0.04225 2.7989-0.36413 1.9508-2.043 3.4406-5.0366 4.4694-6.2593 2.1511-13.069 0.93107-20.429-3.6598-15.501-17.437-24.663-46.637-29.845-70.224-5.7408-19.576-3.3063-54.279-1.1757-56.52 8.5762-13.151 21.759-9.7438 27.566 2.3602 12.789 33.876 15.111 63.619 17.839 75.829 0.84866 3.7992 1.9076 6.7406-4.3249 4.0467-3.9189-1.6938-4.6235-3.2699-4.6235-3.2699s-0.29022-3.6948-2.0649-14.012c-2.2154-12.879-7.3774-34.271-10.378-47.112-2.6025-11.138-10.86-15.503-11.699-14.926-9.8126 8.1313-3.6673 38.43-1.6067 49.616 0.08446 1.1978 2.9143 16.886 7.419 30.923 3.8742 12.073 9.3812 22.794 9.8873 23.922 3.9103 8.7196 8.5228 15.237 16.477 19.257 0.6318 0.42172 1.1654 0.55784 1.6009 0.40821 0.54429-0.18706 0.72632-0.67562 0.54612-1.4656-0.81613-3.6143-1.4193-6.3433-1.8096-8.1871-0.38082-1.8164-0.57166-2.7702-0.57254-2.8612-0.10874-1.9101 0.20818-3.5556 0.95075-4.9366s1.9439-2.3568 3.6039-2.9273c5.6062-1.9266 12.123-1.3819 19.549 1.6344 7.0337 2.8468 11.224 6.2296 12.571 10.148 0.24315 0.70749 0.36822 1.4253 0.37488 2.1532 0.0063 0.72793-0.08264 1.3976-0.26802 2.0092-0.18544 0.61137-0.46273 1.1327-0.83187 1.5638-0.33252 0.44906-0.73014 0.75303-1.1928 0.91202z" stroke="#000" stroke-width="1.5705"/>
  <path d="m487.56 204.17c-0.4813-15.717-9.0281-42.965-20.813-66.357-26.813-53.219-73.327-97.455-138.84-132.05l-10.978-5.7965 5.4891 0.65657c4.1562 0.49715 8.5059 1.2215 13.094 2.1831 6.6226 1.3882 13.741 3.2709 21.488 5.6784 10.274 3.1926 27.447 11.173 27.447 12.756 0 0.55218-1.2528 2.9886-2.7842 5.4144-1.5313 2.4256-2.5298 4.8218-2.219 5.3248 0.31085 0.50292 3.6633 2.0333 7.4498 3.4007 11.82 4.2685 38.517 18.326 45.249 23.913 3.7667 3.1256 7.4318 6.114 9.2792 7.9616l3.0793 3.0793-5.7466 5.7371c-4.3238 4.3166-4.3022 4.5438-2.1614 6.1133 16.938 12.417 23.513 17.803 31.949 26.167 8.7083 8.6354 18.002 20.372 18.002 22.735 0 0.42848-2.9794 1.8654-6.6208 3.193-3.6414 1.3277-6.8663 2.8115-7.1664 3.2971-0.30013 0.48567 2.3597 4.9836 5.9106 9.9955 9.08 12.815 16.802 25.375 22.208 36.123 4.2417 8.4328 8.7232 19.743 8.7232 22.014 0 0.50931-4.9403 0.92596-10.978 0.92596-10.631 0-10.981-0.0784-11.054-2.47z" stroke="#000" stroke-width="1.2005"/>
  <path d="m24.578 204.13c0.48128-15.717 9.0281-42.965 20.813-66.357 26.813-53.219 73.327-97.455 138.84-132.05l10.978-5.7965-5.4891 0.65657c-4.1562 0.49715-8.5059 1.2215-13.094 2.1831-6.6224 1.3882-13.741 3.2709-21.488 5.6784-10.274 3.1926-27.447 11.173-27.447 12.756 0 0.55221 1.2528 2.9886 2.7842 5.4144 1.5313 2.4256 2.5298 4.8218 2.219 5.3248-0.31086 0.50292-3.6633 2.0333-7.4498 3.4007-11.82 4.2685-38.517 18.326-45.249 23.913-3.7667 3.1256-7.4316 6.114-9.2792 7.9616l-3.0793 3.0793 5.7466 5.7371c4.3238 4.3166 4.3022 4.5438 2.1613 6.1133-16.938 12.417-23.513 17.803-31.949 26.167-8.7083 8.6354-18.002 20.372-18.002 22.735 0 0.42848 2.9794 1.8654 6.6208 3.193 3.6414 1.3277 6.8663 2.8115 7.1664 3.2971 0.30012 0.48568-2.3597 4.9836-5.9106 9.9955-9.08 12.815-16.802 25.375-22.208 36.123-4.2417 8.4328-8.7232 19.743-8.7232 22.014 0 0.50929 4.9403 0.92597 10.978 0.92597 10.631 0 10.981-0.0784 11.054-2.47z" stroke="#090909" stroke-width="1.2005"/>
  <path d="m467.36 599.15q6.157 35.683 10.005 64.509l-9.0258 12.314q-3.4284-23.229-10.915-64.788z" stroke-width="1.275"/>
  <path d="m396.49 625.67 8.1862-13.784c4.0115 17.398 6.8101 31.928 8.396 43.59l-4.5479 12.734c13.854-4.3845 23.836-9.3521 29.945-14.903-1.1661-6.1103-3.1251-21.545-5.8772-24.811l9.3056-15.463c0.37317 1.9124 3.6626 15.486 4.9663 21.983 0.97988 4.915 1.6106 7.9815 1.6106 10.873 0 8.3028-3.685 15.603-11.055 21.9-13.807 11.941-41.537 20.687-83.191 26.237l4.128-14.903c18.145-2.2857 33.957-5.5974 47.438-9.9352-1.446-8.0228-4.5479-22.529-9.3056-43.52zm19.451 73.478-0.97956 0.76964c-0.37315-1.3527-1.1894-1.7958-2.4488-1.3294-0.7463 0.27987-1.7025 1.0028-2.8685 2.169-0.55975 0.83961-0.16338 1.306 1.1894 1.3993h3.0084c1.2128 0.18662 1.9124 0.86294 2.099 2.029 0 1.8191-0.60638 3.6383-1.8192 5.4575-2.9852 3.5451-6.577 5.504-10.775 5.8772l-3.8481-0.69965c4.0115-1.446 7.4864-3.3117 10.425-5.5974 1.1661-0.69967 1.7492-1.1428 1.7492-1.3294 0-0.27987-0.53642-0.46645-1.6093-0.55974-1.7258 0.0932-2.9153-0.18662-3.5683-0.8396-0.65303-0.60638-0.83962-1.5626-0.55975-2.8686 0.74632-4.0115 2.9852-7.02 6.7169-9.0258 0.88625-0.27987 1.5626-0.4198 2.029-0.4198 1.1195 0 1.6792 0.69968 1.6792 2.099 0 0.79296-0.13991 1.7492-0.41978 2.8686z" stroke-width="1.275"/>
  <path d="m301.58 697.06-4.408 1.9591c1.306-3.7315 3.5916-9.4456 6.8568-17.142-6.9033 1.9124-15.159 3.3817-24.768 4.408v-14.063c6.6702 0 16.396-1.7958 29.175-5.3873 3.8249-10.448 6.6002-17.235 8.3261-20.36 4.0115-7.37 8.8392-12.198 14.483-14.483 1.446-0.55975 2.9153-0.8396 4.408-0.8396 5.1775 0 9.3056 3.0552 12.384 9.1657 1.7725 3.6383 2.962 5.8772 3.5683 6.7169 1.3994 1.8191 2.9153 2.7286 4.5479 2.7286 0.79297 0 1.6559-0.18663 2.5888-0.55974l-4.8277 15.183c-4.8045 1.1195-10.402 2.8221-16.792 5.1075-3.1718 1.1661-7.9528 3.0552-14.343 5.6674-6.3904 2.5655-11.358 4.4545-14.903 5.6674-0.83961 2.7054-2.9385 8.1162-6.297 16.232zm12.034-31.696c8.396-2.1923 17.958-5.7141 28.686-10.565-4.338-5.2709-8.2094-7.9064-11.615-7.9064-4.0115 0-7.6963 2.1457-11.055 6.4369-2.6587 3.4516-4.6643 7.4632-6.0171 12.034zm6.6982-69.972 14.063 5.4575-6.157 13.713-14.763-6.1571z" stroke-width="1.275"/>
  <path d="m265.34 680.8c-2.2857 0.97954-6.1104 1.9824-11.475 3.0085-5.7373 1.2594-10.262 1.8891-13.574 1.8891v-13.784c15.066-1.306 25.14-3.685 30.227-7.1366 1.6326-1.1661 2.6822-2.3089 3.1486-3.4284l3.1486-2.169c0.0932 2.0057-0.41981 4.4312-1.5393 7.2765-1.0728 2.7986-2.2854 4.9209-3.6383 6.3669l7.9406-0.59592 2.4146 13.75c-4.3845 0.55974-10.308 1.376-17.772 2.4488zm-8.8859 19.535 14.063 5.4575-6.157 13.714-14.763-6.157z" stroke-width="1.275"/>
  <path d="m228.94 598.32c2.9387 20.897 6.0405 45.596 9.3056 74.095l2.0501-0.50286 1.6581 13.517c-2.5654 0.55973-6.4369 1.2361-11.615 2.029-1.6326-12.827-5.4574-37.875-11.475-75.144z" stroke-width="1.275"/>
  <path d="m134.36 700.24-4.9676 13.294-19.241 3.8481 4.7578-12.874zm9.5855-60.774c4.2446 3.9181 6.3669 9.2122 6.3669 15.882 0 0.65302-0.0466 1.3294-0.1399 2.029-1.6326 10.588-4.8045 17.375-9.5155 20.36-6.3904 4.1047-14.926 6.4836-25.608 7.1366v-13.784c7.2298-0.8396 11.754-1.3993 13.574-1.6792 5.1775-0.88625 9.5855-2.1223 13.224-3.7082 0-5.1775-1.7258-10.005-5.1775-14.483z" stroke-width="1.275"/>
  <path d="m95.03 600.55-6.1571 14.203-23.369 3.7082 6.1571-13.784zm4.1282 54.995q-0.83961-7.1366-7.2765-7.1366-1.1195 0-2.3089 0.27987-27.217 6.297-38.551 20.081 3.1486 0.8396 6.9268 0.8396 9.3056 0 22.459-5.4575 9.3056-4.2681 18.751-8.6059zm0 3.9181-6.8568 5.8772q-7.7662 6.577-21.69 12.104-13.854 5.4575-22.18 5.4575-5.3873 0-6.297-2.5188-0.41979-1.4693-0.41979-3.1486 0-5.4575 4.058-12.314 4.1279-6.9268 10.145-11.335 12.034-9.0258 19.941-13.084 11.125-5.5974 21.34-5.5974 5.5974 0 7.6963 4.6178 0.90956 1.8891 1.3294 6.7169l2.5887 25.398 10.285-0.90958 0.4198 13.784-17.212 2.7286z" stroke-width="1.275"/>
  <path d="m155.62 695.89q29.805-5.3873 45.689-14.763 7.7662-4.408 11.195-14.133l4.408-3.4284q-4.408 20.151-10.145 25.747-13.784 13.643-55.135 22.109z" stroke-width="1.275"/>
  <path d="m204.59 524.38 28.318-2.2574q1.3534 7.1142 7.2877 10.876 5.9343 3.7623 14.367 3.7623 9.0576 0 15.2-4.5148 6.2466-4.5148 6.2466-12.176 0-7.251-5.9343-11.492-5.9343-4.2412-14.471-4.2412-5.622 0-13.43 1.4365l3.2274-15.665q11.869 0.20522 18.115-3.3519 6.2466-3.6255 6.2466-9.5768 0-5.062-4.5809-8.0719-4.5808-3.0098-12.181-3.0098-7.496 0-12.806 3.4203-5.3096 3.4203-6.4549 9.9872l-26.965-3.0098q2.811-9.0979 8.433-14.502 5.7261-5.4724 15.825-8.5507 10.203-3.1466 22.8-3.1466 21.551 0 34.565 9.0295 10.723 7.3878 10.723 16.691 0 13.202-21.967 21.069 13.118 1.847 20.926 8.2771 7.9124 6.4301 7.9124 15.528 0 13.202-14.68 22.505-14.68 9.3032-36.543 9.3032-20.718 0-34.356-7.7982-13.638-7.8666-15.825-20.522z" stroke-opacity=".36" stroke-width=".36106"/>
 </g>
</svg>
