<svg width="800" height="151.14" version="1.1" viewBox="0 0 800 151.14" xml:space="preserve" xmlns="http://www.w3.org/2000/svg">
<path d="m340.38 96.904h-49.888v-22.566l49.888-59.309h23.867v60.61h12.382v21.265h-12.382v18.439h-23.867zm0-21.265v-31.045l-26.38 31.045z" fill="#f00" stroke-width=".44863"/>
<path d="m340.47 97.308h-50.202v-22.656l50.202-59.713h24.047v60.969h12.472v21.4h-12.427v18.528h-24.092zm0-21.355v-31.225l-26.514 31.225z" fill="#f00" stroke-width=".44863"/><g transform="matrix(.99998 0 0 .99998 -.0044863 .0089646)" stroke-width=".44864"><path d="m0.49799 16.725h92.599v24.361h-31.091v74.25h-30.463v-74.295h-31.046z"/><path d="m90.316 16.725h31.853l22.208 70.975 21.894-70.975h30.911l-36.609 98.566h-33.02zm149.8-16.555v10.633c-10.184 14.222-15.254 34.77-15.254 61.643 0 31.943 5.0696 53.568 15.254 64.873v13.011c-12.113-8.2101-21.4-19.112-27.771-32.661-6.4155-13.549-9.6009-28.668-9.6009-45.357 0-14.267 3.5891-28.578 10.767-42.8 7.1782-14.267 16.061-24.047 26.604-29.341zm40.961 20.951v8.7036c-8.2998 11.62-12.472 28.444-12.472 50.427 0 26.156 4.1723 43.832 12.472 53.074v10.678c-9.8701-6.6847-17.721-15.927-22.701-26.739-5.2491-11.081-7.8512-23.464-7.8512-37.147 0-11.665 2.961-23.374 8.8382-35.039s13.1-19.65 21.714-23.957z"/><path d="m389.83 144v-10.678c8.2998-9.242 12.472-26.963 12.472-53.074 0-21.983-4.1723-38.807-12.472-50.427v-8.7036c8.6139 4.3518 15.882 12.338 21.759 24.002 5.8772 11.665 8.8382 23.329 8.8382 35.039 0 13.683-2.6021 26.066-7.8512 37.147-5.0248 10.767-12.876 20.009-22.746 26.694zm43.204 6.3707v-13.011c10.184-11.306 15.254-32.93 15.254-64.873 0-26.873-5.0696-47.421-15.254-61.643v-10.678c10.543 5.2939 19.381 15.074 26.604 29.341 7.1782 14.267 10.767 28.533 10.812 42.8 0 16.689-3.1853 31.809-9.6009 45.402-6.4155 13.549-15.658 24.451-27.816 32.661zm48.588-133.65h92.599v24.361h-31.091v74.25h-30.463v-74.295h-31.046zm106.6 0h28.444l37.102 54.555v-54.555h28.713v98.611h-28.713l-36.923-54.151v54.151h-28.668v-98.611zm164.11 62.854v-20.503h47.062v42.037c-9.0176 6.1464-17.003 10.319-23.912 12.562-6.909 2.2432-15.119 3.3199-24.63 3.3199-11.709 0-21.221-1.974-28.623-6.0118-7.3577-3.9929-13.1-9.9598-17.138-17.856-4.0826-7.8961-6.1015-16.959-6.1015-27.188 0-10.767 2.1983-20.144 6.6399-28.085s10.947-13.998 19.516-18.125c6.6847-3.1853 15.658-4.7556 26.963-4.7556 10.902 0 19.022 0.98701 24.451 2.961 5.2042 1.8394 9.8701 5.0248 13.459 9.1971 3.5442 4.1275 6.2361 9.4214 8.0306 15.792l-29.386 5.2491c-1.2113-3.7237-3.2751-6.5501-6.1464-8.5241s-6.595-2.961-11.081-2.961c-6.6847 0-12.024 2.3329-15.972 6.9539s-5.9669 11.979-5.9669 22.028c0 10.678 2.0189 18.304 6.0118 22.881s9.6009 6.8642 16.824 6.8642c3.3199 0 6.595-0.4935 9.7355-1.4805 3.0956-0.98701 6.6399-2.647 10.633-5.0696v-9.2868z"/><path d="m0.0044864 16.636h93.182v24.496h-31.27v74.743h-30.642v-74.743h-31.27z"/><path d="m89.553 16.636h32.033l22.342 71.423 22.028-71.423h31.136l-36.833 99.239h-33.244z"/><path d="m240.16-0.0089653v10.722c-10.229 14.312-15.343 34.994-15.343 62.047 0 32.167 5.1145 53.926 15.343 65.277v13.1c-12.203-8.255-21.535-19.247-27.95-32.885-6.4155-13.639-9.6458-28.892-9.6458-45.671 0-14.356 3.634-28.713 10.857-43.069s16.151-24.182 26.739-29.52zm40.692 21.086v8.7485c-8.3896 11.709-12.562 28.623-12.562 50.741 0 26.335 4.1723 44.146 12.562 53.433v10.722c-9.9598-6.7296-17.856-16.016-22.881-26.918-5.2491-11.171-7.896-23.643-7.896-37.372 0-11.754 2.961-23.509 8.883-35.263 5.922-11.709 13.19-19.74 21.894-24.092z"/><path d="m390.23 144.72v-10.722c8.3896-9.2868 12.562-27.098 12.562-53.433 0-22.118-4.1724-39.032-12.562-50.741v-8.7485c8.6587 4.3518 15.972 12.427 21.894 24.137 5.922 11.754 8.8831 23.509 8.8831 35.263 0 13.773-2.647 26.201-7.896 37.372-5.0248 10.857-12.966 20.189-22.881 26.873zm42.396 6.4155v-13.1c10.229-11.351 15.343-33.11 15.343-65.277 0-27.053-5.1145-47.735-15.343-62.047v-10.722c10.588 5.3388 19.516 15.164 26.739 29.52 7.2231 14.356 10.857 28.713 10.857 43.069 0 16.779-3.2302 32.033-9.6457 45.671-6.4155 13.639-15.747 24.63-27.95 32.885zm48.722-134.5h93.182v24.496h-31.27v74.743h-30.642v-74.743h-31.27zm106.69 0h28.623l37.372 54.913v-54.913h28.892v99.239h-28.892l-37.147-54.465v54.465h-28.848zm164.61 63.303v-20.637h47.376v42.307c-9.0625 6.1912-17.093 10.408-24.047 12.607s-15.254 3.3648-24.81 3.3648c-11.754 0-21.355-2.0189-28.803-6.0118-7.4025-4.0378-13.19-10.005-17.273-17.946-4.0826-7.9409-6.1464-17.048-6.1464-27.322 0-10.812 2.2432-20.234 6.6847-28.264 4.4415-8.0306 10.992-14.087 19.606-18.26 6.7296-3.1853 15.792-4.8004 27.143-4.8004 10.947 0 19.157 0.98701 24.585 2.961 5.2491 1.8394 9.9149 5.0248 13.549 9.242 3.5891 4.1723 6.281 9.4663 8.0755 15.882l-29.565 5.2939c-1.2113-3.7686-3.2751-6.595-6.1912-8.6139-2.9162-1.974-6.6399-2.961-11.126-2.961-6.7296 0-12.068 2.3329-16.061 6.9988-3.9929 4.6658-5.9669 12.068-5.9669 22.163 0 10.722 2.0189 18.394 6.0566 23.015 4.0378 4.621 9.6458 6.909 16.869 6.909 3.3199 0 6.6399-0.4935 9.8252-1.4805 3.0956-0.98701 6.6847-2.6918 10.678-5.0696v-9.3317h-20.458z"/></g>
</svg>
