<svg width="865.33pt" height="112.14pt" version="1.1" viewBox="0 0 865.33 112.14" xmlns="http://www.w3.org/2000/svg">
 <g transform="matrix(1.4422 0 0 1.4422 -1198.3 -299.08)" fill="#00a8ec">
  <g transform="matrix(.95095 0 0 .95095 55.471 12.079)" fill="#00a8ec">
   <path d="m1226.7 207v78.828h27.582v-41.127l24.154 41.127h27.745v-78.828h-27.418v43.412l-24.481-43.412z"/>
   <path d="m1344.2 206.84c-0.9139 5e-5 -1.4688 0.16321-1.4688 0.16321h-30.519v78.828h37.537c0 5e-5 38.353-0.0875 38.353-38.353 1e-4 -38.568-36.209-40.638-43.902-40.638zm-3.4273 24.97h3.1009c1e-4 0 15.341-0.76379 15.341 14.852-1e-4 15.621-15.341 15.341-15.341 15.341h-3.1009z"/>
   <path d="m1178.6 205.37c-25.512-5e-5 -44.065 18.229-44.065 40.801-1e-4 22.572 16.663 40.964 44.065 40.964 27.403 6e-5 43.739-18.392 43.739-40.964-2e-4 -22.572-18.222-40.801-43.739-40.801zm-0.1632 26.276c8.2047 0 14.852 6.8755 14.852 15.341-2e-4 8.4657-6.647 15.178-14.852 15.178-8.2045 0-14.852-6.7123-14.852-15.178 1e-4 -8.4657 6.647-15.341 14.852-15.341z"/>
   <path d="m1392.7 207v78.828h53.694v-21.869h-24.807v-7.3442h21.869v-20.727h-22.033v-7.181h24.154v-21.706z"/>
   <path d="m1041 207-12.73 78.828h27.908l4.0801-42.76 13.22 42.76h16.81l13.383-42.923 3.7537 42.923h27.908l-12.893-78.828h-29.54l-10.935 40.801-11.261-40.801z"/>
   <path d="m965.1 207c1e-4 5e-5 -7.2685 44.375-7.6706 46.84 6.4708-2.11 17.559-3.789 26.276-2.9377 7.7555 0.75721 13.576 3.4599 12.73 8.1602-0.98194 5.4367-8.3848 7.6027-17.3 7.0178-7.4839-0.49092-16.032-2.939-22.685-6.365-0.62159 3.4887-3.4273 21.053-3.4273 21.053 1e-4 0 20.743 9.6682 48.145 4.7329 27.403-4.9301 29.659-28.031 24.807-36.721-11.652-20.89-36.72-13.374-41.128-11.588 1.1541-6.7946 1.4688-8.1602 1.4688-8.1602h36.068v-22.033z"/>
   <path d="m815.44 207v24.807h18.116v54.021h29.866v-54.184h15.994l22.359 54.184h26.276l32.967-78.828h-32.804l-13.056 44.392-13.22-44.392z"/>
  </g>
 </g>
</svg>
