<svg width="1112" height="200" version="1.1" viewBox="0 0 294.22 52.917" xmlns="http://www.w3.org/2000/svg">
 <g transform="matrix(1.3078 0 0 1.3078 -1.3078 .6155)" fill="#00a8ec">
  <path d="m28.5 20.6h-6.4l-5.4-13.2h-4v13.2h-7.2v-13.1h-4.5v-6.1h21.1l3.2 10.9 3.2-10.9h8.1z"/>
  <path d="m51.6 6.8v-5.4h-14l-1.9 11.5s2.3-0.6 4.6-0.8c2.5-0.1 5 0.4 4.9 2.1-0.1 1.4-3.1 2.1-5.5 1.6-2.3-0.5-4.3-1.4-4.3-1.4l-0.9 5.1s4.6 1.6 7.9 1.5 9.9-0.9 10.3-6.8c0.2-4-4-6-6.4-6-3 0-4.1 0.7-4.1 0.7l0.5-2.1z"/>
  <path d="m63.3 1.4 2.7 10.1 2.8-10.1h7.1l3.2 19.2h-6.8l-0.9-10.5-3.3 10.5h-4.1l-3.3-10.5-1 10.5h-6.7l3.1-19.2z"/>
  <path d="m89.6 21c-5.9 0-10.6-3.7-10.6-9.9 0-6 4.8-10 10.6-10s10.6 3.9 10.6 10c0 6.2-4.8 9.9-10.6 9.9zm-3.6-9.8c0 2.2 1.5 3.7 3.6 3.7s3.6-1.5 3.6-3.7c0-2-1.4-3.8-3.6-3.8s-3.6 1.7-3.6 3.8z"/>
  <path d="m108.2 1.4 5.9 10.6v-10.6h6.6v19.2h-6.6l-6-10.1v10.1h-6.7v-19.2z"/>
  <path d="m129.3 1.4c6.5 0 11.4 2.8 11.4 9.9 0 5.7-4 9.4-9.7 9.4h-8.9v-19.3m7.1 13.5h0.4c2.3 0 4.1-1.1 4.1-3.6 0-2.7-1.6-3.9-4.1-3.9h-0.4z"/>
  <path d="m154.8 1.4v5.2h-5.9v1.9h5.4v5h-5.4v1.9h6.1v5.2h-13.1v-19.2z"/>
 </g>
 <g transform="matrix(.4 0 0 .4 3.5082e-6 -3.9187e-6)" fill="#00a8ec">
  <g transform="matrix(7.4628,0,0,7.4628,4.2743e-7,1.733e-5)" stroke-width=".30636">
   <path d="m76.376 4.3614v4.0153h2.2893c1.4761 0 2.4154-0.58727 2.4154-2.0076 0-1.4425-0.98572-2.0076-2.4154-2.0076zm1.5022 1.0216h0.70694c0.69474 0 1.088 0.23533 1.088 0.98553 1.6e-5 0.7502-0.39328 0.98644-1.088 0.98644h-0.70694z"/>
   <path d="m71.137 4.3651v4.0054h1.4734l3e-6 -1.4929h1.6224v1.4929h1.4737v-4.0054h-1.4737l-3.3e-5 1.4516h-1.6224v-1.4516z"/>
  </g>
  <path d="m516.34 9.8671e-6h3.4253v75.353h-3.4253z" stroke-width=".58036" style="paint-order:stroke fill markers"/>
 </g>
 <g transform="matrix(.4 0 0 .4 -138.82 -3.9187e-6)" fill="#fff">
  <path d="m368.14 91.904v-4.969h-21.089v43.566h5.4312v-21.378h15.138v-4.969h-15.138v-12.249z" style="white-space:pre"/>
  <path d="m390.81 111.55c6.2979-0.75113 10.458-5.9513 10.458-12.191 0-4.1601-2.08-8.2624-5.7201-10.4-3.4667-1.9645-7.6268-2.0223-11.498-2.0223h-6.5868v43.566h5.4312v-18.432h2.2534l12.827 18.432h6.5868zm-7.9157-19.76h1.4445c5.3734 0 11.845 0.98225 11.845 7.8002 0 6.9335-6.009 7.9735-11.556 7.9735h-1.7334z" style="white-space:pre"/>
  <path d="m437.97 119.58 4.969 10.92h5.8357l-20.8-45.414-20.8 45.414h5.8357l4.969-10.92zm-2.2534-4.969h-15.485l7.7424-17.623z" style="white-space:pre"/>
  <path d="m454.86 130.5h5.4312v-32.472l32.703 34.263v-45.357h-5.4312v32.183l-32.703-34.263z" style="white-space:pre"/>
  <path d="m535.42 88.957c-3.2934-2.0223-7.1646-2.9467-10.978-2.9467-12.827 0-23.169 10.054-23.169 22.938 0 12.596 10.285 22.476 22.707 22.476 3.8134 0 8.089-1.0978 11.44-3.0623v-6.4135c-3.2356 2.889-7.3379 4.5068-11.614 4.5068-9.7069 0-17.103-8.1469-17.103-17.68 0-9.6491 7.4535-17.796 17.218-17.796 4.1023 0 8.378 1.5023 11.498 4.2757z" style="white-space:pre"/>
  <path d="m544.85 130.5h23.4v-4.969h-17.969v-16.467h17.449v-4.969h-17.449v-12.191h17.969v-4.969h-23.4z" style="white-space:pre"/>
  <path d="m602.54 91.788h1.5023c5.0846 0 9.2446 1.04 9.2446 7.1646 0 6.2402-4.2178 7.2802-9.3602 7.2802h-1.3867zm0 18.778h3.3512c4.8534 0 11.094 1.2711 11.094 7.3957 0 6.1824-5.2579 7.6846-10.285 7.6846h-4.1601zm-5.4312 19.934h10.169c7.6846 0 15.138-3.4668 15.138-12.191 0-5.0846-3.5823-10.111-8.7246-11.036v-0.11558c2.9467-1.3867 4.6801-5.0846 4.6801-8.2624 0-9.8225-7.7424-11.96-15.947-11.96h-5.3157z" style="white-space:pre"/>
  <path d="m631.45 130.5h23.4v-4.969h-17.969v-16.467h17.449v-4.969h-17.449v-12.191h17.969v-4.969h-23.4z" style="white-space:pre"/>
  <path d="m669.94 86.935h-5.4312v43.566h18.663v-4.969h-13.231z" style="white-space:pre"/>
  <path d="m712.14 108.54v4.969h11.267c-0.23093 7.1068-7.5113 12.943-14.271 12.943-9.418 0-16.929-8.6669-16.929-17.796 0-9.7647 7.6268-17.68 17.392-17.68 5.3156 0 10.574 2.8312 13.694 7.1068l3.8134-3.6401c-4.2757-5.3735-10.978-8.4358-17.738-8.4358-12.538 0-22.592 10.285-22.592 22.823 0 12.076 9.8224 22.592 22.014 22.592s20.627-9.1869 20.627-21.147v-1.7334z" style="white-space:pre"/>
  <path d="m743.01 86.935h-5.4312v43.566h5.4312z" style="white-space:pre"/>
  <path d="m796.64 131.42-6.7602-6.6446c4.2757-4.0446 6.8179-9.8802 6.8179-16.063 0-12.48-10.342-22.707-22.823-22.707-12.48 0-22.823 10.227-22.823 22.707 0 12.943 10.227 22.707 22.823 22.707 4.1601 0 8.8402-1.3867 12.422-3.8712l3.7556 3.8712zm-17.334-17.334h-6.7602l9.9958 9.7647c-2.6578 1.6756-6.009 2.4845-8.6668 2.4845-9.418 0-17.392-7.6846-17.392-17.623 0-9.5914 7.1646-17.623 17.392-17.623 10.227 0 17.391 8.0313 17.391 17.623 0 4.1601-1.7334 9.1869-5.0845 12.191z" style="white-space:pre"/>
  <path d="m804.17 86.935v27.561c0 9.5914 5.9512 16.929 15.947 16.929s15.947-7.338 15.947-16.929v-27.561h-5.4312v25.712c0 7.1068-2.1378 13.694-10.516 13.694-8.378 0-10.516-6.5868-10.516-13.694v-25.712z" style="white-space:pre"/>
  <path d="m846.53 130.5h23.4v-4.969h-17.969v-16.467h17.449v-4.969h-17.449v-12.191h17.969v-4.969h-23.4z" style="white-space:pre"/>
  <path d="m922.95 92.597c-2.369-4.2179-6.3557-6.5868-11.209-6.5868-6.5868 0-12.827 4.2179-12.827 11.267 0 6.0668 4.5068 8.898 9.4757 11.036l3.0046 1.2711c3.7556 1.56 7.5112 3.5823 7.5112 8.2624 0 4.5646-3.3512 8.4936-8.0312 8.4936-4.6801 0-8.4935-3.4668-8.4358-8.2624l-5.489 1.1556c0.92444 6.9913 6.4135 12.191 13.462 12.191 7.8002 0 13.925-5.6624 13.925-13.578 0-7.2802-4.6223-10.689-10.805-13.116l-3.1201-1.2134c-2.7156-1.04-6.0668-2.8312-6.0668-6.2402 0-3.8134 3.8134-6.1824 7.2802-6.1824 3.2934 0 5.3735 1.3867 6.9912 4.1023z" style="white-space:pre"/>
  <path d="m932.5 86.935v27.561c0 9.5914 5.9512 16.929 15.947 16.929s15.947-7.338 15.947-16.929v-27.561h-5.4312v25.712c0 7.1068-2.1378 13.694-10.516 13.694-8.3779 0-10.516-6.5868-10.516-13.694v-25.712z" style="white-space:pre"/>
  <path d="m980.12 86.935h-5.4312v43.566h5.4312z" style="white-space:pre"/>
  <path d="m1014.9 92.597c-2.3689-4.2179-6.3556-6.5868-11.209-6.5868-6.5867 0-12.827 4.2179-12.827 11.267 0 6.0668 4.5068 8.898 9.4758 11.036l3.0045 1.2711c3.7556 1.56 7.5112 3.5823 7.5112 8.2624 0 4.5646-3.3511 8.4936-8.0313 8.4936-4.68 0-8.4934-3.4668-8.4357-8.2624l-5.489 1.1556c0.92445 6.9913 6.4134 12.191 13.463 12.191 7.8001 0 13.925-5.6624 13.925-13.578 0-7.2802-4.6222-10.689-10.805-13.116l-3.12-1.2134c-2.7157-1.04-6.0669-2.8312-6.0669-6.2402 0-3.8134 3.8135-6.1824 7.2802-6.1824 3.2934 0 5.3734 1.3867 6.9913 4.1023z" style="white-space:pre"/>
  <path d="m1048.9 92.597c-2.3689-4.2179-6.3556-6.5868-11.209-6.5868-6.5867 0-12.827 4.2179-12.827 11.267 0 6.0668 4.5068 8.898 9.4757 11.036l3.0045 1.2711c3.7557 1.56 7.5113 3.5823 7.5113 8.2624 0 4.5646-3.3512 8.4936-8.0313 8.4936s-8.4934-3.4668-8.4357-8.2624l-5.489 1.1556c0.9245 6.9913 6.4135 12.191 13.462 12.191 7.8002 0 13.925-5.6624 13.925-13.578 0-7.2802-4.6223-10.689-10.805-13.116l-3.1201-1.2134c-2.7156-1.04-6.0668-2.8312-6.0668-6.2402 0-3.8134 3.8134-6.1824 7.2802-6.1824 3.2934 0 5.3734 1.3867 6.9912 4.1023z" style="white-space:pre"/>
  <path d="m1059.2 130.5h23.4v-4.969h-17.969v-16.467h17.449v-4.969h-17.449v-12.191h17.969v-4.969h-23.4z" style="white-space:pre"/>
 </g>
</svg>
