<svg width="800" height="412.23" version="1.1" viewBox="0 0 800 412.23" xmlns="http://www.w3.org/2000/svg">
 <link rel="stylesheet" type="text/css"/>
 <link rel="stylesheet" type="text/css"/>
 <style lang="en" type="text/css"/>
 <style lang="en" type="text/css"/>
 <g fill="#0a59ef" stroke-width="2.3198">
  <path d="m620.86 231.39h-3.0694v-52.699h3.0694c18.033 0 29.018 8.1162 29.018 27.211 0 17.897-12.614 25.47-29.018 25.47m-2.1545-95.282h-50.326v136.06h62.569c39.843 0 68.33-25.641 68.33-66.045 0-49.996-34.979-70.018-80.578-70.018"/>
  <path d="m707.14 136.09v136.06h92.856v-37.187h-43.09v-13.358h38.043v-35.357h-38.043v-12.986h41.65v-37.187z"/>
  <path d="m510.83 211.49-41.685-75.407h-47.405v136.03h47.381v-71.47l41.685 71.47h47.222v-136.03h-47.222z"/>
  <path d="m194.31 136.09-22.537 58.98-22.796-58.98zm0-136.09-22.537 76.965-22.814-76.965h-148.95v43.037h31.715v93.05h51.165v-93.298h30.387l35.688 93.292h-47.487l-21.988 136.03h47.771l7.0419-74.539 23.091 74.539h28.847l23.062-74.539 6.6878 74.539h47.777l-22.336-136.03h-47.115l52.263-136.08z"/>
  <path d="m338.03 232.34a28.244 28.244 0 1 1 28.25-28.25 28.25 28.25 0 0 1-28.25 28.25m0-102.52c-1.4698 0-2.9514 0.0531-4.3739 0.13577a44.896 44.896 0 0 0 29.649-40.138c1.7708-28.079-28.215-42.547-44.973-42.547-20.984 0-29.254 5.2239-29.254 5.2239l2.8156-14.326h62.651v-38.167h-98.959l-13.358 80.908a179.44 179.44 0 0 1 32.742-5.5426c17.484-1.0448 35.286 3.0812 34.826 14.609-0.38369 9.8988-21.692 14.798-38.592 11.333a158.82 158.82 0 0 1-30.434-9.9047l-6.0031 36.095s32.176 11.132 55.668 10.56c4.5805-0.11215 10.035-0.41319 15.884-1.1392a74.286 74.286 0 1 0 31.709-7.0832"/>
 </g>
 <path d="m425.98 313.52c-7.5327 0-14.14 1.4528-19.691 4.0958-5.6826 2.7752-10.44 6.4758-14.141 10.969-3.8325 4.6254-6.7402 9.9109-8.5904 15.858-1.8502 5.9469-2.7728 12.156-2.7728 18.499 0 6.4755 0.92268 12.688 2.7728 18.635s4.7579 11.233 8.5904 15.726c3.7003 4.6254 8.458 8.326 14.141 10.969 5.5504 2.643 12.158 3.9644 19.691 3.9644 7.4006 0 14.008-1.3214 19.691-3.9644 5.5504-2.6431 10.308-6.3437 14.141-10.969 3.7003-4.4932 6.6088-9.7795 8.459-15.726s2.9088-12.16 2.9088-18.635c0-6.3434-1.0586-12.552-2.9088-18.499-1.8502-5.9469-4.7587-11.232-8.459-15.858-3.8324-4.4932-8.5902-8.1938-14.141-10.969-5.6826-2.643-12.29-4.0958-19.691-4.0958zm-345.56 2.2428v94.358h65.547v-10.57h-52.997v-32.644h49.032v-10.57h-49.032v-29.998h52.598v-10.575zm93.207 0v60.264c0 12.687 3.2997 21.805 10.172 27.62 6.872 5.8147 16.39 8.5904 28.548 8.5904 11.894 0 21.013-2.9055 27.488-8.9846 6.3434-6.079 9.646-15.067 9.646-27.226v-60.264h-12.555v60.264c0 8.4578-2.1142 14.931-6.3431 19.292-4.2289 4.3611-10.307 6.479-18.236 6.479-8.4578 0-14.935-2.118-19.428-6.479-4.4932-4.361-6.7418-10.834-6.7418-19.292v-60.264zm108.93 0v94.358h12.555v-40.306h30.66c3.0395 0 5.5532 0.5293 7.4033 1.4544 1.8501 0.92507 3.3006 2.1158 4.49 3.7016 1.0572 1.5858 1.986 3.3044 2.5146 5.4188 0.52861 2.1145 0.92199 4.2279 1.3185 6.4745 0.39644 2.3788 0.66071 4.6258 0.79287 7.0046 0 2.3788 0.13519 4.6228 0.26733 6.7373 0 2.1145 0.26125 3.9644 0.52556 5.5502 0.26429 1.718 0.92805 3.0394 1.8531 3.9644h14.005c-1.3215-1.5858-2.3749-3.3044-3.0356-5.4188s-1.1901-4.2271-1.4544-6.6059c-0.39644-2.2466-0.66148-4.6259-0.66148-7.0046-0.13215-2.3788-0.26658-4.6258-0.39872-7.0046-0.26431-2.2466-0.65846-4.4914-1.1871-6.6059-0.5286-2.1144-1.19-3.9636-2.2473-5.6816-1.0572-1.718-2.3778-3.173-4.0958-4.4945-1.718-1.1894-3.9674-2.1128-6.6104-2.6414v-0.26733c5.6826-1.5858 9.7804-4.4921 12.423-8.8532 2.643-4.2289 3.9644-9.2502 3.9644-15.065 0-7.6649-2.6397-13.612-7.6616-18.105-5.0218-4.361-12.027-6.6104-21.014-6.6104zm216.94 0v94.358h12.555v-38.589h28.811c9.515 0.13216 16.65-2.2456 21.539-7.2674 4.8897-4.8896 7.4033-11.761 7.4033-20.615 0-8.7221-2.5136-15.594-7.4033-20.484-4.8897-4.8897-12.024-7.4033-21.539-7.4033zm98.626 0v94.358h65.547v-10.57h-52.992v-32.644h49.028v-10.57h-49.028v-29.998h52.598v-10.575zm-172.14 8.3276c5.6826 0 10.573 1.1877 14.802 3.4343 4.0968 2.2466 7.5331 5.1574 10.176 8.8577 2.6431 3.7003 4.4915 7.9295 5.813 12.555 1.1894 4.6254 1.8531 9.2472 1.8531 14.005 2e-5 4.7575-0.66371 9.5152-1.8531 14.141-1.3216 4.6254-3.1699 8.7232-5.813 12.423-2.643 3.7003-6.0794 6.738-10.176 8.9846-4.2289 2.2466-9.1195 3.3075-14.802 3.3075-5.8147 0-10.705-1.0609-14.802-3.3075-4.2289-2.2466-7.5286-5.2843-10.172-8.9846-2.643-3.7003-4.6282-7.7981-5.8175-12.423-1.3215-4.6254-1.8486-9.3831-1.8486-14.141 0-4.7575 0.52702-9.3793 1.8486-14.005 1.1894-4.6254 3.1745-8.8545 5.8175-12.555 2.6431-3.7003 5.9427-6.6111 10.172-8.8577 4.0968-2.2466 8.9874-3.4343 14.802-3.4343zm-130.87 2.2473h31.19c5.8147 0 10.175 1.5872 12.818 4.4946 2.643 3.0395 3.9644 6.8685 3.9644 11.626 0 3.436-0.65916 6.3445-1.8486 8.459-1.1894 2.1145-2.775 3.8345-4.7573 5.156s-4.2302 2.1136-6.8732 2.5101c-2.643 0.5286-5.4157 0.6615-8.3231 0.6615h-26.17zm216.94 0h24.58c7.1363 0 12.291 1.5872 15.595 4.4946s5.0247 7.2672 5.0247 12.818c0 5.6826-1.7208 10.042-5.0247 12.949-3.3038 3.0395-8.4587 4.4953-15.595 4.3632h-24.58z" fill="#0a59ef" stroke-width="2.3198"/>
</svg>
