<svg width="761.2" height="190.93" version="1.1" viewBox="0 0 201.4 50.516" xmlns="http://www.w3.org/2000/svg">
 <g transform="matrix(1.3078,0,0,1.3078,-1.3078,-1.4386)" fill="#00a8ec">
  <path d="m28.5 20.6h-6.4l-5.4-13.2h-4v13.2h-7.2v-13.1h-4.5v-6.1h21.1l3.2 10.9 3.2-10.9h8.1z"/>
  <path d="m51.6 6.8v-5.4h-14l-1.9 11.5s2.3-0.6 4.6-0.8c2.5-0.1 5 0.4 4.9 2.1-0.1 1.4-3.1 2.1-5.5 1.6-2.3-0.5-4.3-1.4-4.3-1.4l-0.9 5.1s4.6 1.6 7.9 1.5 9.9-0.9 10.3-6.8c0.2-4-4-6-6.4-6-3 0-4.1 0.7-4.1 0.7l0.5-2.1z"/>
  <path d="m63.3 1.4 2.7 10.1 2.8-10.1h7.1l3.2 19.2h-6.8l-0.9-10.5-3.3 10.5h-4.1l-3.3-10.5-1 10.5h-6.7l3.1-19.2z"/>
  <path d="m89.6 21c-5.9 0-10.6-3.7-10.6-9.9 0-6 4.8-10 10.6-10s10.6 3.9 10.6 10c0 6.2-4.8 9.9-10.6 9.9zm-3.6-9.8c0 2.2 1.5 3.7 3.6 3.7s3.6-1.5 3.6-3.7c0-2-1.4-3.8-3.6-3.8s-3.6 1.7-3.6 3.8z"/>
  <path d="m108.2 1.4 5.9 10.6v-10.6h6.6v19.2h-6.6l-6-10.1v10.1h-6.7v-19.2z"/>
  <path d="m129.3 1.4c6.5 0 11.4 2.8 11.4 9.9 0 5.7-4 9.4-9.7 9.4h-8.9v-19.3m7.1 13.5h0.4c2.3 0 4.1-1.1 4.1-3.6 0-2.7-1.6-3.9-4.1-3.9h-0.4z"/>
  <path d="m154.8 1.4v5.2h-5.9v1.9h5.4v5h-5.4v1.9h6.1v5.2h-13.1v-19.2z"/>
 </g>
 <g transform="matrix(.4 0 0 .4 3.7694e-8 -2.0541)">
  <path d="m-9.4234e-8 130.5h23.4v-4.969h-17.969v-16.467h17.449v-4.969h-17.449v-12.191h17.969v-4.969h-23.4z" style="white-space:pre"/>
  <path d="m32.314 86.935v27.561c0 9.5914 5.9512 16.929 15.947 16.929s15.947-7.338 15.947-16.929v-27.561h-5.4312v25.712c0 7.1068-2.1378 13.694-10.516 13.694-8.3779 0-10.516-6.5868-10.516-13.694v-25.712z" style="white-space:pre"/>
  <path d="m88.027 111.55c6.2979-0.75113 10.458-5.9513 10.458-12.191 0-4.1601-2.08-8.2624-5.7201-10.4-3.4667-1.9645-7.6268-2.0223-11.498-2.0223h-6.5868v43.566h5.4312v-18.432h2.2534l12.827 18.432h6.5868zm-7.9157-19.76h1.4445c5.3734 0 11.845 0.98225 11.845 7.8002 0 6.9335-6.009 7.9735-11.556 7.9735h-1.7334z" style="white-space:pre"/>
  <path d="m128.78 86.011c-12.48 0-22.823 10.227-22.823 22.707 0 12.943 10.227 22.707 22.823 22.707s22.823-9.7647 22.823-22.707c0-12.48-10.342-22.707-22.823-22.707zm0 40.33c-9.418 0-17.391-7.6846-17.391-17.623 0-9.5914 7.1646-17.623 17.391-17.623s17.391 8.0313 17.391 17.623c0 9.938-7.9735 17.623-17.391 17.623z" style="white-space:pre"/>
  <path d="m165.25 112.24h3.1201c8.2624 0 15.254-3.5245 15.254-12.711 0-7.9735-4.1601-12.596-17.565-12.596h-6.2401v43.566h5.4312zm0-20.454h1.4445c5.3734 0 11.845 0.80891 11.845 7.6269 0 6.9335-6.009 7.9735-11.556 7.9735h-1.7334z" style="white-space:pre"/>
  <path d="m191.38 130.5h23.4v-4.969h-17.969v-16.467h17.449v-4.969h-17.449v-12.191h17.969v-4.969h-23.4z" style="white-space:pre"/>
 </g>
</svg>
