<svg width="1102" height="213.4" enable-background="new 66.043 56.736 1102.001 210.597" version="1.1" viewBox="66.043 56.736 1102 213.4" xml:space="preserve" xmlns="http://www.w3.org/2000/svg">
<g transform="translate(-211.27 -138.56)"><g fill="#259bd4"><path d="m405.43 255.1c0.404-0.214 0.458-0.626 0.561-0.987 3.922-13.836 7.835-27.675 11.754-41.512 1.252-4.42 2.514-8.837 3.772-13.256 0.109-0.384 0.212-0.771 0.34-1.15 0.38-1.129 0.384-1.143 1.523-1.156 1.4-0.016 2.8-3e-3 4.2-3e-3 11.533 0 23.066-2e-3 34.599 6e-3 0.66 0 1.332-0.109 1.979 0.116 0.24 0.508-0.084 0.908-0.252 1.323-3.127 7.717-6.267 15.43-9.396 23.146-4.456 10.988-8.895 21.983-13.359 32.968-5.467 13.454-10.953 26.9-16.429 40.35-0.703 1.727-1.412 3.453-2.084 5.192-0.249 0.646-0.642 0.971-1.342 0.932-0.399-0.022-0.8-3e-3 -1.2-3e-3 -9.8 0-19.6 2e-3 -29.399-2e-3 -2.465-1e-3 -2.083 0.206-2.98-2.048-7.61-19.125-15.208-38.254-22.811-57.381-1.353-3.405-2.71-6.808-4.066-10.212-0.123-0.309-0.257-0.614-0.384-0.923-0.202-0.492-0.578-0.701-1.098-0.695-0.333 4e-3 -0.667-7e-3 -1-7e-3 -5.6-1e-3 -11.2-1e-3 -16.8 1e-3 -0.399 0-0.8 5e-3 -1.198 0.032-0.374 0.026-0.629 0.239-0.65 0.617-0.036 0.665-0.041 1.331-0.041 1.997-2e-3 21.933 3e-3 43.866-6e-3 65.799-1e-3 3.161 0.38 2.813-2.722 2.816-11 0.011-22 4e-3 -32.999 5e-3 -2.414 0-2.244 0.117-2.245-2.308-1e-3 -22 3e-3 -43.999-5e-3 -65.999-1e-3 -2.998 0.338-2.668-2.655-2.674-6.2-0.014-12.4-3e-3 -18.6-6e-3 -0.532 0-1.067-2e-3 -1.596-0.049-0.365-0.032-0.61-0.284-0.647-0.648-0.047-0.462-0.051-0.931-0.051-1.396-2e-3 -9.666-2e-3 -19.333-1e-3 -28.999 0-0.2-4e-3 -0.4 2e-3 -0.6 0.036-1.289 0.066-1.32 1.383-1.351 0.4-0.01 0.8-2e-3 1.2-2e-3 35.133 0 70.265 0 105.4 1e-3 0.6 0 1.2 4e-3 1.799 0.019 0.456 0.012 0.744 0.271 0.871 0.69 0.403 1.339 0.8 2.68 1.185 4.025 3.265 11.395 6.527 22.79 9.791 34.185 1.595 5.569 3.18 11.141 4.798 16.704 0.241 0.826 0.376 1.697 0.861 2.443z"/><path d="m618.72 250.92c0.681-2.617 1.295-4.997 1.919-7.375 3.194-12.168 6.39-24.337 9.587-36.504 0.727-2.768 1.463-5.534 2.193-8.302 0.085-0.321 0.152-0.648 0.248-0.966 0.148-0.485 0.432-0.808 0.994-0.792 0.399 0.012 0.8-6e-3 1.2-6e-3 11.131-1e-3 22.262-3e-3 33.394 2e-3 1.654 1e-3 1.924-0.284 2.251 1.891 0.949 6.318 2.019 12.618 3.027 18.927 0.841 5.258 1.657 10.52 2.495 15.778 0.628 3.944 1.283 7.883 1.907 11.827 0.727 4.602 1.421 9.209 2.152 13.81 0.72 4.535 1.471 9.066 2.2 13.6 0.687 4.271 1.37 8.543 2.044 12.816 0.746 4.734 1.48 9.47 2.22 14.204 0.031 0.197 0.095 0.392 0.104 0.589 0.013 0.3-0.145 0.51-0.448 0.539-0.397 0.038-0.797 0.05-1.196 0.05-10.598 2e-3 -21.196 2e-3 -31.794 1e-3 -0.267 0-0.534 7e-3 -0.8-4e-3 -0.999-0.042-1.091-0.11-1.187-1.175-0.283-3.115-0.538-6.233-0.82-9.349-0.342-3.777-0.704-7.553-1.049-11.33-0.158-1.724-0.301-3.448-0.442-5.173-0.309-3.782-0.601-7.565-0.919-11.346-0.391-4.642-0.793-9.284-1.207-13.924-0.1-1.124-0.265-2.243-0.401-3.368-0.561 0.036-0.539 0.53-0.638 0.857-2.007 6.628-3.999 13.26-5.982 19.895-1.793 5.997-3.57 11.998-5.359 17.996-1.485 4.977-2.956 9.958-4.477 14.923-0.66 2.153-0.333 1.998-2.724 1.998-5.799 2e-3 -11.598 1e-3 -17.397 0-0.4 0-0.8-8e-3 -1.2-0.01-0.543-4e-3 -0.822-0.279-0.977-0.802-0.852-2.872-1.736-5.735-2.598-8.605-2.394-7.97-4.78-15.942-7.172-23.913-2.201-7.333-4.405-14.665-6.612-21.996-0.036-0.121-0.121-0.228-0.234-0.435-0.414 0.591-0.446 1.227-0.504 1.851-0.394 4.242-0.796 8.484-1.172 12.728-0.324 3.648-0.597 7.3-0.929 10.947-0.327 3.58-0.707 7.154-1.05 10.733-0.178 1.856-0.317 3.716-0.487 5.573-0.394 4.309-0.796 8.618-1.196 12.927-0.012 0.132-0.029 0.265-0.051 0.396-0.064 0.39-0.333 0.557-0.691 0.581-0.398 0.027-0.799 0.026-1.199 0.026-10.531 1e-3 -21.063 1e-3 -31.594 1e-3 -0.267 0-0.533-3e-3 -0.8-2e-3 -0.938 6e-3 -1.166-0.128-0.997-1.148 0.662-4.005 1.25-8.022 1.876-12.033 0.605-3.878 1.222-7.755 1.834-11.632 0.747-4.732 1.5-9.464 2.242-14.197 0.588-3.747 1.159-7.498 1.748-11.245 0.764-4.864 1.546-9.726 2.305-14.591 0.718-4.602 1.406-9.21 2.129-13.811 0.743-4.733 1.523-9.46 2.265-14.193 0.474-3.024 0.907-6.055 1.358-9.083 0.01-0.066 8e-3 -0.134 0.022-0.199 0.462-2.082 0.22-1.9 2.264-1.901 11.265-4e-3 22.529-2e-3 33.794-2e-3 0.333 0 0.667-0.01 1 6e-3 0.873 0.042 1.023 0.14 1.252 0.989 0.66 2.442 1.304 4.888 1.947 7.334 3.792 14.422 7.577 28.846 11.388 43.263 0.18 0.69 0.251 1.446 0.944 2.354z"/><path d="m869.64 253.53c0.026-0.671 0.072-1.306 0.072-1.94 5e-3 -11.865 5e-3 -23.731 6e-3 -35.596v-16.798c0-2.365-0.124-2.216 2.122-2.216h30.797c2.352 0 2.193-0.122 2.193 2.141 1e-3 22.331 1e-3 44.662 1e-3 66.993 0 10.865 2e-3 21.731-1e-3 32.596-1e-3 2.452 0.189 2.307-2.229 2.307-10.266 0-20.531 5e-3 -30.797-4e-3 -2.27-2e-3 -1.912 0.252-3.074-1.798-4.86-8.581-9.727-17.158-14.584-25.74-4.791-8.466-9.573-16.938-14.362-25.406-0.158-0.28-0.354-0.539-0.514-0.781-0.47 0.076-0.372 0.39-0.379 0.624-0.017 0.533-7e-3 1.066-7e-3 1.6 0 16.398 2e-3 32.796-2e-3 49.195 0 2.461 0.213 2.31-2.219 2.31-10.265 2e-3 -20.531 1e-3 -30.796 1e-3 -0.267 0-0.533 5e-3 -0.8-2e-3 -1.275-0.037-1.317-0.079-1.348-1.385-0.011-0.466-3e-3 -0.933-3e-3 -1.4 0-32.863-2e-3 -65.726 3e-3 -98.589 0-2.992-0.324-2.653 2.673-2.656 10.066-0.01 20.131-0.012 30.197 2e-3 2.631 4e-3 2.127-0.375 3.471 2.122 4.578 8.508 9.12 17.036 13.68 25.554 4.969 9.281 9.942 18.561 14.923 27.836 0.203 0.373 0.279 0.89 0.977 1.03z"/><path d="m741.7 302.57c-8.287 0.112-16.308-1.294-23.98-4.459-11.245-4.639-19.946-12.162-25.673-22.968-2.641-4.983-4.277-10.308-5.216-15.869-0.725-4.294-0.938-8.613-0.721-12.942 0.591-11.784 4.3-22.417 11.886-31.584 4.217-5.097 9.272-9.154 15.063-12.33 5.483-3.008 11.325-4.995 17.456-6.121 5.132-0.942 10.327-1.21 15.526-0.846 8.469 0.592 16.548 2.688 24.05 6.746 11.96 6.469 20.204 16.13 24.591 29.005 1.529 4.486 2.329 9.131 2.692 13.88 0.271 3.548 0.175 7.068-0.179 10.571-1.07 10.601-4.722 20.191-11.686 28.369-5.6 6.576-12.528 11.312-20.557 14.449-4.987 1.949-10.149 3.186-15.479 3.747-1.324 0.139-2.639 0.352-3.975 0.351-1.266 1e-3 -2.532 1e-3 -3.798 1e-3zm18.819-52.803c0.142-3.653-0.717-7.247-2.527-10.597-2.392-4.427-5.971-7.422-10.836-8.851-2.079-0.611-4.199-0.7-6.333-0.624-6.675 0.235-11.768 3.269-15.004 9.055-3.636 6.502-3.856 13.348-1.053 20.217 1.73 4.241 4.787 7.352 8.997 9.207 4.572 2.014 9.309 2.193 14.056 0.75 4.763-1.449 8.261-4.507 10.497-8.949 1.585-3.149 2.302-6.514 2.203-10.208z"/><path d="m912.42 248.87c0-16.467-3e-3 -32.933 3e-3 -49.4 1e-3 -2.744-0.262-2.486 2.443-2.488 11.8-6e-3 23.6-0.01 35.4 1e-3 7.492 7e-3 14.886 0.831 22.14 2.76 6.762 1.798 13.059 4.576 18.689 8.791 7.097 5.312 12.003 12.211 14.958 20.531 1.454 4.095 2.359 8.311 2.883 12.629 0.5891 4.851 0.679 9.715 0.261 14.557-0.855 9.901-3.968 19.013-10.2 26.888-5.164 6.525-11.684 11.235-19.455 14.217-4.439 1.704-9.021 2.762-13.749 3.297-2.327 0.263-4.648 0.356-6.978 0.358-14.667 0.01-29.333 7e-3 -44 3e-3 -2.626-1e-3 -2.392 0.192-2.393-2.346-4e-3 -16.598-2e-3 -33.198-2e-3 -49.798zm36.589 0.871c0 5.727-3e-3 11.454 3e-3 17.181 1e-3 0.665 0.016 1.332 0.083 1.993 0.064 0.635 0.279 0.837 0.874 0.861 4.167 0.171 8.246-0.263 12.13-1.885 4.384-1.831 7.575-4.874 9.309-9.35 0.603-1.558 0.956-3.173 1.17-4.834 0.57-4.436 0.192-8.775-1.363-12.966-1.639-4.42-4.731-7.494-9.08-9.288-3.899-1.608-7.999-1.893-12.154-1.771-0.448 0.013-0.771 0.208-0.81 0.691-0.065 0.795-0.153 1.591-0.154 2.388-0.014 5.659-8e-3 11.32-8e-3 16.98z"/><path d="m459.86 258.71c-0.288-0.418-0.131-0.883-0.059-1.333 1.046-6.573 2.088-13.146 3.152-19.716 0.989-6.11 2.02-12.213 3.003-18.324 0.877-5.455 1.712-10.916 2.57-16.374 0.248-1.578 0.511-3.153 0.77-4.729 0.175-1.065 0.282-1.153 1.448-1.193 0.333-0.011 0.667-3e-3 1-3e-3h68.799c0.467 0 0.934-0.012 1.4 0.013 0.732 0.039 0.881 0.204 0.919 0.997 0.019 0.399 8e-3 0.8 8e-3 1.2 0 8.267 2e-3 16.533-1e-3 24.8-1e-3 2.298 0.164 2.193-2.149 2.193-13.933 0-27.866-9e-3 -41.799 8e-3 -2.453 3e-3 -2.405-0.485-2.905 2.349-0.428 2.425-0.928 4.838-1.401 7.255-0.064 0.328-0.151 0.65 0.078 0.952 0.128-0.011 0.275 0.012 0.388-0.04 3.862-1.767 7.96-2.55 12.146-3.08 2.592-0.328 5.184-0.327 7.778-0.424 4.476-0.168 8.727 0.842 12.858 2.462 4.516 1.771 8.598 4.273 12.159 7.554 4.905 4.52 8.111 10.032 9.117 16.685 0.399 2.643 0.326 5.331 0.042 7.984-0.341 3.186-1.084 6.292-2.256 9.291-2.348 6.009-6.212 10.818-11.417 14.589-5.371 3.892-11.4 6.305-17.774 7.942-5.042 1.295-10.162 2.07-15.354 2.5-2.928 0.242-5.85 0.328-8.781 0.361-5.489 0.062-10.891-0.746-16.257-1.769-7.202-1.374-14.269-3.3-21.238-5.575-2.322-0.758-2.073-0.496-1.704-2.709 0.943-5.645 1.823-11.301 2.725-16.954 0.325-2.037 0.633-4.078 0.968-6.113 0.128-0.779 0.309-1.548 0.462-2.302 0.736-0.011 1.255 0.31 1.802 0.544 6.504 2.787 13.167 5.1 20.086 6.617 7.172 1.573 14.282 1.403 21.289-0.935 1.396-0.466 2.717-1.09 3.972-1.862 0.686-0.422 1.293-0.933 1.883-1.477 2.454-2.262 2.632-5.504 1.112-8.226-0.692-1.238-1.667-2.23-2.835-3.049-2.111-1.481-4.495-2.324-6.95-2.964-2.974-0.776-6.026-1.115-9.089-1.218-5.546-0.186-11.029 0.458-16.493 1.363-4.208 0.697-8.365 1.614-12.505 2.627-0.31 0.074-0.611 0.271-0.967 0.083z"/><path d="m1049.5 301.02c-10.664 0-21.327 1e-3 -31.991-1e-3 -2.4429-1e-3 -2.2799 0.168-2.2809-2.258v-99.371c0-2.627-0.197-2.404 2.332-2.405 20.994-3e-3 41.988-4e-3 62.982 0 2.595 0 2.404-0.245 2.405 2.331 0.01 7.931 0 15.862 1e-3 23.793 0 0.466 0.01 0.934-0.019 1.399-0.038 0.677-0.194 0.855-0.812 0.887-0.5979 0.031-1.199 0.021-1.7989 0.021-8.664 1e-3 -17.328 1e-3 -25.992 0-2.3591 0-2.2181-0.121-2.219 2.121 0 2.066-0.01 4.132 0 6.198 0.01 1.602 0.024 1.603 1.7071 1.624 0.3999 5e-3 0.7999 1e-3 1.2 1e-3h22.394c0.3329 0 0.667 2e-3 1 0 2.02-0.015 1.971-0.049 1.97 1.969 0 7.664-1e-3 15.329-1e-3 22.993 0 0.2 0 0.4-1e-3 0.6-0.039 1.469-0.116 1.571-1.62 1.573-7.931 0.01-15.862-6e-3 -23.793 0.011-3.257 7e-3 -2.825-0.405-2.854 2.877-0.018 2.066-0.011 4.132 0.011 6.198 0.01 0.788 0.176 0.938 0.935 0.973 0.5319 0.025 1.066 0.014 1.5989 0.014 8.9971 1e-3 17.995-3e-3 26.992 3e-3 2.6891 2e-3 2.421-0.237 2.424 2.511 0.01 7.864 0 15.729 0 23.593 0 0.4 0.01 0.8-0.01 1.2-0.039 1.025-0.1189 1.103-1.183 1.14-0.4659 0.016-0.933 5e-3 -1.3999 5e-3h-31.989z"/></g><path d="m943.97 406.1c-1.666 0-3.333-0.022-4.998 0.01-0.733 0.014-1.24-0.249-1.707-0.815-1.143-1.388-2.33-2.741-3.533-4.078-0.875-0.973-0.921-0.986-1.995-0.287-2.471 1.609-5.078 2.921-7.912 3.76-4.131 1.222-8.307 1.649-12.626 1.188-7.699-0.822-14.054-4.252-19.534-9.547-5.97-5.77-9.419-12.841-10.682-20.984-0.655-4.224-0.681-8.477-0.186-12.745 0.59-5.096 2.01-9.915 4.482-14.401 3.596-6.524 8.626-11.654 15.236-15.132 4.127-2.172 8.573-3.201 13.248-3.33 8.262-0.228 15.387 2.57 21.618 7.889 7.479 6.384 11.752 14.483 13.132 24.186 0.529 3.721 0.593 7.455 0.255 11.166-0.533 5.854-2.402 11.311-5.579 16.288-0.932 1.46-1.895 2.899-3.015 4.228-0.525 0.623-0.514 0.733 0.045 1.35 1.881 2.072 3.778 4.13 5.666 6.196 1.258 1.377 2.514 2.756 3.764 4.14 0.17 0.188 0.38 0.395 0.224 0.693-0.157 0.299-0.461 0.216-0.706 0.218-1.733 0.012-3.465 6e-3 -5.197 7e-3zm-5.04-37.936c-0.018-2.044-0.091-3.897-0.394-5.751-0.813-4.975-2.687-9.476-5.873-13.384-3.01-3.692-6.652-6.531-11.312-7.863-3.372-0.964-6.776-1.205-10.276-0.707-3.73 0.531-7.089 1.873-10.023 4.174-4.713 3.696-7.842 8.504-9.363 14.291-1.177 4.48-1.516 9.031-0.933 13.665 0.473 3.758 1.496 7.308 3.386 10.579 2.782 4.817 6.72 8.401 11.791 10.707 3.895 1.771 8.006 1.937 12.154 1.384 2.113-0.281 4.147-0.985 6.052-1.984 1.534-0.805 1.577-1.062 0.463-2.309-0.266-0.298-0.546-0.584-0.818-0.878-3.798-4.112-7.598-8.222-11.388-12.341-0.494-0.537-0.947-1.114-1.389-1.695-0.138-0.181 0.01-0.442 0.183-0.477 0.387-0.08 0.791-0.093 1.189-0.094 3.066-6e-3 6.134 0.043 9.199-0.027 1.179-0.027 1.989 0.368 2.748 1.249 2.174 2.524 4.423 4.984 6.641 7.471 0.443 0.497 0.875 1.005 1.319 1.502 0.284 0.318 0.593 0.273 0.831-0.032 0.945-1.208 1.838-2.451 2.569-3.806 2.331-4.328 3.329-8.962 3.244-13.674z" fill="#299bd4"/><path d="m495.37 408.7c-3.111-3.624-6.227-7.245-9.332-10.875-3.162-3.696-6.315-7.401-9.471-11.102-3.113-3.651-6.226-7.301-9.338-10.953-3.155-3.702-6.35-7.371-9.453-11.116-6.314-7.617-8.257-9.837-9.642-10.737-0.023 0.787-0.062 1.493-0.062 2.199-3e-3 15.332-2e-3 30.663-4e-3 45.995 0 0.6-5e-3 1.2-0.027 1.799-0.018 0.483-0.319 0.717-0.773 0.721-2.066 0.017-4.133 0.021-6.199 0.024-0.733 1e-3 -1.467 0-2.199-0.028-0.465-0.018-0.722-0.294-0.738-0.764-0.016-0.466-0.02-0.933-0.02-1.399-1e-3 -24.864-1e-3 -49.728-1e-3 -74.592v-1.169c0.464-0.243 0.647 0.082 0.849 0.319 5.565 6.551 11.122 13.109 16.692 19.655 5.009 5.886 10.037 11.757 15.048 17.641 4.71 5.529 9.409 11.068 14.113 16.601 0.172 0.203 0.337 0.415 0.535 0.59 0.077 0.068 0.255 0.088 0.354 0.048 0.098-0.04 0.195-0.174 0.221-0.283 0.045-0.192 0.044-0.396 0.046-0.595 6e-3 -0.6 5e-3 -1.2 5e-3 -1.8 0-15.132 0-30.263 1e-3 -45.395 0-2.569-0.192-2.425 2.335-2.424 2.066 1e-3 4.133-0.013 6.199 8e-3 1.112 0.012 1.211 0.139 1.249 1.3 0.013 0.4 4e-3 0.8 4e-3 1.2v74.977c-0.132 0.052-0.262 0.103-0.392 0.155z" fill="#299bd4"/><path d="m835.84 351.99c-0.676-0.376-0.963-1.001-1.357-1.526-1.646-2.196-3.48-4.207-5.67-5.881-4.801-3.672-10.164-5.029-16.159-4.155-5.836 0.851-10.46 3.716-14.24 8.126-3.76 4.387-5.812 9.47-6.476 15.198-0.601 5.187-0.247 10.251 1.608 15.141 2.685 7.077 7.502 12.288 14.464 15.211 6.911 2.902 13.464 1.85 19.274-2.945 3.813-3.147 6.386-7.119 7.348-12.04 0.038-0.196 0.11-0.385 0.144-0.582 0.242-1.426 0.094-1.625-1.369-1.629-4.266-0.013-8.532-9e-3 -12.797-4e-3 -2.103 2e-3 -2.039 0.086-2.035-2.111 4e-3 -2.266-1e-3 -4.532 3e-3 -6.799 0-0.333-3e-3 -0.669 0.047-0.996 0.055-0.363 0.31-0.594 0.667-0.639 0.395-0.05 0.797-0.052 1.196-0.052 7.798-2e-3 15.597-5e-3 23.395 2e-3 1.798 2e-3 1.786 0.019 1.82 1.721 0.094 4.679-0.158 9.342-1.306 13.886-2.45 9.701-8.015 17.051-17.032 21.534-5.013 2.492-10.398 3.077-15.965 2.445-8.745-0.992-15.42-5.478-20.877-12.093-4.473-5.422-7.199-11.651-8.296-18.568-0.627-3.955-0.72-7.939-0.284-11.947 0.362-3.332 0.988-6.584 2.142-9.724 2.968-8.078 7.992-14.559 15.241-19.227 4.64-2.987 9.774-4.449 15.301-4.611 4.663-0.136 9.144 0.562 13.457 2.397 3.24 1.378 6.012 3.421 8.598 5.746 2.035 1.83 3.857 3.868 5.571 6.002 0.531 0.661 0.546 0.803 0.029 1.361-1.946 2.103-3.903 4.196-5.862 6.286-0.169 0.182-0.389 0.319-0.58 0.473z" fill="#299bd4"/><path d="m648.86 367.83c0-11.466-1e-3 -22.931 1e-3 -34.397 0-2.567-0.195-2.377 2.366-2.379 2.466-2e-3 4.933 1e-3 7.399 1e-3 2.803-1e-3 5.585 0.229 8.351 0.684 5.197 0.855 9.105 3.553 11.722 8.129 2.026 3.542 3.142 7.365 3.221 11.421 0.084 4.3-0.99 8.314-3.67 11.79-0.406 0.527-0.826 1.045-1.223 1.578-0.197 0.264-0.088 0.501 0.158 0.67 0.164 0.112 0.349 0.195 0.528 0.283 4.441 2.179 7.208 5.79 8.846 10.361 0.747 2.087 1.115 4.238 1.171 6.457 0.078 3.088-0.137 6.125-1.25 9.045-1.641 4.305-4.349 7.755-8.212 10.288-1.814 1.19-3.82 1.894-5.932 2.271-1.571 0.28-3.149 0.552-4.758 0.556-5.799 0.013-11.598 0.038-17.397 0.057-0.2 1e-3 -0.4-7e-3 -0.599-0.023-0.486-0.04-0.695-0.34-0.705-0.797-0.014-0.6-0.017-1.2-0.017-1.8-1e-3 -11.398 0-22.797 0-34.195zm9.955 15.29h3e-3c0 3.265-0.011 6.53 6e-3 9.796 6e-3 1.185 0.101 1.288 1.231 1.293 2.265 0.01 4.531-0.014 6.796-0.043 1.274-0.016 2.508-0.31 3.727-0.647 3.33-0.921 5.548-3.067 6.73-6.281 0.296-0.805 0.495-1.664 0.613-2.515 0.636-4.571-1.705-10.429-7.471-11.902-3.623-0.925-7.27-0.68-10.923-0.692-0.49-2e-3 -0.679 0.347-0.692 0.796-0.014 0.466-0.017 0.933-0.018 1.399-2e-3 2.932-2e-3 5.863-2e-3 8.796zm0-31.234c0 2.596-1e-3 5.192 1e-3 7.788 1e-3 0.732 3e-3 1.464 0.02 2.196 0.011 0.474 0.276 0.738 0.746 0.752 1.731 0.051 3.473 0.134 5.184-0.137 3.522-0.558 6.004-2.46 7.068-5.937 0.918-2.998 0.93-6.049 0.028-9.049-0.844-2.808-2.755-4.659-5.534-5.585-2.26-0.753-4.598-0.594-6.924-0.509-0.297 0.011-0.495 0.208-0.522 0.501-0.042 0.462-0.063 0.928-0.064 1.392-6e-3 2.864-3e-3 5.726-3e-3 8.588z" fill="#299bd4"/><path d="m321.57 367.76c0-11.459 1e-3 -22.917-1e-3 -34.376 0-2.442-0.128-2.329 2.234-2.325 3.398 5e-3 6.796-0.046 10.193 0.023 3.13 0.064 6.248 0.346 9.294 1.128 1.029 0.264 2.049 0.588 3.04 0.972 5.021 1.948 8.33 5.593 10.303 10.527 1.051 2.627 1.503 5.367 1.538 8.195 0.039 3.151-0.201 6.251-1.313 9.236-1.43 3.84-3.677 7.065-7.021 9.493-1.363 0.99-2.869 1.676-4.435 2.255-0.373 0.138-0.754 0.261-1.109 0.436-0.177 0.087-0.267 0.311-0.172 0.509 0.143 0.298 0.319 0.582 0.498 0.861 2.56 3.975 5.122 7.949 7.687 11.921 3.468 5.371 6.94 10.74 10.405 16.112 0.288 0.446 0.562 0.904 0.801 1.377 0.082 0.162 0.036 0.406-0.21 0.458-0.258 0.054-0.525 0.087-0.788 0.088-3.131 6e-3 -6.263-0.028-9.393 0.025-1.002 0.017-1.554-0.394-2.057-1.215-3.275-5.335-6.593-10.643-9.898-15.959-2.321-3.733-4.64-7.466-6.969-11.194-0.317-0.507-0.644-1.016-1.035-1.464-0.286-0.328-0.731-0.25-1.126-0.166-0.406 0.086-0.489 0.422-0.505 0.757-0.028 0.598-0.022 1.199-0.022 1.798-1e-3 8.394-3e-3 16.788 1e-3 25.182 1e-3 2.434 0.061 2.24-2.315 2.243-1.865 2e-3 -3.731-2e-3 -5.596 1e-3 -2.114 3e-3 -2.032 0.056-2.03-2.12v-1.199c1e-3 -11.195 1e-3 -22.387 1e-3 -33.579zm9.798-14.392c0 1.198-1e-3 2.396 0 3.594 2e-3 2.329-7e-3 4.659 0.014 6.988 7e-3 0.779 0.188 0.97 0.937 0.976 1.464 0.011 2.935 0.059 4.39-0.066 1.787-0.153 3.562-0.458 5.247-1.133 3.181-1.273 5.236-3.54 6.133-6.864 0.566-2.098 0.587-4.235 0.301-6.342-0.517-3.811-2.623-6.464-6.256-7.835-0.558-0.211-1.136-0.384-1.718-0.514-2.612-0.58-5.27-0.65-7.932-0.662-0.066 0-0.133 8e-3 -0.199 0.016-0.602 0.069-0.849 0.288-0.891 0.861-0.034 0.464-0.025 0.931-0.025 1.397-2e-3 3.194-1e-3 6.389-1e-3 9.584z" fill="#299bd4"/><path d="m961.32 356.5c0-7.663-1e-3 -15.326 1e-3 -22.988 0-0.599 0-1.199 0.037-1.797 0.023-0.376 0.278-0.58 0.648-0.63 0.131-0.018 0.265-0.027 0.398-0.027 2.599-1e-3 5.197-0.012 7.796 8e-3 0.891 7e-3 1.038 0.177 1.069 1.055 0.021 0.599 8e-3 1.199 8e-3 1.799 1e-3 13.993 3e-3 27.986 1e-3 41.979 0 3.277 0.284 6.53 1.206 9.679 1.362 4.652 4.218 8.1 8.977 9.375 8.6 2.305 14.982-2.136 17.175-8.957 0.612-1.904 0.932-3.869 1.101-5.873 0.30805-3.659 0.257-7.321 0.259-10.984 4e-3 -11.927 2e-3 -23.855 2e-3 -35.782 0-2.446-0.152-2.303 2.249-2.302 1.932 0 3.865-2e-3 5.797 2e-3 0.399 1e-3 0.802-4e-3 1.196 0.046 0.362 0.045 0.605 0.299 0.646 0.657 0.053 0.461 0.058 0.929 0.059 1.395 0 15.192 0.038 30.385-0.021 45.577-0.02 5.186-0.962 10.215-3.592 14.784-2.949 5.124-7.024 9.025-12.627 11.136-3.48 1.311-7.077 1.635-10.8 1.293-9.82-0.903-17.831-9.062-20.327-17.982-0.828-2.959-1.258-5.99-1.257-9.072 1e-3 -7.463 1e-3 -14.926 1e-3 -22.389 0-2e-3 -1e-3 -2e-3 -2e-3 -2e-3z" fill="#2c9cd4"/><path d="m1200.6 357.2c0 7.266-0.011 14.533 0.01 21.799 0.01 3.561-0.45 7.044-1.6601 10.403-2.3139 6.42-6.394 11.346-12.544 14.394-4.096 2.03-8.442 2.575-13.019 2.094-9.04-0.951-16.083-8.133-18.833-14.684-1.621-3.861-2.397-7.893-2.405-12.067-0.019-10.466-0.01-20.932-0.012-31.399v-14.399c0-0.533-0.01-1.068 0.029-1.599 0.024-0.369 0.248-0.601 0.63-0.649 0.132-0.017 0.265-0.033 0.397-0.033 2.6-3e-3 5.2-0.015 7.8 3e-3 0.898 6e-3 1.062 0.184 1.096 1.033 0.023 0.599 0.01 1.2 0.01 1.8 0 13.999 0.011 27.999 0 41.998 0 2.809 0.208 5.59 0.812 8.334 0.552 2.507 1.522 4.818 3.228 6.785 2.292 2.642 5.147 4.181 8.651 4.431 2.342 0.167 4.669 0.107 6.8819-0.826 3.7841-1.596 6.298-4.391 7.6511-8.233 0.7339-2.084 1.114-4.253 1.2179-6.457 0.091-1.93 0.132-3.865 0.134-5.797 0.011-13.466 0.01-26.932 0.01-40.398 0-3.004-0.1101-2.661 2.7239-2.676 1.6671-9e-3 3.3331-3e-3 5-1e-3 0.4661 1e-3 0.933 3e-3 1.3991 0.022 0.46 0.018 0.7539 0.26 0.779 0.727 0.033 0.598 0.03 1.199 0.031 1.799 0 7.866 9e-4 15.733 9e-4 23.599 0-3e-3 -0.01-3e-3 -0.01-3e-3z" fill="#299bd4"/><path d="m398.61 326.83c0.615 0.499 0.738 1.186 0.979 1.789 7.973 19.91 15.932 39.825 23.894 59.739 1.879 4.7 3.762 9.399 5.638 14.101 0.222 0.556 0.427 1.12 0.601 1.693 0.057 0.188-0.069 0.403-0.285 0.444-0.259 0.049-0.529 0.05-0.795 0.05-2.733 4e-3 -5.467-0.04-8.199 0.026-1.054 0.026-1.536-0.416-1.884-1.343-1.756-4.676-3.516-9.352-5.357-13.995-1.129-2.846-0.371-2.417-3.486-2.426-7.799-0.022-15.599-0.014-23.398-3e-3 -2.249 3e-3 -1.97-0.251-2.855 1.931-1.903 4.691-3.83 9.373-5.747 14.059-0.151 0.37-0.303 0.74-0.448 1.112-0.165 0.424-0.487 0.611-0.924 0.63-0.2 9e-3 -0.4 0.013-0.6 0.013-2.666 1e-3 -5.333 0.011-7.999-5e-3 -1.284-8e-3 -1.363-0.136-0.866-1.399 0.464-1.177 0.973-2.337 1.458-3.506 6.886-16.615 13.771-33.23 20.656-49.845 3.034-7.323 6.065-14.647 9.101-21.969 0.152-0.365 0.336-0.716 0.516-1.096zm-0.032 24.696c-0.503 1.111-0.822 1.757-1.093 2.422-2.783 6.847-5.559 13.697-8.336 20.548-0.15 0.37-0.296 0.743-0.422 1.121-0.184 0.553-0.051 0.784 0.478 0.811 0.532 0.027 1.066 0.023 1.599 0.023 4.665 2e-3 9.33 1e-3 13.995 1e-3 0.8 0 1.6 0.014 2.399-0.012 0.768-0.025 0.909-0.26 0.659-1.017-0.104-0.316-0.214-0.631-0.335-0.941-2.147-5.523-4.296-11.046-6.446-16.568-0.772-1.983-1.549-3.962-2.498-6.388z" fill="#299bd4"/><path d="m700.15 367.89c0-11.528 1e-3 -23.057 0-34.585 0-2.412-0.139-2.25 2.295-2.25 10.596 1e-3 21.191 2e-3 31.787-1e-3 2.317-1e-3 2.195-0.112 2.194 2.152-1e-3 2.399 0.011 4.798-7e-3 7.197-8e-3 1.112-0.128 1.206-1.293 1.24-0.466 0.014-0.933 3e-3 -1.399 3e-3 -7.064 0-14.127-2e-3 -21.191 1e-3 -2.672 1e-3 -2.428-0.184-2.433 2.522-7e-3 4.398-9e-3 8.796 2e-3 13.194 4e-3 1.754 0.024 1.775 1.791 1.777 6.864 8e-3 13.728 3e-3 20.591 3e-3 0.466 0 0.933-8e-3 1.399 2e-3 1.747 0.036 1.758 0.038 1.767 1.817 0.012 2.332 6e-3 4.665 1e-3 6.997-1e-3 0.398-0.017 0.798-0.058 1.194-0.03 0.289-0.211 0.497-0.512 0.515-0.597 0.035-1.196 0.055-1.795 0.055-6.93 4e-3 -13.861 0-20.791 4e-3 -2.612 1e-3 -2.394-0.211-2.396 2.335-5e-3 6.797-6e-3 13.594 2e-3 20.391 2e-3 1.745 0.019 1.763 1.769 1.764 7.197 7e-3 14.394 3e-3 21.591 3e-3 0.533 0 1.066-9e-3 1.599 4e-3 1.282 0.03 1.345 0.072 1.355 1.381 0.019 2.599 0.019 5.198 2e-3 7.797-8e-3 1.203-0.158 1.327-1.401 1.377-0.333 0.013-0.666 5e-3 -0.999 5e-3 -10.462 0-20.924-3e-3 -31.387 2e-3 -2.77 2e-3 -2.479 0.026-2.48-2.511-6e-3 -11.461-3e-3 -22.923-3e-3 -34.385z" fill="#2c9cd4"/><path d="m572.9 367.8v-33.582c0-0.466-4e-3 -0.933 1e-3 -1.399 0.02-1.745 0.021-1.762 1.777-1.763 10.861-5e-3 21.722-3e-3 32.583-2e-3 0.333 0 0.668-4e-3 0.998 0.025 0.591 0.053 0.816 0.287 0.885 0.872 8e-3 0.066 0.016 0.133 0.016 0.199 1e-3 2.798 0.015 5.597-6e-3 8.395-6e-3 0.824-0.259 1.044-1.091 1.088-0.532 0.028-1.066 0.01-1.599 0.01-7.13 0-14.259 2e-3 -21.389 0-2.324-1e-3 -2.208-0.082-2.207 2.145 2e-3 4.398 0 8.795 1e-3 13.193 0 0.267-6e-3 0.533 3e-3 0.8 0.041 1.221 0.139 1.347 1.406 1.353 3.531 0.018 7.063 7e-3 10.594 8e-3h10.794c0.466 0 0.933-0.012 1.399 8e-3 1.145 0.049 1.31 0.184 1.317 1.257 0.018 2.732 0.018 5.464 0 8.195-7e-3 0.979-0.145 1.102-1.208 1.113-1.932 0.021-3.865 8e-3 -5.797 9e-3h-15.792c-0.4 0-0.8-6e-3 -1.199 2e-3 -1.49 0.028-1.512 0.03-1.514 1.613-9e-3 7.063-4e-3 14.126-2e-3 21.189 0 0.333 8e-3 0.666 0.032 0.998 0.026 0.376 0.235 0.625 0.614 0.649 0.597 0.037 1.197 0.043 1.796 0.044 7.196 3e-3 14.392 1e-3 21.589 2e-3 2.393 0 2.271-0.187 2.268 2.274-2e-3 2.066 2e-3 4.131-2e-3 6.197-1e-3 0.466 4e-3 0.935-0.042 1.397-0.037 0.368-0.3 0.598-0.661 0.635-0.462 0.048-0.93 0.058-1.395 0.058-10.661 3e-3 -21.322 2e-3 -31.983 2e-3 -0.067 0-0.133 1e-3 -0.2 0-1.97-0.024-1.983-0.024-1.983-2.001-5e-3 -11.662-3e-3 -23.322-3e-3 -34.983z" fill="#2c9cd4"/><path d="m1343.2 367.87v-34.387c1e-3 -2.582-0.21-2.423 2.327-2.423 10.529-1e-3 21.059 0 31.588-1e-3 2.2941 0 2.194-0.128 2.1891 2.154 0 2.332 0.01 4.665-0.01 6.997-0.01 1.372-0.062 1.406-1.501 1.435-0.466 9e-3 -0.933 2e-3 -1.4001 2e-3 -6.997 0-13.995-1e-3 -20.992 2e-3 -2.384 1e-3 -2.249-0.104-2.249 2.319-1e-3 4.465-0.01 8.93 0 13.395 0.01 1.753 0.026 1.778 1.7971 1.781 6.997 0.011 13.995 2e-3 20.992 8e-3 2.912 2e-3 2.5641-0.211 2.5831 2.563 0.014 2.066 0 4.132 0 6.198 0 0.267 0.01 0.534-0.01 0.799-0.049 0.836-0.197 0.974-1.12 1.009-0.532 0.02-1.066 8e-3 -1.599 8e-3 -6.797 0-13.595-1e-3 -20.392 1e-3 -2.423 1e-3 -2.257-0.143-2.258 2.29 0 6.664-1e-3 13.328-1e-3 19.992 0 2.317-0.112 2.214 2.138 2.214 7.1969 0 14.394-4e-3 21.592 3e-3 2.62 3e-3 2.407-0.237 2.416 2.319 0.01 2.266 0.012 4.532 0 6.797-0.01 1.394-0.036 1.404-1.495 1.438-0.4 9e-3 -0.8 3e-3 -1.199 3e-3 -10.263 0-20.525 3e-3 -30.788-2e-3 -2.936-1e-3 -2.612 0.218-2.614-2.527-0.01-11.463-0.01-22.925 0-34.387z" fill="#299bd4"/><path d="m1025.6 367.86c0-11.46-1e-3 -22.921 9e-4 -34.381 1e-3 -2.571-0.1969-2.419 2.3351-2.419 10.528 0 21.055 1e-3 31.583-1e-3 2.293 0 2.184-0.123 2.181 2.162 0 2.265 0.01 4.531 0 6.796-0.01 1.605-0.022 1.606-1.708 1.629-0.4 6e-3 -0.799 1e-3 -1.199 1e-3 -6.996 0-13.992 1e-3 -20.988 0-2.367 0-2.254-0.092-2.254 2.322-1e-3 4.331-1e-3 8.662 0 12.993 0 0.466-0.01 0.934 0.021 1.398 0.041 0.632 0.248 0.86 0.8339 0.897 0.531 0.034 1.065 0.022 1.598 0.022 6.796 1e-3 13.593 0 20.389 1e-3 0.533 0 1.067-8e-3 1.599 0.019 0.748 0.038 0.912 0.187 0.9171 0.991 0.019 2.798 0.021 5.597 0 8.395 0 0.872-0.1679 1.005-1.077 1.034-0.732 0.023-1.4659 9e-3 -2.1989 9e-3 -6.53 0-13.059-1e-3 -19.589 2e-3 -0.5989 0-1.1989 0.011-1.797 0.04-0.375 0.018-0.616 0.238-0.652 0.615-0.038 0.397-0.048 0.797-0.048 1.196v20.789c0 0.399 0.013 0.799 0.051 1.196 0.037 0.378 0.2819 0.595 0.654 0.615 0.5979 0.032 1.1979 0.043 1.796 0.043 7.1289 3e-3 14.259 1e-3 21.388 2e-3 2.4471 0 2.2581-0.151 2.261 2.276 0 2.332 0.012 4.664-0.01 6.996-0.01 1.021-0.126 1.111-1.1759 1.151-0.4661 0.018-0.933 7e-3 -1.3991 7e-3h-30.983c-0.5329 0-1.067 0.01-1.5989-0.019-0.7451-0.04-0.885-0.191-0.9201-0.996-0.025-0.599-0.014-1.199-0.014-1.799v-33.982z" fill="#299bd4"/><path d="m1299.2 382.11c0.3209 0.643 0.384 1.367 0.483 2.088 0.219 1.585 0.555 3.141 1.0969 4.654 1.4291 3.995 5.078 6.47 9.087 6.676 5.8441 0.301 9.34-3.453 10.666-7.353 0.876-2.577 1.051-5.194 0.469-7.872-0.4529-2.084-1.4149-3.849-2.92-5.355-1.381-1.382-2.936-2.516-4.673-3.387-1.845-0.925-3.714-1.804-5.588-2.669-2.726-1.258-5.4269-2.56-7.806-4.421-2.99-2.34-5.44-5.114-6.689-8.775-3.742-10.964 2.146-22.132 12.642-25.177 4.803-1.394 9.616-1.286 14.179 1.111 2.3921 1.257 4.416 2.96 6.076 5.099 1.2661 1.63 2.4401 3.313 3.289 5.117-0.23 0.595-0.7049 0.754-1.0809 1.009-2.042 1.38-4.0931 2.747-6.1501 4.105-0.567 0.374-0.693 0.319-1.0809-0.306-0.527-0.848-1.048-1.701-1.589-2.54-1.422-2.205-3.459-3.471-6.041-3.835-4.162-0.587-7.869 0.84-10.093 4.549-1.883 3.139-1.383 7.149 1.135 9.783 1.263 1.322 2.767 2.292 4.402 3.066 2.528 1.197 5.072 2.359 7.605 3.545 1.994 0.934 3.928 1.979 5.703 3.291 3.102 2.292 5.674 5.028 7.234 8.623 0.803 1.849 1.343 3.778 1.563 5.763 0.646 5.822 0.029 11.458-2.976 16.618-2.943 5.054-7.153 8.581-12.915 9.972-5.029 1.214-9.917 0.728-14.55-1.686-2.405-1.253-4.39-3.013-6.03-5.154-3.042-3.97-4.46-8.588-5.252-13.441-0.107-0.657 0.06-0.878 0.849-1.084 2.061-0.536 4.124-1.066 6.2-1.539 0.889-0.199 1.746-0.634 2.755-0.475z" fill="#299bd4"/><path d="m1271.2 347.21c-0.499-0.2-0.61-0.527-0.784-0.807-0.4571-0.735-0.918-1.469-1.3941-2.192-2.294-3.485-5.6389-4.49-9.565-3.911-2.6189 0.386-4.7349 1.703-6.259 3.908-2.405 3.48-1.982 7.799 1.071 10.731 1.261 1.212 2.739 2.115 4.314 2.853 2.05 0.96 4.1111 1.896 6.175 2.825 3.05 1.372 5.941 2.997 8.523 5.148 4.374 3.643 6.705 8.32 7.267 13.962 0.3 3.013 0.159 5.989-0.463 8.933-1.317 6.232-4.613 11.161-10.025 14.555-3.982 2.497-8.384 3.268-13.036 2.716-3.512-0.417-6.709-1.583-9.535-3.763-3.103-2.394-5.137-5.545-6.639-9.091-0.887-2.093-1.408-4.298-1.874-6.514-0.095-0.453-0.097-0.927-0.135-1.391-0.044-0.525 0.12-0.903 0.692-1.03 0.454-0.101 0.898-0.248 1.35-0.361 1.937-0.484 3.873-0.969 5.813-1.44 0.451-0.109 0.912-0.188 1.373-0.239 0.38-0.042 0.644 0.174 0.711 0.54 0.178 0.981 0.283 1.978 0.498 2.95 0.259 1.167 0.475 2.368 0.932 3.462 1.365 3.267 3.694 5.602 7.251 6.245 6.384 1.154 10.524-1.881 12.504-7.339 0.904-2.491 0.866-5.126 0.378-7.702-0.503-2.653-1.976-4.772-4.095-6.438-1.685-1.324-3.531-2.376-5.473-3.274-2.176-1.006-4.336-2.046-6.5-3.079-1.931-0.922-3.738-2.045-5.411-3.381-3.675-2.935-6.193-6.625-6.96-11.307-1.753-10.69 3.805-18.843 12.3-21.895 5.989-2.152 11.949-1.799 17.348 2.023 3.108 2.201 5.339 5.172 7.113 8.508 0.175 0.328 0.208 0.661-0.115 0.887-2.438 1.711-4.917 3.366-7.3499 4.908z" fill="#299bd4"/><path d="m1130.7 347.22c-0.669-0.298-0.797-0.859-1.084-1.294-0.514-0.778-0.982-1.589-1.54-2.333-1.335-1.779-3.093-2.928-5.31-3.269-3.655-0.562-6.884 0.247-9.444 3.075-2.887 3.191-2.808 8.154 0.159 11.253 1.266 1.322 2.775 2.286 4.413 3.054 2.413 1.131 4.855 2.199 7.263 3.339 3.452 1.634 6.699 3.586 9.387 6.349 3.344 3.436 5.109 7.602 5.481 12.343 0.271 3.465 0.171 6.923-0.77 10.312-1.565 5.636-4.75 10.099-9.723 13.19-3.994 2.483-8.395 3.253-13.046 2.68-1.457-0.18-2.892-0.443-4.284-0.932-4.546-1.597-7.899-4.596-10.28-8.733-2.091-3.633-3.242-7.563-3.687-11.67 0.412-0.537 1.003-0.485 1.494-0.616 2.251-0.6 4.515-1.151 6.777-1.71 0.322-0.08 0.655-0.122 0.986-0.154 0.483-0.047 0.748 0.15 0.832 0.64 0.169 0.984 0.266 1.982 0.484 2.954 0.261 1.167 0.486 2.369 0.955 3.458 1.637 3.799 4.454 6.049 8.695 6.328 2.764 0.181 5.319-0.324 7.464-2.191 2.363-2.057 3.753-4.673 4.09-7.773 0.201-1.848 0.212-3.713-0.245-5.564-0.583-2.359-1.835-4.261-3.663-5.811-1.585-1.344-3.35-2.409-5.229-3.291-2.292-1.076-4.604-2.111-6.871-3.237-3.804-1.889-7.226-4.281-9.699-7.823-1.872-2.682-2.974-5.643-3.117-8.933-0.126-2.878-0.063-5.744 0.993-8.475 2.487-6.43 7.078-10.529 13.772-12.19 2.746-0.682 5.556-0.692 8.335-0.197 4.708 0.837 8.295 3.495 11.159 7.194 0.975 1.259 1.779 2.655 2.616 4.016 0.414 0.673 0.351 0.89-0.288 1.326-1.652 1.126-3.32 2.228-4.986 3.333-0.71 0.474-1.433 0.929-2.089 1.352z" fill="#299bd4"/><path d="m560.18 387.64c0.382 0.248 0.302 0.534 0.303 0.779 6e-3 3.665-0.022 7.331 0.023 10.996 0.011 0.915-0.298 1.482-1.078 1.931-3.966 2.287-8.168 3.833-12.73 4.459-4.854 0.665-9.568 0.129-14.189-1.352-3.594-1.152-6.801-3.053-9.702-5.452-5.191-4.293-9.025-9.585-11.413-15.886-1.52-4.011-2.368-8.173-2.528-12.471-0.177-4.755 0.208-9.432 1.502-14.04 1.463-5.213 3.94-9.878 7.242-14.132 2.179-2.807 4.698-5.265 7.622-7.296 5.126-3.562 10.816-5.272 17.052-5.469 5.913-0.187 11.327 1.323 16.417 4.217 0.347 0.197 0.689 0.406 1.03 0.614 0.486 0.296 0.763 0.693 0.758 1.3-0.032 3.93-0.045 7.859-0.07 11.789 0 0.04-0.081 0.08-0.169 0.161-0.55-0.059-0.837-0.558-1.223-0.883-3.142-2.642-6.543-4.843-10.546-5.919-7.188-1.931-13.788-0.644-19.497 4.144-5.581 4.68-8.817 10.743-9.804 17.997-0.655 4.818-0.469 9.578 0.933 14.237 1.85 6.145 5.378 11.122 10.738 14.707 3.165 2.117 6.669 3.3 10.504 3.401 1.933 0.051 3.869 0.089 5.78-0.265 2.594-0.481 4.928-1.607 7.133-3.015 1.802-1.15 3.433-2.524 5.048-3.917 0.288-0.246 0.539-0.563 0.864-0.635z" fill="#299bd4"/><path d="m277.32 367.72c0-11.465-1e-3 -22.93 1e-3 -34.395 0-2.404-0.186-2.275 2.268-2.275 9.399 2e-3 18.797 0 28.196 2e-3 0.533 0 1.066 6e-3 1.598 0.034 0.373 0.02 0.601 0.237 0.67 0.609 0.012 0.065 0.018 0.132 0.018 0.198 0 2.999 4e-3 5.999-7e-3 8.998-2e-3 0.477-0.303 0.715-0.766 0.731-0.533 0.018-1.066 0.019-1.599 0.019-6.132 1e-3 -12.265-3e-3 -18.397 3e-3 -2.008 2e-3 -2.02 0.013-2.023 1.926-7e-3 4.533-3e-3 9.065-1e-3 13.598 0 0.399 7e-3 0.8 0.032 1.198 0.029 0.471 0.315 0.716 0.768 0.741 0.532 0.029 1.066 0.032 1.599 0.032 5.266 2e-3 10.532 1e-3 15.798 1e-3 0.4 0 0.801-0.015 1.2 3e-3 3.074 0.139 2.568-0.03 2.604 2.627 0.028 2.066 9e-3 4.133 3e-3 6.199-1e-3 0.398-0.02 0.798-0.062 1.194-0.031 0.294-0.23 0.485-0.525 0.502-0.598 0.035-1.197 0.055-1.796 0.055-5.799 4e-3 -11.598 1e-3 -17.397 3e-3 -2.423 1e-3 -2.221-0.154-2.222 2.31-4e-3 9.932-2e-3 19.864-2e-3 29.796 0 0.333 2e-3 0.667 0 1-0.016 1.916-0.016 1.932-1.835 1.948-2.133 0.018-4.266 9e-3 -6.399 0-0.397-2e-3 -0.798-0.039-1.188-0.108-0.279-0.049-0.474-0.269-0.491-0.554-0.035-0.598-0.041-1.199-0.041-1.798-5e-3 -11.534-4e-3 -23.065-4e-3 -34.597z" fill="#2c9cd4"/><path d="m749.31 367.81v-34.582c-8e-3 -2.299-0.12-2.178 2.165-2.175 1.999 2e-3 3.998 0 5.997 1e-3 0.333 0 0.667 2e-3 0.999 0.017 0.466 0.021 0.749 0.265 0.766 0.738 0.025 0.665 0.023 1.332 0.024 1.998 1e-3 19.256-3e-3 38.513 5e-3 57.769 1e-3 2.972-0.334 2.629 2.688 2.639 4.664 0.015 9.328 4e-3 13.993 4e-3 0.466 0 0.933-0.012 1.399 5e-3 1.007 0.037 1.129 0.138 1.136 1.189 0.017 2.732 0.015 5.464-6e-3 8.195-6e-3 0.871-0.167 0.992-1.089 1.032-0.399 0.017-0.799 8e-3 -1.199 8e-3 -8.196 0-16.391 1e-3 -24.587-1e-3 -0.533 0-1.067 4e-3 -1.598-0.034-0.363-0.026-0.628-0.233-0.647-0.626-0.029-0.598-0.043-1.198-0.043-1.797-4e-3 -11.459-3e-3 -22.919-3e-3 -34.38z" fill="#299bd4"/><path d="m868.06 367.75c0 11.528 1e-3 23.055-1e-3 34.583 0 2.432 0.181 2.317-2.23 2.317-1.932 0-3.865-7e-3 -5.797 2e-3 -2.026 9e-3 -1.931-0.021-1.927-2.023v-0.6c0-22.789-2e-3 -45.577 3e-3 -68.366 1e-3 -2.874-0.287-2.601 2.527-2.611 1.932-7e-3 3.865-0.012 5.797 2e-3 1.605 0.012 1.606 0.025 1.627 1.713 5e-3 0.4 1e-3 0.8 1e-3 1.199v33.784z" fill="#2c9cd4"/><path d="m1226.1 367.96c0 11.466 1e-3 22.931-9e-4 34.397 0 2.434 0.17 2.287-2.254 2.29-2.2 3e-3 -4.4 0.011-6.5991-0.01-0.8709-9e-3 -1.029-0.191-1.067-1.071-0.023-0.532-0.011-1.066-0.011-1.6 0-22.731 1e-3 -45.463-9e-4 -68.194 0-2.981-0.141-2.709 2.688-2.714 2-4e-3 4-0.014 5.999 7e-3 1.1219 0.012 1.2079 0.123 1.242 1.298 0.015 0.533 0 1.066 0 1.6v33.997z" fill="#259bd4"/></g>
</svg>
