<svg style="isolation:isolate" version="1.1" viewBox="0 0 1024 1024" xmlns="http://www.w3.org/2000/svg">
 <defs>
  <clipPath id="a">
   <rect width="1024" height="1024"/>
  </clipPath>
 </defs>
 <g clip-path="url(#a)">
  <path d="m512 1024c283 0 512-229 512-512s-229-512-512-512-512 229-512 512 229 512 512 512z" fill="#2296db"/>
  <path d="m138 411v-39c0-20 28-18 28-18h213s42 0 57 34c9 18 64 144 71 159l88-179s6-15 29-15l48 2-162 315c-9-1-13-6-21-20-5-9-9-16-9-16l-88-193c-18-38-39-32-39-32l-41-1v261h-36s-20 3-26-8c-2-6-1-19-1-19v-215s0-12-8-15c-9-3-17-1-17-1z" fill="#fff"/>
  <path d="m659 470 63-122 179 329h-33c-104 1-110-29-116-40l-19-34c-11-25-16-9-16-9l-44 81h-116l49-93c11-15 16-28 44-28l48 1c13 0 5-11 5-11z" fill="#fddd04"/>
 </g>
</svg>
