<svg width="800" height="363.82" version="1.0" viewBox="0 0 800 363.82" xmlns="http://www.w3.org/2000/svg">
 <defs>
  <linearGradient id="a" x1="364.35" x2="1460" y1="1468.4" y2="522.25" gradientTransform="translate(-15.502,-62.009)" gradientUnits="userSpaceOnUse">
   <stop stop-color="#624fb7" offset="0"/>
   <stop stop-color="#5b45b6" offset=".10985"/>
   <stop stop-color="#3a33b6" offset=".19414"/>
   <stop stop-color="#25baef" offset="1"/>
  </linearGradient>
  <filter id="b" x="-.1347" y="-.1864" width="1.2694" height="1.3728">
   <feGaussianBlur stdDeviation="114.37649"/>
  </filter>
  <linearGradient id="linearGradient3022" x1="459.78" x2="738.02" y1="509.86" y2="409.4" gradientTransform="translate(-15.502,-62.009)" gradientUnits="userSpaceOnUse">
   <stop stop-color="#3241c5" offset="0"/>
   <stop stop-color="#1d72d4" offset=".40207"/>
   <stop stop-color="#10a3f5" offset=".82923"/>
   <stop stop-color="#10b1f5" offset="1"/>
  </linearGradient>
 </defs>
 <path transform="matrix(.17819 0 0 .17819 48.336 23.812)" d="m118.85 1133.1c-105.16-129.89-483.22-1054.3 1100.7-966.3 1075 104.49 992.56 984 341.05 1276.3-461.12 198.42-951.79 410.19-1441.7-310.04z" fill="url(#a)" filter="url(#b)"/>
 <g transform="matrix(2.195 0 0 2.195 -300.65 -754.1)">
  <path transform="translate(187,391.27)" d="m12.594 0.5c-0.81308 0-5.0625 0.04541-5.0625 3.0312l-0.03125 7.0312c0 0.64775-0.35356 1-1 1h-2.9688c-0.98057 0-3.0312 0.97612-3.0312 5.0938 0 4.102 2.0128 4.875 3 4.875h3c0.50276 0.01783 0.997 0.56811 1 1.0312v4.2188s-0.03125 13.163-0.03125 13.188c0 3.0618 3.1314 13.562 13.281 13.562h2.4688c4.658 0 8.2742-4.3954 8.2812-6 0.02114 0.02193 0.0625 0.02047 0.0625-0.46875 0-0.65229-0.20383-2.4542-2.2188-3.2812-0.13869-0.0569-0.58595-0.34574-1.6562 0-1.0603 0.3425-2.3247 0.75-3.9688 0.75-0.10117 0-2.2776-0.03031-2.3125-0.03125-1.6897-0.04529-3.9073-2.5212-4-5.5625-0.0013-0.04151 0.125-16.406 0.125-16.406-0.0025-0.4781 0.28374-0.98285 1-0.96875h5.0312c0.94049 0 3-1.0051 3-5 0-3.9793-2.0691-5.0312-3.0625-5.0312-0.77509 0-5.0312 0.03125-5.0312 0.03125-0.58033 0-1-0.19823-1-1v-7.125c0-3.1688-4.0398-2.9375-4.875-2.9375zm71.938 11.031c-10.321 0.0697-19 12.969-19 25.5 0 0.20778 1e-5 1.4717 0 1.5938 0 13.643 7.3268 26.862 23.188 26.906 1.1503 3e-3 1.1648-2e-3 0.9375 0 8.2554-0.18838 15.906-4.4807 15.906-9 0-2.5157-1.519-3.7812-2.8438-3.7812-3.86 0-4.9773 3.7812-11.719 3.7812-7.9815 0-14.469-6.4958-14.469-11v-3c0-0.54525 0.43781-0.99999 1-1 0 0 21.801-0.03125 22-0.03125 4.019 0 6.9688-1.9586 6.9688-5.9688v-3.0625c0-8.462-6.7393-20.938-18.312-20.938-0.20301 0-3.6467-7e-5 -3.6562 0zm-49.969 0.03125c-3.6414 0-5.0312 1.5871-5.0312 3.625 0 2.4151 2.1905 7.5619 5 14.75 3.7885 9.6929 6.4918 18.447 7.9688 20.438 1.0086 1.6602 2.5113 3.0938 5.5 3.0938 3.1148 0 4.4949-1.4985 5.5-3.0625 1.5832-2.0275 13.031-32.738 13.031-35.219 0-1.61-1.5595-3.625-5.0312-3.625h-0.9375c-2.0319 0-3.6015 2.0078-4.0312 3.0625-0.0504 0.10082-8.5 22.5-8.5 22.5l-0.78125-2.0312-7.8125-20.438c-0.57836-1.6171-1.9351-3.0938-3.9688-3.0938h-0.90625zm53 7.9688c5.1616 0 8.0938 5.6314 7.9375 9.0625-0.0299 0.77121 0 3.0312 0 3.0312 0 0.48848-0.42429 0.90625-1 0.90625h-16.938c-0.52932 0-1.0625-0.48826-1.0625-1v-1.0625c0-6.0012 4.7451-10.906 9.0938-10.906 0.76324 0 0.91703-0.03125 1.9688-0.03125z" fill="#fff" fill-rule="evenodd" stroke-opacity="0"/>
 </g>
 <g transform="translate(35.88 -286.81)" fill="url(#linearGradient3022)" stroke-width="386.52">
  <path d="m524.3 413.7 8.3273-2.8727c1.3788-0.47273 1.7455-1.0909 1.7455-2.5455v-7.3091c0-1.9273-0.62122-2.5455-2.5455-2.5455h-39.455c-1.9273 0-2.5455 0.61819-2.5455 2.5455v7.3091c0 1.4546 0.36363 2.0728 1.7455 2.5455l8.3637 2.8727v67.273c0 4.9455 0.18182 11.491-1.8546 16.146-0.72727 1.7091-1.8546 3.2364-3.2 4.5455-0.9091 0.87273-1.8909 1.6727-2.9818 2.2909-1.303 0.80001-2.7637 1.3818-4.2546 1.8182-2.2182 0.58182-4.5091 0.83637-6.8 0.83637-2.3273 0-4.6182-0.25455-6.8364-0.83637-1.4849-0.43637-2.9455-1.0182-4.2546-1.8182-1.0909-0.61818-2.0728-1.4182-2.9818-2.2909-1.303-1.3091-2.4364-2.8364-3.2-4.5455-2-4.6546-1.8182-11.2-1.8182-16.146v-67.273l8.3273-2.8727c1.3788-0.47273 1.7818-1.0909 1.7818-2.5455v-7.3091c0-1.9273-0.65152-2.5455-2.5455-2.5455h-39.491c-1.8909 0-2.5455 0.61819-2.5455 2.5455v7.3091c0 1.4546 0.36364 2.0728 1.7818 2.5455l8.3273 2.8727v67.273c0 12.8 1.2727 26.291 11.309 35.418 1.8909 1.7455 4.0364 3.2364 6.3637 4.4728 3.2364 1.7091 6.7273 2.8364 10.291 3.6728 5.0546 1.1273 10.291 1.7091 15.455 1.7091 5.2 0 10.4-0.58182 15.491-1.7091 3.5637-0.83637 7.0546-1.9636 10.291-3.6728 2.2909-1.2364 4.4364-2.7273 6.4-4.4728 10-9.1273 11.309-22.655 11.309-35.418z" style="white-space:pre"/>
  <path d="m560.67 507.94-8.3273 2.8728c-1.3788 0.47273-1.7455 1.0909-1.7455 2.5455v7.3091c0 1.9273 0.62122 2.5455 2.5455 2.5455h39.346c1.8909 0 2.5455-0.61819 2.5455-2.5455v-7.3091c0-1.4546-0.36364-2.0728-1.7818-2.5455l-8.3273-2.8728v-39.455h35.346v39.455l-8.3273 2.8728c-1.4242 0.47273-1.7818 1.0909-1.7818 2.5455v7.3091c0 1.9273 0.65152 2.5455 2.5455 2.5455h39.346c1.9273 0 2.5455-0.61819 2.5455-2.5455v-7.3091c0-1.4546-0.36364-2.0728-1.7455-2.5455l-8.3637-2.8728v-94.183l8.3637-2.8728c1.3788-0.47273 1.7455-1.0909 1.7455-2.5455v-7.3092c0-1.9273-0.62122-2.5455-2.5455-2.5455h-39.346c-1.8909 0-2.5455 0.61818-2.5455 2.5455v7.3092c0 1.4546 0.36364 2.0727 1.7818 2.5455l8.3273 2.8728v35.273h-35.346v-35.273l8.3273-2.8728c1.4242-0.47273 1.7818-1.0909 1.7818-2.5455v-7.3092c0-1.9273-0.65152-2.5455-2.5455-2.5455h-39.346c-1.9273 0-2.5455 0.61818-2.5455 2.5455v7.3092c0 1.4546 0.36364 2.0727 1.7455 2.5455l8.3273 2.8728z" style="white-space:pre"/>
  <path d="m678.85 507.18-8.8364 3.0546c-1.3788 0.47273-1.7455 1.0909-1.7455 2.5455v7.9273c0 1.9273 0.62122 2.5455 2.5455 2.5455h39.855c8.4001 0 17.309-0.0758 25.273-3.1273 2.6909-1.0546 5.2728-2.4364 7.6728-4.0728 14.873-10.218 19.164-28.764 20.218-45.782 0.21213-3.1637 0.28788-6.3637 0.28788-9.5637 0-3.4182 0-6.8-0.28788-10.218-0.15151-2.1818-0.33333-4.3637-0.57576-6.5819-1.7091-15.091-6.5455-31.928-20.691-39.964-3.2364-1.8546-6.7637-3.2364-10.364-4.1091-6.6546-1.5273-14.255-1.3091-20.982-1.3091h-40.4c-1.9273 0-2.5455 0.61819-2.5455 2.5455v7.9273c0 1.4546 0.36364 2.0727 1.7455 2.5455l8.8364 3.0546zm24.364-89.201h6.9091c4.3637 0 8.9455 0.0758 13.018 1.7091 1.2727 0.54546 2.4728 1.2 3.6 1.9636 8.691 6.0364 10.546 17.127 11.346 26.982 0.15152 1.7455 0.21213 3.4909 0.28788 5.2 0 2.2909 0.15152 4.5819 0.15152 6.8364 0 2.3273 0 4.6546-0.15152 6.9819 0 2.0364-0.18182 4.0728-0.36364 6.1091-0.83334 9.8546-2.6546 21.164-11.855 26.727-1.4242 0.83637-3.0182 1.4546-4.5818 1.9273-3.7091 1.0909-7.6001 1.3818-11.455 1.3818h-6.9091z" style="white-space:pre"/>
 </g>
</svg>
