<svg width="824.49pt" height="322.99pt" version="1.1" viewBox="0 0 824.49 322.99" xmlns="http://www.w3.org/2000/svg">
 <defs>
  <linearGradient id="a" x1="26.667" x2="829.91" y1="41.828" y2="327.9" gradientUnits="userSpaceOnUse">
   <stop stop-color="#781898" offset="0"/>
   <stop stop-color="#7520a1" offset=".37998"/>
   <stop stop-color="#7224a5" offset=".63224"/>
   <stop stop-color="#7125a5" offset=".74023"/>
   <stop stop-color="#7129ac" offset="1"/>
  </linearGradient>
 </defs>
 <g transform="translate(-13.009 -23.747)" fill="url(#a)">
  <path d="m73.071 23.764c-4.0381 0-25.142 0.22552-25.142 15.054l-0.1552 34.92c0 3.217-1.7559 4.9664-4.9664 4.9664h-14.744c-4.8699 0-15.054 4.8478-15.054 25.298 0 20.372 9.9963 24.211 14.899 24.211h14.899c2.4969 0.0885 4.9515 2.8214 4.9664 5.1213v20.952s-0.1552 65.372-0.1552 65.497c0 15.206 15.552 67.354 65.959 67.354h12.261c23.133 0 41.093-21.829 41.128-29.798 0.10499 0.10891 0.3104 0.10166 0.3104-2.328 0-3.2395-1.0123-12.188-11.019-16.296-0.68878-0.28259-2.91-1.7171-8.2253 0-5.2658 1.701-11.545 3.7248-19.711 3.7248-0.50245 0-11.311-0.15053-11.485-0.1552-8.3917-0.22492-19.405-12.521-19.866-27.625-0.0065-0.20615 0.6208-81.478 0.6208-81.478-0.01242-2.3744 1.4092-4.8812 4.9664-4.8112h24.987c4.6708 0 14.899-4.9917 14.899-24.832 0-19.763-10.276-24.987-15.21-24.987-3.8494 0-24.987 0.1552-24.987 0.1552-2.8821 0-4.9664-0.98449-4.9664-4.9664v-35.385c0-15.737-20.063-14.589-24.211-14.589zm357.27 54.784c-51.258 0.34616-94.361 64.409-94.361 126.64 0 1.0319 5e-5 7.309 0 7.9154 0 67.756 36.388 133.41 115.16 133.63 5.7128 0.0149 5.7848-0.01 4.656 0 40.999-0.93557 78.995-22.253 78.995-44.697 0-12.494-7.5439-18.779-14.123-18.779-19.17 0-24.719 18.779-58.201 18.779-39.639 0-71.859-32.261-71.859-54.63v-14.899c0-2.7079 2.1743-4.9663 4.9664-4.9664 0 0 108.27-0.1552 109.26-0.1552 19.96 0 34.61-9.7272 34.61-29.643v-15.21c0-42.026-33.47-103.99-90.944-103.99-1.0082 0-18.111-3.48e-4 -18.158 0zm-248.17 0.1552c-18.085 0-24.987 7.8821-24.987 18.003 0 11.994 10.879 37.555 24.832 73.254 18.815 48.139 32.241 91.615 39.576 101.5 5.0091 8.2452 12.472 15.365 27.315 15.365 15.469 0 22.323-7.4421 27.315-15.21 7.8628-10.069 64.717-162.59 64.717-174.91 0-7.9959-7.7451-18.003-24.987-18.003h-4.656c-10.091 0-17.886 9.9715-20.02 15.21-0.25031 0.50071-42.214 111.74-42.214 111.74l-3.88-10.088-38.8-101.5c-2.8724-8.0311-9.6104-15.365-19.711-15.365h-4.5008zm263.22 39.576c25.634 0 40.197 27.968 39.421 45.008-0.14849 3.8301 0 15.054 0 15.054 0 2.426-2.1072 4.5008-4.9664 4.5008h-84.121c-2.6288 0-5.2768-2.4249-5.2768-4.9664v-5.2768c0-29.804 23.566-54.163 45.163-54.163 3.7905 0 4.5543-0.1552 9.7778-0.1552z" fill-rule="evenodd" stroke-width="4.9664"/>
  <path d="m729.57 83.219c-9.9274 0.0045-12.237 0.14936-12.781 0.54785-1.6247 1.3999-1.0827 4.7012-1.1338 6.5405l-0.0308 5.9678 5.8755 2.7993 6.019 2.7891v107.99l-6.019 2.7905-5.8755 2.7993 0.0308 5.9678c0.0511 1.8393-0.49092 5.1392 1.1338 6.5391 0.7255 0.53131 4.5889 0.61339 25.465 0.51123 23.768-0.11241 24.616-0.15374 25.219-0.97119 0.45982-0.62331 0.6123-2.319 0.6123-6.5698v-5.7319l-5.7832-2.7188-5.707-2.707v-44.851l42.959 58.587c1.6343 2.0092 3.2598 4.9888 6.1816 4.9762l11.606 0.0248c4.5484 0 7.9164-7e-3 10.528-0.0278 7.066-0.0572 8.155-0.2303 8.7788-0.73535 0.885-0.72222 0.9249-1.0675 0.813-7.0283l-0.13185-6.2666-6.0117-2.2075-3.7266-1.3652c-0.0143-6e-3 -0.0248-0.013-0.0398-0.019-1.3916-0.60455-2.6633-1.4078-3.6578-2.6704l-41.979-54.031 39.376-51.978 6.5338-3.0314 5.7451-2.6997v-5.6938c0-4.2223-0.15263-5.9067-0.60938-6.5259-0.5988-0.81198-1.4404-0.85222-25.049-0.96386-20.736-0.1015-24.573-0.021-25.293 0.50684-1.6138 1.3905-1.0757 4.6682-1.1265 6.4951l-0.0308 5.9282 8.2837 5.3686v4e-3l-33.149 44.48v-44.084l5.707-2.707 5.7832-2.7188v-5.7319c0-4.2508-0.15247-5.948-0.6123-6.5713-0.60285-0.81746-1.451-0.85731-25.219-0.96972-5.219-0.02558-9.375-0.03968-12.684-0.0381z"/>
  <path d="m661.03 227.52c-2.5245-1.0306-2.4299-0.47275-2.4394-14.665 0-7.129-0.11346-13.643-0.25529-14.485l-0.24582-1.5128h-28.251c-18.692 0-28.507-0.14182-29.027-0.41601-0.74694-0.39711-0.78476-0.95495-0.78476-11.544v-11.128l28.582-43.767 28.573-43.767 25.245-0.03782v90.465h7.0723c9.4265 0 8.6796-0.86039 8.6796 10.013 0 6.9399-0.11345 8.5472-0.63347 9.2847-0.60512 0.8793-0.83204 0.89821-8.0556 0.89821h-7.4316l-0.11346 14.731c-0.11346 13.502-0.17965 14.787-0.84149 15.449-0.64293 0.64293-1.7019 0.72803-9.8993 0.80367-5.4933 0.0567-9.5778-0.0756-10.173-0.32147zm-1.6262-78.523c0-15.213-0.13237-27.656-0.30256-27.646-0.22692 9e-3 -28.336 45.053-33.546 53.761l-0.93604 1.5506h34.785z" stroke-width=".94549"/>
 </g>
</svg>
