<svg width="800" height="353.56" version="1.1" viewBox="0 0 800 353.56" xml:space="preserve" xmlns="http://www.w3.org/2000/svg">
<g transform="matrix(2.2151 0 0 2.2151 -17.235 -11.999)">
		<path d="m299.41 165.03c38.57 0 69.531-31.251 69.531-69.788 0-38.379-30.961-69.617-69.531-69.617-38.591 0-69.875 31.236-69.875 69.617 0 38.537 31.285 69.788 69.875 69.788z" fill="#0c8fcf"/>
	<path d="m187.5 35.184-32.969 84.911-32.97-84.911h-74.038v-29.767h-39.743v117.9c0 18.127 14.694 32.824 32.823 32.824h43.912l-14.433-30.975h-15.132c-4.102 0-7.427-3.324-7.427-7.426v-55.906h40.571l43.813 94.31h45.246l55.513-120.95h-45.167v-3e-3z" fill="#010202"/>
</g>
<path d="m645.99 44.764c-72.313 0-133.04 49.514-150.04 116.24a1039.4 321.13 0 0 0 292.1-21.754c-23.238-55.45-77.895-94.482-142.06-94.482z" fill="#33a5d9" style="paint-order:markers stroke fill"/><path d="m-0.0019531 0v137.83a1039.4 321.13 0 0 0 88.035 9.9277v-22.793h89.869l14.488 31.188a1039.4 321.13 0 0 0 96.438 4.5391l-36.793-94.758h-164v-65.938h-88.035zm398.1 65.938-37.314 96.102a1039.4 321.13 0 0 0 39.221 0.60742 1039.4 321.13 0 0 0 54.035-0.59179l44.105-96.096h-100.05v-0.005859l0.00195-0.015625z" fill="#333" style="paint-order:markers stroke fill"/></svg>
