<?xml version="1.0" encoding="UTF-8"?>
<!-- Created with Inkscape (http://www.inkscape.org/) -->
<svg id="svg815" width="377" height="82" version="1.1" viewBox="0 0 377 82" xmlns="http://www.w3.org/2000/svg" xmlns:cc="http://creativecommons.org/ns#" xmlns:dc="http://purl.org/dc/elements/1.1/" xmlns:rdf="http://www.w3.org/1999/02/22-rdf-syntax-ns#" xmlns:xlink="http://www.w3.org/1999/xlink">
 <metadata id="metadata821">
  <rdf:RDF>
   <cc:Work rdf:about="">
    <dc:format>image/svg+xml</dc:format>
    <dc:type rdf:resource="http://purl.org/dc/dcmitype/StillImage"/>
    <dc:title/>
   </cc:Work>
  </rdf:RDF>
 </metadata>
 <defs id="defs819">
  <linearGradient id="linearGradient24882" x2="1" gradientTransform="matrix(0 -45.491 190.18 0 -2.5894 81.079)" gradientUnits="userSpaceOnUse">
   <stop id="stop16983" stop-color="#717074" offset="0"/>
   <stop id="stop16985" stop-color="#737275" offset=".015873"/>
   <stop id="stop16987" stop-color="#747377" offset=".031746"/>
   <stop id="stop16989" stop-color="#767578" offset=".047619"/>
   <stop id="stop16991" stop-color="#77767a" offset=".063492"/>
   <stop id="stop16993" stop-color="#79787b" offset=".079365"/>
   <stop id="stop16995" stop-color="#7a797d" offset=".095238"/>
   <stop id="stop16997" stop-color="#7b7a7e" offset=".11111"/>
   <stop id="stop16999" stop-color="#7d7b7f" offset=".12698"/>
   <stop id="stop17001" stop-color="#7e7d81" offset=".14286"/>
   <stop id="stop17003" stop-color="#7f7e82" offset=".15873"/>
   <stop id="stop17005" stop-color="#818084" offset=".1746"/>
   <stop id="stop17007" stop-color="#828285" offset=".19048"/>
   <stop id="stop17009" stop-color="#848387" offset=".20635"/>
   <stop id="stop17011" stop-color="#858588" offset=".22222"/>
   <stop id="stop17013" stop-color="#87868a" offset=".2381"/>
   <stop id="stop17015" stop-color="#88888b" offset=".25397"/>
   <stop id="stop17017" stop-color="#8a898d" offset=".26984"/>
   <stop id="stop17019" stop-color="#8b8b8e" offset=".28571"/>
   <stop id="stop17021" stop-color="#8c8b8f" offset=".30159"/>
   <stop id="stop17023" stop-color="#8d8d91" offset=".31746"/>
   <stop id="stop17025" stop-color="#8f8e92" offset=".33333"/>
   <stop id="stop17027" stop-color="#909094" offset=".34921"/>
   <stop id="stop17029" stop-color="#929195" offset=".36508"/>
   <stop id="stop17031" stop-color="#949397" offset=".38095"/>
   <stop id="stop17033" stop-color="#959498" offset=".39682"/>
   <stop id="stop17035" stop-color="#97969a" offset=".4127"/>
   <stop id="stop17037" stop-color="#98979b" offset=".42857"/>
   <stop id="stop17039" stop-color="#9a999d" offset=".44444"/>
   <stop id="stop17041" stop-color="#9b9a9e" offset=".46032"/>
   <stop id="stop17043" stop-color="#9d9ca0" offset=".47619"/>
   <stop id="stop17045" stop-color="#9e9da1" offset=".49206"/>
   <stop id="stop17047" stop-color="#9f9fa2" offset=".50794"/>
   <stop id="stop17049" stop-color="#a1a0a4" offset=".52381"/>
   <stop id="stop17051" stop-color="#a2a2a5" offset=".53968"/>
   <stop id="stop17053" stop-color="#a4a3a7" offset=".55556"/>
   <stop id="stop17055" stop-color="#a5a5a9" offset=".57143"/>
   <stop id="stop17057" stop-color="#a7a7aa" offset=".5873"/>
   <stop id="stop17059" stop-color="#a9a8ac" offset=".60318"/>
   <stop id="stop17061" stop-color="#aaaaad" offset=".61905"/>
   <stop id="stop17063" stop-color="#acabaf" offset=".63492"/>
   <stop id="stop17065" stop-color="#adadb0" offset=".65079"/>
   <stop id="stop17067" stop-color="#afaeb2" offset=".66667"/>
   <stop id="stop17069" stop-color="#b1b0b4" offset=".68254"/>
   <stop id="stop17071" stop-color="#b2b2b5" offset=".69841"/>
   <stop id="stop17073" stop-color="#b3b2b6" offset=".71429"/>
   <stop id="stop17075" stop-color="#b5b4b7" offset=".73016"/>
   <stop id="stop17077" stop-color="#b6b6b9" offset=".74603"/>
   <stop id="stop17079" stop-color="#b8b7bb" offset=".7619"/>
   <stop id="stop17081" stop-color="#bab9bc" offset=".77778"/>
   <stop id="stop17083" stop-color="#bbbbbe" offset=".79365"/>
   <stop id="stop17085" stop-color="#bdbcbf" offset=".80952"/>
   <stop id="stop17087" stop-color="#bfbec1" offset=".8254"/>
   <stop id="stop17089" stop-color="#c0c0c3" offset=".84127"/>
   <stop id="stop17091" stop-color="#c2c2c5" offset=".85714"/>
   <stop id="stop17093" stop-color="#c4c3c6" offset=".87302"/>
   <stop id="stop17095" stop-color="#c5c5c8" offset=".88889"/>
   <stop id="stop17097" stop-color="#c6c6c9" offset=".90476"/>
   <stop id="stop17099" stop-color="#c8c8ca" offset=".92064"/>
   <stop id="stop17101" stop-color="#cac9cc" offset=".93651"/>
   <stop id="stop17103" stop-color="#cbcbcd" offset=".95238"/>
   <stop id="stop17105" stop-color="#cdcccf" offset=".96825"/>
   <stop id="stop17107" stop-color="#cfced1" offset=".98413"/>
   <stop id="stop17109" stop-color="#d0d0d2" offset="1"/>
  </linearGradient>
 </defs>
 <path id="path23998" d="m0 0.13028v81.87h185.1v-81.87z" fill="url(#linearGradient24882)"/>
 <path id="path24002" d="m184.93 81.884h192.07v-81.884h-192.07z" fill="#d0043c"/>
 <path id="path24006" d="m340.49 14.856c-6.8201 0-13.27 2.6341-18.068 7.3754-4.8837 5.0831-7.5463 11.547-7.5463 18.923 0 7.3612 2.6626 13.811 7.5463 18.809 4.898 4.9264 11.348 7.6602 18.068 7.6602 7.9307 0 15.406-3.7447 20.389-10.195 3.4172-4.542 5.1685-10.095 5.1685-16.274 0-7.3754-2.5914-13.925-7.3897-18.837-4.8837-4.8268-11.433-7.4609-18.168-7.4609m0 42.615c-7.9307 0-14.267-6.8486-14.267-16.317 0-9.4969 6.336-16.346 14.267-16.346s14.281 6.8486 14.281 16.346c0 9.4685-6.3503 16.317-14.281 16.317" fill="#fff"/>
 <path id="path24010" d="m307.75 25.805v-9.6536h-29.872v49.635h10.65v-17.214h16.559v-9.6393h-16.559v-13.128z" fill="#fff" fill-rule="evenodd"/>
 <path id="path24012" d="m199.41 65.795h10.679v-49.635h-10.679z" fill="#fff"/>
 <path id="path24016" d="m264.51 67.568v-51.414h-10.679v26.284l-30.598-27.665v51.03h10.664v-25.899z" fill="#fff"/>
 <path id="path24018" d="m60.241 77.826h-56.085v-73.683h56.085z" fill="#fff" fill-rule="evenodd"/>
 <path id="path24022" d="m51.238 25.807v-9.6536h-38.5v9.6536h13.911v39.981h10.679v-39.981z" fill="#d0043c" fill-rule="evenodd"/>
 <path id="path24024" d="m120.54 77.826h-56.213v-73.683h56.213z" fill="#fff" fill-rule="evenodd"/>
 <path id="path24028" d="m103.97 16.16-11.262 27.494-0.39867 1.5235-0.41291-1.5235-11.277-27.494h-11.191l22.881 51.414 22.867-51.414z" fill="#d0043c"/>
 <path id="path24030" d="m180.82 77.826h-56.213v-73.683h56.213z" fill="#fff" fill-rule="evenodd"/>
 <path id="path24034" d="m151.4 16.162-14.808-0.0142v49.663h10.365v-15.164l3.5026 0.0712c13.441 0 20.09-8.7423 20.09-17.513 0-8.5572-6.4499-17.043-19.15-17.043m-1.3099 25.259h-3.1324v-15.676h3.6023c5.7808 0.1139 8.6284 2.0361 9.0271 7.7314-0.32748 5.9801-3.7304 7.888-9.4969 7.945" fill="#d0043c" fill-rule="evenodd"/>
</svg>
