<svg width="415.75" height="226.02" clip-rule="evenodd" fill-rule="evenodd" image-rendering="optimizeQuality" shape-rendering="geometricPrecision" text-rendering="geometricPrecision" version="1.1" viewBox="0 0 110 59.8" xml:space="preserve" xmlns="http://www.w3.org/2000/svg"><path d="m0 1.5179e-4h110v59.8h-110z" fill="#fe000c"/><g fill="#fff"><path class="fil1" d="m45.349 8.1456h19.304v25.336h-19.304zm20.713 0h19.304v25.336h-19.304zm4.1746 4.1713v17.264h3.4958v-5.2707l0.7541 0.0245c4.7079 0 7.0203-3.0537 7.0203-6.0822-6e-4 -2.9795-2.2393-5.9354-6.6989-5.9354zm3.4904 3.3411h1.2589c1.9973 0.0304 2.9938 0.7065 3.1365 2.6935-0.1236 2.062-1.2917 2.7181-3.3029 2.7524h-1.0925zm-18.726 14.445-7.9932-17.992h3.8813l3.973 9.0991 0.1389 0.5411 0.1404-0.5485 3.9715-9.0917h3.8817zm-14.022-14.443v-3.3402h-13.38v3.3402h4.834v13.92h3.7125v-13.92h4.834zm-16.342-7.515h19.304v25.336h-19.304zm-1.4095-1.2526h63.547v27.841l-63.547 2e-4v-27.841z"/><path class="fil2" d="m85.75 52.781 6.605-13.362h0.1983l6.4616 13.362h-3.2369l-0.8207-1.8854h-5.2565l-0.839 1.8854zm4.8446-4.1186h3.4047l-1.6809-4.0607z"/><path d="m79.851 52.781v-12.959h3.094v12.959z" fill-rule="nonzero"/><path d="m64.32 52.781v-13.381h0.296l8.07 7.564v-7.142h2.852v13.45h-0.268l-8.097-7.559v7.068z" fill-rule="nonzero"/><path class="fil2" d="m47.936 46.302c0-0.9579 0.1648-1.8611 0.4974-2.7031 0.3295-0.845 0.8176-1.5894 1.4613-2.2393 0.6071-0.6253 1.3118-1.1104 2.1173-1.4491 0.8054-0.3386 1.6474-0.5095 2.529-0.5095 0.8696 0 1.7116 0.1709 2.5261 0.5095 0.8115 0.3387 1.5316 0.8268 2.1569 1.4613 0.6255 0.6347 1.1014 1.376 1.4309 2.221 0.3265 0.8481 0.4912 1.7513 0.4912 2.7092 0 0.8237-0.1129 1.5925-0.3386 2.3064-0.2289 0.7139-0.5645 1.3606-1.0098 1.9403-0.6255 0.839-1.4004 1.4919-2.3217 1.9556-0.9183 0.4668-1.8977 0.6986-2.935 0.6986-0.8755 0-1.7145-0.1708-2.5168-0.5095-0.7994-0.3387-1.5102-0.8298-2.1295-1.4675-0.6376-0.6528-1.1257-1.4033-1.4583-2.2423-0.3325-0.8389-0.5004-1.7328-0.5004-2.6816zm3.182 0c0 1.1257 0.3295 2.0684 0.9916 2.8281 0.662 0.7597 1.4735 1.141 2.4314 1.141 0.9642 0 1.7757-0.3783 2.4346-1.1349 0.659-0.7566 0.9885-1.7023 0.9885-2.8342 0-1.1441-0.3264-2.0959-0.9824-2.8526-0.6559-0.7565-1.4704-1.1349-2.4407-1.1349-0.9701 0-1.7846 0.3814-2.4405 1.141-0.656 0.7598-0.9825 1.7085-0.9825 2.8465z"/><path d="m38.39 52.781v-12.959h3.093v10.18h5.049v2.779z" fill-rule="nonzero"/><path class="fil2" d="m22.006 46.302c0-0.9579 0.1648-1.8611 0.4974-2.7031 0.3295-0.845 0.8176-1.5894 1.4613-2.2393 0.6071-0.6253 1.3118-1.1104 2.1173-1.4491 0.8054-0.3386 1.6474-0.5095 2.5291-0.5095 0.8695 0 1.7115 0.1709 2.526 0.5095 0.8116 0.3387 1.5316 0.8268 2.1569 1.4613 0.6255 0.6347 1.1014 1.376 1.4309 2.221 0.3265 0.8481 0.4912 1.7513 0.4912 2.7092 0 0.8237-0.1129 1.5925-0.3386 2.3064-0.2289 0.7139-0.5645 1.3606-1.0098 1.9403-0.6255 0.839-1.4004 1.4919-2.3217 1.9556-0.9183 0.4668-1.8976 0.6986-2.9349 0.6986-0.8756 0-1.7146-0.1708-2.5169-0.5095-0.7994-0.3387-1.5102-0.8298-2.1295-1.4675-0.6376-0.6528-1.1257-1.4033-1.4583-2.2423-0.3325-0.8389-0.5004-1.7328-0.5004-2.6816zm3.1821 0c0 1.1257 0.3294 2.0684 0.9915 2.8281 0.662 0.7597 1.4735 1.141 2.4315 1.141 0.9641 0 1.7756-0.3783 2.4345-1.1349 0.659-0.7566 0.9885-1.7023 0.9885-2.8342 0-1.1441-0.3264-2.0959-0.9824-2.8526-0.6559-0.7565-1.4704-1.1349-2.4406-1.1349s-1.7847 0.3814-2.4406 1.141c-0.656 0.7598-0.9824 1.7085-0.9824 2.8465z"/><path class="fil2" d="m10.985 52.781v-12.96h3.3346c1.0311 0 1.8427 0.0731 2.4345 0.2196 0.5919 0.1434 1.1288 0.3936 1.6048 0.7444 0.4759 0.3508 0.8481 0.7871 1.1166 1.3149 0.2684 0.5247 0.4026 1.0861 0.4026 1.681 0 1.3027-0.4667 2.3369-1.3972 3.1057-0.9336 0.7719-2.1965 1.1563-3.7952 1.1563h-0.6072v4.7379h-3.0935zm3.5146-10.583h-0.4211v3.4596h0.5614c0.781 0 1.376-0.1495 1.7878-0.4514 0.4119-0.3021 0.6163-0.7354 0.6163-1.2997 0-0.5919-0.2014-1.022-0.6072-1.2966-0.2013-0.1312-0.4637-0.2319-0.7871-0.3051-0.3203-0.0702-0.7047-0.1068-1.1501-0.1068z"/></g></svg>
