<svg width="800" height="291.73" version="1.1" viewBox="0 0 800 291.73" xml:space="preserve" xmlns="http://www.w3.org/2000/svg">
<path class="st0" d="m0 0v291.73h800v-291.73z" fill="#f49800" stroke-width="11.22"/>
<path class="st1" d="m148.11 173.91v-50.491h37.027v-46.003h-37.027v-59.467l-57.223 29.173v30.295h-25.806v46.003h25.806v58.345c0 22.44 5.6101 38.149 16.83 48.247 10.098 7.8541 25.806 13.464 44.881 13.464 16.83 0 30.295-2.244 38.149-4.4881v-38.149c-6.7321 1.122-10.098 1.122-19.074 1.122-17.952 0-23.562-8.9762-23.562-28.05z" fill="#fff" stroke-width="11.22"/>
<path d="m309.68 178.4h-1.122l-33.661-102.1h-61.711l66.199 163.81h56.101l67.321-163.81h-59.467z" fill="#fff" stroke-width="11.22"/>
<path class="st1" d="m458.15 229.4c6.2034 7.0698 15.833 13.168 27.686 14.079 40.393 4.4881 87.518-28.05 113.32-84.151 23.562-49.369 4.4881-87.518-31.417-87.518-24.684 0-43.759 11.22-62.833 28.05l-1.122-2.244 7.8541-21.318h-56.101l-92.006 215.43h61.711l29.766-66.147m24.091-58.397 7.8541-19.074c7.3537-18.499 24.838-29.173 39.271-29.173 19.074 0 21.318 16.83 12.342 38.149-10.098 23.562-28.05 39.271-46.003 39.271-16.632 0-20.07-11.763-13.464-29.173z" fill="#fff" stroke-width="11.22"/>
<path d="m607.01 240.11h62.833l70.687-164.94h-62.833z" fill="#fff" stroke-width="11.22"/>
<path d="m755.12 42.637 17.952-42.637h-62.833l-17.952 42.637z" fill="#fff" stroke-width="11.22"/>
</svg>
