<svg width="800" height="800" version="1.1" viewBox="0 0 800 800" xmlns="http://www.w3.org/2000/svg">
 <defs>
  <linearGradient id="linearGradient842" x1="142" x2="882" y1="-438.98" y2="-438.98" gradientTransform="matrix(.78125 0 0 .78125 0 729.69)" gradientUnits="userSpaceOnUse">
   <stop stop-color="#d6001e" offset="0"/>
   <stop stop-color="#aa0018" offset="1"/>
  </linearGradient>
 </defs>
 <circle cx="400" cy="400" r="400" fill="#fefefe" stop-color="#000000" stroke-width="5.9815" style="paint-order:stroke fill markers"/>
 <path d="m550.23 601.05-294.72 2.8475c-81.358 0.79197-146.35-57.751-144.53-130.08l4.0399-158.43h43.068v205.8h44.27c9.8594 0 15.261-6.5848 15.261-16.462v-189.35h47.873l66.053 182.49 0.0445 0.11568c6.6131 15.794 22.066 26.072 39.189 26.063 17.174-0.34703 31.322-10.687 37.053-26.268l78.893-238.53h-37.729c-11.764 0-20.982 1.6729-25.583 14.976-4.6005 13.303-51.833 167.49-51.833 167.49l-61.746-179.25h-186.56c-0.86208 2e-3 -1.7235 0.0489-2.5805 0.14236 17.085-54.547 74.551-93.985 141.36-93.024l285.87 4.1467c73.109 1.0589 133.16 52.59 138.14 117.01-7.0298-10.589-16.631-19.452-28.902-25.129-22.691-10.411-44.964-9.2544-69.194-10.037h-37.089c-30.735 0-55.775 23.492-55.846 52.465v217.9h4.9208c1.6729 0 3.9776-0.0178 6.6204-9e-3h28.866c8.4001-0.0979 14.059-7.617 14.059-15.83v-81.937h35.967c3.0699 4.2267 16.729 23.091 30.522 42.089 10.908 15.09 21.871 30.14 32.889 45.151 2.456 3.3191 9.3166 10.536 23.492 10.536h4.5026c-21.641 43.727-69.852 74.551-126.64 75.103m94.59-258.4h-0.0178v0.40933c-0.16017 14.469-6.8874 24.302-16.667 30.317-10.02 6.1933-23.216 8.6048-36.252 8.587h-42.374v-67.744c0.0534-6.6204 5.606-12.778 12.805-12.832h27.14c19.31 9e-3 33.102 2.4916 42.178 8.934 8.8984 6.2912 13.09 16.489 13.17 31.625 0 0-0.0178 0.14238 0 0.50721v0.17797s9e-3 0 9e-3 0.0178m34.624 125.49-35.789-47.669 0.14237-0.0445c7.27-1.9221 13.348-5.0098 19.336-8.4268 10.041-5.9561 18.496-14.247 24.649-24.168l1.2814 84.588c0.0444 2.7674-0.0445 5.5259-0.19577 8.2755-3.0878-4.12-6.2556-8.3467-9.4234-12.547" fill="url(#linearGradient842)" fill-rule="evenodd" stroke-width="8.8984"/>
</svg>
