<svg height="64.998" viewBox="0 0 220 65" xmlns="http://www.w3.org/2000/svg" xmlns:xlink="http://www.w3.org/1999/xlink">
 <defs>
  <linearGradient id="a">
   <stop stop-color="#f92115" offset="0"/>
   <stop stop-color="#ff746c" stop-opacity=".902" offset="1"/>
  </linearGradient>
  <linearGradient id="c" x2="0" y1="190.58" y2="125.58" gradientUnits="userSpaceOnUse" xlink:href="#a"/>
  <linearGradient id="b" x2="0" y1="190.58" y2="125.58" gradientTransform="matrix(1.3255 0 0 1 73.17 0)" gradientUnits="userSpaceOnUse" xlink:href="#a"/>
 </defs>
 <g transform="translate(-78.57 -125.58)">
  <path d="m78.571 125.58h91.48v65h-91.48" fill="url(#c)"/>
  <path d="m177.32 125.58h121.25v65h-121.25" fill="url(#b)"/>
  <g fill="#dedcdb">
   <path transform="matrix(1.25 0 0 1.25 78.57 125.58)" d="m6.21 8.6631h27.19v6.2651h-9.6084v29.072h-8.0192v-29.072h-9.5624z"/>
   <path transform="matrix(1.25 0 0 1.25 78.57 125.58)" d="m35.438 8.6631h8.6448l7.547 27.467 8.221-27.467h8.3111l-11.991 35.337h-9.3842z"/>
   <path transform="translate(78.57 125.58)" d="m98.746 0v65h121.25v-65h-121.25zm22.514 10.293c3.07 0.093 6.09 0.499 8.99 1.465 5.59 1.812 8.69 8.842 7.03 14.404-0.79 3.775-4.16 5.964-6.96 8.201 7.04 4.038 6.08 14.025 9.11 20.637-3.48 0.138-6.95 0.062-10.43 0-1.92-4.575-2.39-9.975-4.32-14.525-1.5-3.35-5.59-2.975-8.63-3.1-0.01 5.763 0 17.625 0 17.625h-10.1v-43.701c4.96-0.445 10.2-1.16 15.31-1.006zm80.1 0.164c3.99-0.092 8.07 0.712 11.76 1.918-0.62 2.6-1.27 5.2-2.05 7.75-4.47-1.2-9.65-3.1-14-0.537-2.08 1.225-2.12 4.574-0.13 5.912 4.41 3 10.1 3.638 14.16 7.25 5.74 4.675 5.12 14.612-0.81 18.875-7.47 5.137-17.6 4.325-25.63 0.937 0.66-2.774 1.39-5.537 2.19-8.275 4.8 1.975 10.41 3.838 15.49 1.75 2.79-1 3.34-5.161 0.9-6.861-4.58-3.113-10.63-3.738-14.58-7.901-5.05-4.612-4.03-13.55 1.49-17.363 3.33-2.375 7.22-3.363 11.21-3.455zm-58 0.371h9.77s0.09 15.485 0.06 22.885c0.06 3.362 0.03 6.949 1.72 9.975 2.38 4.7 10.18 4.7 12.6 0.05 2.18-4.2 1.58-9.126 1.74-13.701 0.15-6.337 0.02-19.209 0.02-19.209h9.96s0.26 18.785-0.19 27.91c-0.32 6.113-3.44 12.55-9.38 14.95-8.99 3.812-22.47 1.475-25.26-9.225-0.85-3.768-0.96-7.641-1.04-11.553 0.06-7.114 0-22.082 0-22.082zm-22.34 7.217c-1.65-0.039-3.35 0.18-4.97 0.143 0.03 4.037-0.02 8.062 0 12.099 3.03-0.137 6.3 0.363 9.01-1.312 3.34-1.888 3.73-7.251 0.59-9.526-1.39-1.069-2.98-1.365-4.63-1.404z"/>
  </g>
 </g>
</svg>
