<svg width="800" height="227.49" fill="none" version="1.1" viewBox="0 0 800 227.49" xmlns="http://www.w3.org/2000/svg">
 <link rel="stylesheet" type="text/css"/>
 <link rel="stylesheet" type="text/css"/>
 <style type="text/css"/>
 <g transform="matrix(5.8202 0 0 5.8202 2798.4 1640.8)" fill="#bc191a" style="shape-inside:url(#rect902);white-space:pre" aria-label="TVRUS">
  <path d="m-451.35-269.37h-7.92v20.2h-6.88v-20.2h-7.92v-6.2h22.72z"/>
  <path d="m-424.67-275.57-12 26.88h-2.2l-12-26.88h7.8l5.32 12.96 5.28-12.96z"/>
  <path d="m-406.27-249.17-5.96-8.2h-2.84v8.2h-6.88v-26.4h10.36q2.92 0 5.24 1.12t3.64 3.2q1.32 2.04 1.32 4.76 0 2.44-1.12 4.4-1.08 1.92-3.04 3.12l6.96 9.8zm-8.8-14.2h3.52q1.44 0 2.28-0.84 0.88-0.88 0.88-2.28t-0.88-2.24q-0.84-0.84-2.28-0.84h-3.52z"/>
  <path d="m-373.47-260.37q0 3.48-1.52 6.12t-4.2 4.12q-2.64 1.44-5.96 1.44-3.36 0-6.04-1.44-2.64-1.44-4.16-4.08-1.48-2.68-1.48-6.16v-15.2h6.88v15.72q0 2.24 1.32 3.56 1.36 1.28 3.48 1.28t3.44-1.28q1.36-1.32 1.36-3.56v-15.72h6.88z"/>
  <path d="m-359.87-276.05q3.28 0 5.56 1.44t3.48 3.88l-4.6 3.52q-0.96-1.44-1.96-2.12t-2.4-0.68q-1.08 0-1.72 0.44-0.64 0.4-0.64 1.24 0 0.72 0.48 1.2 0.52 0.44 1.8 0.96l3.04 1.28q3.44 1.44 5.08 3.32 1.68 1.84 1.68 4.64 0 2.52-1.28 4.4-1.24 1.88-3.48 2.88-2.2 0.96-4.92 0.96-3.56 0-6.32-1.6t-4.2-4.32l4.64-3.52q1.16 1.56 2.52 2.48t3.36 0.92q2.72 0 2.72-1.92 0-0.88-0.56-1.32t-2.12-1.12l-2.72-1.2q-3.28-1.44-5-3.36-1.68-1.92-1.68-4.6 0-2.32 1.16-4.08 1.2-1.8 3.28-2.76 2.12-0.96 4.8-0.96z"/>
 </g>
 <text transform="translate(0 -344.37)" fill="#000000" font-family="sans-serif" font-size="40px" style="line-height:1.25;shape-inside:url(#rect908);white-space:pre" xml:space="preserve"/>
 <text transform="translate(0 -344.37)" fill="#000000" font-family="sans-serif" font-size="40px" style="line-height:1.25;shape-inside:url(#rect914);white-space:pre" xml:space="preserve"/>
 <path d="m0-6.0791e-6v227.49h800v-227.49zm7.5829 7.5829h784.83v212.32h-784.83z" fill="#bc191a" stroke-width=".70655"/>
</svg>
