<svg version="1.1" viewBox="0 0 400.37 120.81" xmlns="http://www.w3.org/2000/svg">
 <g transform="translate(-68.388 -454.82)">
  <path d="m451.02 454.82h-85.33c-9.7558 0-17.739 7.9811-17.739 17.737v85.331c0 9.7561 7.983 17.739 17.739 17.739h85.33c9.7559 0 17.737-7.983 17.737-17.739v-85.331c0-9.7558-7.9814-17.737-17.737-17.737" fill="#da2127" fill-rule="evenodd"/>
  <path d="m86.125 454.82c-9.7558 0-17.737 7.9812-17.737 17.737v85.331c0 9.7561 7.9815 17.739 17.737 17.739h85.331c9.7558 0 17.737-7.9832 17.737-17.739v-85.331c0-9.7558-7.9816-17.737-17.737-17.737zm140.07 0c-9.7559 0-17.737 7.9812-17.737 17.737v85.331c0 9.7561 7.9812 17.739 17.737 17.739h85.332c9.7559 0 17.737-7.9832 17.737-17.739v-85.331c0-9.7558-7.9815-17.737-17.737-17.737z" fill="#0066b1" fill-rule="evenodd"/>
  <path d="m409.96 482.33c-3.6187 0-7.0612 0.53029-10.342 1.5896-3.7078 1.3239-6.7103 3.4274-9.0053 6.3262-1.2365 1.5157-2.1619 3.2222-2.78 5.0761-0.61836 1.8685-0.92754 3.8993-0.92754 6.1196v0.51659c0 0.79463 0.0291 1.5294 0.0873 2.206 0.0601 0.67656 0.13283 1.3237 0.2073 1.9128 0.23448 1.2056 0.55837 2.295 0.95662 3.2808 0.74914 2.0601 2.0443 3.855 3.8842 5.3696 1.4858 1.1785 3.1619 2.1641 5.0316 2.9295l3.1475 1.2946 3.1935 0.9857 4.3113 1.3384c5.1934 1.5746 7.7976 3.8694 7.7976 6.8863 0 1.7203-0.75105 3.0589-2.2369 4.0444-0.80899 0.54553-1.6764 0.94177-2.5893 1.2074-0.92729 0.24886-1.8389 0.38184-2.766 0.38184h-1.4128c-0.83845-0.0872-1.7947-0.27825-2.8842-0.55821l-3.9277-1.2946c-0.86721-0.3384-1.6328-0.61851-2.3238-0.84026-0.69282-0.2201-1.3404-0.41116-1.9423-0.58766-0.60397-0.1619-1.104-0.27981-1.5166-0.33802-0.39637-0.0582-0.85273-0.0891-1.3672-0.0891h-0.51474c-1.6783 0-3.0897 0.73634-4.2679 2.2221-1.1912 1.4856-1.882 3.2657-2.1183 5.3696 0.29456 2.8114 1.7949 4.9589 4.5316 6.4157 4.826 2.6766 10.079 4.0168 15.773 4.0168h1.4272c8.1503 0 14.549-2.5457 19.17-7.6356 2.986-3.5313 4.4862-8.0338 4.4862-13.493 0-3.7078-0.73477-6.7683-2.1916-9.1795-1.6764-2.5604-3.4729-4.4442-5.3987-5.6516-1.1783-0.74938-2.3549-1.3968-3.5459-1.9405-1.1912-0.54554-2.5169-1.0453-3.9442-1.5016l-7.1646-2.368-3.9571-1.5167c-0.92729-0.39637-1.6038-0.92559-2.031-1.5892-0.42559-0.66219-0.64732-1.3673-0.64732-2.1183v-0.33839c0.26558-1.5584 1.0458-2.7223 2.3694-3.4715 1.3239-0.76564 2.8094-1.1473 4.4425-1.1473 1.3239 0 3.4441 0.35304 6.3719 1.073 2.6184 0.80924 4.3696 1.2654 5.2658 1.3399 1.8096 0 3.3699-0.61795 4.6792-1.869 1.3093-1.2511 1.9567-2.8106 1.9567-4.6788 0-2.354-0.97123-4.2961-2.9276-5.8118-1.8386-1.3529-4.09-2.3687-6.7684-3.016-0.33839-0.0881-0.86733-0.23526-1.5439-0.44075-0.75079-0.1619-1.4708-0.25112-2.1636-0.25112-1.0003-0.11736-2.295-0.17637-3.8842-0.17637zm-161.31 1.0012c-0.89737 0-1.7499 0.16186-2.5738 0.50003-0.80995 0.32379-1.5304 0.77938-2.1341 1.3539-1.4566 1.3819-2.192 3.0603-2.192 5.046 0 0.48568 0.39739 1.9712 1.2066 4.4734l18.141 46.079c1.0148 2.4421 2.0892 4.1496 3.2366 5.1207 1.1476 0.98574 2.6634 1.471 4.5319 1.471 0.9419 0 1.7945-0.1474 2.5458-0.42712 0.73452-0.29292 1.382-0.69109 1.9276-1.2055 1.2348-1.0748 2.2202-2.6478 2.942-4.7518l18.435-45.905c0.83846-2.575 1.2497-4.2078 1.2497-4.8696 0-1.8393-0.66218-3.4579-2.0148-4.8699-1.3548-1.2365-3.0312-1.8539-5.0463-1.8539-3.6493 0-6.239 2.1338-7.7537 6.3855l-12.285 32.279-12.285-32.53c-1.4712-4.1935-3.9423-6.2964-7.4146-6.2964zm-135.02 0.55894c-4.944 0-7.415 2.2215-7.415 6.6793 0 4.3697 2.471 6.5482 7.415 6.5482h7.8421v42.622c0 2.4277 0.67658 4.2952 2.0299 5.6351 1.3536 1.3385 3.0893 2.0005 5.2083 2.0005 2.1631 0 3.899-0.64725 5.2083-1.9419 1.3093-1.2947 1.9567-3.1933 1.9567-5.6936v-42.622h8.0631c4.9431 0 7.415-2.1785 7.415-6.5482 0-4.4579-2.4719-6.6793-7.415-6.6793z" fill="#fff"/>
 </g>
</svg>
