<svg width="800" height="181.22" version="1.1" viewBox="0 0 800 181.22" xml:space="preserve" xmlns="http://www.w3.org/2000/svg">
<g fill="#be1e2d" stroke-width="5.8737"><path d="m72.822 90.718v18.796h-32.305v36.417c0 4.1116 1.1747 7.6358 3.5242 10.573s5.8737 3.5242 9.9853 3.5242c5.8737 0 11.747-1.7621 18.796-5.2863v19.971c-8.8106 3.5242-17.621 5.2863-25.844 5.2863-11.16 0-19.383-2.9368-25.257-8.2232-5.8737-5.8737-8.8106-14.097-8.8106-24.67v-38.179h-12.922v-5.2863l37.004-41.703h3.5242v27.606h32.305z"/><path d="m150.94 133.01-22.32 48.164h-12.922l-39.941-90.455h28.194l18.796 48.752 19.971-48.752h17.034l19.383 48.752 18.796-48.752h28.781l-39.941 90.455h-13.51z"/><path d="m320.1 151.8v17.621c-10.573 7.6358-24.082 11.747-39.354 11.747-15.859 0-28.194-4.1116-37.592-12.335s-14.097-19.383-14.097-33.48c0-13.51 4.1116-24.67 12.922-33.48s19.971-12.922 33.48-12.922 24.67 4.699 33.48 13.51c8.8106 9.3979 12.922 21.733 12.335 37.004h-63.436c0.58737 8.2232 3.5242 14.097 8.8106 18.796 5.2863 4.1116 11.747 6.4611 20.558 6.4611 10.573 0 21.145-4.699 32.893-12.922zm-61.674-27.019h38.766c-1.7621-12.922-7.6358-19.383-19.383-19.383s-18.208 6.4611-19.383 19.383z"/><path d="m367.68 90.718v12.335c8.2232-9.3979 17.621-14.684 28.781-14.684 9.3979 0 17.034 2.9368 22.907 8.8106s9.3979 14.097 9.3979 25.257v56.388h-27.606v-54.038c0-11.747-4.699-17.621-13.51-17.621-6.4611 0-12.922 4.699-19.383 14.684v56.975h-27.606v-88.693h27.019z"/><path d="m515.11 90.718v18.796h-32.305v36.417c0 4.1116 1.1747 7.6358 3.5242 10.573s5.8737 3.5242 9.9853 3.5242c5.8737 0 11.747-1.7621 18.796-5.2863v19.971c-8.8106 3.5242-17.621 5.2863-25.844 5.2863-11.16 0-19.383-2.9368-25.257-8.2232-5.8737-5.8737-8.8106-14.097-8.8106-24.67v-38.179h-12.922v-5.2863l37.004-41.703h3.5242v27.606h32.305z"/><path d="m616.14 151.8v17.621c-10.573 7.6358-24.082 11.747-39.354 11.747-15.859 0-28.194-4.1116-37.592-12.335s-14.097-19.383-14.097-33.48c0-13.51 4.1116-24.67 12.922-33.48s19.971-12.922 33.48-12.922 24.67 4.699 33.48 13.51c8.8106 9.3979 12.922 21.733 12.335 37.004h-63.436c0.58737 8.2232 3.5242 14.097 8.8106 18.796 5.2863 4.1116 11.747 6.4611 20.558 6.4611 10.573 0 21.145-4.699 32.893-12.922zm-61.674-27.019h38.766c-1.7621-12.922-7.6358-19.383-19.383-19.383-11.16 0-17.621 6.4611-19.383 19.383z"/></g><g stroke-width="5.8737"><path d="m698.96 90.718v18.796h-32.305v36.417c0 4.1116 1.1747 7.6358 3.5242 10.573s5.8737 3.5242 9.9853 3.5242c5.8737 0 11.747-1.7621 18.796-5.2863v19.971c-8.8106 3.5242-17.621 5.2863-25.844 5.2863-11.16 0-19.383-2.9368-25.257-8.2232-5.8737-5.8737-8.8106-14.097-8.8106-24.67v-38.179h-12.922v-5.2863l37.004-41.703h3.5242v27.606h32.305z"/><path d="m743.6 181.17-41.116-90.455h29.956l18.796 48.752 19.383-48.752h29.368l-40.529 90.455z"/></g><g fill="#58595b" stroke-width="5.8737"><path d="m194.99 31.394 14.684 14.684c36.417-35.242 93.979-34.067 129.22 2.3495l14.684-14.684c-43.465-44.053-114.54-45.227-158.59-2.3495"/><path d="m221.43 59 14.684 14.684c8.8106-8.8106 23.495-13.51 38.179-12.922 14.684 0 28.781 5.8737 37.592 14.684l14.684-14.684c-28.194-27.019-76.945-28.194-105.14-1.7621"/></g>
		
	
</svg>
