<?xml version="1.0" encoding="UTF-8"?>
<!-- Generator: Adobe Illustrator 17.0.0, SVG Export Plug-In . SVG Version: 6.00 Build 0)  -->
<svg id="Layer_1" width="104.71" height="48.605" enable-background="new 70.701 -12.637 107.857 48.605" version="1.1" viewBox="70.701 -12.637 104.71 48.605" xml:space="preserve" xmlns="http://www.w3.org/2000/svg" xmlns:cc="http://creativecommons.org/ns#" xmlns:dc="http://purl.org/dc/elements/1.1/" xmlns:rdf="http://www.w3.org/1999/02/22-rdf-syntax-ns#"><metadata id="metadata34"><rdf:RDF><cc:Work rdf:about=""><dc:format>image/svg+xml</dc:format><dc:type rdf:resource="http://purl.org/dc/dcmitype/StillImage"/><dc:title/></cc:Work></rdf:RDF></metadata><defs id="defs32"><linearGradient id="SVGID_1_" x1="235.99" x2="226.12" y1="-90.817" y2="-63.043" gradientTransform="matrix(1,0,0,-1,-87.025,-60.685)" gradientUnits="userSpaceOnUse"><stop id="stop6" stop-color="#fff" offset="0"/><stop id="stop8" stop-color="#bdbdbd" offset="1"/></linearGradient><linearGradient id="SVGID_2_" x1="259.85" x2="249.99" y1="-82.341" y2="-54.568" gradientTransform="matrix(1,0,0,-1,-90.171,-60.685)" gradientUnits="userSpaceOnUse"><stop id="stop13" stop-color="#fff" offset="0"/><stop id="stop15" stop-color="#bdbdbd" offset="1"/></linearGradient><linearGradient id="SVGID_3_" x1="220.15" x2="210.29" y1="-96.442" y2="-68.669" gradientTransform="matrix(1,0,0,-1,-90.171,-60.685)" gradientUnits="userSpaceOnUse"><stop id="stop20" stop-color="#fff" offset="0"/><stop id="stop22" stop-color="#bdbdbd" offset="1"/></linearGradient></defs><path id="path2" d="m94.2 10.158v-10.514h-6.923v15.508c0 3.402-1.108 5.221-4.352 5.221-3.56 0-4.667-1.661-4.667-5.38v-15.35h-7.557v15.864c0 7.437 4.114 10.959 12.067 10.959 2.168 0 4.034-0.35 5.603-1.022z" fill="#3155a6"/><path id="path4" d="m100.23-0.356h7.239l10.445 26.348h-8.229l-1.266-3.719h-9.376l-1.227 3.719h-7.636zm6.133 16.734-1.425-4.153c-0.791-2.295-1.187-4.431-1.227-4.589h-0.079c-0.04 0.158-0.474 2.334-1.227 4.589l-1.384 4.153z" fill="#f7c314"/><polygon id="polygon11" transform="translate(-3.146)" points="143.05 25.991 135.5 25.991 135.5 5.776 128.41 5.776 128.41 -0.356 150.13 -0.356 150.13 5.776 143.05 5.776" fill="url(#SVGID_1_)"/><path id="path18" d="m148.31-0.356h8.151l4.549 13.886c0.634 1.978 1.147 4.074 1.188 4.233h0.08c0.039-0.158 0.593-2.295 1.186-4.233l4.352-13.886h7.595l-9.811 26.348h-7.121z" fill="url(#SVGID_2_)"/><rect id="rect25" x="120.82" y="-12.637" width="1.201" height="48.605" fill="url(#SVGID_3_)"/></svg>
