<svg width="104.71" height="48.605" enable-background="new 70.701 -12.637 107.857 48.605" version="1.1" viewBox="70.701 -12.637 104.71 48.605" xml:space="preserve" xmlns="http://www.w3.org/2000/svg"><g transform="translate(-3.146)"><path d="m97.346 10.158v-10.514h-6.923v15.508c0 3.402-1.108 5.221-4.352 5.221-3.56 0-4.667-1.661-4.667-5.38v-15.35h-7.557v15.864c0 7.437 4.114 10.959 12.067 10.959 2.168 0 4.034-0.35 5.603-1.022z" fill="#3155a6"/><path d="m103.38-0.356h7.239l10.445 26.348h-8.229l-1.266-3.719h-9.376l-1.227 3.719h-7.636zm6.133 16.734-1.425-4.153c-0.791-2.295-1.187-4.431-1.227-4.589h-0.079c-0.04 0.158-0.474 2.334-1.227 4.589l-1.384 4.153z" fill="#f7c314"/><linearGradient id="c" x1="235.99" x2="226.12" y1="-90.817" y2="-63.043" gradientTransform="matrix(1,0,0,-1,-87.025,-60.685)" gradientUnits="userSpaceOnUse"><stop stop-color="#BDBDBD" offset="0"/><stop stop-color="#595959" offset="1"/></linearGradient><polygon points="128.41 -0.356 150.13 -0.356 150.13 5.776 143.05 5.776 143.05 25.991 135.5 25.991 135.5 5.776 128.41 5.776" fill="url(#c)"/><linearGradient id="b" x1="259.85" x2="249.99" y1="-82.341" y2="-54.568" gradientTransform="matrix(1,0,0,-1,-87.025,-60.685)" gradientUnits="userSpaceOnUse"><stop stop-color="#BDBDBD" offset="0"/><stop stop-color="#595959" offset="1"/></linearGradient><path d="m151.46-0.356h8.151l4.549 13.886c0.634 1.978 1.147 4.074 1.188 4.233h0.08c0.039-0.158 0.593-2.295 1.186-4.233l4.352-13.886h7.595l-9.811 26.348h-7.121z" fill="url(#b)"/><linearGradient id="a" x1="220.15" x2="210.29" y1="-96.442" y2="-68.669" gradientTransform="matrix(1,0,0,-1,-87.025,-60.685)" gradientUnits="userSpaceOnUse"><stop stop-color="#BDBDBD" offset="0"/><stop stop-color="#595959" offset="1"/></linearGradient><rect x="123.97" y="-12.637" width="1.201" height="48.605" fill="url(#a)"/></g></svg>
