<svg width="800" height="193" version="1.1" viewBox="0 0 800 193" xmlns="http://www.w3.org/2000/svg">
 <link rel="stylesheet" type="text/css"/>
 <link rel="stylesheet" type="text/css"/>
 <style lang="en" type="text/css"/>
 <style lang="en" type="text/css"/>
 <style lang="en" type="text/css"/>
 <g transform="translate(-15.73 -114)" fill="#0152f4" stroke-width=".69289">
  <path class="cls-1" d="m281.78 186.88v-33.259h42.266v-39.495h50.511l11.821 18.597v21.653a70.203 70.203 0 0 1 7.1644-0.64439c0.72754 0 1.4689-0.0485 2.1965-0.0624h0.65131c0.46423 0 0.94925 0 1.3858 0.0416 0.69289 0 1.3858 0 2.1202 0.0624 0.29101 0 0.56816 0.0416 0.85918 0.0624a69.344 69.344 0 0 1 56.533 36.203 69.372 69.372 0 0 1 61.029-36.377h3.0764c0.47809 0 0.94925 0 1.4274 0.0416a68.984 68.984 0 0 1 16.283 2.4459l0.99083 0.28408c0.58203 0.17322 1.1779 0.33951 1.7461 0.53352 0.74138 0.23558 1.4828 0.48502 2.2034 0.73446l0.76218 0.28409c0.91461 0.34644 1.8292 0.69288 2.7369 1.074l0.24251 0.11086c0.8869 0.38109 1.753 0.76218 2.6053 1.171l0.45037 0.22172c0.77604 0.37416 1.5382 0.76911 2.2935 1.1779 0.47809 0.24944 0.93539 0.50581 1.3858 0.76911l0.25637 0.1455a69.552 69.552 0 0 1 29.101 32.032q0.69289-1.3858 1.3858-2.7715 0.69289-1.5036 1.3858-2.9725a62.942 62.942 0 0 1 42.128-33.598c1.5313-0.3603 3.1873-0.69289 4.8502-0.9354 0.69289-0.10393 1.3026-0.18708 1.9401-0.27022h0.36723a111.61 111.61 0 0 1 13.29-0.69289 86.237 86.237 0 0 1 16.629 1.4828c1.1294 0.22865 2.1272 0.4573 3.0764 0.69288l0.24944 0.0762a61.958 61.958 0 0 1 36.501 26.33 0.46423 0.46423 0 0 1 0.0832 0.11087c0 0.0416 0.0554 0.0831 0.0762 0.12471a1.3026 1.3026 0 0 0 0.0831 0.12472l0.0693 0.12472a1.3026 1.3026 0 0 1 0.0832 0.12472c0 0.0416 0.0554 0.0762 0.0762 0.11779a1.3026 1.3026 0 0 0 0.0831 0.12472 1.2056 1.2056 0 0 0 0.0762 0.12472 1.3026 1.3026 0 0 0 0.0831 0.12472l0.0693 0.12472c0 0.0416 0.0554 0.0831 0.0832 0.11779 0.0277 0.0346 0.0554 0.0832 0.0762 0.12472a1.3026 1.3026 0 0 0 0.0832 0.12472l0.0693 0.12472a1.3026 1.3026 0 0 1 0.0832 0.12472c0 0.0416 0.0554 0.0831 0.0762 0.12472 0.0208 0.0416 0.0485 0.0693 0.0831 0.11086l0.0693 0.12472a1.3026 1.3026 0 0 1 0.0831 0.12472c0 0.0485 0.0554 0.0901 0.0762 0.13165a1.3026 1.3026 0 0 0 0.0831 0.12472l0.0693 0.11086a1.3026 1.3026 0 0 1 0.0832 0.12472v-31.263h17.184v-23.877h50.498l11.828 18.618v5.2867h16.906l11.834 18.597v48.502h-28.741v19.345h16.906l11.834 18.611v48.301h-32.635c-18.015 0-31.734-6.9289-39.495-19.117a1.3026 1.3026 0 0 1-0.0832-0.12472c0-0.0416-0.0554-0.0831-0.0762-0.12472a0.69289 0.69289 0 0 1-0.0832-0.11779c0-0.0416-0.0554-0.0831-0.0762-0.12472a1.3026 1.3026 0 0 0-0.0831-0.12472l-0.0693-0.12472a1.3026 1.3026 0 0 1-0.0831-0.12472s-0.0554-0.0762-0.0762-0.11779a1.3026 1.3026 0 0 0-0.0831-0.12472l-0.0693-0.12472a1.3026 1.3026 0 0 1-0.0832-0.12472c0-0.0416-0.0554-0.0831-0.0762-0.12472a0.46423 0.46423 0 0 0-0.0831-0.11086l-0.0693-0.13165a1.3026 1.3026 0 0 1-0.0831-0.12472c0-0.0416-0.0554-0.0831-0.0762-0.12472a1.3026 1.3026 0 0 0-0.0831-0.12471 0.7691 0.7691 0 0 0-0.0762-0.11087 1.3026 1.3026 0 0 0-0.0831-0.12472l-0.0693-0.12472a1.3026 1.3026 0 0 1-0.0832-0.12472c0-0.0416-0.0554-0.0831-0.0762-0.12472l-0.0831-0.13164c0-0.0416-0.0485-0.0693-0.0693-0.11087a1.3026 1.3026 0 0 1-0.0831-0.12471c0-0.0416-0.0554-0.0831-0.0762-0.12472a1.3026 1.3026 0 0 0-0.0831-0.12472l-0.0693-0.12472a1.3026 1.3026 0 0 1-0.0832-0.12472c0-0.0346-0.0554-0.0762-0.0762-0.11779a1.7313e11 1.7313e11 0 0 0-0.16629-0.24944c0-0.0416-0.0554-0.0831-0.0762-0.12472a1.3026 1.3026 0 0 0-0.0831-0.12472l-0.0693-0.11779a1.3026 1.3026 0 0 1-0.0832-0.12472c0-0.0416-0.0554-0.0831-0.0762-0.12472a1.3026 1.3026 0 0 0-0.0831-0.12472l-0.0693-0.12472c0-0.0416-0.0554-0.0832-0.0831-0.11086-0.0277-0.0277-0.0554-0.0832-0.0762-0.12472a1.3026 1.3026 0 0 0-0.0831-0.12472l-0.0693-0.13165a1.3026 1.3026 0 0 1-0.0832-0.12472c0-0.0416-0.0554-0.0832-0.0762-0.12472-0.0208-0.0416-0.0485-0.0693-0.0832-0.11086l-0.0693-0.12472-0.0901-0.12472-0.0693-0.12472a1.3026 1.3026 0 0 1-0.0831-0.12472c0-0.0416-0.0554-0.0831-0.0762-0.11779a1.3026 1.3026 0 0 0-0.0831-0.12472l-0.0693-0.12472a1.3026 1.3026 0 0 1-0.0832-0.12472c0-0.0416-0.0554-0.0831-0.0762-0.12472a1.3026 1.3026 0 0 0-0.0831-0.12472l-0.0693-0.11779a1.3026 1.3026 0 0 1-0.0832-0.12472c0-0.0416-0.0554-0.0831-0.0762-0.12472a1.3026 1.3026 0 0 0-0.0832-0.12472l-0.0693-0.12472-0.0831-0.11086c0-0.0485-0.0554-0.0901-0.0762-0.13165l-0.0693-0.11779c0-0.0416-0.0554-0.0831-0.0762-0.12472a1.3026 1.3026 0 0 0-0.0832-0.12472l-0.0693-0.12472a0.46423 0.46423 0 0 1-0.0831-0.11086c0-0.0416-0.0554-0.0831-0.0762-0.12472a1.3026 1.3026 0 0 1-0.0831-0.12472 1.3026 1.3026 0 0 0-0.0831-0.12472l-0.0693-0.13165-0.0831-0.11086c0-0.0416-0.0554-0.0831-0.0762-0.12472a1.3026 1.3026 0 0 0-0.0831-0.12472l-0.0693-0.12472a1.3026 1.3026 0 0 1-0.0832-0.12472c0-0.0416-0.0554-0.0831-0.0762-0.11779a1.3026 1.3026 0 0 1-0.0832-0.12472c0-0.0416-0.0554-0.0831-0.0762-0.12472a1.3026 1.3026 0 0 0-0.0831-0.12472l-0.0693-0.12472a1.3026 1.3026 0 0 1-0.0831-0.12472c0-0.0346-0.0554-0.0762-0.0762-0.11779a1.3026 1.3026 0 0 0-0.0831-0.12472l-0.0693-0.12472a1.3026 1.3026 0 0 1-0.0832-0.12472c0-0.0416-0.0554-0.0831-0.0762-0.12472a0.46423 0.46423 0 0 0-0.0832-0.11086l-0.0693-0.12472a1.3026 1.3026 0 0 1-0.0831-0.12472c0-0.0485-0.0554-0.0901-0.0762-0.13164a1.3026 1.3026 0 0 0-0.0831-0.12472 1.2056 1.2056 0 0 0-0.0762-0.12472s-0.0485-0.0693-0.0831-0.11087l-0.0693-0.12472a1.3026 1.3026 0 0 1-0.0832-0.12472c0-0.0416-0.0554-0.0831-0.0762-0.12471a1.3026 1.3026 0 0 0-0.0831-0.12472l-0.0693-0.1178a1.3026 1.3026 0 0 1-0.0832-0.12471c0-0.0416-0.0554-0.0831-0.0762-0.12472a1.3026 1.3026 0 0 0-0.0831-0.12472l-0.0693-0.12472a1.3026 1.3026 0 0 1-0.0832-0.12472 0.42959 0.42959 0 0 1-0.0762-0.11779 1.3026 1.3026 0 0 1-0.0832-0.12472 1.3026 1.3026 0 0 0-0.0831-0.12472l-0.0693-0.12472-0.0901-0.12472-0.0693-0.11779a1.3026 1.3026 0 0 1-0.0832-0.12472c0-0.0416-0.0554-0.0831-0.0762-0.12472a1.3026 1.3026 0 0 0-0.0832-0.12472l-0.0693-0.12472a1.3026 1.3026 0 0 1-0.0831-0.12472 0.7691 0.7691 0 0 1-0.0762-0.11086 1.3026 1.3026 0 0 0-0.0831-0.12472l-0.0693-0.12472a1.3026 1.3026 0 0 1-0.0831-0.12472c0-0.0485-0.0554-0.0901-0.0762-0.13165l-0.0832-0.11086-0.0693-0.12472a1.3026 1.3026 0 0 1-0.0831-0.12472c0-0.0416-0.0554-0.0831-0.0762-0.12472a1.3026 1.3026 0 0 1-0.0832-0.12472c0-0.0416-0.0554-0.0831-0.0762-0.11779a1.3026 1.3026 0 0 0-0.0831-0.12472l-0.0693-0.12472a1.3026 1.3026 0 0 1-0.0832-0.12472c0-0.0416-0.0554-0.0831-0.0762-0.12472a1.3026 1.3026 0 0 0-0.0832-0.12472l-0.0693-0.11779a1.3026 1.3026 0 0 1-0.0832-0.12472c0-0.0416-0.0554-0.0831-0.0762-0.12472a1.3026 1.3026 0 0 0-0.0832-0.12472l-0.0693-0.12472c0-0.0416-0.0554-0.0831-0.0831-0.11086-0.0277-0.0277-0.0554-0.0831-0.0762-0.12472l-0.0832-0.13165c0-0.0416-0.0554-0.0831-0.0762-0.12472a1.3026 1.3026 0 0 0-0.0831-0.12472l-0.0693-0.12472a0.33259 0.33259 0 0 1-0.0832-0.11086 1.3026 1.3026 0 0 1-0.0831-0.12472c0-0.0416-0.0554-0.0831-0.0762-0.12472a1.3026 1.3026 0 0 0-0.0832-0.12472l-0.0693-0.12472a1.2264 1.2264 0 0 1-0.0831-0.11779c0-0.0416-0.0554-0.0831-0.0762-0.12472a41.92 41.92 0 0 1-4.3236-9.0075v46.597h-79.315c-23.018 0-42.848-10.289-55.867-26.981-1.3858 1.7184-2.8131 3.3813-4.3583 4.968l-2.4944 2.3766c-1.1225 1.0601-2.2796 2.0787-3.4644 3.0764-0.12472 0.11086-0.25637 0.22866-0.39495 0.33952-0.13857 0.11086-0.26329 0.20786-0.39494 0.31872-0.40881 0.31873-0.81761 0.64439-1.2333 0.95619-0.19401 0.16629-0.40187 0.3118-0.60281 0.47116-0.61667 0.45731-1.2403 0.91461-1.8777 1.3511-0.46424 0.33259-0.94926 0.64438-1.3858 0.97004-0.80375 0.53352-1.6075 1.0463-2.432 1.5451a73.508 73.508 0 0 1-38.233 10.608h-1.9401a87.609 87.609 0 0 1-12.112-1.0878 73.959 73.959 0 0 1-11.488-2.9448c-15.652-5.3352-27.23-16.345-38.289-28.27-1.3442-1.4481-2.6815-2.8963-4.0326-4.3444-0.42959-0.45731-0.85225-0.92847-1.268-1.3858-10.206 23.17-32.24 38.019-58.119 38.019h-72.351v-0.1178h-0.0831v-0.12471h-0.0762v-0.12472h-0.0831v-0.12472h-0.0831v-0.1663h-0.0693v-0.11779h-0.0831v-0.12472h-0.0693v-0.12472h-0.0831v-0.12472h-0.0693v-0.12472h-0.0831v-0.0762h-0.0762v-0.11087h-0.0831v-0.12471h-0.0762v-0.13164h-0.0831v-0.12472h-0.0693v-0.12472h-0.0693v-0.11086h-0.0762v-0.12472h-0.0831v-0.12472h-0.0693v-0.12472h-0.0831v-0.12472h-0.0762v-0.15937h-0.0831v-0.11779h-0.0693v-0.12472h-0.0831v-0.12472h-0.0693v-0.12472h-0.0831v-0.12472h-0.0762v-0.0762h-0.0831v-0.12472h-0.0693v-0.12472h-0.0831v-0.12472h-0.0762v-0.12472h-0.0831v-0.12472h-0.0693v-0.11779h-0.0831v-0.12472h-0.0762v-0.12472h-0.0831v-0.12472h-0.0693v-0.12472h-0.0831v-0.14551h-0.0762v-0.12472h-0.0831v-0.12472h-0.0832v-0.12472h-0.12472v-0.13164h-0.0831v-0.11087h-0.0693v-0.12472h-0.0831v-0.12471h-0.0762v-0.12472h-0.0831v-0.12472h-0.0693v-0.12472h-0.0832v-0.11779h-0.0762v-0.12472h-0.0693v-0.12472h-0.0693v-0.12472h-0.0831v-0.12472h-0.0762v-0.11779h-0.0831v-0.10394h-0.0693v-0.12472h-0.0901v-0.12472h-0.0693v-0.12472h-0.0831v-0.12471h-0.0693v-0.11087h-0.0832v-0.13165h-0.0693v-0.12471h-0.0831v-0.12472h-0.0762v-0.12472h-0.0832v-0.11087h-0.0693v-0.15936h-0.0831v-0.12472h-0.0762v-0.12472h-0.0693v-0.12472h-0.0693v-0.12472h-0.0832v-0.11779h-0.0762v-0.0762h-0.0831v-0.12472h-0.0762v-0.12472h-0.0831v-0.12472h-0.0693v-0.11779h-0.0832v-0.12472h-0.0693v-0.12472h-0.0831v-0.12471h-0.0831v-0.12472h-0.0693v-0.1178h-0.0831v-0.12471h-0.0762v-0.15244h-0.0831v-0.12472h-0.0693v-0.12472h-0.0831v-0.12472h-0.0624v-0.11086h-0.0831v-0.12472h-0.0762v-0.12472h-0.0831v-0.13165h-0.0693v-0.12472h-0.0831v-0.11086h-0.0762v-0.12472h-0.0831v-0.12472h-0.0693v-0.12472h-0.0831v-0.12472h-0.0762v-0.12472h-0.0831v-0.11779h-0.0693v-0.12472h-0.0831v-0.11086h-0.0762v-0.12472h-0.0831v-0.12472h-0.0762v-0.11779h-0.13165v-0.12472h-0.0693v-0.12472h-0.0831v-0.12472h-0.0762v-0.12472h-0.0831v-0.12472h-0.0693v-0.11086h-0.0831v-0.13165h-0.0762v-0.15243h-0.0831v-0.12472h-0.0693v-0.12472h-0.0831v-0.11086h-0.0762v-0.12472h-0.0831v-0.12472h-0.0832v-0.0831h-0.0693v-0.12472h-0.0901v-0.11779h-0.0693v-0.12472h-0.0831v-0.12472h-0.0554v-0.12472h-0.0832c-10.694 9.5895-25.639 15.167-43.114 15.167-23.648 0-42.619-10.102-52.853-26.544 0-0.0416-0.0554-0.0831-0.0762-0.12472l-0.0831-0.13165a0.77603 0.77603 0 0 1-0.0693-0.11086 1.3026 1.3026 0 0 1-0.0831-0.12472c0-0.0416-0.0554-0.0831-0.0762-0.12472a1.3026 1.3026 0 0 0-0.0831-0.12472l-0.0693-0.12472a0.69289 0.69289 0 0 1-0.0831-0.11779 1.2056 1.2056 0 0 1-0.0762-0.12472 1.3026 1.3026 0 0 1-0.0831-0.12472c0-0.0416-0.0554-0.0831-0.0762-0.12472a1.3026 1.3026 0 0 0-0.0831-0.12472l-0.0693-0.11779a0.65131 0.65131 0 0 1-0.0831-0.12472c0-0.0416-0.0554-0.0831-0.0762-0.12472a1.3026 1.3026 0 0 1-0.0831-0.12471 0.65131 0.65131 0 0 0-0.0832-0.12472 0.77603 0.77603 0 0 0-0.0693-0.11087 1.3026 1.3026 0 0 0-0.0831-0.12472c0-0.0416-0.0554-0.0831-0.0762-0.12472a1.3026 1.3026 0 0 0-0.0831-0.12471c0-0.0485-0.0485-0.0901-0.0693-0.13165a1.3026 1.3026 0 0 1-0.0831-0.12472c0-0.0416-0.0554-0.0693-0.0762-0.11086a1.3026 1.3026 0 0 1-0.0831-0.12472c0-0.0416-0.0554-0.0831-0.0762-0.12472a1.3026 1.3026 0 0 0-0.0832-0.12472l-0.0693-0.12472c0-0.0416-0.0554-0.0831-0.0831-0.11779-0.0277-0.0346-0.0554-0.0832-0.0762-0.12472a1.3026 1.3026 0 0 0-0.0831-0.12472l-0.0693-0.12472a1.3026 1.3026 0 0 1-0.0831-0.12472c0-0.0416-0.0554-0.0831-0.0762-0.12472a1.2264 1.2264 0 0 0-0.0831-0.11779l-0.0693-0.12472a1.3026 1.3026 0 0 1-0.0831-0.12472c0-0.0416-0.0554-0.0831-0.0762-0.12472a1.3026 1.3026 0 0 0-0.0831-0.12472c0-0.0416-0.0554-0.0693-0.0762-0.11086l-0.0831-0.13165-0.0693-0.12472a1.3026 1.3026 0 0 1-0.0832-0.12472c0-0.0416-0.0554-0.0831-0.0762-0.12472a1.3026 1.3026 0 0 0-0.0831-0.12472 0.77603 0.77603 0 0 1-0.0693-0.11086 1.3026 1.3026 0 0 1-0.0832-0.12472c0-0.0416-0.0554-0.0831-0.0762-0.12472a1.3026 1.3026 0 0 0-0.0831-0.12472l-0.0693-0.12472a0.94233 0.94233 0 0 1-0.0831-0.11779c0-0.0416-0.0554-0.0831-0.0762-0.12472a1.3026 1.3026 0 0 1-0.0832-0.12472 0.65131 0.65131 0 0 0-0.0831-0.12472c0-0.0416-0.0554-0.0832-0.0762-0.12472a1.3026 1.3026 0 0 0-0.0831-0.12472l-0.0693-0.11779a1.3026 1.3026 0 0 1-0.0831-0.12472c0-0.0416-0.0554-0.0831-0.0762-0.12472a1.3026 1.3026 0 0 0-0.0831-0.12472l-0.0693-0.12472a1.2264 1.2264 0 0 1-0.0831-0.11779c0-0.0416-0.0554-0.0831-0.0762-0.12472a1.3026 1.3026 0 0 0-0.0831-0.12472l-0.0693-0.12472a1.3026 1.3026 0 0 1-0.0831-0.12472 0.7691 0.7691 0 0 0-0.0762-0.11086 1.3026 1.3026 0 0 0-0.0832-0.12472l-0.0693-0.12472c-0.0346-0.0416-0.0554-0.0831-0.0901-0.13165l-0.0693-0.12472a1.3026 1.3026 0 0 1-0.0832-0.12472c0-0.0416-0.0554-0.0693-0.0762-0.11086a1.3026 1.3026 0 0 0-0.0831-0.12472l-0.0693-0.12472a1.3026 1.3026 0 0 1-0.0831-0.12472c0-0.0416-0.0554-0.0831-0.0762-0.12472a0.69289 0.69289 0 0 0-0.0832-0.11779l-0.0693-0.12472a1.3026 1.3026 0 0 1-0.0831-0.12472c0-0.0416-0.0554-0.0831-0.0762-0.12472a1.3026 1.3026 0 0 0-0.0832-0.12472l-0.0693-0.12471a1.2264 1.2264 0 0 1-0.0831-0.1178c0-0.0416-0.0554-0.0831-0.0762-0.12471a1.3026 1.3026 0 0 1-0.0831-0.12472c0-0.0416-0.0554-0.0832-0.0762-0.12472a1.3026 1.3026 0 0 0-0.0832-0.12472c0-0.0416-0.0485-0.0693-0.0693-0.11087a0.69289 0.69289 0 0 1-0.0831-0.13164c0-0.0416-0.0554-0.0831-0.0762-0.12472a1.3026 1.3026 0 0 1-0.0831-0.12472 0.65131 0.65131 0 0 0-0.0832-0.12472l-0.0693-0.12472a0.46423 0.46423 0 0 1-0.0831-0.11086c0-0.0416-0.0554-0.0831-0.0762-0.12472a1.3026 1.3026 0 0 0-0.0831-0.12472l-0.0693-0.12472a0.84532 0.84532 0 0 1-0.0831-0.13165c0-0.0416-0.0554-0.0693-0.0762-0.11086a1.3026 1.3026 0 0 1-0.0831-0.12472c0-0.0416-0.0554-0.0831-0.0762-0.12472a1.3026 1.3026 0 0 0-0.0832-0.12472l-0.0693-0.12472a1.3026 1.3026 0 0 1-0.0831-0.12472c0-0.0346-0.0554-0.0762-0.0762-0.11779a1.3026 1.3026 0 0 0-0.0832-0.12472l-0.0693-0.12472a1.3026 1.3026 0 0 1-0.0831-0.12472c0-0.0416-0.0554-0.0832-0.0762-0.12472a1.2264 1.2264 0 0 0-0.0831-0.11779l-0.0693-0.12472a1.3026 1.3026 0 0 1-0.0831-0.12472c0-0.0416-0.0554-0.0831-0.0762-0.12472a1.3026 1.3026 0 0 0-0.0831-0.12472 0.7691 0.7691 0 0 0-0.0762-0.11086 1.3026 1.3026 0 0 0-0.0831-0.12472l-0.0693-0.12472a1.3858 1.3858 0 0 1-0.0831-0.13165c0-0.0416-0.0554-0.0832-0.0762-0.12472a1.3026 1.3026 0 0 0-0.0831-0.12472c0-0.0416-0.0485-0.0693-0.0693-0.11086a1.3026 1.3026 0 0 1-0.0831-0.12472c0-0.0416-0.0554-0.0831-0.0762-0.12472a1.3026 1.3026 0 0 0-0.0831-0.12472l-0.0693-0.12472a0.60974 0.60974 0 0 1-0.0831-0.11779c0-0.0416-0.0554-0.0832-0.0762-0.12472a1.3026 1.3026 0 0 1-0.0831-0.12472 0.65131 0.65131 0 0 0-0.0831-0.12472c0-0.0416-0.0554-0.0831-0.0762-0.12472a1.3026 1.3026 0 0 0-0.0832-0.12472l-0.0693-0.11779a1.3026 1.3026 0 0 1-0.0831-0.12472c0-0.0416-0.0554-0.0831-0.0762-0.12472a1.3026 1.3026 0 0 0-0.0831-0.12472l-0.0693-0.12472a0.69289 0.69289 0 0 1-0.0831-0.11779c0-0.0416-0.0554-0.0831-0.0762-0.12472a1.3026 1.3026 0 0 0-0.0831-0.12472l-0.0693-0.12472a1.3026 1.3026 0 0 1-0.0832-0.12472c0-0.0416-0.0554-0.0831-0.0762-0.12472-0.0208-0.0416-0.0485-0.0693-0.0831-0.11086l-0.0693-0.12472-0.0901-0.12472-0.0693-0.12472a1.3858 1.3858 0 0 1-0.0831-0.13164c0-0.0416-0.0554-0.0693-0.0762-0.11087a1.3026 1.3026 0 0 0-0.0831-0.12472c-5.3976-8.6195-8.3908-18.985-8.3908-30.549v-77.783h50.505z"/>
  <path class="cls-1" d="m186.82 132.39-1.1433-1.5244a42.647 42.647 0 0 0-5.5431-6.0974 41.656 41.656 0 0 0-59.588 3.7832l-0.0901-0.13165-0.0901-0.12472-0.097-0.13164-0.097-0.12472-0.097-0.13165-0.097-0.12472-0.12472-0.24251-0.388-0.5266-0.10393-0.13857-0.10394-0.13165-0.097-0.13858-0.097-0.13165-0.097-0.13858-0.10393-0.13164-0.10393-0.13858-0.10394-0.13165-0.097-0.13858-0.097-0.13165-0.10394-0.13857-0.20786-0.27716-0.10394-0.1455-0.10393-0.13858-0.10393-0.14551-0.10394-0.13857-7.6633-10.303h-94.337v83.666a86.611 86.611 0 0 0 0.50581 9.1392v0.0693c0 54.856 47.165 99.478 105.14 99.478a108.09 108.09 0 0 0 29.85-4.0742 92.577 92.577 0 0 0 27.265-12.576 85.918 85.918 0 0 0 30.487-37.852 84.678 84.678 0 0 0 6.0142-24.542c0.23558-2.5914 0.3603-5.2313 0.3603-7.8435v-49.832l-19.539-25.602-8.9244-11.945z"/>
 </g>
 <g transform="translate(-15.73 -114)" fill="#fff" stroke-width=".69289">
  <path class="cls-2" d="m292.21 228.39c0 12.576-8.2038 20.697-20.897 20.697-12.811 0-21.098-8.1206-21.098-20.697v-64.314h-29.649v67.314c0 27.847 20.392 46.555 50.747 46.555 30.231 0 50.581-18.708 50.581-46.555v-67.314h-29.683z"/>
  <path class="cls-2" d="m396.41 164.09c-12.354 0-23.558 4.088-32.275 11.647v-51.177h-29.656v153.34h61.93c25.838 0 46.292-17.391 52.084-42.301 0.1455-0.69289 0.29101-1.3373 0.43651-2.0163a64.535 64.535 0 0 0 1.2195-12.604c0-14.426-4.573-27.272-12.333-37.097-9.7073-12.257-24.403-19.796-41.407-19.796zm24.064 59.013a28.304 28.304 0 0 1-2.8755 12.534c-4.2543 8.8066-12.888 14.842-22.865 14.842h-30.556v-29.448c0-16.22 12.624-29.434 28.318-29.434 15.424 0 27.951 13.116 27.951 29.24z"/>
  <path class="cls-2" d="m520.08 164.09c-14.592 0-27.612 4.8502-37.534 13.165-12.236 10.192-19.775 25.588-19.775 43.395a58.099 58.099 0 0 0 1.4412 12.964c0.14551 0.69288 0.3118 1.3858 0.48502 2.0163 6.5339 24.909 29.309 42.273 57.988 42.273 16.927 0 32.496-6.0073 43.811-16.761l-2.5845-2.5775-15.444-15.417-2.5775-2.5775c-6.0558 6.6656-13.477 9.9221-22.602 9.9221-12.132 0-21.868-5.5431-26.732-14.862-0.33951-0.69289-0.65824-1.3165-0.94925-1.9955h81.615v-12.43c0-32.573-24.57-57.115-57.142-57.115zm-26.808 43.881c1.1433-4.5938 4.4068-8.4671 8.7581-11.259a33.335 33.335 0 0 1 17.856-5.1828c11.606 0 24.397 6.5894 26.974 16.442z"/>
  <path class="cls-2" d="m764.75 140.13h-29.656v23.884h-17.177v27.66h17.177v50.498c0 22.72 13.165 35.76 36.176 35.76h22.172v-27.459h-17.246c-7.303 0-11.481-4.3305-11.481-11.897v-46.901h28.727v-27.66h-28.727z"/>
  <path class="cls-2" d="m666.45 165.72h-0.0832c-0.87996-0.22172-1.7738-0.42266-2.6676-0.60281a75.767 75.767 0 0 0-14.481-1.2749 100.37 100.37 0 0 0-12.049 0.60974h-0.33951l-1.6422 0.22172c-1.3858 0.20787-2.73 0.47117-4.0672 0.78989a51.779 51.779 0 0 0-31.097 21.41c-6.43 9.3955-10.144 21.119-10.144 34.132a64.438 64.438 0 0 0 1.2126 12.597c0.1455 0.69288 0.29794 1.3858 0.43652 2.0232 5.7856 24.909 26.253 42.301 52.084 42.301h61.708v-62.027a51.89 51.89 0 0 0-38.871-50.179zm9.3886 84.747h-30.335a24.41 24.41 0 0 1-17.897-8.0028 27.023 27.023 0 0 1-4.677-6.8388 28.734 28.734 0 0 1-2.8131-12.527v-2.2657c0-16.123 12.43-29.24 27.715-29.24h0.17322c15.375 0 27.875 13.213 27.875 29.434z"/>
  <path class="cls-2" d="m24.62 198.04a76.529 76.529 0 0 0 76.522 76.536v-151.32h-76.522z"/>
  <path class="cls-2" d="m113.93 230.33v44.643a76.536 76.536 0 0 0 76.536-76.543v-1.2056h-43.423a33.106 33.106 0 0 0-33.113 33.106z"/>
  <circle class="cls-2" cx="152.2" cy="155.75" r="32.857"/>
 </g>
</svg>
