<svg width="206.95" height="24.218" version="1.1" viewBox="0 0 206.95 24.218" xmlns="http://www.w3.org/2000/svg">
 <g transform="translate(-.02)" fill-rule="evenodd">
  <path d="m60.94 4.174h27.264c2.033-0.01 4.038 0.485 4.06 2.773 0.02 2.332-1.346 2.993-3.214 2.993h-28.11zm27.264 15.866c-8.43-0.036-27.264 0-27.264 0v-5.767h28.108c1.868 0 3.235 0.66 3.214 2.993-0.02 2.288-2.026 2.782-4.06 2.773zm6.06-17.964c-1.599-1.546-3.522-1.931-5.664-1.926h-32.032v23.916h32.032c2.132 4e-3 4.055-0.382 5.652-1.926 2.24-2.165 3.215-6.588 0.417-10.032 2.798-3.444 1.822-7.867-0.417-10.032zm73.136-1.928 3.72 4.03h14.23l-0.05 19.9h4.03v-19.9h17.64v-4.03z"/>
  <path transform="translate(56)" d="m107.35 7.452-6.35-7.304h-3.86l-17.298 19.886h-30.11l-0.02-5.883 26.36 0.147 3.5-4.357h-34.154v14.13l36.05 0.147 0.117-0.138h0.248l17.22-19.765 17.267 19.755h5.5z"/>
 </g>
 <path d="m43.422 13.67h9.313v-4.33h-9.312v4.33zm-43.422-11.434 4.237-2.088-0.018 16.352c0.012 2.78 0.755 3.613 3.477 3.627l24.348 2e-3c2.683-0.013 3.664-1.05 3.7-3.802l-7e-3 -14.1 3.957-2.087-8e-3 18.043c0 3.4-3.304 5.983-6.94 6h-25.538c-3.934-0.05-7.16-2.33-7.2-6.258l-8e-3 -15.705zm102-2.236-0.017 3.86 37.53 0.14 3.47-4z" fill="#1fecfc" fill-rule="evenodd"/>
</svg>
