<svg width="800" height="255.15" version="1.1" viewBox="0 0 211.67 67.511" xmlns="http://www.w3.org/2000/svg">
 <defs>
  <linearGradient id="linearGradient840" x1="4.6859" x2="99.178" y1="32.157" y2="-39.376" gradientTransform="matrix(1.9361 0 0 1.9361 .012004 -.00029961)" gradientUnits="userSpaceOnUse">
   <stop stop-color="#c0c02c" offset="0"/>
   <stop stop-color="#ad4877" offset=".16747"/>
   <stop stop-color="#9e2a97" offset=".29673"/>
   <stop stop-color="#9c2995" offset=".49762"/>
   <stop stop-color="#b6386a" offset=".59425"/>
   <stop stop-color="#bb3f50" offset=".67433"/>
   <stop stop-color="#bf5e2b" offset=".69374"/>
   <stop stop-color="#bb5927" offset=".83365"/>
   <stop stop-color="#bf562b" offset="1"/>
  </linearGradient>
 </defs>
 <path d="m208.38 3.2812v60.073h-8.5057v-48.716l-5.0943 3.3568-8.8418 5.8269-3.817-8.1152 17.647-12.426zm-61.52 0c8.8902 0 14.635 1.2683 18.08 3.9926 3.5868 2.8333 5.2548 7.7671 5.2548 15.525v21.038c0 7.3403-1.2138 11.878-3.9349 14.711-3.1057 3.2358-8.8749 4.8068-17.629 4.8068h-23.316v-60.073zm-12.967 54.548h13.806c5.4182 0 8.6722-0.87479 10.888-2.921 2.6546-2.4519 3.0118-6.0327 3.0118-9.211v-22.151c0-4.1802-0.14231-7.5885-1.9251-10.261-2.6213-3.9289-7.6642-4.3829-11.23-4.3829h-14.551v45.64zm-24.387-54.54v60.073h-8.5963v-28.201h-27.613v28.201h-8.5996v-60.073h8.5996v26.345h27.613v-26.345zm-59.802 0v41.208c0 6.9982-1.6951 11.935-5.1791 15.098-3.3719 3.0542-8.7266 4.604-15.922 4.604h-4.1893c-14.593 0-21.098-6.078-21.098-19.702v-41.208h8.5965v41.299c0 3.9047 0 14.272 13.246 14.272h2.7001c13.249 0 13.249-10.367 13.249-14.272v-41.299zm161.97-3.2873h-12.94l-20.755 14.614 6.6077 14.045 12.008-7.9125v45.901h15.08zm-64.807 0h-24.861v66.646h26.621c20.199 0 24.852-7.9094 24.852-22.805v-21.038c0-17.871-8.4693-22.805-26.621-22.805m-9.6801 54.548v-42.352h11.263c9.4954 0 9.8677 4.0015 9.8677 11.357v22.151c0 6.3293-1.6769 8.8447-10.612 8.8447zm-24.405-54.521h-15.174v26.343h-21.038v-26.343h-15.174v66.646h15.174v-28.201h21.038v28.201h15.174zm-59.806 0h-15.171v44.586c0 6.4232-1.4892 10.985-9.9616 10.985h-2.7001c-8.4693 0-9.9585-4.5616-9.9585-10.985v-44.586h-15.174v44.495c0 16.103 8.6571 22.989 24.387 22.989h4.1893c15.825 0 24.387-6.8863 24.387-22.989z" fill="url(#linearGradient840)" stroke-width="1.9361"/>
</svg>
