<svg width="599.98" height="131.79" version="1.1" viewBox="0 0 158.75 34.87" xmlns="http://www.w3.org/2000/svg" xmlns:xlink="http://www.w3.org/1999/xlink">
 <defs>
  <linearGradient id="linearGradient840" x1="4.6859" x2="99.178" y1="32.157" y2="-39.376" gradientUnits="userSpaceOnUse">
   <stop stop-color="#c0c02c" offset="0"/>
   <stop stop-color="#ad4877" offset=".16747"/>
   <stop stop-color="#9e2a97" offset=".29673"/>
   <stop stop-color="#9c2995" offset=".49762"/>
   <stop stop-color="#b6386a" offset=".59425"/>
   <stop stop-color="#bb3f50" offset=".67433"/>
   <stop stop-color="#bf5e2b" offset=".69374"/>
   <stop stop-color="#bb5927" offset=".83365"/>
   <stop stop-color="#bf562b" offset="1"/>
  </linearGradient>
 </defs>
 <path d="m107.62 1.6949v31.028h-4.3932v-25.162l-2.6312 1.7338-4.5668 3.0096-1.9715-4.1915 9.1147-6.4178zm-31.775 0c4.5918 0 7.5591 0.65507 9.3383 2.0622 1.8526 1.4634 2.7141 4.0117 2.7141 8.0188v10.866c0 3.7913-0.62693 6.1349-2.0324 7.5982-1.6041 1.6713-4.5839 2.4827-9.1054 2.4827h-12.043v-31.028zm-6.6977 28.174h7.1308c2.7985 0 4.4792-0.45183 5.6236-1.5087 1.3711-1.2664 1.5556-3.1159 1.5556-4.7575v-11.441c0-2.1591-0.0735-3.9195-0.99433-5.3-1.3539-2.0293-3.9586-2.2638-5.8003-2.2638h-7.5154v23.573zm-12.596-28.17v31.028h-4.44v-14.566h-14.262v14.566h-4.4417v-31.028h4.4417v13.607h14.262v-13.607zm-30.888 0v21.284c0 3.6146-0.87552 6.1646-2.675 7.7983-1.7416 1.5775-4.5073 2.378-8.2236 2.378h-2.1638c-7.5372 0-10.897-3.1393-10.897-10.176v-21.284h4.4401v21.331c0 2.0168 0 7.3715 6.8415 7.3715h1.3946c6.8431 0 6.8431-5.3547 6.8431-7.3715v-21.331zm83.66-1.6979h-6.6836l-10.72 7.5482 3.4129 7.2543 6.2021-4.0868v23.708h7.789zm-33.473 0h-12.841v34.423h13.75c10.433 0 12.836-4.0852 12.836-11.779v-10.866c0-9.2304-4.3744-11.779-13.75-11.779m-4.9998 28.174v-21.875h5.8175c4.9044 0 5.0967 2.0668 5.0967 5.866v11.441c0 3.2691-0.86613 4.5683-5.4813 4.5683zm-12.605-28.16h-7.8374v13.606h-10.866v-13.606h-7.8374v34.423h7.8374v-14.566h10.866v14.566h7.8374zm-30.89 0h-7.8359v23.029c0 3.3176-0.7692 5.6736-5.1452 5.6736h-1.3946c-4.3744 0-5.1436-2.3561-5.1436-5.6736v-23.029h-7.8374v22.982c0 8.3174 4.4714 11.874 12.596 11.874h2.1638c8.1736 0 12.596-3.5568 12.596-11.874z" fill="url(#linearGradient840)"/>
 <g transform="translate(.0015383 -9.0649)" fill="#fff">
  <path d="m132.65 23.29v12.545h26.095v-12.545zm6.299 8.4503c0 0.0485-0.0469 0.0922-0.10162 0.0922h-0.53781c-0.0532 0-0.0969-0.0438-0.0969-0.0922v-1.9121h-2.3467v1.9121c0 0.0485-0.0422 0.0922-0.0969 0.0922h-0.53782c-0.0531 0-0.10162-0.0438-0.10162-0.0922v-4.2838c0-0.0547 0.036-0.0782 0.0844-0.086l0.56752-0.0766c0.0594-6e-3 0.0844 0.0422 0.0844 0.0844v1.8526h2.3467v-1.7745c0-0.0547 0.036-0.0782 0.0844-0.086l0.56908-0.0766c0.0594-6e-3 0.0829 0.0422 0.0829 0.0844zm2.4561 0.0922h-1.7307c-0.0485 0-0.0969-0.0438-0.0969-0.0969v-4.2666c0-0.0547 0.0485-0.0985 0.0969-0.0985h1.7307c1.4149 0 2.0528 0.45965 2.0528 2.2279 0 1.776-0.63787 2.2341-2.0528 2.2341m16.805 3.4692h-12.354v-11.479h12.354z"/>
  <path d="m141.32 27.92h-1.0022v3.3504h1.0022c0.97088 0 1.393-0.23608 1.393-1.6838s-0.42213-1.6666-1.393-1.6666"/>
  <path d="m153.87 29.96h-1.4727v1.504c0 0.0922-0.0453 0.13758-0.12038 0.13758h-0.48935c-0.0766 0-0.12195-0.0453-0.12195-0.12976v-1.5118h-1.4727c-0.0922 0-0.12976-0.0532-0.12976-0.13133v-0.42837c0-0.0766 0.0453-0.12195 0.12976-0.12195h1.4727v-1.5118c0-0.061 0.0438-0.10631 0.11257-0.10631h0.48935c0.0766 0 0.12976 0.0453 0.12976 0.12976v1.4868h1.4727c0.0829 0 0.13602 0.0547 0.13602 0.13132v0.42838c0 0.0782-0.0438 0.12351-0.13602 0.12351"/>
 </g>
 <g transform="translate(.0015383 -.2551)" fill="#fff">
  <path d="m120.34 21.46c0 1.4384-0.85519 1.9074-2.1372 1.9074-1.0428 0-2.1997-0.19699-2.5968-0.33301v-7.0698l1.3461-0.29079v2.5124c0.50968-0.11413 1.0115-0.21888 1.5212-0.21888 1.4806 0 1.8667 0.80204 1.8667 1.9386zm-1.3445-1.5009c0-0.57378-0.13602-0.91773-0.77233-0.91773-0.38616 0-0.8333 0.0829-1.2711 0.19856v2.9611c0.40649 0.0938 0.80204 0.10319 1.0741 0.10319 0.75982 0 0.96932-0.22983 0.96932-0.83331z"/>
  <path d="m121.48 24.82c0.88646-0.21888 1.293-0.56283 1.5009-1.1366l0.14696-0.40648h-0.36584l-1.9605-5.214h1.4493l1.3148 4.0977 1.3336-4.0977h1.4399l-2.1591 5.7143c-0.40648 1.0631-0.82235 1.6885-2.4389 2.0543z"/>
 </g>
</svg>
