<svg width="799.99" height="550" fill="none" version="1.1" viewBox="0 0 799.99 550" xmlns="http://www.w3.org/2000/svg">
 <g fill="#fff" stroke-width="5.9193">
  <path d="m194.67 108.9v-80.798h46.519c25.185 0 34.37 15.686 34.37 29.005 0 14.206-10.37 28.413-33.778 28.413h-16.889v23.381zm29.926-41.731h6.2224c9.481 0 14.222-3.5516 14.222-10.359 0-4.7355-2.3701-10.359-14.222-10.359h-5.9264v20.718z"/>
  <path d="m331.85 108.9-5.3333-17.462h-24.296l-5.3333 17.462h-29.926l27.852-80.798h40.889l28.148 80.798zm-26.37-36.108h17.778l-8.593-26.045h-0.59252z"/>
  <path d="m22.815 108.9 8.889-17.462-31.704-63.337h31.408l16 31.964 16.296-31.964h31.407l-40.889 80.798z"/>
  <path d="m468.45 108.9v-29.892h-20.741v29.892h-30.222v-80.798h30.222v28.117h20.741v-28.117h30.222v80.798z"/>
  <path d="m572.74 108.9-5.3333-17.462h-24.296l-5.3333 17.462h-29.926l27.852-80.798h40.889l28.151 80.798zm-26.37-36.108h17.778l-8.593-26.045h-0.88849z"/>
  <path d="m152 108.9-18.667-32.26v32.26h-30.222v-80.798h30.222v31.964l18.963-31.964h33.481l-24.296 39.955 24.296 40.843z"/>
  <path d="m370.96 108.9v-55.641l30.222-25.453v81.094z"/>
 </g>
 <g fill="#ffb41d" stroke-width="5.9193">
  <path d="m380.45 19.223c4.1482 5.0314 3.5557 12.431-1.481 16.574-5.0373 4.1435-12.445 3.5516-16.593-1.4798-4.1482-5.0314-3.5551-12.431 1.4816-16.574 5.0373-4.1435 12.445-3.5516 16.592 1.4798z"/>
  <path d="m398.52 4.1284c4.1482 5.0314 3.5557 12.431-1.4816 16.574-5.0373 4.1435-12.445 3.5516-16.593-1.4798-4.1482-5.0314-3.5551-12.431 1.4816-16.574 5.0373-4.1435 12.445-3.2556 16.593 1.4798z"/>
  <path d="m710.55 86.111v22.493h-80.597v-1.4798c0-4.1435 0.59193-7.9911 1.7817-11.543 1.1839-3.5516 2.6637-6.8072 5.0373-9.7668 2.3677-2.9596 4.7354-5.6233 7.1091-7.6951 2.6637-2.3677 5.6292-4.7354 9.1868-7.1032 2.9596-2.0718 6.2212-4.1435 9.7787-6.5112 3.5516-2.0718 6.2212-3.8475 8.2929-4.7354 2.0718-1.1839 3.8535-2.3677 5.6293-3.8475 1.7758-1.4799 2.9656-2.6637 3.8535-4.1436 0.8879-1.4798 1.1839-2.9596 1.1839-5.0314 0-2.9596-1.1839-5.0314-3.2615-6.8072-2.0718-1.7758-4.7354-2.3677-7.997-2.3677-5.0373 0-8.5948 1.4798-10.667 4.4395-1.7758 2.9596-2.9656 7.1032-3.2615 12.726h-25.181v-1.4799c0-12.726 3.2556-22.197 10.069-28.709 6.819-6.5112 16.894-9.7668 29.928-9.7668 11.259 0 20.149 2.6637 26.962 7.9911 6.819 5.3274 10.075 12.431 10.075 21.605 0 3.8475-0.59193 7.1032-1.4798 10.063-0.88789 2.9597-2.6696 5.6234-4.7414 7.9911-2.3677 2.3677-4.4454 4.4395-6.2212 5.9193-1.7817 1.4798-4.7414 3.5516-8.2989 5.6233-1.7758 1.1839-5.3333 3.2556-10.371 6.2153-5.0373 2.9596-8.8849 5.3274-11.259 7.1032 8.0029-0.8879 14.816-1.1839 20.741-1.1839z"/>
  <path d="m799.99 66.577v21.901h-12.152v20.126h-27.258v-20.126h-40.891v-24.269l41.778-47.946h26.666v50.61h11.856zm-38.523 0.29596v-17.758l0.29597-8.583-22.221 26.637c4.1494-0.29596 6.8131-0.29596 8.2989-0.29596z"/>
 </g>
 <g transform="matrix(.68143 0 0 .68143 -29.301 120.63)">
  <path d="m58.9 630c-10.7 0-15.9-3.7-15.9-10v-134.8h7.4c10.8 0 15.9 3.7 15.9 10v134.8zm122.2 0c-10.8 0-16.8-3.7-16.8-10v-65.1c0-10.4-8.5-16.7-19.3-16.7h-16.8c-10.7 0-17 6.3-17 16.7v75.1h-4.5c-10.7 0-16.8-3.7-16.8-10v-98.8h6.9c6.3 0 12.1 3.5 12.1 9.8 7.4-6.7 17.7-9.8 30.7-9.8h3.1c26.9 0 42.8 13.9 42.8 43.1v65.7zm74.6 0c-26.9 0-40.6-7.5-40.6-36.6v-55.2h-18.4v-3.7c0-8.5 3.4-13.3 9.2-13.3h9.2v-28.5c0-2.3 2-4.2 4.5-4.2h12.3c2.5 0 4.5 1.9 4.5 4.2v28.5h38.1v3.7c0 8.5-3.3 13.3-9.2 13.3h-28.9v60.3c0 10.4 6.3 14.6 17.1 14.6h13.7c5.8 0 9.2 4.8 9.2 13.3v3.5h-20.7zm119.9-46.4h-65.6v12.9c0 10.4 8.5 16.7 19.3 16.7h44.6c5.6 0 9.4 3.7 9.4 12.1v4.8h-51.8c-26.9 0-42.8-13.7-42.8-42.8v-22.9c0-29.1 15.9-43.1 42.8-43.1h10.3c26.9 0 42.8 13.9 42.8 43.1v11c-0.1 3.8-4.3 8.2-9 8.2zm-12.4-28.7c0-10.4-8.5-16.7-19.3-16.7h-14.8c-10.7 0-19.3 6.3-19.3 16.7v13.9h53.3zm107.4-16.7h-25.1c-10.8 0-17.3 6.3-17.3 16.7v75.1h-4.5c-10.7 0-16.8-3.7-16.8-10v-98.8h6.9c6.3 0 12.1 3.5 12.1 9.8 5.2-5 10.5-9.8 21.7-9.8h32.1v3.7c0.1 8.6-3.3 13.3-9.1 13.3zm113.8 91.8c-10.7 0-16.8-3.7-16.8-10v-65.1c0-10.4-8.5-16.7-19.3-16.7h-16.8c-10.7 0-17 6.3-17 16.7v75.1h-4.5c-10.8 0-16.8-3.7-16.8-10v-98.8h6.9c6.3 0 12.1 3.5 12.1 9.8 7.4-6.7 17.7-9.8 30.7-9.8h3.1c26.9 0 42.8 13.9 42.8 43.1v65.7zm108.9 0c-6.3 0-12.1-5.6-12.1-11.9-4.7 6.9-16.6 11.9-28.4 11.9h-5.6c-26.9 0-42.6-13.3-42.6-34.5v-2.5c0-20.8 15.7-32.7 42.6-32.7h31.8v-8.5c0-10.4-8.5-13.7-17-13.7h-38.3c-5.8 0-9.2-4.8-9.2-13.3v-3.5h45.3c26.9 0 40.5 7.7 40.5 36.8v72h-7zm-14.3-54.5h-34.1c-10.7 0-19 6.3-19 16.7v4.4c0 10.4 8.3 16.7 19 16.7h17c10.7 0 17-6.2 17-16.7zm91.4 54.5c-26.9 0-40.6-7.5-40.6-36.6v-55.2h-18.4v-3.7c0-8.5 3.3-13.3 9.2-13.3h9.2v-28.5c0-2.3 2-4.2 4.5-4.2h12.3c2.5 0 4.5 1.9 4.5 4.2v28.5h38.1v3.7c0 8.5-3.4 13.3-9.2 13.3h-28.9v60.3c0 10.4 6.3 14.6 17 14.6h13.7c5.8 0 9.2 4.8 9.2 13.3v3.5h-20.6zm56.2-123.8h-15.2c-4.5 0-8.1-3.3-8.1-7.5v-6c0-4.2 3.6-7.5 8.1-7.5h15.2c4.5 0 8.1 3.3 8.1 7.5v6c0 4.2-3.6 7.5-8.1 7.5zm-0.9 123.8c-10.8 0-16.8-3.7-16.8-10v-98.8h6.9c10.8 0 14.4 3.7 14.4 10v98.8zm79.8 0h-10.3c-26.9 0-42.6-13.7-42.6-42.8v-22.9c0-29.1 15.7-43.1 42.6-43.1h10.3c26.9 0 42.8 13.9 42.8 43.1v22.9c0 29.1-15.9 42.8-42.8 42.8zm21.5-75.1c0-10.4-8.3-16.7-19.1-16.7h-15c-10.8 0-19.1 6.3-19.1 16.7v41.6c0 10.4 8.3 16.7 19.1 16.7h15c10.7 0 19.1-6.2 19.1-16.7zm130.4 75.1c-10.7 0-16.8-3.7-16.8-10v-65.1c0-10.4-8.5-16.7-19.3-16.7h-16.8c-10.7 0-17 6.3-17 16.7v75.1h-4.5c-10.8 0-16.8-3.7-16.8-10v-98.8h6.9c6.3 0 12.1 3.5 12.1 9.8 7.4-6.7 17.7-9.8 30.7-9.8h3.1c26.9 0 42.8 13.9 42.8 43.1v65.7zm108.9 0c-6.3 0-12.1-5.6-12.1-11.9-4.7 6.9-16.6 11.9-28.4 11.9h-5.6c-26.9 0-42.6-13.3-42.6-34.5v-2.5c0-20.8 15.7-32.7 42.6-32.7h31.8v-8.5c0-10.4-8.5-13.7-17-13.7h-38.3c-5.8 0-9.2-4.8-9.2-13.3v-3.5h45.3c26.9 0 40.5 7.7 40.5 36.8v72h-7zm-14.3-54.5h-34c-10.8 0-19.1 6.3-19.1 16.7v4.4c0 10.4 8.3 16.7 19.1 16.7h17c10.7 0 17-6.2 17-16.7zm60.5 54.5c-10.8 0-16.8-3.7-16.8-10v-138.9h4.7c10.7 0 16.6 3.7 16.6 10v139h-4.5zm-908.9-540h-260.3v122.5h130.2v122.5h-130.2v122.6h390.6v-122.6h-130.3zm390.6 122.5v-122.5h-130.1v122.5h-130.2v122.5h130.2v122.6h130.1v-122.6h130.2v-122.5zm390.6 122.5v-245h-260.4v122.5h130.2v122.5h-130.2v122.6h390.6v-122.6z" fill="#c70025"/>
 </g>
</svg>
