<svg width="800" height="520" version="1.1" viewBox="0 0 800 520" xmlns="http://www.w3.org/2000/svg">
 <defs>
  <linearGradient id="a" x1="443.16" x2="150.57" y1="121.26" y2="121.26" gradientUnits="userSpaceOnUse">
   <stop stop-color="#188f96" offset="0"/>
   <stop stop-color="#1a949b" offset=".07"/>
   <stop stop-color="#2dbec1" offset=".69"/>
   <stop stop-color="#34ced0" offset="1"/>
  </linearGradient>
  <linearGradient id="b" x1="67.91" x2="-14.54" y1="89.59" y2="111.64" gradientUnits="userSpaceOnUse">
   <stop stop-color="#188f96" offset="0"/>
   <stop stop-color="#20a1a7" offset=".18"/>
   <stop stop-color="#2bbabd" offset=".49"/>
   <stop stop-color="#32c9cb" offset=".77"/>
   <stop stop-color="#34ced0" offset="1"/>
  </linearGradient>
  <linearGradient id="c" x1="264.01" x2="40.89" y1="184.44" y2="265.13" gradientUnits="userSpaceOnUse">
   <stop stop-color="#188f96" offset="0"/>
   <stop stop-color="#34ced0" offset="1"/>
  </linearGradient>
 </defs>
 <polygon transform="scale(2)" points="51.9 47.3 65.1 0 400 92.9" fill="#72dae1"/>
 <polygon transform="scale(2)" points="51.9 47.3 400 92.9 10.8 195.2" fill="url(#a)"/>
 <polygon transform="scale(2)" points="10.8 195.2 0 54.2 65.1 0" fill="url(#b)"/>
 <polygon transform="scale(2)" points="278.5 260 10.8 195.2 400 92.9" fill="url(#c)"/>
 <path d="m205.8 229a47.8 47.8 0 0 1-9.4 17.8 44.8 44.8 0 0 1-16 11.8 55.4 55.4 0 0 1-22.8 4.4 54.2 54.2 0 0 1-23.2-4.6 44.6 44.6 0 0 1-15.8-12.2 49 49 0 0 1-9-17.8 78.2 78.2 0 0 1-2.8-21.4v-58.4h30.8v58.2a50.4 50.4 0 0 0 1.2 10.8 29.2 29.2 0 0 0 3.6 9.2 18.6 18.6 0 0 0 6.2 6.2 19.2 19.2 0 0 0 18.4 0 19 19 0 0 0 6.2-6.2 29.2 29.2 0 0 0 3.6-9 50.2 50.2 0 0 0 1.2-10.8v-58.4h31v58.2a77.6 77.6 0 0 1-3.2 22.2zm96.4 5.8h-44.8v-86.2h-31v113.4h75.8zm96.4-86.2h-96.4v27.2h32.6v86.2h31.2v-86.2h32.6zm77 113.4-21.6-34.8h-11.6v34.8h-31.2v-113.4h52a34.4 34.4 0 0 1 15.4 3.4 39.4 39.4 0 0 1 12 9 41.2 41.2 0 0 1 7.8 12.6 37.8 37.8 0 0 1 2.8 14.2 40.2 40.2 0 0 1-4.4 18.4 37.8 37.8 0 0 1-12 14l25.8 41.8zm-5.8-74a12.8 12.8 0 0 0-2.8-9 8 8 0 0 0-5.8-3.2h-18.8v24.2h19.6a6.8 6.8 0 0 0 5.4-3.2 14.2 14.2 0 0 0 2.4-8.8zm120.2 51.8h-30.2l-6.6 22.2h-33l42.2-113.2h25.2l42 113.2h-32.8zm-5-20.8-10-38-10.6 38zm-409.4 148.6-59.6-75h-9.4v96.2h12.2v-73.4l58.8 73.4h10.4v-96h-12.4zm74-75 39.4 96.2h-13l-11.4-28.2h-40.2l-11.2 28.2h-13l39.6-96.2zm12.4 58.6-17.4-44.4-17.8 44.4zm17.8-47.8h33.2v85.4h12.2v-85.4h33.2v-10.8h-78.4zm164.8 37.8a69 69 0 0 1-1.4 13.6 34.8 34.8 0 0 1-4.6 12 25.8 25.8 0 0 1-8.8 8.4 27.4 27.4 0 0 1-14 3.2 27 27 0 0 1-13.8-3.2 25.4 25.4 0 0 1-8.8-8.4 35.2 35.2 0 0 1-4.8-11.8 66.8 66.8 0 0 1-1.4-14v-48.4h-12.2v48.6a76.6 76.6 0 0 0 2.2 18 43.4 43.4 0 0 0 7 15.4 34.8 34.8 0 0 0 12.6 10.8 48.2 48.2 0 0 0 38.2 0.2 34.6 34.6 0 0 0 12.6-10.4 44.4 44.4 0 0 0 7.2-15.4 74.6 74.6 0 0 0 2.2-18.6v-48.6h-12.2zm81.6 10.8 23.4 36.8h-13.6l-22-34.6h-25.6v34.6h-12.2v-96.2h41.2a26.2 26.2 0 0 1 11.8 2.6 30 30 0 0 1 9.2 7 33.8 33.8 0 0 1 6 10 30.2 30.2 0 0 1 2.2 11.2 32.8 32.8 0 0 1-1.4 9.6 29.8 29.8 0 0 1-4 8.4 26.8 26.8 0 0 1-6.4 6.4 24.8 24.8 0 0 1-8.4 4.2zm-2-10.2a16 16 0 0 0 5.2-4.4 21.8 21.8 0 0 0 3.4-6.4 24.2 24.2 0 0 0 1.2-7.6 20.6 20.6 0 0 0-1.4-7.6 22.8 22.8 0 0 0-3.8-6.4 17.4 17.4 0 0 0-5.6-4.4 14.8 14.8 0 0 0-6.8-1.6h-28v40h29.2a14.2 14.2 0 0 0 6.8-1.6zm53.4 3h45.2v-10.2h-45v-31.2h52v-10.8h-64.2v96.2h65.4v-10.8h-53.2z" fill="#fff" stroke-width="2"/>
</svg>
