<svg width="800" height="133" enable-background="new 0 0 441.4 92.4" version="1.1" viewBox="0 0 800 133" xml:space="preserve" xmlns="http://www.w3.org/2000/svg">
<path d="m78.373 110.54c-2.0423 5.1057-5.1057 9.1903-8.6797 12.254s-7.9138 5.361-13.02 6.8927-10.211 2.2976-16.083 2.2976-10.977-0.76585-15.828-2.2976c-4.8504-1.5317-9.1903-3.8293-13.02-6.8927-3.574-3.0634-6.6374-7.4033-8.6797-12.254-2.0423-5.1057-3.0634-11.233-3.0634-18.381v-85.776c0-2.2976 1.0211-3.574 2.8081-4.5951 2.0423-1.0211 4.0846-1.5317 6.6374-1.5317 2.5529 0 4.5951 0.51057 6.6374 1.5317 2.0423 1.0211 2.8081 2.5529 2.8081 4.5951v85.776c0 7.9138 2.0423 13.785 5.8716 17.359 3.8293 3.8293 9.1903 5.6163 15.828 5.6163 6.8927 0 12.254-1.787 16.083-5.6163 3.8293-3.8293 5.8716-9.7008 5.8716-17.359v-85.776c0-2.2976 1.0211-3.574 2.8081-4.5951 2.0423-1.0211 4.0846-1.5317 6.3821-1.5317 2.2976 0 4.5951 0.51057 6.6374 1.5317 2.0423 1.0211 2.8081 2.5529 2.8081 4.5951v85.776c0.25528 7.148-0.76586 13.275-2.8081 18.381zm91.137-91.392c-0.51057 1.0211-1.5317 2.0423-2.5528 2.8081-1.0211 0.76586-2.2976 1.0211-3.3187 1.0211s-2.2976-0.25528-3.8293-1.0211c-1.2764-0.76586-2.8081-1.5317-4.5951-2.2976-1.787-0.76586-4.0846-1.5317-6.6374-2.2976-2.5528-0.76586-5.6163-1.0211-9.7008-1.0211-6.6374 0-11.998 1.2764-16.083 3.8293-4.0846 2.5529-6.3821 6.6374-6.3821 12.509 0 4.3398 1.5317 7.9138 4.3398 10.467s6.3821 4.8504 10.722 6.8927c4.3398 2.0423 8.935 3.8293 14.041 5.8716 5.1057 1.787 9.7008 4.5951 14.041 7.6586 4.3398 3.0634 7.9138 7.148 10.722 11.998s4.3398 11.488 4.3398 19.146c0 6.3821-1.0211 11.998-3.0634 16.849-2.0423 4.8504-4.8504 8.6797-8.4244 11.998-3.574 3.0634-7.9138 5.6163-13.02 7.148-5.1057 1.5317-10.467 2.2976-16.338 2.2976s-11.233-0.76586-15.828-2.0423c-4.8504-1.2764-8.935-3.0634-12.509-5.1057s-6.3821-4.3398-8.1691-6.8927c-1.787-2.2976-2.8081-4.8504-2.8081-7.148 0-1.0211 0.25528-2.2976 0.51057-3.3187 0.51057-1.0211 1.0211-2.2976 1.787-3.3187 0.76586-1.0211 1.787-1.787 2.8081-2.5528 1.0211-0.51057 2.0423-1.0211 3.0634-1.0211 1.5317 0 3.0634 0.76585 4.5951 2.2976 1.5317 1.5317 3.3187 3.0634 5.6163 4.8504s4.8504 3.3187 7.9138 4.8504 7.148 2.2976 12.254 2.2976c6.3821 0 11.743-1.5317 16.083-4.5951 4.3398-3.0634 6.3821-7.9138 6.3821-14.296 0-5.1057-1.5317-9.4456-4.3398-12.509s-6.3821-5.8716-10.722-7.9138c-4.3398-2.2976-8.935-4.3398-14.041-6.3821-5.1057-2.0423-9.7008-4.3398-14.041-7.148s-7.9138-6.3821-10.722-10.722c-2.8081-4.3398-4.3398-10.211-4.3398-17.359 0-6.6374 1.2764-11.998 3.8293-16.594 2.5529-4.3398 5.6163-7.9138 9.7008-10.722 4.0846-2.8081 8.4244-4.5951 13.275-5.6163 4.8504-1.0211 9.7008-1.5317 14.551-1.5317 2.8081 0 6.1268 0.25529 9.9561 0.51057s7.4033 1.0211 10.722 2.2976c3.3187 1.0211 6.1268 2.2976 8.4244 4.0846 2.2976 1.5317 3.3187 3.574 3.3187 6.1268 0 1.0211 0 2.0423-0.51058 3.0634 0 0.25528-0.51057 1.5317-1.0211 2.5529zm91.137-2.0423h-53.099v40.846h27.571c2.0423 0 3.574 0.76586 4.5951 2.2976 1.0212 1.5317 1.5317 3.3187 1.5317 5.361 0 1.787-0.51057 3.3187-1.5317 4.8504-1.0211 1.5317-2.5528 2.2976-4.5951 2.2976h-27.571v41.101h53.099c2.0423 0 3.574 0.76585 4.5951 2.5528 1.0212 1.787 1.5317 3.574 1.5317 6.1268 0 2.0423-0.51057 3.8293-1.5317 5.6163-1.0211 1.787-2.5528 2.5528-4.5951 2.5528h-63.566c-2.0423 0-4.0846-0.51057-5.6163-1.5317-1.787-1.0211-2.8081-2.5528-2.8081-4.5951v-117.94c0-2.0423 1.0211-3.574 2.8081-4.5951s3.574-1.5317 5.6163-1.5317h63.566c2.2976 0 3.8293 0.76586 4.5951 2.5529 1.0212 1.787 1.5317 3.574 1.5317 5.6163 0 2.2976-0.51057 4.3398-1.5317 6.1268-1.0211 1.5317-2.5528 2.2976-4.5951 2.2976zm94.966 92.413c-2.0423 5.1057-4.8504 9.1903-8.4244 12.254-3.574 3.0634-7.9138 5.361-12.764 6.8927-4.8504 1.5317-10.211 2.2976-15.828 2.2976h-31.655c-2.5529 0-4.5951-0.51057-6.1268-1.787-1.5317-1.2764-2.2976-2.5528-2.2976-4.3398v-118.45c0-1.787 0.76586-3.0634 2.2976-4.3398 1.5317-1.2764 3.574-1.787 6.1268-1.787h31.655c5.6163 0 10.977 0.76586 15.828 2.2976 4.8504 1.5317 9.1903 3.8293 12.764 6.8927 3.574 3.0634 6.3821 7.4033 8.4244 12.254 2.0423 5.1057 3.0634 11.233 3.0634 18.381v50.802c0 7.4033-1.0211 13.53-3.0634 18.636zm-15.828-69.438c0-7.9138-1.787-13.785-5.6163-17.359-3.574-3.8293-8.935-5.6163-15.828-5.6163h-21.189v97.008h21.189c6.8927 0 11.998-1.787 15.828-5.6163 3.574-3.8293 5.6163-9.7008 5.6163-17.359zm113.35 70.459c-2.0423 5.1057-4.8504 9.1903-8.4244 12.254s-7.9138 5.361-12.764 6.8927-10.211 2.2976-15.828 2.2976c-5.6163 0-10.977-0.76585-15.828-2.2976-4.8504-1.5317-9.1903-3.8293-12.764-6.8927-3.574-3.0634-6.3821-7.4033-8.4244-12.254-2.0423-5.1057-3.0634-11.233-3.0634-18.381v-52.078c0-7.4033 1.0211-13.53 3.0634-18.381 2.0423-5.1057 4.8504-9.1903 8.4244-12.254 3.574-3.0634 7.9138-5.361 12.764-6.8927 4.8504-1.5317 10.211-2.2976 15.828-2.2976 5.6163 0 10.722 0.76586 15.828 2.2976 4.8504 1.5317 9.1903 3.8293 12.764 6.8927 3.574 3.0634 6.3821 7.4033 8.4244 12.254 2.0423 5.1057 3.0634 11.233 3.0634 18.381v51.823c0 7.4033-1.0211 13.53-3.0634 18.636zm-15.828-70.459c0-7.9138-1.787-13.785-5.6163-17.359-3.8293-3.8293-8.935-5.6163-15.572-5.6163-6.8927 0-11.998 1.787-15.572 5.6163s-5.361 9.7008-5.361 17.359v51.823c0 7.9138 1.787 13.785 5.361 17.359 3.574 3.8293 8.935 5.6163 15.572 5.6163 6.6374 0 11.998-1.787 15.572-5.6163 3.8293-3.8293 5.6163-9.7008 5.6163-17.359zm133.51 89.095c-2.0423 1.0211-4.0846 1.5317-6.6374 1.5317-2.2976 0-4.5951-0.51057-6.6374-1.5317s-2.8081-2.5528-2.8081-4.5951v-85.776l-23.742 44.42c-1.0211 1.787-2.0423 2.8081-3.3187 3.3187-1.0211 0.51057-2.2976 1.0211-3.8293 1.0211-1.0211 0-2.2976-0.25528-3.3187-1.0211-1.0212-0.51057-2.0423-1.787-2.8081-3.3187l-23.997-45.441v86.797c0 2.0423-1.0211 3.574-2.8081 4.5951-2.0423 1.0211-4.0846 1.5317-6.6374 1.5317s-4.5951-0.51057-6.6374-1.5317-2.8081-2.5528-2.8081-4.5951v-114.88c0-3.3187 1.0212-5.8716 2.8081-7.4033 2.0423-1.5317 4.0846-2.2976 6.6374-2.2976 3.3187 0 6.3821 0.76586 8.4244 2.2976 2.2976 1.5317 4.3398 4.3398 6.6374 8.4244l25.018 47.228 25.273-47.228c2.2976-4.0846 4.5951-6.8927 6.6374-8.4244s4.8504-2.2976 8.4244-2.2976c2.5528 0 4.5951 0.76586 6.6374 2.2976 1.787 1.5317 2.8081 3.8293 2.8081 7.4033v114.88c-0.25529 2.0423-1.2764 3.574-3.3187 4.5951zm130.96-114.11c-1.0211 1.787-2.5528 2.8081-4.5951 2.8081h-27.571v106.71c0 2.0423-1.0211 3.574-2.8081 4.5951-2.0423 1.0211-4.0846 1.5317-6.6374 1.5317-2.2976 0-4.5951-0.51057-6.6374-1.5317-2.0423-1.0211-2.8081-2.5528-2.8081-4.5951v-106.96h-27.826c-2.0423 0-3.574-0.76586-4.5951-2.5529s-1.5317-3.8293-1.5317-6.1268c0-2.0423 0.51057-4.0846 1.5317-5.8716 1.0211-1.787 2.5528-2.8081 4.5951-2.8081h74.033c2.2976 0 3.8293 1.0211 4.5951 2.8081 1.0211 1.787 1.5317 3.574 1.5317 5.6163 0.25529 2.2976-0.25528 4.3398-1.2764 6.3821zm98.03-5.361-35.229 115.64c-0.51057 2.2976-2.0423 3.8293-4.3398 4.8504s-4.8504 1.5317-7.6586 1.5317c-2.8081 0-5.1057-0.51057-7.4033-1.5317-2.2976-1.0211-3.8293-2.8081-4.5951-4.8504l-35.74-115.64c0-0.25528-0.25528-1.0211-0.25528-1.5317 0-1.0211 0.25528-2.2976 1.0211-3.3187 0.76585-1.0211 1.787-1.787 2.8081-2.5529 1.0211-0.76586 2.5529-1.2764 3.8293-1.5317 1.2764-0.25529 2.8081-0.51057 4.0846-0.51057 1.787 0 3.0634 0.25528 4.0846 1.0211 1.0211 0.51057 2.0423 1.5317 2.2976 3.0634l29.613 101.86 29.358-101.86c0.51057-1.5317 1.2764-2.2976 2.2976-3.0634 1.0211-0.51057 2.5529-1.0211 4.0846-1.0211 1.2764 0 2.8081 0.25528 4.0846 0.51057 1.5317 0.51057 2.8081 1.0211 3.8293 1.787s2.0423 1.5317 2.8081 2.5529c0.76585 1.0211 1.0211 2.0423 1.0211 3.0634 0.25528 0.25529 0.25528 0.76586 0 1.5317z" fill="#347454" stroke-width="2.5528"/>
</svg>
