<svg width="944.5pt" height="219.47pt" version="1.1" viewBox="0 0 944.5 219.47" xmlns="http://www.w3.org/2000/svg">
 <g fill="#90a62b">
  <path d="m81.557 19.84 14.11-19.84h162.29c14.89 0.31 28.005 13.79 27.735 28.7 0.02 54.35 0.04 108.7 0 163.05-0.28 14.87-13.855 27.94-28.715 27.72h-228.99c-14.96-0.19-27.995-13.78-27.985-28.66v-131.21c-0.14-12.38 8.575-24 20.295-27.74 5.37-1.92 11.14-1.465 16.73-1.495h44.47l46.935 88.505 46.905-88.505h40.41l-64.2 120.08h-46.23l-53.85-100.27h-21.53c-4.24 0.02-8.75 2.78-9.77 7.06v133.51c-0.04 5.05 4.84 9.2 9.75 8.81h226.01c3.88 0.27 7.79-2.1 9.23-5.73 1.08-2.56 0.615-5.4 0.705-8.09v-156.17c0.36-5.34-4.565-10.02-9.835-9.73z"/>
  <path d="m530.39 62.465h10.81l15.05 18.905h-7.15z"/>
  <path d="m462.51 141.37v-73.985h8.955v73.985z"/>
  <path d="m490.32 141.37v-73.985h8.89v73.985z"/>
  <path d="m305.64 89.26 9.4826 0.02 24.985 44.41 25.015-44.46h9.72l-29.33 52.095h-10.81z"/>
  <path d="m387.87 91.57c7.27-4.19 16.04-2.94 24.07-3.16 8.98 0.16 18.64-0.95 26.89 3.34 5.5 2.67 7.49 9.21 7.29 14.91-0.15 11.59 0.23 23.18-0.24 34.76-2.98-0.03-5.96-0.05-8.93-0.06-0.1-1.57-0.2-3.15-0.25-4.72-1.6 4.43-6.82 5.14-10.9 5.44-9.6 0.28-19.21 0.03-28.81 0.13-4.68 0.04-9.98-0.62-13.23-4.37-3.59-4.11-3.1-10.01-3.12-15.1-0.05-3.7 1.07-7.92 4.43-9.96 5.03-3.17 11.22-2.72 16.91-3.2 8.99 0.09 18.04-0.49 26.98 0.8 3.24 0.4 6.12 2.43 7.88 5.15-0.64-5.28 1.49-11.36-1.73-16.05-4.47-4.38-11.41-3.25-17.11-3.65-7.55 0.39-15.41-1.03-22.71 1.32-3.21 0.89-3.17 4.56-3.5 7.23-2.89-0.01-5.77 0.01-8.66 0.05-0.58-4.64 0.18-10.44 4.74-12.86m9.59 25.79c-3.18 0.29-7.19 1.66-7.59 5.36-0.41 3.64-0.89 9 3.22 10.71 4.73 1.75 9.92 1.48 14.89 1.54 7.42 0 14.9 0.18 22.25-1.04 2.72-0.56 6.5-1.83 6.54-5.18 0.08-2.97 0.79-6.76-1.83-8.9-4.06-2.73-9.23-2.56-13.92-2.69-7.85 0.12-15.72-0.23-23.56 0.2z"/>
  <path d="m520.47 93.16c5.1983-4.1326 11.758-4.7065 18.242-4.7592l16.025-0.0259c7.074 0.0787 14.182 0.81241 19.942 5.2051 6.62 5.7 6.92 15.35 6.16 23.4h-57.54c0 3.8933-0.24999 8.09 1.71 11.61 1.71 3.08 5.07 4.78 8.42 5.4 8.1 1.43 16.35 0.93 24.53 0.94 3.49-0.33 7.28-0.17 10.42-1.96 2.74-1.55 3.7847-5.549 3.7847-7.605h8.8432v2.209c0 3.2051-1.1017 6.4191-3.368 8.726-3.39 3.57-8.4 4.69-13.07 5.44-3.0832 0.43484-6.9425 0.42809-9.8693 0.46942-5.5471 0.0731-11.106-0.14309-16.651-0.0194-7.22 0.14-15.66-1.14-20.14-7.47-2.9103-4.1435-3.6583-8.993-3.6589-13.917l-1e-3 -9.1132c-0.14-6.55 0.69-14.16 6.22-18.53m8.39 4.31c-4.63 2.07-5.1301 7.665-5.5601 12.075h48.865c0.10005-3.4716-5e-3 -7.575-3.1446-9.885-4.0842-3.1889-9.0822-3.7399-14.118-3.8138h-16.368c-3.3084 0.0614-6.5843 0.37819-9.6741 1.6238z"/>
  <path d="m602.49 90.12c8.96-2.43 18.34-1.54 27.51-1.7 7.25-0.05 15.05-0.26 21.57 3.37 4.23 2.68 4.51 8.085 4.32 12.585h-8.4738c0-2.3195-0.13618-5.375-2.4562-6.755-2.94-1.94-6.63-1.6021-9.98-1.7521h-19.337c-2.1696 0-4.3367 0.14859-6.5026 0.29214-2.53 0.31-5.85 1.1-6.52 3.97-0.48 2.51-0.6 5.21 0.15 7.69 1.36 2.57 4.41 3.44 7.11 3.5h32.13c5.3707 0 11.89 1.58 14.52 6.95 2.48 6.25 2.73 14.59-2.52 19.52-4.08 3.58-9.86 4.1298-15.05 4.3998h-29c-5.32-0.22-11.41-1.2898-14.83-5.8198-2.66-3.82-2.65-8.73-2.67-13.2h8.34c0 1.9978-0.12 7.46 3 9.66 2.8922 1.7111 6.2003 2.0775 9.5311 2.1408h20.025c3.6039-0.0634 7.1966-0.2821 10.754-0.95078 5.57-0.79 6.09-8.34 3.91-12.37-2.0994-3.153-9.7575-2.8547-15-2.8547h-20.458c-2.5706 0-5.1382-0.13782-7.7017-0.39526-4.62-0.36-9.6-2.97-10.85-7.74-1.05-4.08-0.89-8.41-0.41-12.57 0.74-4.36 4.93-6.92 8.89-7.97z"/>
 </g>
 <g fill="#750355">
  <path d="m900.46 81.47 15.44-19.065h10.77l-18.86 19.065z"/>
  <path d="m743.95 67.425h9.05v9.745h-9.05z"/>
  <path d="m849.47 77.17v-9.745h9v9.745z"/>
  <path d="m664.59 89.17h9.69l25.175 44.6 25.025-44.6h9.67l-29.37 52.285h-10.65z"/>
  <path d="m743.95 89.15h9.05v52.32h-9.05z"/>
  <path d="m778.37 90.12c8.96-2.43 18.34-1.54 27.51-1.7 7.25-0.05 15.05-0.26 21.57 3.37 4.23 2.68 4.51 8.085 4.32 12.585h-8.4738c0-2.3195-0.13618-5.375-2.4562-6.755-2.94-1.94-6.63-1.6021-9.98-1.7521h-19.337c-2.1696 0-4.3367 0.14859-6.5026 0.29214-2.53 0.31-5.85 1.1-6.52 3.97-0.48 2.51-0.6 5.21 0.15 7.69 1.36 2.57 4.41 3.44 7.11 3.5h32.13c5.3707 0 11.89 1.58 14.52 6.95 2.48 6.25 2.73 14.59-2.52 19.52-4.08 3.58-9.86 4.1298-15.05 4.3998h-29c-5.32-0.22-11.41-1.2898-14.83-5.8198-2.66-3.82-2.65-8.73-2.67-13.2h8.34c0 1.9978-0.12 7.46 3 9.66 2.8922 1.7111 6.2003 2.0775 9.5311 2.1408h20.025c3.6039-0.0634 7.1966-0.2821 10.754-0.95078 5.57-0.79 6.09-8.34 3.91-12.37-2.0994-3.153-9.7575-2.8547-15-2.8547h-20.458c-2.5706 0-5.1382-0.13782-7.7017-0.39526-4.62-0.36-9.6-2.97-10.85-7.74-1.05-4.08-0.89-8.41-0.41-12.57 0.74-4.36 4.93-6.92 8.89-7.97z"/>
  <path d="m849.47 89.15h9v52.32h-9z"/>
  <path d="m900.12 88.436h16.823c7.66 0.08 16.16 0.84384 22.14 6.1738 4.148 3.8547 5.2358 9.5211 5.4142 14.993v10.347c-0.0551 3.8245-0.38328 7.6271-1.9342 11.17-2.11 4.81-6.76 8.01-11.69 9.4-4.5811 1.3351-9.2852 1.7332-14.017 1.7252l-14.838-0.0252c-7.1062 0-14.724-0.25-21.344-5.2-4.9251-3.7195-6.6361-10.103-6.537-16.057 0.25281-4.0465-0.0589-8.4294 0.0307-11.988 0.11457-3.9493 0.69734-7.8113 2.8563-11.275 3.55-5.88 10.61-8.1 17.06-8.88 0 0 4.0204-0.38384 6.0365-0.38384zm-10.975 9.3014c-3.7436 2.1752-6.1178 6.4796-5.9541 10.922v9.3459c0 3.9351 0.16753 7.8157 2.0826 11.334 4.34 6.29 12.39 5.6147 17.119 5.6147h13.285c4.5883 0 9.1414-0.20462 13.415-1.9747 5.53-2.34 6.4648-9.03 6.3548-14.33v-8.8119c0-3.5039-0.80002-6.894-3.0448-9.7081-4.11-4.5-10.592-4.3731-16.33-4.3731h-15.952c-4.0378 0-7.7286 0.12703-10.976 1.9807z"/>
  <path d="m169.44 129.95h20.93l23.295 44.775 23.555-44.775h20.83l-32.82 60.825h-23.13z"/>
 </g>
</svg>
