<svg width="739.27pt" height="299.88pt" version="1.1" viewBox="0 0 739.27 299.88" xmlns="http://www.w3.org/2000/svg">
 <g transform="translate(-9.8016 -66.809)" fill="#01c8d8" stroke-width="1.0001">
  <path d="m215.49 160.47c0-7.5627-6.1306-13.693-13.693-13.693h-178.31c-7.5627 0-13.693 6.1306-13.693 13.693 0 7.5627 6.1307 13.693 13.693 13.693h178.31c7.5627 0 13.693-6.1306 13.693-13.693z"/>
  <path d="m242.16 221.3c0-7.5627-6.1306-13.693-13.693-13.693h-178.31c-7.5627 0-13.693 6.1306-13.693 13.693 0 7.5627 6.1306 13.693 13.693 13.693h178.31c7.5627 0 13.693-6.1306 13.693-13.693z"/>
  <path d="m198.31 84.05c1.9574-7.305-2.3776-14.814-9.6827-16.771-7.305-1.9574-14.814 2.3776-16.771 9.6827l-49.545 184.9c-1.9573 7.3049 2.3778 14.813 9.6827 16.771 7.3049 1.9573 14.813-2.3778 16.771-9.6827z"/>
  <path d="m116.16 103.35c-7.305-1.9574-14.814 2.3776-16.771 9.6827l-46.149 172.23c-1.9574 7.305 2.3776 14.814 9.6827 16.771 7.305 1.9574 14.814-2.3776 16.771-9.6827l46.149-172.23c1.9574-7.305-2.3776-14.814-9.6827-16.771z"/>
 </g>
 <path d="m559.5 184.89c-7.5627 0-13.693 6.1306-13.693 13.693 0 7.5627 6.1306 13.693 13.693 13.693h53.782c7.5626-8e-5 13.693-6.1308 13.693-13.693-8e-5 -7.5626-6.1308-13.693-13.693-13.693z" fill="#01c8d8" stroke-width="1.0001"/>
 <g transform="matrix(1.0001 0 0 1.0001 -9.882 -66.808)" fill="#fff">
  <path d="m582.64 97.79c14.14-2.33 29.53-1.7 42.33 5.34 9.72 5.24 16.56 14.94 19.24 25.55 1.6 5.95 2.105 12.13 2.035 18.28v39.04c-0.3 12.78-4.515 26.22-14.465 34.77-10.03 8.72-23.81 11.43-36.77 11.13-12.91-0.05-26.63-3.43-36.05-12.75-8.87-8.54-12.59-21.13-12.84-33.17v-30.91c0.07-7.72-0.43-15.53 1.24-23.13 1.92-9.66 6.79-18.96 14.64-25.09 5.92-4.78 13.21-7.63 20.64-9.06m5.89 27.92c-7.46 2.1-10.605 10.3-10.815 17.36v36.9c0.03 6.43 0.195 13.59 4.465 18.81 3.3 4.08 8.83 5.33 13.84 5.41 4.82-0.02 10.14-0.93 13.61-4.59 3.92-4.16 4.765-10.16 5.015-15.64v-34c0.02-5.56 0.065-11.35-2.175-16.55-1.49-3.55-4.5-6.44-8.17-7.65-5.08-1.62-10.68-1.59-15.77-0.05z"/>
  <path d="m202.19 147.01c3.94-7.63 14.06-10.65 21.73-7.06 4.27 1.76 7.74 5.47 8.9 9.98l20.855 79.42 20.855-77.23c0.89-4.02 2.98-7.86 6.36-10.3 6.73-5.2 17.48-4.28 23.03 2.25 3.98 4.73 4.78 11.6 2.83 17.37l-34.76 105.46c-1.84 5.79-6.58 11.01-12.86 11.7-5.5 0.33-11.7 1.03-16.5-2.28-3.4-2.27-5.63-5.89-6.92-9.7l-35.13-107.05c-1.13-4.22-0.36-8.72 1.61-12.56z"/>
  <path d="m665.87 155.92c7.35-8.19 18.58-11.45 29.23-12.24 17.73-1.53 35.6 3.81 50.22 13.79l-13.18 22.81c-9.82-6.13-21.38-10.49-33.12-9.39-4.42 0.37-9.58 2.36-10.94 7.02-1.46 3.8 0.44 8.1 3.76 10.22 6.1 4.04 13.37 5.63 20.19 8.04 10.63 3.5 21.7 7.9 29.02 16.75 7.19 8.53 8.95 20.35 7.6 31.13-0.96 10.19-5.95 20.25-14.54 26.09-10.21 7.05-23.03 8.74-35.17 8.67-16.37-0.03-32.22-5.85-46-14.41l10.87-23.68c12.54 5.83 26.06 11.34 40.17 10.31 6.23-0.33 13.26-4.15 13.91-10.97 1.07-6.06-3.58-11.15-8.74-13.48-12.46-5.86-26.79-7.55-38.19-15.68-7.6-5.11-12.62-13.67-13.56-22.76-1.37-11.2 0.59-23.66 8.47-32.22z"/>
  <path d="m331.76 144.97h29.4l42.49 132.38h-32.97l-7.66-25.98h-32.7l-7.69 25.98h-32.93zm14.915 40.57-10.245 38.835h20.49z"/>
  <path d="m412.24 144.97h24.86l35.63 69.15 35.36-69.15h25.11v132.38h-30.36v-63.675l-21.02 41.72h-18.18l-21.135-41.72v63.675h-30.265z"/>
 </g>
 <g transform="matrix(.13388 0 0 .13388 242.1 255.14)">
  <path d="m2623 174c30.34-0.02 60.67 0.04 91.01-0.03 2.19 0.05 4.74-0.25 6.57 1.33 2.1 1.89 2.14 5.06 2.09 7.7-0.6 13.66 0.51 27.36-0.49 40.99-0.51 2.86-3.42 4.61-6.18 4.26-30.97-0.01-61.94 0.08-92.91-0.05-0.2 30.59-0.06 61.19-0.06 91.78-0.11 1.93 0.22 4.22-1.3 5.71-1.34 1.77-3.74 1.78-5.71 1.82-13.67-0.05-27.34 0.03-41-0.03-3.64 0.52-6.69-2.92-6.04-6.44 0.06-30.93-0.03-61.85 0.04-92.77 17.95-0.15 35.94 0.46 53.87-0.32 0.27-17.98 0.06-35.97 0.11-53.95z" fill="#fff" opacity=".5"/>
 </g>
 <g fill="#fff">
  <g transform="translate(-9.8016 -66.809)">
   <path d="m287.06 365.98v-3.6793c-1.9112 2.8922-4.7212 4.3383-8.4299 4.3383-2.4031 0-4.617-0.64068-6.6418-1.922-2.0058-1.2814-3.5669-3.0661-4.6833-5.3542-1.0975-2.3064-1.6462-4.1062-1.6462-7.09 0-2.9105 0.50144-5.5464 1.5043-7.9078 1.0029-2.3797 2.5072-4.201 4.513-5.4641s4.2481-1.8946 6.7269-1.8946c1.8166 0 3.4344 0.37526 4.8536 1.1258 1.4192 0.7322 2.5734 1.6932 3.4628 2.883v-15.288h5.0807v40.253zm-16.15-13.707c0 3.7342 0.81366 5.6805 2.441 7.5293 1.6273 1.8488 3.5479 2.7732 5.7618 2.7732 2.2328 0 4.1251-0.87864 5.6767-2.6359 1.5706-1.7756 2.3558-3.6303 2.3558-7.2547 0-3.9905-0.79473-6.9193-2.3842-8.7864-1.5895-1.8671-3.548-2.8007-5.8754-2.8007-2.2707 0-4.1724 0.89695-5.7051 2.6908-1.5138 1.7939-2.2707 4.622-2.2707 8.4844z"/>
   <path d="m317.91 356.85 5.0005 0.61833q-1.1829 4.3822-4.3822 6.8018-3.1992 2.4196-8.1729 2.4196-6.2641 0-9.9472-3.8445-3.6563-3.8714-3.6563-10.834 0-7.205 3.71-11.184 3.71-3.9789 9.6246-3.9789 5.7264 0 9.3558 3.8982t3.6294 10.969q0 0.43015-0.0268 1.2904h-21.292q0.26884 4.7048 2.6616 7.205 2.3927 2.5002 5.9684 2.5002 2.6616 0 4.5435-1.398t2.9842-4.4628zm-15.889-7.8234h15.942q-0.3226-3.6025-1.8281-5.4038-2.3121-2.796-5.9952-2.796-3.3337 0-5.6188 2.2314-2.2583 2.2314-2.5002 5.9684z"/>
  </g>
  <path d="m586.04 265.85c-0.0482-0.37889 0.30659-0.70422 0.67476-0.69485 1.9145-0.0174 3.8304-1e-3 5.7462-8e-3 0.39361-0.0495 0.84747 0.25438 0.80463 0.68682 5e-3 4.1999 1e-3 8.4011 3e-3 12.602-7e-3 2.4072 0.0214 4.8158-0.0147 7.223-2.4005 0.10443-4.809 0.0228-7.2122 0.0428-4.153-7e-3 -8.3061 0-12.459-3e-3 -0.41235 0.0562-0.85684-0.26777-0.83007-0.70021-7e-3 -1.8784 4e-3 -3.7567-5e-3 -5.6351-4e-3 -0.25973-9e-3 -0.56633 0.21555-0.74707 0.28115-0.245 0.67477-0.17137 1.0215-0.18342 4.0178 5e-3 8.0356 1e-3 12.053 3e-3 4e-3 -4.1959-1e-3 -8.3904 3e-3 -12.586z" stroke-width=".13388"/>
  <g transform="matrix(.13368 0 0 .13368 242.64 255.2)">
   <path d="m1922.8 28.95c-0.32-2.49 1.85-4.51 4.3-4.38 14.64-0.18 29.29-0.02 43.93-0.07 2.71-0.26 6.1 1.14 5.87 4.36 0.38 15.3-0.06 30.63 0.22 45.93 15.32-0.12 30.65 0.02 45.97-0.06 1.91 0.05 4.18-0.09 5.7 1.36 1.32 1.28 1.13 3.27 1.26 4.96-0.05 11.34 0.03 22.68-0.04 34.02 0.21 2.76-2.29 4.84-4.92 4.66-16.02 0.08-32.03-0.01-48.05 0.04-0.01 38.75 0 77.5 0 116.24 0.42 9.55 1.39 19.48 6.04 28.01 3.97 7.16 11.16 12.12 18.99 14.22 8.41 2.49 17.27 2.42 25.96 2.54 2.81-0.22 5.11 2.38 4.97 5.11 0.11 11.03-0.03 22.07 0.06 33.11-0.09 2.02 0.2 4.24-0.86 6.07-1.07 1.81-3.33 2.28-5.25 2.41-20.93 0.25-42.65-0.4-62.06-9.12-14.86-6.42-27.11-18.6-33.47-33.5-7.96-18.5-8.94-39.03-8.63-58.89 0.01-65.67-0.01-131.35 0.01-197.02z"/>
   <path d="m685.57 80.57c18.85-8.58 39.89-11.06 60.43-10.57 19.7-0.42 39.82 0.79 58.49 7.61 9.9 3.55 19.27 9.04 26.29 16.98 10.38-12.17 25.98-18.28 41.26-21.52 13.78-2.95 27.92-3.3 41.95-3.07 22.42-0.51 45.61 2.6 65.57 13.37 15.61 8.3 28.37 22.47 33.42 39.57 5.44 17.82 4.85 36.64 4.78 55.05-0.02 48.03 0.03 96.07-0.02 144.1 0.08 3.11-2.75 5.57-5.79 5.39-13.94 0.04-27.87 0.02-41.81 0.02-2.43 0.08-5.36-0.85-6.06-3.44-0.59-2.65-0.29-5.38-0.34-8.06 0.02-44.66 0-89.31 0.01-133.97-0.49-12.03-0.05-24.18-2.03-36.1-1.62-9.41-7.66-17.87-16.16-22.25-13.36-6.92-28.93-6.88-43.58-6.36-13.32 0.75-28.02 3.95-36.84 14.83-7.32 8.86-7.25 20.93-7.79 31.8-0.74 23-0.18 46.02-0.35 69.03 0.09 29.98-0.08 59.96-0.32 89.94-0.35 2.75-3 4.64-5.69 4.56-14.01 0.05-28.04 0.03-42.05 0.01-2.41 0.09-5.16-0.89-5.89-3.39-0.66-3.3-0.18-6.7-0.3-10.04-0.13-47.67 0.3-95.35-0.28-143.02-0.9-12.39 0.56-26.03-6.61-36.93-6.78-10.21-19.22-14.56-30.86-16.09-11.89-1.32-24.02-1.4-35.85 0.58-10.35 1.88-21.17 6.43-26.84 15.79-5.35 8.15-5.46 18.21-5.99 27.59-0.96 22.99-0.42 46.02-0.56 69.03-0.03 30.3 0.06 60.61-0.04 90.91 0.17 3.18-2.67 5.71-5.76 5.56-14.2 0.02-28.41 0.06-42.61-0.02-3.04 0.17-5.94-2.37-5.59-5.52-0.02-52.63-0.01-105.27-0.01-157.9-0.08-16.6 1.07-33.76 7.82-49.15 7.03-15.55 20.61-27.4 36-34.32z"/>
   <path d="m1154.6 70.85c12.1-1.2 24.27-0.82 36.42-0.81 21.02 0.79 42.73 4.01 61.16 14.78 14.41 8.37 25.51 21.93 31.53 37.41 8.85 22.45 10.75 46.85 11.26 70.75 0.18 26.19-0.43 52.88-8.23 78.11-4.96 16.75-14.71 32.52-29.26 42.54-18.13 12.79-40.72 16.95-62.46 18.08-20.33 0.7-40.94 0.72-60.86-3.88-13.76-3.17-27.21-8.79-38.03-18.02-11.15-9.27-18.86-22.11-23.45-35.76-8.12-24.45-9.08-50.5-9.19-76.04 0.33-18.8 1.09-37.76 5.32-56.15 3.25-14.58 8.62-29.08 18.31-40.65 8.25-10.21 19.53-17.68 31.7-22.4 11.42-4.51 23.59-6.76 35.78-7.96m7.02 46.94c-8.13 0.93-16.39 2.96-23.19 7.68-6.5 4.41-10.91 11.29-13.52 18.59-3.89 10.51-4.42 21.8-5.56 32.84-1.79 19.06-1.26 38.26 0.9 57.26 1.19 12.33 3.21 25.39 11 35.46 6.13 8.05 15.93 12.27 25.7 13.84 12.26 1.87 24.74 1.85 37.09 0.95 10.73-0.93 22.06-3.56 30.05-11.26 8.37-8.11 11.71-19.85 13.31-31.07 1.61-13.61 2.95-27.3 2.8-41.02 0.18-13.43-1.15-26.84-2.64-40.17-1.53-11.09-4.52-22.71-12.4-31.07-7.49-7.97-18.58-11.06-29.14-12.13-11.43-1.01-22.98-1.03-34.4 0.1z"/>
   <path d="m1776.4 70.6c25.65-2.01 51.41 0.66 76.7 4.98 3.31 0.71 6.75 1.03 9.92 2.3 2.6 1.3 2.37 4.59 2.47 7.06-0.14 10.98 0.18 21.98-0.15 32.95 0.02 3.47-3.65 4.52-6.44 3.8-23.04-4.03-46.36-7.62-69.82-6.86-10.01 0.44-20.31 1.52-29.37 6.1-5.8 2.94-10.61 8.38-11.59 14.95-1.45 7.03 0.82 14.84 6.46 19.46 8.38 6.97 19.01 10.24 29.07 13.96 20.07 7.6 40.68 14.1 59.68 24.21 11.3 6.12 22.29 14.01 28.72 25.43 9.59 16.82 10.66 37.46 6.31 56.03-4.12 17.04-15.5 31.91-30.53 40.83-21.14 12.89-46.55 16.1-70.87 16.22-24.03-0.37-48.25-3.28-71.13-10.85-2.9-0.68-5.65-2.91-5.59-6.11-0.01-12.06-0.13-24.14 0.07-36.21-0.03-2.74 3.16-4.32 5.57-3.41 27.42 8.55 56.42 13.28 85.16 10.52 9.95-1.17 20.35-3.21 28.5-9.43 10.8-8.07 12.63-26.28 2.54-35.62-5.7-5.53-13.19-8.61-20.41-11.59-19.15-7.2-38.57-13.68-57.5-21.43-13.94-5.85-28.02-13.42-36.96-26.04-11.32-16.06-13.43-37.17-9.39-56.02 3.82-17.28 14.97-32.79 30.22-41.79 14.59-8.67 31.62-12.11 48.36-13.44z"/>
   <path d="m2097.9 76.25c26.38-4.84 53.28-7.16 80.1-6.04 15.81 0.79 31.75 2.73 46.77 7.93 15.42 5.62 30.18 14.65 39.68 28.33 11.59 16.35 14.86 36.9 15.27 56.51 0.07 25.36 0 50.71 0.04 76.07-0.35 17.65-1.66 35.97-9.66 52.04-5.88 11.87-15.91 21.33-27.56 27.47-19.41 10.3-41.75 13.87-63.54 13.44-21.56 0.24-43.64-1.31-63.89-9.25-15.25-5.82-29.24-16-37.65-30.19-9.91-16.27-11.76-36.07-9.93-54.68 1.78-16.37 8.48-32.44 20.15-44.23 10.98-11.27 25.73-18.18 40.85-21.92 20.41-5.2 41.72-5.1 62.59-3.62 11.58 0.87 23.06 2.66 34.47 4.74-0.18-11.65 0.2-23.86-4.69-34.73-3.4-7.79-10.29-13.6-18.05-16.77-7.91-3.22-16.44-4.45-24.89-5.22-25.39-1.94-50.88 0.32-76 4.04-2.29 0.29-4.66 0.87-6.86 0.04-1.98-0.93-2.18-3.29-2.12-5.18 0.06-11.03-0.08-22.06 0.06-33.08-0.05-2.8 1.98-5.45 4.86-5.7m46.12 138.77c-7.83 2.64-14.87 7.99-18.7 15.41-7.34 13.96-6.19 33.32 5.89 44.34 9.97 8.88 23.8 11.49 36.75 11.97 9.29-0.1 18.69 0.56 27.88-1.23 8.06-1.47 16.28-4.57 21.94-10.75 4.85-5.33 6.49-12.68 7.12-19.66 1.09-12.76 0.35-25.58 0.64-38.37-17.09-4.54-34.92-5.67-52.54-5.48-9.75-0.07-19.69 0.63-28.98 3.77z"/>
   <path d="m2406.4 70.59c14.84-1.19 29.76-0.32 44.64-0.6 2.96-0.5 5.65 2.02 5.42 5.03 0.05 11.98-0.01 23.96 0.03 35.94 0.19 2.47-1.07 5.36-3.81 5.64-14.95 0.82-30.17-1.25-44.9 2.13-7.94 1.83-15.93 5.64-20.59 12.58-5.12 7.11-6.2 16.11-6.69 24.63-1.16 20.66-0.65 41.37-0.76 62.06-0.02 35.04 0.03 70.08-0.03 105.12 0.27 2.86-2.56 4.54-5.11 4.35-14.5 0.06-29.01 0.03-43.5 0.01-2.7 0.18-5.78-1.45-5.35-4.55-0.05-43.64-0.01-87.29-0.02-130.93 0.4-20.04-1.37-40.31 2.46-60.12 2.4-14.27 9.28-27.79 19.81-37.77 15.61-14.93 37.29-21.6 58.4-23.52z"/>
   <path d="m1323.7 81c-0.46-2.76 1.02-6.28 4.26-6.18 15.34-0.18 30.7-0.01 46.05-0.08 2.77-0.18 6.41 0.92 6.64 4.21 2.86 42.24 11.61 84.02 25.14 124.12 8.08 24.68 17.8 48.84 29.37 72.1 2.84-3.39 4.06-7.82 6.14-11.69 26.44-57.81 44.45-119.99 48.75-183.59-0.12-2.76 2.11-5.15 4.91-5.06 15.32-0.2 30.65-0.01 45.98-0.09 2.62-0.28 6.03 1.12 5.65 4.3-1.35 40.24-11.08 79.72-23.92 117.72-14.97 43.77-34.56 85.81-56.3 126.59-1.29 2.93-4.46 4.27-7.51 4.14-15.61 0.01-31.21 0.02-46.82 0-3.22 0.01-6.79-1.11-8.24-4.24-20.68-38.59-40.2-77.99-54.71-119.38-14-39.55-22.65-81-25.39-122.87z"/>
   <path d="m1593.2 75.29c1.85-0.65 3.87-0.54 5.84-0.56 13.63 0.07 27.27-0.04 40.91 0.05 2.41-0.2 5.39 1.28 5.06 4.1 0.05 25.02 0 50.05 0.02 75.07 0.53 55.02 0.11 110.05 0.27 165.07-0.06 2 0.12 4.07-0.49 6.02-0.95 2.19-3.71 2.39-5.76 2.46-14.33-0.02-28.66 0.07-42.98-0.04-2.55 0.15-5.32-1.59-5.03-4.39-0.04-81.02 0.02-162.04-0.03-243.06-0.16-1.8 0.25-4.03 2.19-4.72z"/>
  </g>
 </g>
</svg>
