<svg width="800" height="585.43" version="1.1" viewBox="0 0 640 468.34" xmlns="http://www.w3.org/2000/svg">
 <g transform="translate(0 -.00064699)" fill="#009ee0" stroke-width="1.3333">
  <path d="m77.393 214.24 0.7922-2.3765 12.648-37.124 15.051-45.784 10.79-35.103 8.7414-27.753 4.2888-13.713c5.2722-14.888 10.79-21.525 17.865-21.525 2.5679 0 4.48 0.51904 7.6761 2.076 4.2342 2.076 4.5892 2.2127 6.1737 2.5952 1.0107 0.24585 2.1307 0.35512 3.3873 0.35512 8.96 0 15.407-7.239 15.407-17.292 0-10.654-8.1405-18.603-19.04-18.603-9.0966 0-18.74 5.1903-24.067 12.948-5.6826 8.2754-10.736 20.951-18.687 46.793l-14.123 45.892-14.041 44.421-0.68266 2.64-25.76-82.709c-2.5952-8.359-3.7151-13.604-3.7151-17.428 0-6.2556 4.0976-11.855 11.091-15.161v-1.3667h-71.189v1.3659c7.9493 1.8303 13.084 4.8897 16.881 10.053 3.8244 5.1902 8.0313 14.26 11.446 24.585l46.822 142.21h2.24z"/>
  <path d="m131.87 49.685v1.3659c5.0537 2.9503 7.7854 8.7961 7.7854 16.719v81.924c0 13.084-4.1522 23.356-12.402 30.704v1.3385l2.7864-1.1747c15.435-6.6654 20.76-8.8234 33.136-13.303 6.2829-2.2947 11.719-4.1249 16.255-5.5454 6.0644-1.8576 8.9328-2.6497 16.664-4.5346l1.7484-35.048h-1.3659c-4.6165 20.897-15.597 34.037-33.027 39.556v-57.638c11.091 0.57367 17.456 4.999 21.635 15.107h1.3659v-40.485h-1.3659c-3.5239 11.664-11.227 19.177-21.635 21.061v-44.144h6.2282c12.811 0 22.483 7.4029 26.333 20.16h1.3659l-0.85333-26.06h-64.654z"/>
  <path d="m448.37 49.685h-27.753v1.3659c5.8458 2.5132 8.1952 4.7532 9.7249 9.1786 1.3385 3.9337 2.0216 9.0693 2.0216 15.461v35.048h-1.1747l-33.453-61.053h-29.913v1.3659c5.3542 2.1853 10.845 7.4849 14.041 13.523v61.136c0 15.461-3.7697 22.017-13.523 23.467v1.3659l1.8029 0.3551 6.2009 1.1473 7.7034 1.2839 8.8234 1.5297 6.7473 1.0927 1.7757 0.27316v-1.3385c-5.4634-2.8684-8.4409-5.6274-10.599-9.7794-2.1853-4.2069-2.9229-8.9328-2.9229-18.904v-48.002h1.0107l48.761 88.862h1.3932v-91.408c0-9.4518 0.73756-15.543 2.24-18.495 1.2566-2.4859 4.1522-4.9717 7.1024-6.119v-1.3659z"/>
  <path d="m450.04 161.9v1.3932l1.3385 0.24585c13.222 2.4312 28.383 4.2614 38.572 4.6712l2.1035 0.0819v-1.3659c-3.6058-1.8303-5.955-4.1522-7.7854-7.7854-2.1853-4.2888-2.7044-7.6488-2.7044-17.428v-69.369c0-12.074 3.442-18.548 11.309-21.363v-1.2839h-41.822v1.2839c4.0976 2.8411 7.075 6.6654 8.2224 10.544 0.68293 2.322 1.1473 7.9766 1.1473 13.713v63.157c0 15.489-1.9668 19.969-10.38 23.52"/>
  <path d="m561.75 49.033-0.95609 0.35512-1.6117 0.76488c-1.8849 0.90148-4.1522 1.4479-5.8458 1.4479-1.2292 0-2.4585-0.16392-3.6059-0.4917l-3.2506-0.95612c-3.36-0.98341-6.8566-1.5297-9.6702-1.5297-21.744 0-39.228 29.64-39.228 66.489 0 32.289 14.288 55.562 34.092 55.562 13.33 0 24.695-10.79 28-26.58 1.0108-4.8624 1.2293-6.3922 1.8576-13.194h-1.12l-0.54634 1.7757c-3.7697 12.293-9.4792 17.837-18.329 17.837-14.015 0-23.028-19.04-23.028-48.624 0-15.133 1.9123-28.437 5.2722-36.769 1.4479-3.5512 3.961-6.4469 7.1297-8.1405 2.0215-1.0927 4.6712-1.7211 7.3756-1.7211 10.217 0 17.319 8.277 21.799 25.405l0.30048 1.1473h1.3659v-32.764z"/>
  <path d="m234.81 92.884c14.096-0.51904 21.799-8.0586 21.799-21.363 0-11.501-5.3816-16.255-18.467-16.255h-0.40976l-1.5844 0.02729h-1.3385v37.589zm8.6596-43.216h4.8897c9.7794 0 15.927 0.98344 20.488 3.2233 5.9005 2.9229 10.217 10.435 10.217 17.811 0 5.8458-2.677 11.91-6.8566 15.625-4.3981 3.8791-10.244 6.5561-20.843 9.5064 17.948 3.0596 22.755 8.6322 27.617 32.153 1.4205 6.8293 1.6117 7.5122 2.5952 9.6429 1.202 2.6224 2.8957 3.6058 6.1737 3.6058 1.5025 0 2.6771-0.1639 5.5454-0.71025l0.51902 0.95609c-4.644 4.6985-11.528 7.5941-17.975 7.5941-5.4634 0-10.462-2.2127-13.904-6.1464-2.4039-2.7591-4.2616-6.0917-5.4361-9.7522-1.4752-4.7532-1.9123-6.7473-4.1522-19.177-2.0215-11.391-5.7365-15.461-14.068-15.461-0.73756 0-1.3659 0.02731-2.6224 0.16389l-0.84684 0.08189v28.245c0 12.374 1.9941 16.2 9.7522 18.713v1.3659l-0.9561 0.0819-4.3161 0.3278c-3.1141 0.24585-13.112 2.0215-20.461 3.6332-6.5288 1.4205-10.08 2.3765-15.68 4.1522l-0.30049-1.3659c4.3161-3.8517 5.6546-5.4361 7.321-8.7414 2.1033-4.1522 2.677-7.1844 2.677-14.533v-59.874c0-12.703-1.7483-16.445-9.206-19.751v-1.3659h39.829z"/>
  <path d="m578.47 49.701v1.3667c6.4472 2.9229 8.9548 4.8408 12.533 9.5666l-12.667 58.966-0.73333 2.7667-3.2 11.567c-2.3493 8.4409-5.4928 16.307-8.0333 19.967-2.158 3.0869-3.6917 4.5722-8.8 8.5333l0.16667 1.4333 2.1333-0.6 9.9666-2.6c7.8669-2.076 14.367-4.0008 18.3-5.3666l-0.23333-1.3333c-5.9552-1.4752-7.7666-3.7722-7.7666-9.7 0-3.1141 0.54392-7.2816 1.5-11.133l0.5-2.2667 3.0666-13.2 1.5-0.46667c7.1302-2.1853 13.977-4.6152 18.267-6.5l1.4333 5.9333c1.5844 6.5564 2.3333 11.693 2.3333 16.2 0 6.9388-2.075 12.149-6.2 15.7l0.23333 1.3667c12.593-4.9992 26.252-12.1 37.233-19.367l-0.36667-1.3667c-3.0594-0.0273-4.9702-0.73363-6.5-2.4-2.2127-2.3761-3.2464-4.8138-6.3333-14.867-0.92885-3.0594-1.5268-5.1346-1.8-6.2l-13.533-56zm16.267 23.367h0.83333l7.8333 31.6c-5.9825 2.5951-8.32 3.336-16.433 5.4666l-0.63333 0.16667z"/>
  <path d="m313.69 97.332c0 13.523 0.601 22.455 2.2127 33.027 1.6391 10.517 5.3814 14.669 13.33 14.669 4.5618 0 8.0586-1.7756 9.9434-5.0537 3.4418-5.9824 5.2722-20.843 5.2722-42.533 0-32.891-3.7424-43.461-15.38-43.461-11.637 0-15.38 10.544-15.38 43.353m54.716 1.5297c0 33.053-14.533 52.421-39.337 52.421s-39.337-19.368-39.337-52.421c0-33.383 13.849-51.521 39.337-51.521 25.487 0 39.337 18.139 39.337 51.521"/>
  <path d="m622.23 155.95c-11.282 7.6488-27.372 15.38-43.353 20.788-22.181 7.5396-46.11 11.255-72.745 11.255-17.675 0-27.153-0.90146-55.945-5.3541l-32.235-4.9717-34.228-5.9005c-16.8-2.8684-38.517-5.5454-56.109-6.8566-12.539-0.95611-24.995-1.4205-37.343-1.4205-36.413 0-69.85 4.0702-98.15 11.965-15.244 4.2616-30.869 10.107-46.685 17.511-16.527 7.7308-22.455 11.063-36.824 20.897l0.81951 1.1473c21.691-11.992 36.332-17.701 57.721-22.536 15.107-3.4146 26.171-4.6712 41.276-4.6712 7.8674 0 16.827 0.40974 25.596 1.1473 5.7638 0.49172 13.549 1.3385 23.411 2.5679 13.112 1.6117 23.411 3.0869 30.949 4.4253l31.633 5.5454c4.6438 0.8195 13.604 2.2947 26.935 4.4253 13.277 2.1306 22.4 3.5512 27.344 4.2341 21.144 2.9776 38.244 4.2614 56.437 4.2614 48.734 0 98.669-9.7794 140.72-27.563 22.127-9.3698 41.44-20.597 51.521-29.967l-0.73759-0.92877z"/>
 </g>
 <g transform="matrix(.48911 0 0 .48911 126.31 223.39)" fill="#08ee59">
  <path d="m45.972 14.22c-10.563 0.31-19.058 1.627-20.963 3.691-1.658 1.871-3.788 3.368-3.834 5.869-0.057 2.428 2.76 2.649 4.458 2.628 1.667 0 3.231-0.147 3.21-1.183 0-1.39-2.277-1.094-2.277-2.539 0-1.636 8.734-1.999 13.086-1.999 37.363-0.135 80.387 26.141 80.456 48.44 0.058 17.301-22.149 21.195-34.396 21.195-4.359 0.02-8.571-0.436-12.577-1.228-0.202-5.509-0.515-17.062-0.651-24.387 1.407-0.024 2.732-0.055 3.854-0.055 9.079-0.021 20.995 3.234 21.004 5.382 0 1.841-3.174 3.126-3.174 4.881 0.025 1.315 2.938 1.052 5.437 1.259 0.464 0.057 5.586-2.863 5.58-7.467-0.03-6.079-7.479-13.254-31.817-13.154h-1.068c-0.225-6.837-1.196-17.565-5.053-17.561-3.15 0.023-4.073 11.863-4.338 18.344-13.661 2.134-25.789 7.757-25.766 13.314 0 4.541 9.774 15.966 25.553 22.925 0.278 5.155 1.236 8.678 5.751 8.653 3.272 0 4.36-2.433 4.703-4.996 5.109 1.323 10.647 2.105 16.522 2.086 22.902-0.061 41.306-12.498 41.238-29.523-0.048-22.859-45.427-55.683-84.938-54.575m-6.158 56.853c0-3.966 11.892-5.515 22.909-6.079-0.066 6.246-0.147 15.197-0.127 21.211-13.555-4.851-22.782-12.561-22.782-15.132"/>
  <path d="m139.12 56.106c-3.858 0.043-3.977 15.896-4.087 21.686-0.259 13.184 1.667 14.725 5.128 14.725 3.094 0 4.149-0.38 3.886-11.419-0.486-20.959-1.885-24.992-4.927-24.992"/>
  <path d="m141.15 50.854c8.55-0.042 22.217-9.928 22.167-18.131 0-3.685-1.883-5.595-6.545-6.256-1.982-1.92-4.869-4.078-9.174-4.067-13.354 0.035-22.022 10.861-22.022 16.716 7e-3 2.199 0.688 4.841 2.604 7.048 0.082 4.713 1.196 5.929 2.697 5.929 1.683 0 2.703-0.991 3.326-2.166 1.903 0.606 4.196 0.949 6.947 0.927m0.865-6.627c-1.966 0-3.616-0.27-5.026-0.72 3.802-4.323 12.945-12.537 17.455-12.559 2.935 0 3.461 2.389 3.461 3.292-3e-3 5.478-11.103 9.965-15.89 9.987m0.636-14.609c-4.083 2.471-8.284 5.867-11.119 9.286-0.125-0.441-0.211-0.886-0.211-1.296 0-2.632 3.79-6.74 11.33-7.99"/>
  <path d="m185.55 58.955c0-3.63-9.276-3.593-14.501-3.587-3.919 0.031-23.775 0.476-23.753 11.738 0.013 7.596 11.141 5.737 18.517 6.495 5.995 0.604 13.28 2.619 13.323 4.604 0 4.479-15.926 6.251-19.186 6.251-6.766 0.041-6.903-1.942-6.903-2.958 0-1.014 1.123-2.722 3.664-2.722 2.521-0.013 7.721 3.261 11.33 3.25 3.563-0.032 6.555-1.626 6.555-3.264 0-2.996-11.894-4.428-15.578-4.428-3.876 0.025-9.431 1.633-9.399 7.52 0 3.061 4.925 10.28 18.759 10.216 13.638-0.062 17.088-7.901 17.068-11.945-0.023-9.834-9.232-10.974-17.26-11.674-6.016-0.526-12.473-0.824-12.449-2.172 0.044-4.496 29.813-1.202 29.813-7.324"/>
  <path d="m208.22 50.639c-1.122 0-1.333 1.208-1.333 2.481 0 3.893 5.281 17.276 5.281 22.425 0 1.051-0.083 2.947-0.908 3.213-1.259 0.369-12.241-19.973-16.782-20.321-4.686-0.365-7.209 19.956-7.184 24.96 0 4.962 0.883 8.337 4.544 8.315 5.404 0 2.605-20.29 4.776-20.29 1.619 0 10.461 18.559 15.387 18.538 5.33-0.018 8.488-7.962 8.477-13.126-0.029-11.801-7.77-26.237-12.258-26.195"/>
  <path d="m245.03 81.998c-1.886 0-12.517 2.391-13.215 1.759-0.708-0.657 0.625-6.879 1.951-7.291 1.332-0.413 9.647-0.311 10.968-0.392 3.861-0.224 3.132-5.51 0.749-5.711-1.215-0.111-8.712-0.134-9.141-0.836-0.392-0.683 0.139-4.214 0.958-4.577 1.726-0.74 13.133-1.021 13.996-1.243 1.424-0.381 2.458-1.141 2.798-2.365 0.339-1.244-3.962-6.27-9.287-5.701-9.157 1.005-21.012 0.961-21.012 3.997 0 2.85 5.572 3.995 5.713 4.786 0.148 0.759-0.715 3.718-1.043 4.649-0.327 0.99-4.315 1.294-4.573 4.051-0.057 0.651 0.995 1.644 0.811 2.441-0.632 2.331-2.537 7.16-2.533 9.146 0 3.092 2.258 9.958 8.46 9.725 9.826-0.303 18.623-7.258 18.774-8.484 0.202-1.82-2.49-3.954-4.374-3.954"/>
  <path d="m283.08 58.408c-5.366 0.297-15.659 11.821-21.665 19.592-0.383-0.798-0.593-1.566-0.593-2.244-0.014-3.318 6.079-13.146 7.218-15.622 1.188-2.549-0.146-5.957-1.637-4.729-2.848 2.37-11.996 13.207-11.974 23.284 0 2.318 0.594 5.131 1.863 7.716-2.031 6.754-7.035 21.798-6.883 30.912 0.093 4.706 4.785 9.33 7.611 8.742 1.075-0.255 1.284-6.443 2.723-10.617 1.965-6.031 5.144-17.057 6.232-21.753 0.515 0.057 1.029 0.097 1.582 0.097 11.167-0.041 23.569-12.156 23.551-22.566-0.038-10.449-6.123-12.941-8.028-12.812m-12.9 25.772c4.503-7.919 11.052-18.406 13.464-18.365 1.691 0 2.333 1.751 2.333 4.309 0 7.745-9.192 14.165-15.797 14.056"/>
  <path d="m411.93 494.94v-105.9c-0.042-1.39-0.315-2.731-0.819-4.056-0.577-1.386-1.446-2.658-2.438-3.623l-65.789-66.815c-2.272-2.325-2.272-6.09 0-8.382l65.789-66.825c0.992-1.01 1.861-2.202 2.438-3.629 0.501-1.32 0.804-2.718 0.819-4.06v-105.87c0-1.519-0.556-3.04-1.694-4.178-1.157-1.166-2.669-1.687-4.114-1.687h-100.25c-1.333 0-2.661 0.226-3.966 0.823-1.404 0.525-2.593 1.411-3.589 2.405l-69.868 70.949c-2.278 2.318-5.938 2.318-8.244-0.021l-69.883-70.929c-0.972-0.994-2.183-1.88-3.55-2.405-1.325-0.598-2.647-0.823-4.003-0.823h-100.2c-1.459 0-2.978 0.52-4.104 1.687-1.164 1.14-1.694 2.661-1.694 4.157v105.89c7e-3 1.341 0.271 2.739 0.801 4.06 0.572 1.427 1.413 2.619 2.389 3.629l65.792 66.826c2.316 2.292 2.316 6.057 0 8.382l-65.792 66.815c-0.976 0.983-1.817 2.237-2.389 3.623-0.527 1.325-0.794 2.684-0.801 4.056v105.9c0 1.492 0.546 3.018 1.694 4.14 1.127 1.155 2.643 1.728 4.104 1.728h104.25c1.365-0.033 2.695-0.303 4.033-0.815 1.368-0.558 2.567-1.403 3.58-2.439l65.775-66.812c2.306-2.324 5.966-2.324 8.278-0.021l65.764 66.831c0.977 1.039 2.188 1.884 3.58 2.438 1.339 0.516 2.673 0.783 4.02 0.818h104.28c1.448 0 2.957-0.573 4.117-1.729 1.134-1.122 1.69-2.646 1.69-4.138"/>
  <path d="m688.22 500.81c1.316-0.032 2.66-0.303 3.985-0.818 1.407-0.554 2.597-1.399 3.563-2.438l71.992-73.002c0.933-0.964 1.693-2.15 2.245-3.474 0.566-1.391 0.825-2.819 0.825-4.262v-212.95c0-1.43-0.256-2.85-0.825-4.262-0.552-1.334-1.312-2.51-2.245-3.46l-71.992-73.003c-0.967-0.994-2.156-1.868-3.563-2.405-1.325-0.597-2.666-0.823-3.985-0.823h-252.27c-1.493 0-2.963 0.521-4.095 1.686-1.157 1.151-1.734 2.663-1.759 4.159v369.18c0.027 1.494 0.602 3.018 1.759 4.139 1.129 1.155 2.602 1.729 4.095 1.729h252.27v-2e-3z"/>
 </g>
</svg>
