<svg width="857.68" height="585.44" version="1.1" viewBox="0 0 686.14 468.34" xmlns="http://www.w3.org/2000/svg">
 <g transform="matrix(1.4295 0 0 1.4295 -46.756 357.72)" fill="#009ee0">
  <path d="m86.852-100.35 0.55425-1.6627 8.8489-25.974 10.531-32.032 7.5494-24.559 6.1159-19.418 3.0006-9.5945c3.6887-10.416 7.5494-15.06 12.499-15.06 1.7966 0 3.1344 0.36314 5.3705 1.4525 2.9624 1.4525 3.2108 1.5481 4.3194 1.8157 0.70714 0.17201 1.4907 0.24846 2.3699 0.24846 6.2688 0 10.779-5.0648 10.779-12.098 0-7.4537-5.6954-13.015-13.321-13.015-6.3644 0-13.111 3.6313-16.838 9.0593-3.973 5.7807-7.508 14.649-13.07 32.729l-9.8809 32.108-9.8241 31.076-0.4778 1.8539-18.023-57.872c-1.8157-5.8484-2.5992-9.5177-2.5992-12.194 0-4.3767 2.8668-8.2945 7.7596-10.607v-0.95561h-49.807v0.95561c5.5617 1.2805 9.1545 3.4211 11.811 7.0334 2.6757 3.6313 5.619 9.9769 8.0081 17.201l32.759 99.497h1.5672z"/>
  <path d="m124.96-215.49v0.95561c3.5358 2.0641 5.447 6.1541 5.447 11.697v57.317c0 9.1545-2.9051 16.341-8.6769 21.482v0.93649l1.9495-0.82185c10.799-4.6634 14.525-6.1733 23.183-9.3073 4.3958-1.6054 8.1993-2.886 11.372-3.8798 4.2429-1.2996 6.2497-1.8539 11.659-3.1727l1.2232-24.521h-0.95561c-3.23 14.621-10.913 23.814-23.107 27.675v-40.328c7.7596 0.40136 12.213 3.4976 15.137 10.569h0.95561v-28.324h-0.95561c-2.4655 8.1609-7.8551 13.417-15.137 14.735v-30.885h4.3576c8.9633 0 15.73 5.1794 18.424 14.105h0.95561l-0.59248-18.233h-45.231z"/>
  <path d="m346.41-215.49h-19.418v0.95561c4.09 1.7583 5.7336 3.3256 6.804 6.4217 0.93649 2.7522 1.4143 6.3453 1.4143 10.818v24.521h-0.82185l-23.412-42.716h-20.928v0.95561c3.746 1.529 7.5876 5.2368 9.8241 9.4609v42.773c0 10.818-2.6375 15.404-9.4609 16.418v0.95561l1.2614 0.24845 4.3384 0.80272 5.3897 0.89825 6.1733 1.0702 4.7207 0.76449 1.2423 0.19112v-0.93649c-3.8224-2.0068-5.9057-3.9372-7.4156-6.8421-1.529-2.9433-2.045-6.2497-2.045-13.226v-33.58h0.70715l34.116 62.172h0.97473v-63.955c0-6.6129 0.51602-10.875 1.5672-12.939 0.87921-1.7392 2.9051-3.4784 4.9692-4.2812v-0.95561z"/>
  <path d="m347.58-136.98v0.97473l0.93649 0.17201c9.2505 1.701 19.858 2.9815 26.987 3.2682l1.4716 0.0573v-0.95561c-2.5228-1.2805-4.1664-2.9051-5.447-5.447-1.529-3.0006-1.8921-5.3514-1.8921-12.194v-48.534c0-8.4473 2.4082-12.977 7.9125-14.946v-0.89825h-29.261v0.89825c2.8668 1.9877 4.95 4.6634 5.7528 7.3774 0.47781 1.6246 0.80273 5.5808 0.80273 9.5945v44.188c0 10.837-1.3761 13.971-7.2626 16.455"/>
  <path d="m425.73-215.95-0.66892 0.24846-1.1276 0.53514c-1.3187 0.63071-2.9051 1.013-4.09 1.013-0.86001 0-1.7201-0.11468-2.5228-0.34402l-2.2743-0.66894c-2.3508-0.68804-4.7972-1.0702-6.7658-1.0702-15.213 0-27.445 20.737-27.445 46.519 0 22.591 9.9961 38.874 23.852 38.874 9.3265 0 17.278-7.5494 19.59-18.596 0.70716-3.402 0.86009-4.4723 1.2996-9.2313h-0.7836l-0.38224 1.2423c-2.6375 8.6009-6.632 12.48-12.824 12.48-9.8049 0-16.111-13.321-16.111-34.02 0-10.588 1.3378-19.896 3.6887-25.725 1.013-2.4846 2.7713-4.5105 4.9883-5.6954 1.4143-0.76449 3.2682-1.2041 5.1603-1.2041 7.148 0 12.117 5.791 15.251 17.775l0.21023 0.80273h0.95561v-22.935z"/>
  <path d="m196.99-185.27c9.8617-0.36314 15.251-5.6381 15.251-14.946 0-8.0465-3.7652-11.372-12.92-11.372h-0.28669l-1.1085 0.0191h-0.93649v26.299zm6.0586-30.236h3.4211c6.8421 0 11.143 0.68805 14.335 2.2552 4.1283 2.045 7.148 7.3009 7.148 12.461 0 4.09-1.873 8.3329-4.7972 10.932-3.0771 2.714-7.1671 4.5869-14.583 6.651 12.557 2.1406 15.92 6.0395 19.323 22.495 0.99385 4.778 1.1276 5.2559 1.8157 6.7466 0.84097 1.8347 2.0259 2.5228 4.3194 2.5228 1.0512 0 1.873-0.11467 3.8798-0.49692l0.36313 0.66892c-3.2491 3.2873-8.0657 5.3132-12.576 5.3132-3.8224 0-7.32-1.5481-9.7281-4.3003-1.6819-1.9303-2.9816-4.262-3.8033-6.8231-1.0321-3.3256-1.3378-4.7207-2.9051-13.417-1.4143-7.9698-4.0136-10.818-9.8425-10.818-0.51603 0-0.95561 0.0191-1.8347 0.11467l-0.59248 0.0573v19.762c0 8.6577 1.3952 11.334 6.8231 13.092v0.95l-0.66893 0.0573-3.0197 0.22934c-2.1788 0.17201-9.1737 1.4143-14.315 2.542-4.5678 0.99385-7.0524 1.6627-10.971 2.9051l-0.21024-0.95561c3.0197-2.6948 3.9562-3.8033 5.1221-6.1159 1.4716-2.9051 1.873-5.0265 1.873-10.168v-41.894c0-8.8873-1.2232-11.506-6.4409-13.819v-0.95561h27.866z"/>
  <path d="m448.81-199.12-5.8674 26.05 0.43958-0.11468c5.6764-1.4907 7.3009-2.0259 11.487-3.8416l-5.4661-22.113-0.59248 0.0191zm21.176 22.82c0.19112 0.74539 0.61159 2.198 1.2614 4.3384 2.1597 7.0334 2.886 8.7345 4.434 10.397 1.0702 1.1658 2.4082 1.6627 4.5487 1.6818l0.24845 0.95561c-7.6831 5.0839-17.239 10.053-26.05 13.551l-0.1529-0.95561c2.886-2.4846 4.3194-6.135 4.3194-10.99 0-3.1535-0.51604-6.7466-1.6246-11.334l-1.013-4.1474c-3.0006 1.3187-7.7787 3.0197-12.767 4.5487l-1.0512 0.32492-2.1406 9.2505-0.36314 1.5672c-0.66892 2.6948-1.0512 5.619-1.0512 7.7978 0 4.1473 1.2805 5.7528 5.447 6.7849l0.1529 0.93649c-2.7522 0.95561-7.3009 2.2935-12.805 3.746l-6.9569 1.8347-1.4907 0.40135-0.13378-0.99385c3.574-2.7713 4.6443-3.8033 6.1541-5.963 1.7775-2.5611 3.9944-8.0657 5.6381-13.971l2.2361-8.1033 0.49691-1.9303 8.8681-41.264c-2.5037-3.3064-4.2429-4.6443-8.7537-6.6893v-0.95561h23.068l9.4793 39.18z"/>
  <path d="m252.19-182.15c0 9.4609 0.42048 15.711 1.5481 23.107 1.1467 7.3582 3.7651 10.263 9.3265 10.263 3.1917 0 5.6381-1.2422 6.9569-3.5358 2.4081-4.1856 3.6887-14.583 3.6887-29.758 0-23.011-2.6184-30.408-10.76-30.408-8.1418 0-10.76 7.3774-10.76 30.332m38.282 1.0702c0 23.126-10.168 36.676-27.522 36.676s-27.522-13.551-27.522-36.676c0-23.355 9.6897-36.046 27.522-36.046 17.831 0 27.522 12.691 27.522 36.046"/>
  <path d="m468.04-141.15c-7.8934 5.3514-19.151 10.76-30.332 14.544-15.519 5.275-32.261 7.8742-50.896 7.8742-12.366 0-18.998-0.6307-39.142-3.746l-22.552-3.4784-23.947-4.1283c-11.754-2.0068-26.948-3.8798-39.256-4.7972-8.7729-0.66893-17.487-0.99384-26.127-0.99384-25.476 0-48.87 2.8477-68.67 8.3713-10.665 2.9816-21.597 7.0715-32.663 12.251-11.563 5.4088-15.711 7.7405-25.763 14.621l0.57337 0.80273c15.175-8.3905 25.419-12.385 40.384-15.767 10.569-2.3891 18.31-3.2682 28.879-3.2682 5.5044 0 11.773 0.28668 17.908 0.80273 4.0327 0.34403 9.4793 0.93649 16.379 1.7966 9.1737 1.1276 16.379 2.1597 21.654 3.0962l22.132 3.8798c3.2491 0.57336 9.5177 1.6054 18.845 3.0962 9.2889 1.4907 15.672 2.4846 19.131 2.9624 14.793 2.0832 26.757 2.9815 39.486 2.9815 34.096 0 69.033-6.8421 98.449-19.284 15.481-6.5555 28.993-14.411 36.046-20.966l-0.51604-0.64981z"/>
  <path d="m470.4-244.31v9.5369h10.053v-9.5369h5.4661v24.846h-5.4661v-10.722h-10.053v10.722h-5.4661v-24.846z"/>
  <path d="m501.05-224.06c0.7836 0 1.5481-0.13379 2.2935-0.38225 0.74538-0.24846 1.4143-0.68804 1.9877-1.2614 0.57337-0.59248 1.0512-1.3761 1.3952-2.3317 0.34402-0.93649 0.51603-2.1023 0.51603-3.4784 0-1.2422-0.11467-2.389-0.36314-3.3829-0.24845-1.013-0.6498-1.873-1.2041-2.5992-0.55426-0.72627-1.2996-1.2614-2.1979-1.6437-0.93649-0.40137-2.0641-0.59248-3.402-0.59248h-3.8989v15.672h4.8736zm0.38224-20.259c1.6055 0 3.0962 0.24845 4.4723 0.76449 1.3761 0.51602 2.5802 1.2805 3.5931 2.2935 0.99385 1.0321 1.7966 2.2935 2.3508 3.8416 0.57336 1.529 0.86 3.3256 0.86 5.3896 0 1.8157-0.22934 3.4784-0.68804 5.0074-0.47781 1.529-1.1658 2.8477-2.1023 3.9753-0.95561 1.1085-2.1215 1.9877-3.5358 2.6183-1.3952 0.64982-3.0388 0.95561-4.95 0.95561h-10.722v-24.845h10.722z"/>
 </g>
 <g transform="translate(-52.648 -350.04)">
  <g transform="matrix(.48911 0 0 .48911 202.03 573.43)" fill="#08ee59">
   <path d="m45.972 14.22c-10.563 0.31-19.058 1.627-20.963 3.691-1.658 1.871-3.788 3.368-3.834 5.869-0.057 2.428 2.76 2.649 4.458 2.628 1.667 0 3.231-0.147 3.21-1.183 0-1.39-2.277-1.094-2.277-2.539 0-1.636 8.734-1.999 13.086-1.999 37.363-0.135 80.387 26.141 80.456 48.44 0.058 17.301-22.149 21.195-34.396 21.195-4.359 0.02-8.571-0.436-12.577-1.228-0.202-5.509-0.515-17.062-0.651-24.387 1.407-0.024 2.732-0.055 3.854-0.055 9.079-0.021 20.995 3.234 21.004 5.382 0 1.841-3.174 3.126-3.174 4.881 0.025 1.315 2.938 1.052 5.437 1.259 0.464 0.057 5.586-2.863 5.58-7.467-0.03-6.079-7.479-13.254-31.817-13.154h-1.068c-0.225-6.837-1.196-17.565-5.053-17.561-3.15 0.023-4.073 11.863-4.338 18.344-13.661 2.134-25.789 7.757-25.766 13.314 0 4.541 9.774 15.966 25.553 22.925 0.278 5.155 1.236 8.678 5.751 8.653 3.272 0 4.36-2.433 4.703-4.996 5.109 1.323 10.647 2.105 16.522 2.086 22.902-0.061 41.306-12.498 41.238-29.523-0.048-22.859-45.427-55.683-84.938-54.575m-6.158 56.853c0-3.966 11.892-5.515 22.909-6.079-0.066 6.246-0.147 15.197-0.127 21.211-13.555-4.851-22.782-12.561-22.782-15.132"/>
   <path d="m139.12 56.106c-3.858 0.043-3.977 15.896-4.087 21.686-0.259 13.184 1.667 14.725 5.128 14.725 3.094 0 4.149-0.38 3.886-11.419-0.486-20.959-1.885-24.992-4.927-24.992"/>
   <path d="m141.15 50.854c8.55-0.042 22.217-9.928 22.167-18.131 0-3.685-1.883-5.595-6.545-6.256-1.982-1.92-4.869-4.078-9.174-4.067-13.354 0.035-22.022 10.861-22.022 16.716 7e-3 2.199 0.688 4.841 2.604 7.048 0.082 4.713 1.196 5.929 2.697 5.929 1.683 0 2.703-0.991 3.326-2.166 1.903 0.606 4.196 0.949 6.947 0.927m0.865-6.627c-1.966 0-3.616-0.27-5.026-0.72 3.802-4.323 12.945-12.537 17.455-12.559 2.935 0 3.461 2.389 3.461 3.292-3e-3 5.478-11.103 9.965-15.89 9.987m0.636-14.609c-4.083 2.471-8.284 5.867-11.119 9.286-0.125-0.441-0.211-0.886-0.211-1.296 0-2.632 3.79-6.74 11.33-7.99"/>
   <path d="m185.55 58.955c0-3.63-9.276-3.593-14.501-3.587-3.919 0.031-23.775 0.476-23.753 11.738 0.013 7.596 11.141 5.737 18.517 6.495 5.995 0.604 13.28 2.619 13.323 4.604 0 4.479-15.926 6.251-19.186 6.251-6.766 0.041-6.903-1.942-6.903-2.958 0-1.014 1.123-2.722 3.664-2.722 2.521-0.013 7.721 3.261 11.33 3.25 3.563-0.032 6.555-1.626 6.555-3.264 0-2.996-11.894-4.428-15.578-4.428-3.876 0.025-9.431 1.633-9.399 7.52 0 3.061 4.925 10.28 18.759 10.216 13.638-0.062 17.088-7.901 17.068-11.945-0.023-9.834-9.232-10.974-17.26-11.674-6.016-0.526-12.473-0.824-12.449-2.172 0.044-4.496 29.813-1.202 29.813-7.324"/>
   <path d="m208.22 50.639c-1.122 0-1.333 1.208-1.333 2.481 0 3.893 5.281 17.276 5.281 22.425 0 1.051-0.083 2.947-0.908 3.213-1.259 0.369-12.241-19.973-16.782-20.321-4.686-0.365-7.209 19.956-7.184 24.96 0 4.962 0.883 8.337 4.544 8.315 5.404 0 2.605-20.29 4.776-20.29 1.619 0 10.461 18.559 15.387 18.538 5.33-0.018 8.488-7.962 8.477-13.126-0.029-11.801-7.77-26.237-12.258-26.195"/>
   <path d="m245.03 81.998c-1.886 0-12.517 2.391-13.215 1.759-0.708-0.657 0.625-6.879 1.951-7.291 1.332-0.413 9.647-0.311 10.968-0.392 3.861-0.224 3.132-5.51 0.749-5.711-1.215-0.111-8.712-0.134-9.141-0.836-0.392-0.683 0.139-4.214 0.958-4.577 1.726-0.74 13.133-1.021 13.996-1.243 1.424-0.381 2.458-1.141 2.798-2.365 0.339-1.244-3.962-6.27-9.287-5.701-9.157 1.005-21.012 0.961-21.012 3.997 0 2.85 5.572 3.995 5.713 4.786 0.148 0.759-0.715 3.718-1.043 4.649-0.327 0.99-4.315 1.294-4.573 4.051-0.057 0.651 0.995 1.644 0.811 2.441-0.632 2.331-2.537 7.16-2.533 9.146 0 3.092 2.258 9.958 8.46 9.725 9.826-0.303 18.623-7.258 18.774-8.484 0.202-1.82-2.49-3.954-4.374-3.954"/>
   <path d="m283.08 58.408c-5.366 0.297-15.659 11.821-21.665 19.592-0.383-0.798-0.593-1.566-0.593-2.244-0.014-3.318 6.079-13.146 7.218-15.622 1.188-2.549-0.146-5.957-1.637-4.729-2.848 2.37-11.996 13.207-11.974 23.284 0 2.318 0.594 5.131 1.863 7.716-2.031 6.754-7.035 21.798-6.883 30.912 0.093 4.706 4.785 9.33 7.611 8.742 1.075-0.255 1.284-6.443 2.723-10.617 1.965-6.031 5.144-17.057 6.232-21.753 0.515 0.057 1.029 0.097 1.582 0.097 11.167-0.041 23.569-12.156 23.551-22.566-0.038-10.449-6.123-12.941-8.028-12.812m-12.9 25.772c4.503-7.919 11.052-18.406 13.464-18.365 1.691 0 2.333 1.751 2.333 4.309 0 7.745-9.192 14.165-15.797 14.056"/>
   <path d="m411.93 494.94v-105.9c-0.042-1.39-0.315-2.731-0.819-4.056-0.577-1.386-1.446-2.658-2.438-3.623l-65.789-66.815c-2.272-2.325-2.272-6.09 0-8.382l65.789-66.825c0.992-1.01 1.861-2.202 2.438-3.629 0.501-1.32 0.804-2.718 0.819-4.06v-105.87c0-1.519-0.556-3.04-1.694-4.178-1.157-1.166-2.669-1.687-4.114-1.687h-100.25c-1.333 0-2.661 0.226-3.966 0.823-1.404 0.525-2.593 1.411-3.589 2.405l-69.868 70.949c-2.278 2.318-5.938 2.318-8.244-0.021l-69.883-70.929c-0.972-0.994-2.183-1.88-3.55-2.405-1.325-0.598-2.647-0.823-4.003-0.823h-100.2c-1.459 0-2.978 0.52-4.104 1.687-1.164 1.14-1.694 2.661-1.694 4.157v105.89c7e-3 1.341 0.271 2.739 0.801 4.06 0.572 1.427 1.413 2.619 2.389 3.629l65.792 66.826c2.316 2.292 2.316 6.057 0 8.382l-65.792 66.815c-0.976 0.983-1.817 2.237-2.389 3.623-0.527 1.325-0.794 2.684-0.801 4.056v105.9c0 1.492 0.546 3.018 1.694 4.14 1.127 1.155 2.643 1.728 4.104 1.728h104.25c1.365-0.033 2.695-0.303 4.033-0.815 1.368-0.558 2.567-1.403 3.58-2.439l65.775-66.812c2.306-2.324 5.966-2.324 8.278-0.021l65.764 66.831c0.977 1.039 2.188 1.884 3.58 2.438 1.339 0.516 2.673 0.783 4.02 0.818h104.28c1.448 0 2.957-0.573 4.117-1.729 1.134-1.122 1.69-2.646 1.69-4.138" fill="#08ee59"/>
   <path d="m688.22 500.81c1.316-0.032 2.66-0.303 3.985-0.818 1.407-0.554 2.597-1.399 3.563-2.438l71.992-73.002c0.933-0.964 1.693-2.15 2.245-3.474 0.566-1.391 0.825-2.819 0.825-4.262v-212.95c0-1.43-0.256-2.85-0.825-4.262-0.552-1.334-1.312-2.51-2.245-3.46l-71.992-73.003c-0.967-0.994-2.156-1.868-3.563-2.405-1.325-0.597-2.666-0.823-3.985-0.823h-252.27c-1.493 0-2.963 0.521-4.095 1.686-1.157 1.151-1.734 2.663-1.759 4.159v369.18c0.027 1.494 0.602 3.018 1.759 4.139 1.129 1.155 2.602 1.729 4.095 1.729h252.27v-2e-3z" fill="#08ee59"/>
  </g>
  <g transform="matrix(.48911 0 0 .48911 212.38 580.37)" fill="#520d9c">
   <path d="m429.49 236.54c0-1.0809 0.72344-1.8028 1.8055-1.8028h25.108c1.0841 0 1.8055 0.72194 1.8055 1.8028v44.342c0 0.72194 0.36276 1.0829 1.0841 1.0829h13.367c0.72137 0 1.0841-0.36097 1.0841-1.0829v-44.342c0-1.0809 0.72137-1.8028 1.8065-1.8028h25.106c1.0841 0 1.8076 0.72194 1.8076 1.8028v118.97c0 1.0819-0.72344 1.8028-1.8076 1.8028h-25.107c-1.0852 0-1.8065-0.72091-1.8065-1.8028v-47.045c0-0.72092-0.36275-1.0809-1.0841-1.0809h-13.367c-0.72138 0-1.0841 0.35994-1.0841 1.0809v47.045c0 1.0819-0.72137 1.8028-1.8055 1.8028h-25.107c-1.0821 0-1.8055-0.72091-1.8055-1.8028z"/>
   <path d="m515.83 236.54c0-1.0809 0.7224-1.8028 1.8065-1.8028h34.136c18.064 0 29.261 6.4903 33.956 21.09 2.1703 6.8492 3.4322 15.501 3.4322 40.196 0 24.693-1.2629 33.347-3.4322 40.197-4.6951 14.6-15.893 21.089-33.956 21.089h-34.136c-1.0841 0-1.8065-0.72091-1.8065-1.8028v-118.97zm29.801 95.173h3.4312c4.8781 0 7.7677-1.6233 9.2136-5.7683 1.0841-3.2446 1.6246-7.7516 1.6246-29.923s-0.54051-26.677-1.6246-29.92c-1.4458-4.146-4.3355-5.7694-9.2136-5.7694h-3.4312c-0.72137 0-1.0831 0.36097-1.0831 1.0819v69.216c1e-3 0.72194 0.36172 1.0829 1.0831 1.0829z"/>
  </g>
 </g>
</svg>
