<svg width="800" height="423.37" enable-background="new 0 0 404.5 146.405" Googl="true" version="1.1" viewBox="0 0 800 423.37" xml:space="preserve" xmlns="http://www.w3.org/2000/svg">

<path d="m745.88 316.85h24.776l-3.6e-4 29.901h29.343v24.261h-29.414v29.846h-24.706v-29.887h-29.86v-24.22h29.86z" stroke-width="2.3181"/><path d="m745.88 6.552e-4h24.776v261.23h-24.775z" stroke-width="2.7915"/><path d="m662.37 299.18c7.251-3.2662 15.705-2.3112 22.043 2.4897 7.9024 6.2264 11.25 16.217 13.927 25.522 4.7661 19.275 5.4545 39.331 2.0191 58.887-0.90174 5.7257-4.2931 12.395-10.663 13.183-4.7614 0.51922-9.0452-2.9185-9.5645-7.6799-5e-3 -0.036-9e-3 -0.0694-0.0135-0.10675-1.1312-13.197 3.6649-26.452 0.67227-39.549-0.81599-4.2931-5.1532-8.0438-9.6039-7.0007-5.7258 1.8614-9.5182 7.156-12.325 12.223-5.8555 11.094-9.2191 23.274-13.012 35.17-2.6056 8.5886-6.8129 17.62-15.072 22.101-13.54 7.3438-32.78 5.8115-42.528-7.0285-8.4171-11.451-14.113-24.635-21.929-36.473-2.0909-2.6635-4.9816-6.7132-8.9177-5.2829-3.8504 1.0455-4.8379 5.582-4.8379 9.0615 0.58646 12.967 6.8569 24.748 8.9757 37.417 1.2309 5.1531-2.0909 12.082-8.1876 11.18-5.7257 0.65835-9.1612-4.8518-11.108-9.3906-8.5886-21.014-13.227-44.473-8.373-66.975 2.2323-10.378 5.7257-21.213 13.77-28.629 8.0438-7.4156 21.672-9.0174 30.46-1.9611 12.539 9.7477 17.822 25.522 28.385 36.944 5.8254 6.456 17.078 6.7712 22.3-0.57255 11.412-17.416 12.156-44.183 33.582-53.53z" stroke-width="2.3181"/><g transform="matrix(4.504 0 0 4.504 0 -603.53)" stroke-width=".51468"><path d="m89.208 216.92c0 0.91047-0.11375 1.7422-0.34123 2.4957-0.22749 0.75349-0.56924 1.3974-1.0242 1.9306-0.45549 0.53372-1.0206 0.94959-1.6954 1.2476-0.67474 0.298-1.4596 0.44725-2.3541 0.44725-0.59652 0-1.1575-0.1297-1.6835-0.38858s-0.92231-0.55328-1.1889-0.88268v5.8859h-2.9193v-16.669h2.9193v1.2244c0.07823-0.15698 0.20381-0.31807 0.37675-0.48277 0.17242-0.1647 0.38447-0.31807 0.63563-0.45909 0.25065-0.14154 0.53321-0.25477 0.84768-0.34123 0.31396-0.086 0.65107-0.12971 1.0124-0.12971 0.89452 0 1.6794 0.14926 2.3541 0.44726 0.67475 0.29852 1.2399 0.71438 1.6954 1.2476 0.45498 0.53372 0.79621 1.1771 1.0242 1.9306 0.22749 0.75401 0.34123 1.5862 0.34123 2.4962zm-3.0608 0c0-1.1771-0.26712-2.0757-0.80033-2.6959-0.53372-0.61968-1.1853-0.93003-1.9542-0.93003-0.76893 0-1.4169 0.31035-1.9424 0.93003-0.526 0.62019-0.78849 1.5188-0.78849 2.6959s0.26249 2.0757 0.78849 2.6959c0.52549 0.62019 1.173 0.93002 1.9424 0.93002 0.76893 0 1.4205-0.30983 1.9542-0.93002s0.80033-1.5188 0.80033-2.6959z"/><path d="m90.906 216.92c0-0.86312 0.1333-1.6676 0.40042-2.4133 0.2666-0.74526 0.6593-1.3927 1.1771-1.9424 0.51777-0.54916 1.1498-0.98046 1.8951-1.2949 0.74526-0.31396 1.5971-0.47094 2.5544-0.47094s1.8091 0.15698 2.5544 0.47094c0.74525 0.31395 1.3773 0.74577 1.8956 1.2949 0.51777 0.54968 0.90996 1.1972 1.1771 1.9424 0.2666 0.74577 0.40042 1.5502 0.40042 2.4133s-0.1333 1.6681-0.40042 2.4133c-0.26712 0.74577-0.65931 1.3932-1.1771 1.9424-0.51776 0.54968-1.1498 0.98098-1.8956 1.2949-0.74577 0.31395-1.5971 0.47093-2.5544 0.47093-0.95782 0-1.8091-0.15698-2.5544-0.47093-0.74577-0.31344-1.3773-0.74526-1.8951-1.2949-0.51777-0.54916-0.91047-1.1966-1.1771-1.9424-0.26712-0.74526-0.40042-1.5502-0.40042-2.4133zm3.0608 0c0 0.48689 0.06639 0.9501 0.20021 1.3891 0.1333 0.43954 0.3258 0.82401 0.57696 1.1534 0.25065 0.3294 0.561 0.5924 0.93003 0.78849 0.36851 0.19661 0.78849 0.2944 1.2594 0.2944 0.47093 0 0.89092-0.0978 1.2599-0.2944 0.36851-0.19609 0.67835-0.45909 0.93003-0.78849 0.25065-0.32991 0.44314-0.71386 0.57696-1.1534 0.1333-0.43902 0.20021-0.90223 0.20021-1.3891 0-0.48637-0.06691-0.94958-0.20021-1.3891-0.1333-0.43902-0.32579-0.824-0.57696-1.1534-0.25116-0.32939-0.56152-0.5924-0.93003-0.78849-0.36902-0.19609-0.789-0.2944-1.2599-0.2944-0.47093 0-0.89091 0.0983-1.2594 0.2944-0.36903 0.19661-0.67938 0.4591-0.93003 0.78849-0.25116 0.32991-0.44365 0.71438-0.57696 1.1534-0.13382 0.43954-0.20021 0.90275-0.20021 1.3891z"/><path d="m104.94 222.86v-11.866h2.9193v1.9306c0.4241-0.70614 0.94547-1.2363 1.5657-1.5893 0.61967-0.35307 1.2671-0.5296 1.9424-0.5296 0.12558 0 0.27072 8e-3 0.43542 0.0237 0.1647 0.016 0.31807 0.0396 0.45909 0.0705v2.8488c-0.3613-0.21976-0.76893-0.32939-1.2244-0.32939-0.42358 0-0.82812 0.0942-1.2126 0.28256-0.38446 0.18837-0.72209 0.48637-1.0124 0.89451-0.29028 0.40815-0.52189 0.94599-0.69431 1.613-0.17293 0.66754-0.25888 1.4797-0.25888 2.4365v4.2142z"/></g><path d="m0-4.2596e-6v1.082l108.56 81.494h31.667v-5.155l-102.2-77.421zm5.8552e-4 19.203v9.5973l70.994 53.775h12.671zm65.047 163.96-65.048 49.271v28.625l102.17-77.896zm63.371 0-103.07 78.072h12.676l102.2-77.421v-0.65096z" stroke-width=".52441"/><path d="m149.24 6.552e-4v87.076h-149.24v17.416h166.65v-104.49zm-149.24 156.74v17.416h149.24v87.076h17.414v-104.49z" color="#000000" stroke-width=".66983"/><path d="m88.555 130.62h562.65m-281.33-130.62v261.23" color="#000000" stroke-width="52.246"/><g transform="matrix(3.7319 0 0 3.7319 381.83 -69.433)" style="shape-inside:url(#rect749);white-space:pre" aria-label="VERY"><path d="m-49.012 18.606h2.96l0.2 0.2 8.96 23.44 9-23.44 0.2-0.2h2.96l0.2 0.2-10.76 27.6-0.2 0.2h-2.8l-0.2-0.2-10.72-27.6z"/><path d="m-20.252 18.606h15.88l0.2 0.2v2.68l-0.2 0.2h-13v7.96h9.8l0.2 0.2v2.72l-0.2 0.2h-9.8v10.76h14.2l0.2 0.2v2.68l-0.2 0.2h-17.08l-0.2-0.2v-27.6z"/><path d="m2.5085 18.606h7.12q4.08 0 6.52 2.16 2.44 2.12 2.44 5.6 0 2.72-1.72 4.64-1.68 1.88-4.16 2.56l9.48 12.84-0.2 0.2h-3.6l-0.2-0.2-9.2-12.24h-3.6v12.24l-0.2 0.2h-2.68l-0.2-0.2v-27.6zm2.88 3.08v9.36h4q2.52 0 4.08-1.2 1.56-1.24 1.56-3.48 0-2.2-1.44-3.44-1.4-1.24-3.96-1.24z"/><path d="m20.308 18.606h3.4l0.4 0.2 7.92 10.28 8-10.28 0.36-0.2h3.4l0.2 0.2-10.4 13.2v14.4l-0.2 0.2h-2.68l-0.2-0.2v-14.4l-10.4-13.2z"/></g><g transform="matrix(3.5785 0 0 3.5785 372.48 92.305)" style="shape-inside:url(#rect749-9);white-space:pre" aria-label="BRITISH"><path d="m-47.252 18.606h7.4q4.04 0 6.72 2.08 2.68 2.04 2.68 5.52 0 1.76-0.8 3.08-0.76 1.28-2 1.92 1.8 0.76 3 2.68 1.2 1.88 1.2 4.12 0 4.08-2.6 6.36-2.56 2.24-6.6 2.24h-9l-0.2-0.2v-27.6zm5.4 5.6v5.2h2q3.2 0 3.2-2.6t-3.2-2.6zm0 10.8v6h3.2q3.4 0 3.4-3t-3.4-3z"/><path d="m-25.252 18.606h7.4q4.36 0 6.96 2.44 2.64 2.4 2.64 5.96 0 4.6-4 6.6l9.6 12.8-0.2 0.2h-6.4l-0.2-0.2-8.4-11h-2v11l-0.2 0.2h-5.2l-0.2-0.2v-27.6zm5.4 5.6v5.6h2q3.4 0 3.4-2.8t-3.4-2.8z"/><path d="m0.34838 18.606h5.2l0.2 0.2v27.6l-0.2 0.2h-5.2l-0.2-0.2v-27.6z"/><path d="m9.5484 18.606h22l0.2 0.2v5.2l-0.2 0.2h-8.2v22.2l-0.2 0.2h-5.2l-0.2-0.2v-22.2h-8.2l-0.2-0.2v-5.2z"/><path d="m35.548 18.606h5.2l0.2 0.2v27.6l-0.2 0.2h-5.2l-0.2-0.2v-27.6z"/><path d="m57.028 25.606h-0.4q-1.32-1.8-3.08-1.8-2 0-2 2 0 0.84 1.2 1.6 1.24 0.76 2.96 1.56 1.72 0.76 3.44 1.8 1.76 1.04 2.96 2.96 1.24 1.92 1.24 4.48 0 3.68-2.72 6.36-2.68 2.64-6.68 2.64-3.24 0-5.8-1.64t-3.6-4.56l4.6-3.08h0.4q1.28 3.48 4.4 3.48 1.52 0 2.44-0.84 0.96-0.88 0.96-2.36 0-1.32-1.24-2.36-1.2-1.04-2.92-1.84-1.72-0.84-3.48-1.8-1.72-0.96-2.96-2.6-1.2-1.64-1.2-3.8 0-3.4 2.32-5.6t5.68-2.2q2.48 0 4.28 1.04 1.84 1.04 3.52 3.36z"/><path d="m67.548 18.606h5.2l0.2 0.2v10.4h12.8v-10.4l0.2-0.2h5.2l0.1994 0.2 6.03e-4 27.6-0.2 0.20004-5.2-4.1e-5 -0.2-0.2v-11.6h-12.8v11.6l-0.2 0.2h-5.2l-0.2-0.2v-27.6z"/></g></svg>
