<svg width="800" height="406.4" space="preserve" version="1.1" viewBox="0 0 800 406.4" xmlns="http://www.w3.org/2000/svg">
 <link rel="stylesheet" type="text/css"/>
 <link rel="stylesheet" type="text/css"/>
 <style lang="en" type="text/css"/>
 <path d="m800-1.2969e-5v406.4h-800v-406.4h800" stroke-width=".88928"/>
 <g transform="matrix(.88928 0 0 .88928 -23.053 -19.12)" fill="#fff">
  <path d="m612 200.5v-88.7c0-4.1-2.5-6.6-6.6-6.6h-71.7c-5.9 0-8 3.1-8 8.1v87.2c0 4.1-2.2 6.1-6.7 6.1h-67.5v-94.7c0-4.1-2.5-6.6-6.6-6.6h-163.3c-4.7 0-7.2 3.2-8.1 6.5l-43.7 142.2c-1.3 4.6-3.7 4.4-5 0.2l-43.3-140.2c-1.9-5.6-3.7-8.6-9.3-8.6h-77.5c-5.6 0-5.2 4-3.9 7.6l97.7 272.5c1.7 5.1 3.5 9.4 8.6 9.4h60.3c5 0 7.1-4.4 8.7-8.8l94.2-264.1c1.7-4.3 4.3-3 4.3 0v267.2c0 4.2 2.7 5.7 5.4 5.7h76.2c2.7 0 5.3-2.6 5.3-5.3v-96.6h67.6c4.4 0 6.5 1.8 6.5 5.9v90.2c0 4.2 2.7 5.7 5.4 5.7h75.7c2.7 0 5.3-2.6 5.3-5.3v-90.7c0-3.5 1.7-5.9 6.6-5.9h71.4c4.2 0 5.7-2.7 5.7-5.4v-80.9h-77.1c-5.6 0-6.6-2.4-6.6-6.1z"/>
  <path d="m823.9 105.3h-68.8c-5.6 0-8.3 3.1-14.2 7.4l-39.5 29.9c-4.1 3.3-5.8 5.3-5.8 9.6v54.4h42.5c3.9 0 5.9 2.5 5.9 6.4v176.1c0 4.2 2.7 5.7 5.4 5.7h75.7c2.7 0 5.3-2.6 5.3-5.3v-277.7c0-4.1-2.5-6.5-6.5-6.5z"/>
 </g>
</svg>
