<svg id="a" version="1.0" viewBox="0 0 997.6 601.75" xmlns="http://www.w3.org/2000/svg">
 <path id="b" d="m530.11 212.53c-1.4667 0.52869-2.9334 0.85273-4.383 0.85273-4.5024 0.0171-6.7536-1.8078-6.7536-6.5319l0.0341-8.1862-8.1521 0.0171-0.0341 10.13c0 3.1892-2.4047 4.5024-5.4745 4.5024-3.0869 0-5.4404-1.245-5.3892-4.5365l0.15349-24.149c0-1.9272-3.2233-1.245-3.2233-3.9567-0.017-1.8931 1.1768-2.8822 2.9163-3.4621 1.4496-0.52869 2.9163-0.83568 4.383-0.83568 4.4342 0 6.7877 1.8248 6.8048 6.5149l-0.0512 7.6234 8.1521-0.0171 0.0341-9.5506c0-3.1892 2.3024-4.4854 5.3722-4.5024 3.0869 0 5.4916 1.245 5.4575 4.4854l-0.22171 24.183c0 1.9442 3.2915 1.262 3.2915 3.9737 0 1.8931-1.262 2.8822-2.9163 3.445m-37.281-30.391-9.1072 25.087c-1.1427 3.2404-3.5985 6.4296-7.8792 6.4466-4.076 0-6.9071-2.814-7.8963-6.4125l-6.3614-22.512c-0.5287-1.9954-3.4962-0.88684-3.5132-4.383 0-1.5179 1.2109-2.507 2.7628-3.138 1.6202-0.57985 2.9846-0.85273 4.1272-0.85273 3.2915 0 6.3272 1.0915 7.0606 4.4854l4.9458 21.472h0.32404l6.7536-21.693c0.83568-2.7287 1.876-3.9226 5.2187-3.9396 2.0295 0 5.2358 0.938 3.5644 5.4404m84.676 79.628c-0.0171-9.0901-7.3846-16.475-16.492-16.441h-4.4342c-9.1583-0.44341-16.526-7.3676-16.526-16.492h0.0341l-0.2387-128.78c-0.0341-9.1242-7.4188-16.509-16.543-16.492l-30.391 0.05116c-4.7923 0-10.591 2.814-13.593 6.0544-14.292 12.603-24.695 19.101-43.728 21.728-9.1242 0.0171-17.634 7.4017-17.6 16.543l0.017 18.845c0.0171 16.509 7.4358 16.492 16.543 16.475l9.9599-0.0171c4.5706 0 7.4358 3.6838 7.4529 8.2374l0.0853 58.48c0 9.1072-7.3846 15.537-16.492 15.537l-9.2265 0.0171c-9.1072 0.017-16.492 7.4017-16.475 16.509l0.0512 30.92c0.0171 9.1242 7.4188 16.492 16.526 16.458l134.63-0.1876c9.1583-0.0171 16.509-7.4017 16.492-16.526l-0.0512-30.92" fill="#fff"/>
 <path id="c" d="m17.925 578.27c-12.126-14.241-17.89-30.255-17.924-52.63-0.085273-42.688 36.77-84.181 85.478-84.25 18.777 0 37.827 1.1427 53.858 11.699 13.064 8.4761 14.292 18.47 12.791 28.14-2.4218 16.918-6.9412 22.103-26.605 23.638-10.591 0.92095-24.218-2.6776-27.253-14.513-1.2279-4.2125-3.3427-6.9412-6.3784-6.9412-3.5985 0.0341-7.8622 1.5349-10.864 4.8776-8.442 9.7041-10.25 28.14-10.25 38.731 0.05116 9.1072 1.8419 16.355 5.1846 21.506 5.7645 8.135 14.241 9.9258 21.506 9.9258 8.4761-0.0341 16.355-2.7458 26.025-8.8172 9.9428-6.3784 19.954-3.0357 26.025 5.4063 5.4575 7.5722 3.9567 16.355-2.6946 23.604-8.1692 9.1072-28.703 23.041-63.221 23.109h-0.25582c-31.295 0-50.601-6.9412-65.421-23.484" fill="#fff"/>
 <path id="d" d="m172.2 566.21-0.22171-154.89c-0.0512-20.278 15.076-27.56 34.126-27.611 18.76-0.0341 34.194 7.2311 34.246 27.492l0.22171 136.44c0 13.013 18.777 4.2125 18.777 23.569 0.0341 10.284-6.9071 16.355-19.323 21.233-9.9769 3.9567-18.453 5.7474-32.353 5.7815-17.856 0.0512-35.439-12.041-35.474-32.011" fill="#fff"/>
 <path id="e" d="m350.37 530.24-14.206 4.8776c-3.9567 1.1938-6.6854 4.8435-6.6513 7.8622v2.1148c0 5.7644 5.1505 8.749 9.687 8.749 11.819 0 17.225-6.9753 17.225-14.531v-6.3443c-0.0341-1.6372-1.5008-3.121-3.8373-3.121-0.68219 0-1.4155 0.11939-2.2171 0.39227m-80.771 22.802c-0.0512-25.718 16.611-34.501 40.181-40.88l45.689-11.87-0.0341-7.5893c0-6.9583-4.2636-11.478-11.222-11.478-7.5552 0.0341-9.056 1.8419-11.478 8.5273-4.5195 13.32-15.383 14.855-28.089 14.855-16.048 0-24.849-6.0373-24.883-23.28 0-13.32 1.1938-22.376 26.912-31.824 13.286-4.5536 31.142-7.5893 42.04-7.5893 49.902-0.0852 71.442 21.352 71.476 61.311l0.0682 38.987c0 6.9924 1.5349 9.1072 9.4141 11.495 4.5195 1.2109 9.056 6.0544 9.1072 14.241 0 9.67-5.4234 15.724-17.515 21.796-8.4932 4.5365-19.647 7.6064-30.562 7.6064-15.434 0.0341-25.718-8.7149-29.368-20.807l-0.61396-1.5349c-10.864 17.583-31.739 23.331-42.636 23.365-34.484 0.0512-48.418-18.999-48.486-45.331" fill="#fff"/>
 <path id="f" d="m453.64 579.12c-6.6854-8.1862-7.2994-19.664-0.97211-26.639 8.4932-8.8002 20.585-9.7211 29.641-1.859 6.6854 5.7304 13.968 8.7661 22.427 8.7661 6.3614-0.0512 10.898-1.859 12.706-4.5706 1.4838-2.4217 0.28993-5.7644-4.2807-9.4141-5.1334-3.9055-15.11-6.6001-29.044-14.155-13.934-7.5211-31.176-19.613-31.21-42.619-0.0852-29.027 31.977-47.548 68.594-47.599 34.16-0.0341 49.936 11.137 58.122 21.386 6.6854 8.1692 6.6854 16.048 1.8419 23.911-5.1505 7.8792-17.805 10.915-28.447 3.9567-6.3272-4.2295-14.82-6.6001-21.182-6.6001-4.8435-0.30697-8.4591 1.2279-9.687 3.9567-1.4838 4.5195 1.5349 7.8622 11.529 12.655 9.3971 4.8435 19.374 8.1521 28.788 13.286 13.013 7.5211 24.218 19.05 24.252 39.004 0.0512 19.664-19.579 48.708-69.515 48.793h-0.34109c-35.781 0-54.779-12.041-63.221-22.256" fill="#fff"/>
 <path id="g" d="m604.6 578.88c-6.6684-8.1692-7.2823-19.647-0.95507-26.639 8.442-8.8002 20.568-9.7041 29.675-1.8419 6.6342 5.7133 13.899 8.749 22.376 8.7149 6.3784 0 10.915-1.8078 12.706-4.5706 1.5008-2.4218 0.30698-5.7133-4.2636-9.363-5.1334-3.9226-15.11-6.6001-29.061-14.172-13.934-7.5211-31.193-19.613-31.244-42.602-0.0341-29.061 32.029-47.565 68.645-47.599 34.16-0.0853 49.936 11.12 58.122 21.386 6.6342 8.118 6.6684 16.031 1.8419 23.911-5.1505 7.8622-17.822 10.898-28.447 3.9396-6.3443-4.2125-14.82-6.6342-21.199-6.6001-4.8264-0.28992-8.442 1.2279-9.67 3.9567-1.5008 4.5365 1.5349 7.8451 11.512 12.672 9.4141 4.8435 19.391 8.135 28.788 13.286 13.013 7.5211 24.235 18.999 24.269 39.004 0.0341 19.647-19.613 48.708-69.515 48.793h-0.34109c-35.798 0-54.779-12.058-63.238-22.273" fill="#fff"/>
 <path id="h" d="m753.47 406.48c0-19.647 25.991-25.752 41.426-25.752 15.741-0.0341 32.694 4.7923 32.694 23.535 0.0512 20.261-22.342 24.559-38.066 24.559h-0.32403c-15.093 0-35.678-2.7799-35.729-22.342m1.4667 149.79-0.11938-85.648c-0.0341-20.568 15.963-27.509 34.126-27.56 17.856-0.0341 34.212 6.89 34.246 27.458l-0.1876 78.076c0.0341 12.092 19.988 7.8281 20.039 23.876 0 11.205-6.3784 16.935-16.628 20.312-8.8002 2.7287-17.856 4.2636-27.253 4.2636-28.106 0.0341-44.188-11.444-44.223-40.778" fill="#fff"/>
 <path id="i" d="m862.69 576.96c-12.126-14.189-17.89-30.204-17.924-52.63-0.0852-42.636 36.77-84.13 85.478-84.216 18.777-0.0341 37.81 1.1597 53.858 11.717 13.064 8.442 14.258 18.419 12.757 28.14-2.3876 16.918-6.9242 22.069-26.571 23.604-10.591 0.92096-24.218-2.6946-27.253-14.479-1.2279-4.2125-3.3427-6.9412-6.3784-6.9412-3.5985 0-7.8622 1.5349-10.864 4.8776-8.4761 9.67-10.25 28.14-10.25 38.731 0.0512 9.056 1.8419 16.304 5.1846 21.455 5.7644 8.1691 14.241 9.9769 21.506 9.9769 8.4761-0.0341 16.355-2.7628 26.025-8.8172 9.9428-6.3784 19.954-3.0869 26.025 5.4063 5.4404 7.5722 3.9567 16.321-2.6946 23.604-8.1692 9.1072-28.703 23.041-63.221 23.075h-0.51164c-31.142 0-50.396-6.9583-65.166-23.501" fill="#fff"/>
 <path id="j" d="m347.61 206.79c0 81.692 66.206 147.91 147.9 147.91s147.95-66.223 147.95-147.91c0-81.692-66.257-147.9-147.95-147.9s-147.9 66.206-147.9 147.9m-58.855 0c0-114.2 92.555-206.79 206.75-206.79 114.2 0 206.8 92.589 206.8 206.79 0 114.21-92.606 206.8-206.8 206.8-114.2 0-206.75-92.589-206.75-206.8" fill="#fff"/>
</svg>
