<svg width="800" height="603.93" Googl="true" version="1.1" viewBox="0 0 800 603.93" xmlns="http://www.w3.org/2000/svg">
 <g transform="matrix(1.4392 0 0 1.4392 -520.71 200.84)" fill="#fff" stroke-width="1.9765">
  <path d="m795.13 177.79a17.907 17.907 0 0 1 18.164 1.9765c6.5224 5.1389 9.2895 13.361 11.483 21.05a117.21 117.21 0 0 1 1.6603 48.543c-0.73131 4.7436-3.4984 10.219-8.7757 10.851a7.1352 7.1352 0 0 1-7.906-6.4039c-0.92896-10.891 3.024-21.742 0.55342-32.612a7.0363 7.0363 0 0 0-7.906-5.7714c-4.7436 1.5417-7.906 5.9295-10.139 10.08-4.8424 9.1512-7.6095 19.192-10.732 28.995-2.1544 7.0956-5.6133 14.527-12.432 18.223-11.147 6.0481-27.019 4.7831-35.043-5.7911-6.9375-9.4477-11.642-20.318-18.085-30.063-1.7196-2.2137-4.1111-5.5342-7.3526-4.3681s-3.953 4.6052-3.953 7.4712c0.49413 10.693 5.6528 20.397 7.4119 30.853 1.008 4.2495-1.7196 9.8825-6.7596 9.2105-4.7436 0.53366-7.5502-3.953-9.1512-7.7281-7.0956-17.334-10.91-36.684-6.9178-55.223 1.8579-8.5582 4.7436-17.492 11.365-23.58 6.6213-6.0876 17.788-7.4316 25.102-1.6207 10.337 8.0444 14.705 21.03 23.402 30.458 4.8029 5.3168 14.092 5.5737 18.401-0.4546 9.3291-14.448 9.9418-36.407 27.612-44.096z"/>
  <path d="m873.08 192.33h20.38v24.607h24.232v20.002h-24.252v24.607h-20.358v-24.607h-24.627v-20.002h24.627z"/>
  <path d="m636.35 223.34a18.223 18.223 0 0 1 16.267-6.9573c0 3.5972 0 7.1945 0.17788 10.792-4.4076-0.94872-9.8825-1.0673-12.511 3.3008-5.6923 9.1512-3.2019 20.516-3.7751 30.715h-11.147q0-22.117 0-44.254h11.187c-0.0593 2.1544-0.11859 4.3285-0.19766 6.4039z"/>
  <path d="m525.35 216.94h10.772v3.5775a18.698 18.698 0 0 1 25.932 2.7276c5.9295 7.906 5.9295 19.212 2.3125 28.106-4.3878 10.772-19.429 13.836-28.303 6.7399 0.0988 6.9573 0 13.836 0 20.892h-10.772zm15.911 9.8825c-9.2896 5.3761-7.906 24.509 3.953 25.497 9.2698-0.71154 11.563-12.373 8.7361-19.607a9.2896 9.2896 0 0 0-12.689-5.8504z"/>
  <path d="m587.44 217.67c8.5582-2.609 19.172-1.3638 25.299 5.7516a25.694 25.694 0 0 1 2.3323 27.948c-7.313 13.44-29.232 14.033-37.771 1.601-7.8467-11.464-4.0914-30.893 10.139-35.3zm4.5064 9.0721c-10.298 4.546-9.1512 23.718 2.5892 25.438 7.4712 1.0278 12.491-7.0363 11.859-13.836 0.33601-7.1945-6.8782-15.1-14.448-11.602z"/>
 </g>
 <g transform="matrix(5.4629 0 0 5.4629 1.4838e-5 -2927.2)" fill="#fff">
  <path d="m0.0095016 601.89c-9.51e-6 2.4834 1.9991 4.4829 4.4826 4.4829h111.05c2.4835 0 4.4826-1.9993 4.4826-4.4829l2e-4 -50.382h-120.01z" stroke-width="1.2408"/>
  <path d="m-2.7161e-6 535.83h120.02v10.451h-120.02z" stroke-width="1.259"/>
 </g>
 <g transform="matrix(3.7822 0 0 3.7822 -502.66 1101.1)" stroke-width="1.0333">
  <path d="m278.81-252.32h-3.8233v-3.8233h-22.733v3.8233h-3.8233v3.8233h-3.8233v15.19h3.8233v3.8233h3.8233v3.72h18.91v3.8233h3.8233v7.5432h-3.8233v3.8233h-15.19v-3.8233h-3.8233v-3.8233h-7.5432v7.5432h3.8233v3.8233h3.8233v3.8233h22.733v-3.8233h3.8233v-3.8233h3.8233v-15.086h-3.8233v-3.8233h-3.8233v-3.8233h-18.91v-3.72h-3.8233v-7.5432h3.8233v-3.8233h15.19v3.8233h3.8233v3.8233h7.5432v-7.6466h-3.8233z"/>
  <path d="m230.98-225.76v22.733h7.5432v-53.113h-7.5432v22.733h-22.733v-22.733h-7.5432v53.113h7.5432v-22.733z"/>
  <path d="m160.14-214.39h3.8233v3.8233h3.8233v3.8233h3.8233v3.8233h7.5432v-3.8233h3.8233v-3.8233h3.8233v-3.8233h3.8233v-3.8233h3.8233v-37.923h-7.5432v34.1h-3.8233v3.8233h-3.8233v3.8233h-7.5432v-3.8233h-3.8233v-3.8233h-3.8233v-34.1h-7.5432v37.923h3.8233v3.8233z"/>
 </g>
 <path class="cls-1" d="m741.55 7.1017e-5h28.758v385.35h-28.758q0-192.68 0-385.35z" fill="#fff" stroke-width="4.1929"/>
</svg>
