<svg width="211.67mm" height="44.105mm" version="1.1" viewBox="0 0 211.67 44.105" xmlns="http://www.w3.org/2000/svg">
 <g transform="matrix(1.006 0 0 1.006 -311.95 136.9)" fill="#eec818">
  <path d="m319.1-100.59q-2.2653-4.4418-4.6195-10.394-2.3098-5.9521-4.3974-12.97h7.0181q0.44418 1.7323 1.0216 3.7756 0.62186 1.9988 1.2437 4.0865 0.66628 2.0432 1.2881 3.9977 0.66628 1.9544 1.2881 3.5535 0.57744-1.5991 1.2437-3.5535 0.66627-1.9544 1.2881-3.9977 0.66628-2.0877 1.2437-4.0865 0.62186-2.0432 1.066-3.7756h6.8404q-2.0877 7.0181-4.4418 12.97-2.3098 5.9521-4.5751 10.394z"/>
  <path d="m343.83-100.59h-6.6184v-23.364h6.6184zm0.62185-30.116q0 1.8212-1.1993 2.8872-1.1549 1.0216-2.754 1.0216t-2.7984-1.0216q-1.1549-1.066-1.1549-2.8872t1.1549-2.8428q1.1993-1.066 2.7984-1.066t2.754 1.066q1.1993 1.0216 1.1993 2.8428z"/>
  <path d="m358.98-105.21q0.9772 0 1.8656-0.0444t1.4214-0.13326v-5.0193q-0.39976-0.0888-1.1993-0.17768-0.79954-0.0888-1.4658-0.0888-0.93279 0-1.7767 0.13325-0.79953 0.0888-1.4214 0.39977-0.62186 0.31093-0.97721 0.84395t-0.35535 1.3326q0 1.5546 1.0216 2.1765 1.066 0.57744 2.8872 0.57744zm-0.53302-19.366q2.9316 0 4.886 0.66627 1.9544 0.66628 3.1093 1.91 1.1993 1.2437 1.6879 3.0204t0.4886 3.9532v13.77q-1.4214 0.31093-3.9532 0.7107-2.5318 0.44418-6.1298 0.44418-2.2653 0-4.1309-0.39977-1.8212-0.39976-3.1537-1.2881-1.3326-0.93279-2.0432-2.3986-0.7107-1.4658-0.7107-3.5979 0-2.0432 0.79953-3.4646 0.84395-1.4214 2.2209-2.2654 1.377-0.84395 3.1537-1.1993 1.7767-0.39977 3.6867-0.39977 1.2881 0 2.2653 0.13326 1.0216 0.0888 1.6435 0.26651v-0.62186q0-1.6879-1.0216-2.7095t-3.5535-1.0216q-1.6879 0-3.3314 0.26651-1.6435 0.22209-2.8428 0.66627l-0.84396-5.3302q0.57745-0.17768 1.4214-0.35535 0.88837-0.22209 1.91-0.35535 1.0216-0.17767 2.1321-0.26651 1.1549-0.13325 2.3098-0.13325zm-1.1105-11.504 6.3074 7.1958-3.0205 2.7095-7.329-6.1742z"/>
 </g>
 <g transform="matrix(1.006 0 0 1.006 -311.95 136.9)" fill="#3f7294">
  <path d="m395.66-100.59q-0.48861-1.5991-1.1105-3.287-0.57744-1.6879-1.1549-3.3758h-11.993q-0.57744 1.6879-1.1993 3.3758-0.57744 1.6879-1.066 3.287h-7.1958q1.7323-4.9749 3.287-9.1946 1.5546-4.2198 3.0205-7.9509 1.5102-3.7312 2.9316-7.0625 1.4658-3.3758 3.0204-6.5739h6.6184q1.5102 3.1981 2.976 6.5739 1.4658 3.3314 2.9316 7.0625 1.5102 3.7312 3.0649 7.9509 1.5546 4.2198 3.287 9.1946zm-8.3063-23.808q-0.22209 0.66628-0.66627 1.8212-0.44419 1.1549-1.0216 2.6651-0.57744 1.5102-1.2881 3.3314-0.66628 1.8212-1.377 3.82h8.7504q-0.71069-1.9988-1.377-3.82t-1.2881-3.3314q-0.57744-1.5102-1.0216-2.6651-0.44419-1.1549-0.7107-1.8212z"/>
  <path d="m406.62-123.16q1.6879-0.48861 4.353-0.88837 2.6651-0.44419 5.5967-0.44419 2.976 0 4.9304 0.79954 1.9988 0.75511 3.1537 2.1765t1.6435 3.3758q0.48861 1.9544 0.48861 4.353v13.192h-6.6184v-12.393q0-3.1981-0.84396-4.5307-0.84395-1.3326-3.1537-1.3326-0.71069 0-1.5102 0.0888-0.79954 0.0444-1.4214 0.13325v18.034h-6.6184z"/>
  <path d="m438.46-113.03q0 5.5523 4.4863 5.5523 1.0216 0 1.91-0.26652 0.88837-0.26651 1.5102-0.62185v-10.572q-0.4886-0.0888-1.1549-0.13325-0.66628-0.0888-1.5546-0.0888-2.6207 0-3.9088 1.7323t-1.2881 4.3974zm14.525 9.5056q0 5.73-2.9316 8.4839-2.8872 2.7984-8.9725 2.7984-2.1321 0-4.2642-0.39977-2.1321-0.35535-3.9532-0.97721l1.1549-5.5523q1.5546 0.62186 3.2425 0.97721 1.7323 0.35535 3.9088 0.35535 2.8428 0 3.9977-1.2437 1.1993-1.2437 1.1993-3.1981v-0.84396q-1.066 0.48861-2.2209 0.75512-1.1105 0.22209-2.443 0.22209-4.8416 0-7.4179-2.8428-2.5763-2.8872-2.5763-8.0397 0-2.5763 0.79953-4.6639 0.79953-2.1321 2.3098-3.6423 1.5546-1.5102 3.7756-2.3098 2.2209-0.84395 5.0193-0.84395 1.1993 0 2.443 0.13326 1.2881 0.0888 2.5318 0.26651 1.2437 0.17767 2.3542 0.44418 1.1549 0.2221 2.0432 0.48861z"/>
  <path d="m458.08-112.1q0-3.1093 0.93279-5.4191 0.9772-2.3542 2.5318-3.9088t3.5535-2.3542q2.0432-0.79953 4.1753-0.79953 4.9749 0 7.8621 3.0649 2.8872 3.0205 2.8872 8.9281 0 0.57744-0.0444 1.2881-0.0444 0.66627-0.0888 1.1993h-15.014q0.2221 2.0432 1.91 3.2425t4.5307 1.1993q1.8212 0 3.5535-0.31093 1.7767-0.35534 2.8872-0.84395l0.88837 5.3746q-0.53302 0.26651-1.4214 0.53302t-1.9988 0.44418q-1.066 0.2221-2.3098 0.35535-1.2437 0.13326-2.4874 0.13326-3.1537 0-5.5079-0.93279-2.3098-0.93279-3.8644-2.5318-1.5102-1.6435-2.2654-3.8644-0.71069-2.2209-0.71069-4.7972zm15.546-2.5319q-0.0444-0.84395-0.31093-1.6435-0.22209-0.79953-0.75511-1.4214-0.4886-0.62186-1.2881-1.0216-0.75511-0.39976-1.91-0.39976-1.1105 0-1.91 0.39976-0.79953 0.35535-1.3326 0.97721t-0.84395 1.4658q-0.26651 0.79953-0.39977 1.6435z"/>
  <path d="m499.21-118.09q-0.88837-0.22209-2.0877-0.44418-1.1993-0.26651-2.5763-0.26651-0.62186 0-1.5102 0.13325-0.84395 0.0888-1.2881 0.22209v17.856h-6.6184v-22.12q1.7767-0.62186 4.1753-1.1549 2.443-0.57744 5.419-0.57744 0.53302 0 1.2881 0.0888 0.75511 0.0444 1.5102 0.17767 0.75511 0.0888 1.5102 0.26651 0.75512 0.13326 1.2881 0.35535z"/>
  <path d="m510.58-105.35q1.8212 0 2.5763-0.35535 0.75512-0.35534 0.75512-1.377 0-0.79953-0.97721-1.377-0.9772-0.62186-2.976-1.377-1.5546-0.57744-2.8428-1.1993-1.2437-0.62186-2.1321-1.4658-0.88837-0.88837-1.377-2.0877-0.4886-1.1993-0.4886-2.8872 0-3.287 2.443-5.197t6.7072-1.91q2.1321 0 4.0865 0.39976 1.9544 0.35535 3.1093 0.79954l-1.1549 5.1525q-1.1549-0.39977-2.5319-0.7107-1.3326-0.31093-3.0204-0.31093-3.1093 0-3.1093 1.7323 0 0.39977 0.13326 0.7107t0.53302 0.62186q0.39977 0.26651 1.066 0.62185 0.71069 0.31093 1.7767 0.7107 2.1765 0.79953 3.5979 1.5991 1.4214 0.75511 2.2209 1.6879 0.84395 0.88837 1.1549 1.9988 0.35535 1.1105 0.35535 2.5763 0 3.4646-2.6207 5.2414-2.5763 1.7767-7.329 1.7767-3.1093 0-5.197-0.53303-2.0432-0.53302-2.8428-0.88837l1.1105-5.3746q1.6879 0.66628 3.4646 1.066 1.7767 0.35535 3.5091 0.35535z"/>
 </g>
</svg>
