<svg width="643.75" height="149.67" version="1.1" viewBox="0 0 170.33 39.601" xmlns="http://www.w3.org/2000/svg">
 <g transform="translate(9.4899e-6 -620.05)" fill="#eec818" stroke-width="1.0031">
  <path d="m8.1449 652.11q-2.0463-4.0123-4.1728-9.3887-2.0864-5.3765-3.9722-11.716h6.3394q0.40123 1.5648 0.92283 3.4104 0.56172 1.8055 1.1234 3.6913 0.60184 1.8456 1.1636 3.611 0.60184 1.7654 1.1636 3.2098 0.5216-1.4444 1.1234-3.2098 0.60184-1.7654 1.1636-3.611 0.60184-1.8858 1.1234-3.6913 0.56172-1.8456 0.96295-3.4104h6.1789q-1.8858 6.3394-4.0123 11.716-2.0864 5.3765-4.1327 9.3887z" style="white-space:pre"/>
  <path d="m27.991 652.11h-5.9783v-21.105h5.9783zm0.56172-27.203q0 1.645-1.0833 2.608-1.0432 0.92282-2.4876 0.92282t-2.5277-0.92282q-1.0432-0.96295-1.0432-2.608 0-1.645 1.0432-2.5679 1.0833-0.96295 2.5277-0.96295t2.4876 0.96295q1.0833 0.92283 1.0833 2.5679z" style="white-space:pre"/>
  <path d="m39.211 647.94q0.8827 0 1.6852-0.0401t1.2839-0.12037v-4.5339q-0.3611-0.0802-1.0833-0.16049-0.72221-0.0802-1.3241-0.0802-0.84258 0-1.6049 0.12036-0.72221 0.0802-1.2839 0.36111-0.56172 0.28086-0.8827 0.76233-0.32098 0.48148-0.32098 1.2037 0 1.4043 0.92282 1.966 0.96295 0.5216 2.608 0.5216zm-0.48147-17.494q2.6481 0 4.4135 0.60184t2.8086 1.7253q1.0833 1.1234 1.5247 2.7284 0.44135 1.6049 0.44135 3.5709v12.438q-1.2839 0.28086-3.5709 0.64196-2.287 0.40123-5.537 0.40123-2.0463 0-3.7314-0.3611-1.645-0.36111-2.8487-1.1636-1.2037-0.84257-1.8457-2.1666-0.64196-1.324-0.64196-3.25 0-1.8456 0.72221-3.1296 0.76233-1.2839 2.0061-2.0463 1.2438-0.76233 2.8487-1.0833 1.6049-0.36111 3.3302-0.36111 1.1636 0 2.0463 0.12037 0.92282 0.0802 1.4845 0.24074v-0.56172q0-1.5247-0.92282-2.4475-0.92283-0.92282-3.2098-0.92282-1.5247 0-3.0092 0.24074-1.4845 0.20061-2.5679 0.60184l-0.76233-4.8147q0.5216-0.16049 1.2839-0.32099 0.80246-0.20061 1.7253-0.32098 0.92283-0.16049 1.9259-0.24074 1.0432-0.12036 2.0864-0.12036zm-1.0031-10.392 5.6974 6.4999-2.7284 2.4475-6.6203-5.5771z" style="white-space:pre"/>
 </g>
 <g transform="translate(9.4899e-6 -620.05)" fill="#fff" stroke-width="1.0031">
  <path d="m69.89 652.11q-0.44135-1.4444-1.0031-2.9691-0.5216-1.5247-1.0432-3.0493h-10.833q-0.5216 1.5247-1.0833 3.0493-0.5216 1.5247-0.96295 2.9691h-6.4999q1.5648-4.4938 2.9691-8.3054 1.4043-3.8117 2.7284-7.182 1.3642-3.3703 2.6481-6.3795 1.3241-3.0493 2.7284-5.9382h5.9783q1.3642 2.8888 2.6882 5.9382 1.3241 3.0092 2.6481 6.3795 1.3642 3.3703 2.7685 7.182t2.9691 8.3054zm-7.503-21.506q-0.20061 0.60184-0.60184 1.645-0.40123 1.0432-0.92282 2.4074-0.5216 1.3642-1.1636 3.0092-0.60184 1.645-1.2438 3.4506h7.9042q-0.64197-1.8055-1.2438-3.4506-0.60184-1.645-1.1636-3.0092-0.5216-1.3642-0.92282-2.4074-0.40123-1.0432-0.64197-1.645z" style="white-space:pre"/>
  <path d="m77.339 631.73q1.5247-0.44135 3.932-0.80246 2.4074-0.40123 5.0555-0.40123 2.6882 0 4.4536 0.72221 1.8055 0.68209 2.8487 1.966t1.4845 3.0493q0.44135 1.7654 0.44135 3.932v11.916h-5.9783v-11.194q0-2.8888-0.76233-4.0925t-2.8487-1.2037q-0.64197 0-1.3642 0.0802-0.72221 0.0401-1.2839 0.12037v16.29h-5.9783z" style="white-space:pre"/>
  <path d="m103.6 640.87q0 5.0154 4.0524 5.0154 0.92283 0 1.7253-0.24074 0.80246-0.24073 1.3642-0.56172v-9.5492q-0.44135-0.0802-1.0432-0.12037-0.60185-0.0803-1.4043-0.0803-2.3672 0-3.5308 1.5648t-1.1636 3.9722zm13.12 8.5863q0 5.1758-2.6481 7.6635-2.608 2.5277-8.1048 2.5277-1.9259 0-3.8518-0.36111-1.9259-0.32098-3.5709-0.8827l1.0432-5.0154q1.4043 0.56172 2.929 0.88271 1.5648 0.32098 3.5308 0.32098 2.5679 0 3.611-1.1234 1.0833-1.1234 1.0833-2.8888v-0.76233q-0.96295 0.44135-2.0061 0.68209-1.0031 0.20061-2.2068 0.20061-4.3734 0-6.7005-2.5679-2.3271-2.608-2.3271-7.2622 0-2.3271 0.72221-4.2129 0.72221-1.9259 2.0864-3.2901 1.4043-1.3642 3.4104-2.0864 2.0061-0.76234 4.5339-0.76234 1.0833 0 2.2068 0.12037 1.1636 0.0802 2.287 0.24074 1.1234 0.16049 2.1265 0.40123 1.0432 0.20061 1.8456 0.44135z" style="white-space:pre"/>
  <path d="m118.88 641.72q0-2.8086 0.84258-4.895 0.88271-2.1265 2.287-3.5308t3.2098-2.1265q1.8456-0.72221 3.7716-0.72221 4.4938 0 7.1017 2.7685 2.608 2.7284 2.608 8.0647 0 0.5216-0.0401 1.1636-0.0401 0.60184-0.0803 1.0833h-13.561q0.20061 1.8456 1.7253 2.929t4.0925 1.0833q1.645 0 3.2098-0.28086 1.6049-0.32099 2.608-0.76234l0.80246 4.8549q-0.48147 0.24073-1.2839 0.48147t-1.8055 0.40123q-0.96295 0.20061-2.0864 0.32098t-2.2469 0.12037q-2.8487 0-4.9752-0.84258-2.0864-0.84258-3.4907-2.287-1.3642-1.4846-2.0463-3.4907-0.64197-2.0061-0.64197-4.3333zm14.043-2.287q-0.0401-0.76233-0.28086-1.4845-0.20061-0.72221-0.68209-1.2839-0.44135-0.56172-1.1636-0.92283-0.68209-0.3611-1.7253-0.3611-1.0031 0-1.7253 0.3611-0.72221 0.32098-1.2037 0.8827-0.48148 0.56172-0.76234 1.3241-0.24073 0.72221-0.3611 1.4845z" style="white-space:pre"/>
  <path d="m153.57 636.3q-0.80245-0.20061-1.8858-0.40123-1.0833-0.24073-2.3271-0.24073-0.56172 0-1.3642 0.12036-0.76233 0.0802-1.1636 0.20062v16.129h-5.9783v-19.981q1.6049-0.56172 3.7716-1.0432 2.2068-0.5216 4.895-0.5216 0.48147 0 1.1636 0.0802 0.68209 0.0401 1.3642 0.16049 0.68208 0.0802 1.3642 0.24074 0.68209 0.12037 1.1636 0.32098z" style="white-space:pre"/>
  <path d="m161.38 647.81q1.645 0 2.3271-0.32099 0.68208-0.32098 0.68208-1.2438 0-0.72221-0.8827-1.2438-0.8827-0.56172-2.6882-1.2438-1.4043-0.5216-2.5679-1.0833-1.1234-0.56172-1.9259-1.324-0.80245-0.80246-1.2438-1.8858-0.44136-1.0833-0.44136-2.608 0-2.9691 2.2068-4.6944t6.0586-1.7253q1.9259 0 3.6913 0.3611 1.7654 0.32098 2.8086 0.72221l-1.0432 4.6542q-1.0432-0.3611-2.287-0.64196-1.2037-0.28086-2.7284-0.28086-2.8086 0-2.8086 1.5648 0 0.3611 0.12037 0.64196t0.48147 0.56172q0.36111 0.24074 0.96295 0.56172 0.64197 0.28086 1.6049 0.64197 1.966 0.72221 3.25 1.4444 1.2839 0.68209 2.0061 1.5247 0.76233 0.80246 1.0432 1.8055 0.32099 1.0031 0.32099 2.3271 0 3.1296-2.3672 4.7345-2.3271 1.6049-6.6203 1.6049-2.8086 0-4.6944-0.48147-1.8456-0.48148-2.5679-0.80246l1.0031-4.8549q1.5247 0.60184 3.1296 0.96294 1.6049 0.32099 3.1697 0.32099z" style="white-space:pre"/>
 </g>
</svg>
