<svg width="800" height="110.72" version="1.1" viewBox="0 0 800 110.72" xml:space="preserve" xmlns="http://www.w3.org/2000/svg"><g transform="matrix(1.3333 0 0 -1.3333 .0013333 110.72)" fill="#eec818"><path d="m20.81 1.4305c-3.4843 6.8106-7.0208 14.772-10.611 23.901-3.5877 9.1237-6.9895 19.067-10.2 29.83h16.139c0.68315-2.6582 1.486-5.5349 2.4096-8.6346 0.9248-3.0997 1.8845-6.2296 2.8732-9.3979 0.99335-3.1671 1.9821-6.2471 2.9789-9.2399 0.99103-2.9986 1.967-5.7185 2.9243-8.1768 0.88646 2.4584 1.8415 5.1782 2.8685 8.1768 1.0247 2.9928 2.0367 6.0728 3.0277 9.2399 0.98987 3.1683 1.9426 6.2982 2.8685 9.3979 0.9248 3.0997 1.7276 5.9764 2.4119 8.6346h15.74c-3.2124-10.763-6.6107-20.706-10.195-29.83-3.5854-9.1284-7.1231-17.09-10.603-23.901z"/><path d="m72.827 70.685c0-2.793-0.90157-4.9888-2.7024-6.5886-1.8089-1.5998-3.9351-2.4015-6.3842-2.4015-2.4514 0-4.5834 0.80165-6.3865 2.4015-1.8066 1.5998-2.7047 3.7956-2.7047 6.5886 0 2.7918 0.89808 4.9888 2.7047 6.5886 1.8031 1.5975 3.9351 2.3991 6.3865 2.3991 2.4491 0 4.5752-0.80165 6.3842-2.3991 1.8008-1.5998 2.7024-3.7968 2.7024-6.5886m-1.4244-69.255h-15.223v53.73h15.223z"/><path d="m98.877 56.59c4.4962 0 8.2349-0.51236 11.235-1.5336 2.9963-1.0224 5.4001-2.4863 7.2009-4.394 1.8066-1.9054 3.0811-4.2209 3.834-6.9442 0.74588-2.7245 1.1212-5.7556 1.1212-9.09v-31.668c-2.183-0.47751-5.2096-1.0398-9.0912-1.6835-3.8793-0.64713-8.58-0.97011-14.095-0.97011-3.4738 0-6.6235 0.30788-9.449 0.91783-2.8302 0.61228-5.2607 1.6149-7.3043 3.0137-2.0436 1.3953-3.6086 3.2159-4.6949 5.4617-1.0921 2.2516-1.637 5.0109-1.637 8.2779 0 3.1276 0.62854 5.7882 1.8891 7.9677 1.2594 2.1784 2.944 3.9142 5.0574 5.2073 2.1122 1.2931 4.5288 2.2307 7.2509 2.8081 2.7268 0.58091 5.55 0.8702 8.4801 0.8702 1.9728 0 3.7294-0.08597 5.2584-0.25792 1.5313-0.16846 2.7744-0.38921 3.7294-0.66107v1.4279c0 2.5885-0.7819 4.6658-2.3492 6.2343-1.5684 1.5638-4.2883 2.3469-8.1734 2.3469-2.5862 0-5.1399-0.18589-7.661-0.56232-2.5188-0.37062-4.6972-0.90273-6.5352-1.5812l-1.9402 12.256c0.88298 0.27186 1.9867 0.56348 3.3205 0.86788 1.328 0.30904 2.7733 0.58091 4.3394 0.82024 1.5661 0.23817 3.2171 0.44149 4.9551 0.60995 1.7334 0.16962 3.4901 0.25792 5.2595 0.25792m-2.5014 26.453 14.449-16.544-6.9918-6.2331-16.806 14.199zm3.7294-70.99c1.4941 0 2.9243 0.03369 4.2882 0.10456 1.3628 0.06622 2.4526 0.16614 3.2682 0.30207v11.545c-0.60995 0.13593-1.5301 0.27303-2.757 0.40664-1.228 0.14058-2.3504 0.20564-3.3716 0.20564-1.4279 0-2.7744-0.0883-4.035-0.2556-1.2629-0.17079-2.3643-0.49493-3.3205-0.9736-0.95501-0.47402-1.7021-1.1212-2.2469-1.9356-0.54605-0.82024-0.81908-1.8415-0.81908-3.0649 0-2.3875 0.80165-4.0373 2.4038-4.9551 1.5975-0.92016 3.7956-1.3791 6.5898-1.3791"/></g><g transform="matrix(1.3333 0 0 -1.3333 .0013333 110.72)" fill="#fff"><path d="m167.52 59.96c-7.4252 0-12.786-2.0599-16.09-6.1809-3.2984-4.1198-4.9505-9.7534-4.9505-16.906 0-3.4715 0.40664-6.6235 1.2222-9.449 0.81908-2.8255 2.046-5.2549 3.676-7.3032 1.637-2.0448 3.6806-3.6249 6.1332-4.7483 2.4468-1.1223 5.3106-1.687 8.5788-1.687 1.7683 0 3.2856 0.03718 4.5427 0.1034 1.264 0.0639 2.3666 0.20564 3.3228 0.40664v24.621h15.934v-35.04c-1.9077-0.74588-4.9749-1.5499-9.1946-2.4003-4.2232-0.85161-9.4304-1.2745-15.63-1.2745-5.3095 0-10.124 0.81676-14.449 2.4491-4.3289 1.6382-8.0223 4.0152-11.083 7.1521-3.0649 3.1323-5.4303 6.979-7.1033 11.545-1.6695 4.5624-2.5014 9.7674-2.5014 15.625 0 5.9253 0.92016 11.169 2.7593 15.731 1.8368 4.5601 4.3545 8.429 7.5564 11.595 3.202 3.1648 6.9662 5.5674 11.291 7.1998 4.322 1.6358 8.9344 2.4526 13.838 2.4526 3.3379 0 6.3516-0.22191 9.0424-0.66572 2.6884-0.44149 5.0074-0.95269 6.9465-1.5301 1.9402-0.58091 3.5412-1.1769 4.7971-1.7869 1.2617-0.6146 2.1633-1.0921 2.7105-1.4302l-4.5961-12.768c-2.183 1.156-4.6833 2.1598-7.5088 3.0126-2.8244 0.85045-5.909 1.2768-9.2446 1.2768"/><path d="m229.93 41.675c-1.3675 0.33925-2.965 0.69593-4.8041 1.0735-1.838 0.37178-3.8108 0.56232-5.9206 0.56232-0.95617 0-2.0959-0.08714-3.4204-0.25676-1.3338-0.16846-2.3352-0.36016-3.0161-0.56232v-41.062h-15.221v50.869c2.721 0.95385 5.9415 1.8531 9.6535 2.7059 3.7085 0.85045 7.8457 1.2768 12.408 1.2768 0.81676 0 1.8055-0.05228 2.9638-0.15452 1.1583-0.09875 2.3132-0.23817 3.4715-0.40431 1.1583-0.17427 2.3143-0.37875 3.4715-0.6146 1.1607-0.23817 2.147-0.52979 2.9684-0.86788z"/><path d="m252.81 56.59c4.4974 0 8.2384-0.51236 11.235-1.5336 2.9963-1.0224 5.4013-2.4863 7.2032-4.394 1.8043-1.9054 3.0788-4.2209 3.8305-6.9442 0.74704-2.7245 1.1223-5.7556 1.1223-9.09v-31.668c-2.1807-0.47751-5.2096-1.0398-9.09-1.6835-3.8793-0.64713-8.5812-0.97011-14.095-0.97011-3.4738 0-6.6247 0.30788-9.4502 0.91783-2.8302 0.61228-5.2607 1.6149-7.302 3.0137-2.0448 1.3953-3.6109 3.2159-4.6972 5.4617-1.0909 2.2516-1.6358 5.0109-1.6358 8.2779 0 3.1276 0.62738 5.7882 1.8868 7.9677 1.2617 2.1784 2.9464 3.9142 5.0597 5.2073 2.1098 1.2931 4.5299 2.2307 7.2497 2.8081 2.7268 0.58091 5.55 0.8702 8.4801 0.8702 1.9728 0 3.7294-0.08597 5.2595-0.25792 1.5301-0.16846 2.7732-0.38921 3.7294-0.66107v1.4279c0 2.5885-0.78422 4.6658-2.3504 6.2343-1.5661 1.5638-4.2883 2.3469-8.1734 2.3469-2.5862 0-5.1387-0.18589-7.6598-0.56232-2.5188-0.37062-4.6984-0.90273-6.5352-1.5812l-1.9414 12.256c0.88297 0.27186 1.9902 0.56348 3.3205 0.86788 1.3268 0.30904 2.7732 0.58091 4.3394 0.82024 1.5661 0.23817 3.2171 0.44149 4.9563 0.60995 1.7334 0.16962 3.4889 0.25792 5.2584 0.25792m1.228-44.537c1.4952 0 2.9243 0.03369 4.2882 0.10456 1.364 0.06622 2.4526 0.16614 3.2694 0.30207v11.545c-0.61111 0.13593-1.5313 0.27303-2.757 0.40664-1.228 0.14058-2.3504 0.20564-3.3727 0.20564-1.4279 0-2.7732-0.0883-4.035-0.2556-1.2594-0.17079-2.3631-0.49493-3.3193-0.9736-0.95617-0.47402-1.7021-1.1212-2.2481-1.9356-0.54605-0.82024-0.81792-1.8415-0.81792-3.0649 0-2.3875 0.80166-4.0373 2.4038-4.9551 1.5963-0.92016 3.7945-1.3791 6.5886-1.3791"/><path d="m283.86 53.318c2.5885 0.75053 5.9264 1.4465 10.01 2.0948 4.0849 0.64829 8.3778 0.97244 12.868 0.97244 4.5636 0 8.3616-0.59833 11.39-1.788 3.03-1.1909 5.4315-2.879 7.2009-5.0562 1.7718-2.1796 3.03-4.7669 3.7829-7.7644 0.74705-2.9963 1.1235-6.3307 1.1235-10.01v-30.336h-15.219v28.497c0 4.9052-0.64829 8.3778-1.9472 10.418-1.2908 2.0471-3.7085 3.066-7.2486 3.066-1.0886 0-2.2481-0.05112-3.4727-0.15336-1.2246-0.1034-2.3166-0.22074-3.2659-0.35668v-41.471h-15.223z"/><path d="m385.3 3.169c-1.3651-0.41128-2.9313-0.8063-4.703-1.1769-1.7694-0.37527-3.6225-0.69709-5.5663-0.97012-1.9414-0.27303-3.9142-0.49377-5.9218-0.66223-2.0099-0.17311-3.9351-0.25676-5.7742-0.25676-4.4242 0-8.3732 0.64597-11.847 1.9402-3.4727 1.2919-6.4016 3.1462-8.7868 5.5663-2.3829 2.4177-4.2058 5.3467-5.4628 8.7822-1.2606 3.4436-1.8914 7.3067-1.8914 11.596 0 4.3568 0.54373 8.2907 1.6335 11.796 1.0898 3.5075 2.6582 6.4899 4.7007 8.9402 2.0425 2.4514 4.5439 4.3219 7.5042 5.6174 2.9673 1.2943 6.3528 1.9414 10.166 1.9414 2.1122 0 3.999-0.20332 5.6685-0.6146 1.6718-0.40664 3.353-0.98522 5.0562-1.7346v24.309l15.224 2.4526zm-34.427 25.536c0-4.6995 1.0538-8.4812 3.1683-11.34 2.111-2.8592 5.241-4.2883 9.3956-4.2883 1.364 0 2.6234 0.05112 3.7817 0.15104 1.1537 0.10456 2.1087 0.22074 2.8569 0.36132v27.677c-0.95152 0.6146-2.1935 1.127-3.7294 1.5336-1.5301 0.4078-3.08 0.61344-4.6414 0.61344-7.223 0-10.832-4.904-10.832-14.707"/><path d="m415.73 73.034c10.554 0 18.66-1.8577 24.31-5.5674 5.6522-3.7108 8.4812-9.7883 8.4812-18.231 0-8.5161-2.8604-14.661-8.5788-18.437-5.7254-3.784-13.892-5.6708-24.522-5.6708h-5.0016v-23.698h-15.933v69.765c3.4727 0.67966 7.1498 1.156 11.031 1.4314 3.8793 0.27303 7.2846 0.4078 10.214 0.4078m1.0236-13.584c-1.1583 0-2.3004-0.03485-3.4262-0.10572-1.1235-0.06622-2.0878-0.13245-2.9092-0.20216v-20.429h5.0016c5.5221 0 9.6744 0.74937 12.469 2.2493 2.7872 1.4941 4.1872 4.2883 4.1872 8.3755 0 1.9751-0.359 3.6086-1.0758 4.9017-0.71452 1.2919-1.7323 2.3306-3.0672 3.1171-1.3245 0.7819-2.9417 1.3256-4.8494 1.6347-1.9054 0.3044-4.0152 0.45892-6.3296 0.45892"/><path d="m470.38 56.59c4.4916 0 8.2338-0.51236 11.23-1.5336 2.9998-1.0224 5.4024-2.4863 7.2044-4.394 1.8089-1.9054 3.0834-4.2209 3.834-6.9442 0.74937-2.7245 1.1212-5.7556 1.1212-9.09v-31.668c-2.1807-0.47751-5.2096-1.0398-9.09-1.6835-3.8805-0.64713-8.5812-0.97011-14.095-0.97011-3.4727 0-6.6258 0.30788-9.4502 0.91783-2.829 0.61228-5.2595 1.6149-7.3032 3.0137-2.0425 1.3953-3.6086 3.2159-4.6949 5.4617-1.0909 2.2516-1.6347 5.0109-1.6347 8.2779 0 3.1276 0.62622 5.7882 1.8856 7.9677 1.264 2.1784 2.9464 3.9142 5.0609 5.2073 2.1087 1.2931 4.5264 2.2307 7.2497 2.8081 2.7233 0.58091 5.5477 0.8702 8.4778 0.8702 1.9774 0 3.7283-0.08597 5.2607-0.25792 1.5301-0.16846 2.7744-0.38921 3.7271-0.66107v1.4279c0 2.5885-0.7819 4.6658-2.3504 6.2343-1.5638 1.5638-4.2883 2.3469-8.171 2.3469-2.5862 0-5.1399-0.18589-7.6622-0.56232-2.5176-0.37062-4.6949-0.90273-6.5317-1.5812l-1.9437 12.256c0.88182 0.27186 1.9914 0.56348 3.3193 0.86788 1.3291 0.30904 2.7732 0.58091 4.3417 0.82024 1.5673 0.23817 3.2171 0.44149 4.9551 0.60995 1.7346 0.16962 3.4901 0.25792 5.2595 0.25792m1.228-44.537c1.4929 0 2.9243 0.03369 4.2882 0.10456 1.3616 0.06622 2.4514 0.16614 3.267 0.30207v11.545c-0.60879 0.13593-1.5301 0.27303-2.757 0.40664-1.2246 0.14058-2.348 0.20564-3.3728 0.20564-1.4255 0-2.7721-0.0883-4.0303-0.2556-1.2664-0.17079-2.3724-0.49493-3.324-0.9736-0.95385-0.47402-1.6997-1.1212-2.2435-1.9356-0.5507-0.82024-0.82141-1.8415-0.82141-3.0649 0-2.3875 0.80049-4.0373 2.4026-4.9551 1.5987-0.92016 3.7968-1.3791 6.591-1.3791"/><path d="m533.82 41.675c-1.3686 0.33925-2.965 0.69593-4.8041 1.0735-1.838 0.37178-3.8131 0.56232-5.9218 0.56232-0.95617 0-2.0948-0.08714-3.4204-0.25676-1.3326-0.16846-2.3364-0.36016-3.0149-0.56232v-41.062h-15.221v50.869c2.7198 0.95385 5.9415 1.8531 9.6535 2.7059 3.7085 0.85045 7.8469 1.2768 12.412 1.2768 0.81443 0 1.7996-0.05228 2.958-0.15452 1.1606-0.09875 2.3155-0.23817 3.4727-0.40431 1.1583-0.17427 2.3155-0.37875 3.4727-0.6146 1.1595-0.23817 2.1482-0.52979 2.9673-0.86788z"/><path d="m555.06 70.685c0-2.793-0.90389-4.9888-2.707-6.5886-1.8055-1.5998-3.9316-2.4015-6.3818-2.4015-2.4526 0-4.5845 0.80165-6.3842 2.4015-1.8078 1.5998-2.7059 3.7956-2.7059 6.5886 0 2.7918 0.89808 4.9888 2.7059 6.5886 1.7996 1.5975 3.9316 2.3991 6.3842 2.3991 2.4503 0 4.5764-0.80165 6.3818-2.3991 1.8031-1.5998 2.707-3.7968 2.707-6.5886m-1.4279-69.255h-15.221v53.73h15.221z"/><path d="m577.22 12.359c2.7895 0 4.7611 0.26954 5.9229 0.81211 1.1583 0.55186 1.7381 1.6056 1.7381 3.1752 0 1.2211-0.75401 2.2969-2.2516 3.2147-1.4999 0.92016-3.7747 1.9507-6.8408 3.1148-2.3864 0.8853-4.5462 1.8055-6.4852 2.7558-1.9437 0.95501-3.5935 2.0936-4.9551 3.4227-1.3651 1.3291-2.4212 2.9127-3.1671 4.7483-0.75053 1.8415-1.1223 4.0547-1.1223 6.6409 0 5.0411 1.8682 9.0238 5.6162 11.954 3.7434 2.9243 8.8867 4.3905 15.425 4.3905 3.2682 0 6.3993-0.28929 9.3956-0.86788 2.9963-0.57742 5.378-1.2094 7.1533-1.8903l-2.6571-11.848c-1.7741 0.61111-3.6992 1.156-5.7707 1.6323-2.0785 0.47518-4.4137 0.718-6.9976 0.718-4.7681 0-7.151-1.3303-7.151-3.9862 0-0.61111 0.0999-1.1572 0.30904-1.6323 0.20332-0.47751 0.60995-0.93875 1.2211-1.3791 0.61692-0.44381 1.4476-0.92132 2.5002-1.4383 1.0584-0.51585 2.405-1.0816 4.0396-1.6974 3.3332-1.2362 6.0937-2.4584 8.2733-3.6539 2.1819-1.2036 3.899-2.5025 5.1585-3.8967 1.2582-1.3895 2.147-2.9336 2.6571-4.6345 0.51003-1.6951 0.76331-3.6713 0.76331-5.9125 0-5.3014-1.989-9.3096-5.9729-12.027-3.985-2.7198-9.621-4.0745-16.908-4.0745-4.7658 0-8.7322 0.40664-11.9 1.2246-3.1659 0.81792-5.3594 1.4953-6.5852 2.0413l2.5525 12.363c2.5885-1.0224 5.2421-1.824 7.9642-2.4015 2.7279-0.57974 5.4164-0.86788 8.0746-0.86788"/></g></svg>
