<svg width="1235.5pt" height="451.5pt" version="1.1" viewBox="0 0 1235.5 451.5" xmlns="http://www.w3.org/2000/svg">
 <defs>
  <linearGradient id="c" x1="735.25" x2="788" y1="220.8" y2="2.4158" gradientTransform="matrix(2.0219 0 0 2.0219 -384.13 .19672)" gradientUnits="userSpaceOnUse">
   <stop stop-color="#900f25" offset="0"/>
   <stop stop-color="#d51a2f" offset="1"/>
  </linearGradient>
  <linearGradient id="b" x1="476.8" x2="476.8" y1="297.03" y2="6.3259" gradientTransform="matrix(1.5164 0 0 1.5164 -384.13 .19672)" gradientUnits="userSpaceOnUse">
   <stop stop-color="#8f0e24" offset="0"/>
   <stop stop-color="#c8172b" offset="1"/>
  </linearGradient>
  <linearGradient id="a" x1="637.95" x2="729.32" y1="164.88" y2="204.11" gradientTransform="matrix(2.0219 0 0 2.0219 -384.13 .19672)" gradientUnits="userSpaceOnUse">
   <stop stop-color="#8f0e24" stop-opacity="0" offset="0"/>
   <stop stop-color="#550a0f" offset="1"/>
  </linearGradient>
 </defs>
 <path d="m87.995 8.9107-87.995 441.76v0.82929l1180.1-0.41465 2.2391-442.17z" fill="url(#b)" stroke-width="2.0219"/>
 <path d="m87.995 8.9106-87.995 441.76v0.82931l1180.1-0.41465 2.2391-442.17z" fill="url(#a)" stroke-width="2.0219"/>
 <path d="m1176.7 0 58.734 8.4212-55.311 442.66-128.15-6.8962z" fill="url(#c)" stroke-width="2.0219"/>
 <g transform="matrix(2.2158 0 0 2.2158 -22.02 -26.836)" fill="#fff">
  <path d="m98.09 45.435h21.06l-0.48 93.955 30.53-93.955h20.22l-49.44 139.19h-16.88z"/>
  <path d="m177.18 45.435h21.04l-22.06 139.19h-21.05z"/>
  <path d="m237.16 45.435h16.69l8.01 139.19h-21.27l-0.9-26.455h-24.86l-9.22 26.455h-20.91l52.46-139.19m-16.33 95.695h18.43l0.26-59.32z"/>
  <path d="m312.41 45.435h21.03l-15.71 99.785c-1.73 10.8-3.28 22.4-10.32 31.23-5.08 6.49-13.35 9.65-21.41 10.03-6.72 0.45-13.69-0.64-19.55-4.11l3.41-21.75c3.75 2.43 7.53 5.52 12.2 5.71 3.94 0.16 8.18-1.48 10.23-5.01 2.88-4.85 3.23-10.64 4.24-16.07z"/>
  <path d="m422.92 45.435h21.543c4.3297 0 9.3191-0.04697 11.085 0.17607 7.4394 0.92492 15.06 4.3529 18.333 11.459 4.79 10.33 2.79 22.27 0.17 32.92-3.14 11.73-9.91 24.38-22.41 27.98l14.75 66.655h-21.77l-12.98-61.255-9.72 61.255h-21.07l22.07-139.19m18.29 17.885-6.71 42.57c4.55-0.06 9.35-1.43 12.39-5.02 4.86-5.59 5.87-13.3 6.88-20.37 0.44-4.7 1.04-10.15-2.05-14.13-2.58-3.03-6.88-2.94-10.51-3.05z"/>
  <path d="m367.36 45.435h16.69l8.01 139.19h-21.27l-0.9-26.455h-24.86l-9.22 26.455h-20.91l52.46-139.19m-16.33 95.695h18.43l0.26-59.32z"/>
 </g>
</svg>
