<svg width="211.67mm" height="31.306mm" version="1.1" viewBox="0 0 211.67 31.306" xmlns="http://www.w3.org/2000/svg">
 <g transform="matrix(.86694 0 0 .86694 -268.82 -28.76)" fill="#eec818">
  <path d="m319.1 68.663q-2.2653-4.4418-4.6195-10.394-2.3098-5.9521-4.3974-12.97h7.0181q0.44418 1.7323 1.0216 3.7756 0.62186 1.9988 1.2437 4.0865 0.66628 2.0432 1.2881 3.9977 0.66628 1.9544 1.2881 3.5535 0.57744-1.5991 1.2437-3.5535 0.66627-1.9544 1.2881-3.9977 0.66628-2.0877 1.2437-4.0865 0.62186-2.0432 1.066-3.7756h6.8404q-2.0877 7.0181-4.4418 12.97-2.3098 5.9521-4.5751 10.394z"/>
  <path d="m343.83 68.663h-6.6184v-23.364h6.6184zm0.62185-30.116q0 1.8212-1.1993 2.8872-1.1549 1.0216-2.754 1.0216t-2.7984-1.0216q-1.1549-1.066-1.1549-2.8872t1.1549-2.8428q1.1993-1.066 2.7984-1.066t2.754 1.066q1.1993 1.0216 1.1993 2.8428z"/>
  <path d="m358.98 64.044q0.9772 0 1.8656-0.04442t1.4214-0.13326v-5.0193q-0.39976-0.08884-1.1993-0.17767-0.79954-0.08884-1.4658-0.08884-0.93279 0-1.7767 0.13326-0.79953 0.08884-1.4214 0.39977-0.62186 0.31093-0.97721 0.84395t-0.35535 1.3326q0 1.5546 1.0216 2.1765 1.066 0.57744 2.8872 0.57744zm-0.53302-19.366q2.9316 0 4.886 0.66628t3.1093 1.91q1.1993 1.2437 1.6879 3.0205 0.4886 1.7767 0.4886 3.9532v13.77q-1.4214 0.31093-3.9532 0.7107-2.5318 0.44418-6.1298 0.44418-2.2653 0-4.1309-0.39977-1.8212-0.39977-3.1537-1.2881-1.3326-0.93279-2.0432-2.3986-0.7107-1.4658-0.7107-3.5979 0-2.0432 0.79953-3.4646 0.84395-1.4214 2.2209-2.2653 1.377-0.84395 3.1537-1.1993 1.7767-0.39977 3.6867-0.39977 1.2881 0 2.2653 0.13326 1.0216 0.08884 1.6435 0.26651v-0.62186q0-1.6879-1.0216-2.7095t-3.5535-1.0216q-1.6879 0-3.3314 0.26651-1.6435 0.22209-2.8428 0.66628l-0.84396-5.3302q0.57745-0.17767 1.4214-0.35535 0.88837-0.22209 1.91-0.35535 1.0216-0.17767 2.1321-0.26651 1.1549-0.13326 2.3098-0.13326zm-1.1105-11.504 6.3074 7.1958-3.0205 2.7095-7.329-6.1742z"/>
 </g>
 <g fill="#3f7294">
  <g transform="matrix(3.6386 0 0 3.6386 -105.67 173.16)" style="shape-inside:url(#rect863);white-space:pre" aria-label="Moselle">
   <path d="m46.468-46.469q0.1905 0.34925 0.43392 0.86783 0.254 0.508 0.51858 1.1112 0.27517 0.59266 0.53975 1.2171 0.26458 0.62442 0.49742 1.1747 0.23283-0.55033 0.49742-1.1747 0.26458-0.62442 0.52916-1.2171 0.27516-0.60325 0.51858-1.1112 0.254-0.51858 0.4445-0.86783h1.5028q0.10583 0.73025 0.1905 1.6404 0.09525 0.89958 0.15875 1.8838 0.07408 0.97366 0.127 1.9579 0.0635 0.98425 0.10583 1.8521h-1.6087q-0.03175-1.0689-0.08467-2.3283t-0.15875-2.54q-0.1905 0.4445-0.42333 0.98425t-0.46566 1.0795q-0.22225 0.53975-0.43392 1.0372-0.21167 0.48683-0.35983 0.83608h-1.1536q-0.14817-0.34925-0.35983-0.83608-0.21167-0.49742-0.4445-1.0372-0.22225-0.53975-0.45508-1.0795t-0.42333-0.98425q-0.10583 1.2806-0.15875 2.54t-0.08467 2.3283h-1.6087q0.04233-0.86783 0.09525-1.8521 0.0635-0.98425 0.127-1.9579 0.07408-0.98425 0.15875-1.8838 0.09525-0.91016 0.20108-1.6404z"/>
   <path d="m59.115-41.929q0 0.65616-0.1905 1.2065-0.1905 0.53975-0.55033 0.93133-0.35983 0.381-0.86783 0.59266-0.49742 0.21167-1.1218 0.21167-0.61383 0-1.1218-0.21167-0.49742-0.21167-0.85725-0.59266-0.35983-0.39158-0.56092-0.93133-0.20108-0.55033-0.20108-1.2065t0.20108-1.1959q0.21167-0.53975 0.5715-0.92075 0.37042-0.381 0.86783-0.59266 0.508-0.21167 1.1007-0.21167 0.60325 0 1.1007 0.21167 0.508 0.21167 0.86783 0.59266 0.35983 0.381 0.56092 0.92075 0.20108 0.53975 0.20108 1.1959zm-1.6087 0q0-0.73025-0.29633-1.143-0.28575-0.42333-0.8255-0.42333t-0.83608 0.42333q-0.29633 0.41275-0.29633 1.143t0.29633 1.1642q0.29633 0.42333 0.83608 0.42333t0.8255-0.42333q0.29633-0.43392 0.29633-1.1642z"/>
   <path d="m61.93-40.267q0.43392 0 0.61383-0.08467t0.17992-0.32808q0-0.1905-0.23283-0.32808-0.23283-0.14817-0.70908-0.32808-0.37042-0.13758-0.67733-0.28575-0.29633-0.14817-0.508-0.34925-0.21167-0.21167-0.32808-0.49742-0.11642-0.28575-0.11642-0.68792 0-0.78316 0.58208-1.2382 0.58208-0.45508 1.5981-0.45508 0.508 0 0.97366 0.09525 0.46566 0.08467 0.74083 0.1905l-0.27516 1.2277q-0.27517-0.09525-0.60325-0.16933-0.3175-0.07408-0.71966-0.07408-0.74083 0-0.74083 0.41275 0 0.09525 0.03175 0.16933t0.127 0.14817q0.09525 0.0635 0.254 0.14817 0.16933 0.07408 0.42333 0.16933 0.51858 0.1905 0.85725 0.381 0.33867 0.17992 0.52916 0.40216 0.20108 0.21167 0.27517 0.47625 0.08467 0.26458 0.08467 0.61383 0 0.8255-0.62441 1.2488-0.61383 0.42333-1.7462 0.42333-0.74083 0-1.2382-0.127-0.48683-0.127-0.67733-0.21167l0.26458-1.2806q0.40216 0.15875 0.8255 0.254 0.42333 0.08467 0.83608 0.08467z"/>
   <path d="m65.2-41.876q0-0.74083 0.22225-1.2912 0.23283-0.56092 0.60325-0.93133 0.37042-0.37042 0.84666-0.56092 0.48683-0.1905 0.99483-0.1905 1.1853 0 1.8732 0.73025 0.68792 0.71966 0.68792 2.1272 0 0.13758-0.01058 0.30692-0.01058 0.15875-0.02117 0.28575h-3.5772q0.05292 0.48683 0.45508 0.77258 0.40217 0.28575 1.0795 0.28575 0.43392 0 0.84666-0.07408 0.42333-0.08467 0.68791-0.20108l0.21167 1.2806q-0.127 0.0635-0.33866 0.127t-0.47625 0.10583q-0.254 0.05292-0.55033 0.08467t-0.59266 0.03175q-0.75141 0-1.3123-0.22225-0.55033-0.22225-0.92075-0.60325-0.35983-0.39158-0.53975-0.92075-0.16933-0.52916-0.16933-1.143zm3.7042-0.60325q-0.01058-0.20108-0.07408-0.39158-0.05292-0.1905-0.17992-0.33866-0.11642-0.14817-0.30692-0.24342-0.17992-0.09525-0.45508-0.09525-0.26458 0-0.45508 0.09525-0.1905 0.08467-0.3175 0.23283-0.127 0.14817-0.20108 0.34925-0.0635 0.1905-0.09525 0.39158z"/>
   <path d="m73.868-39.029q-0.68791-0.01058-1.1218-0.14817-0.42333-0.13758-0.67733-0.381-0.24342-0.254-0.33866-0.60325-0.08467-0.35983-0.08467-0.80433v-6.1277l1.5769-0.254v6.0642q0 0.21167 0.03175 0.381t0.11642 0.28575q0.09525 0.11642 0.26458 0.1905t0.45508 0.09525z"/>
   <path d="m77.212-39.029q-0.68791-0.01058-1.1218-0.14817-0.42333-0.13758-0.67733-0.381-0.24342-0.254-0.33866-0.60325-0.08467-0.35983-0.08467-0.80433v-6.1277l1.5769-0.254v6.0642q0 0.21167 0.03175 0.381t0.11642 0.28575q0.09525 0.11642 0.26458 0.1905t0.45508 0.09525z"/>
   <path d="m78.07-41.876q0-0.74083 0.22225-1.2912 0.23283-0.56092 0.60325-0.93133 0.37042-0.37042 0.84666-0.56092 0.48683-0.1905 0.99483-0.1905 1.1853 0 1.8732 0.73025 0.68791 0.71966 0.68791 2.1272 0 0.13758-0.01058 0.30692-0.01058 0.15875-0.02117 0.28575h-3.5772q0.05292 0.48683 0.45508 0.77258t1.0795 0.28575q0.43392 0 0.84666-0.07408 0.42333-0.08467 0.68792-0.20108l0.21167 1.2806q-0.127 0.0635-0.33867 0.127t-0.47625 0.10583q-0.254 0.05292-0.55033 0.08467t-0.59266 0.03175q-0.75142 0-1.3123-0.22225-0.55033-0.22225-0.92075-0.60325-0.35983-0.39158-0.53975-0.92075-0.16933-0.52916-0.16933-1.143zm3.7042-0.60325q-0.01058-0.20108-0.07408-0.39158-0.05292-0.1905-0.17992-0.33866-0.11642-0.14817-0.30692-0.24342-0.17992-0.09525-0.45508-0.09525-0.26458 0-0.45508 0.09525-0.1905 0.08467-0.3175 0.23283-0.127 0.14817-0.20108 0.34925-0.0635 0.1905-0.09525 0.39158z"/>
  </g>
  <g stroke-width=".22649">
   <path d="m205.41 0.38721c-3.7915 0-9.4134 0.42692-9.4134 5.4936 0 4.6009 3.3415 8.3033 8.1222 8.3033 3.8314 0 7.5444-3.2513 7.5444-8.4612-0.0244-3.8428-2.5735-5.3357-6.2531-5.3357zm-0.27311 1.0841c3.1048 0 5.2559 1.2595 5.2765 4.502 0 4.396-3.1333 7.1394-6.3661 7.1394-4.0338 0-6.853-3.1243-6.853-7.0065 0-4.2752 4.7434-4.635 7.9427-4.635z"/>
   <path d="m203.73 4.2092 2.3632 6.0769h1.3206l2.3632-6.0769h-1.3985l-1.625 4.4134-1.625-4.4134z"/>
   <path d="m198.17 5.4844h1.7962v4.8017h1.3589v-4.8017h1.7959v-1.2752h-4.951z"/>
  </g>
 </g>
</svg>
