<svg width="211.67mm" height="29.205mm" version="1.1" viewBox="0 0 211.67 29.205" xmlns="http://www.w3.org/2000/svg">
 <g transform="matrix(.80873 0 0 .80873 -250.77 -26.828)" fill="#eec818">
  <path d="m319.1 68.663q-2.2653-4.4418-4.6195-10.394-2.3098-5.9521-4.3974-12.97h7.0181q0.44418 1.7323 1.0216 3.7756 0.62186 1.9988 1.2437 4.0865 0.66628 2.0432 1.2881 3.9977 0.66628 1.9544 1.2881 3.5535 0.57744-1.5991 1.2437-3.5535 0.66627-1.9544 1.2881-3.9977 0.66628-2.0877 1.2437-4.0865 0.62186-2.0432 1.066-3.7756h6.8404q-2.0877 7.0181-4.4418 12.97-2.3098 5.9521-4.5751 10.394z"/>
  <path d="m343.83 68.663h-6.6184v-23.364h6.6184zm0.62185-30.116q0 1.8212-1.1993 2.8872-1.1549 1.0216-2.754 1.0216t-2.7984-1.0216q-1.1549-1.066-1.1549-2.8872t1.1549-2.8428q1.1993-1.066 2.7984-1.066t2.754 1.066q1.1993 1.0216 1.1993 2.8428z"/>
  <path d="m358.98 64.044q0.9772 0 1.8656-0.04442t1.4214-0.13326v-5.0193q-0.39976-0.08884-1.1993-0.17767-0.79954-0.08884-1.4658-0.08884-0.93279 0-1.7767 0.13326-0.79953 0.08884-1.4214 0.39977-0.62186 0.31093-0.97721 0.84395t-0.35535 1.3326q0 1.5546 1.0216 2.1765 1.066 0.57744 2.8872 0.57744zm-0.53302-19.366q2.9316 0 4.886 0.66628t3.1093 1.91q1.1993 1.2437 1.6879 3.0205 0.4886 1.7767 0.4886 3.9532v13.77q-1.4214 0.31093-3.9532 0.7107-2.5318 0.44418-6.1298 0.44418-2.2653 0-4.1309-0.39977-1.8212-0.39977-3.1537-1.2881-1.3326-0.93279-2.0432-2.3986-0.7107-1.4658-0.7107-3.5979 0-2.0432 0.79953-3.4646 0.84395-1.4214 2.2209-2.2653 1.377-0.84395 3.1537-1.1993 1.7767-0.39977 3.6867-0.39977 1.2881 0 2.2653 0.13326 1.0216 0.08884 1.6435 0.26651v-0.62186q0-1.6879-1.0216-2.7095t-3.5535-1.0216q-1.6879 0-3.3314 0.26651-1.6435 0.22209-2.8428 0.66628l-0.84396-5.3302q0.57745-0.17767 1.4214-0.35535 0.88837-0.22209 1.91-0.35535 1.0216-0.17767 2.1321-0.26651 1.1549-0.13326 2.3098-0.13326zm-1.1105-11.504 6.3074 7.1958-3.0205 2.7095-7.329-6.1742z"/>
 </g>
 <g transform="matrix(.80873 0 0 .80873 -250.77 -26.828)" fill="#fff">
  <path d="m383.22 37.881q0.79953 1.4658 1.8212 3.6423 1.066 2.1321 2.1765 4.6639 1.1549 2.4874 2.2653 5.1081 1.1105 2.6207 2.0877 4.9304 0.9772-2.3098 2.0877-4.9304 1.1105-2.6207 2.2209-5.1081 1.1549-2.5319 2.1765-4.6639 1.066-2.1765 1.8656-3.6423h6.3074q0.44418 3.0649 0.79953 6.8849 0.39977 3.7756 0.66628 7.9065 0.31093 4.0865 0.53302 8.2174 0.26651 4.1309 0.44419 7.7732h-6.7516q-0.13326-4.4863-0.35535-9.7721t-0.66628-10.66q-0.79953 1.8656-1.7767 4.1309-0.97721 2.2653-1.9544 4.5307-0.93278 2.2653-1.8212 4.353-0.88837 2.0432-1.5102 3.5091h-4.8416q-0.62186-1.4658-1.5102-3.5091-0.88837-2.0877-1.8656-4.353-0.93278-2.2653-1.91-4.5307-0.97721-2.2653-1.7767-4.1309-0.44418 5.3746-0.66628 10.66-0.22209 5.2858-0.35534 9.7721h-6.7516q0.17767-3.6423 0.39977-7.7732 0.26651-4.1309 0.53302-8.2174 0.31093-4.1309 0.66627-7.9065 0.39977-3.82 0.84395-6.8849z"/>
  <path d="m421.04 68.663h-6.6184v-23.364h6.6184zm0.62186-30.116q0 1.8212-1.1993 2.8872-1.1549 1.0216-2.754 1.0216t-2.7984-1.0216q-1.1549-1.066-1.1549-2.8872t1.1549-2.8428q1.1993-1.066 2.7984-1.066t2.754 1.066q1.1993 1.0216 1.1993 2.8428z"/>
  <path d="m441.34 51.162q-0.88837-0.22209-2.0877-0.44418-1.1993-0.26651-2.5763-0.26651-0.62185 0-1.5102 0.13326-0.84395 0.08884-1.2881 0.22209v17.856h-6.6184v-22.12q1.7767-0.62186 4.1753-1.1549 2.443-0.57744 5.419-0.57744 0.53302 0 1.2881 0.08884 0.75512 0.04442 1.5102 0.17767 0.75511 0.08884 1.5102 0.26651 0.75511 0.13326 1.2881 0.35535z"/>
  <path d="m454.5 64.044q0.97721 0 1.8656-0.04442t1.4214-0.13326v-5.0193q-0.39977-0.08884-1.1993-0.17767-0.79953-0.08884-1.4658-0.08884-0.93279 0-1.7767 0.13326-0.79953 0.08884-1.4214 0.39977-0.62186 0.31093-0.97721 0.84395-0.35534 0.53302-0.35534 1.3326 0 1.5546 1.0216 2.1765 1.066 0.57744 2.8872 0.57744zm-0.53302-19.366q2.9316 0 4.886 0.66628t3.1093 1.91q1.1993 1.2437 1.6879 3.0205 0.4886 1.7767 0.4886 3.9532v13.77q-1.4214 0.31093-3.9532 0.7107-2.5319 0.44418-6.1298 0.44418-2.2653 0-4.1309-0.39977-1.8212-0.39977-3.1537-1.2881-1.3326-0.93279-2.0432-2.3986-0.7107-1.4658-0.7107-3.5979 0-2.0432 0.79954-3.4646 0.84395-1.4214 2.2209-2.2653t3.1537-1.1993q1.7767-0.39977 3.6867-0.39977 1.2881 0 2.2654 0.13326 1.0216 0.08884 1.6435 0.26651v-0.62186q0-1.6879-1.0216-2.7095t-3.5535-1.0216q-1.6879 0-3.3314 0.26651-1.6435 0.22209-2.8428 0.66628l-0.84395-5.3302q0.57744-0.17767 1.4214-0.35535 0.88837-0.22209 1.91-0.35535 1.0216-0.17767 2.1321-0.26651 1.1549-0.13326 2.3098-0.13326z"/>
  <path d="m485.09 56.803q0-6.3963-4.7084-6.3963-1.0216 0-2.0432 0.26651-0.9772 0.26651-1.5991 0.66628v12.037q0.4886 0.08884 1.2437 0.17767 0.75511 0.04442 1.6435 0.04442 2.7095 0 4.0865-1.8656t1.377-4.9304zm6.7516 0.17767q0 2.7984-0.84395 5.0637-0.79954 2.2653-2.3542 3.8644-1.5546 1.5991-3.82 2.4874-2.2653 0.84395-5.1525 0.84395-1.1993 0-2.5319-0.13326-1.2881-0.08884-2.5763-0.26651-1.2437-0.17767-2.3986-0.39977-1.1549-0.26651-2.0432-0.53302v-32.648l6.6184-1.066v11.638q1.1105-0.4886 2.3098-0.75511t2.5763-0.26651q2.4874 0 4.3974 0.88837 1.91 0.84395 3.1981 2.443 1.2881 1.5991 1.9544 3.8644 0.66628 2.2209 0.66628 4.9749z"/>
  <path d="m495.82 57.159q0-3.1093 0.93279-5.4191 0.9772-2.3542 2.5318-3.9088t3.5535-2.3542q2.0432-0.79953 4.1753-0.79953 4.9749 0 7.8621 3.0649 2.8872 3.0205 2.8872 8.9281 0 0.57744-0.0444 1.2881-0.0444 0.66628-0.0888 1.1993h-15.013q0.2221 2.0432 1.91 3.2425t4.5307 1.1993q1.8212 0 3.5535-0.31093 1.7767-0.35535 2.8872-0.84395l0.88837 5.3746q-0.53302 0.26651-1.4214 0.53302-0.88837 0.26651-1.9988 0.44418-1.066 0.22209-2.3098 0.35535-1.2437 0.13326-2.4874 0.13326-3.1537 0-5.5079-0.93279-2.3098-0.93279-3.8644-2.5319-1.5102-1.6435-2.2654-3.8644-0.71069-2.2209-0.71069-4.7972zm15.546-2.5319q-0.0444-0.84395-0.31093-1.6435-0.22209-0.79953-0.75511-1.4214-0.48861-0.62186-1.2881-1.0216-0.75511-0.39977-1.91-0.39977-1.1105 0-1.91 0.39977-0.79953 0.35535-1.3326 0.97721-0.53302 0.62186-0.84395 1.4658-0.26651 0.79953-0.39977 1.6435z"/>
  <path d="m532.2 69.107q-2.8872-0.04442-4.7084-0.62186-1.7767-0.57744-2.8428-1.5991-1.0216-1.066-1.4214-2.5319-0.35535-1.5102-0.35535-3.3758v-25.718l6.6184-1.066v25.452q0 0.88837 0.13326 1.5991 0.13325 0.7107 0.4886 1.1993 0.39977 0.4886 1.1105 0.79953 0.7107 0.31093 1.91 0.39977z"/>
  <path d="m546.25 69.107q-2.8872-0.04442-4.7084-0.62186-1.7767-0.57744-2.8428-1.5991-1.0216-1.066-1.4214-2.5319-0.35535-1.5102-0.35535-3.3758v-25.718l6.6184-1.066v25.452q0 0.88837 0.13326 1.5991 0.13325 0.7107 0.4886 1.1993 0.39977 0.4886 1.1105 0.79953 0.7107 0.31093 1.91 0.39977z"/>
  <path d="m549.87 57.159q0-3.1093 0.93279-5.4191 0.9772-2.3542 2.5318-3.9088t3.5535-2.3542q2.0432-0.79953 4.1753-0.79953 4.9749 0 7.8621 3.0649 2.8872 3.0205 2.8872 8.9281 0 0.57744-0.0444 1.2881-0.0444 0.66628-0.0888 1.1993h-15.013q0.22209 2.0432 1.91 3.2425 1.6879 1.1993 4.5307 1.1993 1.8212 0 3.5535-0.31093 1.7767-0.35535 2.8872-0.84395l0.88837 5.3746q-0.53302 0.26651-1.4214 0.53302-0.88837 0.26651-1.9988 0.44418-1.066 0.22209-2.3098 0.35535-1.2437 0.13326-2.4874 0.13326-3.1537 0-5.5079-0.93279-2.3098-0.93279-3.8644-2.5319-1.5102-1.6435-2.2653-3.8644-0.7107-2.2209-0.7107-4.7972zm15.546-2.5319q-0.0444-0.84395-0.31093-1.6435-0.22209-0.79953-0.75511-1.4214-0.4886-0.62186-1.2881-1.0216-0.75511-0.39977-1.91-0.39977-1.1105 0-1.91 0.39977-0.79954 0.35535-1.3326 0.97721-0.53302 0.62186-0.84395 1.4658-0.26651 0.79953-0.39976 1.6435z"/>
 </g>
</svg>
