<svg width="800" height="182.32" version="1.1" viewBox="0 0 211.67 48.239" xmlns="http://www.w3.org/2000/svg">
 <g transform="translate(7.7159e-6 -405.83)" fill="#eec818" stroke-width="1.0265">
  <path d="m8.3352 438.63q-2.0941-4.106-4.2703-9.6081-2.1351-5.5021-4.065-11.99h6.4875q0.4106 1.6014 0.94439 3.4901 0.57484 1.8477 1.1497 3.7776 0.61591 1.8888 1.1908 3.6954 0.6159 1.8066 1.1907 3.2848 0.53378-1.4782 1.1497-3.2848 0.6159-1.8067 1.1908-3.6954 0.6159-1.9298 1.1497-3.7776 0.57484-1.8888 0.98545-3.4901h6.3233q-1.9298 6.4875-4.106 11.99-2.1351 5.5021-4.2292 9.6081z" style="white-space:pre"/>
  <path d="m28.645 438.63h-6.118v-21.598h6.118zm0.57484-27.839q0 1.6835-1.1086 2.6689-1.0676 0.94438-2.5457 0.94438-1.4782 0-2.5868-0.94438-1.0676-0.98545-1.0676-2.6689 0-1.6835 1.0676-2.6279 1.1086-0.98545 2.5868-0.98545t2.5457 0.98545q1.1086 0.94439 1.1086 2.6279z" style="white-space:pre"/>
  <path d="m40.127 434.36q0.90333 0 1.7245-0.0411t1.3139-0.12318v-4.6398q-0.36954-0.0821-1.1086-0.16424-0.73909-0.0821-1.355-0.0821-0.86227 0-1.6424 0.12318-0.73909 0.0821-1.3139 0.36954-0.57484 0.28743-0.90333 0.78015-0.32848 0.49272-0.32848 1.2318 0 1.4371 0.94439 2.012 0.98545 0.53378 2.6689 0.53378zm-0.49272-17.902q2.71 0 4.5166 0.61591 1.8067 0.6159 2.8742 1.7656 1.1086 1.1497 1.5603 2.7921 0.45166 1.6424 0.45166 3.6544v12.729q-1.3139 0.28743-3.6544 0.65697-2.3404 0.4106-5.6663 0.4106-2.0941 0-3.8186-0.36954-1.6835-0.36954-2.9153-1.1908-1.2318-0.86227-1.8888-2.2173-0.65697-1.355-0.65697-3.3259 0-1.8888 0.73909-3.2027 0.78015-1.3139 2.053-2.0941 1.2729-0.78015 2.9153-1.1086 1.6424-0.36954 3.408-0.36954 1.1908 0 2.0941 0.12318 0.94439 0.0821 1.5192 0.24636v-0.57485q0-1.5603-0.94439-2.5047t-3.2848-0.94439q-1.5603 0-3.0795 0.24637-1.5192 0.2053-2.6279 0.6159l-0.78015-4.9272q0.53378-0.16424 1.3139-0.32848 0.82121-0.2053 1.7656-0.32849 0.94439-0.16424 1.9709-0.24636 1.0676-0.12318 2.1351-0.12318zm-1.0265-10.635 5.8306 6.6518-2.7921 2.5047-6.775-5.7074z" style="white-space:pre"/>
 </g>
 <g transform="translate(7.7159e-6 -405.83)" fill="#fff">
  <path d="m57.85 424.39q0 2.0941 0.49272 3.7776 0.53378 1.6835 1.4782 2.9153 0.98545 1.1908 2.3815 1.8477t3.2027 0.65697q1.7656 0 3.1616-0.65697 1.4371-0.65697 2.3815-1.8477 0.98545-1.2318 1.4782-2.9153 0.53378-1.6835 0.53378-3.7776t-0.53378-3.7776q-0.49272-1.7245-1.4782-2.9153-0.94439-1.2318-2.3815-1.8888-1.3961-0.65697-3.1616-0.65697-1.8067 0-3.2027 0.69803-1.3961 0.65696-2.3815 1.8888-0.94439 1.1908-1.4782 2.9153-0.49272 1.6835-0.49272 3.7365zm21.721 0q0 3.6544-1.1086 6.4465-1.0676 2.751-2.9563 4.6398-1.8888 1.8477-4.5166 2.7921-2.5868 0.94438-5.5842 0.94438-2.9153 0-5.5021-0.94438-2.5868-0.94439-4.5166-2.7921-1.9298-1.8888-3.0385-4.6398-1.1086-2.7921-1.1086-6.4465t1.1497-6.4054q1.1497-2.7921 3.0795-4.6809 1.9709-1.8888 4.5166-2.8332 2.5868-0.94439 5.42-0.94439 2.9153 0 5.5021 0.94439t4.5166 2.8332q1.9298 1.8888 3.0385 4.6809 1.1086 2.751 1.1086 6.4054z" stroke-width="1.0265" style="white-space:pre"/>
  <path d="m80.953 427.84q0-2.3404 0.73909-4.3935 0.78015-2.0941 2.2173-3.6133 1.4371-1.5603 3.4901-2.4636 2.053-0.90333 4.6809-0.90333 1.7245 0 3.1616 0.32848 1.4371 0.28743 2.7921 0.86227l-1.2729 4.8862q-0.86227-0.32848-1.8888-0.57484-1.0265-0.24636-2.2994-0.24636-2.71 0-4.065 1.6835-1.3139 1.6835-1.3139 4.4345 0 2.9153 1.2318 4.5166 1.2729 1.6014 4.3935 1.6014 1.1086 0 2.3815-0.2053t2.3404-0.65697l0.86227 5.0094q-1.0676 0.45167-2.6689 0.78015t-3.5312 0.32848q-2.9563 0-5.0915-0.86226-2.1351-0.90333-3.5312-2.4226-1.355-1.5192-2.012-3.5722-0.6159-2.0941-0.6159-4.5166z" stroke-width="1.0265" style="white-space:pre"/>
  <path d="m97.937 427.84q0-2.3404 0.73909-4.3935 0.78015-2.0941 2.2173-3.6133 1.4371-1.5603 3.4901-2.4636 2.053-0.90333 4.6809-0.90333 1.7245 0 3.1616 0.32848 1.4371 0.28743 2.7921 0.86227l-1.2729 4.8862q-0.86227-0.32848-1.8888-0.57484-1.0265-0.24636-2.2994-0.24636-2.71 0-4.065 1.6835-1.3139 1.6835-1.3139 4.4345 0 2.9153 1.2318 4.5166 1.2729 1.6014 4.3935 1.6014 1.1086 0 2.3815-0.2053t2.3404-0.65697l0.86226 5.0094q-1.0676 0.45167-2.6689 0.78015t-3.5312 0.32848q-2.9564 0-5.0915-0.86226-2.1351-0.90333-3.5312-2.4226-1.355-1.5192-2.012-3.5722-0.6159-2.0941-0.6159-4.5166z" stroke-width="1.0265" style="white-space:pre"/>
  <path d="m123.09 438.63h-6.118v-21.598h6.118zm0.57485-27.839q0 1.6835-1.1086 2.6689-1.0676 0.94438-2.5457 0.94438-1.4782 0-2.5868-0.94438-1.0676-0.98545-1.0676-2.6689 0-1.6835 1.0676-2.6279 1.1086-0.98545 2.5868-0.98545t2.5457 0.98545q1.1086 0.94439 1.1086 2.6279z" stroke-width="1.0265" style="white-space:pre"/>
  <path d="m126.12 411.66 6.118-0.98545v6.3644h7.3498v5.0915h-7.3498v7.5962q0 1.9298 0.65696 3.0795 0.69803 1.1497 2.751 1.1497 0.98544 0 2.012-0.16424 1.0676-0.2053 1.9298-0.53379l0.86227 4.763q-1.1086 0.45167-2.4636 0.78015t-3.3259 0.32848q-2.5047 0-4.1471-0.65696-1.6424-0.69803-2.6279-1.8888-0.98545-1.2318-1.396-2.9563-0.36954-1.7245-0.36954-3.8186z" stroke-width="1.0265" style="white-space:pre"/>
  <path d="m149.46 434.36q0.90333 0 1.7245-0.0411 0.8212-0.0411 1.3139-0.12318v-4.6398q-0.36955-0.0821-1.1086-0.16424-0.73909-0.0821-1.355-0.0821-0.86227 0-1.6424 0.12318-0.73908 0.0821-1.3139 0.36954-0.57484 0.28743-0.90333 0.78015-0.32848 0.49272-0.32848 1.2318 0 1.4371 0.94439 2.012 0.98545 0.53378 2.6689 0.53378zm-0.49272-17.902q2.71 0 4.5166 0.61591 1.8066 0.6159 2.8742 1.7656 1.1086 1.1497 1.5603 2.7921 0.45167 1.6424 0.45167 3.6544v12.729q-1.3139 0.28743-3.6544 0.65697-2.3404 0.4106-5.6663 0.4106-2.0941 0-3.8186-0.36954-1.6835-0.36954-2.9153-1.1908-1.2318-0.86227-1.8888-2.2173-0.65697-1.355-0.65697-3.3259 0-1.8888 0.73909-3.2027 0.78014-1.3139 2.053-2.0941 1.2729-0.78015 2.9153-1.1086 1.6424-0.36954 3.408-0.36954 1.1908 0 2.0941 0.12318 0.94439 0.0821 1.5192 0.24636v-0.57485q0-1.5603-0.94439-2.5047t-3.2848-0.94439q-1.5603 0-3.0795 0.24637-1.5192 0.2053-2.6279 0.6159l-0.78014-4.9272q0.53378-0.16424 1.3139-0.32848 0.82121-0.2053 1.7656-0.32849 0.94439-0.16424 1.9709-0.24636 1.0676-0.12318 2.1351-0.12318z" stroke-width="1.0265" style="white-space:pre"/>
  <path d="m161.4 417.78q1.5603-0.45166 4.0239-0.8212 2.4636-0.41061 5.1736-0.41061 2.751 0 4.5577 0.73909 1.8477 0.69802 2.9153 2.012 1.0676 1.3139 1.5192 3.1206 0.45166 1.8067 0.45166 4.0239v12.195h-6.118v-11.456q0-2.9563-0.78014-4.1882-0.78015-1.2318-2.9153-1.2318-0.65696 0-1.396 0.0821-0.73909 0.0411-1.3139 0.12318v16.67h-6.118z" stroke-width="1.0265" style="white-space:pre"/>
  <path d="m189.18 438.63h-6.118v-21.598h6.118zm0.57484-27.839q0 1.6835-1.1086 2.6689-1.0676 0.94438-2.5457 0.94438t-2.5868-0.94438q-1.0676-0.98545-1.0676-2.6689 0-1.6835 1.0676-2.6279 1.1086-0.98545 2.5868-0.98545t2.5457 0.98545q1.1086 0.94439 1.1086 2.6279z" stroke-width="1.0265" style="white-space:pre"/>
  <path d="m191.38 428q0-2.8742 0.86227-5.0094 0.90333-2.1762 2.3404-3.6133 1.4371-1.4371 3.2848-2.1762 1.8888-0.73909 3.8597-0.73909 4.5988 0 7.2677 2.8332 2.6689 2.7921 2.6689 8.2531 0 0.53379-0.0411 1.1908-0.0411 0.61591-0.0821 1.1086h-13.878q0.20531 1.8888 1.7656 2.9974t4.1882 1.1086q1.6835 0 3.2848-0.28742 1.6424-0.32849 2.6689-0.78015l0.82121 4.9683q-0.49272 0.24636-1.3139 0.49273-0.82121 0.24636-1.8477 0.4106-0.98545 0.2053-2.1351 0.32848t-2.2994 0.12318q-2.9153 0-5.0915-0.86226-2.1351-0.86227-3.5722-2.3404-1.396-1.5192-2.0941-3.5722-0.65697-2.053-0.65697-4.4345zm14.371-2.3404q-0.0411-0.78015-0.28742-1.5192-0.2053-0.73909-0.69803-1.3139-0.45166-0.57484-1.1908-0.94438-0.69802-0.36955-1.7656-0.36955-1.0265 0-1.7656 0.36955-0.73908 0.32848-1.2318 0.90332-0.49272 0.57485-0.78014 1.355-0.24636 0.73908-0.36955 1.5192z" stroke-width="1.0265" style="white-space:pre"/>
  <path d="m155.35 444.9q1.3296 0 1.9945 0.60151 0.66483 0.59096 0.66483 1.5829 0 1.2452-0.81257 1.8573-0.80201 0.61206-2.3111 0.61206-0.35879 0-0.70703-0.0422v2.3849h-1.3613v-6.9754h0.0739q0.0844 0 0.22161 0 0.14774-0.0106 0.32714-0.0106 0.18995 0 0.42211 0t0.47488 0q0.24271-0.0105 0.50653-0.0105t0.50654 0zm-0.29548 3.5035q0.74925 0 1.1714-0.29547 0.43267-0.30604 0.43267-0.89699 0-0.51709-0.34825-0.81257-0.34824-0.30603-1.0975-0.30603-0.54874 0-1.0342 0.0211v2.2583q0.59095 0.0317 0.87588 0.0317z" stroke-width=".26382" style="white-space:pre"/>
  <path d="m161.02 446.63q0.86533 0 1.4457 0.48543 0.5804 0.47488 0.5804 1.2241v3.0498q-0.31658 0.18995-1.1186 0.40101-0.79147 0.21105-1.3508 0.21105-0.87589 0-1.4246-0.42211-0.54875-0.43266-0.54875-1.1819 0-1.5829 2.1528-1.5829 0.46433 0 0.90754 0.0739v-0.27437q-0.0211-0.85478-1.0342-0.85478-0.71759 0-1.5618 0.21106l-0.14774-1.0553q0.94976-0.28493 2.1-0.28493zm-1.1819 3.7674q0 0.32713 0.24271 0.49598 0.25327 0.16884 0.62262 0.16884 0.46432 0 0.98141-0.24271l-0.0105-1.108q-0.21106-0.0528-0.69649-0.0528-1.1397 0-1.1397 0.7387z" stroke-width=".26382" style="white-space:pre"/>
  <path d="m167.56 446.72h1.3719q-1.2241 4.39-1.5302 5.5719-0.22161 0.94976-0.70704 1.3613-0.47488 0.41155-1.2241 0.41155-0.32714 0-0.80201-0.15829l0.25327-0.91809q0.31658 0.0739 0.50653 0.0739 0.28493 0 0.51709-0.20051 0.24271-0.18995 0.32714-0.51708l0.095-0.45377h-0.9392l-1.7096-5.1709h1.509l1.0869 3.9995h0.32713q0.72815-3.1236 0.9181-3.9995z" stroke-width=".26382" style="white-space:pre"/>
  <path d="m171.46 451.97q-0.47487 0-1.0447-0.13719-0.56986-0.14774-0.92865-0.3588l0.3799-0.89699q0.7387 0.30604 1.4985 0.30604 0.32714 0 0.59096-0.12664 0.27437-0.12663 0.27437-0.39045 0-0.22161-0.2005-0.30603-0.20051-0.095-0.72815-0.21106-0.0211 0-0.0422 0-0.0105-0.0106-0.0317-0.0106-0.0211-0.0106-0.0422-0.0106-0.88643-0.17939-1.3086-0.51708-0.42211-0.34825-0.42211-1.0236 0-0.82312 0.56985-1.2347 0.56985-0.42211 1.5302-0.42211 0.90754 0 1.7623 0.45377l-0.3799 0.92865q-0.61206-0.27437-1.2452-0.30603-0.47488-0.0106-0.74925 0.12663-0.27438 0.13719-0.27438 0.3799 0 0.12664 0.0528 0.21106 0.0528 0.0739 0.2005 0.14774 0.15829 0.0633 0.27437 0.095 0.11609 0.0317 0.40101 0.095 1.0553 0.24272 1.4563 0.5593 0.41156 0.31658 0.41156 0.96031 0 0.3799-0.13719 0.68593-0.13718 0.29548-0.34824 0.48543-0.21106 0.1794-0.49598 0.30603-0.27438 0.11608-0.52764 0.15829-0.25327 0.0528-0.49599 0.0528z" stroke-width=".26382" style="white-space:pre"/>
  <path d="m180.12 452.04q-1.5618 0-2.4482-0.88643-0.87588-0.88644-0.87588-2.5116 0-0.79146 0.17939-1.4457 0.18995-0.65427 0.56985-1.1925 0.39046-0.5382 1.0658-0.83368 0.67538-0.30603 1.5829-0.30603 0.98141 0 2.0156 0.49598l-0.3588 1.1714q-0.9392-0.32714-1.6568-0.32714-0.97086 0-1.488 0.65427-0.50653 0.65428-0.50653 1.7201 0 1.0553 0.56985 1.5935 0.58041 0.52764 1.5618 0.52764 0.1794 0 0.33769-0.0211 0.16884-0.0211 0.28492-0.0422t0.27438-0.0739q0.15829-0.0633 0.22161-0.095 0.0739-0.0317 0.24271-0.10553 0.1794-0.0844 0.23216-0.10553l0.41156 1.0975q-1.108 0.68593-2.2161 0.68593z" stroke-width=".26382" style="white-space:pre"/>
  <path d="m185.53 446.63q0.86533 0 1.4457 0.48543 0.58041 0.47488 0.58041 1.2241v3.0498q-0.31659 0.18995-1.1186 0.40101-0.79146 0.21105-1.3508 0.21105-0.87588 0-1.4246-0.42211-0.54874-0.43266-0.54874-1.1819 0-1.5829 2.1528-1.5829 0.46432 0 0.90754 0.0739v-0.27437q-0.0211-0.85478-1.0342-0.85478-0.7176 0-1.5618 0.21106l-0.14774-1.0553q0.94975-0.28493 2.1-0.28493zm-1.1819 3.7674q0 0.32713 0.24272 0.49598 0.25327 0.16884 0.62261 0.16884 0.46433 0 0.98142-0.24271l-0.0106-1.108q-0.21105-0.0528-0.69648-0.0528-1.1397 0-1.1397 0.7387z" stroke-width=".26382" style="white-space:pre"/>
  <path d="m192.29 447.9h-1.7518q0 0.36935-0.0105 1.0025 0 0.63317 0 0.86533 0 0.54875 0.2005 0.77036 0.2005 0.21105 0.5804 0.21105 0.28493 0 0.59096-0.10553l0.23216 1.0342q-0.59095 0.27437-1.2769 0.27437-1.6884 0-1.6884-1.9628 0-0.34824 0.0106-1.0131 0.0105-0.67538 0.0105-1.0764h-0.9392v-1.0869h0.94975v-1.2136h1.3508v1.2136h1.7412z" stroke-width=".26382" style="white-space:pre"/>
  <path d="m195.37 446.63q0.86533 0 1.4457 0.48543 0.58041 0.47488 0.58041 1.2241v3.0498q-0.31659 0.18995-1.1186 0.40101-0.79146 0.21105-1.3508 0.21105-0.87588 0-1.4246-0.42211-0.54875-0.43266-0.54875-1.1819 0-1.5829 2.1528-1.5829 0.46432 0 0.90754 0.0739v-0.27437q-0.0211-0.85478-1.0342-0.85478-0.71759 0-1.5618 0.21106l-0.14774-1.0553q0.94975-0.28493 2.1-0.28493zm-1.1819 3.7674q0 0.32713 0.24272 0.49598 0.25327 0.16884 0.62261 0.16884 0.46433 0 0.98142-0.24271l-0.0106-1.108q-0.21105-0.0528-0.69648-0.0528-1.1397 0-1.1397 0.7387z" stroke-width=".26382" style="white-space:pre"/>
  <path d="m198.77 451.89-0.0317-7.9146h1.4352l-0.0422 7.9146z" stroke-width=".26382" style="white-space:pre"/>
  <path d="m203.7 446.63q0.86533 0 1.4457 0.48543 0.5804 0.47488 0.5804 1.2241v3.0498q-0.31658 0.18995-1.1186 0.40101-0.79146 0.21105-1.3508 0.21105-0.87588 0-1.4246-0.42211-0.54875-0.43266-0.54875-1.1819 0-1.5829 2.1528-1.5829 0.46433 0 0.90754 0.0739v-0.27437q-0.0211-0.85478-1.0342-0.85478-0.71759 0-1.5618 0.21106l-0.14774-1.0553q0.94976-0.28493 2.1-0.28493zm-1.1819 3.7674q0 0.32713 0.24271 0.49598 0.25327 0.16884 0.62262 0.16884 0.46432 0 0.98141-0.24271l-0.0106-1.108q-0.21106-0.0528-0.69649-0.0528-1.1397 0-1.1397 0.7387z" stroke-width=".26382" style="white-space:pre"/>
  <path d="m207 451.89-0.0316-4.8332q1.3508-0.44322 2.4799-0.44322 1.1608 0 1.6884 0.40101 0.52764 0.401 0.52764 1.2347 0 0.49598-0.0211 2.0261-0.0105 1.5302-0.0105 1.6146h-1.3824q0-0.0422 0.0105-1.393 0.0106-1.3508 0.0106-1.8045 0-0.87588-0.90755-0.87588-0.35879 0-0.98141 0.16885l-0.0211 3.9045z" stroke-width=".26382" style="white-space:pre"/>
 </g>
</svg>
