<svg width="211.67mm" height="29.518mm" version="1.1" viewBox="0 0 211.67 29.518" xmlns="http://www.w3.org/2000/svg">
 <g transform="matrix(.8174 0 0 .8174 -253.46 65.118)" fill="#eec818">
  <path d="m319.1-44.174q-2.2653-4.4418-4.6195-10.394-2.3098-5.9521-4.3974-12.97h7.0181q0.44418 1.7323 1.0216 3.7756 0.62186 1.9988 1.2437 4.0865 0.66628 2.0432 1.2881 3.9977 0.66628 1.9544 1.2881 3.5535 0.57744-1.5991 1.2437-3.5535 0.66627-1.9544 1.2881-3.9977 0.66628-2.0877 1.2437-4.0865 0.62186-2.0432 1.066-3.7756h6.8404q-2.0877 7.0181-4.4418 12.97-2.3098 5.9521-4.5751 10.394z"/>
  <path d="m343.83-44.174h-6.6184v-23.364h6.6184zm0.62185-30.116q0 1.8212-1.1993 2.8872-1.1549 1.0216-2.754 1.0216t-2.7984-1.0216q-1.1549-1.066-1.1549-2.8872t1.1549-2.8428q1.1993-1.066 2.7984-1.066t2.754 1.066q1.1993 1.0216 1.1993 2.8428z"/>
  <path d="m358.98-48.794q0.9772 0 1.8656-0.04442t1.4214-0.13326v-5.0193q-0.39976-0.08884-1.1993-0.17767-0.79954-0.08884-1.4658-0.08884-0.93279 0-1.7767 0.13326-0.79953 0.08884-1.4214 0.39977-0.62186 0.31093-0.97721 0.84395t-0.35535 1.3326q0 1.5546 1.0216 2.1765 1.066 0.57744 2.8872 0.57744zm-0.53302-19.366q2.9316 0 4.886 0.66628t3.1093 1.91q1.1993 1.2437 1.6879 3.0205 0.4886 1.7767 0.4886 3.9532v13.77q-1.4214 0.31093-3.9532 0.7107-2.5318 0.44418-6.1298 0.44418-2.2653 0-4.1309-0.39977-1.8212-0.39977-3.1537-1.2881-1.3326-0.93279-2.0432-2.3986-0.7107-1.4658-0.7107-3.5979 0-2.0432 0.79953-3.4646 0.84395-1.4214 2.2209-2.2653 1.377-0.84395 3.1537-1.1993 1.7767-0.39977 3.6867-0.39977 1.2881 0 2.2653 0.13326 1.0216 0.08884 1.6435 0.26651v-0.62186q0-1.6879-1.0216-2.7095t-3.5535-1.0216q-1.6879 0-3.3314 0.26651-1.6435 0.22209-2.8428 0.66628l-0.84396-5.3302q0.57745-0.17767 1.4214-0.35535 0.88837-0.22209 1.91-0.35535 1.0216-0.17767 2.1321-0.26651 1.1549-0.13326 2.3098-0.13326zm-1.1105-11.504 6.3074 7.1958-3.0205 2.7095-7.329-6.1742z"/>
 </g>
 <g transform="matrix(.8174 0 0 .8174 -253.46 65.118)" fill="#fff">
  <path d="m380.87-59.587q0 2.2653 0.53302 4.0865 0.57744 1.8212 1.5991 3.1537 1.066 1.2881 2.5763 1.9988 1.5102 0.7107 3.4646 0.7107 1.91 0 3.4202-0.7107 1.5546-0.7107 2.5763-1.9988 1.066-1.3326 1.5991-3.1537 0.57744-1.8212 0.57744-4.0865t-0.57744-4.0865q-0.53302-1.8656-1.5991-3.1537-1.0216-1.3326-2.5763-2.0432-1.5102-0.7107-3.4202-0.7107-1.9544 0-3.4646 0.75511-1.5102 0.7107-2.5763 2.0432-1.0216 1.2881-1.5991 3.1537-0.53302 1.8212-0.53302 4.0421zm23.497 0q0 3.9532-1.1993 6.9737-1.1549 2.976-3.1981 5.0193-2.0432 1.9988-4.886 3.0205-2.7984 1.0216-6.0409 1.0216-3.1537 0-5.9521-1.0216t-4.886-3.0205q-2.0877-2.0432-3.287-5.0193-1.1993-3.0205-1.1993-6.9737t1.2437-6.9293q1.2437-3.0205 3.3314-5.0637 2.1321-2.0432 4.886-3.0649 2.7984-1.0216 5.8632-1.0216 3.1537 0 5.9521 1.0216t4.886 3.0649 3.287 5.0637q1.1993 2.976 1.1993 6.9293z"/>
  <path d="m408.54-55.856q0-2.5319 0.79953-4.7528 0.84395-2.2653 2.3986-3.9088 1.5546-1.6879 3.7756-2.6651 2.2209-0.97721 5.0637-0.97721 1.8656 0 3.4202 0.35535 1.5546 0.31093 3.0205 0.93279l-1.377 5.2858q-0.93279-0.35535-2.0432-0.62186-1.1105-0.26651-2.4874-0.26651-2.9316 0-4.3974 1.8212-1.4214 1.8212-1.4214 4.7972 0 3.1537 1.3326 4.886 1.377 1.7323 4.7528 1.7323 1.1993 0 2.5763-0.22209t2.5319-0.7107l0.93278 5.4191q-1.1549 0.4886-2.8872 0.84395t-3.82 0.35535q-3.1981 0-5.5079-0.93279-2.3098-0.97721-3.82-2.6207-1.4658-1.6435-2.1765-3.8644-0.66627-2.2653-0.66627-4.886z"/>
  <path d="m429.62-55.856q0-2.5319 0.79953-4.7528 0.84395-2.2653 2.3986-3.9088 1.5546-1.6879 3.7756-2.6651t5.0637-0.97721q1.8656 0 3.4202 0.35535 1.5546 0.31093 3.0204 0.93279l-1.377 5.2858q-0.93279-0.35535-2.0432-0.62186t-2.4874-0.26651q-2.9316 0-4.3974 1.8212-1.4214 1.8212-1.4214 4.7972 0 3.1537 1.3326 4.886 1.377 1.7323 4.7528 1.7323 1.1993 0 2.5763-0.22209t2.5318-0.7107l0.93279 5.4191q-1.1549 0.4886-2.8872 0.84395t-3.82 0.35535q-3.1981 0-5.5079-0.93279-2.3098-0.97721-3.82-2.6207-1.4658-1.6435-2.1765-3.8644-0.66628-2.2653-0.66628-4.886z"/>
  <path d="m459.56-44.174h-6.6184v-23.364h6.6184zm0.62185-30.116q0 1.8212-1.1993 2.8872-1.1549 1.0216-2.754 1.0216t-2.7984-1.0216q-1.1549-1.066-1.1549-2.8872t1.1549-2.8428q1.1993-1.066 2.7984-1.066t2.754 1.066q1.1993 1.0216 1.1993 2.8428z"/>
  <path d="m465.56-73.357 6.6184-1.066v6.8849h7.9509v5.5079h-7.9509v8.2174q0 2.0877 0.71069 3.3314 0.75511 1.2437 2.976 1.2437 1.066 0 2.1765-0.17767 1.1549-0.22209 2.0877-0.57744l0.93279 5.1525q-1.1993 0.4886-2.6651 0.84395t-3.5979 0.35535q-2.7095 0-4.4863-0.7107-1.7767-0.75511-2.8428-2.0432-1.066-1.3326-1.5102-3.1981-0.39977-1.8656-0.39977-4.1309z"/>
  <path d="m493.54-48.794q0.9772 0 1.8656-0.04442t1.4214-0.13326v-5.0193q-0.39976-0.08884-1.1993-0.17767-0.79954-0.08884-1.4658-0.08884-0.93279 0-1.7767 0.13326-0.79953 0.08884-1.4214 0.39977-0.62186 0.31093-0.97721 0.84395t-0.35535 1.3326q0 1.5546 1.0216 2.1765 1.066 0.57744 2.8872 0.57744zm-0.53302-19.366q2.9316 0 4.886 0.66628t3.1093 1.91q1.1993 1.2437 1.6879 3.0205 0.4886 1.7767 0.4886 3.9532v13.77q-1.4214 0.31093-3.9532 0.7107-2.5318 0.44418-6.1298 0.44418-2.2653 0-4.1309-0.39977-1.8212-0.39977-3.1537-1.2881-1.3326-0.93279-2.0432-2.3986-0.7107-1.4658-0.7107-3.5979 0-2.0432 0.79953-3.4646 0.84395-1.4214 2.2209-2.2653 1.377-0.84395 3.1537-1.1993 1.7767-0.39977 3.6867-0.39977 1.2881 0 2.2653 0.13326 1.0216 0.08884 1.6435 0.26651v-0.62186q0-1.6879-1.0216-2.7095t-3.5535-1.0216q-1.6879 0-3.3314 0.26651-1.6435 0.22209-2.8428 0.66628l-0.84396-5.3302q0.57744-0.17767 1.4214-0.35535 0.88836-0.22209 1.91-0.35535 1.0216-0.17767 2.1321-0.26651 1.1549-0.13326 2.3098-0.13326z"/>
  <path d="m509.16-66.739q1.6879-0.4886 4.353-0.88837 2.6651-0.44418 5.5967-0.44418 2.976 0 4.9304 0.79953 1.9988 0.75511 3.1537 2.1765t1.6435 3.3758q0.48861 1.9544 0.48861 4.353v13.192h-6.6184v-12.393q0-3.1981-0.84395-4.5307t-3.1537-1.3326q-0.71069 0-1.5102 0.08884-0.79953 0.04442-1.4214 0.13326v18.034h-6.6184z"/>
  <path d="m541.98-44.174h-6.6184v-23.364h6.6184zm0.62186-30.116q0 1.8212-1.1993 2.8872-1.1549 1.0216-2.754 1.0216t-2.7984-1.0216q-1.1549-1.066-1.1549-2.8872t1.1549-2.8428q1.1993-1.066 2.7984-1.066t2.754 1.066q1.1993 1.0216 1.1993 2.8428z"/>
  <path d="m547.09-55.679q0-3.1093 0.93278-5.4191 0.97721-2.3542 2.5319-3.9088 1.5546-1.5546 3.5535-2.3542 2.0432-0.79953 4.1753-0.79953 4.9749 0 7.8621 3.0649 2.8872 3.0205 2.8872 8.9281 0 0.57744-0.0444 1.2881-0.0444 0.66628-0.0888 1.1993h-15.013q0.22209 2.0432 1.91 3.2425 1.6879 1.1993 4.5307 1.1993 1.8212 0 3.5535-0.31093 1.7767-0.35535 2.8872-0.84395l0.88837 5.3746q-0.53303 0.26651-1.4214 0.53302-0.88836 0.26651-1.9988 0.44418-1.066 0.22209-2.3098 0.35535-1.2437 0.13326-2.4874 0.13326-3.1537 0-5.5079-0.93279-2.3098-0.93279-3.8644-2.5319-1.5102-1.6435-2.2653-3.8644-0.71069-2.2209-0.71069-4.7972zm15.546-2.5319q-0.0444-0.84395-0.31093-1.6435-0.22209-0.79953-0.75511-1.4214-0.48861-0.62186-1.2881-1.0216-0.75511-0.39977-1.91-0.39977-1.1105 0-1.91 0.39977-0.79953 0.35535-1.3326 0.97721-0.53302 0.62186-0.84395 1.4658-0.26651 0.79953-0.39977 1.6435z"/>
 </g>
</svg>
