<svg width="800" height="531.18" version="1.1" viewBox="0 0 800 531.18" xml:space="preserve" xmlns="http://www.w3.org/2000/svg"><defs><linearGradient id="linear-gradient-2" x1="700.23" x2="899.77" y1="565.32" y2="95.233" gradientUnits="userSpaceOnUse"><stop stop-color="#c09" offset=".1"/><stop stop-color="#cf0090" offset=".19889"/><stop stop-color="#d70078" offset=".36019"/><stop stop-color="#e40050" offset=".56378"/><stop stop-color="#f70019" offset=".79955"/><stop stop-color="red" offset=".9"/></linearGradient><linearGradient id="linear-gradient" x1="568.21" x2="905.94" y1="330.28" y2="330.28" gradientUnits="userSpaceOnUse"><stop stop-color="#ebf5f7" offset="0"/><stop stop-color="#f1f8fa" offset=".15235"/><stop stop-color="#fcfdfe" offset=".53807"/><stop stop-color="#fff" offset="1"/></linearGradient><clipPath id="clipPath7956"><circle cx="800" cy="330.28" r="255.28" fill="none"/></clipPath></defs>
<style type="text/css">
	.st0{fill:#222D34;}
	.st1{fill:url(#h);}
</style>

<g transform="matrix(.71006 0 0 .71006 -168.04 -53.255)"><circle cx="800" cy="330.28" r="255.28" fill="url(#linear-gradient-2)"/><path d="m902.36 276.97-267.08-143.34-1.3761-0.82369-1.3264 1.1301a256.79 256.79 0 0 0-63.221 81.01l-1.1443 2.2841 226.08 113.04-226.08 113.04 1.1443 2.2842a256.79 256.79 0 0 0 63.221 81.01l1.3264 1.13 1.5357-0.82361 266.92-143.34 1.027-0.7221 2.5528-1.5276v-102.11l-2.5528-1.5276z" clip-path="url(#clipPath7956)" fill="url(#linear-gradient)"/></g><path d="m529.19 381.25h4.1112v149.92h-4.1112zm261.45 97.116v-5.1371l-8.1254 1.86c-14.307 3.1887-20.579 5.3143-20.579 12.312 0 5.1371 4.2392 7.9716 11.481 7.9716 9.273-0.0886 17.221-4.9601 17.221-17.005zm9.3611-13.906v37.642h-9.1848v-7.3514c-3.5327 5.6685-10.421 8.7687-18.9 8.7687-11.216 0-19.696-5.0486-19.696-16.031 0-14.526 14.484-16.828 29.497-20.106l8.9198-1.9485v-0.26564c0-8.503-5.7404-11.78-13.512-11.78-8.5666 0-14.749 4.0743-18.193 7.0858l-3.1795-8.1485c4.2392-3.4544 11.746-7.3514 21.813-7.3514 14.219-0.0885 22.433 7.5284 22.433 19.485m-751.31 39.545h-16.929l-31.757-83.049h15.223l11.68 31.456c4.5931 12.372 9.1862 24.875 13.517 37.378 4.3306-12.503 8.9238-25.269 13.648-37.773l11.549-31.061h15.092l-32.022 83.049m39.895 0v-83.049h14.305v83.049zm16.929-100.68c0 5.2646-4.1994 9.6076-9.7116 9.6076-5.5119 0-9.7116-4.3431-9.7116-9.6076 0-5.2646 4.1994-9.6076 9.7116-9.6076 5.5119-0.13151 9.7116 4.3431 9.7116 9.6076m66.142 65.411v-7.6337l-12.074 2.7639c-21.26 4.7382-30.579 7.8968-30.579 18.294 0 7.6337 6.2992 11.845 17.06 11.845 13.779-0.13151 25.591-7.3707 25.591-25.269zm14.042-20.663v55.935h-13.648v-10.924c-5.2494 8.4229-15.485 13.03-28.084 13.03-16.667 0-29.267-7.5018-29.267-23.822 0-21.585 21.522-25.006 43.701-29.876l13.254-2.8954v-0.39485c0-12.635-8.5302-17.504-20.078-17.504-12.73 0-21.916 6.0542-27.034 10.529l-4.7243-12.108c6.2992-5.133 17.454-10.924 32.413-10.924 21.26-0.13151 33.465 11.187 33.465 28.955m81.366 14.346c0-18.82-10.368-30.666-25.984-30.666s-26.903 11.845-26.903 30.93c0 18.557 10.892 30.666 26.64 30.666s26.247-11.976 26.247-30.93zm14.436 0c0 26.586-15.617 43.695-38.713 43.695-12.074 0-21.653-4.6064-28.084-13.162v35.668h-14.305v-107.66h13.779v13.03c6.4304-9.7394 16.536-15.136 29.397-15.136 22.704 0.13151 37.927 17.109 37.927 43.565m12.205 41.59h14.305v-107.13h-14.305zm83.202-35.273v-7.6337l-12.074 2.7639c-21.26 4.7382-30.579 7.8968-30.579 18.294 0 7.6337 6.2992 11.845 17.06 11.845 13.779-0.13151 25.591-7.3707 25.591-25.269zm13.91-20.663v55.935h-13.648v-10.924c-5.2494 8.4228-15.485 13.03-28.084 13.03-16.667 0-29.267-7.5019-29.267-23.822 0-21.585 21.522-25.006 43.832-29.876l13.254-2.8955v-0.39486c0-12.635-8.5302-17.504-20.078-17.504-12.73 0-21.916 6.0542-27.034 10.529l-4.7245-12.108c6.2992-5.133 17.454-10.924 32.413-10.924 21.129-0.13151 33.334 11.187 33.334 28.955m54.594 50.538c-7.6112 19.874-17.323 27.639-34.907 31.85l-4.4618-11.582c8.5302-2.8955 16.273-5.6594 21.916-13.819l-32.283-84.103h15.223l11.155 29.876c4.5931 12.503 10.236 27.376 13.648 37.248 3.8057-10.002 9.055-24.612 13.779-37.248l11.024-29.876h14.829l-29.923 77.649m296.38-44.009q-8.4798 0-12.841 4.6035t-4.3612 15.385v32.346h-9.5705v-59.482h9.2067v8.3592q2.1806-3.8766 6.9055-6.7843 4.7247-2.9074 10.661-2.9074 1.696 0 3.3921 0.24229 1.8172 0.24229 3.0286 0.48458v8.6011q-1.3326-0.48458-3.1498-0.60572-1.8172-0.24229-3.2709-0.24229zm-60.815 0.72686h-9.328v-7.8742h9.328v-17.445h9.5705v17.445h14.658v7.8742h-14.658v35.859q0 4.3612 1.8172 6.4206 1.8172 2.0595 6.1784 2.0595 0.96917 0 2.0595 0 1.2114-0.12115 2.1806-0.24229 1.2115-0.12115 2.3018-0.36344v7.8742q-0.96917 0.24229-2.3018 0.36343-1.3326 0.12115-2.6652 0.24229-1.2114 0.12115-2.4229 0.12115-1.0903 0-1.8172 0-7.5111 0-11.267-4.24-3.6344-4.2401-3.6344-11.387zm-12.598-32.346-29.196 40.462 30.771 43.491h-13.084l-24.108-35.132-23.986 35.132h-12.599l30.528-43.249-28.833-40.705h13.084l22.411 32.709 22.411-32.709z" fill="#fff" opacity=".996" stroke-width="5.7109"/></svg>
