<svg width="716.85" height="800" version="1.1" viewBox="0 0 716.85 800" xml:space="preserve" xmlns="http://www.w3.org/2000/svg"><defs><linearGradient id="linear-gradient-2" x1="700.23" x2="899.77" y1="565.32" y2="95.233" gradientUnits="userSpaceOnUse"><stop stop-color="#c09" offset=".1"/><stop stop-color="#cf0090" offset=".19889"/><stop stop-color="#d70078" offset=".36019"/><stop stop-color="#e40050" offset=".56378"/><stop stop-color="#f70019" offset=".79955"/><stop stop-color="red" offset=".9"/></linearGradient><linearGradient id="linear-gradient" x1="568.21" x2="905.94" y1="330.28" y2="330.28" gradientUnits="userSpaceOnUse"><stop stop-color="#ebf5f7" offset="0"/><stop stop-color="#f1f8fa" offset=".15235"/><stop stop-color="#fcfdfe" offset=".53807"/><stop stop-color="#fff" offset="1"/></linearGradient><clipPath id="clipPath7956"><circle cx="800" cy="330.28" r="255.28" fill="none"/></clipPath></defs>
<style type="text/css">
	.st0{fill:#222D34;}
	.st1{fill:url(#h);}
</style>

<g transform="matrix(1.0709 0 0 1.0709 -498.26 -80.314)"><circle cx="800" cy="330.28" r="255.28" fill="url(#linear-gradient-2)"/><path d="m902.36 276.97-267.08-143.34-1.3761-0.82369-1.3264 1.1301a256.79 256.79 0 0 0-63.221 81.01l-1.1443 2.2841 226.08 113.04-226.08 113.04 1.1443 2.2842a256.79 256.79 0 0 0 63.221 81.01l1.3264 1.13 1.5357-0.82361 266.92-143.34 1.027-0.7221 2.5528-1.5276v-102.11l-2.5528-1.5276z" clip-path="url(#clipPath7956)" fill="url(#linear-gradient)"/></g><path d="m73.424 760.1h-25.531l-47.893-125.25h22.958l17.615 47.439c6.9269 18.658 13.854 37.514 20.385 56.37 6.5311-18.856 13.458-38.109 20.583-56.966l17.417-46.844h22.761l-48.293 125.25m60.166 0v-125.25h21.574v125.25zm25.531-151.84c0 7.9396-6.3332 14.489-14.646 14.489-8.3126 0-14.646-6.5499-14.646-14.489 0-7.9396 6.3332-14.489 14.646-14.489 8.3126-0.19834 14.646 6.5499 14.646 14.489m99.75 98.648v-11.513l-18.209 4.1683c-32.063 7.1458-46.117 11.909-46.117 27.59 0 11.513 9.5 17.864 25.729 17.864 20.78-0.19833 38.594-11.116 38.594-38.109zm21.177-31.162v84.357h-20.583v-16.475c-7.9167 12.703-23.353 19.651-42.354 19.651-25.136 0-44.138-11.314-44.138-35.926 0-32.553 32.458-37.712 65.906-45.057l19.989-4.3666v-0.59548c0-19.055-12.865-26.398-30.28-26.398-19.198 0-33.052 9.1304-40.77 15.879l-7.1248-18.26c9.5-7.7412 26.323-16.475 48.883-16.475 32.063-0.19834 50.469 16.871 50.469 43.668m122.71 21.635c0-28.383-15.636-46.248-39.187-46.248s-40.573 17.864-40.573 46.646c0 27.986 16.426 46.248 40.176 46.248s39.584-18.061 39.584-46.646zm21.771 0c0 40.095-23.552 65.897-58.384 65.897-18.209 0-32.655-6.947-42.354-19.85v53.792h-21.574v-162.36h20.78v19.651c9.6978-14.688 24.938-22.827 44.334-22.827 34.24 0.19834 57.198 25.802 57.198 65.701m18.407 62.723h21.574v-161.56h-21.574zm125.48-53.196v-11.513l-18.209 4.1683c-32.063 7.1458-46.117 11.909-46.117 27.59 0 11.513 9.5 17.864 25.729 17.864 20.78-0.19833 38.594-11.116 38.594-38.109zm20.978-31.162v84.357h-20.583v-16.475c-7.9167 12.703-23.353 19.651-42.354 19.651-25.136 0-44.138-11.314-44.138-35.926 0-32.553 32.458-37.712 66.104-45.057l19.989-4.3668v-0.5955c0-19.055-12.865-26.398-30.28-26.398-19.198 0-33.052 9.1305-40.771 15.879l-7.1251-18.26c9.5-7.7412 26.323-16.475 48.883-16.475 31.865-0.19833 50.272 16.871 50.272 43.668m82.334 76.217c-11.479 29.972-26.125 41.683-52.644 48.034l-6.7289-17.467c12.865-4.3668 24.542-8.535 33.052-20.841l-48.687-126.84h22.958l16.823 45.057c6.9269 18.856 15.437 41.286 20.583 56.174 5.7394-15.084 13.656-37.118 20.78-56.174l16.626-45.057h22.364l-45.127 117.1" fill="#fff" opacity=".996" stroke-width="8.6127"/></svg>
