<svg width="800" height="188.03" enable-background="new 0 0 1600 900" version="1.1" viewBox="0 0 800 188.03" xml:space="preserve" xmlns="http://www.w3.org/2000/svg">
<g transform="matrix(.50665 0 0 .50665 -5.2702 -133.54)" fill="#f9f9f9">
				<polygon points="109.56 396.25 66.51 315.03 10.402 315.03 109.56 487.8 208.72 315.03 152.61 315.03"/>
				<rect x="221.76" y="315.03" width="47.965" height="171.04"/>
				<path d="m572.59 309.74c-23.814 0-45.797 9.628-61.901 27.11-15.251 16.555-23.998 39.083-23.998 61.809 0 22.498 8.725 44.882 23.938 61.414 16.323 17.737 38.863 27.505 63.471 27.505 56.053 0 75.04-42.719 79.072-54.005h-49.415c-5.363 8.645-16.138 13.591-29.657 13.591-15.718 0-34.243-9.089-39.096-34.599l-0.381-2.006h123.06c0.56-5.264 0.81-9.359 0.81-13.196-2e-3 -48.315-38.535-87.623-85.9-87.623zm-37.313 72.487 0.414-2.029c2.972-14.557 14.419-31.555 36.899-31.555 22.182 0 33.701 16.99 36.826 31.538l0.439 2.045h-74.578z"/>
				<path d="m763.81 309.74c-49.03 0-88.919 39.889-88.919 88.919s39.889 88.919 88.919 88.919c49.031 0 88.92-39.889 88.92-88.919s-39.89-88.919-88.92-88.919zm0 132.89c-23.347 0-40.954-18.905-40.954-43.974 0-25.07 17.606-43.974 40.954-43.974s40.955 18.905 40.955 43.974c-1e-3 25.07-17.607 43.974-40.955 43.974z"/>
				<path d="m1562.7 433.86h-2.75c-14.737 0-26.726 11.99-26.726 26.726 0 14.737 11.989 26.726 26.726 26.726h2.75c14.737 0 26.726-11.99 26.726-26.726s-11.989-26.726-26.726-26.726z"/>
		<path d="m1420.4 309.74c-48.085 0-84.345 38.227-84.345 88.919 0 32.993 14.435 53.756 26.545 65.366 15.617 14.968 36.855 23.553 58.271 23.553 23.345 0 38.158-8.347 46.119-13.791l4.421 12.281h42.418v-222.49h-47.9v66.083c-10.437-12.216-27.581-19.921-45.529-19.921zm4.591 132.89c-10.866 0-20.906-4.031-28.266-11.351-8.29-8.244-12.671-20.127-12.671-34.363 0-20.739 15.312-42.191 40.937-42.191 12.316 0 22.824 4.738 30.388 13.702 6.802 8.064 10.55 18.799 10.55 30.228-1e-3 25.071-17.601 43.975-40.938 43.975z"/>
		<path d="m1022.3 309.74c-48.085 0-84.345 38.227-84.345 88.919 0 32.993 14.435 53.756 26.545 65.366 15.617 14.968 36.855 23.553 58.271 23.553 23.345 0 38.158-8.347 46.119-13.791l4.421 12.281h42.418v-171.08h-46.209l-1.69 14.674c-10.438-12.214-27.582-19.919-45.53-19.919zm4.591 132.89c-10.866 0-20.906-4.031-28.266-11.351-8.29-8.244-12.671-20.127-12.671-34.363 0-20.739 15.312-42.191 40.937-42.191 12.316 0 22.824 4.738 30.388 13.702 6.802 8.064 10.55 18.799 10.55 30.228-1e-3 25.071-17.601 43.975-40.938 43.975z"/>
		<path d="m375.19 309.74c-48.085 0-84.345 38.227-84.345 88.919 0 32.993 14.435 53.756 26.545 65.366 15.617 14.968 36.855 23.553 58.271 23.553 23.345 0 38.158-8.347 46.119-13.791l4.421 12.281h42.418v-222.49h-47.9v66.083c-10.438-12.216-27.581-19.921-45.529-19.921zm4.591 132.89c-10.867 0-20.906-4.031-28.266-11.351-8.29-8.244-12.671-20.127-12.671-34.363 0-20.739 15.312-42.191 40.937-42.191 12.316 0 22.824 4.738 30.388 13.702 6.802 8.064 10.55 18.799 10.55 30.228-1e-3 25.071-17.601 43.975-40.938 43.975z"/>
		<rect x="871.34" y="263.58" width="47.966" height="222.49"/>
		<path d="m1187.1 404.63c0-31.484 14.867-49.904 40.937-49.904 25.625 0 40.213 14.332 40.213 42.24l0.099 89.099h48.689v-96.235c0-54.9-26.268-80.092-75.958-80.092-20.106 0-43.543 9.395-53.979 21.61l-1.69-16.365h-46.209v171.08h47.9v-81.435z"/>
	</g><g transform="matrix(.50665 0 0 .50665 -5.2702 -133.54)">
				<path d="m675.25 561.34v73.355h249.31v-73.355z" fill="#ff3746"/>
		<g fill="#f9f9f9">
			<path d="m706.33 580.11h17.587c4.363 0 7.665 1.123 9.901 3.365 1.732 1.732 2.6 3.885 2.6 6.448v0.109c0 1.087-0.135 2.044-0.406 2.876-0.27 0.832-0.629 1.581-1.076 2.246-0.452 0.671-0.972 1.258-1.565 1.763-0.593 0.51-1.227 0.941-1.908 1.3 2.194 0.832 3.921 1.96 5.179 3.391s1.888 3.406 1.888 5.939v0.104c0 1.737-0.333 3.255-0.998 4.555-0.671 1.3-1.628 2.387-2.87 3.255-1.243 0.863-2.741 1.513-4.493 1.95-1.747 0.432-3.687 0.65-5.819 0.65h-18.019zm15.829 15.346c1.841 0 3.307-0.317 4.389-0.952 1.087-0.629 1.628-1.654 1.628-3.063v-0.109c0-1.264-0.468-2.231-1.409-2.896-0.941-0.671-2.293-1.004-4.066-1.004h-8.242v8.024zm2.22 15.288c1.846 0 3.292-0.338 4.337-1.004 1.05-0.671 1.576-1.711 1.576-3.12v-0.109c0-1.264-0.489-2.267-1.466-3.006-0.972-0.744-2.548-1.113-4.717-1.113h-9.651v8.351h9.921z"/>
			<path d="m756.14 603.1-14.581-22.99h9.761l9.053 15.236 9.215-15.236h9.485l-14.581 22.823v15.127h-8.351z"/>
			<path d="m800.55 580.11h17.348c4.805 0 8.492 1.284 11.061 3.853 2.168 2.168 3.25 5.06 3.25 8.674v0.104c0 3.073-0.749 5.58-2.252 7.509-1.498 1.934-3.458 3.354-5.881 4.259l9.272 13.552h-9.761l-8.128-12.142h-6.562v12.142h-8.346zm16.807 18.434c2.059 0 3.64-0.489 4.743-1.466 1.102-0.972 1.654-2.272 1.654-3.9v-0.109c0-1.805-0.582-3.162-1.737-4.067-1.154-0.905-2.766-1.357-4.826-1.357h-8.294v10.899z"/>
			<path d="m848.58 587.81h-11.55v-7.701h31.445v7.701h-11.544v30.249h-8.351z"/>
			<path d="m874.87 580.11h8.346v30.416h17.808v7.535h-26.154z"/>
		</g>
	</g>
</svg>
