<svg width="800" height="136.7" version="1.1" viewBox="0 0 211.67 36.167" xmlns="http://www.w3.org/2000/svg">
 <g transform="translate(343.2 9.3536)">
  <g transform="matrix(.74065 0 0 .74065 617.53 -48.246)" fill="#d60100" aria-label="Videothek">
   <path d="m-1297.1 52.512h6.0469l13.113 39.586 13.008-39.586h5.7656l-16.348 48.023h-5.0274z"/>
   <path d="m-1255.3 56.625q0-1.6523 1.0195-2.6016 1.0547-0.94922 2.4961-0.94922t2.4258 0.94922q1.0196 0.94922 1.0196 2.6016 0 1.7227-1.0196 2.6367-0.9844 0.87891-2.4258 0.87891t-2.4961-0.87891q-1.0195-0.91406-1.0195-2.6367zm0.8438 43.91v-34.348h5.3437v34.348z"/>
   <path d="m-1241.2 83.027q0-5.4141 2.2851-9.7031 2.3203-4.3242 5.836-6.1523 3.5507-1.8281 7.5234-1.8281 2.5312 0 4.2891 0.38672 1.7578 0.38672 2.9531 0.87891v-14.098h5.2734v48.023h-4.8164l-0.457-2.8125q-1.793 1.9336-3.8672 2.7773-2.0391 0.84375-4.5352 0.84375-3.4453 0-6.1523-1.4062t-4.5703-3.8672q-1.8281-2.4609-2.8125-5.8008-0.9492-3.3398-0.9492-7.2422zm5.2031 0.31641q0 4.5352 1.4765 7.8398 1.4766 3.3047 3.7618 4.5 2.3203 1.1953 4.8867 1.1953 2.0742 0 4.0078-0.91406 1.9687-0.91406 3.5508-2.9883v-21.516q-1.3008-0.70312-3.2344-1.1602-1.9336-0.49219-3.1641-0.49219-4.0429 0-6.8554 2.3906-2.7774 2.3555-3.6211 5.4844-0.8086 3.1289-0.8086 5.6602z"/>
   <path d="m-1205.4 83.168q0-5.9062 2.1797-10.195 2.2149-4.3242 5.5899-5.9766 3.4101-1.6523 6.7851-1.6523 5.0977 0 8.4727 2.6719 3.4101 2.6367 4.6406 6.8906 1.2656 4.2539 1.2656 8.1211h-23.73q0 6.4688 2.7773 10.16 2.8125 3.6914 8.1563 3.6914 3.164 0 5.5898-1.0898 2.4609-1.0898 4.4297-2.7422l1.3359 4.5352q-1.582 1.582-4.8515 2.6719-3.2696 1.0898-6.6446 1.0898-7.3476 0-11.672-4.6406-4.3243-4.6758-4.3243-13.535zm5.6953-4.5352h17.262q-0.1407-2.9531-1.5469-5.0977-1.4063-2.1445-3.4102-2.9883t-3.4453-0.84375q-3.2344 0-5.625 2.0742-2.3554 2.0391-3.2344 6.8555z"/>
   <path d="m-1170.7 83.168q0-5.0977 2.0742-9.5625 2.1094-4.4648 5.6953-6.3633 3.6211-1.8984 7.418-1.8984 5.3438 0 8.9297 3.0586 3.6211 3.0586 4.9219 7.3125 1.3359 4.2188 1.3359 7.6289 0 5.3438-2.2851 9.8789-2.25 4.5-5.6954 6.3281-3.4453 1.793-7.207 1.793-3.832 0-6.6797-1.5469-2.8125-1.582-4.7109-4.1133-1.8633-2.5664-2.8477-5.8359-0.9492-3.3047-0.9492-6.6797zm5.2031 0q0 4.1133 1.4063 7.5586 1.4414 3.4102 3.7617 4.7812 2.3203 1.3711 4.8164 1.3711 3.375 0 5.8359-2.3203 2.461-2.3203 3.3047-5.5547 0.8789-3.2344 0.8789-5.7656 0-3.9727-1.4765-7.3125-1.4766-3.3398-3.7969-4.7812-2.2852-1.4414-4.7461-1.4414-3.6562 0-6.1172 2.4609-2.4258 2.4609-3.164 5.4844-0.7032 2.9883-0.7032 5.5195z"/>
   <path d="m-1135.8 70.723v-4.5352h5.625v-9.3516h5.2382v9.3516h8.5782v4.5352h-8.6485v21.973q0 2.5312 0.9141 3.375 0.9492 0.80859 2.3906 0.80859 2.3203 0 4.7461-1.8984l1.4414 4.1836q-1.2305 0.87891-2.9883 1.5117-1.7578 0.66797-4.0429 0.66797-3.6563 0-5.6602-1.9688-1.9687-2.0039-1.9687-6.1172v-22.535z"/>
   <path d="m-1109.9 100.54v-48.023h5.2734v16.418q2.0039-1.5117 4.4648-2.5312 2.4961-1.0547 5.6602-1.0547 6.6094 0 9.3867 3.5156 2.8125 3.5156 2.8125 10.301v21.375h-5.3437v-21.445q0-4.7461-1.8282-6.9961-1.8281-2.2852-5.9414-2.2852-2.6015 0-5.0273 1.2656-2.3906 1.2305-4.1836 2.6016v26.859z"/>
   <path d="m-1074.6 83.168q0-5.9062 2.1797-10.195 2.2148-4.3242 5.5898-5.9766 3.4102-1.6523 6.7852-1.6523 5.0976 0 8.4726 2.6719 3.4102 2.6367 4.6407 6.8906 1.2656 4.2539 1.2656 8.1211h-23.73q0 6.4688 2.7774 10.16 2.8125 3.6914 8.1562 3.6914 3.1641 0 5.5898-1.0898 2.461-1.0898 4.4297-2.7422l1.336 4.5352q-1.5821 1.582-4.8516 2.6719-3.2695 1.0898-6.6445 1.0898-7.3477 0-11.672-4.6406-4.3242-4.6758-4.3242-13.535zm5.6953-4.5352h17.262q-0.1406-2.9531-1.5469-5.0977-1.4062-2.1445-3.4101-2.9883t-3.4453-0.84375q-3.2344 0-5.625 2.0742-2.3555 2.0391-3.2344 6.8555z"/>
   <path d="m-1038.3 52.512h5.2734v26.438h3.5157q2.0039 0 3.5859-1.0547t3.0937-4.4297l3.1993-7.2773h5.6601l-3.5859 7.9102q-1.1602 2.5312-2.3906 4.1836-1.1954 1.6523-2.6368 2.25 2.0039 0.5625 3.2344 1.7578t2.2149 3.6914l5.7656 14.555h-5.836l-3.8671-9.5625q-1.6524-3.7266-2.461-4.9922-0.8086-1.3008-2.1797-1.8633-1.3359-0.5625-2.9179-0.5625h-4.3946v16.98h-5.2734z"/>
  </g>
 </g>
</svg>
