<svg version="1.1" viewBox="0 0 573.8 112.3" xml:space="preserve" xmlns="http://www.w3.org/2000/svg">
<g fill="#fff"><polygon class="st0" points="230.7 90.4 212.5 90.4 181.8 12.2 200.7 12.2 222.1 71.2 243.5 12.2 261.7 12.2"/><rect class="st0" x="272.3" y="12.2" width="17.7" height="78.2"/><rect class="st0" x="374.7" y="12.2" width="17.7" height="78.2"/><polygon class="st0" points="426.7 90.4 426.7 27.1 402.9 27.1 402.9 12.2 468.2 12.2 468.2 27.1 444.3 27.1 444.3 90.4"/><rect class="st0" x="462.9" y="46.9" width="34" height="14.9"/><polygon class="st0" points="534.5 36.1 517.9 12.2 497.4 12.2 523.5 49.9 495.5 90.4 516 90.4 534.6 63.5 553.3 90.4 573.8 90.4 545.6 49.7 571.6 12.2 551 12.2"/><path class="st0" d="m343.2 60.5c-2.1-2-7-2.6-11.5-2.9-8.7-0.4-14.5-1.6-19.2-4.7-3.4-2.4-5.9-6-6.9-10-0.8-2.8-1.1-5.6-1-8.5 0-2.9 0.4-5.8 1.3-8.6 1.1-3.6 3.3-6.8 6.3-9.1 6.3-4.8 14.9-5.7 22.5-5.7s15.9 1.9 22.6 4.2l-5.3 14.4c-5.5-2.2-11.4-3.5-17.3-3.6-4 0-8.9 0.8-11.3 2.5s-3 4.2-3.1 6.4c-0.2 1.8 0.4 3.5 1.6 4.8 1.1 1.2 3.8 2.1 6.9 2.4s8.1 0.7 12.6 1.3c4.6 0.5 9 2.3 12.7 5.2 5.1 4 7.4 10.8 7.3 17.8-0.2 9.7-3 14.8-8.1 19.1s-11.9 5.9-23.4 6c-8.1 0.1-18.3-2.2-25.2-4.7l5.1-15.1c7.5 2.8 13.4 4.6 19.8 4.9s10.3-0.6 12.8-2.5 3.2-4.7 3.3-7c0.1-2.5-0.8-4.9-2.5-6.6z"/></g>
<linearGradient id="b" x1="104.88" x2="133.4" y1="54.485" y2="32.075" gradientTransform="matrix(1,0,0,-1,0,128)" gradientUnits="userSpaceOnUse">
	<stop stop-color="#9E3026" offset="0"/>
	<stop stop-color="#A93329" offset=".02"/>
	<stop stop-color="#C43B2F" offset=".09"/>
	<stop stop-color="#DA4234" offset=".17"/>
	<stop stop-color="#EB4737" offset=".27"/>
	<stop stop-color="#F64A3A" offset=".38"/>
	<stop stop-color="#FD4C3C" offset=".55"/>
	<stop stop-color="#FF4D3C" offset="1"/>
</linearGradient>
<linearGradient id="a" x1="92.755" x2="68.505" y1="106.27" y2="124.35" gradientTransform="matrix(1,0,0,-1,0,128)" gradientUnits="userSpaceOnUse">
	<stop stop-color="#9E3026" offset="0"/>
	<stop stop-color="#BC392D" offset=".1"/>
	<stop stop-color="#D44032" offset=".21"/>
	<stop stop-color="#E74637" offset=".33"/>
	<stop stop-color="#F54A3A" offset=".47"/>
	<stop stop-color="#FD4C3B" offset=".65"/>
	<stop stop-color="#FF4D3C" offset="1"/>
</linearGradient>
<path class="st1" d="m101.4 77.5 9.2 13.3h18.2l-18.3-26.4 7.5-10.6 34 49.2h-47.8l-10.2-14.8z" fill="url(#b)"/><polygon class="st2" points="80.8 0 94.2 19.3 86.8 30.1 74.4 12.2" fill="url(#a)"/><polygon class="st3" points="49.8 24.4 77.6 64.5 113.8 12.2 132 12.2 77.6 90.9 23.2 12.2 74.4 12.2 74.8 12.7 81.2 0.6 80.8 0 0 0 77.6 112.3 155.3 0 107.4 0 77.6 43.2 64.6 24.4" fill="#ff4d3c"/>
</svg>
