<svg version="1.1" viewBox="0 0 800 621.99" xml:space="preserve" xmlns="http://www.w3.org/2000/svg"><defs><linearGradient id="g" x2="1" gradientTransform="matrix(3.3521 -8.6406 -8.6406 -3.3521 517 51.41)" gradientUnits="userSpaceOnUse"><stop stop-color="#a9b2c1" offset="0"/><stop stop-color="#a9b2c1" offset=".26807"/><stop stop-color="#fff" offset="1"/></linearGradient><linearGradient id="f" x2="1" gradientTransform="matrix(2.8757 -5.1518 -5.1518 -2.8757 516.04 52.907)" gradientUnits="userSpaceOnUse"><stop stop-color="#fff" offset="0"/><stop stop-color="#fff" offset=".055444"/><stop stop-color="#cacfd9" offset=".98617"/><stop stop-color="#cacfd9" offset="1"/></linearGradient><linearGradient id="e" x2="1" gradientTransform="matrix(7.1441 7.1441 -7.1441 7.1441 -5.3281 834.56)" gradientUnits="userSpaceOnUse"><stop stop-color="#cacfd9" offset="0"/><stop stop-color="#a9b2c1" offset=".51609"/><stop stop-color="#a9b2c1" offset="1"/></linearGradient><radialGradient id="d" cx="0" cy="0" r="1" fx=".048459" fy=".22269" gradientTransform="matrix(-8.4151 .01773 .014215 6.7466 516.88 47.125)" gradientUnits="userSpaceOnUse"><stop stop-color="#e83d36" offset="0"/><stop stop-color="#e83d36" offset=".88087"/><stop stop-color="#e83d36" offset=".91093"/><stop stop-color="#6e0f0d" offset="1"/></radialGradient><radialGradient id="c" cx="0" cy="0" r="1" gradientTransform="matrix(5.3682 -.10215 -.11908 -6.2581 520.82 47.577)" gradientUnits="userSpaceOnUse"><stop stop-color="#0063ae" offset="0"/><stop stop-color="#0063ae" offset=".85878"/><stop stop-color="#0063ae" offset=".86654"/><stop stop-color="#023a77" offset="1"/></radialGradient><radialGradient id="b" cx="0" cy="0" r="1" gradientTransform="matrix(-1.2649 11.074 9.47 1.0816 512.29 48.573)" gradientUnits="userSpaceOnUse"><stop stop-color="#e7453e" offset="0"/><stop stop-color="#e7453e" offset=".36996"/><stop stop-color="#e7453e" offset=".40871"/><stop stop-color="#b91913" offset=".53766"/><stop stop-color="#891110" offset=".60781"/><stop stop-color="#891110" offset=".69015"/><stop stop-color="#891110" offset="1"/></radialGradient><radialGradient id="a" cx="0" cy="0" r="1" gradientTransform="matrix(-4.3646 5.5343 5.1116 4.0312 520.63 46.034)" gradientUnits="userSpaceOnUse"><stop stop-color="#3686c7" offset="0"/><stop stop-color="#3686c7" offset=".58209"/><stop stop-color="#00569a" offset=".74928"/><stop stop-color="#00569a" offset=".9102"/><stop stop-color="#00569a" offset="1"/></radialGradient><clipPath id="h"><path d="m487.56 760.42h59.501v38.945h-59.501z"/></clipPath></defs><g transform="matrix(1.3333 0 0 -1.3333 -.00047875 621.99)"><g transform="matrix(27.6 0 0 27.6 -13962 -1025)"><path d="m520.05 49.379c-0.249-0.184-0.549-0.335-0.881-0.465v-2.558l-1.519 2.13c-0.544-0.117-1.101-0.216-1.623-0.323l3.142-4.405h1.513v6.14c-0.192-0.176-0.403-0.349-0.632-0.519m-5.906-1.8v-3.821h1.513v4.327c-0.599-0.133-1.131-0.287-1.513-0.506" fill="url(#g)"/><path d="m519.17 51.28v-2.366c0.332 0.13 0.632 0.281 0.881 0.465 0.229 0.17 0.44 0.343 0.632 0.519v1.382zm-5.025 0v-3.701c0.382 0.219 0.914 0.373 1.513 0.506v0.597l0.37-0.519c0.522 0.107 1.079 0.206 1.623 0.323l-1.993 2.794z" fill="url(#f)"/></g><g transform="matrix(27.6 0 0 27.6 367.17 182.75)"><path d="m0 0-3.512 4.924v-4.924h-1.514v7.521h1.514l3.512-4.924v4.924h1.513v-7.521z" fill="none" stroke="url(#e)" stroke-miterlimit="10" stroke-width=".114"/></g><g transform="matrix(27.6 0 0 27.6 -13962 -1025)"><path d="m516.75 54.039c-0.386-0.012-0.774-0.016-1.16-0.039-0.96-0.056-1.909-0.194-2.844-0.419-1.415-0.34-2.76-0.85-3.986-1.647-0.812-0.528-1.526-1.161-2.077-1.966-0.457-0.668-0.733-1.402-0.804-2.208-0.049-0.55 0.051-1.086 0.231-1.604 0.317-0.914 0.889-1.655 1.599-2.295 0.864-0.778 1.859-1.341 2.93-1.778 1.575-0.642 3.22-0.977 4.914-1.089 0.448-0.03 0.898-0.04 1.347-0.058 0 0.013 1e-3 0.026 1e-3 0.038-0.034 5e-3 -0.068 0.01-0.102 0.013-0.895 0.064-1.759 0.262-2.591 0.594-1.345 0.537-2.492 1.345-3.346 2.528-0.922 1.281-1.307 2.704-1.056 4.274 0.217 1.352 0.872 2.479 1.856 3.415 1.27 1.21 2.805 1.876 4.526 2.141 0.236 0.036 0.476 0.056 0.713 0.083-0.032 0.011-0.064 0.015-0.097 0.017z" fill="url(#d)"/><path d="m519.93 53.73c0.08-0.023 0.159-0.046 0.238-0.07 1.463-0.444 2.734-1.192 3.737-2.36 0.82-0.956 1.327-2.055 1.436-3.317 0.13-1.516-0.317-2.865-1.244-4.054-1.019-1.307-2.368-2.123-3.939-2.599-0.075-0.023-0.152-0.045-0.228-0.068 0.026-0.011 0.049-0.012 0.072-7e-3 0.622 0.158 1.252 0.29 1.864 0.48 1.255 0.389 2.428 0.954 3.47 1.767 0.784 0.611 1.44 1.331 1.862 2.242 0.253 0.546 0.404 1.117 0.407 1.712v0.047c-1e-3 0.088-5e-3 0.175-0.012 0.264-0.073 0.889-0.407 1.683-0.939 2.395-0.619 0.828-1.403 1.464-2.285 1.987-1.242 0.739-2.589 1.208-3.996 1.513-0.145 0.031-0.292 0.058-0.439 0.088-1e-3 -7e-3 -2e-3 -0.014-4e-3 -0.02" fill="url(#c)"/><path d="m516.75 54.039c-0.386-0.012-0.774-0.016-1.16-0.039-0.96-0.056-1.909-0.194-2.844-0.419-1.415-0.34-2.76-0.85-3.986-1.647-0.812-0.528-1.526-1.161-2.077-1.966-0.457-0.668-0.733-1.402-0.804-2.208-0.049-0.55 0.051-1.086 0.231-1.604 0.317-0.914 0.889-1.655 1.599-2.295 0.864-0.778 1.859-1.341 2.93-1.778 1.575-0.642 3.22-0.977 4.914-1.089 0.448-0.03 0.898-0.04 1.347-0.058 0 0.013 1e-3 0.026 1e-3 0.038-0.034 5e-3 -0.068 0.01-0.102 0.013-0.895 0.064-4.151 0.56-6.491 2.781-3.477 3.298-1.215 6.586 0.44 7.864 1.661 1.283 3.719 2.042 5.44 2.307 0.236 0.036 0.476 0.056 0.713 0.083-0.032 0.011-0.064 0.015-0.097 0.017z" fill="url(#b)"/><path d="m519.93 53.73c0.08-0.023 0.159-0.046 0.238-0.07 1.463-0.444 2.906-1.249 4.15-2.301 2.178-1.843 2.366-4.984 0.712-6.953-1.492-1.775-3.301-2.6-4.872-3.076-0.075-0.023-0.152-0.045-0.228-0.068 0.026-0.011 0.049-0.012 0.072-7e-3 0.622 0.158 1.252 0.29 1.864 0.48 1.255 0.389 2.428 0.954 3.47 1.767 0.784 0.611 1.44 1.331 1.862 2.242 0.253 0.546 0.404 1.117 0.407 1.712v0.047c-1e-3 0.088-5e-3 0.175-0.012 0.264-0.073 0.889-0.407 1.683-0.939 2.395-0.619 0.828-1.403 1.464-2.285 1.987-1.242 0.739-2.589 1.208-3.996 1.513-0.145 0.031-0.292 0.058-0.439 0.088-1e-3 -7e-3 -2e-3 -0.014-4e-3 -0.02" fill="url(#a)"/></g><path d="m128.32 56.427-10.736-35.383-10.736 35.383h-9.8531l15.125-44.96h10.929l15.125 44.96z"/><path d="m143.42 11.481h9.4667v44.96h-9.4667z"/><path d="m191.29 24.301c0-1.9872-0.41399-3.8088-1.2144-5.4647-0.80039-1.656-1.9596-3.1188-3.4224-4.3331-1.4628-1.2144-3.2292-2.1528-5.2715-2.8152-2.0976-0.68999-4.3884-1.0212-6.8999-1.0212-2.3736 0-4.7747 0.2484-7.1759 0.77279-2.4288 0.52439-4.6367 1.2696-6.6515 2.2632l1.9596 7.2311c1.6008-0.77279 3.4224-1.4352 5.4371-1.9596 1.9872-0.55199 4.0572-0.82799 6.1547-0.82799 2.2632 0 4.0848 0.46919 5.5199 1.4076 1.4076 0.91079 2.1252 2.2632 2.1252 4.0019 0 1.6284-0.68999 2.9532-2.0424 3.9743-1.3524 1.0488-3.4224 2.1252-6.2099 3.2568-1.9596 0.80039-3.726 1.656-5.2439 2.5116-1.5456 0.88319-2.8152 1.8768-3.864 2.9532-1.0212 1.0764-1.8216 2.2908-2.4012 3.6156-0.552 1.3248-0.82799 2.8152-0.82799 4.4711 0 4.1399 1.4076 7.3415 4.2227 9.5495 2.7876 2.2356 6.5687 3.3396 11.288 3.3396 2.4288 0 4.6643-0.2208 6.6791-0.66239 2.0424-0.44159 4.002-1.1868 5.8787-2.1528l-1.7388-7.2311c-1.6008 0.77279-3.2568 1.38-4.9679 1.8492-1.7388 0.46919-3.5052 0.71759-5.2991 0.71759-1.9872 0-3.588-0.3864-4.8023-1.104-1.2144-0.74519-1.8216-1.9044-1.8216-3.4776 0-0.71759 0.11039-1.3524 0.30359-1.9044 0.1932-0.52439 0.57959-1.0488 1.104-1.518 0.55199-0.46919 1.2696-0.93839 2.1528-1.4076 0.85559-0.46919 1.9872-1.0212 3.3396-1.6008 1.794-0.74519 3.5052-1.5732 5.1611-2.4288 1.6284-0.85559 3.0912-1.8492 4.3331-2.9532 1.2696-1.1316 2.2908-2.4288 3.036-3.9191 0.77279-1.4904 1.1592-3.2016 1.1592-5.1335"/><path d="m207.85 16.201c-0.2484-1.8492-0.68999-3.6432-1.3524-5.4095-0.66239-1.7388-1.5732-3.5052-2.7324-5.2991-1.1592-1.7664-2.7048-3.588-4.5815-5.4923l-6.5411 5.1335c1.0212 1.1592 1.932 2.3184 2.6772 3.4776 0.77279 1.1592 1.4076 2.3184 1.932 3.5328 0.52439 1.2144 0.91078 2.5116 1.1592 3.8916s0.3588 2.8704 0.3588 4.4987v35.907h9.4391v-34.362c0-2.07-0.1104-4.0295-0.3588-5.8787"/><path d="m238.12 18.092c2.208 0 4.14 0.414 5.7683 1.2144 1.656 0.80039 3.0084 1.932 4.1123 3.3396 1.104 1.4076 1.932 3.0912 2.484 5.0231 0.52439 1.932 0.80039 4.0295 0.80039 6.2927 0 2.2356-0.276 4.3331-0.80039 6.2651-0.55199 1.932-1.38 3.6156-2.484 5.0231-1.104 1.4352-2.4564 2.5392-4.1123 3.3396-1.6284 0.82799-3.5604 1.2144-5.7683 1.2144s-4.14-0.3864-5.7683-1.2144c-1.656-0.80039-3.0084-1.9044-4.1123-3.3396-1.104-1.4076-1.932-3.0912-2.484-5.0231-0.52439-1.932-0.80039-4.0295-0.80039-6.2651 0-2.2632 0.276-4.3607 0.80039-6.2927 0.55199-1.932 1.38-3.6156 2.484-5.0231 1.104-1.4076 2.4564-2.5392 4.1123-3.3396 1.6284-0.80039 3.5604-1.2144 5.7683-1.2144m22.604 15.87c0-3.2016-0.4968-6.2099-1.518-9.0251-0.99359-2.8152-2.484-5.2715-4.3884-7.3967-1.9044-2.0976-4.2779-3.7812-7.0931-5.0231-2.7876-1.242-6.0167-1.8492-9.6047-1.8492s-6.8171 0.60719-9.6323 1.8492c-2.7876 1.242-5.1611 2.9256-7.1207 5.0231-1.932 2.1252-3.3948 4.5815-4.3608 7.3967-0.99358 2.8152-1.4904 5.8235-1.4904 9.0251 0 3.1464 0.4968 6.1271 1.4904 8.9699 0.96599 2.8428 2.4288 5.2991 4.3608 7.4243 1.9596 2.1252 4.3331 3.7812 7.1207 5.0231 2.8152 1.242 6.0443 1.8492 9.6323 1.8492s6.8171-0.60719 9.6047-1.8492c2.8152-1.242 5.1887-2.898 7.0931-5.0231 1.9044-2.1252 3.3948-4.5815 4.3884-7.4243 1.0212-2.8428 1.518-5.8235 1.518-8.9699"/><path d="m298.06 11.476-21.003 29.421v-29.421h-9.0251v44.96h9.0251l21.003-29.449v29.449h9.0527v-44.96z"/><path d="m361.1 11.476-20.976 29.421v-29.421h-9.0527v44.96h9.0527l20.976-29.449v29.449h9.0527v-44.96z"/><path d="m400.04 18.092c2.208 0 4.14 0.414 5.7683 1.2144 1.656 0.80039 3.0084 1.932 4.1123 3.3396 1.104 1.4076 1.932 3.0912 2.484 5.0231 0.52439 1.932 0.80039 4.0295 0.80039 6.2927 0 2.2356-0.276 4.3331-0.80039 6.2651-0.55199 1.932-1.38 3.6156-2.484 5.0231-1.104 1.4352-2.4564 2.5392-4.1123 3.3396-1.6284 0.82799-3.5604 1.2144-5.7683 1.2144s-4.14-0.3864-5.7683-1.2144c-1.656-0.80039-3.0084-1.9044-4.1123-3.3396-1.104-1.4076-1.932-3.0912-2.484-5.0231-0.52439-1.932-0.80039-4.0295-0.80039-6.2651 0-2.2632 0.276-4.3607 0.80039-6.2927 0.55199-1.932 1.38-3.6156 2.484-5.0231 1.104-1.4076 2.4564-2.5392 4.1123-3.3396 1.6284-0.80039 3.5604-1.2144 5.7683-1.2144m22.604 15.87c0-3.2016-0.4968-6.2099-1.518-9.0251s-2.484-5.2715-4.3884-7.3967c-1.9044-2.0976-4.2779-3.7812-7.0655-5.0231-2.8152-1.242-6.0443-1.8492-9.6323-1.8492s-6.8171 0.60719-9.6323 1.8492c-2.7876 1.242-5.1611 2.9256-7.1207 5.0231-1.932 2.1252-3.3948 4.5815-4.3608 7.3967-0.99358 2.8152-1.4904 5.8235-1.4904 9.0251 0 3.1464 0.4968 6.1271 1.4904 8.9699 0.96599 2.8428 2.4288 5.2991 4.3608 7.4243 1.9596 2.1252 4.3331 3.7812 7.1207 5.0231 2.8152 1.242 6.0443 1.8492 9.6323 1.8492s6.8171-0.60719 9.6323-1.8492c2.7876-1.242 5.1611-2.898 7.0655-5.0231 1.9044-2.1252 3.3672-4.5815 4.3884-7.4243s1.518-5.8235 1.518-8.9699"/><path d="m453.02 42.523c0 2.2908-0.91079 3.9467-2.7048 4.9955-1.794 1.0212-4.1399 1.5456-7.0103 1.5456h-3.9192v-14.021h2.8428c3.2292 0 5.8511 0.60719 7.8107 1.8768 1.9872 1.2696 2.9808 3.1188 2.9808 5.6027m9.4391 0.1932c0-3.174-0.88319-5.8787-2.6772-8.0591-1.8216-2.1804-4.3883-3.864-7.7831-5.0231l15.207-18.161h-11.757l-13.027 16.394h-3.036v-16.394h-9.4391v44.96h13.413c2.7876 0 5.3543-0.276 7.7003-0.85559 2.346-0.55199 4.3607-1.4076 6.0443-2.5668 1.6836-1.1316 3.0084-2.5668 3.9468-4.2779 0.93838-1.7112 1.4076-3.726 1.4076-6.0167"/><path d="m493.52 57.236c2.7048 0 5.2163-0.1932 7.5623-0.60719 2.346-0.3864 4.6091-1.104 6.8171-2.1252l-1.3524-7.3139c-1.9872 0.80039-3.9468 1.4352-5.9339 1.8768-1.9872 0.4416-4.1124 0.68999-6.3479 0.68999-2.4288 0-4.6091-0.3588-6.5411-1.0212-1.932-0.68999-3.588-1.6836-4.9679-3.036-1.38-1.3524-2.4288-3.0912-3.174-5.1611-0.74519-2.07-1.104-4.4711-1.104-7.2311 0-5.1059 1.2972-8.9423 3.9192-11.564 2.5944-2.622 6.5135-3.9192 11.73-3.9192 1.0764 0 2.1804 0.0828 3.2844 0.2208 1.104 0.1656 2.0976 0.3864 2.9808 0.66239v13.275h8.5283v-18.354c-2.1252-0.88319-4.6091-1.6008-7.4795-2.1528-2.8428-0.55199-5.6855-0.80039-8.5283-0.80039-3.726 0-7.0655 0.55199-10.019 1.656s-5.4647 2.6496-7.5347 4.6367c-2.07 2.0148-3.6432 4.3883-4.7195 7.1759-1.0764 2.76-1.6284 5.8235-1.6284 9.1907 0 3.5604 0.55199 6.8171 1.656 9.7703 1.104 2.9256 2.7048 5.4647 4.8299 7.5623 2.1252 2.07 4.6919 3.6984 7.7003 4.8575 3.0084 1.1316 6.4583 1.7112 10.322 1.7112"/><path d="m517.68 56.427h26.992v-7.4795h-17.553v-10.874h16.753v-7.5071h-16.753v-11.592h17.747v-7.5071h-27.186z"/><g clip-path="url(#h)"><g transform="translate(491.15 759.39)"><path d="m0 0h-1.372v-3.698h-0.782v3.698h-1.369v0.547h3.523z" fill="#1d1d1b"/></g><g transform="translate(494.34 759.94)"><path d="m0 0h0.916l-1.582-4.245h-0.726l-1.471 4.245h0.86l1.001-3.167z" fill="#1d1d1b"/></g><g transform="translate(501.59 759.94)"><path d="m0 0h0.916l-1.582-4.245h-0.726l-1.471 4.245h0.86l1.001-3.167z" fill="#1d1d1b"/></g><path d="m503.13 759.94h0.783v-4.245h-0.783z" fill="#1d1d1b"/><g transform="translate(505.29 756.74)"><path d="m0 0c0.101-0.099 0.19-0.183 0.269-0.252 0.079-0.068 0.157-0.124 0.236-0.166 0.079-0.043 0.163-0.074 0.253-0.092 0.09-0.02 0.198-0.029 0.323-0.029 0.097 0 0.191 9e-3 0.284 0.029 0.092 0.018 0.174 0.05 0.246 0.095 0.072 0.046 0.13 0.106 0.173 0.182 0.044 0.076 0.066 0.171 0.066 0.285 0 0.077-0.016 0.146-0.049 0.205-0.032 0.06-0.08 0.115-0.145 0.166-0.064 0.05-0.145 0.099-0.242 0.146-0.096 0.047-0.208 0.096-0.336 0.149-0.043 0.018-0.083 0.034-0.119 0.049-0.036 0.014-0.07 0.029-0.102 0.043-0.033 0.015-0.065 0.029-0.097 0.042-0.032 0.014-0.067 0.029-0.103 0.045-0.074 0.032-0.153 0.067-0.239 0.104-0.085 0.037-0.17 0.08-0.254 0.13-0.085 0.05-0.166 0.107-0.245 0.172s-0.148 0.141-0.208 0.228c-0.06 0.086-0.108 0.186-0.144 0.298s-0.054 0.239-0.054 0.382c0 0.186 0.043 0.347 0.128 0.485 0.086 0.137 0.199 0.25 0.34 0.34 0.142 0.089 0.304 0.156 0.486 0.2s0.369 0.066 0.56 0.066c0.144 0 0.28-9e-3 0.407-0.028s0.248-0.049 0.363-0.091c0.115-0.041 0.225-0.095 0.332-0.16 0.106-0.065 0.212-0.142 0.318-0.233l-0.435-0.55c-0.076 0.075-0.148 0.141-0.216 0.201-0.069 0.059-0.139 0.11-0.212 0.152-0.073 0.041-0.153 0.073-0.239 0.095-0.087 0.021-0.185 0.032-0.295 0.032-0.083 0-0.168-8e-3 -0.255-0.024-0.086-0.017-0.164-0.043-0.234-0.08-0.071-0.037-0.128-0.085-0.173-0.144-0.044-0.059-0.066-0.131-0.066-0.215 0-0.102 0.029-0.192 0.088-0.272 0.059-0.081 0.13-0.152 0.213-0.213 0.084-0.061 0.171-0.114 0.263-0.157 0.092-0.044 0.172-0.079 0.238-0.106 0.059-0.025 0.109-0.047 0.149-0.064 0.041-0.017 0.082-0.034 0.121-0.05 0.04-0.016 0.083-0.033 0.13-0.051 0.046-0.018 0.105-0.042 0.175-0.071 0.055-0.021 0.117-0.048 0.185-0.08 0.068-0.031 0.138-0.069 0.209-0.113 0.071-0.045 0.141-0.097 0.209-0.157 0.068-0.061 0.129-0.132 0.182-0.213 0.054-0.081 0.096-0.174 0.128-0.279 0.033-0.105 0.049-0.224 0.049-0.358 0-0.135-0.022-0.259-0.064-0.371-0.043-0.112-0.102-0.212-0.177-0.301-0.075-0.088-0.163-0.165-0.266-0.231-0.102-0.066-0.212-0.121-0.33-0.163s-0.24-0.074-0.368-0.096-0.257-0.032-0.386-0.032c-0.176 0-0.34 0.013-0.49 0.04-0.149 0.027-0.291 0.068-0.424 0.121-0.132 0.053-0.258 0.119-0.377 0.197-0.118 0.079-0.232 0.17-0.343 0.273z" fill="#1d1d1b"/></g><path d="m508.8 759.94h0.783v-4.245h-0.783z" fill="#1d1d1b"/><g transform="translate(513.73 757.83)"><path d="m0 0c0 0.244-0.028 0.465-0.084 0.665s-0.136 0.371-0.241 0.513c-0.104 0.143-0.23 0.254-0.378 0.332-0.148 0.079-0.314 0.118-0.498 0.118-0.18 0-0.345-0.037-0.494-0.111s-0.277-0.18-0.384-0.318-0.191-0.305-0.25-0.5c-0.06-0.195-0.09-0.413-0.09-0.653 0-0.244 0.025-0.469 0.075-0.676 0.051-0.207 0.126-0.386 0.225-0.538 0.1-0.151 0.223-0.27 0.372-0.355 0.147-0.084 0.318-0.127 0.512-0.127 0.193 0 0.366 0.046 0.519 0.137s0.282 0.213 0.389 0.366c0.106 0.152 0.187 0.328 0.243 0.527 0.056 0.198 0.084 0.405 0.084 0.62m0.825 0.068c0-0.213-0.022-0.418-0.067-0.615-0.044-0.197-0.109-0.381-0.193-0.552-0.085-0.17-0.187-0.325-0.308-0.464-0.12-0.139-0.256-0.259-0.407-0.358-0.15-0.099-0.315-0.176-0.493-0.23-0.179-0.054-0.368-0.081-0.57-0.081-0.322 0-0.609 0.054-0.86 0.162-0.252 0.109-0.464 0.261-0.638 0.458-0.173 0.197-0.306 0.433-0.397 0.709-0.091 0.275-0.136 0.58-0.136 0.914 0 0.321 0.047 0.617 0.142 0.886s0.23 0.501 0.407 0.696c0.176 0.195 0.391 0.347 0.644 0.455 0.254 0.108 0.539 0.163 0.856 0.163 0.295 0 0.567-0.05 0.815-0.148 0.247-0.099 0.46-0.24 0.639-0.424 0.178-0.184 0.317-0.409 0.417-0.675 0.099-0.265 0.149-0.564 0.149-0.896" fill="#1d1d1b"/></g><g transform="translate(516.19 758.73)"><path d="m0 0v-3.039h-0.783v4.245h0.74l1.896-3.054v3.054h0.782l0.012-4.245h-0.74z" fill="#1d1d1b"/></g><g transform="translate(523.36 756.74)"><path d="m0 0c0.101-0.099 0.19-0.183 0.269-0.252 0.079-0.068 0.157-0.124 0.236-0.166 0.079-0.043 0.164-0.074 0.254-0.092 0.09-0.02 0.197-0.029 0.322-0.029 0.097 0 0.192 9e-3 0.284 0.029 0.092 0.018 0.174 0.05 0.246 0.095 0.072 0.046 0.13 0.106 0.173 0.182 0.044 0.076 0.066 0.171 0.066 0.285 0 0.077-0.016 0.146-0.049 0.205-0.032 0.06-0.08 0.115-0.145 0.166-0.064 0.05-0.145 0.099-0.241 0.146-0.097 0.047-0.209 0.096-0.336 0.149-0.044 0.018-0.084 0.034-0.12 0.049-0.036 0.014-0.07 0.029-0.102 0.043-0.032 0.015-0.065 0.029-0.097 0.042-0.032 0.014-0.066 0.029-0.102 0.045-0.074 0.032-0.154 0.067-0.24 0.104-0.085 0.037-0.17 0.08-0.254 0.13-0.085 0.05-0.166 0.107-0.245 0.172s-0.148 0.141-0.208 0.228c-0.059 0.086-0.107 0.186-0.143 0.298s-0.055 0.239-0.055 0.382c0 0.186 0.043 0.347 0.129 0.485 0.085 0.137 0.198 0.25 0.34 0.34 0.141 0.089 0.303 0.156 0.485 0.2s0.369 0.066 0.561 0.066c0.144 0 0.279-9e-3 0.406-0.028 0.128-0.019 0.249-0.049 0.363-0.091 0.115-0.041 0.226-0.095 0.332-0.16s0.212-0.142 0.318-0.233l-0.435-0.55c-0.076 0.075-0.148 0.141-0.216 0.201-0.069 0.059-0.139 0.11-0.212 0.152-0.073 0.041-0.153 0.073-0.239 0.095-0.087 0.021-0.185 0.032-0.295 0.032-0.083 0-0.168-8e-3 -0.255-0.024-0.086-0.017-0.164-0.043-0.234-0.08s-0.128-0.085-0.172-0.144c-0.045-0.059-0.067-0.131-0.067-0.215 0-0.102 0.029-0.192 0.088-0.272 0.059-0.081 0.13-0.152 0.213-0.213 0.084-0.061 0.172-0.114 0.264-0.157 0.092-0.044 0.171-0.079 0.237-0.106 0.059-0.025 0.109-0.047 0.15-0.064s0.081-0.034 0.121-0.05c0.039-0.016 0.083-0.033 0.129-0.051 0.047-0.018 0.105-0.042 0.175-0.071 0.055-0.021 0.117-0.048 0.185-0.08 0.068-0.031 0.138-0.069 0.209-0.113 0.071-0.045 0.141-0.097 0.209-0.157 0.069-0.061 0.129-0.132 0.183-0.213 0.052-0.081 0.095-0.174 0.128-0.279 0.032-0.105 0.048-0.224 0.048-0.358 0-0.135-0.021-0.259-0.064-0.371s-0.102-0.212-0.177-0.301c-0.074-0.088-0.163-0.165-0.266-0.231-0.102-0.066-0.212-0.121-0.33-0.163-0.117-0.042-0.24-0.074-0.368-0.096s-0.257-0.032-0.386-0.032c-0.176 0-0.34 0.013-0.489 0.04-0.15 0.027-0.291 0.068-0.424 0.121s-0.259 0.119-0.377 0.197c-0.119 0.079-0.233 0.17-0.343 0.273z" fill="#1d1d1b"/></g><g transform="translate(529.41 759.94)"><path d="m0 0h0.916l-1.582-4.245h-0.726l-1.471 4.245h0.86l1.001-3.167z" fill="#1d1d1b"/></g><g transform="translate(533.47 759.39)"><path d="m0 0h-1.744v-1.162h1.388v-0.547h-1.388v-1.436h1.818v-0.55h-2.601v4.245h2.527z" fill="#1d1d1b"/></g><g transform="translate(535.12 757.99)"><path d="m0 0c0.059-7e-3 0.119-0.012 0.179-0.013 0.061-3e-3 0.123-3e-3 0.185-3e-3 0.156 0 0.295 0.017 0.419 0.051 0.123 0.035 0.227 0.084 0.313 0.149 0.085 0.065 0.15 0.144 0.195 0.237 0.044 0.093 0.067 0.198 0.067 0.316 0 0.117-0.016 0.217-0.046 0.3s-0.083 0.152-0.159 0.205-0.178 0.093-0.306 0.118-0.29 0.038-0.485 0.038h-0.362zm-3e-3 -2.3h-0.779v4.245h1.263c0.285 0 0.53-0.027 0.737-0.081s0.378-0.132 0.514-0.233 0.236-0.224 0.301-0.369c0.066-0.144 0.099-0.308 0.099-0.49 0-0.119-0.016-0.241-0.047-0.367-0.032-0.126-0.087-0.245-0.166-0.359-0.078-0.114-0.185-0.218-0.319-0.312-0.135-0.093-0.306-0.169-0.513-0.227l1.358-1.807h-0.88l-1.192 1.736c-0.047 0-0.102 1e-3 -0.162 3e-3 -0.061 2e-3 -0.131 9e-3 -0.211 0.022z" fill="#1d1d1b"/></g><path d="m538.19 759.94h0.783v-4.245h-0.783z" fill="#1d1d1b"/><g transform="translate(543.46 755.98)"><path d="m0 0c-0.103-0.052-0.208-0.101-0.317-0.145s-0.229-0.083-0.36-0.115c-0.131-0.033-0.277-0.058-0.439-0.076-0.161-0.018-0.344-0.027-0.549-0.027-0.223 0-0.427 0.029-0.609 0.087-0.182 0.057-0.344 0.137-0.486 0.239-0.143 0.102-0.266 0.223-0.37 0.363-0.105 0.14-0.19 0.292-0.258 0.455-0.067 0.164-0.118 0.336-0.151 0.517-0.033 0.18-0.05 0.363-0.05 0.547 0 0.195 0.02 0.385 0.06 0.571s0.099 0.362 0.177 0.527c0.077 0.166 0.174 0.317 0.29 0.455s0.249 0.257 0.4 0.357c0.151 0.099 0.319 0.177 0.505 0.233s0.388 0.084 0.606 0.084c0.108 0 0.207-3e-3 0.296-8e-3 0.089-6e-3 0.173-0.015 0.251-0.029 0.077-0.013 0.151-0.032 0.22-0.055 0.069-0.024 0.139-0.053 0.211-0.088 0.071-0.036 0.144-0.078 0.22-0.128s0.159-0.108 0.25-0.175l-0.412-0.541c-0.099 0.086-0.19 0.158-0.275 0.215-0.084 0.057-0.168 0.102-0.25 0.135-0.083 0.034-0.168 0.057-0.256 0.071-0.088 0.013-0.187 0.02-0.295 0.02-0.188 0-0.355-0.04-0.501-0.12-0.146-0.081-0.269-0.191-0.368-0.331-0.1-0.14-0.175-0.304-0.226-0.493-0.052-0.189-0.077-0.391-0.077-0.608 0-0.228 0.022-0.445 0.067-0.652 0.044-0.206 0.115-0.389 0.212-0.547 0.096-0.158 0.221-0.284 0.374-0.378s0.336-0.141 0.55-0.141c0.059 0 0.123 3e-3 0.19 8e-3 0.067 6e-3 0.135 0.013 0.203 0.023s0.135 0.022 0.201 0.036c0.065 0.013 0.126 0.027 0.183 0.042v1.433h0.783z" fill="#1d1d1b"/></g><g transform="translate(546.89 759.39)"><path d="m0 0h-1.744v-1.162h1.388v-0.547h-1.388v-1.436h1.818v-0.55h-2.601v4.245h2.527z" fill="#1d1d1b"/></g><g transform="translate(489.04 755.76)"><path d="m0 0h0.672v3.698h1.372v0.437h-3.413v-0.437h1.369zm0.783-0.111h-0.894v3.698h-1.368v0.658h3.633v-0.658h-1.371z" fill="#1d1d1b"/></g><g transform="translate(492.97 755.76)"><path d="m0 0h0.648l1.541 4.135h-0.796l-1.043-3.295-1.042 3.295h-0.741zm0.725-0.111h-0.804l-0.013 0.038-1.496 4.318h0.977l0.961-3.039 0.962 3.039h1.036z" fill="#1d1d1b"/></g><g transform="translate(500.23 755.76)"><path d="m0 0h0.648l1.541 4.135h-0.796l-1.043-3.295-1.042 3.295h-0.741zm0.725-0.111h-0.804l-0.013 0.038-1.496 4.318h0.977l0.961-3.039 0.962 3.039h1.036z" fill="#1d1d1b"/></g><path d="m503.19 755.76h0.672v4.135h-0.672zm0.783-0.11h-0.893v4.356h0.893z" fill="#1d1d1b"/><g transform="translate(504.81 756.27)"><path d="m0 0c0.094-0.084 0.191-0.159 0.29-0.225 0.115-0.077 0.239-0.141 0.367-0.193 0.129-0.051 0.268-0.091 0.414-0.117 0.253-0.046 0.561-0.058 0.856-8e-3 0.124 0.021 0.245 0.052 0.359 0.093s0.221 0.094 0.319 0.157c0.097 0.063 0.183 0.137 0.253 0.221 0.071 0.083 0.127 0.179 0.168 0.285 0.04 0.105 0.06 0.223 0.06 0.351s-0.016 0.243-0.046 0.342-0.071 0.188-0.121 0.265c-0.051 0.077-0.109 0.144-0.173 0.201-0.065 0.058-0.133 0.109-0.202 0.152s-0.138 0.08-0.203 0.11c-0.067 0.031-0.128 0.058-0.182 0.079-0.071 0.029-0.129 0.052-0.175 0.071-0.046 0.018-0.09 0.035-0.13 0.051-0.04 0.017-0.081 0.033-0.122 0.051-0.04 0.017-0.09 0.038-0.149 0.063-0.067 0.028-0.147 0.063-0.24 0.107-0.094 0.045-0.186 0.099-0.272 0.162-0.088 0.065-0.164 0.141-0.225 0.225-0.066 0.09-0.099 0.192-0.099 0.305 0 0.097 0.026 0.18 0.078 0.249 0.049 0.065 0.113 0.118 0.19 0.159 0.075 0.039 0.159 0.068 0.251 0.085 0.21 0.039 0.415 0.031 0.573-9e-3 0.09-0.022 0.175-0.056 0.253-0.1 0.076-0.044 0.15-0.097 0.22-0.158 0.056-0.049 0.114-0.102 0.175-0.16l0.364 0.46c-0.09 0.073-0.181 0.138-0.271 0.194-0.101 0.062-0.21 0.114-0.321 0.154-0.111 0.041-0.229 0.07-0.352 0.088-0.287 0.044-0.637 0.039-0.947-0.037-0.176-0.042-0.333-0.107-0.469-0.193-0.133-0.084-0.241-0.193-0.322-0.322-0.08-0.128-0.12-0.282-0.12-0.456 0-0.136 0.017-0.259 0.051-0.365 0.035-0.107 0.081-0.202 0.137-0.284 0.057-0.082 0.123-0.155 0.197-0.216 0.077-0.063 0.157-0.119 0.238-0.167 0.083-0.049 0.166-0.092 0.249-0.127l0.239-0.105c0.036-0.016 0.07-0.03 0.102-0.044 0.032-0.013 0.065-0.027 0.098-0.042 0.031-0.015 0.065-0.029 0.1-0.043 0.036-0.014 0.076-0.031 0.12-0.049 0.128-0.052 0.242-0.103 0.339-0.15 0.099-0.048 0.184-0.1 0.252-0.152 0.07-0.056 0.124-0.117 0.159-0.183 0.037-0.068 0.055-0.145 0.055-0.232 0-0.123-0.024-0.229-0.072-0.312-0.048-0.084-0.113-0.151-0.193-0.201-0.076-0.048-0.165-0.083-0.264-0.104-0.218-0.044-0.463-0.034-0.628 0-0.096 0.02-0.186 0.053-0.269 0.098-0.081 0.044-0.164 0.102-0.246 0.173-0.07 0.062-0.149 0.135-0.235 0.219zm1.551-0.686c-0.179 0-0.347 0.014-0.5 0.042s-0.3 0.069-0.435 0.124c-0.135 0.054-0.265 0.122-0.387 0.202-0.12 0.08-0.238 0.174-0.35 0.279l-0.045 0.042 0.649 0.563 0.036-0.036c0.099-0.097 0.188-0.181 0.267-0.249 0.076-0.066 0.152-0.12 0.226-0.16 0.073-0.039 0.154-0.068 0.238-0.086 0.152-0.032 0.381-0.042 0.584 0 0.085 0.017 0.162 0.047 0.228 0.089 0.064 0.04 0.116 0.094 0.155 0.162 0.038 0.067 0.058 0.153 0.058 0.257 0 0.068-0.014 0.128-0.042 0.179-0.028 0.053-0.072 0.102-0.13 0.149-0.062 0.047-0.14 0.095-0.232 0.139-0.095 0.047-0.207 0.096-0.333 0.148-0.044 0.018-0.083 0.034-0.119 0.048-0.037 0.015-0.072 0.03-0.105 0.045-0.032 0.014-0.063 0.028-0.095 0.041-0.033 0.014-0.067 0.029-0.104 0.045l-0.238 0.105c-0.087 0.037-0.174 0.082-0.261 0.132-0.086 0.051-0.171 0.111-0.252 0.178-0.082 0.067-0.155 0.148-0.218 0.238-0.062 0.091-0.113 0.196-0.151 0.313s-0.057 0.252-0.057 0.399c0 0.196 0.046 0.368 0.137 0.514 0.09 0.144 0.21 0.264 0.357 0.357 0.146 0.092 0.314 0.162 0.502 0.208 0.324 0.079 0.688 0.084 0.989 0.039 0.13-0.02 0.256-0.051 0.374-0.094s0.233-0.098 0.341-0.164 0.218-0.147 0.326-0.238l0.04-0.035-0.506-0.64-0.044 0.043c-0.075 0.074-0.147 0.14-0.214 0.199-0.065 0.056-0.133 0.105-0.203 0.145-0.069 0.039-0.144 0.069-0.225 0.089-0.143 0.036-0.332 0.044-0.526 8e-3 -0.08-0.016-0.154-0.041-0.219-0.075-0.063-0.033-0.115-0.076-0.154-0.128-0.038-0.05-0.056-0.109-0.056-0.182 0-0.09 0.026-0.168 0.078-0.24 0.055-0.075 0.123-0.143 0.201-0.201 0.081-0.058 0.166-0.109 0.254-0.151 0.091-0.043 0.17-0.078 0.235-0.104 0.06-0.026 0.11-0.047 0.15-0.064 0.041-0.018 0.081-0.034 0.121-0.05 0.039-0.016 0.082-0.033 0.128-0.052 0.047-0.018 0.106-0.041 0.176-0.071 0.055-0.021 0.118-0.048 0.188-0.08 0.069-0.032 0.141-0.072 0.215-0.117 0.074-0.047 0.147-0.101 0.216-0.163 0.072-0.063 0.136-0.139 0.192-0.223v-1e-3c0.056-0.086 0.101-0.184 0.135-0.293 0.033-0.109 0.05-0.235 0.05-0.374 0-0.141-0.022-0.273-0.067-0.39-0.045-0.118-0.107-0.224-0.186-0.317-0.078-0.092-0.172-0.174-0.278-0.243-0.105-0.067-0.22-0.124-0.342-0.168-0.119-0.043-0.247-0.076-0.378-0.098-0.13-0.023-0.263-0.034-0.394-0.034" fill="#1d1d1b"/></g><path d="m508.86 755.76h0.672v4.135h-0.672zm0.783-0.11h-0.893v4.356h0.893z" fill="#1d1d1b"/><g transform="translate(512.53 759.42)"><path d="m0 0c-0.171 0-0.329-0.035-0.469-0.105-0.141-0.07-0.264-0.172-0.365-0.303-0.103-0.132-0.184-0.294-0.241-0.482-0.058-0.189-0.088-0.403-0.088-0.637 0-0.238 0.025-0.461 0.074-0.662 0.049-0.2 0.122-0.375 0.218-0.521 0.094-0.144 0.213-0.257 0.352-0.337s0.302-0.12 0.485-0.12c0.182 0 0.348 0.043 0.491 0.129 0.145 0.086 0.27 0.204 0.371 0.35 0.102 0.146 0.181 0.318 0.236 0.51 0.054 0.193 0.082 0.397 0.082 0.605 0 0.237-0.028 0.456-0.082 0.651-0.054 0.192-0.133 0.359-0.232 0.495-0.099 0.135-0.22 0.242-0.36 0.316-0.139 0.074-0.298 0.111-0.472 0.111m-0.034-3.278c-0.202 0-0.384 0.045-0.54 0.135-0.154 0.088-0.286 0.214-0.39 0.372-0.103 0.156-0.181 0.343-0.232 0.555-0.051 0.21-0.077 0.442-0.077 0.689 0 0.245 0.031 0.47 0.092 0.669 0.061 0.201 0.148 0.375 0.259 0.518 0.112 0.144 0.248 0.256 0.404 0.334 0.156 0.077 0.33 0.117 0.518 0.117 0.192 0 0.369-0.042 0.524-0.124 0.155-0.083 0.288-0.2 0.397-0.349 0.108-0.146 0.191-0.325 0.249-0.531 0.057-0.204 0.086-0.433 0.086-0.68 0-0.218-0.029-0.432-0.086-0.635-0.057-0.204-0.142-0.387-0.251-0.544-0.11-0.158-0.247-0.287-0.405-0.381-0.161-0.096-0.345-0.145-0.548-0.145m0.04 3.86c-0.308 0-0.589-0.053-0.834-0.157-0.244-0.105-0.455-0.253-0.625-0.442-0.171-0.188-0.304-0.416-0.396-0.678-0.092-0.261-0.139-0.553-0.139-0.867 0-0.326 0.045-0.628 0.134-0.897 0.088-0.267 0.218-0.499 0.386-0.689s0.376-0.339 0.618-0.444c0.243-0.105 0.525-0.158 0.839-0.158 0.194 0 0.38 0.027 0.553 0.079 0.172 0.052 0.334 0.128 0.479 0.224 0.146 0.096 0.279 0.213 0.396 0.347 0.116 0.134 0.217 0.287 0.299 0.453s0.146 0.347 0.19 0.539c0.043 0.193 0.065 0.396 0.065 0.603 0 0.324-0.049 0.62-0.146 0.877-0.096 0.257-0.232 0.478-0.405 0.656-0.171 0.177-0.38 0.316-0.619 0.411-0.24 0.095-0.507 0.143-0.795 0.143m-0.017-4.442c-0.329 0-0.626 0.056-0.883 0.167-0.257 0.11-0.478 0.269-0.657 0.472-0.178 0.201-0.315 0.446-0.408 0.728-0.093 0.279-0.14 0.593-0.14 0.931 0 0.327 0.049 0.631 0.146 0.904 0.097 0.275 0.238 0.516 0.418 0.715 0.181 0.201 0.404 0.358 0.664 0.469 0.259 0.111 0.554 0.167 0.877 0.167 0.302 0 0.583-0.051 0.836-0.151 0.254-0.101 0.475-0.248 0.658-0.437s0.327-0.423 0.428-0.694c0.102-0.27 0.153-0.578 0.153-0.916 0-0.216-0.022-0.427-0.068-0.627-0.045-0.201-0.112-0.39-0.198-0.564-0.086-0.175-0.192-0.335-0.315-0.476-0.123-0.142-0.264-0.266-0.418-0.368-0.155-0.101-0.325-0.181-0.508-0.237-0.183-0.055-0.38-0.083-0.585-0.083" fill="#1d1d1b"/></g><g transform="translate(518.14 755.76)"><path d="m0 0h0.654l-0.011 4.135h-0.673v-3.192l-1.981 3.192h-0.654v-4.135h0.673v3.176zm0.765-0.111h-0.826l-1.821 2.903v-2.903h-0.893v4.356h0.826l0.016-0.026 1.793-2.888v2.914h0.893z" fill="#1d1d1b"/></g><g transform="translate(522.9 756.27)"><path d="m0 0c0.094-0.084 0.192-0.16 0.29-0.225 0.116-0.077 0.239-0.141 0.367-0.193 0.128-0.051 0.267-0.091 0.414-0.117 0.253-0.046 0.56-0.058 0.856-8e-3 0.124 0.021 0.245 0.052 0.359 0.093s0.221 0.094 0.319 0.157 0.183 0.138 0.254 0.221c0.071 0.084 0.127 0.18 0.166 0.285 0.041 0.105 0.061 0.223 0.061 0.351 0 0.127-0.016 0.242-0.046 0.342-0.03 0.099-0.071 0.188-0.122 0.265-0.05 0.076-0.108 0.144-0.172 0.201-0.065 0.058-0.133 0.109-0.202 0.152s-0.137 0.08-0.203 0.111c-0.067 0.03-0.128 0.057-0.182 0.078-0.071 0.029-0.129 0.052-0.175 0.071-0.047 0.018-0.09 0.035-0.13 0.051-0.04 0.017-0.081 0.033-0.122 0.051-0.04 0.017-0.09 0.038-0.149 0.063-0.067 0.028-0.147 0.063-0.24 0.107-0.095 0.045-0.186 0.099-0.272 0.162-0.088 0.065-0.163 0.14-0.225 0.225-0.066 0.09-0.1 0.192-0.1 0.305 0 0.096 0.027 0.18 0.078 0.249 0.05 0.065 0.114 0.118 0.191 0.159 0.074 0.039 0.159 0.068 0.251 0.085 0.209 0.039 0.415 0.031 0.572-9e-3 0.091-0.022 0.176-0.056 0.253-0.1s0.151-0.097 0.221-0.158c0.056-0.049 0.114-0.102 0.175-0.16l0.364 0.459c-0.091 0.075-0.182 0.14-0.271 0.195-0.102 0.062-0.21 0.114-0.321 0.154-0.111 0.041-0.229 0.07-0.352 0.088-0.288 0.044-0.637 0.039-0.947-0.037-0.176-0.043-0.334-0.108-0.468-0.193-0.134-0.084-0.243-0.193-0.323-0.322-0.08-0.128-0.12-0.282-0.12-0.456 0-0.136 0.017-0.259 0.051-0.365 0.034-0.107 0.081-0.202 0.137-0.284 0.057-0.082 0.123-0.155 0.197-0.216 0.076-0.063 0.156-0.119 0.238-0.167 0.083-0.049 0.166-0.091 0.249-0.127l0.239-0.105c0.036-0.016 0.07-0.03 0.102-0.044 0.032-0.013 0.065-0.027 0.097-0.042s0.066-0.029 0.101-0.043 0.075-0.03 0.118-0.048c0.128-0.053 0.242-0.103 0.341-0.151 0.1-0.048 0.184-0.1 0.252-0.152 0.07-0.056 0.124-0.118 0.159-0.183 0.037-0.068 0.056-0.146 0.056-0.232 0-0.123-0.025-0.228-0.073-0.312s-0.113-0.151-0.193-0.201c-0.077-0.048-0.166-0.083-0.264-0.104-0.218-0.044-0.463-0.034-0.629 0-0.095 0.02-0.186 0.053-0.268 0.098s-0.165 0.103-0.246 0.174c-0.07 0.061-0.149 0.134-0.235 0.218zm1.55-0.686c-0.178 0-0.346 0.014-0.499 0.042-0.154 0.028-0.3 0.069-0.435 0.124-0.135 0.054-0.265 0.122-0.387 0.202-0.119 0.08-0.237 0.173-0.35 0.279l-0.045 0.041 0.649 0.564 0.036-0.036c0.098-0.097 0.188-0.18 0.267-0.249 0.074-0.065 0.151-0.119 0.226-0.16 0.073-0.039 0.153-0.068 0.238-0.086 0.152-0.032 0.382-0.042 0.584 0 0.085 0.017 0.161 0.047 0.227 0.089 0.065 0.04 0.117 0.094 0.156 0.162 0.038 0.067 0.058 0.153 0.058 0.257 0 0.068-0.014 0.128-0.042 0.179-0.028 0.052-0.072 0.102-0.131 0.149-0.061 0.047-0.139 0.095-0.231 0.139-0.097 0.047-0.209 0.097-0.333 0.148-0.045 0.018-0.084 0.035-0.119 0.048-0.037 0.015-0.072 0.03-0.105 0.045-0.032 0.014-0.063 0.028-0.095 0.041-0.033 0.014-0.067 0.029-0.104 0.045l-0.238 0.105c-0.087 0.037-0.174 0.082-0.261 0.132-0.087 0.052-0.172 0.112-0.252 0.178-0.082 0.068-0.156 0.148-0.218 0.238-0.062 0.091-0.113 0.196-0.151 0.313-0.037 0.117-0.057 0.252-0.057 0.399 0 0.196 0.046 0.368 0.137 0.514 0.089 0.144 0.21 0.264 0.357 0.357 0.145 0.092 0.314 0.162 0.502 0.208 0.324 0.079 0.688 0.084 0.989 0.039 0.13-0.02 0.256-0.051 0.373-0.094 0.118-0.043 0.233-0.098 0.342-0.164 0.107-0.066 0.217-0.146 0.326-0.238l0.04-0.035-0.506-0.64-0.044 0.043c-0.075 0.074-0.147 0.14-0.214 0.199-0.065 0.056-0.133 0.105-0.203 0.145-0.069 0.039-0.145 0.069-0.226 0.089-0.142 0.036-0.332 0.044-0.525 8e-3 -0.08-0.016-0.154-0.041-0.219-0.075-0.063-0.033-0.115-0.076-0.154-0.128-0.038-0.05-0.056-0.109-0.056-0.182 0-0.09 0.025-0.168 0.078-0.24 0.055-0.076 0.123-0.143 0.201-0.201 0.08-0.058 0.166-0.109 0.254-0.151 0.092-0.043 0.169-0.078 0.235-0.104 0.06-0.026 0.11-0.047 0.15-0.064 0.041-0.018 0.081-0.034 0.121-0.05 0.039-0.016 0.082-0.033 0.128-0.051 0.047-0.019 0.106-0.042 0.177-0.072 0.054-0.021 0.117-0.048 0.187-0.08 0.069-0.033 0.142-0.072 0.215-0.117 0.073-0.046 0.146-0.101 0.216-0.163 0.072-0.064 0.136-0.139 0.192-0.224s0.101-0.184 0.135-0.293c0.033-0.11 0.051-0.236 0.051-0.374 0-0.142-0.023-0.273-0.068-0.391-0.044-0.116-0.107-0.223-0.186-0.316-0.078-0.092-0.171-0.173-0.278-0.243-0.105-0.067-0.22-0.124-0.342-0.168-0.12-0.043-0.247-0.076-0.378-0.098-0.131-0.023-0.263-0.034-0.395-0.034" fill="#1d1d1b"/></g><g transform="translate(528.08 755.76)"><path d="m0 0h0.648l1.541 4.135h-0.796l-1.043-3.295-1.042 3.295h-0.741zm0.725-0.111h-0.804l-1.51 4.356h0.978l0.961-3.039 0.962 3.039h1.036z" fill="#1d1d1b"/></g><g transform="translate(531.03 755.76)"><path d="m0 0h2.49v0.439h-1.818v1.547h1.388v0.436h-1.388v1.273h1.744v0.44h-2.416zm2.601-0.111h-2.712v4.356h2.638v-0.66h-1.745v-1.052h1.389v-0.658h-1.389v-1.325h1.819z" fill="#1d1d1b"/></g><g transform="translate(535.22 758.05)"><path d="m0 0c0.041-4e-3 0.083-7e-3 0.125-8e-3 0.061-2e-3 0.122-2e-3 0.184-2e-3 0.15 0 0.285 0.016 0.404 0.049 0.115 0.032 0.214 0.079 0.293 0.14 0.078 0.059 0.139 0.132 0.179 0.217 0.041 0.085 0.062 0.183 0.062 0.291 0 0.11-0.015 0.205-0.043 0.282-0.026 0.073-0.072 0.131-0.139 0.178-0.069 0.049-0.165 0.085-0.285 0.109-0.123 0.025-0.283 0.037-0.474 0.037h-0.306zm0.309-0.121c-0.064 0-0.126 0-0.187 3e-3 -0.062 1e-3 -0.124 6e-3 -0.184 0.014l-0.049 5e-3v1.503h0.417c0.198 0 0.365-0.013 0.496-0.039 0.135-0.027 0.245-0.07 0.327-0.127 0.085-0.06 0.145-0.137 0.179-0.231 0.033-0.089 0.049-0.197 0.049-0.32 0-0.125-0.024-0.239-0.072-0.339-0.049-0.101-0.12-0.188-0.212-0.257-0.09-0.069-0.201-0.123-0.331-0.159-0.128-0.035-0.273-0.053-0.433-0.053m1.23-2.173h0.739l-1.339 1.783 0.077 0.021c0.2 0.056 0.367 0.13 0.496 0.22 0.128 0.089 0.231 0.19 0.307 0.298 0.075 0.109 0.127 0.223 0.156 0.341 0.03 0.12 0.046 0.239 0.046 0.353 0 0.174-0.032 0.331-0.094 0.468-0.061 0.135-0.157 0.252-0.284 0.347-0.13 0.097-0.296 0.172-0.494 0.224-0.202 0.053-0.445 0.079-0.723 0.079h-1.209v-4.134h0.669l3e-3 1.77 0.064-0.01c0.077-0.012 0.146-0.019 0.204-0.021 0.06-2e-3 0.113-3e-3 0.16-3e-3h0.029zm0.961-0.111h-1.019l-1.193 1.737c-0.041 0-0.085 1e-3 -0.134 2e-3 -0.046 2e-3 -0.098 6e-3 -0.154 0.013l-3e-3 -1.752h-0.891v4.356h1.32c0.287 0 0.54-0.028 0.751-0.083 0.212-0.056 0.391-0.137 0.532-0.242 0.143-0.107 0.25-0.238 0.319-0.391 0.069-0.151 0.103-0.323 0.103-0.513 0-0.123-0.016-0.251-0.048-0.38-0.033-0.13-0.091-0.257-0.173-0.377-0.083-0.119-0.196-0.229-0.335-0.325-0.122-0.085-0.273-0.157-0.452-0.213z" fill="#1d1d1b"/></g><path d="m538.28 755.76h0.672v4.135h-0.672zm0.782-0.11h-0.893v4.356h0.893z" fill="#1d1d1b"/><g transform="translate(541.95 760)"><path d="m0 0c-0.212 0-0.41-0.027-0.59-0.082-0.18-0.054-0.345-0.13-0.491-0.226-0.145-0.095-0.276-0.212-0.388-0.345-0.112-0.134-0.207-0.283-0.282-0.444-0.076-0.16-0.134-0.333-0.173-0.514-0.039-0.182-0.058-0.37-0.058-0.561 0-0.18 0.016-0.361 0.048-0.537 0.033-0.175 0.082-0.345 0.148-0.505 0.065-0.158 0.15-0.307 0.251-0.443 0.1-0.135 0.221-0.253 0.358-0.351s0.295-0.176 0.471-0.232 0.375-0.084 0.592-0.084c0.204 0 0.386 9e-3 0.543 0.027 0.158 0.017 0.303 0.042 0.431 0.074 0.129 0.032 0.247 0.07 0.353 0.113 0.097 0.039 0.192 0.082 0.282 0.128v1.671h-0.671v-1.421l-0.042-0.01c-0.058-0.015-0.12-0.029-0.186-0.043-0.067-0.013-0.135-0.026-0.204-0.036s-0.138-0.018-0.207-0.023c-0.069-6e-3 -0.133-9e-3 -0.194-9e-3 -0.223 0-0.418 0.051-0.579 0.15-0.16 0.098-0.292 0.231-0.392 0.396-0.1 0.162-0.173 0.352-0.219 0.564-0.046 0.209-0.069 0.432-0.069 0.664 0 0.22 0.027 0.429 0.079 0.622 0.053 0.194 0.132 0.366 0.235 0.511 0.104 0.146 0.234 0.263 0.387 0.347 0.154 0.084 0.331 0.127 0.527 0.127 0.11 0 0.212-7e-3 0.303-0.021 0.093-0.014 0.183-0.039 0.269-0.074 0.085-0.034 0.172-0.082 0.26-0.14 0.074-0.05 0.152-0.111 0.235-0.181l0.343 0.45c-0.072 0.052-0.14 0.099-0.202 0.139-0.074 0.049-0.146 0.091-0.215 0.125-0.071 0.034-0.139 0.063-0.203 0.085-0.067 0.022-0.138 0.04-0.213 0.053s-0.157 0.023-0.244 0.028c-0.088 5e-3 -0.186 8e-3 -0.293 8e-3m-0.114-4.435c-0.228 0-0.439 0.03-0.626 0.089-0.187 0.06-0.356 0.143-0.502 0.248s-0.275 0.231-0.382 0.375c-0.106 0.143-0.196 0.3-0.264 0.467-0.069 0.167-0.121 0.344-0.154 0.527-0.034 0.183-0.051 0.37-0.051 0.557 0 0.199 0.021 0.395 0.061 0.584 0.041 0.19 0.101 0.371 0.18 0.539 0.08 0.169 0.18 0.326 0.298 0.467 0.119 0.142 0.258 0.265 0.412 0.366 0.155 0.102 0.33 0.183 0.52 0.241 0.191 0.057 0.4 0.086 0.622 0.086 0.109 0 0.209-3e-3 0.299-9e-3 0.092-5e-3 0.178-0.015 0.257-0.029 0.08-0.014 0.158-0.033 0.229-0.057 0.069-0.024 0.141-0.054 0.217-0.091 0.073-0.036 0.149-0.08 0.226-0.131 0.077-0.05 0.161-0.109 0.253-0.176l0.046-0.034-0.483-0.633-0.045 0.039c-0.096 0.084-0.186 0.155-0.269 0.211-0.081 0.054-0.162 0.098-0.24 0.13-0.078 0.031-0.159 0.054-0.244 0.067s-0.181 0.02-0.286 0.02c-0.177 0-0.337-0.038-0.474-0.114-0.138-0.076-0.256-0.182-0.35-0.314-0.095-0.134-0.169-0.294-0.218-0.476-0.05-0.183-0.075-0.383-0.075-0.593 0-0.224 0.022-0.439 0.066-0.64 0.043-0.2 0.112-0.379 0.205-0.53 0.091-0.15 0.211-0.271 0.356-0.36 0.143-0.088 0.318-0.133 0.521-0.133 0.058 0 0.12 3e-3 0.185 8e-3 0.067 5e-3 0.133 0.013 0.2 0.023s0.133 0.021 0.198 0.034c0.049 0.01 0.095 0.021 0.139 0.031v1.446h0.893v-1.85l-0.03-0.016c-0.102-0.052-0.211-0.102-0.321-0.147-0.111-0.044-0.235-0.084-0.368-0.117s-0.283-0.059-0.446-0.077c-0.16-0.019-0.347-0.028-0.555-0.028" fill="#1d1d1b"/></g><g transform="translate(544.46 755.76)"><path d="m0 0h2.49v0.439h-1.818v1.547h1.388v0.436h-1.388v1.273h1.744v0.44h-2.416zm2.601-0.111h-2.712v4.356h2.638v-0.66h-1.744v-1.052h1.388v-0.658h-1.388v-1.325h1.818z" fill="#1d1d1b"/></g></g></g></svg>
