<svg width="597.35" height="290.18" version="1.1" viewBox="0 0 158.05 76.776" xmlns="http://www.w3.org/2000/svg">
 <path d="m0 60.013 18.673-8.4133 6.4386 11.674 26.416-63.274z" fill="#346ebf"/>
 <path d="m8.836 29.073 9.8737 22.475 38.383-15.844z" fill="#346ebf"/>
 <path d="m32.17 36.233 8.8726-20.253-16.478 19.187-9.791-1.3777 3.7199 8.4501-9.2675 10.801 11.527-5.1986 3.1688 7.2101 4.7853-10.912 14.2-6.4018z" fill="#83a7dd"/>
 <path d="m45.254 7.543-1.3594 1.5155-18.866 31.945-7.4122-10.627-2.7646 0.25717 9.3961 25.258 22.374-49.672z" fill="#233b73"/>
 <path d="m44.059 8.663-0.22044 0.35821-2.7922 4.6659-16.937 27.931-6.5396-11.343-4.8955-0.68886 12.051 27.61 3.5913-12.785 17.91-37.392 0.95522-1.9839z" fill="#fff"/>
 <path d="m135.04 46.203h-17.653l-0.88174 3.3433h5.4925l-3.7199 14.319h6.7141l3.7199-14.319h5.4558z" fill="#4788ce"/>
 <g transform="translate(-24.075 -97.727)" fill="#83a7dd">
  <path d="m65.355 161.59-7.3295-17.405v-0.24798h7.4765l4.969 12.758 4.9874-12.758h4.6475v0.24798l-7.8255 17.405z"/>
  <path d="m81.175 143.93h6.7141v17.653h-6.7141z"/>
  <path d="m112.04 143.93h6.7141v17.653h-6.7141z"/>
  <path d="m96.415 161.59-7.3295-17.405v-0.24798h7.4765l4.969 12.758 4.9966-12.758h4.6384v0.24798l-7.8255 17.405z"/>
 </g>
 <path d="m138.24 63.863-2.3513-17.405 0.0735-0.24798h7.4765l1.2308 11.545 8.4868-11.545h4.8863l-0.0735 0.24798-12.804 17.405z" fill="#4788ce"/>
 <path d="m104.66 61.183c3.0126 0 5.2262-1.7543 5.2262-6.76 0-3.8025-2.2135-5.5293-5.2262-5.5293h-0.9644v12.289zm-7.7704 2.682v-17.653h9.0287c5.4007 0 11.04 2.1952 11.04 8.2112 0 6.0253-5.6395 9.442-11.04 9.442z" fill="#83a7dd"/>
 <g transform="translate(-24.075 -97.727)" fill="#83a7dd">
  <path d="m113.69 164.22h6.806l-0.74397 2.039h-4.6016l-0.67967 1.8645h4.3444l-0.75316 2.039h-4.3444l-0.74396 2.039h4.8496l-0.74398 2.039h-7.0632z"/>
  <path d="m128.72 170.38c-0.22043 0.59702-0.50516 1.1389-0.87256 1.6441-0.35821 0.49598-0.7899 0.92767-1.2767 1.3042-0.4868 0.36739-1.0379 0.65212-1.6349 0.86337-0.6062 0.20207-1.2583 0.30311-1.9472 0.30311-0.69805 0-1.2675-0.10104-1.7268-0.30311-0.45006-0.21125-0.78072-0.49598-1.0012-0.86337-0.22044-0.37658-0.33065-0.80827-0.32147-1.3042 0-0.50516 0.11021-1.0471 0.33065-1.6441l2.2595-6.1538h2.2044l-2.2227 6.0712c-0.11941 0.31228-0.17452 0.59701-0.17452 0.86338 9e-3 0.26636 0.0643 0.4868 0.17452 0.67968 0.10103 0.20206 0.26636 0.34902 0.47761 0.45923 0.20207 0.11022 0.45924 0.16533 0.75315 0.16533 0.29392 0 0.57865-0.0551 0.86338-0.16533 0.28474-0.11021 0.5511-0.25717 0.79908-0.45923 0.25718-0.19288 0.47762-0.41332 0.6705-0.67968 0.20207-0.26637 0.35821-0.5511 0.46843-0.86338l2.2227-6.0712h2.2136z"/>
  <path d="m133.7 168.37h1.3042c0.19288 0 0.40413-9e-3 0.63374-0.0184 0.22963-0.0184 0.44088-0.0643 0.65213-0.12859 0.20207-0.0735 0.39495-0.1837 0.56947-0.33065 0.16532-0.15615 0.3031-0.3674 0.40413-0.64295 0.0918-0.25718 0.1194-0.45924 0.0735-0.60619-0.0551-0.14696-0.13776-0.26636-0.27554-0.34903-0.12858-0.0827-0.29391-0.12859-0.4868-0.16533-0.20206-0.0275-0.39495-0.0367-0.59701-0.0367h-1.442zm-0.68887-4.1516h3.876c0.51435 0 0.97359 0.0551 1.3961 0.15615 0.4225 0.0918 0.76234 0.25718 1.0287 0.49598 0.25718 0.22962 0.41333 0.5419 0.47762 0.92767 0.0551 0.39495-0.0184 0.88174-0.23881 1.4696-0.25717 0.70724-0.6613 1.3042-1.2124 1.8002-0.5511 0.49599-1.2032 0.80827-1.9564 0.94605l1.0012 4.2342h-2.6544l-0.62457-4.0138h-1.093l-1.4604 4.0138h-2.2136z"/>
  <path d="m142.1 169.24c-0.17451 0.46843-0.25718 0.90012-0.25718 1.2951 9e-3 0.39495 0.0918 0.73479 0.25718 1.0195 0.16533 0.28473 0.41332 0.51434 0.73478 0.67048 0.33066 0.16533 0.72561 0.23881 1.194 0.23881 0.4776 0 0.92766-0.0735 1.3685-0.23881 0.44087-0.15614 0.85419-0.38575 1.2308-0.67048 0.38576-0.28474 0.71642-0.62458 1.0103-1.0195 0.28472-0.39494 0.51434-0.82663 0.68885-1.2951 0.17452-0.45925 0.25718-0.89093 0.25718-1.2859s-0.0918-0.74397-0.25718-1.0287c-0.16533-0.28472-0.41332-0.51434-0.73478-0.67048-0.33066-0.16533-0.72561-0.23881-1.194-0.23881-0.4776 0-0.92766 0.0735-1.3685 0.23881-0.44087 0.15614-0.85418 0.38576-1.2308 0.67048-0.37658 0.28474-0.71643 0.63376-1.0103 1.0287-0.28472 0.39495-0.52353 0.82663-0.68886 1.2859m-2.2962 0c0.29392-0.79909 0.69806-1.5247 1.2032-2.1768 0.50517-0.65212 1.0838-1.2124 1.7359-1.6625 0.65213-0.45923 1.3502-0.80826 2.1033-1.0562 0.74397-0.24799 1.5155-0.3674 2.2962-0.3674 0.78071 0 1.4604 0.11941 2.0298 0.3674s1.0195 0.59702 1.3318 1.0562c0.31229 0.45006 0.4868 1.0103 0.51436 1.6625 0.0275 0.65213-0.10103 1.3777-0.39495 2.1768s-0.69805 1.5247-1.2032 2.1768c-0.50517 0.65212-1.0838 1.2124-1.7359 1.6625-0.65213 0.45924-1.3502 0.81745-2.1033 1.0562-0.74398 0.24799-1.5155 0.3674-2.2962 0.3674s-1.4604-0.11941-2.0298-0.3674c-0.56945-0.2388-1.0103-0.59701-1.3318-1.0562-0.31229-0.45006-0.47762-1.0103-0.51436-1.6625-0.0275-0.65213 0.10104-1.3777 0.39495-2.1768"/>
  <path d="m154.62 168.47h1.4696c0.20207 0 0.39495-0.0184 0.59701-0.0551 0.19289-0.0367 0.38577-0.10102 0.56028-0.19287 0.1837-0.0919 0.34903-0.21126 0.49599-0.3674 0.14695-0.15614 0.25717-0.34902 0.34902-0.58783 0.0918-0.25718 0.11021-0.45925 0.0459-0.61538-0.0643-0.15614-0.16533-0.27555-0.32147-0.35821-0.14696-0.0918-0.33985-0.13778-0.5511-0.16533-0.22044-0.0275-0.43169-0.0367-0.64294-0.0367h-1.1297zm-0.65213-4.2434h3.7199c0.52353 0 0.99196 0.0459 1.4236 0.13777 0.4225 0.0918 0.77153 0.25718 1.0287 0.4868 0.25717 0.22961 0.4225 0.5419 0.47761 0.93685 0.0643 0.39495-0.0184 0.88175-0.23881 1.4788-0.21125 0.58783-0.48679 1.0746-0.81744 1.4696-0.33984 0.39495-0.70724 0.71642-1.1298 0.95523-0.41331 0.22962-0.86337 0.40414-1.3594 0.49598-0.4868 0.10103-0.99196 0.14696-1.5247 0.14696h-1.6165l-1.4236 3.9127h-2.2136z"/>
  <path d="m162.97 164.22h6.806l-0.74398 2.039h-4.6016l-0.67968 1.8645h4.3444l-0.75317 2.039h-4.3444l-0.74397 2.039h4.8496l-0.74397 2.039h-7.0632z"/>
 </g>
</svg>
