<svg width="800" height="171.39" version="1.1" viewBox="0 0 800 171.39" xmlns="http://www.w3.org/2000/svg">
 <g transform="matrix(1.3959 0 0 1.3959 -2.0185 -1.3582)">
  <path d="m197.38 123.51h-58.564v-5.106h15.425v-112.33h-15.425v-5.105h58.564v5.105h-15.424v112.57h15.424zm135.44 0h-60.974v-5.106h15.183l-26.51-42.063-35.187 42.063h14.46v5.106h-35.427v-5.106h13.496l39.524-46.926-40.97-65.404h-12.05v-5.105h59.287v5.105h-13.979l26.51 43.036 35.67-43.036h-12.533v-5.105h33.5v5.105h-13.737l-39.766 47.898 40.489 64.675h13.014zm117.61 0h-110.62v-5.106h15.424v-112.33h-15.424v-5.105h110.62v31.85h-5.06l-0.482-1.215c-2.41-7.537-16.389-25.53-37.115-25.53h-24.823v49.114h9.399c6.989 0 11.809-1.702 15.183-5.835 2.892-3.404 5.061-8.753 6.748-17.506l0.241-1.459h4.82v55.192l-4.82-0.243-0.24-1.459c-4.82-21.153-13.738-24.07-21.932-24.07h-9.4v58.353h24.824c18.075 0 32.295-12.887 37.115-33.553l0.24-1.46h5.062l0.24 40.362zm109.42 0h-8.435l-0.482-0.73-73.507-105.76v101.63h16.87v5.106h-37.114v-5.106h14.46v-112.57h-14.46v-5.105h42.658l0.482 0.729 53.985 77.804v-73.428h-16.87v-5.105h37.114v5.105h-14.46v117.44zm-491.89 0h-3.856l-47.719-117.44h-14.942v-5.105h59.528v5.105h-17.352l32.535 82.91 33.74-82.91h-13.735v-5.105h35.427v5.105h-15.665z"/>
 </g>
</svg>
