<svg width="800" height="390.54" version="1.1" viewBox="0 0 800 390.54" xml:space="preserve" xmlns="http://www.w3.org/2000/svg">
	<g transform="matrix(1.378 0 0 1.378 -19.568 -19.568)"><path d="m297.6 155.9a141.7 141.7 0 0 1-141.7 141.7 141.7 141.7 0 0 1-141.7-141.7 141.7 141.7 0 0 1 141.7-141.7 141.7 141.7 0 0 1 141.7 141.7z" fill="#e60000"/><path class="st1" d="m157 234.9c-38.9 0.1-79.5-33.1-79.6-86.5-0.1-35.3 18.9-69.3 43.3-89.4 23.7-19.7 56.3-32.3 85.8-32.4 3.8 0 7.8 0.3 10.2 1.1-25.8 5.3-46.3 29.4-46.2 56.6 0 0.9 0.1 1.9 0.2 2.3 43.2 10.5 62.7 36.6 62.9 72.6 0 36.1-28.5 75.6-76.6 75.7z" fill="#fff"/></g>
<g transform="matrix(11.297 0 0 11.297 2598 -5726.7)" fill="#e60000" style="shape-inside:url(#rect861-9);white-space:pre" aria-label="tv"><path d="m-187.85 519.58v-2.5195h3.125v-5.1953h2.9102v5.1953h4.7656v2.5195h-4.8047v12.207q0 1.4062 0.50781 1.875 0.52735 0.44922 1.3281 0.44922 1.2891 0 2.6367-1.0547l0.80078 2.3242q-0.68359 0.48828-1.6602 0.83984-0.97656 0.3711-2.2461 0.3711-2.0312 0-3.1445-1.0938-1.0938-1.1133-1.0938-3.3984v-12.52z"/><path d="m-176.11 517.06h3.1641l5.1953 15.801 5.6445-15.801h2.9492l-6.9922 19.082h-3.3594z"/></g></svg>
