<svg width="211.67mm" height="62.749mm" version="1.1" viewBox="0 0 211.67 62.749" xmlns="http://www.w3.org/2000/svg">
 <g transform="translate(62.155 118.73)">
  <g transform="matrix(2.3058 0 0 -2.3058 109.62 -82.406)">
   <path d="m0 0c0-1.337-1.094-2.43-2.43-2.43h-69.636c-1.337 0-2.43 1.093-2.43 2.43v13.324c0 1.337 1.093 2.431 2.43 2.431h69.636c1.336 0 2.43-1.094 2.43-2.431z" fill="#fff"/>
  </g>
  <g transform="matrix(.35278 0 0 -.35278 -18.361 54.981)">
   <g transform="matrix(6.5362 0 0 6.5362 88.491 412.93)">
    <path d="m0 0 0.381 0.554c0.246 0.356 0.529 0.381 0.935 0.16 0.283-0.148 0.837-0.542 1.6-0.542 0.639 0 0.935 0.271 0.935 0.615 0 1.243-3.888 1.046-3.888 3.802 0 1.624 1.353 2.695 3.137 2.695 1.021 0 1.956-0.357 2.375-0.653 0.357-0.258 0.394-0.565 0.209-0.922l-0.295-0.578c-0.246-0.48-0.578-0.407-0.923-0.234-0.406 0.197-0.812 0.406-1.39 0.406-0.677 0-0.96-0.271-0.96-0.615 0-1.28 3.888-0.973 3.888-3.753 0-1.477-1.107-2.744-3.088-2.744-1.23 0-2.326 0.505-2.793 0.874-0.259 0.209-0.443 0.48-0.123 0.935" fill="#656263"/>
   </g>
   <g transform="matrix(6.5362 0 0 6.5362 156.92 431.91)">
    <path d="m0 0c0.751 0 1.119 0.504 1.119 1.206 0 0.701-0.368 1.181-1.082 1.181h-1.095v-2.387zm-3.211 3.556c0 0.443 0.234 0.676 0.676 0.676h2.978c1.71 0 2.867-1.255 2.867-3.026 0-1.772-1.157-3.051-2.867-3.051h-1.501v-2.043c0-0.443-0.234-0.677-0.677-0.677h-0.8c-0.442 0-0.676 0.234-0.676 0.677z" fill="#656263"/>
   </g>
   <g transform="matrix(6.5362 0 0 6.5362 212.57 413.97)">
    <path d="m0 0c1.391 0 2.374 1.132 2.374 2.633 0 1.44-0.983 2.523-2.374 2.523s-2.374-1.083-2.374-2.523c0-1.501 0.983-2.633 2.374-2.633m0 7.124c2.732 0 4.602-1.968 4.602-4.491 0-2.584-1.87-4.601-4.602-4.601-2.731 0-4.601 2.017-4.601 4.601 0 2.523 1.87 4.491 4.601 4.491" fill="#656263"/>
   </g>
   <g transform="matrix(6.5362 0 0 6.5362 270.94 433.52)">
    <path d="m0 0c0.689 0 1.12 0.381 1.12 1.083 0 0.442-0.111 0.775-0.517 0.935-0.197 0.086-0.455 0.123-0.812 0.123h-0.726v-2.141zm-3.088 3.31c0 0.443 0.234 0.676 0.677 0.676h2.387c0.898 0 1.328-0.061 1.709-0.209 0.997-0.381 1.625-1.279 1.625-2.559 0-0.935-0.443-1.956-1.317-2.399v-0.025s0.124-0.16 0.333-0.529l1.254-2.263c0.271-0.469 0.062-0.813-0.467-0.813h-0.935c-0.369 0-0.615 0.148-0.8 0.48l-1.304 2.486h-1.009v-2.289c0-0.443-0.233-0.677-0.677-0.677h-0.799c-0.443 0-0.677 0.234-0.677 0.677z" fill="#656263"/>
   </g>
   <g transform="matrix(6.5362 0 0 6.5362 313.48 447.51)">
    <path d="m0 0h-1.994c-0.442 0-0.676 0.234-0.676 0.677v0.492c0 0.443 0.234 0.677 0.676 0.677h6.14c0.443 0 0.676-0.234 0.676-0.677v-0.492c0-0.443-0.233-0.677-0.676-0.677h-1.993v-6.274c0-0.444-0.234-0.678-0.677-0.678h-0.799c-0.444 0-0.677 0.234-0.677 0.678z" fill="#656263"/>
   </g>
  </g>
  <g transform="matrix(2.3058 0 0 -2.3058 -5.9741 -91.192)">
   <path d="m0 0c-1.393 0-2.524 1.129-2.524 2.523 0 1.393 1.131 2.522 2.524 2.522 1.394 0 2.523-1.129 2.523-2.522 0-1.394-1.129-2.523-2.523-2.523m-8.203 0c-1.394 0-2.524 1.129-2.524 2.523 0 1.393 1.13 2.522 2.524 2.522s2.523-1.129 2.523-2.522c0-1.394-1.129-2.523-2.523-2.523m-5.201 3.635-2.237-3.436c-0.176-0.269-0.47-0.416-0.77-0.417-0.301 1e-3 -0.595 0.148-0.771 0.417l-2.236 3.436c-0.277 0.424-0.155 0.99 0.271 1.264 0.425 0.274 0.993 0.155 1.269-0.27l1.467-2.251 1.465 2.251c0.276 0.425 0.845 0.544 1.27 0.27 0.427-0.274 0.548-0.84 0.272-1.264m13.406 4.568c-1.612 0-3.067-0.673-4.101-1.751-1.034 1.078-2.489 1.751-4.101 1.751-1.615 0-3.071-0.673-4.105-1.754-1.034 1.081-2.49 1.754-4.104 1.754-3.139 0-5.683-2.543-5.683-5.682 0-3.138 2.544-5.683 5.683-5.683 1.614 0 3.07 0.674 4.104 1.754 1.034-1.08 2.49-1.754 4.105-1.754 1.612 0 3.067 0.673 4.101 1.751 1.034-1.078 2.489-1.751 4.101-1.751 3.139 0 5.683 2.545 5.683 5.683 0 3.139-2.544 5.682-5.683 5.682" fill="#d9058d"/>
  </g>
  <path d="m-5.9741-91.192c-3.212 0-5.8199-2.6033-5.8199-5.8176 0-3.212 2.6079-5.8153 5.8199-5.8153 3.2143 0 5.8176 2.6033 5.8176 5.8153 0 3.2143-2.6033 5.8176-5.8176 5.8176m-18.915 0c-3.2143 0-5.8199-2.6033-5.8199-5.8176 0-3.212 2.6056-5.8153 5.8199-5.8153s5.8176 2.6033 5.8176 5.8153c0 3.2143-2.6033 5.8176-5.8176 5.8176m-11.993-8.3817-5.1582 7.9229c-0.40583 0.62027-1.0837 0.95923-1.7755 0.96154-0.69406-0.0024-1.372-0.34126-1.7778-0.96154l-5.1559-7.9229c-0.63872-0.97768-0.3574-2.2828 0.62488-2.9146 0.97998-0.6318 2.2897-0.35741 2.9261 0.62258l3.3827 5.1904 3.3781-5.1904c0.63641-0.97999 1.9484-1.2544 2.9284-0.62258 0.98459 0.63181 1.2636 1.9369 0.62719 2.9146" fill="#fff"/>
 </g>
 <g transform="matrix(3.9647 0 0 -3.9647 205.95 55.18)">
  <path d="m0.629 4.749h-21.186c-0.448 0-0.814-0.366-0.814-0.814v-5.03c0-0.448 0.366-0.814 0.814-0.814h21.186c0.447 0 0.813 0.366 0.813 0.814v5.03c0 0.448-0.366 0.814-0.813 0.814" fill="#31478f"/>
 </g>
 <g transform="matrix(3.9647 0 0 -3.9647 205.95 55.18)" fill="#fff">
  <path transform="matrix(.75 0 0 -.75 -51.945 15.341)" d="m50.904 16.279c-1.38 0-2.3242 0.99291-2.3242 2.2676 0 1.3053 0.94422 2.3242 2.3242 2.3242s2.3242-1.0189 2.3242-2.3242c0-1.2747-0.94422-2.2676-2.3242-2.2676zm-7.9219 0.07422c-0.24267 0-0.3535 0.14291-0.29883 0.37891l0.91406 3.7676c0.04933 0.19867 0.17358 0.29688 0.37891 0.29688h0.61524c0.20533 0 0.33153-0.09821 0.38086-0.29688l0.48438-1.9453c0.068-0.28533 0.08594-0.52344 0.08594-0.52344h0.01367s0.01794 0.2381 0.08594 0.52344l0.48437 1.9453c0.04933 0.19867 0.17491 0.29688 0.37891 0.29688h0.60352c0.20533 0 0.33091-0.09297 0.37891-0.29297l0.95898-3.7715c0.056-0.236-0.0575-0.37891-0.29883-0.37891h-0.42383c-0.212 0-0.33491 0.09883-0.37891 0.29883l-0.54102 2.4785c-0.056 0.27467-0.05469 0.4668-0.05469 0.4668h-0.01367s-0.0062-0.19213-0.07422-0.4668l-0.59766-2.4785c-0.04267-0.2-0.16709-0.29883-0.37109-0.29883h-0.26758c-0.20533 0-0.32957 0.09883-0.37891 0.29883l-0.60937 2.4785c-0.068 0.27467-0.07422 0.4668-0.07422 0.4668h-0.01367s0.0013-0.19213-0.05469-0.4668l-0.49805-2.4727c-0.044-0.20533-0.16771-0.30469-0.37305-0.30469zm11.062 0c-0.224 0-0.3418 0.1178-0.3418 0.3418v3.7598c0 0.224 0.1178 0.3418 0.3418 0.3418h0.4043c0.224 0 0.3418-0.1178 0.3418-0.3418v-1.1562h0.50976l0.6582 1.2559c0.092 0.16666 0.21763 0.24219 0.4043 0.24219h0.47266c0.26666 0 0.37366-0.17416 0.23633-0.41016l-0.63281-1.1445c-0.10667-0.18533-0.16797-0.26562-0.16797-0.26563v-0.01367c0.44133-0.22267 0.66211-0.7376 0.66211-1.2109 0-0.64533-0.31436-1.0996-0.81836-1.293-0.192-0.07467-0.41057-0.10547-0.86523-0.10547zm3.8242 0c-0.224 0-0.3418 0.1178-0.3418 0.3418v3.7598c0 0.224 0.1178 0.3418 0.3418 0.3418h2.2188c0.224 0 0.3418-0.1178 0.3418-0.3418v-0.24805c0-0.224-0.1178-0.3418-0.3418-0.3418h-1.4727v-3.1699c0-0.224-0.1178-0.3418-0.3418-0.3418zm3.1953 0c-0.224 0-0.33984 0.1178-0.33984 0.3418v3.7598c0 0.224 0.11584 0.3418 0.33984 0.3418h1.2363c1.3987 0 2.2949-0.8318 2.2949-2.2305s-0.89626-2.2129-2.2949-2.2129zm6.5488 0c-0.17467 0-0.29121 0.0493-0.42188 0.16797l-0.77148 0.7207c-0.16133 0.156-0.16772 0.32304-0.01172 0.48437l0.16016 0.17383c0.148 0.16267 0.3178 0.16753 0.48047 0.01953l0.05469-0.05078c0.07467-0.06133 0.13672-0.19727 0.13672-0.19727h0.01172s-0.0059 0.17318-0.0059 0.33984v1.8535h-0.60156c-0.224 0-0.34375 0.1178-0.34375 0.3418v0.24805c0 0.224 0.11975 0.3418 0.34375 0.3418h2.2734c0.224 0 0.3418-0.1178 0.3418-0.3418v-0.24805c0-0.224-0.1178-0.3418-0.3418-0.3418h-0.60938v-3.1699c0-0.224-0.1178-0.3418-0.3418-0.3418zm-16.709 0.91992c0.70267 0 1.1992 0.54544 1.1992 1.2734 0 0.75733-0.49655 1.3301-1.1992 1.3301-0.70133 0-1.1992-0.57274-1.1992-1.3301 0-0.728 0.49789-1.2734 1.1992-1.2734zm10.906 0.01172h0.44922c0.73333 0 1.2109 0.43592 1.2109 1.2812 0 0.852-0.45894 1.2988-1.2109 1.2988h-0.44922zm-7.0195 2e-3h0.36719c0.18 0 0.31016 0.01788 0.41016 0.06055 0.204 0.08133 0.26172 0.24999 0.26172 0.47266 0 0.35467-0.22036 0.54688-0.56836 0.54688h-0.4707z" fill="#fff"/>
 </g>
</svg>
