<svg width="800" height="165.66" enable-background="new 0 0 909 253" version="1.1" viewBox="0 0 800 165.66" xml:space="preserve" xmlns="http://www.w3.org/2000/svg">
<g transform="matrix(.96247 0 0 .96247 -37.729 -34.068)" fill="#cf0338"><path d="m359.27 110.96c0 54.574-41.325 96.554-95.048 96.554-47.524 0-76.451-31.485-76.451-75.564 0-54.574 41.325-96.554 95.048-96.554 45.458 0 76.451 31.485 76.451 75.564zm-152.9 20.99c0 35.683 22.729 58.772 59.921 58.772 43.391 0 76.451-35.683 76.451-79.762 0-35.683-22.729-58.772-59.921-58.772-45.458 0-76.451 35.683-76.451 79.762z" stroke-width="20.826"/><path d="m74.943 205.42-35.743-167.92h18.316l28.584 140.94 89.449-140.94h20.351l-106.14 167.92z" stroke-width="20.668"/><path d="m436 134.92-66.894 70.494h-22.408l80.493-85.21-45.863-82.71h20.371l38.704 69.267 65.187-69.267h22.408l-77.409 83.96 44.622 83.96h-20.371z" stroke-width="20.678"/><path d="m582.26 35.4h42.438v98.53c0 19.608 10.609 32.681 27.584 32.681s27.584-13.072 27.584-32.681v-98.53h42.438v95.863c0 45.753-27.584 76.255-70.022 76.255s-70.022-30.502-70.022-76.255z" stroke-width="21.501"/><path d="m750.7 35.4h54.942c39.244 0 64.752 23.966 64.752 58.825s-25.509 58.825-64.752 58.825h-12.211l-4.8e-4 50.11h-42.731zm42.731 38.505v39.928h16.974c11.773 0 19.622-7.2478 19.622-20.32 0-13.072-7.8488-19.608-19.622-19.608z" stroke-width="20.676"/></g>
</svg>
