<svg width="800" height="163.82" version="1.1" viewBox="0 0 800 163.82" xml:space="preserve" xmlns="http://www.w3.org/2000/svg">
<style type="text/css">
	.st0{fill:#ED4C4C;}
	.st1{fill:#E60000;}
</style>
<g fill="#e60000" stroke-width=".78966"><path d="m724.46 157.21h30.87c12.383 1e-4 22.797-3.6869 31.167-11.08 9.0022-7.9228 13.499-17.85 13.499-29.785 0-13.014-4.2407-23.379-12.733-31.117-8.4928-7.7392-20.031-11.599-34.572-11.599h-28.23zm29.365-70.265c9.307-3e-4 16.16 1.9868 21.883 7.4654 5.7432 5.4784 8.8463 12.701 8.8463 21.641 0 8.4115-2.9183 15.298-8.254 20.654-5.3562 5.3562-11.511 6.7785-19.811 7.188h-17.371l1e-3 -56.949z"/><path d="m688.32 108.42h-39.95l-2e-5 -34.788h-14.66v83.579h14.66l2e-5 -35.25h39.95v35.25h14.66v-83.586h-14.66z"/></g><g transform="matrix(.97742 0 0 .97742 .02761 -6.4135e-6)">
	<path class="st0" d="m440.9 76.2c-11.2-51.2-74.3-48.6-96.1-16.7-17.5-29.2-59.2-28.7-82.4-9.5v-14.3h-46.2v86.6h-15.3c-13.8 0-22.8-8.2-22.8-25v-16.3h23.7v-45.3h-23.7v-35.7l-20.6 35.7-57.4-0.1-21.7 37.8c-0.9 1.6-2.6 2.5-4.3 2.5s-3.3-0.8-4.3-2.5l-21.7-37.8h-35.4c-9.8 0-15.9 10.6-11 19.1l61.4 106.4c2.4 4.2 6.7 6.4 11 6.4s8.6-2.1 11-6.4l46.2-80v21.1c0 37.9 22.5 65.3 63.5 65.3l67.5-0.1v-64.7c0-23 41.1-30.4 41.1-4.5v69.2h50.6v-64.7c0-22.4 37.2-30 38.9-6.2v70.9h50.3v-68.6c0.1-5.3 0.2-11.4-2.3-22.6z"/>
</g>
<g transform="matrix(.97742 0 0 .97742 .02761 -6.4135e-6)">
		<path class="st1" d="m493.7 136.8 55.1-42c13.7-10.7 18.9-17.7 18.9-26.5 0-9.2-6.5-14.9-16.4-14.9s-17.7 5.7-29.2 18.9l-27.5-22.9c15.8-20.4 31.3-31.5 59.9-31.5 32.2 0 54.2 19.1 54.2 46.9v0.4c0 23.5-12.2 35.7-34 51.5l-25.2 17.7h60.7v33.2h-116.5z"/>
</g>
</svg>
