<svg width="800" height="203.44" version="1.1" viewBox="0 0 800 203.44" xml:space="preserve" xmlns="http://www.w3.org/2000/svg">
<style type="text/css">
	.st0{fill:#FF994C;}
</style>
<g transform="matrix(.67296 0 0 .67296 .014193 90.718)">
	<path class="st0" d="m795.75 2.7236c-20.214-92.405-134.1-87.712-173.44-30.14-31.584-52.7-106.84-51.797-148.71-17.145v-25.808h-83.381v156.29h-27.613c-24.906 0-41.149-14.799-41.149-45.119v-29.418h42.773v-81.757h-42.773v-64.431l-37.178 64.431-103.59-0.18048-39.164 68.221c-1.6243 2.8876-4.6924 4.5119-7.7606 4.5119-3.0681 0-5.9558-1.4438-7.7606-4.5119l-39.164-68.221h-63.889c-17.687 0-28.696 19.131-19.853 34.471l110.81 192.03c4.3315 7.5801 12.092 11.551 19.853 11.551s15.521-3.79 19.853-11.551l83.381-144.38v38.081c0 68.401 40.608 117.85 114.6 117.85l121.82-0.18048v-116.77c0-41.51 74.176-54.865 74.176-8.1215v124.89h91.322v-116.77c0-40.427 67.138-54.143 70.206-11.19v127.96h90.78v-123.81c0.18048-9.5653 0.36096-20.574-4.151-40.788z" stroke-width="1.8048"/>
</g>
<g transform="matrix(1.204 0 0 1.204 -163.23 8.5515)" fill="#ff6a00" stroke-width=".78966"><path d="m724.46 157.21h30.87c12.383 1e-4 22.797-3.6869 31.167-11.08 9.0022-7.9228 13.499-17.85 13.499-29.785 0-13.014-4.2407-23.379-12.733-31.117-8.4928-7.7392-20.031-11.599-34.572-11.599h-28.23zm29.365-70.265c9.307-3e-4 16.16 1.9868 21.883 7.4654 5.7432 5.4784 8.8463 12.701 8.8463 21.641 0 8.4115-2.9183 15.298-8.254 20.654-5.3562 5.3562-11.511 6.7785-19.811 7.188h-17.371l1e-3 -56.949z"/><path d="m688.32 108.42h-39.95l-2e-5 -34.788h-14.66v83.579h14.66l2e-5 -35.25h39.95v35.25h14.66v-83.586h-14.66z"/></g></svg>
