<svg width="800" height="302.3" version="1.1" viewBox="0 0 800 302.3" xml:space="preserve" xmlns="http://www.w3.org/2000/svg">
<style type="text/css">
	.st0{fill:#FF994C;}
</style>
<g transform="translate(.028248 134.8)">
	<path class="st0" d="m795.75 2.7236c-20.214-92.405-134.1-87.712-173.44-30.14-31.584-52.7-106.84-51.797-148.71-17.145v-25.808h-83.381v156.29h-27.613c-24.906 0-41.149-14.799-41.149-45.119v-29.418h42.773v-81.757h-42.773v-64.431l-37.178 64.431-103.59-0.18048-39.164 68.221c-1.6243 2.8876-4.6924 4.5119-7.7606 4.5119-3.0681 0-5.9558-1.4438-7.7606-4.5119l-39.164-68.221h-63.889c-17.687 0-28.696 19.131-19.853 34.471l110.81 192.03c4.3315 7.5801 12.092 11.551 19.853 11.551s15.521-3.79 19.853-11.551l83.381-144.38v38.081c0 68.401 40.608 117.85 114.6 117.85l121.82-0.18048v-116.77c0-41.51 74.176-54.865 74.176-8.1215v124.89h91.322v-116.77c0-40.427 67.138-54.143 70.206-11.19v127.96h90.78v-123.81c0.18048-9.5653 0.36096-20.574-4.151-40.788z" stroke-width="1.8048"/>
</g>
</svg>
