<svg width="3470.8" height="829.97" version="1.1" viewBox="0 0 3470.8 829.97" xml:space="preserve" xmlns="http://www.w3.org/2000/svg"><g transform="matrix(1.3333 0 0 -1.3333 -56.693 1478.7)"><g transform="translate(2645.7 544.52)"><path d="m0 0c-0.171 34.393-21.042 124.99-31.109 185.39s-36.913 110.74-60.404 146.31c-23.49 35.571-60.404 64.431-90.606 108.73-30.202 44.296-61.633 143.35-145.14 120.81-30.607-8.261-32.719-26.847-56.21-44.297-23.49-17.45-34.226-20.184-65.099-4.076s-25.062 42.005-62.647 42.005c-35.971 0-52.472-3.809-103.8-54.036-62.799-61.449-87.25-112.76-134.23-218.13-46.981-105.37-77.854-291.95-77.854-291.95s-9.08-48.601 45.485-48.601h726.34c12.443 0 55.593-5.149 55.279 57.842" fill="#b71e24"/></g><g transform="translate(142.02 888.93)"><path d="m0 0 38.269-274.52h1.02l38.269 274.52h101.03l-78.579-364.32h-122.46l-77.048 364.32zm302.57-262.78c0-17.691 2.551-29.515 7.654-35.463 5.102-5.955 12.07-8.929 20.92-8.929 8.842 0 15.818 2.974 20.92 8.929 5.103 5.948 7.654 17.772 7.654 35.463v262.78h94.907v-238.8c0-25.513-2.727-46.776-8.164-63.782-5.445-17.013-13.354-30.615-23.727-40.82-10.38-10.205-23.216-17.181-38.524-20.92-15.307-3.739-32.999-5.613-53.066-5.613-19.732 0-37.336 1.874-52.811 5.613-15.483 3.739-28.407 10.715-38.779 20.92-10.381 10.205-18.29 23.807-23.727 40.82-5.445 17.006-8.164 38.269-8.164 63.782v238.8h94.907zm305.64 262.78v-286.76h116.85v-77.558h-211.76v364.32zm250.53 0v-139.81h1.02l70.415 139.81h101.03l-91.846-159.2 103.07-205.12h-108.17l-55.618 127.05-19.899-30.616v-96.437h-94.907v364.32zm330.13-74.497 26.022-154.61h-53.066l26.023 154.61zm-60.21 74.497-87.253-364.32h99.499l9.695 63.781h75.517l9.695-63.781h101.03l-88.784 364.32zm347.99 0 61.23-224.51h1.021v224.51h88.784v-364.32h-104.09l-63.271 225.02h-1.021v-225.02h-88.784v364.32z" fill="#231f20"/></g><g transform="translate(2645.7 544.52)"><path d="m-443.28 264.13h-71.436v-283.7h-94.907v283.7h-70.414v80.62h236.76zm289.31 80.62-78.579-364.32h-122.46l-77.048 364.32h99.499l38.269-274.52h1.021l38.268 274.52z" fill="#fff"/></g></g></svg>
