<svg width="800" height="469.8" version="1.1" viewBox="0 0 800 469.8" xml:space="preserve" xmlns="http://www.w3.org/2000/svg">
<g fill="#282828" stroke-width="1.1396"><path class="st1" d="m603.91 245.46-73.707 224.34h-87.918l-99.997-311.41-99.997 311.41h-88.59l-153.71-469.8h99.997l99.325 318.12 100.68-318.12h84.567l100.67 318.12 22.689-72.659z"/><path class="st1" d="m546.29 122.59 38.278-122.59h99.997l-40.284 122.59z"/><path class="st1" d="m565.88 184.93c0 13.549-11.931 19.441-23.6 19.441-12.467 0-21.994-6.1651-25.481-15.156l8.8544-3.6238c2.0056 5.7662 8.0454 9.1166 16.626 9.1166 5.3674 0 13.812-1.8803 13.812-9.7889 0-5.0939-3.3503-7.1109-14.746-9.5154-9.6521-1.8803-21.994-4.4215-23.874-16.49-1.6068-11.532 8.0454-21.185 22.393-21.185 11.259 0 19.851 5.4927 22.803 13.948l-8.9798 3.4871c-1.6068-4.695-6.4386-7.5098-13.675-7.7832-9.39-0.2735-13.812 4.695-12.877 9.9256 0.80909 5.0939 6.7007 6.5753 16.091 8.7177 10.86 2.2791 22.655 6.5639 22.655 18.905z"/><path class="st1" d="m637.88 171.12c0 18.507-11.806 33.253-30.301 33.253-9.1166 0-16.364-3.7492-21.321-9.7889v37.948h-9.6522v-93.866h9.6522v8.8544c4.9571-6.0397 12.205-9.7889 21.321-9.7889 18.507 0 30.301 14.883 30.301 33.389zm-9.7889 0c0-13.276-7.2477-23.999-20.512-23.999-13.139 0-20.786 10.723-20.786 23.999s7.6465 23.737 20.786 23.737c13.276 0 20.512-10.461 20.512-23.737z"/><path class="st1" d="m710.57 171.12c0 18.507-13.014 33.253-31.509 33.253-18.37 0-31.11-14.746-31.11-33.253s12.74-33.389 31.11-33.389c18.495 0 31.509 14.883 31.509 33.389zm-9.7889 0c0-13.276-8.4442-23.999-21.72-23.999-13.276 0-21.321 10.723-21.321 23.999s8.0454 23.737 21.321 23.737c13.265 0 21.72-10.461 21.72-23.737z"/><path class="st1" d="m755.89 137.99-1.8803 9.7889c-1.3447-0.27349-2.8147-0.39884-4.4215-0.39884-9.9256 0-17.162 6.8374-17.162 21.059v34.871h-9.7889v-64.636h9.7889v7.5098c4.4215-5.2306 10.86-8.4442 18.643-8.4442 1.5954-0.0114 3.2136 0.11396 4.8204 0.25071z"/><path class="st1" d="m800 199.28c-4.5583 3.7492-10.997 5.4927-15.156 4.9571-8.4442-0.93445-13.675-6.1651-13.675-21.059v-34.734h-9.9256v-9.7889h9.9256v-14.21l9.7889-2.678v16.9h13.675v9.7889h-13.675v34.461c0 5.3674 0.27349 8.4442 2.5526 10.461 2.1424 1.7435 7.5098 1.8803 11.532-1.47z"/><path class="st1" d="m499.14 179.63h-38.016l4.5583-12.011h38.016z"/></g>
</svg>
