<svg width="800" height="404.31" version="1.1" viewBox="0 0 800 404.31" xmlns="http://www.w3.org/2000/svg">
 <path d="m795.89 269.84c-7.9483-4.593-18.338-5.5212-27.118-5.9956a61.331 61.331 0 0 0-19.988 2.1521 5.48 5.48 0 0 0-3.5341-1.1758 14.026 14.026 0 0 0-9.4885 4.538c1.9733 1.162 4.9643 3.1628 5.8925 5.2737 3.7816 9.0003-2.8259 16.199-2.8259 16.199a12.149 12.149 0 0 1 0.36441-3.1353 14.157 14.157 0 0 0-1.6158-10.314c-2.8328-3.8848-8.9591-3.5341-9.3235-3.3897-1.1964-1.8083-3.4035-2.6815-5.1018-4.6067-3.046-3.4929-7.357-2.874-10.932-0.68757a22.965 22.965 0 0 0-2.8534 1.9665c12.328 0.51568 16.619 6.1469 18.496 8.7253 8.5328 11.592-1.7464 20.428-1.7464 20.428 0.12376-1.2308 0.15814-2.4615 0.10314-3.6991-0.2544-7.5564-2.3584-11.386-8.9728-16.089-2.6334-1.8771-6.5113-1.5539-10.121-2.0146-1.6502 0.0138-3.3004 0.1719-4.9299 0.48818a34.172 34.172 0 0 1-3.3485 0.63257 11.036 11.036 0 0 0-1.6158-3.3691c-5.1293-7.3708-10.843-11.785-18.014-16.901-5.7756-4.1529-12.424-7.3639-15.745-13.903-3.6166-7.192-6.415-13.6-13.47-18.104-5.6587-3.6235-10.857-12.067-11.785-18.283 0.38504-5.3768-3.0322-13.449-0.96947-19.238 3.0597-8.629 6.3944-11.256 8.7047-13.978 1.7671-2.0902 4.9368-6.5113 5.5418-7.3639 0.89385-1.2239 10.616-6.25 15.608-6.3532 6.1194 2.5784 10.314 4.0567 10.382 4.036 0.63944 0.88697 4.7442 4.8611 5.6656 6.3944 1.1139 2.2277 2.6953 3.2591 2.7984 4.1873-0.29565 1.4714-2.3721 1.9596-2.3721 1.9596s-0.82509 0.32316 0 0.51568c3.3829 0.74945 8.1752-2.5509 9.8667-4.8955 3.5754-4.9299 1.0589-11.427-1.602-21.163-0.0756-0.24065 4.813-9.0347-5.81-25.454-1.4714-1.6639-2.6059-4.2904-9.9079-7.3708-4.3317-1.8221-11.414-2.1452-16.515-2.104-2.2965 0-4.9024 0-7.4945 0.0894 7.5564-5.1568 24.546-22.463 27.517-24.436 8.3196-5.5693 19.706-12.466 22.243-21.659 0.51568-1.8702-1.8564-3.0253-3.5685-2.709 1.8152-0.35066-2.3859 0.19252-2.6334 0.23377a4.9643 4.9643 0 0 0-1.2583 0.46067 12.136 12.136 0 0 0-1.884-0.78383c0.57756-5.033 0.75633-10.107 0.51568-15.168-0.44005-6.3807-3.0597-12.466-4.8611-18.516a3.0803 3.0803 0 0 0-5.8925 0c-1.602 5.3906-2.0008 11.091-4.4142 16.419a27.469 27.469 0 0 1-1.4783 2.9497c-1.217-2.9497-2.3996-5.8925-3.6235-8.7322-2.0765-4.9643-4.2423-9.901-6.3188-14.865a55.24 55.24 0 0 0-3.5754-6.6419 37.225 37.225 0 0 1-2.9497-3.8779 2.4065 2.4065 0 0 0-3.9742-1.0589c-2.2002 2.6128-2.1796 5.3149-1.6846 8.5603 0.94885 5.9819 2.0627 11.785 2.6265 17.863 0.48818 3.9192 1.1758 7.7971 2.0627 11.641-2.2827-3.2316-4.7168-6.3807-7.1576-9.5916-1.7121-2.2552-9.8873-16.632-13.703-13.036-3.816 3.596 0.64631 14.04 1.4714 18.207 0.88697 4.703 1.8564 9.461 2.9497 14.198-3.5066-2.0421-7.1782-4.0773-10.637-6.3257a44.582 44.582 0 0 0-3.7404-2.1384c-0.46067-0.26815-2.489-1.7258-1.7671-0.9901a28.988 28.988 0 0 0-5.8925-5.143 2.0215 2.0215 0 0 0-2.7434 0.72195c-2.2484 4.1254 1.6846 9.8873 3.6854 13.586 2.1796 4.036 4.1117 8.5947 6.4976 12.789l-6.2913-0.33003a33.141 33.141 0 0 1-12.053-2.9428 20.785 20.785 0 0 0-4.8611-2.1659 11.551 11.551 0 0 1-3.9742-0.81134c-2.0215-1.2995-4.0636 1.5883-2.489 3.2385 4.8611 5.143 9.2066 10.534 14.508 15.333-0.17877 0.13751-0.35066 0.26815-0.51568 0.41254-1.2651 0.29566-2.544 0.56381-3.8023 0.81134a214.94 214.94 0 0 0-14.728 3.2591c-3.4929 0.9076-7.6733 1.0451-10.974 2.5578a2.3859 2.3859 0 0 0-1.884 1.2995 2.9428 2.9428 0 0 0 0.91447 4.1529c3.431 2.0008 8.2165 1.8289 12.974 1.0932-6.5388 4.8611-12.995 9.791-19.149 15.216-5.5006-2.7434-11.345-4.1392-16.88-6.6144-12.727-5.6587-24.423-13.772-36.943-19.919-12.521-6.14-26.368-7.357-38.064-14.274-5.1843-3.0734-9.9423-6.6557-15.278-9.5435-5.7618-3.1216-12.046-3.7679-17.973-6.305-3.3141-1.4714-7.4395 1.6364-5.2737 5.2737 0.34378 0.57756 0.72195 1.1276 1.1345 1.6502-0.59131 0.30253-1.1414 0.68757-1.6296 1.1482-5.6725-4.6411-13.146-7.1439-19.843-9.9698-8.4709-3.5754-15.938-8.9109-24.031-13.256-7.7902-4.1598-14.068-10.479-21.638-14.955-3.3554-1.9733-6.4907-5.0193-9.7635-7.2333-2.6196-1.8427-7.8108-3.3141-9.3235-6.2569a1.3545 1.3545 0 0 0-2.5234 0.67382c-0.10313 2.1521 1.0176 3.596 1.9046 5.5075 1.3889 2.7022 3.0597 5.2531 4.978 7.6045a73 73 0 0 1-5.7137-3.1353c-5.143-3.156-10.589-5.6725-15.718-8.8422-4.5105-2.7709-8.4296-6.1882-12.686-9.296-3.5616-2.5921-7.6733-5.1568-11.001-7.9965a15.367 15.367 0 0 0-4.0979-2.3309 17.292 17.292 0 0 1-4.4211-2.2209 1.2995 1.2995 0 0 0-0.49505-0.20627 2.0215 2.0215 0 0 0-3.1835 1.0864c0 0.089384 0 0.17877-0.0688 0.2819a2.0352 2.0352 0 0 0 0.53631 2.0077c6.4563 5.7894 13.112 10.864 19.273 17.127a147.85 147.85 0 0 0 23.405 19.768l2.9428 1.994-2.9428-1.0657c-6.2432-2.2965-13.112-3.7266-18.908-7.027-9.3922-5.3149-18.303-11.139-27.874-16.199a140.1 140.1 0 0 0-15.333-6.4632c-2.3721-0.92135-4.8336-2.3171-7.2676-2.9566-1.2651-0.34379-2.7709 0-3.9604-0.52255a1.327 1.327 0 0 0-1.9183 1.4714c0.84572 2.7228 4.263 4.4211 6.2775 6.1263 4.2286 3.7404 10.314 4.9024 14.625 8.4571 8.2371 6.6694 16.206 13.916 24.821 20.029l0.20627 0.15127-38.064-12.892a250.24 250.24 0 0 0-23.921-9.4129 1.2651 1.2651 0 0 0-1.4714 1.4714c1.3545 3.6579 5.5418 5.3218 8.6153 7.3708 4.4898 2.8397 9.1241 5.4318 13.889 7.7696 11.496 6.0163 23.501 10.54 35.355 15.663 1.0657 0.47442 2.1384 0.88697 3.1972 1.2995a6.1263 6.1263 0 0 0-0.32316 0.7082 75.77 75.77 0 0 1-9.571-0.94885c-7.1783-1.2033-14.528-3.8298-21.796-4.2217a117.12 117.12 0 0 1-19.665-3.2866c-1.3339-0.29566-11.778-2.3721-11.778-1.8564a0.88697 0.88697 0 0 0-1.6777 0c0 0.26128 0 0.51568-0.10314 0.77696a1.0451 1.0451 0 0 0 0.67382 1.2101c5.7344 2.2827 11.359 5.1155 16.983 7.6733 5.6312 2.5646 11.256 3.7129 16.846 5.8031 1.9114 0.7082 3.8229 1.3889 5.755 2.049a69.239 69.239 0 0 1-12.699 0.83884c-3.1353-0.14439-6.1125 1.2101-9.296 1.0314a42.437 42.437 0 0 0-9.901 1.1345 2.4065 2.4065 0 0 0 0 4.5999c11.228 2.0627 23.013 5.6862 34.516 4.8611a68.07 68.07 0 0 1 13.463 0.7357c0.7907 1.1689 2.0146 1.9596 3.4035 2.1934l1.5952 0.24753c-1.1826 0.12376-2.3584 0.2269-3.5547 0.29566-5.4937 0.34379-10.987 0.26815-16.481 0-5.5006-0.26128-11.414 1.6983-16.639 0.57756-4.428-0.9626-7.7558 5.5968-3.2178 7.6114 4.2148 1.9046 8.4846 2.0833 13.05 2.599 5.5556 0.63257 11.091 1.9252 16.66 2.7365 1.2858 0.17877 2.5646 0.30941 3.8504 0.44005-2.7572 0.22002-5.5143 0.39879-8.2852 0.51568-6.7245 0.21315-13.428 0.83196-20.077 1.8564-3.5341 0.57756-7.5839 0-11.029 0.89384-2.0627 0.53631-5.1155 2.4546-7.2676 2.2621-1.1345-0.11689-1.6777 1.7533-0.58444 2.2071 5.0193 2.1315 9.3991 2.0008 14.893 2.3102 7.027 0.33691 14.061 0.2269 21.074-0.3094-0.33003 2.1796 0.34379 4.4005 1.8427 6.0094-3.4585 0.69445-6.8895 1.4783-10.314 2.214-5.535 1.3064-10.437 3.8848-15.642 5.8925a1.8999 1.8999 0 0 0 1.0039 3.6648c4.6824-0.94197 9.4266-0.98322 14.171-2.0283 6.8757-1.4783 14.185-2.0215 21.17-2.9497a1592.8 1592.8 0 0 0 23.212-3.1216l-0.66007 0.4538a4.0223 4.0223 0 0 0-0.88697 0.59131c-0.14439 0.11689-0.27503 0.26816-0.41254 0.38504a3.5204 3.5204 0 0 0 0.0894 5.3768c-4.4211 1.0864-8.7528 2.1796-13.098 3.431-7.1851 2.0902-15.952 4.4211-21.975 9.131-2.2552 1.7877 0.61882 4.8474 2.9428 3.7404 2.9497-1.4714 7.8383-1.2376 11.022-1.8977 4.978-1.0314 9.8117-2.544 14.728-3.6098 8.8422-1.8702 17.842-3.1078 26.829-4.4211a52.895 52.895 0 0 0-8.4021 3.8023c-4.0017 2.2827-8.8353 3.5341-12.961 5.48s-7.7764 5.1155-11.916 7.467c-2.0902 1.1964-0.59131 4.0086 1.547 3.6579 4.0498-0.66694 8.1134-0.44692 12.101-1.3889 0.4813-0.10314 0.9351-0.23378 1.4026-0.36441 0.41254 0.84571 1.0864 1.5333 1.9183 1.9733 2.4202 1.2376 5.1705 1.6639 7.8521 1.2032-2.4546 1.8564-3.9192 4.7374-3.9467 7.8108 0.0688 3.3691 3.0734 7.3639 6.8482 6.8482a485.01 485.01 0 0 0 25.248-3.9467 61.689 61.689 0 0 0-9.0141 6.7451c-4.0842 3.6854-10.004 5.8925-14.907 8.2027-2.7847 1.327-0.79758 5.8925 2.0902 4.9643 9.3372-3.0941 19.692-3.5066 28.83-7.4945a151.26 151.26 0 0 0 12.844-6.2294c-2.7503 2.2827-5.5006 4.5792-8.3884 6.6694-5.0193 3.6441-8.8353 8.5603-13.813 12.211-2.324 1.712-4.8611 3.1834-7.3639 4.7305-1.6777 1.0726-3.0666 3.1628-5.1087 3.5479-2.6128 0.51568-1.7671 4.1942 0.58444 4.4211 4.6067 0.35067 9.7635-1.1345 14.735-3.3691a14.095 14.095 0 0 0-0.52943 2.159 2.5165 2.5165 0 0 0 3.6441 2.8328c2.159-1.1207 4.9986-1.1964 7.2676-2.6403l3.0253-1.9458a5.4524 5.4524 0 0 0 3.7198 3.2591 20.875 20.875 0 0 0 10.816-1.0451c-6.0231 5.6725-9.9148 11.276-5.8925 14.343 3.1078 2.3928 8.6909 0 12.926-2.3996-0.24753 0.64632-0.44005 1.3064-0.57069 1.994a3.2522 3.2522 0 0 0 2.2002 3.8504c6.2294 2.3171 14.446-1.4645 21.383-6.1813a6.4082 6.4082 0 0 0 2.0627 5.0949c0.87321 0.89384 1.9664 1.5333 3.1628 1.8564-0.79071 0.82509-1.5677 1.6777-2.3102 2.5784-2.0902 2.5371-0.99698 7.1164 2.874 6.9445 5.4524-0.24065 10.657-3.3004 15.47-5.645a118.36 118.36 0 0 0 14.597-8.4159c-0.83884 3.3141 2.1315 7.027 5.7275 5.2943a3.871 3.871 0 0 0 4.5655 3.4585c2.5234 0.74258 5.2049 0.78383 7.7489 0.13752a63.064 63.064 0 0 1-3.8985 7.5358c-2.5371 3.596 0.9076 8.2027 4.7718 8.3059 8.4365 0.2544 15.773-3.5754 22.401-8.8353 1.0314 0.83196 2.2484 1.3889 3.5548 1.6227 0.47443 0.15126 0.97635 0.17877 1.4714 0.0825 0.93509-0.0344 1.8564-0.23378 2.7365-0.57069 5.5006-2.104 5.7756-5.2462 10.479-8.5121 4.0567-1.0039 6.5044-7.082 7.9071-9.1928 1.8427 1.6295 3.8092 3.1078 5.8925 4.4142-4.7442 2.214-13.256 10.107-14.597 11.07-13.408 9.406-15.319 16.02-25.351 21.769-8.8422 5.0674-14.735 5.8925-23.673 10.912-6.8757 3.8023-15.965 8.9866-19.61 16.206-0.90759 1.829 1.7533 3.5479 3.1697 2.2415a2.5028 2.5028 0 0 1 0.20627-0.15127 1.994 1.994 0 0 0 0 0.26816 2.2415 2.2415 0 0 0-0.7082 0.9626l-0.13751 0.36441s-0.21315 0.4813-0.12376 0.33691v0.0894a1.7396 1.7396 0 0 0-1.0932 1.3958 1.7533 1.7533 0 0 0 1.5952 1.884 4.8611 4.8611 0 0 0 1.5814-0.13752 4.0979 4.0979 0 0 0 1.939-1.3751 2.9428 2.9428 0 0 0 0.54319-0.81134 4.9918 4.9918 0 0 0 0.64631-0.11689c1.7877-0.50192 3.7404 0 5.5693 0 2.7847-0.19252 5.5693-1.1964 8.3334-1.0932 5.6312 0.20628 16.206-4.6549 21.335-6.9032 5.1224-2.2552 3.1628 0.98323 8.5878 0.70132 2.9428-0.15814 5.1843-0.7907 8.024 0.35754 1.6502 0.76321 3.3485 1.4233 5.088 1.9596a6.3944 6.3944 0 0 0 2.7228 0.44005c4.7718-0.22002 11.063 0.82508 15.89 0.81133l2.049 0.11689c0.66695 0 2.6953-3.6648 2.1246 0.13752a42.905 42.905 0 0 1-3.7404 4.7992 2.6334 2.6334 0 0 0 1.5608 4.2079c3.6923 1.0932 10.396 0.19252 12.72-2.3721 4.1942-4.593 5.0262-4.6686 8.1202-10.087 2.5646-4.4211 7.6046-14.274 9.0278-17.671 1.107-2.5853 1.9183-5.0193 2.9497-7.3708 4.4211-0.57756 8.6153-1.3545 10.974-3.1972 0.17877-0.13751 0.32316-0.27503 0.4813-0.41254 2.0352 2.2209 4.2423 4.263 6.6007 6.1263 1.4095 1.1276 3.3485 1.3064 4.9368 0.47442 1.6227 4.1392 6.5594 16.199 11.916 15.807a4.3317 4.3317 0 0 0 0.85946-0.15127c1.4714 3.4379 3.4379 6.5594 7.1714 7.8246 0.20627 0.0688 0.41254 0.11689 0.63257 0.14439 1.7396 3.6716 4.1804 7.0545 7.9414 7.6596h0.76321l0.82509 0.77008a4.4211 4.4211 0 0 0 6.7176-0.77008c0.11688 0.13751 0.20627 0.29565 0.32315 0.44004 4.1873 5.425 9.2204 11.909 16.694 8.1134a5.4043 5.4043 0 0 0 2.6059-5.8856c5.4524 1.1895 11.07 1.4026 16.598 0.61881 1.8289 1.2514 3.5754 2.8397 5.1018 3.8504 3.3554 2.3377 6.4769 4.9918 9.3235 7.9346-2.5509 2.3721-5.088 4.7718-7.5427 7.2608-3.4654 3.5204-6.9101 7.1026-10.314 10.712-3.9054 4.1529-6.0988 8.9522-10.073 13.002-3.0528 3.0941-3.4379 7.2195-5.5418 10.816-2.324 3.9604-4.9024 8.7322-4.7442 13.525-0.68757 2.489-0.94197 5.088-0.7357 7.6733v0.32316c-0.0894 0.59131-0.19252 1.1758-0.27503 1.7877a23.983 23.983 0 0 1-0.79758 3.3347c-1.1826 1.6089-3.1972 2.5784-5.7137 4.1117a35.939 35.939 0 0 0-6.7932 5.8925 3.3897 3.3897 0 0 0-0.82509 1.4714l-0.35754 0.17877c-1.5814 0.42629-3.0803 1.1345-4.4142 2.0902-3.0734 1.3201-5.8512 3.2316-8.1821 5.6312a2.1246 2.1246 0 0 0 2.0558 3.5204c0.63257-0.17189 1.2514-0.38504 1.8564-0.65319a3.9467 3.9467 0 0 0 3.2316 1.7396c2.7022 0.17877 6.3669-3.5204 8.0171-1.2514 1.9046 2.7778 4.6136 4.9024 7.7696 6.085 4.0017 1.1345 6.807 4.4211 10.059 6.8482 3.0253 2.324 6.6419 3.7816 10.444 4.1942 4.091 0.56381 6.862-4.3317 5.8856-7.7902-2.0627-7.8452-6.2982-13.58-6.0644-21.975 0.10313-4.0773 0-8.2027-0.23378-12.314 0.055-1.6502 0.35754-3.2728 0.89385-4.8336 0.7357-1.1345 1.4714-2.2346 2.3171-3.3416 0.26127 2.104 0.75633 4.1736 1.4714 6.1744 0.75633 2.0283 4.0773 1.3408 4.1529-0.75633 0.0688-2.0902 0.39879-4.3455 0.68069-6.5251 0.1719-1.3683-0.16501-5.2256 0.9076-6.2432a1.6364 1.6364 0 0 0 0.2544-2.1521c1.0176-0.98323 2.0146-1.9596 2.874-2.9428 1.8014-2.0696 3.7129-4.036 5.7412-5.8925a5.8925 5.8925 0 0 0 2.9497-0.30941c5.2668-2.2965 10.314-5.0743 15.065-8.3128 0.15127 0.35754 0.30941 0.7082 0.4263 1.0932 0.91447 2.9428 1.0038 6.2569 1.6639 9.3235 0.48818 2.2965 4.2148 3.046 4.9093 0.44005 0.98322-3.6648 0.15814-7.357 1.0864-11.049 0.43317-1.7671 1.107-3.6441 1.547-5.5693 0.78383-0.37817 1.547-0.79071 2.3446-1.1414 1.3545-0.60507 2.8397-1.1826 4.4211-1.7877 2.7984 0.85947 6.2707 1.0657 8.409-1.1482a3.9329 3.9329 0 0 0 0.7632-4.0498c3.4379-3.3691 7.192-6.4082 11.207-9.0622 0.46067-0.28878 0.92134-0.54318 1.3889-0.80446 0.83884-0.29565 1.6639-0.60506 2.4753-0.9626 2.2552-0.99698 4.4898-1.9596 6.7451-2.8534 0.32315 0.90759 0.7357 1.7808 1.2239 2.6059a2.4753 2.4753 0 0 0 4.2148 0.35066c1.2789-1.7946 2.1796-4.1254 3.9604-5.4593a1.7533 1.7533 0 0 0 0.44004-0.50192c3.4379-0.99698 6.7382-2.4065 9.846-4.1873 4.6067-2.7984 10.114-2.9428 14.886-5.3149 3.9329-1.9458 10.314-3.4379 14.583-4.9918 6.2225-2.2415 7.6939-8.519 1.4026-12.143m-117.16-130.36a2.1315 2.1315 0 0 1 1.4714 0.81134c0.39192 1.2376 0.98323 2.4134 1.7327 3.4791a3.7129 3.7129 0 1 1-3.211-4.2836m-280.07-12.445c-1.884 1.4783-3.7541 2.9566-5.6106 4.5311-6.8757 1.6089-13.635 3.6166-20.27 6.0231 3.9535-2.0765 7.7764-4.4005 11.448-6.9514a482.95 482.95 0 0 1 17.258-5.7206c-0.94197 0.6807-1.8977 1.3889-2.819 2.1246m16.199 20.166c-1.8427 1.7671-3.1972 4.036-5.3081 5.5212-2.104 1.492-4.4142 2.819-6.6832 4.1254a69.445 69.445 0 0 0 1.4714-1.4714c1.3614-1.4439 2.1452-3.3278 2.2071-5.3012h0.17877c4.5861-1.9252 8.9866-4.2492 13.153-6.9582-1.6639 1.3889-3.4172 2.654-4.9918 4.1598m29.167 14.48c-3.7266 2.9428-7.6183 5.6381-11.462 8.3609a21.315 21.315 0 0 0 1.0314-3.3691 5.1705 5.1705 0 0 0 0.13752-0.9626c2.5165-2.9428 6.1675-5.4456 8.9522-8.0446 0.81133-0.72882 1.6089-1.4645 2.3721-2.2484 1.0864 0.86634 2.1521 1.7533 3.211 2.6403-1.3545 1.2376-2.7503 2.4409-4.2423 3.6235m69.142 3.0597c-6.7382-2.9428-13.696-5.6106-19.561-10.238a163.73 163.73 0 0 1-19.706-19.41c-2.3721-2.599-6.8964-5.1912-10.314-8.0308l-2.0902-1.7189a15.883 15.883 0 0 0-0.39879-1.6227c-1.0589-3.6098-3.2728-6.4838-5.0055-9.7566-1.7396-3.266-3.8023-8.0721-6.4632-10.63-2.1108-2.0352-3.0872-5.3081-5.1912-7.3708a21.418 21.418 0 0 0-5.5968-4.6755l-0.34379-0.20627a7.7902 7.7902 0 0 0-1.0864-5.3562c0.9901 0.13751 1.994 0.24065 2.9497 0.2819 5.088 4.9986 9.7498 10.424 13.93 16.206 4.0704 5.3424 7.7214 11.104 13.256 14.989 2.1658 9.1653 9.901 15.745 17.677 20.558 0.46755 0.41254 1.0038 0.72882 1.5952 0.9351l1.7052 0.9901c10.121 5.6587 18.028 15.36 25.041 24.759l-0.38504 0.30941m4.9505 91.949a54.401 54.401 0 0 0-10.733 0.13751 100.8 100.8 0 0 0 11.276-2.9566l1.6708-0.55005c-0.77008 1.0451-1.4783 2.1796-2.214 3.3416m20.785 9.0141c0.56381-1.0726 1.272-2.0627 2.1108-2.9497 0.92822-0.86634 1.9114-1.6502 2.9428-2.4546 0.4813 2.4065 1.9046 4.5242 3.9467 5.8925a583.63 583.63 0 0 1-8.9384-0.4263m71.411-125.92c-0.0688-0.0825-1.5814-1.7533-1.6639-1.8221 7.5702-5.7756 16.426-9.5779 25.117-13.14 8.6909-3.5685 18.441-2.9497 27.517-2.269 1.8839 0.4263 3.8573 0.66007 5.6381 1.1482 1.3339 0.36441 2.6265 0.85946 3.8642 1.4714 7e-3 0.27503 0.0894 0.53631 0.23378 0.77008 0.41254 0.59819 0.85946 1.1689 1.3408 1.7189a32.997 32.997 0 0 0-11.4-1.7946 61.084 61.084 0 0 0-15.539 2.1934c-3.376 0.29566-6.8207 1.0451-9.0897 1.2789a30.418 30.418 0 0 0-14.205 6.085l-1.9871 0.52943a34.516 34.516 0 0 0-6.6901 2.9497l-3.1766 0.75633m13.373 105.27c-1.1208-0.67382-2.2415-1.4645-3.3691-2.2484-1.0038-1.5883-2.0627-3.1491-3.1628-4.6961a5.5075 5.5075 0 0 0-0.46755-6.2913 46.521 46.521 0 0 0-7.4808-6.7795 4.9368 4.9368 0 0 0 1.3545-4.2561l-0.4813-3.6991c0.95573 1.4095 2.0971 2.6815 3.3966 3.7748 3.0803 2.5646 5.9956 5.3631 8.9109 8.1134a42.354 42.354 0 0 0 13.511 18.193c1.8977 3.3278 3.5272 6.8001 4.8818 10.382a100.77 100.77 0 0 0-17.093-12.486m90.347 58.478c0.0688-1.0657 0.0688-2.1315 0-3.1972-0.5088-5.2118-2.159-6.7863-6.2638-8.6772-2.5784-1.1758-9.8735 0.29565-12.569-0.63257s-1.8083-4.1117 0.2544-4.813a21.019 21.019 0 0 1 17.306 2.9428c8.6497 6.5113 1.2239 14.453 1.2239 14.453m60.589-21.301a2.5475 2.5475 0 1 1 0-5.0949 2.544 2.544 0 0 1 0 5.088" fill="#5d4f4a" stroke-width="6.8757"/>
 <g fill="#5c7e92" stroke-width="6.8757">
  <path d="m4e-7 321.47h14.508l12.741 41.674 13.806-41.846h11.606l13.8 41.846 12.761-41.667h14.157l-21.026 61.985h-11.778l-13.889-40.202-13.896 40.271h-11.785z" fill-rule="evenodd"/>
  <path d="m116.59 321.03h12.479l26.382 61.992h-14.164l-5.6243-13.8h-26.025l-5.6312 13.8h-13.8l26.382-61.998zm14.233 36.304-8.1821-19.974-8.1684 19.96z"/>
  <path d="m165.55 321.47h13.545v61.558h-13.545z" fill-rule="evenodd"/>
  <path d="m194.45 321.47h23.996a36.386 36.386 0 0 1 13.256 2.3309 31.243 31.243 0 0 1 10.314 6.4632c2.8878 2.7365 5.1705 6.0438 6.7107 9.7085 1.6158 3.8298 2.4271 7.9415 2.3859 12.101v0.1719a30.7 30.7 0 0 1-2.3859 12.122 28.52 28.52 0 0 1-6.7176 9.7635c-2.9841 2.8122-6.4838 5.0193-10.314 6.5113a35.781 35.781 0 0 1-13.25 2.3721h-23.996v-61.538zm23.996 49.32c2.5784 0.0275 5.143-0.41254 7.5633-1.3064a16.584 16.584 0 0 0 9.6673-9.6398c0.89385-2.3515 1.3476-4.8474 1.327-7.357v-0.18565a20.627 20.627 0 0 0-1.3064-7.5633 16.639 16.639 0 0 0-9.681-9.7292 20.297 20.297 0 0 0-7.5702-1.3683h-10.465v37.108z"/>
  <path d="m254.97 321.47h14.508l12.754 41.674 13.848-41.846h11.606l13.806 41.846 12.741-41.667h14.157l-21.005 61.985h-11.792l-13.937-40.202-13.889 40.271h-11.778zm103.39 0h46.342v12.033h-32.969v12.493h29.009v11.991h-29.009v12.926h33.347v12.115h-46.721z" fill-rule="evenodd"/>
  <path d="m417.27 321.47h28.129c7.859 0 13.841 2.0833 17.946 6.25a18.977 18.977 0 0 1 5.2737 14.054v0.1719a19.3 19.3 0 0 1-3.6441 12.184c-2.4615 3.1628-5.7756 5.5487-9.5435 6.9101l15.044 21.989h-15.835l-13.188-19.692h-10.623v19.692h-13.552v-61.558zm27.262 29.978c2.7709 0.18565 5.5143-0.66007 7.6871-2.3859a8.1134 8.1134 0 0 0 2.6815-6.36v-0.17877a7.9277 7.9277 0 0 0-2.8122-6.6282 12.356 12.356 0 0 0-7.8177-2.214h-13.449v17.767z"/>
  <path d="m480.85 321.47h13.538v26.898l24.966-26.898h16.35l-25.041 26.107 26.196 35.451h-16.206l-19.149-26.196-7.1164 7.357v18.839h-13.538z" fill-rule="evenodd"/>
 </g>
</svg>
