<svg width="125.55mm" height="118.89mm" version="1.1" viewBox="0 0 125.55 118.89" xmlns="http://www.w3.org/2000/svg">
 <defs>
  <radialGradient id="b" cx="83.982" cy="92.134" r="18.39" gradientTransform="matrix(-.28397 1.0178 -1.6455 -.45909 268.53 15.716)" gradientUnits="userSpaceOnUse">
   <stop stop-color="#fff" stop-opacity=".3" offset="0"/>
   <stop stop-color="#fff" stop-opacity=".988" offset="1"/>
  </radialGradient>
  <radialGradient id="a" cx="273.87" cy="405.07" r="224.92" gradientTransform="matrix(-.059866 .27004 -.43742 -.096972 213.37 -26.924)" gradientUnits="userSpaceOnUse">
   <stop stop-color="#fff" stop-opacity=".3" offset="0"/>
   <stop stop-color="#fff" offset="1"/>
  </radialGradient>
 </defs>
 <path d="m106.05 57.053c-10.753 0-19.494 8.56-19.494 19.117s8.7409 19.117 19.494 19.117c10.753 0 19.495-8.5595 19.495-19.117 0-10.557-8.742-19.117-19.495-19.117zm-15.408 10.793h4.2276v6.2187h6.7355v-6.2187h4.3987v16.649h-4.3987v-6.6626h-6.7355v6.6626h-4.2276zm16.745 0h6.1097c1.4133 0 2.8163 0.16262 4.193 0.53795 2.5399 0.69872 4.4993 2.8545 5.24 5.3454 0.70222 2.8508 0.17497 6.1488-2.005 8.245-1.7852 1.9355-4.5174 2.4539-7.0363 2.5203h-6.5014zm4.2623 3.8003v8.9963h2.6934c0.78034 0 1.5399-0.17956 2.2397-0.58963 2.8787-1.4708 3.0007-6.3619 0.0207-7.7907-0.7752-0.4895-1.6383-0.61598-2.5213-0.61598z" color="#000000" color-rendering="auto" dominant-baseline="auto" image-rendering="auto" shape-rendering="auto" solid-color="#000000" style="font-feature-settings:normal;font-variant-alternates:normal;font-variant-caps:normal;font-variant-ligatures:normal;font-variant-numeric:normal;font-variant-position:normal;isolation:auto;mix-blend-mode:normal;paint-order:stroke fill markers;shape-padding:0;text-decoration-color:#000000;text-decoration-line:none;text-decoration-style:solid;text-indent:0;text-orientation:mixed;text-transform:none;white-space:normal"/>
 <g transform="translate(.00023264 .005685)">
  <path transform="scale(.26458)" d="m224.89-0.021484c-10.957 2.2338-107.77 14.453-119.83 20.199-2.8133 5.3284-8.531 21.831-10.389 24.453-7.7514 1.6333-39.273 7.3929-41.25 8.498-1.1068 3.165-8.3512 16.802-10.029 18.379-6.6161 1.6309-37.747 7.1206-41.635 9.7969-2.2197 12.765-10.537 140.33 44.992 223.73 55.499 83.49 152.58 138.99 178.08 144.31h0.17773c20.422-4.2574 86.706-40.69 140.81-97.902l-21.553-17.305c-46.056 48.238-101.95 78.973-119.29 82.559h-0.11523c-21.825-4.5146-104.74-52.006-152.22-123.32-47.448-71.297-40.385-180.35-38.408-191.27 3.2618-2.2181 29.874-6.9771 35.562-8.3086 1.4067-1.3604 7.573-13.022 8.5605-15.744 1.7065-0.93037 28.59-5.8875 35.266-7.2637 1.5276-2.2619 6.4933-16.359 8.8574-20.912 10.3-4.9289 93.037-15.334 102.41-17.281h2e-3c9.5494 1.979 92.221 12.366 102.49 17.281 2.3511 4.5536 7.2904 18.65 8.8438 20.912 6.6765 1.3762 33.574 6.3332 35.281 7.2637 0.95823 2.7225 7.1071 14.385 8.5293 15.744 5.7173 1.3323 32.316 6.0904 35.592 8.3086 1.2989 7.3428 4.9077 59.088-7.2891 113.88l28.715 8.9805c17.242-67.826 12.603-134.61 11.043-143.66-3.9065-2.6762-35.011-8.1653-41.654-9.7969-1.6754-1.5771-8.8923-15.214-10.014-18.379-1.9744-1.1049-33.495-6.8645-41.279-8.498-1.8266-2.6217-7.5891-19.125-10.373-24.453-12.022-5.7468-108.72-17.908-119.88-20.199z" stroke-width=".43684"/>
  <path d="m27.023 27.564c-0.87992 0.35273-8.3795 4.9279-9.1243 5.6487-0.21375 6.3677 1.5678 23.546 8.1333 36.949 0.83237 1.6984 1.7429 3.2951 2.7097 4.7187 1.8762 3.1048 1.9715 2.8617 4.1577-0.1059 1.5207-1.9485 3.6912-4.8511 4.2451-5.4421 0.74481 2.3949 5.6154 17.382 12.459 26.445 3.0332 4.0065 7.6902 7.816 7.674 6.2502-0.17352-15.306-0.64103-81.555-0.1502-84.258-2.0198-0.0451-8.6332 0.77724-9.9395 1.4214-0.1111 2.4297 0.91056 47.858 0.27685 53.029-4.6337-10.822-6.2253-39.375-5.3067-51.149-2.5026 0.46585-8.6328 2.8159-9.5125 3.6612-1.1243 2.1682 0.41218 25.882 2.0198 33.846-0.55438 0.83347-2.13 3.0774-2.384 3.4409-3.1674-5.4774-6.2017-22.386-5.2583-34.455" stroke-width=".11558"/>
  <path d="m62.687 17.974c0.4643-0.17817 6.8397 1.267 10.338 2.3433 6.4741 1.9921 13.073 4.9888 18.272 8.297 4.0952 2.6062 6.1946 4.6054 7.4022 7.0489 0.83371 1.6869 0.94927 2.166 0.94927 3.9355 0 2.3402-0.52242 3.9461-2.0156 6.1956-1.2096 1.8223-4.2688 4.7262-6.8035 6.4581l-1.8654 1.2746 1.5588 1.1476c1.7255 1.2702 3.0461 2.9996 3.6548 4.786l0.39969 1.173c0.63172 1.9231-2.8458 3.3553-4.4248 7.1127-1.7865 5.5436-0.30802 8.0956-3.4352 12.743-1.3363 2.3132-9.2131 10.54-14.093 14.574-3.4002 2.8112-7.0603 5.332-10.49 7.225-0.11025 0.0608-5e-3 -84.1 0.55367-84.314zm13.616 61.809c2.1898-2.5949 5.2781-7.1202 6.4751-9.4881 3.4237-6.7725 1.0792-11.591-5.0206-10.32-1.8708 0.39007-4.7736 1.4691-5.8507 2.1749l-0.6199 0.40617v22.554l1.4931-1.4608c0.8212-0.80347 2.4065-2.5433 3.523-3.8663zm4.6056-32.393c7.2388-4.7648 8.0181-5.528 8.0181-7.8528 0-2.2483-1.821-4.0322-6.601-6.4664-2.7643-1.4077-8.2424-3.6927-9.7757-4.0775l-0.72858-0.18286v24.161l1.8041-0.98764c0.99224-0.54321 4.2696-2.6106 7.2831-4.5941z"/>
 </g>
 <path d="m59.503 0c-2.899 0.59102-28.513 3.8241-31.704 5.3444-0.74436 1.4098-2.2572 5.7762-2.7487 6.4699-2.0509 0.43215-10.391 1.956-10.914 2.2484-0.29285 0.83741-2.2096 4.4455-2.6536 4.8628-1.7505 0.4315-9.9873 1.884-11.016 2.5921-0.48591 2.7943-2.0761 26.38 5.7102 46.939a120.74 91.066 0 0 0 15.396 0.83561 120.74 91.066 0 0 0 97.444-37.454c0.0431-5.4541-0.28103-9.2943-0.45785-10.32-1.0336-0.70808-9.2633-2.1604-11.021-2.5921-0.44328-0.41728-2.3528-4.0254-2.6494-4.8628-0.52238-0.29233-8.8622-1.8162-10.922-2.2484-0.48328-0.69365-2.0079-5.0601-2.7445-6.4699-3.1807-1.5205-28.765-4.7381-31.719-5.3444z" fill="url(#a)" opacity=".4" style="paint-order:stroke fill markers"/>
 <path d="m106.06 57.052c-10.753 0-19.494 8.56-19.494 19.117 0 0.56097 0.0302 1.1148 0.0785 1.6635h9.0558c4.1195 0 16.438 1.3446 27.645-10.496-3.2564-6.1106-9.7781-10.285-17.285-10.285z" color="#000000" color-rendering="auto" dominant-baseline="auto" fill="url(#b)" image-rendering="auto" opacity=".4" shape-rendering="auto" solid-color="#000000" style="font-feature-settings:normal;font-variant-alternates:normal;font-variant-caps:normal;font-variant-ligatures:normal;font-variant-numeric:normal;font-variant-position:normal;isolation:auto;mix-blend-mode:normal;paint-order:stroke fill markers;shape-padding:0;text-decoration-color:#000000;text-decoration-line:none;text-decoration-style:solid;text-indent:0;text-orientation:mixed;text-transform:none;white-space:normal"/>
</svg>
