<svg width="733.08" height="932.39" version="1.1" viewBox="0 0 733.08 932.39" xml:space="preserve" xmlns="http://www.w3.org/2000/svg"><g fill="#f00" stroke-width="44.332"><path d="m92.476 659.03-7.0488-3.0589c-8.5561-3.7239-14.497-7.4035-17.777-10.994-2.7929-3.1032-4.1672-7.0488-4.1672-11.97 0-4.7879 1.5516-8.1571 4.8765-10.728 3.7239-2.8816 9.1324-4.3446 16.048-4.3446 10.329 0 20.393 2.5269 29.836 7.5365l7.0488 3.7239 13.255-48.145-4.3889-2.4383c-16.226-9.0881-33.294-13.699-50.672-13.699-22.077 0-40.032 6.5168-53.42 19.462s-20.171 30.545-20.171 52.312c0 31.077 15.649 53.598 46.505 66.942l7.0488 3.0589c8.5118 3.7239 14.497 7.4035 17.733 10.994 2.7929 3.1033 4.1672 7.0488 4.1672 11.97 0 5.6302-1.596 9.7531-4.9652 12.635-3.5909 3.0146-9.0438 4.5662-16.226 4.5662-6.9602 0-13.566-0.84231-19.639-2.5269-6.1622-1.6846-13.034-4.5219-20.348-8.3788l-7.0488-3.7239-13.122 47.657 3.7239 2.6156c16.536 11.526 37.106 17.378 61.045 17.378 22.92 0 41.229-6.6498 54.396-19.817 13.167-13.167 19.816-31.343 19.816-54.085 0-31.077-15.649-53.642-46.504-66.942"/><path d="m155.61 568.59v227.6h130.34v-50.228h-73.636v-39.057h57.676v-50.228h-57.676v-37.815h30.146c-16.359-16.004-31.964-32.717-46.593-50.273z"/><path d="m348.01 702.48c-1.596 0-3.9456-1.596-6.3395-3.1919-13.078-8.6891-25.713-17.955-38.17-27.486v124.35h56.701v-73.015h7.1818l31.609 73.015h61.533l-41.273-88.398c7.9798-6.3395 14.364-14.408 19.019-23.984 5.4085-11.172 8.1571-23.939 8.1571-37.948 0-6.4282-0.66498-12.502-1.8176-18.309-27.929 26.333-58.12 50.406-90.26 71.774-2.3939 1.596-4.7436 3.1919-6.3395 3.1919"/><path d="m467.39 796.02h56.701v-227.6h-24.161c-10.418 12.502-21.235 24.737-32.54 36.485z"/><path d="m605.4 706.91h57.676v-50.273h-57.676v-37.815h71.198v-50.228h-127.9v227.6h130.34v-50.228h-73.636z"/><path d="m477.32 174.04c0-26.954-30.988-49.164-72.04-51.869v140.75c51.824-30.279 72.04-60.602 72.04-88.886"/><path d="m471.92 275.11c-14.142 0-26.954 5.4085-66.676 33.692v152.19c68.715-76.783 88.221-129.32 88.221-156.27 0-18.841-8.7334-29.614-21.545-29.614"/><path d="m659.97 454.66h-28.949l-25.668-70.4h-17.511v70.355h-31.432v-70.311h-17.777v-26.156h90.881l16.004 50.716 16.004-50.716h33.382zm-129.36-126.17c-17.112 18.974-28.062 43.534-29.747 70.666-25.314 43.446-66.809 95.226-131.31 154.94-1.33 1.33-2.7043 0.66498-2.7043-0.66498v-473.47c0-1.33 0.70931-1.995 2.0393-1.995 90.26 6.0292 148.16 43.756 148.16 98.285 0 22.92-8.7334 45.13-23.585 61.311 29.658 8.0685 41.096 30.279 41.096 59.937 0 9.2654-1.2856 19.639-3.9456 30.988m-201.45 224.94c0 1.33-1.3743 1.995-2.7043 0.66498-37.062-42.426-61.976-94.295-78.778-150.86l-25.624 16.137c-6.7385 4.7436-12.103 2.7043-16.137-4.6992-34.357-60.602-56.568-160.26-58.607-230.31 0-3.3692 0.66498-5.4085 3.3692-8.7778 8.7778-10.773 19.551-21.545 29.658-30.988 1.995-1.995 4.0342-0.66499 4.0342 2.7043 0 86.226 14.807 166.33 38.392 218.87 1.995 4.0786 4.0342 4.0786 6.6942 2.0393l7.4478-4.6992c-14.142-62.641-22.255-146.16-20.216-242.45 0-3.3692 0.66499-4.7436 2.7043-6.0735 7.4035-4.6992 20.88-12.103 32.318-16.846 3.3692-1.33 4.0342-0.66498 4.0342 2.0393-2.0393 140.09 9.4428 237.04 34.357 314.49 0.66498 2.0393 2.6599 1.3743 2.6599-0.66498-1.33-28.284-1.33-53.199-1.33-83.522l-1.33-241.74c0-2.7043 0.66498-4.0786 3.3692-4.7435 11.438-2.6599 21.545-4.6992 33.648-6.0292 1.3743 0 2.0393 0.66498 2.0393 1.995zm287.63-263.33c-7.9798 0-15.738 0.84231-23.274 2.3496 7.6252-36.308 11.792-73.902 11.792-112.56 0-22.255-1.995-44.465-6.0292-65.346-0.70931-2.7043-1.3743-3.7239-2.7043-4.0342l-48.499-12.812-6.7385-27.619c-0.35466-1.33-0.66499-2.3496-2.0393-2.7043l-49.829-13.477-6.0735-26.245c-0.31033-2.0393-1.33-3.0589-2.7043-3.3692l-129.49-24.028c-2.0836-0.39899-4.2559-0.39899-6.3838 0l-129.49 24.028c-1.3743 0.31032-2.3496 1.33-2.7043 3.3692l-6.0735 26.245-49.829 13.477c-1.3743 0.35466-1.6846 1.3743-2.0393 2.7043l-6.7385 27.619-48.499 12.812c-1.33 0.31032-1.995 1.33-2.7043 4.0342-4.0342 20.88-6.0292 43.091-6.0292 65.346 0 194 101.03 362.37 251.9 462.74 2.0393 1.3743 4.0786 2.7043 5.4085 2.7043 1.33 0 3.3692-1.33 5.4085-2.7043 67.163-44.687 124.35-102.9 167.27-170.81 20.925 30.678 56.169 50.849 96.112 50.849 64.193 0 116.28-52.046 116.28-116.28 0-64.193-52.09-116.28-116.28-116.28"/></g><g transform="translate(.10062 -.053651)" fill="#f00"><path d="m373.99 829.26v103.18h47.684c5.6758 0 11.855-0.93179 18.572-2.7344 5.3954-1.4354 10.399-4.3236 14.908-8.4766 4.5567-4.1969 8.1098-9.4127 10.623-15.496 2.6374-6.384 3.7754-14.716 3.7754-25.209 0-6.8199-0.82027-13.327-2.4766-19.492-1.6856-6.2742-4.4419-11.884-8.2558-16.699-3.8606-4.874-8.8072-8.651-14.654-11.229-6.0244-2.6557-13.505-3.8438-22.492-3.8438zm37.23 29.354h3.4863c7.0086 0 11.191 1.669 13.508 4.291 2.1504 2.4334 3.9766 8.513 3.9766 18.205 0 7.3897-0.83799 12.592-1.8945 15.031-1.2207 2.8185-2.6679 4.3813-4.3672 5.2734-1.492 0.78323-5.4746 1.6074-11.352 1.6074h-3.3574z" color="#000000" style="-inkscape-stroke:none"/><path d="m262.66 829.26v103.18h37.23v-38.605h24.488v38.605h37.361v-103.18h-37.361v33.398h-24.488v-33.398z" color="#000000" style="-inkscape-stroke:none"/></g></svg>
