<svg width="680.59" height="936.07" version="1.1" viewBox="0 0 680.59 936.07" xml:space="preserve" xmlns="http://www.w3.org/2000/svg"><g fill="#0072ce" stroke-width="44.383"><path d="m2.232e-4 799.93h58.585v-83.44l56.455-0.0444v-49.664h-56.455v-42.253h70.436v-49.709h-129.02z"/><path d="m147.61 574.79h-2.0416v225.11h58.63v-166.39c-20.061-18.419-38.968-38.036-56.588-58.719"/><path d="m229.62 799.93h129.02v-51.839h-70.436v-48.244c-20.327-13.581-39.856-28.316-58.585-43.895z"/><path d="m372.33 646.04v153.88h54.458v-106.34l26.497 69.015h43.85l26.452-69.015v106.34h55.124v-225.11h-57.52l-45.803 119.03-41.587-108.78c-19.129 21.614-39.678 41.942-61.47 60.982"/><path d="m424.54 174.44c0-26.985-31.024-49.221-72.122-51.928v140.92c51.884-30.314 72.122-60.671 72.122-88.988"/><path d="m419.16 275.57c-14.158 0-26.985 5.4147-66.752 33.731v152.37c68.793-76.871 88.322-129.46 88.322-156.45 0-18.863-8.7434-29.648-21.57-29.648"/><path d="m607.41 455.18h-28.982l-25.698-70.48h-17.531v70.48h-31.467v-70.436h-17.798v-26.186h90.985l16.022 50.774 16.022-50.774h33.42zm-129.51-126.31c-17.132 18.996-28.094 43.584-29.781 70.746-25.343 43.495-66.885 95.334-131.46 155.12-1.3315 1.3315-2.7074 0.66575-2.7074-0.66574v-474.01c0-1.3315 0.71013-1.9972 2.0416-1.9972 90.364 6.0361 148.33 43.806 148.33 98.397 0 22.946-8.7434 45.182-23.612 61.382 29.692 8.0777 41.143 30.314 41.143 60.006 0 9.276-1.2871 19.662-3.9501 31.024m-201.68 225.2c0 1.3315-1.3759 1.9972-2.7074 0.66574-37.104-42.474-62.047-94.402-78.868-151.03l-25.653 16.155c-6.7462 4.749-12.117 2.7074-16.155-4.7046-34.397-60.671-56.633-160.44-58.674-230.57 0-3.3731 0.66574-5.4147 3.3731-8.7878 8.7878-10.785 19.573-21.57 29.648-31.024 2.0416-1.9972 4.0832-0.66575 4.0832 2.7074 0 86.325 14.824 166.52 38.436 219.12 1.9972 4.0832 4.0388 4.0832 6.7018 2.0416l7.4563-4.7046c-14.158-62.713-22.28-146.33-20.239-242.73 0-3.3731 0.66575-4.749 2.7074-6.0804 7.4119-4.7046 20.86-12.117 32.355-16.866 3.3731-1.3315 4.0388-0.66574 4.0388 2.0416-2.0416 140.25 9.4536 237.32 34.397 314.85 0.66574 2.0416 2.663 1.3759 2.663-0.66574-1.3315-28.316-1.3315-53.259-1.3315-83.617l-1.3315-242.02c0-2.7074 0.66574-4.0832 3.3731-4.749 11.451-2.663 21.57-4.7046 33.687-6.0361 1.3759 0 2.0416 0.66574 2.0416 1.9972zm287.96-263.63c-7.9889 0-15.756 0.84328-23.301 2.3523 7.6338-36.35 11.806-73.986 11.806-112.69 0-22.28-1.9972-44.516-6.0361-65.42-0.71012-2.7074-1.3759-3.7282-2.7074-4.0388l-48.555-12.827-6.7462-27.651c-0.35507-1.3315-0.66575-2.3523-2.0416-2.7074l-49.886-13.492-6.0805-26.275c-0.31068-2.0416-1.3315-3.0624-2.7074-3.3731l-129.64-24.056c-2.086-0.39945-4.3051-0.39945-6.3911 0l-129.64 24.056c-1.3759 0.31068-2.3523 1.3315-2.7074 3.3731l-6.0805 26.275-49.886 13.492c-1.3759 0.35506-1.6866 1.3759-2.0416 2.7074l-6.7462 27.651-48.555 12.827c-1.3315 0.31069-1.9972 1.3315-2.7074 4.0388-4.0388 20.904-6.0361 43.14-6.0361 65.42 0 194.22 101.15 362.79 252.18 463.27 2.0416 1.3759 4.0832 2.7074 5.4147 2.7074s3.3731-1.3315 5.4147-2.7074c67.24-44.738 124.49-103.01 167.46-171.01 20.949 30.713 56.233 50.907 96.222 50.907 64.266 0 116.42-52.106 116.42-116.42 0-64.266-52.15-116.42-116.42-116.42"/></g><g fill="#0072ce"><path d="m348.18 832.89v103.18h47.684c5.6758 0 11.855-0.93179 18.572-2.7344 5.3954-1.4354 10.399-4.3236 14.908-8.4766 4.5567-4.1969 8.1098-9.4127 10.623-15.496 2.6374-6.384 3.7754-14.716 3.7754-25.209 0-6.8199-0.82027-13.327-2.4766-19.492-1.6856-6.2742-4.4419-11.884-8.2558-16.699-3.8606-4.874-8.8072-8.651-14.654-11.229-6.0244-2.6557-13.505-3.8438-22.492-3.8438zm37.23 29.354h3.4863c7.0086 0 11.191 1.669 13.508 4.291 2.1504 2.4334 3.9766 8.513 3.9766 18.205 0 7.3897-0.83799 12.592-1.8945 15.031-1.2207 2.8185-2.6679 4.3813-4.3672 5.2734-1.492 0.78323-5.4746 1.6074-11.352 1.6074h-3.3574z" color="#000000" style="-inkscape-stroke:none"/><path d="m236.85 832.89v103.18h37.23v-38.605h24.488v38.605h37.361v-103.18h-37.361v33.398h-24.488v-33.398z" color="#000000" style="-inkscape-stroke:none"/></g></svg>
