<svg width="178" height="81" version="1.1" viewBox="0 0 178 81" xml:space="preserve" xmlns="http://www.w3.org/2000/svg"><path d="m141.74 0h36.264l-19.736 72h-36.264z" fill="#be0000" stroke-width="5.5763"/><g transform="matrix(5.4791 0 0 -5.4791 -312.68 3030.2)"><g transform="translate(76.544,547.22)"><path d="m0 0h-1.073v1.591h1.01c0.672 0 0.952-0.266 0.952-0.8 0-0.493-0.29-0.791-0.889-0.791m-6.892-2.405h-0.599v3.888h0.545c1.304 0 1.892-0.575 1.892-1.903 0-1.302-0.588-1.985-1.838-1.985m3.851-1.615h1.968v2.515h0.15c0.222 0 0.787 0.013 1.096-0.485l1.208-2.03h2.113l-1.098 1.849c-0.364 0.623-0.664 0.951-0.9 1.124v0.018c0.664 0.235 1.391 0.804 1.391 1.959 0 1.431-1.028 2.168-2.844 2.168h-3.084v-2.471h-0.019c-0.374 1.49-1.63 2.471-3.929 2.471h-4.346l-0.662-2.906c-0.14-0.599-0.259-1.358-0.259-1.358h-0.022s-0.149 0.846-0.287 1.445l-0.567 2.819h-2.389l-0.567-2.819c-0.138-0.599-0.285-1.445-0.285-1.445h-0.024s-0.117 0.759-0.255 1.358l-0.664 2.906h-2.16l1.903-7.118h2.171l1.081 4.565h0.019l1.081-4.565h2.139l1.581 5.91h0.023v-5.91h2.427c2.328 0 3.613 1.068 3.993 2.597h0.017z" fill="#fff"/></g></g><g transform="matrix(.57971 0 0 .57971 458.69 -97.373)" fill="#fff" stroke-width="1px" aria-label="AACHEN"><path d="m-756.73 297.49 1.4-4.2c0.76-2.28 1.2-4.48 1.24-4.64h0.08c0.04 0.16 0.44 2.32 1.24 4.64l1.44 4.2zm-10.96 9.72h7.72l1.24-3.76h9.48l1.28 3.76h8.32l-10.56-26.64h-7.32z"/><path d="m-727.9 297.49 1.4-4.2c0.76-2.28 1.2-4.48 1.24-4.64h0.08c0.04 0.16 0.44 2.32 1.24 4.64l1.44 4.2zm-10.96 9.72h7.72l1.24-3.76h9.48l1.28 3.76h8.32l-10.56-26.64h-7.32z"/><path d="m-696.08 307.69c4 0 7.44-1.72 8.8-2.92l-3.04-5.28c-1.24 0.84-2.76 1.88-5.64 1.88-4.12 0-6.2-3.24-6.2-7.72 0-4.28 2.2-7.28 6.12-7.28 2.36 0 3.8 0.6 5.24 1.44l3.28-5.52c-2.16-1.44-4.88-2.2-8.4-2.2-9.64 0-14.32 6.52-14.32 13.8s4.48 13.8 14.16 13.8z"/><path d="m-684.03 307.21h7.64v-10.6h9.44v10.6h7.6v-26.64h-7.6v9.84h-9.44v-9.84h-7.64z"/><path d="m-653.57 307.21h17v-6.2h-9.48v-4.48h8.12v-5.76h-8.12v-4h9.2v-6.2h-16.72z"/><path d="m-631.46 307.21h6.88v-11.88c0-2-0.12-3.8-0.12-4.04h0.08c0.16 0.28 0.96 1.72 2.92 4.44l8.16 11.48h6.96v-26.64h-6.88v10.72c0 2.12 0.12 4.44 0.16 4.64h-0.08c-0.08-0.16-1.2-2.24-3.08-4.92l-7.28-10.44h-7.72z"/></g></svg>
