<svg width="245.79" height="80.998" version="1.1" viewBox="0 0 245.79 80.998" xml:space="preserve" xmlns="http://www.w3.org/2000/svg"><g transform="matrix(.57971 0 0 .57971 486.05 -97.373)" fill="#1d375e" stroke-width="1px" aria-label="ESSEN"><path d="m-765.21 307.21h17v-6.2h-9.48v-4.48h8.12v-5.76h-8.12v-4h9.2v-6.2h-16.72z"/><path d="m-736.14 307.69c6.52 0 10.24-3.16 10.24-8.52 0-4.72-2.76-6.48-6.28-8.04-2.88-1.28-4.96-1.56-4.96-3.16 0-1.32 0.88-1.8 2.68-1.8 1.88 0 4.04 1 4.96 1.52l2.84-5.28c-1.28-0.92-3.72-2.32-8.4-2.32-5.32 0-9.24 3.12-9.24 7.88 0 4.4 2.04 6.64 5.32 8.28 3.16 1.6 5.8 1.72 5.8 3.4 0 1.24-1.04 1.96-3.28 1.96-2.72 0-4.84-1.4-5.44-1.76l-3 5.28c1.28 0.96 4.24 2.56 8.76 2.56z"/><path d="m-715.2 307.69c6.52 0 10.24-3.16 10.24-8.52 0-4.72-2.76-6.48-6.28-8.04-2.88-1.28-4.96-1.56-4.96-3.16 0-1.32 0.88-1.8 2.68-1.8 1.88 0 4.04 1 4.96 1.52l2.84-5.28c-1.28-0.92-3.72-2.32-8.4-2.32-5.32 0-9.24 3.12-9.24 7.88 0 4.4 2.04 6.64 5.32 8.28 3.16 1.6 5.8 1.72 5.8 3.4 0 1.24-1.04 1.96-3.28 1.96-2.72 0-4.84-1.4-5.44-1.76l-3 5.28c1.28 0.96 4.24 2.56 8.76 2.56z"/><path d="m-700.75 307.21h17v-6.2h-9.48v-4.48h8.12v-5.76h-8.12v-4h9.2v-6.2h-16.72z"/><path d="m-678.64 307.21h6.88v-11.88c0-2-0.12-3.8-0.12-4.04h0.08c0.16 0.28 0.96 1.72 2.92 4.44l8.16 11.48h6.96v-26.64h-6.88v10.72c0 2.12 0.12 4.44 0.16 4.64h-0.08c-0.08-0.16-1.2-2.24-3.08-4.92l-7.28-10.44h-7.72z"/></g><g transform="translate(10.605 145.98)"><path d="m131.13-145.98h36.264l-19.736 72h-36.264z" fill="#be0000" stroke-width="5.5763"/><g transform="matrix(5.4791 0 0 -5.4791 -323.29 2884.2)"><g transform="translate(76.544,547.22)"><path d="m0 0h-1.073v1.591h1.01c0.672 0 0.952-0.266 0.952-0.8 0-0.493-0.29-0.791-0.889-0.791m-6.892-2.405h-0.599v3.888h0.545c1.304 0 1.892-0.575 1.892-1.903 0-1.302-0.588-1.985-1.838-1.985m3.851-1.615h1.968v2.515h0.15c0.222 0 0.787 0.013 1.096-0.485l1.208-2.03h2.113l-1.098 1.849c-0.364 0.623-0.664 0.951-0.9 1.124v0.018c0.664 0.235 1.391 0.804 1.391 1.959 0 1.431-1.028 2.168-2.844 2.168h-3.084v-2.471h-0.019c-0.374 1.49-1.63 2.471-3.929 2.471h-4.346l-0.662-2.906c-0.14-0.599-0.259-1.358-0.259-1.358h-0.022s-0.149 0.846-0.287 1.445l-0.567 2.819h-2.389l-0.567-2.819c-0.138-0.599-0.285-1.445-0.285-1.445h-0.024s-0.117 0.759-0.255 1.358l-0.664 2.906h-2.16l1.903-7.118h2.171l1.081 4.565h0.019l1.081-4.565h2.139l1.581 5.91h0.023v-5.91h2.427c2.328 0 3.613 1.068 3.993 2.597h0.017z" fill="#1d375e"/></g></g><g transform="translate(-43.905 -52.676)" fill="#1d375e"><path d="m210.78-39.349h5.3288v-18.27h21.14v18.27h5.3288v-39h-5.3288v16.279h-21.14v-16.279h-5.3288z"/><path d="m247.3-39.349h9.3694c15.577 0 22.428-8.7252 22.428-19.968s-6.7928-19.032-22.135-19.032h-9.6622zm5.3288-4.3333v-30.333h4.2162c11.36 0 16.689 4.5676 16.689 14.815 0 10.189-5.6216 15.518-16.396 15.518z"/></g></g></svg>
