<svg width="178" height="81" version="1.1" viewBox="0 0 178 81" xml:space="preserve" xmlns="http://www.w3.org/2000/svg"><path d="m141.74 0h36.264l-19.736 72h-36.264z" fill="#be0000" stroke-width="5.5763"/><g transform="matrix(5.4791 0 0 -5.4791 -312.68 3030.2)"><g transform="translate(76.544,547.22)"><path d="m0 0h-1.073v1.591h1.01c0.672 0 0.952-0.266 0.952-0.8 0-0.493-0.29-0.791-0.889-0.791m-6.892-2.405h-0.599v3.888h0.545c1.304 0 1.892-0.575 1.892-1.903 0-1.302-0.588-1.985-1.838-1.985m3.851-1.615h1.968v2.515h0.15c0.222 0 0.787 0.013 1.096-0.485l1.208-2.03h2.113l-1.098 1.849c-0.364 0.623-0.664 0.951-0.9 1.124v0.018c0.664 0.235 1.391 0.804 1.391 1.959 0 1.431-1.028 2.168-2.844 2.168h-3.084v-2.471h-0.019c-0.374 1.49-1.63 2.471-3.929 2.471h-4.346l-0.662-2.906c-0.14-0.599-0.259-1.358-0.259-1.358h-0.022s-0.149 0.846-0.287 1.445l-0.567 2.819h-2.389l-0.567-2.819c-0.138-0.599-0.285-1.445-0.285-1.445h-0.024s-0.117 0.759-0.255 1.358l-0.664 2.906h-2.16l1.903-7.118h2.171l1.081 4.565h0.019l1.081-4.565h2.139l1.581 5.91h0.023v-5.91h2.427c2.328 0 3.613 1.068 3.993 2.597h0.017z" fill="#fff"/></g></g><g transform="matrix(.57971 0 0 .57971 473.64 -97.373)" fill="#fff" stroke-width="1px" aria-label="SIEGEN"><path d="m-758.49 307.69c6.52 0 10.24-3.16 10.24-8.52 0-4.72-2.76-6.48-6.28-8.04-2.88-1.28-4.96-1.56-4.96-3.16 0-1.32 0.88-1.8 2.68-1.8 1.88 0 4.04 1 4.96 1.52l2.84-5.28c-1.28-0.92-3.72-2.32-8.4-2.32-5.32 0-9.24 3.12-9.24 7.88 0 4.4 2.04 6.64 5.32 8.28 3.16 1.6 5.8 1.72 5.8 3.4 0 1.24-1.04 1.96-3.28 1.96-2.72 0-4.84-1.4-5.44-1.76l-3 5.28c1.28 0.96 4.24 2.56 8.76 2.56z"/><path d="m-743.79 307.21h7.68v-26.64h-7.68z"/><path d="m-729.74 307.21h17v-6.2h-9.48v-4.48h8.12v-5.76h-8.12v-4h9.2v-6.2h-16.72z"/><path d="m-694.62 307.69c5.76 0 8.52-1.44 10.36-2.4v-13.6h-11.52v5.76h4.28v3.56c-0.56 0.24-1.68 0.56-3.2 0.56-4.6 0-6.52-3.28-6.52-7.92 0-4.6 2.48-7.28 7.16-7.28 2.72 0 4.64 0.88 5.96 1.72l3.2-5.72c-2-1.36-4.68-2.28-9.04-2.28-9.8 0-15.36 6.52-15.36 13.8s4.96 13.8 14.68 13.8z"/><path d="m-679.35 307.21h17v-6.2h-9.48v-4.48h8.12v-5.76h-8.12v-4h9.2v-6.2h-16.72z"/><path d="m-657.24 307.21h6.88v-11.88c0-2-0.12-3.8-0.12-4.04h0.08c0.16 0.28 0.96 1.72 2.92 4.44l8.16 11.48h6.96v-26.64h-6.88v10.72c0 2.12 0.12 4.44 0.16 4.64h-0.08c-0.08-0.16-1.2-2.24-3.08-4.92l-7.28-10.44h-7.72z"/></g></svg>
