<svg width="800" height="683.96" version="1.1" viewBox="0 0 800 683.96" xmlns="http://www.w3.org/2000/svg">
 <link rel="stylesheet" type="text/css"/>
 <link rel="stylesheet" type="text/css"/>
 <style lang="en" type="text/css"/>
 <style lang="en" type="text/css"/>
 <style lang="en" type="text/css"/>
 <path d="m550.06 342.47v94.31h47.184v-31.385c8.926 21.118 29.939 34.072 57.647 34.072 18.872 0 32.693-5.9981 43.179-15.35 15.934 10.098 35.318 15.35 56.663 15.35 15.488 0 27.862-3.6167 36.338-10.342-34.72 146.1-166.76 254.83-324.35 254.83-153.28 0-282.38-102.86-321.28-242.92l-1.1512-4.2556h32.343v-59.712c0-9.505 6.2343-14.877 13.094-14.877 6.4563 0 11.806 4.7588 12.413 13.243l0.0573 1.6342v59.712h47.184v-59.712c0-9.505 6.2343-14.877 13.094-14.877 6.4563 0 11.806 4.7588 12.413 13.243l0.0573 1.6342v59.712h47.184v-30.735c9.8038 19.58 30.94 33.421 57.647 33.421 36.582 0 62.831-26.075 63.98-56.978l0.0392-2.1143v-0.41249l-0.0302-1.7164-0.0825-1.7055 24.685 61.067h43.235zm159.9 39.672c7.8856 7.6894 20.982 12.058 37.925 16.208 11.432 2.8913 13.511 4.338 13.511 6.6116v0.41249c0 2.6861-2.2873 3.7203-6.8598 3.7203-12.888 0-28.271-4.1328-41.988-12.604l-9.3848 15.627-21.866-17.281c-7.4832 7.6458-14.551 11.571-23.073 11.571-10.185 0-18.084-5.167-21.411-15.082h72.962c0.20851-2.4788 0.20851-5.3722 0.20851-7.851 0-0.44769-0.0171-0.88915-0.0231-1.3327zm-330.18-21.81c9.899 0 17.911 8.0592 18.651 18.464l0.0563 1.5777v0.41249c0 10.742-7.6896 19.628-18.29 19.628-9.899 0-17.911-8.0592-18.651-18.464l-0.0563-1.5777v-0.41249c0-10.744 7.6896-19.628 18.29-19.628zm419.91-21.88c0.20016 4.7152 0.30878 9.4552 0.30677 14.218 0 9.8801-0.43552 19.657-1.2886 29.317-7.1579-9.934-21.297-15.055-40.648-19.795-10.76-2.7212-13.602-4.1628-13.899-6.2185l-0.0302-0.39308v-0.41249c0-2.2736 2.0788-3.5131 6.6513-3.5131 8.879 0 22.058 3.3848 33.548 9.1619l2.6188 1.3752zm-332.97-317.07c177.37 0 322.37 137.73 332.68 311.47-13.419-7.3702-30.823-11.573-48.41-11.573-25.392 0-43.694 10.253-48.317 28.9-8.826-17.356-25.802-28.9-51.734-28.9-24.337 0-43.682 13.067-52.764 32.795l-0.9336 2.1389v-32.248h-88.549l-18.498 56.613-18.292-56.613h-49.47l7.7751 19.234c-11.305-13.279-28.919-21.92-50.016-21.92-27.235 0-48.729 14.461-58.416 34.598-2.3769-21.551-16.766-34.598-38.93-34.598-17.458 0-28.89 7.851-38.452 18.595-6.2364-11.984-18.084-18.595-33.465-18.595-14.724 0-25.739 7.5557-33.046 16.228l-1.2509 1.5406h-4e-3v-15.082h-41.945c14.637-169.52 157.7-302.58 332.04-302.58zm184.43 332.34c7.826 0 13.993 5.4895 15.558 15.095l0.23858 1.8489h-30.763c1.4554-10.332 7.0683-16.944 14.966-16.944zm-228.46-128.36h-27.927v30.084c-4.3056-4.7691-9.9665-9.1713-20.177-9.1713-11.657 0-21.649 7.594-26.136 20.009-4.7414-11.87-15.181-20.009-31.934-20.009-19.504 0-33.602 14.171-34.52 33.121l-0.0473 1.977v0.24462c0 20.788 14.885 34.608 36.907 34.608 13.664 0 22.859-5.3077 29.431-13.069l1.2021-1.4832-15.008-11.864c-4.4286 4.5245-8.6133 6.8479-13.657 6.8479-5.5255 0-9.914-2.5688-12.123-7.518l-0.54767-1.4087h38.156c2.2206 17.128 13.93 28.494 28.525 28.494 9.5317 0 14.668-4.2609 19.011-8.8059l0.91983-0.97686v8.193h27.927v-18.363c5.7651 11.679 18.317 19.953 34.203 19.953 21.429 0 36.869-15.117 37.843-33.161l0.0493-1.8138v-0.24461c0-18.832-15.625-34.731-37.647-34.731-15.237 0-27.442 7.6437-33.575 18.547l-0.87406 1.6593zm-174.95 22.258h-22.268l-8.1191 27.149-6.889-26.904h-26.697l20.3 67.262h23.252l9.2284-28.616 8.9803 28.616h23.371l20.546-67.262h-26.328l-7.135 27.149zm326.18-1.3451c-17.162 0-31.073 13.828-31.073 30.888s13.913 30.888 31.073 30.888 31.071-13.83 31.071-30.888c0-17.06-13.909-30.888-31.071-30.888zm-189.74 22.869c5.9704 0 10.548 4.687 11.132 10.681l0.0634 1.3031v0.24462c0 6.7277-4.7977 11.986-11.195 11.986-5.9704 0-10.548-4.5805-11.132-10.661l-0.0634-1.3248v-0.24462c0-6.7256 4.7977-11.984 11.195-11.984zm72.714 0.2425c5.7408 0 10.41 4.5823 11.007 10.562l0.0644 1.3016v0.24462c0 6.3608-4.5537 11.619-10.828 11.619-5.7428 0-10.412-4.5805-11.007-10.563l-0.0644-1.3023v-0.24462c0-6.3587 4.5537-11.617 10.828-11.617zm-140.26-3.911c4.5422 0 8.1428 3.1258 9.1536 8.608l0.19784 1.4192h-18.209c0.86108-6.1142 4.1826-10.027 8.8572-10.027zm-223.46-265.47c51.462 0 93.18 41.469 93.18 92.625 0 51.155-41.718 92.625-93.18 92.625s-93.18-41.469-93.18-92.625c0-51.155 41.718-92.625 93.18-92.625z" fill="#d01c1f" stroke-width="10.058"/>
</svg>
