<svg width="916.54" height="280.09" version="1.1" viewBox="0 0 916.54 280.09" xml:space="preserve" xmlns="http://www.w3.org/2000/svg"><g transform="matrix(1.3333 0 0 -1.3333 260.8 888.29)"><path d="m-195.6 456.15h687.4v210.07h-687.4z" fill="#04344f"/><g transform="matrix(4.2364 0 0 -4.2364 -139.53 629.36)" fill="#fff" stroke-width=".35278"><path d="m2.675 2.675h6.9246l4.8554 18.609 5.0306-18.581 7.1902-0.02819 5.1641 18.613 4.8553-18.613h6.8679l-7.4716 26.763h-8.0907l-4.9487-16.716-4.9034 16.716h-8.0438z"/><path d="m56.683 2.0968c-3.2161 0.00754-6.445 1.1055-8.8196 3.2453-3.7112 3.4078-4.8576 8.8725-4.0463 13.702 0.5715 3.7818 2.8115 7.3589 6.2017 9.218 3.2808 1.8627 7.2427 2.0533 10.894 1.4288 2.6917-0.46214 5.1966-1.7431 7.2321-3.5564-1.3489-1.5519-2.4576-2.7519-4.0571-4.5434-2.6317 1.9156-6.0974 3.0657-9.2992 1.9188-2.1362-0.76525-3.4679-2.8109-3.8912-4.9558h18.496c0.39511-4.2298-0.28204-8.8587-3.0866-12.21-2.3502-2.8637-5.9788-4.2558-9.6237-4.2473zm0.18094 6.1345c1.3463-0.01159 2.8614 0.28245 3.9307 1.5698 0.80755 0.97224 1.3785 2.1007 1.6105 3.6159h-11.508c0.46214-1.6898 1.1352-3.5052 2.7554-4.4096 0.84005-0.46889 1.8649-0.7646 3.2112-0.77618z"/><path d="m72.839 2.675h6.7651v20.708h11.202v5.9942l-17.967 0.06128z"/><path d="m87.152 2.675h22.066v6.0933h-7.6076v20.67h-6.817v-20.67h-7.6416z"/><path d="m114.12 2.675h2.1538v3.6089h4.0286v-3.6089h2.21v9.3839h-2.21v-3.7359h-4.0286v3.7359h-2.1538z"/><path d="m127.47 2.6492c-0.8115-2.6e-4 -1.8406 0.02585-3.2722 0.02585 0 2.0677 1e-3 6.8912 0 9.3839 4.2986 0 4.9494 0.22197 6.6673-0.63149 3.1322-1.5561 2.9696-6.9619-0.29972-8.3184-0.98616-0.40916-1.7429-0.45948-3.0954-0.45992zm2.3968 2.573c1.1656 0.9112 1.2446 2.9698 0.22944 4.0178-0.86272 0.89067-2.4097 0.73329-3.667 0.73329 2.6e-4 -1.778 0-3.4878 0-5.2658 1.1404-0.00638 2.6368-0.11125 3.4375 0.5147z"/></g></g></svg>
