<svg width="800" height="334.6" version="1.1" viewBox="0 0 800 334.6" xml:space="preserve" xmlns="http://www.w3.org/2000/svg">
<g transform="matrix(1.8067 0 0 1.8067 -62.15 -260.16)" fill="#fff">
	<path class="st0" d="m395.2 165.8c-28.6 0-53.7 14.5-68.3 36.6-11.3-17-28.8-29.5-49.2-34.3l30.1-24.1h-38.3l-131.3 130.6v-49h-21.8l-49.2 49v-49h-32.8v103.5h21.8l49.2-49.1v49.1h21.9l54.1-53.9c11.4 31.3 41.8 53.9 77 53.9 21.4 0 40.8-8.1 55.3-21.4l-23.3-23.1c-8.6 7.3-19.7 11.8-32 11.8-21.2 0-39.6-13.7-46.2-32.6h102.6c7.7 37.2 40.8 65.4 80.4 65.4 45.2 0 82-36.7 82-81.7 0-45.1-36.8-81.7-82-81.7zm-183.1 65.2c6.7-19 25-32.6 46.2-32.6 21.6 0 39.7 13.6 46.5 32.6zm183.1 65.4c-27.2 0-49.2-22-49.2-49s22-49 49.2-49c27.1 0 49.3 22 49.3 49s-22.2 49-49.3 49z"/>
	<path class="st0" d="m373.5 240.4h-10.3v-9.3h26.6l3.5 9.3h-10.3v28.9h-9.5z"/>
	<path class="st0" d="m391.2 231h10.7l7.8 24.1 7.8-24.1h10.5l-14 38.4h-8.8z"/>
	<path class="st0" d="m395.2 165.8c-28.6 0-53.7 14.5-68.3 36.6-11.3-17-28.8-29.5-49.2-34.3l30.1-24.1h-38.3l-131.3 130.6v-49h-21.8l-49.2 49v-49h-32.8v103.5h21.8l49.2-49.1v49.1h21.9l54.1-53.9c11.4 31.3 41.8 53.9 77 53.9 21.4 0 40.8-8.1 55.3-21.4l-23.3-23.1c-8.6 7.3-19.7 11.8-32 11.8-21.2 0-39.6-13.7-46.2-32.6h102.6c7.7 37.2 40.8 65.4 80.4 65.4 45.2 0 82-36.7 82-81.7 0-45.1-36.8-81.7-82-81.7zm-183.1 65.2c6.7-19 25-32.6 46.2-32.6 21.6 0 39.7 13.6 46.5 32.6zm183.1 65.4c-27.2 0-49.2-22-49.2-49s22-49 49.2-49c27.1 0 49.3 22 49.3 49s-22.2 49-49.3 49z"/>
	<path class="st0" d="m373.5 240.4h-10.3v-9.3h26.6l3.5 9.3h-10.3v28.9h-9.5z"/>
	<path class="st0" d="m391.2 231h10.7l7.8 24.1 7.8-24.1h10.5l-14 38.4h-8.8z"/>
</g></svg>
