<svg width="800" height="554.63" version="1.1" viewBox="0 0 800 554.63" xml:space="preserve" xmlns="http://www.w3.org/2000/svg">

<path class="st0" d="m703.58 331.7 29.555-89.057c1.9321-7.0038 3.5019-13.223 3.5019-16.725 0-6.6113-3.1094-8.5434-14.008-8.5434h-13.615v-26.053h90.989l-1e-4 26.053h-7.7887c-15.155 0-16.725 1.5698-27.623 33.057l-41.6 118.58h-52.468l-43.532-118.58c-10.898-31.487-12.438-33.057-29.162-33.057h-46.008v90.596c0 20.589 0 19.049 1.1774 23.728 1.5698 6.6113 6.6113 10.506 14.008 10.506 14.4 0 15.94-5.434 15.94-55.215h27.23c0.78491 13.223 0.78491 19.049 0.78491 25.268 0 41.992-16.332 62.219-50.174 62.219-21.766 0-38.883-8.5434-47.426-23.728-5.4642-10.506-6.2189-14.792-6.2189-42.777v-90.596h-30.702l3.9e-4 -26.053h12.468c15.155 0 16.725-1.5396 27.623-33.057l4.5585-12.981h30.732v46.038h140.11v26.053h-8.9358c-9.3283 0-13.223 2.3245-12.83 8.5434 0.39244 4.2868 1.5396 9.7208 3.8943 16.725z" fill="#2d2e2c" stroke-width="3.0189"/><g transform="translate(727.38 414.57)"><path class="st1" d="m-397.3 40.968h-204.65c-68.981 0-125.43-56.453-125.43-125.46v-204.62c0-69.011 56.453-125.46 125.43-125.46h204.65c68.981 0 125.43 56.453 125.43 125.46v204.65c0 68.981-56.453 125.43-125.43 125.43" fill="#f6a02c" stroke-width="3.0189"/><path d="m-271.87-229.08h-84.003v26.928h10.85c7.649 0 11.266 2.8116 11.266 8.8502 0 3.2142 0 4.4153-3.2271 18.084l-26.928 93.235-28.934-93.235c-4.4219-16.084-4.8244-17.286-4.8244-19.298 0-4.8244 5.2336-7.636 12.857-7.636h12.123v-26.928h-97.56v26.928h11.103c8.8373 0 13.655 3.2142 13.253 10.045-0.40256 4.0258-0.40256 4.0258-4.0193 16.888l-26.94 93.235-28.928-93.235c-4.4284-16.084-4.8179-17.286-4.8179-19.298 0-4.8244 5.214-7.6359 12.87-7.6359h10.655v-26.928h-98.287v26.928h13.279c8.8373 0 13.655 3.2142 13.253 10.045-0.40933 4.0258-0.40933 4.0258-4.0258 16.888l-26.914 93.235-30.162-93.235c-4.8114-14.869-4.8114-14.869-4.8114-18.486 0-5.6361 4.8114-8.4476 14.064-8.4476h8.4931v-26.928h-100.53v26.928h10.045c9.2463 0 16.078 4.0258 19.292 11.662l0.8051 1.974c0.7012 1.7401 1.2792 3.5388 6.8309 20.532l40.2 122.57h53.458l29.726-100.47 32.55 100.47h50.66l29.74-100.47 32.538 100.47h51.848l38.576-122.57c9.6489-29.746 12.473-34.168 23.324-34.168h11.253z" fill="#fff" stroke-width="1.5408"/></g><g transform="matrix(7.1492 0 0 7.1492 -6789.2 -2779.9)" fill="#2d2e2c" stop-color="#000000" stroke-width="25.51" style="shape-inside:url(#rect7691-5-0);white-space:pre" aria-label="WESTERWALD-WIED TV"><path d="m955.62 458.18q0.072 0.276 0.22801 0.84 0.15599 0.564 0.336 1.26 0.19199 0.684 0.39599 1.428 0.21601 0.732 0.38401 1.368 0.17999 0.624 0.29999 1.056t0.144 0.516q0.012-0.084 0.10801-0.432 0.096-0.348 0.22799-0.864 0.144-0.528 0.312-1.176 0.18-0.66 0.372-1.356t0.37201-1.392q0.192-0.696 0.36-1.308l1.236 0.072q-0.18001 0.588-0.46801 1.548t-0.624 2.076q-0.33599 1.116-0.684 2.292-0.336 1.164-0.612 2.172l-1.2 0.036q-0.15599-0.54-0.36-1.224-0.19199-0.684-0.40799-1.416-0.20401-0.732-0.42001-1.464t-0.408-1.356q-0.168 0.624-0.372 1.344-0.192 0.72-0.408 1.452-0.20399 0.732-0.408 1.416-0.192 0.672-0.336 1.212l-1.188 0.036q-0.036-0.132-0.168-0.6-0.13199-0.468-0.324-1.152-0.192-0.684-0.432-1.512-0.22799-0.84-0.46799-1.692-0.22801-0.864-0.456-1.68-0.21601-0.828-0.38401-1.488l1.236-0.072q0.012 0.084 0.096 0.444 0.084 0.348 0.216 0.876 0.132 0.516 0.3 1.176t0.34801 1.356q0.17999 0.696 0.36 1.392 0.192 0.696 0.34799 1.284 0.384-1.308 0.756-2.664 0.384-1.356 0.768-2.724-0.072-0.276-0.144-0.564t-0.10799-0.456z"/><path d="m965.35 466.28h-4.212v-8.124h4.14l-0.12 1.008h-2.832v2.556h2.4l-0.12 1.008h-2.28v2.556h3.156z"/><path d="m970.81 464.11q0 0.504-0.18 0.936-0.168 0.42-0.492 0.732-0.312 0.3-0.768 0.48-0.444 0.168-0.996 0.168-0.66 0-1.248-0.24t-1.092-0.624l0.42-0.96q0.444 0.3 0.948 0.54 0.516 0.228 1.032 0.228t0.852-0.336q0.348-0.336 0.348-0.9 0-0.408-0.264-0.684-0.252-0.276-0.648-0.492-0.384-0.216-0.84-0.42-0.444-0.204-0.84-0.48-0.384-0.288-0.648-0.684-0.252-0.408-0.252-1.02 0-0.504 0.156-0.924 0.168-0.432 0.468-0.744 0.312-0.324 0.756-0.504 0.456-0.18 1.02-0.18 0.54 0 1.104 0.18t0.984 0.468l-0.336 0.972q-0.54-0.264-0.972-0.408t-0.84-0.144q-0.504 0-0.84 0.324t-0.336 0.852q0 0.408 0.252 0.672 0.264 0.264 0.648 0.48 0.396 0.216 0.852 0.42t0.84 0.504q0.396 0.288 0.648 0.72 0.264 0.42 0.264 1.068z"/><path d="m976.71 459.17h-2.1v7.104h-1.176v-7.104h-2.124l0.12-1.02h5.4z"/><path d="m982.02 466.28h-4.212v-8.124h4.14l-0.12 1.008h-2.832v2.556h2.4l-0.12 1.008h-2.28v2.556h3.156z"/><path d="m987.08 466.36q-0.3-0.396-0.684-0.948-0.372-0.564-0.72-1.08t-0.612-0.9q-0.252-0.384-0.288-0.456l-0.42-0.036v3.336h-1.164v-8.124h1.98q1.284 0 1.932 0.612t0.648 1.656q0 0.396-0.108 0.78-0.108 0.372-0.336 0.696-0.228 0.312-0.576 0.552-0.336 0.228-0.804 0.348 0.552 0.828 1.188 1.74 0.636 0.9 1.212 1.692zm-0.492-5.88q0-0.636-0.384-1.008t-0.984-0.372h-0.864v2.964h0.696q0.324 0 0.6-0.108 0.288-0.108 0.492-0.312 0.204-0.216 0.324-0.504 0.12-0.3 0.12-0.66z"/><path d="m993.71 458.18q0.072 0.276 0.228 0.84t0.336 1.26q0.192 0.684 0.396 1.428 0.216 0.732 0.384 1.368 0.18 0.624 0.3 1.056t0.144 0.516q0.012-0.084 0.108-0.432t0.228-0.864q0.144-0.528 0.312-1.176 0.18-0.66 0.372-1.356t0.372-1.392q0.192-0.696 0.36-1.308l1.236 0.072q-0.18 0.588-0.468 1.548t-0.624 2.076-0.684 2.292q-0.336 1.164-0.612 2.172l-1.2 0.036q-0.156-0.54-0.36-1.224-0.192-0.684-0.408-1.416-0.204-0.732-0.42-1.464t-0.408-1.356q-0.168 0.624-0.372 1.344-0.192 0.72-0.408 1.452-0.204 0.732-0.408 1.416-0.192 0.672-0.336 1.212l-1.188 0.036q-0.036-0.132-0.168-0.6t-0.324-1.152-0.432-1.512q-0.228-0.84-0.468-1.692-0.228-0.864-0.456-1.68-0.216-0.828-0.384-1.488l1.236-0.072q0.012 0.084 0.096 0.444 0.084 0.348 0.216 0.876 0.132 0.516 0.3 1.176t0.348 1.356 0.36 1.392q0.192 0.696 0.348 1.284 0.384-1.308 0.756-2.664 0.384-1.356 0.768-2.724-0.072-0.276-0.144-0.564t-0.108-0.456z"/><path d="m1003.7 466.31-0.792-2.184h-3.036l-0.78 2.184-1.224-0.048q0.192-0.516 0.456-1.2t0.552-1.428 0.588-1.5q0.3-0.768 0.564-1.428 0.264-0.672 0.48-1.188 0.216-0.528 0.324-0.804-0.024-0.132-0.072-0.24-0.036-0.12-0.072-0.252l1.092-0.252 3.228 8.292zm-1.128-3.108q-0.156-0.408-0.336-0.888-0.168-0.48-0.336-0.924t-0.312-0.804q-0.132-0.36-0.204-0.54-0.096 0.24-0.252 0.612-0.144 0.372-0.312 0.816-0.156 0.432-0.324 0.888-0.156 0.456-0.3 0.84z"/><path d="m1009.8 466.28h-3.948v-8.124h1.188v7.128h2.892z"/><path d="m1016.8 462.1q0 0.96-0.264 1.74-0.264 0.768-0.768 1.308t-1.236 0.84q-0.732 0.288-1.668 0.288h-1.956v-8.124h1.776q1.164 0 1.956 0.372 0.792 0.36 1.272 0.936t0.684 1.284q0.204 0.696 0.204 1.356zm-1.26 0.06q0-1.512-0.756-2.256t-2.1-0.744h-0.612v6.12h0.864q0.624 0 1.104-0.216 0.48-0.228 0.816-0.636 0.336-0.42 0.504-0.984 0.18-0.576 0.18-1.284z"/><path d="m1017.4 463.66 0.132-1.008h2.664l-0.132 1.008z"/><path d="m1025.4 458.18q0.072 0.276 0.228 0.84t0.336 1.26q0.192 0.684 0.396 1.428 0.216 0.732 0.384 1.368 0.18 0.624 0.3 1.056t0.144 0.516q0.012-0.084 0.108-0.432t0.228-0.864q0.144-0.528 0.312-1.176 0.18-0.66 0.372-1.356t0.372-1.392q0.192-0.696 0.36-1.308l1.236 0.072q-0.18 0.588-0.468 1.548t-0.624 2.076-0.684 2.292q-0.336 1.164-0.612 2.172l-1.2 0.036q-0.156-0.54-0.36-1.224-0.192-0.684-0.408-1.416-0.204-0.732-0.42-1.464t-0.408-1.356q-0.168 0.624-0.372 1.344-0.192 0.72-0.408 1.452-0.204 0.732-0.408 1.416-0.192 0.672-0.336 1.212l-1.188 0.036q-0.036-0.132-0.168-0.6t-0.324-1.152-0.432-1.512q-0.228-0.84-0.468-1.692-0.228-0.864-0.456-1.68-0.216-0.828-0.384-1.488l1.236-0.072q0.012 0.084 0.096 0.444 0.084 0.348 0.216 0.876 0.132 0.516 0.3 1.176t0.348 1.356 0.36 1.392q0.192 0.696 0.348 1.284 0.384-1.308 0.756-2.664 0.384-1.356 0.768-2.724-0.072-0.276-0.144-0.564t-0.108-0.456z"/><path d="m1030.9 466.28v-8.124h1.176v8.124z"/><path d="m1037.8 466.28h-4.212v-8.124h4.14l-0.12 1.008h-2.832v2.556h2.4l-0.12 1.008h-2.28v2.556h3.156z"/><path d="m1044.9 462.1q0 0.96-0.264 1.74-0.264 0.768-0.768 1.308t-1.236 0.84q-0.732 0.288-1.668 0.288h-1.956v-8.124h1.776q1.164 0 1.956 0.372 0.792 0.36 1.272 0.936t0.684 1.284q0.204 0.696 0.204 1.356zm-1.26 0.06q0-1.512-0.756-2.256t-2.1-0.744h-0.612v6.12h0.864q0.624 0 1.104-0.216 0.48-0.228 0.816-0.636 0.336-0.42 0.504-0.984 0.18-0.576 0.18-1.284z"/><path d="m1053.7 459.17h-2.1v7.104h-1.176v-7.104h-2.124l0.12-1.02h5.4z"/><path d="m1060.9 458.19q-0.204 0.552-0.444 1.224t-0.516 1.404q-0.264 0.732-0.54 1.5-0.264 0.768-0.528 1.5-0.264 0.72-0.504 1.38-0.228 0.66-0.42 1.176l-0.936 0.048q-0.192-0.504-0.432-1.152-0.24-0.66-0.516-1.38-0.264-0.732-0.54-1.5-0.276-0.78-0.552-1.524-0.264-0.744-0.504-1.428t-0.42-1.248l1.26-0.072q0.216 0.708 0.492 1.56 0.288 0.84 0.588 1.716 0.312 0.876 0.6 1.704 0.288 0.816 0.516 1.464 0.228-0.708 0.516-1.572 0.3-0.864 0.6-1.74t0.576-1.692q0.276-0.828 0.492-1.44z"/></g></svg>
