<svg width="533.71" height="307.59" version="1.1" xmlns="http://www.w3.org/2000/svg">
 <g transform="translate(-178.86 -401.42)">
  <path d="m646.87 649.37 19.824-59.734c1.3022-4.6948 2.3516-8.8712 2.3516-11.223 0-4.4292-2.0903-5.7315-9.3937-5.7315h-9.1282v-17.477h61.04v17.477h-5.2215c-10.169 0-11.219 1.0409-18.518 22.172l-27.907 79.558h-35.219l-29.214-79.558c-7.3034-21.131-8.3528-22.172-19.571-22.172h-30.844v60.779c0 13.819 0 12.778 0.77965 15.909 1.0452 4.4377 4.4335 7.0421 9.3979 7.0421 9.6466 0 10.688-3.6496 10.688-37.04h18.261c0.52679 8.8669 0.52679 12.782 0.52679 16.954 0 28.177-10.957 41.739-33.656 41.739-14.598 0-26.082-5.7441-31.814-15.913-3.658-7.0463-4.1806-9.9163-4.1806-28.691v-60.779h-20.57v-17.477h8.3739c10.173 0 11.214-1.0452 18.518-22.172l3.0596-8.7152h20.617v30.887h93.983v17.477h-6.0012c-6.2667 0-8.8711 1.5677-8.6141 5.7315 0.26129 2.8784 1.0452 6.528 2.6129 11.223l19.82 59.734z" fill="#9c9e9f"/>
  <path d="m458.06 515.36c0 6.0855-2.5918 9.6044-7.6574 9.6044h-1.8206v-18.825h1.3233c5.289 0 8.1547 2.9121 8.1547 9.2209m5.6008-0.11395c0-8.2137-4.5262-13.241-12.259-13.241h-8.1547v27.022h6.764c9.3179 0 13.65-5.1836 13.65-13.781m-28.177 13.781v-4.2143h-8.8838v-22.766h-5.3353v26.98h14.219zm-29.867-10.439h-6.9241l3.5948-12.019 3.3293 12.019zm8.4286 10.439-8.7068-26.98h-5.8663l-9.006 26.98h5.2173l1.9302-6.3847h9.1198l1.7827 6.3847h5.5292zm-27.402-26.98h-4.7242l-3.8561 20.41-3.9446-20.41h-6.4142l-3.7929 20.41-3.7128-20.41h-5.2173l5.6008 26.98h6.2667l4.0162-21.961 4.0247 21.961h6.3383l5.4154-26.98zm-43.445 7.8007c0 2.0524-1.3907 3.7929-3.9825 3.7929h-2.3895v-7.6153h2.3558c2.5497 0 4.0162 1.3865 4.0162 3.8224m6.5701 19.179-3.1228-9.6255c-0.8555-2.6297-1.7068-3.4052-3.2872-3.7929 3.1692-0.81336 5.2553-3.009 5.2553-6.4142 0-3.7508-1.888-7.1475-8.1168-7.1475h-8.8501v26.98h5.3269v-11.366h0.96929c1.8501 0 2.9416 0.58158 3.6665 2.9753l2.5581 8.3907h5.6008zm-26.849 0v-4.1385h-9.8194v-7.6869h8.8501v-4.1385h-8.8501v-6.9241h9.3221v-4.1342h-14.582v27.022h15.079zm-22.96-22.77v-4.2101h-17.359v4.2101h5.997v22.77h5.369v-22.77h5.9928zm-23.533 14.843c0-3.1734-1.5129-5.3733-4.5641-6.9578l-1.9344-1.003c-3.3588-1.7363-4.012-2.6297-4.012-4.1764 0-1.9681 1.5045-3.283 3.8561-3.283 1.8627 0 3.7929 0.57736 5.0656 1.2769l0.15576-4.2944c-1.7026-0.69536-3.8982-1.0072-5.8368-1.0072-4.9097 0-8.6562 2.6297-8.6562 7.4256 0 3.4768 1.0831 5.6008 5.7188 7.8386 3.8224 1.8627 4.6779 2.8278 4.6779 4.7622 0 1.9302-1.3486 3.5527-4.2522 3.5527-2.0861 0-4.404-0.9693-5.605-1.6604l-0.23601 4.7158c1.4034 0.5015 3.7086 1.121 6.4184 1.121 5.761 0 9.2041-3.2071 9.2041-8.3106m-23.765 7.9271v-4.1385h-9.8194v-7.6869h8.8543v-4.1385h-8.8543v-6.9241h9.3221v-4.1342h-14.582v27.022h15.079zm-22.264-26.98h-4.7158l-3.8603 20.41-3.9488-20.41h-6.4142l-3.7887 20.41-3.7086-20.41h-5.2131l5.6008 26.98h6.2625l4.0205-21.961 4.0205 21.961h6.3341l5.4112-26.98zm-50.538-62.852c0-20.309 16.461-36.77 36.766-36.77h232.07c20.305 0 36.762 16.461 36.762 36.77v116.02h-54.521v17.477h7.0421c4.9645 0 7.3118 1.8248 7.3118 5.7441 0 2.0861 0 2.8657-2.0945 11.737l-17.477 60.513-18.779-60.513c-2.87-10.439-3.1312-11.219-3.1312-12.525 0-3.1312 3.3968-4.956 8.3444-4.956h7.8681v-17.477h-63.32v17.477h7.2065c5.7357 0 8.8627 2.0861 8.6014 6.5196-0.26128 2.6129-0.26128 2.6129-2.6087 10.961l-17.485 60.513-18.775-60.513c-2.8742-10.439-3.127-11.219-3.127-12.525 0-3.1312 3.3841-4.956 8.3528-4.956h6.9157v-17.477h-63.792v17.477h8.6183c5.7357 0 8.8627 2.0861 8.6014 6.5196-0.26567 2.6129-0.26567 2.6129-2.6129 10.961l-17.468 60.513-19.576-60.513c-3.1228-9.6508-3.1228-9.6508-3.1228-11.998 0-3.658 3.1228-5.4828 9.1282-5.4828h5.5123v-17.477h-65.246v17.477h6.5196c6.0012 0 10.435 2.6129 12.521 7.5689l0.52257 1.2812c0.45515 1.1294 0.83022 2.2968 4.4335 13.326l26.091 79.554h34.696l19.293-65.208 21.126 65.208h32.88l19.302-65.208 21.118 65.208h33.651l25.037-79.554c6.2625-19.306 8.0957-22.176 15.138-22.176h7.3034v98.577c0 20.305-16.457 36.753-36.762 36.753h-232.07c-20.305 0-36.766-16.448-36.766-36.753v-232.07z" fill="#fabb00"/>
 </g>
</svg>
