<svg width="558.4" height="172" version="1.1" viewBox="0 0 558.4 172" xml:space="preserve" xmlns="http://www.w3.org/2000/svg"><g transform="matrix(1.3333 0 0 -1.3333 -153.81 172)"><path d="m425.95-1.4648e-5c1.036 0 1.875 0.83948 1.875 1.875 0 1.0355-0.83896 1.875-1.875 1.875s-1.875-0.83948-1.875-1.875c0-1.0355 0.83896-1.875 1.875-1.875" fill="#cc1216"/><g transform="matrix(2.2121 0 0 2.2121 454.34 -1933.3)"><path d="m-93.164 920.05s-8.094 1.048-10.083-4.61c-1.346-3.826-6.961-19.247-6.961-19.247l-0.383-1.363-0.355 1.358-8.323 23.905s-7.772 0.369-10.053-6.189c-2.139-6.15-6.124-17.709-6.124-17.709l-0.349-1.369-0.377 1.36s-6.041 16.184-7.394 20.175c-1.592 4.694-9.671 3.686-9.671 3.686l13.702-38.175s7.278-0.746 9.19 4.77c1.586 4.575 6.734 19.427 6.734 19.427l0.429 1.731 0.418-1.725 8.395-24.203s7.206-0.927 9.199 4.798c1.992 5.725 12.006 33.38 12.006 33.38" fill="#00943d"/><path d="m-38.618 888.49s0.124 19.198 0.124 25.485c0 6.288-7.884 6-7.884 6v-38.017h24.191s0.628 6.532-8.217 6.532z" fill="#00943d"/><path d="m-12.398 887.49c0-6.099-7.822-5.533-7.822-5.533v18.698c0 6.791 7.822 6.403 7.822 6.403z" fill="#00943d"/><path d="m-71.257 903.01s-0.629-6.636 5.342-6.636h4.288c0.825 0 2.568 0.13 2.568 0.13-1.067-5.044-5.82-8.484-13.428-8.484-8.052 0-13.855 6.074-13.855 13.08 0 7.005 5.424 12.705 13.475 12.705 4.036 0 6.261-0.258 10.482-2.687 6.557-3.773 9.764 1.716 9.764 1.716-5.88 7.24-13.317 8.269-20.246 8.269-12.188 0-21.918-8.973-21.918-20.003 0-11.031 9.166-20.004 22.298-20.004 13.425 0 21.886 6.973 21.569 22.092z" fill="#00943d"/><path d="m-11.987 916.59c0-2.381-1.931-4.312-4.313-4.312-2.381 0-4.312 1.931-4.312 4.312 0 2.382 1.931 4.312 4.312 4.312 2.382 0 4.313-1.93 4.313-4.312" fill="#cc1216"/></g><g fill="#65ba81"><path d="m414.99-1.4648e-5c1.036 0 1.875 0.83948 1.875 1.875 0 1.0355-0.83896 1.875-1.875 1.875s-1.875-0.83948-1.875-1.875c0-1.0355 0.83896-1.875 1.875-1.875"/><path d="m420.47-1.4648e-5c1.036 0 1.875 0.83948 1.875 1.875 0 1.0355-0.83896 1.875-1.875 1.875s-1.875-0.83948-1.875-1.875c0-1.0355 0.83896-1.875 1.875-1.875"/><path d="m409.51-1.4648e-5c1.036 0 1.875 0.83948 1.875 1.875 0 1.0355-0.83896 1.875-1.875 1.875s-1.875-0.83948-1.875-1.875c0-1.0355 0.83896-1.875 1.875-1.875"/><path d="m404.04-1.4648e-5c1.036 0 1.875 0.83948 1.875 1.875 0 1.0355-0.83896 1.875-1.875 1.875s-1.875-0.83948-1.875-1.875c0-1.0355 0.83896-1.875 1.875-1.875"/><path d="m398.56-1.4648e-5c1.036 0 1.875 0.83948 1.875 1.875 0 1.0355-0.83896 1.875-1.875 1.875s-1.875-0.83948-1.875-1.875c0-1.0355 0.83896-1.875 1.875-1.875"/><path d="m393.08-1.4648e-5c1.036 0 1.875 0.83948 1.875 1.875 0 1.0355-0.83896 1.875-1.875 1.875s-1.875-0.83948-1.875-1.875c0-1.0355 0.83896-1.875 1.875-1.875"/><path d="m387.61-1.4648e-5c1.036 0 1.875 0.83948 1.875 1.875 0 1.0355-0.83896 1.875-1.875 1.875s-1.875-0.83948-1.875-1.875c0-1.0355 0.83896-1.875 1.875-1.875"/><path d="m382.13-1.4648e-5c1.036 0 1.875 0.83948 1.875 1.875 0 1.0355-0.83896 1.875-1.875 1.875s-1.875-0.83948-1.875-1.875c0-1.0355 0.83896-1.875 1.875-1.875"/><path d="m376.65-1.4648e-5c1.036 0 1.875 0.83948 1.875 1.875 0 1.0355-0.83896 1.875-1.875 1.875s-1.875-0.83948-1.875-1.875c0-1.0355 0.83896-1.875 1.875-1.875"/><path d="m371.17-1.4648e-5c1.036 0 1.875 0.83948 1.875 1.875 0 1.0355-0.83896 1.875-1.875 1.875s-1.875-0.83948-1.875-1.875c0-1.0355 0.83896-1.875 1.875-1.875"/><path d="m365.7-1.4648e-5c1.036 0 1.875 0.83948 1.875 1.875 0 1.0355-0.83896 1.875-1.875 1.875s-1.875-0.83948-1.875-1.875c0-1.0355 0.83896-1.875 1.875-1.875"/><path d="m360.22-1.4648e-5c1.036 0 1.875 0.83948 1.875 1.875 0 1.0355-0.83896 1.875-1.875 1.875s-1.875-0.83948-1.875-1.875c0-1.0355 0.83896-1.875 1.875-1.875"/><path d="m354.74-1.4648e-5c1.036 0 1.875 0.83948 1.875 1.875 0 1.0355-0.83896 1.875-1.875 1.875s-1.875-0.83948-1.875-1.875c0-1.0355 0.83896-1.875 1.875-1.875"/><path d="m349.27-1.4648e-5c1.036 0 1.875 0.83948 1.875 1.875 0 1.0355-0.83896 1.875-1.875 1.875s-1.875-0.83948-1.875-1.875c0-1.0355 0.83896-1.875 1.875-1.875"/><path d="m343.79-1.4648e-5c1.036 0 1.875 0.83948 1.875 1.875 0 1.0355-0.83896 1.875-1.875 1.875s-1.875-0.83948-1.875-1.875c0-1.0355 0.83896-1.875 1.875-1.875"/><path d="m338.31-1.4648e-5c1.036 0 1.875 0.83948 1.875 1.875 0 1.0355-0.83896 1.875-1.875 1.875s-1.875-0.83948-1.875-1.875c0-1.0355 0.83896-1.875 1.875-1.875"/><path d="m332.84-1.4648e-5c1.036 0 1.875 0.83948 1.875 1.875 0 1.0355-0.83896 1.875-1.875 1.875s-1.875-0.83948-1.875-1.875c0-1.0355 0.83896-1.875 1.875-1.875"/><path d="m327.36-1.4648e-5c1.036 0 1.875 0.83948 1.875 1.875 0 1.0355-0.83896 1.875-1.875 1.875s-1.875-0.83948-1.875-1.875c0-1.0355 0.83896-1.875 1.875-1.875"/><path d="m321.88-1.4648e-5c1.036 0 1.875 0.83948 1.875 1.875 0 1.0355-0.83896 1.875-1.875 1.875s-1.875-0.83948-1.875-1.875c0-1.0355 0.83896-1.875 1.875-1.875"/><path d="m316.4-1.4648e-5c1.036 0 1.875 0.83948 1.875 1.875 0 1.0355-0.83896 1.875-1.875 1.875s-1.875-0.83948-1.875-1.875c0-1.0355 0.83896-1.875 1.875-1.875"/><path d="m310.93-1.4648e-5c1.036 0 1.875 0.83948 1.875 1.875 0 1.0355-0.83896 1.875-1.875 1.875s-1.875-0.83948-1.875-1.875c0-1.0355 0.83896-1.875 1.875-1.875"/><path d="m305.45-1.4648e-5c1.036 0 1.875 0.83948 1.875 1.875 0 1.0355-0.83896 1.875-1.875 1.875s-1.875-0.83948-1.875-1.875c0-1.0355 0.83896-1.875 1.875-1.875"/><path d="m299.97-1.4648e-5c1.036 0 1.875 0.83948 1.875 1.875 0 1.0355-0.83896 1.875-1.875 1.875s-1.875-0.83948-1.875-1.875c0-1.0355 0.83896-1.875 1.875-1.875"/><path d="m294.5-1.4648e-5c1.036 0 1.875 0.83948 1.875 1.875 0 1.0355-0.83896 1.875-1.875 1.875s-1.875-0.83948-1.875-1.875c0-1.0355 0.83896-1.875 1.875-1.875"/><path d="m289.02-1.4648e-5c1.036 0 1.875 0.83948 1.875 1.875 0 1.0355-0.83896 1.875-1.875 1.875s-1.875-0.83948-1.875-1.875c0-1.0355 0.83896-1.875 1.875-1.875"/><path d="m283.54-1.4648e-5c1.036 0 1.875 0.83948 1.875 1.875 0 1.0355-0.83896 1.875-1.875 1.875s-1.875-0.83948-1.875-1.875c0-1.0355 0.83896-1.875 1.875-1.875"/><path d="m278.06-1.4648e-5c1.036 0 1.875 0.83948 1.875 1.875 0 1.0355-0.83896 1.875-1.875 1.875s-1.875-0.83948-1.875-1.875c0-1.0355 0.83896-1.875 1.875-1.875"/><path d="m272.59-1.4648e-5c1.036 0 1.875 0.83948 1.875 1.875 0 1.0355-0.83896 1.875-1.875 1.875s-1.875-0.83948-1.875-1.875c0-1.0355 0.83896-1.875 1.875-1.875"/></g><g transform="translate(-147.88)" fill="#65ba81"><path d="m414.99-1.4648e-5c1.036 0 1.875 0.83948 1.875 1.875 0 1.0355-0.83896 1.875-1.875 1.875s-1.875-0.83948-1.875-1.875c0-1.0355 0.83896-1.875 1.875-1.875"/><path d="m409.51-1.4648e-5c1.036 0 1.875 0.83948 1.875 1.875 0 1.0355-0.83896 1.875-1.875 1.875s-1.875-0.83948-1.875-1.875c0-1.0355 0.83896-1.875 1.875-1.875"/><path d="m404.04-1.4648e-5c1.036 0 1.875 0.83948 1.875 1.875 0 1.0355-0.83896 1.875-1.875 1.875s-1.875-0.83948-1.875-1.875c0-1.0355 0.83896-1.875 1.875-1.875"/><path d="m398.56-1.4648e-5c1.036 0 1.875 0.83948 1.875 1.875 0 1.0355-0.83896 1.875-1.875 1.875s-1.875-0.83948-1.875-1.875c0-1.0355 0.83896-1.875 1.875-1.875"/><path d="m393.08-1.4648e-5c1.036 0 1.875 0.83948 1.875 1.875 0 1.0355-0.83896 1.875-1.875 1.875s-1.875-0.83948-1.875-1.875c0-1.0355 0.83896-1.875 1.875-1.875"/><path d="m387.61-1.4648e-5c1.036 0 1.875 0.83948 1.875 1.875 0 1.0355-0.83896 1.875-1.875 1.875s-1.875-0.83948-1.875-1.875c0-1.0355 0.83896-1.875 1.875-1.875"/><path d="m382.13-1.4648e-5c1.036 0 1.875 0.83948 1.875 1.875 0 1.0355-0.83896 1.875-1.875 1.875s-1.875-0.83948-1.875-1.875c0-1.0355 0.83896-1.875 1.875-1.875"/><path d="m376.65-1.4648e-5c1.036 0 1.875 0.83948 1.875 1.875 0 1.0355-0.83896 1.875-1.875 1.875s-1.875-0.83948-1.875-1.875c0-1.0355 0.83896-1.875 1.875-1.875"/><path d="m371.17-1.4648e-5c1.036 0 1.875 0.83948 1.875 1.875 0 1.0355-0.83896 1.875-1.875 1.875s-1.875-0.83948-1.875-1.875c0-1.0355 0.83896-1.875 1.875-1.875"/><path d="m365.7-1.4648e-5c1.036 0 1.875 0.83948 1.875 1.875 0 1.0355-0.83896 1.875-1.875 1.875s-1.875-0.83948-1.875-1.875c0-1.0355 0.83896-1.875 1.875-1.875"/><path d="m360.22-1.4648e-5c1.036 0 1.875 0.83948 1.875 1.875 0 1.0355-0.83896 1.875-1.875 1.875s-1.875-0.83948-1.875-1.875c0-1.0355 0.83896-1.875 1.875-1.875"/><path d="m354.74-1.4648e-5c1.036 0 1.875 0.83948 1.875 1.875 0 1.0355-0.83896 1.875-1.875 1.875s-1.875-0.83948-1.875-1.875c0-1.0355 0.83896-1.875 1.875-1.875"/><path d="m349.27-1.4648e-5c1.036 0 1.875 0.83948 1.875 1.875 0 1.0355-0.83896 1.875-1.875 1.875s-1.875-0.83948-1.875-1.875c0-1.0355 0.83896-1.875 1.875-1.875"/><path d="m343.79-1.4648e-5c1.036 0 1.875 0.83948 1.875 1.875 0 1.0355-0.83896 1.875-1.875 1.875s-1.875-0.83948-1.875-1.875c0-1.0355 0.83896-1.875 1.875-1.875"/><path d="m338.31-1.4648e-5c1.036 0 1.875 0.83948 1.875 1.875 0 1.0355-0.83896 1.875-1.875 1.875s-1.875-0.83948-1.875-1.875c0-1.0355 0.83896-1.875 1.875-1.875"/><path d="m332.84-1.4648e-5c1.036 0 1.875 0.83948 1.875 1.875 0 1.0355-0.83896 1.875-1.875 1.875s-1.875-0.83948-1.875-1.875c0-1.0355 0.83896-1.875 1.875-1.875"/><path d="m327.36-1.4648e-5c1.036 0 1.875 0.83948 1.875 1.875 0 1.0355-0.83896 1.875-1.875 1.875s-1.875-0.83948-1.875-1.875c0-1.0355 0.83896-1.875 1.875-1.875"/><path d="m321.88-1.4648e-5c1.036 0 1.875 0.83948 1.875 1.875 0 1.0355-0.83896 1.875-1.875 1.875s-1.875-0.83948-1.875-1.875c0-1.0355 0.83896-1.875 1.875-1.875"/><path d="m316.4-1.4648e-5c1.036 0 1.875 0.83948 1.875 1.875 0 1.0355-0.83896 1.875-1.875 1.875s-1.875-0.83948-1.875-1.875c0-1.0355 0.83896-1.875 1.875-1.875"/><path d="m310.93-1.4648e-5c1.036 0 1.875 0.83948 1.875 1.875 0 1.0355-0.83896 1.875-1.875 1.875s-1.875-0.83948-1.875-1.875c0-1.0355 0.83896-1.875 1.875-1.875"/><path d="m305.45-1.4648e-5c1.036 0 1.875 0.83948 1.875 1.875 0 1.0355-0.83896 1.875-1.875 1.875s-1.875-0.83948-1.875-1.875c0-1.0355 0.83896-1.875 1.875-1.875"/><path d="m299.97-1.4648e-5c1.036 0 1.875 0.83948 1.875 1.875 0 1.0355-0.83896 1.875-1.875 1.875s-1.875-0.83948-1.875-1.875c0-1.0355 0.83896-1.875 1.875-1.875"/><path d="m294.5-1.4648e-5c1.036 0 1.875 0.83948 1.875 1.875 0 1.0355-0.83896 1.875-1.875 1.875s-1.875-0.83948-1.875-1.875c0-1.0355 0.83896-1.875 1.875-1.875"/></g><g transform="translate(195.98 -60.107)"><path transform="matrix(.75 0 0 -.75 0 841.89)" d="m342.41 871.88c-6.0751 0-11 4.9249-11 11v61c0 6.0751 4.9249 11 11 11h96c6.0751 0 11-4.9249 11-11v-61c0-6.0751-4.9249-11-11-11z" fill="#65ba81" style="paint-order:stroke fill markers"/><path d="m256.81 124.61c-5.1643 0-9.375 4.2106-9.375 9.375v45.75c0 5.1643 4.2107 9.375 9.375 9.375h72c5.1644 0 9.375-4.2107 9.375-9.375v-45.75c0-5.1644-4.2106-9.375-9.375-9.375zm0 2.25h72c3.9484 0 7.125 3.1766 7.125 7.125v45.75c0 3.9484-3.1766 7.125-7.125 7.125h-72c-3.9484 0-7.125-3.1766-7.125-7.125v-45.75c0-3.9484 3.1766-7.125 7.125-7.125z" color="#000000" color-rendering="auto" dominant-baseline="auto" fill="#00943d" image-rendering="auto" shape-rendering="auto" solid-color="#000000" style="font-feature-settings:normal;font-variant-alternates:normal;font-variant-caps:normal;font-variant-ligatures:normal;font-variant-numeric:normal;font-variant-position:normal;isolation:auto;mix-blend-mode:normal;paint-order:stroke fill markers;shape-padding:0;text-decoration-color:#000000;text-decoration-line:none;text-decoration-style:solid;text-indent:0;text-orientation:mixed;text-transform:none;white-space:normal"/></g><g transform="matrix(1.3883 0 0 -1.3883 254.63 1194.1)" fill="#fff" stroke-width="1px" aria-label="TV"><path d="m152.05 804.78v-23.789h-8.4961v-4.8438h22.754v4.8438h-8.4766v23.789z"/><path d="m177.36 804.78-10.234-28.633h6.2695l7.2461 21.191 7.0117-21.191h6.1328l-10.254 28.633z"/></g></g></svg>
