<svg width="501.12pt" height="287.05pt" version="1.1" viewBox="0 0 501.12 287.05" xmlns="http://www.w3.org/2000/svg">
 <path d="m192.98 0c12.95 11.58 20.64 28 24.45 44.72 2.44 11.88 3.28 24.49-0.27999 36.23-9.5-8.41-16.02-19.63-20.44-31.41-5.67-15.73-7.94-33.17-3.73-49.54z" fill="#ea494f"/>
 <path d="m284.68 33.73c4.13-12.22 10.2-24.3 19.99-32.97 5.46 19.16 2.23 40-5.62 58.04-4.05 8.55-8.94 17.09-16.3 23.22-4.88-15.73-2.91-32.8 1.93-48.29z" fill="#ea494f"/>
 <path d="m368.3 55.99c9.33-7.26 19.98-13.36 31.74-15.48-5.48 20.09-20.22 36.68-37.41 47.88-7.34 4.42-15.24 8.63-23.87 9.63 4.63-16.89 16.08-31.19 29.54-42.03z" fill="#ea494f"/>
 <path d="m102.21 49.3c17.83 2.18 33.78 12.24 46.6 24.4 7.93 8.28 15.17 17.68 18.69 28.74-16.04-1.95-30.64-10.32-42.65-20.81-9.79-8.88-18.55-19.58-22.64-32.33z" fill="#ea494f"/>
 <path d="m209.45 96.97c30.54-9.24 63.93-8.62 94.04 1.96 32.76 11.15 60.83 32.57 85.25 56.6l-44.27 30.31-12.19-17.91 21.55-14.96c-21.38-17.51-45.89-32.09-73.16-37.93 6.36 5.96 11.73 13.08 14.47 21.44 4.6 13.22 3.2 28.42-3.88 40.52-7.23 12.94-20.73 22.05-35.37 24.16-14.61 2.27-30.14-2.52-40.85-12.73-10.13-9.31-15.91-23.03-15.59-36.77 0.07-12.22 5.26-23.97 13.31-33.03-29.86 9.97-56.62 28.27-78.04 51.2l-0.29464 0.31491-16.555-13.815c5.31-6.57 11.58-12.28 17.89-17.87 21.43-18.58 46.4-33.44 73.69-41.49m33.9 25.44c-16.39 2.52-28.47 20-24.68 36.23 2.91 15.7 19.51 27.18 35.23 24 15.6-2.39 27.43-18.37 25.03-34-1.72-16.69-19.07-29.62-35.58-26.23z" fill="#ea494f"/>
 <path d="m122.55 229.19c4.13-5.67 11.41-8.28 18.25-8.24 7.53 0.06 15.08 2.16 21.49 6.14l-5.48 10.37c-5.03-2.36-10.2-5.92-16.03-4.96-2.51 0.24-5.09 2.41-4.68 5.12 0.23 4.18 4.46 6.33 7.73 8.03 6.28 2.86 13.58 5.4 17.16 11.79 3.75 7.98 1.67 18.41-5.07 24.19-4.66 4.01-11 5.59-17.05 5.41-7.66-0.35-15.18-2.83-21.67-6.88l5.18-11.1c5.66 3.37 12.04 7.85 18.96 6.15 5.52-1.23 6.12-9.76 1.52-12.5-5.87-3.56-12.98-5.07-18.01-10-6.67-5.67-7.54-16.62-2.3-23.52z" fill="#ea494f"/>
 <path d="m0 221.99 17.88 64.6h12.759l12.636-43.611 12.634 43.611h12.76l17.88-64.6h-15.86l-9.5684 42.148-11.401-42.148h-12.891l-11.401 42.148-9.5684-42.148z" fill="#ea494f"/>
 <path d="m93.204 221.96h15.6v64.615h-15.6z" fill="#ea494f"/>
 <path d="m174.19 221.98-3.7398 64.62h14.49l0.82764-35.641 14.432 35.641h12.47l14.432-35.637 0.82911 35.637h14.49l-3.7412-64.62h-13.509l-18.735 48.388-18.735-48.388z" fill="#ea494f"/>
 <path d="m272.05 222-23.55 64.6h15.94l4.7505-15.52h20.909l4.7505 15.52h15.94l-23.55-64.6zm7.5952 16.077 6.7852 21.233h-13.57z" fill="#ea494f"/>
 <path d="m317.21 221.97c11.78 0.56 24.34-2.43 35.42 2.86 8.07 3.73 10.44 14.29 7.5 22.11-1.6 4.43-5.62 7.28-9.47 9.66 5.52 3.74 8.75 9.81 11.41 15.75 2.05 4.73 4.17 9.44 5.99 14.28-5.45 0.02-10.89 0-16.33 0.01l-0.51-0.34c-3.73-7.93-6.39-16.41-11.08-23.86-1.46-2.61-4.44-3.61-7.28-3.48-0.04 9.21 0.06 18.43-0.04 27.64-5.21 0.05-10.41 0.08-15.62-0.04-0.04-21.53-0.05-43.06 0.01-64.59m15.6 9.92c0.09 5.87 0.02 11.74 0.05 17.61 3.07-0.14 6.62 0.49 9.13-1.72 3.69-3.03 3.63-8.89 1.46-12.81-2.33-3.47-6.98-3.16-10.64-3.08z" fill="#ea494f"/>
 <path d="m387.9 221.96h48.045l-1.97 11.42h-14.875v53.165h-15.715v-53.165h-15.485z" fill="#ea494f"/>
 <path d="m439.54 221.98 24.079 64.626h13.421l24.079-64.626h-16.6l-14.19 45.511-14.19-45.511z" fill="#ea494f"/>
 <g transform="translate(-48.141 -134.36)">
  <path d="m292.43 265.67c12.17-2.95 25.32 6.83 25.91 19.35 1.55 12.1-9.18 23.89-21.37 23.47-12.48 0.71-23.28-11.33-21.8-23.6 0.67-9.32 8.04-17.6 17.26-19.22z" fill="#eeaf50"/>
 </g>
</svg>
