<svg width="1801.6" height="1436" version="1.1" viewBox="349.2 147 1801.6 1436" xmlns="http://www.w3.org/2000/svg">
 <path d="m1063.7 533.75c-79.6 93.9-118.1 316.5-77 513 57.9 276.5 242.2 470.1 394.2 475.6-150.5-29.3-298.4-225.4-352.4-485.7-41.2-197.6-32.8-386.5 35.2-502.9zm446 1003.9c129.8-101.9 177.8-360 105.7-632.7-73.1-276.4-251.8-482.1-410.2-495.3 172.2-20.3 377 188.3 454.9 484.3 76.1 289.9-7.8 563.7-150.4 643.7z"/>
 <path d="m519 1170.3c129.3 75.1 500.8 85.9 813.1 11.9 196.2-46.5 471.4-174.7 533.2-236 32.3-19.9 23.2-43.4-5.9-66.7-43.5 51.2-356 231.7-598.8 279.7-333.6 65.9-608.2 77.7-741.6 11.1z" fill="#f4cf53"/>
 <path d="m699.3 1351.4c105.8 71.8 474.9 78.7 727.7 12.9 185.4-48.2 398.7-155.1 432.8-217 19.8-17.6 14.1-31.2-9.8-35-33.3 47.7-252.6 178.8-434.1 225.4-263.3 67.7-607.7 77.4-716.6 13.7z" fill="#2f9c5c"/>
 <path d="m349.2 923.85c133.1 102.6 473.3 137.3 793.4 76.6 319.8-60.6 586.2-162 685-292.8-8.2-7-31.8-26.5-37.5-35.9-105.1 123.5-344.2 234.2-661.3 293.4-333.3 62.2-642.4 51.3-779.6-41.3z" fill="#1a3b73"/>
 <path d="m393.7 749.75c123 78.8 474.7 92.8 769.7 18.8 185.3-46.5 445.4-173.8 503.4-236.8 6-10.7 3.7-26.1-34.1-33.6-40.8 52.5-307.7 198.3-537.2 245.9-315.3 65.5-575.1 75.6-701.8 5.7z" fill="#a5333a"/>
 <path d="m1601.8 502.75s143 78.7 229.2 294.1c0 0 80.7 224.7-11 412l56.8-3.8 34.8-273.4-36.7-170.4-93.5-148-55-58.1-86.2-76.8z"/>
 <path d="m919.7 563.25 7.3-10s185.8-204.8 479.2-167.3c0 0 499.4 47.1 520.8 584.4 0 0 29.3 372.1-332.6 556.9 0 0-239 130.2-522.6-7.2 0 0 247 122.4 512.9-32.2 0 0 339.2-196 266.5-612.4 0 0-68.4-374.3-449.9-451.7 0 0-287.8-43.6-481.6 139.5z"/>
 <g stroke="#000" stroke-miterlimit="2.613" stroke-width=".247">
  <path d="m582.4 581.95 3.4 2c-4.3 7.2-4.3 10.6-2.7 11.5 1.3 0.8 5.8 1.6 9.8 2.2l64.4 11.4 0.2-0.3-26.7-33.2-27.3-4.4c-7.4-1.3-8.3-0.6-13.6 5.9l-3.4-2.1 23.8-39.7 3.4 2.1c-5.5 9.7-3.9 11.9-1.8 13.1 1.3 0.8 2.4 0.9 6.1 1.6l65.8 12.1 0.2-0.2-42.8-50.5c-1.3-1.5-2.8-2.8-4.5-3.8-3.1-1.8-7 1.1-10.6 7l-3.4-2 14.2-23.7 3.4 2c-2.1 6.1-0.4 9.9 3.5 14.7l64.9 77.6-2.1 3.5-67.7-11.5 42.9 53.2-2 3.3-102.3-16.8c-5.5-1-9.7-2.6-13.1 2.8l-3.4-2zm117.9-54.3c-18.8-14.7-24.9-27.7-16-39.2 8.9-11.4 23-8.8 41.8 5.9 18.9 14.7 24.9 27.8 16 39.1-8.8 11.5-22.9 8.9-41.8-5.8zm-12.9 16.6c21.2 16.5 44.8 7.9 57.6-8.5 12.7-16.4 15.3-41.4-5.9-57.9s-44.8-7.8-57.6 8.5-15.3 41.4 5.9 57.9zm48.4-112.1 3-3.1c11.1-11.5 20.4-7.8 25.3-3.1 8.4 8.2 5.6 17-0.8 23.6l-4.7 4.9zm31.2 57.1c3.9 3.8 3.1 5.5-2.4 11.3l2.9 2.8 27-27.8-2.9-2.8c-5.5 5.7-7.2 6.6-11.2 2.7l-19.2-18.6c5.7-5.8 8.4-7.2 12.6-6l35.5 9.3 18.5-19.1-2.8-2.8c-3.1 3.2-5 4.5-13.5 2.8l-23-4.5c-5.7-1.1-9-0.3-11.9 2.5l-0.2-0.2c8.1-9.5 8.8-19.3 2-25.9-6.9-6.7-21.3-8.5-38.7 9.4l-27 27.8 2.9 2.8c5.5-5.7 7.3-6.6 11.2-2.8zm27.4-105.8c-3.5-4.2-5.3-3.6-11.5 1.5l-2.5-3.1 30-24.6 2.6 3.1c-6.2 5.1-7.2 6.7-3.7 10.9l36.1 43.9c2.5 3 4.7 3.1 11.3-2.4 14.3-11.8 17.8-18.3 16.3-37l2.8-2.3 9.6 20.9-56.5 46.4-2.6-3.1c6.2-5.1 7.2-6.7 3.7-10.9zm85.2-64.6c-2.4-3.7-2.5-6.1 4.7-10.8 13.8-8.9 31.3-8.8 45.5 13.3 7.8 12.1 10.7 31.8-7.7 43.6-8.6 5.5-10.2 4.2-11.5 2.1zm13.8 57.3c3 4.6 1.8 6.1-4.9 10.4l2.1 3.4 38.9-24.9c22.5-14.5 27.7-39.8 17.1-56.3-12.8-20-38.6-20.5-60.9-6.3l-36.3 23.3 2.2 3.4c6.7-4.3 8.5-4.8 11.5-0.2zm201.1-144.7 1.5 3.7c-6 2.4-6.8 4.8-4.9 9.6l10.3 26c-6.6 15.7-29.6 25.5-44.1 31.2-28.2 11.2-62.6-2.1-74-31.1-11.5-29 4.6-62.1 32.8-73.3 11.6-4.6 20.3-5.5 27.1-5.4 6.1 0 11.9 0.3 15.8-1.3 1.8-0.7 1.8-3.3 1.8-7.9l3.8-1.5 13 33-3.3 1.3c-17.7-15-34.8-23.1-51.1-16.7-29.9 11.9-28.7 37.4-18.2 63.2 8.7 22 26.4 45.6 50.9 35.9 23.5-9.3 27.4-16.7 18.4-39.3-4.8-12.2-6.5-12.4-19.4-7.5l-1.5-3.7zm29.3 5.8c-5.7-23.2-2.3-37.2 11.7-40.6s23.5 7.4 29.2 30.6 2.3 37.2-11.7 40.6c-14.1 3.4-23.6-7.5-29.2-30.6zm-20.5 5c6.4 26.1 30.4 34 50.5 29 20.2-5 37.7-23 31.3-49.1s-30.4-34-50.5-29c-20.2 4.9-37.7 23-31.3 49.1zm89.9-49.4c-0.8-5.4-2.6-5.8-10.5-4.7l-0.5-4 38.4-5.3 0.5 4c-7.9 1.1-9.6 1.9-8.8 7.4l7.8 56.3c0.5 3.8 2.4 5.1 10.9 3.9 18.3-2.5 24.8-6.2 33.3-23l3.6-0.5-2.8 22.9-72.4 10-0.5-4c7.9-1.1 9.6-1.9 8.8-7.4zm141.1-2.6 0.8 34-3.1 0.1c-3-11.1-10.3-14.3-20.2-14l-8.9 0.2 0.7 27.5c0.2 5.5 2 6 14 5.7l0.1 4-46 1.2-0.1-4c11.1-0.3 12.9-0.9 12.8-6.4l-1.4-56.1c-0.2-5.5-1.9-6-13.1-5.8l-0.1-4 73-1.8 7.6 19.4-3.2 0.1c-12.4-12.9-20.7-15-35.6-14.7-7.7 0.2-9.6 1.7-9.5 6.3l0.7 24.6 9.8-0.3c11.6-0.3 16.5-6.3 18.5-15.9zm179.9 4.1-4.8-0.8c-4.8-18.4-18.1-37.3-38.3-40.7-31.8-4.9-43.7 17.5-47.8 45.1-3.7 23.3-0.5 52.7 25.5 56.8 31.1 4.9 50.8-17.6 55.8-26.4l3.4 0.5-6.1 38.4-2.4-0.4c-1.9-4.2-4-8.6-7.5-9.2-1.8-0.3-8.6 1.2-15.1 1.9-5.9 0.7-15.9 1.1-28.8-1-30-4.8-52.8-33.7-47.9-64.4 4.9-30.8 35.6-51.2 65.6-46.3 14.1 2.2 20.8 5.1 25.9 7.6 5.2 2.6 8.8 5 16.5 6.2 4.9 0.8 6.3-1.9 8-4.3l3.7 0.6zm71.2 57.7-37.6-11.8-8.2 26.2c-1.6 5.2-0.1 6.3 7.4 8.7l-1.2 3.8-37-11.7 1.2-3.8c7.6 2.4 9.5 2.4 11.1-2.8l16.9-53.5c1.6-5.2 0.1-6.3-7.5-8.7l1.2-3.8 37 11.7-1.2 3.8c-7.6-2.4-9.5-2.4-11.1 2.9l-7 22.2 37.6 11.8 7-22.2c1.6-5.2 0.1-6.3-7.5-8.7l1.2-3.8 37 11.7-1.2 3.8c-7.6-2.4-9.5-2.4-11.2 2.9l-16.9 53.5c-1.6 5.2-0.2 6.3 7.5 8.7l-1.2 3.8-37-11.7 1.2-3.8c7.6 2.4 9.5 2.4 11.2-2.9z"/>
  <path d="m1656.4 295.55-28.5-13 27.2-22.8zm-38.7-10.8c-8.8 7.4-13 9.3-19.7 6.2l-1.6 3.6 25.4 11.6 1.7-3.6c-6.8-3.1-8.7-6.3-7.5-9 0.8-1.6 2.8-4 8.5-7.7l32 14.6c1.4 8.6 0.6 12.5 0.1 13.6-1 2.3-3.5 2-10.9-1.4l-1.7 3.7 38.2 17.3 1.6-3.6c-6.2-2.8-7.3-5-7.8-12.7l-4-70c-0.3-2.7-0.5-3.6-1-3.9-1-0.5-5.8 4-17 5.8 1 1.1 1.3 2.9 0.8 4.1-0.4 0.8-0.8 1.4-2.6 2.9z"/>
  <path d="m1718.6 281.75c4-6.6 3.5-8.3-4.3-13.1l2.1-3.4 26.1 16-7.3 55.4 46.1-31.7 25.1 15.4-2.1 3.4c-6.8-4.1-8.6-4.6-11.5 0.1l-29.3 47.8c-2.9 4.7-1.6 6.1 5.2 10.3l-2.1 3.4-33.1-20.3 2.1-3.4c6.8 4.2 8.6 4.6 11.5-0.1l28.9-47.1-0.3-0.2-58.9 40.5-1.8-1.1 9.5-70.8-0.3-0.2-26.3 42.9c-4.7 7.7-3.3 10.9 4.3 15.5l-2.1 3.4-23.8-14.6 2.1-3.4c6.5 4 10 4.4 18-8.7zm117.8 72.8c1.9-2.3 4.2-2.8 7.5 0 11.6 9.3 10.6 17.6 5 24.5-7.3 9-14.7 8.5-24.9 0.4l-4.7-3.8zm-50.9 32.8c-3.5 4.3-5.2 3.6-12.2-1.9l-2.5 3.1 31.6 25.4 2.5-3.1c-6.9-5.6-8-7.2-4.5-11.4l16.4-20.5 10.8 8.6c17 13.7 28.7 13.1 35.6 4.4 6.8-8.5 4.9-23.1-12.3-36.9l-32.5-26-2.5 3.1c6.9 5.5 8 7.2 4.5 11.4zm92.7 5.6c3.7-4 2.8-5.7-3-11.1l2.7-3 28.4 26.4-2.7 2.9c-5.8-5.4-7.6-6.2-11.3-2.2l-38.2 41c-3.7 4-2.8 5.7 3 11.1l-2.7 3-28.4-26.4 2.7-2.9c5.8 5.4 7.5 6.2 11.3 2.2zm19 57.2c17.7-16.1 31.6-19.8 41.3-9.1s4.7 24.2-12.9 40.3c-17.7 16.1-31.6 19.8-41.3 9.1-9.8-10.7-4.8-24.2 12.9-40.3zm-14.2-15.5c-19.9 18.1-15.4 42.9-1.4 58.2s38.2 22.2 58.1 4c19.9-18.1 15.4-42.9 1.4-58.2s-38.2-22.1-58.1-4zm121.3 110.8c7.3-5.3 5.4-10.3 1.2-16.1l3.3-2.3 16.3 22.7-3.2 2.4c-3-4.2-6.8-7.7-14.5-2.2l-51.8 37.3-2.7-3.7 19.4-88.3-40.8 29.4c-7.3 5.3-7.3 8.7-2 16l-3.3 2.3-16.3-22.7 3.2-2.3c4.5 6.2 7.5 7.9 19.9-1l34.6-24.9c6.3-4.5 6.4-6.3 1.1-13.7l3.2-2.4 17.7 24.5-15.1 66.4zm29.1 69.5c9.5-10.5 13.4-22.8 7.2-33.7-3.3-5.8-9.3-9.1-14.8-5.9-14.6 8.3 13.2 46.1-13.1 61.3-12.9 7.4-27.1 2.3-36.1-13.4-6.6-11.5-6-18.6-7.5-21-1.5-2.6-3.5-3.5-6.7-3.6l-1-1.8 24.2-13.9 1.3 2.3c-11.6 12-13.1 25.2-7.1 35.6 5.3 9.3 12.4 10.2 17.4 7.3 4.6-2.6 8.7-9.8 4.6-28.1-3.1-13.7 0.2-26.6 9.9-32.2 12.4-7.1 25.5-0.6 32.6 11.8 5.6 9.7 4.9 16.6 6.3 19.1 1 1.7 3.7 2.9 6.2 2.8l1.3 2.4-23.4 13.4zm22.9 80.9-15.8-36.1-25.1 11.1c-5 2.2-4.9 4.1-1.6 11.4l-3.7 1.6-15.6-35.5 3.7-1.6c3.2 7.3 4.5 8.7 9.5 6.5l51.4-22.5c5-2.2 4.8-4.1 1.6-11.4l3.7-1.6 15.6 35.5-3.7 1.6c-3.2-7.3-4.5-8.7-9.5-6.5l-21.3 9.4 15.9 36.1 21.3-9.4c5-2.2 4.8-4.1 1.6-11.4l3.6-1.6 15.6 35.5-3.7 1.6c-3.2-7.3-4.5-8.7-9.5-6.5l-51.3 22.5c-5 2.2-4.8 4.1-1.6 11.4l-3.7 1.6-15.6-35.5 3.7-1.6c3.2 7.3 4.5 8.7 9.5 6.5zm45.2 35.7c5.2-1.7 5.2-3.6 2.7-11.2l3.8-1.2 12.1 36.9-3.9 1.2c-2.5-7.6-3.6-9.1-8.8-7.4l-53.3 17.4c-5.2 1.7-5.2 3.6-2.8 11.2l-3.8 1.2-12-36.9 3.8-1.2c2.5 7.6 3.6 9.1 8.8 7.4zm20.2 67.4c2.9-0.7 5 0.4 6 4.6 3.4 14.5-2.5 20.4-11.2 22.5-11.3 2.7-16.9-2.3-19.9-14.9l-1.4-5.9zm-60.3-5.4c-5.4 1.3-6.4-0.4-8.4-9l-3.9 0.9 9.4 39.5 3.9-0.9c-2.1-8.6-1.9-10.5 3.4-11.8l25.6-6.1 3.2 13.5c5 21.2 14.6 27.9 25.4 25.4 10.5-2.5 18-15.3 12.9-36.6l-9.6-40.5-3.9 0.9c2 8.6 1.9 10.5-3.5 11.8zm62.2 108.9c12.7-6.2 20.9-16.2 19.1-28.7-0.9-6.6-5.3-11.9-11.6-10.9-16.6 2.4-4.7 47.8-34.8 52.1-14.7 2.1-26-7.8-28.6-25.8-1.9-13.1 1.3-19.5 0.9-22.3-0.4-3-2-4.6-4.9-5.8l-0.3-2.1 27.6-3.9 0.4 2.7c-15.2 6.9-21.5 18.6-19.8 30.5 1.5 10.6 7.7 14.1 13.4 13.2 5.3-0.8 11.8-5.9 14.7-24.4 2.2-13.8 10-24.7 21.1-26.2 14.1-2 23.9 8.9 25.9 23 1.6 11-1.6 17.2-1.2 20.1 0.3 2 2.4 4.1 4.8 4.9l0.4 2.7-26.7 3.8z"/>
 </g>
</svg>
