<svg width="829.98pt" height="242.12pt" version="1.1" viewBox="0 0 829.98 242.12" xmlns="http://www.w3.org/2000/svg">
 <path d="m708.74 0a121.23 121.06 0 0 0-121.23 121.06 121.23 121.06 0 0 0 121.23 121.06 121.23 121.06 0 0 0 121.23-121.06 121.23 121.06 0 0 0-121.23-121.06zm-49.472 43.988h79.099v158.01h-56.55l-0.01027-121.17h-31.409z" fill="#019de0" style="paint-order:stroke fill markers"/>
 <g fill="#130818">
  <path d="m108.37 93.013 46.405-73.95 46.405 73.95 40.1-73.95h71.51l-102.12 204.45-55.765-92.92-55.765 92.92-99.14-204.45h71.45z"/>
  <path d="m331.26 19.063 225.93 2.51e-4v65.2h-72.628v139.03h-80.675v-139.03h-72.628z"/>
 </g>
</svg>
