<svg enable-background="new 0 0 285 150" version="1.1" viewBox="0 0 106.4 144.2" xml:space="preserve" xmlns="http://www.w3.org/2000/svg">
<g transform="translate(-89.35)"><path d="m157.1 43.2v-15.4h-16.7c-6.9 0-12.5 5.6-12.5 12.5v15.5h16.7c6.9-0.1 12.5-5.7 12.5-12.6" fill="#222d56"/><path d="m175.6 0h-66.1c-8.2 0-14.9 7.2-14.9 16v51.4c0 8.9 6.7 16.1 14.9 16.1h66.1c8.2 0 14.9-7.2 14.9-16.1v-51.4c0-8.8-6.7-16-14.9-16m9.7 65.8c0 6.9-5.6 12.5-12.5 12.5h-32.4c-6.9 0-12.5-5.6-12.5-12.5v-10.1h-15.7c-6.9 0-12.5-5.6-12.5-12.5v-25.5c0-6.9 5.6-12.5 12.5-12.5h32.4c6.9 0 12.5 5.6 12.5 12.5v10.1h15.7c7 0 12.5 5.6 12.5 12.5z" fill="#32a2dc"/></g><g transform="translate(-178.6)" fill="#fff"><path d="m223 131.6c0 7-5.2 12.6-12.8 12.6-3.9 0-7.3-1.7-9.4-4.5-2.2 2.8-5.5 4.5-9.4 4.5-7.5 0-12.8-5.6-12.8-12.6v-23.1h6.6v23.2c0 3.3 2.4 6 6.1 6s6-2.7 6-6v-23.2h6.8v23.2c0 3.3 2.3 6 6 6s6.1-2.7 6.1-6v-23.2h6.8z"/><polygon points="252.4 114.7 243 114.7 243 143.6 236.3 143.6 236.3 114.7 226.9 114.7 226.9 108.4 252.4 108.4"/><polygon points="273.5 143.6 266.3 143.6 254.7 108.4 261.8 108.4 269.9 135.5 278 108.4 285 108.4"/></g>
</svg>
