<svg width="1315" height="1200.2" version="1.1" viewBox="0 0 1315 1200.2" xml:space="preserve" xmlns="http://www.w3.org/2000/svg"><path d="m0 1134.4c112.03-108.55 380-195.62 661.94-232.07 52.342-6.7662 104.5-11.972 155.49-15.875 1.8962-0.14625 17.322-0.81625 17.322-0.81625l23.392 53.961 28.441-57.415s21.83-1.4338 22.589-1.47c143.86-7.0275 272.55-4.2125 361.36 2.1188-22.925 49.512-73.35 157.03-73.35 157.03-83.4-27.338-342.4-57.313-593.4-36.713-305.6 25.075-572.5 119.38-603.75 131.25" fill="#ee2624" stroke-width=".125"/><g transform="translate(0 -.056274)" fill="#231f20" stroke-width=".125"><path d="m858.62 933.22-190.36-467.34-190.35 467.34-456.38-933.18 176.88 491.86 273.79 708.34 196.06-444.01 196.08 444.01 273.79-708.34 176.88-491.88-456.38 933.19"/><path d="m1219.5 1.425-352.49 463.11-198.09-450.36-198.08 450.36-352.49-463.11 355.12 700.69 195.44-501.6 195.45 501.6 355.12-700.69"/></g></svg>
