<svg width="200mm" height="45.614mm" version="1.1" viewBox="0 0 200 45.614" xmlns="http://www.w3.org/2000/svg">
 <g transform="translate(235.32 -82.858)">
  <path d="m-143.44 82.858v8.0139h31.021c0.52675 0 1.03 0.07987 1.5097 0.23505 0.47971 0.15992 0.87009 0.4183 1.1664 0.77101 0.2963 0.35274 0.44202 0.82323 0.44202 1.4158 0 0.81361-0.29599 1.4436-0.90739 1.9045-0.60669 0.45619-1.2274 0.68248-1.8482 0.68248h-31.111v21.379h9.9752v-13.121h12.834l23.261 24.334h12.266l-22.405-24.334c0.19285-0.0611 0.85089-0.15484 1.9655-0.28652 1.1146-0.1317 2.0978-0.3578 2.9584-0.6729 0.85597-0.31981 1.5941-0.89817 2.2101-1.74 0.6208-0.84182 0.92653-2.0224 0.92653-3.5368v-8.5923c0-1.7731-0.62508-3.2916-1.8949-4.5615-1.2651-1.2604-2.7751-1.8907-4.5387-1.8907zm63.627 0-14.104 0.04665 0.0093 31.054 9.6833 10.426 0.01435-33.325 14.984 26.417h9.364l14.603-26.408 0.0046 26.408h9.8813l0.05139-34.586-14.988-0.02389-14.505 24.916-14.998-24.926zm-102.31 0.0049-7.167 8.0139h17.509v26.553h9.6415v-26.553h15.388v-8.0139zm-51.277 0.79913 14.316 16.484-16.23 16.348h13.333l11.828-12.313 11.87 12.266h13.103l-16.094-16.164 14.852-16.606 9e-3 -0.0144h-12.191l-11.785 12.397-11.504-12.397z" fill="#ff3703" fill-rule="evenodd"/>
 </g>
</svg>
