<svg version="1.1" viewBox="0 0 519 220" xmlns="http://www.w3.org/2000/svg">
 <g transform="translate(-84.085 -577.82)" fill="#ee3053" fill-rule="evenodd">
  <path d="m402.04 688.78 50.571-64.18v129.15l-50.571-64.968zm-148.27 0 34.621 48.517 35.242-48.517-35.242-47.108-34.621 47.108zm-153.45 93.262 68.908-93.262-68.454-95.148h84.404l27.506 37.152 27.195-37.152h98.777l27.983 37.295 27.339-37.295h120.6v140.82h72.704v47.586h-198.06l-22.587-31.469-24.044 31.469h-106.82l-23.089-31.302-23.232 31.302h-89.131"/>
  <path d="m304.06 688.92-15.544-20.773-15.281 20.773 15.281 21.393 15.544-21.393zm132.78-18.839-14.78 18.767 14.78 18.982v-37.749zm166.2 59.859 0.0478 56.54c0 6.2318-5.1096 11.317-11.341 11.317h-197.46c-11.27 0-14.183-2.316-15.472-4.1306l-12.105-16.427-12.225 16.403c-1.2893 1.8385-4.1784 4.1545-15.472 4.1545h-98.73c-11.27 0-14.254-2.316-15.52-4.1306l-12.129-16.427-12.225 16.403c-1.2655 1.8385-4.2978 4.1545-15.568 4.1545l-67.833 0.0239h-18.218c-8.2852 0-20.677-11.7-11.413-24.808l62.318-84.356-60.312-83.998c-11.509-16.093 0.97894-26.813 10.052-26.813h81.491c11.294 0 14.302 2.3399 15.591 4.1545l16.308 21.943 16.26-21.966c1.2893-1.8385 4.2739-4.1545 15.544-4.1545l-1.5042 0.0478 91.614-0.0239c11.294 0 14.302 2.3399 15.591 4.1545l16.308 21.943 16.284-21.966c1.2655-1.8385 4.25-4.1545 15.52-4.1545l-1.5042 0.0478h121.99l0.14326-0.0478c6.2079 0 11.27 5.038 11.27 11.246v129.63h61.339c6.3273-0.0239 11.365 5.0141 11.365 11.246zm-158.68-0.26264-31.827-40.877 31.827-40.375v81.252zm-155.91-6.5183-24.473-34.311 24.473-33.308 24.951 33.308-24.951 34.311zm307.1 61.076c0 3.3188-2.698 6.0169-6.0169 6.0169l-194.43 0.0477h-0.83568c-8.2613 0-10.339-2.316-11.628-4.1545l-15.902-21.537-15.997 21.537c-1.2893 1.8385-4.25 4.1545-12.511 4.1545h-98.037c-8.2613 0-10.339-2.316-11.604-4.1545l-15.926-21.537-15.997 21.537c-1.2655 1.8385-3.295 4.1545-11.556 4.1545l-67.595 0.0239h-18.457c-5.8975 0-9.4551-7.354-5.5394-13.013l1.6475-2.2922 63.846-86.314-64.849-90.349c-3.9158-5.6349-0.35815-12.989 5.5394-12.989h82.947c8.2613 0 8.8343 2.2922 10.124 4.1306l20.056 27.076 20.08-27.1c1.2893-1.8385 1.8624-4.1545 10.124-4.1545l2.3399 0.0239 91.089 0.0239c8.2613 0 8.8343 2.2922 10.124 4.1306l20.08 27.076 20.08-27.1c1.2655-1.8385 1.2655-4.1068 9.5267-4.1068h120.55c3.3188 0 6.0169 2.7219 6.0169 6.0408v134.78h66.472l0.23876 0.0239c3.3188 0 5.993 2.698 5.993 6.0169v52.003"/>
 </g>
</svg>
