<svg width="629" height="800" enable-background="new 0 0 63 80" version="1.1" viewBox="0 0 629 800" xml:space="preserve" xmlns="http://www.w3.org/2000/svg">
<path d="m0 628.99h629v-628.99h-629z" fill="#0a69b1" stroke-width="10.001"/><path d="m339.28 222.58-145.9 182.2 145.9-0.12001v57.556l-231.61 0.20002v-51.355l149.88-187.48-149.81 0.13001-0.06-57.136 231.61-0.20002v56.206zm118.14 239.54-0.21001-239.55-56.286 0.05-0.06-56.286 119.78-0.11001 0.26 295.85z" fill="#fff" stroke-width="10.001"/>









<g transform="translate(0 720.02)" fill="#0568b2"><polygon transform="matrix(10.001 0 0 10.001 0 -720.02)" points="0.694 72.487 6.572 72.487 6.572 73.925 4.464 73.925 4.464 79.93 2.802 79.93 2.802 73.925 0.694 73.925"/><polygon transform="matrix(10.001 0 0 10.001 0 -720.02)" points="12.779 76.916 9.446 76.916 9.446 78.46 13.268 78.46 13.268 79.93 7.785 79.93 7.785 72.487 13.15 72.487 13.15 73.967 9.446 73.967 9.446 75.501 12.779 75.501"/><polygon transform="matrix(10.001 0 0 10.001 0 -720.02)" points="19.582 79.93 14.748 79.93 14.748 72.487 16.408 72.487 16.408 78.449 19.582 78.449"/><polygon transform="matrix(10.001 0 0 10.001 0 -720.02)" points="25.788 76.916 22.456 76.916 22.456 78.46 26.278 78.46 26.278 79.93 20.795 79.93 20.795 72.487 26.161 72.487 26.161 73.967 22.456 73.967 22.456 75.501 25.788 75.501"/><polygon transform="matrix(10.001 0 0 10.001 0 -720.02)" points="26.81 72.487 28.61 72.487 30.504 77.226 32.399 72.487 34.198 72.487 31.208 79.93 29.802 79.93"/><rect x="350.86" y="4.9265" width="16.612" height="74.427" stroke-width="10.001"/><polygon transform="matrix(10.001 0 0 10.001 0 -720.02)" points="44.313 72.487 44.313 73.638 40.427 78.481 44.377 78.481 44.377 79.93 38.148 79.93 38.148 78.791 42.045 73.925 38.276 73.925 38.276 72.487"/><rect x="458.3" y="4.9265" width="16.602" height="74.427" stroke-width="10.001"/><path d="m495.99 19.198v-14.271h38.754v48.555c0 8.8709-2.2902 15.512-6.8807 19.912-4.5705 4.3804-10.441 6.5907-17.622 6.5907-8.9509 0-16.752-3.4403-23.422-10.321l8.6209-11.921c4.4704 4.8205 9.1609 7.2307 14.051 7.2307 2.3402 0 4.3504-0.89009 6.0206-2.7103 1.6702-1.8102 2.5102-4.5205 2.5102-8.1408v-34.923z" stroke-width="10.001"/><path d="m604.38 79.364-6.9207-16.082h-31.203l-6.9107 16.082h-17.692l32.163-74.427h16.072l32.163 74.427zm-22.472-52.285-9.3709 21.612h18.632z" stroke-width="10.001"/></g>
</svg>
