<svg width="211.67mm" height="137.18mm" version="1.1" viewBox="0 0 211.67 137.18" xmlns="http://www.w3.org/2000/svg">
 <g transform="matrix(15.11 0 0 -15.11 -1783.3 5934.2)" fill="#fff">
  <g transform="translate(123.87 392.73)">
   <path d="m0 0-5.846-1.242v-7.837l4.938 1.049v-1.049l5.845 1.242v6.419l-4.937-1.05zm-5.391-1.61 4.937 1.049v-2.468l4.937 1.05v-5.49l-4.937-1.049v1.049l-4.937-1.049z" fill="#fff"/>
  </g>
  <g transform="translate(126.3 388.64)">
   <path d="m0 0c-0.141-0.03-0.214-0.209-0.216-0.621-2e-3 -0.411 0.075-0.574 0.216-0.544 0.136 0.029 0.205 0.223 0.208 0.635 2e-3 0.411-0.072 0.559-0.208 0.53m1.376-0.25c2e-3 -0.828-0.476-1.478-1.369-1.667-0.852-0.181-1.382 0.228-1.379 1.082 5e-3 0.819 0.484 1.468 1.376 1.658 0.802 0.171 1.371-0.273 1.372-1.073m-4.416-0.723 0.408 0.087c-0.02 0.217-0.086 0.308-0.202 0.284-0.111-0.024-0.183-0.134-0.206-0.371m1.5-0.14-1.493-0.317c0.039-0.255 0.136-0.319 0.308-0.283 0.131 0.028 0.277 0.112 0.394 0.253l0.681 0.145v-0.582c-0.317-0.315-0.729-0.527-1.198-0.627-0.827-0.176-1.342 0.237-1.349 1.089-5e-3 0.816 0.464 1.464 1.331 1.648 0.888 0.189 1.415-0.379 1.326-1.326m-2.836 0.199v-1.882l-1.196-0.255v1.566c-1e-3 0.126-0.058 0.172-0.174 0.148l-0.106-0.023v-1.75l-1.195-0.254v1.75l-0.211-0.045v0.886l0.943 0.2c0.207 0.044 0.301-0.052 0.327-0.273l0.015 4e-3c0.278 0.38 0.712 0.546 0.924 0.591 0.358 0.076 0.673-0.063 0.673-0.663" fill="#fff"/>
  </g>
  <g transform="translate(122.01 390.61)">
   <path d="m0 0v0.227c0 0.317 0.125 0.463 0.473 0.537 0.182 0.039 0.346 0.032 0.389 0.029v-0.375l-0.267-0.056v0.128c-0.033-1e-3 -0.058-1e-3 -0.098-9e-3 -0.083-0.018-0.125-0.069-0.125-0.161v-0.241l0.335 0.071v-0.302l-0.313-0.067v-0.795l0.199 0.043v-0.303l-0.729-0.154v0.302l0.137 0.029-1e-3 0.795-0.142-0.031v0.303zm-0.845-0.91c1e-3 0.272-0.063 0.403-0.194 0.398-0.152-0.01-0.242-0.189-0.243-0.474 0-0.238 0.068-0.361 0.206-0.354 0.15 7e-3 0.232 0.161 0.231 0.43m0.394-0.194c0-0.067 0.021-0.085 0.082-0.072l0.057 0.012v-0.302l-0.271-0.058c-0.132-0.028-0.196 0.015-0.205 0.133l-0.014 3e-3c-0.058-0.136-0.17-0.241-0.368-0.283-0.26-0.055-0.528 0.073-0.529 0.59 1e-3 0.496 0.173 0.779 0.529 0.855 0.134 0.028 0.255-0.013 0.313-0.099l0.01 2e-3v0.482l-0.126-0.027v0.299l0.522 0.111zm-2.519-0.927v0.308l0.602 0.917-0.337-0.071-6e-3 -0.156-0.259-0.055v0.457l1.05 0.223v-0.306l-0.599-0.919 0.359 0.076 9e-3 0.179 0.284 0.06v-0.478z" fill="#fff"/>
  </g>
  <g transform="translate(125.06 385.85)">
   <path d="m0 0v-0.464l2.508 0.533v0.464z" fill="#fff"/>
  </g>
 </g>
 <g transform="matrix(15.11 0 0 -15.11 -1783.3 5934.2)" fill="#fff">
  <g transform="translate(130.6 390.33)">
   <path d="m0 0-1e-3 -3.538-0.304-0.065 1e-3 1.675-0.512-0.108-1e-3 -1.675-0.303-0.065 1e-3 3.538 0.304 0.065-4e-3 -1.567 0.512 0.109 4e-3 1.566z" fill="#fff"/>
  </g>
  <g transform="translate(131.46 390.21)">
   <path d="m0 0-0.218-0.046 1e-3 -2.943 0.218 0.046c0.142 0.03 0.269 0.156 0.269 0.345l2e-3 2.368c-1e-3 0.189-0.13 0.26-0.272 0.23m0.575-0.14-1e-3 -2.419c-2e-3 -0.317-0.228-0.608-0.569-0.68l-0.526-0.112 1e-3 3.538 0.526 0.112c0.341 0.072 0.566-0.123 0.569-0.439" fill="#fff"/>
  </g>
 </g>
</svg>
