<?xml version="1.0" encoding="UTF-8"?>
<svg id="svg24" width="256.93" height="139.7" preserveAspectRatio="xMidYMid" version="1.1" viewBox="0 0 256.93 139.7" xmlns="http://www.w3.org/2000/svg" xmlns:cc="http://creativecommons.org/ns#" xmlns:dc="http://purl.org/dc/elements/1.1/" xmlns:rdf="http://www.w3.org/1999/02/22-rdf-syntax-ns#">
 <metadata id="metadata28">
  <rdf:RDF>
   <cc:Work rdf:about="">
    <dc:format>image/svg+xml</dc:format>
    <dc:type rdf:resource="http://purl.org/dc/dcmitype/StillImage"/>
    <dc:title/>
   </cc:Work>
  </rdf:RDF>
 </metadata>
<!-- Generator: Sketch 49 (51002) - http://www.bohemiancoding.com/sketch -->
 <desc id="desc4">Created with Sketch.</desc>
 <g id="g868" fill="#e10098">
  <path id="Shape" d="m254.55 71.97h-17.64v9.52h20.02v5.55h-26.37v-35.29h26.17v5.55h-20.02v9.12h17.84z"/>
  <path id="polygon9" d="m216.88 87.03-19.62-25.11v25.11h-6.15v-35.28h5.52l19.06 24.4v-24.4h6.15v35.28z"/>
  <path id="path11" d="m147.11 69.61v-0.1c0-9.93 7.66-18.25 18.49-18.25 10.82 0 18.38 8.22 18.38 18.15v0.1c0 9.93-7.66 18.25-18.48 18.25s-18.39-8.23-18.39-18.15zm30.32-0.01v-0.1c0-6.82-4.96-12.5-11.94-12.5s-11.84 5.58-11.84 12.4v0.1c0 6.82 4.96 12.5 11.94 12.5s11.84-5.57 11.84-12.4z"/>
 </g>
 <g id="g863" fill="#e10098">
  <path id="path14" d="m120.74 66.02h18.61c-0.13-2.39-0.38-4.77-0.75-7.14h-17.85v7.14z"/>
  <path id="path16" d="m120.74 80.29h17.79c0.37-2.43 0.6-4.88 0.71-7.33h-18.5z"/>
  <path id="path18" d="m113.21 87.23v-35.29h24.18c-7.91-29.9-35.15-51.94-67.54-51.94-38.58 0-69.85 31.28-69.85 69.85s31.28 69.85 69.85 69.85c32.58 0 59.95-22.31 67.68-52.48h-24.32zm-44.4-29.42-19.25 22.48h19.25v6.74h-29.14v-5.81l19.31-22.54h-18.72v-6.74h28.54v5.87zm35.08 1.07h-19.03v7.14h19.03v6.94h-19.03v7.33h19.03v6.94h-26.76v-35.29h26.76z"/>
 </g>
</svg>
