<svg width="800" height="278.27" version="1.1" viewBox="0 0 211.67 73.626" xmlns="http://www.w3.org/2000/svg">
 <g transform="translate(-85.535 -113.47)">
  <g transform="matrix(6.1535 0 0 -6.1535 158.42 129.61)" fill="#f48c00">
   <path d="m0 0c-0.739-1e-3 -1.41-0.621-1.41-1.286v-5.314c0.739 2e-3 1.41 0.621 1.41 1.286zm19.357-5.344c-0.479 1e-3 -0.888 0.162-1.249 0.491-0.346 0.332-0.509 0.709-0.513 1.194-7e-3 0.199-7e-3 0.639 1e-3 0.846 4e-3 0.474 0.168 0.846 0.515 1.173 0.349 0.335 0.757 0.498 1.246 0.498s0.896-0.163 1.247-0.5c0.346-0.325 0.509-0.697 0.514-1.175 7e-3 -0.194 0.01-0.632 0-0.847-4e-3 -0.48-0.167-0.857-0.509-1.186-0.364-0.332-0.774-0.493-1.252-0.494m3.194 2.534c-2e-3 0.84-0.318 1.567-0.938 2.161-0.627 0.601-1.386 0.905-2.256 0.905h-1e-3c-0.869 0-1.628-0.304-2.255-0.905-0.62-0.594-0.936-1.321-0.938-2.155-4e-3 -0.13-4e-3 -0.689 0-0.863 5e-3 -0.848 0.321-1.578 0.938-2.17l8e-3 -7e-3c0.629-0.538 1.385-0.811 2.247-0.811h1e-3c0.861 0 1.618 0.273 2.247 0.81l9e-3 8e-3c0.617 0.592 0.932 1.322 0.938 2.167 4e-3 0.177 4e-3 0.736 0 0.86m-8.372-0.702c-0.472-0.189-0.612-0.56-0.678-0.737-0.084-0.222-0.219-0.419-0.408-0.601-0.364-0.332-0.773-0.493-1.252-0.494-0.478 1e-3 -0.888 0.162-1.249 0.491-0.346 0.332-0.509 0.709-0.513 1.194-7e-3 0.199-7e-3 0.639 1e-3 0.846 5e-3 0.474 0.168 0.846 0.515 1.173 0.349 0.335 0.757 0.498 1.246 0.498s0.907-0.144 1.348-0.602c0.118-0.123 0.303-0.204 0.497-0.204 0.196 0 0.374 0.08 0.502 0.208 0.129 0.128 0.208 0.306 0.208 0.502 0 0.169-0.058 0.325-0.158 0.446-0.393 0.476-1.241 1.048-2.397 1.048-0.87 0-1.629-0.304-2.256-0.905-0.62-0.594-0.936-1.321-0.938-2.155-4e-3 -0.13-4e-3 -0.689 0-0.863 6e-3 -0.848 0.321-1.578 0.938-2.17l9e-3 -7e-3c0.629-0.538 1.385-0.811 2.247-0.811 0.663 0 1.259 0.159 1.788 0.479 0-0.406-0.248-1.769-1.774-1.769-0.435 0-0.74 0.166-0.841 0.227-0.604 0.361-1.22 0.092-1.663-0.351 0 0 0.849-1.274 2.498-1.274 0.84 0 1.605 0.25 2.212 0.856 0.674 0.673 0.971 1.518 0.971 2.49v2.626s-0.456 0.017-0.853-0.141m-6.663 0.141v-2.626c0-0.972-0.297-1.817-0.971-2.49-0.606-0.606-1.372-0.856-2.212-0.856-1.649 0-2.498 1.274-2.498 1.274 0.443 0.443 1.06 0.712 1.663 0.351 0.102-0.061 0.406-0.227 0.841-0.227 1.526 0 1.774 1.363 1.774 1.769-0.528-0.32-1.125-0.479-1.788-0.479-0.862 0-1.618 0.273-2.247 0.811l-8e-3 7e-3c-0.618 0.592-0.933 1.322-0.939 2.17-4e-3 0.174-4e-3 0.733 0 0.863 2e-3 0.834 0.318 1.561 0.939 2.155 0.626 0.601 1.385 0.905 2.255 0.905 1.156 0 2.004-0.572 2.397-1.048 0.1-0.121 0.158-0.277 0.158-0.446 0-0.196-0.079-0.374-0.208-0.502-0.128-0.128-0.305-0.208-0.502-0.208-0.193 0-0.379 0.081-0.497 0.204-0.44 0.458-0.859 0.602-1.348 0.602s-0.896-0.163-1.245-0.498c-0.348-0.327-0.511-0.699-0.516-1.173-8e-3 -0.207-8e-3 -0.647 0-0.846 4e-3 -0.485 0.167-0.862 0.513-1.194 0.36-0.329 0.77-0.49 1.248-0.491 0.479 1e-3 0.888 0.162 1.252 0.494 0.19 0.182 0.324 0.379 0.408 0.601 0.066 0.177 0.206 0.548 0.678 0.737 0.397 0.158 0.853 0.141 0.853 0.141m-10.202-3.229c-0.025 0.514-0.373 1.306-1.246 1.41h-3.107l3.579 3.427c0.152 0.145 0.491 0.633 0.249 1.16-0.194 0.423-0.519 0.603-1.086 0.603h-4.46c0.018-0.592 0.313-1.298 1.098-1.424h2.548l-3.766-3.54c-0.153-0.146-0.404-0.597-0.206-1.055 0.179-0.413 0.481-0.581 1.041-0.581zm1.909-0.839c0.138-0.138 0.207-0.319 0.207-0.499 0-0.215-0.096-0.388-0.206-0.499-0.21-0.209-0.496-0.428-0.87-0.582-0.314-0.131-0.658-0.203-1.019-0.203h-6.514c-0.736 0-1.402 0.299-1.885 0.781-0.482 0.482-0.78 1.148-0.78 1.884v6.514c0 0.736 0.298 1.402 0.78 1.884 0.483 0.482 1.149 0.781 1.885 0.781h6.514c0.361 0 0.705-0.072 1.019-0.203 0.431-0.178 0.706-0.398 0.972-0.685 0.106-0.114 0.207-0.283 0.207-0.499 0-0.18-0.069-0.361-0.207-0.498-0.138-0.138-0.318-0.207-0.498-0.207-0.181 0-0.364 0.071-0.499 0.207-0.188 0.188-0.291 0.284-0.507 0.376-0.15 0.063-0.314 0.098-0.487 0.098h-6.514c-0.346 0-0.66-0.14-0.887-0.368-0.227-0.226-0.368-0.54-0.368-0.886v-6.514c0-0.346 0.141-0.66 0.368-0.887s0.541-0.367 0.887-0.367h6.514c0.173 0 0.337 0.035 0.487 0.098 0.135 0.057 0.276 0.146 0.404 0.274 0.136 0.135 0.318 0.206 0.499 0.206 0.18 0 0.361-0.069 0.498-0.206" fill="#f48c00"/>
  </g>
 </g>
</svg>
