<svg width="800" height="799.78" version="1.1" viewBox="0 0 800 799.78" xmlns="http://www.w3.org/2000/svg">
 <path d="m350.79 797.54c-88.879-11.225-166.37-48.765-230.68-111.75-78.771-77.148-120.11-175.51-120.11-285.79s41.338-208.64 120.11-285.79c76.841-75.257 172.31-114.21 279.89-114.21s203.05 38.956 279.89 114.21c78.771 77.148 120.11 175.51 120.11 285.79 0 107.58-38.956 203.05-114.21 279.89-65.47 66.849-145.33 106.32-238.12 117.68-24.084 2.9524-73.365 2.9317-96.873-0.0365z" fill="#fe3460" stroke-width="1.5873"/>
 <path d="m203.31 495.07c-17.662-9.0635-31.756-12.083-56.573-12.122-23.695-0.0381-38.584 2.927-54.048 10.762l-8.3175 4.2159-19.611-19.564c-10.786-10.762-19.611-20.079-19.611-20.708s19.286-20.983 42.857-45.229c23.571-24.248 42.857-44.911 42.857-45.921 0-1.0921-5.3016-2.5762-13.095-3.6667-7.2016-1.0095-19.881-3.6794-28.175-5.9333-15.289-4.1556-43.083-16.095-45.113-19.381-0.87619-1.4159 21.456-41.464 26.029-46.681 0.59841-0.68254 6.3873 1.2714 12.863 4.3397 33.208 15.735 76.175 16.952 107.61 3.054 4.6921-2.0746 9.346-3.773 10.341-3.773 0.99683 0 10.686 8.8968 21.532 19.768l19.721 19.768-45.005 45.262c-28.067 28.225-44.16 45.516-42.762 45.941 1.2365 0.37461 9.9492 1.8635 19.365 3.3095 9.4127 1.4444 22.587 4.4127 29.27 6.5952 15.771 5.1476 40.119 16.476 40.119 18.667 0 2.3778-26.878 47.057-28.249 46.96-0.61429-0.0429-6.0159-2.5921-12.003-5.6651zm54.538-89.495v-87.302h55.556v174.6h-55.556zm-19.47-107.56-18.625-18.675 19.468-19.421 19.467-19.421 19.513 19.559 19.513 19.56-19.757 18.537c-10.865 10.194-20.025 18.535-20.354 18.535s-8.9794-8.4032-19.222-18.675zm98.835 107.56v-87.302h18.392c17.846 0 18.587-0.13968 25-4.7095 17.659-12.587 46.919-17.517 71.497-12.049 34.114 7.5889 60.311 32.187 70.329 66.038 2.0889 7.0587 2.6905 19.429 3.2524 66.99l0.68889 58.333h-55.825v-55.606c0-59.652-0.33174-62.454-8.4095-71.113-6.9016-7.4-15.2-10.411-28.892-10.483-14.038-0.073-21.667 2.8222-29.678 11.263-8.8936 9.3698-9.2857 12.086-10.337 71.314l-0.96825 54.624h-55.049zm285.71 195.84c-19.9-3.8778-39.116-14.249-53.984-29.138-17.403-17.429-25.473-34.43-27.865-58.71l-1.1-11.165h55.702l1.7143 7.9889c2.4429 11.394 6.9572 19.381 14.695 26.003 16.175 13.844 39.625 13.492 55.911-0.84444 10.594-9.3254 14.056-16.922 14.924-32.754l0.71905-13.1-10.913 4.2095c-14.359 5.5365-41.698 6.9746-58.354 3.0683-26.317-6.1714-53.083-27.768-65.733-53.046-8.4873-16.954-10.357-26.819-9.5175-50.187 0.60952-16.917 1.2476-20.433 5.5619-30.573 15.619-36.717 47.479-60.797 83.948-63.444 23.317-1.6921 44.587 3.0921 62.722 14.108 6.9937 4.2476 8.2064 4.4444 27.381 4.4444h20.062l-0.027 45.635c-0.0206 33.868-0.62699 48.5-2.3524 56.746-3.454 16.503-13.165 34.846-25.508 48.175l-10.505 11.349h38.392l-0.027 17.063c-0.0365 22.078-2.9683 35.397-11.359 51.579-11.848 22.857-32.084 39.94-58.019 48.984-9.0794 3.1651-37.438 5.3667-46.468 3.6079zm34.187-161.5c15.006-6.9889 26.13-24.311 26.13-40.69 0-18.057-13.11-36.4-30.032-42.021-20.53-6.819-45.357 3.0048-55.117 21.81-3.381 6.5111-4.6429 25.316-2.2857 34.033 2.8063 10.373 10.825 19.579 22.17 25.452 12.883 6.6698 26.773 7.1714 39.135 1.4159z" fill="#fff" stroke-width="1.5873"/>
</svg>
