<?xml version="1.0" encoding="UTF-8" standalone="no"?>
<svg
   xmlns:dc="http://purl.org/dc/elements/1.1/"
   xmlns:cc="http://creativecommons.org/ns#"
   xmlns:rdf="http://www.w3.org/1999/02/22-rdf-syntax-ns#"
   xmlns:svg="http://www.w3.org/2000/svg"
   xmlns="http://www.w3.org/2000/svg"
   xmlns:sodipodi="http://sodipodi.sourceforge.net/DTD/sodipodi-0.dtd"
   xmlns:inkscape="http://www.inkscape.org/namespaces/inkscape"
   width="600"
   height="200.14"
   version="1.1"
   viewBox="0 0 158.75 52.955"
   id="svg14"
   sodipodi:docname="Joe - Dark.svg"
   inkscape:version="1.0.1 (3bc2e813f5, 2020-09-07)">
  <metadata
     id="metadata20">
    <rdf:RDF>
      <cc:Work
         rdf:about="">
        <dc:format>image/svg+xml</dc:format>
        <dc:type
           rdf:resource="http://purl.org/dc/dcmitype/StillImage" />
      </cc:Work>
    </rdf:RDF>
  </metadata>
  <defs
     id="defs18">
    <rect
       x="-136.51198"
       y="96.83323"
       width="639.89085"
       height="152.96438"
       id="rect847" />
  </defs>
  <sodipodi:namedview
     pagecolor="#ffffff"
     bordercolor="#666666"
     borderopacity="1"
     objecttolerance="10"
     gridtolerance="10"
     guidetolerance="10"
     inkscape:pageopacity="0"
     inkscape:pageshadow="2"
     inkscape:window-width="1920"
     inkscape:window-height="1017"
     id="namedview16"
     showgrid="false"
     inkscape:zoom="0.21708333"
     inkscape:cx="45.97006"
     inkscape:cy="-760.71858"
     inkscape:window-x="-8"
     inkscape:window-y="-8"
     inkscape:window-maximized="1"
     inkscape:current-layer="svg14" />
  <g
     transform="matrix(1.9485657,0,0,1.9485657,-517.03242,-203.21798)"
     id="g12">
    <g
       fill="#cedc00"
       id="g10">
      <path
         d="m 344.72,118.76 c -7.6039,0 -13.768,-6.1642 -13.768,-13.768 0,-7.6039 6.1642,-13.768 13.768,-13.768 7.6039,0 13.768,6.1642 13.768,13.768 0,7.6039 -6.1642,13.768 -13.768,13.768 z m 0,-40.245 c -14.623,0 -26.477,11.854 -26.477,26.477 0,14.623 11.854,26.477 26.477,26.477 14.623,0 26.477,-11.854 26.477,-26.477 0,-14.623 -11.854,-26.477 -26.477,-26.477"
         id="path4" />
      <path
         d="m 318.83,84.028 v -4.6011 h -13.239 v 25.562 c 0,7.6039 -6.1933,13.762 -13.797,13.762 -7.0663,0 -12.915,-5.2348 -13.703,-12.185 H 265.34 c 0.82224,13.9 12.336,24.894 26.425,24.894 9.5603,0 17.935,-5.065 22.589,-12.66 -1.9186,-4.2108 -2.9671,-8.884 -2.9671,-13.813 0,-7.942 2.8092,-15.231 7.4427,-20.959"
         id="path6" />
      <path
         d="m 383.64,104.99 c 0,-7.7502 6.2827,-14.033 14.033,-14.033 1.6353,0 3.2018,0.28628 4.6606,0.80093 l -17.896,17.896 c -0.51465,-1.4597 -0.79729,-3.0287 -0.79729,-4.6644 z m 27.974,1.5774 c -0.78934,6.9502 -6.7282,12.45 -13.941,12.45 -1.6356,0 -3.2047,-0.2799 -4.6643,-0.79431 l 27.172,-27.171 c -4.6696,-7.5251 -13,-12.54 -22.508,-12.54 -9.5612,0 -17.933,5.0727 -22.587,12.669 1.9169,4.2092 2.9936,8.8818 2.9936,13.809 0,4.9268 -1.0766,9.5994 -2.9936,13.809 4.654,7.5962 13.025,12.663 22.587,12.663 14.088,0 25.593,-10.994 26.416,-24.894 h -12.475"
         id="path8" />
    </g>
  </g>
  <text
     xml:space="preserve"
     id="text845"
     style="font-style:normal;font-weight:normal;font-size:10.5836px;line-height:1.25;font-family:sans-serif;white-space:pre;shape-inside:url(#rect847);fill:#000000;fill-opacity:1;stroke:none;"
     transform="matrix(12.17861,0,0,12.17861,1553.4419,-1132.9365)"><tspan
       x="-136.51172"
       y="106.19799"><tspan
         style="font-style:normal;font-variant:normal;font-weight:bold;font-stretch:normal;font-family:Geomanist;-inkscape-font-specification:'Geomanist Bold'">60's&amp;70's
</tspan></tspan><tspan
       x="-136.51172"
       y="119.53085"><tspan
         style="font-style:normal;font-variant:normal;font-weight:bold;font-stretch:normal;font-family:Geomanist;-inkscape-font-specification:'Geomanist Bold'">80's
</tspan></tspan><tspan
       x="-136.51172"
       y="132.8637"><tspan
         style="font-style:normal;font-variant:normal;font-weight:bold;font-stretch:normal;font-family:Geomanist;-inkscape-font-specification:'Geomanist Bold'">90's
</tspan></tspan><tspan
       x="-136.51172"
       y="146.19656"><tspan
         style="font-style:normal;font-variant:normal;font-weight:bold;font-stretch:normal;font-family:Geomanist;-inkscape-font-specification:'Geomanist Bold'">easy</tspan></tspan></text>
</svg>
